track,note,velocity,time
0,76,100,528
0,76,0,190
0,78,107,2
0,78,0,172
0,49,80,20
0,52,78,0
0,78,104,0
0,49,34,0
0,56,48,0
0,61,46,0
0,78,0,190
0,56,81,2
0,80,107,0
0,63,86,192
0,64,91,192
0,63,0,52
0,56,0,58
0,52,16,0
0,56,43,0
0,63,77,6
0,80,111,2
0,80,0,54
0,81,104,42
0,52,0,82
0,81,0,12
0,80,111,2
0,56,0,8
0,52,0,34
0,49,0,52
0,80,0,0
0,76,107,2
0,49,0,60
0,56,0,22
0,76,0,12
0,47,80,2
0,54,84,0
0,78,107,0
0,47,49,0
0,54,48,0
0,59,56,0
0,63,0,6
0,78,0,184
0,59,84,2
0,83,100,0
0,63,83,192
0,64,86,192
0,63,0,18
0,64,0,350
0,63,83,16
0,83,0,126
0,85,113,66
0,85,0,94
0,83,103,2
0,59,0,94
0,83,0,0
0,81,106,2
0,54,0,56
0,59,0,28
0,81,0,10
0,80,111,2
0,47,0,16
0,54,0,0
0,80,0,40
0,47,0,0
0,45,80,40
0,52,84,0
0,80,115,0
0,45,56,0
0,57,43,0
0,61,49,0
0,63,0,6
0,80,0,184
0,57,84,2
0,76,103,0
0,63,81,192
0,64,90,192
0,63,0,46
0,57,0,58
0,52,40,88
0,57,41,0
0,61,0,54
0,63,78,138
0,64,0,2
0,52,0,306
0,76,0,30
0,57,0,8
0,73,101,38
0,57,0,84
0,52,0,32
0,45,0,46
0,47,87,4
0,54,84,0
0,47,55,0
0,54,57,0
0,59,60,0
0,63,0,8
0,45,0,4
0,59,93,148
0,63,88,192
0,64,91,192
0,63,0,8
0,63,87,376
0,64,0,10
0,73,0,190
0,54,0,82
0,76,113,50
0,54,0,22
0,59,0,28
0,47,0,4
0,63,0,2
0,76,0,134
0,49,80,2
0,52,78,0
0,78,104,0
0,49,34,0
0,56,48,0
0,61,46,0
0,78,0,190
0,56,81,2
0,80,104,0
0,63,86,192
0,64,91,192
0,63,0,52
0,56,0,58
0,52,16,82
0,56,43,0
0,61,0,30
0,80,0,64
0,64,0,92
0,63,77,6
0,80,113,0
0,80,0,94
0,81,103,2
0,81,0,94
0,83,101,2
0,83,0,94
0,81,106,2
0,52,0,82
0,81,0,12
0,80,111,2
0,56,0,8
0,52,0,34
0,49,0,52
0,80,0,0
0,76,101,2
0,49,0,60
0,76,0,22
0,56,0,0
0,47,80,14
0,54,84,0
0,78,115,0
0,47,49,0
0,54,48,0
0,59,56,0
0,63,0,6
0,59,84,186
0,83,111,0
0,78,0,6
0,63,83,186
0,64,86,192
0,63,0,18
0,83,0,268
0,64,0,82
0,63,83,16
0,80,107,0
0,80,0,190
0,83,107,2
0,83,0,94
0,59,0,96
0,83,113,2
0,54,0,56
0,59,0,28
0,47,0,28
0,54,0,0
0,47,0,40
0,45,80,40
0,52,84,0
0,45,56,0
0,57,43,0
0,61,49,0
0,63,0,6
0,57,84,10
0,63,81,106
0,64,90,192
0,63,0,46
0,57,0,58
0,52,40,88
0,57,41,0
0,61,0,54
0,83,0,32
0,63,78,4
0,83,111,0
0,64,0,2
0,52,0,306
0,57,0,38
0,83,0,36
0,78,107,2
0,57,0,84
0,78,0,8
0,80,100,4
0,52,0,20
0,45,0,46
0,80,0,28
0,47,87,2
0,54,84,0
0,78,106,0
0,47,55,0
0,54,57,0
0,59,60,0
0,63,0,8
0,45,0,4
0,59,93,180
0,63,88,192
0,64,91,192
0,63,0,8
0,63,87,376
0,64,0,10
0,54,0,272
0,78,0,16
0,59,0,12
0,47,0,2
0,54,0,94
0,59,0,28
0,47,0,4
0,63,0,2
0,40,88,136
0,56,93,0
0,64,70,0
0,40,26,0
0,47,30,0
0,56,35,0
0,59,56,0
0,64,56,0
0,47,88,192
0,59,87,0
0,52,79,192
0,64,98,0
0,64,0,162
0,66,100,30
0,64,70,0
0,64,0,66
0,64,0,46
0,64,68,80
0,66,0,112
0,68,100,80
0,64,0,158
0,64,81,34
0,59,0,216
0,40,0,6
0,56,0,2
0,56,0,16
0,64,0,16
0,47,0,2
0,68,0,8
0,47,0,4
0,52,0,2
0,40,0,2
0,59,0,78
0,64,0,26
0,47,84,6
0,54,94,0
0,63,72,0
0,47,60,0
0,54,55,0
0,59,50,0
0,61,58,0
0,66,50,0
0,59,83,192
0,63,0,188
0,66,84,4
0,64,70,0
0,64,96,192
0,66,0,8
0,64,0,260
0,64,0,34
0,63,93,82
0,63,78,192
0,66,0,208
0,54,0,20
0,59,0,4
0,61,0,6
0,59,0,4
0,63,0,52
0,47,0,0
0,54,0,6
0,47,0,22
0,63,0,10
0,45,90,52
0,52,94,0
0,63,81,0
0,45,58,0
0,59,48,0
0,61,36,0
0,64,63,0
0,57,87,192
0,61,91,192
0,64,75,0
0,63,0,22
0,63,94,170
0,61,0,4
0,64,0,236
0,63,0,128
0,64,88,16
0,66,81,192
0,52,0,212
0,59,0,22
0,61,0,8
0,57,0,4
0,64,0,6
0,45,0,30
0,64,0,4
0,45,0,16
0,66,0,76
0,47,90,6
0,56,102,0
0,68,81,0
0,47,60,0
0,56,49,0
0,59,60,0
0,64,61,0
0,59,94,192
0,64,94,192
0,68,0,188
0,68,102,4
0,69,70,0
0,56,0,0
0,59,0,4
0,64,0,20
0,64,0,16
0,47,0,24
0,47,0,0
0,68,68,32
0,69,0,12
0,68,0,24
0,56,0,34
0,59,0,24
0,47,90,2
0,66,100,0
0,66,70,0
0,47,56,0
0,54,49,0
0,59,62,0
0,63,62,0
0,68,0,18
0,63,93,174
0,59,93,192
0,54,0,184
0,54,84,8
0,59,0,10
0,63,0,28
0,63,0,16
0,66,0,14
0,47,0,6
0,54,0,24
0,59,0,6
0,66,0,22
0,40,88,66
0,56,94,0
0,64,70,0
0,40,61,0
0,56,41,0
0,59,54,0
0,64,54,0
0,47,0,10
0,59,94,182
0,64,86,192
0,64,0,116
0,66,98,76
0,64,75,0
0,64,0,26
0,64,0,78
0,64,75,88
0,66,0,92
0,68,93,100
0,64,0,104
0,64,78,88
0,59,0,200
0,56,0,6
0,64,0,22
0,40,0,16
0,56,0,30
0,40,0,24
0,64,0,42
0,68,0,4
0,47,91,40
0,54,94,0
0,63,72,0
0,47,50,0
0,54,41,0
0,59,48,0
0,61,57,0
0,66,57,0
0,59,0,4
0,59,94,188
0,81,48,192
0,64,72,0
0,63,0,6
0,81,0,42
0,64,94,144
0,64,0,154
0,64,0,192
0,63,93,38
0,66,102,192
0,64,78,0
0,63,0,32
0,66,0,188
0,61,0,12
0,54,0,8
0,59,0,4
0,59,0,26
0,47,0,6
0,66,0,16
0,54,0,6
0,47,0,42
0,45,93,44
0,57,98,0
0,61,76,0
0,59,78,0
0,45,64,0
0,57,58,0
0,59,61,0
0,64,56,0
0,64,0,4
0,61,0,16
0,59,90,172
0,61,98,192
0,59,0,18
0,64,96,174
0,61,0,48
0,61,86,336
0,45,0,224
0,57,0,204
0,61,0,14
0,64,0,16
0,59,0,256
0,52,90,54
0,57,90,0
0,64,102,0
0,66,102,192
0,64,0,178
0,68,102,14
0,66,0,54
0,45,100,138
0,69,102,0
0,68,0,2
0,71,98,190
0,73,111,192
0,71,0,38
0,57,0,60
0,52,0,12
0,45,0,44
0,75,102,38
0,59,0,34
0,73,0,6
0,64,0,0
0,57,0,0
0,45,0,56
0,40,88,96
0,47,102,0
0,68,108,0
0,76,111,0
0,64,75,0
0,40,68,0
0,56,66,0
0,59,63,0
0,64,62,0
0,75,0,34
0,69,0,4
0,81,67,346
0,81,0,132
0,64,0,10
0,76,0,38
0,56,91,12
0,64,87,0
0,71,93,0
0,64,81,0
0,64,0,50
0,64,72,142
0,64,0,280
0,64,0,22
0,68,0,10
0,71,0,58
0,64,94,14
0,68,86,0
0,64,72,0
0,40,0,50
0,47,0,22
0,56,0,16
0,59,0,130
0,64,0,8
0,40,0,30
0,56,0,6
0,64,0,78
0,68,0,10
0,64,0,0
0,47,100,34
0,63,70,0
0,47,62,0
0,54,58,0
0,59,65,0
0,54,87,192
0,63,93,0
0,57,82,192
0,71,100,0
0,64,72,0
0,63,0,2
0,81,57,190
0,64,93,0
0,63,0,6
0,81,0,38
0,64,0,136
0,54,70,12
0,81,62,0
0,71,0,126
0,66,91,66
0,64,70,192
0,54,0,174
0,47,0,12
0,54,0,52
0,59,0,42
0,54,0,16
0,47,0,18
0,81,0,22
0,64,0,36
0,45,98,12
0,63,70,0
0,45,68,0
0,61,68,0
0,57,0,24
0,64,0,162
0,52,93,6
0,59,108,0
0,63,0,176
0,81,64,16
0,57,84,0
0,61,100,0
0,64,75,0
0,57,70,0
0,66,0,36
0,64,98,156
0,64,0,290
0,71,93,94
0,78,108,192
0,66,78,0
0,57,0,78
0,45,0,24
0,52,0,20
0,45,0,128
0,61,0,2
0,81,0,46
0,59,0,14
0,61,0,34
0,57,0,0
0,66,0,20
0,78,0,10
0,64,0,6
0,47,108,2
0,80,110,0
0,68,78,0
0,47,71,0
0,56,59,0
0,59,64,0
0,64,63,0
0,71,0,50
0,56,102,142
0,81,64,192
0,59,105,0
0,68,0,166
0,64,96,26
0,68,93,0
0,81,104,0
0,69,72,0
0,80,0,4
0,64,0,2
0,59,0,12
0,56,0,16
0,47,0,32
0,47,0,10
0,69,0,16
0,81,0,2
0,80,104,2
0,68,78,0
0,56,0,6
0,59,0,68
0,64,0,20
0,54,69,2
0,47,98,0
0,78,103,0
0,66,78,0
0,47,67,0
0,54,57,0
0,59,50,0
0,63,61,0
0,80,0,6
0,68,0,6
0,68,0,10
0,81,0,10
0,54,98,160
0,59,108,0
0,81,71,192
0,63,102,0
0,54,0,80
0,66,100,112
0,54,0,48
0,63,0,12
0,59,0,2
0,47,0,2
0,81,0,32
0,47,0,10
0,59,0,16
0,66,0,8
0,54,0,22
0,63,0,8
0,40,105,32
0,59,105,0
0,76,95,0
0,64,72,0
0,40,62,0
0,56,56,0
0,59,51,0
0,64,62,0
0,78,0,22
0,66,0,6
0,56,100,164
0,64,102,0
0,81,67,192
0,68,111,0
0,64,0,114
0,64,0,2
0,81,0,16
0,66,94,60
0,64,72,0
0,76,0,20
0,64,0,40
0,64,75,132
0,66,0,138
0,64,94,54
0,64,0,132
0,64,85,60
0,56,0,110
0,40,0,40
0,59,0,28
0,56,0,4
0,64,0,20
0,40,0,38
0,59,0,72
0,64,0,38
0,68,0,30
0,64,0,0
0,47,102,4
0,63,78,0
0,47,60,0
0,54,62,0
0,59,65,0
0,61,61,0
0,66,59,0
0,54,102,192
0,63,0,188
0,57,100,4
0,64,78,0
0,54,69,192
0,81,57,0
0,64,102,0
0,68,100,0
0,81,0,44
0,54,0,2
0,59,0,14
0,54,0,0
0,61,0,10
0,66,0,10
0,47,0,18
0,54,58,94
0,81,62,0
0,47,68,0
0,54,58,0
0,59,57,0
0,66,41,0
0,68,0,118
0,64,0,70
0,64,105,4
0,71,93,0
0,64,0,86
0,64,78,106
0,47,0,146
0,54,0,10
0,66,0,86
0,57,0,14
0,54,0,0
0,54,0,20
0,59,0,6
0,71,0,6
0,47,0,16
0,81,0,32
0,45,100,48
0,59,105,0
0,59,85,0
0,45,70,0
0,59,56,0
0,61,61,0
0,64,71,0
0,64,0,2
0,64,0,30
0,52,91,160
0,61,100,0
0,81,64,192
0,57,84,0
0,64,100,0
0,71,102,192
0,54,74,192
0,59,0,8
0,59,108,184
0,61,0,28
0,71,0,64
0,61,102,100
0,64,0,34
0,69,111,158
0,81,0,106
0,54,0,66
0,64,100,8
0,61,0,10
0,81,64,182
0,61,100,0
0,57,0,92
0,59,102,100
0,61,0,28
0,64,0,162
0,54,84,2
0,57,91,0
0,61,100,0
0,69,0,4
0,81,0,28
0,64,102,160
0,45,0,88
0,81,71,104
0,45,93,0
0,69,102,0
0,59,0,110
0,54,0,24
0,59,0,30
0,61,0,10
0,64,0,2
0,45,0,6
0,45,0,76
0,59,0,12
0,61,0,4
0,57,0,2
0,69,0,2
0,64,0,0
0,81,0,10
0,52,0,12
0,49,94,84
0,52,93,0
0,64,68,0
0,49,53,0
0,52,53,0
0,61,50,0
0,56,108,192
0,81,67,192
0,63,100,0
0,81,0,132
0,64,102,60
0,63,0,40
0,64,0,328
0,63,91,16
0,52,0,366
0,56,0,26
0,49,0,76
0,61,0,88
0,49,0,10
0,64,0,8
0,47,93,2
0,54,98,0
0,66,72,0
0,47,56,0
0,54,60,0
0,59,56,0
0,52,0,8
0,63,0,4
0,59,96,180
0,63,100,192
0,81,57,192
0,64,94,0
0,63,0,6
0,81,0,38
0,54,70,148
0,81,62,0
0,63,98,192
0,64,0,18
0,59,0,410
0,54,0,2
0,59,0,26
0,54,0,16
0,54,0,24
0,47,0,24
0,81,0,8
0,47,0,4
0,66,0,16
0,45,96,28
0,52,94,0
0,71,85,0
0,45,64,0
0,52,67,0
0,59,58,0
0,61,64,0
0,63,0,6
0,57,100,186
0,81,64,192
0,63,102,0
0,64,102,192
0,63,0,42
0,71,0,148
0,69,81,2
0,57,67,0
0,59,0,12
0,64,0,148
0,63,100,32
0,57,0,146
0,69,0,40
0,61,102,6
0,68,78,0
0,52,0,12
0,68,0,178
0,59,98,2
0,66,81,0
0,61,0,32
0,81,0,74
0,52,0,12
0,61,0,56
0,57,0,10
0,59,0,2
0,45,0,6
0,47,98,0
0,54,102,0
0,47,71,0
0,54,71,0
0,59,68,0
0,63,0,2
0,45,0,30
0,59,108,160
0,81,64,192
0,63,102,0
0,64,102,192
0,63,0,4
0,54,0,92
0,59,0,44
0,66,0,16
0,54,69,36
0,68,81,0
0,51,59,0
0,54,64,0
0,81,0,32
0,64,0,138
0,63,98,22
0,68,0,174
0,81,71,18
0,69,72,0
0,54,0,80
0,69,0,110
0,68,72,2
0,51,0,36
0,54,0,2
0,47,0,14
0,54,0,2
0,59,0,6
0,47,0,10
0,81,0,26
0,63,0,52
0,49,94,44
0,52,98,0
0,49,55,0
0,52,62,0
0,61,66,0
0,56,108,192
0,81,67,192
0,63,98,0
0,81,0,132
0,64,102,60
0,63,0,34
0,68,0,134
0,63,98,216
0,66,78,0
0,64,0,34
0,61,100,158
0,63,0,42
0,56,0,44
0,66,0,104
0,64,78,2
0,49,0,48
0,52,0,4
0,61,0,92
0,49,0,6
0,52,0,26
0,64,0,14
0,47,98,2
0,54,111,0
0,63,78,0
0,47,66,0
0,54,61,0
0,59,67,0
0,61,0,6
0,59,105,186
0,63,0,190
0,63,102,2
0,64,81,0
0,54,69,192
0,81,57,0
0,64,108,0
0,63,0,12
0,81,0,32
0,54,0,2
0,54,58,146
0,81,62,0
0,64,0,32
0,64,0,140
0,63,98,20
0,59,85,192
0,59,0,190
0,61,81,2
0,54,0,10
0,59,0,16
0,59,0,26
0,54,0,32
0,47,0,12
0,54,0,16
0,81,0,32
0,47,0,4
0,45,102,44
0,52,88,0
0,45,67,0
0,52,65,0
0,61,67,0
0,63,0,48
0,57,98,144
0,81,64,192
0,63,108,0
0,61,0,190
0,64,108,2
0,63,81,0
0,63,0,36
0,63,0,58
0,61,72,2
0,61,0,80
0,54,74,16
0,59,81,0
0,64,0,180
0,63,100,12
0,45,0,452
0,52,0,24
0,81,0,14
0,52,0,0
0,61,0,10
0,45,0,6
0,54,0,50
0,45,96,20
0,45,64,0
0,52,61,0
0,59,62,0
0,64,67,0
0,57,0,46
0,63,0,114
0,52,100,32
0,81,64,192
0,57,105,0
0,63,115,192
0,54,84,192
0,61,111,0
0,63,0,24
0,81,0,8
0,57,0,114
0,52,0,26
0,57,80,20
0,59,0,48
0,81,71,144
0,52,88,0
0,57,0,60
0,45,0,8
0,54,0,66
0,57,93,58
0,45,0,30
0,52,0,10
0,64,0,8
0,59,0,8
0,52,0,20
0,81,0,20
0,57,0,66
0,49,111,30
0,52,100,0
0,64,75,0
0,49,58,0
0,52,65,0
0,61,68,0
0,64,62,0
0,61,0,28
0,56,111,164
0,81,67,192
0,61,108,0
0,81,0,132
0,63,108,60
0,61,0,26
0,64,98,358
