track,note,velocity,time
1,89,127,37104
1,77,127,0
1,76,127,96
1,88,127,0
1,89,0,20
1,77,0,4
1,88,0,64
1,76,0,8
1,74,127,0
1,86,127,0
1,86,0,91
1,74,0,4
1,84,127,1
1,72,127,0
1,84,0,92
1,72,0,7
1,89,127,14205
1,77,127,0
1,76,127,96
1,88,127,0
1,89,0,20
1,77,0,4
1,88,0,64
1,76,0,8
1,74,127,0
1,86,127,0
1,86,0,91
1,74,0,4
1,84,127,1
1,72,127,0
1,84,0,92
1,72,0,7
1,77,127,2685
1,89,127,0
1,76,127,96
1,88,127,0
1,89,0,4
1,77,0,4
1,88,0,84
1,76,0,4
1,74,127,0
1,86,127,0
1,86,0,96
1,84,127,0
1,72,127,0
1,74,0,8
1,84,0,64
1,72,0,7
1,77,127,2705
1,89,127,0
1,89,0,93
1,77,0,1
1,76,127,2
1,88,127,0
1,74,127,96
1,86,127,0
1,76,0,15
1,88,0,2
1,84,127,79
1,72,127,0
1,86,0,7
1,74,0,4
1,84,0,71
1,72,0,6
1,77,127,2696
1,89,127,0
1,76,127,96
1,88,127,0
1,77,0,12
1,89,0,4
1,74,127,80
1,86,127,0
1,88,0,5
1,76,0,1
1,72,127,90
1,84,127,0
1,86,0,4
1,74,0,4
1,72,0,38
1,84,0,0
2,46,127,1392
2,48,127,768
2,46,0,6
2,48,0,748
2,46,127,14
2,48,127,768
2,46,0,12
2,48,0,1120
2,58,127,20
2,58,0,766
2,48,127,2
2,48,0,754
2,46,127,14
2,46,0,768
2,48,127,0
2,48,0,758
2,46,127,10
2,46,0,761
2,48,127,7
2,48,0,755
2,46,127,13
2,52,127,1536
2,46,0,1
2,52,0,754
2,45,127,13
2,46,127,768
2,45,0,14
2,46,0,732
2,43,127,22
2,41,127,1152
2,40,127,0
2,43,0,13
2,40,0,17
2,41,0,718
2,48,127,20
2,48,0,746
2,41,127,22
2,48,127,768
2,41,0,1
2,48,0,375
2,53,127,8
2,65,127,0
2,65,0,87
2,53,0,5
2,64,127,4
2,52,127,0
2,53,127,0
2,53,0,37
2,64,0,57
2,62,127,2
2,50,127,0
2,52,0,10
2,50,0,86
2,48,127,0
2,60,127,0
2,62,0,2
2,60,0,86
2,48,0,4
2,53,127,4
2,53,0,755
2,48,127,13
2,48,0,764
2,53,127,4
2,53,0,756
2,46,127,12
2,46,0,744
2,46,127,24
2,46,0,756
2,48,127,12
2,48,0,742
2,46,127,26
2,46,0,759
2,48,127,9
2,48,0,736
2,46,127,32
2,48,127,768
2,46,0,8
2,48,0,727
2,48,127,801
2,48,0,750
2,46,127,18
2,46,0,768
2,48,127,0
2,48,0,760
2,46,127,8
2,48,127,768
2,46,0,8
2,48,0,737
2,46,127,23
2,46,0,1531
2,52,127,5
2,52,0,1438
2,45,127,2
2,45,0,95
2,46,127,1
2,46,0,708
2,43,127,60
2,43,0,767
2,41,127,1
2,41,0,735
2,48,127,33
2,41,127,768
2,48,0,8
2,41,0,738
2,48,127,22
2,53,127,384
2,65,127,0
2,48,0,4
2,65,0,82
2,64,127,10
2,52,127,0
2,53,0,1
2,52,0,88
2,64,0,5
2,62,127,2
2,50,127,0
2,48,127,96
2,60,127,0
2,62,0,2
2,50,0,8
2,48,0,30
2,60,0,51
2,41,127,5
2,41,0,758
2,48,127,10
2,41,127,768
2,48,0,5
2,45,127,667
2,41,0,10
2,45,0,72
2,46,127,14
2,46,0,728
2,46,127,40
2,46,0,760
2,48,127,8
2,48,0,744
2,46,127,24
2,46,0,747
2,74,127,21
2,46,127,0
2,70,127,0
2,65,127,9
2,74,0,727
2,46,0,1
2,65,0,10
2,70,0,1
2,65,127,8
2,72,127,0
2,69,127,1
2,45,127,11
2,69,0,47
2,72,0,2
2,65,0,6
2,45,0,9
2,67,127,8
2,63,127,0
2,58,127,3
2,43,127,5
2,67,0,47
2,63,0,13
2,58,0,7
2,43,0,12
2,63,127,19
2,39,127,1
2,55,127,1
2,58,127,0
2,58,0,84
2,63,0,19
2,55,0,28
2,39,0,7
2,55,127,18
2,36,127,0
2,60,127,0
2,65,127,0
2,60,0,42
2,55,0,2
2,65,0,8
2,36,0,19
2,39,127,2
2,65,127,3
2,63,127,0
2,58,127,3
2,58,0,38
2,65,0,11
2,63,0,2
2,39,0,196
2,46,127,8
2,74,127,0
2,70,127,1
2,65,127,0
2,46,0,749
2,70,0,6
2,74,0,2
2,65,0,2
2,45,127,8
2,69,127,8
2,72,127,0
2,74,127,0
2,65,127,0
2,74,0,13
2,69,0,31
2,72,0,1
2,65,0,6
2,45,0,29
2,67,127,13
2,63,127,1
2,58,127,1
2,43,127,0
2,67,0,62
2,63,0,11
2,58,0,3
2,41,127,102
2,43,0,12
2,41,0,5
2,63,127,18
2,58,127,1
2,39,127,0
2,55,127,1
2,55,0,77
2,58,0,3
2,63,0,10
2,39,0,300
2,43,127,22
2,74,127,9
2,71,127,0
2,67,127,1
2,43,0,753
2,53,127,4
2,74,0,14
2,67,0,0
2,71,0,0
2,53,0,740
2,48,127,14
2,48,0,765
2,53,127,3
2,53,0,765
2,48,127,3
2,48,0,376
2,53,127,8
2,65,127,0
2,65,0,88
2,53,0,7
2,64,127,1
2,52,127,0
2,52,0,84
2,64,0,0
2,62,127,12
2,50,127,0
2,60,127,96
2,48,127,0
2,62,0,4
2,50,0,10
2,60,0,56
2,48,0,6
2,53,127,20
2,53,0,765
2,48,127,3
2,48,0,768
2,53,127,0
2,53,0,748
2,48,127,20
2,48,0,383
2,53,127,1
2,77,127,0
2,77,0,84
2,76,127,12
2,52,127,0
2,53,0,5
2,76,0,91
2,74,127,0
2,50,127,0
2,52,0,11
2,72,127,85
2,48,127,0
2,74,0,4
2,50,0,1
2,72,0,75
2,48,0,20
2,53,127,92
2,53,0,641
2,48,127,31
2,48,0,753
2,53,127,15
2,53,0,766
2,48,127,2
2,53,127,384
2,77,127,0
2,48,0,2
2,77,0,82
2,53,0,9
2,76,127,3
2,52,127,0
2,76,0,90
2,74,127,6
2,50,127,0
2,52,0,12
2,72,127,84
2,48,127,0
2,74,0,5
2,50,0,2
2,72,0,73
2,53,127,112
2,48,0,8
2,53,0,660
2,48,127,4
2,48,0,755
2,53,127,13
2,53,0,760
2,48,127,8
2,48,0,372
2,53,127,12
2,65,127,0
2,64,127,0
2,64,0,25
2,65,0,71
2,64,127,0
2,52,127,0
2,53,0,23
2,64,0,64
2,52,0,1
2,62,127,8
2,50,127,0
2,60,127,96
2,48,127,0
2,50,0,2
2,62,0,0
2,60,0,73
2,48,0,13
2,53,127,8
2,53,0,1831
3,72,127,32686
3,72,0,93
3,74,127,2
3,74,0,99
3,69,127,12
3,69,0,739
3,72,127,9
3,74,127,293
3,72,0,10
3,74,0,259
3,76,127,12
3,76,0,26
4,77,127,13968
4,77,0,1162
4,70,127,27342
4,70,0,421
4,67,127,5347
4,67,0,38
5,75,127,1584
5,75,0,2
5,54,127,382
5,69,127,1
5,69,0,2
5,54,0,6
5,69,127,87
5,69,0,2
5,75,127,286
5,75,0,1
5,54,127,383
5,69,127,1
5,69,0,1
5,54,0,7
5,69,127,87
5,69,0,2
5,75,127,286
5,75,0,2
5,54,127,382
5,69,127,1
5,69,0,1
5,54,0,6
5,69,127,88
5,69,0,2
5,69,127,1246
5,69,0,1
5,69,127,95
5,69,0,1
5,69,127,479
5,69,0,1
5,75,127,383
5,75,0,1
5,54,127,383
5,69,127,0
5,69,0,2
5,54,0,6
5,69,127,88
5,69,0,1
5,69,127,95
5,69,0,3
5,69,127,93
5,69,0,1
5,69,127,479
5,69,0,1
5,75,127,383
5,75,0,2
5,54,127,382
5,69,127,1
5,69,0,1
5,54,0,7
5,69,127,87
5,69,0,1
5,69,127,95
5,69,0,1
5,69,127,95
5,69,0,1
5,69,127,479
5,69,0,2
5,75,127,382
5,75,0,2
5,54,127,382
5,69,127,1
5,69,0,1
5,54,0,7
5,69,127,87
5,69,0,1
5,51,127,95
5,69,127,0
5,69,0,1
5,51,0,12
5,69,127,83
5,69,0,1
5,69,127,479
5,69,0,1
5,75,127,383
5,75,0,1
5,54,127,383
5,69,127,1
5,69,0,1
5,54,0,7
5,69,127,87
5,69,0,2
5,51,127,46
5,51,0,20
5,51,127,28
5,69,127,0
5,69,0,2
5,51,0,18
5,69,127,76
5,69,0,1
5,69,127,479
5,69,0,2
5,75,127,382
5,75,0,2
5,54,127,382
5,69,127,0
5,69,0,1
5,54,0,8
5,69,127,87
5,69,0,2
5,69,127,94
5,69,0,1
5,69,127,95
5,69,0,2
5,69,127,478
5,69,0,1
5,51,127,1343
5,36,127,0
5,42,127,0
5,36,0,1
5,42,0,1
5,51,0,8
5,42,127,182
5,42,0,2
5,36,127,94
5,36,0,1
5,42,127,95
5,42,0,1
5,42,127,191
5,37,127,1
5,37,0,1
5,42,0,0
5,36,127,190
5,42,127,0
5,36,0,1
5,42,0,1
5,42,127,190
5,42,0,2
5,36,127,94
5,36,0,1
5,42,127,95
5,42,0,2
5,42,127,190
5,37,127,0
5,37,0,2
5,42,0,0
5,46,127,94
5,46,0,78
5,42,127,18
5,36,127,0
5,36,0,1
5,42,0,0
5,42,127,191
5,42,0,2
5,36,127,94
5,36,0,2
5,42,127,94
5,42,0,1
5,42,127,191
5,37,127,0
5,37,0,1
5,42,0,0
5,36,127,191
5,42,127,0
5,36,0,1
5,42,0,2
5,42,127,189
5,42,0,2
5,36,127,94
5,36,0,2
5,42,127,94
5,42,0,2
5,50,127,94
5,47,127,0
5,50,0,30
5,47,0,2
5,47,127,64
5,42,127,0
5,37,127,0
5,42,0,2
5,37,0,1
5,47,0,28
5,43,127,65
5,43,0,42
5,36,127,54
5,42,127,0
5,36,0,1
5,42,0,2
5,42,127,189
5,42,0,2
5,36,127,94
5,36,0,1
5,42,127,95
5,42,0,1
5,42,127,191
5,37,127,0
5,37,0,1
5,42,0,0
5,36,127,191
5,42,127,0
5,36,0,1
5,42,0,2
5,42,127,189
5,42,0,2
5,36,127,94
5,36,0,1
5,42,127,95
5,42,0,2
5,42,127,190
5,37,127,0
5,37,0,2
5,42,0,0
5,46,127,94
5,46,0,92
5,51,127,4
5,36,127,0
5,42,127,0
5,42,0,1
5,36,0,0
5,51,0,16
5,42,127,175
5,42,0,2
5,36,127,94
5,36,0,1
5,42,127,95
5,42,0,2
5,42,127,190
5,37,127,0
5,42,0,1
5,37,0,1
5,36,127,190
5,42,127,0
5,36,0,1
5,42,0,2
5,42,127,189
5,42,0,2
5,36,127,94
5,36,0,1
5,42,127,95
5,42,0,1
5,42,127,191
5,37,127,0
5,37,0,2
5,42,0,0
5,46,127,94
5,46,0,83
5,42,127,13
5,36,127,0
5,36,0,1
5,42,0,0
5,42,127,191
5,42,0,1
5,36,127,95
5,36,0,1
5,42,127,95
5,42,0,2
5,38,127,190
5,42,127,0
5,37,127,0
5,42,0,1
5,37,0,2
5,38,0,14
5,38,127,79
5,38,0,13
5,38,127,35
5,38,0,31
5,36,127,17
5,42,127,0
5,36,0,1
5,42,0,2
5,42,127,189
5,42,0,2
5,36,127,94
5,36,0,1
5,42,127,95
5,42,0,2
5,42,127,190
5,37,127,0
5,37,0,2
5,42,0,0
5,46,127,94
5,51,127,96
5,36,127,0
5,42,127,0
5,42,0,1
5,36,0,0
5,46,0,14
5,51,0,1
5,42,127,176
5,42,0,1
5,36,127,95
5,36,0,1
5,42,127,95
5,42,0,2
5,50,127,94
5,47,127,0
5,47,0,27
5,50,0,4
5,47,127,65
5,42,127,0
5,37,127,1
5,42,0,1
5,37,0,1
5,47,0,16
5,43,127,29
5,43,0,22
5,43,127,26
5,43,0,20
5,51,127,76
5,36,127,0
5,42,127,0
5,36,0,1
5,42,0,2
5,51,0,5
5,42,127,184
5,42,0,2
5,36,127,94
5,36,0,1
5,42,127,95
5,42,0,2
5,42,127,190
5,37,127,1
5,37,0,1
5,42,0,0
5,46,127,94
5,46,0,89
5,42,127,7
5,36,127,0
5,36,0,1
5,42,0,0
5,42,127,191
5,42,0,2
5,36,127,94
5,36,0,1
5,42,127,95
5,42,0,2
5,42,127,190
5,37,127,0
5,37,0,1
5,42,0,0
5,36,127,191
5,42,127,0
5,36,0,1
5,42,0,1
5,42,127,190
5,42,0,2
5,36,127,94
5,36,0,2
5,42,127,94
5,42,0,2
5,42,127,190
5,37,127,0
5,37,0,1
5,42,0,0
5,51,127,191
5,36,127,0
5,42,127,0
5,36,0,2
5,42,0,1
5,51,0,10
5,42,127,179
5,42,0,2
5,36,127,94
5,36,0,1
5,42,127,95
5,42,0,1
5,42,127,191
5,37,127,0
5,37,0,1
5,42,0,0
5,36,127,191
5,42,127,0
5,36,0,1
5,42,0,2
5,42,127,189
5,42,0,2
5,36,127,94
5,36,0,2
5,42,127,94
5,42,0,1
5,42,127,191
5,37,127,0
5,37,0,1
5,42,0,0
5,36,127,191
5,42,127,0
5,36,0,1
5,42,0,2
5,42,127,189
5,42,0,2
5,36,127,94
5,36,0,2
5,42,127,94
5,42,0,1
5,42,127,191
5,37,127,0
5,37,0,2
5,42,0,0
5,36,127,190
5,42,127,0
5,36,0,1
5,42,0,2
5,42,127,189
5,42,0,2
5,36,127,94
5,36,0,1
5,42,127,95
5,42,0,1
5,42,127,191
5,37,127,0
5,37,0,1
5,42,0,0
5,46,127,95
5,46,0,90
5,42,127,6
5,36,127,0
5,36,0,1
5,42,0,0
5,42,127,191
5,42,0,1
5,36,127,95
5,36,0,1
5,42,127,95
5,42,0,2
5,42,127,190
5,37,127,0
5,37,0,2
5,42,0,0
5,36,127,190
5,42,127,0
5,36,0,1
5,42,0,2
5,42,127,189
5,42,0,2
5,36,127,94
5,36,0,1
5,42,127,95
5,42,0,2
5,42,127,190
5,37,127,0
5,37,0,1
5,42,0,0
5,38,127,95
5,38,0,19
5,38,127,29
5,38,0,32
5,42,127,16
5,36,127,0
5,36,0,1
5,42,0,35
5,42,127,60
5,42,0,34
5,42,127,62
5,38,127,0
5,38,0,1
5,42,0,39
5,42,127,56
5,36,127,0
5,36,0,2
5,42,0,36
5,51,127,58
5,42,127,0
5,42,0,35
5,51,0,25
5,42,127,36
5,36,127,0
5,36,0,1
5,42,0,26
5,51,127,69
5,42,127,0
5,54,127,0
5,38,127,1
5,38,0,2
5,54,0,6
5,42,0,26
5,51,0,19
5,46,127,42
5,46,0,60
5,51,127,36
5,42,127,0
5,36,127,0
5,36,0,3
5,42,0,36
5,51,0,45
5,42,127,12
5,42,0,29
5,51,127,67
5,42,127,0
5,38,127,0
5,38,0,2
5,42,0,37
5,51,0,56
5,42,127,1
5,36,127,0
5,36,0,2
5,42,0,28
5,51,127,66
5,42,127,0
5,51,0,20
5,42,0,12
5,42,127,64
5,50,127,0
5,36,127,0
5,47,127,0
5,36,0,3
5,42,0,25
5,47,0,7
5,50,0,6
5,42,127,55
5,47,127,0
5,54,127,0
5,38,127,0
5,38,0,4
5,54,0,5
5,47,0,21
5,42,0,10
5,46,127,56
5,43,127,0
5,43,0,13
5,46,0,27
5,43,127,8
5,43,0,31
5,42,127,17
5,36,127,0
5,36,0,2
5,42,0,41
5,42,127,53
5,42,0,24
5,51,127,72
5,42,127,0
5,38,127,0
5,38,0,2
5,51,0,33
5,42,0,3
5,42,127,58
5,36,127,0
5,36,0,2
5,42,0,30
5,51,127,64
5,42,127,0
5,51,0,19
5,42,0,12
5,42,127,65
5,36,127,0
5,36,0,2
5,42,0,33
5,51,127,61
5,42,127,0
5,54,127,0
5,38,127,1
5,38,0,3
5,54,0,5
5,42,0,35
5,51,0,17
5,46,127,35
5,46,0,62
5,51,127,34
5,42,127,0
5,36,127,0
5,36,0,1
5,51,0,25
5,42,0,17
5,42,127,53
5,42,0,22
5,51,127,74
5,42,127,0
5,38,127,0
5,38,0,2
5,42,0,34
5,51,0,26
5,42,127,34
5,36,127,0
5,36,0,2
5,42,0,28
5,51,127,66
5,42,127,0
5,42,0,40
5,51,0,36
5,42,127,20
5,36,127,0
5,36,0,1
5,42,0,31
