track,note,velocity,time
3,59,95,7698
3,64,76,374
3,69,85,336
3,68,95,600
3,64,87,204
3,59,87,106
3,64,76,246
3,69,87,218
3,68,100,562
3,64,85,178
3,66,87,210
3,59,89,186
3,64,85,234
3,73,89,244
3,71,80,432
3,69,85,248
3,68,87,716
3,66,93,722
3,68,105,1016
3,69,85,234
3,71,102,202
3,64,100,518
3,64,100,80
3,64,80,52
3,68,105,170
3,66,91,236
3,68,98,100
3,69,87,126
3,71,107,140
3,68,87,442
3,69,85,102
3,71,98,138
3,68,93,208
3,69,89,206
3,71,91,264
3,69,89,94
3,71,93,114
3,73,105,122
3,66,89,542
3,66,85,60
3,66,87,32
3,69,100,170
3,68,80,290
3,69,93,106
3,71,85,128
3,73,95,126
3,69,85,442
3,71,82,114
3,73,82,110
3,69,87,222
3,73,89,182
3,71,89,228
3,59,91,256
3,64,93,216
3,69,95,246
3,68,102,564
3,64,95,156
3,59,93,232
3,64,91,232
3,69,89,218
3,68,105,610
3,64,87,174
3,66,87,196
3,59,87,122
3,64,87,236
3,73,82,240
3,71,105,552
3,69,87,180
3,68,102,1048
3,66,91,384
3,68,105,458
3,69,87,134
3,71,102,144
3,64,95,544
3,64,93,72
3,71,33,16
3,64,89,60
3,75,91,186
3,73,98,312
3,61,122,950
3,73,102,186
3,71,78,326
3,73,89,702
3,69,93,344
3,68,107,988
3,66,100,222
3,59,98,102
3,64,98,346
3,69,89,334
3,68,100,602
3,64,85,186
3,66,85,884
3,68,89,34
3,66,100,56
3,64,107,364
3,59,91,20234
3,64,93,216
3,69,95,246
3,68,102,564
3,64,95,156
3,59,93,232
3,64,91,232
3,69,89,218
3,68,105,610
3,64,87,174
3,66,87,196
3,59,87,122
3,64,87,236
3,73,82,240
3,71,105,552
3,69,87,180
3,68,102,1048
3,66,91,384
3,68,105,458
3,69,87,134
3,71,102,144
3,64,95,544
3,64,93,72
3,71,33,16
3,64,89,60
3,75,91,186
3,73,98,312
3,61,122,950
3,73,102,186
3,71,78,326
3,73,89,702
3,69,93,344
3,68,107,988
3,66,100,222
3,59,98,102
3,64,98,346
3,69,89,334
3,68,100,602
3,64,85,186
3,66,85,884
3,68,89,34
3,66,100,56
3,64,107,364
3,68,105,10486
3,69,87,134
3,71,102,144
3,64,95,544
3,64,93,72
3,71,33,16
3,64,89,60
3,75,91,186
3,73,98,312
3,61,122,950
3,73,102,186
3,71,78,326
3,73,89,702
3,69,93,344
3,68,107,988
3,66,100,222
3,59,98,102
3,64,98,346
3,69,89,334
3,68,100,602
3,64,85,186
3,66,85,884
3,68,89,34
3,66,100,56
3,64,107,364
4,68,107,1530
4,40,101,4
4,47,116,176
4,52,115,180
4,59,112,200
4,54,108,72
4,64,116,4
4,50,107,4
4,60,104,156
4,57,111,384
4,71,122,24
4,44,103,8
4,51,116,156
4,56,118,188
4,59,115,196
4,49,78,0
4,67,120,12
4,59,104,4
4,53,93,156
4,68,114,160
4,59,101,164
4,68,106,28
4,64,103,4
4,61,116,4
4,57,111,0
4,42,93,8
4,49,116,172
4,54,118,196
4,59,121,92
4,61,120,48
4,68,122,204
4,49,98,204
4,66,116,180
4,41,107,64
4,64,110,0
4,57,107,0
4,60,101,0
4,48,107,184
4,57,113,80
4,52,98,4
4,60,115,44
4,54,47,72
4,63,113,12
4,47,96,0
4,68,106,4
4,57,107,196
4,67,111,12
4,54,93,192
4,40,112,4
4,47,111,192
4,59,118,176
4,52,111,4
4,64,120,52
4,48,104,12
4,54,84,16
4,57,106,28
4,60,118,8
4,69,126,4
4,54,104,80
4,63,116,4
4,57,107,140
4,68,114,172
4,40,93,8
4,64,108,4
4,47,111,168
4,52,113,184
4,56,106,180
4,57,111,4
4,60,111,112
4,68,107,168
4,51,78,8
4,66,101,204
4,40,111,36
4,47,114,160
4,59,107,176
4,52,104,8
4,64,118,184
4,44,106,44
4,69,120,4
4,47,107,52
4,52,107,208
4,68,112,32
4,64,110,20
4,61,113,8
4,57,112,0
4,42,104,4
4,49,111,164
4,66,116,0
4,54,106,16
4,57,122,100
4,41,104,32
4,60,116,4
4,51,114,0
4,48,116,184
4,51,116,180
4,63,96,20
4,59,106,4
4,40,104,4
4,47,107,176
4,52,117,64
4,59,124,0
4,64,114,52
4,47,98,48
4,50,98,16
4,62,93,16
4,66,113,20
4,59,93,0
4,73,118,24
4,54,104,148
4,59,110,196
4,71,120,16
4,49,106,24
4,65,112,0
4,69,110,4
4,56,107,0
4,59,112,200
4,61,93,204
4,65,107,176
4,56,113,4
4,68,122,16
4,59,107,0
4,56,106,148
4,66,116,100
4,42,93,8
4,49,113,180
4,54,118,192
4,57,116,72
4,61,118,192
4,49,103,176
4,54,96,136
4,57,111,104
4,42,103,20
4,52,111,40
4,60,111,20
4,48,112,4
4,52,117,192
4,57,117,4
4,60,122,192
4,48,106,180
4,68,124,176
4,52,107,12
4,69,116,140
4,66,108,188
4,44,98,0
4,71,114,4
4,52,104,144
4,59,104,208
4,56,104,184
4,64,112,8
4,52,104,8
4,56,98,148
4,52,104,160
4,56,106,156
4,45,104,40
4,60,110,8
4,54,93,12
4,68,116,20
4,52,111,172
4,66,118,168
4,69,123,96
4,54,101,40
4,72,60,8
4,76,116,84
4,52,116,36
4,80,127,4
4,83,121,28
4,54,118,8
4,82,118,4
4,81,107,24
4,60,119,40
4,80,127,8
4,78,116,16
4,64,117,32
4,76,98,32
4,75,103,36
4,44,103,16
4,71,124,0
4,76,112,28
4,52,122,4
4,59,125,196
4,64,114,176
4,66,118,0
4,50,118,0
4,54,116,192
4,59,119,60
4,62,114,24
4,65,115,32
4,49,111,0
4,56,108,188
4,77,84,92
4,80,108,36
4,83,106,4
4,59,113,4
4,86,126,8
4,85,127,8
4,65,111,0
4,84,114,20
4,83,104,44
4,66,114,20
4,81,93,16
4,77,101,60
4,56,104,28
4,80,114,20
4,77,106,56
4,69,117,20
4,59,116,12
4,83,125,12
4,82,119,0
4,71,112,12
4,81,104,4
4,80,103,24
4,73,119,40
4,64,115,0
4,78,113,0
4,42,101,4
4,49,106,168
4,54,98,28
4,66,116,204
4,61,47,32
4,49,108,24
4,66,116,8
4,64,110,4
4,61,96,8
4,54,113,176
4,57,116,72
4,49,108,4
4,61,120,16
4,54,98,0
4,49,103,100
4,64,101,8
4,59,103,8
4,69,114,4
4,60,96,4
4,53,120,132
4,68,112,160
4,59,104,0
4,56,84,164
4,65,101,48
4,68,114,0
4,71,107,8
4,74,126,40
4,59,107,8
4,73,127,12
4,65,107,24
4,72,110,4
4,71,96,32
4,69,118,40
4,56,103,0
4,70,98,4
4,69,93,0
4,71,114,96
4,68,93,4
4,42,60,40
4,73,118,16
4,69,112,0
4,64,111,12
4,66,108,24
4,49,118,116
4,54,108,192
4,69,112,88
4,71,107,32
4,73,111,96
4,42,84,8
4,49,111,176
4,54,112,176
4,69,110,8
4,73,111,8
4,79,120,48
4,47,106,28
4,80,127,0
4,57,107,8
4,71,111,0
4,68,118,0
4,83,126,36
4,54,108,64
4,80,112,100
4,57,110,56
4,83,119,4
4,59,104,84
4,80,110,8
4,79,120,56
4,67,116,12
4,83,118,112
4,51,103,72
4,79,112,92
4,57,107,32
4,83,120,12
4,51,93,88
4,79,116,16
4,80,113,76
4,40,116,12
4,76,115,16
4,47,116,132
4,52,120,172
4,59,123,28
4,51,107,16
4,63,120,48
4,69,126,4
4,57,107,4
4,54,104,172
4,57,114,148
4,68,108,8
4,66,18,108
4,40,111,36
4,64,119,4
4,47,112,176
4,52,110,180
4,56,103,76
4,57,115,24
4,54,111,4
4,60,115,384
4,47,113,180
4,59,114,184
4,52,101,4
4,64,118,180
4,44,108,192
4,69,118,8
4,52,119,176
4,47,114,196
4,68,113,180
4,64,106,24
4,42,101,4
4,61,111,4
4,49,108,164
4,57,110,16
4,66,122,168
4,52,110,4
4,61,116,76
4,41,103,48
4,51,78,20
4,60,114,4
4,48,111,176
4,51,111,196
4,63,98,152
4,59,111,28
4,40,111,4
4,47,111,168
4,52,108,44
4,59,117,4
4,64,114,4
4,50,112,108
4,56,60,4
4,59,110,8
4,66,107,16
4,73,119,0
4,56,113,196
4,59,116,184
4,71,120,40
4,49,108,4
4,69,118,4
4,65,112,4
4,56,107,168
4,59,111,184
4,53,111,192
4,59,111,168
4,59,104,68
4,68,116,16
4,56,104,4
4,59,107,100
4,66,122,56
4,42,107,4
4,54,18,4
4,42,18,0
4,57,112,4
4,54,111,4
4,54,118,0
4,61,112,12
4,69,127,76
4,73,114,20
4,66,110,28
4,76,111,52
4,80,125,8
4,62,115,20
4,50,107,8
4,83,127,24
4,83,127,64
4,54,120,36
4,83,127,16
4,57,120,16
4,64,106,12
4,82,106,12
4,81,111,12
4,62,115,16
4,80,118,12
4,47,101,20
4,74,104,20
4,76,98,0
4,57,101,8
4,63,110,12
4,61,113,4
4,78,127,24
4,54,107,76
4,73,118,24
4,75,122,80
4,59,111,20
4,61,116,60
4,73,98,4
4,69,101,24
4,71,118,48
4,68,118,8
4,45,112,4
4,63,122,0
4,54,114,4
4,68,101,0
4,69,111,84
4,51,110,20
4,66,103,16
4,68,127,0
4,69,122,12
4,54,101,16
4,66,60,44
4,51,111,48
4,68,106,0
4,66,110,4
4,64,107,4
4,44,112,32
4,63,118,0
4,66,104,0
4,71,120,0
4,59,114,0
4,52,116,180
4,56,108,204
4,64,115,92
4,64,119,44
4,52,111,8
4,59,116,0
4,56,111,164
4,52,114,184
4,56,120,4
4,75,116,0
4,71,118,0
4,63,108,4
4,45,107,12
4,52,101,172
4,73,108,188
4,69,118,8
4,57,103,4
4,52,111,176
4,49,112,200
4,52,111,168
4,61,118,192
4,57,107,4
4,69,122,176
4,56,104,8
4,49,104,8
4,59,107,60
4,65,116,4
4,73,118,4
4,53,106,136
4,71,107,8
4,59,104,12
4,56,103,188
4,49,103,120
4,53,107,60
4,73,113,172
4,59,93,12
4,56,104,204
4,69,119,112
4,42,93,8
4,49,112,184
4,57,110,192
4,54,96,4
4,61,118,176
4,60,110,0
4,45,110,12
4,52,107,196
4,54,89,176
4,64,93,168
4,44,93,56
4,59,114,0
4,52,112,168
4,64,114,184
4,52,110,160
4,69,116,8
4,49,107,4
4,53,111,180
4,68,114,188
4,49,89,144
4,42,84,16
4,52,103,44
4,64,110,0
4,61,104,0
4,57,110,184
4,69,127,164
4,61,116,8
4,73,60,32
4,76,107,60
4,64,115,8
4,80,113,8
4,54,18,12
4,47,104,0
4,57,101,68
4,63,110,4
4,66,108,4
4,60,112,0
4,83,125,8
4,83,127,92
4,51,111,4
4,83,127,100
4,57,122,8
4,60,116,140
4,82,98,32
4,80,104,4
4,78,47,16
4,64,103,8
4,79,93,0
4,40,93,4
4,68,103,0
4,59,111,0
4,52,96,4
4,76,115,16
4,47,114,148
4,52,119,192
4,59,120,72
4,51,110,20
4,63,113,12
4,69,115,0
4,60,113,12
4,57,115,160
4,54,106,200
4,68,110,12
4,64,108,8
4,59,110,4
4,40,103,4
4,52,98,0
4,47,111,180
4,52,114,184
4,64,127,0
4,56,123,4
4,66,107,4
4,68,108,44
4,51,60,16
4,45,107,8
4,57,118,8
4,54,113,0
4,71,120,8
4,76,117,20
4,78,126,52
4,60,120,20
4,76,120,24
4,83,127,60
4,51,112,12
4,82,114,0
4,81,107,12
4,63,113,12
4,54,104,16
4,76,114,40
4,64,107,32
4,52,101,8
4,40,98,4
4,59,110,0
4,80,119,4
4,47,112,164
4,52,110,76
4,59,119,0
4,64,118,116
4,69,117,12
4,44,106,12
4,52,110,164
4,47,107,212
4,68,113,176
4,44,18,104
4,42,107,4
4,64,107,12
4,61,113,4
4,66,120,160
4,57,111,8
4,49,96,4
4,52,117,152
4,57,118,152
4,41,108,32
4,60,113,0
4,53,111,8
4,51,106,4
4,67,127,4
4,63,116,12
4,68,122,8
4,48,108,8
4,69,118,8
4,72,124,20
4,51,113,32
4,75,127,12
4,79,127,28
4,63,98,40
4,63,114,0
4,77,113,56
4,78,127,8
4,77,108,16
4,59,113,0
4,75,113,8
4,40,114,4
4,47,60,0
4,76,107,8
4,47,114,156
4,52,110,8
4,64,108,0
4,59,113,4
4,64,117,0
4,59,114,0
4,50,111,76
4,56,106,4
4,73,116,24
4,53,107,0
4,59,101,8
4,56,113,16
4,59,110,8
4,59,118,100
4,62,107,28
4,68,47,48
4,71,120,28
4,68,84,4
4,69,120,108
4,49,108,4
4,65,111,8
4,53,108,160
4,59,110,192
4,49,108,0
4,61,107,36
4,59,111,188
4,56,108,172
4,61,108,4
4,68,120,20
4,59,107,8
4,59,112,0
4,66,112,56
4,42,111,4
4,54,111,196
4,57,114,200
4,81,107,60
4,83,116,32
4,85,111,16
4,88,123,24
4,61,116,4
4,87,127,16
4,62,120,12
4,86,125,20
4,85,122,36
4,50,112,36
4,81,116,12
4,80,120,20
4,54,114,52
4,78,123,8
4,76,103,32
4,57,118,44
4,63,118,4
4,61,116,0
4,47,104,4
4,57,101,4
4,54,108,112
4,57,120,188
4,75,118,116
4,59,120,32
4,83,122,24
4,82,71,64
4,68,124,36
4,45,110,0
4,63,116,4
4,54,110,4
4,81,108,20
4,80,18,56
4,51,113,24
4,78,18,12
4,75,104,64
4,69,124,28
4,66,116,4
4,54,104,0
4,71,116,12
4,75,108,40
4,51,112,28
4,71,98,20
4,69,84,0
4,71,120,8
4,59,114,0
4,52,116,180
4,56,108,204
4,64,115,92
4,64,119,44
4,52,111,8
4,59,116,0
4,56,111,164
4,52,114,184
4,56,120,4
4,75,116,0
4,71,118,0
4,63,108,4
4,45,107,12
4,52,101,172
4,73,108,188
4,69,118,8
4,57,103,4
4,52,111,176
4,49,112,200
4,52,111,168
4,61,118,192
4,57,107,4
4,69,122,176
4,56,104,8
4,49,104,8
4,59,107,60
4,65,116,4
4,73,118,4
4,53,106,136
4,71,107,8
4,59,104,12
4,56,103,188
4,49,103,120
4,53,107,60
4,73,113,172
4,59,93,12
4,56,104,204
4,69,119,112
4,42,93,8
4,49,112,184
4,57,110,192
4,54,96,4
4,61,118,176
4,60,110,0
4,45,110,12
4,52,107,196
4,54,89,176
4,64,93,168
4,44,93,56
4,59,114,0
4,52,112,168
4,64,114,184
4,52,110,160
4,69,116,8
4,49,107,4
4,53,111,180
4,68,114,188
4,49,89,144
4,42,84,16
4,52,103,44
4,64,110,0
4,61,104,0
4,57,110,184
4,69,127,164
4,61,116,8
4,73,60,32
4,76,107,60
4,64,115,8
4,80,113,8
4,54,18,12
4,47,104,0
4,57,101,68
4,63,110,4
4,66,108,4
4,60,112,0
4,83,125,8
4,83,127,92
4,51,111,4
4,83,127,100
4,57,122,8
4,60,116,140
4,82,98,32
4,80,104,4
4,78,47,16
4,64,103,8
4,79,93,0
4,40,116,0
4,76,115,12
4,47,116,156
4,52,120,172
4,59,123,28
4,51,107,16
4,63,120,48
4,69,126,4
4,57,107,4
4,54,104,172
4,57,114,148
4,68,108,8
4,66,18,108
4,40,111,36
4,64,119,4
4,47,112,176
4,52,110,180
4,56,103,76
4,57,115,24
4,54,111,4
4,60,115,384
4,47,113,180
4,59,114,184
4,52,101,4
4,64,118,180
4,44,108,192
4,69,118,8
4,52,119,176
4,47,114,196
4,68,113,180
4,64,106,24
4,42,101,4
4,61,111,4
4,49,108,164
4,57,110,16
4,66,122,168
4,52,110,4
4,61,116,76
4,41,103,48
4,51,78,20
4,60,114,4
4,48,111,176
4,51,111,196
4,63,98,152
4,59,111,28
4,40,111,4
4,47,111,168
4,52,108,44
4,59,117,4
4,64,114,4
4,50,112,108
4,56,60,4
4,59,110,8
4,66,107,16
4,73,119,0
4,56,113,196
4,59,116,184
4,71,120,40
4,49,108,4
4,69,118,4
4,65,112,4
4,56,107,168
4,59,111,184
4,53,111,192
4,59,111,168
4,59,104,68
4,68,116,16
4,56,104,4
4,59,107,100
4,66,122,56
4,42,107,4
4,54,18,4
4,42,18,0
4,57,112,4
4,54,111,4
4,54,118,0
4,61,112,12
4,69,127,76
