track,note,velocity,time
0,57,81,960
0,60,81,0
0,65,81,0
0,51,100,0
0,35,78,0
0,29,67,0
0,51,100,212
0,51,0,28
0,35,79,92
0,29,69,0
0,35,0,28
0,29,0,0
0,51,100,92
0,35,80,0
0,29,67,0
0,35,0,28
0,51,0,0
0,29,0,0
0,38,77,92
0,38,0,28
0,40,79,92
0,40,0,28
0,65,0,210
0,60,0,0
0,57,0,0
0,58,78,2
0,62,78,0
0,67,78,0
0,35,77,0
0,51,77,0
0,29,69,0
0,51,0,28
0,35,0,0
0,29,0,0
0,51,77,212
0,51,0,28
0,35,77,92
0,29,69,0
0,35,0,28
0,29,0,0
0,35,77,92
0,51,77,0
0,29,69,0
0,51,0,28
0,35,0,0
0,29,0,0
0,38,77,92
0,38,0,28
0,40,77,92
0,40,0,28
0,67,0,210
0,62,0,0
0,58,0,0
0,57,81,2
0,60,81,0
0,65,81,0
0,51,100,0
0,35,78,0
0,29,69,0
0,35,0,28
0,51,0,0
0,29,0,0
0,67,100,212
0,51,100,0
0,51,0,28
0,35,79,2
0,29,69,0
0,51,100,2
0,35,80,0
0,29,69,0
0,38,77,6
0,38,0,28
0,40,79,92
0,40,0,28
0,65,0,210
0,60,0,0
0,57,0,0
0,67,0,0
0,58,78,2
0,62,78,0
0,67,78,0
0,35,77,0
0,51,77,0
0,29,69,0
0,51,0,28
0,35,0,0
0,29,0,0
0,51,77,212
0,51,0,28
0,35,77,92
0,29,69,0
0,35,0,28
0,29,0,0
0,81,88,92
0,35,77,0
0,51,77,0
0,29,69,0
0,39,77,20
0,39,0,28
0,81,88,2
0,38,77,0
0,81,88,2
0,40,77,0
0,40,0,28
0,81,0,30
0,79,63,2
0,79,0,58
0,77,88,2
0,67,0,118
0,62,0,0
0,58,0,0
0,77,0,0
0,57,78,2
0,62,78,0
0,65,78,0
0,77,74,0
0,51,100,0
0,35,78,0
0,29,69,0
0,51,100,136
0,51,0,28
0,69,100,92
0,35,79,0
0,29,69,0
0,35,0,28
0,29,0,0
0,69,0,90
0,77,0,0
0,69,100,2
0,51,100,0
0,35,80,0
0,29,69,0
0,35,0,28
0,51,0,0
0,29,0,0
0,69,0,30
0,69,100,2
0,69,0,58
0,69,100,2
0,38,77,0
0,38,0,28
0,69,0,60
0,69,100,32
0,40,79,0
0,40,0,28
0,69,0,90
0,67,100,2
0,67,0,58
0,65,100,2
0,65,0,58
0,65,0,0
0,62,0,0
0,57,0,0
0,58,100,2
0,58,81,0
0,62,81,0
0,67,81,0
0,35,77,0
0,51,77,0
0,29,69,0
0,51,0,28
0,35,0,0
0,29,0,0
0,58,0,90
0,67,100,122
0,51,77,0
0,51,0,28
0,67,0,90
0,67,100,2
0,35,77,0
0,29,69,0
0,35,0,28
0,29,0,0
0,35,77,0
0,51,77,0
0,29,69,0
0,51,0,28
0,35,0,0
0,29,0,0
0,38,77,92
0,38,0,28
0,67,0,90
0,72,81,2
0,40,77,0
0,40,0,28
0,72,0,30
0,74,78,2
0,74,0,58
0,77,78,2
0,67,0,118
0,62,0,0
0,58,0,0
0,77,0,0
0,60,80,2
0,64,80,0
0,67,80,0
0,76,75,0
0,79,75,0
0,51,100,0
0,35,78,0
0,29,69,0
0,51,100,104
0,51,0,28
0,67,100,32
0,67,0,58
0,67,100,2
0,35,79,0
0,29,69,0
0,35,0,28
0,29,0,0
0,67,0,90
0,79,0,0
0,76,0,0
0,67,100,2
0,51,100,0
0,35,80,0
0,29,69,0
0,35,0,28
0,51,0,0
0,29,0,0
0,67,0,30
0,67,100,2
0,38,77,60
0,38,0,28
0,67,0,90
0,67,100,2
0,40,79,0
0,40,0,28
0,67,0,50
0,64,100,2
0,64,0,78
0,62,100,22
0,62,0,58
0,67,0,0
0,64,0,0
0,60,0,0
0,60,100,2
0,52,77,0
0,57,77,0
0,60,77,0
0,35,77,0
0,51,77,0
0,29,69,0
0,51,0,28
0,35,0,0
0,29,0,0
0,60,0,60
0,60,100,92
0,60,0,28
0,67,100,2
0,51,77,30
0,51,0,28
0,35,77,92
0,29,69,0
0,35,0,28
0,29,0,0
0,67,0,90
0,60,0,0
0,57,0,0
0,52,0,0
0,65,100,2
0,53,77,0
0,58,77,0
0,62,77,0
0,35,77,0
0,51,77,0
0,29,69,0
0,51,0,28
0,35,0,0
0,29,0,0
0,38,77,92
0,38,0,28
0,65,0,90
0,40,77,2
0,40,0,28
0,62,0,210
0,58,0,0
0,53,0,0
0,57,77,2
0,62,77,0
0,65,77,0
0,53,100,0
0,51,100,0
0,35,78,0
0,29,69,0
0,35,0,28
0,51,0,0
0,29,0,0
0,53,0,10
0,55,100,2
0,55,0,38
0,52,100,2
0,52,0,38
0,50,100,2
0,62,100,60
0,62,0,58
0,69,100,2
0,51,100,0
0,51,0,28
0,69,0,50
0,69,100,2
0,35,79,40
0,29,69,0
0,35,0,28
0,29,0,0
0,69,0,10
0,69,100,2
0,69,0,78
0,69,100,2
0,51,100,0
0,35,80,0
0,29,69,0
0,35,0,28
0,51,0,0
0,29,0,0
0,38,77,92
0,38,0,28
0,50,0,50
0,69,0,40
0,40,79,2
0,40,0,28
0,67,100,92
0,67,0,58
0,65,100,2
0,65,0,58
0,65,0,0
0,62,0,0
0,57,0,0
0,58,100,2
0,58,77,0
0,62,77,0
0,67,77,0
0,35,77,0
0,51,77,0
0,29,69,0
0,51,0,28
0,35,0,0
0,29,0,0
0,58,0,130
0,67,100,22
0,51,77,60
0,51,0,28
0,67,0,90
0,67,100,2
0,35,77,0
0,29,69,0
0,35,0,28
0,29,0,0
0,35,77,92
0,51,77,0
0,29,69,0
0,51,0,28
0,35,0,0
0,29,0,0
0,38,77,92
0,38,0,28
0,67,0,90
0,72,81,2
0,40,77,0
0,40,0,28
0,72,0,30
0,74,78,2
0,74,0,58
0,77,78,2
0,67,0,118
0,62,0,0
0,58,0,0
0,77,0,0
0,60,77,2
0,64,77,0
0,67,77,0
0,76,75,0
0,79,75,0
0,51,100,0
0,35,78,0
0,29,69,0
0,60,100,44
0,60,0,58
0,67,100,2
0,51,100,0
0,51,0,28
0,67,0,30
0,67,100,2
0,67,0,58
0,67,100,2
0,35,79,0
0,29,69,0
0,35,0,28
0,29,0,0
0,67,0,90
0,79,0,0
0,76,0,0
0,67,100,2
0,51,100,0
0,35,80,0
0,29,69,0
0,35,0,28
0,51,0,0
0,29,0,0
0,38,77,92
0,38,0,28
0,67,0,30
0,40,79,62
0,40,0,28
0,64,100,32
0,64,0,58
0,64,100,2
0,64,0,58
0,62,100,2
0,62,0,58
0,67,0,0
0,64,0,0
0,60,0,0
0,60,100,2
0,52,77,0
0,57,77,0
0,60,77,0
0,35,77,0
0,51,77,0
0,29,69,0
0,51,0,28
0,35,0,0
0,29,0,0
0,60,0,150
0,62,100,2
0,51,77,60
0,51,0,28
0,62,0,90
0,62,100,2
0,35,77,0
0,29,69,0
0,35,0,28
0,29,0,0
0,60,0,90
0,57,0,0
0,52,0,0
0,53,77,2
0,58,77,0
0,62,77,0
0,35,77,0
0,51,77,0
0,29,69,0
0,51,0,28
0,35,0,0
0,29,0,0
0,39,77,32
0,39,0,28
0,38,77,32
0,38,0,28
0,62,0,30
0,60,100,62
0,40,77,0
0,40,0,28
0,55,77,2
0,58,77,0
0,62,77,0
0,55,100,0
0,58,100,0
0,62,100,0
0,51,100,0
0,35,78,0
0,29,69,0
0,51,100,4
0,35,79,0
0,29,69,0
0,51,100,12
0,35,80,0
0,29,69,0
0,62,100,4
0,38,77,0
0,62,100,2
0,64,100,2
0,40,79,0
0,40,0,28
0,64,0,90
0,65,100,2
0,65,0,118
0,62,0,0
0,58,0,0
0,55,0,0
0,62,0,0
0,58,0,0
0,55,0,0
0,69,100,2
0,55,77,0
0,60,77,0
0,64,77,0
0,55,100,0
0,60,100,0
0,64,100,0
0,35,77,0
0,51,77,0
0,29,69,0
0,51,0,28
0,35,0,0
0,29,0,0
0,51,77,212
0,51,0,28
0,69,0,90
0,67,100,2
0,35,77,0
0,29,69,0
0,35,0,28
0,29,0,0
0,35,77,92
0,51,77,0
0,29,69,0
0,51,0,28
0,35,0,0
0,29,0,0
0,38,77,92
0,38,0,28
0,67,0,90
0,60,100,2
0,40,77,0
0,40,0,28
0,60,0,30
0,57,100,2
0,57,0,58
0,60,100,2
0,55,77,2
0,58,77,0
0,62,77,0
0,58,100,0
0,62,100,0
0,65,100,0
0,51,100,0
0,35,78,0
0,29,69,0
0,51,100,184
0,51,0,28
0,35,79,92
0,29,69,0
0,35,0,28
0,29,0,0
0,51,100,92
0,35,80,0
0,29,69,0
0,35,0,28
0,51,0,0
0,29,0,0
0,62,100,92
0,38,77,0
0,38,0,28
0,62,0,30
0,62,100,2
0,62,0,58
0,60,0,0
0,64,100,2
0,40,79,0
0,40,0,28
0,64,0,30
0,64,100,2
0,64,0,58
0,65,100,2
0,65,0,118
0,62,0,0
0,58,0,0
0,55,0,0
0,65,0,0
0,62,0,0
0,58,0,0
0,69,100,2
0,55,77,0
0,60,77,0
0,64,77,0
0,60,100,0
0,64,100,0
0,67,100,0
0,35,77,0
0,51,77,0
0,29,69,0
0,51,0,28
0,35,0,0
0,29,0,0
0,51,77,212
0,51,0,28
0,69,0,30
0,70,100,62
0,36,100,0
0,35,77,0
0,29,69,0
0,35,0,28
0,29,0,0
0,70,0,90
0,36,0,0
0,70,100,2
0,38,100,0
0,35,77,0
0,51,77,0
0,29,69,0
0,51,0,28
0,35,0,0
0,29,0,0
0,39,77,32
0,39,0,28
0,38,77,32
0,38,0,28
0,70,0,30
0,38,0,60
0,40,100,2
0,40,77,0
0,40,0,28
0,70,100,92
0,70,0,118
0,64,0,0
0,60,0,0
0,55,0,0
0,40,0,0
0,67,0,0
0,64,0,0
0,60,0,0
0,69,100,2
0,53,100,0
0,57,100,0
0,60,100,0
0,41,100,0
0,65,100,0
0,77,100,0
0,51,100,0
0,35,78,0
0,29,69,0
0,35,0,28
0,51,0,0
0,29,0,0
0,69,0,130
0,65,100,2
0,77,0,78
0,65,0,0
0,72,100,2
0,84,100,0
0,54,100,0
0,51,100,0
0,51,0,28
0,54,0,0
0,65,0,50
0,65,100,2
0,41,0,38
0,33,100,2
0,35,79,0
0,29,69,0
0,35,0,28
0,29,0,0
0,65,0,90
0,60,0,0
0,57,0,0
0,53,0,0
0,33,0,0
0,62,100,2
0,53,100,0
0,58,100,0
0,62,100,0
0,34,100,0
0,51,100,0
0,35,80,0
0,29,69,0
0,35,0,28
0,51,0,0
0,29,0,0
0,38,77,92
0,38,0,28
0,62,0,90
0,69,100,2
0,54,100,0
0,40,79,0
0,40,0,28
0,54,0,0
0,69,0,90
0,67,100,2
0,62,0,118
0,58,0,0
0,53,0,0
0,34,0,0
0,55,100,2
0,60,100,0
0,64,100,0
0,36,100,0
0,35,77,0
0,51,77,0
0,29,69,0
0,51,0,28
0,35,0,0
0,29,0,0
0,67,0,90
0,76,100,122
0,64,100,0
0,54,100,0
0,51,77,0
0,51,0,28
0,54,0,0
0,36,0,90
0,36,100,2
0,35,77,0
0,29,69,0
0,35,0,28
0,29,0,0
0,36,0,90
0,64,0,0
0,76,0,0
0,38,100,2
0,77,100,0
0,65,100,0
0,35,77,0
0,51,77,0
0,29,69,0
0,38,77,8
0,70,100,2
0,40,100,0
0,79,100,0
0,67,100,0
0,54,100,0
0,40,77,0
0,69,100,2
0,53,100,2
0,57,100,0
0,60,100,0
0,41,100,0
0,81,100,0
0,69,100,0
0,51,100,0
0,35,78,0
0,29,69,0
0,35,0,28
0,51,0,0
0,29,0,0
0,69,0,30
0,65,100,62
0,65,0,58
0,65,100,2
0,54,100,60
0,51,100,0
0,72,100,2
0,41,100,0
0,35,79,0
0,29,69,0
0,35,0,28
0,29,0,0
0,69,0,30
0,81,0,0
0,72,0,60
0,53,0,0
0,41,0,0
0,72,100,2
0,52,100,0
0,33,100,0
0,51,100,0
0,35,80,0
0,29,69,0
0,35,0,28
0,51,0,0
0,29,0,0
0,38,77,92
0,38,0,28
0,72,0,90
0,54,100,2
0,40,79,0
0,40,0,28
0,54,0,0
0,64,100,92
0,64,0,118
0,52,0,0
0,60,0,0
0,57,0,0
0,33,0,0
0,62,100,2
0,53,100,0
0,58,100,0
0,62,100,0
0,34,100,0
0,35,77,0
0,51,77,0
0,29,69,0
0,51,0,28
0,35,0,0
0,29,0,0
0,62,0,90
0,60,100,2
0,72,100,0
0,72,0,118
0,60,0,0
0,77,100,2
0,65,100,0
0,54,100,0
0,51,77,0
0,51,0,28
0,54,0,0
0,34,0,90
0,65,0,0
0,77,0,0
0,34,100,2
0,82,100,0
0,70,100,0
0,35,77,0
0,29,69,0
0,35,0,28
0,29,0,0
0,62,0,90
0,58,0,0
0,53,0,0
0,34,0,0
0,70,0,0
0,82,0,0
0,55,100,2
0,60,100,0
0,64,100,0
0,36,100,0
0,81,100,0
0,69,100,0
0,35,77,0
0,51,77,0
0,29,69,0
0,51,0,28
0,35,0,0
0,29,0,0
0,39,77,32
0,39,0,28
0,38,77,32
0,38,0,28
0,69,0,90
0,81,0,0
0,79,100,2
0,67,100,0
0,54,100,0
0,40,77,0
0,40,0,28
0,54,0,0
0,70,100,92
0,70,0,118
0,64,0,0
0,55,0,0
0,36,0,0
0,67,0,0
0,79,0,0
0,69,100,2
0,53,100,0
0,57,100,0
0,41,100,0
0,65,100,0
0,77,100,0
0,77,100,0
0,65,100,0
0,51,100,0
0,35,78,0
0,29,69,0
0,35,0,28
0,51,0,0
0,29,0,0
0,69,0,150
0,65,100,2
0,65,0,58
0,77,0,0
0,65,0,0
0,65,100,2
0,72,100,0
0,84,100,0
0,54,100,0
0,51,100,0
0,51,0,28
0,54,0,0
0,65,0,90
0,41,0,0
0,65,100,2
0,33,100,0
0,35,79,0
0,29,69,0
0,35,0,28
0,29,0,0
0,65,0,30
0,77,0,0
0,65,0,60
0,57,0,0
0,60,0,0
0,33,0,0
0,62,100,2
0,58,100,0
0,62,100,0
0,34,100,0
0,51,100,0
0,35,80,0
0,29,69,0
0,35,0,28
0,51,0,0
0,29,0,0
0,38,77,92
0,38,0,28
0,62,0,30
0,69,100,2
0,34,0,58
0,38,100,2
0,54,100,0
0,40,79,0
0,40,0,28
0,54,0,0
0,69,0,90
0,67,100,2
0,62,0,118
0,58,0,0
0,53,0,0
0,38,0,0
0,55,100,2
0,60,100,0
0,64,100,0
0,36,100,0
0,35,77,0
0,51,77,0
0,29,69,0
0,51,0,28
0,35,0,0
0,29,0,0
0,67,0,30
0,64,100,182
0,76,100,0
0,54,100,0
0,51,77,0
0,51,0,28
0,54,0,0
0,36,0,90
0,36,100,2
0,35,77,0
0,29,69,0
0,35,0,28
0,29,0,0
0,36,0,90
0,76,0,0
0,64,0,0
0,36,100,2
0,65,100,0
0,77,100,0
0,35,77,0
0,51,77,0
0,29,69,0
0,38,77,0
0,67,100,16
0,67,100,2
0,67,100,0
0,79,100,0
0,54,100,0
0,40,77,0
0,69,100,2
0,67,100,2
0,58,100,0
0,62,100,0
0,31,100,0
0,70,100,0
0,74,100,0
0,79,100,0
0,51,100,0
0,35,78,0
0,29,69,0
0,35,0,28
0,51,0,0
0,29,0,0
0,67,0,90
0,65,100,2
0,65,0,58
0,62,100,2
0,54,100,60
0,51,100,0
0,51,0,28
0,54,0,0
0,62,0,30
0,65,100,2
0,31,0,58
0,31,100,2
0,35,79,0
0,29,69,0
0,35,0,28
0,29,0,0
0,65,0,90
0,31,0,0
0,31,100,2
0,51,100,0
0,35,80,0
0,29,69,0
0,35,0,28
0,51,0,0
0,29,0,0
0,38,77,92
0,38,0,28
0,31,0,90
0,62,100,2
0,33,100,0
0,54,100,0
0,40,79,0
0,40,0,28
0,54,0,0
0,62,0,90
0,65,100,2
0,55,0,118
0,33,0,0
0,79,0,0
0,74,0,0
0,70,0,0
0,53,100,2
0,34,100,0
0,72,100,0
0,77,100,0
0,70,100,0
0,74,100,0
0,35,77,0
