track,note,velocity,time
4,40,111,12183
4,28,118,14
4,28,0,570
4,33,107,150
4,33,0,150
4,33,119,91
4,33,0,635
4,33,106,80
4,33,0,105
4,35,111,12
4,35,0,95
4,37,122,32
4,37,0,723
4,35,116,238
4,35,0,390
4,35,127,89
4,30,121,7
4,30,0,738
4,30,118,110
4,30,0,52
4,30,116,63
4,30,0,109
4,30,123,128
4,30,0,395
4,30,119,85
4,30,0,120
4,32,110,0
4,32,0,96
4,33,118,25
4,33,0,669
4,33,111,62
4,33,0,179
4,35,122,50
4,35,0,444
4,35,121,45
4,35,0,420
4,28,123,46
4,28,0,670
4,28,116,64
4,28,0,1177
4,37,123,1933
4,37,0,210
4,37,112,630
4,37,0,60
4,37,122,60
4,37,0,210
4,33,123,750
4,33,0,210
4,33,113,630
4,33,0,60
4,33,122,60
4,33,0,210
4,37,122,750
4,37,0,210
4,37,113,630
4,37,0,60
4,37,123,60
4,37,0,210
4,33,122,750
4,33,0,210
4,33,112,630
4,33,0,90
4,35,123,30
4,35,0,930
4,37,122,30
4,37,0,210
4,37,113,630
4,37,0,60
4,37,123,60
4,37,0,210
4,33,122,750
4,33,0,210
4,33,113,630
4,33,0,60
4,33,122,60
4,33,0,210
4,33,122,510
4,33,0,120
4,35,123,0
4,35,0,90
4,37,123,30
4,37,0,510
4,37,118,210
4,37,0,210
4,39,122,30
4,39,0,480
4,35,123,0
4,35,0,460
4,28,123,20
4,28,0,460
4,28,122,380
4,28,0,60
4,28,122,60
4,28,0,360
4,28,123,360
4,28,0,240
4,30,120,0
4,30,0,570
4,30,121,150
4,30,0,780
4,30,113,180
4,30,0,105
4,32,116,15
4,32,0,95
4,33,123,25
4,33,0,510
4,33,118,210
4,33,0,210
4,35,116,31
4,35,0,420
4,35,127,59
4,30,121,7
4,30,0,570
4,30,120,150
4,30,0,780
4,30,112,180
4,30,0,105
4,32,117,15
4,32,0,95
4,33,123,25
4,33,0,930
4,35,120,31
4,35,0,480
4,35,116,239
4,35,0,90
4,30,107,30
4,30,0,90
4,28,126,30
4,28,0,570
4,33,127,150
4,33,0,360
4,33,127,120
4,33,0,360
4,33,124,116
4,33,0,105
4,35,119,19
4,35,0,95
4,37,126,25
4,37,0,510
4,35,108,210
4,35,0,150
4,35,127,90
4,35,0,450
4,35,127,30
4,28,126,7
4,28,0,570
4,33,126,150
4,33,0,420
4,33,127,60
4,33,0,360
4,33,107,116
4,33,0,105
4,35,118,12
4,35,0,95
4,37,126,32
4,37,0,510
4,35,89,210
4,35,0,95
4,35,126,145
4,35,0,150
4,35,127,90
4,35,0,390
4,35,127,90
4,35,0,120
4,30,112,0
4,30,0,90
4,28,127,30
4,28,0,570
4,33,126,150
4,33,0,360
4,33,126,120
4,33,0,360
4,33,125,116
4,33,0,105
4,35,119,19
4,35,0,95
4,37,126,25
4,37,0,510
4,35,108,210
4,35,0,150
4,35,127,90
4,35,0,450
4,35,127,30
4,30,126,7
4,30,0,570
4,30,118,150
4,30,0,90
4,30,119,30
4,30,0,60
4,30,124,60
4,30,0,150
4,30,127,90
4,30,0,360
4,30,119,120
4,30,0,95
4,32,118,25
4,32,0,95
4,33,127,25
4,33,0,540
4,33,126,180
4,33,0,150
4,35,126,90
4,35,0,420
4,35,127,60
4,35,0,420
4,28,127,60
4,28,0,660
4,28,122,70
4,28,0,740
4,37,122,450
4,37,0,210
4,37,113,630
4,37,0,60
4,37,123,60
4,37,0,210
4,33,122,750
4,33,0,210
4,33,112,630
4,33,0,60
4,33,123,60
4,33,0,210
4,37,122,750
4,37,0,210
4,37,113,630
4,37,0,60
4,37,123,60
4,37,0,210
4,33,122,750
4,33,0,210
4,33,113,630
4,33,0,90
4,35,122,30
4,35,0,930
4,37,122,30
4,37,0,210
4,37,113,630
4,37,0,60
4,37,123,60
4,37,0,210
4,33,122,750
4,33,0,210
4,33,112,630
4,33,0,60
4,33,123,60
4,33,0,210
4,33,123,510
4,33,0,120
4,35,122,0
4,35,0,90
4,37,122,30
4,37,0,510
4,37,119,210
4,37,0,210
4,39,122,30
4,39,0,480
4,35,123,0
4,35,0,460
4,28,123,20
4,28,0,460
4,28,122,380
4,28,0,60
4,28,123,60
4,28,0,360
4,28,122,360
4,28,0,240
4,30,120,0
4,30,0,570
4,30,121,150
4,30,0,780
4,30,113,180
4,30,0,105
4,32,116,15
4,32,0,95
4,33,122,25
4,33,0,510
4,33,119,210
4,33,0,210
4,35,117,31
4,35,0,420
4,35,126,59
4,30,120,7
4,30,0,570
4,30,121,150
4,30,0,780
4,30,112,180
4,30,0,105
4,32,117,15
4,32,0,95
4,33,123,25
4,33,0,930
4,35,120,31
4,35,0,480
4,35,117,239
4,35,0,90
4,30,106,30
4,30,0,90
4,28,126,30
4,28,0,570
4,33,127,150
4,33,0,360
4,33,127,120
4,33,0,360
4,33,124,116
4,33,0,105
4,35,118,19
4,35,0,95
4,37,127,25
4,37,0,510
4,35,109,210
4,35,0,150
4,35,126,90
4,35,0,450
4,35,126,30
4,28,127,7
4,28,0,570
4,33,126,150
4,33,0,420
4,33,127,60
4,33,0,360
4,33,107,116
4,33,0,105
4,35,118,12
4,35,0,95
4,37,127,32
4,37,0,510
4,35,88,210
4,35,0,95
4,35,126,145
4,35,0,150
4,35,127,90
4,35,0,390
4,35,127,90
4,35,0,120
4,30,112,0
4,30,0,90
4,28,126,30
4,28,0,570
4,33,127,150
4,33,0,360
4,33,127,120
4,33,0,360
4,33,124,116
4,33,0,105
4,35,118,19
4,35,0,95
4,37,127,25
4,37,0,510
4,35,108,210
4,35,0,150
4,35,127,90
4,35,0,450
4,35,127,30
4,30,126,7
4,30,0,570
4,30,119,150
4,30,0,90
4,30,118,30
4,30,0,60
4,30,124,60
4,30,0,150
4,30,127,90
4,30,0,360
4,30,119,120
4,30,0,95
4,32,118,25
4,32,0,95
4,33,126,25
4,33,0,540
4,33,127,180
4,33,0,150
4,35,127,90
4,35,0,420
4,35,126,60
4,35,0,420
4,28,118,60
4,28,0,570
4,33,107,150
4,33,0,150
4,33,118,91
4,33,0,635
4,33,107,80
4,33,0,105
4,35,111,12
4,35,0,95
4,37,122,32
4,37,0,723
4,35,117,238
4,35,0,390
4,35,126,89
4,30,120,7
4,30,0,738
4,30,119,110
4,30,0,52
4,30,117,63
4,30,0,109
4,30,122,128
4,30,0,395
4,30,118,85
4,30,0,120
4,32,111,0
4,32,0,96
4,33,119,25
4,33,0,669
4,33,110,62
4,33,0,179
4,35,122,50
4,35,0,444
4,35,121,45
4,35,0,420
4,28,122,50
4,28,0,1890
4,50,79,35
4,50,0,1906
4,48,69,11
4,48,0,1914
4,43,78,14
4,42,71,953
4,43,0,2
4,42,0,878
4,28,126,77
4,28,0,720
4,40,122,0
4,40,0,1172
4,37,123,28
4,37,0,1620
4,37,123,60
4,37,0,240
4,36,112,6
4,41,116,480
4,36,0,6
4,46,117,12
4,46,0,937
4,38,123,8
4,38,0,1180
4,45,116,16
4,50,110,16
4,50,0,442
4,40,77,42
4,40,0,1190
4,30,126,238
4,30,0,158
4,28,127,82
4,28,0,158
4,33,127,82
4,33,0,570
4,33,126,150
4,33,0,120
4,35,105,0
4,35,0,120
4,38,126,0
4,38,0,180
4,38,126,60
4,38,0,360
4,40,125,120
4,40,0,105
4,28,107,15
4,28,0,120
4,30,126,0
4,30,0,240
4,42,126,0
4,42,0,270
4,40,115,90
4,40,0,30
4,30,127,90
4,30,0,150
4,28,126,90
4,28,0,150
4,28,126,90
4,28,0,390
4,30,121,90
4,30,0,90
4,28,120,30
4,28,0,90
4,33,127,30
4,33,0,570
4,38,127,150
4,38,0,90
4,33,118,30
4,33,0,90
4,38,127,30
4,38,0,180
4,38,126,60
4,38,0,390
4,28,108,90
4,28,0,105
4,29,103,15
4,29,0,95
4,30,127,25
4,30,0,180
4,30,126,60
4,30,0,360
4,28,106,120
4,28,0,90
4,30,127,30
4,30,0,90
4,28,127,30
4,28,0,150
4,28,126,90
4,28,0,390
4,30,126,90
4,30,0,120
4,32,103,0
4,32,0,90
4,33,126,30
4,33,0,570
4,33,127,150
4,33,0,30
4,35,105,90
4,35,0,90
4,38,126,30
4,38,0,180
4,38,127,60
4,38,0,360
4,38,124,116
4,38,0,105
4,28,106,19
4,28,0,120
4,30,127,0
4,30,0,240
4,42,127,0
4,42,0,300
4,42,126,60
4,42,0,30
4,30,126,90
4,30,0,150
4,28,127,90
4,28,0,450
4,40,127,30
4,35,126,17
4,35,0,570
4,35,126,150
4,35,0,30
4,35,119,90
4,35,0,90
4,35,126,30
4,35,0,180
4,35,127,60
4,35,0,360
4,35,127,120
4,35,0,105
4,37,114,15
4,37,0,95
4,38,127,25
4,38,0,480
4,38,126,240
4,38,0,180
4,40,126,60
4,40,0,450
4,28,127,30
4,28,0,180
4,30,127,60
4,30,0,120
4,32,116,0
4,32,0,90
4,33,126,30
4,33,0,570
4,33,127,150
4,33,0,120
4,35,105,0
4,35,0,120
4,38,126,0
4,38,0,180
4,38,126,60
4,38,0,360
4,40,125,120
4,40,0,105
4,28,106,15
4,28,0,120
4,30,127,0
4,30,0,240
4,42,127,0
4,42,0,270
4,40,114,90
4,40,0,30
4,30,127,90
4,30,0,150
4,28,126,90
4,28,0,150
4,28,126,90
4,28,0,390
4,30,121,90
4,30,0,90
4,28,121,30
4,28,0,90
4,33,126,30
4,33,0,570
4,38,126,150
4,38,0,90
4,33,119,30
4,33,0,90
4,38,127,30
4,38,0,180
4,38,126,60
4,38,0,390
4,28,108,90
4,28,0,105
4,29,103,15
4,29,0,95
4,30,126,25
4,30,0,180
4,30,127,60
4,30,0,360
4,28,107,120
4,28,0,90
4,30,126,30
4,30,0,90
4,28,127,30
4,28,0,150
4,28,126,90
4,28,0,390
4,30,126,90
4,30,0,120
4,32,103,0
4,32,0,90
4,33,127,30
4,33,0,570
4,33,126,150
4,33,0,30
4,35,104,90
4,35,0,90
4,38,127,30
4,38,0,180
4,38,127,60
4,38,0,360
4,38,124,116
4,38,0,105
4,28,106,19
4,28,0,120
4,30,127,0
4,30,0,240
4,42,126,0
4,42,0,300
4,42,127,60
4,42,0,30
4,30,127,90
4,30,0,150
4,28,126,90
4,28,0,450
4,40,127,30
4,35,126,17
4,35,0,570
4,35,126,150
4,35,0,30
4,35,119,90
4,35,0,90
4,35,127,30
4,35,0,180
4,35,126,60
4,35,0,360
4,35,126,120
4,35,0,105
4,37,115,15
4,37,0,95
4,38,127,25
4,38,0,480
4,38,126,240
4,38,0,180
4,40,126,60
4,40,0,450
4,28,127,30
4,28,0,180
4,30,126,60
4,30,0,120
4,32,117,0
4,32,0,90
4,33,127,30
4,33,0,570
4,33,126,150
4,33,0,120
4,35,105,0
4,35,0,120
4,38,126,0
4,38,0,180
4,38,126,60
4,38,0,360
4,40,125,120
4,40,0,105
4,28,107,15
4,28,0,120
4,30,126,0
4,30,0,240
4,42,126,0
4,42,0,270
4,40,115,90
4,40,0,30
4,30,127,90
4,30,0,150
4,28,126,90
4,28,0,150
4,28,126,90
4,28,0,390
4,30,121,90
4,30,0,90
4,28,120,30
4,28,0,90
4,33,127,30
4,33,0,570
4,38,127,150
4,38,0,90
4,33,118,30
4,33,0,90
4,38,127,30
4,38,0,180
4,38,126,60
4,38,0,390
4,28,108,90
4,28,0,105
4,29,103,15
4,29,0,95
4,30,127,25
4,30,0,180
4,30,126,60
4,30,0,360
4,28,106,120
4,28,0,90
4,30,127,30
4,30,0,90
4,28,127,30
4,28,0,150
4,28,126,90
4,28,0,390
4,30,126,90
4,30,0,120
4,32,103,0
4,32,0,90
4,33,126,30
4,33,0,570
4,33,127,150
4,33,0,30
4,35,105,90
4,35,0,90
4,38,126,30
4,38,0,180
4,38,127,60
4,38,0,360
4,38,124,116
4,38,0,105
4,28,106,19
4,28,0,120
4,30,127,0
4,30,0,240
4,42,127,0
4,42,0,300
4,42,126,60
4,42,0,30
4,30,126,90
4,30,0,150
4,28,127,90
4,28,0,450
4,40,127,30
4,35,126,17
4,35,0,1650
4,37,118,30
4,37,0,240
4,26,121,0
4,38,110,0
4,26,0,940
4,38,0,8
4,28,113,12
4,40,109,20
4,33,116,9
5,52,87,12305
5,59,82,26
5,52,0,659
5,59,0,1
5,57,89,27
5,64,93,7
5,57,0,1085
5,64,0,21
5,56,102,105
5,61,99,4
5,56,0,317
5,61,0,8
5,56,100,31
5,61,84,2
5,61,0,500
5,56,0,7
5,59,95,85
5,54,103,7
5,54,0,430
5,59,0,13
5,59,94,33
5,54,98,3
5,54,0,330
5,54,87,64
5,59,0,28
5,61,99,18
5,54,0,27
5,66,94,8
5,61,0,689
5,66,0,6
5,61,98,21
5,66,101,13
5,66,0,420
5,61,0,5
5,66,78,42
5,61,59,6
5,66,0,84
5,66,75,25
5,61,0,1
5,61,76,12
5,61,0,90
5,66,0,7
5,66,113,19
5,61,104,7
5,61,0,100
5,66,0,3
5,66,64,17
5,61,63,4
5,61,0,150
5,66,0,16
5,64,95,177
5,69,88,0
5,64,0,341
5,69,0,4
5,64,90,25
5,69,91,3
5,64,0,489
5,69,0,71
5,66,87,27
5,71,90,0
5,66,0,436
5,71,0,14
5,66,88,22
5,71,97,8
5,66,0,372
5,71,0,78
5,64,100,53
5,59,81,337
5,64,0,313
5,64,85,57
5,59,0,2480
5,64,0,150
5,61,92,428
5,68,97,32
5,73,110,41
5,68,0,315
5,61,0,7
5,68,68,17
5,73,0,3
5,61,65,7
5,73,73,3
5,68,0,287
5,61,0,30
5,73,0,3
5,68,56,22
5,61,46,5
5,73,59,0
5,68,0,310
5,61,0,10
5,73,0,20
5,68,45,13
5,73,44,7
5,61,42,2
5,61,0,350
5,61,37,18
5,61,0,431
5,68,0,6
5,73,0,20
5,61,92,5721
5,68,97,32
5,73,111,41
5,68,0,315
5,61,0,7
5,68,68,17
5,73,0,3
5,61,65,7
5,73,72,3
5,68,0,287
5,61,0,30
5,73,0,3
5,68,56,22
5,61,47,5
5,73,59,0
5,68,0,310
5,61,0,10
5,73,0,20
5,68,44,13
5,73,44,7
5,61,43,2
5,61,0,350
5,61,37,18
5,61,0,431
5,68,0,6
5,73,0,20
5,54,90,5713
5,61,94,31
5,66,113,41
5,61,0,315
5,54,0,8
5,61,66,16
5,66,0,4
5,54,63,6
5,66,87,4
5,61,0,286
5,54,0,30
5,66,0,4
5,61,54,21
5,54,45,5
5,66,56,0
5,61,0,310
5,54,0,10
5,66,0,20
5,61,42,14
5,66,43,6
5,54,41,2
5,54,0,350
5,61,0,455
5,66,0,20
5,45,86,22
5,52,80,30
5,47,91,930
5,45,0,7
5,52,0,9
5,54,87,14
5,54,0,780
5,54,90,90
5,47,0,2
5,61,94,29
5,66,113,41
5,61,0,315
5,54,0,8
5,61,66,16
5,66,0,4
5,54,63,6
5,66,87,4
5,54,0,316
5,61,0,10
5,66,0,4
5,61,54,21
5,54,45,5
5,66,56,0
5,61,0,310
5,54,0,10
5,66,0,20
5,61,42,14
5,66,43,6
5,54,41,2
5,54,0,350
5,61,0,455
5,66,0,20
5,45,86,7
5,52,84,25
5,45,0,905
5,52,0,35
5,47,91,13
5,54,83,9
5,47,0,909
5,54,0,10
5,56,92,19
5,64,90,30
5,56,0,655
5,64,0,5
5,57,89,23
5,64,96,7
5,57,0,1085
5,64,0,21
5,56,103,105
5,61,99,4
5,56,0,317
5,61,0,8
5,56,100,31
5,61,85,2
5,59,94,347
5,56,0,1
5,61,0,2
5,54,102,4
5,59,0,653
5,54,0,7
5,59,95,61
5,54,99,3
5,54,0,330
5,59,0,92
5,56,92,47
5,64,90,30
5,56,0,655
5,64,0,5
5,57,89,23
5,64,97,7
5,57,0,1085
5,64,0,21
5,56,102,105
5,61,98,4
5,56,0,317
5,61,0,8
5,56,101,31
5,61,84,2
5,59,95,347
5,56,0,1
5,61,0,2
5,54,103,4
5,59,0,653
5,54,0,7
5,59,94,61
5,54,99,3
5,54,0,330
5,59,0,92
5,56,92,37
5,64,90,30
5,64,0,315
