track,note,velocity,time
0,40,115,1
0,40,0,31
0,40,121,95
0,39,106,1
0,39,0,32
0,40,0,0
0,38,108,93
0,38,0,29
0,38,98,63
0,40,122,3
0,38,0,29
0,40,0,2
0,39,111,95
0,40,119,0
0,39,0,30
0,40,0,1
0,38,111,93
0,38,0,29
0,40,115,1
0,38,111,1
0,40,0,30
0,38,0,2
0,40,121,95
0,39,106,1
0,39,0,32
0,40,0,0
0,38,108,93
0,38,0,29
0,38,98,63
0,40,122,3
0,38,0,29
0,40,0,2
0,39,111,95
0,40,119,0
0,39,0,30
0,40,0,1
0,38,111,93
0,38,0,29
0,40,115,1
0,38,111,1
0,40,0,30
0,38,0,2
0,40,121,95
0,39,106,1
0,39,0,32
0,40,0,0
0,38,108,93
0,38,0,29
0,38,98,63
0,40,122,3
0,38,0,29
0,40,0,2
0,39,111,95
0,40,119,0
0,39,0,30
0,40,0,1
0,38,111,93
0,38,0,29
0,52,90,67
0,40,127,0
0,28,127,0
0,85,104,0
0,40,115,1
0,28,95,1
0,38,111,0
0,40,127,13
0,40,0,17
0,38,0,2
0,52,0,21
0,28,0,53
0,40,0,0
0,28,0,31
0,85,0,13
0,40,0,5
0,52,127,111
0,52,0,68
0,52,90,36
0,40,121,11
0,40,127,1
0,28,127,0
0,39,106,0
0,40,112,0
0,28,110,1
0,39,0,31
0,40,0,0
0,52,0,11
0,28,0,80
0,40,0,0
0,40,0,21
0,28,0,30
0,52,127,83
0,38,108,28
0,52,0,20
0,38,0,12
0,52,90,52
0,38,98,11
0,40,95,1
0,40,122,2
0,40,127,1
0,28,127,0
0,85,95,0
0,28,100,2
0,38,0,27
0,40,0,2
0,52,0,13
0,40,0,16
0,28,0,62
0,40,0,0
0,85,0,5
0,28,0,58
0,52,127,88
0,52,127,15
0,52,0,36
0,52,100,46
0,39,111,13
0,40,119,0
0,40,127,1
0,28,127,0
0,28,114,1
0,52,0,18
0,40,95,10
0,39,0,1
0,40,0,1
0,52,0,9
0,40,0,52
0,28,0,50
0,40,0,0
0,28,0,51
0,71,95,5
0,64,90,3
0,74,91,7
0,52,127,60
0,38,111,17
0,38,0,32
0,52,0,16
0,52,94,50
0,40,127,1
0,28,127,0
0,85,101,0
0,40,117,0
0,40,115,1
0,28,106,1
0,38,111,0
0,40,0,30
0,38,0,2
0,52,0,16
0,28,0,79
0,40,0,0
0,85,0,10
0,40,0,16
0,28,0,3
0,52,127,110
0,52,0,68
0,52,93,36
0,40,121,11
0,40,127,1
0,28,127,0
0,39,106,0
0,28,110,1
0,40,95,15
0,39,0,16
0,40,0,0
0,52,0,11
0,74,0,4
0,64,0,12
0,40,0,18
0,71,0,16
0,28,0,46
0,40,0,0
0,28,0,32
0,64,85,28
0,73,95,3
0,69,92,7
0,52,127,41
0,52,127,7
0,38,108,28
0,52,0,20
0,38,0,12
0,52,85,52
0,38,98,11
0,40,95,1
0,40,122,2
0,40,125,1
0,28,125,0
0,85,97,0
0,28,106,1
0,38,0,28
0,40,0,2
0,52,0,13
0,40,0,16
0,52,0,29
0,28,0,48
0,40,0,0
0,85,0,2
0,28,0,17
0,52,127,117
0,52,0,51
0,52,90,46
0,28,112,13
0,39,111,0
0,40,119,0
0,40,125,1
0,28,125,0
0,52,125,3
0,40,125,10
0,39,0,17
0,40,0,1
0,52,0,9
0,40,0,36
0,28,0,65
0,40,0,0
0,28,0,27
0,64,0,29
0,69,0,12
0,52,0,8
0,73,0,35
0,52,127,16
0,38,111,17
0,38,0,32
0,52,0,16
0,28,108,50
0,52,91,0
0,40,120,1
0,28,120,0
0,85,95,0
0,40,115,1
0,38,111,1
0,40,127,13
0,40,0,17
0,38,0,2
0,52,0,16
0,28,0,79
0,40,0,0
0,85,0,18
0,40,0,10
0,28,0,11
0,52,127,81
0,52,0,68
0,52,90,36
0,28,108,11
0,40,121,0
0,40,120,1
0,28,120,0
0,39,106,0
0,40,112,0
0,39,0,32
0,40,0,0
0,52,0,11
0,28,0,88
0,40,0,0
0,28,0,4
0,40,0,9
0,52,127,113
0,38,108,28
0,52,0,20
0,38,0,12
0,52,90,52
0,38,98,11
0,40,95,1
0,28,112,1
0,40,122,1
0,40,125,1
0,28,125,0
0,85,97,0
0,38,0,29
0,40,0,2
0,52,0,13
0,40,0,16
0,28,0,72
0,40,0,0
0,28,0,6
0,85,0,6
0,52,127,129
0,52,127,15
0,52,0,36
0,52,100,46
0,28,108,12
0,39,111,1
0,40,119,0
0,40,120,1
0,28,120,0
0,52,0,19
0,40,95,10
0,39,0,1
0,40,0,1
0,52,0,9
0,40,0,52
0,28,0,32
0,40,0,0
0,28,0,21
0,64,86,96
0,71,94,5
0,74,85,10
0,52,127,12
0,38,111,17
0,38,0,32
0,52,0,16
0,28,114,50
0,52,94,0
0,40,125,1
0,28,125,0
0,85,95,0
0,40,117,0
0,40,115,1
0,38,111,1
0,40,0,30
0,38,0,2
0,52,0,16
0,28,0,69
0,40,0,0
0,85,0,22
0,40,0,14
0,28,0,10
0,52,127,103
0,52,0,68
0,52,93,36
0,40,121,11
0,40,117,1
0,28,117,0
0,39,106,0
0,28,106,1
0,40,95,15
0,39,0,16
0,40,0,0
0,52,0,11
0,40,0,34
0,74,0,30
0,64,0,3
0,71,0,17
0,28,0,3
0,40,0,0
0,28,0,19
0,52,127,101
0,64,88,1
0,52,127,6
0,69,98,4
0,73,93,0
0,38,108,24
0,52,0,20
0,38,0,12
0,52,85,52
0,38,98,11
0,40,95,1
0,40,122,2
0,40,120,1
0,28,120,0
0,85,99,0
0,28,110,1
0,38,0,28
0,40,0,2
0,52,0,13
0,40,0,16
0,52,0,29
0,28,0,38
0,40,0,0
0,85,0,11
0,28,0,39
0,52,127,96
0,52,0,51
0,52,90,46
0,39,111,13
0,40,119,0
0,28,100,1
0,40,112,0
0,28,112,0
0,52,125,3
0,40,125,10
0,39,0,17
0,40,0,1
0,52,0,9
0,64,0,30
0,69,0,2
0,40,0,4
0,73,0,17
0,28,0,15
0,40,0,0
0,28,0,107
0,52,0,2
0,52,127,51
0,38,111,17
0,38,0,32
0,52,0,16
0,76,84,25
0,72,88,3
0,67,65,2
0,64,84,13
0,52,91,7
0,40,114,1
0,28,114,0
0,85,99,0
0,40,115,1
0,28,97,1
0,38,111,0
0,40,127,13
0,40,0,17
0,38,0,2
0,52,0,16
0,85,0,66
0,28,0,13
0,40,0,0
0,40,0,28
0,28,0,54
0,52,127,57
0,52,0,68
0,52,90,36
0,28,86,11
0,40,121,0
0,40,117,1
0,28,117,0
0,39,106,0
0,40,112,0
0,39,0,32
0,40,0,0
0,52,0,11
0,28,0,81
0,40,0,0
0,40,0,20
0,28,0,55
0,52,127,58
0,38,108,28
0,52,0,20
0,38,0,12
0,52,90,52
0,38,98,11
0,40,95,1
0,40,122,2
0,40,122,1
0,28,122,0
0,85,101,0
0,28,106,1
0,38,0,28
0,40,0,2
0,52,0,13
0,40,0,16
0,85,0,58
0,28,0,11
0,40,0,0
0,28,0,31
0,52,127,113
0,52,127,15
0,52,0,36
0,52,100,46
0,28,102,13
0,39,111,0
0,40,119,0
0,40,117,1
0,28,117,0
0,52,0,19
0,40,95,10
0,39,0,1
0,40,0,1
0,52,0,9
0,40,0,52
0,28,0,34
0,40,0,0
0,28,0,28
0,67,0,96
0,52,127,18
0,72,0,3
0,76,0,13
0,38,111,1
0,64,0,11
0,38,0,21
0,52,0,16
0,64,78,46
0,66,81,2
0,28,106,2
0,52,94,0
0,69,86,1
0,40,120,0
0,28,120,0
0,85,97,0
0,40,117,0
0,40,115,1
0,38,111,1
0,74,83,1
0,40,0,29
0,38,0,2
0,52,0,16
0,28,0,67
0,40,0,0
0,85,0,10
0,40,0,28
0,28,0,30
0,52,127,83
0,52,0,68
0,52,93,36
0,28,102,11
0,40,121,0
0,40,122,1
0,28,122,0
0,39,106,0
0,40,95,16
0,39,0,16
0,40,0,0
0,52,0,11
0,40,0,34
0,28,0,37
0,40,0,0
0,28,0,69
0,52,127,67
0,52,127,7
0,38,108,28
0,52,0,20
0,38,0,12
0,52,85,52
0,38,98,11
0,40,95,1
0,28,106,2
0,40,122,0
0,40,120,1
0,28,120,0
0,85,101,0
0,38,0,29
0,40,0,2
0,52,0,13
0,40,0,16
0,52,0,29
0,85,0,23
0,28,0,12
0,40,0,0
0,28,0,31
0,52,127,118
0,52,0,51
0,52,90,46
0,28,110,13
0,39,111,0
0,40,119,0
0,40,120,1
0,28,120,0
0,52,125,3
0,40,125,10
0,39,0,17
0,40,0,1
0,52,0,9
0,40,0,36
0,28,0,45
0,40,0,0
0,74,0,75
0,64,0,4
0,28,0,1
0,69,0,2
0,66,0,6
0,52,0,8
0,52,127,51
0,38,111,17
0,38,0,32
0,52,0,16
0,28,104,50
0,52,91,0
0,40,110,1
0,28,110,0
0,85,95,0
0,40,115,1
0,38,111,1
0,40,127,13
0,40,0,17
0,38,0,2
0,52,0,16
0,85,0,46
0,28,0,31
0,40,0,0
0,40,0,30
0,28,0,44
0,52,127,67
0,52,0,68
0,52,90,36
0,28,110,11
0,40,121,0
0,40,117,1
0,28,117,0
0,39,106,0
0,40,112,0
0,39,0,32
0,40,0,0
0,52,0,11
0,28,0,88
0,40,0,0
0,40,0,13
0,28,0,61
0,52,127,52
0,38,108,28
0,52,0,20
0,38,0,12
0,52,90,52
0,38,98,11
0,40,95,1
0,28,104,2
0,40,122,0
0,40,108,1
0,28,108,0
0,85,95,0
0,38,0,29
0,40,0,2
0,52,0,13
0,40,0,16
0,85,0,36
0,28,0,33
0,40,0,0
0,28,0,54
0,52,127,90
0,52,127,15
0,52,0,36
0,52,100,46
0,28,102,12
0,39,111,1
0,40,119,0
0,40,122,1
0,28,122,0
0,52,0,19
0,40,95,10
0,39,0,1
0,40,0,1
0,52,0,9
0,40,0,52
0,28,0,41
0,40,0,0
0,71,95,65
0,64,90,3
0,74,91,7
0,28,0,23
0,52,127,37
0,38,111,17
0,38,0,32
0,52,0,16
0,28,104,50
0,52,94,0
0,40,106,1
0,28,106,0
0,85,95,0
0,40,117,0
0,40,115,1
0,38,111,1
0,40,0,30
0,38,0,2
0,52,0,16
0,85,0,41
0,28,0,38
0,40,0,0
0,40,0,26
0,28,0,41
0,52,127,72
0,52,0,68
0,52,93,36
0,28,108,10
0,40,121,1
0,40,122,1
0,28,122,0
0,39,106,0
0,40,95,16
0,39,0,16
0,40,0,0
0,52,0,11
0,74,0,4
0,64,0,12
0,40,0,18
0,71,0,16
0,28,0,33
0,40,0,0
0,64,124,41
0,28,0,1
0,64,85,31
0,73,95,3
0,69,92,7
0,64,0,29
0,52,127,12
0,52,127,7
0,38,108,28
0,67,127,7
0,52,0,13
0,38,0,12
0,52,85,52
0,38,98,11
0,40,95,1
0,28,108,1
0,40,122,1
0,40,108,1
0,28,108,0
0,85,87,0
0,38,0,29
0,40,0,2
0,52,0,13
0,40,0,16
0,52,0,29
0,85,0,6
0,28,0,42
0,40,0,0
0,28,0,68
0,67,0,51
0,52,127,17
0,69,121,18
0,52,0,33
0,52,90,46
0,69,0,3
0,28,110,8
0,39,111,2
0,40,119,0
0,40,114,1
0,28,114,0
0,52,125,3
0,40,125,10
0,39,0,17
0,40,0,1
0,52,0,9
0,40,0,36
0,28,0,57
0,40,0,0
0,71,127,8
0,28,0,11
0,64,0,45
0,69,0,12
0,52,0,8
0,73,0,35
0,46,97,1
0,52,127,15
0,38,111,17
0,38,0,32
0,52,0,16
0,46,0,1
0,71,0,41
0,52,91,8
0,40,106,1
0,28,106,0
0,85,87,0
0,44,97,0
0,40,115,1
0,28,95,1
0,38,111,0
0,40,127,13
0,40,0,17
0,38,0,2
0,52,0,16
0,85,0,49
0,44,0,3
0,28,0,32
0,40,0,0
0,28,0,5
0,64,127,15
0,40,0,3
0,52,127,111
0,52,0,68
0,52,90,36
0,40,121,11
0,40,112,1
0,28,112,0
0,39,106,0
0,40,112,0
0,28,110,1
0,44,97,0
0,39,0,31
0,40,0,0
0,52,0,11
0,64,0,26
0,28,0,39
0,40,0,0
0,40,0,15
0,28,0,30
0,52,127,83
0,44,0,11
0,38,108,17
0,52,0,20
0,38,0,12
0,64,112,42
0,52,90,10
0,38,98,11
0,40,95,1
0,40,122,2
0,40,114,1
0,28,114,0
0,85,93,0
0,28,100,2
0,38,0,27
0,40,0,2
0,52,0,13
0,40,0,16
0,85,0,39
0,28,0,30
0,40,0,0
0,28,0,23
0,52,127,88
0,52,127,15
0,64,0,11
0,52,0,25
0,52,100,46
0,39,111,13
0,40,119,0
0,40,120,1
0,28,120,0
0,28,114,1
0,44,97,2
0,52,0,16
0,40,95,10
0,39,0,1
0,40,0,1
0,52,0,9
0,40,0,52
0,28,0,37
0,40,0,0
0,28,0,64
0,71,95,5
0,64,90,3
0,74,91,7
0,52,127,60
0,44,0,0
0,38,111,17
0,38,0,32
0,52,0,16
0,52,94,50
0,40,110,1
0,28,110,0
0,85,85,0
0,40,117,0
0,40,115,1
0,28,106,1
0,38,111,0
0,40,0,30
0,38,0,2
0,52,0,16
0,85,0,53
0,28,0,26
0,40,0,0
0,40,0,26
0,28,0,3
0,52,127,110
0,52,0,68
0,52,93,36
0,44,93,9
0,40,121,2
0,40,114,1
0,28,114,0
0,39,106,0
0,28,110,1
0,40,95,15
0,39,0,16
0,40,0,0
0,52,0,11
0,74,0,4
0,64,0,12
0,40,0,18
0,71,0,16
0,28,0,41
0,40,0,0
0,28,0,37
0,64,106,21
0,64,85,7
0,73,95,3
0,69,92,7
0,52,127,41
0,64,0,1
0,52,127,6
0,44,0,5
0,38,108,23
0,52,0,20
0,38,0,12
0,67,127,10
0,52,85,42
0,38,98,11
0,40,95,1
0,40,122,2
0,40,112,1
0,28,112,0
0,85,97,0
0,28,106,1
0,38,0,28
0,40,0,2
0,52,0,13
0,40,0,16
0,52,0,29
0,85,0,19
0,28,0,29
0,40,0,0
0,28,0,19
0,52,127,117
0,69,127,16
0,67,0,21
0,52,0,14
0,69,0,36
0,52,90,10
0,28,112,13
0,39,111,0
0,40,119,0
0,44,97,0
0,40,114,1
0,28,114,0
0,52,125,3
0,40,125,10
0,39,0,17
0,40,0,1
0,52,0,9
0,40,0,36
0,28,0,60
0,40,0,0
0,67,127,28
0,28,0,4
0,64,0,29
0,69,0,12
0,52,0,8
0,73,0,35
0,44,0,1
0,52,127,15
0,38,111,17
0,38,0,32
0,52,0,16
0,28,108,50
0,52,91,0
0,40,114,1
0,28,114,0
0,85,99,0
0,40,115,1
0,38,111,1
0,40,127,13
0,40,0,17
0,38,0,2
0,52,0,16
0,85,0,59
0,28,0,22
0,40,0,0
0,40,0,26
0,28,0,11
0,67,0,26
0,52,127,74
0,52,0,68
0,52,90,36
0,28,108,11
0,40,121,0
0,40,122,1
0,28,122,0
0,39,106,0
0,40,112,0
0,44,97,3
0,39,0,29
0,40,0,0
0,52,0,11
0,28,0,91
0,40,0,0
0,28,0,1
0,40,0,9
0,52,127,113
0,38,108,28
0,44,0,7
0,52,0,13
0,38,0,12
0,52,90,52
0,38,98,11
0,40,95,1
0,28,112,1
0,40,122,1
0,40,120,1
0,28,120,0
0,85,95,0
0,38,0,29
0,40,0,2
0,52,0,13
0,40,0,16
0,85,0,54
0,28,0,14
0,40,0,0
0,28,0,10
0,52,127,135
0,52,127,15
0,52,0,36
0,52,100,46
0,28,108,12
0,39,111,1
0,40,119,0
0,44,97,0
0,40,120,1
0,28,120,0
0,52,0,9
0,40,95,10
0,39,0,1
0,40,0,1
0,52,0,9
0,40,0,52
0,28,0,45
0,40,0,0
0,28,0,8
0,64,86,96
0,71,94,5
0,74,85,10
0,52,127,12
0,38,111,17
0,44,0,31
0,38,0,1
0,52,0,16
0,28,114,50
0,52,94,0
0,40,117,1
0,28,117,0
0,85,91,0
0,40,117,0
0,40,115,1
0,38,111,1
0,40,0,30
0,38,0,2
0,52,0,16
0,85,0,53
0,28,0,30
0,40,0,0
0,40,0,22
