track,note,velocity,time
1,48,112,624
1,46,119,1152
1,45,99,6
1,41,91,576
1,44,119,1
1,29,94,576
1,43,112,125
1,45,127,0
1,43,126,20
1,114,1,0
1,41,127,111
1,43,127,16
1,36,127,36
1,43,84,8
1,48,112,64
1,36,127,566
1,43,97,12
1,48,106,8
1,47,102,192
1,35,102,570
1,43,126,7
1,32,127,576
1,44,106,1
1,33,127,192
1,45,92,562
1,40,127,14
1,33,127,1
1,33,127,56
1,33,127,78
1,43,127,309
1,38,102,12
1,31,127,64
1,33,127,7
1,35,127,20
1,36,127,69
1,43,84,8
1,48,112,64
1,36,127,566
1,43,97,12
1,48,106,8
1,47,102,192
1,35,102,570
1,43,126,7
1,32,127,576
1,44,106,1
1,33,127,192
1,45,92,562
1,40,127,14
1,33,127,1
1,33,127,56
1,33,127,78
1,43,127,309
1,38,102,12
1,31,127,0
1,43,126,20
1,33,127,104
1,40,126,3
1,45,119,64
1,40,127,371
1,31,127,8
1,38,112,12
1,43,112,7
1,31,127,192
1,35,127,8
1,33,127,50
1,40,126,16
1,45,126,64
1,31,126,568
1,43,126,381
1,31,127,185
1,33,127,16
1,35,127,12
1,36,127,66
1,35,119,512
1,33,127,58
1,38,127,71
1,38,127,253
1,38,127,32
1,38,127,316
1,38,127,36
1,31,127,301
1,33,127,164
1,35,127,28
1,36,127,76
1,43,84,8
1,48,112,64
1,36,127,566
1,43,97,12
1,48,106,8
1,47,102,192
1,35,102,570
1,43,126,7
1,32,127,576
1,44,106,1
1,33,127,192
1,45,92,562
1,40,127,14
1,33,127,1
1,33,127,56
1,33,127,78
1,43,127,309
1,38,102,12
1,31,127,64
1,33,127,7
1,35,127,20
1,33,127,69
1,40,126,3
1,45,119,64
1,40,127,371
1,31,127,8
1,38,112,12
1,43,112,7
1,31,127,192
1,35,127,8
1,33,127,50
1,40,126,16
1,45,126,64
1,31,126,568
1,43,126,381
1,31,127,185
1,33,127,16
1,35,127,12
1,36,127,66
1,35,119,512
1,33,127,58
1,38,127,71
1,38,127,253
1,38,127,32
1,38,127,316
1,38,127,36
1,31,127,301
1,33,127,164
1,35,127,28
1,48,112,76
1,46,119,1152
1,45,99,6
1,41,91,576
1,44,119,1
1,29,94,576
1,43,112,125
1,45,127,0
1,43,126,20
1,41,127,111
1,43,127,16
1,36,127,36
1,36,127,0
1,48,106,1680
1,47,102,0
1,35,102,570
1,43,126,7
1,32,127,576
1,44,106,1
1,33,127,192
1,45,92,562
1,40,127,14
1,33,127,1
1,33,127,56
1,33,127,78
1,43,127,309
1,38,102,12
1,31,127,64
1,33,127,7
1,35,127,20
1,36,127,69
1,43,84,8
1,48,112,64
1,36,127,566
1,43,97,12
1,48,106,8
1,47,102,192
1,35,102,570
1,43,126,7
1,32,127,576
1,44,106,1
1,33,127,192
1,45,92,562
1,40,127,14
1,33,127,1
1,33,127,56
1,33,127,78
1,43,127,309
1,38,102,12
1,31,127,64
1,33,127,7
1,35,127,20
1,36,127,69
1,43,84,8
1,48,112,64
1,36,127,566
1,43,97,12
1,48,106,8
1,47,102,192
1,35,102,570
1,43,126,7
1,32,127,576
1,44,106,1
1,33,127,192
1,45,92,562
1,40,127,14
1,33,127,1
1,33,127,56
1,33,127,78
1,43,127,309
1,38,102,12
1,31,127,64
1,33,127,7
1,35,127,20
1,36,127,69
2,67,102,426
2,67,93,76
2,48,89,23
2,72,76,13
2,76,107,11
2,48,64,87
2,67,102,192
2,72,89,36
2,76,89,96
2,70,80,0
2,67,76,0
2,72,85,0
2,67,76,71
2,53,72,232
2,65,68,0
2,69,80,0
2,72,85,0
2,60,89,196
2,65,93,163
2,69,98,185
2,68,76,132
2,74,93,0
2,65,68,0
2,53,76,0
2,76,89,190
2,77,93,4
2,77,76,16
2,76,72,18
2,74,89,1
2,60,68,78
2,64,85,0
2,48,80,0
2,55,72,41
2,60,62,10
2,55,52,192
2,64,113,123
2,67,98,18
2,57,89,18
2,64,98,64
2,60,89,0
2,69,89,0
2,64,60,124
2,72,72,96
2,55,62,125
2,67,72,3
2,71,93,0
2,62,80,0
2,59,64,0
2,62,93,4
2,74,102,73
2,71,93,12
2,67,98,12
2,53,89,135
2,65,72,0
2,69,89,0
2,72,85,52
2,69,98,12
2,55,85,123
2,67,76,0
2,71,89,0
2,74,93,3
2,62,98,0
2,48,56,83
2,72,76,0
2,76,89,0
2,55,72,296
2,79,89,188
2,72,76,42
2,74,64,40
2,76,80,64
2,48,64,0
2,67,89,83
2,76,93,0
2,65,89,76
2,74,93,0
2,72,93,9
2,67,62,31
2,71,76,0
2,55,64,160
2,59,60,84
2,62,80,2
2,67,93,0
2,71,85,0
2,55,76,3
2,74,93,0
2,71,76,0
2,67,62,0
2,56,80,1
2,59,85,82
2,62,89,42
2,64,89,114
2,68,93,92
2,74,76,84
2,45,68,22
2,64,80,0
2,60,85,0
2,57,72,0
2,52,93,192
2,57,72,91
2,60,76,45
2,69,80,160
2,45,76,97
2,69,72,0
2,72,89,0
2,69,72,8
2,76,89,0
2,72,89,0
2,45,72,0
2,45,93,31
2,69,93,0
2,72,107,0
2,43,93,324
2,50,85,192
2,55,102,165
2,59,107,32
2,60,102,56
2,62,102,16
2,43,76,0
2,48,56,85
2,72,76,0
2,76,89,0
2,55,72,296
2,79,89,188
2,72,76,42
2,74,64,40
2,76,80,64
2,48,64,0
2,67,89,83
2,76,93,0
2,65,89,76
2,74,93,0
2,72,93,9
2,67,62,31
2,71,76,0
2,55,64,160
2,59,60,84
2,62,80,2
2,67,93,0
2,71,85,0
2,55,76,3
2,74,93,0
2,71,76,0
2,67,62,0
2,56,80,1
2,59,85,82
2,62,89,42
2,64,89,114
2,68,93,92
2,74,76,84
2,45,68,22
2,64,80,0
2,60,85,0
2,57,72,0
2,52,93,192
2,57,72,91
2,60,76,45
2,69,80,160
2,45,76,97
2,69,72,0
2,72,89,0
2,69,72,8
2,76,89,0
2,72,89,0
2,45,72,0
2,45,93,31
2,69,93,0
2,72,107,0
2,43,93,324
2,50,85,192
2,55,102,165
2,62,62,0
2,71,64,0
2,55,62,0
2,67,72,0
2,45,89,110
2,57,76,0
2,64,76,0
2,60,85,0
2,52,89,52
2,69,93,112
2,62,49,29
2,59,62,0
2,55,57,0
2,43,62,0
2,50,62,86
2,71,76,135
2,79,85,0
2,76,93,141
2,74,98,156
2,67,93,159
2,69,72,140
2,72,89,0
2,69,64,44
2,72,85,0
2,45,72,0
2,43,72,9
2,55,62,0
2,59,80,0
2,62,85,0
2,50,85,81
2,62,46,16
2,55,93,0
2,62,107,69
2,64,93,16
2,65,93,31
2,48,72,96
2,60,64,0
2,67,76,0
2,64,80,0
2,45,76,119
2,57,62,0
2,64,68,0
2,60,68,0
2,57,64,5
2,60,64,150
2,69,62,0
2,50,76,0
2,65,72,0
2,57,64,54
2,62,89,6
2,65,93,34
2,74,89,152
2,77,68,2
2,57,93,95
2,53,89,0
2,50,102,0
2,62,93,0
2,69,93,0
2,65,102,0
2,53,89,23
2,60,93,0
2,50,107,0
2,57,93,0
2,69,107,0
2,64,102,0
2,69,98,308
2,62,98,0
2,65,102,0
2,53,89,32
2,50,89,0
2,57,89,0
2,57,80,20
2,53,89,0
2,60,98,0
2,69,102,0
2,64,102,0
2,50,98,0
2,43,107,312
2,53,98,0
2,60,102,0
2,57,102,0
2,53,93,9
2,43,98,130
2,55,98,3
2,59,98,89
2,62,93,61
2,67,102,93
2,48,56,89
2,72,76,0
2,76,89,0
2,55,72,296
2,79,89,188
2,72,76,42
2,74,64,40
2,76,80,64
2,48,64,0
2,67,89,83
2,76,93,0
2,65,89,76
2,74,93,0
2,72,93,9
2,67,62,31
2,71,76,0
2,55,64,160
2,59,60,84
2,62,80,2
2,67,93,0
2,71,85,0
2,55,76,3
2,74,93,0
2,71,76,0
2,67,62,0
2,56,80,1
2,59,85,82
2,62,89,42
2,64,89,114
2,68,93,92
2,74,76,84
2,45,68,22
2,64,80,0
2,60,85,0
2,57,72,0
2,52,93,192
2,57,72,91
2,60,76,45
2,69,80,160
2,45,76,97
2,69,72,0
2,72,89,0
2,69,72,8
2,76,89,0
2,72,89,0
2,45,72,0
2,45,93,31
2,69,93,0
2,72,107,0
2,43,93,324
2,50,85,192
2,55,102,165
2,59,107,32
2,60,102,56
2,62,102,16
2,43,76,0
2,45,89,85
2,57,76,0
2,64,76,0
2,60,85,0
2,52,89,52
2,69,93,112
2,62,49,29
2,59,62,0
2,55,57,0
2,43,62,0
2,50,62,86
2,71,76,135
2,79,85,0
2,76,93,141
2,74,98,156
2,67,93,159
2,69,72,140
2,72,89,0
2,69,64,44
2,72,85,0
2,45,72,0
2,43,72,9
2,55,62,0
2,59,80,0
2,62,85,0
2,50,85,81
2,62,46,16
2,55,93,0
2,62,107,69
2,64,93,16
2,65,93,31
2,48,72,96
2,60,64,0
2,67,76,0
2,64,80,0
2,45,76,119
2,57,62,0
2,64,68,0
2,60,68,0
2,57,64,5
2,60,64,150
2,69,62,0
2,50,76,0
2,65,72,0
2,57,64,54
2,62,89,6
2,65,93,34
2,74,89,152
2,77,68,2
2,57,93,95
2,53,89,0
2,50,102,0
2,62,93,0
2,69,93,0
2,65,102,0
2,53,89,23
2,60,93,0
2,50,107,0
2,57,93,0
2,69,107,0
2,64,102,0
2,69,98,308
2,62,98,0
2,65,102,0
2,53,89,32
2,50,89,0
2,57,89,0
2,57,80,20
2,53,89,0
2,60,98,0
2,69,102,0
2,64,102,0
2,50,98,0
2,43,107,312
2,53,98,0
2,60,102,0
2,57,102,0
2,53,93,9
2,43,98,130
2,55,98,3
2,59,98,89
2,62,93,61
2,67,102,93
2,67,93,89
2,48,89,3
2,72,76,13
2,76,107,11
2,48,64,87
2,67,102,192
2,72,89,36
2,76,89,96
2,70,80,0
2,67,76,0
2,72,85,0
2,67,76,71
2,53,72,232
2,65,68,0
2,69,80,0
2,72,85,0
2,60,89,196
2,65,93,163
2,69,98,185
2,68,76,132
2,74,93,0
2,65,68,0
2,53,76,0
2,76,89,190
2,77,93,4
2,77,76,16
2,76,72,18
2,74,89,1
2,60,68,78
2,64,85,0
2,48,80,0
2,55,72,41
2,60,62,10
2,55,52,192
2,64,113,123
2,67,98,18
2,57,89,18
2,64,98,64
2,60,89,0
2,69,89,0
2,64,60,124
2,72,72,96
2,55,62,125
2,67,72,3
2,71,93,0
2,62,80,0
2,59,64,0
2,62,93,4
2,74,102,73
2,71,93,12
2,67,98,12
2,53,89,135
2,65,72,0
2,69,89,0
2,72,85,52
2,69,98,12
2,55,85,123
2,67,76,0
2,71,89,0
2,74,93,3
2,62,98,0
2,48,56,83
2,72,76,0
2,76,89,0
2,55,72,296
2,55,93,0
2,36,113,0
2,60,102,0
2,64,102,0
2,4,1,528
2,67,62,1148
2,71,76,0
2,55,64,160
2,59,60,84
2,62,80,2
2,67,93,0
2,71,85,0
2,55,76,3
2,74,93,0
2,71,76,0
2,67,62,0
2,56,80,1
2,59,85,82
2,62,89,42
2,64,89,114
2,68,93,92
2,74,76,84
2,45,68,22
2,64,80,0
2,60,85,0
2,57,72,0
2,52,93,192
2,57,72,91
2,60,76,45
2,69,80,160
2,45,76,97
2,69,72,0
2,72,89,0
2,69,72,8
2,76,89,0
2,72,89,0
2,45,72,0
2,45,93,31
2,69,93,0
2,72,107,0
2,43,93,324
2,50,85,192
2,55,102,165
2,59,107,32
2,60,102,56
2,62,102,16
2,43,76,0
2,48,56,85
2,72,76,0
2,76,89,0
2,55,72,296
2,79,89,188
2,72,76,42
2,74,64,40
2,76,80,64
2,48,64,0
2,67,89,83
2,76,93,0
2,65,89,76
2,74,93,0
2,72,93,9
2,67,62,31
2,71,76,0
2,55,64,160
2,59,60,84
2,62,80,2
2,67,93,0
2,71,85,0
2,55,76,3
2,74,93,0
2,71,76,0
2,67,62,0
2,56,80,1
2,59,85,82
2,62,89,42
2,64,89,114
2,68,93,92
2,74,76,84
2,45,68,22
2,64,80,0
2,60,85,0
2,57,72,0
2,52,93,192
2,57,72,91
2,60,76,45
2,69,80,160
2,45,76,97
2,69,72,0
2,72,89,0
2,69,72,8
2,76,89,0
2,72,89,0
2,45,72,0
2,45,93,31
2,69,93,0
2,72,107,0
2,43,93,324
2,50,85,192
2,55,102,165
2,59,107,32
2,60,102,56
2,62,102,16
2,43,76,0
2,48,56,85
2,72,76,0
2,76,89,0
2,55,72,296
2,79,89,188
2,72,76,42
2,74,64,40
2,76,80,64
2,48,64,0
2,67,89,83
2,76,93,0
2,65,89,76
2,74,93,0
2,72,93,9
2,67,62,31
2,71,76,0
2,55,64,160
2,59,60,84
2,62,80,2
2,67,93,0
2,71,85,0
2,55,76,3
2,74,93,0
2,71,76,0
2,67,62,0
2,56,80,1
2,59,85,82
2,62,89,42
2,64,89,114
2,68,93,92
2,74,76,84
2,45,68,22
2,64,80,0
2,60,85,0
2,57,72,0
2,52,93,192
2,57,72,91
2,60,76,45
2,69,80,160
2,45,76,97
2,69,72,0
2,72,89,0
2,69,72,8
2,76,89,0
2,72,89,0
2,45,72,0
2,45,93,31
2,69,93,0
2,72,107,0
2,43,93,324
2,50,85,192
2,55,102,165
2,59,107,32
2,60,102,56
2,62,102,16
2,43,76,0
2,36,64,32
2,55,76,0
2,60,89,0
2,64,85,0
3,45,93,9456
3,47,93,192
3,48,93,28
3,55,56,32
3,60,76,0
3,64,72,0
3,55,42,531
3,48,53,0
3,64,42,0
3,60,41,0
3,62,44,398
3,43,46,0
3,67,48,192
3,71,76,192
3,44,68,46
3,56,76,192
3,44,62,178
3,45,68,22
3,57,49,192
3,60,51,192
3,64,60,192
3,57,42,7
3,64,55,0
3,60,47,0
3,45,50,0
3,57,51,136
3,60,64,0
3,45,85,0
3,64,85,0
3,43,72,341
3,55,76,12
3,43,68,0
3,57,76,8
3,45,62,0
3,59,85,192
3,47,68,0
3,48,93,52
3,55,56,32
3,60,76,0
3,64,72,0
3,55,42,531
3,48,53,0
3,64,42,0
3,60,41,0
3,62,44,398
3,43,46,0
3,67,48,192
3,71,76,192
3,44,68,46
3,56,76,192
3,44,62,178
3,45,68,22
3,57,49,192
3,60,51,192
3,64,60,192
3,57,42,7
3,64,55,0
3,60,47,0
3,45,50,0
3,57,51,136
3,60,64,0
3,45,85,0
3,64,85,0
3,43,72,341
3,43,60,7
3,55,68,192
3,57,62,112
3,45,60,0
3,60,72,0
3,55,50,227
3,59,50,0
3,57,55,188
3,60,62,0
3,55,51,173
3,59,57,0
3,43,68,11
3,48,55,356
3,55,62,192
3,60,76,7
3,45,76,157
3,57,55,171
3,50,72,23
3,62,55,28
3,65,60,65
3,69,60,49
3,65,56,85
3,62,64,136
3,50,80,92
3,62,89,0
3,65,93,0
3,62,80,359
3,50,85,0
3,65,85,0
3,43,89,364
3,55,93,0
3,55,93,140
3,57,80,17
3,59,85,18
3,48,93,94
3,55,56,32
3,60,76,0
3,64,72,0
3,55,42,531
3,48,53,0
3,64,42,0
3,60,41,0
3,62,44,398
3,43,46,0
3,67,48,192
3,71,76,192
3,44,68,46
3,56,76,192
3,44,62,178
3,45,68,22
3,57,49,192
3,60,51,192
3,64,60,192
3,57,42,7
3,64,55,0
3,60,47,0
3,45,50,0
3,57,51,136
3,60,64,0
3,45,85,0
3,64,85,0
3,43,72,341
3,55,76,12
3,43,68,0
3,57,76,8
3,45,62,0
3,59,85,192
3,47,68,0
3,57,62,52
3,45,60,0
3,60,72,0
3,55,50,227
3,59,50,0
3,57,55,188
3,60,62,0
3,55,51,173
3,59,57,0
3,43,68,11
3,48,55,356
3,55,62,192
3,60,76,7
3,45,76,157
3,57,55,171
3,50,72,23
3,62,55,28
3,65,60,65
3,69,60,49
3,65,56,85
3,62,64,136
3,50,80,92
3,62,89,0
3,65,93,0
3,62,80,359
3,50,85,0
3,65,85,0
3,43,89,364
3,55,93,0
3,55,93,140
3,57,80,17
3,59,85,18
3,45,93,8926
3,47,93,192
3,48,93,28
3,60,102,32
