track,note,velocity,time
0,52,80,2188
0,43,85,0
0,64,85,0
0,67,85,0
0,67,70,0
0,43,85,0
0,64,55,0
0,35,45,0
0,59,35,0
0,67,55,38
0,67,70,1
0,64,85,15
0,67,85,0
0,71,85,0
0,71,55,0
0,38,30,0
0,59,25,0
0,64,55,56
0,59,25,0
0,67,70,5
0,47,85,11
0,64,85,0
0,67,85,0
0,71,85,0
0,47,85,0
0,67,55,0
0,35,45,0
0,59,35,0
0,71,55,52
0,67,70,8
0,64,85,8
0,67,85,0
0,71,85,0
0,64,55,0
0,38,30,0
0,59,25,0
0,67,70,57
0,67,55,23
0,59,25,0
0,52,85,16
0,64,85,0
0,67,85,0
0,71,85,0
0,52,85,0
0,71,55,0
0,35,45,0
0,59,35,0
0,64,70,80
0,64,55,0
0,66,70,28
0,64,85,11
0,67,85,0
0,71,85,0
0,71,70,0
0,67,55,0
0,38,30,0
0,59,25,0
0,52,85,36
0,52,85,0
0,71,55,0
0,59,25,0
0,64,70,8
0,47,85,8
0,64,85,0
0,67,85,0
0,71,85,0
0,69,70,0
0,47,85,0
0,64,55,0
0,35,45,0
0,59,35,0
0,52,85,51
0,52,85,0
0,67,55,0
0,38,30,0
0,67,70,16
0,43,85,14
0,64,85,0
0,67,85,0
0,71,85,0
0,67,70,0
0,43,85,0
0,71,55,0
0,38,30,0
0,59,25,0
0,45,85,23
0,45,85,0
0,59,25,0
0,66,70,20
0,47,85,16
0,62,85,0
0,66,85,0
0,69,85,0
0,69,70,0
0,47,85,0
0,62,55,0
0,35,45,0
0,59,35,0
0,66,55,80
0,62,85,16
0,66,85,0
0,69,85,0
0,69,55,0
0,38,30,0
0,59,25,0
0,69,70,27
0,62,55,0
0,59,25,0
0,62,70,4
0,42,85,4
0,62,85,0
0,66,85,0
0,69,85,0
0,42,85,0
0,66,55,0
0,35,45,0
0,59,35,0
0,69,70,80
0,69,55,0
0,62,85,16
0,66,85,0
0,69,85,0
0,66,70,0
0,62,55,0
0,38,30,0
0,59,25,0
0,66,55,36
0,59,25,0
0,59,70,2
0,47,85,14
0,62,85,0
0,66,85,0
0,69,85,0
0,47,85,0
0,69,55,0
0,35,45,0
0,59,35,0
0,64,70,80
0,62,55,0
0,62,85,14
0,66,85,0
0,69,85,0
0,66,70,0
0,66,55,0
0,38,30,0
0,59,25,0
0,54,70,40
0,69,55,24
0,59,25,0
0,42,85,16
0,62,85,0
0,66,85,0
0,69,85,0
0,69,70,0
0,42,85,0
0,62,55,0
0,35,45,0
0,59,35,0
0,42,85,80
0,42,85,0
0,66,55,0
0,38,30,0
0,45,85,16
0,62,85,0
0,66,85,0
0,69,85,0
0,71,70,0
0,45,85,0
0,69,55,0
0,38,30,0
0,59,25,0
0,47,85,56
0,47,85,0
0,59,25,0
0,52,70,9
0,48,85,7
0,64,85,0
0,67,85,0
0,72,85,0
0,74,70,0
0,48,85,0
0,60,55,0
0,35,45,0
0,59,35,0
0,64,55,80
0,55,70,5
0,64,85,11
0,67,85,0
0,72,85,0
0,67,55,0
0,38,30,0
0,59,25,0
0,76,70,14
0,60,55,0
0,59,25,0
0,55,70,13
0,43,85,3
0,64,85,0
0,67,85,0
0,72,85,0
0,43,85,0
0,64,55,0
0,35,45,0
0,59,35,0
0,67,55,80
0,64,85,16
0,67,85,0
0,72,85,0
0,60,55,0
0,38,30,0
0,59,25,0
0,57,70,0
0,59,70,22
0,64,55,14
0,59,25,0
0,48,85,16
0,64,85,0
0,67,85,0
0,72,85,0
0,48,85,0
0,67,55,0
0,35,45,0
0,59,35,0
0,64,70,64
0,60,55,0
0,64,85,16
0,67,85,0
0,72,85,0
0,67,70,0
0,64,55,0
0,38,30,0
0,59,25,0
0,57,70,0
0,67,55,64
0,59,25,0
0,55,70,0
0,43,85,16
0,64,85,0
0,67,85,0
0,72,85,0
0,69,70,0
0,43,85,0
0,60,55,0
0,35,45,0
0,59,35,0
0,40,85,80
0,40,85,0
0,64,55,0
0,38,30,0
0,57,70,10
0,43,85,4
0,64,85,0
0,67,85,0
0,72,85,0
0,71,70,0
0,43,85,0
0,67,55,0
0,38,30,0
0,59,25,0
0,45,85,76
0,45,85,0
0,59,25,0
0,43,85,16
0,67,85,0
0,71,85,0
0,74,85,0
0,67,70,0
0,43,85,0
0,59,55,0
0,35,45,0
0,59,35,0
0,62,55,80
0,55,70,14
0,67,85,2
0,71,85,0
0,74,85,0
0,67,55,0
0,38,30,0
0,59,25,0
0,67,70,74
0,59,55,0
0,59,25,0
0,38,85,16
0,67,85,0
0,71,85,0
0,74,85,0
0,38,85,0
0,62,55,0
0,35,45,0
0,59,35,0
0,62,70,80
0,67,55,0
0,67,85,16
0,71,85,0
0,74,85,0
0,59,70,0
0,59,55,0
0,38,30,0
0,59,25,0
0,59,70,59
0,62,55,0
0,59,25,0
0,43,85,15
0,67,85,0
0,71,85,0
0,74,85,0
0,59,70,0
0,43,85,0
0,67,55,0
0,35,90,0
0,59,35,0
0,59,55,38
0,67,85,16
0,71,85,0
0,74,85,0
0,59,70,0
0,62,55,0
0,38,30,0
0,42,110,0
0,54,55,0
0,59,25,0
0,62,70,50
0,67,55,0
0,35,90,0
0,59,25,0
0,38,85,2
0,67,85,0
0,71,85,0
0,74,85,0
0,38,85,0
0,59,55,0
0,35,90,0
0,59,35,0
0,59,70,80
0,64,70,0
0,62,55,0
0,38,30,0
0,67,85,7
0,71,85,0
0,74,85,0
0,67,70,0
0,67,55,0
0,38,30,0
0,42,110,0
0,54,55,0
0,59,25,0
0,35,90,30
0,59,25,0
0,64,105,40
0,67,105,0
0,71,105,0
0,40,115,0
0,59,90,0
0,67,110,0
0,71,90,0
0,35,90,0
0,42,65,0
0,64,105,144
0,67,105,0
0,71,105,0
0,42,110,0
0,64,105,144
0,67,105,0
0,71,105,0
0,40,110,0
0,42,65,0
0,64,105,136
0,67,105,0
0,71,105,0
0,42,110,0
0,40,115,80
0,35,90,0
0,64,105,36
0,67,105,0
0,71,105,0
0,40,115,0
0,35,90,0
0,42,65,0
0,64,105,96
0,67,105,0
0,71,105,0
0,35,90,0
0,42,110,0
0,64,105,107
0,67,105,0
0,71,105,0
0,33,115,0
0,59,90,0
0,67,110,0
0,71,90,0
0,40,110,0
0,42,65,0
0,28,105,80
0,28,105,32
0,64,105,0
0,67,105,0
0,71,105,0
0,42,110,0
0,33,105,32
0,35,90,0
0,35,105,0
0,62,105,0
0,66,105,0
0,69,105,0
0,35,115,0
0,57,90,0
0,66,110,0
0,69,90,0
0,35,90,0
0,42,65,0
0,62,105,96
0,66,105,0
0,69,105,0
0,42,110,0
0,62,105,144
0,66,105,0
0,69,105,0
0,40,110,0
0,42,65,0
0,62,105,144
0,66,105,0
0,69,105,0
0,42,110,0
0,35,115,80
0,35,90,0
0,62,105,0
0,66,105,0
0,69,105,0
0,35,115,0
0,35,90,0
0,42,65,0
0,62,105,144
0,66,105,0
0,69,105,0
0,35,90,0
0,42,110,0
0,62,105,127
0,66,105,0
0,69,105,0
0,38,115,0
0,57,90,0
0,66,110,0
0,69,90,0
0,40,110,0
0,42,65,0
0,42,105,80
0,42,105,38
0,62,105,0
0,66,105,0
0,69,105,0
0,42,110,0
0,35,105,46
0,36,105,0
0,64,105,0
0,67,105,0
0,72,105,0
0,36,115,0
0,55,90,0
0,64,110,0
0,67,90,0
0,35,90,0
0,42,65,0
0,64,105,110
0,67,105,0
0,72,105,0
0,42,110,0
0,64,105,144
0,67,105,0
0,72,105,0
0,40,110,0
0,42,65,0
0,64,105,144
0,67,105,0
0,72,105,0
0,42,110,0
0,36,115,80
0,35,90,0
0,64,105,32
0,67,105,0
0,72,105,0
0,36,115,0
0,35,90,0
0,42,65,0
0,64,105,96
0,67,105,0
0,72,105,0
0,35,90,0
0,42,110,0
0,64,105,118
0,67,105,0
0,72,105,0
0,36,115,0
0,55,90,0
0,64,110,0
0,67,90,0
0,40,110,0
0,42,65,0
0,28,105,80
0,28,105,24
0,64,105,0
0,67,105,0
0,72,105,0
0,42,110,0
0,35,105,43
0,35,90,0
0,43,105,0
0,50,105,0
0,31,115,0
0,59,90,0
0,35,90,0
0,62,110,168
0,40,110,192
0,42,65,0
0,55,110,104
0,57,110,64
0,42,110,0
0,59,110,2
0,35,90,0
0,36,119,40
0,60,110,0
0,35,90,0
0,42,65,0
0,60,110,14
0,42,110,64
0,60,110,74
0,40,110,64
0,42,65,0
0,60,110,78
0,42,110,64
0,60,110,70
0,35,90,0
0,35,90,40
0,42,65,0
0,59,110,153
0,35,90,4
0,42,110,0
0,57,110,102
0,40,110,18
0,42,65,0
0,36,125,104
0,60,110,28
0,38,103,6
0,42,110,0
0,35,90,15
0,59,110,20
0,31,105,7
0,35,90,0
0,42,65,0
0,42,110,168
0,55,110,17
0,40,110,15
0,42,65,0
0,42,110,168
0,35,90,104
0,35,90,40
0,42,65,0
0,35,90,4
0,42,110,0
0,40,110,168
0,42,65,0
0,55,110,84
0,43,109,20
0,57,110,33
0,42,110,28
0,60,110,14
0,36,111,22
0,35,90,0
0,42,65,0
0,60,110,32
0,42,110,20
0,60,110,35
0,40,110,8
0,42,65,0
0,60,110,68
0,42,110,100
0,60,110,55
0,35,90,44
0,35,90,40
0,42,65,0
0,59,110,101
0,35,90,22
0,42,110,0
0,57,110,43
0,40,110,16
0,42,65,0
0,36,115,104
0,55,110,13
0,38,103,0
0,42,110,0
0,35,90,104
0,62,110,13
0,31,103,3
0,35,90,0
0,42,65,0
0,42,110,168
0,40,110,11
0,42,65,0
0,42,110,46
0,35,90,104
0,31,113,40
0,35,90,0
0,42,65,0
0,40,75,104
0,35,90,40
0,42,110,0
0,30,106,19
0,40,110,0
0,42,65,0
0,64,110,157
0,42,110,11
0,66,110,4
0,67,110,28
0,40,115,19
0,35,90,0
0,42,65,0
0,67,110,54
0,42,110,8
0,67,110,56
0,40,110,7
0,42,65,0
0,67,110,17
0,42,110,86
0,67,110,72
0,35,90,32
0,35,90,40
0,42,65,0
0,67,110,64
0,35,90,90
0,42,110,0
0,69,110,81
0,40,110,86
0,42,65,0
0,71,110,21
0,40,111,26
0,33,105,64
0,42,110,0
0,35,90,44
0,66,110,2
0,35,105,12
0,35,90,0
0,42,65,0
0,64,110,58
0,62,110,9
0,42,110,18
0,40,110,168
0,42,65,0
0,42,110,128
0,35,90,104
0,35,90,40
0,42,65,0
0,35,90,168
0,42,110,0
0,40,110,168
0,42,65,0
0,35,107,104
0,62,110,52
0,42,110,12
0,60,110,0
0,36,117,4
0,35,90,0
0,42,65,0
0,60,110,37
0,42,110,18
0,60,110,49
0,40,110,2
0,42,65,0
0,60,110,29
0,42,110,103
0,60,110,39
0,35,90,40
0,35,90,40
0,42,65,0
0,59,110,108
0,35,90,16
0,42,110,0
0,57,110,20
0,40,110,16
0,42,65,0
0,38,117,104
0,55,110,15
0,42,110,23
0,35,90,35
0,55,110,28
0,31,103,12
0,35,90,0
0,42,65,0
0,42,110,168
0,40,110,168
0,42,65,0
0,42,110,123
0,35,90,104
0,35,90,40
0,42,65,0
0,40,75,104
0,35,90,40
0,42,110,0
0,40,110,168
0,42,65,0
0,55,110,93
0,57,110,55
0,42,110,19
0,59,110,80
0,60,110,53
0,48,85,8
0,52,85,0
0,64,105,0
0,67,105,0
0,72,105,0
0,36,119,0
0,35,90,0
0,42,65,0
0,57,50,0
0,60,110,29
0,64,105,30
0,67,105,0
0,72,105,0
0,42,110,0
0,60,110,30
0,64,105,114
0,67,105,0
0,72,105,0
0,40,110,0
0,42,65,0
0,60,110,41
0,64,105,88
0,67,105,0
0,72,105,0
0,42,110,0
0,60,110,28
0,35,90,52
0,64,105,40
0,67,105,0
0,72,105,0
0,35,90,0
0,42,65,0
0,59,110,11
0,64,105,11
0,67,105,0
0,72,105,0
0,35,90,0
0,42,110,0
0,57,110,65
0,64,105,6
0,67,105,0
0,72,105,0
0,40,110,0
0,42,65,0
0,64,105,4
0,67,105,0
0,72,105,0
0,36,125,0
0,71,110,45
0,66,105,6
0,69,105,0
0,74,105,0
0,38,103,0
0,42,110,0
0,67,105,80
0,71,105,0
0,76,105,0
0,35,90,0
0,59,110,14
0,62,110,7
0,67,105,7
0,71,105,0
0,74,105,0
0,31,105,0
0,35,90,0
0,42,65,0
0,67,105,144
0,71,105,0
0,74,105,0
0,42,110,0
0,57,110,8
0,60,110,16
0,55,110,12
0,59,110,2
0,67,105,22
0,71,105,0
0,74,105,0
0,40,110,0
0,42,65,0
0,67,105,144
0,71,105,0
0,74,105,0
0,42,110,0
0,35,90,80
0,67,105,40
0,71,105,0
0,74,105,0
0,35,90,0
0,42,65,0
0,67,105,32
0,71,105,0
0,74,105,0
0,35,90,0
0,42,110,0
0,67,105,144
0,71,105,0
0,74,105,0
0,40,110,0
0,42,65,0
0,55,110,58
0,67,105,22
0,71,105,0
0,74,105,0
0,43,109,0
0,57,110,40
0,67,105,16
0,71,105,0
0,74,105,0
0,42,110,0
0,69,105,80
0,72,105,0
0,76,105,0
0,60,110,1
0,64,105,15
0,67,105,0
0,72,105,0
0,36,111,0
0,35,90,0
0,42,65,0
0,60,110,43
0,64,105,16
0,67,105,0
0,72,105,0
0,42,110,0
0,60,110,40
0,64,105,8
0,67,105,0
0,72,105,0
0,40,110,0
0,42,65,0
0,60,110,42
0,64,105,102
0,67,105,0
0,72,105,0
0,42,110,0
0,60,110,29
0,35,90,51
0,64,105,40
0,67,105,0
0,72,105,0
0,35,90,0
0,42,65,0
0,60,110,116
0,64,105,20
0,67,105,0
0,72,105,0
0,35,90,0
0,42,110,0
0,64,110,14
0,64,105,16
0,67,105,0
0,72,105,0
0,40,110,0
0,42,65,0
0,64,105,80
0,67,105,0
0,72,105,0
0,36,115,0
0,62,110,14
0,66,105,0
0,69,105,0
0,74,105,0
0,38,103,0
0,42,110,0
0,62,110,28
0,67,105,28
0,71,105,0
0,76,105,0
0,35,90,0
0,67,105,3
0,71,105,0
0,74,105,0
0,31,103,0
0,35,90,0
0,42,65,0
0,67,105,144
0,71,105,0
0,74,105,0
0,42,110,0
0,67,105,11
0,71,105,0
0,74,105,0
0,40,110,0
0,42,65,0
0,67,105,144
0,71,105,0
0,74,105,0
0,42,110,0
0,35,90,3
0,67,105,40
0,71,105,0
0,74,105,0
0,31,113,0
0,35,90,0
0,42,65,0
0,40,75,80
0,67,105,40
0,71,105,0
0,74,105,0
0,35,90,0
0,42,110,0
0,66,105,19
0,67,105,0
0,69,105,0
0,71,105,0
0,74,105,0
0,30,106,0
0,40,110,0
0,42,65,0
0,64,110,60
0,66,110,70
0,66,105,12
0,69,105,0
0,74,105,0
0,42,110,0
0,71,110,28
0,67,110,6
0,64,105,16
0,67,105,0
0,71,105,0
0,40,115,0
0,35,90,0
0,42,65,0
0,64,110,0
0,67,110,8
0,64,105,15
0,67,105,0
0,71,105,0
0,42,110,0
0,71,110,7
0,67,110,7
0,64,105,96
0,67,105,0
0,71,105,0
0,40,110,0
0,42,65,0
0,67,110,1
0,64,110,2
0,64,105,20
0,67,105,0
0,71,105,0
0,42,110,0
0,67,110,2
0,71,110,0
0,35,90,44
0,64,105,40
0,67,105,0
0,71,105,0
0,35,90,0
0,42,65,0
0,67,110,97
0,71,110,7
0,64,105,4
0,67,105,0
0,71,105,0
0,35,90,0
0,42,110,0
0,72,110,3
0,69,110,0
0,64,105,12
0,67,105,0
0,71,105,0
0,40,110,0
0,42,65,0
0,40,105,80
0,40,111,0
0,71,110,10
0,74,110,0
0,45,105,14
0,64,105,0
0,67,105,0
0,71,105,0
0,33,105,0
0,42,110,0
0,45,105,39
0,35,90,0
0,66,110,0
0,69,110,2
0,47,105,12
0,62,105,0
0,66,105,0
0,69,105,0
0,35,105,0
0,35,90,0
0,42,65,0
0,62,105,144
0,66,105,0
0,69,105,0
0,42,110,0
0,67,110,35
0,64,110,5
0,57,110,66
0,62,105,0
0,66,105,0
0,69,105,0
0,66,110,0
0,40,110,0
