track,note,velocity,time
1,62,100,3072
1,65,100,0
1,58,100,0
1,63,100,0
1,67,100,0
1,65,100,0
1,58,100,0
1,62,100,0
1,58,100,0
1,65,100,0
1,63,100,0
1,65,100,0
1,58,100,0
1,67,100,0
1,70,100,0
1,62,100,0
1,65,100,0
1,70,100,2
1,70,100,94
1,72,100,2
1,74,100,0
1,72,100,574
1,70,100,4
1,67,100,0
1,65,100,0
1,72,100,0
1,74,100,4
1,70,100,6
1,70,100,4
1,62,100,0
1,65,100,0
1,70,100,2
1,70,100,94
1,72,100,2
1,74,100,0
1,70,100,286
1,70,100,4
1,77,100,4
1,77,100,0
1,70,100,0
1,67,100,0
1,75,100,478
1,74,100,4
1,72,100,2
1,70,100,4
1,62,100,0
1,65,100,0
1,70,100,2
1,70,100,94
1,72,100,2
1,74,100,0
1,72,100,286
1,70,100,4
1,65,100,0
1,67,100,0
1,72,100,0
1,74,100,4
1,70,100,6
1,65,100,6
1,58,100,2
1,65,100,0
1,67,100,0
1,75,100,2
1,70,100,4
1,70,100,4
1,67,100,0
1,77,100,386
1,75,100,4
1,74,100,2
1,72,100,4
1,70,100,4
1,70,100,4
1,74,100,4
1,70,100,0
1,65,100,0
1,74,100,0
1,72,100,198
1,74,100,4
1,65,100,0
1,69,100,0
1,72,100,6
1,70,100,2
1,67,100,0
1,77,100,386
1,75,100,4
1,74,100,2
1,72,100,4
1,70,100,4
1,74,100,0
1,79,100,0
1,79,100,6
1,79,100,2
1,77,100,6
1,77,100,6
1,69,100,6
1,72,100,0
1,63,100,2
1,58,100,0
1,67,100,194
1,70,100,2
1,70,100,6
1,70,100,4
1,72,100,6
1,60,100,6
1,65,100,0
1,69,100,0
1,67,100,4
1,62,100,2
1,65,100,6
1,62,100,4
1,70,100,4
1,62,100,0
1,72,100,2
1,69,100,2
1,67,100,4
1,65,100,4
1,62,100,0
1,58,100,0
1,70,100,6
1,62,100,0
1,65,100,0
1,72,100,2
1,70,100,4
1,74,100,4
1,67,100,2
1,63,100,0
1,72,100,8
1,70,100,2
1,70,100,386
1,72,100,4
1,74,100,4
1,74,100,8
1,74,100,0
1,72,100,2
1,72,100,8
1,65,100,192
1,69,100,0
1,62,100,2
1,58,100,0
1,65,100,6
1,62,100,4
1,70,100,4
1,62,100,0
1,72,100,2
1,69,100,2
1,67,100,4
1,62,100,4
1,58,100,0
1,65,100,0
1,65,100,104
1,70,100,2
1,62,100,0
1,65,100,0
1,72,100,2
1,70,100,4
1,74,100,4
1,67,100,2
1,63,100,0
1,72,100,8
1,70,100,2
1,70,100,194
1,72,100,4
1,65,100,4
1,70,100,0
1,74,100,0
1,74,100,6
1,74,100,2
1,72,100,2
1,72,100,10
1,65,100,6
1,69,100,0
1,65,100,2
1,60,100,0
1,69,100,0
1,69,100,8
1,69,100,2
1,69,100,2
1,69,100,6
1,70,100,4
1,67,100,6
1,58,100,6
1,62,100,0
1,69,100,2
1,65,100,0
1,60,100,0
1,69,100,4
1,65,100,0
1,60,100,0
1,70,100,6
1,67,100,0
1,62,100,0
1,70,100,194
1,62,100,0
1,65,100,0
1,70,100,2
1,70,100,94
1,72,100,2
1,74,100,0
1,72,100,574
1,70,100,4
1,67,100,0
1,65,100,0
1,72,100,0
1,74,100,4
1,70,100,6
1,70,100,4
1,62,100,0
1,65,100,0
1,70,100,2
1,70,100,94
1,72,100,2
1,74,100,0
1,70,100,286
1,70,100,4
1,77,100,4
1,77,100,0
1,70,100,0
1,67,100,0
1,75,100,478
1,74,100,4
1,72,100,2
1,70,100,4
1,62,100,0
1,65,100,0
1,70,100,2
1,70,100,94
1,72,100,2
1,74,100,0
1,72,100,286
1,70,100,4
1,65,100,0
1,67,100,0
1,72,100,0
1,74,100,4
1,70,100,6
1,65,100,6
1,58,100,2
1,65,100,0
1,67,100,0
1,75,100,2
1,70,100,4
1,70,100,4
1,67,100,0
1,77,100,386
1,75,100,4
1,74,100,2
1,72,100,4
1,74,100,4
1,70,100,0
1,65,100,0
1,72,100,578
1,74,100,4
1,65,100,0
1,69,100,0
1,72,100,6
1,70,100,2
1,67,100,0
1,77,100,386
1,75,100,4
1,74,100,2
1,72,100,4
1,70,100,4
1,74,100,0
1,79,100,0
1,79,100,6
1,79,100,2
1,77,100,6
1,77,100,6
1,69,100,6
1,72,100,0
1,63,100,2
1,58,100,0
1,67,100,194
1,70,100,2
1,70,100,6
1,70,100,4
1,72,100,6
1,60,100,6
1,65,100,0
1,69,100,0
1,67,100,4
1,62,100,2
1,65,100,6
1,62,100,4
1,70,100,4
1,62,100,0
1,72,100,2
1,69,100,2
1,67,100,4
1,65,100,4
1,62,100,0
1,58,100,0
1,70,100,6
1,62,100,0
1,65,100,0
1,72,100,2
1,70,100,4
1,74,100,4
1,67,100,2
1,63,100,0
1,72,100,8
1,70,100,2
1,70,100,386
1,72,100,4
1,74,100,4
1,74,100,8
1,74,100,0
1,72,100,2
1,72,100,8
1,65,100,192
1,69,100,0
1,62,100,2
1,58,100,0
1,65,100,6
1,62,100,4
1,70,100,4
1,62,100,0
1,72,100,2
1,69,100,2
1,67,100,4
1,62,100,4
1,58,100,0
1,65,100,0
1,65,100,104
1,70,100,2
1,62,100,0
1,65,100,0
1,72,100,2
1,70,100,4
1,74,100,4
1,67,100,2
1,63,100,0
1,72,100,8
1,70,100,2
1,70,100,194
1,72,100,4
1,65,100,4
1,70,100,0
1,74,100,0
1,74,100,6
1,74,100,2
1,72,100,2
1,72,100,10
1,65,100,6
1,69,100,0
1,65,100,2
1,60,100,0
1,69,100,0
1,69,100,8
1,69,100,2
1,69,100,2
1,69,100,6
1,70,100,4
1,67,100,6
1,58,100,6
1,62,100,0
1,69,100,2
1,65,100,0
1,60,100,0
1,69,100,4
1,65,100,0
1,60,100,0
1,70,100,6
1,67,100,0
1,62,100,0
1,62,100,6338
1,58,100,0
1,62,100,100
1,65,100,2
1,65,100,4
1,62,100,4
1,65,100,6
1,62,100,4
1,65,100,0
1,62,100,4
1,65,100,4
1,67,100,4
1,62,100,4
1,58,100,0
1,70,100,194
1,70,100,4
1,70,100,4
1,69,100,6
1,67,100,2
1,57,100,0
1,60,100,0
1,65,100,6
1,67,100,0
1,58,100,2
1,55,100,0
1,65,100,194
1,65,100,4
1,65,100,4
1,62,100,4
1,65,100,6
1,62,100,0
1,65,100,4
1,62,100,4
1,65,100,4
1,67,100,4
1,62,100,4
1,58,100,0
1,67,100,6
1,70,100,2
1,70,100,6
1,70,100,4
1,70,100,6
1,65,100,2
1,72,100,0
1,69,100,0
1,63,100,2
1,58,100,0
1,55,100,0
1,65,100,6
1,60,100,0
1,57,100,0
1,63,100,194
1,58,100,0
1,55,100,0
1,63,100,4
1,58,100,0
1,55,100,0
1,57,100,104
1,60,100,0
1,65,100,0
1,62,100,864
1,65,100,6
1,62,100,4
1,70,100,4
1,62,100,0
1,72,100,2
1,69,100,2
1,67,100,4
1,65,100,4
1,62,100,0
1,58,100,0
1,70,100,6
1,62,100,0
1,65,100,0
1,72,100,2
1,70,100,4
1,74,100,4
1,67,100,2
1,63,100,0
1,72,100,8
1,70,100,2
1,70,100,386
1,72,100,4
1,74,100,4
1,74,100,8
1,74,100,0
1,72,100,2
1,72,100,8
1,65,100,192
1,69,100,0
1,62,100,2
1,58,100,0
1,65,100,6
1,62,100,4
1,70,100,4
1,62,100,0
1,72,100,2
1,69,100,2
1,67,100,4
1,62,100,4
1,58,100,0
1,65,100,0
1,65,100,104
1,70,100,2
1,62,100,0
1,65,100,0
1,72,100,2
1,70,100,4
1,74,100,4
1,67,100,2
1,63,100,0
1,72,100,8
1,70,100,2
1,70,100,194
1,72,100,4
1,65,100,4
1,70,100,0
1,74,100,0
1,74,100,6
1,74,100,2
1,72,100,2
1,72,100,10
1,65,100,6
1,69,100,0
1,65,100,2
1,60,100,0
1,69,100,0
1,69,100,8
1,69,100,2
1,69,100,2
1,69,100,6
1,70,100,4
1,67,100,6
1,58,100,6
1,62,100,0
1,69,100,2
1,65,100,0
1,60,100,0
1,69,100,4
1,65,100,0
1,60,100,0
1,70,100,6
1,67,100,0
1,62,100,0
2,46,100,3072
2,39,100,0
2,51,100,0
2,46,100,0
2,39,100,0
2,51,100,0
2,53,100,0
2,46,100,0
2,51,100,4
2,39,100,0
2,46,100,4
2,39,100,0
2,51,100,0
2,46,100,0
2,51,100,0
2,39,100,0
2,51,100,196
2,46,100,4
2,51,100,4
2,39,100,0
2,53,100,4
2,41,100,0
2,51,100,4
2,39,100,0
2,39,100,4
2,46,100,4
2,39,100,4
2,53,100,4
2,41,100,0
2,53,100,6
2,41,100,0
2,41,100,4
2,53,100,0
2,55,100,2
2,43,100,0
2,45,100,6
2,57,100,0
2,41,100,574
2,46,100,2
2,46,100,6
2,43,100,2
2,43,100,6
2,41,100,2
2,39,100,4
2,39,100,6
2,41,100,2
2,41,100,198
2,48,100,2
2,41,100,4
2,46,100,4
2,46,100,6
2,46,100,2
2,45,100,4
2,43,100,4
2,43,100,6
2,41,100,2
2,39,100,4
2,39,100,6
2,46,100,574
2,41,100,2
2,41,100,6
2,41,100,4
2,43,100,194
2,43,100,104
2,43,100,2
2,38,100,2
2,41,100,4
2,43,100,4
2,43,100,104
2,43,100,2
2,46,100,2
2,51,100,4
2,39,100,0
2,46,100,4
2,39,100,0
2,51,100,0
2,46,100,0
2,51,100,0
2,39,100,0
2,51,100,196
2,46,100,4
2,51,100,4
2,39,100,0
2,53,100,4
2,41,100,0
2,51,100,4
2,39,100,0
2,39,100,4
2,46,100,4
2,39,100,4
2,53,100,4
2,41,100,0
2,53,100,6
2,41,100,0
2,41,100,4
2,53,100,0
2,55,100,2
2,43,100,0
2,45,100,6
2,57,100,0
2,41,100,574
2,46,100,2
2,46,100,6
2,43,100,2
2,43,100,6
2,41,100,2
2,39,100,4
2,39,100,6
2,41,100,2
2,41,100,198
2,48,100,2
2,41,100,4
2,46,100,4
2,46,100,6
2,46,100,2
2,45,100,4
2,43,100,4
2,43,100,6
2,41,100,2
2,39,100,4
2,39,100,6
2,46,100,574
2,41,100,2
2,41,100,6
2,41,100,4
2,43,100,194
2,43,100,104
2,43,100,2
2,38,100,2
2,41,100,4
2,43,100,4
2,43,100,104
2,43,100,2
2,41,100,6146
2,39,100,6
2,43,100,2
2,41,100,4
2,41,100,104
2,41,100,2
2,53,100,2
2,48,100,4
2,43,100,4
2,41,100,4
2,39,100,4
2,39,100,196
2,43,100,4
2,46,100,4
2,41,100,4
2,41,100,6
2,43,100,2
2,45,100,6
2,43,100,194
2,41,100,4
2,43,100,4
2,43,100,4
2,45,100,104
2,46,100,864
2,46,100,6
2,43,100,2
2,43,100,6
2,41,100,2
2,39,100,4
2,39,100,6
2,41,100,2
2,41,100,198
2,48,100,2
2,41,100,4
2,46,100,4
2,46,100,6
2,46,100,2
2,45,100,4
2,43,100,4
2,43,100,6
2,41,100,2
2,39,100,4
2,39,100,6
2,46,100,574
2,41,100,2
2,41,100,6
2,41,100,4
2,43,100,194
2,43,100,104
2,43,100,2
2,38,100,2
2,41,100,4
2,43,100,4
2,43,100,104
2,43,100,2
3,53,127,70656
3,58,127,0
3,62,127,0
3,65,127,6
3,63,127,4
3,62,127,2
3,60,127,4
3,53,127,4
3,58,127,0
3,62,127,0
3,65,127,6
3,63,127,4
3,62,127,2
3,60,127,4
3,53,127,4
3,58,127,0
3,62,127,0
3,65,127,6
3,63,127,4
3,62,127,2
3,60,127,4
3,62,127,4
3,58,127,0
3,57,127,6
3,60,127,0
3,53,127,26114
3,58,127,0
3,62,127,0
3,65,127,6
3,63,127,4
3,62,127,2
3,60,127,4
3,53,127,4
3,58,127,0
3,62,127,0
3,65,127,6
3,63,127,4
3,62,127,2
3,60,127,4
3,53,127,4
3,58,127,0
3,62,127,0
3,65,127,6
3,63,127,4
3,62,127,2
3,60,127,4
3,62,126,4
3,58,126,0
3,57,114,6
3,60,114,0
3,53,102,2
3,58,102,0
3,62,102,0
3,65,96,6
3,63,90,4
3,62,84,2
3,60,80,4
3,53,78,4
3,58,78,0
3,62,78,0
3,65,72,6
3,63,64,4
3,62,60,2
3,60,56,4
3,53,52,4
3,58,52,0
3,62,52,0
3,65,46,6
3,63,40,4
3,62,36,2
3,60,30,4
3,62,28,4
3,58,28,0
3,57,16,6
3,60,16,0
4,46,127,70656
4,46,127,6
4,46,127,2
4,45,127,4
4,43,127,4
4,43,127,104
4,43,127,2
4,41,127,2
4,39,127,4
4,51,127,6
4,41,127,2
4,43,127,4
4,53,127,4
4,53,127,104
4,53,127,2
4,48,127,6
4,41,127,0
4,41,127,4
4,46,127,26116
4,46,127,6
4,46,127,2
4,45,127,4
4,43,127,4
4,43,127,104
4,43,127,2
4,41,127,2
4,39,127,4
4,51,127,6
4,41,127,2
4,43,127,4
4,53,126,4
4,53,116,104
4,53,114,2
4,48,112,6
4,41,112,0
4,41,106,4
4,46,102,4
4,46,90,6
4,46,80,2
4,45,78,4
4,43,78,4
4,43,66,104
4,43,64,2
4,41,58,2
4,39,52,4
4,51,40,6
4,41,34,2
4,43,30,4
4,53,28,4
4,53,16,104
4,53,16,2
4,48,14,6
4,41,12,0
4,41,6,4
5,70,100,3072
5,77,100,0
5,74,100,0
5,70,100,0
5,67,100,0
5,63,100,0
5,77,100,0
5,74,100,0
5,70,100,0
5,70,100,0
5,67,100,0
5,63,100,0
5,77,100,0
5,74,100,0
5,70,100,0
5,70,100,0
5,67,100,0
5,63,100,0
5,77,100,0
5,74,100,0
5,70,100,0
5,70,100,0
5,67,100,0
5,63,100,0
5,77,100,0
5,74,100,0
5,70,100,0
5,70,100,0
5,67,100,0
5,63,100,0
5,63,100,0
5,67,100,0
5,70,100,0
5,74,100,0
5,70,100,0
5,65,100,0
5,72,100,2
5,69,100,0
5,65,100,0
5,70,100,766
5,67,100,0
5,63,100,0
5,70,100,0
5,74,100,0
5,77,100,0
5,65,100,0
5,72,100,2
5,69,100,0
5,65,100,0
5,63,100,766
5,67,100,0
5,70,100,0
5,74,100,0
5,72,100,2
5,69,100,0
5,65,100,0
6,59,54,5760
6,49,100,3392
6,49,100,3024
6,49,100,3024
6,38,100,2448
6,38,100,144
6,38,100,144
6,36,100,144
6,40,100,338
6,36,100,144
6,36,100,144
6,40,100,334
6,36,100,336
6,40,100,338
6,36,100,144
6,36,100,144
6,40,100,334
6,36,111,336
6,40,95,386
6,36,107,114
6,36,95,120
6,40,91,166
6,36,107,194
6,40,100,190
6,36,100,122
6,36,107,144
6,40,100,382
6,36,107,266
6,36,99,202
6,36,103,158
6,40,100,386
6,36,100,118
6,36,99,144
6,40,99,382
6,36,100,118
6,40,100,130
6,36,100,144
6,36,100,144
6,40,100,334
6,36,100,336
6,40,103,338
6,36,87,192
6,36,100,112
6,40,107,154
6,36,107,384
6,40,111,318
6,36,95,146
6,36,87,108
6,38,115,142
6,38,99,132
6,38,107,0
6,38,100,56
6,38,119,48
6,36,115,142
6,40,100,362
6,36,100,50
6,36,100,144
6,40,100,334
6,36,100,336
6,40,100,338
6,36,100,144
6,36,100,144
6,40,100,334
6,36,100,336
6,40,100,338
6,36,100,144
6,36,100,144
6,40,100,334
6,36,87,336
6,40,100,386
6,36,100,126
6,36,100,144
6,40,100,334
6,36,100,144
6,36,100,144
6,36,100,1488
6,40,103,912
6,40,93,120
6,40,73,0
6,40,100,64
6,40,103,48
6,36,119,192
6,36,100,302
6,40,89,334
6,36,99,384
6,40,99,142
6,36,93,134
6,36,91,112
6,40,99,162
6,36,93,186
6,40,99,282
6,36,100,86
6,36,100,144
6,40,91,194
6,36,99,384
6,40,99,154
6,36,91,134
6,36,100,112
6,40,100,150
6,36,100,336
6,40,99,338
6,36,99,192
6,36,99,120
6,40,99,170
6,36,103,182
6,40,111,158
6,36,93,102
6,36,100,104
6,38,115,122
6,38,111,132
6,38,95,64
6,38,107,60
6,36,100,192
6,40,123,330
6,36,111,192
6,36,107,294
6,40,95,86
6,36,95,292
