track,note,velocity,time
0,79,127,320
0,79,0,94
0,81,127,7
0,81,0,95
0,46,127,4
0,46,127,0
0,53,127,0
0,58,127,0
0,70,127,0
0,65,127,0
0,58,127,0
0,82,127,6
0,82,0,93
0,81,127,5
0,75,127,23
0,75,0,2
0,81,0,7
0,79,127,3
0,53,0,28
0,46,0,0
0,58,0,4
0,79,0,64
0,82,127,4
0,82,0,186
0,81,127,3
0,54,127,83
0,69,127,1
0,69,0,2
0,54,0,6
0,69,127,87
0,69,0,2
0,81,0,57
0,48,127,13
0,48,127,0
0,60,127,0
0,55,127,0
0,58,0,0
0,65,0,0
0,70,0,0
0,72,127,0
0,60,127,0
0,46,0,6
0,75,127,186
0,75,0,1
0,79,127,200
0,54,127,4
0,69,127,1
0,69,0,1
0,54,0,7
0,79,0,80
0,81,127,6
0,69,127,1
0,69,0,2
0,48,0,80
0,46,127,14
0,58,127,0
0,46,127,0
0,53,127,0
0,70,127,0
0,65,127,0
0,58,127,0
0,81,0,0
0,82,127,4
0,81,127,6
0,75,127,88
0,75,0,2
0,81,0,4
0,79,127,1
0,79,0,101
0,82,127,6
0,82,0,182
0,81,127,4
0,53,0,4
0,58,0,1
0,46,0,3
0,54,127,76
0,69,127,1
0,69,0,1
0,54,0,6
0,69,127,88
0,69,0,2
0,81,0,3
0,48,127,6
0,48,127,0
0,36,127,0
0,53,127,0
0,62,127,0
0,58,127,0
0,58,0,0
0,65,0,0
0,70,0,0
0,72,127,0
0,60,127,0
0,46,0,12
0,55,127,179
0,60,127,0
0,58,0,10
0,62,0,2
0,58,127,3
0,69,127,0
0,58,127,0
0,53,127,0
0,46,127,0
0,65,127,0
0,46,127,0
0,58,127,0
0,60,0,0
0,72,0,0
0,65,127,0
0,58,127,0
0,69,0,1
0,69,127,58
0,69,0,1
0,58,0,47
0,53,0,1
0,46,0,4
0,65,0,231
0,46,0,24
0,58,0,10
0,69,127,162
0,69,0,1
0,48,127,2
0,48,127,0
0,60,127,0
0,55,127,0
0,48,127,0
0,60,127,0
0,67,127,0
0,67,127,0
0,60,127,0
0,75,127,37
0,75,0,1
0,67,0,79
0,60,0,9
0,74,127,199
0,67,0,12
0,60,0,56
0,74,0,2
0,54,127,26
0,69,127,0
0,69,0,2
0,54,0,6
0,48,0,3
0,69,127,85
0,69,0,1
0,46,127,4
0,69,127,0
0,58,127,0
0,46,127,0
0,53,127,0
0,58,127,0
0,62,127,0
0,65,127,0
0,46,127,0
0,65,127,0
0,58,127,0
0,69,0,3
0,69,127,54
0,69,0,1
0,58,0,47
0,53,0,1
0,46,0,5
0,69,127,27
0,69,0,1
0,48,127,0
0,60,127,0
0,48,127,0
0,55,127,0
0,67,127,0
0,60,127,0
0,48,127,0
0,67,127,0
0,60,127,0
0,65,0,3
0,75,127,20
0,75,0,2
0,67,0,36
0,60,0,6
0,60,0,278
0,67,0,9
0,48,0,7
0,54,127,46
0,69,127,1
0,69,0,1
0,54,0,7
0,69,127,87
0,69,0,1
0,46,127,6
0,69,127,0
0,58,127,0
0,46,127,0
0,53,127,0
0,58,127,0
0,65,127,0
0,46,127,0
0,65,127,0
0,58,127,0
0,69,0,1
0,69,127,47
0,69,0,1
0,53,0,18
0,58,0,3
0,46,0,4
0,46,0,195
0,58,0,5
0,65,0,156
0,69,127,98
0,69,0,2
0,48,127,4
0,48,127,0
0,60,127,0
0,55,127,0
0,48,127,0
0,60,127,0
0,67,127,0
0,67,127,0
0,60,127,0
0,75,127,38
0,75,0,2
0,72,127,94
0,60,0,245
0,48,0,19
0,54,127,24
0,69,127,1
0,69,0,1
0,54,0,7
0,72,0,39
0,69,127,48
0,69,0,1
0,46,127,13
0,51,127,0
0,69,127,0
0,58,127,0
0,46,127,0
0,70,127,0
0,58,127,0
0,65,127,0
0,70,127,0
0,46,127,0
0,70,127,0
0,58,127,0
0,65,127,0
0,69,0,1
0,69,127,59
0,69,0,1
0,69,127,479
0,69,0,1
0,58,0,43
0,65,0,64
0,70,0,28
0,65,127,56
0,58,127,0
0,65,127,0
0,70,127,0
0,75,127,52
0,75,0,1
0,65,0,25
0,58,0,3
0,70,0,4
0,65,0,6
0,70,0,9
0,70,127,48
0,65,127,0
0,58,0,40
0,46,0,9
0,58,0,42
0,58,127,101
0,65,0,20
0,70,0,5
0,46,0,7
0,58,0,12
0,70,0,6
0,65,0,34
0,54,127,12
0,65,127,0
0,81,127,0
0,69,127,1
0,69,0,1
0,54,0,7
0,69,127,87
0,84,127,0
0,69,0,2
0,81,0,14
0,51,127,32
0,51,0,20
0,52,127,4
0,51,127,0
0,69,127,0
0,67,127,0
0,52,127,0
0,62,127,0
0,71,127,0
0,65,0,0
0,52,127,0
0,71,127,0
0,67,127,0
0,62,127,0
0,86,127,0
0,46,0,1
0,69,0,1
0,84,0,11
0,51,0,7
0,69,127,36
0,67,127,0
0,59,127,0
0,69,0,1
0,67,0,15
0,86,0,67
0,67,127,13
0,62,127,0
0,76,127,96
0,62,0,52
0,52,0,18
0,67,0,21
0,71,0,6
0,71,127,22
0,67,0,3
0,62,0,44
0,69,127,49
0,62,127,0
0,69,0,2
0,67,127,94
0,45,127,13
0,67,0,0
0,71,0,0
0,64,127,0
0,55,127,0
0,62,0,0
0,52,0,0
0,59,0,0
0,67,0,0
0,64,127,0
0,45,127,0
0,74,127,0
0,64,127,0
0,67,127,0
0,57,127,0
0,72,127,45
0,52,127,0
0,75,127,2
0,64,127,0
0,57,127,0
0,75,0,2
0,64,0,38
0,64,127,56
0,67,127,0
0,74,127,16
0,54,127,96
0,69,127,0
0,69,0,1
0,67,0,4
0,64,0,3
0,54,0,1
0,57,0,7
0,69,127,28
0,69,0,2
0,46,127,29
0,69,127,0
0,55,0,0
0,64,0,0
0,69,127,0
0,58,127,0
0,65,127,0
0,46,127,0
0,46,127,0
0,69,127,0
0,65,127,0
0,58,127,0
0,69,0,1
0,45,0,13
0,69,127,66
0,67,127,0
0,53,127,0
0,69,0,2
0,62,127,4
0,58,127,0
0,55,127,4
0,55,0,48
0,67,127,0
0,53,0,65
0,67,0,30
0,62,127,1
0,69,127,96
0,53,127,0
0,69,0,1
0,46,0,7
0,53,0,20
0,43,127,8
0,65,0,0
0,58,0,0
0,69,0,0
0,55,127,0
0,43,127,0
0,74,127,0
0,67,127,0
0,71,127,0
0,43,127,0
0,57,127,0
0,62,127,0
0,67,127,0
0,71,127,0
0,55,127,0
0,43,127,0
0,46,0,8
0,50,127,63
0,55,127,96
0,57,0,55
0,62,0,10
0,64,127,31
0,55,0,23
0,43,0,73
0,50,0,82
0,55,127,110
0,77,127,96
0,55,0,20
0,64,0,244
0,43,0,64
0,55,0,2
0,71,0,2
0,67,0,0
0,43,0,35
0,41,127,1
0,40,127,0
0,51,127,0
0,36,127,0
0,42,127,0
0,91,127,0
0,41,127,0
0,69,127,0
0,79,127,0
0,72,127,0
0,53,127,0
0,60,127,0
0,29,127,0
0,36,0,1
0,42,0,1
0,48,127,66
0,42,127,96
0,53,127,0
0,42,0,2
0,53,0,30
0,29,0,8
0,36,127,56
0,55,127,0
0,29,127,0
0,36,0,1
0,79,0,4
0,72,0,26
0,69,0,8
0,42,127,57
0,77,127,0
0,72,127,0
0,69,127,0
0,42,0,1
0,55,0,0
0,77,0,144
0,72,0,3
0,69,0,4
0,42,127,40
0,72,127,0
0,76,127,0
0,69,127,0
0,37,127,1
0,37,0,1
0,42,0,0
0,72,0,63
0,76,0,3
0,69,0,15
0,48,0,6
0,53,127,7
0,77,0,10
0,53,0,6
0,41,0,5
0,41,0,55
0,29,0,0
0,60,0,8
0,53,0,4
0,48,127,8
0,36,127,0
0,42,127,0
0,36,127,0
0,74,127,0
0,64,127,0
0,67,127,0
0,48,127,0
0,55,127,0
0,24,127,0
0,36,0,1
0,42,0,1
0,43,127,12
0,67,127,0
0,64,0,27
0,67,0,5
0,42,127,64
0,43,0,0
0,48,127,0
0,42,0,2
0,24,0,54
0,36,127,40
0,67,127,0
0,24,127,0
0,36,0,1
0,48,0,76
0,42,127,19
0,42,0,2
0,67,0,38
0,42,127,152
0,37,127,0
0,69,127,0
0,37,0,2
0,42,0,0
0,69,0,14
0,46,127,80
0,81,127,0
0,81,0,58
0,36,0,5
0,48,0,11
0,46,0,4
0,24,0,7
0,41,127,11
0,42,127,0
0,36,127,0
0,41,127,0
0,77,127,0
0,69,127,0
0,53,127,0
0,60,127,0
0,29,127,0
0,36,0,1
0,42,0,0
0,55,0,2
0,72,127,72
0,48,127,0
0,77,0,4
0,72,0,88
0,42,127,4
0,69,127,0
0,53,127,0
0,42,0,2
0,69,0,23
0,29,0,14
0,36,127,57
0,84,127,0
0,29,127,0
0,36,0,2
0,42,127,94
0,42,0,1
0,81,127,95
0,84,0,4
0,53,0,66
0,48,0,1
0,41,0,7
0,42,127,18
0,37,127,0
0,37,0,1
0,42,0,0
0,81,0,11
0,48,127,3
0,36,127,0
0,42,127,0
0,67,127,0
0,48,127,0
0,72,127,0
0,79,127,0
0,48,127,0
0,55,127,0
0,24,127,0
0,41,0,1
0,36,0,0
0,42,0,2
0,55,127,62
0,79,0,33
0,72,0,6
0,67,0,29
0,42,127,28
0,79,127,0
0,60,127,0
0,67,127,0
0,72,127,0
0,42,0,2
0,60,0,32
0,79,0,8
0,67,0,18
0,72,0,12
0,24,0,4
0,36,127,20
0,62,127,0
0,76,127,0
0,67,127,0
0,24,127,0
0,36,0,2
0,62,0,37
0,91,0,19
0,76,0,2
0,67,0,1
0,24,0,13
0,48,0,14
0,53,127,8
0,65,127,0
0,42,127,0
0,77,127,0
0,67,127,0
0,72,127,0
0,29,127,0
0,42,0,2
0,72,0,59
0,65,0,26
0,53,0,5
0,64,127,4
0,52,127,0
0,53,127,0
0,50,127,0
0,47,127,0
0,76,127,0
0,28,127,0
0,29,0,3
0,77,0,25
0,50,0,2
0,47,0,2
0,53,0,5
0,76,0,48
0,55,0,5
0,64,0,4
0,28,0,0
0,62,127,2
0,50,127,0
0,47,127,0
0,42,127,0
0,37,127,0
0,74,127,0
0,26,127,0
0,42,0,2
0,37,0,1
0,52,0,7
0,48,0,14
0,47,0,7
0,50,0,65
0,48,127,0
0,60,127,0
0,43,127,0
0,72,127,0
0,24,127,0
0,62,0,2
0,26,0,2
0,74,0,12
0,53,127,4
0,36,127,0
0,42,127,0
0,91,127,0
0,41,127,0
0,69,127,0
0,72,127,0
0,79,127,0
0,53,127,0
0,60,127,0
0,29,127,0
0,49,127,0
0,36,0,1
0,42,0,2
0,48,0,1
0,55,0,2
0,49,0,14
0,48,127,70
0,42,127,96
0,53,127,0
0,42,0,2
0,53,0,27
0,29,0,2
0,79,0,57
0,36,127,8
0,55,127,0
0,29,127,0
0,36,0,1
0,69,0,7
0,72,0,3
0,55,0,25
0,42,127,60
0,77,127,0
0,72,127,0
0,67,127,0
0,42,0,1
0,77,0,143
0,67,0,16
0,72,0,20
0,29,0,8
0,42,127,4
0,37,127,0
0,76,127,0
0,67,127,0
0,31,127,0
0,37,0,1
0,42,0,0
0,48,0,79
0,41,0,3
0,31,0,5
0,38,127,8
0,76,0,20
0,48,127,1
0,36,127,0
0,42,127,0
0,48,127,0
0,74,127,0
0,64,127,0
0,55,127,0
0,48,127,0
0,24,127,0
0,36,0,1
0,42,0,2
0,67,127,88
0,55,127,0
0,74,0,2
0,67,0,76
0,42,127,18
0,60,127,0
0,42,0,2
0,64,0,46
0,24,0,10
0,36,127,38
0,67,127,0
0,24,127,0
0,36,0,1
0,67,0,79
0,42,127,16
0,42,0,2
0,67,127,94
0,67,0,95
0,42,127,1
0,37,127,0
0,69,127,0
0,37,0,2
0,42,0,0
0,69,0,21
0,46,127,73
0,81,127,0
0,81,0,18
0,55,0,26
0,48,0,4
0,60,0,7
0,24,0,29
0,48,0,8
0,46,0,0
0,53,127,4
0,51,127,0
0,36,127,0
0,42,127,0
0,41,127,0
0,69,127,0
0,72,127,0
0,79,127,0
0,53,127,0
0,60,127,0
0,29,127,0
0,42,0,1
0,36,0,0
0,55,0,3
0,51,0,13
0,48,127,70
0,42,127,69
0,53,127,0
0,42,0,2
0,53,0,27
0,29,0,46
0,79,0,13
0,36,127,8
0,55,127,0
0,29,127,0
0,36,0,1
0,69,0,7
0,72,0,3
0,53,0,7
0,55,0,18
0,60,0,4
0,42,127,56
0,77,127,0
0,72,127,0
0,67,127,0
0,42,0,2
0,77,0,142
0,67,0,16
0,72,0,20
0,42,127,12
0,37,127,0
0,91,0,0
0,76,127,0
0,67,127,0
0,42,0,1
0,37,0,1
0,29,0,38
0,48,0,40
0,41,0,3
0,29,127,13
0,76,0,20
0,46,127,6
0,36,127,0
0,42,127,0
0,77,127,0
0,70,127,0
0,82,127,0
0,58,127,0
0,77,127,0
0,58,127,0
0,65,127,0
0,34,127,0
0,36,0,1
0,42,0,2
0,74,127,91
0,65,127,0
0,77,0,7
0,42,127,89
0,70,127,0
0,42,0,2
0,74,0,59
0,34,0,6
0,36,127,20
0,72,127,0
0,34,127,0
0,36,0,1
0,42,127,95
0,42,0,1
0,70,0,44
0,77,0,13
0,77,127,38
0,70,0,7
0,82,0,9
0,42,127,80
0,37,127,0
0,72,0,0
0,70,127,0
0,37,0,2
0,42,0,0
0,70,0,86
0,65,0,4
0,46,127,4
0,58,0,9
0,77,0,5
0,58,0,27
0,34,0,20
0,46,0,11
0,46,0,11
0,46,127,4
0,42,127,0
0,36,127,0
0,86,127,0
0,82,127,0
0,77,127,0
0,46,127,0
0,65,127,0
0,74,127,0
0,58,127,0
0,34,127,0
0,36,0,1
0,42,0,0
0,53,127,20
0,42,127,96
0,58,127,0
0,42,0,1
0,65,0,43
0,34,0,5
0,74,0,42
0,36,127,5
0,65,127,0
0,34,127,0
0,36,0,1
0,34,0,19
0,65,0,20
0,86,0,35
0,82,0,10
0,42,127,11
0,72,127,0
0,65,127,0
0,34,127,0
0,42,0,2
0,77,0,10
0,38,127,115
0,42,127,0
0,37,127,0
0,58,127,0
0,42,0,1
0,37,0,2
0,53,0,11
0,38,0,3
0,58,0,12
0,34,0,21
0,46,0,4
0,38,127,42
0,34,127,0
0,72,0,8
0,38,0,5
0,65,0,8
0,34,0,25
0,38,127,2
0,36,127,0
0,38,0,31
0,46,0,5
0,48,127,3
0,36,127,0
0,42,127,0
0,72,127,0
0,84,127,0
0,79,127,0
0,48,127,0
0,67,127,0
0,74,127,0
0,48,127,0
0,55,127,0
0,24,127,0
0,49,127,0
0,36,0,1
0,42,0,2
0,55,127,11
0,72,127,0
0,67,0,62
0,42,127,34
0,76,127,0
0,60,127,0
0,67,127,0
0,42,0,2
0,72,0,0
0,24,0,58
0,36,127,36
0,24,127,0
0,36,0,1
0,42,127,58
0,42,0,2
0,42,127,52
0,37,127,0
0,60,127,0
0,37,0,2
0,42,0,0
0,76,0,17
0,55,0,13
0,67,0,0
0,60,0,10
0,48,0,19
0,46,127,35
0,48,0,70
0,24,0,3
0,46,127,20
0,51,127,0
0,36,127,0
0,42,127,0
0,86,127,0
0,77,127,0
0,82,127,0
0,65,127,0
0,70,127,0
0,58,127,0
0,74,127,0
0,46,127,0
0,53,127,0
0,46,127,0
0,58,127,0
0,34,127,0
0,42,0,1
0,36,0,0
0,42,127,79
0,42,0,1
0,36,127,22
0,34,127,0
0,36,0,1
0,34,0,16
0,74,0,5
0,65,0,36
0,70,0,8
0,42,127,30
0,72,127,0
0,65,127,0
0,34,127,0
0,42,0,2
0,70,127,46
0,72,0,30
0,50,127,18
0,47,127,0
0,47,0,27
0,50,0,4
0,58,0,2
0,47,127,63
0,42,127,0
0,58,127,0
0,37,127,1
0,42,0,1
0,37,0,1
0,47,0,16
0,58,0,1
0,46,0,2
0,43,127,26
0,70,0,9
0,65,0,7
0,43,0,6
0,86,0,18
0,77,0,4
0,43,127,4
0,82,0,8
0,43,0,12
0,46,0,67
0,48,127,3
0,51,127,0
0,36,127,0
0,42,127,0
0,79,127,0
