track,note,velocity,time
3,71,82,960
3,72,106,180
3,71,0,12
3,72,0,168
3,74,97,0
3,74,0,89
3,74,98,31
3,76,98,180
3,74,0,25
3,76,0,266
3,69,81,129
3,71,97,60
3,69,0,1
3,71,0,179
3,72,106,0
3,72,0,92
3,72,102,28
3,74,81,180
3,72,0,3
3,74,0,280
3,71,96,137
3,69,88,60
3,71,0,1
3,69,0,113
3,67,103,6
3,67,0,141
3,71,100,159
3,69,93,60
3,71,0,3
3,69,0,111
3,67,97,6
3,67,0,163
3,71,102,132
3,71,0,95
3,71,96,29
3,76,100,61
3,71,0,17
3,76,0,162
3,76,81,1
3,76,0,58
3,79,102,2
3,79,0,75
3,79,93,44
3,79,0,135
3,81,108,46
3,81,0,89
3,83,96,34
3,83,0,81
3,83,86,37
3,83,0,40
3,83,97,21
3,83,0,73
3,83,87,39
3,83,0,112
3,84,111,74
3,83,88,107
3,84,0,4
3,81,100,61
3,83,0,1
3,81,0,89
3,83,106,16
3,83,0,109
3,81,96,93
3,79,91,95
3,81,0,24
3,79,0,32
3,79,106,17
3,79,0,84
3,79,92,34
3,79,0,124
3,81,112,2
3,81,0,446
3,71,82,102
3,72,106,180
3,71,0,12
3,72,0,168
3,74,97,0
3,74,0,89
3,74,98,31
3,76,98,180
3,74,0,25
3,76,0,266
3,69,81,129
3,71,97,60
3,69,0,1
3,71,0,179
3,72,106,0
3,72,0,92
3,72,102,28
3,74,81,180
3,72,0,3
3,74,0,280
3,71,96,137
3,69,88,60
3,71,0,1
3,69,0,113
3,67,103,6
3,67,0,141
3,71,100,159
3,69,93,60
3,71,0,3
3,69,0,111
3,67,97,6
3,67,0,163
3,71,102,132
3,71,0,95
3,71,96,29
3,76,100,61
3,71,0,17
3,76,0,162
3,76,81,1
3,76,0,58
3,79,102,2
3,79,0,75
3,79,93,44
3,79,0,135
3,81,108,46
3,81,0,89
3,83,96,34
3,83,0,81
3,83,86,37
3,83,0,40
3,83,97,21
3,83,0,73
3,83,87,39
3,83,0,112
3,84,111,74
3,84,0,111
3,83,88,9
3,81,100,60
3,83,0,6
3,81,0,84
3,83,106,30
3,83,0,109
3,81,96,71
3,79,91,95
3,81,0,24
3,79,0,32
3,79,106,17
3,79,0,84
3,79,92,34
3,79,0,118
3,81,111,12
3,81,0,359
3,79,102,5
3,79,0,56
3,81,108,4
3,79,91,60
3,81,0,5
3,79,0,513
3,71,114,1462
3,74,97,120
3,71,0,6
3,74,0,37
3,74,96,17
3,74,0,92
3,79,112,28
3,79,0,85
3,79,91,35
3,79,0,114
3,81,96,6
3,81,0,81
3,81,79,39
3,81,0,179
3,71,106,121
3,74,88,120
3,71,0,11
3,74,0,35
3,74,97,14
3,74,0,86
3,79,91,34
3,79,0,93
3,79,91,27
3,86,112,120
3,79,0,10
3,86,0,70
3,86,92,40
3,86,0,170
3,84,102,10
3,84,0,53
3,84,103,7
3,83,100,120
3,84,0,1
3,83,0,186
3,83,88,113
3,83,0,41
3,83,91,19
3,83,0,98
3,81,86,22
3,81,0,309
3,84,81,231
3,84,0,52
3,84,106,8
3,84,0,38
3,84,112,22
3,84,0,88
3,84,96,32
3,84,0,60
3,83,108,0
3,83,0,82
3,81,102,38
3,81,0,72
3,83,87,48
3,83,0,75
3,81,103,45
3,81,0,56
3,79,111,4
3,79,0,63
3,71,112,57
3,71,0,107
3,74,106,6
3,74,0,52
3,74,85,17
3,74,0,84
3,79,93,22
3,79,0,76
3,79,87,44
3,79,0,103
3,81,102,28
3,81,0,66
3,81,98,47
3,81,0,191
3,71,97,117
3,74,92,108
3,71,0,25
3,74,0,12
3,74,96,25
3,74,0,117
3,79,91,22
3,79,0,83
3,79,87,31
3,79,0,122
3,86,92,10
3,86,0,75
3,86,82,36
3,86,0,131
3,84,106,51
3,84,0,47
3,84,100,17
3,84,0,105
3,83,74,6
3,83,0,198
3,83,100,99
3,83,0,52
3,83,75,14
3,83,0,116
3,81,93,0
3,81,0,236
3,84,127,308
3,84,0,46
3,84,106,13
3,84,0,32
3,84,127,33
3,84,0,76
3,84,112,41
3,84,0,38
3,83,106,17
3,83,0,102
3,81,112,16
3,81,0,70
3,83,112,46
3,83,0,90
3,83,106,24
3,83,0,187
3,81,80,2
3,81,0,47
3,79,86,4
3,79,0,206
3,71,117,1664
3,72,112,188
3,71,0,8
3,74,97,175
3,72,0,8
3,74,0,64
3,74,106,38
3,76,93,181
3,74,0,8
3,76,0,297
3,69,93,115
3,69,0,62
3,71,80,1
3,72,92,180
3,71,0,13
3,72,0,71
3,72,93,25
3,74,88,174
3,72,0,1
3,74,0,359
3,71,86,62
3,71,0,58
3,69,91,6
3,69,0,89
3,67,100,37
3,67,0,176
3,71,124,120
3,71,0,45
3,69,111,16
3,69,0,83
3,67,111,42
3,67,0,161
3,71,91,137
3,71,0,74
3,71,127,43
3,71,0,52
3,76,100,10
3,76,0,180
3,76,87,7
3,76,0,50
3,79,97,10
3,79,0,69
3,79,111,45
3,79,0,180
3,81,106,57
3,81,0,43
3,83,108,12
3,83,0,78
3,83,98,38
3,83,0,35
3,83,106,25
3,83,0,85
3,83,97,30
3,83,0,30
3,83,106,30
3,83,0,36
3,84,100,25
3,84,0,168
3,83,103,15
3,83,0,52
3,81,116,12
3,81,0,123
3,83,112,126
3,83,0,60
3,81,110,6
3,81,0,90
3,79,114,11
3,79,0,40
3,79,117,27
3,79,0,63
3,79,118,62
3,79,0,102
3,81,112,15
3,81,0,357
3,79,116,0
3,81,116,68
3,79,0,8
3,79,116,48
3,81,0,3
3,79,0,537
3,71,118,1443
3,74,100,117
3,71,0,13
3,74,0,41
3,74,96,19
3,74,0,88
3,79,111,15
3,79,0,84
3,79,98,36
3,79,0,118
3,81,93,12
3,81,0,75
3,81,112,36
3,81,0,157
3,71,111,14
3,74,91,111
3,71,0,29
3,74,0,16
3,74,72,23
3,74,0,111
3,79,97,3
3,79,0,78
3,79,74,47
3,79,0,82
3,86,84,47
3,86,0,72
3,86,87,36
3,86,0,137
3,84,91,47
3,84,0,43
3,84,100,16
3,84,0,102
3,83,81,11
3,83,0,178
3,83,100,113
3,83,0,53
3,83,82,13
3,83,0,103
3,81,91,20
3,81,0,381
3,84,118,179
3,84,0,39
3,84,106,21
3,84,0,38
3,84,112,24
3,84,0,82
3,84,98,33
3,84,0,60
3,83,97,4
3,83,0,101
3,81,87,20
3,81,0,89
3,83,102,24
3,83,0,96
3,81,97,30
3,79,96,51
3,81,0,6
3,79,0,50
3,71,114,65
3,74,103,114
3,71,0,13
3,74,0,19
3,74,106,25
3,74,0,100
3,79,91,18
3,79,0,82
3,79,102,46
3,79,0,112
3,81,117,11
3,81,0,63
3,81,106,51
3,81,0,182
3,71,117,114
3,74,103,121
3,71,0,20
3,74,0,16
3,74,96,19
3,74,0,120
3,79,74,6
3,79,0,87
3,79,92,36
3,79,0,111
3,86,92,19
3,86,0,73
3,86,97,34
3,86,0,136
3,84,112,45
3,84,0,44
3,84,100,17
3,84,0,107
3,83,91,14
3,83,0,201
3,83,118,85
3,83,0,58
3,83,98,15
3,83,0,99
3,81,103,26
3,81,0,313
3,84,117,217
3,84,0,47
3,84,106,19
3,84,0,43
3,84,111,20
3,84,0,76
3,84,100,41
3,83,112,66
3,84,0,1
3,83,0,101
3,81,108,11
3,81,0,81
3,83,118,37
3,83,0,71
3,83,91,47
3,81,106,188
3,83,0,4
3,79,111,58
3,81,0,6
3,79,0,837
3,71,127,1022
3,74,102,118
3,71,0,9
3,74,0,35
3,74,117,21
3,74,0,103
3,79,102,9
3,79,0,84
3,79,118,36
3,79,0,119
3,81,118,5
3,81,0,71
3,81,127,35
3,81,0,195
3,71,118,111
3,71,0,95
3,74,93,17
3,74,0,44
3,74,118,29
3,74,0,115
3,79,126,3
3,79,0,81
3,79,102,36
3,86,98,120
3,79,0,2
3,86,0,74
3,86,102,42
3,86,0,171
3,84,112,10
3,84,0,46
3,84,108,18
3,84,0,109
3,83,108,7
3,83,0,216
3,83,127,70
3,83,0,51
3,83,102,17
3,83,0,102
3,81,126,12
3,81,0,507
3,84,118,46
3,84,0,60
3,84,118,0
3,84,0,60
3,84,127,9
3,84,0,83
3,84,96,22
3,84,0,67
3,83,111,4
3,83,0,116
3,81,102,6
3,81,0,115
3,83,98,13
3,83,0,104
3,81,112,12
3,79,100,52
3,81,0,12
3,79,0,61
3,71,121,49
3,74,106,118
3,71,0,12
3,74,0,23
3,74,98,32
3,79,100,116
3,74,0,11
3,79,0,61
3,79,85,40
3,79,0,124
3,81,103,7
3,81,0,73
3,81,96,36
3,81,0,201
3,71,114,101
3,74,106,116
3,71,0,17
3,74,0,24
3,74,112,27
3,74,0,107
3,79,118,12
3,79,0,84
3,79,87,34
3,79,0,117
3,86,87,12
3,86,0,77
3,86,100,33
3,86,0,127
3,84,126,43
3,84,0,49
3,84,103,21
3,84,0,108
3,83,102,22
3,83,0,156
3,83,112,126
3,83,0,56
3,83,98,15
3,83,0,92
3,81,100,30
3,81,0,316
3,84,127,224
3,84,0,44
3,84,98,18
3,84,0,39
3,84,106,18
3,84,0,85
3,84,102,36
3,83,124,67
3,84,0,12
3,83,0,91
3,81,85,1
3,81,0,103
3,83,111,20
3,83,0,81
3,83,93,31
3,81,80,190
3,83,0,12
3,79,80,44
3,81,0,8
3,81,98,405
3,79,0,7
3,83,85,476
3,81,0,10
3,86,82,477
3,83,0,2
3,84,93,229
3,86,0,7
3,84,0,227
3,83,80,15
3,81,70,309
3,83,0,39
3,79,64,13
3,81,0,14
3,81,86,105
3,79,0,8
3,83,68,297
3,81,0,7
3,81,89,44
3,83,0,9
3,81,0,112
3,79,94,3
3,76,73,353
3,79,0,7
3,76,0,112
3,74,80,0
3,74,0,481
3,79,104,3
3,81,84,490
3,79,0,8
3,81,0,472
3,83,81,1
3,86,66,473
3,83,0,14
3,84,83,235
3,86,0,6
3,83,83,211
3,84,0,7
3,81,76,306
3,83,0,10
3,79,65,44
3,81,0,11
3,81,81,112
3,79,0,9
3,81,0,286
3,83,72,1
3,81,76,63
3,83,0,7
3,81,0,108
3,79,75,5
3,79,0,360
3,76,63,3
3,76,0,118
3,74,59,3
3,74,0,384
4,74,49,18838
4,79,49,0
4,79,0,60
4,74,0,0
4,74,49,0
4,79,49,0
4,79,0,120
4,74,0,0
4,74,49,0
4,79,49,0
4,79,0,187
4,74,0,0
4,79,49,113
4,74,49,0
4,74,0,60
4,79,0,0
4,79,49,0
4,74,49,0
4,74,0,120
4,79,0,0
4,78,49,0
4,74,49,0
4,74,0,309
4,78,0,0
4,74,49,2871
4,79,49,0
4,79,0,60
4,74,0,0
4,74,49,0
4,79,49,0
4,79,0,120
4,74,0,0
4,74,49,0
4,79,49,0
4,79,0,187
4,74,0,0
4,79,49,113
4,74,49,0
4,74,0,60
4,79,0,0
4,79,49,0
4,74,49,0
4,74,0,120
4,79,0,0
4,78,49,0
4,74,49,0
4,74,0,309
4,78,0,0
4,74,49,12471
4,79,49,0
4,79,0,60
4,74,0,0
4,74,49,0
4,79,49,0
4,79,0,120
4,74,0,0
4,74,49,0
4,79,49,0
4,79,0,187
4,74,0,0
4,79,49,113
4,74,49,0
4,74,0,60
4,79,0,0
4,79,49,0
4,74,49,0
4,74,0,120
4,79,0,0
4,78,49,0
4,74,49,0
4,74,0,309
4,78,0,0
4,74,49,2871
4,79,49,0
4,79,0,60
4,74,0,0
4,74,49,0
4,79,49,0
4,79,0,120
4,74,0,0
4,74,49,0
4,79,49,0
4,79,0,187
4,74,0,0
4,79,49,113
4,74,49,0
4,74,0,60
4,79,0,0
4,79,49,0
4,74,49,0
4,74,0,120
4,79,0,0
4,78,49,0
4,74,49,0
4,74,0,309
4,78,0,0
4,74,49,4791
4,79,49,0
4,79,0,60
4,74,0,0
4,74,49,0
4,79,49,0
4,79,0,120
4,74,0,0
4,74,49,0
4,79,49,0
4,79,0,187
4,74,0,0
4,79,49,113
4,74,49,0
4,74,0,60
4,79,0,0
4,79,49,0
4,74,49,0
4,74,0,120
4,79,0,0
4,78,49,0
4,74,49,0
4,74,0,309
4,78,0,0
4,74,49,2871
4,79,49,0
4,79,0,60
4,74,0,0
4,74,49,0
4,79,49,0
4,79,0,120
4,74,0,0
4,74,49,0
4,79,49,0
4,79,0,187
4,74,0,0
4,79,49,113
4,74,49,0
4,74,0,60
4,79,0,0
4,79,49,0
4,74,49,0
4,74,0,120
4,79,0,0
4,78,49,0
4,74,49,0
4,74,0,309
4,78,0,0
5,43,54,972
5,50,57,60
5,55,64,60
5,60,80,60
5,59,46,180
5,60,0,9
5,43,0,19
5,50,0,6
5,55,0,17
5,59,0,65
5,55,70,124
5,57,65,60
5,55,0,154
5,59,68,26
5,57,0,16
5,59,0,67
5,43,65,37
5,50,70,60
5,55,46,60
5,60,84,60
5,50,0,94
5,43,0,14
5,55,0,16
5,59,73,56
5,60,0,8
5,59,0,52
5,55,61,180
5,57,82,60
5,55,0,21
5,59,81,159
5,57,0,8
5,62,15,52
5,59,0,15
5,62,0,38
5,71,79,0
5,71,0,59
5,62,40,1
5,62,0,59
5,67,43,1
5,67,0,59
5,72,73,1
5,72,0,59
5,62,45,1
5,62,0,59
5,67,45,1
5,67,0,59
5,74,73,1
5,74,0,59
5,74,70,61
5,74,0,60
5,64,49,0
5,64,0,60
5,67,49,0
5,67,0,60
5,72,70,0
5,72,0,60
5,71,56,60
5,71,0,60
5,69,56,0
5,69,0,60
5,67,56,0
5,67,0,60
5,69,73,0
5,69,0,59
5,62,44,1
5,62,0,59
5,66,44,1
5,66,0,59
5,71,73,1
5,71,0,59
5,62,37,1
5,62,0,59
5,66,37,1
5,66,0,59
5,72,73,1
5,72,0,59
5,66,73,1
5,66,0,59
5,72,73,1
5,72,0,59
5,62,56,1
5,62,0,59
5,67,56,1
5,67,0,59
5,74,66,1
5,74,0,59
5,69,73,61
5,69,0,59
5,67,73,1
5,67,0,59
5,66,95,1
5,66,0,59
5,67,84,1
5,67,0,59
5,59,73,1
5,59,0,59
5,64,73,1
5,64,0,59
5,71,73,1
5,71,0,59
5,69,73,61
5,69,0,59
5,67,73,1
5,67,0,59
5,66,73,1
5,66,0,59
5,67,73,1
5,67,0,59
5,59,73,1
5,59,0,59
5,63,73,1
5,63,0,59
5,71,73,1
5,71,0,59
5,69,73,61
5,69,0,59
5,67,73,1
5,67,0,59
5,66,73,1
5,66,0,59
5,67,73,1
5,67,0,59
5,59,73,1
5,59,0,59
5,62,73,1
5,62,0,59
5,67,73,1
5,67,0,59
5,69,73,61
5,69,0,59
5,67,73,1
5,67,0,59
5,66,73,1
5,66,0,59
5,67,73,1
5,67,0,59
5,63,73,1
5,63,0,59
5,67,73,1
5,67,0,59
5,71,73,1
5,71,0,59
5,69,73,61
5,69,0,59
5,67,73,1
5,67,0,59
5,66,73,1
5,66,0,59
5,67,73,1
5,67,0,59
5,59,56,1
5,59,0,59
5,62,56,1
5,62,0,59
5,67,56,1
5,67,0,59
5,69,56,61
5,69,0,59
5,67,56,1
5,67,0,59
5,66,56,1
5,66,0,59
5,67,56,1
5,67,0,59
5,63,56,1
5,63,0,59
5,67,56,1
5,67,0,59
5,71,56,1
5,71,0,59
5,69,56,61
5,69,0,59
5,67,56,1
5,67,0,59
5,66,56,1
5,66,0,59
5,67,56,1
5,67,0,59
5,59,56,1
5,59,0,59
5,64,56,1
5,64,0,59
5,67,56,1
5,67,0,59
5,65,73,241
5,65,0,59
5,71,79,421
5,71,0,59
5,62,40,1
5,62,0,59
5,67,43,1
5,67,0,59
5,72,73,1
5,72,0,59
5,62,45,1
5,62,0,59
5,67,45,1
5,67,0,59
5,74,73,1
5,74,0,59
5,74,70,61
5,74,0,60
5,64,49,0
5,64,0,60
5,67,49,0
5,67,0,60
5,72,70,0
5,72,0,60
5,71,56,60
5,71,0,60
5,69,56,0
5,69,0,60
5,67,56,0
5,67,0,60
5,69,73,0
5,69,0,59
5,62,44,1
5,62,0,59
