track,note,velocity,time
1,72,110,0
1,72,0,59
1,74,110,1
1,74,0,59
1,74,110,1
1,74,0,59
1,74,110,1
1,74,0,29
1,74,110,1
1,74,0,190
1,74,110,20
1,74,0,29
1,77,110,1
1,77,0,29
1,77,110,1
1,77,0,59
1,79,110,1
1,79,0,59
1,79,110,1
1,79,0,59
1,79,110,1
1,79,0,29
1,79,110,1
1,79,0,60
1,77,110,0
1,77,0,30
1,74,110,0
1,74,0,59
1,74,110,61
1,74,0,29
1,77,110,1
1,77,0,29
1,77,110,1
1,77,0,59
1,79,110,1
1,79,0,29
1,79,110,1
1,79,0,29
1,79,110,1
1,79,0,59
1,79,110,1
1,79,0,29
1,79,110,1
1,79,0,89
1,77,110,1
1,77,0,59
1,77,110,61
1,77,0,29
1,75,110,1
1,75,0,29
1,75,110,1
1,75,0,59
1,74,110,1
1,74,0,59
1,74,110,1
1,74,0,29
1,72,110,1
1,72,0,89
1,72,110,1
1,72,0,100
1,70,110,80
1,70,0,29
1,70,110,1
1,70,0,29
1,70,110,1
1,70,0,59
1,72,110,1
1,72,0,29
1,72,110,1
1,72,0,29
1,72,110,1
1,72,0,59
1,72,110,1
1,72,0,29
1,72,110,1
1,72,0,190
1,74,110,20
1,74,0,29
1,75,110,1
1,75,0,29
1,75,110,1
1,75,0,59
1,77,110,1
1,77,0,59
1,77,110,1
1,77,0,29
1,77,110,1
1,77,0,89
1,70,110,1
1,70,0,100
1,70,110,80
1,70,0,59
1,75,110,1
1,75,0,59
1,74,110,1
1,74,0,119
1,72,110,1
1,72,0,29
1,70,110,1
1,70,0,29
1,75,110,1
1,75,0,59
1,74,110,1
1,74,0,89
1,72,110,1
1,72,0,29
1,70,110,1
1,70,0,29
1,70,110,1
1,70,0,89
1,72,110,1
1,72,0,59
1,72,110,1
1,72,0,59
1,72,110,1
1,72,0,29
1,65,110,1
1,72,110,0
1,72,0,89
1,65,0,0
1,65,110,1
1,65,0,59
1,74,110,1
1,74,0,29
1,72,110,1
1,72,0,29
1,72,110,1
1,72,0,59
1,70,110,1
1,70,0,210
1,65,110,30
1,70,110,0
1,74,110,0
1,74,0,100
1,70,0,0
1,65,0,0
1,65,110,20
1,70,110,0
1,74,110,0
1,74,0,100
1,70,0,0
1,65,0,0
1,67,110,20
1,70,110,0
1,74,110,0
1,74,0,100
1,70,0,0
1,67,0,0
1,67,110,20
1,70,110,0
1,74,110,0
1,74,0,100
1,70,0,0
1,67,0,0
1,67,110,20
1,70,110,0
1,75,110,0
1,75,0,100
1,70,0,0
1,67,0,0
1,70,110,20
1,70,0,59
1,72,110,1
1,72,0,59
1,72,110,1
1,72,0,59
1,74,110,1
1,74,0,59
1,74,110,1
1,74,0,59
1,74,110,1
1,74,0,29
1,74,110,1
1,74,0,190
1,74,110,20
1,74,0,29
1,77,110,1
1,77,0,29
1,77,110,1
1,77,0,59
1,79,110,1
1,79,0,59
1,79,110,1
1,79,0,59
1,79,110,1
1,79,0,29
1,79,110,1
1,79,0,60
1,77,110,0
1,77,0,30
1,74,110,0
1,74,0,59
1,74,110,61
1,74,0,29
1,77,110,1
1,77,0,29
1,77,110,1
1,77,0,59
1,79,110,1
1,79,0,29
1,79,110,1
1,79,0,29
1,79,110,1
1,79,0,59
1,79,110,1
1,79,0,29
1,79,110,1
1,79,0,89
1,77,110,1
1,77,0,59
1,77,110,61
1,77,0,29
1,75,110,1
1,75,0,29
1,75,110,1
1,75,0,59
1,74,110,1
1,74,0,59
1,74,110,1
1,74,0,29
1,72,110,1
1,72,0,89
1,72,110,1
1,72,0,100
1,70,110,80
1,70,0,29
1,70,110,1
1,70,0,29
1,70,110,1
1,70,0,59
1,72,110,1
1,72,0,29
1,72,110,1
1,72,0,29
1,72,110,1
1,72,0,59
1,72,110,1
1,72,0,29
1,72,110,1
1,72,0,190
1,74,110,20
1,74,0,29
1,75,110,1
1,75,0,29
1,75,110,1
1,75,0,59
1,77,110,1
1,77,0,59
1,77,110,1
1,77,0,29
1,77,110,1
1,77,0,89
1,70,110,1
1,70,0,100
1,70,110,80
1,70,0,59
1,75,110,1
1,75,0,59
1,74,110,1
1,74,0,119
1,72,110,1
1,72,0,29
1,70,110,1
1,70,0,29
1,75,110,1
1,75,0,59
1,74,110,1
1,74,0,89
1,72,110,1
1,72,0,29
1,70,110,1
1,70,0,29
1,70,110,1
1,70,0,89
1,72,110,1
1,72,0,59
1,72,110,1
1,72,0,59
1,72,110,1
1,72,0,29
1,65,110,1
1,72,110,0
1,72,0,89
1,65,0,0
1,65,110,1
1,65,0,59
1,74,110,1
1,74,0,29
1,72,110,1
1,72,0,29
1,72,110,1
1,72,0,59
1,70,110,1
1,70,0,210
1,65,110,30
1,70,110,0
1,74,110,0
1,74,0,89
1,70,0,0
1,65,0,0
1,65,110,1
1,65,0,29
1,74,110,1
1,74,0,29
1,72,110,1
1,72,0,29
1,72,110,1
1,72,0,30
1,70,110,0
1,70,0,29
1,62,110,1
1,67,110,0
1,70,110,0
1,70,0,120
1,67,0,0
1,62,0,0
1,72,110,0
1,72,0,30
1,70,110,0
1,70,0,30
1,67,110,0
1,67,0,59
1,74,110,91
1,74,0,29
1,75,110,1
1,75,0,29
1,74,110,1
1,74,0,29
1,74,110,1
1,74,0,30
1,72,110,0
1,72,0,29
1,72,110,1
1,72,0,210
1,72,110,120
1,72,0,29
1,67,110,1
1,75,110,0
1,75,0,29
1,67,0,0
1,67,110,1
1,75,110,0
1,75,0,29
1,67,0,0
1,74,110,1
1,74,0,30
1,72,110,0
1,72,0,29
1,65,110,1
1,70,110,0
1,72,110,0
1,72,0,210
1,70,0,0
1,65,0,0
1,72,110,120
1,72,0,29
1,74,110,1
1,74,0,29
1,72,110,1
1,72,0,29
1,72,110,1
1,72,0,30
1,70,110,0
1,70,0,29
1,62,110,1
1,70,110,0
1,70,0,210
1,62,0,0
1,65,110,30
1,69,110,0
1,72,110,0
1,72,0,100
1,69,0,0
1,65,0,0
1,65,110,20
1,69,110,0
1,72,110,0
1,72,0,100
1,69,0,0
1,65,0,0
1,65,110,20
1,69,110,0
1,72,110,0
1,72,0,100
1,69,0,0
1,65,0,0
1,65,110,20
1,69,110,0
1,72,110,0
1,72,0,100
1,69,0,0
1,65,0,0
1,65,110,20
1,70,110,0
1,74,110,0
1,74,0,100
1,70,0,0
1,65,0,0
1,65,110,20
1,70,110,0
1,74,110,0
1,74,0,100
1,70,0,0
1,65,0,0
1,65,110,20
1,70,110,0
1,74,110,0
1,74,0,100
1,70,0,0
1,65,0,0
1,65,110,20
1,70,110,0
1,74,110,0
1,74,0,100
1,70,0,0
1,65,0,0
1,67,110,20
1,70,110,0
1,74,110,0
1,74,0,100
1,70,0,0
1,67,0,0
1,67,110,20
1,70,110,0
1,74,110,0
1,74,0,100
1,70,0,0
1,67,0,0
1,67,110,20
1,70,110,0
1,74,110,0
1,74,0,100
1,70,0,0
1,67,0,0
1,62,110,80
1,62,0,29
1,65,110,1
1,65,0,29
1,58,110,1
1,65,110,0
1,65,0,59
1,58,0,0
1,67,110,1
1,67,0,59
1,58,110,1
1,67,110,0
1,67,0,59
1,58,0,0
1,65,110,1
1,65,0,29
1,58,110,1
1,67,110,0
1,67,0,130
1,58,0,0
1,67,110,80
1,67,0,29
1,70,110,1
1,70,0,29
1,63,110,1
1,70,110,0
1,70,0,59
1,63,0,0
1,72,110,1
1,72,0,59
1,63,110,1
1,72,110,0
1,72,0,59
1,63,0,0
1,70,110,1
1,70,0,59
1,63,110,1
1,72,110,0
1,72,0,30
1,63,0,0
1,70,110,0
1,70,0,30
1,67,110,0
1,67,0,59
1,67,110,61
1,67,0,29
1,70,110,1
1,70,0,29
1,63,110,1
1,70,110,0
1,70,0,59
1,63,0,0
1,72,110,1
1,72,0,29
1,63,110,1
1,72,110,0
1,72,0,89
1,63,0,0
1,72,110,1
1,72,0,59
1,63,110,1
1,72,110,0
1,72,0,59
1,63,0,0
1,70,110,1
1,70,0,59
1,70,110,1
1,70,0,59
1,68,110,1
1,68,0,29
1,68,110,1
1,68,0,29
1,60,110,1
1,68,110,0
1,68,0,59
1,60,0,0
1,67,110,1
1,67,0,29
1,60,110,1
1,67,110,0
1,67,0,89
1,60,0,0
1,65,110,1
1,65,0,59
1,60,110,1
1,65,110,0
1,65,0,60
1,60,0,0
1,67,110,0
1,67,0,59
1,63,110,61
1,63,0,59
1,63,110,1
1,63,0,59
1,62,110,1
1,65,110,0
1,65,0,59
1,62,0,0
1,62,110,1
1,65,110,0
1,65,0,59
1,62,0,0
1,65,110,1
1,65,0,29
1,62,110,1
1,65,110,0
1,65,0,130
1,62,0,0
1,67,110,80
1,67,0,29
1,68,110,1
1,68,0,29
1,63,110,1
1,70,110,0
1,70,0,59
1,63,0,0
1,70,110,1
1,70,0,29
1,63,110,1
1,70,110,0
1,70,0,89
1,63,0,0
1,70,110,1
1,70,0,29
1,63,110,1
1,72,110,0
1,72,0,60
1,63,0,0
1,70,110,0
1,70,0,30
1,68,110,0
1,68,0,59
1,60,110,61
1,60,0,29
1,60,110,1
1,60,0,29
1,60,110,1
1,68,110,0
1,68,0,59
1,60,0,0
1,67,110,1
1,67,0,59
1,60,110,1
1,65,110,0
1,65,0,59
1,60,0,0
1,63,110,1
1,63,0,29
1,60,110,1
1,68,110,0
1,68,0,89
1,60,0,0
1,67,110,1
1,67,0,59
1,60,110,1
1,65,110,0
1,65,0,89
1,60,0,0
1,63,110,1
1,63,0,29
1,63,110,1
1,63,0,59
1,65,110,1
1,65,0,59
1,62,110,1
1,65,110,0
1,65,0,89
1,62,0,0
1,63,110,1
1,63,0,29
1,65,110,1
1,65,0,89
1,58,110,1
1,58,0,29
1,67,110,1
1,67,0,29
1,65,110,1
1,65,0,29
1,65,110,1
1,65,0,30
1,63,110,0
1,63,0,29
1,58,110,1
1,63,110,0
1,63,0,210
1,58,0,0
1,58,110,120
1,58,0,29
1,58,110,1
1,67,110,0
1,67,0,29
1,58,0,0
1,65,110,1
1,65,0,29
1,65,110,1
1,65,0,30
1,63,110,0
1,63,0,29
1,60,110,1
1,63,110,0
1,63,0,120
1,60,0,0
1,65,110,0
1,65,0,30
1,63,110,0
1,63,0,30
1,60,110,0
1,60,0,59
1,60,110,91
1,60,0,29
1,60,110,1
1,68,110,0
1,68,0,29
1,67,110,1
1,67,0,29
1,67,110,1
1,67,0,30
1,65,110,0
1,60,0,10
1,65,0,19
1,65,110,1
1,65,0,210
1,60,110,120
1,60,0,29
1,60,110,1
1,68,110,0
1,68,0,29
1,67,110,1
1,67,0,29
1,70,110,1
1,60,0,40
1,70,0,19
1,62,110,1
1,67,110,0
1,67,0,120
1,62,0,0
1,62,110,0
1,65,110,0
1,65,0,100
1,62,0,0
1,58,110,110
1,58,0,29
1,67,110,1
1,67,0,29
1,67,110,1
1,67,0,29
1,65,110,1
1,65,0,30
1,63,110,0
1,63,0,29
1,58,110,1
1,63,110,0
1,63,0,210
1,58,0,0
1,58,110,120
1,58,0,29
1,58,110,1
1,67,110,0
1,67,0,29
1,65,110,1
1,65,0,29
1,65,110,1
1,65,0,29
1,63,110,1
1,58,0,10
1,63,0,19
1,60,110,1
1,63,110,0
1,63,0,120
1,60,0,0
1,65,110,0
1,65,0,30
1,63,110,0
1,63,0,30
1,60,110,0
1,60,0,59
1,67,110,61
1,67,0,59
1,60,110,1
1,68,110,0
1,68,0,29
1,68,110,1
1,68,0,29
1,67,110,1
1,60,0,40
1,67,0,19
1,56,110,1
1,65,110,0
1,65,0,210
1,56,0,0
1,60,110,120
1,60,0,29
1,60,110,1
1,68,110,0
1,68,0,29
1,68,110,1
1,68,0,29
1,67,110,1
1,67,0,30
1,65,110,0
1,60,0,10
1,65,0,19
1,62,110,1
1,65,110,0
1,65,0,210
1,62,0,0
1,58,110,120
1,58,0,29
1,67,110,1
1,67,0,29
1,67,110,1
1,67,0,29
1,65,110,1
1,65,0,30
1,63,110,0
1,63,0,29
1,55,110,1
1,58,110,0
1,63,110,0
1,63,0,450
1,58,0,0
1,55,0,0
2,58,110,0
2,58,0,59
2,62,110,1
2,62,0,59
2,65,110,1
2,65,0,59
2,62,110,1
2,62,0,59
2,57,110,1
2,57,0,59
2,62,110,1
2,62,0,59
2,65,110,1
2,65,0,59
2,62,110,1
2,62,0,59
2,55,110,1
2,55,0,59
2,58,110,1
2,58,0,59
2,62,110,1
2,62,0,59
2,58,110,1
2,58,0,59
2,53,110,1
2,53,0,59
2,58,110,1
2,58,0,59
2,62,110,1
2,62,0,59
2,58,110,1
2,58,0,59
2,51,110,1
2,51,0,59
2,55,110,1
2,55,0,59
2,58,110,1
2,58,0,59
2,55,110,1
2,55,0,59
2,50,110,1
2,50,0,59
2,55,110,1
2,55,0,59
2,58,110,1
2,58,0,59
2,55,110,1
2,55,0,59
2,48,110,1
2,48,0,59
2,51,110,1
2,51,0,59
2,55,110,1
2,55,0,59
2,51,110,1
2,51,0,59
2,46,110,1
2,46,0,59
2,51,110,1
2,51,0,59
2,55,110,1
2,55,0,59
2,51,110,1
2,51,0,59
2,53,110,1
2,53,0,59
2,57,110,1
2,57,0,59
2,60,110,1
2,60,0,59
2,57,110,1
2,57,0,59
2,51,110,1
2,51,0,59
2,55,110,1
2,55,0,59
2,58,110,1
2,58,0,59
2,55,110,1
2,55,0,59
2,50,110,1
2,50,0,59
2,53,110,1
2,53,0,59
2,58,110,1
2,58,0,59
2,53,110,1
2,53,0,59
2,51,110,1
2,51,0,59
2,55,110,1
2,55,0,59
2,58,110,1
2,58,0,59
2,55,110,1
2,55,0,59
2,48,110,1
2,48,0,59
2,51,110,1
2,51,0,59
2,55,110,1
2,55,0,59
2,51,110,1
2,51,0,59
2,46,110,1
2,46,0,59
2,51,110,1
2,51,0,59
2,55,110,1
2,55,0,59
2,51,110,1
2,51,0,59
2,41,110,1
2,41,0,210
2,43,110,30
2,43,0,210
2,46,110,30
2,46,0,160
2,46,110,20
2,46,0,59
2,45,110,1
2,45,0,160
2,45,110,20
2,45,0,59
2,43,110,1
2,43,0,160
2,43,110,20
2,43,0,59
2,51,110,1
2,51,0,100
2,53,110,20
2,53,0,100
2,58,110,20
2,58,0,59
2,62,110,1
2,62,0,59
2,65,110,1
2,65,0,59
2,62,110,1
2,62,0,59
2,57,110,1
2,57,0,59
2,62,110,1
2,62,0,59
2,65,110,1
2,65,0,59
2,62,110,1
2,62,0,59
2,55,110,1
2,55,0,59
2,58,110,1
2,58,0,59
2,62,110,1
2,62,0,59
2,58,110,1
2,58,0,59
2,53,110,1
2,53,0,59
2,58,110,1
2,58,0,59
2,62,110,1
2,62,0,59
2,58,110,1
2,58,0,59
2,51,110,1
2,51,0,59
2,55,110,1
2,55,0,59
2,58,110,1
2,58,0,59
2,55,110,1
2,55,0,59
2,50,110,1
2,50,0,59
2,55,110,1
2,55,0,59
2,58,110,1
2,58,0,59
2,55,110,1
2,55,0,59
2,48,110,1
2,48,0,59
2,51,110,1
2,51,0,59
2,55,110,1
2,55,0,59
2,51,110,1
2,51,0,59
2,46,110,1
2,46,0,59
2,51,110,1
2,51,0,59
2,55,110,1
2,55,0,59
2,51,110,1
2,51,0,59
2,53,110,1
2,53,0,59
2,57,110,1
2,57,0,59
2,60,110,1
2,60,0,59
2,57,110,1
2,57,0,59
2,51,110,1
2,51,0,59
2,55,110,1
2,55,0,59
2,58,110,1
2,58,0,59
2,55,110,1
2,55,0,59
2,50,110,1
2,50,0,59
2,53,110,1
2,53,0,59
2,58,110,1
2,58,0,59
2,53,110,1
2,53,0,59
2,51,110,1
2,51,0,59
2,55,110,1
2,55,0,59
2,58,110,1
2,58,0,59
2,55,110,1
2,55,0,59
2,48,110,1
2,48,0,59
2,51,110,1
2,51,0,59
2,55,110,1
2,55,0,59
2,51,110,1
2,51,0,59
2,46,110,1
2,46,0,59
2,51,110,1
2,51,0,59
2,55,110,1
2,55,0,59
2,51,110,1
2,51,0,59
