track,note,velocity,time
0,60,108,773
0,60,0,4
0,64,92,1
0,64,0,4
0,60,60,38
0,60,0,4
0,60,40,44
0,60,0,4
0,64,24,5
0,64,0,4
0,60,24,35
0,60,0,4
0,60,76,44
0,60,0,4
0,64,64,1
0,64,0,4
0,60,68,87
0,64,60,0
0,64,0,4
0,60,0,0
0,64,72,91
0,60,92,3
0,64,0,1
0,60,0,3
0,60,45,90
0,64,40,1
0,60,0,3
0,64,0,1
0,64,54,91
0,63,79,2
0,64,0,2
0,63,0,2
0,64,54,90
0,64,0,4
0,64,56,89
0,60,108,3
0,64,0,1
0,60,0,3
0,60,64,44
0,60,0,4
0,49,1,12
0,49,0,4
0,57,2,28
0,60,45,0
0,60,0,4
0,57,0,0
0,64,56,0
0,64,0,4
0,49,4,8
0,49,0,4
0,57,4,14
0,57,0,4
0,60,28,10
0,60,0,4
0,49,6,12
0,49,0,4
0,57,7,13
0,57,0,4
0,60,71,11
0,49,8,2
0,64,64,0
0,60,0,2
0,64,0,2
0,49,0,0
0,57,9,26
0,57,0,4
0,49,10,12
0,49,0,4
0,57,12,28
0,57,0,4
0,64,36,11
0,49,12,1
0,60,53,0
0,64,0,3
0,60,0,1
0,49,0,0
0,57,14,14
0,57,0,4
0,49,14,12
0,49,0,4
0,57,16,28
0,57,0,4
0,49,18,12
0,49,0,4
0,64,56,9
0,60,71,3
0,64,0,1
0,60,0,3
0,57,19,11
0,57,0,4
0,49,19,11
0,49,0,4
0,57,21,28
0,57,0,4
0,49,22,12
0,49,0,4
0,65,107,12
0,60,45,1
0,64,32,2
0,65,0,1
0,60,0,1
0,64,0,2
0,57,24,9
0,57,0,4
0,65,99,6
0,65,0,4
0,49,25,2
0,49,0,4
0,65,107,6
0,65,0,4
0,57,26,4
0,57,0,4
0,65,75,10
0,65,0,4
0,49,27,12
0,49,0,4
0,65,123,2
0,65,0,4
0,57,28,8
0,63,79,0
0,64,45,0
0,64,0,4
0,63,0,0
0,57,0,0
0,49,29,26
0,49,0,4
0,57,31,12
0,57,0,4
0,49,32,14
0,49,0,4
0,57,32,12
0,57,0,4
0,65,123,9
0,64,52,3
0,65,0,1
0,64,0,3
0,49,34,10
0,49,0,4
0,57,35,12
0,57,0,4
0,49,36,14
0,49,0,4
0,49,37,26
0,57,37,0
0,57,0,4
0,49,0,0
0,57,62,8
0,69,62,3
0,50,86,1
0,26,65,1
0,36,123,0
0,70,118,0
0,74,55,0
0,83,43,2
0,74,0,2
0,36,0,0
0,70,0,0
0,64,99,1
0,83,0,1
0,57,65,1
0,64,0,2
0,57,0,2
0,26,0,27
0,40,41,57
0,26,57,1
0,38,54,0
0,40,0,3
0,38,0,1
0,64,31,4
0,64,0,4
0,70,49,4
0,70,0,4
0,38,45,6
0,38,0,4
0,26,0,6
0,70,64,2
0,38,45,3
0,70,0,1
0,38,0,3
0,70,74,8
0,70,0,4
0,38,54,3
0,38,0,4
0,38,63,15
0,70,86,3
0,38,0,1
0,70,0,3
0,38,123,10
0,38,0,4
0,64,71,0
0,64,0,4
0,62,94,2
0,62,0,4
0,64,67,81
0,26,61,1
0,36,123,0
0,70,78,0
0,64,0,3
0,70,0,1
0,36,0,0
0,26,0,23
0,74,59,64
0,40,41,2
0,64,79,1
0,74,0,1
0,26,69,1
0,38,54,0
0,70,78,0
0,40,0,1
0,64,0,1
0,62,91,0
0,83,43,1
0,38,0,1
0,70,0,0
0,62,0,2
0,83,0,1
0,38,45,19
0,38,0,4
0,26,0,6
0,38,45,5
0,38,0,4
0,38,54,15
0,38,0,4
0,38,63,20
0,38,0,4
0,26,61,8
0,38,115,0
0,64,47,0
0,70,86,0
0,70,0,4
0,64,0,0
0,38,0,0
0,26,0,23
0,40,41,68
0,26,53,1
0,38,54,0
0,63,107,0
0,40,0,3
0,63,0,1
0,38,0,0
0,38,45,22
0,38,0,4
0,26,0,10
0,38,45,1
0,38,0,4
0,38,54,15
0,38,0,4
0,38,63,20
0,38,0,4
0,64,61,7
0,26,17,1
0,38,119,0
0,70,78,0
0,64,0,3
0,70,0,1
0,38,0,0
0,26,0,16
0,64,63,72
0,74,59,1
0,26,49,3
0,64,0,0
0,36,123,0
0,70,69,0
0,83,42,0
0,74,0,1
0,36,0,3
0,70,0,0
0,83,0,0
0,26,0,40
0,40,41,50
0,26,41,2
0,38,54,0
0,40,0,2
0,64,63,1
0,38,0,1
0,64,0,3
0,70,49,10
0,70,0,4
0,38,45,5
0,38,0,4
0,26,0,6
0,70,64,3
0,38,45,2
0,70,0,2
0,38,0,2
0,70,74,9
0,70,0,4
0,38,54,2
0,38,0,4
0,70,93,19
0,38,63,1
0,70,0,3
0,38,0,1
0,62,93,5
0,38,119,3
0,62,0,1
0,64,71,0
0,38,0,3
0,64,0,1
0,64,43,89
0,26,49,2
0,36,123,0
0,70,95,0
0,64,0,2
0,70,0,2
0,36,0,0
0,26,0,28
0,62,91,56
0,62,0,4
0,74,39,1
0,40,41,1
0,64,63,0
0,83,42,1
0,26,61,1
0,38,54,0
0,70,95,0
0,74,0,1
0,40,0,1
0,64,0,0
0,83,0,1
0,38,0,1
0,70,0,0
0,38,45,22
0,38,0,4
0,26,0,8
0,38,45,3
0,38,0,4
0,38,54,15
0,38,0,4
0,38,63,20
0,38,0,4
0,26,65,8
0,38,115,0
0,70,98,0
0,64,39,2
0,70,0,2
0,38,0,0
0,64,0,2
0,26,0,30
0,26,65,60
0,38,54,0
0,40,41,0
0,63,107,0
0,63,0,4
0,40,0,0
0,38,0,0
0,38,45,22
0,38,0,4
0,26,0,11
0,38,45,0
0,38,0,4
0,38,54,15
0,38,0,4
0,38,63,20
0,38,0,4
0,26,65,8
0,38,119,0
0,70,102,0
0,64,59,1
0,70,0,3
0,38,0,0
0,64,0,1
0,26,0,30
0,74,79,54
0,74,59,2
0,74,0,4
0,83,42,0
0,26,57,1
0,36,119,0
0,70,118,0
0,83,0,3
0,70,0,1
0,36,0,0
0,64,99,1
0,64,0,4
0,26,0,39
0,40,41,46
0,26,61,2
0,38,54,0
0,40,0,2
0,38,0,2
0,64,31,4
0,64,0,4
0,70,49,5
0,70,0,4
0,38,45,5
0,38,0,4
0,26,0,5
0,70,64,4
0,38,45,2
0,70,0,2
0,38,0,2
0,70,74,9
0,70,0,4
0,38,54,2
0,38,0,4
0,70,93,19
0,38,63,1
0,70,0,3
0,38,0,1
0,38,123,8
0,38,0,4
0,62,101,0
0,64,71,0
0,64,0,4
0,62,0,0
0,64,67,87
0,26,61,1
0,36,123,0
0,70,118,0
0,64,0,3
0,70,0,1
0,36,0,0
0,26,0,29
0,74,47,43
0,83,42,0
0,40,41,3
0,62,91,0
0,64,79,0
0,83,0,1
0,74,0,0
0,26,41,1
0,38,54,0
0,70,118,0
0,62,0,2
0,64,0,0
0,40,0,0
0,38,0,2
0,70,0,0
0,38,45,22
0,38,0,4
0,38,45,11
0,26,0,2
0,38,0,2
0,38,54,15
0,38,0,4
0,38,63,20
0,38,0,4
0,26,45,8
0,38,115,0
0,64,47,0
0,70,118,0
0,70,0,4
0,64,0,0
0,38,0,0
0,26,0,29
0,63,116,59
0,40,41,3
0,26,61,1
0,63,0,0
0,38,54,0
0,40,0,3
0,38,0,1
0,38,45,22
0,38,0,4
0,26,0,8
0,38,45,3
0,38,0,4
0,38,54,15
0,38,0,4
0,38,63,20
0,38,0,4
0,64,61,7
0,26,24,1
0,38,123,0
0,70,118,0
0,64,0,3
0,70,0,1
0,38,0,0
0,26,0,26
0,74,67,61
0,64,63,1
0,83,41,1
0,74,0,2
0,26,49,1
0,64,0,0
0,36,123,0
0,70,118,0
0,74,60,0
0,83,0,1
0,70,0,3
0,36,0,0
0,26,0,44
0,40,41,46
0,26,33,2
0,38,54,0
0,40,0,2
0,64,63,1
0,38,0,1
0,64,0,3
0,70,49,9
0,70,0,4
0,38,45,6
0,38,0,4
0,70,64,8
0,26,0,2
0,38,45,1
0,70,0,1
0,38,0,3
0,70,74,8
0,70,0,4
0,38,54,3
0,38,0,4
0,70,93,18
0,38,63,2
0,70,0,2
0,38,0,2
0,38,123,7
0,62,82,2
0,64,71,0
0,38,0,2
0,64,0,2
0,62,0,0
0,64,43,89
0,26,53,2
0,36,123,0
0,70,118,0
0,64,0,2
0,70,0,2
0,36,0,0
0,26,0,29
0,62,84,56
0,62,0,4
0,74,47,0
0,83,41,0
0,40,41,1
0,64,63,0
0,26,61,2
0,38,54,0
0,83,0,1
0,74,0,0
0,64,0,1
0,40,0,0
0,38,0,2
0,38,45,22
0,38,0,4
0,38,45,11
0,26,0,3
0,38,0,1
0,38,54,15
0,38,0,4
0,38,63,20
0,38,0,4
0,26,37,8
0,38,119,0
0,70,98,0
0,64,39,2
0,70,0,2
0,38,0,0
0,64,0,2
0,26,0,29
0,63,98,54
0,63,0,4
0,40,41,2
0,26,49,1
0,38,54,0
0,40,0,3
0,38,0,1
0,38,45,22
0,38,0,4
0,38,45,11
0,38,0,4
0,26,0,6
0,38,54,9
0,38,0,4
0,38,63,20
0,38,0,4
0,26,33,8
0,70,102,0
0,64,59,1
0,38,123,1
0,70,0,2
0,64,0,1
0,38,0,1
0,26,0,30
0,69,0,5
0,65,85,43
0,50,0,5
0,57,0,0
0,69,99,0
0,57,50,2
0,62,50,0
0,65,50,0
0,26,65,5
0,36,119,0
0,70,118,0
0,74,43,0
0,81,83,1
0,83,43,1
0,74,115,0
0,74,0,2
0,36,0,0
0,70,0,0
0,64,99,1
0,83,0,1
0,57,65,1
0,64,0,2
0,57,0,2
0,26,0,27
0,40,41,57
0,26,57,1
0,38,54,0
0,40,0,3
0,38,0,1
0,81,0,2
0,64,31,2
0,64,0,4
0,70,49,4
0,70,0,4
0,38,45,6
0,38,0,4
0,26,0,6
0,70,64,2
0,38,45,3
0,70,0,1
0,38,0,3
0,74,0,2
0,70,74,6
0,70,0,4
0,38,54,3
0,38,0,4
0,65,0,5
0,38,63,10
0,70,86,3
0,38,0,1
0,70,0,3
0,77,87,9
0,38,123,1
0,65,72,0
0,38,0,4
0,64,71,0
0,64,0,4
0,69,0,1
0,62,94,1
0,62,0,4
0,77,0,65
0,64,67,16
0,26,61,1
0,36,123,0
0,70,78,0
0,62,64,0
0,64,0,3
0,70,0,1
0,36,0,0
0,26,0,23
0,40,41,66
0,64,79,1
0,26,69,2
0,38,54,0
0,70,78,0
0,74,43,0
0,40,0,1
0,64,0,1
0,62,91,0
0,81,87,1
0,83,43,0
0,70,0,1
0,74,0,0
0,38,0,0
0,62,0,2
0,83,0,1
0,38,45,19
0,38,0,4
0,26,0,6
0,65,0,1
0,74,0,0
0,38,45,4
0,38,0,4
0,38,54,15
0,38,0,4
0,81,0,17
0,38,63,3
0,38,0,4
0,65,93,1
0,69,105,4
0,26,61,3
0,38,115,0
0,64,47,0
0,70,86,0
0,70,0,4
0,64,0,0
0,38,0,0
0,74,108,0
0,26,0,23
0,62,0,19
0,77,83,38
0,72,95,4
0,40,41,7
0,26,53,1
0,38,54,0
0,63,107,0
0,40,0,3
0,63,0,1
0,38,0,0
0,38,45,22
0,38,0,4
0,26,0,10
0,38,45,1
0,65,0,0
0,38,0,4
0,38,54,15
0,38,0,4
0,69,0,17
0,38,63,3
0,38,0,4
0,77,0,6
0,74,0,0
0,72,0,0
0,64,61,1
0,26,17,1
0,38,119,0
0,70,78,0
0,64,0,3
0,70,0,1
0,38,0,0
0,26,0,16
0,64,82,53
0,67,95,10
0,72,112,5
0,65,0,1
0,62,0,0
0,57,0,0
0,60,50,2
0,64,50,0
0,67,35,0
0,81,83,0
0,64,63,1
0,26,49,4
0,64,0,0
0,36,119,0
0,70,69,0
0,74,43,0
0,83,42,0
0,74,115,0
0,83,0,4
0,36,0,0
0,70,0,0
0,74,0,0
0,26,0,40
0,81,0,37
0,40,41,13
0,26,41,2
0,38,54,0
0,40,0,2
0,64,63,1
0,38,0,1
0,64,0,3
0,70,49,10
0,70,0,4
0,38,45,5
0,38,0,4
0,64,0,3
0,26,0,3
0,70,64,3
0,38,45,2
0,70,0,2
0,38,0,2
0,70,74,9
0,70,0,4
0,38,54,2
0,38,0,4
0,70,93,19
0,38,63,1
0,70,0,3
0,38,0,1
0,76,71,4
0,62,93,1
0,64,74,2
0,38,119,1
0,62,0,1
0,64,71,0
0,38,0,3
0,64,0,1
0,67,0,37
0,76,0,45
0,64,43,7
0,26,49,2
0,36,119,0
0,70,95,0
0,73,43,0
0,64,0,2
0,67,91,0
0,36,0,2
0,70,0,0
0,73,0,0
0,26,0,28
0,72,91,55
0,62,91,1
0,62,0,4
0,40,41,2
0,64,63,0
0,83,42,1
0,26,61,1
0,38,54,0
0,70,95,0
0,74,42,0
0,64,0,2
0,40,0,0
0,83,0,1
0,38,0,1
0,70,0,0
0,74,0,0
0,64,0,4
0,38,45,18
0,38,0,4
0,67,0,1
0,26,0,7
0,38,45,3
0,38,0,4
0,74,0,13
0,38,54,2
0,72,0,3
0,38,0,1
0,72,0,13
0,38,63,7
0,64,87,3
0,38,0,1
0,67,101,6
0,26,65,2
0,38,115,0
0,70,98,0
0,64,39,2
0,70,0,2
0,38,0,0
0,72,91,0
0,64,0,2
0,74,106,2
0,26,0,28
0,72,0,28
0,76,75,23
0,74,0,7
0,72,106,1
0,26,65,1
0,38,54,0
0,40,41,0
0,63,107,0
0,63,0,4
0,40,0,0
0,38,0,0
0,38,45,22
0,38,0,4
0,72,0,8
0,26,0,3
0,38,45,0
0,38,0,4
0,38,54,15
0,67,0,3
0,38,0,1
0,64,0,6
0,76,0,12
0,38,63,2
0,38,0,4
0,26,65,8
0,38,119,0
0,70,102,0
0,64,59,1
0,70,0,3
0,38,0,0
0,64,0,1
0,26,0,30
0,65,82,37
0,69,98,9
0,67,0,8
0,64,0,0
0,60,0,0
0,81,83,1
0,57,50,1
0,62,50,0
0,65,50,0
0,74,117,2
0,83,42,2
0,26,57,1
0,36,123,0
0,70,118,0
0,74,42,0
0,83,0,3
0,36,0,1
0,70,0,0
0,74,0,0
0,64,99,1
0,64,0,4
0,26,0,39
0,81,0,41
0,40,41,5
0,26,61,2
0,38,54,0
0,40,0,2
0,38,0,2
0,64,31,4
0,64,0,4
0,70,49,5
0,70,0,4
0,38,45,5
0,38,0,4
0,26,0,5
0,70,64,4
0,38,45,2
0,70,0,2
0,38,0,2
0,65,0,5
0,70,74,4
0,70,0,4
0,38,54,2
0,38,0,4
0,70,93,19
0,38,63,1
0,70,0,3
0,77,95,1
0,38,0,0
0,65,78,6
0,38,123,2
0,38,0,4
0,62,101,0
0,64,71,0
0,64,0,4
0,62,0,0
0,69,0,21
0,77,0,38
0,64,67,28
0,69,95,0
0,26,61,1
0,36,115,0
0,70,118,0
0,64,0,3
0,70,0,1
0,36,0,0
0,26,0,29
0,81,83,57
0,83,42,1
0,40,41,3
0,62,91,0
0,64,79,0
0,83,0,1
0,26,41,1
0,38,54,0
0,70,118,0
0,74,42,0
0,65,0,1
0,40,0,1
0,64,0,0
0,62,0,0
0,38,0,2
0,70,0,0
0,74,0,0
0,38,45,22
0,38,0,4
0,69,0,0
0,38,45,11
0,26,0,2
0,38,0,2
0,74,0,8
0,65,85,1
0,38,54,6
0,38,0,4
0,69,94,2
0,81,0,15
0,38,63,3
0,74,125,2
0,38,0,2
0,26,45,8
0,38,115,0
0,64,47,0
0,70,118,0
0,70,0,4
0,64,0,0
0,38,0,0
0,26,0,29
0,72,91,58
0,63,116,1
0,74,0,2
0,40,41,1
0,26,61,1
0,63,0,0
0,38,54,0
0,40,0,3
0,77,87,1
0,38,0,0
0,69,0,18
0,65,0,1
0,38,45,3
0,38,0,4
0,72,0,2
0,26,0,6
0,38,45,3
0,38,0,4
0,38,54,15
0,38,0,4
0,38,63,20
0,38,0,4
0,77,0,3
0,64,61,4
0,26,24,1
0,38,123,0
0,70,118,0
0,64,0,3
0,70,0,1
0,38,0,0
0,26,0,26
0,81,79,56
0,64,105,0
