track,note,velocity,time
0,72,56,204
0,75,65,25
0,72,0,2
0,75,80,12
0,73,69,108
0,75,0,5
0,72,78,15
0,73,0,3
0,75,63,27
0,72,0,1
0,82,60,0
0,60,60,0
0,68,100,0
0,72,100,0
0,63,100,0
0,60,0,15
0,56,60,15
0,56,0,15
0,70,60,0
0,60,60,0
0,75,0,8
0,60,0,7
0,75,87,1
0,56,60,14
0,56,0,15
0,82,60,15
0,70,0,0
0,60,60,0
0,60,0,15
0,56,60,15
0,56,0,15
0,82,0,15
0,60,60,0
0,60,0,15
0,56,60,15
0,56,0,15
0,82,60,15
0,60,60,0
0,60,0,15
0,56,60,15
0,56,0,15
0,82,0,15
0,70,60,0
0,60,60,0
0,60,0,15
0,56,60,15
0,56,0,15
0,82,60,15
0,70,0,0
0,60,60,0
0,60,0,15
0,56,60,15
0,56,0,15
0,82,0,15
0,60,60,0
0,60,0,15
0,56,60,15
0,56,0,15
0,82,60,15
0,60,60,0
0,60,0,15
0,56,60,15
0,56,0,15
0,82,0,15
0,70,60,0
0,60,60,0
0,60,0,15
0,56,60,15
0,56,0,15
0,82,60,15
0,70,0,0
0,60,60,0
0,60,0,15
0,56,60,15
0,56,0,15
0,82,0,15
0,60,60,0
0,75,0,4
0,60,0,11
0,75,100,10
0,56,60,0
0,56,0,15
0,75,0,3
0,75,84,11
0,82,60,0
0,60,60,0
0,60,0,15
0,56,60,15
0,56,0,15
0,75,0,3
0,75,90,0
0,82,0,0
0,70,60,0
0,60,60,0
0,60,0,15
0,56,60,15
0,56,0,15
0,82,60,15
0,70,0,0
0,60,60,0
0,60,0,15
0,56,60,0
0,80,85,1
0,75,0,3
0,56,0,11
0,82,0,15
0,60,60,0
0,60,0,15
0,79,103,5
0,56,60,5
0,80,0,1
0,56,0,14
0,63,0,14
0,82,60,0
0,60,60,0
0,65,100,0
0,79,0,6
0,77,92,6
0,60,0,3
0,56,60,15
0,56,0,15
0,82,0,15
0,70,60,0
0,60,60,0
0,60,0,15
0,56,60,15
0,56,0,15
0,82,60,15
0,70,0,0
0,60,60,0
0,60,0,15
0,56,60,15
0,56,0,15
0,82,0,15
0,60,60,0
0,60,0,15
0,56,60,15
0,56,0,15
0,82,60,15
0,60,60,0
0,60,0,15
0,56,60,15
0,56,0,15
0,82,0,15
0,70,60,0
0,60,60,0
0,60,0,15
0,56,60,15
0,56,0,15
0,82,60,15
0,70,0,0
0,60,60,0
0,60,0,15
0,56,60,15
0,56,0,15
0,82,0,15
0,60,60,0
0,60,0,15
0,56,60,15
0,56,0,15
0,82,60,15
0,60,60,0
0,60,0,15
0,56,60,15
0,56,0,15
0,82,0,15
0,70,60,0
0,60,60,0
0,60,0,15
0,56,60,15
0,56,0,15
0,82,60,15
0,70,0,0
0,60,60,0
0,60,0,15
0,56,60,15
0,56,0,15
0,82,0,15
0,60,60,0
0,60,0,15
0,77,0,10
0,77,92,3
0,56,60,0
0,56,0,15
0,77,0,6
0,77,85,8
0,82,60,0
0,60,60,0
0,60,0,15
0,56,60,15
0,56,0,15
0,77,0,3
0,77,84,11
0,70,60,0
0,60,60,0
0,60,0,15
0,56,60,15
0,56,0,15
0,82,60,15
0,70,0,0
0,60,60,0
0,60,0,15
0,79,64,12
0,56,60,0
0,77,0,4
0,56,0,11
0,82,0,15
0,60,60,0
0,80,103,11
0,79,0,4
0,60,0,0
0,56,60,0
0,56,0,15
0,65,0,14
0,82,60,0
0,60,60,0
0,63,100,0
0,32,100,0
0,75,80,6
0,80,0,5
0,60,0,4
0,56,60,15
0,56,0,15
0,70,60,0
0,60,60,0
0,72,49,15
0,60,0,0
0,75,0,1
0,56,60,0
0,56,0,15
0,75,84,1
0,72,0,5
0,82,60,9
0,70,0,0
0,60,60,0
0,56,60,15
0,56,0,15
0,82,0,15
0,60,60,0
0,60,0,15
0,56,60,15
0,56,0,15
0,82,60,15
0,60,60,0
0,56,60,15
0,56,0,15
0,82,0,15
0,70,60,0
0,60,60,0
0,60,0,15
0,56,60,15
0,56,0,15
0,82,60,15
0,70,0,0
0,60,60,0
0,56,60,15
0,56,0,15
0,60,60,0
0,60,0,15
0,56,60,15
0,82,60,4
0,60,60,0
0,32,0,0
0,60,0,15
0,56,60,15
0,56,0,15
0,82,0,15
0,70,60,0
0,60,60,0
0,60,0,15
0,56,60,15
0,56,0,15
0,82,60,15
0,70,0,0
0,60,60,0
0,60,0,15
0,56,60,15
0,56,0,15
0,82,0,15
0,60,60,0
0,75,0,11
0,60,0,4
0,75,94,12
0,56,60,0
0,56,0,15
0,75,0,4
0,82,60,0
0,60,60,0
0,75,82,2
0,60,0,13
0,56,60,15
0,56,0,15
0,75,0,4
0,75,72,5
0,82,0,3
0,70,60,0
0,60,60,0
0,60,0,15
0,56,60,15
0,56,0,15
0,82,60,15
0,70,0,0
0,60,60,0
0,60,0,15
0,73,78,5
0,75,0,4
0,56,60,0
0,56,0,15
0,82,0,15
0,60,60,0
0,72,77,11
0,73,0,4
0,60,0,0
0,56,60,10
0,56,0,15
0,72,0,14
0,68,0,0
0,82,60,0
0,58,60,0
0,67,100,0
0,70,100,0
0,87,100,0
0,70,72,15
0,58,0,0
0,72,0,3
0,55,60,12
0,55,0,15
0,82,0,15
0,70,60,0
0,58,60,0
0,58,0,15
0,55,60,15
0,55,0,15
0,82,60,15
0,70,0,0
0,58,60,0
0,58,0,15
0,55,60,15
0,55,0,15
0,82,0,15
0,58,60,0
0,58,0,15
0,55,60,15
0,55,0,15
0,82,60,15
0,58,60,0
0,58,0,15
0,55,60,15
0,55,0,15
0,82,0,15
0,70,60,0
0,58,60,0
0,58,0,15
0,55,60,15
0,55,0,15
0,82,60,15
0,70,0,0
0,58,60,0
0,58,0,15
0,55,60,15
0,55,0,15
0,82,0,15
0,58,60,0
0,58,0,15
0,55,60,15
0,55,0,15
0,82,60,15
0,58,60,0
0,87,0,0
0,91,100,0
0,58,0,15
0,55,60,15
0,55,0,15
0,82,0,15
0,70,60,0
0,58,60,0
0,58,0,15
0,55,60,15
0,55,0,15
0,82,60,15
0,70,0,0
0,58,60,0
0,58,0,15
0,55,60,15
0,55,0,15
0,82,0,15
0,58,60,0
0,70,0,15
0,58,0,0
0,70,65,10
0,55,60,0
0,55,0,15
0,75,87,14
0,82,60,0
0,58,60,0
0,70,0,3
0,58,0,12
0,55,60,15
0,55,0,15
0,75,0,8
0,70,60,0
0,58,60,0
0,75,78,4
0,58,0,11
0,55,60,15
0,55,0,15
0,82,60,15
0,70,0,0
0,58,60,0
0,58,0,15
0,55,60,0
0,73,94,10
0,75,0,5
0,55,0,0
0,82,0,15
0,58,60,0
0,72,100,4
0,73,0,7
0,55,60,4
0,55,0,15
0,70,0,14
0,67,0,0
0,82,60,0
0,60,60,0
0,72,100,0
0,68,100,0
0,91,0,0
0,32,80,0
0,56,100,0
0,60,0,15
0,56,60,15
0,77,68,3
0,72,0,7
0,56,0,5
0,70,60,0
0,60,60,0
0,60,0,15
0,75,97,11
0,56,0,3
0,77,0,1
0,56,60,0
0,58,100,0
0,56,0,15
0,82,60,15
0,70,0,0
0,60,60,0
0,60,0,15
0,56,60,15
0,56,0,15
0,58,0,14
0,82,0,1
0,60,60,0
0,60,100,0
0,60,0,15
0,56,60,15
0,56,0,15
0,82,60,15
0,60,60,0
0,60,0,15
0,56,60,15
0,56,0,15
0,82,0,15
0,70,60,0
0,60,60,0
0,60,0,15
0,56,60,15
0,56,0,15
0,82,60,15
0,70,0,0
0,60,60,0
0,60,0,15
0,56,60,15
0,56,0,15
0,82,0,15
0,60,60,0
0,60,0,15
0,56,60,15
0,56,0,15
0,60,0,14
0,82,60,1
0,60,60,0
0,32,0,0
0,56,100,0
0,60,0,15
0,56,60,15
0,56,0,15
0,82,0,15
0,70,60,0
0,60,60,0
0,60,0,15
0,56,0,14
0,56,60,1
0,58,100,0
0,56,0,15
0,82,60,15
0,70,0,0
0,60,60,0
0,60,0,15
0,56,60,15
0,56,0,15
0,58,0,14
0,82,0,1
0,60,60,0
0,60,100,0
0,60,0,15
0,75,0,3
0,75,84,11
0,56,60,0
0,56,0,15
0,75,0,11
0,82,60,0
0,60,60,0
0,75,85,6
0,60,0,9
0,56,60,15
0,56,0,15
0,75,0,9
0,70,60,0
0,60,60,0
0,75,90,6
0,60,0,9
0,56,60,15
0,56,0,15
0,82,60,15
0,70,0,0
0,60,60,0
0,60,0,15
0,56,60,0
0,80,90,1
0,75,0,6
0,56,0,8
0,82,0,15
0,60,60,0
0,60,0,15
0,56,60,0
0,79,92,4
0,80,0,5
0,56,0,6
0,63,0,14
0,60,0,0
0,82,60,0
0,60,60,0
0,65,100,0
0,29,80,0
0,68,100,0
0,60,0,15
0,56,60,15
0,56,0,15
0,77,80,1
0,79,0,4
0,82,0,10
0,70,60,0
0,60,60,0
0,60,0,15
0,68,0,14
0,56,60,1
0,67,100,0
0,56,0,15
0,82,60,15
0,70,0,0
0,60,60,0
0,60,0,15
0,56,60,15
0,56,0,15
0,67,0,14
0,82,0,1
0,60,60,0
0,65,100,0
0,60,0,15
0,56,60,15
0,56,0,15
0,82,60,15
0,60,60,0
0,60,0,15
0,56,60,15
0,56,0,15
0,82,0,15
0,70,60,0
0,60,60,0
0,60,0,15
0,56,60,15
0,56,0,15
0,82,60,15
0,70,0,0
0,60,60,0
0,60,0,15
0,56,60,15
0,56,0,15
0,82,0,15
0,60,60,0
0,60,0,15
0,56,60,15
0,56,0,15
0,65,0,14
0,82,60,1
0,60,60,0
0,29,0,0
0,68,100,0
0,60,0,15
0,56,60,15
0,56,0,15
0,82,0,15
0,70,60,0
0,60,60,0
0,60,0,15
0,68,0,14
0,56,60,1
0,67,100,0
0,56,0,15
0,82,60,15
0,70,0,0
0,60,60,0
0,60,0,15
0,56,60,15
0,56,0,15
0,67,0,14
0,82,0,1
0,60,60,0
0,65,100,0
0,77,0,15
0,60,0,0
0,77,78,13
0,56,60,0
0,56,0,15
0,77,0,7
0,82,60,0
0,60,60,0
0,77,100,5
0,60,0,10
0,56,60,15
0,56,0,15
0,70,60,0
0,60,60,0
0,77,0,7
0,60,0,8
0,77,106,5
0,56,60,10
0,56,0,15
0,82,60,15
0,70,0,0
0,60,60,0
0,60,0,15
0,56,60,0
0,79,92,2
0,77,0,5
0,56,0,8
0,60,60,0
0,80,77,8
0,79,0,3
0,60,0,4
0,56,60,15
0,80,0,12
0,56,0,3
0,80,94,10
0,72,0,4
0,65,0,0
0,82,60,0
0,61,60,0
0,73,100,0
0,37,80,0
0,61,100,0
0,61,0,15
0,56,60,15
0,56,0,15
0,70,60,0
0,61,60,0
0,61,0,15
0,75,80,8
0,80,0,3
0,61,0,3
0,56,60,1
0,63,100,0
0,56,0,15
0,82,60,15
0,70,0,0
0,61,60,0
0,77,106,5
0,75,0,6
0,61,0,4
0,56,60,15
0,56,0,15
0,63,0,14
0,82,0,1
0,61,60,0
0,65,100,0
0,61,0,15
0,56,60,15
0,56,0,15
0,82,60,15
0,61,60,0
0,61,0,15
0,56,60,15
0,56,0,15
0,82,0,15
0,70,60,0
0,61,60,0
0,61,0,15
0,56,60,15
0,56,0,15
0,82,60,0
0,70,0,0
0,61,60,0
0,61,0,15
0,79,92,10
0,77,0,3
0,56,60,2
0,56,0,15
0,61,60,0
0,80,100,9
0,79,0,6
0,61,0,0
0,56,60,15
0,56,0,15
0,80,0,3
0,80,97,8
0,73,0,3
0,65,0,0
0,65,0,0
0,82,60,0
0,60,60,0
0,72,100,0
0,63,100,0
0,37,0,0
0,36,80,0
0,56,100,0
0,60,0,15
0,56,60,15
0,56,0,15
0,82,0,15
0,70,60,0
0,60,60,0
0,75,106,1
0,80,0,4
0,56,0,9
0,56,60,1
0,58,100,0
0,56,0,15
0,82,60,15
0,70,0,0
0,60,60,0
0,60,0,15
0,56,60,15
0,56,0,15
0,58,0,14
0,82,0,1
0,60,60,0
0,60,100,0
0,60,0,15
0,56,60,15
0,56,0,15
0,82,60,15
0,60,60,0
0,60,0,15
0,56,60,15
0,56,0,15
0,70,60,0
0,60,60,0
0,80,110,1
0,75,0,9
0,60,0,5
0,56,60,15
0,56,0,15
0,82,60,15
0,70,0,0
0,60,60,0
0,60,0,15
0,56,60,2
0,82,122,5
0,80,0,2
0,56,0,8
0,82,0,15
0,60,60,0
0,60,0,15
0,56,60,15
0,82,0,10
0,56,0,5
0,82,127,8
0,82,60,1
0,58,60,0
0,70,100,0
0,67,100,0
0,36,0,0
0,27,80,0
0,67,100,0
0,58,0,15
0,60,0,14
0,55,60,1
0,55,0,15
0,82,0,15
0,70,60,0
0,58,60,0
0,58,0,15
0,67,0,14
0,55,60,1
0,65,100,0
0,55,0,15
0,82,60,15
0,70,0,0
0,58,60,0
0,58,0,15
0,55,60,15
0,55,0,15
0,65,0,14
0,82,0,1
0,58,60,0
0,63,100,0
0,58,0,15
0,55,60,15
0,55,0,15
0,82,60,15
0,58,60,0
0,58,0,15
0,55,60,15
0,55,0,15
0,82,0,15
0,70,60,0
0,58,60,0
0,58,0,15
0,55,60,15
0,55,0,15
0,82,60,15
0,70,0,0
0,58,60,0
0,58,0,15
0,55,60,15
0,55,0,15
0,82,0,15
0,58,60,0
0,58,0,15
0,55,60,15
0,55,0,15
0,63,0,14
0,82,60,1
0,58,60,0
0,27,0,0
0,67,100,0
0,58,0,15
0,55,60,15
0,55,0,15
0,82,0,15
0,70,60,0
0,58,60,0
0,58,0,15
0,67,0,14
0,55,60,1
0,65,100,0
0,55,0,15
0,82,60,15
0,70,0,0
0,58,60,0
0,58,0,15
0,55,60,15
0,55,0,15
0,65,0,14
0,58,60,0
0,63,100,0
0,82,0,3
0,75,106,1
0,58,0,11
0,55,60,15
0,55,0,15
0,82,60,0
0,58,60,0
0,80,127,1
0,75,0,4
0,58,0,10
0,55,60,15
0,55,0,15
0,70,60,0
0,58,60,0
0,82,127,5
0,80,0,5
0,58,0,5
0,55,60,15
0,55,0,15
0,82,60,15
0,70,0,0
0,58,60,0
0,58,0,15
0,55,60,15
0,55,0,15
0,82,0,13
0,85,127,0
0,58,60,0
0,58,0,15
0,70,0,14
0,63,0,0
0,55,60,1
0,55,0,15
0,67,0,14
0,63,0,0
0,82,60,1
0,60,60,0
0,72,100,0
0,68,100,0
0,63,100,0
0,44,100,0
0,56,100,1
0,60,0,14
0,56,60,12
0,44,0,2
0,36,100,1
0,44,100,0
0,56,0,12
0,60,60,14
0,44,0,3
0,70,60,0
0,36,0,0
0,84,127,2
0,58,100,4
0,85,0,3
0,60,0,2
0,56,0,1
0,56,60,15
0,56,0,15
0,58,0,8
0,60,60,7
0,82,60,3
0,70,0,0
0,58,100,7
0,60,0,5
0,56,60,14
0,56,0,15
0,60,60,17
0,56,60,16
0,56,0,15
0,82,60,16
0,36,100,0
0,44,100,0
0,60,60,1
0,60,0,15
0,36,0,14
0,56,60,2
0,56,0,15
0,44,0,12
0,82,0,1
0,70,60,0
0,60,60,1
0,60,0,15
0,56,60,12
0,56,0,15
0,82,60,17
0,70,0,0
0,60,60,0
0,60,0,15
0,56,60,14
0,58,0,5
0,56,0,10
0,60,60,14
0,82,0,2
0,36,100,0
0,44,100,0
0,60,0,13
0,56,60,10
0,44,0,1
0,36,0,1
0,56,0,13
0,56,100,12
0,82,60,5
0,36,100,0
0,60,60,0
0,44,100,0
0,60,0,15
0,56,60,13
0,44,0,1
0,36,0,1
0,36,100,0
0,44,100,0
0,56,0,13
0,60,60,14
0,58,100,0
0,44,0,2
0,82,0,1
0,70,60,0
0,36,0,0
0,56,0,3
0,60,0,9
0,56,60,16
0,58,0,12
0,56,0,3
0,60,60,16
0,82,60,1
0,70,0,0
0,46,100,0
0,58,100,2
0,60,0,12
0,56,60,14
0,46,0,2
0,56,0,13
0,84,0,12
0,80,127,2
0,60,60,2
0,56,60,15
0,80,0,13
0,56,0,2
0,80,127,11
0,82,60,0
0,36,100,0
0,44,100,0
0,60,60,3
