track,note,velocity,time
0,79,35,326
0,79,0,29
0,79,46,1
0,79,0,29
0,79,84,1
0,60,42,0
0,72,43,0
0,84,51,0
0,76,48,0
0,76,0,29
0,84,0,0
0,72,0,0
0,74,49,31
0,83,50,0
0,67,30,0
0,79,45,0
0,79,0,29
0,74,0,0
0,83,0,0
0,67,0,0
0,84,48,31
0,76,42,0
0,72,47,0
0,79,45,0
0,79,40,90
0,79,0,29
0,79,43,1
0,74,62,1
0,79,60,0
0,59,43,0
0,74,46,31
0,84,44,0
0,79,48,0
0,67,16,0
0,79,0,29
0,84,0,0
0,74,0,0
0,59,0,1
0,67,0,30
0,71,31,0
0,74,35,0
0,83,30,0
0,79,39,0
0,79,0,29
0,71,0,0
0,74,0,0
0,83,0,0
0,74,42,31
0,84,46,0
0,71,32,0
0,79,40,0
0,71,0,180
0,79,0,30
0,74,0,0
0,84,0,30
0,79,51,0
0,79,0,29
0,79,49,1
0,79,56,1
0,57,45,0
0,69,42,31
0,84,55,0
0,79,53,0
0,74,50,0
0,74,0,29
0,84,0,0
0,79,0,0
0,69,0,0
0,74,32,31
0,65,21,0
0,79,29,0
0,83,38,0
0,83,0,29
0,74,0,0
0,79,0,0
0,65,0,31
0,79,42,0
0,74,45,0
0,84,47,0
0,69,27,0
0,69,0,29
0,74,0,0
0,84,0,0
0,79,0,0
0,57,0,1
0,84,67,90
0,84,0,60
0,86,59,0
0,86,0,29
0,84,46,4
0,65,39,0
0,53,36,0
0,60,30,0
0,88,61,0
0,81,45,0
0,65,78,0
0,88,0,30
0,84,0,0
0,72,41,30
0,84,52,0
0,89,55,0
0,81,49,0
0,89,0,29
0,72,0,31
0,65,0,0
0,81,0,0
0,88,46,0
0,81,33,0
0,69,46,0
0,69,0,29
0,81,0,0
0,88,0,0
0,84,0,1
0,79,53,30
0,83,52,0
0,86,52,0
0,55,39,19
0,62,28,0
0,79,39,0
0,84,48,0
0,84,0,60
0,67,38,0
0,83,54,0
0,83,0,29
0,79,0,1
0,55,0,0
0,62,0,0
0,67,0,30
0,76,119,0
0,76,0,29
0,77,127,1
0,60,60,1
0,79,119,0
0,72,45,31
0,76,68,0
0,84,75,0
0,84,0,29
0,76,0,0
0,72,0,0
0,60,0,31
0,72,46,0
0,83,42,0
0,74,45,0
0,79,42,0
0,79,0,29
0,72,0,0
0,83,0,0
0,74,0,0
0,84,56,31
0,76,49,0
0,72,37,0
0,79,48,0
0,60,22,180
0,79,0,30
0,72,0,30
0,60,0,0
0,76,0,0
0,79,36,0
0,79,0,29
0,84,0,1
0,79,47,0
0,79,0,29
0,59,41,1
0,74,60,0
0,79,65,0
0,67,18,0
0,79,49,0
0,74,42,0
0,84,50,0
0,84,0,29
0,79,0,0
0,74,0,0
0,79,35,31
0,74,36,0
0,83,39,0
0,71,31,0
0,71,0,29
0,74,0,0
0,79,0,0
0,83,0,0
0,71,27,31
0,84,40,0
0,79,29,0
0,74,37,0
0,71,0,180
0,67,0,0
0,59,0,0
0,74,0,30
0,79,0,0
0,84,0,30
0,79,46,0
0,79,0,29
0,79,55,1
0,74,37,0
0,57,41,0
0,69,35,0
0,65,29,0
0,79,43,0
0,74,49,0
0,84,55,0
0,84,0,29
0,79,0,0
0,74,0,0
0,83,55,31
0,74,58,0
0,69,36,0
0,79,46,0
0,79,0,29
0,74,0,0
0,83,0,0
0,69,0,0
0,65,0,31
0,69,43,0
0,84,51,0
0,79,48,0
0,74,50,0
0,74,0,60
0,84,0,0
0,79,0,0
0,69,0,150
0,57,0,0
0,84,78,30
0,86,59,30
0,60,21,1
0,81,57,0
0,88,49,0
0,53,42,0
0,65,37,0
0,89,54,0
0,81,52,0
0,81,0,29
0,89,0,0
0,53,0,31
0,81,40,0
0,88,54,0
0,88,0,29
0,81,0,0
0,67,49,31
0,79,45,0
0,86,49,0
0,62,30,0
0,83,43,0
0,55,36,8
0,83,0,60
0,86,0,0
0,67,0,0
0,79,0,0
0,79,41,0
0,59,27,0
0,84,46,0
0,79,0,60
0,83,41,0
0,67,36,0
0,79,34,0
0,84,0,30
0,55,0,30
0,83,0,0
0,59,0,0
0,79,0,0
0,67,0,30
0,79,112,0
0,55,61,0
0,43,100,0
0,55,63,0
0,43,63,0
0,31,59,0
0,43,62,0
0,49,63,0
0,57,63,0
0,52,63,0
0,35,63,0
0,76,127,180
0,76,0,29
0,77,127,1
0,55,105,1
0,48,108,0
0,64,115,0
0,36,108,0
0,60,127,0
0,79,127,0
0,60,0,60
0,55,0,0
0,48,0,0
0,55,53,0
0,79,0,0
0,77,127,0
0,64,0,30
0,36,0,0
0,60,88,30
0,77,0,0
0,76,127,0
0,60,0,29
0,55,0,1
0,40,105,5
0,64,127,0
0,60,127,0
0,55,112,0
0,28,127,0
0,76,0,0
0,79,127,0
0,28,88,30
0,79,127,0
0,60,127,60
0,40,127,0
0,64,119,0
0,55,105,0
0,79,0,0
0,84,127,0
0,55,0,29
0,28,0,1
0,60,0,30
0,40,0,0
0,64,0,0
0,57,92,1
0,60,127,0
0,41,119,0
0,53,90,0
0,65,127,0
0,84,0,0
0,81,127,0
0,41,119,0
0,57,0,30
0,65,0,0
0,60,0,0
0,53,108,30
0,65,127,0
0,60,127,0
0,57,102,0
0,41,0,90
0,53,0,30
0,41,97,0
0,81,0,0
0,57,0,30
0,60,0,30
0,57,112,0
0,53,119,0
0,53,0,60
0,41,0,0
0,65,0,0
0,48,35,0
0,60,90,0
0,74,127,0
0,60,0,29
0,48,0,0
0,74,0,0
0,57,0,1
0,76,127,0
0,65,119,1
0,62,112,0
0,50,88,0
0,57,74,0
0,38,69,0
0,77,127,0
0,77,0,60
0,77,94,0
0,50,64,0
0,57,63,0
0,77,122,0
0,77,0,29
0,65,0,1
0,38,0,30
0,50,0,0
0,57,0,0
0,45,39,0
0,77,93,0
0,45,0,29
0,77,0,0
0,59,102,4
0,40,74,0
0,55,70,0
0,64,105,0
0,77,122,0
0,76,110,0
0,76,0,29
0,55,0,1
0,55,59,30
0,52,67,0
0,76,127,0
0,59,0,30
0,55,0,30
0,52,0,0
0,76,0,0
0,74,108,0
0,74,0,29
0,40,0,1
0,64,0,30
0,57,90,0
0,33,70,0
0,60,79,0
0,45,57,0
0,64,115,0
0,74,110,0
0,72,116,0
0,45,56,30
0,57,47,0
0,72,99,0
0,72,0,29
0,64,0,1
0,60,0,0
0,57,0,30
0,45,0,0
0,40,36,0
0,72,80,0
0,40,0,29
0,33,0,1
0,26,102,30
0,62,84,0
0,57,79,0
0,65,79,0
0,72,0,0
0,74,105,0
0,38,45,14
0,74,0,0
0,76,108,0
0,57,0,30
0,38,0,30
0,26,0,0
0,57,59,0
0,76,0,0
0,74,110,0
0,62,0,30
0,65,0,0
0,57,0,30
0,74,0,30
0,72,127,0
0,60,102,1
0,57,77,0
0,41,88,0
0,53,67,0
0,65,108,0
0,72,127,0
0,69,80,0
0,57,0,30
0,48,40,30
0,53,65,60
0,53,0,60
0,48,0,0
0,57,46,0
0,60,47,60
0,53,47,60
0,60,0,30
0,57,0,0
0,53,0,30
0,48,40,0
0,48,0,29
0,41,0,1
0,72,127,0
0,62,124,0
0,43,119,0
0,31,119,0
0,67,127,0
0,67,80,0
0,62,79,0
0,43,76,0
0,72,80,0
0,31,76,0
0,67,127,30
0,62,112,0
0,72,127,0
0,67,80,0
0,62,71,0
0,72,80,0
0,31,0,60
0,43,90,0
0,31,0,0
0,43,57,0
0,67,0,30
0,72,0,0
0,62,0,0
0,67,0,0
0,72,0,0
0,62,0,0
0,67,127,30
0,62,112,0
0,71,127,0
0,62,71,0
0,67,80,0
0,71,80,0
0,62,0,60
0,38,70,0
0,62,0,0
0,38,44,0
0,71,0,30
0,67,0,0
0,71,0,0
0,67,0,0
0,38,0,29
0,38,0,0
0,43,0,1
0,31,70,0
0,43,0,0
0,31,44,0
0,76,93,60
0,77,93,1
0,31,0,29
0,31,0,0
0,77,0,0
0,64,97,1
0,48,61,0
0,60,99,0
0,55,83,0
0,36,81,0
0,79,127,0
0,77,112,0
0,55,0,30
0,60,0,0
0,64,0,0
0,60,47,30
0,64,51,0
0,55,51,0
0,77,0,0
0,76,108,0
0,48,0,30
0,48,79,30
0,76,0,0
0,79,127,0
0,64,0,30
0,55,0,0
0,60,0,30
0,60,53,0
0,64,58,0
0,55,77,0
0,48,0,30
0,79,0,0
0,48,49,30
0,79,108,0
0,64,0,30
0,55,0,0
0,60,0,0
0,55,66,30
0,60,62,0
0,64,68,0
0,79,0,0
0,84,99,0
0,48,0,60
0,43,35,0
0,43,0,29
0,64,0,1
0,36,0,0
0,55,0,0
0,60,0,0
0,41,75,30
0,65,102,0
0,29,97,0
0,57,73,0
0,60,97,0
0,84,0,0
0,81,112,0
0,65,48,30
0,57,43,0
0,60,48,0
0,41,119,60
0,60,0,30
0,65,0,0
0,57,0,0
0,65,48,30
0,60,52,0
0,57,45,0
0,81,0,30
0,57,0,30
0,60,0,0
0,65,0,0
0,53,38,0
0,60,78,60
0,57,61,0
0,65,79,0
0,60,0,29
0,41,0,31
0,65,0,0
0,53,0,0
0,62,77,0
0,74,80,0
0,62,0,29
0,74,0,0
0,57,0,1
0,64,88,0
0,76,112,0
0,57,97,1
0,50,66,0
0,65,88,0
0,38,61,0
0,62,90,0
0,77,110,0
0,45,51,0
0,77,0,0
0,77,112,0
0,77,0,29
0,57,0,1
0,62,0,0
0,65,0,0
0,45,0,30
0,57,78,0
0,62,112,0
0,65,102,0
0,50,73,0
0,77,82,0
0,77,0,29
0,50,0,31
0,62,0,0
0,65,0,0
0,57,0,0
0,45,44,0
0,77,84,0
0,45,0,29
0,38,0,1
0,64,105,2
0,59,112,0
0,52,67,0
0,40,68,0
0,55,73,0
0,77,0,30
0,48,35,0
0,76,79,0
0,76,0,29
0,64,0,1
0,55,0,0
0,59,0,0
0,52,69,30
0,64,92,0
0,59,105,0
0,55,73,0
0,76,92,0
0,76,0,29
0,48,0,1
0,52,0,30
0,59,0,0
0,55,0,0
0,48,39,0
0,76,97,0
0,48,0,29
0,76,0,0
0,40,0,1
0,64,0,0
0,57,78,30
0,64,99,0
0,45,72,0
0,33,69,0
0,60,97,0
0,76,127,0
0,40,36,0
0,74,80,0
0,74,0,29
0,57,0,1
0,60,0,30
0,40,0,0
0,64,0,0
0,57,94,0
0,60,70,0
0,64,105,0
0,45,55,0
0,74,100,0
0,45,0,60
0,60,0,0
0,64,0,0
0,57,0,0
0,40,47,0
0,74,0,0
0,72,80,0
0,40,0,29
0,33,0,1
0,57,68,30
0,53,63,0
0,62,59,0
0,60,61,0
0,38,81,0
0,72,0,0
0,74,118,0
0,50,46,53
0,74,0,0
0,76,79,0
0,62,61,0
0,53,53,0
0,60,53,0
0,57,54,0
0,50,63,0
0,76,0,0
0,74,118,0
0,57,0,60
0,60,0,0
0,62,0,0
0,45,40,0
0,38,0,30
0,53,0,0
0,50,0,0
0,74,0,0
0,72,75,0
0,57,112,0
0,60,105,0
0,53,94,0
0,41,75,0
0,72,127,0
0,48,36,0
0,67,59,0
0,57,59,0
0,60,59,0
0,53,59,0
0,72,0,0
0,69,112,0
0,57,0,30
0,60,0,0
0,60,0,29
0,67,0,0
0,57,0,0
0,53,51,1
0,65,59,0
0,60,59,0
0,60,0,59
0,65,0,0
0,53,0,1
0,48,0,0
0,57,70,0
0,60,60,0
0,64,60,0
0,64,0,59
0,60,0,0
0,57,0,1
0,60,69,0
0,60,61,0
0,64,61,0
0,60,0,29
0,48,40,31
0,48,0,60
0,65,102,0
0,57,68,0
0,60,105,0
0,53,78,0
0,48,36,60
0,53,0,30
0,41,0,0
0,64,0,29
0,60,0,0
0,53,0,0
0,60,0,1
0,65,0,0
0,48,0,0
0,57,0,0
0,60,112,0
0,57,90,0
0,43,81,0
0,65,102,0
0,62,64,0
0,59,64,0
0,55,64,0
0,50,47,15
0,55,67,60
0,50,0,30
0,65,0,30
0,57,0,0
0,60,0,0
0,55,0,0
0,50,66,0
0,50,0,29
0,69,0,0
0,43,0,1
0,55,127,3
0,59,127,0
0,62,127,0
0,50,127,0
0,43,119,0
0,55,0,30
0,62,0,0
0,59,0,0
0,55,119,30
0,50,127,0
0,62,127,0
0,59,127,0
0,43,0,30
0,43,127,0
0,43,0,29
0,59,0,1
0,62,0,0
0,55,0,0
0,40,127,0
0,64,127,0
0,71,127,0
0,28,127,0
0,59,94,0
0,40,119,0
0,67,127,0
0,64,83,0
0,79,127,0
0,79,0,29
0,71,100,31
0,59,127,0
0,64,127,0
0,67,127,0
0,83,127,0
0,79,127,0
0,64,0,29
0,59,0,0
0,79,0,18
0,28,0,13
0,40,0,0
0,67,0,0
0,52,36,0
0,35,47,0
0,83,0,0
0,79,127,0
0,79,0,23
0,35,0,6
0,52,0,0
0,45,44,1
0,81,127,0
0,45,0,29
0,71,0,0
0,45,127,1
0,52,97,0
0,60,127,0
0,64,127,0
0,33,102,0
0,45,83,0
0,57,127,0
0,64,0,0
0,69,97,0
0,81,90,4
0,81,0,19
0,57,0,11
0,60,0,0
0,52,0,0
0,64,0,0
0,45,0,0
0,81,127,0
0,64,127,30
0,52,105,0
0,45,105,0
0,60,127,0
0,57,127,0
0,83,127,0
0,57,0,29
0,52,0,0
0,60,0,0
0,64,0,31
0,45,0,0
0,40,61,0
0,83,0,0
0,40,0,29
0,33,0,1
0,81,0,0
0,79,127,0
0,79,0,29
0,41,127,1
0,57,124,0
0,60,127,0
0,65,127,0
0,41,124,0
0,29,90,0
0,65,97,0
0,81,115,0
0,41,0,29
0,79,127,0
0,79,0,44
0,43,112,3
0,43,92,0
0,62,127,0
0,31,119,0
0,59,127,0
0,50,108,0
0,55,127,0
0,65,0,0
0,67,105,0
0,83,127,0
0,79,127,0
0,43,0,29
0,77,119,0
0,83,0,30
0,77,0,26
0,36,127,4
0,60,127,0
0,55,119,0
0,64,127,0
0,52,78,0
0,24,105,0
0,36,105,0
0,67,0,0
0,67,112,0
0,76,127,0
0,36,127,30
0,83,127,0
0,43,119,30
0,48,105,30
0,83,0,0
0,43,0,30
0,36,0,0
0,52,127,0
0,67,0,0
0,52,0,29
0,40,127,1
0,48,0,0
0,28,127,0
0,40,105,0
0,64,105,0
0,79,119,31
0,40,90,26
0,28,119,0
0,52,124,0
0,59,127,0
0,55,127,0
0,83,127,0
0,79,127,0
0,55,0,29
0,52,0,0
0,40,0,0
0,28,0,0
0,59,0,0
0,79,0,23
0,83,0,8
0,79,99,0
0,45,127,4
0,45,112,0
0,33,83,0
0,57,119,0
0,52,108,0
0,60,119,0
0,64,0,0
0,69,105,0
0,81,124,0
0,33,112,0
0,81,127,0
0,81,0,33
0,60,127,27
0,57,99,0
0,64,127,0
0,45,115,0
0,83,127,0
0,81,127,0
0,64,0,60
0,57,0,0
0,60,0,0
0,40,61,0
0,83,0,0
0,81,0,0
0,79,112,0
0,40,0,29
0,33,0,1
0,45,0,0
0,41,127,10
0,65,127,0
0,57,115,0
0,60,127,0
0,29,119,0
0,69,0,0
0,65,108,0
0,81,127,0
0,79,0,2
0,41,0,27
0,41,127,30
0,83,127,0
0,65,0,30
0,60,0,0
0,57,127,0
0,60,127,30
0,83,0,0
0,60,0,29
0,41,0,1
0,29,0,0
0,57,0,0
0,36,108,0
0,65,102,0
0,65,0,29
0,36,0,0
0,43,92,1
0,62,127,0
0,31,115,0
0,59,115,0
0,43,105,0
0,67,127,0
0,65,0,0
0,67,108,0
0,79,127,0
0,81,0,1
0,50,94,1
0,55,112,1
0,67,0,0
0,59,0,0
0,62,0,0
0,55,0,29
0,62,119,1
0,43,0,0
0,38,119,0
0,62,0,29
0,67,112,1
0,62,127,0
0,55,112,0
0,59,127,0
0,43,127,0
0,83,127,0
0,67,0,29
0,74,127,1
0,38,0,0
0,74,0,29
0,62,0,1
0,55,0,0
0,59,0,0
0,43,0,0
0,38,52,0
0,83,0,0
0,38,0,29
0,31,0,1
0,40,108,30
0,52,119,0
