track,note,velocity,time
3,69,80,668
3,71,86,0
3,72,86,0
3,76,86,0
3,45,93,0
3,64,38,0
3,64,43,47
3,69,0,47
3,71,0,0
3,72,0,0
3,76,0,0
3,71,74,1
3,76,86,0
3,72,74,0
3,69,65,0
3,64,0,47
3,64,37,1
3,71,0,47
3,76,0,0
3,72,0,0
3,69,0,0
3,71,74,1
3,76,86,0
3,72,83,0
3,69,76,0
3,64,0,47
3,64,48,1
3,64,0,47
3,71,0,0
3,76,0,0
3,72,0,0
3,69,0,0
3,71,74,1
3,76,86,0
3,69,93,0
3,72,98,0
3,64,66,0
3,64,0,0
3,57,100,48
3,45,0,31
3,64,0,0
3,71,0,0
3,76,0,0
3,69,0,0
3,72,0,0
3,57,0,5
3,69,93,12
3,74,93,0
3,43,93,0
3,67,90,0
3,71,93,0
3,62,68,0
3,62,0,8
3,69,0,16
3,74,0,0
3,71,0,0
3,62,48,24
3,67,0,47
3,69,93,1
3,74,93,0
3,67,72,0
3,71,76,0
3,62,0,47
3,62,39,1
3,69,0,47
3,74,0,0
3,67,0,0
3,71,0,0
3,69,93,1
3,74,93,0
3,71,80,0
3,67,72,0
3,62,0,47
3,62,51,1
3,69,0,47
3,74,0,0
3,71,0,0
3,67,0,0
3,62,0,0
3,69,93,1
3,74,93,0
3,71,76,0
3,67,70,0
3,62,17,0
3,62,0,47
3,55,93,1
3,62,66,0
3,69,0,39
3,74,0,0
3,71,0,0
3,67,0,0
3,55,0,0
3,62,0,0
3,43,0,1
3,67,93,8
3,72,93,0
3,41,93,0
3,69,90,0
3,53,76,0
3,65,95,0
3,60,50,48
3,67,0,47
3,72,0,0
3,69,0,0
3,65,0,0
3,67,93,1
3,72,93,0
3,65,68,0
3,69,66,0
3,60,0,47
3,60,48,1
3,67,0,47
3,72,0,0
3,65,0,0
3,69,0,0
3,67,93,1
3,72,93,0
3,69,83,0
3,65,76,0
3,60,0,47
3,60,54,1
3,67,0,47
3,72,0,0
3,69,0,0
3,65,0,0
3,60,0,0
3,67,93,1
3,72,93,0
3,69,90,0
3,65,90,0
3,60,70,0
3,53,0,46
3,53,76,1
3,41,0,40
3,67,0,0
3,72,0,0
3,69,0,0
3,65,0,0
3,60,0,0
3,53,0,8
3,69,93,1
3,74,93,0
3,43,93,0
3,71,90,0
3,67,83,0
3,62,66,0
3,62,0,12
3,62,57,36
3,69,0,47
3,74,0,0
3,71,0,0
3,67,0,0
3,69,93,1
3,74,93,0
3,71,76,0
3,67,65,0
3,62,0,9
3,62,35,1
3,69,0,47
3,74,0,0
3,71,0,0
3,67,0,0
3,69,93,1
3,74,93,0
3,71,76,0
3,67,70,0
3,62,0,47
3,62,33,1
3,69,0,47
3,74,0,0
3,71,0,0
3,67,0,0
3,69,93,1
3,74,93,0
3,67,72,0
3,71,76,0
3,62,0,47
3,62,34,1
3,69,0,19
3,74,0,0
3,67,0,0
3,71,0,0
3,62,0,0
3,43,0,4
3,64,95,16
3,61,90,0
3,45,86,0
3,61,0,43
3,61,61,1
3,64,0,47
3,61,0,0
3,61,77,1
3,64,80,0
3,61,0,47
3,61,53,1
3,64,0,47
3,61,0,0
3,61,79,1
3,64,86,0
3,61,0,47
3,61,54,1
3,64,0,47
3,61,0,0
3,61,87,1
3,64,90,0
3,61,0,3
3,61,65,1
3,45,0,39
3,64,0,0
3,61,0,0
3,56,56,0
3,61,77,0
3,64,88,0
3,45,78,0
3,61,0,47
3,61,56,1
3,56,0,40
3,64,0,0
3,61,0,0
3,56,43,1
3,61,79,0
3,64,86,0
3,61,0,47
3,61,43,1
3,56,0,47
3,64,0,0
3,61,0,0
3,56,47,1
3,61,77,0
3,64,88,0
3,61,0,47
3,61,43,1
3,56,0,47
3,64,0,0
3,61,0,0
3,61,74,1
3,56,71,0
3,64,90,0
3,45,0,47
3,61,0,0
3,61,47,1
3,45,65,0
3,56,0,3
3,64,0,0
3,61,0,0
3,45,0,0
3,55,61,1
3,61,90,0
3,64,93,0
3,45,76,0
3,61,0,22
3,61,60,1
3,55,0,23
3,64,0,0
3,61,0,0
3,55,61,1
3,61,77,0
3,64,86,0
3,61,0,7
3,61,48,1
3,55,0,47
3,64,0,0
3,61,0,0
3,55,61,1
3,61,77,0
3,64,83,0
3,61,0,47
3,61,49,1
3,64,0,23
3,61,0,0
3,61,83,1
3,64,90,0
3,61,0,18
3,61,65,1
3,45,0,35
3,55,0,0
3,64,0,0
3,61,0,0
3,55,54,5
3,61,90,0
3,64,93,0
3,45,86,0
3,61,0,44
3,61,76,1
3,55,0,19
3,64,0,0
3,61,0,0
3,55,76,1
3,61,83,0
3,64,93,0
3,61,0,20
3,61,76,1
3,55,0,39
3,64,0,0
3,61,0,0
3,45,0,1
3,58,60,4
3,61,79,0
3,64,93,0
3,46,90,0
3,58,0,17
3,64,0,8
3,61,0,8
3,61,60,12
3,61,0,20
3,58,74,1
3,61,90,0
3,64,95,0
3,46,0,44
3,61,0,0
3,61,60,1
3,46,74,0
3,58,0,35
3,64,0,0
3,61,0,0
3,46,0,0
3,66,96,9
3,47,80,0
3,62,90,0
3,59,60,0
3,59,0,4
3,59,51,44
3,66,0,47
3,62,0,0
3,66,83,0
3,62,88,0
3,59,0,14
3,59,68,1
3,66,0,15
3,62,0,0
3,59,0,0
3,47,0,1
3,68,94,12
3,52,78,0
3,64,88,0
3,59,51,0
3,59,0,4
3,59,49,44
3,68,0,11
3,64,0,0
3,59,0,0
3,68,100,1
3,64,93,0
3,59,72,0
3,52,0,47
3,52,76,1
3,68,0,35
3,64,0,0
3,59,0,0
3,52,0,13
3,66,90,0
3,47,78,0
3,62,83,0
3,59,48,48
3,66,0,45
3,62,0,0
3,59,0,0
3,66,96,1
3,62,100,0
3,59,80,0
3,47,0,16
3,47,66,1
3,66,0,13
3,62,0,0
3,59,0,0
3,47,0,5
3,68,79,4
3,64,86,0
3,49,90,0
3,61,43,0
3,61,34,0
3,68,0,14
3,64,0,0
3,61,0,0
3,68,77,1
3,61,83,0
3,61,0,0
3,64,95,0
3,49,0,47
3,49,68,1
3,61,0,39
3,68,0,0
3,64,0,0
3,49,0,0
3,66,90,9
3,69,90,0
3,50,83,0
3,62,68,0
3,62,0,8
3,62,63,40
3,66,0,27
3,69,0,0
3,62,0,0
3,66,94,0
3,69,86,0
3,62,86,0
3,50,0,47
3,50,74,1
3,66,0,11
3,69,0,0
3,62,0,0
3,50,0,1
3,68,87,8
3,71,93,0
3,52,93,0
3,64,54,0
3,64,0,4
3,64,61,44
3,68,0,45
3,71,0,0
3,64,0,0
3,68,100,1
3,71,98,0
3,64,88,0
3,52,0,18
3,52,83,1
3,68,0,10
3,71,0,0
3,64,0,0
3,52,0,13
3,45,90,8
3,56,98,0
3,61,104,0
3,64,103,0
3,52,78,92
3,56,0,47
3,61,0,0
3,64,0,0
3,56,98,1
3,61,100,0
3,64,100,0
3,57,78,96
3,61,0,47
3,64,0,0
3,57,0,0
3,61,96,1
3,64,98,0
3,57,90,0
3,45,0,15
3,45,76,1
3,52,0,27
3,56,0,0
3,61,0,0
3,64,0,0
3,57,0,0
3,61,103,21
3,50,98,0
3,57,108,0
3,54,100,0
3,38,98,0
3,50,0,46
3,50,80,1
3,45,0,39
3,61,0,0
3,57,0,0
3,54,0,0
3,50,0,0
3,61,103,9
3,54,96,0
3,57,103,0
3,50,95,0
3,45,83,0
3,50,0,195
3,57,0,4
3,45,0,0
3,61,0,4
3,54,0,0
3,38,0,4
3,57,71,0
3,61,100,0
3,64,105,0
3,45,96,0
3,61,0,47
3,61,71,1
3,57,0,47
3,64,0,0
3,61,0,0
3,57,63,1
3,61,87,0
3,64,90,0
3,61,0,47
3,61,71,1
3,57,0,47
3,64,0,0
3,61,0,0
3,57,64,1
3,61,89,0
3,64,96,0
3,61,0,47
3,61,71,1
3,57,0,47
3,64,0,0
3,61,0,0
3,57,75,1
3,61,97,0
3,64,100,0
3,61,0,11
3,61,71,1
3,45,0,16
3,57,0,0
3,64,0,0
3,61,0,0
3,56,66,9
3,61,87,0
3,64,98,0
3,45,88,0
3,61,0,42
3,61,66,1
3,56,0,44
3,64,0,0
3,61,0,0
3,56,53,1
3,61,89,0
3,64,96,0
3,61,0,47
3,61,66,1
3,56,0,47
3,64,0,0
3,61,0,0
3,56,57,1
3,61,87,0
3,64,98,0
3,61,0,47
3,61,66,1
3,56,0,47
3,64,0,0
3,61,0,0
3,61,84,1
3,56,81,0
3,64,100,0
3,45,0,47
3,45,75,1
3,61,0,18
3,56,0,0
3,64,0,0
3,45,0,0
3,55,75,1
3,61,100,0
3,64,103,0
3,45,86,0
3,55,0,22
3,61,0,1
3,61,70,1
3,64,0,21
3,61,0,0
3,55,75,1
3,61,87,0
3,64,96,0
3,61,0,44
3,61,58,1
3,55,0,20
3,64,0,0
3,61,0,0
3,55,75,1
3,61,87,0
3,64,93,0
3,61,0,45
3,61,59,1
3,55,0,21
3,64,0,0
3,61,0,0
3,55,75,1
3,61,93,0
3,64,100,0
3,61,0,47
3,61,75,1
3,45,0,17
3,55,0,0
3,64,0,0
3,61,0,0
3,55,86,5
3,61,100,0
3,64,103,0
3,45,96,0
3,61,0,1
3,61,64,1
3,55,0,21
3,64,0,0
3,61,0,0
3,55,86,1
3,61,93,0
3,64,103,0
3,61,0,47
3,61,86,1
3,55,0,19
3,64,0,0
3,61,0,0
3,45,0,1
3,58,57,4
3,61,89,0
3,64,103,0
3,46,100,0
3,58,0,28
3,64,0,0
3,61,0,8
3,61,70,11
3,61,0,7
3,58,84,1
3,61,100,0
3,64,105,0
3,46,0,30
3,61,0,0
3,61,84,1
3,46,84,0
3,58,0,39
3,64,0,0
3,46,0,0
3,61,0,1
3,66,106,0
3,47,90,0
3,62,100,0
3,59,70,0
3,59,0,4
3,59,61,19
3,66,0,47
3,62,0,0
3,66,93,1
3,62,98,0
3,59,0,47
3,59,78,1
3,66,0,8
3,62,0,0
3,59,0,0
3,47,0,1
3,68,104,12
3,52,88,0
3,64,98,0
3,59,61,0
3,59,0,4
3,59,59,44
3,68,0,47
3,64,0,0
3,59,0,0
3,68,110,1
3,64,103,0
3,59,82,0
3,52,0,43
3,52,86,1
3,68,0,35
3,64,0,0
3,59,0,0
3,52,0,13
3,66,100,0
3,62,93,0
3,59,58,48
3,66,0,47
3,62,0,0
3,59,0,0
3,66,106,1
3,62,110,0
3,59,90,0
3,66,0,38
3,62,0,0
3,59,0,0
3,68,89,9
3,64,96,0
3,49,100,0
3,61,53,0
3,61,44,44
3,68,0,16
3,64,0,0
3,61,0,0
3,68,87,1
3,61,93,0
3,64,105,0
3,49,0,47
3,49,78,1
3,61,0,39
3,68,0,0
3,64,0,0
3,49,0,0
3,66,100,9
3,69,100,0
3,62,78,0
3,62,0,8
3,62,73,40
3,66,0,47
3,69,0,0
3,62,0,0
3,66,104,0
3,69,96,0
3,62,96,0
3,66,0,62
3,69,0,0
3,62,0,0
3,68,97,3
3,71,103,0
3,52,103,0
3,64,64,0
3,64,0,4
3,64,71,2
3,68,0,47
3,71,0,0
3,64,0,0
3,68,110,0
3,71,108,0
3,64,98,0
3,52,0,47
3,52,93,1
3,68,0,27
3,71,0,0
3,64,0,0
3,52,0,13
3,56,108,0
3,61,114,0
3,64,113,0
3,45,100,0
3,52,88,96
3,61,0,47
3,56,0,0
3,64,0,0
3,56,108,1
3,61,110,0
3,64,110,0
3,52,0,95
3,52,88,1
3,61,0,47
3,56,0,0
3,64,0,0
3,56,100,1
3,61,106,0
3,64,108,0
3,45,0,47
3,45,86,1
3,61,0,2
3,52,0,0
3,56,0,0
3,64,0,0
3,61,113,21
3,38,108,0
3,54,110,0
3,50,108,0
3,57,118,0
3,50,0,93
3,50,90,1
3,61,0,37
3,45,0,0
3,54,0,0
3,57,0,0
3,50,0,0
3,61,113,9
3,54,106,0
3,57,113,0
3,50,105,0
3,45,93,0
3,50,0,212
3,57,0,4
3,45,0,0
3,61,0,4
3,54,0,0
3,38,0,4
3,56,108,16
3,61,114,0
3,64,113,0
3,45,100,0
3,52,88,96
3,61,0,47
3,56,0,0
3,64,0,0
3,56,108,1
3,61,110,0
3,64,110,0
3,52,0,95
3,52,88,1
3,61,0,45
3,56,0,0
3,64,0,0
3,56,100,1
3,61,106,0
3,64,108,0
3,45,0,47
3,45,86,1
3,61,0,27
3,52,0,0
3,56,0,0
3,64,0,0
3,61,113,21
3,38,108,0
3,54,110,0
3,50,108,0
3,57,118,0
3,50,0,95
3,50,90,1
3,61,0,39
3,45,0,0
3,54,0,0
3,57,0,0
3,50,0,0
3,61,113,9
3,54,106,0
3,57,113,0
3,50,105,0
3,45,93,0
3,50,0,152
3,57,0,4
3,45,0,0
3,61,0,4
3,54,0,0
3,38,0,4
3,61,108,16
3,64,105,0
3,69,98,0
3,57,93,0
3,57,0,47
3,57,88,1
3,61,0,45
3,64,0,0
3,69,0,0
3,57,0,0
3,61,108,1
3,64,108,0
3,69,100,0
3,57,103,0
3,61,0,83
3,64,0,0
3,69,0,0
3,57,0,0
3,61,83,9
3,57,100,0
3,66,90,0
3,54,68,22
3,61,0,21
3,57,0,0
3,66,0,0
3,54,0,0
3,61,96,1
3,66,100,0
3,54,100,0
3,57,111,0
3,61,0,80
3,66,0,0
3,54,0,0
3,57,0,0
3,54,100,13
3,57,108,0
3,62,105,0
3,62,0,24
3,50,90,24
3,54,0,44
3,57,0,0
3,54,96,1
3,57,108,0
3,62,98,0
3,50,0,34
3,54,0,0
3,57,0,0
3,62,0,0
3,56,100,13
3,59,100,0
3,64,103,0
3,52,76,46
3,56,0,14
3,59,0,0
3,64,0,0
3,56,104,1
3,59,105,0
3,64,103,0
3,52,0,87
3,56,0,0
3,59,0,0
3,64,0,0
3,61,104,9
3,64,103,0
3,57,93,0
3,69,93,0
3,57,0,8
3,69,0,12
3,57,80,0
3,61,0,47
3,64,0,0
3,57,0,0
3,61,100,0
3,64,100,0
3,57,95,0
3,69,86,0
3,61,0,83
3,64,0,0
3,57,0,0
3,69,0,0
3,61,90,13
3,66,94,0
3,54,71,0
3,57,98,0
3,54,0,4
3,54,74,44
3,61,0,45
3,66,0,0
3,57,0,0
3,54,0,0
3,61,94,0
3,57,108,0
3,66,96,0
3,54,100,0
3,61,0,75
3,57,0,0
3,66,0,0
3,54,0,0
3,54,100,21
3,57,108,0
3,62,100,0
3,62,0,16
3,50,86,31
3,54,0,45
3,57,0,0
3,54,100,1
3,57,105,0
3,62,93,0
3,50,0,33
3,54,0,0
3,57,0,0
3,62,0,0
3,56,100,0
3,59,103,0
3,64,100,0
3,52,80,47
3,56,0,6
3,59,0,0
3,64,0,0
3,56,104,1
3,59,103,0
3,64,95,0
3,52,0,84
3,56,0,0
3,59,0,0
3,64,0,0
3,61,100,13
3,64,103,0
3,69,93,0
3,57,88,0
3,57,0,4
3,57,68,43
3,61,0,23
3,64,0,0
3,57,0,0
3,61,104,0
3,64,105,0
3,57,103,0
3,61,0,55
3,69,0,0
3,64,0,0
3,57,0,0
3,61,83,13
3,57,95,0
3,66,87,0
3,54,58,0
3,61,0,20
3,57,0,0
3,66,0,0
3,54,0,0
3,61,100,1
3,57,108,0
3,66,96,0
3,54,90,0
3,61,0,87
3,57,0,0
3,66,0,0
3,54,0,0
3,54,100,9
3,57,100,0
3,62,98,0
3,50,72,0
3,50,0,8
3,50,83,0
3,54,0,19
3,57,0,0
3,62,0,0
3,54,104,1
3,57,105,0
3,62,100,0
3,50,0,12
3,54,0,0
3,57,0,0
3,62,0,0
3,56,96,13
3,59,95,0
3,64,93,0
3,52,80,46
3,56,0,22
3,59,0,0
3,64,0,0
3,56,108,1
3,59,103,0
3,64,111,0
3,52,0,33
3,56,0,0
3,59,0,0
3,64,0,0
3,61,100,13
3,64,100,0
3,57,88,0
3,69,95,0
3,57,0,12
3,57,74,36
3,61,0,47
3,64,0,0
3,69,0,0
3,57,0,0
3,61,100,1
3,64,105,0
3,69,95,0
