track,note,velocity,time
1,40,64,4608
1,45,64,1536
1,43,66,13
1,45,60,5
1,43,61,8
1,45,58,1536
1,43,69,20
1,45,59,0
1,47,60,1536
1,47,73,85
1,45,65,960
1,28,78,50
1,28,73,159
1,28,76,68
1,30,62,96
1,30,69,141
1,28,79,960
1,28,71,186
1,40,73,15
1,28,59,13
1,29,78,96
1,29,62,144
1,41,80,20
1,29,62,20
1,28,62,192
1,28,82,144
1,40,99,61
1,38,71,96
1,36,66,0
1,33,70,96
1,31,80,16
1,31,69,132
1,31,66,84
1,33,78,96
1,33,76,148
1,31,79,12
1,33,69,39
1,35,68,960
1,37,55,37
1,31,71,960
1,33,69,15
1,35,70,37
1,37,60,32
1,38,61,29
1,37,73,0
1,33,50,96
1,31,65,31
1,33,67,21
1,35,62,5
1,37,60,36
1,38,62,10
1,28,73,192
1,28,69,66
1,31,64,384
1,33,60,18
1,26,67,32
1,31,66,55
1,33,60,5
1,31,61,8
1,33,58,1536
1,31,69,20
1,33,59,0
1,35,60,1536
1,35,73,85
1,33,65,960
1,28,78,50
1,28,73,159
1,28,76,68
1,30,62,96
1,30,69,141
1,28,79,960
1,28,71,186
1,40,73,15
1,28,59,13
1,29,78,96
1,29,62,144
1,41,80,20
1,29,62,20
1,28,62,192
1,28,82,144
1,40,99,61
1,38,71,96
1,36,66,0
1,33,70,96
1,31,80,16
1,31,69,132
1,31,66,84
1,33,78,96
1,33,76,148
1,31,79,12
1,33,69,39
1,35,68,960
1,37,55,37
1,31,71,960
1,33,69,15
1,35,70,37
1,37,60,32
1,38,61,29
1,37,73,0
1,33,50,96
1,31,65,31
1,33,67,21
1,35,62,5
1,37,60,36
1,38,62,10
1,28,73,192
1,28,69,66
1,31,64,384
1,33,60,18
1,26,67,32
1,29,82,55
1,29,83,146
1,29,80,60
1,28,79,96
1,28,82,172
1,29,82,18
1,29,78,136
1,26,85,44
1,28,86,96
1,28,83,120
1,26,73,12
1,28,88,96
1,29,88,63
1,29,82,116
1,29,82,76
1,28,75,5
1,28,88,117
1,28,85,98
1,33,78,4
1,33,79,84
1,33,68,50
1,35,72,192
1,35,72,26
1,35,94,53
1,35,85,60
1,35,83,79
1,35,94,111
1,33,88,212
1,35,100,132
1,35,69,12
1,37,68,0
1,39,55,37
1,33,71,960
1,35,69,15
1,37,70,37
1,39,60,32
1,40,61,29
1,39,73,0
1,35,50,96
1,33,65,31
1,35,67,21
1,37,62,5
1,39,60,36
1,40,62,10
1,30,73,192
1,30,69,66
1,33,64,384
1,35,60,18
1,33,65,32
1,35,67,21
1,37,62,5
1,39,60,36
1,40,62,10
1,30,73,192
1,30,69,66
1,33,64,384
1,35,60,18
1,28,99,32
1,33,79,380
1,35,69,39
1,37,68,960
1,39,55,37
1,33,71,0
1,39,55,0
1,35,69,15
1,37,70,37
1,39,60,32
1,40,61,29
1,39,73,0
1,35,50,96
1,33,65,31
1,35,67,21
1,37,62,5
1,39,60,36
1,40,62,10
1,30,73,4
1,30,69,66
1,33,64,384
1,35,60,18
1,33,79,32
1,35,69,39
1,37,68,960
1,39,55,37
1,33,71,0
1,39,55,0
1,35,69,15
1,37,70,37
1,39,60,32
1,40,61,29
1,39,73,0
1,35,50,96
1,33,65,31
1,35,67,21
1,37,62,5
1,39,60,36
1,40,62,10
1,30,73,4
1,30,69,66
1,33,64,384
1,35,60,18
1,37,77,12135
1,32,64,192
1,33,60,23
1,35,67,960
1,37,71,18
1,32,58,960
1,33,66,567
1,35,69,954
1,37,63,18
1,37,63,63
1,32,58,192
1,33,66,26
1,35,74,960
1,37,69,13
1,30,69,5
1,32,68,7
1,35,69,13
1,35,71,72
1,37,75,384
1,28,66,36
1,29,68,0
2,83,80,1536
2,81,80,16
2,79,80,12
2,78,80,4
2,76,80,384
2,71,80,146
2,69,80,192
2,67,80,18
2,66,80,18
2,64,80,39
2,62,78,11735
2,64,79,192
2,67,90,192
2,81,86,9216
2,76,92,40
2,74,83,960
2,76,97,55
2,78,75,384
2,79,86,44
2,81,86,384
2,76,88,573
2,74,86,44
2,76,100,5
2,78,84,384
2,76,85,12
2,74,86,20
2,74,90,76
2,74,80,79
2,73,77,8
2,74,82,7
2,74,79,122
2,73,75,384
2,74,85,165
2,83,86,132
2,81,80,7
2,79,86,13
2,78,86,12
2,76,78,576
2,74,86,164
2,62,78,11879
2,64,79,192
2,67,90,192
2,81,86,9216
2,76,92,40
2,74,83,960
2,76,97,55
2,78,75,384
2,79,86,44
2,81,86,384
2,76,88,573
2,74,86,44
2,76,100,5
2,78,84,384
2,76,85,12
2,74,86,20
2,74,90,76
2,74,80,79
2,73,77,8
2,74,82,7
2,74,79,122
2,73,75,384
2,74,85,165
2,83,86,132
2,81,80,7
2,79,86,13
2,78,86,12
2,76,78,576
2,74,86,164
2,83,86,12455
2,78,92,40
2,76,83,960
2,78,97,55
2,80,75,384
2,81,86,44
2,83,86,384
2,78,88,573
2,76,86,44
2,78,100,5
2,80,84,384
2,78,85,12
2,76,86,20
2,76,90,76
2,76,80,79
2,75,77,8
2,76,82,7
2,76,79,122
2,75,75,384
2,76,85,165
2,85,86,132
2,83,80,7
2,81,86,13
2,80,86,12
2,78,78,576
2,76,90,164
2,76,80,79
2,75,77,8
2,76,82,7
2,76,79,122
2,75,75,384
2,76,85,165
2,85,86,132
2,83,80,7
2,81,86,13
2,80,86,12
2,78,78,576
2,83,86,1700
2,78,92,40
2,76,83,960
2,78,97,55
2,80,75,384
2,81,86,44
2,83,86,0
2,81,86,0
2,78,88,573
2,76,86,44
2,78,100,5
2,80,84,384
2,78,85,12
2,76,86,20
2,76,90,76
2,76,80,79
2,75,77,8
2,76,82,7
2,76,79,122
2,75,75,384
2,76,85,165
2,85,86,132
2,83,80,7
2,81,86,13
2,80,86,12
2,78,78,576
2,83,86,164
2,78,92,40
2,76,83,960
2,78,97,55
2,80,75,384
2,81,86,44
2,83,86,0
2,81,86,0
2,78,88,573
2,76,86,44
2,78,100,5
2,80,84,384
2,78,85,12
2,76,86,20
2,76,90,76
2,76,80,79
2,75,77,8
2,76,82,7
2,76,79,122
2,75,75,384
2,76,85,165
2,85,86,132
2,83,80,7
2,81,86,13
2,80,86,12
2,66,81,576
2,66,66,20
2,66,71,31
2,68,86,7
2,66,86,7
2,64,72,24
2,66,81,0
2,66,66,20
2,66,71,31
2,68,86,7
2,66,86,7
2,64,72,24
2,71,83,192
2,78,92,284
2,78,84,56
2,78,86,7
2,76,80,192
2,73,79,0
2,71,73,28
2,64,76,672
2,66,77,282
2,71,80,29
2,68,79,288
2,73,79,24
2,71,66,29
2,64,71,7
2,66,71,20
2,71,82,288
2,68,77,16
2,71,80,16
2,73,71,192
2,71,75,87
2,64,70,20
2,66,63,55
2,71,78,0
2,68,79,288
2,69,76,47
2,68,84,7
2,64,71,768
2,66,79,184
2,66,84,84
2,68,81,384
2,73,79,136
2,71,73,28
2,64,76,672
2,66,77,282
2,71,80,29
2,68,79,288
2,73,79,24
2,71,66,29
2,64,71,7
2,66,71,20
2,71,82,288
2,68,77,16
2,71,80,16
2,73,71,192
2,71,75,87
2,64,70,20
2,66,63,55
2,71,78,0
2,68,79,288
2,69,76,47
2,68,84,7
2,64,71,768
2,66,79,184
2,66,84,84
2,68,81,384
2,64,90,136
3,64,80,1536
3,57,80,1536
3,69,80,186
3,64,80,384
3,66,80,360
3,64,80,160
3,62,80,12
3,67,80,2
3,52,80,0
3,66,80,192
3,64,80,116
3,57,80,42
3,62,80,0
3,59,69,0
3,62,71,0
3,55,82,0
3,66,57,0
3,64,74,744
3,57,76,0
3,61,75,0
3,59,69,930
3,62,74,0
3,55,63,0
3,66,59,0
3,61,75,10
3,64,76,0
3,57,72,0
3,69,79,183
3,59,74,924
3,62,74,0
3,66,60,0
3,55,62,0
3,64,73,991
3,57,71,0
3,61,69,0
3,61,75,517
3,57,76,0
3,64,74,0
3,62,82,84
3,66,77,0
3,57,73,55
3,64,80,0
3,61,69,0
3,59,82,82
3,55,76,0
3,62,71,0
3,64,70,860
3,57,61,0
3,59,66,0
3,61,56,11
3,62,83,309
3,67,71,491
3,59,75,2
3,55,66,0
3,62,72,0
3,57,72,1013
3,65,76,0
3,60,80,0
3,59,74,960
3,67,72,0
3,62,75,0
3,55,69,8
3,60,88,214
3,62,74,520
3,67,74,0
3,59,68,0
3,59,72,6
3,67,78,150
3,59,82,0
3,62,82,0
3,59,59,126
3,62,66,125
3,67,99,166
3,59,74,20
3,62,76,0
3,55,70,0
3,64,82,98
3,61,73,0
3,57,66,0
3,66,69,32
3,57,66,0
3,62,78,0
3,61,66,71
3,57,69,0
3,64,69,0
3,55,68,79
3,59,72,0
3,62,66,0
3,64,75,109
3,57,66,0
3,61,73,0
3,66,73,55
3,62,74,0
3,57,66,0
3,64,75,130
3,61,71,0
3,57,62,0
3,55,65,84
3,59,70,0
3,62,72,0
3,64,71,101
3,61,69,0
3,57,63,0
3,57,63,82
3,62,68,0
3,66,63,0
3,64,66,109
3,61,73,0
3,57,66,0
3,67,82,93
3,71,88,0
3,62,74,0
3,66,77,47
3,69,85,0
3,62,78,76
3,59,62,0
3,67,86,0
3,57,78,69
3,66,77,0
3,62,71,0
3,64,67,120
3,57,64,0
3,62,67,0
3,52,46,116
3,54,46,0
3,62,66,0
3,57,66,0
3,59,69,85
3,62,71,0
3,55,82,0
3,66,57,0
3,64,74,744
3,57,76,0
3,61,75,0
3,59,69,930
3,62,74,0
3,55,63,0
3,66,59,0
3,61,75,10
3,64,76,0
3,57,72,0
3,69,79,183
3,59,74,924
3,62,74,0
3,66,60,0
3,55,62,0
3,64,73,991
3,57,71,0
3,61,69,0
3,61,75,517
3,57,76,0
3,64,74,0
3,62,82,84
3,66,77,0
3,57,73,55
3,64,80,0
3,61,69,0
3,59,82,82
3,55,76,0
3,62,71,0
3,64,70,860
3,57,61,0
3,59,66,0
3,61,56,11
3,62,83,309
3,67,71,491
3,59,75,2
3,55,66,0
3,62,72,0
3,57,72,1013
3,65,76,0
3,60,80,0
3,59,74,960
3,67,72,0
3,62,75,0
3,55,69,8
3,60,88,214
3,62,74,520
3,67,74,0
3,59,68,0
3,59,72,6
3,67,78,150
3,59,82,0
3,62,82,0
3,59,59,126
3,62,66,125
3,67,99,166
3,59,74,20
3,62,76,0
3,55,70,0
3,64,82,98
3,61,73,0
3,57,66,0
3,66,69,32
3,57,66,0
3,62,78,0
3,61,66,71
3,57,69,0
3,64,69,0
3,55,68,79
3,59,72,0
3,62,66,0
3,64,75,109
3,57,66,0
3,61,73,0
3,66,73,55
3,62,74,0
3,57,66,0
3,64,75,130
3,61,71,0
3,57,62,0
3,55,65,84
3,59,70,0
3,62,72,0
3,64,71,101
3,61,69,0
3,57,63,0
3,57,63,82
3,62,68,0
3,66,63,0
3,64,66,109
3,61,73,0
3,57,66,0
3,67,82,93
3,71,88,0
3,62,74,0
3,66,77,47
3,69,85,0
3,62,78,76
3,59,62,0
3,67,86,0
3,57,78,69
3,66,77,0
3,62,71,0
3,64,67,120
3,57,64,0
3,62,67,0
3,52,46,116
3,54,46,0
3,62,66,0
3,57,66,0
3,57,75,85
3,65,82,0
3,67,79,0
3,60,83,0
3,62,85,101
3,55,75,0
3,60,85,0
3,67,86,0
3,57,79,64
3,65,85,0
3,67,80,0
3,60,85,0
3,60,85,66
3,62,86,0
3,55,78,0
3,67,90,0
3,67,76,82
3,60,85,0
3,65,75,0
3,57,74,0
3,60,88,56
3,55,80,0
3,67,83,0
3,62,88,0
3,62,83,36
3,57,83,0
3,55,79,0
3,59,88,0
3,64,78,176
3,61,86,0
3,57,82,0
3,59,86,0
3,64,82,28
3,59,83,0
3,61,86,0
3,57,70,0
3,61,89,48
3,59,97,0
3,64,92,0
3,57,86,0
3,61,96,87
3,59,97,0
3,57,90,0
3,64,97,0
3,61,92,101
3,59,94,0
3,57,86,0
3,64,90,0
3,61,100,88
3,64,99,0
3,59,100,0
3,57,92,0
3,64,92,340
3,57,92,0
3,61,96,0
3,66,89,191
3,59,85,0
3,63,89,0
3,64,78,98
3,59,66,0
3,68,69,0
3,66,69,71
3,59,69,0
3,63,66,0
3,64,66,79
3,61,72,0
3,57,68,0
3,63,73,109
3,59,66,0
3,66,75,0
3,59,66,55
3,64,74,0
3,68,73,0
3,59,62,130
3,63,71,0
3,66,75,0
3,64,72,84
3,61,70,0
3,57,65,0
3,59,63,101
3,63,69,0
3,66,71,0
3,68,63,82
3,64,68,0
3,59,63,0
3,59,66,109
3,63,73,0
3,66,66,0
3,64,74,93
3,73,88,0
3,69,82,0
3,71,85,47
3,68,77,0
3,69,86,76
3,61,62,0
3,64,78,0
3,64,71,69
3,68,77,0
3,59,78,0
3,64,67,120
3,59,64,0
3,66,67,0
3,64,72,116
3,61,70,0
3,57,65,0
3,59,63,101
3,63,69,0
3,66,71,0
3,68,63,82
3,64,68,0
3,59,63,0
3,59,66,109
3,63,73,0
3,66,66,0
3,64,74,93
3,73,88,0
3,69,82,0
3,71,85,47
3,68,77,0
3,69,86,76
3,61,62,0
3,64,78,0
3,64,71,69
3,68,77,0
3,59,78,0
3,64,67,120
3,59,64,0
3,66,67,0
3,57,70,1652
3,64,76,0
3,61,74,0
3,59,66,98
3,63,73,0
3,66,82,0
3,64,78,32
3,59,66,0
3,68,69,0
3,66,69,71
3,59,69,0
3,63,66,0
3,64,66,79
3,61,72,0
3,57,68,0
3,63,73,109
3,59,66,0
3,66,75,0
3,59,66,55
3,64,74,0
3,68,73,0
3,59,62,130
3,63,71,0
3,66,75,0
3,64,72,84
3,61,70,0
3,57,65,0
3,59,63,101
3,63,69,0
3,66,71,0
3,68,63,82
3,64,68,0
3,59,63,0
3,59,66,109
3,63,73,0
3,66,66,0
3,64,74,93
3,73,88,0
3,69,82,0
3,71,85,47
3,68,77,0
3,69,86,76
3,61,62,0
3,64,78,0
3,64,71,69
3,68,77,0
3,59,78,0
3,64,67,120
3,59,64,0
3,66,67,0
3,57,70,116
3,64,76,0
3,61,74,0
3,59,66,98
3,63,73,0
3,66,82,0
3,64,78,32
3,59,66,0
3,68,69,0
3,66,69,71
3,59,69,0
3,63,66,0
3,64,66,79
3,61,72,0
3,57,68,0
3,63,73,109
3,59,66,0
3,66,75,0
3,59,66,55
3,64,74,0
3,68,73,0
3,59,62,130
3,63,71,0
3,66,75,0
3,64,72,84
3,61,70,0
3,57,65,0
3,59,63,101
3,63,69,0
3,66,71,0
3,68,63,82
3,64,68,0
3,59,63,0
3,59,66,109
3,63,73,0
3,66,66,0
3,64,74,93
3,73,88,0
3,69,82,0
3,71,85,47
3,68,77,0
3,69,86,76
3,61,62,0
3,64,78,0
3,64,71,69
3,68,77,0
3,59,78,0
3,64,67,120
3,59,64,0
3,66,67,0
3,47,79,116
3,42,84,0
3,56,69,192
3,59,79,0
3,63,63,0
3,64,74,268
3,57,70,0
3,61,69,0
3,66,75,700
3,59,66,0
3,63,79,0
3,59,74,375
3,64,74,0
3,61,77,0
3,68,71,0
3,59,79,668
3,63,59,0
3,56,66,0
3,57,72,354
3,64,74,0
3,61,75,0
3,59,62,756
3,66,71,0
3,63,73,0
3,59,71,412
3,64,70,0
3,61,69,0
3,68,64,0
3,56,68,719
3,59,78,0
3,63,54,0
3,64,74,397
3,61,77,0
3,57,72,0
3,59,62,744
3,66,68,0
3,63,71,0
3,59,71,370
3,64,73,0
3,61,73,0
3,68,64,0
3,42,47,16
3,57,69,0
3,61,59,0
3,54,51,0
3,44,49,384
3,59,70,0
3,64,70,0
3,56,54,0
3,59,52,640
3,47,60,0
3,66,52,0
3,64,61,0
3,59,58,148
3,49,57,0
3,64,68,0
3,66,57,0
3,68,81,16
3,56,69,114
3,59,79,0
3,63,63,0
3,64,74,268
3,57,70,0
3,61,69,0
3,66,75,700
3,59,66,0
3,63,79,0
3,59,74,375
3,64,74,0
3,61,77,0
3,68,71,0
3,59,79,668
3,63,59,0
3,56,66,0
3,57,72,354
3,64,74,0
