track,note,velocity,time
0,57,88,0
0,76,82,0
0,73,66,0
0,81,70,0
0,42,70,0
0,38,35,0
0,61,91,8
0,64,94,0
0,53,35,0
0,76,79,0
0,73,67,0
0,81,71,0
0,42,55,0
0,62,35,0
0,76,35,0
0,64,89,0
0,76,86,0
0,73,70,0
0,81,78,0
0,42,65,0
0,86,35,0
0,76,35,0
0,76,89,0
0,73,71,0
0,76,85,0
0,81,74,0
0,42,50,0
0,62,35,0
0,53,35,0
0,74,86,0
0,73,71,0
0,76,85,0
0,81,74,0
0,42,70,0
0,38,35,0
0,53,35,0
0,73,91,0
0,73,73,0
0,76,92,0
0,81,80,0
0,42,55,0
0,62,35,0
0,76,35,0
0,71,92,0
0,73,72,0
0,76,90,0
0,81,75,0
0,42,65,0
0,86,35,0
0,76,35,0
0,73,86,0
0,73,70,0
0,76,92,0
0,81,79,0
0,42,50,0
0,62,35,0
0,53,35,0
0,64,96,0
0,76,97,0
0,73,76,0
0,81,76,0
0,42,70,0
0,38,35,0
0,53,35,0
0,62,101,16
0,76,88,0
0,73,70,0
0,81,74,0
0,42,55,0
0,62,35,0
0,76,35,0
0,73,73,16
0,76,91,0
0,81,76,0
0,42,65,0
0,86,35,0
0,76,35,0
0,61,85,0
0,76,89,0
0,73,71,0
0,81,73,0
0,42,50,0
0,62,35,0
0,62,93,0
0,61,88,0
0,53,35,0
0,59,91,0
0,76,84,0
0,73,70,0
0,81,72,0
0,42,70,0
0,38,35,0
0,53,35,0
0,76,92,12
0,73,75,0
0,81,78,0
0,42,55,0
0,62,35,0
0,76,35,0
0,76,90,4
0,73,73,0
0,81,74,0
0,42,65,0
0,86,35,0
0,76,35,0
0,61,87,0
0,76,90,0
0,73,74,0
0,81,74,0
0,35,64,0
0,42,50,0
0,62,35,0
0,59,94,0
0,53,35,0
0,57,99,0
0,59,94,0
0,76,90,0
0,71,78,0
0,80,82,0
0,35,64,0
0,42,70,0
0,42,35,0
0,59,35,0
0,76,82,16
0,71,76,0
0,80,78,0
0,42,55,0
0,66,35,0
0,76,35,0
0,64,90,0
0,71,75,0
0,76,90,0
0,80,86,0
0,42,65,0
0,84,35,0
0,76,35,0
0,76,87,0
0,71,76,0
0,76,85,0
0,80,84,0
0,42,50,0
0,66,35,0
0,59,35,0
0,74,83,0
0,71,83,0
0,76,91,0
0,80,85,0
0,42,70,0
0,42,35,0
0,59,35,0
0,73,88,0
0,71,84,0
0,76,93,0
0,80,86,0
0,42,55,0
0,66,35,0
0,76,35,0
0,71,86,0
0,71,85,0
0,76,97,0
0,80,88,0
0,42,65,0
0,84,35,0
0,76,35,0
0,69,90,0
0,71,78,0
0,76,96,0
0,80,84,0
0,42,50,0
0,66,35,0
0,59,35,0
0,68,97,0
0,76,99,0
0,71,91,0
0,80,96,0
0,42,70,0
0,42,35,0
0,59,35,0
0,71,88,16
0,76,102,0
0,80,93,0
0,42,55,0
0,66,35,0
0,76,35,0
0,71,93,16
0,76,99,0
0,80,98,0
0,42,65,0
0,84,35,0
0,76,35,0
0,71,90,16
0,76,98,0
0,80,92,0
0,42,50,0
0,66,35,0
0,59,35,0
0,71,88,0
0,76,97,0
0,80,93,0
0,42,70,0
0,42,35,0
0,59,35,0
0,71,92,12
0,76,100,0
0,80,93,0
0,42,55,0
0,66,35,0
0,76,35,0
0,71,92,4
0,76,99,0
0,80,93,0
0,42,65,0
0,84,35,0
0,76,35,0
0,57,92,0
0,71,88,0
0,76,99,0
0,80,90,0
0,35,64,0
0,42,50,0
0,66,35,0
0,59,97,0
0,59,35,0
0,61,101,0
0,78,96,0
0,73,93,0
0,81,93,0
0,35,64,0
0,42,70,0
0,32,35,0
0,44,35,0
0,78,94,16
0,73,85,0
0,81,81,0
0,42,55,0
0,56,35,0
0,70,35,0
0,69,93,0
0,73,90,0
0,78,94,0
0,81,88,0
0,42,65,0
0,80,35,0
0,70,35,0
0,81,92,0
0,78,101,0
0,73,94,0
0,81,96,0
0,42,50,0
0,56,35,0
0,44,35,0
0,80,92,0
0,61,101,0
0,73,94,0
0,78,99,0
0,81,93,0
0,42,70,0
0,30,35,0
0,45,35,0
0,78,87,0
0,73,92,0
0,78,95,0
0,81,90,0
0,42,55,0
0,62,35,0
0,70,35,0
0,76,82,0
0,73,93,0
0,78,96,0
0,81,90,0
0,42,65,0
0,86,35,0
0,69,35,0
0,78,85,0
0,73,96,0
0,78,98,0
0,81,91,0
0,42,50,0
0,62,35,0
0,45,35,0
0,73,86,0
0,78,94,0
0,73,92,0
0,81,90,0
0,42,70,0
0,29,35,0
0,45,35,0
0,59,88,16
0,78,98,0
0,73,94,0
0,81,92,0
0,42,55,0
0,62,35,0
0,70,35,0
0,73,95,8
0,78,99,0
0,81,92,0
0,42,65,0
0,86,35,0
0,61,92,0
0,69,35,0
0,81,91,0
0,73,100,0
0,78,102,0
0,81,96,0
0,42,50,0
0,62,35,0
0,45,35,0
0,62,95,0
0,80,96,0
0,73,99,0
0,78,100,0
0,81,93,0
0,42,70,0
0,29,35,0
0,45,35,0
0,78,91,0
0,78,97,0
0,73,93,0
0,81,90,0
0,42,55,0
0,62,35,0
0,70,35,0
0,76,83,0
0,73,91,0
0,78,92,0
0,81,88,0
0,42,65,0
0,86,35,0
0,61,87,12
0,69,35,0
0,80,96,0
0,62,92,0
0,73,94,0
0,78,96,0
0,81,95,0
0,35,64,0
0,42,50,0
0,62,35,0
0,64,93,0
0,45,35,0
0,78,97,0
0,66,92,0
0,57,63,0
0,62,54,0
0,74,95,0
0,78,100,0
0,81,95,0
0,35,64,0
0,42,70,0
0,31,35,0
0,46,35,0
0,74,89,0
0,78,96,0
0,81,95,0
0,42,55,0
0,56,35,0
0,70,35,0
0,74,90,12
0,78,97,0
0,81,95,0
0,42,65,0
0,86,35,0
0,70,35,0
0,74,91,0
0,78,94,0
0,81,96,0
0,42,50,0
0,56,35,0
0,46,35,0
0,80,91,0
0,59,66,0
0,64,69,0
0,74,90,0
0,78,93,0
0,81,94,0
0,42,70,0
0,40,35,0
0,52,35,0
0,74,93,0
0,78,93,0
0,81,96,0
0,42,55,0
0,67,35,0
0,76,35,0
0,74,97,12
0,78,96,0
0,81,99,0
0,42,65,0
0,84,35,0
0,76,35,0
0,74,94,0
0,78,94,0
0,81,98,0
0,42,50,0
0,67,35,0
0,52,35,0
0,81,89,0
0,61,65,0
0,66,60,0
0,74,94,0
0,78,95,0
0,81,96,0
0,42,70,0
0,29,35,0
0,44,35,0
0,74,94,0
0,78,93,0
0,81,98,0
0,42,55,0
0,56,35,0
0,70,35,0
0,74,92,12
0,78,93,0
0,81,96,0
0,42,65,0
0,80,35,0
0,70,35,0
0,61,89,0
0,74,97,0
0,78,96,0
0,81,99,0
0,42,50,0
0,56,35,0
0,59,92,0
0,44,35,0
0,57,103,0
0,83,95,0
0,57,97,0
0,59,55,0
0,64,53,0
0,74,93,0
0,78,93,0
0,81,97,0
0,42,70,0
0,29,35,0
0,36,35,0
0,74,98,4
0,78,100,0
0,81,99,0
0,42,55,0
0,52,35,0
0,56,87,0
0,62,35,0
0,86,102,0
0,74,92,0
0,78,93,0
0,81,93,0
0,42,65,0
0,77,35,0
0,62,35,0
0,64,103,0
0,74,96,4
0,78,100,0
0,81,98,0
0,46,70,0
0,52,35,0
0,36,35,0
0,64,108,0
0,85,94,0
0,76,63,0
0,73,46,0
0,81,51,0
0,73,83,0
0,76,99,0
0,81,88,0
0,35,80,0
0,42,70,0
0,38,35,0
0,52,35,0
0,76,105,0
0,73,84,0
0,81,95,0
0,42,55,0
0,62,35,0
0,76,35,0
0,73,91,0
0,76,109,0
0,81,99,0
0,42,65,0
0,86,35,0
0,76,35,0
0,73,83,0
0,76,107,0
0,81,97,0
0,42,50,0
0,62,35,0
0,52,35,0
0,64,107,0
0,73,89,0
0,76,110,0
0,81,96,0
0,42,70,0
0,38,35,0
0,52,35,0
0,73,91,0
0,76,110,0
0,81,98,0
0,42,55,0
0,62,35,0
0,76,35,0
0,73,93,0
0,76,111,0
0,81,100,0
0,42,65,0
0,86,35,0
0,76,35,0
0,73,90,0
0,76,109,0
0,81,95,0
0,42,50,0
0,62,35,0
0,52,35,0
0,57,56,0
0,61,47,0
0,64,51,0
0,73,92,0
0,76,110,0
0,81,98,0
0,42,70,0
0,38,35,0
0,52,35,0
0,73,91,0
0,76,109,0
0,81,99,0
0,42,55,0
0,62,35,0
0,76,35,0
0,73,93,0
0,76,110,0
0,81,100,0
0,42,65,0
0,86,35,0
0,76,35,0
0,73,92,0
0,76,108,0
0,81,96,0
0,42,50,0
0,62,35,0
0,52,35,0
0,62,105,0
0,73,92,0
0,76,105,0
0,81,96,0
0,42,70,0
0,38,35,0
0,52,35,0
0,61,100,0
0,73,87,0
0,76,105,0
0,81,95,0
0,42,55,0
0,62,35,0
0,76,35,0
0,73,90,0
0,76,108,0
0,81,97,0
0,42,65,0
0,86,35,0
0,76,35,0
0,59,103,0
0,73,94,0
0,76,109,0
0,81,97,0
0,35,80,0
0,46,70,0
0,62,35,0
0,57,112,0
0,52,35,0
0,59,103,0
0,56,48,0
0,59,50,0
0,64,52,0
0,76,103,0
0,71,93,0
0,80,93,0
0,35,80,0
0,42,70,0
0,42,35,0
0,59,35,0
0,71,88,0
0,76,100,0
0,80,85,0
0,42,55,0
0,66,35,0
0,76,35,0
0,71,93,0
0,76,99,0
0,80,95,0
0,42,65,0
0,84,35,0
0,76,35,0
0,64,106,0
0,71,91,0
0,76,100,0
0,80,97,0
0,42,50,0
0,66,35,0
0,59,35,0
0,71,95,0
0,76,101,0
0,80,103,0
0,42,70,0
0,42,35,0
0,59,35,0
0,76,105,0
0,71,94,0
0,80,99,0
0,42,55,0
0,66,35,0
0,76,35,0
0,71,94,0
0,76,104,0
0,80,100,0
0,42,65,0
0,84,35,0
0,76,35,0
0,71,95,0
0,76,106,0
0,80,102,0
0,42,50,0
0,66,35,0
0,59,35,0
0,71,97,0
0,76,109,0
0,80,104,0
0,42,70,0
0,42,35,0
0,59,35,0
0,71,98,0
0,76,111,0
0,80,104,0
0,42,55,0
0,66,35,0
0,76,35,0
0,71,92,0
0,76,108,0
0,80,100,0
0,42,65,0
0,84,35,0
0,76,35,0
0,71,96,4
0,76,110,0
0,80,103,0
0,42,50,0
0,66,35,0
0,59,35,0
0,71,96,4
0,76,109,0
0,80,104,0
0,42,70,0
0,42,35,0
0,59,35,0
0,71,96,0
0,76,106,0
0,80,102,0
0,42,55,0
0,66,35,0
0,76,35,0
0,71,94,0
0,76,108,0
0,80,99,0
0,42,65,0
0,84,35,0
0,76,35,0
0,71,95,0
0,76,108,0
0,80,99,0
0,46,70,0
0,66,35,0
0,59,35,0
0,61,106,0
0,54,47,0
0,57,52,0
0,61,44,0
0,73,89,0
0,78,97,0
0,81,89,0
0,35,80,0
0,42,70,0
0,32,35,0
0,44,35,0
0,73,91,0
0,78,95,0
0,81,89,0
0,42,55,0
0,56,35,0
0,70,35,0
0,78,102,0
0,73,94,0
0,81,98,0
0,42,65,0
0,86,35,0
0,70,35,0
0,59,105,0
0,73,94,0
0,78,102,0
0,81,97,0
0,42,50,0
0,56,35,0
0,44,35,0
0,73,94,0
0,78,100,0
0,81,96,0
0,42,70,0
0,32,35,0
0,44,35,0
0,73,93,16
0,78,100,0
0,81,97,0
0,42,55,0
0,56,35,0
0,70,35,0
0,73,92,16
0,78,96,0
0,81,93,0
0,42,65,0
0,86,35,0
0,70,35,0
0,73,91,4
0,78,96,0
0,81,91,0
0,42,50,0
0,56,35,0
0,44,35,0
0,73,91,0
0,78,100,0
0,81,94,0
0,42,70,0
0,32,35,0
0,44,35,0
0,78,94,0
0,73,91,0
0,81,94,0
0,42,55,0
0,56,35,0
0,70,35,0
0,61,104,0
0,73,93,0
0,78,96,0
0,81,96,0
0,42,65,0
0,86,35,0
0,70,35,0
0,61,105,0
0,73,88,0
0,78,92,0
0,81,93,0
0,42,50,0
0,56,35,0
0,44,35,0
0,62,102,0
0,73,90,0
0,78,97,0
0,81,97,0
0,42,70,0
0,32,35,0
0,44,35,0
0,73,89,16
0,78,94,0
0,81,93,0
0,42,55,0
0,56,35,0
0,70,35,0
0,64,104,0
0,73,92,0
0,78,94,0
0,81,94,0
0,42,65,0
0,86,35,0
0,70,35,0
0,66,100,0
0,73,97,0
0,78,101,0
0,81,100,0
0,35,80,0
0,46,70,0
0,56,35,0
0,44,35,0
0,62,53,0
0,66,45,0
0,78,105,0
0,74,99,0
0,81,99,0
0,35,80,0
0,42,70,0
0,37,35,0
0,47,35,0
0,74,97,4
0,78,104,0
0,81,104,0
0,42,55,0
0,62,35,0
0,70,35,0
0,74,95,0
0,78,98,0
0,81,100,0
0,42,65,0
0,86,35,0
0,70,35,0
0,74,97,16
0,78,100,0
0,81,103,0
0,42,50,0
0,62,35,0
0,47,35,0
0,74,98,16
0,78,101,0
0,81,102,0
0,42,70,0
0,37,35,0
0,47,35,0
0,74,97,0
0,78,98,0
0,81,101,0
0,42,55,0
0,62,35,0
0,70,35,0
0,74,96,4
0,78,97,0
0,81,102,0
0,42,65,0
0,86,35,0
0,70,35,0
0,74,94,0
0,78,94,0
0,81,99,0
0,42,50,0
0,62,35,0
0,47,35,0
0,64,53,0
0,68,49,0
0,71,90,0
0,76,101,0
0,80,93,0
0,42,70,0
0,28,35,0
0,43,35,0
0,71,91,16
0,76,101,0
0,80,94,0
0,42,55,0
0,59,35,0
0,67,35,0
0,76,107,16
0,71,93,0
0,80,102,0
0,42,65,0
0,84,35,0
0,67,35,0
0,71,94,16
0,76,103,0
0,80,100,0
0,42,50,0
0,59,35,0
0,43,35,0
0,68,97,0
0,71,94,0
0,76,108,0
0,80,100,0
0,36,80,0
0,42,70,0
0,28,35,0
0,43,35,0
0,71,99,4
0,76,109,0
0,80,104,0
0,42,55,0
0,59,35,0
0,67,35,0
0,71,99,0
0,71,96,0
0,76,109,0
0,80,100,0
0,42,65,0
0,84,35,0
0,67,35,0
0,71,98,0
0,76,110,0
0,80,104,0
0,35,80,0
0,46,70,0
0,59,35,0
0,43,35,0
0,69,102,0
0,61,53,0
0,64,56,0
0,73,90,0
0,76,105,0
0,81,90,0
0,35,80,0
0,42,70,0
0,38,35,0
0,52,35,0
0,73,83,0
0,76,101,0
0,81,82,0
0,42,55,0
0,62,35,0
0,76,35,0
0,64,102,0
0,73,91,0
0,76,106,0
0,81,86,0
0,42,65,0
0,86,35,0
0,76,35,0
0,73,94,0
0,76,109,0
0,81,96,0
0,42,50,0
0,62,35,0
0,52,35,0
0,73,92,16
0,76,104,0
0,81,92,0
0,42,70,0
0,38,35,0
0,52,35,0
0,73,93,0
0,76,106,0
0,81,93,0
0,42,55,0
0,62,35,0
0,76,35,0
0,73,70,0
0,73,89,0
0,76,105,0
0,81,94,0
0,42,65,0
0,86,35,0
0,76,35,0
0,73,96,16
0,76,111,0
0,81,95,0
0,42,50,0
0,62,35,0
0,52,35,0
0,72,70,0
0,72,98,0
0,76,102,0
0,81,96,0
0,42,70,0
0,38,35,0
0,52,35,0
0,72,100,8
0,76,104,0
0,81,99,0
0,42,55,0
0,62,35,0
0,76,35,0
0,72,102,0
0,76,105,0
0,81,103,0
0,42,65,0
0,86,35,0
0,76,35,0
0,72,107,0
0,76,106,0
0,81,105,0
0,42,50,0
0,62,35,0
0,52,35,0
0,66,99,0
0,72,105,0
0,76,108,0
0,81,105,0
0,42,70,0
0,38,35,0
0,52,35,0
0,72,106,4
0,76,107,0
0,81,103,0
0,42,55,0
0,62,35,0
0,76,35,0
0,69,102,0
0,72,107,0
0,76,108,0
0,81,104,0
0,42,65,0
0,86,35,0
0,76,35,0
0,72,109,4
0,76,111,0
0,81,106,0
0,35,80,0
0,46,70,0
0,62,35,0
0,52,35,0
0,67,102,0
0,67,51,0
0,74,57,0
0,71,93,0
0,74,95,0
0,79,90,0
0,35,80,0
0,42,70,0
0,34,35,0
0,47,35,0
