track,note,velocity,time
2,26,65,2343
2,26,0,38
2,26,57,58
2,26,0,36
2,26,61,156
2,26,0,27
2,26,69,69
2,26,0,36
2,26,61,60
2,26,0,27
2,26,53,69
2,26,0,40
2,26,17,56
2,26,0,20
2,26,49,76
2,26,0,44
2,26,41,52
2,26,0,36
2,26,49,156
2,26,0,32
2,26,61,64
2,26,0,38
2,26,65,58
2,26,0,36
2,26,65,60
2,26,0,41
2,26,65,55
2,26,0,35
2,26,57,61
2,26,0,48
2,26,61,48
2,26,0,35
2,26,61,157
2,26,0,33
2,26,41,63
2,26,0,43
2,26,45,53
2,26,0,33
2,26,61,63
2,26,0,38
2,26,24,58
2,26,0,30
2,26,49,66
2,26,0,48
2,26,33,48
2,26,0,40
2,26,53,152
2,26,0,33
2,26,61,63
2,26,0,44
2,26,37,52
2,26,0,35
2,26,49,61
2,26,0,51
2,26,33,45
2,26,0,36
2,26,65,60
2,26,0,38
2,26,57,58
2,26,0,36
2,26,61,156
2,26,0,27
2,26,69,69
2,26,0,36
2,26,61,60
2,26,0,27
2,26,53,69
2,26,0,40
2,26,17,56
2,26,0,20
2,26,49,76
2,26,0,44
2,26,41,52
2,26,0,36
2,26,49,156
2,26,0,32
2,26,61,64
2,26,0,38
2,26,65,58
2,26,0,36
2,26,65,60
2,26,0,41
2,26,65,55
2,26,0,35
2,26,57,61
2,26,0,48
2,26,61,48
2,26,0,35
2,26,61,157
2,26,0,33
2,26,41,63
2,26,0,43
2,26,45,53
2,26,0,33
2,26,61,63
2,26,0,38
2,26,24,58
2,26,0,30
2,26,49,66
2,26,0,48
2,26,33,48
2,26,0,40
2,26,53,152
2,26,0,33
2,26,61,63
2,26,0,44
2,26,37,52
2,26,0,35
2,26,49,61
2,26,0,51
2,26,33,45
2,26,0,36
2,26,65,60
2,26,0,38
2,26,57,58
2,26,0,36
2,26,61,156
2,26,0,27
2,26,69,69
2,26,0,36
2,26,61,60
2,26,0,27
2,26,53,69
2,26,0,40
2,26,17,56
2,26,0,20
2,26,49,76
2,26,0,44
2,26,41,52
2,26,0,36
2,26,49,156
2,26,0,32
2,26,61,64
2,26,0,38
2,26,65,58
2,26,0,36
2,26,65,60
2,26,0,41
2,26,65,55
2,26,0,35
2,26,57,61
2,26,0,48
2,26,61,48
2,26,0,35
2,26,61,157
2,26,0,33
2,26,41,63
2,26,0,43
2,26,45,53
2,26,0,33
2,26,61,63
2,26,0,38
2,26,24,58
2,26,0,30
2,26,49,66
2,26,0,48
2,26,33,48
2,26,0,40
2,26,53,152
2,26,0,33
2,26,61,63
2,26,0,44
2,26,37,52
2,26,0,35
2,26,49,61
2,26,0,51
2,26,33,45
2,26,0,36
2,33,102,60
2,33,0,753
2,34,112,11
2,34,0,755
2,33,102,13
2,33,0,757
2,34,117,8
2,34,0,534
2,34,96,39
2,34,0,89
2,41,87,11
2,41,0,80
2,34,112,17
2,34,0,716
2,31,115,60
2,31,0,219
2,31,119,65
2,31,0,84
2,34,123,16
2,34,0,79
2,38,100,11
2,38,0,88
2,45,104,3
2,45,0,54
2,43,99,0
2,36,107,4
2,43,0,7
2,36,0,449
2,36,73,8
2,36,0,11
2,31,112,13
2,31,0,248
2,31,121,38
2,31,0,87
2,34,121,12
2,34,0,83
2,38,107,9
2,38,0,6
2,45,109,1
2,45,0,64
2,43,104,4
2,36,119,5
2,43,0,1
2,36,0,101
2,36,123,144
2,36,0,261
2,36,98,22
2,36,0,5
2,31,115,16
2,31,0,253
2,31,121,38
2,31,0,90
2,34,123,8
2,34,0,81
2,38,107,11
2,38,0,7
2,45,109,1
2,45,0,56
2,43,109,6
2,36,115,8
2,43,0,1
2,36,0,142
2,36,117,113
2,36,0,4
2,33,112,0
2,33,0,36
2,38,107,11
2,64,64,67
2,64,0,0
2,38,0,108
2,38,117,114
2,38,0,376
2,33,103,5
2,38,99,100
2,33,0,4
2,64,69,258
2,64,0,0
2,64,77,200
2,64,0,0
2,64,80,195
2,64,0,0
2,38,0,77
2,38,125,34
2,38,0,181
2,38,125,108
2,38,0,371
2,33,115,12
2,33,0,94
2,36,119,3
2,36,0,151
2,36,121,137
2,36,0,407
2,38,121,72
2,38,0,176
2,38,121,112
2,38,0,380
2,33,106,4
2,33,0,96
2,36,119,3
2,36,0,141
2,36,119,144
2,36,0,193
2,40,119,3
2,41,112,148
2,40,0,4
2,41,0,99
2,38,113,40
2,38,0,139
2,38,121,143
2,38,0,370
2,33,112,13
2,33,0,100
2,36,115,0
2,36,0,152
2,36,115,130
2,36,0,309
2,31,112,78
2,31,0,85
2,38,115,10
2,38,0,172
2,38,112,116
2,38,0,377
2,33,99,5
2,33,0,97
2,36,109,2
2,36,0,156
2,36,119,130
2,36,0,307
2,33,102,176
2,33,0,753
2,34,112,11
2,34,0,755
2,33,102,13
2,33,0,757
2,34,117,8
2,34,0,534
2,34,96,39
2,34,0,89
2,41,87,11
2,41,0,80
2,34,112,17
2,34,0,716
2,31,115,60
2,31,0,219
2,31,119,65
2,31,0,84
2,34,123,16
2,34,0,79
2,38,100,11
2,38,0,88
2,45,104,3
2,45,0,54
2,43,99,0
2,36,107,4
2,43,0,7
2,36,0,449
2,36,73,8
2,36,0,11
2,31,112,13
2,31,0,248
2,31,121,38
2,31,0,87
2,34,121,12
2,34,0,83
2,38,107,9
2,38,0,6
2,45,109,1
2,45,0,64
2,43,104,4
2,36,119,5
2,43,0,1
2,36,0,101
2,36,123,144
2,36,0,261
2,36,98,22
2,36,0,5
2,31,115,16
2,31,0,253
2,31,121,38
2,31,0,90
2,34,123,8
2,34,0,81
2,38,107,11
2,38,0,7
2,45,109,1
2,45,0,56
2,43,109,13
2,36,115,4
2,43,0,4
2,36,0,148
2,36,117,109
2,33,112,4
2,36,0,2
2,33,0,36
2,38,107,14
2,38,0,175
2,38,117,113
2,38,0,376
2,45,113,7
2,45,0,2
2,53,112,7
2,52,113,154
2,53,0,6
2,50,113,187
2,52,0,10
2,50,0,180
2,48,106,2
2,46,119,4
2,48,0,1
2,46,0,172
2,41,121,90
2,38,121,290
2,41,0,6
2,38,0,88
2,34,119,2
2,36,115,96
2,34,0,2
2,36,0,265
2,43,100,9
2,43,0,282
2,48,104,1
2,48,0,89
2,31,93,6
2,31,0,98
2,33,112,2
2,33,0,278
2,40,109,18
2,40,0,294
2,45,100,7
2,33,98,65
2,45,0,5
2,33,0,80
2,34,112,12
2,34,0,275
2,41,103,27
2,41,0,231
2,38,106,48
2,38,0,79
2,34,96,15
2,34,0,95
2,31,106,11
2,31,0,253
2,31,110,43
2,31,0,86
2,34,121,13
2,34,0,81
2,38,107,1
2,38,0,4
2,45,107,4
2,45,0,46
2,43,102,5
2,43,0,96
2,36,119,6
2,36,0,122
2,36,112,161
2,36,0,267
2,33,113,111
2,33,0,33
2,38,119,70
2,38,0,239
2,38,106,53
2,38,0,171
2,33,125,16
2,33,0,190
2,36,110,0
2,36,0,86
2,38,113,8
2,38,0,244
2,38,123,52
2,38,0,453
2,36,115,30
2,43,110,281
2,36,0,1
2,36,109,194
2,43,0,6
2,36,0,155
2,36,97,18
2,36,0,92
2,34,121,10
2,41,110,285
2,34,0,1
2,41,0,183
2,41,107,20
2,41,0,87
2,34,115,7
2,36,117,187
2,34,0,5
2,43,102,288
2,36,0,1
2,36,109,379
2,43,0,1
2,38,113,93
2,36,0,4
2,38,0,271
2,33,104,2
2,41,112,110
2,33,0,6
2,38,106,177
2,41,0,10
2,33,113,83
2,38,0,5
2,33,0,100
2,31,117,1
2,31,0,208
2,31,119,88
2,31,0,254
2,31,107,30
2,31,0,92
2,34,117,1
2,34,0,91
2,36,117,9
2,36,0,211
2,36,107,52
2,36,0,180
2,43,92,28
2,43,0,99
2,43,109,1
2,43,0,1
2,31,112,100
2,33,115,94
2,31,0,8
2,33,0,265
2,40,109,10
2,40,0,199
2,45,110,2
2,33,100,177
2,45,0,13
2,34,123,88
2,33,0,9
2,34,0,195
2,34,113,77
2,41,109,99
2,34,0,4
2,38,106,89
2,41,0,7
2,38,0,77
2,34,121,8
2,33,110,102
2,34,0,1
2,33,0,92
2,31,119,9
2,31,0,214
2,31,121,73
2,31,0,87
2,34,119,10
2,38,103,85
2,34,0,1
2,38,0,4
2,45,103,3
2,43,99,48
2,45,0,9
2,43,0,86
2,36,110,17
2,36,0,205
2,36,115,87
2,36,0,357
2,33,99,18
2,33,0,27
2,38,115,80
2,38,0,259
2,33,91,7
2,33,0,4
2,41,110,4
2,41,0,71
2,33,90,11
2,38,117,7
2,33,0,1
2,38,0,27
2,48,104,4884
2,46,110,177
2,48,0,1
2,46,0,189
2,45,104,13
2,45,0,178
2,43,98,8
2,41,103,184
2,43,0,11
2,41,0,87
2,40,100,12
2,40,0,105
2,38,99,2
2,38,0,161
2,36,104,12
2,31,115,111
2,36,0,18
2,31,0,201
2,31,119,65
2,31,0,84
2,34,123,16
2,34,0,79
2,38,100,11
2,38,0,88
2,45,104,3
2,45,0,54
2,43,99,0
2,36,107,4
2,43,0,7
2,36,0,163
2,36,114,98
2,36,0,9
2,31,112,0
2,31,0,248
2,31,121,38
2,31,0,87
2,34,121,12
2,34,0,83
2,38,107,9
2,38,0,6
2,45,109,1
2,45,0,64
2,43,104,4
2,36,119,5
2,43,0,1
2,36,0,101
2,36,123,144
2,36,0,261
2,36,98,22
2,36,0,5
2,31,115,16
2,31,0,253
2,31,121,38
2,31,0,90
2,34,123,8
2,34,0,81
2,38,107,11
2,38,0,7
2,45,109,1
2,45,0,56
2,43,109,13
2,36,115,4
2,43,0,4
2,36,0,148
2,36,117,109
2,33,112,4
2,36,0,2
2,33,0,36
2,38,107,14
2,38,0,175
2,38,117,113
2,38,0,376
2,45,113,7
2,45,0,2
2,53,112,7
2,52,113,154
2,53,0,6
2,50,113,187
2,52,0,10
2,50,0,180
2,48,106,2
2,46,119,4
2,48,0,1
2,46,0,172
2,41,121,90
2,38,121,290
2,41,0,6
2,38,0,88
2,34,119,2
2,36,115,96
2,34,0,2
2,36,0,265
2,43,100,9
2,43,0,282
2,48,104,1
2,48,0,89
2,31,93,6
2,31,0,98
2,33,112,2
2,33,0,278
2,40,109,18
2,40,0,294
2,45,100,7
2,33,98,65
2,45,0,5
2,33,0,80
2,34,112,12
2,34,0,275
2,41,103,27
2,41,0,231
2,38,106,48
2,38,0,79
2,34,96,15
2,34,0,95
2,31,106,11
2,31,0,253
2,31,110,43
2,31,0,86
2,34,121,13
2,34,0,81
2,38,107,1
2,38,0,4
2,45,107,4
2,45,0,46
2,43,102,5
2,43,0,96
2,36,119,6
2,36,0,122
2,36,112,161
2,36,0,267
2,38,103,212
2,38,0,220
2,38,106,72
2,38,0,180
2,33,100,16
2,33,0,176
2,36,107,13
2,36,0,86
2,38,102,7
2,38,0,212
2,38,107,78
2,38,0,177
2,41,112,9
2,41,0,6
2,34,119,6
2,34,0,214
2,41,100,67
2,41,0,190
2,34,119,5
2,34,0,164
2,34,107,25
2,34,0,93
2,36,106,3
2,36,0,286
2,43,100,2
2,43,0,188
2,36,103,7
2,36,0,165
2,36,92,20
2,36,0,103
2,38,106,3
2,38,0,275
2,33,106,8
2,36,109,188
2,33,0,3
2,36,0,156
2,36,99,26
2,36,0,94
2,38,104,6
2,38,0,258
2,38,102,38
2,38,0,1
2,41,107,3
2,41,0,8
2,34,115,3
2,34,0,273
2,41,100,4
2,41,0,180
2,34,102,4
2,34,0,179
2,34,107,27
2,34,0,89
2,36,104,5
2,36,0,279
2,31,119,7
2,31,0,183
2,36,109,3
2,36,0,297
2,38,104,1
2,38,0,272
2,33,106,10
2,33,0,175
2,36,107,12
2,36,0,145
2,36,94,38
2,36,0,97
2,38,93,5
2,38,0,262
2,38,88,25
2,38,0,169
2,38,83,28
2,36,112,189
2,38,0,3
2,36,0,96
2,38,92,4
2,38,0,267
2,38,68,21
2,38,0,167
2,38,83,26
2,38,0,169
2,33,97,14
2,33,0,102
2,38,99,8
2,38,0,891
3,57,62,2304
3,69,62,3
3,50,86,1
3,69,0,3018
3,50,0,48
3,57,0,0
3,57,50,2
3,62,50,0
3,65,50,0
3,65,0,766
3,62,0,0
3,57,0,0
3,60,50,2
3,64,50,0
3,67,35,0
3,67,0,766
3,64,0,0
3,60,0,0
3,57,50,2
3,62,50,0
3,65,50,0
3,65,0,766
3,62,0,0
3,57,0,0
3,60,50,2
3,64,50,0
3,67,36,0
3,67,0,766
3,64,0,0
3,60,0,0
3,57,50,2
3,62,50,0
3,65,50,0
3,65,0,766
3,62,0,0
3,57,0,0
3,60,50,2
3,64,50,0
3,67,35,0
3,67,0,766
3,64,0,0
3,60,0,0
3,57,50,2
3,62,50,0
3,65,50,0
3,65,0,766
3,62,0,0
3,57,0,0
3,60,50,2
3,64,50,0
3,67,36,0
3,67,0,766
3,64,0,0
3,60,0,0
3,60,55,2
3,64,55,0
3,72,58,0
3,72,0,730
3,64,0,0
3,60,0,0
3,62,54,38
3,65,54,0
3,69,43,0
3,69,0,730
3,65,0,0
3,62,0,0
3,60,53,38
3,64,53,0
3,76,37,0
3,76,0,730
3,64,0,0
3,60,0,0
3,62,53,38
3,65,53,0
3,74,42,0
3,74,0,8
3,65,0,12
3,62,0,0
3,53,52,92
3,58,50,0
3,62,52,0
3,69,58,0
3,69,0,730
3,53,0,0
3,58,0,0
3,62,0,0
3,55,44,38
3,60,50,0
3,64,44,0
3,67,48,0
3,67,0,730
3,55,0,0
3,60,0,0
3,64,0,0
3,53,47,38
3,58,61,0
3,62,60,0
3,65,70,0
3,65,0,730
3,53,0,0
3,58,0,0
3,62,0,0
3,55,41,38
3,60,60,0
3,64,59,0
3,67,68,0
3,67,0,730
3,55,0,0
3,60,0,0
3,64,0,0
3,53,60,38
3,58,71,0
3,62,61,0
3,69,70,0
3,69,0,730
3,53,0,0
3,58,0,0
3,62,0,0
3,64,55,38
3,67,71,0
3,60,64,48
3,67,0,682
3,64,0,0
3,57,47,38
3,62,61,0
3,65,54,0
3,69,61,0
3,60,0,10
3,64,64,346
3,64,0,0
3,57,0,23
3,62,0,0
3,64,69,2
3,64,0,0
3,65,0,8
3,69,0,0
3,64,77,123
3,64,0,0
3,57,50,51
3,62,50,0
3,65,50,0
3,64,80,84
3,64,0,0
3,57,0,682
3,62,0,0
3,65,0,0
3,55,35,2
3,60,50,0
3,64,50,0
3,64,0,766
3,60,0,0
3,55,0,0
3,57,50,2
3,62,50,0
3,65,50,0
3,65,0,766
3,62,0,0
3,57,0,0
3,55,36,2
3,60,50,0
3,64,50,0
3,64,0,766
3,60,0,0
3,55,0,0
3,57,50,2
3,62,50,0
3,65,50,0
3,65,0,766
3,62,0,0
3,57,0,0
3,55,35,2
3,60,50,0
3,64,50,0
3,64,0,766
3,60,0,0
3,55,0,0
3,57,50,2
3,62,50,0
3,65,50,0
3,65,0,766
3,62,0,0
3,57,0,0
3,55,36,2
3,60,50,0
3,64,50,0
3,64,0,766
3,60,0,0
3,55,0,0
3,57,55,0
3,60,55,0
3,64,55,0
3,64,0,766
3,60,0,0
3,57,0,0
3,58,54,2
3,62,54,0
3,65,54,0
3,65,0,766
3,62,0,0
3,58,0,0
3,57,53,2
3,60,53,0
3,64,53,0
3,64,0,766
3,60,0,0
3,57,0,0
3,58,53,2
3,62,53,0
3,65,53,0
3,65,0,48
3,62,0,0
3,58,0,0
3,55,47,92
3,67,47,0
3,70,47,0
3,74,47,0
3,74,0,766
3,70,0,0
3,55,0,0
3,60,47,2
3,64,47,0
3,72,47,0
3,72,0,766
3,67,0,0
3,60,0,0
3,64,0,0
3,55,47,2
3,67,47,0
3,70,47,0
3,74,47,0
3,74,0,766
3,70,0,0
3,55,0,0
3,60,47,2
3,72,47,0
3,76,47,0
3,76,0,766
3,67,0,0
3,60,0,0
3,72,0,0
3,55,47,2
3,67,47,0
3,70,47,0
3,74,47,0
3,70,0,574
3,67,0,0
3,55,0,192
3,74,0,0
3,67,47,2
3,72,47,0
