track,note,velocity,time
1,37,113,816
1,49,57,7
1,49,70,7
1,49,48,199
1,51,68,7
1,53,48,3
1,51,48,11
1,53,56,7
1,54,60,7
1,49,60,0
1,37,94,12
1,49,74,7
1,37,106,7
1,49,57,7
1,49,70,7
1,46,84,7
1,39,82,7
1,35,113,7
1,44,46,7
1,44,82,7
1,37,111,7
1,37,67,7
1,37,109,79
1,32,109,7
1,37,109,7
1,32,109,7
1,37,111,7
1,37,67,7
1,37,109,79
1,32,109,7
1,37,109,7
1,32,109,7
1,34,109,7
1,46,77,0
1,32,109,3
1,44,74,0
1,30,113,3
1,30,108,7
1,30,100,7
1,30,107,7
1,30,97,7
1,30,113,7
1,30,97,7
1,30,114,7
1,42,75,7
1,42,97,7
1,42,78,7
1,42,97,7
1,42,78,7
1,37,111,7
1,37,102,7
1,37,109,48
1,32,109,7
1,34,97,7
1,37,111,7
1,37,102,7
1,37,109,48
1,37,109,7
1,39,97,7
1,42,111,7
1,42,102,7
1,42,109,48
1,37,109,7
1,39,97,7
1,42,111,7
1,30,102,7
1,30,109,48
1,30,109,7
1,34,111,7
1,32,111,7
1,30,113,7
1,30,97,7
1,30,114,7
1,30,97,7
1,30,114,7
1,42,75,7
1,42,97,7
1,42,78,7
1,29,114,7
1,29,116,95
1,29,116,103
1,29,115,92
1,29,115,92
1,29,113,103
1,29,114,103
1,29,114,103
1,29,115,100
1,29,114,96
1,29,114,103
1,29,114,92
1,29,114,92
1,29,113,80
1,29,113,84
1,29,114,100
1,30,114,80
1,30,114,100
1,30,115,103
1,30,114,103
1,30,113,95
1,30,111,96
1,30,112,84
1,30,113,80
1,35,110,11
1,37,111,71
1,37,67,7
1,37,109,79
1,32,109,7
1,37,109,7
1,32,109,7
1,37,111,7
1,37,67,7
1,37,109,79
1,32,109,7
1,37,109,7
1,32,109,7
1,34,109,7
1,46,77,0
1,32,109,3
1,44,74,0
1,30,113,3
1,30,108,7
1,30,100,7
1,30,107,7
1,30,97,7
1,30,113,7
1,30,97,7
1,30,114,7
1,42,75,7
1,42,97,7
1,42,78,7
1,42,97,7
1,42,78,7
1,37,111,7
1,37,102,7
1,37,109,48
1,32,109,7
1,34,97,7
1,37,111,7
1,37,102,7
1,37,109,48
1,37,109,7
1,39,97,7
1,42,111,7
1,42,102,7
1,42,109,48
1,37,109,7
1,39,97,7
1,42,111,7
1,30,102,7
1,30,109,48
1,30,109,7
1,34,111,7
1,32,111,7
1,30,113,7
1,30,97,7
1,30,114,7
1,30,97,7
1,30,114,7
1,42,75,7
1,42,97,7
1,42,78,7
1,29,114,7
1,29,116,95
1,29,116,103
1,29,115,92
1,29,115,92
1,29,113,103
1,29,114,103
1,29,114,103
1,29,115,100
1,29,114,96
1,29,114,103
1,29,114,92
1,29,114,92
1,29,113,80
1,29,113,84
1,29,114,100
1,30,114,80
1,30,114,100
1,30,115,103
1,30,114,103
1,30,113,95
1,30,111,96
1,30,112,84
1,30,113,80
1,35,110,11
1,33,114,71
1,33,116,95
1,33,116,103
1,33,115,92
1,33,115,92
1,33,113,103
1,33,114,103
1,33,114,103
1,35,113,100
1,35,97,103
1,35,114,103
1,35,97,96
1,35,114,103
1,47,75,103
1,47,97,7
1,47,78,7
1,33,114,7
1,33,116,95
1,33,116,103
1,33,115,92
1,33,115,92
1,33,113,103
1,33,114,103
1,33,114,103
1,35,113,100
1,35,97,103
1,35,114,103
1,35,97,96
1,35,114,103
1,47,75,103
1,47,97,7
1,47,78,7
1,37,111,7
1,37,102,7
1,37,109,48
1,32,109,7
1,34,97,7
1,37,111,7
1,37,102,7
1,37,109,48
1,37,109,7
1,39,97,7
1,42,111,7
1,42,102,7
1,42,109,48
1,37,109,7
1,39,97,7
1,42,111,7
1,30,102,7
1,30,109,48
1,30,109,7
1,37,111,7
1,37,102,7
1,37,109,48
1,32,109,7
1,34,97,7
1,37,111,7
1,37,102,7
1,37,109,48
1,37,109,7
1,39,97,7
1,42,111,7
1,42,102,7
1,42,109,48
1,37,109,7
1,39,97,7
1,42,111,7
1,30,102,7
1,30,109,48
1,30,109,7
1,37,111,7
1,37,102,7
1,37,109,48
1,32,109,7
1,34,97,7
1,37,111,7
1,37,102,7
1,37,109,48
1,37,109,7
1,39,97,7
1,42,111,7
1,42,102,7
1,42,109,48
1,37,109,7
1,39,97,7
1,42,111,7
1,30,102,7
1,30,109,48
1,30,109,7
1,34,111,7
1,32,111,7
1,30,113,7
1,30,97,7
1,30,114,7
1,30,97,7
1,30,114,7
1,42,75,7
1,42,97,7
1,42,78,7
1,37,111,7
1,37,102,7
1,37,109,48
1,32,109,7
1,34,97,7
1,37,111,7
1,37,102,7
1,37,109,48
1,37,109,7
1,39,97,7
1,42,111,7
1,42,102,7
1,42,109,48
1,37,109,7
1,39,97,7
1,42,111,7
1,30,102,7
1,30,109,48
1,30,109,7
1,34,111,7
1,32,111,7
1,30,113,7
1,30,97,7
1,30,114,7
1,30,97,7
1,30,114,7
1,42,75,7
1,42,97,7
1,42,78,7
1,42,113,7
1,42,97,7
1,42,114,7
1,42,97,7
1,42,113,7
1,42,97,7
1,42,114,7
1,42,97,7
1,42,113,7
1,42,97,7
1,42,114,7
1,42,97,7
1,42,113,7
1,42,97,7
1,42,114,7
1,42,97,7
1,42,113,7
1,42,97,7
1,42,114,7
1,42,97,7
1,42,113,7
1,42,97,7
1,42,114,7
1,42,97,7
1,42,113,7
1,42,97,7
1,42,114,7
1,42,97,7
1,42,113,7
1,42,97,7
1,42,114,7
1,42,97,7
1,42,113,7
1,42,97,7
1,42,114,7
1,42,97,7
1,42,113,7
1,42,97,7
1,42,114,7
1,42,97,7
1,37,113,7
1,49,57,7
1,49,70,7
1,49,79,7
1,46,72,0
1,46,67,12
1,44,78,7
1,42,83,7
1,30,95,7
1,37,90,7
2,53,62,724
2,56,63,0
2,61,63,0
2,54,62,7
2,57,62,0
2,53,60,7
2,56,63,0
2,54,61,7
2,57,62,0
2,47,70,8939
2,44,90,7
2,56,46,7
2,61,49,0
2,65,48,0
2,57,47,7
2,61,51,0
2,66,50,0
2,56,46,7
2,61,49,0
2,65,48,0
2,57,47,7
2,61,51,0
2,66,50,0
2,58,49,7
2,61,51,0
2,65,49,0
2,56,50,7
2,63,52,0
2,68,45,0
2,72,50,0
2,54,50,7
2,61,50,0
2,66,50,0
2,68,50,0
2,70,50,0
2,61,74,7
2,65,75,0
2,68,76,0
2,61,74,107
2,66,72,0
2,70,76,0
2,65,72,83
2,70,74,0
2,73,71,0
2,63,73,43
2,68,74,0
2,72,73,0
2,61,71,8
2,66,69,0
2,70,73,0
2,58,58,4203
2,63,58,0
2,47,62,7
2,52,61,0
2,57,60,0
2,61,58,0
2,56,46,3
2,61,49,0
2,65,48,0
2,57,47,7
2,61,51,0
2,66,50,0
2,56,46,7
2,61,49,0
2,65,48,0
2,57,47,7
2,61,51,0
2,66,50,0
2,58,49,7
2,61,51,0
2,65,49,0
2,56,50,7
2,63,52,0
2,68,45,0
2,72,50,0
2,54,50,7
2,61,50,0
2,66,50,0
2,68,50,0
2,70,50,0
2,61,74,7
2,65,75,0
2,68,76,0
2,61,74,107
2,66,72,0
2,70,76,0
2,65,72,83
2,70,74,0
2,73,71,0
2,63,73,43
2,68,74,0
2,72,73,0
2,61,71,8
2,66,69,0
2,70,73,0
2,58,58,4203
2,63,58,0
2,47,62,7
2,52,61,0
2,57,60,0
2,61,58,0
2,61,74,6147
2,65,75,0
2,80,70,0
2,85,70,0
2,61,74,7
2,66,72,0
2,82,70,0
2,85,70,0
2,61,74,7
2,65,75,0
2,80,70,0
2,85,70,0
2,61,74,7
2,66,72,0
2,82,70,0
2,85,70,0
2,61,74,7
2,65,75,0
2,68,76,0
2,61,74,107
2,66,72,0
2,70,76,0
2,65,72,83
2,70,74,0
2,73,71,0
2,63,73,43
2,68,74,0
2,72,73,0
2,61,71,8
2,66,69,0
2,70,73,0
2,61,74,3
2,65,75,0
2,68,76,0
2,61,74,107
2,66,72,0
2,70,76,0
2,65,72,83
2,70,74,0
2,73,71,0
2,63,73,43
2,68,74,0
2,72,73,0
2,61,71,8
2,66,69,0
2,70,73,0
2,53,62,7
2,56,63,0
2,61,63,0
2,54,62,7
2,57,62,0
2,53,60,7
2,56,63,0
2,54,61,7
2,57,62,0
2,53,62,7
2,58,62,0
2,61,62,0
2,53,62,7
2,56,62,0
2,60,62,0
2,54,62,7
2,58,62,0
2,61,62,0
2,45,68,7
2,49,62,0
2,57,62,0
2,61,62,0
2,66,62,0
2,44,57,7
2,49,57,0
2,56,57,0
2,61,57,0
2,65,57,0
2,68,57,0
3,68,93,6432
3,73,108,63
3,75,102,7
3,77,109,12
3,77,108,25
3,73,107,1176
3,75,103,8
3,77,108,19
3,78,100,7
3,77,101,5
3,78,93,5
3,77,97,5
3,78,104,5
3,77,96,7
3,75,96,7
3,73,96,7
3,77,96,5
3,73,97,1035
3,75,96,5
3,77,93,15
3,78,91,5
3,77,87,7
3,78,95,5
3,77,90,5
3,80,98,7
3,78,97,7
3,77,96,13
3,75,94,28
3,73,94,24
3,77,97,32
3,77,93,40
3,77,100,832
3,75,98,7
3,73,94,7
3,75,88,7
3,77,103,21
3,75,75,5
3,73,94,1672
3,75,96,15
3,77,101,27
3,77,96,45
3,73,111,1012
3,75,96,5
3,77,103,23
3,78,107,7
3,78,102,44
3,77,91,7
3,78,101,7
3,77,91,8
3,78,98,7
3,77,91,8
3,78,104,12
3,77,91,16
3,75,100,5
3,73,91,7
3,77,94,7
3,75,101,1011
3,77,103,12
3,78,109,16
3,77,95,5
3,78,109,7
3,77,97,7
3,80,103,7
3,78,104,5
3,77,97,16
3,75,102,13
3,73,90,19
3,77,96,17
3,75,99,1020
3,73,98,7
3,75,97,12
3,77,123,27
3,80,109,12
3,77,110,5
3,75,105,7
3,82,110,487
3,85,124,40
3,82,119,19
3,85,124,20
3,82,120,9
3,85,124,19
3,85,122,128
3,85,122,67
3,85,122,56
3,85,122,51
3,82,119,7
3,85,124,499
3,85,122,59
3,85,124,53
3,85,124,51
3,80,124,5
3,80,122,41
3,80,120,51
3,80,119,44
3,78,122,5
3,77,114,12
3,75,120,5
3,82,124,23
3,80,124,7
3,78,104,11
3,78,124,15
3,85,119,28
3,85,122,56
3,85,120,59
3,85,122,45
3,82,124,7
3,80,124,829
3,87,124,4
3,85,113,7
3,81,116,387
3,80,119,7
3,81,116,7
3,80,122,7
3,81,114,7
3,80,124,7
3,81,121,7
3,77,127,1089
3,84,127,8
3,84,127,48
3,84,114,3
3,84,120,32
3,82,127,5
3,85,114,604
3,83,93,24
3,81,93,7
3,80,88,7
3,78,86,7
3,73,108,112
3,75,102,7
3,77,109,12
3,77,108,25
3,78,119,1381
3,78,113,5
3,78,116,7
3,77,88,7
3,78,113,7
3,78,119,7
3,75,97,103
3,73,79,7
3,75,91,5
3,73,89,7
3,75,107,7
3,75,122,785
3,77,118,67
3,78,119,72
3,78,122,115
3,80,118,88
3,78,108,67
3,77,112,31
3,75,107,9
3,73,106,48
3,75,109,40
3,75,102,476
3,77,112,12
3,80,112,96
3,82,121,3
3,84,126,7
3,85,126,120
3,82,126,84
3,82,110,1176
3,85,124,40
3,82,119,19
3,85,124,20
3,82,120,9
3,85,124,19
3,85,122,128
3,85,122,67
3,85,122,56
3,85,122,51
3,82,119,7
3,85,124,499
3,85,122,59
3,85,124,53
3,85,124,51
3,80,124,5
3,80,122,41
3,80,120,51
3,80,119,44
3,78,122,5
3,77,114,12
3,75,120,5
3,82,124,23
3,80,124,7
3,78,104,11
3,78,124,15
3,85,119,28
3,85,122,56
3,85,120,59
3,85,122,45
3,82,124,7
3,80,124,829
3,87,124,4
3,85,113,7
3,81,116,387
3,80,119,7
3,81,116,7
3,80,122,7
3,81,114,7
3,80,124,7
3,81,121,7
3,77,127,1089
3,84,127,8
3,84,127,48
3,84,114,3
3,84,120,32
3,82,127,5
3,85,114,604
3,83,93,8
3,81,93,7
3,80,88,7
3,78,86,7
3,85,114,408
3,83,93,8
3,81,93,7
3,80,88,7
3,78,86,7
3,85,114,408
3,83,93,8
3,81,93,7
3,80,88,7
3,78,86,7
3,89,126,20
3,85,126,3
3,85,122,10367
3,85,122,67
3,85,122,56
3,85,122,51
3,82,119,7
3,85,124,499
3,85,122,59
3,85,124,53
3,85,124,51
3,80,124,5
3,80,122,41
3,80,120,51
3,80,119,44
3,78,122,5
3,77,114,12
3,75,120,5
3,82,124,23
3,80,124,7
3,78,104,11
3,78,124,15
3,85,119,28
3,85,122,56
3,85,120,59
3,85,122,45
3,82,124,7
3,80,124,829
3,87,124,4
3,85,113,7
3,85,124,767
3,85,122,59
3,85,124,53
3,85,124,51
3,80,124,5
3,80,122,41
3,80,120,51
3,82,119,44
3,80,122,5
3,78,114,12
3,78,120,25
3,82,124,23
3,80,124,7
3,78,104,11
3,78,124,15
3,85,119,28
3,85,122,56
3,85,120,59
3,85,122,45
3,82,124,7
3,80,124,829
3,87,124,4
3,85,113,7
4,78,110,29880
4,80,124,40
4,78,119,19
4,80,124,20
4,78,120,9
4,80,124,19
4,80,122,128
4,80,122,67
4,80,122,56
4,80,122,51
4,78,119,0
4,80,124,499
4,80,122,59
4,80,124,53
4,80,124,51
4,77,124,1
4,80,119,2741
4,80,122,56
4,80,120,59
4,82,111,24
4,85,111,0
4,80,102,7
4,84,106,0
4,78,103,7
4,82,104,0
4,77,127,480
4,76,112,7
4,77,127,7
4,76,127,7
4,77,127,7
4,76,127,7
4,77,127,7
4,69,102,7
4,72,117,0
4,68,104,7
4,71,92,0
4,69,92,7
4,72,104,0
4,68,113,7
4,71,78,0
4,69,91,7
4,72,91,0
4,68,123,7
4,71,108,0
4,69,102,7
4,72,104,0
4,81,114,2919
4,80,93,7
4,78,93,7
4,76,88,7
4,75,86,7
4,78,110,11152
4,80,124,40
4,78,119,19
4,80,124,20
4,78,120,9
4,80,124,19
4,80,122,128
4,80,122,67
4,80,122,56
4,80,122,51
4,78,119,0
4,80,124,499
4,80,122,59
4,80,124,53
4,80,124,51
4,77,124,1
4,80,119,2741
4,80,122,56
4,80,120,59
4,82,111,24
4,85,111,0
4,80,102,7
4,84,106,0
4,78,103,7
4,82,104,0
4,77,127,480
4,76,112,7
4,77,127,7
4,76,127,7
4,77,127,7
4,76,127,7
4,77,127,7
4,69,102,7
4,72,117,0
4,68,104,7
4,71,92,0
4,69,92,7
4,72,104,0
4,68,113,7
4,71,78,0
4,69,91,7
4,72,91,0
4,68,123,7
4,71,108,0
4,69,102,7
4,72,104,0
4,81,114,2919
4,80,93,7
4,78,93,7
4,76,88,7
4,75,86,7
4,81,114,504
4,80,93,7
4,78,93,7
4,76,88,7
4,75,86,7
4,81,114,504
4,80,93,7
4,78,93,7
4,76,88,7
4,75,86,7
4,80,122,12216
4,80,122,67
4,80,122,56
4,80,122,51
4,78,119,0
4,80,124,499
4,80,122,59
4,80,124,53
4,80,124,51
4,77,124,1
4,80,119,2741
4,80,122,56
4,80,120,59
4,82,111,24
4,85,111,0
4,80,102,7
4,84,106,0
4,78,103,7
4,82,104,0
4,80,122,12
4,85,122,0
4,80,122,67
4,85,122,8
4,80,122,56
4,85,122,11
4,80,122,51
4,85,122,20
4,78,119,0
4,82,119,0
4,77,119,4
4,80,119,0
4,80,124,576
4,85,124,4
4,80,122,55
4,85,124,8
4,85,124,52
4,80,124,1
4,85,124,47
4,80,124,4
4,77,124,1
4,80,124,3
4,80,119,2741
4,80,122,56
4,80,120,59
4,82,111,24
4,85,111,0
4,80,102,7
4,84,106,0
4,78,103,7
4,82,104,0
4,80,115,384
4,85,117,0
4,80,121,57
4,85,123,0
4,85,124,115
4,80,123,1
4,80,123,55
4,85,124,0
4,85,127,128
4,80,124,3
4,80,127,60
4,85,127,0
4,85,127,104
4,80,126,1
4,80,124,52
4,85,124,0
4,85,126,132
4,80,124,3
4,80,124,61
4,85,123,0
4,85,127,121
4,80,126,3
4,85,124,52
4,80,124,4
