track,note,velocity,time
0,36,111,239
0,46,73,0
0,46,0,1
0,36,0,0
0,46,74,46
0,46,0,2
0,38,113,46
0,46,61,0
0,46,0,2
0,38,0,0
0,46,66,46
0,46,0,2
0,36,106,46
0,46,74,0
0,46,0,2
0,36,0,0
0,36,99,46
0,46,56,0
0,46,0,2
0,36,0,0
0,38,113,46
0,46,61,0
0,46,0,2
0,38,0,0
0,36,111,46
0,46,60,0
0,46,0,2
0,36,0,0
0,36,111,46
0,46,73,0
0,46,0,2
0,36,0,0
0,46,74,46
0,46,0,2
0,38,113,46
0,46,61,0
0,46,0,2
0,38,0,0
0,46,66,46
0,46,0,2
0,36,106,46
0,46,74,0
0,46,0,2
0,36,0,0
0,36,99,46
0,46,56,0
0,46,0,2
0,36,0,0
0,38,113,46
0,46,61,0
0,46,0,2
0,38,0,0
0,36,111,46
0,46,60,0
0,46,0,2
0,36,0,0
0,36,111,46
0,46,73,0
0,46,0,2
0,36,0,0
0,46,74,46
0,46,0,2
0,38,113,46
0,46,61,0
0,46,0,2
0,38,0,0
0,46,66,46
0,46,0,2
0,36,106,46
0,46,74,0
0,46,0,2
0,36,0,0
0,62,116,43
0,40,126,2
0,36,99,0
0,46,56,0
0,46,0,1
0,36,0,0
0,40,0,6
0,38,117,2
0,38,113,0
0,46,61,0
0,46,0,2
0,38,0,0
0,38,0,29
0,36,112,7
0,36,111,0
0,46,60,0
0,46,0,2
0,36,0,0
0,60,88,1
0,62,0,7
0,36,0,30
0,60,0,5
0,76,97,3
0,73,96,0
0,69,97,0
0,64,90,0
0,33,112,0
0,36,111,0
0,46,73,0
0,57,99,0
0,46,0,1
0,36,0,0
0,33,0,24
0,64,0,0
0,69,0,0
0,73,0,0
0,76,0,4
0,69,75,18
0,76,76,0
0,73,70,0
0,64,69,0
0,33,122,0
0,46,74,0
0,46,0,2
0,33,0,18
0,73,0,1
0,76,0,2
0,64,0,0
0,69,0,0
0,73,86,25
0,69,85,0
0,64,76,0
0,76,89,0
0,33,108,0
0,38,113,0
0,46,61,0
0,46,0,2
0,38,0,0
0,73,0,18
0,69,0,0
0,64,0,2
0,76,0,0
0,33,0,2
0,64,71,23
0,73,82,0
0,76,83,0
0,69,83,0
0,33,108,1
0,46,66,0
0,46,0,2
0,64,0,18
0,76,0,0
0,73,0,0
0,69,0,0
0,33,0,4
0,73,84,23
0,69,83,0
0,76,86,0
0,64,73,0
0,33,95,1
0,36,106,0
0,46,74,0
0,46,0,2
0,36,0,0
0,73,0,17
0,69,0,0
0,64,0,0
0,76,0,4
0,33,0,1
0,73,88,23
0,69,87,1
0,76,82,0
0,64,75,0
0,33,117,0
0,36,99,0
0,46,56,0
0,46,0,2
0,36,0,0
0,73,0,14
0,69,0,0
0,64,0,0
0,76,0,4
0,33,0,2
0,73,94,25
0,76,83,1
0,69,93,0
0,64,76,0
0,33,102,0
0,38,113,0
0,46,61,0
0,46,0,2
0,38,0,0
0,73,0,16
0,64,0,1
0,69,0,0
0,76,0,0
0,33,0,13
0,73,77,16
0,69,82,0
0,64,72,0
0,76,79,0
0,33,108,0
0,36,111,0
0,46,60,0
0,46,0,2
0,36,0,0
0,73,0,14
0,69,0,0
0,64,0,4
0,76,0,0
0,33,0,4
0,76,82,24
0,73,88,0
0,69,92,0
0,64,80,0
0,33,114,0
0,36,111,0
0,46,73,0
0,46,0,2
0,36,0,0
0,69,0,14
0,73,0,0
0,64,0,0
0,76,0,4
0,33,0,7
0,73,84,21
0,76,81,0
0,69,86,0
0,64,75,0
0,33,108,0
0,46,74,0
0,46,0,2
0,73,0,10
0,69,0,3
0,64,0,4
0,76,0,0
0,33,0,5
0,73,94,24
0,69,92,0
0,64,79,0
0,76,87,0
0,33,114,0
0,38,113,0
0,46,61,0
0,46,0,2
0,38,0,0
0,73,0,17
0,69,0,0
0,64,0,3
0,76,0,0
0,33,0,3
0,69,80,23
0,73,70,0
0,76,75,0
0,64,75,0
0,33,110,0
0,46,66,0
0,46,0,2
0,73,0,13
0,64,0,4
0,76,0,0
0,69,0,0
0,33,0,1
0,73,77,28
0,69,85,0
0,64,78,0
0,76,81,0
0,33,126,0
0,36,106,0
0,46,74,0
0,46,0,2
0,36,0,0
0,73,0,10
0,76,0,1
0,64,0,0
0,69,0,0
0,57,0,3
0,62,108,28
0,73,79,3
0,69,85,0
0,76,78,0
0,64,71,0
0,33,0,1
0,40,122,0
0,36,99,0
0,46,56,0
0,46,0,2
0,36,0,0
0,73,0,1
0,76,0,1
0,69,0,0
0,64,0,0
0,73,94,3
0,69,99,0
0,76,90,0
0,64,85,0
0,40,0,1
0,38,120,0
0,38,113,0
0,46,61,0
0,46,0,2
0,38,0,0
0,64,0,6
0,76,0,0
0,69,0,0
0,73,0,0
0,38,0,20
0,69,82,9
0,64,75,0
0,73,80,0
0,76,85,0
0,36,112,0
0,36,111,0
0,46,60,0
0,46,0,2
0,36,0,0
0,60,87,1
0,62,0,4
0,73,0,8
0,69,0,4
0,76,0,0
0,64,0,0
0,60,0,24
0,36,0,5
0,73,88,0
0,69,93,0
0,64,81,0
0,76,90,0
0,33,104,0
0,57,90,0
0,36,111,0
0,46,73,0
0,46,0,2
0,36,0,0
0,73,0,14
0,69,0,4
0,76,0,0
0,64,0,0
0,33,0,11
0,73,80,17
0,64,75,0
0,69,86,0
0,76,83,0
0,33,125,0
0,46,74,0
0,46,0,2
0,73,0,14
0,33,0,2
0,69,0,2
0,76,0,0
0,64,0,0
0,73,88,28
0,69,92,0
0,76,86,0
0,64,74,0
0,33,104,0
0,38,113,0
0,46,61,0
0,46,0,2
0,38,0,0
0,73,0,17
0,69,0,0
0,64,0,0
0,76,0,3
0,33,0,6
0,73,79,20
0,76,82,0
0,69,83,0
0,64,76,0
0,33,108,0
0,46,66,0
0,46,0,2
0,73,0,11
0,64,0,4
0,69,0,0
0,76,0,0
0,33,0,7
0,73,80,24
0,76,85,0
0,69,87,0
0,64,79,0
0,33,106,0
0,36,106,0
0,46,74,0
0,46,0,2
0,36,0,0
0,69,0,11
0,64,0,0
0,73,0,3
0,76,0,4
0,33,0,4
0,73,82,24
0,76,82,0
0,69,92,0
0,64,78,0
0,33,110,0
0,36,99,0
0,46,56,0
0,46,0,2
0,36,0,0
0,64,0,11
0,73,0,2
0,69,0,1
0,76,0,0
0,33,0,8
0,73,90,24
0,69,97,0
0,76,90,0
0,64,80,0
0,33,102,0
0,38,113,0
0,46,61,0
0,46,0,2
0,38,0,0
0,73,0,13
0,69,0,1
0,76,0,4
0,64,0,0
0,33,0,6
0,73,92,22
0,69,95,0
0,64,79,0
0,76,89,0
0,33,108,0
0,36,111,0
0,46,60,0
0,46,0,2
0,36,0,0
0,73,0,13
0,76,0,1
0,64,0,3
0,69,0,0
0,33,0,2
0,73,92,27
0,69,99,0
0,76,90,0
0,64,86,0
0,33,104,0
0,36,111,0
0,46,73,0
0,46,0,2
0,36,0,0
0,73,0,13
0,64,0,1
0,69,0,0
0,76,0,3
0,33,0,9
0,64,80,19
0,73,90,0
0,69,97,1
0,76,89,0
0,33,102,0
0,46,74,0
0,46,0,2
0,73,0,12
0,76,0,1
0,69,0,0
0,64,0,1
0,33,0,4
0,73,88,27
0,76,87,0
0,69,95,0
0,64,79,0
0,33,102,1
0,38,113,0
0,46,61,0
0,46,0,2
0,38,0,0
0,73,0,14
0,76,0,0
0,69,0,0
0,64,0,4
0,33,0,4
0,73,92,24
0,69,97,0
0,64,81,0
0,76,90,0
0,33,108,0
0,46,66,0
0,46,0,2
0,73,0,10
0,76,0,4
0,64,0,0
0,69,0,0
0,33,0,2
0,73,102,29
0,69,99,0
0,76,93,1
0,64,83,0
0,33,126,0
0,36,106,0
0,46,74,0
0,46,0,2
0,36,0,0
0,73,0,12
0,76,0,1
0,69,0,1
0,57,0,3
0,64,0,0
0,33,0,21
0,62,108,0
0,73,92,7
0,64,78,0
0,69,95,0
0,76,83,1
0,40,117,0
0,36,99,0
0,46,56,0
0,46,0,2
0,36,0,0
0,73,0,2
0,76,0,1
0,69,0,0
0,64,0,2
0,73,94,2
0,64,78,0
0,69,101,0
0,76,92,0
0,40,0,1
0,38,114,0
0,38,113,0
0,46,61,0
0,46,0,2
0,38,0,0
0,73,0,3
0,69,0,1
0,64,0,2
0,76,0,0
0,60,82,26
0,38,0,1
0,69,92,1
0,73,90,0
0,76,82,0
0,64,74,0
0,36,117,1
0,36,111,0
0,46,60,0
0,62,0,1
0,46,0,1
0,36,0,0
0,73,0,10
0,69,0,4
0,76,0,0
0,64,0,0
0,60,0,23
0,36,0,9
0,73,92,0
0,69,99,0
0,76,87,0
0,64,89,0
0,33,112,0
0,57,89,0
0,36,111,0
0,46,73,0
0,46,0,2
0,36,0,0
0,73,0,14
0,69,0,0
0,76,0,3
0,64,0,0
0,33,0,7
0,73,88,22
0,69,95,0
0,76,85,0
0,64,80,0
0,33,122,0
0,46,74,0
0,46,0,2
0,79,107,3
0,73,0,6
0,64,0,4
0,76,0,0
0,69,0,0
0,33,0,4
0,79,0,0
0,73,92,28
0,69,95,0
0,76,87,0
0,64,76,0
0,33,108,0
0,79,99,0
0,38,113,0
0,46,61,0
0,46,0,2
0,38,0,0
0,73,0,13
0,76,0,1
0,69,0,0
0,64,0,4
0,33,0,4
0,79,0,24
0,69,93,0
0,73,88,0
0,64,76,0
0,76,87,0
0,33,108,0
0,78,100,0
0,46,66,0
0,46,0,2
0,73,0,10
0,64,0,1
0,76,0,3
0,69,0,0
0,33,0,8
0,78,0,22
0,73,82,1
0,69,87,0
0,64,69,0
0,76,81,0
0,33,95,1
0,36,106,0
0,46,74,0
0,76,99,1
0,46,0,1
0,36,0,0
0,73,0,10
0,76,0,2
0,64,0,0
0,69,0,0
0,33,0,10
0,76,0,9
0,76,75,14
0,69,89,0
0,73,73,0
0,64,78,0
0,33,117,1
0,76,85,0
0,36,99,0
0,46,56,0
0,46,0,2
0,36,0,0
0,73,0,12
0,69,0,2
0,64,0,2
0,76,0,0
0,33,0,4
0,76,0,14
0,76,80,12
0,69,87,0
0,73,77,0
0,64,82,0
0,33,102,0
0,78,120,0
0,38,113,0
0,46,61,0
0,46,0,2
0,38,0,0
0,73,0,13
0,64,0,0
0,69,0,0
0,76,0,4
0,33,0,13
0,78,0,12
0,73,84,3
0,64,75,0
0,69,90,0
0,76,83,0
0,33,108,1
0,76,87,0
0,36,111,0
0,46,60,0
0,46,0,2
0,36,0,0
0,73,0,10
0,76,0,4
0,69,0,0
0,64,0,0
0,33,0,8
0,76,0,10
0,73,86,13
0,76,80,0
0,69,93,1
0,64,78,0
0,33,114,0
0,79,101,0
0,36,111,0
0,46,73,0
0,46,0,2
0,36,0,0
0,73,0,12
0,64,0,1
0,69,0,0
0,76,0,3
0,33,0,9
0,79,0,5
0,69,93,15
0,64,79,0
0,76,82,1
0,73,88,0
0,33,108,0
0,79,113,0
0,46,74,0
0,46,0,2
0,73,0,7
0,76,0,6
0,64,0,0
0,69,0,0
0,33,0,9
0,79,0,16
0,69,95,7
0,73,92,0
0,64,80,0
0,76,89,1
0,33,114,0
0,78,106,0
0,38,113,0
0,46,61,0
0,46,0,2
0,38,0,0
0,73,0,10
0,76,0,1
0,64,0,3
0,69,0,0
0,33,0,9
0,78,0,15
0,73,88,7
0,69,93,0
0,64,78,0
0,76,86,0
0,33,110,1
0,46,66,0
0,46,0,2
0,76,101,1
0,73,0,12
0,64,0,0
0,69,0,0
0,76,0,0
0,33,0,5
0,73,90,28
0,69,95,0
0,64,83,0
0,76,87,0
0,33,126,0
0,36,106,0
0,46,74,0
0,46,0,2
0,36,0,0
0,73,0,10
0,64,0,3
0,69,0,0
0,76,0,4
0,57,0,5
0,62,108,21
0,33,0,3
0,73,90,0
0,76,89,0
0,69,95,0
0,64,81,0
0,40,122,0
0,36,99,0
0,46,56,0
0,46,0,2
0,36,0,0
0,73,0,2
0,69,0,3
0,64,0,3
0,76,0,3
0,76,83,3
0,64,73,0
0,69,95,0
0,73,92,0
0,40,0,1
0,38,120,0
0,38,113,0
0,46,61,0
0,46,0,2
0,38,0,0
0,76,0,1
0,73,0,3
0,69,0,2
0,76,0,2
0,64,0,0
0,38,0,23
0,60,82,6
0,69,89,2
0,76,79,0
0,73,76,0
0,64,82,1
0,36,112,0
0,36,111,0
0,46,60,0
0,46,0,2
0,36,0,0
0,62,0,0
0,73,0,10
0,64,0,0
0,76,0,3
0,69,0,0
0,60,0,26
0,36,0,7
0,64,81,0
0,69,95,0
0,73,90,0
0,76,89,0
0,33,112,0
0,57,88,0
0,36,111,0
0,46,73,0
0,46,0,2
0,36,0,0
0,73,0,13
0,69,0,1
0,64,0,3
0,76,0,0
0,33,0,7
0,64,78,22
0,69,93,0
0,73,84,0
0,76,83,0
0,33,122,0
0,46,74,0
0,46,0,2
0,79,103,3
0,73,0,8
0,76,0,4
0,69,0,0
0,64,0,0
0,33,0,3
0,79,0,11
0,73,86,17
0,76,86,0
0,69,95,0
0,64,79,0
0,33,108,0
0,38,113,0
0,46,61,0
0,46,0,2
0,38,0,0
0,79,101,1
0,73,0,10
0,69,0,0
0,76,0,4
0,64,0,0
0,33,0,7
0,79,0,17
0,76,78,7
0,69,90,0
0,64,75,0
0,73,80,0
0,33,108,0
0,78,109,0
0,46,66,0
0,46,0,2
0,73,0,13
0,64,0,4
0,69,0,0
0,76,0,1
0,33,0,4
0,78,0,14
0,64,72,10
0,76,82,0
0,73,84,0
0,69,92,0
0,33,95,0
0,76,107,0
0,36,106,0
0,46,74,0
0,46,0,2
0,36,0,0
0,73,0,10
0,69,0,3
0,76,0,4
0,64,0,0
0,33,0,5
0,76,0,8
0,64,69,15
0,69,83,1
0,73,73,0
0,76,78,0
0,33,117,0
0,76,85,0
0,36,99,0
0,46,56,0
0,46,0,2
0,36,0,0
0,73,0,10
0,76,0,0
0,69,0,0
0,64,0,6
0,33,0,4
0,76,0,12
0,64,76,14
0,76,83,0
0,69,90,0
0,73,84,0
0,33,102,0
0,78,120,0
0,38,113,0
0,46,61,0
0,46,0,2
0,38,0,0
0,69,0,10
0,73,0,0
0,76,0,7
0,64,0,0
0,33,0,13
0,78,0,12
0,64,75,3
0,73,79,0
0,69,87,0
0,76,83,0
0,33,108,1
0,76,95,0
0,36,111,0
0,46,60,0
0,46,0,2
0,36,0,0
0,73,0,12
0,69,0,0
0,76,0,4
0,64,0,0
0,33,0,6
0,76,0,14
0,64,75,9
0,73,80,0
0,76,83,0
0,69,93,1
0,33,114,0
0,79,99,0
0,36,111,0
0,46,73,0
0,46,0,2
0,36,0,0
0,69,0,10
0,73,0,2
0,76,0,4
0,64,0,0
0,33,0,9
0,79,0,1
0,64,75,20
0,69,92,0
0,73,82,0
0,76,83,0
0,33,108,0
0,79,105,0
0,46,74,0
0,46,0,2
0,73,0,10
0,76,0,3
0,69,0,0
0,64,0,0
0,33,0,9
0,79,0,14
0,73,86,10
0,64,80,0
0,69,95,0
0,76,87,0
0,33,114,0
0,78,112,0
0,38,113,0
0,46,61,0
0,46,0,2
0,38,0,0
0,73,0,10
0,69,0,0
0,76,0,4
0,64,0,0
0,33,0,9
0,78,0,3
0,73,80,19
0,76,85,0
0,69,92,0
0,64,80,1
0,33,110,0
0,76,85,0
0,46,66,0
0,46,0,2
0,64,0,10
0,73,0,2
0,69,0,1
0,76,0,0
0,33,0,5
0,73,94,28
0,64,81,0
0,69,99,0
0,76,90,0
0,33,126,0
0,36,106,0
0,46,74,0
0,46,0,2
0,36,0,0
0,73,0,10
0,57,0,0
0,69,0,3
0,64,0,4
0,76,0,0
0,76,0,5
0,33,0,18
0,57,96,2
0,73,88,3
0,69,93,0
0,76,83,0
0,64,75,1
0,33,122,0
0,69,99,0
0,36,99,0
0,46,56,0
0,46,0,2
0,36,0,0
0,73,0,12
0,64,0,1
0,69,0,1
0,76,0,2
0,69,0,22
0,57,0,1
0,60,85,4
0,33,0,3
0,69,95,0
