track,note,velocity,time
1,36,94,352
1,36,0,461
1,36,83,19
1,36,0,480
1,36,94,0
1,36,0,461
1,36,92,20
1,36,0,152
1,36,85,29
1,36,0,58
1,35,88,0
1,35,0,120
1,33,88,0
1,33,0,120
1,36,94,0
1,36,0,461
1,36,92,20
1,36,0,152
1,36,85,29
1,36,0,58
1,31,88,0
1,31,0,210
1,33,94,31
1,33,0,408
1,33,81,10
1,33,0,47
1,33,76,15
1,33,0,351
1,33,99,11
1,33,0,117
1,38,89,3
1,26,92,474
1,38,0,5
1,38,84,354
1,26,0,3
1,38,0,121
1,38,94,1
1,38,0,408
1,38,81,10
1,38,0,47
1,26,88,14
1,26,0,240
1,36,92,1
1,36,0,152
1,36,85,29
1,36,0,58
1,31,87,6
1,31,0,234
1,29,88,0
1,29,0,240
1,28,88,0
1,28,0,240
1,41,92,1
1,41,0,152
1,41,85,29
1,41,0,58
1,36,92,1
1,36,0,152
1,36,85,29
1,36,0,58
1,38,87,6
1,38,0,114
1,33,88,0
1,33,0,120
1,33,87,6
1,33,0,411
1,33,89,13
1,33,0,50
1,38,89,3
1,38,0,477
1,38,87,6
1,38,0,234
1,36,92,1
1,36,0,152
1,36,85,29
1,36,0,58
1,31,87,6
1,31,0,234
1,29,88,0
1,29,0,240
1,40,92,1
1,40,0,152
1,40,85,29
1,40,0,58
1,41,87,6
1,41,0,234
1,36,92,1
1,36,0,152
1,36,85,29
1,36,0,58
1,26,88,0
1,26,0,240
1,33,89,0
1,33,84,360
1,33,0,3
1,33,0,50
1,33,92,7
1,33,0,18
1,38,94,42
1,38,0,461
1,38,83,19
1,38,0,480
1,36,94,0
1,36,0,461
1,31,89,19
1,31,84,360
1,31,0,3
1,31,0,50
1,31,92,7
1,31,0,18
1,33,94,42
1,33,0,461
1,38,89,19
1,38,84,360
1,38,0,3
1,38,0,50
1,38,92,7
1,38,0,18
1,38,89,42
1,41,84,360
1,38,0,3
1,41,0,50
1,40,92,7
1,40,0,18
1,38,88,42
1,38,0,210
1,36,92,31
1,36,0,152
1,36,85,29
1,36,0,58
1,38,88,0
1,38,0,210
1,40,88,30
1,40,0,210
1,38,88,30
1,38,0,210
1,36,88,30
1,36,0,210
1,26,88,30
1,26,0,240
1,40,87,6
1,40,0,234
1,38,87,6
1,38,0,234
1,36,88,0
1,36,0,210
1,38,87,36
1,38,0,234
1,28,88,0
1,28,0,240
1,38,88,0
1,38,0,210
1,38,91,30
1,26,88,420
1,38,0,7
1,26,0,36
1,38,87,23
1,38,0,234
1,35,88,0
1,35,0,120
1,33,87,6
1,33,0,114
1,36,89,0
1,36,84,360
1,36,0,3
1,36,0,50
1,36,92,7
1,36,0,18
1,36,87,48
1,36,0,234
1,31,87,6
1,31,0,234
1,33,94,1
1,33,0,408
1,33,81,10
1,33,0,47
1,33,76,15
1,33,0,351
1,33,99,11
1,33,0,117
1,38,95,0
1,38,0,394
1,38,76,26
1,38,0,40
1,38,79,20
1,38,86,360
1,38,0,18
1,38,0,32
1,38,101,10
1,38,0,22
1,41,102,38
1,41,0,403
1,41,75,14
1,41,0,35
1,41,86,30
1,41,0,478
1,36,89,0
1,36,84,360
1,36,0,3
1,36,0,50
1,36,92,7
1,36,0,18
1,31,89,42
1,36,84,360
1,31,0,3
1,36,0,50
1,35,92,7
1,35,0,18
1,33,94,42
1,33,0,461
1,38,102,19
1,38,0,403
1,38,75,14
1,38,0,35
1,38,87,34
1,38,0,411
1,38,89,13
1,38,0,50
1,26,88,0
1,26,0,240
1,36,87,6
1,36,0,234
1,31,87,6
1,31,0,234
1,41,88,0
1,41,0,210
1,40,92,31
1,40,0,152
1,40,85,29
1,40,0,58
1,41,92,1
1,41,0,152
1,41,85,29
1,41,0,58
1,36,87,6
1,36,0,234
1,38,87,6
1,38,0,114
1,33,87,6
1,33,0,114
1,33,94,0
1,33,0,461
1,38,94,20
1,38,0,408
1,38,81,10
1,38,0,47
1,38,88,14
1,38,0,210
1,36,87,36
1,36,0,234
1,31,87,6
1,31,0,234
1,41,88,0
1,41,0,210
1,40,88,30
1,40,0,210
1,29,88,30
1,29,0,240
1,36,92,1
1,36,0,152
1,36,85,29
1,36,0,58
1,38,87,6
1,38,0,234
1,33,87,6
1,33,0,411
1,33,89,13
1,33,0,50
1,38,102,0
1,38,0,403
1,38,75,14
1,38,0,35
1,26,88,28
1,26,0,240
1,36,87,6
1,36,0,234
1,38,87,6
1,38,0,234
1,40,87,6
1,40,0,234
1,38,87,6
1,38,0,234
1,36,87,6
1,36,0,234
1,38,92,1
1,38,0,152
1,38,85,29
1,38,0,58
1,40,88,0
1,40,0,210
1,38,92,31
1,38,0,152
1,38,85,29
1,38,0,58
1,36,92,1
1,36,0,152
1,36,85,29
1,36,0,58
1,38,92,1
1,38,0,152
1,38,85,29
1,38,0,58
1,40,87,6
1,40,0,234
1,38,92,1
1,38,0,152
1,38,85,29
1,38,0,58
1,38,89,3
1,26,92,474
1,38,0,5
1,38,84,354
1,26,0,3
1,38,0,121
1,36,94,1
1,36,0,408
1,36,81,10
1,36,0,47
1,31,87,20
1,31,0,411
1,31,89,13
1,31,0,50
1,33,87,6
1,33,0,411
1,33,89,13
1,33,0,50
1,38,87,6
1,38,0,411
1,38,89,13
1,38,0,50
1,38,94,0
1,38,0,461
1,38,83,19
1,38,0,480
1,38,91,0
1,26,88,420
1,38,0,7
1,26,0,36
1,36,89,17
1,36,84,360
1,36,0,3
1,36,0,50
1,36,92,7
1,36,0,18
1,36,102,42
1,36,0,403
1,36,75,14
1,36,0,35
1,36,86,30
1,36,0,478
1,36,92,1
1,36,0,152
1,36,85,29
1,36,0,58
1,35,88,0
1,35,0,120
1,33,88,0
1,33,0,120
1,36,94,0
1,36,0,461
2,55,74,347
2,67,63,0
2,64,45,0
2,55,0,159
2,55,73,51
2,72,60,120
2,55,0,195
2,55,67,45
2,64,0,6
2,67,0,15
2,64,51,39
2,67,69,120
2,55,0,38
2,67,0,16
2,64,0,8
2,72,0,0
2,55,70,0
2,67,47,0
2,64,54,0
2,60,33,0
2,60,0,329
2,60,58,31
2,60,0,120
2,64,0,0
2,67,0,0
2,55,0,0
2,67,72,0
2,60,42,0
2,55,63,0
2,64,36,0
2,64,0,18
2,55,0,78
2,55,70,24
2,64,55,60
2,64,0,60
2,67,0,0
2,60,0,0
2,55,0,0
2,50,73,0
2,59,69,0
2,59,0,120
2,50,0,0
2,57,79,0
2,65,59,59
2,65,0,61
2,57,0,0
2,60,71,0
2,67,57,0
2,55,55,0
2,64,42,0
2,55,0,295
2,55,82,65
2,55,0,120
2,64,0,0
2,67,0,0
2,60,0,0
2,67,63,0
2,64,79,0
2,55,56,0
2,60,54,120
2,60,0,50
2,67,0,0
2,64,0,0
2,55,0,0
2,62,72,10
2,55,42,0
2,50,63,0
2,59,36,0
2,59,0,76
2,50,0,78
2,50,70,26
2,59,55,60
2,55,0,58
2,62,0,0
2,50,0,2
2,59,0,0
2,64,61,0
2,57,51,0
2,52,56,0
2,60,67,0
2,45,31,0
2,52,0,509
2,52,66,31
2,57,0,21
2,60,0,48
2,57,59,51
2,60,31,120
2,64,0,41
2,64,60,79
2,45,0,53
2,60,0,7
2,52,0,0
2,57,0,0
2,64,0,0
2,65,69,0
2,53,81,0
2,57,46,0
2,62,61,0
2,53,0,178
2,53,81,32
2,57,0,10
2,62,0,26
2,62,94,24
2,65,0,2
2,65,82,58
2,69,69,60
2,53,0,267
2,62,0,124
2,65,0,9
2,69,0,4
2,57,71,0
2,65,57,0
2,53,55,0
2,62,42,0
2,53,0,295
2,53,82,65
2,53,0,120
2,62,0,0
2,65,0,0
2,57,0,0
2,53,73,0
2,62,69,0
2,62,0,240
2,53,0,0
2,67,72,0
2,60,42,0
2,55,63,0
2,64,36,0
2,64,0,18
2,55,0,78
2,55,70,24
2,64,55,60
2,64,0,60
2,67,0,0
2,60,0,0
2,55,0,0
2,50,73,0
2,59,69,0
2,59,0,170
2,50,0,0
2,69,63,10
2,65,79,0
2,57,56,0
2,60,54,180
2,60,0,50
2,69,0,0
2,65,0,0
2,57,0,0
2,67,72,10
2,59,42,0
2,55,63,0
2,64,36,0
2,64,0,76
2,55,0,78
2,55,70,26
2,64,55,60
2,59,0,58
2,67,0,0
2,55,0,2
2,64,0,0
2,57,73,0
2,65,69,0
2,65,0,240
2,57,0,0
2,55,73,0
2,64,69,0
2,64,0,240
2,55,0,0
2,53,73,0
2,62,69,0
2,62,0,120
2,53,0,0
2,52,73,0
2,60,69,0
2,60,0,120
2,52,0,0
2,57,71,0
2,64,57,0
2,52,55,0
2,60,42,0
2,52,0,295
2,52,82,65
2,52,0,120
2,60,0,0
2,64,0,0
2,57,0,0
2,53,70,0
2,65,47,0
2,62,54,0
2,57,33,0
2,57,0,329
2,57,58,31
2,57,0,120
2,62,0,0
2,65,0,0
2,53,0,0
2,53,73,0
2,62,69,0
2,62,0,240
2,53,0,0
2,67,63,0
2,64,79,0
2,55,56,0
2,60,54,120
2,60,0,120
2,67,0,0
2,64,0,0
2,55,0,0
2,62,63,0
2,59,79,0
2,50,56,0
2,55,54,120
2,55,0,120
2,62,0,0
2,59,0,0
2,50,0,0
2,57,73,0
2,65,69,0
2,65,0,240
2,57,0,0
2,55,73,0
2,64,69,0
2,64,0,240
2,55,0,0
2,57,73,0
2,65,69,0
2,65,0,240
2,57,0,0
2,67,63,0
2,64,79,0
2,55,56,0
2,60,54,120
2,60,0,120
2,67,0,0
2,64,0,0
2,55,0,0
2,65,63,0
2,62,79,0
2,53,56,0
2,57,54,120
2,57,0,120
2,65,0,0
2,62,0,0
2,53,0,0
2,52,55,0
2,60,53,0
2,57,64,0
2,64,60,0
2,52,0,258
2,52,53,42
2,57,0,1
2,60,0,40
2,57,68,19
2,60,55,60
2,60,0,60
2,52,0,0
2,64,0,0
2,57,0,0
2,53,74,0
2,65,63,0
2,62,45,0
2,53,0,159
2,53,73,51
2,69,60,120
2,53,0,195
2,53,67,45
2,62,0,6
2,65,0,15
2,62,51,39
2,65,69,120
2,53,0,38
2,65,0,16
2,62,0,8
2,69,0,0
2,60,71,0
2,67,57,0
2,55,55,0
2,64,42,0
2,55,0,295
2,55,82,65
2,55,0,120
2,64,0,0
2,67,0,0
2,60,0,0
2,55,71,0
2,62,57,0
2,50,55,0
2,59,42,0
2,50,0,295
2,50,82,65
2,50,0,120
2,59,0,0
2,62,0,0
2,55,0,0
2,52,55,0
2,60,53,0
2,57,64,0
2,64,60,0
2,52,0,258
2,52,53,42
2,57,0,1
2,60,0,40
2,57,68,19
2,60,55,60
2,60,0,60
2,52,0,0
2,64,0,0
2,57,0,0
2,57,71,0
2,66,57,0
2,54,55,0
2,62,42,0
2,54,0,295
2,54,82,65
2,54,0,120
2,62,0,0
2,66,0,0
2,57,0,0
2,57,71,0
2,65,57,0
2,53,55,0
2,62,42,0
2,53,0,295
2,53,82,65
2,53,0,120
2,62,0,0
2,65,0,0
2,57,0,0
2,65,63,0
2,62,79,0
2,53,56,0
2,57,54,120
2,57,0,120
2,65,0,0
2,62,0,0
2,53,0,0
2,55,73,0
2,64,69,0
2,64,0,240
2,55,0,0
2,53,73,0
2,62,69,0
2,62,0,240
2,53,0,0
2,67,72,0
2,59,42,0
2,55,63,0
2,64,36,0
2,64,0,18
2,55,0,78
2,55,70,24
2,64,55,60
2,64,0,60
2,67,0,0
2,59,0,0
2,55,0,0
2,65,72,0
2,57,42,0
2,53,63,0
2,62,36,0
2,62,0,18
2,53,0,78
2,53,70,24
2,53,0,50
2,57,0,0
2,65,0,0
2,67,72,10
2,60,42,0
2,55,63,0
2,64,36,0
2,64,0,76
2,55,0,78
2,55,70,26
2,64,55,60
2,60,0,58
2,67,0,0
2,55,0,2
2,64,0,0
2,65,63,0
2,62,79,0
2,53,56,0
2,57,54,120
2,57,0,120
2,65,0,0
2,62,0,0
2,53,0,0
2,67,72,0
2,59,42,0
2,55,63,0
2,64,36,0
2,64,0,18
2,55,0,78
2,55,70,24
2,64,55,60
2,64,0,60
2,67,0,0
2,59,0,0
2,55,0,0
2,65,63,0
2,62,79,0
2,53,56,0
2,57,54,120
2,57,0,50
2,65,0,0
2,62,0,0
2,53,0,0
2,67,63,10
2,64,79,0
2,55,56,0
2,60,54,180
2,55,0,118
2,67,0,0
2,64,0,0
2,60,0,2
2,65,63,0
2,62,79,0
2,53,56,0
2,57,54,120
2,57,0,50
2,65,0,0
2,62,0,0
2,53,0,0
2,55,73,10
2,64,69,0
2,64,0,298
2,55,0,0
2,53,73,2
2,62,69,0
2,62,0,240
2,53,0,0
2,53,55,0
2,62,53,0
2,57,64,0
2,65,60,0
2,53,0,258
2,53,53,42
2,57,0,1
2,62,0,40
2,57,68,19
2,57,0,50
2,65,0,0
2,53,0,0
2,65,72,10
2,57,42,0
2,53,63,0
2,62,36,0
2,62,0,20
2,53,0,134
2,53,70,26
2,62,55,60
2,57,0,58
2,65,0,0
2,53,0,2
2,62,0,0
2,50,73,0
2,59,69,0
2,59,0,120
2,50,0,0
2,57,79,0
2,65,59,59
2,65,0,61
2,57,0,0
2,55,55,0
2,64,53,0
2,60,64,0
2,67,60,0
2,55,0,258
2,55,53,42
2,60,0,1
2,64,0,40
2,60,68,19
2,60,0,50
2,67,0,0
2,55,0,0
2,67,63,10
2,64,79,0
2,55,56,0
2,64,0,20
2,60,54,160
2,55,0,118
2,67,0,0
2,60,0,2
2,50,73,0
2,59,69,0
2,59,0,240
2,50,0,0
2,64,61,0
2,57,51,0
2,52,56,0
2,60,67,0
2,45,31,0
2,52,0,509
2,52,66,31
2,57,0,21
2,60,0,48
2,57,59,51
2,60,31,120
2,64,0,41
2,64,60,79
2,45,0,53
2,60,0,7
2,52,0,0
2,57,0,0
2,64,0,0
2,62,69,0
2,57,69,0
2,53,69,0
2,53,0,960
2,57,0,0
2,62,0,0
2,69,64,1
2,57,75,2
2,65,67,0
2,60,51,0
2,57,0,119
2,57,82,32
2,60,0,25
2,65,0,36
2,69,0,60
2,60,48,5
2,65,56,115
2,69,70,62
2,65,0,54
2,57,0,2
2,60,0,3
2,69,0,0
2,60,71,0
2,67,57,0
2,55,55,0
2,64,42,0
2,55,0,295
2,55,82,65
2,55,0,120
2,64,0,0
2,67,0,0
2,60,0,0
2,50,70,0
2,62,47,0
2,59,54,0
2,55,33,0
2,55,0,329
2,55,58,31
2,55,0,120
2,59,0,0
2,62,0,0
2,50,0,0
2,52,70,0
2,64,47,0
2,60,54,0
2,57,33,0
2,57,0,329
2,57,58,31
2,57,0,120
2,60,0,0
2,64,0,0
2,52,0,0
2,54,55,0
2,62,53,0
2,57,64,0
2,66,60,0
2,54,0,258
2,54,53,42
2,57,0,1
2,62,0,40
2,57,68,19
2,62,55,60
2,62,0,60
2,54,0,0
2,66,0,0
2,57,0,0
2,57,71,0
2,65,57,0
2,53,55,0
2,62,42,0
2,53,0,295
2,53,82,65
2,53,0,120
2,62,0,0
2,65,0,0
2,57,0,0
2,53,73,0
2,62,69,0
2,62,0,240
2,53,0,0
2,67,63,0
2,64,79,0
2,55,56,0
2,60,54,120
2,60,0,120
2,67,0,0
2,64,0,0
2,55,0,0
2,62,63,0
2,59,79,0
2,50,56,0
2,55,54,120
2,55,0,120
2,62,0,0
2,59,0,0
2,50,0,0
2,69,63,0
2,65,79,0
2,57,56,0
2,60,54,120
2,60,0,120
2,69,0,0
2,65,0,0
2,57,0,0
2,55,73,0
2,64,69,0
2,64,0,240
2,55,0,0
2,57,73,0
2,65,69,0
2,65,0,240
2,57,0,0
2,67,63,0
2,64,79,0
2,55,56,0
2,60,54,120
2,60,0,50
2,67,0,0
2,64,0,0
2,55,0,0
2,53,73,10
2,62,69,0
2,62,0,178
2,53,0,0
2,52,79,2
2,60,59,59
2,60,0,61
2,52,0,0
2,52,70,0
2,64,47,0
2,60,54,0
2,57,33,0
2,57,0,329
2,57,58,31
2,57,0,120
2,60,0,0
