track,note,velocity,time
1,57,96,195
1,62,96,0
1,66,96,0
1,67,92,415
1,64,92,2
1,61,92,2
1,62,0,29
1,57,0,3
1,66,0,8
1,62,96,14
1,66,96,2
1,57,88,0
1,61,0,1
1,67,0,5
1,64,0,2
1,67,100,28
1,64,100,2
1,61,100,3
1,62,0,2
1,57,0,2
1,66,0,0
1,62,84,159
1,57,84,2
1,66,74,0
1,67,0,15
1,64,0,2
1,61,0,3
1,62,0,3
1,66,0,0
1,57,0,0
1,59,102,0
1,52,102,0
1,67,102,3
1,61,108,17
1,54,108,0
1,69,108,0
1,52,0,9
1,59,0,0
1,67,0,7
1,52,92,13
1,59,92,0
1,67,92,8
1,61,0,11
1,54,0,0
1,69,0,7
1,69,82,124
1,54,82,0
1,61,82,0
1,52,0,2
1,59,0,0
1,67,0,1
1,69,0,4
1,54,0,0
1,61,0,0
1,62,92,34
1,61,82,28
1,62,0,2
1,62,78,0
1,61,0,7
1,62,0,22
1,61,74,3
1,62,88,6
1,61,0,4
1,62,0,75
1,61,64,4
1,61,0,50
1,59,78,1
1,61,70,81
1,59,0,7
1,61,0,69
1,59,78,0
1,61,78,142
1,59,0,4
1,62,88,122
1,61,0,1
1,61,78,71
1,62,0,1
1,62,84,83
1,61,0,5
1,61,74,65
1,62,0,1
1,62,76,131
1,61,0,4
1,61,84,111
1,62,0,1
1,61,0,63
1,59,78,1
1,61,70,91
1,59,0,6
1,61,0,65
1,59,74,4
1,61,82,121
1,59,0,4
1,62,88,112
1,61,0,2
1,62,0,76
1,61,76,0
1,62,66,84
1,61,0,3
1,61,58,5
1,62,0,1
1,62,82,125
1,61,0,6
1,62,0,25
1,61,78,0
1,61,0,70
1,59,76,3
1,61,76,92
1,59,0,8
1,61,0,67
1,59,72,2
1,61,70,130
1,59,0,5
1,62,82,115
1,61,0,2
1,61,76,74
1,62,0,1
1,62,68,91
1,61,0,3
1,62,0,63
1,61,54,0
1,62,70,132
1,61,0,5
1,62,0,108
1,69,82,94
1,69,0,59
1,68,76,1
1,69,82,49
1,68,0,3
1,69,0,35
1,68,78,0
1,69,88,63
1,68,0,3
1,69,0,86
1,68,88,7
1,68,0,43
1,66,80,3
1,68,92,55
1,66,0,4
1,68,0,61
1,66,68,1
1,68,96,188
1,66,0,3
1,68,0,111
1,69,88,4
1,69,0,64
1,68,76,0
1,69,92,54
1,68,0,4
1,69,0,61
1,68,82,1
1,69,88,15
1,68,0,2
1,69,0,117
1,68,88,4
1,68,0,56
1,66,72,1
1,68,80,55
1,66,0,3
1,68,0,57
1,66,70,2
1,68,84,184
1,66,0,4
1,68,0,98
1,69,92,14
1,69,0,57
1,68,78,1
1,68,0,54
1,69,74,1
1,69,0,29
1,68,84,1
1,68,0,175
1,69,88,0
1,69,0,115
1,68,84,8
1,68,0,60
1,66,64,2
1,68,92,58
1,66,0,4
1,68,0,59
1,66,80,1
1,66,0,241
1,68,98,62
1,68,0,57
1,66,80,2
1,66,0,53
1,68,84,1
1,68,0,65
1,66,72,3
1,66,0,298
1,68,88,3
1,68,0,60
1,66,74,3
1,68,96,55
1,66,0,1
1,68,0,54
1,66,76,5
1,66,0,34
1,81,119,16
1,78,118,13
1,81,0,5
1,78,0,5
1,69,115,0
1,71,109,63
1,69,0,4
1,73,108,122
1,71,0,3
1,73,0,229
1,66,107,0
1,66,0,214
1,74,90,3
1,65,90,2
1,69,90,0
1,67,90,6
1,71,90,0
1,76,90,1
1,74,0,7
1,65,0,2
1,69,0,0
1,74,90,10
1,65,90,0
1,69,90,0
1,67,0,9
1,71,0,0
1,76,0,1
1,74,0,4
1,69,0,0
1,65,0,0
1,79,78,5
1,79,0,2
1,78,79,2
1,79,80,84
1,78,0,4
1,78,81,76
1,79,0,4
1,78,0,109
1,76,83,1
1,81,83,112
1,76,0,3
1,83,104,140
1,81,0,7
1,85,104,8
1,83,0,5
1,85,0,23
1,86,115,1
1,88,115,25
1,86,0,7
1,90,115,0
1,88,0,3
1,90,0,32
1,93,114,2
1,93,0,101
1,81,112,0
1,83,102,48
1,81,0,8
1,85,120,11
1,83,0,5
1,86,112,15
1,85,0,1
1,88,120,0
1,86,0,5
1,90,120,11
1,88,0,6
1,90,0,3
1,93,102,1
1,93,0,9
1,86,96,0
1,83,96,0
1,86,0,19
1,74,112,9
1,83,0,6
1,76,102,8
1,74,0,8
1,78,102,0
1,76,0,5
1,71,102,27
1,78,0,2
1,76,102,17
1,71,0,10
1,78,120,37
1,76,0,3
1,78,0,61
1,79,88,1
1,82,108,118
1,79,0,6
1,82,0,116
1,81,88,1
1,81,0,13
1,70,120,181
1,69,120,16
1,70,0,4
1,69,0,8
1,72,119,4
1,70,119,4
1,72,0,12
1,69,119,25
1,70,0,2
1,70,119,21
1,69,0,7
1,65,119,30
1,70,0,1
1,63,121,102
1,65,0,8
1,62,122,26
1,63,0,1
1,63,122,27
1,62,0,7
1,63,0,23
1,65,122,5
1,65,0,110
1,50,88,207
1,53,88,0
1,58,88,0
1,56,120,0
1,58,0,3
1,50,0,0
1,53,0,0
1,49,120,0
1,53,120,0
1,53,0,72
1,56,0,11
1,49,0,6
1,48,126,3
1,53,126,0
1,65,123,25
1,57,123,1
1,60,123,0
1,53,0,15
1,48,0,0
1,53,123,15
1,53,0,3
1,65,0,9
1,57,0,1
1,60,0,0
1,82,120,7
1,81,102,25
1,82,0,7
1,77,82,19
1,81,0,2
1,70,78,141
1,77,0,5
1,60,84,634
1,63,84,0
1,65,84,0
1,69,84,6
1,70,0,3
1,65,0,23
1,60,0,0
1,63,0,0
1,70,88,1
1,69,0,5
1,58,88,2
1,62,88,0
1,65,88,0
1,58,0,5
1,70,0,27
1,62,0,2
1,65,0,0
2,62,91,72
2,66,77,0
2,57,67,0
2,57,0,464
2,61,91,3
2,64,97,0
2,67,79,0
2,66,0,6
2,62,0,0
2,61,0,937
2,67,0,1
2,64,0,2
2,64,93,7
2,61,97,2
2,67,63,0
2,66,91,520
2,62,97,1
2,57,79,2
2,64,0,8
2,61,0,2
2,67,0,0
2,62,0,455
2,57,0,3
2,66,0,2
2,59,88,3
2,62,88,0
2,64,88,0
2,68,88,0
2,71,88,0
2,71,0,28
2,64,0,0
2,59,0,0
2,62,0,0
2,68,0,0
2,52,77,87
2,61,65,1
2,57,77,1
2,52,0,465
2,57,0,2
2,61,0,1
2,62,78,14
2,56,78,2
2,59,78,6
2,62,0,597
2,56,0,3
2,59,0,5
2,62,73,12
2,56,73,1
2,59,73,1
2,62,0,486
2,56,0,1
2,59,0,1
2,52,74,342
2,57,74,0
2,61,74,0
2,61,0,49
2,57,0,0
2,57,75,1
2,61,75,0
2,64,75,0
2,52,0,127
2,67,65,0
2,67,0,138
2,61,0,22
2,64,0,1
2,57,0,6
2,57,65,27
2,54,65,2
2,50,65,0
2,54,0,467
2,53,70,6
2,50,0,18
2,53,0,9
2,57,0,4
2,64,70,41
2,61,70,1
2,57,70,1
2,64,0,200
2,61,0,3
2,57,0,6
2,59,67,95
2,56,67,2
2,52,67,1
2,62,77,389
2,57,87,460
2,61,75,0
2,64,67,0
2,62,0,4
2,59,0,6
2,56,0,2
2,52,0,1
2,64,0,286
2,57,0,0
2,61,0,0
2,64,83,5
2,67,83,0
2,62,86,0
2,67,0,2
2,64,0,0
2,66,86,2
2,62,0,76
2,64,87,2
2,67,87,6
2,66,0,4
2,64,0,74
2,66,89,2
2,67,0,4
2,62,89,0
2,66,0,109
2,64,89,1
2,62,0,3
2,61,89,7
2,64,0,105
2,61,0,10
2,66,89,0
2,69,89,0
2,66,0,128
2,66,89,1
2,71,89,11
2,69,0,25
2,66,0,29
2,66,102,1
2,73,102,8
2,71,0,5
2,66,0,9
2,66,102,1
2,73,0,13
2,74,102,1
2,66,0,18
2,66,102,4
2,76,102,3
2,74,0,7
2,66,0,1
2,76,0,3
2,78,102,4
2,66,102,0
2,81,102,34
2,66,0,6
2,78,0,0
2,76,102,0
2,73,102,8
2,69,101,8
2,69,0,89
2,73,0,0
2,76,0,0
2,81,0,5
2,69,100,0
2,67,100,0
2,67,0,5
2,71,101,11
2,69,0,8
2,67,101,12
2,73,101,11
2,71,0,5
2,67,0,11
2,67,101,1
2,74,102,15
2,73,0,1
2,67,0,17
2,67,102,1
2,76,102,0
2,74,0,5
2,67,0,19
2,67,102,5
2,78,102,11
2,76,0,6
2,67,0,2
2,67,102,1
2,71,102,0
2,78,0,3
2,81,103,1
2,71,0,10
2,67,0,0
2,69,103,0
2,74,103,0
2,66,103,0
2,81,0,9
2,69,0,11
2,74,0,0
2,66,0,0
2,74,91,0
2,66,91,0
2,71,91,0
2,74,0,6
2,66,0,3
2,74,107,0
2,66,107,1
2,69,107,0
2,71,0,6
2,74,0,23
2,76,97,8
2,66,0,1
2,69,0,0
2,78,97,0
2,76,0,5
2,78,0,29
2,67,97,17
2,69,115,37
2,67,0,3
2,69,0,61
2,70,83,1
2,70,0,124
2,79,103,9
2,82,103,0
2,81,83,108
2,74,83,12
2,78,83,0
2,82,0,2
2,79,0,0
2,81,0,417
2,74,0,12
2,78,0,0
2,79,83,1
2,81,83,0
2,85,83,0
2,76,83,9
2,76,0,46
2,79,0,0
2,81,0,0
2,85,0,0
2,74,83,0
2,78,83,0
2,81,83,0
2,86,83,0
2,86,0,10
2,74,0,0
2,78,0,0
2,81,0,0
3,76,93,32
3,78,83,56
3,76,0,3
3,79,97,27
3,78,0,4
3,81,91,13
3,79,0,2
3,76,118,3
3,81,0,2
3,78,79,30
3,76,0,5
3,79,97,15
3,78,0,3
3,78,97,123
3,79,0,5
3,76,83,48
3,78,0,1
3,74,91,69
3,76,0,2
3,74,0,11
4,76,93,32
4,78,83,56
4,76,0,3
4,79,97,27
4,78,0,4
4,81,91,13
4,79,0,2
4,76,118,3
4,81,0,2
4,78,79,30
4,76,0,5
4,79,97,15
4,78,0,3
4,78,97,123
4,79,0,5
4,76,83,48
4,78,0,1
4,74,91,69
4,76,0,2
4,74,0,3
4,64,97,16
4,71,97,0
4,79,97,0
4,83,97,0
4,73,103,17
4,66,103,0
4,81,103,0
4,85,103,0
4,83,0,29
4,79,0,0
4,64,0,0
4,71,0,0
4,64,87,13
4,71,87,0
4,79,87,8
4,83,87,2
4,73,0,9
4,66,0,0
4,81,0,7
4,85,0,3
4,64,0,2
4,71,0,0
4,85,83,1
4,73,103,0
4,79,0,1
4,81,103,0
4,69,75,0
4,83,0,2
4,81,0,5
4,73,0,1
4,85,0,0
4,69,0,2
4,86,91,0
4,83,91,0
4,86,0,19
4,74,107,9
4,83,0,6
4,76,97,8
4,74,0,8
4,78,97,0
4,76,0,5
4,71,97,27
4,78,0,2
4,76,97,17
4,71,0,10
4,78,115,37
4,76,0,3
4,78,0,61
4,79,83,1
4,82,103,118
4,79,0,6
4,82,0,116
4,81,83,1
4,81,0,13
4,69,122,41
4,60,122,0
4,72,122,0
4,74,118,37
4,60,0,3
4,69,0,0
4,72,0,2
4,62,118,1
4,70,118,0
4,74,0,21
4,70,0,6
4,62,0,0
4,74,107,0
4,62,107,0
4,70,107,0
4,75,122,26
4,74,0,2
4,72,122,1
4,62,0,4
4,70,0,0
4,63,122,6
4,75,0,1
4,72,0,3
4,63,0,3
4,72,125,0
4,75,125,0
4,63,125,9
4,72,0,2
4,74,109,0
4,75,0,1
4,77,109,0
4,63,0,6
4,65,109,0
4,75,109,0
4,79,109,3
4,74,0,2
4,77,0,4
4,67,109,0
4,65,0,1
4,77,109,5
4,81,109,6
4,75,0,7
4,79,0,3
4,69,109,0
4,67,0,3
4,79,109,0
4,82,109,0
4,77,0,1
4,81,0,6
4,70,109,1
4,69,0,13
4,81,109,7
4,84,109,0
4,79,0,2
4,82,0,2
4,72,109,0
4,70,0,2
4,81,0,4
4,84,0,0
4,72,0,10
4,74,79,1
4,86,79,4
4,82,79,0
4,77,89,0
4,82,0,19
4,74,0,0
4,86,0,0
4,82,122,99
4,86,122,0
4,86,0,16
4,82,0,0
4,77,0,3
4,77,122,16
4,77,122,90
4,81,122,0
4,84,122,0
4,87,122,0
4,77,0,14
4,84,0,9
4,77,0,0
4,81,0,0
4,87,0,0
4,77,121,1
4,79,121,0
4,82,121,0
4,86,121,0
4,86,0,29
4,77,0,0
4,79,0,0
4,82,0,0
4,75,122,1
4,77,122,0
4,81,122,0
4,84,122,4
4,82,122,37
4,81,0,1
4,75,0,0
4,77,0,0
4,70,122,0
4,75,122,0
4,79,122,0
4,84,0,1
4,75,0,25
4,72,122,1
4,75,122,0
4,77,122,0
4,82,0,4
4,81,122,1
4,79,0,3
4,70,0,0
4,75,0,127
4,72,0,0
4,77,0,0
4,81,0,5
4,81,83,26
4,84,83,0
4,87,103,0
4,87,125,0
4,87,0,34
4,77,122,1
4,77,0,122
4,87,122,1
4,87,0,1
4,81,0,199
4,84,0,0
4,87,0,0
4,77,121,1
4,86,71,0
4,82,77,0
4,89,121,8
4,87,121,0
4,89,0,8
4,87,0,11
4,86,0,8
4,86,121,0
4,84,120,26
4,86,0,7
4,82,0,32
4,82,115,1
4,84,0,1
4,79,108,59
4,82,0,10
4,77,0,2
4,86,105,11
4,82,105,0
4,77,105,0
4,79,0,18
4,80,91,369
4,82,0,254
4,79,65,1
4,82,87,0
4,87,75,0
4,77,0,9
4,80,0,0
4,86,0,0
4,79,0,590
4,78,77,1
4,78,0,11
4,82,0,0
4,87,0,0
4,77,77,1
4,82,83,0
4,86,41,0
4,87,77,387
4,81,65,0
4,84,63,0
4,82,0,12
4,86,0,1
4,87,0,1006
4,77,0,0
4,84,0,0
4,81,0,0
4,77,93,1
4,82,93,0
4,86,65,0
4,86,0,60
4,82,0,2
4,77,0,0
5,62,97,181
5,77,97,0
5,82,97,0
5,60,97,16
5,75,97,0
5,81,97,0
5,82,0,4
5,62,0,0
5,77,0,0
5,79,97,0
5,60,0,8
5,81,0,0
5,75,0,0
5,63,97,4
5,84,97,0
5,79,0,5
5,62,98,4
5,77,98,0
5,82,98,0
5,84,0,12
5,63,0,0
5,60,98,25
5,75,98,0
5,81,98,0
5,77,0,2
5,82,0,0
5,62,0,0
5,62,99,21
5,77,99,0
5,82,99,0
5,60,0,7
5,81,0,0
5,75,0,0
5,58,99,18
5,62,0,4
5,74,99,8
5,77,99,0
5,82,0,1
5,77,0,0
5,58,0,98
5,53,101,4
5,72,101,0
5,75,101,0
5,77,0,8
5,74,0,0
5,50,101,26
5,70,101,0
5,74,101,0
5,72,0,1
5,75,0,0
5,53,0,0
5,53,101,27
5,72,101,0
5,75,101,0
5,50,0,7
5,74,0,0
5,70,0,0
5,53,0,23
5,72,0,0
5,75,0,0
5,58,101,5
5,74,101,0
5,77,101,0
5,77,0,110
5,74,0,0
5,58,0,0
6,26,75,145
6,26,0,91
6,33,107,2
6,33,0,6
6,28,118,8
6,28,0,102
6,33,121,7
6,33,0,41
6,26,121,7
6,26,0,6
6,33,121,7
6,33,0,239
6,28,118,3
6,28,0,99
6,33,103,9
6,33,0,262
6,26,118,3
6,33,93,189
6,26,0,1
6,33,0,188
6,21,122,79
6,33,121,40
6,21,0,6
6,33,0,203
6,33,93,111
6,33,0,117
6,38,91,42
6,38,0,116
6,38,79,55
6,38,0,49
6,33,79,9
6,33,0,103
6,33,75,20
6,33,0,110
6,38,91,9
6,38,0,9
6,38,91,30
6,38,0,19
6,33,83,2
6,33,0,93
6,33,83,16
6,33,0,116
6,40,83,3
6,40,0,166
6,40,93,15
6,40,0,50
6,33,79,10
6,33,0,107
6,33,79,16
6,33,0,109
6,40,79,5
6,40,0,165
6,40,93,20
6,40,0,52
6,33,75,5
6,33,0,99
6,33,79,17
6,33,0,113
6,40,83,6
6,40,0,156
6,40,79,19
6,40,0,53
6,33,73,5
6,33,0,105
6,33,77,18
6,33,0,119
6,40,91,0
6,40,0,162
6,40,93,23
6,40,0,53
6,33,91,7
6,33,0,109
6,33,93,18
6,33,0,116
6,38,83,7
6,38,0,162
