track,note,velocity,time
1,46,48,2784
1,48,48,1536
1,46,48,28
1,48,48,1536
1,58,48,40
1,48,48,4
1,46,48,28
1,48,48,0
1,46,48,20
1,48,48,14
1,46,48,26
1,52,48,3072
1,45,48,26
1,46,48,1536
1,43,48,44
1,41,48,2304
1,40,48,0
1,48,48,40
1,41,48,44
1,48,48,1536
1,53,48,16
1,65,48,0
1,64,48,8
1,52,48,0
1,53,48,0
1,62,48,4
1,50,48,0
1,48,48,0
1,60,48,0
1,53,48,8
1,48,48,26
1,53,48,8
1,46,48,24
1,46,48,48
1,48,48,24
1,46,48,52
1,48,48,18
1,46,48,64
1,48,48,1536
1,48,48,1602
1,46,48,36
1,48,48,0
1,46,48,16
1,48,48,1536
1,46,48,46
1,52,48,10
1,45,48,4
1,46,48,2
1,43,48,120
1,41,48,2
1,48,48,66
1,41,48,1536
1,48,48,44
1,53,48,768
1,65,48,0
1,64,48,20
1,52,48,0
1,62,48,4
1,50,48,0
1,48,48,192
1,60,48,0
1,41,48,10
1,48,48,20
1,41,48,1536
1,45,48,1334
1,46,48,28
1,46,48,80
1,48,48,16
1,46,48,48
1,74,48,42
1,46,48,0
1,70,48,0
1,65,48,18
1,65,48,16
1,72,48,0
1,69,48,2
1,45,48,22
1,67,48,16
1,63,48,0
1,58,48,6
1,43,48,10
1,63,48,38
1,39,48,2
1,55,48,2
1,58,48,0
1,55,48,36
1,36,48,0
1,60,48,0
1,65,48,0
1,39,48,4
1,65,48,6
1,63,48,0
1,58,48,6
1,46,48,16
1,74,48,0
1,70,48,2
1,65,48,0
1,45,48,16
1,69,48,16
1,72,48,0
1,74,48,0
1,65,48,0
1,67,48,26
1,63,48,2
1,58,48,2
1,43,48,0
1,41,48,204
1,63,48,36
1,58,48,2
1,39,48,0
1,55,48,2
1,43,48,44
1,74,48,18
1,71,48,0
1,67,48,2
1,53,48,8
1,48,48,28
1,53,48,6
1,48,48,6
1,53,48,16
1,65,48,0
1,64,48,2
1,52,48,0
1,62,48,24
1,50,48,0
1,60,48,192
1,48,48,0
1,53,48,40
1,48,48,6
1,53,48,0
1,48,48,40
1,53,48,2
1,77,48,0
1,76,48,24
1,52,48,0
1,74,48,0
1,50,48,0
1,72,48,170
1,48,48,0
1,53,48,184
1,48,48,62
1,53,48,30
1,48,48,4
1,53,48,768
1,77,48,0
1,76,48,6
1,52,48,0
1,74,48,12
1,50,48,0
1,72,48,168
1,48,48,0
1,53,48,224
1,48,48,8
1,53,48,26
1,48,48,16
1,53,48,24
1,65,48,0
1,64,48,0
1,64,48,0
1,52,48,0
1,62,48,16
1,50,48,0
1,60,48,192
1,48,48,0
1,53,48,16
2,29,96,28896
2,29,96,112
2,24,96,40
2,24,96,80
2,29,96,22
2,29,96,114
2,24,96,28
2,24,96,40
2,29,96,44
2,28,96,192
2,26,96,4
2,24,96,192
2,29,96,16
2,29,96,130
2,31,96,8
2,38,96,16
2,24,96,192
2,24,96,76
2,29,96,24
2,29,96,42
2,29,96,112
2,34,96,12
2,34,96,58
2,34,96,70
2,34,96,94
2,34,96,152
2,34,96,92
2,36,96,4
2,24,96,96
2,24,96,72
2,34,96,46
2,34,96,106
2,34,96,158
2,26,96,768
2,24,96,0
2,24,96,144
2,24,96,136
2,34,96,768
2,34,96,160
2,34,96,136
2,24,96,768
2,24,96,186
2,24,96,136
2,24,96,60
2,34,96,0
2,34,96,64
2,36,96,16
2,36,96,64
2,34,96,48
2,34,96,44
2,36,96,60
2,36,96,92
2,41,96,8
2,38,96,192
2,36,96,170
2,34,96,190
2,34,96,192
2,36,96,8
2,36,96,80
2,34,96,68
2,34,96,90
2,46,96,6
2,41,96,96
2,34,96,8
2,34,96,84
2,46,96,28
2,45,96,22
2,43,96,192
2,40,96,46
2,40,96,60
2,43,96,10
2,45,96,0
2,45,96,128
2,33,96,576
2,45,96,186
2,34,96,180
2,34,96,64
2,34,96,160
2,31,96,192
2,31,96,88
2,31,96,64
2,31,96,140
2,31,96,94
2,29,96,22
2,29,96,112
2,24,96,40
2,24,96,80
2,29,96,22
2,29,96,114
2,24,96,28
2,24,96,40
2,29,96,44
2,28,96,192
2,26,96,4
2,24,96,192
2,29,96,16
2,29,96,130
2,31,96,8
2,38,96,16
2,24,96,192
2,24,96,76
2,29,96,24
2,29,96,42
2,29,96,112
2,34,96,12
2,34,96,58
2,34,96,70
2,34,96,94
2,34,96,152
2,34,96,92
2,36,96,4
2,36,96,0
2,36,96,138
2,36,96,120
2,34,96,12
2,34,96,116
2,34,96,144
2,34,96,40
2,34,96,72
2,33,96,60
2,33,96,14
2,33,96,86
2,31,96,32
2,27,96,22
2,24,96,12
2,27,96,576
2,31,96,26
2,34,96,16
2,34,96,40
2,34,96,72
2,34,96,80
2,33,96,20
2,33,96,140
2,33,96,110
2,31,96,20
2,29,96,14
2,27,96,192
2,27,96,102
2,27,96,104
2,31,96,18
2,29,96,46
2,29,96,126
2,29,96,84
2,31,96,576
2,24,96,188
2,24,96,106
2,29,96,960
2,29,96,142
2,26,96,16
2,24,96,0
2,29,96,4
2,28,96,6
2,26,96,192
2,24,96,4
2,29,96,6
2,29,96,108
2,29,96,122
2,31,96,0
2,24,96,2
2,24,96,48
2,24,96,78
2,29,96,4
2,29,96,132
2,24,96,22
2,29,96,22
2,28,96,14
2,26,96,192
2,24,96,186
2,29,96,12
2,29,96,154
2,31,96,106
2,24,96,30
2,24,96,128
2,29,96,26
2,29,96,126
2,29,96,122
2,31,96,96
2,24,96,74
2,24,96,46
2,29,96,40
2,28,96,14
2,26,96,192
2,24,96,180
2,29,96,16
2,29,96,136
2,24,96,34
2,24,96,82
2,31,96,30
2,29,96,8
2,29,96,154
2,24,96,16
2,29,96,22
2,28,96,192
2,26,96,172
2,24,96,0
2,29,96,6
2,24,96,236
3,89,66,74208
3,77,53,0
3,76,55,192
3,88,60,0
3,74,57,0
3,86,63,0
3,84,60,2
3,72,56,0
3,89,46,28410
3,77,36,0
3,76,38,192
3,88,42,0
3,74,40,0
3,86,44,0
3,84,41,2
3,72,39,0
3,77,44,5370
3,89,48,0
3,76,41,192
3,88,48,0
3,74,39,0
3,86,44,0
3,84,51,0
3,72,39,0
3,77,43,5410
3,89,46,0
3,76,39,4
3,88,41,0
3,74,36,192
3,86,44,0
3,84,40,158
3,72,39,0
3,77,39,5392
3,89,45,0
3,76,39,192
3,88,45,0
3,74,36,160
3,86,45,0
3,72,40,180
3,84,44,0
4,65,82,9696
4,46,82,0
4,58,82,0
4,48,82,32
4,60,82,0
4,67,82,0
4,74,82,866
4,58,82,40
4,62,82,0
4,65,82,0
4,46,82,0
4,67,82,56
4,60,82,0
4,48,82,0
4,58,82,56
4,65,82,0
4,46,82,0
4,48,82,34
4,60,82,0
4,67,82,0
4,72,82,520
4,58,82,34
4,65,82,0
4,70,82,0
4,46,82,0
4,58,82,112
4,65,82,0
4,70,82,0
4,70,82,114
4,65,82,0
4,58,82,202
4,65,82,92
4,52,82,0
4,67,82,146
4,59,82,0
4,67,82,160
4,62,82,0
4,76,82,192
4,71,82,44
4,62,82,98
4,67,82,192
4,64,82,0
4,45,82,0
4,74,82,0
4,72,82,90
4,52,82,0
4,64,82,4
4,57,82,0
4,64,82,112
4,67,82,0
4,74,82,384
4,46,82,58
4,67,82,132
4,53,82,0
4,62,82,8
4,58,82,0
4,55,82,44
4,67,82,0
4,62,82,2
4,53,82,192
4,43,82,16
4,57,82,0
4,62,82,0
4,50,82,126
4,55,82,192
4,64,82,62
4,55,82,220
4,41,82,104
4,69,82,0
4,79,82,0
4,72,82,0
4,48,82,176
4,53,82,192
4,55,82,128
4,77,82,114
4,72,82,0
4,69,82,0
4,72,82,80
4,76,82,0
4,69,82,0
4,53,82,14
4,36,82,150
4,74,82,0
4,64,82,0
4,67,82,0
4,43,82,24
4,67,82,0
4,48,82,0
4,67,82,192
4,69,82,304
4,81,82,160
4,41,82,66
4,77,82,0
4,69,82,0
4,72,82,144
4,48,82,0
4,69,82,8
4,53,82,0
4,84,82,142
4,81,82,384
4,67,82,104
4,48,82,0
4,72,82,0
4,79,82,0
4,55,82,124
4,79,82,56
4,60,82,0
4,67,82,0
4,72,82,0
4,62,82,48
4,76,82,0
4,67,82,0
4,77,82,70
4,67,82,0
4,72,82,0
4,76,82,70
4,74,82,12
4,72,82,144
4,41,82,82
4,69,82,0
4,72,82,0
4,79,82,0
4,48,82,140
4,53,82,192
4,55,82,16
4,77,82,120
4,72,82,0
4,67,82,0
4,76,82,24
4,67,82,0
4,48,82,90
4,74,82,0
4,64,82,0
4,67,82,184
4,55,82,0
4,60,82,36
4,67,82,96
4,67,82,224
4,69,82,2
4,81,82,146
4,41,82,82
4,69,82,0
4,72,82,0
4,79,82,0
4,48,82,140
4,53,82,192
4,55,82,16
4,77,82,120
4,72,82,0
4,67,82,0
4,76,82,24
4,67,82,0
4,58,82,90
4,77,82,0
4,74,82,182
4,65,82,0
4,70,82,178
4,72,82,70
4,77,82,384
4,70,82,0
4,46,82,164
4,65,82,0
4,74,82,0
4,53,82,152
4,58,82,192
4,65,82,10
4,72,82,112
4,65,82,0
4,58,82,230
4,48,82,150
4,67,82,0
4,74,82,0
4,55,82,22
4,72,82,0
4,76,82,68
4,60,82,0
4,67,82,0
4,60,82,104
4,65,82,262
4,70,82,0
4,58,82,0
4,74,82,0
4,46,82,0
4,72,82,60
4,65,82,0
4,70,82,96
4,58,82,126
4,36,82,256
4,64,82,0
4,74,82,0
4,48,82,0
4,67,82,0
4,72,82,40
4,64,82,120
4,72,82,0
4,67,82,0
4,48,82,154
4,67,82,42
4,64,82,0
4,48,82,70
4,46,82,66
4,65,82,0
4,62,82,24
4,53,82,0
4,58,82,192
4,70,82,180
4,74,82,46
4,58,82,122
4,60,82,32
4,36,82,88
4,60,82,0
4,43,82,188
4,55,82,0
4,48,82,142
4,50,82,64
4,67,82,0
4,55,82,0
4,60,82,48
4,48,82,174
4,46,82,8
4,70,82,0
4,65,82,0
4,53,82,178
4,58,82,192
4,70,82,34
4,74,82,0
4,65,82,0
4,72,82,24
4,65,82,0
4,58,82,32
4,65,82,78
4,70,82,72
4,64,82,0
4,67,82,0
4,72,82,0
4,36,82,0
4,43,82,192
4,48,82,18
4,67,82,140
4,74,82,0
4,64,82,0
4,72,82,62
4,67,82,0
4,64,82,0
4,48,82,10
4,64,82,58
4,72,82,92
4,74,82,14
4,46,82,0
4,65,82,0
4,58,82,0
4,58,82,90
4,74,82,112
4,70,82,0
4,65,82,0
4,72,82,48
4,65,82,0
4,58,82,104
4,65,82,90
4,72,82,42
4,36,82,58
4,72,82,0
4,67,82,0
4,64,82,0
4,48,82,0
4,48,82,108
4,67,82,78
4,64,82,0
4,64,82,24
4,48,82,154
4,64,82,40
4,67,82,96
4,74,82,124
4,65,82,0
4,70,82,0
4,46,82,0
4,58,82,0
4,58,82,142
4,74,82,92
4,65,82,0
4,70,82,0
4,65,82,44
4,72,82,0
4,58,82,120
4,65,82,80
4,70,82,86
4,36,82,4
4,64,82,0
4,72,82,0
4,48,82,0
4,67,82,0
4,48,82,106
4,64,82,40
4,74,82,0
4,67,82,0
4,76,82,166
4,67,82,0
4,48,82,144
4,64,82,34
4,67,82,72
4,76,82,0
4,46,82,78
4,65,82,0
4,67,82,0
4,70,82,0
4,77,82,0
4,53,82,0
4,76,82,0
4,70,82,0
4,65,82,0
4,67,82,0
4,58,82,192
4,67,82,96
4,65,82,0
4,74,82,0
4,58,82,360
4,74,82,48
4,76,82,16
4,46,82,4
4,77,82,0
4,53,82,0
4,76,82,0
4,58,82,192
4,74,82,18
4,58,82,96
4,69,82,192
4,72,82,192
4,52,82,38
4,74,82,0
4,69,82,0
4,59,82,96
4,64,82,192
4,67,82,44
4,71,82,0
4,74,82,0
4,74,82,6
4,71,82,0
4,67,82,0
4,64,82,4
4,67,82,68
4,69,82,80
4,74,82,0
4,45,82,0
4,74,82,0
4,67,82,0
4,64,82,0
4,52,82,44
4,64,82,0
4,72,82,0
4,64,82,48
4,72,82,0
4,67,82,0
4,57,82,8
4,64,82,46
4,64,82,24
4,67,82,0
4,72,82,0
4,76,82,56
4,64,82,0
4,67,82,0
4,74,82,120
4,67,82,0
4,46,82,18
4,65,82,0
4,74,82,0
4,69,82,0
4,53,82,46
4,79,82,0
4,74,82,24
4,58,82,0
4,65,82,0
4,69,82,0
4,53,82,16
4,79,82,64
4,69,82,110
4,74,82,0
4,65,82,0
4,58,82,140
4,65,82,68
4,43,82,126
4,55,82,0
4,65,82,0
4,69,82,0
4,72,82,0
4,55,82,80
4,65,82,60
4,76,82,88
4,55,82,310
4,67,82,26
4,41,82,156
4,69,82,0
4,79,82,0
4,72,82,0
4,48,82,176
4,53,82,192
4,55,82,128
4,77,82,114
4,72,82,0
4,69,82,0
4,72,82,80
4,76,82,0
4,69,82,0
4,74,82,0
4,53,82,14
4,36,82,150
4,74,82,0
4,64,82,0
4,67,82,0
4,43,82,24
4,67,82,0
4,48,82,0
4,67,82,192
4,67,82,112
4,69,82,32
4,81,82,160
4,41,82,66
4,77,82,0
4,69,82,0
4,72,82,144
4,48,82,0
4,69,82,8
4,53,82,0
4,84,82,142
4,81,82,384
4,67,82,104
4,48,82,0
4,72,82,0
4,79,82,0
4,55,82,124
4,79,82,56
4,60,82,0
4,67,82,0
4,72,82,0
4,62,82,48
4,76,82,0
4,67,82,0
4,77,82,70
4,67,82,0
4,72,82,0
4,76,82,70
4,74,82,12
4,72,82,144
4,41,82,82
4,69,82,0
4,72,82,0
4,79,82,0
4,48,82,140
4,53,82,192
4,55,82,16
4,77,82,120
4,72,82,0
4,67,82,0
4,76,82,24
4,67,82,0
4,48,82,90
4,74,82,0
4,64,82,0
4,67,82,184
4,55,82,0
4,60,82,36
4,67,82,96
4,67,82,224
4,69,82,2
4,81,82,146
4,41,82,82
4,69,82,0
4,72,82,0
4,79,82,0
4,48,82,140
4,53,82,192
4,55,82,16
4,77,82,120
4,72,82,0
4,67,82,0
4,76,82,24
4,67,82,0
4,58,82,90
4,77,82,0
4,74,82,182
4,65,82,0
4,70,82,178
4,72,82,70
4,77,82,384
4,70,82,0
4,46,82,164
4,65,82,0
4,74,82,0
4,53,82,152
4,58,82,192
4,65,82,10
4,72,82,112
4,65,82,0
4,58,82,230
4,48,82,150
4,67,82,0
4,74,82,0
4,55,82,22
4,72,82,0
4,76,82,68
4,60,82,0
4,67,82,0
4,60,82,104
4,65,82,262
4,70,82,0
4,58,82,0
4,74,82,0
4,46,82,0
4,72,82,60
4,65,82,0
4,70,82,96
4,58,82,126
4,46,82,256
4,34,82,0
4,53,82,0
4,62,82,0
4,58,82,0
4,53,82,22
4,58,82,40
4,53,82,0
4,53,82,228
4,62,82,0
4,60,82,32
4,58,82,8
4,53,82,0
4,46,82,14
4,53,82,4
4,60,82,110
4,33,82,0
4,53,82,0
4,45,82,0
4,57,82,0
4,45,82,64
4,53,82,64
4,57,82,26
4,53,82,0
4,60,82,0
4,57,82,80
4,53,82,0
4,60,82,0
4,45,82,56
4,67,82,24
4,31,82,0
4,63,82,0
4,58,82,0
4,43,82,0
4,55,82,128
4,63,82,0
4,58,82,0
4,43,82,30
4,63,82,156
4,58,82,0
4,55,82,0
4,39,82,0
4,27,82,0
4,58,82,82
4,55,82,0
4,63,82,0
4,39,82,104
4,24,82,64
4,36,82,0
4,60,82,0
4,55,82,0
4,55,82,40
4,65,82,0
4,60,82,0
4,65,82,116
4,60,82,0
4,55,82,0
4,39,82,64
4,27,82,0
4,55,82,54
4,65,82,64
4,60,82,0
4,55,82,0
4,27,82,76
4,39,82,0
4,62,82,44
4,53,82,0
4,58,82,0
4,34,82,0
4,46,82,0
4,46,82,200
4,62,82,72
4,53,82,0
4,58,82,0
4,62,82,50
4,53,82,0
4,58,82,0
4,46,82,74
4,53,82,16
4,58,82,84
4,60,82,66
4,33,82,30
4,53,82,0
4,45,82,0
4,57,82,0
4,57,82,18
4,53,82,0
