track,note,velocity,time
1,61,116,3084
1,68,116,96
1,75,116,96
1,58,116,4
1,65,116,96
1,68,116,96
1,65,116,4
1,70,116,96
1,51,116,4
1,63,116,192
1,70,116,192
1,51,116,4
1,53,116,4
1,63,116,192
1,72,116,192
1,53,116,192
1,66,116,4
1,54,116,0
1,54,116,100
1,66,116,0
1,73,116,96
1,66,116,4
1,80,116,0
1,73,116,0
1,61,116,4
1,68,116,96
1,75,116,96
1,58,116,4
1,65,116,96
1,68,116,96
1,65,116,4
1,70,116,96
1,51,116,4
1,63,116,192
1,70,116,192
1,51,116,4
1,53,116,4
1,63,116,192
1,72,116,192
1,53,116,192
1,54,116,4
1,73,116,288
1,73,116,188
1,66,116,92
1,80,116,0
1,73,116,0
1,61,116,4
1,68,116,96
1,75,116,96
1,58,116,4
1,65,116,96
1,68,116,96
1,65,116,4
1,70,116,96
1,51,116,4
1,63,116,192
1,70,116,192
1,51,116,4
1,53,116,4
1,63,116,192
1,72,116,192
1,53,116,192
1,66,116,4
1,54,116,0
1,54,116,100
1,66,116,0
1,73,116,96
1,66,116,4
1,80,116,0
1,73,116,0
1,49,116,0
1,51,116,0
1,54,116,0
1,56,116,0
1,61,116,0
1,49,116,4
1,53,116,0
1,56,116,0
1,61,116,0
1,49,116,196
1,53,116,0
1,56,116,0
1,61,116,0
1,49,116,4
1,53,116,0
1,56,116,0
1,61,116,0
1,49,116,100
1,53,116,0
1,56,116,0
1,61,116,0
1,49,116,4
1,51,116,0
1,54,116,0
1,56,116,0
1,61,116,0
1,49,116,4
1,53,116,0
1,56,116,0
1,61,116,0
1,49,116,196
1,51,116,0
1,54,116,0
1,56,116,0
1,61,116,0
1,49,116,4
1,53,116,0
1,56,116,0
1,61,116,0
1,49,116,196
1,53,116,0
1,56,116,0
1,61,116,0
1,49,116,4
1,53,116,0
1,56,116,0
1,61,116,0
1,49,116,100
1,53,116,0
1,56,116,0
1,61,116,0
1,49,116,4
1,51,116,0
1,54,116,0
1,56,116,0
1,61,116,0
1,49,116,4
1,53,116,0
1,56,116,0
1,61,116,0
1,49,116,196
1,51,116,0
1,54,116,0
1,56,116,0
1,61,116,0
1,49,116,4
1,53,116,0
1,56,116,0
1,61,116,0
1,49,116,196
1,53,116,0
1,56,116,0
1,61,116,0
1,49,116,4
1,53,116,0
1,56,116,0
1,61,116,0
1,49,116,100
1,53,116,0
1,56,116,0
1,61,116,0
1,49,116,4
1,51,116,0
1,54,116,0
1,56,116,0
1,61,116,0
1,49,116,4
1,53,116,0
1,56,116,0
1,61,116,0
1,49,116,196
1,51,116,0
1,54,116,0
1,56,116,0
1,61,116,0
1,49,116,4
1,53,116,0
1,56,116,0
1,61,116,0
1,49,116,196
1,53,116,0
1,56,116,0
1,61,116,0
1,49,116,4
1,53,116,0
1,56,116,0
1,61,116,0
1,49,116,100
1,53,116,0
1,56,116,0
1,61,116,0
1,49,116,4
1,51,116,0
1,54,116,0
1,56,116,0
1,61,116,0
1,49,116,4
1,53,116,0
1,56,116,0
1,61,116,0
1,61,116,0
1,66,116,0
1,68,116,0
1,73,116,0
1,61,116,4
1,66,116,0
1,68,116,0
1,73,116,0
1,61,116,4
1,66,116,0
1,68,116,0
1,73,116,0
1,61,116,148
1,66,116,0
1,68,116,0
1,73,116,0
1,57,116,0
1,61,116,0
1,66,116,0
1,69,116,0
1,57,116,4
1,61,116,0
1,66,116,0
1,69,116,0
1,57,116,4
1,61,116,0
1,66,116,0
1,69,116,0
1,49,116,0
1,51,116,0
1,54,116,0
1,56,116,0
1,61,116,0
1,49,116,4
1,53,116,0
1,56,116,0
1,61,116,0
1,49,116,196
1,53,116,0
1,56,116,0
1,61,116,0
1,49,116,4
1,53,116,0
1,56,116,0
1,61,116,0
1,49,116,100
1,53,116,0
1,56,116,0
1,61,116,0
1,49,116,4
1,51,116,0
1,54,116,0
1,56,116,0
1,61,116,0
1,49,116,4
1,53,116,0
1,56,116,0
1,61,116,0
1,49,116,196
1,51,116,0
1,54,116,0
1,56,116,0
1,61,116,0
1,49,116,4
1,53,116,0
1,56,116,0
1,61,116,0
1,49,116,196
1,53,116,0
1,56,116,0
1,61,116,0
1,49,116,4
1,53,116,0
1,56,116,0
1,61,116,0
1,49,116,100
1,53,116,0
1,56,116,0
1,61,116,0
1,49,116,4
1,51,116,0
1,54,116,0
1,56,116,0
1,61,116,0
1,49,116,4
1,53,116,0
1,56,116,0
1,61,116,0
1,61,116,0
1,68,116,96
1,75,116,96
1,58,116,4
1,65,116,96
1,68,116,96
1,65,116,4
1,70,116,96
1,63,116,0
1,63,116,4
1,66,116,96
1,70,116,96
1,65,116,4
1,65,116,4
1,68,116,96
1,72,116,96
1,66,116,4
1,66,116,4
1,70,116,96
1,73,116,96
1,61,116,4
1,61,116,4
1,65,116,96
1,68,116,96
1,61,116,196
1,63,116,4
1,70,116,4
1,66,116,4
1,61,116,4
1,65,116,4
1,68,116,96
1,72,116,4
1,68,116,4
1,61,116,4
1,73,116,0
1,75,116,0
1,80,116,0
1,73,116,4
1,73,116,4
1,75,116,0
1,80,116,0
1,73,116,100
1,75,116,0
1,80,116,0
1,73,116,4
1,73,116,4
1,75,116,0
1,80,116,0
1,73,116,100
1,75,116,0
1,80,116,0
1,73,116,4
1,73,116,4
1,75,116,0
1,80,116,0
1,73,116,100
1,75,116,0
1,80,116,0
1,73,116,4
1,73,116,4
1,75,116,0
1,80,116,0
1,73,116,100
1,75,116,0
1,80,116,0
1,73,116,4
1,73,116,4
1,75,116,0
1,80,116,0
1,73,116,100
1,75,116,0
1,80,116,0
1,51,116,0
1,56,116,4
1,61,116,4
1,56,116,4
1,51,116,4
1,61,116,4
1,56,116,4
1,61,116,4
1,53,116,4
1,56,116,4
1,61,116,4
1,56,116,4
1,53,116,4
1,61,116,4
1,56,116,4
1,61,116,4
1,51,116,4
1,56,116,4
1,61,116,4
1,56,116,4
1,53,116,4
1,56,116,4
1,61,116,4
1,56,116,4
1,54,116,0
1,56,116,4
1,61,116,4
1,68,116,4
1,56,116,288
1,61,116,4
1,68,116,4
1,61,116,192
1,56,116,4
1,51,116,0
1,54,116,0
1,58,116,0
1,61,116,0
1,66,116,0
1,51,116,4
1,54,116,0
1,58,116,0
1,61,116,0
1,66,116,0
1,49,116,196
1,53,116,0
1,56,116,0
1,61,116,0
1,65,116,0
1,49,116,4
1,53,116,0
1,56,116,0
1,61,116,0
1,65,116,0
1,49,116,100
1,53,116,0
1,56,116,0
1,61,116,0
1,65,116,0
1,51,116,4
1,54,116,0
1,58,116,0
1,61,116,0
1,66,116,0
1,49,116,4
1,53,116,0
1,56,116,0
1,61,116,0
1,65,116,0
1,51,116,196
1,54,116,0
1,58,116,0
1,61,116,0
1,66,116,0
1,51,116,4
1,54,116,0
1,58,116,0
1,61,116,0
1,66,116,0
1,49,116,196
1,53,116,0
1,56,116,0
1,61,116,0
1,65,116,0
1,49,116,4
1,53,116,0
1,56,116,0
1,61,116,0
1,65,116,0
1,49,116,100
1,53,116,0
1,56,116,0
1,61,116,0
1,65,116,0
1,51,116,4
1,54,116,0
1,58,116,0
1,61,116,0
1,66,116,0
1,49,116,4
1,53,116,0
1,56,116,0
1,61,116,0
1,65,116,0
1,51,116,196
1,54,116,0
1,58,116,0
1,61,116,0
1,66,116,0
1,51,116,4
1,54,116,0
1,58,116,0
1,61,116,0
1,66,116,0
1,49,116,196
1,53,116,0
1,56,116,0
1,61,116,0
1,65,116,0
1,49,116,4
1,53,116,0
1,56,116,0
1,61,116,0
1,65,116,0
1,49,116,100
1,53,116,0
1,56,116,0
1,61,116,0
1,65,116,0
1,51,116,4
1,54,116,0
1,58,116,0
1,61,116,0
1,66,116,0
1,49,116,4
1,53,116,0
1,56,116,0
1,61,116,0
1,65,116,0
1,51,116,196
1,54,116,0
1,58,116,0
1,61,116,0
1,66,116,0
1,51,116,4
1,54,116,0
1,58,116,0
1,61,116,0
1,66,116,0
1,49,116,196
1,53,116,0
1,56,116,0
1,61,116,0
1,65,116,0
1,49,116,4
1,53,116,0
1,56,116,0
1,61,116,0
1,65,116,0
1,49,116,100
1,53,116,0
1,56,116,0
1,61,116,0
1,65,116,0
1,51,116,4
1,54,116,0
1,58,116,0
1,61,116,0
1,66,116,0
1,49,116,4
1,53,116,0
1,56,116,0
1,61,116,0
1,65,116,0
1,54,116,0
1,56,116,0
1,61,116,0
1,66,116,0
1,68,116,0
1,54,116,4
1,56,116,0
1,61,116,0
1,66,116,0
1,68,116,0
1,54,116,4
1,56,116,0
1,61,116,0
1,66,116,0
1,68,116,0
1,54,116,192
1,56,116,0
1,61,116,0
1,66,116,0
1,70,116,0
1,54,116,100
1,57,116,0
1,61,116,0
1,66,116,0
1,69,116,0
1,54,116,4
1,57,116,0
1,61,116,0
1,66,116,0
1,69,116,0
1,54,116,4
1,57,116,0
1,61,116,0
1,66,116,0
1,69,116,0
1,49,116,4
1,51,116,0
1,54,116,0
1,56,116,0
1,61,116,0
1,49,116,4
1,53,116,0
1,56,116,0
1,61,116,0
1,49,116,196
1,53,116,0
1,61,116,0
1,56,116,0
1,49,116,4
1,53,116,0
1,56,116,0
1,61,116,0
1,49,116,100
1,53,116,0
1,56,116,0
1,61,116,0
1,49,116,4
1,51,116,0
1,54,116,0
1,56,116,0
1,61,116,0
1,49,116,4
1,53,116,0
1,56,116,0
1,61,116,0
1,49,116,196
1,51,116,0
1,54,116,0
1,56,116,0
1,61,116,0
1,49,116,4
1,53,116,0
1,56,116,0
1,61,116,0
1,49,116,196
1,53,116,0
1,56,116,0
1,61,116,0
1,49,116,4
1,53,116,0
1,56,116,0
1,61,116,0
1,49,116,100
1,53,116,0
1,56,116,0
1,61,116,0
1,49,116,4
1,53,116,0
1,56,116,0
1,61,116,0
1,49,116,4
1,53,116,0
1,56,116,0
1,61,116,0
1,54,116,196
1,51,116,0
1,61,116,0
1,63,116,0
1,58,116,0
1,54,116,4
1,51,116,0
1,58,116,0
1,61,116,0
1,63,116,0
1,51,116,4
1,54,116,0
1,58,116,0
1,61,116,0
1,63,116,0
1,54,116,4
1,58,116,0
1,61,116,0
1,51,116,0
1,63,116,0
1,51,116,4
1,54,116,0
1,61,116,0
1,63,116,0
1,58,116,0
1,54,116,4
1,58,116,0
1,61,116,0
1,51,116,0
1,63,116,0
1,54,116,4
1,51,116,0
1,58,116,0
1,61,116,0
1,63,116,0
1,51,116,4
1,61,116,0
1,63,116,0
1,54,116,0
1,58,116,0
1,61,116,4
1,49,116,0
1,54,116,0
1,66,116,0
1,58,116,0
1,54,116,4
1,49,116,0
1,61,116,0
1,66,116,0
1,58,116,0
1,54,116,4
1,49,116,0
1,58,116,0
1,61,116,0
1,66,116,0
1,49,116,4
1,54,116,0
1,58,116,0
1,61,116,0
1,66,116,0
1,49,116,4
1,54,116,0
1,58,116,0
1,61,116,0
1,66,116,0
1,49,116,4
1,54,116,0
1,58,116,0
1,61,116,0
1,66,116,0
1,54,116,4
1,49,116,0
1,61,116,0
1,66,116,0
1,58,116,0
1,49,116,4
1,54,116,0
1,61,116,0
1,58,116,0
1,66,116,0
1,58,116,4
1,61,116,0
1,51,116,0
1,63,116,0
1,54,116,0
1,54,116,4
1,51,116,0
1,58,116,0
1,63,116,0
1,61,116,0
1,51,116,4
1,58,116,0
1,61,116,0
1,63,116,0
1,54,116,0
1,54,116,4
1,51,116,0
1,58,116,0
1,61,116,0
1,63,116,0
1,53,116,4
1,56,116,0
1,61,116,0
1,65,116,0
1,53,116,4
1,56,116,0
1,61,116,0
1,65,116,0
1,53,116,4
1,56,116,0
1,61,116,0
1,65,116,0
1,53,116,4
1,56,116,0
1,61,116,0
1,65,116,0
1,61,116,4
1,54,116,0
1,66,116,0
1,56,116,0
1,68,116,0
1,56,116,4
1,61,116,0
1,54,116,0
1,66,116,0
1,68,116,0
1,61,116,4
1,56,116,0
1,54,116,0
1,66,116,0
1,68,116,0
1,61,116,100
1,54,116,0
1,66,116,0
1,56,116,0
1,68,116,0
1,61,116,0
1,68,116,96
1,75,116,96
1,58,116,4
1,65,116,96
1,68,116,96
1,65,116,4
1,70,116,96
1,51,116,4
1,63,116,192
1,70,116,192
1,51,116,4
1,53,116,4
1,63,116,192
1,72,116,192
1,53,116,192
1,66,116,4
1,54,116,0
1,54,116,100
1,66,116,0
1,73,116,96
1,66,116,4
1,80,116,0
1,73,116,0
1,61,116,4
1,68,116,96
1,75,116,96
1,58,116,4
1,65,116,96
1,68,116,96
1,65,116,4
1,70,116,96
1,51,116,4
1,63,116,192
1,70,116,192
1,51,116,4
1,53,116,4
1,63,116,192
1,72,116,192
1,53,116,192
1,66,116,4
1,54,116,0
1,54,116,100
1,66,116,0
1,73,116,96
1,66,116,100
1,80,116,0
1,73,116,0
2,65,116,0
2,61,116,12
2,49,116,12
2,56,116,12
2,53,116,4
2,46,116,4
2,61,116,4
2,56,116,0
2,51,116,0
2,56,116,156
2,61,116,192
2,53,116,4
2,56,116,192
2,61,116,192
2,53,116,4
2,54,116,4
2,56,116,96
2,61,116,192
2,68,116,192
2,65,116,0
2,61,116,12
2,49,116,12
2,56,116,12
2,53,116,4
2,46,116,4
2,61,116,4
2,56,116,0
2,51,116,0
2,56,116,156
2,61,116,192
2,53,116,4
2,56,116,192
2,61,116,192
2,53,116,4
2,54,116,4
2,56,116,96
2,61,116,192
2,68,116,192
2,65,116,0
2,61,116,12
2,49,116,12
2,56,116,12
2,53,116,4
2,46,116,4
2,61,116,4
2,56,116,0
2,51,116,0
2,56,116,156
2,61,116,192
2,53,116,4
2,56,116,192
2,61,116,192
2,53,116,4
2,54,116,4
2,56,116,96
2,61,116,192
2,68,116,4
2,54,116,0
2,58,116,0
2,61,116,0
2,66,116,0
2,53,116,4
2,56,116,0
2,61,116,0
2,65,116,0
2,53,116,244
2,56,116,0
2,61,116,0
2,65,116,0
2,53,116,4
2,56,116,0
2,61,116,0
2,65,116,0
2,53,116,148
2,56,116,0
2,61,116,0
2,65,116,0
2,54,116,4
2,58,116,0
2,61,116,0
2,66,116,0
2,53,116,4
2,56,116,0
2,61,116,0
2,65,116,0
2,53,83,100
2,56,83,0
2,61,83,0
2,65,83,0
2,54,116,92
2,58,116,0
2,61,116,0
2,66,116,0
2,58,116,4
2,61,116,0
2,66,116,0
2,70,116,0
2,53,116,244
2,56,116,0
2,61,116,0
2,65,116,0
2,54,116,4
2,58,116,0
2,61,116,0
2,66,116,0
2,54,116,148
2,58,116,0
2,61,116,0
2,66,116,0
2,54,116,4
2,58,116,0
2,61,116,0
2,66,116,0
2,58,116,4
2,61,116,0
2,66,116,0
2,70,116,0
2,54,83,100
2,58,83,0
2,61,83,0
2,66,83,0
2,54,116,92
2,58,116,0
2,61,116,0
2,66,116,0
2,58,116,4
2,61,116,0
2,66,116,0
2,70,116,0
2,53,116,244
2,56,116,0
2,61,116,0
2,65,116,0
2,53,116,4
2,56,116,0
2,61,116,0
2,65,116,0
2,53,116,148
2,56,116,0
2,61,116,0
2,65,116,0
2,53,116,4
2,56,116,0
2,61,116,0
2,65,116,0
2,53,116,4
2,56,116,0
2,61,116,0
2,65,116,0
2,53,83,100
2,56,83,0
2,61,83,0
2,65,83,0
2,54,116,92
2,58,116,0
2,61,116,0
2,66,116,0
2,58,116,4
2,61,116,0
2,65,116,0
2,70,116,0
2,53,116,244
2,56,116,0
2,61,116,0
2,65,116,0
2,58,116,4
2,61,116,0
2,66,116,0
2,70,116,0
2,53,116,100
2,56,116,0
2,61,116,0
2,65,116,0
2,53,116,4
2,56,116,0
2,61,116,0
2,65,116,0
2,53,116,4
2,56,116,0
2,61,116,0
2,65,116,0
2,58,116,196
2,56,116,0
2,54,116,0
2,61,116,0
2,49,116,0
2,56,116,4
2,61,116,0
2,58,116,0
2,49,116,0
2,54,116,0
2,56,116,0
2,61,116,192
2,49,116,0
2,54,116,0
2,57,116,0
2,61,116,0
2,49,116,4
2,54,116,0
