track,note,velocity,time
1,53,127,8
1,53,127,20
1,53,127,18
1,53,127,34
1,52,127,68
1,51,127,54
1,51,127,18
1,51,127,0
1,51,127,48
1,50,127,24
1,50,127,16
1,47,127,0
1,48,127,0
1,47,127,0
1,46,127,0
1,50,127,0
1,52,127,22
1,53,127,0
1,53,127,82
1,53,127,20
1,48,127,38
1,52,127,0
1,53,127,0
1,53,127,52
1,53,127,22
1,48,127,0
1,52,127,16
1,53,127,24
1,53,127,20
1,53,127,40
1,48,127,16
1,52,127,0
1,53,127,18
1,53,127,16
1,53,127,32
1,48,127,22
1,52,127,0
1,53,127,0
1,53,127,84
1,53,127,16
1,48,127,34
1,52,127,0
1,53,127,0
1,53,127,52
1,53,127,18
1,48,127,0
1,52,127,16
1,53,127,26
1,53,127,20
1,53,127,36
1,48,127,22
1,52,127,0
1,53,127,20
1,53,127,18
1,53,127,40
1,53,127,14
1,52,127,0
1,50,127,0
1,50,127,52
1,50,127,88
1,50,127,0
1,53,127,192
1,55,127,36
1,55,127,68
1,55,127,96
1,53,127,0
1,50,127,0
1,48,127,0
1,48,127,48
1,48,127,80
1,48,127,18
1,48,127,32
1,48,127,100
1,50,127,0
1,52,127,34
1,53,127,0
1,53,127,80
1,53,127,20
1,48,127,40
1,52,127,0
1,53,127,0
1,53,127,50
1,53,127,20
1,48,127,0
1,52,127,16
1,53,127,18
1,53,127,18
1,53,127,32
1,48,127,22
1,52,127,0
1,53,127,22
1,53,127,18
1,53,127,38
1,48,127,20
1,52,127,0
1,53,127,0
1,53,127,102
1,46,127,0
1,45,127,38
1,43,127,24
1,43,127,22
1,47,127,0
1,48,127,16
1,52,127,0
1,55,127,24
1,45,127,18
1,45,127,52
1,50,127,0
1,46,127,22
1,46,127,46
1,46,127,104
1,46,127,54
1,53,127,0
1,53,127,20
1,53,127,18
1,53,127,32
1,52,127,66
1,51,127,48
1,51,127,18
1,51,127,0
1,51,127,48
1,50,127,16
1,50,127,22
1,47,127,0
1,48,127,0
1,47,127,0
1,46,127,0
1,50,127,0
1,52,127,14
1,53,127,0
1,53,127,84
1,53,127,18
1,48,127,32
1,52,127,0
1,53,127,0
1,53,127,50
1,53,127,22
1,48,127,0
1,52,127,22
1,53,127,24
1,53,127,16
1,53,127,32
1,48,127,14
1,52,127,0
1,53,127,28
1,53,127,20
1,53,127,34
1,48,127,18
1,52,127,0
1,53,127,0
1,53,127,82
1,53,127,26
1,48,127,32
1,52,127,0
1,53,127,0
1,53,127,46
1,53,127,16
1,48,127,0
1,52,127,20
1,53,127,26
1,53,127,16
1,53,127,32
1,48,127,22
1,52,127,0
1,53,127,24
1,53,127,18
1,53,127,34
1,53,127,14
1,52,127,0
1,50,127,0
1,50,127,52
1,50,127,84
1,50,127,0
1,53,127,188
1,55,127,38
1,55,127,66
1,55,127,100
1,53,127,0
1,50,127,0
1,48,127,0
1,48,127,52
1,48,127,84
1,48,127,12
1,48,127,30
1,48,127,100
1,50,127,0
1,52,127,34
1,53,127,0
1,53,127,88
1,53,127,16
1,48,127,32
1,52,127,0
1,53,127,0
1,53,127,48
1,53,127,20
1,48,127,0
1,52,127,16
1,53,127,22
1,53,127,20
1,53,127,34
1,48,127,16
1,52,127,0
1,53,127,22
1,53,127,20
1,53,127,32
1,48,127,16
1,52,127,0
1,53,127,0
1,53,127,104
1,46,127,0
1,45,127,38
1,43,127,24
1,43,127,16
1,47,127,0
1,48,127,22
1,52,127,0
1,55,127,20
1,45,127,14
1,45,127,54
1,50,127,0
1,46,127,26
1,46,127,48
1,46,127,98
1,46,127,52
1,53,127,0
1,53,127,20
1,53,127,16
1,53,127,38
1,52,127,68
1,51,127,56
1,51,127,22
1,51,127,0
1,51,127,52
1,50,127,18
1,50,127,24
1,47,127,0
1,48,127,0
1,47,127,0
1,46,127,0
1,50,127,0
1,52,127,22
1,53,127,0
1,53,127,96
1,46,127,0
1,46,127,34
1,43,127,22
1,43,127,20
1,47,127,0
1,48,127,22
1,52,127,0
1,55,127,22
1,45,127,26
1,45,127,54
1,50,127,0
1,46,127,22
1,46,127,50
1,46,127,104
1,46,127,50
1,53,127,0
1,53,127,80
1,53,127,132
1,53,127,24
1,48,127,20
1,46,127,0
1,46,127,152
1,46,127,136
1,46,127,52
1,53,127,0
1,53,127,126
1,53,127,112
1,53,127,34
1,46,127,0
1,46,127,104
1,46,127,120
1,46,127,52
1,53,127,0
1,53,127,20
1,53,127,20
1,53,127,36
1,52,127,36
1,51,127,50
1,51,127,18
1,51,127,0
1,51,127,54
1,50,127,24
1,50,127,16
1,47,127,0
1,48,127,14
1,47,127,0
1,46,127,0
1,53,127,0
2,70,118,8
2,53,90,0
2,69,82,216
2,67,106,64
2,69,118,66
2,70,118,0
2,51,82,0
2,69,98,0
2,67,106,0
2,69,118,64
2,72,118,576
2,65,86,356
2,67,106,80
2,65,110,0
2,50,82,0
2,67,94,380
2,69,110,178
2,69,110,0
2,47,90,0
2,67,110,380
2,65,106,0
2,36,70,92
2,48,82,0
2,64,110,22
2,60,94,0
2,65,114,0
2,47,102,0
2,62,94,0
2,64,94,26
2,46,98,0
2,67,114,0
2,36,102,0
2,70,110,0
2,67,90,0
2,38,102,120
2,40,102,66
2,65,86,0
2,60,98,0
2,69,110,0
2,41,118,0
2,65,106,54
2,69,94,96
2,74,86,0
2,67,106,0
2,41,78,0
2,71,110,0
2,67,106,22
2,71,110,0
2,65,94,190
2,64,102,0
2,62,110,0
2,62,90,0
2,65,102,0
2,41,86,0
2,70,94,8
2,65,94,0
2,62,86,0
2,70,82,0
2,74,94,0
2,60,82,0
2,72,86,0
2,65,90,0
2,69,90,0
2,41,78,0
2,70,118,0
2,36,66,0
2,69,78,176
2,67,102,82
2,69,90,0
2,41,86,0
2,65,98,0
2,72,74,0
2,60,94,0
2,65,86,0
2,60,70,0
2,72,94,0
2,69,74,16
2,71,102,28
2,41,82,0
2,62,90,0
2,67,94,0
2,74,82,0
2,62,86,32
2,65,94,0
2,64,78,160
2,62,86,78
2,62,74,26
2,41,78,0
2,65,78,0
2,70,78,0
2,62,74,0
2,70,74,0
2,65,74,0
2,62,70,0
2,65,78,0
2,70,74,0
2,62,86,0
2,70,94,0
2,65,90,0
2,69,98,0
2,65,102,0
2,72,94,0
2,41,66,0
2,60,94,54
2,69,102,0
2,65,94,0
2,72,78,364
2,77,110,0
2,81,82,18
2,84,110,16
2,38,98,0
2,65,98,180
2,69,86,192
2,74,98,0
2,69,102,102
2,62,82,188
2,65,94,82
2,69,90,206
2,38,90,20
2,62,94,50
2,67,94,192
2,70,86,194
2,74,94,0
2,67,90,130
2,70,86,20
2,74,90,192
2,36,90,0
2,65,90,16
2,69,94,192
2,72,98,192
2,67,90,178
2,69,94,190
2,67,90,0
2,65,94,160
2,36,86,0
2,70,78,0
2,64,82,48
2,67,106,192
2,72,110,192
2,70,98,22
2,72,102,162
2,69,114,16
2,72,98,0
2,67,114,0
2,72,98,0
2,69,102,0
2,41,90,0
2,65,102,0
2,60,106,0
2,69,106,16
2,65,106,0
2,72,110,0
2,60,118,22
2,65,114,0
2,69,110,0
2,71,102,24
2,62,102,0
2,67,102,0
2,41,90,0
2,74,90,32
2,71,62,0
2,67,66,0
2,74,110,20
2,71,114,0
2,67,114,0
2,62,58,284
2,65,118,96
2,64,90,160
2,62,86,0
2,70,106,0
2,65,98,0
2,41,94,0
2,74,90,0
2,65,54,80
2,74,98,62
2,70,98,0
2,62,90,66
2,70,110,100
2,65,94,0
2,62,90,86
2,60,106,0
2,65,110,0
2,69,106,0
2,41,94,0
2,60,102,16
2,69,110,34
2,65,98,0
2,72,110,0
2,41,82,108
2,36,98,0
2,38,102,188
2,40,102,0
2,41,102,0
2,69,106,0
2,65,106,0
2,60,106,0
2,41,98,22
2,53,94,94
2,65,110,40
2,60,110,0
2,69,102,0
2,70,98,18
2,46,90,0
2,62,106,0
2,70,90,22
2,65,90,0
2,62,94,0
2,45,90,0
2,71,106,0
2,67,102,0
2,62,106,0
2,43,98,0
2,43,82,68
2,55,98,16
2,62,98,56
2,71,90,0
2,67,98,0
2,64,110,0
2,72,94,0
2,67,106,0
2,48,98,0
2,72,106,22
2,67,106,0
2,64,106,0
2,48,90,0
2,70,122,192
2,46,94,0
2,69,106,0
2,45,98,0
2,57,110,190
2,61,110,192
2,64,110,182
2,62,106,0
2,65,106,0
2,69,102,0
2,38,106,0
2,38,102,46
2,50,102,0
2,65,106,56
2,69,102,0
2,74,82,0
2,65,106,0
2,62,106,0
2,46,114,0
2,70,106,0
2,70,86,0
2,62,94,0
2,65,82,0
2,67,82,0
2,70,94,0
2,62,78,0
2,70,90,0
2,65,78,0
2,58,110,0
2,62,90,0
2,74,90,0
2,70,62,0
2,65,78,0
2,65,94,0
2,74,94,0
2,70,86,0
2,41,86,0
2,53,90,86
2,65,86,96
2,64,90,98
2,65,90,80
2,60,82,164
2,41,90,100
2,65,94,18
2,64,90,0
2,65,94,0
2,70,118,0
2,51,82,0
2,69,98,0
2,67,106,0
2,69,118,62
2,72,118,578
2,65,86,356
2,67,106,82
2,65,110,0
2,50,82,0
2,67,94,382
2,69,110,180
2,69,110,0
2,47,90,0
2,67,110,374
2,65,106,0
2,36,70,92
2,48,82,0
2,64,110,14
2,60,94,0
2,65,114,0
2,47,102,0
2,62,94,0
2,64,94,0
2,46,98,0
2,67,114,0
2,36,102,0
2,70,110,0
2,67,90,0
2,38,102,118
2,40,102,62
2,69,110,0
2,41,118,0
2,65,86,14
2,60,98,0
2,65,106,48
2,69,94,82
2,74,86,0
2,71,110,0
2,67,106,0
2,41,78,0
2,67,106,22
2,71,110,0
2,65,94,202
2,64,102,0
2,62,110,0
2,62,90,0
2,65,102,0
2,41,86,0
2,70,94,10
2,65,94,0
2,62,86,0
2,70,82,0
2,74,94,0
2,60,82,0
2,72,86,0
2,65,90,0
2,69,90,0
2,41,78,0
2,70,118,0
2,36,66,0
2,69,78,176
2,67,102,80
2,69,90,0
2,41,86,0
2,65,98,0
2,72,74,0
2,60,94,0
2,69,74,0
2,65,86,0
2,60,70,0
2,72,94,0
2,74,82,14
2,67,94,0
2,41,82,0
2,71,102,12
2,62,90,0
2,62,86,18
2,65,94,0
2,64,78,164
2,62,86,82
2,65,78,26
2,62,74,0
2,41,78,0
2,70,78,0
2,62,74,0
2,70,74,0
2,65,74,0
2,62,70,0
2,65,78,0
2,70,74,0
2,62,86,0
2,70,94,0
2,65,90,0
2,69,98,0
2,65,102,0
2,72,94,0
2,41,66,0
2,60,94,46
2,69,102,0
2,65,94,0
2,72,78,370
2,77,110,0
2,81,82,16
2,84,110,18
2,38,98,0
2,65,98,184
2,69,86,192
2,74,98,0
2,69,102,100
2,62,82,190
2,65,94,84
2,69,90,204
2,38,90,22
2,62,94,48
2,67,94,192
2,70,86,194
2,74,94,0
2,67,90,130
2,70,86,22
2,74,90,190
2,36,90,0
2,65,90,16
2,69,98,192
2,72,94,194
2,67,94,180
2,69,98,188
2,67,94,0
2,65,94,162
2,36,86,0
2,70,78,0
2,64,82,48
2,67,106,194
2,72,110,190
2,70,98,20
2,72,102,166
2,69,114,28
2,72,98,0
2,67,114,0
2,72,98,0
2,69,102,0
2,41,90,0
2,65,102,0
2,60,106,0
2,69,106,22
2,65,106,0
2,72,110,0
2,60,118,16
2,65,114,0
2,69,110,0
2,71,106,24
2,62,106,0
2,67,106,0
2,41,90,0
2,74,90,34
2,71,62,0
2,67,66,0
2,71,114,20
2,67,114,0
2,74,110,0
2,62,58,284
2,65,118,100
2,64,90,160
2,62,86,22
2,41,94,0
2,74,90,0
2,65,98,0
2,70,106,0
2,65,54,86
2,74,98,64
2,70,98,0
2,62,90,48
2,70,110,96
2,65,94,0
2,62,90,84
2,60,106,22
2,41,94,0
2,65,110,0
2,69,106,0
2,60,102,34
2,69,110,30
2,65,98,0
2,72,110,0
2,41,82,110
2,36,98,0
2,38,102,184
2,40,102,0
2,41,102,0
2,69,106,0
2,65,106,0
2,60,106,0
2,41,98,18
2,53,94,94
2,65,110,40
2,60,110,0
2,69,102,0
2,46,90,22
2,70,98,0
2,62,106,0
2,70,90,24
2,65,90,0
2,62,94,0
2,45,90,0
2,71,106,0
2,67,102,0
2,62,106,0
2,43,98,0
2,43,82,64
2,55,98,18
2,62,98,46
2,71,90,0
2,67,98,0
2,64,110,0
2,72,94,0
2,67,106,0
2,48,98,0
2,72,106,14
2,67,106,0
2,64,106,0
2,48,90,0
2,70,122,198
2,46,94,0
2,69,106,0
2,45,98,0
2,57,110,196
2,61,110,192
2,64,110,184
2,62,106,0
2,65,106,0
2,69,102,0
2,38,106,0
2,38,102,52
2,50,102,0
2,65,106,54
2,69,102,0
2,74,82,0
2,65,106,0
2,62,106,0
2,46,114,0
2,70,106,0
2,70,86,0
2,62,94,0
2,65,82,0
2,67,82,0
2,70,94,0
2,62,78,0
2,70,90,0
2,65,78,0
2,58,110,0
2,62,90,0
2,74,90,0
2,70,62,0
2,65,78,0
2,65,94,0
2,74,94,0
2,70,86,0
2,41,86,0
2,53,90,86
2,65,86,100
2,64,90,94
2,65,90,84
2,60,82,164
2,41,90,96
2,65,94,18
2,64,90,0
2,65,94,0
2,70,118,0
2,51,82,0
2,69,98,0
2,67,106,0
2,69,118,62
2,72,118,578
2,65,86,356
2,67,106,78
2,65,110,0
2,50,82,0
2,67,94,386
2,69,110,182
2,69,110,0
2,47,90,0
2,67,110,380
2,65,106,0
2,36,70,92
2,48,82,0
2,64,110,22
2,60,94,0
2,65,114,0
2,47,102,0
2,62,94,0
2,64,94,0
2,46,98,0
2,67,114,0
2,36,102,0
2,70,110,0
2,67,90,0
2,38,102,120
2,40,102,64
2,60,102,0
2,65,102,0
2,69,102,0
2,41,114,0
2,41,114,380
2,53,94,92
2,65,110,50
2,60,110,0
2,69,102,0
2,62,106,0
2,70,98,0
2,46,106,0
2,70,90,24
2,65,90,0
2,62,94,0
2,45,90,0
2,71,106,0
2,43,98,0
2,62,106,0
2,67,102,0
2,43,82,68
2,55,98,14
2,62,98,56
2,71,90,0
2,67,98,0
2,64,110,0
2,72,94,0
2,67,106,0
2,48,98,0
2,67,106,28
2,64,106,0
2,48,90,0
2,72,106,0
2,46,94,186
2,70,122,0
2,45,98,0
2,69,106,0
2,57,110,186
2,61,110,188
2,64,110,182
2,62,106,0
2,65,106,0
2,69,102,0
2,38,106,0
2,38,102,50
2,50,102,0
2,74,82,54
2,65,106,0
2,69,102,0
2,65,106,0
2,62,106,0
2,46,114,0
2,70,106,0
2,70,86,0
2,62,94,0
2,65,82,0
2,67,82,0
2,70,94,0
2,62,78,0
2,70,90,0
2,65,78,0
2,58,110,0
2,62,90,0
2,74,90,0
2,70,62,0
2,65,78,0
2,65,94,0
2,74,94,0
2,70,86,0
2,41,94,0
2,72,98,0
2,65,94,0
2,69,90,0
2,69,66,14
2,60,70,194
2,41,98,24
2,69,102,0
2,72,102,0
2,65,98,0
2,60,74,0
2,60,94,52
2,46,110,0
2,65,106,0
2,62,106,0
2,70,86,0
2,62,94,0
2,65,82,0
2,67,82,0
2,70,94,0
2,62,78,0
2,70,90,0
2,65,78,0
2,58,110,0
2,62,90,0
2,62,70,0
2,65,94,16
2,70,86,20
2,74,94,10
2,65,102,0
2,69,90,0
2,72,90,0
2,41,94,0
2,72,102,0
2,69,94,18
2,65,90,0
2,41,82,64
2,53,110,192
2,69,106,22
2,65,106,0
2,60,86,0
2,41,66,12
2,60,86,34
2,65,106,40
2,62,106,0
2,46,102,0
2,70,86,0
2,62,94,0
2,65,82,0
2,67,82,0
2,70,94,0
2,62,78,0
2,70,90,0
2,65,78,0
2,58,86,0
2,62,90,0
2,74,90,0
2,70,62,0
2,65,78,0
2,65,94,0
2,74,94,0
2,70,86,0
2,41,86,0
2,53,90,88
2,65,86,96
2,64,90,98
2,65,90,84
2,60,82,164
2,41,90,100
2,65,94,18
2,64,90,0
2,65,94,0
