track,note,velocity,time
1,77,117,19200
1,77,0,172
1,78,105,240
1,78,0,236
1,78,105,4
1,78,0,236
1,78,105,4
1,78,0,236
1,76,105,4
1,76,0,316
1,78,105,4
1,78,0,316
1,78,105,4
1,78,0,316
1,76,105,4
1,76,0,116
1,74,105,4
1,74,0,116
1,74,105,4
1,74,0,116
1,74,105,4
1,74,0,116
1,74,105,4
1,74,0,476
1,74,105,4
1,74,0,236
1,76,105,4
1,76,0,236
1,76,105,4
1,76,0,476
1,78,105,324
1,78,0,316
1,78,105,4
1,78,0,316
1,78,105,4
1,78,0,236
1,76,105,4
1,76,0,236
1,76,105,4
1,76,0,236
1,76,105,4
1,76,0,236
1,76,105,4
1,76,0,236
1,74,105,4
1,74,0,236
1,74,105,4
1,74,0,476
1,74,105,4
1,74,0,236
1,71,105,4
1,71,0,236
1,69,105,4
1,69,0,476
1,69,105,244
1,69,0,236
1,78,105,4
1,78,0,476
1,78,105,4
1,78,0,236
1,76,105,4
1,76,0,236
1,76,105,4
1,76,0,236
1,74,105,4
1,74,0,236
1,74,105,4
1,74,0,116
1,74,105,4
1,74,0,116
1,74,105,4
1,74,0,116
1,74,105,4
1,74,0,116
1,74,105,4
1,74,0,476
1,71,105,244
1,71,0,236
1,69,105,4
1,69,0,476
1,78,105,484
1,78,0,236
1,78,105,4
1,78,0,236
1,76,105,4
1,76,0,476
1,76,105,4
1,76,0,236
1,74,105,4
1,74,0,236
1,76,105,4
1,76,0,236
1,74,105,4
1,74,0,236
1,74,105,4
1,74,0,236
1,74,105,4
1,74,0,236
1,74,105,4
1,74,0,236
1,74,105,4
1,74,0,476
1,71,105,4
1,71,0,236
1,78,105,484
1,78,0,236
1,78,105,4
1,78,0,236
1,78,105,4
1,78,0,236
1,76,105,4
1,76,0,236
1,76,105,4
1,76,0,236
1,76,105,4
1,76,0,236
1,76,105,4
1,76,0,236
1,74,105,4
1,74,0,236
1,74,105,4
1,74,0,476
1,74,105,244
1,74,0,236
1,74,105,4
1,74,0,236
1,76,105,4
1,76,0,236
1,78,105,484
1,78,0,236
1,78,105,4
1,78,0,236
1,78,105,4
1,78,0,236
1,76,105,4
1,76,0,236
1,76,105,4
1,76,0,236
1,74,105,4
1,74,0,236
1,76,105,244
1,76,0,476
1,74,105,4
1,74,0,236
1,74,105,4
1,74,0,476
1,74,105,1204
1,74,0,236
1,79,105,4
1,79,0,3836
1,79,105,4
1,79,0,236
1,78,105,4
1,78,0,236
1,74,105,4
1,74,0,236
1,79,105,4
1,79,0,236
1,78,105,4
1,78,0,236
1,74,105,4
1,74,0,236
1,79,105,4
1,79,0,236
1,78,105,4
1,78,0,236
1,81,105,3844
1,78,105,0
1,78,0,236
1,81,0,4
1,81,105,0
1,78,105,0
1,78,0,236
1,81,0,4
1,81,105,0
1,78,105,0
1,78,0,236
1,81,0,4
1,81,105,0
1,78,105,0
1,78,0,236
1,81,0,4
1,76,105,0
1,86,105,0
1,74,105,0
1,74,0,236
1,76,0,0
1,86,0,4
1,76,105,0
1,85,105,0
1,73,105,0
1,73,0,476
1,85,0,0
1,76,0,0
1,74,105,4
1,83,105,0
1,71,105,0
1,74,0,236
1,74,105,4
1,74,0,476
1,71,0,0
1,83,0,0
1,74,105,484
1,74,0,236
1,76,105,4
1,76,0,716
1,81,105,4
1,78,105,0
1,78,0,236
1,81,0,4
1,81,105,0
1,78,105,0
1,78,0,236
1,81,0,4
1,81,105,0
1,78,105,0
1,78,0,236
1,81,0,4
1,81,105,0
1,78,105,0
1,78,0,236
1,81,0,4
1,76,105,0
1,86,105,0
1,74,105,0
1,74,0,236
1,76,0,0
1,86,0,4
1,76,105,0
1,85,105,0
1,73,105,0
1,73,0,476
1,85,0,0
1,76,0,0
1,74,105,4
1,83,105,0
1,71,105,0
1,71,0,236
1,74,0,0
1,74,105,4
1,71,105,0
1,71,0,476
1,74,0,0
1,83,0,0
1,74,105,484
1,74,0,236
1,74,105,4
1,74,0,236
1,76,105,4
1,76,0,480
1,81,105,0
1,78,105,0
1,78,0,236
1,81,0,4
1,81,105,0
1,78,105,0
1,78,0,236
1,81,0,4
1,81,105,0
1,78,105,0
1,78,0,236
1,81,0,4
1,81,105,0
1,78,105,0
1,78,0,236
1,81,0,4
1,76,105,0
1,74,105,0
1,86,105,0
1,74,0,236
1,86,0,4
1,76,0,0
1,76,105,0
1,73,105,0
1,85,105,0
1,85,0,476
1,73,0,0
1,76,0,0
1,74,105,4
1,71,105,0
1,83,105,0
1,74,0,240
1,74,105,0
1,74,0,476
1,83,0,4
1,71,0,0
1,74,105,240
1,74,0,236
1,74,105,4
1,74,0,236
1,76,105,4
1,76,0,716
1,81,105,4
1,78,105,0
1,78,0,236
1,81,0,4
1,81,105,0
1,78,105,0
1,78,0,236
1,81,0,4
1,81,105,0
1,78,105,0
1,78,0,236
1,81,0,4
1,81,105,0
1,78,105,0
1,78,0,236
1,81,0,4
1,76,105,0
1,86,105,0
1,74,105,0
1,74,0,236
1,76,0,0
1,86,0,4
1,76,105,0
1,85,105,0
1,73,105,0
1,73,0,476
1,85,0,0
1,76,0,0
1,74,105,4
1,83,105,0
1,71,105,0
1,71,0,236
1,74,0,0
1,74,105,4
1,71,105,0
1,71,0,476
1,74,0,0
1,83,0,0
1,74,105,964
1,74,0,116
1,76,105,4
1,76,0,356
1,78,105,244
1,78,0,476
1,78,105,4
1,78,0,236
1,76,105,4
1,76,0,476
1,76,105,4
1,76,0,236
1,76,105,4
1,76,0,236
1,76,105,4
1,76,0,236
1,74,105,4
1,74,0,236
1,74,105,4
1,74,0,476
1,74,105,484
1,74,0,236
1,71,105,4
1,71,0,236
1,69,105,4
1,69,0,236
1,78,105,4
1,78,0,236
1,78,105,4
1,78,0,236
1,76,105,4
1,76,0,716
1,76,105,4
1,76,0,236
1,76,105,4
1,76,0,236
1,76,105,4
1,76,0,236
1,74,105,4
1,74,0,116
1,74,105,4
1,74,0,116
1,74,105,4
1,74,0,236
1,74,105,4
1,74,0,236
1,74,105,4
1,74,0,236
1,74,105,4
1,74,0,476
1,69,105,484
1,69,0,236
1,78,105,4
1,78,0,236
1,78,105,4
1,78,0,236
1,78,105,4
1,78,0,236
1,76,105,4
1,76,0,236
1,76,105,244
1,76,0,116
1,76,105,4
1,76,0,116
1,76,105,4
1,76,0,236
1,74,105,4
1,74,0,236
1,74,105,4
1,74,0,476
1,74,105,484
1,74,0,116
1,76,105,4
1,76,0,356
1,78,105,244
1,78,0,476
1,78,105,4
1,78,0,236
1,78,105,4
1,78,0,236
1,76,105,4
1,76,0,236
1,76,105,4
1,76,0,236
1,74,105,4
1,74,0,236
1,76,105,4
1,76,0,236
1,74,105,4
1,74,0,476
1,74,105,4
1,74,0,716
1,74,105,244
1,74,0,236
1,79,105,4
1,83,105,1920
1,79,0,1916
1,83,0,4
1,83,105,0
1,79,105,0
1,79,0,236
1,83,0,0
1,83,105,4
1,78,105,0
1,78,0,236
1,83,0,0
1,83,105,4
1,74,105,0
1,74,0,236
1,83,0,0
1,83,105,4
1,79,105,0
1,79,0,236
1,83,0,0
1,83,105,4
1,78,105,0
1,78,0,236
1,83,0,0
1,83,105,4
1,74,105,0
1,74,0,236
1,83,0,0
1,83,105,4
1,79,105,0
1,79,0,236
1,83,0,0
1,81,105,4
1,78,105,0
1,78,0,236
1,81,0,0
1,74,105,13924
1,74,0,236
1,74,105,4
1,74,0,236
1,74,105,4
1,74,0,236
1,74,105,4
1,74,0,236
1,74,105,4
1,74,0,236
1,71,105,4
1,71,0,236
1,74,105,4
1,74,0,476
1,74,105,4
1,74,0,236
1,71,105,4
1,71,0,236
1,73,105,4
1,73,0,476
1,71,105,4
1,71,0,236
1,69,105,4
1,69,0,236
1,72,105,4
1,72,0,476
1,72,105,244
1,72,0,236
1,72,105,4
1,72,0,236
1,72,105,4
1,72,0,236
1,72,105,4
1,72,0,236
1,72,105,4
1,72,0,716
1,71,105,4
1,71,0,236
1,71,105,4
1,71,0,716
1,69,105,4
1,69,0,236
1,67,105,4
1,67,0,236
1,69,105,4
1,69,0,476
1,62,105,4
1,62,0,236
1,62,105,4
1,62,0,1196
1,74,105,6004
1,74,0,236
1,74,105,4
1,74,0,236
1,74,105,4
1,74,0,236
1,74,105,4
1,74,0,236
1,71,105,4
1,71,0,236
1,74,105,4
1,74,0,236
1,71,105,4
1,71,0,236
1,74,105,4
1,74,0,476
1,71,105,4
1,71,0,236
1,73,105,4
1,73,0,476
1,71,105,4
1,71,0,476
1,69,105,4
1,69,0,236
1,72,105,4
1,72,0,476
1,72,105,4
1,72,0,236
1,72,105,4
1,72,0,476
1,72,105,4
1,72,0,476
1,72,105,4
1,72,0,476
1,71,105,4
1,71,0,476
1,71,105,4
1,71,0,716
1,69,105,4
1,69,0,236
1,67,105,4
1,67,0,236
1,69,105,4
1,69,0,476
1,62,105,4
1,62,0,236
1,62,105,4
1,62,0,1196
1,74,105,18964
1,74,0,236
1,79,105,4
1,79,0,3836
1,79,105,4
1,79,0,236
1,78,105,4
1,78,0,236
1,74,105,4
1,74,0,236
1,79,105,4
1,79,0,236
1,78,105,4
1,78,0,236
1,74,105,4
1,74,0,236
1,79,105,4
1,79,0,236
1,78,105,4
1,78,0,236
1,81,105,4
1,78,105,0
1,78,0,236
1,81,0,4
1,81,105,0
1,78,105,0
1,78,0,236
1,81,0,4
1,81,105,0
1,78,105,0
1,78,0,236
1,81,0,4
1,81,105,0
1,78,105,0
1,78,0,236
1,81,0,4
1,76,105,0
1,86,105,0
1,74,105,0
1,74,0,236
1,76,0,0
1,86,0,4
1,76,105,0
1,85,105,0
1,73,105,0
1,73,0,476
1,85,0,0
1,76,0,0
1,74,105,4
1,83,105,0
1,71,105,0
1,74,0,236
1,74,105,4
1,74,0,476
1,71,0,0
1,83,0,0
1,74,105,484
1,74,0,236
1,76,105,4
1,76,0,716
1,81,105,4
1,78,105,0
1,78,0,236
1,81,0,4
1,81,105,0
1,78,105,0
1,78,0,236
1,81,0,4
1,81,105,0
1,78,105,0
1,78,0,236
1,81,0,4
1,81,105,0
1,78,105,0
1,78,0,236
1,81,0,4
1,76,105,0
1,86,105,0
1,74,105,0
1,74,0,236
1,76,0,0
1,86,0,4
1,76,105,0
1,85,105,0
1,73,105,0
1,73,0,476
1,85,0,0
1,76,0,0
1,83,105,4
1,71,105,0
1,74,105,0
1,74,0,236
1,71,0,0
1,74,105,4
1,71,105,0
1,71,0,476
1,74,0,0
1,83,0,0
1,74,105,724
1,74,0,236
1,74,105,4
1,74,0,236
1,76,105,4
1,76,0,240
1,81,105,0
1,78,105,0
1,78,0,236
1,81,0,4
1,81,105,0
1,78,105,0
1,78,0,236
1,81,0,4
1,81,105,0
1,78,105,0
1,78,0,236
1,81,0,4
1,81,105,0
1,78,105,0
1,78,0,236
1,81,0,4
1,76,105,0
1,86,105,0
1,74,105,0
1,74,0,236
1,76,0,0
1,86,0,4
1,76,105,0
1,85,105,0
1,73,105,0
1,73,0,476
1,85,0,0
1,76,0,0
1,74,105,4
1,83,105,0
1,71,105,0
1,74,0,236
1,74,105,4
1,74,0,476
1,71,0,4
1,83,0,0
1,79,105,240
1,79,0,236
1,79,105,4
1,79,0,236
1,78,105,4
1,78,0,716
1,81,105,4
1,78,105,0
1,78,0,236
1,81,0,4
1,81,105,0
1,78,105,0
1,78,0,236
1,81,0,4
1,81,105,0
1,78,105,0
1,78,0,236
1,81,0,4
1,81,105,0
1,78,105,0
1,78,0,236
1,81,0,4
1,76,105,0
1,86,105,0
1,74,105,0
1,74,0,236
1,76,0,0
1,86,0,4
1,76,105,0
1,85,105,0
1,73,105,0
1,73,0,476
1,85,0,0
1,76,0,0
1,74,105,4
1,83,105,0
1,71,105,0
1,71,0,240
1,83,0,0
1,74,0,0
1,78,105,3840
1,78,0,236
1,78,105,4
1,78,0,236
1,78,105,4
1,78,0,236
1,78,105,4
1,78,0,236
1,76,105,4
1,76,0,316
1,76,105,4
1,76,0,316
1,76,105,4
1,76,0,316
1,76,105,4
1,76,0,116
1,74,105,4
1,74,0,116
1,74,105,4
1,74,0,236
1,74,105,4
1,74,0,236
1,74,105,4
1,74,0,236
1,74,105,4
1,74,0,476
1,78,105,964
1,78,0,116
1,78,105,4
1,78,0,116
1,78,105,4
1,78,0,236
1,78,105,4
1,78,0,236
1,76,105,4
1,76,0,236
1,76,105,4
1,76,0,116
1,76,105,4
1,76,0,116
1,76,105,4
1,76,0,116
1,76,105,4
1,76,0,116
1,76,105,4
1,76,0,236
1,74,105,4
1,74,0,236
1,74,105,4
1,74,0,476
1,74,105,4
1,74,0,240
1,78,105,960
1,78,0,236
1,78,105,4
1,78,0,236
1,78,105,4
1,78,0,236
1,76,105,4
1,76,0,236
1,76,105,4
1,76,0,476
1,76,105,4
1,76,0,236
1,76,105,4
1,76,0,116
1,74,105,4
1,74,0,116
1,74,105,4
1,74,0,236
1,74,105,4
1,74,0,116
1,76,105,4
1,76,0,356
1,78,105,1204
1,78,0,116
1,78,105,4
1,78,0,116
1,78,105,4
1,78,0,116
1,78,105,4
1,78,0,116
1,78,105,4
1,78,0,116
1,78,105,4
1,78,0,116
1,78,105,4
1,78,0,116
1,76,105,4
1,76,0,356
1,76,105,124
1,76,0,116
1,76,105,4
1,76,0,116
1,76,105,4
1,76,0,116
1,74,105,4
1,74,0,356
1,74,105,4
1,74,0,116
1,74,105,4
1,74,0,476
1,74,105,4
1,74,0,240
1,81,105,720
1,78,105,0
1,78,0,236
1,81,0,4
1,81,105,0
1,78,105,0
1,78,0,236
1,81,0,4
1,81,105,0
1,78,105,0
1,78,0,236
1,81,0,4
1,81,105,0
1,78,105,0
1,78,0,236
1,81,0,4
1,76,105,0
1,86,105,0
1,74,105,0
1,74,0,236
1,76,0,0
1,86,0,4
1,76,105,0
1,85,105,0
1,73,105,0
1,73,0,476
1,85,0,0
1,76,0,0
1,74,105,4
1,83,105,0
1,71,105,0
1,74,0,236
1,74,105,4
1,74,0,476
1,83,0,0
1,71,0,4
1,74,105,240
1,74,0,236
1,79,105,4
1,79,0,476
1,78,105,4
1,78,0,476
1,81,105,4
1,78,105,0
1,78,0,236
1,81,0,4
1,81,105,0
1,78,105,0
1,78,0,236
1,81,0,4
1,81,105,0
1,78,105,0
1,78,0,236
1,81,0,4
1,81,105,0
1,78,105,0
1,78,0,236
1,81,0,4
1,76,105,0
1,86,105,0
1,74,105,0
1,74,0,236
1,76,0,0
1,86,0,4
1,76,105,0
1,85,105,0
1,73,105,0
1,73,0,476
1,85,0,0
1,76,0,0
1,74,105,4
1,83,105,0
1,71,105,0
1,74,0,236
1,74,105,4
1,74,0,476
1,83,0,0
1,71,0,4
1,74,105,240
1,74,0,236
1,74,105,4
1,74,0,236
1,76,105,4
1,76,0,716
1,81,105,4
1,78,105,0
1,78,0,236
1,81,0,4
1,81,105,0
1,78,105,0
1,78,0,236
1,81,0,4
1,81,105,0
1,78,105,0
1,78,0,236
1,81,0,4
1,81,105,0
1,78,105,0
1,78,0,236
1,81,0,4
1,76,105,0
1,86,105,0
1,74,105,0
1,74,0,236
1,76,0,0
1,86,0,4
1,85,105,0
1,76,105,0
1,76,0,476
1,85,0,0
1,74,105,4
1,83,105,0
1,71,105,0
1,74,0,236
1,74,105,4
1,74,0,476
1,83,0,0
1,71,0,4
1,74,105,240
1,74,0,236
1,79,105,4
1,79,0,476
1,78,105,4
1,78,0,476
1,81,105,4
1,78,105,0
1,78,0,236
1,81,0,4
1,81,105,0
1,78,105,0
1,78,0,236
1,81,0,4
1,81,105,0
1,78,105,0
1,78,0,236
1,81,0,4
1,81,105,0
1,78,105,0
1,78,0,236
1,81,0,4
1,86,105,0
1,76,105,0
1,76,0,236
1,86,0,4
1,85,105,0
1,76,105,0
1,76,0,476
1,85,0,0
1,83,105,4
1,74,105,0
1,74,0,236
1,74,105,4
1,74,0,476
1,83,0,0
1,74,127,4324
1,74,0,60
1,74,127,0
1,74,0,60
