track,note,velocity,time
4,27,94,3836
4,39,88,384
4,32,75,1152
4,37,102,4
4,36,104,64
4,37,104,12
4,27,103,16
4,27,101,28
4,27,101,48
4,27,101,32
4,27,101,44
4,27,99,48
4,27,99,52
4,27,99,28
4,30,99,40
4,32,99,8
4,32,99,48
4,32,99,52
4,32,103,60
4,32,103,56
4,32,105,56
4,32,105,60
4,39,105,32
4,32,105,28
4,39,105,20
4,39,105,116
4,32,71,24
4,39,105,76
4,34,105,32
4,32,105,48
4,30,109,88
4,30,99,4
4,32,107,8
4,30,92,4
4,30,89,24
4,32,107,28
4,39,105,32
4,39,96,28
4,34,105,28
4,39,105,8
4,39,105,28
4,39,100,24
4,46,93,0
4,46,91,28
4,41,105,28
4,46,105,36
4,46,105,76
4,44,79,56
4,46,94,4
4,39,105,28
4,34,105,28
4,39,105,12
4,39,105,76
4,34,71,24
4,39,97,12
4,34,105,32
4,29,98,0
4,34,102,20
4,32,100,20
4,34,108,4
4,32,96,8
4,34,104,16
4,39,105,4
4,34,105,32
4,39,105,28
4,39,105,136
4,34,105,80
4,29,105,8
4,34,105,36
4,34,105,84
4,29,105,0
4,34,105,96
4,37,105,4
4,39,104,92
4,39,100,40
4,39,98,48
4,39,103,52
4,39,103,56
4,39,100,64
4,39,101,60
4,37,105,20
4,37,98,36
4,37,98,56
4,37,98,56
4,37,98,64
4,37,100,68
4,37,100,68
4,39,104,36
4,39,100,36
4,39,98,48
4,39,103,52
4,39,103,56
4,39,100,64
4,39,101,60
4,37,105,20
4,37,98,36
4,37,98,56
4,37,98,56
4,37,98,64
4,37,100,68
4,37,100,68
4,39,105,40
4,27,103,96
4,27,101,28
4,27,101,48
4,27,101,32
4,27,101,44
4,27,99,48
4,27,99,52
4,27,99,28
4,30,99,4
4,32,99,8
4,32,99,48
4,32,99,52
4,32,103,60
4,32,103,56
4,32,105,56
4,32,105,60
4,39,105,32
4,32,105,28
4,39,105,20
4,39,105,116
4,32,71,24
4,39,105,76
4,34,105,32
4,32,105,48
4,30,109,76
4,30,99,4
4,32,107,8
4,30,92,4
4,30,89,24
4,32,107,28
4,39,105,32
4,39,96,28
4,34,105,28
4,39,105,8
4,39,105,28
4,39,100,24
4,46,93,0
4,46,91,60
4,41,105,304
4,46,105,36
4,46,105,76
4,44,79,52
4,46,94,12
4,39,105,4
4,34,105,28
4,39,105,12
4,39,105,76
4,34,71,24
4,39,97,12
4,34,105,32
4,29,98,0
4,34,102,20
4,32,100,20
4,34,108,4
4,32,96,8
4,34,104,16
4,39,105,4
4,34,105,32
4,39,105,28
4,39,105,136
4,34,105,80
4,29,105,8
4,34,105,36
4,34,105,84
4,29,105,0
4,34,105,96
4,37,105,4
4,39,104,92
4,39,100,40
4,39,98,48
4,39,103,52
4,39,103,56
4,39,100,64
4,39,101,60
4,37,105,20
4,37,98,36
4,37,98,56
4,37,98,56
4,37,98,64
4,37,100,68
4,37,100,68
4,39,104,36
4,39,100,36
4,39,98,48
4,39,103,52
4,39,103,56
4,39,100,64
4,39,101,60
4,37,105,20
4,37,98,36
4,37,98,56
4,37,98,56
4,37,98,64
4,37,100,68
4,37,100,68
4,39,105,40
4,37,102,4
4,36,104,64
4,37,104,12
4,27,103,4
4,27,101,28
4,27,101,48
4,27,101,32
4,27,101,44
4,27,99,48
4,27,99,52
4,27,99,28
4,30,99,40
4,32,99,8
4,32,99,48
4,32,99,52
4,32,103,60
4,32,103,56
4,32,105,56
4,32,105,60
4,39,105,32
4,39,105,160
4,39,105,132
4,39,105,72
4,39,105,56
4,39,110,36
4,35,110,4
4,47,99,384
4,35,105,176
4,35,105,108
4,35,105,72
4,47,95,192
4,35,105,0
4,34,105,68
4,46,97,380
4,34,105,164
4,34,105,88
4,46,92,384
4,34,105,12
4,39,104,44
4,34,99,0
4,39,92,20
4,41,99,192
4,39,99,168
4,39,95,112
4,37,99,36
4,39,88,72
4,39,86,116
4,39,86,168
4,42,101,192
4,42,95,100
4,42,99,128
4,39,87,16
4,42,95,192
4,42,92,120
4,46,97,24
4,42,90,192
4,42,93,136
4,46,99,4
4,44,89,12
4,42,97,4
4,39,93,0
4,39,99,72
4,32,97,3364
4,39,105,4
4,32,105,28
4,39,105,20
4,39,105,116
4,32,71,24
4,39,105,76
4,46,105,32
4,44,100,28
4,42,97,16
4,42,94,4
4,44,92,8
4,42,87,4
4,42,84,24
4,44,97,0
4,39,105,20
4,39,96,28
4,34,105,28
4,39,105,8
4,39,105,28
4,39,100,24
4,46,93,0
4,46,91,60
4,41,105,304
4,46,105,36
4,46,105,76
4,44,79,52
4,46,94,12
4,39,105,4
4,34,105,28
4,39,105,12
4,39,105,76
4,34,71,24
4,39,97,12
4,34,105,32
4,29,98,0
4,34,102,20
4,32,100,20
4,34,108,4
4,32,96,8
4,34,104,16
4,39,105,4
4,34,105,32
4,39,105,28
4,39,105,136
4,37,105,76
4,32,105,8
4,37,105,36
4,37,105,84
4,32,105,0
4,37,105,96
4,40,105,4
4,39,104,96
4,39,100,40
4,39,98,48
4,39,103,52
4,39,103,56
4,39,100,64
4,39,101,60
4,37,105,20
4,37,98,36
4,37,98,56
4,37,98,56
4,37,98,64
4,37,100,68
4,37,100,68
4,39,104,36
4,39,100,36
4,39,98,48
4,39,103,52
4,39,103,56
4,39,100,64
4,39,101,60
4,37,105,20
4,37,98,36
4,37,98,56
4,37,98,56
4,37,98,64
4,37,100,68
4,37,100,68
4,39,104,36
4,32,86,4
4,44,92,16
4,44,97,64
4,27,103,16
4,27,101,40
4,27,101,32
4,27,101,44
4,27,99,48
4,27,99,52
4,27,99,28
4,32,99,36
4,32,99,32
4,32,99,52
4,32,103,60
4,32,103,56
4,32,105,56
4,32,105,60
4,27,103,28
4,27,101,40
4,27,101,32
4,27,101,44
4,27,99,48
4,27,99,52
4,27,99,28
4,32,99,36
4,32,99,32
4,32,99,52
4,32,103,60
4,32,103,56
4,32,105,56
4,32,105,60
4,27,103,28
4,27,101,40
4,27,101,32
4,27,101,44
4,27,99,48
4,27,99,52
4,27,99,28
4,32,99,36
4,32,99,32
4,32,99,52
4,32,103,60
4,32,103,56
4,32,105,0
4,32,105,60
4,27,103,28
4,27,101,40
4,27,101,24
4,27,101,8
4,27,99,0
4,27,99,52
4,27,99,28
4,32,99,36
4,32,99,24
4,32,99,16
4,32,103,0
4,32,103,56
4,32,105,56
4,32,105,56
4,27,103,28
4,27,101,16
4,27,101,0
4,27,101,44
4,27,99,48
4,27,99,52
4,27,99,28
4,32,99,28
4,32,99,0
4,32,99,52
4,32,103,60
4,32,103,56
4,32,105,48
5,75,93,3832
5,63,123,4
5,73,87,0
5,61,117,4
5,72,78,0
5,60,108,4
5,71,59,16
5,59,89,4
5,63,123,88
5,61,117,764
5,56,98,4
5,60,108,0
5,59,119,20
5,39,83,104
5,51,123,0
5,66,117,384
5,70,123,0
5,75,123,0
5,66,95,60
5,70,107,0
5,75,107,0
5,46,102,60
5,61,99,384
5,65,123,0
5,68,111,0
5,70,123,0
5,61,79,64
5,65,91,0
5,68,77,0
5,70,82,0
5,39,73,84
5,51,113,0
5,66,107,384
5,70,113,0
5,75,113,0
5,66,85,60
5,70,97,0
5,75,97,0
5,46,92,60
5,61,89,384
5,65,113,0
5,68,101,0
5,70,113,0
5,61,69,64
5,65,81,0
5,68,67,0
5,70,72,0
5,39,73,88
5,51,113,0
5,66,107,384
5,70,113,0
5,75,113,0
5,66,85,60
5,70,97,0
5,75,97,0
5,46,92,60
5,61,89,384
5,65,113,0
5,68,101,0
5,70,113,0
5,61,69,64
5,65,81,0
5,68,67,0
5,70,72,0
5,39,73,84
5,51,113,0
5,66,107,384
5,70,113,0
5,75,113,0
5,46,92,48
5,61,89,384
5,65,113,0
5,68,101,0
5,70,113,0
5,51,112,0
5,58,112,4
5,58,94,4
5,63,95,4
5,66,113,0
5,56,113,4
5,49,113,4
5,56,95,36
5,61,99,4
5,65,112,4
5,51,112,4
5,58,112,0
5,58,94,8
5,63,95,4
5,66,113,0
5,56,113,4
5,49,113,4
5,56,95,32
5,61,99,12
5,65,112,0
5,51,105,4
5,63,100,0
5,67,115,0
5,70,105,0
5,61,85,60
5,63,123,1540
5,61,117,764
5,56,98,4
5,60,108,0
5,59,119,20
5,39,83,104
5,51,123,0
5,66,117,384
5,70,123,0
5,75,123,0
5,66,95,60
5,70,107,0
5,75,107,0
5,46,102,60
5,61,99,384
5,65,123,0
5,68,111,0
5,70,123,0
5,61,79,64
5,65,91,0
5,68,77,0
5,70,82,0
5,39,73,84
5,51,113,0
5,66,107,384
5,70,113,0
5,75,113,0
5,66,85,60
5,70,97,0
5,75,97,0
5,46,92,60
5,61,89,384
5,65,113,0
5,68,101,0
5,70,113,0
5,61,69,64
5,65,81,0
5,68,67,0
5,70,72,0
5,39,73,88
5,51,113,0
5,66,107,384
5,70,113,0
5,75,113,0
5,66,85,60
5,70,97,0
5,75,97,0
5,46,92,60
5,61,89,384
5,65,113,0
5,68,101,0
5,70,113,0
5,61,69,64
5,65,81,0
5,68,67,0
5,70,72,0
5,39,73,84
5,51,113,0
5,66,107,384
5,70,113,0
5,75,113,0
5,46,92,48
5,61,89,384
5,65,113,0
5,68,101,0
5,70,113,0
5,51,112,0
5,58,112,4
5,58,94,4
5,63,95,4
5,66,113,0
5,56,113,4
5,49,113,4
5,56,95,36
5,61,99,4
5,65,112,4
5,51,112,4
5,58,112,0
5,58,94,8
5,63,95,4
5,66,113,0
5,56,113,4
5,49,113,4
5,56,95,32
5,61,99,12
5,65,112,0
5,51,105,4
5,63,99,0
5,67,115,0
5,70,105,0
5,61,85,60
5,51,78,4612
5,67,95,0
5,70,96,0
5,51,75,72
5,63,69,0
5,67,95,0
5,70,92,0
5,75,98,0
5,59,99,4
5,63,91,12
5,66,91,0
5,71,90,0
5,63,89,12
5,66,94,0
5,71,99,0
5,58,87,12
5,66,94,8
5,63,91,4
5,71,99,0
5,65,94,12
5,62,82,4
5,70,93,0
5,51,69,8
5,63,82,8
5,63,93,12
5,66,88,0
5,70,90,0
5,63,94,8
5,66,89,0
5,70,91,0
5,49,80,4
5,61,88,8
5,61,93,16
5,65,92,0
5,68,93,0
5,65,88,8
5,61,90,4
5,68,91,0
5,54,87,8
5,70,90,12
5,73,90,0
5,66,93,0
5,70,91,8
5,73,93,0
5,66,94,4
5,58,91,8
5,68,90,12
5,65,85,0
5,74,94,0
5,58,115,4
5,68,91,0
5,65,91,4
5,51,75,8
5,63,89,0
5,66,90,0
5,70,90,0
5,75,93,0
5,58,94,4
5,63,95,0
5,66,98,8
5,63,102,4
5,66,102,0
5,63,102,8
5,66,102,0
5,65,102,16
5,68,102,0
5,66,102,12
5,70,102,0
5,70,102,4
5,75,102,0
5,58,95,128
5,61,99,4
5,65,97,0
5,61,102,4
5,65,102,0
5,61,102,8
5,65,102,0
5,63,102,12
5,66,102,0
5,65,102,8
5,68,102,0
5,68,102,8
5,73,102,0
5,58,94,12
5,63,95,0
5,66,98,0
5,63,102,4
5,66,102,0
5,63,102,8
5,66,102,0
5,65,102,8
5,68,102,0
5,66,102,8
5,70,102,0
5,70,102,12
5,75,102,0
5,58,95,128
5,61,99,4
5,65,97,0
5,61,102,4
5,65,102,0
5,61,102,8
5,65,102,0
5,63,102,16
5,66,102,0
5,65,102,8
5,68,102,0
5,68,102,12
5,73,102,0
5,58,94,16
5,63,95,0
5,66,98,0
5,63,102,4
5,66,102,0
5,63,102,8
5,66,102,0
5,65,102,12
5,68,102,0
5,66,102,4
5,70,102,0
5,70,102,8
5,75,102,0
5,58,95,128
5,61,99,4
5,65,97,0
5,61,102,4
5,65,102,0
5,61,102,4
5,65,102,16
5,63,102,12
5,66,102,0
5,65,102,4
5,68,102,12
5,68,102,12
5,73,102,0
5,58,94,8
5,63,95,4
5,66,98,0
5,63,102,4
5,66,102,0
5,63,102,12
5,66,102,0
5,65,102,12
5,68,102,0
5,66,102,12
5,70,102,0
5,70,102,8
5,75,102,0
5,56,95,128
5,61,99,4
5,65,97,4
5,61,102,4
5,65,102,0
5,61,102,8
5,65,102,0
5,63,102,8
5,66,102,0
5,65,102,4
5,68,102,0
5,68,102,8
5,73,102,0
5,58,94,12
5,63,95,0
5,66,98,4
5,63,102,4
5,66,102,0
5,63,102,8
5,66,102,0
5,65,102,8
5,68,102,0
5,66,102,8
5,70,102,0
5,70,102,4
5,75,102,0
5,56,95,132
5,61,99,0
5,65,97,8
5,61,102,4
5,65,102,0
5,61,102,12
5,65,102,0
5,63,102,12
5,66,102,0
5,65,102,12
5,68,102,0
5,68,102,16
5,73,102,0
5,58,94,12
5,63,95,0
5,66,98,4
5,63,102,4
5,66,102,0
5,63,102,12
5,66,102,0
5,65,102,12
5,68,102,0
5,66,102,12
5,70,102,0
5,70,102,8
5,75,102,0
5,56,95,132
5,61,99,4
5,65,97,0
5,61,102,4
5,65,102,0
5,61,102,12
5,65,102,0
5,63,102,8
5,66,102,0
5,65,102,12
5,68,102,0
5,68,102,12
5,73,102,0
5,63,127,12
5,61,122,768
5,56,103,0
5,60,113,4
5,59,124,20
5,63,127,160
5,61,122,768
5,56,124,4
5,60,124,0
5,59,124,24
5,63,127,160
5,61,122,768
5,56,126,0
5,60,126,4
5,59,124,16
5,63,127,160
5,61,122,768
5,56,124,4
5,60,124,0
5,59,124,24
5,39,126,132
5,55,126,0
5,63,127,0
5,58,126,8
5,61,122,28
5,56,124,4
5,60,124,0
5,59,124,24
5,39,126,140
5,55,126,0
5,63,127,0
5,58,126,8
5,61,122,28
5,56,124,4
5,60,124,0
5,59,124,24
6,70,123,12824
6,78,109,92
6,77,125,4
6,75,123,4
6,75,112,112
6,77,115,0
6,78,118,116
6,77,118,128
6,75,125,24
6,77,115,172
6,70,115,300
6,78,104,36
6,77,116,112
6,75,126,104
6,75,114,140
6,77,116,120
6,78,109,0
6,77,115,152
6,75,108,136
6,77,118,124
6,70,104,176
6,78,118,192
6,77,115,108
6,75,119,4
6,75,118,144
6,77,115,124
6,78,109,108
6,77,115,140
6,75,104,120
6,77,115,12
6,78,127,3148
6,78,125,44
6,77,125,32
6,78,116,96
6,77,115,180
6,75,108,12
6,78,119,1664
6,78,114,12
6,77,119,24
6,78,127,60
6,77,121,20
6,75,127,48
6,70,109,736
6,72,105,572
6,68,108,16
6,63,94,492
6,65,105,100
6,63,101,140
6,70,123,6072
6,78,109,92
6,77,125,4
6,75,123,4
6,75,109,96
6,77,115,116
6,78,111,8
6,77,115,108
6,75,104,4
6,77,118,116
6,77,115,20
6,70,115,528
6,78,104,36
6,77,116,112
6,75,127,104
6,75,124,44
6,75,114,148
6,77,116,120
6,78,109,0
6,77,115,152
6,75,108,136
6,77,118,124
6,70,104,176
6,78,118,192
6,77,115,108
6,75,119,4
6,75,117,24
6,75,118,176
6,77,115,124
6,78,109,108
6,77,115,140
6,75,104,120
6,77,115,12
6,78,127,3148
6,78,125,44
6,77,125,32
6,78,116,96
6,77,115,180
6,75,108,12
6,78,119,1664
6,78,114,12
6,77,119,24
6,78,127,60
6,77,121,20
6,75,127,56
6,70,109,728
6,72,105,564
6,68,108,8
6,63,94,500
6,65,105,108
6,63,101,0
6,75,127,4720
6,75,127,40
6,66,108,1264
6,68,117,188
6,75,127,332
6,75,127,56
6,75,127,68
6,75,127,52
6,78,119,92
6,77,121,92
6,75,114,8
6,73,102,112
6,75,99,836
6,77,92,80
6,78,124,248
6,78,122,60
6,68,116,8
6,70,119,188
6,68,115,104
6,70,111,104
6,75,106,196
6,75,111,68
6,77,115,188
6,77,115,32
6,78,102,8
6,78,100,88
6,77,115,4
6,77,115,80
6,75,102,192
6,75,106,120
6,73,96,24
6,73,97,76
6,71,98,192
6,71,108,144
6,70,95,400
6,70,127,556
6,78,122,92
6,77,125,4
6,75,124,4
6,75,112,112
6,77,115,0
6,78,118,116
6,77,118,128
6,75,125,24
6,77,115,172
6,70,115,300
6,78,104,36
6,77,116,112
6,75,127,104
