track,note,velocity,time
3,31,91,4064
3,31,0,604
3,31,87,116
3,31,0,22
3,31,89,26
3,31,0,566
3,31,110,154
3,31,0,542
3,31,88,82
3,31,0,188
3,34,72,4
3,34,0,450
3,34,85,126
3,34,0,188
3,29,94,4
3,29,0,380
3,41,97,4
3,41,0,380
3,40,87,4
3,40,0,380
3,29,92,4
3,29,0,366
3,33,98,18
3,33,0,526
3,33,89,50
3,33,0,128
3,31,92,64
3,31,0,434
3,31,76,142
3,31,0,188
3,30,92,4
3,30,0,422
3,30,91,154
3,30,0,188
3,28,90,4
3,28,0,380
3,40,71,4
3,40,0,380
3,33,75,4
3,33,0,354
3,31,75,30
3,31,0,372
3,29,73,12
3,29,0,380
3,28,75,4
3,40,67,0
3,40,0,326
3,28,0,10
3,38,108,48
3,38,0,418
3,38,109,158
3,38,0,36
3,38,112,156
3,38,0,434
3,38,109,142
3,38,0,182
3,28,104,10
3,28,0,380
3,40,104,4
3,40,0,188
3,28,74,4
3,28,0,38
3,28,104,154
3,28,0,380
3,40,105,4
3,40,0,168
3,28,101,24
3,28,0,174
3,33,103,18
3,33,0,380
3,45,90,4
3,45,0,152
3,33,103,40
3,33,0,24
3,33,103,168
3,33,0,436
3,33,113,140
3,33,0,164
3,38,111,28
3,38,0,394
3,38,112,182
3,38,0,46
3,38,108,146
3,38,0,494
3,38,103,274
3,38,0,428
3,38,97,148
3,38,0,136
3,36,104,56
3,36,0,422
3,36,87,154
3,36,0,184
3,34,92,8
3,34,0,468
3,34,97,108
3,34,0,76
3,34,88,116
3,34,0,370
3,34,90,206
3,34,0,188
3,29,99,4
3,29,0,380
3,41,95,4
3,41,0,380
3,29,77,4
3,29,0,380
3,41,91,4
3,41,0,188
3,29,77,4
3,29,0,188
3,38,99,4
3,38,0,506
3,38,86,70
3,38,0,188
3,35,88,4
3,35,0,490
3,35,83,86
3,35,0,248
3,35,91,136
3,35,0,448
3,28,112,128
3,28,0,380
3,40,114,4
3,40,0,342
3,33,107,42
3,33,0,476
3,33,107,100
3,33,0,188
3,32,109,4
3,32,0,424
3,32,111,152
3,32,0,188
3,30,96,4
3,30,0,628
3,30,99,140
3,30,0,380
3,42,109,4
3,42,0,320
3,35,74,64
3,35,0,386
3,35,109,190
3,35,0,172
3,34,109,20
3,34,0,414
3,34,103,162
3,34,0,182
3,35,103,10
3,35,0,428
3,35,105,148
3,35,0,188
3,28,109,4
3,28,0,380
3,40,98,4
3,40,0,572
3,28,102,4
3,28,0,188
3,40,102,4
3,40,0,188
3,28,93,4
3,28,0,168
3,33,105,24
3,33,0,440
3,33,102,136
3,33,0,188
3,32,100,4
3,32,0,446
3,32,99,130
3,32,0,188
3,30,104,4
3,30,0,452
3,30,118,220
3,30,0,44
3,30,107,52
3,30,0,380
3,42,108,4
3,42,0,188
3,30,98,4
3,30,0,178
3,35,107,14
3,35,0,448
3,35,105,128
3,35,0,158
3,34,95,34
3,34,0,450
3,34,84,126
3,34,0,188
3,35,108,4
3,35,0,546
3,35,100,126
3,35,0,90
3,28,94,6
3,28,0,380
3,40,97,4
3,40,0,572
3,28,91,4
3,28,0,188
3,40,85,4
3,40,0,168
3,33,114,216
3,33,0,458
3,33,99,118
3,33,0,188
3,32,109,4
3,32,0,490
3,32,102,86
3,32,0,176
3,31,110,16
3,31,0,1528
3,31,87,8
3,31,0,1528
3,31,96,3080
3,31,0,604
3,31,81,116
3,31,0,22
3,31,90,26
3,31,0,568
3,31,109,152
3,31,0,542
3,31,88,82
3,31,0,188
3,34,71,4
3,34,0,448
3,34,82,128
3,34,0,188
3,29,92,4
3,29,0,380
3,41,99,4
3,41,0,380
3,40,85,4
3,40,0,380
3,29,91,4
3,29,0,366
3,33,102,18
3,33,0,530
3,33,89,46
3,33,0,124
3,31,97,68
3,31,0,432
3,31,82,144
3,31,0,188
3,30,95,4
3,30,0,424
3,30,91,152
3,30,0,188
3,28,92,4
3,28,0,380
3,40,70,4
3,40,0,380
3,33,71,4
3,33,0,352
3,31,73,32
3,31,0,372
3,29,75,12
3,29,0,380
3,28,74,4
3,40,66,0
3,40,0,328
3,28,0,8
3,38,107,48
3,38,0,418
3,38,107,158
3,38,0,36
3,38,108,156
3,38,0,432
3,38,107,144
3,38,0,182
3,28,105,10
3,28,0,380
3,40,105,4
3,40,0,188
3,28,74,4
3,28,0,40
3,28,105,152
3,28,0,380
3,40,105,4
3,40,0,168
3,28,103,24
3,28,0,174
3,33,106,18
3,33,0,380
3,45,92,4
3,45,0,148
3,33,105,44
3,33,0,22
3,33,103,170
3,33,0,386
3,33,110,190
3,33,0,188
3,38,112,4
3,38,0,392
3,38,114,184
3,38,0,48
3,38,107,144
3,38,0,498
3,38,100,270
3,38,0,426
3,38,97,150
3,38,0,136
3,36,103,56
3,36,0,422
3,36,92,154
3,36,0,184
3,34,92,8
3,34,0,466
3,34,97,110
3,34,0,74
3,34,85,118
3,34,0,368
3,34,87,208
3,34,0,188
3,29,95,4
3,29,0,380
3,41,96,4
3,41,0,380
3,29,79,4
3,29,0,380
3,41,92,4
3,41,0,188
3,29,75,4
3,29,0,188
3,38,103,4
3,38,0,508
3,38,88,68
3,38,0,188
3,35,90,4
3,35,0,490
3,35,79,86
3,35,0,188
3,35,82,4
3,35,0,42
3,35,97,150
3,35,0,450
3,28,114,126
3,28,0,380
3,40,112,4
3,40,0,342
3,33,113,42
3,33,0,476
3,33,104,100
3,33,0,188
3,32,110,4
3,32,0,426
3,32,108,150
3,32,0,188
3,30,97,4
3,30,0,628
3,30,101,140
3,30,0,380
3,42,109,4
3,42,0,318
3,35,76,66
3,35,0,388
3,35,114,188
3,35,0,172
3,34,105,20
3,34,0,414
3,34,105,162
3,34,0,184
3,35,105,8
3,35,0,430
3,35,107,146
3,35,0,188
3,28,109,4
3,28,0,380
3,40,98,4
3,40,0,572
3,28,105,4
3,28,0,188
3,40,107,4
3,40,0,188
3,28,89,4
3,28,0,166
3,33,103,26
3,33,0,440
3,33,105,136
3,33,0,188
3,32,103,4
3,32,0,446
3,32,97,130
3,32,0,188
3,30,100,4
3,30,0,452
3,30,111,220
3,30,0,42
3,30,110,54
3,30,0,380
3,42,105,4
3,42,0,188
3,30,97,4
3,30,0,178
3,35,109,14
3,35,0,450
3,35,109,126
3,35,0,156
3,34,101,36
3,34,0,450
3,34,88,126
3,34,0,188
3,35,105,4
3,35,0,546
3,35,102,126
3,35,0,90
3,28,94,6
3,28,0,380
3,40,91,4
3,40,0,572
3,28,91,4
3,28,0,188
3,40,81,4
3,40,0,168
3,33,112,216
3,33,0,474
3,33,103,102
3,33,0,188
3,32,110,4
3,32,0,424
3,32,105,152
3,32,0,188
3,30,95,4
3,30,0,626
3,30,100,142
3,30,0,380
3,42,108,4
3,42,0,318
3,35,76,66
3,35,0,386
3,35,110,190
3,35,0,174
3,34,102,18
3,34,0,412
3,34,98,164
3,34,0,184
3,35,108,8
3,35,0,426
3,35,107,150
3,35,0,188
3,28,109,4
3,28,0,380
3,40,102,4
3,40,0,572
3,28,100,4
3,28,0,188
3,40,105,4
3,40,0,188
3,28,93,4
3,28,0,168
3,33,105,24
3,33,0,438
3,33,102,138
3,33,0,188
3,32,100,4
3,32,0,448
3,32,104,128
3,32,0,188
3,30,104,4
3,30,0,452
3,30,117,220
3,30,0,42
3,30,109,54
3,30,0,380
3,42,102,4
3,42,0,188
3,30,100,4
3,30,0,180
3,35,111,12
3,35,0,448
3,35,104,128
3,35,0,156
3,34,96,36
3,34,0,450
3,34,88,126
3,34,0,188
3,35,104,4
3,35,0,544
3,35,107,128
3,35,0,92
3,28,100,4
3,28,0,380
3,40,96,4
3,40,0,572
3,28,85,4
3,28,0,188
3,40,85,4
3,40,0,168
3,33,108,216
3,33,0,742
3,32,109,26
3,32,0,732
3,31,111,36
3,31,0,764
3,30,110,4
3,30,0,1532
3,33,82,4
3,33,0,1918
4,38,54,68
4,57,45,0
4,62,43,0
4,66,50,0
4,62,0,630
4,66,0,2
4,57,0,6
4,38,0,4
4,62,90,1278
4,62,0,92
4,64,83,4
4,64,0,92
4,62,85,4
4,62,0,92
4,57,76,4
4,57,0,92
4,60,75,4
4,60,0,536
4,59,92,2248
4,59,0,92
4,62,95,4
4,62,0,92
4,66,91,4
4,66,0,92
4,69,90,4
4,69,0,188
4,67,78,4
4,67,0,656
4,65,59,688
4,69,62,0
4,72,58,0
4,65,0,764
4,64,58,4
4,72,0,212
4,69,0,28
4,64,0,140
4,76,98,4
4,76,0,92
4,77,91,4
4,77,0,92
4,76,93,4
4,76,0,92
4,69,84,4
4,69,0,92
4,72,80,4
4,72,0,1338
4,57,55,966
4,59,55,0
4,64,42,0
4,59,0,738
4,61,47,30
4,57,0,364
4,61,0,16
4,55,71,4
4,55,0,380
4,53,85,4
4,64,0,244
4,53,0,136
4,52,82,4
4,52,0,282
4,69,78,102
4,74,80,0
4,69,0,1532
4,74,0,0
4,71,63,4
4,76,75,0
4,71,0,1532
4,76,0,0
4,69,64,4
4,73,69,0
4,73,0,1496
4,74,42,40
4,69,0,1458
4,78,72,78
4,78,0,1532
4,79,56,4
4,70,48,576
4,74,0,768
4,79,0,6
4,70,0,6
4,77,59,180
4,70,69,480
4,70,0,250
4,69,43,38
4,77,0,742
4,74,79,26
4,74,0,724
4,69,0,17
4,69,82,27
4,71,91,0
4,76,84,0
4,69,0,626
4,68,85,142
4,68,0,100
4,71,0,54
4,71,105,38
4,76,0,8
4,71,0,180
4,73,116,4
4,73,0,188
4,74,101,4
4,74,0,188
4,77,109,4
4,77,0,188
4,76,110,4
4,76,0,188
4,71,123,4
4,71,0,380
4,73,92,4
4,76,92,0
4,68,83,768
4,68,0,690
4,66,80,78
4,76,0,688
4,70,87,80
4,70,0,676
4,73,0,66
4,71,90,26
4,74,77,0
4,66,0,54
4,70,82,714
4,71,0,4
4,70,0,760
4,71,78,4
4,68,41,96
4,68,0,50
4,66,74,334
4,66,0,144
4,71,0,30
4,64,58,114
4,68,107,0
4,71,88,0
4,71,0,90
4,74,0,20
4,64,0,840
4,68,0,210
4,69,89,376
4,73,88,0
4,69,0,732
4,68,89,36
4,66,86,768
4,68,0,18
4,70,89,750
4,66,0,620
4,70,0,114
4,73,0,20
4,71,89,14
4,74,95,0
4,71,0,680
4,70,82,88
4,71,74,768
4,70,0,18
4,74,0,642
4,71,0,104
4,64,83,4
4,68,90,0
4,71,96,0
4,71,0,728
4,64,0,494
4,68,0,34
4,81,127,280
4,81,0,92
4,83,127,4
4,83,0,92
4,85,124,4
4,85,0,92
4,86,127,4
4,86,0,92
4,88,118,4
4,88,0,380
4,81,126,4
4,81,0,92
4,83,122,4
4,83,0,92
4,85,120,4
4,85,0,92
4,86,114,4
4,86,0,92
4,88,109,4
4,88,0,380
4,81,123,4
4,81,0,92
4,83,103,4
4,83,0,92
4,85,116,4
4,85,0,92
4,86,115,4
4,86,0,92
4,88,88,4
4,88,0,572
4,81,88,4
4,85,94,0
4,81,0,188
4,85,0,0
4,83,81,4
4,86,104,0
4,83,0,188
4,86,0,0
4,81,74,4
4,85,90,0
4,81,0,188
4,85,0,0
4,55,72,4
4,67,61,0
4,69,67,0
4,73,61,0
4,81,61,0
4,85,59,0
4,55,0,1150
4,67,0,0
4,69,0,0
4,73,0,0
4,81,0,0
4,85,0,0
4,62,85,1538
4,62,0,92
4,64,85,4
4,64,0,92
4,62,88,4
4,62,0,92
4,57,77,4
4,57,0,92
4,60,75,4
4,60,0,536
4,59,93,2248
4,59,0,92
4,62,100,4
4,62,0,92
4,66,92,4
4,66,0,92
4,69,86,4
4,69,0,188
4,67,75,4
4,67,0,658
4,65,62,686
4,69,63,0
4,72,59,0
4,65,0,764
4,64,52,4
4,72,0,212
4,69,0,26
4,64,0,142
4,76,96,4
4,76,0,92
4,77,93,4
4,77,0,92
4,76,90,4
4,76,0,92
4,69,85,4
4,69,0,92
4,72,82,4
4,72,0,1340
4,57,56,964
4,59,55,0
4,64,43,96
4,59,0,646
4,61,49,26
4,57,0,366
4,61,0,14
4,55,70,4
4,55,0,380
4,53,83,4
4,64,0,342
4,53,0,38
4,52,82,4
4,52,0,284
4,69,78,100
4,74,81,0
4,69,0,1532
4,74,0,0
4,71,66,4
4,76,80,0
4,76,0,1490
4,71,0,34
4,69,64,12
4,73,68,0
4,73,0,1306
4,74,43,230
4,69,0,1460
4,78,73,76
4,78,0,1386
4,79,53,150
4,70,49,576
4,74,0,768
4,79,0,2
4,70,0,12
4,77,62,178
4,70,69,480
4,70,0,250
4,69,44,38
4,77,0,742
4,74,75,26
4,69,0,698
4,74,0,26
4,69,87,44
4,71,94,0
4,76,83,0
4,69,0,626
4,71,0,118
4,76,0,2
4,68,85,22
4,71,90,0
4,76,89,0
4,68,0,92
4,71,0,72
4,71,107,28
4,76,0,16
4,71,0,172
4,73,113,4
4,73,0,188
4,74,103,4
4,74,0,188
4,77,112,4
4,77,0,188
4,76,114,4
4,76,0,188
4,71,121,4
4,71,0,380
4,73,94,4
4,76,93,0
4,68,83,768
4,68,0,692
4,66,73,76
4,76,0,690
4,70,85,78
4,70,0,674
4,73,0,68
4,71,90,26
4,74,74,0
4,66,0,54
4,70,83,714
4,71,0,4
4,70,0,740
4,71,77,24
4,68,48,96
4,68,0,48
4,66,70,336
4,66,0,148
4,71,0,26
4,64,55,114
4,68,103,0
4,71,90,0
4,71,0,90
4,74,0,20
4,64,0,838
4,68,0,214
4,69,89,374
4,73,90,0
4,69,0,730
4,68,88,38
4,66,83,768
4,68,0,20
4,70,88,748
4,66,0,624
4,70,0,110
4,73,0,16
4,71,92,18
4,74,97,0
4,71,0,678
4,70,88,90
4,71,78,768
4,70,0,18
4,74,0,640
4,71,0,106
4,64,82,4
4,68,86,0
4,71,90,0
4,71,0,730
4,64,0,494
4,68,0,34
4,73,95,278
4,76,88,0
4,68,78,768
4,68,0,690
4,66,76,78
4,76,0,688
4,70,89,80
4,70,0,674
4,73,0,66
4,71,95,28
4,74,78,0
4,66,0,54
4,70,80,714
4,71,0,6
4,70,0,734
4,71,78,28
4,68,47,96
4,68,0,48
4,66,72,336
4,66,0,148
4,71,0,24
4,64,54,116
4,68,102,0
4,71,92,0
4,71,0,92
4,74,0,18
4,64,0,840
4,68,0,214
4,69,85,372
4,73,88,0
4,69,0,732
4,68,92,36
4,66,84,768
4,68,0,20
4,70,95,748
4,66,0,626
4,70,0,106
4,73,0,18
4,71,95,18
4,74,95,0
4,71,0,678
4,70,84,90
4,71,73,768
4,70,0,20
4,74,0,638
4,71,0,106
4,64,84,4
4,68,89,0
4,71,90,0
4,71,0,730
4,64,0,494
4,68,0,36
4,76,98,276
4,88,125,0
4,76,0,92
4,88,0,0
4,77,91,4
4,89,127,0
4,77,0,92
4,89,0,0
4,76,96,4
4,88,124,0
4,76,0,92
4,88,0,0
4,74,86,4
4,86,122,0
4,74,0,92
4,86,0,0
4,72,94,4
4,84,125,0
4,72,0,380
4,84,0,0
4,76,93,4
4,88,125,0
4,76,0,92
4,88,0,0
4,77,78,4
4,89,111,0
4,77,0,92
4,89,0,0
4,76,83,4
4,88,109,0
4,76,0,92
4,88,0,0
4,74,98,4
4,86,127,0
4,74,0,92
4,86,0,0
4,72,95,4
4,84,121,0
4,72,0,380
4,84,0,0
4,76,92,4
4,88,123,0
4,76,0,92
4,88,0,0
4,77,82,4
4,89,109,0
4,77,0,92
4,89,0,0
4,76,83,4
4,88,112,0
4,76,0,92
4,88,0,0
4,74,90,4
4,86,126,0
4,74,0,92
4,86,0,0
4,72,85,4
4,84,116,0
4,72,0,380
4,84,0,0
4,76,96,4
4,88,127,0
4,76,0,92
4,88,0,0
4,77,72,4
4,89,104,0
4,77,0,92
4,89,0,0
4,76,72,4
4,88,100,0
4,76,0,92
4,88,0,0
4,74,76,4
4,86,107,0
4,74,0,92
4,86,0,0
4,72,73,4
4,84,104,0
4,72,0,1148
4,84,0,0
4,69,50,4
4,73,70,0
4,76,58,0
4,81,69,0
