track,note,velocity,time
0,41,122,170
0,35,119,1
0,49,67,0
0,65,100,0
0,69,106,0
0,72,107,0
0,70,123,1
0,35,0,3
0,49,0,0
0,70,0,87
0,51,57,5
0,69,100,0
0,51,0,4
0,67,88,41
0,69,0,0
0,51,77,51
0,40,111,2
0,69,104,0
0,51,0,2
0,40,0,2
0,67,0,1
0,41,0,38
0,41,118,50
0,35,103,1
0,51,57,0
0,35,0,4
0,51,0,0
0,41,0,89
0,41,119,2
0,35,119,1
0,51,77,0
0,35,0,4
0,51,0,0
0,51,57,92
0,51,0,4
0,41,0,89
0,41,112,2
0,51,77,1
0,40,108,2
0,51,0,2
0,40,0,2
0,41,0,87
0,41,107,2
0,35,82,1
0,51,57,0
0,69,0,2
0,35,0,2
0,51,0,0
0,41,0,89
0,63,100,0
0,39,119,2
0,35,119,1
0,51,67,0
0,35,0,4
0,51,0,0
0,70,121,0
0,65,0,21
0,70,0,63
0,51,57,8
0,69,81,1
0,51,0,3
0,67,93,40
0,69,0,3
0,69,107,48
0,51,77,1
0,40,106,2
0,51,0,2
0,40,0,2
0,67,0,1
0,39,0,38
0,39,115,47
0,35,103,1
0,51,57,0
0,35,0,4
0,51,0,0
0,39,0,41
0,39,115,50
0,35,119,1
0,51,77,0
0,35,0,4
0,51,0,0
0,51,57,92
0,69,0,0
0,72,114,2
0,51,0,2
0,39,0,89
0,39,116,2
0,51,77,1
0,40,111,2
0,51,0,2
0,40,0,2
0,72,0,83
0,39,0,4
0,39,109,2
0,35,91,1
0,51,57,0
0,65,85,3
0,35,0,1
0,51,0,0
0,65,0,42
0,67,89,5
0,72,0,10
0,39,0,32
0,62,104,1
0,63,0,0
0,38,118,1
0,65,106,0
0,35,118,1
0,51,77,0
0,72,101,2
0,65,116,1
0,35,0,1
0,51,0,0
0,67,0,2
0,51,57,90
0,51,0,4
0,51,77,92
0,40,111,2
0,51,0,2
0,40,0,2
0,67,105,3
0,65,0,10
0,38,0,26
0,38,120,50
0,67,0,0
0,35,103,1
0,51,57,0
0,35,0,4
0,51,0,0
0,69,97,0
0,72,0,38
0,69,0,22
0,65,0,6
0,69,0,3
0,62,0,12
0,59,101,7
0,38,0,1
0,35,115,2
0,62,102,0
0,65,93,0
0,35,119,1
0,51,77,0
0,69,102,0
0,69,111,2
0,35,0,2
0,51,0,0
0,51,57,92
0,51,0,4
0,69,0,88
0,67,113,3
0,51,77,1
0,40,108,2
0,51,0,2
0,40,0,2
0,35,0,39
0,65,105,49
0,67,0,0
0,35,106,1
0,35,91,1
0,51,57,0
0,35,0,4
0,51,0,0
0,62,0,35
0,69,0,46
0,65,0,2
0,59,0,5
0,35,0,1
0,60,109,0
0,64,101,0
0,36,113,2
0,60,108,0
0,64,101,0
0,67,109,0
0,72,96,0
0,35,119,1
0,51,67,0
0,35,0,4
0,51,0,0
0,65,0,2
0,51,57,90
0,51,0,4
0,60,0,78
0,60,0,9
0,59,105,1
0,64,0,0
0,36,0,1
0,62,112,1
0,35,108,1
0,51,77,1
0,65,102,0
0,40,106,2
0,51,0,2
0,40,0,2
0,35,104,90
0,51,57,0
0,35,0,4
0,51,0,0
0,64,0,81
0,58,100,5
0,76,98,0
0,35,0,3
0,59,0,0
0,34,108,2
0,35,119,1
0,51,77,0
0,64,102,2
0,65,0,0
0,67,102,0
0,35,0,2
0,51,0,0
0,62,0,5
0,34,0,36
0,36,116,50
0,35,83,1
0,51,57,0
0,40,66,2
0,35,0,2
0,51,0,0
0,40,0,2
0,36,0,87
0,38,116,2
0,35,83,1
0,51,77,0
0,40,111,2
0,64,0,0
0,35,0,2
0,51,0,0
0,40,0,2
0,70,112,0
0,38,0,87
0,40,117,2
0,35,83,1
0,51,57,0
0,40,97,2
0,35,0,2
0,51,0,0
0,40,0,2
0,76,0,34
0,40,0,5
0,70,0,8
0,67,0,5
0,72,0,13
0,58,0,5
0,41,123,19
0,35,119,1
0,49,70,0
0,65,103,0
0,69,108,0
0,60,95,1
0,72,97,0
0,65,97,1
0,69,95,0
0,35,0,2
0,49,0,0
0,67,0,6
0,51,57,86
0,51,0,4
0,51,77,92
0,40,111,2
0,51,0,2
0,40,0,2
0,72,118,49
0,41,0,5
0,72,0,27
0,41,117,8
0,35,103,1
0,51,57,0
0,35,0,4
0,51,0,0
0,72,117,5
0,72,0,35
0,72,118,17
0,41,0,5
0,41,115,29
0,35,119,1
0,51,77,0
0,72,0,0
0,35,0,4
0,51,0,0
0,65,0,19
0,69,0,0
0,72,119,0
0,60,0,9
0,51,57,64
0,72,0,1
0,60,91,1
0,51,0,2
0,72,119,24
0,41,0,23
0,36,122,10
0,51,77,1
0,65,91,1
0,40,108,1
0,51,0,2
0,40,0,2
0,72,0,47
0,72,118,14
0,36,0,16
0,40,119,4
0,35,82,1
0,51,57,0
0,69,78,1
0,35,0,3
0,51,0,0
0,65,0,5
0,60,0,5
0,72,0,14
0,72,121,15
0,72,0,10
0,69,0,31
0,69,0,4
0,40,0,5
0,67,105,0
0,62,104,1
0,71,104,0
0,41,115,1
0,35,119,1
0,51,67,0
0,62,88,0
0,67,87,0
0,71,88,0
0,65,0,3
0,72,0,0
0,35,0,1
0,51,0,0
0,72,120,16
0,51,57,76
0,51,0,4
0,72,0,19
0,71,116,6
0,51,77,67
0,40,106,2
0,51,0,2
0,40,0,2
0,62,0,49
0,41,0,2
0,67,0,28
0,41,116,3
0,35,103,1
0,51,57,0
0,35,0,4
0,51,0,0
0,41,0,56
0,41,116,35
0,35,119,1
0,51,77,0
0,67,57,0
0,35,0,1
0,51,0,0
0,65,83,90
0,51,57,2
0,51,0,4
0,67,0,9
0,71,0,68
0,41,0,3
0,64,80,9
0,36,119,2
0,51,77,1
0,40,111,2
0,51,0,2
0,65,0,0
0,40,0,2
0,36,0,87
0,71,0,1
0,40,117,1
0,62,86,0
0,35,91,1
0,51,57,0
0,35,0,2
0,51,0,0
0,64,0,2
0,62,0,23
0,62,0,39
0,71,0,7
0,40,0,10
0,62,105,9
0,65,108,0
0,70,103,0
0,41,115,1
0,35,118,1
0,51,77,0
0,62,87,2
0,65,90,0
0,70,85,0
0,35,0,2
0,51,0,0
0,67,0,2
0,51,57,85
0,51,0,4
0,51,77,92
0,40,111,2
0,51,0,2
0,40,0,2
0,41,0,25
0,70,111,37
0,41,115,8
0,35,103,1
0,51,57,0
0,35,0,4
0,51,0,0
0,41,0,1
0,70,0,13
0,70,113,19
0,41,115,4
0,35,119,1
0,51,77,0
0,62,0,3
0,35,0,1
0,51,0,0
0,70,0,16
0,65,0,2
0,70,0,55
0,70,99,10
0,51,57,8
0,62,58,0
0,51,0,4
0,62,0,19
0,58,58,24
0,41,0,19
0,58,0,2
0,36,119,27
0,51,77,1
0,62,87,0
0,65,93,0
0,70,79,0
0,40,108,2
0,51,0,2
0,40,0,2
0,70,0,50
0,72,117,9
0,62,0,7
0,36,0,18
0,40,115,5
0,70,0,0
0,35,91,1
0,51,57,0
0,62,49,2
0,35,0,2
0,51,0,0
0,65,0,10
0,62,0,4
0,70,116,22
0,72,0,8
0,62,0,11
0,70,0,9
0,65,0,20
0,40,0,3
0,41,113,4
0,35,119,1
0,51,67,0
0,60,93,0
0,65,87,0
0,69,92,0
0,65,105,1
0,60,113,2
0,69,101,0
0,35,0,1
0,51,0,0
0,69,111,7
0,70,0,5
0,51,57,70
0,51,0,4
0,51,77,6
0,40,106,2
0,51,0,2
0,40,0,2
0,60,0,44
0,41,0,2
0,41,115,43
0,35,104,1
0,51,57,0
0,67,104,3
0,35,0,1
0,51,0,0
0,69,0,5
0,41,0,48
0,65,0,30
0,69,0,3
0,41,114,5
0,35,119,1
0,51,77,0
0,35,0,4
0,51,0,0
0,65,104,21
0,67,0,0
0,51,57,71
0,60,81,1
0,51,0,3
0,60,0,2
0,41,0,63
0,36,122,26
0,70,109,0
0,51,77,1
0,40,111,2
0,51,0,2
0,40,0,2
0,65,0,56
0,36,0,21
0,40,113,12
0,69,89,0
0,35,83,1
0,51,57,0
0,35,0,4
0,51,0,0
0,70,0,1
0,67,79,41
0,69,0,1
0,69,0,22
0,65,0,5
0,40,0,1
0,60,0,6
0,69,106,13
0,41,123,1
0,65,101,0
0,35,119,1
0,49,60,0
0,69,100,0
0,72,105,1
0,35,0,3
0,49,0,0
0,67,0,5
0,51,57,46
0,51,0,4
0,65,27,0
0,65,0,86
0,51,77,6
0,40,111,2
0,51,0,2
0,40,0,2
0,41,0,54
0,60,60,34
0,41,117,1
0,35,103,1
0,51,57,0
0,35,0,4
0,51,0,0
0,72,120,35
0,72,0,24
0,41,0,3
0,60,0,16
0,72,119,5
0,41,115,8
0,35,119,1
0,51,77,0
0,35,0,4
0,51,0,0
0,72,0,39
0,72,120,18
0,69,0,29
0,51,57,6
0,60,69,1
0,51,0,3
0,72,0,45
0,72,113,13
0,41,0,23
0,72,0,2
0,36,122,8
0,51,77,1
0,40,108,2
0,51,0,2
0,40,0,2
0,60,0,5
0,72,115,1
0,72,0,47
0,72,121,20
0,36,0,4
0,40,119,12
0,35,82,1
0,51,57,0
0,60,50,1
0,69,58,0
0,35,0,3
0,51,0,0
0,60,0,13
0,69,0,5
0,72,0,6
0,72,121,19
0,72,0,8
0,69,0,29
0,62,105,6
0,67,111,0
0,65,0,1
0,71,110,0
0,40,0,2
0,41,115,2
0,62,89,0
0,67,95,0
0,71,95,0
0,35,119,1
0,51,67,0
0,72,0,3
0,35,0,1
0,51,0,0
0,72,121,9
0,62,0,5
0,62,69,17
0,51,57,3
0,51,0,4
0,71,115,19
0,72,0,1
0,71,0,45
0,67,0,3
0,62,0,12
0,51,77,12
0,40,106,2
0,51,0,2
0,40,0,2
0,41,0,58
0,41,116,31
0,62,62,0
0,35,103,1
0,51,57,0
0,67,72,0
0,71,71,0
0,35,0,4
0,51,0,0
0,41,0,56
0,41,116,35
0,35,119,1
0,51,77,0
0,35,0,4
0,51,0,0
0,62,0,1
0,67,0,51
0,62,77,37
0,51,57,3
0,51,0,4
0,62,0,13
0,71,0,22
0,71,0,1
0,41,0,44
0,36,119,11
0,65,105,0
0,71,97,0
0,51,77,1
0,40,111,2
0,51,0,2
0,40,0,2
0,36,0,87
0,40,117,2
0,35,91,1
0,51,57,0
0,64,87,0
0,35,0,4
0,51,0,0
0,65,0,1
0,71,0,9
0,62,0,63
0,71,0,0
0,40,0,8
0,67,0,6
0,62,101,1
0,70,99,0
0,65,109,1
0,64,0,1
0,41,115,1
0,35,118,1
0,51,77,0
0,62,89,0
0,65,97,0
0,70,85,0
0,35,0,4
0,51,0,0
0,51,57,75
0,51,0,4
0,51,77,92
0,40,111,2
0,51,0,2
0,40,0,2
0,41,0,39
0,62,0,5
0,41,115,40
0,35,103,1
0,51,57,0
0,35,0,4
0,51,0,0
0,65,0,22
0,70,0,5
0,70,118,16
0,41,0,12
0,70,0,21
0,65,70,13
0,70,61,0
0,62,69,1
0,41,115,1
0,35,119,1
0,51,77,0
0,35,0,4
0,51,0,0
0,70,120,7
0,70,0,71
0,65,0,11
0,51,57,3
0,51,0,4
0,70,118,1
0,70,0,16
0,62,0,10
0,41,0,35
0,70,0,18
0,36,119,11
0,62,88,0
0,65,98,0
0,70,88,0
0,51,77,1
0,70,115,0
0,40,108,2
0,51,0,2
0,40,0,2
0,62,0,67
0,36,0,17
0,70,0,2
0,65,0,1
0,70,0,1
0,40,115,1
0,62,68,0
0,35,91,1
0,51,57,0
0,72,117,0
0,35,0,4
0,51,0,0
0,62,0,33
0,62,0,6
0,72,0,3
0,70,120,2
0,65,0,14
0,70,0,1
0,40,0,28
0,60,99,2
0,65,104,1
0,70,0,0
0,41,113,1
0,35,119,1
0,51,67,0
0,60,95,0
0,65,94,0
0,69,102,0
0,69,112,0
0,69,94,1
0,35,0,3
0,51,0,0
0,51,57,34
0,51,0,4
0,51,77,92
0,40,106,2
0,51,0,2
0,40,0,2
0,60,0,30
0,41,0,16
0,65,0,15
0,69,0,10
0,67,100,13
0,69,0,4
0,41,115,1
0,35,104,1
0,51,57,0
0,35,0,4
0,51,0,0
0,41,0,53
0,40,60,17
0,40,0,4
0,41,114,17
0,40,96,3
0,67,0,1
0,65,108,2
0,40,0,1
0,65,93,88
0,51,57,2
0,51,0,4
0,65,0,4
0,41,0,61
0,77,96,25
0,41,122,1
0,65,100,0
0,69,100,0
0,72,100,0
0,47,87,1
0,47,0,4
0,47,60,25
0,47,0,4
0,47,69,28
0,47,0,4
0,41,0,15
0,40,113,1
0,47,76,1
0,47,0,4
0,65,0,6
0,69,0,18
0,72,0,0
0,65,0,1
0,47,80,3
0,47,0,4
0,77,0,1
0,47,87,27
0,47,0,4
0,60,0,1
0,69,0,2
0,40,0,4
0,65,0,4
0,38,123,16
0,35,119,1
0,49,67,0
0,69,101,0
0,74,106,0
0,65,100,1
0,62,105,1
0,65,105,0
0,69,113,0
0,74,106,0
0,35,0,2
0,49,0,0
0,65,0,53
0,51,57,39
0,51,0,4
0,65,89,0
0,69,0,22
0,74,122,9
0,74,0,44
0,74,121,14
0,51,77,3
0,69,103,1
0,40,111,1
0,51,0,2
0,40,0,2
0,74,0,3
0,38,0,42
0,69,0,39
0,74,111,4
0,38,120,1
0,35,103,1
0,51,57,0
0,35,0,4
0,51,0,0
0,38,0,54
0,69,91,34
0,38,120,3
0,35,119,1
0,51,77,0
0,65,0,3
0,35,0,1
0,51,0,0
0,74,0,42
0,51,57,50
0,74,79,0
0,51,0,4
0,69,0,45
0,51,77,47
0,65,98,0
0,40,108,2
0,51,0,2
0,40,0,2
0,77,121,53
0,74,0,4
0,38,0,3
0,38,122,29
0,35,82,1
0,51,57,0
0,69,83,0
0,35,0,4
0,51,0,0
0,65,0,20
0,76,122,13
0,77,0,8
0,65,0,1
0,69,0,0
0,74,0,4
0,38,0,34
0,69,0,2
0,67,107,3
0,70,102,0
0,43,120,6
0,67,87,0
0,70,89,0
0,74,95,0
0,35,119,1
0,51,67,0
0,35,0,4
0,51,0,0
0,76,0,2
0,76,121,15
0,62,85,73
0,51,57,2
0,51,0,4
0,67,0,24
0,74,122,9
0,76,0,2
0,51,77,57
0,40,106,2
0,67,88,0
0,51,0,2
0,40,0,2
0,70,0,11
0,43,0,30
0,74,0,26
0,70,84,19
0,43,123,3
0,35,103,1
0,51,57,0
0,35,0,4
0,51,0,0
0,43,0,43
0,74,100,47
0,43,125,1
0,35,119,1
0,51,77,0
0,70,0,2
0,35,0,2
0,51,0,0
0,67,0,52
0,67,76,39
0,51,57,1
0,51,0,4
0,43,0,59
0,72,113,2
0,74,0,7
0,40,123,23
0,51,77,1
0,70,88,0
0,40,111,2
0,51,0,2
0,67,0,1
0,40,0,1
0,72,0,12
0,70,108,1
0,74,0,60
0,40,0,4
0,38,121,12
0,35,91,1
0,51,57,0
0,74,71,0
0,70,0,1
0,35,0,3
0,51,0,0
0,62,0,3
0,70,0,56
0,62,0,1
0,74,0,2
0,67,0,3
0,70,0,1
0,74,0,1
0,38,0,12
0,65,91,9
0,69,104,0
0,72,95,0
0,36,120,3
0,35,118,1
0,51,77,0
0,65,109,1
0,72,103,0
0,60,109,1
0,69,104,0
0,35,0,2
0,51,0,0
0,65,0,54
0,51,57,38
0,65,67,3
0,51,0,1
0,69,0,13
0,72,117,31
0,72,0,34
0,51,77,14
0,40,111,2
0,69,81,0
0,72,0,0
0,51,0,2
0,40,0,2
0,72,118,1
0,36,0,50
0,69,0,30
0,36,122,8
0,35,103,1
0,51,57,0
0,72,98,0
0,35,0,4
0,51,0,0
0,36,0,61
0,65,0,22
0,36,120,8
0,67,96,0
0,35,119,1
0,51,77,0
0,35,0,4
0,51,0,0
0,69,75,89
0,51,57,3
0,67,0,2
0,51,0,2
0,51,77,92
0,67,80,0
0,40,108,2
0,51,0,2
0,40,0,2
0,69,0,15
0,72,0,7
0,36,0,20
0,72,118,4
0,67,0,9
0,36,98,2
0,35,91,1
0,51,57,0
0,65,78,0
