track,note,velocity,time
1,66,82,12384
1,70,86,0
1,73,88,0
1,66,79,8
1,70,88,0
1,73,84,0
1,66,70,96
1,71,79,0
1,74,74,0
1,66,77,80
1,71,90,0
1,74,95,0
1,69,90,56
1,73,88,0
1,76,98,0
1,69,88,92
1,73,93,0
1,76,95,0
1,62,69,116
1,66,80,0
1,69,93,0
1,74,98,0
1,62,90,102
1,66,77,0
1,69,91,0
1,74,101,0
1,66,82,31548
1,70,86,0
1,73,88,0
1,66,79,8
1,70,88,0
1,73,84,0
1,66,70,96
1,71,79,0
1,74,74,0
1,66,77,80
1,71,90,0
1,74,95,0
1,69,90,56
1,73,88,0
1,76,98,0
1,69,88,92
1,73,93,0
1,76,95,0
1,62,69,116
1,66,80,0
1,69,93,0
1,74,98,0
2,38,92,15072
2,37,85,8
2,35,90,30
2,35,84,36
2,35,89,46
2,35,90,48
2,40,86,16
2,40,90,54
2,33,81,0
2,38,90,96
2,33,77,0
2,26,80,12
2,33,77,576
2,38,76,188
2,34,82,74
2,35,80,20
2,42,76,288
2,47,71,24
2,42,66,576
2,38,74,14
2,39,77,96
2,40,77,4
2,35,77,288
2,28,77,8
2,40,74,576
2,28,75,34
2,33,86,0
2,40,86,288
2,45,77,28
2,40,74,576
2,33,72,16
2,38,78,192
2,33,85,284
2,26,80,22
2,33,79,4
2,38,79,4
2,35,77,22
2,42,79,288
2,47,73,14
2,42,72,576
2,38,76,8
2,39,79,96
2,40,82,10
2,35,81,288
2,28,82,12
2,35,82,576
2,40,84,0
2,33,82,10
2,33,89,42
2,33,90,46
2,33,88,38
2,30,85,24
2,30,83,42
2,30,82,40
2,30,87,46
2,35,86,16
2,30,73,288
2,33,69,16
2,35,75,6
2,30,69,192
2,35,72,8
2,35,74,32
2,30,75,96
2,33,72,16
2,35,82,4
2,35,73,22
2,37,66,4
2,42,80,14
2,37,68,288
2,40,69,22
2,42,70,0
2,37,69,192
2,42,68,16
2,42,64,24
2,37,69,96
2,40,68,2
2,42,76,6
2,37,78,192
2,40,77,20
2,35,74,288
2,38,71,16
2,40,72,8
2,35,72,192
2,40,79,12
2,40,77,50
2,35,79,6
2,36,86,96
2,37,82,94
2,40,77,16
2,41,80,16
2,42,76,96
2,42,89,46
2,42,78,54
2,42,83,60
2,33,89,52
2,33,89,56
2,33,84,70
2,33,78,68
2,38,82,46
2,33,78,288
2,26,85,32
2,33,84,576
2,38,86,16
2,35,79,22
2,42,76,288
2,47,71,4
2,42,73,576
2,38,74,10
2,39,74,96
2,40,78,12
2,35,77,288
2,28,73,12
2,33,85,576
2,38,93,12
2,38,92,8024
2,37,85,12
2,35,92,12
2,35,84,44
2,35,92,50
2,35,90,54
2,40,92,26
2,40,85,62
2,33,89,18
2,38,90,604
2,33,82,288
2,26,82,18
2,33,82,6
2,38,82,14
2,35,81,6
2,42,76,288
2,47,73,22
2,42,65,480
2,35,74,6
2,38,78,192
2,39,82,6
2,40,86,6
2,35,79,288
2,28,79,18
2,35,79,576
2,40,81,12
2,33,68,10
2,33,68,60
2,33,68,60
2,33,68,60
2,30,85,60
2,30,85,96
2,30,85,96
2,30,85,96
2,35,86,96
2,30,76,20
2,33,72,8
2,35,77,2
2,30,73,6
2,35,74,18
2,35,78,40
2,30,73,96
2,33,71,0
2,35,81,96
2,35,68,22
2,37,68,96
2,42,87,12
2,37,69,288
2,40,68,16
2,42,72,0
2,37,73,192
2,42,74,18
2,42,71,44
2,37,70,96
2,40,68,76
2,42,78,86
2,37,71,188
2,39,67,2
2,40,74,96
2,35,74,4
2,38,74,16
2,40,68,2
2,35,72,192
2,40,82,2
2,40,84,46
2,35,84,34
2,36,84,8
2,37,82,96
2,40,70,14
2,41,84,22
2,42,78,96
2,42,87,38
2,42,85,56
2,42,85,62
2,33,88,64
2,33,88,44
2,33,85,54
2,33,85,52
2,38,92,40
2,33,84,0
2,26,82,18
2,33,80,6
2,38,82,10
2,35,84,26
2,42,78,288
2,47,74,16
2,42,71,576
2,38,76,14
2,39,77,0
2,40,77,10
2,35,75,288
2,28,77,30
2,35,85,576
2,28,74,18
2,33,88,8
2,33,88,86
2,33,88,86
2,33,88,86
2,36,85,86
2,36,85,56
2,36,85,56
2,36,92,56
2,36,90,46
2,43,82,4
2,48,74,18
2,43,79,576
2,36,76,2
2,33,73,14
2,40,81,288
2,45,77,20
2,40,81,6
2,33,72,20
2,38,90,192
2,45,90,32
2,38,90,32
2,43,85,32
2,31,90,384
2,36,90,14
2,24,85,1536
3,62,64,17760
3,66,64,0
3,73,64,0
3,59,64,2
3,74,64,0
3,64,64,58
3,67,64,0
3,57,64,1532
3,73,64,0
3,76,64,0
3,62,64,130
3,66,64,0
3,59,64,16
3,74,64,0
3,64,64,10
3,67,64,0
3,57,64,1536
3,73,64,0
3,54,64,0
3,66,64,0
3,70,64,0
3,62,64,6138
3,66,64,0
3,73,64,0
3,59,64,12
3,74,64,0
3,64,64,20
3,67,64,0
3,57,64,1108
3,73,64,0
3,62,64,0
3,66,64,0
3,74,64,0
3,71,64,18
3,69,64,382
3,73,64,0
3,67,64,10
3,71,64,0
3,54,26,2564
3,58,31,0
3,61,26,0
3,59,41,768
3,62,29,0
3,57,26,42
3,61,42,0
3,64,50,0
3,62,46,58
3,66,39,0
3,62,64,1982
3,66,64,0
3,73,64,0
3,59,64,8
3,74,64,0
3,64,64,8
3,67,64,0
3,57,64,52
3,69,64,0
3,73,64,0
3,54,64,8
3,66,64,0
3,70,64,0
3,62,64,6144
3,66,64,0
3,73,64,0
3,59,64,16
3,74,64,0
3,64,64,20
3,67,64,0
3,57,64,70
3,69,64,0
3,73,64,0
3,60,64,18
3,67,64,0
3,76,64,0
3,71,64,760
3,57,64,26
3,69,64,0
3,72,64,0
3,62,64,14
3,65,64,0
3,74,64,0
3,55,64,0
3,67,64,0
3,71,64,0
3,60,64,360
3,64,64,0
3,72,64,0
4,78,61,4608
4,86,63,2
4,86,59,34
4,86,61,58
4,86,60,60
4,86,62,50
4,88,58,192
4,85,58,90
4,85,59,36
4,85,59,56
4,85,59,52
4,85,62,58
4,86,59,4
4,83,61,96
4,83,62,40
4,81,66,672
4,83,63,0
4,81,61,96
4,83,61,12
4,81,68,96
4,76,61,184
4,79,68,0
4,78,63,10
4,78,59,830
4,86,67,12
4,86,66,46
4,86,61,58
4,86,62,58
4,86,66,64
4,88,59,12
4,85,59,96
4,81,61,2
4,78,59,576
4,83,63,92
4,83,61,58
4,83,64,56
4,83,63,54
4,83,65,52
4,85,61,192
4,81,60,0
4,78,61,192
4,74,59,102
4,76,65,96
4,78,67,4
4,76,65,36
4,76,68,46
4,74,61,0
4,78,67,24
4,79,68,4
4,81,66,0
4,81,63,52
4,81,65,58
4,83,63,16
4,81,70,12
4,79,66,14
4,79,68,56
4,78,64,8
4,83,68,96
4,85,65,178
4,86,67,8
4,86,66,52
4,86,64,54
4,86,65,52
4,88,70,52
4,88,68,84
4,81,68,40
4,90,67,60
4,88,66,192
4,86,68,8
4,85,65,26
4,78,65,192
4,79,61,850
4,81,66,86
4,78,60,190
4,86,63,78
4,90,67,300
4,88,66,12
4,86,61,4
4,86,64,18
4,79,64,192
4,79,66,36
4,81,64,260
4,83,69,16
4,79,64,192
4,88,70,0
4,90,67,50
4,88,67,6
4,86,60,288
4,85,61,90
4,78,62,6
4,78,65,34
4,79,62,576
4,81,63,12
4,78,59,192
4,86,63,16
4,90,65,960
4,88,63,20
4,86,65,2
4,86,61,8
4,79,59,288
4,79,63,2
4,81,62,2
4,83,62,0
4,85,62,96
4,86,65,0
4,83,62,36
4,85,68,24
4,78,61,760
4,86,66,2
4,86,64,56
4,86,62,62
4,86,62,66
4,86,70,66
4,86,61,72
4,86,72,64
4,86,60,50
4,86,61,66
4,86,58,66
4,86,67,80
4,88,65,96
4,85,63,6
4,78,58,192
4,85,61,84
4,85,63,80
4,78,59,16
4,83,63,24
4,83,64,58
4,83,59,58
4,83,62,64
4,83,70,64
4,83,62,82
4,83,64,68
4,83,60,78
4,83,62,66
4,83,61,66
4,83,61,64
4,85,59,96
4,81,61,282
4,73,63,14
4,81,59,96
4,81,70,0
4,90,67,256
4,88,68,192
4,86,67,148
4,85,65,154
4,78,61,242
4,78,65,24
4,79,61,12
4,81,64,96
4,78,59,0
4,86,64,2
4,90,65,24
4,88,64,16
4,86,59,288
4,86,62,46
4,79,61,192
4,79,63,26
4,83,59,384
4,86,64,20
4,83,63,2
4,86,65,14
4,85,66,192
4,86,70,14
4,78,59,192
4,86,67,0
4,86,66,46
4,86,61,58
4,86,62,58
4,86,66,64
4,88,59,12
4,85,59,96
4,81,61,2
4,78,59,576
4,83,63,92
4,83,61,58
4,83,64,56
4,83,63,54
4,83,65,52
4,85,61,192
4,81,60,0
4,78,61,192
4,74,59,6
4,76,65,20
4,78,67,4
4,76,65,36
4,76,68,46
4,74,61,0
4,78,67,24
4,79,68,4
4,81,66,0
4,81,63,52
4,81,65,58
4,83,63,16
4,81,70,12
4,79,66,14
4,79,68,56
4,78,64,8
4,83,68,96
4,85,65,178
4,86,67,8
4,86,66,52
4,86,64,54
4,86,65,52
4,88,70,52
4,88,68,84
4,81,68,40
4,90,67,444
4,88,66,192
4,86,68,8
4,85,65,26
4,78,65,192
4,79,61,850
4,81,66,86
4,78,60,190
4,86,63,78
4,90,67,396
4,88,66,12
4,86,61,4
4,86,64,18
4,79,64,192
4,79,66,36
4,81,64,260
4,83,69,16
4,79,64,192
4,88,70,0
4,78,61,674
4,86,66,2
4,86,64,56
4,86,62,62
4,86,62,66
4,86,70,66
4,86,61,72
4,86,72,64
4,86,60,50
4,86,61,66
4,86,58,66
4,86,67,80
4,88,65,96
4,85,63,6
4,78,58,192
4,85,61,84
4,85,63,80
4,78,59,16
4,83,63,24
4,83,64,58
4,83,59,58
4,83,62,64
4,83,70,64
4,83,62,82
4,83,64,68
4,83,60,78
4,83,62,66
4,83,61,66
4,83,61,64
4,85,59,96
4,81,61,282
4,73,63,14
4,81,59,52
4,81,70,44
4,90,69,3424
4,88,61,96
4,86,61,206
4,86,68,30
4,79,61,288
4,79,66,2
4,81,61,2
4,83,67,8
4,79,64,192
4,88,70,12
4,88,72,58
4,86,68,192
4,84,70,184
4,83,68,4
4,76,64,288
4,76,66,44
4,77,56,672
4,79,65,8
4,76,64,192
4,84,70,42
4,88,70,2
4,86,68,192
4,84,64,6
4,84,68,32
4,77,64,42
4,77,67,54
4,81,62,288
4,84,70,8
4,81,68,192
4,84,70,168
4,83,72,188
4,84,71,4
5,81,58,1248
5,81,56,108
5,81,56,56
5,81,55,100
5,82,74,6
5,82,80,110
5,47,58,24
5,54,61,0
5,47,31,0
5,54,34,0
5,47,16,0
5,54,19,0
5,47,8,0
5,54,11,0
5,47,68,96
5,54,57,0
5,47,41,96
5,54,30,0
5,47,26,96
5,54,15,0
5,47,18,96
5,54,7,0
5,47,67,84
5,54,56,0
5,47,40,84
5,54,29,0
5,47,25,84
5,54,14,0
5,47,17,84
5,54,6,0
5,45,67,54
5,52,68,0
5,45,40,0
5,52,41,0
5,45,25,0
5,52,26,0
5,45,17,0
5,52,18,0
5,43,64,8
5,50,63,0
5,43,37,0
5,50,36,0
5,43,22,0
5,50,21,0
5,43,14,0
5,50,13,0
5,45,68,70
5,52,57,0
5,45,41,0
5,52,30,0
5,45,26,0
5,52,15,0
5,45,18,0
5,52,7,0
5,50,81,32
5,57,73,0
5,50,54,0
5,57,46,0
5,50,39,0
5,57,31,0
5,50,31,0
5,57,23,0
5,42,86,60
5,49,90,0
5,42,93,122
5,49,100,0
5,47,55,28
5,54,64,0
5,47,28,0
5,54,37,0
5,47,13,0
5,54,22,0
5,47,5,0
5,54,14,0
5,42,70,122
5,49,72,0
5,42,43,0
5,49,45,0
5,42,28,0
5,49,30,0
5,42,20,0
5,49,22,0
5,43,69,14
5,50,64,0
5,43,42,0
5,50,37,0
5,43,27,0
5,50,22,0
5,43,19,0
5,50,14,0
5,50,73,76
5,57,58,0
5,50,46,0
5,57,31,0
5,50,31,0
5,57,16,0
5,50,23,0
5,57,8,0
5,42,65,50
5,49,63,0
5,42,38,0
5,49,36,0
5,42,23,0
5,49,21,0
5,42,15,0
5,49,13,0
5,47,69,0
5,54,62,0
5,47,42,0
5,54,35,0
5,47,27,0
5,54,20,0
5,47,19,0
5,54,12,0
5,45,77,34
5,52,73,0
5,45,50,0
5,52,46,0
5,45,35,0
5,52,31,0
5,45,27,0
5,52,23,0
5,50,79,18
5,57,69,0
5,50,109,36
5,49,100,24
5,47,106,30
5,47,112,94
5,47,109,54
5,47,101,94
5,52,114,46
5,52,109,78
5,45,112,20
5,57,60,590
5,61,67,0
5,66,58,0
5,57,67,58
5,61,63,0
5,66,64,0
5,57,73,200
5,61,73,0
5,66,77,0
5,59,79,158
5,62,77,0
5,66,77,0
5,59,75,60
5,62,73,0
5,66,65,0
5,59,78,204
5,62,76,0
5,66,72,0
5,52,71,144
5,59,71,0
5,64,69,0
5,52,66,4
5,59,82,0
5,64,84,0
5,55,74,236
5,59,76,0
5,64,71,0
5,57,74,120
5,61,69,0
5,64,78,0
5,57,82,50
5,61,78,0
5,64,93,0
5,57,80,234
5,61,73,0
5,64,88,0
5,57,74,168
5,61,77,0
5,66,77,0
5,57,79,44
5,61,71,0
5,66,77,0
5,57,76,222
5,61,77,0
5,66,79,0
5,59,77,122
5,62,80,0
5,66,77,0
5,59,77,50
5,62,72,0
5,66,77,0
5,59,77,198
5,62,77,0
5,66,64,0
5,55,88,188
5,59,93,0
5,64,88,0
5,55,84,62
5,59,90,0
5,64,88,0
5,55,81,236
5,59,85,0
5,64,82,0
5,57,88,84
5,61,88,0
5,64,93,0
5,58,72,32
5,61,13,0
5,66,80,0
5,57,69,6162
5,61,70,0
5,66,66,0
5,57,68,80
5,61,71,0
5,66,64,0
5,57,80,196
5,61,75,0
5,66,72,0
5,59,74,172
5,62,76,0
5,66,65,0
5,59,76,62
5,62,75,0
5,66,71,0
5,59,72,198
5,62,73,0
5,66,65,0
5,55,79,184
5,59,74,0
5,64,72,0
5,55,75,40
5,59,81,0
5,64,79,0
5,55,75,222
5,59,78,0
5,64,79,0
5,57,79,102
5,61,86,0
5,64,90,0
5,57,68,96
5,62,72,0
5,66,71,0
5,47,55,2400
5,54,64,0
5,47,28,0
5,54,37,0
5,47,13,0
5,54,22,0
5,47,5,0
5,54,14,0
5,42,70,122
5,49,72,0
5,42,43,0
5,49,45,0
5,42,28,0
5,49,30,0
5,42,20,0
5,49,22,0
5,43,69,14
5,50,64,0
5,43,42,0
5,50,37,0
5,43,27,0
5,50,22,0
5,43,19,0
5,50,14,0
5,50,73,76
5,57,58,0
5,50,46,0
5,57,31,0
5,50,31,0
5,57,16,0
5,50,23,0
5,57,8,0
5,42,65,50
5,49,63,0
5,42,38,0
5,49,36,0
5,42,23,0
5,49,21,0
5,42,15,0
5,49,13,0
5,47,69,0
5,54,62,0
5,47,42,0
5,54,35,0
5,47,27,0
5,54,20,0
5,47,19,0
5,54,12,0
5,45,77,34
5,52,73,0
5,45,50,0
5,52,46,0
5,45,35,0
5,52,31,0
5,45,27,0
5,52,23,0
5,50,79,18
5,57,69,0
5,50,52,0
5,57,42,0
5,50,37,0
5,57,27,0
5,50,109,0
5,50,29,36
5,57,19,0
5,49,100,0
5,47,106,30
5,47,112,94
5,47,109,54
5,47,101,94
5,52,114,46
5,52,109,78
5,45,112,20
5,57,64,590
5,61,65,0
5,66,61,0
5,57,71,48
5,61,67,0
5,66,67,0
5,57,67,232
5,61,70,0
5,66,75,0
5,59,74,232
5,62,74,0
5,66,66,0
5,59,73,64
5,62,72,0
5,66,62,0
5,59,72,226
5,62,74,0
5,66,65,0
5,55,84,322
5,59,80,0
5,64,78,0
5,55,84,54
5,59,81,0
5,64,82,0
5,55,80,240
5,59,78,0
5,64,77,0
5,57,77,270
5,61,74,0
5,64,84,0
5,58,78,20
5,61,72,0
5,66,75,0
