track,note,velocity,time
3,28,100,557
3,40,86,9
3,52,82,9
3,56,95,0
3,62,105,0
3,59,95,0
3,52,0,39
3,62,0,1
3,59,0,1
3,56,0,3
3,52,40,4
3,56,47,0
3,62,67,0
3,59,55,0
3,62,0,37
3,52,0,0
3,59,0,2
3,56,0,2
3,56,67,7
3,52,86,0
3,59,86,0
3,62,86,0
3,52,0,33
3,62,0,1
3,59,0,3
3,56,0,3
3,56,60,8
3,52,90,0
3,59,90,0
3,62,95,0
3,62,0,36
3,52,0,1
3,59,0,2
3,56,0,2
3,62,86,7
3,52,82,0
3,59,86,0
3,56,64,0
3,52,0,15
3,59,0,1
3,56,0,0
3,62,0,1
3,52,64,7
3,59,74,0
3,56,64,0
3,62,64,0
3,62,0,14
3,59,0,1
3,52,0,1
3,56,0,0
3,62,67,8
3,52,60,0
3,59,70,0
3,56,67,0
3,52,0,11
3,62,0,1
3,59,0,1
3,56,0,0
3,56,70,5
3,62,95,0
3,59,82,0
3,52,90,0
3,52,0,10
3,62,0,2
3,56,0,0
3,59,0,0
3,56,100,12
3,59,100,0
3,62,110,0
3,52,100,0
3,52,0,10
3,59,0,0
3,62,0,1
3,56,0,1
3,56,95,12
3,52,100,0
3,62,100,0
3,59,95,0
3,59,0,10
3,52,0,0
3,62,0,1
3,56,0,1
3,62,105,12
3,52,105,0
3,59,105,0
3,56,95,0
3,56,0,9
3,59,0,0
3,62,0,1
3,52,0,0
3,52,105,14
3,62,86,0
3,59,82,0
3,56,78,0
3,59,0,7
3,62,0,1
3,56,0,2
3,52,0,1
3,28,0,6
3,40,0,2
3,52,116,4
3,57,122,0
3,33,122,0
3,61,122,0
3,57,0,371
3,52,0,1
3,61,0,1
3,33,0,2
3,64,95,9
3,61,90,0
3,68,82,0
3,49,86,0
3,37,86,0
3,61,0,35
3,61,67,6
3,68,0,3
3,64,0,2
3,61,0,22
3,64,90,21
3,68,78,0
3,61,55,0
3,61,0,29
3,61,70,19
3,68,0,1
3,64,0,1
3,61,0,30
3,61,82,16
3,68,95,0
3,64,100,0
3,61,0,30
3,64,0,12
3,68,0,2
3,61,82,4
3,61,0,32
3,61,90,16
3,68,95,0
3,64,95,0
3,61,0,25
3,64,0,16
3,68,0,5
3,61,78,2
3,49,0,6
3,37,0,2
3,61,0,26
3,61,95,2
3,66,95,0
3,69,95,0
3,30,90,0
3,42,33,0
3,61,0,38
3,61,74,10
3,66,0,8
3,69,0,1
3,61,0,24
3,61,82,12
3,69,90,0
3,66,82,0
3,61,0,31
3,69,0,11
3,61,78,6
3,66,0,1
3,61,0,38
3,61,95,9
3,69,100,0
3,66,95,0
3,61,0,29
3,66,0,16
3,69,0,2
3,61,82,1
3,66,40,24
3,66,0,11
3,61,0,2
3,69,100,11
3,66,90,0
3,61,95,0
3,61,0,27
3,69,0,4
3,66,0,10
3,61,86,7
3,69,70,0
3,66,57,0
3,30,0,22
3,61,0,1
3,42,0,1
3,69,0,0
3,66,0,1
3,57,90,6
3,62,100,0
3,66,100,0
3,50,100,0
3,38,105,0
3,57,0,14
3,62,0,17
3,57,90,0
3,66,0,2
3,57,0,24
3,57,95,2
3,62,105,0
3,66,100,0
3,57,0,7
3,62,0,11
3,66,0,1
3,57,90,1
3,57,0,22
3,62,110,26
3,57,90,0
3,66,110,0
3,57,0,25
3,62,0,17
3,66,0,0
3,57,95,6
3,57,0,26
3,66,122,22
3,57,86,0
3,62,105,0
3,38,0,7
3,50,0,8
3,38,105,9
3,57,0,4
3,62,0,16
3,66,0,3
3,50,110,1
3,50,0,3
3,38,0,2
3,61,95,7
3,57,100,0
3,45,74,0
3,33,95,0
3,64,100,0
3,57,0,14
3,57,82,17
3,61,0,2
3,64,0,0
3,57,0,21
3,61,100,3
3,64,100,0
3,64,0,22
3,61,0,2
3,57,100,0
3,57,0,27
3,64,100,21
3,61,90,0
3,57,82,0
3,57,0,30
3,61,0,15
3,64,0,1
3,57,100,2
3,57,0,37
3,61,95,11
3,57,86,0
3,64,95,0
3,57,0,27
3,61,0,16
3,64,0,2
3,57,95,3
3,64,45,0
3,64,0,16
3,57,0,10
3,33,0,7
3,45,0,2
3,61,100,10
3,49,86,0
3,68,86,0
3,64,95,0
3,37,90,0
3,61,0,5
3,61,95,20
3,64,0,1
3,68,0,2
3,61,0,26
3,68,90,2
3,64,105,0
3,64,0,27
3,68,0,0
3,61,95,1
3,61,0,30
3,64,100,4
3,68,90,0
3,61,95,23
3,68,0,2
3,64,0,0
3,61,0,25
3,68,95,21
3,64,100,0
3,61,74,0
3,61,0,19
3,64,0,27
3,61,110,2
3,68,0,1
3,61,0,28
3,37,0,12
3,49,0,2
3,62,105,5
3,57,95,0
3,50,90,0
3,66,95,0
3,38,100,0
3,57,0,9
3,62,0,14
3,66,0,2
3,57,95,1
3,57,0,25
3,57,95,3
3,62,110,0
3,66,110,0
3,57,0,3
3,62,0,14
3,66,0,1
3,57,90,7
3,57,0,18
3,66,110,4
3,57,95,0
3,62,116,0
3,57,0,11
3,62,0,13
3,66,0,2
3,57,90,5
3,57,0,35
3,66,110,13
3,62,105,0
3,57,74,0
3,57,0,6
3,50,0,33
3,38,0,6
3,57,100,3
3,66,0,1
3,62,0,3
3,57,0,25
3,57,95,4
3,61,100,0
3,64,105,0
3,45,86,0
3,33,78,0
3,57,0,32
3,61,0,11
3,57,90,0
3,64,0,8
3,57,0,21
3,64,116,19
3,61,122,0
3,57,100,0
3,57,0,24
3,61,0,24
3,57,100,0
3,64,0,3
3,57,0,10
3,33,0,30
3,45,0,2
3,64,110,3
3,59,116,0
3,56,116,0
3,40,110,0
3,56,0,33
3,56,95,11
3,64,0,1
3,59,0,0
3,56,0,24
3,56,100,23
3,64,105,0
3,59,110,0
3,56,0,18
3,59,0,16
3,56,95,1
3,56,0,3
3,57,95,2
3,61,95,5
3,64,0,2
3,40,0,5
3,64,90,2
3,69,110,5
3,45,95,2
3,33,110,0
3,64,0,272
3,61,0,0
3,57,0,0
3,69,0,3
3,45,0,94
3,33,0,0
3,64,95,15
3,61,90,0
3,68,82,0
3,49,86,0
3,37,86,0
3,61,0,35
3,61,67,6
3,68,0,3
3,64,0,2
3,61,0,22
3,64,90,21
3,68,78,0
3,61,55,0
3,61,0,29
3,61,70,19
3,68,0,1
3,64,0,1
3,61,0,30
3,61,82,16
3,68,95,0
3,64,100,0
3,61,0,30
3,64,0,12
3,68,0,2
3,61,82,4
3,61,0,32
3,61,90,16
3,68,95,0
3,64,95,0
3,61,0,25
3,64,0,16
3,68,0,5
3,61,78,2
3,49,0,6
3,37,0,2
3,61,0,26
3,61,95,3
3,66,95,0
3,69,95,0
3,30,90,0
3,42,33,0
3,61,0,38
3,61,74,10
3,66,0,8
3,69,0,1
3,61,0,24
3,61,82,12
3,69,90,0
3,66,82,0
3,61,0,31
3,69,0,11
3,61,78,6
3,66,0,1
3,61,0,38
3,61,95,9
3,69,100,0
3,66,95,0
3,61,0,29
3,66,0,16
3,69,0,2
3,61,82,1
3,66,40,24
3,66,0,11
3,61,0,2
3,69,100,11
3,66,90,0
3,61,95,0
3,61,0,27
3,69,0,4
3,66,0,10
3,61,86,7
3,69,70,0
3,66,57,0
3,30,0,22
3,61,0,1
3,42,0,1
3,69,0,0
3,66,0,1
3,57,90,6
3,62,100,0
3,66,100,0
3,50,100,0
3,38,105,0
3,57,0,14
3,62,0,17
3,57,90,0
3,66,0,2
3,57,0,24
3,57,95,5
3,62,105,0
3,66,100,0
3,57,0,7
3,62,0,11
3,66,0,1
3,57,90,1
3,57,0,22
3,62,110,26
3,57,90,0
3,66,110,0
3,57,0,25
3,62,0,17
3,66,0,0
3,57,95,6
3,57,0,26
3,66,122,22
3,57,86,0
3,62,105,0
3,38,0,7
3,50,0,8
3,38,105,9
3,57,0,4
3,62,0,16
3,66,0,3
3,50,110,1
3,50,0,39
3,38,0,2
3,61,95,7
3,57,100,0
3,64,100,0
3,45,74,0
3,33,95,0
3,57,0,14
3,57,82,17
3,61,0,2
3,64,0,0
3,57,0,21
3,61,100,3
3,64,100,0
3,64,0,22
3,61,0,2
3,57,100,0
3,57,0,27
3,64,100,21
3,61,90,0
3,57,82,0
3,57,0,30
3,61,0,15
3,64,0,1
3,57,100,2
3,57,0,37
3,61,95,11
3,57,86,0
3,64,95,0
3,57,0,27
3,61,0,16
3,64,0,2
3,57,95,3
3,64,45,0
3,64,0,16
3,57,0,10
3,33,0,7
3,45,0,2
3,61,100,10
3,49,86,0
3,68,86,0
3,64,95,0
3,37,90,0
3,61,0,5
3,61,95,20
3,64,0,1
3,68,0,2
3,61,0,26
3,64,105,3
3,68,90,0
3,68,0,27
3,64,0,0
3,61,95,1
3,61,0,30
3,68,90,2
3,64,100,0
3,61,95,23
3,64,0,2
3,68,0,0
3,61,0,25
3,64,100,21
3,68,95,0
3,61,74,0
3,61,0,19
3,64,0,27
3,61,110,2
3,68,0,1
3,61,0,28
3,37,0,12
3,49,0,2
3,61,100,5
3,66,105,0
3,69,110,0
3,42,82,0
3,30,90,0
3,61,0,8
3,61,95,16
3,66,0,5
3,69,0,4
3,61,0,30
3,66,100,9
3,61,100,0
3,69,110,0
3,61,0,32
3,61,95,16
3,66,0,3
3,69,0,2
3,66,28,19
3,66,0,6
3,61,0,9
3,66,100,2
3,61,95,0
3,69,116,0
3,61,0,19
3,61,100,15
3,66,0,6
3,69,0,3
3,61,0,31
3,66,100,8
3,61,86,0
3,69,105,0
3,61,0,31
3,61,86,17
3,61,0,33
3,69,0,1
3,30,0,0
3,66,0,1
3,42,0,2
3,57,105,9
3,50,105,0
3,62,110,0
3,66,110,0
3,38,105,0
3,57,0,32
3,62,0,14
3,57,95,1
3,66,0,1
3,57,0,24
3,57,90,23
3,62,110,0
3,66,116,0
3,57,0,23
3,62,0,20
3,66,0,0
3,57,105,5
3,50,0,12
3,57,0,4
3,38,0,0
3,59,82,6
3,66,105,0
3,62,105,0
3,35,90,0
3,47,82,0
3,59,0,35
3,59,90,13
3,62,0,3
3,66,0,1
3,59,0,23
3,59,95,20
3,62,110,0
3,66,110,0
3,59,0,26
3,62,0,15
3,59,95,7
3,59,0,27
3,66,0,2
3,35,0,3
3,47,0,2
3,59,95,7
3,64,95,0
3,68,82,0
3,52,95,0
3,40,95,0
3,59,0,32
3,64,0,12
3,59,82,4
3,68,0,4
3,59,0,27
3,59,90,17
3,64,105,0
3,68,105,0
3,59,0,25
3,64,0,15
3,68,0,1
3,59,105,7
3,59,0,27
3,59,100,21
3,64,116,0
3,68,116,0
3,59,0,22
3,64,0,15
3,68,0,2
3,59,110,2
3,59,0,29
3,59,110,19
3,64,122,0
3,68,122,0
3,59,0,23
3,64,0,16
3,59,105,9
3,59,0,29
3,40,0,4
3,52,0,1
3,68,0,0
3,61,105,7
3,57,105,0
3,64,105,0
3,45,95,0
3,33,105,0
3,57,0,29
3,61,0,1
3,57,95,2
3,64,0,6
3,57,0,10
3,61,82,8
3,61,0,10
3,64,122,14
3,61,67,24
3,61,0,22
3,57,95,2
3,64,0,4
3,64,55,20
3,57,0,4
3,64,0,4
3,45,0,1
3,33,0,4
3,40,100,4
3,59,95,0
3,64,100,0
3,68,100,0
3,59,0,35
3,64,0,1
3,59,82,3
3,64,67,0
3,68,0,9
3,64,0,3
3,59,0,17
3,64,78,19
3,68,116,0
3,59,95,24
3,68,0,6
3,64,0,10
3,59,0,8
3,64,67,0
3,68,86,0
3,64,0,14
3,68,0,7
3,59,86,3
3,59,0,8
3,40,0,4
3,66,105,2
3,62,105,0
3,57,95,0
3,38,105,0
3,57,0,34
3,57,82,10
3,62,0,3
3,66,0,5
3,57,0,15
3,62,95,1
3,62,0,11
3,66,127,37
3,62,67,0
3,57,95,24
3,62,0,14
3,66,0,5
3,57,0,11
3,38,0,7
3,64,100,3
3,57,100,0
3,61,100,0
3,45,100,0
3,33,90,0
3,57,0,31
3,57,86,9
3,61,0,2
3,64,0,10
3,57,0,5
3,61,78,7
3,61,0,11
3,64,122,13
3,61,67,24
3,64,0,18
3,61,0,3
3,57,90,3
3,62,33,24
3,57,0,3
3,62,0,3
3,45,0,9
3,33,0,2
3,57,90,4
3,66,110,0
3,38,100,0
3,62,116,0
3,57,0,33
3,57,90,9
3,62,0,3
3,66,0,4
3,57,0,20
3,66,116,21
3,62,116,0
3,57,100,24
3,62,0,4
3,66,0,0
3,57,0,17
3,62,100,3
3,66,74,24
3,62,0,3
3,66,0,5
3,38,0,12
3,57,95,4
3,64,105,0
3,61,100,0
3,45,95,0
3,33,100,0
3,57,0,31
3,61,0,6
3,57,95,1
3,64,0,7
3,57,0,20
3,64,116,21
3,61,110,0
3,33,0,6
3,45,0,5
3,33,100,13
3,45,95,24
3,57,95,0
3,61,0,1
3,64,0,6
3,57,0,12
3,45,0,23
3,56,86,3
3,64,82,0
3,59,95,0
3,40,100,0
3,33,0,1
3,56,0,14
3,56,70,13
3,59,0,3
3,64,0,1
3,56,0,20
3,64,122,24
3,59,116,0
3,59,0,45
3,64,0,0
3,56,82,3
3,56,0,19
3,59,37,5
3,59,0,6
3,64,122,18
3,76,110,0
3,64,0,22
3,71,90,2
3,76,0,5
3,68,95,19
3,71,0,3
3,68,0,14
3,71,95,7
3,68,100,24
3,71,0,1
3,40,0,1
3,68,0,19
3,64,95,3
3,64,0,24
3,68,100,0
3,68,0,22
3,64,100,2
3,64,0,2
3,61,105,5
3,57,105,0
3,64,105,0
3,45,95,0
3,33,105,0
3,57,0,29
3,61,0,1
3,57,95,2
3,64,0,6
3,57,0,10
3,61,82,8
3,61,0,10
3,64,122,14
3,61,67,24
3,61,0,22
3,57,95,2
3,64,0,4
3,64,55,20
3,57,0,4
3,64,0,4
3,45,0,1
3,33,0,4
3,40,100,2
3,59,95,0
3,64,100,0
3,68,100,0
3,59,0,35
3,64,0,1
3,59,82,3
3,64,67,0
3,68,0,9
3,64,0,3
3,59,0,17
3,64,78,19
3,68,116,0
3,59,95,24
3,68,0,6
3,64,0,10
3,59,0,8
3,64,67,0
3,68,86,0
3,64,0,14
3,68,0,7
3,59,86,3
3,59,0,8
3,40,0,4
3,66,105,3
3,62,105,0
3,57,95,0
3,38,105,0
3,57,0,34
3,57,82,10
3,62,0,3
3,66,0,5
3,57,0,15
3,62,95,1
3,62,0,11
3,66,127,37
3,62,67,0
3,57,95,24
3,62,0,14
3,66,0,5
3,57,0,11
3,38,0,7
3,64,100,5
3,57,100,0
3,61,100,0
3,45,100,0
3,33,90,0
3,57,0,31
3,57,86,9
3,61,0,2
3,64,0,10
3,57,0,5
3,61,78,7
3,61,0,11
3,64,122,13
3,61,67,24
3,64,0,18
3,61,0,3
3,57,90,3
3,62,33,24
3,57,0,3
3,62,0,3
3,45,0,9
3,33,0,2
3,57,90,3
3,66,110,0
3,38,100,0
3,62,116,0
3,57,0,33
3,57,90,9
3,62,0,3
3,66,0,4
3,57,0,20
3,66,116,21
3,62,116,0
3,57,100,24
3,62,0,4
3,66,0,0
3,57,0,17
3,62,100,3
3,66,74,24
3,62,0,3
3,66,0,5
3,38,0,12
3,57,95,3
3,64,105,0
3,61,100,0
3,45,95,0
3,33,100,0
3,57,0,31
3,61,0,6
3,57,95,1
3,64,0,7
3,57,0,20
3,64,116,21
3,61,110,0
3,33,0,6
3,45,0,5
3,33,100,13
3,45,95,24
3,57,95,0
3,61,0,1
3,64,0,6
3,57,0,12
3,33,0,21
3,45,0,2
3,59,105,1
3,56,95,0
3,40,95,0
3,52,100,0
3,64,100,0
3,56,0,36
3,56,70,3
3,59,0,6
3,64,0,29
3,52,0,11
3,64,100,2
3,59,100,0
3,40,0,1
3,56,0,13
3,59,0,0
3,64,0,20
3,61,100,2
3,57,105,0
3,64,116,0
3,45,86,0
3,33,95,0
3,33,0,230
3,57,0,0
3,61,0,1
3,64,0,2
3,45,0,0
3,73,86,6
3,69,90,0
3,64,95,1
3,69,0,82
3,64,0,1
3,73,0,0
