track,note,velocity,time
3,48,96,382
3,60,96,0
3,64,103,0
3,67,99,0
3,67,0,188
3,60,0,7
3,64,0,8
3,48,0,8
3,43,85,77
3,55,99,0
3,60,99,0
3,64,96,0
3,55,0,190
3,60,0,31
3,64,0,3
3,43,0,16
3,48,115,48
3,60,96,0
3,64,107,0
3,67,96,0
3,48,0,168
3,64,0,0
3,60,0,1
3,67,0,18
3,48,107,773
3,60,111,0
3,64,115,0
3,67,96,0
3,67,0,175
3,60,0,5
3,48,0,5
3,64,0,10
3,43,94,93
3,55,103,0
3,60,99,0
3,64,103,0
3,55,0,181
3,43,0,3
3,64,0,11
3,60,0,2
3,48,107,91
3,60,115,0
3,64,107,0
3,67,96,0
3,48,0,150
3,67,0,39
3,64,0,3
3,60,0,1
3,46,107,767
3,58,119,0
3,62,119,0
3,65,91,0
3,65,0,173
3,62,0,11
3,58,0,8
3,46,0,6
3,41,94,90
3,53,94,0
3,58,107,0
3,62,103,0
3,62,0,187
3,58,0,1
3,53,0,5
3,41,0,12
3,46,107,83
3,58,111,0
3,62,111,0
3,65,91,0
3,46,0,163
3,62,0,28
3,58,0,7
3,65,0,15
3,46,107,747
3,58,107,0
3,62,111,0
3,65,91,0
3,65,0,165
3,46,0,16
3,62,0,3
3,58,0,7
3,41,88,97
3,53,99,0
3,58,103,0
3,62,107,0
3,62,0,186
3,58,0,10
3,53,0,2
3,41,0,3
3,46,107,87
3,58,103,0
3,62,119,0
3,65,80,0
3,46,0,207
3,62,0,14
3,65,0,1
3,58,0,4
3,48,96,734
3,60,96,0
3,64,103,0
3,67,99,0
3,67,0,188
3,60,0,7
3,64,0,8
3,48,0,8
3,43,85,77
3,55,99,0
3,60,99,0
3,64,96,0
3,55,0,190
3,60,0,31
3,64,0,3
3,43,0,16
3,48,115,48
3,60,96,0
3,64,107,0
3,67,96,0
3,48,0,168
3,64,0,0
3,60,0,1
3,67,0,18
3,48,107,773
3,60,111,0
3,64,115,0
3,67,96,0
3,67,0,175
3,60,0,5
3,48,0,5
3,64,0,10
3,43,94,93
3,55,103,0
3,60,99,0
3,64,103,0
3,55,0,181
3,43,0,3
3,64,0,11
3,60,0,2
3,48,107,91
3,60,115,0
3,64,107,0
3,67,96,0
3,48,0,150
3,67,0,39
3,64,0,3
3,60,0,1
3,46,107,767
3,58,119,0
3,62,119,0
3,65,91,0
3,65,0,173
3,62,0,11
3,58,0,8
3,46,0,6
3,41,94,90
3,53,94,0
3,58,107,0
3,62,103,0
3,62,0,187
3,58,0,1
3,53,0,5
3,41,0,12
3,46,107,83
3,58,111,0
3,62,111,0
3,65,91,0
3,46,0,163
3,62,0,28
3,58,0,7
3,65,0,15
3,46,107,747
3,58,107,0
3,62,111,0
3,65,91,0
3,65,0,165
3,46,0,16
3,62,0,3
3,58,0,7
3,41,88,97
3,53,99,0
3,58,103,0
3,62,107,0
3,62,0,186
3,58,0,10
3,53,0,2
3,41,0,3
3,46,107,87
3,58,103,0
3,62,119,0
3,65,80,0
3,46,0,207
3,62,0,14
3,65,0,1
3,58,0,4
3,46,83,350
3,58,107,0
3,46,0,188
3,47,94,4
3,59,99,0
3,58,0,8
3,47,0,145
3,59,0,0
3,48,96,39
3,60,96,0
3,64,103,0
3,67,99,0
3,67,0,188
3,60,0,7
3,64,0,8
3,48,0,8
3,43,85,77
3,55,99,0
3,60,99,0
3,64,96,0
3,55,0,190
3,60,0,31
3,64,0,3
3,43,0,16
3,48,115,48
3,60,96,0
3,64,107,0
3,67,96,0
3,48,0,168
3,64,0,0
3,60,0,1
3,67,0,18
3,48,107,773
3,60,111,0
3,64,115,0
3,67,96,0
3,67,0,175
3,60,0,5
3,48,0,5
3,64,0,10
3,43,94,93
3,55,103,0
3,60,99,0
3,64,103,0
3,55,0,181
3,43,0,3
3,64,0,11
3,60,0,2
3,48,107,91
3,60,115,0
3,64,107,0
3,67,96,0
3,48,0,150
3,67,0,39
3,64,0,3
3,60,0,1
3,46,107,767
3,58,119,0
3,62,119,0
3,65,91,0
3,65,0,173
3,62,0,11
3,58,0,8
3,46,0,6
3,41,94,90
3,53,94,0
3,58,107,0
3,62,103,0
3,62,0,187
3,58,0,1
3,53,0,5
3,41,0,12
3,46,107,83
3,58,111,0
3,62,111,0
3,65,91,0
3,46,0,163
3,62,0,28
3,58,0,7
3,65,0,15
3,46,107,747
3,58,107,0
3,62,111,0
3,65,91,0
3,65,0,165
3,46,0,16
3,62,0,3
3,58,0,7
3,41,88,97
3,53,99,0
3,58,103,0
3,62,107,0
3,62,0,186
3,58,0,10
3,53,0,2
3,41,0,3
3,46,107,87
3,58,103,0
3,62,119,0
3,65,80,0
3,46,0,207
3,62,0,14
3,65,0,1
3,58,0,4
3,48,96,734
3,60,96,0
3,64,103,0
3,67,99,0
3,67,0,188
3,60,0,7
3,64,0,8
3,48,0,8
3,43,85,77
3,55,99,0
3,60,99,0
3,64,96,0
3,55,0,190
3,60,0,31
3,64,0,3
3,43,0,16
3,48,115,48
3,60,96,0
3,64,107,0
3,67,96,0
3,48,0,168
3,64,0,0
3,60,0,1
3,67,0,18
3,48,107,773
3,60,111,0
3,64,115,0
3,67,96,0
3,67,0,175
3,60,0,5
3,48,0,5
3,64,0,10
3,43,94,93
3,55,103,0
3,60,99,0
3,64,103,0
3,55,0,181
3,43,0,3
3,64,0,11
3,60,0,2
3,48,107,91
3,60,115,0
3,64,107,0
3,67,96,0
3,48,0,150
3,67,0,39
3,64,0,3
3,60,0,1
3,46,107,767
3,58,119,0
3,62,119,0
3,65,91,0
3,65,0,173
3,62,0,11
3,58,0,8
3,46,0,6
3,41,94,90
3,53,94,0
3,58,107,0
3,62,103,0
3,62,0,187
3,58,0,1
3,53,0,5
3,41,0,12
3,46,107,83
3,58,111,0
3,62,111,0
3,65,91,0
3,46,0,163
3,62,0,28
3,58,0,7
3,65,0,15
3,46,107,747
3,58,107,0
3,62,111,0
3,65,91,0
3,65,0,165
3,46,0,16
3,62,0,3
3,58,0,7
3,41,88,97
3,53,99,0
3,58,103,0
3,62,107,0
3,62,0,186
3,58,0,10
3,53,0,2
3,41,0,3
3,46,107,87
3,58,103,0
3,62,119,0
3,65,80,0
3,46,0,207
3,62,0,14
3,65,0,1
3,58,0,4
3,46,69,350
3,58,83,0
3,46,0,149
3,58,0,35
3,47,76,8
3,59,81,0
3,59,0,161
3,47,0,14
3,48,96,17
3,60,96,0
3,64,103,0
3,67,99,0
3,67,0,188
3,60,0,7
3,64,0,8
3,48,0,8
3,43,85,77
3,55,99,0
3,60,99,0
3,64,96,0
3,55,0,190
3,60,0,31
3,64,0,3
3,43,0,16
3,48,115,48
3,60,96,0
3,64,107,0
3,67,96,0
3,48,0,168
3,64,0,0
3,60,0,1
3,67,0,18
3,48,107,773
3,60,111,0
3,64,115,0
3,67,96,0
3,67,0,175
3,60,0,5
3,48,0,5
3,64,0,10
3,43,94,93
3,55,103,0
3,60,99,0
3,64,103,0
3,55,0,181
3,43,0,3
3,64,0,11
3,60,0,2
3,48,107,91
3,60,115,0
3,64,107,0
3,67,96,0
3,48,0,150
3,67,0,39
3,64,0,3
3,60,0,1
3,46,107,767
3,58,119,0
3,62,119,0
3,65,91,0
3,65,0,173
3,62,0,11
3,58,0,8
3,46,0,6
3,41,94,90
3,53,94,0
3,58,107,0
3,62,103,0
3,62,0,187
3,58,0,1
3,53,0,5
3,41,0,12
3,46,107,83
3,58,111,0
3,62,111,0
3,65,91,0
3,46,0,163
3,62,0,28
3,58,0,7
3,65,0,15
3,46,107,747
3,58,107,0
3,62,111,0
3,65,91,0
3,65,0,165
3,46,0,16
3,62,0,3
3,58,0,7
3,41,88,97
3,53,99,0
3,58,103,0
3,62,107,0
3,62,0,186
3,58,0,10
3,53,0,2
3,41,0,3
3,46,107,87
3,58,103,0
3,62,119,0
3,65,80,0
3,46,0,207
3,62,0,14
3,65,0,1
3,58,0,4
3,46,63,350
3,58,87,0
3,46,0,188
3,47,74,4
3,59,79,0
3,58,0,8
3,47,0,145
3,59,0,0
3,48,99,39
3,60,99,0
3,64,99,0
3,67,94,0
3,67,0,169
3,60,0,9
3,64,0,7
3,48,0,14
3,43,88,89
3,55,99,0
3,60,96,0
3,64,91,0
3,55,0,175
3,60,0,28
3,64,0,13
3,43,0,15
3,48,103,57
3,60,103,0
3,64,107,0
3,67,103,0
3,48,0,740
3,67,0,6
3,64,0,3
3,60,0,9
3,48,99,202
3,60,96,0
3,64,111,0
3,67,96,0
3,60,0,178
3,67,0,1
3,64,0,15
3,48,0,5
3,43,88,89
3,55,103,0
3,60,107,0
3,64,96,0
3,55,0,187
3,60,0,30
3,64,0,13
3,43,0,1
3,48,103,57
3,60,103,0
3,64,103,0
3,67,94,0
3,67,0,684
3,60,0,6
3,64,0,8
3,48,0,42
3,48,96,220
3,60,96,0
3,64,103,0
3,67,99,0
3,67,0,188
3,60,0,7
3,64,0,8
3,48,0,8
3,43,85,77
3,55,99,0
3,60,99,0
3,64,96,0
3,55,0,190
3,60,0,31
3,64,0,3
3,43,0,16
3,48,115,48
3,60,96,0
3,64,107,0
3,67,96,0
3,48,0,168
3,64,0,0
3,60,0,1
3,67,0,18
3,48,107,773
3,60,111,0
3,64,115,0
3,67,96,0
3,67,0,175
3,60,0,5
3,48,0,5
3,64,0,10
3,43,94,93
3,55,103,0
3,60,99,0
3,64,103,0
3,55,0,181
3,43,0,3
3,64,0,11
3,60,0,2
3,48,107,91
3,60,115,0
3,64,107,0
3,67,96,0
3,48,0,150
3,67,0,39
3,64,0,3
3,60,0,1
3,46,107,767
3,58,119,0
3,62,119,0
3,65,91,0
3,65,0,173
3,62,0,11
3,58,0,8
3,46,0,6
3,41,94,90
3,53,94,0
3,58,107,0
3,62,103,0
3,62,0,187
3,58,0,1
3,53,0,5
3,41,0,12
3,46,107,83
3,58,111,0
3,62,111,0
3,65,91,0
3,46,0,163
3,62,0,28
3,58,0,7
3,65,0,15
3,46,107,747
3,58,107,0
3,62,111,0
3,65,91,0
3,65,0,165
3,46,0,16
3,62,0,3
3,58,0,7
3,41,88,97
3,53,99,0
3,58,103,0
3,62,107,0
3,62,0,186
3,58,0,10
3,53,0,2
3,41,0,3
3,46,107,87
3,58,103,0
3,62,119,0
3,65,80,0
3,46,0,207
3,62,0,14
3,65,0,1
3,58,0,4
3,46,69,350
3,58,83,0
3,46,0,149
3,58,0,35
3,47,76,8
3,59,81,0
3,59,0,161
3,47,0,14
3,48,96,17
3,60,96,0
3,64,103,0
3,67,99,0
3,67,0,188
3,60,0,7
3,64,0,8
3,48,0,8
3,43,85,77
3,55,99,0
3,60,99,0
3,64,96,0
3,55,0,190
3,60,0,31
3,64,0,3
3,43,0,16
3,48,115,48
3,60,96,0
3,64,107,0
3,67,96,0
3,48,0,168
3,64,0,0
3,60,0,1
3,67,0,18
3,48,107,773
3,60,111,0
3,64,115,0
3,67,96,0
3,67,0,175
3,60,0,5
3,48,0,5
3,64,0,10
3,43,94,93
3,55,103,0
3,60,99,0
3,64,103,0
3,55,0,181
3,43,0,3
3,64,0,11
3,60,0,2
3,48,107,91
3,60,115,0
3,64,107,0
3,67,96,0
3,48,0,150
3,67,0,39
3,64,0,3
3,60,0,1
3,46,107,767
3,58,119,0
3,62,119,0
3,65,91,0
3,65,0,173
3,62,0,11
3,58,0,8
3,46,0,6
3,41,94,90
3,53,94,0
3,58,107,0
3,62,103,0
3,62,0,187
3,58,0,1
3,53,0,5
3,41,0,12
3,46,107,83
3,58,111,0
3,62,111,0
3,65,91,0
3,46,0,163
3,62,0,28
3,58,0,7
3,65,0,15
3,46,107,747
3,58,107,0
3,62,111,0
3,65,91,0
3,65,0,165
3,46,0,16
3,62,0,3
3,58,0,7
3,41,88,97
3,53,99,0
3,58,103,0
3,62,107,0
3,62,0,186
3,58,0,10
3,53,0,2
3,41,0,3
3,46,107,87
3,58,103,0
3,62,119,0
3,65,80,0
3,46,0,207
3,62,0,14
3,65,0,1
3,58,0,4
3,46,63,350
3,58,87,0
3,46,0,188
3,47,74,4
3,59,79,0
3,58,0,8
3,47,0,145
3,59,0,0
3,48,99,39
3,60,99,0
3,64,99,0
3,67,94,0
3,67,0,169
3,60,0,9
3,64,0,7
3,48,0,14
3,43,88,89
3,55,99,0
3,60,96,0
3,64,91,0
3,55,0,175
3,60,0,28
3,64,0,13
3,43,0,15
3,48,103,57
3,60,103,0
3,64,107,0
3,67,103,0
3,48,0,740
3,67,0,6
3,64,0,3
3,60,0,9
3,48,99,202
3,60,96,0
3,64,111,0
3,67,96,0
3,60,0,178
3,67,0,1
3,64,0,15
3,48,0,5
3,43,88,89
3,55,103,0
3,60,107,0
3,64,96,0
3,55,0,187
3,60,0,30
3,64,0,13
3,43,0,1
3,48,103,57
3,60,103,0
3,64,103,0
3,67,94,0
3,67,0,684
3,60,0,6
3,64,0,8
3,48,0,42
3,65,109,220
3,69,104,0
3,74,98,0
3,74,0,53
3,65,0,5
3,69,0,3
3,65,48,131
3,69,67,0
3,74,78,0
3,65,0,35
3,69,0,12
3,74,0,3
3,65,74,142
3,69,69,0
3,74,74,0
3,74,0,44
3,69,0,1
3,65,0,4
3,65,104,143
3,69,98,0
3,74,104,0
3,74,0,48
3,69,0,11
3,65,0,3
3,65,59,130
3,69,65,0
3,74,73,0
3,74,0,46
3,65,0,3
3,69,0,3
3,65,65,140
3,69,60,0
3,74,77,0
3,74,0,46
3,69,0,6
3,65,0,1
3,65,93,139
3,69,93,0
3,74,89,0
3,74,0,55
3,65,0,7
3,69,0,6
3,65,67,124
3,69,68,0
3,74,78,0
3,74,0,59
3,65,0,4
3,69,0,3
3,67,90,126
3,71,104,0
3,74,93,0
3,74,0,53
3,67,0,4
3,71,0,5
3,67,68,130
3,71,85,0
3,74,83,0
3,67,0,41
3,74,0,3
3,71,0,3
3,67,54,145
3,71,65,0
3,74,74,0
3,67,0,43
3,74,0,3
3,71,0,1
3,67,91,145
3,71,109,0
3,74,101,0
3,67,0,54
3,74,0,4
3,71,0,2
3,67,64,132
3,71,75,0
3,74,75,0
3,74,0,48
3,67,0,4
3,71,0,3
3,67,69,137
3,71,73,0
3,74,74,0
3,74,0,47
3,71,0,7
3,67,0,2
3,67,95,136
3,71,104,0
3,74,98,0
3,67,0,55
3,71,0,1
3,74,0,0
3,67,75,136
3,71,86,0
3,74,86,0
3,67,0,51
3,74,0,5
3,71,0,3
3,67,101,133
3,72,104,0
3,76,98,0
3,76,0,56
3,67,0,5
3,72,0,4
3,67,85,127
3,72,85,0
3,76,78,0
3,76,0,33
3,67,0,4
3,72,0,9
3,67,72,146
3,72,79,0
3,76,79,0
3,67,0,35
3,76,0,7
3,72,0,4
3,67,95,146
3,72,106,0
3,76,95,0
3,76,0,50
3,67,0,12
3,72,0,10
3,67,78,120
3,72,89,0
3,76,83,0
3,76,0,44
3,67,0,3
3,72,0,5
3,67,74,140
3,72,80,0
3,76,82,0
3,76,0,44
3,67,0,7
3,72,0,3
3,67,91,138
3,72,104,0
3,76,104,0
3,67,0,56
3,76,0,6
3,72,0,4
3,67,68,126
3,72,70,0
3,76,84,0
3,72,0,60
3,76,0,7
3,67,0,4
3,65,98,121
3,69,101,0
3,72,104,0
3,65,0,54
3,69,0,5
3,72,0,6
3,65,68,127
3,69,60,0
3,72,73,0
3,72,0,43
3,69,0,4
3,65,0,7
3,65,77,138
3,69,77,0
3,72,85,0
3,65,0,43
3,69,0,3
3,72,0,2
3,65,101,144
3,69,101,0
3,72,104,0
3,65,0,59
3,69,0,1
3,72,0,10
3,65,67,122
3,69,70,0
3,72,78,0
3,69,0,34
3,65,0,1
3,72,0,11
3,65,68,146
3,69,64,0
3,72,75,0
3,69,0,50
3,72,0,6
3,65,0,3
3,65,91,133
3,69,101,0
3,72,101,0
3,69,0,52
3,65,0,7
3,72,0,2
3,65,74,131
3,69,69,0
3,72,84,0
3,65,0,48
3,69,0,0
3,72,0,6
