track,note,velocity,time
0,47,65,4
0,28,100,6
0,45,58,11
0,40,86,5
0,43,91,1
0,38,73,11
0,52,82,2
0,56,95,0
0,62,105,0
0,59,95,0
0,28,76,0
0,52,40,7
0,56,47,0
0,62,67,0
0,59,55,0
0,28,74,0
0,38,77,0
0,56,67,13
0,52,86,0
0,59,86,0
0,62,86,0
0,28,72,0
0,43,73,0
0,38,58,0
0,56,60,15
0,52,90,0
0,59,90,0
0,62,95,0
0,28,74,0
0,43,61,0
0,38,58,0
0,62,86,13
0,52,82,0
0,59,86,0
0,56,64,0
0,28,81,0
0,47,73,0
0,43,73,0
0,38,65,0
0,52,64,14
0,59,74,0
0,56,64,0
0,62,64,0
0,47,46,0
0,43,69,0
0,38,61,0
0,62,67,15
0,52,60,0
0,59,70,0
0,56,67,0
0,28,86,0
0,47,86,0
0,43,81,0
0,38,86,0
0,56,70,9
0,62,95,0
0,59,82,0
0,52,90,0
0,47,91,0
0,43,91,0
0,38,91,0
0,56,100,17
0,59,100,0
0,62,110,0
0,52,100,0
0,28,91,0
0,47,100,0
0,43,100,0
0,38,100,0
0,56,95,23
0,52,100,0
0,62,100,0
0,59,95,0
0,47,103,0
0,43,103,0
0,38,103,0
0,62,105,23
0,52,105,0
0,59,105,0
0,56,95,0
0,28,95,0
0,47,108,0
0,43,108,0
0,38,108,0
0,52,105,28
0,62,86,0
0,59,82,0
0,56,78,0
0,47,108,0
0,43,108,0
0,38,108,0
0,64,67,5
0,61,72,1
0,52,116,2
0,57,122,0
0,33,122,0
0,61,122,0
0,33,100,0
0,49,85,0
0,76,86,6
0,76,88,7
0,76,88,10
0,74,86,15
0,74,84,1
0,42,78,47
0,44,67,46
0,73,90,14
0,46,55,5
0,73,84,1
0,64,74,0
0,61,82,0
0,64,95,3
0,61,90,0
0,68,82,0
0,49,86,0
0,37,86,0
0,37,79,0
0,61,67,12
0,73,84,2
0,64,90,41
0,68,78,0
0,61,55,0
0,42,82,0
0,61,70,38
0,61,82,31
0,68,95,0
0,64,100,0
0,61,82,7
0,61,90,32
0,68,95,0
0,64,95,0
0,42,64,0
0,61,78,4
0,37,70,0
0,61,95,4
0,66,95,0
0,69,95,0
0,30,90,0
0,42,33,0
0,30,70,0
0,66,78,1
0,61,74,20
0,61,82,24
0,69,90,0
0,66,82,0
0,42,70,0
0,73,89,8
0,61,78,4
0,73,91,21
0,61,95,17
0,69,100,0
0,66,95,0
0,73,91,2
0,73,88,17
0,61,82,2
0,74,89,17
0,66,40,8
0,69,100,22
0,66,90,0
0,61,95,0
0,42,78,0
0,73,91,3
0,61,86,10
0,69,70,0
0,66,57,0
0,73,89,22
0,66,70,3
0,57,90,4
0,62,100,0
0,66,100,0
0,50,100,0
0,38,105,0
0,38,72,0
0,62,76,0
0,71,88,5
0,69,93,4
0,57,90,3
0,57,95,3
0,62,105,0
0,66,100,0
0,42,86,0
0,57,90,1
0,62,110,52
0,57,90,0
0,66,110,0
0,57,95,11
0,66,122,44
0,57,86,0
0,62,105,0
0,42,100,0
0,38,105,18
0,42,74,0
0,50,110,2
0,46,74,0
0,64,74,7
0,61,72,5
0,61,95,1
0,57,100,0
0,45,74,0
0,33,95,0
0,64,100,0
0,33,79,0
0,57,82,33
0,61,100,5
0,64,100,0
0,42,90,0
0,69,95,0
0,57,100,0
0,69,93,24
0,69,95,23
0,64,100,4
0,61,90,0
0,57,82,0
0,69,88,23
0,57,100,3
0,71,86,11
0,61,95,22
0,57,86,0
0,64,95,0
0,42,100,0
0,69,86,9
0,57,95,5
0,64,45,0
0,76,86,2
0,64,72,7
0,61,74,3
0,61,100,10
0,49,86,0
0,68,86,0
0,64,95,0
0,37,90,0
0,37,78,0
0,61,95,39
0,68,90,3
0,64,105,0
0,42,100,0
0,61,95,1
0,64,100,7
0,68,90,0
0,61,95,45
0,68,95,41
0,64,100,0
0,61,74,0
0,42,95,0
0,61,110,3
0,46,64,0
0,62,72,3
0,66,72,0
0,62,105,6
0,57,95,0
0,50,90,0
0,66,95,0
0,38,100,0
0,38,77,0
0,57,95,1
0,57,95,6
0,62,110,0
0,66,110,0
0,42,105,0
0,69,91,9
0,57,90,4
0,69,90,7
0,66,110,8
0,57,95,0
0,62,116,0
0,69,95,0
0,69,95,2
0,57,90,7
0,71,95,19
0,66,110,26
0,62,105,0
0,57,74,0
0,42,100,0
0,69,95,7
0,57,100,6
0,76,84,6
0,64,69,5
0,57,95,2
0,61,100,0
0,64,105,0
0,45,86,0
0,33,78,0
0,33,69,0
0,61,70,2
0,57,90,0
0,64,116,38
0,61,122,0
0,57,100,0
0,42,95,0
0,57,100,0
0,64,110,5
0,59,116,0
0,56,116,0
0,40,110,0
0,40,79,0
0,42,64,0
0,59,69,1
0,35,77,3
0,42,70,0
0,56,95,6
0,28,81,0
0,46,78,0
0,56,100,45
0,64,105,0
0,59,110,0
0,56,95,1
0,57,95,4
0,61,95,9
0,64,90,2
0,64,67,4
0,61,67,0
0,69,110,4
0,45,95,3
0,33,110,0
0,33,89,0
0,76,89,4
0,76,89,23
0,76,89,24
0,74,95,18
0,45,95,13
0,74,95,5
0,59,48,5
0,51,48,1
0,59,46,15
0,33,102,6
0,73,86,11
0,51,36,9
0,73,84,17
0,59,27,5
0,64,95,10
0,61,90,0
0,68,82,0
0,49,86,0
0,37,86,0
0,37,102,0
0,55,48,0
0,35,100,0
0,68,60,1
0,37,103,21
0,35,107,0
0,61,67,12
0,42,57,0
0,73,86,1
0,64,90,41
0,68,78,0
0,61,55,0
0,42,105,0
0,37,110,0
0,61,70,38
0,42,52,0
0,32,67,7
0,61,82,9
0,68,95,0
0,64,100,0
0,37,70,0
0,42,57,0
0,32,86,5
0,61,82,7
0,37,100,0
0,42,40,0
0,61,90,32
0,68,95,0
0,64,95,0
0,42,100,0
0,61,78,4
0,46,67,0
0,61,95,6
0,66,95,0
0,69,95,0
0,30,90,0
0,42,33,0
0,30,105,0
0,42,90,0
0,35,95,0
0,66,67,2
0,69,67,5
0,30,108,30
0,61,74,20
0,42,64,0
0,35,95,0
0,61,82,24
0,69,90,0
0,66,82,0
0,54,95,0
0,42,78,0
0,73,89,10
0,61,78,2
0,42,55,0
0,73,89,22
0,73,88,15
0,61,95,2
0,69,100,0
0,66,95,0
0,42,64,0
0,73,88,9
0,61,82,2
0,42,55,0
0,35,64,0
0,66,40,46
0,69,100,22
0,66,90,0
0,61,95,0
0,42,82,0
0,73,82,18
0,74,86,0
0,61,86,13
0,69,70,0
0,66,57,0
0,44,78,0
0,73,90,5
0,73,88,16
0,66,64,7
0,62,64,2
0,57,90,2
0,62,100,0
0,66,100,0
0,50,100,0
0,38,105,0
0,38,103,0
0,42,70,0
0,35,122,0
0,38,102,13
0,35,102,0
0,71,89,4
0,57,90,19
0,42,52,0
0,69,84,4
0,57,95,9
0,62,105,0
0,66,100,0
0,42,78,0
0,37,116,0
0,57,90,1
0,42,55,0
0,33,90,4
0,62,110,20
0,57,90,0
0,66,110,0
0,38,100,0
0,42,64,0
0,33,105,20
0,42,64,0
0,57,95,11
0,38,107,0
0,42,74,0
0,35,95,0
0,66,122,44
0,57,86,0
0,62,105,0
0,42,70,0
0,38,105,18
0,42,74,0
0,50,110,2
0,46,67,0
0,64,64,10
0,61,95,3
0,57,100,0
0,64,100,0
0,45,74,0
0,33,95,0
0,33,110,0
0,42,78,0
0,35,116,0
0,61,64,2
0,33,110,13
0,35,95,0
0,57,82,33
0,42,70,0
0,61,100,5
0,64,100,0
0,54,110,0
0,42,100,0
0,69,96,1
0,57,100,0
0,42,47,0
0,69,96,25
0,64,100,26
0,61,90,0
0,57,82,0
0,42,70,0
0,69,96,1
0,57,100,3
0,42,67,0
0,35,67,0
0,61,95,22
0,57,86,0
0,64,95,0
0,42,95,0
0,69,88,40
0,71,90,3
0,57,95,2
0,64,45,0
0,42,64,0
0,69,93,9
0,68,67,5
0,76,91,6
0,61,100,1
0,49,86,0
0,68,86,0
0,64,95,0
0,37,90,0
0,37,107,0
0,42,70,0
0,35,122,0
0,37,102,1
0,35,116,0
0,61,95,5
0,42,57,0
0,76,82,1
0,64,105,5
0,68,90,0
0,42,105,0
0,37,110,0
0,61,95,1
0,42,60,0
0,32,89,8
0,68,90,3
0,64,100,0
0,37,89,0
0,42,74,0
0,32,86,15
0,69,84,17
0,61,95,3
0,37,96,0
0,42,64,0
0,35,96,0
0,69,90,22
0,64,100,23
0,68,95,0
0,61,74,0
0,42,82,0
0,69,88,2
0,69,91,7
0,42,74,2
0,71,90,40
0,61,110,3
0,46,64,0
0,69,88,8
0,66,74,0
0,69,74,0
0,78,89,5
0,61,100,4
0,66,105,0
0,69,110,0
0,42,82,0
0,30,90,0
0,30,103,0
0,42,82,0
0,35,105,0
0,30,103,0
0,35,100,0
0,61,95,31
0,42,64,0
0,66,100,18
0,61,100,0
0,69,110,0
0,54,105,0
0,42,95,0
0,61,95,32
0,30,100,0
0,42,47,0
0,66,28,6
0,33,103,0
0,66,100,4
0,61,95,0
0,69,116,0
0,42,108,0
0,42,74,0
0,69,86,21
0,61,100,8
0,42,70,0
0,35,105,0
0,69,86,21
0,66,100,15
0,61,86,0
0,69,105,0
0,42,78,0
0,69,93,1
0,42,49,17
0,69,93,2
0,61,86,10
0,33,100,0
0,42,74,0
0,71,91,2
0,30,100,7
0,69,88,3
0,66,74,7
0,62,74,0
0,57,105,3
0,50,105,0
0,62,110,0
0,66,110,0
0,38,105,0
0,38,103,0
0,42,78,0
0,35,112,0
0,78,91,2
0,38,103,26
0,35,117,0
0,57,95,1
0,42,67,0
0,57,90,45
0,62,110,0
0,66,116,0
0,54,122,0
0,42,78,0
0,57,105,9
0,37,105,0
0,42,78,0
0,59,76,2
0,59,82,5
0,66,105,0
0,62,105,0
0,35,90,0
0,47,82,0
0,35,105,0
0,42,78,0
0,59,90,19
0,42,78,0
0,35,95,0
0,59,95,39
0,62,110,0
0,66,110,0
0,42,90,0
0,44,64,46
0,78,91,7
0,59,95,7
0,35,107,0
0,46,70,0
0,78,95,21
0,64,76,1
0,68,76,1
0,80,95,5
0,59,95,6
0,64,95,0
0,68,82,0
0,52,95,0
0,40,95,0
0,40,107,0
0,46,65,0
0,35,116,0
0,35,100,6
0,35,119,0
0,59,82,1
0,28,107,0
0,78,93,3
0,76,86,6
0,59,90,13
0,64,105,0
0,68,105,0
0,46,70,0
0,38,127,0
0,59,105,13
0,35,105,15
0,38,122,0
0,59,100,3
0,64,116,0
0,68,116,0
0,40,105,0
0,46,67,0
0,35,110,6
0,38,122,0
0,59,110,3
0,40,107,0
0,38,127,0
0,59,110,37
0,64,122,0
0,68,122,0
0,47,127,0
0,46,76,0
0,35,110,2
0,45,82,0
0,73,100,3
0,59,105,3
0,28,110,0
0,43,127,0
0,71,105,6
0,73,110,3
0,64,100,0
0,69,110,0
0,69,74,1
0,61,105,4
0,57,105,0
0,64,105,0
0,45,95,0
0,33,105,0
0,33,112,0
0,49,85,0
0,35,127,0
0,69,105,2
0,81,95,6
0,69,103,4
0,57,95,3
0,33,114,0
0,51,100,0
0,35,127,0
0,69,103,8
0,61,82,16
0,64,122,28
0,51,105,0
0,44,105,0
0,38,122,0
0,61,67,9
0,28,115,0
0,69,103,8
0,57,95,4
0,33,110,0
0,51,100,0
0,35,55,0
0,73,102,6
0,64,55,9
0,28,112,0
0,38,78,0
0,80,78,0
0,68,100,1
0,71,95,2
0,76,103,3
0,40,100,1
0,59,95,0
0,64,100,0
0,68,100,0
0,40,114,0
0,64,86,0
0,59,90,0
0,44,127,0
0,35,95,0
0,68,100,1
0,68,82,1
0,35,112,0
0,35,95,0
0,59,82,6
0,64,67,0
0,28,112,0
0,51,105,0
0,35,127,0
0,76,100,3
0,64,78,37
0,68,116,0
0,59,95,0
0,44,116,0
0,38,117,0
0,59,95,4
0,28,114,0
0,78,100,10
0,64,67,9
0,68,86,0
0,35,110,0
0,51,70,0
0,80,105,2
0,59,86,5
0,40,112,0
0,38,114,0
0,78,82,1
0,74,86,4
0,66,105,1
0,69,95,0
0,66,105,4
0,62,105,0
0,57,95,0
0,38,105,0
0,38,114,0
0,59,82,0
0,44,122,0
0,35,116,0
0,62,90,1
0,66,74,1
0,81,100,0
0,51,67,46
0,57,82,18
0,38,114,0
0,59,86,0
0,35,127,0
0,81,100,1
0,62,95,2
0,81,96,18
0,51,105,1
0,44,116,0
0,38,121,0
0,66,127,7
0,62,67,0
0,33,112,0
0,78,102,1
0,57,95,8
0,38,115,0
0,59,82,0
0,38,100,10
0,76,98,1
0,76,82,0
0,64,95,0
0,69,71,2
0,64,95,1
0,69,90,1
0,64,100,1
0,57,100,0
0,61,100,0
0,45,100,0
0,33,90,0
0,33,112,0
0,51,78,0
0,44,116,0
0,35,90,0
0,73,86,2
0,33,114,23
0,59,52,0
0,35,90,0
0,57,86,10
0,28,114,0
0,51,82,0
0,35,127,0
0,61,78,13
0,64,122,6
0,33,114,0
0,51,78,0
0,44,122,0
0,38,122,0
0,78,100,11
0,61,67,8
0,59,67,0
0,57,90,5
0,28,105,0
0,51,70,0
0,76,102,13
0,62,33,7
0,33,112,0
0,59,70,0
0,38,90,0
0,66,90,2
0,78,78,1
0,74,100,3
0,62,100,1
0,66,86,2
0,69,95,0
0,57,90,1
0,66,110,0
0,38,100,0
0,62,116,0
0,38,112,0
0,74,95,0
0,51,95,0
0,44,116,0
0,35,122,0
0,38,114,22
0,74,100,8
0,57,90,3
0,33,112,0
0,51,90,0
0,35,127,0
0,66,116,14
0,62,116,0
0,38,114,0
0,59,86,0
0,44,116,0
0,38,116,0
0,57,100,12
0,76,98,3
0,62,100,5
0,51,86,0
0,74,98,9
0,66,74,11
0,33,114,0
0,38,95,0
0,64,100,2
0,76,86,1
0,64,86,4
0,73,96,0
0,57,95,1
0,64,105,0
0,61,100,0
0,45,95,0
0,33,100,0
0,69,70,0
0,51,78,0
0,44,116,0
0,35,122,0
0,73,82,3
0,33,114,24
0,59,70,0
0,57,95,1
0,28,115,0
0,73,93,0
0,51,78,0
0,35,127,0
0,64,116,22
0,61,110,0
0,33,112,0
0,51,86,0
0,44,116,0
0,38,116,0
0,33,100,26
0,74,95,5
0,45,95,40
0,57,95,0
0,59,95,0
0,73,96,1
0,33,108,9
0,38,90,0
0,68,90,3
0,71,100,1
0,64,90,4
0,56,86,2
0,64,82,0
0,59,95,0
0,40,100,0
0,40,114,0
0,68,90,0
0,51,82,0
0,44,122,0
0,35,116,0
0,76,86,3
0,73,96,3
0,64,116,0
0,35,114,6
0,59,82,0
0,56,70,19
0,28,112,0
0,51,82,0
0,35,116,0
0,64,122,48
0,59,116,0
0,51,82,0
0,44,116,0
0,38,116,0
0,35,114,3
0,56,82,5
0,40,112,0
0,59,82,0
0,74,95,5
0,59,37,5
0,28,114,0
0,38,95,0
0,73,102,0
0,64,122,1
0,76,110,0
0,32,114,0
0,51,78,0
0,44,105,0
0,35,105,0
0,71,100,1
0,71,90,3
0,35,114,0
0,38,95,0
0,74,90,4
0,62,116,3
0,68,95,3
0,38,110,0
0,59,82,0
0,38,122,0
0,71,95,7
0,28,114,0
0,68,100,2
0,47,116,0
0,51,82,0
0,44,116,0
0,38,122,0
0,73,100,2
0,61,122,4
0,64,95,6
0,73,100,0
0,45,116,0
0,59,86,0
0,59,116,4
0,68,100,3
0,40,114,0
0,43,105,0
0,51,74,0
0,71,90,0
0,71,102,1
0,64,100,1
0,35,114,0
0,41,78,0
0,64,90,3
0,73,100,0
0,69,100,0
0,69,100,1
0,61,105,2
0,57,105,0
0,64,105,0
0,45,95,0
0,33,105,0
0,33,115,0
0,49,85,0
0,35,127,0
0,81,86,1
0,69,108,4
0,69,95,2
0,57,95,3
0,33,115,0
0,59,100,0
0,35,122,0
0,69,105,2
0,61,82,16
0,64,122,28
0,51,82,0
0,44,116,0
0,38,121,0
0,61,67,3
0,28,115,0
0,69,100,9
0,57,95,4
0,33,115,0
