track,note,velocity,time
0,47,65,529
0,28,100,3
0,45,58,5
0,40,86,3
0,43,91,0
0,38,73,6
0,52,82,1
0,56,95,0
0,62,105,0
0,59,95,0
0,28,76,0
0,52,40,4
0,56,47,0
0,62,67,0
0,59,55,0
0,28,74,0
0,38,77,0
0,56,67,7
0,52,86,0
0,59,86,0
0,62,86,0
0,28,72,0
0,43,73,0
0,38,58,0
0,56,60,8
0,52,90,0
0,59,90,0
0,62,95,0
0,28,74,0
0,43,61,0
0,38,58,0
0,62,86,7
0,52,82,0
0,59,86,0
0,56,64,0
0,28,81,0
0,47,73,0
0,43,73,0
0,38,65,0
0,52,64,7
0,59,74,0
0,56,64,0
0,62,64,0
0,47,46,0
0,43,69,0
0,38,61,0
0,62,67,8
0,52,60,0
0,59,70,0
0,56,67,0
0,28,86,0
0,47,86,0
0,43,81,0
0,38,86,0
0,56,70,5
0,62,95,0
0,59,82,0
0,52,90,0
0,47,91,0
0,43,91,0
0,38,91,0
0,56,100,9
0,59,100,0
0,62,110,0
0,52,100,0
0,28,91,0
0,47,100,0
0,43,100,0
0,38,100,0
0,56,95,12
0,52,100,0
0,62,100,0
0,59,95,0
0,47,103,0
0,43,103,0
0,38,103,0
0,62,105,12
0,52,105,0
0,59,105,0
0,56,95,0
0,28,95,0
0,47,108,0
0,43,108,0
0,38,108,0
0,52,105,14
0,62,86,0
0,59,82,0
0,56,78,0
0,47,108,0
0,43,108,0
0,38,108,0
0,64,67,2
0,61,72,1
0,52,116,1
0,57,122,0
0,33,122,0
0,61,122,0
0,33,100,0
0,49,85,0
0,76,86,98
0,76,88,9
0,76,88,10
0,74,86,8
0,74,84,11
0,42,78,24
0,44,67,23
0,73,90,7
0,46,55,3
0,73,84,9
0,64,74,0
0,61,82,0
0,64,95,2
0,61,90,0
0,68,82,0
0,49,86,0
0,37,86,0
0,37,79,0
0,61,67,6
0,73,84,1
0,64,90,21
0,68,78,0
0,61,55,0
0,42,82,0
0,61,70,19
0,61,82,16
0,68,95,0
0,64,100,0
0,61,82,4
0,61,90,16
0,68,95,0
0,64,95,0
0,42,64,0
0,61,78,2
0,37,70,0
0,61,95,2
0,66,95,0
0,69,95,0
0,30,90,0
0,42,33,0
0,30,70,0
0,66,78,0
0,61,74,10
0,61,82,12
0,69,90,0
0,66,82,0
0,42,70,0
0,73,89,4
0,61,78,2
0,73,91,10
0,61,95,9
0,69,100,0
0,66,95,0
0,73,91,1
0,73,88,9
0,61,82,1
0,74,89,9
0,66,40,4
0,69,100,11
0,66,90,0
0,61,95,0
0,42,78,0
0,73,91,2
0,61,86,5
0,69,70,0
0,66,57,0
0,73,89,11
0,66,70,2
0,57,90,2
0,62,100,0
0,66,100,0
0,50,100,0
0,38,105,0
0,38,72,0
0,62,76,0
0,71,88,3
0,69,93,2
0,57,90,2
0,57,95,2
0,62,105,0
0,66,100,0
0,42,86,0
0,57,90,1
0,62,110,26
0,57,90,0
0,66,110,0
0,57,95,6
0,66,122,22
0,57,86,0
0,62,105,0
0,42,100,0
0,38,105,9
0,42,74,0
0,50,110,1
0,46,74,0
0,64,74,4
0,61,72,2
0,61,95,1
0,57,100,0
0,45,74,0
0,33,95,0
0,64,100,0
0,33,79,0
0,57,82,17
0,61,100,3
0,64,100,0
0,42,90,0
0,69,95,0
0,57,100,0
0,69,93,12
0,69,95,12
0,64,100,2
0,61,90,0
0,57,82,0
0,69,88,12
0,57,100,2
0,71,86,5
0,61,95,11
0,57,86,0
0,64,95,0
0,42,100,0
0,69,86,4
0,57,95,3
0,64,45,0
0,76,86,6
0,64,72,3
0,61,74,2
0,61,100,5
0,49,86,0
0,68,86,0
0,64,95,0
0,37,90,0
0,37,78,0
0,61,95,20
0,68,90,2
0,64,105,0
0,42,100,0
0,61,95,1
0,64,100,4
0,68,90,0
0,61,95,23
0,68,95,21
0,64,100,0
0,61,74,0
0,42,95,0
0,61,110,2
0,46,64,0
0,62,72,2
0,66,72,0
0,62,105,3
0,57,95,0
0,50,90,0
0,66,95,0
0,38,100,0
0,38,77,0
0,57,95,1
0,57,95,3
0,62,110,0
0,66,110,0
0,42,105,0
0,69,91,5
0,57,90,2
0,69,90,4
0,66,110,4
0,57,95,0
0,62,116,0
0,69,95,0
0,69,95,1
0,57,90,4
0,71,95,9
0,66,110,13
0,62,105,0
0,57,74,0
0,42,100,0
0,69,95,3
0,57,100,3
0,76,84,0
0,64,69,3
0,57,95,1
0,61,100,0
0,64,105,0
0,45,86,0
0,33,78,0
0,33,69,0
0,61,70,1
0,57,90,0
0,64,116,19
0,61,122,0
0,57,100,0
0,42,95,0
0,57,100,0
0,64,110,3
0,59,116,0
0,56,116,0
0,40,110,0
0,40,79,0
0,59,69,0
0,42,64,0
0,35,77,2
0,42,70,0
0,56,95,3
0,28,81,0
0,46,78,0
0,56,100,23
0,64,105,0
0,59,110,0
0,56,95,1
0,57,95,2
0,61,95,5
0,64,90,1
0,64,67,2
0,61,67,0
0,69,110,2
0,45,95,2
0,33,110,0
0,33,89,0
0,76,89,122
0,76,89,12
0,76,89,12
0,74,95,9
0,45,95,7
0,74,95,2
0,59,48,3
0,51,48,1
0,59,46,8
0,33,102,3
0,73,86,5
0,51,36,5
0,73,84,8
0,59,27,3
0,64,95,5
0,61,90,0
0,68,82,0
0,49,86,0
0,37,86,0
0,37,102,0
0,55,48,0
0,35,100,0
0,68,60,1
0,37,103,11
0,35,107,0
0,61,67,6
0,73,86,0
0,42,57,0
0,64,90,21
0,68,78,0
0,61,55,0
0,42,105,0
0,37,110,0
0,61,70,19
0,42,52,0
0,32,67,4
0,61,82,5
0,68,95,0
0,64,100,0
0,37,70,0
0,42,57,0
0,32,86,3
0,61,82,4
0,37,100,0
0,42,40,0
0,61,90,16
0,68,95,0
0,64,95,0
0,42,100,0
0,61,78,2
0,46,67,0
0,61,95,3
0,66,95,0
0,69,95,0
0,30,90,0
0,42,33,0
0,30,105,0
0,42,90,0
0,35,95,0
0,66,67,1
0,69,67,2
0,30,108,15
0,61,74,10
0,42,64,0
0,35,95,0
0,61,82,12
0,69,90,0
0,66,82,0
0,54,95,0
0,42,78,0
0,73,89,5
0,61,78,1
0,42,55,0
0,73,89,11
0,73,88,8
0,61,95,1
0,69,100,0
0,66,95,0
0,42,64,0
0,73,88,7
0,61,82,1
0,42,55,0
0,35,64,0
0,66,40,23
0,69,100,11
0,66,90,0
0,61,95,0
0,42,82,0
0,73,82,9
0,74,86,0
0,61,86,7
0,69,70,0
0,66,57,0
0,44,78,0
0,73,90,3
0,73,88,8
0,66,64,4
0,62,64,1
0,57,90,1
0,62,100,0
0,66,100,0
0,50,100,0
0,38,105,0
0,38,103,0
0,42,70,0
0,35,122,0
0,38,102,7
0,35,102,0
0,71,89,2
0,57,90,10
0,42,52,0
0,69,84,2
0,57,95,5
0,62,105,0
0,66,100,0
0,42,78,0
0,37,116,0
0,57,90,1
0,42,55,0
0,33,90,2
0,62,110,10
0,57,90,0
0,66,110,0
0,38,100,0
0,42,64,0
0,33,105,10
0,42,64,0
0,57,95,6
0,38,107,0
0,42,74,0
0,35,95,0
0,66,122,22
0,57,86,0
0,62,105,0
0,42,70,0
0,38,105,9
0,42,74,0
0,50,110,1
0,46,67,0
0,64,64,5
0,61,95,2
0,57,100,0
0,64,100,0
0,45,74,0
0,33,95,0
0,33,110,0
0,42,78,0
0,35,116,0
0,61,64,1
0,33,110,7
0,35,95,0
0,57,82,17
0,42,70,0
0,61,100,3
0,64,100,0
0,54,110,0
0,42,100,0
0,69,96,0
0,57,100,0
0,42,47,0
0,69,96,12
0,64,100,13
0,61,90,0
0,57,82,0
0,69,96,0
0,42,70,0
0,57,100,2
0,42,67,0
0,35,67,0
0,61,95,11
0,57,86,0
0,64,95,0
0,42,95,0
0,69,88,20
0,71,90,2
0,57,95,1
0,64,45,0
0,42,64,0
0,69,93,5
0,68,67,2
0,76,91,3
0,61,100,1
0,49,86,0
0,68,86,0
0,64,95,0
0,37,90,0
0,37,107,0
0,42,70,0
0,35,122,0
0,37,102,1
0,35,116,0
0,61,95,3
0,42,57,0
0,76,82,1
0,64,105,3
0,68,90,0
0,42,105,0
0,37,110,0
0,61,95,1
0,42,60,0
0,32,89,4
0,68,90,2
0,64,100,0
0,37,89,0
0,42,74,0
0,32,86,8
0,69,84,8
0,61,95,2
0,37,96,0
0,42,64,0
0,35,96,0
0,69,90,11
0,64,100,12
0,68,95,0
0,61,74,0
0,42,82,0
0,69,88,1
0,69,91,4
0,42,74,1
0,71,90,20
0,61,110,2
0,46,64,0
0,69,88,4
0,66,74,0
0,69,74,0
0,78,89,3
0,61,100,2
0,66,105,0
0,69,110,0
0,42,82,0
0,30,90,0
0,30,103,0
0,42,82,0
0,35,105,0
0,30,103,0
0,35,100,0
0,61,95,16
0,42,64,0
0,66,100,9
0,61,100,0
0,69,110,0
0,54,105,0
0,42,95,0
0,61,95,16
0,30,100,0
0,42,47,0
0,66,28,3
0,33,103,0
0,66,100,2
0,61,95,0
0,69,116,0
0,42,108,0
0,42,74,0
0,69,86,11
0,61,100,4
0,42,70,0
0,35,105,0
0,69,86,11
0,66,100,8
0,61,86,0
0,69,105,0
0,42,78,0
0,69,93,1
0,42,49,9
0,69,93,1
0,61,86,5
0,33,100,0
0,42,74,0
0,71,91,1
0,30,100,4
0,69,88,1
0,66,74,3
0,62,74,0
0,57,105,2
0,50,105,0
0,62,110,0
0,66,110,0
0,38,105,0
0,38,103,0
0,42,78,0
0,35,112,0
0,78,91,1
0,38,103,13
0,35,117,0
0,57,95,1
0,42,67,0
0,57,90,23
0,62,110,0
0,66,116,0
0,54,122,0
0,42,78,0
0,57,105,5
0,37,105,0
0,42,78,0
0,59,76,1
0,59,82,3
0,66,105,0
0,62,105,0
0,35,90,0
0,47,82,0
0,35,105,0
0,42,78,0
0,59,90,10
0,42,78,0
0,35,95,0
0,59,95,20
0,62,110,0
0,66,110,0
0,42,90,0
0,44,64,23
0,78,91,3
0,59,95,4
0,35,107,0
0,46,70,0
0,78,95,11
0,64,76,1
0,68,76,0
0,80,95,3
0,59,95,3
0,64,95,0
0,68,82,0
0,52,95,0
0,40,95,0
0,40,107,0
0,46,65,0
0,35,116,0
0,35,100,3
0,35,119,0
0,59,82,1
0,28,107,0
0,78,93,1
0,76,86,3
0,59,90,7
0,64,105,0
0,68,105,0
0,46,70,0
0,38,127,0
0,59,105,7
0,35,105,8
0,38,122,0
0,59,100,2
0,64,116,0
0,68,116,0
0,40,105,0
0,46,67,0
0,35,110,3
0,38,122,0
0,59,110,2
0,40,107,0
0,38,127,0
0,59,110,19
0,64,122,0
0,68,122,0
0,47,127,0
0,46,76,0
0,35,110,1
0,45,82,0
0,73,100,1
0,59,105,2
0,28,110,0
0,43,127,0
0,71,105,3
0,64,100,0
0,73,110,0
0,69,110,0
0,69,74,1
0,61,105,2
0,57,105,0
0,64,105,0
0,45,95,0
0,33,105,0
0,33,112,0
0,49,85,0
0,35,127,0
0,69,105,1
0,81,95,3
0,69,103,2
0,57,95,2
0,33,114,0
0,51,100,0
0,35,127,0
0,69,103,4
0,61,82,8
0,64,122,14
0,51,105,0
0,44,105,0
0,38,122,0
0,61,67,5
0,28,115,0
0,69,103,4
0,57,95,2
0,33,110,0
0,51,100,0
0,35,55,0
0,73,102,3
0,64,55,5
0,28,112,0
0,38,78,0
0,80,78,0
0,68,100,1
0,71,95,1
0,76,103,1
0,40,100,1
0,59,95,0
0,64,100,0
0,68,100,0
0,40,114,0
0,64,86,0
0,68,100,0
0,59,90,0
0,44,127,0
0,35,95,0
0,68,82,1
0,35,112,0
0,35,95,0
0,59,82,3
0,64,67,0
0,28,112,0
0,51,105,0
0,35,127,0
0,76,100,1
0,64,78,19
0,68,116,0
0,59,95,0
0,44,116,0
0,38,117,0
0,59,95,2
0,28,114,0
0,78,100,5
0,64,67,5
0,68,86,0
0,35,110,0
0,51,70,0
0,80,105,1
0,59,86,3
0,40,112,0
0,38,114,0
0,78,82,1
0,74,86,2
0,66,105,0
0,69,95,0
0,66,105,2
0,62,105,0
0,57,95,0
0,38,105,0
0,38,114,0
0,62,90,0
0,59,82,0
0,44,122,0
0,35,116,0
0,66,74,1
0,81,100,0
0,51,67,23
0,57,82,9
0,38,114,0
0,81,100,0
0,59,86,0
0,35,127,0
0,62,95,1
0,81,96,9
0,51,105,1
0,44,116,0
0,38,121,0
0,66,127,4
0,62,67,0
0,33,112,0
0,78,102,1
0,57,95,4
0,38,115,0
0,59,82,0
0,76,98,5
0,38,100,0
0,76,82,0
0,64,95,0
0,69,71,1
0,64,95,1
0,69,90,0
0,64,100,1
0,57,100,0
0,61,100,0
0,45,100,0
0,33,90,0
0,33,112,0
0,51,78,0
0,44,116,0
0,35,90,0
0,73,86,1
0,33,114,12
0,59,52,0
0,35,90,0
0,57,86,5
0,28,114,0
0,51,82,0
0,35,127,0
0,61,78,7
0,64,122,3
0,33,114,0
0,51,78,0
0,44,122,0
0,38,122,0
0,78,100,6
0,61,67,4
0,59,67,0
0,57,90,3
0,28,105,0
0,51,70,0
0,76,102,7
0,62,33,4
0,33,112,0
0,59,70,0
0,38,90,0
0,66,90,1
0,78,78,0
0,62,100,2
0,74,100,0
0,66,86,1
0,69,95,0
0,57,90,1
0,66,110,0
0,38,100,0
0,62,116,0
0,38,112,0
0,74,95,0
0,51,95,0
0,44,116,0
0,35,122,0
0,38,114,11
0,74,100,4
0,57,90,2
0,33,112,0
0,51,90,0
0,35,127,0
0,66,116,7
0,62,116,0
0,38,114,0
0,59,86,0
0,44,116,0
0,38,116,0
0,57,100,6
0,76,98,1
0,62,100,3
0,51,86,0
0,74,98,4
0,66,74,6
0,33,114,0
0,38,95,0
0,64,100,1
0,76,86,0
0,64,86,2
0,73,96,0
0,57,95,1
0,64,105,0
0,61,100,0
0,45,95,0
0,33,100,0
0,69,70,0
0,51,78,0
0,44,116,0
0,35,122,0
0,73,82,1
0,33,114,12
0,59,70,0
0,57,95,1
0,28,115,0
0,73,93,0
0,51,78,0
0,35,127,0
0,64,116,11
0,61,110,0
0,33,112,0
0,51,86,0
0,44,116,0
0,38,116,0
0,33,100,13
0,74,95,3
0,45,95,20
0,57,95,0
0,59,95,0
0,73,96,0
0,33,108,5
0,38,90,0
0,68,90,2
0,71,100,0
0,64,90,2
0,56,86,1
0,64,82,0
0,59,95,0
0,40,100,0
0,40,114,0
0,68,90,0
0,51,82,0
0,44,122,0
0,35,116,0
0,76,86,1
0,73,96,2
0,64,116,0
0,35,114,3
0,59,82,0
0,56,70,10
0,28,112,0
0,51,82,0
0,35,116,0
0,64,122,24
0,59,116,0
0,51,82,0
0,44,116,0
0,38,116,0
0,35,114,2
0,56,82,3
0,40,112,0
0,59,82,0
0,74,95,2
0,59,37,3
0,28,114,0
0,38,95,0
0,73,102,0
0,64,122,1
0,76,110,0
0,32,114,0
0,51,78,0
0,44,105,0
0,35,105,0
0,71,100,1
0,71,90,2
0,35,114,0
0,38,95,0
0,74,90,2
0,62,116,1
0,68,95,2
0,38,110,0
0,59,82,0
0,38,122,0
0,71,95,4
0,28,114,0
0,68,100,1
0,47,116,0
0,51,82,0
0,44,116,0
0,38,122,0
0,73,100,0
0,61,122,2
0,64,95,3
0,73,100,0
0,45,116,0
0,59,86,0
0,59,116,2
0,68,100,2
0,40,114,0
0,71,90,0
0,43,105,0
0,51,74,0
0,71,102,4
0,64,100,1
0,35,114,0
0,41,78,0
0,64,90,1
0,73,100,0
0,69,100,0
0,69,100,1
0,61,105,1
0,57,105,0
0,64,105,0
0,45,95,0
0,33,105,0
0,33,115,0
0,49,85,0
0,35,127,0
0,81,86,1
0,69,108,2
0,69,95,1
0,57,95,2
0,33,115,0
0,59,100,0
0,35,122,0
0,69,105,1
0,61,82,8
0,64,122,14
0,51,82,0
0,44,116,0
0,38,121,0
0,61,67,2
0,28,115,0
0,69,100,4
0,57,95,2
0,33,115,0
