track,note,velocity,time
1,42,80,1440
1,42,0,0
1,35,86,0
1,35,0,0
1,33,62,0
1,33,0,0
1,42,53,30
1,42,0,0
1,42,67,30
1,42,0,0
1,33,86,0
1,33,0,0
1,35,86,0
1,35,0,0
1,42,53,30
1,42,0,0
1,42,79,30
1,42,0,0
1,40,100,0
1,40,0,0
1,42,44,30
1,42,0,0
1,35,66,30
1,35,0,0
1,42,67,0
1,42,0,0
1,33,88,0
1,33,0,0
1,42,53,30
1,42,0,0
1,35,85,30
1,35,0,0
1,33,61,0
1,33,0,0
1,42,80,0
1,42,0,0
1,42,53,30
1,42,0,0
1,42,60,30
1,42,0,0
1,42,56,30
1,42,0,0
1,42,78,30
1,42,0,0
1,40,100,0
1,40,0,0
1,42,56,30
1,42,0,0
1,42,60,30
1,42,0,0
1,42,53,30
1,42,0,0
1,35,84,30
1,35,0,0
1,33,60,0
1,33,0,0
1,42,79,0
1,42,0,0
1,42,59,30
1,42,0,0
1,42,64,30
1,42,0,0
1,42,56,30
1,42,0,0
1,42,80,30
1,42,0,0
1,40,100,0
1,40,0,0
1,42,56,30
1,42,0,0
1,33,84,30
1,33,0,0
1,42,64,0
1,42,0,0
1,35,62,0
1,35,0,0
1,42,56,30
1,42,0,0
1,35,86,30
1,35,0,0
1,42,79,0
1,42,0,0
1,33,62,0
1,33,0,0
1,42,56,30
1,42,0,0
1,42,68,30
1,42,0,0
1,42,29,30
1,42,0,0
1,40,100,30
1,40,0,0
1,42,80,0
1,42,0,0
1,42,53,30
1,42,0,0
1,42,63,30
1,42,0,0
1,42,44,30
1,42,0,0
1,42,80,30
1,42,0,0
1,35,86,0
1,35,0,0
1,33,62,0
1,33,0,0
1,42,53,30
1,42,0,0
1,35,86,30
1,35,0,0
1,33,86,0
1,33,0,0
1,42,67,0
1,42,0,0
1,42,53,30
1,42,0,0
1,42,79,30
1,42,0,0
1,40,100,0
1,40,0,0
1,42,44,30
1,42,0,0
1,33,88,30
1,33,0,0
1,42,67,0
1,42,0,0
1,35,66,0
1,35,0,0
1,42,53,30
1,42,0,0
1,33,61,30
1,33,0,0
1,35,85,0
1,35,0,0
1,42,80,0
1,42,0,0
1,42,53,30
1,42,0,0
1,42,60,30
1,42,0,0
1,42,56,30
1,42,0,0
1,40,100,30
1,40,0,0
1,42,78,0
1,42,0,0
1,42,56,30
1,42,0,0
1,42,60,30
1,42,0,0
1,42,53,30
1,42,0,0
1,42,79,30
1,42,0,0
1,33,60,0
1,33,0,0
1,35,84,0
1,35,0,0
1,42,59,30
1,42,0,0
1,42,64,30
1,42,0,0
1,42,56,30
1,42,0,0
1,40,100,30
1,40,0,0
1,42,80,0
1,42,0,0
1,42,56,30
1,42,0,0
1,35,62,30
1,35,0,0
1,42,64,0
1,42,0,0
1,33,84,0
1,33,0,0
1,42,56,30
1,42,0,0
1,33,62,30
1,33,0,0
1,42,79,0
1,42,0,0
1,35,86,0
1,35,0,0
1,42,56,30
1,42,0,0
1,42,68,30
1,42,0,0
1,42,29,30
1,42,0,0
1,42,80,30
1,42,0,0
1,40,100,0
1,40,0,0
1,42,53,30
1,42,0,0
1,42,63,30
1,42,0,0
1,42,44,30
1,42,0,0
1,33,62,30
1,33,0,0
1,35,86,0
1,35,0,0
1,42,80,0
1,42,0,0
1,42,53,30
1,42,0,0
1,35,86,30
1,35,0,0
1,42,67,0
1,42,0,0
1,33,86,0
1,33,0,0
1,42,53,30
1,42,0,0
1,40,100,30
1,40,0,0
1,42,79,0
1,42,0,0
1,42,44,30
1,42,0,0
1,35,66,30
1,35,0,0
1,42,67,0
1,42,0,0
1,33,88,0
1,33,0,0
1,42,53,30
1,42,0,0
1,33,61,30
1,33,0,0
1,42,80,0
1,42,0,0
1,35,85,0
1,35,0,0
1,42,53,30
1,42,0,0
1,42,60,30
1,42,0,0
1,42,56,30
1,42,0,0
1,40,100,30
1,40,0,0
1,42,78,0
1,42,0,0
1,42,56,30
1,42,0,0
1,42,60,30
1,42,0,0
1,42,53,30
1,42,0,0
1,33,60,30
1,33,0,0
1,35,84,0
1,35,0,0
1,42,79,0
1,42,0,0
1,42,59,30
1,42,0,0
1,42,64,30
1,42,0,0
1,42,56,30
1,42,0,0
1,42,80,30
1,42,0,0
1,40,100,0
1,40,0,0
1,42,56,30
1,42,0,0
1,33,84,30
1,33,0,0
1,35,62,0
1,35,0,0
1,42,64,0
1,42,0,0
1,42,56,30
1,42,0,0
1,33,62,30
1,35,86,0
1,35,0,0
1,42,79,0
1,42,0,0
1,33,0,30
1,42,56,0
1,42,0,0
1,42,68,30
1,42,0,30
1,42,29,0
1,42,0,0
1,40,100,30
1,42,80,0
1,42,0,0
1,40,0,30
1,42,53,0
1,42,0,0
1,42,63,30
1,42,0,0
1,42,44,30
1,42,0,30
1,35,86,0
1,35,0,0
1,33,62,0
1,42,80,0
1,42,0,0
1,33,0,30
1,42,53,0
1,42,0,0
1,33,86,30
1,33,0,0
1,42,67,0
1,35,86,0
1,35,0,0
1,42,0,30
1,42,53,0
1,42,0,0
1,40,100,30
1,42,79,0
1,42,0,0
1,40,0,30
1,42,44,0
1,42,0,0
1,33,88,30
1,35,66,0
1,35,0,0
1,42,67,0
1,42,0,0
1,33,0,30
1,42,53,0
1,42,0,0
1,35,85,30
1,35,0,0
1,33,61,0
1,33,0,0
1,42,80,0
1,42,0,0
1,42,53,30
1,42,0,0
1,42,60,30
1,42,0,30
1,42,56,0
1,42,0,0
1,42,78,30
1,42,0,0
1,40,100,0
1,40,0,0
1,42,56,30
1,42,0,30
1,42,60,0
1,42,0,30
1,42,53,0
1,42,0,30
1,35,91,0
1,35,0,0
1,42,79,0
1,42,0,0
1,33,67,0
1,33,0,0
1,42,55,30
1,42,0,30
1,42,60,0
1,42,0,0
1,42,44,30
1,42,0,0
1,42,79,30
1,40,100,0
1,40,0,30
1,42,0,0
1,42,44,0
1,42,0,0
1,46,90,30
1,46,0,0
1,42,79,60
1,42,0,0
1,33,69,0
1,33,0,0
1,35,93,0
1,35,0,0
1,42,44,30
1,42,0,0
1,42,64,30
1,42,0,30
1,40,76,0
1,40,0,30
1,44,63,0
1,44,0,0
1,40,100,0
1,40,0,0
1,40,76,30
1,40,0,30
1,44,63,0
1,44,0,0
1,45,73,0
1,45,0,0
1,43,82,30
1,43,0,0
1,64,53,30
1,64,0,0
1,33,66,0
1,33,0,0
1,35,90,0
1,35,0,0
1,42,73,0
1,42,0,0
1,57,72,0
1,57,0,30
1,42,61,0
1,42,0,0
1,63,60,0
1,63,0,0
1,35,86,30
1,35,0,0
1,62,38,0
1,62,0,0
1,42,66,0
1,33,86,0
1,33,0,0
1,42,0,30
1,42,58,0
1,42,0,0
1,64,59,0
1,64,0,0
1,64,98,30
1,64,0,0
1,40,100,0
1,40,0,0
1,42,74,0
1,42,0,0
1,62,68,30
1,62,0,0
1,42,58,0
1,42,0,0
1,42,66,30
1,42,0,0
1,33,90,0
1,64,36,0
1,64,0,0
1,35,68,0
1,35,0,0
1,33,0,30
1,61,42,0
1,61,0,0
1,42,58,0
1,42,0,0
1,33,68,30
1,33,0,0
1,61,101,0
1,42,73,0
1,42,0,0
1,35,92,0
1,35,0,0
1,61,0,30
1,42,58,0
1,42,0,0
1,61,65,0
1,61,0,0
1,61,72,30
1,61,0,0
1,42,71,0
1,42,0,0
1,62,42,30
1,62,0,0
1,42,44,0
1,42,0,0
1,40,100,30
1,64,53,0
1,64,0,0
1,42,74,0
1,42,0,0
1,40,0,30
1,62,103,0
1,62,0,0
1,42,55,0
1,42,0,0
1,64,82,30
1,64,0,0
1,42,66,0
1,42,0,0
1,42,54,30
1,42,0,0
1,64,61,0
1,64,0,0
1,42,74,30
1,42,0,0
1,64,54,0
1,64,0,0
1,35,92,0
1,35,0,0
1,33,68,0
1,33,0,0
1,63,67,30
1,63,0,0
1,42,56,0
1,42,0,0
1,42,69,30
1,42,0,0
1,62,40,0
1,62,0,0
1,64,56,30
1,64,0,0
1,42,56,0
1,42,0,30
1,42,73,0
1,42,0,0
1,40,100,0
1,40,0,0
1,64,94,0
1,64,0,0
1,42,54,30
1,42,0,0
1,62,74,0
1,62,0,0
1,63,48,30
1,63,0,0
1,35,72,0
1,35,0,0
1,33,94,0
1,33,0,0
1,42,69,0
1,42,0,0
1,42,55,30
1,42,0,0
1,61,48,0
1,61,0,0
1,35,91,30
1,35,0,0
1,33,67,0
1,33,0,0
1,61,106,0
1,61,0,0
1,42,74,0
1,42,0,0
1,42,56,30
1,42,0,0
1,61,60,0
1,61,0,0
1,61,79,30
1,61,0,0
1,42,62,0
1,42,0,0
1,42,58,30
1,42,0,0
1,62,42,0
1,62,0,0
1,42,72,30
1,42,0,0
1,40,100,0
1,40,0,0
1,64,54,0
1,64,0,0
1,62,102,30
1,62,0,0
1,42,58,0
1,42,0,0
1,42,62,30
1,42,0,0
1,64,79,0
1,64,0,0
1,64,53,30
1,64,0,0
1,42,56,0
1,42,0,0
1,42,73,30
1,42,0,0
1,64,53,0
1,64,0,0
1,33,66,0
1,33,0,0
1,35,90,0
1,35,0,0
1,42,61,30
1,42,0,0
1,63,60,0
1,63,0,0
1,62,38,30
1,62,0,0
1,33,86,0
1,33,0,0
1,35,86,0
1,35,0,0
1,42,66,0
1,42,0,0
1,64,59,30
1,64,0,0
1,42,58,0
1,42,0,0
1,64,98,30
1,42,74,0
1,42,0,0
1,40,100,0
1,40,0,30
1,64,0,0
1,62,68,0
1,62,0,0
1,42,58,0
1,42,0,0
1,33,90,30
1,33,0,0
1,42,66,0
1,64,36,0
1,64,0,0
1,35,68,0
1,35,0,30
1,42,0,0
1,42,58,0
1,42,0,0
1,61,42,0
1,61,0,0
1,33,68,30
1,33,0,0
1,35,92,0
1,35,0,0
1,42,73,0
1,42,0,0
1,61,101,0
1,61,0,0
1,42,58,30
1,42,0,0
1,61,65,0
1,61,0,0
1,61,72,30
1,61,0,0
1,42,71,0
1,42,0,0
1,62,42,30
1,62,0,0
1,42,44,0
1,42,0,0
1,42,74,30
1,42,0,0
1,40,100,0
1,40,0,0
1,64,53,0
1,64,0,0
1,42,55,30
1,42,0,0
1,62,103,0
1,62,0,0
1,64,82,30
1,64,0,0
1,42,66,0
1,42,0,0
1,64,61,30
1,64,0,0
1,42,54,0
1,42,0,30
1,35,92,0
1,35,0,0
1,33,68,0
1,33,0,0
1,64,54,0
1,64,0,0
1,42,74,0
1,42,0,0
1,42,56,30
1,42,0,0
1,63,67,0
1,63,0,0
1,42,69,30
1,42,0,0
1,62,40,0
1,62,0,30
1,42,56,0
1,42,0,0
1,64,56,0
1,64,0,0
1,64,94,30
1,64,0,0
1,40,100,0
1,40,0,0
1,42,73,0
1,42,0,0
1,62,74,30
1,62,0,0
1,42,54,0
1,42,0,0
1,63,48,30
1,42,69,0
1,42,0,0
1,35,72,0
1,35,0,0
1,33,94,0
1,33,0,30
1,63,0,0
1,42,55,0
1,42,0,0
1,61,48,0
1,61,0,0
1,35,91,30
1,33,67,0
1,42,74,0
1,42,0,0
1,61,106,0
1,61,0,0
1,33,0,30
1,35,0,0
1,42,56,0
1,42,0,0
1,61,60,0
1,61,0,0
1,61,79,30
1,61,0,0
1,42,62,0
1,42,0,0
1,42,58,30
1,42,0,0
1,62,42,0
1,62,0,0
1,64,54,30
1,64,0,0
1,40,100,0
1,40,0,0
1,42,72,0
1,42,0,0
1,62,102,30
1,62,0,0
1,42,58,0
1,42,0,0
1,64,79,30
1,64,0,0
1,42,62,0
1,42,0,0
1,42,56,30
1,42,0,0
1,64,53,0
1,64,0,0
1,42,80,30
1,42,0,0
1,35,86,0
1,35,0,0
1,33,62,0
1,33,0,0
1,42,53,30
1,42,0,0
1,42,67,30
1,42,0,0
1,33,86,0
1,33,0,0
1,35,86,0
1,35,0,0
1,42,53,30
1,42,0,0
1,42,79,30
1,42,0,0
1,40,100,0
1,40,0,0
1,42,44,30
1,42,0,0
1,33,88,30
1,33,0,0
1,42,67,0
1,42,0,0
1,35,66,0
1,35,0,0
1,42,53,30
1,42,0,0
1,35,85,30
1,35,0,0
1,42,80,0
1,42,0,0
1,33,61,0
1,33,0,0
1,42,53,30
1,42,0,0
1,42,60,30
1,42,0,0
1,42,56,30
1,42,0,0
1,40,100,30
1,40,0,0
1,42,78,0
1,42,0,0
1,42,56,30
1,42,0,0
1,42,60,30
1,42,0,0
1,42,53,30
1,42,0,0
1,35,84,30
1,35,0,0
1,33,60,0
1,33,0,0
1,42,79,0
1,42,0,0
1,42,59,30
1,42,0,0
1,42,64,30
1,42,0,0
1,42,56,30
1,42,0,0
1,40,100,30
1,40,0,0
1,42,80,0
1,42,0,0
1,42,56,30
1,42,0,0
1,42,64,30
1,42,0,0
1,33,84,0
1,33,0,0
1,35,62,0
1,35,0,0
1,42,56,30
1,42,0,0
1,33,62,30
1,33,0,0
1,35,86,0
1,35,0,0
1,42,79,0
1,42,0,0
1,42,56,30
1,42,0,0
1,42,68,30
1,42,0,0
1,42,29,30
1,42,0,0
1,42,80,30
1,42,0,0
1,40,100,0
1,40,0,0
1,42,53,30
1,42,0,0
1,42,63,30
1,42,0,0
1,42,44,30
1,42,0,0
1,33,62,30
1,33,0,0
1,35,86,0
1,35,0,0
1,42,80,0
1,42,0,0
1,42,53,30
1,42,0,0
1,33,86,30
1,33,0,0
1,42,67,0
1,42,0,0
1,35,86,0
1,35,0,0
1,42,53,30
1,42,0,0
1,40,100,30
1,40,0,0
1,42,79,0
1,42,0,0
1,42,44,30
1,42,0,0
1,33,88,30
1,33,0,0
1,35,66,0
1,35,0,0
1,42,67,0
1,42,0,0
1,42,53,30
1,42,0,0
1,42,80,30
1,42,0,0
1,33,61,0
1,33,0,0
1,35,85,0
1,35,0,0
1,42,53,30
1,42,0,0
1,42,60,30
1,42,0,0
1,42,56,30
1,42,0,0
1,40,100,30
1,40,0,0
1,42,78,0
1,42,0,0
1,42,56,30
1,42,0,0
1,42,60,30
1,42,0,0
1,42,53,30
1,42,0,0
1,33,60,30
1,33,0,0
1,35,84,0
1,35,0,0
1,42,79,0
1,42,0,0
1,42,59,30
1,42,0,0
1,42,64,30
1,42,0,0
1,42,56,30
1,42,0,0
1,42,80,30
1,42,0,0
1,40,100,0
1,40,0,0
1,42,56,30
1,42,0,0
1,35,62,30
1,35,0,0
1,42,64,0
1,42,0,0
1,33,84,0
1,33,0,0
1,42,56,30
1,42,0,0
1,35,86,30
1,35,0,0
1,33,62,0
1,33,0,0
1,42,79,0
1,42,0,0
1,42,56,30
1,42,0,0
1,42,68,30
1,42,0,0
1,42,29,30
1,42,0,0
1,40,100,30
1,40,0,0
1,42,80,0
1,42,0,0
1,42,53,30
1,42,0,0
1,42,63,30
1,42,0,0
1,42,44,30
1,42,0,0
1,42,80,30
1,42,0,0
1,33,62,0
1,33,0,0
1,35,86,0
1,35,0,0
1,42,53,30
1,42,0,0
1,35,86,30
1,35,0,0
1,33,86,0
1,33,0,0
1,42,67,0
1,42,0,0
1,42,53,30
1,42,0,0
1,42,79,30
1,42,0,0
1,40,100,0
1,40,0,0
1,42,44,30
1,42,0,0
1,33,88,30
1,33,0,0
1,35,66,0
1,35,0,0
1,42,67,0
1,42,0,0
1,42,53,30
1,42,0,0
1,33,61,30
1,33,0,0
1,35,85,0
1,35,0,0
1,42,80,0
1,42,0,0
1,42,53,30
1,42,0,0
1,42,60,30
1,42,0,0
1,42,56,30
1,42,0,0
1,42,78,30
1,42,0,0
1,40,100,0
1,40,0,0
1,42,56,30
1,42,0,0
1,42,60,30
1,42,0,0
1,42,53,30
1,42,0,0
1,35,84,30
1,35,0,0
1,42,79,0
1,42,0,0
1,33,60,0
1,33,0,0
1,42,59,30
1,42,0,0
1,42,64,30
1,42,0,0
1,42,56,30
1,42,0,0
1,40,100,30
1,40,0,0
1,42,80,0
1,42,0,0
1,42,56,30
1,42,0,0
1,33,84,30
1,33,0,0
1,35,62,0
1,35,0,0
