track,note,velocity,time
4,42,80,1536
4,35,86,0
4,33,62,0
4,42,53,47
4,42,67,47
4,33,86,0
4,35,86,0
4,42,53,47
4,42,79,47
4,40,100,0
4,42,44,47
4,35,66,47
4,42,67,0
4,33,88,0
4,42,53,47
4,35,85,47
4,33,61,0
4,42,80,0
4,42,53,47
4,42,60,47
4,42,56,47
4,42,78,47
4,40,100,0
4,42,56,47
4,42,60,47
4,42,53,47
4,35,84,47
4,33,60,0
4,42,79,0
4,42,59,47
4,42,64,47
4,42,56,47
4,42,80,47
4,40,100,0
4,42,56,47
4,33,84,47
4,42,64,0
4,35,62,0
4,42,56,47
4,35,86,47
4,42,79,0
4,33,62,0
4,42,56,47
4,42,68,47
4,42,29,47
4,40,100,47
4,42,80,0
4,42,53,47
4,42,63,47
4,42,44,47
4,42,80,47
4,35,86,0
4,33,62,0
4,42,53,47
4,35,86,47
4,33,86,0
4,42,67,0
4,42,53,47
4,42,79,47
4,40,100,0
4,42,44,47
4,33,88,47
4,42,67,0
4,35,66,0
4,42,53,47
4,33,61,47
4,35,85,0
4,42,80,0
4,42,53,47
4,42,60,47
4,42,56,47
4,40,100,47
4,42,78,0
4,42,56,47
4,42,60,47
4,42,53,47
4,42,79,47
4,33,60,0
4,35,84,0
4,42,59,47
4,42,64,47
4,42,56,47
4,40,100,47
4,42,80,0
4,42,56,47
4,35,62,47
4,42,64,0
4,33,84,0
4,42,56,47
4,33,62,47
4,42,79,0
4,35,86,0
4,42,56,47
4,42,68,47
4,42,29,47
4,42,80,47
4,40,100,0
4,42,53,47
4,42,63,47
4,42,44,47
4,33,62,47
4,35,86,0
4,42,80,0
4,42,53,47
4,35,86,47
4,42,67,0
4,33,86,0
4,42,53,47
4,40,100,47
4,42,79,0
4,42,44,47
4,35,66,47
4,42,67,0
4,33,88,0
4,42,53,47
4,33,61,47
4,42,80,0
4,35,85,0
4,42,53,47
4,42,60,47
4,42,56,47
4,40,100,47
4,42,78,0
4,42,56,47
4,42,60,47
4,42,53,47
4,33,60,47
4,35,84,0
4,42,79,0
4,42,59,47
4,42,64,47
4,42,56,47
4,42,80,47
4,40,100,0
4,42,56,47
4,33,84,47
4,35,62,0
4,42,64,0
4,42,56,47
4,33,62,47
4,35,86,0
4,42,79,0
4,42,56,0
4,42,68,47
4,42,29,0
4,40,100,47
4,42,80,0
4,42,53,0
4,42,63,47
4,42,44,47
4,35,86,0
4,33,62,0
4,42,80,0
4,42,53,0
4,33,86,47
4,42,67,0
4,35,86,0
4,42,53,0
4,40,100,47
4,42,79,0
4,42,44,0
4,33,88,47
4,35,66,0
4,42,67,0
4,42,53,0
4,35,85,47
4,33,61,0
4,42,80,0
4,42,53,47
4,42,60,47
4,42,56,0
4,42,78,47
4,40,100,0
4,42,56,47
4,42,60,0
4,42,53,0
4,35,91,0
4,42,79,0
4,33,67,0
4,42,55,47
4,42,60,0
4,42,44,47
4,42,79,47
4,40,100,0
4,42,44,0
4,46,90,47
4,42,79,95
4,33,69,0
4,35,93,0
4,42,44,47
4,42,64,47
4,40,76,0
4,44,63,0
4,40,100,0
4,40,76,47
4,44,63,0
4,45,73,0
4,43,82,47
4,64,53,47
4,33,66,0
4,35,90,0
4,42,73,0
4,57,72,0
4,42,61,0
4,63,60,0
4,35,86,47
4,62,38,0
4,42,66,0
4,33,86,0
4,42,58,0
4,64,59,0
4,64,98,47
4,40,100,0
4,42,74,0
4,62,68,47
4,42,58,0
4,42,66,47
4,33,90,0
4,64,36,0
4,35,68,0
4,61,42,0
4,42,58,0
4,33,68,47
4,61,101,0
4,42,73,0
4,35,92,0
4,42,58,0
4,61,65,0
4,61,72,47
4,42,71,0
4,62,42,47
4,42,44,0
4,40,100,47
4,64,53,0
4,42,74,0
4,62,103,0
4,42,55,0
4,64,82,47
4,42,66,0
4,42,54,47
4,64,61,0
4,42,74,47
4,64,54,0
4,35,92,0
4,33,68,0
4,63,67,47
4,42,56,0
4,42,69,47
4,62,40,0
4,64,56,47
4,42,56,0
4,42,73,0
4,40,100,0
4,64,94,0
4,42,54,47
4,62,74,0
4,63,48,47
4,35,72,0
4,33,94,0
4,42,69,0
4,42,55,47
4,61,48,0
4,35,91,47
4,33,67,0
4,61,106,0
4,42,74,0
4,42,56,47
4,61,60,0
4,61,79,47
4,42,62,0
4,42,58,47
4,62,42,0
4,42,72,47
4,40,100,0
4,64,54,0
4,62,102,47
4,42,58,0
4,42,62,47
4,64,79,0
4,64,53,47
4,42,56,0
4,42,73,47
4,64,53,0
4,33,66,0
4,35,90,0
4,42,61,47
4,63,60,0
4,62,38,47
4,33,86,0
4,35,86,0
4,42,66,0
4,64,59,47
4,42,58,0
4,64,98,47
4,42,74,0
4,40,100,0
4,62,68,0
4,42,58,0
4,33,90,47
4,42,66,0
4,64,36,0
4,35,68,0
4,42,58,0
4,61,42,0
4,33,68,47
4,35,92,0
4,42,73,0
4,61,101,0
4,42,58,47
4,61,65,0
4,61,72,47
4,42,71,0
4,62,42,47
4,42,44,0
4,42,74,47
4,40,100,0
4,64,53,0
4,42,55,47
4,62,103,0
4,64,82,47
4,42,66,0
4,64,61,47
4,42,54,0
4,35,92,0
4,33,68,0
4,64,54,0
4,42,74,0
4,42,56,47
4,63,67,0
4,42,69,47
4,62,40,0
4,42,56,0
4,64,56,0
4,64,94,47
4,40,100,0
4,42,73,0
4,62,74,47
4,42,54,0
4,63,48,47
4,42,69,0
4,35,72,0
4,33,94,0
4,42,55,0
4,61,48,0
4,35,91,47
4,33,67,0
4,42,74,0
4,61,106,0
4,42,56,0
4,61,60,0
4,61,79,47
4,42,62,0
4,42,58,47
4,62,42,0
4,64,54,47
4,40,100,0
4,42,72,0
4,62,102,47
4,42,58,0
4,64,79,47
4,42,62,0
4,42,56,47
4,64,53,0
4,42,80,47
4,35,86,0
4,33,62,0
4,42,53,47
4,42,67,47
4,33,86,0
4,35,86,0
4,42,53,47
4,42,79,47
4,40,100,0
4,42,44,47
4,33,88,47
4,42,67,0
4,35,66,0
4,42,53,47
4,35,85,47
4,42,80,0
4,33,61,0
4,42,53,47
4,42,60,47
4,42,56,47
4,40,100,47
4,42,78,0
4,42,56,47
4,42,60,47
4,42,53,47
4,35,84,47
4,33,60,0
4,42,79,0
4,42,59,47
4,42,64,47
4,42,56,47
4,40,100,47
4,42,80,0
4,42,56,47
4,42,64,47
4,33,84,0
4,35,62,0
4,42,56,47
4,33,62,47
4,35,86,0
4,42,79,0
4,42,56,47
4,42,68,47
4,42,29,47
4,42,80,47
4,40,100,0
4,42,53,47
4,42,63,47
4,42,44,47
4,33,62,47
4,35,86,0
4,42,80,0
4,42,53,47
4,33,86,47
4,42,67,0
4,35,86,0
4,42,53,47
4,40,100,47
4,42,79,0
4,42,44,47
4,33,88,47
4,35,66,0
4,42,67,0
4,42,53,47
4,42,80,47
4,33,61,0
4,35,85,0
4,42,53,47
4,42,60,47
4,42,56,47
4,40,100,47
4,42,78,0
4,42,56,47
4,42,60,47
4,42,53,47
4,33,60,47
4,35,84,0
4,42,79,0
4,42,59,47
4,42,64,47
4,42,56,47
4,42,80,47
4,40,100,0
4,42,56,47
4,35,62,47
4,42,64,0
4,33,84,0
4,42,56,47
4,35,86,47
4,33,62,0
4,42,79,0
4,42,56,47
4,42,68,47
4,42,29,47
4,40,100,47
4,42,80,0
4,42,53,47
4,42,63,47
4,42,44,47
4,42,80,47
4,33,62,0
4,35,86,0
4,42,53,47
4,35,86,47
4,33,86,0
4,42,67,0
4,42,53,47
4,42,79,47
4,40,100,0
4,42,44,47
4,33,88,47
4,35,66,0
4,42,67,0
4,42,53,47
4,33,61,47
4,35,85,0
4,42,80,0
4,42,53,47
4,42,60,47
4,42,56,47
4,42,78,47
4,40,100,0
4,42,56,47
4,42,60,47
4,42,53,47
4,35,84,47
4,42,79,0
4,33,60,0
4,42,59,47
4,42,64,47
4,42,56,47
4,40,100,47
4,42,80,0
4,42,56,47
4,33,84,47
4,35,62,0
4,42,64,0
4,42,56,47
4,42,79,47
4,33,62,0
4,35,86,0
4,42,56,0
4,42,68,47
4,42,29,0
4,40,100,47
4,42,80,0
4,42,53,0
4,42,63,47
4,42,44,47
4,35,86,0
4,33,62,0
4,42,80,0
4,42,53,0
4,35,86,47
4,33,86,0
4,42,67,0
4,42,53,0
4,42,79,47
4,40,100,0
4,42,44,0
4,33,88,47
4,35,66,0
4,42,67,0
4,42,53,0
4,33,61,47
4,42,80,0
4,35,85,0
4,42,53,47
4,42,60,47
4,42,56,0
4,42,78,47
4,40,100,0
4,42,56,47
4,42,60,0
4,42,53,0
4,42,79,0
4,33,67,0
4,35,91,0
4,42,55,47
4,42,60,0
4,42,44,47
4,40,100,47
4,42,79,0
4,42,44,0
4,46,90,47
4,33,69,95
4,35,93,0
4,42,79,0
4,42,44,47
4,42,64,47
4,40,76,0
4,44,63,0
4,40,100,0
4,40,76,47
4,44,63,0
4,45,73,0
4,43,82,47
4,42,80,47
4,35,86,0
4,33,62,0
4,42,53,47
4,42,67,47
4,33,86,0
4,35,86,0
4,42,53,47
4,42,79,47
4,40,100,0
4,42,44,47
4,33,88,47
4,42,67,0
4,35,66,0
4,42,53,47
4,35,85,47
4,42,80,0
4,33,61,0
4,42,53,47
4,42,60,47
4,42,56,47
4,40,100,47
4,42,78,0
4,42,56,47
4,42,60,47
4,42,53,47
4,35,84,47
4,33,60,0
4,42,79,0
4,42,59,47
4,42,64,47
4,42,56,47
4,40,100,47
4,42,80,0
4,42,56,47
4,42,64,47
4,33,84,0
4,35,62,0
4,42,56,47
4,33,62,47
4,35,86,0
4,42,79,0
4,42,56,47
4,42,68,47
4,42,29,47
4,42,80,47
4,40,100,0
4,42,53,47
4,42,63,47
4,42,44,47
4,33,62,47
4,35,86,0
4,42,80,0
4,42,53,47
4,33,86,47
4,42,67,0
4,35,86,0
4,42,53,47
4,40,100,47
4,42,79,0
4,42,44,47
4,33,88,47
4,35,66,0
4,42,67,0
4,42,53,47
4,42,80,47
4,33,61,0
4,35,85,0
4,42,53,47
4,42,60,47
4,42,56,47
4,40,100,47
4,42,78,0
4,42,56,47
4,42,60,47
4,42,53,47
4,33,60,47
4,35,84,0
4,42,79,0
4,42,59,47
4,42,64,47
4,42,56,47
4,42,80,47
4,40,100,0
4,42,56,47
4,35,62,47
4,42,64,0
4,33,84,0
4,42,56,47
4,35,86,47
4,33,62,0
4,42,79,0
4,42,56,47
4,42,68,47
4,42,29,47
4,40,100,47
4,42,80,0
4,42,53,47
4,42,63,47
4,42,44,47
4,42,80,47
4,33,62,0
4,35,86,0
4,42,53,47
4,35,86,47
4,33,86,0
4,42,67,0
4,42,53,47
4,42,79,47
4,40,100,0
4,42,44,47
4,33,88,47
4,35,66,0
4,42,67,0
4,42,53,47
4,33,61,47
4,35,85,0
4,42,80,0
4,42,53,47
4,42,60,47
4,42,56,47
4,42,78,47
4,40,100,0
4,42,56,47
4,42,60,47
4,42,53,47
4,35,84,47
4,42,79,0
4,33,60,0
4,42,59,47
4,42,64,47
4,42,56,47
4,40,100,47
4,42,80,0
4,42,56,47
4,33,84,47
4,35,62,0
4,42,64,0
4,42,56,47
4,42,79,47
4,33,62,0
4,35,86,0
4,42,56,0
4,42,68,47
4,42,29,0
4,40,100,47
4,42,80,0
4,42,53,0
4,42,63,47
4,42,44,47
4,35,86,0
4,33,62,0
4,42,80,0
4,42,53,0
4,35,86,47
4,33,86,0
4,42,67,0
4,42,53,0
4,42,79,47
4,40,100,0
4,42,44,0
4,33,88,47
4,35,66,0
4,42,67,0
4,42,53,0
4,33,61,47
4,42,80,0
4,35,85,0
4,42,53,47
4,42,60,47
4,42,56,0
4,42,78,47
4,40,100,0
4,42,56,47
4,42,60,0
4,42,53,0
4,42,79,0
4,33,67,0
4,35,91,0
4,42,55,47
4,42,60,0
4,42,44,47
4,40,100,47
4,42,79,0
4,42,44,0
4,46,90,47
4,33,69,95
4,35,93,0
4,42,79,0
4,42,44,47
4,42,64,47
4,40,76,0
4,44,63,0
4,40,100,0
4,40,76,47
4,44,63,0
4,45,73,0
4,43,82,47
4,57,72,47
4,64,53,0
4,33,66,0
4,35,90,0
4,42,73,0
4,63,60,0
4,42,61,0
4,33,86,47
4,35,86,0
4,42,66,0
4,62,38,0
4,64,59,0
4,42,58,0
4,64,98,47
4,42,74,0
4,40,100,0
4,62,68,47
4,42,58,0
4,33,90,47
4,42,66,0
4,64,36,0
4,35,68,0
4,42,58,0
4,61,42,0
4,33,68,47
4,35,92,0
4,42,73,0
4,61,101,0
4,61,65,0
4,42,58,0
4,61,72,47
4,42,71,0
4,42,44,47
4,62,42,0
4,64,53,47
4,40,100,0
4,42,74,0
4,62,103,0
4,42,55,0
4,64,82,47
4,42,66,0
4,64,61,47
4,42,54,0
4,33,68,47
4,35,92,0
4,42,74,0
4,64,54,0
4,42,56,47
4,63,67,0
4,62,40,47
4,42,69,0
4,42,56,47
4,64,56,0
4,42,73,0
4,64,94,0
4,40,100,0
4,62,74,47
4,42,54,0
4,42,69,47
4,35,72,0
4,63,48,0
4,33,94,0
4,61,48,47
4,42,55,0
4,35,91,47
4,42,74,0
4,33,67,0
4,61,106,0
4,61,60,47
4,42,56,0
4,42,62,47
4,61,79,0
4,62,42,47
4,42,58,0
4,64,54,47
4,40,100,0
4,42,72,0
4,62,102,47
4,42,58,0
4,64,79,47
4,42,62,0
4,42,56,47
4,64,53,0
4,57,72,47
4,64,53,0
4,33,66,0
4,35,90,0
4,42,73,0
4,63,60,0
4,42,61,0
4,33,86,47
4,35,86,0
4,42,66,0
4,62,38,0
4,64,59,0
4,42,58,0
4,64,98,47
4,42,74,0
4,40,100,0
4,62,68,47
4,42,58,0
4,33,90,47
4,42,66,0
4,64,36,0
4,35,68,0
4,42,58,0
4,61,42,0
4,33,68,47
4,35,92,0
4,42,73,0
4,61,101,0
4,61,65,0
4,42,58,0
4,61,72,47
4,42,71,0
4,42,44,47
4,62,42,0
4,64,53,47
4,40,100,0
4,42,74,0
4,62,103,0
4,42,55,0
4,64,82,47
4,42,66,0
4,64,61,47
4,42,54,0
4,33,68,47
4,35,92,0
4,42,74,0
4,64,54,0
4,42,56,47
4,63,67,0
4,62,40,47
4,42,69,0
4,42,56,47
4,64,56,0
4,42,73,0
4,64,94,0
4,40,100,0
4,62,74,47
4,42,54,0
4,42,69,47
4,35,72,0
4,63,48,0
4,33,94,0
4,61,48,47
4,42,55,0
4,35,91,47
4,42,74,0
4,33,67,0
4,61,106,0
4,61,60,47
4,42,56,0
4,42,62,47
4,61,79,0
4,62,42,47
4,42,58,0
4,64,54,47
4,40,100,0
4,42,72,0
4,62,102,47
4,42,58,0
4,64,79,47
4,42,62,0
4,42,56,47
4,64,53,0
4,57,72,47
4,64,53,0
4,33,66,0
4,35,90,0
4,42,73,0
4,63,60,0
4,42,61,0
4,33,86,47
4,35,86,0
4,42,66,0
4,62,38,0
4,64,59,0
4,42,58,0
4,64,98,47
4,42,74,0
4,40,100,0
4,62,68,47
4,42,58,0
4,33,90,47
4,42,66,0
4,64,36,0
4,35,68,0
4,42,58,0
4,61,42,0
4,33,68,47
4,35,92,0
4,42,73,0
4,61,101,0
4,61,65,0
4,42,58,0
4,61,72,47
4,42,71,0
4,42,44,47
4,62,42,0
4,64,53,47
4,40,100,0
4,42,74,0
4,62,103,0
4,42,55,0
4,64,82,47
4,42,66,0
4,64,61,47
4,42,54,0
4,33,68,47
4,35,92,0
4,42,74,0
4,64,54,0
4,42,56,47
4,63,67,0
4,62,40,47
4,42,69,0
4,42,56,47
4,64,56,0
4,42,73,0
4,64,94,0
4,40,100,0
4,62,74,47
4,42,54,0
4,42,69,47
4,35,72,0
4,63,48,0
4,33,94,0
4,61,48,47
4,42,55,0
4,35,91,47
4,42,74,0
4,33,67,0
4,61,106,0
4,61,60,47
4,42,56,0
4,42,62,47
4,61,79,0
4,62,42,47
4,42,58,0
4,64,54,47
