track,note,velocity,time
0,68,99,40
0,71,90,0
0,68,0,50
0,71,0,2
0,67,87,12
0,70,76,0
0,67,0,44
0,70,0,2
0,68,74,4
0,71,78,0
0,68,0,15
0,69,87,4
0,73,84,0
0,71,0,8
0,69,0,48
0,73,0,2
0,68,80,6
0,72,87,0
0,68,0,58
0,69,90,6
0,72,0,0
0,73,80,0
0,70,80,64
0,73,0,0
0,74,96,0
0,69,0,2
0,70,0,50
0,74,0,4
0,69,80,8
0,73,76,0
0,69,0,54
0,73,0,0
0,70,74,10
0,74,87,0
0,70,0,62
0,35,99,2
0,35,84,0
0,47,105,0
0,51,95,0
0,59,79,0
0,63,86,0
0,69,84,0
0,74,0,4
0,75,90,8
0,71,93,2
0,47,72,4
0,51,64,0
0,47,87,28
0,51,67,0
0,38,102,48
0,47,108,0
0,51,94,0
0,66,74,0
0,63,87,1
0,59,76,1
0,57,90,1
0,59,0,30
0,47,66,2
0,51,60,0
0,57,0,0
0,63,0,2
0,66,0,0
0,35,0,40
0,35,104,14
0,39,87,0
0,47,87,0
0,51,89,0
0,35,101,40
0,42,84,0
0,47,102,0
0,51,95,0
0,39,0,2
0,47,78,4
0,51,74,0
0,47,66,30
0,51,72,0
0,38,102,16
0,39,93,0
0,47,99,0
0,51,81,0
0,66,76,0
0,63,90,1
0,59,78,1
0,57,93,1
0,42,0,2
0,71,0,18
0,75,0,0
0,75,74,22
0,71,76,4
0,47,84,6
0,51,69,0
0,39,0,18
0,57,0,2
0,59,0,1
0,63,0,6
0,66,0,3
0,42,87,16
0,47,90,0
0,51,82,0
0,74,76,0
0,70,74,2
0,75,0,10
0,71,0,2
0,74,0,34
0,42,0,2
0,35,90,2
0,35,84,0
0,47,105,0
0,51,95,0
0,73,80,10
0,69,87,2
0,70,0,10
0,47,57,34
0,51,64,0
0,47,64,24
0,51,67,0
0,38,102,40
0,47,90,0
0,51,94,0
0,66,78,0
0,63,87,1
0,59,70,1
0,57,87,1
0,47,64,18
0,51,60,0
0,59,0,6
0,57,0,4
0,63,0,4
0,35,0,2
0,66,0,0
0,35,104,26
0,39,90,0
0,47,90,0
0,51,89,0
0,73,0,4
0,69,0,2
0,68,82,2
0,71,61,0
0,39,0,28
0,35,101,2
0,42,87,0
0,47,108,0
0,51,95,0
0,68,0,10
0,69,93,6
0,73,90,0
0,71,0,8
0,47,47,30
0,51,74,0
0,47,72,38
0,51,72,0
0,69,0,4
0,71,78,6
0,73,0,0
0,68,84,2
0,42,0,28
0,38,102,8
0,39,99,0
0,47,90,0
0,51,81,0
0,66,78,0
0,63,87,1
0,59,76,1
0,57,80,1
0,68,0,1
0,69,87,14
0,66,74,2
0,71,0,4
0,47,78,34
0,51,69,0
0,59,0,2
0,57,0,4
0,63,0,3
0,39,0,7
0,66,0,2
0,69,0,4
0,42,87,22
0,47,87,0
0,51,82,0
0,68,87,4
0,64,84,6
0,66,0,12
0,59,0,8
0,63,0,0
0,69,0,0
0,35,84,4
0,40,96,0
0,51,95,0
0,52,99,0
0,59,43,0
0,64,65,0
0,68,76,0
0,68,77,0
0,64,82,1
0,42,0,1
0,59,76,0
0,51,64,28
0,51,67,60
0,52,78,0
0,38,102,34
0,51,94,0
0,52,84,0
0,40,0,28
0,42,90,16
0,51,60,0
0,54,76,0
0,42,0,20
0,35,104,4
0,44,96,0
0,51,89,0
0,56,87,0
0,68,0,22
0,64,0,1
0,68,0,2
0,59,0,13
0,44,0,5
0,59,0,3
0,68,0,0
0,35,101,3
0,45,102,0
0,51,95,0
0,57,99,0
0,61,84,0
0,69,80,0
0,69,62,0
0,64,78,1
0,61,70,1
0,69,74,2
0,51,74,52
0,51,72,48
0,57,87,0
0,38,102,28
0,51,81,0
0,57,87,0
0,44,96,20
0,51,69,0
0,56,90,0
0,45,0,2
0,44,0,46
0,42,102,6
0,51,82,0
0,54,87,0
0,69,0,2
0,64,0,24
0,69,0,8
0,64,0,10
0,64,0,4
0,69,0,0
0,61,0,1
0,35,104,3
0,40,93,0
0,46,90,0
0,52,99,0
0,59,62,0
0,64,71,0
0,68,90,0
0,68,86,0
0,64,82,1
0,59,102,1
0,42,0,6
0,61,0,2
0,68,87,4
0,64,90,2
0,68,0,44
0,64,0,8
0,64,0,0
0,59,0,2
0,64,0,2
0,59,0,0
0,68,0,0
0,68,0,0
0,40,0,2
0,42,69,18
0,71,103,104
0,71,0,187
0,73,97,6
0,73,0,178
0,74,90,4
0,35,93,189
0,35,84,0
0,47,87,0
0,47,80,0
0,51,95,0
0,63,86,0
0,69,88,0
0,74,0,0
0,75,93,0
0,47,54,44
0,51,64,0
0,71,66,44
0,47,76,6
0,51,67,0
0,71,0,36
0,38,102,12
0,47,105,0
0,51,94,0
0,63,80,0
0,57,82,1
0,54,80,1
0,74,93,2
0,78,78,2
0,71,50,6
0,74,0,8
0,75,54,6
0,47,87,36
0,51,60,0
0,78,0,10
0,75,0,10
0,35,0,20
0,80,76,8
0,35,104,2
0,39,87,0
0,47,99,0
0,51,89,0
0,76,74,0
0,76,0,10
0,80,0,0
0,35,101,12
0,39,0,0
0,42,90,0
0,47,105,0
0,51,95,0
0,75,76,14
0,78,90,0
0,47,72,26
0,51,74,0
0,71,0,4
0,78,0,32
0,75,0,2
0,47,76,2
0,51,72,0
0,63,0,0
0,71,87,2
0,54,0,1
0,57,0,8
0,71,0,12
0,75,0,1
0,42,0,11
0,38,102,8
0,39,90,0
0,47,102,0
0,51,81,0
0,63,74,0
0,57,84,1
0,54,68,1
0,75,80,9
0,47,57,18
0,51,69,0
0,47,0,26
0,39,0,4
0,75,0,6
0,42,90,6
0,47,99,0
0,51,82,0
0,74,80,0
0,42,0,26
0,35,93,2
0,35,84,0
0,47,99,0
0,47,76,0
0,51,95,0
0,73,89,8
0,74,0,3
0,57,0,2
0,63,0,3
0,54,0,4
0,47,38,26
0,51,64,0
0,47,61,30
0,51,67,0
0,71,70,4
0,38,102,34
0,47,105,0
0,51,94,0
0,63,78,0
0,57,84,1
0,54,76,1
0,74,90,4
0,78,76,0
0,74,0,14
0,75,78,4
0,47,72,24
0,51,60,0
0,78,0,18
0,75,0,6
0,35,0,10
0,76,80,18
0,80,87,0
0,35,104,6
0,39,87,0
0,47,87,0
0,51,89,0
0,80,0,4
0,76,0,4
0,39,0,16
0,35,101,4
0,42,87,0
0,47,80,0
0,51,95,0
0,78,80,4
0,74,87,2
0,74,0,18
0,75,68,4
0,47,66,3
0,51,74,0
0,71,0,12
0,54,0,2
0,63,0,11
0,75,0,6
0,57,0,1
0,78,0,1
0,71,78,5
0,47,70,6
0,51,72,0
0,78,49,6
0,75,30,3
0,75,0,2
0,78,0,6
0,42,0,4
0,71,0,0
0,38,102,14
0,39,80,0
0,47,108,0
0,51,81,0
0,63,76,0
0,57,84,1
0,54,74,1
0,47,49,12
0,51,69,0
0,39,0,24
0,47,0,10
0,42,93,2
0,47,90,0
0,51,82,0
0,42,0,52
0,73,0,4
0,35,84,4
0,35,84,0
0,47,82,0
0,47,78,0
0,51,95,0
0,75,93,7
0,57,0,24
0,63,0,3
0,54,0,2
0,47,64,24
0,51,64,0
0,71,64,26
0,47,66,6
0,51,67,0
0,75,0,22
0,38,102,10
0,47,108,0
0,51,94,0
0,63,74,0
0,74,84,0
0,57,87,1
0,54,76,1
0,78,58,0
0,77,61,2
0,75,87,7
0,77,0,1
0,74,0,6
0,75,66,6
0,47,50,16
0,51,60,0
0,78,0,24
0,75,0,10
0,35,104,26
0,39,87,0
0,47,80,0
0,51,89,0
0,80,90,0
0,76,68,2
0,35,0,8
0,80,0,32
0,76,0,4
0,75,0,1
0,39,0,11
0,35,101,4
0,42,87,0
0,47,76,0
0,51,95,0
0,75,91,5
0,78,93,7
0,74,93,2
0,74,0,18
0,75,52,8
0,47,66,20
0,51,74,0
0,71,0,26
0,75,0,6
0,54,0,4
0,63,0,0
0,78,0,4
0,57,0,3
0,47,70,17
0,51,72,0
0,71,82,0
0,42,0,12
0,71,0,6
0,38,102,10
0,39,87,0
0,47,105,0
0,51,81,0
0,63,74,0
0,57,82,1
0,54,66,1
0,74,89,1
0,75,0,8
0,47,54,20
0,51,69,0
0,39,0,12
0,47,0,8
0,74,0,15
0,42,84,5
0,47,90,0
0,51,82,0
0,73,78,1
0,35,90,2
0,35,84,0
0,47,80,0
0,47,78,0
0,51,95,0
0,42,0,2
0,57,0,22
0,54,0,4
0,63,0,2
0,47,78,2
0,51,64,0
0,71,74,34
0,47,66,2
0,51,67,0
0,78,74,26
0,74,90,2
0,38,102,6
0,47,105,0
0,51,94,0
0,63,74,0
0,57,80,1
0,54,76,1
0,74,0,4
0,75,74,4
0,47,54,12
0,51,60,0
0,78,0,16
0,75,0,4
0,35,0,10
0,76,76,20
0,80,80,0
0,35,104,6
0,39,93,0
0,47,90,0
0,51,89,0
0,80,0,32
0,76,0,6
0,39,0,18
0,35,101,2
0,42,84,0
0,47,82,0
0,51,95,0
0,71,93,0
0,78,87,2
0,75,74,2
0,73,0,4
0,47,68,24
0,51,74,0
0,71,0,10
0,71,0,0
0,54,0,2
0,75,0,10
0,78,0,4
0,57,0,7
0,63,0,3
0,71,90,4
0,47,68,2
0,51,72,0
0,71,95,0
0,71,0,6
0,42,0,4
0,38,102,22
0,39,90,0
0,47,99,0
0,51,81,0
0,63,78,0
0,57,84,1
0,54,68,1
0,71,0,21
0,47,87,5
0,51,69,0
0,72,93,0
0,47,87,40
0,51,82,0
0,47,0,38
0,72,0,3
0,39,0,7
0,57,0,4
0,63,0,2
0,69,0,0
0,35,84,4
0,40,93,0
0,40,102,0
0,40,87,0
0,51,95,0
0,54,0,0
0,59,63,0
0,64,71,0
0,68,69,0
0,73,90,0
0,63,0,2
0,51,64,26
0,64,84,11
0,40,84,6
0,51,67,0
0,64,0,2
0,38,102,4
0,40,76,0
0,51,94,0
0,64,78,0
0,59,80,1
0,56,70,1
0,71,78,0
0,64,58,2
0,67,90,2
0,67,0,9
0,68,80,2
0,40,84,2
0,51,60,0
0,71,0,6
0,68,0,2
0,64,0,10
0,40,0,14
0,35,104,6
0,40,90,0
0,44,74,0
0,51,89,0
0,64,66,4
0,69,90,0
0,73,90,2
0,73,0,32
0,69,0,10
0,35,101,12
0,40,105,0
0,44,0,0
0,47,76,0
0,51,95,0
0,68,76,10
0,71,82,2
0,40,50,18
0,51,74,0
0,56,0,12
0,64,0,0
0,64,0,0
0,59,0,6
0,40,80,24
0,51,72,0
0,68,0,0
0,71,0,0
0,64,90,6
0,47,0,38
0,64,0,0
0,38,102,16
0,40,78,0
0,44,87,0
0,51,81,0
0,64,78,0
0,59,76,1
0,56,74,1
0,73,0,17
0,40,80,11
0,51,69,0
0,73,78,0
0,73,0,12
0,40,0,8
0,40,76,10
0,47,90,0
0,51,82,0
0,72,86,0
0,44,0,4
0,72,0,12
0,35,84,2
0,40,84,0
0,40,99,0
0,40,74,0
0,51,95,0
0,71,89,0
0,47,0,4
0,40,61,24
0,51,64,0
0,56,0,40
0,59,0,0
0,40,68,2
0,51,67,0
0,64,0,0
0,64,74,8
0,64,0,32
0,38,102,18
0,40,105,0
0,51,94,0
0,64,80,0
0,59,80,1
0,56,74,1
0,64,48,2
0,71,76,8
0,67,99,2
0,67,0,16
0,68,82,2
0,40,78,22
0,51,60,0
0,68,0,26
0,71,0,0
0,40,0,4
0,69,84,18
0,73,87,0
0,35,104,2
0,40,76,0
0,44,78,0
0,51,89,0
0,73,0,28
0,69,0,8
0,35,101,1
0,40,90,0
0,47,84,0
0,51,95,0
0,44,0,4
0,71,74,2
0,68,76,2
0,40,57,10
0,51,74,0
0,71,0,1
0,64,0,5
0,71,0,4
0,40,90,4
0,56,0,0
0,64,78,0
0,64,0,0
0,51,72,0
0,68,0,2
0,59,0,1
0,64,0,6
0,47,0,16
0,38,102,2
0,40,108,0
0,44,90,0
0,51,81,0
0,64,80,0
0,59,78,1
0,56,72,1
0,40,96,20
0,51,69,0
0,40,0,10
0,40,78,16
0,51,82,0
0,35,84,26
0,40,82,0
0,40,105,0
0,40,90,0
0,51,95,0
0,73,83,0
0,44,0,10
0,59,0,31
0,56,0,2
0,64,0,2
0,40,62,14
0,51,64,0
0,40,84,36
0,51,67,0
0,64,25,14
0,73,0,0
0,38,102,18
0,40,99,0
0,51,94,0
0,64,78,0
0,59,78,1
0,56,78,1
0,71,82,4
0,73,90,0
0,67,93,4
0,67,0,14
0,68,66,4
0,40,84,22
0,51,60,0
0,71,0,20
0,68,0,8
0,64,0,4
0,40,0,8
0,64,58,18
0,35,104,2
0,40,78,0
0,44,80,0
0,51,89,0
0,69,87,0
0,73,90,0
0,73,0,32
0,69,0,4
0,73,0,9
0,35,101,9
0,40,87,0
0,47,78,0
0,51,95,0
0,44,0,2
0,71,80,4
0,68,78,2
0,73,95,12
0,40,68,22
0,51,74,0
0,56,0,10
0,59,0,15
0,64,0,1
0,64,0,2
0,40,87,30
0,51,72,0
0,64,93,2
0,68,0,2
0,71,0,12
0,47,0,4
0,64,0,6
0,38,102,10
0,40,108,0
0,44,84,0
0,51,81,0
0,64,70,0
0,59,76,1
0,56,72,1
0,73,0,0
0,72,89,16
0,40,80,14
0,51,69,0
0,40,0,0
0,72,0,15
0,40,74,9
0,44,0,0
0,47,80,0
0,51,82,0
0,71,94,10
0,35,84,20
0,40,78,0
0,40,87,0
0,40,84,0
0,51,95,0
0,47,0,2
0,40,68,14
0,51,64,0
0,64,0,18
0,56,0,1
0,59,0,2
0,40,87,30
0,51,67,0
0,64,76,8
0,64,0,20
0,38,102,16
0,40,102,0
0,51,94,0
0,64,78,0
0,59,87,1
0,56,80,1
0,64,87,2
0,71,80,2
0,67,96,4
0,67,0,16
0,68,50,4
0,40,76,3
0,51,60,0
0,71,0,8
0,68,0,4
0,40,0,14
0,73,80,5
0,69,82,2
0,35,104,4
0,40,70,0
0,44,84,0
0,51,89,0
0,73,0,4
0,69,0,6
0,35,101,16
0,40,76,0
0,47,76,0
0,51,95,0
0,64,0,0
0,44,0,2
0,71,0,3
0,71,82,1
0,68,72,2
0,64,64,2
0,68,90,0
0,40,72,22
0,51,74,0
0,64,0,22
0,40,78,28
0,51,72,0
0,68,0,1
0,64,90,3
0,56,0,1
0,64,0,11
0,59,0,1
0,68,90,7
0,68,0,4
0,71,0,4
0,64,0,8
0,47,0,14
0,38,102,2
0,40,96,0
0,44,82,0
0,51,81,0
0,64,80,0
0,59,80,1
0,56,76,1
0,68,0,17
0,40,78,1
0,51,69,0
0,56,0,13
0,59,0,1
0,64,0,4
0,68,94,3
0,40,0,1
0,44,0,28
0,40,93,2
0,47,84,0
0,51,82,0
0,47,0,32
0,68,0,21
0,59,0,1
0,64,0,0
0,68,0,0
0,33,96,4
0,35,84,0
0,45,102,0
0,51,95,0
0,61,52,0
0,61,63,0
0,64,47,0
0,64,41,0
0,64,62,0
0,69,58,0
0,69,49,0
0,69,63,0
0,66,101,8
0,51,64,52
0,45,102,34
0,51,67,0
0,38,102,4
0,51,94,0
0,69,82,0
0,64,90,1
0,61,90,1
0,61,0,17
0,64,0,22
0,69,0,9
0,51,60,8
0,35,104,60
0,37,87,0
0,51,89,0
0,33,0,4
0,35,101,60
0,40,96,0
0,45,80,0
0,51,95,0
0,76,91,6
0,37,0,2
0,66,0,10
0,51,74,40
0,76,0,58
0,45,102,2
0,51,72,0
0,76,94,16
0,40,0,24
0,37,90,20
0,38,102,0
0,51,81,0
0,69,87,0
0,64,96,1
0,61,93,1
0,51,69,50
0,76,0,2
0,76,94,15
0,37,0,23
0,64,0,9
0,69,0,3
0,61,0,5
0,40,96,5
0,45,93,0
0,51,82,0
0,61,0,6
0,61,0,0
0,64,0,0
0,64,0,0
0,69,0,0
0,69,0,0
0,69,0,0
0,40,0,2
0,34,102,2
0,35,84,0
0,46,93,0
0,51,95,0
0,61,62,0
0,61,73,0
0,64,52,0
0,64,56,0
0,70,54,0
0,70,59,0
