track,note,velocity,time
1,64,118,5760
1,61,118,388
1,64,105,36
1,69,107,24
1,73,106,24
1,71,97,28
1,71,97,116
1,69,102,768
1,69,97,124
1,69,105,100
1,69,102,112
1,68,106,384
1,69,98,16
1,71,85,28
1,64,100,448
1,66,106,16
1,64,98,4
1,63,103,384
1,64,93,36
1,74,97,12
1,71,98,12
1,64,100,8
1,64,102,76
1,78,99,144
1,76,88,76
1,74,102,56
1,73,95,76
1,64,107,376
1,61,103,16
1,64,86,8
1,69,95,188
1,73,99,96
1,71,93,40
1,71,89,156
1,69,98,32
1,69,100,92
1,69,105,100
1,69,97,104
1,71,91,384
1,69,100,380
1,66,89,348
1,74,100,948
1,74,98,88
1,73,114,64
1,71,97,72
1,73,106,104
1,71,98,60
1,69,100,88
1,64,87,224
1,71,92,4
1,64,92,4
1,71,95,40
1,72,95,48
1,73,103,384
1,74,97,988
1,74,100,100
1,73,103,80
1,71,91,88
1,73,101,136
1,71,89,60
1,69,92,100
1,64,84,228
1,64,92,80
1,74,90,384
1,73,95,76
1,71,93,60
1,69,89,80
1,64,89,2424
1,69,88,196
1,69,89,108
1,69,97,112
1,69,90,96
1,69,90,104
1,69,87,100
1,68,90,192
1,66,91,16
1,68,90,80
1,66,94,16
1,64,82,28
1,74,92,292
1,74,88,88
1,74,97,100
1,74,92,88
1,74,95,100
1,74,95,88
1,73,101,76
1,71,92,68
1,73,88,80
1,64,93,828
1,69,95,20
1,69,95,92
1,69,95,96
1,69,90,100
1,69,88,100
1,69,95,96
1,68,95,88
1,66,97,88
1,68,95,92
1,71,86,24
1,71,89,120
1,71,95,336
1,73,89,188
1,71,89,12
1,69,95,188
1,68,81,4
1,69,90,8
1,68,82,4
1,66,90,12
1,64,74,28
1,64,90,864
1,69,87,8
1,69,91,96
1,69,93,112
1,69,89,116
1,69,88,104
1,69,90,88
1,68,94,52
1,66,88,24
1,68,89,92
1,66,91,36
1,64,82,24
1,64,86,116
1,74,90,196
1,74,86,108
1,74,73,88
1,74,85,88
1,74,90,100
1,74,86,88
1,73,96,48
1,71,87,32
1,73,93,80
1,64,95,920
1,69,93,196
1,69,91,80
1,69,93,88
1,69,93,104
1,69,100,96
1,69,95,96
1,68,95,60
1,66,94,24
1,68,97,60
1,71,86,8
1,71,84,160
1,71,86,204
1,71,91,88
1,73,84,12
1,71,88,36
1,69,88,16
1,68,90,32
1,69,86,20
1,68,85,0
1,66,95,192
1,64,85,4
1,64,110,744
1,61,96,4
1,64,87,40
1,69,91,24
1,73,94,20
1,71,86,36
1,71,89,120
1,69,83,24
1,69,89,140
1,69,97,104
1,69,86,92
1,68,87,384
1,69,93,48
1,71,81,48
1,64,97,664
1,66,97,32
1,64,92,4
1,63,97,16
1,64,90,40
1,74,89,36
1,71,84,4
1,64,87,152
1,64,92,96
1,78,96,132
1,76,81,68
1,74,93,4
1,73,91,24
1,64,95,520
1,61,97,28
1,64,87,28
1,69,92,12
1,73,95,196
1,71,88,28
1,71,89,132
1,69,88,32
1,69,98,124
1,69,105,124
1,69,93,72
1,71,87,384
1,69,89,32
1,66,89,24
1,74,98,764
1,74,100,80
1,73,103,76
1,71,90,52
1,73,103,92
1,71,93,32
1,69,95,100
1,64,86,400
1,71,89,16
1,64,86,384
1,71,93,12
1,72,91,384
1,73,94,380
1,74,98,992
1,74,93,112
1,73,99,36
1,71,91,60
1,73,101,112
1,71,88,28
1,69,97,92
1,64,91,276
1,64,97,92
1,74,95,384
1,73,97,64
1,71,90,100
1,69,77,96
1,64,102,2468
1,69,89,192
1,69,88,128
1,69,87,120
1,69,92,124
1,69,87,116
1,69,88,88
1,68,84,192
1,66,88,20
1,68,87,72
1,66,85,24
1,64,77,24
1,74,85,136
1,74,86,96
1,74,91,112
1,74,88,108
1,74,88,104
1,74,87,108
1,73,90,28
1,71,80,12
1,73,77,28
1,64,98,880
1,69,97,8
1,69,92,104
1,69,90,112
1,69,87,100
1,69,93,96
1,69,93,92
1,68,99,56
1,66,94,24
1,68,97,72
1,71,85,28
1,71,88,172
1,71,92,336
1,73,86,4
1,71,86,32
1,69,90,16
1,68,83,16
1,69,89,4
1,68,84,192
1,66,91,0
1,64,85,16
1,64,84,812
1,69,87,196
1,69,93,128
1,69,100,124
1,69,89,104
1,69,86,108
1,69,91,96
1,68,101,36
1,66,84,24
1,68,93,84
1,66,90,24
1,64,76,80
1,64,89,140
1,74,92,24
1,74,95,100
1,74,100,116
1,74,93,112
1,74,97,92
1,74,97,96
1,73,91,60
1,71,79,24
1,73,80,64
1,64,93,488
1,69,85,196
1,69,84,104
1,69,89,116
1,69,88,104
1,69,91,104
1,69,91,100
1,68,91,80
1,66,93,36
1,68,97,96
1,71,85,16
1,71,88,152
1,71,85,104
1,71,91,92
1,73,87,188
1,71,80,8
1,69,88,28
1,68,85,192
1,69,83,16
1,68,82,4
1,66,94,188
1,64,82,24
1,64,87,460
1,61,110,388
1,64,88,44
1,69,97,8
1,73,91,84
1,71,85,56
1,71,81,124
1,69,77,768
1,69,85,132
1,69,91,80
1,69,93,92
1,68,90,384
1,69,91,376
1,71,72,36
1,64,89,524
1,66,97,24
1,64,100,16
1,63,99,384
1,64,93,16
1,74,89,44
1,71,88,40
1,64,89,92
1,64,100,96
1,78,99,148
1,76,88,48
1,74,91,384
1,73,85,32
1,64,92,696
1,61,103,8
1,64,91,28
1,69,90,188
1,73,89,20
1,71,82,16
1,71,81,120
1,69,89,16
1,69,88,128
1,69,97,124
1,69,100,116
1,71,89,384
1,69,97,40
1,66,89,16
1,74,89,1112
1,74,93,132
1,73,94,36
1,71,88,16
1,73,99,124
1,71,89,60
1,69,97,124
1,64,92,280
1,71,89,196
1,64,90,380
1,71,100,44
1,72,93,384
1,73,90,28
1,74,92,920
1,74,93,124
1,73,101,36
1,71,91,28
1,73,97,136
1,71,87,8
1,69,90,108
1,64,88,260
1,64,93,96
1,74,95,16
1,73,96,88
1,71,95,92
1,69,91,88
1,64,97,952
1,61,110,8
1,64,93,8
1,69,92,0
1,73,94,24
1,71,91,20
1,71,84,120
1,69,85,16
1,69,80,128
1,69,93,116
1,69,88,104
1,68,90,12
1,69,87,40
1,71,71,48
1,64,98,696
1,66,103,384
1,64,86,376
1,63,91,24
1,64,88,16
1,74,93,16
1,71,88,12
1,64,88,200
1,64,97,92
1,78,101,100
1,76,87,48
1,74,90,384
1,73,87,24
1,64,98,796
1,61,96,384
1,64,98,16
1,69,98,0
1,73,95,12
1,71,91,48
1,71,86,112
1,69,89,768
1,69,85,124
1,69,97,136
1,69,95,92
1,71,92,384
1,69,93,52
1,66,94,20
1,74,97,984
1,74,98,104
1,73,103,384
1,71,92,8
1,73,110,132
1,71,88,36
1,69,86,88
1,64,75,200
1,71,95,4
1,64,84,16
1,71,97,384
1,72,91,380
1,73,99,364
1,74,100,888
1,74,97,88
1,73,106,68
1,71,91,76
1,73,103,120
1,71,90,32
1,69,97,88
1,64,90,280
1,64,98,92
1,74,100,20
1,73,99,92
1,71,95,104
1,69,97,84
2,28,127,3076
2,28,127,340
2,28,127,360
2,28,127,196
2,28,127,204
2,33,127,500
2,28,127,44
2,33,127,112
2,28,127,48
2,33,127,104
2,28,127,72
2,33,127,92
2,28,127,64
2,33,127,176
2,28,127,44
2,33,127,108
2,28,127,24
2,35,127,80
2,28,127,28
2,30,127,40
2,28,127,16
2,35,127,40
2,28,127,64
2,35,127,48
2,28,127,8
2,35,127,76
2,28,127,40
2,35,127,104
2,28,127,20
2,35,127,168
2,28,127,32
2,30,127,16
2,32,127,60
2,33,127,28
2,37,127,48
2,42,127,20
2,40,127,16
2,33,127,68
2,28,127,80
2,33,127,124
2,28,127,72
2,33,127,104
2,28,127,12
2,33,127,96
2,28,127,384
2,33,127,48
2,33,127,136
2,28,127,68
2,33,127,40
2,38,127,116
2,45,127,20
2,42,127,28
2,45,127,384
2,38,127,28
2,33,127,32
2,38,127,60
2,38,127,144
2,45,127,84
2,40,127,384
2,45,127,16
2,45,127,120
2,40,127,56
2,35,127,40
2,40,127,20
2,40,127,136
2,45,127,104
2,40,127,56
2,37,127,48
2,33,127,68
2,38,127,48
2,33,127,48
2,38,127,8
2,38,127,140
2,45,127,52
2,40,127,44
2,45,127,16
2,45,127,124
2,40,127,68
2,28,127,8
2,30,127,28
2,32,127,20
2,33,127,104
2,33,127,144
2,28,127,0
2,28,127,152
2,33,127,8
2,33,127,116
2,28,127,192
2,28,127,100
2,28,127,148
2,33,127,16
2,33,127,120
2,28,127,192
2,28,127,132
2,35,127,40
2,35,127,132
2,28,127,20
2,28,127,156
2,35,127,12
2,35,127,164
2,28,127,192
2,28,127,172
2,33,127,8
2,33,127,128
2,28,127,192
2,28,127,88
2,33,127,196
2,33,127,68
2,33,127,160
2,28,127,192
2,33,127,360
2,40,127,88
2,40,127,136
2,35,127,192
2,40,127,28
2,35,127,16
2,35,127,152
2,35,127,92
2,35,127,144
2,28,127,192
2,38,127,364
2,37,127,24
2,35,127,20
2,33,127,112
2,33,127,168
2,28,127,16
2,33,127,20
2,35,127,80
2,35,127,132
2,28,127,20
2,28,127,172
2,35,127,12
2,35,127,140
2,28,127,192
2,28,127,104
2,28,127,124
2,33,127,28
2,33,127,112
2,28,127,196
2,28,127,100
2,30,127,4
2,28,127,192
2,33,127,16
2,33,127,152
2,28,127,192
2,33,127,316
2,40,127,4
2,40,127,124
2,35,127,12
2,40,127,20
2,35,127,20
2,35,127,164
2,35,127,104
2,35,127,164
2,28,127,196
2,40,127,208
2,28,127,4
2,33,127,528
2,28,127,116
2,33,127,140
2,28,127,96
2,33,127,104
2,28,127,60
2,33,127,136
2,28,127,180
2,33,127,56
2,28,127,92
2,33,127,124
2,28,127,104
2,35,127,104
2,28,127,20
2,30,127,96
2,28,127,84
2,35,127,84
2,28,127,60
2,35,127,52
2,28,127,96
2,35,127,116
2,28,127,92
2,35,127,112
2,28,127,128
2,35,127,220
2,28,127,72
2,30,127,28
2,32,127,64
2,33,127,84
2,42,127,60
2,40,127,28
2,37,127,60
2,33,127,92
2,28,127,104
2,33,127,120
2,28,127,72
2,33,127,72
2,28,127,84
2,33,127,160
2,28,127,104
2,33,127,68
2,33,127,192
2,28,127,96
2,33,127,52
2,38,127,136
2,45,127,152
2,42,127,8
2,45,127,20
2,38,127,12
2,33,127,68
2,38,127,40
2,38,127,108
2,45,127,88
2,40,127,384
2,45,127,28
2,45,127,116
2,40,127,76
2,35,127,40
2,40,127,24
2,40,127,136
2,45,127,40
2,40,127,44
2,37,127,36
2,33,127,52
2,38,127,68
2,33,127,84
2,38,127,4
2,38,127,168
2,45,127,52
2,40,127,384
2,45,127,24
2,45,127,164
2,40,127,52
2,28,127,40
2,30,127,16
2,32,127,60
2,33,127,112
2,33,127,120
2,28,127,192
2,28,127,172
2,33,127,12
2,33,127,132
2,42,127,196
2,40,127,4
2,37,127,192
2,40,127,16
2,33,127,20
2,33,127,128
2,28,127,20
2,28,127,120
2,28,127,76
2,28,127,136
2,35,127,16
2,35,127,168
2,40,127,20
2,40,127,160
2,35,127,4
2,40,127,28
2,33,127,20
2,33,127,156
2,28,127,8
2,28,127,176
2,33,127,12
2,33,127,152
2,28,127,192
2,28,127,104
2,33,127,192
2,40,127,44
2,40,127,172
2,35,127,192
2,35,127,76
2,40,127,8
2,35,127,32
2,35,127,152
2,35,127,80
2,35,127,104
2,35,127,128
2,28,127,192
2,38,127,4
2,37,127,384
2,35,127,24
2,33,127,24
2,33,127,172
2,28,127,192
2,28,127,148
2,40,127,20
2,40,127,128
2,35,127,16
2,35,127,148
2,40,127,32
2,40,127,128
2,35,127,4
2,35,127,92
2,40,127,8
2,33,127,8
2,33,127,152
2,28,127,192
2,28,127,100
2,30,127,192
2,28,127,168
2,33,127,4
2,33,127,152
2,28,127,16
2,33,127,16
2,40,127,92
2,40,127,156
2,35,127,4
2,40,127,380
2,35,127,16
2,35,127,176
2,35,127,80
2,35,127,92
2,35,127,136
2,28,127,40
2,40,127,20
2,28,127,16
2,33,127,536
2,28,127,92
2,33,127,144
2,28,127,96
2,33,127,80
2,28,127,84
2,33,127,144
2,28,127,124
2,33,127,132
2,28,127,104
2,33,127,116
2,28,127,136
2,35,127,168
2,28,127,64
2,30,127,28
2,28,127,40
2,35,127,28
2,28,127,104
2,35,127,116
2,28,127,104
2,35,127,100
2,28,127,84
2,35,127,148
2,28,127,144
2,35,127,188
2,28,127,64
2,30,127,8
2,32,127,36
2,33,127,48
2,37,127,60
2,42,127,20
2,40,127,28
2,33,127,96
2,35,127,0
2,28,127,68
2,33,127,148
2,28,127,92
2,33,127,88
2,28,127,52
2,33,127,92
2,28,127,128
2,33,127,40
2,33,127,156
2,28,127,148
2,33,127,84
2,38,127,116
2,45,127,128
2,42,127,0
2,45,127,20
2,38,127,80
2,33,127,112
2,38,127,20
2,38,127,156
2,45,127,104
2,40,127,56
2,45,127,40
2,45,127,148
2,40,127,56
2,35,127,92
2,40,127,28
2,40,127,144
2,45,127,80
2,40,127,24
2,37,127,40
2,33,127,28
2,38,127,60
2,33,127,100
2,38,127,56
2,38,127,156
2,45,127,72
2,40,127,24
2,33,127,384
2,37,127,20
2,40,127,132
2,28,127,36
2,30,127,28
2,32,127,104
2,33,127,168
2,33,127,1080
2,33,127,504
2,33,127,488
2,33,127,156
2,33,127,168
2,33,127,544
2,33,127,520
2,28,127,532
2,28,127,192
2,28,127,200
2,28,127,496
2,28,127,456
2,28,127,448
2,28,127,180
2,28,127,200
2,28,127,564
2,28,127,500
2,33,127,528
2,28,127,200
2,30,127,4
2,28,127,28
2,33,127,40
2,28,127,112
2,33,127,84
2,28,127,92
2,33,127,88
2,28,127,104
2,33,127,120
2,28,127,68
2,33,127,76
2,28,127,100
2,33,127,44
2,33,127,148
2,38,127,132
2,45,127,16
2,42,127,36
2,45,127,12
2,38,127,56
2,33,127,128
2,38,127,52
2,38,127,180
2,45,127,100
2,40,127,68
2,45,127,60
2,45,127,156
2,40,127,104
2,35,127,96
2,40,127,12
2,40,127,128
2,45,127,68
2,40,127,36
2,37,127,72
2,33,127,60
2,38,127,48
2,33,127,112
2,38,127,84
2,38,127,136
2,45,127,84
2,40,127,56
2,45,127,72
2,45,127,144
2,40,127,96
2,28,127,52
2,30,127,28
2,32,127,80
2,33,127,192
2,28,127,228
2,33,127,40
3,56,93,3080
3,59,80,0
3,64,78,0
3,59,90,348
3,64,74,0
3,68,76,0
3,59,95,276
3,68,93,0
3,64,78,0
3,64,82,188
3,68,93,0
3,71,87,0
3,76,82,260
3,71,88,0
3,68,96,0
3,57,73,364
3,61,80,4
3,64,74,380
3,69,80,16
3,64,80,96
3,73,85,4
3,62,81,20
3,71,78,4
3,61,70,20
3,69,66,4
3,64,61,0
3,59,67,12
3,68,85,0
3,69,73,28
3,61,84,0
3,64,61,44
3,68,67,0
3,71,67,4
3,62,65,28
3,66,79,60
3,61,86,368
3,64,87,4
3,60,74,28
3,63,79,0
3,61,86,24
3,64,75,0
3,66,79,20
3,74,78,4
3,71,71,28
3,62,64,0
3,64,80,576
3,78,91,32
3,69,85,0
3,76,78,28
3,68,96,4
3,74,77,24
3,66,89,4
3,73,77,0
3,64,83,140
3,73,87,0
3,69,92,0
3,64,70,44
3,73,83,0
3,69,79,0
3,64,79,44
3,73,93,0
3,69,92,0
3,64,87,136
3,73,91,0
3,69,100,0
3,69,90,140
3,64,76,0
3,73,83,0
3,61,96,8
3,64,83,0
3,57,63,32
3,61,85,4
3,64,74,380
3,69,83,52
3,73,87,96
3,64,78,4
3,73,96,56
3,71,76,32
3,62,71,4
3,64,59,16
3,61,69,4
3,69,64,0
3,67,100,68
3,71,87,4
3,69,73,28
3,66,77,4
3,62,69,4
3,62,81,104
3,66,96,44
3,69,82,384
3,74,78,48
3,66,79,4
3,73,87,72
3,64,69,0
3,62,81,28
3,71,85,0
3,73,85,16
3,64,74,4
3,71,73,32
3,62,72,4
3,61,72,8
