track,note,velocity,time
1,61,100,4208
1,64,94,0
1,69,94,0
1,57,88,86
1,61,94,0
1,64,97,0
1,61,94,176
1,64,97,0
1,69,85,0
1,64,97,78
1,68,94,0
1,71,100,0
1,56,85,104
1,59,94,0
1,64,79,0
1,64,100,192
1,68,97,0
1,71,97,0
1,67,94,68
1,69,100,0
1,73,100,0
1,67,91,62
1,69,94,0
1,71,94,0
1,67,82,12
1,69,97,0
1,66,91,88
1,69,85,0
1,74,94,0
1,69,72,92
1,74,97,0
1,78,97,0
1,66,91,38
1,69,82,0
1,74,91,0
1,64,91,30
1,69,88,0
1,73,54,0
1,64,88,76
1,69,85,0
1,73,79,0
1,64,79,18
1,69,79,118
1,64,82,60
1,68,88,0
1,71,91,0
1,64,76,76
1,68,72,0
1,71,82,0
1,69,85,576
1,71,94,178
1,64,94,8
1,69,94,0
1,73,94,0
1,64,97,62
1,69,106,0
1,74,106,0
1,64,91,50
1,69,88,0
1,73,97,0
1,64,70,18
1,68,94,0
1,71,94,0
1,73,100,768
1,81,94,0
1,73,88,22
1,76,94,0
1,73,94,32
1,81,91,0
1,74,100,68
1,83,103,0
1,68,91,576
1,76,97,0
1,74,103,36
1,83,94,0
1,76,106,36
1,85,100,0
1,74,91,4
1,83,100,0
1,73,82,0
1,81,97,0
1,78,94,4
1,86,91,0
1,81,94,16
1,90,94,0
1,78,82,766
1,86,91,0
1,76,82,328
1,85,82,0
1,76,79,40
1,85,76,0
1,73,70,0
1,81,82,0
1,76,76,10
1,85,100,0
1,74,94,16
1,83,94,0
1,74,91,46
1,83,94,0
1,73,72,576
1,81,79,0
1,71,74,0
1,80,94,0
1,78,94,0
1,86,97,0
1,76,88,0
1,85,91,0
1,74,79,0
1,83,94,0
1,73,91,0
1,81,94,0
1,71,85,996
1,80,94,0
1,71,70,36
1,80,79,0
1,73,72,192
1,81,94,0
1,74,79,328
1,83,94,0
1,74,79,84
1,83,91,0
1,73,70,192
1,81,82,0
1,71,60,174
1,80,88,0
1,73,70,348
1,81,85,0
1,69,72,330
1,73,79,0
1,74,91,192
1,78,82,0
1,73,74,6
1,76,74,0
1,71,79,760
1,80,82,0
1,71,82,42
1,80,76,0
1,73,76,192
1,81,85,0
1,74,76,338
1,83,85,0
1,74,79,58
1,83,76,0
1,76,76,192
1,85,82,0
1,78,68,2
1,81,68,0
1,86,68,0
1,78,76,32
1,81,79,0
1,86,74,0
1,76,79,136
1,81,79,0
1,85,79,0
1,73,91,1670
1,77,91,0
1,73,82,28
1,77,97,0
1,73,85,40
1,77,85,0
1,77,94,92
1,80,97,0
1,77,88,96
1,80,91,0
1,77,85,70
1,80,82,0
1,73,79,22
1,77,79,0
1,77,82,60
1,80,88,0
1,78,100,90
1,81,97,0
1,78,91,16
1,81,88,0
1,76,100,8
1,80,88,0
1,78,91,30
1,81,88,0
1,76,94,38
1,80,88,0
1,74,91,30
1,78,82,0
1,78,91,86
1,78,85,86
1,75,97,46
1,78,82,0
1,75,94,28
1,78,79,0
1,75,85,58
1,78,82,0
1,75,82,2
1,78,76,0
1,75,97,90
1,78,88,0
1,75,100,40
1,78,97,0
1,71,94,192
1,75,97,68
1,78,94,0
1,75,94,66
1,78,91,0
1,75,91,62
1,78,88,0
1,73,94,74
1,76,100,0
1,81,94,0
1,73,94,68
1,76,82,0
1,73,88,42
1,76,91,0
1,81,82,0
1,78,97,38
1,81,97,0
1,74,94,86
1,78,97,0
1,81,97,0
1,74,97,60
1,78,97,0
1,81,97,0
1,71,82,26
1,76,94,0
1,80,94,0
1,73,100,316
1,81,94,0
1,73,88,22
1,76,94,0
1,73,94,32
1,81,91,0
1,74,100,68
1,83,103,0
1,68,91,576
1,76,97,0
1,74,103,36
1,83,94,0
1,76,106,36
1,85,100,0
1,74,91,4
1,83,100,0
1,73,82,0
1,81,97,0
1,78,94,4
1,86,91,0
1,81,94,16
1,90,94,0
1,78,82,766
1,86,91,0
1,76,82,328
1,85,82,0
1,76,79,40
1,85,76,0
1,73,70,0
1,81,82,0
1,76,76,10
1,85,100,0
1,74,94,16
1,83,94,0
1,74,91,46
1,83,94,0
1,73,72,576
1,81,79,0
1,71,74,0
1,80,94,0
1,78,94,0
1,86,97,0
1,76,88,0
1,85,91,0
1,74,79,0
1,83,94,0
1,73,91,0
1,81,94,0
1,71,85,996
1,80,94,0
1,71,70,36
1,80,79,0
1,73,72,192
1,81,94,0
1,74,79,328
1,83,94,0
1,74,79,84
1,83,91,0
1,73,70,192
1,81,82,0
1,71,60,174
1,80,88,0
1,73,70,348
1,81,85,0
1,69,72,330
1,73,79,0
1,74,91,192
1,78,82,0
1,73,74,6
1,76,74,0
1,71,79,760
1,80,82,0
1,71,82,42
1,80,76,0
1,73,76,192
1,81,85,0
1,74,76,338
1,83,85,0
1,74,79,58
1,83,76,0
1,76,76,192
1,85,82,0
1,78,68,2
1,81,68,0
1,86,68,0
1,78,76,32
1,81,79,0
1,86,74,0
1,76,79,72
1,81,79,0
1,85,79,0
1,73,91,1734
1,77,91,0
1,73,82,28
1,77,97,0
1,73,85,40
1,77,85,0
1,77,94,92
1,80,97,0
1,77,88,96
1,80,91,0
1,77,85,70
1,80,82,0
1,73,79,22
1,77,79,0
1,77,82,60
1,80,88,0
1,78,100,90
1,81,97,0
1,78,91,16
1,81,88,0
1,76,100,8
1,80,88,0
1,78,91,30
1,81,88,0
1,76,94,38
1,80,88,0
1,74,91,30
1,78,82,0
1,78,91,86
1,78,85,86
1,75,97,46
1,78,82,0
1,75,94,28
1,78,79,0
1,75,85,58
1,78,82,0
1,75,82,2
1,78,76,0
1,75,97,90
1,78,88,0
1,75,100,40
1,78,97,0
1,71,94,192
1,75,97,68
1,78,94,0
1,75,94,66
1,78,91,0
1,75,91,62
1,78,88,0
1,81,112,74
1,76,112,18
1,73,103,78
1,78,106,96
1,81,106,0
1,74,100,34
1,78,103,0
1,78,109,52
1,81,109,0
1,76,109,72
1,80,106,0
1,73,100,1272
1,81,94,0
1,73,88,22
1,76,94,0
1,73,94,32
1,81,91,0
1,74,100,68
1,83,103,0
1,68,91,576
1,76,97,0
1,74,103,36
1,83,94,0
1,76,106,36
1,85,100,0
1,74,91,4
1,83,100,0
1,73,82,0
1,81,97,0
1,78,94,4
1,86,91,0
1,81,94,16
1,90,94,0
1,78,82,766
1,86,91,0
1,76,82,328
1,85,82,0
1,76,79,40
1,85,76,0
1,73,70,0
1,81,82,0
1,76,76,10
1,85,100,0
1,74,94,16
1,83,94,0
1,74,91,46
1,83,94,0
1,73,72,576
1,81,79,0
1,71,74,0
1,80,94,0
1,78,94,0
1,86,97,0
1,76,88,0
1,85,91,0
1,74,79,0
1,83,94,0
1,73,91,0
1,81,94,0
1,61,100,12708
1,64,94,0
1,69,94,0
1,57,88,86
1,61,94,0
1,64,97,0
1,61,94,176
1,64,97,0
1,69,85,0
1,64,97,78
1,68,94,0
1,71,100,0
1,56,85,104
1,59,94,0
1,64,79,0
1,64,100,192
1,68,97,0
1,71,97,0
1,67,94,68
1,69,100,0
1,73,100,0
1,67,91,62
1,69,94,0
1,71,94,0
1,67,82,12
1,69,97,0
1,66,91,88
1,69,85,0
1,74,94,0
1,69,72,92
1,74,97,0
1,78,97,0
1,66,91,38
1,69,82,0
1,74,91,0
1,64,91,30
1,69,88,0
1,73,54,0
1,64,88,76
1,69,85,0
1,73,79,0
1,64,79,18
1,69,79,118
1,64,82,60
1,68,88,0
1,71,91,0
1,64,76,76
1,68,72,0
1,71,82,0
1,69,85,576
1,71,94,178
1,64,94,8
1,69,94,0
1,73,94,0
1,64,97,62
1,69,106,0
1,74,106,0
1,64,91,50
1,69,88,0
1,73,97,0
1,64,70,18
1,68,94,0
1,71,94,0
1,73,100,768
1,81,94,0
1,73,88,22
1,76,94,0
1,73,94,32
1,81,91,0
1,74,100,68
1,83,103,0
1,68,91,576
1,76,97,0
1,74,103,36
1,83,94,0
1,76,106,36
1,85,100,0
1,74,91,4
1,83,100,0
1,73,82,0
1,81,97,0
1,78,94,4
1,86,91,0
1,81,94,16
1,90,94,0
1,78,82,766
1,86,91,0
1,76,82,328
1,85,82,0
1,76,79,40
1,85,76,0
1,73,70,0
1,81,82,0
1,76,76,10
1,85,100,0
1,74,94,16
1,83,94,0
1,74,91,46
1,83,94,0
1,73,72,576
1,81,79,0
1,71,74,0
1,80,94,0
1,78,94,0
1,86,97,0
1,76,88,0
1,85,91,0
1,74,79,0
1,83,94,0
1,73,91,0
1,81,94,0
1,73,100,12708
1,81,94,0
1,73,88,22
1,76,94,0
1,73,94,32
1,81,91,0
1,74,100,68
1,83,103,0
1,68,91,576
1,76,97,0
1,74,103,36
1,83,94,0
1,76,106,36
1,85,100,0
1,74,91,4
1,83,100,0
1,73,82,0
1,81,97,0
1,78,94,4
1,86,91,0
1,81,94,16
1,90,94,0
1,78,82,766
1,86,91,0
1,76,82,328
1,85,82,0
1,76,79,40
1,85,76,0
1,73,70,0
1,81,82,0
1,76,76,10
1,85,100,0
1,74,94,16
1,83,94,0
1,74,91,46
1,83,94,0
1,73,72,576
1,81,79,0
1,71,74,0
1,80,94,0
1,78,94,0
1,86,97,0
1,76,88,0
1,85,91,0
1,74,79,0
1,83,94,0
1,73,91,0
1,81,94,0
2,54,94,25728
2,62,109,0
2,52,97,576
2,61,106,0
2,50,97,22
2,59,106,0
2,49,100,358
2,57,109,0
2,66,82,5438
2,69,85,0
2,74,85,0
2,64,94,88
2,69,94,0
2,73,94,0
2,64,79,86
2,68,94,0
2,71,85,0
2,65,85,4868
2,68,70,0
2,66,79,32
2,69,82,0
2,64,72,768
2,68,72,0
2,62,82,0
2,66,76,0
2,61,76,712
2,64,79,0
2,59,72,2
2,63,76,0
2,61,74,3072
2,64,79,0
2,62,79,0
2,66,91,0
2,64,70,0
2,68,68,0
2,54,94,10112
2,62,109,0
2,52,97,576
2,61,106,0
2,50,97,22
2,59,106,0
2,49,100,358
2,57,109,0
2,66,82,5438
2,69,85,0
2,74,85,0
2,64,94,88
2,69,94,0
2,73,94,0
2,64,79,86
2,68,94,0
2,71,85,0
2,65,85,4868
2,68,70,0
2,66,79,32
2,69,82,0
2,64,72,768
2,68,72,0
2,62,82,0
2,66,76,0
2,61,76,712
2,64,79,0
2,59,72,2
2,63,76,0
2,61,74,3072
2,64,79,0
2,62,79,0
2,66,91,0
2,64,70,0
2,68,68,0
2,54,94,10112
2,62,109,0
2,52,97,576
2,61,106,0
2,50,97,22
2,59,106,0
2,49,100,358
2,57,109,0
3,33,109,10368
3,33,103,58
3,33,103,80
3,28,106,20
3,28,103,40
3,28,97,52
3,33,97,18
3,33,103,24
3,33,103,70
3,28,109,118
3,28,103,54
3,28,109,60
3,33,97,16
3,33,94,104
3,33,94,28
3,28,100,768
3,28,94,152
3,28,94,12
3,33,94,768
3,33,94,144
3,33,97,38
3,38,94,34
3,38,97,150
3,38,97,54
3,33,94,52
3,33,91,102
3,33,88,60
3,28,91,26
3,28,94,136
3,28,94,58
3,38,103,62
3,37,94,576
3,35,94,574
3,33,97,378
3,38,109,62
3,37,103,384
3,28,100,108
3,28,91,10
3,28,97,68
3,28,103,178
3,28,94,44
3,28,94,62
3,33,100,10
3,33,91,34
3,33,85,46
3,33,97,130
3,33,91,22
3,33,97,66
3,28,103,768
3,28,106,66
3,28,97,56
3,28,97,124
3,28,97,34
3,28,94,66
3,33,91,0
3,33,82,24
3,33,85,52
3,33,91,36
3,33,97,66
3,37,100,192
3,40,97,352
3,37,94,16
3,37,88,54
3,37,94,38
3,37,97,138
3,37,91,16
3,37,91,34
3,42,97,4
3,40,103,768
3,38,106,44
3,37,106,768
3,35,106,14
3,35,100,14
3,35,88,52
3,35,100,160
3,35,91,32
3,35,85,42
3,33,100,94
3,33,97,70
3,38,91,192
3,38,91,68
3,40,100,192
3,40,97,44
3,40,97,30
3,35,92,0
3,33,97,0
3,33,94,104
3,33,94,28
3,28,100,768
3,28,94,152
3,28,94,12
3,33,94,768
3,33,94,144
3,33,97,38
3,38,94,34
3,38,97,150
3,38,97,54
3,33,94,52
3,33,91,102
3,33,88,60
3,28,91,26
3,28,94,136
3,28,94,58
3,38,103,62
3,37,94,576
3,35,94,574
3,33,97,378
3,38,109,62
3,37,103,384
3,28,100,108
3,28,91,10
3,28,97,68
3,28,103,178
3,28,94,44
3,28,94,62
3,33,100,10
3,33,91,34
3,33,85,46
3,33,97,130
3,33,91,22
3,33,97,66
3,28,103,768
3,28,106,66
3,28,97,56
3,28,97,124
3,28,97,34
3,28,94,66
3,33,91,0
3,33,82,24
3,33,85,52
3,33,91,36
3,33,97,66
3,37,100,192
3,40,97,352
3,37,94,16
3,37,88,54
3,37,94,38
3,37,97,138
3,37,91,16
3,37,91,34
3,42,97,4
3,40,103,768
3,38,106,44
3,37,106,768
3,35,106,14
3,35,100,14
3,35,88,52
3,35,100,160
3,35,91,32
3,35,85,42
3,33,106,94
3,33,109,58
3,33,109,70
3,38,109,82
3,38,112,72
3,38,106,70
3,40,109,90
3,33,97,1296
3,33,94,104
3,33,94,28
3,28,100,768
3,28,94,152
3,28,94,12
3,33,94,768
3,33,94,144
3,33,97,38
3,38,94,34
3,38,97,150
3,38,97,54
3,33,94,52
3,33,91,102
3,33,88,60
3,28,91,26
3,28,94,136
3,28,94,58
3,38,103,62
3,37,94,576
3,35,94,574
3,33,97,378
3,38,109,62
3,37,103,384
3,33,97,108
3,33,94,104
3,33,94,28
3,28,100,768
3,28,94,152
3,28,94,12
3,33,94,768
3,33,94,144
3,33,97,38
3,38,94,34
3,38,97,150
3,38,97,54
3,33,94,52
3,33,91,102
3,33,88,60
3,28,91,26
3,28,94,136
3,28,94,58
3,38,112,62
3,37,103,6
3,35,103,576
3,33,103,380
3,33,109,2
3,33,97,558
3,33,97,56
3,28,100,0
3,28,109,60
3,28,100,40
3,33,103,768
3,33,91,60
3,33,91,26
3,38,103,20
3,38,109,84
3,38,109,56
3,33,109,4
3,33,103,58
3,33,103,80
3,28,106,20
3,28,103,40
3,28,97,52
3,33,97,18
3,33,103,24
3,33,103,70
3,28,109,118
3,28,103,54
3,28,109,60
3,33,97,16
3,33,94,104
3,33,94,28
3,28,100,768
3,28,94,152
3,28,94,12
3,33,94,768
3,33,94,144
3,33,97,38
3,38,94,34
3,38,97,150
3,38,97,54
3,33,94,52
3,33,91,102
3,33,88,60
3,28,91,26
3,28,94,136
3,28,94,58
3,38,103,62
3,37,94,576
3,35,94,574
3,33,97,378
3,38,109,62
3,37,103,384
3,33,97,108
3,33,94,104
3,33,94,28
3,28,100,768
3,28,94,152
3,28,94,12
3,33,94,768
3,33,94,144
3,33,97,38
3,38,94,34
3,38,97,150
3,38,97,54
3,33,94,52
3,33,91,102
3,33,88,60
3,28,91,26
3,28,94,136
3,28,94,58
3,38,112,62
3,37,103,6
3,35,103,576
3,33,103,380
3,33,97,2
3,33,94,558
3,33,94,28
3,28,100,0
3,28,94,152
3,28,94,12
3,33,94,768
3,33,94,144
3,33,97,38
3,38,94,34
3,38,97,150
3,38,97,54
3,33,94,52
3,33,91,102
3,33,88,60
3,28,91,26
3,28,94,136
3,28,94,58
3,38,103,62
3,37,94,576
3,35,94,574
3,33,97,378
3,38,109,62
3,37,103,384
3,28,109,108
3,28,94,60
3,28,94,28
3,28,109,128
3,28,103,32
3,28,97,74
3,38,112,32
3,37,106,576
3,35,103,574
3,33,100,368
4,64,89,10448
4,69,95,192
4,73,92,192
4,64,86,276
4,68,89,192
4,71,92,192
4,73,89,210
4,69,98,192
4,64,95,162
4,64,89,274
4,68,95,192
4,71,95,192
4,76,105,194
4,73,105,192
4,69,108,160
4,76,105,178
4,71,105,192
4,68,102,6
4,76,99,236
4,73,102,192
4,67,105,164
4,66,96,196
4,69,87,192
4,74,96,192
4,76,99,460
4,73,99,192
4,69,96,154
4,76,96,226
4,71,96,192
4,68,96,134
4,66,102,140
4,69,102,0
4,74,99,0
4,64,99,50
4,69,99,0
