track,note,velocity,time
1,40,95,8779
1,38,91,285
1,40,0,0
1,38,0,99
1,36,104,1
1,36,0,275
1,35,91,11
1,35,0,94
1,33,95,5
1,33,0,372
1,33,95,15
1,33,0,85
1,35,91,7
1,35,0,86
1,33,91,5
1,33,0,94
1,31,91,3
1,31,0,93
1,40,95,4
1,40,0,281
1,38,95,6
1,38,0,96
1,36,95,5
1,36,0,280
1,35,95,7
1,35,0,86
1,33,95,11
1,33,0,355
1,33,95,25
1,33,0,95
1,35,91,0
1,35,0,90
1,33,87,3
1,31,91,96
1,33,0,0
1,31,0,93
1,40,95,8
1,40,0,283
1,38,95,4
1,38,0,95
1,36,91,3
1,36,0,282
1,35,95,6
1,35,0,87
1,33,91,11
1,33,0,362
1,33,104,17
1,33,0,90
1,35,87,4
1,35,0,89
1,33,91,6
1,33,0,93
1,31,91,3
1,31,0,99
1,40,95,4
1,40,0,267
1,38,95,16
1,38,0,94
1,36,95,9
1,36,0,276
1,35,95,13
1,35,0,95
1,33,95,5
1,33,0,347
1,33,95,24
1,33,0,86
1,35,91,8
1,33,87,97
1,35,0,0
1,33,0,90
1,31,91,4
1,31,0,96
1,40,95,8
1,38,91,285
1,40,0,0
1,38,0,99
1,36,104,1
1,36,0,275
1,35,91,11
1,35,0,94
1,33,95,5
1,33,0,372
1,33,95,15
1,33,0,85
1,35,91,7
1,35,0,86
1,33,91,5
1,33,0,94
1,31,91,3
1,31,0,93
1,40,95,4
1,40,0,281
1,38,95,6
1,38,0,96
1,36,95,5
1,36,0,280
1,35,95,7
1,35,0,86
1,33,95,11
1,33,0,355
1,33,95,25
1,33,0,95
1,35,91,0
1,35,0,90
1,33,87,3
1,31,91,96
1,33,0,0
1,31,0,93
1,40,95,8
1,40,0,283
1,38,95,4
1,38,0,95
1,36,91,3
1,36,0,282
1,35,95,6
1,35,0,87
1,33,91,11
1,33,0,362
1,33,104,17
1,33,0,90
1,35,87,4
1,35,0,89
1,33,91,6
1,33,0,93
1,31,91,3
1,31,0,99
1,36,104,3
1,36,0,543
1,36,95,29
1,36,0,187
1,35,95,10
1,35,0,528
1,35,91,38
1,35,0,192
1,40,95,9
1,38,91,285
1,40,0,0
1,38,0,99
1,36,104,1
1,36,0,275
1,35,91,11
1,35,0,94
1,33,95,5
1,33,0,372
1,33,95,15
1,33,0,85
1,35,91,7
1,35,0,86
1,33,91,5
1,33,0,94
1,31,91,3
1,31,0,93
1,40,95,6
1,38,91,285
1,40,0,0
1,38,0,99
1,36,104,1
1,36,0,275
1,35,91,11
1,35,0,94
1,33,95,5
1,33,0,372
1,33,95,15
1,33,0,85
1,35,91,7
1,35,0,86
1,33,91,5
1,33,0,94
1,31,91,3
1,31,0,93
1,40,95,4
1,40,0,281
1,38,95,6
1,38,0,96
1,36,95,5
1,36,0,280
1,35,95,7
1,35,0,86
1,33,95,11
1,33,0,355
1,33,95,25
1,33,0,95
1,35,91,0
1,35,0,90
1,33,87,3
1,31,91,96
1,33,0,0
1,31,0,93
1,40,95,8
1,40,0,283
1,38,95,4
1,38,0,95
1,36,91,3
1,36,0,282
1,35,95,6
1,35,0,87
1,33,91,11
1,33,0,362
1,33,104,17
1,33,0,90
1,35,87,4
1,35,0,89
1,33,91,6
1,33,0,93
1,31,91,3
1,31,0,99
1,36,104,3
1,36,0,543
1,36,95,29
1,36,0,187
1,35,95,10
1,35,0,528
1,35,91,38
1,35,0,192
1,40,95,9
1,38,91,285
1,40,0,0
1,38,0,99
1,36,104,1
1,36,0,275
1,35,91,11
1,35,0,94
1,33,95,5
1,33,0,372
1,33,95,15
1,33,0,85
1,35,91,7
1,35,0,86
1,33,91,5
1,33,0,94
1,31,91,3
1,31,0,93
1,40,95,4
1,40,0,281
1,38,95,6
1,38,0,96
1,36,95,5
1,36,0,280
1,35,95,7
1,35,0,86
1,33,95,11
1,33,0,355
1,33,95,25
1,33,0,95
1,35,91,0
1,35,0,90
1,33,87,3
1,31,91,96
1,33,0,0
1,31,0,93
1,40,99,10
1,40,0,86
1,40,87,8
1,40,0,87
1,40,95,7
1,40,0,88
1,40,91,8
1,40,0,88
1,40,91,8
1,40,0,89
1,40,91,7
1,40,0,87
1,40,91,7
1,40,0,89
1,40,87,8
1,40,0,90
1,40,91,8
1,40,0,89
1,40,87,7
1,40,0,88
1,40,91,7
1,40,0,85
1,40,87,8
1,40,0,90
1,40,95,7
1,40,0,89
1,40,95,8
1,40,0,88
1,40,91,8
1,40,0,87
1,40,91,8
1,40,0,89
1,33,95,8
1,33,0,86
1,33,87,7
1,33,0,87
1,33,95,8
1,33,0,92
1,33,104,7
1,33,0,91
1,33,95,8
1,33,0,87
1,33,95,8
1,33,0,89
1,33,104,7
1,33,0,87
1,33,95,8
1,33,0,89
1,39,104,8
1,39,0,88
1,39,87,7
1,39,0,88
1,39,91,7
1,39,0,91
1,39,95,7
1,39,0,89
1,39,91,8
1,39,0,88
1,39,91,7
1,39,0,91
1,39,91,8
1,39,0,89
1,39,87,7
1,39,0,87
1,40,95,7
1,40,0,90
1,40,91,7
1,40,0,88
1,40,91,7
1,40,0,87
1,40,91,8
1,40,0,94
1,40,104,5
1,40,0,85
1,40,95,10
1,40,0,88
1,40,91,7
1,40,0,87
1,40,95,8
1,40,0,87
1,28,95,8
1,28,0,88
1,28,95,8
1,28,0,86
1,28,95,8
1,28,0,86
1,28,95,8
1,28,0,90
1,28,91,8
1,28,0,89
1,28,95,8
1,28,0,89
1,28,104,7
1,28,0,89
1,28,91,8
1,28,0,88
1,33,104,8
1,33,0,87
1,33,95,8
1,33,0,89
1,33,95,7
1,33,0,89
1,33,95,7
1,33,0,89
1,33,95,8
1,33,0,90
1,33,95,7
1,33,0,89
1,33,87,8
1,33,0,89
1,33,91,8
1,33,0,91
1,39,95,8
1,39,0,89
1,39,87,7
1,39,0,88
1,39,95,7
1,39,0,87
1,39,91,7
1,39,0,88
1,39,95,7
1,39,0,88
1,39,87,8
1,39,0,88
1,39,91,7
1,39,0,90
1,39,95,8
1,39,0,88
1,33,105,9
1,33,0,81
1,33,97,8
1,33,0,95
1,33,104,8
1,33,0,81
1,33,97,8
1,33,0,90
1,31,105,8
1,31,0,91
1,31,97,7
1,31,0,92
1,31,104,7
1,31,0,86
1,31,97,8
1,31,0,90
1,30,97,7
1,30,0,87
1,30,97,7
1,30,0,89
1,30,91,7
1,30,0,85
1,30,95,8
1,30,0,90
1,39,97,7
1,39,0,90
1,39,95,7
1,39,0,86
1,39,95,8
1,39,0,87
1,39,95,7
1,39,0,94
1,40,97,7
1,40,0,90
1,40,91,7
1,40,0,89
1,40,91,8
1,40,0,87
1,40,95,7
1,40,0,92
1,42,105,7
1,42,0,86
1,42,95,7
1,42,0,89
1,42,104,8
1,42,0,88
1,42,91,7
1,42,0,89
1,43,104,8
1,43,0,90
1,43,95,7
1,43,0,87
1,43,91,7
1,43,0,85
1,43,91,8
1,43,0,88
1,43,95,7
1,43,0,91
1,43,91,7
1,43,0,88
1,43,105,8
1,43,0,88
1,43,95,7
1,43,0,95
1,29,95,7
1,29,0,87
1,29,97,8
1,29,0,86
1,29,104,8
1,29,0,87
1,29,95,8
1,29,0,90
1,33,105,8
1,33,0,87
1,33,97,7
1,33,0,89
1,33,95,7
1,33,0,87
1,33,95,8
1,33,0,87
1,35,105,8
1,35,0,88
1,35,95,8
1,35,0,87
1,35,104,8
1,35,0,95
1,35,95,8
1,35,0,88
1,35,95,8
1,35,0,89
1,35,95,8
1,35,0,80
1,35,104,7
1,35,0,89
1,35,95,8
1,35,0,88
1,35,113,7
1,35,0,90
1,30,105,8
1,30,0,93
1,35,113,7
1,35,0,116
1,40,95,462
1,38,91,285
1,40,0,0
1,38,0,99
1,36,104,1
1,36,0,275
1,35,91,11
1,35,0,94
1,33,95,5
1,33,0,372
1,33,95,15
1,33,0,85
1,35,91,7
1,35,0,86
1,33,91,5
1,33,0,94
1,31,91,3
1,31,0,93
1,40,95,4
1,40,0,281
1,38,95,6
1,38,0,96
1,36,95,5
1,36,0,280
1,35,95,7
1,35,0,86
1,33,95,11
1,33,0,355
1,33,95,25
1,33,0,95
1,35,91,0
1,35,0,90
1,33,87,3
1,31,91,96
1,33,0,0
1,31,0,93
1,40,95,8
1,40,0,283
1,38,95,4
1,38,0,95
1,36,91,3
1,36,0,282
1,35,95,6
1,35,0,87
1,33,91,11
1,33,0,362
1,33,104,17
1,33,0,90
1,35,87,4
1,35,0,89
1,33,91,6
1,33,0,93
1,31,91,3
1,31,0,99
1,40,95,4
1,40,0,267
1,38,95,16
1,38,0,94
1,36,95,9
1,36,0,276
1,35,95,13
1,35,0,95
1,33,95,5
1,33,0,347
1,33,95,24
1,33,0,86
1,35,91,8
1,33,87,97
1,35,0,0
1,33,0,90
1,31,91,4
1,31,0,96
1,40,95,8
1,38,91,285
1,40,0,0
1,38,0,99
1,36,104,1
1,36,0,275
1,35,91,11
1,35,0,94
1,33,95,5
1,33,0,372
1,33,95,15
1,33,0,85
1,35,91,7
1,35,0,86
1,33,91,5
1,33,0,94
1,31,91,3
1,31,0,93
1,40,95,4
1,40,0,281
1,38,95,6
1,38,0,96
1,36,95,5
1,36,0,280
1,35,95,7
1,35,0,86
1,33,95,11
1,33,0,355
1,33,95,25
1,33,0,95
1,35,91,0
1,35,0,90
1,33,87,3
1,31,91,96
1,33,0,0
1,31,0,93
1,40,95,8
1,40,0,283
1,38,95,4
1,38,0,95
1,36,91,3
1,36,0,282
1,35,95,6
1,35,0,87
1,33,91,11
1,33,0,362
1,33,104,17
1,33,0,90
1,35,87,4
1,35,0,89
1,33,91,6
1,33,0,93
1,31,91,3
1,31,0,99
1,36,104,3
1,36,0,543
1,36,95,29
1,36,0,187
1,35,95,10
1,35,0,528
1,35,91,38
1,35,0,192
1,40,95,9
1,38,91,285
1,40,0,0
1,38,0,99
1,36,104,1
1,36,0,275
1,35,91,11
1,35,0,94
1,33,95,5
1,33,0,372
1,33,95,15
1,33,0,85
1,35,91,7
1,35,0,86
1,33,91,5
1,33,0,94
1,31,91,3
1,31,0,93
1,40,95,6
1,38,91,285
1,40,0,0
1,38,0,99
1,36,104,1
1,36,0,275
1,35,91,11
1,35,0,94
1,33,95,5
1,33,0,372
1,33,95,15
1,33,0,85
1,35,91,7
1,35,0,86
1,33,91,5
1,33,0,94
1,31,91,3
1,31,0,93
1,40,95,4
1,40,0,281
1,38,95,6
1,38,0,96
1,36,95,5
1,36,0,280
1,35,95,7
1,35,0,86
1,33,95,11
1,33,0,355
1,33,95,25
1,33,0,95
1,35,91,0
1,35,0,90
1,33,87,3
1,31,91,96
1,33,0,0
1,31,0,93
1,40,95,8
1,40,0,283
1,38,95,4
1,38,0,95
1,36,91,3
1,36,0,282
1,35,95,6
1,35,0,87
1,33,91,11
1,33,0,362
1,33,104,17
1,33,0,90
1,35,87,4
1,35,0,89
1,33,91,6
1,33,0,93
1,31,91,3
1,31,0,99
1,36,104,3
1,36,0,543
1,36,95,29
1,36,0,187
1,35,95,10
1,35,0,528
1,35,91,38
1,35,0,192
1,40,95,9
1,38,91,285
1,40,0,0
1,38,0,99
1,36,104,1
1,36,0,275
1,35,91,11
1,35,0,94
1,33,95,5
1,33,0,372
1,33,95,15
1,33,0,85
1,35,91,7
1,35,0,86
1,33,91,5
1,33,0,94
1,31,91,3
1,31,0,93
1,40,95,4
1,40,0,281
1,38,95,6
1,38,0,96
1,36,95,5
1,36,0,280
1,35,95,7
1,35,0,86
1,33,95,11
1,33,0,355
1,33,95,25
1,33,0,95
1,35,91,0
1,35,0,90
1,33,87,3
1,31,91,96
1,33,0,0
1,31,0,93
1,40,99,10
1,40,0,86
1,40,87,8
1,40,0,87
1,40,95,7
1,40,0,88
1,40,91,8
1,40,0,88
1,40,91,8
1,40,0,89
1,40,91,7
1,40,0,87
1,40,91,7
1,40,0,89
1,40,87,8
1,40,0,90
1,40,91,8
1,40,0,89
1,40,87,7
1,40,0,88
1,40,91,7
1,40,0,85
1,40,87,8
1,40,0,90
1,40,95,7
1,40,0,89
1,40,95,8
1,40,0,88
1,40,91,8
1,40,0,87
1,40,91,8
1,40,0,89
1,33,95,8
1,33,0,86
1,33,87,7
1,33,0,87
1,33,95,8
1,33,0,92
1,33,104,7
1,33,0,91
1,33,95,8
1,33,0,87
1,33,95,8
1,33,0,89
1,33,104,7
1,33,0,87
1,33,95,8
1,33,0,89
1,39,104,8
1,39,0,88
1,39,87,7
1,39,0,88
1,39,91,7
1,39,0,91
1,39,95,7
1,39,0,89
1,39,91,8
1,39,0,88
1,39,91,7
1,39,0,91
1,39,91,8
1,39,0,89
1,39,87,7
1,39,0,87
1,40,95,7
1,40,0,90
1,40,91,7
1,40,0,88
1,40,91,7
1,40,0,87
1,40,91,8
1,40,0,94
1,40,104,5
1,40,0,85
1,40,95,10
1,40,0,88
1,40,91,7
1,40,0,87
1,40,95,8
1,40,0,87
1,28,95,8
1,28,0,88
1,28,95,8
1,28,0,86
1,28,95,8
1,28,0,86
1,28,95,8
1,28,0,90
1,28,91,8
1,28,0,89
1,28,95,8
1,28,0,89
1,28,104,7
1,28,0,89
1,28,91,8
1,28,0,88
1,33,104,8
1,33,0,87
1,33,95,8
1,33,0,89
1,33,95,7
1,33,0,89
1,33,95,7
1,33,0,89
1,33,95,8
1,33,0,90
1,33,95,7
1,33,0,89
1,33,87,8
1,33,0,89
1,33,91,8
1,33,0,91
1,39,95,8
1,39,0,89
1,39,87,7
1,39,0,88
1,39,95,7
1,39,0,87
1,39,91,7
1,39,0,88
1,39,95,7
1,39,0,88
1,39,87,8
1,39,0,88
1,39,91,7
1,39,0,90
1,39,95,8
1,39,0,88
1,33,105,9
1,33,0,81
1,33,97,8
1,33,0,95
1,33,104,8
1,33,0,81
1,33,97,8
1,33,0,90
1,31,105,8
1,31,0,91
1,31,97,7
1,31,0,92
1,31,104,7
1,31,0,86
1,31,97,8
1,31,0,90
1,30,97,7
1,30,0,87
1,30,97,7
1,30,0,89
1,30,91,7
1,30,0,85
1,30,95,8
1,30,0,90
1,39,97,7
1,39,0,90
1,39,95,7
1,39,0,86
1,39,95,8
1,39,0,87
1,39,95,7
1,39,0,94
1,40,97,7
1,40,0,90
1,40,91,7
1,40,0,89
1,40,91,8
1,40,0,87
1,40,95,7
1,40,0,92
1,42,105,7
1,42,0,86
1,42,95,7
1,42,0,89
1,42,104,8
1,42,0,88
1,42,91,7
1,42,0,89
1,43,104,8
1,43,0,90
1,43,95,7
1,43,0,87
1,43,91,7
1,43,0,85
1,43,91,8
1,43,0,88
1,43,95,7
1,43,0,91
1,43,91,7
1,43,0,88
1,43,105,8
1,43,0,88
1,43,95,7
1,43,0,95
1,29,95,7
1,29,0,87
1,29,97,8
1,29,0,86
1,29,104,8
1,29,0,87
1,29,95,8
1,29,0,90
1,33,105,8
1,33,0,87
1,33,97,7
1,33,0,89
1,33,95,7
1,33,0,87
1,33,95,8
1,33,0,87
1,35,105,8
1,35,0,88
1,35,95,8
1,35,0,87
1,35,104,8
1,35,0,95
1,35,95,8
1,35,0,88
1,35,95,8
1,35,0,89
1,35,95,8
1,35,0,80
1,35,104,7
1,35,0,89
1,35,95,8
1,35,0,88
1,47,82,7
1,47,0,90
1,47,73,8
1,47,0,93
1,47,73,7
1,47,0,59
1,35,86,35
1,35,0,91
1,45,95,7
1,45,0,89
1,47,87,8
1,47,0,88
1,45,95,7
1,45,0,88
1,43,91,8
1,40,95,98
1,43,0,0
1,38,91,285
1,40,0,0
1,38,0,99
1,36,104,1
1,36,0,275
1,35,91,11
1,35,0,94
1,33,95,5
1,33,0,372
1,33,95,15
1,33,0,85
1,35,91,7
1,35,0,86
1,33,91,5
1,33,0,94
1,31,91,3
1,31,0,93
1,40,95,4
1,40,0,281
1,38,95,6
1,38,0,96
1,36,95,5
1,36,0,280
1,35,95,7
1,35,0,86
1,33,95,11
1,33,0,355
1,33,95,25
1,33,0,95
