track,note,velocity,time
0,46,73,2
0,56,73,43
0,42,49,25
0,46,73,5
0,56,73,43
0,42,49,24
0,46,73,5
0,56,73,44
0,42,49,25
0,46,73,4
0,38,97,24
0,38,105,5
0,45,127,42
0,57,127,0
0,45,127,0
0,57,127,0
0,46,73,2
0,64,124,0
0,36,105,3
0,33,111,0
0,45,91,0
0,45,127,0
0,61,127,1
0,57,127,0
0,45,111,14
0,57,111,0
0,45,111,0
0,57,111,1
0,56,73,1
0,42,49,11
0,45,127,3
0,57,127,0
0,45,127,0
0,57,127,0
0,46,73,2
0,57,111,7
0,45,111,0
0,57,111,1
0,45,111,0
0,45,111,0
0,57,111,0
0,45,111,1
0,57,111,0
0,56,73,1
0,42,49,11
0,45,127,3
0,57,127,0
0,45,127,0
0,57,127,1
0,46,73,1
0,57,111,12
0,45,111,0
0,57,111,0
0,45,111,1
0,45,111,5
0,57,111,0
0,45,111,0
0,57,111,0
0,56,73,2
0,45,127,3
0,57,127,0
0,45,127,0
0,57,127,0
0,42,49,2
0,46,73,5
0,38,97,25
0,38,105,1
0,61,127,5
0,45,127,0
0,57,127,0
0,61,127,0
0,45,127,0
0,57,127,0
0,46,73,2
0,69,124,0
0,36,105,3
0,33,111,0
0,45,91,0
0,45,127,1
0,64,127,0
0,61,127,0
0,61,111,4
0,45,111,1
0,57,111,0
0,61,111,0
0,45,111,0
0,57,111,0
0,56,73,2
0,42,49,10
0,61,127,2
0,45,127,0
0,57,127,0
0,61,127,1
0,45,127,0
0,57,127,0
0,46,73,2
0,45,111,7
0,57,111,0
0,61,111,0
0,45,111,0
0,57,111,0
0,61,111,0
0,61,111,0
0,45,111,0
0,57,111,1
0,61,111,0
0,45,111,0
0,57,111,0
0,56,73,2
0,42,49,12
0,61,127,3
0,45,127,0
0,57,127,0
0,61,127,0
0,45,127,0
0,57,127,0
0,46,73,2
0,45,111,9
0,57,111,0
0,61,111,0
0,45,111,0
0,57,111,1
0,61,111,0
0,61,111,4
0,45,111,0
0,57,111,1
0,61,111,0
0,45,111,0
0,57,111,0
0,56,73,4
0,61,127,0
0,45,127,0
0,57,127,0
0,61,127,0
0,45,127,0
0,57,127,1
0,42,49,2
0,46,73,4
0,38,97,25
0,38,105,0
0,64,127,41
0,57,127,0
0,61,127,0
0,64,127,0
0,57,127,1
0,61,127,0
0,46,73,2
0,45,127,0
0,45,127,0
0,69,120,0
0,73,124,0
0,36,105,3
0,33,111,0
0,45,91,0
0,76,120,1
0,45,127,1
0,64,120,0
0,61,111,12
0,45,111,0
0,64,111,0
0,57,111,0
0,61,111,0
0,45,111,1
0,64,111,0
0,57,111,0
0,56,73,1
0,42,49,1
0,61,127,3
0,45,127,0
0,64,127,0
0,57,127,1
0,61,127,0
0,45,127,0
0,64,127,0
0,57,127,0
0,46,73,2
0,45,111,7
0,64,111,0
0,57,111,0
0,61,111,0
0,45,111,0
0,64,111,1
0,57,111,0
0,61,111,0
0,56,73,0
0,61,111,0
0,45,111,0
0,64,111,0
0,57,111,0
0,61,111,0
0,45,111,1
0,64,111,0
0,57,111,0
0,42,49,11
0,64,127,3
0,57,127,0
0,61,127,0
0,64,127,0
0,57,127,1
0,61,127,0
0,46,73,1
0,45,127,1
0,45,127,0
0,45,111,9
0,64,111,1
0,57,111,0
0,61,111,0
0,45,111,0
0,64,111,0
0,57,111,0
0,61,111,0
0,45,111,4
0,61,111,0
0,64,111,0
0,57,111,0
0,45,111,0
0,61,111,0
0,64,111,0
0,57,111,1
0,56,73,4
0,45,127,0
0,61,127,0
0,64,127,0
0,57,127,0
0,45,127,0
0,61,127,0
0,64,127,0
0,57,127,1
0,42,49,1
0,46,73,5
0,36,105,0
0,45,95,0
0,61,95,0
0,64,95,0
0,57,95,0
0,45,95,0
0,61,95,1
0,64,95,0
0,57,95,0
0,38,105,0
0,45,127,1
0,61,127,0
0,64,127,0
0,57,127,0
0,45,127,0
0,61,127,0
0,64,127,1
0,57,127,0
0,42,95,0
0,57,95,0
0,61,95,1
0,54,95,0
0,42,95,0
0,57,95,0
0,61,95,0
0,54,95,0
0,38,105,3
0,40,127,0
0,56,127,0
0,59,127,0
0,64,127,0
0,40,127,0
0,56,127,1
0,59,127,0
0,64,127,0
0,36,105,4
0,46,73,1
0,28,111,0
0,40,91,0
0,52,127,0
0,40,127,0
0,64,124,0
0,76,120,0
0,68,112,1
0,71,124,0
0,56,73,0
0,40,95,22
0,56,95,0
0,59,95,0
0,64,95,0
0,40,95,1
0,56,95,0
0,59,95,0
0,64,95,0
0,38,105,2
0,46,73,0
0,40,127,0
0,56,127,0
0,59,127,0
0,64,127,0
0,40,127,0
0,56,127,1
0,59,127,0
0,64,127,0
0,36,105,4
0,28,111,0
0,40,91,0
0,64,112,1
0,76,116,0
0,52,124,0
0,68,112,0
0,40,127,0
0,71,112,0
0,56,73,0
0,40,111,22
0,56,111,0
0,59,111,0
0,64,111,0
0,40,111,1
0,56,111,0
0,59,111,0
0,64,111,0
0,38,105,2
0,28,111,0
0,40,91,0
0,40,127,0
0,56,127,0
0,59,127,0
0,64,127,0
0,40,127,0
0,56,127,0
0,59,127,1
0,64,127,0
0,36,105,4
0,46,73,0
0,40,111,0
0,52,91,0
0,40,112,0
0,64,96,0
0,76,116,1
0,52,112,0
0,71,92,0
0,68,116,0
0,36,105,0
0,56,111,0
0,59,111,1
0,64,111,0
0,40,111,0
0,56,111,0
0,59,111,0
0,64,111,0
0,40,111,0
0,40,127,0
0,56,127,0
0,59,127,0
0,64,127,0
0,40,127,0
0,56,127,1
0,59,127,0
0,64,127,0
0,38,105,2
0,38,111,0
0,50,91,0
0,96,88,6
0,95,84,6
0,38,101,3
0,93,92,0
0,91,80,0
0,38,105,2
0,89,80,0
0,88,80,3
0,86,84,3
0,84,88,2
0,73,127,0
0,38,105,1
0,37,111,0
0,49,91,1
0,83,80,2
0,81,84,3
0,79,80,3
0,38,105,0
0,77,80,3
0,76,80,2
0,38,105,3
0,74,84,4
0,72,80,5
0,71,76,4
0,76,127,2
0,38,105,0
0,35,111,1
0,47,91,0
0,69,80,3
0,67,80,5
0,38,105,0
0,65,84,2
0,64,76,5
0,38,105,3
0,62,84,2
0,60,84,8
0,57,105,1
0,33,111,0
0,78,127,0
0,45,91,0
0,45,116,0
0,36,105,2
0,57,104,1
0,61,120,0
0,64,104,0
0,38,105,3
0,51,81,0
0,35,111,0
0,78,127,1
0,47,91,0
0,52,127,0
0,56,73,1
0,51,81,26
0,73,127,1
0,36,105,0
0,36,111,0
0,48,91,1
0,57,108,0
0,61,112,0
0,64,100,0
0,36,105,19
0,51,81,1
0,37,111,0
0,76,127,0
0,49,91,0
0,45,124,0
0,56,73,2
0,38,105,0
0,78,127,11
0,51,81,3
0,38,111,0
0,50,91,0
0,64,108,0
0,36,105,2
0,57,112,0
0,61,100,0
0,51,81,2
0,52,127,0
0,56,73,0
0,38,105,1
0,36,105,0
0,39,111,0
0,51,91,0
0,57,120,2
0,64,104,0
0,61,100,0
0,51,81,0
0,52,112,1
0,36,105,2
0,40,111,0
0,52,91,0
0,73,127,2
0,51,65,3
0,52,127,0
0,51,81,2
0,28,111,0
0,40,91,1
0,64,100,0
0,61,108,0
0,56,73,2
0,38,105,0
0,36,105,0
0,57,104,0
0,76,127,2
0,52,124,5
0,51,81,1
0,30,111,0
0,42,91,0
0,45,112,0
0,36,105,2
0,78,127,0
0,57,112,2
0,61,112,0
0,64,100,0
0,51,81,1
0,33,111,0
0,45,91,0
0,52,116,0
0,36,105,2
0,38,105,0
0,56,73,0
0,81,127,2
0,51,81,0
0,64,104,0
0,36,105,2
0,35,111,0
0,47,91,0
0,57,112,1
0,61,124,0
0,80,127,4
0,36,105,6
0,51,81,0
0,37,111,0
0,49,91,0
0,45,120,0
0,56,73,3
0,38,105,0
0,76,127,0
0,74,127,2
0,52,96,0
0,51,81,2
0,40,111,0
0,52,91,0
0,64,112,0
0,36,105,2
0,59,100,0
0,56,112,0
0,36,105,2
0,51,81,0
0,28,111,0
0,40,91,0
0,52,116,1
0,38,105,0
0,56,73,0
0,51,65,14
0,56,124,1
0,64,112,0
0,59,112,0
0,51,81,5
0,38,111,0
0,74,127,1
0,50,91,0
0,36,105,2
0,51,65,12
0,52,116,0
0,51,81,5
0,37,111,0
0,49,91,0
0,59,112,0
0,56,120,1
0,56,73,0
0,38,105,0
0,36,105,0
0,64,108,0
0,78,127,0
0,47,116,2
0,36,105,0
0,51,81,0
0,35,111,0
0,47,91,0
0,40,112,0
0,80,127,5
0,56,112,12
0,64,104,1
0,59,100,0
0,51,81,1
0,38,105,0
0,28,111,0
0,40,91,0
0,52,120,0
0,56,73,2
0,80,127,2
0,64,112,0
0,36,105,3
0,51,81,0
0,30,111,0
0,42,91,0
0,56,116,0
0,59,112,0
0,74,127,2
0,36,105,17
0,51,81,0
0,32,111,0
0,44,91,0
0,40,127,1
0,56,73,2
0,38,105,0
0,78,127,1
0,80,127,7
0,51,81,3
0,33,111,0
0,45,91,0
0,56,120,0
0,64,108,0
0,36,105,2
0,59,112,0
0,51,81,2
0,36,105,1
0,35,111,0
0,47,91,0
0,52,124,0
0,56,73,2
0,38,105,0
0,51,65,19
0,64,112,0
0,56,120,0
0,59,108,0
0,74,127,1
0,51,81,2
0,40,112,0
0,36,105,2
0,37,111,0
0,49,91,1
0,52,120,5
0,51,81,20
0,35,111,0
0,78,127,0
0,47,91,0
0,64,116,0
0,59,108,1
0,38,105,0
0,36,105,0
0,56,127,0
0,56,73,1
0,47,112,5
0,36,105,3
0,51,81,0
0,38,111,1
0,50,91,0
0,40,116,0
0,80,127,2
0,59,116,3
0,64,108,0
0,56,112,2
0,38,105,0
0,36,105,0
0,51,81,0
0,40,111,0
0,52,91,0
0,52,127,1
0,56,73,4
0,83,127,0
0,51,81,29
0,64,104,0
0,36,105,3
0,35,111,0
0,81,127,0
0,47,91,0
0,59,116,1
0,56,127,0
0,78,127,0
0,36,105,1
0,51,81,0
0,28,111,0
0,40,91,0
0,52,124,0
0,56,73,1
0,38,105,0
0,76,127,5
0,51,81,3
0,33,111,0
0,45,91,0
0,64,100,0
0,36,105,3
0,57,124,0
0,61,100,0
0,56,73,0
0,38,105,0
0,36,105,0
0,51,81,0
0,35,111,0
0,47,91,1
0,52,127,0
0,51,65,16
0,57,104,0
0,61,116,1
0,64,108,0
0,51,81,5
0,37,111,0
0,49,91,1
0,36,105,0
0,73,127,1
0,51,65,10
0,52,120,0
0,51,81,3
0,40,111,0
0,52,91,0
0,57,104,1
0,64,104,0
0,56,73,2
0,38,105,0
0,36,105,0
0,61,124,0
0,76,127,2
0,38,97,2
0,52,116,1
0,51,81,1
0,45,111,0
0,57,91,0
0,45,108,0
0,36,105,2
0,78,127,5
0,57,108,3
0,61,124,0
0,64,100,0
0,38,105,0
0,51,81,0
0,52,116,1
0,56,73,2
0,44,111,0
0,56,91,0
0,78,127,5
0,51,81,0
0,61,120,0
0,36,105,2
0,42,111,0
0,54,91,1
0,57,104,0
0,64,108,0
0,73,127,2
0,36,105,22
0,51,81,0
0,40,111,0
0,52,91,0
0,45,116,0
0,56,73,3
0,38,105,0
0,76,127,0
0,78,127,0
0,51,81,0
0,38,111,0
0,50,91,1
0,64,100,0
0,36,105,2
0,57,104,0
0,61,112,0
0,36,105,0
0,51,81,0
0,37,111,0
0,49,91,0
0,52,124,1
0,38,105,2
0,56,73,0
0,57,112,3
0,64,104,0
0,61,116,0
0,51,81,8
0,35,111,0
0,47,91,0
0,36,105,2
0,73,127,8
0,51,65,5
0,52,124,0
0,51,81,5
0,33,111,0
0,45,91,1
0,64,108,0
0,61,124,0
0,38,105,2
0,36,105,0
0,57,108,0
0,56,73,2
0,76,127,2
0,52,116,2
0,36,105,15
0,51,81,0
0,40,111,0
0,52,91,0
0,45,112,1
0,78,127,8
0,55,112,5
0,64,104,1
0,61,116,0
0,56,73,0
0,38,105,0
0,36,105,0
0,51,81,0
0,33,111,0
0,45,91,1
0,52,124,0
0,81,127,3
0,51,81,27
0,64,100,0
0,36,105,0
0,36,111,0
0,48,91,0
0,55,96,0
0,61,116,0
0,83,127,7
0,51,81,22
0,37,111,0
0,49,91,1
0,49,100,0
0,45,116,0
0,38,105,0
0,36,105,0
0,56,73,0
0,81,127,0
0,83,127,7
0,51,81,1
0,38,111,0
0,50,91,0
0,62,112,0
0,36,105,2
0,50,127,0
0,66,108,1
0,57,112,0
0,36,105,7
0,51,81,0
0,37,111,0
0,49,91,0
0,38,112,0
0,38,105,2
0,56,73,0
0,51,65,5
0,57,116,0
0,66,120,0
0,62,108,0
0,57,127,2
0,69,127,0
0,81,127,1
0,57,127,0
0,69,127,0
0,81,127,0
0,51,81,0
0,38,116,0
0,36,105,0
0,35,111,1
0,47,91,0
0,81,127,7
0,51,65,6
0,50,120,0
0,59,111,2
0,71,111,0
0,83,111,0
0,59,111,1
0,71,111,0
0,83,111,0
0,51,81,2
0,33,111,0
0,45,91,0
0,66,108,0
0,38,105,3
0,36,105,0
0,57,116,0
0,62,104,0
0,56,73,2
0,83,127,2
0,46,120,3
0,61,127,3
0,73,127,0
0,85,127,0
0,61,127,0
0,73,127,0
0,85,127,0
0,51,81,2
0,39,124,0
0,36,105,4
0,39,111,0
0,51,91,0
0,51,120,0
0,85,127,4
0,59,108,5
0,66,112,0
0,63,104,0
0,59,111,2
0,71,111,1
0,83,111,0
0,59,111,0
0,71,111,0
0,83,111,0
0,56,73,0
0,38,105,1
0,51,81,0
0,40,111,0
0,52,91,0
0,51,120,0
0,83,127,0
0,57,127,10
0,69,127,0
0,81,127,0
0,57,127,1
0,69,127,0
0,81,127,0
0,51,81,2
0,42,111,1
0,54,91,0
0,63,120,0
0,36,105,1
0,81,127,0
0,66,116,1
0,56,111,28
0,68,111,0
0,80,111,0
0,80,127,1
0,56,111,0
0,68,111,0
0,80,111,0
0,51,81,3
0,35,111,0
0,47,91,0
0,51,127,0
0,38,105,0
0,36,105,0
0,56,73,2
0,66,127,0
0,54,127,0
0,78,127,0
0,78,127,0
0,66,127,0
0,54,127,1
0,78,127,0
0,51,81,0
0,40,111,0
0,52,91,0
0,69,104,0
0,63,100,0
0,36,105,2
0,52,116,0
0,40,116,0
0,64,112,0
0,61,112,0
0,56,73,3
0,38,105,0
0,36,105,0
0,51,81,0
0,45,111,0
0,57,91,1
0,51,65,2
0,61,120,1
0,64,108,0
0,69,100,0
0,51,81,0
0,33,111,0
0,45,91,1
0,52,124,0
0,36,105,1
0,73,127,3
0,51,81,0
0,37,111,0
0,49,91,0
0,64,104,1
0,61,104,0
0,56,73,2
0,38,105,0
0,36,105,0
0,49,112,0
0,69,104,0
0,76,127,0
0,69,127,5
0,75,127,0
0,59,127,0
0,69,127,1
0,75,127,0
0,59,127,0
0,51,81,0
0,36,105,0
0,35,111,0
0,47,91,0
0,47,112,1
0,78,127,2
0,59,100,0
0,63,100,0
0,57,100,1
0,66,104,0
0,51,81,10
0,47,116,0
0,56,73,0
0,38,105,0
0,36,105,0
0,39,111,0
0,51,91,0
0,81,127,5
0,52,127,0
0,68,127,0
0,74,127,0
0,52,127,0
0,68,127,1
0,74,127,0
0,36,105,1
0,51,81,1
0,40,111,0
0,52,91,0
0,52,112,0
0,80,127,3
0,59,100,5
0,68,100,1
0,64,104,0
0,42,108,0
0,38,105,3
0,36,105,0
0,51,81,0
0,28,111,1
0,40,91,0
0,40,116,0
0,56,73,0
0,83,127,1
0,81,127,4
0,69,127,0
0,73,127,1
0,57,127,0
0,69,127,0
0,73,127,0
0,57,127,0
0,36,105,3
0,51,81,1
0,33,111,0
0,45,91,0
0,45,112,0
0,57,108,5
0,69,100,0
0,64,108,0
0,61,100,0
0,56,73,21
0,38,105,0
0,36,105,0
0,51,81,1
0,35,111,0
0,47,91,0
0,52,120,0
0,51,65,22
0,51,81,2
0,37,111,0
0,49,91,0
0,61,104,0
0,36,105,0
0,57,116,0
