track,note,velocity,time
0,63,49,132
0,70,48,58
0,75,101,235
0,70,45,0
0,75,98,91
0,70,44,0
0,75,102,74
0,70,47,0
0,59,86,13
0,63,86,0
0,56,86,0
0,32,105,48
0,63,85,0
0,59,92,0
0,44,85,0
0,73,102,0
0,82,68,0
0,35,103,0
0,49,79,0
0,71,106,0
0,75,112,0
0,75,95,24
0,56,105,1
0,71,103,163
0,51,66,0
0,69,41,0
0,56,42,169
0,63,105,0
0,68,88,0
0,59,103,0
0,59,78,0
0,82,79,0
0,40,116,0
0,44,98,0
0,59,109,6
0,35,103,16
0,63,72,0
0,59,92,0
0,51,46,0
0,69,62,0
0,35,103,0
0,42,56,0
0,40,118,47
0,51,74,0
0,82,56,0
0,35,118,0
0,44,82,0
0,64,116,0
0,76,109,3
0,40,106,27
0,56,54,0
0,59,64,0
0,69,44,0
0,42,64,0
0,64,116,8
0,39,91,8
0,59,73,0
0,63,82,0
0,78,88,0
0,63,102,0
0,59,95,0
0,68,85,0
0,51,60,0
0,82,74,0
0,40,116,0
0,44,120,0
0,63,112,0
0,59,109,0
0,35,101,4
0,51,64,0
0,69,54,0
0,42,74,0
0,32,112,5
0,56,46,0
0,63,85,0
0,59,86,0
0,44,77,0
0,51,88,0
0,82,62,0
0,35,123,0
0,44,88,0
0,75,115,17
0,56,115,1
0,71,83,0
0,59,60,170
0,69,48,0
0,42,66,0
0,56,57,112
0,71,111,0
0,63,105,0
0,59,101,0
0,68,85,0
0,51,70,0
0,82,62,0
0,40,118,0
0,44,98,0
0,35,106,34
0,63,72,0
0,59,92,0
0,71,111,0
0,51,62,0
0,69,45,0
0,35,106,0
0,42,72,0
0,59,106,7
0,76,101,14
0,40,109,3
0,71,110,0
0,59,73,0
0,82,56,0
0,35,121,0
0,44,94,0
0,64,106,7
0,64,116,88
0,40,98,5
0,56,54,0
0,51,74,0
0,69,49,0
0,42,74,0
0,63,102,6
0,78,85,13
0,39,85,1
0,59,75,0
0,70,114,0
0,63,105,0
0,68,85,0
0,59,89,0
0,59,68,0
0,82,62,0
0,40,120,0
0,44,105,0
0,59,83,6
0,35,89,9
0,71,114,0
0,51,74,0
0,69,47,0
0,42,70,0
0,56,88,0
0,32,109,6
0,63,94,0
0,59,89,0
0,75,112,0
0,59,70,0
0,82,59,0
0,35,123,0
0,44,88,0
0,71,98,9
0,75,112,3
0,51,64,163
0,69,42,0
0,42,62,0
0,56,56,29
0,73,109,0
0,63,102,0
0,59,101,0
0,68,82,0
0,51,94,0
0,82,62,0
0,40,116,0
0,44,98,0
0,59,103,10
0,35,98,12
0,63,88,0
0,59,106,0
0,71,113,0
0,59,50,0
0,69,36,0
0,35,113,0
0,42,72,0
0,76,98,7
0,64,116,7
0,40,111,4
0,71,116,0
0,51,60,0
0,82,64,0
0,35,121,0
0,44,94,0
0,64,116,89
0,40,101,10
0,56,66,0
0,51,64,0
0,69,42,0
0,42,72,0
0,63,102,12
0,78,79,2
0,39,85,7
0,63,98,0
0,59,95,0
0,70,109,0
0,68,85,0
0,59,101,0
0,63,105,0
0,59,86,0
0,82,64,0
0,40,117,0
0,44,88,0
0,59,95,0
0,35,89,12
0,56,38,0
0,71,114,0
0,51,74,0
0,69,49,0
0,46,66,0
0,32,112,5
0,63,98,0
0,44,82,0
0,59,103,0
0,70,114,0
0,51,74,0
0,82,59,0
0,35,123,0
0,44,88,0
0,71,92,0
0,75,112,0
0,56,91,0
0,59,50,5
0,69,42,0
0,42,62,0
0,56,64,23
0,68,114,0
0,63,98,0
0,59,95,0
0,68,82,0
0,51,70,0
0,82,62,0
0,40,116,0
0,44,98,0
0,35,98,10
0,63,68,0
0,59,95,0
0,51,70,0
0,69,36,0
0,35,113,0
0,42,72,0
0,59,106,12
0,76,101,23
0,40,109,7
0,51,79,0
0,82,64,0
0,35,121,0
0,44,94,0
0,64,109,2
0,64,111,86
0,40,98,4
0,56,53,0
0,59,66,0
0,69,42,0
0,42,72,0
0,63,98,6
0,39,74,2
0,63,88,0
0,59,89,0
0,63,102,0
0,68,85,0
0,59,95,0
0,51,72,0
0,82,64,0
0,40,120,0
0,44,88,0
0,78,77,15
0,59,95,0
0,35,81,9
0,51,60,0
0,69,49,0
0,46,66,0
0,32,102,12
0,63,79,0
0,59,75,0
0,44,77,0
0,51,77,0
0,82,57,0
0,35,121,0
0,44,91,0
0,71,92,0
0,75,105,0
0,56,94,8
0,59,60,182
0,69,49,0
0,42,70,0
0,56,53,18
0,68,108,0
0,68,82,0
0,59,92,0
0,63,98,0
0,51,77,0
0,82,62,0
0,40,119,0
0,44,85,0
0,68,98,2
0,35,95,15
0,63,82,0
0,59,95,0
0,51,62,0
0,69,47,0
0,35,111,0
0,42,74,0
0,70,105,7
0,40,109,10
0,70,112,0
0,59,64,0
0,82,59,0
0,35,121,0
0,44,91,0
0,40,101,95
0,56,56,0
0,51,66,0
0,69,51,0
0,42,64,0
0,71,106,16
0,39,94,7
0,63,102,0
0,59,92,0
0,71,114,0
0,63,109,0
0,59,98,0
0,68,91,0
0,51,74,0
0,82,68,0
0,40,118,0
0,44,91,0
0,35,109,15
0,59,86,0
0,69,62,0
0,46,70,0
0,64,85,17
0,56,85,0
0,61,85,0
0,73,103,18
0,37,112,6
0,73,91,0
0,68,79,0
0,76,92,0
0,73,114,0
0,82,68,0
0,35,103,0
0,49,79,0
0,73,82,8
0,49,109,12
0,73,81,127
0,68,81,0
0,76,81,0
0,51,66,0
0,69,41,0
0,73,84,110
0,68,84,0
0,76,84,0
0,64,101,0
0,68,88,0
0,61,94,0
0,59,78,0
0,82,79,0
0,40,117,0
0,44,98,0
0,80,85,0
0,52,98,11
0,40,109,4
0,68,89,0
0,73,89,0
0,76,89,0
0,51,46,0
0,69,62,0
0,35,103,0
0,42,56,0
0,81,66,5
0,57,109,9
0,45,109,1
0,68,84,0
0,73,84,0
0,76,84,0
0,51,74,0
0,82,56,0
0,35,118,0
0,44,82,0
0,57,103,31
0,45,109,20
0,68,83,0
0,73,83,0
0,76,83,0
0,59,64,0
0,69,44,0
0,42,64,0
0,83,64,2
0,56,85,1
0,44,109,11
0,68,86,0
0,76,86,0
0,73,86,0
0,61,94,0
0,64,98,0
0,68,85,0
0,51,60,0
0,82,74,0
0,40,117,0
0,44,120,0
0,40,111,21
0,68,86,0
0,73,86,0
0,76,86,0
0,51,64,0
0,69,54,0
0,42,74,0
0,52,89,0
0,80,68,1
0,49,105,3
0,76,92,10
0,37,112,2
0,68,85,0
0,76,85,0
0,73,85,0
0,51,88,0
0,82,62,0
0,35,123,0
0,44,88,0
0,73,57,11
0,73,85,103
0,68,85,0
0,76,85,0
0,59,60,0
0,69,48,0
0,42,66,0
0,73,105,10
0,76,83,28
0,73,83,0
0,68,83,0
0,64,101,0
0,68,91,0
0,61,98,0
0,51,70,0
0,82,62,0
0,40,118,0
0,44,98,0
0,80,66,19
0,52,92,26
0,73,109,20
0,40,106,18
0,68,82,0
0,73,82,0
0,76,82,0
0,51,62,0
0,69,45,0
0,35,106,0
0,42,72,0
0,57,101,13
0,73,109,5
0,81,57,3
0,45,111,6
0,68,80,0
0,73,80,0
0,76,80,0
0,59,73,0
0,82,56,0
0,35,121,0
0,44,94,0
0,57,101,10
0,45,109,20
0,68,85,0
0,73,85,0
0,76,85,0
0,51,74,0
0,69,49,0
0,42,74,0
0,73,104,12
0,56,74,6
0,83,60,0
0,44,108,10
0,73,87,0
0,68,87,0
0,76,87,0
0,64,101,0
0,68,88,0
0,61,98,0
0,59,68,0
0,82,62,0
0,40,120,0
0,44,105,0
0,73,104,11
0,52,86,0
0,40,106,15
0,68,87,0
0,73,87,0
0,76,87,0
0,51,74,0
0,69,47,0
0,42,70,0
0,49,102,6
0,80,70,6
0,76,107,4
0,37,106,4
0,73,85,0
0,68,85,0
0,76,85,0
0,59,70,0
0,82,59,0
0,35,123,0
0,44,88,0
0,73,64,3
0,73,84,39
0,68,84,0
0,76,84,0
0,51,64,0
0,69,42,0
0,42,62,0
0,75,108,4
0,73,85,45
0,68,85,0
0,76,85,0
0,61,91,0
0,64,98,0
0,68,79,0
0,51,94,0
0,82,62,0
0,40,116,0
0,44,98,0
0,80,70,8
0,73,106,10
0,52,89,3
0,40,105,27
0,68,85,0
0,73,85,0
0,76,85,0
0,59,50,0
0,69,36,0
0,35,113,0
0,42,72,0
0,57,101,16
0,81,68,2
0,45,105,17
0,73,89,0
0,68,89,0
0,76,89,0
0,51,60,0
0,82,64,0
0,35,121,0
0,44,94,0
0,80,91,6
0,57,95,61
0,71,106,5
0,45,107,10
0,68,89,0
0,76,89,0
0,73,89,0
0,51,64,0
0,69,42,0
0,42,72,0
0,56,77,1
0,83,68,3
0,73,110,3
0,44,107,1
0,68,88,0
0,73,88,0
0,76,88,0
0,64,101,0
0,61,94,0
0,68,82,0
0,59,86,0
0,82,64,0
0,40,118,0
0,44,88,0
0,40,106,1
0,68,88,0
0,73,88,0
0,76,88,0
0,51,74,0
0,69,49,0
0,46,66,0
0,52,92,9
0,61,85,6
0,58,82,3
0,66,82,0
0,78,93,3
0,30,102,1
0,73,88,0
0,78,88,0
0,70,88,0
0,70,109,0
0,51,74,0
0,82,59,0
0,35,123,0
0,44,88,0
0,78,94,8
0,73,91,5
0,54,102,13
0,73,88,5
0,70,88,0
0,78,88,0
0,59,50,0
0,69,42,0
0,42,62,0
0,78,89,118
0,70,89,0
0,73,89,0
0,66,72,0
0,58,91,0
0,61,98,0
0,51,70,0
0,82,62,0
0,40,116,0
0,44,98,0
0,34,118,49
0,78,89,0
0,73,89,0
0,70,89,0
0,51,70,0
0,69,36,0
0,35,113,0
0,42,72,0
0,68,102,0
0,54,94,8
0,75,115,8
0,37,122,15
0,78,86,0
0,73,86,0
0,70,86,0
0,51,79,0
0,82,64,0
0,35,121,0
0,44,94,0
0,70,105,0
0,54,112,6
0,76,116,7
0,68,94,15
0,37,122,13
0,70,85,0
0,73,85,0
0,78,85,0
0,75,112,0
0,59,66,0
0,69,42,0
0,42,72,0
0,70,102,4
0,34,115,2
0,78,85,0
0,73,85,0
0,70,85,0
0,66,70,0
0,61,102,0
0,58,88,0
0,51,72,0
0,82,64,0
0,40,118,0
0,44,88,0
0,76,121,15
0,68,88,10
0,75,115,5
0,37,118,4
0,73,85,0
0,70,85,0
0,78,85,0
0,51,60,0
0,69,49,0
0,46,66,0
0,70,102,47
0,30,105,10
0,78,85,0
0,73,85,0
0,70,85,0
0,76,116,0
0,51,77,0
0,82,57,0
0,35,121,0
0,44,91,0
0,54,88,9
0,68,79,3
0,75,88,9
0,73,85,77
0,70,85,0
0,78,85,0
0,59,60,0
0,69,49,0
0,42,70,0
0,66,82,9
0,73,120,12
0,73,85,116
0,78,85,0
0,70,85,0
0,61,98,0
0,58,85,0
0,66,64,0
0,51,77,0
0,82,62,0
0,40,118,0
0,44,85,0
0,54,98,20
0,34,109,6
0,73,85,0
0,70,85,0
0,78,85,0
0,51,62,0
0,69,47,0
0,35,111,0
0,42,74,0
0,54,118,9
0,37,112,6
0,70,85,0
0,73,85,0
0,78,85,0
0,59,64,0
0,82,59,0
0,35,121,0
0,44,91,0
0,37,102,62
0,70,85,0
0,73,85,0
0,78,85,0
0,51,66,0
0,69,51,0
0,42,64,0
0,34,109,6
0,73,82,0
0,70,82,0
0,78,82,0
0,58,94,0
0,66,74,0
0,61,102,0
0,51,74,0
0,82,68,0
0,40,118,0
0,44,91,0
0,70,112,0
0,68,109,7
0,42,105,5
0,70,84,0
0,73,84,0
0,78,84,0
0,59,86,0
0,69,62,0
0,46,70,0
0,61,82,40
0,56,82,0
0,64,80,1
0,71,113,20
0,37,109,4
0,68,84,0
0,73,84,0
0,76,84,0
0,82,68,0
0,35,103,0
0,49,79,0
0,66,109,0
0,49,109,7
0,71,95,8
0,73,84,90
0,68,84,0
0,76,84,0
0,51,66,0
0,69,41,0
0,68,84,80
0,73,84,0
0,76,84,0
0,56,94,0
0,61,105,0
0,64,103,0
0,59,78,0
0,82,79,0
0,40,114,0
0,44,98,0
0,66,100,0
0,49,109,6
0,44,109,12
0,68,84,0
0,73,84,0
0,76,84,0
0,51,46,0
0,69,62,0
0,35,103,0
0,42,56,0
0,66,99,6
0,66,80,0
0,58,84,5
0,70,91,0
0,70,113,5
0,66,108,8
0,30,108,4
0,78,83,0
0,73,83,0
0,70,83,0
0,51,74,0
0,82,56,0
0,35,118,0
0,44,82,0
0,54,98,0
0,78,82,87
0,73,82,0
0,70,82,0
0,59,64,0
0,69,44,0
0,42,64,0
0,78,81,64
0,70,81,0
0,73,81,0
0,58,94,0
0,66,70,0
0,61,102,0
0,51,60,0
0,82,74,0
0,40,118,0
0,44,120,0
0,66,108,0
0,54,91,63
0,66,108,6
0,42,108,2
0,70,80,0
0,78,80,0
0,73,80,0
0,51,64,0
0,69,54,0
0,42,74,0
0,56,84,5
0,64,84,3
0,61,80,2
0,76,107,4
0,68,115,0
0,37,107,1
0,68,85,0
0,73,91,0
0,76,92,0
0,76,89,0
0,51,88,0
0,82,62,0
0,35,123,0
0,44,88,0
0,49,105,0
0,68,85,113
0,76,85,0
0,73,85,0
0,59,60,0
0,69,48,0
0,42,66,0
0,76,107,53
0,68,85,50
0,73,85,0
0,76,85,0
0,61,102,0
0,56,91,0
0,64,101,0
0,51,70,0
0,82,62,0
0,40,118,0
0,44,98,0
0,76,106,3
0,44,112,19
0,68,85,0
0,76,85,0
0,73,85,0
0,51,62,0
0,69,45,0
0,35,106,0
0,42,72,0
0,49,109,7
0,73,91,7
0,70,114,3
0,30,112,1
0,78,85,0
0,73,85,0
0,70,85,0
0,59,73,0
0,82,56,0
0,35,121,0
0,44,94,0
0,76,104,0
0,54,98,13
0,66,83,15
0,58,83,5
0,78,85,3
0,70,85,0
0,73,85,0
0,51,74,0
0,69,49,0
0,42,74,0
0,75,104,8
0,42,112,21
0,78,85,0
0,73,85,0
0,70,85,0
0,66,72,0
0,58,85,0
0,61,88,0
0,59,68,0
0,82,62,0
0,40,120,0
0,44,105,0
0,73,108,19
0,54,98,55
0,78,84,3
0,73,84,0
0,70,84,0
0,51,74,0
0,69,47,0
0,42,70,0
0,63,83,9
0,66,83,5
0,59,83,3
0,75,85,14
0,75,107,7
0,35,113,3
0,75,81,0
0,66,81,0
0,71,81,0
0,59,70,0
0,82,59,0
0,35,123,0
0,44,88,0
0,47,103,0
0,71,118,8
0,35,115,27
0,66,81,0
0,75,81,0
0,71,81,0
0,51,64,0
0,69,42,0
0,42,62,0
0,47,103,0
0,51,109,18
0,39,117,9
0,66,81,0
0,71,81,0
0,75,81,0
0,63,102,0
0,59,95,0
0,66,74,0
0,51,94,0
0,82,62,0
0,40,116,0
0,44,98,0
0,71,120,9
0,83,86,10
0,54,109,52
0,42,117,9
0,66,81,0
0,75,81,0
0,71,81,0
0,59,50,0
0,69,36,0
0,35,113,0
0,42,72,0
0,56,118,2
0,70,120,3
0,44,117,6
0,75,83,0
0,66,83,0
0,71,83,0
0,51,60,0
0,82,64,0
0,35,121,0
0,44,94,0
0,82,95,6
0,54,109,8
0,42,111,19
0,66,84,0
0,75,84,0
0,71,84,0
0,51,64,0
0,69,42,0
0,42,72,0
0,56,115,18
0,80,77,1
0,39,108,5
0,75,85,0
0,66,85,0
0,71,85,0
0,63,91,0
0,66,68,0
0,59,89,0
0,59,86,0
0,82,64,0
0,40,113,0
0,44,88,0
0,68,121,0
0,40,103,21
0,54,111,17
0,42,109,9
0,66,85,0
0,71,85,0
0,75,85,0
0,51,74,0
0,69,49,0
0,43,75,0
0,46,66,0
0,58,72,1
0,61,77,19
0,63,77,2
0,61,88,1
0,58,94,1
0,67,86,2
0,34,108,2
0,58,122,0
0,35,123,0
0,49,74,0
0,67,116,0
0,79,78,0
0,70,87,11
0,79,87,0
0,73,87,0
0,75,98,14
0,67,73,18
0,75,101,19
0,75,101,91
0,75,101,74
0,59,86,37
0,63,86,0
