track,note,velocity,time
0,38,75,195
0,50,74,0
0,53,76,0
0,57,84,0
0,62,104,405
0,62,0,285
0,65,104,30
0,50,0,90
0,53,0,0
0,57,0,10
0,38,0,5
0,65,0,45
0,62,104,15
0,55,75,130
0,52,80,5
0,58,70,0
0,62,0,35
0,64,110,35
0,62,61,160
0,65,74,95
0,69,74,50
0,64,0,50
0,86,74,0
0,62,0,5
0,64,112,35
0,74,88,15
0,89,72,10
0,93,88,45
0,65,0,10
0,69,0,40
0,74,0,35
0,98,94,0
0,89,0,190
0,52,0,5
0,93,0,15
0,98,0,0
0,64,0,5
0,55,0,0
0,67,106,20
0,58,0,5
0,67,0,150
0,64,102,15
0,86,0,115
0,64,0,50
0,65,106,40
0,50,88,110
0,53,86,0
0,57,90,0
0,65,0,285
0,65,108,40
0,65,0,255
0,69,104,20
0,69,0,125
0,65,106,10
0,50,0,120
0,57,0,10
0,53,0,15
0,65,0,30
0,67,114,35
0,55,82,25
0,58,82,0
0,52,84,5
0,62,61,275
0,67,0,30
0,65,75,20
0,67,110,35
0,69,90,45
0,86,84,35
0,74,84,40
0,89,73,45
0,62,0,25
0,93,86,5
0,65,0,15
0,69,0,45
0,67,0,20
0,98,100,0
0,70,102,20
0,74,0,0
0,70,0,145
0,67,102,15
0,93,0,15
0,89,0,5
0,52,0,20
0,55,0,10
0,58,0,0
0,86,0,0
0,67,0,90
0,98,0,5
0,69,112,25
0,69,0,575
0,69,112,105
0,69,0,65
0,69,116,70
0,69,0,180
0,71,114,45
0,71,0,260
0,71,102,60
0,71,0,95
0,71,104,65
0,71,0,85
0,71,108,70
0,71,0,170
0,73,102,65
0,45,96,10
0,49,100,80
0,52,98,55
0,55,104,90
0,61,104,40
0,64,102,70
0,67,100,85
0,69,90,125
0,73,0,50
0,73,94,25
0,76,84,65
0,79,69,20
0,85,86,75
0,88,84,80
0,93,84,80
0,49,0,500
0,52,0,20
0,45,0,15
0,55,0,55
0,64,0,2
0,67,0,5
0,61,0,33
0,73,0,20
0,69,0,55
0,79,0,0
0,76,0,10
0,85,0,100
0,88,0,15
0,93,0,80
0,48,104,60
0,55,108,5
0,48,114,0
0,64,110,0
0,67,106,0
0,70,108,0
0,74,116,0
0,35,88,0
0,38,94,0
0,60,108,0
0,64,102,2
0,35,0,8
0,38,0,0
0,67,0,20
0,60,0,0
0,64,0,5
0,55,0,0
0,64,0,0
0,70,0,5
0,48,0,2
0,48,0,110
0,74,0,80
0,72,114,75
0,48,102,105
0,55,108,5
0,43,112,5
0,64,104,0
0,67,104,0
0,70,100,0
0,35,92,0
0,38,96,0
0,60,112,0
0,64,102,2
0,35,0,8
0,38,0,0
0,72,0,10
0,67,0,25
0,55,0,2
0,60,0,3
0,64,0,5
0,70,0,0
0,64,0,2
0,48,0,25
0,74,114,148
0,43,0,15
0,74,0,50
0,72,114,65
0,72,0,80
0,48,110,30
0,55,100,5
0,40,110,5
0,64,108,0
0,67,112,0
0,70,108,0
0,35,90,0
0,38,90,0
0,60,104,0
0,64,102,2
0,35,0,8
0,38,0,0
0,55,0,27
0,64,0,3
0,67,0,5
0,70,0,0
0,60,0,0
0,74,116,5
0,64,0,2
0,48,0,3
0,40,0,155
0,74,0,25
0,72,114,65
0,48,104,170
0,55,100,5
0,36,112,5
0,64,64,0
0,67,90,0
0,70,94,0
0,35,94,0
0,38,96,0
0,60,98,0
0,35,0,10
0,38,0,0
0,48,0,15
0,55,0,2
0,64,0,3
0,67,0,0
0,70,0,0
0,60,0,0
0,48,118,200
0,55,118,5
0,64,114,5
0,67,118,0
0,70,114,0
0,38,100,0
0,60,118,0
0,64,114,2
0,38,0,8
0,72,0,25
0,38,67,10
0,38,0,10
0,36,0,10
0,38,67,25
0,38,0,10
0,38,67,40
0,38,0,10
0,70,0,25
0,64,0,5
0,67,0,0
0,38,67,10
0,64,0,7
0,38,0,3
0,60,0,0
0,48,0,17
0,55,0,3
0,41,102,5
0,53,93,5
0,41,108,5
0,60,106,0
0,65,96,0
0,69,92,0
0,35,88,0
0,38,94,0
0,57,91,0
0,60,93,2
0,35,0,8
0,38,0,0
0,74,116,15
0,65,0,20
0,60,0,10
0,57,0,5
0,69,0,10
0,60,0,0
0,53,0,10
0,41,0,5
0,41,0,70
0,74,0,115
0,72,116,65
0,41,104,70
0,53,104,5
0,36,116,5
0,60,104,0
0,65,106,0
0,69,102,0
0,35,92,0
0,38,96,0
0,57,110,0
0,60,106,2
0,35,0,8
0,38,0,0
0,53,0,40
0,57,0,0
0,60,0,10
0,65,0,0
0,60,0,2
0,69,0,3
0,72,0,15
0,41,0,0
0,36,0,155
0,74,110,5
0,74,0,70
0,72,112,55
0,72,0,85
0,41,104,20
0,53,104,5
0,41,112,5
0,60,102,0
0,65,104,0
0,69,98,0
0,35,90,0
0,38,90,0
0,57,108,0
0,60,98,2
0,35,0,8
0,38,0,0
0,65,0,30
0,60,0,5
0,69,0,5
0,74,116,0
0,53,0,0
0,57,0,0
0,60,0,10
0,41,0,15
0,41,0,165
0,74,0,10
0,72,114,65
0,41,106,155
0,53,92,5
0,36,114,5
0,60,106,0
0,65,112,0
0,69,106,0
0,35,94,0
0,38,96,0
0,57,94,0
0,35,0,10
0,38,0,0
0,41,0,12
0,53,0,3
0,57,0,5
0,60,0,10
0,65,0,0
0,69,0,5
0,72,0,145
0,36,0,30
0,41,118,10
0,53,112,5
0,60,116,5
0,65,116,0
0,69,116,0
0,38,100,0
0,57,120,0
0,60,116,2
0,38,0,8
0,38,67,35
0,38,0,10
0,38,67,35
0,38,0,10
0,69,0,35
0,65,0,5
0,38,67,0
0,38,0,5
0,57,0,5
0,60,0,0
0,60,0,10
0,53,0,10
0,38,67,15
0,38,0,5
0,41,0,7
0,40,98,8
0,52,89,5
0,40,114,5
0,62,110,0
0,64,106,0
0,68,114,0
0,71,114,0
0,77,118,0
0,35,88,0
0,38,94,0
0,56,89,0
0,59,96,2
0,35,0,8
0,38,0,0
0,62,0,35
0,64,0,0
0,68,0,0
0,71,0,5
0,52,0,27
0,40,0,5
0,56,0,3
0,59,0,17
0,40,0,30
0,77,0,85
0,76,114,55
0,40,110,110
0,52,104,5
0,44,108,5
0,62,106,0
0,64,104,0
0,68,106,0
0,71,108,0
0,35,92,0
0,38,96,0
0,56,108,0
0,59,102,2
0,35,0,8
0,38,0,0
0,62,0,20
0,68,0,5
0,64,0,5
0,71,0,0
0,56,0,10
0,52,0,2
0,76,0,3
0,59,0,5
0,40,0,32
0,44,0,118
0,77,114,35
0,77,0,75
0,76,116,65
0,76,0,80
0,40,102,5
0,52,104,5
0,47,104,5
0,62,106,0
0,64,104,0
0,68,106,0
0,71,110,0
0,35,90,0
0,38,90,0
0,56,104,0
0,59,100,2
0,35,0,8
0,38,0,0
0,62,0,20
0,68,0,5
0,52,0,2
0,64,0,3
0,56,0,0
0,59,0,0
0,71,0,15
0,40,0,2
0,77,116,8
0,47,0,170
0,77,0,100
0,76,112,45
0,40,114,90
0,52,114,5
0,40,110,5
0,62,102,0
0,64,98,0
0,68,104,0
0,71,102,0
0,35,94,0
0,38,96,0
0,56,116,0
0,59,116,2
0,35,0,8
0,38,0,0
0,62,0,20
0,68,0,0
0,64,0,5
0,71,0,0
0,52,0,100
0,56,0,20
0,76,0,10
0,77,112,55
0,52,92,10
0,56,87,5
0,62,114,5
0,64,112,0
0,68,118,0
0,71,114,0
0,38,100,0
0,38,0,10
0,56,0,30
0,38,67,5
0,38,0,10
0,52,0,7
0,59,0,3
0,40,0,20
0,38,67,5
0,38,0,10
0,77,0,10
0,38,67,30
0,76,120,5
0,38,0,5
0,62,0,35
0,40,0,0
0,64,0,5
0,38,67,0
0,68,0,10
0,38,0,0
0,71,0,10
0,45,104,20
0,76,0,5
0,57,84,0
0,33,116,5
0,61,116,0
0,64,116,0
0,69,112,0
0,35,88,0
0,38,94,0
0,35,0,10
0,38,0,0
0,69,0,35
0,61,0,5
0,64,0,0
0,76,116,30
0,57,0,40
0,45,0,20
0,33,0,65
0,45,108,265
0,57,94,5
0,33,114,5
0,61,112,0
0,64,114,0
0,69,116,0
0,35,92,0
0,38,96,0
0,61,92,0
0,64,89,2
0,35,0,8
0,38,0,0
0,64,0,35
0,69,0,0
0,61,0,5
0,64,0,5
0,61,0,5
0,57,0,12
0,45,0,58
0,33,0,115
0,45,106,25
0,57,98,5
0,33,116,5
0,61,102,0
0,64,110,0
0,69,110,0
0,35,90,0
0,38,90,0
0,61,100,0
0,64,98,2
0,35,0,8
0,38,0,0
0,76,0,20
0,69,108,10
0,69,0,5
0,61,0,5
0,64,0,0
0,57,0,17
0,61,0,3
0,64,0,0
0,45,0,37
0,57,83,123
0,61,82,5
0,33,0,25
0,57,0,2
0,61,0,3
0,45,110,205
0,57,104,5
0,33,114,5
0,61,100,0
0,64,104,0
0,69,108,0
0,35,94,0
0,38,96,0
0,61,106,0
0,64,106,2
0,35,0,8
0,38,0,0
0,61,0,25
0,64,0,5
0,69,0,0
0,69,0,120
0,57,0,65
0,61,0,0
0,64,0,2
0,61,110,13
0,64,114,0
0,69,112,0
0,38,100,0
0,38,0,10
0,45,0,10
0,33,0,25
0,38,67,0
0,38,0,10
0,38,67,35
0,38,0,10
0,38,67,40
0,61,0,10
0,64,0,0
0,69,0,0
0,38,0,0
0,38,67,40
0,38,0,10
0,50,108,30
0,57,104,5
0,38,118,5
0,62,106,0
0,66,106,0
0,69,114,0
0,74,104,0
0,59,120,0
0,40,112,0
0,62,104,0
0,59,1,0
0,66,102,2
0,71,116,8
0,40,0,0
0,74,0,25
0,62,0,10
0,66,0,0
0,69,0,10
0,71,0,160
0,59,0,15
0,59,0,7
0,57,116,3
0,57,1,0
0,62,0,15
0,69,114,10
0,66,0,7
0,57,0,5
0,50,0,23
0,38,0,5
0,69,0,110
0,57,0,100
0,50,112,275
0,57,108,5
0,42,112,5
0,62,108,0
0,66,100,0
0,69,112,0
0,74,110,0
0,40,100,0
0,62,106,0
0,66,104,2
0,40,0,8
0,66,0,25
0,62,0,5
0,74,0,0
0,69,0,5
0,62,0,15
0,50,0,10
0,66,0,7
0,57,0,3
0,42,0,20
0,50,108,50
0,57,96,5
0,45,108,5
0,62,110,0
0,66,106,0
0,69,112,0
0,74,102,0
0,40,114,0
0,62,104,0
0,66,102,2
0,40,0,8
0,74,0,25
0,66,0,10
0,69,0,5
0,62,0,5
0,45,0,240
0,66,0,2
0,62,0,3
0,50,0,5
0,57,0,0
0,50,112,5
0,57,108,5
0,33,104,5
0,62,118,0
0,66,114,0
0,69,112,0
0,74,112,0
0,40,114,0
0,62,106,0
0,66,104,2
0,40,0,8
0,71,116,20
0,66,0,5
0,62,0,5
0,69,0,0
0,74,0,20
0,62,0,50
0,50,0,97
0,57,0,0
0,71,0,3
0,33,0,15
0,66,0,0
0,69,114,35
0,57,0,25
0,69,0,65
0,45,114,95
0,55,100,5
0,33,112,5
0,64,112,0
0,67,114,0
0,73,108,0
0,40,112,0
0,61,110,0
0,64,102,2
0,40,0,8
0,71,116,25
0,73,0,10
0,67,0,10
0,64,0,5
0,64,0,142
0,71,0,13
0,61,0,10
0,45,0,2
0,55,0,5
0,69,102,23
0,33,0,105
0,69,0,100
0,67,104,45
0,67,0,180
0,61,104,85
0,45,112,20
0,55,100,5
0,37,114,5
0,64,112,0
0,67,112,0
0,73,110,0
0,40,104,0
0,61,104,0
0,64,102,2
0,40,0,8
0,73,0,35
0,64,0,10
0,67,0,0
0,45,0,30
0,61,0,0
0,37,0,5
0,55,0,0
0,64,0,5
0,45,104,55
0,55,96,5
0,40,110,5
0,64,114,0
0,67,116,0
0,73,110,0
0,40,112,0
0,61,104,0
0,64,104,2
0,40,0,8
0,61,0,25
0,64,0,25
0,67,0,0
0,73,0,0
0,40,0,205
0,64,0,22
0,55,0,5
0,61,0,3
0,45,0,10
0,45,108,165
0,55,106,5
0,28,112,5
0,64,114,0
0,67,112,0
0,73,110,0
0,40,110,0
0,61,108,0
0,64,104,2
0,40,0,8
0,67,0,45
0,73,0,5
0,64,0,5
0,45,0,165
0,55,0,5
0,61,0,0
0,28,0,5
0,64,0,5
0,45,112,10
0,55,108,5
0,33,110,5
0,64,112,0
0,67,116,0
0,73,112,0
0,59,120,0
0,40,114,0
0,61,106,0
0,59,1,0
0,64,104,2
0,71,118,8
0,40,0,0
0,67,0,10
0,64,0,5
0,73,0,5
0,59,0,160
0,59,0,7
0,57,112,3
0,57,1,0
0,71,0,15
0,69,110,40
0,55,0,5
0,61,0,0
0,45,0,10
0,64,0,2
0,33,0,83
0,69,0,35
0,57,0,15
0,45,114,345
0,55,104,5
0,37,110,5
0,64,114,0
0,67,116,0
0,73,112,0
0,40,104,0
0,61,102,0
0,64,104,2
0,40,0,8
0,67,0,40
0,73,0,0
0,64,0,5
0,61,0,25
0,55,0,5
0,64,0,2
0,37,0,13
0,45,0,10
0,45,108,40
0,55,104,5
0,40,104,5
0,64,112,0
0,67,116,0
0,73,110,0
0,40,112,0
0,61,104,0
0,64,104,2
0,40,0,8
0,64,0,60
0,67,0,0
0,73,0,0
0,64,0,212
0,61,0,3
0,55,0,2
0,45,0,5
0,40,0,33
0,45,106,25
0,55,104,5
0,33,112,5
0,64,114,0
0,67,102,0
0,73,114,0
0,40,114,0
0,61,106,0
0,64,104,2
0,40,0,8
0,71,118,10
0,67,0,5
0,64,0,30
0,73,0,0
0,61,0,120
0,55,0,20
0,45,0,5
0,64,0,5
0,57,0,2
0,33,0,3
0,71,0,35
0,69,94,20
0,69,0,50
0,50,114,130
0,57,108,5
0,38,112,5
0,62,110,0
0,66,108,0
0,69,114,0
0,74,94,0
0,40,114,0
0,62,112,0
0,66,104,2
0,40,0,8
0,74,0,20
0,71,116,5
0,62,0,25
0,66,0,0
0,69,0,10
0,66,0,117
0,57,0,23
0,62,0,0
0,50,0,17
0,71,0,18
0,69,98,10
0,38,0,140
0,69,0,55
0,66,92,30
0,66,0,220
0,62,96,35
0,50,110,55
0,57,106,5
0,42,114,5
0,62,108,0
0,66,104,0
0,69,112,0
0,74,84,0
0,40,104,0
0,62,110,0
0,66,106,2
0,40,0,8
0,74,0,20
0,66,0,10
0,69,0,5
0,62,0,5
0,62,0,25
0,57,0,2
0,66,0,0
0,50,0,3
0,42,0,25
0,50,106,45
0,57,102,5
0,45,108,5
0,62,114,0
0,66,114,0
0,69,116,0
0,74,112,0
0,40,112,0
0,62,104,0
0,66,102,2
0,40,0,8
0,62,0,30
0,66,0,20
0,62,0,5
0,69,0,0
0,74,0,0
0,45,0,185
0,66,0,45
0,57,0,5
0,62,0,0
0,50,0,22
0,50,114,148
0,57,110,5
0,33,112,5
0,62,114,0
0,66,108,0
0,69,112,0
0,74,108,0
0,40,112,0
0,62,112,0
0,66,106,2
0,40,0,8
0,66,0,45
0,69,0,0
0,74,0,5
0,62,0,5
0,33,0,135
0,50,0,55
0,66,0,2
0,57,0,3
0,62,0,10
0,50,110,200
0,57,110,5
0,38,110,5
0,62,104,0
0,66,108,0
0,69,110,0
0,74,114,0
0,40,112,0
0,62,110,0
0,66,104,2
0,40,0,8
0,62,0,55
0,74,0,0
0,66,0,5
0,69,0,15
0,57,0,115
0,62,0,5
0,66,0,2
0,50,0,8
0,38,0,55
0,72,122,15
0,76,114,0
0,84,88,0
0,88,88,0
0,76,110,25
0,72,0,270
0,76,0,0
0,84,0,0
0,88,0,0
0,71,112,30
0,74,106,0
0,83,86,0
0,86,80,0
0,76,0,5
0,74,114,30
0,71,0,415
0,74,0,0
0,83,0,0
0,86,0,0
0,69,114,30
0,72,112,0
0,81,96,0
0,84,86,0
0,74,0,37
0,72,112,8
0,69,0,405
0,72,0,0
0,81,0,0
0,84,0,0
0,72,0,20
0,66,110,10
0,69,94,0
0,78,90,0
0,81,98,0
0,69,112,30
0,66,0,420
0,69,0,0
0,78,0,0
0,81,0,0
0,62,112,30
0,66,106,0
0,74,94,0
