track,note,velocity,time
0,46,73,2
0,46,0,14
0,56,73,43
0,56,0,14
0,42,49,25
0,42,0,14
0,46,73,5
0,46,0,14
0,56,73,43
0,56,0,15
0,42,49,24
0,42,0,14
0,46,73,5
0,46,0,14
0,56,73,44
0,56,0,14
0,42,49,25
0,42,0,14
0,46,73,4
0,46,0,15
0,38,97,24
0,38,0,14
0,38,105,5
0,38,0,14
0,57,127,42
0,45,127,0
0,57,127,0
0,45,127,0
0,46,73,2
0,64,124,0
0,33,111,3
0,36,105,0
0,45,127,0
0,45,91,0
0,61,127,1
0,57,127,0
0,46,0,10
0,36,0,3
0,45,0,9
0,57,0,0
0,57,0,0
0,45,0,0
0,45,111,14
0,57,111,0
0,45,111,0
0,57,111,1
0,56,73,1
0,56,0,15
0,61,0,0
0,57,0,0
0,64,0,5
0,57,0,7
0,45,0,0
0,57,0,0
0,45,0,0
0,45,0,1
0,42,49,11
0,42,0,14
0,45,127,3
0,57,127,0
0,45,127,0
0,57,127,0
0,46,73,2
0,46,0,14
0,45,0,13
0,45,0,0
0,57,0,2
0,57,0,0
0,57,111,7
0,45,111,0
0,57,111,1
0,45,111,0
0,45,0,19
0,45,0,0
0,57,0,0
0,57,0,0
0,45,111,0
0,57,111,0
0,57,111,1
0,45,111,0
0,56,73,1
0,56,0,14
0,45,0,12
0,57,0,0
0,57,0,1
0,45,0,0
0,42,49,11
0,42,0,14
0,45,127,3
0,45,127,0
0,57,127,0
0,57,127,1
0,46,73,1
0,46,0,15
0,45,0,9
0,57,0,0
0,45,0,1
0,57,0,0
0,57,111,12
0,57,111,0
0,45,111,0
0,45,111,1
0,45,0,13
0,57,0,0
0,57,0,0
0,45,0,0
0,45,111,5
0,57,111,0
0,57,111,0
0,45,111,0
0,56,73,2
0,56,0,14
0,57,0,20
0,57,0,0
0,45,0,0
0,45,0,0
0,45,127,3
0,57,127,0
0,45,127,0
0,57,127,0
0,42,49,2
0,42,0,14
0,46,73,5
0,46,0,14
0,38,97,25
0,38,0,14
0,45,0,4
0,33,0,0
0,38,105,1
0,57,0,6
0,45,0,0
0,57,0,1
0,45,0,0
0,38,0,7
0,57,127,5
0,45,127,0
0,57,127,0
0,61,127,0
0,45,127,0
0,61,127,0
0,69,124,2
0,46,73,0
0,45,91,3
0,33,111,0
0,36,105,0
0,61,127,1
0,64,127,0
0,45,127,0
0,46,0,10
0,36,0,3
0,61,0,10
0,57,0,0
0,61,0,0
0,57,0,0
0,45,0,0
0,45,0,0
0,61,111,4
0,45,111,1
0,45,111,0
0,57,111,0
0,61,111,0
0,57,111,0
0,56,73,2
0,56,0,15
0,45,0,9
0,45,0,2
0,61,0,0
0,61,0,1
0,45,0,0
0,69,0,0
0,61,0,0
0,57,0,0
0,57,0,0
0,64,0,2
0,42,49,10
0,42,0,14
0,61,127,2
0,57,127,0
0,45,127,0
0,45,127,1
0,57,127,0
0,61,127,0
0,46,73,2
0,46,0,14
0,61,0,12
0,61,0,0
0,45,0,2
0,57,0,0
0,45,0,1
0,57,0,0
0,61,111,7
0,57,111,0
0,61,111,0
0,57,111,0
0,45,111,0
0,45,111,0
0,45,0,18
0,45,0,1
0,61,0,0
0,57,0,0
0,61,0,0
0,57,0,0
0,45,111,0
0,61,111,0
0,61,111,1
0,57,111,0
0,57,111,0
0,45,111,0
0,56,73,2
0,56,0,14
0,57,0,11
0,45,0,0
0,61,0,0
0,45,0,1
0,61,0,0
0,57,0,0
0,42,49,12
0,42,0,14
0,57,127,3
0,61,127,0
0,61,127,0
0,57,127,0
0,45,127,0
0,45,127,0
0,46,73,2
0,46,0,14
0,61,0,12
0,45,0,0
0,45,0,0
0,57,0,0
0,61,0,0
0,57,0,1
0,61,111,9
0,45,111,0
0,45,111,0
0,57,111,0
0,61,111,1
0,57,111,0
0,45,0,13
0,57,0,1
0,57,0,0
0,45,0,0
0,61,0,0
0,61,0,0
0,61,111,4
0,45,111,0
0,57,111,1
0,61,111,0
0,57,111,0
0,45,111,0
0,56,73,4
0,56,0,14
0,57,0,17
0,61,0,0
0,57,0,0
0,61,0,0
0,45,0,3
0,45,0,0
0,45,127,0
0,61,127,0
0,57,127,0
0,45,127,0
0,61,127,0
0,57,127,1
0,42,49,2
0,42,0,14
0,46,73,4
0,46,0,14
0,38,97,25
0,38,0,14
0,45,0,5
0,33,0,0
0,38,105,0
0,45,0,7
0,61,0,0
0,45,0,0
0,57,0,0
0,57,0,0
0,61,0,0
0,38,0,7
0,61,127,41
0,57,127,0
0,64,127,0
0,64,127,0
0,57,127,1
0,61,127,0
0,45,127,2
0,46,73,0
0,73,124,0
0,45,127,0
0,69,120,0
0,45,91,3
0,33,111,0
0,36,105,0
0,76,120,1
0,64,120,0
0,45,127,0
0,46,0,9
0,36,0,3
0,45,0,9
0,64,0,0
0,57,0,0
0,61,0,0
0,45,0,0
0,64,0,0
0,57,0,0
0,61,0,0
0,61,111,12
0,61,111,0
0,45,111,0
0,57,111,0
0,64,111,0
0,64,111,1
0,45,111,0
0,57,111,0
0,56,73,1
0,56,0,14
0,64,0,8
0,45,0,4
0,61,0,0
0,64,0,0
0,61,0,1
0,45,0,0
0,57,0,0
0,64,0,0
0,57,0,0
0,45,0,2
0,73,0,2
0,69,0,6
0,76,0,1
0,42,49,1
0,42,0,14
0,61,127,3
0,64,127,0
0,45,127,0
0,57,127,1
0,57,127,0
0,61,127,0
0,45,127,0
0,64,127,0
0,46,73,2
0,46,0,14
0,61,0,11
0,61,0,0
0,45,0,3
0,64,0,0
0,57,0,0
0,45,0,0
0,64,0,0
0,57,0,0
0,64,111,7
0,45,111,0
0,61,111,0
0,57,111,0
0,45,111,0
0,57,111,1
0,61,111,0
0,64,111,0
0,64,0,19
0,64,0,0
0,57,0,0
0,45,0,0
0,61,0,0
0,45,0,0
0,57,0,0
0,61,0,1
0,45,111,0
0,56,73,0
0,61,111,0
0,57,111,0
0,64,111,0
0,61,111,0
0,45,111,1
0,57,111,0
0,64,111,0
0,56,0,12
0,61,0,14
0,61,0,0
0,45,0,0
0,64,0,0
0,57,0,0
0,45,0,1
0,57,0,0
0,64,0,0
0,42,49,11
0,42,0,14
0,64,127,3
0,64,127,0
0,57,127,0
0,61,127,0
0,61,127,1
0,57,127,0
0,46,73,1
0,45,127,1
0,45,127,0
0,46,0,13
0,57,0,10
0,45,0,0
0,57,0,0
0,45,0,0
0,61,0,3
0,64,0,0
0,64,0,0
0,61,0,0
0,45,111,9
0,57,111,1
0,45,111,0
0,61,111,0
0,64,111,0
0,57,111,0
0,64,111,0
0,61,111,0
0,61,0,14
0,45,0,0
0,64,0,0
0,57,0,0
0,64,0,0
0,45,0,0
0,61,0,1
0,57,0,0
0,45,111,4
0,57,111,0
0,64,111,0
0,61,111,0
0,64,111,0
0,61,111,0
0,45,111,0
0,57,111,1
0,56,73,4
0,56,0,14
0,57,0,16
0,45,0,0
0,45,0,1
0,57,0,0
0,64,0,2
0,61,0,0
0,61,0,0
0,64,0,1
0,64,127,0
0,45,127,0
0,61,127,0
0,57,127,0
0,64,127,0
0,61,127,0
0,45,127,0
0,57,127,1
0,42,49,1
0,42,0,14
0,46,73,5
0,46,0,14
0,45,0,19
0,57,0,0
0,57,0,0
0,45,0,0
0,61,0,2
0,61,0,0
0,64,0,0
0,64,0,1
0,64,95,0
0,36,105,0
0,61,95,0
0,45,95,0
0,57,95,0
0,45,95,0
0,64,95,1
0,57,95,0
0,61,95,0
0,36,0,12
0,45,0,3
0,57,0,0
0,57,0,1
0,45,0,0
0,33,0,2
0,64,0,1
0,61,0,0
0,64,0,0
0,45,0,0
0,61,0,0
0,38,105,0
0,57,127,1
0,61,127,0
0,45,127,0
0,45,127,0
0,61,127,0
0,64,127,0
0,64,127,1
0,57,127,0
0,38,0,12
0,45,0,14
0,64,0,0
0,61,0,0
0,61,0,1
0,45,0,0
0,57,0,0
0,57,0,0
0,64,0,0
0,57,95,0
0,42,95,0
0,61,95,1
0,61,95,0
0,54,95,0
0,57,95,0
0,54,95,0
0,42,95,0
0,38,105,3
0,57,0,12
0,61,0,0
0,61,0,0
0,57,0,0
0,42,0,2
0,54,0,0
0,38,0,0
0,42,0,0
0,54,0,1
0,40,127,0
0,64,127,0
0,59,127,0
0,56,127,0
0,40,127,0
0,56,127,1
0,59,127,0
0,64,127,0
0,36,105,4
0,28,111,1
0,76,120,0
0,46,73,0
0,64,124,0
0,40,91,0
0,40,127,0
0,52,127,0
0,71,124,1
0,68,112,0
0,36,0,12
0,46,0,1
0,56,0,8
0,40,0,0
0,64,0,1
0,64,0,0
0,40,0,0
0,59,0,0
0,59,0,0
0,56,0,0
0,40,0,4
0,64,0,2
0,52,0,0
0,68,0,5
0,76,0,2
0,71,0,0
0,28,0,17
0,40,0,1
0,56,73,0
0,56,0,14
0,40,95,22
0,59,95,0
0,56,95,0
0,64,95,0
0,59,95,1
0,64,95,0
0,40,95,0
0,56,95,0
0,38,105,2
0,38,0,14
0,40,0,0
0,40,0,0
0,64,0,0
0,64,0,0
0,59,0,1
0,56,0,0
0,56,0,0
0,59,0,1
0,40,127,0
0,40,127,0
0,56,127,0
0,64,127,0
0,59,127,0
0,46,73,0
0,59,127,1
0,64,127,0
0,56,127,0
0,28,111,4
0,36,105,0
0,40,91,0
0,52,124,1
0,76,116,0
0,71,112,0
0,64,112,0
0,40,127,0
0,68,112,0
0,46,0,8
0,36,0,5
0,64,0,11
0,40,0,0
0,56,0,0
0,56,0,0
0,59,0,0
0,40,0,0
0,64,0,1
0,40,0,0
0,59,0,0
0,64,0,4
0,52,0,1
0,76,0,2
0,68,0,0
0,71,0,2
0,28,0,20
0,40,0,0
0,56,73,0
0,56,0,14
0,40,111,22
0,59,111,0
0,56,111,0
0,64,111,0
0,40,111,1
0,64,111,0
0,56,111,0
0,59,111,0
0,38,105,2
0,40,91,0
0,28,111,0
0,28,0,13
0,64,0,1
0,40,0,0
0,40,0,0
0,64,0,0
0,38,0,0
0,40,0,0
0,56,0,2
0,59,0,0
0,56,0,0
0,59,0,1
0,59,127,0
0,56,127,0
0,40,127,0
0,64,127,0
0,56,127,0
0,40,127,0
0,64,127,1
0,59,127,0
0,52,91,4
0,40,111,0
0,64,96,0
0,40,112,0
0,46,73,0
0,36,105,0
0,68,116,1
0,52,112,0
0,71,92,0
0,76,116,0
0,64,0,7
0,68,0,5
0,36,0,1
0,46,0,0
0,71,0,2
0,52,0,0
0,76,0,4
0,40,0,0
0,40,0,10
0,40,0,1
0,64,0,0
0,64,0,0
0,59,0,2
0,59,0,0
0,56,0,0
0,56,0,0
0,36,105,0
0,56,111,0
0,56,111,1
0,40,111,0
0,59,111,0
0,64,111,0
0,64,111,0
0,40,111,0
0,59,111,0
0,36,0,13
0,56,0,4
0,40,0,0
0,52,0,1
0,56,0,0
0,59,0,0
0,64,0,0
0,59,0,0
0,40,0,0
0,64,0,1
0,40,0,0
0,40,127,0
0,64,127,0
0,56,127,0
0,40,127,0
0,59,127,0
0,64,127,1
0,59,127,0
0,56,127,0
0,50,91,2
0,38,111,0
0,38,105,0
0,96,88,6
0,95,84,6
0,38,0,2
0,38,101,3
0,96,0,3
0,93,92,0
0,95,0,7
0,91,80,0
0,38,0,4
0,93,0,1
0,59,0,2
0,40,0,0
0,56,0,0
0,56,0,1
0,40,0,0
0,64,0,0
0,64,0,0
0,59,0,0
0,89,80,2
0,38,105,0
0,91,0,2
0,88,80,3
0,89,0,4
0,86,84,3
0,38,0,2
0,88,0,1
0,84,88,2
0,50,0,2
0,38,0,0
0,73,127,0
0,38,105,1
0,86,0,1
0,37,111,0
0,49,91,1
0,83,80,2
0,84,0,5
0,81,84,3
0,38,0,1
0,83,0,0
0,79,80,3
0,81,0,4
0,38,105,0
0,77,80,3
0,73,0,2
0,79,0,3
0,76,80,2
0,38,0,4
0,77,0,0
0,38,105,3
0,74,84,4
0,76,0,1
0,72,80,5
0,74,0,2
0,38,0,2
0,71,76,4
0,37,0,2
0,49,0,0
0,76,127,0
0,38,105,0
0,47,91,1
0,35,111,0
0,72,0,1
0,69,80,3
0,71,0,4
0,67,80,5
0,38,0,1
0,69,0,4
0,38,105,0
0,65,84,2
0,76,0,4
0,67,0,1
0,64,76,5
0,38,0,2
0,65,0,2
0,38,105,3
0,62,84,2
0,64,0,2
0,60,84,8
0,38,0,2
0,62,0,0
0,35,0,5
0,47,0,0
0,60,0,0
0,45,91,1
0,57,105,0
0,45,116,0
0,33,111,0
0,78,127,0
0,36,105,2
0,57,0,11
0,36,0,3
0,78,0,6
0,45,0,15
0,64,104,1
0,57,104,0
0,61,120,0
0,57,0,14
0,45,0,2
0,33,0,0
0,38,105,3
0,35,111,0
0,51,81,0
0,78,127,0
0,52,127,0
0,47,91,0
0,56,73,1
0,61,0,2
0,64,0,1
0,51,0,9
0,38,0,0
0,56,0,3
0,78,0,14
0,51,81,26
0,73,127,1
0,35,0,2
0,47,0,0
0,36,111,0
0,36,105,0
0,57,108,1
0,48,91,0
0,64,100,0
0,61,112,0
0,51,0,11
0,36,0,2
0,52,0,5
0,73,0,8
0,61,0,9
0,64,0,0
0,57,0,0
0,36,105,19
0,37,111,1
0,49,91,0
0,51,81,0
0,76,127,0
0,45,124,0
0,38,105,2
0,56,73,0
0,36,0,2
0,48,0,0
0,36,0,9
0,51,0,1
0,56,0,2
0,38,0,1
0,78,127,0
0,76,0,5
0,37,0,21
0,49,0,0
0,38,111,0
0,50,91,0
0,51,81,0
0,64,108,0
0,36,105,2
0,61,100,0
0,57,112,0
0,45,0,3
0,51,0,2
0,36,0,2
0,51,81,2
0,52,127,0
0,57,0,3
0,50,0,0
0,38,0,0
0,56,73,0
0,36,105,1
0,39,111,0
0,38,105,0
0,51,91,0
0,61,0,4
0,64,0,7
0,51,0,0
0,38,0,2
0,52,0,0
0,56,0,0
0,36,0,1
0,78,0,2
0,64,104,2
0,57,120,0
0,61,100,0
0,57,0,15
0,64,0,0
0,39,0,3
0,51,0,0
0,61,0,0
0,51,81,0
0,52,112,1
0,52,91,2
0,36,105,0
0,40,111,0
0,52,0,2
0,73,127,2
0,51,0,7
0,36,0,3
0,73,0,19
0,51,65,3
0,52,127,0
0,52,0,7
0,51,0,7
0,40,0,2
0,52,0,1
0,28,111,2
0,51,81,0
0,40,91,1
0,61,108,0
0,64,100,0
0,38,105,2
0,57,104,0
0,56,73,0
0,36,105,0
0,76,127,2
0,51,0,9
0,36,0,3
0,56,0,0
0,38,0,0
0,76,0,16
0,52,124,5
0,64,0,7
0,61,0,1
0,57,0,0
0,52,0,6
0,40,0,5
0,28,0,0
0,51,81,1
0,42,91,0
0,30,111,0
0,45,112,0
0,36,105,2
0,78,127,0
0,51,0,12
0,36,0,2
0,78,0,17
0,64,100,2
0,61,112,0
0,57,112,0
0,45,0,1
0,61,0,3
0,57,0,0
0,42,0,2
0,64,0,0
0,30,0,0
0,52,116,1
0,33,111,0
0,45,91,0
0,51,81,0
0,36,105,2
0,56,73,0
0,38,105,0
0,81,127,0
0,51,0,2
0,36,0,2
0,56,0,0
0,38,0,0
0,81,0,5
0,33,0,26
0,45,0,1
0,64,104,0
0,51,81,0
0,36,105,2
0,35,111,0
0,47,91,0
0,57,112,1
0,61,124,0
0,80,127,4
0,51,0,7
0,36,0,2
0,52,0,3
0,80,0,16
0,35,0,17
0,47,0,0
0,37,111,6
0,45,120,0
0,51,81,0
0,36,105,0
0,49,91,0
0,56,73,3
0,38,105,0
0,64,0,1
0,76,127,0
0,61,0,7
0,36,0,3
0,51,0,0
0,57,0,2
0,56,0,1
0,38,0,0
0,76,0,16
0,74,127,2
0,45,0,5
0,52,96,0
0,52,91,2
0,64,112,0
0,40,111,0
0,51,81,0
0,59,100,2
0,36,105,0
0,56,112,0
0,37,0,1
0,49,0,1
0,51,0,2
0,36,0,2
0,59,0,2
0,52,0,1
0,64,0,2
0,40,91,2
0,51,81,0
0,28,111,0
0,36,105,0
