track,note,velocity,time
4,26,101,4980
4,26,0,840
4,26,86,0
4,26,0,120
4,28,101,0
4,28,0,960
4,33,101,0
4,33,0,840
4,33,86,0
4,33,0,120
4,38,101,0
4,38,0,840
4,38,86,0
4,38,0,120
4,36,100,0
4,36,0,840
4,36,87,0
4,36,0,120
4,35,101,0
4,35,0,840
4,35,86,0
4,35,0,120
4,33,100,0
4,33,0,960
4,26,101,0
4,26,0,960
4,26,101,0
4,26,0,840
4,26,86,0
4,26,0,120
4,28,100,0
4,28,0,960
4,33,101,0
4,33,0,840
4,33,86,0
4,33,0,120
4,38,101,0
4,38,0,960
4,36,101,0
4,36,0,840
4,36,86,0
4,36,0,120
4,35,101,0
4,35,0,960
4,33,100,0
4,33,0,840
4,33,86,0
4,33,0,120
4,26,101,0
4,26,0,720
4,33,87,0
4,33,0,120
4,38,86,0
4,38,0,120
4,26,100,0
4,26,0,840
4,26,87,0
4,26,0,120
4,28,101,0
4,28,0,960
4,33,100,0
4,33,0,840
4,33,86,0
4,33,0,120
4,38,101,0
4,38,0,840
4,38,86,0
4,38,0,120
4,36,101,0
4,36,0,840
4,36,87,0
4,36,0,120
4,35,100,0
4,35,0,840
4,35,87,0
4,35,0,120
4,33,100,0
4,33,0,840
4,33,86,0
4,33,0,120
4,26,101,0
4,26,0,360
4,33,101,0
4,33,0,600
4,30,100,0
4,30,0,840
4,26,86,0
4,26,0,120
4,27,101,0
4,27,0,480
4,27,101,0
4,27,0,480
4,26,100,0
4,26,0,840
4,26,86,0
4,26,0,120
4,31,101,0
4,31,0,600
4,26,86,0
4,26,0,120
4,31,101,0
4,31,0,240
4,30,101,0
4,30,0,840
4,30,86,0
4,30,0,120
4,29,101,0
4,29,0,840
4,29,86,0
4,29,0,120
4,28,100,0
4,28,0,480
4,33,101,0
4,33,0,480
4,26,101,0
4,26,0,720
4,33,86,0
4,33,0,120
4,38,86,0
4,38,0,120
4,36,101,0
4,36,0,840
4,36,87,0
4,36,0,120
4,35,100,0
4,35,0,840
4,35,86,0
4,35,0,120
4,33,101,0
4,33,0,840
4,33,86,0
4,33,0,120
4,26,101,0
4,26,0,600
4,33,101,0
4,33,0,360
4,26,100,0
4,26,0,840
4,26,87,0
4,26,0,120
4,28,100,0
4,28,0,960
4,33,100,0
4,33,0,840
4,33,87,0
4,33,0,120
4,38,101,0
4,38,0,960
4,36,100,0
4,36,0,840
4,36,86,0
4,36,0,120
4,35,101,0
4,35,0,960
4,33,101,0
4,33,0,840
4,33,86,0
4,33,0,120
4,26,100,0
4,26,0,720
4,33,87,0
4,33,0,120
4,38,86,0
4,38,0,120
4,26,101,0
4,26,0,840
4,26,87,0
4,26,0,120
4,28,100,0
4,28,0,960
4,33,101,0
4,33,0,840
4,33,86,0
4,33,0,120
4,38,100,0
4,38,0,840
4,38,87,0
4,38,0,120
4,36,101,0
4,36,0,840
4,36,86,0
4,36,0,120
4,35,100,0
4,35,0,840
4,35,87,0
4,35,0,120
4,33,101,0
4,33,0,960
4,26,100,0
4,26,0,960
4,26,100,0
4,26,0,840
4,26,87,0
4,26,0,120
4,28,100,0
4,28,0,960
4,33,101,0
4,33,0,840
4,33,87,0
4,33,0,120
4,38,100,0
4,38,0,960
4,36,101,0
4,36,0,840
4,36,86,0
4,36,0,120
4,35,100,0
4,35,0,960
4,33,101,0
4,33,0,840
4,33,87,0
4,33,0,120
4,26,100,0
4,26,0,720
4,33,86,0
4,33,0,120
4,38,87,0
4,38,0,120
4,26,101,0
4,26,0,840
4,26,86,0
4,26,0,120
4,28,100,0
4,28,0,960
4,33,101,0
4,33,0,840
4,33,86,0
4,33,0,120
4,38,101,0
4,38,0,840
4,38,87,0
4,38,0,120
4,36,100,0
4,36,0,840
4,36,87,0
4,36,0,120
4,35,100,0
4,35,0,840
4,35,86,0
4,35,0,120
4,33,101,0
4,33,0,960
4,26,101,0
4,26,0,960
4,30,100,0
4,30,0,840
4,26,86,0
4,26,0,120
4,27,101,0
4,27,0,480
4,27,101,0
4,27,0,480
4,26,100,0
4,26,0,840
4,26,86,0
4,26,0,120
4,31,101,0
4,31,0,600
4,26,86,0
4,26,0,120
4,31,101,0
4,31,0,240
4,30,101,0
4,30,0,840
4,30,86,0
4,30,0,120
4,29,101,0
4,29,0,840
4,29,86,0
4,29,0,120
4,28,100,0
4,28,0,480
4,33,101,0
4,33,0,480
4,26,101,0
4,26,0,720
4,33,86,0
4,33,0,120
4,38,86,0
4,38,0,120
4,36,101,0
4,36,0,840
4,36,87,0
4,36,0,120
4,35,100,0
4,35,0,840
4,35,86,0
4,35,0,120
4,33,101,0
4,33,0,840
4,33,86,0
4,33,0,120
4,26,101,0
4,26,0,600
4,33,101,0
4,33,0,360
4,26,100,0
4,26,0,840
4,26,87,0
4,26,0,120
4,28,100,0
4,28,0,840
4,28,86,0
4,28,0,120
4,33,101,0
4,33,0,840
4,33,87,0
4,33,0,120
4,38,100,0
4,38,0,960
4,36,100,0
4,36,0,840
4,36,87,0
4,36,0,120
4,35,101,0
4,35,0,840
4,35,86,0
4,35,0,120
4,33,100,0
4,33,0,840
4,33,87,0
4,33,0,120
4,26,100,0
4,26,0,600
4,33,103,0
4,33,0,120
4,38,95,0
4,38,0,120
4,40,104,0
4,40,0,120
4,36,101,0
4,36,0,840
4,36,86,0
4,36,0,120
4,35,100,0
4,35,0,960
4,33,101,0
4,33,0,360
4,29,93,0
4,29,0,475
4,26,86,5
4,26,0,120
4,26,100,0
4,26,0,840
4,38,87,0
4,38,0,120
4,36,101,0
4,36,0,840
4,36,86,0
4,36,0,120
4,35,100,0
4,35,0,960
4,33,101,0
4,33,0,840
4,33,86,0
4,33,0,120
4,26,101,0
4,26,0,720
4,33,87,0
4,33,0,120
4,38,86,0
4,38,0,120
4,36,101,0
4,36,0,840
4,36,86,0
4,36,0,120
4,35,100,0
4,35,0,960
4,33,101,0
4,33,0,960
4,26,101,0
4,26,0,2880
5,69,111,90
5,69,0,107
5,69,110,13
5,69,0,107
5,67,111,13
5,67,0,107
5,69,111,13
5,69,0,107
5,68,110,13
5,68,0,107
5,69,111,13
5,69,0,107
5,65,110,13
5,65,0,107
5,67,110,13
5,67,0,107
5,67,111,13
5,67,0,107
5,67,111,13
5,67,0,107
5,69,110,13
5,69,0,107
5,67,110,13
5,67,0,227
5,69,111,373
5,69,0,107
5,69,111,13
5,69,0,107
5,68,110,13
5,68,0,107
5,69,110,13
5,69,0,107
5,68,111,13
5,68,0,107
5,69,110,13
5,69,0,107
5,64,111,13
5,64,0,107
5,65,111,13
5,65,0,107
5,65,110,13
5,65,0,107
5,65,111,13
5,65,0,107
5,67,110,13
5,67,0,107
5,65,110,13
5,65,0,107
5,62,111,493
5,62,0,107
5,65,111,13
5,65,0,107
5,62,110,13
5,62,0,107
5,65,110,13
5,65,0,107
5,62,111,13
5,62,0,107
5,62,111,133
5,62,0,107
5,64,110,13
5,64,0,107
5,64,110,13
5,64,0,107
5,64,111,13
5,64,0,107
5,65,110,13
5,65,0,107
5,64,111,13
5,64,0,107
5,64,111,493
5,64,0,107
5,65,110,13
5,65,0,107
5,64,111,13
5,64,0,107
5,65,110,13
5,65,0,107
5,64,110,13
5,64,0,107
5,65,111,13
5,65,0,107
5,61,111,13
5,61,0,107
5,62,110,13
5,62,0,107
5,62,110,13
5,62,0,107
5,62,111,13
5,62,0,107
5,64,111,13
5,64,0,107
5,62,110,13
5,62,0,107
5,69,110,493
5,69,0,107
5,69,111,13
5,69,0,107
5,68,110,13
5,68,0,107
5,69,111,13
5,69,0,107
5,68,111,13
5,68,0,107
5,69,110,13
5,69,0,107
5,65,111,13
5,65,0,107
5,67,110,13
5,67,0,107
5,67,110,13
5,67,0,107
5,67,111,13
5,67,0,107
5,69,111,13
5,69,0,107
5,67,110,13
5,67,0,107
5,69,110,493
5,69,0,107
5,69,111,13
5,69,0,107
5,68,111,13
5,68,0,107
5,69,110,13
5,69,0,107
5,68,110,13
5,68,0,107
5,69,111,13
5,69,0,107
5,64,110,13
5,64,0,107
5,65,111,13
5,65,0,107
5,65,111,13
5,65,0,107
5,65,110,13
5,65,0,107
5,67,111,13
5,67,0,107
5,65,110,13
5,65,0,107
5,62,110,493
5,62,0,107
5,65,111,13
5,65,0,107
5,62,111,13
5,62,0,107
5,65,110,13
5,65,0,107
5,62,110,13
5,62,0,107
5,62,111,133
5,62,0,107
5,64,111,13
5,64,0,107
5,64,110,13
5,64,0,107
5,64,110,13
5,64,0,107
5,65,111,13
5,65,0,107
5,64,110,13
5,64,0,107
5,64,111,493
5,64,0,107
5,65,111,13
5,65,0,107
5,64,110,13
5,64,0,107
5,65,111,13
5,65,0,107
5,64,110,13
5,64,0,107
5,65,110,13
5,65,0,107
5,61,111,13
5,61,0,107
5,62,111,13
5,62,0,107
5,62,110,13
5,62,0,107
5,62,110,13
5,62,0,107
5,62,111,13
5,62,0,107
5,62,111,13
5,62,0,107
5,69,110,240
5,69,0,107
5,72,110,13
5,72,0,107
5,69,111,13
5,69,0,107
5,72,110,13
5,72,0,107
5,70,111,13
5,70,0,107
5,69,111,13
5,69,0,107
5,70,110,13
5,70,0,107
5,72,111,13
5,72,0,107
5,70,110,13
5,70,0,107
5,69,110,13
5,69,0,107
5,72,111,13
5,72,0,227
5,69,111,13
5,69,0,107
5,72,110,373
5,72,0,107
5,72,110,13
5,72,0,107
5,72,111,13
5,72,0,107
5,72,111,13
5,72,0,107
5,70,110,13
5,70,0,107
5,69,110,13
5,69,0,107
5,70,111,13
5,70,0,227
5,70,110,13
5,70,0,107
5,70,111,13
5,70,0,107
5,70,111,13
5,70,0,227
5,70,110,13
5,70,0,107
5,69,111,373
5,69,0,107
5,70,110,13
5,70,0,107
5,70,110,13
5,70,0,107
5,70,111,13
5,70,0,107
5,69,111,13
5,69,0,107
5,67,110,13
5,67,0,107
5,69,110,13
5,69,0,107
5,70,111,13
5,70,0,107
5,70,111,13
5,70,0,107
5,70,110,13
5,70,0,107
5,70,110,13
5,70,0,227
5,70,111,13
5,70,0,107
5,67,110,373
5,67,0,107
5,70,111,13
5,70,0,107
5,70,111,13
5,70,0,107
5,70,110,13
5,70,0,107
5,69,111,13
5,69,0,107
5,69,110,13
5,69,0,107
5,67,110,13
5,67,0,107
5,69,111,13
5,69,0,107
5,69,111,13
5,69,0,107
5,69,110,13
5,69,0,107
5,69,110,13
5,69,0,227
5,65,111,13
5,65,0,107
5,69,111,373
5,69,0,107
5,69,110,13
5,69,0,107
5,69,110,13
5,69,0,107
5,69,111,13
5,69,0,107
5,67,110,13
5,67,0,107
5,65,111,13
5,65,0,107
5,68,111,13
5,68,0,227
5,68,110,13
5,68,0,107
5,68,111,13
5,68,0,107
5,68,110,13
5,68,0,227
5,65,110,13
5,65,0,107
5,67,111,373
5,67,0,107
5,67,111,13
5,67,0,107
5,67,110,13
5,67,0,107
5,67,110,13
5,67,0,107
5,65,111,13
5,65,0,107
5,64,111,13
5,64,0,107
5,65,110,13
5,65,0,227
5,62,110,13
5,62,0,107
5,62,111,13
5,62,0,107
5,62,110,13
5,62,0,227
5,62,111,13
5,62,0,107
5,69,111,280
5,69,0,107
5,69,110,13
5,69,0,107
5,68,111,13
5,68,0,107
5,69,110,13
5,69,0,107
5,68,110,13
5,68,0,107
5,69,111,13
5,69,0,107
5,65,111,13
5,65,0,107
5,67,110,13
5,67,0,107
5,67,110,13
5,67,0,107
5,67,111,13
5,67,0,107
5,69,111,13
5,69,0,107
5,67,110,13
5,67,0,227
5,69,110,373
5,69,0,107
5,69,111,13
5,69,0,107
5,68,110,13
5,68,0,107
5,69,111,13
5,69,0,107
5,68,111,13
5,68,0,107
5,69,110,13
5,69,0,107
5,64,111,13
5,64,0,107
5,65,110,13
5,65,0,107
5,65,110,13
5,65,0,107
5,65,111,13
5,65,0,107
5,67,111,13
5,67,0,107
5,65,110,13
5,65,0,107
5,65,110,493
5,65,0,107
5,65,111,13
5,65,0,107
5,62,111,13
5,62,0,107
5,65,110,13
5,65,0,107
5,62,110,13
5,62,0,107
5,65,111,13
5,65,0,107
5,62,110,13
5,62,0,107
5,64,111,13
5,64,0,107
5,64,111,13
5,64,0,107
5,64,110,13
5,64,0,107
5,65,111,13
5,65,0,107
5,64,110,13
5,64,0,107
5,64,110,493
5,64,0,107
5,65,111,13
5,65,0,107
5,64,111,13
5,64,0,107
5,65,110,13
5,65,0,107
5,64,110,13
5,64,0,107
5,65,111,13
5,65,0,107
5,61,111,13
5,61,0,107
5,62,110,13
5,62,0,107
5,62,110,13
5,62,0,107
5,62,111,13
5,62,0,107
5,62,110,13
5,62,0,107
5,62,111,133
5,62,0,107
5,68,111,8053
5,68,0,107
5,69,110,13
5,69,0,107
5,68,111,13
5,68,0,107
5,69,110,13
5,69,0,107
5,68,110,13
5,68,0,107
5,69,111,13
5,69,0,107
5,65,111,13
5,65,0,107
5,67,110,13
5,67,0,107
5,67,110,13
5,67,0,107
5,67,111,13
5,67,0,107
5,69,111,13
5,69,0,107
5,67,110,13
5,67,0,227
5,69,110,373
5,69,0,107
5,69,111,13
5,69,0,107
5,68,110,13
5,68,0,107
5,69,111,13
5,69,0,107
5,68,111,13
5,68,0,107
5,69,110,13
5,69,0,107
5,64,111,13
5,64,0,107
5,65,110,13
5,65,0,107
5,65,110,13
5,65,0,107
5,65,111,13
5,65,0,107
5,67,111,13
5,67,0,107
5,65,110,13
5,65,0,107
5,62,110,493
5,62,0,107
5,65,111,13
5,65,0,107
5,62,111,13
5,62,0,107
5,65,110,13
5,65,0,107
5,62,110,13
5,62,0,107
5,65,111,13
5,65,0,107
5,62,110,13
5,62,0,107
5,64,111,13
5,64,0,107
5,64,111,13
5,64,0,107
5,64,110,13
5,64,0,107
5,65,111,13
5,65,0,107
5,64,110,13
5,64,0,107
5,65,110,493
5,65,0,107
5,65,111,13
5,65,0,107
5,64,111,13
5,64,0,107
5,65,110,13
5,65,0,107
5,64,110,13
5,64,0,107
5,61,111,133
5,61,0,107
5,62,111,13
5,62,0,107
5,62,110,13
5,62,0,107
5,62,110,13
5,62,0,107
5,62,111,13
5,62,0,107
5,62,110,133
5,62,0,107
5,69,111,680
5,69,0,107
5,72,111,13
5,72,0,107
5,72,110,13
5,72,0,107
5,72,111,13
5,72,0,107
5,70,110,13
5,70,0,107
5,69,110,13
5,69,0,107
5,70,111,13
5,70,0,107
5,72,111,13
5,72,0,107
5,70,110,13
5,70,0,107
5,69,110,13
5,69,0,107
5,72,111,13
5,72,0,227
5,69,111,13
5,69,0,107
5,72,110,373
5,72,0,107
5,72,110,13
5,72,0,107
5,72,111,13
5,72,0,107
5,72,110,13
5,72,0,107
5,70,111,13
5,70,0,107
5,69,111,13
5,69,0,107
5,70,110,13
5,70,0,227
5,70,111,13
5,70,0,107
5,70,110,13
5,70,0,107
5,70,110,13
5,70,0,227
5,70,111,13
5,70,0,107
5,69,111,373
5,69,0,107
5,70,110,13
5,70,0,107
5,70,110,13
5,70,0,107
5,70,111,13
5,70,0,107
5,69,111,13
5,69,0,107
5,67,110,13
5,67,0,107
5,69,110,13
5,69,0,107
5,70,111,13
5,70,0,107
5,70,110,13
5,70,0,107
5,70,111,13
5,70,0,107
5,70,111,13
5,70,0,227
5,70,110,13
5,70,0,107
5,67,111,373
5,67,0,107
5,70,110,13
5,70,0,107
5,70,110,13
5,70,0,107
5,70,111,13
5,70,0,107
5,69,111,13
5,69,0,107
5,69,110,13
5,69,0,107
5,67,110,13
5,67,0,107
5,69,111,13
5,69,0,107
5,69,111,13
5,69,0,107
5,69,110,13
5,69,0,107
5,69,110,13
5,69,0,227
5,65,111,13
5,65,0,107
5,69,110,373
5,69,0,107
5,69,111,13
5,69,0,107
5,69,111,13
5,69,0,107
5,69,110,13
5,69,0,107
5,67,111,13
5,67,0,107
5,65,110,13
5,65,0,107
5,68,110,13
5,68,0,227
5,68,111,13
5,68,0,107
5,68,111,13
5,68,0,107
