track,note,velocity,time
1,62,77,3840
1,62,0,720
1,71,77,240
1,67,69,0
1,67,0,720
1,71,0,0
1,72,66,120
1,76,74,0
1,76,0,120
1,72,0,0
1,71,73,0
1,74,82,0
1,74,0,1440
1,71,0,0
1,76,78,360
1,84,92,0
1,84,0,120
1,76,0,0
1,74,74,0
1,83,89,0
1,83,0,1920
1,74,0,0
1,79,74,0
1,71,62,0
1,71,0,960
1,79,0,0
1,67,53,960
1,69,53,0
1,73,61,0
1,78,77,0
1,78,0,1800
1,76,67,0
1,76,0,60
1,66,55,0
1,74,60,30
1,73,0,30
1,67,0,0
1,69,0,0
1,81,69,0
1,66,0,480
1,74,0,0
1,81,0,480
1,69,55,960
1,73,55,0
1,67,55,0
1,78,69,0
1,78,0,1800
1,76,60,0
1,76,0,60
1,66,49,0
1,72,56,30
1,67,0,30
1,69,0,0
1,73,0,0
1,81,72,0
1,66,0,480
1,72,0,0
1,81,0,480
1,81,55,1800
1,84,66,0
1,84,0,120
1,81,0,0
1,76,70,0
1,72,58,0
1,72,0,720
1,76,0,0
1,72,55,120
1,74,66,0
1,74,0,120
1,72,0,0
1,62,77,0
1,62,0,720
1,71,77,240
1,67,69,0
1,67,0,720
1,71,0,0
1,72,66,120
1,76,74,0
1,76,0,120
1,72,0,0
1,71,73,0
1,74,82,0
1,74,0,1440
1,71,0,0
1,76,81,360
1,84,96,0
1,84,0,120
1,76,0,0
1,74,74,0
1,83,89,0
1,83,0,1920
1,74,0,0
1,79,74,0
1,71,62,0
1,71,0,960
1,79,0,0
1,71,61,960
1,77,75,0
1,77,0,960
1,77,70,0
1,77,0,840
1,77,75,0
1,77,0,120
1,71,0,0
1,77,75,0
1,71,61,0
1,77,0,720
1,77,64,0
1,77,0,60
1,79,59,0
1,79,0,60
1,77,62,0
1,77,0,120
1,76,68,0
1,76,0,840
1,75,72,0
1,75,0,60
1,64,46,0
1,67,50,20
1,72,51,20
1,71,0,20
1,76,66,0
1,76,0,3840
1,72,0,0
1,67,0,0
1,64,0,0
1,64,58,0
1,67,60,0
1,72,75,0
1,72,0,960
1,72,75,0
1,72,0,840
1,72,81,0
1,72,0,120
1,67,0,0
1,64,0,0
1,64,53,0
1,67,60,0
1,72,78,0
1,72,0,1680
1,71,75,120
1,71,0,120
1,67,0,0
1,64,0,0
1,67,56,0
1,64,53,0
1,71,74,0
1,71,0,1920
1,69,72,0
1,69,0,1800
1,71,70,0
1,71,0,60
1,57,46,0
1,62,49,30
1,64,0,30
1,67,0,0
1,67,68,0
1,57,0,480
1,67,0,1440
1,62,0,0
1,66,74,0
1,60,49,0
1,62,62,0
1,66,0,1800
1,67,67,0
1,67,0,120
1,62,0,0
1,60,0,0
1,59,49,0
1,62,52,0
1,67,73,0
1,67,0,1920
1,62,0,0
1,59,0,0
1,59,46,1920
1,59,0,108
1,62,40,12
1,62,0,108
1,67,41,12
1,67,0,108
1,69,34,12
1,69,0,108
1,71,41,12
1,71,0,108
1,69,39,12
1,69,0,108
1,67,39,12
1,67,0,108
1,76,46,12
1,76,0,108
1,74,46,12
1,74,0,108
1,72,40,12
1,72,0,108
1,71,36,12
1,71,0,108
1,69,37,12
1,69,0,108
1,67,42,12
1,67,0,108
1,69,36,12
1,69,0,108
1,71,40,12
1,71,0,108
1,62,36,12
1,62,0,108
1,59,46,12
1,59,0,108
1,62,40,12
1,62,0,108
1,67,41,12
1,67,0,108
1,69,34,12
1,69,0,108
1,71,41,12
1,71,0,108
1,69,39,12
1,69,0,108
1,67,39,12
1,67,0,108
1,76,46,12
1,76,0,108
1,74,46,12
1,74,0,108
1,72,40,12
1,72,0,108
1,71,36,12
1,71,0,108
1,69,37,12
1,69,0,108
1,67,42,12
1,67,0,108
1,69,36,12
1,69,0,108
1,71,40,12
1,71,0,108
1,62,36,12
1,62,0,108
1,59,46,12
1,59,0,108
1,62,40,12
1,62,0,108
1,67,41,12
1,67,0,108
1,69,34,12
1,69,0,108
1,67,41,12
1,67,0,108
1,69,39,12
1,69,0,108
1,71,39,12
1,71,0,108
1,62,46,12
1,62,0,108
1,59,46,12
1,59,0,108
1,62,40,12
1,62,0,108
1,67,36,12
1,67,0,108
1,69,37,12
1,69,0,108
1,67,42,12
1,67,0,108
1,69,36,12
1,69,0,108
1,71,40,12
1,71,0,108
1,62,36,12
1,62,0,108
1,59,46,12
1,59,0,108
1,62,40,12
1,62,0,108
1,67,41,12
1,67,0,108
1,69,34,12
1,69,0,108
1,67,41,12
1,67,0,108
1,69,38,12
1,69,0,108
1,71,37,12
1,71,0,108
1,74,42,12
1,74,0,108
1,79,42,12
1,79,0,120
1,81,38,0
1,81,0,120
1,83,40,0
1,83,0,120
1,86,34,0
1,86,0,120
1,91,39,0
1,91,0,120
1,93,38,0
1,93,0,120
1,95,37,0
1,95,0,120
1,98,37,0
1,98,0,120
1,95,50,0
1,95,0,480
1,59,34,390
1,62,37,30
1,67,40,30
1,71,44,30
1,71,0,960
1,59,0,0
1,62,0,0
1,67,0,0
1,59,33,90
1,62,35,30
1,67,37,30
1,71,39,30
1,71,0,1740
1,59,0,0
1,62,0,0
1,67,0,0
2,43,52,1
2,43,0,119
2,50,45,0
2,50,0,120
2,55,48,0
2,55,0,120
2,57,40,0
2,57,0,120
2,59,48,0
2,57,44,120
2,59,0,20
2,55,44,100
2,57,0,20
2,64,52,100
2,55,0,20
2,62,52,100
2,64,0,13
2,60,45,71
2,62,0,20
2,59,41,100
2,60,0,20
2,57,42,100
2,59,0,20
2,55,49,100
2,57,0,20
2,57,41,100
2,55,0,20
2,59,45,100
2,57,0,20
2,50,41,100
2,59,0,20
2,43,52,100
2,50,0,9
2,43,0,49
2,50,45,0
2,50,0,120
2,55,48,0
2,55,0,120
2,57,40,0
2,57,0,120
2,59,48,0
2,57,44,120
2,59,0,20
2,55,44,100
2,57,0,20
2,64,52,100
2,55,0,20
2,62,52,100
2,64,0,4
2,60,45,42
2,62,0,20
2,59,41,100
2,60,0,20
2,57,42,100
2,59,0,20
2,55,49,100
2,57,0,20
2,57,41,100
2,55,0,20
2,59,45,100
2,57,0,20
2,50,41,100
2,59,0,20
2,43,52,100
2,50,0,9
2,43,0,42
2,50,45,0
2,50,0,120
2,55,48,0
2,55,0,120
2,57,40,0
2,57,0,120
2,59,48,0
2,59,0,120
2,57,44,0
2,57,0,120
2,55,44,0
2,55,0,120
2,64,52,0
2,64,0,120
2,62,52,0
2,62,0,71
2,60,45,0
2,60,0,120
2,59,41,0
2,59,0,120
2,57,42,0
2,57,0,120
2,55,49,0
2,55,0,120
2,57,41,0
2,57,0,120
2,59,45,0
2,59,0,120
2,50,41,0
2,50,0,120
2,43,52,0
2,43,0,42
2,50,46,0
2,50,0,120
2,55,50,0
2,55,0,120
2,57,44,0
2,57,0,120
2,59,55,0
2,59,0,120
2,57,53,0
2,57,0,120
2,55,55,0
2,55,0,120
2,64,68,0
2,64,0,120
2,62,70,0
2,62,0,42
2,60,61,0
2,60,0,120
2,59,55,0
2,59,0,120
2,57,56,0
2,57,0,120
2,55,66,0
2,55,0,120
2,57,55,0
2,57,0,120
2,59,60,0
2,59,0,120
2,50,55,0
2,50,0,120
2,43,68,0
2,43,0,49
2,50,58,0
2,50,0,120
2,55,60,0
2,55,0,120
2,57,49,0
2,57,0,120
2,59,58,0
2,59,0,120
2,57,52,0
2,57,0,120
2,55,52,0
2,55,0,120
2,64,60,0
2,64,0,120
2,62,60,0
2,62,0,71
2,60,50,0
2,60,0,120
2,59,45,0
2,59,0,120
2,57,45,0
2,57,0,120
2,55,52,0
2,55,0,120
2,57,42,0
2,57,0,120
2,59,46,0
2,59,0,120
2,50,41,0
2,50,0,120
2,43,46,0
2,43,0,14
2,50,40,0
2,50,0,120
2,55,42,0
2,55,0,120
2,57,38,0
2,57,0,120
2,59,46,0
2,59,0,120
2,57,42,0
2,57,0,120
2,55,44,0
2,55,0,120
2,64,53,0
2,64,0,120
2,62,55,0
2,60,48,105
2,62,0,20
2,59,41,100
2,60,0,20
2,57,42,100
2,59,0,20
2,55,48,100
2,57,0,20
2,57,39,100
2,55,0,20
2,59,41,100
2,57,0,20
2,50,37,100
2,59,0,20
2,45,46,100
2,50,0,20
2,45,0,63
2,52,40,0
2,52,0,120
2,57,42,0
2,57,0,120
2,59,34,0
2,59,0,120
2,61,42,0
2,61,0,120
2,59,39,0
2,59,0,120
2,57,39,0
2,57,0,120
2,66,46,0
2,66,0,120
2,64,46,0
2,64,0,53
2,62,40,0
2,62,0,120
2,61,36,0
2,61,0,120
2,59,37,0
2,59,0,120
2,57,44,0
2,57,0,120
2,59,36,0
2,59,0,120
2,61,40,0
2,61,0,120
2,52,36,0
2,52,0,120
2,38,46,0
2,38,0,32
2,45,40,0
2,45,0,120
2,50,42,0
2,50,0,120
2,52,34,0
2,52,0,120
2,54,42,0
2,52,39,114
2,54,0,20
2,50,39,100
2,52,0,20
2,59,46,100
2,50,0,20
2,57,46,100
2,59,0,20
2,55,40,100
2,57,0,20
2,54,36,100
2,55,0,20
2,52,37,100
2,54,0,20
2,50,44,100
2,52,0,20
2,52,36,100
2,50,0,20
2,54,40,100
2,52,0,20
2,47,36,100
2,54,0,20
2,45,46,100
2,47,0,20
2,45,0,63
2,52,40,0
2,52,0,120
2,57,42,0
2,57,0,120
2,59,34,0
2,59,0,120
2,61,44,0
2,61,0,120
2,59,40,0
2,59,0,120
2,57,41,0
2,57,0,120
2,66,49,0
2,66,0,120
2,64,50,0
2,64,0,60
2,62,44,0
2,62,0,120
2,61,40,0
2,61,0,120
2,59,41,0
2,59,0,120
2,57,50,0
2,57,0,120
2,59,41,0
2,59,0,120
2,61,46,0
2,61,0,120
2,52,42,0
2,52,0,120
2,38,41,0
2,38,0,60
2,45,38,0
2,45,0,120
2,50,38,0
2,50,0,120
2,52,37,0
2,52,0,120
2,54,45,0
2,52,41,105
2,54,0,20
2,50,41,100
2,52,0,20
2,59,41,100
2,50,0,20
2,57,46,100
2,59,0,20
2,55,41,100
2,57,0,20
2,54,37,100
2,55,0,20
2,52,39,100
2,54,0,20
2,50,45,100
2,52,0,20
2,52,36,100
2,50,0,20
2,54,40,100
2,52,0,20
2,45,36,100
2,54,0,20
2,38,46,100
2,45,0,20
2,38,0,71
2,45,40,0
2,45,0,120
2,50,42,0
2,50,0,120
2,52,34,0
2,52,0,120
2,54,42,0
2,54,0,120
2,52,39,0
2,52,0,120
2,50,39,0
2,50,0,120
2,59,46,0
2,59,0,120
2,57,46,0
2,57,0,38
2,55,40,0
2,55,0,120
2,54,36,0
2,54,0,120
2,52,37,0
2,52,0,120
2,50,44,0
2,50,0,120
2,52,36,0
2,52,0,120
2,54,40,0
2,54,0,120
2,45,36,0
2,45,0,120
2,43,52,0
2,43,0,21
2,50,45,0
2,50,0,120
2,55,48,0
2,55,0,120
2,57,40,0
2,57,0,120
2,59,48,0
2,59,0,120
2,57,44,0
2,57,0,120
2,55,44,0
2,55,0,120
2,64,52,0
2,64,0,120
2,62,52,0
2,62,0,71
2,60,45,0
2,60,0,120
2,59,41,0
2,59,0,120
2,57,42,0
2,57,0,120
2,55,49,0
2,55,0,120
2,57,41,0
2,57,0,120
2,59,45,0
2,59,0,120
2,50,41,0
2,50,0,120
2,43,52,0
2,43,0,42
2,50,46,0
2,50,0,120
2,55,50,0
2,55,0,120
2,57,44,0
2,57,0,120
2,59,55,0
2,59,0,120
2,57,53,0
2,57,0,120
2,55,55,0
2,55,0,120
2,64,68,0
2,64,0,120
2,62,70,0
2,62,0,42
2,60,61,0
2,60,0,120
2,59,55,0
2,59,0,120
2,57,56,0
2,57,0,120
2,55,66,0
2,55,0,120
2,57,55,0
2,57,0,120
2,59,60,0
2,59,0,120
2,50,55,0
2,50,0,120
2,43,68,0
2,43,0,49
2,50,58,0
2,50,0,120
2,55,60,0
2,55,0,120
2,57,49,0
2,57,0,120
2,59,58,0
2,59,0,120
2,57,52,0
2,57,0,120
2,55,52,0
2,55,0,120
2,64,60,0
2,64,0,120
2,62,60,0
2,62,0,35
2,60,50,0
2,60,0,120
2,59,45,0
2,59,0,120
2,57,45,0
2,57,0,120
2,55,52,0
2,55,0,120
2,57,42,0
2,57,0,120
2,59,46,0
2,59,0,120
2,50,41,0
2,50,0,120
2,43,46,0
2,43,0,35
2,50,40,0
2,50,0,120
2,55,42,0
2,55,0,120
2,57,38,0
2,57,0,120
2,59,46,0
2,59,0,120
2,57,42,0
2,57,0,120
2,55,44,0
2,55,0,120
2,64,53,0
2,64,0,120
2,62,55,0
2,60,48,105
2,62,0,20
2,59,41,100
2,60,0,20
2,57,42,100
2,59,0,20
2,55,48,100
2,57,0,20
2,57,39,100
2,55,0,20
2,59,41,100
2,57,0,20
2,50,37,100
2,59,0,20
2,43,41,100
2,50,0,20
2,43,0,63
2,50,36,0
2,50,0,120
2,55,38,0
2,55,0,120
2,57,30,0
2,57,0,120
2,59,38,0
2,59,0,120
2,57,34,0
2,57,0,120
2,55,34,0
2,55,0,120
2,64,42,0
2,64,0,120
2,62,42,0
2,62,0,49
2,60,37,0
2,60,0,120
2,59,31,0
2,59,0,120
2,57,34,0
2,57,0,120
2,55,41,0
2,55,0,120
2,57,34,0
2,57,0,120
2,59,38,0
2,59,0,120
2,50,34,0
2,50,0,120
2,43,44,0
2,43,0,63
2,50,39,0
2,50,0,120
2,55,41,0
2,55,0,120
2,57,31,0
2,57,0,120
2,59,41,0
2,59,0,120
2,57,38,0
2,57,0,120
2,55,38,0
2,55,0,85
2,64,42,0
2,64,0,120
2,62,45,0
2,62,0,66
2,60,40,0
2,60,0,120
2,59,37,0
2,59,0,120
2,57,38,0
2,57,0,120
2,55,44,0
2,55,0,120
2,57,38,0
2,57,0,120
2,59,41,0
2,59,0,120
2,43,38,0
2,43,0,120
2,36,44,0
2,36,0,29
2,43,39,0
2,48,46,120
2,43,0,20
2,50,41,100
2,48,0,20
2,52,49,100
2,50,0,8
2,50,45,100
2,52,0,20
2,48,45,100
2,50,0,20
2,57,53,100
2,48,0,20
2,55,53,100
2,57,0,20
2,53,45,100
2,55,0,20
2,52,40,100
2,53,0,20
2,50,41,100
2,52,0,20
2,48,49,100
2,50,0,20
2,50,40,100
2,48,0,20
2,52,44,100
2,50,0,20
2,43,40,100
2,52,0,20
2,36,50,100
2,43,0,20
2,43,44,74
2,36,0,20
2,48,45,100
2,43,0,20
2,50,37,100
2,48,0,20
2,52,45,100
2,50,0,9
2,50,41,100
2,52,0,20
2,48,40,100
2,50,0,20
2,57,49,100
2,48,0,20
2,55,48,100
2,57,0,20
2,53,41,100
2,55,0,20
2,52,37,100
2,53,0,20
2,50,37,100
2,52,0,20
2,48,44,100
2,50,0,20
2,50,36,100
2,48,0,20
2,52,40,100
2,50,0,20
2,43,36,100
2,52,0,20
2,36,46,100
2,43,0,20
2,36,0,63
2,43,40,0
2,43,0,120
2,48,42,0
2,48,0,120
2,50,34,0
2,50,0,120
2,52,42,0
2,52,0,120
2,50,39,0
2,50,0,120
2,48,39,0
2,48,0,120
2,57,48,0
2,57,0,120
2,55,48,0
2,55,0,45
2,53,41,0
2,53,0,120
2,52,37,0
2,52,0,120
2,50,39,0
2,50,0,120
2,48,46,0
2,48,0,120
2,50,39,0
2,50,0,120
2,52,42,0
2,52,0,120
2,43,39,0
2,43,0,120
2,36,50,0
2,36,0,63
2,43,44,0
2,43,0,120
2,48,48,0
2,48,0,120
2,50,40,0
2,50,0,120
2,52,50,0
2,52,0,120
2,50,48,0
2,50,0,120
2,48,49,0
2,48,0,120
2,57,63,0
2,57,0,120
2,55,63,0
2,55,0,23
2,53,52,0
2,53,0,120
2,52,46,0
2,52,0,120
2,50,46,0
2,50,0,120
2,48,55,0
2,48,0,120
2,50,44,0
2,50,0,120
2,52,48,0
2,52,0,120
2,43,42,0
2,43,0,120
2,36,56,0
2,36,0,64
2,43,48,0
2,43,0,120
2,48,50,0
2,48,0,120
2,50,41,0
2,50,0,120
