track,note,velocity,time
0,28,91,386
0,29,89,26
0,28,0,2
0,29,0,26
0,31,69,4
0,31,0,22
0,33,105,6
0,33,0,16
0,35,96,6
0,35,0,14
0,36,97,10
0,36,0,14
0,38,96,4
0,38,0,14
0,40,88,6
0,40,0,14
0,41,79,4
0,41,0,14
0,43,85,2
0,43,0,16
0,45,94,4
0,45,0,14
0,47,89,2
0,47,0,14
0,48,103,6
0,48,0,14
0,50,102,2
0,50,0,16
0,52,100,2
0,52,0,18
0,53,96,0
0,53,0,16
0,55,102,4
0,55,0,14
0,57,107,6
0,57,0,12
0,59,81,10
0,59,0,8
0,35,118,24
0,36,117,0
0,36,111,0
0,42,111,0
0,51,117,0
0,52,126,0
0,60,95,0
0,62,98,0
0,64,105,0
0,64,121,0
0,64,123,0
0,67,110,0
0,76,99,0
0,35,0,4
0,42,0,0
0,51,0,0
0,42,63,188
0,43,125,0
0,55,108,0
0,67,92,0
0,55,116,0
0,42,0,4
0,76,0,12
0,42,122,20
0,48,126,0
0,60,114,0
0,60,123,0
0,72,101,0
0,42,0,4
0,64,0,8
0,64,0,8
0,42,66,172
0,52,122,0
0,64,112,0
0,64,115,0
0,76,100,0
0,42,0,4
0,64,0,138
0,60,0,6
0,64,0,20
0,76,0,0
0,72,0,8
0,36,0,12
0,60,0,0
0,64,0,0
0,67,0,0
0,33,112,4
0,42,74,0
0,45,116,0
0,50,125,0
0,55,99,0
0,59,107,0
0,59,98,0
0,62,92,0
0,67,0,0
0,74,100,0
0,62,124,0
0,36,0,2
0,42,0,2
0,42,56,188
0,55,112,0
0,42,0,4
0,60,0,88
0,62,0,68
0,55,0,14
0,59,0,0
0,55,0,2
0,45,0,2
0,62,0,2
0,55,0,8
0,74,0,0
0,42,118,4
0,45,110,0
0,48,123,0
0,52,102,0
0,57,93,0
0,57,103,0
0,60,80,0
0,60,109,0
0,60,118,0
0,60,104,0
0,64,93,0
0,72,101,0
0,42,0,4
0,59,0,10
0,62,0,8
0,33,0,160
0,31,111,4
0,35,115,0
0,42,70,0
0,67,116,0
0,35,0,4
0,42,0,0
0,60,0,2
0,60,0,74
0,55,0,18
0,45,0,54
0,52,0,0
0,57,0,0
0,60,0,0
0,60,0,8
0,64,0,0
0,31,0,8
0,57,0,0
0,72,0,0
0,29,112,4
0,35,121,0
0,41,123,0
0,42,114,0
0,51,114,0
0,57,122,0
0,60,94,0
0,60,117,0
0,64,96,0
0,64,117,0
0,67,95,0
0,67,111,0
0,76,97,0
0,79,100,0
0,55,127,2
0,35,0,2
0,42,0,0
0,51,0,0
0,67,120,8
0,67,0,170
0,42,65,10
0,55,113,0
0,42,0,4
0,55,0,172
0,42,119,16
0,60,115,0
0,42,0,4
0,60,0,180
0,29,0,4
0,41,89,4
0,42,63,0
0,67,109,0
0,42,0,4
0,42,74,188
0,42,0,4
0,42,60,188
0,42,0,4
0,57,0,26
0,67,0,6
0,60,0,2
0,64,0,2
0,76,0,4
0,41,0,4
0,79,0,6
0,60,0,96
0,64,0,2
0,67,0,0
0,67,0,16
0,67,0,4
0,52,127,2
0,42,118,6
0,60,122,0
0,64,120,0
0,72,119,0
0,76,127,0
0,41,126,2
0,42,0,2
0,64,122,0
0,72,120,4
0,72,124,2
0,76,117,0
0,53,122,10
0,64,0,2
0,65,126,8
0,72,0,1
0,76,0,0
0,72,0,1
0,72,0,0
0,76,0,0
0,77,117,2
0,74,125,2
0,74,117,0
0,77,118,0
0,65,116,2
0,74,121,2
0,41,0,37
0,35,115,1
0,40,101,0
0,42,69,0
0,35,0,4
0,42,0,0
0,74,0,12
0,76,114,0
0,77,0,0
0,74,0,1
0,77,0,0
0,55,126,1
0,74,0,2
0,76,115,0
0,79,118,0
0,76,118,2
0,79,119,0
0,67,115,4
0,65,0,2
0,67,121,0
0,65,0,16
0,40,0,64
0,67,0,14
0,64,0,4
0,76,0,0
0,76,0,2
0,76,0,0
0,79,0,0
0,79,0,0
0,41,0,2
0,60,0,0
0,35,118,2
0,40,106,0
0,40,124,0
0,42,111,0
0,51,116,0
0,55,114,0
0,59,120,0
0,62,116,0
0,62,121,0
0,64,92,0
0,67,83,0
0,71,106,0
0,71,96,0
0,74,101,0
0,74,104,0
0,35,0,4
0,42,0,0
0,51,0,0
0,50,125,8
0,67,0,0
0,42,61,180
0,42,0,4
0,42,121,188
0,42,0,4
0,67,117,0
0,62,0,12
0,55,116,170
0,42,64,6
0,42,0,4
0,40,0,90
0,35,106,2
0,35,0,92
0,28,107,4
0,42,76,0
0,42,0,4
0,42,55,188
0,42,0,4
0,71,0,46
0,55,0,4
0,74,0,4
0,59,0,10
0,64,0,24
0,67,0,2
0,62,0,8
0,67,0,8
0,55,0,6
0,71,0,52
0,74,0,6
0,28,0,14
0,40,100,4
0,42,121,0
0,64,120,0
0,72,122,0
0,72,120,0
0,76,122,0
0,42,0,2
0,76,123,2
0,52,125,2
0,72,119,0
0,64,126,4
0,64,0,118
0,65,119,6
0,72,0,2
0,64,0,0
0,72,0,3
0,76,0,0
0,53,120,1
0,74,122,0
0,77,122,2
0,74,122,2
0,65,123,6
0,72,0,6
0,76,0,0
0,74,119,4
0,77,121,4
0,35,113,24
0,42,69,0
0,35,0,4
0,42,0,0
0,65,0,60
0,55,122,6
0,65,0,0
0,67,124,6
0,74,0,1
0,77,0,0
0,67,118,1
0,76,117,0
0,79,103,2
0,74,0,2
0,74,0,6
0,76,113,0
0,77,0,0
0,76,110,4
0,79,118,2
0,76,0,86
0,40,0,6
0,67,0,2
0,76,0,0
0,76,0,0
0,79,0,0
0,79,0,0
0,40,0,3
0,35,116,1
0,38,116,0
0,38,122,0
0,42,111,0
0,51,114,0
0,53,113,0
0,57,119,0
0,60,110,0
0,60,126,0
0,62,85,0
0,65,98,0
0,69,106,0
0,69,112,0
0,72,98,0
0,72,112,0
0,35,0,4
0,42,0,0
0,51,0,0
0,48,124,2
0,67,0,0
0,38,0,185
0,26,105,1
0,42,63,0
0,42,0,4
0,42,123,188
0,42,0,4
0,42,62,188
0,42,0,4
0,69,0,56
0,72,0,6
0,60,0,52
0,65,0,6
0,62,0,10
0,26,0,2
0,38,0,36
0,53,0,0
0,57,0,0
0,60,0,0
0,69,0,16
0,72,0,0
0,41,103,4
0,41,98,0
0,42,75,0
0,53,92,0
0,56,100,0
0,60,94,0
0,63,99,0
0,65,87,0
0,68,93,0
0,75,104,0
0,42,0,4
0,42,55,188
0,42,0,4
0,41,0,174
0,53,0,0
0,56,0,0
0,60,0,0
0,63,0,0
0,65,0,10
0,68,0,0
0,75,0,0
0,41,0,3
0,42,86,1
0,43,106,0
0,71,85,0
0,74,90,0
0,42,0,4
0,59,88,2
0,62,106,0
0,53,82,2
0,43,91,4
0,42,105,84
0,43,0,2
0,42,0,2
0,31,109,92
0,46,88,0
0,46,0,4
0,71,0,160
0,74,0,4
0,43,0,4
0,53,0,0
0,59,0,0
0,62,0,0
0,31,0,19
0,35,107,1
0,36,106,0
0,36,114,0
0,42,112,0
0,48,87,0
0,48,105,0
0,55,112,0
0,60,109,0
0,64,103,0
0,35,0,4
0,42,0,0
0,64,114,0
0,64,0,46
0,62,105,22
0,62,0,88
0,42,68,2
0,55,107,0
0,55,77,0
0,42,0,4
0,60,107,12
0,48,0,22
0,37,123,154
0,42,121,0
0,48,105,0
0,60,117,0
0,60,102,0
0,37,0,4
0,42,0,0
0,55,0,0
0,55,0,44
0,35,91,6
0,42,86,0
0,55,99,0
0,55,118,0
0,64,105,0
0,35,0,4
0,42,0,0
0,48,0,10
0,60,0,4
0,55,0,20
0,60,0,52
0,64,0,0
0,36,0,6
0,55,0,2
0,64,0,0
0,48,0,8
0,36,0,16
0,33,105,12
0,35,110,0
0,42,119,0
0,45,116,0
0,45,101,0
0,48,69,0
0,55,106,0
0,55,0,0
0,59,107,0
0,62,103,0
0,60,0,2
0,35,0,2
0,42,0,0
0,60,0,2
0,59,104,10
0,42,88,174
0,55,108,0
0,55,106,0
0,59,0,2
0,42,0,2
0,48,0,8
0,62,113,4
0,55,0,74
0,45,0,10
0,59,0,14
0,62,0,0
0,62,0,14
0,37,108,6
0,42,116,0
0,45,92,0
0,57,96,0
0,59,90,0
0,60,100,0
0,60,121,0
0,64,102,0
0,37,0,4
0,42,0,0
0,55,0,6
0,60,112,2
0,59,0,170
0,42,92,10
0,55,116,0
0,60,93,0
0,60,0,2
0,42,0,2
0,60,0,2
0,57,113,14
0,33,0,18
0,45,0,10
0,33,91,48
0,60,0,28
0,55,0,6
0,64,0,0
0,57,0,6
0,55,0,24
0,57,0,16
0,35,111,16
0,38,114,0
0,42,112,0
0,45,0,0
0,50,91,0
0,50,97,0
0,57,105,0
0,60,109,0
0,65,103,0
0,65,113,2
0,33,0,2
0,35,0,0
0,42,0,0
0,38,104,6
0,60,0,2
0,42,71,132
0,57,110,0
0,57,92,0
0,42,0,4
0,50,0,0
0,57,0,186
0,37,118,2
0,42,121,0
0,60,110,0
0,62,108,0
0,37,0,4
0,42,0,0
0,57,0,30
0,57,61,62
0,60,0,26
0,38,0,46
0,35,94,16
0,42,93,0
0,57,118,0
0,60,89,0
0,65,104,0
0,35,0,4
0,42,0,0
0,60,0,6
0,50,0,6
0,33,107,2
0,33,0,12
0,32,113,6
0,65,0,10
0,57,0,14
0,57,0,4
0,60,0,2
0,32,0,4
0,31,110,16
0,35,109,0
0,42,118,0
0,43,107,0
0,43,101,0
0,43,116,0
0,53,101,0
0,59,103,0
0,64,97,0
0,65,0,2
0,35,0,2
0,42,0,0
0,57,0,12
0,64,116,0
0,65,0,0
0,38,0,4
0,62,0,0
0,42,84,2
0,53,88,0
0,55,119,0
0,42,0,4
0,43,0,0
0,64,0,4
0,67,115,4
0,53,0,76
0,43,0,6
0,64,0,6
0,31,0,4
0,67,0,30
0,31,105,6
0,37,106,0
0,42,114,0
0,43,106,0
0,53,95,0
0,59,124,0
0,59,108,0
0,62,99,0
0,55,0,2
0,37,0,2
0,42,0,0
0,65,114,10
0,42,95,178
0,55,114,0
0,62,93,0
0,65,0,2
0,42,0,2
0,59,0,2
0,62,118,4
0,59,0,94
0,55,0,8
0,53,0,4
0,62,0,10
0,43,0,4
0,59,0,8
0,62,0,2
0,53,0,2
0,31,0,6
0,43,0,2
0,62,0,8
0,35,105,6
0,36,106,0
0,42,112,0
0,48,113,0
0,55,103,0
0,60,114,0
0,72,111,0
0,35,0,4
0,42,0,0
0,42,68,132
0,55,92,0
0,55,111,0
0,42,0,4
0,60,0,140
0,37,124,48
0,42,121,0
0,60,103,0
0,60,119,0
0,37,0,4
0,42,0,0
0,35,92,60
0,42,86,0
0,64,114,0
0,64,109,0
0,35,0,0
0,42,0,0
0,55,0,54
0,36,0,86
0,72,0,10
0,35,116,4
0,36,112,0
0,42,114,0
0,56,108,0
0,56,108,0
0,76,116,4
0,35,0,0
0,42,0,0
0,55,0,0
0,48,0,70
0,42,87,74
0,48,108,0
0,56,115,0
0,42,0,4
0,55,0,10
0,60,0,22
0,60,0,6
0,37,106,150
0,42,114,0
0,60,98,0
0,60,115,0
0,37,0,4
0,42,0,0
0,64,0,0
0,64,0,4
0,36,0,28
0,28,108,8
0,42,90,0
0,55,121,0
0,64,106,0
0,64,110,0
0,67,122,0
0,42,0,4
0,56,0,12
0,76,0,13
0,74,113,1
0,48,0,2
0,60,0,2
0,64,0,6
0,56,0,50
0,28,0,4
0,55,0,6
0,67,0,0
0,29,114,4
0,35,111,0
0,41,118,0
0,42,111,0
0,57,127,0
0,57,113,0
0,57,116,0
0,60,117,0
0,64,115,0
0,69,126,0
0,35,0,4
0,42,0,0
0,74,0,6
0,76,113,6
0,76,0,82
0,74,109,6
0,56,0,64
0,60,0,0
0,74,0,16
0,57,0,4
0,69,0,0
0,42,70,4
0,57,109,0
0,59,124,0
0,71,120,0
0,42,0,4
0,72,112,2
0,64,0,162
0,59,0,20
0,71,0,0
0,37,118,4
0,42,121,0
0,60,127,0
0,60,113,0
0,72,127,0
0,37,0,4
0,42,0,0
0,29,0,64
0,60,0,30
0,72,0,0
0,29,114,4
0,35,93,0
0,42,94,0
0,64,127,0
0,64,106,0
0,76,124,0
0,35,0,2
0,42,0,0
0,72,0,40
0,64,0,26
0,57,0,8
0,60,0,0
0,41,0,6
0,57,0,0
0,60,0,0
0,64,0,0
0,57,0,2
0,64,0,14
0,76,0,0
0,29,0,2
0,30,108,2
0,35,113,0
0,42,113,0
0,42,117,0
0,54,102,0
0,57,104,0
0,60,84,0
0,62,113,0
0,62,109,0
0,66,115,0
0,66,105,0
0,72,104,0
0,74,108,0
0,35,0,4
0,42,0,0
0,74,117,2
0,74,0,172
0,42,83,14
0,60,99,0
0,42,0,4
0,72,108,0
0,57,0,128
0,72,0,2
0,68,113,2
0,37,113,2
0,42,117,0
0,57,83,0
0,37,0,4
0,42,0,0
0,30,0,74
0,68,0,50
0,69,110,6
0,30,96,2
0,42,90,0
0,42,0,4
0,60,0,130
0,66,0,4
0,57,0,2
0,42,0,32
0,54,0,0
0,60,0,0
0,62,0,0
0,69,0,10
0,30,0,6
0,62,0,0
0,66,0,0
0,72,0,0
0,74,0,0
0,31,116,4
0,35,109,0
0,42,113,0
0,43,117,0
0,55,115,0
0,55,110,0
0,55,92,0
0,60,105,0
0,60,111,0
0,64,109,0
0,67,114,0
0,35,0,4
0,42,0,0
0,71,100,6
0,42,69,182
0,60,81,0
0,42,0,4
0,37,124,188
0,42,117,0
0,64,104,0
0,37,0,4
0,42,0,0
0,60,0,56
0,31,0,12
0,31,110,14
0,35,89,0
0,42,92,0
0,60,68,0
0,35,0,4
0,42,0,0
0,55,0,32
0,60,0,14
0,64,0,4
0,71,0,0
0,43,0,20
0,55,0,0
0,60,0,0
0,64,0,0
0,60,0,16
0,69,118,2
0,31,0,1
0,33,103,1
0,35,114,0
0,42,119,0
0,45,115,0
0,55,95,0
0,55,79,0
0,59,82,0
0,59,96,0
0,62,109,0
0,62,94,0
0,35,0,4
0,42,0,0
0,69,0,5
0,69,118,1
0,69,0,164
0,42,86,18
0,62,98,0
0,42,0,4
0,67,109,2
0,67,0,148
0,55,0,2
0,62,0,6
0,57,112,4
0,45,0,2
0,55,0,0
0,59,0,0
0,62,0,0
0,37,112,2
0,42,118,0
0,45,107,0
0,52,87,0
0,57,97,0
0,57,95,0
0,60,100,0
0,60,96,0
0,37,0,4
0,42,0,0
0,59,0,0
0,33,0,106
0,57,0,26
0,33,107,12
0,42,95,0
0,42,0,4
0,60,113,2
0,57,0,170
0,45,0,4
0,52,0,0
0,57,0,0
0,60,0,0
0,60,0,4
0,33,0,4
0,60,0,2
0,35,110,2
0,38,109,0
0,38,112,0
0,42,111,0
0,53,105,0
0,53,86,0
0,55,103,0
0,60,106,0
0,60,104,0
0,62,108,0
0,35,0,4
0,42,0,0
0,67,113,2
0,42,75,186
0,57,78,0
0,42,0,4
0,37,118,188
0,42,115,0
0,62,92,0
0,37,0,4
0,42,0,0
0,53,0,144
0,35,88,44
0,42,93,0
0,53,68,0
0,35,0,2
0,42,0,0
0,38,0,21
0,43,70,1
0,67,0,16
0,43,0,18
0,53,0,2
0,38,0,44
0,53,0,0
0,55,0,0
0,60,0,0
0,62,0,0
0,60,0,8
0,35,113,4
0,42,116,0
0,43,109,0
0,43,111,0
0,53,104,0
0,55,87,0
0,59,84,0
0,59,105,0
0,62,106,0
0,69,114,0
0,35,0,4
0,42,0,0
0,57,0,10
0,62,0,158
0,69,0,10
0,42,86,10
0,62,84,0
0,42,0,4
0,67,112,6
0,43,0,85
0,31,103,1
0,31,0,28
0,67,0,38
0,55,115,26
0,31,121,4
0,37,108,0
0,42,117,0
0,37,0,4
0,42,0,0
0,55,0,178
0,42,93,10
0,50,82,0
0,42,0,4
0,57,113,2
0,50,0,130
0,55,0,20
0,43,0,24
0,53,0,0
0,59,0,0
0,62,0,0
0,62,0,2
0,57,0,2
0,62,0,0
0,55,0,2
