track,note,velocity,time
4,48,114,8920
4,48,0,210
4,43,112,270
4,43,0,245
4,40,110,235
4,40,0,210
4,36,112,270
4,36,0,305
4,41,108,175
4,41,0,220
4,36,116,260
4,36,0,235
4,41,112,245
4,41,0,240
4,36,114,240
4,36,0,220
4,40,114,260
4,40,0,220
4,44,108,260
4,44,0,210
4,47,104,270
4,47,0,235
4,40,110,245
4,40,0,325
4,33,116,155
4,33,0,205
4,33,114,275
4,33,0,245
4,33,116,235
4,33,0,260
4,33,114,220
4,33,0,285
4,38,118,195
4,38,0,305
4,42,112,495
4,42,0,100
4,45,108,60
4,45,0,295
4,33,104,185
4,33,0,250
4,33,112,230
4,33,0,360
4,37,114,440
4,37,0,90
4,40,110,70
4,40,0,265
4,28,112,215
4,28,0,240
4,33,110,240
4,33,0,395
4,37,110,405
4,37,0,100
4,40,104,60
4,40,0,325
4,33,112,155
4,33,0,235
4,38,112,245
4,38,0,395
4,42,114,405
4,42,0,105
4,45,108,55
4,45,0,250
4,33,112,230
4,33,0,200
4,38,110,280
4,38,0,270
4,43,104,3570
4,43,0,295
4,40,112,185
4,40,0,260
4,38,114,220
4,38,0,235
4,35,110,245
4,35,0,345
4,31,114,135
4,31,0,275
4,34,106,205
4,34,0,200
4,38,104,280
4,38,0,285
4,40,102,195
4,40,0,250
4,45,110,230
4,45,0,250
4,45,112,550
4,45,0,90
4,45,110,70
4,45,0,250
4,33,106,230
4,33,0,305
4,33,116,175
4,33,0,435
4,37,114,365
4,37,0,100
4,40,112,60
4,40,0,300
4,40,114,180
4,40,0,270
4,38,116,210
4,38,0,250
4,38,114,710
4,38,0,285
4,33,108,675
4,33,0,275
4,33,108,85
4,33,0,55
4,33,112,65
4,33,0,325
4,33,114,155
4,33,0,225
4,33,110,135
4,33,0,55
4,33,112,65
4,33,0,165
4,33,110,75
4,33,0,105
4,38,116,135
4,38,0,335
4,45,116,385
4,45,0,105
4,38,114,135
4,38,0,405
4,45,120,75
4,45,0,320
4,40,112,160
4,40,0,340
4,45,112,380
4,45,0,95
4,40,116,145
4,40,0,415
4,45,116,65
4,45,0,215
4,40,114,265
4,40,0,380
4,45,112,340
4,45,0,115
4,40,114,125
4,40,0,445
4,45,114,35
4,45,0,275
4,38,116,205
4,38,0,335
4,45,114,385
4,45,0,175
4,38,112,65
4,38,0,405
4,45,112,75
4,45,0,235
4,33,116,245
4,33,0,405
4,38,116,315
4,38,0,430
4,38,110,50
4,38,0,290
4,38,106,190
4,38,0,35
4,45,114,205
4,45,0,555
4,38,104,165
4,38,0,55
4,38,116,185
4,38,0,400
4,38,92,80
4,38,0,285
4,43,116,195
4,43,0,530
4,38,114,190
4,38,0,530
4,38,114,190
4,38,0,305
4,43,118,175
4,43,0,505
4,38,116,215
4,38,0,505
4,38,114,215
4,38,0,315
4,38,112,165
4,38,0,530
4,45,114,190
4,45,0,215
4,33,114,25
4,33,0,240
4,45,114,240
4,45,0,280
4,33,112,200
4,33,0,460
4,45,114,260
4,45,0,145
4,33,118,95
4,33,0,365
4,33,110,115
4,33,0,285
4,38,116,195
4,38,0,980
4,38,114,220
4,38,0,155
4,38,116,85
4,38,0,125
4,38,114,115
4,38,0,110
4,38,116,130
4,38,0,525
4,45,94,435
4,45,0,210
4,43,94,30
4,43,0,230
4,41,90,10
4,41,0,230
4,40,100,10
4,40,0,175
4,48,114,8225
4,48,0,210
4,43,112,270
4,43,0,245
4,40,110,235
4,40,0,210
4,36,112,270
4,36,0,305
4,41,108,175
4,41,0,220
4,36,116,260
4,36,0,235
4,41,112,245
4,41,0,240
4,36,114,240
4,36,0,220
4,40,114,260
4,40,0,220
4,44,108,260
4,44,0,210
4,47,104,270
4,47,0,235
4,40,110,245
4,40,0,325
4,33,116,155
4,33,0,205
4,33,114,275
4,33,0,245
4,33,116,235
4,33,0,260
4,33,114,220
4,33,0,285
4,38,118,195
4,38,0,305
4,42,112,495
4,42,0,100
4,45,108,60
4,45,0,295
4,33,104,185
4,33,0,250
4,33,112,230
4,33,0,360
4,37,114,440
4,37,0,90
4,40,110,70
4,40,0,265
4,28,112,215
4,28,0,240
4,33,110,240
4,33,0,395
4,37,110,405
4,37,0,100
4,40,104,60
4,40,0,325
4,33,112,155
4,33,0,235
4,38,112,245
4,38,0,395
4,42,114,405
4,42,0,105
4,45,108,55
4,45,0,250
4,33,112,230
4,33,0,200
4,38,110,280
4,38,0,270
4,43,104,3570
4,43,0,295
4,40,112,185
4,40,0,260
4,38,114,220
4,38,0,235
4,35,110,245
4,35,0,345
4,31,114,135
4,31,0,275
4,34,106,205
4,34,0,200
4,38,104,280
4,38,0,285
4,40,102,195
4,40,0,250
4,45,110,230
4,45,0,250
4,45,112,550
4,45,0,90
4,45,110,70
4,45,0,250
4,33,106,230
4,33,0,305
4,33,116,175
4,33,0,435
4,37,114,365
4,37,0,100
4,40,112,60
4,40,0,300
4,40,114,180
4,40,0,270
4,38,116,210
4,38,0,250
4,38,114,710
4,38,0,285
4,34,110,675
4,34,0,365
4,34,110,115
4,34,0,365
4,34,114,115
4,34,0,400
4,34,112,80
4,34,0,255
4,39,110,225
4,39,0,200
4,39,112,280
4,39,0,210
4,39,114,270
4,39,0,205
4,39,114,275
4,39,0,130
4,34,110,110
4,34,0,230
4,46,112,10
4,46,0,140
4,46,108,340
4,46,0,175
4,46,106,305
4,46,0,195
4,46,114,285
4,46,0,185
4,41,108,55
4,41,0,230
4,46,112,10
4,46,0,145
4,46,112,335
4,46,0,150
4,46,110,330
4,46,0,220
4,46,112,260
4,46,0,170
4,41,110,70
4,41,0,230
4,39,112,10
4,39,0,255
4,39,112,225
4,39,0,255
4,39,110,225
4,39,0,240
4,39,112,240
4,39,0,230
4,34,108,10
4,34,0,230
4,39,110,10
4,39,0,270
4,44,104,3570
4,44,0,295
4,41,112,185
4,41,0,260
4,39,114,220
4,39,0,235
4,36,110,245
4,36,0,345
4,32,114,135
4,32,0,275
4,35,106,205
4,35,0,200
4,39,104,280
4,39,0,285
4,41,102,195
4,41,0,250
4,46,110,230
4,46,0,250
4,46,112,550
4,46,0,90
4,46,110,70
4,46,0,250
4,34,106,230
4,34,0,305
4,34,116,175
4,34,0,435
4,38,114,365
4,38,0,100
4,41,112,60
4,41,0,300
4,41,114,180
4,41,0,270
4,34,114,450
4,34,0,30
4,34,116,90
4,34,0,50
4,34,114,70
4,34,0,85
4,34,118,155
4,34,0,100
4,34,116,140
4,34,0,180
4,34,108,60
4,34,0,115
4,34,114,125
4,34,0,105
4,34,112,135
4,34,0,100
4,39,112,140
4,39,0,165
5,64,110,8920
5,67,106,0
5,70,108,0
5,67,0,40
5,64,0,5
5,70,0,5
5,64,104,430
5,67,104,0
5,70,100,0
5,67,0,45
5,70,0,10
5,64,0,0
5,64,108,425
5,67,112,0
5,70,108,0
5,64,0,40
5,70,0,5
5,67,0,0
5,64,64,435
5,67,90,0
5,70,94,0
5,70,0,30
5,67,0,0
5,64,0,0
5,64,114,210
5,67,118,0
5,70,114,0
5,70,0,175
5,67,0,5
5,64,0,0
5,60,106,60
5,65,96,0
5,69,92,0
5,65,0,55
5,60,0,10
5,69,0,15
5,60,104,400
5,65,106,0
5,69,102,0
5,65,0,60
5,60,0,0
5,69,0,5
5,60,102,415
5,65,104,0
5,69,98,0
5,65,0,40
5,60,0,5
5,69,0,5
5,60,106,430
5,65,112,0
5,69,106,0
5,65,0,40
5,60,0,0
5,69,0,5
5,60,116,195
5,65,116,0
5,69,116,0
5,69,0,135
5,65,0,5
5,60,0,25
5,62,110,75
5,64,106,0
5,68,114,0
5,71,114,0
5,68,0,45
5,62,0,0
5,64,0,0
5,71,0,5
5,62,106,430
5,64,104,0
5,68,106,0
5,71,108,0
5,62,0,30
5,68,0,5
5,64,0,5
5,71,0,0
5,62,106,440
5,64,104,0
5,68,106,0
5,71,110,0
5,62,0,30
5,68,0,5
5,64,0,5
5,71,0,15
5,62,102,425
5,64,98,0
5,68,104,0
5,71,102,0
5,68,0,30
5,62,0,0
5,64,0,5
5,71,0,0
5,62,114,205
5,64,112,0
5,68,118,0
5,71,114,0
5,62,0,185
5,64,0,5
5,68,0,10
5,71,0,10
5,61,116,30
5,64,116,0
5,69,112,0
5,69,0,45
5,64,0,5
5,61,0,0
5,61,112,430
5,64,114,0
5,69,116,0
5,69,0,45
5,64,0,0
5,61,0,5
5,61,102,430
5,64,110,0
5,69,110,0
5,69,0,45
5,64,0,5
5,61,0,0
5,61,100,430
5,64,104,0
5,69,108,0
5,61,0,35
5,69,0,5
5,64,0,0
5,61,110,200
5,64,114,0
5,69,112,0
5,69,0,150
5,64,0,0
5,61,0,0
5,62,106,90
5,66,106,0
5,69,114,0
5,74,104,0
5,74,0,35
5,62,0,10
5,66,0,0
5,69,0,10
5,62,108,745
5,66,100,0
5,69,112,0
5,74,110,0
5,66,0,35
5,62,0,5
5,74,0,0
5,69,0,5
5,62,110,115
5,66,106,0
5,69,112,0
5,74,102,0
5,74,0,35
5,66,0,10
5,69,0,5
5,62,0,5
5,62,118,425
5,66,114,0
5,69,112,0
5,74,112,0
5,66,0,45
5,62,0,5
5,69,0,0
5,74,0,20
5,64,112,410
5,67,114,0
5,73,108,0
5,73,0,45
5,67,0,10
5,64,0,5
5,64,112,740
5,67,112,0
5,73,110,0
5,73,0,45
5,67,0,10
5,64,0,0
5,64,114,105
5,67,116,0
5,73,110,0
5,73,0,60
5,67,0,0
5,64,0,0
5,64,114,420
5,67,112,0
5,73,110,0
5,67,0,55
5,73,0,5
5,64,0,5
5,64,112,415
5,67,116,0
5,73,112,0
5,67,0,60
5,64,0,5
5,73,0,5
5,64,114,730
5,67,116,0
5,73,112,0
5,73,0,50
5,67,0,0
5,64,0,5
5,64,112,105
5,67,116,0
5,73,110,0
5,73,0,70
5,67,0,0
5,64,0,0
5,64,114,410
5,67,102,0
5,73,114,0
5,67,0,35
5,73,0,45
5,64,0,0
5,62,110,400
5,66,108,0
5,69,114,0
5,74,94,0
5,74,0,30
5,62,0,30
5,66,0,0
5,69,0,10
5,62,108,730
5,66,104,0
5,69,112,0
5,74,84,0
5,74,0,30
5,66,0,10
5,69,0,5
5,62,0,5
5,62,114,110
5,66,114,0
5,69,116,0
5,74,112,0
5,66,0,60
5,62,0,5
5,69,0,0
5,74,0,0
5,62,114,415
5,66,108,0
5,69,112,0
5,74,108,0
5,69,0,55
5,66,0,0
5,74,0,5
5,62,0,5
5,62,104,415
5,66,108,0
5,69,110,0
5,74,114,0
5,74,0,65
5,62,0,0
5,66,0,5
5,69,0,15
5,72,122,395
5,76,114,0
5,76,0,450
5,72,0,0
5,71,112,30
5,74,106,0
5,74,0,450
5,71,0,0
5,69,114,30
5,72,112,0
5,72,0,450
5,69,0,0
5,66,110,30
5,69,94,0
5,69,0,450
5,66,0,0
5,62,112,30
5,66,106,0
5,66,0,450
5,62,0,0
5,60,104,30
5,64,106,0
5,64,0,450
5,60,0,0
5,59,102,30
5,62,102,0
5,59,0,415
5,62,0,5
5,67,102,60
5,71,102,0
5,71,0,1375
5,67,0,10
5,71,92,55
5,74,100,0
5,74,0,430
5,71,0,0
5,74,92,60
5,70,86,10
5,70,0,1335
5,74,0,5
5,45,108,560
5,57,110,0
5,62,114,0
5,66,104,0
5,57,0,210
5,66,0,5
5,62,0,10
5,45,0,15
5,45,116,560
5,57,114,0
5,62,118,0
5,66,112,0
5,62,0,60
5,66,0,5
5,57,0,10
5,45,0,15
5,45,112,70
5,57,104,0
5,62,106,0
5,66,108,0
5,62,0,145
5,57,0,0
5,66,0,10
5,45,0,35
5,45,114,290
5,57,106,0
5,62,110,0
5,66,104,0
5,62,0,190
5,57,0,0
5,66,0,5
5,45,0,10
5,45,106,275
5,57,102,0
5,61,100,0
5,64,104,0
5,69,104,0
5,61,0,85
5,69,0,5
5,64,0,10
5,57,0,5
5,45,0,65
5,45,112,630
5,57,106,0
5,61,102,0
5,64,102,0
5,69,100,0
5,69,0,50
5,61,0,5
5,57,0,5
5,64,0,5
5,45,0,15
5,45,108,80
5,57,106,0
5,61,106,0
5,64,108,0
5,69,112,0
5,61,0,215
5,57,0,10
5,69,0,5
5,64,0,5
5,45,0,0
5,45,108,245
5,57,108,0
5,61,110,0
5,64,110,0
5,69,112,0
5,61,0,160
5,57,0,5
5,69,0,5
5,64,0,0
5,45,0,5
5,69,110,305
5,74,114,0
5,78,104,0
5,78,0,65
5,74,0,0
5,69,0,5
5,74,102,415
5,78,102,10
5,78,0,215
5,74,0,0
5,76,100,10
5,79,86,0
5,79,0,250
5,76,0,10
5,78,100,10
5,81,108,0
5,78,0,375
5,81,0,15
5,79,88,35
5,83,106,20
5,79,0,190
5,83,0,20
5,81,104,40
5,85,100,5
5,85,0,150
5,81,0,5
5,81,90,75
5,85,90,0
5,81,0,950
5,82,90,10
5,85,0,695
5,82,0,10
5,64,110,31455
5,67,106,0
5,70,108,0
5,67,0,40
5,64,0,5
5,70,0,5
5,64,104,430
5,67,104,0
5,70,100,0
5,67,0,45
5,70,0,10
5,64,0,0
5,64,108,425
5,67,112,0
5,70,108,0
5,64,0,40
5,70,0,5
5,67,0,0
5,64,64,435
5,67,90,0
5,70,94,0
5,70,0,30
5,67,0,0
5,64,0,0
5,64,114,210
5,67,118,0
5,70,114,0
5,70,0,175
5,67,0,5
5,64,0,0
5,60,106,60
5,65,96,0
5,69,92,0
5,65,0,55
5,60,0,10
5,69,0,15
5,60,104,400
5,65,106,0
5,69,102,0
5,65,0,60
5,60,0,0
5,69,0,5
5,60,102,415
5,65,104,0
5,69,98,0
5,65,0,40
5,60,0,5
5,69,0,5
5,60,106,430
5,65,112,0
5,69,106,0
5,65,0,40
5,60,0,0
5,69,0,5
5,60,116,195
5,65,116,0
5,69,116,0
5,69,0,135
5,65,0,5
5,60,0,25
5,62,110,75
5,64,106,0
5,68,114,0
5,71,114,0
5,68,0,45
5,62,0,0
5,64,0,0
5,71,0,5
5,62,106,430
5,64,104,0
5,68,106,0
5,71,108,0
5,62,0,30
5,68,0,5
5,64,0,5
5,71,0,0
5,62,106,440
5,64,104,0
5,68,106,0
5,71,110,0
5,62,0,30
5,68,0,5
5,64,0,5
5,71,0,15
5,62,102,425
5,64,98,0
5,68,104,0
5,71,102,0
5,68,0,30
5,62,0,0
5,64,0,5
5,71,0,0
5,62,114,205
5,64,112,0
5,68,118,0
5,71,114,0
5,62,0,185
5,64,0,5
5,68,0,10
5,71,0,10
5,61,116,30
5,64,116,0
5,69,112,0
5,69,0,45
5,64,0,5
5,61,0,0
5,61,112,430
5,64,114,0
5,69,116,0
5,69,0,45
5,64,0,0
5,61,0,5
5,61,102,430
5,64,110,0
5,69,110,0
5,69,0,45
5,64,0,5
5,61,0,0
5,61,100,430
5,64,104,0
5,69,108,0
5,61,0,35
5,69,0,5
5,64,0,0
5,61,110,200
5,64,114,0
5,69,112,0
5,69,0,150
5,64,0,0
5,61,0,0
5,62,106,90
5,66,106,0
5,69,114,0
5,74,104,0
5,74,0,35
5,62,0,10
5,66,0,0
5,69,0,10
5,62,108,745
5,66,100,0
5,69,112,0
5,74,110,0
5,66,0,35
5,62,0,5
5,74,0,0
5,69,0,5
5,62,110,115
5,66,106,0
5,69,112,0
5,74,102,0
5,74,0,35
5,66,0,10
5,69,0,5
5,62,0,5
5,62,118,425
5,66,114,0
5,69,112,0
5,74,112,0
5,66,0,45
5,62,0,5
5,69,0,0
5,74,0,20
5,64,112,410
5,67,114,0
5,73,108,0
5,73,0,45
5,67,0,10
5,64,0,5
5,64,112,740
5,67,112,0
5,73,110,0
5,73,0,45
5,67,0,10
5,64,0,0
5,64,114,105
5,67,116,0
5,73,110,0
5,73,0,60
5,67,0,0
5,64,0,0
5,64,114,420
5,67,112,0
5,73,110,0
5,67,0,55
5,73,0,5
5,64,0,5
5,64,112,415
5,67,116,0
5,73,112,0
5,67,0,60
5,64,0,5
5,73,0,5
5,64,114,730
5,67,116,0
