track,note,velocity,time
0,75,96,410
0,75,0,46
0,82,101,2
0,39,106,288
0,58,94,32
0,63,111,0
0,66,98,0
0,43,106,0
0,43,0,4
0,66,0,13
0,58,0,5
0,63,0,2
0,39,103,8
0,51,103,0
0,41,95,0
0,41,0,4
0,82,0,26
0,27,100,2
0,58,93,0
0,63,112,0
0,66,96,0
0,49,94,2
0,35,115,4
0,49,0,0
0,35,0,4
0,80,113,86
0,80,0,34
0,46,48,28
0,46,0,4
0,51,50,2
0,51,0,4
0,39,0,8
0,51,0,0
0,82,110,16
0,39,78,0
0,58,0,0
0,59,46,18
0,59,0,4
0,58,63,2
0,82,0,13
0,51,47,1
0,51,0,4
0,51,86,5
0,39,0,2
0,39,71,22
0,58,0,12
0,51,0,11
0,83,106,1
0,58,72,0
0,51,47,12
0,51,0,4
0,51,73,8
0,39,0,2
0,83,0,13
0,66,0,4
0,63,0,4
0,39,86,1
0,58,0,0
0,66,57,16
0,51,0,3
0,58,67,5
0,59,42,0
0,59,0,4
0,51,49,8
0,51,0,4
0,85,96,8
0,51,72,0
0,63,79,0
0,39,0,2
0,39,83,22
0,46,71,2
0,58,0,4
0,46,0,0
0,63,0,11
0,51,0,3
0,85,0,2
0,83,107,2
0,58,83,0
0,59,54,4
0,59,0,4
0,51,46,14
0,51,72,2
0,63,84,0
0,39,0,2
0,51,0,0
0,58,0,16
0,83,0,4
0,82,108,2
0,39,92,0
0,46,56,0
0,46,0,4
0,51,0,16
0,58,77,4
0,51,66,6
0,51,0,4
0,59,61,2
0,59,0,4
0,82,0,6
0,80,106,2
0,51,73,0
0,39,0,2
0,58,0,12
0,39,88,10
0,46,52,0
0,63,0,1
0,46,0,3
0,51,0,16
0,80,0,2
0,83,106,2
0,58,83,0
0,63,80,0
0,51,50,2
0,51,0,4
0,59,55,8
0,59,0,4
0,51,74,6
0,39,0,2
0,46,64,14
0,58,0,1
0,46,0,3
0,83,0,2
0,82,107,2
0,39,96,0
0,51,0,16
0,58,57,8
0,82,0,22
0,59,45,0
0,80,91,2
0,51,74,0
0,39,0,2
0,59,0,0
0,46,46,4
0,46,0,4
0,63,0,6
0,58,0,3
0,39,91,5
0,51,51,18
0,51,0,1
0,80,0,3
0,51,0,0
0,78,99,2
0,58,85,0
0,51,87,24
0,39,0,2
0,59,60,6
0,46,72,2
0,59,0,2
0,46,0,2
0,78,0,8
0,58,0,0
0,82,102,2
0,39,95,0
0,63,50,0
0,51,0,20
0,58,74,4
0,51,52,2
0,51,0,4
0,63,0,6
0,82,0,10
0,80,101,2
0,51,70,0
0,39,0,2
0,46,65,2
0,46,0,4
0,58,0,8
0,59,58,4
0,39,93,4
0,63,63,0
0,59,0,0
0,51,0,10
0,80,0,12
0,78,96,2
0,58,76,0
0,63,0,15
0,46,48,7
0,51,72,2
0,39,0,2
0,46,0,0
0,51,60,16
0,58,0,2
0,78,0,2
0,51,0,0
0,77,105,2
0,39,89,0
0,63,53,0
0,59,48,6
0,59,0,4
0,51,0,8
0,58,84,6
0,63,0,12
0,46,35,6
0,77,0,4
0,46,0,0
0,80,102,2
0,51,70,0
0,39,0,2
0,66,0,12
0,51,56,0
0,51,0,4
0,58,0,4
0,39,78,2
0,63,78,0
0,46,46,6
0,46,0,4
0,51,0,1
0,59,59,3
0,59,0,4
0,80,0,4
0,78,83,2
0,58,87,0
0,66,50,0
0,63,0,6
0,51,54,16
0,51,67,2
0,39,0,2
0,51,0,0
0,58,0,18
0,78,0,2
0,77,104,2
0,39,90,0
0,63,66,0
0,46,60,6
0,51,0,4
0,46,0,0
0,59,45,12
0,58,72,2
0,59,0,2
0,63,0,6
0,51,44,8
0,51,0,4
0,77,0,2
0,75,98,2
0,51,78,0
0,39,0,2
0,58,0,13
0,46,62,7
0,39,95,2
0,63,74,0
0,46,0,2
0,75,0,20
0,77,100,2
0,58,57,0
0,51,0,1
0,63,0,7
0,51,52,0
0,59,66,0
0,51,0,4
0,59,0,0
0,66,0,4
0,51,81,8
0,66,71,0
0,39,0,2
0,58,0,16
0,77,0,4
0,46,43,0
0,78,100,2
0,39,87,0
0,63,71,0
0,46,0,2
0,51,0,14
0,51,55,2
0,66,0,4
0,51,0,0
0,58,71,2
0,63,0,12
0,59,52,6
0,78,0,4
0,59,0,0
0,75,108,2
0,51,84,0
0,66,56,0
0,39,0,2
0,46,63,0
0,46,0,4
0,58,0,12
0,39,88,6
0,63,69,0
0,51,62,4
0,51,0,4
0,66,0,12
0,75,0,2
0,51,0,1
0,71,106,1
0,58,83,0
0,63,0,9
0,46,69,1
0,46,0,4
0,51,70,10
0,66,59,0
0,59,60,0
0,39,0,2
0,59,0,2
0,51,63,16
0,71,0,2
0,65,108,2
0,39,92,0
0,58,0,0
0,63,66,0
0,51,0,0
0,66,0,16
0,51,0,4
0,58,82,4
0,63,0,13
0,65,0,9
0,51,59,0
0,66,101,2
0,51,85,0
0,66,79,0
0,51,0,2
0,39,0,1
0,59,77,5
0,59,0,4
0,39,92,12
0,63,84,0
0,58,0,1
0,51,0,15
0,66,0,6
0,63,110,2
0,58,100,0
0,51,63,6
0,51,0,4
0,39,0,5
0,51,72,9
0,59,70,12
0,59,0,4
0,63,0,6
0,46,64,0
0,59,99,2
0,39,88,0
0,46,0,2
0,63,0,29
0,51,0,5
0,51,52,0
0,39,0,2
0,58,0,0
0,51,0,2
0,66,0,2
0,27,0,2
0,39,0,1
0,59,0,1
0,35,103,2
0,54,92,0
0,59,96,0
0,63,95,0
0,71,101,0
0,75,97,0
0,35,97,0
0,47,109,0
0,54,108,0
0,59,113,0
0,63,109,0
0,59,1,0
0,63,1,0
0,71,1,0
0,75,1,0
0,35,121,16
0,49,87,1
0,35,0,3
0,49,0,1
0,47,0,53
0,54,0,3
0,54,70,19
0,63,0,15
0,35,0,1
0,47,71,8
0,35,89,24
0,63,67,0
0,54,0,13
0,54,79,11
0,47,0,7
0,35,0,10
0,47,64,7
0,54,0,21
0,35,91,3
0,54,0,6
0,54,80,18
0,47,0,2
0,35,0,18
0,47,48,4
0,54,0,22
0,35,94,2
0,54,84,24
0,47,0,1
0,47,60,23
0,35,0,2
0,35,96,22
0,54,0,2
0,47,0,18
0,54,79,4
0,35,0,22
0,47,77,2
0,35,93,24
0,54,0,0
0,54,83,24
0,47,0,7
0,35,0,17
0,47,67,0
0,54,0,23
0,35,95,1
0,59,0,7
0,47,0,15
0,54,80,2
0,59,59,16
0,35,0,7
0,47,72,1
0,63,0,14
0,54,0,6
0,35,86,4
0,63,47,16
0,54,74,8
0,47,0,7
0,47,79,17
0,35,0,2
0,63,0,16
0,35,98,6
0,54,0,0
0,63,62,8
0,47,0,12
0,54,64,4
0,47,86,24
0,35,0,14
0,35,88,10
0,63,0,0
0,54,0,3
0,59,0,8
0,54,70,13
0,35,0,6
0,59,0,14
0,63,0,0
0,71,0,0
0,75,0,0
0,59,0,0
0,63,0,0
0,71,0,0
0,75,0,0
0,35,0,6
0,54,0,8
0,47,0,107
0,66,92,151
0,66,0,59
0,68,92,3
0,29,107,0
0,59,98,0
0,63,94,0
0,68,102,0
0,41,110,0
0,63,91,0
0,65,88,0
0,68,83,0
0,59,1,0
0,63,1,0
0,68,1,0
0,57,91,1
0,35,105,3
0,57,0,1
0,35,0,3
0,59,64,8
0,41,0,10
0,53,65,6
0,59,0,12
0,41,87,4
0,53,0,12
0,59,66,4
0,68,0,11
0,53,64,5
0,41,0,2
0,41,94,14
0,68,65,0
0,59,0,2
0,59,68,14
0,53,0,2
0,41,0,8
0,53,75,6
0,65,0,0
0,68,0,2
0,41,79,14
0,65,56,0
0,59,0,3
0,59,58,13
0,68,69,0
0,53,0,3
0,53,55,13
0,41,0,12
0,41,76,4
0,59,0,0
0,68,0,3
0,53,0,13
0,59,66,0
0,53,64,16
0,68,54,0
0,41,0,2
0,41,91,14
0,59,0,4
0,59,65,12
0,68,0,0
0,53,0,4
0,53,63,12
0,41,0,3
0,59,0,12
0,41,72,1
0,68,66,0
0,59,75,16
0,53,0,7
0,41,0,9
0,53,70,0
0,68,0,4
0,41,79,12
0,59,0,5
0,59,77,11
0,68,61,0
0,53,0,5
0,53,72,11
0,41,0,4
0,68,0,12
0,41,74,0
0,68,100,4
0,59,0,3
0,68,0,8
0,59,68,1
0,53,0,7
0,53,73,9
0,68,76,0
0,41,0,7
0,68,0,6
0,41,87,3
0,65,0,5
0,59,0,4
0,59,59,7
0,68,0,5
0,65,52,3
0,53,0,1
0,53,59,7
0,41,0,5
0,65,0,1
0,41,93,10
0,65,43,0
0,68,75,0
0,59,0,7
0,65,0,7
0,59,81,2
0,53,0,7
0,65,70,1
0,53,78,8
0,65,0,6
0,41,0,1
0,68,0,0
0,65,89,5
0,41,86,4
0,59,0,3
0,59,70,13
0,68,67,0
0,53,0,3
0,65,74,5
0,53,69,8
0,65,0,6
0,41,0,3
0,41,71,7
0,59,0,0
0,65,55,0
0,68,0,9
0,65,0,4
0,53,0,3
0,59,60,0
0,65,70,8
0,53,61,8
0,68,61,0
0,65,0,6
0,41,0,1
0,41,92,9
0,65,92,0
0,59,0,4
0,65,0,4
0,65,0,6
0,59,65,2
0,68,93,4
0,53,0,0
0,68,0,3
0,65,72,1
0,53,66,8
0,41,0,5
0,59,0,10
0,41,86,1
0,68,81,0
0,65,0,12
0,59,74,4
0,53,0,7
0,65,72,1
0,53,71,8
0,68,0,3
0,41,0,4
0,68,0,7
0,41,84,2
0,63,0,6
0,59,0,23
0,53,0,8
0,65,0,3
0,41,0,1
0,29,0,3
0,59,0,0
0,63,0,0
0,68,0,0
0,59,0,0
0,63,0,0
0,68,0,0
0,34,91,0
0,58,93,0
0,70,93,0
0,46,92,0
0,56,72,0
0,58,74,0
0,62,87,0
0,65,80,0
0,70,0,25
0,58,0,3
0,58,104,68
0,70,102,0
0,58,0,92
0,70,0,0
0,56,98,4
0,68,93,0
0,56,0,38
0,58,0,0
0,56,0,3
0,68,0,2
0,58,70,5
0,46,0,10
0,56,77,14
0,56,94,24
0,68,95,0
0,46,63,0
0,58,0,5
0,62,0,3
0,58,66,16
0,62,75,8
0,56,0,8
0,56,65,8
0,65,0,0
0,46,0,9
0,46,68,15
0,58,0,9
0,56,0,11
0,68,0,0
0,62,0,0
0,54,89,4
0,66,86,0
0,58,65,0
0,65,46,0
0,56,0,1
0,62,58,15
0,56,61,8
0,46,0,5
0,65,0,10
0,66,0,3
0,46,68,6
0,65,56,0
0,54,0,4
0,58,0,1
0,58,63,19
0,56,0,3
0,65,0,10
0,54,93,11
0,66,91,0
0,56,44,0
0,65,54,0
0,46,0,8
0,46,61,16
0,58,0,8
0,65,0,7
0,56,0,7
0,58,58,2
0,65,55,0
0,56,58,24
0,46,0,11
0,65,0,0
0,54,0,9
0,66,0,0
0,53,92,4
0,65,95,0
0,46,59,0
0,65,50,0
0,58,0,11
0,58,53,13
0,56,0,5
0,65,0,3
0,65,0,10
0,53,0,2
0,56,49,4
0,65,54,0
0,46,0,8
0,46,58,16
0,58,0,8
0,65,0,4
0,53,96,12
0,65,91,0
0,58,53,0
0,65,44,0
0,56,0,9
0,56,59,15
0,46,0,5
0,65,0,10
0,46,56,9
0,65,59,0
0,34,0,4
0,58,0,1
0,62,0,21
0,56,0,3
0,65,0,8
0,53,0,7
0,65,0,0
0,51,91,0
0,63,99,0
0,46,0,8
0,51,0,37
0,63,0,7
0,58,101,44
0,58,0,90
0,63,91,6
0,63,0,90
0,66,86,6
0,66,0,88
0,68,85,8
0,68,0,86
0,70,86,10
0,70,0,92
0,68,101,4
0,68,0,78
0,66,84,18
0,66,0,54
0,39,109,38
0,39,101,4
0,70,111,0
0,78,74,0
0,82,86,0
0,87,86,0
0,35,105,0
0,42,84,0
0,35,0,4
0,42,0,0
0,82,0,20
0,87,0,0
0,78,0,2
0,78,54,70
0,82,69,0
0,87,61,0
0,42,70,0
0,42,0,4
0,70,0,16
0,78,0,6
0,82,0,2
0,87,0,0
0,51,85,16
0,54,69,2
0,70,108,2
0,58,67,44
0,63,81,2
0,78,51,2
0,82,69,0
0,87,53,0
0,37,108,0
0,42,71,0
0,37,0,4
0,42,0,0
0,54,0,15
0,78,0,7
0,87,0,2
0,82,0,2
0,58,0,9
0,63,0,8
0,39,0,21
0,70,0,8
0,54,101,16
0,58,114,2
0,42,94,2
0,66,113,0
0,78,70,0
0,82,82,0
0,87,94,0
0,63,106,0
0,35,105,0
0,42,93,0
0,35,0,4
0,42,0,0
0,39,0,7
0,82,0,19
0,63,0,0
0,78,0,2
0,51,0,3
0,87,0,1
0,58,0,15
0,54,0,5
0,66,0,26
0,42,0,10
0,39,108,0
0,46,96,4
0,63,102,0
0,78,57,0
0,82,79,0
0,87,83,0
0,35,117,0
0,42,89,0
0,35,0,4
0,42,0,0
0,78,0,30
0,82,0,0
0,87,0,2
0,51,113,56
0,78,56,4
0,82,67,0
0,87,60,0
0,42,78,0
0,42,0,4
0,82,0,26
0,78,0,2
0,87,0,0
0,46,0,60
0,54,110,0
0,58,116,2
0,34,106,2
0,78,58,0
0,82,79,0
0,87,74,0
0,63,107,0
0,37,105,0
0,42,93,0
0,37,0,4
0,42,0,0
0,82,0,26
0,78,0,2
0,87,0,6
0,54,0,3
0,54,88,51
0,58,0,3
0,78,54,1
0,82,82,0
0,87,74,0
0,40,70,0
0,42,75,0
0,40,0,4
0,42,0,0
0,39,0,10
0,40,63,6
0,40,0,4
0,78,0,4
0,82,0,4
0,87,0,4
0,40,66,4
0,40,0,4
0,51,0,8
0,40,62,4
0,40,0,4
0,40,64,16
0,40,0,4
0,34,0,12
0,39,110,0
0,58,90,2
0,39,97,2
0,78,70,0
0,82,84,0
0,87,81,0
0,35,102,0
0,42,78,0
0,35,0,4
0,42,0,0
0,63,0,32
0,82,0,2
0,78,0,2
0,87,0,2
0,54,0,30
0,58,0,10
0,58,96,14
0,78,56,0
0,82,74,0
0,87,62,0
0,42,66,0
0,42,0,4
0,63,0,10
0,78,0,10
0,82,0,2
0,87,0,2
0,51,110,16
0,54,86,2
0,58,0,8
0,58,84,38
0,63,96,2
0,63,114,2
0,78,50,0
0,82,70,0
0,87,72,0
0,37,113,0
0,42,70,0
0,37,0,4
0,42,0,0
0,78,0,10
0,54,0,1
0,82,0,5
0,63,0,3
0,87,0,1
0,58,0,1
0,39,0,43
0,63,0,8
0,54,112,16
0,58,120,2
0,42,101,2
0,66,102,0
0,78,79,0
0,82,98,0
0,87,89,0
0,63,105,0
0,35,104,0
0,42,87,0
0,35,0,4
0,42,0,0
0,39,0,5
0,78,0,21
0,82,0,0
0,87,0,2
0,51,0,18
0,66,0,36
0,42,0,6
0,39,115,0
0,46,92,4
0,68,101,0
0,78,75,0
0,82,88,0
0,87,88,0
0,35,111,0
0,42,85,0
0,54,0,1
0,58,0,0
0,35,0,3
0,42,0,0
0,63,0,16
0,82,0,10
0,78,0,2
0,87,0,0
0,68,0,44
0,51,115,16
0,70,102,4
0,78,68,0
0,82,78,0
0,87,79,0
0,42,78,0
0,42,0,4
0,78,0,24
0,82,0,0
0,87,0,2
0,70,0,56
0,46,0,2
0,54,103,4
0,58,114,2
0,39,91,2
0,68,102,0
0,78,59,0
0,82,83,0
0,87,76,0
0,63,106,0
0,37,102,0
0,42,86,0
0,37,0,4
0,42,0,0
0,51,0,17
0,39,0,1
0,78,0,8
0,82,0,0
0,87,0,0
0,68,0,44
0,58,0,10
0,51,94,8
0,63,0,0
0,66,114,4
0,78,70,0
0,82,78,0
0,87,67,0
0,40,63,0
0,42,79,0
0,54,0,2
0,40,0,2
0,42,0,0
0,40,65,16
0,40,0,4
0,82,0,2
0,87,0,2
0,78,0,2
0,40,61,10
0,39,80,4
0,40,0,0
0,40,65,12
0,40,0,4
0,51,0,8
0,40,65,8
0,40,0,4
0,39,0,10
0,39,0,2
0,66,0,0
0,44,113,0
0,32,97,4
0,70,99,0
0,80,63,0
0,83,82,0
0,87,87,0
