track,note,velocity,time
0,69,80,8
0,71,86,0
0,72,86,0
0,76,86,0
0,45,93,0
0,64,38,0
0,84,93,0
0,84,87,0
0,84,76,0
0,83,66,0
0,84,0,0
0,83,69,0
0,84,0,0
0,83,60,0
0,83,0,20
0,83,0,0
0,64,43,4
0,79,46,0
0,83,0,0
0,79,49,0
0,79,40,0
0,79,0,24
0,81,66,0
0,79,0,0
0,81,69,0
0,79,0,0
0,81,60,0
0,69,0,23
0,71,0,0
0,72,0,0
0,76,0,0
0,71,74,1
0,76,86,0
0,72,74,0
0,69,65,0
0,81,0,0
0,76,70,0
0,81,0,0
0,76,73,0
0,81,0,0
0,76,64,0
0,64,0,47
0,64,37,1
0,71,0,47
0,76,0,0
0,72,0,0
0,69,0,0
0,71,74,1
0,76,86,0
0,72,83,0
0,69,76,0
0,64,0,47
0,64,48,1
0,64,0,47
0,71,0,0
0,76,0,0
0,72,0,0
0,69,0,0
0,71,74,1
0,76,86,0
0,69,93,0
0,72,98,0
0,64,66,0
0,64,0,0
0,76,0,20
0,76,0,0
0,76,0,0
0,57,100,28
0,45,0,31
0,64,0,0
0,71,0,0
0,76,0,0
0,69,0,0
0,72,0,0
0,57,0,5
0,69,93,12
0,74,93,0
0,43,93,0
0,67,90,0
0,71,93,0
0,62,68,0
0,72,78,0
0,69,81,0
0,72,81,0
0,72,72,0
0,62,0,8
0,69,0,16
0,74,0,0
0,71,0,0
0,72,0,0
0,69,0,0
0,72,0,0
0,72,0,0
0,62,48,24
0,74,70,0
0,71,81,0
0,74,73,0
0,74,64,0
0,67,0,47
0,69,93,1
0,74,93,0
0,67,72,0
0,71,76,0
0,62,0,47
0,62,39,1
0,69,0,47
0,74,0,0
0,67,0,0
0,71,0,0
0,69,93,1
0,74,93,0
0,71,80,0
0,67,72,0
0,62,0,47
0,62,51,1
0,74,0,36
0,74,0,0
0,69,0,11
0,74,0,0
0,71,0,0
0,67,0,0
0,62,0,0
0,69,93,1
0,74,93,0
0,71,76,0
0,67,70,0
0,62,17,0
0,62,0,47
0,55,93,1
0,62,66,0
0,71,0,24
0,74,0,0
0,69,0,15
0,74,0,0
0,71,0,0
0,67,0,0
0,55,0,0
0,62,0,0
0,43,0,1
0,67,93,8
0,72,93,0
0,41,93,0
0,69,90,0
0,53,76,0
0,65,95,0
0,77,90,0
0,77,93,0
0,77,84,0
0,76,68,20
0,76,74,4
0,76,77,0
0,77,0,4
0,77,0,0
0,77,0,0
0,76,0,16
0,72,48,0
0,60,50,4
0,76,0,0
0,72,54,0
0,76,0,0
0,72,57,0
0,74,72,8
0,72,0,0
0,74,75,0
0,72,0,0
0,74,66,0
0,72,0,4
0,67,0,19
0,72,0,0
0,69,0,0
0,65,0,0
0,67,93,1
0,72,93,0
0,65,68,0
0,69,66,0
0,74,0,0
0,69,68,0
0,74,0,0
0,69,71,0
0,74,0,0
0,69,62,0
0,60,0,47
0,60,48,1
0,67,0,47
0,72,0,0
0,65,0,0
0,69,0,0
0,67,93,1
0,72,93,0
0,69,83,0
0,65,76,0
0,60,0,47
0,60,54,1
0,69,0,44
0,69,0,0
0,67,0,3
0,72,0,0
0,69,0,0
0,65,0,0
0,60,0,0
0,67,93,1
0,72,93,0
0,69,90,0
0,65,90,0
0,60,70,0
0,53,0,46
0,53,76,1
0,69,0,1
0,74,77,4
0,53,0,3
0,69,93,1
0,74,93,0
0,43,93,0
0,71,90,0
0,67,83,0
0,62,66,0
0,74,83,0
0,74,86,0
0,62,0,12
0,72,76,12
0,72,79,0
0,74,0,0
0,72,70,0
0,74,0,4
0,74,0,0
0,62,57,20
0,72,0,0
0,67,68,0
0,72,0,0
0,67,71,0
0,72,0,0
0,67,62,0
0,67,0,20
0,67,0,0
0,69,72,4
0,67,0,0
0,69,75,0
0,69,66,0
0,69,0,23
0,74,0,0
0,71,0,0
0,67,0,0
0,69,93,1
0,74,93,0
0,71,76,0
0,67,65,0
0,69,0,0
0,64,76,0
0,69,0,0
0,64,79,0
0,69,0,0
0,64,70,0
0,62,0,47
0,62,35,1
0,69,0,47
0,74,0,0
0,71,0,0
0,67,0,0
0,69,93,1
0,74,93,0
0,71,76,0
0,67,70,0
0,62,0,47
0,62,33,1
0,69,0,47
0,74,0,0
0,71,0,0
0,67,0,0
0,69,93,1
0,74,93,0
0,67,72,0
0,71,76,0
0,64,0,28
0,64,0,0
0,64,0,0
0,62,0,19
0,62,34,1
0,73,71,0
0,64,95,16
0,61,90,0
0,45,86,0
0,33,86,0
0,61,53,0
0,64,54,0
0,53,72,0
0,76,72,0
0,61,0,43
0,61,61,1
0,61,0,0
0,64,0,0
0,57,42,0
0,76,0,40
0,64,0,7
0,61,0,0
0,61,77,1
0,64,80,0
0,57,0,0
0,64,57,0
0,61,53,0
0,61,0,44
0,61,0,3
0,61,53,1
0,64,0,0
0,57,42,0
0,64,67,44
0,64,0,3
0,61,0,0
0,61,79,1
0,64,86,0
0,57,0,0
0,61,53,0
0,61,0,47
0,61,54,1
0,61,0,0
0,57,42,0
0,64,0,4
0,64,72,40
0,64,0,3
0,61,0,0
0,61,87,1
0,64,90,0
0,57,0,0
0,61,55,0
0,73,81,0
0,61,0,0
0,61,0,3
0,61,65,1
0,64,0,0
0,57,40,0
0,33,0,23
0,45,0,16
0,64,0,0
0,61,0,0
0,56,56,0
0,61,77,0
0,64,88,0
0,45,78,0
0,33,74,0
0,73,0,0
0,78,63,0
0,57,0,0
0,64,69,0
0,61,53,0
0,53,72,0
0,53,0,2
0,61,0,38
0,64,0,4
0,61,0,3
0,61,56,1
0,56,45,0
0,78,0,6
0,76,64,0
0,61,57,37
0,64,65,0
0,56,0,3
0,64,0,0
0,61,0,0
0,56,43,1
0,61,79,0
0,64,86,0
0,56,0,0
0,76,0,21
0,64,0,19
0,61,0,4
0,61,0,3
0,61,43,1
0,56,36,0
0,64,67,44
0,61,55,0
0,56,0,3
0,64,0,0
0,61,0,0
0,56,47,1
0,61,77,0
0,64,88,0
0,56,0,0
0,61,0,40
0,64,0,4
0,56,41,0
0,61,0,3
0,61,43,1
0,64,67,44
0,61,55,0
0,56,0,3
0,64,0,0
0,61,0,0
0,61,74,1
0,56,71,0
0,64,90,0
0,56,0,4
0,33,0,19
0,56,31,21
0,73,63,0
0,61,47,1
0,45,65,0
0,33,75,0
0,64,0,0
0,61,0,0
0,76,68,0
0,73,0,1
0,33,0,1
0,78,71,0
0,61,8,0
0,64,69,0
0,76,0,1
0,56,0,2
0,64,0,0
0,61,0,0
0,45,0,0
0,55,61,1
0,61,90,0
0,64,93,0
0,45,76,0
0,33,76,0
0,56,0,0
0,53,63,0
0,53,0,2
0,78,0,20
0,76,65,0
0,61,0,22
0,61,60,1
0,55,49,0
0,73,63,1
0,76,0,1
0,61,0,6
0,64,0,0
0,76,66,0
0,55,0,23
0,64,0,0
0,61,0,0
0,55,61,1
0,61,77,0
0,64,86,0
0,64,65,0
0,61,38,0
0,55,0,4
0,55,42,40
0,61,0,3
0,61,48,1
0,76,0,0
0,64,0,0
0,61,0,0
0,64,65,44
0,61,45,0
0,55,0,3
0,64,0,0
0,61,0,0
0,55,61,1
0,61,77,0
0,64,83,0
0,55,0,4
0,55,46,40
0,61,0,3
0,61,49,1
0,64,0,0
0,61,0,0
0,69,73,0
0,64,65,20
0,61,57,0
0,64,0,3
0,61,0,0
0,61,83,1
0,64,90,0
0,55,0,4
0,33,0,19
0,73,70,0
0,69,0,2
0,55,40,13
0,61,0,3
0,61,65,1
0,28,88,0
0,64,0,0
0,61,0,0
0,73,0,5
0,76,70,0
0,76,0,30
0,45,0,5
0,55,0,0
0,64,0,0
0,61,0,0
0,64,67,1
0,61,55,0
0,28,0,3
0,55,54,1
0,61,90,0
0,64,93,0
0,45,86,0
0,33,90,0
0,53,72,0
0,53,0,2
0,78,65,0
0,55,0,1
0,55,38,40
0,61,0,3
0,61,76,1
0,61,0,0
0,76,73,0
0,64,0,0
0,78,0,3
0,76,0,12
0,76,74,0
0,64,65,16
0,61,50,0
0,55,0,3
0,64,0,0
0,61,0,0
0,55,76,1
0,61,83,0
0,64,93,0
0,55,0,4
0,74,66,0
0,76,0,2
0,74,0,9
0,61,0,9
0,61,76,1
0,64,0,0
0,61,0,0
0,55,45,0
0,74,73,0
0,55,0,39
0,64,0,0
0,61,0,0
0,45,0,1
0,64,61,0
0,33,0,3
0,58,60,1
0,61,79,0
0,64,93,0
0,46,90,0
0,34,78,0
0,74,0,0
0,55,0,0
0,61,47,0
0,53,61,0
0,53,0,2
0,73,61,0
0,73,0,11
0,58,0,6
0,73,75,0
0,61,0,8
0,61,0,8
0,61,60,4
0,64,0,0
0,55,26,0
0,73,0,24
0,71,62,0
0,71,0,8
0,55,0,9
0,64,61,0
0,61,47,0
0,61,0,3
0,58,74,1
0,61,90,0
0,64,95,0
0,71,80,0
0,55,31,41
0,46,0,3
0,61,0,0
0,61,60,1
0,46,74,0
0,71,0,1
0,70,50,0
0,64,0,0
0,34,0,19
0,61,0,13
0,58,0,3
0,64,0,0
0,61,0,0
0,46,0,0
0,66,96,9
0,47,80,0
0,62,90,0
0,59,60,0
0,35,100,0
0,55,0,0
0,66,66,0
0,62,63,0
0,53,63,0
0,53,0,2
0,71,61,0
0,66,0,36
0,62,0,0
0,59,45,4
0,59,51,4
0,71,0,38
0,66,50,6
0,62,61,0
0,66,0,3
0,62,0,0
0,66,83,0
0,62,88,0
0,71,78,0
0,59,0,4
0,71,0,23
0,71,76,0
0,62,0,7
0,66,0,4
0,59,37,0
0,59,0,3
0,59,68,1
0,71,0,15
0,73,75,0
0,66,0,15
0,62,0,0
0,59,0,0
0,47,0,1
0,73,0,8
0,68,66,0
0,64,57,0
0,35,0,3
0,68,94,1
0,52,78,0
0,64,88,0
0,59,51,0
0,40,100,0
0,76,68,0
0,59,0,0
0,68,0,36
0,64,0,0
0,59,22,4
0,59,49,4
0,76,0,6
0,68,53,38
0,64,63,0
0,68,0,3
0,64,0,0
0,59,0,0
0,68,100,1
0,64,93,0
0,59,72,0
0,59,0,0
0,59,39,44
0,52,0,3
0,52,76,1
0,68,0,0
0,64,0,0
0,68,0,35
0,64,0,0
0,59,0,0
0,40,0,12
0,52,0,1
0,66,90,0
0,47,78,0
0,62,83,0
0,35,108,0
0,66,57,0
0,62,57,0
0,53,70,0
0,53,0,2
0,59,0,6
0,66,0,32
0,62,0,0
0,59,42,4
0,59,48,4
0,71,86,0
0,66,60,42
0,62,67,0
0,66,0,3
0,62,0,0
0,59,0,0
0,66,96,1
0,62,100,0
0,59,80,0
0,59,0,4
0,71,0,12
0,71,87,0
0,47,0,16
0,47,66,1
0,66,0,0
0,59,34,0
0,62,0,4
0,71,0,15
0,35,0,4
0,73,78,0
0,66,0,13
0,62,0,0
0,59,0,0
0,47,0,5
0,59,0,0
0,68,79,4
0,64,86,0
0,49,90,0
0,61,43,0
0,37,101,0
0,68,63,0
0,64,55,0
0,73,0,4
0,76,78,0
0,68,0,20
0,64,0,4
0,61,43,4
0,61,34,0
0,76,0,0
0,78,67,0
0,78,0,27
0,76,71,0
0,68,0,14
0,64,0,0
0,61,0,0
0,68,77,1
0,61,83,0
0,61,0,0
0,64,95,0
0,68,53,0
0,64,65,0
0,61,0,4
0,49,0,43
0,49,68,1
0,68,0,0
0,64,0,0
0,61,60,0
0,76,0,7
0,61,0,32
0,68,0,0
0,64,0,0
0,49,0,0
0,37,0,8
0,66,90,1
0,69,90,0
0,50,83,0
0,62,68,0
0,38,100,0
0,61,0,0
0,66,63,0
0,69,65,0
0,53,68,0
0,53,0,2
0,62,0,6
0,69,0,28
0,66,0,4
0,62,50,4
0,62,63,4
0,69,80,0
0,69,0,18
0,66,0,9
0,69,0,0
0,62,0,0
0,66,94,0
0,69,86,0
0,62,86,0
0,73,77,0
0,66,66,0
0,69,67,0
0,62,0,8
0,73,0,31
0,66,0,5
0,69,0,0
0,62,45,0
0,50,0,3
0,50,74,1
0,76,84,0
0,76,0,21
0,38,0,1
0,78,75,0
0,66,0,11
0,69,0,0
0,62,0,0
0,50,0,1
0,71,77,4
0,68,63,0
0,68,87,4
0,71,93,0
0,52,93,0
0,64,54,0
0,40,108,0
0,62,0,0
0,64,0,4
0,78,0,33
0,71,0,3
0,68,0,0
0,64,39,4
0,64,61,4
0,76,80,0
0,68,63,42
0,71,69,0
0,68,0,3
0,71,0,0
0,64,0,0
0,68,100,1
0,71,98,0
0,64,88,0
0,64,0,0
0,76,0,9
0,69,80,0
0,68,0,15
0,71,0,0
0,64,37,0
0,52,0,3
0,52,83,1
0,69,0,10
0,73,79,0
0,40,0,6
0,68,0,4
0,71,0,0
0,64,0,0
0,52,0,13
0,73,0,1
0,64,0,3
0,45,90,4
0,56,98,0
0,61,104,0
0,64,103,0
0,33,121,0
0,53,66,0
0,56,78,0
0,64,85,0
0,61,78,0
0,73,72,0
0,52,78,92
0,56,0,16
0,64,0,0
0,61,0,0
0,33,0,7
0,56,0,24
0,61,0,0
0,64,0,0
0,33,121,0
0,56,98,1
0,61,100,0
0,64,100,0
0,53,63,0
0,56,78,0
0,64,83,0
0,61,74,0
0,53,0,2
0,73,0,2
0,51,71,88
0,51,0,2
0,57,78,2
0,61,0,47
0,64,0,0
0,57,0,0
0,61,96,1
0,64,98,0
0,57,90,0
0,51,105,0
0,51,0,2
0,51,83,21
0,51,0,2
0,73,89,0
0,33,0,14
0,51,77,0
0,45,0,1
0,45,76,1
0,51,0,0
0,64,0,12
0,61,0,8
0,51,71,3
0,56,0,1
0,51,0,1
0,52,0,2
0,56,0,0
0,61,0,0
0,64,0,0
0,57,0,0
0,73,0,8
0,61,103,13
0,50,98,0
0,57,108,0
0,54,100,0
0,38,98,0
0,38,121,0
0,53,86,0
0,61,88,1
0,73,72,1
0,53,0,0
0,57,78,0
0,66,85,0
0,73,0,45
0,71,78,0
0,71,0,31
0,69,66,0
0,50,0,9
0,50,80,1
0,61,0,1
0,57,0,1
0,66,0,0
0,38,0,21
0,45,0,16
0,61,0,0
0,57,0,0
0,54,0,0
0,50,0,0
0,61,85,5
0,66,78,0
0,61,103,4
0,54,96,0
0,57,103,0
0,50,95,0
0,45,83,0
0,38,113,0
0,53,90,0
0,57,78,0
0,53,0,2
0,69,0,84
0,48,88,8
0,45,98,0
0,48,0,2
0,45,0,0
0,45,88,71
0,41,90,0
0,45,0,2
0,41,0,0
0,38,0,22
0,41,74,1
0,45,78,0
0,41,0,2
0,45,0,0
0,50,0,18
0,57,0,4
0,45,0,0
0,57,0,0
0,61,0,4
0,54,0,0
0,38,0,4
0,61,0,0
0,66,0,4
0,57,71,0
0,61,100,0
0,64,105,0
0,45,96,0
0,33,100,0
0,76,90,0
0,61,53,0
0,64,54,0
0,49,92,0
0,36,100,0
0,49,0,2
0,36,0,0
0,61,0,45
0,61,71,1
0,61,0,0
0,64,0,0
0,57,63,0
0,42,64,0
0,42,0,2
0,57,0,45
0,64,0,0
0,61,0,0
0,76,0,0
0,57,63,1
0,61,87,0
0,64,90,0
0,64,57,0
0,61,53,0
0,42,86,0
0,40,106,0
0,42,0,2
0,40,0,0
0,57,0,2
0,61,0,40
0,61,0,3
0,33,0,0
0,61,71,1
0,33,98,0
0,64,0,0
0,57,45,0
0,42,65,0
0,42,0,2
0,33,0,21
0,64,67,21
0,61,53,0
0,57,0,3
0,64,0,0
0,61,0,0
0,57,64,1
0,61,89,0
0,64,96,0
0,33,103,0
0,42,88,0
0,36,95,0
0,42,0,2
0,36,0,0
0,57,0,2
0,57,95,21
0,57,0,12
0,61,0,10
0,59,85,0
0,61,71,1
0,64,0,0
0,61,0,0
0,57,42,0
0,42,61,0
0,42,0,2
0,57,85,20
0,59,0,1
0,57,0,11
0,64,72,10
0,61,55,0
0,57,0,3
0,64,0,0
0,61,0,0
0,57,75,1
0,61,97,0
0,64,100,0
0,57,0,0
0,42,88,0
0,40,106,0
0,59,106,0
0,42,0,2
