track,note,velocity,time
3,31,102,1056
3,36,99,24
3,36,106,58
3,36,104,198
3,31,101,482
3,36,104,24
3,36,101,52
3,31,105,468
3,36,106,30
3,31,108,6
3,34,111,22
3,34,99,56
3,34,108,204
3,31,104,478
3,34,105,20
3,34,105,58
3,31,104,488
3,39,103,0
3,33,104,96
3,34,102,76
3,36,99,94
3,36,106,58
3,36,103,198
3,31,101,482
3,36,104,24
3,36,102,52
3,31,105,468
3,36,105,30
3,31,108,6
3,34,112,22
3,34,99,56
3,34,107,204
3,31,104,478
3,34,105,20
3,34,106,58
3,31,112,200
3,55,111,2
3,43,114,4
3,33,113,16
3,34,113,16
3,46,116,0
3,36,100,34
3,36,105,58
3,36,103,198
3,31,102,482
3,36,104,24
3,36,101,52
3,31,105,468
3,36,106,30
3,31,107,6
3,34,112,22
3,34,110,56
3,34,103,204
3,31,106,190
3,34,103,96
3,31,103,48
3,34,106,20
3,34,106,58
3,31,103,488
3,34,103,0
3,31,104,0
3,36,100,0
3,36,105,58
3,36,103,198
3,31,102,482
3,36,103,24
3,36,102,52
3,31,106,468
3,36,105,30
3,31,108,6
3,34,111,22
3,34,109,56
3,34,104,204
3,31,106,190
3,34,103,96
3,31,103,48
3,34,106,20
3,34,106,58
3,34,109,680
3,29,107,96
3,31,106,0
3,31,107,30
3,31,110,216
3,26,108,392
3,29,105,24
3,31,110,28
3,31,109,42
3,31,105,752
3,36,118,26
3,36,104,64
3,36,101,178
3,31,101,190
3,34,104,12
3,31,106,12
3,36,105,10
3,36,105,68
3,34,104,202
3,36,99,14
3,24,104,14
3,38,104,20
3,26,105,10
3,39,112,96
3,39,111,118
3,46,105,96
3,51,110,16
3,46,110,96
3,39,111,26
3,27,113,6
3,32,120,16
3,32,110,34
3,32,111,196
3,34,105,32
3,32,112,4
3,29,111,16
3,31,114,8
3,31,118,44
3,31,117,198
3,31,118,174
3,43,115,94
3,29,107,50
3,31,122,22
3,36,106,998
3,36,111,58
3,36,107,198
3,31,106,482
3,36,108,24
3,36,107,52
3,31,109,468
3,36,110,30
3,31,113,6
3,34,116,22
3,34,114,56
3,34,107,204
3,31,112,190
3,34,107,96
3,31,107,48
3,34,110,20
3,34,112,58
3,31,107,488
3,34,107,0
3,31,108,0
3,36,106,0
3,36,111,58
3,36,107,198
3,31,106,482
3,36,107,24
3,36,108,52
3,31,110,468
3,36,109,30
3,31,114,6
3,34,115,22
3,34,113,56
3,34,108,204
3,31,112,190
3,34,107,96
3,31,107,48
3,34,110,20
3,34,112,58
3,29,113,776
3,31,111,0
3,31,114,30
3,31,113,216
3,26,112,392
3,29,112,24
3,31,113,28
3,31,116,42
3,31,109,752
3,36,121,26
3,36,108,64
3,36,106,178
3,31,105,190
3,34,107,12
3,31,112,12
3,36,112,10
3,36,111,68
3,34,107,202
3,36,104,14
3,24,107,14
3,38,108,20
3,26,112,10
3,39,115,30
3,39,110,86
3,39,109,36
3,34,113,96
3,27,114,6
3,32,114,4
3,32,111,108
3,39,115,384
3,29,114,18
3,31,112,30
3,31,115,110
3,42,117,288
3,43,116,8
3,29,113,192
3,31,116,16
3,36,122,996
3,36,117,98
3,36,118,44
3,36,117,108
3,36,121,34
3,36,124,116
3,36,126,44
3,31,121,108
3,36,123,28
3,36,124,108
3,36,126,34
3,36,121,112
3,36,123,42
3,33,124,34
3,31,121,44
3,36,127,20
3,33,124,32
3,31,121,28
3,29,126,18
3,29,125,88
3,29,123,44
3,29,122,100
3,29,124,36
3,29,117,94
3,29,117,34
3,36,122,68
3,41,124,20
3,41,117,96
3,41,121,40
3,38,122,6
3,36,121,22
3,29,120,42
3,41,126,36
3,30,123,32
3,42,124,192
3,31,113,0
3,31,121,90
3,31,118,50
3,31,122,98
3,31,117,40
3,31,121,94
3,31,122,38
3,38,120,10
3,40,123,0
3,43,123,14
3,43,122,78
3,43,119,40
3,40,122,10
3,38,122,8
3,31,121,36
3,31,126,84
3,38,125,14
3,36,121,2
3,36,126,112
3,36,126,46
3,36,125,110
3,36,125,44
3,36,122,108
3,38,122,10
3,31,121,20
3,33,121,20
3,36,122,14
3,36,125,86
3,36,122,40
3,33,124,6
3,31,123,22
3,29,126,34
3,31,121,50
3,36,121,30
3,36,118,98
3,36,118,44
3,36,117,108
3,36,121,34
3,36,124,116
3,36,126,44
3,31,121,108
3,36,123,28
3,36,124,108
3,36,125,34
3,36,124,112
3,36,124,42
3,28,127,34
3,31,122,12
3,33,123,22
3,33,121,28
3,38,118,6
3,38,118,98
3,38,113,38
3,38,113,100
3,38,114,44
3,38,118,112
3,38,121,48
3,33,119,16
3,36,118,12
3,38,121,16
3,38,127,80
3,38,122,38
3,38,121,114
3,40,120,44
3,41,121,20
3,40,121,96
3,38,122,86
3,36,122,16
3,33,121,14
3,31,125,12
3,31,118,72
3,31,122,48
3,31,117,102
3,31,111,38
3,31,122,94
3,38,123,26
3,40,126,30
3,31,126,22
3,36,105,1004
3,36,112,58
3,36,107,198
3,31,105,482
3,36,108,24
3,36,108,52
3,31,109,468
3,36,109,30
3,31,114,6
3,34,116,22
3,34,113,56
3,34,107,204
3,31,112,190
3,34,107,96
3,31,108,48
3,34,110,20
3,34,111,58
3,31,108,488
3,34,107,0
3,31,107,0
3,36,106,0
3,36,112,58
3,36,107,198
3,31,105,482
3,36,108,24
3,36,108,52
3,31,109,468
3,36,109,30
3,31,114,6
3,34,115,22
3,34,114,56
3,34,108,204
3,31,111,190
3,34,108,96
3,31,107,48
3,34,109,20
3,34,112,58
3,34,114,680
3,29,113,96
3,31,111,0
3,31,114,30
3,31,114,216
3,26,111,392
3,29,111,24
3,31,114,28
3,31,115,42
3,31,110,752
3,36,122,26
3,36,107,64
3,36,106,178
3,31,105,190
3,34,107,12
3,31,112,12
3,36,112,10
3,36,111,68
3,34,107,202
3,36,104,14
3,24,108,14
3,38,107,20
3,26,111,10
3,39,116,96
3,39,115,118
3,46,110,96
3,51,114,16
3,46,115,96
3,39,116,26
3,27,117,6
3,32,123,16
3,32,114,34
3,32,118,196
3,34,109,32
3,32,115,4
3,29,116,16
3,31,118,8
3,31,121,44
3,31,121,198
3,31,124,174
3,43,119,94
3,29,112,50
3,31,126,22
3,36,109,998
3,36,116,58
3,36,113,198
3,31,111,482
3,36,114,24
3,36,112,52
3,31,115,468
3,36,115,30
3,31,118,6
3,34,122,22
3,34,119,56
3,34,113,204
3,31,116,190
3,34,113,96
3,31,114,48
3,34,116,20
3,34,115,58
3,31,114,488
3,34,113,0
3,31,113,0
3,36,110,0
3,36,116,58
3,36,113,198
3,31,111,482
3,36,114,24
3,36,112,52
3,31,115,468
3,36,115,30
3,31,118,6
3,34,121,22
3,34,120,56
3,34,114,204
3,31,115,190
3,34,114,96
3,31,113,48
3,34,115,20
3,34,116,58
3,29,118,776
3,31,115,0
3,31,117,30
3,31,120,216
3,26,118,392
3,29,115,24
3,31,119,28
3,31,120,42
3,31,115,752
3,36,127,26
3,36,114,64
3,36,111,178
3,31,112,190
3,34,113,12
3,31,115,12
3,36,116,10
3,36,116,68
3,34,113,202
3,36,109,14
3,24,114,14
3,38,114,20
3,26,115,10
3,39,121,30
3,39,114,86
3,39,113,36
3,34,118,96
3,27,118,6
3,32,117,4
3,32,116,108
3,39,119,384
3,29,117,18
3,31,116,30
3,31,120,110
3,42,121,288
3,43,121,8
3,29,118,192
3,31,120,16
3,36,125,996
3,36,121,98
3,36,122,44
3,36,123,108
3,36,126,34
3,36,127,116
3,36,127,44
3,31,127,108
3,36,127,28
3,36,127,108
3,36,127,34
3,36,126,112
3,36,127,42
3,33,127,34
3,31,126,44
3,36,127,20
3,33,127,32
3,31,125,28
3,29,127,18
3,29,127,88
3,29,127,44
3,29,127,100
3,29,127,36
3,29,122,94
3,29,121,34
3,36,125,68
3,41,127,20
3,41,122,96
3,41,127,40
3,38,125,6
3,36,127,22
3,29,124,42
3,41,127,36
3,30,127,32
3,42,127,192
3,31,117,0
3,31,126,90
3,31,122,50
3,31,125,98
3,31,122,40
3,31,125,94
3,31,125,38
3,38,124,10
3,40,127,0
3,43,127,14
3,43,127,78
3,43,124,40
3,40,126,10
3,38,125,8
3,31,125,36
3,31,127,84
3,38,127,14
3,36,126,2
3,36,127,112
3,36,127,46
3,36,127,110
3,36,127,44
3,36,127,108
3,38,127,10
3,31,127,20
3,33,127,20
3,36,125,14
3,36,127,86
3,36,126,40
3,33,127,6
3,31,127,22
3,29,127,34
3,31,125,50
3,36,126,30
3,36,122,98
3,36,121,44
3,36,124,108
3,36,125,34
3,36,127,116
3,36,127,44
3,31,127,108
3,36,127,28
3,36,127,108
3,36,127,34
3,36,127,112
3,36,127,42
3,28,127,34
3,31,127,12
3,33,127,22
3,33,127,28
3,38,122,6
3,38,121,98
3,38,118,38
3,38,117,100
3,38,117,44
3,38,122,112
3,38,126,48
3,33,123,16
3,36,121,12
3,38,126,16
3,38,126,80
3,38,127,38
3,38,127,114
3,40,124,44
3,41,127,20
3,40,127,96
3,38,127,86
3,36,127,16
3,33,126,14
3,31,123,12
3,31,123,96
3,31,122,50
3,31,124,102
3,31,125,50
3,31,125,90
3,31,127,46
3,31,127,104
3,31,127,48
3,31,123,96
3,31,122,50
3,31,119,108
3,31,122,40
3,31,122,94
3,31,123,38
3,31,126,106
3,36,125,36
3,36,123,84
3,36,120,48
3,36,124,114
3,36,123,50
3,36,121,108
3,36,124,50
3,31,120,96
3,36,119,26
3,36,119,96
3,36,122,36
3,36,119,96
3,29,126,26
3,31,127,70
3,36,125,40
3,36,122,98
3,36,121,44
3,36,123,108
3,36,126,34
3,36,127,116
3,36,127,44
3,31,127,108
3,36,127,28
3,36,127,108
3,36,127,34
3,36,125,112
3,36,127,42
3,33,127,34
3,31,126,44
3,36,127,20
3,33,127,32
3,31,126,28
3,29,127,18
3,29,127,88
3,29,127,44
3,29,127,100
3,29,127,36
3,29,121,94
3,29,122,34
3,36,126,68
3,41,127,20
3,41,121,96
3,41,127,40
3,38,125,6
3,36,127,22
3,29,124,42
3,41,127,36
3,30,127,32
3,42,127,192
3,31,117,0
3,31,126,90
3,31,122,50
3,31,125,98
3,31,121,40
3,31,126,94
3,31,126,38
3,38,123,10
3,40,127,0
3,43,127,14
3,43,127,78
3,43,124,40
3,40,126,10
3,38,125,8
3,31,126,36
3,31,127,84
3,38,127,14
3,36,126,2
3,36,127,112
3,36,127,46
3,36,127,110
3,36,127,44
3,36,127,108
3,38,127,10
3,31,127,20
3,33,127,20
3,36,125,14
3,36,127,86
3,36,126,40
3,33,127,6
3,31,127,22
3,29,127,34
3,31,125,50
3,36,126,30
3,36,122,98
3,36,121,44
3,36,123,108
3,36,126,34
3,36,127,116
3,36,127,44
3,31,127,108
3,36,127,28
3,36,127,108
3,36,127,34
3,36,126,112
3,36,127,42
3,33,127,34
3,31,125,44
3,36,127,20
3,33,127,32
3,31,126,28
3,38,121,18
3,38,121,98
3,38,118,38
3,38,118,100
3,38,117,44
3,38,121,112
3,38,126,48
3,33,123,16
3,36,122,12
3,38,126,16
3,38,125,80
3,38,127,38
3,38,127,114
3,40,123,44
3,41,127,20
3,40,127,96
3,38,127,86
3,36,127,16
3,33,126,14
3,31,118,12
3,31,125,90
3,31,121,50
3,31,126,98
3,31,121,40
3,31,126,94
3,31,126,38
3,38,123,10
3,40,127,0
3,43,127,14
3,43,127,78
3,43,124,40
3,40,126,10
3,38,125,8
3,31,125,36
3,31,127,84
3,38,127,14
3,36,125,2
3,36,127,112
3,36,127,46
3,36,127,110
3,36,127,44
3,36,127,108
3,38,127,10
3,31,127,20
3,33,127,20
3,36,125,14
3,36,127,86
3,36,126,40
3,33,127,6
3,31,127,22
3,29,127,34
3,31,126,50
3,36,125,30
4,48,41,1170
4,51,84,10
4,55,93,6
4,63,67,4
4,67,60,6
4,48,127,2
4,51,126,4
4,55,126,4
4,63,127,4
4,67,105,6
4,67,126,2
4,63,126,0
4,55,127,4
4,51,105,4
4,48,98,6
4,48,120,2
4,51,127,0
4,55,126,4
4,63,123,4
4,67,127,6
4,48,86,2
4,51,105,2
4,55,108,4
4,63,92,6
4,67,115,4
4,48,111,2
4,51,126,0
4,55,126,4
4,63,127,4
4,67,127,4
4,67,92,0
4,63,126,2
4,55,121,4
4,51,110,4
4,48,99,6
4,67,73,0
4,63,102,0
4,55,87,0
4,51,62,6
4,48,40,6
4,48,127,0
4,51,127,0
4,55,126,4
4,63,126,6
4,67,127,4
4,51,63,6
4,46,68,0
4,55,98,4
4,63,105,4
4,67,126,6
4,46,117,2
4,51,127,0
4,55,120,4
4,63,127,4
4,67,126,4
4,67,92,2
4,63,127,2
4,55,127,2
4,51,110,4
4,46,116,6
4,67,57,0
4,63,85,2
4,55,78,6
4,51,60,2
4,46,117,0
4,51,108,0
4,55,99,4
4,63,105,6
4,67,102,4
4,46,71,2
4,51,92,2
4,55,92,2
4,63,79,6
4,67,85,4
4,46,108,4
4,51,102,2
4,55,117,4
4,63,111,4
4,67,104,4
4,67,126,0
4,63,127,0
4,55,126,6
4,51,117,4
4,46,111,2
4,67,40,12
4,63,85,0
4,55,84,8
4,51,44,6
4,46,121,0
4,51,127,0
4,55,108,4
4,63,122,4
4,67,127,4
4,48,41,28
4,51,84,10
4,55,92,6
4,63,67,4
4,67,60,6
4,48,127,2
4,51,127,4
4,55,126,4
4,63,127,4
4,67,104,6
4,67,126,2
4,63,127,0
4,55,127,4
4,51,104,4
4,48,98,6
4,48,121,2
4,51,127,0
4,55,126,4
4,63,122,4
4,67,127,6
4,48,86,2
4,51,105,2
4,55,109,4
4,63,92,6
4,67,115,4
4,48,110,2
4,51,126,0
4,55,127,4
4,63,127,4
4,67,126,4
4,67,92,0
4,63,127,2
4,55,121,4
4,51,110,4
4,48,98,6
4,67,73,0
4,63,102,0
4,55,87,0
4,51,63,6
4,48,40,6
4,48,127,0
4,51,126,0
4,55,126,4
4,63,127,6
4,67,127,4
4,51,62,6
4,46,68,0
4,55,99,4
4,63,105,4
4,67,126,6
4,46,116,2
4,51,127,0
4,55,120,4
4,63,127,4
4,67,127,4
4,67,92,2
4,63,127,2
4,55,126,2
4,51,110,4
4,46,117,6
4,67,57,0
4,63,84,2
4,55,78,6
4,51,61,2
4,46,117,0
4,51,108,0
4,55,98,4
4,63,105,6
4,67,102,4
4,46,71,2
4,51,93,2
4,55,92,2
4,63,79,6
4,67,84,4
4,46,108,4
4,51,103,2
4,55,117,4
4,63,110,4
4,67,104,4
4,67,127,0
4,63,127,0
4,55,126,6
4,51,116,4
4,46,111,2
4,67,40,12
4,63,85,0
4,55,85,8
4,51,44,6
4,46,121,0
4,51,126,0
4,55,108,4
4,63,123,4
4,67,127,4
4,48,40,28
4,51,84,10
4,55,93,6
4,63,67,4
4,67,60,6
4,48,126,2
4,51,127,4
4,55,126,4
4,63,127,4
4,67,105,6
4,67,126,2
4,63,127,0
4,55,126,4
4,51,104,4
4,48,99,6
4,48,121,2
4,51,126,0
4,55,126,4
4,63,123,4
4,67,127,6
4,48,86,2
4,51,104,2
4,55,109,4
4,63,92,6
4,67,115,4
4,48,111,2
4,51,126,0
4,55,127,4
4,63,126,4
4,67,126,4
4,67,93,0
4,63,127,2
4,55,120,4
4,51,110,4
4,48,99,6
4,67,73,0
4,63,102,0
4,55,86,0
4,51,63,6
4,48,40,6
4,48,127,0
4,51,127,0
4,55,126,4
4,63,127,6
4,67,126,4
4,51,62,6
4,46,69,0
4,55,99,4
4,63,104,4
4,67,126,6
4,46,117,2
4,51,127,0
4,55,120,4
4,63,126,4
4,67,127,4
4,67,92,2
4,63,127,2
4,55,127,2
4,51,110,4
4,46,117,6
4,67,56,0
4,63,84,2
4,55,79,6
4,51,61,2
4,46,116,0
4,51,108,0
4,55,99,4
4,63,105,6
4,67,102,4
4,46,70,2
4,51,93,2
4,55,92,2
4,63,79,6
4,67,85,4
4,46,108,4
4,51,103,2
4,55,116,4
4,63,110,4
4,67,105,4
