track,note,velocity,time
0,38,89,288
0,57,68,0
0,57,104,0
0,35,106,0
0,42,67,0
0,62,75,4
0,42,0,0
0,35,0,0
0,66,67,7
0,57,0,75
0,62,0,4
0,66,0,2
0,57,0,2
0,57,54,2
0,62,61,0
0,66,70,0
0,59,103,0
0,42,57,0
0,42,0,4
0,66,0,84
0,57,0,6
0,62,0,1
0,57,68,1
0,57,99,0
0,38,89,0
0,42,84,0
0,62,75,3
0,59,0,0
0,42,0,1
0,38,0,0
0,66,68,7
0,38,0,26
0,57,0,52
0,66,0,3
0,62,0,1
0,57,52,3
0,62,55,0
0,66,71,0
0,59,104,0
0,42,57,0
0,42,0,4
0,57,0,2
0,62,0,40
0,38,83,2
0,62,50,0
0,38,0,10
0,66,0,30
0,59,0,1
0,62,0,5
0,57,0,1
0,38,85,1
0,57,61,0
0,57,108,0
0,35,93,0
0,42,66,0
0,42,0,4
0,35,0,0
0,62,63,2
0,66,67,6
0,38,0,52
0,57,0,28
0,66,0,1
0,38,85,3
0,57,58,0
0,66,70,0
0,59,106,0
0,35,87,0
0,42,56,0
0,57,0,2
0,42,0,2
0,35,0,0
0,66,0,84
0,57,0,6
0,57,54,2
0,57,108,0
0,38,89,0
0,42,83,0
0,62,0,4
0,59,0,0
0,42,0,0
0,38,0,0
0,62,77,1
0,66,66,7
0,38,0,61
0,57,0,17
0,66,0,3
0,57,56,3
0,62,53,0
0,66,72,0
0,62,0,0
0,59,104,0
0,57,0,0
0,35,87,0
0,42,55,0
0,42,0,4
0,35,0,0
0,66,0,84
0,59,0,2
0,62,0,1
0,57,0,0
0,43,83,5
0,59,54,0
0,57,104,0
0,35,106,0
0,42,67,0
0,42,0,4
0,35,0,0
0,62,72,1
0,67,63,7
0,59,0,79
0,57,0,0
0,67,0,1
0,59,61,4
0,67,71,0
0,59,108,0
0,42,57,0
0,42,0,4
0,67,0,84
0,59,0,4
0,62,0,1
0,59,0,1
0,59,67,2
0,57,106,0
0,38,89,0
0,42,84,0
0,42,0,4
0,38,0,0
0,62,73,2
0,67,65,5
0,43,0,55
0,59,0,16
0,62,0,6
0,67,0,5
0,57,0,1
0,59,55,2
0,62,47,0
0,67,71,0
0,59,106,0
0,42,57,0
0,42,0,4
0,62,0,42
0,43,83,2
0,62,50,0
0,43,0,10
0,67,0,30
0,59,0,0
0,62,0,6
0,59,0,0
0,45,83,2
0,61,68,0
0,57,97,0
0,35,93,0
0,42,66,0
0,42,0,4
0,35,0,0
0,64,74,1
0,69,66,6
0,45,0,53
0,69,0,29
0,64,0,0
0,61,0,1
0,45,85,2
0,61,49,0
0,64,48,0
0,69,71,0
0,59,103,0
0,35,87,0
0,42,56,0
0,57,0,4
0,42,0,0
0,35,0,0
0,69,0,84
0,59,0,4
0,64,0,2
0,61,0,0
0,61,63,2
0,57,106,0
0,38,89,0
0,42,83,0
0,42,0,4
0,38,0,0
0,64,69,1
0,69,61,6
0,45,0,65
0,69,0,16
0,61,0,0
0,61,51,4
0,69,71,0
0,59,110,0
0,35,87,0
0,42,55,0
0,57,0,1
0,42,0,3
0,35,0,0
0,69,0,84
0,59,0,2
0,61,0,2
0,64,0,0
0,38,85,4
0,57,68,0
0,57,103,0
0,35,106,0
0,42,67,0
0,62,75,4
0,42,0,0
0,35,0,0
0,66,67,7
0,62,0,79
0,66,0,2
0,57,0,2
0,57,54,2
0,62,61,0
0,66,70,0
0,59,103,0
0,57,0,0
0,42,57,0
0,42,0,4
0,86,79,73
0,66,0,11
0,59,0,0
0,57,0,6
0,62,0,1
0,57,68,1
0,57,108,0
0,38,89,0
0,42,84,0
0,62,75,3
0,42,0,1
0,38,0,0
0,66,68,7
0,38,0,49
0,57,0,29
0,66,0,3
0,62,0,1
0,57,52,3
0,62,55,0
0,66,71,0
0,59,110,0
0,42,57,0
0,57,0,1
0,42,0,3
0,62,0,42
0,38,81,2
0,62,50,0
0,38,0,10
0,66,0,30
0,59,0,2
0,81,80,2
0,62,0,2
0,86,0,0
0,57,0,1
0,38,87,1
0,57,61,0
0,57,103,0
0,35,93,0
0,42,66,0
0,42,0,4
0,35,0,0
0,62,63,2
0,66,67,6
0,38,0,48
0,57,0,32
0,66,0,1
0,38,85,3
0,57,58,0
0,66,70,0
0,59,104,0
0,35,87,0
0,42,56,0
0,42,0,4
0,35,0,0
0,57,0,5
0,78,76,75
0,59,0,3
0,66,0,1
0,81,0,2
0,57,0,4
0,57,54,2
0,57,101,0
0,38,89,0
0,42,83,0
0,62,0,4
0,42,0,0
0,38,0,0
0,62,77,1
0,66,66,7
0,57,0,78
0,66,0,3
0,57,56,3
0,62,53,0
0,66,72,0
0,62,0,0
0,59,110,0
0,35,87,0
0,42,55,0
0,57,0,4
0,42,0,0
0,35,0,0
0,38,0,17
0,81,80,57
0,78,0,7
0,66,0,3
0,62,0,3
0,57,0,0
0,59,0,1
0,38,82,4
0,57,54,0
0,57,103,0
0,35,106,0
0,42,67,0
0,42,0,4
0,35,0,0
0,62,72,1
0,66,63,7
0,57,0,79
0,66,0,1
0,57,61,4
0,66,71,0
0,59,104,0
0,42,57,0
0,57,0,2
0,42,0,2
0,74,78,75
0,81,0,3
0,66,0,6
0,59,0,1
0,57,0,3
0,62,0,1
0,57,67,3
0,57,103,0
0,38,89,0
0,42,84,0
0,42,0,4
0,38,0,0
0,62,73,2
0,66,65,5
0,38,0,34
0,57,0,37
0,62,0,6
0,66,0,5
0,57,55,3
0,62,47,0
0,66,71,0
0,59,106,0
0,42,57,0
0,42,0,4
0,57,0,3
0,62,0,39
0,38,75,2
0,62,50,0
0,38,0,10
0,79,80,19
0,59,0,7
0,66,0,4
0,74,0,3
0,62,0,3
0,57,0,0
0,31,78,2
0,59,68,0
0,57,99,0
0,35,93,0
0,42,66,0
0,42,0,4
0,35,0,0
0,62,74,1
0,67,66,6
0,31,0,51
0,67,0,31
0,62,0,0
0,59,0,1
0,31,83,2
0,59,49,0
0,62,48,0
0,67,71,0
0,59,108,0
0,35,87,0
0,42,56,0
0,42,0,4
0,35,0,0
0,57,0,4
0,83,77,73
0,79,0,6
0,67,0,1
0,62,0,6
0,59,0,0
0,59,63,2
0,57,103,0
0,38,89,0
0,42,83,0
0,59,0,2
0,42,0,2
0,38,0,0
0,62,69,1
0,67,61,6
0,31,0,2
0,67,0,79
0,59,0,0
0,57,0,3
0,59,51,1
0,67,71,0
0,59,101,0
0,35,87,0
0,42,55,0
0,42,0,4
0,35,0,0
0,59,0,81
0,81,79,1
0,67,0,2
0,59,0,4
0,62,0,0
0,38,85,4
0,57,68,0
0,57,104,0
0,35,106,0
0,42,67,0
0,83,0,1
0,62,75,3
0,42,0,0
0,35,0,0
0,66,67,7
0,62,0,79
0,66,0,2
0,57,0,2
0,57,54,2
0,62,61,0
0,66,70,0
0,59,108,0
0,42,57,0
0,42,0,4
0,57,0,2
0,66,0,82
0,59,0,2
0,57,0,4
0,62,0,1
0,57,68,1
0,57,103,0
0,38,89,0
0,42,84,0
0,62,75,3
0,42,0,1
0,38,0,0
0,66,68,7
0,38,0,49
0,57,0,29
0,66,0,3
0,62,0,1
0,57,0,1
0,57,52,2
0,62,55,0
0,66,71,0
0,59,110,0
0,42,57,0
0,42,0,4
0,62,0,42
0,38,81,2
0,62,50,0
0,38,0,10
0,66,0,30
0,59,0,2
0,62,0,4
0,57,0,1
0,45,87,1
0,57,61,0
0,57,101,0
0,35,93,0
0,42,66,0
0,42,0,4
0,35,0,0
0,62,63,2
0,66,67,6
0,45,0,48
0,57,0,32
0,66,0,1
0,45,85,3
0,57,58,0
0,66,70,0
0,59,104,0
0,35,87,0
0,42,56,0
0,42,0,4
0,35,0,0
0,57,0,4
0,66,0,2
0,59,0,4
0,57,0,2
0,57,54,2
0,57,101,0
0,38,89,0
0,42,83,0
0,62,0,4
0,42,0,0
0,38,0,0
0,62,77,1
0,66,66,7
0,57,0,4
0,66,0,3
0,57,0,0
0,57,56,3
0,62,53,0
0,66,72,0
0,62,0,0
0,59,110,0
0,35,87,0
0,42,55,0
0,42,0,4
0,35,0,0
0,45,0,17
0,66,0,2
0,62,0,3
0,57,0,0
0,38,82,5
0,57,54,0
0,57,101,0
0,35,106,0
0,42,67,0
0,59,0,2
0,42,0,2
0,35,0,0
0,62,72,1
0,66,63,7
0,57,0,5
0,66,0,1
0,57,61,4
0,66,71,0
0,59,110,0
0,42,57,0
0,57,0,4
0,42,0,0
0,66,0,2
0,59,0,3
0,57,0,1
0,62,0,1
0,57,67,3
0,57,104,0
0,38,89,0
0,42,84,0
0,42,0,4
0,38,0,0
0,62,73,2
0,66,65,5
0,38,0,7
0,57,0,37
0,62,0,2
0,66,0,5
0,57,55,3
0,62,47,0
0,66,71,0
0,59,103,0
0,42,57,0
0,42,0,4
0,57,0,1
0,62,0,8
0,38,75,2
0,62,50,0
0,38,0,10
0,66,0,2
0,59,0,3
0,62,0,3
0,57,0,0
0,45,78,2
0,57,68,0
0,57,101,0
0,35,93,0
0,42,66,0
0,42,0,4
0,35,0,0
0,62,74,1
0,66,66,6
0,45,0,24
0,66,0,7
0,62,0,0
0,57,0,1
0,57,0,1
0,45,83,1
0,57,49,0
0,62,48,0
0,66,71,0
0,59,104,0
0,35,87,0
0,42,56,0
0,42,0,4
0,35,0,0
0,66,0,2
0,62,0,6
0,57,0,0
0,57,63,2
0,57,101,0
0,38,89,0
0,42,83,0
0,59,0,3
0,42,0,1
0,38,0,0
0,62,69,1
0,66,61,6
0,45,0,2
0,81,0,45
0,66,0,6
0,57,0,0
0,57,51,4
0,66,71,0
0,57,99,0
0,59,108,0
0,35,87,0
0,42,55,0
0,57,0,4
0,42,0,0
0,35,0,0
0,59,0,33
0,66,0,3
0,50,76,0
0,57,0,4
0,62,0,0
0,57,0,3
0,38,87,1
0,57,78,0
0,62,100,0
0,35,108,0
0,42,69,0
0,62,85,4
0,42,0,0
0,35,0,0
0,66,77,7
0,62,0,79
0,66,0,2
0,57,0,2
0,62,0,1
0,57,64,1
0,62,71,0
0,64,103,0
0,42,59,0
0,42,0,4
0,66,78,82
0,74,76,0
0,64,0,4
0,57,0,4
0,62,0,1
0,57,78,1
0,66,99,0
0,38,91,0
0,42,86,0
0,62,85,3
0,42,0,1
0,38,0,0
0,66,78,7
0,66,0,52
0,64,103,1
0,38,0,13
0,57,0,12
0,66,0,3
0,62,0,1
0,57,62,3
0,62,65,0
0,42,59,0
0,42,0,4
0,64,0,27
0,66,99,1
0,62,0,14
0,62,52,2
0,62,0,46
0,57,0,1
0,45,84,1
0,57,71,0
0,35,95,0
0,42,68,0
0,42,0,4
0,35,0,0
0,62,73,2
0,66,77,6
0,57,0,80
0,66,0,1
0,57,68,3
0,35,89,0
0,42,58,0
0,42,0,4
0,35,0,0
0,66,0,86
0,57,0,4
0,57,64,2
0,38,91,0
0,42,85,0
0,62,0,4
0,42,0,0
0,38,0,0
0,62,87,1
0,66,76,7
0,45,0,43
0,57,0,35
0,66,0,3
0,40,89,3
0,57,66,0
0,62,63,0
0,62,0,0
0,64,103,0
0,42,57,0
0,42,0,4
0,66,0,75
0,74,0,6
0,54,76,1
0,50,0,1
0,62,0,4
0,57,0,0
0,40,0,3
0,64,0,1
0,42,92,1
0,57,64,0
0,66,101,0
0,35,108,0
0,42,69,0
0,42,0,4
0,35,0,0
0,61,82,1
0,66,73,7
0,57,0,79
0,66,0,1
0,66,0,3
0,57,71,1
0,61,100,0
0,42,59,0
0,42,0,4
0,61,0,59
0,57,75,23
0,69,75,0
0,57,0,6
0,61,0,1
0,57,77,3
0,61,99,0
0,38,91,0
0,42,86,0
0,42,0,4
0,38,0,0
0,61,83,2
0,66,75,5
0,61,0,36
0,59,93,17
0,57,0,18
0,61,0,6
0,66,0,5
0,57,65,3
0,61,57,0
0,42,59,0
0,42,0,4
0,42,0,20
0,59,0,7
0,61,101,1
0,61,0,14
0,61,60,2
0,69,0,37
0,57,0,0
0,61,79,1
0,73,79,0
0,61,0,8
0,57,0,0
0,37,91,2
0,57,78,0
0,35,95,0
0,42,68,0
0,42,0,4
0,35,0,0
0,61,84,1
0,66,76,6
0,66,0,82
0,61,0,0
0,57,0,1
0,57,59,2
0,61,58,0
0,35,89,0
0,42,58,0
0,42,0,4
0,35,0,0
0,73,0,68
0,61,0,0
0,37,0,14
0,62,75,0
0,74,75,0
0,61,0,8
0,57,0,0
0,42,89,2
0,57,73,0
0,38,91,0
0,42,85,0
0,42,0,4
0,38,0,0
0,61,79,1
0,66,71,6
0,61,0,71
0,66,0,10
0,57,0,0
0,57,61,4
0,59,98,0
0,35,89,0
0,42,57,0
0,42,0,4
0,35,0,0
0,74,0,70
0,62,0,0
0,54,0,11
0,52,72,1
0,59,73,0
0,76,73,0
0,57,0,6
0,61,0,0
0,59,0,3
0,40,92,1
0,42,0,0
0,59,78,0
0,64,103,0
0,35,108,0
0,42,69,0
0,64,85,4
0,42,0,0
0,35,0,0
0,67,77,7
0,64,0,79
0,67,0,2
0,59,0,2
0,64,0,1
0,59,64,1
0,64,71,0
0,66,102,0
0,42,59,0
0,42,0,4
0,66,0,83
0,59,0,7
0,64,0,1
0,59,78,1
0,67,99,0
0,38,91,0
0,42,86,0
0,64,85,3
0,42,0,1
0,38,0,0
0,67,78,7
0,67,0,52
0,66,100,1
0,59,0,25
0,67,0,3
0,64,0,1
0,59,62,3
0,64,65,0
0,42,59,0
0,42,0,4
0,66,0,23
0,67,99,5
0,40,0,11
0,64,0,3
0,64,60,2
0,76,0,37
0,59,0,0
0,59,71,1
0,74,71,0
0,64,0,8
0,59,0,1
0,47,85,1
0,59,71,0
0,35,95,0
0,42,68,0
0,42,0,4
0,35,0,0
0,64,73,2
0,67,77,6
0,59,0,80
0,67,0,1
0,59,68,3
0,35,89,0
0,42,58,0
0,42,0,4
0,35,0,0
0,59,0,90
0,40,91,2
0,59,64,0
0,38,91,0
0,42,85,0
0,64,0,4
0,42,0,0
0,38,0,0
0,64,87,1
0,47,0,2
0,67,76,5
0,59,0,78
0,67,0,3
0,67,0,2
0,59,66,1
0,64,63,0
0,64,0,0
0,69,103,0
0,42,57,0
0,42,0,4
0,40,0,76
0,74,0,5
0,59,0,0
0,52,0,0
0,45,72,1
0,57,77,0
0,73,77,0
0,64,0,5
0,59,0,0
0,69,0,4
0,45,85,1
0,61,64,0
0,66,102,0
0,35,108,0
0,42,69,0
0,42,0,4
0,35,0,0
0,64,82,1
0,69,73,7
0,61,0,79
0,69,0,1
0,61,71,4
0,42,59,0
0,42,0,4
0,66,0,20
0,64,99,24
0,61,0,44
0,64,0,1
0,61,77,3
0,38,91,0
0,42,86,0
0,42,0,4
0,38,0,0
0,64,83,2
0,69,75,5
0,45,0,66
0,61,0,5
0,64,0,6
0,69,0,5
0,40,87,3
0,61,65,0
0,64,57,0
0,42,59,0
0,42,0,4
0,64,0,42
0,64,60,2
0,40,0,46
0,64,0,0
0,61,0,0
0,33,78,2
0,61,78,0
0,35,95,0
0,42,68,0
0,42,0,4
0,35,0,0
0,64,84,1
0,69,76,6
0,64,0,31
0,45,106,49
0,69,0,2
0,64,0,0
0,61,0,1
0,61,59,2
0,64,58,0
0,35,89,0
0,42,58,0
0,42,0,4
0,35,0,0
0,45,0,15
0,45,104,22
0,45,0,26
0,45,108,26
0,64,0,1
0,61,0,0
0,61,73,2
0,38,91,0
0,42,85,0
0,42,0,4
0,38,0,0
0,64,79,1
0,69,71,6
0,69,0,81
0,61,0,0
0,61,61,4
0,66,102,0
0,35,89,0
0,42,57,0
0,42,0,4
0,35,0,0
0,33,0,28
0,73,0,51
0,57,0,0
0,45,0,0
0,45,0,2
0,50,72,1
0,61,0,6
0,64,0,0
0,66,0,3
0,38,85,1
0,57,78,0
0,69,99,0
0,35,108,0
0,42,69,0
0,62,85,4
0,42,0,0
0,35,0,0
0,66,77,7
0,50,104,5
0,62,0,74
0,66,0,2
0,69,0,1
0,57,0,1
0,57,64,2
