track,note,velocity,time
4,48,114,8720
4,43,112,270
4,40,110,235
4,36,112,270
4,41,108,175
4,36,116,260
4,41,112,245
4,36,114,240
4,40,114,260
4,44,108,260
4,47,104,270
4,40,110,245
4,33,116,155
4,33,114,275
4,33,116,235
4,33,114,220
4,38,118,195
4,42,112,495
4,45,108,60
4,33,104,185
4,33,112,230
4,37,114,440
4,40,110,70
4,28,112,215
4,33,110,240
4,37,110,405
4,40,104,60
4,33,112,155
4,38,112,245
4,42,114,405
4,45,108,55
4,33,112,230
4,38,110,280
4,43,104,3570
4,40,112,185
4,38,114,220
4,35,110,245
4,31,114,135
4,34,106,205
4,38,104,280
4,40,102,195
4,45,110,230
4,45,112,550
4,45,110,70
4,33,106,230
4,33,116,175
4,37,114,365
4,40,112,60
4,40,114,180
4,38,116,210
4,38,114,710
4,33,108,675
4,33,108,85
4,33,112,65
4,33,114,155
4,33,110,135
4,33,112,65
4,33,110,75
4,38,116,135
4,45,116,385
4,38,114,135
4,45,120,75
4,40,112,160
4,45,112,380
4,40,116,145
4,45,116,65
4,40,114,265
4,45,112,340
4,40,114,125
4,45,114,35
4,38,116,205
4,45,114,385
4,38,112,65
4,45,112,75
4,33,116,245
4,38,116,315
4,38,110,50
4,38,106,190
4,45,114,205
4,38,104,165
4,38,116,185
4,38,92,80
4,43,116,195
4,38,114,190
4,38,114,190
4,43,118,175
4,38,116,215
4,38,114,215
4,38,112,165
4,45,114,190
4,33,114,25
4,45,114,240
4,33,112,200
4,45,114,260
4,33,118,95
4,33,110,115
4,38,116,195
4,38,114,220
4,38,116,85
4,38,114,115
4,38,116,130
4,45,94,435
4,43,94,30
4,41,90,10
4,40,100,10
4,48,114,8225
4,43,112,270
4,40,110,235
4,36,112,270
4,41,108,175
4,36,116,260
4,41,112,245
4,36,114,240
4,40,114,260
4,44,108,260
4,47,104,270
4,40,110,245
4,33,116,155
4,33,114,275
4,33,116,235
4,33,114,220
4,38,118,195
4,42,112,495
4,45,108,60
4,33,104,185
4,33,112,230
4,37,114,440
4,40,110,70
4,28,112,215
4,33,110,240
4,37,110,405
4,40,104,60
4,33,112,155
4,38,112,245
4,42,114,405
4,45,108,55
4,33,112,230
4,38,110,280
4,43,104,3570
4,40,112,185
4,38,114,220
4,35,110,245
4,31,114,135
4,34,106,205
4,38,104,280
4,40,102,195
4,45,110,230
4,45,112,550
4,45,110,70
4,33,106,230
4,33,116,175
4,37,114,365
4,40,112,60
4,40,114,180
4,38,116,210
4,38,114,710
4,34,110,675
4,34,110,115
4,34,114,115
4,34,112,80
4,39,110,225
4,39,112,280
4,39,114,270
4,39,114,275
4,34,110,110
4,46,112,10
4,46,108,340
4,46,106,305
4,46,114,285
4,41,108,55
4,46,112,10
4,46,112,335
4,46,110,330
4,46,112,260
4,41,110,70
4,39,112,10
4,39,112,225
4,39,110,225
4,39,112,240
4,34,108,10
4,39,110,10
4,44,104,3570
4,41,112,185
4,39,114,220
4,36,110,245
4,32,114,135
4,35,106,205
4,39,104,280
4,41,102,195
4,46,110,230
4,46,112,550
4,46,110,70
4,34,106,230
4,34,116,175
4,38,114,365
4,41,112,60
4,41,114,180
4,34,114,450
4,34,116,90
4,34,114,70
4,34,118,155
4,34,116,140
4,34,108,60
4,34,114,125
4,34,112,135
4,39,112,140
5,64,110,8720
5,67,106,0
5,70,108,0
5,64,104,430
5,67,104,0
5,70,100,0
5,64,108,425
5,67,112,0
5,70,108,0
5,64,64,435
5,67,90,0
5,70,94,0
5,64,114,210
5,67,118,0
5,70,114,0
5,60,106,60
5,65,96,0
5,69,92,0
5,60,104,400
5,65,106,0
5,69,102,0
5,60,102,415
5,65,104,0
5,69,98,0
5,60,106,430
5,65,112,0
5,69,106,0
5,60,116,195
5,65,116,0
5,69,116,0
5,62,110,75
5,64,106,0
5,68,114,0
5,71,114,0
5,62,106,430
5,64,104,0
5,68,106,0
5,71,108,0
5,62,106,440
5,64,104,0
5,68,106,0
5,71,110,0
5,62,102,425
5,64,98,0
5,68,104,0
5,71,102,0
5,62,114,205
5,64,112,0
5,68,118,0
5,71,114,0
5,61,116,30
5,64,116,0
5,69,112,0
5,61,112,430
5,64,114,0
5,69,116,0
5,61,102,430
5,64,110,0
5,69,110,0
5,61,100,430
5,64,104,0
5,69,108,0
5,61,110,200
5,64,114,0
5,69,112,0
5,62,106,90
5,66,106,0
5,69,114,0
5,74,104,0
5,62,108,745
5,66,100,0
5,69,112,0
5,74,110,0
5,62,110,115
5,66,106,0
5,69,112,0
5,74,102,0
5,62,118,425
5,66,114,0
5,69,112,0
5,74,112,0
5,64,112,410
5,67,114,0
5,73,108,0
5,64,112,740
5,67,112,0
5,73,110,0
5,64,114,105
5,67,116,0
5,73,110,0
5,64,114,420
5,67,112,0
5,73,110,0
5,64,112,415
5,67,116,0
5,73,112,0
5,64,114,730
5,67,116,0
5,73,112,0
5,64,112,105
5,67,116,0
5,73,110,0
5,64,114,410
5,67,102,0
5,73,114,0
5,62,110,400
5,66,108,0
5,69,114,0
5,74,94,0
5,62,108,730
5,66,104,0
5,69,112,0
5,74,84,0
5,62,114,110
5,66,114,0
5,69,116,0
5,74,112,0
5,62,114,415
5,66,108,0
5,69,112,0
5,74,108,0
5,62,104,415
5,66,108,0
5,69,110,0
5,74,114,0
5,72,122,395
5,76,114,0
5,71,112,30
5,74,106,0
5,69,114,30
5,72,112,0
5,66,110,30
5,69,94,0
5,62,112,30
5,66,106,0
5,60,104,30
5,64,106,0
5,59,102,30
5,62,102,0
5,67,102,60
5,71,102,0
5,71,92,55
5,74,100,0
5,74,92,60
5,70,86,10
5,45,108,560
5,57,110,0
5,62,114,0
5,66,104,0
5,45,116,560
5,57,114,0
5,62,118,0
5,66,112,0
5,45,112,70
5,57,104,0
5,62,106,0
5,66,108,0
5,45,114,290
5,57,106,0
5,62,110,0
5,66,104,0
5,45,106,275
5,57,102,0
5,61,100,0
5,64,104,0
5,69,104,0
5,45,112,630
5,57,106,0
5,61,102,0
5,64,102,0
5,69,100,0
5,45,108,80
5,57,106,0
5,61,106,0
5,64,108,0
5,69,112,0
5,45,108,245
5,57,108,0
5,61,110,0
5,64,110,0
5,69,112,0
5,69,110,305
5,74,114,0
5,78,104,0
5,74,102,415
5,78,102,10
5,76,100,10
5,79,86,0
5,78,100,10
5,81,108,0
5,79,88,35
5,83,106,20
5,81,104,40
5,85,100,5
5,81,90,75
5,85,90,0
5,82,90,10
5,64,110,31455
5,67,106,0
5,70,108,0
5,64,104,430
5,67,104,0
5,70,100,0
5,64,108,425
5,67,112,0
5,70,108,0
5,64,64,435
5,67,90,0
5,70,94,0
5,64,114,210
5,67,118,0
5,70,114,0
5,60,106,60
5,65,96,0
5,69,92,0
5,60,104,400
5,65,106,0
5,69,102,0
5,60,102,415
5,65,104,0
5,69,98,0
5,60,106,430
5,65,112,0
5,69,106,0
5,60,116,195
5,65,116,0
5,69,116,0
5,62,110,75
5,64,106,0
5,68,114,0
5,71,114,0
5,62,106,430
5,64,104,0
5,68,106,0
5,71,108,0
5,62,106,440
5,64,104,0
5,68,106,0
5,71,110,0
5,62,102,425
5,64,98,0
5,68,104,0
5,71,102,0
5,62,114,205
5,64,112,0
5,68,118,0
5,71,114,0
5,61,116,30
5,64,116,0
5,69,112,0
5,61,112,430
5,64,114,0
5,69,116,0
5,61,102,430
5,64,110,0
5,69,110,0
5,61,100,430
5,64,104,0
5,69,108,0
5,61,110,200
5,64,114,0
5,69,112,0
5,62,106,90
5,66,106,0
5,69,114,0
5,74,104,0
5,62,108,745
5,66,100,0
5,69,112,0
5,74,110,0
5,62,110,115
5,66,106,0
5,69,112,0
5,74,102,0
5,62,118,425
5,66,114,0
5,69,112,0
5,74,112,0
5,64,112,410
5,67,114,0
5,73,108,0
5,64,112,740
5,67,112,0
5,73,110,0
5,64,114,105
5,67,116,0
5,73,110,0
5,64,114,420
5,67,112,0
5,73,110,0
5,64,112,415
5,67,116,0
5,73,112,0
5,64,114,730
5,67,116,0
5,73,112,0
5,64,112,105
5,67,116,0
5,73,110,0
5,64,114,410
5,67,102,0
5,73,114,0
5,62,110,400
5,66,108,0
5,69,114,0
5,74,94,0
5,62,108,730
5,66,104,0
5,69,112,0
5,74,84,0
5,62,114,110
5,66,114,0
5,69,116,0
5,74,112,0
5,62,114,415
5,66,108,0
5,69,112,0
5,74,108,0
5,62,104,415
5,66,108,0
5,69,110,0
5,74,114,0
5,72,122,395
5,76,114,0
5,71,112,30
5,74,106,0
5,69,114,30
5,72,112,0
5,66,110,30
5,69,94,0
5,62,112,30
5,66,106,0
5,60,104,30
5,64,106,0
5,59,102,30
5,62,102,0
5,67,102,30
5,71,102,0
5,71,92,55
5,74,100,0
5,74,92,100
5,70,86,10
5,45,108,560
5,57,110,0
5,62,114,0
5,66,104,0
5,45,116,560
5,57,114,0
5,62,118,0
5,66,112,0
5,45,112,70
5,57,104,0
5,62,106,0
5,66,108,0
5,45,114,290
5,57,106,0
5,62,110,0
5,66,104,0
5,45,106,275
5,57,102,0
5,61,100,0
5,64,104,0
5,69,104,0
5,45,112,630
5,57,106,0
5,61,102,0
5,64,102,0
5,69,100,0
5,45,108,80
5,57,106,0
5,61,106,0
5,64,108,0
5,69,112,0
5,45,108,245
5,57,108,0
5,61,110,0
5,64,110,0
5,69,112,0
5,69,110,305
5,74,114,0
5,78,104,0
5,74,102,415
5,78,102,10
5,76,100,10
5,79,86,0
5,78,100,10
5,81,108,0
5,79,88,40
5,83,106,20
5,81,104,40
5,85,100,5
5,65,106,75
5,70,108,0
5,74,104,0
5,65,116,345
5,70,114,0
5,74,110,0
5,65,108,170
5,70,110,0
5,74,110,0
5,65,110,150
5,70,114,0
5,74,108,0
5,65,102,160
5,70,112,0
5,74,108,0
5,65,110,155
5,70,112,0
5,74,106,0
5,65,102,160
5,70,110,0
5,74,106,0
5,58,106,155
5,63,110,0
5,67,108,0
5,58,104,420
5,63,106,0
5,67,104,0
5,58,98,430
5,63,100,0
5,67,102,0
5,58,80,425
5,63,104,0
5,67,84,0
5,58,114,210
5,63,116,0
5,67,116,0
5,56,84,30
5,62,96,0
5,65,80,0
5,56,100,410
5,62,106,0
5,65,106,0
5,56,102,430
5,62,104,0
5,65,100,0
5,56,112,670
5,62,118,0
5,65,114,0
5,56,102,415
5,62,106,0
5,65,98,0
5,56,94,430
5,62,100,0
5,65,96,0
5,56,82,435
5,58,112,210
5,63,112,0
5,67,112,0
5,58,100,420
5,63,106,0
5,67,104,0
5,58,96,430
5,63,102,0
5,67,100,0
5,58,86,430
5,63,102,0
5,67,86,0
5,58,110,205
5,63,116,0
5,67,114,0
5,63,104,110
5,67,108,0
5,70,110,0
5,75,114,0
5,73,122,395
5,77,114,0
5,72,112,30
5,75,106,0
5,70,114,30
5,73,112,0
5,67,110,30
5,70,94,0
5,63,112,30
5,67,106,0
5,61,104,30
5,65,106,0
5,60,102,30
5,63,102,0
5,68,102,30
5,72,102,0
5,72,92,55
5,75,100,0
5,75,92,60
5,71,86,10
5,46,108,560
5,58,110,0
5,63,114,0
5,67,104,0
5,46,116,560
5,58,114,0
5,63,118,0
5,67,112,0
5,46,112,70
5,58,104,0
5,63,106,0
5,67,108,0
5,46,114,290
5,58,106,0
5,63,110,0
5,67,104,0
5,46,106,275
5,58,102,0
5,62,100,0
5,65,104,0
5,70,104,0
5,46,112,630
5,58,106,0
5,62,102,0
5,65,102,0
5,70,100,0
5,46,108,80
5,58,106,0
5,62,106,0
5,65,108,0
5,70,112,0
5,46,108,245
5,58,108,0
5,62,110,0
5,65,110,0
5,70,112,0
5,65,90,665
5,70,106,0
5,65,86,70
5,70,104,0
5,65,92,45
5,70,96,0
5,65,106,55
5,70,114,0
5,65,110,180
5,70,114,0
5,65,102,165
5,70,116,0
5,65,104,160
5,70,112,0
5,65,102,155
5,70,114,0
5,70,114,165
5,75,104,0
6,62,104,600
6,65,104,30
6,62,104,15
6,64,110,35
6,64,112,40
6,67,106,20
6,64,102,15
6,65,106,40
6,65,108,40
6,69,104,20
6,65,106,10
6,67,114,35
6,67,110,55
6,70,102,20
6,67,102,15
6,69,112,30
6,69,112,105
6,69,116,70
6,71,114,45
6,71,102,60
6,71,104,65
6,71,108,70
6,73,102,65
6,74,116,1325
6,72,114,75
6,74,114,210
6,72,114,65
6,74,116,90
6,72,114,65
6,74,116,15
6,72,116,65
6,74,110,160
6,72,112,55
6,74,116,80
6,72,114,65
6,77,118,0
6,76,114,55
6,77,114,190
6,76,116,65
6,77,116,80
6,76,112,45
6,77,112,55
6,76,120,35
6,76,116,85
6,69,108,10
6,71,116,330
6,69,114,50
6,71,116,20
6,69,114,50
6,71,116,140
6,69,102,40
6,67,104,45
6,61,104,85
6,71,118,10
6,69,110,40
6,71,118,10
6,69,94,20
6,71,116,175
6,69,98,10
6,66,92,30
6,62,96,35
6,76,110,25
6,74,114,30
6,72,112,8
6,69,112,40
6,66,112,15
6,64,108,25
6,62,106,35
6,71,102,10
6,74,104,20
6,70,102,45
6,71,116,2500
6,69,90,30
6,71,116,140
6,69,104,10
6,71,114,55
6,69,108,25
6,73,114,115
6,69,108,10
6,74,118,125
6,62,104,27065
6,65,104,30
6,62,104,15
6,64,110,35
6,64,112,40
6,67,106,20
6,64,102,15
6,65,106,40
6,65,108,40
6,69,104,20
6,65,106,10
6,67,114,35
6,67,110,55
6,70,102,20
6,67,102,15
6,69,112,30
6,69,112,105
6,69,116,70
6,71,114,45
6,71,102,60
6,71,104,65
6,71,108,70
6,73,102,65
6,74,116,1325
6,72,114,75
6,74,114,210
6,72,114,65
6,74,116,90
6,72,114,65
6,74,116,15
6,72,116,65
6,74,110,160
6,72,112,55
6,74,116,80
6,72,114,65
6,77,118,0
6,76,114,55
6,77,114,190
6,76,116,65
6,77,116,80
6,76,112,45
6,77,112,55
6,76,120,35
6,76,116,85
6,69,108,10
6,71,116,330
6,69,114,50
6,71,116,20
6,69,114,50
6,71,116,140
6,69,102,40
6,67,104,45
6,61,104,85
6,71,118,10
6,69,110,40
6,71,118,10
6,69,94,20
6,71,116,175
6,69,98,10
6,66,92,30
6,62,96,35
6,76,110,25
6,74,114,30
6,72,112,8
6,69,112,40
6,66,112,15
6,64,108,25
6,62,106,35
6,71,102,10
6,74,104,20
6,70,102,45
6,71,114,2485
6,69,100,50
6,71,114,180
6,69,100,15
6,71,116,180
6,69,96,10
6,73,114,170
6,69,118,25
6,74,116,125
6,72,116,3730
6,70,114,50
6,72,116,20
6,70,114,50
6,72,116,140
6,70,102,40
6,68,104,45
6,62,104,85
6,72,118,10
6,70,110,40
6,72,118,10
6,70,94,20
6,72,116,175
6,70,98,10
6,67,92,30
6,63,96,35
6,77,110,25
6,75,114,30
6,73,112,8
6,70,112,40
6,67,112,15
6,65,108,25
6,63,106,35
6,72,102,10
6,75,104,20
6,71,102,45
6,72,114,2485
6,70,100,50
6,72,114,180
6,70,100,15
6,72,116,180
6,70,96,10
6,74,114,170
6,70,118,25
6,75,116,125
7,59,120,16155
7,57,116,10
7,59,120,3325
7,57,112,10
7,47,110,11075
7,59,114,0
7,45,102,10
7,57,112,0
7,59,122,1460
7,57,112,45
7,59,120,150
7,57,106,30
7,59,122,140
7,57,112,30
7,61,120,120
7,57,118,15
7,62,122,120
7,59,120,42580
7,57,120,10
7,59,118,3370
7,57,114,10
7,47,110,11030
7,59,114,0
7,45,102,10
7,57,112,0
7,59,124,1460
7,57,110,25
7,59,120,180
7,57,110,30
7,59,122,190
7,57,112,10
7,61,120,160
7,57,112,40
7,62,124,130
7,60,120,3690
7,58,120,10
7,60,118,3370
7,58,114,10
7,48,110,11030
7,60,114,0
7,46,102,10
7,58,112,0
7,60,124,1460
7,58,110,25
7,60,120,180
7,58,110,30
7,60,122,190
7,58,112,10
7,62,120,160
7,58,112,40
7,63,124,130
8,59,118,39480
8,57,112,40
8,58,112,1040
8,59,104,5
8,57,112,30
8,59,118,140
8,57,112,45
8,55,116,20
8,49,108,35
