track,note,velocity,time
3,35,115,49
3,35,0,957
3,23,115,3
3,23,0,669
3,27,109,3
3,27,0,93
3,28,114,3
3,28,0,365
3,30,115,19
3,30,0,350
3,35,115,34
3,35,0,525
3,30,109,3
3,30,0,237
3,23,115,3
3,23,0,669
3,27,109,3
3,27,0,93
3,28,114,3
3,28,0,365
3,30,115,19
3,30,0,363
3,35,115,21
3,35,0,477
3,37,100,3
3,37,0,93
3,39,111,3
3,39,0,93
3,42,107,3
3,42,0,93
3,45,104,3
3,45,0,765
3,28,115,3
3,28,0,381
3,30,114,3
3,30,0,381
3,32,116,3
3,32,0,381
3,30,114,3
3,30,0,381
3,28,115,3
3,28,0,381
3,30,114,3
3,42,109,3
3,42,0,285
3,35,116,3
3,35,0,370
3,39,114,14
3,39,0,381
3,40,117,3
3,40,0,285
3,40,102,3
3,40,0,86
3,42,116,10
3,42,0,381
3,44,117,3
3,44,0,285
3,44,102,3
3,44,0,86
3,42,116,10
3,42,0,381
3,40,117,3
3,40,0,285
3,40,102,3
3,40,0,86
3,42,116,10
3,42,0,381
3,35,116,3
3,35,0,370
3,39,114,14
3,39,0,381
3,40,117,3
3,40,0,285
3,40,102,3
3,40,0,86
3,42,116,10
3,42,0,381
3,44,117,3
3,44,0,285
3,44,102,3
3,44,0,86
3,42,116,10
3,42,0,381
3,40,117,3
3,40,0,285
3,40,102,3
3,40,0,86
3,42,116,10
3,42,0,381
3,35,115,3
3,35,0,525
3,30,109,3
3,30,0,237
3,23,115,3
3,23,0,669
3,27,109,3
3,27,0,93
3,28,114,3
3,28,0,365
3,30,115,19
3,30,0,350
3,35,115,34
3,35,0,525
3,30,109,3
3,30,0,237
3,23,115,3
3,23,0,669
3,27,109,3
3,27,0,93
3,28,114,3
3,28,0,365
3,30,115,19
3,30,0,363
3,35,115,21
3,35,0,477
3,37,100,3
3,37,0,93
3,39,111,3
3,39,0,93
3,42,107,3
3,42,0,93
3,45,104,3
3,45,0,765
3,28,115,3
3,28,0,381
3,30,114,3
3,30,0,381
3,32,116,3
3,32,0,381
3,30,114,3
3,30,0,381
3,28,115,3
3,28,0,381
3,30,114,3
3,42,109,3
3,42,0,285
3,35,116,3
3,35,0,370
3,39,114,14
3,39,0,381
3,40,117,3
3,40,0,285
3,40,102,3
3,40,0,86
3,42,116,10
3,42,0,381
3,44,117,3
3,44,0,285
3,44,102,3
3,44,0,86
3,42,116,10
3,42,0,381
3,40,117,3
3,40,0,285
3,40,102,3
3,40,0,86
3,42,116,10
3,42,0,381
3,35,116,3
3,35,0,370
3,39,114,14
3,39,0,381
3,40,117,3
3,40,0,285
3,40,102,3
3,40,0,86
3,42,116,10
3,42,0,381
3,44,117,3
3,44,0,285
3,44,102,3
3,44,0,86
3,42,116,10
3,42,0,381
3,40,117,3
3,40,0,285
3,40,102,3
3,40,0,86
3,42,116,10
3,42,0,381
3,40,117,3
3,40,0,285
3,40,102,3
3,40,0,86
3,39,117,10
3,39,0,285
3,39,102,3
3,39,0,86
3,37,117,10
3,37,0,285
3,37,102,3
3,37,0,86
3,35,117,10
3,35,0,285
3,35,102,3
3,35,0,86
3,40,117,10
3,40,0,285
3,40,102,3
3,40,0,86
3,39,117,10
3,39,0,285
3,39,102,3
3,39,0,86
3,37,117,10
3,37,0,285
3,37,102,3
3,37,0,86
3,42,117,10
3,42,0,237
3,30,117,3
3,30,0,45
3,34,117,3
3,34,0,45
3,37,117,3
3,37,0,45
3,42,117,3
3,42,0,141
3,30,117,3
3,30,0,45
3,33,117,3
3,33,0,45
3,37,117,3
3,37,0,45
3,42,117,3
3,42,0,93
3,35,116,3
3,35,0,370
3,39,114,14
3,39,0,381
3,40,117,3
3,40,0,285
3,40,102,3
3,40,0,86
3,42,116,10
3,42,0,381
3,44,117,3
3,44,0,285
3,44,102,3
3,44,0,86
3,42,116,10
3,42,0,381
3,40,117,3
3,40,0,285
3,40,102,3
3,40,0,86
3,42,116,10
3,42,0,381
3,35,116,3
3,27,116,3
3,27,0,189
3,28,116,3
3,28,0,765
3,35,116,3
3,27,116,3
3,27,0,189
3,28,116,3
3,24,116,3
3,24,0,189
3,23,114,3
3,23,0,663
3,23,108,9
3,23,0,91
3,23,116,5
3,23,0,237
3,49,67,0
3,47,64,2
3,47,0,45
3,42,64,3
3,42,0,45
3,23,117,3
3,23,0,141
3,47,64,3
3,47,0,93
3,42,64,3
3,42,0,45
3,51,64,0
3,49,67,3
3,49,0,285
3,47,64,3
3,47,0,45
3,42,64,3
3,42,0,45
3,23,117,3
3,23,0,141
3,47,64,3
3,47,0,93
3,42,64,3
3,42,0,45
3,49,67,3
3,49,0,477
3,23,64,3
3,23,0,765
4,59,72,10568
4,59,0,1431
4,52,64,9
4,56,65,0
4,59,65,0
4,52,0,381
4,56,0,0
4,54,68,3
4,61,67,0
4,59,0,189
4,58,64,3
4,54,0,189
4,58,0,0
4,61,0,0
4,54,66,3
4,59,66,0
4,63,66,0
4,63,0,570
4,54,0,960
4,59,0,0
4,52,64,6
4,56,65,0
4,59,65,0
4,52,0,381
4,56,0,0
4,54,68,3
4,61,67,0
4,59,0,189
4,58,64,3
4,54,0,189
4,58,0,0
4,61,0,0
4,54,66,3
4,59,66,0
4,63,66,0
4,59,0,765
4,63,0,0
4,59,88,3
4,59,0,285
4,61,88,3
4,61,0,92
4,63,67,4
4,63,0,189
4,66,71,3
4,54,0,189
4,66,0,0
4,59,60,3
4,64,60,0
4,68,60,0
4,59,0,381
4,64,0,0
4,68,0,0
4,59,60,3
4,61,60,0
4,66,60,0
4,59,0,381
4,61,0,0
4,66,0,0
4,56,60,3
4,59,60,0
4,63,60,0
4,56,0,381
4,54,60,3
4,54,0,381
4,59,0,0
4,63,0,0
4,52,60,3
4,56,60,0
4,59,60,0
4,52,0,381
4,56,0,0
4,59,0,0
4,54,60,3
4,59,60,0
4,61,60,0
4,59,0,189
4,58,60,3
4,54,0,189
4,58,0,0
4,61,0,0
4,54,65,3
4,59,65,0
4,63,65,0
4,54,0,381
4,55,65,3
4,55,0,381
4,56,65,3
4,56,0,381
4,59,0,0
4,63,0,0
4,54,65,3
4,59,65,0
4,61,65,0
4,59,0,189
4,58,65,3
4,54,0,189
4,58,0,0
4,61,0,0
4,56,65,3
4,59,65,0
4,63,65,0
4,56,0,381
4,54,65,3
4,54,0,381
4,59,0,0
4,63,0,0
4,52,65,3
4,56,65,0
4,59,65,0
4,52,0,381
4,56,0,0
4,59,0,0
4,54,65,3
4,59,65,0
4,61,65,0
4,59,0,189
4,58,65,3
4,54,0,189
4,58,0,0
4,61,0,0
4,54,65,3
4,59,65,0
4,63,65,0
4,54,0,381
4,55,65,3
4,55,0,381
4,56,65,3
4,56,0,381
4,59,0,0
4,63,0,0
4,54,65,3
4,59,65,0
4,61,65,0
4,59,0,189
4,58,65,3
4,54,0,189
4,58,0,0
4,61,0,0
4,56,65,3
4,59,65,0
4,63,65,0
4,56,0,381
4,54,65,3
4,54,0,381
4,59,0,0
4,63,0,0
4,52,65,3
4,56,65,0
4,59,65,0
4,52,0,381
4,56,0,0
4,59,0,0
4,54,65,3
4,59,65,0
4,61,65,0
4,59,0,189
4,58,65,3
4,54,0,189
4,58,0,0
4,61,0,0
4,54,66,3
4,59,66,0
4,63,66,0
4,63,0,570
4,54,0,960
4,59,0,0
4,52,64,6
4,56,65,0
4,59,65,0
4,52,0,381
4,56,0,0
4,54,68,3
4,61,67,0
4,59,0,189
4,58,64,3
4,54,0,189
4,58,0,0
4,61,0,0
4,54,66,3
4,59,66,0
4,63,66,0
4,63,0,570
4,54,0,960
4,59,0,0
4,52,64,6
4,56,65,0
4,59,65,0
4,52,0,381
4,56,0,0
4,54,68,3
4,61,67,0
4,59,0,189
4,58,64,3
4,54,0,189
4,58,0,0
4,61,0,0
4,54,66,3
4,59,66,0
4,63,66,0
4,59,0,765
4,63,0,0
4,59,88,3
4,59,0,285
4,61,88,3
4,61,0,92
4,63,67,4
4,63,0,189
4,66,71,3
4,54,0,189
4,66,0,0
4,59,60,3
4,64,60,0
4,68,60,0
4,59,0,381
4,64,0,0
4,68,0,0
4,59,60,3
4,61,60,0
4,66,60,0
4,59,0,381
4,61,0,0
4,66,0,0
4,56,60,3
4,59,60,0
4,63,60,0
4,56,0,381
4,54,60,3
4,54,0,381
4,59,0,0
4,63,0,0
4,52,60,3
4,56,60,0
4,59,60,0
4,52,0,381
4,56,0,0
4,59,0,0
4,54,60,3
4,59,60,0
4,61,60,0
4,59,0,189
4,58,60,3
4,54,0,189
4,58,0,0
4,61,0,0
4,54,65,3
4,59,65,0
4,63,65,0
4,54,0,381
4,55,65,3
4,55,0,381
4,56,65,3
4,56,0,381
4,59,0,0
4,63,0,0
4,54,65,3
4,59,65,0
4,61,65,0
4,59,0,189
4,58,65,3
4,54,0,189
4,58,0,0
4,61,0,0
4,56,65,3
4,59,65,0
4,63,65,0
4,56,0,381
4,54,65,3
4,54,0,381
4,59,0,0
4,63,0,0
4,52,65,3
4,56,65,0
4,59,65,0
4,52,0,381
4,56,0,0
4,59,0,0
4,54,65,3
4,59,65,0
4,61,65,0
4,59,0,189
4,58,65,3
4,54,0,189
4,58,0,0
4,61,0,0
4,54,65,3
4,59,65,0
4,63,65,0
4,54,0,381
4,55,65,3
4,55,0,381
4,56,65,3
4,56,0,381
4,59,0,0
4,63,0,0
4,54,65,3
4,59,65,0
4,61,65,0
4,59,0,189
4,58,65,3
4,54,0,189
4,58,0,0
4,61,0,0
4,56,65,3
4,59,65,0
4,63,65,0
4,56,0,381
4,54,65,3
4,54,0,381
4,59,0,0
4,63,0,0
4,52,65,3
4,56,65,0
4,59,65,0
4,52,0,381
4,56,0,0
4,59,0,0
4,54,65,3
4,59,65,0
4,61,65,0
4,59,0,189
4,58,65,3
4,54,0,189
4,58,0,0
4,61,0,0
4,66,57,2691
4,71,58,0
4,73,57,0
4,71,0,573
4,70,61,3
4,66,0,189
4,70,0,0
4,73,0,0
4,54,65,3
4,59,65,0
4,63,65,0
4,54,0,381
4,55,65,3
4,55,0,381
4,56,65,3
4,56,0,381
4,59,0,0
4,63,0,0
4,54,65,3
4,59,65,0
4,61,65,0
4,59,0,189
4,58,65,3
4,54,0,189
4,58,0,0
4,61,0,0
4,56,65,3
4,59,65,0
4,63,65,0
4,56,0,381
4,54,65,3
4,54,0,381
4,59,0,0
4,63,0,0
4,52,65,3
4,56,65,0
4,59,65,0
4,52,0,381
4,56,0,0
4,59,0,0
4,54,65,3
4,59,65,0
4,61,65,0
4,59,0,189
4,58,65,3
4,54,0,189
4,58,0,0
4,61,0,0
4,59,60,3
4,63,60,0
4,66,60,0
4,59,0,765
4,63,0,0
4,66,0,0
4,59,60,3
4,64,60,0
4,68,60,0
4,59,0,765
4,64,0,0
4,68,0,0
4,59,60,3
4,63,60,0
4,66,60,0
4,59,0,765
4,63,0,0
4,66,0,0
4,59,60,3
4,64,60,0
4,68,60,0
4,59,0,765
4,64,0,0
4,68,0,0
4,59,52,3
4,63,52,0
4,66,52,0
5,63,112,3115
5,63,0,28
5,63,110,18
5,63,0,28
5,63,109,24
5,63,0,132
5,61,105,5
5,61,0,55
5,59,105,3
5,59,0,87
5,58,103,3
5,58,0,43
5,56,104,3
5,56,0,90
5,52,99,3
5,52,0,178
5,56,104,31
5,56,0,59
5,59,104,3
5,59,0,64
5,58,103,5
5,58,0,77
5,54,101,3
5,54,0,149
5,58,107,34
5,58,0,58
5,61,104,3
5,61,0,60
5,59,104,11
5,59,0,79
5,54,101,3
5,54,0,125
5,63,106,832
5,63,0,33
5,63,108,16
5,63,0,33
5,63,106,24
5,63,0,132
5,61,104,3
5,61,0,54
5,59,103,5
5,59,0,90
5,58,103,3
5,58,0,49
5,56,104,6
5,56,0,92
5,52,99,3
5,52,0,133
5,56,105,52
5,56,0,67
5,59,103,8
5,59,0,74
5,58,102,3
5,58,0,130
5,54,105,55
5,54,0,64
5,58,106,3
5,58,0,59
5,61,103,3
5,61,0,59
5,59,103,3
5,59,0,87
5,63,101,3
5,63,0,212
5,63,109,754
5,63,0,31
5,63,109,18
5,63,0,31
5,63,109,18
5,63,0,34
5,63,108,13
5,63,0,52
5,64,106,5
5,64,0,173
5,63,106,3
5,63,0,59
5,64,104,3
5,64,0,97
5,59,104,5
5,59,0,112
5,64,108,81
5,64,0,54
5,64,109,16
5,64,0,44
5,64,108,15
5,64,0,65
5,64,107,13
5,64,0,49
5,64,105,13
5,64,0,132
5,63,105,3
5,63,0,40
5,63,105,18
5,63,0,86
5,63,104,15
5,63,0,104
5,59,110,128
5,59,0,31
5,59,110,18
5,59,0,33
5,59,108,21
5,59,0,44
5,59,107,13
5,59,0,129
5,61,104,3
5,61,0,90
5,63,106,3
5,63,0,52
5,59,104,8
5,59,0,95
5,56,105,3
5,56,0,76
5,59,107,160
5,59,0,25
5,59,110,24
5,59,0,25
5,59,111,24
5,59,0,44
5,58,107,5
5,58,0,36
5,58,107,13
5,58,0,30
5,58,106,16
5,58,0,39
5,63,108,13
5,63,0,50
5,61,105,3
5,61,0,132
5,59,103,3
5,59,0,230
5,63,112,819
5,63,0,28
5,63,110,18
5,63,0,28
5,63,109,24
5,63,0,132
5,61,105,5
5,61,0,55
5,59,105,3
5,59,0,87
5,58,103,3
5,58,0,43
5,56,104,3
5,56,0,90
5,52,99,3
5,52,0,178
5,56,104,31
5,56,0,59
5,59,104,3
5,59,0,64
5,58,103,5
5,58,0,78
5,58,107,185
5,58,0,58
5,61,104,3
5,61,0,60
5,59,104,11
5,59,0,79
5,54,101,3
5,54,0,125
5,63,107,833
5,63,0,29
5,63,108,18
5,63,0,31
5,63,108,20
5,63,0,55
5,61,103,5
5,61,0,125
5,59,103,5
5,59,0,94
5,58,102,5
5,58,0,49
5,56,103,3
5,56,0,100
5,52,100,3
5,52,0,115
5,56,109,107
5,56,0,39
5,59,107,7
5,59,0,62
5,58,103,3
5,58,0,65
5,54,102,5
5,54,0,94
5,58,107,80
5,58,0,67
5,61,105,3
5,61,0,68
5,59,107,5
5,59,0,82
5,63,106,3
5,63,0,237
5,63,109,727
5,63,0,31
5,63,109,18
5,63,0,31
5,63,109,18
5,63,0,34
5,63,108,13
5,63,0,52
5,64,106,5
5,64,0,173
5,63,106,3
5,63,0,59
5,64,104,3
5,64,0,97
5,59,104,5
5,59,0,112
5,64,108,81
5,64,0,54
5,64,109,16
5,64,0,44
5,64,108,15
5,64,0,65
5,64,107,13
5,64,0,49
5,64,105,13
5,64,0,132
5,63,105,3
5,63,0,40
5,63,105,18
5,63,0,173
5,59,110,160
5,59,0,31
5,59,110,18
5,59,0,33
5,59,108,21
5,59,0,92
5,59,108,52
5,59,0,42
5,61,104,3
5,61,0,90
5,63,106,3
5,63,0,52
5,59,104,8
5,59,0,95
5,56,105,3
5,56,0,76
5,59,107,144
5,59,0,28
5,59,108,24
5,59,0,25
5,59,108,24
5,59,0,46
5,58,107,3
5,58,0,36
5,58,107,18
5,58,0,88
5,63,107,8
5,63,0,45
5,61,107,3
5,61,0,127
5,59,105,3
5,59,0,109
5,66,116,3
5,66,0,49
5,64,112,5
5,64,0,95
5,63,118,3
5,63,0,89
5,61,114,8
5,61,0,145
5,59,106,3
5,59,0,122
5,58,109,3
5,58,0,65
5,59,108,5
5,59,0,74
5,63,104,3
5,63,0,282
5,61,106,3
5,61,0,48
5,63,106,3
5,63,0,93
5,64,104,3
5,64,0,96
5,63,105,3
5,63,0,96
5,61,103,5
5,61,0,96
5,63,114,131
5,63,0,56
5,61,111,3
5,61,0,89
5,59,108,5
5,59,0,100
5,58,109,3
5,58,0,133
5,56,107,5
5,56,0,144
5,55,114,3
5,55,0,68
5,56,111,3
5,56,0,68
5,59,108,3
5,59,0,217
5,61,111,53
5,61,0,46
5,59,107,3
5,59,0,45
5,61,108,3
5,61,0,37
5,61,108,18
5,61,0,31
5,61,107,15
5,61,0,48
5,59,106,3
5,59,0,46
