track,note,velocity,time
4,33,91,3066
4,33,91,404
4,33,91,408
4,28,91,416
4,28,91,402
4,28,91,256
4,40,91,54
4,38,91,28
4,37,91,14
4,35,91,0
4,33,91,0
4,35,91,18
4,36,91,0
4,37,91,368
4,38,91,16
4,39,91,0
4,40,91,18
4,28,91,18
4,30,91,0
4,33,91,0
4,35,91,16
4,37,91,34
4,40,91,382
4,28,91,348
4,38,91,348
4,37,91,336
4,35,91,0
4,28,91,0
4,30,91,16
4,32,91,368
4,33,91,18
4,35,91,32
4,37,91,400
4,35,91,352
4,38,91,18
4,40,91,50
4,35,91,400
4,28,91,0
4,33,91,46
4,35,91,0
4,37,91,384
4,40,91,16
4,45,91,0
4,44,91,16
4,42,91,16
4,40,91,370
4,38,91,0
4,37,91,0
4,35,91,384
4,33,91,32
4,40,91,384
4,33,91,0
4,36,91,0
4,37,91,370
4,38,91,0
4,37,91,382
4,35,91,14
4,33,91,68
4,39,91,404
4,40,91,46
4,42,91,374
4,35,91,346
4,40,91,0
4,45,91,18
4,33,91,0
4,37,91,386
4,35,91,340
4,39,91,0
4,40,91,32
4,28,91,384
4,33,91,32
4,35,91,386
4,37,91,354
4,40,91,36
4,45,91,0
4,43,91,16
4,42,91,382
4,40,91,356
4,38,91,0
4,37,91,32
4,35,91,18
4,33,91,384
4,38,91,364
4,30,91,364
4,31,91,54
4,32,91,0
4,33,91,50
4,37,91,18
4,38,91,0
4,40,91,50
4,42,91,16
4,43,91,16
4,45,91,16
4,47,91,386
4,45,91,18
4,37,91,18
4,40,91,368
4,39,91,18
4,38,91,30
4,42,91,18
4,40,91,382
4,38,91,44
4,35,91,374
4,33,91,0
4,30,83,366
4,26,91,34
4,35,91,30
4,35,91,62
4,37,91,36
4,38,91,384
4,39,91,36
4,42,91,0
4,44,91,370
4,45,91,52
4,40,91,16
4,47,91,14
4,45,91,402
4,44,91,328
4,42,91,0
4,40,91,18
4,39,91,370
4,40,91,0
4,30,91,14
4,35,91,1198
4,30,91,1250
4,40,91,256
4,38,91,0
4,37,91,384
4,35,91,36
4,33,91,18
4,35,91,34
4,36,91,368
4,37,91,368
4,38,91,36
4,39,91,0
4,40,91,0
4,28,91,18
4,30,91,16
4,33,91,18
4,35,91,14
4,37,91,34
4,40,91,384
4,28,91,0
4,38,91,368
4,37,91,0
4,35,91,0
4,28,91,0
4,30,91,16
4,32,91,370
4,33,91,18
4,35,91,32
4,37,91,384
4,35,91,366
4,38,91,32
4,40,91,46
4,35,91,384
4,28,91,0
4,33,91,50
4,35,91,384
4,37,91,352
4,40,91,20
4,45,91,16
4,44,91,14
4,42,91,0
4,40,91,386
4,38,91,0
4,37,91,0
4,35,91,384
4,33,91,36
4,40,91,382
4,33,91,0
4,36,91,386
4,37,91,368
4,38,91,0
4,37,91,384
4,35,91,14
4,33,91,66
4,39,91,396
4,40,91,28
4,42,91,400
4,35,91,342
4,40,91,22
4,45,91,0
4,33,91,0
4,37,91,386
4,35,91,0
4,39,91,366
4,40,91,30
4,28,91,374
4,33,91,48
4,35,91,372
4,37,91,352
4,40,91,34
4,45,91,0
4,43,91,14
4,42,91,388
4,40,91,350
4,38,91,18
4,37,91,16
4,35,91,14
4,33,91,386
4,38,91,0
4,30,91,368
4,31,91,50
4,32,91,18
4,33,91,48
4,37,91,0
4,38,91,18
4,40,91,52
4,42,91,16
4,43,91,18
4,45,91,14
4,47,91,382
4,45,91,18
4,37,91,32
4,40,91,368
4,39,91,16
4,38,91,34
4,42,91,14
4,40,91,372
4,38,91,32
4,35,91,402
4,33,91,352
4,30,83,352
4,26,91,30
4,35,91,32
4,35,91,50
4,37,91,34
4,38,91,386
4,39,91,32
4,42,91,370
4,44,91,352
4,45,91,50
4,40,91,14
4,47,91,14
4,45,91,388
4,44,91,318
4,42,91,0
4,40,91,0
4,38,91,386
4,40,91,0
4,30,91,14
4,35,91,1216
4,30,91,1250
4,40,91,1214
4,38,91,368
4,37,91,354
4,35,91,50
4,33,91,126
4,35,91,16
4,36,91,384
4,37,91,372
4,38,91,32
4,39,91,368
4,40,91,0
4,28,91,34
4,30,91,18
4,33,91,0
4,35,91,16
4,37,91,36
4,40,91,398
4,28,91,348
4,38,91,338
4,37,91,340
4,35,91,16
4,28,91,0
4,30,91,0
4,32,91,370
4,33,91,34
4,35,91,32
4,37,91,386
4,35,91,360
4,38,91,34
4,40,91,46
4,35,91,384
4,28,91,0
4,33,91,64
4,35,91,0
4,37,91,384
4,40,91,18
4,45,91,16
4,44,91,16
4,42,91,0
4,40,91,388
4,38,91,16
4,37,91,0
4,35,91,382
4,33,91,32
4,40,91,0
4,33,91,0
4,36,91,384
4,37,91,372
4,38,91,14
4,37,91,50
4,35,91,0
4,33,91,68
4,39,91,382
4,40,91,32
4,42,91,390
4,35,91,0
4,40,91,16
4,45,91,0
4,33,91,0
4,37,91,386
4,35,91,0
4,39,91,382
4,40,91,42
4,28,91,374
4,33,91,0
4,35,91,398
4,37,91,354
4,40,91,32
4,45,91,14
4,43,91,16
4,42,91,386
4,40,91,348
4,38,91,0
4,37,91,16
4,35,91,14
4,33,91,0
4,38,91,366
4,30,91,368
4,31,91,34
4,32,91,18
4,33,91,32
4,37,91,0
4,38,91,0
4,40,91,50
4,42,91,16
4,43,91,16
4,45,91,14
4,47,91,384
4,45,91,0
4,37,91,16
4,40,91,384
4,39,91,16
4,38,91,32
4,42,91,0
4,40,91,400
4,38,91,50
4,35,91,366
4,33,91,370
4,30,83,356
4,26,91,30
4,35,91,32
4,35,91,50
4,37,91,36
4,38,91,380
4,39,91,16
4,42,91,384
4,44,91,350
4,45,91,68
4,40,91,16
4,47,91,16
4,45,91,384
4,44,91,338
4,42,91,346
4,40,91,0
4,38,91,384
4,40,91,20
4,30,91,16
4,35,91,1202
4,30,91,1234
4,40,91,1200
4,38,91,384
4,37,91,0
4,35,91,68
4,33,91,126
4,35,91,14
4,36,91,384
4,37,91,366
4,38,91,16
4,39,91,384
4,40,91,0
4,28,91,18
4,30,91,0
4,33,91,0
4,35,91,16
4,37,91,34
4,40,91,384
4,28,91,350
4,38,91,336
4,37,91,334
4,35,91,0
4,28,91,0
4,30,91,0
4,32,91,382
4,33,91,16
4,35,91,32
4,37,91,382
4,35,91,0
4,38,91,16
4,40,91,46
4,35,91,384
4,28,91,0
4,33,91,48
4,35,91,0
4,37,91,384
4,40,91,36
4,45,91,0
4,44,91,0
4,42,91,0
4,40,91,382
4,38,91,0
4,37,91,0
4,35,91,384
4,33,91,50
4,40,91,366
4,33,91,0
4,36,91,384
4,37,91,348
4,38,91,0
4,37,91,48
4,35,91,0
4,33,91,86
4,39,91,362
4,40,91,44
4,42,91,378
4,35,91,0
4,40,91,0
4,45,91,0
4,33,91,0
4,37,91,0
4,35,91,0
4,39,91,0
4,42,91,20
4,30,91,0
4,40,91,30
4,36,91,386
4,37,91,386
4,38,91,50
4,39,91,0
4,40,91,32
4,42,91,408
4,35,91,0
4,40,91,0
4,45,91,0
4,33,91,0
4,37,91,380
4,35,91,0
4,37,91,34
4,38,91,68
4,39,91,48
4,40,91,32
4,42,91,48
4,43,91,50
4,44,91,46
4,45,91,46
4,40,91,502
4,45,91,500
4,40,91,482
4,45,91,3808
4,40,91,498
4,45,91,498
4,45,107,380
4,33,107,384
5,64,124,3026
5,45,127,18
5,61,127,0
5,57,127,0
5,69,124,48
5,45,127,20
5,64,127,0
5,61,127,0
5,69,120,2496
5,73,124,0
5,76,120,22
5,45,127,0
5,64,120,0
5,52,127,262
5,40,127,0
5,64,124,0
5,76,120,0
5,68,112,0
5,71,124,0
5,64,112,516
5,76,116,0
5,52,124,0
5,68,112,0
5,40,127,0
5,71,112,0
5,40,112,0
5,64,96,0
5,76,116,0
5,52,112,0
5,71,92,0
5,68,116,0
5,96,88,276
5,95,84,40
5,93,92,0
5,91,80,0
5,89,80,34
5,88,80,14
5,86,84,18
5,84,88,10
5,83,80,16
5,81,84,16
5,79,80,16
5,77,80,18
5,76,80,12
5,74,84,38
5,72,80,28
5,71,76,36
5,69,80,16
5,67,80,34
5,65,84,14
5,64,76,32
5,62,84,30
5,60,84,50
5,45,116,0
5,57,104,0
5,61,120,0
5,64,104,0
5,52,127,34
5,57,108,368
5,61,112,0
5,64,100,0
5,45,124,128
5,64,108,382
5,57,112,20
5,61,100,0
5,52,127,302
5,57,120,146
5,64,104,0
5,61,100,0
5,52,112,0
5,52,127,224
5,64,100,82
5,61,108,0
5,57,104,16
5,52,124,236
5,45,112,34
5,57,112,256
5,61,112,0
5,64,100,0
5,52,116,0
5,64,104,382
5,57,112,16
5,61,124,0
5,45,120,258
5,52,96,0
5,64,112,110
5,59,100,20
5,56,112,0
5,52,116,16
5,56,124,176
5,64,112,0
5,59,112,0
5,52,116,302
5,59,112,128
5,56,120,0
5,64,108,0
5,47,116,16
5,40,112,30
5,56,112,258
5,64,104,0
5,59,100,0
5,52,120,18
5,64,112,384
5,56,116,16
5,59,112,0
5,40,127,110
5,56,120,384
5,64,108,0
5,59,112,20
5,52,124,48
5,64,112,148
5,56,120,0
5,59,108,0
5,40,112,16
5,52,120,32
5,64,116,128
5,59,108,0
5,56,127,20
5,47,112,32
5,40,116,34
5,59,116,256
5,64,108,0
5,56,112,16
5,52,127,0
5,64,104,382
5,59,116,18
5,56,127,0
5,52,124,16
5,64,100,14
5,57,124,20
5,61,100,0
5,52,127,0
5,57,104,162
5,61,116,0
5,64,108,0
5,52,120,288
5,57,104,32
5,64,104,0
5,61,124,18
5,52,116,16
5,45,108,32
5,57,108,18
5,61,124,0
5,64,100,0
5,52,116,32
5,61,120,384
5,57,104,16
5,64,108,0
5,45,116,148
5,64,100,382
5,57,104,18
5,61,112,0
5,52,124,16
5,57,112,164
5,64,104,0
5,61,116,0
5,52,124,304
5,64,108,96
5,61,124,0
5,57,108,18
5,52,116,16
5,45,112,96
5,55,112,32
5,64,104,0
5,61,116,0
5,52,124,0
5,64,100,318
5,55,96,16
5,61,116,0
5,49,100,370
5,45,116,0
5,62,112,64
5,50,127,18
5,66,108,0
5,57,112,0
5,38,112,44
5,57,116,110
5,66,120,0
5,62,108,0
5,38,116,34
5,50,120,36
5,66,108,128
5,57,116,20
5,62,104,0
5,46,120,48
5,39,124,30
5,51,120,24
5,59,108,96
5,66,112,0
5,63,104,0
5,51,120,0
5,63,120,86
5,66,116,12
5,51,127,376
5,69,104,110
5,63,100,0
5,52,116,22
5,40,116,0
5,64,112,0
5,61,112,0
5,61,120,162
5,64,108,0
5,69,100,0
5,52,124,16
5,64,104,0
5,61,104,0
5,49,112,16
5,69,104,0
5,47,112,0
5,59,100,30
5,63,100,0
5,57,100,0
5,66,104,0
5,47,116,66
5,52,112,20
5,59,100,252
5,68,100,0
5,64,104,0
5,42,108,0
5,40,116,100
5,45,112,78
5,57,108,30
5,69,100,0
5,64,108,0
5,61,100,0
5,52,120,142
5,61,104,318
5,57,116,20
5,64,108,0
5,69,108,0
5,56,116,114
5,68,100,0
5,64,100,22
5,61,88,8
5,67,104,130
5,62,100,16
5,55,112,0
5,64,108,0
5,40,124,0
5,52,124,272
5,40,108,16
5,55,112,50
5,67,100,0
5,62,100,0
5,64,108,0
5,52,127,0
5,62,96,130
5,64,104,0
5,55,112,18
5,67,100,0
5,45,108,334
5,55,120,66
5,64,108,0
5,67,104,0
5,61,100,0
5,45,100,144
5,52,108,0
5,52,124,130
5,61,100,128
5,67,104,14
5,55,112,0
5,64,108,0
5,52,116,0
5,55,104,130
5,61,100,0
5,67,104,18
5,64,104,0
5,50,116,0
5,62,112,62
5,66,104,20
5,57,112,0
5,62,112,46
5,57,108,0
5,66,108,0
5,50,112,70
5,57,100,270
5,62,104,0
5,66,104,0
5,50,100,94
5,50,116,0
5,62,112,162
5,57,108,0
5,66,112,0
5,38,124,18
5,57,120,202
5,62,104,0
5,66,104,0
5,50,127,16
5,62,108,130
5,66,104,0
5,57,104,16
5,52,120,176
5,40,124,0
5,64,108,0
5,55,112,0
5,62,100,0
5,67,104,0
5,40,108,288
5,52,124,0
5,55,112,34
5,67,100,0
5,62,100,0
5,64,108,0
5,52,127,0
5,62,96,130
5,64,104,0
5,55,112,18
5,67,100,0
5,67,100,18
5,61,100,0
5,64,104,0
5,57,100,18
5,52,120,18
5,61,100,100
5,57,112,0
5,67,96,0
5,64,100,0
5,52,104,124
5,52,120,160
5,57,104,128
5,61,100,0
5,64,100,20
5,67,100,0
5,50,116,208
5,38,116,60
5,57,104,236
5,66,108,0
5,62,108,0
5,50,100,0
5,62,112,390
5,57,112,10
5,66,116,0
5,38,127,0
5,66,104,374
5,57,100,20
5,62,104,0
5,50,120,0
5,57,112,52
5,66,108,0
5,62,104,0
5,38,112,0
5,66,120,0
5,62,116,0
5,57,112,18
5,53,112,236
5,51,112,0
5,71,104,46
5,42,124,0
5,66,108,0
5,57,112,0
5,64,100,0
5,54,124,272
5,42,108,16
5,57,112,50
5,71,100,0
5,64,100,0
5,66,108,0
5,54,127,14
5,64,96,132
5,66,104,0
5,57,112,16
5,71,100,0
5,71,112,22
5,66,116,0
5,63,100,0
5,59,100,0
5,54,112,14
5,71,104,166
5,59,108,0
5,63,112,0
5,66,120,0
5,47,104,34
5,54,112,130
5,63,116,34
5,59,104,0
5,66,124,18
5,71,108,18
5,52,124,44
5,40,112,112
5,71,100,242
5,59,108,0
5,64,112,0
5,68,116,0
5,52,100,14
5,68,116,216
5,59,116,10
5,71,108,0
5,64,112,0
5,40,127,152
5,68,100,392
5,64,104,0
5,59,112,0
5,71,100,0
5,52,120,0
5,71,104,70
5,64,100,0
5,68,108,0
5,59,116,16
5,40,116,0
5,64,104,176
5,68,112,0
5,59,116,16
5,71,108,0
5,69,104,140
5,54,112,18
5,66,92,0
5,42,127,0
5,61,116,0
5,71,104,0
5,66,124,1182
5,71,112,0
5,51,100,18
5,49,104,0
5,47,116,0
5,59,116,0
5,63,116,0
5,66,100,1232
5,73,108,0
5,54,116,0
5,42,116,0
5,64,116,0
5,69,108,0
5,96,88,436
5,95,84,44
5,93,92,0
5,91,80,16
5,89,80,14
5,88,80,16
5,86,84,14
5,84,88,0
5,83,80,12
5,81,84,20
5,79,80,14
5,77,80,14
5,76,80,14
5,74,84,18
5,72,80,12
5,71,76,34
5,69,80,12
5,67,80,42
5,65,84,30
5,64,76,36
5,40,88,30
5,62,84,16
5,60,84,36
5,45,116,18
5,57,104,0
5,61,120,0
5,64,104,0
5,52,127,30
5,61,112,354
5,64,100,0
5,57,108,18
5,45,124,114
5,57,112,400
5,61,100,0
5,64,108,0
5,52,127,302
5,57,120,148
5,64,104,0
5,61,100,0
5,52,112,0
5,52,127,226
5,64,100,82
5,61,108,0
5,57,104,18
5,52,124,238
5,45,112,30
5,57,112,0
5,61,112,0
5,64,100,0
5,52,116,18
5,61,124,366
5,64,104,0
5,57,112,20
5,45,120,260
5,52,96,140
5,64,112,116
5,59,100,14
5,56,112,0
5,52,116,16
5,56,124,186
5,64,112,0
5,59,112,0
5,52,116,306
5,56,120,130
5,64,108,0
5,59,112,0
5,47,116,14
5,40,112,32
5,56,112,256
5,64,104,0
5,59,100,0
5,52,120,16
5,64,112,386
5,59,112,0
5,56,116,16
5,40,127,118
5,64,108,380
5,59,112,16
5,56,120,0
5,52,124,46
5,56,120,150
5,59,108,0
5,64,112,12
5,40,112,16
5,52,120,32
5,64,116,128
5,59,108,0
5,56,127,22
5,47,112,32
5,40,116,32
5,56,112,258
5,59,116,0
5,64,108,0
5,52,127,0
5,56,127,384
5,64,104,0
5,59,116,14
5,52,124,20
5,64,100,18
5,57,124,16
5,61,100,0
5,52,127,0
5,57,104,162
5,61,116,0
5,64,108,0
5,52,120,288
5,57,104,34
5,64,104,0
5,61,124,18
5,52,116,30
5,45,108,32
5,57,108,14
5,61,124,0
5,64,100,0
5,52,116,32
5,64,108,384
5,61,120,0
5,57,104,16
5,45,116,148
5,64,100,382
5,57,104,16
5,61,112,0
