track,note,velocity,time
0,46,122,122
0,34,101,2
0,35,116,0
0,42,87,0
0,58,102,0
0,77,91,0
0,35,0,4
0,42,0,0
0,65,104,4
0,58,0,36
0,42,69,52
0,58,96,0
0,42,0,4
0,58,0,48
0,53,86,42
0,40,106,2
0,42,87,0
0,40,0,4
0,42,0,0
0,53,0,8
0,34,0,20
0,53,121,62
0,42,71,2
0,46,102,0
0,53,71,0
0,58,124,0
0,62,121,2
0,42,0,2
0,46,0,30
0,46,0,28
0,53,0,22
0,46,92,10
0,35,93,2
0,42,80,0
0,58,87,0
0,35,0,4
0,42,0,0
0,53,0,36
0,58,0,6
0,58,0,22
0,53,90,26
0,42,88,2
0,46,107,0
0,58,91,0
0,58,90,0
0,42,0,4
0,46,0,44
0,58,0,0
0,46,101,46
0,40,105,2
0,42,83,0
0,40,0,4
0,42,0,0
0,53,0,26
0,58,0,28
0,46,0,12
0,53,83,24
0,41,86,2
0,42,77,0
0,53,54,0
0,58,107,0
0,42,0,4
0,46,0,36
0,41,0,16
0,53,0,4
0,46,100,34
0,34,87,2
0,35,102,0
0,42,90,0
0,58,96,0
0,35,0,4
0,42,0,0
0,58,0,44
0,53,0,4
0,53,85,24
0,42,86,2
0,58,96,0
0,42,0,4
0,58,0,2
0,58,0,42
0,62,0,0
0,58,84,32
0,40,107,2
0,42,84,0
0,40,0,4
0,42,0,0
0,58,0,6
0,53,0,6
0,77,0,2
0,34,0,4
0,53,101,10
0,42,74,2
0,46,96,0
0,53,64,0
0,58,116,0
0,62,111,2
0,42,0,2
0,46,0,32
0,53,0,12
0,46,0,6
0,46,91,6
0,35,106,2
0,42,82,0
0,58,104,0
0,35,0,4
0,42,0,0
0,58,0,28
0,53,0,2
0,58,0,12
0,62,0,2
0,53,105,32
0,42,83,2
0,46,96,0
0,58,102,0
0,58,122,0
0,62,113,2
0,42,0,2
0,46,0,26
0,58,0,26
0,65,0,6
0,46,0,22
0,46,106,10
0,40,108,2
0,41,72,0
0,42,91,0
0,79,99,0
0,40,0,4
0,42,0,0
0,67,95,8
0,53,0,22
0,41,0,24
0,58,0,8
0,53,87,28
0,34,110,2
0,46,92,0
0,58,94,0
0,46,0,4
0,46,0,30
0,79,0,8
0,34,0,24
0,43,102,28
0,31,101,2
0,35,116,0
0,42,90,0
0,58,99,0
0,82,94,0
0,35,0,4
0,42,0,0
0,70,101,4
0,53,0,2
0,67,0,8
0,58,0,34
0,82,0,32
0,42,69,12
0,58,81,0
0,79,92,0
0,42,0,4
0,70,0,14
0,67,97,6
0,58,0,34
0,55,91,36
0,40,108,2
0,42,88,0
0,40,0,4
0,42,0,0
0,58,0,2
0,79,0,16
0,62,0,26
0,55,0,16
0,67,0,22
0,31,0,2
0,55,96,6
0,42,73,2
0,43,100,0
0,55,76,0
0,58,115,0
0,65,95,0
0,77,90,0
0,62,107,2
0,42,0,2
0,43,0,26
0,77,0,36
0,55,0,20
0,35,97,10
0,42,81,0
0,58,95,0
0,79,95,0
0,35,0,4
0,42,0,0
0,65,0,0
0,67,99,12
0,58,0,32
0,55,0,8
0,58,0,10
0,55,98,28
0,42,84,2
0,43,109,0
0,58,97,0
0,58,107,0
0,42,0,4
0,79,0,28
0,58,0,20
0,43,0,42
0,40,106,2
0,42,83,0
0,70,97,0
0,82,95,0
0,40,0,4
0,42,0,0
0,67,0,10
0,55,0,24
0,82,0,30
0,55,105,26
0,38,73,2
0,42,80,0
0,55,62,0
0,79,90,0
0,42,0,4
0,70,0,0
0,67,94,16
0,43,0,18
0,55,0,24
0,38,0,20
0,43,99,12
0,31,106,2
0,35,103,0
0,42,84,0
0,58,100,0
0,35,0,4
0,42,0,0
0,55,0,36
0,58,0,22
0,58,0,30
0,55,82,2
0,42,86,2
0,58,80,0
0,42,0,4
0,62,0,62
0,55,0,16
0,58,0,6
0,55,83,6
0,40,109,2
0,42,84,0
0,58,90,0
0,40,0,4
0,42,0,0
0,55,0,40
0,58,0,10
0,31,0,38
0,55,113,2
0,42,77,2
0,43,96,0
0,55,87,0
0,58,119,0
0,62,120,2
0,42,0,2
0,43,0,34
0,55,0,42
0,35,107,16
0,42,88,0
0,58,103,0
0,35,0,4
0,42,0,0
0,43,0,2
0,58,0,40
0,55,0,26
0,58,0,10
0,62,0,0
0,43,104,12
0,42,78,2
0,43,105,0
0,55,91,0
0,58,97,0
0,58,100,2
0,42,0,2
0,62,95,0
0,43,0,42
0,58,0,16
0,79,0,10
0,38,98,24
0,40,111,0
0,42,90,0
0,55,79,0
0,77,89,0
0,40,0,4
0,42,0,0
0,67,0,12
0,43,0,6
0,65,109,0
0,38,0,42
0,55,0,6
0,55,0,12
0,62,0,4
0,43,100,8
0,31,94,2
0,46,99,0
0,58,73,0
0,46,0,4
0,58,0,16
0,58,0,36
0,65,0,12
0,77,0,6
0,31,0,6
0,39,120,14
0,27,114,2
0,35,115,0
0,42,87,0
0,55,100,0
0,67,107,0
0,79,94,0
0,35,0,4
0,42,0,0
0,43,0,6
0,55,0,46
0,42,72,40
0,55,95,0
0,42,0,4
0,55,85,90
0,40,103,2
0,42,86,0
0,40,0,4
0,42,0,0
0,55,0,6
0,27,0,82
0,58,112,2
0,39,108,2
0,42,72,0
0,51,86,0
0,63,113,0
0,42,0,4
0,39,0,26
0,51,0,20
0,35,96,46
0,42,85,0
0,55,99,0
0,35,0,4
0,42,0,0
0,55,0,12
0,63,0,40
0,58,0,2
0,55,0,6
0,55,87,30
0,39,108,2
0,42,83,0
0,55,100,0
0,58,94,0
0,63,92,2
0,42,0,2
0,40,108,92
0,42,83,0
0,40,0,4
0,42,0,0
0,55,0,22
0,55,0,14
0,39,0,14
0,39,0,4
0,55,91,0
0,34,99,2
0,42,75,0
0,51,92,0
0,42,0,4
0,51,0,42
0,34,0,8
0,39,121,24
0,27,99,2
0,35,107,0
0,42,88,0
0,58,96,0
0,35,0,4
0,42,0,0
0,55,0,16
0,58,0,6
0,55,84,12
0,42,87,2
0,58,86,0
0,42,0,4
0,63,0,4
0,58,0,2
0,58,94,12
0,40,114,2
0,42,86,0
0,40,0,4
0,42,0,0
0,58,0,28
0,55,0,4
0,58,0,0
0,27,0,6
0,55,108,6
0,39,112,2
0,42,77,0
0,51,92,0
0,58,107,0
0,63,103,2
0,42,0,2
0,39,0,30
0,51,0,38
0,35,107,24
0,42,83,0
0,58,90,0
0,35,0,4
0,42,0,0
0,39,0,8
0,55,0,28
0,58,0,10
0,58,0,30
0,63,0,2
0,79,0,2
0,39,117,10
0,39,112,2
0,42,81,0
0,55,103,0
0,58,93,0
0,58,111,2
0,42,0,2
0,63,115,0
0,67,0,8
0,39,0,22
0,58,0,28
0,39,0,20
0,39,105,12
0,34,115,2
0,40,107,0
0,42,87,0
0,51,97,0
0,82,101,0
0,70,111,2
0,40,0,2
0,42,0,0
0,55,0,18
0,51,0,44
0,34,0,6
0,55,96,22
0,27,109,2
0,46,98,0
0,52,89,0
0,46,0,4
0,82,0,40
0,39,0,6
0,52,0,12
0,55,0,16
0,27,0,14
0,41,127,2
0,29,108,2
0,35,114,0
0,42,88,0
0,53,94,0
0,58,0,0
0,86,101,0
0,35,0,4
0,42,0,0
0,70,0,8
0,74,108,6
0,63,0,2
0,86,0,56
0,74,0,8
0,53,0,8
0,42,74,4
0,60,79,0
0,84,100,0
0,42,0,4
0,72,107,16
0,60,0,32
0,57,90,42
0,40,110,2
0,42,83,0
0,40,0,4
0,42,0,0
0,72,0,8
0,84,0,0
0,70,100,78
0,29,0,2
0,60,103,2
0,41,115,2
0,42,70,0
0,53,55,0
0,65,115,0
0,82,106,0
0,42,0,4
0,41,0,36
0,70,0,30
0,82,0,10
0,53,0,2
0,35,92,14
0,42,80,0
0,60,78,0
0,72,96,0
0,84,102,0
0,35,0,4
0,42,0,0
0,57,0,42
0,60,0,6
0,65,0,0
0,60,0,12
0,57,112,30
0,41,103,2
0,42,89,0
0,60,93,0
0,60,109,0
0,65,111,2
0,42,0,2
0,84,0,70
0,41,0,4
0,60,0,8
0,36,105,10
0,40,103,0
0,42,88,0
0,77,98,0
0,40,0,4
0,42,0,0
0,72,0,4
0,65,105,6
0,57,0,8
0,36,0,46
0,57,93,26
0,41,94,2
0,42,78,0
0,53,63,0
0,42,0,4
0,41,0,2
0,41,0,44
0,77,0,10
0,53,0,30
0,41,121,4
0,29,98,2
0,35,108,0
0,42,89,0
0,60,87,0
0,65,0,0
0,86,95,0
0,35,0,4
0,42,0,0
0,74,100,0
0,60,0,52
0,57,0,24
0,74,0,6
0,86,0,0
0,42,84,10
0,60,89,0
0,84,107,0
0,42,0,4
0,72,100,22
0,60,0,50
0,84,0,16
0,57,89,2
0,40,114,2
0,42,85,0
0,40,0,4
0,42,0,0
0,72,0,4
0,65,0,38
0,60,0,26
0,29,0,20
0,60,101,2
0,41,103,2
0,42,76,0
0,53,80,0
0,65,102,0
0,82,100,0
0,42,0,4
0,70,102,0
0,41,0,44
0,53,0,44
0,82,0,0
0,35,109,4
0,42,86,0
0,60,95,0
0,84,96,0
0,35,0,4
0,42,0,0
0,70,0,6
0,72,94,8
0,57,0,22
0,60,0,12
0,65,0,6
0,60,0,10
0,57,104,26
0,41,104,2
0,42,80,0
0,60,88,0
0,60,108,0
0,65,115,2
0,42,0,2
0,41,0,54
0,41,0,16
0,84,0,0
0,60,0,18
0,41,109,2
0,36,106,2
0,40,106,0
0,42,94,0
0,53,73,0
0,82,102,0
0,40,0,4
0,42,0,0
0,72,0,0
0,70,103,2
0,57,0,26
0,36,0,52
0,53,0,0
0,57,112,10
0,29,103,2
0,46,98,0
0,60,92,0
0,46,0,4
0,82,0,40
0,60,0,10
0,60,0,6
0,70,0,0
0,65,0,6
0,41,0,4
0,29,0,4
0,57,0,16
0,46,120,4
0,34,106,2
0,35,116,0
0,42,86,0
0,58,103,0
0,77,94,0
0,35,0,4
0,42,0,0
0,65,108,4
0,58,0,36
0,42,68,52
0,58,95,0
0,42,0,4
0,58,0,48
0,53,81,42
0,40,106,2
0,42,90,0
0,40,0,4
0,42,0,0
0,34,0,28
0,53,0,12
0,53,121,50
0,42,76,2
0,46,99,0
0,53,71,0
0,58,127,0
0,62,123,2
0,42,0,2
0,46,0,30
0,46,0,28
0,53,0,22
0,46,91,10
0,35,95,2
0,42,83,0
0,58,83,0
0,35,0,4
0,42,0,0
0,53,0,36
0,58,0,6
0,58,0,22
0,53,93,26
0,42,88,2
0,46,106,0
0,58,86,0
0,58,88,0
0,42,0,4
0,46,0,44
0,58,0,0
0,46,103,46
0,40,110,2
0,42,83,0
0,40,0,4
0,42,0,0
0,53,0,26
0,58,0,28
0,46,0,12
0,53,84,24
0,41,84,2
0,42,77,0
0,53,55,0
0,58,108,0
0,42,0,4
0,46,0,36
0,41,0,16
0,53,0,4
0,46,98,34
0,34,92,2
0,35,109,0
0,42,89,0
0,58,93,0
0,35,0,4
0,42,0,0
0,58,0,2
0,53,0,4
0,53,87,24
0,42,85,2
0,58,96,0
0,42,0,4
0,58,0,2
0,58,0,42
0,62,0,0
0,58,84,32
0,40,113,2
0,42,83,0
0,40,0,4
0,42,0,0
0,58,0,22
0,53,0,6
0,77,0,2
0,34,0,4
0,53,101,10
0,42,77,2
0,46,103,0
0,53,70,0
0,58,117,0
0,62,111,2
0,42,0,2
0,46,0,32
0,53,0,12
0,46,0,6
0,46,97,6
0,35,107,2
0,42,82,0
0,58,100,0
0,35,0,4
0,42,0,0
0,58,0,28
0,53,0,2
0,58,0,12
0,62,0,2
0,53,102,32
0,42,77,2
0,46,96,0
0,58,101,0
0,58,125,0
0,62,113,2
0,42,0,2
0,46,0,26
0,58,0,26
0,65,0,6
0,46,0,22
0,46,111,10
0,40,109,2
0,41,74,0
0,42,87,0
0,79,97,0
0,40,0,4
0,42,0,0
0,67,98,8
0,53,0,22
0,41,0,24
0,58,0,8
0,53,84,28
0,34,106,2
0,46,95,0
0,58,88,0
0,46,0,4
0,46,0,30
0,79,0,8
0,34,0,24
0,43,101,28
0,31,101,2
0,35,114,0
0,42,84,0
0,58,97,0
0,82,95,0
0,35,0,4
0,42,0,0
0,70,105,4
0,53,0,2
0,67,0,8
0,58,0,34
0,82,0,32
0,42,71,12
0,58,80,0
0,79,92,0
0,42,0,4
0,70,0,14
0,67,98,6
0,58,0,34
0,55,87,36
0,40,108,2
0,42,84,0
0,40,0,4
0,42,0,0
0,58,0,2
0,79,0,16
0,62,0,26
0,55,0,16
0,67,0,22
0,31,0,2
0,55,100,6
0,42,69,2
0,43,103,0
0,55,74,0
0,58,109,0
0,65,93,0
0,77,93,0
0,62,109,2
0,42,0,2
0,43,0,26
0,77,0,36
0,55,0,20
0,35,99,10
0,42,80,0
0,58,95,0
0,79,97,0
0,35,0,4
0,42,0,0
0,65,0,0
0,67,92,12
0,58,0,32
0,55,0,8
0,58,0,10
0,55,96,28
0,42,89,2
0,43,113,0
0,58,96,0
0,58,100,0
0,42,0,4
0,79,0,28
0,58,0,20
0,43,0,42
0,40,106,2
0,42,86,0
0,70,97,0
0,82,94,0
0,40,0,4
0,42,0,0
0,67,0,10
0,55,0,24
0,82,0,30
0,55,99,26
0,38,74,2
0,42,81,0
0,55,58,0
0,79,92,0
0,42,0,4
0,70,0,0
0,67,90,16
0,43,0,18
0,55,0,24
0,38,0,20
0,43,98,12
0,31,107,2
0,35,103,0
0,42,90,0
0,58,97,0
0,35,0,4
0,42,0,0
0,55,0,36
0,58,0,22
0,58,0,30
0,55,84,2
0,42,85,2
0,58,83,0
0,42,0,4
0,62,0,62
0,55,0,16
0,58,0,6
0,55,85,6
0,40,113,2
0,42,89,0
0,58,86,0
0,40,0,4
0,42,0,0
0,55,0,48
0,58,0,2
0,31,0,38
0,55,108,2
0,42,74,2
0,43,92,0
0,55,86,0
0,58,122,0
0,62,125,2
0,42,0,2
0,43,0,34
0,55,0,42
0,35,111,16
0,42,81,0
0,58,99,0
0,35,0,4
0,42,0,0
0,43,0,2
0,58,0,40
0,55,0,26
0,58,0,10
0,62,0,0
0,43,103,12
0,42,81,2
0,43,100,0
0,55,91,0
0,58,96,0
0,58,101,2
0,42,0,2
0,62,92,0
0,43,0,42
0,58,0,16
0,79,0,10
0,38,99,24
0,40,111,0
0,42,94,0
0,55,80,0
0,77,95,0
0,40,0,4
0,42,0,0
0,67,0,12
0,43,0,6
0,65,104,0
0,38,0,42
0,55,0,6
0,55,0,12
0,43,99,12
0,31,95,2
0,46,99,0
0,58,71,0
0,46,0,4
0,62,0,2
0,58,0,14
0,58,0,36
0,65,0,12
0,77,0,6
0,31,0,6
0,43,0,10
0,39,127,4
0,27,113,2
0,35,111,0
0,42,83,0
0,55,104,0
0,67,103,0
0,79,92,0
0,35,0,4
0,42,0,0
0,55,0,52
0,42,70,40
0,55,97,0
0,42,0,4
0,55,81,90
0,40,104,2
0,42,84,0
0,40,0,4
0,42,0,0
0,55,0,6
0,27,0,82
0,58,111,2
0,39,108,2
0,42,74,0
0,51,83,0
0,63,116,0
0,42,0,4
0,39,0,26
0,51,0,20
0,35,97,46
0,42,81,0
0,55,100,0
0,35,0,4
0,42,0,0
0,55,0,12
0,63,0,40
0,58,0,2
0,55,0,6
0,55,90,30
0,39,108,2
0,42,86,0
0,55,95,0
0,58,94,0
0,63,91,2
0,42,0,2
0,40,110,92
0,42,83,0
0,40,0,4
0,42,0,0
0,55,0,22
0,55,0,14
0,39,0,14
0,39,0,4
0,55,88,0
0,34,100,2
0,42,76,0
0,51,88,0
0,42,0,4
0,51,0,42
0,34,0,8
0,39,122,24
0,27,101,2
0,35,108,0
0,42,85,0
0,58,96,0
0,35,0,4
0,42,0,0
0,55,0,16
0,58,0,6
0,55,86,12
0,42,86,2
0,58,90,0
0,42,0,4
0,63,0,4
0,58,0,2
0,58,87,12
0,40,114,2
0,42,89,0
0,40,0,4
0,42,0,0
0,58,0,28
0,55,0,4
0,58,0,0
0,27,0,6
0,55,106,6
