track,note,velocity,time
0,33,116,0
0,57,106,8
0,52,115,0
0,60,106,0
0,57,115,0
0,64,106,0
0,60,115,0
0,64,115,0
0,39,115,72
0,43,107,0
0,80,81,0
0,57,106,88
0,52,109,0
0,80,81,0
0,60,106,0
0,57,109,0
0,64,106,0
0,60,109,0
0,64,109,0
0,55,106,168
0,52,109,0
0,59,106,0
0,55,109,0
0,64,106,0
0,59,109,0
0,64,109,0
0,39,115,72
0,43,107,0
0,80,81,0
0,55,106,88
0,52,109,0
0,80,81,0
0,59,106,0
0,55,109,0
0,64,106,0
0,59,109,0
0,64,109,0
0,57,106,168
0,52,109,0
0,60,106,0
0,57,109,0
0,64,106,0
0,60,109,0
0,64,109,0
0,39,115,72
0,43,107,0
0,80,81,0
0,57,106,88
0,52,109,0
0,80,81,0
0,60,106,0
0,57,109,0
0,64,106,0
0,60,109,0
0,64,109,0
0,55,106,168
0,52,109,0
0,59,106,0
0,55,109,0
0,64,106,0
0,59,109,0
0,64,109,0
0,39,115,72
0,43,107,0
0,80,81,0
0,55,109,88
0,31,104,0
0,80,81,0
0,59,108,0
0,43,120,0
0,64,93,0
0,52,123,0
0,55,118,0
0,59,117,0
0,64,102,0
0,33,120,22
0,45,121,0
0,57,106,2
0,52,115,0
0,60,106,0
0,57,115,0
0,64,106,0
0,60,115,0
0,64,115,0
0,39,115,72
0,43,107,0
0,80,81,0
0,57,106,88
0,52,109,0
0,80,81,0
0,60,106,0
0,57,109,0
0,64,106,0
0,60,109,0
0,64,109,0
0,55,106,168
0,52,109,0
0,59,106,0
0,55,109,0
0,64,106,0
0,59,109,0
0,64,109,0
0,39,115,72
0,43,107,0
0,80,81,0
0,55,106,88
0,52,109,0
0,80,81,0
0,59,106,0
0,55,109,0
0,64,106,0
0,59,109,0
0,64,109,0
0,57,106,168
0,52,109,0
0,60,106,0
0,57,109,0
0,64,106,0
0,60,109,0
0,64,109,0
0,39,115,72
0,43,107,0
0,80,81,0
0,57,106,88
0,52,109,0
0,80,81,0
0,60,106,0
0,57,109,0
0,64,106,0
0,60,109,0
0,64,109,0
0,55,106,168
0,52,109,0
0,59,106,0
0,55,109,0
0,64,106,0
0,59,109,0
0,64,109,0
0,39,115,72
0,43,107,0
0,80,81,0
0,55,106,88
0,52,109,0
0,80,81,0
0,59,106,0
0,55,109,0
0,64,106,0
0,59,109,0
0,64,109,0
0,45,121,72
0,80,94,0
0,57,106,24
0,52,115,0
0,80,83,0
0,60,106,0
0,57,115,0
0,64,106,0
0,60,115,0
0,64,115,0
0,39,115,72
0,43,107,0
0,69,127,0
0,80,94,0
0,57,106,2
0,52,115,0
0,80,83,0
0,71,127,0
0,60,106,0
0,57,115,0
0,64,106,0
0,60,115,0
0,64,115,0
0,72,127,2
0,40,121,48
0,80,94,0
0,55,106,2
0,52,115,0
0,80,83,0
0,71,127,0
0,59,106,0
0,55,115,0
0,64,106,0
0,59,115,0
0,64,115,0
0,43,121,2
0,39,115,0
0,43,107,0
0,69,127,0
0,80,94,0
0,55,106,2
0,52,115,0
0,80,83,0
0,67,127,0
0,59,106,0
0,55,115,0
0,64,106,0
0,59,115,0
0,64,115,0
0,45,121,72
0,80,94,0
0,69,127,2
0,57,106,48
0,52,115,0
0,80,83,0
0,60,106,0
0,57,115,0
0,64,106,0
0,60,115,0
0,64,115,0
0,39,115,2
0,43,107,0
0,64,127,0
0,80,94,0
0,57,106,88
0,52,115,0
0,80,83,0
0,60,106,0
0,57,115,0
0,64,106,0
0,60,115,0
0,64,115,0
0,40,121,72
0,80,94,0
0,55,106,5
0,52,115,0
0,80,83,0
0,59,106,0
0,55,115,0
0,64,106,0
0,59,115,0
0,64,115,0
0,43,121,72
0,39,115,0
0,43,107,0
0,80,94,0
0,55,106,2
0,52,115,0
0,80,83,0
0,59,106,0
0,55,115,0
0,64,106,0
0,59,115,0
0,64,115,0
0,45,121,72
0,80,94,0
0,57,106,88
0,52,115,0
0,80,83,0
0,60,106,0
0,57,115,0
0,64,106,0
0,60,115,0
0,64,115,0
0,39,115,72
0,43,107,0
0,72,127,0
0,80,94,0
0,57,106,2
0,52,115,0
0,80,83,0
0,71,127,0
0,60,106,0
0,57,115,0
0,64,106,0
0,60,115,0
0,64,115,0
0,72,127,2
0,40,121,48
0,80,94,0
0,55,106,2
0,52,115,0
0,80,83,0
0,71,127,0
0,59,106,0
0,55,115,0
0,64,106,0
0,59,115,0
0,64,115,0
0,43,121,2
0,39,115,0
0,43,107,0
0,72,127,0
0,80,94,0
0,55,106,7
0,52,115,0
0,80,83,0
0,59,106,0
0,55,115,0
0,64,106,0
0,59,115,0
0,64,115,0
0,74,127,2
0,45,121,48
0,80,94,0
0,57,106,2
0,52,115,0
0,80,83,0
0,76,127,0
0,60,106,0
0,57,115,0
0,64,106,0
0,60,115,0
0,64,115,0
0,39,115,72
0,43,107,0
0,80,94,0
0,57,106,88
0,52,115,0
0,80,83,0
0,60,106,0
0,57,115,0
0,64,106,0
0,60,115,0
0,64,115,0
0,40,121,72
0,80,94,0
0,55,106,1
0,52,115,0
0,80,83,0
0,59,106,0
0,55,115,0
0,64,106,0
0,59,115,0
0,64,115,0
0,43,121,54
0,39,115,0
0,43,107,0
0,80,94,0
0,55,106,11
0,52,115,0
0,80,83,0
0,59,106,0
0,55,115,0
0,64,106,0
0,59,115,0
0,64,115,0
0,45,121,72
0,80,94,0
0,57,106,6
0,52,115,0
0,80,83,0
0,60,106,0
0,57,115,0
0,64,106,0
0,60,115,0
0,64,115,0
0,39,115,72
0,43,107,0
0,79,127,0
0,80,94,0
0,57,106,2
0,52,115,0
0,80,83,0
0,77,127,0
0,60,106,0
0,57,115,0
0,64,106,0
0,60,115,0
0,64,115,0
0,76,127,2
0,40,121,48
0,80,94,0
0,74,127,2
0,55,106,16
0,52,115,0
0,80,83,0
0,59,106,0
0,55,115,0
0,64,106,0
0,59,115,0
0,64,115,0
0,43,121,72
0,39,115,0
0,43,107,0
0,80,94,0
0,79,127,2
0,55,106,28
0,52,115,0
0,80,83,0
0,59,106,0
0,55,115,0
0,64,106,0
0,59,115,0
0,64,115,0
0,77,127,2
0,45,121,48
0,80,94,0
0,76,127,2
0,57,106,4
0,52,115,0
0,80,83,0
0,60,106,0
0,57,115,0
0,64,106,0
0,60,115,0
0,64,115,0
0,39,115,2
0,43,107,0
0,74,127,0
0,80,94,0
0,57,106,88
0,52,115,0
0,80,83,0
0,60,106,0
0,57,115,0
0,64,106,0
0,60,115,0
0,64,115,0
0,40,121,72
0,80,94,0
0,55,106,26
0,52,115,0
0,80,83,0
0,59,106,0
0,55,115,0
0,64,106,0
0,59,115,0
0,64,115,0
0,43,121,72
0,39,115,0
0,43,107,0
0,80,94,0
0,55,106,14
0,52,115,0
0,80,83,0
0,59,106,0
0,55,115,0
0,64,106,0
0,59,115,0
0,64,115,0
0,45,121,72
0,80,94,0
0,57,106,8
0,52,115,0
0,80,83,0
0,60,106,0
0,57,115,0
0,64,106,0
0,60,115,0
0,64,115,0
0,39,115,72
0,43,107,0
0,72,127,0
0,80,94,0
0,57,106,2
0,52,115,0
0,80,83,0
0,71,127,0
0,60,106,0
0,57,115,0
0,64,106,0
0,60,115,0
0,64,115,0
0,72,127,2
0,40,121,48
0,80,94,0
0,55,106,2
0,52,115,0
0,80,83,0
0,71,127,0
0,59,106,0
0,55,115,0
0,64,106,0
0,59,115,0
0,64,115,0
0,43,121,2
0,39,115,0
0,43,107,0
0,72,127,0
0,80,94,0
0,55,106,2
0,52,115,0
0,80,83,0
0,74,127,0
0,59,106,0
0,55,115,0
0,64,106,0
0,59,115,0
0,64,115,0
0,45,121,72
0,80,94,0
0,76,127,2
0,57,106,26
0,52,115,0
0,80,83,0
0,60,106,0
0,57,115,0
0,64,106,0
0,60,115,0
0,64,115,0
0,39,115,72
0,43,107,0
0,80,94,0
0,57,106,88
0,52,115,0
0,80,83,0
0,60,106,0
0,57,115,0
0,64,106,0
0,60,115,0
0,64,115,0
0,45,121,72
0,80,94,0
0,57,106,6
0,52,115,0
0,80,83,0
0,60,106,0
0,57,115,0
0,64,106,0
0,60,115,0
0,64,115,0
0,39,115,72
0,43,107,0
0,80,94,0
0,57,106,88
0,52,115,0
0,80,83,0
0,60,106,0
0,57,115,0
0,64,106,0
0,60,115,0
0,64,115,0
0,38,121,72
0,80,94,0
0,57,106,14
0,57,115,0
0,80,83,0
0,60,106,0
0,60,115,0
0,65,106,0
0,65,115,0
0,69,127,23
0,40,121,2
0,39,115,0
0,43,107,0
0,77,127,0
0,80,94,0
0,53,106,2
0,53,115,0
0,80,83,0
0,76,127,0
0,57,106,0
0,57,115,0
0,60,106,0
0,60,115,0
0,41,121,2
0,80,94,0
0,72,127,0
0,53,106,2
0,53,115,0
0,80,83,0
0,69,127,0
0,57,106,0
0,57,115,0
0,60,106,0
0,60,115,0
0,45,121,74
0,39,115,0
0,43,107,0
0,80,94,0
0,53,106,2
0,53,115,0
0,80,83,0
0,76,127,0
0,57,106,0
0,57,115,0
0,60,106,0
0,60,115,0
0,43,121,2
0,80,94,0
0,74,127,0
0,55,106,2
0,55,115,0
0,80,83,0
0,74,127,0
0,59,106,0
0,59,115,0
0,62,106,0
0,62,115,0
0,39,115,74
0,43,107,0
0,80,94,0
0,55,106,88
0,55,115,0
0,80,83,0
0,59,106,0
0,59,115,0
0,62,106,0
0,62,115,0
0,43,121,76
0,80,94,0
0,55,106,14
0,55,115,0
0,80,83,0
0,59,106,0
0,59,115,0
0,62,106,0
0,62,115,0
0,39,115,54
0,43,107,0
0,80,94,0
0,55,106,88
0,55,115,0
0,80,83,0
0,59,106,0
0,59,115,0
0,62,106,0
0,62,115,0
0,38,121,77
0,80,94,0
0,57,106,14
0,57,115,0
0,80,83,0
0,60,106,0
0,60,115,0
0,65,106,0
0,65,115,0
0,69,127,23
0,40,121,2
0,39,115,0
0,43,107,0
0,76,127,0
0,80,94,0
0,53,106,2
0,53,115,0
0,80,83,0
0,76,127,0
0,57,106,0
0,57,115,0
0,60,106,0
0,60,115,0
0,41,121,2
0,80,94,0
0,72,127,0
0,53,106,14
0,53,115,0
0,80,83,0
0,57,106,0
0,57,115,0
0,60,106,0
0,60,115,0
0,69,127,2
0,45,121,48
0,39,115,0
0,43,107,0
0,80,94,0
0,53,106,2
0,53,115,0
0,80,83,0
0,76,127,0
0,57,106,0
0,57,115,0
0,60,106,0
0,60,115,0
0,43,121,2
0,80,94,0
0,74,127,0
0,55,106,2
0,55,115,0
0,80,83,0
0,74,127,0
0,59,106,0
0,59,115,0
0,62,106,0
0,62,115,0
0,39,115,74
0,43,107,0
0,80,94,0
0,55,106,88
0,55,115,0
0,80,83,0
0,59,106,0
0,59,115,0
0,62,106,0
0,62,115,0
0,43,121,76
0,42,96,0
0,42,80,16
0,42,85,24
0,42,99,88
0,77,127,2
0,57,127,2
0,45,121,0
0,69,10,0
0,36,105,0
0,76,127,0
0,72,10,0
0,70,103,0
0,69,17,3
0,72,17,0
0,69,31,3
0,72,31,0
0,69,45,3
0,70,86,0
0,72,45,0
0,69,45,3
0,72,45,0
0,69,45,3
0,72,45,0
0,57,106,3
0,52,115,0
0,69,81,0
0,69,106,0
0,60,106,0
0,57,115,0
0,72,81,0
0,64,106,0
0,60,115,0
0,64,115,0
0,69,59,2
0,72,59,0
0,69,63,3
0,72,63,0
0,69,74,2
0,70,92,0
0,72,127,0
0,72,74,0
0,69,60,3
0,72,60,0
0,69,56,3
0,72,56,0
0,69,85,3
0,36,127,0
0,43,116,0
0,72,85,0
0,39,124,0
0,54,109,0
0,70,103,0
0,69,70,3
0,72,70,0
0,69,58,3
0,72,58,0
0,69,85,3
0,70,86,0
0,72,85,0
0,69,65,3
0,72,65,0
0,69,61,3
0,72,61,0
0,57,87,3
0,57,106,0
0,52,115,0
0,69,66,0
0,36,105,0
0,64,87,0
0,60,106,0
0,57,115,0
0,72,66,0
0,69,107,0
0,69,87,0
0,64,106,0
0,60,115,0
0,72,87,0
0,64,115,0
0,69,39,2
0,72,39,0
0,69,40,3
0,72,40,0
0,69,65,3
0,70,92,0
0,72,65,0
0,69,44,3
0,72,44,0
0,69,38,3
0,72,38,0
0,52,127,3
0,40,121,0
0,71,78,0
0,70,103,0
0,74,78,0
0,70,86,40
0,55,106,4
0,52,115,0
0,71,103,0
0,69,107,0
0,59,106,0
0,55,115,0
0,74,82,0
0,64,106,0
0,59,115,0
0,64,115,0
0,70,92,24
0,55,127,40
0,43,121,0
0,69,70,0
0,39,124,0
0,43,116,0
0,72,79,0
0,54,109,0
0,70,103,0
0,70,86,18
0,55,106,0
0,52,115,0
0,71,82,0
0,69,107,0
0,77,127,0
0,59,106,0
0,55,115,0
0,74,72,0
0,64,106,0
0,59,115,0
0,64,115,0
0,70,92,24
0,46,75,0
0,57,127,0
0,45,121,0
0,69,10,0
0,70,103,0
0,42,81,0
0,76,127,0
0,72,10,0
0,69,17,3
0,72,17,0
0,69,31,3
0,72,31,0
0,69,45,3
0,70,86,0
0,72,45,0
0,69,45,3
0,72,45,0
0,69,45,3
0,72,45,0
0,57,106,3
0,52,115,0
0,69,81,0
0,69,107,0
0,60,106,0
0,57,115,0
0,72,81,0
0,64,106,0
0,60,115,0
0,64,115,0
0,69,59,2
0,72,59,0
0,69,63,3
0,72,63,0
0,69,74,2
0,70,92,0
0,72,127,0
0,72,74,0
0,69,60,3
0,72,60,0
0,69,56,3
0,72,56,0
0,69,85,3
0,36,127,0
0,43,116,0
0,72,85,0
0,39,124,0
0,54,109,0
0,70,103,0
0,69,70,3
0,72,70,0
0,69,58,3
0,72,58,0
0,69,85,3
0,70,103,0
0,72,85,0
0,69,65,3
0,72,65,0
0,69,61,3
0,72,61,0
0,57,87,3
0,57,106,0
0,52,115,0
0,69,66,0
0,36,106,0
0,64,87,0
0,60,106,0
0,57,115,0
0,72,66,0
0,69,107,0
0,69,87,0
0,64,106,0
0,60,115,0
0,72,87,0
0,64,115,0
0,69,39,2
0,72,39,0
0,69,40,3
0,72,40,0
0,69,65,3
0,70,99,0
0,72,65,0
0,69,44,3
0,72,44,0
0,69,38,3
0,72,38,0
0,52,127,3
0,40,121,0
0,71,78,0
0,70,103,0
0,74,78,0
0,70,86,40
0,55,106,5
0,52,115,0
0,71,103,0
0,69,107,0
0,59,106,0
0,55,115,0
0,74,82,0
0,62,106,0
0,59,115,0
0,62,115,0
0,70,92,24
0,55,127,40
0,43,121,0
0,69,70,0
0,39,124,0
0,43,116,0
0,72,79,0
0,54,109,0
0,70,103,0
0,70,86,18
0,55,106,2
0,52,115,0
0,71,82,0
0,69,107,0
0,77,127,0
0,59,106,0
0,55,115,0
0,74,72,0
0,62,106,0
0,59,115,0
0,62,115,0
0,70,92,24
0,46,75,0
0,57,127,2
0,45,121,0
0,69,10,0
0,70,103,0
0,42,81,0
0,76,127,0
0,72,10,0
0,69,17,3
0,72,17,0
0,69,31,3
0,72,31,0
0,69,45,3
0,70,86,0
0,72,45,0
0,69,45,3
0,72,45,0
0,69,45,3
0,72,45,0
0,57,106,3
0,52,115,0
0,69,81,0
0,69,107,0
0,60,106,0
0,57,115,0
0,72,81,0
0,64,106,0
0,60,115,0
0,64,115,0
0,69,59,2
0,72,59,0
0,69,63,3
0,72,63,0
0,69,74,2
0,70,92,0
0,72,127,0
0,72,74,0
0,69,60,3
0,72,60,0
0,69,56,3
0,72,56,0
0,69,85,3
0,36,127,0
0,43,116,0
0,72,85,0
0,39,124,0
0,54,109,0
0,70,103,0
0,69,70,3
0,72,70,0
0,69,58,3
0,72,58,0
0,69,85,3
0,70,86,0
0,72,85,0
0,69,65,3
0,72,65,0
0,69,61,3
0,72,61,0
0,57,106,2
0,52,115,0
0,69,66,0
0,36,106,0
0,72,127,0
0,60,106,0
0,57,115,0
0,72,66,0
0,69,107,0
0,64,106,0
0,60,115,0
0,64,115,0
0,69,39,2
0,72,39,0
0,69,40,3
