track,note,velocity,time
2,40,97,192
2,40,0,84
2,40,84,204
2,40,0,63
2,40,95,33
2,40,0,80
2,35,76,112
2,35,0,93
2,39,81,3
2,39,0,83
2,40,90,13
2,40,0,84
2,40,90,204
2,40,0,69
2,40,91,27
2,40,0,80
2,40,88,112
2,40,0,91
2,39,91,5
2,39,0,90
2,37,83,6
2,37,0,94
2,37,91,194
2,37,0,62
2,37,90,34
2,37,0,86
2,35,84,106
2,35,0,94
2,32,91,2
2,32,0,88
2,37,95,8
2,37,0,94
2,37,93,194
2,37,0,62
2,37,90,34
2,37,0,85
2,37,91,107
2,37,0,91
2,35,83,5
2,35,0,90
2,33,83,6
2,33,0,94
2,33,81,194
2,33,0,62
2,33,84,34
2,33,0,94
2,33,81,98
2,33,0,88
2,37,91,8
2,37,0,87
2,35,86,9
2,35,0,94
2,35,81,194
2,35,0,62
2,35,84,34
2,35,0,94
2,35,91,98
2,35,0,84
2,39,83,12
2,39,0,86
2,40,97,10
2,40,0,84
2,40,84,204
2,40,0,63
2,40,95,33
2,40,0,80
2,35,76,112
2,35,0,93
2,39,81,3
2,39,0,83
2,40,90,13
2,40,0,84
2,40,90,204
2,40,0,69
2,40,91,27
2,40,0,80
2,35,89,112
2,35,0,91
2,39,80,5
2,39,0,90
2,40,97,6
2,40,0,84
2,40,84,204
2,40,0,63
2,40,95,33
2,40,0,80
2,35,76,112
2,35,0,93
2,39,81,3
2,39,0,83
2,40,90,13
2,40,0,84
2,40,90,204
2,40,0,69
2,40,91,27
2,40,0,80
2,40,88,112
2,40,0,91
2,39,91,5
2,39,0,90
2,37,83,6
2,37,0,94
2,37,91,194
2,37,0,62
2,37,90,34
2,37,0,86
2,35,84,106
2,35,0,94
2,32,91,2
2,32,0,88
2,37,95,8
2,37,0,94
2,37,93,194
2,37,0,62
2,37,90,34
2,37,0,85
2,37,91,107
2,37,0,91
2,35,83,5
2,35,0,90
2,33,83,6
2,33,0,94
2,33,81,194
2,33,0,62
2,33,84,34
2,33,0,94
2,33,81,98
2,33,0,88
2,37,91,8
2,37,0,87
2,35,86,9
2,35,0,94
2,35,81,194
2,35,0,62
2,35,84,34
2,35,0,94
2,35,91,98
2,35,0,84
2,39,83,12
2,39,0,86
2,40,97,10
2,40,0,84
2,40,84,204
2,40,0,63
2,40,95,33
2,40,0,80
2,35,76,112
2,35,0,93
2,39,81,3
2,39,0,83
2,40,90,13
2,40,0,84
2,40,90,204
2,40,0,69
2,40,91,27
2,40,0,80
2,35,89,112
2,35,0,91
2,39,80,5
2,39,0,90
2,40,97,6
2,40,0,84
2,40,84,204
2,40,0,63
2,40,95,33
2,40,0,80
2,35,76,112
2,35,0,93
2,39,81,3
2,39,0,83
2,40,90,13
2,40,0,84
2,40,90,204
2,40,0,69
2,40,91,27
2,40,0,80
2,40,88,112
2,40,0,91
2,39,91,5
2,39,0,90
2,37,83,6
2,37,0,94
2,37,91,194
2,37,0,62
2,37,90,34
2,37,0,86
2,35,84,106
2,35,0,94
2,32,91,2
2,32,0,88
2,37,95,8
2,37,0,94
2,37,93,194
2,37,0,62
2,37,90,34
2,37,0,85
2,37,91,107
2,37,0,91
2,35,83,5
2,35,0,90
2,33,83,6
2,33,0,94
2,33,81,194
2,33,0,62
2,33,84,34
2,33,0,94
2,33,81,98
2,33,0,88
2,37,91,8
2,37,0,87
2,35,86,9
2,35,0,94
2,35,81,194
2,35,0,62
2,35,84,34
2,35,0,94
2,35,91,98
2,35,0,84
2,39,83,12
2,39,0,86
2,40,97,10
2,40,0,84
2,40,84,204
2,40,0,63
2,40,95,33
2,40,0,80
2,35,76,112
2,35,0,93
2,39,81,3
2,39,0,83
2,40,90,13
2,40,0,84
2,40,90,204
2,40,0,69
2,40,91,27
2,40,0,80
2,35,89,112
2,35,0,91
2,39,80,5
2,39,0,90
2,40,97,6
2,40,0,84
2,40,84,204
2,40,0,63
2,40,95,33
2,40,0,80
2,35,76,112
2,35,0,93
2,39,81,3
2,39,0,83
2,40,90,13
2,40,0,84
2,40,90,204
2,40,0,69
2,40,91,27
2,40,0,80
2,40,88,112
2,40,0,91
2,39,91,5
2,39,0,90
2,37,83,6
2,37,0,94
2,37,91,194
2,37,0,62
2,37,90,34
2,37,0,86
2,35,84,106
2,35,0,94
2,32,91,2
2,32,0,88
2,37,95,8
2,37,0,94
2,37,93,194
2,37,0,62
2,37,90,34
2,37,0,85
2,37,91,107
2,37,0,91
2,35,83,5
2,35,0,90
2,33,83,6
2,33,0,94
2,33,81,194
2,33,0,62
2,33,84,34
2,33,0,94
2,33,81,98
2,33,0,88
2,37,91,8
2,37,0,87
2,35,86,9
2,35,0,94
2,35,81,194
2,35,0,62
2,35,84,34
2,35,0,94
2,35,91,98
2,35,0,84
2,39,83,12
2,39,0,86
2,40,97,10
2,40,0,84
2,40,84,204
2,40,0,63
2,40,95,33
2,40,0,80
2,35,76,112
2,35,0,93
2,39,81,3
2,39,0,83
2,36,90,13
2,36,0,84
2,36,90,204
2,36,0,69
2,36,91,27
2,36,0,80
2,31,89,112
2,31,0,91
2,35,80,5
2,35,0,90
2,41,97,6
2,41,0,87
2,41,84,201
2,41,0,66
2,41,95,30
2,41,0,83
2,36,76,109
2,36,0,95
2,40,81,1
2,40,0,86
2,41,90,10
2,41,0,87
2,41,90,201
2,41,0,72
2,41,91,24
2,41,0,83
2,41,88,109
2,41,0,94
2,40,91,2
2,40,0,93
2,38,83,3
2,38,0,97
2,38,91,191
2,38,0,65
2,38,90,31
2,38,0,89
2,36,84,103
2,36,0,95
2,33,91,1
2,33,0,91
2,38,95,5
2,38,0,97
2,38,93,191
2,38,0,65
2,38,90,31
2,38,0,88
2,38,91,104
2,38,0,94
2,36,83,2
2,36,0,93
2,34,83,3
2,34,0,97
2,34,81,191
2,34,0,65
2,34,84,31
2,34,0,97
2,34,81,95
2,34,0,91
2,38,91,5
2,38,0,90
2,36,86,6
2,36,0,97
2,36,81,191
2,36,0,65
2,36,84,31
2,36,0,97
2,36,91,95
2,36,0,87
2,40,83,9
2,40,0,89
2,41,97,7
2,41,0,87
2,41,84,201
2,41,0,66
2,41,95,30
2,41,0,83
2,36,76,109
2,36,0,95
2,40,81,1
2,40,0,86
2,41,90,10
2,41,0,87
2,41,90,201
2,41,0,72
2,41,91,24
2,41,0,83
2,36,89,109
2,36,0,94
2,40,80,2
2,40,0,93
2,41,100,3
2,41,0,87
2,41,87,201
2,41,0,66
2,41,98,30
2,41,0,83
2,36,79,109
2,36,0,95
2,40,84,1
2,40,0,86
2,41,93,10
2,41,0,87
2,41,93,201
2,41,0,72
2,41,94,24
2,41,0,83
2,41,91,109
2,41,0,94
2,40,94,2
2,40,0,93
2,38,86,3
2,38,0,97
2,38,94,191
2,38,0,65
2,38,93,31
2,38,0,89
2,36,87,103
2,36,0,95
2,33,94,1
2,33,0,91
2,38,98,5
2,38,0,97
2,38,96,191
2,38,0,65
2,38,93,31
2,38,0,88
2,38,94,104
2,38,0,94
2,36,86,2
2,36,0,93
2,34,86,3
2,34,0,97
2,34,84,191
2,34,0,65
2,34,87,31
2,34,0,97
2,34,84,95
2,34,0,91
2,38,94,5
2,38,0,90
2,36,89,6
2,36,0,97
2,36,84,191
2,36,0,65
2,36,87,31
2,36,0,97
2,36,94,95
2,36,0,87
2,40,86,9
2,40,0,89
2,41,100,7
2,41,0,87
2,41,87,201
2,41,0,66
2,41,98,30
2,41,0,83
2,36,79,109
2,36,0,95
2,40,84,1
2,40,0,86
2,41,93,10
2,41,0,87
2,41,93,201
2,41,0,72
2,41,94,24
2,41,0,83
2,36,92,109
2,36,0,94
2,40,83,2
2,40,0,93
2,41,102,3
2,41,0,87
2,41,89,201
2,41,0,66
2,41,100,30
2,41,0,83
2,36,81,109
2,36,0,95
2,40,86,1
2,40,0,86
2,41,95,10
2,41,0,87
2,41,95,201
2,41,0,72
2,41,96,24
2,41,0,83
2,41,93,109
2,41,0,94
2,40,96,2
2,40,0,93
2,38,88,3
2,38,0,97
2,38,96,191
2,38,0,65
2,38,95,31
2,38,0,89
2,36,89,103
2,36,0,95
2,33,96,1
2,33,0,91
2,38,100,5
2,38,0,97
2,38,98,191
2,38,0,65
2,38,95,31
2,38,0,88
2,38,96,104
2,38,0,94
2,36,88,2
2,36,0,93
2,34,88,3
2,34,0,97
2,34,86,191
2,34,0,65
2,34,89,31
2,34,0,97
2,34,86,95
2,34,0,91
2,38,96,5
2,38,0,90
2,36,91,6
2,36,0,97
2,36,86,191
2,36,0,65
2,36,89,31
2,36,0,97
2,36,96,95
2,36,0,87
2,40,88,9
2,40,0,89
2,41,102,7
2,41,0,87
2,41,89,201
2,41,0,66
2,41,100,30
2,41,0,83
2,36,81,109
2,36,0,95
2,40,86,1
2,40,0,86
2,37,100,10
2,37,0,87
2,37,99,201
2,37,0,72
2,37,100,24
2,37,0,83
2,32,99,109
2,32,0,94
2,36,91,2
2,36,0,93
2,42,100,3
2,42,0,87
2,42,90,201
2,42,0,66
2,42,101,30
2,42,0,83
2,37,82,109
2,37,0,95
2,41,87,1
2,41,0,86
2,42,96,10
2,42,0,87
2,42,96,201
2,42,0,72
2,42,97,24
2,42,0,83
2,42,94,109
2,42,0,94
2,41,97,2
2,41,0,93
2,39,89,3
2,39,0,97
2,39,97,191
2,39,0,65
2,39,96,31
2,39,0,89
2,37,90,103
2,37,0,95
2,34,97,1
2,34,0,91
2,39,101,5
2,39,0,97
2,39,99,191
2,39,0,65
2,39,96,31
2,39,0,88
2,39,97,104
2,39,0,94
2,37,89,2
2,37,0,93
2,35,89,3
2,35,0,97
2,35,87,191
2,35,0,65
2,35,90,31
2,35,0,97
2,35,87,95
2,35,0,91
2,39,97,5
2,39,0,90
2,37,92,6
2,37,0,97
2,37,87,191
2,37,0,65
2,37,90,31
2,37,0,97
2,37,97,95
2,37,0,87
2,41,89,9
2,41,0,89
2,42,103,7
2,42,0,87
2,42,90,201
2,42,0,66
2,42,101,30
2,42,0,83
2,37,82,109
2,37,0,95
2,41,87,1
2,41,0,86
2,42,101,10
2,42,0,87
2,42,100,201
2,42,0,72
2,42,101,24
2,42,0,83
2,37,100,109
2,37,0,94
2,41,92,2
2,41,0,93
2,42,100,3
2,42,0,87
2,42,90,201
2,42,0,66
2,42,101,30
2,42,0,83
2,37,82,109
2,37,0,95
2,41,87,1
2,41,0,86
2,42,96,10
2,42,0,87
2,42,96,201
2,42,0,72
2,42,97,24
2,42,0,83
2,42,94,109
2,42,0,94
2,41,97,2
2,41,0,93
2,39,89,3
2,39,0,97
2,39,97,191
2,39,0,65
2,39,96,31
2,39,0,89
2,37,90,103
2,37,0,95
2,34,97,1
2,34,0,91
2,39,101,5
2,39,0,97
2,39,99,191
2,39,0,65
2,39,96,31
2,39,0,88
2,39,97,104
2,39,0,94
2,37,89,2
2,37,0,93
2,35,89,3
2,35,0,97
2,35,87,191
2,35,0,65
2,35,90,31
2,35,0,97
2,35,87,95
2,35,0,91
2,39,97,5
2,39,0,90
2,37,92,6
2,37,0,97
2,37,87,191
2,37,0,65
2,37,90,31
2,37,0,97
2,37,97,95
2,37,0,87
2,41,89,9
2,41,0,89
2,42,103,7
2,42,0,87
2,42,90,201
2,42,0,66
2,42,101,30
2,42,0,83
2,37,82,109
2,37,0,95
2,41,87,1
2,41,0,86
2,42,101,10
2,42,0,87
2,42,100,201
2,42,0,72
2,42,101,24
2,42,0,83
2,37,100,109
2,37,0,94
2,41,92,2
2,41,0,93
2,42,105,3
2,42,0,87
2,42,92,201
2,42,0,66
2,42,103,30
2,42,0,83
2,37,84,109
2,37,0,95
2,41,89,1
2,41,0,86
2,42,98,10
2,42,0,87
2,42,98,201
2,42,0,72
2,42,99,24
2,42,0,83
2,42,96,109
2,42,0,94
2,41,99,2
2,41,0,93
2,39,91,3
2,39,0,97
2,39,99,191
2,39,0,65
2,39,98,31
2,39,0,89
2,37,92,103
2,37,0,95
2,34,99,1
2,34,0,91
2,39,103,5
2,39,0,97
2,39,101,191
2,39,0,65
2,39,98,31
2,39,0,88
2,39,99,104
2,39,0,94
2,37,91,2
2,37,0,93
2,35,91,3
2,35,0,97
2,35,89,191
2,35,0,65
2,35,92,31
2,35,0,97
2,35,89,95
2,35,0,91
2,39,99,5
2,39,0,90
2,37,94,6
2,37,0,97
2,37,89,191
2,37,0,65
2,37,92,31
2,37,0,97
2,37,99,95
2,37,0,87
2,41,91,9
2,41,0,89
2,42,105,7
2,42,0,87
2,42,92,201
2,42,0,66
2,42,103,30
2,42,0,83
2,37,84,109
2,37,0,95
2,41,89,1
2,41,0,86
2,42,103,10
2,42,0,87
2,42,102,201
2,42,0,72
2,42,103,24
2,42,0,83
2,37,102,109
2,37,0,94
2,41,94,2
2,41,0,93
2,42,107,3
2,42,0,87
2,42,94,201
2,42,0,66
2,42,105,30
2,42,0,83
2,37,86,109
2,37,0,95
2,41,91,1
2,41,0,86
2,42,100,10
2,42,0,87
2,42,100,201
2,42,0,72
2,42,101,24
2,42,0,83
2,42,98,109
2,42,0,94
2,41,101,2
2,41,0,93
2,39,93,3
2,39,0,97
2,39,101,191
2,39,0,65
2,39,100,31
2,39,0,89
2,37,94,103
2,37,0,95
2,34,101,1
2,34,0,91
2,39,105,5
2,39,0,97
2,39,103,191
2,39,0,65
2,39,100,31
2,39,0,88
2,39,101,104
2,39,0,94
2,37,93,2
2,37,0,93
2,35,93,3
2,35,0,97
2,35,91,191
2,35,0,65
2,35,94,31
2,35,0,97
2,35,91,95
2,35,0,91
2,39,101,5
2,39,0,90
2,37,96,6
2,37,0,97
2,37,91,191
2,37,0,65
2,37,94,31
2,37,0,97
2,37,101,95
2,37,0,87
2,41,93,9
2,41,0,89
2,42,107,7
2,42,0,87
2,42,95,201
2,42,0,66
2,42,106,30
2,42,0,83
2,37,88,109
2,37,0,95
2,41,93,1
2,41,0,86
2,42,107,10
2,42,0,87
2,42,107,201
2,42,0,72
2,42,109,24
2,42,0,83
2,37,108,109
2,37,0,94
2,41,101,2
2,41,0,93
2,42,112,3
2,42,0,87
2,42,104,9
2,42,0,87
2,42,100,105
2,42,0,66
2,42,112,30
2,42,0,83
2,37,93,109
2,37,0,95
2,41,99,1
2,41,0,86
2,42,113,10
2,42,0,87
2,42,113,201
2,42,0,72
2,42,114,24
2,42,0,83
2,37,114,109
2,37,0,94
2,41,106,2
2,41,0,93
2,42,118,3
2,42,0,759
3,71,46,10944
3,76,46,0
3,71,0,574
3,76,0,1
3,71,50,1
3,71,0,80
3,75,50,16
3,75,0,80
3,71,52,16
3,76,52,0
3,71,0,574
3,76,0,1
3,71,55,1
3,71,0,80
3,75,55,16
3,75,0,80
3,71,53,16
3,76,53,0
3,71,0,574
3,76,0,1
3,71,53,1
3,71,0,80
3,75,53,16
3,75,0,80
3,71,53,16
3,76,53,0
3,71,0,574
3,76,0,1
3,76,53,1
3,76,0,80
3,75,53,16
3,75,0,80
3,68,53,16
3,73,53,0
3,68,0,574
3,73,0,1
3,68,53,1
3,68,0,80
3,71,53,16
3,71,0,80
3,68,53,16
3,73,53,0
3,68,0,574
3,73,0,1
3,73,53,1
3,73,0,80
3,71,53,16
3,71,0,80
3,64,53,16
3,69,53,0
3,64,0,574
3,69,0,1
3,69,53,1
3,69,0,80
3,73,53,16
3,73,0,80
3,66,53,16
3,71,53,0
3,66,0,574
3,71,0,1
3,71,53,1
3,71,0,80
3,75,53,16
3,75,0,80
3,71,53,16
3,76,53,0
3,71,0,574
3,76,0,1
3,71,53,1
3,71,0,80
3,75,53,16
3,75,0,80
3,71,53,16
3,76,53,0
3,71,0,574
3,76,0,1
3,71,53,1
3,71,0,80
3,75,53,16
3,75,0,80
3,71,61,16
3,76,61,0
3,71,0,574
3,76,0,1
3,71,61,1
3,71,0,80
3,75,61,16
3,75,0,80
3,71,61,16
3,76,61,0
3,71,0,574
3,76,0,1
3,76,61,1
3,76,0,80
3,75,61,16
3,75,0,80
