track,note,velocity,time
3,60,122,2695
3,48,110,0
3,43,116,545
3,55,100,0
3,60,96,60
3,48,100,0
3,48,96,115
3,60,92,0
3,55,100,85
3,43,92,0
3,60,122,305
3,48,100,0
3,55,110,550
3,43,100,0
3,60,88,50
3,48,100,0
3,60,100,110
3,48,100,0
3,55,92,90
3,43,110,0
3,48,106,300
3,60,106,0
3,55,100,545
3,43,106,0
3,60,106,50
3,48,96,0
3,60,84,115
3,48,80,0
3,43,106,95
3,55,100,0
3,60,100,315
3,48,116,0
3,60,106,1015
3,67,110,0
3,60,88,130
3,67,92,0
3,60,100,130
3,67,100,0
3,67,96,140
3,60,110,0
3,61,80,2255
3,65,84,0
3,58,80,0
3,61,80,95
3,65,106,0
3,58,80,0
3,58,90,555
3,61,84,0
3,65,92,0
3,60,80,630
3,64,96,0
3,67,80,0
3,67,80,135
3,60,80,0
3,64,96,0
3,67,92,615
3,60,80,0
3,64,88,0
3,65,80,600
3,61,80,0
3,58,80,0
3,65,80,115
3,61,90,0
3,58,80,0
3,61,90,605
3,65,92,0
3,58,80,0
3,60,80,610
3,67,84,0
3,64,88,0
3,67,80,105
3,60,80,0
3,64,84,0
3,60,96,600
3,67,100,0
3,64,100,0
3,60,106,665
3,65,100,0
3,68,80,0
3,60,80,115
3,65,80,0
3,68,80,0
3,65,106,605
3,60,100,0
3,68,116,0
3,60,84,635
3,67,88,0
3,64,100,0
3,60,80,100
3,67,80,0
3,64,96,0
3,64,96,585
3,60,88,0
3,67,92,0
3,65,122,210
3,41,106,0
3,65,100,4155
3,61,80,0
3,58,84,0
3,58,106,95
3,61,80,0
3,65,80,0
3,65,106,565
3,61,106,0
3,58,98,0
3,60,92,640
3,67,110,0
3,64,106,0
3,67,80,125
3,60,80,0
3,64,88,0
3,60,80,635
3,67,84,0
3,64,96,0
3,61,90,745
3,65,96,0
3,58,80,0
3,65,88,120
3,58,80,0
3,61,80,0
3,61,98,600
3,65,106,0
3,58,98,0
3,60,88,680
3,67,106,0
3,64,100,0
3,67,80,135
3,60,80,0
3,64,88,0
3,67,106,610
3,60,96,0
3,64,106,0
3,60,106,755
3,65,92,0
3,68,98,0
3,60,80,130
3,65,80,0
3,68,80,0
3,60,100,615
3,65,106,0
3,68,98,0
3,60,80,630
3,67,100,0
3,64,100,0
3,67,80,115
3,60,80,0
3,64,80,0
3,60,80,575
3,64,88,0
3,67,84,0
3,41,126,180
3,41,92,4165
3,39,116,65
3,37,126,245
3,39,126,35
3,41,116,130
3,41,100,2150
3,39,98,50
3,37,126,255
3,39,116,85
3,41,106,145
3,60,106,2145
3,68,80,0
3,65,100,0
3,68,80,140
3,60,80,0
3,65,96,0
3,60,110,610
3,65,106,0
3,68,80,0
3,61,80,545
3,65,80,0
3,56,90,0
3,61,84,115
3,65,88,0
3,56,98,0
3,61,84,570
3,56,116,0
3,65,100,0
3,67,96,680
3,58,98,0
3,63,80,0
3,67,80,120
3,58,84,0
3,63,84,0
3,67,96,580
3,58,106,0
3,63,80,0
3,60,92,180
3,63,116,0
3,56,116,0
3,65,88,2220
3,61,90,0
3,58,80,0
3,58,80,100
3,61,80,0
3,65,100,0
3,65,116,555
3,58,106,0
3,61,90,0
3,67,84,640
3,60,92,0
3,64,96,0
3,60,80,125
3,67,80,0
3,64,92,0
3,60,96,615
3,64,100,0
3,67,110,0
3,65,96,665
3,61,90,0
3,58,80,0
3,65,88,125
3,61,80,0
3,58,80,0
3,65,100,610
3,61,84,0
3,58,90,0
3,60,84,650
3,67,80,0
3,64,96,0
3,67,80,125
3,60,80,0
3,64,96,0
3,60,92,605
3,64,92,0
3,67,96,0
3,60,96,620
3,65,100,0
3,68,80,0
3,60,80,115
3,65,80,0
3,68,80,0
3,65,100,610
3,60,106,0
3,68,98,0
3,67,80,690
3,60,80,0
3,64,100,0
3,67,80,120
3,60,80,0
3,64,80,0
3,64,100,570
3,60,96,0
3,67,96,0
3,60,110,215
3,65,110,0
3,68,116,0
3,61,80,4125
3,65,84,0
3,58,80,0
3,61,80,95
3,65,80,0
3,58,90,0
3,65,110,565
3,61,98,0
3,58,106,0
3,60,80,660
3,67,92,0
3,64,100,0
3,60,80,120
3,67,92,0
3,64,80,0
3,67,110,605
3,60,96,0
3,64,100,0
3,65,88,640
3,61,98,0
3,58,90,0
3,65,80,130
3,58,80,0
3,61,80,0
3,65,96,600
3,58,98,0
3,61,80,0
3,60,80,635
3,67,80,0
3,64,100,0
3,67,80,125
3,60,80,0
3,64,80,0
3,60,92,610
3,67,96,0
3,64,100,0
3,60,88,700
3,65,96,0
3,68,80,0
3,60,80,135
3,68,80,0
3,65,88,0
3,68,80,605
3,65,110,0
3,60,100,0
3,64,88,595
3,60,88,0
3,67,92,0
3,64,80,130
3,67,80,0
3,60,80,0
3,60,88,585
3,67,106,0
3,64,96,0
3,60,92,690
3,65,96,0
3,68,80,0
3,60,80,120
3,65,88,0
3,68,80,0
3,60,80,595
3,68,80,0
3,65,80,0
3,60,106,115
3,68,80,0
3,65,106,0
3,65,80,2165
3,61,90,0
3,58,80,0
3,65,80,125
3,58,80,0
3,61,80,0
3,65,100,575
3,61,90,0
3,58,80,0
3,60,88,635
3,64,96,0
3,67,84,0
3,60,80,125
3,67,80,0
3,64,80,0
3,67,110,595
3,60,92,0
3,64,96,0
3,61,80,660
3,65,92,0
3,58,80,0
3,65,80,105
3,58,80,0
3,61,80,0
3,65,106,575
3,61,90,0
3,58,84,0
3,67,106,650
3,60,96,0
3,64,106,0
3,60,80,130
3,67,80,0
3,64,80,0
3,67,110,610
3,60,96,0
3,64,106,0
3,60,96,680
3,65,106,0
3,68,80,0
3,60,80,130
3,68,80,0
3,65,80,0
3,60,110,610
3,65,100,0
3,68,80,0
3,64,100,630
3,67,96,0
3,60,92,0
3,64,84,115
3,67,80,0
3,60,80,0
3,64,88,590
3,60,84,0
3,67,88,0
3,60,106,235
3,65,110,0
3,68,80,0
3,41,100,4150
3,39,98,25
3,37,126,250
3,39,126,45
3,41,100,120
3,41,100,2160
3,39,106,20
3,37,116,290
3,39,106,60
3,41,100,55
3,60,84,2155
3,68,80,0
3,65,106,0
3,60,80,130
3,68,80,0
3,65,84,0
3,68,90,605
3,60,80,0
3,65,84,0
3,68,80,540
3,65,100,0
3,61,80,0
3,65,80,115
3,61,80,0
3,68,90,0
3,65,100,595
3,68,106,0
3,61,98,0
3,67,92,655
3,63,80,0
3,58,90,0
3,67,80,115
3,58,98,0
3,63,84,0
3,67,100,600
3,58,84,0
3,63,80,0
3,60,106,225
3,63,98,0
3,56,126,0
3,65,84,2235
3,61,80,0
3,58,80,0
3,58,84,100
3,65,96,0
3,61,80,0
3,61,90,565
3,58,80,0
3,65,80,0
3,60,84,555
3,67,80,0
3,64,96,0
3,67,80,120
3,60,80,0
3,64,80,0
3,60,88,600
3,67,96,0
3,64,92,0
3,65,84,565
3,61,90,0
3,58,80,0
3,65,80,110
3,58,80,0
3,61,80,0
3,65,88,615
3,61,98,0
3,58,84,0
3,60,80,615
3,67,96,0
3,64,100,0
3,67,80,130
3,64,80,0
3,60,80,0
3,60,106,595
3,67,110,0
3,64,116,0
3,68,80,710
3,60,80,0
3,65,92,0
3,65,80,110
3,68,80,0
3,60,80,0
3,60,88,515
3,68,90,0
3,65,100,0
3,60,80,805
3,68,80,0
3,65,92,0
3,68,80,125
3,60,80,0
3,65,80,0
3,60,106,605
3,65,110,0
3,68,80,0
3,65,96,590
3,61,84,0
3,58,84,0
3,65,84,140
3,61,80,0
3,58,80,0
3,65,100,605
3,61,90,0
3,58,80,0
3,65,92,830
3,61,98,0
3,58,90,0
3,58,80,130
3,65,88,0
3,61,80,0
3,65,96,570
3,61,80,0
3,58,84,0
3,65,80,680
3,68,80,0
3,60,80,0
3,60,88,110
3,65,80,0
3,68,80,0
3,65,100,600
3,68,80,0
3,60,80,0
3,68,80,760
3,60,84,0
3,65,84,0
3,68,80,130
3,60,84,0
3,65,100,0
3,65,106,590
3,68,80,0
3,60,106,0
3,65,92,575
3,61,90,0
3,58,80,0
3,65,84,105
3,61,90,0
3,58,80,0
3,65,84,590
3,61,90,0
3,58,80,0
3,65,100,805
3,58,90,0
3,61,90,0
3,65,80,105
3,61,80,0
3,58,80,0
3,65,96,565
3,58,90,0
3,61,84,0
3,41,110,255
3,53,106,0
3,41,80,235
3,53,110,0
3,51,98,50
3,39,106,0
3,49,116,200
3,37,116,0
3,51,106,45
3,39,116,0
3,53,110,190
3,41,100,0
3,41,80,280
3,53,106,0
3,39,116,30
3,51,98,0
3,49,106,265
3,37,98,0
3,51,84,50
3,39,106,0
3,53,110,235
3,41,92,0
3,41,80,300
3,53,110,0
3,51,90,5
3,39,98,0
3,49,106,260
3,37,116,0
3,51,106,75
3,39,106,0
3,53,110,190
3,41,100,0
3,60,116,1700
3,67,106,0
3,41,116,0
4,36,110,2645
4,31,106,420
4,36,100,240
4,36,80,75
4,31,122,60
4,36,110,250
4,31,110,470
4,36,100,0
4,36,80,50
4,31,116,45
4,36,106,265
4,31,106,465
4,36,96,0
4,36,88,120
4,31,110,65
4,36,106,260
4,36,96,995
4,36,84,115
4,36,92,125
4,36,122,135
4,34,116,1665
4,37,116,75
4,41,106,25
4,37,116,100
4,36,106,130
4,40,110,25
4,43,116,35
4,40,106,40
4,34,106,145
4,37,106,90
4,41,106,10
4,37,116,60
4,36,106,145
4,40,106,30
4,43,110,30
4,40,106,35
4,29,106,175
4,32,116,70
4,36,106,0
4,32,126,80
4,36,110,70
4,40,106,90
4,43,116,25
4,40,116,20
4,29,110,145
4,34,126,3635
4,37,116,45
4,41,116,5
4,37,116,65
4,36,100,100
4,40,122,25
4,43,110,5
4,40,116,40
4,34,126,70
4,37,116,40
4,41,122,25
4,37,116,45
4,36,106,95
4,40,110,50
4,43,100,65
4,40,110,5
4,29,100,50
4,32,126,50
4,36,100,50
4,32,126,35
4,36,110,80
4,40,106,55
4,43,106,5
4,40,110,60
4,29,110,80
4,41,122,3975
4,39,106,0
4,37,126,185
4,39,126,20
4,41,126,150
4,41,116,2100
4,39,106,0
4,37,126,175
4,39,116,65
4,41,110,175
4,29,116,1595
4,29,100,110
4,29,116,110
4,29,96,140
4,34,126,100
4,34,106,70
4,34,126,130
4,34,126,120
4,39,116,200
4,39,116,115
4,39,116,105
4,39,116,160
4,39,116,120
4,32,126,175
4,34,116,1660
4,37,116,25
4,41,110,5
4,37,116,15
4,36,110,125
4,40,110,55
4,43,110,5
4,40,106,40
4,34,126,120
4,37,126,25
4,41,122,25
4,37,126,20
4,36,116,55
4,40,116,50
4,43,100,5
4,40,100,30
4,29,106,90
4,32,116,50
4,36,106,40
4,32,116,45
4,36,106,70
4,40,110,20
4,43,110,5
4,40,110,20
4,29,116,100
4,29,62,2045
4,29,78,145
4,29,74,130
4,29,100,135
4,29,88,125
4,29,88,140
4,34,116,95
4,37,116,95
4,41,116,20
4,37,126,30
4,36,110,85
4,40,106,70
4,43,106,5
4,40,106,30
4,34,126,30
4,37,116,65
4,41,122,5
4,37,116,5
4,36,100,150
4,40,110,20
4,43,110,5
4,40,96,85
4,29,106,95
4,32,116,55
4,36,106,40
4,32,106,65
4,36,106,85
4,40,106,45
4,43,100,5
4,40,106,35
4,29,100,20
4,32,98,40
4,36,106,15
4,32,116,60
4,29,110,105
4,34,116,1630
4,37,126,30
4,41,122,40
4,37,126,5
4,36,100,65
4,40,100,55
4,43,106,5
4,40,106,55
4,34,126,50
4,37,126,15
4,41,122,50
4,37,126,5
4,36,110,65
4,40,106,55
4,43,106,480
4,40,106,85
4,29,106,120
4,32,116,10
4,36,106,15
4,32,106,35
4,36,110,5
4,40,110,50
4,43,106,5
4,40,106,55
4,29,122,70
4,41,116,3985
4,39,116,0
4,37,126,210
4,39,106,20
4,41,126,175
4,41,116,2085
4,39,116,0
4,37,116,220
4,39,106,35
4,41,122,175
4,29,122,1620
4,29,78,90
4,29,110,135
4,29,96,165
4,34,116,80
4,34,98,115
4,34,106,95
4,34,126,150
4,39,116,190
4,39,116,205
4,39,106,70
4,39,116,235
4,39,98,90
4,32,126,250
4,34,116,1605
4,37,116,15
4,41,116,5
4,37,116,30
4,36,106,95
4,40,110,50
4,43,110,5
4,40,116,60
4,34,126,110
4,37,126,75
4,41,116,55
4,37,126,5
4,36,100,95
4,40,110,55
4,43,116,20
4,40,110,65
4,29,100,110
4,32,116,35
4,36,100,35
4,32,116,85
4,29,106,100
4,32,126,65
4,36,110,70
4,32,106,100
4,34,106,120
4,37,116,50
4,41,116,65
4,37,116,25
4,34,116,70
4,37,116,50
4,41,116,45
4,37,126,5
4,29,106,130
4,32,116,55
4,36,100,5
4,32,116,5
4,29,92,15
4,32,116,45
4,36,96,20
4,32,116,60
4,34,116,150
4,37,116,75
4,41,116,50
4,37,126,5
4,34,126,75
4,37,116,55
4,41,110,40
4,37,126,25
4,41,116,130
4,41,100,205
4,39,116,0
4,37,126,165
4,39,116,25
4,41,110,130
4,41,96,235
4,39,116,0
4,37,106,220
4,39,106,50
4,41,110,205
4,41,100,270
4,39,106,0
4,37,98,210
4,39,116,0
4,41,126,185
4,29,126,1610
5,61,127,12115
5,58,127,5
5,65,127,5
5,64,101,0
5,60,127,5
5,67,127,25
5,61,127,50
5,65,127,0
5,58,127,40
5,60,127,60
5,67,127,5
5,64,127,5
5,65,127,80
5,68,127,20
5,64,127,90
5,67,127,10
5,56,127,140
5,60,127,0
5,65,127,20
5,58,127,3460
5,61,127,5
5,65,127,5
5,60,127,50
5,67,127,15
5,64,127,10
5,61,127,50
5,65,127,5
5,58,127,5
5,60,127,75
5,67,127,20
5,64,127,5
5,68,127,65
5,65,127,5
5,64,127,40
5,67,127,15
5,65,127,75
5,60,127,5
5,68,127,11225
5,65,127,5
5,70,127,15
5,67,127,20
5,68,127,50
5,63,127,20
5,58,127,1645
5,61,127,5
5,65,127,5
5,60,127,35
5,67,127,30
5,64,127,20
5,65,127,35
5,58,127,0
5,61,127,10
5,60,127,40
5,64,127,30
5,67,127,5
5,65,127,80
5,68,127,30
5,67,127,50
5,64,127,5
5,60,127,45
5,65,127,5
5,61,127,3440
5,65,127,15
5,60,127,25
5,64,127,25
5,67,127,70
5,61,127,60
5,65,127,5
5,64,127,80
5,60,127,5
5,67,127,85
5,65,127,10
5,68,127,5
5,67,127,25
5,64,127,5
5,68,127,35
5,65,127,0
5,58,127,1885
5,61,127,10
5,65,127,15
5,60,127,25
5,64,127,15
5,58,127,75
5,61,127,10
5,65,127,30
5,60,127,15
5,64,127,15
5,67,127,95
5,68,121,10
5,65,127,15
5,64,127,5
5,67,127,5
5,60,127,60
5,65,127,10
5,68,127,11225
5,65,127,10
5,67,127,10
5,70,127,5
5,63,127,10
5,68,127,5
5,58,127,1640
5,61,127,5
5,65,127,10
5,60,127,30
5,67,127,30
5,64,127,5
5,65,127,40
5,61,127,10
5,58,127,10
5,60,127,125
5,64,127,15
5,67,127,5
5,65,127,65
5,68,127,10
5,72,127,260
5,61,127,305
5,58,121,5
5,65,127,25
5,65,127,180
5,60,127,5
5,68,127,0
5,58,127,45
5,61,127,20
6,60,106,10460
6,60,88,130
6,60,100,135
6,60,88,130
6,60,88,140
6,60,84,170
6,55,110,115
6,58,106,120
6,58,106,100
6,60,96,880
6,60,88,150
6,60,88,155
6,60,100,150
6,60,92,140
6,60,100,140
6,55,106,125
6,58,126,140
6,58,126,140
6,60,96,715
6,60,88,140
6,60,100,150
6,60,98,145
6,61,106,55
6,60,100,5
6,58,116,85
6,60,110,80
6,58,106,85
6,56,116,60
6,60,110,620
6,60,106,145
6,60,100,130
6,60,106,130
6,61,106,30
6,60,110,5
6,58,126,95
6,60,110,100
6,58,98,105
6,56,116,65
6,60,106,675
6,60,96,150
6,60,110,165
6,60,96,155
6,60,92,150
6,60,88,160
6,55,96,135
6,58,116,130
6,58,116,110
6,60,100,1135
6,60,110,150
6,60,92,150
6,60,96,145
6,60,96,140
6,60,96,155
6,55,96,130
6,58,126,125
