track,note,velocity,time
0,38,95,75
0,38,95,0
0,70,109,3
0,69,119,36
0,38,87,13
0,38,87,0
0,38,85,11
0,38,85,0
0,81,127,55
0,33,84,0
0,33,84,0
0,37,84,40
0,37,84,0
0,38,91,8
0,38,91,0
0,70,100,18
0,69,116,34
0,38,92,34
0,38,92,0
0,38,90,21
0,38,90,0
0,81,119,65
0,38,91,0
0,38,91,0
0,37,65,48
0,37,65,0
0,35,95,1
0,35,95,0
0,70,109,16
0,69,121,34
0,35,93,29
0,35,93,0
0,35,90,21
0,35,90,0
0,81,121,61
0,33,84,0
0,33,84,0
0,30,90,48
0,30,90,0
0,35,95,3
0,35,95,0
0,70,106,10
0,69,119,34
0,35,92,0
0,35,92,0
0,35,93,19
0,35,93,0
0,81,114,69
0,35,92,0
0,35,92,0
0,33,69,0
0,33,69,0
0,31,104,4
0,31,104,0
0,70,106,17
0,69,112,34
0,31,104,34
0,31,104,0
0,31,101,19
0,31,101,0
0,81,116,66
0,31,89,0
0,31,89,0
0,34,60,44
0,34,60,0
0,35,90,4
0,35,90,0
0,33,91,6
0,33,91,0
0,70,100,16
0,69,107,34
0,33,100,14
0,33,100,0
0,33,96,18
0,33,96,0
0,81,121,67
0,33,103,0
0,33,103,0
0,37,93,9
0,37,93,0
0,38,90,5
0,38,90,0
0,70,94,16
0,69,106,34
0,38,95,33
0,38,95,0
0,38,91,20
0,38,91,0
0,81,116,66
0,33,95,0
0,33,95,0
0,37,88,11
0,37,88,0
0,38,92,8
0,38,92,0
0,70,100,12
0,69,106,34
0,38,98,31
0,38,98,0
0,38,95,18
0,38,95,0
0,81,114,66
0,33,101,0
0,33,101,0
0,37,90,9
0,37,90,0
0,38,101,4
0,66,46,0
0,62,62,0
0,38,101,0
0,70,100,0
0,57,67,0
0,69,109,0
0,50,65,0
0,54,55,0
0,38,90,0
0,57,80,0
0,38,90,0
0,38,86,0
0,66,56,0
0,62,67,0
0,38,86,0
0,57,56,0
0,81,116,0
0,33,82,0
0,54,56,0
0,50,68,0
0,33,82,0
0,37,86,0
0,57,70,0
0,37,86,0
0,38,93,0
0,66,46,0
0,62,74,0
0,38,93,0
0,70,103,0
0,57,74,0
0,69,104,0
0,50,59,0
0,54,65,0
0,38,93,0
0,57,80,0
0,38,93,0
0,38,94,0
0,66,52,0
0,62,68,0
0,38,94,0
0,57,67,0
0,81,114,0
0,38,93,0
0,50,67,0
0,54,56,0
0,38,93,0
0,37,80,0
0,57,74,0
0,37,80,0
0,35,103,0
0,66,56,0
0,62,67,0
0,35,103,0
0,70,97,0
0,59,70,0
0,69,112,0
0,54,56,0
0,50,52,0
0,35,96,0
0,59,80,0
0,35,96,0
0,35,91,0
0,66,34,0
0,62,73,0
0,35,91,0
0,59,61,0
0,81,119,0
0,33,96,0
0,54,56,0
0,50,67,0
0,33,96,0
0,30,90,0
0,59,77,0
0,30,90,0
0,35,101,0
0,66,47,0
0,62,68,0
0,35,101,0
0,70,100,0
0,59,62,0
0,69,112,0
0,50,65,0
0,54,56,0
0,35,97,0
0,59,74,0
0,35,97,0
0,35,96,0
0,62,62,0
0,66,52,0
0,35,96,0
0,59,73,0
0,81,112,0
0,35,96,0
0,50,73,0
0,54,59,0
0,35,96,0
0,33,76,0
0,59,86,0
0,33,76,0
0,31,106,0
0,67,52,0
0,62,74,0
0,31,106,0
0,70,100,0
0,59,61,0
0,69,107,0
0,55,38,0
0,50,62,0
0,31,96,0
0,59,74,0
0,31,96,0
0,31,95,0
0,62,77,0
0,67,55,0
0,31,95,0
0,59,70,0
0,81,107,0
0,31,98,0
0,55,50,0
0,50,62,0
0,31,98,0
0,34,92,0
0,35,82,0
0,59,83,0
0,34,92,0
0,35,82,0
0,33,86,0
0,64,1,0
0,61,53,0
0,33,86,0
0,70,103,0
0,55,68,0
0,69,107,0
0,45,59,0
0,52,14,0
0,33,106,0
0,55,67,0
0,33,106,0
0,33,99,0
0,64,70,0
0,61,56,0
0,33,99,0
0,55,68,0
0,81,119,0
0,33,99,0
0,45,62,0
0,52,52,0
0,33,99,0
0,37,97,0
0,55,67,0
0,37,97,0
0,38,97,1
0,62,55,0
0,66,1,0
0,38,97,0
0,70,97,0
0,57,47,0
0,69,107,0
0,54,52,0
0,50,52,0
0,38,95,0
0,57,74,0
0,38,95,0
0,38,92,0
0,66,62,0
0,62,68,0
0,38,92,0
0,57,56,0
0,81,119,0
0,33,97,0
0,54,55,0
0,50,62,0
0,33,97,0
0,37,94,0
0,57,73,0
0,37,94,0
0,38,98,0
0,66,43,0
0,62,61,0
0,38,98,0
0,70,100,0
0,57,59,0
0,69,114,0
0,54,61,0
0,50,68,0
0,38,96,0
0,57,77,0
0,38,96,0
0,38,99,0
0,66,47,0
0,38,99,0
0,62,77,1
0,57,70,0
0,81,119,0
0,33,102,0
0,54,61,0
0,50,67,0
0,33,102,0
0,37,95,0
0,57,74,0
0,37,95,0
0,38,99,0
0,66,46,0
0,62,62,0
0,38,99,0
0,49,96,1
0,54,91,0
0,62,91,0
0,57,91,0
0,35,115,1
0,70,118,0
0,57,67,0
0,37,127,0
0,69,124,0
0,50,65,0
0,54,55,0
0,35,115,0
0,38,96,0
0,57,80,0
0,38,96,0
0,35,115,0
0,38,96,0
0,66,56,0
0,62,67,0
0,38,96,0
0,57,56,0
0,81,120,0
0,33,95,0
0,54,56,0
0,50,68,0
0,33,95,0
0,37,127,1
0,37,87,0
0,57,70,0
0,37,87,0
0,35,115,0
0,38,99,0
0,66,46,0
0,62,74,0
0,38,99,0
0,70,117,0
0,57,74,0
0,69,123,0
0,50,59,0
0,54,65,0
0,37,127,1
0,35,115,0
0,38,99,0
0,57,80,0
0,38,99,0
0,35,115,0
0,38,99,0
0,66,52,0
0,62,68,0
0,38,99,0
0,57,67,0
0,81,117,0
0,38,97,0
0,50,67,0
0,54,56,0
0,38,97,0
0,37,127,1
0,37,83,0
0,57,74,0
0,37,83,0
0,35,115,0
0,35,101,0
0,66,56,0
0,62,67,0
0,62,91,0
0,59,91,0
0,35,101,0
0,54,91,1
0,70,113,0
0,59,70,0
0,69,123,0
0,54,56,0
0,50,52,0
0,37,127,1
0,35,113,0
0,35,99,0
0,59,80,0
0,35,99,0
0,35,115,0
0,35,96,0
0,66,34,0
0,62,73,0
0,35,96,0
0,59,61,0
0,81,114,0
0,33,95,0
0,54,56,0
0,50,67,0
0,33,95,0
0,37,127,1
0,30,93,0
0,59,77,0
0,30,93,0
0,35,115,0
0,35,101,0
0,66,47,0
0,62,68,0
0,35,101,0
0,70,115,0
0,59,62,0
0,69,122,0
0,50,65,0
0,54,56,0
0,37,127,1
0,35,115,0
0,35,99,0
0,59,74,0
0,35,99,0
0,35,115,0
0,35,96,0
0,62,62,0
0,66,52,0
0,35,96,0
0,59,73,0
0,37,127,0
0,81,109,0
0,35,102,0
0,50,73,0
0,54,59,0
0,35,102,0
0,33,92,0
0,59,86,0
0,33,92,0
0,35,113,0
0,31,103,0
0,67,52,0
0,62,74,0
0,59,91,0
0,31,103,0
0,50,91,1
0,55,91,0
0,70,111,0
0,59,61,0
0,69,120,0
0,55,38,0
0,50,62,0
0,37,127,1
0,35,115,0
0,31,109,0
0,59,74,0
0,31,109,0
0,35,115,0
0,31,102,0
0,62,77,0
0,67,55,0
0,31,102,0
0,59,70,0
0,81,114,0
0,31,101,0
0,55,50,0
0,50,62,0
0,31,101,0
0,37,127,1
0,34,75,35
0,34,75,0
0,35,103,0
0,59,83,0
0,35,103,0
0,35,115,0
0,33,90,0
0,64,1,0
0,61,53,0
0,61,91,0
0,33,90,0
0,52,91,1
0,57,91,0
0,70,115,0
0,55,68,0
0,37,127,0
0,69,123,0
0,45,59,0
0,52,14,0
0,35,115,0
0,33,94,0
0,55,67,0
0,33,94,0
0,35,115,0
0,33,96,0
0,64,70,0
0,61,56,0
0,33,96,0
0,55,68,0
0,37,127,0
0,81,117,0
0,33,103,0
0,45,62,0
0,52,52,0
0,33,103,0
0,37,101,0
0,55,67,0
0,37,101,0
0,35,115,0
0,38,97,0
0,62,55,0
0,66,1,0
0,62,91,0
0,38,97,0
0,57,91,1
0,54,91,0
0,70,113,0
0,57,47,0
0,69,124,0
0,54,52,0
0,50,52,0
0,37,127,1
0,35,112,0
0,38,92,0
0,57,74,0
0,38,92,0
0,35,115,0
0,38,97,0
0,66,62,0
0,62,68,0
0,38,97,0
0,57,56,0
0,81,111,0
0,33,101,0
0,54,55,0
0,50,62,0
0,33,101,0
0,37,127,1
0,37,95,0
0,57,73,0
0,37,95,0
0,35,115,0
0,38,99,0
0,66,43,0
0,62,61,0
0,38,99,0
0,70,113,0
0,57,59,0
0,69,123,0
0,54,61,0
0,50,68,0
0,37,127,1
0,35,115,0
0,38,101,0
0,57,77,0
0,38,101,0
0,35,115,0
0,38,98,0
0,66,47,0
0,62,77,0
0,38,98,0
0,46,127,0
0,38,110,0
0,57,70,0
0,38,127,0
0,81,104,0
0,33,98,0
0,54,61,0
0,50,67,0
0,33,98,0
0,38,127,11
0,38,127,0
0,37,96,0
0,57,74,0
0,37,96,0
0,62,108,0
0,66,108,0
0,74,108,0
0,35,115,0
0,49,102,0
0,38,99,0
0,66,46,0
0,62,62,0
0,38,99,0
0,54,91,1
0,62,91,0
0,57,91,0
0,51,102,0
0,70,113,0
0,57,67,0
0,51,102,0
0,69,122,0
0,50,65,0
0,54,55,0
0,38,127,1
0,44,127,0
0,35,115,0
0,51,102,0
0,38,94,0
0,57,80,0
0,38,94,0
0,35,115,0
0,51,102,0
0,38,95,0
0,66,56,0
0,62,67,0
0,38,95,0
0,51,102,0
0,57,56,0
0,51,102,0
0,81,117,0
0,33,103,0
0,54,56,0
0,50,68,0
0,33,103,0
0,38,127,1
0,44,127,0
0,51,102,0
0,37,94,0
0,57,70,0
0,37,94,0
0,35,115,0
0,51,102,0
0,38,94,0
0,66,46,0
0,62,74,0
0,38,94,0
0,51,102,0
0,57,74,0
0,51,102,0
0,50,59,0
0,54,65,0
0,38,127,1
0,44,127,0
0,35,115,0
0,51,102,0
0,38,96,0
0,57,80,0
0,38,96,0
0,64,108,0
0,73,108,0
0,61,108,1
0,35,115,0
0,51,102,0
0,38,96,0
0,66,52,0
0,62,68,0
0,38,96,0
0,51,94,0
0,57,67,0
0,81,117,0
0,38,101,0
0,50,67,0
0,54,56,0
0,38,101,0
0,51,102,1
0,38,127,0
0,44,127,0
0,51,102,0
0,37,93,0
0,57,74,0
0,37,93,0
0,62,108,1
0,59,108,0
0,71,108,0
0,35,115,0
0,35,107,0
0,66,56,0
0,62,67,0
0,35,107,0
0,51,102,1
0,62,91,0
0,59,91,0
0,54,91,0
0,51,91,0
0,59,70,0
0,51,102,0
0,38,127,0
0,54,56,0
0,50,52,0
0,44,127,1
0,35,115,0
0,51,102,0
0,35,96,0
0,59,80,0
0,35,96,0
0,35,115,0
0,51,102,0
0,35,101,0
0,66,34,0
0,62,73,0
0,35,101,0
0,51,94,0
0,59,61,0
0,51,102,0
0,81,114,0
0,33,94,0
0,54,56,0
0,50,67,0
0,33,94,0
0,38,127,1
0,44,127,0
0,51,102,0
0,31,95,0
0,59,77,0
0,31,95,0
0,35,115,0
0,51,102,0
0,35,104,0
0,66,47,0
0,62,68,0
0,35,104,0
0,51,99,0
0,59,62,0
0,51,102,0
0,50,65,0
0,54,56,0
0,38,127,1
0,44,127,0
0,35,115,0
0,51,102,0
0,35,98,0
0,59,74,0
0,35,98,0
0,71,108,0
0,62,108,0
0,59,108,1
0,35,115,0
0,51,102,0
0,35,98,0
0,62,62,0
0,66,52,0
0,35,98,0
0,51,102,0
0,59,73,0
0,73,108,0
0,64,108,1
0,61,108,0
0,51,102,0
0,38,127,0
0,44,127,0
0,81,111,0
0,35,97,0
0,50,73,0
0,54,59,0
0,35,97,0
0,51,102,0
0,33,87,0
0,59,86,0
0,33,87,0
0,62,108,1
0,74,108,0
0,67,108,0
0,35,115,0
0,51,102,0
0,31,112,0
0,67,52,0
0,62,74,0
0,31,112,0
0,59,91,0
0,50,91,0
0,55,91,0
0,51,99,0
0,59,61,0
0,51,102,0
0,55,38,0
0,50,62,0
0,38,127,1
0,44,127,0
0,35,115,0
0,51,102,0
0,31,102,0
0,59,74,0
0,31,102,0
0,35,115,0
0,51,102,0
0,31,99,0
0,62,77,0
0,67,55,0
0,31,99,0
0,51,99,0
0,59,70,0
0,71,108,0
0,51,102,0
0,38,127,0
0,44,127,0
0,81,114,0
0,31,98,0
0,55,50,0
0,50,62,0
0,31,98,0
0,51,102,0
0,34,89,0
0,35,114,0
0,59,83,0
0,34,89,0
0,35,114,0
0,69,108,0
0,61,108,0
0,73,108,0
0,33,91,0
0,64,1,0
0,61,53,0
0,33,91,0
0,35,115,1
0,51,102,0
0,61,91,0
0,52,91,0
0,57,91,0
0,51,91,0
0,55,68,0
0,51,102,0
0,38,127,0
0,45,59,0
0,52,14,0
0,44,127,1
0,35,115,0
0,51,102,0
0,33,96,0
0,55,67,0
0,33,96,0
0,35,115,0
0,51,102,0
0,33,95,0
0,64,70,0
0,61,56,0
0,33,95,0
0,51,102,0
0,55,68,0
0,76,108,0
0,51,102,0
0,38,127,0
0,44,127,0
0,81,114,0
0,33,107,0
0,45,62,0
0,52,52,0
0,33,107,0
0,51,102,0
0,37,98,0
0,55,67,0
0,37,98,0
0,66,108,1
0,62,108,0
0,74,108,0
0,35,115,0
0,38,97,0
0,62,55,0
0,66,1,0
0,38,97,0
0,51,102,1
0,62,91,0
0,57,91,0
0,54,91,0
0,51,99,0
0,57,47,0
0,51,102,0
0,54,52,0
0,50,52,0
0,38,127,1
0,44,127,0
0,35,115,0
0,51,102,0
0,38,95,0
0,57,74,0
0,38,95,0
0,35,115,0
0,51,102,0
0,38,96,0
0,66,62,0
0,62,68,0
0,38,96,0
0,51,94,0
0,57,56,0
0,81,108,0
0,51,102,0
0,38,127,0
0,44,127,0
0,81,117,0
0,38,112,0
0,54,55,0
0,50,62,0
0,38,112,0
0,51,102,0
0,36,104,0
0,57,73,0
0,36,104,0
0,82,127,40
0,65,124,0
0,74,127,0
0,58,127,0
0,35,115,0
0,51,102,0
0,34,104,0
0,65,43,0
0,62,61,0
0,53,91,0
0,58,91,0
0,34,104,0
0,51,76,0
0,58,59,0
0,51,102,0
0,53,61,0
0,50,68,0
0,38,127,1
0,44,127,0
0,35,115,0
0,51,102,0
0,34,119,0
0,58,77,0
0,34,119,0
0,35,115,0
0,51,102,0
0,34,119,0
0,53,47,0
0,62,77,0
0,34,119,0
0,48,127,0
0,58,70,0
0,44,127,0
0,81,106,0
0,34,119,0
0,53,61,0
0,50,67,0
0,34,119,0
0,45,127,10
0,38,103,0
0,58,74,0
0,38,103,0
0,39,102,0
0,67,46,0
0,63,62,0
0,39,102,0
0,35,115,1
0,49,92,0
0,55,91,0
0,63,91,0
0,58,91,0
0,70,118,0
0,58,67,0
0,69,122,0
0,51,65,0
0,55,55,0
0,37,127,1
0,35,115,0
0,39,96,0
0,58,80,0
0,39,96,0
0,35,115,0
0,39,97,0
0,67,56,0
0,63,67,0
0,39,97,0
0,58,56,0
0,81,117,0
0,34,110,0
0,55,56,0
0,51,68,0
0,34,110,0
0,37,127,1
0,38,96,0
0,58,70,0
0,38,96,0
0,35,115,0
0,39,99,0
0,67,46,0
0,63,74,0
0,39,99,0
0,70,115,0
0,58,74,0
0,37,127,0
0,69,122,0
0,51,59,0
0,55,65,0
0,35,115,0
0,39,96,0
0,58,80,0
0,39,96,0
0,35,115,0
0,39,97,0
0,67,52,0
0,63,68,0
0,39,97,0
0,58,67,0
0,81,117,0
0,39,102,0
0,51,67,0
0,55,56,0
0,39,102,0
0,37,127,1
0,38,88,0
0,58,74,0
0,38,88,0
0,35,115,0
0,36,107,0
0,67,56,0
0,63,67,0
0,63,91,0
0,60,91,0
0,36,107,0
0,55,91,1
0,70,112,0
0,60,70,0
0,37,127,0
0,69,120,0
