track,note,velocity,time
4,26,89,14039
4,26,0,1533
4,31,74,3
4,31,0,1533
4,38,68,3
4,38,0,1533
4,43,72,3
4,43,0,1319
4,31,91,25
4,31,0,44
4,26,105,6
4,26,0,130
4,26,98,22
4,26,0,18
4,26,91,118
4,26,0,29
4,26,69,27
4,26,0,29
4,26,96,11
4,26,0,33
4,26,75,23
4,26,0,31
4,26,100,9
4,26,0,125
4,26,80,67
4,26,0,23
4,26,105,73
4,26,0,67
4,26,98,22
4,26,0,18
4,26,91,78
4,26,0,20
4,26,69,76
4,26,0,30
4,26,96,10
4,26,0,33
4,26,75,23
4,26,0,31
4,26,100,9
4,26,0,125
4,26,80,67
4,26,0,23
4,31,105,73
4,31,0,130
4,31,98,22
4,31,0,18
4,31,91,28
4,31,0,29
4,31,69,27
4,31,0,29
4,31,96,11
4,31,0,33
4,31,75,23
4,31,0,11
4,31,100,9
4,31,0,125
4,31,80,17
4,31,0,23
4,31,105,73
4,31,0,130
4,31,98,22
4,31,0,18
4,31,91,78
4,31,0,20
4,38,90,5
4,38,0,17
4,38,75,10
4,38,0,31
4,38,100,9
4,38,0,125
4,38,97,27
4,38,0,7
4,26,105,2
4,26,0,130
4,26,98,22
4,26,0,18
4,26,91,118
4,26,0,29
4,26,69,27
4,26,0,29
4,26,96,11
4,26,0,33
4,26,75,23
4,26,0,31
4,26,100,9
4,26,0,125
4,26,80,67
4,26,0,23
4,26,105,73
4,26,0,52
4,26,98,44
4,26,0,87
4,26,91,65
4,26,0,20
4,26,69,76
4,26,0,30
4,26,96,10
4,26,0,33
4,26,75,23
4,26,0,31
4,26,100,9
4,26,0,125
4,26,80,67
4,26,0,23
4,31,105,73
4,31,0,130
4,31,98,22
4,31,0,18
4,31,91,118
4,31,0,29
4,31,69,27
4,31,0,29
4,31,96,11
4,31,0,33
4,31,75,23
4,31,0,31
4,31,100,9
4,31,0,125
4,31,80,67
4,31,0,23
4,31,105,73
4,31,0,130
4,31,98,22
4,31,0,18
4,31,91,118
4,31,0,29
4,31,69,27
4,31,0,29
4,31,96,11
4,31,0,33
4,31,75,23
4,31,0,31
4,31,100,9
4,31,0,125
4,31,97,27
4,31,0,7
4,26,108,2
4,26,0,45
4,26,101,59
4,26,0,66
4,26,88,78
4,26,0,12
4,26,72,84
4,26,0,29
4,26,99,11
4,26,0,129
4,26,101,23
4,26,0,18
4,26,87,118
4,26,0,22
4,26,108,74
4,26,0,45
4,26,101,59
4,26,0,66
4,26,94,78
4,26,0,20
4,26,72,76
4,26,0,30
4,26,99,10
4,26,0,129
4,26,101,23
4,26,0,18
4,26,83,118
4,26,0,23
4,31,108,73
4,31,0,45
4,31,101,59
4,31,0,66
4,31,88,78
4,31,0,12
4,31,72,84
4,31,0,29
4,31,99,11
4,31,0,129
4,31,101,23
4,31,0,18
4,31,87,118
4,31,0,22
4,31,108,74
4,31,0,45
4,31,101,59
4,31,0,66
4,31,94,78
4,31,0,20
4,31,72,76
4,31,0,30
4,31,99,10
4,31,0,129
4,31,101,23
4,31,0,18
4,31,83,118
4,31,0,23
4,26,108,73
4,26,0,45
4,26,101,59
4,26,0,66
4,26,88,78
4,26,0,12
4,26,72,84
4,26,0,29
4,26,99,11
4,26,0,129
4,26,101,23
4,26,0,18
4,26,87,118
4,26,0,22
4,26,108,74
4,26,0,45
4,26,101,59
4,26,0,66
4,26,94,78
4,26,0,20
4,26,72,76
4,26,0,30
4,26,99,10
4,26,0,129
4,26,101,23
4,26,0,18
4,26,83,118
4,26,0,23
4,31,108,73
4,31,0,45
4,31,101,59
4,31,0,66
4,31,88,78
4,31,0,12
4,31,72,84
4,31,0,29
4,31,99,11
4,31,0,129
4,31,101,23
4,31,0,18
4,31,87,118
4,31,0,22
4,31,108,74
4,31,0,45
4,31,101,59
4,31,0,66
4,31,94,78
4,31,0,20
4,31,72,76
4,31,0,30
4,31,108,10
4,31,0,45
4,31,101,59
4,31,0,98
4,31,100,46
4,31,0,7
4,26,107,2
4,26,0,130
4,26,100,22
4,26,0,18
4,26,93,118
4,26,0,29
4,26,71,27
4,26,0,29
4,26,98,11
4,26,0,33
4,26,77,23
4,26,0,31
4,26,102,9
4,26,0,125
4,26,82,67
4,26,0,23
4,26,107,73
4,26,0,130
4,26,100,22
4,26,0,18
4,26,93,78
4,26,0,20
4,26,71,76
4,26,0,30
4,26,98,10
4,26,0,33
4,26,77,23
4,26,0,31
4,26,102,9
4,26,0,125
4,26,82,67
4,26,0,23
4,31,107,73
4,31,0,130
4,31,100,22
4,31,0,18
4,31,93,118
4,31,0,29
4,31,71,27
4,31,0,29
4,31,98,11
4,31,0,33
4,31,77,23
4,31,0,31
4,31,102,9
4,31,0,125
4,31,82,67
4,31,0,23
4,31,107,73
4,31,0,130
4,31,100,22
4,31,0,18
4,31,93,78
4,31,0,20
4,38,92,5
4,38,0,17
4,38,77,10
4,38,0,31
4,38,102,9
4,38,0,125
4,38,99,27
4,38,0,7
4,26,107,2
4,26,0,130
4,26,100,22
4,26,0,18
4,26,93,118
4,26,0,29
4,26,71,27
4,26,0,29
4,26,98,11
4,26,0,33
4,26,77,23
4,26,0,31
4,26,102,9
4,26,0,125
4,26,82,67
4,26,0,23
4,26,107,73
4,26,0,52
4,26,100,44
4,26,0,87
4,26,93,65
4,26,0,20
4,26,71,76
4,26,0,30
4,26,98,10
4,26,0,33
4,26,77,23
4,26,0,31
4,26,102,9
4,26,0,125
4,26,82,67
4,26,0,23
4,31,107,73
4,31,0,174
4,33,107,114
4,33,0,174
4,34,107,114
4,34,0,750
4,29,98,18
4,29,0,81
4,28,98,15
4,28,0,81
4,26,106,15
4,26,0,45
4,26,99,59
4,26,0,66
4,26,86,78
4,26,0,12
4,26,70,84
4,26,0,29
4,26,97,11
4,26,0,129
4,26,99,23
4,26,0,18
4,26,85,118
4,26,0,22
4,26,106,74
4,26,0,45
4,26,99,59
4,26,0,66
4,26,92,78
4,26,0,20
4,26,70,76
4,26,0,30
4,26,97,10
4,26,0,129
4,26,99,23
4,26,0,18
4,26,81,118
4,26,0,23
4,31,106,73
4,31,0,45
4,31,99,59
4,31,0,66
4,31,86,78
4,31,0,12
4,31,70,84
4,31,0,29
4,31,97,11
4,31,0,129
4,31,99,23
4,31,0,18
4,31,85,118
4,31,0,22
4,31,106,74
4,31,0,45
4,31,99,59
4,31,0,66
4,31,92,78
4,31,0,20
4,31,70,76
4,31,0,30
4,31,97,10
4,31,0,129
4,31,99,23
4,31,0,18
4,31,81,118
4,31,0,23
4,26,106,73
4,26,0,45
4,26,99,59
4,26,0,66
4,26,86,78
4,26,0,12
4,26,70,84
4,26,0,29
4,26,97,11
4,26,0,129
4,26,99,23
4,26,0,18
4,26,85,118
4,26,0,22
4,26,106,74
4,26,0,45
4,26,99,59
4,26,0,66
4,26,92,78
4,26,0,20
4,26,70,76
4,26,0,30
4,26,97,10
4,26,0,129
4,26,99,23
4,26,0,18
4,26,81,118
4,26,0,23
4,31,106,73
4,31,0,45
4,31,99,59
4,31,0,66
4,31,86,78
4,31,0,12
4,31,70,84
4,31,0,29
4,31,97,11
4,31,0,129
4,31,99,23
4,31,0,18
4,31,85,118
4,31,0,22
4,31,106,74
4,31,0,45
4,31,99,59
4,31,0,66
4,31,92,78
4,31,0,20
4,53,89,72
4,53,0,30
4,50,84,14
4,50,0,141
4,43,99,11
4,43,0,29
4,45,99,19
4,45,0,44
4,31,98,4
4,31,0,7
4,26,108,2
4,26,0,130
4,26,101,22
4,26,0,18
4,26,94,118
4,26,0,29
4,26,72,27
4,26,0,29
4,26,99,11
4,26,0,33
4,26,78,23
4,26,0,31
4,26,103,9
4,26,0,125
4,26,83,67
4,26,0,23
4,26,108,73
4,26,0,130
4,26,101,22
4,26,0,18
4,26,94,78
4,26,0,20
4,26,72,76
4,26,0,30
4,26,99,10
4,26,0,33
4,26,78,23
4,26,0,31
4,26,103,9
4,26,0,125
4,26,83,67
4,26,0,23
4,31,108,73
4,31,0,130
4,31,101,22
4,31,0,18
4,31,94,118
4,31,0,29
4,31,72,27
4,31,0,29
4,31,99,11
4,31,0,33
4,31,78,23
4,31,0,31
4,31,103,9
4,31,0,125
4,31,83,67
4,31,0,23
4,31,108,73
4,31,0,130
4,31,101,22
4,31,0,18
4,31,94,78
4,31,0,20
4,38,93,5
4,38,0,17
4,38,78,10
4,38,0,31
4,38,103,9
4,38,0,125
4,38,100,27
4,38,0,7
4,26,108,2
4,26,0,130
4,26,101,22
4,26,0,18
4,26,94,118
4,26,0,29
4,26,72,27
4,26,0,29
4,26,99,11
4,26,0,33
4,26,78,23
4,26,0,31
4,26,103,9
4,26,0,125
4,26,83,67
4,26,0,23
4,26,108,73
4,26,0,52
4,26,101,44
4,26,0,87
4,26,94,65
4,26,0,20
4,26,72,76
4,26,0,30
4,26,99,10
4,26,0,33
4,26,78,23
4,26,0,31
4,26,103,9
4,26,0,125
4,26,83,67
4,26,0,23
4,31,108,73
4,31,0,130
4,31,101,22
4,31,0,18
4,31,94,118
4,31,0,29
4,31,72,27
4,31,0,29
4,31,99,11
4,31,0,33
4,31,78,23
4,31,0,31
4,31,103,9
4,31,0,125
4,31,83,67
4,31,0,23
4,31,108,73
4,31,0,130
4,31,101,22
4,31,0,18
4,31,94,118
4,31,0,29
4,31,72,27
4,31,0,29
4,31,99,11
4,31,0,33
4,31,78,23
4,31,0,31
4,31,103,9
4,31,0,125
4,31,100,27
4,31,0,7
4,26,104,2
4,26,0,45
4,26,102,59
4,26,0,88
4,26,73,152
4,26,0,12
4,26,100,28
4,26,0,33
4,26,79,23
4,26,0,31
4,26,104,9
4,26,0,125
4,26,73,123
4,26,0,12
4,26,104,28
4,26,0,45
4,26,102,59
4,26,0,88
4,26,95,56
4,26,0,20
4,26,73,76
4,26,0,30
4,26,100,10
4,26,0,33
4,26,79,23
4,26,0,31
4,26,104,9
4,26,0,125
4,26,73,123
4,26,0,12
4,26,104,28
4,26,0,45
4,26,102,59
4,26,0,88
4,26,73,152
4,26,0,12
4,26,100,28
4,26,0,33
4,26,79,23
4,26,0,31
4,26,104,9
4,26,0,125
4,26,73,123
4,26,0,12
4,26,104,28
4,26,0,45
4,26,102,59
4,26,0,88
4,26,95,56
4,26,0,20
4,26,73,76
4,26,0,30
4,26,100,10
4,26,0,33
4,50,120,23
4,50,0,35
4,43,90,1
4,43,0,14
4,45,89,26
4,45,0,8
4,26,109,1
4,26,0,130
4,26,102,22
4,26,0,18
4,26,95,118
4,26,0,29
4,26,73,27
4,26,0,29
4,26,100,11
4,26,0,33
4,26,79,23
4,26,0,31
4,26,104,9
4,26,0,125
4,26,84,67
4,26,0,23
4,26,109,73
4,26,0,130
4,26,102,22
4,26,0,18
4,26,95,78
4,26,0,20
4,26,73,76
4,26,0,30
4,26,100,10
4,26,0,33
4,26,79,23
4,26,0,31
4,26,104,9
4,26,0,125
4,26,84,67
4,26,0,23
4,31,109,73
4,31,0,130
4,31,102,22
4,31,0,18
4,31,95,118
4,31,0,29
4,31,73,27
4,31,0,29
4,31,100,11
4,31,0,33
4,31,79,23
4,31,0,31
4,31,104,9
4,31,0,125
4,31,84,67
4,31,0,23
4,31,109,73
4,31,0,130
4,31,102,22
4,31,0,18
4,31,95,78
4,31,0,20
4,31,94,5
4,31,0,17
4,31,79,10
4,31,0,31
4,31,104,9
4,31,0,125
4,31,101,27
4,31,0,7
4,26,109,2
4,26,0,130
4,26,102,22
4,26,0,18
4,26,95,118
4,26,0,29
4,26,73,27
4,26,0,29
4,26,100,11
4,26,0,33
4,26,79,23
4,26,0,31
4,26,104,9
4,26,0,125
4,26,84,67
4,26,0,23
4,26,109,73
4,26,0,52
4,26,102,44
4,26,0,87
4,26,95,65
4,26,0,20
4,26,73,76
4,26,0,30
4,26,100,10
4,26,0,33
4,26,79,23
4,26,0,31
4,26,104,9
4,26,0,125
4,26,84,67
4,26,0,23
4,31,109,73
4,31,0,130
4,31,102,22
4,31,0,18
4,31,95,118
4,31,0,29
4,31,73,27
4,31,0,29
4,31,100,11
4,31,0,33
4,31,79,23
4,31,0,31
4,31,104,9
4,31,0,125
4,31,84,67
4,31,0,23
4,31,109,73
4,31,0,130
4,31,102,22
4,31,0,18
4,31,95,118
4,31,0,29
4,31,73,27
4,31,0,29
4,31,100,11
4,31,0,33
4,31,79,23
4,31,0,31
4,31,104,9
4,31,0,125
4,31,101,27
4,31,0,7
4,26,109,2
4,26,0,49
4,26,102,47
4,26,0,70
4,38,101,122
4,38,0,70
4,26,100,26
4,26,0,133
4,26,102,19
4,26,0,22
4,26,88,114
4,26,0,26
4,26,109,70
4,26,0,49
4,26,102,47
4,26,0,70
4,26,95,82
4,26,0,24
4,26,73,72
4,26,0,34
4,26,109,6
4,26,0,49
4,26,102,47
4,26,0,70
4,26,95,82
4,26,0,24
4,26,73,72
4,26,0,34
4,31,109,6
4,31,0,49
4,31,102,47
4,31,0,70
4,31,89,82
4,31,0,12
4,31,73,84
4,31,0,33
4,31,100,7
4,31,0,133
4,31,102,19
4,31,0,22
4,31,88,114
4,31,0,26
4,31,109,70
4,31,0,49
4,33,102,47
4,33,0,58
4,34,102,38
4,34,0,49
4,31,95,7
4,31,0,35
4,31,73,61
4,31,0,34
4,31,100,6
4,31,0,133
4,38,81,19
4,38,0,12
4,43,101,28
4,43,0,144
4,26,109,48
4,26,0,49
4,26,102,47
4,26,0,70
4,26,89,82
4,26,0,12
4,26,73,84
4,26,0,33
4,26,100,7
4,26,0,133
4,26,102,19
4,26,0,22
4,26,88,114
4,26,0,26
4,26,109,70
4,26,0,49
4,26,102,47
4,26,0,70
4,26,95,82
4,26,0,24
4,26,73,72
4,26,0,34
4,26,100,6
4,26,0,133
4,26,102,19
4,26,0,22
4,26,84,114
4,26,0,27
4,31,109,69
4,31,0,49
4,31,102,47
4,31,0,70
4,31,89,82
4,31,0,12
4,31,73,84
4,31,0,33
4,31,100,7
4,31,0,133
4,31,102,19
4,31,0,22
4,31,88,114
4,31,0,26
4,31,109,70
4,31,0,49
4,31,102,47
4,31,0,70
4,31,95,82
4,31,0,24
4,31,73,72
4,31,0,34
4,31,109,6
4,31,0,49
4,31,102,47
4,31,0,33
4,31,104,63
4,31,0,46
4,43,101,10
4,43,0,11
4,26,109,2
4,26,0,49
4,26,102,47
4,26,0,70
4,38,101,122
4,38,0,70
4,26,100,26
4,26,0,133
4,26,102,19
4,26,0,22
4,26,88,114
4,26,0,26
4,26,109,70
4,26,0,49
4,26,102,47
4,26,0,70
4,26,95,82
4,26,0,24
4,26,73,72
4,26,0,34
4,26,109,6
4,26,0,49
4,26,102,47
4,26,0,70
4,26,95,82
4,26,0,24
4,26,73,72
4,26,0,34
4,31,109,6
4,31,0,49
4,31,102,47
4,31,0,70
4,31,89,82
4,31,0,12
4,31,73,84
4,31,0,33
4,31,100,7
4,31,0,133
4,31,102,19
4,31,0,22
4,31,88,114
4,31,0,26
4,31,109,70
4,31,0,49
4,33,102,47
4,33,0,58
4,34,102,38
4,34,0,49
4,31,95,7
4,31,0,35
4,31,73,61
4,31,0,34
4,31,100,6
4,31,0,133
4,38,81,19
4,38,0,12
4,43,101,28
4,43,0,144
4,26,109,48
4,26,0,49
4,26,102,47
4,26,0,70
4,26,89,82
4,26,0,12
4,26,73,84
4,26,0,33
4,26,100,7
4,26,0,133
4,26,102,19
4,26,0,22
4,26,88,114
4,26,0,26
4,26,109,70
4,26,0,49
4,26,102,47
4,26,0,70
4,26,95,82
4,26,0,24
4,26,73,72
4,26,0,34
4,26,100,6
4,26,0,133
4,26,102,19
4,26,0,22
4,26,84,114
4,26,0,27
4,31,109,69
4,31,0,49
4,31,102,47
4,31,0,70
4,31,89,82
4,31,0,12
4,31,73,84
4,31,0,33
4,31,100,7
4,31,0,133
4,31,102,19
4,31,0,22
4,31,88,114
4,31,0,26
4,31,109,70
4,31,0,49
4,31,102,47
4,31,0,70
4,31,95,82
4,31,0,24
