track,note,velocity,time
0,31,110,768
0,35,119,0
0,50,57,2
0,55,56,0
0,59,49,0
0,71,61,0
0,59,97,0
0,62,100,0
0,67,93,0
0,42,55,0
0,70,103,2
0,71,106,0
0,43,111,2
0,74,87,8
0,42,46,2
0,59,59,12
0,62,72,0
0,67,65,0
0,59,66,0
0,62,80,0
0,67,75,0
0,62,90,0
0,42,49,2
0,59,95,42
0,62,104,0
0,67,94,0
0,40,124,0
0,50,91,0
0,42,105,2
0,42,44,16
0,59,71,10
0,62,81,0
0,67,64,2
0,59,70,18
0,62,81,0
0,67,72,0
0,31,115,2
0,35,82,0
0,42,53,2
0,59,89,40
0,62,97,0
0,67,88,0
0,55,52,0
0,31,116,2
0,35,123,0
0,42,64,2
0,42,44,44
0,59,71,12
0,62,76,0
0,67,66,0
0,59,73,22
0,62,87,0
0,67,74,0
0,42,45,4
0,59,92,2
0,62,101,0
0,67,93,0
0,40,125,2
0,42,105,2
0,43,66,0
0,70,95,12
0,71,93,0
0,42,52,2
0,59,74,12
0,62,76,0
0,67,71,20
0,59,66,2
0,62,77,0
0,35,77,0
0,74,86,0
0,42,56,2
0,60,93,0
0,64,90,0
0,55,89,0
0,52,50,0
0,72,59,0
0,60,52,0
0,48,94,0
0,75,89,0
0,76,103,0
0,36,114,2
0,35,120,0
0,42,95,2
0,79,92,6
0,42,51,4
0,55,68,8
0,60,72,0
0,64,75,2
0,55,63,8
0,60,70,0
0,64,72,0
0,67,98,2
0,42,46,4
0,55,91,38
0,60,101,2
0,64,92,0
0,55,69,0
0,40,118,2
0,42,105,2
0,42,53,32
0,55,58,8
0,60,73,0
0,64,74,0
0,55,63,6
0,60,75,0
0,64,76,0
0,36,107,4
0,35,79,0
0,42,62,2
0,55,95,38
0,60,104,2
0,64,92,0
0,60,52,0
0,36,110,2
0,35,122,0
0,42,75,2
0,42,55,14
0,55,57,10
0,60,71,0
0,64,76,0
0,64,76,20
0,55,61,2
0,60,73,0
0,42,32,4
0,55,98,18
0,60,110,0
0,64,101,0
0,75,73,0
0,76,109,0
0,40,118,2
0,42,103,0
0,74,94,18
0,42,50,4
0,55,60,0
0,60,69,0
0,64,71,0
0,64,76,4
0,72,85,0
0,55,57,2
0,60,68,0
0,35,78,2
0,46,77,2
0,67,92,4
0,59,101,2
0,50,54,0
0,71,55,0
0,70,94,0
0,59,47,0
0,43,102,0
0,62,101,2
0,71,91,0
0,31,107,0
0,35,123,0
0,42,82,2
0,74,97,4
0,42,53,4
0,59,60,12
0,62,66,0
0,62,86,0
0,59,57,2
0,62,73,0
0,67,68,0
0,42,55,4
0,59,98,40
0,62,105,0
0,67,94,0
0,50,68,0
0,40,113,2
0,42,105,2
0,31,115,20
0,42,48,2
0,59,55,12
0,62,71,0
0,33,112,18
0,59,68,0
0,62,77,0
0,67,68,0
0,35,75,0
0,42,63,2
0,57,86,14
0,62,97,2
0,66,95,0
0,54,52,0
0,57,50,0
0,69,55,0
0,68,109,0
0,38,103,0
0,69,102,0
0,38,118,0
0,35,122,0
0,42,89,2
0,74,90,4
0,42,52,4
0,66,64,10
0,57,50,0
0,62,61,0
0,62,71,0
0,66,60,0
0,62,95,0
0,57,46,2
0,42,52,4
0,57,91,2
0,62,98,0
0,66,95,0
0,40,120,2
0,42,81,2
0,26,109,8
0,42,42,2
0,57,63,8
0,62,70,0
0,66,65,0
0,62,72,20
0,66,66,0
0,35,74,4
0,46,76,2
0,55,51,2
0,60,56,0
0,52,60,2
0,72,57,0
0,55,109,0
0,60,105,0
0,64,96,0
0,36,107,2
0,35,127,0
0,49,77,0
0,48,102,0
0,64,107,0
0,67,107,0
0,72,96,0
0,50,54,0
0,62,103,0
0,62,92,0
0,59,57,0
0,71,53,0
0,67,98,0
0,71,100,0
0,55,103,2
0,59,127,0
0,43,101,0
0,31,118,2
0,35,127,0
0,49,76,0
0,59,66,30
0,62,64,0
0,55,61,0
0,35,86,2
0,40,85,0
0,46,77,2
0,55,56,40
0,59,67,0
0,62,61,0
0,35,84,2
0,40,85,0
0,46,77,2
0,55,70,40
0,59,81,0
0,62,76,0
0,35,85,2
0,40,96,0
0,46,76,2
0,55,88,40
0,59,97,0
0,62,89,0
0,35,94,2
0,40,108,0
0,46,77,2
0,62,92,38
0,55,92,2
0,59,101,0
0,35,101,2
0,40,115,0
0,46,76,2
0,55,97,38
0,59,102,0
0,62,96,0
0,35,113,4
0,40,123,0
0,46,76,2
0,55,93,2
0,59,100,0
0,62,95,0
0,26,114,4
0,35,127,0
0,40,127,0
0,46,77,0
0,55,91,2
0,59,96,0
0,62,89,0
0,31,111,0
0,35,127,0
0,40,127,0
0,46,77,2
0,72,91,18
0,64,102,0
0,52,54,0
0,60,63,0
0,72,66,0
0,48,100,0
0,67,107,0
0,36,113,2
0,35,127,0
0,49,77,0
0,55,104,0
0,60,126,0
0,64,101,0
0,50,62,2
0,71,67,0
0,62,105,0
0,67,100,0
0,71,94,0
0,59,59,2
0,43,103,0
0,55,93,0
0,59,112,0
0,62,86,0
0,31,116,2
0,35,114,0
0,49,77,0
0,55,61,26
0,59,63,0
0,62,64,0
0,35,77,2
0,40,65,0
0,46,76,2
0,62,72,38
0,55,73,2
0,59,78,0
0,35,79,2
0,40,75,0
0,46,76,2
0,55,81,40
0,59,91,0
0,62,82,0
0,35,80,2
0,40,88,0
0,46,77,2
0,55,87,40
0,59,98,0
0,62,90,0
0,35,86,2
0,40,85,0
0,46,77,2
0,62,93,38
0,55,91,2
0,59,100,0
0,35,93,2
0,40,98,0
0,46,76,2
0,55,94,38
0,59,97,2
0,62,101,0
0,35,99,2
0,40,114,0
0,46,76,2
0,55,92,12
0,59,98,0
0,62,93,0
0,35,102,2
0,40,127,0
0,46,77,2
0,55,98,40
0,59,105,0
0,62,99,0
0,35,127,2
0,40,127,0
0,46,76,2
0,67,86,4
0,59,89,2
0,62,90,0
0,31,115,2
0,71,105,0
0,59,42,0
0,67,42,0
0,35,115,0
0,42,81,0
0,43,78,0
0,59,67,0
0,62,79,0
0,67,70,0
0,62,53,0
0,42,47,46
0,59,54,10
0,62,69,0
0,67,71,0
0,62,68,14
0,59,46,0
0,67,55,0
0,62,104,2
0,42,54,0
0,55,75,6
0,59,93,0
0,62,100,0
0,67,90,0
0,40,119,2
0,42,105,2
0,42,44,2
0,59,69,10
0,62,80,0
0,67,71,0
0,59,40,18
0,62,71,2
0,31,116,0
0,67,105,0
0,35,92,0
0,42,64,2
0,59,90,0
0,62,101,0
0,67,90,0
0,43,60,0
0,31,110,2
0,71,105,0
0,35,123,0
0,42,77,0
0,42,45,8
0,59,64,10
0,62,81,0
0,67,71,0
0,62,70,22
0,67,66,0
0,42,50,4
0,50,73,6
0,59,91,2
0,62,101,0
0,67,88,0
0,40,117,2
0,42,105,2
0,55,45,2
0,31,111,2
0,72,104,0
0,42,49,2
0,59,64,10
0,62,75,0
0,67,64,0
0,59,57,6
0,62,71,0
0,67,68,0
0,33,118,2
0,42,51,2
0,63,55,0
0,66,48,0
0,59,77,2
0,63,94,0
0,66,96,0
0,35,107,0
0,71,105,0
0,35,115,0
0,47,82,0
0,57,64,0
0,63,75,0
0,42,86,0
0,42,46,4
0,59,57,10
0,66,61,0
0,59,50,14
0,63,58,0
0,66,61,0
0,69,104,2
0,42,53,0
0,54,43,12
0,59,85,2
0,63,100,0
0,66,96,0
0,40,118,2
0,42,105,2
0,57,36,8
0,42,53,6
0,59,59,4
0,63,76,0
0,66,77,0
0,57,56,20
0,63,61,0
0,66,64,0
0,30,109,2
0,35,80,0
0,42,53,2
0,59,89,4
0,63,106,0
0,66,100,0
0,47,65,0
0,64,113,2
0,35,116,0
0,35,123,0
0,42,94,2
0,42,53,0
0,59,57,10
0,63,73,0
0,66,72,0
0,59,56,22
0,63,63,0
0,66,69,0
0,57,46,0
0,63,109,0
0,42,46,2
0,59,84,12
0,63,104,0
0,66,97,0
0,54,85,0
0,40,124,2
0,42,102,2
0,63,113,14
0,66,112,0
0,35,108,0
0,69,104,0
0,42,45,2
0,59,54,10
0,63,77,0
0,66,77,0
0,63,60,22
0,66,69,0
0,30,117,0
0,35,76,0
0,57,47,0
0,46,77,2
0,64,52,0
0,67,45,0
0,67,76,0
0,55,84,0
0,59,86,0
0,64,81,0
0,40,90,0
0,59,85,0
0,28,109,2
0,67,105,0
0,35,122,0
0,42,87,2
0,47,69,2
0,42,52,0
0,55,65,8
0,59,78,0
0,64,66,2
0,59,67,22
0,55,51,0
0,64,58,0
0,64,105,2
0,42,58,2
0,55,80,12
0,59,93,0
0,64,82,0
0,52,74,0
0,40,125,2
0,42,105,2
0,55,54,0
0,59,104,2
0,42,57,2
0,55,57,10
0,59,69,0
0,64,56,0
0,59,65,16
0,64,54,0
0,28,118,0
0,64,104,0
0,35,85,0
0,47,59,0
0,42,62,2
0,55,80,0
0,59,91,0
0,40,91,0
0,28,118,0
0,67,105,0
0,35,125,0
0,64,83,0
0,42,92,2
0,42,51,18
0,55,68,10
0,59,74,0
0,64,69,0
0,55,56,4
0,55,57,18
0,59,72,0
0,64,46,0
0,69,105,2
0,42,56,0
0,52,78,18
0,55,83,0
0,59,96,0
0,64,89,0
0,40,127,2
0,42,105,2
0,55,55,4
0,28,115,0
0,67,104,0
0,42,43,0
0,55,59,8
0,59,74,0
0,64,67,0
0,55,50,0
0,59,70,0
0,64,67,0
0,30,107,2
0,35,74,0
0,42,62,2
0,63,52,0
0,66,53,0
0,59,81,2
0,63,98,0
0,66,92,0
0,47,86,0
0,57,77,0
0,63,77,0
0,35,112,2
0,66,104,0
0,35,110,0
0,42,81,0
0,42,44,0
0,63,73,10
0,59,51,0
0,66,72,0
0,66,72,24
0,63,69,0
0,42,54,4
0,59,84,16
0,63,103,0
0,66,97,0
0,40,127,2
0,54,54,2
0,42,105,0
0,57,61,6
0,42,29,4
0,59,56,10
0,63,79,0
0,66,72,0
0,66,58,16
0,63,57,0
0,35,115,2
0,35,67,0
0,42,52,2
0,47,62,16
0,59,85,2
0,63,102,0
0,66,94,0
0,57,56,0
0,60,113,2
0,35,114,0
0,35,111,0
0,42,96,2
0,42,45,0
0,59,49,10
0,63,73,0
0,66,72,0
0,57,55,24
0,63,60,0
0,66,69,0
0,59,109,0
0,42,55,2
0,54,101,20
0,59,90,2
0,63,111,0
0,66,95,0
0,40,127,2
0,41,59,0
0,42,105,2
0,35,112,2
0,42,48,0
0,59,60,10
0,63,85,0
0,66,76,0
0,57,58,20
0,63,52,2
0,66,63,0
0,38,113,0
0,35,72,0
0,46,77,0
0,55,53,8
0,64,52,0
0,60,45,0
0,55,89,2
0,36,100,0
0,60,83,0
0,64,89,0
0,36,116,0
0,60,96,0
0,64,86,0
0,64,105,0
0,35,122,0
0,42,89,2
0,55,58,0
0,42,48,4
0,55,69,10
0,60,69,0
0,64,66,0
0,60,74,18
0,64,69,0
0,42,57,4
0,48,84,12
0,55,84,2
0,60,93,0
0,64,89,0
0,40,127,0
0,42,105,2
0,67,103,2
0,63,104,2
0,64,103,0
0,66,104,4
0,42,50,2
0,55,66,10
0,60,75,0
0,64,72,0
0,62,85,16
0,67,60,0
0,55,54,0
0,60,69,0
0,36,117,0
0,67,105,0
0,35,65,0
0,64,69,0
0,42,67,0
0,36,99,10
0,62,96,0
0,67,86,0
0,55,82,2
0,60,88,0
0,64,87,0
0,36,113,2
0,66,105,0
0,35,120,0
0,42,102,2
0,64,104,0
0,42,42,0
0,55,61,10
0,60,54,0
0,64,70,0
0,55,55,22
0,60,70,0
0,64,65,0
0,42,57,4
0,48,101,24
0,55,81,0
0,60,92,0
0,64,89,0
0,40,127,2
0,42,105,2
0,60,73,8
0,35,116,2
0,62,105,0
0,42,40,0
0,55,54,10
0,60,70,0
0,64,69,0
0,55,53,4
0,60,68,0
0,64,70,0
0,33,116,0
0,62,104,0
0,35,71,0
0,42,64,2
0,43,92,4
0,59,90,0
0,62,91,0
0,59,54,2
0,62,56,0
0,55,91,0
0,59,93,0
0,62,86,0
0,31,115,2
0,62,104,0
0,35,123,0
0,42,103,0
0,42,41,2
0,55,64,0
0,62,71,0
0,59,72,0
0,55,49,22
0,59,71,0
0,62,68,0
0,62,105,2
0,50,33,0
0,42,62,0
0,55,78,20
0,55,93,0
0,59,98,0
0,62,92,0
0,40,127,2
0,42,105,2
0,59,66,2
0,67,105,4
0,42,45,2
0,55,71,10
0,59,81,0
0,62,76,0
0,62,62,20
0,62,67,0
0,55,43,0
0,59,63,0
0,31,111,2
0,35,76,0
0,42,62,2
0,43,86,10
0,55,92,2
0,59,106,0
0,62,91,0
0,31,112,2
0,67,104,0
0,35,119,0
0,42,95,2
0,42,51,0
0,55,64,10
0,59,75,0
0,62,75,0
0,70,101,4
0,71,99,0
0,74,102,0
0,62,62,2
0,59,63,0
0,42,48,4
0,74,101,24
0,55,90,0
0,55,96,2
0,59,108,0
0,62,91,0
0,40,123,2
0,71,102,0
0,42,105,2
0,69,79,2
0,31,112,2
0,69,104,0
0,42,48,0
0,55,71,10
0,59,80,0
0,62,74,0
0,67,75,4
0,55,57,6
0,59,71,0
0,62,72,0
0,32,115,0
0,71,105,0
0,35,80,0
0,46,76,0
0,61,45,0
0,64,41,0
0,45,106,0
0,61,88,0
0,57,88,0
0,64,91,0
0,33,117,0
0,71,105,0
0,35,118,0
0,61,86,0
0,42,92,2
0,42,61,12
0,57,65,10
0,61,71,0
0,64,66,0
0,55,71,2
0,57,59,14
0,61,68,0
0,64,68,0
0,69,104,2
0,42,55,2
0,52,69,12
0,57,93,2
0,61,95,0
0,64,86,0
0,40,126,2
0,42,105,2
0,42,48,12
0,57,66,10
0,61,77,0
0,64,71,0
0,55,66,12
0,57,42,10
0,61,62,0
0,64,65,0
0,28,118,0
0,64,104,0
0,35,77,0
0,42,67,0
0,45,94,0
0,57,78,0
0,61,85,0
0,64,83,0
0,55,77,0
0,61,76,0
0,33,113,2
0,71,105,0
0,35,119,0
0,42,101,2
0,42,56,18
0,57,66,0
0,61,73,0
0,64,68,0
0,55,99,16
0,61,81,0
0,64,84,0
0,61,62,2
0,64,63,0
0,33,110,2
0,69,104,0
0,42,48,2
0,57,89,26
0,61,96,0
0,64,88,0
0,40,127,2
0,45,77,0
0,42,105,2
0,55,56,8
0,33,110,4
0,71,105,0
0,42,40,2
0,64,77,10
0,57,69,0
0,61,66,0
0,61,64,22
0,57,57,0
0,64,72,0
0,35,113,2
0,35,80,0
0,42,63,0
0,45,60,4
0,66,38,2
0,66,77,0
0,57,50,0
0,62,57,0
0,57,81,0
0,62,88,0
0,57,81,0
0,62,101,0
0,66,104,0
0,38,86,0
0,38,116,0
0,69,105,0
0,35,122,0
0,42,97,2
0,42,48,0
0,62,71,8
0,66,66,0
0,62,70,24
0,66,63,0
0,45,45,0
0,42,57,4
0,57,85,8
0,62,90,0
0,66,90,0
0,50,77,0
0,40,127,2
0,42,105,2
0,57,64,4
0,42,48,4
0,57,65,8
0,62,73,0
0,66,62,0
0,45,72,0
0,62,60,2
0,66,61,0
0,35,75,2
0,42,69,2
0,38,95,4
0,68,110,0
0,69,107,0
0,74,103,0
0,57,88,2
0,62,95,0
0,66,91,0
0,35,127,2
0,42,97,2
0,45,54,8
0,40,109,2
0,42,62,2
0,57,68,4
0,62,79,0
0,66,80,0
0,67,91,8
0,74,78,0
0,50,74,0
0,66,64,2
0,62,67,0
0,38,109,2
0,42,66,2
0,65,101,22
0,74,97,0
0,57,89,2
0,62,98,0
0,66,92,0
0,40,127,2
0,50,20,2
0,46,77,0
0,66,94,6
0,69,86,0
0,33,112,4
0,57,69,26
0,62,71,0
0,66,76,0
0,62,79,8
0,62,46,0
0,66,57,0
0,35,94,0
0,31,114,4
0,71,104,0
0,59,53,0
0,62,52,0
0,35,114,0
0,43,91,0
0,59,84,0
0,62,94,0
0,67,85,0
0,59,88,0
0,62,97,0
0,67,91,0
0,67,56,0
0,42,63,2
0,42,31,10
