track,note,velocity,time
1,76,97,5744
1,73,96,0
1,69,97,0
1,64,90,0
1,69,75,72
1,76,76,0
1,73,70,0
1,64,69,0
1,73,86,100
1,69,85,0
1,64,76,0
1,76,89,0
1,64,71,100
1,73,82,0
1,76,83,0
1,69,83,0
1,73,84,108
1,69,83,0
1,76,86,0
1,64,73,0
1,73,88,96
1,69,87,4
1,76,82,0
1,64,75,0
1,73,94,108
1,76,83,4
1,69,93,0
1,64,76,0
1,73,77,116
1,69,82,0
1,64,72,0
1,76,79,0
1,76,82,112
1,73,88,0
1,69,92,0
1,64,80,0
1,73,84,112
1,76,81,0
1,69,86,0
1,64,75,0
1,73,94,116
1,69,92,0
1,64,79,0
1,76,87,0
1,69,80,104
1,73,70,0
1,76,75,0
1,64,75,0
1,73,77,116
1,69,85,0
1,64,78,0
1,76,81,0
1,73,79,136
1,69,85,0
1,76,78,0
1,64,71,0
1,73,94,124
1,69,99,0
1,76,90,0
1,64,85,0
1,69,82,120
1,64,75,0
1,73,80,0
1,76,85,0
1,73,88,116
1,69,93,0
1,64,81,0
1,76,90,0
1,73,80,112
1,64,75,0
1,69,86,0
1,76,83,0
1,73,88,112
1,69,92,0
1,76,86,0
1,64,74,0
1,73,79,104
1,76,82,0
1,69,83,0
1,64,76,0
1,73,80,124
1,76,85,0
1,69,87,0
1,64,79,0
1,73,82,112
1,76,82,0
1,69,92,0
1,64,78,0
1,73,90,128
1,69,97,0
1,76,90,0
1,64,80,0
1,73,92,112
1,69,95,0
1,64,79,0
1,76,89,0
1,73,92,116
1,69,99,0
1,76,90,0
1,64,86,0
1,64,80,112
1,73,90,0
1,69,97,4
1,76,89,0
1,73,88,124
1,76,87,0
1,69,95,0
1,64,79,0
1,73,92,112
1,69,97,0
1,64,81,0
1,76,90,0
1,73,102,124
1,69,99,0
1,76,93,4
1,64,83,0
1,73,92,112
1,64,78,0
1,69,95,0
1,76,83,4
1,73,94,116
1,64,78,0
1,69,101,0
1,76,92,0
1,69,92,116
1,73,90,0
1,76,82,0
1,64,74,0
1,73,92,128
1,69,99,0
1,76,87,0
1,64,89,0
1,73,88,116
1,69,95,0
1,76,85,0
1,64,80,0
1,73,92,128
1,69,95,0
1,76,87,0
1,64,76,0
1,69,93,112
1,73,88,0
1,64,76,0
1,76,87,0
1,73,82,124
1,69,87,0
1,64,69,0
1,76,81,0
1,76,75,132
1,69,89,0
1,73,73,0
1,64,78,0
1,76,80,120
1,69,87,0
1,73,77,0
1,64,82,0
1,73,84,112
1,64,75,0
1,69,90,0
1,76,83,0
1,73,86,124
1,76,80,0
1,69,93,4
1,64,78,0
1,69,93,116
1,64,79,0
1,76,82,4
1,73,88,0
1,69,95,128
1,73,92,0
1,64,80,0
1,76,89,4
1,73,88,124
1,69,93,0
1,64,78,0
1,76,86,0
1,73,90,132
1,69,95,0
1,64,83,0
1,76,87,0
1,73,90,116
1,76,89,0
1,69,95,0
1,64,81,0
1,76,83,112
1,64,73,0
1,69,95,0
1,73,92,0
1,69,89,124
1,76,79,0
1,73,76,0
1,64,82,4
1,64,81,132
1,69,95,0
1,73,90,0
1,76,89,0
1,64,78,116
1,69,93,0
1,73,84,0
1,76,83,0
1,73,86,124
1,76,86,0
1,69,95,0
1,64,79,0
1,76,78,124
1,69,90,0
1,64,75,0
1,73,80,0
1,64,72,112
1,76,82,0
1,73,84,0
1,69,92,0
1,64,69,112
1,69,83,4
1,73,73,0
1,76,78,0
1,64,76,120
1,76,83,0
1,69,90,0
1,73,84,0
1,64,75,112
1,73,79,0
1,69,87,0
1,76,83,0
1,64,75,116
1,73,80,0
1,76,83,0
1,69,93,4
1,64,75,120
1,69,92,0
1,73,82,0
1,76,83,0
1,73,86,132
1,64,80,0
1,69,95,0
1,76,87,0
1,73,80,124
1,76,85,0
1,69,92,0
1,64,80,4
1,73,94,132
1,64,81,0
1,69,99,0
1,76,90,0
1,73,88,112
1,69,93,0
1,76,83,0
1,64,75,4
1,69,95,120
1,76,87,0
1,73,96,0
1,64,79,0
1,73,88,128
1,76,83,0
1,69,93,0
1,64,78,0
1,66,88,116
1,69,87,0
1,74,87,0
1,62,83,0
1,66,80,112
1,74,80,0
1,69,80,0
1,62,75,0
1,66,80,108
1,74,81,0
1,62,75,0
1,69,82,4
1,66,84,108
1,69,83,0
1,74,85,0
1,62,75,0
1,74,81,108
1,66,86,0
1,69,81,4
1,62,75,0
1,74,79,108
1,62,72,0
1,66,84,0
1,69,81,0
1,66,92,116
1,74,81,0
1,62,81,0
1,69,87,0
1,66,90,116
1,62,74,0
1,74,75,0
1,69,80,0
1,74,75,112
1,62,74,0
1,66,90,0
1,69,80,0
1,66,80,112
1,74,80,0
1,69,80,0
1,62,75,0
1,66,80,108
1,74,81,0
1,62,75,0
1,69,82,4
1,66,84,108
1,69,83,0
1,74,85,0
1,62,75,0
1,74,81,108
1,66,86,0
1,69,81,4
1,62,75,0
1,74,79,108
1,62,72,0
1,66,84,0
1,69,81,0
1,66,92,116
1,74,81,0
1,62,81,0
1,69,87,0
1,66,90,116
1,62,74,0
1,74,75,0
1,69,80,0
1,69,90,116
1,73,88,0
1,64,76,0
1,61,86,0
1,69,85,120
1,73,86,0
1,64,73,0
1,61,77,0
1,73,80,128
1,69,82,0
1,64,73,0
1,61,90,4
1,73,80,116
1,69,85,0
1,64,72,0
1,61,86,4
1,73,82,128
1,69,83,0
1,64,72,0
1,61,84,0
1,73,80,128
1,64,75,0
1,69,85,0
1,61,86,0
1,73,79,116
1,64,69,0
1,69,82,0
1,61,82,0
1,69,85,128
1,73,84,0
1,64,75,0
1,61,88,0
1,73,92,136
1,64,75,0
1,69,92,0
1,61,86,0
1,61,76,128
1,73,88,0
1,64,75,0
1,69,89,0
1,64,74,116
1,69,81,0
1,73,76,0
1,61,69,4
1,69,87,120
1,64,76,0
1,73,86,0
1,61,77,0
1,64,76,128
1,73,94,0
1,69,93,0
1,61,76,0
1,61,80,124
1,73,90,0
1,64,75,4
1,69,92,0
1,73,84,128
1,61,84,0
1,64,75,0
1,69,86,0
1,61,82,124
1,73,84,0
1,64,75,0
1,69,89,0
1,60,87,132
1,64,95,0
1,67,87,0
1,72,78,0
1,64,86,128
1,72,82,0
1,60,80,0
1,67,75,0
1,60,81,128
1,72,87,0
1,64,93,0
1,67,75,0
1,60,78,132
1,72,99,0
1,64,93,0
1,67,80,0
1,60,74,116
1,64,87,0
1,72,83,0
1,67,73,0
1,72,85,128
1,60,81,0
1,67,78,0
1,64,89,0
1,72,87,128
1,64,90,0
1,60,76,0
1,67,76,0
1,72,87,124
1,60,78,4
1,64,90,0
1,67,76,0
1,62,83,116
1,67,95,0
1,72,97,0
1,71,89,112
1,62,78,0
1,67,85,0
1,62,79,116
1,71,93,0
1,67,92,0
1,62,75,116
1,71,89,0
1,67,87,0
1,62,79,132
1,69,90,0
1,66,102,0
1,62,79,116
1,69,92,0
1,66,102,0
1,66,94,128
1,62,76,0
1,69,87,0
1,69,87,128
1,62,74,0
1,66,94,0
1,69,87,128
1,64,90,0
1,61,79,4
1,61,79,116
1,64,85,0
1,69,87,0
1,69,82,116
1,64,83,0
1,61,86,4
1,69,80,128
1,64,83,0
1,61,82,4
1,69,82,128
1,61,80,0
1,64,92,0
1,69,81,120
1,64,86,0
1,61,72,0
1,69,79,112
1,64,83,0
1,61,84,0
1,69,80,116
1,64,82,0
1,61,74,4
1,69,78,120
1,64,83,0
1,61,77,0
1,61,79,132
1,64,85,0
1,69,87,0
1,69,82,116
1,64,83,0
1,61,86,4
1,69,80,128
1,64,83,0
1,61,82,4
1,69,82,128
1,61,80,0
1,64,92,0
1,69,81,120
1,64,86,0
1,61,72,0
1,69,79,112
1,64,83,0
1,61,84,0
1,69,80,116
1,64,82,0
1,61,74,4
1,61,77,120
1,73,92,4
1,69,99,0
1,76,87,0
1,64,89,0
1,73,88,116
1,69,95,0
1,76,85,0
1,64,80,0
1,73,92,128
1,69,95,0
1,76,87,0
1,64,76,0
1,69,93,112
1,73,88,0
1,64,76,0
1,76,87,0
1,73,82,124
1,69,87,0
1,64,69,0
1,76,81,0
1,76,75,132
1,69,89,0
1,73,73,0
1,64,78,0
1,76,80,120
1,69,87,0
1,73,77,0
1,64,82,0
1,73,84,112
1,64,75,0
1,69,90,0
1,76,83,0
1,73,86,124
1,76,80,0
1,69,93,4
1,64,78,0
1,69,93,116
1,64,79,0
1,76,82,4
1,73,88,0
1,69,95,128
1,73,92,0
1,64,80,0
1,76,89,4
1,73,88,124
1,69,93,0
1,64,78,0
1,76,86,0
1,73,90,132
1,69,95,0
1,64,83,0
1,76,87,0
1,73,90,116
1,76,89,0
1,69,95,0
1,64,81,0
1,76,83,112
1,64,73,0
1,69,95,0
1,73,92,0
1,69,89,124
1,76,79,0
1,73,76,0
1,64,82,4
1,64,81,132
1,69,95,0
1,73,90,0
1,76,89,0
1,64,78,116
1,69,93,0
1,73,84,0
1,76,83,0
1,73,86,124
1,76,86,0
1,69,95,0
1,64,79,0
1,76,78,124
1,69,90,0
1,64,75,0
1,73,80,0
1,64,72,112
1,76,82,0
1,73,84,0
1,69,92,0
1,64,69,112
1,69,83,4
1,73,73,0
1,76,78,0
1,64,76,120
1,76,83,0
1,69,90,0
1,73,84,0
1,64,75,112
1,73,79,0
1,69,87,0
1,76,83,0
1,64,75,116
1,73,80,0
1,76,83,0
1,69,93,4
1,64,75,120
1,69,92,0
1,73,82,0
1,76,83,0
1,73,86,132
1,64,80,0
1,69,95,0
1,76,87,0
1,73,80,124
1,76,85,0
1,69,92,0
1,64,80,4
1,73,94,132
1,64,81,0
1,69,99,0
1,76,90,0
1,73,88,112
1,69,93,0
1,76,83,0
1,64,75,4
1,69,95,120
1,76,87,0
1,73,96,0
1,64,79,0
1,73,88,128
1,76,83,0
1,69,93,0
1,64,78,0
1,66,88,116
1,69,87,0
1,74,87,0
1,62,83,0
1,66,80,112
1,74,80,0
1,69,80,0
1,62,75,0
1,66,80,108
1,74,81,0
1,62,75,0
1,69,82,4
1,66,84,108
1,69,83,0
1,74,85,0
1,62,75,0
1,74,81,108
1,66,86,0
1,69,81,4
1,62,75,0
1,74,79,108
1,62,72,0
1,66,84,0
1,69,81,0
1,66,92,116
1,74,81,0
1,62,81,0
1,69,87,0
1,66,90,116
1,62,74,0
1,74,75,0
1,69,80,0
1,74,75,112
1,69,80,0
1,66,90,0
1,62,83,4
1,66,80,112
1,74,80,0
1,69,80,0
1,62,75,0
1,66,80,108
1,74,81,0
1,62,75,0
1,69,82,4
1,66,84,108
1,69,83,0
1,74,85,0
1,62,75,0
1,74,81,108
1,66,86,0
1,69,81,4
1,62,75,0
1,74,79,108
1,62,72,0
1,66,84,0
1,69,81,0
1,66,92,116
1,74,81,0
1,62,81,0
1,69,87,0
1,69,80,116
1,66,90,0
1,62,74,0
1,74,75,0
1,69,90,116
1,73,88,0
1,64,76,0
1,61,86,0
1,69,85,120
1,73,86,0
1,64,73,0
1,61,77,0
1,73,80,128
1,69,82,0
1,64,73,0
1,61,90,4
1,73,80,116
1,69,85,0
1,64,72,0
1,61,86,4
1,69,83,128
1,73,82,0
1,64,72,0
1,61,84,0
1,73,80,128
1,64,75,0
1,69,85,0
1,61,86,0
1,73,79,116
1,64,69,0
1,69,82,0
1,61,82,0
1,69,85,128
1,73,84,0
1,64,75,0
1,61,88,0
1,73,92,136
1,64,75,0
1,69,92,0
1,61,86,0
1,61,76,128
1,73,88,0
1,64,75,0
1,69,89,0
1,64,74,116
1,69,81,0
1,73,76,0
1,61,69,4
1,69,87,120
1,64,76,0
1,73,86,0
1,61,77,0
1,64,76,128
1,73,94,0
1,69,93,0
1,61,76,0
1,61,80,124
1,73,90,0
1,64,75,4
1,69,92,0
1,73,84,128
1,61,84,0
1,64,75,0
1,69,86,0
1,61,82,124
1,73,84,0
1,64,75,0
1,69,89,0
1,60,87,132
1,64,95,0
1,67,87,0
1,72,78,0
1,64,86,128
1,72,82,0
1,60,80,0
1,67,75,0
1,60,81,128
1,72,87,0
1,64,93,0
1,67,75,0
1,60,78,132
1,72,99,0
1,64,93,0
1,67,80,0
1,60,74,116
1,64,87,0
1,72,83,0
1,67,73,0
1,72,85,128
1,60,81,0
1,67,78,0
1,64,89,0
1,72,87,128
1,64,90,0
1,60,76,0
1,67,76,0
1,72,87,124
1,60,78,4
1,64,90,0
1,67,76,0
1,62,83,116
1,67,95,0
1,72,97,0
1,71,89,112
1,62,78,0
1,67,85,0
1,62,79,116
1,71,93,0
1,67,92,0
1,62,75,116
1,71,89,0
1,67,87,0
1,62,79,132
1,69,90,0
1,66,102,0
1,62,79,116
1,69,92,0
1,66,102,0
1,66,94,128
1,62,76,0
1,69,87,0
1,69,87,128
1,62,74,0
1,66,94,0
1,64,90,128
1,61,105,4
1,69,87,0
1,61,102,2992
1,57,97,0
1,66,105,0
1,66,82,128
1,61,88,0
1,57,75,0
1,61,92,124
1,66,90,0
1,57,75,0
1,66,84,116
1,61,86,0
1,57,72,0
1,66,90,128
1,61,92,0
1,57,75,0
1,66,88,128
1,61,90,0
1,57,72,0
1,66,96,136
1,61,96,0
1,57,75,0
1,66,94,128
1,57,75,0
1,61,102,0
1,61,90,316
1,64,101,4
1,69,92,0
1,57,92,0
1,61,94,180
1,64,92,0
1,69,89,4
1,57,90,0
1,61,92,192
1,69,92,0
1,64,92,0
1,57,93,0
1,61,92,132
1,64,93,0
1,69,93,0
1,57,85,0
1,61,92,180
1,69,93,0
1,57,89,0
1,64,92,0
1,61,102,80
1,57,97,0
1,66,105,0
1,66,82,128
1,61,88,0
1,57,75,0
1,61,92,124
1,66,90,0
1,57,75,0
1,66,84,116
1,61,86,0
1,57,72,0
1,66,90,128
1,61,92,0
1,57,75,0
1,66,88,128
1,61,90,0
1,57,72,0
1,66,96,136
1,61,96,0
1,57,75,0
1,66,94,128
1,57,75,0
1,61,102,0
1,61,90,316
1,64,101,4
1,69,92,0
1,57,92,0
1,61,94,180
1,64,92,0
1,69,89,4
1,57,90,0
1,61,92,192
1,69,92,0
1,64,92,0
1,57,93,0
1,61,92,132
1,64,93,0
1,69,93,0
1,57,85,0
1,61,92,180
1,69,93,0
1,57,89,0
1,64,92,0
1,61,102,80
1,57,97,0
1,66,105,0
1,66,82,128
1,61,88,0
1,57,75,0
1,61,92,124
1,66,90,0
1,57,75,0
1,66,84,116
1,61,86,0
1,57,72,0
1,66,90,128
1,61,92,0
1,57,75,0
1,66,88,128
1,61,90,0
1,57,72,0
1,66,96,136
1,61,96,0
1,57,75,0
1,66,94,128
1,57,75,0
1,61,102,0
1,61,90,316
1,64,101,4
1,69,92,0
1,57,92,0
1,61,94,180
1,64,92,0
1,69,89,4
1,57,90,0
1,61,92,192
1,69,92,0
1,64,92,0
1,57,93,0
1,61,92,132
1,64,93,0
1,69,93,0
1,57,85,0
1,61,92,180
1,69,93,0
1,57,89,0
1,64,92,0
1,71,70,80
1,76,74,0
1,64,66,0
1,68,58,0
1,59,68,0
1,71,68,80
1,76,68,0
1,64,65,0
1,68,55,0
1,59,60,0
1,76,92,116
1,71,92,0
1,68,86,0
1,64,79,0
1,59,74,0
1,64,76,92
1,68,88,0
1,71,95,0
1,76,97,0
1,59,75,0
1,76,92,108
1,68,90,0
1,71,97,0
1,64,82,0
1,59,76,0
1,0,63,92
1,64,85,48
1,68,94,0
1,76,93,0
1,71,99,0
1,59,75,0
1,76,93,104
1,64,85,0
1,71,101,0
1,68,94,0
1,59,76,0
1,68,96,104
1,64,86,0
1,71,101,0
1,76,99,0
1,59,76,0
1,68,96,112
1,71,99,0
1,64,85,0
1,76,99,0
1,59,78,0
1,64,76,108
1,68,92,0
1,71,97,0
1,76,97,0
1,59,82,0
1,76,87,112
1,68,94,0
1,71,97,0
1,64,87,0
1,59,75,0
1,76,95,108
1,68,99,0
1,64,87,0
1,71,101,0
1,59,75,0
1,64,85,112
1,68,96,0
1,71,99,0
