track,note,velocity,time
3,39,99,6312
3,46,99,268
3,48,90,24
3,39,99,140
3,46,99,268
3,48,90,24
3,39,99,140
3,46,99,268
3,48,90,24
3,39,99,140
3,46,99,268
3,48,90,24
3,39,99,140
3,46,99,268
3,48,90,24
3,39,99,140
3,46,99,268
3,48,90,24
3,39,99,140
3,46,99,268
3,48,90,24
3,39,99,140
3,46,99,268
3,48,90,24
3,47,99,140
3,54,76,268
3,56,71,24
3,47,99,140
3,54,75,268
3,56,72,24
3,39,99,140
3,34,99,268
3,36,90,24
3,39,99,140
3,34,99,268
3,36,90,24
3,39,99,140
3,34,99,268
3,36,90,24
3,39,99,140
3,34,99,268
3,36,90,24
3,39,99,140
3,34,99,268
3,36,90,24
3,39,99,140
3,34,99,268
3,36,90,24
3,36,99,140
3,31,99,268
3,34,90,24
3,36,99,140
3,31,99,268
3,34,90,24
3,39,99,140
3,34,99,268
3,36,90,24
3,39,99,140
3,34,99,268
3,36,90,24
3,39,105,140
3,34,105,268
3,37,96,24
3,39,105,140
3,34,105,268
3,37,96,24
3,39,105,140
3,34,105,268
3,37,96,24
3,39,105,140
3,34,105,268
3,37,96,24
3,35,105,140
3,42,105,268
3,44,96,24
3,35,105,140
3,42,105,268
3,44,96,24
3,39,105,140
3,34,105,268
3,37,96,24
3,39,105,140
3,34,105,268
3,37,105,24
3,39,105,140
3,34,105,268
3,37,96,24
3,39,105,140
3,34,105,268
3,37,96,24
3,39,105,140
3,34,105,268
3,37,96,24
3,39,105,140
3,34,105,268
3,37,96,24
3,35,105,140
3,42,105,268
3,44,96,24
3,35,105,140
3,42,105,268
3,44,96,24
3,39,105,140
3,46,105,268
3,37,96,24
3,39,105,140
3,51,94,4236
3,46,92,424
3,51,92,436
3,46,92,416
3,49,92,428
3,44,92,420
3,49,85,420
3,44,87,420
3,47,87,392
3,42,94,400
3,47,85,400
3,42,92,376
3,46,98,332
3,46,98,172
3,46,94,4
3,39,99,2240
3,46,99,268
3,48,90,24
3,39,99,140
3,46,99,268
3,48,90,24
3,39,99,140
3,46,99,268
3,48,90,24
3,39,99,140
3,46,99,268
3,48,90,24
3,47,99,140
3,54,99,268
3,56,90,24
3,47,99,140
3,54,99,268
3,56,90,24
3,39,99,140
3,34,99,268
3,36,90,24
3,39,99,140
3,34,99,268
3,36,90,24
3,39,99,140
3,34,99,268
3,36,90,24
3,39,99,140
3,34,99,268
3,36,90,24
3,39,99,140
3,34,99,268
3,36,90,24
3,39,99,140
3,34,99,268
3,36,90,24
3,36,99,140
3,31,99,268
3,34,90,24
3,36,99,140
3,31,99,268
3,34,90,24
3,39,99,140
3,34,99,268
3,36,90,24
3,39,99,140
3,34,99,268
3,36,90,24
3,39,109,140
3,34,109,268
3,37,100,24
3,39,109,140
3,34,109,268
3,37,100,24
3,39,109,140
3,34,109,268
3,37,100,24
3,39,109,140
3,34,109,268
3,37,100,24
3,35,109,140
3,42,109,268
3,44,100,24
3,35,109,140
3,42,109,268
3,44,100,24
3,39,109,140
3,34,109,268
3,37,100,24
3,39,109,140
3,34,109,268
3,37,109,24
3,39,109,140
3,34,109,268
3,37,100,24
3,39,109,140
3,34,109,268
3,37,100,24
3,39,109,140
3,34,109,268
3,37,100,24
3,39,109,140
3,34,109,268
3,37,100,24
3,35,109,140
3,42,109,268
3,44,100,24
3,35,109,140
3,42,109,268
3,44,100,24
3,39,109,140
3,46,109,268
3,37,100,24
3,39,109,140
3,51,97,4236
3,46,95,424
3,51,95,436
3,46,95,416
3,49,95,428
3,44,95,420
3,49,88,420
3,44,90,420
3,47,90,392
3,42,97,400
3,47,88,400
3,42,95,376
3,46,90,332
3,41,97,400
3,46,88,400
3,41,95,376
3,46,95,120
3,51,97,120
3,46,95,424
3,51,95,436
3,46,95,416
3,49,95,428
3,44,95,420
3,49,88,420
3,44,90,420
3,47,90,392
3,42,97,400
3,47,88,400
3,39,101,7416
3,43,94,56
3,44,101,32
3,45,100,32
3,46,99,32
3,44,95,32
3,43,92,32
3,41,96,32
3,39,99,32
3,43,99,36
3,44,100,32
3,45,99,32
3,46,100,32
3,44,102,32
3,43,100,32
3,41,96,40
3,39,100,32
3,43,99,52
3,46,101,32
3,43,99,52
3,44,99,32
3,43,102,40
3,41,97,32
3,36,99,32
3,34,99,32
3,36,102,40
3,38,97,32
3,41,99,32
3,39,101,32
3,43,94,36
3,44,101,32
3,46,100,32
3,39,101,32
3,43,94,56
3,44,101,32
3,45,100,32
3,46,99,32
3,44,95,32
3,43,92,32
3,41,96,32
3,39,99,32
3,43,99,36
3,44,100,32
3,45,99,32
3,46,100,32
3,44,102,32
3,43,100,32
3,41,96,40
3,39,100,32
3,43,99,52
3,46,101,32
3,43,99,52
3,44,99,32
3,43,102,40
3,41,97,32
3,36,99,32
3,34,99,32
3,36,102,40
3,38,97,32
3,41,99,32
3,39,101,32
3,43,94,36
3,44,101,32
3,46,100,32
3,39,101,32
3,43,94,56
3,44,101,32
3,45,100,32
3,46,99,32
3,44,95,32
3,43,92,32
3,41,96,32
3,39,99,32
3,43,99,36
3,44,100,32
3,45,99,32
3,46,100,32
3,44,102,32
3,43,100,32
3,41,96,40
3,39,100,32
3,43,99,52
3,46,101,32
3,43,99,52
3,44,99,32
3,43,102,40
3,41,97,32
3,36,99,32
3,34,99,32
3,36,102,40
3,38,97,32
3,41,99,32
3,39,101,32
3,34,94,36
3,39,101,232
4,46,53,168
4,51,67,8
4,58,29,12
4,51,45,112
4,46,35,12
4,46,67,32
4,51,82,8
4,60,46,12
4,51,46,96
4,46,35,4
4,46,48,44
4,51,63,8
4,58,29,12
4,51,45,108
4,46,35,12
4,46,67,44
4,51,82,8
4,60,45,12
4,51,45,100
4,46,34,0
4,46,53,36
4,51,67,8
4,58,28,12
4,51,45,60
4,46,34,8
4,46,66,64
4,51,82,8
4,60,45,12
4,51,44,120
4,46,34,8
4,46,57,24
4,51,72,8
4,58,27,12
4,51,46,60
4,46,35,8
4,46,67,72
4,51,82,8
4,60,45,12
4,51,43,108
4,46,32,8
4,46,53,24
4,51,67,8
4,58,29,12
4,51,45,112
4,46,35,12
4,46,67,32
4,51,82,8
4,60,46,12
4,51,46,96
4,46,35,4
4,46,48,44
4,51,63,8
4,58,29,12
4,51,45,108
4,46,35,12
4,46,67,44
4,51,82,8
4,60,45,12
4,51,45,100
4,46,34,0
4,46,53,36
4,51,67,8
4,58,28,12
4,51,45,60
4,46,34,8
4,46,66,64
4,51,82,8
4,60,45,12
4,51,44,120
4,46,34,8
4,46,57,24
4,51,72,8
4,58,27,12
4,51,46,60
4,46,35,8
4,46,67,72
4,51,82,8
4,60,45,12
4,51,43,108
4,46,32,8
4,46,53,24
4,51,67,8
4,58,29,12
4,51,45,112
4,46,35,12
4,46,67,32
4,51,82,8
4,60,46,12
4,51,46,96
4,46,35,4
4,46,48,44
4,51,63,8
4,58,29,12
4,51,45,108
4,46,35,12
4,46,67,44
4,51,82,8
4,60,45,12
4,51,45,100
4,46,34,0
4,46,53,36
4,51,67,8
4,58,28,12
4,51,45,60
4,46,34,8
4,46,66,64
4,51,82,8
4,60,45,12
4,51,44,120
4,46,34,8
4,46,57,24
4,51,72,8
4,58,27,12
4,51,46,60
4,46,35,8
4,46,67,72
4,51,82,8
4,60,45,12
4,51,43,108
4,46,32,8
4,46,53,24
4,51,67,8
4,58,29,12
4,51,45,112
4,46,35,12
4,46,67,32
4,51,82,8
4,60,46,12
4,51,46,96
4,46,35,4
4,46,48,44
4,51,63,8
4,58,29,12
4,51,45,108
4,46,35,12
4,46,67,44
4,51,82,8
4,60,45,12
4,51,45,100
4,46,34,0
4,46,53,36
4,51,67,8
4,58,28,12
4,51,45,60
4,46,34,8
4,46,66,64
4,51,82,8
4,60,45,12
4,51,44,120
4,46,34,8
4,46,57,24
4,51,72,8
4,58,27,12
4,51,46,60
4,46,35,8
4,46,67,72
4,51,82,8
4,60,45,12
4,51,43,108
4,46,32,8
4,46,53,24
4,51,67,8
4,51,45,124
4,46,35,12
4,46,67,32
4,51,82,8
4,51,46,96
4,46,35,12
4,46,48,44
4,51,63,8
4,51,45,120
4,46,35,12
4,46,67,44
4,51,82,8
4,51,45,100
4,46,34,12
4,46,53,36
4,51,67,8
4,51,45,72
4,46,34,8
4,46,66,64
4,51,82,8
4,51,44,120
4,46,34,8
4,46,57,24
4,51,72,8
4,51,46,72
4,46,35,8
4,46,67,72
4,51,82,8
4,51,43,108
4,46,32,8
4,46,53,24
4,51,67,8
4,51,45,124
4,46,35,12
4,46,67,32
4,51,82,8
4,51,46,96
4,46,35,12
4,46,48,44
4,51,63,8
4,51,45,120
4,46,35,12
4,46,67,44
4,51,82,8
4,51,45,100
4,46,34,12
4,46,53,36
4,51,67,8
4,51,45,72
4,46,34,8
4,46,66,64
4,51,82,8
4,51,44,120
4,46,34,8
4,46,57,24
4,51,72,8
4,51,46,72
4,46,35,8
4,46,67,72
4,51,82,8
4,47,53,28
4,54,67,8
4,54,45,124
4,47,35,12
4,47,67,32
4,54,82,8
4,54,46,96
4,47,35,12
4,47,48,44
4,54,63,8
4,54,45,120
4,47,35,12
4,47,67,44
4,54,82,8
4,54,45,100
4,47,34,12
4,47,53,36
4,54,67,8
4,54,45,72
4,47,34,8
4,47,66,64
4,54,82,8
4,54,44,120
4,47,34,8
4,47,57,24
4,54,72,8
4,54,46,72
4,47,35,8
4,47,67,72
4,54,82,8
4,46,53,92
4,51,67,8
4,51,45,124
4,46,35,12
4,46,67,32
4,51,82,8
4,51,46,96
4,46,35,12
4,46,48,44
4,51,63,8
4,51,45,120
4,46,35,12
4,46,67,44
4,51,82,8
4,51,45,100
4,46,34,12
4,46,53,36
4,51,67,8
4,51,45,72
4,46,34,8
4,46,66,64
4,51,82,8
4,51,44,120
4,46,34,8
4,46,57,24
4,51,72,8
4,51,46,72
4,46,35,8
4,46,67,72
4,51,82,8
4,51,43,108
4,46,32,8
4,46,53,24
4,51,67,8
4,51,45,124
4,46,35,12
4,46,67,32
4,51,82,8
4,51,46,96
4,46,35,12
4,46,48,44
4,51,63,8
4,51,45,120
4,46,35,12
4,46,67,44
4,51,82,8
4,51,45,100
4,46,34,12
4,46,53,36
4,51,67,8
4,51,45,72
4,46,34,8
4,46,66,64
4,51,82,8
4,51,44,120
4,46,34,8
4,46,57,24
4,51,72,8
4,51,46,72
4,46,35,8
4,46,67,72
4,51,82,8
4,51,43,108
4,46,32,8
4,46,53,24
4,51,67,8
4,51,45,124
4,46,35,12
4,46,67,32
4,51,82,8
4,51,46,96
4,46,35,12
4,46,48,44
4,51,63,8
4,51,45,120
4,46,35,12
4,46,67,44
4,51,82,8
4,51,45,100
4,46,34,12
4,46,53,36
4,51,67,8
4,51,45,72
4,46,34,8
4,46,66,64
4,51,82,8
4,51,44,120
4,46,34,8
4,46,57,24
4,51,72,8
4,51,46,72
4,46,35,8
4,46,67,72
4,51,82,8
4,51,53,28
4,55,67,8
4,55,45,124
4,51,35,12
4,51,67,32
4,55,82,8
4,55,46,96
4,51,35,12
4,51,48,44
4,55,63,8
4,55,45,120
4,51,35,12
4,51,67,44
4,55,82,8
4,55,45,100
4,51,34,12
4,51,53,36
4,55,67,8
4,55,45,72
4,51,34,8
4,51,66,64
4,55,82,8
4,55,44,120
4,51,34,8
4,51,57,24
4,55,72,8
4,55,46,72
4,51,35,8
4,51,67,72
4,55,82,8
4,46,53,92
4,51,67,8
4,51,45,124
4,46,35,12
4,46,67,32
4,51,82,8
4,51,46,96
4,46,35,12
4,46,48,44
4,51,63,8
4,51,45,120
4,46,35,12
4,46,67,44
4,51,82,8
4,51,45,100
4,46,34,12
4,46,53,36
4,51,67,8
4,51,45,72
4,46,34,8
4,46,66,64
4,51,82,8
4,51,44,120
4,46,34,8
4,46,57,24
4,51,72,8
4,51,46,72
4,46,35,8
4,46,67,72
4,51,82,8
4,51,43,108
4,46,32,8
4,63,98,408
4,66,98,8
4,66,93,16
4,63,93,8
4,61,104,412
4,65,93,12
4,63,98,416
4,66,98,8
4,66,93,16
4,63,93,8
4,65,57,252
4,61,57,4
4,61,104,92
4,65,93,12
4,63,98,428
4,66,98,8
4,66,93,16
4,63,93,8
4,61,104,412
4,65,93,12
4,63,98,416
4,66,98,8
4,66,93,16
4,63,93,8
4,65,57,252
4,61,57,4
4,61,104,92
4,65,93,12
4,63,98,428
4,66,98,8
4,66,93,16
4,63,93,8
4,63,104,412
4,66,93,12
4,63,98,416
4,66,98,8
4,66,93,16
4,63,93,8
4,66,57,252
4,63,57,4
4,63,104,92
4,66,93,12
4,63,98,428
4,66,98,8
4,66,93,16
4,63,93,8
4,61,104,412
4,65,93,12
4,63,98,416
4,66,98,8
4,66,93,16
4,63,93,8
4,65,57,252
4,61,57,4
4,61,104,92
4,65,93,12
4,63,98,428
4,66,98,8
4,66,93,16
4,63,93,8
4,61,104,412
4,65,93,12
4,63,98,416
4,66,98,8
4,66,93,16
4,63,93,8
4,65,57,252
4,61,57,4
4,61,104,92
4,65,93,12
4,63,98,428
4,66,98,8
4,66,93,16
4,63,93,8
4,61,104,412
4,65,93,12
4,63,98,416
4,66,98,8
4,66,93,16
4,63,93,8
4,65,57,252
4,61,57,4
4,61,104,92
4,65,93,12
4,63,98,428
4,66,98,8
4,66,93,16
4,63,93,8
4,63,104,412
4,66,93,12
4,63,98,416
4,66,98,8
4,66,93,16
4,63,93,8
4,66,57,252
4,63,57,4
4,63,104,92
4,66,93,12
4,63,98,428
4,66,98,8
4,66,93,16
4,63,93,8
4,65,57,252
4,61,57,4
4,61,104,92
4,65,93,12
4,46,59,116
4,51,73,8
4,58,35,12
4,51,51,112
4,46,41,12
4,46,73,32
4,51,88,8
4,58,52,12
4,51,52,36
4,46,41,12
4,46,54,44
4,51,69,8
4,58,35,12
4,51,51,108
4,46,41,12
4,46,73,44
4,51,88,8
4,58,51,12
4,51,51,32
4,46,40,12
4,46,59,36
4,51,73,8
4,58,34,12
4,51,51,60
4,46,40,8
4,46,72,64
4,51,88,8
4,58,51,12
4,51,50,28
4,46,40,8
4,46,63,24
4,51,78,8
4,58,33,12
4,51,52,60
4,46,41,8
4,46,73,72
4,51,88,8
4,58,51,12
4,51,49,28
4,46,38,8
4,46,59,24
4,51,73,8
4,58,35,12
4,51,51,112
4,46,41,12
4,46,73,32
4,51,88,8
4,58,52,12
4,51,52,36
4,46,41,12
4,46,54,44
4,51,69,8
4,58,35,12
4,51,51,108
4,46,41,12
4,46,73,44
4,51,88,8
4,58,51,12
4,51,51,32
4,46,40,12
4,63,47,36
4,67,47,0
4,63,81,308
4,67,82,8
4,70,83,12
4,63,41,264
4,67,42,0
4,63,83,292
4,67,84,8
4,70,84,12
4,63,47,272
4,67,47,0
4,63,81,308
4,67,82,8
4,70,83,12
4,63,40,264
4,67,43,0
4,63,83,292
4,67,84,8
4,70,84,12
4,61,47,272
4,65,47,0
4,61,81,308
4,65,82,8
4,68,83,12
4,61,38,264
4,65,39,0
4,61,83,292
4,65,84,8
4,68,84,12
4,61,47,272
4,65,47,0
4,61,81,308
4,65,82,8
4,68,83,12
4,61,38,264
4,65,39,0
4,61,83,292
4,65,84,8
4,68,84,12
4,59,47,272
4,63,47,0
4,59,81,308
4,63,82,8
4,66,83,12
4,59,38,264
4,63,39,0
4,59,83,292
4,63,84,8
4,66,84,12
4,59,47,272
4,63,47,0
4,59,81,308
4,63,82,8
4,66,83,12
4,59,38,264
4,63,39,0
4,59,83,292
4,63,84,8
4,66,84,12
4,58,47,272
4,62,47,0
4,58,45,308
4,62,84,8
4,65,80,12
4,62,94,108
4,65,85,4
4,58,72,8
4,46,38,20
4,53,53,8
4,58,19,12
4,53,36,24
4,46,27,12
4,46,59,44
4,53,75,8
4,58,38,12
4,53,40,76
4,46,29,12
4,46,48,36
4,53,64,8
4,58,25,12
4,53,43,20
4,46,33,8
4,46,66,64
4,53,82,8
4,58,45,12
4,53,46,76
4,46,36,8
