track,note,velocity,time
0,49,69,543
0,54,74,0
0,59,84,0
0,61,79,0
0,51,68,4
0,63,76,0
0,52,68,1
0,54,76,0
0,59,83,0
0,61,77,0
0,64,74,0
0,51,66,144
0,49,67,43
0,47,67,3
0,54,71,10
0,58,70,9
0,61,75,0
0,42,67,7
0,66,74,4
0,51,59,5
0,54,58,0
0,59,58,0
0,51,82,3
0,54,81,0
0,59,82,0
0,51,72,1
0,54,72,0
0,51,80,0
0,54,79,0
0,59,80,0
0,59,74,13
0,51,79,3
0,54,78,0
0,59,80,0
0,51,80,3
0,54,80,0
0,59,82,0
0,51,78,3
0,54,76,0
0,59,77,0
0,51,78,3
0,54,72,0
0,59,78,0
0,63,111,95
0,63,109,0
0,51,80,3
0,54,76,0
0,59,82,0
0,63,108,1
0,61,104,5
0,51,81,3
0,54,80,0
0,59,81,0
0,59,104,3
0,58,102,3
0,38,70,2
0,56,103,3
0,39,71,3
0,56,59,0
0,59,59,0
0,64,59,0
0,40,75,3
0,52,82,0
0,56,81,0
0,59,82,0
0,52,98,3
0,52,80,3
0,56,79,0
0,59,80,0
0,56,103,31
0,40,76,34
0,59,103,3
0,58,102,0
0,66,59,0
0,42,78,3
0,52,79,0
0,54,78,0
0,59,80,0
0,54,100,3
0,58,59,0
0,52,80,3
0,54,80,0
0,58,82,0
0,58,106,34
0,42,76,23
0,61,103,3
0,54,59,0
0,59,59,0
0,63,59,0
0,35,75,3
0,51,78,0
0,54,76,0
0,59,77,0
0,59,103,8
0,54,100,3
0,51,72,6
0,54,72,3
0,51,78,0
0,54,72,0
0,59,78,0
0,59,74,73
0,51,80,3
0,54,76,0
0,59,82,0
0,51,81,3
0,54,80,0
0,59,81,0
0,51,78,3
0,54,76,0
0,59,77,0
0,51,78,3
0,54,72,0
0,59,78,0
0,63,105,87
0,63,107,16
0,51,80,3
0,54,76,0
0,59,82,0
0,63,105,1
0,61,103,3
0,51,81,2
0,54,80,0
0,59,81,0
0,59,102,3
0,58,102,3
0,38,70,0
0,39,71,3
0,56,103,6
0,56,59,0
0,59,59,0
0,64,59,0
0,40,75,3
0,52,82,0
0,56,81,0
0,59,82,0
0,52,98,3
0,52,80,3
0,56,79,0
0,59,80,0
0,56,104,47
0,40,76,34
0,59,102,8
0,66,59,0
0,42,78,3
0,52,79,0
0,54,78,0
0,59,80,0
0,58,101,3
0,58,59,0
0,54,104,3
0,52,80,0
0,54,80,0
0,58,82,0
0,58,105,3
0,42,76,23
0,61,102,3
0,54,59,0
0,59,59,0
0,63,59,0
0,59,102,2
0,35,75,1
0,51,78,0
0,54,76,0
0,59,77,0
0,63,100,3
0,51,72,7
0,54,72,3
0,51,78,0
0,54,72,0
0,59,78,0
0,59,74,96
0,51,80,3
0,54,76,0
0,59,82,0
0,51,81,3
0,54,80,0
0,59,81,0
0,57,59,0
0,51,78,3
0,54,76,0
0,57,76,0
0,59,77,0
0,51,78,3
0,54,72,0
0,57,76,0
0,59,78,0
0,63,108,95
0,63,108,1
0,51,80,3
0,54,76,0
0,57,76,0
0,59,82,0
0,63,108,1
0,63,107,13
0,64,105,5
0,51,81,3
0,54,80,0
0,57,76,0
0,59,81,0
0,63,105,3
0,64,103,3
0,56,59,0
0,59,59,0
0,64,59,0
0,40,84,2
0,56,81,0
0,59,83,0
0,64,78,0
0,59,103,5
0,56,83,3
0,59,83,0
0,64,78,0
0,64,107,62
0,52,79,34
0,64,108,16
0,49,73,3
0,54,59,0
0,59,59,0
0,61,59,0
0,64,107,2
0,42,80,1
0,54,80,0
0,59,83,0
0,61,80,0
0,64,106,13
0,64,104,13
0,54,80,3
0,59,84,0
0,61,80,0
0,63,104,3
0,63,104,18
0,56,59,0
0,59,59,0
0,63,59,0
0,44,80,3
0,56,80,0
0,59,83,0
0,63,80,0
0,63,103,15
0,56,83,3
0,59,85,0
0,63,82,0
0,59,109,89
0,59,109,18
0,54,59,0
0,59,107,3
0,42,81,0
0,56,83,0
0,59,82,0
0,63,81,0
0,59,106,13
0,61,103,0
0,56,83,3
0,59,83,0
0,63,81,0
0,63,105,3
0,59,103,8
0,52,59,0
0,56,59,0
0,59,59,0
0,40,77,3
0,52,75,0
0,56,80,0
0,59,81,0
0,56,104,3
0,52,78,3
0,56,83,0
0,59,82,0
0,40,78,31
0,59,106,4
0,59,109,24
0,54,59,0
0,59,59,0
0,61,59,0
0,42,80,3
0,54,78,0
0,59,79,0
0,61,77,0
0,64,74,0
0,59,110,6
0,58,106,5
0,58,106,13
0,58,105,7
0,58,59,0
0,35,114,3
0,54,76,0
0,58,77,0
0,61,77,0
0,63,107,10
0,61,104,3
0,51,59,0
0,54,59,0
0,59,59,0
0,35,73,2
0,51,76,0
0,54,77,0
0,59,79,0
0,59,102,3
0,59,72,85
0,51,72,5
0,54,72,3
0,51,76,0
0,54,76,0
0,59,76,0
0,59,74,52
0,51,76,3
0,54,76,0
0,59,76,0
0,51,76,3
0,54,76,0
0,59,76,0
0,23,114,3
0,35,120,0
0,49,57,0
0,51,78,0
0,54,76,0
0,59,77,0
0,40,38,92
0,42,69,0
0,40,44,3
0,42,94,0
0,51,78,0
0,54,72,0
0,59,78,0
0,63,111,91
0,40,34,1
0,42,58,0
0,63,109,0
0,40,109,3
0,42,93,0
0,51,80,0
0,54,76,0
0,59,82,0
0,63,108,1
0,40,32,92
0,42,52,0
0,61,104,5
0,40,46,3
0,42,93,0
0,51,81,0
0,54,80,0
0,59,81,0
0,59,104,0
0,58,102,1
0,27,108,2
0,35,96,0
0,42,60,0
0,38,70,0
0,56,103,3
0,39,71,3
0,52,64,1
0,56,65,0
0,59,65,0
0,56,59,0
0,59,59,0
0,64,59,0
0,28,113,3
0,35,119,0
0,42,91,0
0,40,75,0
0,52,82,0
0,56,81,0
0,59,82,0
0,52,98,3
0,40,32,55
0,42,55,0
0,40,32,3
0,42,91,0
0,52,80,0
0,56,79,0
0,59,80,0
0,56,103,31
0,40,32,34
0,42,50,0
0,40,76,0
0,59,103,3
0,54,68,1
0,61,67,0
0,58,102,0
0,66,59,0
0,30,114,3
0,40,109,0
0,42,88,0
0,42,78,0
0,52,79,0
0,54,78,0
0,59,80,0
0,40,32,21
0,42,51,0
0,58,64,1
0,58,59,0
0,40,32,3
0,42,89,0
0,52,80,0
0,54,80,0
0,58,82,0
0,58,106,64
0,35,100,23
0,42,55,0
0,42,76,0
0,61,103,3
0,54,66,1
0,59,66,0
0,63,66,0
0,54,59,0
0,59,59,0
0,63,59,0
0,35,114,3
0,35,119,0
0,42,91,0
0,35,75,0
0,51,78,0
0,54,76,0
0,59,77,0
0,59,103,4
0,54,100,3
0,51,72,6
0,40,32,0
0,42,55,0
0,54,72,3
0,40,32,0
0,42,91,0
0,51,78,0
0,54,72,0
0,59,78,0
0,59,74,73
0,40,32,0
0,42,50,0
0,40,109,3
0,42,88,0
0,51,80,0
0,54,76,0
0,59,82,0
0,40,32,92
0,42,51,0
0,30,108,3
0,63,70,3
0,40,32,0
0,42,89,0
0,51,81,0
0,54,80,0
0,59,81,0
0,64,68,23
0,61,68,23
0,35,100,0
0,42,55,0
0,63,69,23
0,23,114,3
0,59,55,0
0,35,119,0
0,42,91,0
0,51,78,0
0,54,76,0
0,59,77,0
0,40,32,92
0,42,55,0
0,40,32,3
0,42,91,0
0,51,78,0
0,54,72,0
0,59,78,0
0,63,106,84
0,40,32,8
0,42,50,0
0,63,107,18
0,63,107,20
0,40,109,3
0,42,88,0
0,51,80,0
0,54,76,0
0,59,82,0
0,61,102,5
0,40,32,42
0,42,51,0
0,59,102,5
0,40,32,3
0,42,89,0
0,51,81,0
0,54,80,0
0,59,81,0
0,58,101,5
0,27,108,3
0,35,100,0
0,42,55,0
0,38,70,0
0,56,102,2
0,39,71,1
0,52,64,1
0,56,65,0
0,59,65,0
0,56,59,0
0,59,59,0
0,64,59,0
0,28,113,3
0,35,119,0
0,42,91,0
0,40,75,0
0,52,82,0
0,56,81,0
0,59,82,0
0,52,99,3
0,40,32,42
0,42,55,0
0,40,32,3
0,42,91,0
0,52,80,0
0,56,79,0
0,59,80,0
0,56,108,22
0,40,32,12
0,42,50,0
0,40,76,0
0,59,106,7
0,54,68,1
0,61,67,0
0,66,59,0
0,30,114,0
0,40,109,0
0,42,88,0
0,42,78,0
0,52,79,0
0,54,78,0
0,59,80,0
0,58,102,3
0,54,101,5
0,40,32,23
0,42,51,0
0,58,64,1
0,58,59,0
0,40,32,3
0,42,89,0
0,52,80,0
0,54,80,0
0,58,82,0
0,58,106,51
0,35,100,23
0,42,55,0
0,42,76,0
0,61,104,3
0,54,66,1
0,59,66,0
0,63,66,0
0,54,59,0
0,59,59,0
0,63,59,0
0,35,114,3
0,35,119,0
0,42,91,0
0,35,75,0
0,51,78,0
0,54,76,0
0,59,77,0
0,59,106,2
0,63,105,3
0,51,72,5
0,40,32,0
0,42,55,0
0,54,72,3
0,40,32,0
0,42,91,0
0,51,78,0
0,54,72,0
0,59,78,0
0,59,74,92
0,40,32,0
0,42,50,0
0,40,109,3
0,42,88,0
0,51,80,0
0,54,76,0
0,59,82,0
0,37,99,3
0,40,32,0
0,42,51,0
0,39,110,3
0,40,32,0
0,42,89,0
0,51,81,0
0,54,80,0
0,59,81,0
0,42,106,3
0,35,100,0
0,42,55,0
0,59,88,3
0,57,59,0
0,45,103,3
0,35,119,0
0,42,91,0
0,51,78,0
0,54,76,0
0,57,76,0
0,59,77,0
0,40,32,92
0,42,55,0
0,40,32,3
0,42,91,0
0,51,78,0
0,54,72,0
0,57,76,0
0,59,78,0
0,61,88,3
0,63,108,4
0,40,32,1
0,42,50,0
0,63,108,1
0,63,67,4
0,40,109,3
0,42,88,0
0,51,80,0
0,54,76,0
0,57,76,0
0,59,82,0
0,63,108,1
0,63,107,13
0,40,32,48
0,42,51,0
0,64,105,5
0,66,71,3
0,40,32,3
0,42,89,0
0,51,81,0
0,54,80,0
0,57,76,0
0,59,81,0
0,63,105,3
0,35,100,7
0,42,55,0
0,64,103,3
0,59,60,1
0,64,60,0
0,68,60,0
0,56,59,0
0,59,59,0
0,64,59,0
0,28,114,2
0,35,119,0
0,42,91,0
0,40,84,0
0,56,81,0
0,59,83,0
0,64,78,0
0,59,103,5
0,52,62,35
0,40,32,0
0,42,55,0
0,56,75,3
0,40,32,0
0,42,91,0
0,56,83,0
0,59,83,0
0,64,78,0
0,64,107,58
0,40,32,34
0,42,50,0
0,52,79,0
0,64,108,16
0,49,73,3
0,59,60,1
0,61,60,0
0,66,60,0
0,54,59,0
0,59,59,0
0,61,59,0
0,64,107,2
0,30,113,1
0,40,109,0
0,42,88,0
0,42,80,0
0,54,80,0
0,59,83,0
0,61,80,0
0,64,106,1
0,54,69,19
0,40,32,0
0,42,51,0
0,64,104,13
0,58,70,3
0,40,32,0
0,42,89,0
0,54,80,0
0,59,84,0
0,61,80,0
0,63,104,3
0,35,100,14
0,42,55,0
0,63,104,18
0,56,60,1
0,59,60,0
0,63,60,0
0,56,59,0
0,59,59,0
0,63,59,0
0,32,115,3
0,35,119,0
0,42,91,0
0,44,80,0
0,56,80,0
0,59,83,0
0,63,80,0
0,51,69,20
0,40,32,0
0,42,55,0
0,59,71,3
0,40,32,0
0,42,91,0
0,56,83,0
0,59,85,0
0,63,82,0
0,59,109,85
0,40,32,7
0,42,50,0
0,59,109,18
0,54,60,1
0,54,59,0
0,30,113,3
0,59,107,0
0,40,109,0
0,42,88,0
0,42,81,0
0,56,83,0
0,59,82,0
0,63,81,0
0,51,65,4
0,40,32,0
0,42,51,0
0,59,107,44
0,61,103,0
0,59,68,3
0,40,32,0
0,42,89,0
0,56,83,0
0,59,83,0
0,63,81,0
0,63,105,3
0,35,100,6
0,42,55,0
0,59,103,8
0,52,60,1
0,56,60,0
0,59,60,0
0,52,59,0
0,56,59,0
0,59,59,0
0,28,114,3
0,35,119,0
0,42,91,0
0,40,77,0
0,52,75,0
0,56,80,0
0,59,81,0
0,56,104,3
0,52,67,20
0,40,32,0
0,42,55,0
0,59,69,3
0,40,32,0
0,42,91,0
0,52,78,0
0,56,83,0
0,59,82,0
0,59,106,19
0,40,32,12
0,42,50,0
0,40,78,0
0,59,107,24
0,59,107,1
0,54,60,1
0,59,60,0
0,61,60,0
0,54,59,0
0,59,59,0
0,61,59,0
0,30,113,3
0,40,109,0
0,42,88,0
0,42,80,0
0,54,78,0
0,59,79,0
0,61,77,0
0,64,74,0
0,58,106,3
0,42,108,3
0,58,106,0
0,49,65,0
0,40,32,0
0,42,51,0
0,58,60,1
0,58,59,0
0,63,106,3
0,58,68,0
0,40,32,0
0,42,89,0
0,54,76,0
0,58,77,0
0,61,77,0
0,61,106,3
0,35,100,48
0,42,55,0
0,59,104,3
0,54,65,1
0,59,65,0
0,63,65,0
0,51,59,0
0,54,59,0
0,59,59,0
0,35,115,2
0,75,54,0
0,78,55,0
0,35,119,0
0,49,67,0
0,35,73,0
0,54,77,0
0,59,79,0
0,63,76,0
0,42,55,1
0,66,115,2
0,64,111,5
0,42,91,3
0,54,93,0
0,54,76,0
0,59,76,0
0,63,76,0
0,63,117,3
0,35,100,38
0,42,50,0
0,61,113,8
0,55,65,1
0,39,113,3
0,79,56,0
0,40,109,0
0,42,88,0
0,39,73,0
0,55,76,0
0,59,76,0
0,63,76,0
0,42,51,92
0,59,105,3
0,42,89,3
0,54,93,0
0,55,76,0
0,59,76,0
0,63,76,0
0,58,108,3
0,35,100,52
0,42,55,0
0,59,107,5
0,56,65,3
0,63,103,2
0,40,116,1
0,80,57,0
0,35,119,0
0,42,91,0
0,40,73,0
0,56,77,0
0,59,79,0
0,63,76,0
0,42,55,92
0,42,91,3
0,54,93,0
0,56,76,0
0,59,76,0
0,63,76,0
0,61,105,3
0,40,101,3
0,35,100,0
0,46,64,0
0,63,105,3
0,54,65,3
0,59,65,0
0,61,65,0
0,42,115,3
0,71,50,0
0,73,51,0
0,76,52,0
0,40,109,0
0,42,73,0
0,54,76,0
0,59,76,0
0,61,76,0
0,64,103,3
0,42,51,49
0,63,104,3
0,58,65,3
0,70,51,3
0,42,89,0
0,54,93,0
0,54,76,0
0,58,76,0
0,61,76,0
0,61,102,5
0,35,100,41
0,42,55,0
0,56,65,3
0,59,65,0
0,63,65,0
0,44,116,3
0,75,55,0
0,35,119,0
0,42,91,0
0,44,73,0
0,56,77,0
0,59,79,0
0,63,76,0
0,63,113,86
0,42,55,6
0,61,110,3
0,83,55,3
0,42,91,0
0,54,93,0
0,56,76,0
0,59,76,0
0,63,76,0
0,59,107,5
0,44,101,3
0,35,94,0
0,42,50,0
0,58,108,3
0,54,65,3
0,42,115,3
0,82,55,0
0,40,109,0
0,42,88,0
0,42,73,0
0,54,76,0
0,59,76,0
0,63,76,0
0,42,51,1
0,56,106,0
0,42,89,3
0,54,93,0
0,54,76,0
0,59,76,0
0,63,76,0
0,55,113,3
0,35,100,41
0,42,55,0
0,56,110,3
0,52,65,3
0,56,65,0
0,59,65,0
0,40,116,3
0,80,55,0
0,35,119,0
0,42,91,0
0,40,73,0
0,56,77,0
0,59,79,0
0,63,76,0
0,59,107,1
0,42,55,91
0,42,91,3
0,54,93,0
0,56,76,0
0,59,76,0
0,63,76,0
0,61,110,53
0,40,101,3
0,71,55,0
0,35,100,0
0,42,50,0
0,59,106,3
0,61,107,3
0,54,65,3
0,59,65,0
0,61,65,0
0,42,115,3
0,66,53,0
0,40,109,0
0,42,88,0
0,42,73,0
0,54,76,0
0,59,76,0
0,61,76,0
0,61,107,18
0,61,106,15
0,73,53,7
0,42,51,0
0,59,105,3
0,58,65,1
0,63,104,0
0,70,53,3
0,42,89,0
0,54,93,0
0,54,76,0
0,58,76,0
0,61,76,0
0,61,103,3
0,35,100,42
0,42,55,0
0,59,104,3
0,54,65,1
0,59,65,0
0,63,65,0
0,51,59,0
0,54,59,0
0,59,59,0
0,35,115,3
0,59,87,0
0,63,88,0
0,66,88,0
