track,note,velocity,time
4,33,127,31630
4,28,120,702
4,31,114,220
4,33,112,239
4,28,120,633
4,31,117,212
4,33,114,213
4,38,127,657
4,40,112,205
4,45,120,242
4,33,122,195
4,28,125,675
4,31,122,213
4,33,120,232
4,28,127,665
4,28,110,30
4,31,112,2
4,33,122,240
4,28,125,675
4,31,122,213
4,33,120,232
4,28,127,665
4,28,110,30
4,31,112,2
4,33,122,240
4,28,125,675
4,31,122,213
4,33,120,232
4,28,127,665
4,28,110,30
4,31,112,2
4,33,122,240
4,28,125,675
4,31,122,213
4,33,120,232
4,33,127,665
4,33,104,30
4,33,110,242
4,26,122,2
4,28,114,224
4,29,117,213
4,33,125,227
4,31,120,180
4,31,104,279
4,43,104,240
4,31,88,239
4,31,112,54
4,26,98,175
4,33,127,5760
4,28,120,702
4,31,114,220
4,33,112,239
4,28,120,633
4,28,120,30
4,31,117,30
4,33,114,213
4,26,127,657
4,28,112,205
4,29,120,242
4,31,98,119
4,31,85,29
4,31,93,29
4,31,102,29
4,33,127,240
4,28,120,702
4,31,114,220
4,33,112,239
4,28,120,633
4,31,117,212
4,33,114,213
4,26,127,657
4,28,112,205
4,33,127,242
4,28,120,702
4,31,114,220
4,33,112,239
4,28,120,633
4,31,117,212
4,33,122,213
4,28,125,675
4,31,122,213
4,33,120,232
4,28,127,665
4,28,110,30
4,31,112,2
4,33,122,240
4,28,125,675
4,31,122,213
4,33,120,232
4,28,127,665
4,28,110,30
4,31,112,2
4,33,122,240
4,28,125,675
4,31,122,213
4,33,120,232
4,28,127,665
4,28,110,30
4,31,112,2
4,33,122,240
4,28,125,675
4,31,122,213
4,33,120,232
4,33,127,665
4,33,104,30
4,33,110,242
4,26,122,2
4,28,114,224
4,29,117,213
4,33,125,227
4,31,114,180
4,31,98,30
4,31,104,30
4,43,102,12
4,43,110,197
4,31,102,2
4,31,108,30
4,26,122,243
4,28,114,224
4,29,117,213
4,33,125,227
4,31,114,180
4,31,98,30
4,31,104,30
4,31,98,12
4,31,104,30
4,33,127,810
4,28,120,702
4,31,114,220
4,33,112,239
4,28,120,633
4,28,120,30
4,31,117,30
4,33,114,213
4,26,127,657
4,28,112,205
4,33,120,242
4,33,122,0
4,28,125,675
4,31,122,213
4,33,120,232
4,28,127,665
4,28,110,30
4,31,112,2
4,33,122,240
4,28,125,675
4,31,122,213
4,33,120,232
4,28,127,665
4,28,110,30
4,31,112,2
4,33,122,240
4,28,125,675
4,31,122,213
4,33,120,232
4,28,127,665
4,28,110,30
4,31,112,2
4,33,122,240
4,28,125,675
4,31,122,213
4,33,120,232
4,28,127,665
4,28,110,30
4,31,112,2
4,33,122,240
4,28,125,675
4,31,122,213
4,33,120,232
4,28,127,665
4,28,110,30
4,31,112,2
4,33,122,240
4,28,125,675
4,31,122,213
4,33,120,232
4,28,127,665
4,28,110,30
4,31,112,2
4,33,122,240
4,28,125,675
4,31,122,213
4,33,120,232
4,28,127,665
4,28,110,30
4,31,112,2
4,33,122,240
4,28,125,675
4,31,122,213
4,33,120,232
4,28,127,665
4,28,110,30
4,31,112,2
4,33,122,240
4,28,125,675
4,31,122,213
4,33,120,232
4,28,127,665
4,28,110,30
4,31,112,2
4,33,122,240
4,28,125,675
4,31,122,213
4,33,120,232
4,33,110,425
4,33,127,2
4,33,127,9240
4,28,120,702
4,31,114,220
4,33,112,239
4,28,120,633
4,28,120,30
4,31,117,30
4,33,114,213
4,26,127,657
4,28,112,205
4,29,120,242
4,29,95,90
4,31,98,29
4,31,85,29
4,31,93,29
4,31,102,29
4,33,127,240
4,28,120,702
4,31,114,220
4,33,112,239
4,28,120,633
4,28,120,30
4,31,117,30
4,33,114,213
4,26,127,657
4,28,112,205
4,29,120,242
4,29,95,90
4,31,98,29
4,31,85,29
4,31,93,29
4,31,102,29
4,33,127,240
4,28,120,702
4,31,114,220
4,33,112,239
4,28,120,633
4,28,120,30
4,31,117,30
4,33,114,213
4,26,127,657
4,28,112,205
4,29,120,242
4,31,120,30
4,33,120,510
5,64,127,393
5,69,127,0
5,57,127,20
5,64,127,719
5,69,127,0
5,57,127,20
5,62,127,1295
5,67,127,0
5,55,127,20
5,64,127,227
5,69,127,0
5,57,127,20
5,69,127,2689
5,72,127,0
5,76,127,0
5,69,117,44
5,72,117,0
5,76,117,0
5,69,127,318
5,72,127,0
5,76,127,0
5,69,127,1167
5,72,127,0
5,76,127,0
5,69,117,44
5,72,117,0
5,76,117,0
5,69,127,318
5,72,127,0
5,76,127,0
5,67,127,207
5,71,127,0
5,74,127,0
5,69,127,682
5,72,127,0
5,76,127,0
5,69,117,44
5,72,117,0
5,76,117,0
5,69,127,318
5,72,127,0
5,76,127,0
5,69,127,1167
5,72,127,0
5,76,127,0
5,69,117,44
5,72,117,0
5,76,117,0
5,69,127,318
5,72,127,0
5,76,127,0
5,67,127,207
5,71,127,0
5,74,127,0
5,69,127,727
5,72,127,0
5,76,127,0
5,69,117,44
5,72,117,0
5,76,117,0
5,69,127,318
5,72,127,0
5,76,127,0
5,69,127,1167
5,72,127,0
5,76,127,0
5,69,117,44
5,72,117,0
5,76,117,0
5,69,127,318
5,72,127,0
5,76,127,0
5,67,127,207
5,71,127,0
5,74,127,0
5,69,127,682
5,72,127,0
5,76,127,0
5,69,117,44
5,72,117,0
5,76,117,0
5,69,127,318
5,72,127,0
5,76,127,0
5,81,127,12
5,79,117,405
5,81,95,10
5,76,120,10
5,74,122,480
5,72,110,73
5,74,127,227
5,57,112,4
5,62,112,85
5,60,112,227
5,57,127,2257
5,64,127,0
5,69,127,0
5,57,127,719
5,64,127,0
5,69,127,0
5,53,127,815
5,60,127,0
5,65,127,0
5,55,127,234
5,62,127,0
5,67,127,0
5,57,127,234
5,64,127,0
5,69,127,0
5,55,127,60
5,62,127,0
5,67,127,0
5,69,115,540
5,72,115,0
5,76,115,0
5,67,115,64
5,71,115,0
5,74,115,0
5,67,105,90
5,71,105,0
5,74,105,0
5,67,53,90
5,71,53,0
5,74,53,0
5,67,84,90
5,71,84,0
5,74,84,0
5,67,115,90
5,71,115,0
5,74,115,0
5,67,115,210
5,71,115,0
5,74,115,0
5,69,115,690
5,72,115,0
5,76,115,0
5,67,115,128
5,71,115,0
5,74,115,0
5,67,105,90
5,71,105,0
5,74,105,0
5,67,53,90
5,71,53,0
5,74,53,0
5,67,84,90
5,71,84,0
5,74,84,0
5,67,115,90
5,71,115,0
5,74,115,0
5,67,115,210
5,71,115,0
5,74,115,0
5,69,127,690
5,72,127,0
5,76,127,0
5,65,127,98
5,69,127,0
5,72,127,0
5,67,127,0
5,71,127,0
5,74,127,0
5,69,127,0
5,72,127,0
5,76,127,0
5,69,127,1745
5,72,127,0
5,76,127,0
5,69,117,44
5,72,117,0
5,76,117,0
5,69,127,318
5,72,127,0
5,76,127,0
5,69,127,1167
5,72,127,0
5,76,127,0
5,69,117,44
5,72,117,0
5,76,117,0
5,69,127,318
5,72,127,0
5,76,127,0
5,67,127,207
5,71,127,0
5,74,127,0
5,69,127,682
5,72,127,0
5,76,127,0
5,69,117,44
5,72,117,0
5,76,117,0
5,69,127,318
5,72,127,0
5,76,127,0
5,69,127,1167
5,72,127,0
5,76,127,0
5,69,117,44
5,72,117,0
5,76,117,0
5,69,127,318
5,72,127,0
5,76,127,0
5,67,127,207
5,71,127,0
5,74,127,0
5,69,127,727
5,72,127,0
5,76,127,0
5,69,117,44
5,72,117,0
5,76,117,0
5,69,127,318
5,72,127,0
5,76,127,0
5,69,127,1167
5,72,127,0
5,76,127,0
5,69,117,44
5,72,117,0
5,76,117,0
5,69,127,318
5,72,127,0
5,76,127,0
5,67,127,207
5,71,127,0
5,74,127,0
5,69,127,682
5,72,127,0
5,76,127,0
5,69,117,44
5,72,117,0
5,76,117,0
5,69,127,318
5,72,127,0
5,76,127,0
5,79,127,25
5,74,107,73
5,72,107,0
5,77,127,0
5,74,107,0
5,72,107,0
5,77,107,0
5,74,127,0
5,72,107,0
5,70,107,0
5,67,107,0
5,62,127,0
5,64,127,0
5,65,127,0
5,69,127,0
5,67,127,0
5,59,106,50
5,62,100,119
5,62,127,234
5,64,127,0
5,65,127,0
5,69,127,0
5,67,127,0
5,64,127,1680
5,69,127,0
5,57,127,20
5,64,127,719
5,69,127,0
5,57,127,20
5,62,127,1295
5,67,127,0
5,55,127,20
5,64,127,227
5,69,127,0
5,57,127,20
5,69,117,2689
5,72,117,0
5,76,117,0
5,69,107,44
5,72,107,0
5,76,107,0
5,69,117,318
5,72,117,0
5,76,117,0
5,69,117,1167
5,72,117,0
5,76,117,0
5,69,107,44
5,72,107,0
5,76,107,0
5,69,117,318
5,72,117,0
5,76,117,0
5,67,117,207
5,71,117,0
5,74,117,0
5,69,117,682
5,72,117,0
5,76,117,0
5,69,107,44
5,72,107,0
5,76,107,0
5,69,117,318
5,72,117,0
5,76,117,0
5,69,117,1167
5,72,117,0
5,76,117,0
5,69,107,44
5,72,107,0
5,76,107,0
5,69,117,318
5,72,117,0
5,76,117,0
5,67,117,207
5,71,117,0
5,74,117,0
5,69,117,727
5,72,117,0
5,76,117,0
5,69,107,44
5,72,107,0
5,76,107,0
5,69,117,318
5,72,117,0
5,76,117,0
5,69,117,1167
5,72,117,0
5,76,117,0
5,69,107,44
5,72,107,0
5,76,107,0
5,69,117,318
5,72,117,0
5,76,117,0
5,67,117,207
5,71,117,0
5,74,117,0
5,69,117,682
5,72,117,0
5,76,117,0
5,69,107,44
5,72,107,0
5,76,107,0
5,69,117,318
5,72,117,0
5,76,117,0
5,69,117,1167
5,72,117,0
5,76,117,0
5,69,107,44
5,72,107,0
5,76,107,0
5,69,117,318
5,72,117,0
5,76,117,0
5,67,117,207
5,71,117,0
5,74,117,0
5,69,117,727
5,72,117,0
5,76,117,0
5,69,107,44
5,72,107,0
5,76,107,0
5,69,117,318
5,72,117,0
5,76,117,0
5,69,117,1167
5,72,117,0
5,76,117,0
5,69,107,44
5,72,107,0
5,76,107,0
5,69,117,318
5,72,117,0
5,76,117,0
5,67,117,207
5,71,117,0
5,74,117,0
5,69,117,682
5,72,117,0
5,76,117,0
5,69,107,44
5,72,107,0
5,76,107,0
5,69,117,318
5,72,117,0
5,76,117,0
5,69,117,1167
5,72,117,0
5,76,117,0
5,69,107,44
5,72,107,0
5,76,107,0
5,69,117,318
5,72,117,0
5,76,117,0
5,67,117,207
5,71,117,0
5,74,117,0
5,69,127,727
5,72,127,0
5,76,127,0
5,69,117,44
5,72,117,0
5,76,117,0
5,69,127,318
5,72,127,0
5,76,127,0
5,69,127,1167
5,72,127,0
5,76,127,0
5,69,117,44
5,72,117,0
5,76,117,0
5,69,127,318
5,72,127,0
5,76,127,0
5,67,127,207
5,71,127,0
5,74,127,0
5,69,127,682
5,72,127,0
5,76,127,0
5,69,117,44
5,72,117,0
5,76,117,0
5,69,127,318
5,72,127,0
5,76,127,0
5,69,127,1167
5,72,127,0
5,76,127,0
5,69,117,44
5,72,117,0
5,76,117,0
5,69,127,318
5,72,127,0
5,76,127,0
5,67,127,207
5,71,127,0
5,74,127,0
5,69,127,727
5,72,127,0
5,76,127,0
5,69,117,44
5,72,117,0
5,76,117,0
5,69,127,318
5,72,127,0
5,76,127,0
5,69,127,1167
5,72,127,0
5,76,127,0
5,69,117,44
5,72,117,0
5,76,117,0
5,69,127,318
5,72,127,0
5,76,127,0
5,67,127,207
5,71,127,0
5,74,127,0
5,69,127,682
5,72,127,0
5,76,127,0
5,69,117,44
5,72,117,0
5,76,117,0
5,69,127,318
5,72,127,0
5,76,127,0
5,69,127,1167
5,72,127,0
5,76,127,0
5,69,117,44
5,72,117,0
5,76,117,0
5,64,127,11838
5,69,127,0
5,57,127,20
5,64,127,719
5,69,127,0
5,57,127,20
5,62,127,1295
5,67,127,0
5,55,127,20
5,64,127,227
5,69,127,0
5,57,127,20
5,64,127,1009
5,69,127,0
5,57,127,20
5,64,127,719
5,69,127,0
5,57,127,20
5,62,127,1295
5,67,127,0
5,55,127,20
5,64,127,227
5,69,127,0
5,57,127,20
5,64,127,1009
5,69,127,0
5,57,127,20
5,64,127,719
5,69,127,0
5,57,127,20
5,62,127,1295
5,67,127,0
5,55,127,20
5,64,127,227
5,69,127,0
5,57,127,20
6,69,110,246
6,71,110,113
6,72,110,10
6,71,110,395
6,69,110,4
6,67,110,240
6,69,110,8
6,64,110,0
6,72,110,995
6,71,110,216
6,72,110,32
6,71,110,360
6,72,110,266
6,74,110,6
6,76,110,8
6,79,110,1179
6,77,110,227
6,76,110,11
6,74,110,3
6,79,110,18
6,77,110,250
6,76,110,9
6,74,110,9
6,72,110,927
6,71,110,4
6,72,110,8
6,71,110,7
6,72,110,5
6,74,110,240
6,76,110,7
6,69,110,1020
6,77,110,0
6,76,110,237
6,72,110,189
6,69,110,233
6,76,110,20
6,74,110,278
6,74,110,60
6,69,110,1203
6,76,110,127
6,76,110,2
6,72,110,40
6,69,110,370
6,76,110,344
6,74,110,224
6,74,110,42
6,77,110,699
6,76,110,14
6,72,110,355
6,77,110,832
6,76,110,249
6,72,110,373
6,77,110,722
6,76,110,16
6,72,110,3
6,72,110,45
6,72,110,70
6,74,110,255
6,71,110,32
6,67,110,7
6,69,110,250
6,69,110,327
6,71,110,200
6,72,110,148
6,71,110,20
6,69,110,9
6,67,110,253
6,69,110,257
6,64,110,9
6,72,110,988
6,71,110,0
6,72,110,155
6,71,110,6
6,72,110,7
6,74,110,298
6,76,110,0
6,79,110,1420
6,77,110,212
6,76,110,6
6,74,110,2
6,79,110,400
6,77,110,20
6,76,110,9
6,74,110,15
6,72,110,930
6,72,110,86
6,71,110,1
6,72,110,240
6,71,110,6
6,72,110,259
6,74,110,223
6,76,110,282
6,76,110,1299
6,76,110,67
6,76,110,31
6,72,110,230
6,69,110,270
6,76,110,375
6,74,110,209
6,74,110,51
6,76,110,446
6,74,110,5
6,76,110,53
6,74,110,177
6,76,110,16
6,76,110,809
6,74,110,22
6,76,110,58
6,74,110,187
6,76,110,24
6,76,110,52
6,74,110,20
6,76,110,58
6,77,110,525
6,76,110,254
6,72,110,14
6,77,110,936
6,76,110,249
6,72,110,8
6,77,110,882
6,76,110,254
6,72,110,11
6,72,110,62
6,72,110,88
6,74,110,16
6,71,110,19
6,67,110,34
6,69,110,34
6,77,110,754
6,76,110,259
6,72,110,1
6,77,110,985
6,76,110,244
6,72,110,0
6,77,110,905
6,76,110,257
6,72,110,331
6,72,110,54
6,72,110,45
6,74,110,229
6,71,110,225
6,67,110,269
6,69,110,174
6,69,110,3291
6,69,110,71
6,71,110,260
6,72,110,197
6,71,110,2
6,69,110,4
6,67,110,244
6,69,110,30
6,64,110,13
6,72,110,1295
6,71,110,219
6,72,110,23
6,71,110,353
6,72,110,0
6,74,110,3
6,76,110,415
6,79,110,1304
6,77,110,238
6,76,110,10
6,74,110,3
6,79,110,332
6,77,110,223
6,76,110,15
6,74,110,13
6,72,110,827
6,72,110,74
6,71,110,14
6,72,110,10
6,71,110,338
6,72,110,9
6,74,110,276
6,76,110,292
6,77,110,1168
6,77,110,56
6,76,110,37
6,72,110,237
6,69,110,15
6,69,110,81
6,76,110,32
6,74,110,244
6,74,110,50
6,77,110,918
6,76,110,14
6,72,110,244
6,72,110,57
6,69,110,11
6,76,110,43
6,77,110,1
6,74,110,332
6,77,110,567
6,76,110,254
6,72,110,2
6,77,110,906
6,76,110,270
6,72,110,7
6,77,110,921
6,76,110,259
6,72,110,330
6,72,110,57
6,72,110,44
6,74,110,241
6,71,110,226
6,67,110,10
6,69,110,7
6,69,110,26308
6,71,110,0
6,72,110,158
6,71,110,13
6,69,110,3
6,67,110,237
6,69,110,11
6,64,110,24
6,72,110,1448
6,71,110,10
6,72,110,189
6,71,110,5
6,72,110,190
6,74,110,200
6,76,110,219
6,79,110,1781
6,77,110,224
6,76,110,8
6,74,110,10
6,79,110,0
6,77,110,6
6,76,110,16
6,74,110,10
6,72,110,1036
6,71,110,1
6,72,110,230
6,71,110,285
6,72,110,215
6,74,110,234
