track,note,velocity,time
0,52,87,0
0,67,74,0
0,71,79,0
0,74,59,0
0,76,86,0
0,45,127,863
0,47,94,120
0,50,127,39
0,47,83,87
0,50,126,64
0,52,111,5
0,50,100,5
0,47,114,13
0,28,127,4
0,35,127,0
0,49,85,0
0,70,127,0
0,74,79,0
0,40,127,0
0,59,102,0
0,62,103,0
0,66,103,0
0,69,102,0
0,66,78,5
0,45,93,5
0,45,93,0
0,70,48,0
0,69,78,13
0,42,67,5
0,70,63,0
0,74,79,13
0,42,74,5
0,62,87,0
0,70,79,0
0,59,126,22
0,62,126,5
0,66,77,4
0,28,83,5
0,40,109,0
0,42,109,0
0,70,126,0
0,66,95,0
0,66,127,3
0,69,127,2
0,69,76,13
0,70,49,5
0,74,76,13
0,42,59,5
0,70,62,0
0,66,77,13
0,28,104,5
0,35,108,0
0,42,54,0
0,70,78,0
0,69,77,13
0,28,127,5
0,42,85,0
0,70,127,0
0,74,74,7
0,70,49,5
0,66,74,13
0,28,127,2
0,35,91,0
0,42,66,0
0,70,62,0
0,69,75,13
0,42,74,5
0,70,78,0
0,62,102,7
0,74,74,13
0,28,82,0
0,40,108,0
0,42,109,0
0,70,127,0
0,66,75,13
0,70,49,5
0,61,57,13
0,69,73,13
0,42,59,4
0,70,62,0
0,63,99,8
0,74,72,13
0,35,81,5
0,42,54,0
0,70,78,0
0,63,70,10
0,66,73,4
0,28,126,4
0,35,126,0
0,42,84,0
0,70,127,0
0,69,72,4
0,70,48,4
0,74,72,4
0,42,67,4
0,70,63,0
0,66,71,13
0,42,75,5
0,70,79,0
0,62,97,2
0,69,71,9
0,28,83,5
0,40,109,0
0,42,108,0
0,70,126,0
0,74,70,13
0,70,49,5
0,66,70,9
0,42,58,5
0,70,62,0
0,63,55,5
0,69,71,13
0,28,105,5
0,35,109,0
0,42,55,0
0,70,78,0
0,62,101,8
0,74,69,13
0,28,126,5
0,42,84,0
0,70,127,0
0,66,68,5
0,70,49,0
0,62,72,13
0,69,68,0
0,28,126,5
0,35,90,0
0,42,67,0
0,70,62,0
0,74,69,13
0,42,75,5
0,70,78,0
0,62,113,2
0,66,68,13
0,28,83,0
0,40,109,0
0,42,108,0
0,70,127,0
0,69,67,13
0,70,49,5
0,61,42,3
0,74,67,13
0,38,101,5
0,35,94,0
0,42,59,0
0,70,62,0
0,63,93,3
0,66,66,13
0,37,101,5
0,35,65,0
0,42,54,0
0,70,78,0
0,63,76,7
0,74,63,13
0,36,116,5
0,35,127,0
0,55,99,0
0,70,127,0
0,76,68,0
0,36,127,0
0,59,102,0
0,62,102,0
0,64,103,4
0,69,103,0
0,67,60,13
0,70,48,5
0,69,58,5
0,42,66,5
0,70,63,0
0,74,59,5
0,62,90,3
0,42,75,2
0,70,79,0
0,59,126,5
0,62,126,1
0,64,127,2
0,67,59,3
0,28,82,5
0,40,108,0
0,42,109,0
0,70,126,0
0,69,126,13
0,74,69,13
0,69,58,13
0,70,49,5
0,74,56,13
0,42,58,5
0,70,62,0
0,67,57,13
0,36,82,5
0,35,108,0
0,42,54,0
0,70,78,0
0,62,96,2
0,69,57,13
0,36,127,5
0,42,85,0
0,70,127,0
0,71,65,4
0,74,54,13
0,70,49,5
0,67,54,13
0,36,117,5
0,35,90,0
0,42,67,0
0,70,62,0
0,69,55,13
0,42,74,5
0,70,78,0
0,74,62,65
0,74,52,13
0,28,83,5
0,40,109,0
0,42,108,0
0,70,127,0
0,67,53,13
0,70,49,5
0,61,71,11
0,69,53,13
0,42,59,5
0,70,62,0
0,69,91,23
0,74,52,13
0,35,81,5
0,42,54,0
0,70,78,0
0,63,89,10
0,67,51,13
0,35,127,5
0,42,85,0
0,70,127,0
0,69,50,13
0,70,48,5
0,74,50,13
0,42,67,5
0,70,63,0
0,67,49,13
0,42,74,5
0,70,79,0
0,62,77,2
0,69,49,13
0,28,82,5
0,40,108,0
0,42,109,0
0,70,126,0
0,74,48,13
0,70,49,5
0,61,63,2
0,67,48,5
0,62,93,1
0,42,58,4
0,70,62,0
0,69,47,13
0,62,120,3
0,45,90,2
0,35,108,0
0,42,54,0
0,70,78,0
0,74,47,13
0,50,110,0
0,42,85,0
0,70,127,0
0,67,46,13
0,55,99,0
0,70,49,0
0,76,68,0
0,64,61,0
0,69,45,3
0,52,102,0
0,35,90,0
0,42,67,0
0,70,62,0
0,79,68,0
0,74,45,3
0,43,99,0
0,42,74,0
0,70,78,0
0,81,69,0
0,61,58,2
0,67,44,13
0,40,105,0
0,28,82,0
0,40,108,0
0,42,108,0
0,70,127,0
0,86,77,0
0,69,42,13
0,38,92,0
0,70,49,0
0,81,68,0
0,61,73,5
0,74,43,3
0,33,81,0
0,35,95,0
0,42,59,0
0,70,62,0
0,79,69,0
0,63,86,7
0,67,42,13
0,31,80,0
0,35,64,0
0,57,67,0
0,70,78,0
0,76,68,0
0,63,90,2
0,28,126,0
0,35,127,0
0,49,84,0
0,70,127,0
0,74,79,0
0,40,126,0
0,59,102,0
0,62,103,0
0,66,103,10
0,69,102,0
0,66,79,8
0,70,48,5
0,69,78,13
0,42,67,5
0,70,63,0
0,74,78,13
0,42,74,5
0,70,79,0
0,59,127,33
0,62,127,7
0,66,77,2
0,28,83,5
0,40,109,0
0,42,108,0
0,70,126,0
0,66,66,0
0,66,126,6
0,69,127,6
0,69,76,13
0,70,49,5
0,62,64,11
0,74,77,13
0,62,73,2
0,28,105,3
0,42,59,0
0,70,62,0
0,66,77,13
0,62,117,3
0,28,105,2
0,35,109,0
0,42,54,0
0,70,78,0
0,69,76,13
0,28,126,5
0,42,85,0
0,70,127,0
0,74,75,13
0,70,49,5
0,66,74,13
0,28,126,5
0,35,90,0
0,42,67,0
0,70,62,0
0,62,108,1
0,69,74,13
0,42,74,5
0,70,78,0
0,62,126,5
0,74,75,13
0,28,83,0
0,40,109,0
0,42,109,0
0,70,127,0
0,66,75,3
0,70,49,5
0,61,74,11
0,69,72,13
0,42,58,5
0,70,62,0
0,63,97,3
0,74,72,10
0,28,105,5
0,35,81,0
0,42,54,0
0,70,78,0
0,63,95,13
0,66,73,13
0,28,127,5
0,35,126,0
0,42,85,0
0,70,127,0
0,69,73,13
0,70,48,5
0,74,72,13
0,42,67,5
0,70,63,0
0,66,70,13
0,42,74,5
0,70,79,0
0,69,71,9
0,28,82,5
0,40,108,0
0,42,108,0
0,70,126,0
0,74,70,13
0,70,49,5
0,62,69,18
0,66,71,13
0,42,59,5
0,70,62,0
0,69,71,13
0,28,104,5
0,35,108,0
0,42,55,0
0,70,78,0
0,62,112,3
0,74,68,13
0,28,126,5
0,42,84,0
0,70,127,0
0,66,69,2
0,70,49,2
0,76,68,0
0,69,68,13
0,28,127,5
0,35,91,0
0,42,66,0
0,70,62,0
0,79,69,0
0,62,67,5
0,74,69,13
0,42,75,3
0,70,78,0
0,81,68,0
0,62,121,3
0,66,68,13
0,52,126,0
0,28,82,0
0,40,108,0
0,42,108,0
0,70,127,0
0,86,77,0
0,69,67,2
0,70,49,5
0,81,68,0
0,61,38,10
0,74,66,13
0,50,97,5
0,35,95,0
0,42,59,0
0,70,62,0
0,79,69,0
0,63,74,7
0,66,66,7
0,47,87,5
0,35,64,0
0,42,55,0
0,70,78,0
0,76,69,0
0,63,94,6
0,74,63,13
0,36,116,5
0,35,126,0
0,42,84,0
0,70,127,0
0,76,66,0
0,36,126,0
0,59,103,0
0,62,102,0
0,64,103,10
0,69,103,0
0,67,60,13
0,70,48,5
0,69,59,13
0,42,67,5
0,70,63,0
0,74,58,13
0,42,74,5
0,70,79,0
0,59,126,65
0,67,58,13
0,62,126,1
0,28,83,4
0,40,109,0
0,42,108,0
0,70,126,0
0,64,127,6
0,69,127,7
0,74,61,6
0,69,59,13
0,70,49,5
0,62,70,11
0,74,57,13
0,62,95,2
0,42,59,3
0,70,62,0
0,67,56,13
0,36,83,5
0,35,109,0
0,42,55,0
0,70,78,0
0,62,116,1
0,69,56,13
0,36,126,5
0,42,84,0
0,70,127,0
0,69,63,40
0,74,55,13
0,70,49,5
0,67,55,13
0,36,116,5
0,35,91,0
0,42,66,0
0,70,62,0
0,62,76,7
0,69,54,13
0,42,75,5
0,70,78,0
0,62,113,3
0,74,52,13
0,28,83,5
0,40,109,0
0,42,109,0
0,70,127,0
0,67,53,13
0,70,49,5
0,61,49,12
0,69,52,13
0,42,58,5
0,70,62,0
0,67,68,0
0,63,85,7
0,74,53,13
0,35,80,5
0,42,54,0
0,70,78,0
0,67,51,13
0,36,117,5
0,35,126,0
0,42,85,0
0,70,127,0
0,63,95,8
0,69,50,3
0,70,48,3
0,74,51,3
0,42,66,3
0,70,63,0
0,67,48,3
0,42,75,3
0,70,79,0
0,62,73,3
0,69,48,3
0,28,82,5
0,40,108,0
0,42,109,0
0,70,126,0
0,74,49,13
0,70,49,5
0,62,64,10
0,67,49,13
0,42,58,5
0,62,84,0
0,70,62,0
0,69,46,13
0,36,127,5
0,35,109,0
0,42,55,0
0,70,78,0
0,61,87,3
0,74,46,13
0,42,84,5
0,70,127,0
0,62,70,0
0,67,47,9
0,36,94,4
0,70,49,0
0,76,69,0
0,62,55,1
0,63,100,13
0,69,44,0
0,36,126,5
0,35,90,0
0,42,66,0
0,70,62,0
0,79,68,0
0,74,45,13
0,42,75,5
0,62,73,0
0,70,78,0
0,81,68,0
0,67,45,13
0,38,127,5
0,28,82,0
0,40,108,0
0,42,109,0
0,70,127,0
0,86,77,0
0,62,58,3
0,59,126,7
0,69,126,6
0,62,127,3
0,64,127,9
0,69,42,13
0,70,49,0
0,81,69,0
0,61,70,5
0,74,42,13
0,35,85,5
0,35,95,0
0,42,58,0
0,70,62,0
0,79,68,0
0,63,110,11
0,67,43,3
0,31,110,5
0,35,65,0
0,42,54,0
0,70,78,0
0,76,69,0
0,63,79,5
0,28,126,0
0,76,111,0
0,35,114,0
0,42,85,0
0,70,117,0
0,59,107,0
0,64,106,0
0,52,86,0
0,59,87,0
0,64,86,0
0,67,86,0
0,71,87,0
0,67,107,7
0,76,110,13
0,70,38,0
0,52,107,0
0,76,111,0
0,42,49,0
0,70,53,0
0,59,106,0
0,70,69,13
0,59,127,0
0,64,126,0
0,67,126,7
0,76,111,0
0,28,61,0
0,37,119,0
0,42,108,0
0,70,116,0
0,70,39,13
0,64,127,0
0,67,127,1
0,40,63,100
0,76,110,0
0,42,48,0
0,70,52,0
0,40,94,13
0,79,111,0
0,35,109,0
0,70,68,0
0,64,126,0
0,67,126,1
0,42,85,100
0,70,117,0
0,70,39,4
0,64,87,0
0,67,87,1
0,40,85,13
0,79,110,0
0,35,104,0
0,42,48,0
0,70,52,0
0,59,80,0
0,64,80,0
0,67,81,7
0,70,68,13
0,59,120,0
0,64,121,0
0,67,121,7
0,28,60,0
0,37,118,0
0,42,109,0
0,70,117,0
0,70,39,100
0,59,80,0
0,64,81,0
0,67,80,7
0,42,49,53
0,70,52,0
0,59,108,0
0,64,109,0
0,67,109,7
0,70,68,0
0,64,120,0
0,67,120,0
0,31,127,100
0,35,114,0
0,42,84,0
0,70,117,0
0,55,87,0
0,59,86,0
0,62,86,0
0,66,87,0
0,71,87,0
0,74,86,0
0,70,38,100
0,62,127,0
0,66,127,5
0,42,49,0
0,70,53,0
0,62,86,0
0,66,86,5
0,70,69,100
0,59,127,0
0,62,126,0
0,66,127,5
0,28,61,100
0,37,119,0
0,42,108,0
0,70,116,0
0,70,39,3
0,62,127,0
0,66,126,5
0,31,78,100
0,78,110,0
0,42,48,0
0,70,52,0
0,31,95,13
0,78,111,0
0,35,109,0
0,70,68,0
0,59,127,8
0,79,111,5
0,42,85,0
0,70,117,0
0,62,126,0
0,66,126,5
0,70,39,3
0,31,84,50
0,78,110,0
0,35,105,0
0,42,49,0
0,70,52,0
0,78,110,8
0,70,68,0
0,62,127,0
0,66,127,5
0,81,111,13
0,28,61,0
0,37,119,0
0,42,108,0
0,70,117,0
0,70,39,100
0,62,126,0
0,66,126,5
0,79,111,13
0,42,48,0
0,70,52,0
0,70,68,0
0,36,126,100
0,76,110,0
0,35,114,0
0,42,85,0
0,70,117,0
0,59,107,0
0,64,107,0
0,48,86,0
0,60,87,0
0,64,86,0
0,67,87,0
0,71,87,0
0,67,106,7
0,76,110,13
0,70,38,0
0,55,106,0
0,76,111,0
0,42,49,0
0,70,53,0
0,59,107,0
0,70,69,13
0,59,126,0
0,64,127,0
0,67,127,7
0,76,110,0
0,28,60,0
0,37,118,0
0,42,108,0
0,70,116,0
0,70,39,13
0,64,126,0
0,67,127,1
0,36,79,100
0,76,111,0
0,42,48,0
0,70,52,0
0,36,95,13
0,79,111,0
0,35,108,0
0,70,68,0
0,64,126,0
0,67,126,1
0,42,85,100
0,70,117,0
0,70,39,13
0,64,87,0
0,67,87,1
0,36,84,50
0,79,110,0
0,35,105,0
0,42,48,0
0,70,52,0
0,59,80,0
0,64,80,0
0,67,81,7
0,70,68,2
0,59,121,0
0,64,120,0
0,67,120,4
0,28,61,0
0,37,119,0
0,42,109,0
0,70,117,0
0,70,39,22
0,59,81,0
0,64,80,0
0,67,81,7
0,42,49,53
0,70,52,0
0,59,109,0
0,64,108,0
0,67,109,7
0,36,78,0
0,70,68,0
0,64,120,0
0,67,120,1
0,38,127,87
0,35,115,0
0,42,84,0
0,70,117,0
0,50,86,0
0,57,81,0
0,62,86,0
0,66,86,0
0,71,87,0
0,70,38,100
0,62,127,0
0,66,127,5
0,42,49,0
0,70,53,0
0,62,86,0
0,66,86,5
0,70,69,100
0,59,127,0
0,62,127,0
0,66,126,5
0,28,60,100
0,37,118,0
0,42,108,0
0,70,116,0
0,70,39,3
0,62,126,0
0,66,127,5
0,78,111,100
0,42,48,0
0,70,52,0
0,38,95,13
0,78,110,0
0,35,108,0
0,70,68,0
0,59,126,8
0,79,110,5
0,42,85,0
0,70,117,0
0,62,127,0
0,66,127,5
0,70,39,2
0,79,111,20
0,38,84,50
0,35,104,0
0,42,49,0
0,70,52,0
0,70,68,8
0,62,126,0
0,66,127,5
0,78,111,20
0,28,60,29
0,37,118,0
0,42,108,0
0,70,117,0
0,70,39,93
0,62,126,0
0,66,126,5
0,81,110,20
0,42,48,80
0,70,52,0
0,79,110,53
0,70,68,0
0,28,126,53
0,79,111,0
0,35,115,0
0,42,85,0
0,70,117,0
0,59,107,0
0,64,107,0
0,52,87,0
0,59,86,0
0,64,86,0
0,67,87,0
0,71,87,0
0,67,106,2
0,70,38,13
0,52,106,0
0,79,111,20
0,42,49,0
0,70,53,0
0,59,107,0
0,79,110,53
0,70,69,33
0,59,127,0
0,64,126,0
0,67,126,7
0,79,110,0
0,28,61,0
0,37,119,0
0,42,108,0
0,70,116,0
0,70,39,13
0,64,127,0
0,67,126,1
0,40,63,100
0,79,111,0
0,42,48,0
0,70,52,0
0,40,94,13
0,35,108,0
0,70,68,0
0,64,127,0
0,67,127,1
0,83,110,20
0,42,85,80
0,70,117,0
0,70,39,2
0,64,86,0
0,67,87,1
0,40,85,50
0,79,111,0
0,35,105,0
0,42,48,0
0,70,52,0
0,59,80,0
0,64,80,0
0,67,81,7
0,70,68,13
0,59,121,0
0,64,120,0
0,67,120,7
0,28,61,0
0,37,119,0
0,42,109,0
0,70,117,0
0,70,39,3
0,59,81,0
0,64,81,0
0,67,80,5
0,42,49,3
0,70,52,0
0,59,108,0
0,64,109,0
0,67,108,5
0,70,68,0
0,64,121,0
0,67,121,0
0,38,127,78
0,35,115,0
0,42,84,0
0,70,117,0
0,50,86,0
0,59,80,0
0,62,87,0
0,66,86,0
0,69,87,0
0,70,38,100
0,62,126,0
0,66,127,5
0,42,49,0
0,70,53,0
0,62,86,0
0,66,86,5
0,70,69,100
0,59,127,0
0,62,127,0
0,66,126,5
0,28,60,100
0,37,118,0
0,42,108,0
0,70,116,0
0,70,39,3
0,62,126,0
0,66,127,5
0,38,78,100
0,79,111,0
0,42,48,0
0,70,52,0
0,38,95,13
0,35,108,0
