track,note,velocity,time
1,33,115,6960
1,37,117,6
1,40,113,6
1,42,115,6
1,33,118,6
1,37,116,6
1,40,113,6
1,42,118,6
1,33,115,6
1,37,117,6
1,40,113,6
1,42,115,6
1,33,118,6
1,37,116,6
1,40,113,6
1,42,118,6
1,33,115,6
1,37,117,6
1,40,113,6
1,42,115,6
1,33,118,6
1,37,116,6
1,40,113,6
1,42,118,6
1,33,115,6
1,37,117,6
1,40,113,6
1,42,115,6
1,33,118,6
1,37,116,6
1,40,113,6
1,42,118,6
1,33,115,6
1,37,117,6
1,40,113,6
1,42,115,6
1,33,118,6
1,37,116,6
1,40,113,6
1,42,118,6
1,40,118,6
1,44,116,6
1,47,113,6
1,49,118,6
1,40,118,6
1,38,118,6
1,37,118,6
1,35,118,6
1,38,118,6
1,42,118,6
1,45,118,6
1,47,118,6
1,38,118,6
1,42,117,6
1,45,116,6
1,47,114,6
1,33,118,6
1,37,116,6
1,40,113,6
1,42,118,6
1,33,115,6
1,37,117,6
1,40,113,6
1,42,115,6
1,33,118,6
1,37,116,6
1,40,113,6
1,42,118,6
1,40,118,6
1,38,118,6
1,37,118,6
1,35,118,6
1,33,115,6
1,37,117,6
1,40,113,6
1,42,115,6
1,33,118,6
1,37,116,6
1,40,113,6
1,42,118,6
1,33,115,6
1,37,117,6
1,40,113,6
1,42,115,6
1,33,118,6
1,37,116,6
1,40,113,6
1,42,118,6
1,33,115,6
1,37,117,6
1,40,113,6
1,42,115,6
1,33,118,6
1,37,116,6
1,40,113,6
1,42,118,6
1,33,115,6
1,37,117,6
1,40,113,6
1,42,115,6
1,33,118,6
1,37,116,6
1,40,113,6
1,42,118,6
1,40,118,6
1,44,116,6
1,47,113,6
1,49,118,6
1,40,118,6
1,38,118,6
1,37,118,6
1,35,118,6
1,38,118,6
1,42,118,6
1,45,118,6
1,47,118,6
1,38,118,6
1,42,117,6
1,45,116,6
1,47,114,6
1,33,118,6
1,37,116,6
1,40,113,6
1,42,118,6
1,33,115,6
1,37,117,6
1,40,113,6
1,42,115,6
1,33,118,6
1,37,116,6
1,40,113,6
1,42,118,6
1,40,118,6
1,38,118,6
1,37,118,6
1,35,118,6
1,33,115,6
1,37,117,6
1,40,113,6
1,42,115,6
1,33,118,6
1,33,116,6
1,35,113,6
1,37,118,6
1,38,124,6
1,38,116,50
1,38,122,2
1,38,118,46
1,33,117,38
1,33,121,20
1,33,115,22
1,33,114,14
1,40,113,8
1,40,115,18
1,40,116,16
1,40,116,28
1,33,116,48
1,33,118,18
1,35,117,10
1,37,119,38
1,38,120,2
1,38,117,54
1,38,118,2
1,38,117,46
1,33,117,40
1,33,118,32
1,33,113,24
1,33,115,36
1,35,117,24
1,35,113,6
1,35,115,24
1,35,114,48
1,40,116,46
1,33,115,2716
1,37,117,6
1,40,113,6
1,42,115,6
1,33,118,6
1,37,116,6
1,40,113,6
1,42,118,6
1,33,115,6
1,37,117,6
1,40,113,6
1,42,115,6
1,33,118,6
1,37,116,6
1,40,113,6
1,42,118,6
1,33,115,6
1,37,117,6
1,40,113,6
1,42,115,6
1,33,118,6
1,37,116,6
1,40,113,6
1,42,118,6
1,40,118,6
1,44,116,6
1,47,113,6
1,49,118,6
1,40,118,6
1,38,118,6
1,37,118,6
1,35,118,6
1,38,118,6
1,42,118,6
1,45,118,6
1,47,118,6
1,38,118,6
1,42,117,6
1,45,116,6
1,47,114,6
1,33,118,6
1,37,116,6
1,40,113,6
1,42,118,6
1,33,115,6
1,37,117,6
1,40,113,6
1,42,115,6
1,33,118,6
1,37,116,6
1,40,113,6
1,42,118,6
1,40,118,6
1,38,118,6
1,37,118,6
1,35,118,6
1,33,115,6
1,37,117,6
1,40,113,6
1,42,115,6
1,33,118,6
1,37,116,6
1,40,113,6
1,42,118,6
1,33,115,6
1,37,117,6
1,40,113,6
1,42,115,6
1,33,118,6
1,37,116,6
1,40,113,6
1,42,118,6
1,33,115,6
1,37,117,6
1,40,113,6
1,42,115,6
1,33,118,6
1,37,116,6
1,40,113,6
1,42,118,6
1,38,118,6
1,42,118,6
1,45,118,6
1,47,118,6
1,38,118,6
1,42,117,6
1,45,116,6
1,47,114,6
1,33,118,6
1,37,116,6
1,40,113,6
1,42,118,6
1,33,115,6
1,37,117,6
1,40,113,6
1,42,115,6
1,38,118,6
1,42,118,6
1,45,118,6
1,47,118,6
1,38,118,6
1,42,117,6
1,45,116,6
1,47,114,6
1,33,118,6
1,37,116,6
1,40,113,6
1,42,118,6
1,42,115,6
1,42,117,6
1,37,113,6
1,33,115,6
1,33,118,6
1,37,116,6
1,40,113,6
1,42,118,6
1,40,118,6
1,38,118,6
1,37,118,6
1,35,118,6
1,33,115,6
1,37,117,6
1,40,113,6
1,42,115,6
1,33,118,6
1,33,116,6
1,35,113,6
1,37,118,6
1,38,124,6
1,38,116,50
1,38,122,2
1,38,118,46
1,33,117,38
1,33,121,20
1,33,115,22
1,33,114,14
1,40,113,8
1,40,115,18
1,40,116,16
1,40,116,28
1,33,116,48
1,33,118,18
1,35,117,10
1,37,119,38
1,38,120,2
1,38,117,54
1,38,118,2
1,38,117,46
1,33,117,40
1,33,118,32
1,33,113,24
1,33,115,36
1,35,117,24
1,35,113,6
1,35,115,24
1,35,114,48
1,40,116,46
1,33,115,2716
1,37,117,6
1,40,113,6
1,42,115,6
1,33,118,6
1,37,116,6
1,40,113,6
1,42,118,6
1,33,115,6
1,37,117,6
1,40,113,6
1,42,115,6
1,33,118,6
1,37,116,6
1,40,113,6
1,42,118,6
1,33,115,6
1,37,117,6
1,40,113,6
1,42,115,6
1,33,118,6
1,37,116,6
1,40,113,6
1,42,118,6
1,40,118,6
1,44,116,6
1,47,113,6
1,49,118,6
1,40,118,6
1,38,118,6
1,37,118,6
1,35,118,6
1,38,118,6
1,42,118,6
1,45,118,6
1,47,118,6
1,38,118,6
1,42,117,6
1,45,116,6
1,47,114,6
1,33,118,6
1,37,116,6
1,40,113,6
1,42,118,6
1,33,115,6
1,37,117,6
1,40,113,6
1,42,115,6
1,33,118,6
1,37,116,6
1,40,113,6
1,42,118,6
1,40,118,6
1,38,118,6
1,37,118,6
1,35,118,6
1,33,115,6
1,37,117,6
1,40,113,6
1,42,115,6
1,33,118,6
1,37,116,6
1,40,113,6
1,42,118,6
1,33,118,6
1,37,116,6
1,40,113,6
1,42,118,6
1,40,118,6
1,38,118,6
1,37,118,6
1,35,118,6
1,33,115,6
1,33,118,2694
1,37,116,6
1,40,113,6
1,42,118,6
1,40,118,6
1,38,118,6
1,37,118,6
1,35,118,6
1,33,115,6
1,33,118,2694
1,37,116,6
1,40,113,6
1,42,118,6
1,40,118,6
1,38,118,6
1,37,118,6
1,35,118,6
1,33,115,6
1,33,118,2694
1,37,116,6
1,40,113,6
1,42,118,6
1,40,118,6
1,38,118,6
1,37,118,6
1,35,118,6
1,33,115,6
1,37,115,6
1,38,115,6
1,39,115,6
1,40,115,6
1,42,115,224
1,44,115,6
1,45,115,6
2,69,107,31520
2,69,102,40
2,69,111,40
2,69,112,40
2,69,112,40
2,69,113,40
2,69,111,40
2,69,114,40
2,69,117,4072
2,69,117,102
2,71,115,48
2,73,119,60
2,73,118,124
2,73,118,122
2,73,117,72
2,73,113,78
2,73,117,40
2,73,117,36
2,71,118,36
2,69,118,38
2,71,119,52
2,73,120,1578
2,73,118,144
2,73,115,40
2,73,114,40
2,73,115,40
2,73,114,40
2,73,110,40
2,73,113,40
2,71,113,40
2,69,112,40
2,73,116,40
2,73,113,40
2,71,117,40
2,69,116,40
2,71,119,40
2,69,117,40
2,69,120,158
2,74,120,2068
2,74,119,120
2,73,119,178
2,73,119,38
2,71,120,22
2,71,121,40
2,73,121,20
2,74,117,234
2,73,115,10
2,74,120,40
2,73,118,40
2,73,118,112
2,73,117,114
2,69,117,68
2,66,116,6
2,69,107,578
2,69,102,40
2,69,111,40
2,69,112,40
2,69,112,40
2,69,113,40
2,69,111,40
2,69,114,40
2,76,116,6952
2,76,116,102
2,74,117,24
2,76,117,184
2,76,116,108
2,73,114,30
2,76,112,4028
2,75,113,22
2,75,109,78
2,76,115,6
2,78,112,6
2,76,111,34
2,80,110,0
2,71,111,0
2,71,111,6
2,83,109,0
2,76,111,0
2,76,111,6
2,80,106,0
2,71,111,0
2,76,111,6
2,71,111,0
2,78,110,0
2,76,111,40
2,71,111,0
2,76,110,40
2,71,110,0
2,76,105,40
2,71,105,0
2,76,112,40
2,71,112,0
2,76,109,40
2,71,109,0
2,76,97,40
2,71,95,0
2,76,104,40
2,71,103,0
2,76,80,40
2,71,84,0
2,71,90,40
2,76,90,0
2,76,71,40
2,71,71,0
2,71,83,40
2,76,83,0
2,71,56,40
2,76,60,0
2,73,120,40
2,73,119,154
2,73,118,84
2,73,121,94
2,73,113,142
2,73,118,104
2,73,115,86
2,69,109,6
2,71,118,74
2,69,112,6
2,71,119,64
2,69,117,6
2,73,119,116
2,73,118,2238
2,73,121,82
2,73,119,148
2,73,114,78
2,73,121,96
2,73,113,144
2,73,108,90
2,71,112,6
2,69,109,6
2,73,115,16
2,73,115,138
2,71,115,48
2,69,114,48
2,71,116,56
2,74,120,2472
2,74,119,120
2,73,119,178
2,73,119,38
2,71,120,22
2,71,121,40
2,73,121,20
2,74,117,234
2,73,115,10
2,74,120,40
2,73,118,40
2,73,118,112
2,73,117,114
2,69,117,68
2,66,116,6
2,69,107,578
2,69,102,40
2,69,111,40
2,69,112,40
2,69,112,40
2,69,113,40
2,69,111,40
2,69,114,40
2,76,116,31528
2,76,116,102
2,74,117,24
2,76,117,184
2,76,116,108
2,73,114,30
2,76,112,4028
2,75,113,22
2,75,109,78
2,76,115,6
2,78,112,6
2,71,111,34
2,76,111,0
2,80,110,0
2,83,109,6
2,76,111,0
2,71,111,0
2,71,111,6
2,76,111,0
2,80,106,0
2,78,110,6
2,71,111,0
2,76,111,0
2,71,111,40
2,76,111,0
2,76,110,40
2,71,110,0
2,71,105,40
2,76,105,0
2,71,112,40
2,76,112,0
2,71,112,40
2,76,112,0
2,71,104,40
2,76,104,0
2,71,96,40
2,76,96,0
2,76,93,40
2,71,93,0
2,71,89,40
2,76,89,0
2,71,78,40
2,76,84,0
2,73,114,16
2,73,114,6
2,73,115,50
2,73,119,56
2,73,115,22
2,73,114,62
2,73,120,42
2,73,115,58
2,73,119,42
2,73,110,58
2,73,119,20
2,71,118,62
2,69,119,46
2,71,115,74
2,69,118,50
2,73,115,52
2,73,119,6
2,73,111,38
2,73,120,124
2,73,114,118
2,73,118,64
2,73,112,72
2,73,119,58
2,73,113,80
2,73,111,92
2,71,115,66
2,69,116,12
2,71,117,72
2,69,116,40
2,71,118,120
2,73,118,1726
2,74,118,292
2,74,118,114
2,74,118,108
2,73,116,30
2,71,121,6
2,73,119,22
2,74,115,212
2,74,116,110
2,73,115,102
2,73,112,124
2,71,114,22
2,69,117,192
2,73,113,458
2,74,113,50
2,76,107,100
2,76,102,40
2,76,111,40
2,76,112,40
2,76,112,40
2,76,113,40
2,76,111,40
2,76,114,40
2,78,116,40
2,71,113,40
2,76,114,80
2,76,114,86
2,74,112,78
2,73,120,620
2,71,118,6
2,76,107,2
2,76,102,40
2,76,111,40
2,76,112,40
2,76,112,40
2,76,113,40
2,76,111,40
2,76,114,40
2,78,116,40
2,71,113,40
2,76,114,80
2,76,114,86
2,74,112,78
2,73,120,620
2,71,118,6
2,76,107,2
2,76,102,40
2,76,111,40
2,76,112,40
2,76,112,40
2,76,113,40
2,76,111,40
2,76,114,40
2,78,116,40
2,71,113,40
2,76,114,80
2,76,114,86
2,74,112,78
2,73,120,620
2,71,118,6
2,76,107,2
2,76,102,40
2,76,111,40
2,76,112,40
2,76,112,40
2,76,113,40
2,76,111,40
2,76,114,40
2,78,116,40
2,71,113,40
2,76,114,80
2,76,114,86
2,74,112,78
2,73,120,620
2,71,118,6
2,76,107,2
2,81,118,0
2,76,102,6
2,81,116,0
2,78,119,6
2,76,111,0
2,76,112,6
2,78,119,0
2,76,112,6
2,76,113,40
2,76,111,40
2,73,118,0
2,76,114,6
2,73,118,0
2,78,116,6
2,71,117,0
2,71,113,40
2,76,114,192
2,76,114,86
2,74,112,78
3,76,124,44
3,76,117,34
3,76,118,50
3,76,122,56
3,76,118,22
3,76,117,62
3,76,123,42
3,76,118,58
3,76,122,42
3,76,113,58
3,76,122,20
3,74,121,62
3,73,122,46
3,74,118,74
3,73,121,50
3,76,118,52
3,76,122,6
3,76,114,38
3,76,123,124
3,76,117,118
3,76,121,64
3,76,115,72
3,76,122,58
3,76,116,80
3,76,114,92
3,74,118,66
3,73,119,12
3,74,120,72
3,73,119,40
3,76,121,120
3,76,121,1726
3,78,121,292
3,78,121,114
3,78,121,108
3,76,119,30
3,74,124,6
3,76,122,22
3,78,118,212
3,78,119,110
3,76,118,102
3,76,115,124
3,74,117,22
3,73,120,192
3,69,116,458
3,71,116,50
3,73,110,100
3,73,105,40
3,73,114,40
3,73,115,40
3,73,115,40
3,73,116,40
3,73,114,40
3,73,117,40
3,74,119,40
3,68,116,40
3,73,117,80
3,73,117,86
3,71,115,78
3,73,120,1580
3,73,120,102
3,74,118,48
3,76,122,60
3,76,121,124
3,76,121,122
3,76,120,72
3,76,116,78
3,76,120,40
3,76,120,36
3,74,121,36
3,73,121,38
3,74,122,52
3,76,123,1578
3,76,121,144
3,76,118,40
3,76,117,40
3,76,118,40
3,76,117,40
3,76,113,40
3,76,116,40
3,74,116,40
3,73,115,40
3,76,119,40
3,76,116,40
3,74,120,40
3,73,119,40
3,74,122,40
3,73,120,40
3,74,123,158
3,76,124,1492
3,76,118,40
3,76,116,40
3,78,123,40
3,78,122,120
3,78,122,178
3,76,122,38
3,74,123,22
3,74,124,40
3,76,124,20
3,78,120,234
3,76,118,10
3,78,123,40
3,76,121,40
3,76,121,112
3,76,120,114
3,73,120,68
3,71,119,6
3,69,127,2
3,71,122,32
3,69,125,18
3,73,110,18
3,73,105,40
3,73,114,40
3,73,115,40
3,73,115,40
3,73,116,40
3,73,114,40
3,73,117,40
3,74,119,40
3,68,116,40
3,73,117,80
3,73,117,86
3,71,115,78
3,69,121,1004
3,71,118,384
3,73,119,50
3,74,122,52
3,74,121,166
3,73,122,78
3,73,119,210
3,73,119,102
3,71,120,24
3,73,120,184
3,73,119,108
3,69,117,30
3,69,120,188
3,71,120,384
3,73,119,70
3,74,122,42
3,74,122,178
3,73,122,40
3,73,115,718
3,71,116,22
3,71,112,78
3,73,118,6
3,75,115,6
3,76,113,34
3,80,112,6
3,76,109,6
3,74,113,6
3,76,121,1340
3,76,121,160
3,76,123,68
3,76,122,154
3,76,121,84
3,76,124,94
3,76,116,142
3,76,121,104
3,76,118,86
3,73,112,6
3,74,121,74
3,73,115,6
3,74,122,64
3,73,120,6
3,76,122,116
3,76,121,2238
3,76,124,82
3,76,122,148
3,76,117,78
3,76,124,96
3,76,116,144
3,76,111,90
3,74,115,6
3,73,112,6
3,76,118,16
3,76,118,138
3,74,118,48
3,73,117,48
3,76,119,56
3,76,124,1896
3,76,118,40
3,76,116,40
3,78,123,40
3,78,122,120
3,78,122,178
3,76,122,38
3,74,123,22
3,74,124,40
3,76,124,20
3,78,120,234
3,76,118,10
3,78,123,40
3,76,121,40
3,76,121,112
3,76,120,114
3,73,120,68
3,71,119,6
3,69,127,2
3,71,122,32
3,69,125,18
3,73,110,18
3,73,105,40
3,73,114,40
3,73,115,40
3,73,115,40
3,73,116,40
3,73,114,40
3,73,117,40
3,74,119,40
3,68,116,40
3,73,117,80
3,73,117,86
3,71,115,78
3,69,121,25580
3,71,118,384
3,73,119,50
3,74,122,52
3,74,121,166
3,73,122,78
3,73,119,210
3,73,119,102
3,71,120,24
3,73,120,184
3,73,119,108
3,69,117,30
3,69,120,188
3,71,120,384
3,73,119,70
3,74,122,42
3,74,122,178
3,73,122,40
3,73,115,718
3,71,116,22
3,71,112,78
3,73,118,6
3,75,115,6
3,76,113,34
3,80,112,6
