track,note,velocity,time
0,62,71,0
0,66,64,0
0,57,87,0
0,57,88,0
0,42,104,0
0,38,104,1
0,50,90,1
0,62,88,0
0,66,86,0
0,69,94,0
0,36,106,0
0,59,91,1
0,59,92,0
0,42,80,0
0,57,88,1
0,57,89,0
0,42,99,0
0,38,82,1
0,57,94,0
0,62,80,0
0,59,79,0
0,59,80,0
0,36,100,0
0,42,75,0
0,38,92,1
0,66,100,0
0,69,98,0
0,57,87,0
0,57,88,0
0,36,106,0
0,42,103,0
0,62,74,1
0,59,82,0
0,59,83,0
0,42,80,0
0,66,90,0
0,57,84,0
0,57,85,0
0,37,95,0
0,42,99,0
0,38,84,1
0,62,80,0
0,59,79,0
0,59,80,0
0,42,85,0
0,66,0,3
0,31,90,1
0,55,100,0
0,67,92,0
0,71,94,0
0,67,74,0
0,57,87,0
0,57,88,0
0,36,106,0
0,42,103,0
0,62,80,1
0,59,82,0
0,59,83,0
0,42,75,0
0,67,84,1
0,57,84,0
0,57,85,0
0,42,104,0
0,31,86,1
0,43,98,0
0,59,79,0
0,59,80,0
0,36,100,0
0,42,75,0
0,62,0,4
0,33,98,1
0,45,96,0
0,61,96,0
0,67,92,0
0,69,96,0
0,64,74,0
0,57,87,0
0,57,88,0
0,36,106,0
0,42,103,0
0,57,108,1
0,59,82,0
0,59,83,0
0,42,75,0
0,64,94,1
0,67,90,0
0,57,84,0
0,57,85,0
0,37,95,0
0,42,104,0
0,33,86,1
0,59,79,0
0,59,80,0
0,46,111,0
0,64,0,1
0,67,0,1
0,38,86,1
0,50,94,0
0,62,98,0
0,66,94,0
0,62,70,0
0,66,68,0
0,57,87,0
0,57,88,0
0,36,106,0
0,42,99,0
0,42,0,0
0,59,82,1
0,59,83,0
0,42,70,0
0,86,89,1
0,57,84,0
0,57,85,0
0,42,104,0
0,38,86,1
0,57,110,0
0,62,90,0
0,59,79,0
0,59,80,0
0,36,100,0
0,42,75,0
0,38,98,1
0,62,94,0
0,66,108,0
0,69,104,0
0,81,88,0
0,57,87,0
0,57,88,0
0,36,106,0
0,42,103,0
0,59,82,1
0,59,83,0
0,42,75,0
0,66,86,1
0,78,79,0
0,57,84,0
0,57,85,0
0,37,95,0
0,42,94,0
0,38,78,1
0,62,78,0
0,59,79,0
0,59,80,0
0,42,75,0
0,38,90,1
0,66,96,0
0,69,92,0
0,81,86,0
0,57,87,0
0,57,88,0
0,36,106,0
0,42,103,0
0,62,78,1
0,59,82,0
0,59,83,0
0,42,75,0
0,57,96,1
0,66,98,0
0,74,73,0
0,57,84,0
0,57,85,0
0,42,99,0
0,38,80,1
0,62,80,0
0,59,79,0
0,59,80,0
0,36,100,0
0,42,66,0
0,66,0,5
0,43,93,1
0,43,92,0
0,55,110,0
0,67,90,0
0,71,92,0
0,79,71,0
0,67,74,0
0,57,87,0
0,57,88,0
0,36,106,0
0,42,103,0
0,62,80,1
0,59,82,0
0,59,83,0
0,42,80,0
0,67,84,1
0,83,82,0
0,57,84,0
0,57,85,0
0,37,95,0
0,42,99,0
0,43,88,1
0,62,84,0
0,59,79,0
0,59,80,0
0,46,113,0
0,62,0,22
0,67,0,1
0,38,84,1
0,50,88,0
0,66,92,0
0,69,88,0
0,81,78,0
0,62,70,0
0,66,70,0
0,57,87,0
0,57,88,0
0,36,106,0
0,42,103,0
0,62,74,1
0,59,82,0
0,59,83,0
0,42,75,0
0,62,48,1
0,57,84,0
0,57,85,0
0,42,99,0
0,38,82,1
0,57,66,0
0,59,79,0
0,59,80,0
0,36,100,0
0,42,66,0
0,38,82,1
0,50,88,0
0,57,81,0
0,62,83,0
0,57,87,0
0,57,88,0
0,36,106,0
0,42,103,0
0,57,60,1
0,59,82,0
0,59,83,0
0,42,80,0
0,62,80,1
0,57,84,0
0,57,85,0
0,37,95,0
0,42,94,0
0,38,91,25
0,38,0,11
0,62,64,1
0,59,79,0
0,59,80,0
0,42,55,0
0,38,72,40
0,38,76,1
0,50,108,0
0,62,80,0
0,66,94,0
0,57,87,0
0,57,88,0
0,36,106,0
0,42,103,0
0,59,82,1
0,59,83,0
0,42,75,0
0,69,94,1
0,57,84,0
0,57,85,0
0,42,94,0
0,33,76,1
0,57,83,0
0,62,74,0
0,59,79,0
0,59,80,0
0,36,100,0
0,42,66,0
0,51,37,16
0,51,0,8
0,51,61,9
0,51,0,8
0,51,84,16
0,51,0,8
0,38,84,1
0,62,77,0
0,66,84,0
0,57,87,0
0,57,74,0
0,36,106,0
0,51,94,0
0,62,0,13
0,66,0,4
0,69,66,6
0,38,102,5
0,50,86,0
0,62,78,0
0,66,80,0
0,69,95,0
0,66,51,0
0,69,52,0
0,36,90,0
0,74,85,4
0,76,76,15
0,78,69,4
0,76,60,2
0,78,68,3
0,44,94,9
0,38,99,13
0,57,78,0
0,57,0,8
0,40,88,1
0,62,64,0
0,76,60,2
0,42,90,9
0,42,73,0
0,57,90,0
0,61,88,0
0,66,82,0
0,36,89,0
0,78,77,1
0,73,69,1
0,73,76,14
0,46,109,5
0,71,64,6
0,73,75,8
0,44,89,12
0,42,90,17
0,66,86,0
0,69,78,0
0,73,91,0
0,69,83,9
0,71,64,0
0,36,94,0
0,66,0,0
0,69,0,0
0,42,0,9
0,40,92,5
0,52,90,0
0,62,74,0
0,67,72,0
0,71,90,0
0,64,55,0
0,67,53,0
0,36,89,0
0,76,78,2
0,78,70,7
0,79,63,5
0,59,82,9
0,62,84,0
0,78,64,5
0,62,86,17
0,67,92,0
0,44,96,0
0,79,76,2
0,81,71,1
0,67,0,4
0,78,74,1
0,33,100,1
0,45,78,0
0,57,78,0
0,64,94,0
0,66,87,0
0,71,80,0
0,71,63,0
0,36,89,0
0,76,70,1
0,40,94,25
0,59,88,0
0,45,99,24
0,64,98,0
0,67,102,0
0,51,84,0
0,51,0,1
0,57,77,0
0,51,61,40
0,51,0,8
0,43,101,9
0,59,90,0
0,61,90,0
0,40,88,9
0,78,64,46
0,36,91,2
0,51,75,0
0,53,75,0
0,51,0,0
0,53,0,0
0,37,93,9
0,71,0,4
0,64,0,1
0,81,78,7
0,38,99,1
0,50,80,0
0,54,80,0
0,57,54,0
0,62,84,0
0,66,51,0
0,66,69,0
0,69,80,0
0,36,89,0
0,78,67,1
0,78,78,16
0,76,70,1
0,57,104,4
0,66,92,0
0,62,84,9
0,69,86,0
0,44,97,0
0,76,74,2
0,74,61,1
0,62,0,67
0,38,92,9
0,57,89,0
0,62,84,0
0,74,72,4
0,73,69,0
0,37,94,1
0,73,79,14
0,57,0,0
0,35,104,1
0,47,88,0
0,54,74,0
0,57,94,0
0,61,88,0
0,66,90,0
0,36,91,0
0,71,77,1
0,71,70,13
0,38,84,1
0,57,91,0
0,46,113,0
0,71,70,7
0,71,0,6
0,70,69,6
0,42,88,1
0,59,104,0
0,73,47,0
0,44,94,0
0,71,66,1
0,35,90,1
0,73,73,0
0,74,78,1
0,36,92,6
0,78,81,6
0,66,0,1
0,69,0,0
0,40,96,1
0,52,98,0
0,59,96,0
0,62,98,0
0,67,98,0
0,71,43,0
0,64,73,0
0,67,80,0
0,36,94,0
0,76,73,1
0,40,98,17
0,76,73,9
0,59,94,7
0,67,85,0
0,40,93,48
0,40,0,1
0,75,70,1
0,40,104,8
0,62,100,0
0,67,92,0
0,44,96,0
0,76,68,1
0,55,86,9
0,59,96,0
0,78,65,1
0,38,104,17
0,79,72,1
0,38,0,7
0,35,97,9
0,35,0,7
0,67,0,5
0,33,104,1
0,45,88,0
0,55,92,0
0,59,108,0
0,64,98,0
0,69,83,0
0,36,92,0
0,83,65,3
0,81,72,17
0,80,72,30
0,52,100,45
0,42,83,0
0,83,73,1
0,42,73,27
0,55,96,16
0,59,100,0
0,61,94,0
0,66,104,0
0,46,115,0
0,81,66,1
0,73,38,1
0,74,42,6
0,45,102,3
0,76,46,0
0,78,50,4
0,78,0,6
0,45,48,3
0,79,56,0
0,79,75,3
0,81,58,3
0,81,0,3
0,64,0,0
0,69,0,3
0,43,94,1
0,43,90,0
0,55,82,0
0,59,84,0
0,62,92,0
0,66,94,0
0,74,41,0
0,83,57,0
0,67,91,0
0,36,97,0
0,42,104,0
0,78,75,1
0,36,0,5
0,76,66,12
0,42,89,91
0,78,65,1
0,43,107,17
0,43,0,10
0,55,94,17
0,59,88,0
0,76,71,1
0,43,92,6
0,78,76,3
0,43,0,28
0,43,100,10
0,69,98,0
0,42,91,0
0,76,71,15
0,74,71,6
0,43,0,6
0,43,98,10
0,43,100,0
0,55,94,0
0,59,88,0
0,62,98,0
0,66,98,0
0,79,37,0
0,42,80,0
0,74,0,38
0,38,99,1
0,81,44,0
0,46,112,0
0,76,68,7
0,59,0,72
0,55,0,1
0,62,0,0
0,67,0,2
0,34,90,3
0,46,98,0
0,57,76,0
0,62,90,0
0,65,96,0
0,74,41,0
0,82,54,0
0,65,95,0
0,36,97,0
0,42,97,0
0,77,79,7
0,36,0,1
0,76,69,1
0,42,83,89
0,77,79,6
0,53,97,25
0,57,90,0
0,76,69,4
0,41,96,2
0,77,89,5
0,41,0,8
0,65,0,5
0,46,101,3
0,60,94,0
0,77,36,0
0,62,97,0
0,42,89,0
0,46,0,34
0,41,90,6
0,42,78,0
0,41,0,32
0,34,93,1
0,57,90,0
0,46,109,0
0,62,94,9
0,65,96,0
0,42,89,0
0,42,78,40
0,57,76,9
0,46,114,0
0,79,76,5
0,81,76,0
0,62,0,2
0,38,102,2
0,38,74,0
0,50,82,0
0,57,62,0
0,62,94,0
0,66,100,0
0,78,38,0
0,69,94,0
0,36,97,0
0,42,85,0
0,36,0,8
0,42,0,0
0,81,0,81
0,78,70,6
0,42,71,1
0,42,85,24
0,78,74,4
0,74,74,3
0,38,102,3
0,42,69,0
0,69,96,15
0,42,81,0
0,74,73,4
0,69,63,5
0,42,71,6
0,38,110,15
0,74,40,0
0,42,79,0
0,69,75,7
0,39,98,2
0,75,45,0
0,46,114,0
0,70,73,7
0,38,0,7
0,69,0,1
0,83,75,3
0,40,98,3
0,40,92,0
0,59,98,0
0,62,86,0
0,76,48,0
0,79,50,0
0,71,87,0
0,36,101,0
0,42,77,0
0,36,0,8
0,79,77,3
0,42,70,4
0,42,83,16
0,79,77,4
0,76,67,4
0,40,105,9
0,52,96,0
0,55,92,0
0,42,73,0
0,40,0,31
0,76,80,10
0,40,95,1
0,59,100,0
0,62,92,0
0,67,92,0
0,74,37,0
0,42,93,0
0,46,115,88
0,74,72,1
0,38,105,16
0,47,98,0
0,74,74,0
0,42,70,0
0,35,96,16
0,40,88,0
0,42,90,0
0,76,68,1
0,51,42,16
0,51,0,8
0,51,56,16
0,51,0,8
0,74,74,1
0,51,80,0
0,35,0,1
0,51,0,0
0,74,0,13
0,33,102,1
0,45,98,0
0,55,82,0
0,59,98,0
0,61,96,0
0,66,96,0
0,73,40,0
0,81,40,0
0,57,95,0
0,51,99,0
0,73,75,1
0,33,98,10
0,64,85,0
0,40,88,4
0,40,0,1
0,45,96,1
0,57,78,0
0,45,86,23
0,40,88,12
0,52,88,0
0,71,0,1
0,57,0,0
0,33,88,1
0,45,85,0
0,55,56,0
0,59,80,0
0,59,84,0
0,36,94,0
0,44,94,0
0,44,0,0
0,44,89,11
0,44,0,8
0,36,84,18
0,61,78,1
0,61,90,0
0,44,89,0
0,44,0,8
0,81,0,0
0,33,97,9
0,46,109,0
0,46,0,8
0,69,69,44
0,33,0,7
0,38,100,1
0,50,80,0
0,57,87,0
0,62,87,0
0,66,96,0
0,69,80,0
0,81,52,0
0,66,73,0
0,62,88,0
0,36,106,0
0,51,78,0
0,74,83,7
0,42,74,88
0,76,79,1
0,37,103,84
0,42,78,0
0,78,79,1
0,62,0,23
0,57,0,8
0,57,88,9
0,62,78,0
0,36,76,0
0,42,78,0
0,76,65,1
0,78,82,18
0,62,92,17
0,66,98,0
0,69,92,0
0,36,106,0
0,42,106,0
0,42,78,88
0,38,94,1
0,57,58,0
0,62,72,0
0,57,86,0
0,37,94,0
0,42,86,0
0,76,70,8
0,40,86,7
0,50,84,0
0,42,70,0
0,78,79,0
0,57,0,7
0,42,94,1
0,54,78,0
0,57,78,0
0,61,92,0
0,64,90,0
0,66,74,0
0,54,81,0
0,36,106,0
0,42,94,0
0,42,82,88
0,73,67,1
0,37,94,88
0,42,86,0
0,73,78,0
0,42,107,17
0,57,70,0
0,36,106,0
0,42,86,0
0,71,78,1
0,42,0,9
0,73,83,1
0,66,0,5
0,42,102,2
0,61,90,0
0,64,92,0
0,69,100,0
0,85,58,0
0,69,80,0
0,36,106,0
0,42,90,0
0,37,79,40
0,57,72,34
0,42,78,0
0,64,0,64
0,69,0,6
0,42,0,1
0,41,97,1
0,41,100,0
0,60,89,0
0,63,93,0
0,68,93,0
0,84,52,0
0,68,77,0
0,53,88,0
0,37,103,0
0,42,86,0
0,56,72,16
0,46,112,0
0,71,70,1
0,63,0,1
0,56,0,0
0,68,0,6
0,60,0,0
0,76,85,1
0,53,0,2
0,40,93,2
0,40,102,0
0,59,80,0
0,62,92,0
0,67,88,0
0,83,46,0
0,67,72,0
0,52,84,0
0,36,106,0
0,42,86,0
0,78,78,1
0,55,74,2
0,42,78,0
0,37,100,88
0,42,78,0
0,79,76,1
0,47,92,9
0,52,96,0
0,59,94,0
0,36,106,0
0,42,82,0
0,78,64,1
0,79,79,6
0,67,0,1
0,52,85,2
0,59,98,0
0,62,88,0
0,62,78,0
0,36,106,0
0,42,94,0
0,42,86,88
0,52,96,9
0,52,0,24
0,52,90,1
0,40,88,0
0,81,51,0
0,37,103,0
0,42,94,0
0,52,0,38
0,47,90,2
0,81,76,1
0,40,88,1
0,83,58,0
0,42,82,0
0,78,71,1
0,62,0,6
0,45,97,1
0,45,96,0
0,55,78,0
0,61,96,0
0,66,104,0
0,78,54,0
0,61,81,0
0,57,88,0
0,36,106,0
0,42,98,0
0,42,62,88
0,76,76,9
0,76,51,8
0,37,84,0
0,42,74,0
0,45,104,18
0,64,92,0
0,36,106,0
0,42,86,0
0,45,0,44
0,45,98,18
0,57,94,0
0,36,106,0
0,42,100,0
0,37,70,40
0,42,78,0
0,61,73,34
0,46,113,0
0,45,0,76
0,33,92,12
0,52,84,0
0,59,91,0
0,37,103,0
0,42,82,0
0,42,62,40
0,78,78,8
0,45,90,1
0,69,51,0
0,46,109,0
0,46,115,0
0,81,79,1
0,61,0,5
0,38,99,1
0,50,96,0
0,57,89,0
0,61,89,0
0,66,104,0
0,69,100,0
0,74,55,0
0,74,70,0
0,50,90,0
0,36,106,0
0,42,84,0
0,42,0,0
0,78,70,1
0,76,60,8
0,42,65,0
0,78,79,15
0,78,62,3
0,37,103,0
0,42,94,0
0,76,76,3
0,38,104,2
0,62,91,0
0,76,55,0
0,36,106,0
0,42,90,0
0,38,0,32
0,76,80,23
0,38,97,6
0,78,62,0
0,36,106,0
0,42,110,0
0,74,78,1
0,50,98,8
0,61,85,0
0,66,48,0
0,42,86,0
0,74,78,4
0,38,94,8
0,62,89,0
0,37,103,0
0,42,86,0
0,38,0,72
0,73,80,1
0,37,86,9
0,49,94,0
0,42,78,0
0,57,0,1
0,73,83,4
0,50,0,6
0,35,96,3
0,47,90,0
0,62,86,0
0,66,98,0
0,69,88,0
0,73,98,0
0,47,87,0
0,36,106,0
0,42,94,0
0,71,80,1
0,42,70,5
0,37,103,88
0,42,78,0
0,47,96,1
0,54,85,0
0,81,51,0
0,78,66,0
0,36,106,0
0,42,74,0
0,71,74,7
0,71,70,11
0,71,108,1
0,85,56,0
0,81,71,0
0,36,106,0
0,42,74,0
0,70,80,1
0,37,89,39
0,42,70,40
0,71,80,1
0,47,0,16
0,42,89,9
0,59,88,0
0,69,98,0
0,37,103,0
0,42,70,0
0,73,74,1
0,41,81,1
0,47,80,0
0,83,51,0
0,79,66,0
0,46,113,0
0,74,81,1
0,47,0,0
0,40,94,1
0,40,96,0
0,52,94,0
0,62,84,0
0,66,94,0
0,71,98,0
