track,note,velocity,time
0,74,87,0
0,74,0,4
0,74,87,0
0,74,0,4
0,74,87,0
0,74,0,3
0,74,87,0
0,74,0,3
0,74,87,0
0,74,0,3
0,74,87,0
0,74,0,2
0,74,87,0
0,74,0,4
0,74,87,0
0,74,0,3
0,77,87,0
0,77,0,22
0,74,87,0
0,74,0,4
0,74,87,0
0,74,0,4
0,74,87,0
0,74,0,4
0,74,87,0
0,74,0,3
0,74,87,0
0,74,0,3
0,74,87,0
0,74,0,2
0,74,87,0
0,74,0,4
0,74,87,0
0,74,0,3
0,77,87,0
0,77,0,22
0,74,87,0
0,74,0,4
0,74,87,0
0,74,0,4
0,74,87,0
0,74,0,4
0,74,87,0
0,74,0,3
0,74,87,0
0,74,0,3
0,74,87,0
0,74,0,4
0,74,87,0
0,74,0,5
0,74,87,0
0,74,0,3
0,77,87,0
0,77,0,19
0,74,87,0
0,74,0,4
0,74,87,0
0,74,0,4
0,74,87,0
0,74,0,4
0,74,87,0
0,74,0,3
0,74,87,0
0,74,0,3
0,74,87,0
0,74,0,4
0,74,87,0
0,74,0,5
0,74,87,0
0,74,0,3
0,69,87,0
0,69,0,19
0,69,87,0
0,69,0,4
0,74,87,0
0,74,0,4
0,74,87,0
0,74,0,4
0,74,87,0
0,74,0,3
0,74,87,0
0,74,0,3
0,74,87,0
0,74,0,3
0,74,87,0
0,74,0,2
0,74,87,0
0,74,0,4
0,74,87,0
0,74,0,3
0,77,87,0
0,77,0,22
0,74,87,0
0,74,0,4
0,74,87,0
0,74,0,4
0,74,87,0
0,74,0,4
0,74,87,0
0,74,0,3
0,74,87,0
0,74,0,3
0,74,87,0
0,74,0,2
0,74,87,0
0,74,0,4
0,74,87,0
0,74,0,3
0,77,87,0
0,77,0,22
0,74,87,0
0,74,0,4
0,74,87,0
0,74,0,4
0,74,87,0
0,74,0,4
0,74,87,0
0,74,0,3
0,74,87,0
0,74,0,4
0,74,87,0
0,74,0,5
0,74,87,0
0,74,0,3
0,77,87,0
0,77,0,19
0,74,87,0
0,74,0,4
0,74,87,0
0,74,0,4
0,74,87,0
0,74,0,4
0,74,87,0
0,74,0,3
0,74,87,0
0,74,0,4
0,74,87,0
0,74,0,5
0,74,87,0
0,74,0,3
0,69,87,0
0,69,0,19
0,69,87,0
0,69,0,4
0,57,89,127
0,60,81,0
0,62,92,0
0,65,76,0
0,62,66,0
0,39,90,24
0,39,0,2
0,39,90,46
0,39,0,2
0,39,90,46
0,39,0,2
0,62,0,20
0,65,87,0
0,65,0,14
0,67,87,0
0,39,90,6
0,39,0,2
0,67,0,6
0,60,0,2
0,62,0,1
0,57,0,0
0,65,0,0
0,69,87,0
0,55,79,11
0,58,86,0
0,62,82,0
0,65,84,0
0,69,0,1
0,67,87,0
0,74,80,0
0,39,90,5
0,39,0,2
0,39,90,0
0,39,0,2
0,39,90,2
0,39,0,2
0,67,0,5
0,70,87,0
0,70,0,1
0,69,87,0
0,39,90,0
0,39,0,2
0,62,0,6
0,69,0,1
0,58,0,0
0,65,0,0
0,55,0,1
0,65,87,0
0,39,90,0
0,39,0,2
0,65,0,7
0,57,89,0
0,60,81,0
0,62,92,0
0,65,76,0
0,69,87,0
0,39,90,6
0,39,0,1
0,69,0,3
0,74,87,0
0,77,89,3
0,39,90,1
0,39,0,2
0,74,0,3
0,77,0,0
0,76,89,0
0,39,90,1
0,39,0,2
0,76,0,2
0,74,89,0
0,77,87,0
0,77,0,2
0,77,87,0
0,39,90,1
0,39,0,2
0,77,0,3
0,60,0,1
0,62,0,1
0,57,0,0
0,65,0,0
0,72,87,0
0,55,79,1
0,58,86,0
0,63,84,0
0,74,0,1
0,70,87,0
0,55,44,0
0,58,45,0
0,79,93,0
0,60,50,0
0,72,0,3
0,79,67,1
0,39,90,0
0,39,0,2
0,39,90,18
0,39,0,2
0,70,0,1
0,60,0,12
0,55,0,5
0,58,0,0
0,63,0,0
0,55,79,0
0,58,86,0
0,62,78,0
0,62,49,1
0,39,90,18
0,39,0,2
0,62,0,21
0,63,82,0
0,74,87,0
0,74,0,1
0,79,0,0
0,74,87,0
0,39,90,0
0,39,0,2
0,74,0,1
0,55,0,1
0,58,0,0
0,74,87,0
0,62,0,1
0,74,0,1
0,72,87,0
0,39,90,0
0,39,0,1
0,74,0,1
0,63,0,1
0,72,0,1
0,55,0,2
0,58,0,0
0,38,104,0
0,26,88,0
0,74,87,0
0,50,64,0
0,60,70,0
0,79,0,0
0,81,89,0
0,38,64,0
0,62,70,0
0,65,70,0
0,74,0,6
0,72,87,0
0,72,0,3
0,74,87,0
0,39,90,0
0,81,69,0
0,39,0,2
0,57,100,1
0,60,106,0
0,62,100,0
0,67,97,0
0,74,0,3
0,39,90,18
0,39,0,2
0,81,0,9
0,79,86,3
0,77,85,3
0,76,86,3
0,79,0,1
0,77,0,4
0,81,0,9
0,79,65,3
0,77,64,3
0,76,66,3
0,39,90,0
0,79,0,1
0,39,0,1
0,77,0,3
0,49,44,6
0,50,63,1
0,55,22,0
0,49,0,1
0,55,0,8
0,50,0,1
0,53,22,2
0,77,88,0
0,48,60,0
0,76,0,3
0,77,87,0
0,60,0,5
0,62,0,0
0,65,0,1
0,77,0,1
0,50,21,0
0,76,87,0
0,77,67,0
0,39,90,0
0,48,0,1
0,39,0,1
0,76,0,1
0,76,0,1
0,48,15,0
0,50,0,1
0,47,7,0
0,74,87,0
0,48,0,1
0,57,0,1
0,47,0,1
0,60,0,0
0,45,10,0
0,62,0,0
0,67,0,0
0,45,0,1
0,43,10,0
0,74,0,1
0,43,0,1
0,38,0,0
0,41,23,0
0,72,87,0
0,38,0,0
0,41,0,1
0,40,20,0
0,40,0,1
0,38,21,0
0,50,0,0
0,38,0,2
0,36,21,0
0,36,0,2
0,35,25,0
0,33,19,1
0,26,0,1
0,35,0,1
0,77,0,1
0,72,0,0
0,31,84,0
0,70,87,0
0,55,64,0
0,55,70,0
0,76,88,0
0,43,64,0
0,58,70,0
0,62,70,0
0,33,0,1
0,70,0,1
0,69,87,0
0,53,0,4
0,69,0,0
0,77,0,2
0,70,87,0
0,39,90,0
0,76,67,0
0,39,0,2
0,53,58,2
0,58,39,0
0,53,0,4
0,58,0,0
0,70,0,2
0,53,57,6
0,58,51,0
0,53,0,4
0,58,0,0
0,39,90,8
0,39,0,2
0,53,56,10
0,58,51,0
0,76,0,1
0,81,89,4
0,52,5,1
0,31,0,1
0,50,1,1
0,52,0,1
0,76,0,1
0,48,1,1
0,50,0,1
0,46,6,1
0,48,0,1
0,45,14,1
0,46,0,1
0,43,11,1
0,45,0,1
0,41,10,2
0,43,0,1
0,81,74,0
0,39,90,0
0,40,14,1
0,41,0,1
0,39,0,0
0,38,16,1
0,40,0,1
0,36,17,1
0,38,0,1
0,34,16,1
0,36,0,1
0,33,13,1
0,34,0,1
0,31,55,1
0,33,0,2
0,53,0,6
0,58,0,0
0,74,87,0
0,74,0,3
0,81,0,2
0,74,87,0
0,39,90,0
0,39,0,1
0,74,0,1
0,58,0,1
0,62,0,0
0,55,0,0
0,74,87,0
0,74,0,1
0,72,87,0
0,39,90,0
0,43,0,1
0,39,0,1
0,55,0,0
0,81,0,5
0,72,0,0
0,31,0,2
0,60,92,2
0,62,103,0
0,65,87,0
0,38,61,0
0,74,87,0
0,50,64,0
0,62,70,0
0,81,89,0
0,38,64,0
0,65,70,0
0,69,70,0
0,74,0,6
0,72,87,0
0,72,0,3
0,74,87,0
0,39,90,0
0,81,78,0
0,39,0,2
0,74,0,4
0,39,90,18
0,39,0,2
0,81,0,9
0,79,86,3
0,77,85,3
0,76,86,3
0,79,0,1
0,77,0,4
0,81,0,9
0,79,74,3
0,77,73,3
0,76,74,3
0,39,90,0
0,79,0,1
0,39,0,1
0,77,0,3
0,62,0,36
0,65,0,1
0,69,0,2
0,77,87,0
0,39,90,0
0,39,0,1
0,60,0,1
0,77,0,1
0,62,0,0
0,65,0,0
0,76,87,0
0,38,0,0
0,50,0,1
0,38,0,6
0,58,97,1
0,62,93,0
0,65,95,0
0,43,56,0
0,74,87,0
0,55,64,0
0,58,70,0
0,43,64,0
0,62,70,0
0,65,70,0
0,76,0,1
0,74,0,1
0,77,87,0
0,39,90,0
0,39,0,2
0,77,0,8
0,76,87,0
0,76,0,11
0,74,87,0
0,74,0,13
0,77,87,0
0,39,90,0
0,39,0,2
0,77,0,7
0,76,87,0
0,76,0,11
0,74,87,0
0,70,74,0
0,65,74,0
0,58,74,0
0,76,0,3
0,39,90,21
0,39,0,2
0,76,0,1
0,74,0,5
0,74,87,0
0,74,0,7
0,65,89,0
0,74,87,0
0,64,68,0
0,70,89,0
0,43,0,3
0,74,0,5
0,70,87,0
0,70,0,1
0,38,99,0
0,74,87,0
0,65,78,0
0,39,90,0
0,70,78,0
0,65,0,1
0,70,0,0
0,39,0,1
0,70,0,1
0,65,0,0
0,58,0,0
0,58,0,1
0,62,0,1
0,65,0,0
0,62,0,4
0,74,0,1
0,58,0,0
0,65,0,0
0,36,66,0
0,69,87,0
0,39,90,0
0,38,0,1
0,43,0,0
0,39,0,1
0,55,0,0
0,34,53,0
0,36,0,1
0,33,48,1
0,34,0,1
0,31,42,0
0,33,0,1
0,29,39,0
0,31,0,1
0,57,63,1
0,62,64,0
0,65,70,0
0,29,0,1
0,69,36,0
0,82,84,0
0,60,51,0
0,65,36,0
0,49,100,0
0,62,51,0
0,26,99,0
0,62,36,0
0,46,77,0
0,65,51,0
0,36,112,0
0,64,0,1
0,65,0,0
0,70,0,0
0,82,0,0
0,49,0,0
0,46,0,0
0,36,0,0
0,69,51,0
0,26,0,1
0,26,91,1
0,82,72,0
0,42,70,0
0,36,104,0
0,82,0,1
0,42,0,0
0,36,0,0
0,60,0,2
0,62,0,0
0,65,0,0
0,69,0,0
0,26,0,1
0,60,38,2
0,62,38,0
0,65,38,0
0,69,38,1
0,60,0,2
0,62,0,0
0,65,0,0
0,69,0,1
0,69,0,1
0,82,71,1
0,60,62,0
0,40,106,0
0,62,62,0
0,39,94,0
0,65,62,0
0,82,0,1
0,40,0,0
0,69,62,0
0,39,0,1
0,26,99,4
0,26,0,4
0,67,61,2
0,82,64,0
0,72,67,0
0,42,69,0
0,82,0,1
0,42,0,0
0,67,0,3
0,72,0,0
0,26,92,2
0,82,63,0
0,36,85,0
0,82,0,1
0,36,0,0
0,26,0,3
0,26,91,2
0,69,67,0
0,82,66,0
0,74,81,0
0,42,79,0
0,36,102,0
0,82,0,1
0,42,0,0
0,36,0,0
0,26,0,3
0,69,0,1
0,74,0,1
0,26,81,0
0,82,78,0
0,82,0,1
0,26,0,3
0,26,99,2
0,82,65,0
0,46,77,0
0,82,0,1
0,46,0,0
0,26,0,3
0,67,63,2
0,36,83,0
0,72,74,0
0,36,0,1
0,67,0,3
0,72,0,1
0,82,71,1
0,40,106,0
0,39,94,0
0,82,0,1
0,40,0,0
0,39,0,1
0,69,67,10
0,82,69,0
0,38,68,0
0,74,81,0
0,42,82,0
0,50,67,0
0,82,0,1
0,42,0,0
0,38,0,3
0,69,0,1
0,74,0,0
0,26,96,1
0,38,60,0
0,50,0,4
0,26,0,0
0,38,0,0
0,26,91,2
0,82,84,0
0,60,119,0
0,46,77,0
0,36,114,0
0,82,0,1
0,46,0,0
0,36,0,0
0,26,0,6
0,60,0,2
0,26,99,3
0,82,72,0
0,42,80,0
0,36,102,0
0,82,0,1
0,42,0,0
0,36,0,0
0,26,0,3
0,62,115,2
0,82,71,6
0,40,106,0
0,39,94,0
0,82,0,1
0,40,0,0
0,39,0,1
0,62,0,1
0,26,91,3
0,26,0,3
0,62,87,0
0,82,64,0
0,60,91,0
0,42,74,0
0,36,96,0
0,82,0,1
0,42,0,0
0,36,0,0
0,60,0,5
0,26,89,0
0,82,63,0
0,36,88,0
0,82,0,1
0,36,0,0
0,26,0,3
0,62,0,2
0,26,88,0
0,82,66,0
0,60,117,0
0,65,87,0
0,42,79,0
0,36,109,0
0,82,0,1
0,42,0,0
0,36,0,0
0,26,0,3
0,26,92,2
0,82,78,0
0,82,0,1
0,60,0,1
0,65,0,2
0,26,0,0
0,26,91,0
0,67,87,0
0,82,65,0
0,65,0,0
0,42,75,0
0,82,0,1
0,42,0,0
0,62,0,0
0,60,0,0
0,69,0,0
0,26,0,5
0,36,83,0
0,62,113,0
0,36,0,1
0,67,0,2
0,62,0,3
0,69,87,0
0,82,71,0
0,40,106,0
0,39,94,0
0,82,0,1
0,40,0,0
0,39,0,1
0,57,0,2
0,69,0,2
0,62,0,0
0,65,0,0
0,26,99,0
0,69,87,0
0,82,69,0
0,38,65,0
0,46,77,0
0,50,66,0
0,36,88,0
0,82,0,1
0,46,0,0
0,36,0,0
0,38,0,2
0,26,0,1
0,69,0,1
0,65,0,0
0,62,0,0
0,38,53,1
0,50,0,2
0,38,0,1
0,58,59,2
0,62,61,0
0,65,69,0
0,31,99,1
0,70,36,0
0,82,84,0
0,55,51,0
0,67,36,0
0,46,77,0
0,58,51,0
0,65,36,0
0,36,112,0
0,62,51,0
0,82,0,1
0,46,0,0
0,36,0,0
0,65,51,0
0,69,0,9
0,31,0,0
0,31,91,0
0,67,87,0
0,82,72,0
0,42,70,0
0,36,104,0
0,82,0,1
0,42,0,0
0,36,0,0
0,55,0,1
0,58,0,0
0,65,0,0
0,62,0,1
0,31,0,1
0,55,38,2
0,58,38,0
0,62,38,0
0,65,38,1
0,55,0,2
0,58,0,0
0,62,0,0
0,65,0,1
0,82,71,2
0,55,62,0
0,40,106,0
0,58,62,0
0,39,94,0
0,62,62,0
0,82,0,1
0,40,0,0
0,65,62,0
0,39,0,1
0,31,99,4
0,31,0,4
0,67,61,2
0,82,64,0
0,72,67,0
0,42,69,0
0,82,0,1
0,42,0,0
0,67,0,3
0,72,0,0
0,31,92,2
0,82,63,0
0,36,85,0
0,82,0,1
0,36,0,0
0,31,0,3
0,31,91,2
0,69,67,0
0,82,66,0
0,74,81,0
0,42,79,0
0,36,102,0
0,82,0,1
0,42,0,0
0,36,0,0
0,31,0,3
0,69,0,1
0,74,0,1
0,31,81,0
0,82,78,0
0,82,0,1
0,31,0,3
0,31,99,2
0,82,65,0
0,46,77,0
0,82,0,1
0,46,0,0
0,31,0,3
0,67,63,2
0,36,83,0
0,72,74,0
0,36,0,1
0,67,0,3
0,72,0,1
0,82,71,1
0,40,106,0
0,39,94,0
0,82,0,1
0,40,0,0
0,39,0,1
0,67,0,8
0,69,67,2
0,82,69,0
0,38,68,0
0,74,81,0
0,42,82,0
0,50,67,0
0,82,0,1
0,42,0,0
0,38,0,3
0,69,0,1
0,74,0,0
0,31,96,1
0,38,60,0
0,50,0,4
0,31,0,0
0,38,0,0
0,31,91,2
0,82,84,0
0,60,119,0
0,46,77,0
0,36,114,0
0,82,0,1
0,46,0,0
0,36,0,0
0,31,0,6
0,60,0,2
0,31,99,3
0,82,72,0
0,42,80,0
0,36,102,0
0,82,0,1
0,42,0,0
0,36,0,0
0,31,0,3
0,62,115,2
0,82,71,6
0,40,106,0
0,39,94,0
0,82,0,1
0,40,0,0
0,39,0,1
0,62,0,1
0,31,91,3
0,55,0,3
0,58,0,0
0,31,0,0
0,62,0,1
0,65,0,2
0,74,87,0
0,82,64,0
0,50,89,0
0,42,74,0
0,36,96,0
0,82,0,1
0,42,0,0
0,36,0,0
0,74,0,5
0,50,0,0
0,31,89,0
0,82,63,0
0,36,88,0
0,82,0,1
0,36,0,0
0,31,0,3
0,31,88,0
0,74,87,0
0,82,66,0
0,53,87,0
0,42,79,0
0,36,109,0
0,82,0,1
0,42,0,0
0,36,0,0
0,31,0,3
0,53,0,2
0,31,92,0
0,82,78,0
0,82,0,1
0,74,0,3
0,31,0,0
0,31,91,0
0,70,87,0
0,82,65,0
0,55,101,0
0,42,75,0
0,82,0,1
0,42,0,0
0,31,0,5
0,55,0,0
0,36,83,0
0,36,0,1
0,70,0,4
0,31,99,0
0,74,87,0
