track,note,velocity,time
4,34,101,54750
4,34,89,690
4,34,101,80
4,34,104,830
4,34,84,715
4,34,61,140
4,34,97,75
4,32,99,565
4,32,93,640
4,32,100,70
4,32,82,780
4,32,94,150
4,32,84,160
4,32,77,125
4,32,103,70
4,34,102,705
4,34,84,690
4,34,98,80
4,34,104,830
4,34,79,715
4,34,64,140
4,34,102,75
4,32,103,565
4,32,98,640
4,32,100,70
4,44,94,780
4,42,90,5
4,39,84,75
4,37,62,55
4,35,91,45
4,32,96,240
4,30,90,45
4,32,90,65
4,32,92,640
4,32,103,70
4,32,61,455
4,35,81,50
4,32,97,15
4,37,105,35
4,37,65,620
4,37,80,90
4,37,108,130
4,29,83,375
4,30,106,60
4,30,91,625
4,31,104,60
4,32,103,770
4,32,99,605
4,32,88,75
4,39,88,103
4,44,85,40
4,39,91,40
4,32,89,55
4,37,108,80
4,37,90,385
4,39,102,65
4,39,106,145
4,27,109,55
4,32,94,95
4,32,94,460
4,30,99,70
4,30,101,150
4,37,96,65
4,37,73,240
4,39,83,50
4,39,87,90
4,34,93,40
4,27,89,25
4,32,105,115
4,32,57,250
4,30,107,95
4,30,101,105
4,30,95,80
4,35,82,45
4,37,108,20
4,37,89,385
4,39,104,65
4,39,100,145
4,27,104,55
4,32,99,95
4,32,91,460
4,30,96,70
4,30,97,150
4,28,105,65
4,27,101,45
4,32,105,5
4,32,84,185
4,37,90,60
4,32,78,85
4,37,73,65
4,32,90,90
4,39,105,80
4,42,98,0
4,37,109,40
4,37,91,625
4,37,107,75
4,37,112,745
4,37,39,550
4,37,93,110
4,37,104,270
4,30,32,235
4,31,79,35
4,32,101,40
4,32,94,605
4,32,108,90
4,32,104,720
4,32,76,570
4,32,108,90
4,32,81,145
4,32,105,100
4,32,104,220
4,37,107,85
4,37,97,625
4,37,105,75
4,37,111,745
4,37,38,550
4,37,97,110
4,37,105,270
4,30,37,235
4,31,83,35
4,32,97,40
4,32,90,605
4,32,105,90
4,32,108,720
4,32,74,570
4,32,105,90
4,32,79,145
4,32,110,100
4,32,103,220
4,37,109,85
4,37,94,625
4,37,103,75
4,37,106,745
4,44,55,505
4,44,80,110
4,42,90,65
4,39,95,15
4,37,94,10
4,37,100,70
4,35,97,25
4,32,102,70
4,32,92,605
4,32,104,90
4,32,108,720
4,32,74,570
4,32,103,90
4,32,81,145
4,32,106,100
4,32,103,220
4,37,109,85
4,37,96,625
4,37,106,75
4,37,110,745
4,37,34,550
4,37,96,110
4,37,103,270
4,30,34,235
4,31,80,35
4,32,103,40
4,32,90,605
4,32,105,90
4,32,105,720
4,32,69,570
4,32,109,90
4,32,84,145
4,32,109,100
4,32,105,220
4,37,102,85
4,37,95,625
4,37,106,75
4,37,112,745
4,37,34,550
4,37,94,110
4,37,106,270
4,30,30,235
4,31,80,35
4,32,98,40
4,32,93,605
4,32,107,90
4,32,103,720
4,32,75,570
4,32,105,90
4,32,82,145
4,32,110,100
4,32,109,220
4,37,107,85
4,37,92,625
4,37,106,75
4,37,108,745
4,37,38,550
4,37,97,110
4,37,105,270
4,30,33,235
4,31,79,35
4,32,98,40
4,32,90,605
4,32,107,90
4,44,89,720
4,42,84,20
4,39,93,70
4,37,80,40
4,35,90,30
4,32,95,240
4,30,88,0
4,32,99,50
4,34,106,240
4,34,89,690
4,34,98,80
4,34,104,830
4,34,86,715
4,34,66,140
4,34,100,75
4,32,101,565
4,32,95,640
4,32,99,70
4,32,83,780
4,32,91,150
4,32,89,160
4,32,73,125
4,32,96,70
4,34,99,705
4,34,87,690
4,34,97,80
4,34,106,830
4,34,81,715
4,34,63,140
4,34,100,75
4,32,104,565
4,32,97,640
4,32,100,70
4,44,91,780
4,42,85,5
4,39,77,75
4,37,63,55
4,35,86,45
4,32,91,240
4,30,87,45
4,32,92,65
4,32,88,640
4,32,104,70
4,32,61,455
4,35,86,50
4,32,93,15
4,37,104,35
4,37,65,620
4,37,80,90
4,37,109,130
4,29,80,375
4,30,100,60
4,30,91,625
4,31,103,60
4,32,108,770
4,32,100,625
4,32,91,75
4,39,85,25
4,44,84,25
4,39,87,45
4,32,84,55
4,37,106,60
4,37,88,385
4,39,101,65
4,39,99,145
4,27,102,55
4,32,95,95
4,32,94,460
4,30,98,70
4,30,102,150
4,37,97,65
4,37,76,240
4,39,79,50
4,39,91,90
4,34,92,40
4,27,86,25
4,32,100,115
4,32,55,250
4,30,105,95
4,30,105,105
4,30,90,80
4,35,88,45
4,37,105,20
4,37,85,385
4,39,103,65
4,39,99,145
4,27,102,55
4,32,93,95
4,32,97,460
4,30,103,70
4,30,98,150
4,28,107,65
4,27,96,45
4,32,109,5
4,32,83,185
4,37,94,60
4,32,76,85
4,37,73,65
4,32,92,90
4,39,109,80
4,42,98,0
4,37,103,40
4,37,88,385
4,39,101,65
4,39,100,145
4,27,108,55
4,32,96,95
4,32,93,460
4,30,102,70
4,30,103,150
4,37,103,65
4,37,79,240
4,39,79,50
4,39,88,90
4,34,90,40
4,27,91,25
4,32,94,115
4,32,99,105
4,34,91,25
4,34,86,100
4,35,93,20
4,35,84,105
4,37,88,20
4,39,101,20
4,44,105,5
4,37,104,240
4,37,88,385
4,39,102,65
4,39,99,145
4,27,105,55
4,32,97,95
4,32,91,460
4,30,98,70
4,30,100,150
4,28,104,65
4,27,96,45
4,32,110,5
4,32,84,185
4,37,93,60
4,32,75,85
4,37,78,65
4,32,92,90
4,39,107,80
4,42,99,0
4,37,105,40
4,37,85,385
4,39,99,65
4,39,103,145
4,27,109,55
4,32,97,95
4,32,94,460
4,30,100,70
4,30,103,150
4,37,97,65
4,37,74,240
4,39,84,50
4,39,88,90
4,34,90,40
4,27,88,25
4,32,105,115
4,32,55,250
4,30,105,95
4,30,105,105
4,30,92,80
4,35,84,45
4,37,107,20
4,37,87,385
4,39,104,65
4,39,103,145
4,27,109,55
4,32,98,95
4,32,91,460
4,30,98,70
4,30,98,150
4,28,109,65
4,27,101,45
4,32,105,5
4,32,78,185
4,37,91,60
4,32,74,85
4,37,76,65
4,32,92,90
4,39,109,80
4,42,97,0
4,37,106,40
4,37,85,385
4,39,100,65
4,39,106,145
4,27,104,55
4,32,97,95
4,32,97,460
4,30,97,70
4,30,99,150
4,37,99,65
4,37,75,240
4,39,81,50
4,39,94,90
4,34,95,40
4,27,91,25
4,32,100,115
4,32,61,250
4,30,108,95
4,30,105,105
4,30,97,80
4,35,82,45
4,37,108,20
4,37,88,385
4,39,101,65
4,39,100,145
4,27,102,55
4,32,95,95
4,32,94,460
4,30,102,70
4,30,101,150
4,28,106,65
4,27,99,45
4,32,108,5
4,32,84,185
4,37,91,60
4,32,73,85
4,37,77,65
4,32,94,90
4,39,108,80
4,42,95,0
4,32,83,55
5,56,74,4785
5,56,50,30
5,68,55,0
5,63,66,1920
5,65,67,0
5,56,81,30
5,64,77,0
5,73,78,0
5,58,75,25
5,61,75,0
5,70,100,0
5,71,101,10
5,63,80,10
5,73,106,0
5,75,94,10
5,56,92,10
5,68,83,0
5,80,84,0
5,68,82,44380
5,56,84,10
5,60,82,0
5,75,95,0
5,80,98,10
5,52,81,5
5,56,89,0
5,73,81,0
5,80,88,0
5,70,86,10
5,78,86,0
5,73,82,480
5,70,86,5
5,76,82,0
5,71,81,0
5,75,80,0
5,68,109,15
5,71,97,220
5,75,86,240
5,64,75,25
5,68,84,0
5,71,72,0
5,63,74,0
5,67,89,0
5,71,84,0
5,70,90,475
5,63,72,20
5,68,103,0
5,66,93,10
5,68,88,10
5,71,87,240
5,75,86,480
5,56,75,15
5,61,75,0
5,70,91,0
5,73,87,10
5,76,106,10
5,68,78,10
5,71,85,0
5,75,87,0
5,80,102,10
5,82,112,10
5,56,93,5
5,59,87,0
5,83,100,0
5,55,82,10
5,58,99,0
5,85,90,0
5,56,71,10
5,59,87,0
5,87,106,0
5,90,107,10
5,90,93,20
5,88,81,25
5,59,63,960
5,63,62,0
5,68,69,0
5,64,51,15720
5,68,56,0
5,63,57,10
5,68,64,0
5,68,58,20
5,92,58,0
5,56,49,20
5,59,56,0
5,63,67,0
5,66,55,960
5,64,52,25
5,68,55,0
5,63,56,40
5,68,64,0
5,68,59,40
5,92,58,0
5,56,47,20
5,59,59,0
5,63,66,0
5,66,56,960
5,68,82,13475
5,56,87,90
5,60,82,0
5,75,90,0
5,80,99,960
5,52,79,15
5,56,89,0
5,73,85,0
5,80,91,0
5,70,81,5
5,78,86,0
5,73,79,470
5,70,84,10
5,76,82,0
5,71,80,10
5,75,82,0
5,68,104,15
5,71,91,220
5,75,85,240
5,64,75,15
5,68,80,0
5,71,70,0
5,63,74,0
5,67,94,0
5,71,84,0
5,70,91,480
5,63,75,25
5,68,99,0
5,66,94,10
5,68,87,10
5,71,89,240
5,75,83,480
5,56,76,75
5,61,73,0
5,70,97,0
5,73,90,10
5,76,105,10
5,68,82,10
5,71,84,0
5,75,89,0
5,80,107,10
5,82,107,10
5,56,92,10
5,59,89,0
5,68,77,0
5,83,101,0
5,55,76,10
5,58,103,0
5,67,67,0
5,85,90,0
5,56,73,10
5,59,91,0
5,68,76,0
5,87,103,0
5,66,84,10
5,90,103,0
5,66,79,20
5,90,88,0
5,64,73,10
5,88,75,0
5,59,64,5
5,63,60,0
5,68,69,0
5,64,75,240
5,68,85,0
5,71,71,0
5,63,79,0
5,67,92,0
5,71,80,0
5,70,85,475
5,63,76,25
5,68,99,0
5,66,91,5
5,68,87,50
5,71,90,240
5,75,83,480
5,56,81,0
5,61,73,0
5,70,90,0
5,73,94,10
5,76,104,10
5,68,79,10
5,71,90,0
5,75,88,0
5,80,106,10
5,82,111,10
5,56,95,10
5,59,86,0
5,68,78,0
5,83,100,0
5,55,80,10
5,58,99,0
5,67,69,0
5,85,94,0
5,56,70,10
5,59,87,0
5,68,81,0
5,87,101,0
5,66,86,10
5,90,108,0
5,66,77,25
5,90,89,0
5,64,73,10
5,88,75,0
5,59,58,5
5,63,61,0
5,68,71,0
5,64,78,60
5,68,80,0
5,71,74,0
5,63,75,30
5,67,93,0
5,71,80,0
5,70,88,480
5,63,70,25
5,68,97,0
5,66,93,10
5,68,90,10
5,71,91,240
5,75,82,480
5,56,79,20
5,61,74,0
5,70,95,0
5,73,92,10
5,76,104,10
5,68,78,10
5,71,90,0
5,75,90,0
5,80,104,10
5,82,106,10
5,71,77,10
5,80,81,0
5,73,77,10
5,82,73,0
5,75,88,10
5,83,88,0
5,73,92,10
5,82,81,0
5,71,90,10
5,80,88,0
5,70,77,10
5,78,100,0
5,68,78,40
5,78,80,0
5,67,76,10
5,76,84,0
5,71,48,10
5,75,69,0
5,68,49,960
5,64,81,55
5,68,84,0
5,71,71,0
5,63,76,20
5,67,87,0
5,71,77,0
5,70,90,480
5,63,70,25
5,68,103,0
5,66,94,10
5,68,91,10
5,71,84,240
5,75,79,480
5,56,79,5
5,61,78,0
5,70,96,0
5,73,89,10
5,76,102,10
5,68,82,10
5,71,91,0
5,75,84,0
5,80,104,10
5,82,111,10
5,71,74,10
5,80,79,0
5,73,84,10
5,82,71,0
5,75,91,10
5,83,84,0
5,73,91,10
5,82,86,0
5,71,84,10
5,80,92,0
5,70,83,10
5,78,100,0
5,68,77,10
5,78,82,0
5,67,79,10
5,76,88,0
5,71,48,10
5,75,66,0
5,68,51,960
5,59,50,5
5,61,44,0
5,63,51,0
5,66,50,0
6,0,1,1271
6,0,1,2047
6,56,100,20392
6,59,85,10
6,61,87,10
6,59,91,26
6,68,96,156
6,66,90,30
6,68,104,75
6,66,58,10
6,68,103,30
6,66,90,20
6,68,107,0
6,68,97,35
6,68,83,770
6,70,105,20
6,71,106,35
6,70,87,40
6,68,102,25
6,66,89,30
6,68,95,20
6,66,81,15
6,63,97,20
6,56,100,1940
6,59,85,10
6,61,87,10
6,59,91,26
6,68,94,176
6,66,87,20
6,68,102,30
6,66,75,45
6,68,108,5
6,66,83,1
6,68,93,130
6,68,93,52
6,66,83,13
6,68,102,129
6,68,98,65
6,68,96,409
6,70,92,30
6,71,100,5
6,71,85,80
6,70,90,70
6,68,104,5
6,66,80,0
6,68,92,30
6,66,82,240
6,68,101,35
6,66,89,240
6,63,100,115
6,56,100,1925
6,59,85,10
6,61,87,10
6,59,91,26
6,71,106,156
6,70,89,20
6,71,106,55
6,70,94,50
6,71,102,40
6,70,84,25
6,71,85,10
6,73,106,460
6,71,80,25
6,73,100,40
6,71,88,30
6,73,87,25
6,71,86,5
6,75,109,40
6,73,92,15
6,71,83,20
6,56,100,2300
6,59,85,10
6,61,87,10
6,59,91,26
6,73,103,181
6,71,103,15
6,73,102,25
6,71,70,5
6,73,100,50
6,71,95,10
6,73,83,35
6,73,101,480
6,71,91,25
6,73,106,35
6,71,88,25
6,73,101,20
6,71,91,5
6,75,102,10
6,73,95,5
6,71,101,30
6,70,108,5
6,71,106,30
6,73,109,10
6,71,99,15
6,70,90,15
6,70,94,40
6,70,81,55
6,71,108,20
6,73,96,20
6,71,105,30
6,70,87,15
6,71,85,45
6,70,105,15
6,71,106,20
6,73,96,10
6,71,88,35
6,70,88,10
6,70,112,35
6,71,102,70
6,73,100,50
6,71,97,65
6,70,100,35
6,68,106,35
6,70,94,40
6,71,97,30
6,72,112,20
6,73,109,5
6,75,110,10
6,73,102,65
6,72,97,35
6,72,106,445
6,73,98,95
6,75,103,40
6,73,104,25
6,72,102,30
6,73,100,25
6,73,102,15
6,75,109,30
6,76,105,40
6,75,106,40
6,73,112,70
6,73,111,280
6,75,110,70
6,76,108,30
6,75,102,45
6,73,108,30
6,75,103,30
6,75,114,1105
6,73,108,30
6,76,107,15
6,70,100,215
6,71,100,15
6,73,110,40
6,73,100,60
6,73,102,60
6,71,106,345
6,75,103,25
6,68,104,230
6,70,108,30
6,71,108,45
6,71,102,55
6,71,104,60
6,70,90,5
6,73,107,20
6,73,105,65
6,70,101,370
6,70,91,60
6,70,99,65
6,70,93,80
6,70,106,75
6,68,108,160
6,70,106,125
6,68,109,145
6,63,101,20
6,68,109,225
6,68,107,80
6,70,106,30
6,71,110,25
6,75,107,120
6,73,99,20
6,76,103,5
6,76,102,5
6,76,105,60
6,76,106,70
6,76,102,75
6,75,101,25
6,73,96,25
6,71,100,20
6,75,101,10
6,68,104,135
6,70,96,25
6,71,100,25
6,71,108,35
6,70,91,25
6,71,102,30
6,70,88,35
6,71,104,25
6,70,80,25
6,71,94,20
6,70,92,10
6,73,112,25
6,71,101,20
6,70,111,0
6,68,100,20
6,68,91,50
6,56,100,215
6,59,85,10
6,61,87,10
6,59,91,26
6,68,96,156
6,66,90,30
6,68,101,75
6,66,62,10
6,68,97,30
6,66,84,20
6,68,108,0
6,68,96,45
6,68,80,770
6,70,104,20
6,71,107,35
6,70,84,40
6,68,96,25
6,66,90,30
6,68,92,20
6,66,82,15
6,63,90,20
6,56,100,1940
6,59,85,10
6,61,87,10
6,59,91,26
6,68,90,176
6,66,88,15
6,68,102,50
6,66,70,10
6,68,101,35
6,66,76,15
6,68,103,35
6,68,101,58
6,68,88,810
6,70,88,15
6,71,102,25
6,71,92,50
6,70,101,40
6,68,112,25
6,66,74,15
6,68,98,45
6,63,90,15
6,56,100,2615
6,59,85,10
6,61,87,10
6,59,91,26
6,71,103,156
6,70,88,20
6,71,99,55
6,70,90,50
6,71,100,40
6,70,88,30
6,71,90,0
6,73,105,460
6,71,83,25
6,73,105,40
6,71,87,30
6,73,92,25
6,71,85,5
6,75,105,40
6,73,94,15
6,71,81,20
6,56,100,2300
6,59,85,10
6,61,87,10
6,59,91,26
6,73,100,181
6,71,99,15
6,73,104,25
6,71,71,5
6,73,96,50
6,71,90,10
6,73,79,35
6,73,97,480
6,71,88,25
6,73,103,35
6,71,90,25
6,73,105,20
6,71,97,5
6,75,107,120
6,73,96,5
6,71,105,30
6,70,102,5
6,71,105,30
6,73,108,10
6,71,100,15
6,70,95,15
6,70,93,40
6,70,78,55
6,71,106,20
6,73,100,20
6,71,106,30
6,70,87,15
