track,note,velocity,time
0,41,89,0
0,67,64,0
0,72,117,0
0,60,88,5
0,56,45,2
0,63,64,0
0,41,98,16
0,65,100,2
0,68,102,189
0,46,86,3
0,58,56,0
0,72,99,0
0,65,46,8
0,73,91,36
0,67,63,10
0,46,80,6
0,70,67,5
0,68,87,77
0,48,92,64
0,58,45,0
0,67,111,0
0,67,89,0
0,64,26,3
0,65,89,1
0,48,79,1
0,64,73,1
0,48,69,11
0,60,63,2
0,60,86,1
0,41,84,4
0,56,45,0
0,51,45,0
0,65,93,0
0,60,97,2
0,65,87,1
0,65,92,22
0,65,91,18
0,63,90,1
0,53,43,16
0,49,71,0
0,56,76,3
0,60,68,2
0,61,72,1
0,61,91,5
0,61,86,1
0,56,86,7
0,53,92,9
0,46,67,2
0,56,50,0
0,61,71,0
0,61,92,0
0,61,92,17
0,60,90,21
0,53,46,4
0,59,67,1
0,56,78,6
0,43,92,0
0,62,75,0
0,59,92,0
0,55,86,29
0,60,88,59
0,55,49,1
0,58,91,0
0,64,83,0
0,48,74,13
0,60,90,0
0,60,91,21
0,58,89,4
0,60,85,10
0,55,88,6
0,56,51,2
0,41,103,5
0,56,89,7
0,60,89,12
0,60,98,7
0,65,95,4
0,65,91,10
0,63,90,20
0,67,72,2
0,56,92,3
0,46,93,7
0,61,91,0
0,61,49,22
0,65,90,9
0,65,67,83
0,70,81,5
0,68,92,15
0,36,80,4
0,46,86,4
0,60,40,7
0,64,91,3
0,67,91,0
0,67,81,2
0,65,90,13
0,64,91,0
0,60,86,468
0,41,87,1
0,65,64,0
0,72,80,0
0,65,73,0
0,65,93,0
0,65,92,22
0,63,90,18
0,37,83,8
0,61,75,0
0,73,89,2
0,61,91,0
0,61,86,1
0,56,86,15
0,34,96,1
0,56,45,0
0,73,89,0
0,61,92,0
0,61,80,1
0,61,92,17
0,60,90,10
0,59,76,0
0,31,91,2
0,62,85,1
0,71,89,0
0,59,92,0
0,55,86,29
0,67,60,72
0,36,94,1
0,60,64,0
0,60,90,0
0,60,91,21
0,58,89,4
0,56,80,0
0,29,94,6
0,68,94,0
0,56,89,0
0,60,89,12
0,65,91,5
0,72,93,1
0,63,90,6
0,77,76,1
0,34,94,0
0,61,85,0
0,73,89,0
0,61,91,0
0,65,90,9
0,77,75,3
0,70,81,0
0,79,90,1
0,68,92,0
0,80,83,1
0,72,74,16
0,36,92,2
0,64,70,0
0,67,91,0
0,79,62,1
0,65,90,366
0,67,90,0
0,69,90,13
0,60,31,4
0,41,122,0
0,35,107,0
0,49,94,0
0,69,90,0
0,41,90,1
0,38,93,12
0,42,105,0
0,69,93,0
0,65,82,1
0,57,65,6
0,60,74,1
0,42,82,69
0,53,60,51
0,42,117,0
0,48,76,21
0,42,87,0
0,69,98,1
0,41,91,42
0,41,111,1
0,35,111,0
0,42,110,0
0,69,97,0
0,42,80,2
0,53,67,46
0,57,72,5
0,60,75,1
0,65,78,3
0,40,111,7
0,38,93,0
0,42,114,0
0,67,98,0
0,42,79,63
0,38,108,2
0,42,109,0
0,65,97,0
0,35,100,81
0,42,61,0
0,43,73,9
0,36,90,20
0,36,111,1
0,35,105,0
0,42,108,0
0,64,98,0
0,43,73,66
0,42,71,16
0,86,86,43
0,91,92,1
0,88,83,2
0,38,91,3
0,42,104,0
0,67,99,0
0,42,81,69
0,84,76,2
0,84,85,44
0,42,86,3
0,79,86,1
0,81,79,2
0,76,67,7
0,31,97,3
0,42,62,1
0,79,86,43
0,74,84,3
0,76,72,3
0,36,109,1
0,35,110,0
0,42,109,0
0,42,60,70
0,72,71,3
0,38,35,27
0,38,38,4
0,67,72,4
0,38,89,0
0,42,117,0
0,72,53,2
0,42,101,17
0,69,58,3
0,42,95,9
0,67,60,5
0,64,65,9
0,42,100,3
0,31,97,0
0,38,69,1
0,42,71,0
0,62,63,0
0,36,105,5
0,35,107,0
0,42,102,0
0,74,98,0
0,48,66,6
0,42,81,8
0,43,64,2
0,60,78,11
0,38,93,4
0,42,105,0
0,74,97,0
0,42,82,2
0,48,65,7
0,55,65,8
0,42,117,7
0,74,93,0
0,31,97,1
0,42,87,0
0,36,106,10
0,35,111,0
0,42,110,0
0,74,99,0
0,36,76,1
0,42,80,71
0,48,56,4
0,38,103,0
0,38,91,0
0,42,114,0
0,72,98,0
0,42,79,69
0,52,67,5
0,58,59,3
0,40,102,3
0,42,109,0
0,62,66,1
0,70,95,0
0,35,102,80
0,42,61,0
0,60,63,8
0,65,70,1
0,60,34,0
0,41,107,0
0,35,106,0
0,42,108,0
0,69,96,0
0,41,85,1
0,53,64,66
0,42,71,16
0,57,54,1
0,38,93,0
0,42,104,0
0,72,93,0
0,42,81,37
0,68,92,9
0,71,115,3
0,69,85,1
0,42,86,0
0,72,83,0
0,36,97,1
0,42,62,2
0,70,99,6
0,74,117,0
0,68,91,52
0,69,88,1
0,41,103,0
0,35,110,0
0,42,109,0
0,72,98,0
0,65,101,1
0,42,60,53
0,60,89,3
0,38,35,44
0,38,38,4
0,55,98,4
0,38,86,0
0,42,117,0
0,58,98,0
0,42,101,16
0,42,95,13
0,56,109,5
0,57,98,3
0,42,100,1
0,36,91,3
0,42,71,2
0,53,72,0
0,41,104,1
0,35,107,0
0,42,102,0
0,41,80,3
0,42,81,10
0,53,69,3
0,57,58,8
0,38,93,0
0,42,105,0
0,60,70,2
0,72,96,68
0,42,82,1
0,42,117,1
0,72,97,3
0,36,90,22
0,42,87,1
0,72,92,1
0,48,71,1
0,60,55,52
0,41,74,2
0,57,16,0
0,41,111,0
0,35,111,0
0,42,110,0
0,70,95,0
0,65,75,7
0,42,80,42
0,53,63,0
0,65,59,8
0,41,91,0
0,38,91,0
0,42,114,0
0,69,96,0
0,60,57,4
0,42,79,15
0,60,55,14
0,54,76,4
0,42,71,2
0,42,122,0
0,42,109,0
0,66,76,6
0,35,98,21
0,42,61,3
0,59,19,3
0,67,77,1
0,43,117,3
0,35,105,0
0,42,108,0
0,43,76,2
0,62,72,2
0,42,71,82
0,38,93,49
0,42,104,0
0,53,71,11
0,42,81,53
0,74,99,3
0,62,73,36
0,55,68,3
0,67,60,2
0,42,86,0
0,74,99,0
0,65,70,4
0,38,96,5
0,42,62,2
0,74,87,0
0,38,66,7
0,43,117,35
0,35,110,0
0,42,109,0
0,72,95,0
0,31,87,0
0,42,60,71
0,38,35,0
0,43,68,4
0,38,38,0
0,62,62,1
0,59,61,1
0,41,103,2
0,38,86,0
0,42,117,0
0,71,93,0
0,65,71,4
0,67,63,4
0,42,101,17
0,42,95,6
0,43,72,7
0,38,89,3
0,42,100,1
0,42,71,88
0,60,32,9
0,36,109,0
0,35,107,0
0,42,102,0
0,36,93,3
0,48,76,72
0,42,81,7
0,62,72,44
0,58,69,1
0,67,63,0
0,64,71,5
0,38,93,2
0,42,105,0
0,42,82,69
0,76,95,1
0,42,117,1
0,76,98,0
0,48,49,3
0,43,69,26
0,31,92,4
0,42,87,4
0,76,90,2
0,36,87,1
0,36,108,0
0,35,111,0
0,42,110,0
0,74,99,0
0,42,80,70
0,48,71,7
0,38,104,0
0,38,91,0
0,42,114,0
0,62,53,1
0,58,65,2
0,67,29,0
0,64,40,2
0,42,79,69
0,40,108,9
0,42,109,0
0,72,98,0
0,35,99,43
0,42,61,1
0,48,76,7
0,41,86,5
0,57,33,0
0,41,111,0
0,35,106,0
0,42,108,0
0,77,99,0
0,74,78,80
0,67,71,1
0,42,71,1
0,68,65,9
0,38,93,24
0,42,104,0
0,67,72,2
0,72,90,12
0,42,81,1
0,53,37,14
0,65,63,1
0,42,86,58
0,74,97,0
0,62,45,22
0,42,62,17
0,69,96,0
0,60,7,6
0,41,76,0
0,41,122,0
0,35,110,0
0,42,109,0
0,72,99,0
0,62,66,6
0,42,60,70
0,38,38,53
0,60,65,2
0,38,86,2
0,42,117,0
0,42,101,17
0,48,79,24
0,42,95,0
0,53,62,14
0,48,90,0
0,42,100,1
0,48,70,33
0,42,71,39
0,45,70,7
0,48,74,10
0,36,92,0
0,35,107,0
0,43,70,0
0,42,102,0
0,48,69,1
0,36,78,0
0,48,63,17
0,36,69,0
0,48,74,52
0,36,87,0
0,48,69,33
0,36,76,0
0,48,63,15
0,36,64,0
0,48,74,23
0,36,96,0
0,48,69,22
0,36,78,0
0,48,63,21
0,36,69,0
0,48,74,43
0,36,91,0
0,69,90,0
0,48,69,33
0,36,76,0
0,48,63,15
0,36,71,0
0,48,74,1
0,36,93,0
0,67,88,0
0,48,69,22
0,36,74,0
0,48,63,28
0,36,78,0
0,48,74,1
0,36,93,0
0,65,86,0
0,48,69,31
0,36,78,0
0,48,63,15
0,36,78,0
0,36,78,1
0,55,29,0
0,36,111,0
0,35,105,0
0,49,91,0
0,64,98,0
0,58,64,77
0,62,63,1
0,64,58,0
0,67,59,2
0,42,71,2
0,38,91,34
0,42,104,0
0,67,99,0
0,42,81,69
0,48,61,4
0,58,77,60
0,42,86,0
0,62,77,0
0,64,73,0
0,67,73,0
0,31,97,26
0,42,62,1
0,43,71,6
0,36,92,0
0,36,109,0
0,35,110,0
0,42,109,0
0,74,93,0
0,58,96,0
0,42,60,70
0,38,35,45
0,38,38,4
0,58,73,3
0,62,73,1
0,38,89,0
0,42,117,0
0,64,74,1
0,67,70,1
0,42,101,17
0,42,95,29
0,73,44,1
0,57,54,0
0,74,76,35
0,58,75,0
0,42,100,1
0,31,97,3
0,38,69,1
0,42,71,0
0,73,41,7
0,57,45,0
0,36,105,2
0,35,107,0
0,42,102,0
0,74,85,0
0,74,98,0
0,58,85,1
0,36,66,4
0,42,81,8
0,43,64,2
0,60,78,11
0,38,93,4
0,42,105,0
0,74,97,0
0,42,82,49
0,48,65,7
0,55,65,10
0,42,117,7
0,74,93,0
0,31,97,1
0,42,87,0
0,36,106,10
0,35,111,0
0,42,110,0
0,74,99,0
0,36,76,1
0,42,80,71
0,58,59,8
0,52,67,1
0,62,66,2
0,38,103,2
0,38,91,0
0,42,114,0
0,72,98,0
0,42,79,69
0,48,72,6
0,40,102,0
0,42,109,0
0,70,95,0
0,35,102,3
0,42,61,0
0,60,63,9
0,65,70,1
0,57,42,0
0,41,107,0
0,35,106,0
0,42,108,0
0,69,96,0
0,41,85,1
0,68,73,79
0,71,92,3
0,42,71,0
0,69,60,1
0,38,93,0
0,42,104,0
0,72,83,0
0,72,93,0
0,42,81,2
0,70,89,12
0,74,103,0
0,68,76,54
0,69,74,1
0,42,86,0
0,72,89,0
0,65,86,1
0,36,97,51
0,42,62,2
0,62,78,3
0,57,80,5
0,41,103,0
0,35,110,0
0,42,109,0
0,72,65,0
0,57,92,0
0,60,98,0
0,42,60,7
0,56,55,11
0,38,35,44
0,38,38,4
0,57,96,3
0,38,86,0
0,42,117,0
0,42,101,16
0,42,95,29
0,71,44,2
0,56,46,0
0,48,83,0
0,72,65,0
0,57,82,0
0,42,100,1
0,36,91,0
0,42,71,2
0,56,39,3
0,71,35,1
0,41,104,6
0,35,107,0
0,42,102,0
0,72,58,0
0,57,70,0
0,41,80,3
0,71,25,8
0,42,81,1
0,56,27,1
0,53,69,2
0,57,58,1
0,38,93,0
0,42,105,0
0,57,46,0
0,72,44,1
0,60,70,1
0,42,82,65
0,72,96,0
0,42,117,1
0,72,97,4
0,36,90,14
0,42,87,1
0,72,92,1
0,48,71,1
0,60,55,52
0,41,74,2
0,41,111,0
0,35,111,0
0,42,110,0
0,70,95,0
0,65,75,7
0,42,80,70
0,53,63,0
0,65,59,8
0,41,91,0
0,38,91,0
0,42,114,0
0,69,96,0
0,60,57,4
0,42,79,15
0,60,55,14
0,54,76,4
0,42,71,2
0,42,122,0
0,42,109,0
0,50,80,0
0,66,76,6
0,35,98,23
0,42,61,3
0,52,70,1
0,59,20,0
0,67,77,1
0,43,117,3
0,35,105,0
0,42,108,0
0,50,67,0
0,43,76,2
0,62,72,2
0,42,71,82
0,38,93,49
0,42,104,0
0,53,71,11
0,74,99,52
0,42,81,1
0,62,73,36
0,55,68,1
0,67,60,2
0,42,86,1
0,74,99,0
0,65,70,4
0,38,70,5
0,38,96,0
0,42,62,2
0,74,87,1
0,43,117,0
0,35,110,0
0,42,109,0
0,72,95,0
0,31,87,0
0,42,60,71
0,38,35,0
0,43,68,4
0,38,38,0
0,62,62,1
0,59,61,1
0,41,103,2
0,38,86,0
0,42,117,0
0,71,93,0
0,65,71,4
0,67,63,4
0,42,101,17
0,42,95,6
0,43,72,7
0,38,89,3
0,50,81,0
0,42,100,1
0,42,71,48
0,52,70,2
0,64,32,6
0,36,109,0
0,35,107,0
0,42,102,0
0,48,64,0
0,36,93,0
0,48,76,72
0,42,81,7
0,62,72,44
0,58,69,1
0,67,63,0
0,64,71,5
0,38,93,2
0,42,105,0
0,42,82,69
0,76,95,0
0,42,117,2
0,76,98,0
0,48,49,3
0,43,69,26
0,31,92,4
0,42,87,4
0,76,90,2
0,36,87,0
0,36,108,0
0,35,111,0
0,42,110,0
0,74,99,0
0,42,80,70
0,48,71,7
0,38,104,0
0,38,91,0
0,42,114,0
0,62,53,1
0,58,65,2
0,67,29,0
0,64,40,2
0,42,79,69
0,40,108,9
0,42,109,0
0,72,98,0
0,35,99,43
0,42,61,1
0,48,76,7
0,51,85,7
0,41,86,4
0,65,28,0
0,41,111,0
0,35,106,0
0,42,108,0
0,77,99,0
0,74,78,79
0,67,71,1
0,42,71,1
0,68,65,9
0,38,93,24
0,42,104,0
0,67,72,2
0,72,90,12
0,42,81,1
0,53,37,14
0,65,63,1
0,42,86,58
0,74,97,0
0,62,45,22
0,42,62,17
0,69,96,0
0,60,7,6
0,41,76,0
0,41,115,0
0,35,110,0
0,42,109,0
0,72,99,0
0,62,66,6
0,42,60,70
0,38,38,53
0,60,65,2
0,38,86,2
0,42,117,0
0,42,101,17
0,42,95,0
0,53,62,14
0,42,100,1
0,42,71,87
0,48,55,7
0,41,85,8
0,41,111,0
0,35,105,0
0,42,109,0
0,65,98,0
0,42,60,70
0,57,75,4
0,38,90,0
0,42,117,0
0,60,69,0
0,67,95,0
0,65,80,0
0,55,71,1
0,42,101,17
0,42,95,28
0,69,94,3
0,48,56,1
0,42,100,0
0,42,71,46
0,48,72,6
0,41,90,3
0,41,113,0
0,35,105,0
0,42,108,0
0,69,90,0
0,42,71,82
0,38,91,12
0,42,104,0
0,69,93,0
0,48,63,1
0,42,81,69
0,60,64,18
0,42,86,0
0,62,66,0
0,65,62,0
0,42,62,15
0,69,98,2
0,48,67,7
0,41,98,0
0,65,24,0
0,41,120,0
0,35,110,0
0,42,109,0
0,69,24,0
0,69,97,2
0,42,60,5
0,41,95,3
0,38,35,42
0,38,38,4
0,60,82,4
0,40,111,0
0,38,89,0
0,42,117,0
0,65,83,0
0,67,98,0
0,69,82,0
0,42,101,17
0,42,95,29
0,48,79,10
0,38,106,0
0,65,97,0
0,42,100,1
0,38,69,6
0,42,71,0
0,64,26,1
0,36,111,0
0,35,107,0
0,42,102,0
0,67,24,0
0,64,98,0
0,43,73,2
0,42,81,79
0,84,75,3
0,86,86,48
0,91,92,0
0,88,83,2
0,38,93,1
0,42,105,0
0,67,99,0
0,42,82,0
0,91,76,3
0,91,85,44
0,42,117,3
0,86,86,1
0,88,79,2
0,84,67,7
0,31,97,3
0,42,87,0
0,91,86,45
0,86,84,2
0,88,72,3
0,36,109,1
0,35,111,0
0,42,110,0
0,74,93,0
0,58,96,0
0,42,80,71
0,84,71,2
0,86,72,43
0,38,91,0
0,42,114,0
0,91,53,2
0,91,58,20
0,42,79,1
0,73,44,9
0,57,54,0
0,89,60,4
0,88,65,9
0,42,109,2
0,74,76,0
0,58,75,0
0,35,102,2
0,42,61,0
0,31,97,0
0,79,63,2
0,73,41,7
0,57,45,0
0,70,25,2
0,36,105,0
0,35,106,0
0,42,108,0
0,74,85,0
0,74,98,0
0,58,85,1
0,48,66,5
0,91,66,0
0,43,64,10
0,42,71,1
0,60,78,11
0,38,93,4
