track,note,velocity,time
1,26,100,8064
1,26,100,40
1,38,100,24
1,33,100,16
1,36,100,96
1,36,100,48
1,33,100,0
1,36,100,16
1,38,100,8
1,26,100,16
1,26,100,32
1,38,100,24
1,33,100,16
1,36,100,0
1,36,100,40
1,35,100,16
1,33,100,16
1,29,100,16
1,26,100,24
1,26,100,40
1,38,100,24
1,33,100,8
1,36,100,8
1,36,100,40
1,33,100,16
1,36,100,8
1,38,100,8
1,26,100,16
1,26,100,32
1,38,100,40
1,33,100,16
1,36,100,0
1,36,100,48
1,35,100,8
1,33,100,8
1,29,100,16
1,26,100,16
1,26,100,48
1,38,100,24
1,33,100,16
1,36,100,16
1,36,100,56
1,33,100,8
1,36,100,8
1,38,100,8
1,26,100,16
1,26,100,32
1,38,100,24
1,33,100,24
1,36,100,8
1,36,100,48
1,35,100,0
1,33,100,8
1,29,100,16
1,26,100,24
1,26,100,32
1,38,100,24
1,33,100,8
1,36,100,96
1,36,100,48
1,33,100,0
1,36,100,8
1,38,100,8
1,26,100,16
1,26,100,40
1,38,100,24
1,33,100,16
1,36,100,0
1,36,100,56
1,35,100,8
1,33,100,8
1,29,100,16
1,26,100,8
1,26,100,40
1,38,100,24
1,33,100,16
1,36,100,96
1,36,100,48
1,33,100,0
1,36,100,16
1,38,100,8
1,26,100,16
1,26,100,32
1,38,100,24
1,33,100,16
1,36,100,0
1,36,100,40
1,35,100,16
1,33,100,16
1,29,100,16
1,26,100,24
1,26,100,40
1,38,100,24
1,33,100,8
1,36,100,8
1,36,100,40
1,33,100,16
1,36,100,8
1,38,100,8
1,26,100,16
1,26,100,32
1,38,100,40
1,33,100,16
1,36,100,0
1,36,100,48
1,35,100,8
1,33,100,8
1,29,100,16
1,26,100,16
1,26,100,48
1,38,100,24
1,33,100,16
1,36,100,16
1,36,100,56
1,33,100,8
1,36,100,8
1,38,100,8
1,26,100,16
1,26,100,32
1,38,100,24
1,33,100,24
1,36,100,8
1,36,100,48
1,35,100,0
1,33,100,8
1,29,100,16
1,26,100,24
1,26,100,32
1,38,100,24
1,33,100,8
1,36,100,96
1,36,100,48
1,33,100,0
1,36,100,8
1,38,100,8
1,26,100,16
1,26,100,40
1,38,100,24
1,33,100,16
1,36,100,0
1,36,100,56
1,35,100,8
1,33,100,8
1,29,100,16
1,26,100,8
1,26,100,40
1,38,100,24
1,33,100,16
1,36,100,96
1,36,100,48
1,33,100,0
1,36,100,16
1,38,100,8
1,26,100,16
1,26,100,32
1,38,100,24
1,33,100,16
1,36,100,0
1,36,100,40
1,35,100,16
1,33,100,16
1,29,100,16
1,26,100,24
1,26,100,40
1,38,100,24
1,33,100,8
1,36,100,8
1,36,100,40
1,33,100,16
1,36,100,8
1,38,100,8
1,26,100,16
1,26,100,32
1,38,100,40
1,33,100,16
1,36,100,0
1,36,100,48
1,35,100,8
1,33,100,8
1,29,100,16
1,26,100,16
1,26,100,48
1,38,100,24
1,33,100,16
1,36,100,16
1,36,100,56
1,33,100,8
1,36,100,8
1,38,100,8
1,26,100,16
1,26,100,32
1,38,100,24
1,33,100,24
1,36,100,8
1,36,100,48
1,35,100,0
1,33,100,8
1,29,100,16
1,26,100,24
1,26,100,32
1,38,100,24
1,33,100,8
1,36,100,96
1,36,100,48
1,33,100,0
1,36,100,8
1,38,100,8
1,26,100,16
1,26,100,40
1,38,100,24
1,33,100,16
1,36,100,0
1,36,100,56
1,35,100,8
1,33,100,8
1,29,100,16
1,26,100,8
1,26,100,40
1,38,100,24
1,33,100,16
1,36,100,96
1,36,100,48
1,33,100,0
1,36,100,16
1,38,100,8
1,26,100,16
1,26,100,32
1,38,100,24
1,33,100,16
1,36,100,0
1,36,100,40
1,35,100,16
1,33,100,16
1,29,100,16
1,26,100,24
1,26,100,40
1,38,100,24
1,33,100,8
1,36,100,8
1,36,100,40
1,33,100,16
1,36,100,8
1,38,100,8
1,26,100,16
1,26,100,32
1,38,100,40
1,33,100,16
1,36,100,0
1,36,100,48
1,35,100,8
1,33,100,8
1,29,100,16
1,26,100,16
1,26,100,48
1,38,100,24
1,33,100,16
1,36,100,16
1,36,100,56
1,33,100,8
1,36,100,8
1,38,100,8
1,26,100,16
1,26,100,32
1,38,100,24
1,33,100,24
1,36,100,8
1,36,100,48
1,35,100,0
1,33,100,8
1,29,100,16
1,26,100,24
1,26,100,32
1,38,100,24
1,33,100,8
1,36,100,96
1,36,100,48
1,33,100,0
1,36,100,8
1,38,100,8
1,26,100,16
1,26,100,40
1,38,100,24
1,33,100,16
1,36,100,0
1,36,100,56
1,35,100,8
1,33,100,8
1,29,100,16
1,28,100,8
1,28,100,40
1,40,100,24
1,35,100,16
1,38,100,96
1,38,100,48
1,35,100,0
1,38,100,16
1,40,100,8
1,28,100,16
1,28,100,32
1,40,100,24
1,35,100,16
1,38,100,0
1,38,100,40
1,37,100,16
1,35,100,16
1,31,100,16
1,28,100,24
1,28,100,40
1,40,100,24
1,35,100,8
1,38,100,8
1,38,100,40
1,35,100,16
1,38,100,8
1,40,100,8
1,28,100,16
1,28,100,32
1,40,100,40
1,35,100,16
1,38,100,0
1,38,100,48
1,37,100,8
1,35,100,8
1,31,100,16
1,28,100,16
1,28,100,48
1,40,100,24
1,35,100,16
1,38,100,16
1,38,100,56
1,35,100,8
1,38,100,8
1,40,100,8
1,28,100,16
1,28,100,32
1,40,100,24
1,35,100,24
1,38,100,8
1,38,100,48
1,37,100,0
1,35,100,8
1,31,100,16
1,28,100,24
1,28,100,32
1,40,100,24
1,35,100,8
1,38,100,96
1,38,100,48
1,35,100,0
1,38,100,8
1,40,100,8
1,28,100,16
1,28,100,40
1,40,100,24
1,35,100,16
1,38,100,0
1,38,100,56
1,37,100,8
1,35,100,8
1,31,100,16
1,26,100,8
1,26,100,40
1,38,100,24
1,33,100,16
1,36,100,96
1,36,100,48
1,33,100,0
1,36,100,16
1,38,100,8
1,26,100,16
1,26,100,32
1,38,100,24
1,33,100,16
1,36,100,0
1,36,100,40
1,35,100,16
1,33,100,16
1,29,100,16
1,26,100,24
1,26,100,40
1,38,100,24
1,33,100,8
1,36,100,8
1,36,100,40
1,33,100,16
1,36,100,8
1,38,100,8
1,26,100,16
1,26,100,32
1,38,100,40
1,33,100,16
1,36,100,0
1,36,100,48
1,35,100,8
1,33,100,8
1,29,100,16
1,26,100,16
1,26,100,48
1,38,100,24
1,33,100,16
1,36,100,16
1,36,100,56
1,33,100,8
1,36,100,8
1,38,100,8
1,26,100,16
1,26,100,32
1,38,100,24
1,33,100,24
1,36,100,8
1,36,100,48
1,35,100,0
1,33,100,8
1,29,100,16
1,26,100,24
1,26,100,32
1,38,100,24
1,33,100,8
1,36,100,96
1,36,100,48
1,33,100,0
1,36,100,8
1,38,100,8
1,26,100,16
1,26,100,40
1,38,100,24
1,33,100,16
1,36,100,0
1,36,100,56
1,35,100,8
1,33,100,8
1,29,100,16
1,26,100,8
1,26,100,48
1,26,100,40
1,36,100,32
1,33,100,8
1,36,100,16
1,38,100,8
1,26,100,16
1,26,100,32
1,38,100,24
1,33,100,16
1,36,100,0
1,36,100,40
1,35,100,16
1,33,100,16
1,29,100,16
1,26,100,24
1,26,100,40
1,38,100,24
1,33,100,8
1,36,100,8
1,36,100,40
1,33,100,16
1,36,100,8
1,38,100,8
1,26,100,16
1,26,100,32
1,38,100,40
1,33,100,16
1,36,100,0
1,36,100,48
1,35,100,8
1,33,100,8
1,29,100,16
1,26,100,16
1,26,100,48
1,38,100,24
1,33,100,16
1,36,100,16
1,36,100,56
1,33,100,8
1,36,100,8
1,38,100,8
1,26,100,16
1,26,100,32
1,38,100,24
1,33,100,24
1,36,100,8
1,36,100,48
1,35,100,0
1,33,100,8
1,29,100,16
1,26,100,24
1,26,100,32
1,38,100,24
1,33,100,8
1,36,100,96
1,36,100,48
1,33,100,0
1,36,100,8
1,38,100,8
1,26,100,16
1,26,100,40
1,38,100,24
1,33,100,16
1,36,100,0
1,36,100,56
1,35,100,8
1,33,100,8
1,29,100,16
1,26,100,8
1,26,100,40
1,38,100,24
1,33,100,16
1,36,100,96
1,36,100,48
1,33,100,0
1,36,100,16
1,38,100,8
1,26,100,16
1,26,100,32
1,38,100,24
1,33,100,16
1,36,100,0
1,36,100,40
1,35,100,16
1,33,100,16
1,29,100,16
1,26,100,24
1,26,100,40
1,38,100,24
1,33,100,8
1,36,100,8
1,36,100,40
1,33,100,16
1,36,100,8
1,38,100,8
1,26,100,16
1,26,100,32
1,38,100,40
1,33,100,16
1,36,100,0
1,36,100,48
1,35,100,8
1,33,100,8
1,29,100,16
1,26,100,16
1,26,100,48
1,38,100,24
1,33,100,16
1,36,100,16
1,36,100,56
1,33,100,8
1,36,100,8
1,38,100,8
1,26,100,16
1,26,100,32
1,38,100,24
1,33,100,24
1,36,100,8
1,36,100,48
1,35,100,0
1,33,100,8
1,29,100,16
1,26,100,24
1,26,100,32
1,38,100,24
1,33,100,8
1,36,100,96
1,36,100,48
1,33,100,0
1,36,100,8
1,38,100,8
1,26,100,16
1,26,100,40
1,38,100,24
1,33,100,16
1,36,100,0
1,36,100,56
1,35,100,8
1,33,100,8
1,29,100,16
1,28,100,8
1,28,100,40
1,40,100,24
1,35,100,16
1,38,100,96
1,38,100,48
1,35,100,0
1,38,100,16
1,40,100,8
1,28,100,16
1,28,100,32
1,40,100,24
1,35,100,16
1,38,100,0
1,38,100,40
1,37,100,16
1,35,100,16
1,31,100,16
1,28,100,24
1,28,100,40
1,40,100,24
1,35,100,8
1,38,100,8
1,38,100,40
1,35,100,16
1,38,100,8
1,40,100,8
1,28,100,16
1,28,100,32
1,40,100,40
1,35,100,16
1,38,100,0
1,38,100,48
1,37,100,8
1,35,100,8
1,31,100,16
1,28,100,16
1,28,100,48
1,40,100,24
1,35,100,16
1,38,100,16
1,38,100,56
1,35,100,8
1,38,100,8
1,40,100,8
1,28,100,16
1,28,100,32
1,40,100,24
1,35,100,24
1,38,100,8
1,38,100,48
1,37,100,0
1,35,100,8
1,31,100,16
1,28,100,24
1,28,100,32
1,40,100,24
1,35,100,8
1,38,100,96
1,38,100,48
1,35,100,0
1,38,100,8
1,40,100,8
1,28,100,16
1,28,100,40
1,40,100,24
1,35,100,16
1,38,100,0
1,38,100,56
1,37,100,8
1,35,100,8
1,31,100,16
1,26,100,8
1,26,100,120
1,26,100,72
1,26,100,112
1,26,100,72
1,26,100,120
1,26,100,72
1,26,100,104
1,33,100,72
1,33,100,112
1,29,100,64
1,29,100,112
1,26,100,72
1,26,100,112
1,26,100,80
1,26,100,104
1,26,100,72
1,26,100,40
1,38,100,24
1,33,100,16
1,36,100,96
1,36,100,48
1,33,100,0
1,36,100,16
1,38,100,8
1,26,100,16
1,26,100,32
1,38,100,24
1,33,100,16
1,36,100,0
1,36,100,40
1,35,100,16
1,33,100,16
1,29,100,16
1,26,100,24
1,26,100,40
1,38,100,24
1,33,100,8
1,36,100,8
1,36,100,40
1,33,100,16
1,36,100,8
1,38,100,8
1,26,100,16
1,26,100,32
1,38,100,40
1,33,100,16
1,36,100,0
1,36,100,48
1,35,100,8
1,33,100,8
1,29,100,16
1,26,100,16
1,26,100,48
1,38,100,24
1,33,100,16
1,36,100,16
1,36,100,56
1,33,100,8
1,36,100,8
1,38,100,8
1,26,100,16
1,26,100,32
1,38,100,24
1,33,100,24
1,36,100,8
1,36,100,48
1,35,100,0
1,33,100,8
1,29,100,16
1,26,100,24
1,26,100,32
1,38,100,24
1,33,100,8
1,36,100,96
1,36,100,48
1,33,100,0
1,36,100,8
1,38,100,8
1,26,100,16
1,28,100,88
1,29,100,72
1,29,100,72
1,31,100,48
1,32,100,16
1,33,100,16
1,26,100,8
1,26,100,24
1,26,100,40
1,38,100,24
1,33,100,16
1,36,100,96
1,36,100,48
1,33,100,0
1,36,100,16
1,38,100,8
1,26,100,16
1,26,100,32
1,38,100,24
1,33,100,16
1,36,100,0
1,36,100,40
1,35,100,16
1,33,100,16
1,29,100,16
1,26,100,24
1,26,100,40
1,38,100,24
1,33,100,8
1,36,100,8
1,36,100,40
1,33,100,16
1,36,100,8
1,38,100,8
1,26,100,16
1,26,100,32
1,38,100,40
1,33,100,16
1,36,100,0
1,36,100,48
1,35,100,8
1,33,100,8
1,29,100,16
1,26,100,16
1,26,100,48
1,38,100,24
1,33,100,16
1,36,100,16
1,36,100,56
1,33,100,8
1,36,100,8
1,38,100,8
1,26,100,16
1,26,100,32
1,38,100,24
1,33,100,24
1,36,100,8
1,36,100,48
1,35,100,0
1,33,100,8
1,29,100,16
1,26,100,24
1,26,100,32
1,38,100,24
1,33,100,8
1,36,100,96
1,36,100,48
1,33,100,0
1,36,100,8
1,38,100,8
1,26,100,16
1,26,100,40
1,38,100,24
1,33,100,16
1,36,100,0
1,36,100,56
1,35,100,8
1,33,100,8
1,29,100,16
1,26,100,8
2,62,100,8064
2,64,108,2
2,69,104,2
2,65,108,2
2,60,102,72
2,62,106,8
2,67,100,0
2,64,108,4
2,58,102,44
2,65,106,8
2,62,104,6
2,60,106,2
2,60,102,60
2,62,106,4
2,67,102,0
2,64,108,2
2,62,100,48
2,64,102,10
2,65,108,4
2,69,106,2
2,60,104,72
2,67,100,2
2,62,108,2
2,64,110,4
2,58,100,44
2,60,106,12
2,65,102,2
2,62,104,4
2,60,106,52
2,62,104,6
2,67,100,4
2,64,106,2
2,62,102,56
2,64,104,0
2,65,106,0
2,69,98,0
2,60,104,70
2,62,106,8
2,67,98,0
2,64,110,4
2,58,98,48
2,60,104,8
2,65,110,2
2,62,106,2
2,60,100,56
2,62,104,6
2,67,98,4
2,64,108,2
2,62,106,48
2,64,110,6
2,69,102,2
2,65,110,2
2,60,102,70
2,62,110,8
2,64,106,4
2,67,100,2
2,65,108,44
2,58,102,4
2,62,110,6
2,60,104,6
2,60,102,52
2,62,106,8
2,67,102,2
2,64,110,2
2,62,100,56
2,64,108,2
2,69,104,2
2,65,108,2
2,60,102,72
2,62,106,8
2,67,100,0
2,64,108,4
2,58,102,44
2,65,106,8
2,62,104,6
2,60,106,2
2,60,102,60
2,62,106,4
2,67,102,0
2,64,108,2
2,62,100,48
2,64,102,10
2,65,108,4
2,69,106,2
2,60,104,72
2,67,100,2
2,62,108,2
2,64,110,4
2,58,100,44
2,60,106,12
2,65,102,2
2,62,104,4
2,60,106,52
2,62,104,6
2,67,100,4
2,64,106,2
2,62,102,56
2,64,104,0
2,65,106,0
2,69,98,0
2,60,104,70
2,62,106,8
2,67,98,0
2,64,110,4
2,58,98,48
2,60,104,8
2,65,110,2
2,62,106,2
2,60,100,56
2,62,104,6
2,67,98,4
2,64,108,2
2,62,106,48
2,64,110,6
2,69,102,2
2,65,110,2
2,60,102,70
2,62,110,8
2,64,106,4
2,67,100,2
2,65,108,44
2,58,102,4
2,62,110,6
2,60,104,6
2,60,102,52
2,62,106,8
2,67,102,2
2,64,110,2
2,62,100,12344
2,64,108,2
2,69,104,2
2,65,108,2
2,60,102,72
2,62,106,8
2,67,100,0
2,64,108,4
2,58,102,44
2,65,106,8
2,62,104,6
2,60,106,2
2,60,102,60
2,62,106,4
2,67,102,0
2,64,108,2
2,62,100,48
2,64,102,10
2,65,108,4
2,69,106,2
2,60,104,72
2,67,100,2
2,62,108,2
2,64,110,4
2,58,100,44
2,60,106,12
2,65,102,2
2,62,104,4
2,60,106,52
2,62,104,6
2,67,100,4
2,64,106,2
2,60,104,1582
2,62,106,8
2,67,98,0
2,64,110,4
2,58,98,48
2,60,104,8
2,65,110,2
2,62,106,2
2,60,100,56
2,62,104,6
2,67,98,4
2,64,108,2
2,62,106,48
2,64,110,6
2,69,102,2
2,65,110,2
2,60,102,70
2,62,110,8
2,64,106,4
2,67,100,2
2,65,108,44
2,58,102,4
2,62,110,6
2,60,104,6
2,60,102,52
2,62,106,8
2,67,102,2
2,64,110,2
2,62,100,56
2,64,108,2
2,69,104,2
2,65,108,2
2,60,102,72
2,62,106,8
