track,note,velocity,time
0,33,100,288
0,45,70,3
0,45,100,1
0,45,58,6
0,45,70,6
0,33,100,0
0,57,70,3
0,57,70,6
0,45,44,1
0,40,100,0
0,52,70,3
0,52,70,7
0,45,100,0
0,57,70,3
0,57,70,12
0,33,100,0
0,45,70,3
0,45,53,3
0,45,70,6
0,33,100,0
0,57,70,0
0,57,70,0
0,45,31,2
0,40,100,0
0,52,70,3
0,52,70,8
0,69,100,0
0,45,100,0
0,57,70,2
0,57,70,4
0,33,100,0
0,45,70,3
0,45,55,4
0,45,70,2
0,33,100,0
0,57,70,3
0,57,70,6
0,45,40,1
0,40,100,0
0,52,70,2
0,52,70,7
0,45,100,0
0,57,70,3
0,57,70,12
0,33,100,0
0,45,70,3
0,45,55,3
0,45,70,6
0,33,100,0
0,57,70,0
0,57,70,0
0,45,39,2
0,40,100,0
0,52,70,3
0,52,70,8
0,45,100,0
0,57,70,2
0,57,70,10
0,33,100,0
0,45,70,3
0,45,100,0
0,57,100,0
0,60,100,0
0,45,70,2
0,33,100,0
0,57,70,3
0,57,70,13
0,60,100,0
0,64,100,0
0,40,100,0
0,52,70,3
0,52,70,3
0,45,100,0
0,57,70,2
0,57,70,2
0,33,100,0
0,45,70,2
0,45,70,9
0,33,100,0
0,57,70,0
0,57,70,0
0,40,100,0
0,52,70,3
0,52,70,8
0,45,100,0
0,57,70,2
0,57,70,10
0,33,100,0
0,45,70,3
0,45,70,3
0,33,100,0
0,57,70,3
0,57,70,13
0,40,100,0
0,52,70,3
0,52,70,7
0,45,100,0
0,57,70,3
0,57,70,12
0,33,100,0
0,45,70,3
0,45,70,2
0,33,100,0
0,57,70,0
0,57,70,0
0,40,100,0
0,52,70,3
0,59,100,0
0,52,70,2
0,45,100,0
0,57,70,2
0,57,70,8
0,33,100,0
0,45,70,3
0,45,61,4
0,45,70,2
0,33,100,0
0,57,70,2
0,57,70,4
0,45,44,1
0,40,100,0
0,52,70,2
0,52,70,6
0,45,100,0
0,57,70,3
0,57,70,6
0,33,100,0
0,45,70,2
0,88,79,0
0,45,68,2
0,45,70,1
0,33,100,0
0,57,70,0
0,57,70,0
0,45,40,2
0,40,100,0
0,52,70,3
0,52,70,4
0,45,100,0
0,57,70,1
0,57,70,4
0,33,100,0
0,45,70,3
0,45,61,6
0,45,70,4
0,33,100,0
0,57,70,3
0,57,70,1
0,45,44,1
0,40,100,0
0,52,70,3
0,52,70,6
0,45,100,0
0,57,70,3
0,57,70,2
0,33,100,0
0,45,70,3
0,45,68,2
0,45,70,6
0,33,100,0
0,57,70,0
0,57,70,0
0,45,40,2
0,40,100,0
0,52,70,3
0,52,70,8
0,45,100,0
0,57,70,2
0,57,70,2
0,33,100,0
0,45,70,0
0,45,100,0
0,45,61,6
0,45,70,6
0,33,100,0
0,57,70,3
0,57,70,6
0,45,44,1
0,40,100,0
0,52,70,3
0,52,70,7
0,45,100,0
0,57,70,3
0,57,70,12
0,83,80,17
0,33,100,0
0,45,70,3
0,45,68,3
0,45,70,6
0,33,100,0
0,57,70,0
0,57,70,0
0,45,40,2
0,40,100,0
0,52,70,3
0,52,70,8
0,45,100,0
0,57,70,2
0,57,70,10
0,33,100,0
0,45,70,3
0,45,61,6
0,45,70,6
0,33,100,0
0,57,70,3
0,57,70,6
0,45,44,1
0,40,100,0
0,52,70,3
0,52,70,7
0,45,100,0
0,57,70,3
0,57,70,12
0,33,100,0
0,45,70,3
0,45,68,3
0,45,70,6
0,33,100,0
0,57,70,0
0,57,70,0
0,79,80,1
0,45,40,1
0,40,100,0
0,52,70,3
0,52,70,8
0,45,100,0
0,57,70,2
0,57,70,10
0,45,54,1
0,33,100,0
0,45,70,3
0,45,70,3
0,33,100,0
0,57,70,1
0,45,54,3
0,57,70,7
0,40,100,0
0,52,70,3
0,52,70,7
0,45,54,2
0,45,100,0
0,57,70,1
0,57,70,3
0,45,54,0
0,33,100,0
0,45,70,3
0,45,70,7
0,33,100,0
0,57,70,0
0,45,31,1
0,57,70,0
0,40,100,0
0,52,70,3
0,52,70,7
0,45,54,2
0,45,100,0
0,57,70,2
0,57,70,3
0,45,54,1
0,33,100,0
0,45,70,3
0,45,70,1
0,33,100,0
0,57,70,3
0,45,54,7
0,57,70,13
0,40,100,0
0,52,70,3
0,52,70,7
0,45,54,2
0,45,100,0
0,57,70,3
0,57,70,1
0,69,80,0
0,45,54,0
0,33,100,0
0,45,70,3
0,45,70,7
0,33,100,0
0,57,70,0
0,45,31,1
0,57,70,0
0,40,100,0
0,52,70,3
0,52,70,7
0,45,54,1
0,45,100,0
0,57,70,2
0,57,70,10
0,45,68,1
0,33,100,0
0,45,70,3
0,45,100,0
0,45,70,5
0,33,100,0
0,57,70,1
0,45,61,1
0,57,70,7
0,40,100,0
0,52,70,3
0,52,70,7
0,45,54,1
0,45,100,0
0,57,70,3
0,57,70,7
0,45,47,0
0,33,100,0
0,45,70,3
0,45,70,5
0,33,100,0
0,57,70,0
0,45,40,7
0,57,70,0
0,71,100,0
0,40,100,0
0,52,70,3
0,52,70,3
0,45,34,2
0,45,100,0
0,57,70,2
0,57,70,7
0,33,100,0
0,45,70,3
0,45,70,5
0,33,100,0
0,57,70,3
0,57,70,5
0,40,100,0
0,52,70,3
0,52,70,3
0,45,100,0
0,57,70,3
0,57,70,12
0,33,100,0
0,45,70,3
0,45,70,9
0,33,100,0
0,57,70,0
0,57,70,0
0,40,100,0
0,52,70,3
0,52,70,8
0,45,100,0
0,60,100,1
0,57,70,1
0,57,70,3
0,33,100,0
0,45,70,3
0,45,70,12
0,33,100,0
0,60,100,0
0,57,70,1
0,57,70,13
0,40,100,0
0,60,100,0
0,52,70,1
0,52,70,7
0,45,100,0
0,60,100,0
0,57,70,1
0,60,100,0
0,57,70,1
0,33,100,0
0,45,70,3
0,45,70,9
0,33,100,0
0,60,100,0
0,57,70,0
0,57,70,0
0,40,100,0
0,60,100,0
0,52,70,1
0,52,70,8
0,45,100,0
0,60,100,0
0,57,70,1
0,57,70,10
0,33,100,0
0,59,100,0
0,45,70,1
0,45,70,2
0,33,100,0
0,59,100,0
0,57,70,1
0,57,70,6
0,40,100,0
0,59,100,0
0,52,70,1
0,52,70,7
0,45,100,0
0,59,100,0
0,57,70,1
0,59,100,0
0,57,70,1
0,33,100,0
0,45,70,3
0,45,70,1
0,33,100,0
0,59,100,0
0,57,70,0
0,57,70,0
0,40,100,0
0,59,100,0
0,52,70,1
0,52,70,0
0,45,100,0
0,59,100,0
0,57,70,1
0,57,70,3
0,33,100,0
0,33,100,0
0,57,100,0
0,45,70,1
0,45,100,0
0,45,70,12
0,33,100,0
0,57,100,0
0,57,70,1
0,57,70,13
0,40,100,0
0,57,100,0
0,52,70,1
0,52,70,2
0,45,100,0
0,57,100,0
0,57,70,1
0,57,100,0
0,57,70,1
0,33,100,0
0,45,70,3
0,45,70,9
0,33,100,0
0,53,100,0
0,57,70,0
0,57,70,0
0,40,100,0
0,53,100,0
0,52,70,0
0,59,100,0
0,52,70,2
0,45,100,0
0,55,100,0
0,57,70,1
0,53,100,0
0,57,70,1
0,33,100,0
0,45,70,3
0,45,70,12
0,33,100,0
0,52,100,0
0,57,70,1
0,57,70,4
0,40,100,0
0,52,70,3
0,52,70,1
0,45,100,0
0,57,70,3
0,57,70,12
0,45,61,0
0,52,61,0
0,57,61,0
0,33,100,0
0,45,70,3
0,45,70,9
0,33,100,0
0,57,70,0
0,57,70,0
0,40,100,0
0,52,70,3
0,52,70,8
0,45,100,0
0,60,100,1
0,57,70,1
0,57,70,10
0,45,100,0
0,45,68,0
0,57,68,0
0,33,100,0
0,45,70,3
0,45,44,6
0,57,44,0
0,45,70,6
0,45,60,1
0,57,60,0
0,33,100,0
0,60,100,0
0,57,70,1
0,45,48,7
0,57,48,0
0,57,70,6
0,45,68,1
0,57,68,0
0,40,100,0
0,60,100,0
0,52,70,1
0,45,44,1
0,57,44,0
0,52,70,6
0,45,60,1
0,57,60,0
0,45,100,0
0,60,100,0
0,57,70,1
0,45,48,6
0,57,48,0
0,60,100,0
0,57,70,0
0,45,68,0
0,57,68,0
0,33,100,0
0,45,70,3
0,45,44,3
0,57,44,0
0,45,70,6
0,45,60,3
0,57,60,0
0,33,100,0
0,60,100,0
0,57,70,0
0,45,48,8
0,57,48,0
0,57,70,0
0,45,68,2
0,57,68,0
0,40,100,0
0,60,100,0
0,52,70,1
0,45,44,2
0,57,44,0
0,52,70,5
0,45,60,6
0,57,60,0
0,45,100,0
0,60,100,0
0,57,70,0
0,45,48,4
0,57,48,0
0,59,100,0
0,57,70,1
0,45,68,0
0,57,68,0
0,33,100,0
0,45,70,0
0,45,44,6
0,57,44,0
0,45,70,6
0,45,60,12
0,57,60,0
0,33,100,0
0,59,100,0
0,57,70,1
0,45,48,7
0,57,48,0
0,57,70,6
0,45,68,0
0,57,68,0
0,40,100,0
0,59,100,0
0,52,70,1
0,45,44,1
0,57,44,0
0,52,70,6
0,45,60,1
0,57,60,0
0,45,100,0
0,59,100,0
0,57,70,1
0,45,48,1
0,57,48,0
0,59,100,0
0,57,70,1
0,45,68,0
0,57,68,0
0,33,100,0
0,45,70,3
0,45,44,3
0,57,44,0
0,45,70,6
0,45,60,10
0,57,60,0
0,33,100,0
0,59,100,0
0,57,70,0
0,45,48,6
0,57,48,0
0,57,70,0
0,45,68,0
0,57,68,0
0,40,100,0
0,59,100,0
0,52,70,1
0,45,44,2
0,57,44,0
0,52,70,6
0,45,60,1
0,57,60,0
0,45,100,0
0,59,100,0
0,57,70,1
0,45,48,4
0,57,48,0
0,57,100,0
0,57,70,1
0,45,100,0
0,45,68,1
0,57,68,0
0,33,100,0
0,45,70,3
0,45,42,6
0,57,42,0
0,45,70,6
0,45,56,12
0,57,56,0
0,33,100,0
0,57,100,0
0,57,70,1
0,45,42,7
0,57,42,0
0,57,70,6
0,45,60,1
0,57,60,0
0,40,100,0
0,57,100,0
0,52,70,1
0,45,37,1
0,57,37,0
0,52,70,6
0,45,48,1
0,57,48,0
0,45,100,0
0,57,100,0
0,57,70,1
0,45,37,0
0,57,37,0
0,57,100,0
0,57,70,1
0,45,51,0
0,57,51,0
0,33,100,0
0,45,70,3
0,45,30,3
0,57,30,0
0,45,70,6
0,45,40,2
0,57,40,0
0,33,100,0
0,53,100,0
0,57,70,0
0,45,30,12
0,57,30,0
0,57,70,0
0,45,42,2
0,57,42,0
0,40,100,0
0,53,100,0
0,52,70,1
0,45,26,2
0,57,26,0
0,52,70,6
0,45,31,1
0,57,31,0
0,45,100,0
0,55,100,0
0,57,70,1
0,45,25,0
0,57,25,0
0,53,100,0
0,57,70,1
0,45,33,1
0,57,33,0
0,33,100,0
0,45,70,3
0,45,19,6
0,57,19,0
0,45,70,6
0,45,25,11
0,57,25,0
0,33,100,0
0,52,100,0
0,57,70,1
0,45,19,7
0,57,19,0
0,57,70,6
0,45,25,1
0,57,25,0
0,40,100,0
0,52,70,1
0,45,19,1
0,57,19,0
0,52,70,1
0,64,100,0
0,45,19,1
0,57,19,0
0,45,100,0
0,57,70,3
0,64,100,1
0,45,19,6
0,57,19,0
0,57,70,2
0,45,19,0
0,57,19,0
0,33,100,0
0,45,70,3
0,45,70,9
0,33,100,0
0,57,70,0
0,57,70,0
0,40,100,0
0,57,100,1
0,52,70,1
0,45,100,0
0,52,70,8
0,45,100,0
0,60,100,0
0,57,70,1
0,45,64,4
0,57,64,0
0,57,70,3
0,45,64,1
0,57,64,0
0,33,100,0
0,62,100,0
0,45,70,1
0,45,70,3
0,33,100,0
0,57,70,1
0,57,70,5
0,62,100,0
0,40,100,0
0,52,70,3
0,62,100,0
0,52,70,3
0,45,100,0
0,57,70,3
0,57,70,11
0,33,100,0
0,45,70,3
0,45,70,9
0,33,100,0
0,59,100,2
0,57,70,0
0,57,70,0
0,40,100,0
0,59,100,0
0,52,70,1
0,52,70,8
0,45,100,0
0,59,100,0
0,57,70,1
0,59,100,0
0,57,70,1
0,33,100,0
0,45,70,3
0,45,70,3
0,33,100,0
0,57,100,0
0,57,70,1
0,57,70,7
0,40,100,0
0,52,70,1
0,52,70,3
0,69,100,0
0,45,100,0
0,57,70,3
0,57,100,0
0,69,100,0
0,57,70,3
0,33,100,0
0,45,70,3
0,45,70,9
0,33,100,0
0,57,70,0
0,57,70,0
0,40,100,0
0,57,100,2
0,52,70,1
0,52,70,2
0,45,100,0
0,60,100,0
0,57,70,1
0,57,70,10
0,33,100,0
0,62,100,0
0,45,70,1
0,45,70,12
0,33,100,0
0,57,70,1
0,57,70,7
0,40,100,0
0,52,70,3
0,52,70,7
0,62,100,0
0,45,100,0
0,57,70,3
0,62,100,0
0,57,70,7
0,33,100,0
0,45,70,2
0,45,70,6
0,33,100,0
0,59,100,2
0,57,70,0
0,57,70,0
0,40,100,0
0,59,100,0
0,52,70,1
0,52,70,6
0,45,100,0
0,59,100,0
0,57,70,1
0,57,70,8
0,33,100,0
0,59,100,0
0,45,70,0
0,45,70,12
0,33,100,0
0,57,100,0
0,57,70,1
0,57,70,13
0,40,100,0
0,52,70,1
0,52,70,7
0,45,100,0
0,57,70,3
0,57,70,3
0,33,100,0
0,45,70,3
0,45,70,9
0,33,100,0
0,57,70,0
0,57,70,0
0,40,100,0
0,57,100,2
0,52,70,1
0,52,70,8
0,45,100,0
0,60,100,0
0,57,70,1
0,57,70,10
0,33,100,0
0,62,100,0
0,45,70,1
0,45,100,0
0,45,70,12
0,33,100,0
0,57,70,1
0,57,70,13
0,40,100,0
0,52,70,3
0,52,70,7
0,45,100,0
0,57,70,3
0,57,70,3
0,33,100,0
0,45,70,3
0,45,70,9
0,33,100,0
0,59,100,2
0,57,70,0
0,57,70,0
0,40,100,0
0,59,100,0
0,52,70,1
0,62,100,0
0,52,70,3
0,45,100,0
0,59,100,0
0,57,70,1
0,57,70,8
0,33,100,0
0,59,100,0
0,45,70,1
0,45,70,12
0,33,100,0
0,57,100,0
0,57,70,1
0,57,70,13
0,40,100,0
0,52,70,1
0,52,70,4
0,45,100,0
0,57,70,3
0,57,70,12
0,33,100,0
0,45,70,3
0,45,70,9
0,33,100,0
0,57,70,0
0,57,70,0
0,40,100,0
0,57,100,2
0,52,70,1
0,52,70,4
0,45,100,0
0,57,100,0
0,57,70,1
0,55,100,0
0,57,70,1
0,33,100,0
0,45,70,0
0,45,70,4
0,33,100,0
0,57,70,1
0,57,70,13
0,40,100,0
0,52,70,3
0,52,70,7
0,45,100,0
0,57,70,3
0,57,70,2
0,57,100,11
0,33,100,0
0,53,100,2
0,45,70,1
0,57,100,1
0,45,70,9
0,33,100,0
0,53,100,0
0,57,70,0
0,57,70,0
0,40,100,0
0,55,100,0
0,52,70,1
0,52,70,8
0,45,100,0
0,53,100,0
0,57,70,1
0,53,100,0
0,57,70,1
0,33,100,0
0,45,70,3
0,45,70,0
0,33,100,0
0,52,100,0
0,57,70,1
0,57,70,13
0,40,100,0
0,52,70,1
0,52,70,7
0,45,100,0
0,57,70,3
0,57,70,3
0,69,100,1
0,64,110,4
0,69,110,0
0,33,100,0
0,45,70,3
0,64,100,1
0,45,70,7
0,33,100,0
0,65,100,2
0,57,70,0
0,57,70,0
0,40,100,0
0,65,100,0
0,52,70,1
0,52,70,8
0,45,100,0
0,65,100,0
0,57,70,1
0,57,70,1
0,38,74,0
0,50,74,0
0,26,100,0
0,50,74,1
0,57,74,0
0,65,100,0
0,50,70,1
0,38,48,6
0,50,48,0
0,50,70,6
0,38,66,12
0,50,66,0
0,64,100,0
0,57,70,1
0,38,52,7
0,50,52,0
0,57,70,6
0,38,74,1
0,50,74,0
0,26,100,0
0,64,100,0
0,50,70,1
0,38,48,1
0,50,48,0
0,50,70,6
0,38,66,1
0,50,66,0
0,26,100,0
0,62,100,0
0,57,70,1
0,38,52,1
0,50,52,0
0,62,100,0
0,57,70,1
0,38,74,0
0,50,74,0
0,26,100,0
0,50,70,3
0,38,48,3
