track,note,velocity,time
3,91,103,154389
3,83,51,41
3,91,0,17
3,90,100,167
3,83,0,6
3,81,64,107
3,90,0,20
3,88,92,169
3,81,0,5
3,79,77,106
3,88,0,15
3,79,0,160
3,86,105,12
3,78,87,104
3,86,0,15
3,83,83,217
3,78,0,6
3,83,0,114
3,76,34,8
4,45,77,1690
4,45,0,15
4,46,86,11
4,46,0,18
4,47,72,19
4,47,0,90
4,50,101,4
4,50,0,57
4,50,105,36
4,50,0,55
4,50,90,37
4,50,0,55
4,50,99,50
4,47,67,86
4,50,0,19
4,47,0,93
4,40,103,64
4,40,0,277
4,38,86,395
4,38,0,83
4,40,98,13
4,40,0,106
4,40,103,86
4,40,0,162
4,40,105,414
4,40,0,274
4,38,69,398
4,38,0,86
4,40,78,10
4,40,0,125
4,40,103,67
4,40,0,155
4,52,93,133
4,52,0,23
4,36,110,265
4,36,0,210
4,36,97,462
4,36,0,50
4,36,106,46
4,36,0,72
4,36,108,120
4,36,0,97
4,36,107,479
4,36,0,156
4,36,113,612
4,36,0,72
4,40,69,24
4,40,0,92
4,43,72,4
4,43,0,87
4,50,99,9
4,47,78,96
4,50,0,12
4,43,73,84
4,47,0,4
4,40,62,92
4,43,0,15
4,40,0,71
4,45,91,10
4,45,0,55
4,40,103,41
4,40,0,277
4,38,86,395
4,38,0,83
4,40,98,13
4,40,0,106
4,40,103,86
4,40,0,162
4,40,105,414
4,40,0,274
4,38,69,398
4,38,0,86
4,40,78,10
4,40,0,125
4,40,103,67
4,40,0,155
4,52,93,133
4,52,0,23
4,36,110,265
4,36,0,210
4,36,97,462
4,36,0,50
4,36,106,46
4,36,0,72
4,36,108,120
4,36,0,97
4,36,107,479
4,36,0,156
4,36,113,612
4,36,0,72
4,40,69,24
4,40,0,92
4,43,72,4
4,43,0,87
4,50,99,9
4,47,78,96
4,50,0,12
4,43,73,84
4,47,0,4
4,40,62,92
4,43,0,15
4,40,0,71
4,45,91,10
4,45,0,55
4,40,101,41
4,40,0,158
4,40,91,514
4,40,0,218
4,40,55,70
4,40,0,145
4,43,91,431
4,43,0,136
4,31,80,536
4,31,0,241
4,31,71,47
4,31,0,119
4,36,105,457
4,36,0,546
4,36,101,126
4,36,0,273
4,36,98,15
4,36,0,212
4,43,56,172
4,43,0,121
4,38,97,71
4,38,0,546
4,38,90,126
4,38,0,283
4,38,97,5
4,38,0,290
4,40,100,286
4,40,0,390
4,40,102,282
4,40,70,288
4,40,0,12
4,40,0,88
4,38,100,476
4,38,0,455
4,38,102,217
4,38,0,259
4,38,91,29
4,38,0,150
4,50,99,234
4,50,0,65
4,36,94,127
4,36,0,438
4,36,105,234
4,36,0,268
4,36,106,20
4,36,0,186
4,48,84,198
4,48,0,38
4,35,101,154
4,35,0,536
4,35,103,136
4,47,81,288
4,35,0,24
4,47,0,39
4,35,92,129
4,47,85,96
4,35,0,32
4,47,0,80
4,40,99,176
4,40,0,386
4,38,89,190
4,40,105,96
4,38,0,7
4,40,0,238
4,38,80,427
4,38,0,26
4,40,99,166
4,40,0,400
4,40,100,176
4,40,0,473
4,40,88,103
4,40,0,181
4,50,98,11
4,50,0,86
4,40,101,106
4,40,0,158
4,40,91,514
4,40,0,218
4,40,55,70
4,40,0,145
4,43,91,431
4,43,0,136
4,31,100,536
4,31,0,241
4,31,71,47
4,31,0,119
4,36,105,457
4,36,0,546
4,36,101,126
4,36,0,273
4,36,98,15
4,36,0,212
4,43,56,172
4,43,0,121
4,38,97,71
4,38,0,546
4,38,90,126
4,38,0,283
4,38,97,5
4,38,0,290
4,40,100,286
4,40,0,390
4,40,102,282
4,40,70,288
4,40,0,12
4,40,0,88
4,38,100,476
4,38,0,455
4,38,102,217
4,38,0,259
4,38,91,29
4,38,0,150
4,38,89,234
4,38,0,65
4,36,94,127
4,36,0,438
4,36,105,234
4,36,0,268
4,36,106,20
4,36,0,186
4,48,103,198
4,48,0,38
4,35,101,154
4,35,0,536
4,35,103,136
4,47,81,288
4,35,0,24
4,47,0,39
4,35,92,129
4,47,85,96
4,35,0,32
4,47,0,80
4,40,99,176
4,40,0,386
4,38,89,190
4,40,105,96
4,38,0,7
4,40,0,238
4,50,100,427
4,50,0,26
4,40,99,166
4,40,0,400
4,40,100,176
4,40,0,473
4,40,88,103
4,40,0,181
4,38,78,11
4,38,0,86
4,33,100,106
4,33,0,364
4,45,92,20
4,45,0,87
4,33,88,105
4,33,0,61
4,33,95,35
4,33,0,404
4,45,86,76
4,45,0,68
4,33,92,124
4,33,0,149
4,38,89,43
4,38,0,391
4,38,90,185
4,38,0,65
4,38,97,31
4,38,0,434
4,33,86,46
4,33,0,179
4,38,84,13
4,38,0,128
4,40,90,64
4,40,0,430
4,38,75,146
4,38,0,82
4,40,100,14
4,40,0,463
4,47,100,17
4,47,0,67
4,40,73,125
4,40,0,158
4,38,100,34
4,38,0,446
4,38,83,130
4,38,0,74
4,38,70,22
4,38,0,430
4,45,109,50
4,45,0,122
4,38,94,70
4,38,0,185
4,36,100,7
4,36,0,476
4,48,62,100
4,48,0,84
4,36,91,12
4,36,0,596
4,36,70,76
4,36,0,79
4,38,104,113
4,38,0,564
4,50,72,12
4,50,0,26
4,38,91,70
4,38,0,182
4,38,100,10
4,38,0,192
4,38,99,96
4,38,0,181
4,33,97,203
4,33,0,375
4,45,89,9
4,45,0,88
4,33,83,104
4,33,0,27
4,33,85,69
4,33,0,83
4,35,68,589
4,33,58,0
4,35,0,58
4,33,0,31
4,37,78,7
4,38,106,96
4,37,0,16
4,38,0,344
4,33,98,24
4,33,0,96
4,38,90,96
4,38,0,67
4,38,87,29
4,38,0,71
4,35,97,793
4,35,0,447
4,35,88,129
4,35,0,63
4,35,106,33
4,35,0,345
4,35,96,135
4,38,72,192
4,35,0,21
4,39,83,75
4,38,0,24
4,39,0,57
4,40,103,15
4,40,0,398
4,35,88,178
4,35,0,65
4,40,100,31
4,40,0,110
4,40,97,82
4,40,0,117
4,40,55,75
4,40,0,71
4,35,87,25
4,35,0,153
4,52,104,39
4,52,0,51
4,33,97,141
4,33,0,375
4,45,89,9
4,45,0,88
4,33,83,104
4,33,0,27
4,33,85,69
4,33,0,83
4,35,68,589
4,33,58,0
4,35,0,58
4,33,0,31
4,37,78,7
4,38,106,96
4,37,0,16
4,38,0,344
4,33,98,24
4,33,0,96
4,38,90,96
4,38,0,67
4,50,107,29
4,50,0,71
4,35,97,793
4,35,0,447
4,35,88,129
4,35,0,63
4,35,106,33
4,35,0,345
4,35,96,135
4,38,72,192
4,35,0,21
4,39,83,75
4,38,0,24
4,39,0,57
4,40,103,15
4,40,0,398
4,35,88,178
4,35,0,65
4,40,100,31
4,40,0,110
4,40,97,82
4,40,0,117
4,40,55,75
4,40,0,71
4,35,87,25
4,35,0,153
4,52,104,39
4,52,0,51
4,33,97,141
4,33,0,375
4,45,89,9
4,45,0,88
4,33,83,104
4,33,0,27
4,33,85,69
4,33,0,83
4,35,68,589
4,33,58,0
4,35,0,58
4,33,0,31
4,37,78,7
4,38,106,96
4,37,0,16
4,38,0,344
4,33,98,24
4,33,0,96
4,38,90,96
4,38,0,67
4,38,87,29
4,38,0,71
4,35,97,793
4,35,0,447
4,35,88,129
4,35,0,63
4,35,106,33
4,35,0,345
4,35,96,135
4,38,72,192
4,35,0,21
4,39,83,75
4,38,0,24
4,39,0,57
4,40,103,15
4,40,0,398
4,35,88,178
4,35,0,65
4,40,100,31
4,40,0,110
4,40,97,82
4,40,0,117
4,40,55,75
4,40,0,71
4,35,87,25
4,35,0,153
4,52,114,39
4,52,0,51
4,33,97,141
4,33,0,375
4,45,89,9
4,45,0,88
4,33,83,104
4,33,0,27
4,33,85,69
4,33,0,83
4,35,68,589
4,33,58,0
4,35,0,58
4,33,0,31
4,37,78,7
4,38,106,96
4,37,0,16
4,38,0,344
4,33,98,24
4,33,0,96
4,38,90,96
4,38,0,67
4,50,117,29
4,50,0,71
4,35,97,793
4,35,0,447
4,35,88,129
4,35,0,63
4,35,106,33
4,35,0,345
4,35,96,135
4,38,72,192
4,35,0,21
4,39,83,75
4,38,0,24
4,39,0,57
4,40,103,15
4,40,0,398
4,35,88,178
4,35,0,65
4,40,100,31
4,40,0,110
4,40,97,82
4,40,0,117
4,40,55,75
4,40,0,71
4,35,87,25
4,35,0,153
4,52,104,39
4,52,0,51
4,33,100,141
4,33,0,364
4,45,92,20
4,45,0,87
4,33,88,105
4,33,0,61
4,33,95,35
4,33,0,404
4,45,86,76
4,45,0,68
4,33,92,124
4,33,0,149
4,38,89,43
4,38,0,391
4,38,90,185
4,38,0,65
4,38,97,31
4,38,0,434
4,33,86,46
4,33,0,179
4,38,84,13
4,38,0,128
4,40,90,64
4,40,0,430
4,38,75,146
4,38,0,82
4,40,100,14
4,40,0,463
4,47,90,17
4,47,0,101
4,40,73,91
4,40,0,158
4,40,90,34
4,40,0,430
4,38,75,146
4,38,0,82
4,40,100,14
4,40,0,463
4,47,70,17
4,47,0,104
4,40,73,88
4,40,0,158
4,33,100,34
4,33,0,364
4,45,92,20
4,45,0,87
4,33,88,105
4,33,0,61
4,33,95,35
4,33,0,404
4,45,86,76
4,45,0,68
4,33,92,124
4,33,0,149
4,38,89,43
4,38,0,391
4,38,90,185
4,38,0,65
4,38,97,31
4,38,0,434
4,33,86,46
4,33,0,179
4,38,84,13
4,38,0,128
4,40,90,64
4,40,0,430
4,38,75,146
4,38,0,82
4,40,100,14
4,40,0,463
4,47,70,17
4,47,0,104
4,40,73,88
4,40,0,158
4,40,90,34
4,40,0,430
4,38,75,146
4,38,0,82
4,40,100,14
4,40,0,463
4,47,70,17
4,47,0,104
4,40,73,88
4,40,0,158
4,40,101,1570
4,40,0,158
4,40,91,514
4,40,0,218
4,40,55,70
4,40,0,145
4,43,91,431
4,43,0,136
4,31,80,536
4,31,0,241
4,31,71,47
4,31,0,119
4,36,105,457
4,36,0,546
4,36,101,126
4,36,0,273
4,36,98,15
4,36,0,212
4,43,56,172
4,43,0,121
4,38,97,71
4,38,0,546
4,38,90,126
4,38,0,283
4,38,97,5
4,38,0,290
4,40,100,286
4,40,0,390
4,40,102,282
4,40,70,288
4,40,0,12
4,40,0,88
4,38,100,476
4,38,0,455
4,38,102,217
4,38,0,259
4,38,91,29
4,38,0,150
4,38,89,234
4,38,0,65
4,36,94,127
4,36,0,438
4,36,105,234
4,36,0,268
4,36,106,20
4,36,0,186
4,48,104,198
4,48,0,38
4,35,101,154
4,35,0,536
4,35,103,136
4,47,81,288
4,35,0,24
4,47,0,39
4,35,92,129
4,47,85,96
4,35,0,32
4,47,0,80
4,40,99,176
4,40,0,386
4,38,89,190
4,40,105,96
4,38,0,7
4,40,0,238
4,50,110,427
4,50,0,26
4,40,99,166
4,40,0,400
4,40,100,176
4,40,0,473
4,40,88,103
4,40,0,181
4,38,78,11
4,38,0,86
4,33,100,106
4,33,0,364
4,45,102,20
4,45,0,87
4,33,88,105
4,33,0,61
4,33,95,35
4,33,0,404
4,45,106,76
4,45,0,68
4,33,92,124
4,33,0,149
4,38,89,43
4,38,0,391
4,38,90,185
4,38,0,65
4,38,97,31
4,38,0,434
4,33,86,46
4,33,0,179
4,38,84,13
4,38,0,128
4,40,90,64
4,40,0,430
4,38,75,146
4,38,0,82
4,40,100,14
4,40,0,463
4,47,70,17
4,47,0,104
4,40,73,88
4,40,0,158
4,38,100,34
4,38,0,446
4,38,83,130
4,38,0,74
4,38,70,22
4,38,0,430
4,45,59,50
4,45,0,122
4,38,94,70
4,38,0,185
4,36,100,7
4,36,0,476
4,48,62,100
4,48,0,84
4,36,91,12
4,36,0,596
4,36,70,76
4,36,0,79
4,38,104,113
4,38,0,564
4,50,72,12
4,50,0,26
4,38,91,70
4,38,0,182
4,38,100,10
4,38,0,192
4,38,99,96
4,38,0,181
4,33,97,203
4,33,0,375
4,45,89,9
4,45,0,88
4,33,83,104
4,33,0,27
4,33,85,69
4,33,0,83
4,33,58,589
4,35,68,42
4,33,0,15
4,37,78,39
4,35,0,4
4,38,106,92
4,37,0,16
4,38,0,344
4,33,98,24
4,33,0,96
4,38,90,96
4,38,0,67
4,38,87,29
4,38,0,71
4,35,97,793
4,35,0,447
4,35,88,129
4,35,0,63
4,35,106,33
4,35,0,345
4,35,96,135
4,38,72,192
4,35,0,21
4,39,83,75
4,38,0,24
4,39,0,57
4,40,103,15
4,40,0,398
4,35,88,178
4,35,0,65
4,40,100,31
4,40,0,110
4,40,97,82
4,40,0,117
4,40,55,75
4,40,0,71
4,35,87,25
4,35,0,153
4,52,114,39
4,52,0,51
4,33,97,141
4,33,0,375
4,45,89,9
4,45,0,88
4,33,83,104
4,33,0,27
4,33,85,69
4,33,0,83
4,35,68,589
4,33,58,0
4,35,0,58
4,33,0,31
4,37,78,7
4,38,106,96
4,37,0,16
4,38,0,344
4,33,98,24
4,33,0,96
4,38,90,96
4,38,0,67
4,38,87,29
4,38,0,71
4,35,97,793
4,35,0,447
4,35,88,129
4,35,0,63
4,35,106,33
4,35,0,345
4,35,96,135
4,38,72,192
4,35,0,21
4,39,83,75
4,38,0,24
4,39,0,57
4,40,103,15
4,40,0,398
4,35,88,178
4,35,0,65
4,40,100,31
4,40,0,110
4,40,97,82
4,40,0,117
4,40,55,75
4,40,0,71
4,35,87,25
4,35,0,153
4,40,84,39
4,40,0,51
4,33,97,141
4,33,0,375
4,45,89,9
4,45,0,88
4,33,83,104
4,33,0,27
4,33,85,69
4,33,0,83
4,33,58,589
4,33,0,16
4,35,68,32
4,37,78,48
4,35,0,10
4,38,106,86
4,37,0,16
4,38,0,344
4,33,98,24
4,33,0,96
4,38,90,96
4,38,0,67
4,50,117,29
4,50,0,71
4,35,97,793
4,35,0,447
4,35,88,129
4,35,0,63
4,35,106,33
4,35,0,345
4,35,96,135
4,38,72,192
4,35,0,21
4,39,83,75
4,38,0,24
4,39,0,57
4,40,103,15
4,40,0,398
4,35,88,178
4,35,0,65
4,40,100,31
4,40,0,110
4,40,97,82
4,40,0,117
4,40,55,75
4,40,0,71
4,35,87,25
4,35,0,153
4,52,104,39
4,52,0,51
4,33,97,141
4,33,0,375
4,45,89,9
4,45,0,88
4,33,83,104
4,33,0,27
4,33,85,69
4,33,0,83
4,35,68,589
4,33,58,0
4,35,0,58
4,33,0,31
4,37,78,7
4,38,106,96
4,37,0,16
4,38,0,344
4,33,98,24
4,33,0,96
4,38,90,96
4,38,0,67
4,50,107,29
4,50,0,71
4,35,97,793
4,35,0,447
4,35,88,129
4,35,0,63
4,35,106,33
4,35,0,345
4,35,96,135
4,38,72,192
4,35,0,21
4,39,83,75
4,38,0,24
4,39,0,57
4,40,103,15
4,40,0,398
4,35,88,178
4,35,0,65
4,40,100,31
4,40,0,110
4,40,97,82
4,40,0,117
4,40,55,75
4,40,0,71
4,35,87,25
4,35,0,153
4,52,114,39
4,52,0,51
4,33,100,141
4,33,0,364
4,45,92,20
4,45,0,87
4,33,88,105
4,33,0,61
4,33,95,35
4,33,0,404
4,45,86,76
4,45,0,68
4,33,92,124
4,33,0,149
4,38,89,43
4,38,0,391
4,38,90,185
4,38,0,65
4,38,97,31
4,38,0,434
4,33,86,46
4,33,0,179
4,38,84,13
4,38,0,128
4,40,90,64
4,40,0,430
4,38,75,146
4,38,0,82
4,40,100,14
4,40,0,463
4,47,70,17
4,47,0,104
4,40,73,88
4,40,0,158
4,40,90,34
4,40,0,430
4,38,75,146
4,38,0,82
4,40,100,14
4,40,0,463
4,47,70,17
4,47,0,104
4,40,73,88
4,40,0,158
4,33,100,34
4,33,0,364
4,45,92,20
4,45,0,87
4,33,88,105
4,33,0,61
4,33,95,35
4,33,0,404
4,45,86,76
4,45,0,68
4,33,92,124
4,33,0,149
4,38,89,43
4,38,0,391
4,38,90,185
4,38,0,65
4,38,97,31
4,38,0,434
4,33,86,46
4,33,0,179
4,38,84,13
4,38,0,128
4,40,90,64
4,40,0,430
4,38,75,146
