track,note,velocity,time
1,34,96,2944
1,34,0,40
1,39,99,24
1,39,0,7
1,31,98,3
1,31,0,223
1,31,89,97
1,31,0,16
1,31,100,48
1,31,0,253
1,31,95,67
1,31,0,19
1,38,93,45
1,38,0,266
1,36,88,54
1,36,0,15
1,38,100,49
1,38,0,173
1,34,95,19
1,34,0,172
1,31,89,20
1,31,0,229
1,31,95,91
1,31,0,19
1,38,98,45
1,38,0,236
1,31,88,84
1,31,0,19
1,31,91,45
1,31,0,251
1,31,93,69
1,31,0,19
1,38,93,45
1,38,0,170
1,38,96,22
1,38,0,22
1,36,91,42
1,36,0,31
1,34,91,33
1,34,0,55
1,31,86,9
1,31,0,238
1,31,98,82
1,31,0,19
1,38,98,45
1,38,0,244
1,38,91,76
1,38,0,29
1,43,96,35
1,43,0,261
1,29,98,59
1,29,0,24
1,31,95,40
1,31,0,175
1,35,100,17
1,35,0,165
1,36,82,27
1,36,0,244
1,36,82,76
1,36,0,21
1,43,98,43
1,43,0,246
1,34,91,74
1,34,0,29
1,36,96,35
1,36,0,244
1,36,75,76
1,36,0,20
1,43,98,44
1,43,0,127
1,36,82,1
1,36,0,21
1,36,98,43
1,36,0,142
1,38,95,50
1,38,0,230
1,38,82,90
1,38,0,18
1,45,95,46
1,45,0,261
1,45,77,59
1,45,0,22
1,38,96,42
1,38,0,286
1,38,77,34
1,38,0,11
1,40,77,53
1,40,0,158
1,42,98,34
1,42,0,160
1,43,96,32
1,43,0,232
1,38,93,152
1,38,0,224
1,38,86,96
1,38,0,20
1,43,100,44
1,43,0,239
1,38,88,81
1,38,0,13
1,38,91,51
1,38,0,171
1,39,98,21
1,39,0,173
1,41,100,19
1,41,0,245
1,36,88,75
1,36,0,16
1,36,96,48
1,36,0,276
1,36,89,44
1,36,0,21
1,41,98,43
1,41,0,282
1,29,89,38
1,29,0,21
1,31,93,43
1,31,0,189
1,33,98,3
1,33,0,183
1,34,98,9
1,34,0,268
1,33,79,52
1,33,0,16
1,34,98,48
1,34,0,172
1,36,96,20
1,36,0,180
1,38,95,12
1,38,0,272
1,38,91,48
1,38,0,15
1,40,98,49
1,40,0,167
1,42,98,25
1,42,0,171
1,43,98,21
1,43,0,223
1,31,89,97
1,31,0,16
1,31,100,48
1,31,0,253
1,31,95,67
1,31,0,19
1,38,93,45
1,38,0,266
1,36,88,54
1,36,0,15
1,38,100,49
1,38,0,173
1,34,95,19
1,34,0,172
1,31,89,20
1,31,0,229
1,31,95,91
1,31,0,19
1,38,98,45
1,38,0,236
1,31,88,84
1,31,0,19
1,31,91,45
1,31,0,251
1,31,93,69
1,31,0,19
1,38,93,45
1,38,0,170
1,38,96,22
1,38,0,22
1,36,91,42
1,36,0,31
1,34,91,33
1,34,0,55
1,31,86,9
1,31,0,238
1,31,98,82
1,31,0,19
1,38,98,45
1,38,0,244
1,38,91,76
1,38,0,29
1,43,96,35
1,43,0,261
1,29,98,59
1,29,0,24
1,31,95,40
1,31,0,175
1,35,100,17
1,35,0,165
1,36,82,27
1,36,0,244
1,36,82,76
1,36,0,21
1,43,98,43
1,43,0,246
1,34,91,74
1,34,0,29
1,36,96,35
1,36,0,244
1,36,75,76
1,36,0,20
1,43,98,44
1,43,0,127
1,36,82,1
1,36,0,21
1,36,98,43
1,36,0,142
1,38,95,50
1,38,0,230
1,38,82,90
1,38,0,18
1,45,95,46
1,45,0,261
1,45,77,59
1,45,0,22
1,38,96,42
1,38,0,286
1,38,77,34
1,38,0,11
1,40,77,53
1,40,0,158
1,42,98,34
1,42,0,160
1,43,96,32
1,43,0,232
1,38,93,152
1,38,0,224
1,38,86,96
1,38,0,20
1,43,100,44
1,43,0,239
1,38,88,81
1,38,0,13
1,38,91,51
1,38,0,171
1,39,98,21
1,39,0,173
1,41,100,19
1,41,0,245
1,36,88,75
1,36,0,16
1,36,96,48
1,36,0,276
1,36,89,44
1,36,0,21
1,41,98,43
1,41,0,282
1,29,89,38
1,29,0,21
1,31,93,43
1,31,0,189
1,33,98,3
1,33,0,183
1,34,98,9
1,34,0,268
1,33,79,52
1,33,0,16
1,34,98,48
1,34,0,172
1,36,96,20
1,36,0,180
1,38,95,12
1,38,0,272
1,38,91,48
1,38,0,15
1,40,98,49
1,40,0,167
1,42,98,25
1,42,0,171
1,43,104,22
1,43,0,223
1,38,95,96
1,38,0,16
1,38,106,48
1,38,0,253
1,38,101,67
1,38,0,19
1,43,99,45
1,43,0,266
1,43,94,54
1,43,0,15
1,52,72,8
1,52,0,46
1,50,72,12
1,50,0,172
1,45,95,20
1,45,0,229
1,38,101,91
1,38,0,19
1,38,104,45
1,38,0,236
1,38,94,84
1,38,0,19
1,45,97,45
1,45,0,251
1,38,99,69
1,38,0,19
1,38,104,45
1,38,0,236
1,38,94,84
1,38,0,19
1,45,92,45
1,45,0,271
1,33,104,113
1,33,0,244
1,33,97,76
1,33,0,29
1,38,102,35
1,38,0,261
1,38,104,59
1,38,0,24
1,40,101,40
1,40,0,175
1,42,106,17
1,42,0,165
1,43,88,27
1,43,0,308
1,42,101,76
1,42,0,175
1,40,106,17
1,40,0,165
1,38,102,27
1,38,0,244
1,38,81,76
1,38,0,20
1,40,101,44
1,40,0,175
1,42,106,17
1,42,0,165
1,43,104,28
1,43,0,223
1,38,95,96
1,38,0,16
1,38,106,48
1,38,0,253
1,38,101,67
1,38,0,19
1,43,99,45
1,43,0,266
1,43,94,54
1,43,0,15
1,52,88,8
1,52,0,46
1,50,84,12
1,50,0,172
1,45,95,20
1,45,0,229
1,38,101,91
1,38,0,19
1,38,104,45
1,38,0,236
1,38,94,84
1,38,0,19
1,45,97,45
1,45,0,251
1,38,99,69
1,38,0,19
1,38,104,45
1,38,0,236
1,38,94,84
1,38,0,19
1,45,92,45
1,45,0,271
1,33,104,113
1,33,0,244
1,33,97,76
1,33,0,29
1,35,102,35
1,35,0,261
1,33,104,59
1,33,0,24
1,35,101,40
1,35,0,175
1,30,106,17
1,30,0,165
1,28,102,27
1,28,0,261
1,35,104,59
1,35,0,24
1,40,101,40
1,40,0,175
1,40,106,17
1,40,0,18
1,40,106,46
1,40,0,36
1,39,106,28
1,39,0,36
1,38,102,28
1,38,0,244
1,34,86,76
1,34,0,20
1,36,101,44
1,36,0,132
1,38,106,60
1,38,0,132
1,31,88,60
1,31,0,747
1,31,88,21
1,31,0,682
1,31,79,22
1,31,0,23
1,31,98,41
1,31,0,223
1,31,89,97
1,31,0,16
1,31,100,48
1,31,0,253
1,31,95,67
1,31,0,19
1,38,93,45
1,38,0,266
1,36,88,54
1,36,0,15
1,38,100,49
1,38,0,173
1,34,95,19
1,34,0,172
1,31,89,20
1,31,0,229
1,31,95,91
1,31,0,19
1,38,98,45
1,38,0,236
1,31,88,84
1,31,0,19
1,31,91,45
1,31,0,251
1,31,93,69
1,31,0,19
1,38,93,45
1,38,0,170
1,38,96,22
1,38,0,22
1,36,91,42
1,36,0,31
1,34,91,33
1,34,0,55
1,31,86,9
1,31,0,238
1,31,98,82
1,31,0,19
1,38,98,45
1,38,0,244
1,38,91,76
1,38,0,29
1,43,96,35
1,43,0,261
1,29,98,59
1,29,0,24
1,31,95,40
1,31,0,175
1,35,100,17
1,35,0,165
1,36,82,27
1,36,0,244
1,36,82,76
1,36,0,21
1,43,98,43
1,43,0,246
1,34,91,74
1,34,0,29
1,36,96,35
1,36,0,244
1,36,75,76
1,36,0,20
1,43,98,44
1,43,0,127
1,36,82,1
1,36,0,21
1,36,98,43
1,36,0,142
1,38,95,50
1,38,0,230
1,38,82,90
1,38,0,18
1,45,95,46
1,45,0,261
1,45,77,59
1,45,0,22
1,38,96,42
1,38,0,286
1,38,77,34
1,38,0,11
1,40,77,53
1,40,0,158
1,42,98,34
1,42,0,160
1,43,96,32
1,43,0,232
1,38,93,152
1,38,0,224
1,38,86,96
1,38,0,20
1,43,100,44
1,43,0,239
1,38,88,81
1,38,0,13
1,38,91,51
1,38,0,171
1,39,98,21
1,39,0,173
1,41,100,19
1,41,0,245
1,36,88,75
1,36,0,16
1,36,96,48
1,36,0,276
1,36,89,44
1,36,0,21
1,41,98,43
1,41,0,282
1,29,89,38
1,29,0,21
1,31,93,43
1,31,0,189
1,33,98,3
1,33,0,183
1,34,98,9
1,34,0,268
1,33,79,52
1,33,0,16
1,34,98,48
1,34,0,172
1,36,96,20
1,36,0,180
1,38,95,12
1,38,0,272
1,38,91,48
1,38,0,15
1,40,98,49
1,40,0,167
1,42,98,25
1,42,0,171
1,43,104,22
1,43,0,223
1,38,95,96
1,38,0,16
1,38,106,48
1,38,0,253
1,38,101,67
1,38,0,19
1,43,99,45
1,43,0,266
1,43,94,54
1,43,0,15
1,52,72,8
1,52,0,46
1,50,72,12
1,50,0,172
1,45,95,20
1,45,0,229
1,38,101,91
1,38,0,19
1,38,104,45
1,38,0,236
1,38,94,84
1,38,0,19
1,45,97,45
1,45,0,251
1,38,99,69
1,38,0,19
1,38,104,45
1,38,0,236
1,38,94,84
1,38,0,19
1,45,92,45
1,45,0,271
1,33,104,113
1,33,0,244
1,33,97,76
1,33,0,29
1,38,102,35
1,38,0,261
1,38,104,59
1,38,0,24
1,40,101,40
1,40,0,175
1,42,106,17
1,42,0,165
1,43,88,27
1,43,0,308
1,42,101,76
1,42,0,175
1,40,106,17
1,40,0,165
1,38,102,27
1,38,0,244
1,38,81,76
1,38,0,20
1,40,101,44
1,40,0,175
1,42,106,17
1,42,0,165
1,43,104,28
1,43,0,223
1,38,95,96
1,38,0,16
1,38,106,48
1,38,0,253
1,38,101,67
1,38,0,19
1,43,99,45
1,43,0,266
1,43,94,54
1,43,0,15
1,52,88,8
1,52,0,46
1,50,84,12
1,50,0,172
1,45,95,20
1,45,0,229
1,38,101,91
1,38,0,19
1,38,104,45
1,38,0,236
1,38,94,84
1,38,0,19
1,45,97,45
1,45,0,251
1,38,99,69
1,38,0,19
1,38,104,45
1,38,0,236
1,38,94,84
1,38,0,19
1,45,92,45
1,45,0,271
1,33,104,113
1,33,0,244
1,33,97,76
1,33,0,29
1,35,102,35
1,35,0,261
1,33,104,59
1,33,0,24
1,35,101,40
1,35,0,175
1,30,106,17
1,30,0,165
1,28,102,27
1,28,0,261
1,35,104,59
1,35,0,24
1,40,101,40
1,40,0,175
1,40,106,17
1,40,0,18
1,40,106,46
1,40,0,36
1,39,106,28
1,39,0,36
1,38,102,28
1,38,0,244
1,34,86,76
1,34,0,20
1,36,101,44
1,36,0,132
1,38,106,60
1,38,0,132
1,31,88,60
1,31,0,747
1,31,88,21
1,31,0,682
1,31,79,22
1,31,0,23
1,31,98,41
1,31,0,223
1,31,89,97
1,31,0,16
1,31,100,48
1,31,0,253
1,31,95,67
1,31,0,19
1,38,93,45
1,38,0,266
1,36,88,54
1,36,0,15
1,38,100,49
1,38,0,173
1,34,95,19
1,34,0,172
1,31,89,20
1,31,0,229
1,31,95,91
1,31,0,19
1,38,98,45
1,38,0,236
1,31,88,84
1,31,0,19
1,31,91,45
1,31,0,251
1,31,93,69
1,31,0,19
1,38,93,45
1,38,0,170
1,38,96,22
1,38,0,22
1,36,91,42
1,36,0,31
1,34,91,33
1,34,0,55
1,31,86,9
1,31,0,238
1,31,98,82
1,31,0,19
1,38,98,45
1,38,0,244
1,38,91,76
1,38,0,29
1,43,96,35
1,43,0,261
1,29,98,59
1,29,0,24
1,31,95,40
1,31,0,175
1,35,100,17
1,35,0,165
1,36,82,27
1,36,0,244
1,36,82,76
1,36,0,21
1,43,98,43
1,43,0,246
1,34,91,74
1,34,0,29
1,36,96,35
1,36,0,244
1,36,75,76
1,36,0,20
1,43,98,44
1,43,0,127
1,36,82,1
1,36,0,21
1,36,98,43
1,36,0,142
1,38,95,50
1,38,0,230
1,38,82,90
1,38,0,18
1,45,95,46
1,45,0,261
1,45,77,59
1,45,0,22
1,38,96,42
1,38,0,286
1,38,77,34
1,38,0,11
1,40,77,53
1,40,0,158
1,42,98,34
1,42,0,160
1,43,96,32
1,43,0,232
1,38,93,152
1,38,0,224
1,38,86,96
1,38,0,20
1,43,100,44
1,43,0,239
1,38,88,81
1,38,0,13
1,38,91,51
1,38,0,171
1,39,98,21
1,39,0,173
1,41,100,19
1,41,0,245
1,36,88,75
1,36,0,16
1,36,96,48
1,36,0,276
1,36,89,44
1,36,0,21
1,41,98,43
1,41,0,282
1,29,89,38
1,29,0,21
1,31,93,43
1,31,0,189
1,33,98,3
1,33,0,183
1,34,98,9
1,34,0,268
1,33,79,52
1,33,0,16
1,34,98,48
1,34,0,172
1,36,96,20
1,36,0,180
1,38,95,12
1,38,0,272
1,38,91,48
1,38,0,15
1,40,98,49
1,40,0,167
1,42,98,25
1,42,0,171
1,31,85,21
1,31,0,278
1,43,76,42
1,43,0,12
1,43,85,52
1,43,0,278
1,31,76,42
1,31,0,12
1,31,85,52
1,31,0,278
1,43,76,42
1,43,0,12
1,43,85,52
1,43,0,278
1,31,76,42
1,31,0,12
1,31,85,52
1,31,0,278
1,43,76,42
1,43,0,12
1,43,85,52
1,43,0,278
1,31,76,42
1,31,0,12
1,31,85,52
1,31,0,278
1,43,76,42
1,43,0,12
1,43,85,52
1,43,0,278
1,31,76,42
1,31,0,12
1,31,85,52
1,31,0,278
1,43,76,42
1,43,0,12
1,43,85,52
1,43,0,278
1,31,76,42
1,31,0,12
1,31,85,52
1,31,0,278
1,43,76,42
1,43,0,12
1,43,85,52
1,43,0,278
1,31,76,42
1,31,0,12
1,31,85,52
1,31,0,278
1,43,76,42
1,43,0,12
1,43,85,52
1,43,0,278
1,31,76,42
1,31,0,12
1,31,85,52
1,31,0,278
1,43,76,42
1,43,0,12
1,43,85,52
1,43,0,278
1,31,76,42
1,31,0,12
1,31,85,52
1,31,0,278
1,43,76,42
1,43,0,12
1,43,85,52
1,43,0,278
1,31,76,42
1,31,0,12
1,31,85,52
1,31,0,278
1,43,76,42
1,43,0,12
1,43,85,52
1,43,0,278
1,31,76,42
1,31,0,12
1,31,85,52
1,31,0,278
1,43,76,42
1,43,0,12
1,43,85,52
1,43,0,278
1,31,76,42
1,31,0,12
1,31,85,52
1,31,0,278
1,43,76,42
1,43,0,12
1,43,85,52
1,43,0,278
1,31,76,42
1,31,0,12
1,31,85,52
1,31,0,758
2,94,61,13952
2,94,0,91
2,93,61,3
2,93,0,142
2,59,59,12309
2,60,58,20
2,59,0,13
2,62,62,12
2,60,0,13
2,64,62,12
2,62,0,12
2,65,62,10
2,64,0,12
2,67,62,11
2,65,0,13
2,69,63,11
2,67,0,13
2,71,62,13
2,69,0,12
2,72,62,14
2,71,0,13
2,74,61,13
2,72,0,14
2,76,59,15
2,74,0,15
2,77,60,16
2,76,0,17
2,79,60,15
2,77,0,17
2,81,60,15
2,79,0,16
2,83,60,14
2,81,0,15
2,84,62,11
2,83,0,14
2,86,64,11
2,84,0,15
2,88,62,13
2,86,0,14
2,89,62,12
2,88,0,15
2,91,62,12
2,89,0,13
2,93,62,15
2,91,0,12
2,95,59,17
2,93,0,5
2,96,59,18
2,95,0,6
2,95,58,69
2,96,0,8
2,93,60,22
2,95,0,13
2,91,60,15
2,93,0,14
2,89,57,17
2,91,0,16
2,88,55,24
2,89,0,17
2,86,56,19
2,88,0,17
2,84,55,17
2,86,0,15
2,83,55,15
2,84,0,16
2,81,54,18
2,83,0,16
2,79,54,17
2,81,0,16
2,77,55,20
2,79,0,14
2,76,55,19
2,77,0,16
2,74,56,16
2,76,0,15
2,72,59,15
2,74,0,15
2,71,59,17
2,72,0,13
2,69,59,18
2,71,0,13
2,67,60,18
2,69,0,12
2,65,60,17
2,67,0,12
2,64,62,16
2,65,0,13
2,62,63,15
2,64,0,12
2,60,62,17
2,62,0,12
2,59,58,23
2,60,0,13
2,60,61,57
2,59,0,11
2,62,63,9
2,60,0,9
2,64,66,8
2,62,0,10
2,65,65,9
2,64,0,7
2,67,63,12
2,65,0,5
2,69,64,16
2,67,0,7
2,71,62,17
