track,note,velocity,time
2,41,111,3066
2,41,0,240
2,41,84,634
2,41,0,46
2,41,103,36
2,41,0,229
2,41,103,972
2,41,0,160
2,39,108,237
2,39,0,121
2,36,97,109
2,36,0,80
2,41,110,3
2,41,0,240
2,46,110,717
2,46,0,240
2,46,85,640
2,46,0,46
2,46,103,37
2,46,0,229
2,46,84,648
2,46,0,46
2,48,102,34
2,48,0,228
2,48,111,492
2,48,0,69
2,36,95,3
2,36,0,480
2,48,98,0
2,48,0,148
2,36,92,12
2,36,0,65
2,37,119,15
2,37,0,320
2,37,92,560
2,37,0,31
2,37,115,49
2,37,0,880
2,36,115,80
2,36,0,240
2,41,102,1686
2,41,0,240
2,41,77,634
2,41,0,46
2,41,94,36
2,41,0,229
2,41,94,972
2,41,0,160
2,39,101,237
2,39,0,121
2,36,89,119
2,36,0,80
2,41,102,3
2,41,0,160
2,44,100,77
2,44,0,160
2,44,101,320
2,44,0,160
2,34,103,80
2,34,0,320
2,34,76,560
2,34,0,80
2,34,94,3
2,34,0,320
2,36,95,637
2,36,0,320
2,36,100,645
2,36,0,243
2,46,107,232
2,46,0,97
2,44,117,0
2,44,0,200
2,41,106,46
2,41,0,240
2,39,89,634
2,39,0,80
2,41,94,2
2,41,0,229
2,41,94,972
2,41,0,160
2,39,101,237
2,39,0,121
2,36,89,119
2,36,0,80
2,41,102,3
2,41,0,200
2,44,100,37
2,44,0,100
2,44,101,380
2,44,0,180
2,34,103,60
2,34,0,420
2,32,84,460
2,32,0,60
2,34,94,20
2,34,0,320
2,36,95,640
2,36,0,320
2,34,94,560
2,34,0,60
2,36,107,20
2,36,0,205
2,36,107,35
2,36,0,185
2,39,106,55
2,39,0,88
2,36,105,0
2,36,0,200
2,37,114,40
2,37,0,420
2,37,104,460
2,37,0,60
2,37,115,20
2,37,0,440
2,36,115,520
2,36,0,460
2,36,116,260
2,36,0,641
2,48,110,319
2,43,105,160
2,48,0,6
2,43,0,74
2,41,111,0
2,41,0,462
2,39,98,418
2,39,0,62
2,41,114,18
2,41,0,381
2,41,111,339
2,41,0,102
2,39,108,58
2,39,0,80
2,38,117,0
2,38,0,160
2,38,117,80
2,38,0,343
2,38,116,137
2,38,0,800
2,38,121,160
2,38,0,113
2,26,96,47
2,26,0,68
2,37,116,12
2,37,0,386
2,37,77,494
2,37,0,60
2,37,119,20
2,37,0,478
2,34,118,482
2,34,0,697
2,34,100,183
2,34,0,50
2,34,105,30
2,34,0,131
2,34,115,109
2,34,0,408
2,36,116,312
2,36,0,545
2,36,88,335
2,36,0,66
2,36,117,14
2,36,0,485
2,36,116,235
2,36,0,1136
2,41,123,1024
2,41,0,448
2,41,97,432
2,41,0,45
2,41,116,35
2,41,0,440
2,41,117,280
2,41,0,400
2,41,118,80
2,41,0,340
2,39,114,60
2,39,0,140
2,36,115,100
2,36,0,80
2,41,117,0
2,41,0,160
2,41,116,80
2,41,0,160
2,44,114,320
2,44,0,240
2,46,115,0
2,46,0,383
2,46,95,497
2,46,0,40
2,46,122,40
2,46,0,400
2,48,114,320
2,48,0,415
2,48,115,65
2,48,0,297
2,48,110,103
2,48,0,147
2,48,97,93
2,48,0,52
2,48,109,28
2,48,0,240
2,51,108,0
2,51,0,115
2,48,109,0
2,48,0,157
2,46,114,83
2,46,0,111
2,44,114,49
2,41,123,80
2,44,0,2
2,41,0,446
2,41,97,432
2,41,0,45
2,41,116,35
2,41,0,440
2,41,116,280
2,41,0,400
2,41,119,80
2,41,0,340
2,39,115,60
2,39,0,140
2,36,114,100
2,36,0,80
2,41,116,0
2,41,0,160
2,41,117,80
2,41,0,160
2,44,114,320
2,44,0,240
2,34,115,0
2,34,0,383
2,34,95,497
2,34,0,40
2,34,122,40
2,34,0,320
2,34,95,560
2,34,0,80
2,36,118,0
2,36,0,400
2,34,102,480
2,34,0,78
2,36,117,2
2,36,0,152
2,36,115,88
2,36,0,235
2,36,118,165
2,36,0,141
2,34,102,99
2,34,0,80
2,37,115,0
2,37,0,288
2,37,95,592
2,37,0,40
2,37,114,40
2,37,0,320
2,55,110,640
2,53,109,240
2,55,0,5
2,49,116,235
2,53,0,5
2,49,0,211
2,48,117,24
2,48,0,703
2,41,107,497
2,41,0,122
2,53,116,3246
2,51,107,92
2,53,0,8
2,51,0,232
2,41,110,6
2,41,0,240
2,41,78,634
2,41,0,46
2,41,95,36
2,41,0,229
2,41,95,972
2,41,0,160
2,41,100,237
2,41,0,121
2,36,98,119
2,36,0,80
2,41,105,3
2,41,0,160
2,44,101,77
2,44,0,160
2,44,100,320
2,44,0,160
2,34,104,80
2,34,0,320
2,34,79,560
2,34,0,80
2,34,94,3
2,34,0,320
2,36,95,637
2,36,0,320
2,36,101,645
2,36,0,243
2,46,108,232
2,46,0,97
2,44,119,0
2,44,0,200
2,41,108,46
2,41,0,240
2,39,88,634
2,39,0,80
2,41,95,2
2,41,0,229
2,41,95,972
2,41,0,160
2,39,100,237
2,39,0,121
2,36,90,119
2,36,0,80
2,41,105,3
2,41,0,200
2,44,101,37
2,44,0,100
2,44,100,380
2,44,0,180
2,34,104,60
2,34,0,420
2,32,85,460
2,32,0,60
2,34,94,20
2,34,0,320
2,36,95,640
2,36,0,320
2,34,95,560
2,34,0,60
2,36,106,20
2,36,0,205
2,36,107,35
2,36,0,185
2,39,108,55
2,39,0,88
2,36,104,0
2,36,0,200
2,37,115,40
2,37,0,420
2,37,105,460
2,37,0,60
2,37,114,20
2,37,0,440
2,36,114,520
2,36,0,460
2,36,117,260
2,36,0,641
2,48,111,319
2,43,104,160
2,48,0,6
2,43,0,74
2,41,110,0
2,41,0,462
2,39,99,418
2,39,0,62
2,41,114,18
2,41,0,381
2,41,111,339
2,41,0,102
2,39,109,58
2,39,0,80
2,38,116,0
2,38,0,160
2,38,117,80
2,38,0,343
2,38,116,137
2,38,0,800
2,38,120,160
2,38,0,113
2,26,97,47
2,26,0,68
2,37,117,12
2,37,0,386
2,37,76,494
2,37,0,60
2,37,118,20
2,37,0,478
2,34,119,482
2,34,0,697
2,34,101,183
2,34,0,50
2,34,104,30
2,34,0,131
2,34,114,109
2,34,0,408
2,36,117,312
2,36,0,545
2,36,88,335
2,36,0,66
2,36,117,14
2,36,0,485
2,36,117,235
2,36,0,1136
2,41,122,1024
2,41,0,448
2,41,97,432
2,41,0,45
2,41,116,35
2,41,0,440
2,41,116,280
2,41,0,400
2,41,119,80
2,41,0,340
2,39,115,60
2,39,0,140
2,36,114,100
2,36,0,80
2,41,116,0
2,41,0,160
2,41,117,80
2,41,0,160
2,44,115,320
2,44,0,240
2,46,114,0
2,46,0,383
2,46,94,497
2,46,0,40
2,46,123,40
2,46,0,400
2,48,114,320
2,48,0,415
2,48,115,65
2,48,0,297
2,48,111,103
2,48,0,147
2,48,96,93
2,48,0,52
2,48,109,28
2,48,0,240
2,51,108,0
2,51,0,115
2,48,108,0
2,48,0,157
2,46,115,83
2,46,0,111
2,44,115,49
2,41,122,80
2,44,0,2
2,41,0,446
2,41,96,432
2,41,0,45
2,41,117,35
2,41,0,440
2,41,117,280
2,41,0,400
2,41,118,80
2,41,0,340
2,39,114,60
2,39,0,140
2,36,115,100
2,36,0,80
2,41,116,0
2,41,0,160
2,41,117,80
2,41,0,160
2,44,115,320
2,44,0,240
2,46,114,0
2,46,0,383
2,46,95,497
2,46,0,40
2,46,122,40
2,46,0,320
2,48,112,880
2,48,0,270
2,48,117,130
2,48,0,152
2,46,117,88
2,46,0,80
2,48,122,0
2,48,0,320
2,44,118,400
2,44,0,141
2,41,123,99
2,41,0,448
2,41,97,432
2,41,0,45
2,41,116,35
2,41,0,440
2,41,116,280
2,41,0,400
2,41,119,80
2,41,0,340
2,39,114,60
2,39,0,140
2,36,115,100
2,36,0,80
2,41,117,0
2,41,0,160
2,41,116,80
2,41,0,160
2,44,115,320
2,44,0,240
2,46,114,0
2,46,0,383
2,46,94,497
2,46,0,40
2,46,123,40
2,46,0,400
2,48,115,320
2,48,0,415
2,48,114,65
2,48,0,297
2,48,110,103
2,48,0,147
2,48,97,93
2,48,0,52
2,48,109,28
2,48,0,240
2,51,108,0
2,51,0,115
2,48,108,0
2,48,0,157
2,46,115,83
2,46,0,111
2,44,114,49
2,41,123,80
2,44,0,2
2,41,0,446
2,41,97,432
2,41,0,45
2,41,116,35
2,41,0,440
2,41,117,280
2,41,0,400
2,41,118,80
2,41,0,340
2,39,114,60
2,39,0,140
2,36,115,100
2,36,0,80
2,41,117,0
2,41,0,160
2,41,116,80
2,41,0,160
2,44,114,320
2,44,0,240
2,46,115,0
2,46,0,383
2,46,95,497
2,46,0,40
2,46,122,40
2,46,0,320
2,46,104,160
2,46,0,160
2,47,105,80
2,47,0,160
2,48,116,80
2,48,0,107
2,48,117,133
2,48,0,261
2,48,115,139
2,48,0,120
2,46,108,120
2,46,0,55
2,48,111,25
2,48,0,218
2,51,110,22
2,51,0,67
2,48,114,0
2,48,0,217
2,44,107,23
2,44,0,217
2,49,115,23
2,49,0,288
2,49,94,592
2,49,0,40
2,49,114,40
2,49,0,320
2,49,111,320
2,49,0,218
2,53,103,22
2,53,0,80
2,55,110,0
2,55,0,245
2,49,116,155
2,49,0,216
2,48,109,104
2,48,0,445
2,48,92,515
2,48,0,191
2,41,123,49
2,41,0,448
2,41,97,432
2,41,0,45
2,41,116,35
2,41,0,440
2,41,117,280
2,41,0,400
2,41,118,80
2,41,0,340
2,39,114,60
2,39,0,140
2,36,115,100
2,36,0,80
2,41,117,0
2,41,0,160
2,41,116,80
2,41,0,160
2,44,114,320
2,44,0,240
2,46,115,0
2,46,0,383
2,46,95,497
2,46,0,40
2,46,122,40
2,46,0,400
2,48,114,320
2,48,0,415
2,48,115,65
2,48,0,297
2,48,110,103
2,48,0,147
2,46,105,93
2,46,0,52
2,48,109,28
2,48,0,240
2,51,108,0
2,51,0,115
2,48,109,0
2,48,0,157
2,46,114,83
2,46,0,111
2,44,114,49
2,41,123,80
2,44,0,2
2,41,0,446
2,41,97,432
2,41,0,45
2,41,116,35
2,41,0,440
2,41,116,280
2,41,0,400
2,41,119,80
2,41,0,340
2,39,115,60
2,39,0,140
2,36,114,100
2,36,0,80
2,41,116,0
2,41,0,160
2,41,117,80
2,41,0,160
2,44,114,320
2,44,0,240
2,46,115,0
2,46,0,383
2,46,95,497
2,46,0,40
2,46,122,40
2,46,0,320
2,46,103,400
2,46,0,80
2,46,94,80
2,46,0,80
2,48,118,0
2,48,0,160
2,48,119,80
2,48,0,240
2,48,117,160
2,48,0,152
2,46,102,88
2,46,0,78
2,48,116,2
2,48,0,152
2,51,117,88
2,51,0,235
2,48,119,5
2,48,0,141
2,46,120,99
2,46,0,141
2,44,118,19
2,44,0,80
2,37,121,0
2,37,0,288
2,37,94,592
2,37,0,40
2,37,115,40
2,37,0,320
2,41,109,400
2,41,0,202
2,43,116,38
2,43,0,245
2,37,117,155
2,37,0,216
2,36,116,104
2,36,0,703
2,41,84,497
2,41,0,240
2,39,89,640
2,39,0,80
2,41,85,0
2,41,0,320
2,39,72,560
2,39,0,80
2,41,84,0
2,41,0,160
2,41,83,80
2,41,0,157
2,41,79,243
2,41,0,108
2,39,46,132
2,41,74,80
2,39,0,5
2,41,0,103
2,39,75,132
2,39,0,137
2,41,74,103
2,41,0,162
2,41,89,318
2,41,0,320
2,39,75,560
2,41,88,80
2,39,0,17
2,41,0,149
2,39,49,634
2,39,0,90
2,41,86,70
2,41,0,107
2,41,86,133
2,41,0,117
2,39,85,283
2,39,0,82
2,39,55,238
2,39,0,71
2,41,82,89
2,41,0,80
2,44,74,0
2,44,0,136
2,41,95,584
2,41,0,320
3,53,81,2705
3,60,98,0
3,53,0,251
3,60,0,32
3,60,83,77
3,53,73,1
3,53,0,194
3,60,0,0
3,60,74,180
3,53,63,2
3,53,0,216
3,60,0,23
3,53,62,114
3,60,70,1
3,53,0,227
3,60,0,15
3,60,61,110
3,53,61,3
3,53,0,240
3,60,0,11
3,53,62,109
3,60,66,2
3,53,0,267
3,60,0,15
3,60,53,90
3,53,57,1
3,53,0,207
3,60,0,12
3,60,42,125
3,53,46,7
3,60,0,218
3,53,0,10
3,53,33,123
3,60,46,5
3,53,0,208
3,60,0,4
3,60,37,151
3,53,49,1
3,53,0,75
3,60,0,18
3,56,88,23429
3,60,97,40
3,65,114,51
3,56,0,1894
3,60,0,6
3,65,0,32
3,72,31,1930
3,63,30,1
3,68,54,1
3,68,0,138
3,72,0,15
3,63,0,6
3,63,47,69
3,72,59,3
3,68,74,2
3,68,0,138
3,72,0,9
3,63,0,14
3,72,90,71
3,63,71,1
3,68,87,3
3,68,0,157
3,72,0,5
3,63,0,10
3,63,72,64
3,72,92,3
3,68,77,1
3,68,0,129
3,72,0,15
3,63,0,13
3,63,50,78
3,72,79,1
3,68,73,3
3,68,0,127
3,72,0,15
3,63,0,11
3,63,48,84
3,72,63,3
3,68,76,1
3,68,0,122
3,72,0,14
3,63,0,16
3,63,34,84
3,72,51,1
3,68,55,2
3,68,0,130
3,72,0,15
3,63,0,16
3,72,31,76
3,63,25,1
3,68,48,3
3,68,0,130
3,72,0,36
3,63,0,8
3,72,12,60
3,63,11,3
3,68,44,3
3,68,0,79
3,72,0,43
3,63,0,11
3,63,18,102
3,68,28,5
3,72,19,2
3,68,0,111
3,72,0,10
3,63,0,9
3,72,13,106
3,68,20,5
3,68,0,104
3,72,0,40
3,56,87,1193
3,60,89,56
3,65,102,50
3,56,0,1875
3,65,0,5
3,60,0,19
3,53,70,248
3,56,83,249
3,61,76,223
3,56,0,1137
3,53,0,0
3,61,0,18
3,58,81,56
3,60,83,1
3,65,82,8
3,60,0,1283
3,58,0,13
3,65,0,15
3,58,77,112
3,60,84,3
3,65,64,1
3,65,0,49
3,60,0,19
3,58,0,3
3,64,103,169
3,60,87,4
3,58,72,1
3,60,0,419
3,64,0,6
3,58,0,15
3,55,42,33
3,60,55,0
3,64,51,0
3,55,0,182
3,60,0,28
3,64,0,10
3,55,56,20
3,60,72,0
3,64,67,0
3,64,0,180
3,60,0,10
3,55,0,20
3,55,62,30
3,60,81,0
3,64,73,0
3,64,0,210
3,60,0,20
3,55,0,0
3,55,70,10
3,60,87,0
3,64,82,0
3,60,0,132
3,55,0,5
3,64,0,26
3,55,58,317
3,64,81,2
3,60,77,3
3,60,0,420
3,55,0,25
3,63,72,30
3,68,92,0
3,64,0,2
3,72,103,0
3,63,0,205
3,68,0,6
3,72,0,67
3,63,81,117
3,68,86,1
3,75,98,2
3,68,0,71
3,63,0,19
3,75,0,13
3,63,69,217
3,68,80,0
3,72,89,0
3,72,0,140
3,68,0,0
3,63,0,0
3,63,69,20
3,68,88,0
3,72,99,0
3,68,0,78
3,63,0,5
3,72,0,10
3,65,78,227
3,70,84,0
3,65,0,51
3,70,0,36
3,63,57,873
3,65,75,0
3,70,62,0
3,70,0,120
3,65,0,20
3,63,0,0
3,63,64,20
3,65,85,0
3,70,71,0
3,65,0,60
3,70,0,26
3,63,0,7
3,63,62,147
3,65,78,0
3,70,65,0
3,70,0,73
3,63,0,5
3,65,0,7
3,63,68,235
3,65,85,0
3,70,75,0
3,65,0,102
3,63,0,0
3,70,0,15
3,61,86,848
3,65,95,2
3,68,86,21
3,65,0,339
3,61,0,18
3,68,0,3
3,61,80,12
3,65,101,0
3,68,105,2
3,65,0,48
3,68,0,12
3,61,0,4
3,65,92,257
3,61,96,3
3,68,79,1
3,65,0,116
3,61,0,3
3,68,0,21
3,61,75,13
3,65,102,0
3,68,88,0
3,65,0,70
3,68,0,12
3,61,0,19
3,65,73,222
3,61,52,2
3,68,73,1
3,65,0,60
3,61,0,2
3,68,0,7
3,60,83,883
3,67,80,0
3,72,75,0
3,67,0,65
3,60,0,2
3,72,0,10
3,67,80,323
3,72,74,0
3,67,0,65
3,72,0,12
3,60,93,243
3,67,89,0
3,72,116,0
3,60,0,93
3,72,0,22
3,72,104,45
3,67,0,55
3,72,0,10
