track,note,velocity,time
0,43,88,18
0,50,88,13
0,55,88,11
0,55,66,9
0,43,66,0
0,58,66,0
0,62,66,0
0,58,88,0
0,62,88,8
0,67,88,7
0,43,0,23
0,50,0,13
0,55,0,11
0,58,0,9
0,62,0,8
0,67,0,16
0,55,88,6
0,58,88,6
0,62,88,4
0,67,88,6
0,55,0,0
0,58,0,6
0,62,0,4
0,67,0,8
0,58,79,20
0,62,76,6
0,55,79,7
0,58,0,23
0,62,0,6
0,55,0,7
0,55,87,6
0,58,88,6
0,62,86,7
0,55,0,1
0,58,0,6
0,62,0,6
0,58,80,25
0,62,79,6
0,55,78,8
0,58,0,22
0,62,0,6
0,55,0,6
0,55,87,6
0,58,89,5
0,62,89,4
0,67,88,7
0,55,0,84
0,58,0,5
0,62,0,4
0,67,0,7
0,58,78,12
0,62,79,6
0,55,76,6
0,58,0,21
0,62,0,6
0,55,0,4
0,67,78,9
0,58,78,0
0,55,78,0
0,43,78,0
0,63,78,0
0,55,87,3
0,58,89,7
0,63,89,4
0,67,89,6
0,55,86,55
0,58,88,7
0,63,89,3
0,67,87,6
0,55,0,85
0,58,0,7
0,63,0,3
0,67,0,4
0,58,82,13
0,63,79,6
0,55,78,7
0,58,0,23
0,63,0,6
0,55,0,7
0,55,86,6
0,58,88,6
0,63,88,8
0,55,0,10
0,58,0,6
0,63,0,2
0,58,80,20
0,63,76,6
0,55,78,7
0,58,0,23
0,63,0,6
0,55,0,11
0,55,87,6
0,58,88,7
0,63,88,4
0,67,88,5
0,55,0,54
0,58,0,7
0,67,0,3
0,63,0,1
0,63,80,38
0,58,80,6
0,55,77,7
0,63,0,23
0,58,0,6
0,55,0,5
0,55,66,2
0,58,66,0
0,67,66,0
0,43,66,0
0,62,66,0
0,55,87,6
0,58,88,3
0,62,87,5
0,67,87,6
0,55,0,31
0,58,0,3
0,62,0,5
0,67,0,9
0,55,88,6
0,58,88,6
0,62,88,4
0,67,88,6
0,55,0,0
0,58,0,6
0,62,0,4
0,67,0,8
0,58,79,20
0,62,76,6
0,55,79,7
0,58,0,23
0,62,0,6
0,55,0,7
0,55,87,6
0,58,88,6
0,62,86,7
0,55,0,1
0,58,0,6
0,62,0,6
0,58,80,25
0,62,79,6
0,55,78,8
0,58,0,22
0,62,0,6
0,55,0,6
0,55,87,6
0,58,89,5
0,62,89,4
0,67,88,7
0,55,0,84
0,58,0,5
0,62,0,4
0,67,0,7
0,58,78,12
0,62,79,6
0,55,76,6
0,58,0,21
0,62,0,6
0,55,0,4
0,55,78,9
0,63,78,0
0,67,78,0
0,43,78,0
0,58,78,0
0,55,87,3
0,58,89,7
0,63,89,4
0,67,89,6
0,55,86,55
0,58,88,7
0,63,89,3
0,67,87,6
0,55,0,85
0,58,0,7
0,63,0,3
0,67,0,4
0,58,82,13
0,63,79,6
0,55,78,7
0,58,0,23
0,63,0,6
0,55,0,7
0,55,86,6
0,58,88,6
0,63,88,8
0,55,0,10
0,58,0,6
0,63,0,2
0,34,96,20
0,58,80,0
0,42,53,0
0,42,0,4
0,63,76,2
0,55,78,7
0,58,0,23
0,34,0,4
0,63,0,2
0,55,0,11
0,39,99,6
0,55,87,0
0,46,42,0
0,46,0,4
0,58,88,3
0,63,88,4
0,67,88,5
0,55,0,4
0,58,0,4
0,67,0,3
0,63,0,0
0,62,98,3
0,63,80,0
0,58,80,2
0,55,77,1
0,63,0,3
0,58,0,2
0,55,0,5
0,62,0,1
0,31,98,3
0,70,108,0
0,55,87,0
0,35,106,0
0,58,88,3
0,35,0,1
0,62,87,4
0,67,87,6
0,70,0,81
0,55,0,26
0,58,0,3
0,70,110,4
0,62,0,1
0,67,0,9
0,70,0,34
0,70,110,20
0,55,88,0
0,44,81,0
0,44,0,4
0,58,88,2
0,62,88,4
0,67,88,6
0,31,0,15
0,70,0,49
0,55,0,10
0,58,0,6
0,62,0,4
0,67,0,8
0,31,89,20
0,70,106,0
0,58,79,0
0,42,50,0
0,42,0,4
0,62,76,2
0,55,79,7
0,31,0,3
0,58,0,20
0,70,0,4
0,62,0,2
0,55,0,7
0,31,100,6
0,70,108,0
0,55,87,0
0,42,63,0
0,35,106,0
0,35,0,4
0,42,0,0
0,58,88,2
0,62,86,7
0,55,0,78
0,58,0,6
0,62,0,6
0,58,80,25
0,42,45,0
0,42,0,4
0,62,79,2
0,55,78,8
0,58,0,22
0,62,0,6
0,70,0,5
0,55,0,1
0,72,108,16
0,55,87,0
0,42,68,0
0,40,93,0
0,40,0,4
0,42,0,0
0,58,89,1
0,62,89,4
0,67,88,7
0,31,0,45
0,72,0,39
0,55,0,0
0,58,0,5
0,62,0,4
0,67,0,7
0,31,95,12
0,69,107,0
0,58,78,0
0,42,41,0
0,42,0,4
0,62,79,2
0,55,76,6
0,31,0,7
0,58,0,14
0,62,0,6
0,55,0,4
0,38,93,3
0,57,87,0
0,42,58,0
0,35,106,0
0,35,0,4
0,42,0,0
0,60,89,3
0,66,89,4
0,69,89,6
0,69,0,32
0,69,106,1
0,42,41,0
0,42,0,1
0,69,0,28
0,69,108,27
0,57,86,0
0,42,64,0
0,42,0,4
0,60,88,3
0,66,89,3
0,69,87,6
0,69,0,55
0,38,0,3
0,57,0,27
0,60,0,7
0,66,0,3
0,69,0,4
0,36,88,13
0,69,107,0
0,60,82,0
0,42,46,0
0,42,0,4
0,66,79,2
0,57,78,7
0,36,0,2
0,60,0,21
0,66,0,6
0,57,0,7
0,69,0,11
0,38,100,4
0,72,109,0
0,57,86,0
0,35,106,0
0,42,58,0
0,42,0,4
0,35,0,0
0,60,88,2
0,66,88,8
0,57,0,86
0,60,0,6
0,66,0,2
0,66,72,20
0,42,42,0
0,42,0,4
0,60,71,2
0,57,69,7
0,66,0,23
0,60,0,6
0,38,0,3
0,57,0,9
0,72,0,2
0,34,95,8
0,70,110,0
0,57,87,0
0,40,93,0
0,42,72,0
0,42,0,4
0,40,0,0
0,60,88,3
0,66,88,4
0,69,88,5
0,57,0,54
0,60,0,7
0,69,0,3
0,66,0,1
0,70,0,19
0,69,106,28
0,66,80,0
0,42,41,0
0,42,0,4
0,60,80,2
0,57,77,7
0,66,0,23
0,60,0,6
0,34,0,2
0,57,0,10
0,31,89,10
0,55,87,0
0,42,58,0
0,35,106,0
0,58,88,3
0,35,0,1
0,42,0,0
0,62,87,4
0,67,87,6
0,69,0,104
0,55,0,3
0,58,0,3
0,67,105,4
0,42,41,0
0,62,0,1
0,42,0,3
0,67,0,6
0,55,88,54
0,42,64,0
0,42,0,4
0,58,88,2
0,62,88,4
0,67,88,6
0,31,0,21
0,55,0,53
0,58,0,6
0,62,0,4
0,67,0,8
0,31,95,20
0,58,79,0
0,42,46,0
0,42,0,4
0,62,76,2
0,55,79,7
0,31,0,6
0,58,0,17
0,62,0,6
0,55,0,7
0,38,98,15
0,55,87,0
0,35,106,0
0,42,58,0
0,42,0,4
0,35,0,0
0,58,88,2
0,62,86,7
0,55,0,78
0,58,0,6
0,62,0,6
0,58,75,25
0,42,42,0
0,42,0,4
0,62,72,2
0,55,70,8
0,58,0,22
0,62,0,6
0,55,0,6
0,55,87,16
0,42,72,0
0,40,93,0
0,40,0,4
0,42,0,0
0,58,89,1
0,62,89,4
0,67,88,7
0,38,0,28
0,55,0,56
0,58,0,5
0,62,0,4
0,67,0,7
0,31,88,12
0,58,73,0
0,42,41,0
0,42,0,4
0,62,75,2
0,55,71,6
0,31,0,7
0,58,0,14
0,62,0,6
0,55,0,4
0,31,91,21
0,55,87,0
0,35,106,0
0,42,58,0
0,58,88,3
0,42,0,1
0,35,0,0
0,63,87,4
0,67,87,6
0,67,0,1
0,55,0,106
0,58,0,3
0,42,41,4
0,63,0,1
0,42,0,3
0,67,0,6
0,55,88,54
0,42,64,0
0,42,0,4
0,58,88,2
0,63,88,4
0,67,88,6
0,31,0,43
0,55,0,31
0,58,0,6
0,63,0,4
0,67,0,8
0,31,93,20
0,58,79,0
0,42,46,0
0,42,0,4
0,63,76,2
0,55,79,7
0,31,0,6
0,58,0,17
0,63,0,6
0,55,0,7
0,38,93,15
0,55,87,0
0,42,58,0
0,35,106,0
0,35,0,4
0,42,0,0
0,58,88,2
0,63,86,7
0,55,0,78
0,58,0,6
0,63,0,6
0,58,74,25
0,42,42,0
0,42,0,4
0,63,73,2
0,55,71,8
0,58,0,22
0,38,0,6
0,63,0,0
0,55,0,6
0,38,96,16
0,55,87,0
0,40,93,0
0,42,72,0
0,42,0,4
0,40,0,0
0,58,89,1
0,63,89,4
0,67,88,7
0,38,0,6
0,36,91,42
0,36,0,31
0,55,0,5
0,58,0,5
0,63,0,4
0,67,0,7
0,34,91,12
0,62,102,0
0,58,75,0
0,42,41,0
0,35,71,0
0,35,0,4
0,42,0,0
0,63,71,2
0,55,70,6
0,58,0,21
0,63,0,6
0,55,0,4
0,62,0,7
0,34,0,5
0,31,86,9
0,67,107,0
0,55,87,0
0,42,58,0
0,35,106,0
0,58,88,3
0,35,0,1
0,42,0,0
0,62,87,4
0,67,87,6
0,67,0,81
0,55,0,26
0,58,0,3
0,67,105,4
0,42,41,0
0,62,0,1
0,42,0,3
0,67,0,6
0,67,0,36
0,67,106,18
0,55,88,0
0,42,64,0
0,42,0,4
0,58,88,2
0,62,88,4
0,67,88,6
0,31,0,30
0,67,0,33
0,55,0,11
0,58,0,6
0,62,0,4
0,67,0,8
0,31,98,20
0,67,107,0
0,58,79,0
0,42,46,0
0,42,0,4
0,62,76,2
0,55,79,7
0,31,0,6
0,58,0,17
0,62,0,6
0,67,0,2
0,55,0,5
0,38,98,15
0,67,104,0
0,55,87,0
0,42,58,0
0,35,106,0
0,35,0,4
0,42,0,0
0,58,88,2
0,62,86,7
0,55,0,78
0,58,0,6
0,62,0,6
0,58,80,25
0,42,42,0
0,42,0,4
0,62,79,2
0,55,78,8
0,58,0,22
0,62,0,6
0,55,0,6
0,67,0,14
0,68,108,2
0,55,87,0
0,42,72,0
0,40,93,0
0,40,0,4
0,42,0,0
0,58,89,1
0,62,89,4
0,67,88,7
0,38,0,36
0,55,0,48
0,58,0,5
0,62,0,4
0,67,0,7
0,68,0,6
0,38,91,6
0,65,100,0
0,58,78,0
0,42,41,0
0,42,0,4
0,62,79,2
0,55,76,6
0,38,0,17
0,58,0,4
0,62,0,6
0,55,0,4
0,43,96,3
0,53,87,0
0,42,58,0
0,35,106,0
0,35,0,4
0,42,0,0
0,59,89,3
0,62,89,4
0,67,89,6
0,65,0,14
0,65,104,1
0,42,41,0
0,42,0,1
0,65,0,36
0,65,106,19
0,53,86,0
0,42,64,0
0,42,0,4
0,59,88,3
0,62,89,3
0,67,87,6
0,65,0,49
0,43,0,4
0,53,0,32
0,59,0,7
0,62,0,3
0,67,0,4
0,29,98,13
0,65,102,0
0,59,82,0
0,42,46,0
0,42,0,4
0,62,79,2
0,53,78,7
0,29,0,11
0,59,0,12
0,62,0,6
0,53,0,7
0,65,0,14
0,31,95,1
0,68,108,0
0,53,86,0
0,35,106,0
0,42,58,0
0,42,0,4
0,35,0,0
0,59,88,2
0,62,88,8
0,53,0,86
0,59,0,6
0,62,0,2
0,62,72,20
0,42,42,0
0,42,0,4
0,59,71,2
0,53,69,7
0,62,0,23
0,59,0,6
0,31,0,5
0,53,0,7
0,68,0,1
0,35,100,9
0,67,106,0
0,53,87,0
0,42,72,0
0,40,93,0
0,40,0,4
0,42,0,0
0,59,88,3
0,62,88,4
0,67,88,5
0,53,0,54
0,59,0,7
0,67,0,3
0,62,0,1
0,67,0,42
0,65,106,5
0,62,80,0
0,42,41,0
0,42,0,4
0,59,80,2
0,53,77,7
0,62,0,23
0,35,0,1
0,59,0,5
0,53,0,12
0,36,82,10
0,55,87,0
0,42,58,0
0,35,106,0
0,60,88,3
0,35,0,1
0,42,0,0
0,63,87,4
0,67,87,6
0,55,0,107
0,60,0,3
0,65,0,3
0,63,105,1
0,42,41,0
0,63,0,1
0,42,0,3
0,67,0,6
0,55,88,54
0,42,64,0
0,42,0,4
0,60,88,2
0,63,88,4
0,67,88,6
0,36,0,36
0,55,0,38
0,60,0,6
0,63,0,4
0,67,0,8
0,36,82,20
0,60,79,0
0,42,46,0
0,42,0,4
0,63,76,2
0,55,79,7
0,36,0,8
0,60,0,15
0,63,0,6
0,55,0,7
0,43,98,15
0,55,87,0
0,35,106,0
0,42,58,0
0,42,0,4
0,35,0,0
0,60,88,2
0,63,86,7
0,55,0,78
0,60,0,6
0,63,0,6
0,60,74,25
0,42,42,0
0,42,0,4
0,63,73,2
0,55,71,8
0,60,0,22
0,63,0,6
0,55,0,6
0,55,87,16
0,40,93,0
0,42,72,0
0,42,0,4
0,40,0,0
0,60,89,1
0,63,89,4
0,67,88,7
0,43,0,38
0,55,0,46
0,60,0,5
0,63,0,4
0,67,0,7
0,34,91,12
0,60,75,0
0,42,41,0
0,42,0,4
0,63,71,2
0,55,70,6
0,34,0,17
0,60,0,4
0,63,0,6
0,55,0,4
0,36,96,21
0,55,87,0
0,35,106,0
0,42,58,0
0,60,88,3
0,42,0,1
0,35,0,0
0,63,87,4
0,67,87,6
0,55,0,107
0,60,0,3
0,63,0,4
0,42,41,0
0,63,0,1
0,42,0,3
0,67,0,6
0,55,88,54
0,42,64,0
0,42,0,4
0,60,88,2
0,63,88,4
0,67,88,6
0,36,0,36
0,55,0,38
0,60,0,6
0,63,0,4
0,67,0,8
0,36,75,20
0,60,79,0
0,42,46,0
0,42,0,4
0,63,76,2
0,55,79,7
0,36,0,7
0,60,0,16
0,63,0,6
0,55,0,7
0,43,98,15
0,55,87,0
0,35,106,0
0,42,58,0
0,42,0,4
0,35,0,0
0,60,88,2
0,63,86,7
0,55,0,78
0,60,0,6
0,63,0,6
0,43,0,24
0,36,82,1
0,60,74,0
0,42,42,0
0,42,0,4
0,63,73,2
0,55,71,8
0,36,0,7
0,60,0,15
0,63,0,6
0,55,0,6
0,36,98,16
0,55,87,0
0,40,93,0
0,42,72,0
0,42,0,4
0,40,0,0
0,60,89,1
0,63,89,4
0,67,88,7
0,55,0,84
0,60,0,5
0,63,0,4
0,67,0,7
0,63,108,12
0,60,75,0
0,42,41,0
0,42,0,4
0,63,71,2
0,55,70,6
0,36,0,2
0,60,0,19
0,63,0,6
0,55,0,4
0,63,0,2
0,38,95,1
0,62,107,0
0,57,87,0
0,42,58,0
0,35,106,0
0,35,0,4
0,42,0,0
0,60,89,3
0,66,89,4
0,69,89,6
0,42,41,1
0,42,0,1
0,62,0,5
0,66,107,50
0,57,86,0
0,42,64,0
0,42,0,4
0,60,88,3
0,66,89,3
0,69,87,6
0,38,0,22
0,57,0,63
0,60,0,7
0,66,0,3
0,69,0,4
0,38,82,13
0,60,82,0
0,42,46,0
0,42,0,4
0,66,79,2
0,57,78,7
0,38,0,5
0,66,0,0
0,60,0,18
0,66,0,6
0,57,0,7
0,45,95,15
0,66,108,0
0,57,86,0
0,35,106,0
0,42,58,0
0,42,0,4
0,35,0,0
0,60,88,2
0,66,88,8
0,57,0,86
0,60,0,6
0,66,0,2
0,66,72,20
0,42,42,0
0,42,0,4
0,60,71,2
0,57,69,7
0,66,0,23
0,60,0,6
0,66,0,6
0,57,0,6
0,69,106,10
0,57,87,0
0,40,93,0
0,42,72,0
0,42,0,4
0,40,0,0
0,60,88,3
0,66,88,4
0,69,88,5
0,45,0,53
0,57,0,1
0,60,0,7
0,69,0,3
0,66,0,1
0,69,0,10
0,45,77,37
0,69,105,0
0,66,80,0
0,42,41,0
0,42,0,4
0,60,80,2
0,57,77,7
0,45,0,9
0,66,0,14
0,60,0,6
0,57,0,12
0,38,96,3
0,57,87,0
0,35,106,0
0,42,58,0
0,42,0,4
0,35,0,0
0,60,89,3
0,66,89,4
0,69,89,6
0,42,41,1
0,42,0,1
0,57,86,55
0,42,64,0
0,42,0,4
0,60,88,3
0,66,89,3
0,69,87,6
0,38,0,78
0,57,0,7
0,60,0,7
0,66,0,3
