track,note,velocity,time
0,44,102,98
0,63,98,0
0,35,108,0
0,42,91,0
0,44,88,0
0,35,0,2
0,42,0,0
0,58,98,8
0,68,102,6
0,40,94,0
0,42,105,0
0,63,111,0
0,68,124,0
0,72,117,0
0,40,0,2
0,42,0,0
0,56,98,36
0,39,108,2
0,65,93,0
0,35,97,0
0,42,88,0
0,63,53,0
0,35,0,2
0,42,0,0
0,63,0,24
0,82,46,102
0,82,0,2
0,65,0,56
0,68,95,6
0,40,101,0
0,42,99,0
0,69,84,0
0,63,112,0
0,68,127,0
0,72,106,0
0,40,0,2
0,42,0,0
0,69,0,0
0,56,0,6
0,63,0,42
0,72,0,0
0,68,0,12
0,39,0,40
0,68,0,82
0,44,98,8
0,63,105,0
0,35,94,0
0,42,108,0
0,35,0,2
0,42,0,0
0,58,107,20
0,68,95,4
0,40,96,0
0,42,97,0
0,63,119,0
0,68,127,0
0,72,113,0
0,63,0,2
0,40,0,0
0,42,0,0
0,65,103,6
0,63,0,6
0,72,0,12
0,61,95,2
0,68,0,2
0,39,103,74
0,35,96,0
0,42,101,0
0,72,51,0
0,35,0,2
0,42,0,0
0,72,0,10
0,65,0,80
0,61,0,2
0,68,94,2
0,58,99,12
0,82,62,20
0,82,0,2
0,40,100,62
0,42,106,0
0,69,76,0
0,63,114,0
0,68,125,0
0,72,108,0
0,40,0,2
0,42,0,0
0,69,0,0
0,39,112,52
0,61,102,0
0,35,107,0
0,42,92,0
0,63,90,0
0,35,0,2
0,42,0,0
0,61,110,26
0,63,0,104
0,65,94,8
0,40,98,0
0,42,100,0
0,63,101,0
0,67,112,0
0,70,94,0
0,73,111,0
0,40,0,2
0,42,0,0
0,39,115,48
0,58,93,0
0,35,98,0
0,42,95,0
0,73,77,0
0,35,0,2
0,42,0,0
0,58,105,20
0,73,0,10
0,82,51,96
0,82,0,2
0,39,0,52
0,61,81,10
0,67,72,0
0,40,103,0
0,42,102,0
0,69,86,0
0,63,113,0
0,67,113,0
0,70,101,0
0,73,102,0
0,40,0,2
0,42,0,0
0,69,0,0
0,58,0,20
0,67,0,42
0,70,0,2
0,63,0,2
0,73,0,8
0,46,106,52
0,61,0,4
0,67,0,8
0,58,0,6
0,46,0,10
0,39,110,36
0,61,91,0
0,35,95,0
0,42,104,0
0,35,0,2
0,42,0,0
0,61,90,12
0,65,62,4
0,40,94,0
0,42,100,0
0,63,111,0
0,67,118,0
0,70,108,0
0,73,113,0
0,40,0,2
0,42,0,0
0,61,0,2
0,61,99,6
0,67,102,0
0,39,108,32
0,35,95,0
0,42,103,0
0,63,53,0
0,70,80,0
0,73,82,0
0,35,0,2
0,42,0,0
0,63,0,20
0,61,0,12
0,70,0,4
0,73,0,14
0,67,0,10
0,61,93,34
0,82,63,32
0,82,0,2
0,61,0,50
0,58,91,12
0,40,94,0
0,42,98,0
0,69,71,0
0,63,112,0
0,67,109,0
0,70,112,0
0,73,112,0
0,40,0,2
0,42,0,0
0,69,0,0
0,39,0,8
0,63,0,38
0,67,0,2
0,70,0,0
0,73,0,10
0,46,113,68
0,58,0,14
0,46,0,12
0,39,112,38
0,61,95,0
0,35,105,0
0,42,91,0
0,35,0,2
0,42,0,0
0,61,97,2
0,61,91,2
0,65,96,0
0,40,94,0
0,42,101,0
0,63,117,0
0,67,109,0
0,70,96,0
0,73,109,0
0,40,0,2
0,42,0,0
0,39,109,40
0,58,90,0
0,35,102,0
0,42,88,0
0,35,0,2
0,42,0,0
0,58,105,4
0,82,46,122
0,82,0,2
0,61,85,62
0,67,77,0
0,40,97,0
0,42,104,0
0,69,79,0
0,63,112,0
0,67,112,0
0,70,100,0
0,73,108,0
0,40,0,2
0,42,0,0
0,69,0,0
0,39,0,4
0,70,0,26
0,67,0,10
0,63,0,4
0,73,0,10
0,67,0,50
0,58,0,18
0,46,105,4
0,61,0,14
0,46,0,12
0,58,0,8
0,39,107,30
0,61,110,0
0,35,102,0
0,42,102,0
0,35,0,2
0,42,0,0
0,61,94,12
0,65,76,8
0,40,93,0
0,42,102,0
0,63,109,0
0,67,114,0
0,70,104,0
0,73,108,0
0,40,0,2
0,42,0,0
0,61,72,8
0,67,89,0
0,67,0,44
0,61,0,16
0,63,0,20
0,39,108,16
0,35,88,0
0,42,103,0
0,35,0,2
0,42,0,0
0,70,0,62
0,67,0,6
0,73,0,2
0,61,103,24
0,82,63,32
0,82,0,2
0,61,0,4
0,56,85,58
0,40,99,0
0,42,99,0
0,69,75,0
0,63,100,0
0,67,101,0
0,70,91,0
0,73,102,0
0,40,0,2
0,42,0,0
0,69,0,0
0,39,0,32
0,70,0,8
0,67,0,10
0,63,0,6
0,73,0,4
0,56,0,46
0,44,99,84
0,62,100,0
0,35,103,0
0,42,89,0
0,44,104,0
0,35,0,2
0,42,0,0
0,56,106,22
0,62,0,58
0,63,51,14
0,44,0,94
0,56,0,0
0,68,95,2
0,40,99,0
0,42,107,0
0,63,120,0
0,68,125,0
0,72,115,0
0,40,0,2
0,42,0,0
0,56,99,8
0,39,109,42
0,63,67,0
0,35,103,0
0,42,95,0
0,63,56,0
0,35,0,2
0,42,0,0
0,63,0,28
0,82,46,98
0,82,0,2
0,39,0,56
0,43,105,6
0,70,102,0
0,40,106,0
0,42,106,0
0,69,84,0
0,63,115,0
0,68,124,0
0,72,115,0
0,40,0,2
0,42,0,0
0,69,0,0
0,68,0,38
0,72,0,2
0,63,0,8
0,63,0,92
0,56,0,22
0,43,0,22
0,44,105,6
0,63,60,0
0,35,102,0
0,42,102,0
0,63,38,0
0,35,0,2
0,42,0,0
0,63,0,8
0,70,0,28
0,63,0,124
0,44,0,10
0,63,77,20
0,68,81,0
0,40,99,0
0,42,99,0
0,63,116,0
0,68,114,0
0,72,117,0
0,40,0,2
0,42,0,0
0,68,0,48
0,63,0,22
0,63,0,50
0,44,106,6
0,72,0,14
0,68,0,2
0,44,0,2
0,39,112,46
0,63,90,0
0,68,99,0
0,35,91,0
0,42,106,0
0,63,86,0
0,35,0,2
0,42,0,0
0,63,0,20
0,68,0,92
0,63,0,10
0,82,61,4
0,82,0,2
0,40,99,62
0,42,99,0
0,69,78,0
0,63,117,0
0,68,120,0
0,72,121,0
0,40,0,2
0,42,0,0
0,69,0,0
0,72,0,54
0,68,0,2
0,63,0,8
0,39,0,22
0,44,106,104
0,63,106,0
0,72,95,0
0,35,108,0
0,42,96,0
0,44,105,0
0,35,0,2
0,42,0,0
0,72,0,36
0,63,0,22
0,72,90,68
0,44,0,54
0,44,0,8
0,63,76,2
0,40,98,0
0,42,102,0
0,63,113,0
0,68,124,0
0,72,114,0
0,40,0,2
0,42,0,0
0,72,0,16
0,72,0,42
0,68,0,2
0,63,0,16
0,63,0,20
0,44,108,30
0,65,98,0
0,44,0,22
0,39,90,42
0,35,102,0
0,42,88,0
0,35,0,2
0,42,0,0
0,65,0,90
0,68,99,36
0,82,49,0
0,82,0,2
0,68,0,58
0,63,84,4
0,40,101,0
0,42,104,0
0,69,88,0
0,63,114,0
0,68,122,0
0,72,121,0
0,40,0,2
0,42,0,0
0,69,0,0
0,68,0,54
0,72,0,2
0,63,0,2
0,39,0,88
0,63,0,10
0,44,96,34
0,63,94,0
0,72,89,0
0,35,101,0
0,42,99,0
0,63,64,0
0,35,0,2
0,42,0,0
0,63,0,32
0,40,93,4
0,42,104,0
0,63,115,0
0,68,116,0
0,72,116,0
0,40,0,2
0,42,0,0
0,44,0,4
0,72,102,4
0,44,110,28
0,63,0,0
0,72,0,2
0,63,0,4
0,68,0,0
0,44,0,20
0,72,0,20
0,39,107,18
0,63,99,0
0,35,90,0
0,42,101,0
0,68,72,0
0,72,65,0
0,35,0,2
0,42,0,0
0,72,0,6
0,68,0,8
0,72,0,4
0,73,104,6
0,63,34,38
0,63,0,16
0,82,65,48
0,82,0,2
0,73,0,48
0,40,99,14
0,42,101,0
0,69,75,0
0,63,115,0
0,68,118,0
0,72,111,0
0,40,0,2
0,42,0,0
0,69,0,0
0,75,101,8
0,72,0,56
0,68,0,4
0,63,0,6
0,39,0,68
0,63,0,0
0,63,85,41
0,68,92,0
0,75,0,1
0,44,101,6
0,60,54,0
0,63,67,0
0,35,101,0
0,42,91,0
0,44,111,0
0,35,0,2
0,42,0,0
0,68,104,8
0,44,0,166
0,63,0,10
0,68,90,6
0,40,98,0
0,42,107,0
0,51,115,0
0,63,117,0
0,68,118,0
0,72,113,0
0,40,0,2
0,42,0,0
0,68,0,2
0,72,104,18
0,68,0,34
0,72,0,2
0,68,0,2
0,60,0,4
0,63,0,0
0,51,0,20
0,44,0,10
0,44,105,34
0,44,0,30
0,72,0,32
0,39,103,2
0,60,50,0
0,65,71,0
0,35,97,0
0,42,93,0
0,63,77,0
0,35,0,2
0,42,0,0
0,63,0,22
0,73,103,2
0,82,48,102
0,82,0,2
0,65,0,50
0,73,0,10
0,68,73,2
0,40,106,0
0,42,98,0
0,69,83,0
0,44,112,0
0,63,116,0
0,68,120,0
0,72,115,0
0,40,0,2
0,42,0,0
0,69,0,0
0,77,105,24
0,39,0,6
0,60,0,20
0,68,0,12
0,77,0,118
0,44,110,10
0,60,78,0
0,63,91,0
0,35,95,0
0,42,102,0
0,35,0,2
0,42,0,0
0,75,111,22
0,68,0,4
0,72,0,0
0,63,0,8
0,44,0,8
0,63,0,132
0,44,0,16
0,60,0,0
0,68,81,0
0,40,91,0
0,42,104,0
0,44,109,0
0,63,121,0
0,68,127,0
0,72,116,0
0,75,0,2
0,40,0,0
0,42,0,0
0,72,100,20
0,68,0,20
0,68,0,4
0,63,0,2
0,72,0,0
0,44,0,22
0,44,98,58
0,65,95,0
0,44,0,28
0,72,0,2
0,39,104,34
0,35,90,0
0,42,104,0
0,35,0,2
0,42,0,0
0,65,0,16
0,63,69,46
0,63,0,28
0,68,95,36
0,82,66,0
0,82,0,2
0,75,103,4
0,40,93,0
0,42,103,0
0,69,75,0
0,44,115,0
0,63,116,0
0,68,123,0
0,72,120,0
0,40,0,2
0,42,0,0
0,69,0,0
0,44,109,4
0,35,106,0
0,42,94,0
0,44,111,0
0,35,0,2
0,42,0,0
0,73,109,6
0,73,0,158
0,70,104,26
0,68,110,0
0,40,93,0
0,42,106,0
0,63,114,0
0,68,122,0
0,72,110,0
0,40,0,2
0,42,0,0
0,44,0,32
0,68,0,4
0,63,0,8
0,72,0,2
0,44,0,34
0,68,0,30
0,70,0,40
0,63,0,27
0,68,0,0
0,61,73,6
0,67,89,0
0,67,104,1
0,39,104,6
0,58,113,0
0,35,106,0
0,42,94,0
0,51,108,0
0,35,0,2
0,42,0,0
0,58,0,110
0,82,52,16
0,82,0,2
0,39,0,50
0,43,108,12
0,67,107,0
0,40,102,0
0,42,105,0
0,69,87,0
0,61,122,0
0,67,121,0
0,70,114,0
0,40,0,2
0,42,0,0
0,69,0,0
0,61,0,66
0,67,0,2
0,70,0,2
0,51,0,30
0,67,0,10
0,67,0,64
0,61,0,3
0,67,0,0
0,63,95,6
0,68,96,0
0,43,0,3
0,44,103,2
0,35,98,0
0,42,106,0
0,44,108,0
0,35,0,2
0,42,0,0
0,77,101,8
0,68,106,90
0,40,94,0
0,42,101,0
0,63,126,0
0,68,123,0
0,72,114,0
0,40,0,2
0,42,0,0
0,44,0,30
0,68,0,20
0,63,0,2
0,72,0,4
0,44,0,40
0,68,0,14
0,77,0,52
0,63,0,15
0,68,0,0
0,61,87,6
0,67,94,0
0,39,111,7
0,58,112,0
0,35,90,0
0,42,104,0
0,51,115,0
0,35,0,2
0,42,0,0
0,75,107,6
0,58,0,104
0,82,58,16
0,82,0,2
0,39,0,34
0,43,101,28
0,67,104,0
0,40,98,0
0,42,99,0
0,69,72,0
0,61,122,0
0,67,122,0
0,70,120,0
0,40,0,2
0,42,0,0
0,69,0,0
0,67,0,94
0,70,0,0
0,61,0,4
0,51,0,6
0,67,0,6
0,43,0,58
0,61,0,9
0,67,0,0
0,75,0,1
0,63,85,5
0,68,89,0
0,44,109,7
0,60,61,0
0,63,65,0
0,35,106,0
0,42,96,0
0,44,113,0
0,35,0,2
0,42,0,0
0,73,98,12
0,73,0,172
0,63,0,0
0,44,0,2
0,44,0,2
0,68,90,2
0,40,91,0
0,42,99,0
0,63,115,0
0,68,126,0
0,72,109,0
0,40,0,2
0,42,0,0
0,72,104,12
0,68,0,46
0,60,0,4
0,63,0,38
0,72,0,0
0,68,0,10
0,44,109,16
0,44,0,36
0,39,101,28
0,60,56,0
0,65,69,0
0,35,97,0
0,42,88,0
0,63,59,0
0,35,0,2
0,42,0,0
0,63,0,28
0,82,54,98
0,82,0,2
0,65,0,50
0,68,77,12
0,40,102,0
0,42,105,0
0,69,82,0
0,63,116,0
0,68,124,0
0,72,111,0
0,40,0,2
0,42,0,0
0,69,0,0
0,68,0,38
0,72,0,2
0,63,0,8
0,60,0,2
0,68,0,12
0,39,0,14
0,72,0,10
0,44,114,104
0,60,77,0
0,63,88,0
0,35,100,0
0,42,100,0
0,44,105,0
0,72,94,0
0,35,0,2
0,42,0,0
0,72,0,56
0,70,78,70
0,70,0,38
0,63,0,10
0,44,0,12
0,44,0,2
0,60,0,2
0,68,79,0
0,40,98,0
0,42,102,0
0,63,123,0
0,68,126,0
0,72,108,0
0,68,82,0
0,40,0,2
0,42,0,0
0,68,0,40
0,68,0,24
0,63,0,36
0,72,0,0
0,68,0,10
0,44,113,16
0,65,103,0
0,70,95,0
0,44,0,30
0,70,0,24
0,39,91,10
0,35,91,0
0,42,105,0
0,63,55,0
0,72,105,0
0,35,0,2
0,42,0,0
0,65,0,16
0,63,0,12
0,68,97,98
0,82,63,0
0,82,0,2
0,40,95,62
0,42,97,0
0,69,78,0
0,63,117,0
0,68,127,0
0,72,112,0
0,40,0,2
0,42,0,0
0,69,0,0
0,72,0,20
0,68,0,18
0,72,0,2
0,63,0,8
0,68,35,14
0,68,0,44
0,39,0,2
0,70,66,18
0,68,0,60
0,44,103,4
0,60,74,0
0,63,77,0
0,35,106,0
0,42,93,0
0,44,109,0
0,70,0,0
0,72,109,0
0,35,0,2
0,42,0,0
0,72,0,64
0,70,91,62
0,44,0,48
0,63,0,0
0,70,0,10
0,44,0,4
0,68,73,2
0,40,96,0
0,42,100,0
0,63,123,0
0,68,120,0
0,72,114,0
0,68,103,0
0,40,0,2
0,42,0,0
0,68,0,50
0,68,0,10
0,60,0,30
0,63,0,10
0,72,0,0
0,68,0,10
0,44,106,16
0,65,98,0
0,44,0,34
0,65,0,28
0,39,98,2
0,63,85,0
0,35,100,0
0,42,96,0
0,63,61,0
0,63,107,0
0,35,0,2
0,42,0,0
0,63,0,28
0,82,53,98
0,82,0,2
0,63,0,54
0,68,72,8
0,40,106,0
0,42,105,0
0,69,85,0
0,63,114,0
0,68,121,0
0,72,115,0
0,40,0,2
0,42,0,0
0,69,0,0
0,68,0,38
0,72,0,2
0,63,0,8
0,63,0,12
0,68,0,26
0,39,0,10
0,63,0,81
0,68,0,2
0,44,101,11
0,60,53,0
0,63,68,0
0,35,102,0
0,42,100,0
0,44,111,0
0,35,0,2
0,42,0,0
0,68,57,2
0,40,93,0
0,42,100,0
0,63,114,0
0,68,124,0
0,72,115,0
0,63,0,2
0,40,0,0
0,42,0,0
0,72,102,4
0,44,105,16
0,65,96,0
0,44,0,34
0,39,110,30
0,35,94,0
0,42,98,0
0,63,64,0
0,35,0,2
0,42,0,0
0,72,0,6
0,65,0,12
0,73,102,6
0,63,0,4
0,68,98,98
0,82,67,0
0,82,0,2
0,73,0,48
0,40,102,14
0,42,100,0
0,69,75,0
0,63,115,0
0,68,124,0
0,72,116,0
0,40,0,2
0,42,0,0
0,69,0,0
0,75,105,8
0,68,0,30
0,72,0,2
0,63,0,8
0,60,0,24
0,68,0,14
0,39,0,4
0,63,86,93
0,68,91,0
0,75,0,1
0,44,109,6
0,60,60,0
0,63,67,0
0,35,107,0
0,42,89,0
0,44,108,0
0,35,0,2
0,42,0,0
