track,note,velocity,time
1,67,114,473
1,67,0,212
1,67,114,38
1,67,0,212
1,65,114,19
1,65,121,6
1,65,0,206
1,64,111,43
1,65,0,179
1,64,0,33
1,64,113,9
1,64,0,212
1,62,111,40
1,62,0,212
1,60,108,26
1,60,0,428
1,60,107,53
1,60,0,212
1,62,121,27
1,62,0,428
1,64,116,47
1,64,0,644
1,65,108,561
1,65,0,212
1,65,107,21
1,65,0,428
1,64,116,68
1,64,0,212
1,64,115,19
1,64,0,212
1,62,116,28
1,62,0,644
1,59,111,78
1,59,0,212
1,60,109,26
1,60,0,428
1,62,114,54
1,62,0,644
1,64,107,802
1,64,0,212
1,65,118,27
1,65,0,212
1,67,116,21
1,67,0,428
1,69,113,53
1,69,0,860
1,60,115,106
1,60,0,212
1,62,114,23
1,62,0,212
1,64,114,18
1,64,0,428
1,64,115,54
1,64,0,428
1,65,115,58
1,65,0,104
1,64,114,15
1,64,0,104
1,62,120,10
1,62,0,644
1,57,115,86
1,57,0,212
1,60,111,20
1,60,0,212
1,59,113,36
1,59,0,1076
1,72,111,850
1,72,0,212
1,72,115,19
1,72,0,212
1,72,115,37
1,72,0,212
1,67,118,736
1,67,0,212
1,67,105,28
1,67,0,212
1,67,112,32
1,67,0,212
1,69,115,36
1,69,0,212
1,67,113,16
1,67,0,212
1,65,114,34
1,65,0,212
1,65,107,26
1,65,0,212
1,64,117,28
1,64,0,428
1,69,117,293
1,69,0,212
1,72,108,26
1,72,0,212
1,72,115,23
1,72,0,212
1,69,115,753
1,69,0,212
1,70,121,29
1,70,0,212
1,70,116,27
1,70,116,5
1,70,0,207
1,70,0,9
1,70,115,22
1,70,0,212
1,68,117,27
1,68,0,212
1,67,114,23
1,67,0,212
1,65,115,27
1,65,0,644
1,69,105,798
1,69,0,212
1,69,121,30
1,69,0,212
1,69,111,24
1,69,0,212
1,67,112,40
1,67,0,212
1,67,115,23
1,67,0,212
1,67,124,25
1,67,0,104
1,67,114,16
1,67,0,320
1,65,115,53
1,65,0,212
1,65,116,27
1,65,0,212
1,64,124,25
1,64,0,212
1,64,112,25
1,64,0,212
1,63,115,276
1,63,0,212
1,63,115,22
1,63,0,212
1,63,108,33
1,63,0,104
1,62,115,17
1,62,0,212
1,60,114,53
1,68,115,76
1,60,0,28
1,68,0,184
1,68,109,24
1,68,0,212
1,68,108,45
1,68,0,212
1,67,114,25
1,67,0,104
1,67,114,10
1,67,0,212
1,67,120,30
1,67,0,320
1,67,114,49
1,67,0,212
1,65,106,17
1,65,0,212
1,65,118,33
1,65,0,212
1,65,114,34
1,65,0,212
1,65,110,18
1,65,0,644
1,55,113,324
1,55,0,212
1,64,115,12
1,64,0,212
1,62,114,36
1,62,0,212
1,60,125,35
1,60,0,104
1,62,115,8
1,62,0,104
1,60,115,15
1,60,0,644
1,67,115,473
1,67,0,212
1,67,119,41
1,67,0,212
1,65,115,12
1,65,122,10
1,65,0,212
1,64,106,37
1,65,0,169
1,64,0,43
1,64,122,15
1,64,0,212
1,62,111,32
1,62,0,212
1,60,115,28
1,60,0,428
1,60,114,51
1,60,0,212
1,62,124,29
1,62,0,428
1,64,114,61
1,64,0,644
1,65,123,548
1,65,0,212
1,65,119,32
1,65,0,428
1,64,118,40
1,64,0,212
1,64,108,33
1,64,0,212
1,62,114,33
1,62,0,644
1,59,111,77
1,59,0,212
1,60,106,25
1,60,0,428
1,62,125,51
1,62,0,644
1,64,115,796
1,64,0,212
1,65,120,28
1,65,0,212
1,67,112,23
1,67,0,428
1,69,113,66
1,69,0,216
1,60,114,18
1,60,0,216
1,60,116,503
1,60,0,212
1,62,117,26
1,62,0,212
1,64,115,32
1,64,0,428
1,64,115,45
1,64,0,428
1,65,115,62
1,65,0,104
1,64,107,9
1,64,0,104
1,62,111,14
1,62,0,644
1,57,116,70
1,57,0,212
1,60,115,31
1,60,0,212
1,59,115,36
1,59,0,1076
1,72,114,840
1,72,0,212
1,72,114,26
1,72,0,212
1,72,114,29
1,72,0,212
1,67,113,751
1,67,0,212
1,67,117,32
1,67,0,212
1,67,114,32
1,67,0,212
1,69,115,29
1,69,0,212
1,67,115,10
1,67,0,212
1,65,115,37
1,65,0,212
1,65,113,30
1,65,0,212
1,64,118,24
1,64,0,428
1,69,115,293
1,69,0,212
1,72,115,27
1,72,0,212
1,72,112,29
1,72,0,212
1,65,115,748
1,65,0,216
1,64,116,22
1,64,0,212
1,65,120,23
1,65,0,216
1,67,125,40
1,67,0,212
1,65,124,10
1,65,0,212
1,64,115,34
1,64,0,212
1,62,108,36
1,62,0,644
1,69,110,801
1,69,0,212
1,69,115,22
1,69,0,212
1,71,111,30
1,71,0,212
1,72,115,15
1,72,0,212
1,67,107,31
1,67,0,212
1,67,117,37
1,67,0,104
1,67,122,19
1,67,0,320
1,69,124,39
1,69,0,212
1,67,106,31
1,67,0,212
1,65,121,25
1,65,0,212
1,64,124,36
1,64,0,212
1,63,114,246
1,63,0,212
1,63,118,39
1,63,0,212
1,63,116,18
1,63,0,104
1,62,114,24
1,62,0,212
1,60,117,27
1,60,0,104
1,68,112,15
1,68,0,212
1,68,115,26
1,68,0,212
1,70,105,24
1,70,0,212
1,72,112,35
1,72,0,104
1,67,112,23
1,67,0,212
1,67,115,23
1,67,0,320
1,67,121,33
1,67,0,212
1,69,111,32
1,69,0,212
1,67,122,20
1,67,0,212
1,69,116,37
1,69,0,212
1,67,109,31
1,67,0,212
1,55,119,273
1,55,0,212
1,65,107,19
1,65,0,216
1,64,115,16
1,64,0,432
1,60,118,56
1,60,0,428
1,67,124,478
1,67,0,212
1,67,119,36
1,67,0,212
1,65,115,18
1,65,118,4
1,65,0,208
1,64,110,27
1,65,0,193
1,64,0,19
1,64,116,28
1,64,0,212
1,62,116,31
1,62,0,212
1,60,125,30
1,60,0,428
1,60,120,52
1,60,0,212
1,62,118,28
1,62,0,428
1,64,115,48
1,64,0,644
1,65,115,558
1,65,0,212
1,65,115,33
1,65,0,428
1,64,115,49
1,64,0,212
1,64,117,34
1,64,0,212
1,62,118,18
1,62,0,644
1,59,116,82
1,59,0,212
1,60,115,26
1,60,0,428
1,62,114,52
1,62,0,644
1,64,120,802
1,64,0,212
1,65,115,27
1,65,0,212
1,67,118,20
1,67,0,428
1,69,116,56
1,69,0,860
1,60,116,97
1,60,0,212
1,62,117,31
1,62,0,212
1,64,106,29
1,64,0,428
1,64,114,50
1,64,0,428
1,65,119,59
1,65,0,104
1,64,121,7
1,64,0,104
1,62,107,11
1,62,0,644
1,57,115,84
1,57,0,212
1,60,109,27
1,60,0,212
1,59,110,33
1,59,0,1076
1,72,119,844
1,72,0,212
1,72,110,31
1,72,0,212
1,72,114,18
1,72,0,212
1,67,106,744
1,67,0,212
1,67,123,38
1,67,0,212
1,67,119,28
1,67,0,212
1,69,119,27
1,69,0,212
1,67,115,24
1,67,0,212
1,65,121,21
1,65,0,212
1,65,110,44
1,65,0,212
1,64,124,18
1,64,0,428
1,69,109,294
1,69,0,212
1,72,113,26
1,72,0,212
1,72,108,30
1,72,0,212
1,69,115,742
1,69,0,212
1,67,114,32
1,67,0,212
1,69,118,27
1,69,0,216
1,70,115,27
1,70,0,212
1,68,115,28
1,68,0,212
1,67,118,30
1,67,0,212
1,65,109,32
1,65,0,644
1,69,115,792
1,69,0,212
1,69,123,24
1,69,0,212
1,71,125,38
1,71,0,212
1,72,122,11
1,72,0,212
1,67,120,39
1,67,0,212
1,67,122,31
1,67,0,104
1,67,114,16
1,67,0,320
1,69,117,49
1,69,0,212
1,67,110,20
1,67,0,212
1,65,114,31
1,65,0,212
1,64,115,25
1,64,0,212
1,63,113,254
1,63,0,212
1,63,112,28
1,63,0,212
1,63,112,35
1,63,0,104
1,62,107,8
1,62,0,212
1,60,119,35
1,60,0,104
1,68,115,18
1,68,0,212
1,68,119,20
1,68,0,212
1,70,115,35
1,70,0,212
1,72,111,29
1,72,0,104
1,67,116,19
1,67,0,212
1,67,117,16
1,67,0,320
1,67,114,56
1,67,0,212
1,69,117,27
1,69,0,212
1,67,112,19
1,67,0,212
1,69,115,33
1,69,0,212
1,67,115,29
1,67,0,212
1,60,121,754
1,60,0,212
1,69,120,20
1,69,0,284
1,67,109,35
1,67,0,284
1,63,114,37
1,63,0,284
1,60,119,38
1,60,0,428
1,72,115,10849
1,72,0,216
1,74,116,27
1,74,0,648
1,72,119,71
1,72,0,216
1,72,118,18
1,72,0,432
1,72,123,2212
1,72,0,216
1,71,106,25
1,71,0,648
1,72,115,71
1,72,0,108
1,71,106,17
1,71,0,108
1,69,112,7
1,69,0,432
1,72,114,3160
1,72,0,216
1,74,113,38
1,74,0,648
1,72,113,67
1,72,0,216
1,72,121,24
1,72,0,432
1,72,113,2214
1,72,0,216
1,71,112,17
1,71,0,648
1,72,115,81
1,72,0,108
1,71,109,2
1,71,0,108
1,69,115,5
1,69,0,432
1,72,115,2210
1,72,0,216
1,74,111,28
1,74,0,648
1,72,114,75
1,72,0,216
1,72,115,22
1,72,0,432
1,72,117,2211
1,72,0,216
1,71,107,18
1,71,0,40
1,72,115,34
1,72,0,67
1,71,115,8
1,71,0,41
1,69,116,23
1,69,0,42
1,72,118,52
1,72,0,41
1,74,122,20
1,74,0,29
1,72,113,22
1,72,0,11
1,72,124,30
1,72,0,19
1,72,118,26
1,72,0,16
1,71,118,35
1,71,0,18
1,72,123,11
1,72,0,43
1,71,115,14
1,71,0,14
1,69,115,10
1,69,0,3
2,77,85,731
2,69,83,2
2,72,75,9
2,81,83,0
2,77,0,93
2,69,0,2
2,72,0,9
2,81,0,0
2,77,86,6
2,81,76,1
2,69,91,3
2,72,85,2
2,77,0,98
2,81,0,1
2,69,0,3
2,72,0,2
2,72,85,9
2,77,91,2
2,69,88,4
2,81,83,1
2,72,0,277
2,77,0,2
2,69,0,4
2,81,0,1
2,81,88,29
2,69,87,0
2,72,85,2
2,77,82,1
2,69,0,281
2,81,0,0
2,72,0,2
2,77,0,1
2,72,80,29
2,81,93,6
2,69,88,1
2,77,86,1
2,72,0,276
2,81,0,6
2,69,0,1
2,77,0,1
2,81,83,21
2,76,87,1
2,69,85,1
2,72,80,5
2,81,0,205
2,76,0,1
2,69,0,1
2,72,0,5
2,67,84,20
2,76,81,4
2,72,84,3
2,79,94,1
2,67,0,204
2,76,0,4
2,72,0,3
2,79,0,1
2,79,85,19
2,76,90,2
2,72,94,6
2,67,95,1
2,79,0,851
2,76,0,2
2,72,0,6
2,67,0,1
2,79,84,84
2,76,84,0
2,72,85,13
2,67,94,3
2,76,0,196
2,79,0,0
2,72,0,13
2,67,0,3
2,69,80,20
2,76,85,4
2,72,76,3
2,81,86,4
2,69,0,849
2,76,0,4
2,72,0,3
2,81,0,4
2,69,84,84
2,72,77,5
2,76,76,1
2,81,77,3
2,69,0,95
2,72,0,5
2,76,0,1
2,81,0,3
2,69,85,4
2,81,87,1
2,72,89,7
2,76,85,6
2,69,0,90
2,81,0,1
2,72,0,7
2,76,0,6
2,76,81,9
2,72,90,1
2,81,84,1
2,69,82,6
2,76,0,276
2,72,0,1
2,81,0,1
2,69,0,6
2,69,87,31
2,81,91,1
2,76,91,0
2,72,85,4
2,69,0,279
2,81,0,1
2,76,0,0
2,72,0,4
2,81,84,28
2,69,85,3
2,76,85,2
2,72,91,1
2,81,0,278
2,69,0,3
2,76,0,2
2,72,0,1
2,69,93,32
2,81,85,4
2,76,76,0
2,69,0,208
2,76,0,4
2,81,0,0
2,79,85,25
2,71,78,2
2,76,85,6
2,67,86,0
2,79,0,204
2,71,0,2
2,76,0,6
2,67,0,0
2,76,93,19
2,71,85,0
2,79,85,1
2,67,80,8
2,71,0,851
2,76,0,0
2,79,0,1
2,67,0,8
2,79,94,87
2,67,85,4
2,79,0,208
2,67,0,4
2,84,81,19
2,76,85,1
2,72,89,8
2,82,85,7
2,84,0,1924
2,76,0,1
2,72,0,8
2,82,0,7
2,77,83,41251
2,69,84,2
2,81,89,4
2,72,75,5
2,77,0,93
2,69,0,2
2,81,0,4
2,72,0,5
2,77,87,2
2,72,83,1
2,81,87,6
2,69,94,7
2,77,0,90
2,72,0,1
2,81,0,6
2,81,79,6
2,69,0,1
2,77,92,7
2,72,89,0
2,69,85,0
2,81,0,276
2,77,0,8
2,72,0,0
2,69,0,0
2,72,85,35
2,81,83,1
2,77,81,9
2,69,89,0
2,72,0,274
2,81,0,1
2,77,0,9
2,69,0,0
2,77,93,19
2,81,93,8
2,72,86,0
2,69,78,0
2,77,0,276
2,81,0,8
2,72,0,0
2,69,0,0
2,69,85,35
2,81,86,1
2,72,84,0
2,76,92,4
2,69,0,207
2,81,0,1
2,72,0,0
2,76,0,4
2,72,81,18
2,76,84,5
2,67,85,1
2,79,92,9
2,72,0,197
2,76,0,5
2,67,0,1
2,79,0,9
2,76,84,12
2,72,90,4
2,79,91,2
2,67,86,11
2,76,0,843
2,72,0,4
2,79,0,2
2,67,0,11
2,72,77,90
2,67,87,4
2,79,93,1
2,76,86,3
2,72,0,204
2,67,0,4
2,79,0,1
2,76,0,3
2,72,85,14
2,76,87,5
2,81,85,1
2,69,76,0
2,72,0,854
2,76,0,5
2,81,0,1
2,69,0,0
2,69,85,93
2,81,85,6
2,76,84,1
2,72,87,3
2,69,0,94
2,81,0,6
2,76,0,1
2,72,0,3
2,81,75,4
2,72,81,5
2,76,88,5
2,69,78,4
2,81,0,90
2,72,0,5
2,76,0,5
2,69,0,4
2,81,85,9
2,72,87,0
2,76,83,2
2,69,77,1
2,72,0,281
2,81,0,0
2,76,0,2
2,69,0,1
2,76,85,27
2,72,86,6
2,69,85,1
2,81,83,1
2,76,0,276
2,72,0,6
2,69,0,1
2,81,0,1
2,76,86,36
2,81,85,2
2,72,83,2
2,69,86,2
2,76,0,278
2,81,0,2
2,72,0,2
2,69,0,2
2,81,76,23
2,76,93,2
2,69,90,6
2,81,0,204
2,76,0,2
2,69,0,6
2,79,85,25
2,71,87,0
2,76,83,2
2,67,84,5
2,71,0,205
2,79,0,0
2,76,0,2
2,67,0,5
2,71,85,22
2,79,75,1
2,67,91,1
2,76,91,1
2,71,0,857
2,79,0,1
2,67,0,1
2,76,0,1
2,79,88,99
2,67,93,2
2,79,0,210
2,67,0,2
2,82,85,22
2,76,88,1
2,84,85,6
2,72,82,4
2,82,0,1929
2,76,0,1
2,84,0,6
2,72,0,4
2,72,85,41244
2,77,90,8
2,69,85,0
2,81,83,3
2,72,0,93
2,77,0,8
2,69,0,0
2,81,0,3
2,81,93,13
2,72,83,0
2,69,79,0
2,77,84,4
2,69,0,100
2,81,0,0
2,72,0,0
2,77,0,4
2,77,92,8
2,69,83,4
2,81,87,6
2,72,76,0
2,77,0,274
2,69,0,4
2,81,0,6
2,72,0,0
2,69,91,23
2,81,91,2
2,72,84,9
2,77,83,1
2,69,0,272
2,81,0,2
2,72,0,9
2,77,0,1
2,69,87,25
2,81,85,7
2,72,82,1
2,77,77,1
2,69,0,275
2,81,0,7
2,72,0,1
2,77,0,1
2,81,77,27
2,72,81,4
2,69,85,2
2,77,95,0
2,81,0,278
2,72,0,4
2,69,0,2
2,77,0,0
2,77,80,32
2,81,90,4
2,69,78,0
2,72,87,4
2,77,0,276
2,81,0,4
2,69,0,0
2,72,0,4
2,81,95,22
2,69,87,7
2,77,84,3
2,72,75,5
2,81,0,269
2,69,0,7
2,77,0,3
2,72,0,5
2,76,89,28
2,72,76,4
2,69,88,1
2,81,85,2
2,76,0,205
2,72,0,4
2,69,0,1
2,81,0,2
2,79,93,17
2,72,84,6
2,67,87,2
2,76,85,1
2,79,0,203
2,72,0,6
2,67,0,2
2,76,0,1
2,67,91,16
2,79,85,7
2,76,86,8
2,72,84,0
2,67,0,845
2,79,0,7
2,76,0,8
2,72,0,0
2,79,86,95
2,72,89,1
2,76,93,1
2,67,87,6
2,79,0,204
2,72,0,1
2,76,0,1
2,67,0,6
2,72,83,22
2,81,80,1
2,69,78,0
2,76,87,4
