track,note,velocity,time
0,34,109,0
0,58,66,0
0,46,115,0
0,42,81,0
0,61,94,0
0,36,106,0
0,65,93,0
0,58,71,7
0,44,73,0
0,61,77,0
0,65,74,0
0,34,108,45
0,36,102,0
0,42,82,0
0,38,103,0
0,58,78,61
0,61,73,0
0,49,113,0
0,44,79,0
0,61,80,0
0,65,82,0
0,29,108,15
0,60,66,0
0,48,110,0
0,36,108,0
0,42,88,0
0,60,91,0
0,57,84,60
0,63,56,0
0,51,107,0
0,44,82,0
0,60,78,0
0,65,85,0
0,29,110,60
0,36,102,0
0,42,90,0
0,38,106,0
0,49,86,2
0,57,84,1
0,61,40,0
0,44,79,0
0,60,75,0
0,65,90,0
0,48,65,7
0,60,27,1
0,46,101,6
0,34,117,2
0,58,52,0
0,36,111,0
0,42,86,0
0,61,92,0
0,58,80,58
0,44,77,0
0,61,88,0
0,65,82,0
0,34,115,42
0,36,103,0
0,42,82,0
0,38,107,0
0,58,84,60
0,61,74,0
0,49,117,0
0,44,78,0
0,61,90,0
0,65,87,0
0,29,107,16
0,60,66,0
0,48,116,0
0,36,111,0
0,42,82,0
0,60,95,0
0,57,82,56
0,63,62,0
0,51,109,0
0,44,77,0
0,60,73,0
0,65,90,0
0,29,110,56
0,36,104,0
0,42,83,0
0,38,103,0
0,49,93,55
0,57,85,2
0,61,38,0
0,44,78,0
0,60,75,0
0,65,87,0
0,48,75,1
0,60,37,3
0,46,102,6
0,34,117,1
0,58,56,0
0,36,109,0
0,42,83,0
0,58,91,0
0,61,94,0
0,58,78,56
0,44,82,0
0,61,86,0
0,65,87,0
0,34,115,46
0,36,104,0
0,42,84,0
0,38,107,0
0,58,82,55
0,61,71,0
0,49,118,0
0,44,83,0
0,61,80,0
0,65,80,0
0,29,111,23
0,60,64,0
0,48,109,0
0,36,109,0
0,42,82,0
0,57,93,0
0,60,93,0
0,57,87,5
0,63,60,0
0,51,106,0
0,44,78,0
0,60,85,0
0,65,90,0
0,29,116,66
0,36,105,0
0,42,79,0
0,38,107,0
0,57,85,48
0,61,34,0
0,49,86,0
0,44,76,0
0,60,73,0
0,65,87,0
0,60,28,2
0,48,70,0
0,56,29,5
0,34,110,2
0,58,48,0
0,82,99,0
0,36,110,0
0,44,50,0
0,61,95,0
0,65,94,0
0,57,34,8
0,58,59,2
0,38,53,34
0,38,60,2
0,61,86,0
0,65,60,0
0,38,98,2
0,38,76,23
0,38,96,21
0,34,110,2
0,36,96,0
0,44,46,0
0,61,65,73
0,81,91,0
0,65,61,0
0,38,103,6
0,80,88,0
0,79,85,8
0,78,79,0
0,38,73,1
0,29,105,1
0,36,106,0
0,44,42,0
0,38,107,1
0,77,80,1
0,76,74,2
0,75,68,13
0,38,90,0
0,74,66,15
0,61,62,19
0,73,63,0
0,65,72,0
0,38,83,1
0,72,60,2
0,71,58,10
0,38,88,1
0,70,56,0
0,29,108,8
0,36,86,0
0,44,57,0
0,38,98,0
0,69,54,1
0,68,51,0
0,67,48,0
0,66,44,20
0,61,52,10
0,38,106,0
0,65,46,0
0,65,42,0
0,64,39,0
0,63,36,3
0,62,32,4
0,34,109,0
0,46,77,0
0,36,107,0
0,42,83,0
0,61,97,0
0,65,96,0
0,65,91,0
0,61,30,0
0,60,29,3
0,59,27,1
0,58,24,20
0,58,71,1
0,44,74,0
0,61,77,0
0,65,74,0
0,34,108,5
0,36,103,0
0,42,83,0
0,38,108,0
0,65,90,0
0,58,78,18
0,49,68,0
0,44,82,0
0,61,80,0
0,65,85,0
0,65,82,0
0,29,108,6
0,48,60,0
0,36,109,0
0,42,84,0
0,60,90,0
0,65,86,0
0,57,84,1
0,51,66,0
0,44,83,0
0,60,78,0
0,63,86,0
0,65,85,0
0,29,110,1
0,36,105,0
0,42,83,0
0,38,108,0
0,61,86,0
0,49,31,15
0,57,84,1
0,44,82,0
0,60,75,0
0,63,83,0
0,65,90,0
0,48,20,7
0,34,117,4
0,46,72,0
0,36,105,0
0,42,86,0
0,61,94,0
0,65,85,0
0,58,80,51
0,44,82,0
0,61,88,0
0,65,82,0
0,34,115,9
0,36,101,0
0,42,83,0
0,38,109,0
0,65,86,0
0,58,84,51
0,49,77,0
0,44,84,0
0,61,90,0
0,65,87,0
0,29,107,4
0,48,77,0
0,36,106,0
0,42,86,0
0,60,91,0
0,57,82,3
0,51,77,0
0,44,82,0
0,60,73,0
0,66,84,0
0,65,90,0
0,29,110,0
0,36,102,0
0,42,86,0
0,38,109,0
0,68,85,0
0,49,44,5
0,57,85,2
0,44,82,0
0,60,75,0
0,66,82,0
0,65,87,0
0,48,25,7
0,34,117,3
0,46,74,0
0,36,104,0
0,42,86,0
0,61,96,0
0,65,86,0
0,58,78,63
0,44,82,0
0,61,86,0
0,65,87,0
0,34,115,13
0,36,100,0
0,42,86,0
0,38,109,0
0,65,87,0
0,58,82,58
0,49,77,0
0,44,81,0
0,61,80,0
0,65,80,0
0,29,111,2
0,48,75,0
0,36,105,0
0,42,84,0
0,60,92,0
0,57,87,3
0,51,76,0
0,44,83,0
0,60,85,0
0,63,83,0
0,65,90,0
0,29,116,8
0,36,101,0
0,42,81,0
0,38,108,0
0,66,85,0
0,49,38,4
0,57,85,2
0,44,82,0
0,60,73,0
0,63,72,0
0,65,87,0
0,48,24,7
0,46,61,0
0,34,110,2
0,82,110,0
0,36,105,0
0,42,84,0
0,58,105,0
0,61,93,0
0,65,86,0
0,61,86,58
0,44,83,0
0,65,60,0
0,34,110,42
0,82,111,0
0,36,101,0
0,42,83,0
0,58,106,0
0,38,108,0
0,61,65,61
0,44,82,0
0,65,61,0
0,82,101,56
0,58,96,0
0,29,105,1
0,36,106,0
0,42,83,0
0,80,87,9
0,56,82,0
0,77,84,0
0,53,79,0
0,61,62,4
0,44,82,0
0,65,72,0
0,29,108,18
0,36,102,0
0,42,92,0
0,38,108,0
0,61,52,13
0,44,78,0
0,65,46,0
0,27,110,18
0,51,68,0
0,36,107,0
0,42,94,0
0,63,95,0
0,66,95,0
0,70,91,0
0,58,78,57
0,44,82,0
0,63,86,0
0,66,87,0
0,27,110,22
0,36,103,0
0,42,86,0
0,38,108,0
0,70,88,0
0,58,82,17
0,54,72,0
0,44,82,0
0,63,80,0
0,70,89,0
0,66,80,0
0,34,105,5
0,53,70,0
0,36,105,0
0,42,84,0
0,62,93,0
0,65,93,0
0,70,84,0
0,58,52,10
0,58,87,1
0,44,83,0
0,62,85,0
0,68,85,0
0,65,90,0
0,34,108,2
0,36,101,0
0,42,92,0
0,38,108,0
0,66,82,0
0,56,50,11
0,58,85,1
0,44,82,0
0,62,73,0
0,68,86,0
0,65,87,0
0,53,29,3
0,27,110,2
0,51,62,0
0,36,105,0
0,42,84,0
0,63,96,0
0,66,93,0
0,70,85,0
0,58,78,54
0,44,79,0
0,63,86,0
0,66,87,0
0,27,110,8
0,36,101,0
0,42,88,0
0,38,108,0
0,70,85,0
0,58,82,57
0,54,68,0
0,44,82,0
0,63,80,0
0,66,80,0
0,34,105,15
0,53,64,0
0,36,106,0
0,42,83,0
0,62,94,0
0,65,93,0
0,58,87,23
0,58,53,0
0,44,82,0
0,62,85,0
0,71,90,0
0,65,90,0
0,34,108,7
0,36,102,0
0,42,86,0
0,38,108,0
0,73,85,0
0,56,48,6
0,58,85,2
0,44,82,0
0,62,73,0
0,71,84,0
0,65,87,0
0,53,30,7
0,27,110,1
0,51,61,0
0,36,105,0
0,42,90,0
0,63,96,0
0,66,94,0
0,70,86,0
0,58,78,56
0,44,82,0
0,63,86,0
0,66,87,0
0,27,110,21
0,36,101,0
0,42,88,0
0,38,107,0
0,70,83,0
0,58,82,57
0,54,74,0
0,44,81,0
0,63,80,0
0,66,80,0
0,34,105,1
0,53,69,0
0,36,104,0
0,42,88,0
0,62,96,0
0,65,97,0
0,58,87,5
0,58,60,0
0,44,81,0
0,62,85,0
0,68,88,0
0,65,90,0
0,34,108,1
0,36,100,0
0,42,84,0
0,38,106,0
0,71,86,0
0,56,57,0
0,58,85,2
0,44,77,0
0,62,73,0
0,68,81,0
0,65,87,0
0,53,34,7
0,27,110,3
0,51,57,0
0,36,111,0
0,42,83,0
0,63,86,0
0,63,95,0
0,66,94,0
0,70,84,0
0,58,78,58
0,44,81,0
0,63,86,0
0,66,87,0
0,27,110,46
0,36,105,0
0,42,83,0
0,38,109,0
0,63,94,1
0,58,82,59
0,44,82,0
0,63,80,0
0,66,80,0
0,63,88,1
0,27,105,3
0,36,103,0
0,42,82,0
0,61,83,1
0,58,78,5
0,44,78,0
0,63,86,0
0,66,87,0
0,58,88,5
0,27,108,55
0,36,99,0
0,42,88,0
0,38,107,0
0,58,82,13
0,44,79,0
0,63,80,0
0,66,80,0
0,82,32,17
0,46,76,1
0,86,49,0
0,34,110,3
0,36,107,0
0,42,94,0
0,62,96,0
0,65,87,0
0,65,88,0
0,58,78,57
0,44,82,0
0,62,86,0
0,65,87,0
0,34,110,11
0,36,103,0
0,42,86,0
0,38,109,0
0,65,88,0
0,46,91,10
0,58,82,4
0,44,82,0
0,62,80,0
0,67,85,0
0,65,80,0
0,81,28,0
0,41,63,0
0,84,45,0
0,29,105,3
0,36,105,0
0,42,84,0
0,60,92,0
0,65,85,0
0,57,78,6
0,44,83,0
0,60,86,0
0,63,83,0
0,65,87,0
0,29,108,2
0,36,101,0
0,42,92,0
0,38,109,0
0,62,83,0
0,41,89,9
0,57,82,2
0,44,82,0
0,60,80,0
0,63,83,0
0,65,80,0
0,50,47,0
0,38,110,2
0,36,105,0
0,42,84,0
0,62,90,0
0,65,86,0
0,57,78,54
0,44,79,0
0,62,86,0
0,65,87,0
0,38,110,21
0,36,101,0
0,42,88,0
0,38,108,0
0,65,87,0
0,50,81,51
0,57,82,6
0,44,82,0
0,62,80,0
0,65,80,0
0,43,57,8
0,79,22,1
0,83,36,1
0,31,105,3
0,36,106,0
0,42,83,0
0,55,78,23
0,44,82,0
0,62,86,0
0,63,86,0
0,65,87,0
0,31,108,14
0,36,102,0
0,42,86,0
0,38,108,0
0,65,83,0
0,43,96,0
0,59,82,3
0,44,82,0
0,62,80,0
0,63,85,0
0,65,80,0
0,48,58,0
0,36,110,3
0,36,105,0
0,42,90,0
0,64,42,0
0,70,98,0
0,62,88,0
0,58,73,18
0,44,82,0
0,60,73,0
0,64,86,0
0,67,87,0
0,36,110,20
0,36,101,0
0,42,88,0
0,38,107,0
0,62,88,0
0,58,82,57
0,48,89,0
0,44,81,0
0,60,82,0
0,64,80,0
0,67,80,0
0,53,56,3
0,29,105,2
0,36,104,0
0,42,88,0
0,63,93,0
0,69,96,0
0,57,78,20
0,44,81,0
0,60,90,0
0,60,86,0
0,65,87,0
0,29,108,9
0,36,100,0
0,42,84,0
0,38,107,0
0,62,84,0
0,53,80,2
0,57,82,2
0,44,77,0
0,60,87,0
0,60,80,0
0,65,80,0
0,46,55,3
0,34,110,4
0,36,111,0
0,49,83,0
0,62,88,0
0,58,89,0
0,65,88,0
0,58,78,69
0,44,44,0
0,62,86,0
0,65,87,0
0,46,43,56
0,34,110,2
0,36,105,0
0,49,79,0
0,38,104,0
0,58,82,59
0,44,42,0
0,62,80,0
0,65,80,0
0,41,74,2
0,29,105,0
0,36,103,0
0,49,86,0
0,38,79,0
0,65,103,0
0,57,78,49
0,44,53,0
0,60,86,0
0,65,87,0
0,38,49,27
0,38,58,0
0,38,68,5
0,29,108,1
0,41,54,0
0,36,99,0
0,49,68,0
0,63,101,0
0,53,85,0
0,38,95,2
0,38,81,4
0,57,82,13
0,38,73,0
0,44,48,0
0,60,80,0
0,63,80,0
0,34,106,28
0,36,107,0
0,42,94,0
0,58,27,0
0,62,101,0
0,50,101,0
0,62,92,0
0,58,75,57
0,44,82,0
0,62,74,0
0,54,74,0
0,65,74,0
0,34,105,11
0,36,103,0
0,42,86,0
0,38,102,0
0,62,89,0
0,62,61,7
0,58,74,58
0,44,82,0
0,62,77,0
0,54,78,0
0,65,79,0
0,34,110,10
0,36,105,0
0,42,84,0
0,41,93,0
0,58,79,54
0,44,83,0
0,62,78,0
0,54,82,0
0,62,91,0
0,65,78,0
0,34,105,2
0,36,101,0
0,42,92,0
0,38,105,0
0,63,83,0
0,58,77,11
0,44,82,0
0,62,76,0
0,54,78,0
0,64,81,0
0,65,78,0
0,34,107,11
0,36,105,0
0,42,84,0
0,50,91,0
0,65,85,0
0,58,77,6
0,44,79,0
0,58,83,0
0,62,76,0
0,54,78,0
0,65,78,0
0,34,111,1
0,36,101,0
0,42,88,0
0,60,85,0
0,38,107,0
0,58,77,5
0,44,82,0
0,62,76,0
0,54,74,0
0,61,85,0
0,65,78,0
0,36,111,5
0,36,106,0
0,42,83,0
0,62,16,0
0,36,60,0
0,62,84,0
0,58,78,55
0,44,82,0
0,62,76,0
0,54,78,0
0,67,72,0
0,36,109,9
0,36,102,0
0,42,86,0
0,55,84,0
0,38,107,0
0,58,79,58
0,44,82,0
0,62,79,0
0,54,74,0
0,67,74,0
0,65,42,4
0,29,106,3
0,36,105,0
0,42,90,0
0,51,27,0
0,60,95,0
0,41,96,0
0,60,85,0
0,57,75,56
0,44,82,0
0,60,76,0
0,54,78,0
0,63,76,0
0,29,109,4
0,36,101,0
0,42,88,0
0,60,81,0
0,38,104,0
0,57,76,57
0,44,81,0
0,60,79,0
0,54,71,0
0,63,76,0
0,29,108,1
0,36,104,0
0,42,88,0
0,48,94,0
0,57,77,8
0,44,81,0
0,60,71,0
0,54,78,0
0,63,74,0
0,29,108,17
0,36,100,0
0,42,84,0
0,38,104,0
0,62,89,0
0,57,74,57
0,44,77,0
0,60,77,0
0,54,74,0
0,63,77,0
0,70,22,5
0,36,108,1
0,36,111,0
0,42,83,0
0,63,91,0
0,41,93,0
0,63,86,0
0,58,76,58
0,44,81,0
0,63,78,0
0,54,78,0
0,67,70,0
0,36,105,32
0,36,105,0
0,42,83,0
0,38,104,0
0,58,75,59
0,44,82,0
0,63,81,0
0,54,74,0
0,67,78,0
0,69,64,3
0,29,105,2
0,36,103,0
0,42,82,0
0,48,83,0
0,57,77,58
0,44,78,0
0,60,77,0
0,54,78,0
0,63,76,0
0,29,108,37
0,36,99,0
0,42,88,0
0,53,88,0
0,38,101,0
0,57,75,52
0,44,79,0
0,60,80,0
0,54,82,0
0,63,76,0
0,29,106,40
0,36,107,0
0,42,94,0
0,41,94,0
0,63,86,0
0,57,83,57
0,44,82,0
0,60,76,0
0,54,82,0
0,63,75,0
0,29,108,21
0,36,103,0
0,42,86,0
0,38,106,0
0,63,83,0
0,57,74,58
0,44,82,0
0,60,77,0
0,54,78,0
0,63,76,0
0,72,67,44
0,29,110,1
0,36,105,0
0,42,84,0
0,48,81,0
0,57,74,7
0,44,83,0
0,60,74,0
0,54,78,0
0,63,88,0
0,63,74,0
0,29,106,3
0,36,101,0
0,42,92,0
0,38,107,0
0,65,83,0
0,57,74,15
0,44,82,0
0,60,74,0
0,54,82,0
0,67,85,0
0,63,77,0
0,74,73,1
0,34,105,2
0,36,105,0
0,42,84,0
0,65,91,0
0,50,75,0
0,65,82,0
0,70,70,4
0,58,77,6
0,44,79,0
0,62,76,0
0,54,74,0
0,62,84,0
0,65,77,0
0,72,73,27
0,34,107,1
0,36,101,0
0,42,88,0
0,38,105,0
0,63,82,0
0,74,73,8
0,58,76,3
0,44,82,0
0,62,76,0
0,54,74,0
0,65,79,0
0,65,79,0
0,72,68,1
0,29,105,6
0,36,106,0
0,42,83,0
0,63,82,0
0,41,91,0
0,63,84,0
0,57,75,55
0,44,82,0
0,60,75,0
0,54,74,0
0,63,74,0
0,69,56,8
0,29,111,1
0,36,102,0
0,42,86,0
0,60,82,0
0,38,103,0
0,57,75,58
0,44,82,0
0,60,77,0
0,54,71,0
0,63,80,0
0,74,67,1
0,34,112,4
0,36,105,0
0,42,90,0
0,65,90,0
0,50,91,0
0,65,85,0
0,58,77,56
0,44,82,0
0,62,76,0
0,54,78,0
