track,note,velocity,time
3,40,97,960
3,40,0,84
3,40,84,204
3,40,0,63
3,40,95,33
3,40,0,80
3,35,76,112
3,35,0,93
3,39,81,3
3,39,0,83
3,40,90,13
3,40,0,84
3,40,90,204
3,40,0,69
3,40,91,27
3,40,0,80
3,40,88,112
3,40,0,91
3,39,91,5
3,39,0,90
3,37,83,6
3,37,0,94
3,37,91,194
3,37,0,62
3,37,90,34
3,37,0,86
3,35,84,106
3,35,0,94
3,32,91,2
3,32,0,88
3,37,95,8
3,37,0,94
3,37,93,194
3,37,0,62
3,37,90,34
3,37,0,85
3,37,91,107
3,37,0,91
3,35,83,5
3,35,0,90
3,33,83,6
3,33,0,94
3,33,81,194
3,33,0,62
3,33,84,34
3,33,0,94
3,33,81,98
3,33,0,88
3,37,91,8
3,37,0,87
3,35,86,9
3,35,0,94
3,35,81,194
3,35,0,62
3,35,84,34
3,35,0,94
3,35,91,98
3,35,0,84
3,39,83,12
3,39,0,86
3,40,97,10
3,40,0,84
3,40,84,204
3,40,0,63
3,40,95,33
3,40,0,80
3,35,76,112
3,35,0,93
3,39,81,3
3,39,0,83
3,40,90,13
3,40,0,84
3,40,90,204
3,40,0,69
3,40,91,27
3,40,0,80
3,35,89,112
3,35,0,91
3,39,80,5
3,39,0,90
3,40,97,6
3,40,0,84
3,40,84,204
3,40,0,63
3,40,95,33
3,40,0,80
3,35,76,112
3,35,0,93
3,39,81,3
3,39,0,83
3,40,90,13
3,40,0,84
3,40,90,204
3,40,0,69
3,40,91,27
3,40,0,80
3,40,88,112
3,40,0,91
3,39,91,5
3,39,0,90
3,37,83,6
3,37,0,94
3,37,91,194
3,37,0,62
3,37,90,34
3,37,0,86
3,35,84,106
3,35,0,94
3,32,91,2
3,32,0,88
3,37,95,8
3,37,0,94
3,37,93,194
3,37,0,62
3,37,90,34
3,37,0,85
3,37,91,107
3,37,0,91
3,35,83,5
3,35,0,90
3,33,83,6
3,33,0,94
3,33,81,194
3,33,0,62
3,33,84,34
3,33,0,94
3,33,81,98
3,33,0,88
3,37,91,8
3,37,0,87
3,35,86,9
3,35,0,94
3,35,81,194
3,35,0,62
3,35,84,34
3,35,0,94
3,35,91,98
3,35,0,84
3,39,83,12
3,39,0,86
3,40,97,10
3,40,0,84
3,40,84,204
3,40,0,63
3,40,95,33
3,40,0,80
3,35,76,112
3,35,0,93
3,39,81,3
3,39,0,83
3,40,90,13
3,40,0,84
3,40,90,204
3,40,0,69
3,40,91,27
3,40,0,80
3,35,89,112
3,35,0,91
3,39,80,5
3,39,0,90
3,40,97,6
3,40,0,84
3,40,84,204
3,40,0,63
3,40,95,33
3,40,0,80
3,35,76,112
3,35,0,93
3,39,81,3
3,39,0,83
3,40,90,13
3,40,0,84
3,40,90,204
3,40,0,69
3,40,91,27
3,40,0,80
3,40,88,112
3,40,0,91
3,39,91,5
3,39,0,90
3,37,83,6
3,37,0,94
3,37,91,194
3,37,0,62
3,37,90,34
3,37,0,86
3,35,84,106
3,35,0,94
3,32,91,2
3,32,0,88
3,37,95,8
3,37,0,94
3,37,93,194
3,37,0,62
3,37,90,34
3,37,0,85
3,37,91,107
3,37,0,91
3,35,83,5
3,35,0,90
3,33,83,6
3,33,0,94
3,33,81,194
3,33,0,62
3,33,84,34
3,33,0,94
3,33,81,98
3,33,0,88
3,37,91,8
3,37,0,87
3,35,86,9
3,35,0,94
3,35,81,194
3,35,0,62
3,35,84,34
3,35,0,94
3,35,91,98
3,35,0,84
3,39,83,12
3,39,0,86
3,40,97,10
3,40,0,84
3,40,84,204
3,40,0,63
3,40,95,33
3,40,0,80
3,35,76,112
3,35,0,93
3,39,81,3
3,39,0,83
3,40,90,13
3,40,0,84
3,40,90,204
3,40,0,69
3,40,91,27
3,40,0,80
3,35,89,112
3,35,0,91
3,39,80,5
3,39,0,90
3,40,97,6
3,40,0,84
3,40,84,204
3,40,0,63
3,40,95,33
3,40,0,80
3,35,76,112
3,35,0,93
3,39,81,3
3,39,0,83
3,40,90,13
3,40,0,84
3,40,90,204
3,40,0,69
3,40,91,27
3,40,0,80
3,40,88,112
3,40,0,91
3,39,91,5
3,39,0,90
3,37,83,6
3,37,0,94
3,37,91,194
3,37,0,62
3,37,90,34
3,37,0,86
3,35,84,106
3,35,0,94
3,32,91,2
3,32,0,88
3,37,95,8
3,37,0,94
3,37,93,194
3,37,0,62
3,37,90,34
3,37,0,85
3,37,91,107
3,37,0,91
3,35,83,5
3,35,0,90
3,33,83,6
3,33,0,94
3,33,81,194
3,33,0,62
3,33,84,34
3,33,0,94
3,33,81,98
3,33,0,88
3,37,91,8
3,37,0,87
3,35,86,9
3,35,0,94
3,35,81,194
3,35,0,62
3,35,84,34
3,35,0,94
3,35,91,98
3,35,0,84
3,39,83,12
3,39,0,86
3,40,97,10
3,40,0,84
3,40,84,204
3,40,0,63
3,40,95,33
3,40,0,80
3,35,76,112
3,35,0,93
3,39,81,3
3,39,0,83
3,36,90,13
3,36,0,84
3,36,90,204
3,36,0,69
3,36,91,27
3,36,0,80
3,31,89,112
3,31,0,91
3,35,80,5
3,35,0,90
3,41,97,6
3,41,0,87
3,41,84,201
3,41,0,66
3,41,95,30
3,41,0,83
3,36,76,109
3,36,0,95
3,40,81,1
3,40,0,86
3,41,90,10
3,41,0,87
3,41,90,201
3,41,0,72
3,41,91,24
3,41,0,83
3,41,88,109
3,41,0,94
3,40,91,2
3,40,0,93
3,38,83,3
3,38,0,97
3,38,91,191
3,38,0,65
3,38,90,31
3,38,0,89
3,36,84,103
3,36,0,95
3,33,91,1
3,33,0,91
3,38,95,5
3,38,0,97
3,38,93,191
3,38,0,65
3,38,90,31
3,38,0,88
3,38,91,104
3,38,0,94
3,36,83,2
3,36,0,93
3,34,83,3
3,34,0,97
3,34,81,191
3,34,0,65
3,34,84,31
3,34,0,97
3,34,81,95
3,34,0,91
3,38,91,5
3,38,0,90
3,36,86,6
3,36,0,97
3,36,81,191
3,36,0,65
3,36,84,31
3,36,0,97
3,36,91,95
3,36,0,87
3,40,83,9
3,40,0,89
3,41,97,7
3,41,0,87
3,41,84,201
3,41,0,66
3,41,95,30
3,41,0,83
3,36,76,109
3,36,0,95
3,40,81,1
3,40,0,86
3,41,90,10
3,41,0,87
3,41,90,201
3,41,0,72
3,41,91,24
3,41,0,83
3,36,89,109
3,36,0,94
3,40,80,2
3,40,0,93
3,41,100,3
3,41,0,87
3,41,87,201
3,41,0,66
3,41,98,30
3,41,0,83
3,36,79,109
3,36,0,95
3,40,84,1
3,40,0,86
3,41,93,10
3,41,0,87
3,41,93,201
3,41,0,72
3,41,94,24
3,41,0,83
3,41,91,109
3,41,0,94
3,40,94,2
3,40,0,93
3,38,86,3
3,38,0,97
3,38,94,191
3,38,0,65
3,38,93,31
3,38,0,89
3,36,87,103
3,36,0,95
3,33,94,1
3,33,0,91
3,38,98,5
3,38,0,97
3,38,96,191
3,38,0,65
3,38,93,31
3,38,0,88
3,38,94,104
3,38,0,94
3,36,86,2
3,36,0,93
3,34,86,3
3,34,0,97
3,34,84,191
3,34,0,65
3,34,87,31
3,34,0,97
3,34,84,95
3,34,0,91
3,38,94,5
3,38,0,90
3,36,89,6
3,36,0,97
3,36,84,191
3,36,0,65
3,36,87,31
3,36,0,97
3,36,94,95
3,36,0,87
3,40,86,9
3,40,0,89
3,41,100,7
3,41,0,87
3,41,87,201
3,41,0,66
3,41,98,30
3,41,0,83
3,36,79,109
3,36,0,95
3,40,84,1
3,40,0,86
3,41,93,10
3,41,0,87
3,41,93,201
3,41,0,72
3,41,94,24
3,41,0,83
3,36,92,109
3,36,0,94
3,40,83,2
3,40,0,93
3,41,102,3
3,41,0,87
3,41,89,201
3,41,0,66
3,41,100,30
3,41,0,83
3,36,81,109
3,36,0,95
3,40,86,1
3,40,0,86
3,41,95,10
3,41,0,87
3,41,95,201
3,41,0,72
3,41,96,24
3,41,0,83
3,41,93,109
3,41,0,94
3,40,96,2
3,40,0,93
3,38,88,3
3,38,0,97
3,38,96,191
3,38,0,65
3,38,95,31
3,38,0,89
3,36,89,103
3,36,0,95
3,33,96,1
3,33,0,91
3,38,100,5
3,38,0,97
3,38,98,191
3,38,0,65
3,38,95,31
3,38,0,88
3,38,96,104
3,38,0,94
3,36,88,2
3,36,0,93
3,34,88,3
3,34,0,97
3,34,86,191
3,34,0,65
3,34,89,31
3,34,0,97
3,34,86,95
3,34,0,91
3,38,96,5
3,38,0,90
3,36,91,6
3,36,0,97
3,36,86,191
3,36,0,65
3,36,89,31
3,36,0,97
3,36,96,95
3,36,0,87
3,40,88,9
3,40,0,89
3,41,102,7
3,41,0,87
3,41,89,201
3,41,0,66
3,41,100,30
3,41,0,83
3,36,81,109
3,36,0,95
3,40,86,1
3,40,0,86
3,37,100,10
3,37,0,87
3,37,99,201
3,37,0,72
3,37,100,24
3,37,0,83
3,32,99,109
3,32,0,94
3,36,91,2
3,36,0,93
3,42,100,3
3,42,0,87
3,42,90,201
3,42,0,66
3,42,101,30
3,42,0,83
3,37,82,109
3,37,0,95
3,41,87,1
3,41,0,86
3,42,96,10
3,42,0,87
3,42,96,201
3,42,0,72
3,42,97,24
3,42,0,83
3,42,94,109
3,42,0,94
3,41,97,2
3,41,0,93
3,39,89,3
3,39,0,97
3,39,97,191
3,39,0,65
3,39,96,31
3,39,0,89
3,37,90,103
3,37,0,95
3,34,97,1
3,34,0,91
3,39,101,5
3,39,0,97
3,39,99,191
3,39,0,65
3,39,96,31
3,39,0,88
3,39,97,104
3,39,0,94
3,37,89,2
3,37,0,93
3,35,89,3
3,35,0,97
3,35,87,191
3,35,0,65
3,35,90,31
3,35,0,97
3,35,87,95
3,35,0,91
3,39,97,5
3,39,0,90
3,37,92,6
3,37,0,97
3,37,87,191
3,37,0,65
3,37,90,31
3,37,0,97
3,37,97,95
3,37,0,87
3,41,89,9
3,41,0,89
3,42,103,7
3,42,0,87
3,42,90,201
3,42,0,66
3,42,101,30
3,42,0,83
3,37,82,109
3,37,0,95
3,41,87,1
3,41,0,86
3,42,101,10
3,42,0,87
3,42,100,201
3,42,0,72
3,42,101,24
3,42,0,83
3,37,100,109
3,37,0,94
3,41,92,2
3,41,0,93
3,42,100,3
3,42,0,87
3,42,90,201
3,42,0,66
3,42,101,30
3,42,0,83
3,37,82,109
3,37,0,95
3,41,87,1
3,41,0,86
3,42,96,10
3,42,0,87
3,42,96,201
3,42,0,72
3,42,97,24
3,42,0,83
3,42,94,109
3,42,0,94
3,41,97,2
3,41,0,93
3,39,89,3
3,39,0,97
3,39,97,191
3,39,0,65
3,39,96,31
3,39,0,89
3,37,90,103
3,37,0,95
3,34,97,1
3,34,0,91
3,39,101,5
3,39,0,97
3,39,99,191
3,39,0,65
3,39,96,31
3,39,0,88
3,39,97,104
3,39,0,94
3,37,89,2
3,37,0,93
3,35,89,3
3,35,0,97
3,35,87,191
3,35,0,65
3,35,90,31
3,35,0,97
3,35,87,95
3,35,0,91
3,39,97,5
3,39,0,90
3,37,92,6
3,37,0,97
3,37,87,191
3,37,0,65
3,37,90,31
3,37,0,97
3,37,97,95
3,37,0,87
3,41,89,9
3,41,0,89
3,42,103,7
3,42,0,87
3,42,90,201
3,42,0,66
3,42,101,30
3,42,0,83
3,37,82,109
3,37,0,95
3,41,87,1
3,41,0,86
3,42,101,10
3,42,0,87
3,42,100,201
3,42,0,72
3,42,101,24
3,42,0,83
3,37,100,109
3,37,0,94
3,41,92,2
3,41,0,93
3,42,105,3
3,42,0,87
3,42,92,201
3,42,0,66
3,42,103,30
3,42,0,83
3,37,84,109
3,37,0,95
3,41,89,1
3,41,0,86
3,42,98,10
3,42,0,87
3,42,98,201
3,42,0,72
3,42,99,24
3,42,0,83
3,42,96,109
3,42,0,94
3,41,99,2
3,41,0,93
3,39,91,3
3,39,0,97
3,39,99,191
3,39,0,65
3,39,98,31
3,39,0,89
3,37,92,103
3,37,0,95
3,34,99,1
3,34,0,91
3,39,103,5
3,39,0,97
3,39,101,191
3,39,0,65
3,39,98,31
3,39,0,88
3,39,99,104
3,39,0,94
3,37,91,2
3,37,0,93
3,35,91,3
3,35,0,97
3,35,89,191
3,35,0,65
3,35,92,31
3,35,0,97
3,35,89,95
3,35,0,91
3,39,99,5
3,39,0,90
3,37,94,6
3,37,0,97
3,37,89,191
3,37,0,65
3,37,92,31
3,37,0,97
3,37,99,95
3,37,0,87
3,41,91,9
3,41,0,89
3,42,105,7
3,42,0,87
3,42,92,201
3,42,0,66
3,42,103,30
3,42,0,83
3,37,84,109
3,37,0,95
3,41,89,1
3,41,0,86
3,42,103,10
3,42,0,87
3,42,102,201
3,42,0,72
3,42,103,24
3,42,0,83
3,37,102,109
3,37,0,94
3,41,94,2
3,41,0,93
3,42,107,3
3,42,0,87
3,42,94,201
3,42,0,66
3,42,105,30
3,42,0,83
3,37,86,109
3,37,0,95
3,41,91,1
3,41,0,86
3,42,100,10
3,42,0,87
3,42,100,201
3,42,0,72
3,42,101,24
3,42,0,83
3,42,98,109
3,42,0,94
3,41,101,2
3,41,0,93
3,39,93,3
3,39,0,97
3,39,101,191
3,39,0,65
3,39,100,31
3,39,0,89
3,37,94,103
3,37,0,95
3,34,101,1
3,34,0,91
3,39,105,5
3,39,0,97
3,39,103,191
3,39,0,65
3,39,100,31
3,39,0,88
3,39,101,104
3,39,0,94
3,37,93,2
3,37,0,93
3,35,93,3
3,35,0,97
3,35,91,191
3,35,0,65
3,35,94,31
3,35,0,97
3,35,91,95
3,35,0,91
3,39,101,5
3,39,0,90
3,37,96,6
3,37,0,97
3,37,91,191
3,37,0,65
3,37,94,31
3,37,0,97
3,37,101,95
3,37,0,87
3,41,93,9
3,41,0,89
3,42,107,7
3,42,0,87
3,42,95,201
3,42,0,66
3,42,106,30
3,42,0,83
3,37,88,109
3,37,0,95
3,41,93,1
3,41,0,86
3,42,107,10
3,42,0,87
3,42,107,201
3,42,0,72
3,42,109,24
3,42,0,83
3,37,108,109
3,37,0,94
3,41,101,2
3,41,0,93
3,42,112,3
3,42,0,87
3,42,104,9
3,42,0,87
3,42,100,105
3,42,0,66
3,42,112,30
3,42,0,83
3,37,93,109
3,37,0,95
3,41,99,1
3,41,0,86
3,42,113,10
3,42,0,87
3,42,113,201
3,42,0,72
3,42,114,24
3,42,0,83
3,37,114,109
3,37,0,94
3,41,106,2
3,41,0,93
3,42,118,3
3,42,0,759
4,71,46,11712
4,76,46,0
4,71,0,574
4,76,0,1
4,71,50,1
4,71,0,80
4,75,50,16
4,75,0,80
4,71,52,16
4,76,52,0
4,71,0,574
4,76,0,1
4,71,55,1
4,71,0,80
4,75,55,16
4,75,0,80
4,71,53,16
4,76,53,0
4,71,0,574
4,76,0,1
4,71,53,1
4,71,0,80
4,75,53,16
4,75,0,80
4,71,53,16
4,76,53,0
4,71,0,574
4,76,0,1
4,76,53,1
4,76,0,80
4,75,53,16
4,75,0,80
4,68,53,16
4,73,53,0
4,68,0,574
4,73,0,1
4,68,53,1
4,68,0,80
4,71,53,16
4,71,0,80
4,68,53,16
4,73,53,0
4,68,0,574
4,73,0,1
4,73,53,1
4,73,0,80
4,71,53,16
4,71,0,80
4,64,53,16
4,69,53,0
4,64,0,574
4,69,0,1
4,69,53,1
4,69,0,80
4,73,53,16
4,73,0,80
4,66,53,16
4,71,53,0
4,66,0,574
4,71,0,1
4,71,53,1
4,71,0,80
4,75,53,16
4,75,0,80
4,71,53,16
4,76,53,0
4,71,0,574
4,76,0,1
4,71,53,1
4,71,0,80
4,75,53,16
4,75,0,80
4,71,53,16
4,76,53,0
4,71,0,574
4,76,0,1
4,71,53,1
4,71,0,80
4,75,53,16
4,75,0,80
4,71,61,16
4,76,61,0
4,71,0,574
4,76,0,1
4,71,61,1
4,71,0,80
4,75,61,16
4,75,0,80
4,71,61,16
4,76,61,0
4,71,0,574
4,76,0,1
4,76,61,1
4,76,0,80
4,75,61,16
4,75,0,80
