track,note,velocity,time
3,39,99,6312
3,39,0,372
3,46,99,268
3,46,0,488
3,48,90,24
3,48,0,244
3,39,99,140
3,39,0,372
3,46,99,268
3,46,0,488
3,48,90,24
3,48,0,244
3,39,99,140
3,39,0,372
3,46,99,268
3,46,0,488
3,48,90,24
3,48,0,244
3,39,99,140
3,39,0,372
3,46,99,268
3,46,0,488
3,48,90,24
3,48,0,244
3,39,99,140
3,39,0,372
3,46,99,268
3,46,0,488
3,48,90,24
3,48,0,244
3,39,99,140
3,39,0,372
3,46,99,268
3,46,0,488
3,48,90,24
3,48,0,244
3,39,99,140
3,39,0,372
3,46,99,268
3,46,0,488
3,48,90,24
3,48,0,244
3,39,99,140
3,39,0,372
3,46,99,268
3,46,0,488
3,48,90,24
3,48,0,244
3,47,99,140
3,47,0,372
3,54,76,268
3,54,0,488
3,56,71,24
3,56,0,244
3,47,99,140
3,47,0,372
3,54,75,268
3,54,0,488
3,56,72,24
3,56,0,244
3,39,99,140
3,39,0,372
3,34,99,268
3,34,0,488
3,36,90,24
3,36,0,244
3,39,99,140
3,39,0,372
3,34,99,268
3,34,0,488
3,36,90,24
3,36,0,244
3,39,99,140
3,39,0,372
3,34,99,268
3,34,0,488
3,36,90,24
3,36,0,244
3,39,99,140
3,39,0,372
3,34,99,268
3,34,0,488
3,36,90,24
3,36,0,244
3,39,99,140
3,39,0,372
3,34,99,268
3,34,0,488
3,36,90,24
3,36,0,244
3,39,99,140
3,39,0,372
3,34,99,268
3,34,0,488
3,36,90,24
3,36,0,244
3,36,99,140
3,36,0,372
3,31,99,268
3,31,0,488
3,34,90,24
3,34,0,244
3,36,99,140
3,36,0,372
3,31,99,268
3,31,0,488
3,34,90,24
3,34,0,244
3,39,99,140
3,39,0,372
3,34,99,268
3,34,0,488
3,36,90,24
3,36,0,244
3,39,99,140
3,39,0,372
3,34,99,268
3,34,0,488
3,36,90,24
3,36,0,244
3,39,105,140
3,39,0,372
3,34,105,268
3,34,0,488
3,37,96,24
3,37,0,244
3,39,105,140
3,39,0,372
3,34,105,268
3,34,0,488
3,37,96,24
3,37,0,244
3,39,105,140
3,39,0,372
3,34,105,268
3,34,0,488
3,37,96,24
3,37,0,244
3,39,105,140
3,39,0,372
3,34,105,268
3,34,0,488
3,37,96,24
3,37,0,244
3,35,105,140
3,35,0,372
3,42,105,268
3,42,0,488
3,44,96,24
3,44,0,244
3,35,105,140
3,35,0,372
3,42,105,268
3,42,0,488
3,44,96,24
3,44,0,244
3,39,105,140
3,39,0,372
3,34,105,268
3,34,0,488
3,37,96,24
3,37,0,244
3,39,105,140
3,39,0,372
3,34,105,268
3,34,0,488
3,37,105,24
3,37,0,244
3,39,105,140
3,39,0,372
3,34,105,268
3,34,0,488
3,37,96,24
3,37,0,244
3,39,105,140
3,39,0,372
3,34,105,268
3,34,0,488
3,37,96,24
3,37,0,244
3,39,105,140
3,39,0,372
3,34,105,268
3,34,0,488
3,37,96,24
3,37,0,244
3,39,105,140
3,39,0,372
3,34,105,268
3,34,0,488
3,37,96,24
3,37,0,244
3,35,105,140
3,35,0,372
3,42,105,268
3,42,0,488
3,44,96,24
3,44,0,244
3,35,105,140
3,35,0,372
3,42,105,268
3,42,0,488
3,44,96,24
3,44,0,244
3,39,105,140
3,39,0,372
3,46,105,268
3,46,0,488
3,37,96,24
3,37,0,244
3,39,105,140
3,39,0,372
3,51,94,4236
3,51,0,344
3,46,92,424
3,46,0,332
3,51,92,436
3,51,0,352
3,46,92,416
3,46,0,340
3,49,92,428
3,49,0,348
3,44,92,420
3,44,0,348
3,49,85,420
3,49,0,348
3,44,87,420
3,44,0,376
3,47,87,392
3,47,0,368
3,42,94,400
3,42,0,368
3,47,85,400
3,47,0,392
3,42,92,376
3,42,0,436
3,46,98,332
3,46,0,212
3,46,98,172
3,46,0,220
3,46,94,4
3,46,0,224
3,39,99,2240
3,39,0,372
3,46,99,268
3,46,0,488
3,48,90,24
3,48,0,244
3,39,99,140
3,39,0,372
3,46,99,268
3,46,0,488
3,48,90,24
3,48,0,244
3,39,99,140
3,39,0,372
3,46,99,268
3,46,0,488
3,48,90,24
3,48,0,244
3,39,99,140
3,39,0,372
3,46,99,268
3,46,0,488
3,48,90,24
3,48,0,244
3,47,99,140
3,47,0,372
3,54,99,268
3,54,0,488
3,56,90,24
3,56,0,244
3,47,99,140
3,47,0,372
3,54,99,268
3,54,0,488
3,56,90,24
3,56,0,244
3,39,99,140
3,39,0,372
3,34,99,268
3,34,0,488
3,36,90,24
3,36,0,244
3,39,99,140
3,39,0,372
3,34,99,268
3,34,0,488
3,36,90,24
3,36,0,244
3,39,99,140
3,39,0,372
3,34,99,268
3,34,0,488
3,36,90,24
3,36,0,244
3,39,99,140
3,39,0,372
3,34,99,268
3,34,0,488
3,36,90,24
3,36,0,244
3,39,99,140
3,39,0,372
3,34,99,268
3,34,0,488
3,36,90,24
3,36,0,244
3,39,99,140
3,39,0,372
3,34,99,268
3,34,0,488
3,36,90,24
3,36,0,244
3,36,99,140
3,36,0,372
3,31,99,268
3,31,0,488
3,34,90,24
3,34,0,244
3,36,99,140
3,36,0,372
3,31,99,268
3,31,0,488
3,34,90,24
3,34,0,244
3,39,99,140
3,39,0,372
3,34,99,268
3,34,0,488
3,36,90,24
3,36,0,244
3,39,99,140
3,39,0,372
3,34,99,268
3,34,0,488
3,36,90,24
3,36,0,244
3,39,109,140
3,39,0,372
3,34,109,268
3,34,0,488
3,37,100,24
3,37,0,244
3,39,109,140
3,39,0,372
3,34,109,268
3,34,0,488
3,37,100,24
3,37,0,244
3,39,109,140
3,39,0,372
3,34,109,268
3,34,0,488
3,37,100,24
3,37,0,244
3,39,109,140
3,39,0,372
3,34,109,268
3,34,0,488
3,37,100,24
3,37,0,244
3,35,109,140
3,35,0,372
3,42,109,268
3,42,0,488
3,44,100,24
3,44,0,244
3,35,109,140
3,35,0,372
3,42,109,268
3,42,0,488
3,44,100,24
3,44,0,244
3,39,109,140
3,39,0,372
3,34,109,268
3,34,0,488
3,37,100,24
3,37,0,244
3,39,109,140
3,39,0,372
3,34,109,268
3,34,0,488
3,37,109,24
3,37,0,244
3,39,109,140
3,39,0,372
3,34,109,268
3,34,0,488
3,37,100,24
3,37,0,244
3,39,109,140
3,39,0,372
3,34,109,268
3,34,0,488
3,37,100,24
3,37,0,244
3,39,109,140
3,39,0,372
3,34,109,268
3,34,0,488
3,37,100,24
3,37,0,244
3,39,109,140
3,39,0,372
3,34,109,268
3,34,0,488
3,37,100,24
3,37,0,244
3,35,109,140
3,35,0,372
3,42,109,268
3,42,0,488
3,44,100,24
3,44,0,244
3,35,109,140
3,35,0,372
3,42,109,268
3,42,0,488
3,44,100,24
3,44,0,244
3,39,109,140
3,39,0,372
3,46,109,268
3,46,0,488
3,37,100,24
3,37,0,244
3,39,109,140
3,39,0,372
3,51,97,4236
3,51,0,344
3,46,95,424
3,46,0,332
3,51,95,436
3,51,0,352
3,46,95,416
3,46,0,340
3,49,95,428
3,49,0,348
3,44,95,420
3,44,0,348
3,49,88,420
3,49,0,348
3,44,90,420
3,44,0,376
3,47,90,392
3,47,0,368
3,42,97,400
3,42,0,368
3,47,88,400
3,47,0,392
3,42,95,376
3,42,0,436
3,46,90,332
3,46,0,368
3,41,97,400
3,41,0,368
3,46,88,400
3,46,0,392
3,41,95,376
3,41,0,264
3,46,95,120
3,46,0,264
3,51,97,120
3,51,0,344
3,46,95,424
3,46,0,332
3,51,95,436
3,51,0,352
3,46,95,416
3,46,0,340
3,49,95,428
3,49,0,348
3,44,95,420
3,44,0,348
3,49,88,420
3,49,0,348
3,44,90,420
3,44,0,376
3,47,90,392
3,47,0,368
3,42,97,400
3,42,0,368
3,47,88,400
3,47,0,264
3,39,101,7416
3,39,0,328
3,43,94,56
3,43,0,352
3,44,101,32
3,44,0,352
3,45,100,32
3,45,0,352
3,46,99,32
3,46,0,352
3,44,95,32
3,44,0,352
3,43,92,32
3,43,0,352
3,41,96,32
3,41,0,352
3,39,99,32
3,39,0,348
3,43,99,36
3,43,0,352
3,44,100,32
3,44,0,352
3,45,99,32
3,45,0,352
3,46,100,32
3,46,0,352
3,44,102,32
3,44,0,352
3,43,100,32
3,43,0,344
3,41,96,40
3,41,0,352
3,39,100,32
3,39,0,332
3,43,99,52
3,43,0,352
3,46,101,32
3,46,0,332
3,43,99,52
3,43,0,352
3,44,99,32
3,44,0,344
3,43,102,40
3,43,0,352
3,41,97,32
3,41,0,352
3,36,99,32
3,36,0,352
3,34,99,32
3,34,0,344
3,36,102,40
3,36,0,352
3,38,97,32
3,38,0,352
3,41,99,32
3,41,0,352
3,39,101,32
3,39,0,348
3,43,94,36
3,43,0,352
3,44,101,32
3,44,0,352
3,46,100,32
3,46,0,352
3,39,101,32
3,39,0,328
3,43,94,56
3,43,0,352
3,44,101,32
3,44,0,352
3,45,100,32
3,45,0,352
3,46,99,32
3,46,0,352
3,44,95,32
3,44,0,352
3,43,92,32
3,43,0,352
3,41,96,32
3,41,0,352
3,39,99,32
3,39,0,348
3,43,99,36
3,43,0,352
3,44,100,32
3,44,0,352
3,45,99,32
3,45,0,352
3,46,100,32
3,46,0,352
3,44,102,32
3,44,0,352
3,43,100,32
3,43,0,344
3,41,96,40
3,41,0,352
3,39,100,32
3,39,0,332
3,43,99,52
3,43,0,352
3,46,101,32
3,46,0,332
3,43,99,52
3,43,0,352
3,44,99,32
3,44,0,344
3,43,102,40
3,43,0,352
3,41,97,32
3,41,0,352
3,36,99,32
3,36,0,352
3,34,99,32
3,34,0,344
3,36,102,40
3,36,0,352
3,38,97,32
3,38,0,352
3,41,99,32
3,41,0,352
3,39,101,32
3,39,0,348
3,43,94,36
3,43,0,352
3,44,101,32
3,44,0,352
3,46,100,32
3,46,0,352
3,39,101,32
3,39,0,328
3,43,94,56
3,43,0,352
3,44,101,32
3,44,0,352
3,45,100,32
3,45,0,352
3,46,99,32
3,46,0,352
3,44,95,32
3,44,0,352
3,43,92,32
3,43,0,352
3,41,96,32
3,41,0,352
3,39,99,32
3,39,0,348
3,43,99,36
3,43,0,352
3,44,100,32
3,44,0,352
3,45,99,32
3,45,0,352
3,46,100,32
3,46,0,352
3,44,102,32
3,44,0,352
3,43,100,32
3,43,0,344
3,41,96,40
3,41,0,352
3,39,100,32
3,39,0,332
3,43,99,52
3,43,0,352
3,46,101,32
3,46,0,332
3,43,99,52
3,43,0,352
3,44,99,32
3,44,0,344
3,43,102,40
3,43,0,352
3,41,97,32
3,41,0,352
3,36,99,32
3,36,0,352
3,34,99,32
3,34,0,344
3,36,102,40
3,36,0,352
3,38,97,32
3,38,0,352
3,41,99,32
3,41,0,352
3,39,101,32
3,39,0,348
3,34,94,36
3,39,101,232
3,34,0,120
3,39,0,232
4,46,53,168
4,51,67,8
4,58,29,12
4,46,0,104
4,51,0,8
4,58,0,12
4,51,45,112
4,46,35,12
4,51,0,72
4,46,0,12
4,46,67,32
4,51,82,8
4,60,46,12
4,46,0,132
4,51,0,8
4,51,46,96
4,60,0,8
4,46,35,4
4,51,0,60
4,46,0,12
4,46,48,44
4,51,63,8
4,58,29,12
4,46,0,104
4,51,0,12
4,58,0,12
4,51,45,108
4,46,35,12
4,51,0,60
4,46,0,12
4,46,67,44
4,51,82,8
4,60,45,12
4,46,0,128
4,51,0,8
4,51,45,100
4,60,0,12
4,46,34,0
4,51,0,68
4,46,0,12
4,46,53,36
4,51,67,8
4,58,28,12
4,46,0,152
4,51,0,12
4,58,0,12
4,51,45,60
4,46,34,8
4,51,0,48
4,46,0,8
4,46,66,64
4,51,82,8
4,60,45,12
4,46,0,104
4,51,0,12
4,51,44,120
4,46,34,8
4,60,0,8
4,51,0,76
4,46,0,12
4,46,57,24
4,51,72,8
4,58,27,12
4,46,0,152
4,51,0,12
4,58,0,12
4,51,46,60
4,46,35,8
4,51,0,36
4,46,0,12
4,46,67,72
4,51,82,8
4,60,45,12
4,46,0,120
4,51,0,8
4,51,43,108
4,46,32,8
4,60,0,8
4,51,0,76
4,46,0,12
4,46,53,24
4,51,67,8
4,58,29,12
4,46,0,104
4,51,0,8
4,58,0,12
4,51,45,112
4,46,35,12
4,51,0,72
4,46,0,12
4,46,67,32
4,51,82,8
4,60,46,12
4,46,0,132
4,51,0,8
4,51,46,96
4,60,0,8
4,46,35,4
4,51,0,60
4,46,0,12
4,46,48,44
4,51,63,8
4,58,29,12
4,46,0,104
4,51,0,12
4,58,0,12
4,51,45,108
4,46,35,12
4,51,0,60
4,46,0,12
4,46,67,44
4,51,82,8
4,60,45,12
4,46,0,128
4,51,0,8
4,51,45,100
4,60,0,12
4,46,34,0
4,51,0,68
4,46,0,12
4,46,53,36
4,51,67,8
4,58,28,12
4,46,0,152
4,51,0,12
4,58,0,12
4,51,45,60
4,46,34,8
4,51,0,48
4,46,0,8
4,46,66,64
4,51,82,8
4,60,45,12
4,46,0,104
4,51,0,12
4,51,44,120
4,46,34,8
4,60,0,8
4,51,0,76
4,46,0,12
4,46,57,24
4,51,72,8
4,58,27,12
4,46,0,152
4,51,0,12
4,58,0,12
4,51,46,60
4,46,35,8
4,51,0,36
4,46,0,12
4,46,67,72
4,51,82,8
4,60,45,12
4,46,0,120
4,51,0,8
4,51,43,108
4,46,32,8
4,60,0,8
4,51,0,76
4,46,0,12
4,46,53,24
4,51,67,8
4,58,29,12
4,46,0,104
4,51,0,8
4,58,0,12
4,51,45,112
4,46,35,12
4,51,0,72
4,46,0,12
4,46,67,32
4,51,82,8
4,60,46,12
4,46,0,132
4,51,0,8
4,51,46,96
4,60,0,8
4,46,35,4
4,51,0,60
4,46,0,12
4,46,48,44
4,51,63,8
4,58,29,12
4,46,0,104
4,51,0,12
4,58,0,12
4,51,45,108
4,46,35,12
4,51,0,60
4,46,0,12
4,46,67,44
4,51,82,8
4,60,45,12
4,46,0,128
4,51,0,8
4,51,45,100
4,60,0,12
4,46,34,0
4,51,0,68
4,46,0,12
4,46,53,36
4,51,67,8
4,58,28,12
4,46,0,152
4,51,0,12
4,58,0,12
4,51,45,60
4,46,34,8
4,51,0,48
4,46,0,8
4,46,66,64
4,51,82,8
4,60,45,12
4,46,0,104
4,51,0,12
4,51,44,120
4,46,34,8
4,60,0,8
4,51,0,76
4,46,0,12
4,46,57,24
4,51,72,8
4,58,27,12
4,46,0,152
4,51,0,12
4,58,0,12
4,51,46,60
4,46,35,8
4,51,0,36
4,46,0,12
4,46,67,72
4,51,82,8
4,60,45,12
4,46,0,120
4,51,0,8
4,51,43,108
4,46,32,8
4,60,0,8
4,51,0,76
4,46,0,12
4,46,53,24
4,51,67,8
4,58,29,12
4,46,0,104
4,51,0,8
4,58,0,12
4,51,45,112
4,46,35,12
4,51,0,72
4,46,0,12
4,46,67,32
4,51,82,8
4,60,46,12
4,46,0,132
4,51,0,8
4,51,46,96
4,60,0,8
4,46,35,4
4,51,0,60
4,46,0,12
4,46,48,44
4,51,63,8
4,58,29,12
4,46,0,104
4,51,0,12
4,58,0,12
4,51,45,108
4,46,35,12
4,51,0,60
4,46,0,12
4,46,67,44
4,51,82,8
4,60,45,12
4,46,0,128
4,51,0,8
4,51,45,100
4,60,0,12
4,46,34,0
4,51,0,68
4,46,0,12
4,46,53,36
4,51,67,8
4,58,28,12
4,46,0,152
4,51,0,12
4,58,0,12
4,51,45,60
4,46,34,8
4,51,0,48
4,46,0,8
4,46,66,64
4,51,82,8
4,60,45,12
4,46,0,104
4,51,0,12
4,51,44,120
4,46,34,8
4,60,0,8
4,51,0,76
4,46,0,12
4,46,57,24
4,51,72,8
4,58,27,12
4,46,0,152
4,51,0,12
4,58,0,12
4,51,46,60
4,46,35,8
4,51,0,36
4,46,0,12
4,46,67,72
4,51,82,8
4,60,45,12
4,46,0,120
4,51,0,8
4,51,43,108
4,46,32,8
4,60,0,8
4,51,0,76
4,46,0,12
4,46,53,24
4,51,67,8
4,46,0,104
4,51,0,8
