track,note,velocity,time
4,32,113,1348
4,32,0,194
4,32,122,284
4,32,0,218
4,32,113,254
4,32,0,242
4,42,113,246
4,42,0,224
4,40,96,8
4,40,0,229
4,32,113,21
4,32,0,235
4,32,112,243
4,32,0,238
4,32,120,246
4,32,0,245
4,42,107,230
4,40,93,241
4,42,0,9
4,40,0,224
4,32,112,11
4,32,0,231
4,32,120,249
4,32,0,255
4,32,121,232
4,32,0,239
4,42,113,235
4,42,0,219
4,40,96,16
4,40,0,222
4,32,112,17
4,32,0,229
4,32,113,251
4,32,0,234
4,32,112,253
4,32,0,120
4,32,115,108
4,32,0,201
4,42,107,50
4,42,0,199
4,40,102,38
4,40,0,202
4,32,113,38
4,32,0,194
4,32,122,284
4,32,0,218
4,32,112,254
4,32,0,242
4,42,113,246
4,42,0,224
4,40,97,8
4,40,0,229
4,28,112,13
4,28,0,235
4,28,112,242
4,28,0,237
4,28,121,246
4,28,0,245
4,42,107,240
4,40,92,241
4,42,0,9
4,40,0,224
4,35,112,1
4,35,0,230
4,35,121,248
4,35,0,257
4,35,120,231
4,35,0,239
4,42,113,246
4,42,0,219
4,40,97,16
4,40,0,222
4,34,112,12
4,34,0,227
4,34,113,251
4,34,0,234
4,34,112,254
4,34,0,120
4,34,114,106
4,34,0,202
4,42,107,57
4,42,0,199
4,40,103,38
4,40,0,202
4,32,112,38
4,32,0,194
4,32,122,284
4,32,0,218
4,32,113,254
4,32,0,242
4,42,113,246
4,42,0,224
4,40,96,8
4,40,0,229
4,28,112,13
4,28,0,235
4,28,113,242
4,28,0,237
4,28,120,246
4,28,0,245
4,42,107,240
4,40,93,241
4,42,0,9
4,40,0,224
4,35,112,1
4,35,0,230
4,35,121,248
4,35,0,257
4,35,120,231
4,35,0,239
4,42,112,246
4,42,0,219
4,40,97,16
4,40,0,222
4,34,113,12
4,34,0,227
4,34,112,251
4,34,0,234
4,34,112,254
4,34,0,120
4,34,115,106
4,34,0,202
4,42,107,57
4,42,0,199
4,40,102,38
4,40,0,202
4,32,106,30
4,32,0,250
4,32,107,232
4,32,0,247
4,30,102,234
4,30,0,235
4,30,107,244
4,30,0,269
4,28,81,216
4,28,0,227
4,28,102,247
4,28,0,258
4,28,103,224
4,28,0,210
4,28,96,269
4,28,0,240
4,35,96,243
4,35,0,216
4,35,97,260
4,35,0,254
4,35,93,226
4,35,0,238
4,35,88,244
4,35,0,267
4,34,106,212
4,34,0,234
4,34,103,245
4,34,0,278
4,34,93,202
4,34,0,157
4,34,106,80
4,34,0,224
4,42,92,18
4,42,0,226
4,40,81,11
4,32,92,244
4,40,0,4
4,32,0,242
4,32,103,236
4,32,0,273
4,30,103,209
4,30,0,253
4,30,92,225
4,30,0,240
4,28,93,240
4,28,0,243
4,28,84,236
4,28,0,285
4,28,94,198
4,28,0,271
4,28,85,210
4,28,0,262
4,35,89,217
4,35,0,255
4,35,88,220
4,35,0,284
4,35,84,201
4,35,0,233
4,35,103,247
4,35,0,258
4,34,93,220
4,34,0,236
4,34,92,244
4,34,0,266
4,34,96,216
4,34,0,153
4,34,97,85
4,34,0,241
4,42,92,1
4,42,0,230
4,40,85,5
4,40,0,239
4,31,101,4
4,31,0,290
4,31,106,190
4,31,0,290
4,31,101,192
4,31,0,248
4,31,106,232
4,31,0,291
4,32,84,189
4,32,0,350
4,32,93,128
4,32,0,234
4,30,65,8
4,30,0,149
4,28,106,93
4,28,0,431
4,28,106,45
4,28,0,462
4,35,97,18
4,35,0,273
4,35,97,206
4,35,0,282
4,34,102,201
4,34,0,265
4,34,102,216
4,34,0,281
4,32,103,195
4,32,0,248
4,32,102,233
4,32,0,225
4,30,93,22
4,30,0,207
4,28,97,30
4,28,0,306
4,28,102,172
4,28,0,309
4,35,97,171
4,35,0,306
4,35,92,172
4,35,0,258
4,34,88,216
4,34,0,308
4,34,93,180
4,34,0,285
4,32,89,195
4,32,0,306
4,32,84,175
4,32,0,228
4,30,80,14
4,30,0,195
4,28,85,42
4,28,0,348
4,28,89,132
4,28,0,386
4,35,88,87
4,35,0,333
4,35,92,154
4,35,0,302
4,34,93,176
4,34,0,268
4,34,92,204
4,34,0,299
4,32,93,181
4,32,0,312
4,32,93,171
4,32,0,298
4,28,96,189
4,28,0,225
4,28,93,258
4,28,0,345
4,35,92,130
4,35,0,318
4,35,92,160
4,35,0,314
4,34,85,160
4,34,0,309
4,34,85,178
4,34,0,351
4,28,102,132
4,28,0,869
4,28,84,83
4,28,0,914
4,28,93,51
4,28,0,1428
4,30,113,16
4,30,0,453
4,32,112,29
4,32,0,194
4,32,122,284
4,32,0,218
4,32,113,254
4,32,0,242
4,42,112,246
4,42,0,224
4,40,97,8
4,40,0,229
4,28,113,13
4,28,0,235
4,28,112,242
4,28,0,237
4,28,121,246
4,28,0,245
4,42,106,240
4,40,92,241
4,42,0,9
4,40,0,224
4,35,113,1
4,35,0,230
4,35,121,248
4,35,0,257
4,35,120,231
4,35,0,239
4,42,112,246
4,42,0,219
4,40,97,16
4,40,0,222
4,34,113,12
4,34,0,227
4,34,112,251
4,34,0,234
4,34,112,254
4,34,0,120
4,34,115,106
4,34,0,202
4,42,106,57
4,42,0,199
4,40,103,38
4,40,0,202
4,32,113,38
4,32,0,194
4,32,122,284
4,32,0,218
4,32,113,254
4,32,0,242
4,42,112,246
4,42,0,224
4,40,96,8
4,40,0,229
4,28,113,13
4,28,0,235
4,28,113,242
4,28,0,237
4,28,120,246
4,28,0,245
4,42,106,240
4,40,93,241
4,42,0,9
4,40,0,224
4,35,113,1
4,35,0,230
4,35,120,248
4,35,0,257
4,35,120,231
4,35,0,239
4,42,113,246
4,42,0,219
4,40,96,16
4,40,0,222
4,34,113,12
4,34,0,227
4,34,113,251
4,34,0,234
4,34,112,254
4,34,0,120
4,34,115,106
4,34,0,202
4,42,106,57
4,42,0,199
4,40,102,38
4,40,0,202
4,32,107,30
4,32,0,250
4,32,107,232
4,32,0,247
4,30,102,234
4,30,0,235
4,30,106,244
4,30,0,269
4,28,81,216
4,28,0,227
4,28,103,247
4,28,0,258
4,28,102,224
4,28,0,210
4,28,96,269
4,28,0,240
4,35,97,243
4,35,0,216
4,35,96,260
4,35,0,254
4,35,93,226
4,35,0,238
4,35,89,244
4,35,0,267
4,34,106,212
4,34,0,234
4,34,103,245
4,34,0,278
4,34,92,202
4,34,0,157
4,34,106,80
4,34,0,224
4,42,93,18
4,42,0,226
4,40,81,11
4,32,92,244
4,40,0,4
4,32,0,242
4,32,102,236
4,32,0,273
4,30,103,209
4,30,0,253
4,30,93,225
4,30,0,240
4,28,92,240
4,28,0,243
4,28,84,236
4,28,0,285
4,28,95,198
4,28,0,271
4,28,84,210
4,28,0,262
4,35,89,217
4,35,0,255
4,35,89,220
4,35,0,284
4,35,84,201
4,35,0,233
4,35,103,247
4,35,0,258
4,34,92,220
4,34,0,236
4,34,92,244
4,34,0,266
4,34,97,216
4,34,0,153
4,34,97,85
4,34,0,241
4,42,92,1
4,42,0,230
4,40,84,5
4,40,0,239
4,31,101,4
4,31,0,290
4,31,107,190
4,31,0,290
4,31,100,192
4,31,0,248
4,31,106,232
4,31,0,291
4,32,85,189
4,32,0,350
4,32,92,128
4,32,0,234
4,30,65,8
4,30,0,149
4,28,107,93
4,28,0,431
4,28,106,45
4,28,0,462
4,35,97,18
4,35,0,273
4,35,96,206
4,35,0,282
4,34,102,201
4,34,0,265
4,34,103,216
4,34,0,281
4,32,103,195
4,32,0,248
4,32,102,233
4,32,0,225
4,30,92,22
4,30,0,207
4,28,97,30
4,28,0,306
4,28,103,172
4,28,0,309
4,35,96,171
4,35,0,306
4,35,92,172
4,35,0,258
4,34,89,216
4,34,0,308
4,34,92,180
4,34,0,285
4,32,89,195
4,32,0,306
4,32,85,175
4,32,0,228
4,30,80,14
4,30,0,195
4,28,85,42
4,28,0,348
4,28,88,132
4,28,0,386
4,35,88,87
4,35,0,333
4,35,93,154
4,35,0,302
4,34,93,176
4,34,0,268
4,34,92,204
4,34,0,299
4,32,92,181
4,32,0,312
4,32,93,171
4,32,0,298
4,28,97,189
4,28,0,225
4,28,92,258
4,28,0,345
4,35,92,130
4,35,0,318
4,35,93,160
4,35,0,314
4,34,84,160
4,34,0,309
4,34,85,178
4,34,0,351
4,28,103,132
4,28,0,869
4,28,84,83
4,28,0,914
4,28,93,51
4,28,0,1428
4,30,112,16
4,30,0,453
4,32,112,29
4,32,0,194
4,32,123,284
4,32,0,218
4,32,113,254
4,32,0,242
4,42,112,246
4,42,0,224
4,40,96,8
4,40,0,229
4,28,113,13
4,28,0,235
4,28,113,242
4,28,0,237
4,28,120,246
4,28,0,245
4,42,106,240
4,40,93,241
4,42,0,9
4,40,0,224
4,35,112,1
4,35,0,230
4,35,121,248
4,35,0,257
4,35,121,231
4,35,0,239
4,42,112,246
4,42,0,219
4,40,97,16
4,40,0,222
4,34,112,12
4,34,0,227
4,34,112,251
4,34,0,234
4,34,113,254
4,34,0,120
4,34,115,106
4,34,0,202
4,42,106,57
4,42,0,199
4,40,102,38
4,40,0,202
4,32,113,38
4,32,0,194
4,32,123,284
4,32,0,218
4,32,112,254
4,32,0,242
4,42,112,246
4,42,0,224
4,40,97,8
4,40,0,229
4,28,112,13
4,28,0,235
4,28,113,242
4,28,0,237
4,28,121,246
4,28,0,245
4,42,106,240
4,40,93,241
4,42,0,9
4,40,0,224
4,35,112,1
4,35,0,230
4,35,120,248
4,35,0,257
4,35,121,231
4,35,0,239
4,42,113,246
4,42,0,219
4,40,96,16
4,40,0,222
4,34,112,12
4,34,0,227
4,34,113,251
4,34,0,234
4,34,113,254
4,34,0,120
4,34,114,106
4,34,0,202
4,42,106,57
4,42,0,199
4,40,103,38
4,40,0,202
4,32,106,30
4,32,0,250
4,32,107,232
4,32,0,247
4,30,103,234
4,30,0,235
4,30,106,244
4,30,0,269
4,28,81,216
4,28,0,227
4,28,102,247
4,28,0,258
4,28,102,224
4,28,0,210
4,28,97,269
4,28,0,240
4,35,97,243
4,35,0,216
4,35,96,260
4,35,0,254
4,35,92,226
4,35,0,238
4,35,89,244
4,35,0,267
4,34,107,212
4,34,0,234
4,34,102,245
4,34,0,278
4,34,92,202
4,34,0,157
4,34,107,80
4,34,0,224
4,42,92,18
4,42,0,226
4,40,81,11
4,32,93,244
4,40,0,4
4,32,0,242
4,32,102,236
4,32,0,273
4,30,103,209
4,30,0,253
4,30,92,225
4,30,0,240
4,28,92,240
4,28,0,243
4,28,85,236
4,28,0,285
4,28,95,198
4,28,0,271
4,28,84,210
4,28,0,262
4,35,88,217
4,35,0,255
4,35,89,220
4,35,0,284
4,35,85,201
4,35,0,233
4,35,102,247
4,35,0,258
4,34,92,220
4,34,0,236
4,34,93,244
4,34,0,266
4,34,96,216
4,34,0,153
4,34,97,85
4,34,0,241
4,42,93,1
4,42,0,230
4,40,84,5
4,40,0,239
4,31,101,4
4,31,0,290
4,31,106,190
4,31,0,290
4,31,100,192
4,31,0,248
4,31,107,232
4,31,0,291
4,32,85,189
4,32,0,350
4,32,92,128
4,32,0,234
4,30,64,8
4,30,0,149
4,28,107,93
4,28,0,431
4,28,107,45
4,28,0,462
4,35,102,18
4,35,0,273
4,35,102,206
4,35,0,282
4,34,107,201
4,34,0,265
4,34,106,216
4,34,0,281
4,32,107,195
4,32,0,248
4,32,107,233
4,32,0,225
4,30,98,22
4,30,0,207
4,28,103,30
4,28,0,306
4,28,106,172
4,28,0,309
4,35,102,171
4,35,0,306
4,35,99,172
4,35,0,258
4,34,95,216
4,34,0,308
4,34,98,180
4,34,0,285
4,32,94,195
4,32,0,306
4,32,89,175
4,32,0,228
4,30,87,14
4,30,0,195
4,28,88,42
4,28,0,348
4,28,94,132
4,28,0,386
4,35,95,87
4,35,0,333
4,35,98,154
4,35,0,302
4,34,99,176
4,34,0,268
4,34,99,204
4,34,0,299
4,32,98,181
4,32,0,312
4,32,99,171
4,32,0,298
4,28,102,189
4,28,0,225
4,28,98,258
4,28,0,345
4,35,99,130
4,35,0,318
4,35,99,160
4,35,0,314
4,34,88,160
4,34,0,309
4,34,88,178
4,34,0,351
4,32,95,127
4,32,0,305
4,32,89,175
4,32,0,227
4,30,86,15
4,30,0,195
4,28,88,43
4,28,0,346
4,28,95,131
4,28,0,387
4,35,102,99
4,35,0,273
4,35,103,206
4,35,0,282
4,34,107,201
4,34,0,265
4,34,106,216
4,34,0,281
4,32,107,195
4,32,0,248
4,32,106,233
4,32,0,225
4,30,98,22
4,30,0,207
4,28,103,30
4,28,0,306
4,28,107,172
4,28,0,309
4,35,102,171
4,35,0,306
4,35,98,172
4,35,0,258
4,34,95,216
4,34,0,308
4,34,99,180
4,34,0,285
4,32,94,195
4,32,0,306
4,32,88,175
4,32,0,228
4,30,87,14
4,30,0,195
4,28,88,42
4,28,0,348
4,28,95,132
4,28,0,386
4,35,95,87
4,35,0,333
4,35,98,154
4,35,0,302
4,34,99,176
4,34,0,268
4,34,98,204
4,34,0,299
4,32,98,181
4,32,0,312
4,32,99,171
4,32,0,298
4,28,103,189
4,28,0,225
4,28,98,258
4,28,0,345
4,35,98,130
4,35,0,318
4,35,99,160
4,35,0,314
4,34,89,160
4,34,0,309
4,34,88,178
4,34,0,351
4,28,110,127
4,28,0,5760
4,35,113,3
4,35,0,273
4,35,112,206
4,35,0,282
4,34,117,201
4,34,0,265
4,34,117,216
4,34,0,281
4,32,116,195
4,32,0,248
4,32,117,233
4,32,0,225
4,30,108,22
4,30,0,207
4,28,112,30
4,28,0,306
4,28,117,172
4,28,0,309
4,35,113,171
4,35,0,306
4,35,108,172
4,35,0,258
4,34,104,216
4,34,0,308
4,34,109,180
4,34,0,285
4,32,105,195
4,32,0,306
4,32,98,175
4,32,0,228
4,30,96,14
4,30,0,195
4,28,99,42
4,28,0,348
4,28,104,132
4,28,0,386
4,35,105,87
4,35,0,333
4,35,109,154
4,35,0,302
4,34,108,176
4,34,0,268
4,34,109,204
4,34,0,299
4,32,108,181
4,32,0,312
4,32,108,171
4,32,0,298
4,28,113,189
4,28,0,225
4,28,109,258
4,28,0,345
4,35,108,130
4,35,0,318
4,35,108,160
4,35,0,314
4,34,99,160
4,34,0,309
4,34,99,178
4,34,0,351
4,32,104,127
4,32,0,305
4,32,98,175
4,32,0,227
4,30,97,15
4,30,0,195
4,28,98,43
4,28,0,346
4,28,105,131
4,28,0,387
4,35,113,99
4,35,0,273
4,35,112,206
4,35,0,282
4,34,117,201
4,34,0,265
4,34,116,216
4,34,0,281
4,32,116,195
4,32,0,248
4,32,117,233
4,32,0,225
4,30,109,22
4,30,0,207
4,28,112,30
4,28,0,306
4,28,116,172
4,28,0,309
4,35,113,171
4,35,0,306
4,35,109,172
4,35,0,258
4,34,104,216
4,34,0,308
4,34,108,180
4,34,0,285
4,32,105,195
4,32,0,306
4,32,98,175
4,32,0,228
4,30,97,14
4,30,0,195
4,28,99,42
4,28,0,348
4,28,104,132
4,28,0,386
4,35,105,87
4,35,0,333
4,35,108,154
4,35,0,302
4,34,108,176
4,34,0,268
4,34,109,204
4,34,0,299
4,32,109,181
4,32,0,312
4,32,108,171
4,32,0,298
4,28,112,189
4,28,0,225
4,28,109,258
4,28,0,345
4,35,109,130
4,35,0,318
4,35,108,160
4,35,0,314
4,34,98,160
4,34,0,309
4,34,99,178
4,34,0,351
4,32,104,127
4,32,0,305
4,32,99,175
4,32,0,227
4,30,97,15
4,30,0,195
4,28,98,43
4,28,0,346
4,28,105,131
4,28,0,387
4,35,104,27
5,59,97,30
5,56,80,15
5,63,97,6
5,59,24,40
5,56,59,3
5,59,50,30
5,64,85,10
5,59,106,20
5,56,70,10
5,63,93,67
5,56,61,11
5,59,68,32
5,64,96,10
5,61,101,2
5,59,89,10
5,56,84,12
5,63,76,73
5,56,77,17
5,59,64,34
5,64,71,6
5,59,97,12
5,54,76,60
5,63,47,31
5,54,52,51
5,58,96,6
5,61,61,26
5,59,89,10
