track,note,velocity,time
3,56,69,546
3,59,69,0
3,63,69,0
3,56,69,66
3,59,69,0
3,63,69,0
3,56,69,64
3,59,69,0
3,63,69,0
3,56,69,68
3,59,69,0
3,63,69,0
3,56,69,72
3,59,69,0
3,63,69,0
3,56,69,68
3,59,69,0
3,63,69,0
3,56,69,66
3,59,69,0
3,63,69,0
3,56,69,64
3,59,69,0
3,63,69,0
3,54,69,64
3,58,69,0
3,63,69,0
3,54,69,66
3,58,69,0
3,63,69,0
3,54,69,68
3,58,69,0
3,63,69,0
3,54,69,68
3,58,69,0
3,63,69,0
3,54,69,70
3,58,69,0
3,63,69,0
3,54,69,68
3,58,69,0
3,63,69,0
3,54,69,72
3,58,69,0
3,63,69,0
3,54,69,72
3,58,69,0
3,63,69,0
3,56,69,68
3,59,69,0
3,63,69,0
3,56,69,60
3,59,69,0
3,63,69,0
3,56,69,64
3,59,69,0
3,63,69,0
3,56,69,68
3,59,69,0
3,63,69,0
3,56,69,64
3,59,69,0
3,63,69,0
3,56,69,66
3,59,69,0
3,63,69,0
3,56,69,64
3,59,69,0
3,63,69,0
3,56,69,64
3,59,69,0
3,63,69,0
3,51,69,26
3,63,69,0
3,49,69,146
3,61,69,0
3,47,69,158
3,59,69,0
3,46,69,158
3,58,69,0
3,68,95,154
3,71,87,0
3,75,85,0
3,68,88,62
3,71,76,0
3,75,86,0
3,68,82,68
3,71,82,0
3,75,78,0
3,68,86,68
3,71,85,0
3,75,78,0
3,68,89,66
3,71,83,0
3,75,82,0
3,68,83,64
3,71,80,0
3,75,75,0
3,68,89,64
3,71,89,0
3,75,85,0
3,68,85,64
3,71,78,0
3,75,72,0
3,68,97,66
3,71,85,0
3,75,80,0
3,68,93,66
3,71,88,0
3,75,76,0
3,68,93,68
3,71,89,0
3,75,85,0
3,68,91,66
3,71,88,0
3,75,80,0
3,68,95,68
3,71,89,0
3,75,82,0
3,68,83,66
3,71,76,0
3,75,64,0
3,68,99,68
3,71,89,0
3,75,91,0
3,68,91,68
3,71,89,0
3,75,86,0
3,66,95,70
3,71,85,0
3,75,89,0
3,66,85,68
3,71,88,0
3,75,91,0
3,66,89,68
3,71,93,0
3,75,93,0
3,66,78,70
3,71,85,0
3,75,82,0
3,66,89,68
3,71,91,0
3,75,89,0
3,66,83,64
3,71,85,0
3,75,86,0
3,66,85,68
3,71,88,0
3,75,88,0
3,66,86,68
3,71,85,0
3,75,86,0
3,66,88,66
3,71,86,0
3,75,86,0
3,66,83,66
3,71,86,0
3,75,85,0
3,66,83,66
3,71,91,0
3,75,86,0
3,66,83,66
3,71,88,0
3,75,91,0
3,66,89,68
3,71,93,0
3,75,91,0
3,66,86,68
3,71,89,0
3,75,86,0
3,66,86,68
3,71,93,0
3,75,88,0
3,66,75,68
3,71,91,0
3,75,78,0
3,68,101,72
3,71,93,0
3,75,95,0
3,68,89,66
3,71,91,0
3,75,74,0
3,68,88,68
3,71,91,0
3,75,83,0
3,68,88,68
3,71,93,0
3,75,89,0
3,68,89,66
3,71,89,0
3,75,82,0
3,68,88,68
3,71,91,0
3,75,78,0
3,68,95,68
3,71,88,0
3,75,85,0
3,68,89,68
3,71,80,0
3,75,86,0
3,68,95,68
3,71,86,0
3,75,88,0
3,68,91,68
3,71,88,0
3,75,78,0
3,68,95,66
3,71,85,0
3,75,83,0
3,68,93,64
3,71,86,0
3,75,82,0
3,68,93,66
3,71,78,0
3,75,88,0
3,68,89,64
3,71,88,0
3,75,82,0
3,68,99,66
3,71,86,0
3,75,88,0
3,68,82,64
3,71,67,0
3,75,55,0
3,68,105,70
3,71,101,0
3,73,107,0
3,68,99,68
3,71,91,0
3,73,101,0
3,68,99,70
3,71,95,0
3,73,95,0
3,68,89,62
3,71,88,0
3,73,88,0
3,68,101,64
3,71,99,0
3,73,99,0
3,68,89,68
3,71,93,0
3,73,88,0
3,68,99,68
3,71,97,0
3,73,97,0
3,68,80,70
3,71,89,0
3,73,89,0
3,67,113,72
3,70,88,0
3,73,83,0
3,67,104,64
3,70,91,0
3,73,97,0
3,67,104,66
3,70,95,0
3,73,91,0
3,67,102,62
3,70,82,0
3,73,95,0
3,67,107,66
3,70,91,0
3,73,97,0
3,67,94,68
3,70,91,0
3,73,97,0
3,67,104,66
3,70,97,0
3,73,97,0
3,67,104,64
3,70,97,0
3,73,95,0
3,64,97,70
3,57,97,0
3,61,97,0
3,64,76,40
3,57,76,0
3,61,76,0
3,64,76,40
3,57,76,0
3,61,76,0
3,64,76,40
3,57,76,0
3,61,76,0
3,64,76,38
3,57,76,0
3,61,76,0
3,64,76,40
3,57,76,0
3,61,76,0
3,64,97,40
3,57,97,0
3,61,97,0
3,64,76,38
3,57,76,0
3,61,76,0
3,64,76,40
3,57,76,0
3,61,76,0
3,64,76,40
3,57,76,0
3,61,76,0
3,64,76,34
3,57,76,0
3,61,76,0
3,64,76,40
3,57,76,0
3,61,76,0
3,64,97,40
3,57,97,0
3,61,97,0
3,64,76,36
3,57,76,0
3,61,76,0
3,64,76,40
3,57,76,0
3,61,76,0
3,64,76,40
3,57,76,0
3,61,76,0
3,64,76,38
3,57,76,0
3,61,76,0
3,64,76,40
3,57,76,0
3,61,76,0
3,64,97,38
3,57,97,0
3,61,97,0
3,64,76,34
3,57,76,0
3,61,76,0
3,64,76,38
3,57,76,0
3,61,76,0
3,64,76,38
3,57,76,0
3,61,76,0
3,64,76,34
3,57,76,0
3,61,76,0
3,64,76,40
3,57,76,0
3,61,76,0
3,63,97,40
3,56,97,0
3,59,97,0
3,63,76,36
3,56,76,0
3,59,76,0
3,63,76,40
3,56,76,0
3,59,76,0
3,63,76,40
3,56,76,0
3,59,76,0
3,63,76,40
3,56,76,0
3,59,76,0
3,63,76,40
3,56,76,0
3,59,76,0
3,63,97,40
3,56,97,0
3,59,97,0
3,63,76,36
3,56,76,0
3,59,76,0
3,63,76,40
3,56,76,0
3,59,76,0
3,63,76,40
3,56,76,0
3,59,76,0
3,63,76,40
3,56,76,0
3,59,76,0
3,63,76,40
3,56,76,0
3,59,76,0
3,64,77,40
3,68,77,0
3,73,77,0
3,64,87,40
3,68,87,0
3,73,87,0
3,64,97,40
3,68,97,0
3,73,97,0
3,64,107,40
3,68,107,0
3,73,107,0
3,64,118,40
3,68,118,0
3,73,118,0
3,64,127,40
3,68,127,0
3,73,127,0
3,67,127,34
3,70,127,0
3,75,127,0
3,68,95,340
3,71,95,0
3,75,95,0
3,68,95,60
3,71,95,0
3,75,95,0
3,68,95,68
3,71,95,0
3,75,95,0
3,68,95,68
3,71,95,0
3,75,95,0
3,68,95,70
3,71,95,0
3,75,95,0
3,68,95,68
3,71,95,0
3,75,95,0
3,68,95,66
3,71,95,0
3,75,95,0
3,68,95,68
3,71,95,0
3,75,95,0
3,68,95,68
3,71,95,0
3,74,95,0
3,68,95,60
3,71,95,0
3,74,95,0
3,68,95,72
3,71,95,0
3,74,95,0
3,68,95,68
3,71,95,0
3,74,95,0
3,68,95,70
3,71,95,0
3,74,95,0
3,68,95,68
3,71,95,0
3,74,95,0
3,68,95,72
3,71,95,0
3,74,95,0
3,68,95,70
3,71,95,0
3,74,95,0
3,63,95,70
3,68,95,0
3,71,95,0
3,63,95,60
3,68,95,0
3,71,95,0
3,63,95,64
3,68,95,0
3,71,95,0
3,63,95,68
3,68,95,0
3,71,95,0
3,63,95,64
3,68,95,0
3,71,95,0
3,63,95,66
3,68,95,0
3,71,95,0
3,63,95,64
3,68,95,0
3,71,95,0
3,63,95,64
3,68,95,0
3,71,95,0
3,63,95,26
3,75,95,0
3,61,95,146
3,73,95,0
3,59,95,158
3,71,95,0
3,58,95,158
3,70,95,0
3,68,95,154
3,71,87,0
3,75,85,0
3,68,88,62
3,71,76,0
3,75,86,0
3,68,82,68
3,71,82,0
3,75,78,0
3,68,86,68
3,71,85,0
3,75,78,0
3,68,89,66
3,71,83,0
3,75,82,0
3,68,83,64
3,71,80,0
3,75,75,0
3,68,89,64
3,71,89,0
3,75,85,0
3,68,85,64
3,71,78,0
3,75,72,0
3,68,97,66
3,71,85,0
3,75,80,0
3,68,93,66
3,71,88,0
3,75,76,0
3,68,93,68
3,71,89,0
3,75,85,0
3,68,91,66
3,71,88,0
3,75,80,0
3,68,95,68
3,71,89,0
3,75,82,0
3,68,83,66
3,71,76,0
3,75,64,0
3,68,99,68
3,71,89,0
3,75,91,0
3,68,91,68
3,71,89,0
3,75,86,0
3,66,95,70
3,71,85,0
3,75,89,0
3,66,85,68
3,71,88,0
3,75,91,0
3,66,89,68
3,71,93,0
3,75,93,0
3,66,78,70
3,71,85,0
3,75,82,0
3,66,89,68
3,71,91,0
3,75,89,0
3,66,83,64
3,71,85,0
3,75,86,0
3,66,85,68
3,71,88,0
3,75,88,0
3,66,86,68
3,71,85,0
3,75,86,0
3,66,88,66
3,71,86,0
3,75,86,0
3,66,83,66
3,71,86,0
3,75,85,0
3,66,83,66
3,71,91,0
3,75,86,0
3,66,83,66
3,71,88,0
3,75,91,0
3,66,89,68
3,71,93,0
3,75,91,0
3,66,86,68
3,71,89,0
3,75,86,0
3,66,86,68
3,71,93,0
3,75,88,0
3,66,75,68
3,71,91,0
3,75,78,0
3,68,101,72
3,71,93,0
3,75,95,0
3,68,89,66
3,71,91,0
3,75,74,0
3,68,88,68
3,71,91,0
3,75,83,0
3,68,88,68
3,71,93,0
3,75,89,0
3,68,89,66
3,71,89,0
3,75,82,0
3,68,88,68
3,71,91,0
3,75,78,0
3,68,95,68
3,71,88,0
3,75,85,0
3,68,89,68
3,71,80,0
3,75,86,0
3,68,95,68
3,71,86,0
3,75,88,0
3,68,91,68
3,71,88,0
3,75,78,0
3,68,95,66
3,71,85,0
3,75,83,0
3,68,93,64
3,71,86,0
3,75,82,0
3,68,93,66
3,71,78,0
3,75,88,0
3,68,89,64
3,71,88,0
3,75,82,0
3,68,99,66
3,71,86,0
3,75,88,0
3,68,82,64
3,71,67,0
3,75,55,0
3,68,105,70
3,71,101,0
3,73,107,0
3,68,99,68
3,71,91,0
3,73,101,0
3,68,99,70
3,71,95,0
3,73,95,0
3,68,89,62
3,71,88,0
3,73,88,0
3,68,101,64
3,71,99,0
3,73,99,0
3,68,89,68
3,71,93,0
3,73,88,0
3,68,99,68
3,71,97,0
3,73,97,0
3,68,80,70
3,71,89,0
3,73,89,0
3,67,113,72
3,70,88,0
3,73,83,0
3,67,104,64
3,70,91,0
3,73,97,0
3,67,104,66
3,70,95,0
3,73,91,0
3,67,102,62
3,70,82,0
3,73,95,0
3,67,107,66
3,70,91,0
3,73,97,0
3,67,94,68
3,70,91,0
3,73,97,0
3,67,104,66
3,70,97,0
3,73,97,0
3,67,104,64
3,70,97,0
3,73,95,0
3,64,97,70
3,57,97,0
3,61,97,0
3,64,76,40
3,57,76,0
3,61,76,0
3,64,76,40
3,57,76,0
3,61,76,0
3,64,76,40
3,57,76,0
3,61,76,0
3,64,76,38
3,57,76,0
3,61,76,0
3,64,76,40
3,57,76,0
3,61,76,0
3,64,97,40
3,57,97,0
3,61,97,0
3,64,76,38
3,57,76,0
3,61,76,0
3,64,76,40
3,57,76,0
3,61,76,0
3,64,76,40
3,57,76,0
3,61,76,0
3,64,76,34
3,57,76,0
3,61,76,0
3,64,76,40
3,57,76,0
3,61,76,0
3,64,97,40
3,57,97,0
3,61,97,0
3,64,76,36
3,57,76,0
3,61,76,0
3,64,76,40
3,57,76,0
3,61,76,0
3,64,76,40
3,57,76,0
3,61,76,0
3,64,76,38
3,57,76,0
3,61,76,0
3,64,76,40
3,57,76,0
3,61,76,0
3,64,97,38
3,57,97,0
3,61,97,0
3,64,76,34
3,57,76,0
3,61,76,0
3,64,76,38
3,57,76,0
3,61,76,0
3,64,76,38
3,57,76,0
3,61,76,0
3,64,76,34
3,57,76,0
3,61,76,0
3,64,76,40
3,57,76,0
3,61,76,0
3,63,97,40
3,56,97,0
3,59,97,0
3,63,76,36
3,56,76,0
3,59,76,0
3,63,76,40
3,56,76,0
3,59,76,0
3,63,76,40
3,56,76,0
3,59,76,0
3,63,76,40
3,56,76,0
3,59,76,0
3,63,76,40
3,56,76,0
3,59,76,0
3,63,97,40
3,56,97,0
3,59,97,0
3,63,76,36
3,56,76,0
3,59,76,0
3,63,76,40
3,56,76,0
3,59,76,0
3,63,76,40
3,56,76,0
3,59,76,0
3,63,76,40
3,56,76,0
3,59,76,0
3,63,76,40
3,56,76,0
3,59,76,0
3,64,77,40
3,68,77,0
3,73,77,0
3,64,87,40
3,68,87,0
3,73,87,0
3,64,97,40
3,68,97,0
3,73,97,0
3,64,107,40
3,68,107,0
3,73,107,0
3,64,118,40
3,68,118,0
3,73,118,0
3,64,127,40
3,68,127,0
3,73,127,0
3,67,127,34
3,70,127,0
3,75,127,0
3,68,95,340
3,71,95,0
3,75,95,0
3,68,95,60
3,71,95,0
3,75,95,0
3,68,95,68
3,71,95,0
3,75,95,0
3,68,95,68
3,71,95,0
3,75,95,0
3,68,95,70
3,71,95,0
3,75,95,0
3,68,95,68
3,71,95,0
3,75,95,0
3,68,95,66
3,71,95,0
3,75,95,0
3,68,95,68
3,71,95,0
3,75,95,0
3,68,95,68
3,71,95,0
3,74,95,0
3,68,95,60
3,71,95,0
3,74,95,0
3,68,95,72
3,71,95,0
3,74,95,0
3,68,95,68
3,71,95,0
3,74,95,0
3,68,95,70
3,71,95,0
3,74,95,0
3,68,95,68
3,71,95,0
3,74,95,0
3,68,95,72
3,71,95,0
3,74,95,0
3,68,95,70
3,71,95,0
3,74,95,0
3,68,95,70
3,71,95,0
3,75,95,0
3,68,95,64
3,71,95,0
3,75,95,0
3,68,95,66
3,71,95,0
3,75,95,0
3,68,95,66
3,71,95,0
3,75,95,0
3,66,95,64
3,71,95,0
3,75,95,0
3,66,95,60
3,71,95,0
3,75,95,0
3,66,95,70
3,71,95,0
3,75,95,0
3,66,95,68
3,71,95,0
3,75,95,0
3,64,95,66
3,68,95,0
3,71,95,0
3,75,95,0
3,64,95,68
3,68,95,0
3,71,95,0
3,75,95,0
3,64,95,68
3,68,95,0
3,71,95,0
3,75,95,0
3,64,95,66
3,68,95,0
3,71,95,0
3,75,95,0
3,63,95,70
3,67,95,0
3,70,95,0
3,73,95,0
3,63,95,56
3,67,95,0
3,73,95,0
3,75,95,0
3,63,95,46
3,67,95,0
3,70,95,0
3,73,95,0
3,75,95,0
3,63,95,56
3,67,95,0
3,70,95,0
3,73,95,0
3,75,95,0
3,68,95,50
3,71,87,0
3,75,85,0
3,68,88,62
3,71,76,0
3,75,86,0
3,68,82,68
3,71,82,0
3,75,78,0
3,68,86,68
3,71,85,0
3,75,78,0
3,68,89,66
3,71,83,0
3,75,82,0
3,68,83,64
3,71,80,0
3,75,75,0
3,68,89,64
3,71,89,0
3,75,85,0
3,68,85,64
3,71,78,0
3,75,72,0
3,68,97,66
3,71,85,0
3,75,80,0
3,68,93,66
3,71,88,0
3,75,76,0
3,68,93,68
3,71,89,0
3,75,85,0
3,68,91,66
3,71,88,0
3,75,80,0
3,68,95,68
3,71,89,0
3,75,82,0
3,68,83,66
3,71,76,0
3,75,64,0
3,68,99,68
3,71,89,0
3,75,91,0
3,68,91,68
3,71,89,0
3,75,86,0
3,66,95,70
3,71,85,0
3,75,89,0
3,66,85,68
3,71,88,0
3,75,91,0
3,66,89,68
3,71,93,0
3,75,93,0
3,66,78,70
3,71,85,0
3,75,82,0
3,66,89,68
3,71,91,0
3,75,89,0
3,66,83,64
3,71,85,0
3,75,86,0
3,66,85,68
3,71,88,0
3,75,88,0
3,66,86,68
3,71,85,0
3,75,86,0
3,66,88,66
3,71,86,0
3,75,86,0
3,66,83,66
3,71,86,0
3,75,85,0
3,66,83,66
3,71,91,0
3,75,86,0
3,66,83,66
3,71,88,0
3,75,91,0
3,66,89,68
3,71,93,0
3,75,91,0
3,66,86,68
3,71,89,0
3,75,86,0
3,66,86,68
3,71,93,0
