track,note,velocity,time
1,67,127,39364
1,67,127,100
1,67,127,108
1,67,127,124
1,67,127,88
1,67,127,92
1,67,127,96
1,67,127,108
1,67,127,110
1,67,127,118
1,67,127,120
1,67,127,112
1,64,127,26
1,64,127,106
1,64,127,106
1,64,127,106
1,62,127,58
1,67,127,100
1,67,127,2060
1,67,127,158
1,67,127,106
1,66,127,100
1,66,127,96
1,64,127,64
1,64,127,800
1,64,127,164
1,64,127,98
1,61,127,80
1,64,127,112
1,61,127,60
1,59,127,78
1,68,127,46
1,66,127,46
1,66,127,118
1,66,127,194
1,66,127,186
1,57,127,56
1,61,127,66
1,64,127,94
1,66,127,148
1,64,127,90
1,64,127,128
1,67,127,2192
1,67,127,90
1,67,127,92
1,67,127,104
1,67,127,100
1,66,127,106
1,66,127,96
1,64,127,68
1,66,127,138
1,64,127,64
1,67,127,84
1,66,127,10
1,66,127,100
1,64,127,114
1,64,127,90
1,67,127,100
1,66,127,6
1,65,127,4
1,67,127,2352
1,67,127,192
1,67,127,104
1,66,127,66
1,66,127,80
1,64,127,56
1,64,127,204
1,64,127,416
1,64,127,156
1,64,127,118
1,61,127,36
1,64,127,104
1,61,127,50
1,59,127,86
1,68,127,2122
1,66,127,144
1,66,127,124
1,66,127,148
1,66,127,156
1,57,127,72
1,61,127,72
1,64,127,98
1,66,127,152
1,64,127,102
1,64,127,112
1,67,127,21252
1,67,127,82
1,67,127,98
1,67,127,104
1,67,127,94
1,67,127,94
1,67,127,108
1,67,127,110
1,67,127,126
1,67,127,110
1,67,127,102
1,67,127,98
1,67,127,110
1,67,127,110
1,67,127,122
1,67,127,140
1,67,127,132
1,64,127,32
1,64,127,112
1,64,127,112
1,64,127,122
1,64,127,110
1,64,127,108
1,67,127,40
1,66,127,32
1,64,127,60
1,64,127,138
1,64,127,184
1,64,127,70
1,64,127,208
1,64,127,62
1,61,127,64
1,64,127,98
1,61,127,68
1,59,127,160
1,68,127,38
1,66,127,104
1,66,127,122
1,66,127,184
1,66,127,202
1,59,127,244
1,61,127,84
1,64,127,96
1,66,127,140
1,64,127,94
1,64,127,130
1,64,127,2172
1,64,127,110
1,64,127,100
1,64,127,118
1,61,127,94
1,64,127,98
1,61,127,96
1,64,127,416
1,64,127,218
1,64,127,146
1,61,127,58
1,59,127,18
1,64,127,88
1,61,127,80
1,64,127,108
1,61,127,98
1,64,127,348
1,64,127,194
1,64,127,136
1,64,127,64
1,67,127,60
1,67,127,100
1,67,127,152
1,64,127,22
1,64,127,232
1,64,127,238
1,64,127,198
1,64,127,200
1,64,127,114
1,64,127,100
1,64,127,110
1,61,127,92
1,64,127,126
1,61,127,112
1,64,127,400
1,64,127,164
1,64,127,170
1,66,127,4
1,68,127,52
1,66,127,36
1,66,127,124
1,66,127,154
1,66,127,170
1,59,127,42
1,61,127,54
1,64,127,94
1,66,127,146
1,64,127,86
1,64,127,112
1,64,127,104
1,76,127,12
1,67,127,29932
1,67,127,106
1,64,127,28
1,67,127,102
1,64,127,8
1,67,127,72
1,67,127,1286
1,67,127,122
1,64,127,44
1,67,127,102
1,64,127,104
1,64,127,86
1,67,127,1186
1,67,127,112
1,64,127,44
1,67,127,112
1,64,127,102
1,67,127,78
1,67,127,1280
1,67,127,102
1,64,127,32
1,67,127,82
1,64,127,100
1,64,127,114
1,64,127,1304
1,64,127,122
1,64,127,118
1,64,127,104
1,66,127,86
1,66,127,108
1,57,127,746
1,61,127,104
1,64,127,92
1,66,127,120
1,64,127,100
1,64,127,106
1,67,127,0
1,67,127,76
1,64,127,54
1,67,127,80
1,64,127,58
1,64,127,84
1,67,127,1242
1,67,127,74
1,64,127,144
1,67,127,82
1,64,127,112
1,61,127,126
1,67,127,1274
1,67,127,94
1,64,127,54
1,67,127,68
1,76,127,44
1,64,127,46
1,67,127,1224
1,67,127,96
1,64,127,90
1,67,127,92
1,64,127,62
1,64,127,114
1,67,127,1260
1,67,127,84
1,64,127,54
1,67,127,74
1,64,127,102
1,64,127,102
1,66,127,1202
1,67,127,44
1,67,127,62
1,66,127,12
1,64,127,40
1,67,127,72
1,64,127,86
1,64,127,112
2,68,127,864
2,80,127,0
2,68,127,132
2,80,127,0
2,80,127,130
2,68,127,0
2,64,127,124
2,76,127,0
2,78,127,60
2,66,127,0
2,78,127,138
2,66,127,0
2,66,127,136
2,78,127,0
2,75,127,130
2,63,127,0
2,68,127,32
2,80,123,0
2,68,127,130
2,80,127,0
2,68,127,122
2,80,127,0
2,64,123,4
2,76,127,0
2,81,127,192
2,81,127,122
2,81,127,136
2,80,127,32
2,88,127,192
2,88,127,124
2,88,127,142
2,85,127,130
2,78,127,24
2,66,127,0
2,78,127,138
2,66,127,0
2,66,127,142
2,78,127,0
2,75,127,114
2,63,127,0
2,81,127,146
2,81,127,128
2,81,127,122
2,80,127,8
2,90,127,192
2,90,127,116
2,90,127,120
2,87,127,100
2,80,127,86
2,68,127,0
2,92,119,0
2,68,127,128
2,80,127,0
2,92,127,0
2,78,127,126
2,66,127,0
2,90,119,0
2,64,127,114
2,76,127,0
2,88,92,0
2,89,89,0
2,64,127,8
2,52,127,0
2,52,127,112
2,64,127,0
2,54,127,112
2,66,127,0
2,56,127,128
2,68,127,0
2,80,127,8
2,68,127,0
2,92,123,0
2,80,98,130
2,68,127,0
2,92,110,0
2,90,123,118
2,66,127,0
2,78,123,0
2,64,127,10
2,88,115,0
2,76,127,0
2,52,127,8
2,64,127,0
2,52,127,122
2,64,119,0
2,54,127,134
2,66,127,0
2,56,127,132
2,68,127,0
2,92,123,8
2,80,127,0
2,68,127,0
2,92,115,126
2,80,119,0
2,68,127,0
2,78,127,92
2,90,119,0
2,66,127,0
2,64,127,34
2,76,127,0
2,88,127,0
2,52,127,0
2,61,123,626
2,73,127,0
2,49,127,0
2,85,127,0
2,80,127,558
2,68,127,0
2,92,127,0
2,56,127,0
2,68,106,2
2,52,127,288
2,50,127,0
2,54,127,50
2,57,127,40
2,47,127,24
2,59,127,14
2,47,127,14
2,63,127,1282
2,66,127,256
2,71,127,4
2,75,127,152
2,56,127,1052
2,68,115,2
2,44,127,12
2,56,125,170
2,44,127,2
2,68,127,4
2,68,112,130
2,56,115,14
2,44,127,2
2,40,117,128
2,64,115,22
2,52,125,26
2,66,121,1254
2,54,119,4
2,42,127,6
2,66,117,160
2,54,123,4
2,42,127,6
2,42,127,206
2,54,127,6
2,66,115,0
2,39,127,142
2,63,98,10
2,51,121,2
2,63,127,50
2,75,127,10
2,39,125,10
2,51,127,10
3,68,127,864
3,56,127,0
3,68,127,124
3,56,127,0
3,68,127,122
3,56,127,0
3,64,127,116
3,52,127,0
3,66,127,52
3,54,127,0
3,66,127,130
3,54,127,0
3,66,127,128
3,54,127,0
3,63,127,122
3,51,127,0
3,68,127,24
3,56,127,0
3,68,127,122
3,56,127,0
3,68,127,114
3,56,127,0
3,64,127,26
3,52,127,0
3,69,127,188
3,69,127,114
3,69,127,128
3,68,127,24
3,76,127,192
3,76,127,116
3,76,127,134
3,73,127,122
3,66,127,16
3,54,127,0
3,66,127,130
3,54,127,0
3,66,127,134
3,54,127,0
3,63,127,106
3,51,127,0
3,69,127,138
3,69,127,120
3,69,127,114
3,68,127,0
3,78,127,192
3,78,127,108
3,78,127,112
3,75,127,92
3,80,127,78
3,68,127,0
3,56,127,0
3,80,127,120
3,68,127,0
3,56,127,0
3,78,127,118
3,66,127,0
3,54,127,0
3,77,119,106
3,76,122,0
3,64,127,0
3,52,127,0
3,52,127,0
3,40,127,0
3,52,127,104
3,40,127,0
3,54,127,104
3,42,127,0
3,56,127,120
3,44,127,0
3,80,127,0
3,68,127,0
3,56,127,0
3,80,127,122
3,68,127,0
3,56,127,0
3,78,127,110
3,66,127,0
3,54,127,0
3,76,127,2
3,64,127,0
3,52,127,0
3,52,127,0
3,40,127,0
3,52,127,114
3,40,127,0
3,54,127,126
3,42,127,0
3,56,127,124
3,44,127,0
3,80,127,0
3,68,127,0
3,56,127,0
3,80,127,118
3,68,127,0
3,56,127,0
3,78,127,84
3,66,127,0
3,54,127,0
3,76,127,26
3,64,127,0
3,52,127,0
3,40,127,0
3,73,127,618
3,61,127,0
3,49,127,0
3,37,127,0
3,80,127,550
3,68,127,0
3,56,127,0
3,44,127,0
3,56,127,2
3,71,127,3072
3,67,127,0
3,64,127,0
3,71,127,96
3,67,127,0
3,64,127,0
3,71,127,96
3,67,127,0
3,64,127,0
3,71,127,96
3,67,127,0
3,64,127,0
3,71,127,96
3,67,127,0
3,64,127,0
3,71,127,96
3,67,127,0
3,64,127,0
3,71,127,96
3,67,127,0
3,64,127,0
3,71,127,96
3,67,127,0
3,64,127,0
3,71,127,96
3,67,127,0
3,64,127,0
3,71,127,96
3,67,127,0
3,64,127,0
3,71,127,96
3,67,127,0
3,64,127,0
3,71,127,96
3,67,127,0
3,64,127,0
3,71,127,96
3,67,127,0
3,64,127,0
3,71,127,96
3,67,127,0
3,64,127,0
3,71,127,96
3,67,127,0
3,64,127,0
3,71,127,96
3,67,127,0
3,64,127,0
3,71,127,96
3,68,127,0
3,64,127,0
3,71,127,96
3,68,127,0
3,64,127,0
3,71,127,96
3,68,127,0
3,71,127,96
3,68,127,0
3,64,127,0
3,71,127,96
3,68,127,0
3,64,127,0
3,71,127,96
3,68,127,0
3,64,127,0
3,71,127,96
3,68,127,0
3,64,127,0
3,71,127,96
3,68,127,0
3,64,127,0
3,71,127,96
3,68,127,0
3,64,127,0
3,71,127,96
3,68,127,0
3,64,127,0
3,71,127,96
3,68,127,0
3,64,127,0
3,71,127,96
3,68,127,0
3,64,127,0
3,71,127,96
3,68,127,0
3,64,127,0
3,71,127,96
3,68,127,0
3,64,127,0
3,71,127,96
3,68,127,0
3,64,127,0
3,71,127,96
3,68,127,0
3,64,127,0
3,75,127,96
3,71,127,0
3,66,127,0
3,75,120,96
3,71,127,0
3,66,127,0
3,75,127,96
3,71,127,0
3,66,127,0
3,75,127,96
3,71,127,0
3,66,127,0
3,75,127,96
3,71,127,0
3,66,127,0
3,75,127,96
3,71,127,0
3,66,127,0
3,75,127,96
3,71,127,0
3,66,127,0
3,75,127,96
3,71,127,0
3,66,127,0
3,73,127,96
3,69,127,0
3,64,127,0
3,73,127,96
3,69,127,0
3,64,127,0
3,73,127,96
3,69,127,0
3,64,127,0
3,73,127,96
3,69,127,0
3,64,127,0
3,73,127,96
3,69,127,0
3,64,127,0
3,73,127,96
3,69,127,0
3,64,127,0
3,73,127,96
3,69,127,0
3,64,127,0
3,73,127,96
3,69,127,0
3,64,127,0
3,71,127,96
3,68,127,0
3,64,127,0
3,71,127,96
3,68,127,0
3,67,127,0
3,64,127,0
3,71,127,96
3,68,127,0
3,64,127,0
3,71,127,96
3,68,127,0
3,64,127,0
3,71,127,96
3,68,127,0
3,64,127,0
3,71,127,96
3,68,127,0
3,64,127,0
3,71,127,96
3,68,127,0
3,64,127,0
3,71,127,96
3,68,127,0
3,64,127,0
3,71,127,96
3,68,127,0
3,64,127,0
3,71,127,96
3,68,127,0
3,64,127,0
3,71,127,96
3,68,127,0
3,64,127,0
3,71,127,96
3,68,127,0
3,64,127,0
3,71,127,96
3,68,127,0
3,64,127,0
3,71,127,96
3,68,127,0
3,64,127,0
3,71,127,96
3,68,127,0
3,64,127,0
3,71,127,96
3,68,127,0
3,64,127,0
3,71,127,96
3,68,127,0
3,64,127,0
3,71,127,96
3,68,127,0
3,64,126,0
3,71,127,0
3,64,127,0
3,68,127,0
3,68,127,0
3,71,127,0
3,64,127,0
3,71,127,96
3,68,127,0
3,64,127,0
3,71,127,96
3,68,127,0
3,64,126,0
3,71,127,96
3,68,127,0
3,64,127,0
3,71,127,96
3,68,127,0
3,64,127,0
3,71,127,96
3,67,127,0
3,64,127,0
3,71,127,96
3,67,127,0
3,64,127,0
3,71,127,96
3,67,127,0
3,64,127,0
3,71,127,96
3,67,127,0
3,64,127,0
3,71,127,96
3,67,127,0
3,64,127,0
3,71,127,96
3,67,127,0
3,64,127,0
3,71,127,96
3,67,127,0
3,64,127,0
3,71,127,96
3,67,127,0
3,64,127,0
3,71,127,96
3,68,127,0
3,64,127,0
3,71,127,96
3,68,127,0
3,64,127,0
3,71,127,96
3,68,127,0
3,64,126,0
3,71,127,96
3,68,127,0
3,64,127,0
3,71,127,96
3,68,127,0
3,64,127,0
3,71,127,96
3,68,127,0
3,64,127,0
3,71,127,96
3,68,127,0
3,64,127,0
3,71,127,96
3,68,127,0
3,64,127,0
3,71,127,96
3,68,127,0
3,64,122,0
3,71,127,96
3,68,127,0
3,64,122,0
3,71,127,96
3,68,127,0
3,64,127,0
3,71,127,96
3,68,127,0
3,64,126,0
3,71,127,96
3,68,127,0
3,64,127,0
3,71,127,96
3,68,127,0
3,64,127,0
3,71,127,96
3,68,127,0
3,64,127,0
3,71,127,96
3,68,127,0
3,64,127,0
3,71,127,96
3,67,127,0
3,64,127,0
3,71,127,96
3,67,127,0
3,64,127,0
3,71,127,96
3,67,127,0
3,64,127,0
3,71,127,96
3,67,127,0
3,64,127,0
3,71,127,96
3,67,127,0
3,64,127,0
3,71,127,96
3,67,127,0
3,64,127,0
3,71,127,96
3,67,127,0
3,64,127,0
3,71,127,96
3,67,127,0
3,64,127,0
3,71,127,96
3,67,127,0
3,64,112,0
3,71,127,96
3,67,127,0
3,64,127,0
3,71,127,96
3,67,127,0
3,64,127,0
3,71,127,96
3,67,127,0
3,64,126,0
3,71,127,96
3,67,127,0
3,64,127,0
3,71,127,96
3,67,127,0
3,64,127,0
3,71,127,96
3,67,127,0
3,64,126,0
3,71,127,96
3,67,127,0
3,64,126,0
3,71,127,96
3,68,127,0
3,64,114,0
3,71,127,96
3,68,127,0
3,64,122,0
3,71,127,96
3,68,127,0
3,64,126,0
3,71,127,96
3,68,127,0
3,64,118,0
3,71,127,96
3,68,127,0
3,64,127,0
3,71,127,96
3,68,127,0
3,64,122,0
3,71,127,96
3,68,127,0
3,64,112,0
3,71,127,96
3,68,127,0
3,64,114,0
3,71,127,96
3,68,127,0
3,64,122,0
3,71,127,96
3,68,127,0
3,64,127,0
3,71,127,96
3,68,127,0
3,64,127,0
3,71,127,96
3,68,127,0
3,64,127,0
3,71,127,96
3,68,127,0
3,64,127,0
3,71,127,96
3,68,127,0
3,64,126,0
3,71,127,96
3,68,127,0
3,64,126,0
3,71,127,96
3,68,127,0
3,64,127,0
3,71,127,96
3,66,127,0
3,63,127,0
3,71,127,96
3,66,127,0
3,63,118,0
3,71,127,96
3,66,127,0
3,63,127,0
3,71,127,96
3,66,127,0
3,63,127,0
3,71,127,96
3,66,127,0
3,63,127,0
3,71,127,96
3,66,127,0
3,63,127,0
3,71,127,96
3,66,127,0
3,63,127,0
3,71,127,96
3,66,127,0
3,63,127,0
3,69,127,96
3,64,127,0
3,61,127,0
3,69,127,96
3,64,127,0
3,61,127,0
3,69,127,96
3,64,127,0
3,61,127,0
3,69,127,96
3,64,127,0
3,61,127,0
3,69,127,96
3,64,127,0
3,61,127,0
3,69,127,96
3,64,127,0
3,61,127,0
3,69,127,96
3,64,127,0
3,61,127,0
3,69,127,96
3,64,127,0
3,61,127,0
3,71,127,96
3,68,127,0
3,64,127,0
3,71,127,96
3,68,127,0
3,64,126,0
3,71,127,96
3,68,127,0
3,64,122,0
3,71,127,96
3,68,127,0
3,64,126,0
3,71,127,96
3,68,127,0
3,64,126,0
3,71,127,96
3,68,127,0
3,64,127,0
3,71,127,96
3,68,127,0
3,64,126,0
3,71,127,96
3,68,127,0
3,64,127,0
3,71,127,96
3,68,127,0
3,64,127,0
3,71,127,96
3,66,127,0
3,63,127,0
3,71,127,96
3,66,127,0
3,63,127,0
3,71,127,96
3,66,127,0
3,63,127,0
3,71,127,96
3,66,127,0
3,63,127,0
3,71,127,96
3,66,127,0
3,63,127,0
3,71,127,96
3,66,127,0
3,63,127,0
3,71,127,96
3,66,127,0
3,63,127,0
3,71,127,96
3,68,127,0
3,64,127,0
