track,note,velocity,time
0,38,93,980
0,44,105,100
0,38,94,260
0,44,75,100
0,38,65,0
0,38,57,100
0,38,105,100
0,45,105,100
0,44,105,0
0,36,116,260
0,55,91,0
0,57,83,0
0,48,79,0
0,35,117,0
0,60,87,20
0,64,75,20
0,55,80,100
0,60,80,0
0,64,92,0
0,55,96,320
0,48,104,0
0,59,76,0
0,64,96,0
0,64,104,0
0,51,80,0
0,33,112,0
0,60,100,0
0,60,108,0
0,44,82,0
0,38,98,0
0,55,82,0
0,35,82,0
0,60,78,20
0,64,66,20
0,59,76,0
0,64,76,0
0,38,82,0
0,60,74,0
0,55,90,0
0,65,100,0
0,65,108,0
0,59,88,0
0,31,108,0
0,60,104,0
0,60,112,0
0,35,107,0
0,64,92,82
0,64,100,0
0,38,45,0
0,60,68,0
0,60,76,0
0,55,82,0
0,64,74,19
0,51,80,0
0,60,82,0
0,44,95,0
0,38,104,0
0,35,82,0
0,31,107,160
0,55,84,0
0,48,92,0
0,59,76,0
0,64,100,0
0,64,108,0
0,59,90,0
0,36,111,0
0,48,81,0
0,60,100,0
0,60,108,0
0,35,116,0
0,55,92,59
0,48,100,0
0,55,82,0
0,60,78,20
0,64,66,20
0,65,100,0
0,65,108,0
0,51,80,0
0,60,92,0
0,60,100,0
0,44,82,0
0,38,98,0
0,35,91,0
0,36,103,20
0,64,76,0
0,64,84,0
0,59,76,0
0,64,76,0
0,60,84,0
0,60,92,0
0,38,82,0
0,60,74,0
0,55,90,0
0,59,88,0
0,40,107,0
0,35,116,0
0,38,45,260
0,55,82,0
0,64,74,0
0,51,80,0
0,43,103,0
0,60,82,0
0,44,87,0
0,38,104,0
0,35,91,0
0,59,76,260
0,59,90,0
0,36,107,0
0,48,79,0
0,35,116,0
0,60,76,0
0,55,76,0
0,64,92,0
0,55,100,260
0,48,108,0
0,55,82,0
0,60,78,20
0,64,66,20
0,64,100,0
0,64,108,0
0,51,80,0
0,60,100,0
0,60,108,0
0,44,91,0
0,38,98,0
0,35,91,0
0,36,107,20
0,55,96,0
0,48,104,0
0,59,76,0
0,64,76,0
0,38,82,0
0,60,74,0
0,55,90,0
0,65,104,0
0,65,112,0
0,59,88,0
0,31,108,0
0,60,100,0
0,60,108,0
0,35,116,0
0,64,88,98
0,64,96,0
0,38,45,0
0,60,76,0
0,60,84,0
0,55,82,0
0,64,74,20
0,51,80,0
0,60,82,0
0,44,95,0
0,38,104,0
0,35,91,0
0,31,107,160
0,55,84,0
0,48,92,0
0,59,76,0
0,64,104,0
0,64,112,0
0,59,90,0
0,36,104,0
0,48,79,0
0,60,100,0
0,60,108,0
0,35,116,0
0,55,92,88
0,48,100,0
0,55,82,0
0,60,78,20
0,64,66,0
0,65,100,0
0,65,108,0
0,51,80,0
0,31,105,0
0,60,96,0
0,60,104,0
0,44,91,0
0,38,98,0
0,35,91,0
0,64,92,0
0,64,100,0
0,59,76,0
0,64,76,0
0,60,76,0
0,60,84,0
0,38,82,0
0,60,74,0
0,55,90,0
0,59,88,0
0,36,103,0
0,35,116,0
0,38,45,260
0,55,82,0
0,64,74,0
0,51,80,0
0,40,103,0
0,60,82,0
0,44,87,0
0,38,104,0
0,35,91,0
0,38,87,100
0,59,103,100
0,38,93,0
0,72,113,76
0,57,74,0
0,36,111,0
0,48,79,0
0,35,116,0
0,60,96,0
0,55,88,0
0,64,96,0
0,55,104,115
0,48,112,0
0,55,82,0
0,60,78,20
0,64,66,20
0,64,100,0
0,64,108,0
0,51,80,0
0,60,100,0
0,60,108,0
0,44,91,0
0,38,98,0
0,35,91,0
0,71,112,15
0,36,109,20
0,59,76,0
0,64,76,0
0,38,82,0
0,60,74,0
0,55,90,0
0,69,108,83
0,59,88,0
0,31,111,0
0,35,116,0
0,67,112,40
0,64,92,8
0,64,100,0
0,38,45,0
0,60,100,0
0,60,108,0
0,55,82,0
0,64,74,20
0,51,80,0
0,60,82,0
0,44,87,0
0,38,104,0
0,35,91,0
0,72,108,18
0,31,109,32
0,55,92,0
0,48,100,0
0,59,76,0
0,64,100,0
0,64,108,0
0,59,90,0
0,36,109,0
0,48,79,0
0,60,100,0
0,60,108,0
0,35,116,0
0,71,116,28
0,55,82,0
0,60,78,20
0,64,66,20
0,51,80,0
0,44,87,0
0,38,98,0
0,35,91,0
0,36,107,20
0,64,100,0
0,64,108,0
0,59,76,0
0,64,76,0
0,60,100,0
0,60,108,0
0,38,82,0
0,60,74,0
0,55,90,0
0,69,116,3
0,59,88,0
0,40,105,0
0,35,116,0
0,38,45,79
0,67,116,11
0,55,82,0
0,64,74,0
0,51,80,0
0,43,109,0
0,60,82,0
0,44,84,0
0,38,104,0
0,35,91,0
0,64,105,30
0,59,76,29
0,59,90,0
0,36,116,0
0,48,79,0
0,35,116,0
0,55,96,260
0,48,104,0
0,55,82,0
0,60,78,20
0,64,66,20
0,64,96,0
0,64,104,0
0,51,80,0
0,60,100,0
0,60,108,0
0,44,82,0
0,38,98,0
0,35,91,0
0,36,109,20
0,55,100,0
0,48,108,0
0,59,76,0
0,64,76,0
0,38,82,0
0,60,74,0
0,55,90,0
0,65,100,0
0,65,108,0
0,59,88,0
0,31,105,0
0,60,100,0
0,60,108,0
0,35,116,0
0,64,92,108
0,64,100,0
0,38,45,0
0,60,76,0
0,60,84,0
0,55,82,0
0,64,74,13
0,51,80,0
0,60,82,0
0,44,84,0
0,38,104,0
0,35,91,0
0,31,107,160
0,55,84,0
0,48,92,0
0,59,76,0
0,60,120,0
0,64,100,0
0,64,108,0
0,59,90,0
0,36,107,0
0,48,79,0
0,64,120,0
0,60,100,0
0,60,108,0
0,35,116,0
0,55,88,97
0,48,96,0
0,55,82,0
0,60,78,20
0,64,66,20
0,65,100,0
0,65,108,0
0,51,80,0
0,60,100,0
0,60,108,0
0,44,84,0
0,38,98,0
0,35,91,0
0,64,120,16
0,60,120,1
0,36,107,7
0,64,84,0
0,64,92,0
0,59,76,0
0,64,76,0
0,60,60,0
0,60,68,0
0,38,82,0
0,60,74,0
0,55,90,0
0,59,88,0
0,33,109,0
0,35,116,0
0,38,45,240
0,55,82,0
0,64,74,0
0,51,80,0
0,31,103,0
0,60,82,0
0,44,82,0
0,38,104,0
0,35,91,0
0,59,76,260
0,59,90,0
0,36,109,0
0,48,79,0
0,35,116,0
0,72,115,50
0,55,104,30
0,48,112,0
0,55,82,0
0,60,78,20
0,64,66,20
0,64,100,0
0,64,108,0
0,51,80,0
0,60,100,0
0,60,108,0
0,44,87,0
0,38,98,0
0,35,91,0
0,71,112,3
0,36,112,20
0,59,76,0
0,64,76,0
0,38,82,0
0,60,74,0
0,55,90,0
0,59,88,0
0,31,108,0
0,35,116,0
0,69,116,37
0,64,92,224
0,64,100,0
0,38,45,0
0,60,100,0
0,60,108,0
0,55,82,0
0,67,112,1
0,64,74,0
0,51,80,0
0,60,82,0
0,44,82,0
0,38,104,0
0,35,91,0
0,31,107,80
0,72,113,0
0,55,88,0
0,48,96,0
0,59,76,0
0,64,100,0
0,64,108,0
0,59,90,0
0,36,104,0
0,48,79,0
0,60,104,0
0,60,112,0
0,35,116,0
0,55,82,0
0,60,78,20
0,64,66,20
0,51,80,0
0,44,87,0
0,38,98,0
0,35,91,0
0,67,108,21
0,36,99,20
0,64,92,0
0,64,100,0
0,59,76,0
0,64,76,0
0,60,104,0
0,60,112,0
0,38,82,0
0,60,74,0
0,55,90,0
0,69,112,6
0,59,88,0
0,40,103,0
0,35,116,0
0,71,108,30
0,38,45,50
0,55,82,0
0,64,74,0
0,51,80,0
0,43,113,0
0,60,82,0
0,44,84,0
0,38,104,0
0,35,91,0
0,67,111,0
0,59,76,80
0,55,88,0
0,43,96,0
0,59,90,0
0,38,111,0
0,35,116,0
0,65,92,0
0,59,96,0
0,43,79,0
0,55,72,0
0,65,84,28
0,65,92,0
0,59,92,0
0,59,100,0
0,55,82,3
0,59,78,38
0,65,66,20
0,51,80,0
0,44,84,0
0,38,98,0
0,35,91,0
0,55,90,0
0,38,112,20
0,55,84,0
0,43,92,0
0,59,76,0
0,65,76,0
0,38,82,0
0,59,74,0
0,65,100,0
0,65,108,0
0,59,88,0
0,31,111,0
0,59,92,0
0,59,100,0
0,35,116,0
0,38,45,139
0,65,79,20
0,51,80,0
0,59,75,0
0,44,87,0
0,55,76,0
0,38,104,0
0,35,91,0
0,31,111,80
0,55,76,0
0,43,84,0
0,59,76,0
0,59,120,0
0,65,100,0
0,65,108,0
0,59,90,0
0,38,111,0
0,43,79,0
0,67,120,0
0,59,96,0
0,59,104,0
0,35,116,0
0,55,82,0
0,59,78,20
0,65,66,0
0,55,92,0
0,43,100,0
0,51,80,0
0,31,109,0
0,44,79,0
0,38,98,0
0,35,91,0
0,55,90,0
0,67,120,1
0,59,120,6
0,65,100,0
0,65,108,0
0,59,76,0
0,65,76,0
0,59,92,0
0,59,100,0
0,38,82,0
0,59,74,0
0,59,88,0
0,33,109,0
0,35,116,0
0,38,45,80
0,65,80,0
0,51,80,0
0,35,113,0
0,59,74,0
0,44,95,0
0,55,76,0
0,38,104,0
0,35,91,0
0,59,76,260
0,64,115,0
0,64,100,0
0,57,74,0
0,36,109,0
0,60,112,0
0,35,116,0
0,64,88,0
0,55,76,0
0,48,79,0
0,60,80,0
0,64,113,22
0,60,83,20
0,64,93,3
0,60,75,80
0,64,93,67
0,60,83,75
0,55,82,27
0,60,78,20
0,64,66,0
0,64,93,0
0,51,80,0
0,33,107,0
0,44,84,0
0,38,98,0
0,35,91,0
0,60,75,20
0,64,93,67
0,60,83,0
0,64,100,8
0,64,93,0
0,59,76,0
0,64,76,0
0,38,82,0
0,60,74,0
0,55,90,0
0,60,75,20
0,64,93,0
0,59,88,0
0,31,108,0
0,35,116,0
0,64,112,21
0,60,83,20
0,64,93,3
0,60,75,80
0,64,93,67
0,60,112,0
0,38,45,0
0,64,100,0
0,65,113,3
0,60,83,18
0,55,82,0
0,64,74,0
0,64,86,0
0,51,80,0
0,28,108,0
0,60,82,0
0,44,79,0
0,38,104,0
0,35,91,0
0,60,75,20
0,33,108,0
0,67,119,12
0,59,76,0
0,40,115,0
0,67,115,0
0,59,90,0
0,36,104,0
0,48,79,0
0,35,116,0
0,58,100,0
0,64,100,0
0,55,84,0
0,58,83,20
0,67,93,3
0,67,119,0
0,58,75,0
0,67,93,67
0,64,100,0
0,58,112,0
0,58,75,0
0,55,82,0
0,64,66,0
0,67,93,0
0,51,80,0
0,34,104,0
0,58,78,0
0,44,82,0
0,38,98,0
0,35,91,0
0,58,75,20
0,67,93,67
0,58,75,75
0,67,93,0
0,64,100,0
0,59,76,0
0,58,112,0
0,38,82,0
0,64,76,0
0,55,90,0
0,58,74,15
0,58,75,20
0,67,93,0
0,59,88,0
0,33,103,0
0,35,116,0
0,69,116,16
0,58,75,20
0,67,93,67
0,58,75,75
0,67,93,67
0,38,45,0
0,58,75,20
0,55,82,0
0,67,93,0
0,64,100,0
0,51,80,0
0,31,109,0
0,64,74,0
0,58,112,0
0,44,82,0
0,38,104,0
0,35,91,0
0,58,82,15
0,70,115,2
0,58,75,20
0,59,76,0
0,59,90,0
0,29,103,0
0,35,116,0
0,53,80,0
0,57,88,0
0,41,79,0
0,65,104,0
0,69,115,47
0,65,104,260
0,65,112,0
0,62,100,0
0,57,120,0
0,57,112,0
0,62,108,0
0,57,82,33
0,60,78,20
0,65,66,0
0,51,80,0
0,26,107,0
0,44,82,0
0,38,98,0
0,35,91,0
0,59,76,0
0,65,76,0
0,38,82,0
0,60,74,0
0,57,90,0
0,67,92,0
0,65,104,0
0,65,112,0
0,59,88,0
0,24,108,0
0,60,100,0
0,57,108,0
0,35,116,0
0,57,100,0
0,60,108,0
0,65,100,20
0,38,45,213
0,57,82,0
0,65,74,20
0,51,80,0
0,60,82,0
0,44,84,0
0,38,104,0
0,35,91,0
0,24,101,80
0,59,76,0
0,69,120,0
0,65,108,0
0,65,116,0
0,59,90,0
0,29,105,0
0,41,79,0
0,65,120,0
0,60,104,0
0,57,120,0
0,35,116,0
0,57,112,0
0,60,112,0
0,57,82,0
0,60,78,20
0,65,66,20
0,51,80,0
0,44,79,0
0,38,98,0
0,35,91,0
0,69,120,1
0,65,120,6
0,33,105,13
0,65,100,0
0,65,108,0
0,59,76,0
0,65,76,0
0,60,100,0
0,60,108,0
0,38,82,0
0,60,74,0
0,57,104,0
0,57,112,0
0,57,90,0
0,59,88,0
0,36,107,0
0,35,116,0
0,60,96,64
0,57,108,0
0,38,45,0
0,57,100,0
0,60,104,0
0,57,82,0
0,65,74,0
0,51,80,0
0,33,111,0
0,60,82,0
0,44,84,0
0,38,104,0
0,35,91,0
0,59,76,260
0,65,117,12
0,64,117,0
0,55,96,0
0,59,90,0
0,36,101,0
0,35,116,0
0,64,92,0
0,60,84,0
0,48,79,0
0,55,76,0
0,64,88,0
0,64,96,0
0,64,109,0
0,60,100,0
0,60,108,0
0,55,82,30
0,60,78,20
0,64,66,0
0,64,117,0
0,51,80,0
0,31,109,0
0,44,82,0
0,38,98,0
0,35,91,0
0,55,100,0
0,59,76,0
0,64,76,0
0,38,82,0
0,60,74,0
0,55,90,0
0,64,115,72
0,64,92,0
0,60,104,0
0,59,88,0
0,40,109,0
0,60,96,0
0,64,100,0
0,35,116,0
0,38,45,75
0,67,113,9
0,55,82,0
0,64,74,0
0,60,104,0
0,51,80,0
0,36,109,0
0,60,82,0
0,64,100,0
0,44,82,0
0,38,104,0
0,35,91,0
0,65,113,21
0,59,76,50
0,55,100,0
0,59,90,0
0,38,107,0
0,35,116,0
0,65,100,0
0,59,100,0
0,43,79,0
0,55,80,0
0,65,100,5
0,59,104,0
0,59,96,0
0,65,108,0
0,55,82,22
0,59,78,40
0,65,66,0
0,51,80,0
0,31,109,0
0,44,91,0
0,38,98,0
0,35,91,0
0,62,112,1
0,55,90,0
0,55,96,0
0,59,76,0
0,65,76,0
0,38,82,0
0,59,74,0
0,65,108,0
0,65,116,0
0,59,88,0
0,33,109,0
0,59,100,0
0,59,108,0
0,35,116,0
0,59,112,10
0,38,45,200
0,65,79,0
0,55,108,0
0,51,80,0
0,38,103,0
0,59,75,0
0,62,116,0
0,44,79,0
0,55,76,0
0,38,104,0
0,35,91,0
0,62,108,8
0,60,111,250
0,59,76,10
0,59,90,0
0,36,109,0
0,35,116,0
0,60,84,0
0,55,80,0
0,48,79,0
0,64,92,0
0,55,96,260
0,48,104,0
0,55,82,47
0,60,78,20
0,64,66,20
0,64,96,0
0,64,104,0
0,51,80,0
0,60,100,0
0,60,108,0
0,44,87,0
0,38,98,0
0,35,91,0
0,36,109,20
0,55,100,0
0,48,108,0
0,59,76,0
0,64,76,0
0,38,82,0
0,60,74,0
0,55,90,0
0,65,100,0
0,65,108,0
0,59,88,0
0,31,109,0
0,60,100,0
0,60,108,0
0,35,116,0
0,64,92,108
0,64,100,0
0,38,45,0
0,60,76,0
0,60,84,0
0,55,82,0
0,64,74,13
0,51,80,0
0,60,82,0
0,44,91,0
0,38,104,0
0,35,91,0
0,31,105,160
0,55,84,0
0,48,92,0
0,59,76,0
0,64,100,0
0,64,108,0
0,59,90,0
0,36,111,0
0,48,79,0
0,60,100,0
0,60,108,0
0,35,116,0
0,55,88,22
0,48,96,0
0,38,110,0
0,55,82,0
0,60,78,20
0,64,66,20
0,65,100,0
0,65,108,0
0,51,80,0
0,60,100,0
0,60,108,0
0,44,120,0
0,35,91,0
0,36,111,20
0,64,84,0
0,64,92,0
0,59,76,0
0,64,76,0
0,60,60,0
0,60,68,0
0,38,94,0
0,60,74,0
0,55,90,0
0,72,108,90
0,67,108,0
0,60,108,0
0,59,88,0
0,40,105,0
0,44,127,0
0,38,50,0
0,35,116,0
0,38,57,80
0,72,111,90
0,67,111,0
0,60,111,0
0,38,105,10
0,55,82,0
0,72,112,10
0,67,112,0
0,60,112,0
0,64,74,0
0,51,80,0
0,31,111,0
0,60,82,0
0,45,95,0
