track,note,velocity,time
0,45,93,70
0,80,120,2
0,81,105,37
0,48,80,4
0,84,102,40
0,45,78,23
0,81,114,15
0,41,92,0
0,35,110,5
0,51,94,0
0,29,105,0
0,77,114,0
0,57,88,5
0,53,75,0
0,60,86,10
0,57,83,0
0,40,93,5
0,51,88,0
0,65,87,0
0,60,85,0
0,57,92,70
0,53,83,0
0,60,120,115
0,57,95,0
0,40,102,1
0,51,85,0
0,65,123,0
0,60,88,0
0,60,91,100
0,53,85,0
0,29,105,3
0,35,88,0
0,46,95,45
0,77,111,5
0,34,102,0
0,35,110,0
0,51,94,0
0,58,84,35
0,53,83,0
0,84,105,5
0,62,88,68
0,58,75,0
0,40,93,5
0,51,88,0
0,84,117,0
0,65,91,0
0,62,83,0
0,58,82,3
0,53,81,0
0,62,123,125
0,58,75,0
0,40,102,5
0,51,85,0
0,84,114,0
0,65,120,0
0,62,85,0
0,53,95,38
0,34,108,5
0,35,88,0
0,41,81,80
0,84,120,5
0,29,102,0
0,35,110,0
0,51,94,0
0,57,89,223
0,53,95,0
0,60,94,73
0,57,88,0
0,40,93,5
0,51,88,0
0,65,92,0
0,60,85,0
0,57,90,10
0,53,85,0
0,60,117,55
0,57,88,0
0,84,117,5
0,40,102,0
0,51,85,0
0,65,107,0
0,60,88,0
0,60,85,28
0,53,95,0
0,35,88,5
0,46,90,0
0,34,108,4
0,35,110,0
0,51,94,0
0,83,120,2
0,84,102,23
0,58,92,278
0,53,83,0
0,62,114,3
0,58,77,0
0,40,93,5
0,51,88,0
0,65,101,0
0,62,85,0
0,77,117,22
0,58,82,61
0,53,83,0
0,62,114,58
0,58,83,0
0,40,102,5
0,51,85,0
0,65,117,0
0,62,88,0
0,83,117,12
0,84,102,38
0,53,95,8
0,34,105,5
0,35,88,0
0,41,85,58
0,29,105,0
0,35,110,0
0,51,94,0
0,83,123,10
0,84,120,1
0,57,94,258
0,53,95,0
0,60,107,160
0,57,92,0
0,40,93,5
0,51,88,0
0,65,104,0
0,60,98,0
0,77,120,8
0,57,107,25
0,53,92,0
0,60,107,18
0,57,85,0
0,40,102,5
0,51,85,0
0,65,107,0
0,60,88,0
0,83,117,20
0,84,102,20
0,53,98,40
0,29,105,5
0,35,88,0
0,46,92,0
0,34,105,0
0,35,110,0
0,51,94,0
0,83,120,25
0,84,114,30
0,58,89,243
0,53,85,0
0,62,104,3
0,58,79,0
0,40,93,3
0,51,88,0
0,65,110,0
0,62,85,0
0,77,120,25
0,58,90,48
0,53,95,0
0,62,120,0
0,58,88,0
0,34,102,5
0,40,102,0
0,51,85,0
0,65,117,0
0,62,85,0
0,83,117,2
0,84,111,0
0,58,104,28
0,53,92,0
0,35,88,5
0,41,101,10
0,29,102,4
0,77,120,0
0,35,102,0
0,51,94,0
0,53,99,280
0,53,68,0
0,41,76,5
0,40,64,18
0,57,90,23
0,57,85,0
0,29,87,5
0,77,114,0
0,40,105,0
0,51,88,0
0,60,77,0
0,53,89,10
0,53,75,0
0,41,72,5
0,40,64,5
0,57,94,65
0,57,90,0
0,29,90,5
0,77,114,0
0,40,102,0
0,51,85,0
0,60,88,0
0,53,77,13
0,35,113,5
0,41,84,0
0,40,74,0
0,53,117,53
0,41,105,0
0,29,102,5
0,77,117,0
0,35,102,0
0,40,50,0
0,51,94,0
0,57,89,0
0,53,88,0
0,57,77,5
0,60,81,0
0,40,84,2
0,40,115,18
0,55,104,38
0,43,98,0
0,31,102,5
0,79,111,0
0,40,74,0
0,51,88,0
0,55,101,0
0,40,62,110
0,40,102,150
0,56,107,8
0,44,92,0
0,32,102,5
0,80,114,0
0,40,102,0
0,51,85,0
0,56,92,0
0,40,105,150
0,35,113,18
0,40,111,0
0,45,95,20
0,60,103,0
0,33,99,0
0,45,111,0
0,35,102,0
0,49,59,0
0,51,94,0
0,76,112,8
0,57,102,45
0,60,103,2
0,76,101,13
0,55,85,10
0,40,93,5
0,51,88,0
0,72,99,0
0,76,96,0
0,60,79,0
0,64,88,5
0,60,94,10
0,76,95,5
0,60,106,45
0,69,84,3
0,76,106,0
0,40,102,40
0,51,85,0
0,72,84,0
0,76,96,0
0,76,104,7
0,60,103,2
0,76,104,22
0,60,106,2
0,55,55,3
0,28,102,5
0,35,113,0
0,69,111,0
0,72,71,0
0,60,71,0
0,64,81,5
0,45,85,13
0,33,99,4
0,35,110,0
0,51,94,0
0,45,105,0
0,60,115,2
0,76,106,0
0,57,102,70
0,76,93,70
0,55,90,8
0,40,93,5
0,51,88,0
0,72,105,0
0,76,99,0
0,60,83,0
0,64,85,5
0,60,106,12
0,55,81,0
0,69,90,5
0,60,79,13
0,33,99,5
0,40,102,0
0,51,85,0
0,72,90,0
0,76,99,0
0,64,85,0
0,72,104,7
0,55,96,0
0,35,88,35
0,69,105,0
0,50,92,0
0,38,96,4
0,35,110,0
0,51,94,0
0,50,99,0
0,74,93,7
0,57,112,0
0,69,94,107
0,57,98,155
0,40,93,5
0,51,88,0
0,74,80,0
0,77,96,0
0,62,85,0
0,65,77,5
0,69,96,23
0,57,63,108
0,33,84,5
0,40,102,0
0,51,85,0
0,74,90,0
0,77,96,0
0,69,107,48
0,50,90,0
0,35,88,5
0,69,108,0
0,72,120,20
0,57,85,0
0,38,93,5
0,35,110,0
0,51,94,0
0,50,108,0
0,62,71,0
0,65,81,5
0,69,104,5
0,69,99,0
0,57,85,150
0,72,120,0
0,40,93,5
0,51,88,0
0,74,92,0
0,77,99,0
0,62,83,0
0,65,90,5
0,69,99,33
0,57,88,140
0,38,102,5
0,40,102,0
0,51,85,0
0,74,92,0
0,77,105,0
0,35,88,13
0,69,102,0
0,45,95,0
0,60,103,0
0,33,99,0
0,35,110,0
0,51,94,0
0,45,111,0
0,76,112,8
0,57,102,45
0,60,103,2
0,76,101,13
0,55,85,10
0,40,93,5
0,51,88,0
0,72,99,0
0,76,96,0
0,60,79,0
0,64,88,5
0,60,94,10
0,76,95,5
0,60,106,45
0,69,84,0
0,76,106,0
0,40,102,40
0,51,85,0
0,72,84,0
0,76,96,0
0,76,104,7
0,60,103,2
0,76,104,22
0,60,106,2
0,55,55,3
0,28,102,5
0,35,88,0
0,69,111,0
0,72,71,0
0,60,71,0
0,64,81,5
0,45,85,13
0,33,99,4
0,35,110,0
0,51,94,0
0,45,105,0
0,60,115,2
0,76,106,0
0,57,102,70
0,76,93,70
0,55,90,8
0,40,93,5
0,51,88,0
0,72,105,0
0,76,99,0
0,60,83,0
0,64,85,5
0,60,106,12
0,55,81,0
0,69,90,5
0,60,79,13
0,33,99,5
0,40,102,0
0,51,85,0
0,72,90,0
0,76,99,0
0,64,85,0
0,72,104,7
0,55,96,0
0,35,88,35
0,69,105,0
0,50,92,0
0,38,96,0
0,35,110,0
0,51,94,0
0,50,99,0
0,57,115,0
0,74,112,0
0,69,94,73
0,57,98,155
0,40,93,5
0,51,88,0
0,74,80,0
0,77,96,0
0,62,85,0
0,65,77,5
0,69,96,23
0,72,104,0
0,57,63,5
0,33,84,1
0,40,102,0
0,51,85,0
0,74,90,0
0,77,96,0
0,55,103,4
0,50,90,48
0,35,88,5
0,69,108,0
0,69,104,12
0,50,88,8
0,38,105,5
0,35,92,0
0,49,74,0
0,38,90,0
0,50,99,0
0,57,85,0
0,62,88,5
0,65,92,0
0,57,88,15
0,53,85,18
0,41,102,4
0,41,92,0
0,53,102,0
0,67,93,8
0,55,103,4
0,50,95,5
0,44,110,3
0,38,99,0
0,38,90,0
0,50,99,0
0,46,101,115
0,35,110,4
0,51,94,0
0,34,96,0
0,46,105,0
0,53,81,305
0,62,84,5
0,58,90,15
0,40,93,5
0,51,88,0
0,65,92,0
0,70,96,0
0,62,92,0
0,65,109,7
0,62,90,13
0,58,98,28
0,40,102,5
0,51,85,0
0,65,90,0
0,70,99,0
0,62,98,0
0,65,106,35
0,29,96,13
0,35,88,0
0,62,102,0
0,46,92,5
0,34,99,5
0,35,110,0
0,51,94,0
0,46,102,0
0,65,104,18
0,53,79,10
0,62,96,5
0,58,85,3
0,40,93,5
0,51,88,0
0,65,90,0
0,70,99,0
0,62,90,0
0,67,109,15
0,53,83,30
0,62,105,5
0,58,83,0
0,40,102,5
0,51,85,0
0,65,86,0
0,70,94,0
0,62,85,0
0,65,106,12
0,35,88,83
0,62,92,0
0,48,98,20
0,36,108,0
0,35,110,0
0,51,94,0
0,48,99,0
0,69,106,10
0,55,75,10
0,64,96,5
0,60,92,18
0,40,93,5
0,51,88,0
0,67,78,0
0,72,90,0
0,64,95,0
0,64,90,70
0,55,83,0
0,40,102,5
0,51,85,0
0,67,92,0
0,72,92,0
0,60,92,0
0,64,98,5
0,35,88,58
0,64,99,0
0,48,92,3
0,36,102,0
0,35,110,0
0,51,94,0
0,48,99,0
0,67,101,27
0,64,94,158
0,55,81,33
0,38,99,5
0,40,93,0
0,51,88,0
0,67,88,0
0,72,88,0
0,60,85,0
0,64,85,5
0,64,94,53
0,55,85,8
0,40,87,5
0,40,102,0
0,51,85,0
0,67,86,0
0,72,92,0
0,60,95,0
0,64,95,5
0,35,88,5
0,64,99,0
0,41,92,50
0,60,106,0
0,29,105,0
0,35,110,0
0,51,94,0
0,41,102,0
0,69,118,2
0,58,106,28
0,67,106,5
0,57,88,35
0,53,75,0
0,65,94,5
0,60,86,10
0,57,83,0
0,40,93,5
0,51,88,0
0,69,94,0
0,72,92,0
0,65,87,0
0,60,85,0
0,65,109,2
0,57,109,18
0,57,92,8
0,53,83,0
0,65,96,5
0,60,120,115
0,57,95,0
0,40,102,5
0,51,85,0
0,69,96,0
0,72,99,0
0,65,123,0
0,60,88,0
0,65,104,3
0,60,91,15
0,53,85,0
0,29,105,3
0,35,88,0
0,65,99,0
0,46,95,3
0,34,102,5
0,35,110,0
0,51,94,0
0,46,99,0
0,62,112,2
0,58,84,305
0,53,83,0
0,65,99,5
0,62,88,155
0,58,75,0
0,40,93,5
0,51,88,0
0,70,105,0
0,74,90,0
0,65,91,0
0,62,83,0
0,58,82,3
0,53,81,0
0,65,90,5
0,62,123,125
0,58,75,0
0,40,102,0
0,51,85,0
0,70,111,0
0,74,99,0
0,65,120,0
0,62,85,0
0,65,109,5
0,53,95,33
0,34,108,5
0,35,88,0
0,65,111,0
0,41,81,48
0,29,102,5
0,35,110,0
0,51,94,0
0,41,99,0
0,69,112,4
0,57,89,35
0,53,95,0
0,65,66,5
0,67,112,20
0,60,94,10
0,57,88,0
0,40,93,5
0,51,88,0
0,69,76,0
0,65,92,0
0,60,85,0
0,65,109,27
0,72,86,35
0,57,90,10
0,53,85,0
0,65,82,5
0,60,117,8
0,57,88,0
0,40,102,5
0,51,85,0
0,69,105,0
0,72,102,0
0,65,107,0
0,60,88,0
0,60,85,28
0,53,95,0
0,35,88,5
0,65,102,0
0,46,90,0
0,34,108,5
0,35,110,0
0,51,94,0
0,46,96,0
0,58,92,10
0,53,83,0
0,65,92,5
0,62,114,3
0,58,77,0
0,40,93,1
0,51,88,0
0,70,99,0
0,74,92,0
0,65,101,0
0,62,85,0
0,62,109,0
0,62,109,10
0,58,82,33
0,53,83,0
0,65,88,5
0,62,114,5
0,58,83,0
0,40,102,5
0,51,85,0
0,70,105,0
0,74,90,0
0,65,117,0
0,62,88,0
0,62,103,17
0,65,115,8
0,53,95,8
0,34,105,5
0,35,88,0
0,65,105,0
0,41,85,15
0,29,105,0
0,35,110,0
0,51,94,0
0,41,96,0
0,69,106,12
0,60,94,8
0,57,94,100
0,53,95,0
0,65,84,5
0,60,107,3
0,57,92,0
0,40,93,5
0,51,88,0
0,69,102,0
0,72,92,0
0,65,104,0
0,60,98,0
0,57,107,25
0,53,92,0
0,65,90,5
0,60,107,18
0,57,85,0
0,40,102,5
0,51,85,0
0,69,94,0
0,72,94,0
0,65,107,0
0,60,88,0
0,53,98,40
0,29,105,5
0,35,88,0
0,65,88,0
0,46,92,0
0,34,105,0
0,35,110,0
0,51,94,0
0,46,102,0
0,62,100,0
0,67,112,2
0,58,89,170
0,53,85,0
0,65,92,5
0,62,104,0
0,58,79,0
0,40,93,3
0,51,88,0
0,70,102,0
0,74,96,0
0,65,110,0
0,62,85,0
0,65,109,5
0,62,100,2
0,58,90,45
0,53,95,0
0,65,102,5
0,62,120,0
0,58,88,0
0,34,102,5
0,40,102,0
0,51,85,0
0,70,108,0
0,74,90,0
0,65,117,0
0,62,85,0
0,67,106,0
0,62,106,17
0,58,104,28
0,53,92,0
0,35,88,5
0,65,105,0
0,41,101,18
0,29,102,4
0,35,102,0
0,51,94,0
0,41,114,0
0,60,106,12
0,65,115,5
0,53,99,280
0,53,68,0
0,41,76,5
0,57,102,0
0,40,64,70
0,57,90,23
0,57,85,0
0,29,87,0
0,60,99,0
0,65,108,0
0,40,105,0
0,51,88,0
0,60,77,0
0,53,89,10
0,53,75,0
0,57,99,5
0,41,72,0
0,40,64,5
0,57,94,65
0,57,90,0
0,29,90,5
0,60,111,0
0,65,108,0
0,40,102,0
0,51,85,0
0,60,88,0
0,53,77,13
0,57,92,5
0,60,86,0
0,65,82,0
0,35,113,0
0,41,84,0
0,40,74,0
0,53,117,23
0,41,105,0
0,29,102,0
0,53,105,0
0,60,105,0
0,77,117,0
0,35,102,0
0,40,50,0
0,51,94,0
0,57,89,0
0,53,88,0
0,57,77,5
0,60,81,0
0,40,84,23
0,53,94,18
0,60,96,0
0,40,115,0
0,55,104,38
0,43,98,0
0,31,102,5
0,79,120,0
0,40,74,0
0,51,88,0
0,55,101,0
0,40,62,110
0,40,102,3
0,56,107,8
0,44,92,0
0,32,102,5
0,53,105,0
0,60,102,0
0,80,123,0
0,40,102,0
0,51,85,0
0,56,92,0
0,40,105,150
0,35,113,5
0,40,111,0
0,45,95,30
0,60,103,0
0,33,99,0
0,45,111,0
0,35,102,0
0,49,59,0
0,51,94,0
0,76,112,8
0,57,102,45
0,60,103,2
0,76,101,13
0,55,85,10
0,40,93,5
0,51,88,0
0,72,99,0
0,76,96,0
0,60,79,0
0,64,88,5
0,60,94,10
0,76,95,5
0,60,106,45
0,69,84,0
0,76,106,0
0,40,102,40
0,51,85,0
0,72,84,0
0,76,96,0
0,76,104,7
0,60,103,2
0,76,104,22
0,60,106,2
0,55,55,3
0,28,102,5
0,35,113,0
0,69,111,0
0,72,71,0
0,60,71,0
0,64,81,5
0,45,85,12
0,33,99,4
0,35,110,0
0,51,94,0
0,45,105,0
0,60,115,2
0,76,106,0
0,57,102,2
0,76,93,70
0,55,90,8
0,40,93,5
0,51,88,0
0,72,105,0
0,76,99,0
0,60,83,0
0,64,85,5
0,60,106,12
0,55,81,0
0,69,90,5
0,60,79,13
0,33,99,5
0,40,102,0
0,51,85,0
0,72,90,0
0,76,99,0
0,64,85,0
0,72,104,7
0,55,96,0
0,35,88,35
0,69,105,0
0,50,92,0
0,38,96,4
0,35,110,0
0,51,94,0
0,50,99,0
0,74,93,7
0,57,112,1
0,69,94,293
0,57,98,155
0,40,93,5
0,51,88,0
0,74,80,0
0,77,96,0
0,62,85,0
0,65,77,5
0,69,96,23
0,57,63,108
0,33,84,5
0,40,102,0
0,51,85,0
0,74,90,0
0,77,96,0
0,69,107,48
0,50,90,0
0,35,88,5
0,69,108,0
0,72,120,20
0,57,85,0
0,38,93,5
0,35,110,0
0,51,94,0
0,50,108,0
0,62,71,0
0,65,81,5
0,69,104,5
0,69,99,0
0,57,85,150
0,72,120,0
0,40,93,5
0,51,88,0
0,74,92,0
0,77,99,0
0,62,83,0
0,65,90,5
0,69,99,33
0,57,88,140
0,38,102,5
0,40,102,0
0,51,85,0
0,74,92,0
0,77,105,0
0,35,88,13
0,69,102,0
0,45,95,0
0,60,103,0
0,33,99,0
0,35,110,0
0,51,94,0
0,45,111,0
0,76,112,8
0,57,102,45
0,60,103,2
0,76,101,13
0,55,85,10
0,40,93,5
0,51,88,0
0,72,99,0
0,76,96,0
0,60,79,0
0,64,88,5
0,60,94,10
0,76,95,5
