track,note,velocity,time
0,48,103,32
0,36,81,8
0,48,106,0
0,35,107,0
0,87,98,0
0,55,103,0
0,60,104,6
0,64,115,4
0,55,75,32
0,42,75,8
0,60,81,0
0,64,87,6
0,48,83,146
0,42,86,8
0,52,74,0
0,55,87,92
0,42,95,8
0,60,92,0
0,64,87,6
0,48,93,104
0,31,76,8
0,43,113,0
0,35,116,0
0,52,87,0
0,55,103,6
0,60,110,4
0,64,109,6
0,55,84,8
0,42,89,8
0,60,93,0
0,64,91,6
0,48,93,70
0,42,84,8
0,52,83,0
0,55,86,80
0,42,94,8
0,60,93,0
0,64,92,6
0,48,97,76
0,36,83,8
0,48,111,0
0,35,102,0
0,87,104,0
0,55,113,0
0,60,114,6
0,64,117,4
0,55,84,24
0,42,68,8
0,60,83,0
0,64,81,6
0,48,96,36
0,42,83,8
0,52,78,0
0,55,80,100
0,42,99,8
0,60,96,0
0,64,96,6
0,48,96,76
0,31,76,8
0,43,117,0
0,35,116,0
0,52,102,0
0,55,103,6
0,60,108,4
0,64,109,6
0,55,81,58
0,42,87,8
0,48,90,32
0,42,80,8
0,52,100,0
0,55,104,84
0,42,95,8
0,60,102,0
0,64,102,6
0,48,110,88
0,36,77,8
0,48,114,0
0,35,103,0
0,87,102,0
0,55,104,0
0,60,113,6
0,64,105,4
0,55,90,86
0,42,75,8
0,60,84,0
0,64,94,6
0,48,75,160
0,42,85,8
0,52,89,0
0,55,101,72
0,42,96,8
0,60,98,0
0,64,104,6
0,48,96,88
0,52,102,8
0,55,109,44
0,31,79,8
0,43,112,0
0,35,110,0
0,60,102,0
0,64,113,6
0,55,95,80
0,42,89,8
0,60,85,0
0,64,99,6
0,48,95,20
0,42,82,4
0,52,96,0
0,55,95,96
0,42,98,8
0,60,84,0
0,64,105,6
0,48,95,90
0,52,105,8
0,55,117,56
0,36,75,8
0,48,111,0
0,35,105,0
0,87,96,0
0,60,112,0
0,64,123,6
0,55,89,68
0,42,75,8
0,60,81,0
0,64,89,6
0,48,105,6
0,42,84,8
0,52,82,0
0,55,102,80
0,42,97,8
0,60,93,0
0,64,104,6
0,48,99,84
0,52,95,8
0,55,108,48
0,31,81,8
0,43,117,0
0,35,114,0
0,60,110,0
0,64,118,6
0,67,98,20
0,55,79,0
0,42,89,8
0,60,72,0
0,64,83,6
0,67,82,8
0,48,99,12
0,42,88,8
0,52,99,0
0,55,112,4
0,42,95,8
0,60,116,0
0,69,99,4
0,64,113,2
0,48,94,18
0,67,83,6
0,52,110,0
0,48,110,4
0,36,80,8
0,48,110,0
0,35,103,0
0,87,96,0
0,55,103,0
0,60,86,6
0,64,108,4
0,64,101,24
0,55,76,40
0,42,71,8
0,60,77,0
0,64,79,6
0,60,95,24
0,48,83,20
0,42,85,8
0,52,98,0
0,55,87,108
0,42,100,8
0,60,95,0
0,64,91,6
0,48,92,120
0,52,106,8
0,55,110,56
0,31,80,8
0,43,113,0
0,35,116,0
0,60,111,0
0,64,118,6
0,55,83,24
0,42,87,8
0,60,83,0
0,64,83,6
0,48,96,0
0,42,85,8
0,52,95,0
0,55,94,92
0,42,98,8
0,60,98,0
0,64,95,6
0,67,99,16
0,48,82,12
0,52,80,4
0,55,123,32
0,36,81,8
0,48,113,0
0,35,102,0
0,87,99,0
0,60,121,0
0,64,119,6
0,69,106,20
0,67,99,32
0,55,82,48
0,42,74,8
0,60,81,0
0,64,75,6
0,60,93,8
0,48,89,4
0,42,85,8
0,52,81,0
0,55,74,112
0,42,101,8
0,64,80,0
0,48,101,188
0,52,101,8
0,55,115,92
0,31,87,8
0,43,116,0
0,35,115,0
0,60,116,0
0,64,119,6
0,55,105,36
0,42,83,8
0,60,101,0
0,64,101,6
0,48,96,104
0,42,86,8
0,52,85,0
0,55,86,68
0,42,96,8
0,60,83,0
0,64,86,6
0,48,99,84
0,52,102,8
0,55,115,52
0,36,84,8
0,48,119,0
0,35,100,0
0,87,99,0
0,60,119,0
0,64,117,6
0,55,80,56
0,42,69,8
0,60,93,0
0,64,79,6
0,48,86,30
0,42,88,8
0,52,83,0
0,67,108,96
0,55,76,16
0,42,99,8
0,60,90,0
0,64,76,6
0,48,94,124
0,52,97,8
0,55,108,68
0,31,86,8
0,43,111,0
0,35,116,0
0,60,111,0
0,64,113,6
0,69,113,28
0,67,107,52
0,55,76,12
0,42,84,8
0,60,81,0
0,64,77,6
0,65,98,12
0,48,93,144
0,42,84,8
0,52,106,0
0,55,110,56
0,42,93,8
0,60,120,0
0,64,111,4
0,64,116,2
0,48,104,0
0,52,110,8
0,62,94,8
0,43,108,4
0,43,84,8
0,43,127,0
0,35,107,0
0,87,101,0
0,53,103,0
0,59,105,6
0,62,111,4
0,53,79,72
0,42,70,8
0,59,85,0
0,62,79,6
0,43,96,10
0,42,85,6
0,50,106,0
0,53,95,112
0,42,95,8
0,59,101,0
0,62,108,6
0,43,112,68
0,50,103,8
0,53,106,28
0,38,82,8
0,38,123,0
0,35,110,0
0,59,118,0
0,62,121,6
0,53,78,92
0,42,82,8
0,59,88,0
0,62,77,6
0,43,106,76
0,42,82,4
0,50,105,0
0,53,75,108
0,42,93,8
0,59,91,0
0,62,81,6
0,43,109,56
0,50,93,8
0,53,107,52
0,31,88,8
0,43,125,0
0,35,106,0
0,87,97,0
0,59,108,0
0,62,108,6
0,67,103,4
0,53,82,40
0,42,74,8
0,59,93,0
0,62,83,6
0,43,101,6
0,42,83,8
0,50,88,0
0,67,89,96
0,53,79,12
0,42,99,8
0,59,90,0
0,62,82,6
0,43,113,118
0,50,106,8
0,53,113,56
0,38,81,8
0,38,123,0
0,35,116,0
0,59,120,0
0,62,118,6
0,69,103,28
0,67,99,28
0,53,81,40
0,42,85,8
0,59,88,0
0,62,82,6
0,65,103,8
0,64,95,32
0,43,107,2
0,42,86,8
0,50,94,0
0,53,77,8
0,42,93,8
0,59,96,0
0,62,78,6
0,62,104,32
0,43,114,60
0,50,112,8
0,53,102,64
0,31,82,8
0,43,126,0
0,35,102,0
0,87,99,0
0,59,108,0
0,62,110,6
0,53,77,52
0,42,71,8
0,59,84,0
0,62,75,6
0,43,106,12
0,42,82,8
0,50,115,0
0,53,90,112
0,42,98,8
0,59,100,0
0,62,84,6
0,43,115,102
0,50,107,8
0,53,111,64
0,38,84,8
0,38,127,0
0,35,111,0
0,59,111,0
0,62,121,6
0,53,80,84
0,42,87,0
0,59,88,0
0,62,74,6
0,43,111,2
0,42,85,8
0,50,101,0
0,53,79,112
0,42,93,8
0,59,96,0
0,62,76,6
0,65,106,24
0,43,105,84
0,50,111,8
0,53,107,40
0,43,86,8
0,43,124,0
0,35,107,0
0,87,101,0
0,59,107,0
0,62,112,6
0,65,111,12
0,53,83,32
0,38,80,8
0,38,111,0
0,42,75,0
0,59,93,0
0,62,75,6
0,55,94,12
0,43,92,48
0,42,82,8
0,50,98,0
0,53,88,112
0,42,96,8
0,59,97,0
0,62,91,6
0,43,103,68
0,50,101,8
0,53,119,72
0,35,113,8
0,59,117,0
0,62,118,6
0,53,90,70
0,42,82,8
0,59,105,0
0,62,95,6
0,62,85,28
0,43,95,32
0,42,85,8
0,50,97,0
0,53,102,0
0,35,75,8
0,47,112,0
0,42,94,0
0,59,113,0
0,62,101,6
0,65,98,20
0,48,106,8
0,36,82,8
0,48,119,0
0,35,106,0
0,87,96,0
0,55,104,0
0,60,104,6
0,64,106,4
0,64,100,16
0,62,94,0
0,55,86,44
0,42,68,8
0,60,84,0
0,64,90,6
0,60,77,8
0,48,87,0
0,42,87,4
0,52,93,0
0,55,84,112
0,42,100,8
0,60,86,0
0,64,91,6
0,48,85,116
0,52,92,8
0,55,123,68
0,31,83,8
0,43,116,0
0,35,110,0
0,60,121,0
0,64,116,6
0,55,88,56
0,42,86,8
0,60,85,0
0,64,88,6
0,48,96,8
0,42,82,8
0,52,93,0
0,55,104,108
0,42,96,8
0,60,96,0
0,64,110,6
0,48,100,48
0,52,91,8
0,55,113,20
0,36,80,8
0,48,119,0
0,35,100,0
0,87,97,0
0,60,104,0
0,64,115,6
0,55,95,36
0,42,74,8
0,60,81,0
0,64,76,6
0,48,96,6
0,42,87,8
0,52,105,0
0,55,97,100
0,42,96,8
0,60,93,0
0,64,97,6
0,48,88,84
0,52,91,8
0,55,114,80
0,31,82,8
0,43,114,0
0,35,114,0
0,60,112,0
0,64,123,6
0,55,82,8
0,42,85,8
0,60,80,0
0,64,80,6
0,67,99,12
0,48,92,22
0,42,84,8
0,52,99,0
0,55,114,60
0,42,98,8
0,60,113,0
0,64,117,6
0,67,95,32
0,48,97,120
0,52,111,8
0,48,110,8
0,36,74,8
0,48,118,0
0,35,103,0
0,87,101,0
0,55,101,0
0,58,112,6
0,64,106,4
0,67,95,8
0,64,88,32
0,55,78,40
0,42,73,8
0,58,82,0
0,64,73,6
0,60,82,36
0,48,107,8
0,42,87,8
0,55,77,108
0,42,97,8
0,58,93,0
0,64,97,6
0,48,102,104
0,55,117,72
0,34,79,8
0,46,111,0
0,35,115,0
0,58,123,0
0,64,110,6
0,58,78,88
0,42,86,8
0,48,98,14
0,42,87,8
0,55,81,112
0,42,94,8
0,58,85,0
0,64,80,6
0,64,76,16
0,48,103,100
0,67,101,56
0,55,115,12
0,34,77,8
0,46,119,0
0,35,107,0
0,87,101,0
0,58,122,0
0,64,116,6
0,64,102,72
0,55,80,60
0,42,75,8
0,58,94,0
0,64,91,6
0,60,87,8
0,48,99,4
0,42,88,8
0,55,78,112
0,34,79,8
0,46,117,0
0,42,98,0
0,58,89,0
0,64,88,6
0,48,114,0
0,55,109,108
0,35,113,8
0,58,119,0
0,64,115,6
0,55,76,4
0,64,90,8
0,42,85,0
0,58,76,0
0,64,76,6
0,48,104,12
0,42,86,8
0,67,86,36
0,55,108,0
0,34,72,8
0,42,94,0
0,58,119,0
0,64,115,6
0,48,123,4
0,67,92,16
0,41,108,4
0,33,86,8
0,45,124,0
0,35,102,0
0,87,101,0
0,57,103,0
0,60,100,6
0,65,102,4
0,57,78,56
0,65,84,8
0,42,73,0
0,60,79,0
0,41,83,22
0,42,82,4
0,48,94,0
0,57,86,72
0,42,100,8
0,60,84,0
0,65,93,6
0,41,111,76
0,48,107,8
0,57,114,60
0,29,81,8
0,41,119,0
0,35,116,0
0,60,115,0
0,65,120,6
0,57,85,44
0,42,85,8
0,60,86,0
0,65,86,6
0,41,97,0
0,42,84,8
0,48,91,0
0,57,90,112
0,33,89,8
0,45,111,0
0,42,95,0
0,60,103,0
0,65,101,6
0,41,103,114
0,48,114,8
0,57,117,44
0,35,106,8
0,87,101,0
0,60,121,0
0,65,116,6
0,60,85,52
0,42,74,8
0,65,88,0
0,57,84,112
0,41,99,14
0,42,85,8
0,48,96,0
0,57,85,54
0,42,100,8
0,60,92,0
0,65,98,6
0,41,112,56
0,48,110,8
0,57,123,68
0,33,82,8
0,45,105,0
0,35,111,0
0,60,110,0
0,65,121,6
0,57,84,64
0,42,86,8
0,65,83,0
0,65,104,48
0,41,109,12
0,42,85,8
0,48,108,0
0,57,102,12
0,42,92,0
0,60,105,0
0,65,112,6
0,69,96,12
0,41,95,0
0,48,106,8
0,48,109,0
0,43,83,8
0,43,118,0
0,35,103,0
0,87,101,0
0,55,112,0
0,64,113,6
0,67,107,4
0,64,94,40
0,55,76,20
0,42,69,8
0,64,81,0
0,60,87,20
0,48,100,0
0,42,85,8
0,55,80,8
0,42,98,8
0,60,82,0
0,64,87,6
0,48,98,28
0,55,117,118
0,36,85,8
0,36,120,0
0,35,116,0
0,60,120,0
0,64,120,6
0,55,86,20
0,42,88,4
0,64,97,8
0,48,88,6
0,42,80,8
0,55,100,20
0,67,104,8
0,42,99,0
0,60,102,0
0,64,103,6
0,43,100,52
0,43,79,8
0,43,119,0
0,35,101,0
0,87,102,0
0,53,115,0
0,59,114,6
0,62,117,4
0,65,105,4
0,62,87,56
0,53,74,0
0,42,69,8
0,59,77,24
0,43,98,12
0,42,85,8
0,53,73,96
0,42,96,8
0,59,79,0
0,62,75,6
0,43,100,88
0,53,119,28
0,31,79,8
0,38,110,0
0,35,115,0
0,59,121,0
0,62,121,6
0,59,98,16
0,53,86,0
0,33,79,8
0,45,107,0
0,42,88,0
0,62,78,0
0,69,97,12
0,43,109,84
0,42,85,8
0,53,81,36
0,35,74,8
0,67,102,0
0,47,118,0
0,42,94,0
0,59,98,0
0,62,90,6
0,48,104,4
0,36,61,8
0,48,120,0
0,35,107,0
0,87,102,0
0,55,106,0
0,60,106,6
0,64,113,4
0,60,84,16
0,60,80,8
0,55,83,86
0,42,73,8
0,60,78,0
0,64,91,6
0,48,91,10
0,42,87,8
0,52,106,0
0,55,106,96
0,42,94,8
0,60,85,0
0,64,106,6
0,48,83,108
0,52,91,8
0,55,116,60
0,31,78,8
0,43,107,0
0,35,115,0
0,60,114,0
0,64,120,6
0,55,85,92
0,42,87,8
0,48,102,14
0,42,85,8
0,52,77,0
0,55,101,84
0,42,94,8
0,60,99,0
0,64,107,6
0,48,103,80
0,55,118,64
0,36,76,8
0,48,113,0
0,35,102,0
0,87,102,0
0,60,115,0
0,64,113,6
0,42,74,180
0,48,99,96
0,42,86,8
0,55,94,60
0,42,100,8
0,60,98,0
0,64,101,6
0,48,106,76
0,55,118,92
0,31,81,8
0,43,105,0
0,35,113,0
0,60,112,0
0,64,124,6
0,55,93,48
0,42,82,8
0,60,85,0
0,64,102,6
0,74,82,20
0,48,100,0
0,42,86,8
0,55,116,40
0,42,93,8
0,60,119,0
0,64,122,6
0,74,101,24
0,48,113,6
0,48,107,20
0,36,103,8
0,67,80,0
0,72,74,0
0,76,78,0
0,48,116,0
0,35,105,0
0,87,97,0
0,55,119,0
0,60,108,6
0,64,118,4
0,74,97,4
0,55,86,32
0,43,116,8
0,42,75,0
0,60,83,0
0,64,91,6
0,72,87,4
0,45,119,4
0,48,95,2
0,42,87,8
0,55,90,24
0,48,120,8
0,42,100,0
0,60,94,0
0,64,105,6
0,50,114,0
0,48,100,2
0,55,121,0
0,31,115,8
0,48,113,0
0,43,117,0
0,35,111,0
0,60,117,0
0,64,124,6
0,55,82,72
0,42,82,2
0,64,80,0
0,74,99,4
0,48,88,14
0,42,81,4
0,55,87,64
0,42,92,8
0,60,84,0
0,74,84,4
0,64,97,2
0,48,115,200
0,55,117,56
0,36,115,8
0,48,112,0
0,35,106,0
0,87,104,0
0,60,113,0
0,64,121,6
0,74,99,8
0,55,73,48
0,72,88,8
0,43,107,0
0,42,69,0
0,60,73,0
0,64,81,6
0,45,108,44
0,48,109,36
0,42,87,8
0,55,86,28
0,48,113,8
0,42,101,0
0,60,86,0
0,64,86,6
0,50,109,0
0,48,114,56
0,55,118,4
0,31,112,8
0,48,118,0
0,43,112,0
0,35,117,0
0,60,118,0
0,64,118,6
0,55,94,8
0,42,84,8
0,60,81,0
0,69,98,4
0,64,79,2
0,48,106,8
0,42,85,4
0,55,110,8
0,42,93,8
0,60,109,0
0,71,100,4
0,64,115,2
0,71,90,48
0,53,108,12
0,43,109,8
0,71,75,0
0,74,79,0
0,43,127,0
0,35,104,0
0,87,103,0
0,59,113,0
0,62,113,6
0,69,103,44
0,53,83,40
0,42,72,8
0,59,81,0
0,62,82,6
0,67,82,20
0,43,91,0
0,42,88,8
0,53,76,96
0,42,94,8
0,59,87,0
0,62,73,6
0,43,103,240
0,69,118,84
0,53,119,4
0,38,109,8
0,59,78,0
0,62,87,0
0,38,125,0
0,35,110,0
0,59,117,0
0,59,1,0
0,62,1,0
0,62,114,6
0,53,84,52
0,59,84,4
0,62,101,0
0,42,84,0
0,59,82,0
0,62,92,6
0,72,114,20
0,43,104,20
0,42,82,8
0,53,80,112
0,60,88,6
0,64,103,0
0,42,93,0
0,59,83,0
0,60,1,0
0,64,1,0
0,62,85,6
0,69,118,16
0,43,115,8
0,53,115,116
0,31,114,6
0,62,78,0
0,65,93,0
0,43,124,0
0,35,107,0
0,87,98,0
