track,note,velocity,time
0,75,115,0
0,80,108,0
0,83,109,0
0,80,109,180
0,83,106,6
0,75,113,2
0,83,102,165
0,80,112,2
0,75,113,2
0,75,109,170
0,80,112,0
0,83,96,4
0,78,115,15
0,75,107,1
0,83,106,2
0,83,112,14
0,75,109,8
0,78,108,0
0,78,113,135
0,75,107,2
0,83,108,2
0,78,113,167
0,75,106,3
0,83,106,0
0,83,107,161
0,75,109,4
0,77,112,0
0,77,112,171
0,75,107,4
0,83,113,1
0,77,112,158
0,83,108,0
0,75,107,7
0,75,108,169
0,83,109,4
0,77,115,3
0,75,114,13
0,76,115,2
0,83,114,1
0,76,114,18
0,83,121,0
0,75,109,1
0,75,114,166
0,83,114,3
0,83,115,170
0,75,115,1
0,80,108,157
0,75,114,4
0,83,109,1
0,80,108,181
0,83,107,1
0,75,113,2
0,75,112,128
0,83,103,5
0,80,112,1
0,75,108,167
0,83,97,0
0,80,113,2
0,75,106,13
0,78,114,0
0,66,97,2
0,75,94,0
0,83,107,2
0,71,91,1
0,80,89,0
0,83,113,13
0,78,108,1
0,75,108,3
0,83,109,56
0,75,106,1
0,78,113,2
0,75,107,56
0,83,106,4
0,78,113,4
0,83,106,2
0,75,108,1
0,77,113,0
0,77,113,17
0,75,106,1
0,83,112,0
0,83,109,57
0,77,113,2
0,75,106,1
0,77,114,55
0,83,109,1
0,75,108,2
0,76,115,58
0,83,115,2
0,75,114,3
0,83,121,58
0,75,108,1
0,76,114,1
0,75,115,60
0,83,115,4
0,83,114,59
0,75,114,1
0,68,109,2
0,32,127,4
0,51,115,0
0,35,127,0
0,49,101,0
0,63,115,0
0,71,108,0
0,68,108,184
0,71,107,5
0,42,115,1
0,63,112,1
0,40,127,5
0,63,113,1
0,42,114,4
0,68,113,0
0,71,102,0
0,71,97,10
0,46,113,4
0,68,112,0
0,35,106,1
0,63,108,1
0,71,107,1
0,35,127,2
0,42,113,0
0,66,115,1
0,63,106,3
0,71,112,66
0,66,109,1
0,63,109,2
0,42,107,3
0,71,108,170
0,42,112,1
0,66,112,2
0,63,107,2
0,40,126,2
0,42,109,165
0,71,106,0
0,35,121,1
0,66,113,0
0,63,107,3
0,35,126,162
0,65,112,0
0,63,109,3
0,68,70,0
0,42,112,1
0,71,106,0
0,42,114,172
0,63,107,0
0,65,113,2
0,71,112,1
0,68,70,3
0,40,127,175
0,42,115,0
0,65,113,1
0,68,71,0
0,63,106,3
0,71,108,3
0,46,112,169
0,71,109,0
0,65,114,1
0,35,107,1
0,68,71,0
0,63,109,1
0,68,70,153
0,71,115,1
0,64,114,1
0,40,126,2
0,52,114,0
0,35,126,0
0,63,114,1
0,42,113,3
0,42,106,155
0,71,121,2
0,63,109,1
0,68,70,0
0,64,114,3
0,42,112,0
0,40,127,2
0,39,115,2
0,51,113,0
0,68,71,2
0,63,115,1
0,71,114,0
0,42,109,158
0,68,70,1
0,71,115,0
0,63,114,6
0,63,115,9
0,42,113,1
0,71,109,0
0,32,121,2
0,44,113,0
0,35,126,0
0,68,108,0
0,42,114,180
0,63,113,3
0,71,106,2
0,68,108,3
0,63,113,14
0,40,126,1
0,42,114,1
0,71,103,2
0,68,112,5
0,63,108,19
0,46,113,3
0,71,97,1
0,35,107,1
0,68,113,3
0,42,113,2
0,63,106,0
0,71,106,0
0,35,127,3
0,66,115,3
0,63,108,160
0,42,106,3
0,66,109,2
0,71,113,1
0,63,106,171
0,71,109,0
0,42,113,1
0,66,112,1
0,40,127,2
0,42,109,159
0,63,106,2
0,35,120,1
0,66,113,0
0,71,107,1
0,65,112,157
0,42,112,2
0,63,108,0
0,71,107,2
0,35,126,1
0,68,71,0
0,68,70,175
0,63,106,1
0,65,113,0
0,71,112,2
0,42,115,3
0,71,109,178
0,42,114,1
0,65,113,1
0,68,70,1
0,40,126,2
0,63,107,1
0,63,108,164
0,46,113,4
0,65,114,0
0,35,107,1
0,71,109,0
0,68,71,2
0,42,112,160
0,64,114,2
0,28,126,2
0,54,112,0
0,35,127,0
0,71,114,0
0,63,115,3
0,68,71,1
0,42,107,158
0,68,70,3
0,64,114,1
0,63,109,1
0,71,120,0
0,68,71,3
0,30,115,0
0,56,113,0
0,40,126,0
0,71,115,0
0,42,113,1
0,63,114,3
0,63,115,159
0,68,70,1
0,42,108,2
0,71,114,2
0,32,126,0
0,59,120,0
0,35,126,0
0,49,100,0
0,63,115,0
0,68,109,0
0,71,108,0
0,68,108,181
0,42,114,5
0,63,113,1
0,71,107,1
0,63,105,0
0,71,102,0
0,42,115,2
0,40,127,1
0,68,104,0
0,63,112,0
0,68,113,1
0,70,105,0
0,46,112,119
0,35,106,1
0,63,108,1
0,68,113,0
0,71,97,0
0,71,105,0
0,63,106,116
0,71,107,0
0,66,114,1
0,35,127,3
0,42,113,4
0,71,112,7
0,63,109,1
0,42,106,3
0,70,104,0
0,66,109,0
0,71,108,0
0,40,127,2
0,63,106,0
0,68,105,0
0,66,113,1
0,42,112,3
0,42,109,26
0,66,104,0
0,35,120,0
0,63,107,1
0,71,106,1
0,66,112,1
0,63,104,0
0,71,107,85
0,68,70,1
0,63,109,1
0,35,127,3
0,65,113,1
0,42,112,2
0,63,106,119
0,65,113,1
0,68,70,2
0,42,115,1
0,71,112,0
0,63,107,174
0,68,71,1
0,42,115,3
0,65,112,1
0,71,108,0
0,40,126,1
0,71,109,164
0,46,113,3
0,35,107,1
0,65,115,1
0,63,108,2
0,68,70,0
0,63,115,152
0,42,112,3
0,68,70,0
0,40,120,1
0,52,120,0
0,35,126,0
0,71,115,1
0,64,115,3
0,64,114,161
0,68,71,1
0,42,107,2
0,63,108,0
0,71,120,3
0,40,126,0
0,63,115,2
0,39,115,2
0,51,115,0
0,42,112,0
0,68,71,0
0,71,114,2
0,68,70,166
0,42,108,2
0,71,115,3
0,63,115,1
0,42,113,3
0,32,121,1
0,44,115,0
0,35,127,0
0,63,114,1
0,68,108,1
0,71,109,0
0,68,108,180
0,42,115,1
0,63,113,0
0,71,107,1
0,63,105,0
0,63,112,2
0,71,103,0
0,68,105,0
0,42,114,1
0,40,127,1
0,68,112,1
0,70,104,0
0,63,108,115
0,46,112,2
0,68,113,1
0,35,106,2
0,71,97,1
0,71,104,0
0,63,106,116
0,35,126,4
0,66,114,0
0,71,107,0
0,42,112,4
0,66,109,9
0,63,108,1
0,68,105,0
0,42,107,0
0,71,112,0
0,63,107,33
0,71,108,0
0,66,113,1
0,40,127,1
0,42,113,1
0,71,105,0
0,42,108,13
0,75,104,0
0,35,121,0
0,63,107,2
0,66,112,1
0,71,107,1
0,73,104,0
0,71,106,55
0,68,70,1
0,63,109,1
0,42,112,2
0,35,127,1
0,65,113,0
0,42,115,161
0,63,106,1
0,65,112,1
0,68,71,1
0,71,113,5
0,42,114,175
0,71,108,1
0,68,70,1
0,40,126,1
0,63,107,1
0,65,112,1
0,65,115,165
0,68,71,0
0,71,108,1
0,35,106,2
0,63,109,0
0,46,112,3
0,64,114,156
0,42,113,2
0,28,124,1
0,54,108,0
0,35,126,0
0,68,70,1
0,71,115,0
0,63,115,3
0,63,108,154
0,68,70,0
0,64,115,2
0,42,107,3
0,71,121,2
0,68,70,162
0,71,114,0
0,42,112,3
0,30,114,1
0,56,120,0
0,63,115,0
0,40,126,1
0,63,114,167
0,42,109,1
0,68,71,1
0,71,115,1
0,63,114,1
0,71,109,1
0,32,127,2
0,59,115,0
0,35,127,0
0,42,112,3
0,68,108,0
0,63,112,178
0,42,114,2
0,75,105,0
0,71,107,0
0,68,109,3
0,75,104,0
0,75,105,0
0,40,127,0
0,42,115,0
0,71,102,0
0,63,112,1
0,68,113,0
0,63,109,88
0,46,113,2
0,68,112,0
0,75,105,0
0,35,107,0
0,71,96,1
0,75,104,0
0,42,113,115
0,35,126,5
0,63,107,2
0,71,106,0
0,66,115,2
0,66,109,71
0,73,105,0
0,71,112,1
0,42,106,1
0,63,109,0
0,66,112,57
0,71,104,0
0,40,126,0
0,42,112,0
0,63,106,0
0,71,109,3
0,66,113,33
0,71,106,2
0,73,104,0
0,35,120,0
0,63,106,1
0,42,109,3
0,71,105,0
0,35,127,90
0,42,113,0
0,65,113,0
0,71,107,0
0,63,108,2
0,68,70,1
0,63,107,172
0,68,70,3
0,65,113,2
0,71,113,1
0,42,114,1
0,40,127,173
0,68,70,2
0,42,114,1
0,63,107,1
0,65,112,1
0,71,108,1
0,65,115,163
0,68,71,0
0,46,113,2
0,73,105,0
0,35,106,0
0,63,108,1
0,71,108,3
0,71,104,0
0,64,115,26
0,68,71,0
0,40,121,0
0,73,104,0
0,52,101,0
0,35,127,0
0,42,113,0
0,71,114,0
0,63,114,1
0,63,109,60
0,71,120,0
0,71,105,0
0,42,106,1
0,64,115,1
0,68,71,2
0,73,105,0
0,68,70,115
0,71,115,0
0,39,114,4
0,51,100,0
0,40,127,0
0,42,113,2
0,63,114,2
0,75,104,0
0,68,70,87
0,42,109,3
0,63,115,1
0,71,115,0
0,42,112,3
0,71,108,0
0,32,120,1
0,44,100,0
0,35,127,0
0,63,114,4
0,68,109,0
0,63,113,177
0,68,108,0
0,42,115,2
0,75,104,0
0,71,106,4
0,75,105,0
0,63,113,46
0,71,102,0
0,40,126,1
0,75,104,0
0,42,114,2
0,68,113,2
0,46,112,18
0,68,113,0
0,75,105,0
0,35,106,0
0,71,96,1
0,63,109,3
0,75,105,0
0,42,112,119
0,71,106,0
0,35,127,1
0,63,106,0
0,66,115,0
0,42,107,38
0,71,113,0
0,73,104,0
0,63,108,0
0,66,108,0
0,40,127,26
0,66,113,0
0,71,105,0
0,63,107,3
0,42,113,1
0,71,108,0
0,42,108,27
0,73,104,0
0,35,120,0
0,63,106,0
0,71,107,0
0,66,112,3
0,71,104,0
0,42,125,27
0,68,71,2
0,30,115,1
0,35,126,0
0,42,112,0
0,71,106,1
0,63,109,2
0,65,112,0
0,42,115,170
0,65,112,3
0,68,71,3
0,63,107,1
0,71,112,1
0,65,112,173
0,42,115,5
0,71,109,0
0,40,126,2
0,63,107,1
0,68,70,0
0,68,105,0
0,46,112,17
0,65,114,0
0,68,71,0
0,63,108,2
0,30,114,0
0,71,105,0
0,35,107,0
0,71,109,4
0,68,104,0
0,41,127,8
0,71,114,3
0,42,112,1
0,63,115,0
0,29,121,0
0,71,104,0
0,35,127,0
0,64,114,0
0,68,70,0
0,68,105,0
0,68,71,115
0,64,115,1
0,63,108,1
0,71,120,3
0,42,106,2
0,42,113,166
0,40,126,4
0,64,115,0
0,71,115,0
0,68,70,3
0,63,114,1
0,71,105,0
0,64,115,117
0,63,114,1
0,68,71,1
0,71,115,1
0,42,108,1
0,68,104,0
0,68,102,0
0,64,113,2
0,25,121,0
0,71,104,0
0,35,126,0
0,71,114,1
0,42,113,1
0,37,124,0
0,61,113,1
0,68,105,0
0,68,103,91
0,71,114,0
0,42,115,1
0,61,112,0
0,64,115,2
0,71,115,171
0,40,127,2
0,61,114,0
0,42,114,1
0,64,108,3
0,68,103,0
0,68,104,0
0,68,108,11
0,25,120,0
0,71,105,0
0,35,106,0
0,61,121,0
0,64,115,1
0,71,124,2
0,46,113,1
0,73,105,0
0,71,111,3
0,39,115,0
0,27,115,0
0,75,110,0
0,75,104,0
0,35,127,0
0,68,111,1
0,63,114,0
0,42,113,2
0,83,114,1
0,87,113,0
0,67,112,0
0,70,107,0
0,71,105,55
0,75,104,0
0,68,105,1
0,68,96,1
0,63,121,0
0,67,114,0
0,71,96,1
0,75,97,0
0,42,106,2
0,70,108,0
0,68,89,1
0,71,88,1
0,75,88,0
0,42,112,35
0,63,121,1
0,71,83,2
0,40,127,1
0,73,105,0
0,68,83,1
0,67,115,0
0,70,108,0
0,75,82,0
0,68,74,0
0,71,75,0
0,75,74,1
0,70,112,55
0,42,109,2
0,63,125,2
0,27,124,1
0,68,69,0
0,35,121,0
0,75,69,0
0,71,68,0
0,67,114,0
0,68,61,44
0,71,60,0
0,75,60,0
0,67,107,8
0,68,55,0
0,71,55,0
0,75,54,0
0,71,104,0
0,35,126,0
0,63,113,0
0,70,100,0
0,42,113,2
0,68,48,57
0,75,49,2
0,71,49,2
0,63,115,0
0,70,108,0
0,71,40,1
0,75,40,0
0,39,120,1
0,68,41,0
0,42,106,1
0,67,114,0
0,68,32,0
0,75,33,1
0,71,33,0
0,46,113,0
0,68,26,1
0,75,26,0
0,40,126,0
0,73,104,0
0,71,26,1
0,67,113,0
0,70,109,1
0,63,114,1
0,75,19,2
0,37,109,1
0,71,19,0
0,68,19,0
0,42,50,0
0,70,114,0
0,71,13,1
0,75,13,0
0,67,121,0
0,55,109,1
0,35,115,0
0,68,13,0
0,35,120,0
0,63,121,0
0,71,5,0
0,68,5,0
0,75,5,1
0,32,126,0
0,71,105,0
0,63,121,0
0,35,127,0
0,49,101,0
0,63,114,0
0,68,108,0
0,71,109,0
0,71,106,1
0,68,109,1
0,68,105,0
0,42,115,2
0,63,113,0
0,63,112,16
0,68,113,1
0,42,115,1
0,40,126,3
0,71,102,0
0,71,96,167
0,46,112,1
0,35,106,3
0,63,109,1
0,68,113,1
0,42,112,131
0,66,114,2
0,71,106,1
0,35,127,2
0,63,107,4
0,71,113,168
0,42,106,1
0,66,108,0
0,63,108,2
0,63,107,172
0,40,127,1
0,42,113,0
0,66,112,2
0,71,109,0
0,35,121,162
0,42,108,0
0,66,113,0
0,71,106,0
0,63,107,1
0,68,70,159
0,63,108,2
0,65,113,0
0,35,126,1
0,71,107,2
0,42,113,2
0,42,115,173
0,65,112,2
0,71,112,4
0,63,107,1
0,68,71,1
0,71,108,175
0,40,127,3
0,68,70,0
0,63,107,2
0,65,112,2
0,42,114,2
0,63,109,162
0,71,109,2
0,65,114,1
0,46,112,1
0,35,107,1
0,68,71,1
0,64,114,163
0,40,120,1
0,64,114,0
0,35,126,0
0,68,70,0
0,71,115,1
0,42,113,2
0,63,115,0
0,63,108,158
0,68,70,0
0,64,115,1
0,42,106,3
0,71,121,1
0,63,114,2
0,68,70,0
0,42,112,1
0,39,115,1
0,63,113,0
0,40,126,0
0,71,115,4
0,42,109,161
0,68,70,0
0,71,115,2
0,63,115,3
0,63,114,3
0,32,121,1
0,56,113,0
0,35,126,0
0,42,113,2
0,68,109,2
0,71,108,0
0,42,114,175
0,68,108,5
0,63,113,1
0,71,107,1
0,28,11,13
0,68,112,101
0,42,114,2
0,40,126,2
0,71,102,1
0,63,113,1
0,71,97,170
0,46,113,2
0,63,108,0
0,28,19,1
0,35,107,0
0,68,112,3
0,63,107,156
0,66,114,0
0,35,127,2
0,42,113,2
0,71,107,0
0,71,113,164
0,42,107,2
0,63,108,1
0,66,109,6
0,28,30,48
0,40,127,101
0,66,112,0
0,71,108,2
0,42,112,1
0,63,107,5
0,63,107,164
0,42,108,2
0,28,37,2
0,35,120,0
0,66,112,3
0,71,106,0
0,65,113,153
0,68,71,1
0,71,106,2
0,35,126,2
0,63,108,0
0,42,113,4
0,42,114,172
0,68,71,2
0,65,112,1
0,63,107,1
0,71,113,3
0,28,49,60
0,42,115,101
0,40,126,2
0,63,106,0
0,65,113,1
0,68,70,1
0,71,108,3
0,42,113,167
0,28,56,3
0,35,107,0
0,63,109,2
0,65,115,0
0,68,70,0
0,71,108,2
0,68,71,154
0,63,115,1
0,42,112,1
0,28,124,1
0,54,106,0
0,35,127,0
0,71,114,1
0,64,114,3
0,42,71,45
0,42,80,46
0,42,70,44
0,63,109,42
0,68,70,1
0,71,121,0
0,64,115,1
0,42,77,3
0,28,69,47
0,46,88,0
0,63,114,3
0,30,114,1
0,56,113,0
0,40,127,1
0,42,113,0
0,68,71,3
0,71,114,0
0,68,70,161
0,28,74,5
0,71,115,1
0,63,115,1
0,42,108,1
0,42,108,43
0,32,125,0
0,63,122,0
0,68,123,0
0,71,122,0
0,75,122,0
0,59,120,0
0,35,126,0
0,49,101,0
0,63,114,0
0,68,108,0
0,71,109,0
0,63,113,181
0,71,106,0
