track,note,velocity,time
4,36,83,1130
4,36,82,219
4,36,83,46
4,36,83,120
4,24,96,17
4,24,95,170
4,24,96,93
4,36,82,480
4,36,83,219
4,36,83,46
4,36,82,120
4,24,96,17
4,24,95,170
4,24,97,93
4,36,82,480
4,36,82,219
4,36,83,46
4,36,82,120
4,24,97,17
4,24,95,170
4,24,96,93
4,36,83,480
4,36,82,219
4,36,82,46
4,36,83,120
4,24,97,17
4,24,94,170
4,24,96,93
4,24,85,2
4,27,87,240
4,32,82,13
4,32,80,240
4,32,83,68
4,32,82,142
4,31,87,109
4,31,87,215
4,31,88,92
4,31,91,140
4,34,90,16
4,36,82,7
4,36,83,219
4,36,83,46
4,36,82,120
4,24,96,17
4,24,95,170
4,24,97,93
4,24,84,2
4,27,86,240
4,32,83,13
4,32,80,240
4,32,83,68
4,32,83,142
4,31,86,109
4,31,87,215
4,31,88,92
4,31,90,140
4,27,91,16
4,36,83,7
4,36,82,219
4,36,82,46
4,36,83,120
4,24,97,17
4,24,94,170
4,24,96,93
4,24,85,2
4,27,86,240
4,32,83,13
4,32,81,240
4,32,82,120
4,31,83,109
4,31,86,215
4,31,90,120
4,24,91,0
4,24,93,219
4,24,92,120
4,24,96,17
4,24,95,170
4,24,91,120
4,27,86,240
4,32,82,13
4,32,81,240
4,32,82,120
4,31,83,109
4,31,87,215
4,31,90,120
4,24,91,0
4,24,92,219
4,24,92,120
4,24,97,17
4,24,95,170
4,24,90,120
4,27,86,240
4,32,83,13
4,32,81,240
4,32,82,120
4,31,82,109
4,31,87,215
4,31,90,120
4,24,91,0
4,24,93,219
4,24,92,120
4,24,97,17
4,24,94,170
4,24,90,120
4,25,87,240
4,26,83,13
4,26,80,240
4,26,82,120
4,31,83,109
4,31,87,215
4,31,90,120
4,24,90,0
4,24,93,219
4,24,92,120
4,24,97,17
4,24,95,170
4,24,90,120
4,27,87,240
4,32,82,13
4,32,80,240
4,32,83,120
4,31,83,109
4,31,86,215
4,31,90,120
4,24,91,0
4,24,93,219
4,24,92,120
4,24,96,17
4,24,95,170
4,24,90,120
4,27,87,240
4,32,83,13
4,32,80,240
4,32,83,120
4,31,82,109
4,31,86,215
4,31,91,120
4,24,91,0
4,24,92,219
4,24,92,120
4,24,97,17
4,24,95,170
4,24,90,120
4,27,86,240
4,32,83,13
4,32,80,240
4,32,83,120
4,31,83,109
4,31,86,215
4,31,91,120
4,24,90,0
4,24,92,219
4,24,93,120
4,24,97,17
4,24,94,170
4,24,90,120
4,25,87,240
4,26,83,13
4,26,80,240
4,26,82,120
4,31,83,109
4,31,86,215
4,31,91,120
4,24,91,0
4,24,92,219
4,24,93,120
4,24,96,17
4,24,94,170
4,24,91,120
4,29,83,120
4,29,80,240
4,29,82,120
4,31,83,109
4,31,87,215
4,31,90,120
4,24,90,0
4,24,93,219
4,24,92,120
4,24,97,17
4,24,95,170
4,24,90,120
4,27,87,240
4,29,82,13
4,29,80,240
4,29,83,120
4,31,83,109
4,31,86,215
4,31,90,120
4,24,91,0
4,24,93,219
4,24,92,120
4,24,96,17
4,24,95,170
4,24,90,120
4,27,87,240
4,29,83,13
4,29,80,240
4,29,83,120
4,31,82,109
4,31,86,215
4,31,91,120
4,24,91,0
4,24,92,219
4,24,92,120
4,24,97,17
4,24,95,170
4,24,90,120
4,27,86,240
4,29,83,13
4,29,80,240
4,29,83,120
4,31,83,109
4,31,86,215
4,31,91,120
4,24,90,0
4,24,92,219
4,24,93,120
4,24,97,17
4,31,86,0
4,27,86,0
4,24,97,0
4,27,87,240
4,32,82,0
4,32,80,240
4,32,83,120
4,31,82,109
4,31,87,215
4,31,91,120
4,24,90,0
4,24,93,219
4,24,92,120
4,24,96,17
4,24,95,170
4,24,91,120
4,27,86,240
4,32,82,13
4,32,81,240
4,32,83,120
4,31,82,109
4,31,86,215
4,31,91,120
4,24,90,0
4,24,93,219
4,24,93,120
4,24,96,17
4,24,95,170
4,24,90,120
4,27,86,240
4,32,83,13
4,32,81,240
4,32,82,120
4,31,82,109
4,31,87,215
4,31,91,120
4,24,90,0
4,24,92,219
4,24,93,120
4,24,96,17
4,24,95,170
4,24,91,120
4,25,86,240
4,26,83,13
4,26,80,240
4,26,82,120
4,31,83,109
4,31,87,215
4,31,90,120
4,24,90,0
4,24,93,219
4,24,93,120
4,24,96,17
4,24,94,170
4,24,91,120
4,27,86,240
4,29,83,13
4,29,81,240
4,29,82,120
4,31,83,109
4,31,86,215
4,31,90,120
4,24,91,0
4,24,93,219
4,24,92,120
4,24,96,17
4,24,95,170
4,24,91,120
4,27,86,240
4,29,82,13
4,29,81,240
4,29,82,120
4,31,83,109
4,31,87,215
4,31,90,120
4,24,91,0
4,24,92,219
4,24,92,120
4,24,97,17
4,24,95,170
4,24,90,120
4,27,86,240
4,29,83,13
4,29,81,240
4,29,82,120
4,31,82,109
4,31,87,215
4,31,90,120
4,24,91,0
4,24,93,219
4,24,92,120
4,24,97,17
4,24,94,170
4,24,90,120
4,27,87,240
4,29,83,13
4,29,80,240
4,29,82,120
4,31,83,109
4,31,87,215
4,31,90,120
4,24,90,0
4,24,93,219
4,24,92,120
4,24,97,17
4,31,87,0
4,27,86,0
4,24,97,0
4,27,86,240
4,27,86,0
4,38,75,49
4,36,83,105
4,34,82,16
4,32,84,98
4,39,79,49
4,32,79,480
4,31,90,25
4,38,80,3600
4,43,75,32
4,31,84,30
4,31,89,107
4,31,83,106
4,29,82,16
4,29,81,240
4,29,82,120
4,31,82,109
4,31,87,215
4,31,91,120
4,24,90,0
4,24,92,219
4,24,93,120
4,24,97,17
4,24,94,170
4,24,90,120
4,27,87,240
4,29,82,13
4,29,81,240
4,29,83,120
4,31,82,109
4,31,87,215
4,31,90,120
4,24,90,0
4,24,93,219
4,24,93,120
4,24,96,17
4,24,94,170
4,24,91,120
4,27,87,240
4,29,82,13
4,29,80,240
4,29,83,120
4,31,82,109
4,31,87,215
4,31,91,120
4,24,90,0
4,24,93,219
4,24,92,120
4,24,92,17
4,32,89,0
4,31,89,47
4,29,88,29
4,27,88,18
4,26,87,103
4,32,83,50
4,32,80,240
4,32,82,120
4,31,83,109
4,31,86,215
4,31,91,120
4,24,91,0
4,24,92,219
4,24,93,120
4,24,96,17
4,24,94,170
4,24,91,120
4,27,87,240
4,32,82,13
4,32,80,240
4,32,83,120
4,31,83,109
4,31,86,215
4,31,90,120
4,24,91,0
4,24,92,219
4,24,93,120
4,24,97,17
4,24,94,170
4,24,91,120
4,27,86,240
4,32,82,13
4,32,81,240
4,32,83,120
4,31,82,109
4,31,86,215
4,31,91,120
4,24,91,0
4,24,92,219
4,24,92,120
4,24,97,17
4,24,94,170
4,24,91,120
4,25,87,240
4,26,82,13
4,26,81,240
4,26,82,120
4,31,82,109
4,31,87,215
4,31,91,120
4,24,90,0
4,24,92,219
4,24,93,120
4,24,97,17
4,24,94,170
4,24,90,120
4,27,87,240
4,29,82,13
4,29,81,240
4,29,83,120
4,31,82,109
4,31,87,215
4,31,90,120
4,24,90,0
4,24,93,219
4,24,93,120
4,24,96,17
4,24,94,170
4,24,91,120
4,27,87,240
4,29,82,13
4,29,80,240
4,29,83,120
4,31,82,109
4,31,87,215
4,31,91,120
4,24,90,0
4,24,93,219
4,24,92,120
4,24,96,17
4,24,95,170
4,24,91,120
4,27,86,240
4,29,82,13
4,29,81,240
4,29,83,120
4,31,82,109
4,31,86,215
4,31,91,120
4,24,90,0
4,24,93,219
4,24,93,120
4,24,96,17
4,24,95,170
4,24,90,120
4,27,86,240
4,29,83,13
4,29,81,240
4,29,82,120
4,31,82,109
4,31,87,215
4,31,91,120
4,24,90,0
4,24,92,219
4,24,93,120
4,24,96,17
4,31,87,0
4,27,87,0
4,24,96,0
4,27,87,240
4,29,82,0
4,29,80,240
4,29,83,120
4,31,83,109
4,31,86,215
4,31,90,120
4,24,91,0
4,24,93,219
4,24,92,120
4,24,96,17
4,24,95,170
4,24,90,120
4,27,87,240
4,29,83,13
4,29,80,240
4,29,83,120
4,31,82,109
4,31,86,215
4,31,91,120
4,24,91,0
4,24,92,219
4,24,92,120
4,24,97,17
4,24,95,170
4,24,90,120
4,27,86,240
4,29,83,13
4,29,80,240
4,29,83,120
4,31,83,109
4,31,86,215
4,31,91,120
4,24,90,0
4,24,92,219
4,24,93,120
4,24,97,17
4,24,94,170
4,24,90,120
4,27,87,240
4,29,83,13
4,29,80,240
4,29,82,120
4,31,83,109
4,31,86,215
4,31,91,120
4,24,91,0
4,24,92,219
4,24,93,120
4,24,96,17
4,31,86,0
4,27,87,0
4,24,97,0
4,27,86,240
4,29,82,0
4,29,81,240
4,29,83,120
4,31,82,109
4,31,86,215
4,31,91,120
4,24,90,0
4,24,93,219
4,24,93,120
4,24,96,17
4,24,95,170
4,24,90,120
4,27,86,240
4,29,83,13
4,29,81,240
4,29,82,120
4,31,82,109
4,31,87,215
4,31,91,120
4,24,90,0
4,24,92,219
4,24,93,120
4,24,96,17
4,24,95,170
4,24,91,120
4,27,86,240
4,29,83,13
4,29,80,240
4,29,82,120
4,31,83,109
4,31,87,215
4,31,90,120
4,24,90,0
4,24,93,219
4,24,93,120
4,24,96,17
4,24,94,170
4,24,91,120
4,27,86,240
4,29,83,13
4,29,81,240
4,29,82,120
4,31,83,109
4,31,86,215
4,31,90,120
4,24,91,0
4,24,93,219
4,24,92,120
4,24,96,17
4,31,87,0
4,27,87,0
4,24,96,0
4,27,86,240
4,29,83,0
4,29,80,240
4,29,83,120
4,31,83,109
4,31,86,215
4,31,91,120
4,24,90,0
4,24,92,219
4,24,93,120
4,24,97,17
4,24,94,170
4,24,90,120
4,27,87,240
4,29,83,13
4,29,80,240
4,29,82,120
4,31,83,109
4,31,86,215
4,31,91,120
4,24,91,0
4,24,92,219
4,24,93,120
4,24,96,17
4,24,94,170
4,24,91,120
4,27,87,240
4,24,82,13
5,43,79,185640
5,46,102,480
5,51,101,480
5,55,105,480
5,46,102,9
5,51,105,480
5,55,104,457
5,46,104,472
5,50,105,480
5,53,105,480
5,46,104,67
5,50,104,480
5,53,105,460
5,48,99,500
5,51,100,480
5,55,98,480
5,46,101,90
5,51,102,480
5,55,99,480
5,44,99,480
5,48,96,437
5,51,103,480
5,55,102,480
5,44,108,91
5,48,105,480
5,51,107,7
5,55,108,480
5,43,108,9
5,47,79,451
5,50,109,480
5,55,108,480
5,43,108,4
5,47,79,0
5,50,108,0
5,55,109,480
5,43,109,4
5,47,78,0
5,50,109,0
5,55,108,480
5,43,108,4
5,47,79,0
5,50,109,0
5,55,108,480
5,43,108,4
5,47,79,0
5,50,109,0
5,55,108,480
5,43,108,4
5,47,79,0
5,50,108,0
5,55,109,480
6,75,71,33213
6,77,72,71
6,75,73,30
6,77,71,79
6,79,74,87
6,77,71,32
6,75,72,16
6,77,72,3096
6,75,75,13
6,77,75,44
6,79,72,114
6,77,74,1435
6,75,73,14
6,79,75,3664
6,79,74,92
6,79,72,95
6,77,71,28
6,80,70,39
6,79,73,74
6,77,71,39
6,75,70,51
6,74,71,2873
6,74,70,89
6,75,72,64
6,74,73,79
6,77,73,127
6,75,74,57
6,74,74,29
6,72,75,39
6,75,75,2592
6,77,74,71
6,75,72,30
6,77,71,79
6,79,74,87
6,77,73,32
6,75,71,16
6,75,74,2857
6,77,71,71
6,75,74,31
6,77,74,79
6,79,71,87
6,77,73,32
6,75,74,15
6,79,72,3050
6,79,75,138
6,77,71,28
6,80,72,39
6,79,70,74
6,77,73,39
6,75,72,51
6,74,75,2873
6,74,71,89
6,75,74,64
6,74,73,79
6,77,70,127
6,75,72,57
6,74,71,29
6,72,75,39
6,72,74,301
6,74,70,23
6,75,71,26
6,72,75,21
6,67,72,12
6,65,70,384
6,74,73,743
6,74,70,94
6,74,73,81
6,74,75,97
6,72,74,35
6,75,71,73
6,75,72,98
6,72,72,728
6,74,73,52
6,75,73,44
6,72,70,53
6,67,70,21
6,65,71,117
6,65,73,97
6,65,74,122
6,63,70,66
6,67,71,175
6,65,72,91
6,65,71,96
6,65,75,104
6,63,74,91
6,63,73,134
6,63,72,125
6,72,70,165
6,74,73,65
6,75,71,69
6,72,72,45
6,67,72,83
6,65,73,88
6,74,71,290
6,74,74,93
6,74,72,84
6,74,71,108
6,72,70,21
6,75,73,28
6,75,75,87
6,72,72,612
6,74,73,63
6,75,70,79
6,74,74,330
6,72,71,12
6,75,71,24
6,74,74,306
6,72,70,20
6,75,71,37
6,74,73,315
6,72,72,278
6,75,72,41
6,74,71,349
6,72,70,6
6,75,73,31
6,74,75,335
6,72,70,41
6,75,73,3436
6,77,70,71
6,75,70,30
6,77,75,79
6,79,75,87
6,77,70,32
6,75,74,16
6,75,73,2856
6,77,75,53
6,75,72,13
6,77,74,44
6,79,71,114
6,77,70,1435
6,75,75,14
6,79,75,3664
6,79,74,92
6,79,71,95
6,77,72,28
6,80,74,39
6,79,73,74
6,77,71,39
6,75,74,51
6,74,72,2873
6,74,71,89
6,75,75,64
6,74,70,79
6,77,74,127
6,75,71,57
6,74,72,29
6,72,75,39
6,72,73,271
6,74,70,23
6,75,71,26
6,72,70,21
6,67,70,12
6,65,73,384
6,74,75,743
6,74,72,94
6,74,72,81
6,74,71,97
6,72,75,35
6,75,74,73
6,75,72,98
6,72,73,728
6,74,72,52
6,75,73,44
6,72,71,53
6,67,70,21
6,65,75,117
6,65,72,97
6,65,74,122
6,63,71,66
6,67,73,175
6,65,72,91
6,65,70,96
6,65,71,104
6,63,71,91
6,63,72,134
6,63,74,125
6,72,71,165
6,74,74,65
6,75,71,69
6,72,71,45
6,67,72,83
6,65,73,88
6,74,72,290
6,74,72,93
6,74,75,84
6,74,71,108
6,72,74,21
6,75,74,28
6,75,73,87
6,72,71,612
6,74,74,63
6,75,72,79
6,74,73,330
6,72,74,12
6,75,71,24
6,74,75,306
6,72,70,20
6,75,73,37
6,74,74,315
6,72,74,278
6,75,71,41
6,74,73,349
6,72,72,6
6,75,72,31
6,74,71,335
6,72,73,41
6,75,70,53356
6,77,70,71
6,75,71,30
6,77,72,79
6,79,75,87
6,77,75,32
6,75,70,16
6,75,75,2856
6,77,70,53
6,75,70,13
6,77,71,44
6,79,73,114
6,77,72,1435
6,75,70,14
6,79,75,3664
6,79,75,92
6,79,70,95
6,77,70,28
6,80,73,39
6,79,70,74
6,77,71,39
6,75,71,51
6,74,70,2873
6,74,73,89
6,75,70,64
6,74,70,79
6,77,71,127
6,75,71,57
6,74,72,29
6,72,70,39
6,72,73,286
6,74,73,23
6,75,70,26
6,72,70,21
6,67,75,12
6,65,74,384
6,74,75,743
6,74,75,94
6,74,72,81
6,74,75,97
6,72,72,35
6,75,70,73
6,75,75,98
6,72,73,728
6,74,74,52
6,75,74,44
6,72,71,53
6,67,71,21
6,65,72,117
6,65,74,97
6,65,75,122
6,63,72,66
6,67,73,175
6,65,73,91
6,65,70,96
6,65,75,104
6,63,70,91
6,63,74,134
6,63,71,125
6,72,71,165
6,74,70,65
6,75,74,69
6,72,73,45
6,67,71,83
6,65,72,88
6,74,72,290
6,74,75,93
6,74,70,84
6,74,75,108
6,72,73,21
6,75,70,28
6,75,73,87
6,72,72,612
6,74,74,63
6,75,75,79
6,74,75,330
6,72,74,12
6,75,74,24
6,74,71,306
6,72,73,20
6,75,70,37
6,74,70,315
6,72,75,278
6,75,72,41
6,74,75,349
6,72,71,6
6,75,70,31
6,74,75,335
6,72,72,41
7,56,41,62635
7,55,40,1920
7,56,41,13
7,55,41,1920
7,56,40,13
7,55,41,1920
7,57,30,13
7,55,30,1920
7,63,40,119040
7,63,40,323
7,56,41,8003
7,55,41,1920
7,56,40,13
7,55,40,1920
7,56,41,13
7,55,41,1920
7,57,30,13
7,55,30,1920
7,63,30,0
7,62,30,0
7,63,30,3840
7,62,30,0
7,63,30,3840
7,62,30,0
7,63,30,3840
7,62,30,0
7,63,30,3840
7,62,30,0
7,63,30,3840
7,62,30,0
7,63,30,3840
7,62,30,0
7,63,30,3840
7,62,30,0
7,63,30,3840
