track,note,velocity,time
3,47,112,560
3,47,0,76
3,45,113,20
3,45,0,73
3,47,110,23
3,47,0,70
3,45,98,26
3,45,0,88
3,42,112,8
3,42,0,462
3,30,119,18
3,30,0,91
3,35,118,5
3,35,0,283
3,39,104,5
3,39,0,256
3,40,106,32
3,40,0,462
3,44,107,18
3,44,0,78
3,47,109,18
3,47,0,82
3,49,113,14
3,49,0,82
3,47,107,14
3,47,0,64
3,47,113,32
3,47,0,78
3,45,108,18
3,45,0,85
3,42,114,11
3,42,0,78
3,40,107,18
3,40,0,520
3,33,105,56
3,33,0,522
3,40,101,54
3,40,0,565
3,47,90,11
3,47,0,274
3,40,96,14
3,40,0,262
3,42,110,26
3,42,0,493
3,42,103,83
3,42,0,508
3,47,95,68
3,47,0,505
3,42,91,71
3,42,0,265
3,47,114,23
3,47,0,210
3,45,111,78
3,45,0,490
3,40,112,86
3,40,0,490
3,40,105,86
3,40,0,510
3,47,112,66
3,47,0,66
3,49,101,30
3,49,0,61
3,47,107,35
3,47,0,66
3,45,103,30
3,45,0,58
3,47,106,38
3,47,0,64
3,45,94,32
3,45,0,66
3,42,107,30
3,42,0,450
3,30,108,30
3,30,0,70
3,35,108,26
3,35,0,277
3,39,107,11
3,39,0,274
3,40,110,14
3,40,0,390
3,45,113,90
3,45,0,76
3,47,107,20
3,47,0,64
3,49,111,32
3,49,0,61
3,47,106,35
3,47,0,54
3,47,117,42
3,47,0,61
3,45,106,35
3,45,0,58
3,42,102,38
3,42,0,73
3,40,110,23
3,40,0,520
3,33,105,56
3,33,0,522
3,40,103,54
3,40,0,565
3,47,95,11
3,47,0,274
3,40,95,14
3,40,0,262
3,42,111,26
3,42,0,493
3,42,100,83
3,42,0,508
3,47,95,68
3,47,0,505
3,42,91,71
3,42,0,265
3,47,117,23
3,47,0,210
3,45,107,78
3,45,0,490
3,40,109,86
3,40,0,490
3,40,105,86
3,40,0,510
3,47,107,66
3,47,0,66
3,49,107,30
3,49,0,61
3,47,105,35
3,47,0,66
3,45,107,30
3,45,0,58
3,47,107,38
3,47,0,64
3,45,96,32
3,45,0,66
3,42,104,30
3,42,0,450
3,30,111,30
3,30,0,70
3,35,111,26
3,35,0,277
3,39,113,11
3,39,0,274
3,40,115,14
3,40,0,418
3,40,112,62
3,40,0,66
3,40,107,30
3,40,0,70
3,42,100,26
3,42,0,70
3,40,107,26
3,40,0,73
3,38,111,23
3,38,0,70
3,37,106,26
3,37,0,66
3,35,106,30
3,35,0,61
3,45,114,35
3,45,0,28
3,45,113,68
3,45,0,28
3,45,113,68
3,45,0,34
3,45,117,62
3,45,0,49
3,47,107,239
3,47,0,30
3,47,110,66
3,47,0,30
3,47,106,66
3,47,0,30
3,47,125,66
3,47,0,54
3,40,118,234
3,40,0,34
3,40,123,62
3,40,0,28
3,40,123,68
3,40,0,28
3,40,121,68
3,40,0,78
3,39,118,114
3,39,0,76
3,37,106,20
3,37,0,30
3,37,109,66
3,37,0,30
3,37,102,66
3,37,0,34
3,37,118,62
3,37,0,97
3,32,120,95
3,32,0,82
3,30,120,14
3,30,0,454
3,34,119,26
3,34,0,82
3,35,115,14
3,35,0,274
3,39,118,14
3,39,0,52
3,42,119,140
3,42,0,78
3,40,112,18
3,40,0,30
3,40,116,66
3,40,0,25
3,40,109,71
3,40,0,30
3,38,112,66
3,38,0,34
3,38,104,62
3,38,0,28
3,38,113,68
3,38,0,34
3,40,123,62
3,40,0,82
3,42,120,14
3,42,0,90
3,40,117,6
3,40,0,78
3,38,118,18
3,38,0,82
3,37,119,14
3,37,0,76
3,35,122,20
3,35,0,73
3,45,113,23
3,45,0,28
3,45,115,68
3,45,0,28
3,45,115,68
3,45,0,34
3,45,113,62
3,45,0,49
3,47,107,239
3,47,0,30
3,47,109,66
3,47,0,30
3,47,106,66
3,47,0,30
3,47,121,66
3,47,0,54
3,40,113,234
3,40,0,34
3,40,122,62
3,40,0,28
3,40,123,68
3,40,0,28
3,40,122,68
3,40,0,78
3,39,119,114
3,39,0,76
3,37,108,20
3,37,0,30
3,37,113,66
3,37,0,30
3,37,105,66
3,37,0,34
3,37,125,62
3,37,0,97
3,32,119,95
3,32,0,82
3,30,114,14
3,30,0,388
3,30,106,92
3,30,0,88
3,37,103,8
3,37,0,258
3,30,121,30
3,30,0,174
3,37,110,18
3,37,0,73
3,35,118,23
3,35,0,40
3,35,108,56
3,35,0,37
3,35,107,59
3,35,0,40
3,35,106,56
3,35,0,40
3,35,102,56
3,35,0,30
3,35,111,66
3,35,0,40
3,39,123,56
3,39,0,54
3,41,104,42
3,41,0,58
3,39,117,38
3,39,0,54
3,37,107,42
3,37,0,64
3,36,111,32
3,36,0,49
3,34,116,47
3,34,0,52
3,32,102,44
3,32,0,546
3,37,106,30
3,37,0,546
3,32,92,30
3,32,0,538
3,39,88,38
3,39,0,270
3,44,73,18
3,44,0,238
3,46,79,50
3,46,0,544
3,46,94,32
3,46,0,424
3,46,83,56
3,46,0,76
3,39,90,20
3,39,0,565
3,46,97,11
3,46,0,270
3,39,103,18
3,39,0,262
3,37,94,26
3,37,0,532
3,44,88,44
3,44,0,265
3,37,86,23
3,37,0,265
3,32,106,23
3,32,0,544
3,39,119,32
3,39,0,66
3,41,100,30
3,41,0,73
3,39,114,23
3,39,0,76
3,37,114,20
3,37,0,66
3,39,119,30
3,39,0,70
3,37,115,26
3,37,0,85
3,34,116,11
3,34,0,442
3,37,124,38
3,37,0,76
3,39,117,20
3,39,0,445
3,43,120,35
3,43,0,73
3,44,113,23
3,44,0,448
3,39,120,32
3,39,0,90
3,37,108,6
3,37,0,265
3,44,100,23
3,44,0,283
3,46,104,5
3,46,0,448
3,41,99,32
3,41,0,76
3,39,119,20
3,39,0,40
3,41,102,56
3,41,0,30
3,39,124,66
3,39,0,37
3,37,118,59
3,37,0,34
3,36,113,62
3,36,0,37
3,34,123,59
3,34,0,52
3,44,116,44
3,44,0,448
3,39,120,32
3,39,0,90
3,37,106,6
3,37,0,265
3,44,98,23
3,44,0,283
3,46,107,5
3,46,0,448
3,41,97,32
3,41,0,76
3,39,122,20
3,39,0,40
3,41,106,56
3,41,0,30
3,39,122,66
3,39,0,37
3,37,120,59
3,37,0,34
3,36,109,62
3,36,0,37
3,34,125,59
3,34,0,52
3,44,115,44
3,44,0,448
3,39,118,32
3,39,0,90
3,37,112,6
3,37,0,265
3,44,101,23
3,44,0,283
3,46,101,5
3,46,0,448
3,41,97,32
3,41,0,76
3,39,124,20
3,39,0,40
3,41,101,56
3,41,0,30
3,39,125,66
3,39,0,37
3,37,123,59
3,37,0,34
3,36,109,62
3,36,0,37
3,34,124,59
3,34,0,52
3,32,113,44
3,32,0,572
4,64,84,586
4,66,86,0
4,69,86,0
4,73,81,0
4,73,0,571
4,75,93,5
4,64,0,558
4,66,0,7
4,69,0,0
4,75,0,6
4,64,71,5
4,68,86,0
4,71,66,0
4,73,79,0
4,71,0,558
4,64,0,7
4,68,0,6
4,73,0,0
4,63,71,5
4,66,74,0
4,71,93,0
4,71,0,526
4,63,0,6
4,66,0,9
5,71,94,3212
5,71,0,276
5,71,94,12
5,71,0,180
5,71,102,12
5,71,0,5
5,73,102,12
5,73,0,151
5,71,98,12
5,71,0,84
5,69,108,12
5,69,0,180
5,68,102,12
5,68,0,84
5,71,102,12
5,71,0,276
5,71,108,12
5,71,0,774
5,73,98,4
5,73,0,240
5,73,94,40
5,73,0,147
5,73,90,45
5,73,0,44
5,75,102,52
5,75,0,189
5,73,102,3
5,73,0,93
5,71,102,3
5,71,0,189
5,69,94,3
5,69,0,93
5,75,114,3
5,75,0,258
5,75,102,12
5,75,0,706
5,73,102,4
5,73,0,235
5,73,94,33
5,73,0,150
5,73,90,42
5,73,0,30
5,73,94,66
5,73,0,76
5,71,90,20
5,71,0,76
5,69,90,20
5,69,0,76
5,69,102,20
5,69,0,76
5,68,94,20
5,68,0,76
5,66,98,20
5,66,0,76
5,71,98,20
5,71,0,252
5,71,90,36
5,71,0,620
5,59,98,52
5,59,0,60
5,59,90,36
5,59,0,42
5,73,108,54
5,73,0,252
5,73,108,36
5,73,0,596
5,71,102,4
5,71,0,66
5,69,102,18
5,69,0,42
5,71,102,54
5,71,0,66
5,69,102,30
5,69,0,54
5,68,102,42
5,68,0,399
5,71,94,561
5,71,0,243
5,71,94,45
5,71,0,144
5,71,102,48
5,71,0,36
5,73,102,12
5,73,0,160
5,71,98,3
5,71,0,93
5,69,108,3
5,69,0,189
5,68,102,3
5,68,0,93
5,71,102,3
5,71,0,258
5,71,108,30
5,71,0,774
5,73,98,4
5,73,0,240
5,73,94,40
5,73,0,147
5,73,90,45
5,73,0,44
5,75,102,52
5,75,0,189
5,73,102,3
5,73,0,93
5,71,102,3
5,71,0,189
5,69,94,3
5,69,0,93
5,75,114,3
5,75,0,258
5,75,102,12
5,75,0,706
5,73,102,4
5,73,0,235
5,73,94,33
5,73,0,150
5,73,90,42
5,73,0,30
5,73,94,66
5,73,0,78
5,71,90,18
5,71,0,78
5,69,90,18
5,69,0,78
5,69,102,18
5,69,0,78
5,68,94,18
5,68,0,78
5,66,98,18
5,66,0,78
5,71,98,18
5,71,0,252
5,71,90,36
5,71,0,620
5,59,98,52
5,59,0,60
5,59,90,36
5,59,0,42
5,73,108,54
5,73,0,252
5,73,108,36
5,73,0,596
5,71,102,4
5,71,0,81
5,69,102,3
5,69,0,93
5,71,102,3
5,71,0,93
5,69,102,3
5,69,0,93
5,68,102,3
5,68,0,399
5,64,126,81
5,64,0,75
5,66,120,21
5,66,0,72
5,68,114,24
5,68,0,72
5,69,102,24
5,69,0,66
5,71,120,30
5,71,0,39
5,73,120,4
5,73,0,51
5,71,114,16
5,71,0,87
5,69,126,9
5,69,0,212
5,69,126,76
5,69,0,36
5,78,126,7
5,78,0,106
5,76,114,45
5,76,0,183
5,75,120,9
5,75,0,80
5,73,126,16
5,73,0,80
5,71,126,16
5,71,0,476
5,68,120,4
5,68,0,51
5,76,114,45
5,76,0,156
5,75,120,36
5,73,126,192
5,75,0,0
5,73,0,84
5,71,108,12
5,71,0,92
5,69,126,4
5,69,0,452
5,66,114,28
5,66,0,30
5,75,126,12
5,75,0,151
5,73,120,21
5,71,114,192
5,73,0,0
5,71,0,84
5,69,120,12
5,69,0,39
5,64,114,57
5,68,120,0
5,64,0,258
5,68,0,2
5,66,120,28
5,69,114,0
5,66,0,231
5,69,0,5
5,68,120,52
5,71,114,0
5,71,0,66
5,68,0,2
5,64,120,28
5,64,0,68
5,66,126,28
5,66,0,75
5,68,114,21
5,68,0,66
5,69,108,30
5,69,0,72
5,71,120,24
5,71,0,42
5,73,120,4
5,71,114,52
5,73,0,0
5,71,0,80
5,69,114,16
5,69,0,234
5,69,114,54
5,69,0,36
5,78,126,4
5,78,0,136
5,76,108,24
5,76,0,188
5,75,126,4
5,75,0,75
5,73,114,21
5,73,0,84
5,71,120,12
5,71,0,471
5,68,114,9
5,68,0,32
5,76,126,64
5,76,0,164
5,75,126,28
5,75,0,171
5,73,126,21
5,73,0,80
5,71,120,16
5,71,0,60
5,73,126,36
5,73,0,408
5,73,120,72
5,73,0,75
5,73,126,21
5,73,0,171
5,73,114,21
5,73,0,171
5,73,114,21
5,73,0,75
5,73,114,21
5,73,0,75
5,75,120,21
5,75,0,3
5,72,126,19
5,72,0,573
5,75,114,3
5,75,0,285
5,75,114,3
5,75,0,140
5,75,94,52
5,75,0,44
5,77,114,7
5,77,0,136
5,75,102,3
5,75,0,93
5,73,114,3
5,73,0,189
5,72,108,3
5,72,0,93
5,75,114,3
5,75,0,248
5,75,120,40
5,75,0,716
5,77,114,36
5,77,0,240
5,77,98,24
5,77,0,135
5,77,102,57
5,77,0,56
5,79,108,40
5,79,0,189
5,77,94,3
5,77,0,93
5,75,108,3
5,75,0,189
5,73,102,3
5,73,0,93
5,79,108,3
5,79,0,224
5,79,114,4
5,79,0,711
5,77,114,124
5,77,0,240
5,77,108,48
5,77,0,140
5,77,102,52
5,77,0,24
5,77,108,72
5,77,0,85
5,75,80,11
5,75,0,85
5,73,108,11
5,73,0,85
5,73,120,11
5,73,0,85
5,72,94,11
5,72,0,85
5,70,108,11
5,70,0,1
5,75,114,4
5,75,0,241
5,75,120,21
5,75,0,552
5,63,114,120
5,63,0,51
5,63,108,45
5,63,0,32
5,77,108,16
5,77,0,226
5,77,108,48
5,77,0,444
5,75,102,228
5,75,0,72
5,73,108,24
5,73,0,44
5,75,108,52
5,75,0,72
5,73,114,24
5,73,0,66
5,72,114,30
5,72,0,411
5,63,114,357
5,63,0,44
5,63,120,52
5,63,0,36
5,77,108,60
5,77,0,236
5,77,114,52
5,77,0,612
5,75,108,7
5,75,0,58
5,73,108,12
5,73,0,63
5,75,114,33
5,75,0,78
5,73,108,18
5,73,0,66
5,72,114,30
5,72,0,711
5,63,120,57
5,63,0,51
5,63,114,45
5,63,0,30
5,77,102,7
5,77,0,216
5,77,114,52
5,77,0,624
5,75,108,48
5,75,0,75
5,73,108,21
5,73,0,51
5,75,108,45
5,75,0,72
5,73,108,24
5,73,0,66
5,72,114,30
5,72,0,558
5,63,120,210
5,63,0,51
5,63,114,45
5,63,0,44
6,68,101,3194
6,68,0,274
6,68,99,14
6,68,0,178
6,68,97,14
6,68,0,3
6,69,109,12
6,69,0,149
6,68,95,14
6,68,0,82
6,66,96,14
6,66,0,178
6,64,87,14
6,64,0,82
6,68,105,14
6,68,0,274
6,68,108,14
6,68,0,774
6,69,104,4
6,69,0,233
6,69,104,47
6,69,0,145
6,69,101,47
6,69,0,37
6,71,111,59
6,71,0,187
6,69,91,5
6,69,0,91
6,68,99,5
6,68,0,187
6,66,93,5
6,66,0,91
6,71,106,5
6,71,0,253
6,71,115,12
6,71,0,704
6,69,116,4
6,69,0,224
6,69,108,44
6,69,0,145
6,69,98,47
6,69,0,22
6,69,116,74
6,69,0,74
6,68,72,22
6,68,0,74
6,66,85,22
6,66,0,74
6,66,110,22
6,66,0,74
6,64,85,22
6,64,0,74
6,63,87,22
6,63,0,74
6,68,107,22
6,68,0,253
6,68,111,35
6,68,0,628
6,69,116,236
6,69,0,250
6,69,111,38
6,69,0,592
6,68,105,4
6,68,0,73
6,66,94,11
6,66,0,46
6,68,109,50
6,68,0,66
6,66,90,30
6,66,0,54
6,64,95,42
6,64,0,394
6,68,99,566
6,68,0,234
6,68,105,54
6,68,0,136
6,68,97,56
6,68,0,34
6,69,107,12
6,69,0,158
6,68,96,5
6,68,0,91
6,66,96,5
6,66,0,187
6,64,85,5
6,64,0,91
6,68,108,5
6,68,0,256
6,68,108,32
6,68,0,774
6,69,98,4
6,69,0,233
6,69,102,47
6,69,0,145
6,69,99,47
6,69,0,37
6,71,109,59
6,71,0,187
6,69,92,5
6,69,0,91
6,68,101,5
6,68,0,187
6,66,89,5
6,66,0,91
6,71,107,5
6,71,0,253
6,71,115,12
6,71,0,704
6,69,110,4
6,69,0,224
6,69,109,44
6,69,0,145
6,69,101,47
6,69,0,22
6,69,121,74
6,69,0,76
6,68,70,20
6,68,0,76
6,66,84,20
6,66,0,76
6,66,104,20
6,66,0,76
6,64,88,20
6,64,0,76
6,63,84,20
6,63,0,76
6,68,105,20
6,68,0,253
6,68,110,35
6,68,0,628
6,69,112,236
6,69,0,250
6,69,112,38
6,69,0,592
6,68,104,4
6,68,0,79
6,66,87,5
6,66,0,91
6,68,108,5
6,68,0,91
6,66,88,5
6,66,0,91
6,64,101,5
6,64,0,394
6,64,105,556
6,64,0,256
6,66,110,32
6,66,0,229
6,68,109,59
6,68,0,66
6,70,102,1696
6,70,0,406
6,70,105,74
6,70,0,73
6,70,113,23
6,70,0,169
6,70,105,23
6,70,0,169
6,70,89,23
6,70,0,73
6,70,87,23
6,70,0,73
6,72,109,595
6,72,0,283
6,72,98,5
6,72,0,130
6,72,90,62
6,72,0,37
6,73,94,7
6,73,0,134
6,72,101,5
6,72,0,91
