track,note,velocity,time
0,71,47,0
0,62,59,10
0,66,60,0
0,78,44,0
0,59,59,10
0,83,47,10
0,59,57,26
0,62,64,3
0,66,57,1
0,47,55,36
0,62,42,56
0,66,51,73
0,66,50,8
0,59,54,2
0,62,57,9
0,66,51,18
0,62,56,2
0,59,56,4
0,59,53,19
0,66,53,2
0,62,56,4
0,59,52,25
0,66,57,3
0,62,58,3
0,59,53,20
0,62,57,4
0,67,58,2
0,66,49,23
0,62,55,10
0,66,76,2
0,71,77,3
0,90,49,14
0,66,45,8
0,62,58,10
0,66,60,0
0,59,59,10
0,71,34,46
0,66,53,14
0,59,57,14
0,62,64,3
0,66,56,1
0,71,23,1
0,66,58,8
0,57,23,79
0,66,62,2
0,66,51,8
0,59,55,2
0,62,56,3
0,57,23,21
0,66,47,3
0,66,45,9
0,66,50,9
0,57,46,0
0,62,57,2
0,59,56,4
0,62,56,4
0,66,33,73
0,59,53,19
0,66,53,2
0,62,56,4
0,59,53,20
0,62,56,4
0,67,58,2
0,61,51,6
0,66,47,18
0,62,59,1
0,54,85,0
0,47,89,0
0,66,50,13
0,62,44,6
0,47,45,1
0,50,29,28
0,66,41,239
0,62,31,6
0,50,84,16
0,66,30,268
0,54,87,3
0,62,30,4
0,66,23,258
0,59,89,7
0,62,26,6
0,43,40,3
0,52,86,9
0,43,86,1
0,52,26,2
0,61,69,16
0,52,91,454
0,55,86,494
0,59,88,110
0,58,67,0
0,42,57,1
0,42,87,2
0,49,41,4
0,49,31,5
0,61,42,16
0,55,86,11
0,58,86,484
0,61,89,479
0,86,44,112
0,90,51,43
0,54,83,0
0,35,85,2
0,50,58,4
0,35,55,4
0,50,34,25
0,50,84,447
0,59,82,22
0,54,86,16
0,62,51,2
0,59,89,477
0,62,65,9
0,47,88,10
0,54,50,10
0,50,85,465
0,54,87,60
0,59,88,90
0,43,61,20
0,52,44,5
0,43,87,5
0,52,84,4
0,64,63,5
0,52,90,472
0,55,86,79
0,59,89,110
0,42,54,0
0,42,87,2
0,49,39,10
0,58,89,4
0,55,80,461
0,66,64,2
0,58,86,3
0,54,70,15
0,61,89,33
0,54,55,6
0,47,35,0
0,35,95,2
0,85,46,0
0,61,64,6
0,35,46,4
0,90,52,17
0,50,84,455
0,54,86,13
0,59,65,10
0,59,89,8
0,47,88,0
0,35,69,3
0,59,101,5
0,47,28,10
0,50,16,8
0,54,19,10
0,59,111,0
0,50,85,46
0,62,110,0
0,66,111,0
0,54,87,9
0,64,111,0
0,59,88,168
0,62,110,0
0,43,29,3
0,64,111,0
0,43,87,0
0,52,16,2
0,59,16,10
0,66,110,0
0,52,90,165
0,67,110,0
0,64,111,0
0,55,86,19
0,59,89,95
0,42,46,1
0,42,87,2
0,52,14,15
0,58,14,0
0,67,111,0
0,55,86,5
0,70,110,0
0,73,110,0
0,58,86,9
0,71,111,0
0,61,89,168
0,70,111,0
0,71,110,0
0,35,85,0
0,35,45,4
0,54,18,15
0,50,24,10
0,73,110,0
0,50,84,5
0,74,111,0
0,54,86,219
0,73,110,0
0,71,111,0
0,59,89,8
0,47,88,50
0,59,111,0
0,50,85,165
0,62,110,0
0,66,111,0
0,54,87,9
0,64,110,0
0,59,88,90
0,62,110,0
0,64,111,0
0,43,87,0
0,43,31,3
0,55,16,32
0,59,16,10
0,66,111,0
0,52,90,165
0,67,110,0
0,64,110,0
0,55,86,19
0,59,89,95
0,42,87,2
0,42,47,1
0,52,14,20
0,58,14,0
0,67,111,0
0,55,80,5
0,70,111,0
0,73,110,0
0,58,86,9
0,71,110,0
0,61,89,33
0,70,111,0
0,71,110,0
0,35,95,0
0,35,44,9
0,54,18,15
0,50,24,10
0,73,111,0
0,50,84,165
0,74,111,0
0,54,86,249
0,73,110,0
0,71,111,0
0,59,89,8
0,47,88,35
0,35,78,8
0,59,96,0
0,74,110,0
0,50,85,5
0,74,110,0
0,54,87,91
0,74,111,0
0,74,111,0
0,59,88,8
0,74,110,0
0,43,54,18
0,59,63,12
0,74,110,0
0,43,87,0
0,55,54,5
0,74,111,0
0,73,111,0
0,52,90,5
0,76,110,0
0,62,59,58
0,55,86,96
0,76,110,0
0,59,89,110
0,52,53,10
0,58,52,0
0,42,69,0
0,42,87,2
0,61,52,4
0,76,111,0
0,76,110,0
0,55,86,5
0,76,111,0
0,76,111,0
0,58,86,9
0,76,110,0
0,61,89,168
0,76,111,0
0,54,52,18
0,35,69,1
0,50,51,0
0,59,58,10
0,76,110,0
0,35,85,0
0,74,110,0
0,50,84,5
0,78,111,0
0,54,86,249
0,76,111,0
0,74,110,35
0,59,89,8
0,47,88,50
0,74,110,0
0,50,85,165
0,74,111,0
0,74,111,0
0,54,87,9
0,74,110,0
0,59,88,90
0,74,110,0
0,43,54,15
0,52,69,2
0,74,111,0
0,43,87,0
0,59,63,5
0,55,46,2
0,73,110,0
0,73,111,0
0,52,90,5
0,76,111,0
0,55,86,259
0,76,110,0
0,59,89,110
0,42,87,2
0,58,52,5
0,42,69,1
0,54,40,5
0,61,53,10
0,76,111,0
0,55,80,245
0,76,110,0
0,74,110,0
0,58,86,9
0,70,111,0
0,61,89,33
0,78,45,60
0,83,47,35
0,71,111,0
0,59,51,43
0,51,63,36
0,54,53,19
0,35,64,1
0,50,51,0
0,59,58,0
0,35,95,2
0,35,85,8
0,59,115,0
0,50,84,447
0,54,86,89
0,71,71,1
0,46,45,2
0,55,43,21
0,46,54,7
0,55,54,68
0,59,89,40
0,46,69,1
0,55,65,44
0,46,79,38
0,55,75,48
0,46,98,47
0,55,82,25
0,46,107,34
0,71,110,0
0,54,85,0
0,47,88,0
0,55,89,3
0,50,78,8
0,46,106,34
0,55,82,36
0,46,98,24
0,55,72,46
0,46,89,14
0,55,61,46
0,46,73,16
0,50,85,0
0,55,51,46
0,46,60,44
0,55,38,56
0,46,50,54
0,54,87,91
0,74,110,0
0,59,88,8
0,71,111,0
0,43,58,5
0,43,87,10
0,55,79,1
0,55,43,2
0,59,57,10
0,52,90,196
0,55,86,494
0,59,89,110
0,42,58,0
0,52,92,2
0,42,87,0
0,52,50,15
0,58,61,0
0,58,70,6
0,70,111,0
0,55,86,245
0,71,110,0
0,71,110,0
0,73,111,0
0,58,86,9
0,74,110,0
0,61,89,168
0,73,111,0
0,35,85,2
0,35,63,4
0,59,58,5
0,54,91,15
0,50,46,3
0,50,59,7
0,71,111,0
0,50,84,215
0,59,92,19
0,54,86,16
0,59,89,477
0,62,80,40
0,47,88,10
0,54,63,15
0,71,110,0
0,50,85,5
0,54,87,60
0,74,111,0
0,59,88,8
0,71,110,0
0,43,59,7
0,43,87,0
0,55,79,11
0,55,40,1
0,59,57,0
0,62,76,4
0,67,110,20
0,52,90,325
0,55,86,439
0,59,89,110
0,42,59,0
0,42,87,2
0,64,92,6
0,58,89,8
0,52,50,1
0,58,61,0
0,70,111,0
0,55,80,165
0,71,111,0
0,73,110,0
0,58,86,9
0,54,86,0
0,74,110,0
0,61,89,8
0,71,111,0
0,35,95,2
0,59,83,1
0,66,87,0
0,35,72,3
0,62,82,2
0,59,58,5
0,50,47,20
0,50,84,447
0,54,91,18
0,62,82,33
0,54,86,23
0,66,92,8
0,59,89,14
0,62,77,1
0,74,111,0
0,47,88,0
0,62,79,3
0,35,79,5
0,59,96,0
0,71,82,22
0,66,70,0
0,50,85,46
0,54,87,91
0,78,110,0
0,59,88,8
0,62,66,50
0,66,92,45
0,74,110,0
0,43,59,3
0,43,87,34
0,59,56,5
0,55,48,2
0,52,90,116
0,55,86,494
0,59,89,110
0,54,101,232
0,42,59,11
0,61,71,1
0,64,67,2
0,42,87,0
0,52,51,5
0,58,60,0
0,73,67,8
0,70,52,2
0,73,111,0
0,55,86,155
0,74,110,0
0,76,111,0
0,58,86,9
0,78,111,0
0,61,89,168
0,76,110,0
0,74,80,13
0,35,62,4
0,59,59,0
0,66,81,1
0,35,85,1
0,62,68,8
0,62,83,2
0,50,46,5
0,74,111,0
0,78,110,20
0,50,84,5
0,78,79,12
0,66,101,21
0,54,86,9
0,59,89,110
0,78,82,16
0,71,110,0
0,47,88,0
0,78,95,0
0,66,89,4
0,74,68,5
0,78,70,99
0,78,78,244
0,50,85,5
0,54,87,60
0,78,64,14
0,74,111,0
0,59,88,8
0,78,65,11
0,71,111,0
0,43,59,14
0,67,94,1
0,79,87,2
0,78,44,11
0,59,57,5
0,43,87,5
0,55,48,2
0,76,55,20
0,67,110,0
0,52,90,105
0,62,84,328
0,59,92,2
0,71,89,16
0,55,86,14
0,59,89,110
0,42,59,11
0,73,79,6
0,52,50,0
0,58,60,0
0,64,82,1
0,42,87,2
0,61,68,4
0,64,84,15
0,74,110,0
0,73,111,0
0,55,80,5
0,71,111,0
0,73,110,0
0,58,86,9
0,74,110,0
0,61,89,8
0,71,83,21
0,35,63,4
0,59,59,9
0,66,64,1
0,71,111,0
0,35,95,0
0,50,46,8
0,66,59,0
0,59,83,6
0,71,110,0
0,50,84,5
0,43,64,458
0,54,86,0
0,66,73,12
0,62,54,6
0,60,95,78
0,59,89,290
0,35,114,0
0,47,88,0
0,35,118,0
0,42,113,0
0,47,42,0
0,54,30,0
0,59,45,20
0,28,39,210
0,44,57,5
0,59,111,0
0,82,61,31
0,42,98,10
0,50,85,5
0,62,111,0
0,44,60,33
0,69,63,7
0,28,30,10
0,66,110,0
0,38,97,0
0,42,111,0
0,75,101,5
0,54,87,4
0,28,25,205
0,44,53,5
0,64,111,0
0,82,52,102
0,42,101,0
0,59,88,8
0,62,110,0
0,69,58,70
0,44,59,14
0,43,47,37
0,31,117,0
0,64,110,0
0,43,87,0
0,35,119,0
0,42,112,0
0,55,30,1
0,44,56,208
0,66,111,0
0,82,59,150
0,42,99,10
0,52,90,5
0,44,59,26
0,69,63,4
0,67,111,0
0,38,96,220
0,42,110,0
0,75,104,9
0,55,86,10
0,44,58,56
0,64,110,0
0,82,57,0
0,42,100,10
0,59,89,8
0,69,59,77
0,44,72,3
0,35,78,7
0,42,46,0
0,30,123,2
0,42,87,0
0,35,118,0
0,42,113,0
0,52,38,15
0,58,49,0
0,67,110,0
0,28,39,0
0,44,57,5
0,82,60,70
0,67,111,0
0,42,99,0
0,55,86,5
0,44,61,3
0,69,62,7
0,70,111,0
0,28,30,0
0,73,110,0
0,38,97,0
0,42,110,0
0,75,101,5
0,58,86,4
0,28,25,205
0,44,52,5
0,71,110,0
0,82,53,150
0,42,100,0
0,61,89,8
0,69,59,30
0,70,111,0
0,35,63,0
0,44,58,4
0,35,112,0
0,71,110,0
0,35,85,0
0,35,119,0
0,42,113,0
0,35,50,4
0,59,47,5
0,50,35,8
0,44,57,200
0,82,58,30
0,73,111,0
0,42,99,0
0,50,84,5
0,44,59,26
0,69,62,4
0,74,111,0
0,38,97,30
0,42,110,0
0,54,86,9
0,75,105,0
0,44,58,26
0,42,113,0
0,73,110,0
0,35,78,0
0,82,56,9
0,40,106,0
0,71,111,0
0,42,100,0
0,59,89,8
0,69,58,31
0,44,62,3
0,38,100,7
0,35,115,0
0,47,88,0
0,35,118,0
0,42,113,0
0,28,38,210
0,44,57,5
0,82,61,195
0,59,110,0
0,42,98,0
0,50,85,5
0,44,60,23
0,69,63,7
0,62,110,0
0,28,30,0
0,66,111,0
0,38,96,0
0,42,111,0
0,75,100,5
0,54,87,4
0,28,25,205
0,44,53,5
0,64,111,0
0,82,53,0
0,42,101,10
0,59,88,8
0,62,110,0
0,69,59,70
0,44,59,14
0,43,46,3
0,31,117,0
0,64,110,0
0,43,87,0
0,35,119,0
0,42,112,0
0,55,28,12
0,59,45,0
0,44,56,208
0,66,111,0
0,82,58,70
0,42,99,10
0,52,90,5
0,44,59,26
0,69,62,4
0,67,111,0
0,38,97,220
0,42,110,0
0,75,105,1
0,55,86,10
0,44,58,36
0,66,110,0
0,82,56,6
0,64,110,0
0,42,100,0
0,59,89,8
0,69,58,200
0,44,62,2
0,35,79,7
0,42,46,0
0,30,122,2
0,42,87,0
0,35,118,0
0,42,113,0
0,52,38,15
0,58,49,0
0,28,39,210
0,44,57,5
0,67,111,0
0,82,61,150
0,42,99,10
0,55,80,5
0,70,110,0
0,44,61,33
0,69,63,7
0,28,30,10
0,73,111,0
0,38,96,0
0,42,110,0
0,75,100,5
0,58,86,4
0,28,24,205
0,44,52,5
0,82,53,15
0,71,111,0
0,42,100,0
0,61,89,8
0,69,59,10
0,70,110,0
0,44,58,4
0,35,112,0
0,71,111,0
0,35,95,0
0,35,118,0
0,42,113,0
0,35,61,4
0,59,46,5
0,50,34,8
0,44,57,200
0,73,110,0
0,82,58,150
0,42,99,10
0,50,84,5
0,74,110,0
0,44,59,66
0,69,62,4
0,73,111,0
0,38,96,0
0,42,110,0
0,54,86,9
0,75,104,0
0,44,58,197
0,74,111,0
0,82,56,0
0,42,100,10
0,59,89,8
0,69,58,200
0,44,62,3
0,35,65,7
0,23,127,35
0,47,88,0
0,35,118,0
0,59,125,0
0,28,39,210
0,44,57,5
0,82,61,31
0,74,110,0
0,42,99,0
0,50,85,5
0,44,60,23
0,69,63,7
0,74,110,0
0,28,31,0
0,74,111,0
0,38,97,0
0,42,110,0
0,75,101,5
0,54,87,4
0,28,24,19
0,44,53,5
0,74,111,0
0,82,52,0
0,42,101,10
0,59,88,8
0,74,110,0
0,69,58,40
0,35,61,10
0,44,59,4
0,74,110,0
0,43,47,7
0,31,117,0
0,74,111,0
0,43,87,0
0,35,119,0
0,42,113,0
0,59,45,5
0,55,36,2
0,44,56,208
0,73,110,0
0,82,59,150
0,42,98,10
0,52,90,5
0,44,59,26
0,69,63,4
0,76,111,0
0,38,97,12
0,42,111,0
0,75,105,9
0,55,86,10
0,44,58,36
0,73,111,0
0,82,57,10
0,42,100,10
0,59,89,8
0,69,59,200
0,44,72,3
0,35,78,7
0,42,46,11
0,30,122,2
0,42,87,0
0,35,119,0
0,42,112,0
0,52,39,5
0,58,48,0
0,76,110,0
0,28,38,0
0,44,57,5
0,82,60,32
0,76,111,0
0,42,99,0
0,55,86,5
0,44,61,38
0,69,62,7
0,76,110,0
0,28,31,0
0,76,110,0
0,38,96,0
0,42,111,0
0,75,100,5
0,58,86,4
0,28,24,205
0,44,52,5
0,76,111,0
0,82,53,20
0,42,100,10
0,61,89,8
0,76,111,0
0,69,59,40
0,35,62,10
0,44,58,4
0,35,51,4
0,59,47,0
0,35,112,0
0,76,110,0
0,35,85,0
0,35,118,0
0,42,112,0
0,50,34,5
0,44,57,208
0,82,58,11
0,74,110,0
0,42,99,0
0,50,84,5
0,44,59,1
0,69,62,4
0,78,111,0
0,38,96,220
0,42,111,0
0,54,86,9
0,75,104,0
0,44,58,16
0,42,113,0
0,76,111,0
0,35,79,0
0,82,56,0
0,40,106,10
0,74,110,0
0,42,100,0
0,59,89,8
0,69,58,31
0,44,62,3
0,38,101,7
0,35,57,0
0,35,115,0
0,47,88,0
0,35,118,0
0,42,112,0
0,28,39,210
0,44,57,5
0,74,110,0
0,82,61,12
0,42,99,10
0,50,85,5
0,74,111,0
0,44,60,33
0,69,63,7
0,28,31,10
0,74,110,0
0,38,97,0
0,42,110,0
0,75,101,5
0,54,87,4
0,28,24,19
0,44,53,5
0,74,111,0
0,82,53,10
0,42,101,10
0,59,88,8
0,74,111,0
0,69,59,70
0,35,56,10
0,44,59,4
0,43,47,14
0,59,44,49
0,31,116,0
0,74,110,0
0,43,87,0
0,35,119,0
0,42,113,0
0,55,36,2
0,44,56,208
0,73,111,0
0,82,58,30
0,73,110,0
0,42,98,0
0,52,90,5
0,44,59,26
0,69,62,4
0,76,110,0
0,38,97,12
0,42,111,0
0,75,105,9
0,55,86,10
0,44,58,36
0,76,111,0
0,82,56,30
0,42,100,10
0,59,89,8
0,69,58,150
0,44,62,3
0,35,79,7
0,42,47,11
0,52,39,0
0,58,48,0
0,30,123,2
0,42,87,0
0,35,118,0
0,42,112,0
0,76,111,0
0,28,39,0
0,44,57,5
