track,note,velocity,time
3,60,87,1584
3,65,87,0
3,56,87,0
3,60,78,34
3,65,59,0
3,56,68,0
3,63,89,62
3,60,89,0
3,56,89,0
3,62,88,22
3,65,88,0
3,58,88,4
3,60,87,12
3,65,87,0
3,56,87,0
3,60,78,26
3,65,59,0
3,56,68,0
3,63,89,70
3,60,89,0
3,56,89,0
3,62,92,16
3,65,92,0
3,58,89,4
3,60,92,8
3,65,92,0
3,56,92,0
3,64,92,19
3,58,92,4
3,55,93,1
3,60,93,0
3,60,86,29
3,56,86,5
3,65,86,3
3,65,86,20
3,59,86,1
3,62,84,3
3,55,84,0
3,64,84,24
3,60,84,1
3,55,84,2
3,58,86,1
3,56,49,13
3,60,49,2
3,53,49,5
3,60,86,583
3,65,86,0
3,56,86,0
3,63,82,18
3,60,82,0
3,56,82,0
3,62,82,20
3,65,82,0
3,58,82,4
3,60,84,25
3,65,84,0
3,56,84,0
3,60,84,24
3,65,84,0
3,56,84,0
3,63,87,18
3,60,87,0
3,56,87,0
3,62,88,25
3,65,88,0
3,58,87,4
3,60,83,11
3,65,83,0
3,56,83,0
3,56,67,23
3,53,66,1
3,60,66,0
3,60,106,443
3,53,86,0
3,56,98,0
4,29,113,1584
4,24,66,11
4,29,104,3
4,24,49,7
4,27,104,11
4,24,81,8
4,27,109,17
4,29,109,17
4,24,83,8
4,29,103,7
4,24,60,5
4,27,98,5
4,24,100,4
4,27,111,10
4,29,101,11
4,24,93,5
4,29,109,16
4,24,82,5
4,27,107,10
4,24,104,5
4,27,98,10
4,29,101,16
4,24,88,4
4,29,104,6
4,24,97,6
4,27,104,15
4,24,98,7
4,27,104,6
4,24,98,2
4,29,105,6
4,24,66,11
4,29,104,3
4,24,49,7
4,27,104,11
4,24,81,8
4,27,109,17
4,29,109,17
4,24,95,8
4,29,103,7
4,24,60,5
4,27,98,5
4,24,100,4
4,27,111,10
4,29,101,11
4,24,93,5
4,29,109,16
4,24,97,5
4,27,104,10
4,24,104,5
4,27,98,10
4,29,97,16
4,24,97,4
4,29,98,6
4,24,97,6
4,27,97,15
4,24,98,7
4,27,104,6
4,29,98,3
4,24,88,2
4,29,98,6
4,24,97,6
4,27,97,15
4,24,98,7
4,27,104,6
4,24,98,6
4,32,102,6
4,32,100,24
4,27,62,4
4,29,104,10
4,27,66,8
4,29,105,7
4,32,105,11
4,32,70,14
4,32,105,41
4,27,60,19
4,29,99,4
4,27,70,4
4,32,100,4
4,27,66,20
4,34,101,14
4,34,100,16
4,29,79,4
4,32,102,6
4,29,73,10
4,32,98,10
4,29,98,10
4,24,66,7
4,29,104,3
4,24,70,7
4,27,104,11
4,24,81,8
4,27,103,17
4,29,109,17
4,24,83,8
4,29,107,7
4,24,95,5
4,27,98,5
4,24,100,4
4,27,111,10
4,29,111,11
4,24,89,5
4,29,104,3
4,24,79,7
4,27,104,11
4,24,91,8
4,27,109,17
4,29,109,17
4,24,83,8
4,29,103,7
4,24,86,5
4,27,98,11
4,24,100,4
4,27,105,10
4,29,101,11
4,24,93,5
4,29,104,16
4,24,82,5
4,27,105,10
4,24,104,5
4,27,98,10
4,29,101,16
4,24,88,4
4,29,103,6
4,24,97,6
4,27,97,15
4,24,103,7
4,27,103,6
4,29,98,9
4,24,88,6
4,29,98,6
4,24,102,6
4,27,97,15
4,24,103,7
4,27,104,6
4,24,98,12
4,32,108,6
4,32,104,24
4,27,87,4
4,29,108,10
4,27,92,8
4,29,105,7
4,32,110,11
4,32,93,14
4,32,108,24
4,27,88,19
4,29,107,4
4,27,87,7
4,32,105,9
4,27,95,20
4,34,109,14
4,34,109,14
4,29,92,7
4,34,108,6
4,29,88,10
4,32,102,10
4,29,98,10
4,29,104,5
4,24,83,7
4,29,107,3
4,24,84,7
4,27,104,11
4,24,88,8
4,27,109,17
4,29,107,17
4,24,91,8
4,29,107,7
4,24,92,5
4,27,98,5
4,24,100,4
4,27,105,10
4,29,101,11
4,36,108,8
4,31,106,14
4,28,108,6
4,24,106,3
4,28,110,6
4,31,106,3
4,29,109,6
4,32,102,12
4,36,109,7
4,32,102,17
4,29,106,15
4,32,107,3
4,31,109,8
4,28,106,9
4,31,109,8
4,28,100,24
4,31,109,2
4,36,106,28
4,36,100,16
4,24,105,18
4,31,102,5
4,34,102,10
4,36,107,6
4,36,105,12
4,36,105,19
4,31,98,18
4,36,104,5
4,34,101,11
4,32,102,10
4,31,106,8
4,29,102,6
4,29,89,79
4,24,104,6
4,24,105,11
4,29,104,14
4,24,86,7
4,29,104,3
4,24,86,7
4,27,104,11
4,24,92,8
4,27,109,17
4,29,109,17
4,24,94,8
4,29,103,7
4,24,87,5
4,27,105,5
4,24,100,4
4,27,111,10
4,29,101,11
4,24,93,5
4,29,108,16
4,24,82,5
4,27,109,10
4,24,104,5
4,27,98,10
4,29,101,16
4,24,88,4
4,29,98,6
4,24,97,6
4,27,97,15
4,24,98,7
4,27,104,6
4,29,98,12
4,32,108,2
4,32,104,24
4,27,99,4
4,29,108,10
4,27,92,8
4,29,105,7
4,32,110,11
4,32,93,14
4,32,108,41
4,27,94,19
4,29,110,4
4,27,87,6
4,32,111,9
4,27,89,20
4,34,109,14
4,34,109,18
4,29,92,6
4,34,108,6
4,29,88,10
4,32,109,10
4,29,108,10
4,34,109,9
4,34,109,18
4,29,92,8
4,34,108,6
4,29,88,10
4,32,102,10
4,29,108,10
4,29,104,8
4,24,83,7
4,29,107,3
4,24,84,7
4,27,104,11
4,24,88,8
4,27,109,17
4,29,109,17
4,24,91,8
4,29,103,7
4,24,92,5
4,27,98,5
4,24,100,4
4,27,105,10
4,29,101,11
4,29,104,9
4,24,84,7
4,29,104,3
4,24,89,7
4,27,104,11
4,24,93,8
4,27,109,17
4,29,109,17
4,24,83,8
4,29,107,7
4,24,89,5
4,27,98,5
4,24,100,4
4,27,109,10
4,29,101,11
4,24,93,5
4,29,109,16
4,24,82,5
4,27,110,10
4,24,104,5
4,27,98,10
4,29,108,16
4,24,110,4
4,29,108,6
4,24,97,6
4,27,97,15
4,24,98,7
4,27,104,6
4,29,98,9
4,32,108,6
4,32,104,24
4,27,87,4
4,29,108,10
4,27,92,8
4,29,105,7
4,32,110,11
4,32,93,14
4,32,108,41
4,27,88,19
4,29,107,4
4,27,87,13
4,32,108,8
4,27,89,20
4,34,109,14
4,34,109,18
4,29,92,6
4,34,108,6
4,29,88,10
4,32,102,10
4,29,108,10
4,29,104,2
4,24,83,7
4,29,107,3
4,24,84,7
4,27,104,11
4,24,88,8
4,27,109,17
4,29,109,17
4,24,91,8
4,29,103,7
4,24,92,5
4,41,109,5
4,39,110,3
4,36,113,9
4,34,103,6
4,32,109,9
4,27,110,9
4,41,111,10
4,41,113,20
4,41,103,21
4,29,116,488
5,41,101,1656
5,56,118,0
5,60,116,0
5,53,64,128
5,56,91,28
5,60,103,0
5,56,112,34
5,60,116,0
5,53,52,0
5,53,73,175
5,63,111,30
5,56,118,0
5,41,111,0
5,56,88,25
5,60,120,0
5,53,109,0
5,53,81,53
5,60,109,19
5,56,109,0
5,56,79,19
5,60,98,0
5,53,86,192
5,56,120,23
5,63,101,0
5,56,120,27
5,60,120,0
5,53,113,0
5,41,109,0
5,53,81,50
5,56,118,16
5,60,111,0
5,53,109,120
5,53,75,16
5,63,109,31
5,56,120,0
5,41,106,0
5,56,112,29
5,53,101,0
5,60,118,0
5,53,60,42
5,56,105,2
5,60,101,0
5,56,112,33
5,60,116,0
5,53,73,6
5,56,120,26
5,63,106,0
5,41,113,0
5,53,111,24
5,60,113,0
5,53,64,32
5,56,91,64
5,60,103,0
5,56,112,34
5,60,116,0
5,53,52,0
5,53,73,2
5,63,111,30
5,56,118,0
5,41,111,0
5,56,88,25
5,60,120,0
5,53,109,0
5,53,81,53
5,60,109,19
5,56,109,0
5,56,79,19
5,60,98,0
5,53,86,192
5,56,120,23
5,63,101,0
5,56,120,27
5,60,120,0
5,53,113,0
5,41,109,0
5,53,81,50
5,56,118,16
5,60,111,0
5,53,109,120
5,53,75,16
5,63,109,31
5,56,120,0
5,41,106,0
5,56,112,29
5,53,101,0
5,60,118,0
5,53,60,42
5,56,105,2
5,60,101,0
5,56,112,33
5,60,116,0
5,53,73,6
5,56,120,26
5,63,106,0
5,41,113,0
5,53,111,24
5,60,113,0
5,53,60,2
5,56,105,2
5,60,101,0
5,56,112,33
5,60,116,0
5,53,73,2
5,56,120,26
5,63,106,0
5,41,113,0
5,53,111,24
5,60,113,0
5,44,82,2
5,60,109,192
5,56,98,0
5,63,83,0
5,56,102,2
5,60,103,0
5,63,86,0
5,44,48,0
5,56,57,110
5,65,103,37
5,60,103,0
5,56,98,0
5,60,109,37
5,63,95,0
5,56,109,0
5,44,72,57
5,56,42,102
5,56,98,5
5,63,98,0
5,60,113,0
5,63,81,46
5,56,102,0
5,60,106,0
5,44,85,51
5,56,74,92
5,65,103,18
5,60,116,0
5,56,105,0
5,60,95,0
5,56,31,0
5,46,103,44
5,58,103,192
5,62,109,0
5,65,109,0
5,58,95,30
5,62,101,0
5,65,92,0
5,46,89,60
5,58,52,98
5,62,113,47
5,58,106,0
5,68,118,0
5,58,101,41
5,65,103,0
5,62,92,0
5,41,101,44
5,56,118,0
5,60,116,0
5,53,64,128
5,56,91,28
5,60,103,0
5,56,112,34
5,60,116,0
5,53,52,0
5,53,73,175
5,63,111,30
5,56,118,0
5,41,111,0
5,56,88,25
5,60,120,0
5,53,109,0
5,53,81,53
5,60,109,19
5,56,109,0
5,56,79,19
5,60,98,0
5,53,86,192
5,56,120,23
5,63,101,0
5,56,120,27
5,60,120,0
5,53,113,0
5,41,109,0
5,53,64,50
5,56,91,16
5,60,103,0
5,56,112,34
5,60,116,0
5,53,52,0
5,53,73,175
5,63,111,30
5,56,118,0
5,41,111,0
5,56,88,25
5,60,120,0
5,53,109,0
5,53,81,53
5,60,109,19
5,56,109,0
5,56,79,19
5,60,98,0
5,53,86,192
5,56,120,23
5,63,101,0
5,56,120,27
5,60,120,0
5,53,113,0
5,41,109,0
5,53,81,50
5,56,118,16
5,60,111,0
5,53,109,120
5,53,75,16
5,63,109,31
5,56,120,0
5,41,106,0
5,56,112,29
5,53,101,0
5,60,118,0
5,53,60,42
5,56,105,2
5,60,101,0
5,56,112,33
5,60,116,0
5,53,73,6
5,56,120,26
5,63,106,0
5,41,113,0
5,53,111,24
5,60,113,0
5,53,60,2
5,56,105,2
5,60,101,0
5,56,112,33
5,60,116,0
5,53,73,2
5,56,120,26
5,63,106,0
5,41,113,0
5,53,111,24
5,60,113,0
5,44,82,2
5,60,109,192
5,56,98,0
5,63,83,0
5,56,102,2
5,60,103,0
5,63,86,0
5,44,48,0
5,56,57,110
5,65,103,37
5,60,103,0
5,56,98,0
5,60,109,37
5,63,95,0
5,56,109,0
5,44,72,57
5,56,42,102
5,56,98,5
5,63,98,0
5,60,113,0
5,63,81,46
5,56,102,0
5,60,106,0
5,44,85,51
5,56,74,92
5,65,103,18
5,60,116,0
5,56,105,0
5,60,95,0
5,56,31,0
5,46,103,44
5,58,103,192
5,62,109,0
5,65,109,0
5,58,95,30
5,62,101,0
5,65,92,0
5,46,89,60
5,58,52,98
5,62,113,47
5,58,106,0
5,68,118,0
5,58,101,41
5,65,103,0
5,62,92,0
5,41,101,44
5,56,118,0
5,60,116,0
5,53,64,128
5,56,91,28
5,60,103,0
5,56,112,34
5,60,116,0
5,53,52,0
5,53,73,175
5,63,111,30
5,56,118,0
5,41,111,0
5,56,88,25
5,60,120,0
5,53,109,0
5,53,81,53
5,60,109,19
5,56,109,0
5,56,79,19
5,60,98,0
5,53,86,192
5,56,120,23
5,63,101,0
5,56,120,27
5,60,120,0
5,53,113,0
5,41,109,0
5,64,85,186
5,67,103,0
5,70,98,0
5,60,109,0
5,67,106,183
5,60,113,0
5,70,98,0
5,64,88,0
5,65,92,216
5,60,103,0
5,68,94,0
5,65,95,232
5,68,94,0
5,60,103,0
5,65,86,219
5,62,103,0
5,67,89,0
5,59,105,0
5,59,115,220
5,67,101,0
5,62,111,0
5,65,95,0
5,64,74,202
5,58,98,0
5,60,101,0
5,67,98,0
5,58,89,267
5,67,98,0
5,64,70,0
5,60,106,0
5,67,103,188
5,64,77,0
5,60,109,0
5,58,103,0
5,67,98,219
5,58,98,0
5,60,98,0
5,64,72,0
5,60,98,32
5,64,64,0
5,58,109,0
5,67,106,0
5,64,57,24
5,60,83,0
5,67,81,0
5,58,92,0
5,60,106,33
5,56,102,0
5,65,89,0
5,53,92,0
5,53,64,770
5,56,91,64
5,60,103,0
5,56,112,34
5,60,116,0
5,53,52,0
5,53,73,175
5,63,111,30
5,56,118,0
5,41,111,0
5,56,88,25
5,60,120,0
5,53,109,0
5,53,81,53
5,60,109,19
5,56,109,0
5,56,79,19
5,60,98,0
5,53,86,192
5,56,120,23
5,63,101,0
5,56,120,27
5,60,120,0
5,53,113,0
5,41,109,0
5,53,81,50
5,56,118,16
5,60,111,0
5,53,109,120
5,53,75,16
5,63,109,31
5,56,120,0
5,41,106,0
5,56,112,29
5,53,101,0
5,60,118,0
5,53,60,42
5,56,105,2
5,60,101,0
5,56,112,33
5,60,116,0
5,53,73,6
5,56,120,26
5,63,106,0
5,41,113,0
5,53,111,24
5,60,113,0
5,44,82,2
5,60,109,192
5,56,98,0
5,63,83,0
5,56,102,2
5,60,103,0
5,63,86,0
5,44,48,0
5,56,57,110
5,65,103,37
5,60,103,0
5,56,98,0
5,60,109,37
5,63,95,0
5,56,109,0
5,44,72,57
5,56,42,102
5,56,98,5
5,63,98,0
5,60,113,0
5,63,81,46
5,56,102,0
5,60,106,0
5,44,85,51
5,56,74,92
5,65,103,18
5,60,116,0
5,56,105,0
5,60,95,0
5,56,31,0
5,46,103,44
5,58,103,192
5,62,109,0
5,65,109,0
5,58,95,30
5,62,101,0
5,65,92,0
5,46,89,60
5,58,52,98
5,62,113,47
5,58,106,0
5,68,118,0
5,58,101,41
5,65,103,0
5,62,92,0
5,46,103,44
5,65,109,192
5,62,109,0
5,58,103,0
5,65,92,30
5,62,101,0
5,58,95,0
5,46,89,60
5,58,52,98
5,68,118,47
5,58,106,0
5,62,113,0
5,62,92,41
5,65,103,0
5,58,101,0
5,41,101,44
5,56,118,0
5,60,116,0
5,53,64,128
5,56,91,28
5,60,103,0
5,56,112,34
5,60,116,0
5,53,52,0
5,53,73,175
5,63,111,30
5,56,118,0
5,41,111,0
5,56,88,25
5,60,120,0
5,53,109,0
5,53,81,53
5,60,109,19
5,56,109,0
5,56,79,19
5,60,98,0
5,53,86,192
5,56,120,23
5,63,101,0
5,56,120,27
5,60,120,0
5,53,113,0
5,41,109,0
5,53,64,122
5,56,91,64
5,60,103,0
5,56,112,34
5,60,116,0
5,53,52,0
5,53,73,175
5,63,111,30
5,56,118,0
5,41,111,0
5,56,88,25
5,60,120,0
5,53,109,0
5,53,81,53
5,60,109,19
5,56,109,0
5,56,79,19
5,60,98,0
5,53,86,192
5,56,120,23
5,63,101,0
5,56,120,27
5,60,120,0
5,53,113,0
5,41,109,0
5,53,81,50
5,56,118,16
5,60,111,0
5,53,109,120
5,53,75,16
5,63,109,31
5,56,120,0
5,41,106,0
5,56,112,29
5,53,101,0
5,60,118,0
5,53,60,42
5,56,105,2
5,60,101,0
5,56,112,33
5,60,116,0
5,53,73,6
5,56,120,26
5,63,106,0
5,41,113,0
5,53,111,24
5,60,113,0
5,44,82,2
5,60,109,192
5,56,98,0
5,63,83,0
5,56,102,2
5,60,103,0
5,63,86,0
5,44,48,0
5,56,57,110
5,65,103,37
5,60,103,0
5,56,98,0
5,60,109,37
5,63,95,0
5,56,109,0
5,44,72,57
5,56,42,102
5,56,98,5
5,63,98,0
5,60,113,0
5,63,81,46
5,56,102,0
5,60,106,0
5,44,85,51
5,56,74,92
5,65,103,18
5,60,116,0
5,56,105,0
5,60,95,0
5,56,31,0
5,46,103,44
5,58,103,192
5,62,109,0
