track,note,velocity,time
1,33,127,29174
1,33,127,120
1,37,127,32
1,37,127,114
1,40,127,84
1,40,127,114
1,42,127,2
1,40,127,194
1,33,127,52
1,33,127,104
1,37,127,38
1,37,127,96
1,40,127,64
1,40,127,96
1,42,127,194
1,40,127,164
1,28,127,20
1,28,127,98
1,32,127,70
1,32,127,116
1,35,127,104
1,35,127,96
1,37,127,6
1,35,127,186
1,28,127,16
1,28,127,98
1,32,127,72
1,35,127,256
1,35,127,94
1,37,127,16
1,35,127,198
1,35,127,38
1,35,127,114
1,39,127,24
1,39,127,94
1,42,127,40
1,42,127,82
1,39,127,192
1,35,126,54
1,33,127,0
1,33,127,90
1,37,127,66
1,37,127,92
1,40,127,88
1,40,127,92
1,37,127,196
1,37,126,78
1,28,127,0
1,28,127,92
1,32,127,20
1,32,127,88
1,35,127,72
1,35,127,112
1,37,127,38
1,35,126,190
1,40,127,128
1,40,127,114
1,37,127,198
1,37,127,130
1,35,127,66
1,35,127,80
1,32,127,20
1,32,127,92
1,28,127,20
1,28,127,94
1,32,127,84
1,32,127,100
1,35,127,94
1,35,127,120
1,37,127,40
1,35,127,190
1,33,127,54
1,33,127,118
1,37,127,102
1,37,127,102
1,40,127,78
1,40,127,102
1,42,127,38
1,40,127,190
1,28,127,22
1,28,127,98
1,32,127,86
1,32,127,130
1,35,127,114
1,35,127,114
1,37,127,198
1,35,127,178
1,28,127,36
1,28,127,118
1,32,127,82
1,32,127,120
1,35,127,92
1,35,127,100
1,37,127,186
1,40,125,146
1,33,127,184
1,33,127,114
1,37,127,24
1,37,127,94
1,40,127,54
1,40,127,98
1,42,127,36
1,40,127,192
1,33,127,50
1,33,127,94
1,37,127,54
1,37,127,114
1,40,127,52
1,40,127,82
1,42,127,50
1,40,127,196
1,28,127,100
1,28,127,116
1,32,127,88
1,32,127,114
1,35,127,116
1,35,127,92
1,37,127,34
1,35,127,192
1,28,127,34
1,28,127,98
1,32,127,82
1,32,127,100
1,35,127,94
1,35,127,94
1,37,127,2
1,35,127,196
1,35,127,52
1,35,127,120
1,39,127,64
1,39,127,100
1,42,127,80
1,42,127,90
1,35,127,38
1,34,127,22
1,33,127,40
1,33,127,108
1,37,127,16
1,37,127,116
1,40,127,68
1,40,127,82
1,37,127,50
1,37,127,108
1,28,127,98
1,28,127,96
1,32,127,62
1,32,127,116
1,35,127,96
1,35,127,94
1,37,127,40
1,35,127,188
1,35,127,62
1,35,127,82
1,35,127,98
1,35,127,118
1,35,127,100
1,35,127,118
1,35,127,110
1,35,127,92
1,28,127,98
1,28,127,102
1,32,127,86
1,32,127,96
1,35,127,102
1,35,127,116
1,37,127,30
1,35,127,196
1,33,127,52
1,33,127,114
1,37,127,96
1,37,127,102
1,40,127,82
1,40,127,98
1,42,127,30
1,40,127,194
1,28,127,16
1,28,127,94
1,32,127,82
1,32,127,134
1,35,127,116
1,35,127,116
1,37,127,184
1,35,127,178
1,28,127,30
1,28,127,114
1,32,127,78
1,32,127,114
1,35,127,98
1,35,127,98
1,37,127,188
1,40,125,144
1,33,127,176
1,33,127,118
1,37,127,24
1,37,127,90
1,40,127,50
1,40,127,92
1,42,127,32
1,40,127,196
1,33,127,48
1,33,127,94
1,37,127,48
1,37,127,114
1,40,127,56
1,40,127,78
1,42,127,52
1,40,127,188
1,28,127,100
1,28,127,112
1,32,127,82
1,32,127,118
1,35,127,114
1,35,127,102
1,37,127,38
1,35,127,186
1,28,127,40
1,28,127,102
1,32,127,86
1,32,127,102
1,35,127,88
1,35,127,96
1,37,127,0
1,35,127,194
1,35,127,50
1,35,127,114
1,39,127,64
1,39,127,98
1,42,127,90
1,42,127,92
1,35,127,32
1,34,127,16
1,33,127,38
1,33,127,96
1,37,127,20
1,37,127,120
1,40,127,62
1,40,127,88
1,37,127,52
1,37,127,112
1,28,127,96
1,28,127,96
1,32,127,70
1,32,127,112
1,35,127,104
1,35,127,94
1,37,127,30
1,35,127,200
1,35,127,72
1,35,127,82
1,35,127,96
1,35,127,118
1,35,127,96
1,35,127,112
1,35,127,118
1,35,127,98
1,38,127,92
1,26,127,100
1,30,127,54
1,30,127,94
1,33,127,70
1,33,127,110
1,35,127,40
1,33,127,186
1,26,127,32
1,26,127,90
1,30,127,80
1,30,127,82
1,33,127,64
1,33,127,94
1,35,127,50
1,33,127,190
1,26,127,16
1,26,127,82
1,30,127,68
1,30,127,96
1,33,127,68
1,33,127,112
1,35,127,50
1,33,126,16
1,26,127,0
1,38,127,192
1,28,127,22
1,40,127,186
1,29,127,50
1,41,127,0
1,30,127,82
1,42,126,200
1,31,127,14
1,31,127,80
1,35,127,48
1,35,127,82
1,38,127,4
1,38,127,86
1,40,127,52
1,38,126,182
1,31,127,16
1,31,127,96
1,35,127,18
1,35,127,66
1,38,127,34
1,38,127,82
1,40,126,20
1,26,127,10
1,26,127,66
1,30,127,64
1,30,127,98
1,33,127,64
1,33,127,100
1,35,127,30
1,33,127,14
1,26,127,54
1,26,127,94
1,30,127,34
1,30,127,112
1,33,127,16
1,33,127,100
1,35,127,32
1,33,127,158
1,33,127,116
1,33,127,84
1,37,127,68
1,37,127,78
1,40,127,38
1,40,127,66
1,33,127,2
1,32,126,192
1,31,127,0
1,31,127,94
1,35,127,64
1,35,127,82
1,38,127,190
1,40,127,0
1,38,127,72
1,40,127,38
1,38,127,190
1,36,127,0
1,26,127,104
1,26,127,66
1,30,127,36
1,30,127,64
1,33,127,16
1,33,127,100
1,35,127,16
1,33,126,18
1,26,127,0
1,26,127,98
1,30,127,50
1,30,127,98
1,33,127,102
1,33,127,96
1,35,127,52
1,33,127,192
1,28,127,52
1,28,127,100
1,32,127,48
1,32,127,94
1,35,127,82
1,35,127,96
1,37,127,190
1,35,127,2
1,33,127,34
1,33,127,96
1,37,127,80
1,37,127,114
1,40,127,72
1,40,127,114
1,42,127,24
1,40,127,190
1,28,127,38
1,28,127,104
1,32,127,36
1,32,127,94
1,35,127,94
1,35,127,94
1,37,127,0
1,35,127,196
1,40,127,22
1,29,127,2
1,28,127,2
1,28,127,112
1,40,127,36
1,28,127,50
1,28,127,112
1,40,127,48
1,33,126,32
1,33,127,84
1,37,127,32
1,37,127,94
1,40,127,56
1,40,127,86
1,42,127,6
1,40,127,48
1,33,127,40
1,33,127,96
1,37,127,66
1,37,127,112
1,40,127,68
1,40,127,72
1,42,127,18
1,40,127,38
1,42,123,0
1,28,127,34
1,28,127,82
1,32,127,64
1,32,127,100
1,35,127,102
1,35,127,102
1,37,127,186
1,35,127,0
1,28,127,32
1,28,127,94
1,32,127,68
1,32,127,112
1,35,127,72
1,35,127,102
1,37,127,0
1,35,127,196
1,35,127,48
1,35,127,112
1,39,127,72
1,39,127,96
1,42,127,48
1,42,127,104
1,39,127,6
1,35,127,56
1,33,127,66
1,33,127,88
1,37,127,20
1,37,127,94
1,40,127,36
1,40,127,102
1,37,127,16
1,37,127,134
1,28,127,80
1,28,127,102
1,32,127,88
1,32,127,128
1,35,127,86
1,35,127,108
1,37,127,16
1,37,125,68
1,40,127,186
1,40,127,86
1,37,127,52
1,37,127,104
1,35,127,52
1,35,127,94
1,32,127,38
1,32,127,82
1,40,127,56
1,26,127,0
1,28,127,78
1,30,127,62
1,28,127,84
1,31,127,80
1,28,127,64
1,33,127,64
1,31,127,32
1,28,127,52
1,28,127,96
1,30,127,50
1,28,127,50
1,31,127,82
1,28,127,68
1,33,127,82
1,31,127,48
1,28,127,52
1,28,127,110
1,30,127,80
1,28,127,66
1,31,127,80
1,28,127,66
1,33,127,66
1,31,127,50
1,28,127,50
1,28,127,110
1,30,127,62
1,28,127,50
1,31,127,80
1,28,127,64
1,33,127,70
1,31,127,52
1,28,127,46
1,28,127,98
1,30,127,62
1,28,127,34
1,31,127,64
1,28,127,50
1,33,127,66
1,31,127,66
1,28,127,50
1,28,127,94
1,30,127,62
1,28,127,64
1,31,127,64
1,28,127,68
1,33,127,68
1,31,127,64
1,28,127,48
1,28,127,98
1,30,127,82
1,28,127,64
1,31,127,80
1,28,127,48
1,33,127,64
1,31,127,52
1,28,127,64
1,28,127,98
1,30,127,62
1,28,127,32
1,31,127,96
1,28,127,48
1,33,127,50
1,28,126,30
1,35,127,0
1,35,127,98
1,37,127,52
1,35,127,50
1,35,127,96
1,35,127,64
1,35,127,80
1,35,127,96
1,33,127,82
1,33,127,100
1,33,127,96
1,33,127,112
1,33,127,112
1,33,127,98
1,33,127,96
1,33,127,98
1,28,127,48
1,28,127,94
1,28,127,82
1,28,127,94
1,28,127,98
1,28,127,94
1,28,127,112
1,28,127,96
1,28,127,96
1,28,127,94
1,28,127,100
1,28,127,96
1,28,127,92
1,28,127,98
1,28,127,96
1,28,127,82
1,26,127,92
1,26,127,114
1,30,127,40
1,30,127,102
1,33,127,36
1,33,127,100
1,35,127,32
1,33,127,48
1,26,127,66
1,26,127,128
1,30,127,54
1,30,127,112
1,33,127,48
1,33,127,102
1,35,127,56
1,33,127,32
1,26,127,50
1,26,127,112
1,30,127,66
1,30,127,112
1,33,127,66
1,33,127,96
1,35,127,48
1,33,127,50
1,26,127,22
1,38,127,0
1,28,127,16
1,40,127,192
1,29,127,36
1,41,127,186
1,30,127,70
1,42,127,8
1,31,127,38
1,31,127,78
1,35,127,62
1,35,127,116
1,38,127,54
1,38,127,88
1,40,127,34
1,38,127,64
1,31,127,54
1,31,127,120
1,35,127,66
1,35,127,114
1,38,127,62
1,38,127,94
1,40,127,34
1,38,127,0
1,26,127,54
1,26,127,80
1,30,127,34
1,30,127,98
1,33,127,70
1,33,127,98
1,35,127,26
1,33,125,32
1,26,127,198
1,38,127,190
1,26,127,2
1,26,127,96
1,38,127,20
1,26,127,188
1,26,127,114
1,38,126,36
1,33,127,0
1,33,127,112
1,37,127,70
1,37,127,94
1,40,127,52
1,40,127,96
1,42,127,40
1,40,127,52
1,31,127,56
1,31,127,86
1,35,127,32
1,35,127,96
1,38,127,70
1,38,127,94
1,40,127,50
1,38,127,40
1,40,123,2
1,26,127,64
1,26,127,80
1,30,127,54
1,30,127,118
1,33,127,68
1,33,127,100
1,35,127,38
1,33,127,0
1,26,127,34
1,26,127,94
1,30,127,66
1,30,127,116
1,33,127,96
1,33,127,98
1,35,127,66
1,33,127,0
1,28,127,12354
1,28,127,132
1,32,127,32
1,32,127,114
1,35,127,54
1,35,127,110
1,37,127,18
1,35,127,24
1,28,127,40
1,28,127,98
1,32,127,64
1,32,127,116
1,35,127,86
1,35,127,112
1,37,127,32
1,35,127,22
1,28,127,52
1,28,127,86
1,32,127,64
1,32,127,118
1,35,127,54
1,35,127,94
1,37,127,22
1,35,127,22
1,36,123,0
1,28,127,62
1,40,127,34
1,30,127,48
1,42,127,192
1,31,127,22
1,43,127,16
1,32,127,64
1,44,127,2
1,33,127,34
1,33,127,78
1,37,127,192
1,37,127,102
1,40,127,192
1,40,127,118
1,42,127,184
1,40,127,22
1,33,127,32
1,33,127,118
1,37,127,24
1,37,127,90
1,40,127,28
1,40,127,98
1,42,127,20
1,28,127,128
1,29,127,0
1,28,127,32
1,32,127,38
1,32,127,98
1,35,127,36
1,35,127,114
1,37,127,32
1,35,127,38
1,28,127,20
1,28,127,80
1,32,127,32
1,32,127,102
1,35,127,16
1,35,127,118
1,37,127,190
1,35,127,16
1,35,127,96
1,35,127,98
1,39,123,48
1,39,127,106
1,42,127,68
1,42,127,116
1,35,127,46
1,34,127,24
1,33,127,36
1,33,127,98
1,37,127,2
1,37,127,96
1,40,127,20
1,40,127,102
1,37,127,2
1,33,127,38
1,28,127,18
1,28,127,100
1,32,127,40
1,32,127,108
1,35,127,38
1,35,127,118
1,37,127,66
1,35,127,36
1,28,127,22
1,28,127,80
1,32,127,22
1,32,127,118
1,35,127,66
1,35,127,130
1,37,127,120
1,35,126,48
1,28,126,198
1,40,124,594
1,28,126,52
1,28,125,242
1,28,124,254
1,33,127,2690
1,35,127,34
1,38,125,0
1,40,126,0
2,80,115,2494
2,68,107,2
2,56,107,0
2,56,107,142
2,68,107,0
2,80,119,0
2,56,107,140
2,68,107,0
2,80,115,0
2,76,119,128
2,64,107,0
2,64,107,0
2,52,107,0
2,54,107,90
2,66,107,0
2,78,115,0
2,78,103,146
2,66,107,2
2,54,107,2
2,78,107,140
2,66,107,2
2,54,107,0
2,63,107,128
2,51,107,0
2,63,113,0
2,75,113,0
2,56,107,0
2,68,107,0
2,80,95,0
2,80,103,130
2,68,107,2
2,56,107,2
2,56,107,128
2,68,107,0
2,80,103,0
2,52,107,0
2,64,107,0
2,64,93,0
2,76,107,0
2,69,107,193
2,81,115,0
2,69,107,126
2,81,115,0
2,69,107,126
2,81,119,0
2,68,107,30
2,80,107,0
2,76,107,0
2,88,115,0
2,88,107,122
2,76,107,2
2,88,119,142
2,76,107,4
2,85,113,128
2,73,107,0
2,54,107,0
2,66,107,0
2,78,115,0
2,78,115,144
2,54,107,2
2,66,107,0
2,54,107,142
2,66,107,0
2,78,115,0
2,63,113,112
2,75,119,0
2,63,107,0
2,51,107,0
2,69,107,100
2,81,115,0
2,69,107,126
2,81,119,0
2,81,115,128
2,69,107,2
2,80,102,2
2,68,107,0
2,78,107,186
2,90,115,0
2,78,107,112
2,90,115,0
2,90,103,114
2,78,107,2
2,87,107,0
2,75,107,4
2,92,91,90
2,80,107,2
2,56,107,2
2,68,107,0
2,56,107,122
2,68,107,0
2,80,107,0
2,92,99,0
2,54,107,130
2,90,91,0
2,78,107,2
2,66,107,0
2,64,107,114
2,52,107,0
2,76,95,0
2,77,91,0
2,64,98,0
2,76,107,0
2,88,62,0
2,89,59,0
2,64,103,18
2,52,107,2
2,40,107,0
2,64,107,112
2,52,107,2
2,40,107,2
2,42,107,112
2,66,107,0
2,54,107,2
2,44,107,0
2,56,107,0
2,68,115,0
2,56,107,2
2,80,107,0
2,68,107,0
2,92,95,0
2,92,83,144
2,80,107,2
2,68,107,2
2,56,107,0
2,90,95,110
2,54,107,2
2,66,107,0
2,78,107,0
2,52,107,12
2,64,107,0
2,76,107,0
2,64,107,0
2,88,85,0
2,76,113,0
2,40,107,16
2,52,107,0
2,64,103,0
2,64,91,128
2,40,107,2
2,52,107,0
2,42,107,128
2,54,107,0
2,66,107,0
2,68,107,18
2,44,107,2
2,56,107,0
2,68,107,0
2,92,95,0
2,80,107,4
2,56,107,2
2,80,107,124
2,92,87,0
2,68,107,4
2,56,107,0
2,78,107,98
2,66,107,0
2,54,107,0
2,90,91,0
2,40,107,24
2,52,107,0
2,76,107,0
2,64,107,0
2,88,98,0
2,76,113,0
2,64,102,0
2,52,98,0
2,85,99,622
2,61,107,2
2,73,107,0
2,49,107,2
2,37,107,2
2,80,119,574
2,92,107,2
2,68,113,0
2,56,113,0
2,56,107,2
2,80,107,0
2,68,107,0
2,44,107,4
2,68,79,96
2,56,107,2
2,64,107,6238
2,67,107,0
2,71,107,0
2,64,107,98
2,67,107,2
2,71,107,0
2,71,107,90
2,67,107,0
2,64,107,0
2,71,107,98
2,67,107,0
2,64,107,0
2,71,107,94
2,64,107,2
2,67,107,0
2,67,107,90
2,71,107,2
2,64,107,0
2,71,107,100
2,67,107,0
2,64,107,0
2,71,107,96
2,67,107,0
2,64,107,0
2,71,107,96
2,64,107,0
2,67,107,2
2,71,107,100
2,64,107,2
2,67,107,2
2,71,107,94
2,67,107,2
2,64,107,2
2,71,107,94
2,67,107,0
2,64,107,0
2,71,107,96
2,67,107,0
2,64,107,0
2,67,107,96
2,64,107,0
2,71,107,0
2,67,107,98
2,64,107,0
2,71,107,0
2,71,107,96
2,67,107,2
2,64,107,2
2,68,107,98
2,64,107,2
2,71,107,0
2,68,107,98
2,64,107,0
2,71,107,0
2,68,107,96
2,71,107,2
2,71,107,94
2,64,107,2
2,68,107,2
2,64,107,100
2,68,107,2
2,71,107,2
2,68,107,92
2,71,107,0
2,64,107,4
2,68,107,94
2,64,107,2
2,71,107,2
2,64,107,96
2,68,107,0
