track,note,velocity,time
1,72,80,8160
1,64,80,48
1,64,80,24
1,62,80,12
1,76,80,1248
1,74,80,36
1,71,80,24
1,74,80,24
1,72,80,36
1,72,80,1104
1,64,80,48
1,64,80,24
1,62,80,24
1,76,80,1128
1,74,80,24
1,72,80,24
1,74,80,24
1,72,80,24
1,60,80,864
1,72,80,24
1,64,80,48
1,64,80,24
1,62,80,12
1,76,80,1344
1,74,80,36
1,71,80,12
1,71,80,24
1,74,80,24
1,72,80,24
1,72,80,24
1,71,80,1512
1,72,80,36
1,79,80,24
1,71,80,864
1,72,80,36
1,79,80,24
1,64,80,1188
1,71,80,12
1,72,80,36
1,67,80,24
1,69,80,12
1,72,80,2544
1,64,80,48
1,64,80,24
1,62,80,12
1,76,80,1248
1,74,80,36
1,71,80,24
1,74,80,24
1,72,80,48
1,72,80,24
1,72,80,768
1,72,80,24
1,64,80,48
1,64,80,24
1,62,80,24
1,69,80,888
1,76,80,24
1,74,80,24
1,72,80,24
1,74,80,24
1,72,80,24
1,71,80,48
1,69,80,48
1,60,80,624
1,72,80,24
1,64,80,48
1,64,80,24
1,62,80,12
1,62,80,24
1,67,80,1104
1,76,80,24
1,74,80,36
1,71,80,12
1,71,80,24
1,74,80,24
1,72,80,24
1,79,80,384
1,71,80,624
1,72,80,36
1,79,80,24
1,71,80,864
1,72,80,36
1,79,80,24
1,64,80,1188
1,71,80,12
1,72,80,36
1,67,80,24
1,69,80,12
1,71,80,624
1,72,80,36
1,79,80,24
1,81,80,12
1,71,80,516
1,72,80,36
1,79,80,24
1,64,80,1188
1,71,80,12
1,72,80,36
1,72,80,24
1,74,80,288
1,77,80,24
1,74,80,288
1,74,80,24
1,76,80,12
1,77,80,48
1,76,80,24
1,76,80,24
1,76,80,168
1,71,80,0
1,74,80,36
1,71,80,0
1,74,80,12
1,71,80,0
1,71,80,12
1,74,80,12
1,71,80,0
1,71,80,24
1,74,80,0
1,69,80,12
1,72,80,0
1,69,80,12
1,72,80,0
1,77,80,384
1,76,80,48
1,76,80,24
1,76,80,32
1,76,80,32
1,76,80,32
1,71,80,0
1,74,80,36
1,71,80,0
1,71,80,12
1,71,80,24
1,74,80,0
1,69,80,24
1,72,80,0
1,74,80,24
1,69,80,0
1,72,80,168
1,72,80,12
1,69,80,12
1,72,80,24
1,69,80,24
1,71,80,24
1,64,80,228
1,76,80,12
1,71,80,0
1,71,80,36
1,74,80,0
1,71,80,12
1,71,80,24
1,74,80,0
1,69,80,12
1,74,80,0
1,69,80,24
1,72,80,0
1,81,80,24
1,79,80,192
1,76,80,24
1,76,80,24
1,76,80,24
1,76,80,24
1,77,80,24
1,76,80,12
1,74,80,12
1,71,80,144
1,79,80,0
1,77,80,24
1,72,80,24
1,77,80,0
1,74,80,24
1,76,80,0
1,77,80,36
1,76,80,48
1,71,80,5808
1,72,80,36
1,79,80,24
1,71,80,864
1,72,80,36
1,79,80,24
1,64,80,1188
1,71,80,12
1,72,80,36
1,67,80,24
1,69,80,12
1,72,80,72
1,76,80,24
1,79,80,24
1,71,80,528
1,72,80,36
1,79,80,24
1,72,80,96
1,71,80,48
1,69,80,36
1,69,80,12
1,71,80,96
1,72,80,36
1,79,80,24
1,60,80,1188
1,71,80,12
1,72,80,36
1,74,80,24
1,69,80,228
1,75,80,12
1,74,80,12
1,72,80,12
1,69,80,24
1,69,80,24
1,76,80,144
1,74,80,12
1,72,80,12
1,77,124,168
2,60,80,0
2,64,80,24
2,72,80,24
2,60,80,24
2,64,80,24
2,76,80,24
2,72,80,24
2,67,80,24
2,55,80,24
2,59,80,24
2,72,80,24
2,71,80,24
2,72,80,24
2,79,80,24
2,76,80,24
2,52,80,48
2,59,80,24
2,64,80,24
2,76,80,24
2,71,80,24
2,67,80,48
2,53,80,24
2,65,80,48
2,77,80,24
2,72,80,24
2,67,80,48
2,60,80,24
2,64,80,24
2,72,80,24
2,60,80,24
2,72,80,24
2,74,80,12
2,76,80,12
2,74,80,24
2,72,80,24
2,55,80,24
2,59,80,0
2,62,80,24
2,72,80,24
2,71,80,24
2,72,80,24
2,79,80,24
2,76,80,24
2,52,80,48
2,59,80,24
2,64,80,24
2,76,80,24
2,71,80,24
2,67,80,48
2,53,80,24
2,60,80,24
2,65,80,24
2,77,80,24
2,72,80,24
2,67,80,48
2,60,80,24
2,64,80,24
2,72,80,24
2,67,80,24
2,62,80,72
2,55,80,24
2,59,80,24
2,72,80,24
2,71,80,24
2,72,80,24
2,79,80,24
2,76,80,24
2,52,80,48
2,59,80,24
2,76,80,24
2,71,80,24
2,59,80,24
2,65,80,96
2,53,80,0
2,60,80,0
2,77,80,72
2,72,80,24
2,67,80,48
2,60,80,24
2,64,80,24
2,72,80,24
2,67,80,24
2,60,80,24
2,64,80,24
2,76,80,24
2,72,80,24
2,62,80,24
2,55,80,0
2,59,80,0
2,71,80,72
2,72,80,24
2,79,80,24
2,76,80,24
2,52,80,48
2,64,80,24
2,76,80,24
2,71,80,24
2,59,80,24
2,67,80,24
2,60,80,48
2,53,80,0
2,65,80,48
2,77,80,24
2,72,80,24
2,67,80,48
2,60,80,24
2,64,80,24
2,72,80,24
2,67,80,24
2,60,80,24
2,64,80,24
2,67,80,24
2,55,80,48
2,59,80,24
2,72,80,24
2,71,80,24
2,72,80,24
2,79,80,24
2,76,80,24
2,52,80,48
2,64,80,24
2,76,80,24
2,71,80,24
2,59,80,24
2,72,80,96
2,77,80,0
2,65,80,0
2,53,80,0
2,60,80,0
2,69,80,0
2,60,80,9024
2,64,80,24
2,72,80,24
2,67,80,24
2,62,80,72
2,55,80,24
2,59,80,24
2,72,80,24
2,71,80,24
2,72,80,24
2,79,80,24
2,76,80,24
2,52,80,48
2,59,80,24
2,76,80,24
2,71,80,24
2,59,80,24
2,60,80,96
2,53,80,0
2,65,80,0
2,77,80,72
2,72,80,24
2,67,80,48
2,60,80,24
2,64,80,24
2,72,80,24
2,67,80,24
2,60,80,24
2,64,80,24
2,76,80,24
2,72,80,24
2,59,80,24
2,55,80,0
2,62,80,0
2,71,80,72
2,72,80,24
2,79,80,24
2,76,80,24
2,52,80,48
2,64,80,24
2,76,80,24
2,71,80,24
2,59,80,24
2,67,80,24
2,60,80,48
2,53,80,0
2,65,80,48
2,77,80,24
2,72,80,24
2,67,80,48
2,60,80,24
2,64,80,24
2,72,80,24
2,67,80,24
2,60,80,24
2,64,80,24
2,67,80,24
2,55,80,48
2,59,80,24
2,72,80,24
2,71,80,24
2,72,80,24
2,79,80,24
2,76,80,24
2,52,80,48
2,64,80,24
2,76,80,24
2,71,80,24
2,59,80,24
2,53,80,96
2,65,80,0
2,72,80,0
2,77,80,0
2,69,80,0
2,60,80,0
3,60,80,7680
3,67,80,0
3,64,80,0
3,55,80,192
3,64,80,0
3,59,80,0
3,52,80,192
3,59,80,0
3,71,80,0
3,65,80,192
3,72,80,0
3,60,80,0
3,67,80,192
3,64,80,0
3,60,80,0
3,64,80,192
3,55,80,0
3,59,80,0
3,59,80,192
3,52,80,0
3,71,80,0
3,65,80,192
3,60,80,0
3,72,80,0
3,60,80,192
3,64,80,0
3,67,80,0
3,55,80,192
3,59,80,0
3,64,80,0
3,59,80,192
3,52,80,0
3,71,80,0
3,65,80,192
3,53,80,0
3,69,80,0
3,60,80,0
3,77,80,0
3,72,80,0
3,67,80,9024
3,60,80,0
3,64,80,0
3,59,80,192
3,64,80,0
3,55,80,0
3,71,80,192
3,59,80,0
3,52,80,0
3,72,80,192
3,60,80,0
3,65,80,0
3,60,80,192
3,64,80,0
3,67,80,0
3,59,80,192
3,55,80,0
3,64,80,0
3,71,80,192
3,52,80,0
3,59,80,0
3,72,80,192
3,60,80,0
3,65,80,0
3,67,80,192
3,64,80,0
3,60,80,0
3,55,80,192
3,64,80,0
3,59,80,0
3,71,80,192
3,52,80,0
3,59,80,0
3,65,80,192
3,53,80,0
3,69,80,0
3,60,80,0
3,77,80,0
3,72,80,0
4,72,80,19080
4,77,80,0
4,65,80,0
4,68,80,0
4,53,80,12
4,65,80,0
4,68,80,0
4,72,80,0
4,60,80,0
4,77,80,0
4,72,80,12
4,77,80,0
4,60,80,0
4,53,80,0
4,65,80,0
4,68,80,0
4,67,72,192
4,64,72,0
4,60,72,0
4,67,72,36
4,64,72,0
4,60,72,0
4,67,72,12
4,60,72,0
4,64,72,0
4,60,72,12
4,64,72,0
4,67,72,0
4,67,72,24
4,64,72,0
4,60,72,0
4,60,72,36
4,64,72,0
4,67,72,0
4,60,72,48
4,64,72,0
4,67,72,0
4,60,72,36
4,64,72,0
4,67,72,0
4,60,72,24
4,67,72,0
4,64,72,0
4,60,72,24
4,64,72,0
4,67,72,0
4,60,72,48
4,67,72,0
4,64,72,0
4,60,72,24
4,64,72,0
4,67,72,0
4,60,72,12
4,67,72,0
4,64,72,0
4,72,72,12
4,60,72,0
4,69,72,0
4,69,72,36
4,72,72,0
4,60,72,0
4,60,72,24
4,72,72,0
4,69,72,0
4,72,72,24
4,69,72,0
4,60,72,0
4,72,72,36
4,60,72,0
4,69,72,0
4,60,72,24
4,72,72,0
4,69,72,0
4,72,72,24
4,60,72,0
4,69,72,0
4,72,72,36
4,69,72,0
4,60,72,0
4,69,72,24
4,60,72,0
4,72,72,0
4,72,72,12
4,69,72,0
4,60,72,0
4,69,72,24
4,72,72,0
4,60,72,0
4,69,72,12
4,72,72,0
4,60,72,0
4,60,72,12
4,72,72,0
4,69,72,0
4,60,72,12
4,72,72,0
4,69,72,0
4,60,72,12
4,69,72,0
4,72,72,0
4,55,72,12
4,59,72,0
4,64,72,0
4,62,72,72
4,79,72,0
4,74,72,0
4,67,72,0
4,59,72,48
4,67,72,0
4,64,72,0
4,60,72,24
4,65,72,0
4,69,72,0
4,69,72,12
4,65,72,0
4,60,72,0
4,53,72,12
4,77,72,0
4,69,72,0
4,60,72,0
4,65,72,0
4,72,72,0
4,72,72,72
4,77,72,0
4,60,72,0
4,53,72,0
4,69,72,0
4,65,72,0
4,72,72,96
4,67,72,0
4,64,72,0
4,60,72,0
4,76,72,96
4,74,72,0
4,72,72,24
4,74,72,0
4,71,72,48
4,72,72,24
4,72,72,11592
4,68,72,0
4,77,72,0
4,53,72,0
4,65,72,0
4,60,72,0
4,77,72,12
4,68,72,0
4,72,72,0
4,53,72,0
4,60,72,0
4,65,72,0
4,68,72,12
4,65,72,0
4,53,72,0
4,60,72,0
4,77,72,0
4,72,72,0
4,60,72,192
4,64,72,0
4,67,72,0
4,67,72,36
4,60,72,0
4,64,72,0
4,67,72,12
4,60,72,0
4,64,72,0
4,67,72,12
4,64,72,0
4,60,72,0
4,67,72,24
4,64,72,0
4,60,72,0
4,67,72,36
4,64,72,0
4,60,72,0
4,67,72,48
4,64,72,0
4,60,72,0
4,60,72,36
4,67,72,0
4,64,72,0
4,64,72,24
4,67,72,0
4,60,72,0
4,64,72,24
4,60,72,0
4,67,72,0
4,64,72,48
4,67,72,0
4,60,72,0
4,67,72,24
4,64,72,0
4,60,72,0
4,67,72,12
4,64,72,0
4,60,72,0
4,72,72,12
4,60,72,0
4,69,72,0
4,60,72,36
4,69,72,0
4,72,72,0
4,60,72,24
4,72,72,0
4,69,72,0
4,69,72,24
4,72,72,0
4,60,72,0
4,69,72,36
4,60,72,0
4,72,72,0
4,72,72,24
4,60,72,0
4,69,72,0
4,72,72,24
4,60,72,0
4,69,72,0
4,60,72,36
4,69,72,0
4,72,72,0
4,72,72,24
4,60,72,0
4,69,72,0
4,72,72,12
4,60,72,0
4,69,72,0
4,69,72,24
4,60,72,0
4,72,72,0
4,69,72,12
4,72,72,0
4,60,72,0
4,69,72,12
4,72,72,0
4,60,72,0
4,69,72,12
4,72,72,0
4,60,72,0
4,60,72,12
4,69,72,0
4,72,72,0
4,55,72,12
4,59,72,0
4,64,72,0
4,62,72,72
4,74,72,0
4,79,72,0
4,67,72,0
4,64,72,48
4,67,72,0
4,59,72,0
4,69,72,24
4,65,72,0
4,60,72,0
4,65,72,12
4,69,72,0
4,60,72,0
4,77,72,12
4,53,72,0
4,65,72,0
4,72,72,0
4,69,72,0
4,60,72,0
4,77,72,72
4,65,72,0
4,60,72,0
4,53,72,0
4,69,72,0
4,72,72,0
4,60,72,96
4,64,72,0
4,67,72,0
4,60,72,36
4,64,72,0
4,67,72,0
4,67,72,12
4,64,72,0
4,60,72,0
4,60,72,12
4,67,72,0
4,64,72,0
4,67,72,24
4,64,72,0
4,60,72,0
4,67,72,36
4,60,72,0
4,64,72,0
4,60,72,48
4,67,72,0
4,64,72,0
4,60,72,36
4,67,72,0
4,64,72,0
4,60,72,24
4,67,72,0
4,64,72,0
4,64,72,24
4,67,72,0
4,60,72,0
4,67,72,48
4,64,72,0
4,60,72,0
4,67,72,24
4,60,72,0
4,64,72,0
4,64,72,12
4,60,72,0
4,67,72,0
4,72,72,12
4,60,72,0
4,69,72,0
4,69,72,36
4,60,72,0
4,72,72,0
4,60,72,24
4,69,72,0
4,72,72,0
4,72,72,24
4,69,72,0
4,60,72,0
4,72,72,36
4,69,72,0
4,60,72,0
4,72,72,24
4,69,72,0
4,60,72,0
4,69,72,24
4,60,72,0
4,72,72,0
4,69,72,36
4,60,72,0
4,72,72,0
4,72,72,24
4,69,72,0
4,60,72,0
4,69,72,12
4,72,72,0
4,60,72,0
4,60,72,24
4,72,72,0
4,69,72,0
4,69,72,12
4,72,72,0
4,60,72,0
4,60,72,12
4,69,72,0
4,72,72,0
4,60,72,12
4,72,72,0
4,69,72,0
4,60,72,12
4,72,72,0
4,69,72,0
4,59,72,12
4,64,72,0
4,55,72,0
4,67,72,72
4,62,72,0
4,74,72,0
4,79,72,0
4,67,72,48
4,59,72,0
4,64,72,0
4,65,72,24
4,60,72,0
4,69,72,0
4,69,72,12
4,65,72,0
4,60,72,0
4,53,72,12
4,65,72,0
4,69,72,0
4,60,72,0
4,69,72,72
4,65,72,0
4,60,72,0
4,53,72,0
4,69,72,72
4,53,124,0
4,60,124,0
4,65,124,0
4,53,124,12
4,69,124,0
4,60,124,0
4,65,124,0
4,60,124,12
4,69,124,0
4,53,124,0
4,65,124,0
4,60,124,144
4,65,124,0
4,53,124,0
4,69,124,0
4,53,124,12
4,60,124,0
4,65,124,0
4,69,124,0
4,67,124,12
4,64,124,0
4,52,124,0
4,59,124,0
4,52,124,12
4,64,124,0
4,67,124,0
4,59,124,0
4,52,124,12
4,59,124,0
4,53,124,192
4,60,124,0
4,53,124,144
4,60,124,0
4,59,124,48
4,52,124,0
4,59,124,24
4,52,124,0
4,60,124,24
4,53,124,0
4,53,124,144
4,60,124,0
4,52,124,24
4,59,124,24
4,52,124,0
4,52,124,24
4,59,124,0
4,53,124,24
4,60,124,0
4,53,124,144
4,60,124,0
4,55,124,24
4,55,124,72
4,62,124,0
4,62,124,24
4,55,124,0
4,62,124,24
4,55,124,0
4,55,124,24
4,62,124,0
4,55,124,24
4,62,124,0
4,55,124,24
4,62,124,0
4,62,124,48
4,55,124,0
4,62,124,48
4,55,124,0
4,55,124,24
4,62,124,0
4,67,124,72
4,64,124,0
4,60,124,0
4,64,124,36
4,60,124,0
4,67,124,0
4,64,124,12
4,67,124,0
4,60,124,0
4,67,124,12
4,64,124,0
4,60,124,0
4,60,124,24
4,64,124,0
4,67,124,0
4,64,124,36
4,60,124,0
4,67,124,0
4,60,124,48
4,64,124,0
4,67,124,0
4,60,124,36
4,64,124,0
4,67,124,0
4,64,124,24
4,67,124,0
4,60,124,0
4,60,124,24
4,67,124,0
4,64,124,0
4,60,124,48
4,67,124,0
4,64,124,0
4,64,124,24
4,67,124,0
4,60,124,0
4,64,124,12
4,67,124,0
4,60,124,0
4,69,124,12
4,60,124,0
4,72,124,0
4,60,124,36
4,72,124,0
4,69,124,0
4,69,124,24
4,60,124,0
4,72,124,0
4,72,124,24
4,69,124,0
4,60,124,0
4,72,124,36
4,60,124,0
4,69,124,0
4,69,124,24
4,72,124,0
4,60,124,0
4,72,124,24
