track,note,velocity,time
1,27,114,0
1,27,0,60
1,27,114,0
1,27,0,60
1,27,114,0
1,27,0,60
1,27,114,0
1,27,0,4
1,25,127,0
1,25,0,42
1,27,114,0
1,27,0,60
1,27,114,0
1,27,0,60
1,27,114,0
1,27,0,60
1,27,114,0
1,27,0,4
1,25,127,0
1,25,0,42
1,27,114,0
1,27,0,60
1,27,114,0
1,27,0,60
1,27,114,0
1,27,0,60
1,27,114,0
1,27,0,4
1,25,127,0
1,25,0,42
1,27,114,0
1,27,0,60
1,27,114,0
1,27,0,60
1,27,114,0
1,27,0,60
1,27,114,0
1,27,0,4
1,25,127,0
1,25,0,42
1,27,114,0
1,27,0,60
1,27,114,0
1,27,0,60
1,27,114,0
1,27,0,60
1,27,114,0
1,27,0,4
1,25,127,0
1,25,0,42
1,27,114,0
1,27,0,60
1,27,114,0
1,27,0,60
1,27,114,0
1,27,0,60
1,27,114,0
1,27,0,4
1,25,127,0
1,25,0,42
1,27,114,0
1,27,0,60
1,27,114,0
1,27,0,60
1,27,114,0
1,27,0,60
1,27,114,0
1,27,0,4
1,25,127,0
1,25,0,42
1,27,114,0
1,27,0,60
1,27,114,0
1,27,0,60
1,27,114,0
1,27,0,60
1,27,114,0
1,27,0,4
1,25,127,0
1,25,0,42
1,27,114,0
1,27,0,60
1,27,114,0
1,27,0,60
1,27,114,0
1,27,0,60
1,27,114,0
1,27,0,4
1,25,127,0
1,25,0,42
1,27,114,0
1,27,0,60
1,27,114,0
1,27,0,60
1,27,114,0
1,27,0,60
1,27,114,0
1,27,0,4
1,25,127,0
1,25,0,42
1,27,114,0
1,27,0,2
1,27,114,0
1,27,0,60
1,27,114,0
1,27,0,60
1,27,114,0
1,27,0,60
1,27,114,0
1,27,0,4
1,25,127,0
1,25,0,42
1,27,114,0
1,27,0,60
1,27,114,0
1,27,0,60
1,27,114,0
1,27,0,60
1,27,114,0
1,27,0,4
1,25,127,0
1,25,0,42
1,27,114,0
1,27,0,60
1,27,114,0
1,27,0,60
1,27,114,0
1,27,0,60
1,27,114,0
1,27,0,4
1,25,127,0
1,25,0,42
1,27,114,0
1,27,0,60
1,27,114,0
1,27,0,60
1,27,114,0
1,27,0,60
1,27,114,0
1,27,0,4
1,25,127,0
1,25,0,42
1,27,114,0
1,27,0,60
1,27,114,0
1,27,0,60
1,27,114,0
1,27,0,60
1,27,114,0
1,27,0,4
1,25,127,0
1,25,0,42
1,27,114,0
1,27,0,60
1,27,114,0
1,27,0,60
1,27,114,0
1,27,0,60
1,27,114,0
1,27,0,4
1,25,127,0
1,25,0,42
1,27,114,0
1,27,0,60
1,27,114,0
1,27,0,60
1,27,114,0
1,27,0,60
1,27,114,0
1,27,0,4
1,25,127,0
1,25,0,42
1,27,114,0
1,27,0,60
1,27,114,0
1,27,0,60
1,27,114,0
1,27,0,60
1,27,114,0
1,27,0,4
1,25,127,0
1,25,0,42
1,27,114,0
1,27,0,2
1,25,127,0
1,25,0,29
1,25,96,31
1,25,0,29
1,25,117,31
1,25,0,29
1,25,55,31
1,25,0,8
1,33,111,1
1,33,0,11
1,33,99,31
1,33,0,29
1,33,58,31
1,33,0,29
1,33,72,1
1,33,0,29
1,33,124,1
1,33,0,29
1,33,105,1
1,33,0,29
1,32,124,1
1,32,0,14
1,25,124,1
1,25,0,29
1,25,96,30
1,25,0,29
1,25,96,31
1,25,0,29
1,25,89,31
1,25,0,5
1,30,89,1
1,30,0,5
1,30,84,31
1,30,0,29
1,30,79,31
1,30,0,29
1,30,79,1
1,30,0,29
1,30,89,1
1,30,0,29
1,30,84,1
1,30,0,29
1,30,89,1
1,30,0,29
1,25,102,1
1,25,0,23
1,25,89,21
1,25,0,29
1,25,125,31
1,25,0,29
1,25,84,31
1,25,0,10
1,33,96,1
1,33,0,17
1,33,105,31
1,33,0,29
1,33,64,31
1,33,0,29
1,33,64,1
1,33,0,29
1,33,89,1
1,33,0,29
1,33,102,1
1,33,0,29
1,32,111,0
1,32,0,29
1,25,93,1
1,25,0,11
1,25,96,31
1,25,0,29
1,25,117,31
1,25,0,29
1,25,102,31
1,25,0,10
1,30,89,1
1,30,0,14
1,30,89,31
1,30,0,29
1,30,66,31
1,30,0,29
1,30,74,1
1,30,0,29
1,30,89,1
1,30,0,29
1,30,102,1
1,30,0,29
1,30,89,1
1,30,0,7
1,25,117,1
1,25,0,14
1,25,102,31
1,25,0,29
1,25,123,31
1,25,0,29
1,25,111,31
1,25,0,16
1,33,84,1
1,33,0,22
1,33,96,31
1,33,0,29
1,33,48,31
1,33,0,29
1,33,81,1
1,33,0,29
1,33,89,1
1,33,0,29
1,33,93,1
1,33,0,29
1,32,124,1
1,32,0,25
1,25,105,1
1,25,0,17
1,25,77,31
1,25,0,29
1,25,117,31
1,25,0,29
1,25,102,31
1,25,0,7
1,30,84,1
1,30,0,7
1,30,96,31
1,30,0,29
1,30,77,31
1,30,0,29
1,30,72,1
1,30,0,29
1,30,86,1
1,30,0,29
1,30,102,1
1,30,0,29
1,30,81,1
1,30,0,4
1,25,96,1
1,25,0,11
1,25,102,31
1,25,0,29
1,25,105,31
1,25,0,29
1,25,99,31
1,25,0,10
1,33,102,1
1,33,0,16
1,33,74,31
1,33,0,29
1,33,48,31
1,33,0,29
1,33,77,1
1,33,0,29
1,33,69,1
1,33,0,29
1,33,81,1
1,33,0,1
1,32,102,1
1,32,0,29
1,25,117,1
1,25,0,25
1,25,89,31
1,25,0,29
1,25,117,31
1,25,0,29
1,25,102,31
1,25,0,9
1,30,84,1
1,30,0,19
1,30,84,31
1,30,0,29
1,30,66,1
1,30,0,29
1,30,77,1
1,30,0,29
1,30,66,1
1,30,0,29
1,30,66,1
1,30,0,29
1,27,114,0
1,27,0,60
1,27,114,0
1,27,0,60
1,27,114,0
1,27,0,60
1,27,114,0
1,27,0,4
1,25,127,0
1,25,0,42
1,27,114,0
1,27,0,60
1,27,114,0
1,27,0,60
1,27,114,0
1,27,0,60
1,27,114,0
1,27,0,4
1,25,127,0
1,25,0,42
1,27,114,0
1,27,0,60
1,27,114,0
1,27,0,60
1,27,114,0
1,27,0,60
1,27,114,0
1,27,0,4
1,25,127,0
1,25,0,42
1,27,114,0
1,27,0,60
1,27,114,0
1,27,0,60
1,27,114,0
1,27,0,60
1,27,114,0
1,27,0,4
1,25,127,0
1,25,0,42
1,27,114,0
1,27,0,60
1,27,114,0
1,27,0,60
1,27,114,0
1,27,0,60
1,27,114,0
1,27,0,4
1,25,127,0
1,25,0,42
1,27,114,0
1,27,0,60
1,27,114,0
1,27,0,60
1,27,114,0
1,27,0,60
1,27,114,0
1,27,0,4
1,25,127,0
1,25,0,42
1,27,114,0
1,27,0,2
1,25,117,0
1,25,0,29
1,25,74,31
1,25,0,29
1,25,127,31
1,25,0,60
1,33,127,30
1,33,0,29
1,33,127,31
1,33,0,29
1,33,102,1
1,33,0,29
1,33,108,1
1,33,0,29
1,33,102,1
1,33,0,29
1,33,123,1
1,33,0,4
1,32,102,1
1,32,0,29
1,25,124,1
1,25,0,29
1,25,120,12
1,25,0,29
1,25,127,31
1,25,0,60
1,30,96,26
1,30,0,16
1,30,124,31
1,30,0,29
1,30,84,31
1,30,0,29
1,30,79,1
1,30,0,29
1,30,84,1
1,30,0,29
1,30,84,1
1,30,0,29
1,30,81,1
1,30,0,10
1,25,127,1
1,25,0,29
1,25,117,15
1,25,0,29
1,25,127,31
1,25,0,29
1,33,123,17
1,33,0,10
1,33,123,31
1,33,0,29
1,33,84,31
1,33,0,29
1,33,93,1
1,33,0,29
1,33,99,1
1,33,0,29
1,33,114,1
1,33,0,1
1,32,89,1
1,32,0,29
1,25,127,1
1,25,0,13
1,25,89,31
1,25,0,29
1,25,126,31
1,25,0,60
1,30,111,26
1,30,0,16
1,30,111,31
1,30,0,29
1,30,111,31
1,30,0,29
1,30,81,1
1,30,0,29
1,30,84,1
1,30,0,29
1,30,89,1
1,30,0,29
1,30,74,1
1,30,0,19
1,25,93,1
1,25,0,19
1,25,108,31
1,25,0,29
1,25,127,31
1,25,0,60
1,33,123,23
1,33,0,22
1,33,66,31
1,33,0,29
1,33,66,31
1,33,0,29
1,33,84,1
1,33,0,29
1,33,96,1
1,33,0,29
1,33,96,1
1,33,0,7
1,32,96,1
1,32,0,29
1,25,124,1
1,25,0,4
1,25,102,31
1,25,0,29
1,25,126,31
1,25,0,60
1,30,77,25
1,30,0,16
1,30,99,31
1,30,0,29
1,30,72,31
1,30,0,29
1,30,89,1
1,30,0,29
1,30,74,1
1,30,0,29
1,30,84,1
1,30,0,29
1,30,84,1
1,30,0,12
1,25,124,1
1,25,0,4
1,25,91,31
1,25,0,29
1,25,102,31
1,25,0,60
1,33,117,22
1,33,0,16
1,33,77,31
1,33,0,29
1,33,39,31
1,33,0,29
1,33,77,1
1,33,0,29
1,33,96,1
1,33,0,29
1,33,99,1
1,33,0,29
1,32,124,1
1,32,0,18
1,25,127,1
1,25,0,16
1,25,108,31
1,25,0,29
1,25,127,31
1,25,0,60
1,30,124,28
1,30,0,21
1,30,96,31
1,30,0,29
1,30,89,31
1,30,0,29
1,30,93,1
1,30,0,29
1,30,84,1
1,30,0,29
1,30,84,1
1,30,0,29
1,30,74,1
1,30,0,24
1,25,114,1
1,25,0,22
1,25,108,31
1,25,0,29
1,25,127,31
1,25,0,60
1,33,72,22
1,33,0,15
1,33,105,31
1,33,0,29
1,33,77,31
1,33,0,29
1,33,86,1
1,33,0,29
1,33,93,1
1,33,0,29
1,33,72,1
1,33,0,3
1,32,77,1
1,32,0,29
1,25,105,1
1,25,0,18
1,25,86,31
1,25,0,29
1,25,86,31
1,25,0,29
1,30,105,24
1,30,0,24
1,30,89,31
1,30,0,29
1,30,72,31
1,30,0,29
1,30,79,1
1,30,0,29
1,30,64,1
1,30,0,29
1,30,74,1
1,30,0,29
1,30,102,1
1,30,0,12
1,25,111,1
1,25,0,9
1,25,96,31
1,25,0,29
1,25,117,31
1,25,0,29
1,33,93,24
1,33,0,18
1,33,96,31
1,33,0,29
1,33,72,31
1,33,0,29
1,33,102,1
1,33,0,29
1,33,102,1
1,33,0,29
1,33,86,1
1,33,0,29
1,32,86,1
1,32,0,24
1,25,117,1
1,25,0,18
1,25,102,31
1,25,0,29
1,25,117,31
1,25,0,6
1,30,96,30
1,30,0,27
1,30,102,31
1,30,0,29
1,30,64,31
1,30,0,29
1,30,72,1
1,30,0,29
1,30,69,1
1,30,0,29
1,30,74,1
1,30,0,29
1,30,84,1
1,30,0,21
1,25,117,1
1,25,0,21
1,25,111,31
1,25,0,29
1,25,102,31
1,25,0,29
1,33,96,24
1,33,0,11
1,33,111,31
1,33,0,29
1,33,66,31
1,33,0,29
1,33,77,1
1,33,0,29
1,33,89,1
1,33,0,29
1,33,64,1
1,33,0,29
1,32,96,1
1,32,0,29
1,25,117,1
1,25,0,24
1,25,86,31
1,25,0,29
1,25,114,31
1,25,0,29
1,30,120,33
1,30,0,17
1,30,74,31
1,30,0,29
1,30,89,31
1,30,0,29
1,30,77,1
1,30,0,29
1,30,66,1
1,30,0,29
1,30,84,1
1,30,0,29
1,30,72,1
1,30,0,2
1,25,108,1
1,25,0,3
1,25,86,31
1,25,0,29
1,25,120,31
1,25,0,29
1,33,108,38
1,33,0,29
1,33,66,31
1,33,0,29
1,33,77,31
1,33,0,29
1,33,74,1
1,33,0,29
1,33,77,1
1,33,0,29
1,33,91,1
1,33,0,8
1,32,84,1
1,32,0,29
1,25,105,1
1,25,0,26
1,25,93,31
1,25,0,29
1,25,86,31
1,25,0,6
1,30,114,30
1,30,0,29
1,30,96,31
1,30,0,29
1,30,61,31
1,30,0,29
1,30,74,1
1,30,0,29
1,30,74,1
1,30,0,29
1,30,66,1
1,30,0,29
1,30,72,1
1,30,0,20
1,25,93,1
1,25,0,23
1,25,96,31
1,25,0,29
1,25,93,31
1,25,0,29
1,33,89,3
1,33,0,29
1,33,102,31
1,33,0,29
1,33,51,31
1,33,0,29
1,33,77,1
1,33,0,29
1,33,69,1
1,33,0,29
1,33,74,1
1,33,0,2
1,32,79,1
1,32,0,29
1,25,124,1
1,25,0,23
1,25,86,31
1,25,0,29
1,25,125,31
1,25,0,29
1,30,77,32
1,30,0,26
1,30,96,31
1,30,0,29
1,30,89,31
1,30,0,29
1,30,74,1
1,30,0,29
1,30,69,1
1,30,0,29
1,30,74,1
1,30,0,29
1,30,77,1
1,30,0,20
1,25,114,1
1,25,0,20
1,25,81,31
1,25,0,29
1,25,117,31
1,25,0,29
1,33,86,32
1,33,0,23
1,33,93,31
1,33,0,29
1,33,64,31
1,33,0,29
1,33,58,1
1,33,0,29
1,33,64,1
1,33,0,29
1,33,86,1
1,33,0,29
1,32,96,1
1,32,0,29
1,25,117,1
1,25,0,26
1,25,84,31
1,25,0,29
1,25,120,31
1,25,0,29
1,30,102,35
1,30,0,28
1,30,111,31
1,30,0,29
1,30,86,31
1,30,0,29
1,30,84,1
1,30,0,29
1,30,79,1
1,30,0,29
1,30,72,1
1,30,0,29
1,30,72,1
1,30,0,25
1,25,111,1
1,25,0,26
1,25,89,31
1,25,0,29
1,25,124,31
1,25,0,60
1,33,86,23
1,33,0,25
1,33,84,31
1,33,0,29
1,33,72,1
1,33,0,29
1,33,74,31
1,33,0,29
1,33,89,1
1,33,0,29
1,33,77,1
1,33,0,4
1,32,79,1
1,32,0,1
1,25,93,1
1,25,0,29
1,25,89,31
1,25,0,29
1,25,93,31
1,25,0,1
1,30,79,30
1,30,0,16
1,30,111,31
1,30,0,29
1,30,74,31
1,30,0,29
1,30,79,1
1,30,0,29
1,30,64,1
1,30,0,29
1,30,69,1
1,30,0,29
1,30,77,1
1,30,0,22
1,25,84,1
1,25,0,22
1,25,89,31
1,25,0,29
1,25,125,31
1,25,0,8
1,33,89,30
1,33,0,28
1,33,69,31
1,33,0,29
1,33,51,31
1,33,0,29
1,33,72,1
1,33,0,29
1,33,96,1
1,33,0,29
1,33,89,1
1,33,0,29
1,32,96,1
1,32,0,25
1,25,96,1
1,25,0,25
1,25,93,31
1,25,0,29
1,25,127,31
1,25,0,4
1,30,84,30
1,30,0,28
1,30,72,31
1,30,0,29
1,30,51,31
1,30,0,29
1,30,74,1
1,30,0,29
1,30,61,1
1,30,0,29
1,30,64,1
1,30,0,29
1,30,64,1
1,30,0,1
1,25,120,1
1,25,0,540
2,44,111,263
2,49,96,0
2,49,0,60
2,44,0,0
2,48,117,0
2,53,120,0
2,53,0,60
2,48,0,0
2,44,79,120
2,49,84,0
2,49,0,60
2,44,0,0
2,53,111,0
2,48,117,0
2,48,0,60
2,53,0,0
2,44,89,120
2,49,86,0
2,49,0,60
2,44,0,0
2,48,89,0
2,53,127,0
2,53,0,60
2,48,0,0
2,49,89,120
2,44,74,0
2,44,0,60
2,49,0,0
2,48,105,0
2,53,124,0
2,53,0,60
2,48,0,0
2,49,64,0
2,44,66,0
2,44,0,29
2,49,0,0
2,44,93,1
2,49,89,0
2,49,0,29
2,44,0,0
2,56,102,1
2,49,96,0
2,49,0,60
2,56,0,0
2,49,89,0
2,44,77,0
2,44,0,60
2,49,0,0
2,48,117,0
2,53,120,0
2,53,0,60
2,48,0,0
2,44,79,120
2,49,84,0
2,49,0,60
2,44,0,0
2,53,111,0
2,48,117,0
2,48,0,60
2,53,0,0
2,44,89,120
2,49,86,0
2,49,0,60
2,44,0,0
2,48,89,0
2,53,127,0
2,53,0,60
2,48,0,0
2,49,89,120
2,44,74,0
2,44,0,60
2,49,0,0
2,48,105,0
2,53,124,0
2,53,0,60
2,48,0,0
2,49,64,0
2,44,66,0
2,44,0,29
2,49,0,0
2,44,93,1
2,49,89,0
2,49,0,29
2,44,0,0
2,56,102,1
2,49,96,0
2,49,0,60
2,56,0,0
2,49,89,0
2,44,77,0
2,44,0,60
2,49,0,0
2,48,117,0
2,53,120,0
2,53,0,60
2,48,0,0
2,44,79,120
2,49,84,0
