track,note,velocity,time
2,67,96,0
2,67,96,0
2,74,96,0
2,66,96,240
2,67,96,0
2,67,96,120
2,67,96,0
2,74,96,0
2,66,96,240
2,67,96,0
2,71,96,360
2,67,96,0
2,66,96,0
2,66,96,240
2,67,96,0
2,64,96,0
2,64,96,0
2,62,96,120
2,64,96,0
2,67,96,1560
2,67,96,0
2,74,96,0
2,66,96,240
2,67,96,0
2,67,96,120
2,67,96,0
2,74,96,0
2,66,96,240
2,67,96,0
2,71,96,360
2,67,96,0
2,66,96,0
2,66,96,240
2,67,96,0
2,64,96,0
2,64,96,0
2,62,96,120
2,64,96,0
2,79,96,720
2,78,96,0
2,79,96,0
2,78,96,0
2,79,96,0
2,78,96,0
2,79,96,0
2,78,96,0
2,79,96,0
2,78,96,0
2,79,96,0
2,78,96,0
2,79,96,0
2,78,96,0
2,78,96,0
2,74,96,0
2,74,96,0
2,76,96,0
2,71,96,0
2,73,96,0
2,73,96,0
2,73,96,0
2,74,96,0
2,73,96,0
2,73,96,120
2,71,96,120
2,71,96,120
2,76,96,0
2,71,96,0
2,73,96,0
2,73,96,0
2,73,96,0
2,74,96,0
2,73,96,0
2,73,96,120
2,71,96,120
2,71,96,120
2,76,96,0
2,71,96,0
2,73,96,0
2,73,96,0
2,73,96,0
2,74,96,0
2,73,96,0
2,73,96,120
2,71,96,120
2,71,96,120
2,76,96,0
2,71,96,0
2,73,96,60
2,73,96,60
2,73,96,0
2,73,96,0
2,74,96,0
2,73,96,0
2,72,96,120
2,72,96,0
2,67,96,0
2,67,96,1560
2,67,96,0
2,74,96,0
2,66,96,240
2,67,96,0
2,67,96,120
2,67,96,0
2,74,96,0
2,66,96,240
2,67,96,0
2,71,96,360
2,67,96,0
2,66,96,0
2,66,96,240
2,67,96,0
2,64,96,0
2,64,96,0
2,62,96,120
2,64,96,0
2,67,96,1560
2,67,96,0
2,74,96,0
2,74,96,0
2,66,96,240
2,67,96,0
2,67,96,120
2,67,96,0
2,74,96,0
2,66,96,240
2,67,96,0
2,71,96,360
2,67,96,0
2,66,96,0
2,66,96,0
2,66,96,0
2,66,96,0
2,67,96,0
2,64,96,0
2,64,96,0
2,62,96,120
2,64,96,0
2,79,96,720
2,78,96,0
2,79,96,0
2,78,96,0
2,79,96,0
2,78,96,0
2,79,96,0
2,78,96,0
2,79,96,0
2,78,96,0
2,79,96,0
2,78,96,0
2,79,96,0
2,78,96,0
2,78,96,0
2,78,96,0
2,74,96,0
2,74,96,0
2,76,96,0
2,71,96,0
2,73,96,0
2,73,96,0
2,73,96,0
2,74,96,0
2,73,96,0
2,73,96,120
2,71,96,120
2,71,96,120
2,76,96,0
2,71,96,0
2,73,96,0
2,73,96,0
2,73,96,0
2,73,96,0
2,74,96,0
2,73,96,0
2,73,96,120
2,71,96,120
2,71,96,120
2,76,96,0
2,71,96,0
2,73,96,0
2,73,96,0
2,73,96,0
2,74,96,0
2,73,96,0
2,73,96,120
2,71,96,120
2,71,96,120
2,76,96,0
2,71,96,0
2,73,96,0
2,73,96,0
2,73,96,0
2,74,96,0
2,73,96,0
2,72,96,120
2,72,96,0
2,72,96,0
2,72,96,0
2,72,96,0
2,72,96,0
2,74,96,0
2,74,96,0
2,67,96,10680
2,67,96,0
2,74,96,0
2,66,96,240
2,67,96,0
2,67,96,120
2,67,96,0
2,74,96,0
2,75,96,240
2,76,96,0
2,71,96,0
2,67,96,0
2,71,96,200
2,67,96,0
2,66,96,0
2,66,96,0
2,66,96,0
2,66,96,0
2,67,96,0
2,64,96,0
2,64,96,0
2,62,96,120
2,64,96,0
2,79,96,720
2,78,96,0
2,79,96,0
2,78,96,0
2,79,96,0
2,78,96,0
2,79,96,0
2,78,96,0
2,79,96,0
2,78,96,0
2,79,96,0
2,78,96,0
2,79,96,0
2,78,96,0
2,78,96,0
2,78,96,0
2,74,96,0
2,74,96,0
2,76,96,0
2,71,96,0
2,73,96,0
2,73,96,0
2,73,96,0
2,74,96,0
2,73,96,0
2,73,96,120
2,71,96,120
2,71,96,120
2,76,96,0
2,71,96,0
2,73,96,0
2,73,96,0
2,73,96,0
2,73,96,0
2,74,96,0
2,73,96,0
2,73,96,120
2,71,96,120
2,71,96,120
2,76,96,0
2,71,96,0
2,73,96,0
2,73,96,240
2,73,96,0
2,74,96,0
2,73,96,0
2,73,96,120
2,71,96,120
2,71,96,120
2,76,96,0
2,71,96,0
2,73,96,0
2,73,96,0
2,73,96,0
2,73,96,0
2,74,96,0
2,73,96,0
2,73,96,120
2,71,96,120
2,71,96,120
2,69,96,120
2,76,96,0
2,71,96,0
2,76,96,0
2,71,96,0
2,76,96,1440
2,73,96,0
2,76,96,0
2,76,96,360
2,74,96,0
2,76,96,0
2,71,96,0
2,76,96,0
2,73,96,0
2,69,96,0
2,69,96,0
2,67,96,0
2,76,96,240
2,73,96,0
2,76,96,0
2,76,96,240
2,74,96,0
2,76,96,0
2,71,96,0
2,69,96,0
2,73,96,0
2,69,96,0
2,67,96,0
2,67,96,0
3,71,96,0
3,72,96,0
3,71,96,0
3,69,96,0
3,71,96,0
3,67,96,0
3,62,96,0
3,71,96,0
3,67,96,0
3,62,96,0
3,71,96,120
3,67,96,0
3,62,96,0
3,71,96,120
3,67,96,0
3,62,96,0
3,74,96,0
3,69,96,0
3,66,96,0
3,62,96,0
3,79,96,120
3,74,96,0
3,69,96,0
3,66,96,0
3,62,96,0
3,74,96,120
3,69,96,0
3,66,96,0
3,62,96,0
3,62,96,240
3,67,96,0
3,71,96,0
3,62,96,0
3,67,96,0
3,71,96,0
3,62,96,120
3,67,96,0
3,71,96,0
3,62,96,120
3,67,96,0
3,71,96,0
3,62,96,0
3,66,96,0
3,69,96,0
3,74,96,0
3,62,96,120
3,66,96,0
3,69,96,0
3,74,96,0
3,79,96,0
3,62,96,120
3,66,96,0
3,69,96,0
3,74,96,0
3,71,96,240
3,67,96,0
3,64,96,0
3,59,96,0
3,79,96,0
3,71,96,0
3,76,96,0
3,71,96,120
3,67,96,0
3,64,96,0
3,59,96,0
3,71,96,120
3,67,96,0
3,64,96,0
3,59,96,0
3,66,96,0
3,71,96,0
3,62,96,0
3,59,96,0
3,74,96,0
3,71,96,0
3,66,96,0
3,71,96,120
3,66,96,0
3,62,96,0
3,59,96,0
3,71,96,120
3,59,96,0
3,66,96,0
3,62,96,0
3,60,96,0
3,72,96,0
3,67,96,0
3,62,96,0
3,71,96,480
3,72,96,0
3,71,96,0
3,69,96,0
3,62,96,0
3,67,96,0
3,71,96,0
3,62,96,0
3,67,96,0
3,71,96,0
3,62,96,120
3,67,96,0
3,71,96,0
3,62,96,120
3,67,96,0
3,71,96,0
3,62,96,0
3,66,96,0
3,69,96,0
3,74,96,0
3,62,96,120
3,66,96,0
3,69,96,0
3,74,96,0
3,79,96,0
3,62,96,120
3,66,96,0
3,69,96,0
3,74,96,0
3,62,96,240
3,67,96,0
3,71,96,0
3,62,96,0
3,67,96,0
3,71,96,0
3,62,96,120
3,67,96,0
3,71,96,0
3,62,96,120
3,67,96,0
3,71,96,0
3,62,96,0
3,66,96,0
3,69,96,0
3,74,96,0
3,62,96,120
3,66,96,0
3,69,96,0
3,74,96,0
3,79,96,0
3,62,96,120
3,66,96,0
3,69,96,0
3,74,96,0
3,59,96,240
3,64,96,0
3,67,96,0
3,71,96,0
3,76,96,0
3,71,96,0
3,79,96,0
3,59,96,120
3,64,96,0
3,67,96,0
3,71,96,0
3,59,96,120
3,64,96,0
3,67,96,0
3,71,96,0
3,59,96,0
3,62,96,0
3,71,96,0
3,66,96,0
3,66,96,0
3,71,96,0
3,74,96,0
3,59,96,120
3,62,96,0
3,66,96,0
3,71,96,0
3,62,96,120
3,66,96,0
3,59,96,0
3,71,96,0
3,72,96,0
3,67,96,0
3,60,96,0
3,62,96,0
3,62,96,0
3,67,96,0
3,60,96,0
3,72,96,0
3,69,96,480
3,62,96,0
3,69,96,0
3,62,96,0
3,69,96,0
3,62,96,0
3,69,96,0
3,62,96,0
3,69,96,0
3,64,96,0
3,69,96,0
3,64,96,0
3,69,96,0
3,64,96,0
3,69,96,0
3,64,96,0
3,69,96,0
3,66,96,0
3,69,96,0
3,66,96,0
3,69,96,0
3,66,96,0
3,69,96,0
3,66,96,0
3,69,96,0
3,67,96,0
3,69,96,0
3,67,96,0
3,69,96,0
3,67,96,0
3,69,96,0
3,67,96,0
3,62,96,0
3,69,96,0
3,62,96,0
3,69,96,0
3,62,96,0
3,69,96,0
3,62,96,0
3,69,96,0
3,62,96,0
3,71,96,0
3,62,96,0
3,71,96,0
3,62,96,0
3,71,96,0
3,62,96,0
3,71,96,0
3,62,96,0
3,72,96,0
3,62,96,0
3,72,96,0
3,62,96,0
3,72,96,0
3,62,96,0
3,72,96,0
3,62,96,0
3,74,96,0
3,62,96,0
3,74,96,0
3,62,96,0
3,74,96,0
3,62,96,0
3,74,96,0
3,71,96,9600
3,67,96,0
3,62,96,0
3,71,96,0
3,67,96,0
3,62,96,0
3,71,96,120
3,67,96,0
3,62,96,0
3,71,96,120
3,67,96,0
3,62,96,0
3,74,96,0
3,69,96,0
3,66,96,0
3,62,96,0
3,79,96,120
3,74,96,0
3,69,96,0
3,66,96,0
3,62,96,0
3,74,96,120
3,69,96,0
3,66,96,0
3,62,96,0
3,71,96,240
3,67,96,0
3,62,96,0
3,71,96,0
3,67,96,0
3,62,96,0
3,71,96,120
3,67,96,0
3,62,96,0
3,71,96,120
3,67,96,0
3,62,96,0
3,74,96,0
3,69,96,0
3,66,96,0
3,62,96,0
3,79,96,120
3,74,96,0
3,69,96,0
3,66,96,0
3,62,96,0
3,74,96,120
3,69,96,0
3,66,96,0
3,62,96,0
3,71,96,240
3,67,96,0
3,64,96,0
3,59,96,0
3,79,96,0
3,71,96,0
3,76,96,0
3,71,96,120
3,67,96,0
3,64,96,0
3,59,96,0
3,71,96,120
3,67,96,0
3,64,96,0
3,59,96,0
3,66,96,0
3,71,96,0
3,62,96,0
3,59,96,0
3,74,96,0
3,71,96,0
3,66,96,0
3,71,96,120
3,66,96,0
3,62,96,0
3,59,96,0
3,71,96,120
3,59,96,0
3,66,96,0
3,62,96,0
3,62,96,0
3,60,96,0
3,67,96,0
3,72,96,0
3,62,96,960
3,67,96,0
3,71,96,0
3,62,96,0
3,67,96,0
3,71,96,0
3,62,96,120
3,67,96,0
3,71,96,0
3,62,96,120
3,67,96,0
3,71,96,0
3,62,96,0
3,66,96,0
3,69,96,0
3,74,96,0
3,62,96,120
3,66,96,0
3,69,96,0
3,74,96,0
3,79,96,0
3,62,96,120
3,66,96,0
3,69,96,0
3,74,96,0
3,62,96,240
3,67,96,0
3,71,96,0
3,62,96,0
3,67,96,0
3,71,96,0
3,62,96,120
3,67,96,0
3,71,96,0
3,62,96,120
3,67,96,0
3,71,96,0
3,62,96,0
3,66,96,0
3,69,96,0
3,74,96,0
3,62,96,120
3,66,96,0
3,69,96,0
3,74,96,0
3,79,96,0
3,62,96,120
3,66,96,0
3,69,96,0
3,74,96,0
3,64,96,240
3,67,96,0
3,71,96,0
3,59,96,0
3,76,96,0
3,71,96,0
3,79,96,0
3,59,96,120
3,64,96,0
3,67,96,0
3,71,96,0
3,59,96,120
3,64,96,0
3,67,96,0
3,71,96,0
3,59,96,0
3,62,96,0
3,71,96,0
3,66,96,0
3,66,96,0
3,71,96,0
3,74,96,0
3,59,96,120
3,62,96,0
3,66,96,0
3,71,96,0
3,62,96,120
3,66,96,0
3,59,96,0
3,71,96,0
3,72,96,0
3,67,96,0
3,60,96,0
3,62,96,0
3,72,96,0
3,60,96,0
3,67,96,0
3,62,96,0
3,69,96,480
3,62,96,0
3,69,96,0
3,62,96,0
3,69,96,0
3,62,96,0
3,69,96,0
3,62,96,0
3,69,96,0
3,64,96,0
3,69,96,0
3,64,96,0
3,69,96,0
3,64,96,0
3,69,96,0
3,64,96,0
3,69,96,0
3,66,96,0
3,69,96,0
3,66,96,0
3,69,96,0
3,66,96,0
3,69,96,0
3,66,96,0
3,69,96,0
3,67,96,0
3,69,96,0
3,67,96,0
3,69,96,0
3,67,96,0
3,69,96,0
3,67,96,0
3,62,96,0
3,69,96,0
3,62,96,0
3,69,96,0
3,62,96,0
3,69,96,0
3,62,96,0
3,69,96,0
3,62,96,0
3,71,96,0
3,62,96,0
3,71,96,0
3,62,96,0
3,71,96,0
3,62,96,0
3,71,96,0
3,62,96,0
3,72,96,0
3,62,96,0
3,72,96,0
3,62,96,0
3,72,96,0
3,62,96,0
3,72,96,0
3,62,96,0
3,74,96,0
3,62,96,0
3,74,96,0
3,62,96,0
3,74,96,0
3,62,96,0
3,74,96,0
3,71,96,11520
3,69,96,0
3,69,96,0
3,69,96,0
3,69,96,0
3,69,96,0
3,71,96,0
3,69,96,0
3,69,96,0
3,69,96,0
3,71,96,0
3,71,96,0
3,71,96,0
3,74,96,0
3,74,96,0
3,74,96,0
3,74,96,0
3,74,96,0
3,74,96,0
3,71,96,0
3,71,96,0
3,71,96,0
3,74,96,0
3,74,96,0
3,74,96,0
3,76,96,0
3,76,96,0
3,76,96,0
3,76,96,0
3,76,96,0
3,76,96,0
3,76,96,0
3,76,96,0
3,71,96,0
3,72,96,0
3,71,96,0
3,69,96,0
3,67,96,0
3,71,96,0
3,74,96,0
3,69,96,0
3,66,96,0
3,62,96,0
3,74,96,0
3,74,96,0
3,71,96,0
3,67,96,0
3,62,96,0
3,66,96,0
3,69,96,0
3,74,96,0
3,62,96,120
3,66,96,0
3,69,96,0
3,74,96,0
3,79,96,0
3,62,96,120
3,66,96,0
3,69,96,0
3,74,96,0
3,79,96,120
3,74,96,0
3,69,96,0
3,66,96,0
3,62,96,0
3,67,96,0
3,71,96,0
3,74,96,0
3,62,96,0
3,66,96,0
3,69,96,0
3,74,96,0
3,62,96,120
3,66,96,0
3,69,96,0
3,74,96,0
3,79,96,0
3,62,96,120
3,66,96,0
3,69,96,0
3,74,96,0
3,79,96,120
3,74,96,0
3,69,96,0
3,66,96,0
3,62,96,0
3,74,96,0
3,71,96,0
3,67,96,0
3,74,96,0
3,62,96,0
3,66,96,0
3,69,96,0
3,62,96,960
3,74,96,0
3,67,96,120
3,62,96,120
3,62,96,0
3,60,96,0
3,67,96,0
3,72,96,0
3,62,96,0
3,67,96,0
3,60,96,0
3,72,96,0
3,67,96,0
3,62,96,0
3,72,96,0
3,60,96,0
3,60,96,0
3,67,96,0
3,62,96,0
3,72,96,0
3,60,96,0
3,62,96,0
3,67,96,0
3,72,96,0
3,62,96,0
3,72,96,0
3,60,96,0
3,67,96,0
3,62,96,0
3,62,96,0
3,62,96,0
3,62,96,0
3,64,96,0
3,64,96,0
3,64,96,0
3,64,96,0
3,66,96,0
3,66,96,0
3,66,96,0
3,66,96,0
3,67,96,0
3,67,96,0
3,67,96,0
3,67,96,0
3,69,96,0
3,69,96,0
3,69,96,0
3,69,96,0
3,71,96,0
3,71,96,0
3,71,96,0
3,71,96,0
3,72,96,0
3,72,96,0
3,72,96,0
3,72,96,0
3,74,96,0
3,74,96,0
3,74,96,0
3,74,96,0
3,76,96,11520
3,71,96,0
3,67,96,0
3,64,96,0
3,64,96,0
3,67,96,0
3,71,96,0
3,76,96,0
3,64,96,0
3,67,96,0
3,71,96,0
3,76,96,0
3,76,96,0
3,71,96,0
3,67,96,0
3,64,96,0
3,64,96,0
3,67,96,0
3,71,96,0
3,76,96,0
3,76,96,0
3,71,96,0
3,67,96,0
3,64,96,0
3,76,96,0
3,71,96,0
3,67,96,0
3,64,96,0
3,64,96,0
3,67,96,0
3,71,96,0
3,76,96,0
3,69,96,0
3,73,96,0
3,76,96,0
3,69,96,0
3,73,96,0
3,76,96,0
3,69,96,0
3,73,96,0
3,76,96,0
3,69,96,0
3,73,96,0
3,76,96,0
3,69,96,0
3,73,96,0
3,76,96,0
3,69,96,0
3,73,96,0
3,76,96,0
3,69,96,0
3,73,96,0
3,76,96,0
3,69,96,0
