track,note,velocity,time
1,73,84,3084
1,70,86,4
1,54,93,0
1,42,78,4
1,66,83,0
1,73,80,76
1,54,95,12
1,70,78,0
1,66,74,4
1,42,86,32
1,70,38,40
1,66,36,8
1,53,78,16
1,72,89,4
1,41,82,8
1,53,78,76
1,72,83,0
1,73,78,44
1,70,83,0
1,46,32,36
1,65,86,316
1,58,88,124
1,46,88,124
1,65,78,8
1,44,101,92
1,56,75,0
1,72,86,12
1,68,83,0
1,68,86,96
1,56,103,8
1,72,93,0
1,49,90,264
1,73,89,0
1,61,98,0
1,68,93,0
1,65,93,0
1,49,66,216
1,61,84,0
1,73,85,12
1,68,79,8
1,65,64,4
1,73,88,272
1,68,86,8
1,61,96,0
1,49,94,0
1,73,86,72
1,77,90,268
1,73,88,292
1,68,80,0
1,44,98,80
1,56,90,0
1,72,93,8
1,72,92,88
1,75,93,56
1,68,94,12
1,68,88,72
1,72,94,4
1,53,98,132
1,41,94,0
1,72,89,368
1,68,84,8
1,65,87,0
1,72,81,120
1,65,82,8
1,70,92,204
1,72,69,56
1,65,54,0
1,73,78,92
1,66,80,20
1,42,92,168
1,54,102,8
1,77,84,56
1,44,86,124
1,56,85,8
1,72,90,0
1,68,86,8
1,75,94,4
1,73,90,0
1,61,94,320
1,49,96,0
1,68,96,8
1,73,89,60
1,68,49,8
1,77,93,216
1,68,86,0
1,73,93,48
1,68,92,4
1,56,87,344
1,44,98,0
1,72,94,352
1,75,92,356
1,72,92,20
1,41,87,356
1,53,100,0
1,68,89,128
1,72,94,0
1,72,94,120
1,70,79,200
1,72,90,120
1,70,86,72
1,73,90,4
1,42,92,144
1,54,98,8
1,77,90,412
1,44,92,132
1,75,86,4
1,56,93,0
1,68,94,0
1,73,85,24
1,49,93,92
1,61,96,4
1,68,93,8
1,73,77,40
1,77,94,400
1,73,92,328
1,44,87,236
1,56,87,8
1,68,75,120
1,72,92,4
1,68,86,60
1,75,92,4
1,72,93,336
1,41,81,304
1,53,103,8
1,72,97,168
1,72,96,160
1,68,81,68
1,72,93,144
1,73,92,80
1,70,81,8
1,42,86,132
1,54,87,4
1,77,86,400
1,44,100,128
1,56,92,4
1,75,90,8
1,73,82,428
1,42,97,176
1,54,102,4
1,73,86,356
1,66,89,0
1,70,89,0
1,49,64,0
1,44,87,96
1,56,98,4
1,72,94,0
1,68,87,0
1,68,87,32
1,72,93,8
1,56,100,76
1,73,80,88
1,70,78,8
1,46,81,120
1,58,103,4
1,58,101,48
1,77,92,4
1,70,87,4
1,51,100,16
1,73,2,44
1,56,101,12
1,72,86,0
1,44,102,4
1,75,89,0
1,68,98,0
1,73,77,0
1,49,81,136
1,68,86,0
1,73,90,0
1,61,103,0
1,68,86,24
1,73,90,216
1,49,87,52
1,68,87,256
1,49,76,100
1,73,83,20
1,49,89,72
1,68,80,12
1,73,92,184
1,61,94,8
1,75,70,336
1,77,83,196
1,42,82,8
1,54,100,0
1,70,85,268
1,73,90,4
1,72,92,104
1,68,92,4
1,44,89,4
1,56,101,0
1,68,85,28
1,72,93,0
1,73,86,160
1,70,72,0
1,46,82,132
1,58,93,8
1,77,86,452
1,44,95,16
1,56,98,8
1,68,92,8
1,72,79,0
1,75,87,4
1,73,80,84
1,49,93,104
1,61,93,8
1,73,86,4
1,68,89,4
1,68,83,160
1,73,89,184
1,68,82,164
1,73,90,180
1,56,80,16
1,68,88,0
1,73,79,172
1,61,84,12
1,75,69,356
1,77,87,0
1,42,92,332
1,73,94,0
1,70,92,4
1,54,101,0
1,72,94,140
1,68,82,0
1,44,98,0
1,56,96,4
1,75,87,4
1,46,79,132
1,58,93,4
1,73,88,0
1,70,81,0
1,77,92,0
1,42,85,116
1,73,87,4
1,54,92,0
1,78,88,0
1,70,93,0
1,77,73,0
1,75,81,172
1,68,79,56
1,72,92,8
1,44,77,140
1,56,86,4
1,77,90,32
1,46,92,108
1,70,81,8
1,58,88,0
1,77,92,0
1,73,87,0
1,77,92,32
1,73,93,84
1,63,87,232
1,51,90,0
1,70,90,0
1,75,89,4
1,67,93,0
1,70,71,56
1,44,89,356
1,56,101,4
1,68,96,4
1,49,92,312
1,61,103,8
1,73,93,4
1,73,90,88
1,68,78,112
1,77,96,196
1,73,90,4
1,44,87,324
1,56,95,12
1,72,94,148
1,68,80,4
1,75,93,372
1,72,94,352
1,41,82,204
1,53,89,0
1,68,74,76
1,72,96,12
1,72,94,204
1,70,80,80
1,72,79,48
1,70,78,116
1,73,79,16
1,54,95,128
1,42,93,4
1,77,84,404
1,44,90,20
1,56,98,20
1,75,92,4
1,68,92,0
1,73,86,8
1,49,81,264
1,68,84,8
1,61,92,4
1,73,93,336
1,77,93,356
1,73,94,284
1,44,96,80
1,56,97,0
1,68,78,316
1,72,92,0
1,75,97,368
1,72,95,380
1,53,98,292
1,41,96,16
1,68,85,268
1,72,94,8
1,68,74,48
1,72,96,4
1,70,84,120
1,72,83,4
1,70,80,68
1,73,83,4
1,42,93,184
1,54,97,4
1,77,83,396
1,44,89,68
1,56,102,0
1,75,89,4
1,68,89,4
1,73,82,372
1,49,92,60
1,61,93,0
1,68,87,408
1,77,87,364
1,73,80,292
1,44,92,312
1,56,97,4
1,68,80,248
1,72,92,4
1,75,72,364
1,72,87,136
1,53,96,284
1,41,89,0
1,68,85,264
1,72,95,4
1,72,95,48
1,68,51,16
1,70,80,140
1,72,79,140
1,70,70,40
1,73,87,16
1,42,82,140
1,54,100,16
1,77,87,360
1,44,90,20
1,56,103,12
1,75,86,24
1,73,80,344
1,42,92,256
1,54,102,12
1,73,89,244
1,70,80,0
1,44,86,112
1,56,96,4
1,68,86,8
1,72,94,0
1,73,87,32
1,70,78,8
1,46,76,84
1,58,95,4
1,77,92,424
1,68,76,72
1,44,95,8
1,56,86,4
1,75,86,8
1,73,90,4
1,73,93,28
1,61,86,4
1,49,93,0
1,68,83,380
1,73,86,196
1,68,86,312
1,49,88,72
1,61,90,4
1,73,93,8
1,68,85,164
1,73,85,168
1,75,86,404
1,77,84,180
1,54,98,260
1,42,100,8
1,73,89,292
1,44,83,76
1,56,101,0
1,72,94,8
1,68,87,12
1,72,87,60
1,68,81,12
1,73,81,0
1,70,84,4
1,46,89,156
1,58,93,0
1,77,87,400
1,44,98,16
1,56,94,12
1,68,85,0
1,75,88,0
1,73,86,384
1,49,86,100
1,61,96,4
1,73,98,4
1,68,79,360
1,56,74,180
1,73,92,0
1,68,92,292
1,73,78,192
1,68,80,212
1,73,87,208
1,75,82,416
1,77,87,0
1,42,92,212
1,54,93,8
1,73,94,0
1,70,88,0
1,75,84,160
1,56,94,0
1,72,90,0
1,44,90,4
1,68,82,4
1,73,82,128
1,58,93,0
1,46,87,0
1,77,89,0
1,70,84,0
1,42,94,160
1,78,98,8
1,54,100,0
1,70,81,8
1,77,81,8
1,75,83,172
1,68,77,116
1,77,68,64
1,44,80,84
1,56,96,4
1,46,81,176
1,58,88,4
1,73,66,0
1,77,89,4
1,70,77,4
1,42,92,172
1,54,92,4
1,73,93,4
1,70,86,0
1,73,82,60
1,70,62,4
1,72,87,56
1,75,83,0
1,44,72,92
1,56,84,0
1,73,70,268
1,73,42,24
1,70,81,80
1,73,94,0
1,58,96,0
1,46,93,0
1,77,86,240
1,70,64,4
1,75,32,20
1,78,80,148
1,71,80,4
1,47,87,4
1,59,94,0
1,77,63,16
1,75,87,60
1,78,100,1068
1,77,82,256
1,75,90,200
1,42,101,300
1,54,93,4
1,70,85,368
1,73,88,8
1,44,86,40
1,72,94,4
1,56,96,0
1,68,93,12
1,68,72,44
1,72,92,4
1,70,80,20
1,73,90,0
1,46,79,120
1,58,97,0
1,77,83,432
1,44,98,76
1,56,94,8
1,75,92,4
1,68,90,4
1,73,87,44
1,49,86,96
1,73,84,4
1,68,87,4
1,61,93,0
1,49,85,40
1,61,93,0
1,73,86,12
1,68,86,0
1,42,86,0
1,54,100,0
1,73,86,304
1,44,83,12
1,56,95,4
1,72,94,4
1,68,88,4
1,68,51,44
1,72,78,4
1,46,76,140
1,58,103,8
1,73,87,8
1,70,68,4
1,77,92,416
1,44,94,0
1,56,92,8
1,68,89,4
1,75,92,0
1,73,87,20
1,49,90,108
1,68,86,4
1,73,89,0
1,61,92,8
1,49,86,96
1,61,100,4
1,73,93,16
1,68,82,4
1,49,89,140
1,61,101,8
1,73,87,0
1,68,87,8
1,73,87,68
1,77,96,380
1,73,93,16
1,44,85,272
1,56,98,4
1,68,75,328
1,72,86,0
1,75,89,368
1,68,83,160
1,72,93,4
1,53,98,320
1,41,92,4
1,68,81,244
1,72,97,0
1,72,92,88
1,70,79,204
1,72,80,64
1,73,87,132
1,42,87,144
1,54,100,4
1,77,86,388
1,44,84,8
1,68,94,4
1,56,97,0
1,75,86,4
1,73,94,28
1,49,89,348
1,61,89,4
1,68,96,4
1,73,93,340
1,77,95,272
1,73,92,316
1,44,85,160
1,56,96,8
1,68,50,316
1,72,89,12
1,75,82,0
1,68,79,256
1,72,92,8
1,53,82,292
1,41,92,4
1,68,83,280
1,72,94,0
1,68,87,88
1,72,94,0
1,70,84,76
1,72,85,148
1,70,78,4
1,73,87,4
1,54,96,180
1,42,89,4
1,77,87,388
1,56,96,36
1,44,98,0
1,68,87,4
1,75,87,0
1,73,80,388
1,42,95,200
1,54,98,0
1,70,88,324
1,73,85,4
1,44,94,24
1,68,86,4
1,72,92,0
1,56,92,0
1,68,77,52
1,72,92,16
1,73,89,4
1,70,71,4
1,46,81,144
1,58,100,0
1,77,89,404
1,44,93,84
1,56,101,4
1,75,92,8
1,68,92,0
1,73,81,216
1,49,82,116
1,61,93,4
1,68,77,4
1,73,92,4
1,68,92,172
1,73,88,172
1,68,90,488
1,49,85,168
1,61,103,4
1,73,86,12
1,56,93,0
1,68,85,276
1,73,78,192
1,75,57,392
1,77,93,140
1,42,92,196
1,54,105,4
1,73,89,196
1,44,86,36
1,56,97,0
1,72,86,12
1,72,93,60
1,70,78,84
1,73,87,4
1,46,81,136
1,58,96,0
1,77,89,412
1,56,100,12
1,68,79,4
1,44,85,0
1,75,83,0
1,73,88,40
1,49,86,104
1,61,89,8
1,73,90,8
1,68,71,364
1,56,67,184
1,73,90,0
1,68,88,476
1,61,86,132
1,49,81,4
1,73,92,4
1,68,86,248
1,73,86,152
1,75,82,392
1,77,88,164
1,42,80,296
1,73,94,4
1,54,93,0
1,70,94,0
1,44,92,140
1,56,94,4
1,72,79,8
1,75,86,12
1,46,76,60
1,58,103,4
1,70,85,4
1,73,86,0
1,77,94,4
1,42,81,20
1,54,92,12
1,78,80,8
1,70,81,8
1,77,86,188
1,75,73,0
1,77,93,40
1,56,89,148
1,44,85,4
1,75,94,384
1,77,89,8
1,46,87,4
1,58,93,0
1,73,79,0
1,70,80,8
1,77,89,40
1,73,87,4
1,42,85,124
1,54,92,4
1,73,90,4
1,70,85,0
1,73,82,88
1,70,58,20
1,75,86,68
1,44,81,124
1,56,89,4
1,73,87,240
1,73,88,40
1,46,81,108
1,58,95,8
1,77,94,1140
1,59,93,60
1,47,92,0
1,78,87,0
1,77,77,132
1,75,96,124
1,78,93,940
1,77,118,0
1,75,97,348
1,39,93,340
1,63,86,4
1,51,88,0
1,65,89,32
1,41,76,4
1,63,92,44
1,39,98,4
1,65,85,112
1,64,86,44
1,40,87,4
1,39,102,32
1,63,89,4
1,41,85,4
1,65,87,4
1,63,81,252
1,39,86,4
1,41,86,0
1,65,85,4
1,40,87,4
1,64,87,12
1,39,87,0
1,63,88,4
1,41,85,4
1,65,96,0
1,39,86,304
1,63,87,4
1,41,81,12
1,65,83,4
1,40,92,0
1,64,71,0
1,39,89,68
1,63,89,8
1,41,89,12
1,65,92,12
1,39,83,268
1,63,84,4
1,65,87,232
1,41,86,0
1,40,89,4
1,64,80,0
1,49,89,500
1,73,90,8
1,61,87,0
1,68,94,4
1,73,90,64
1,68,68,196
1,77,87,104
1,73,90,52
1,44,93,288
1,56,92,0
1,68,71,412
1,72,93,0
1,75,84,384
1,72,92,0
1,53,101,256
1,41,85,4
1,72,93,380
1,72,94,196
1,70,78,204
1,72,81,92
1,73,75,0
1,42,80,156
1,54,97,0
1,77,85,424
1,44,88,84
1,56,93,12
1,75,89,4
1,68,83,8
1,73,83,20
1,49,92,288
1,61,98,0
1,68,90,8
1,73,88,360
1,77,90,300
1,73,86,356
1,44,89,280
1,56,88,4
1,68,76,364
1,72,86,4
1,75,87,384
1,68,80,184
1,72,93,0
1,41,92,308
1,53,94,0
1,72,97,340
1,72,94,184
1,70,78,204
1,72,66,40
1,73,86,124
1,42,86,128
1,54,93,0
1,77,87,420
1,56,96,20
1,44,93,0
1,75,83,8
1,68,89,0
1,68,86,92
1,73,79,4
1,42,92,32
1,54,106,4
1,70,87,256
1,73,92,8
1,44,83,116
1,56,103,4
1,68,87,8
1,72,88,0
1,68,80,44
1,72,92,4
1,73,90,32
1,70,77,0
1,46,82,112
1,58,96,0
1,77,86,428
1,73,5,40
1,44,98,116
1,56,92,0
1,68,89,12
1,75,81,4
1,73,81,200
1,49,88,208
1,61,92,4
1,73,89,4
1,68,82,400
1,56,71,196
1,73,87,0
1,68,67,364
1,73,93,180
1,68,95,192
1,73,68,160
1,75,79,392
1,77,87,28
1,42,86,300
1,54,96,12
1,73,88,308
1,70,55,12
1,44,85,112
1,56,96,4
1,68,87,8
1,72,92,8
1,72,85,92
1,70,81,0
1,73,87,0
1,46,79,172
1,58,93,8
1,77,88,76
1,70,78,4
1,44,88,60
1,56,89,4
1,68,86,0
1,75,87,8
1,73,92,236
1,73,89,228
1,68,80,4
1,61,86,0
1,49,88,0
1,68,86,124
1,73,83,180
1,68,94,440
1,73,87,152
1,56,88,152
1,68,89,296
1,73,73,212
1,75,54,400
1,77,87,20
1,42,85,316
1,73,92,0
1,54,97,0
1,70,87,0
1,44,96,200
1,56,90,4
1,68,78,4
1,72,93,4
1,75,76,4
1,73,71,144
1,77,94,4
1,58,97,0
1,70,74,8
1,46,88,0
1,42,89,184
1,54,88,4
1,78,77,0
1,73,85,0
1,70,86,8
1,77,43,16
1,75,86,36
1,75,81,0
1,44,58,164
1,56,82,4
1,77,78,364
1,46,86,188
1,58,86,4
1,77,87,4
1,70,78,4
1,73,82,0
1,54,53,32
1,42,81,232
1,73,90,4
1,54,94,0
1,70,86,8
1,73,86,72
1,70,68,8
1,75,92,0
1,44,72,152
1,56,92,0
1,73,69,216
1,72,86,148
1,73,86,88
1,46,78,124
1,58,92,4
1,77,88,1180
1,73,2,132
1,78,68,68
1,47,90,0
1,59,88,0
1,71,72,12
1,77,80,8
1,75,68,0
1,78,81,988
1,77,92,124
1,75,89,368
1,42,89,8
1,54,89,0
1,70,87,8
1,73,94,4
1,44,93,156
1,56,86,0
1,68,86,8
1,72,94,0
1,73,86,96
1,58,89,0
1,46,83,4
1,70,83,0
1,77,80,524
1,44,87,8
1,56,83,0
1,75,73,8
1,68,80,0
1,73,68,0
1,73,81,44
1,49,86,8
1,61,89,0
1,68,84,12
1,49,93,16
1,68,87,44
1,61,102,8
1,73,75,40
2,42,120,3072
2,42,115,112
2,41,115,116
2,46,123,176
2,44,123,192
2,49,118,276
2,49,118,204
2,49,120,184
2,44,123,204
2,41,113,232
2,42,118,212
2,44,123,232
2,49,120,296
2,44,120,176
2,41,110,264
2,42,120,200
2,44,118,196
2,49,120,264
2,44,118,244
2,41,113,312
2,42,115,260
2,44,123,208
2,44,123,180
2,42,123,192
2,44,123,168
2,46,117,104
2,44,120,144
2,49,118,284
2,49,117,144
2,53,108,140
2,42,123,324
2,44,125,152
2,46,123,128
2,44,123,160
2,49,117,308
2,49,115,224
2,53,110,408
2,49,118,292
2,42,123,260
2,44,125,232
2,46,120,156
2,46,103,84
2,46,120,244
2,46,115,124
2,42,123,276
2,44,118,252
2,46,120,164
2,46,110,88
2,39,123,268
2,44,125,348
2,49,120,320
2,44,123,240
2,41,110,240
2,42,120,320
2,44,120,228
