track,note,velocity,time
1,52,44,0
1,59,44,0
1,66,44,0
1,56,44,0
1,47,44,0
1,40,44,0
1,40,0,42
1,59,0,0
1,66,0,0
1,52,0,0
1,47,0,0
1,56,0,0
1,59,1,2
1,52,1,0
1,56,1,0
1,56,0,61
1,52,0,0
1,59,0,0
1,40,44,2
1,56,44,0
1,52,44,0
1,59,44,0
1,47,44,0
1,66,44,0
1,66,0,118
1,56,0,0
1,52,0,0
1,40,0,0
1,47,0,0
1,59,0,0
1,52,44,2
1,59,44,0
1,66,44,0
1,47,44,0
1,56,44,0
1,40,44,0
1,40,0,12
1,59,0,0
1,66,0,0
1,52,0,0
1,56,0,0
1,47,0,0
1,47,44,0
1,59,44,0
1,52,44,0
1,40,44,0
1,56,44,0
1,56,1,6
1,59,1,0
1,52,1,0
1,52,0,8
1,47,0,0
1,56,0,0
1,59,0,0
1,52,0,0
1,40,0,0
1,56,0,0
1,59,0,0
1,56,1,0
1,52,1,0
1,59,1,0
1,59,0,18
1,52,0,0
1,56,0,0
1,61,44,0
1,59,44,0
1,54,44,0
1,66,44,0
1,47,44,0
1,47,0,8
1,54,0,0
1,61,0,0
1,59,0,0
1,66,0,0
1,61,1,0
1,54,1,0
1,59,1,0
1,59,0,8
1,54,0,0
1,61,0,0
1,59,44,0
1,61,44,0
1,47,44,0
1,54,44,0
1,54,0,8
1,59,0,0
1,61,0,0
1,47,0,0
1,54,44,2
1,59,44,0
1,59,44,0
1,66,44,0
1,47,44,0
1,47,44,0
1,61,44,0
1,61,0,8
1,47,0,0
1,59,0,0
1,59,0,0
1,54,0,0
1,47,0,0
1,66,0,0
1,47,44,0
1,59,44,0
1,61,44,0
1,47,44,0
1,54,44,0
1,59,44,0
1,59,0,8
1,59,0,0
1,61,0,0
1,47,0,0
1,54,0,0
1,47,0,0
1,59,1,0
1,44,44,0
1,54,1,0
1,61,1,0
1,61,0,8
1,54,0,0
1,59,0,0
1,61,1,0
1,59,1,0
1,54,1,0
1,54,0,8
1,44,0,0
1,61,0,0
1,59,0,0
1,61,44,0
1,66,44,0
1,49,44,0
1,54,44,0
1,42,44,0
1,58,44,0
1,58,0,18
1,66,0,0
1,49,0,0
1,61,0,0
1,42,0,0
1,54,0,0
1,54,1,2
1,61,1,0
1,58,1,0
1,58,0,8
1,61,0,0
1,54,0,0
1,49,44,2
1,66,44,0
1,61,44,0
1,58,44,0
1,42,44,0
1,54,44,0
1,54,0,8
1,66,0,0
1,61,0,0
1,49,0,0
1,42,0,0
1,58,0,0
1,66,44,2
1,54,44,0
1,61,44,0
1,49,44,0
1,42,44,0
1,58,44,0
1,58,1,10
1,54,1,0
1,61,1,0
1,61,0,8
1,49,0,0
1,66,0,0
1,42,0,0
1,54,0,0
1,61,0,0
1,58,0,0
1,58,0,0
1,54,0,0
1,44,1,0
1,44,0,8
1,39,44,2
1,39,0,18
1,42,44,2
1,54,44,0
1,49,44,0
1,58,44,0
1,66,44,0
1,61,44,0
1,61,0,8
1,54,0,0
1,49,0,0
1,42,0,0
1,66,0,0
1,58,0,0
1,58,1,0
1,61,1,0
1,54,1,0
1,54,0,8
1,61,0,0
1,58,0,0
1,66,44,0
1,49,44,0
1,61,44,0
1,58,44,0
1,42,44,0
1,54,44,0
1,54,0,8
1,49,0,0
1,61,0,0
1,66,0,0
1,42,0,0
1,58,0,0
1,61,44,2
1,42,44,0
1,54,44,0
1,58,44,0
1,49,44,0
1,66,44,0
1,66,0,8
1,42,0,0
1,54,0,0
1,61,0,0
1,49,0,0
1,58,0,0
1,54,44,2
1,58,44,0
1,61,44,0
1,66,44,0
1,49,44,0
1,42,44,0
1,42,0,8
1,58,0,0
1,61,0,0
1,54,0,0
1,49,0,0
1,66,0,0
1,44,1,0
1,51,1,0
1,58,44,0
1,54,1,0
1,39,44,0
1,39,0,8
1,58,0,0
1,44,0,0
1,51,0,0
1,54,0,0
1,51,1,0
1,39,44,0
1,54,1,0
1,44,1,0
1,44,0,8
1,51,0,0
1,39,0,0
1,54,0,0
1,66,44,0
1,52,44,0
1,40,44,0
1,59,44,0
1,56,44,0
1,47,44,0
1,47,0,8
1,52,0,0
1,40,0,0
1,66,0,0
1,56,0,0
1,59,0,0
1,59,1,2
1,52,1,0
1,56,1,0
1,56,0,8
1,52,0,0
1,59,0,0
1,47,44,0
1,40,44,0
1,66,44,0
1,52,44,0
1,56,44,0
1,59,44,0
1,59,0,18
1,40,0,0
1,66,0,0
1,47,0,0
1,56,0,0
1,52,0,0
1,56,44,0
1,59,44,0
1,40,44,0
1,47,44,0
1,52,44,0
1,66,44,0
1,66,0,8
1,59,0,0
1,40,0,0
1,56,0,0
1,52,0,0
1,47,0,0
1,59,44,0
1,47,44,0
1,52,44,0
1,56,44,0
1,40,44,0
1,59,1,0
1,56,1,0
1,52,1,0
1,52,0,8
1,56,0,0
1,59,0,0
1,52,1,0
1,56,1,0
1,59,1,0
1,59,0,8
1,56,0,0
1,47,0,0
1,40,0,0
1,52,0,0
1,59,0,0
1,52,0,0
1,56,0,0
1,66,44,0
1,61,44,0
1,59,44,0
1,47,44,0
1,54,44,0
1,54,0,8
1,59,0,0
1,66,0,0
1,61,0,0
1,47,0,0
1,61,1,0
1,59,1,0
1,54,1,0
1,54,0,18
1,59,0,0
1,61,0,0
1,61,44,2
1,59,44,0
1,54,44,0
1,47,44,0
1,47,0,8
1,61,0,0
1,59,0,0
1,54,0,0
1,61,44,0
1,47,44,0
1,59,44,0
1,66,44,0
1,47,44,0
1,59,44,0
1,54,44,0
1,54,0,68
1,47,0,0
1,47,0,0
1,59,0,0
1,61,0,0
1,59,0,0
1,66,0,0
1,47,44,2
1,59,44,0
1,61,44,0
1,59,44,0
1,47,44,0
1,54,44,0
1,54,0,8
1,59,0,0
1,61,0,0
1,47,0,0
1,47,0,0
1,59,0,0
1,44,44,0
1,54,1,0
1,59,1,0
1,61,1,0
1,61,0,8
1,44,0,0
1,54,0,0
1,59,0,0
1,61,1,0
1,59,1,0
1,54,1,0
1,54,0,8
1,59,0,0
1,61,0,0
1,42,44,0
1,49,44,0
1,54,44,0
1,58,44,0
1,61,44,0
1,66,44,0
1,66,0,8
1,49,0,0
1,54,0,0
1,42,0,0
1,61,0,0
1,58,0,0
1,58,1,0
1,54,1,0
1,61,1,0
1,61,0,8
1,54,0,0
1,58,0,0
1,54,44,0
1,61,44,0
1,58,44,0
1,42,44,0
1,66,44,0
1,49,44,0
1,49,0,8
1,61,0,0
1,58,0,0
1,54,0,0
1,66,0,0
1,42,0,0
1,42,44,0
1,61,44,0
1,54,44,0
1,66,44,0
1,58,44,0
1,49,44,0
1,49,0,8
1,61,0,0
1,54,0,0
1,42,0,0
1,58,0,0
1,66,0,0
1,58,1,2
1,54,1,0
1,61,1,0
1,61,0,8
1,54,0,0
1,58,0,0
1,44,1,0
1,44,0,8
1,39,44,0
1,39,0,8
1,54,44,0
1,42,44,0
1,49,44,0
1,61,44,0
1,66,44,0
1,58,44,0
1,58,0,8
1,42,0,0
1,49,0,0
1,54,0,0
1,66,0,0
1,61,0,0
1,61,1,0
1,54,1,0
1,58,1,0
1,58,0,8
1,54,0,0
1,61,0,0
1,58,44,0
1,42,44,0
1,54,44,0
1,61,44,0
1,66,44,0
1,49,44,0
1,49,0,8
1,42,0,0
1,54,0,0
1,58,0,0
1,66,0,0
1,61,0,0
1,66,44,0
1,49,44,0
1,58,44,0
1,61,44,0
1,42,44,0
1,54,44,0
1,54,0,8
1,49,0,0
1,58,0,0
1,66,0,0
1,42,0,0
1,61,0,0
1,61,44,0
1,58,44,0
1,54,44,0
1,66,44,0
1,42,44,0
1,49,44,0
1,49,0,18
1,58,0,0
1,54,0,0
1,61,0,0
1,42,0,0
1,66,0,0
1,44,1,0
1,58,44,0
1,51,1,0
1,39,44,0
1,54,1,0
1,54,0,8
1,51,0,0
1,44,0,0
1,58,0,0
1,39,0,0
1,44,1,0
1,54,1,0
1,51,1,0
1,39,44,0
1,39,0,38
1,44,0,0
1,54,0,0
1,51,0,0
1,52,44,0
1,59,44,0
1,66,44,0
1,56,44,0
1,47,44,0
1,40,44,0
1,40,0,42
1,59,0,0
1,66,0,0
1,52,0,0
1,47,0,0
1,56,0,0
1,59,1,2
1,52,1,0
1,56,1,0
1,56,0,61
1,52,0,0
1,59,0,0
1,40,44,2
1,56,44,0
1,52,44,0
1,59,44,0
1,47,44,0
1,66,44,0
1,66,0,118
1,56,0,0
1,52,0,0
1,40,0,0
1,47,0,0
1,59,0,0
1,52,44,2
1,59,44,0
1,66,44,0
1,47,44,0
1,56,44,0
1,40,44,0
1,40,0,12
1,59,0,0
1,66,0,0
1,52,0,0
1,56,0,0
1,47,0,0
1,47,44,0
1,59,44,0
1,52,44,0
1,40,44,0
1,56,44,0
1,56,1,6
1,59,1,0
1,52,1,0
1,52,0,8
1,47,0,0
1,56,0,0
1,59,0,0
1,52,0,0
1,40,0,0
1,56,0,0
1,59,0,0
1,56,1,0
1,52,1,0
1,59,1,0
1,59,0,18
1,52,0,0
1,56,0,0
1,61,44,0
1,59,44,0
1,54,44,0
1,66,44,0
1,47,44,0
1,47,0,8
1,54,0,0
1,61,0,0
1,59,0,0
1,66,0,0
1,61,1,0
1,54,1,0
1,59,1,0
1,59,0,8
1,54,0,0
1,61,0,0
1,59,44,0
1,61,44,0
1,47,44,0
1,54,44,0
1,54,0,8
1,59,0,0
1,61,0,0
1,47,0,0
1,54,44,2
1,59,44,0
1,59,44,0
1,66,44,0
1,47,44,0
1,47,44,0
1,61,44,0
1,61,0,8
1,47,0,0
1,59,0,0
1,59,0,0
1,54,0,0
1,47,0,0
1,66,0,0
1,47,44,0
1,59,44,0
1,61,44,0
1,47,44,0
1,54,44,0
1,59,44,0
1,59,0,8
1,59,0,0
1,61,0,0
1,47,0,0
1,54,0,0
1,47,0,0
1,59,1,0
1,44,44,0
1,54,1,0
1,61,1,0
1,61,0,8
1,54,0,0
1,59,0,0
1,61,1,0
1,59,1,0
1,54,1,0
1,54,0,8
1,44,0,0
1,61,0,0
1,59,0,0
1,61,44,0
1,66,44,0
1,49,44,0
1,54,44,0
1,42,44,0
1,58,44,0
1,58,0,18
1,66,0,0
1,49,0,0
1,61,0,0
1,42,0,0
1,54,0,0
1,54,1,2
1,61,1,0
1,58,1,0
1,58,0,8
1,61,0,0
1,54,0,0
1,49,44,2
1,66,44,0
1,61,44,0
1,58,44,0
1,42,44,0
1,54,44,0
1,54,0,8
1,66,0,0
1,61,0,0
1,49,0,0
1,42,0,0
1,58,0,0
1,66,44,2
1,54,44,0
1,61,44,0
1,49,44,0
1,42,44,0
1,58,44,0
1,58,1,10
1,54,1,0
1,61,1,0
1,61,0,8
1,49,0,0
1,66,0,0
1,42,0,0
1,54,0,0
1,61,0,0
1,58,0,0
1,58,0,0
1,54,0,0
1,44,1,0
1,44,0,8
1,39,44,2
1,39,0,18
1,42,44,2
1,54,44,0
1,49,44,0
1,58,44,0
1,66,44,0
1,61,44,0
1,61,0,8
1,54,0,0
1,49,0,0
1,42,0,0
1,66,0,0
1,58,0,0
1,58,1,0
1,61,1,0
1,54,1,0
1,54,0,8
1,61,0,0
1,58,0,0
1,66,44,0
1,49,44,0
1,61,44,0
1,58,44,0
1,42,44,0
1,54,44,0
1,54,0,8
1,49,0,0
1,61,0,0
1,66,0,0
1,42,0,0
1,58,0,0
1,61,44,2
1,42,44,0
1,54,44,0
1,58,44,0
1,49,44,0
1,66,44,0
1,66,0,8
1,42,0,0
1,54,0,0
1,61,0,0
1,49,0,0
1,58,0,0
1,54,44,2
1,58,44,0
1,61,44,0
1,66,44,0
1,49,44,0
1,42,44,0
1,42,0,8
1,58,0,0
1,61,0,0
1,54,0,0
1,49,0,0
1,66,0,0
1,44,1,0
1,51,1,0
1,58,44,0
1,54,1,0
1,39,44,0
1,39,0,8
1,58,0,0
1,44,0,0
1,51,0,0
1,54,0,0
1,51,1,0
1,39,44,0
1,54,1,0
1,44,1,0
1,44,0,8
1,51,0,0
1,39,0,0
1,54,0,0
1,66,44,0
1,52,44,0
1,40,44,0
1,59,44,0
1,56,44,0
1,47,44,0
1,47,0,8
1,52,0,0
1,40,0,0
1,66,0,0
1,56,0,0
1,59,0,0
1,59,1,2
1,52,1,0
1,56,1,0
1,56,0,8
1,52,0,0
1,59,0,0
1,47,44,0
1,40,44,0
1,66,44,0
1,52,44,0
1,56,44,0
1,59,44,0
1,59,0,18
1,40,0,0
1,66,0,0
1,47,0,0
1,56,0,0
1,52,0,0
1,56,44,0
1,59,44,0
1,40,44,0
1,47,44,0
1,52,44,0
1,66,44,0
1,66,0,8
1,59,0,0
1,40,0,0
1,56,0,0
1,52,0,0
1,47,0,0
1,59,44,0
1,47,44,0
1,52,44,0
1,56,44,0
1,40,44,0
1,59,1,0
1,56,1,0
1,52,1,0
1,52,0,8
1,56,0,0
1,59,0,0
1,52,1,0
1,56,1,0
1,59,1,0
1,59,0,8
1,56,0,0
1,47,0,0
1,40,0,0
1,52,0,0
1,59,0,0
1,52,0,0
1,56,0,0
1,66,44,0
1,61,44,0
1,59,44,0
1,47,44,0
1,54,44,0
1,54,0,8
1,59,0,0
1,66,0,0
1,61,0,0
1,47,0,0
1,61,1,0
1,59,1,0
1,54,1,0
1,54,0,18
1,59,0,0
1,61,0,0
1,61,44,2
1,59,44,0
1,54,44,0
1,47,44,0
1,47,0,8
1,61,0,0
1,59,0,0
1,54,0,0
1,61,44,0
1,47,44,0
1,59,44,0
1,66,44,0
1,47,44,0
1,59,44,0
1,54,44,0
1,54,0,68
1,47,0,0
1,47,0,0
1,59,0,0
1,61,0,0
1,59,0,0
1,66,0,0
1,47,44,2
1,59,44,0
1,61,44,0
1,59,44,0
1,47,44,0
1,54,44,0
1,54,0,8
1,59,0,0
1,61,0,0
1,47,0,0
1,47,0,0
1,59,0,0
1,44,44,0
1,54,1,0
1,59,1,0
1,61,1,0
1,61,0,8
1,44,0,0
1,54,0,0
1,59,0,0
1,61,1,0
1,59,1,0
1,54,1,0
1,54,0,8
1,59,0,0
1,61,0,0
1,42,44,0
1,49,44,0
1,54,44,0
1,58,44,0
1,61,44,0
1,66,44,0
1,66,0,8
1,49,0,0
1,54,0,0
1,42,0,0
1,61,0,0
1,58,0,0
1,58,1,0
1,54,1,0
1,61,1,0
1,61,0,8
1,54,0,0
1,58,0,0
1,54,44,0
1,61,44,0
1,58,44,0
1,42,44,0
1,66,44,0
1,49,44,0
1,49,0,8
1,61,0,0
1,58,0,0
1,54,0,0
1,66,0,0
1,42,0,0
1,42,44,0
1,61,44,0
1,54,44,0
1,66,44,0
1,58,44,0
1,49,44,0
1,49,0,8
1,61,0,0
1,54,0,0
1,42,0,0
1,58,0,0
1,66,0,0
1,58,1,2
1,54,1,0
1,61,1,0
1,61,0,8
1,54,0,0
1,58,0,0
1,44,1,0
1,44,0,8
1,39,44,0
1,39,0,8
1,54,44,0
1,42,44,0
1,49,44,0
1,61,44,0
1,66,44,0
1,58,44,0
1,58,0,8
1,42,0,0
1,49,0,0
1,54,0,0
1,66,0,0
1,61,0,0
1,61,1,0
1,54,1,0
1,58,1,0
1,58,0,8
1,54,0,0
1,61,0,0
1,58,44,0
1,42,44,0
1,54,44,0
1,61,44,0
1,66,44,0
1,49,44,0
1,49,0,8
1,42,0,0
1,54,0,0
1,58,0,0
1,66,0,0
1,61,0,0
1,66,44,0
1,49,44,0
1,58,44,0
1,61,44,0
1,42,44,0
1,54,44,0
1,54,0,8
1,49,0,0
1,58,0,0
1,66,0,0
1,42,0,0
1,61,0,0
1,61,44,0
1,58,44,0
1,54,44,0
1,66,44,0
1,42,44,0
1,49,44,0
1,49,0,18
1,58,0,0
1,54,0,0
1,61,0,0
1,42,0,0
1,66,0,0
1,44,1,0
1,58,44,0
1,51,1,0
1,39,44,0
1,54,1,0
1,54,0,8
1,51,0,0
1,44,0,0
1,58,0,0
1,39,0,0
