track,note,velocity,time
0,42,120,0
0,42,70,92
0,42,70,92
0,42,70,92
0,44,99,0
0,56,94,47
0,58,99,49
0,63,99,48
0,46,94,0
0,53,99,48
0,58,93,47
0,63,96,49
0,62,97,1
0,56,95,0
0,51,95,0
0,60,99,1
0,44,93,0
0,56,99,48
0,58,98,48
0,63,96,48
0,60,93,3
0,53,94,0
0,58,96,1
0,39,97,0
0,46,98,0
0,53,98,48
0,36,95,0
0,58,95,0
0,63,94,48
0,34,93,48
0,62,94,47
0,31,95,47
0,40,97,0
0,38,85,45
0,38,85,20
0,51,93,3
0,60,97,1
0,55,99,0
0,38,25,0
0,70,74,0
0,75,42,0
0,36,99,0
0,35,100,0
0,36,39,0
0,49,68,0
0,42,61,0
0,57,69,0
0,38,26,20
0,60,94,0
0,39,93,2
0,35,97,0
0,38,25,0
0,75,42,0
0,36,39,1
0,42,61,0
0,70,77,0
0,48,99,12
0,36,37,1
0,38,25,0
0,40,99,5
0,70,73,0
0,38,61,0
0,82,53,1
0,42,61,0
0,48,95,17
0,38,24,2
0,60,94,11
0,36,93,2
0,35,99,0
0,42,57,0
0,38,26,1
0,70,78,0
0,75,46,0
0,48,94,11
0,36,37,2
0,38,26,1
0,72,93,3
0,70,75,2
0,38,24,0
0,43,97,1
0,35,100,0
0,36,39,0
0,42,61,0
0,38,61,13
0,60,96,19
0,38,24,1
0,36,38,1
0,42,62,0
0,75,44,0
0,70,77,0
0,48,98,13
0,36,38,2
0,38,26,0
0,40,99,6
0,82,53,1
0,38,63,0
0,42,62,0
0,70,79,0
0,60,97,18
0,38,26,2
0,48,98,13
0,36,37,1
0,38,24,0
0,35,102,1
0,46,60,0
0,70,77,0
0,38,63,15
0,35,97,19
0,70,73,0
0,75,43,0
0,36,37,0
0,38,25,0
0,42,58,0
0,36,99,1
0,38,26,21
0,60,96,5
0,35,99,1
0,70,73,0
0,75,41,0
0,36,37,0
0,38,24,0
0,39,99,1
0,42,63,0
0,48,98,13
0,38,25,1
0,36,38,1
0,40,97,6
0,38,62,0
0,82,53,1
0,42,62,0
0,70,76,0
0,48,97,18
0,38,25,1
0,60,98,13
0,42,57,1
0,70,75,0
0,38,25,0
0,36,96,1
0,75,44,0
0,35,103,0
0,48,98,13
0,36,37,1
0,38,25,0
0,72,94,4
0,42,57,2
0,38,24,0
0,43,99,1
0,35,100,0
0,36,38,0
0,70,77,0
0,38,61,13
0,75,43,20
0,36,37,0
0,38,24,0
0,42,61,1
0,70,77,0
0,60,96,18
0,38,24,1
0,36,39,1
0,40,99,6
0,70,73,0
0,82,53,1
0,38,63,0
0,42,62,0
0,38,25,19
0,48,94,18
0,35,97,2
0,36,37,0
0,38,24,0
0,46,60,1
0,70,78,0
0,38,63,14
0,53,93,3
0,60,95,0
0,57,97,1
0,35,99,3
0,49,67,0
0,38,24,0
0,36,97,1
0,36,38,0
0,70,78,0
0,42,61,0
0,75,47,0
0,38,26,20
0,60,93,4
0,39,94,2
0,38,24,0
0,36,39,1
0,42,62,0
0,75,46,0
0,35,101,0
0,70,79,0
0,48,93,11
0,36,37,2
0,38,25,0
0,70,75,5
0,82,53,1
0,38,63,0
0,40,103,0
0,42,63,0
0,48,99,18
0,38,24,1
0,60,98,13
0,42,59,1
0,70,75,0
0,36,99,1
0,38,26,0
0,75,46,0
0,35,103,0
0,48,94,12
0,38,25,2
0,36,39,1
0,72,97,5
0,41,94,1
0,38,24,0
0,35,100,1
0,36,38,0
0,42,60,0
0,70,77,0
0,38,61,14
0,60,93,18
0,42,57,2
0,38,25,0
0,75,42,0
0,36,39,1
0,70,78,0
0,48,97,12
0,38,24,1
0,36,39,1
0,40,98,5
0,38,61,0
0,82,53,1
0,42,60,0
0,70,76,0
0,60,95,17
0,38,24,2
0,48,97,12
0,36,37,1
0,38,24,0
0,35,103,1
0,46,61,0
0,70,77,0
0,38,63,15
0,56,95,4
0,35,97,4
0,36,37,0
0,38,25,0
0,42,58,0
0,41,97,1
0,70,78,0
0,75,46,0
0,38,25,19
0,60,98,19
0,42,59,1
0,38,25,0
0,36,39,1
0,70,78,0
0,35,103,0
0,75,45,0
0,48,97,13
0,36,37,1
0,38,25,0
0,70,75,0
0,40,98,0
0,39,96,1
0,82,53,0
0,38,63,0
0,42,60,0
0,48,93,17
0,38,26,3
0,60,95,11
0,35,99,2
0,38,24,0
0,75,44,1
0,42,61,0
0,70,79,0
0,48,97,12
0,38,24,1
0,36,39,1
0,72,99,13
0,70,73,0
0,36,37,0
0,38,25,0
0,36,97,1
0,42,60,0
0,35,103,0
0,38,63,15
0,70,75,19
0,75,41,0
0,42,58,0
0,38,80,1
0,36,38,0
0,60,98,18
0,36,37,1
0,40,98,0
0,70,74,0
0,34,99,1
0,38,80,0
0,82,53,0
0,42,61,0
0,38,61,19
0,48,96,19
0,46,57,1
0,70,75,0
0,35,98,0
0,38,61,0
0,36,38,1
0,51,93,3
0,55,97,1
0,60,97,0
0,42,57,0
0,49,65,0
0,38,25,0
0,36,99,1
0,36,39,0
0,75,44,0
0,35,103,0
0,57,71,0
0,70,79,0
0,38,26,20
0,75,43,6
0,38,25,0
0,39,96,1
0,35,100,0
0,36,39,0
0,42,62,0
0,70,77,0
0,36,37,19
0,38,25,0
0,40,99,6
0,38,62,0
0,60,104,0
0,82,53,0
0,70,76,0
0,42,63,0
0,38,24,19
0,58,98,15
0,42,57,0
0,35,98,0
0,75,42,0
0,36,98,1
0,38,26,0
0,70,78,0
0,38,24,3
0,36,39,1
0,60,102,6
0,35,99,0
0,36,37,0
0,43,99,1
0,38,26,0
0,70,78,0
0,42,61,0
0,38,63,1
0,75,43,5
0,38,25,0
0,36,39,0
0,42,62,0
0,70,78,0
0,36,38,5
0,38,26,0
0,70,73,0
0,40,98,0
0,38,62,0
0,58,100,1
0,82,53,0
0,42,63,0
0,38,25,1
0,60,99,20
0,35,97,0
0,70,73,0
0,36,37,0
0,38,25,0
0,46,60,1
0,38,61,19
0,36,93,20
0,35,97,0
0,70,73,0
0,38,25,0
0,36,38,1
0,75,46,0
0,42,63,0
0,38,26,5
0,63,101,4
0,39,94,1
0,75,43,0
0,35,98,0
0,36,37,0
0,38,24,0
0,42,58,0
0,70,79,1
0,36,37,19
0,38,24,0
0,42,58,5
0,82,53,1
0,40,100,0
0,38,63,0
0,70,79,0
0,38,26,20
0,36,95,19
0,35,99,0
0,42,58,0
0,38,26,1
0,70,78,0
0,75,47,0
0,36,39,20
0,38,26,0
0,35,99,5
0,38,25,0
0,43,99,1
0,36,39,0
0,42,60,0
0,70,78,0
0,38,63,20
0,60,102,18
0,70,75,1
0,75,41,0
0,36,37,0
0,38,24,0
0,42,58,0
0,38,25,20
0,36,39,1
0,63,104,5
0,38,61,1
0,42,58,0
0,82,53,1
0,40,102,0
0,70,76,0
0,38,25,19
0,36,37,20
0,38,24,0
0,70,74,0
0,35,100,1
0,46,60,0
0,38,62,2
0,53,94,3
0,57,98,1
0,60,97,0
0,36,93,3
0,49,65,0
0,75,41,0
0,36,37,0
0,65,102,1
0,35,102,0
0,38,26,0
0,42,61,0
0,70,79,0
0,38,24,19
0,39,94,5
0,35,97,0
0,70,73,0
0,38,24,0
0,42,58,0
0,36,39,1
0,75,44,0
0,38,24,19
0,36,39,1
0,42,59,5
0,38,61,0
0,70,74,0
0,82,53,1
0,40,100,0
0,38,25,18
0,63,104,19
0,35,99,1
0,38,25,0
0,36,97,1
0,42,62,0
0,70,78,0
0,75,47,0
0,36,37,7
0,38,25,0
0,65,100,5
0,35,98,1
0,41,96,1
0,36,39,0
0,38,26,0
0,70,76,0
0,42,63,0
0,38,62,19
0,67,98,4
0,42,59,1
0,70,75,0
0,38,25,0
0,36,39,1
0,75,46,0
0,36,37,11
0,38,26,1
0,38,62,6
0,42,58,0
0,82,53,1
0,40,100,0
0,70,76,0
0,38,24,19
0,63,104,18
0,35,97,2
0,38,24,0
0,36,38,1
0,46,62,0
0,70,78,0
0,38,63,20
0,56,97,1
0,60,100,2
0,35,99,1
0,70,73,0
0,36,37,0
0,42,58,0
0,41,98,1
0,38,26,0
0,75,46,0
0,38,26,20
0,42,57,19
0,70,75,0
0,38,25,0
0,36,38,1
0,35,103,0
0,75,45,0
0,36,37,19
0,38,26,1
0,39,95,0
0,40,99,0
0,38,61,0
0,70,74,0
0,82,53,1
0,42,63,0
0,38,25,9
0,42,57,11
0,35,98,0
0,38,24,0
0,70,76,1
0,75,44,0
0,36,39,2
0,38,26,0
0,35,97,19
0,70,73,0
0,38,24,0
0,36,97,0
0,36,39,0
0,42,60,0
0,38,62,19
0,36,39,21
0,38,26,0
0,42,61,0
0,70,77,0
0,75,45,0
0,36,37,19
0,38,26,1
0,34,93,0
0,70,73,0
0,38,61,0
0,82,53,1
0,40,102,0
0,42,60,0
0,38,26,20
0,46,57,19
0,35,100,1
0,36,39,0
0,38,26,0
0,70,77,0
0,38,63,20
0,55,95,3
0,51,96,1
0,60,97,0
0,36,95,3
0,35,97,0
0,49,67,0
0,38,25,0
0,57,66,0
0,36,38,0
0,70,76,0
0,75,44,0
0,42,61,0
0,38,26,20
0,39,95,5
0,75,41,0
0,36,38,1
0,38,26,0
0,42,60,0
0,70,78,0
0,35,103,0
0,38,25,19
0,36,39,1
0,38,61,5
0,70,74,0
0,60,105,1
0,82,53,0
0,40,100,0
0,42,60,0
0,38,25,19
0,58,101,14
0,70,75,0
0,38,24,0
0,36,99,1
0,35,101,0
0,42,61,0
0,75,45,0
0,38,24,6
0,36,38,1
0,60,100,5
0,36,37,1
0,38,25,0
0,43,96,1
0,70,78,0
0,35,103,0
0,42,61,0
0,38,61,1
0,42,59,1
0,70,75,0
0,38,25,0
0,36,38,1
0,75,44,0
0,38,25,7
0,36,39,1
0,58,102,6
0,40,98,0
0,82,53,1
0,38,63,0
0,42,60,0
0,70,78,0
0,38,25,19
0,46,59,16
0,70,75,0
0,60,95,1
0,36,39,0
0,38,26,0
0,35,101,0
0,38,62,19
0,36,93,20
0,35,97,0
0,70,73,0
0,36,37,0
0,38,24,0
0,75,42,0
0,42,60,1
0,38,25,19
0,63,103,4
0,39,95,1
0,36,37,0
0,38,26,1
0,70,78,0
0,35,101,0
0,42,63,0
0,75,47,0
0,38,25,19
0,36,39,1
0,40,99,5
0,70,75,0
0,38,62,0
0,82,53,1
0,42,60,0
0,38,25,19
0,38,25,20
0,36,96,1
0,75,44,0
0,35,101,0
0,42,63,0
0,70,77,0
0,38,24,19
0,36,38,1
0,43,93,6
0,42,59,0
0,38,25,0
0,36,38,1
0,70,78,0
0,35,103,0
0,38,61,19
0,63,102,20
0,42,57,0
0,70,75,0
0,38,24,0
0,36,38,1
0,75,44,0
0,36,37,2
0,38,26,1
0,63,102,5
0,42,57,0
0,70,75,0
0,38,62,0
0,82,53,1
0,40,101,0
0,38,26,20
0,70,73,19
0,35,98,0
0,46,58,0
0,36,38,1
0,38,26,0
0,38,63,5
0,60,94,2
0,53,97,1
0,57,99,0
0,62,100,2
0,49,65,1
0,75,43,0
0,38,24,0
0,36,99,1
0,35,100,0
0,36,39,0
0,42,62,0
0,70,79,0
0,38,26,8
0,42,59,6
0,36,37,0
0,38,24,0
0,75,42,0
0,39,99,1
0,70,76,0
0,35,101,0
0,38,24,19
0,36,39,1
0,40,99,6
0,82,53,1
0,38,63,0
0,42,61,0
0,70,79,0
0,38,24,19
0,36,93,2
0,38,25,0
0,70,74,0
0,35,102,0
0,42,61,0
0,75,47,0
0,38,25,0
0,36,38,1
0,70,73,5
0,36,37,0
0,42,58,0
0,41,99,1
0,35,102,0
0,38,26,0
0,38,61,19
0,42,59,20
0,36,37,0
0,70,74,0
0,38,26,1
0,75,44,0
0,36,39,20
0,38,26,0
0,60,100,5
0,40,99,0
0,70,75,0
0,38,62,0
0,82,53,1
0,42,63,0
0,38,24,19
0,55,100,7
0,46,59,0
0,70,75,0
0,38,25,0
0,35,102,1
0,36,38,0
0,38,63,20
0,56,96,5
0,42,59,3
0,36,37,0
0,38,24,0
0,41,99,1
0,35,101,0
0,70,79,0
0,75,45,0
0,38,25,11
0,42,59,11
0,38,25,0
0,70,74,0
0,36,39,0
0,75,46,0
0,35,101,0
0,36,37,11
0,38,24,0
0,39,93,0
0,42,57,0
0,82,53,0
0,38,63,0
0,70,76,0
0,40,103,0
0,38,24,11
0,75,41,11
0,38,24,0
0,35,100,0
0,42,60,0
0,70,77,0
0,36,39,0
0,38,26,0
0,42,57,11
0,70,75,0
0,35,98,0
0,36,37,0
0,38,24,0
0,36,97,0
0,38,61,20
0,75,41,20
0,38,24,0
0,70,74,0
0,36,39,1
0,42,60,0
0,36,37,19
0,38,26,1
0,38,61,0
0,70,74,0
0,34,96,1
0,82,53,0
0,40,100,0
0,42,60,0
0,38,24,19
0,70,73,20
0,36,39,1
0,38,26,0
0,46,60,0
0,35,101,0
0,38,63,20
0,60,93,3
0,56,94,0
0,63,94,0
0,35,98,0
0,38,24,0
0,42,58,0
0,75,42,0
0,32,99,1
0,36,39,0
0,57,68,0
0,49,68,0
0,70,77,0
0,68,94,0
0,38,26,20
0,36,37,0
0,70,74,0
0,35,102,1
0,38,26,0
0,75,44,0
0,42,63,0
0,38,24,19
0,36,38,1
0,65,104,19
0,40,98,0
0,38,61,0
0,82,53,1
0,42,63,0
0,70,77,0
0,38,26,20
0,32,95,15
0,63,100,0
0,38,25,0
0,75,42,0
0,70,76,1
0,35,103,0
0,42,61,0
0,36,37,19
0,38,24,0
0,35,98,20
0,38,25,0
0,70,74,0
0,65,104,0
0,36,38,0
0,42,62,0
0,38,62,19
0,63,102,17
0,75,41,0
0,38,25,0
0,36,39,1
0,42,61,0
0,70,77,0
0,36,37,5
0,38,25,0
0,65,103,20
0,40,98,0
0,38,62,0
0,82,53,1
0,42,60,0
0,70,77,0
0,38,25,19
0,63,97,12
0,38,25,0
0,36,38,1
0,70,76,0
0,35,101,0
0,46,61,0
0,38,62,7
0,62,94,3
0,65,98,1
0,58,97,0
0,36,37,3
0,38,25,0
0,34,97,1
0,65,100,0
0,35,102,0
0,70,78,0
0,42,61,0
0,75,45,0
0,65,97,0
0,38,26,20
0,35,98,0
0,38,24,0
0,75,42,0
0,36,39,1
0,42,60,0
0,70,77,0
0,36,38,0
0,38,26,0
0,63,101,12
0,42,59,1
0,70,73,0
0,82,53,1
0,40,102,0
0,38,63,0
0,38,24,19
0,67,102,7
0,35,98,0
0,38,25,0
0,34,97,1
0,42,61,0
0,70,79,0
0,75,47,0
0,36,38,2
0,38,26,0
0,35,97,0
0,42,57,0
0,38,24,0
0,36,39,1
0,70,76,0
0,38,62,1
0,67,100,20
0,75,43,0
0,36,37,0
0,42,58,0
0,38,26,1
0,70,77,0
0,36,38,20
0,38,26,0
0,70,73,19
0,40,98,0
0,38,61,0
0,82,53,1
0,42,61,0
0,38,26,18
0,67,100,18
0,46,57,1
0,70,73,0
0,36,37,0
0,38,25,0
0,35,100,1
0,38,62,1
0,55,94,3
0,63,96,1
0,60,97,0
0,67,98,1
0,36,95,2
0,35,99,0
0,75,43,0
0,38,25,0
0,36,39,1
0,42,63,0
0,49,71,0
0,70,79,0
0,67,99,0
0,38,24,1
0,67,99,3
0,42,59,2
0,36,37,0
0,38,24,0
0,75,42,0
0,39,97,1
0,35,101,0
0,70,79,0
0,36,37,19
0,38,25,0
0,63,102,5
0,70,73,1
0,38,62,0
0,82,53,1
0,40,100,0
0,42,62,0
0,38,25,19
0,60,100,16
0,36,93,2
0,35,98,0
0,38,26,1
0,75,46,0
0,42,63,0
0,70,77,0
0,36,39,20
0,38,26,0
0,67,103,3
0,43,93,2
0,35,98,0
0,36,39,0
0,38,26,0
0,42,61,0
0,70,79,0
0,38,63,13
0,65,98,12
0,70,75,0
0,75,41,0
0,38,24,0
0,42,58,0
0,36,38,1
0,38,25,19
0,36,38,1
0,70,75,5
0,38,61,0
0,63,103,1
0,82,53,0
0,40,102,0
