track,note,velocity,time
2,79,127,0
2,72,127,80
2,79,127,80
2,72,127,80
2,79,127,80
2,72,127,80
2,82,127,80
2,72,127,80
2,80,127,80
2,77,127,80
2,80,127,80
2,77,127,80
2,80,127,80
2,75,127,80
2,80,127,80
2,82,127,40
2,83,127,40
2,84,127,40
2,79,127,40
2,72,127,80
2,79,127,80
2,72,127,80
2,79,127,80
2,72,127,80
2,82,127,80
2,72,127,80
2,80,127,80
2,77,127,80
2,80,127,80
2,77,127,80
2,80,127,80
2,75,127,80
2,77,127,80
2,72,127,80
2,79,127,80
2,72,127,80
2,79,127,80
2,72,127,80
2,79,127,80
2,72,127,80
2,82,127,80
2,72,127,80
2,80,127,80
2,77,127,80
2,80,127,80
2,77,127,80
2,80,127,80
2,75,127,80
2,80,127,80
2,82,127,40
2,83,127,40
2,84,127,40
2,79,127,40
2,72,127,80
2,79,127,80
2,72,127,80
2,79,127,80
2,72,127,80
2,82,127,80
2,72,127,80
2,80,127,80
2,77,127,80
2,80,127,80
2,77,127,80
2,80,127,80
2,75,127,80
2,77,127,80
2,72,127,80
2,79,127,80
2,72,127,80
2,79,127,80
2,72,127,80
2,79,127,80
2,72,127,80
2,82,127,80
2,72,127,80
2,80,127,80
2,77,127,80
2,80,127,80
2,77,127,80
2,80,127,80
2,75,127,80
2,80,127,80
2,82,127,40
2,83,127,40
2,84,127,40
2,79,127,40
2,72,127,80
2,79,127,80
2,72,127,80
2,79,127,80
2,72,127,80
2,82,127,80
2,72,127,80
2,79,127,2000
2,72,127,80
2,79,127,80
2,72,127,80
2,79,127,80
2,72,127,80
2,82,127,80
2,72,127,80
2,80,127,80
2,77,127,80
2,80,127,80
2,77,127,80
2,80,127,80
2,75,127,80
2,80,127,80
2,82,127,40
2,83,127,40
2,84,127,40
2,79,127,40
2,72,127,80
2,79,127,80
2,72,127,80
2,79,127,80
2,72,127,80
2,82,127,80
2,72,127,80
2,80,127,80
2,77,127,80
2,80,127,80
2,77,127,80
2,80,127,80
2,75,127,80
2,77,127,80
2,72,127,80
2,79,127,80
2,72,127,80
2,79,127,80
2,72,127,80
2,79,127,80
2,72,127,80
2,82,127,80
2,72,127,80
2,80,127,80
2,77,127,80
2,80,127,80
2,77,127,80
2,80,127,80
2,75,127,80
2,80,127,80
2,82,127,40
2,83,127,40
2,84,127,40
2,79,127,40
2,72,127,80
2,79,127,80
2,72,127,80
2,79,127,80
2,72,127,80
2,82,127,80
2,72,127,80
2,80,127,80
2,77,127,80
2,80,127,80
2,77,127,80
2,80,127,80
2,75,127,80
2,77,127,80
2,72,127,80
2,67,127,320
2,72,127,0
2,67,127,200
2,72,127,0
2,67,127,200
2,72,127,0
2,67,127,200
2,72,127,0
2,67,127,200
2,72,127,0
2,65,127,320
2,68,127,0
2,65,127,200
2,68,127,0
2,63,127,200
2,72,112,0
2,63,127,200
2,72,112,0
2,63,127,200
2,72,112,0
2,67,127,320
2,72,127,0
2,67,127,200
2,72,127,0
2,67,127,200
2,72,127,0
2,67,127,200
2,72,127,0
2,67,127,200
2,72,127,0
2,65,127,320
2,68,127,0
2,65,127,200
2,68,127,0
2,68,127,200
2,63,127,0
2,68,127,200
2,63,127,0
2,68,127,200
2,63,127,0
2,67,127,320
2,72,127,0
2,67,127,200
2,72,127,0
2,67,127,200
2,72,127,0
2,67,127,200
2,72,127,0
2,67,127,200
2,72,127,0
2,65,127,320
2,68,127,0
2,65,127,200
2,68,127,0
2,63,127,200
2,72,112,0
2,63,127,200
2,72,112,0
2,63,127,200
2,72,112,0
2,67,127,320
2,72,127,0
2,67,127,200
2,72,127,0
2,67,127,200
2,72,127,0
2,67,127,200
2,72,127,0
2,67,127,200
2,72,127,0
2,65,127,320
2,68,127,0
2,65,127,200
2,68,127,0
2,68,127,200
2,63,127,0
2,68,127,200
2,63,127,0
2,68,127,200
2,63,127,0
2,67,78,15680
2,72,78,0
2,67,78,200
2,72,78,0
2,65,78,200
2,70,78,0
2,65,78,200
2,70,78,0
2,65,78,200
2,70,78,0
2,70,78,320
2,65,78,0
2,70,78,200
2,65,78,0
2,63,78,200
2,70,78,0
2,63,78,200
2,70,78,0
2,63,78,200
2,70,78,0
2,67,78,320
2,72,78,0
2,67,78,200
2,72,78,0
2,65,78,200
2,70,78,0
2,65,78,200
2,70,78,0
2,65,78,200
2,70,78,0
2,70,78,320
2,65,78,0
2,70,78,200
2,65,78,0
2,63,78,200
2,70,78,0
2,63,78,200
2,70,78,0
2,63,78,200
2,70,78,0
2,67,78,320
2,72,78,0
2,67,78,200
2,72,78,0
2,65,78,200
2,70,78,0
2,65,78,200
2,70,78,0
2,65,78,200
2,70,78,0
2,70,78,320
2,65,78,0
2,70,78,200
2,65,78,0
2,63,78,200
2,70,78,0
2,63,78,200
2,70,78,0
2,63,78,200
2,70,78,0
2,67,78,320
2,72,78,0
2,67,78,200
2,72,78,0
2,65,78,200
2,70,78,0
2,65,78,200
2,70,78,0
2,65,78,200
2,70,78,0
2,70,78,320
2,65,78,0
2,70,78,200
2,65,78,0
2,63,78,200
2,70,78,0
2,63,78,200
2,70,78,0
2,63,78,200
2,70,78,0
2,79,127,80
2,72,127,80
2,79,127,80
2,72,127,80
2,79,127,80
2,72,127,80
2,82,127,80
2,72,127,80
2,80,127,80
2,77,127,80
2,80,127,80
2,77,127,80
2,80,127,80
2,75,127,80
2,80,127,80
2,82,127,40
2,83,127,40
2,84,127,40
2,79,127,40
2,72,127,80
2,79,127,80
2,72,127,80
2,79,127,80
2,72,127,80
2,82,127,80
2,72,127,80
2,80,127,80
2,77,127,80
2,80,127,80
2,77,127,80
2,80,127,80
2,75,127,80
2,77,127,80
2,72,127,80
2,79,127,80
2,72,127,80
2,79,127,80
2,72,127,80
2,79,127,80
2,72,127,80
2,82,127,80
2,72,127,80
2,80,127,80
2,77,127,80
2,80,127,80
2,77,127,80
2,80,127,80
2,75,127,80
2,80,127,80
2,82,127,40
2,83,127,40
2,84,127,40
2,79,127,40
2,72,127,80
2,79,127,80
2,72,127,80
2,79,127,80
2,72,127,80
2,82,127,80
2,72,127,80
2,80,127,80
2,77,127,80
2,80,127,80
2,77,127,80
2,80,127,80
2,75,127,80
2,77,127,80
2,72,127,80
2,79,127,80
2,72,127,80
2,79,127,80
2,72,127,80
2,79,127,80
2,72,127,80
2,82,127,80
2,72,127,80
2,80,127,80
2,77,127,80
2,80,127,80
2,77,127,80
2,80,127,80
2,75,127,80
2,80,127,80
2,82,127,40
2,83,127,40
2,84,127,40
2,67,127,280
2,72,127,0
2,67,127,200
2,72,127,0
2,67,127,200
2,72,127,0
2,67,127,200
2,72,127,0
2,67,127,200
2,72,127,0
2,65,127,320
2,68,127,0
2,65,127,200
2,68,127,0
2,63,127,200
2,72,112,0
2,63,127,200
2,72,112,0
2,63,127,200
2,72,112,0
2,67,127,320
2,72,127,0
2,67,127,200
2,72,127,0
2,67,127,200
2,72,127,0
2,67,127,200
2,72,127,0
2,67,127,200
2,72,127,0
2,65,127,320
2,68,127,0
2,65,127,200
2,68,127,0
2,68,127,200
2,63,127,0
2,68,127,200
2,63,127,0
2,68,127,200
2,63,127,0
2,67,127,320
2,72,127,0
2,67,127,200
2,72,127,0
2,67,127,200
2,72,127,0
2,67,127,200
2,72,127,0
2,67,127,200
2,72,127,0
2,65,127,320
2,68,127,0
2,65,127,200
2,68,127,0
2,63,127,200
2,72,112,0
2,63,127,200
2,72,112,0
2,63,127,200
2,72,112,0
2,67,127,320
2,72,127,0
2,67,127,200
2,72,127,0
2,67,127,200
2,72,127,0
2,67,127,200
2,72,127,0
2,67,127,200
2,72,127,0
2,65,127,320
2,68,127,0
2,65,127,200
2,68,127,0
2,68,127,200
2,63,127,0
2,68,127,200
2,63,127,0
2,68,127,200
2,63,127,0
2,67,78,15680
2,72,78,0
2,67,78,200
2,72,78,0
2,65,78,200
2,70,78,0
2,65,78,200
2,70,78,0
2,65,78,200
2,70,78,0
2,70,78,320
2,65,78,0
2,70,78,200
2,65,78,0
2,63,78,200
2,70,78,0
2,63,78,200
2,70,78,0
2,63,78,200
2,70,78,0
2,67,78,320
2,72,78,0
2,67,78,200
2,72,78,0
2,65,78,200
2,70,78,0
2,65,78,200
2,70,78,0
2,65,78,200
2,70,78,0
2,70,78,320
2,65,78,0
2,70,78,200
2,65,78,0
2,63,78,200
2,70,78,0
2,63,78,200
2,70,78,0
2,63,78,200
2,70,78,0
2,67,78,320
2,72,78,0
2,67,78,200
2,72,78,0
2,65,78,200
2,70,78,0
2,65,78,200
2,70,78,0
2,65,78,200
2,70,78,0
2,70,78,320
2,65,78,0
2,70,78,200
2,65,78,0
2,63,78,200
2,70,78,0
2,63,78,200
2,70,78,0
2,63,78,200
2,70,78,0
2,67,78,320
2,72,78,0
2,67,78,200
2,72,78,0
2,65,78,200
2,70,78,0
2,65,78,200
2,70,78,0
2,65,78,200
2,70,78,0
2,70,78,320
2,65,78,0
2,70,78,200
2,65,78,0
2,63,78,200
2,70,78,0
2,63,78,200
2,70,78,0
2,63,78,200
2,70,78,0
2,67,78,320
2,72,78,0
2,67,78,200
2,72,78,0
2,65,78,200
2,70,78,0
2,65,78,200
2,70,78,0
2,65,78,200
2,70,78,0
2,70,78,320
2,65,78,0
2,70,78,200
2,65,78,0
2,63,78,200
2,70,78,0
2,63,78,200
2,70,78,0
2,63,78,200
2,70,78,0
2,67,78,320
2,72,78,0
2,67,78,200
2,72,78,0
2,65,78,200
2,70,78,0
2,65,78,200
2,70,78,0
2,65,78,200
2,70,78,0
2,70,78,320
2,65,78,0
2,70,78,200
2,65,78,0
2,63,78,200
2,70,78,0
2,63,78,200
2,70,78,0
2,63,78,200
2,70,78,0
2,67,78,320
2,72,78,0
2,67,78,200
2,72,78,0
2,65,78,200
2,70,78,0
2,65,78,200
2,70,78,0
2,65,78,200
2,70,78,0
2,70,78,320
2,65,78,0
2,70,78,200
2,65,78,0
2,63,78,200
2,70,78,0
2,63,78,200
2,70,78,0
2,63,78,200
2,70,78,0
2,67,78,320
2,72,78,0
2,67,78,200
2,72,78,0
2,65,78,200
2,70,78,0
2,65,78,200
2,70,78,0
2,65,78,200
2,70,78,0
2,70,78,320
2,65,78,0
2,70,78,200
2,65,78,0
2,63,78,200
2,70,78,0
2,63,78,200
2,70,78,0
2,63,78,200
2,70,78,0
2,79,127,80
2,72,127,80
2,79,127,80
2,72,127,80
2,79,127,80
2,72,127,80
2,82,127,80
2,72,127,80
2,80,127,80
2,77,127,80
2,80,127,80
2,77,127,80
2,80,127,80
2,75,127,80
2,80,127,80
2,82,127,40
2,83,127,40
2,84,127,40
2,79,127,40
2,72,127,80
2,79,127,80
2,72,127,80
2,79,127,80
2,72,127,80
2,82,127,80
2,72,127,80
2,80,127,80
2,77,127,80
2,80,127,80
2,77,127,80
2,80,127,80
2,75,127,80
2,77,127,80
2,72,127,80
2,79,127,80
2,72,127,80
2,79,127,80
2,72,127,80
2,79,127,80
2,72,127,80
2,82,127,80
2,72,127,80
2,80,127,80
2,77,127,80
2,80,127,80
2,77,127,80
2,80,127,80
2,75,127,80
2,80,127,80
2,82,127,40
2,83,127,40
2,84,127,40
2,79,127,40
2,72,127,80
2,79,127,80
2,72,127,80
2,79,127,80
2,72,127,80
2,82,127,80
2,72,127,80
2,79,127,2000
2,72,127,80
2,79,127,80
2,72,127,80
2,79,127,80
2,72,127,80
2,82,127,80
2,72,127,80
2,80,127,80
2,77,127,80
2,80,127,80
2,77,127,80
2,80,127,80
2,75,127,80
2,80,127,80
2,82,127,40
2,83,127,40
2,84,127,40
2,79,127,40
2,72,127,80
2,79,127,80
2,72,127,80
2,79,127,80
2,72,127,80
2,82,127,80
2,72,127,80
2,80,127,80
2,77,127,80
2,80,127,80
2,77,127,80
2,80,127,80
2,75,127,80
2,77,127,80
2,72,127,80
2,79,127,80
2,72,127,80
2,79,127,80
2,72,127,80
2,79,127,80
2,72,127,80
2,82,127,80
2,72,127,80
2,80,127,80
2,77,127,80
2,80,127,80
2,77,127,80
2,80,127,80
2,75,127,80
2,80,127,80
2,82,127,40
2,83,127,40
2,84,127,40
2,79,127,40
2,72,127,80
2,79,127,80
2,72,127,80
2,79,127,80
2,72,127,80
2,82,127,80
2,72,127,80
2,67,78,2240
2,72,78,0
2,67,78,200
2,72,78,0
2,65,78,200
2,70,78,0
2,65,78,200
2,70,78,0
2,65,78,200
2,70,78,0
2,70,78,320
2,65,78,0
2,70,78,200
2,65,78,0
2,63,78,200
2,70,78,0
2,63,78,200
2,70,78,0
2,63,78,200
2,70,78,0
2,67,78,320
2,72,78,0
2,67,78,200
2,72,78,0
2,65,78,200
2,70,78,0
2,65,78,200
2,70,78,0
2,65,78,200
2,70,78,0
2,70,78,320
2,65,78,0
2,70,78,200
2,65,78,0
2,63,78,200
2,70,78,0
2,63,78,200
2,70,78,0
2,63,78,200
2,70,78,0
2,67,78,320
2,72,78,0
2,67,78,200
2,72,78,0
2,65,78,200
2,70,78,0
2,65,78,200
2,70,78,0
2,65,78,200
2,70,78,0
2,70,78,320
2,65,78,0
2,70,78,200
2,65,78,0
2,63,78,200
2,70,78,0
2,63,78,200
2,70,78,0
2,63,78,200
2,70,78,0
2,67,78,320
2,72,78,0
2,67,78,200
2,72,78,0
2,65,78,200
2,70,78,0
2,65,78,200
2,70,78,0
2,65,78,200
2,70,78,0
2,70,78,320
2,65,78,0
2,70,78,200
2,65,78,0
2,63,78,200
2,70,78,0
2,63,78,200
2,70,78,0
2,63,78,200
2,70,78,0
2,79,127,80
2,72,127,80
2,79,127,80
2,72,127,80
2,79,127,80
2,72,127,80
2,82,127,80
2,72,127,80
2,80,127,80
2,77,127,80
2,80,127,80
2,77,127,80
2,80,127,80
2,75,127,80
2,80,127,80
2,82,127,40
2,83,127,40
2,84,127,40
2,79,127,40
2,72,127,80
2,79,127,80
2,72,127,80
2,79,127,80
2,72,127,80
2,82,127,80
2,72,127,80
2,80,127,80
2,77,127,80
2,80,127,80
2,77,127,80
2,80,127,80
2,75,127,80
2,77,127,80
2,72,127,80
2,79,127,80
2,72,127,80
2,79,127,80
2,72,127,80
2,79,127,80
2,72,127,80
2,82,127,80
2,72,127,80
2,80,127,80
2,77,127,80
2,80,127,80
2,77,127,80
2,80,127,80
2,75,127,80
2,80,127,80
2,82,127,40
2,83,127,40
2,84,127,40
2,79,127,40
2,72,127,80
2,79,127,80
2,72,127,80
2,79,127,80
2,72,127,80
2,82,127,80
2,72,127,80
2,80,127,80
2,77,127,80
2,80,127,80
2,77,127,80
2,80,127,80
2,75,127,80
2,77,127,80
2,72,127,80
2,79,127,80
2,72,127,80
2,79,127,80
2,72,127,80
2,79,127,80
2,72,127,80
2,82,127,80
2,72,127,80
2,80,127,80
2,77,127,80
2,80,127,80
2,77,127,80
2,80,127,80
2,75,127,80
2,80,127,80
2,82,127,40
2,83,127,40
2,84,127,40
2,79,127,40
2,72,127,80
2,79,127,80
2,72,127,80
2,79,127,80
2,72,127,80
2,82,127,80
2,72,127,80
2,80,127,80
2,77,127,80
2,80,127,80
2,77,127,80
2,80,127,80
2,75,127,80
2,77,127,80
2,72,127,80
3,39,127,8160
3,39,127,880
3,39,127,880
3,39,127,880
3,39,127,880
3,39,127,880
3,39,127,880
3,39,127,880
3,42,112,400
3,46,127,80
3,39,127,160
3,42,112,0
3,46,127,80
3,42,112,160
3,46,127,80
3,39,127,160
3,42,112,0
3,46,127,80
3,42,112,160
3,46,127,80
3,39,127,160
3,42,112,0
3,46,127,80
3,42,112,160
3,46,127,80
3,39,127,160
3,42,112,0
3,46,127,80
3,42,112,160
3,46,127,80
3,39,127,160
3,42,112,0
3,46,127,80
3,42,112,160
3,46,127,80
3,39,127,160
3,42,112,0
3,46,127,80
3,36,127,160
3,36,127,1760
3,42,112,0
3,55,127,0
3,46,127,80
3,69,40,0
3,69,51,40
3,36,127,40
3,39,127,0
3,42,112,0
3,46,127,80
3,69,40,0
