track,note,velocity,time
0,60,64,1476
0,61,64,122
0,61,64,2
0,60,64,2
0,61,64,122
0,61,64,2
0,60,64,2
0,61,64,32
0,61,64,2
0,60,64,2
0,61,64,122
0,61,64,2
0,60,64,2
0,61,64,122
0,61,64,2
0,60,64,2
0,61,64,122
0,61,64,2
0,60,64,2
0,61,64,122
0,61,64,2
0,60,64,2
0,61,64,122
0,61,64,2
0,46,127,2
0,62,127,0
0,65,127,0
0,60,64,0
0,58,127,2
0,61,64,0
0,62,127,2
0,61,64,0
0,65,127,0
0,60,64,0
0,70,127,122
0,61,64,0
0,61,64,2
0,48,127,2
0,64,127,0
0,60,64,0
0,60,127,2
0,61,64,0
0,61,64,2
0,64,127,2
0,60,64,0
0,67,127,2
0,61,64,0
0,61,64,2
0,45,127,2
0,64,127,0
0,60,127,0
0,60,64,0
0,57,127,2
0,61,64,0
0,60,127,2
0,61,64,0
0,64,127,2
0,60,64,0
0,45,127,122
0,69,127,0
0,61,64,0
0,61,64,2
0,50,127,2
0,65,127,0
0,60,64,0
0,64,127,2
0,65,127,2
0,64,127,2
0,50,127,2
0,65,127,0
0,61,64,0
0,64,127,2
0,65,127,2
0,61,64,0
0,64,127,2
0,52,127,2
0,65,127,0
0,60,64,0
0,53,127,2
0,61,64,0
0,61,64,2
0,46,127,2
0,65,127,0
0,62,127,0
0,60,64,0
0,58,127,2
0,61,64,0
0,62,127,2
0,61,64,0
0,65,127,0
0,60,64,0
0,70,127,122
0,61,64,0
0,61,64,2
0,48,127,2
0,64,127,0
0,60,64,0
0,60,127,2
0,61,64,0
0,61,64,2
0,67,127,2
0,60,64,0
0,64,127,2
0,61,64,0
0,61,64,2
0,45,127,2
0,72,127,0
0,60,64,0
0,70,127,2
0,61,64,0
0,61,64,2
0,69,127,2
0,60,64,0
0,45,127,2
0,67,127,0
0,61,64,0
0,61,64,2
0,50,127,2
0,62,127,0
0,60,64,0
0,65,127,2
0,62,127,2
0,65,127,2
0,53,127,2
0,62,127,0
0,61,64,0
0,65,127,2
0,62,127,2
0,61,64,0
0,65,127,2
0,55,127,2
0,62,127,0
0,60,64,0
0,57,127,2
0,61,64,0
0,61,64,2
0,46,127,2
0,62,127,0
0,65,127,0
0,62,127,0
0,65,119,0
0,62,119,0
0,60,64,0
0,58,127,2
0,61,64,0
0,62,127,2
0,61,64,0
0,65,127,0
0,69,127,0
0,60,64,0
0,70,127,34
0,61,64,0
0,61,64,2
0,48,127,2
0,64,127,0
0,67,127,0
0,60,119,0
0,64,119,0
0,67,119,0
0,60,64,0
0,60,127,2
0,61,64,0
0,61,64,2
0,64,127,2
0,67,127,0
0,60,64,0
0,67,127,2
0,65,127,0
0,61,64,0
0,61,64,2
0,45,127,2
0,64,127,0
0,60,127,0
0,67,127,0
0,64,119,0
0,57,119,0
0,60,119,0
0,60,64,0
0,57,127,2
0,65,127,0
0,61,64,0
0,60,127,2
0,61,64,0
0,64,127,2
0,67,127,0
0,60,64,0
0,45,127,2
0,69,127,0
0,69,127,0
0,61,64,0
0,61,64,2
0,50,127,2
0,65,127,0
0,62,127,0
0,69,119,0
0,65,119,0
0,62,119,0
0,60,64,0
0,64,127,2
0,65,127,2
0,64,127,2
0,50,127,2
0,65,127,0
0,61,64,0
0,64,127,2
0,65,127,2
0,61,64,0
0,64,127,2
0,52,127,2
0,65,127,0
0,60,64,0
0,53,127,2
0,62,127,0
0,61,64,0
0,61,64,2
0,46,127,2
0,65,127,0
0,62,127,0
0,62,127,0
0,65,119,0
0,62,119,0
0,58,127,2
0,62,127,2
0,65,127,0
0,69,127,0
0,70,127,4
0,48,127,2
0,64,127,0
0,67,127,0
0,60,119,0
0,64,119,0
0,67,119,0
0,60,127,2
0,65,127,0
0,67,127,2
0,67,127,0
0,64,127,2
0,65,127,0
0,45,127,2
0,72,127,0
0,67,127,0
0,64,119,0
0,57,119,0
0,60,119,0
0,70,127,2
0,69,127,2
0,72,127,0
0,45,127,2
0,67,127,0
0,50,127,2
0,62,127,0
0,69,127,0
0,69,119,0
0,65,119,0
0,62,119,0
0,65,127,2
0,62,127,2
0,65,127,2
0,53,127,2
0,62,127,0
0,65,127,2
0,62,127,2
0,65,127,2
0,55,127,2
0,62,127,0
0,57,127,2
0,46,127,2
0,65,127,0
0,62,127,0
0,62,127,0
0,65,119,0
0,62,119,0
0,46,119,0
0,34,119,0
0,70,127,0
0,69,127,2
0,58,127,2
0,70,127,0
0,62,127,2
0,72,127,0
0,65,127,0
0,69,127,0
0,74,127,0
0,72,127,2
0,70,127,2
0,74,127,0
0,76,127,2
0,48,127,2
0,64,127,0
0,67,127,0
0,60,119,0
0,64,119,0
0,67,119,0
0,48,119,0
0,36,119,0
0,77,127,0
0,76,127,2
0,60,127,2
0,77,127,0
0,79,127,2
0,64,127,2
0,67,127,0
0,81,127,0
0,79,127,2
0,67,127,2
0,65,127,0
0,81,127,0
0,82,127,2
0,45,127,2
0,64,127,0
0,60,127,0
0,67,127,0
0,64,119,0
0,57,119,0
0,60,119,0
0,45,119,0
0,33,119,0
0,84,127,0
0,82,127,2
0,57,127,2
0,65,127,0
0,81,127,0
0,60,127,2
0,79,127,0
0,64,127,2
0,67,127,0
0,81,127,0
0,79,127,2
0,45,127,2
0,69,127,0
0,69,127,0
0,77,127,0
0,76,127,2
0,50,127,2
0,65,127,0
0,62,127,0
0,69,119,0
0,65,119,0
0,62,119,0
0,50,119,0
0,38,119,0
0,74,127,0
0,64,127,2
0,65,127,2
0,64,127,2
0,50,127,2
0,65,127,0
0,64,127,2
0,65,127,2
0,64,127,2
0,52,127,2
0,65,127,0
0,53,127,2
0,62,127,0
0,46,127,2
0,65,127,0
0,62,127,0
0,69,127,0
0,65,119,0
0,62,119,0
0,46,119,0
0,34,119,0
0,70,127,0
0,69,127,2
0,58,127,2
0,70,127,0
0,62,127,2
0,72,127,0
0,65,127,0
0,69,127,0
0,74,127,0
0,72,127,2
0,70,127,2
0,74,127,0
0,76,127,2
0,48,127,2
0,64,127,0
0,67,127,0
0,60,119,0
0,64,119,0
0,67,119,0
0,48,119,0
0,36,119,0
0,77,127,0
0,76,127,2
0,60,127,2
0,65,127,0
0,77,127,0
0,79,127,2
0,67,127,2
0,67,127,0
0,81,127,0
0,79,127,2
0,64,127,2
0,65,127,0
0,81,127,0
0,82,127,2
0,45,127,2
0,72,127,0
0,67,127,0
0,64,119,0
0,57,119,0
0,60,119,0
0,45,119,0
0,33,119,0
0,84,127,0
0,82,127,2
0,70,127,2
0,81,127,0
0,79,127,2
0,69,127,2
0,72,127,0
0,81,127,0
0,79,127,2
0,67,127,2
0,77,127,0
0,76,127,2
0,45,127,2
0,61,127,0
0,69,127,0
0,61,119,0
0,64,119,0
0,69,119,0
0,73,127,0
0,64,127,2
0,61,127,2
0,64,127,2
0,61,127,2
0,64,127,2
0,61,127,2
0,64,127,2
0,61,127,2
0,57,127,242
0,61,127,62
0,64,127,2
0,67,127,122
0,67,127,0
0,64,127,2
0,67,127,2
0,64,127,2
0,67,127,2
0,64,127,2
0,67,127,2
0,64,127,2
0,67,127,2
0,67,127,0
0,64,127,2
0,65,127,2
0,64,127,2
0,50,127,2
0,62,127,0
0,62,127,0
0,69,119,0
0,65,119,0
0,62,119,0
0,38,119,0
0,74,127,0
0,49,127,2
0,61,127,0
0,73,127,0
0,50,127,2
0,62,127,0
0,74,127,0
0,52,127,2
0,64,127,0
0,76,127,0
0,53,127,2
0,65,127,0
0,77,127,0
0,52,127,2
0,64,127,0
0,76,127,0
0,53,127,2
0,65,127,0
0,77,127,0
0,55,127,2
0,67,127,0
0,79,127,0
0,57,127,2
0,69,127,0
0,81,127,0
0,56,127,2
0,68,127,0
0,80,127,0
0,57,127,2
0,69,127,0
0,81,127,0
0,76,64,0
0,61,127,2
0,73,127,0
0,85,127,0
0,62,127,2
0,74,127,0
0,86,127,0
0,38,84,242
0,46,127,2
0,62,127,0
0,65,127,0
0,62,127,0
0,65,119,0
0,62,119,0
0,46,119,0
0,34,119,0
0,62,127,0
0,34,127,0
0,36,127,0
0,46,64,0
0,70,84,0
0,70,84,2
0,58,127,2
0,58,127,0
0,69,84,0
0,62,127,2
0,34,127,0
0,46,64,0
0,69,84,0
0,65,127,0
0,69,127,0
0,62,127,0
0,36,127,0
0,39,94,0
0,70,84,0
0,70,84,2
0,70,127,2
0,58,127,0
0,34,127,0
0,46,64,0
0,69,84,0
0,69,84,2
0,38,84,0
0,48,127,2
0,64,127,0
0,67,127,0
0,60,119,0
0,64,119,0
0,67,119,0
0,48,119,0
0,36,119,0
0,64,127,0
0,36,127,0
0,36,127,0
0,48,64,0
0,70,84,0
0,70,84,2
0,60,127,2
0,60,127,0
0,69,84,0
0,36,127,2
0,48,64,0
0,69,84,10
0,64,127,2
0,67,127,0
0,64,127,0
0,36,127,0
0,39,94,0
0,70,84,0
0,70,84,2
0,67,127,2
0,65,127,0
0,60,127,0
0,36,127,0
0,48,64,0
0,69,84,0
0,69,84,2
0,45,127,2
0,64,127,0
0,60,127,0
0,67,127,0
0,64,119,0
0,57,119,0
0,60,119,0
0,45,119,0
0,33,119,0
0,64,127,0
0,33,127,0
0,36,127,0
0,45,64,0
0,70,84,0
0,70,84,2
0,57,127,2
0,65,127,0
0,60,127,0
0,69,84,0
0,60,127,2
0,33,127,0
0,45,64,0
0,69,84,0
0,64,127,2
0,67,127,0
0,64,127,0
0,36,127,0
0,39,94,0
0,70,84,0
0,70,84,2
0,45,127,2
0,69,127,0
0,69,127,0
0,60,127,0
0,33,127,0
0,45,64,0
0,69,84,0
0,69,84,2
0,50,127,2
0,65,127,0
0,62,127,0
0,69,119,0
0,65,119,0
0,62,119,0
0,50,119,0
0,38,119,0
0,65,127,0
0,38,127,0
0,36,127,0
0,50,64,0
0,70,84,0
0,64,127,2
0,65,127,2
0,70,84,0
0,64,127,2
0,50,127,2
0,65,127,0
0,62,127,0
0,38,127,0
0,50,64,0
0,69,84,0
0,64,127,2
0,65,127,2
0,69,84,10
0,64,127,2
0,52,127,2
0,65,127,0
0,65,127,0
0,36,127,0
0,36,127,0
0,48,64,0
0,39,94,0
0,70,84,0
0,38,127,2
0,50,64,0
0,70,84,0
0,53,127,2
0,62,127,0
0,67,127,0
0,36,127,0
0,48,64,0
0,69,84,0
0,69,84,2
0,38,84,0
0,46,127,2
0,65,127,0
0,62,127,0
0,62,127,0
0,65,119,0
0,62,119,0
0,46,119,0
0,34,119,0
0,62,127,0
0,34,127,0
0,36,127,0
0,46,64,0
0,70,84,0
0,70,84,2
0,58,127,2
0,58,127,0
0,69,84,0
0,62,127,2
0,34,127,0
0,46,64,0
0,69,84,0
0,65,127,0
0,69,127,0
0,62,127,0
0,36,127,0
0,39,94,0
0,70,84,0
0,70,84,2
0,70,127,2
0,58,127,0
0,34,127,0
0,46,64,0
0,69,84,0
0,69,84,2
0,38,84,0
0,48,127,2
0,64,127,0
0,67,127,0
0,60,119,0
0,64,119,0
0,67,119,0
0,48,119,0
0,36,119,0
0,64,127,0
0,36,127,0
0,36,127,0
0,48,64,0
0,70,84,0
0,70,84,2
0,60,127,2
0,65,127,0
0,60,127,0
0,69,84,0
0,36,127,2
0,48,64,0
0,69,84,10
0,67,127,2
0,67,127,0
0,64,127,0
0,36,127,0
0,39,94,0
0,70,84,0
0,70,84,2
0,64,127,2
0,65,127,0
0,60,127,0
0,36,127,0
0,48,64,0
0,69,84,0
0,69,84,2
0,45,127,2
0,72,127,0
0,67,127,0
0,64,119,0
0,57,119,0
0,60,119,0
0,45,119,0
0,33,119,0
0,64,127,0
0,33,127,0
0,36,127,0
0,45,64,0
0,70,84,0
0,70,84,2
0,70,127,2
0,60,127,0
0,69,84,0
0,33,127,2
0,45,64,0
0,69,84,0
0,69,127,2
0,72,127,0
0,64,127,0
0,36,127,0
0,39,94,0
0,70,84,0
0,70,84,2
0,45,127,2
0,67,127,0
0,60,127,0
0,33,127,0
0,45,64,0
0,69,84,0
0,69,84,2
0,50,127,2
0,62,127,0
0,69,127,0
0,69,119,0
0,65,119,0
0,62,119,0
0,50,119,0
0,38,119,0
0,65,127,0
0,38,127,0
0,36,127,0
0,50,64,0
0,70,84,0
0,65,127,2
0,62,127,2
0,70,84,0
0,65,127,2
0,53,127,2
0,62,127,0
0,62,127,0
0,38,127,0
0,50,64,0
0,69,84,0
0,65,127,2
0,62,127,2
0,69,84,10
0,65,127,2
0,55,127,2
0,62,127,0
0,67,127,0
0,36,127,0
0,36,127,0
0,48,64,0
0,39,94,0
0,70,84,0
0,38,127,2
0,50,64,0
0,70,84,0
0,57,127,2
0,69,127,0
0,36,127,0
0,48,64,0
0,69,84,0
0,69,84,2
0,38,84,0
0,46,127,2
0,62,127,0
0,65,127,0
0,62,127,0
0,65,119,0
0,62,119,0
0,46,119,0
0,34,119,0
0,62,127,0
0,34,127,0
0,36,127,0
0,46,64,0
0,70,84,0
0,70,84,2
0,58,127,2
0,69,84,0
0,34,127,2
0,46,64,0
0,69,84,0
0,69,127,2
0,62,127,0
0,36,127,0
0,39,94,0
0,70,84,0
0,70,84,2
0,58,127,2
0,34,127,0
0,46,64,0
0,69,84,0
0,69,84,2
0,38,84,0
0,67,127,2
0,60,119,0
0,64,119,0
0,67,119,0
0,48,119,0
0,36,119,0
0,64,127,0
0,36,127,0
0,36,127,0
0,48,64,0
0,70,84,0
0,70,84,2
0,60,127,2
0,69,84,0
0,36,127,2
0,48,64,0
0,69,84,10
0,67,127,2
0,64,127,0
0,36,127,0
0,39,94,0
0,70,84,0
0,70,84,2
0,65,127,2
0,60,127,0
0,36,127,0
0,48,64,0
0,69,84,0
0,69,84,2
0,67,127,2
0,64,119,0
0,57,119,0
0,60,119,0
0,45,119,0
0,33,119,0
0,64,127,0
0,33,127,0
0,36,127,0
0,45,64,0
0,70,84,0
0,70,84,2
0,65,127,2
0,60,127,0
0,69,84,0
0,33,127,2
0,45,64,0
0,69,84,0
0,67,127,2
0,64,127,0
0,36,127,0
0,39,94,0
0,70,84,0
0,70,84,2
0,69,127,2
0,60,127,0
0,33,127,0
0,45,64,0
0,69,84,0
0,69,84,2
0,62,127,2
0,69,119,0
0,65,119,0
0,62,119,0
0,50,119,0
0,38,119,0
0,65,127,0
0,38,127,0
0,36,127,0
0,50,64,0
0,70,84,0
0,70,84,2
0,62,127,2
0,38,127,0
0,50,64,0
0,69,84,0
0,69,84,12
0,65,127,2
0,36,127,0
0,36,127,0
0,48,64,0
0,39,94,0
0,70,84,0
0,38,127,2
0,50,64,0
0,70,84,0
0,62,127,2
0,67,127,0
0,36,127,0
0,48,64,0
0,69,84,0
0,69,84,2
0,38,84,0
0,69,127,2
0,65,119,0
0,62,119,0
0,46,119,0
0,34,119,0
0,62,127,0
0,34,127,0
0,36,127,0
0,46,64,0
0,70,84,0
0,70,84,2
0,58,127,2
0,69,84,0
0,34,127,2
0,46,64,0
0,69,84,0
0,69,127,2
0,62,127,0
0,36,127,0
0,39,94,0
0,70,84,0
0,70,84,2
0,58,127,2
0,34,127,0
0,46,64,0
0,69,84,0
0,69,84,2
0,38,84,0
0,67,127,2
0,60,119,0
0,64,119,0
0,67,119,0
0,48,119,0
0,36,119,0
0,64,127,0
0,36,127,0
0,36,127,0
0,48,64,0
0,70,84,0
0,70,84,2
0,65,127,2
0,60,127,0
0,69,84,0
0,36,127,2
0,48,64,0
0,69,84,10
0,67,127,2
0,64,127,0
0,36,127,0
0,39,94,0
0,70,84,0
0,70,84,2
0,65,127,2
0,60,127,0
0,36,127,0
0,48,64,0
0,69,84,0
0,69,84,2
0,67,127,2
0,64,119,0
0,57,119,0
0,60,119,0
0,45,119,0
0,33,119,0
0,60,127,0
0,33,127,0
0,36,127,0
0,45,64,0
0,70,84,0
0,70,84,2
0,57,127,2
0,69,84,0
0,33,127,2
0,45,64,0
0,69,84,0
0,72,127,2
0,60,127,0
0,36,127,0
0,39,94,0
0,70,84,0
