track,note,velocity,time
1,36,125,10
1,36,125,841
1,36,125,121
1,36,125,121
1,36,125,121
1,36,125,121
1,36,125,121
1,36,125,121
1,36,125,121
1,36,125,121
1,36,125,121
1,36,125,121
1,36,125,121
1,36,125,121
1,36,125,121
1,36,125,121
1,36,125,121
1,36,125,121
1,36,125,121
1,36,125,121
1,36,125,121
1,36,125,121
1,36,125,121
1,36,125,121
1,36,125,121
1,36,125,121
1,36,125,121
1,36,125,121
1,36,125,121
1,36,125,1081
1,36,125,121
1,36,125,121
1,36,125,121
1,36,125,121
1,36,125,121
1,36,125,121
1,36,125,121
1,36,125,121
1,36,125,121
1,36,125,121
1,36,125,121
1,36,125,121
1,36,125,121
1,36,125,121
1,36,125,121
1,36,125,121
1,36,125,121
1,36,125,121
1,36,125,121
1,36,125,121
1,36,125,121
1,36,125,121
1,36,125,121
1,36,125,121
1,36,125,121
1,36,125,121
1,36,125,121
1,36,125,121
1,36,125,121
1,36,125,121
1,36,125,121
1,36,125,121
1,36,125,121
1,36,125,121
1,36,125,121
1,36,125,121
1,36,125,121
1,36,125,121
1,36,125,121
1,36,125,121
1,36,125,121
1,36,125,121
1,36,125,121
1,36,125,121
1,36,125,121
1,36,125,121
1,36,125,121
1,36,125,121
1,36,125,121
1,36,125,121
1,36,125,121
1,36,125,121
1,36,125,121
1,36,125,121
1,36,125,121
1,36,125,121
1,36,125,121
1,36,125,121
1,36,125,121
1,36,125,1081
1,36,125,121
1,36,125,121
1,36,125,121
1,36,125,121
1,36,125,121
1,36,125,121
1,36,125,121
1,36,125,121
1,36,125,121
1,36,125,121
1,36,125,121
1,36,125,121
1,36,125,121
1,36,125,121
1,36,125,121
1,36,125,121
1,36,125,121
1,36,125,121
1,36,125,121
1,36,125,121
1,36,125,121
1,36,125,121
1,36,125,121
1,36,125,121
1,36,125,121
1,36,125,121
1,36,125,121
1,36,125,121
1,36,125,121
1,36,125,121
1,36,125,121
1,36,125,121
1,36,125,121
1,36,125,121
1,36,125,121
1,36,125,121
1,36,125,121
1,36,125,121
1,36,125,121
1,36,125,121
1,36,125,121
1,36,125,121
1,36,125,121
1,36,125,121
1,36,125,121
1,36,125,121
1,36,125,121
1,36,125,121
1,36,125,121
1,36,125,121
1,36,125,121
1,36,125,121
1,36,125,121
1,36,125,121
1,36,125,121
1,36,125,121
1,36,125,121
1,36,125,121
1,36,125,121
1,36,125,1081
1,36,125,121
1,36,125,121
1,36,125,121
1,36,125,121
1,36,125,121
1,36,125,121
1,36,125,121
1,36,125,121
1,36,125,121
1,36,125,121
1,36,125,121
1,36,125,121
1,36,125,121
1,36,125,121
1,36,125,121
1,36,125,121
1,36,125,121
1,36,125,121
1,36,125,121
1,36,125,121
1,36,125,121
1,36,125,121
1,36,125,121
1,36,125,121
1,36,125,121
1,36,125,121
1,36,125,121
1,36,125,121
1,36,125,121
1,36,125,121
1,36,125,121
1,36,125,121
1,36,125,121
1,36,125,121
1,36,125,121
1,36,125,121
1,36,125,121
1,36,125,121
1,36,125,121
1,36,125,121
1,36,125,121
1,36,125,121
1,36,125,121
1,36,125,121
1,36,125,121
1,36,125,121
1,36,125,121
1,36,125,121
1,36,125,121
1,36,125,121
1,36,125,121
1,36,125,121
1,36,125,121
1,36,125,121
1,36,125,121
1,36,125,121
1,36,125,121
1,36,125,121
1,36,125,121
1,36,125,1081
1,36,125,121
1,36,125,121
1,36,125,121
1,36,125,121
1,36,125,121
1,36,125,121
1,36,125,121
1,36,125,121
1,36,125,121
1,36,125,121
1,36,125,121
1,36,125,121
1,36,125,121
1,36,125,121
1,36,125,121
1,36,125,121
1,36,125,121
1,36,125,121
1,36,125,121
1,36,125,121
1,36,125,121
1,36,125,121
1,36,125,121
1,36,125,121
1,36,125,121
1,36,125,121
1,36,125,121
1,36,125,121
1,36,125,121
1,36,125,121
1,36,125,121
1,36,125,121
1,36,125,121
1,36,125,121
1,36,125,121
1,36,125,121
1,36,125,121
1,36,125,121
1,36,125,121
1,36,125,121
1,36,125,121
1,36,125,121
1,36,125,121
1,36,125,121
1,36,125,121
1,36,125,121
1,36,125,121
1,36,125,121
1,36,125,121
1,36,125,121
1,36,125,121
1,36,125,121
1,36,125,121
1,36,125,121
1,36,125,121
1,36,125,121
1,36,125,1801
1,36,125,7561
1,36,125,121
1,36,125,121
1,36,125,121
1,36,125,121
1,36,125,121
1,36,125,121
1,36,125,121
1,36,125,121
1,36,125,121
1,36,125,121
1,36,125,121
1,36,125,121
1,36,125,121
1,36,125,121
1,36,125,121
1,36,125,121
1,36,125,121
1,36,125,121
1,36,125,121
1,36,125,121
1,36,125,121
1,36,125,121
1,36,125,121
1,36,125,121
1,36,125,121
1,36,125,121
1,36,125,121
1,36,125,1081
1,36,125,121
1,36,125,121
1,36,125,121
1,36,125,121
1,36,125,121
1,36,125,121
1,36,125,121
1,36,125,121
1,36,125,121
1,36,125,121
1,36,125,121
1,36,125,121
1,36,125,121
1,36,125,121
1,36,125,121
1,36,125,121
1,36,125,121
1,36,125,121
1,36,125,121
1,36,125,121
1,36,125,121
1,36,125,121
1,36,125,121
1,36,125,121
1,36,125,121
1,36,125,121
1,36,125,121
1,36,125,121
1,36,125,121
1,36,125,121
1,36,125,121
1,36,125,121
1,36,125,121
1,36,125,121
1,36,125,121
1,36,125,121
1,36,125,121
1,36,125,121
1,36,125,121
1,36,125,121
1,36,125,121
1,36,125,121
1,36,125,121
1,36,125,121
1,36,125,121
1,36,125,121
1,36,125,121
1,36,125,121
1,36,125,121
1,36,125,121
1,36,125,121
1,36,125,121
1,36,125,121
1,36,125,121
1,36,125,121
1,36,125,121
1,36,125,121
1,36,125,121
1,36,125,121
1,36,125,121
1,36,125,121
1,36,125,121
1,36,125,1
1,36,125,1
1,36,125,61
1,36,125,1
2,49,54,18360
2,49,54,181
2,49,54,181
2,49,54,181
2,49,54,181
2,49,54,181
2,49,54,181
2,49,54,181
2,49,54,181
2,49,54,181
2,49,54,181
2,49,54,181
2,49,54,181
2,49,54,181
2,49,54,181
2,49,54,181
2,49,54,181
2,49,54,181
2,49,54,181
2,49,54,181
2,49,54,181
2,49,54,181
2,49,54,181
2,49,54,181
2,49,54,181
2,49,54,181
2,49,54,181
2,49,54,181
2,49,54,181
2,49,54,181
2,49,54,181
2,49,54,181
2,49,54,181
2,49,54,181
2,49,54,181
2,49,54,181
2,49,54,181
2,49,54,181
2,49,54,181
2,49,54,181
2,49,54,181
2,49,54,181
2,49,54,181
2,49,54,181
2,49,54,181
2,49,54,181
2,49,54,181
2,49,54,181
2,49,54,181
2,49,54,181
2,49,54,181
2,49,54,181
2,49,54,181
2,49,54,181
2,49,54,181
2,49,54,181
2,49,54,181
2,49,54,181
2,49,54,181
2,49,54,181
2,49,54,181
2,49,54,181
2,49,54,181
2,49,54,181
2,49,54,181
2,49,54,181
2,49,54,181
2,49,54,181
2,49,54,181
2,49,54,181
2,49,54,181
2,49,54,181
2,49,54,181
2,49,54,181
2,49,54,181
2,49,54,181
2,49,54,181
2,49,54,181
2,49,54,181
2,49,54,181
2,49,54,181
2,49,54,181
2,49,54,181
2,49,54,181
2,49,54,181
2,49,54,181
2,49,54,181
2,49,54,181
2,49,54,181
2,49,54,181
2,49,54,181
2,49,54,181
2,49,54,1141
2,49,54,181
2,49,54,181
2,49,54,181
2,49,54,181
2,49,54,181
2,49,54,181
2,49,54,181
2,49,54,181
2,49,54,181
2,49,54,181
2,49,54,181
2,49,54,181
2,49,54,181
2,49,54,181
2,49,54,181
2,49,54,181
2,49,54,181
2,49,54,181
2,49,54,181
2,49,54,181
2,49,54,181
2,49,54,181
2,49,54,181
2,49,54,181
2,49,54,181
2,49,54,181
2,49,54,181
2,49,54,181
2,49,54,181
2,49,54,181
2,49,54,421
2,49,54,181
2,49,54,181
2,49,54,181
2,49,54,181
2,49,54,181
2,49,54,181
2,49,54,181
2,49,54,181
2,49,54,181
2,49,54,181
2,49,54,181
2,49,54,181
2,49,54,181
2,49,54,181
2,49,54,181
2,49,54,181
2,49,54,181
2,49,54,181
2,49,54,181
2,49,54,181
2,49,54,181
2,49,54,181
2,49,54,181
2,49,54,181
2,49,54,181
2,49,54,181
2,49,54,181
2,49,54,181
2,49,54,181
2,49,54,181
2,49,54,181
2,49,54,181
2,49,54,181
2,49,54,181
2,49,54,181
2,49,54,181
2,49,54,181
2,49,54,181
2,49,54,181
2,49,54,181
2,49,54,181
2,49,54,181
2,49,54,181
2,49,54,181
2,49,54,181
2,49,54,181
2,49,54,181
2,49,54,181
2,49,54,181
2,49,54,181
2,49,54,181
2,49,54,181
2,49,54,181
2,49,54,181
2,49,54,181
2,49,54,181
2,49,54,181
2,49,54,181
2,49,54,181
2,49,54,181
2,49,54,181
2,49,54,181
2,49,54,181
2,49,54,181
2,49,54,181
2,49,54,181
2,49,54,181
2,49,54,181
2,49,54,181
2,49,54,181
2,49,54,181
2,49,54,181
2,49,54,181
2,49,54,181
2,49,54,181
2,49,54,181
2,49,54,181
2,49,54,181
2,49,54,181
2,49,54,181
2,49,54,181
2,49,54,181
2,49,54,181
2,49,54,181
2,49,54,181
2,49,54,181
2,49,54,181
2,49,54,181
2,49,54,181
2,49,54,181
2,49,54,181
2,49,54,1141
2,49,54,181
2,49,54,181
2,49,54,181
2,49,54,181
2,49,54,181
2,49,54,181
2,49,54,181
2,49,54,181
2,49,54,181
2,49,54,181
2,49,54,181
2,49,54,181
2,49,54,181
2,49,54,181
2,49,54,181
2,49,54,181
2,49,54,181
2,49,54,181
2,49,54,181
2,49,54,181
2,49,54,181
2,49,54,181
2,49,54,181
2,49,54,181
2,49,54,181
2,49,54,181
2,49,54,181
2,49,54,181
2,49,54,181
2,49,54,181
2,49,54,181
2,49,54,181
2,49,54,181
2,49,54,181
2,49,54,181
2,49,54,181
2,49,54,181
2,49,54,181
2,49,54,181
2,49,54,181
2,49,54,181
2,49,54,181
2,49,54,181
2,49,54,181
2,49,54,181
2,49,54,181
2,49,54,181
2,49,54,181
2,49,54,181
2,49,54,181
2,49,54,181
2,49,54,181
2,49,54,181
2,49,54,181
2,49,54,181
2,49,54,181
2,49,54,181
2,49,54,181
2,49,54,181
2,49,54,181
2,49,54,181
2,49,54,181
2,49,54,181
2,39,64,301
2,39,64,361
2,39,64,361
2,39,64,361
2,39,64,361
2,39,64,361
2,39,64,361
2,39,64,361
2,39,64,361
2,39,64,361
2,39,64,361
2,39,64,361
2,39,64,361
2,39,64,361
2,39,64,361
2,39,64,361
2,49,54,241
2,49,54,181
2,49,54,181
2,49,54,181
2,49,54,181
2,49,54,181
2,49,54,181
2,49,54,181
2,49,54,181
2,49,54,181
2,49,54,181
2,49,54,181
2,49,54,181
2,49,54,181
2,49,54,181
2,49,54,181
2,49,54,181
2,49,54,181
2,49,54,181
2,49,54,181
2,49,54,181
2,49,54,181
2,49,54,181
2,49,54,181
2,49,54,181
2,49,54,181
2,49,54,181
2,49,54,181
2,49,54,181
2,49,54,181
2,49,54,181
2,49,54,181
2,49,54,181
2,49,54,181
2,49,54,181
2,49,54,181
2,49,54,181
2,49,54,181
2,49,54,181
2,49,54,181
2,49,54,181
2,49,54,181
2,49,54,181
2,49,54,181
2,49,54,181
2,49,54,181
2,49,54,181
2,49,54,181
2,49,54,181
2,49,54,181
2,49,54,181
2,49,54,181
2,49,54,181
2,49,54,181
2,49,54,181
2,49,54,181
2,49,54,181
2,49,54,181
2,49,54,181
2,49,54,181
2,49,54,181
2,49,54,181
2,49,54,181
2,49,54,181
2,49,54,181
2,49,54,181
2,49,54,181
2,49,54,181
2,49,54,181
2,49,54,181
2,49,54,181
2,49,54,181
2,49,54,181
2,49,54,181
2,49,54,181
2,49,54,181
2,49,54,181
2,49,54,181
2,49,54,181
2,49,54,181
2,49,54,181
2,49,54,181
2,49,54,181
2,49,54,181
2,49,54,181
2,49,54,181
2,49,54,181
2,49,54,181
2,49,54,181
2,49,54,181
2,49,54,181
2,49,54,181
2,49,54,181
2,49,54,181
2,49,54,181
2,49,54,181
3,79,64,2855
3,48,64,0
3,72,64,1
3,75,64,1
3,79,64,1
3,77,64,1
3,72,64,1
3,79,64,1
3,72,64,1
3,80,64,1
3,44,64,0
3,72,64,1
3,75,64,1
3,80,64,1
3,77,64,1
3,46,64,0
3,70,64,1
3,74,64,1
3,77,64,1
3,75,64,1
3,48,64,0
3,67,64,1
3,72,64,1
3,75,64,1
3,74,64,1
3,67,64,1
3,75,64,1
3,67,64,1
3,75,64,1
3,44,64,0
3,68,64,1
3,72,64,1
3,75,64,1
3,77,64,1
3,46,64,0
3,70,64,1
3,74,64,1
3,77,64,1
3,79,64,1
3,48,64,0
3,72,64,1
3,75,64,1
3,79,64,1
3,77,64,1
3,72,64,1
3,79,64,1
3,72,64,1
3,80,64,1
3,44,64,0
3,72,64,1
3,75,64,1
3,80,64,1
3,77,64,1
3,46,64,0
3,70,64,1
3,74,64,1
3,72,64,1
3,79,64,0
3,75,64,0
3,48,64,0
3,72,64,1
3,75,64,0
3,80,64,0
3,44,64,0
3,74,64,1
3,70,64,0
3,77,64,0
3,46,64,0
3,60,64,23161
3,67,64,0
3,63,64,0
3,67,64,61
3,63,64,0
3,60,64,0
3,68,64,121
3,63,64,0
3,60,64,0
3,60,64,121
3,63,64,0
3,68,64,0
3,68,64,121
3,63,64,0
3,60,64,0
3,67,64,181
3,63,64,0
3,58,64,0
3,67,64,61
3,63,64,0
3,58,64,0
3,58,64,121
3,62,64,0
3,65,64,0
3,58,64,121
3,62,64,0
3,65,64,0
3,58,64,121
3,62,64,0
3,65,64,0
3,60,64,181
3,67,64,0
3,63,64,0
3,67,64,61
3,63,64,0
3,60,64,0
3,68,64,121
3,63,64,0
3,60,64,0
3,60,64,121
3,63,64,0
3,68,64,0
3,68,64,121
3,63,64,0
3,60,64,0
3,67,64,181
3,63,64,0
3,58,64,0
3,67,64,61
3,63,64,0
3,58,64,0
3,58,64,121
3,62,64,0
3,65,64,0
3,58,64,121
3,62,64,0
3,65,64,0
3,58,64,121
3,62,64,0
3,65,64,0
3,60,64,181
3,67,64,0
3,63,64,0
3,67,64,61
3,63,64,0
3,60,64,0
3,68,64,121
3,63,64,0
3,60,64,0
3,60,64,121
3,63,64,0
3,68,64,0
3,68,64,121
3,63,64,0
3,60,64,0
3,67,64,181
3,63,64,0
3,58,64,0
3,67,64,61
3,63,64,0
3,58,64,0
3,58,64,121
3,62,64,0
3,65,64,0
3,58,64,121
3,62,64,0
3,65,64,0
3,58,64,121
3,62,64,0
3,65,64,0
3,60,64,181
3,63,64,0
3,68,64,0
3,63,64,61
3,60,64,0
3,68,64,0
3,60,64,121
3,65,64,0
3,68,64,0
3,60,64,121
3,68,64,0
3,65,64,0
3,68,64,121
3,60,64,0
3,65,64,0
3,60,64,1141
3,67,64,0
3,63,64,0
3,67,64,61
3,63,64,0
3,60,64,0
3,68,64,121
3,63,64,0
3,60,64,0
3,60,64,121
3,63,64,0
3,68,64,0
3,68,64,121
3,63,64,0
3,60,64,0
3,67,64,181
3,63,64,0
3,58,64,0
3,67,64,61
3,63,64,0
3,58,64,0
3,58,64,121
3,62,64,0
3,65,64,0
3,58,64,121
3,62,64,0
3,65,64,0
3,58,64,121
3,62,64,0
3,65,64,0
3,60,64,181
3,67,64,0
3,63,64,0
3,67,64,61
3,63,64,0
3,60,64,0
3,68,64,121
3,63,64,0
3,60,64,0
3,60,64,121
3,63,64,0
3,68,64,0
3,68,64,121
3,63,64,0
3,60,64,0
3,67,64,181
3,63,64,0
3,58,64,0
3,67,64,61
3,63,64,0
3,58,64,0
3,58,64,121
3,62,64,0
3,65,64,0
3,58,64,121
3,62,64,0
3,65,64,0
3,58,64,121
3,62,64,0
3,65,64,0
3,60,64,181
3,67,64,0
3,63,64,0
3,67,64,61
3,63,64,0
3,60,64,0
3,68,64,121
3,63,64,0
3,60,64,0
3,60,64,121
3,63,64,0
3,68,64,0
3,68,64,121
3,63,64,0
