track,note,velocity,time
1,27,95,9235
1,27,0,33
1,27,80,87
1,27,0,36
1,32,72,29
1,32,0,43
1,32,60,77
1,32,0,27
1,32,64,28
1,32,0,36
1,32,63,29
1,32,0,37
1,27,89,18
1,27,0,37
1,27,65,28
1,27,0,31
1,27,70,24
1,27,0,40
1,32,79,80
1,32,0,40
1,32,68,80
1,32,0,26
1,32,65,39
1,32,0,33
1,27,93,22
1,27,0,40
1,27,86,80
1,27,0,35
1,32,77,30
1,32,0,37
1,32,69,83
1,32,0,27
1,32,71,28
1,32,0,32
1,32,64,33
1,32,0,32
1,27,88,23
1,27,0,35
1,32,77,30
1,32,0,32
1,27,59,23
1,27,0,23
1,32,89,97
1,32,0,36
1,32,72,84
1,32,0,28
1,32,68,37
1,32,0,35
1,27,91,20
1,27,0,40
1,27,79,80
1,27,0,33
1,27,51,32
1,27,0,45
1,32,79,10
1,32,0,36
1,32,70,84
1,32,0,30
1,32,70,35
1,32,0,37
1,27,89,18
1,27,0,36
1,32,78,29
1,32,0,28
1,27,78,27
1,27,0,32
1,32,84,88
1,32,0,32
1,32,80,88
1,32,0,30
1,32,72,35
1,32,0,32
1,27,87,23
1,27,0,40
1,27,86,80
1,27,0,38
1,32,84,82
1,32,0,36
1,32,79,84
1,32,0,33
1,32,56,32
1,32,0,27
1,27,88,28
1,27,0,43
1,27,87,77
1,27,0,42
1,32,88,78
1,32,0,33
1,32,75,87
1,32,0,30
1,32,70,35
1,32,0,33
1,27,107,22
1,27,0,60
1,66,87,540
1,66,0,37
1,65,89,23
1,65,0,28
1,65,80,92
1,65,0,15
1,65,87,45
1,65,0,25
1,27,94,95
1,36,105,0
1,42,103,0
1,44,107,0
1,49,88,0
1,56,82,0
1,57,74,0
1,44,0,32
1,27,0,1
1,36,0,4
1,49,0,6
1,57,0,5
1,42,0,34
1,27,79,38
1,44,51,0
1,67,35,0
1,44,0,15
1,56,0,3
1,67,0,3
1,27,0,15
1,32,71,29
1,44,66,0
1,67,43,0
1,44,0,27
1,67,0,9
1,32,0,7
1,28,74,12
1,36,103,0
1,39,104,0
1,42,74,0
1,56,77,0
1,39,0,31
1,42,0,2
1,36,0,4
1,28,0,9
1,32,59,19
1,32,0,27
1,32,63,28
1,44,53,0
1,68,59,0
1,44,0,20
1,56,0,1
1,68,0,10
1,32,0,5
1,32,62,29
1,44,60,0
1,68,36,0
1,68,0,30
1,44,0,1
1,32,0,6
1,27,88,18
1,36,99,0
1,42,93,0
1,44,90,0
1,56,73,0
1,44,0,33
1,27,0,4
1,36,0,10
1,27,64,18
1,42,0,10
1,27,0,21
1,27,69,24
1,44,53,0
1,67,44,0
1,56,0,15
1,44,0,3
1,67,0,3
1,27,0,19
1,44,35,25
1,67,27,0
1,44,0,21
1,67,0,1
1,28,79,33
1,32,78,0
1,36,103,0
1,39,99,0
1,42,64,0
1,56,76,0
1,39,0,33
1,28,0,2
1,32,0,5
1,42,0,1
1,36,0,52
1,32,67,27
1,44,53,0
1,68,40,0
1,68,0,15
1,32,0,11
1,44,0,1
1,56,0,9
1,32,64,29
1,44,54,0
1,68,34,0
1,44,0,28
1,32,0,5
1,68,0,4
1,27,92,18
1,36,99,0
1,42,90,0
1,44,89,0
1,56,74,0
1,27,0,40
1,44,0,1
1,36,0,10
1,42,0,46
1,27,85,23
1,44,53,0
1,67,38,0
1,44,0,17
1,67,0,4
1,56,0,7
1,27,0,7
1,32,76,30
1,44,27,0
1,67,45,0
1,44,0,20
1,67,0,2
1,32,0,15
1,28,82,18
1,36,94,0
1,39,99,0
1,42,76,0
1,56,76,0
1,39,0,35
1,28,0,3
1,36,0,0
1,42,0,17
1,32,68,10
1,32,0,27
1,32,70,28
1,44,59,0
1,68,43,0
1,68,0,18
1,44,0,10
1,32,0,4
1,56,0,3
1,32,63,30
1,44,61,0
1,68,25,0
1,44,0,30
1,32,0,2
1,68,0,11
1,27,87,12
1,36,103,0
1,42,87,0
1,44,85,0
1,56,71,0
1,27,0,35
1,36,0,3
1,44,0,10
1,32,76,17
1,32,0,32
1,42,0,21
1,27,58,2
1,44,56,0
1,67,44,0
1,67,0,21
1,44,0,0
1,27,0,2
1,56,0,9
1,44,51,33
1,67,35,0
1,44,0,30
1,67,0,3
1,28,85,22
1,32,88,0
1,36,103,0
1,39,94,0
1,42,79,0
1,56,70,0
1,39,0,35
1,32,0,1
1,28,0,1
1,36,0,0
1,42,0,36
1,32,71,47
1,36,74,0
1,44,55,0
1,68,53,0
1,44,0,22
1,32,0,6
1,68,0,0
1,36,0,4
1,56,0,4
1,32,67,29
1,44,62,0
1,68,35,0
1,44,0,32
1,32,0,3
1,68,0,2
1,27,90,18
1,36,101,0
1,42,93,0
1,44,85,0
1,56,73,0
1,27,0,40
1,44,0,28
1,36,0,2
1,42,0,48
1,27,78,2
1,44,43,0
1,67,36,0
1,44,0,15
1,67,0,7
1,27,0,11
1,56,0,9
1,27,50,23
1,44,58,0
1,67,42,0
1,67,0,35
1,44,0,0
1,27,0,10
1,28,74,10
1,32,78,0
1,36,103,0
1,39,92,0
1,42,79,0
1,56,79,0
1,32,0,36
1,39,0,2
1,28,0,8
1,36,0,31
1,42,0,33
1,32,69,10
1,44,55,0
1,68,34,0
1,68,0,21
1,44,0,1
1,32,0,8
1,56,0,12
1,32,69,23
1,44,62,0
1,68,36,0
1,44,0,31
1,68,0,6
1,32,0,0
1,27,88,18
1,36,103,0
1,42,93,0
1,44,89,0
1,56,73,0
1,27,0,36
1,32,77,29
1,44,0,10
1,36,0,0
1,32,0,18
1,42,0,25
1,27,77,2
1,44,59,0
1,67,24,0
1,67,0,23
1,44,0,2
1,27,0,7
1,56,0,8
1,44,48,25
1,67,43,0
1,44,0,25
1,67,0,1
1,28,79,29
1,32,83,0
1,36,103,0
1,39,96,0
1,42,75,0
1,56,73,0
1,32,0,32
1,28,0,3
1,39,0,2
1,36,0,6
1,42,0,75
1,32,79,2
1,44,62,0
1,68,41,0
1,44,0,27
1,68,0,3
1,32,0,0
1,56,0,2
1,32,71,33
1,44,51,0
1,68,25,0
1,44,0,27
1,32,0,5
1,68,0,4
1,27,86,19
1,36,105,0
1,42,85,0
1,44,82,0
1,56,75,0
1,27,0,40
1,36,0,5
1,44,0,60
1,42,0,13
1,27,85,2
1,44,48,0
1,67,33,0
1,44,0,15
1,67,0,6
1,27,0,17
1,56,0,5
1,44,63,22
1,67,43,0
1,44,0,27
1,67,0,4
1,28,82,24
1,32,83,0
1,36,105,0
1,39,96,0
1,42,82,0
1,56,78,0
1,39,0,35
1,32,0,1
1,28,0,2
1,36,0,2
1,42,0,78
1,32,78,2
1,44,55,0
1,68,37,0
1,44,0,20
1,68,0,2
1,32,0,11
1,56,0,14
1,32,55,18
1,44,55,0
1,68,38,0
1,32,0,27
1,44,0,3
1,68,0,6
1,27,87,19
1,36,103,0
1,42,90,0
1,44,89,0
1,56,78,0
1,36,0,40
1,27,0,3
1,44,0,43
1,42,0,32
1,27,86,2
1,44,60,0
1,65,88,0
1,67,51,0
1,44,0,17
1,67,0,3
1,65,0,13
1,56,0,3
1,27,0,6
1,44,63,23
1,65,80,0
1,67,36,0
1,67,0,22
1,65,0,6
1,44,0,2
1,28,85,25
1,32,87,0
1,36,103,0
1,39,99,0
1,42,84,0
1,56,78,0
1,66,83,0
1,32,0,33
1,39,0,3
1,28,0,1
1,36,0,3
1,66,0,2
1,42,0,63
1,32,74,15
1,36,91,0
1,44,60,0
1,66,71,0
1,68,44,0
1,68,0,13
1,44,0,10
1,36,0,4
1,32,0,3
1,56,0,1
1,66,0,4
1,32,69,30
1,44,58,0
1,65,75,0
1,68,50,0
1,68,0,31
1,44,0,0
1,32,0,2
1,27,94,22
1,36,105,0
1,42,88,0
1,49,94,0
1,56,83,0
1,65,0,3
1,27,0,30
1,36,0,3
1,42,0,82
1,27,79,2
1,44,60,0
1,67,37,0
1,67,0,21
1,44,0,7
1,56,0,4
1,27,0,4
1,32,71,29
1,67,29,0
1,44,69,5
1,67,0,17
1,32,0,21
1,44,0,3
1,28,74,9
1,36,99,0
1,39,101,0
1,42,90,0
1,56,80,0
1,39,0,36
1,36,0,2
1,28,0,8
1,32,59,19
1,32,0,27
1,42,0,26
1,32,63,2
1,44,44,0
1,68,62,0
1,68,0,33
1,44,0,0
1,32,0,3
1,56,0,6
1,49,0,21
1,32,62,2
1,56,79,0
1,68,36,0
1,44,59,5
1,68,0,13
1,32,0,19
1,44,0,10
1,27,88,8
1,36,101,0
1,42,93,0
1,27,0,37
1,36,0,3
1,27,64,25
1,56,0,27
1,27,0,4
1,42,0,22
1,27,69,2
1,44,67,0
1,67,28,0
1,67,0,21
1,44,0,9
1,27,0,10
1,67,42,25
1,44,67,5
1,67,0,17
1,44,0,28
1,28,79,5
1,32,78,0
1,36,101,0
1,39,96,0
1,42,88,0
1,56,80,0
1,28,0,35
1,39,0,2
1,32,0,3
1,36,0,0
1,42,0,78
1,32,67,2
1,44,70,0
1,68,26,0
1,68,0,18
1,32,0,8
1,56,0,2
1,44,0,4
1,32,64,33
1,68,51,0
1,44,68,5
1,32,0,28
1,68,0,3
1,44,0,14
1,27,92,5
1,36,101,0
1,42,93,0
1,56,76,0
1,27,0,40
1,36,0,2
1,42,0,76
1,27,85,2
1,44,62,0
1,67,36,0
1,67,0,20
1,56,0,1
1,44,0,10
1,27,0,4
1,32,76,30
1,67,46,0
1,44,71,5
1,67,0,31
1,32,0,1
1,44,0,9
1,28,82,9
1,36,101,0
1,39,99,0
1,42,92,0
1,56,73,0
1,39,0,37
1,28,0,1
1,36,0,4
1,32,68,23
1,32,0,27
1,42,0,26
1,32,70,2
1,44,65,0
1,68,59,0
1,68,0,23
1,56,0,2
1,44,0,3
1,32,0,4
1,32,63,33
1,68,54,0
1,44,65,5
1,32,0,27
1,68,0,1
1,44,0,10
1,27,87,12
1,36,101,0
1,42,93,0
1,56,70,0
1,27,0,35
1,36,0,7
1,32,76,23
1,32,0,32
1,42,0,21
1,27,58,2
1,44,66,0
1,67,43,0
1,67,0,18
1,27,0,5
1,56,0,5
1,44,0,2
1,67,40,35
1,44,69,5
1,67,0,26
1,44,0,14
1,28,85,10
1,32,88,0
1,36,101,0
1,39,99,0
1,42,90,0
1,56,70,0
1,32,0,36
1,28,0,1
1,39,0,3
1,36,0,2
1,42,0,76
1,32,71,2
1,44,69,0
1,68,50,0
1,68,0,17
1,44,0,11
1,32,0,0
1,56,0,18
1,32,67,19
1,68,52,0
1,44,68,5
1,68,0,27
1,32,0,3
1,44,0,10
1,27,90,10
1,36,101,0
1,42,93,0
1,56,70,0
1,27,0,40
1,36,0,2
1,42,0,76
1,27,78,2
1,44,60,0
1,67,40,0
1,56,0,15
1,67,0,5
1,44,0,3
1,27,0,10
1,27,50,32
1,67,41,0
1,44,63,5
1,67,0,32
1,44,0,8
1,27,0,0
1,28,74,10
1,32,78,0
1,36,99,0
1,39,96,0
1,42,93,0
1,56,67,0
1,32,0,36
1,39,0,4
1,36,0,0
1,28,0,6
1,42,0,72
1,32,69,2
1,44,69,0
1,68,39,0
1,68,0,18
1,56,0,8
1,32,0,4
1,44,0,3
1,32,69,32
1,68,56,0
1,44,64,5
1,68,0,26
1,32,0,6
1,44,0,8
1,27,88,10
1,36,103,0
1,42,92,0
1,56,69,0
1,27,0,36
1,36,0,5
1,32,77,24
1,32,0,28
1,42,0,25
1,27,77,2
1,44,70,0
1,56,0,27
1,44,0,1
1,27,0,4
1,67,49,33
1,44,72,5
1,67,0,31
1,44,0,7
1,28,79,12
1,32,83,0
1,36,95,0
1,39,99,0
1,42,94,0
1,56,70,0
1,32,0,32
1,28,0,3
1,36,0,5
1,39,0,7
1,42,0,71
1,32,79,2
1,44,70,0
1,68,47,0
1,68,0,18
1,44,0,12
1,32,0,0
1,56,0,11
1,32,71,24
1,68,56,0
1,44,68,5
1,32,0,27
1,68,0,6
1,44,0,4
1,27,86,13
1,36,99,0
1,42,92,0
1,56,69,0
1,27,0,40
1,36,0,2
1,42,0,76
1,27,85,2
1,44,64,0
1,67,36,0
1,67,0,21
1,44,0,1
1,56,0,10
1,27,0,6
1,67,51,27
1,44,75,5
1,67,0,32
1,44,0,6
1,28,82,12
1,32,83,0
1,36,101,0
1,39,104,0
1,42,94,0
1,56,73,0
1,32,0,36
1,28,0,2
1,36,0,2
1,39,0,37
1,42,0,41
1,32,78,2
1,44,77,0
1,68,48,0
1,68,0,17
1,56,0,5
1,44,0,5
1,32,0,6
1,32,55,32
1,68,57,0
1,44,74,5
1,32,0,22
1,68,0,8
1,44,0,6
1,27,87,14
1,36,103,0
1,42,99,0
1,56,72,0
1,36,0,40
1,27,0,3
1,42,0,75
1,27,86,2
1,44,78,0
1,66,75,0
1,67,53,0
1,67,0,20
1,44,0,7
1,66,0,11
1,56,0,3
1,27,0,1
1,67,45,23
1,44,75,5
1,44,0,33
1,67,0,0
1,28,85,17
1,32,87,0
1,36,103,0
1,39,104,0
1,42,99,0
1,56,75,0
1,65,73,0
1,65,0,18
1,32,0,15
1,28,0,4
1,36,0,1
1,39,0,4
1,42,0,66
1,32,74,12
1,44,81,0
1,65,68,0
1,68,53,0
1,65,0,15
1,68,0,10
1,44,0,3
1,32,0,2
1,56,0,20
1,32,69,15
1,65,70,0
1,68,52,0
1,44,62,5
1,65,0,21
1,68,0,6
1,32,0,1
1,44,0,5
1,27,106,17
1,36,113,0
1,46,97,0
1,49,88,0
1,56,83,0
1,57,77,0
1,46,0,30
1,36,0,3
1,49,0,5
1,57,0,12
1,27,0,10
1,50,76,420
1,50,0,118
1,56,0,40
1,48,86,82
1,48,0,37
1,43,76,83
1,43,0,118
1,36,101,6722
1,44,88,0
1,44,0,37
1,36,0,43
1,44,52,40
1,44,0,22
1,44,57,48
1,44,0,32
1,28,76,18
1,36,101,0
1,39,74,0
1,42,78,0
1,28,0,41
1,39,0,7
1,42,0,17
1,36,0,8
1,44,61,47
1,44,0,26
1,44,62,44
1,44,0,31
1,36,101,19
1,44,87,0
1,44,0,41
1,36,0,35
1,44,61,44
1,44,0,25
1,44,65,45
1,44,0,33
1,28,72,17
1,36,101,0
1,39,77,0
1,44,94,0
1,28,0,33
1,44,0,2
1,36,0,2
1,39,0,9
1,36,88,74
1,44,63,0
1,44,0,23
1,36,0,20
1,44,68,27
1,44,0,32
1,36,118,18
1,44,101,0
1,52,95,0
1,57,76,0
1,52,0,27
1,36,0,9
1,44,0,9
1,57,0,3
1,44,53,72
1,44,0,20
1,44,64,50
1,44,0,35
1,28,74,15
1,36,110,0
1,39,77,0
1,42,85,0
1,28,0,38
1,42,0,7
1,36,0,1
1,39,0,4
1,44,46,70
1,44,0,26
1,44,64,44
1,44,0,36
1,36,105,14
1,44,76,0
1,44,0,38
1,36,0,2
1,44,64,80
1,44,0,26
1,44,67,44
1,44,0,33
1,28,74,17
1,36,101,0
1,39,75,0
1,44,82,0
1,44,0,40
1,28,0,2
1,36,0,4
1,39,0,7
1,44,67,67
1,44,0,26
1,44,66,44
1,44,0,32
1,36,101,18
1,44,88,0
1,44,0,40
1,36,0,32
1,44,65,48
1,44,0,25
1,44,62,45
1,44,0,32
1,28,76,18
1,36,103,0
1,39,74,0
1,42,89,0
1,28,0,41
1,36,0,2
1,39,0,5
1,42,0,14
1,44,67,58
1,44,0,27
1,44,61,43
1,36,95,50
1,44,0,22
1,36,0,26
1,44,75,72
1,44,0,27
1,44,72,43
1,44,0,30
1,28,72,20
1,36,99,0
1,39,77,0
1,44,88,0
1,44,0,33
1,28,0,0
1,36,0,12
1,39,0,1
1,44,71,74
1,44,0,26
1,44,69,44
1,44,0,28
1,36,103,22
1,44,101,0
1,44,0,36
1,36,0,5
1,44,68,79
1,44,0,26
1,44,59,44
1,44,0,28
1,28,74,22
1,36,101,0
1,39,77,0
1,42,80,0
1,28,0,38
1,36,0,3
1,42,0,1
1,39,0,8
1,44,61,70
1,44,0,23
