track,note,velocity,time
0,69,64,710
0,55,108,16
0,72,108,0
0,67,108,0
0,63,108,0
0,60,108,0
0,72,64,0
0,55,118,0
0,72,118,0
0,67,118,0
0,63,118,0
0,60,118,0
0,72,127,142
0,79,102,0
0,48,102,0
0,60,0,0
0,67,0,0
0,63,0,0
0,72,0,0
0,72,108,0
0,67,108,0
0,63,108,0
0,60,108,0
0,72,0,0
0,72,64,0
0,60,0,0
0,67,0,0
0,63,0,0
0,72,0,0
0,72,118,0
0,67,118,0
0,63,118,0
0,60,118,0
0,79,0,119
0,72,102,1
0,72,0,119
0,72,0,0
0,72,0,0
0,75,127,1
0,75,102,0
0,75,0,119
0,75,0,0
0,77,127,1
0,79,102,0
0,77,0,119
0,79,0,0
0,79,127,1
0,77,102,0
0,77,0,119
0,72,102,1
0,79,0,119
0,72,0,0
0,79,127,1
0,79,102,0
0,72,64,0
0,79,0,119
0,72,102,1
0,79,0,119
0,72,0,0
0,48,0,0
0,60,0,0
0,67,0,0
0,55,0,0
0,72,0,0
0,63,0,0
0,60,0,0
0,67,0,0
0,55,0,0
0,72,0,0
0,63,0,0
0,79,127,1
0,80,102,0
0,44,102,0
0,56,108,0
0,68,108,0
0,63,108,0
0,60,108,0
0,67,64,0
0,56,118,0
0,68,118,0
0,63,118,0
0,60,118,0
0,79,0,119
0,80,0,0
0,82,127,1
0,72,102,0
0,82,0,119
0,72,0,0
0,79,127,1
0,75,102,0
0,79,0,119
0,75,0,0
0,77,127,1
0,80,102,0
0,77,0,119
0,80,0,0
0,44,0,0
0,60,0,0
0,56,0,0
0,68,0,0
0,63,0,0
0,60,0,0
0,56,0,0
0,68,0,0
0,63,0,0
0,75,127,1
0,77,102,0
0,46,102,0
0,70,108,0
0,65,108,0
0,62,108,0
0,58,108,0
0,70,118,0
0,65,118,0
0,62,118,0
0,58,118,0
0,77,0,119
0,70,102,1
0,75,0,119
0,70,0,0
0,72,0,0
0,74,102,1
0,71,64,0
0,74,0,119
0,77,102,1
0,77,0,119
0,46,0,0
0,58,0,0
0,70,0,0
0,65,0,0
0,62,0,0
0,69,0,0
0,58,0,0
0,70,0,0
0,65,0,0
0,62,0,0
0,72,127,1
0,75,102,0
0,48,102,0
0,55,108,0
0,72,108,0
0,67,108,0
0,63,108,0
0,60,108,0
0,55,118,0
0,72,118,0
0,67,118,0
0,63,118,0
0,60,118,0
0,75,0,119
0,67,102,1
0,72,0,119
0,67,0,0
0,75,127,1
0,72,102,0
0,75,0,119
0,72,0,0
0,77,127,1
0,75,102,0
0,77,0,119
0,75,0,0
0,79,127,1
0,74,102,0
0,74,0,119
0,67,102,1
0,79,0,119
0,67,0,0
0,79,127,1
0,75,102,0
0,75,0,119
0,67,102,1
0,79,0,119
0,67,0,0
0,48,0,0
0,60,0,0
0,67,0,0
0,55,0,0
0,72,0,0
0,63,0,0
0,60,0,0
0,67,0,0
0,55,0,0
0,72,0,0
0,63,0,0
0,77,127,1
0,75,102,0
0,44,102,0
0,56,108,0
0,68,108,0
0,63,108,0
0,60,108,0
0,56,118,0
0,68,118,0
0,63,118,0
0,60,118,0
0,77,0,119
0,75,0,0
0,79,127,1
0,68,102,0
0,79,0,119
0,68,0,0
0,67,0,0
0,77,127,1
0,72,102,0
0,76,64,0
0,77,0,119
0,72,0,0
0,75,127,1
0,75,102,0
0,75,0,119
0,75,0,0
0,44,0,0
0,60,0,0
0,56,0,0
0,68,0,0
0,63,0,0
0,60,0,0
0,56,0,0
0,68,0,0
0,63,0,0
0,74,127,1
0,77,102,0
0,46,102,0
0,70,108,0
0,65,108,0
0,62,108,0
0,58,108,0
0,70,118,0
0,65,118,0
0,62,118,0
0,58,118,0
0,77,0,119
0,70,102,1
0,74,0,119
0,70,0,0
0,71,0,0
0,74,102,1
0,74,0,119
0,77,102,1
0,77,0,119
0,46,0,0
0,58,0,0
0,70,0,0
0,65,0,0
0,62,0,0
0,58,0,0
0,70,0,0
0,65,0,0
0,62,0,0
0,72,127,1
0,79,102,0
0,48,102,0
0,55,108,0
0,72,108,0
0,67,108,0
0,63,108,0
0,60,108,0
0,55,118,0
0,72,118,0
0,67,118,0
0,63,118,0
0,60,118,0
0,79,0,119
0,72,102,1
0,72,0,119
0,72,0,0
0,75,127,1
0,75,102,0
0,75,0,119
0,75,0,0
0,77,127,1
0,79,102,0
0,77,0,119
0,79,0,0
0,79,127,1
0,77,102,0
0,77,0,119
0,72,102,1
0,79,0,119
0,72,0,0
0,76,0,0
0,79,127,1
0,79,102,0
0,79,0,119
0,72,102,1
0,79,0,119
0,72,0,0
0,48,0,0
0,60,0,0
0,67,0,0
0,55,0,0
0,72,0,0
0,63,0,0
0,60,0,0
0,67,0,0
0,55,0,0
0,72,0,0
0,63,0,0
0,79,127,1
0,80,102,0
0,44,102,0
0,56,108,0
0,68,108,0
0,63,108,0
0,60,108,0
0,56,118,0
0,68,118,0
0,63,118,0
0,60,118,0
0,79,0,119
0,80,0,0
0,82,127,1
0,72,102,0
0,82,0,119
0,72,0,0
0,79,127,1
0,75,102,0
0,79,0,119
0,75,0,0
0,77,127,1
0,80,102,0
0,77,0,119
0,80,0,0
0,44,0,0
0,60,0,0
0,56,0,0
0,68,0,0
0,63,0,0
0,60,0,0
0,56,0,0
0,68,0,0
0,63,0,0
0,75,127,1
0,77,102,0
0,46,102,0
0,70,108,0
0,65,108,0
0,62,108,0
0,58,108,0
0,70,118,0
0,65,118,0
0,62,118,0
0,58,118,0
0,77,0,119
0,70,102,1
0,75,0,119
0,70,0,0
0,74,102,1
0,74,0,119
0,46,0,2
0,58,0,0
0,70,0,0
0,65,0,0
0,62,0,0
0,58,0,0
0,70,0,0
0,65,0,0
0,62,0,0
0,79,127,1
0,72,102,0
0,79,102,0
0,75,102,0
0,48,102,0
0,55,108,0
0,72,108,0
0,67,108,0
0,63,108,0
0,60,108,0
0,55,118,0
0,72,118,0
0,67,118,0
0,63,118,0
0,60,118,0
0,79,0,7
0,82,127,1
0,82,0,4
0,79,127,0
0,79,0,3
0,75,127,0
0,75,0,2
0,75,127,9
0,75,0,19
0,48,0,0
0,72,0,0
0,79,0,0
0,75,0,0
0,60,0,0
0,67,0,0
0,55,0,0
0,72,0,0
0,63,0,0
0,60,0,0
0,67,0,0
0,55,0,0
0,72,0,0
0,63,0,0
0,75,127,0
0,72,102,0
0,75,102,0
0,80,102,0
0,44,102,0
0,56,108,0
0,68,108,0
0,63,108,0
0,60,108,0
0,56,118,0
0,68,118,0
0,63,118,0
0,60,118,0
0,75,0,21
0,77,127,0
0,77,0,2
0,79,127,0
0,79,0,2
0,44,0,0
0,72,0,0
0,75,0,0
0,80,0,0
0,60,0,0
0,56,0,0
0,68,0,0
0,63,0,0
0,60,0,0
0,56,0,0
0,68,0,0
0,63,0,0
0,72,124,0
0,74,102,0
0,70,102,0
0,77,102,0
0,46,102,0
0,70,108,0
0,65,108,0
0,62,108,0
0,58,108,0
0,70,118,0
0,65,118,0
0,62,118,0
0,58,118,0
0,72,0,2
0,72,127,10
0,46,0,10
0,74,0,0
0,70,0,0
0,77,0,0
0,58,0,0
0,70,0,0
0,65,0,0
0,62,0,0
0,58,0,0
0,70,0,0
0,65,0,0
0,62,0,0
0,84,108,1
0,36,97,0
0,84,118,0
0,40,107,0
0,72,0,8
0,36,0,51
0,40,0,0
0,40,107,1
0,40,0,43
0,72,127,1
0,36,97,0
0,40,107,0
0,36,0,10
0,40,0,0
0,36,97,1
0,40,107,0
0,36,0,59
0,40,0,0
0,36,97,1
0,40,107,0
0,36,0,31
0,40,0,0
0,40,107,1
0,72,0,59
0,40,0,0
0,72,127,1
0,36,97,0
0,40,107,0
0,36,0,52
0,40,0,0
0,36,97,1
0,40,107,0
0,72,0,59
0,36,0,0
0,40,0,0
0,79,127,1
0,36,97,0
0,40,107,0
0,36,0,59
0,40,0,0
0,40,107,1
0,79,0,21
0,40,0,0
0,77,127,1
0,36,97,0
0,40,107,0
0,36,0,59
0,40,0,0
0,36,97,1
0,40,107,0
0,77,0,42
0,36,0,0
0,40,0,0
0,75,127,1
0,36,97,0
0,40,107,0
0,36,0,3
0,40,0,0
0,40,107,1
0,75,0,59
0,40,0,0
0,36,97,1
0,40,107,0
0,36,0,24
0,40,0,0
0,36,97,1
0,40,107,0
0,36,0,59
0,40,0,0
0,32,97,1
0,40,107,0
0,32,0,31
0,40,0,0
0,40,107,1
0,40,0,59
0,75,127,1
0,32,97,0
0,40,107,0
0,32,0,52
0,40,0,0
0,32,97,1
0,40,107,0
0,32,0,14
0,40,0,0
0,32,97,1
0,40,107,0
0,32,0,59
0,40,0,0
0,40,107,1
0,75,0,35
0,40,0,0
0,75,127,1
0,32,97,0
0,40,107,0
0,32,0,59
0,40,0,0
0,32,97,1
0,40,107,0
0,75,0,56
0,32,0,0
0,40,0,0
0,79,127,1
0,34,97,0
0,40,107,0
0,34,0,3
0,40,0,0
0,40,107,1
0,79,0,59
0,40,0,0
0,82,127,1
0,34,97,0
0,40,107,0
0,34,0,24
0,40,0,0
0,34,97,1
0,40,107,0
0,82,0,59
0,34,0,0
0,40,0,0
0,79,127,1
0,34,97,0
0,40,107,0
0,34,0,45
0,40,0,0
0,40,107,1
0,79,0,7
0,40,0,0
0,34,97,1
0,40,107,0
0,34,0,59
0,40,0,0
0,34,97,1
0,40,107,0
0,34,0,14
0,40,0,0
0,36,97,1
0,40,107,0
0,36,0,59
0,40,0,0
0,40,107,1
0,40,0,35
0,72,127,1
0,36,97,0
0,40,107,0
0,36,0,59
0,40,0,0
0,36,97,1
0,40,107,0
0,36,0,56
0,40,0,0
0,36,97,1
0,40,107,0
0,36,0,17
0,40,0,0
0,40,107,1
0,72,0,59
0,40,0,0
0,72,127,1
0,36,97,0
0,40,107,0
0,36,0,38
0,40,0,0
0,36,97,1
0,40,107,0
0,72,0,59
0,36,0,0
0,40,0,0
0,79,127,1
0,36,97,0
0,40,107,0
0,36,0,45
0,40,0,0
0,40,107,1
0,79,0,7
0,40,0,0
0,77,127,1
0,36,97,0
0,40,107,0
0,36,0,59
0,40,0,0
0,36,97,1
0,40,107,0
0,77,0,28
0,36,0,0
0,40,0,0
0,75,127,1
0,36,97,0
0,40,107,0
0,36,0,59
0,40,0,0
0,40,107,1
0,75,0,49
0,40,0,0
0,36,97,1
0,40,107,0
0,36,0,10
0,40,0,0
0,36,97,1
0,40,107,0
0,36,0,59
0,40,0,0
0,32,97,1
0,40,107,0
0,32,0,17
0,40,0,0
0,40,107,1
0,40,0,59
0,32,97,1
0,40,107,0
0,32,0,38
0,40,0,0
0,32,97,1
0,40,107,0
0,32,0,59
0,40,0,0
0,32,97,1
0,40,107,0
0,32,0,59
0,40,0,0
0,40,107,1
0,40,0,21
0,32,97,1
0,40,107,0
0,32,0,59
0,40,0,0
0,32,97,1
0,40,107,0
0,32,0,42
0,40,0,0
0,34,97,1
0,40,107,0
0,34,0,59
0,40,0,0
0,40,107,1
0,40,0,49
0,34,97,1
0,40,107,0
0,34,0,10
0,40,0,0
0,34,97,1
0,40,107,0
0,34,0,59
0,40,0,0
0,34,97,1
0,40,107,0
0,34,0,31
0,40,0,0
0,40,107,1
0,40,0,59
0,34,97,1
0,40,107,0
0,34,0,52
0,40,0,0
0,34,97,1
0,40,107,0
0,34,0,59
0,40,0,0
0,36,97,1
0,40,108,0
0,36,0,59
0,40,0,0
0,40,108,1
0,40,0,21
0,72,127,1
0,36,97,0
0,40,108,0
0,36,0,59
0,40,0,0
0,36,97,1
0,40,108,0
0,36,0,42
0,40,0,0
0,36,97,1
0,40,108,0
0,36,0,3
0,40,0,0
0,40,108,1
0,72,0,59
0,40,0,0
0,72,127,1
0,36,97,0
0,40,108,0
0,36,0,24
0,40,0,0
0,36,97,1
0,40,108,0
0,72,0,59
0,36,0,0
0,40,0,0
0,79,127,1
0,36,97,0
0,40,108,0
0,36,0,31
0,40,0,0
0,40,108,1
0,79,0,59
0,40,0,0
0,77,127,1
0,36,97,0
0,40,108,0
0,36,0,52
0,40,0,0
0,36,97,1
0,40,108,0
0,77,0,14
0,36,0,0
0,40,0,0
0,75,127,1
0,36,97,0
0,40,108,0
0,36,0,59
0,40,0,0
0,40,108,1
0,75,0,35
0,40,0,0
0,36,97,1
0,40,108,0
0,36,0,59
0,40,0,0
0,36,97,1
0,40,108,0
0,36,0,56
0,40,0,0
0,32,97,1
0,40,108,0
0,32,0,3
0,40,0,0
0,40,108,1
0,40,0,59
0,75,127,1
0,32,97,0
0,40,108,0
0,32,0,24
0,40,0,0
0,32,97,1
0,40,108,0
0,32,0,59
0,40,0,0
0,32,97,1
0,40,108,0
0,32,0,45
0,40,0,0
0,40,108,1
0,75,0,7
0,40,0,0
0,75,127,1
0,32,97,0
0,40,108,0
0,32,0,59
0,40,0,0
0,32,97,1
0,40,108,0
0,75,0,14
0,32,0,0
0,40,0,0
0,79,127,1
0,34,97,0
0,40,108,0
0,34,0,59
0,40,0,0
0,40,108,1
0,79,0,35
0,40,0,0
0,82,127,1
0,34,97,0
0,40,108,0
0,34,0,59
0,40,0,0
0,34,97,1
0,40,108,0
0,82,0,56
0,34,0,0
0,40,0,0
0,79,127,1
0,34,97,0
0,40,108,0
0,34,0,17
0,40,0,0
0,40,108,1
0,79,0,59
0,40,0,0
0,34,97,1
0,40,108,0
0,34,0,38
0,40,0,0
0,34,97,1
0,40,108,0
0,34,0,59
0,40,0,0
0,36,97,1
0,40,108,0
0,36,0,45
0,40,0,0
0,40,108,1
0,40,0,7
0,72,127,1
0,36,97,0
0,40,108,0
0,36,0,59
0,40,0,0
0,36,97,1
0,40,108,0
0,36,0,28
0,40,0,0
0,36,97,1
0,40,108,0
0,36,0,59
0,40,0,0
0,40,108,1
0,72,0,49
0,40,0,0
0,72,127,1
0,36,97,0
0,40,108,0
0,36,0,10
0,40,0,0
0,36,97,1
0,40,108,0
0,72,0,59
0,36,0,0
0,40,0,0
0,79,127,1
0,36,97,0
0,40,108,0
0,36,0,17
0,40,0,0
0,40,108,1
0,79,0,59
0,40,0,0
0,77,127,1
0,36,97,0
0,40,108,0
0,36,0,38
0,40,0,0
0,36,97,1
0,40,108,0
0,77,0,59
0,36,0,0
0,40,0,0
0,75,127,1
0,36,97,0
0,40,108,0
0,36,0,59
0,40,0,0
0,40,108,1
0,75,0,21
0,40,0,0
0,36,97,1
0,40,108,0
0,36,0,59
0,40,0,0
0,36,97,1
0,40,108,0
0,84,0,14
0,36,0,0
0,84,0,0
0,40,0,0
0,36,127,1
0,36,0,28
0,55,121,10
0,55,0,63
0,58,121,5
0,58,0,109
0,55,121,2
0,55,0,67
0,51,121,49
0,51,0,18
0,48,121,8
0,48,0,3
0,36,97,6
0,72,104,0
0,42,100,0
0,36,125,0
0,72,104,0
0,49,90,5
0,36,0,45
0,72,0,0
0,42,0,0
0,72,0,0
0,42,100,1
0,42,0,59
0,36,0,0
0,36,97,1
0,67,104,0
0,67,127,0
0,63,127,0
0,60,127,0
0,42,100,0
0,51,100,0
0,67,104,0
0,49,0,4
0,36,0,55
0,67,0,0
0,60,0,0
0,63,0,0
0,67,0,0
0,51,0,0
0,42,0,0
0,67,0,0
0,36,97,1
0,42,100,0
0,36,0,59
0,42,0,0
0,36,97,1
0,72,104,0
0,42,100,0
0,38,74,0
0,36,125,0
0,72,104,0
0,36,0,59
0,72,0,0
0,38,0,0
0,42,0,0
0,72,0,0
0,42,100,1
0,42,0,59
0,36,0,0
0,36,97,1
0,67,104,0
0,67,127,0
0,63,127,0
0,60,127,0
0,42,100,0
0,51,100,0
0,67,104,0
0,36,0,59
0,67,0,0
0,60,0,0
0,63,0,0
0,67,0,0
0,51,0,0
0,42,0,0
0,67,0,0
0,36,97,1
0,42,100,0
0,36,0,59
0,42,0,0
0,36,97,1
0,74,104,0
0,42,100,0
0,36,125,0
0,74,104,0
0,75,104,49
0,75,104,0
0,36,0,10
0,74,0,0
0,42,0,0
