track,note,velocity,time
1,33,105,1536
1,81,108,0
1,73,92,0
1,69,105,2
1,45,101,2
1,76,102,2
1,55,99,144
1,67,105,1
1,64,106,164
1,52,108,0
1,61,100,136
1,81,107,2
1,69,99,2
1,73,85,1
1,49,98,0
1,76,101,3
1,57,108,38
1,45,110,2
1,68,107,93
1,80,106,3
1,43,101,4
1,55,104,0
1,81,113,36
1,69,111,0
1,70,118,96
1,82,117,2
1,52,98,1
1,40,85,3
1,81,111,13
1,69,109,4
1,49,99,21
1,37,95,9
1,80,104,0
1,81,111,26
1,89,121,33
1,77,119,0
1,81,102,4
1,86,111,0
1,38,119,0
1,26,119,2
1,65,101,131
1,62,88,2
1,57,89,4
1,62,41,261
1,53,55,6
1,86,111,8
1,74,105,4
1,29,97,184
1,81,115,4
1,41,87,6
1,69,98,0
1,74,85,2
1,62,81,159
1,53,75,14
1,57,67,0
1,77,115,87
1,65,106,3
1,50,79,119
1,57,59,9
1,53,45,3
1,46,112,69
1,79,117,0
1,70,105,3
1,34,105,1
1,67,103,4
1,74,100,1
1,70,106,59
1,58,100,4
1,67,99,192
1,55,87,8
1,79,110,160
1,70,87,4
1,67,88,2
1,74,87,5
1,62,83,5
1,50,87,0
1,58,106,91
1,46,98,9
1,78,92,72
1,55,88,4
1,43,86,2
1,66,67,14
1,67,79,25
1,79,99,8
1,81,111,77
1,69,102,0
1,50,98,9
1,38,82,4
1,79,109,15
1,67,105,0
1,78,106,36
1,46,96,1
1,34,94,8
1,79,111,49
1,82,121,57
1,70,117,2
1,40,111,4
1,28,116,2
1,74,104,0
1,62,104,159
1,58,96,3
1,55,81,6
1,52,79,5
1,79,112,149
1,67,103,4
1,58,94,2
1,52,56,18
1,33,104,56
1,76,114,2
1,64,89,3
1,45,94,4
1,67,86,2
1,61,84,37
1,52,53,8
1,55,63,5
1,73,101,13
1,64,72,14
1,67,66,9
1,55,52,31
1,52,67,2
1,62,80,44
1,70,81,1
1,46,73,1
1,34,75,2
1,74,103,4
1,65,77,2
1,62,65,40
1,53,52,8
1,58,63,1
1,73,87,32
1,69,83,3
1,58,74,109
1,70,91,7
1,74,95,0
1,50,60,13
1,53,54,0
1,76,98,2
1,72,93,5
1,70,97,48
1,74,98,8
1,43,71,25
1,31,61,5
1,58,70,36
1,62,67,7
1,55,50,2
1,70,108,77
1,67,87,4
1,58,77,49
1,55,51,12
1,50,52,2
1,69,98,24
1,60,63,3
1,65,71,11
1,33,74,2
1,45,62,9
1,57,44,97
1,53,31,21
1,48,23,7
1,69,77,177
1,60,52,6
1,53,67,3
1,48,57,3
1,65,57,0
1,29,73,68
1,41,37,11
1,68,75,178
1,64,64,7
1,57,51,5
1,48,34,19
1,53,38,0
1,69,71,40
1,65,79,7
1,70,97,3
1,67,80,11
1,69,88,80
1,65,85,5
1,48,76,39
1,57,57,3
1,68,93,6
1,64,80,10
1,65,97,17
1,69,83,9
1,31,66,18
1,62,54,36
1,58,92,2
1,65,96,4
1,43,52,7
1,55,69,137
1,50,51,13
1,46,45,2
1,64,84,43
1,65,85,13
1,50,64,3
1,46,70,5
1,67,87,22
1,65,76,7
1,57,74,1
1,61,61,7
1,33,52,18
1,45,26,3
1,49,45,64
1,45,33,4
1,64,63,156
1,55,55,4
1,61,43,6
1,49,48,39
1,45,25,11
1,38,35,19
1,62,47,1
1,26,41,0
1,53,40,4
1,57,37,0
1,50,37,221
1,45,35,16
1,45,63,148
1,62,53,2
1,50,44,3
1,53,37,9
1,57,35,1
1,46,75,110
1,55,42,15
1,58,35,15
1,38,34,27
1,61,69,8
1,62,71,121
1,64,94,62
1,53,66,1
1,57,61,1
1,45,60,15
1,62,95,68
1,61,99,2
1,62,100,105
1,33,91,75
1,45,111,56
1,81,117,18
1,76,115,0
1,73,102,2
1,69,108,0
1,67,105,62
1,55,87,10
1,64,111,48
1,52,108,4
1,73,95,127
1,81,113,0
1,61,106,0
1,69,101,2
1,76,106,0
1,49,100,2
1,57,108,191
1,45,111,4
1,68,111,76
1,55,107,3
1,43,103,1
1,80,106,0
1,69,110,22
1,81,110,2
1,52,105,58
1,40,105,3
1,70,114,4
1,82,112,2
1,81,109,21
1,69,98,3
1,49,101,31
1,37,97,7
1,80,97,16
1,81,102,64
1,26,115,23
1,38,110,15
1,89,120,40
1,86,110,1
1,77,106,1
1,81,103,5
1,65,106,107
1,62,97,2
1,57,84,5
1,62,73,275
1,57,70,10
1,53,65,2
1,86,114,16
1,74,105,5
1,81,117,180
1,41,93,4
1,29,98,0
1,69,105,1
1,74,85,13
1,62,87,102
1,53,83,1
1,57,76,2
1,77,116,31
1,65,105,3
1,57,91,121
1,53,76,5
1,50,75,5
1,79,116,55
1,67,108,3
1,70,100,1
1,46,109,4
1,74,100,1
1,34,101,3
1,67,91,29
1,55,83,4
1,62,101,4
1,50,104,1
1,58,95,110
1,79,111,0
1,46,101,2
1,70,95,0
1,67,92,5
1,74,94,4
1,55,102,55
1,43,85,11
1,78,101,84
1,66,97,0
1,55,94,1
1,43,76,0
1,79,101,25
1,67,87,5
1,69,107,70
1,38,102,0
1,81,110,2
1,50,97,2
1,79,112,11
1,67,98,12
1,46,112,50
1,78,96,5
1,66,29,1
1,34,107,6
1,79,94,15
1,70,112,31
1,82,120,0
1,40,113,4
1,74,103,1
1,28,111,1
1,64,102,101
1,55,82,4
1,52,76,2
1,58,82,2
1,52,75,268
1,62,43,3
1,58,56,1
1,79,108,2
1,67,84,10
1,76,115,35
1,33,103,2
1,67,88,5
1,45,85,5
1,64,85,0
1,61,73,136
1,55,50,0
1,52,55,2
1,73,103,40
1,67,43,36
1,52,68,61
1,55,39,8
1,62,79,57
1,46,56,21
1,34,53,8
1,74,105,12
1,70,69,4
1,65,55,4
1,58,50,91
1,62,60,2
1,53,40,8
1,73,75,122
1,69,74,4
1,58,49,17
1,53,37,19
1,70,79,24
1,74,75,0
1,76,82,39
1,72,80,5
1,70,85,4
1,74,90,5
1,31,67,7
1,43,54,10
1,62,79,32
1,55,53,6
1,58,61,3
1,70,100,43
1,67,62,7
1,58,76,90
1,50,54,15
1,55,49,5
1,69,87,28
1,33,65,8
1,65,53,0
1,60,49,5
1,45,48,4
1,48,54,143
1,57,54,1
1,53,42,11
1,69,75,100
1,53,50,3
1,65,46,4
1,48,60,2
1,60,31,13
1,29,92,205
1,41,79,3
1,68,90,170
1,64,74,5
1,57,59,13
1,48,50,4
1,53,45,8
1,69,81,64
1,65,91,12
1,70,102,14
1,67,91,7
1,69,78,56
1,65,76,16
1,68,96,44
1,48,73,4
1,64,83,8
1,69,87,23
1,65,89,2
1,65,92,29
1,62,74,2
1,58,91,1
1,43,81,2
1,31,97,2
1,50,49,129
1,55,72,6
1,46,54,5
1,64,91,1
1,65,87,101
1,50,73,23
1,46,85,2
1,67,96,29
1,33,78,30
1,65,90,4
1,57,94,1
1,61,69,12
1,45,78,5
1,49,76,76
1,45,39,15
1,64,104,132
1,55,81,4
1,61,80,0
1,49,84,74
1,45,72,12
1,53,81,24
1,62,89,0
1,38,91,7
1,26,101,0
1,57,68,1
1,45,73,134
1,50,73,5
1,45,70,129
1,53,53,3
1,57,72,0
1,62,80,1
1,50,62,4
1,46,81,81
1,58,84,7
1,55,58,20
1,38,36,20
1,61,81,13
1,62,77,112
1,64,85,25
1,53,59,11
1,57,50,5
1,45,54,8
1,62,83,104
1,61,90,61
1,62,100,0
1,38,83,31
1,86,118,62
1,83,97,3
1,50,103,0
1,74,105,3
1,77,94,0
1,62,101,120
1,53,89,2
1,59,81,8
1,86,93,154
1,62,66,2
1,74,91,0
1,77,79,2
1,59,46,2
1,83,71,3
1,53,54,4
1,47,90,7
1,86,88,34
1,74,78,4
1,77,69,3
1,81,78,1
1,62,51,14
1,57,39,3
1,53,54,6
1,52,69,31
1,80,79,82
1,88,65,11
1,59,54,0
1,56,50,0
1,76,68,4
1,45,81,132
1,84,94,5
1,72,83,2
1,76,64,2
1,81,67,6
1,64,72,44
1,60,75,5
1,48,83,30
1,83,90,37
1,71,51,7
1,60,71,8
1,64,65,0
1,81,105,60
1,69,89,4
1,52,80,4
1,64,68,95
1,60,63,3
1,76,113,89
1,57,79,11
1,64,75,5
1,60,81,6
1,86,118,150
1,77,105,3
1,38,107,0
1,74,108,4
1,83,103,0
1,50,105,3
1,62,104,111
1,59,86,8
1,53,91,0
1,86,106,117
1,62,92,2
1,77,95,0
1,74,91,2
1,83,83,2
1,53,78,3
1,59,48,2
1,47,79,103
1,86,97,39
1,77,73,7
1,74,74,1
1,81,80,0
1,62,68,4
1,57,48,14
1,53,64,2
1,52,66,46
1,56,73,54
1,88,91,4
1,80,69,1
1,59,34,7
1,76,49,6
1,45,103,86
1,84,110,92
1,60,76,2
1,57,75,2
1,72,96,0
1,76,81,7
1,47,79,68
1,83,95,84
1,60,68,5
1,71,58,7
1,76,76,2
1,57,54,2
1,48,88,100
1,81,97,122
1,76,60,3
1,69,46,0
1,60,63,1
1,57,58,0
1,52,71,5
1,76,78,71
1,72,57,13
1,41,51,25
1,48,50,69
1,51,68,24
1,81,76,9
1,53,67,6
1,75,43,5
1,72,36,5
1,69,29,3
1,65,45,174
1,63,39,7
1,60,37,16
1,65,37,89
1,63,47,2
1,60,18,6
1,81,91,0
1,69,41,16
1,41,40,106
1,80,76,22
1,68,41,14
1,74,38,16
1,47,35,13
1,50,43,3
1,59,55,22
1,77,80,108
1,65,50,9
1,56,57,32
1,50,21,23
1,33,56,84
1,76,76,17
1,73,37,6
1,69,24,4
1,64,34,15
1,49,57,13
1,52,46,27
1,57,22,13
1,45,62,68
1,76,87,21
1,57,55,11
1,52,36,28
1,49,65,98
1,81,85,32
1,57,46,191
1,52,44,1
1,45,69,32
1,76,85,4
1,57,68,97
1,52,56,9
1,41,74,62
1,48,68,38
1,51,61,0
1,81,97,20
1,53,80,4
1,75,51,5
1,72,45,2
1,69,23,10
1,63,67,174
1,65,70,11
1,60,51,0
1,65,70,68
1,63,50,10
1,60,51,6
1,81,96,12
1,69,27,18
1,80,80,31
1,41,55,5
1,68,54,4
1,74,46,19
1,59,30,108
1,47,37,6
1,50,47,5
1,77,77,158
1,65,44,12
1,47,37,152
1,50,47,1
1,56,57,0
1,33,50,17
1,76,74,12
1,73,39,11
1,45,24,0
1,64,37,11
1,61,39,176
1,49,27,9
1,52,30,13
1,57,32,145
1,45,32,12
1,52,13,3
1,81,57,137
1,69,11,31
1,33,39,79
1,76,46,100
1,73,25,3
1,64,9,24
1,61,25,116
1,49,32,1
1,52,16,19
1,57,23,68
1,45,31,1
1,52,18,10
1,86,118,64
1,50,104,4
1,38,100,0
1,77,103,3
1,74,111,0
1,83,99,0
1,53,89,177
1,62,92,0
1,59,84,9
1,77,82,118
1,86,92,2
1,83,63,2
1,74,82,2
1,53,57,0
1,62,34,3
1,59,10,11
1,47,70,76
1,86,97,96
1,77,72,4
1,74,81,2
1,81,79,2
1,62,61,0
1,53,72,10
1,57,41,7
1,52,72,29
1,88,106,4
1,76,86,5
1,56,68,0
1,59,55,2
1,45,97,121
1,84,110,11
1,72,92,7
1,76,58,3
1,64,80,11
1,60,81,3
1,48,97,27
1,83,98,128
1,71,73,7
1,64,75,5
1,60,83,0
1,81,111,76
1,52,85,7
1,69,101,2
1,64,68,57
1,60,68,10
1,76,115,35
1,57,68,5
1,64,80,7
1,60,81,8
1,86,117,137
1,77,106,0
1,83,103,0
1,38,95,3
1,74,113,0
1,50,108,3
1,62,97,34
1,59,90,4
1,53,86,8
1,86,95,152
1,77,84,2
1,83,78,0
1,74,92,2
1,62,76,1
1,59,69,6
1,53,69,3
1,47,92,25
1,86,95,4
1,77,74,0
1,74,84,1
1,81,87,3
1,62,76,4
1,57,60,8
1,53,48,13
1,52,76,11
1,88,94,62
1,56,62,3
1,80,70,0
1,59,43,6
1,76,50,0
1,45,94,29
1,84,106,9
1,72,89,5
1,60,78,4
1,76,77,2
1,57,66,7
1,47,84,9
1,83,99,97
1,60,74,2
1,71,71,7
1,57,56,2
1,76,79,0
1,48,85,27
1,81,93,84
1,60,51,4
1,69,58,2
1,57,39,5
1,76,54,5
1,52,68,86
1,60,38,27
1,57,44,5
1,76,82,27
1,72,59,9
1,41,58,14
1,48,66,33
1,51,18,2
1,81,84,39
1,75,50,8
1,53,64,3
1,72,37,0
1,69,22,8
1,63,46,215
1,65,63,0
1,60,42,5
1,63,47,135
1,60,35,8
1,81,91,15
1,69,38,11
1,41,44,11
1,80,77,13
1,68,48,9
1,74,37,27
1,47,31,13
1,50,57,12
1,59,57,34
1,38,66,81
1,77,88,18
1,65,67,5
1,56,58,161
1,47,36,16
1,33,75,88
1,76,68,40
1,73,48,0
1,69,40,6
1,64,50,10
1,49,54,2
1,57,42,23
1,52,42,11
1,45,41,34
1,76,77,102
1,49,41,1
1,57,36,12
1,81,64,142
1,49,46,5
1,69,35,0
1,52,38,33
1,57,38,3
1,45,60,75
1,76,72,0
1,49,50,7
1,52,59,54
1,41,70,44
1,48,61,35
1,51,70,29
1,81,94,21
1,53,70,5
1,75,58,0
1,72,50,6
1,69,37,9
1,63,64,84
1,60,54,0
1,65,70,5
1,65,59,79
1,63,59,0
1,60,53,7
1,81,92,5
1,69,57,18
1,41,50,28
1,80,77,4
1,68,53,8
1,74,45,13
1,47,21,71
1,59,38,9
1,50,38,0
1,38,59,84
1,77,73,65
1,65,45,4
1,56,42,156
1,47,27,24
1,76,68,42
1,33,50,4
1,45,45,5
1,73,43,7
1,64,44,1
1,49,43,137
1,61,46,3
1,52,49,9
1,57,37,42
1,45,36,21
1,52,34,11
1,81,56,52
1,69,17,28
1,33,34,183
1,45,20,6
1,76,57,1
1,73,33,9
1,64,8,26
1,61,27,248
1,49,32,0
1,52,17,12
1,57,23,399
1,45,25,2
1,52,15,16
1,81,117,90
1,73,100,0
1,69,114,2
1,76,111,0
1,33,106,0
1,45,113,4
1,55,97,61
1,67,95,9
1,64,110,16
1,52,111,3
1,81,113,137
1,73,91,3
1,69,103,0
1,76,104,4
1,61,100,0
1,49,97,5
1,57,109,161
1,45,102,6
1,68,103,81
1,80,106,1
1,55,106,11
1,43,103,4
1,81,108,0
1,69,107,4
1,70,114,68
1,82,113,7
1,40,74,0
1,52,90,2
1,81,106,12
1,69,38,17
1,49,100,12
1,37,93,8
1,80,101,9
1,81,111,56
1,34,42,10
1,80,37,2
1,26,119,21
1,38,117,24
1,89,121,12
1,77,116,4
1,81,106,2
1,86,105,2
1,65,110,58
1,62,97,3
1,57,96,4
1,53,84,301
1,62,62,0
1,57,54,17
1,86,119,8
1,74,110,0
1,41,105,25
1,81,119,2
1,29,108,0
1,69,112,1
1,74,100,8
1,62,89,42
1,57,75,2
1,53,77,0
1,77,116,71
1,65,105,7
1,50,89,23
1,57,80,4
1,53,74,2
1,79,119,55
1,67,110,0
1,70,107,3
1,74,108,1
1,46,118,4
1,34,111,1
1,70,107,22
1,58,105,4
1,67,104,138
1,55,103,8
1,79,113,95
1,70,97,3
1,67,100,1
1,74,101,2
1,50,94,9
1,62,69,4
1,58,111,50
1,46,110,6
1,78,101,50
1,55,101,4
1,43,89,8
1,66,83,0
1,67,98,44
1,79,101,4
1,50,104,54
1,38,101,3
1,81,115,3
1,69,105,6
1,79,108,32
1,46,109,44
1,34,105,6
1,78,105,2
1,79,117,78
1,82,121,35
1,70,121,1
1,40,115,6
1,74,109,2
1,28,110,1
1,58,95,118
1,55,90,2
1,64,82,3
1,62,85,7
1,52,35,9
1,58,97,158
1,52,72,6
1,55,41,11
1,79,112,2
1,67,94,4
1,66,11,14
1,33,101,22
1,45,95,7
1,76,117,2
1,64,100,4
1,67,87,6
1,61,83,68
1,52,56,34
1,55,51,2
1,73,103,4
1,64,86,12
1,67,63,13
1,55,71,54
1,52,69,5
1,62,85,61
1,34,90,37
1,46,89,1
1,74,111,18
1,70,88,6
1,65,80,9
1,62,69,41
1,58,87,1
1,53,56,2
