track,note,velocity,time
1,72,127,142
1,72,0,239
1,75,127,1
1,75,0,119
1,77,127,1
1,77,0,119
1,79,127,1
1,79,0,239
1,79,127,1
1,79,0,239
1,79,127,1
1,79,0,119
1,82,127,1
1,82,0,119
1,79,127,1
1,79,0,119
1,77,127,1
1,77,0,119
1,75,127,1
1,75,0,239
1,72,127,241
1,72,0,239
1,75,127,1
1,75,0,119
1,77,127,1
1,77,0,119
1,79,127,1
1,79,0,239
1,79,127,1
1,79,0,239
1,77,127,1
1,77,0,119
1,79,127,1
1,79,0,119
1,77,127,1
1,77,0,119
1,75,127,1
1,75,0,119
1,74,127,1
1,74,0,239
1,72,127,241
1,72,0,239
1,75,127,1
1,75,0,119
1,77,127,1
1,77,0,119
1,79,127,1
1,79,0,239
1,79,127,1
1,79,0,239
1,79,127,1
1,79,0,119
1,82,127,1
1,82,0,119
1,79,127,1
1,79,0,119
1,77,127,1
1,77,0,119
1,75,127,1
1,75,0,239
1,79,127,3
1,79,0,7
1,82,127,1
1,82,0,4
1,79,127,0
1,79,0,3
1,75,127,0
1,75,0,2
1,75,127,9
1,75,0,19
1,75,127,0
1,75,0,21
1,77,127,0
1,77,0,2
1,79,127,0
1,79,0,2
1,72,124,0
1,72,0,2
1,72,127,10
1,72,0,19
1,72,127,44
1,72,0,239
1,72,127,1
1,72,0,119
1,79,127,1
1,79,0,119
1,77,127,1
1,77,0,119
1,75,127,1
1,75,0,119
1,75,127,241
1,75,0,239
1,75,127,1
1,75,0,119
1,79,127,1
1,79,0,119
1,82,127,1
1,82,0,119
1,79,127,1
1,79,0,119
1,72,127,241
1,72,0,239
1,72,127,1
1,72,0,119
1,79,127,1
1,79,0,119
1,77,127,1
1,77,0,119
1,75,127,1
1,75,0,119
1,72,127,1201
1,72,0,239
1,72,127,1
1,72,0,119
1,79,127,1
1,79,0,119
1,77,127,1
1,77,0,119
1,75,127,1
1,75,0,119
1,75,127,241
1,75,0,239
1,75,127,1
1,75,0,119
1,79,127,1
1,79,0,119
1,82,127,1
1,82,0,119
1,79,127,1
1,79,0,119
1,72,127,241
1,72,0,239
1,72,127,1
1,72,0,119
1,79,127,1
1,79,0,119
1,77,127,1
1,77,0,119
1,75,127,1
1,75,0,119
1,72,127,7686
1,72,0,239
1,75,127,1
1,75,0,119
1,77,127,1
1,77,0,119
1,79,127,1
1,79,0,239
1,79,127,1
1,79,0,239
1,79,127,1
1,79,0,119
1,82,127,1
1,82,0,119
1,79,127,1
1,79,0,119
1,77,127,1
1,77,0,119
1,75,127,1
1,75,0,239
1,72,127,241
1,72,0,239
1,75,127,1
1,75,0,119
1,77,127,1
1,77,0,119
1,79,127,1
1,79,0,239
1,79,127,1
1,79,0,239
1,77,127,1
1,77,0,119
1,79,127,1
1,79,0,119
1,77,127,1
1,77,0,119
1,75,127,1
1,75,0,119
1,74,127,1
1,74,0,239
1,72,127,241
1,72,0,239
1,75,127,1
1,75,0,119
1,77,127,1
1,77,0,119
1,79,127,1
1,79,0,239
1,79,127,1
1,79,0,239
1,79,127,1
1,79,0,119
1,82,127,1
1,82,0,119
1,79,127,1
1,79,0,119
1,77,127,1
1,77,0,119
1,75,127,1
1,75,0,239
1,72,127,241
1,72,0,239
1,75,127,1
1,75,0,119
1,77,127,1
1,77,0,119
1,79,127,1
1,79,0,239
1,79,127,1
1,79,0,239
1,77,127,1
1,77,0,119
1,79,127,1
1,79,0,119
1,77,127,1
1,77,0,119
1,75,127,1
1,75,0,119
1,74,127,1
1,74,0,239
1,72,127,139
1,72,0,239
1,72,127,1
1,72,0,119
1,79,127,1
1,79,0,119
1,77,127,1
1,77,0,119
1,75,127,1
1,75,0,119
1,75,127,241
1,75,0,239
1,75,127,1
1,75,0,119
1,79,127,1
1,79,0,119
1,82,127,1
1,82,0,119
1,79,127,1
1,79,0,119
1,72,127,241
1,72,0,239
1,72,127,1
1,72,0,119
1,79,127,1
1,79,0,119
1,77,127,1
1,77,0,119
1,75,127,1
1,75,0,119
1,79,127,241
1,75,127,0
1,75,0,119
1,79,0,0
1,79,127,1
1,75,127,0
1,75,0,119
1,79,0,0
1,79,127,1
1,75,127,0
1,75,0,119
1,79,0,0
1,79,127,1
1,75,127,0
1,75,0,119
1,79,0,0
1,77,127,1
1,74,127,0
1,74,0,119
1,77,0,0
1,77,127,1
1,74,127,0
1,74,0,119
1,77,0,0
1,75,127,1
1,72,127,0
1,72,0,119
1,75,0,0
1,72,127,121
1,72,0,239
1,72,127,1
1,72,0,119
1,79,127,1
1,79,0,119
1,77,127,1
1,77,0,119
1,75,127,1
1,75,0,119
1,75,127,241
1,75,0,239
1,75,127,1
1,75,0,119
1,79,127,1
1,79,0,119
1,82,127,1
1,82,0,119
1,79,127,1
1,79,0,119
1,72,127,241
1,72,0,239
1,72,127,1
1,72,0,119
1,79,127,1
1,79,0,119
1,77,127,1
1,77,0,119
1,75,127,1
1,75,0,119
1,79,127,1
1,77,100,0
1,77,0,119
1,79,0,0
1,79,127,1
1,77,100,0
1,77,0,239
1,79,0,0
1,79,127,1
1,77,100,0
1,77,0,119
1,79,0,0
1,82,127,1
1,79,100,0
1,79,0,119
1,82,0,0
1,82,127,2
1,79,100,0
1,79,0,414
1,82,0,0
1,72,127,7745
1,72,0,239
1,75,127,1
1,75,0,119
1,77,127,1
1,77,0,119
1,79,127,1
1,79,0,239
1,79,127,1
1,79,0,239
1,79,127,1
1,79,0,119
1,82,127,1
1,82,0,119
1,79,127,1
1,79,0,119
1,77,127,1
1,77,0,119
1,75,127,1
1,75,0,239
1,72,127,241
1,72,0,239
1,75,127,1
1,75,0,119
1,77,127,1
1,77,0,119
1,79,127,1
1,79,0,239
1,79,127,1
1,79,0,239
1,77,127,1
1,77,0,119
1,79,127,1
1,79,0,119
1,77,127,1
1,77,0,119
1,75,127,1
1,75,0,119
1,74,127,1
1,74,0,239
1,72,127,241
1,72,0,239
1,75,127,1
1,75,0,119
1,77,127,1
1,77,0,119
1,79,127,1
1,79,0,239
1,79,127,1
1,79,0,239
1,79,127,1
1,79,0,119
1,82,127,1
1,82,0,119
1,79,127,1
1,79,0,119
1,77,127,1
1,77,0,119
1,75,127,1
1,75,0,239
1,72,127,241
1,72,0,239
1,75,127,1
1,75,0,119
1,77,127,1
1,77,0,119
1,79,127,1
1,79,0,239
1,79,127,1
1,79,0,239
1,77,127,1
1,77,0,119
1,79,127,1
1,79,0,119
1,77,127,1
1,77,0,119
1,75,127,1
1,75,0,119
1,74,127,1
1,74,0,239
1,72,127,139
1,72,0,239
1,72,127,1
1,72,0,119
1,79,127,1
1,79,0,119
1,77,127,1
1,77,0,119
1,75,127,1
1,75,0,119
1,75,127,241
1,75,0,239
1,75,127,1
1,75,0,119
1,79,127,1
1,79,0,119
1,82,127,1
1,82,0,119
1,79,127,1
1,79,0,119
1,72,127,241
1,72,0,239
1,72,127,1
1,72,0,119
1,79,127,1
1,79,0,119
1,77,127,1
1,77,0,119
1,75,127,1
1,75,0,119
1,79,127,241
1,75,127,0
1,75,0,119
1,79,0,0
1,79,127,1
1,75,127,0
1,75,0,119
1,79,0,0
1,79,127,1
1,75,127,0
1,75,0,119
1,79,0,0
1,79,127,1
1,75,127,0
1,75,0,119
1,79,0,0
1,77,127,1
1,74,127,0
1,74,0,119
1,77,0,0
1,77,127,1
1,74,127,0
1,74,0,119
1,77,0,0
1,75,127,1
1,72,127,0
1,72,0,119
1,75,0,0
1,72,127,121
1,72,0,239
1,72,127,1
1,72,0,119
1,79,127,1
1,79,0,119
1,77,127,1
1,77,0,119
1,75,127,1
1,75,0,119
1,75,127,241
1,75,0,239
1,75,127,1
1,75,0,119
1,79,127,1
1,79,0,119
1,82,127,1
1,82,0,119
1,79,127,1
1,79,0,119
1,72,127,241
1,72,0,239
1,72,127,1
1,72,0,119
1,79,127,1
1,79,0,119
1,77,127,1
1,77,0,119
1,75,127,1
1,75,0,119
1,79,127,1
1,77,100,0
1,77,0,119
1,79,0,0
1,79,127,1
1,77,100,0
1,77,0,239
1,79,0,0
1,79,127,1
1,77,100,0
1,77,0,119
1,79,0,0
1,82,127,1
1,79,100,0
1,79,0,119
1,82,0,0
1,82,127,2
1,79,100,0
1,79,0,414
1,82,0,0
1,72,127,185
1,72,0,239
1,72,127,1
1,72,0,119
1,79,127,1
1,79,0,119
1,77,127,1
1,77,0,119
1,75,127,1
1,75,0,119
1,75,127,241
1,75,0,239
1,75,127,1
1,75,0,119
1,79,127,1
1,79,0,119
1,82,127,1
1,82,0,119
1,79,127,1
1,79,0,119
1,72,127,241
1,72,0,239
1,72,127,1
1,72,0,119
1,79,127,1
1,79,0,119
1,77,127,1
1,77,0,119
1,75,127,1
1,75,0,119
1,79,127,241
1,75,115,0
1,75,0,119
1,79,0,0
1,79,127,1
1,75,115,0
1,75,0,119
1,79,0,0
1,79,127,1
1,75,115,0
1,75,0,119
1,79,0,0
1,79,127,1
1,75,115,0
1,75,0,119
1,79,0,0
1,77,127,1
1,74,115,0
1,74,0,119
1,77,0,0
1,77,127,1
1,74,115,0
1,74,0,119
1,77,0,0
1,75,127,1
1,72,115,0
1,72,0,119
1,75,0,0
1,72,127,121
1,72,0,239
1,72,127,1
1,72,0,119
1,79,127,1
1,79,0,119
1,77,127,1
1,77,0,119
1,75,127,1
1,75,0,119
1,75,127,241
1,75,0,239
1,75,127,1
1,75,0,119
1,79,127,1
1,79,0,119
1,82,127,1
1,82,0,119
1,79,127,1
1,79,0,119
1,79,127,0
1,79,0,5
1,82,127,0
1,82,0,4
1,79,127,0
1,79,0,3
1,75,127,0
1,75,0,2
1,75,127,3
1,75,0,6
1,75,127,0
1,75,0,5
1,77,127,0
1,77,0,2
1,79,127,0
1,79,0,2
1,72,127,1
1,72,0,2
1,72,127,4
1,72,0,14
1,72,127,34
1,72,0,239
1,72,127,1
1,72,0,119
1,79,127,1
1,79,0,119
1,77,127,1
1,77,0,119
1,75,127,1
1,75,0,119
1,72,127,1201
1,72,0,239
1,72,127,1
1,72,0,119
1,79,127,1
1,79,0,119
1,77,127,1
1,77,0,119
1,75,127,1
1,75,0,119
1,72,127,1201
1,72,0,239
1,72,127,1
1,72,0,119
1,79,127,1
1,79,0,119
1,77,127,1
1,77,0,119
1,75,127,1
1,75,0,119
1,72,127,1201
1,72,0,239
1,72,127,1
1,72,0,119
1,79,127,1
1,79,0,119
1,77,127,1
1,77,0,119
1,75,127,1
1,75,0,119
1,82,127,132
1,82,0,119
1,82,127,1
1,82,0,119
1,82,127,1
1,82,0,119
1,82,127,1
1,82,0,119
1,82,127,1
1,82,0,119
1,82,127,1
1,82,0,119
1,84,127,1
1,82,127,18
1,84,0,51
1,79,127,17
1,82,0,99
1,79,0,1244
1,72,127,129
1,72,0,239
1,72,127,1
1,72,0,119
1,79,127,1
1,79,0,119
1,77,127,1
1,77,0,119
1,75,127,1
1,75,0,119
1,75,127,241
1,75,0,239
1,75,127,1
1,75,0,119
1,79,127,1
1,79,0,119
1,82,127,1
1,82,0,119
1,79,127,1
1,79,0,119
1,72,127,241
1,72,0,239
1,72,127,1
1,72,0,119
1,79,127,1
1,79,0,119
1,77,127,1
1,77,0,119
1,75,127,1
1,75,0,119
1,79,127,241
1,75,127,0
1,75,0,119
1,79,0,0
1,75,127,1
1,79,127,0
1,79,0,119
1,75,0,0
1,75,127,1
1,79,127,0
1,79,0,119
1,75,0,0
1,79,127,1
1,75,127,0
1,75,0,119
1,79,0,0
1,74,127,1
1,77,127,0
1,77,0,119
1,74,0,0
1,74,127,1
1,77,127,0
1,77,0,119
1,74,0,0
1,75,127,1
1,72,127,0
1,72,0,119
1,75,0,0
1,72,127,121
1,72,0,239
1,72,127,1
1,72,0,119
1,79,127,1
1,79,0,119
1,77,127,1
1,77,0,119
1,75,127,1
1,75,0,119
1,75,127,241
1,75,0,239
1,75,127,1
1,75,0,119
1,79,127,1
1,79,0,119
1,82,127,1
1,82,0,119
1,79,127,1
1,79,0,119
1,72,127,241
1,72,0,239
1,72,127,1
1,72,0,119
1,79,127,1
1,79,0,119
1,77,127,1
1,77,0,119
1,75,127,1
1,75,0,119
1,79,127,1
1,77,127,0
1,77,0,119
1,79,0,0
1,77,127,1
1,79,127,0
1,79,0,239
1,77,0,0
1,77,127,1
1,79,127,0
1,79,0,119
1,77,0,0
1,82,127,1
1,79,127,0
1,79,0,119
1,82,0,0
1,79,127,2
1,82,127,0
1,82,0,414
1,79,0,0
1,72,127,185
1,72,0,239
1,72,127,1
1,72,0,119
1,79,127,1
1,79,0,119
1,77,127,1
1,77,0,119
1,75,127,1
1,75,0,119
1,75,127,241
1,75,0,239
1,75,127,1
1,75,0,119
1,79,127,1
1,79,0,119
1,82,127,1
1,82,0,119
1,79,127,1
1,79,0,119
1,72,127,241
1,72,0,239
1,72,127,1
1,72,0,119
1,79,127,1
1,79,0,119
1,77,127,1
1,77,0,119
1,75,127,1
1,75,0,119
1,79,127,241
1,75,100,0
1,75,0,119
1,79,0,0
1,79,127,1
1,75,100,0
1,75,0,119
1,79,0,0
1,79,127,1
1,75,100,0
1,75,0,119
1,79,0,0
1,75,100,1
1,79,127,0
1,79,0,119
1,75,0,0
1,77,127,1
1,74,100,0
1,74,0,119
1,77,0,0
1,74,100,1
1,77,127,0
1,77,0,119
1,74,0,0
1,75,127,1
1,72,100,0
1,72,0,119
1,75,0,0
1,72,127,121
1,72,0,239
1,72,127,1
1,72,0,119
1,79,127,1
1,79,0,119
1,77,127,1
1,77,0,119
1,75,127,1
1,75,0,119
1,75,127,241
1,75,0,239
1,75,127,1
1,75,0,119
1,79,127,1
1,79,0,119
1,82,127,1
1,82,0,119
1,79,127,1
1,79,0,119
1,72,127,241
1,72,0,239
1,72,127,1
1,72,0,119
1,79,127,1
1,79,0,119
1,77,127,1
1,77,0,119
1,75,127,1
1,75,0,119
1,79,127,1
1,77,100,0
1,77,0,119
1,79,0,0
1,79,127,1
1,77,100,0
1,77,0,239
1,79,0,0
1,77,100,1
1,79,127,0
1,79,0,119
1,77,0,0
1,82,127,1
1,79,100,0
1,79,0,119
1,82,0,0
1,82,127,2
1,79,100,0
1,82,127,234
1,79,0,53
1,82,0,162
1,82,127,30
1,82,0,157
1,82,127,50
1,82,0,72
1,82,121,23
1,82,0,2
1,79,121,0
1,82,0,5
1,79,0,491
1,79,127,3
1,79,0,7
1,82,127,1
1,82,0,4
1,79,127,0
1,79,0,3
1,75,127,0
1,75,0,2
1,75,127,9
1,75,0,19
1,75,127,0
1,75,0,21
1,77,127,0
1,77,0,2
1,79,127,0
1,79,0,2
1,72,124,0
1,72,0,2
1,72,127,10
1,72,0,2
1,72,100,31
1,72,0,6
1,72,80,25
1,72,0,26
1,72,60,25
1,72,0,44
4,79,102,2855
4,48,102,0
4,79,0,119
4,72,102,1
4,72,0,119
4,75,102,1
4,75,0,119
4,79,102,1
4,79,0,119
4,77,102,1
4,77,0,119
4,72,102,1
4,72,0,119
4,79,102,1
4,79,0,119
4,72,102,1
4,72,0,119
4,48,0,0
4,80,102,1
4,44,102,0
4,80,0,119
4,72,102,1
4,72,0,119
4,75,102,1
4,75,0,119
4,80,102,1
4,80,0,119
4,44,0,0
4,77,102,1
4,46,102,0
4,77,0,119
4,70,102,1
4,70,0,119
4,74,102,1
4,74,0,119
4,77,102,1
4,77,0,119
4,46,0,0
4,75,102,1
4,48,102,0
4,75,0,119
4,67,102,1
4,67,0,119
4,72,102,1
4,72,0,119
4,75,102,1
4,75,0,119
4,74,102,1
4,74,0,119
4,67,102,1
4,67,0,119
4,75,102,1
4,75,0,119
4,67,102,1
4,67,0,119
4,48,0,0
4,75,102,1
4,44,102,0
4,75,0,119
4,68,102,1
4,68,0,119
4,72,102,1
4,72,0,119
4,75,102,1
4,75,0,119
4,44,0,0
4,77,102,1
4,46,102,0
4,77,0,119
4,70,102,1
4,70,0,119
4,74,102,1
4,74,0,119
4,77,102,1
4,77,0,119
4,46,0,0
