track,note,velocity,time
3,27,95,7497
3,27,0,33
3,27,80,87
3,27,0,36
3,32,72,29
3,32,0,43
3,32,60,77
3,32,0,27
3,32,64,28
3,32,0,36
3,32,63,29
3,32,0,37
3,27,89,18
3,27,0,37
3,27,65,28
3,27,0,31
3,27,70,24
3,27,0,40
3,32,79,80
3,32,0,40
3,32,68,80
3,32,0,26
3,32,65,39
3,32,0,33
3,27,93,22
3,27,0,40
3,27,86,80
3,27,0,35
3,32,77,30
3,32,0,37
3,32,69,83
3,32,0,27
3,32,71,28
3,32,0,32
3,32,64,33
3,32,0,32
3,27,88,23
3,27,0,35
3,32,77,30
3,32,0,32
3,27,59,23
3,27,0,23
3,32,89,97
3,32,0,36
3,32,72,84
3,32,0,28
3,32,68,37
3,32,0,35
3,27,91,20
3,27,0,40
3,27,79,80
3,27,0,33
3,27,51,32
3,27,0,45
3,32,79,10
3,32,0,36
3,32,70,84
3,32,0,30
3,32,70,35
3,32,0,37
3,27,89,18
3,27,0,36
3,32,78,29
3,32,0,28
3,27,78,27
3,27,0,32
3,32,84,88
3,32,0,32
3,32,80,88
3,32,0,30
3,32,72,35
3,32,0,32
3,27,87,23
3,27,0,40
3,27,86,80
3,27,0,38
3,32,84,82
3,32,0,36
3,32,79,84
3,32,0,33
3,32,56,32
3,32,0,27
3,27,88,28
3,27,0,43
3,27,87,77
3,27,0,42
3,32,88,78
3,32,0,33
3,32,75,87
3,32,0,30
3,32,70,35
3,32,0,33
3,27,107,22
3,27,0,60
3,66,87,540
3,66,0,37
3,65,89,23
3,65,0,28
3,65,80,92
3,65,0,15
3,65,87,45
3,65,0,25
3,27,94,95
3,36,105,0
3,42,103,0
3,44,107,0
3,49,88,0
3,56,82,0
3,57,74,0
3,44,0,32
3,27,0,1
3,36,0,4
3,49,0,6
3,57,0,5
3,42,0,34
3,27,79,38
3,44,51,0
3,67,35,0
3,44,0,15
3,56,0,3
3,67,0,3
3,27,0,15
3,32,71,29
3,44,66,0
3,67,43,0
3,44,0,27
3,67,0,9
3,32,0,7
3,28,74,12
3,36,103,0
3,39,104,0
3,42,74,0
3,56,77,0
3,39,0,31
3,42,0,2
3,36,0,4
3,28,0,9
3,32,59,19
3,32,0,27
3,32,63,28
3,44,53,0
3,68,59,0
3,44,0,20
3,56,0,1
3,68,0,10
3,32,0,5
3,32,62,29
3,44,60,0
3,68,36,0
3,68,0,30
3,44,0,1
3,32,0,6
3,27,88,18
3,36,99,0
3,42,93,0
3,44,90,0
3,56,73,0
3,44,0,33
3,27,0,4
3,36,0,10
3,27,64,18
3,42,0,10
3,27,0,21
3,27,69,24
3,44,53,0
3,67,44,0
3,56,0,15
3,44,0,3
3,67,0,3
3,27,0,19
3,44,35,25
3,67,27,0
3,44,0,21
3,67,0,1
3,28,79,33
3,32,78,0
3,36,103,0
3,39,99,0
3,42,64,0
3,56,76,0
3,39,0,33
3,28,0,2
3,32,0,5
3,42,0,1
3,36,0,52
3,32,67,27
3,44,53,0
3,68,40,0
3,68,0,15
3,32,0,11
3,44,0,1
3,56,0,9
3,32,64,29
3,44,54,0
3,68,34,0
3,44,0,28
3,32,0,5
3,68,0,4
3,27,92,18
3,36,99,0
3,42,90,0
3,44,89,0
3,56,74,0
3,27,0,40
3,44,0,1
3,36,0,10
3,42,0,46
3,27,85,23
3,44,53,0
3,67,38,0
3,44,0,17
3,67,0,4
3,56,0,7
3,27,0,7
3,32,76,30
3,44,27,0
3,67,45,0
3,44,0,20
3,67,0,2
3,32,0,15
3,28,82,18
3,36,94,0
3,39,99,0
3,42,76,0
3,56,76,0
3,39,0,35
3,28,0,3
3,36,0,0
3,42,0,17
3,32,68,10
3,32,0,27
3,32,70,28
3,44,59,0
3,68,43,0
3,68,0,18
3,44,0,10
3,32,0,4
3,56,0,3
3,32,63,30
3,44,61,0
3,68,25,0
3,44,0,30
3,32,0,2
3,68,0,11
3,27,87,12
3,36,103,0
3,42,87,0
3,44,85,0
3,56,71,0
3,27,0,35
3,36,0,3
3,44,0,10
3,32,76,17
3,32,0,32
3,42,0,21
3,27,58,2
3,44,56,0
3,67,44,0
3,67,0,21
3,44,0,0
3,27,0,2
3,56,0,9
3,44,51,33
3,67,35,0
3,44,0,30
3,67,0,3
3,28,85,22
3,32,88,0
3,36,103,0
3,39,94,0
3,42,79,0
3,56,70,0
3,39,0,35
3,32,0,1
3,28,0,1
3,36,0,0
3,42,0,36
3,32,71,47
3,36,74,0
3,44,55,0
3,68,53,0
3,44,0,22
3,32,0,6
3,68,0,0
3,36,0,4
3,56,0,4
3,32,67,29
3,44,62,0
3,68,35,0
3,44,0,32
3,32,0,3
3,68,0,2
3,27,90,18
3,36,101,0
3,42,93,0
3,44,85,0
3,56,73,0
3,27,0,40
3,44,0,28
3,36,0,2
3,42,0,48
3,27,78,2
3,44,43,0
3,67,36,0
3,44,0,15
3,67,0,7
3,27,0,11
3,56,0,9
3,27,50,23
3,44,58,0
3,67,42,0
3,67,0,35
3,44,0,0
3,27,0,10
3,28,74,10
3,32,78,0
3,36,103,0
3,39,92,0
3,42,79,0
3,56,79,0
3,32,0,36
3,39,0,2
3,28,0,8
3,36,0,31
3,42,0,33
3,32,69,10
3,44,55,0
3,68,34,0
3,68,0,21
3,44,0,1
3,32,0,8
3,56,0,12
3,32,69,23
3,44,62,0
3,68,36,0
3,44,0,31
3,68,0,6
3,32,0,0
3,27,88,18
3,36,103,0
3,42,93,0
3,44,89,0
3,56,73,0
3,27,0,36
3,32,77,29
3,44,0,10
3,36,0,0
3,32,0,18
3,42,0,25
3,27,77,2
3,44,59,0
3,67,24,0
3,67,0,23
3,44,0,2
3,27,0,7
3,56,0,8
3,44,48,25
3,67,43,0
3,44,0,25
3,67,0,1
3,28,79,29
3,32,83,0
3,36,103,0
3,39,96,0
3,42,75,0
3,56,73,0
3,32,0,32
3,28,0,3
3,39,0,2
3,36,0,6
3,42,0,75
3,32,79,2
3,44,62,0
3,68,41,0
3,44,0,27
3,68,0,3
3,32,0,0
3,56,0,2
3,32,71,33
3,44,51,0
3,68,25,0
3,44,0,27
3,32,0,5
3,68,0,4
3,27,86,19
3,36,105,0
3,42,85,0
3,44,82,0
3,56,75,0
3,27,0,40
3,36,0,5
3,44,0,60
3,42,0,13
3,27,85,2
3,44,48,0
3,67,33,0
3,44,0,15
3,67,0,6
3,27,0,17
3,56,0,5
3,44,63,22
3,67,43,0
3,44,0,27
3,67,0,4
3,28,82,24
3,32,83,0
3,36,105,0
3,39,96,0
3,42,82,0
3,56,78,0
3,39,0,35
3,32,0,1
3,28,0,2
3,36,0,2
3,42,0,78
3,32,78,2
3,44,55,0
3,68,37,0
3,44,0,20
3,68,0,2
3,32,0,11
3,56,0,14
3,32,55,18
3,44,55,0
3,68,38,0
3,32,0,27
3,44,0,3
3,68,0,6
3,27,87,19
3,36,103,0
3,42,90,0
3,44,89,0
3,56,78,0
3,36,0,40
3,27,0,3
3,44,0,43
3,42,0,32
3,27,86,2
3,44,60,0
3,65,88,0
3,67,51,0
3,44,0,17
3,67,0,3
3,65,0,13
3,56,0,3
3,27,0,6
3,44,63,23
3,65,80,0
3,67,36,0
3,67,0,22
3,65,0,6
3,44,0,2
3,28,85,25
3,32,87,0
3,36,103,0
3,39,99,0
3,42,84,0
3,56,78,0
3,66,83,0
3,32,0,33
3,39,0,3
3,28,0,1
3,36,0,3
3,66,0,2
3,42,0,63
3,32,74,15
3,36,91,0
3,44,60,0
3,66,71,0
3,68,44,0
3,68,0,13
3,44,0,10
3,36,0,4
3,32,0,3
3,56,0,1
3,66,0,4
3,32,69,30
3,44,58,0
3,65,75,0
3,68,50,0
3,68,0,31
3,44,0,0
3,32,0,2
3,27,94,22
3,36,105,0
3,42,88,0
3,49,94,0
3,56,83,0
3,65,0,3
3,27,0,30
3,36,0,3
3,42,0,82
3,27,79,2
3,44,60,0
3,67,37,0
3,67,0,21
3,44,0,7
3,56,0,4
3,27,0,4
3,32,71,29
3,67,29,0
3,44,69,5
3,67,0,17
3,32,0,21
3,44,0,3
3,28,74,9
3,36,99,0
3,39,101,0
3,42,90,0
3,56,80,0
3,39,0,36
3,36,0,2
3,28,0,8
3,32,59,19
3,32,0,27
3,42,0,26
3,32,63,2
3,44,44,0
3,68,62,0
3,68,0,33
3,44,0,0
3,32,0,3
3,56,0,6
3,49,0,21
3,32,62,2
3,56,79,0
3,68,36,0
3,44,59,5
3,68,0,13
3,32,0,19
3,44,0,10
3,27,88,8
3,36,101,0
3,42,93,0
3,27,0,37
3,36,0,3
3,27,64,25
3,56,0,27
3,27,0,4
3,42,0,22
3,27,69,2
3,44,67,0
3,67,28,0
3,67,0,21
3,44,0,9
3,27,0,10
3,67,42,25
3,44,67,5
3,67,0,17
3,44,0,28
3,28,79,5
3,32,78,0
3,36,101,0
3,39,96,0
3,42,88,0
3,56,80,0
3,28,0,35
3,39,0,2
3,32,0,3
3,36,0,0
3,42,0,78
3,32,67,2
3,44,70,0
3,68,26,0
3,68,0,18
3,32,0,8
3,56,0,2
3,44,0,4
3,32,64,33
3,68,51,0
3,44,68,5
3,32,0,28
3,68,0,3
3,44,0,14
3,27,92,5
3,36,101,0
3,42,93,0
3,56,76,0
3,27,0,40
3,36,0,2
3,42,0,76
3,27,85,2
3,44,62,0
3,67,36,0
3,67,0,20
3,56,0,1
3,44,0,10
3,27,0,4
3,32,76,30
3,67,46,0
3,44,71,5
3,67,0,31
3,32,0,1
3,44,0,9
3,28,82,9
3,36,101,0
3,39,99,0
3,42,92,0
3,56,73,0
3,39,0,37
3,28,0,1
3,36,0,4
3,32,68,23
3,32,0,27
3,42,0,26
3,32,70,2
3,44,65,0
3,68,59,0
3,68,0,23
3,56,0,2
3,44,0,3
3,32,0,4
3,32,63,33
3,68,54,0
3,44,65,5
3,32,0,27
3,68,0,1
3,44,0,10
3,27,87,12
3,36,101,0
3,42,93,0
3,56,70,0
3,27,0,35
3,36,0,7
3,32,76,23
3,32,0,32
3,42,0,21
3,27,58,2
3,44,66,0
3,67,43,0
3,67,0,18
3,27,0,5
3,56,0,5
3,44,0,2
3,67,40,35
3,44,69,5
3,67,0,26
3,44,0,14
3,28,85,10
3,32,88,0
3,36,101,0
3,39,99,0
3,42,90,0
3,56,70,0
3,32,0,36
3,28,0,1
3,39,0,3
3,36,0,2
3,42,0,76
3,32,71,2
3,44,69,0
3,68,50,0
3,68,0,17
3,44,0,11
3,32,0,0
3,56,0,18
3,32,67,19
3,68,52,0
3,44,68,5
3,68,0,27
3,32,0,3
3,44,0,10
3,27,90,10
3,36,101,0
3,42,93,0
3,56,70,0
3,27,0,40
3,36,0,2
3,42,0,76
3,27,78,2
3,44,60,0
3,67,40,0
3,56,0,15
3,67,0,5
3,44,0,3
3,27,0,10
3,27,50,32
3,67,41,0
3,44,63,5
3,67,0,32
3,44,0,8
3,27,0,0
3,28,74,10
3,32,78,0
3,36,99,0
3,39,96,0
3,42,93,0
3,56,67,0
3,32,0,36
3,39,0,4
3,36,0,0
3,28,0,6
3,42,0,72
3,32,69,2
3,44,69,0
3,68,39,0
3,68,0,18
3,56,0,8
3,32,0,4
3,44,0,3
3,32,69,32
3,68,56,0
3,44,64,5
3,68,0,26
3,32,0,6
3,44,0,8
3,27,88,10
3,36,103,0
3,42,92,0
3,56,69,0
3,27,0,36
3,36,0,5
3,32,77,24
3,32,0,28
3,42,0,25
3,27,77,2
3,44,70,0
3,56,0,27
3,44,0,1
3,27,0,4
3,67,49,33
3,44,72,5
3,67,0,31
3,44,0,7
3,28,79,12
3,32,83,0
3,36,95,0
3,39,99,0
3,42,94,0
3,56,70,0
3,32,0,32
3,28,0,3
3,36,0,5
3,39,0,7
3,42,0,71
3,32,79,2
3,44,70,0
3,68,47,0
3,68,0,18
3,44,0,12
3,32,0,0
3,56,0,11
3,32,71,24
3,68,56,0
3,44,68,5
3,32,0,27
3,68,0,6
3,44,0,4
3,27,86,13
3,36,99,0
3,42,92,0
3,56,69,0
3,27,0,40
3,36,0,2
3,42,0,76
3,27,85,2
3,44,64,0
3,67,36,0
3,67,0,21
3,44,0,1
3,56,0,10
3,27,0,6
3,67,51,27
3,44,75,5
3,67,0,32
3,44,0,6
3,28,82,12
3,32,83,0
3,36,101,0
3,39,104,0
3,42,94,0
3,56,73,0
3,32,0,36
3,28,0,2
3,36,0,2
3,39,0,37
3,42,0,41
3,32,78,2
3,44,77,0
3,68,48,0
3,68,0,17
3,56,0,5
3,44,0,5
3,32,0,6
3,32,55,32
3,68,57,0
3,44,74,5
3,32,0,22
3,68,0,8
3,44,0,6
3,27,87,14
3,36,103,0
3,42,99,0
3,56,72,0
3,36,0,40
3,27,0,3
3,42,0,75
3,27,86,2
3,44,78,0
3,66,75,0
3,67,53,0
3,67,0,20
3,44,0,7
3,66,0,11
3,56,0,3
3,27,0,1
3,67,45,23
3,44,75,5
3,44,0,33
3,67,0,0
3,28,85,17
3,32,87,0
3,36,103,0
3,39,104,0
3,42,99,0
3,56,75,0
3,65,73,0
3,65,0,18
3,32,0,15
3,28,0,4
3,36,0,1
3,39,0,4
3,42,0,66
3,32,74,12
3,44,81,0
3,65,68,0
3,68,53,0
3,65,0,15
3,68,0,10
3,44,0,3
3,32,0,2
3,56,0,20
3,32,69,15
3,65,70,0
3,68,52,0
3,44,62,5
3,65,0,21
3,68,0,6
3,32,0,1
3,44,0,5
3,27,106,17
3,36,113,0
3,46,97,0
3,49,88,0
3,56,83,0
3,57,77,0
3,46,0,30
3,36,0,3
3,49,0,5
3,57,0,12
3,27,0,10
3,50,76,420
3,50,0,118
3,56,0,40
3,48,86,82
3,48,0,37
3,43,76,83
3,43,0,118
3,36,101,6722
3,44,88,0
3,44,0,37
3,36,0,43
3,44,52,40
3,44,0,22
3,44,57,48
3,44,0,32
3,28,76,18
3,36,101,0
3,39,74,0
3,42,78,0
3,28,0,41
3,39,0,7
3,42,0,17
3,36,0,8
3,44,61,47
3,44,0,26
3,44,62,44
3,44,0,31
3,36,101,19
3,44,87,0
3,44,0,41
3,36,0,35
3,44,61,44
3,44,0,25
3,44,65,45
3,44,0,33
3,28,72,17
3,36,101,0
3,39,77,0
3,44,94,0
3,28,0,33
3,44,0,2
3,36,0,2
3,39,0,9
3,36,88,74
3,44,63,0
3,44,0,23
3,36,0,20
3,44,68,27
3,44,0,32
3,36,118,18
3,44,101,0
3,52,95,0
3,57,76,0
3,52,0,27
3,36,0,9
3,44,0,9
3,57,0,3
3,44,53,72
3,44,0,20
3,44,64,50
3,44,0,35
3,28,74,15
3,36,110,0
3,39,77,0
3,42,85,0
3,28,0,38
3,42,0,7
3,36,0,1
3,39,0,4
3,44,46,70
3,44,0,26
3,44,64,44
3,44,0,36
3,36,105,14
3,44,76,0
3,44,0,38
3,36,0,2
3,44,64,80
3,44,0,26
3,44,67,44
3,44,0,33
3,28,74,17
3,36,101,0
3,39,75,0
3,44,82,0
3,44,0,40
3,28,0,2
3,36,0,4
3,39,0,7
3,44,67,67
3,44,0,26
3,44,66,44
3,44,0,32
3,36,101,18
3,44,88,0
3,44,0,40
3,36,0,32
3,44,65,48
3,44,0,25
3,44,62,45
3,44,0,32
3,28,76,18
3,36,103,0
3,39,74,0
3,42,89,0
3,28,0,41
3,36,0,2
3,39,0,5
3,42,0,14
3,44,67,58
3,44,0,27
3,44,61,43
3,36,95,50
3,44,0,22
3,36,0,26
3,44,75,72
3,44,0,27
3,44,72,43
3,44,0,30
3,28,72,20
3,36,99,0
3,39,77,0
3,44,88,0
3,44,0,33
3,28,0,0
3,36,0,12
3,39,0,1
3,44,71,74
3,44,0,26
3,44,69,44
3,44,0,28
3,36,103,22
3,44,101,0
3,44,0,36
3,36,0,5
3,44,68,79
3,44,0,26
3,44,59,44
3,44,0,28
3,28,74,22
3,36,101,0
3,39,77,0
3,42,80,0
3,28,0,38
3,36,0,3
3,42,0,1
3,39,0,8
3,44,61,70
3,44,0,23
