track,note,velocity,time
3,44,107,717
3,56,114,120
3,58,110,120
3,63,105,120
3,63,0,600
3,44,0,0
3,56,0,0
3,58,0,0
3,46,118,0
3,53,111,120
3,58,108,120
3,63,124,120
3,62,109,240
3,62,0,360
3,58,0,0
3,46,0,0
3,53,0,0
3,63,0,0
3,44,84,0
3,56,107,120
3,58,106,120
3,63,82,120
3,63,0,600
3,44,0,0
3,56,0,0
3,58,0,0
3,46,90,0
3,53,120,120
3,58,92,120
3,63,84,120
3,62,92,240
3,62,0,360
3,58,0,0
3,46,0,0
3,53,0,0
3,63,0,0
3,63,95,11520
3,56,97,0
3,60,90,0
3,60,0,360
3,56,0,0
3,63,0,0
3,63,69,0
3,56,109,0
3,60,109,0
3,60,0,600
3,56,0,0
3,63,0,0
3,65,77,0
3,58,72,0
3,62,94,0
3,62,0,360
3,58,0,0
3,65,0,0
3,65,85,0
3,58,84,0
3,62,72,0
3,62,0,600
3,58,0,0
3,65,0,0
3,55,94,0
3,63,111,0
3,60,86,0
3,60,0,1920
3,63,0,0
3,55,0,0
3,74,124,2640
3,74,0,120
3,75,114,0
3,75,0,120
3,79,119,0
3,79,0,960
3,44,108,0
3,56,111,120
3,58,101,120
3,63,97,120
3,63,0,600
3,44,0,0
3,56,0,0
3,58,0,0
3,46,104,0
3,53,113,120
3,58,108,120
3,63,101,120
3,62,97,240
3,62,0,360
3,58,0,0
3,46,0,0
3,53,0,0
3,63,0,0
3,44,104,0
3,56,99,120
3,58,112,120
3,63,101,120
3,63,0,600
3,44,0,0
3,56,0,0
3,58,0,0
3,46,109,0
3,53,113,120
3,58,113,120
3,63,95,120
3,62,92,240
3,62,0,360
3,58,0,0
3,46,0,0
3,53,0,0
3,63,0,0
3,56,111,120
3,58,101,120
3,63,97,120
3,63,0,600
3,58,0,0
3,56,0,0
3,53,113,120
3,58,108,120
3,63,101,120
3,63,0,600
3,58,0,0
3,53,0,0
3,44,104,0
3,56,99,120
3,58,112,120
3,63,101,120
3,63,0,600
3,44,0,0
3,56,0,0
3,58,0,0
3,46,109,0
3,53,113,120
3,58,113,120
3,62,92,360
3,62,0,360
3,46,0,0
3,53,0,0
3,58,0,0
3,63,104,7080
3,63,0,120
3,62,97,0
3,62,0,180
3,60,121,0
3,60,0,180
3,56,127,0
3,56,0,120
3,55,103,0
3,55,0,960
3,72,123,2520
3,72,0,120
3,74,116,0
3,74,0,120
3,75,105,0
3,75,0,120
3,82,105,0
3,82,0,840
3,82,126,0
3,82,125,960
3,82,0,120
3,55,94,0
3,63,111,0
3,60,86,0
3,82,0,960
3,74,123,480
3,74,0,120
3,75,107,0
3,75,0,120
3,72,122,0
3,72,0,120
3,74,122,0
3,60,0,120
3,55,0,0
3,63,0,0
3,74,0,960
3,74,124,1680
3,74,0,120
3,75,114,0
3,75,0,120
3,79,119,0
3,79,0,960
3,44,108,0
3,56,111,120
3,58,101,120
3,63,97,120
3,63,0,600
3,44,0,0
3,56,0,0
3,58,0,0
3,46,104,0
3,53,113,120
3,58,108,120
3,63,101,120
3,62,97,240
3,62,0,360
3,58,0,0
3,46,0,0
3,53,0,0
3,63,0,0
3,44,104,0
3,56,99,120
3,58,112,120
3,63,101,120
3,63,0,600
3,44,0,0
3,56,0,0
3,58,0,0
3,46,109,0
3,53,113,120
3,58,113,120
3,63,95,120
3,62,92,240
3,62,0,360
3,58,0,0
3,46,0,0
3,53,0,0
3,63,0,0
3,56,111,120
3,58,101,120
3,63,97,120
3,63,0,600
3,58,0,0
3,56,0,0
3,53,113,120
3,58,108,120
3,63,101,120
3,63,0,600
3,58,0,0
3,53,0,0
3,60,108,9600
3,44,108,0
3,56,111,120
3,58,101,120
3,63,97,120
3,63,0,600
3,56,0,0
3,60,0,0
3,44,0,0
3,58,0,0
3,46,104,0
3,53,113,120
3,58,108,120
3,63,101,120
3,62,97,240
3,62,0,360
3,58,0,0
3,46,0,0
3,53,0,0
3,63,0,0
3,44,104,0
3,56,99,120
3,58,112,120
3,63,101,120
3,63,0,600
3,44,0,0
3,56,0,0
3,58,0,0
3,46,109,0
3,53,113,120
3,58,113,120
3,63,95,120
3,62,92,240
3,62,0,360
3,58,0,0
3,46,0,0
3,53,0,0
3,63,0,0
3,41,127,0
3,56,111,120
3,58,101,120
3,63,97,120
3,63,0,600
3,41,0,0
3,56,0,0
3,58,0,0
3,43,127,0
3,53,113,120
3,58,108,120
3,63,101,120
3,63,0,600
3,43,0,0
3,53,0,0
3,58,0,0
3,44,104,0
3,56,99,120
3,58,112,120
3,63,101,120
3,63,0,600
3,44,0,0
3,56,0,0
3,58,0,0
3,46,109,0
3,53,113,120
3,58,113,120
3,62,92,360
3,62,0,360
3,46,0,0
3,53,0,0
3,58,0,0
3,44,108,0
3,56,111,120
3,58,101,120
3,63,97,120
3,63,0,600
3,44,0,0
3,56,0,0
3,58,0,0
3,46,104,0
3,53,113,120
3,58,108,120
3,63,101,120
3,62,97,240
3,62,0,360
3,58,0,0
3,46,0,0
3,53,0,0
3,63,0,0
3,44,104,0
3,56,99,120
3,58,112,120
3,63,101,120
3,63,0,600
3,44,0,0
3,56,0,0
3,58,0,0
3,46,109,0
3,53,113,120
3,58,113,120
3,63,95,120
3,62,92,240
3,62,0,360
3,58,0,0
3,46,0,0
3,53,0,0
3,63,0,0
3,56,111,120
3,58,101,120
3,63,97,120
3,63,0,600
3,58,0,0
3,56,0,0
3,53,113,120
3,58,108,120
3,63,101,120
3,63,0,600
3,58,0,0
3,53,0,0
3,44,104,0
3,56,99,120
3,58,112,120
3,63,101,120
3,63,0,600
3,44,0,0
3,56,0,0
3,58,0,0
3,46,109,0
3,53,113,120
3,58,113,120
3,62,92,360
3,62,0,360
3,46,0,0
3,53,0,0
3,58,0,0
3,44,108,0
3,56,111,120
3,58,101,120
3,63,97,120
3,63,0,600
3,44,0,0
3,56,0,0
3,58,0,0
3,46,104,0
3,53,113,120
3,58,108,120
3,63,101,120
3,62,97,240
3,62,0,360
3,58,0,0
3,46,0,0
3,53,0,0
3,63,0,0
3,44,104,0
3,56,99,120
3,58,112,120
3,63,101,120
3,63,0,600
3,44,0,0
3,56,0,0
3,58,0,0
3,46,109,0
3,53,113,120
3,58,113,120
3,63,95,120
3,62,92,240
3,62,0,360
3,58,0,0
3,46,0,0
3,53,0,0
3,63,0,0
3,56,111,120
3,58,101,120
3,63,97,120
3,63,0,600
3,58,0,0
3,56,0,0
3,53,113,120
3,58,108,120
3,63,101,120
3,63,0,600
3,58,0,0
3,53,0,0
3,44,104,0
3,56,99,120
3,58,112,120
3,63,101,120
3,63,0,600
3,44,0,0
3,56,0,0
3,58,0,0
3,46,109,0
3,53,113,120
3,58,113,120
3,62,92,360
3,62,0,360
3,46,0,0
3,53,0,0
3,58,0,0
3,44,108,0
3,56,111,120
3,58,101,120
3,63,97,120
3,63,0,600
3,44,0,0
3,56,0,0
3,58,0,0
3,46,104,0
3,53,113,120
3,58,108,120
3,63,101,120
3,62,97,240
3,62,0,360
3,58,0,0
3,46,0,0
3,53,0,0
3,63,0,0
3,44,104,0
3,56,99,120
3,58,112,120
3,63,101,120
3,63,0,600
3,44,0,0
3,56,0,0
3,58,0,0
3,46,109,0
3,53,113,120
3,58,113,120
3,63,95,120
3,62,92,240
3,62,0,360
3,58,0,0
3,46,0,0
3,53,0,0
3,63,0,0
3,56,111,120
3,58,101,120
3,63,97,120
3,63,0,600
3,58,0,0
3,56,0,0
3,53,113,120
3,58,108,120
3,63,101,120
3,63,0,600
3,58,0,0
3,53,0,0
3,44,104,0
3,56,99,120
3,58,112,120
3,63,101,120
3,63,0,600
3,44,0,0
3,56,0,0
3,58,0,0
3,46,109,0
3,53,113,120
3,58,113,120
3,62,92,360
3,62,0,360
3,46,0,0
3,53,0,0
3,58,0,0
4,39,105,3592
4,39,0,238
4,36,117,2
4,36,0,238
4,34,125,2
4,34,0,238
4,31,117,2
4,31,0,238
4,36,107,2
4,36,0,118
4,39,121,2
4,39,0,120
4,36,111,120
4,36,0,118
4,43,107,2
4,43,0,478
4,36,110,2
4,36,0,118
4,39,122,2
4,39,0,120
4,36,110,120
4,36,0,118
4,43,109,2
4,43,0,478
4,36,124,2
4,36,0,118
4,39,103,2
4,39,0,120
4,36,116,120
4,36,0,118
4,41,127,2
4,41,0,60
4,41,104,60
4,41,0,60
4,41,105,60
4,41,0,238
4,41,114,2
4,41,0,238
4,39,126,2
4,39,0,238
4,36,127,2
4,36,0,238
4,34,105,2
4,34,0,238
4,36,117,2
4,36,0,118
4,39,107,2
4,39,0,120
4,36,118,120
4,36,0,118
4,43,117,2
4,43,0,478
4,36,119,2
4,36,0,118
4,39,116,2
4,39,0,120
4,36,119,120
4,36,0,118
4,43,105,2
4,43,0,478
4,36,103,2
4,36,0,118
4,39,116,2
4,39,0,120
4,36,125,120
4,36,0,118
4,41,116,2
4,41,0,60
4,41,111,60
4,41,0,60
4,41,109,60
4,41,0,238
4,41,105,2
4,41,0,238
4,39,112,2
4,39,0,238
4,36,113,2
4,36,0,238
4,34,126,2
4,34,0,238
4,36,121,2
4,36,0,118
4,39,118,2
4,39,0,120
4,36,122,120
4,36,0,118
4,43,119,2
4,43,0,478
4,36,114,2
4,36,0,118
4,39,111,2
4,39,0,120
4,36,119,120
4,36,0,118
4,43,109,2
4,43,0,478
4,36,121,2
4,36,0,118
4,39,104,2
4,39,0,120
4,36,110,120
4,36,0,118
4,41,118,2
4,41,0,60
4,41,106,60
4,41,0,60
4,41,117,60
4,41,0,238
4,41,107,2
4,41,0,238
4,39,108,2
4,39,0,238
4,36,103,2
4,36,0,238
4,34,126,2
4,34,0,238
4,32,114,2
4,32,0,358
4,32,102,2
4,32,0,598
4,34,116,2
4,34,0,358
4,34,120,2
4,34,0,598
4,36,111,2
4,36,0,118
4,39,122,2
4,39,0,120
4,36,102,120
4,36,0,118
4,43,118,2
4,43,0,478
4,43,103,2
4,43,0,238
4,41,114,2
4,41,0,238
4,39,106,2
4,39,0,238
4,38,118,2
4,38,0,238
4,32,122,2
4,32,0,358
4,32,110,2
4,32,0,598
4,32,111,2
4,32,0,358
4,32,126,2
4,32,0,598
4,31,122,2
4,31,0,358
4,38,109,2
4,38,0,598
4,43,116,2
4,43,0,238
4,41,122,2
4,41,0,238
4,38,114,2
4,38,0,238
4,35,107,2
4,35,0,238
4,32,119,2
4,32,0,358
4,32,125,2
4,32,0,118
4,32,126,2
4,32,0,238
4,29,110,2
4,29,0,238
4,34,109,2
4,34,0,358
4,34,109,2
4,34,0,118
4,34,103,2
4,34,0,238
4,31,105,2
4,31,0,238
4,32,105,2
4,32,0,358
4,32,102,2
4,32,0,118
4,32,121,2
4,32,0,238
4,29,125,2
4,29,0,238
4,34,118,2
4,34,0,358
4,34,106,2
4,34,0,118
4,34,108,2
4,34,0,238
4,31,118,2
4,31,0,238
4,29,114,2
4,29,0,358
4,29,106,2
4,29,0,118
4,29,116,2
4,29,0,238
4,29,104,2
4,29,0,238
4,31,124,2
4,31,0,358
4,31,102,2
4,31,0,118
4,31,123,2
4,31,0,238
4,31,119,2
4,31,0,238
4,32,117,2
4,32,0,358
4,32,124,2
4,32,0,118
4,32,126,2
4,32,0,238
4,29,114,2
4,29,0,238
4,34,121,2
4,34,0,358
4,34,104,2
4,34,0,118
4,39,119,2
4,39,0,238
4,38,113,2
4,38,0,240
4,36,107,0
4,36,0,118
4,39,121,2
4,39,0,120
4,36,111,120
4,36,0,118
4,43,107,2
4,43,0,478
4,36,110,2
4,36,0,118
4,39,122,2
4,39,0,120
4,36,110,120
4,36,0,118
4,43,109,2
4,43,0,478
4,36,124,2
4,36,0,118
4,39,103,2
4,39,0,120
4,36,116,120
4,36,0,118
4,41,127,2
4,41,0,60
4,41,104,60
4,41,0,60
4,41,105,60
4,41,0,238
4,41,114,2
4,41,0,238
4,39,126,2
4,39,0,238
4,36,127,2
4,36,0,238
4,34,105,2
4,34,0,238
4,36,117,2
4,36,0,118
4,39,107,2
4,39,0,120
4,36,118,120
4,36,0,118
4,43,117,2
4,43,0,478
4,36,119,2
4,36,0,118
4,39,116,2
4,39,0,120
4,36,119,120
4,36,0,118
4,43,105,2
4,43,0,478
4,36,103,2
4,36,0,118
4,39,116,2
4,39,0,120
4,36,125,120
4,36,0,118
4,41,116,2
4,41,0,60
4,41,111,60
4,41,0,60
4,41,109,60
4,41,0,238
4,41,105,2
4,41,0,238
4,39,112,2
4,39,0,238
4,36,113,2
4,36,0,238
4,34,126,2
4,34,0,238
4,36,121,2
4,36,0,118
4,39,118,2
4,39,0,120
4,36,122,120
4,36,0,118
4,43,119,2
4,43,0,478
4,36,114,2
4,36,0,118
4,39,111,2
4,39,0,120
4,36,119,120
4,36,0,118
4,43,109,2
4,43,0,478
4,36,121,2
4,36,0,118
4,39,104,2
4,39,0,120
4,36,110,120
4,36,0,118
4,41,118,2
4,41,0,60
4,41,106,60
4,41,0,60
4,41,117,60
4,41,0,238
4,41,107,2
4,41,0,238
4,39,108,2
4,39,0,238
4,36,103,2
4,36,0,238
4,34,126,2
4,34,0,238
4,32,114,2
4,32,0,358
4,32,102,2
4,32,0,598
4,34,116,2
4,34,0,358
4,34,120,2
4,34,0,598
4,36,111,2
4,36,0,118
4,39,122,2
4,39,0,120
4,36,102,120
4,36,0,118
4,43,118,2
4,43,0,478
4,43,103,2
4,43,0,238
4,41,114,2
4,41,0,238
4,39,106,2
4,39,0,238
4,38,118,2
4,38,0,238
4,32,122,2
4,32,0,358
4,32,110,2
4,32,0,598
4,32,111,2
4,32,0,358
4,32,126,2
4,32,0,598
4,31,122,2
4,31,0,358
4,38,109,2
4,38,0,598
4,43,116,2
4,43,0,238
4,41,122,2
4,41,0,238
4,38,114,2
4,38,0,238
4,35,107,2
4,35,0,238
4,32,119,2
4,32,0,358
4,32,125,2
4,32,0,118
4,32,126,2
4,32,0,238
4,29,110,2
4,29,0,238
4,34,109,2
4,34,0,358
4,34,109,2
4,34,0,118
4,34,103,2
4,34,0,238
4,31,105,2
4,31,0,238
4,32,105,2
4,32,0,358
4,32,102,2
4,32,0,118
4,32,121,2
4,32,0,238
4,29,125,2
4,29,0,238
4,34,118,2
4,34,0,358
4,34,106,2
4,34,0,118
4,34,108,2
4,34,0,238
4,31,118,2
4,31,0,238
4,29,114,2
4,29,0,358
4,29,106,2
4,29,0,118
4,29,116,2
4,29,0,238
4,29,104,2
4,29,0,238
4,31,124,2
4,31,0,358
4,31,102,2
4,31,0,118
4,31,123,2
4,31,0,238
4,31,119,2
4,31,0,238
4,29,127,16082
4,29,0,120
4,32,127,0
4,32,0,120
4,34,127,0
4,34,0,960
4,32,119,0
4,32,0,358
4,32,125,2
4,32,0,118
4,32,126,2
4,32,0,238
4,29,110,2
4,29,0,238
4,34,109,2
4,34,0,358
4,34,109,2
4,34,0,118
4,34,103,2
4,34,0,238
4,31,105,2
4,31,0,238
4,32,105,2
4,32,0,358
4,32,102,2
4,32,0,118
4,32,121,2
4,32,0,238
4,29,125,2
4,29,0,238
4,34,118,2
4,34,0,358
4,34,106,2
4,34,0,118
4,34,108,2
4,34,0,238
4,31,118,2
4,31,0,238
4,29,114,2
4,29,0,358
4,29,106,2
4,29,0,118
4,29,116,2
4,29,0,238
4,29,104,2
4,29,0,238
4,31,124,2
4,31,0,358
4,31,102,2
4,31,0,118
4,31,123,2
4,31,0,238
4,31,119,2
4,31,0,238
4,32,117,2
4,32,0,358
4,32,124,2
4,32,0,118
4,32,126,2
4,32,0,238
4,29,114,2
4,29,0,238
4,34,121,2
4,34,0,358
4,34,104,2
4,34,0,118
4,39,119,2
4,39,0,238
4,38,113,2
4,38,0,240
4,32,119,0
4,32,0,358
4,32,125,2
4,32,0,118
4,32,126,2
4,32,0,238
4,29,110,2
4,29,0,238
4,34,109,2
4,34,0,358
4,34,109,2
4,34,0,118
4,34,103,2
4,34,0,238
4,31,105,2
4,31,0,238
4,32,105,2
4,32,0,358
