track,note,velocity,time
0,54,83,23
0,37,70,0
0,61,63,0
0,64,68,0
0,68,71,0
0,73,67,0
0,71,94,0
0,30,74,0
0,42,62,0
0,61,63,0
0,66,73,0
0,69,78,0
0,73,61,0
0,73,77,0
0,73,0,94
0,76,76,2
0,76,0,94
0,78,81,2
0,78,0,148
0,61,0,352
0,69,0,10
0,66,0,4
0,73,0,18
0,42,0,20
0,35,72,4
0,63,72,0
0,66,77,0
0,71,76,0
0,75,92,0
0,73,74,2
0,73,0,94
0,71,80,0
0,69,92,6
0,71,0,30
0,63,0,4
0,66,0,28
0,69,0,2
0,35,0,18
0,40,92,110
0,64,75,0
0,68,74,0
0,71,74,0
0,67,80,0
0,67,0,94
0,68,81,0
0,68,0,224
0,68,92,0
0,64,0,60
0,68,0,34
0,71,89,0
0,71,0,28
0,68,0,12
0,40,0,34
0,71,0,20
0,37,75,0
0,61,74,0
0,64,79,0
0,68,63,0
0,73,68,0
0,73,83,0
0,73,0,162
0,76,96,0
0,30,74,0
0,61,73,0
0,66,77,0
0,69,75,0
0,73,63,0
0,65,94,0
0,69,0,70
0,65,0,18
0,73,0,8
0,66,83,0
0,61,0,10
0,66,0,4
0,30,0,66
0,66,0,14
0,35,70,2
0,59,73,0
0,64,75,0
0,66,62,0
0,71,77,0
0,69,92,0
0,54,82,0
0,69,0,188
0,71,80,0
0,35,73,0
0,59,76,0
0,63,82,0
0,66,70,0
0,71,78,0
0,37,74,0
0,49,77,0
0,61,60,0
0,64,70,0
0,68,73,0
0,73,58,0
0,68,92,0
0,64,74,0
0,64,0,172
0,68,83,0
0,73,79,0
0,49,0,58
0,64,0,36
0,37,0,6
0,61,0,0
0,68,0,24
0,73,0,6
0,73,0,60
0,30,72,0
0,42,65,0
0,61,49,0
0,66,73,0
0,69,68,0
0,73,68,0
0,69,92,0
0,35,78,0
0,63,77,0
0,66,80,0
0,71,73,0
0,66,88,0
0,66,0,190
0,63,75,0
0,63,0,190
0,66,78,0
0,66,0,190
0,71,85,0
0,71,0,18
0,63,0,26
0,66,0,28
0,35,0,58
0,71,0,60
0,28,74,0
0,40,88,0
0,64,72,0
0,68,69,0
0,71,64,0
0,68,88,0
0,66,78,0
0,64,78,6
0,64,0,38
0,28,0,66
0,68,0,8
0,71,0,4
0,40,0,14
0,64,0,30
0,37,76,32
0,61,67,0
0,64,71,0
0,68,67,0
0,73,68,0
0,54,0,268
0,64,92,0
0,61,70,0
0,64,0,84
0,73,0,22
0,68,0,8
0,30,71,0
0,42,74,0
0,66,72,0
0,69,71,0
0,73,65,0
0,66,90,0
0,61,75,0
0,35,78,30
0,59,67,0
0,64,69,0
0,66,70,0
0,71,75,0
0,66,90,0
0,64,75,0
0,59,0,96
0,71,0,4
0,64,0,6
0,35,0,4
0,66,0,8
0,64,0,28
0,35,71,0
0,59,75,0
0,63,71,0
0,66,73,0
0,71,80,0
0,68,92,0
0,66,88,0
0,59,0,216
0,71,0,4
0,63,0,20
0,66,0,4
0,66,0,8
0,35,0,62
0,27,95,0
0,37,86,0
0,61,71,0
0,64,84,0
0,68,73,0
0,73,74,0
0,68,88,0
0,64,92,0
0,68,93,0
0,73,89,0
0,64,0,50
0,27,0,4
0,68,0,2
0,73,0,34
0,68,0,58
0,27,80,0
0,64,81,0
0,27,0,58
0,64,78,27
0,68,84,0
0,73,84,0
0,32,72,8
0,64,0,18
0,68,0,32
0,32,0,20
0,73,0,0
0,64,0,8
0,68,87,0
0,32,60,104
0,32,0,44
0,68,0,42
0,32,64,0
0,73,80,0
0,64,87,0
0,68,93,0
0,73,89,0
0,64,0,56
0,32,0,2
0,61,0,6
0,64,0,6
0,68,0,2
0,73,0,10
0,73,0,10
0,68,0,2
0,32,63,10
0,37,0,24
0,32,0,36
0,73,0,26
0,27,89,0
0,30,82,0
0,61,69,0
0,66,74,0
0,69,81,0
0,73,62,0
0,69,92,0
0,27,0,60
0,66,94,36
0,69,95,0
0,73,89,0
0,27,65,8
0,27,70,12
0,27,0,64
0,69,0,60
0,32,79,0
0,66,87,0
0,69,100,0
0,73,84,0
0,32,0,64
0,32,68,128
0,73,0,34
0,69,0,2
0,32,0,6
0,66,0,6
0,69,0,12
0,73,0,30
0,66,0,4
0,61,0,2
0,32,65,8
0,32,0,54
0,30,0,22
0,27,93,0
0,35,71,0
0,59,68,0
0,63,60,0
0,66,67,0
0,71,74,0
0,66,90,0
0,63,98,0
0,66,88,0
0,71,76,0
0,27,0,64
0,63,0,18
0,66,0,10
0,71,0,4
0,66,0,86
0,27,86,0
0,63,75,0
0,27,0,56
0,63,93,40
0,66,87,0
0,71,85,0
0,32,77,8
0,32,0,60
0,63,0,0
0,66,0,18
0,63,0,8
0,66,80,0
0,71,0,2
0,32,69,102
0,32,0,44
0,66,0,32
0,32,71,0
0,71,84,0
0,63,95,0
0,66,89,0
0,71,88,0
0,32,0,52
0,71,0,18
0,63,0,0
0,59,0,8
0,66,0,4
0,71,0,2
0,66,0,2
0,63,0,8
0,32,64,10
0,35,0,32
0,32,0,20
0,71,0,34
0,27,88,0
0,28,82,0
0,59,74,0
0,64,69,0
0,68,71,0
0,71,75,0
0,68,90,0
0,64,95,40
0,68,94,0
0,71,82,0
0,32,77,8
0,64,0,42
0,32,0,10
0,71,0,2
0,68,0,4
0,27,59,14
0,27,0,38
0,32,89,0
0,66,83,0
0,64,84,0
0,68,87,0
0,71,90,0
0,32,0,58
0,66,0,124
0,32,72,10
0,64,76,0
0,64,0,8
0,32,0,38
0,68,0,2
0,71,0,2
0,59,0,4
0,32,68,2
0,68,0,32
0,64,0,12
0,32,0,12
0,28,0,22
0,27,91,10
0,37,83,0
0,61,59,0
0,64,74,0
0,68,60,0
0,73,69,0
0,64,92,0
0,68,95,0
0,73,87,0
0,64,0,36
0,68,0,22
0,27,0,6
0,73,0,18
0,27,79,0
0,64,90,0
0,64,92,42
0,68,93,0
0,73,89,0
0,27,51,8
0,64,0,26
0,64,0,8
0,68,0,12
0,73,0,22
0,27,0,4
0,32,79,0
0,64,80,0
0,32,0,58
0,64,0,114
0,32,70,0
0,61,82,0
0,64,94,0
0,68,95,0
0,73,90,0
0,32,70,10
0,73,0,0
0,68,0,24
0,32,0,36
0,61,0,8
0,37,0,2
0,27,89,0
0,30,77,0
0,61,68,0
0,66,75,0
0,69,80,0
0,73,68,0
0,66,91,0
0,27,0,58
0,66,87,38
0,69,96,0
0,73,87,0
0,32,78,4
0,32,0,46
0,69,0,4
0,66,0,18
0,73,0,12
0,27,78,8
0,27,0,52
0,32,84,0
0,61,82,0
0,66,90,0
0,69,104,0
0,73,87,0
0,32,0,52
0,32,80,31
0,69,0,10
0,66,0,4
0,73,0,4
0,69,0,24
0,32,0,6
0,61,0,26
0,73,0,6
0,66,0,12
0,61,0,2
0,32,72,10
0,32,0,52
0,30,0,24
0,27,87,0
0,35,81,0
0,59,66,0
0,64,60,0
0,66,59,0
0,71,71,0
0,66,90,0
0,64,92,0
0,66,95,0
0,71,100,0
0,27,86,0
0,66,83,0
0,64,91,34
0,66,94,0
0,71,100,0
0,66,0,4
0,64,0,48
0,66,0,10
0,71,0,8
0,32,84,0
0,66,93,0
0,32,0,58
0,32,79,0
0,64,81,0
0,64,92,0
0,66,100,0
0,71,101,0
0,32,56,20
0,64,0,20
0,32,0,24
0,27,88,0
0,35,80,0
0,59,75,0
0,63,73,0
0,66,74,0
0,71,78,0
0,68,90,0
0,63,93,26
0,66,93,0
0,71,91,0
0,63,0,56
0,66,0,4
0,71,0,18
0,27,87,18
0,32,88,0
0,66,91,0
0,63,94,0
0,66,94,0
0,71,98,0
0,32,0,54
0,32,75,43
0,71,0,38
0,32,0,10
0,59,0,4
0,66,0,2
0,63,0,4
0,71,0,18
0,63,0,2
0,66,0,4
0,66,0,10
0,32,70,12
0,35,0,22
0,32,0,32
0,27,107,0
0,28,87,0
0,40,101,0
0,59,79,0
0,64,89,0
0,68,85,0
0,64,113,0
0,59,95,0
0,64,109,0
0,68,100,0
0,64,0,78
0,27,0,18
0,64,105,0
0,59,0,34
0,64,0,4
0,68,0,14
0,59,0,80
0,40,0,2
0,64,0,6
0,28,0,18
0,68,0,2
0,61,90,0
0,64,0,16
0,59,89,0
0,61,0,16
0,64,110,0
0,64,0,100
0,66,87,0
0,64,115,0
0,66,0,60
0,65,89,36
0,65,0,46
0,61,92,0
0,64,0,30
0,65,80,66
0,65,0,24
0,65,87,0
0,59,88,0
0,65,0,40
0,59,0,102
0,27,94,0
0,36,105,0
0,42,103,0
0,44,107,0
0,49,88,0
0,56,82,0
0,57,74,0
0,37,84,0
0,56,55,0
0,61,44,0
0,64,53,0
0,68,91,0
0,61,81,0
0,64,87,0
0,68,75,0
0,49,81,0
0,44,0,52
0,64,0,0
0,27,0,2
0,36,0,6
0,68,0,2
0,49,0,8
0,61,0,0
0,57,0,8
0,37,0,32
0,42,0,22
0,49,0,28
0,68,0,30
0,27,79,0
0,44,51,0
0,67,35,0
0,37,81,0
0,64,81,0
0,56,74,0
0,61,62,0
0,44,0,24
0,56,0,6
0,67,0,4
0,56,0,16
0,61,0,0
0,27,0,8
0,56,82,38
0,61,71,0
0,32,71,8
0,44,66,0
0,67,43,0
0,61,76,0
0,64,86,0
0,68,77,0
0,28,74,0
0,36,103,0
0,39,104,0
0,42,74,0
0,56,77,0
0,40,85,0
0,68,79,0
0,49,78,0
0,68,0,16
0,61,0,4
0,39,0,30
0,42,0,4
0,36,0,6
0,28,0,14
0,32,59,30
0,49,0,24
0,32,0,20
0,40,0,26
0,68,0,14
0,32,63,0
0,44,53,0
0,68,59,0
0,44,91,0
0,73,77,0
0,61,84,0
0,64,85,0
0,68,86,0
0,56,74,0
0,61,57,0
0,44,0,32
0,56,0,2
0,61,0,12
0,68,0,4
0,64,0,2
0,56,0,2
0,32,0,4
0,61,0,24
0,68,0,6
0,64,0,6
0,56,81,2
0,61,68,0
0,61,0,2
0,32,62,6
0,44,60,0
0,68,36,0
0,44,0,6
0,68,0,42
0,56,0,0
0,61,0,0
0,44,0,2
0,56,0,0
0,32,0,10
0,73,0,26
0,27,88,0
0,36,99,0
0,42,93,0
0,44,90,0
0,56,73,0
0,57,58,0
0,61,58,0
0,66,49,0
0,69,87,0
0,54,83,0
0,44,0,54
0,27,0,6
0,27,64,28
0,61,84,0
0,66,86,0
0,69,97,0
0,42,0,16
0,27,0,34
0,69,0,6
0,54,0,0
0,66,0,4
0,61,0,6
0,27,69,22
0,44,53,0
0,67,44,0
0,30,88,0
0,57,64,0
0,61,49,0
0,56,0,24
0,57,0,4
0,61,0,0
0,44,0,2
0,67,0,4
0,27,0,30
0,57,71,32
0,61,56,0
0,44,35,1
0,67,27,0
0,44,0,34
0,67,0,2
0,57,0,12
0,61,0,4
0,69,0,2
0,30,0,32
0,28,79,2
0,32,78,0
0,36,103,0
0,39,99,0
0,42,64,0
0,56,76,0
0,37,84,0
0,61,82,0
0,66,78,0
0,69,96,0
0,54,85,0
0,39,0,54
0,28,0,2
0,32,0,8
0,42,0,2
0,32,67,2
0,44,53,0
0,68,40,0
0,30,81,0
0,57,70,0
0,61,63,0
0,68,0,24
0,57,0,10
0,32,0,8
0,44,0,2
0,61,0,10
0,56,0,4
0,66,0,22
0,69,0,4
0,66,0,4
0,61,0,2
0,57,74,6
0,61,59,0
0,32,64,8
0,44,54,0
0,68,34,0
0,57,0,10
0,61,0,0
0,44,0,36
0,57,0,2
0,32,0,6
0,61,0,0
0,68,0,6
0,30,0,26
0,27,92,0
0,36,99,0
0,42,90,0
0,44,89,0
0,56,74,0
0,35,88,0
0,59,68,0
0,63,46,0
0,66,61,0
0,66,90,0
0,59,83,0
0,63,79,0
0,66,81,0
0,51,94,0
0,63,0,56
0,27,0,8
0,66,0,0
0,44,0,2
0,36,0,16
0,59,0,10
0,51,0,12
0,35,0,26
0,42,0,26
0,66,0,34
0,27,85,0
0,44,53,0
0,67,38,0
0,35,74,0
0,63,73,0
0,54,69,0
0,59,41,0
0,44,0,28
0,67,0,6
0,59,0,0
0,56,0,12
0,54,0,8
0,27,0,2
0,54,73,40
0,59,65,0
0,32,76,8
0,44,27,0
0,67,45,0
0,59,67,0
0,63,90,0
0,66,81,0
0,44,0,32
0,67,0,4
0,32,0,24
0,63,0,0
0,54,0,0
0,59,0,2
0,66,0,6
0,35,0,18
0,63,0,0
0,28,82,0
0,36,94,0
0,39,99,0
0,42,76,0
0,56,76,0
0,39,91,0
0,66,74,0
0,51,85,0
0,59,0,34
0,39,0,22
0,28,0,6
0,36,0,0
0,42,0,26
0,32,68,16
0,32,0,44
0,39,0,34
0,66,0,2
0,51,0,0
0,32,70,0
0,44,59,0
0,68,43,0
0,42,83,0
0,71,81,0
0,59,87,0
0,63,93,0
0,66,86,0
0,54,75,0
0,59,76,0
0,68,0,30
0,44,0,16
0,32,0,6
0,56,0,4
0,54,0,0
0,63,0,4
0,59,0,4
0,66,0,4
0,63,0,20
0,59,0,0
0,66,0,6
0,54,73,2
0,59,51,0
0,32,63,8
0,44,61,0
0,68,25,0
0,59,0,12
0,44,0,36
0,54,0,0
0,59,0,2
0,32,0,2
0,42,0,8
0,68,0,10
0,27,87,0
0,36,103,0
0,42,87,0
0,44,85,0
0,56,71,0
0,59,60,0
0,64,65,0
0,68,58,0
0,68,88,0
0,52,95,0
0,27,0,56
0,36,0,6
0,44,0,16
0,32,76,26
0,59,77,0
0,64,96,0
0,68,84,0
0,32,0,52
0,64,0,0
0,68,0,14
0,59,0,14
0,42,0,6
0,27,58,2
0,44,56,0
0,67,44,0
0,40,96,0
0,56,70,0
0,59,72,0
0,52,0,28
0,44,0,6
0,67,0,0
0,59,0,0
0,27,0,4
0,56,0,12
0,56,0,2
0,56,74,44
0,59,73,0
0,44,51,8
0,67,35,0
0,28,85,0
0,32,88,0
0,36,103,0
0,39,94,0
0,42,79,0
0,56,70,0
0,35,80,0
0,66,78,0
0,59,89,0
0,64,97,0
0,68,86,0
0,52,91,0
0,39,0,56
0,32,0,2
0,28,0,2
0,36,0,0
0,42,0,58
0,52,0,40
0,66,0,18
0,35,0,8
0,32,71,8
0,36,74,0
0,44,55,0
0,68,53,0
0,40,94,0
0,64,69,0
0,56,77,0
0,59,80,0
0,44,0,36
0,59,0,8
0,32,0,2
0,68,0,0
0,36,0,6
0,64,0,0
0,64,0,0
0,56,0,2
0,56,0,4
0,59,0,2
0,68,0,24
0,68,0,0
0,56,83,12
0,59,53,0
0,32,67,8
0,44,62,0
0,68,35,0
0,59,0,18
0,59,0,28
0,44,0,6
0,32,0,4
0,56,0,2
0,68,0,2
0,40,0,6
0,64,0,4
0,27,90,18
0,36,101,0
0,42,93,0
0,44,85,0
0,56,73,0
0,37,82,0
0,61,57,0
0,64,65,0
0,68,57,0
0,61,74,0
0,64,91,0
0,68,90,0
0,49,84,0
0,64,0,54
0,27,0,10
0,68,0,6
0,61,0,32
0,44,0,8
0,36,0,2
0,37,0,16
0,42,0,62
0,49,0,0
0,27,78,2
0,44,43,0
0,67,36,0
0,37,79,0
0,56,80,0
0,61,63,0
0,44,0,24
0,67,0,12
0,56,0,10
0,61,0,4
0,27,0,4
0,56,0,14
0,56,81,28
0,61,74,0
0,27,50,8
0,44,58,0
0,67,42,0
0,61,81,0
0,64,84,0
0,68,84,0
0,56,0,46
0,44,0,10
0,67,0,0
0,64,0,2
0,61,0,0
0,27,0,14
0,37,0,14
0,68,0,0
0,28,74,0
0,32,78,0
0,36,103,0
0,39,92,0
0,42,79,0
0,56,79,0
0,40,84,0
0,64,90,0
0,49,87,0
0,61,0,26
0,32,69,0
0,44,55,0
0,68,34,0
0,44,93,0
0,61,59,0
0,61,84,0
0,64,87,0
0,68,89,0
0,56,80,0
0,61,59,0
0,68,0,34
0,44,0,2
0,32,0,12
0,56,0,2
0,61,0,4
0,64,0,2
0,64,0,4
0,56,0,8
0,68,0,12
0,56,81,2
0,61,71,0
