track,note,velocity,time
1,36,125,16
1,36,125,1346
1,36,125,194
1,36,125,194
1,36,125,194
1,36,125,194
1,36,125,194
1,36,125,194
1,36,125,194
1,36,125,194
1,36,125,194
1,36,125,194
1,36,125,194
1,36,125,194
1,36,125,194
1,36,125,194
1,36,125,194
1,36,125,194
1,36,125,194
1,36,125,194
1,36,125,194
1,36,125,194
1,36,125,194
1,36,125,194
1,36,125,194
1,36,125,194
1,36,125,194
1,36,125,194
1,36,125,194
1,36,125,1730
1,36,125,194
1,36,125,194
1,36,125,194
1,36,125,194
1,36,125,194
1,36,125,194
1,36,125,194
1,36,125,194
1,36,125,194
1,36,125,194
1,36,125,194
1,36,125,194
1,36,125,194
1,36,125,194
1,36,125,194
1,36,125,194
1,36,125,194
1,36,125,194
1,36,125,194
1,36,125,194
1,36,125,194
1,36,125,194
1,36,125,194
1,36,125,194
1,36,125,194
1,36,125,194
1,36,125,194
1,36,125,194
1,36,125,194
1,36,125,194
1,36,125,194
1,36,125,194
1,36,125,194
1,36,125,194
1,36,125,194
1,36,125,194
1,36,125,194
1,36,125,194
1,36,125,194
1,36,125,194
1,36,125,194
1,36,125,194
1,36,125,194
1,36,125,194
1,36,125,194
1,36,125,194
1,36,125,194
1,36,125,194
1,36,125,194
1,36,125,194
1,36,125,194
1,36,125,194
1,36,125,194
1,36,125,194
1,36,125,194
1,36,125,194
1,36,125,194
1,36,125,194
1,36,125,194
1,36,125,1730
1,36,125,194
1,36,125,194
1,36,125,194
1,36,125,194
1,36,125,194
1,36,125,194
1,36,125,194
1,36,125,194
1,36,125,194
1,36,125,194
1,36,125,194
1,36,125,194
1,36,125,194
1,36,125,194
1,36,125,194
1,36,125,194
1,36,125,194
1,36,125,194
1,36,125,194
1,36,125,194
1,36,125,194
1,36,125,194
1,36,125,194
1,36,125,194
1,36,125,194
1,36,125,194
1,36,125,194
1,36,125,194
1,36,125,194
1,36,125,194
1,36,125,194
1,36,125,194
1,36,125,194
1,36,125,194
1,36,125,194
1,36,125,194
1,36,125,194
1,36,125,194
1,36,125,194
1,36,125,194
1,36,125,194
1,36,125,194
1,36,125,194
1,36,125,194
1,36,125,194
1,36,125,194
1,36,125,194
1,36,125,194
1,36,125,194
1,36,125,194
1,36,125,194
1,36,125,194
1,36,125,194
1,36,125,194
1,36,125,194
1,36,125,194
1,36,125,194
1,36,125,194
1,36,125,194
1,36,125,1730
1,36,125,194
1,36,125,194
1,36,125,194
1,36,125,194
1,36,125,194
1,36,125,194
1,36,125,194
1,36,125,194
1,36,125,194
1,36,125,194
1,36,125,194
1,36,125,194
1,36,125,194
1,36,125,194
1,36,125,194
1,36,125,194
1,36,125,194
1,36,125,194
1,36,125,194
1,36,125,194
1,36,125,194
1,36,125,194
1,36,125,194
1,36,125,194
1,36,125,194
1,36,125,194
1,36,125,194
1,36,125,194
1,36,125,194
1,36,125,194
1,36,125,194
1,36,125,194
1,36,125,194
1,36,125,194
1,36,125,194
1,36,125,194
1,36,125,194
1,36,125,194
1,36,125,194
1,36,125,194
1,36,125,194
1,36,125,194
1,36,125,194
1,36,125,194
1,36,125,194
1,36,125,194
1,36,125,194
1,36,125,194
1,36,125,194
1,36,125,194
1,36,125,194
1,36,125,194
1,36,125,194
1,36,125,194
1,36,125,194
1,36,125,194
1,36,125,194
1,36,125,194
1,36,125,194
1,36,125,1730
1,36,125,194
1,36,125,194
1,36,125,194
1,36,125,194
1,36,125,194
1,36,125,194
1,36,125,194
1,36,125,194
1,36,125,194
1,36,125,194
1,36,125,194
1,36,125,194
1,36,125,194
1,36,125,194
1,36,125,194
1,36,125,194
1,36,125,194
1,36,125,194
1,36,125,194
1,36,125,194
1,36,125,194
1,36,125,194
1,36,125,194
1,36,125,194
1,36,125,194
1,36,125,194
1,36,125,194
1,36,125,194
1,36,125,194
1,36,125,194
1,36,125,194
1,36,125,194
1,36,125,194
1,36,125,194
1,36,125,194
1,36,125,194
1,36,125,194
1,36,125,194
1,36,125,194
1,36,125,194
1,36,125,194
1,36,125,194
1,36,125,194
1,36,125,194
1,36,125,194
1,36,125,194
1,36,125,194
1,36,125,194
1,36,125,194
1,36,125,194
1,36,125,194
1,36,125,194
1,36,125,194
1,36,125,194
1,36,125,194
1,36,125,194
1,36,125,2882
1,36,125,12098
1,36,125,194
1,36,125,194
1,36,125,194
1,36,125,194
1,36,125,194
1,36,125,194
1,36,125,194
1,36,125,194
1,36,125,194
1,36,125,194
1,36,125,194
1,36,125,194
1,36,125,194
1,36,125,194
1,36,125,194
1,36,125,194
1,36,125,194
1,36,125,194
1,36,125,194
1,36,125,194
1,36,125,194
1,36,125,194
1,36,125,194
1,36,125,194
1,36,125,194
1,36,125,194
1,36,125,194
1,36,125,1730
1,36,125,194
1,36,125,194
1,36,125,194
1,36,125,194
1,36,125,194
1,36,125,194
1,36,125,194
1,36,125,194
1,36,125,194
1,36,125,194
1,36,125,194
1,36,125,194
1,36,125,194
1,36,125,194
1,36,125,194
1,36,125,194
1,36,125,194
1,36,125,194
1,36,125,194
1,36,125,194
1,36,125,194
1,36,125,194
1,36,125,194
1,36,125,194
1,36,125,194
1,36,125,194
1,36,125,194
1,36,125,194
1,36,125,194
1,36,125,194
1,36,125,194
1,36,125,194
1,36,125,194
1,36,125,194
1,36,125,194
1,36,125,194
1,36,125,194
1,36,125,194
1,36,125,194
1,36,125,194
1,36,125,194
1,36,125,194
1,36,125,194
1,36,125,194
1,36,125,194
1,36,125,194
1,36,125,194
1,36,125,194
1,36,125,194
1,36,125,194
1,36,125,194
1,36,125,194
1,36,125,194
1,36,125,194
1,36,125,194
1,36,125,194
1,36,125,194
1,36,125,194
1,36,125,194
1,36,125,194
1,36,125,194
1,36,125,194
1,36,125,2
1,36,125,2
1,36,125,98
1,36,125,2
2,49,54,29376
2,49,54,290
2,49,54,290
2,49,54,290
2,49,54,290
2,49,54,290
2,49,54,290
2,49,54,290
2,49,54,290
2,49,54,290
2,49,54,290
2,49,54,290
2,49,54,290
2,49,54,290
2,49,54,290
2,49,54,290
2,49,54,290
2,49,54,290
2,49,54,290
2,49,54,290
2,49,54,290
2,49,54,290
2,49,54,290
2,49,54,290
2,49,54,290
2,49,54,290
2,49,54,290
2,49,54,290
2,49,54,290
2,49,54,290
2,49,54,290
2,49,54,290
2,49,54,290
2,49,54,290
2,49,54,290
2,49,54,290
2,49,54,290
2,49,54,290
2,49,54,290
2,49,54,290
2,49,54,290
2,49,54,290
2,49,54,290
2,49,54,290
2,49,54,290
2,49,54,290
2,49,54,290
2,49,54,290
2,49,54,290
2,49,54,290
2,49,54,290
2,49,54,290
2,49,54,290
2,49,54,290
2,49,54,290
2,49,54,290
2,49,54,290
2,49,54,290
2,49,54,290
2,49,54,290
2,49,54,290
2,49,54,290
2,49,54,290
2,49,54,290
2,49,54,290
2,49,54,290
2,49,54,290
2,49,54,290
2,49,54,290
2,49,54,290
2,49,54,290
2,49,54,290
2,49,54,290
2,49,54,290
2,49,54,290
2,49,54,290
2,49,54,290
2,49,54,290
2,49,54,290
2,49,54,290
2,49,54,290
2,49,54,290
2,49,54,290
2,49,54,290
2,49,54,290
2,49,54,290
2,49,54,290
2,49,54,290
2,49,54,290
2,49,54,290
2,49,54,290
2,49,54,290
2,49,54,1826
2,49,54,290
2,49,54,290
2,49,54,290
2,49,54,290
2,49,54,290
2,49,54,290
2,49,54,290
2,49,54,290
2,49,54,290
2,49,54,290
2,49,54,290
2,49,54,290
2,49,54,290
2,49,54,290
2,49,54,290
2,49,54,290
2,49,54,290
2,49,54,290
2,49,54,290
2,49,54,290
2,49,54,290
2,49,54,290
2,49,54,290
2,49,54,290
2,49,54,290
2,49,54,290
2,49,54,290
2,49,54,290
2,49,54,290
2,49,54,290
2,49,54,674
2,49,54,290
2,49,54,290
2,49,54,290
2,49,54,290
2,49,54,290
2,49,54,290
2,49,54,290
2,49,54,290
2,49,54,290
2,49,54,290
2,49,54,290
2,49,54,290
2,49,54,290
2,49,54,290
2,49,54,290
2,49,54,290
2,49,54,290
2,49,54,290
2,49,54,290
2,49,54,290
2,49,54,290
2,49,54,290
2,49,54,290
2,49,54,290
2,49,54,290
2,49,54,290
2,49,54,290
2,49,54,290
2,49,54,290
2,49,54,290
2,49,54,290
2,49,54,290
2,49,54,290
2,49,54,290
2,49,54,290
2,49,54,290
2,49,54,290
2,49,54,290
2,49,54,290
2,49,54,290
2,49,54,290
2,49,54,290
2,49,54,290
2,49,54,290
2,49,54,290
2,49,54,290
2,49,54,290
2,49,54,290
2,49,54,290
2,49,54,290
2,49,54,290
2,49,54,290
2,49,54,290
2,49,54,290
2,49,54,290
2,49,54,290
2,49,54,290
2,49,54,290
2,49,54,290
2,49,54,290
2,49,54,290
2,49,54,290
2,49,54,290
2,49,54,290
2,49,54,290
2,49,54,290
2,49,54,290
2,49,54,290
2,49,54,290
2,49,54,290
2,49,54,290
2,49,54,290
2,49,54,290
2,49,54,290
2,49,54,290
2,49,54,290
2,49,54,290
2,49,54,290
2,49,54,290
2,49,54,290
2,49,54,290
2,49,54,290
2,49,54,290
2,49,54,290
2,49,54,290
2,49,54,290
2,49,54,290
2,49,54,290
2,49,54,290
2,49,54,290
2,49,54,290
2,49,54,1826
2,49,54,290
2,49,54,290
2,49,54,290
2,49,54,290
2,49,54,290
2,49,54,290
2,49,54,290
2,49,54,290
2,49,54,290
2,49,54,290
2,49,54,290
2,49,54,290
2,49,54,290
2,49,54,290
2,49,54,290
2,49,54,290
2,49,54,290
2,49,54,290
2,49,54,290
2,49,54,290
2,49,54,290
2,49,54,290
2,49,54,290
2,49,54,290
2,49,54,290
2,49,54,290
2,49,54,290
2,49,54,290
2,49,54,290
2,49,54,290
2,49,54,290
2,49,54,290
2,49,54,290
2,49,54,290
2,49,54,290
2,49,54,290
2,49,54,290
2,49,54,290
2,49,54,290
2,49,54,290
2,49,54,290
2,49,54,290
2,49,54,290
2,49,54,290
2,49,54,290
2,49,54,290
2,49,54,290
2,49,54,290
2,49,54,290
2,49,54,290
2,49,54,290
2,49,54,290
2,49,54,290
2,49,54,290
2,49,54,290
2,49,54,290
2,49,54,290
2,49,54,290
2,49,54,290
2,49,54,290
2,49,54,290
2,49,54,290
2,49,54,290
2,39,64,482
2,39,64,578
2,39,64,578
2,39,64,578
2,39,64,578
2,39,64,578
2,39,64,578
2,39,64,578
2,39,64,578
2,39,64,578
2,39,64,578
2,39,64,578
2,39,64,578
2,39,64,578
2,39,64,578
2,39,64,578
2,49,54,386
2,49,54,290
2,49,54,290
2,49,54,290
2,49,54,290
2,49,54,290
2,49,54,290
2,49,54,290
2,49,54,290
2,49,54,290
2,49,54,290
2,49,54,290
2,49,54,290
2,49,54,290
2,49,54,290
2,49,54,290
2,49,54,290
2,49,54,290
2,49,54,290
2,49,54,290
2,49,54,290
2,49,54,290
2,49,54,290
2,49,54,290
2,49,54,290
2,49,54,290
2,49,54,290
2,49,54,290
2,49,54,290
2,49,54,290
2,49,54,290
2,49,54,290
2,49,54,290
2,49,54,290
2,49,54,290
2,49,54,290
2,49,54,290
2,49,54,290
2,49,54,290
2,49,54,290
2,49,54,290
2,49,54,290
2,49,54,290
2,49,54,290
2,49,54,290
2,49,54,290
2,49,54,290
2,49,54,290
2,49,54,290
2,49,54,290
2,49,54,290
2,49,54,290
2,49,54,290
2,49,54,290
2,49,54,290
2,49,54,290
2,49,54,290
2,49,54,290
2,49,54,290
2,49,54,290
2,49,54,290
2,49,54,290
2,49,54,290
2,49,54,290
2,49,54,290
2,49,54,290
2,49,54,290
2,49,54,290
2,49,54,290
2,49,54,290
2,49,54,290
2,49,54,290
2,49,54,290
2,49,54,290
2,49,54,290
2,49,54,290
2,49,54,290
2,49,54,290
2,49,54,290
2,49,54,290
2,49,54,290
2,49,54,290
2,49,54,290
2,49,54,290
2,49,54,290
2,49,54,290
2,49,54,290
2,49,54,290
2,49,54,290
2,49,54,290
2,49,54,290
2,49,54,290
2,49,54,290
2,49,54,290
2,49,54,290
2,49,54,290
3,79,64,4568
3,48,64,0
3,72,64,2
3,75,64,2
3,79,64,2
3,77,64,2
3,72,64,2
3,79,64,2
3,72,64,2
3,80,64,2
3,44,64,0
3,72,64,2
3,75,64,2
3,80,64,2
3,77,64,2
3,46,64,0
3,70,64,2
3,74,64,2
3,77,64,2
3,75,64,2
3,48,64,0
3,67,64,2
3,72,64,2
3,75,64,2
3,74,64,2
3,67,64,2
3,75,64,2
3,67,64,2
3,75,64,2
3,44,64,0
3,68,64,2
3,72,64,2
3,75,64,2
3,77,64,2
3,46,64,0
3,70,64,2
3,74,64,2
3,77,64,2
3,79,64,2
3,48,64,0
3,72,64,2
3,75,64,2
3,79,64,2
3,77,64,2
3,72,64,2
3,79,64,2
3,72,64,2
3,80,64,2
3,44,64,0
3,72,64,2
3,75,64,2
3,80,64,2
3,77,64,2
3,46,64,0
3,70,64,2
3,74,64,2
3,72,64,2
3,79,64,0
3,75,64,0
3,48,64,0
3,72,64,2
3,75,64,0
3,80,64,0
3,44,64,0
3,74,64,2
3,70,64,0
3,77,64,0
3,46,64,0
3,60,64,37058
3,67,64,0
3,63,64,0
3,67,64,98
3,63,64,0
3,60,64,0
3,68,64,194
3,63,64,0
3,60,64,0
3,60,64,194
3,63,64,0
3,68,64,0
3,68,64,194
3,63,64,0
3,60,64,0
3,67,64,290
3,63,64,0
3,58,64,0
3,67,64,98
3,63,64,0
3,58,64,0
3,58,64,194
3,62,64,0
3,65,64,0
3,58,64,194
3,62,64,0
3,65,64,0
3,58,64,194
3,62,64,0
3,65,64,0
3,60,64,290
3,67,64,0
3,63,64,0
3,67,64,98
3,63,64,0
3,60,64,0
3,68,64,194
3,63,64,0
3,60,64,0
3,60,64,194
3,63,64,0
3,68,64,0
3,68,64,194
3,63,64,0
3,60,64,0
3,67,64,290
3,63,64,0
3,58,64,0
3,67,64,98
3,63,64,0
3,58,64,0
3,58,64,194
3,62,64,0
3,65,64,0
3,58,64,194
3,62,64,0
3,65,64,0
3,58,64,194
3,62,64,0
3,65,64,0
3,60,64,290
3,67,64,0
3,63,64,0
3,67,64,98
3,63,64,0
3,60,64,0
3,68,64,194
3,63,64,0
3,60,64,0
3,60,64,194
3,63,64,0
3,68,64,0
3,68,64,194
3,63,64,0
3,60,64,0
3,67,64,290
3,63,64,0
3,58,64,0
3,67,64,98
3,63,64,0
3,58,64,0
3,58,64,194
3,62,64,0
3,65,64,0
3,58,64,194
3,62,64,0
3,65,64,0
3,58,64,194
3,62,64,0
3,65,64,0
3,60,64,290
3,63,64,0
3,68,64,0
3,63,64,98
3,60,64,0
3,68,64,0
3,60,64,194
3,65,64,0
3,68,64,0
3,60,64,194
3,68,64,0
3,65,64,0
3,68,64,194
3,60,64,0
3,65,64,0
3,60,64,1826
3,67,64,0
3,63,64,0
3,67,64,98
3,63,64,0
3,60,64,0
3,68,64,194
3,63,64,0
3,60,64,0
3,60,64,194
3,63,64,0
3,68,64,0
3,68,64,194
3,63,64,0
3,60,64,0
3,67,64,290
3,63,64,0
3,58,64,0
3,67,64,98
3,63,64,0
3,58,64,0
3,58,64,194
3,62,64,0
3,65,64,0
3,58,64,194
3,62,64,0
3,65,64,0
3,58,64,194
3,62,64,0
3,65,64,0
3,60,64,290
3,67,64,0
3,63,64,0
3,67,64,98
3,63,64,0
3,60,64,0
3,68,64,194
3,63,64,0
3,60,64,0
3,60,64,194
3,63,64,0
3,68,64,0
3,68,64,194
3,63,64,0
3,60,64,0
3,67,64,290
3,63,64,0
3,58,64,0
3,67,64,98
3,63,64,0
3,58,64,0
3,58,64,194
3,62,64,0
3,65,64,0
3,58,64,194
3,62,64,0
3,65,64,0
3,58,64,194
3,62,64,0
3,65,64,0
3,60,64,290
3,67,64,0
3,63,64,0
3,67,64,98
3,63,64,0
3,60,64,0
3,68,64,194
3,63,64,0
3,60,64,0
3,60,64,194
3,63,64,0
3,68,64,0
3,68,64,194
3,63,64,0
