track,note,velocity,time
1,46,64,4564
1,48,64,578
1,45,64,386
1,45,64,386
1,50,64,2
1,50,64,98
1,52,64,98
1,53,64,2
1,46,64,2
1,48,64,578
1,45,64,386
1,45,64,386
1,50,64,2
1,53,64,98
1,55,64,98
1,57,64,2
1,46,64,2
1,48,64,578
1,45,64,386
1,45,64,386
1,50,64,2
1,50,64,98
1,52,64,98
1,53,64,2
1,46,64,2
1,48,64,578
1,45,64,386
1,45,64,386
1,50,64,2
1,53,64,98
1,55,64,98
1,57,64,2
1,46,64,2
1,48,64,578
1,45,64,386
1,45,64,386
1,50,64,2
1,50,64,98
1,52,64,98
1,53,64,2
1,46,64,2
1,48,64,578
1,45,64,386
1,45,64,578
1,50,64,1922
1,49,64,2
1,50,64,2
1,52,64,2
1,53,64,2
1,52,64,2
1,53,64,2
1,55,64,2
1,57,64,2
1,56,64,2
1,57,64,2
1,61,64,2
1,62,64,2
1,53,64,12578
1,50,64,98
1,50,64,2
1,52,64,2
1,49,64,98
1,50,64,98
1,45,64,98
1,49,64,98
1,45,64,98
1,50,64,24674
1,49,64,2
1,50,64,2
1,52,64,2
1,53,64,2
1,52,64,2
1,53,64,2
1,55,64,2
1,57,64,2
1,56,64,2
1,57,64,2
1,61,64,2
1,62,64,2
1,45,64,12578
1,44,64,2
1,45,64,2
1,47,64,2
1,49,64,2
1,47,64,2
1,49,64,2
1,50,64,2
1,52,64,2
1,50,64,2
1,52,64,2
1,53,64,2
1,55,64,2
1,52,64,2
1,53,64,2
1,55,64,6
1,50,64,0
1,50,64,194
1,50,64,194
1,50,64,194
1,46,64,194
1,46,64,194
1,46,64,194
1,46,64,194
1,48,64,194
1,48,64,194
1,48,64,194
1,48,64,194
1,48,64,194
1,48,64,194
1,48,64,194
1,48,64,194
1,50,64,194
1,50,64,194
1,50,64,194
1,50,64,194
1,46,64,194
1,46,64,194
1,46,64,194
1,46,64,194
1,48,64,194
1,48,64,194
1,48,64,194
1,48,64,194
1,50,64,26306
1,49,64,2
1,50,64,2
1,52,64,2
1,53,64,2
1,52,64,2
1,53,64,2
1,55,64,2
1,57,64,2
1,56,64,2
1,57,64,2
1,61,64,2
1,62,64,2
1,46,44,290
1,48,44,578
1,45,44,386
1,45,44,386
1,50,44,2
1,50,44,98
1,52,44,98
1,53,44,2
1,46,44,2
1,48,44,578
1,45,44,386
1,45,44,386
1,50,44,2
1,53,44,98
1,55,44,98
1,57,44,2
1,46,44,2
1,48,44,578
1,45,44,386
1,45,44,386
1,50,44,2
1,50,44,98
1,52,44,98
1,53,44,2
1,46,44,2
1,48,44,578
1,45,44,386
1,45,44,578
1,46,44,12674
1,48,44,578
1,45,44,386
1,45,44,386
1,50,44,2
1,50,44,98
1,52,44,98
1,53,44,2
1,46,44,2
1,48,44,578
1,45,44,386
1,45,44,386
1,50,44,2
1,53,44,98
1,55,44,98
1,57,44,2
1,46,44,2
1,48,44,578
1,45,44,386
1,45,44,386
1,50,44,2
1,50,44,98
1,52,44,98
1,53,44,2
1,46,44,2
1,48,44,578
1,45,44,386
1,45,44,578
1,45,64,386
1,44,64,2
1,45,64,2
1,47,64,2
1,49,64,2
1,47,64,2
1,49,64,2
1,50,64,2
1,52,64,2
1,50,64,2
1,52,64,2
1,53,64,2
1,55,64,2
1,52,64,2
1,53,64,2
1,55,64,6
1,50,64,0
1,50,64,194
1,50,64,194
1,50,64,194
1,46,64,194
1,46,64,194
1,46,64,194
1,46,64,194
1,48,64,194
1,48,64,194
1,48,64,194
1,48,64,194
1,48,64,194
1,48,64,194
1,48,64,194
1,48,64,194
1,50,64,194
1,50,64,194
1,50,64,194
1,50,64,194
1,46,64,194
1,46,64,194
1,46,64,194
1,46,64,194
1,48,64,194
1,48,64,194
1,48,64,194
1,48,64,194
1,48,64,194
1,48,64,194
1,48,64,194
1,48,64,194
1,50,64,194
1,49,64,2
1,50,64,2
1,52,64,2
1,53,64,2
1,52,64,2
1,53,64,2
1,55,64,2
1,57,64,2
1,56,64,2
1,57,64,2
1,61,64,2
1,62,64,2
1,50,64,290
2,62,64,4524
2,65,64,0
2,58,64,2
2,62,64,2
2,65,64,0
2,70,64,98
2,64,64,98
2,60,64,2
2,64,64,2
2,67,64,2
2,64,64,2
2,60,64,0
2,57,64,2
2,60,64,96
2,64,64,2
2,69,64,98
2,65,64,98
2,64,64,2
2,65,64,2
2,64,64,2
2,65,64,2
2,64,64,2
2,65,64,2
2,64,64,2
2,65,64,2
2,65,64,290
2,62,64,0
2,58,64,2
2,62,64,2
2,65,64,0
2,70,64,98
2,64,64,98
2,60,64,2
2,67,64,2
2,64,64,2
2,72,64,2
2,70,64,2
2,69,64,2
2,67,64,2
2,62,64,2
2,65,64,2
2,62,64,2
2,65,64,2
2,62,64,2
2,65,64,2
2,62,64,2
2,65,64,2
2,62,64,2
2,62,64,290
2,65,64,0
2,58,64,2
2,62,64,2
2,65,64,0
2,70,64,98
2,64,64,98
2,60,64,2
2,64,64,2
2,67,64,2
2,64,64,2
2,60,64,0
2,57,64,2
2,60,64,96
2,64,64,2
2,69,64,98
2,65,64,98
2,64,64,2
2,65,64,2
2,64,64,2
2,65,64,2
2,64,64,2
2,65,64,2
2,64,64,2
2,65,64,2
2,65,64,290
2,62,64,0
2,58,64,2
2,62,64,2
2,65,64,0
2,70,64,98
2,64,64,98
2,60,64,2
2,67,64,2
2,64,64,2
2,72,64,2
2,70,64,2
2,69,64,2
2,67,64,2
2,62,64,2
2,65,64,2
2,62,64,2
2,65,64,2
2,62,64,2
2,65,64,2
2,62,64,2
2,65,64,2
2,62,64,2
2,65,64,290
2,62,64,0
2,58,64,2
2,62,64,2
2,65,64,0
2,70,64,98
2,64,64,98
2,60,64,2
2,64,64,2
2,67,64,2
2,64,64,2
2,60,64,0
2,57,64,2
2,60,64,96
2,64,64,2
2,69,64,98
2,65,64,98
2,64,64,2
2,65,64,2
2,64,64,2
2,65,64,2
2,64,64,2
2,65,64,2
2,64,64,2
2,65,64,2
2,65,64,290
2,62,64,0
2,58,64,2
2,62,64,2
2,65,64,0
2,70,64,98
2,64,64,98
2,60,64,2
2,67,64,2
2,64,64,2
2,72,64,2
2,70,64,2
2,69,64,2
2,67,64,2
2,61,64,2
2,64,64,2
2,61,64,2
2,64,64,2
2,61,64,2
2,64,64,2
2,61,64,2
2,64,64,2
2,61,64,2
2,57,64,530
2,61,64,50
2,64,64,2
2,67,64,98
2,64,64,2
2,67,64,2
2,64,64,2
2,67,64,2
2,64,64,2
2,67,64,2
2,64,64,2
2,67,64,2
2,64,64,2
2,62,64,482
2,61,64,2
2,62,64,2
2,64,64,2
2,65,64,2
2,64,64,2
2,65,64,2
2,67,64,2
2,69,64,2
2,68,64,2
2,69,64,2
2,73,64,2
2,74,64,2
2,81,64,12578
2,77,64,98
2,77,64,2
2,79,64,2
2,76,64,98
2,77,64,98
2,74,64,98
2,76,64,98
2,73,64,98
2,62,64,24674
2,61,64,2
2,62,64,2
2,64,64,2
2,65,64,2
2,64,64,2
2,65,64,2
2,67,64,2
2,69,64,2
2,68,64,2
2,69,64,2
2,73,64,2
2,74,64,2
2,57,64,12578
2,56,64,2
2,57,64,2
2,59,64,2
2,61,64,2
2,59,64,2
2,61,64,2
2,62,64,2
2,64,64,2
2,62,64,2
2,64,64,2
2,65,64,2
2,67,64,2
2,64,64,2
2,65,64,2
2,67,64,6
2,65,64,192
2,62,64,0
2,65,64,338
2,62,64,0
2,65,64,338
2,62,64,0
2,65,64,338
2,62,64,0
2,65,64,338
2,62,64,0
2,65,64,338
2,62,64,0
2,65,64,338
2,62,64,0
2,65,64,338
2,62,64,0
2,60,64,338
2,65,64,0
2,60,64,338
2,65,64,0
2,60,64,338
2,65,64,0
2,60,64,338
2,65,64,0
2,60,64,338
2,64,64,0
2,60,64,338
2,64,64,0
2,60,64,338
2,64,64,0
2,60,64,338
2,64,64,0
2,65,64,338
2,62,64,0
2,65,64,338
2,62,64,0
2,65,64,338
2,62,64,0
2,65,64,338
2,62,64,0
2,65,64,338
2,62,64,0
2,65,64,338
2,62,64,0
2,65,64,338
2,62,64,0
2,65,64,338
2,62,64,0
2,60,64,338
2,65,64,0
2,60,64,338
2,65,64,0
2,60,64,338
2,65,64,0
2,60,64,338
2,65,64,0
2,62,64,26258
2,61,64,2
2,62,64,2
2,64,64,2
2,65,64,2
2,64,64,2
2,65,64,2
2,67,64,2
2,69,64,2
2,68,64,2
2,69,64,2
2,73,64,2
2,74,64,2
2,62,44,290
2,65,44,0
2,58,44,2
2,62,44,2
2,65,44,0
2,70,44,98
2,64,44,98
2,60,44,2
2,64,44,2
2,67,44,2
2,64,44,2
2,60,44,0
2,57,44,2
2,60,44,96
2,64,44,2
2,69,44,98
2,65,44,98
2,64,44,2
2,65,44,2
2,64,44,2
2,65,44,2
2,64,44,2
2,65,44,2
2,64,44,2
2,65,44,2
2,65,44,290
2,62,44,0
2,58,44,2
2,62,44,2
2,65,44,0
2,70,44,98
2,64,44,98
2,60,44,2
2,67,44,2
2,64,44,2
2,72,44,2
2,70,44,2
2,69,44,2
2,67,44,2
2,62,44,2
2,65,44,2
2,62,44,2
2,65,44,2
2,62,44,2
2,65,44,2
2,62,44,2
2,65,44,2
2,62,44,2
2,65,44,290
2,62,44,0
2,58,44,2
2,62,44,2
2,65,44,0
2,70,44,98
2,64,44,98
2,60,44,2
2,64,44,2
2,67,44,2
2,64,44,2
2,60,44,0
2,57,44,2
2,60,44,96
2,64,44,2
2,69,44,98
2,65,44,98
2,64,44,2
2,65,44,2
2,64,44,2
2,65,44,2
2,64,44,2
2,65,44,2
2,64,44,2
2,65,44,2
2,65,44,290
2,62,44,0
2,58,44,2
2,62,44,2
2,65,44,0
2,70,44,98
2,64,44,98
2,60,44,2
2,67,44,2
2,64,44,2
2,72,44,2
2,70,44,2
2,69,44,2
2,67,44,2
2,61,44,2
2,64,44,2
2,61,44,2
2,64,44,2
2,61,44,2
2,64,44,2
2,61,44,2
2,64,44,2
2,61,44,2
2,62,44,12626
2,65,44,0
2,58,44,2
2,62,44,2
2,65,44,0
2,70,44,98
2,64,44,98
2,60,44,2
2,64,44,2
2,67,44,2
2,64,44,2
2,60,44,0
2,57,44,2
2,60,44,96
2,64,44,2
2,69,44,98
2,65,44,98
2,64,44,2
2,65,44,2
2,64,44,2
2,65,44,2
2,64,44,2
2,65,44,2
2,64,44,2
2,65,44,2
2,65,44,290
2,62,44,0
2,58,44,2
2,62,44,2
2,65,44,0
2,70,44,98
2,64,44,98
2,60,44,2
2,67,44,2
2,64,44,2
2,72,44,2
2,70,44,2
2,69,44,2
2,67,44,2
2,62,44,2
2,65,44,2
2,62,44,2
2,65,44,2
2,62,44,2
2,65,44,2
2,62,44,2
2,65,44,2
2,62,44,2
2,65,44,290
2,62,44,0
2,58,44,2
2,62,44,2
2,65,44,0
2,70,44,98
2,64,44,98
2,60,44,2
2,64,44,2
2,67,44,2
2,64,44,2
2,60,44,0
2,57,44,2
2,60,44,96
2,64,44,2
2,69,44,98
2,65,44,98
2,64,44,2
2,65,44,2
2,64,44,2
2,65,44,2
2,64,44,2
2,65,44,2
2,64,44,2
2,65,44,2
2,65,44,290
2,62,44,0
2,58,44,2
2,62,44,2
2,65,44,0
2,70,44,98
2,64,44,98
2,60,44,2
2,67,44,2
2,64,44,2
2,72,44,2
2,70,44,2
2,69,44,2
2,67,44,2
2,61,44,2
2,64,44,2
2,61,44,2
2,64,44,2
2,61,44,2
2,64,44,2
2,61,44,2
2,64,44,2
2,61,44,2
2,57,64,338
2,56,64,2
2,57,64,2
2,59,64,2
2,61,64,2
2,59,64,2
2,61,64,2
2,62,64,2
2,64,64,2
2,62,64,2
2,64,64,2
2,65,64,2
2,67,64,2
2,64,64,2
2,65,64,2
2,67,64,6
2,65,64,192
2,62,64,0
2,65,64,338
2,62,64,0
2,65,64,338
2,62,64,0
2,65,64,338
2,62,64,0
2,65,64,338
2,62,64,0
2,65,64,338
2,62,64,0
2,65,64,338
2,62,64,0
2,65,64,338
2,62,64,0
2,60,64,338
2,65,64,0
2,60,64,338
2,65,64,0
2,60,64,338
2,65,64,0
2,60,64,338
2,65,64,0
2,60,64,338
2,64,64,0
2,60,64,338
2,64,64,0
2,60,64,338
2,64,64,0
2,60,64,338
2,64,64,0
2,65,64,338
2,62,64,0
2,65,64,338
2,62,64,0
2,65,64,338
2,62,64,0
2,65,64,338
2,62,64,0
2,65,64,338
2,62,64,0
2,65,64,338
2,62,64,0
2,65,64,338
2,62,64,0
2,65,64,338
2,62,64,0
2,60,64,338
2,65,64,0
2,60,64,338
2,65,64,0
2,60,64,338
2,65,64,0
2,60,64,338
2,65,64,0
2,60,64,338
2,64,64,0
2,60,64,338
2,64,64,0
2,60,64,338
2,64,64,0
2,60,64,338
2,64,64,0
2,62,64,146
2,61,64,2
2,62,64,2
2,64,64,2
2,65,64,2
2,64,64,2
2,65,64,2
2,67,64,2
2,69,64,2
2,68,64,2
2,69,64,2
2,73,64,2
2,74,64,2
2,62,64,290
3,62,85,10628
3,69,85,2
3,67,85,2
3,67,85,98
3,65,85,2
3,67,85,2
3,65,85,2
3,67,85,2
3,69,85,2
3,62,85,2
3,62,85,194
3,62,85,2
3,69,85,2
3,67,85,2
3,65,85,2
3,67,85,2
3,65,85,2
3,67,85,2
3,72,85,2
3,69,85,2
3,62,85,386
3,69,85,2
3,67,85,2
3,67,85,98
3,65,85,2
3,67,85,2
3,65,85,2
3,67,85,2
3,69,85,2
3,62,85,2
3,62,85,194
3,69,85,2
3,69,85,2
3,67,85,2
3,65,85,2
3,67,85,2
3,65,85,2
3,67,85,2
3,72,85,2
3,69,85,2
3,67,85,578
3,67,85,2
3,65,85,2
3,64,85,2
3,62,85,2
3,62,85,770
3,69,85,2
3,67,85,2
3,67,85,98
3,65,85,2
3,67,85,2
3,65,85,2
3,67,85,2
3,69,85,2
3,62,85,2
3,62,85,194
3,62,85,2
3,69,85,2
3,67,85,2
3,65,85,2
3,67,85,2
3,65,85,2
3,67,85,2
3,72,85,2
3,69,85,2
3,62,85,386
3,69,85,2
3,67,85,2
3,67,85,98
3,65,85,2
3,67,85,2
3,65,85,2
3,67,85,2
3,69,85,2
3,62,85,2
3,62,85,194
3,69,85,2
3,69,85,2
3,67,85,2
3,65,85,2
3,67,85,2
3,65,85,2
3,67,85,2
3,72,85,2
3,69,85,2
3,65,85,1216
3,65,85,2
3,65,85,2
3,65,85,194
3,65,85,194
3,65,85,2
3,65,85,2
3,62,85,2
3,62,85,2
3,62,85,2
3,60,85,578
3,65,85,2
3,65,85,2
3,65,85,2
3,65,85,2
3,67,85,194
3,69,85,2
3,67,85,194
3,64,85,2
3,64,85,2
3,64,85,2
3,65,85,770
3,65,85,2
3,65,85,2
3,65,85,2
3,65,85,194
3,67,85,2
3,65,85,194
3,62,85,0
3,62,85,194
3,65,85,350
3,65,85,2
3,65,85,2
3,65,85,2
3,65,85,2
3,67,85,2
3,69,85,2
3,67,85,2
3,64,85,0
3,64,85,194
3,50,105,400
3,50,105,2
3,57,105,2
3,50,105,194
3,53,105,2
3,55,105,2
3,55,105,194
3,55,105,2
3,57,105,2
3,55,105,2
3,53,105,2
3,50,105,2
3,48,105,2
3,48,105,194
3,53,105,2
3,57,105,2
3,48,105,194
3,53,105,2
3,55,105,2
3,55,105,194
3,55,105,2
3,57,105,2
3,53,105,2
3,52,105,2
3,50,105,194
3,53,105,2
3,57,105,2
3,50,105,194
3,53,105,2
3,55,105,2
3,55,105,194
3,55,105,2
3,57,105,2
3,55,105,2
3,53,105,2
3,50,105,2
3,48,105,2
3,48,105,194
3,53,105,2
3,57,105,2
3,48,105,194
3,53,105,2
3,55,105,2
3,55,105,194
3,55,105,2
3,57,105,2
3,53,105,2
3,52,105,2
3,62,85,1538
3,69,85,2
3,67,85,2
3,67,85,98
3,65,85,2
3,67,85,2
3,65,85,2
3,67,85,2
3,69,85,2
3,62,85,2
