track,note,velocity,time
0,38,114,1152
0,38,0,59
0,36,108,133
0,36,0,44
0,36,108,52
0,36,0,47
0,38,125,49
0,38,0,61
0,79,92,323
0,67,104,0
0,39,118,0
0,63,72,0
0,58,53,0
0,79,92,0
0,67,104,0
0,46,70,0
0,36,117,0
0,51,79,3
0,67,88,10
0,36,0,1
0,39,0,1
0,46,0,5
0,39,105,6
0,63,72,0
0,67,75,0
0,58,63,0
0,46,53,0
0,58,0,9
0,63,0,0
0,67,0,3
0,46,0,3
0,39,0,2
0,67,88,5
0,58,73,0
0,63,72,0
0,63,0,7
0,58,0,1
0,67,0,3
0,39,98,11
0,46,99,0
0,38,122,0
0,79,0,8
0,79,0,0
0,38,0,9
0,67,0,1
0,67,0,0
0,39,0,4
0,46,0,3
0,80,95,2
0,68,93,0
0,39,103,0
0,80,95,0
0,68,93,0
0,63,62,0
0,67,70,0
0,58,52,0
0,46,68,0
0,58,0,3
0,63,0,2
0,67,0,3
0,39,0,3
0,46,0,3
0,63,61,4
0,58,62,0
0,67,46,0
0,67,0,3
0,58,0,5
0,63,0,1
0,80,0,5
0,80,0,0
0,67,75,4
0,79,81,0
0,39,116,0
0,67,75,0
0,79,81,0
0,46,50,0
0,36,112,0
0,46,0,5
0,68,0,3
0,68,0,0
0,36,0,13
0,39,0,8
0,79,0,21
0,79,0,0
0,67,0,1
0,67,0,0
0,63,77,1
0,75,97,0
0,39,116,0
0,63,77,0
0,75,97,0
0,67,67,0
0,63,67,0
0,58,56,0
0,46,68,0
0,58,0,19
0,63,0,0
0,67,0,4
0,46,0,6
0,39,0,4
0,75,0,22
0,75,0,0
0,67,70,4
0,58,67,0
0,63,70,0
0,63,0,5
0,63,0,0
0,63,0,38
0,58,0,10
0,67,0,5
0,58,77,4
0,70,102,0
0,39,118,0
0,58,77,0
0,70,102,0
0,46,83,0
0,38,104,0
0,63,0,5
0,67,0,18
0,39,0,2
0,58,0,6
0,51,0,1
0,38,0,0
0,46,0,1
0,70,0,65
0,70,0,0
0,59,73,30
0,71,85,0
0,70,68,0
0,39,105,0
0,59,73,0
0,71,85,0
0,70,68,0
0,63,68,0
0,67,73,0
0,58,62,0
0,46,60,0
0,58,0,4
0,58,0,0
0,58,0,4
0,67,0,2
0,63,0,0
0,46,0,5
0,39,0,3
0,70,0,1
0,70,0,0
0,58,72,0
0,67,90,0
0,63,73,0
0,63,0,4
0,58,0,14
0,67,0,9
0,59,70,3
0,51,104,1
0,63,77,0
0,67,93,9
0,39,122,4
0,46,55,0
0,36,108,0
0,46,0,1
0,39,0,1
0,36,0,2
0,63,99,2
0,75,104,0
0,39,102,0
0,63,99,0
0,75,104,0
0,59,68,0
0,67,75,0
0,63,64,0
0,46,58,0
0,71,0,2
0,71,0,0
0,59,0,4
0,59,0,0
0,63,0,3
0,46,0,2
0,39,0,1
0,63,72,0
0,63,0,3
0,67,0,3
0,59,0,1
0,75,0,1
0,75,0,0
0,39,105,35
0,46,73,0
0,38,119,0
0,63,0,27
0,63,0,0
0,38,0,25
0,46,0,0
0,39,0,2
0,70,117,31
0,82,106,0
0,39,98,0
0,70,117,0
0,82,106,0
0,67,93,0
0,59,79,0
0,63,95,0
0,46,50,0
0,63,0,7
0,59,0,2
0,46,0,3
0,67,0,2
0,39,0,5
0,67,72,2
0,63,68,0
0,59,61,0
0,63,0,9
0,59,0,2
0,67,0,2
0,39,114,32
0,46,60,0
0,36,112,0
0,36,0,3
0,39,0,2
0,46,0,3
0,82,0,11
0,82,0,0
0,80,112,3
0,82,53,0
0,68,104,0
0,39,102,0
0,80,112,0
0,82,53,0
0,68,104,0
0,63,95,0
0,59,70,0
0,67,88,0
0,46,58,0
0,70,0,1
0,70,0,0
0,82,0,3
0,82,0,0
0,67,0,2
0,63,0,0
0,59,0,1
0,39,0,4
0,46,0,4
0,59,0,6
0,67,73,7
0,59,56,0
0,63,68,0
0,63,0,23
0,67,0,0
0,59,0,2
0,80,0,46
0,80,0,0
0,39,105,11
0,46,70,0
0,38,117,0
0,39,0,50
0,38,0,5
0,46,0,14
0,51,0,5
0,68,0,62
0,68,0,0
0,63,0,23
0,67,112,33
0,79,114,0
0,39,118,0
0,67,112,0
0,79,114,0
0,59,68,0
0,67,90,0
0,63,90,0
0,46,60,0
0,67,0,1
0,63,0,18
0,67,0,4
0,59,0,1
0,39,0,3
0,46,0,14
0,59,52,21
0,67,72,0
0,63,59,0
0,63,0,5
0,67,0,6
0,59,0,4
0,39,112,2
0,46,63,0
0,36,108,0
0,58,88,10
0,60,90,1
0,63,79,4
0,67,95,7
0,36,0,5
0,39,0,0
0,46,0,2
0,39,98,6
0,60,95,0
0,63,97,0
0,67,88,0
0,46,50,0
0,60,0,4
0,63,0,9
0,67,0,6
0,39,0,1
0,46,0,10
0,67,67,1
0,63,62,0
0,60,60,0
0,60,0,3
0,63,0,3
0,67,0,4
0,39,102,10
0,46,79,0
0,38,108,0
0,39,0,21
0,38,0,1
0,46,0,21
0,39,102,3
0,67,92,0
0,60,72,0
0,63,102,0
0,46,62,0
0,63,0,3
0,60,0,0
0,67,0,4
0,39,0,2
0,46,0,18
0,67,72,26
0,60,63,0
0,63,68,0
0,63,0,1
0,60,0,13
0,67,0,6
0,39,95,13
0,46,61,0
0,36,108,0
0,39,0,8
0,36,0,12
0,46,0,2
0,79,0,13
0,79,0,0
0,67,0,8
0,67,0,0
0,39,95,29
0,60,83,0
0,63,102,0
0,67,93,0
0,46,61,0
0,67,0,40
0,63,0,1
0,60,0,0
0,39,0,8
0,46,0,6
0,67,75,41
0,60,65,0
0,63,59,0
0,63,0,41
0,60,0,8
0,67,0,5
0,58,0,22
0,63,92,20
0,75,99,0
0,39,87,0
0,63,92,0
0,75,99,0
0,46,85,0
0,38,97,0
0,39,0,59
0,38,0,2
0,46,0,5
0,63,0,30
0,63,0,0
0,77,106,15
0,65,85,0
0,39,112,0
0,77,106,0
0,65,85,0
0,60,83,0
0,58,70,0
0,63,72,0
0,67,75,0
0,46,64,0
0,75,0,16
0,75,0,0
0,63,0,33
0,58,0,3
0,67,0,1
0,60,0,2
0,39,0,3
0,46,0,11
0,67,70,0
0,58,62,0
0,60,60,0
0,63,65,0
0,67,0,4
0,63,0,35
0,60,0,6
0,58,0,1
0,67,0,1
0,60,0,1
0,59,62,4
0,39,114,1
0,46,53,0
0,36,106,0
0,67,102,20
0,39,0,18
0,36,0,2
0,46,0,3
0,77,0,62
0,77,0,0
0,65,0,11
0,65,0,0
0,67,104,42
0,79,95,0
0,39,103,0
0,67,104,0
0,79,95,0
0,63,83,0
0,67,88,0
0,59,72,0
0,63,0,48
0,59,0,1
0,67,0,4
0,39,0,3
0,67,75,0
0,59,65,0
0,63,72,0
0,63,0,34
0,59,0,7
0,67,0,12
0,75,108,40
0,63,112,0
0,39,100,0
0,75,108,0
0,63,112,0
0,46,57,0
0,38,119,0
0,79,0,10
0,79,0,0
0,67,0,21
0,67,0,0
0,39,0,9
0,38,0,1
0,46,0,2
0,75,0,68
0,75,0,0
0,63,0,5
0,63,0,0
0,65,90,31
0,77,93,0
0,39,102,0
0,65,90,0
0,77,93,0
0,63,85,0
0,67,75,0
0,59,68,0
0,46,57,0
0,59,0,4
0,67,0,5
0,63,0,1
0,59,0,2
0,39,0,2
0,46,0,1
0,67,79,14
0,59,67,0
0,63,68,0
0,63,0,40
0,59,0,2
0,67,0,7
0,59,57,36
0,39,95,11
0,46,62,0
0,36,97,0
0,67,0,47
0,39,0,12
0,36,0,4
0,46,0,7
0,67,97,122
0,79,95,0
0,39,93,0
0,67,97,0
0,79,95,0
0,59,85,0
0,63,92,0
0,67,95,0
0,46,62,0
0,65,0,4
0,65,0,0
0,77,0,6
0,77,0,0
0,63,0,6
0,67,0,1
0,59,0,2
0,39,0,7
0,46,0,12
0,67,81,27
0,59,67,0
0,63,73,0
0,63,0,14
0,59,0,7
0,59,0,27
0,63,0,0
0,67,0,12
0,75,104,36
0,63,95,0
0,39,100,0
0,75,104,0
0,63,95,0
0,46,64,0
0,38,108,0
0,39,0,2
0,38,0,1
0,79,0,4
0,46,0,0
0,79,0,0
0,67,0,2
0,67,0,0
0,75,0,62
0,75,0,0
0,39,102,24
0,67,83,0
0,59,67,0
0,63,75,0
0,46,58,0
0,36,90,0
0,63,0,9
0,63,0,0
0,36,0,15
0,67,0,7
0,63,0,0
0,59,0,4
0,39,0,6
0,46,0,6
0,59,75,31
0,67,90,0
0,63,83,0
0,63,0,39
0,59,0,2
0,67,0,5
0,79,92,50
0,67,104,0
0,39,118,0
0,63,72,0
0,58,53,0
0,79,92,0
0,67,104,0
0,46,52,0
0,46,70,0
0,36,117,0
0,51,79,3
0,67,88,10
0,46,0,3
0,36,0,1
0,39,0,1
0,46,0,5
0,39,105,6
0,63,72,0
0,67,75,0
0,58,63,0
0,46,53,0
0,58,0,9
0,63,0,0
0,67,0,3
0,46,0,3
0,39,0,3
0,67,88,17
0,58,73,0
0,63,72,0
0,63,0,7
0,58,0,5
0,67,0,3
0,39,98,11
0,46,99,0
0,38,122,0
0,79,0,8
0,79,0,0
0,38,0,9
0,67,0,1
0,67,0,0
0,39,0,4
0,46,0,3
0,80,95,21
0,68,93,0
0,39,103,0
0,80,95,0
0,68,93,0
0,63,62,0
0,67,70,0
0,58,52,0
0,46,68,0
0,58,0,3
0,63,0,2
0,67,0,3
0,39,0,3
0,46,0,3
0,63,61,4
0,58,62,0
0,67,46,0
0,67,0,3
0,58,0,5
0,63,0,1
0,80,0,5
0,80,0,0
0,67,75,4
0,79,81,0
0,39,116,0
0,67,75,0
0,79,81,0
0,46,50,0
0,36,112,0
0,46,0,6
0,68,0,3
0,68,0,0
0,36,0,13
0,39,0,8
0,79,0,21
0,79,0,0
0,67,0,1
0,67,0,0
0,63,77,1
0,75,97,0
0,39,116,0
0,63,77,0
0,75,97,0
0,67,67,0
0,63,67,0
0,58,56,0
0,46,68,0
0,58,0,19
0,63,0,0
0,67,0,4
0,46,0,6
0,39,0,4
0,75,0,22
0,75,0,0
0,67,70,4
0,58,67,0
0,63,70,0
0,63,0,5
0,63,0,0
0,63,0,38
0,58,0,10
0,67,0,5
0,58,77,4
0,70,102,0
0,39,118,0
0,58,77,0
0,70,102,0
0,46,83,0
0,38,104,0
0,63,0,5
0,67,0,18
0,39,0,2
0,58,0,6
0,38,0,1
0,51,0,0
0,46,0,1
0,70,0,65
0,70,0,0
0,59,73,30
0,71,85,0
0,70,68,0
0,39,105,0
0,59,73,0
0,71,85,0
0,70,68,0
0,63,68,0
0,67,73,0
0,58,62,0
0,46,60,0
0,58,0,4
0,58,0,0
0,58,0,4
0,67,0,2
0,63,0,0
0,46,0,5
0,39,0,3
0,70,0,1
0,70,0,0
0,58,72,0
0,67,90,0
0,63,73,0
0,63,0,4
0,58,0,14
0,67,0,9
0,59,70,3
0,51,104,1
0,63,77,0
0,67,93,9
0,39,122,4
0,46,55,0
0,36,108,0
0,46,0,1
0,39,0,1
0,36,0,2
0,63,99,2
0,75,104,0
0,39,102,0
0,63,99,0
0,75,104,0
0,59,68,0
0,67,75,0
0,63,64,0
0,46,58,0
0,71,0,2
0,71,0,0
0,59,0,4
0,59,0,0
0,63,0,3
0,46,0,2
0,39,0,1
0,63,72,0
0,63,0,3
0,67,0,3
0,59,0,1
0,75,0,1
0,75,0,0
0,39,105,35
0,46,73,0
0,38,119,0
0,63,0,27
0,63,0,0
0,38,0,25
0,46,0,0
0,39,0,2
0,70,117,31
0,82,106,0
0,39,98,0
0,70,117,0
0,82,106,0
0,67,93,0
0,59,79,0
0,63,95,0
0,46,50,0
0,63,0,7
0,59,0,2
0,46,0,3
0,67,0,2
0,39,0,5
0,67,72,2
0,63,68,0
0,59,61,0
0,63,0,9
0,59,0,2
0,67,0,2
0,39,114,32
0,46,60,0
0,36,112,0
0,36,0,3
0,39,0,2
0,46,0,3
0,82,0,11
0,82,0,0
0,80,112,3
0,82,53,0
0,68,104,0
0,39,102,0
0,80,112,0
0,82,53,0
0,68,104,0
0,63,95,0
0,59,70,0
0,67,88,0
0,46,58,0
0,70,0,1
0,70,0,0
0,82,0,3
0,82,0,0
0,67,0,2
0,63,0,0
0,59,0,1
0,39,0,4
0,46,0,4
0,59,0,6
0,67,73,7
0,59,56,0
0,63,68,0
0,63,0,23
0,67,0,0
0,59,0,2
0,80,0,46
0,80,0,0
0,39,105,11
0,46,70,0
0,38,117,0
0,39,0,50
0,38,0,5
0,46,0,14
0,51,0,5
0,68,0,62
0,68,0,0
0,63,0,23
0,67,112,33
0,79,114,0
0,39,118,0
0,67,112,0
0,79,114,0
0,59,68,0
0,67,90,0
0,63,90,0
0,46,60,0
0,67,0,1
0,63,0,18
0,67,0,4
0,59,0,1
0,39,0,3
0,46,0,15
0,59,52,21
0,67,72,0
0,63,59,0
0,63,0,5
0,67,0,6
0,59,0,4
0,79,117,2
0,67,117,0
0,39,112,0
0,79,90,0
0,46,63,0
0,36,108,0
0,58,88,10
0,60,90,1
0,63,79,4
0,67,95,7
0,36,0,5
0,39,0,0
0,46,0,2
0,39,98,53
0,60,95,0
0,63,97,0
0,67,88,0
0,46,50,0
0,60,0,37
0,63,0,9
0,67,0,6
0,39,0,1
0,46,0,10
0,67,67,1
0,63,62,0
0,60,60,0
0,60,0,3
0,63,0,3
0,67,0,6
0,39,102,10
0,46,79,0
0,38,108,0
0,79,0,27
0,39,0,21
0,38,0,1
0,67,0,19
0,46,0,2
0,39,102,49
0,67,92,0
0,60,72,0
0,63,102,0
0,46,62,0
0,63,0,8
0,60,0,0
0,67,0,4
0,39,0,3
0,46,0,18
0,67,72,26
0,60,63,0
0,63,68,0
0,63,0,1
0,60,0,13
0,67,0,6
0,39,95,13
0,46,61,0
0,36,108,0
0,39,0,8
0,36,0,12
0,46,0,2
0,79,0,13
0,79,0,0
0,67,0,8
0,67,0,0
0,39,95,29
0,60,83,0
0,63,102,0
0,67,93,0
0,46,61,0
0,67,0,40
0,63,0,1
0,60,0,0
0,39,0,8
0,46,0,6
0,67,75,41
0,60,65,0
0,63,59,0
0,79,0,23
0,63,0,18
0,60,0,8
0,67,0,5
0,58,0,22
0,39,87,20
0,46,85,0
0,38,97,0
0,39,0,65
0,38,0,2
0,46,0,5
0,68,64,120
0,39,112,0
0,60,83,0
0,58,70,0
0,63,72,0
0,67,75,0
0,46,64,0
0,63,0,49
0,58,0,3
0,67,0,1
0,60,0,2
0,39,0,3
0,46,0,11
0,70,75,27
0,67,70,0
0,58,62,0
0,60,60,0
0,63,65,0
0,67,0,6
0,68,0,23
0,63,0,12
0,60,0,6
0,58,0,7
0,67,0,11
0,70,0,6
0,60,0,4
0,59,62,10
0,71,95,1
0,63,112,0
0,39,114,0
0,46,53,0
0,36,106,0
0,67,102,20
0,39,0,18
0,36,0,2
0,46,0,3
0,39,103,115
0,63,83,0
0,67,88,0
0,59,72,0
0,63,0,3
0,59,0,1
0,67,0,4
0,39,0,4
0,82,123,39
0,67,75,0
0,59,65,0
0,63,72,0
0,63,0,37
0,59,0,7
0,67,0,4
0,63,0,9
0,71,0,3
0,39,100,5
0,46,57,0
0,38,119,0
0,39,0,22
0,38,0,9
0,46,0,18
0,82,0,67
0,70,114,1
0,61,108,0
0,39,102,0
0,70,117,0
0,63,85,0
0,67,75,0
0,59,68,0
0,46,57,0
0,59,0,4
0,67,0,16
0,63,0,2
0,59,0,2
0,39,0,3
0,46,0,1
0,67,79,6
0,59,67,0
0,63,68,0
0,63,0,2
0,59,0,2
0,67,0,6
0,61,0,4
0,59,57,5
0,39,95,11
0,82,123,0
0,38,117,0
0,46,62,0
0,36,97,0
0,70,0,16
0,67,0,2
0,38,0,3
0,39,0,9
0,36,0,4
0,46,0,1
0,70,0,2
0,82,0,26
0,59,108,13
0,68,117,0
0,39,93,0
0,70,114,0
0,59,85,0
0,63,92,0
0,67,95,0
0,46,62,0
0,63,0,3
0,67,0,6
