track,note,velocity,time
0,44,127,102
0,20,20,0
0,20,0,3
0,44,0,10
0,20,20,12
0,20,0,13
0,20,20,11
0,20,0,13
0,20,20,11
0,20,0,13
0,20,20,14
0,20,0,3
0,20,21,19
0,20,0,13
0,20,21,12
0,20,0,13
0,20,21,11
0,20,0,13
0,39,127,12
0,20,21,0
0,20,0,3
0,39,0,10
0,20,22,11
0,20,0,13
0,20,22,11
0,20,0,13
0,20,22,12
0,20,0,13
0,20,22,13
0,20,0,3
0,20,23,20
0,20,0,13
0,20,23,11
0,20,0,13
0,20,23,11
0,20,0,13
0,44,127,12
0,20,23,0
0,20,0,3
0,44,0,10
0,20,24,11
0,20,0,13
0,20,24,12
0,20,0,13
0,20,24,11
0,20,0,13
0,20,24,13
0,20,0,3
0,20,25,20
0,20,0,13
0,20,25,11
0,20,0,13
0,20,25,12
0,20,0,13
0,39,127,11
0,20,25,0
0,20,0,3
0,39,0,10
0,20,26,12
0,20,0,13
0,20,26,11
0,20,0,13
0,20,26,11
0,20,0,13
0,20,26,14
0,20,0,3
0,20,27,19
0,20,0,13
0,20,27,12
0,20,0,13
0,20,27,11
0,20,0,13
0,44,127,12
0,20,27,0
0,20,0,3
0,44,0,10
0,20,28,11
0,20,0,13
0,20,28,11
0,20,0,13
0,20,28,12
0,20,0,13
0,20,28,13
0,20,0,3
0,20,29,20
0,20,0,13
0,20,29,11
0,20,0,13
0,20,29,12
0,20,0,13
0,20,29,11
0,20,0,3
0,20,30,21
0,20,0,13
0,20,30,12
0,20,0,13
0,20,30,11
0,20,0,13
0,20,30,13
0,20,0,3
0,20,31,20
0,20,0,13
0,20,31,11
0,20,0,13
0,20,31,12
0,20,0,13
0,20,31,11
0,20,0,3
0,20,32,22
0,20,0,13
0,20,32,11
0,20,0,13
0,20,32,12
0,20,0,13
0,20,32,13
0,20,0,3
0,20,33,19
0,20,0,13
0,20,33,12
0,20,0,13
0,20,33,11
0,20,0,13
0,20,33,12
0,20,0,3
0,20,34,21
0,20,0,13
0,20,34,11
0,20,0,13
0,20,34,12
0,20,0,13
0,20,34,13
0,20,0,3
0,20,34,20
0,20,0,13
0,20,35,11
0,20,0,13
0,20,35,12
0,20,0,13
0,20,35,11
0,20,0,3
0,20,35,21
0,20,0,13
0,20,36,12
0,20,0,13
0,20,36,11
0,20,0,13
0,20,36,13
0,20,0,3
0,20,36,20
0,20,0,13
0,20,37,11
0,20,0,13
0,20,37,12
0,20,0,13
0,20,37,11
0,20,0,3
0,20,37,22
0,20,0,13
0,20,38,11
0,20,0,13
0,20,38,12
0,20,0,13
0,20,38,13
0,20,0,3
0,20,38,19
0,20,0,13
0,20,39,12
0,20,0,13
0,20,39,11
0,20,0,13
0,20,39,12
0,20,0,3
0,20,39,21
0,20,0,13
0,20,40,11
0,20,0,13
0,20,40,12
0,20,0,13
0,20,40,13
0,20,0,3
0,20,40,20
0,20,0,13
0,20,41,11
0,20,0,13
0,20,41,12
0,20,0,13
0,20,41,11
0,20,0,3
0,20,41,21
0,20,0,13
0,20,42,12
0,20,0,13
0,20,42,11
0,20,0,13
0,20,42,13
0,20,0,3
0,20,42,20
0,20,0,13
0,20,43,11
0,20,0,13
0,20,43,12
0,20,0,13
0,44,4,11
0,20,43,0
0,20,43,0
0,20,0,3
0,44,0,0
0,20,0,10
0,44,4,12
0,20,43,0
0,20,0,13
0,44,0,0
0,20,44,11
0,44,6,7
0,20,0,6
0,44,0,7
0,44,7,5
0,20,44,0
0,72,74,4
0,20,0,9
0,44,0,0
0,44,9,11
0,20,44,2
0,44,0,1
0,20,0,2
0,44,9,19
0,20,44,0
0,20,0,13
0,44,0,0
0,20,45,12
0,44,11,6
0,20,0,7
0,44,0,6
0,44,12,5
0,20,45,0
0,20,0,13
0,44,0,0
0,44,15,12
0,20,45,0
0,20,0,3
0,44,0,0
0,44,16,21
0,20,45,0
0,20,0,13
0,44,0,0
0,20,46,11
0,44,16,7
0,20,0,6
0,44,0,7
0,44,19,5
0,20,46,0
0,20,0,13
0,44,0,0
0,44,21,11
0,20,46,2
0,44,0,1
0,20,0,2
0,44,22,20
0,20,46,0
0,20,0,13
0,44,0,0
0,20,47,11
0,44,24,7
0,20,0,6
0,44,0,7
0,44,28,5
0,20,47,0
0,20,0,13
0,44,0,0
0,44,31,11
0,20,47,0
0,20,0,3
0,44,0,0
0,44,30,21
0,20,47,0
0,20,0,13
0,44,0,0
0,20,48,12
0,44,34,6
0,20,0,7
0,44,0,6
0,44,39,5
0,20,48,0
0,20,0,13
0,44,0,0
0,44,44,12
0,20,48,1
0,44,0,2
0,20,0,1
0,44,43,20
0,20,48,0
0,20,0,13
0,44,0,0
0,20,49,11
0,44,46,7
0,20,0,6
0,44,0,7
0,44,53,5
0,20,49,0
0,20,0,13
0,44,0,0
0,44,60,11
0,20,49,0
0,20,0,3
0,44,0,0
0,44,56,22
0,20,49,0
0,20,0,13
0,44,0,0
0,20,49,11
0,44,59,7
0,20,0,6
0,44,0,7
0,44,68,5
0,20,50,0
0,72,0,4
0,20,0,9
0,44,0,0
0,44,69,11
0,20,50,2
0,44,0,1
0,20,0,2
0,44,70,19
0,20,50,0
0,20,0,13
0,44,0,0
0,20,50,12
0,44,71,6
0,20,0,7
0,44,0,6
0,44,70,5
0,20,50,0
0,20,0,13
0,44,0,0
0,63,103,12
0,60,102,0
0,56,100,0
0,51,98,0
0,44,127,0
0,57,91,0
0,44,0,11
0,57,0,2
0,56,119,64
0,51,112,0
0,44,106,3
0,44,127,14
0,96,96,5
0,72,80,7
0,84,110,0
0,44,0,1
0,56,0,7
0,51,0,1
0,44,0,12
0,96,0,11
0,72,0,19
0,84,0,0
0,87,91,96
0,63,77,18
0,75,106,0
0,87,0,16
0,51,110,43
0,56,118,1
0,44,107,5
0,56,0,14
0,51,0,0
0,44,0,5
0,75,0,57
0,63,0,0
0,96,86,5
0,72,78,12
0,84,108,0
0,96,0,27
0,72,0,50
0,84,0,0
0,51,112,9
0,56,118,1
0,44,106,5
0,94,85,12
0,70,75,6
0,82,104,0
0,51,0,15
0,56,0,2
0,44,0,5
0,94,0,1
0,70,0,87
0,82,0,0
0,72,79,30
0,84,109,0
0,96,86,1
0,96,0,32
0,51,112,47
0,72,0,1
0,84,0,0
0,56,118,2
0,44,107,0
0,70,81,23
0,82,111,0
0,94,85,1
0,56,0,15
0,51,0,0
0,44,0,3
0,94,0,9
0,70,0,13
0,82,0,0
0,68,77,23
0,80,106,0
0,92,72,3
0,92,0,9
0,68,0,56
0,80,0,0
0,51,85,3
0,63,80,2
0,75,110,0
0,87,91,5
0,56,81,26
0,87,0,6
0,51,0,11
0,60,109,0
0,56,0,26
0,63,101,7
0,60,0,10
0,63,0,15
0,68,92,6
0,68,0,14
0,72,106,1
0,60,0,11
0,63,0,0
0,56,0,0
0,51,0,0
0,52,96,1
0,64,104,0
0,60,102,0
0,56,100,0
0,72,0,1
0,76,101,0
0,75,0,5
0,63,0,0
0,51,114,10
0,56,118,2
0,76,0,4
0,72,81,1
0,84,112,0
0,96,86,0
0,44,107,1
0,51,0,31
0,56,0,0
0,96,0,5
0,44,0,4
0,84,0,38
0,72,0,0
0,88,74,118
0,64,80,3
0,76,110,0
0,88,0,34
0,51,112,54
0,44,102,1
0,56,118,2
0,51,0,16
0,56,0,1
0,44,0,0
0,76,0,62
0,64,0,0
0,96,86,1
0,72,81,10
0,84,111,0
0,96,0,17
0,72,0,36
0,84,0,0
0,51,110,67
0,56,116,3
0,94,85,0
0,44,105,0
0,44,127,2
0,44,0,13
0,70,80,2
0,82,110,0
0,94,0,12
0,51,0,2
0,56,0,2
0,44,0,2
0,70,0,58
0,82,0,0
0,72,78,15
0,84,108,0
0,39,127,6
0,96,91,2
0,39,0,11
0,96,0,29
0,72,0,44
0,84,0,0
0,44,104,7
0,51,110,2
0,56,119,3
0,94,91,8
0,70,81,2
0,82,111,0
0,44,0,20
0,51,0,2
0,56,0,3
0,94,0,2
0,44,127,7
0,44,0,13
0,82,0,9
0,70,0,0
0,68,78,41
0,80,107,0
0,92,80,7
0,92,0,25
0,68,0,45
0,80,0,0
0,64,81,17
0,76,112,0
0,39,127,1
0,51,85,2
0,88,102,1
0,39,0,10
0,56,81,21
0,88,0,3
0,51,0,15
0,60,109,0
0,56,0,25
0,63,101,7
0,60,0,11
0,63,0,14
0,68,92,7
0,68,0,14
0,72,106,1
0,76,0,14
0,64,0,0
0,64,0,11
0,56,0,0
0,60,0,0
0,52,0,0
0,65,105,0
0,56,101,0
0,60,102,0
0,53,99,0
0,44,127,0
0,72,0,2
0,77,101,0
0,44,0,11
0,56,119,160
0,51,112,0
0,44,106,3
0,72,81,2
0,84,112,0
0,44,127,9
0,77,0,2
0,96,86,4
0,44,0,7
0,56,0,7
0,51,0,1
0,44,0,12
0,96,0,7
0,72,0,53
0,84,0,0
0,65,81,97
0,77,112,0
0,89,86,6
0,89,0,37
0,51,110,33
0,56,118,2
0,44,107,5
0,51,0,36
0,56,0,1
0,44,0,5
0,77,0,36
0,65,0,0
0,72,80,29
0,84,110,0
0,96,86,2
0,96,0,37
0,72,0,45
0,84,0,0
0,70,78,32
0,82,108,0
0,51,112,50
0,56,118,2
0,44,106,5
0,94,80,16
0,51,0,16
0,56,0,3
0,44,0,5
0,94,0,3
0,70,0,105
0,82,0,0
0,96,82,15
0,72,79,2
0,84,109,0
0,96,0,40
0,72,0,36
0,84,0,0
0,51,112,10
0,56,118,3
0,44,107,0
0,70,78,18
0,82,108,0
0,94,91,5
0,56,0,16
0,51,0,0
0,44,0,3
0,94,0,11
0,70,0,45
0,82,0,0
0,68,78,10
0,80,107,0
0,92,85,3
0,92,0,27
0,68,0,19
0,80,0,0
0,68,80,14
0,80,110,0
0,51,85,3
0,89,102,0
0,56,81,33
0,89,0,1
0,51,0,16
0,60,109,0
0,56,0,25
0,63,101,7
0,60,0,11
0,63,0,14
0,68,92,7
0,68,0,6
0,80,0,0
0,68,0,8
0,72,106,0
0,99,91,5
0,75,83,1
0,87,115,0
0,65,0,4
0,60,0,0
0,56,0,0
0,53,0,0
0,60,102,1
0,54,99,0
0,66,105,0
0,56,101,0
0,72,0,1
0,78,101,1
0,99,0,21
0,75,0,43
0,87,0,0
0,72,83,117
0,84,115,0
0,96,86,2
0,51,114,5
0,56,118,1
0,78,0,5
0,44,107,2
0,96,0,16
0,56,0,14
0,51,0,1
0,44,0,9
0,72,0,10
0,84,0,0
0,92,99,8
0,68,81,7
0,80,111,0
0,92,0,17
0,51,112,80
0,44,102,2
0,56,118,2
0,68,0,1
0,80,0,0
0,51,0,8
0,56,0,2
0,44,0,0
0,68,76,49
0,80,105,0
0,80,0,34
0,68,0,0
0,99,85,70
0,75,82,2
0,87,113,0
0,99,0,3
0,75,0,36
0,87,0,0
0,51,110,28
0,56,116,3
0,44,105,2
0,44,127,1
0,44,0,13
0,51,0,16
0,56,0,2
0,44,0,3
0,72,81,23
0,84,111,0
0,96,84,7
0,96,0,22
0,39,127,0
0,39,0,3
0,84,0,25
0,72,0,0
0,44,104,23
0,51,110,1
0,56,119,4
0,68,81,6
0,80,111,0
0,44,0,24
0,51,0,1
0,56,0,4
0,89,91,49
0,44,127,13
0,89,0,11
0,44,0,2
0,68,0,35
0,80,0,0
0,72,74,17
0,70,81,14
0,82,111,0
0,82,0,50
0,70,0,0
0,89,96,32
0,39,127,1
0,68,80,2
0,80,110,0
0,49,85,0
0,39,0,11
0,89,0,3
0,53,81,19
0,49,0,17
0,56,109,0
0,72,0,10
0,53,0,16
0,61,101,7
0,56,0,10
0,68,0,1
0,80,0,0
0,61,0,15
0,65,92,6
0,65,0,14
0,68,106,1
0,37,94,0
0,49,104,0
0,61,119,1
0,60,0,1
0,54,0,0
0,66,0,0
0,56,0,0
0,73,111,1
0,65,105,0
0,77,116,0
0,56,101,0
0,49,127,0
0,85,110,0
0,68,0,1
0,57,90,0
0,73,101,0
0,49,0,1
0,61,0,2
0,57,0,1
0,85,0,1
0,87,110,0
0,87,0,1
0,37,0,0
0,37,81,0
0,85,110,0
0,49,0,1
0,49,91,0
0,61,112,1
0,37,0,2
0,49,0,1
0,61,0,1
0,85,0,4
0,56,89,56
0,68,122,0
0,49,127,3
0,92,85,0
0,73,0,2
0,49,0,11
0,92,0,4
0,56,0,163
0,68,0,0
0,49,90,12
0,61,124,0
0,85,91,0
0,85,0,24
0,49,0,30
0,61,0,0
0,92,91,4
0,56,85,2
0,68,118,0
0,92,0,17
0,56,0,13
0,68,0,0
0,85,110,28
0,85,0,27
0,87,127,0
0,87,0,6
0,37,89,0
0,49,100,0
0,61,111,1
0,56,90,1
0,68,124,0
0,77,0,1
0,65,0,0
0,67,105,0
0,79,116,0
0,92,99,0
0,85,100,0
0,92,0,1
0,85,0,1
0,87,106,0
0,87,0,3
0,85,110,3
0,85,0,3
0,87,126,0
0,56,0,16
0,68,0,0
0,94,80,1
0,58,85,1
0,70,118,0
0,87,0,1
0,85,109,0
0,94,0,1
0,85,0,1
0,87,107,0
0,70,0,1
0,58,0,0
0,87,0,1
0,85,110,0
0,56,90,3
0,68,124,0
0,92,99,0
0,92,0,4
0,85,0,0
0,87,110,13
0,87,0,2
0,67,0,0
0,79,0,0
0,80,113,1
0,68,107,0
0,85,110,0
0,85,0,1
0,37,0,1
0,61,0,0
0,49,0,1
0,68,0,30
0,56,0,0
0,94,72,9
0,58,90,1
0,70,124,0
0,94,0,16
0,58,0,38
0,70,0,0
0,37,91,0
0,49,101,0
0,61,107,1
0,56,90,1
0,68,124,0
0,57,78,0
0,85,105,0
0,92,106,0
0,61,0,2
0,57,0,1
0,85,0,1
0,92,0,1
0,37,0,1
0,49,0,1
0,36,91,0
0,48,98,0
0,60,111,1
0,60,0,1
0,36,0,1
0,37,94,0
0,48,0,1
0,49,102,0
0,61,113,1
0,68,0,1
0,56,0,0
0,80,0,1
0,56,0,0
0,68,0,0
0,73,0,0
0,73,112,1
0,56,101,0
0,64,105,0
0,76,113,0
0,57,91,0
0,92,116,0
0,61,0,1
0,57,0,1
0,37,0,1
0,49,0,1
0,37,89,0
0,49,96,0
0,61,109,1
0,37,0,5
0,49,0,1
0,61,0,1
0,56,92,3
0,68,127,0
0,92,85,2
0,92,0,1
0,68,0,2
0,56,0,0
0,56,91,5
0,68,126,0
0,85,91,0
0,92,0,5
0,85,0,18
0,56,0,60
0,68,0,0
0,58,91,28
0,70,126,0
0,92,91,0
0,92,0,19
0,58,0,15
0,70,0,0
0,85,110,24
0,85,0,27
0,87,127,0
0,59,91,2
0,71,126,0
0,37,91,0
0,49,104,0
0,61,114,1
0,87,0,1
0,66,104,1
0,78,110,0
0,64,0,1
0,76,0,0
0,49,127,0
0,92,99,0
0,85,100,0
0,49,0,1
0,92,0,1
0,85,0,2
0,87,106,0
0,87,0,1
0,85,110,1
0,85,0,9
0,87,127,0
0,59,0,3
0,71,0,0
0,58,89,7
0,70,122,0
0,94,80,3
0,44,127,1
0,87,0,1
0,85,108,0
0,44,0,1
0,94,0,2
0,70,0,2
0,58,0,0
0,85,0,1
0,87,106,0
0,58,90,1
0,70,124,0
0,87,0,1
0,85,106,0
0,92,99,0
0,92,0,1
0,85,0,2
0,87,123,0
0,66,0,2
0,78,0,0
0,49,127,1
0,68,106,1
0,80,113,0
0,87,0,1
0,85,127,0
0,49,0,1
0,85,0,1
0,70,0,5
0,58,0,0
0,37,0,3
0,61,0,0
0,49,0,1
0,56,89,21
0,68,122,0
0,94,72,23
0,68,0,18
0,56,0,0
0,94,0,2
0,56,85,39
0,68,118,0
0,44,127,11
0,57,78,2
0,88,98,0
0,92,106,1
0,44,0,2
0,57,0,3
0,92,0,2
0,68,0,3
0,56,0,0
0,37,94,3
0,49,104,1
0,61,112,1
0,37,0,7
0,49,0,1
0,61,0,1
0,39,95,0
0,51,108,0
0,63,114,1
0,56,92,1
0,68,127,0
0,56,0,1
0,73,0,0
