track,note,velocity,time
3,121,127,1
3,122,127,5
3,119,127,0
3,122,0,9
3,117,127,0
3,121,0,10
3,116,127,5
3,119,0,4
3,114,127,4
3,117,0,13
3,112,127,0
3,116,0,10
3,110,127,5
3,114,0,6
3,109,127,4
3,112,0,10
3,107,127,2
3,110,0,5
3,105,127,2
3,109,0,6
3,104,127,1
3,107,0,11
3,102,127,0
3,105,0,11
3,100,127,2
3,104,0,8
3,98,127,0
3,102,0,6
3,97,127,0
3,100,0,3
3,95,127,8
3,98,0,4
3,94,127,8
3,97,0,3
3,94,0,4
3,93,127,3
3,91,127,5
3,95,0,1
3,89,127,7
3,93,0,10
3,88,127,6
3,91,0,9
3,86,127,4
3,89,0,5
3,84,127,0
3,88,0,1
3,82,127,6
3,86,0,6
3,81,127,0
3,84,0,1
3,79,127,2
3,82,0,10
3,77,127,2
3,81,0,12
3,76,127,1
3,79,0,1
3,74,127,1
3,77,0,3
3,72,127,2
3,76,0,13
3,70,127,1
3,74,0,13
3,69,127,0
3,72,0,9
3,67,127,13
3,70,0,5
3,66,127,6
3,69,0,2
3,66,0,9
3,67,0,8
3,121,127,1
3,122,127,5
3,119,127,0
3,122,0,9
3,117,127,0
3,121,0,10
3,116,127,5
3,119,0,4
3,114,127,4
3,117,0,13
3,112,127,0
3,116,0,10
3,110,127,5
3,114,0,6
3,109,127,4
3,112,0,11
3,107,127,1
3,110,0,5
3,105,127,2
3,109,0,6
3,104,127,1
3,107,0,11
3,102,127,1
3,105,0,12
3,100,127,1
3,104,0,8
3,98,127,0
3,102,0,6
3,97,127,0
3,100,0,2
3,95,127,8
3,98,0,4
3,94,127,8
3,97,0,3
3,94,0,4
3,93,127,3
3,91,127,5
3,95,0,1
3,89,127,7
3,93,0,1
3,88,127,6
3,91,0,9
3,86,127,4
3,89,0,5
3,84,127,0
3,88,0,1
3,82,127,6
3,86,0,6
3,81,127,0
3,84,0,1
3,79,127,2
3,82,0,10
3,77,127,2
3,81,0,12
3,76,127,1
3,79,0,1
3,74,127,1
3,77,0,3
3,72,127,1
3,76,0,13
3,70,127,1
3,74,0,13
3,69,127,0
3,72,0,9
3,67,127,13
3,70,0,6
3,66,127,6
3,69,0,2
3,66,0,9
3,67,0,8
3,121,127,1
3,122,127,5
3,119,127,0
3,122,0,9
3,117,127,0
3,121,0,10
3,116,127,5
3,119,0,4
3,114,127,4
3,117,0,13
3,112,127,0
3,116,0,10
3,110,127,5
3,114,0,6
3,109,127,4
3,112,0,11
3,107,127,1
3,110,0,5
3,105,127,2
3,109,0,6
3,104,127,1
3,107,0,11
3,102,127,1
3,105,0,11
3,100,127,2
3,104,0,8
3,98,127,0
3,102,0,6
3,97,127,0
3,100,0,3
3,95,127,8
3,98,0,4
3,94,127,8
3,97,0,3
3,94,0,4
3,93,127,3
3,91,127,5
3,95,0,1
3,89,127,7
3,93,0,1
3,88,127,6
3,91,0,9
3,86,127,4
3,89,0,5
3,84,127,0
3,88,0,1
3,82,127,6
3,86,0,6
3,81,127,0
3,84,0,1
3,79,127,2
3,82,0,10
3,77,127,2
3,81,0,12
3,76,127,1
3,79,0,1
3,74,127,1
3,77,0,3
3,72,127,1
3,76,0,13
3,70,127,1
3,74,0,13
3,69,127,0
3,72,0,9
3,67,127,13
3,70,0,5
3,66,127,6
3,69,0,2
3,66,0,9
3,67,0,8
3,121,127,1
3,122,127,5
3,119,127,0
3,122,0,9
3,117,127,0
3,121,0,10
3,116,127,5
3,119,0,4
3,114,127,4
3,117,0,13
3,112,127,0
3,116,0,11
3,110,127,5
3,114,0,6
3,109,127,4
3,112,0,11
3,107,127,1
3,110,0,5
3,105,127,2
3,109,0,6
3,104,127,1
3,107,0,11
3,102,127,1
3,105,0,12
3,100,127,1
3,104,0,8
3,98,127,0
3,102,0,6
3,97,127,0
3,100,0,2
3,95,127,8
3,98,0,4
3,94,127,8
3,97,0,4
3,94,0,4
3,93,127,3
3,91,127,5
3,95,0,1
3,89,127,7
3,93,0,1
3,88,127,6
3,91,0,9
3,86,127,4
3,89,0,5
3,84,127,0
3,88,0,1
3,82,127,6
3,86,0,6
3,81,127,0
3,84,0,1
3,79,127,2
3,82,0,10
3,77,127,2
3,81,0,12
3,76,127,1
3,79,0,1
3,74,127,1
3,77,0,4
3,72,127,1
3,76,0,13
3,70,127,1
3,74,0,13
3,69,127,0
3,72,0,9
3,67,127,13
3,70,0,6
3,66,127,6
3,69,0,2
3,66,0,9
3,67,0,8
4,32,126,14685
4,32,0,94
4,32,118,101
4,32,0,94
4,32,121,101
4,32,0,94
4,32,126,102
4,32,0,94
4,32,118,101
4,32,0,94
4,32,121,101
4,32,0,94
4,32,121,102
4,32,0,94
4,32,118,101
4,32,0,94
4,32,126,101
4,32,0,94
4,32,118,102
4,32,0,94
4,32,121,101
4,32,0,94
4,32,126,101
4,32,0,94
4,32,118,102
4,32,0,94
4,32,121,101
4,32,0,94
4,32,121,101
4,32,0,94
4,32,118,102
4,32,0,94
4,32,126,101
4,32,0,94
4,32,118,101
4,32,0,94
4,32,121,102
4,32,0,94
4,32,126,101
4,32,0,94
4,32,118,101
4,32,0,94
4,32,121,102
4,32,0,94
4,32,121,101
4,32,0,94
4,32,118,101
4,32,0,94
4,32,126,102
4,32,0,94
4,32,118,101
4,32,0,94
4,32,121,101
4,32,0,94
4,32,126,102
4,32,0,94
4,32,118,101
4,32,0,94
4,32,121,101
4,32,0,94
4,32,121,102
4,32,0,94
4,32,118,101
4,32,0,94
4,25,126,101
4,25,0,94
4,25,118,102
4,25,0,94
4,25,121,101
4,25,0,94
4,25,126,101
4,25,0,94
4,25,118,102
4,25,0,94
4,25,121,101
4,25,0,94
4,25,121,101
4,25,0,94
4,25,118,102
4,25,0,94
4,28,126,101
4,28,0,94
4,28,118,101
4,28,0,94
4,28,121,102
4,28,0,94
4,28,126,101
4,28,0,94
4,28,118,101
4,28,0,94
4,28,121,102
4,28,0,94
4,28,121,101
4,28,0,94
4,28,118,102
4,28,0,94
4,27,126,101
4,27,0,94
4,27,118,101
4,27,0,94
4,27,121,102
4,27,0,94
4,27,126,101
4,27,0,94
4,27,118,101
4,27,0,94
4,27,121,102
4,27,0,94
4,27,122,101
4,27,0,94
4,27,117,101
4,27,0,94
4,27,126,102
4,27,0,94
4,27,118,101
4,27,0,94
4,27,121,101
4,27,0,94
4,27,122,102
4,27,0,94
4,32,126,882
4,32,0,94
4,32,118,102
4,32,0,94
4,32,121,101
4,32,0,94
4,32,122,101
4,32,0,94
4,36,116,102
4,36,0,94
4,36,115,101
4,36,0,94
4,36,116,101
4,36,0,94
4,36,113,102
4,36,0,94
4,25,123,101
4,25,0,94
4,25,122,101
4,25,0,94
4,25,120,102
4,25,0,94
4,25,120,101
4,25,0,94
4,27,124,101
4,27,0,94
4,27,118,102
4,27,0,94
4,27,121,101
4,27,0,94
4,27,122,101
4,27,0,94
4,32,126,102
4,32,0,94
4,32,118,101
4,32,0,94
4,32,121,101
4,32,0,94
4,32,121,102
4,32,0,94
4,36,116,101
4,36,0,94
4,36,115,101
4,36,0,94
4,36,117,102
4,36,0,94
4,36,112,101
4,36,0,94
4,25,123,101
4,25,0,94
4,25,122,102
4,25,0,94
4,25,118,101
4,25,0,94
4,25,120,101
4,25,0,94
4,27,126,102
4,27,0,94
4,27,117,101
4,27,0,94
4,27,121,102
4,27,0,94
4,27,122,101
4,27,0,94
4,32,126,101
4,32,0,94
4,32,118,102
4,32,0,94
4,32,121,101
4,32,0,94
4,32,122,101
4,32,0,94
4,36,116,102
4,36,0,94
4,36,115,101
4,36,0,94
4,36,116,101
4,36,0,94
4,36,113,102
4,36,0,94
4,25,123,101
4,25,0,94
4,25,122,101
4,25,0,94
4,25,120,102
4,25,0,94
4,25,120,101
4,25,0,94
4,27,124,101
4,27,0,94
4,27,118,102
4,27,0,94
4,27,121,101
4,27,0,94
4,27,122,101
4,27,0,94
4,32,126,102
4,32,0,94
4,32,118,101
4,32,0,94
4,32,121,101
4,32,0,94
4,32,122,102
4,32,0,94
4,36,116,101
4,36,0,94
4,36,115,101
4,36,0,94
4,36,116,102
4,36,0,94
4,36,113,101
4,36,0,94
4,25,123,101
4,25,0,94
4,25,122,102
4,25,0,94
4,25,120,101
4,25,0,94
4,25,120,101
4,25,0,94
4,27,124,102
4,27,0,94
4,27,118,101
4,27,0,94
4,27,121,101
4,27,0,94
4,27,122,102
4,27,0,94
4,32,126,882
4,32,0,94
4,32,118,102
4,32,0,94
4,32,121,101
4,32,0,94
4,32,126,101
4,32,0,94
4,32,118,102
4,32,0,94
4,32,121,101
4,32,0,94
4,32,121,101
4,32,0,94
4,32,118,102
4,32,0,94
4,32,126,101
4,32,0,94
4,32,118,102
4,32,0,94
4,32,121,101
4,32,0,94
4,32,126,101
4,32,0,94
4,32,118,102
4,32,0,94
4,32,121,101
4,32,0,94
4,32,121,101
4,32,0,94
4,32,118,102
4,32,0,94
4,32,126,101
4,32,0,94
4,32,118,101
4,32,0,94
4,32,121,102
4,32,0,94
4,32,126,101
4,32,0,94
4,32,118,101
4,32,0,94
4,32,121,102
4,32,0,94
4,32,121,101
4,32,0,94
4,32,118,101
4,32,0,94
4,32,126,102
4,32,0,94
4,32,118,101
4,32,0,94
4,32,121,101
4,32,0,94
4,32,126,102
4,32,0,94
4,32,118,101
4,32,0,94
4,32,121,101
4,32,0,94
4,32,121,102
4,32,0,94
4,32,118,101
4,32,0,94
4,25,126,101
4,25,0,94
4,25,118,102
4,25,0,94
4,25,121,101
4,25,0,94
4,25,126,101
4,25,0,94
4,25,118,102
4,25,0,94
4,25,121,101
4,25,0,94
4,25,121,101
4,25,0,94
4,25,118,102
4,25,0,94
4,28,126,101
4,28,0,94
4,28,118,101
4,28,0,94
4,28,121,102
4,28,0,94
4,28,126,101
4,28,0,94
4,28,118,101
4,28,0,94
4,28,121,102
4,28,0,94
4,28,121,101
4,28,0,94
4,28,118,101
4,28,0,94
4,27,126,102
4,27,0,94
4,27,118,101
4,27,0,94
4,27,121,101
4,27,0,94
4,27,126,102
4,27,0,94
4,27,118,101
4,27,0,94
4,27,121,101
4,27,0,94
4,27,122,102
4,27,0,94
4,27,117,101
4,27,0,94
4,27,126,102
4,27,0,94
4,27,118,101
4,27,0,94
4,27,121,101
4,27,0,94
4,27,122,102
4,27,0,94
4,32,126,882
4,32,0,94
4,32,118,102
4,32,0,94
4,32,121,101
4,32,0,94
4,32,122,101
4,32,0,94
4,36,116,102
4,36,0,94
4,36,115,101
4,36,0,94
4,36,116,101
4,36,0,94
4,36,113,102
4,36,0,94
4,25,123,101
4,25,0,94
4,25,122,101
4,25,0,94
4,25,120,102
4,25,0,94
4,25,120,101
4,25,0,94
4,27,124,101
4,27,0,94
4,27,118,102
4,27,0,94
4,27,121,101
4,27,0,94
4,27,122,101
4,27,0,94
4,32,126,102
4,32,0,94
4,32,118,101
4,32,0,94
4,32,121,101
4,32,0,94
4,32,121,102
4,32,0,94
4,36,116,101
4,36,0,94
4,36,115,101
4,36,0,94
4,36,117,102
4,36,0,94
4,36,112,101
4,36,0,94
4,25,123,101
4,25,0,94
4,25,122,102
4,25,0,94
4,25,118,101
4,25,0,94
4,25,120,101
4,25,0,94
4,27,126,102
4,27,0,94
4,27,117,101
4,27,0,94
4,27,121,101
4,27,0,94
4,27,122,102
4,27,0,94
4,32,126,101
4,32,0,94
4,32,118,101
4,32,0,94
4,32,121,102
4,32,0,94
4,32,122,101
4,32,0,94
4,36,116,101
4,36,0,94
4,36,115,102
4,36,0,94
4,36,116,101
4,36,0,94
4,36,113,102
4,36,0,94
4,25,123,101
4,25,0,94
4,25,122,101
4,25,0,94
4,25,120,102
4,25,0,94
4,25,120,101
4,25,0,94
4,27,124,101
4,27,0,94
4,27,118,102
4,27,0,94
4,27,121,101
4,27,0,94
4,27,122,101
4,27,0,94
4,32,126,102
4,32,0,94
4,32,118,101
4,32,0,94
4,32,121,101
4,32,0,94
4,32,122,102
4,32,0,94
4,36,116,101
4,36,0,94
4,36,115,101
4,36,0,94
4,36,116,102
4,36,0,94
4,36,113,101
4,36,0,94
4,25,123,101
4,25,0,94
4,25,122,102
4,25,0,94
4,25,120,101
4,25,0,94
4,25,120,101
4,25,0,94
4,27,124,102
4,27,0,94
4,27,118,101
4,27,0,94
4,27,121,101
4,27,0,94
4,27,122,102
4,27,0,94
4,37,111,7
4,37,0,1248
4,40,111,314
4,40,0,1093
4,39,111,275
4,39,0,164
4,44,95,31
4,44,0,413
4,44,111,173
4,44,0,159
4,43,99,36
4,43,0,397
4,41,111,189
4,41,0,154
4,39,97,42
4,39,0,1002
4,32,126,655
4,32,0,94
4,32,118,101
4,32,0,94
4,32,121,102
4,32,0,94
4,32,122,101
4,32,0,94
4,36,116,101
4,36,0,94
4,36,115,102
4,36,0,94
4,36,116,101
4,36,0,94
4,36,113,101
4,36,0,94
4,25,123,102
4,25,0,94
4,25,122,101
4,25,0,94
4,25,120,101
4,25,0,94
4,25,120,102
4,25,0,94
4,27,124,101
4,27,0,94
4,27,118,101
4,27,0,94
4,27,121,102
4,27,0,94
4,27,122,101
4,27,0,94
4,32,126,101
4,32,0,94
4,32,118,102
4,32,0,94
4,32,121,101
4,32,0,94
4,32,121,101
4,32,0,94
4,36,116,102
4,36,0,94
4,36,115,101
4,36,0,94
4,36,117,101
4,36,0,94
4,36,112,102
4,36,0,94
4,25,123,101
4,25,0,94
4,25,122,101
4,25,0,94
4,25,118,102
4,25,0,94
4,25,120,101
4,25,0,94
4,27,126,101
4,27,0,94
4,27,117,102
4,27,0,94
4,27,121,101
4,27,0,94
4,27,122,101
4,27,0,94
4,32,126,102
4,32,0,94
4,32,118,101
4,32,0,94
4,32,121,101
4,32,0,94
4,32,122,102
4,32,0,94
4,36,116,101
4,36,0,94
4,36,115,102
4,36,0,94
4,36,116,101
4,36,0,94
4,36,113,101
4,36,0,94
4,25,123,102
4,25,0,94
4,25,122,101
4,25,0,94
4,25,120,101
4,25,0,94
4,25,120,102
4,25,0,94
4,27,124,101
4,27,0,94
4,27,118,101
4,27,0,94
4,27,121,102
4,27,0,94
4,27,122,101
4,27,0,94
4,32,126,101
4,32,0,94
4,32,118,102
4,32,0,94
4,32,121,101
4,32,0,94
4,32,121,101
4,32,0,94
4,36,116,102
4,36,0,94
4,36,115,101
4,36,0,94
4,36,117,101
4,36,0,94
4,36,112,102
4,36,0,94
4,25,123,101
4,25,0,94
4,25,122,101
4,25,0,94
4,25,118,102
4,25,0,94
4,25,120,101
4,25,0,94
4,27,126,101
4,27,0,94
4,27,117,102
4,27,0,94
4,27,121,101
4,27,0,94
4,27,122,101
4,27,0,94
4,32,126,102
4,32,0,94
4,32,118,101
4,32,0,94
4,32,121,101
4,32,0,94
4,32,122,102
4,32,0,94
4,36,116,101
4,36,0,94
4,36,115,101
4,36,0,94
4,36,116,102
4,36,0,94
4,36,113,101
4,36,0,94
4,25,123,101
4,25,0,94
4,25,122,102
4,25,0,94
4,25,120,101
4,25,0,94
4,25,120,101
4,25,0,94
4,27,124,102
4,27,0,94
4,27,118,101
4,27,0,94
4,27,121,101
4,27,0,94
4,27,122,102
4,27,0,94
4,27,126,101
4,27,0,94
4,27,118,101
4,27,0,94
4,27,121,102
4,27,0,94
4,27,122,101
4,27,0,94
4,32,122,102
4,32,0,94
4,32,120,101
4,32,0,94
4,32,122,101
4,32,0,94
4,32,118,102
4,32,0,94
4,32,122,15
4,32,0,286
5,80,105,0
5,80,0,12
5,80,105,0
5,80,0,13
6,72,80,3793
6,84,110,0
6,72,0,81
6,84,0,0
6,63,77,114
6,75,106,0
6,75,0,164
6,63,0,0
6,72,78,17
6,84,108,0
6,72,0,78
6,84,0,0
6,70,75,122
6,82,104,0
6,70,0,159
6,82,0,0
6,72,79,30
6,84,109,0
6,72,0,86
6,84,0,0
6,70,81,25
6,82,111,0
6,70,0,169
6,82,0,0
6,68,77,23
6,80,106,0
