track,note,velocity,time
1,76,54,1454
1,78,54,48
1,81,54,8
1,76,54,28
1,72,54,60
1,76,54,44
1,72,54,12
1,69,54,288
1,72,54,28
1,71,54,272
1,69,54,12
1,71,54,12
1,72,54,308
1,71,54,268
1,69,54,160
1,69,54,108
1,69,54,108
1,69,54,92
1,69,54,92
1,69,54,44
1,71,54,28
1,72,54,28
1,74,54,12
1,76,54,48
1,74,54,12
1,75,54,108
1,74,54,32
1,73,54,12
1,74,54,42
1,74,54,58
1,74,54,44
1,76,54,28
1,76,54,60
1,76,54,60
1,77,54,208
1,77,54,28
1,77,54,44
1,80,54,12
1,81,54,28
1,83,54,76
1,81,54,32
1,79,54,12
1,78,54,28
1,76,54,60
1,81,54,204
1,76,54,48
1,72,54,44
1,76,54,172
1,72,54,140
1,81,54,0
1,81,54,76
1,73,54,16
1,73,54,44
1,79,54,4
1,73,54,28
1,77,54,16
1,76,54,40
1,77,54,592
1,76,54,12
1,74,54,24
1,76,54,28
1,78,54,16
1,81,54,10
1,81,54,44
1,76,54,28
1,72,54,44
1,76,54,44
1,72,54,304
1,69,54,252
1,72,54,48
1,71,54,0
1,69,54,28
1,71,54,40
1,72,54,40
1,71,54,12
1,72,54,12
1,71,54,64
1,69,54,60
1,69,54,108
1,71,54,12
1,72,54,138
1,74,54,124
1,74,54,44
1,74,54,68
1,74,54,60
1,72,54,28
1,71,54,76
1,72,54,74
1,72,54,44
1,72,54,76
1,72,54,60
1,71,54,26
1,69,54,64
1,71,54,44
1,71,54,60
1,71,54,60
1,71,54,40
1,72,54,28
1,74,54,28
1,76,54,12
1,74,54,12
1,72,54,48
1,74,54,28
1,74,54,48
1,74,54,44
1,74,54,44
1,72,54,272
1,71,54,282
1,72,54,172
1,72,54,28
1,72,54,60
1,72,54,56
1,71,54,512
1,69,54,62
1,71,54,124
1,71,54,44
1,71,54,60
1,71,54,60
1,72,54,36
1,72,54,56
1,72,54,44
1,71,54,12
1,72,54,12
1,71,54,48
1,69,54,0
1,69,54,40
1,69,54,60
1,69,54,30
1,69,54,44
1,71,54,44
1,72,54,44
1,74,54,192
1,76,54,44
1,74,54,44
1,75,54,62
1,74,54,60
1,73,54,16
1,74,54,188
1,74,54,44
1,74,54,44
1,76,54,28
1,76,54,28
1,77,54,160
1,77,54,26
1,77,54,44
1,80,54,8
1,81,54,12
1,83,54,60
1,81,54,36
1,79,54,12
1,78,54,28
1,76,54,76
1,76,54,140
1,81,54,16
1,76,54,60
1,72,54,48
1,76,54,140
1,72,54,124
1,81,54,0
1,73,54,108
1,73,54,44
1,79,54,0
1,77,54,48
1,73,54,12
1,76,54,44
1,77,54,10
1,76,54,12
1,74,54,8
1,76,54,2016
1,78,54,28
1,81,54,0
1,81,54,60
1,76,54,44
1,72,54,60
1,76,54,28
1,72,54,388
1,69,54,144
1,72,54,12
1,71,54,28
1,69,54,44
1,71,54,28
1,72,54,44
1,71,54,12
1,69,54,28
1,69,51,124
1,71,51,12
1,72,51,140
1,74,51,136
1,74,51,58
1,74,51,108
1,74,51,76
1,72,51,44
1,71,51,204
1,72,51,108
1,72,51,44
1,72,51,60
1,72,51,60
1,71,51,26
1,69,51,172
1,71,51,12
1,71,51,76
1,71,51,60
1,71,51,44
1,72,51,42
1,74,51,138
1,76,51,76
1,74,51,1248
1,72,51,28
1,74,51,28
1,74,51,44
1,74,51,60
1,74,51,60
1,72,51,16
1,71,51,136
1,72,51,60
1,72,51,48
1,72,51,60
1,72,51,44
1,71,51,28
1,69,51,48
1,71,51,44
1,71,51,28
1,71,51,60
1,72,51,44
1,72,51,46
1,72,51,56
1,71,51,44
1,71,40,92
1,72,40,192
1,71,40,140
1,72,40,2
1,71,40,74
1,69,40,76
1,69,40,28
1,69,40,60
1,69,40,76
1,69,40,60
1,71,40,12
1,72,40,12
1,74,40,12
1,76,40,48
1,74,40,48
1,75,40,108
1,74,40,48
1,73,40,32
1,74,40,28
1,74,40,44
1,74,40,44
1,76,40,24
1,76,40,60
1,76,40,60
1,77,40,28
1,77,40,44
1,77,40,32
1,80,40,12
1,81,40,28
1,83,40,76
1,81,40,48
1,79,40,0
1,78,40,28
1,76,40,44
1,76,40,156
1,81,40,28
1,76,40,16
1,72,40,60
1,76,40,124
1,72,40,140
1,81,40,16
1,81,40,48
1,73,40,12
1,73,40,60
1,79,40,0
1,73,40,44
1,77,40,0
1,76,40,28
1,77,40,576
1,76,40,76
1,74,40,76
1,76,40,12
1,78,40,32
1,81,40,12
1,81,40,60
1,76,40,44
1,72,40,46
1,76,40,28
1,72,40,42
1,69,40,0
1,72,40,26
1,71,40,28
1,69,40,44
1,71,40,44
1,72,40,40
1,71,40,272
1,72,40,12
1,71,40,32
1,69,40,12
1,69,40,106
1,71,40,192
1,72,40,144
1,74,40,128
1,74,40,58
1,74,40,60
1,74,40,44
1,72,40,28
1,71,40,58
1,72,40,58
1,72,40,44
1,72,40,60
1,72,40,60
1,71,40,56
1,69,40,80
1,71,40,28
1,71,40,44
1,71,40,58
1,71,40,44
1,72,40,44
1,74,40,60
1,76,40,28
1,74,40,1248
1,72,40,44
1,74,40,28
1,74,40,76
1,74,40,60
1,74,40,48
1,72,40,28
1,71,40,60
1,72,40,44
1,72,40,44
1,72,40,60
1,72,40,60
1,71,40,28
1,69,40,44
1,71,40,12
1,71,40,44
1,71,40,44
1,71,40,60
1,72,40,48
1,72,40,76
1,72,40,44
1,74,40,0
1,72,40,72
1,71,40,76
1,71,59,62
1,72,59,188
1,71,59,134
1,69,59,108
1,69,59,42
1,69,59,44
1,69,59,60
1,69,59,56
1,71,59,12
1,72,59,28
1,74,59,12
1,76,59,32
1,74,59,28
1,75,59,60
1,74,59,32
1,73,59,32
1,74,59,172
1,74,59,60
1,74,59,44
1,76,59,12
1,76,59,48
1,76,59,44
1,77,59,2
1,77,59,44
1,77,59,44
1,80,59,12
1,81,59,44
1,83,59,44
1,81,59,64
1,79,59,12
1,78,59,12
1,76,59,0
1,76,59,140
1,81,59,80
1,72,59,60
1,76,59,140
1,72,59,124
1,81,59,0
1,73,59,62
1,81,59,12
1,73,59,60
1,79,59,0
1,73,59,60
1,77,59,4
1,76,59,60
1,77,59,560
1,76,59,92
1,74,59,76
1,76,59,8
1,78,59,16
1,81,59,12
1,81,59,44
1,76,59,44
1,72,59,60
1,76,59,28
1,72,59,28
1,69,59,48
1,72,59,42
1,71,59,28
1,69,59,28
1,71,59,44
1,72,59,28
1,71,59,12
1,72,59,12
1,71,59,48
1,69,59,44
1,69,59,44
1,71,59,64
1,72,59,60
1,71,59,60
1,72,59,76
1,74,59,44
1,72,59,44
1,74,59,0
1,76,59,60
1,74,59,60
1,76,59,60
1,78,59,28
1,79,59,28
1,81,59,12
1,76,59,28
1,72,59,44
1,76,59,42
1,72,59,40
1,69,59,48
1,72,59,42
1,71,59,28
1,69,59,44
1,71,59,44
1,72,59,32
1,71,59,16
1,69,59,28
1,76,59,448
1,69,59,12
1,72,59,0
1,81,59,0
1,69,59,76
1,76,59,0
1,81,59,0
1,72,59,18
2,33,84,1518
2,36,84,576
2,40,84,172
2,36,84,28
2,35,84,48
2,35,84,76
2,40,84,28
2,33,84,28
2,36,84,556
2,40,84,188
2,36,84,396
2,33,84,362
2,36,84,556
2,40,84,156
2,36,84,12
2,33,84,76
2,36,84,580
2,40,84,172
2,36,84,332
2,35,84,172
2,33,84,190
2,36,84,540
2,40,84,172
2,36,84,364
2,38,84,12
2,41,84,560
2,45,84,144
2,41,84,364
2,40,84,172
2,38,84,170
2,38,84,60
2,41,84,288
2,45,84,116
2,41,84,348
2,38,84,360
2,38,84,42
2,41,84,256
2,45,84,356
2,40,84,380
2,40,84,60
2,44,84,208
2,35,84,346
2,33,84,384
2,33,84,60
2,40,84,192
2,42,84,332
2,33,84,368
2,40,84,8
2,42,84,208
2,44,84,0
2,33,84,56
2,36,84,580
2,40,84,156
2,36,84,376
2,33,84,384
2,37,84,562
2,40,84,172
2,37,84,348
2,38,84,4
2,41,84,576
2,33,84,172
2,41,84,348
2,40,84,156
2,38,84,188
2,41,84,508
2,33,84,172
2,41,84,28
2,33,84,64
2,36,84,572
2,40,84,202
2,36,84,364
2,35,84,92
2,35,84,58
2,40,84,212
2,33,84,92
2,36,84,564
2,40,84,188
2,36,84,364
2,33,84,364
2,36,84,562
2,40,84,140
2,36,84,8
2,38,84,12
2,41,84,548
2,33,84,172
2,41,84,316
2,33,84,364
2,36,84,588
2,40,84,156
2,36,84,348
2,40,84,380
2,32,84,540
2,35,84,188
2,32,84,332
2,33,84,364
2,36,84,540
2,40,84,172
2,36,84,364
2,38,84,364
2,41,84,572
2,33,84,356
2,41,84,332
2,33,84,188
2,36,84,540
2,40,84,152
2,36,84,348
2,35,84,124
2,35,84,60
2,41,84,76
2,41,84,36
2,40,84,28
2,40,84,12
2,32,84,208
2,35,84,316
2,33,84,380
2,36,84,540
2,40,84,156
2,36,84,364
2,33,84,348
2,36,84,538
2,40,84,156
2,36,84,364
2,38,84,380
2,41,84,570
2,33,84,156
2,41,84,252
2,40,84,268
2,38,84,172
2,41,84,236
2,33,84,220
2,41,84,172
2,40,84,348
2,38,84,364
2,41,84,540
2,33,84,170
2,41,84,344
2,40,84,364
2,32,84,540
2,35,84,172
2,32,84,348
2,33,84,364
2,40,84,540
2,42,84,220
2,32,84,344
2,33,84,364
2,40,84,540
2,42,84,204
2,44,84,332
2,33,84,380
2,36,84,524
2,40,84,188
2,36,84,348
2,35,84,204
2,33,84,12
2,37,84,544
2,40,84,172
2,37,84,332
2,38,84,364
2,41,84,542
2,33,84,182
2,41,84,240
2,40,84,268
2,38,84,172
2,38,84,28
2,41,84,288
2,33,84,158
2,41,84,332
2,33,84,12
2,36,84,592
2,40,84,140
2,36,84,364
2,35,84,10
2,35,84,60
2,40,84,192
2,33,84,732
2,36,84,572
2,40,84,172
2,36,84,364
2,33,84,380
2,33,84,60
2,33,84,44
2,38,84,752
2,41,84,556
2,33,84,172
2,41,84,364
2,33,84,24
2,36,84,580
2,40,84,160
2,36,84,364
2,40,86,352
2,32,84,74
2,35,84,224
2,32,84,348
2,33,84,380
2,36,84,572
2,40,84,172
2,36,84,348
2,38,84,380
2,41,84,556
2,33,84,188
2,41,84,348
2,33,84,12
2,36,84,560
2,40,84,188
2,36,84,348
2,35,84,124
2,35,84,76
2,41,84,74
2,41,84,74
2,40,84,12
2,42,84,10
2,32,84,192
2,33,84,12
2,36,84,576
2,40,84,172
2,36,84,352
2,33,84,348
2,36,84,546
2,40,84,188
2,36,84,0
2,38,84,396
2,41,84,556
2,33,84,204
2,41,84,236
2,40,84,284
2,38,84,172
2,33,84,526
2,41,84,204
2,40,84,330
2,38,84,364
2,41,84,540
2,33,84,156
2,41,84,332
2,40,84,366
2,32,84,538
2,35,84,188
2,32,84,348
2,33,84,376
2,36,84,556
2,40,84,200
2,36,84,12
2,35,84,288
2,33,84,188
2,36,84,532
2,40,84,176
2,36,84,12
2,35,84,272
2,33,84,204
2,36,84,542
2,40,84,172
2,36,84,362
2,33,84,380
2,37,84,556
2,40,84,172
2,37,84,332
2,38,84,362
2,41,84,572
2,33,84,188
2,41,84,332
2,38,84,348
2,41,84,512
2,33,84,156
2,41,84,10
2,33,84,12
2,36,84,576
2,40,84,172
2,36,84,348
2,35,84,60
2,35,84,60
2,40,84,12
2,33,84,752
2,36,84,588
2,40,84,156
2,36,84,332
2,35,84,188
2,33,84,172
2,33,84,44
2,33,84,42
2,38,84,772
2,41,84,556
2,33,84,172
2,41,84,348
2,33,84,364
2,36,84,764
2,40,84,348
2,40,84,332
2,32,84,176
2,35,84,192
2,32,84,348
2,33,84,332
2,36,84,556
2,40,84,172
2,36,84,380
2,38,84,348
2,41,84,556
2,33,84,180
2,41,84,332
2,33,84,364
2,36,84,572
2,40,84,156
2,36,84,364
2,35,84,40
2,35,84,108
2,41,84,92
2,40,84,92
2,40,84,76
2,40,84,28
2,40,84,44
2,42,84,24
2,32,84,60
2,33,84,60
2,36,84,576
2,40,84,172
2,36,84,348
2,35,84,176
2,33,84,172
2,36,84,552
2,40,84,172
2,36,84,348
2,38,84,368
2,41,84,508
2,33,84,202
2,41,84,318
2,40,84,172
2,38,84,172
2,41,84,540
2,33,84,160
2,41,84,332
2,38,84,380
2,41,84,540
2,33,84,188
2,41,84,336
2,40,84,0
2,32,84,572
2,35,84,172
2,32,84,348
2,33,84,140
2,36,84,576
2,40,84,172
2,36,84,348
2,35,84,204
2,33,84,172
2,36,84,572
2,40,84,172
2,36,84,364
2,33,84,332
2,40,84,560
2,42,84,188
2,32,84,348
2,33,84,380
2,37,84,540
2,40,84,156
2,37,84,348
2,38,84,364
2,41,84,556
2,33,84,184
2,41,84,332
2,40,84,176
2,38,84,172
2,41,84,524
2,33,84,172
2,41,84,28
2,33,84,384
2,36,84,764
2,40,84,348
2,35,84,362
2,35,84,60
2,40,84,12
2,33,84,768
2,36,84,572
2,40,84,172
2,36,84,348
2,35,84,188
2,33,84,156
2,36,84,560
2,40,84,172
2,36,84,346
2,33,89,0
2,36,84,554
2,40,84,12
2,36,84,8
2,35,84,156
2,35,84,92
2,40,84,72
2,33,84,108
2,36,84,560
2,40,84,188
2,36,84,332
2,35,84,204
2,33,84,176
2,33,84,92
2,33,84,44
3,76,84,1454
3,78,84,48
3,81,84,32
3,76,84,28
3,72,84,60
3,76,84,32
3,72,84,12
3,69,84,288
3,72,84,28
3,71,84,272
3,69,84,14
3,71,84,12
3,72,84,312
3,71,84,268
3,69,84,164
3,69,84,108
3,69,84,108
3,69,84,92
3,69,84,92
3,69,84,44
3,71,84,28
3,72,84,28
3,74,84,12
3,76,84,48
3,74,84,0
3,75,84,108
3,74,84,32
3,73,84,12
3,74,84,38
3,74,84,44
3,74,84,46
3,76,84,28
3,76,84,60
3,76,84,60
3,77,84,210
3,77,84,28
3,77,84,44
3,80,84,12
3,81,84,12
3,83,84,64
3,81,84,44
3,79,84,12
3,78,84,28
3,76,84,60
3,81,84,204
3,76,84,48
3,72,84,44
3,76,84,160
3,72,84,128
3,81,84,12
3,81,84,76
3,73,84,16
3,73,84,44
3,79,84,4
3,73,84,28
3,77,84,16
3,76,84,36
3,77,84,594
3,76,84,12
3,74,84,20
3,76,84,28
3,78,84,16
3,81,84,28
3,81,84,44
3,76,84,30
3,72,84,44
3,76,84,44
3,72,84,304
3,69,84,252
3,72,84,50
3,71,84,4
3,69,84,30
3,71,84,36
3,72,84,36
3,71,84,8
3,72,84,12
3,71,84,64
3,69,84,56
3,69,84,108
3,71,84,12
3,72,84,138
3,74,84,124
3,74,84,44
3,74,84,68
3,74,84,62
3,72,84,28
3,71,84,74
3,72,84,68
3,72,84,44
3,72,84,72
3,72,84,62
3,71,84,8
3,69,84,76
3,71,84,44
3,71,84,60
3,71,84,44
3,71,84,28
3,72,84,28
3,74,84,28
3,76,84,12
3,74,84,12
3,72,84,48
3,74,84,26
3,74,84,52
3,74,84,42
3,74,84,44
3,72,84,272
3,71,84,278
3,72,84,174
3,72,84,28
3,72,84,60
3,72,84,56
3,71,84,512
3,69,84,60
3,71,84,124
3,71,84,44
3,71,84,60
3,71,84,62
3,72,84,38
3,72,84,52
3,72,84,44
3,71,84,14
3,72,84,12
3,71,84,48
3,69,84,2
3,69,84,44
3,69,84,62
3,69,84,30
3,69,84,46
3,71,84,44
3,72,84,44
3,74,84,192
3,76,84,44
3,74,84,46
3,75,84,62
3,74,84,56
3,73,84,18
3,74,84,188
3,74,84,44
3,74,84,46
3,76,84,28
3,76,84,28
3,77,84,160
3,77,84,12
3,77,84,46
3,80,84,190
3,81,84,12
3,83,84,60
3,81,84,36
3,79,84,12
3,78,84,28
3,76,84,76
3,76,84,136
3,81,84,8
3,76,84,64
3,72,84,52
3,76,84,138
3,72,84,124
3,81,84,0
3,73,84,108
3,79,84,44
3,73,84,2
3,77,84,48
3,73,84,12
3,76,84,44
3,77,84,578
