track,note,velocity,time
1,36,99,1152
1,36,107,288
1,36,90,178
1,36,118,56
1,36,99,14
1,34,127,128
1,31,118,384
1,31,90,10
1,31,107,48
1,31,118,96
1,31,107,14
1,29,99,556
1,29,90,288
1,29,83,182
1,29,99,72
1,29,90,8
1,34,118,592
1,34,99,288
1,34,88,190
1,34,90,64
1,34,127,6
1,35,118,188
1,36,99,20
1,36,107,288
1,36,90,178
1,36,118,56
1,36,99,14
1,34,127,128
1,31,118,384
1,31,90,10
1,31,107,48
1,31,118,96
1,31,107,14
1,29,99,556
1,29,90,288
1,29,83,182
1,29,99,72
1,29,90,8
1,34,118,592
1,34,99,288
1,34,88,190
1,34,90,64
1,34,127,6
1,35,118,188
1,36,99,20
1,36,107,288
1,36,90,178
1,36,118,56
1,36,99,14
1,34,127,128
1,31,118,384
1,31,90,10
1,31,107,48
1,31,118,96
1,31,107,14
1,29,99,556
1,29,90,288
1,29,83,182
1,29,99,72
1,29,90,8
1,34,118,592
1,34,99,288
1,34,88,190
1,34,90,64
1,34,127,6
1,35,118,188
1,36,99,20
1,36,107,288
1,36,90,178
1,36,118,56
1,36,99,14
1,34,127,128
1,31,118,384
1,31,90,10
1,31,107,48
1,31,118,96
1,31,107,14
1,29,99,556
1,29,90,288
1,29,83,182
1,29,99,72
1,29,90,8
1,34,118,592
1,34,99,288
1,34,88,190
1,34,90,64
1,34,127,6
1,35,118,188
1,36,107,20
1,36,107,18
1,36,90,88
1,36,99,72
1,36,107,20
1,35,118,170
1,33,118,102
1,33,99,34
1,33,90,80
1,33,90,96
1,33,107,12
1,29,107,536
1,29,90,30
1,29,88,96
1,29,90,88
1,29,99,18
1,31,107,542
1,31,83,36
1,31,90,96
1,31,99,96
1,31,107,14
1,36,107,598
1,36,107,18
1,36,90,88
1,36,99,72
1,36,107,20
1,35,118,170
1,33,118,102
1,33,99,34
1,33,90,80
1,33,90,96
1,33,107,12
1,29,107,536
1,29,90,30
1,29,88,96
1,29,90,88
1,29,99,18
1,31,107,542
1,31,83,36
1,31,90,96
1,31,99,96
1,31,107,14
1,36,99,598
1,36,99,50
1,36,99,94
1,36,107,80
1,36,99,18
1,35,90,552
1,35,99,30
1,35,90,92
1,35,83,62
1,35,99,26
1,34,90,538
1,34,99,4
1,34,90,94
1,34,88,94
1,34,118,24
1,33,99,556
1,33,90,26
1,33,83,86
1,33,90,102
1,33,90,10
1,36,99,606
1,36,99,50
1,36,99,94
1,36,107,80
1,36,99,18
1,35,90,552
1,35,99,30
1,35,90,92
1,35,83,62
1,35,99,26
1,34,90,538
1,34,99,4
1,34,90,94
1,34,88,94
1,34,118,24
1,33,99,556
1,33,90,26
1,33,83,86
1,33,90,102
1,33,90,10
1,29,107,606
1,29,90,32
1,29,107,100
1,29,99,72
1,29,99,8
1,34,127,536
1,34,90,16
1,34,90,74
1,34,90,82
1,34,127,8
1,35,127,228
1,36,99,88
1,36,107,288
1,36,90,178
1,36,118,56
1,36,99,14
1,34,127,128
1,31,118,384
1,31,90,10
1,31,107,48
1,31,118,96
1,31,107,14
1,29,99,556
1,29,90,288
1,29,83,182
1,29,99,72
1,29,90,8
1,34,118,592
1,34,99,288
1,34,88,190
1,34,90,64
1,34,127,6
1,35,118,188
1,36,99,20
1,36,107,288
1,36,90,178
1,36,118,56
1,36,99,14
1,34,127,128
1,31,118,384
1,31,90,10
1,31,107,48
1,31,118,96
1,31,107,14
1,29,99,556
1,29,90,288
1,29,83,182
1,29,99,72
1,29,90,8
1,34,118,592
1,34,99,288
1,34,88,190
1,34,90,64
1,34,127,6
1,35,118,188
1,36,99,20
1,36,107,288
1,36,90,178
1,36,118,56
1,36,99,14
1,34,127,128
1,31,118,384
1,31,90,10
1,31,107,48
1,31,118,96
1,31,107,14
1,29,99,556
1,29,90,288
1,29,83,182
1,29,99,72
1,29,90,8
1,34,118,592
1,34,99,288
1,34,88,190
1,34,90,64
1,34,127,6
1,35,118,188
1,36,107,20
1,36,107,18
1,36,90,88
1,36,99,72
1,36,107,20
1,35,118,170
1,33,118,102
1,33,99,34
1,33,90,80
1,33,90,96
1,33,107,12
1,29,107,536
1,29,90,30
1,29,88,96
1,29,90,88
1,29,99,18
1,31,107,542
1,31,83,36
1,31,90,96
1,31,99,96
1,31,107,14
1,36,107,598
1,36,107,18
1,36,90,88
1,36,99,72
1,36,107,20
1,35,118,170
1,33,118,102
1,33,99,34
1,33,90,80
1,33,90,96
1,33,107,12
1,29,107,536
1,29,90,30
1,29,88,96
1,29,90,88
1,29,99,18
1,31,107,542
1,31,83,36
1,31,90,96
1,31,99,96
1,31,107,14
1,36,99,598
1,36,99,50
1,36,99,94
1,36,107,80
1,36,99,18
1,35,90,552
1,35,99,30
1,35,90,92
1,35,83,62
1,35,99,26
1,34,90,538
1,34,99,4
1,34,90,94
1,34,88,94
1,34,118,24
1,33,99,556
1,33,90,26
1,33,83,86
1,33,90,102
1,33,90,10
1,36,99,606
1,36,99,50
1,36,99,94
1,36,107,80
1,36,99,18
1,35,90,552
1,35,99,30
1,35,90,92
1,35,83,62
1,35,99,26
1,34,90,538
1,34,99,4
1,34,90,94
1,34,88,94
1,34,118,24
1,33,99,556
1,33,90,26
1,33,83,86
1,33,90,102
1,33,90,10
1,29,107,606
1,29,90,32
1,29,107,100
1,29,99,72
1,29,99,8
1,34,127,536
1,34,90,16
1,34,90,74
1,34,90,82
1,34,127,8
1,35,127,228
1,33,127,88
1,33,127,136
1,29,90,150
1,29,107,22
1,29,90,108
1,29,90,80
1,29,107,32
1,34,127,426
1,34,107,24
1,34,99,84
1,34,99,94
1,34,127,26
1,35,127,216
1,36,99,62
1,36,107,288
1,36,90,178
1,36,118,56
1,36,99,14
1,34,127,128
1,31,118,384
1,31,90,10
1,31,107,48
1,31,118,96
1,31,107,14
1,29,99,556
1,29,90,288
1,29,83,182
1,29,99,72
1,29,90,8
1,34,118,592
1,34,99,288
1,34,88,190
1,34,90,64
1,34,127,6
1,35,118,188
1,36,99,20
1,36,107,288
1,36,90,178
1,36,118,56
1,36,99,14
1,34,127,128
1,31,118,384
1,31,90,10
1,31,107,48
1,31,118,96
1,31,107,14
1,29,99,556
1,29,90,288
1,29,83,182
1,29,99,72
1,29,90,8
1,34,118,592
1,34,99,288
1,34,88,190
1,34,90,64
1,34,127,6
1,35,118,188
1,36,107,20
1,36,107,18
1,36,90,88
1,36,99,72
1,36,107,20
1,35,118,170
1,33,118,102
1,33,99,34
1,33,90,80
1,33,90,96
1,33,107,12
1,29,107,536
1,29,90,30
1,29,88,96
1,29,90,88
1,29,99,18
1,31,107,542
1,31,83,36
1,31,90,96
1,31,99,96
1,31,107,14
1,36,107,598
1,36,107,18
1,36,90,88
1,36,99,72
1,36,107,20
1,35,118,170
1,33,118,102
1,33,99,34
1,33,90,80
1,33,90,96
1,33,107,12
1,29,107,536
1,29,90,30
1,29,88,96
1,29,90,88
1,29,99,18
1,31,107,542
1,31,83,36
1,31,90,96
1,31,99,96
1,31,107,14
1,36,99,598
1,36,99,50
1,36,99,94
1,36,107,80
1,36,99,18
1,35,90,552
1,35,99,30
1,35,90,92
1,35,83,62
1,35,99,26
1,34,90,538
1,34,99,4
1,34,90,94
1,34,88,94
1,34,118,24
1,33,99,556
1,33,90,26
1,33,83,86
1,33,90,102
1,33,90,10
1,36,99,606
1,36,99,50
1,36,99,94
1,36,107,80
1,36,99,18
1,35,90,552
1,35,99,30
1,35,90,92
1,35,83,62
1,35,99,26
1,34,90,538
1,34,99,4
1,34,90,94
1,34,88,94
1,34,118,24
1,33,99,556
1,33,90,26
1,33,83,86
1,33,90,102
1,33,90,10
1,36,99,606
1,36,99,50
1,36,99,94
1,36,107,80
1,36,99,18
1,35,90,552
1,35,99,30
1,35,90,92
1,35,83,62
1,35,99,26
1,34,90,538
1,34,99,4
1,34,90,94
1,34,88,94
1,34,118,24
1,33,99,556
1,33,90,26
1,33,83,86
1,33,90,102
1,33,90,10
1,36,99,606
1,36,99,50
1,36,99,94
1,36,107,80
1,36,99,18
1,35,90,552
1,35,99,30
1,35,90,92
1,35,83,62
1,35,99,26
1,34,90,538
1,34,99,4
1,34,90,94
1,34,88,94
1,34,118,24
1,33,99,556
1,33,90,26
1,33,83,86
1,33,90,102
1,33,90,10
1,36,99,606
1,36,99,50
1,36,99,94
1,36,107,80
1,36,99,18
1,35,90,552
1,35,99,30
1,35,90,92
1,35,83,62
1,35,99,26
1,34,90,538
1,34,99,4
1,34,90,94
1,34,88,94
1,34,118,24
1,33,99,556
1,33,90,26
1,33,83,86
1,33,90,102
1,33,90,10
1,36,99,606
1,36,99,50
1,36,99,94
1,36,107,80
1,36,99,18
1,35,90,552
1,35,99,30
1,35,90,92
1,35,83,62
1,35,99,26
1,34,90,538
1,34,99,4
1,34,90,94
1,34,88,94
1,34,118,24
1,33,99,556
1,33,90,26
1,33,83,86
1,33,90,102
1,33,90,10
1,36,99,606
1,36,99,50
1,36,99,94
1,36,107,80
1,36,99,18
1,35,90,552
1,35,99,30
1,35,90,92
1,35,83,62
1,35,99,26
1,34,90,538
1,34,99,4
1,34,90,94
1,34,88,94
1,34,118,24
1,33,99,556
1,33,90,26
1,33,83,86
1,33,90,102
1,33,90,10
1,36,99,606
1,36,99,50
1,36,99,94
1,36,107,80
1,36,99,18
1,35,90,552
1,35,99,30
1,35,90,92
1,35,83,62
1,35,99,26
1,34,90,538
1,34,99,4
1,34,90,94
1,34,88,94
1,34,118,24
1,33,99,556
1,33,90,26
1,33,83,86
1,33,90,102
1,33,90,10
1,29,118,606
1,29,90,60
1,29,88,90
1,29,71,106
1,29,90,54
1,34,118,88
1,35,99,1152
1,36,107,24
2,48,90,1152
2,60,86,0
2,63,94,0
2,67,99,0
2,67,90,412
2,75,86,0
2,70,99,0
2,74,76,4
2,67,90,0
2,70,94,0
2,55,86,0
2,72,99,680
2,68,101,28
2,53,86,0
2,65,94,0
2,72,90,0
2,63,99,960
2,65,79,288
2,53,61,240
2,60,76,0
2,67,76,0
2,63,76,0
2,59,99,72
2,63,82,0
2,68,99,0
2,65,94,0
2,48,90,384
2,60,86,0
2,63,94,0
2,67,99,0
2,74,76,268
2,67,90,0
2,70,94,0
2,55,86,0
2,68,101,128
2,53,86,0
2,65,94,0
2,72,90,0
2,53,61,240
2,60,76,0
2,67,76,0
2,63,76,0
2,59,99,72
2,63,82,0
2,68,99,0
2,65,94,0
2,67,94,384
2,60,94,0
2,63,101,0
2,55,73,40
2,62,79,0
2,58,86,0
2,53,79,32
2,60,99,0
2,56,99,0
2,56,82,50
2,60,110,0
2,63,90,0
2,59,86,100
2,70,94,0
2,63,90,0
2,65,94,0
2,67,94,2
2,60,94,0
2,63,101,0
2,55,73,40
2,62,79,0
2,58,86,0
2,53,79,32
2,60,99,0
2,56,99,0
2,56,82,50
2,60,110,0
2,63,90,0
2,59,86,100
2,63,90,0
2,65,94,0
2,60,99,2
2,64,99,0
2,67,101,0
2,62,110,0
2,84,79,672
2,79,59,0
2,88,70,16
2,57,73,82
2,60,94,0
2,45,73,0
2,64,86,0
2,69,110,166
2,74,79,54
2,72,76,288
2,41,70,0
2,57,79,0
2,64,99,0
2,60,99,0
2,43,79,358
2,57,82,0
2,53,79,0
2,60,94,0
2,67,118,228
2,55,86,384
2,59,90,0
2,62,90,0
2,60,99,60
2,64,99,0
2,67,101,0
2,62,110,0
2,79,59,672
2,57,73,658
2,60,94,0
2,45,73,0
2,64,86,0
2,69,110,166
2,74,79,54
2,72,76,288
2,41,70,0
2,57,79,0
2,64,99,0
2,60,99,0
2,43,79,358
2,57,82,0
2,53,79,0
2,60,94,0
2,67,118,228
2,55,86,384
2,59,90,0
2,62,90,0
2,79,79,60
2,72,76,0
2,60,94,0
2,67,101,0
2,63,94,0
2,71,94,136
2,59,90,0
2,79,76,0
2,63,110,0
2,67,99,0
2,70,99,180
2,67,86,0
2,79,82,0
2,58,86,0
2,63,86,0
2,69,82,130
2,57,76,0
2,79,70,0
2,63,110,0
2,67,86,0
2,79,79,116
2,72,76,0
2,60,94,0
2,67,101,0
2,63,94,0
2,71,94,136
2,59,90,0
2,79,76,0
2,63,110,0
2,67,99,0
2,70,99,180
2,67,86,0
2,58,86,0
2,63,86,0
2,68,127,438
2,69,94,4
2,77,99,8
2,69,82,0
2,57,76,0
2,63,110,0
2,67,86,0
2,65,118,296
2,74,99,0
2,64,118,30
2,73,99,0
2,63,110,2
2,72,86,0
2,53,82,116
2,68,90,0
2,60,86,0
2,65,90,0
2,72,86,0
2,60,127,194
2,46,82,0
2,63,101,0
2,56,99,0
2,48,90,446
2,60,86,0
2,63,94,0
2,67,99,0
2,74,76,268
2,67,90,0
2,70,94,0
2,55,86,0
2,68,101,128
2,53,86,0
2,65,94,0
2,72,90,0
2,53,61,240
2,60,76,0
2,67,76,0
2,63,76,0
2,59,99,72
2,63,82,0
2,68,99,0
2,65,94,0
2,67,94,384
2,60,94,0
2,63,101,0
2,55,73,40
2,62,79,0
2,58,86,0
2,53,79,32
2,60,99,0
2,56,99,0
2,56,82,50
2,60,110,0
2,63,90,0
2,59,86,100
2,70,94,0
2,63,90,0
2,65,94,0
2,67,94,2
2,60,94,0
2,63,101,0
2,55,73,40
2,62,79,0
2,58,86,0
2,53,79,32
2,60,99,0
2,56,99,0
2,56,82,50
2,60,110,0
2,63,90,0
2,59,86,100
2,63,90,0
2,65,94,0
2,60,99,2
2,64,99,0
2,67,101,0
2,62,110,0
2,84,79,672
2,79,59,0
2,88,70,16
2,57,73,82
2,60,94,0
2,45,73,0
2,64,86,0
2,69,110,166
2,74,79,54
2,72,76,288
2,41,70,0
2,57,79,0
2,64,99,0
2,60,99,0
2,43,79,358
2,57,82,0
2,53,79,0
2,60,94,0
2,67,118,228
2,55,86,384
2,59,90,0
2,62,90,0
2,60,99,60
2,64,99,0
2,67,101,0
2,62,110,0
2,79,59,672
2,57,73,658
2,60,94,0
2,45,73,0
2,64,86,0
2,69,110,166
2,74,79,54
2,72,76,288
2,41,70,0
2,57,79,0
2,64,99,0
2,60,99,0
2,43,79,358
2,57,82,0
2,53,79,0
2,60,94,0
2,67,118,228
2,55,86,384
2,59,90,0
2,62,90,0
2,79,79,60
2,72,76,0
2,60,94,0
2,67,101,0
2,63,94,0
2,71,94,136
2,59,90,0
2,79,76,0
2,63,110,0
2,67,99,0
2,70,99,180
2,67,86,0
2,79,82,0
2,58,86,0
2,63,86,0
2,69,82,130
2,57,76,0
2,79,70,0
2,63,110,0
2,67,86,0
2,79,79,116
2,72,76,0
2,60,94,0
2,67,101,0
2,63,94,0
2,71,94,136
2,59,90,0
2,79,76,0
2,63,110,0
2,67,99,0
2,70,99,180
2,67,86,0
2,58,86,0
2,63,86,0
2,68,127,438
2,69,94,4
2,77,99,8
2,69,82,0
2,57,76,0
2,63,110,0
2,67,86,0
2,65,118,296
2,74,99,0
2,64,118,30
2,73,99,0
2,63,110,2
2,72,86,0
2,53,82,116
2,68,90,0
2,60,86,0
2,65,90,0
2,72,86,0
2,60,127,194
2,46,82,0
2,63,101,0
2,56,99,0
2,57,118,446
2,60,101,0
2,67,110,0
2,63,110,0
2,60,110,62
2,63,127,0
2,57,118,0
2,67,118,0
2,56,99,60
2,60,127,0
2,63,118,0
2,59,101,2
2,65,110,0
2,63,99,0
2,68,118,0
2,67,94,12
2,60,94,0
2,63,101,0
2,55,73,40
2,62,79,0
2,58,86,0
2,53,79,32
2,60,99,0
2,56,99,0
2,56,82,50
2,60,110,0
2,63,90,0
2,59,86,100
2,70,94,0
2,63,90,0
2,65,94,0
2,67,94,2
2,60,94,0
2,63,101,0
2,55,73,40
2,62,79,0
2,58,86,0
2,53,79,32
2,60,99,0
2,56,99,0
2,56,82,50
2,60,110,0
2,63,90,0
2,59,86,100
2,63,90,0
2,65,94,0
2,60,99,2
2,64,99,0
2,67,101,0
2,62,110,0
2,84,79,672
2,79,59,0
2,88,70,16
