track,note,velocity,time
1,61,84,1532
1,59,84,0
1,56,84,0
1,61,84,120
1,59,84,0
1,56,84,0
1,61,84,128
1,56,84,0
1,59,84,0
1,61,84,128
1,56,84,0
1,59,84,0
1,61,84,128
1,59,84,0
1,56,84,0
1,61,84,128
1,56,84,0
1,59,84,0
1,56,84,116
1,59,84,0
1,61,84,0
1,61,84,128
1,59,84,0
1,56,84,0
1,58,84,128
1,61,84,0
1,56,84,0
1,58,84,128
1,61,84,0
1,56,84,0
1,58,84,128
1,56,84,0
1,61,84,0
1,58,84,128
1,56,84,0
1,61,84,0
1,58,84,128
1,61,84,0
1,56,84,0
1,58,84,128
1,61,84,0
1,56,84,0
1,58,84,136
1,61,84,0
1,56,84,0
1,58,84,132
1,61,84,0
1,56,84,0
1,56,84,128
1,61,84,0
1,59,84,0
1,56,84,128
1,59,84,0
1,61,84,0
1,56,84,128
1,61,84,0
1,59,84,0
1,56,84,128
1,61,84,0
1,59,84,0
1,56,84,120
1,61,84,0
1,59,84,0
1,56,84,128
1,61,84,0
1,59,84,0
1,56,84,116
1,61,84,0
1,59,84,0
1,61,84,128
1,56,84,0
1,59,84,0
1,61,84,112
1,58,84,0
1,56,84,0
1,58,84,128
1,61,84,0
1,56,84,0
1,61,84,128
1,56,84,0
1,58,84,0
1,58,84,128
1,61,84,0
1,56,84,0
1,61,84,116
1,56,84,0
1,58,84,0
1,61,84,120
1,58,84,0
1,56,84,0
1,56,84,116
1,61,84,0
1,58,84,0
1,61,84,128
1,58,84,0
1,56,84,0
1,56,84,128
1,61,84,0
1,59,84,0
1,61,84,112
1,56,84,0
1,59,84,0
1,61,84,116
1,56,84,0
1,59,84,0
1,56,84,120
1,61,84,0
1,59,84,0
1,56,84,112
1,61,84,0
1,59,84,0
1,56,84,112
1,61,84,0
1,59,84,0
1,56,84,112
1,61,84,0
1,59,84,0
1,61,84,112
1,56,84,0
1,59,84,0
1,61,84,112
1,58,84,0
1,56,84,0
1,58,84,128
1,61,84,0
1,56,84,0
1,61,84,128
1,56,84,0
1,58,84,0
1,58,84,112
1,56,84,0
1,61,84,0
1,61,84,128
1,56,84,0
1,58,84,0
1,58,84,120
1,61,84,0
1,56,84,0
1,56,84,128
1,61,84,0
1,58,84,0
1,56,84,128
1,61,84,0
1,58,84,0
1,56,84,120
1,61,84,0
1,59,84,0
1,61,84,112
1,56,84,0
1,59,84,0
1,61,84,116
1,56,84,0
1,59,84,0
1,61,84,112
1,56,84,0
1,59,84,0
1,61,84,112
1,56,84,0
1,59,84,0
1,61,84,112
1,56,84,0
1,59,84,0
1,56,84,112
1,61,84,0
1,59,84,0
1,61,84,112
1,59,84,0
1,56,84,0
1,61,84,100
1,58,84,0
1,56,84,0
1,61,84,128
1,58,84,0
1,56,84,0
1,61,84,120
1,58,84,0
1,56,84,0
1,61,84,116
1,58,84,0
1,56,84,0
1,56,84,112
1,58,84,0
1,61,84,0
1,56,84,128
1,61,84,0
1,58,84,0
1,56,84,116
1,61,84,0
1,58,84,0
1,61,84,128
1,56,84,0
1,58,84,0
1,61,84,128
1,59,84,0
1,56,84,0
1,61,84,116
1,59,84,0
1,56,84,0
1,61,84,128
1,56,84,0
1,59,84,0
1,61,84,128
1,56,84,0
1,59,84,0
1,61,84,128
1,59,84,0
1,56,84,0
1,61,84,128
1,56,84,0
1,59,84,0
1,56,84,120
1,59,84,0
1,61,84,0
1,61,84,128
1,59,84,0
1,56,84,0
1,58,84,128
1,61,84,0
1,56,84,0
1,58,84,128
1,61,84,0
1,56,84,0
1,58,84,128
1,56,84,0
1,61,84,0
1,58,84,128
1,56,84,0
1,61,84,0
1,58,84,128
1,61,84,0
1,56,84,0
1,58,84,128
1,61,84,0
1,56,84,0
1,58,84,136
1,61,84,0
1,56,84,0
1,58,84,136
1,61,84,0
1,56,84,0
1,56,84,128
1,61,84,0
1,59,84,0
1,56,84,128
1,59,84,0
1,61,84,0
1,56,84,128
1,61,84,0
1,59,84,0
1,56,84,128
1,61,84,0
1,59,84,0
1,56,84,116
1,61,84,0
1,59,84,0
1,56,84,128
1,61,84,0
1,59,84,0
1,56,84,120
1,61,84,0
1,59,84,0
1,61,84,128
1,56,84,0
1,59,84,0
1,61,84,112
1,58,84,0
1,56,84,0
1,58,84,128
1,61,84,0
1,56,84,0
1,61,84,128
1,56,84,0
1,58,84,0
1,58,84,128
1,61,84,0
1,56,84,0
1,61,84,120
1,56,84,0
1,58,84,0
1,61,84,116
1,58,84,0
1,56,84,0
1,56,84,116
1,61,84,0
1,58,84,0
1,61,84,128
1,58,84,0
1,56,84,0
1,56,84,128
1,61,84,0
1,59,84,0
1,61,84,112
1,56,84,0
1,59,84,0
1,61,84,120
1,56,84,0
1,59,84,0
1,56,84,116
1,61,84,0
1,59,84,0
1,56,84,112
1,61,84,0
1,59,84,0
1,56,84,112
1,61,84,0
1,59,84,0
1,56,84,112
1,61,84,0
1,59,84,0
1,61,84,112
1,56,84,0
1,59,84,0
1,61,84,112
1,58,84,0
1,56,84,0
1,58,84,128
1,61,84,0
1,56,84,0
1,61,84,128
1,56,84,0
1,58,84,0
1,58,84,112
1,56,84,0
1,61,84,0
1,61,84,128
1,56,84,0
1,58,84,0
1,58,84,116
1,61,84,0
1,56,84,0
1,56,84,128
1,61,84,0
1,58,84,0
1,56,84,128
1,61,84,0
1,58,84,0
1,56,84,116
1,61,84,0
1,59,84,0
1,61,84,112
1,56,84,0
1,59,84,0
1,61,84,120
1,56,84,0
1,59,84,0
1,61,84,112
1,56,84,0
1,59,84,0
1,61,84,112
1,56,84,0
1,59,84,0
1,61,84,112
1,56,84,0
1,59,84,0
1,56,84,112
1,61,84,0
1,59,84,0
1,61,84,112
1,59,84,0
1,56,84,0
1,61,84,104
1,58,84,0
1,56,84,0
1,61,84,128
1,58,84,0
1,56,84,0
1,61,84,116
1,58,84,0
1,56,84,0
1,61,84,120
1,58,84,0
1,56,84,0
1,56,84,112
1,58,84,0
1,61,84,0
1,56,84,128
1,61,84,0
1,58,84,0
1,56,84,120
1,61,84,0
1,58,84,0
1,61,84,128
1,56,84,0
1,58,84,0
1,61,84,128
1,59,84,0
1,56,84,0
1,61,84,116
1,59,84,0
1,56,84,0
1,61,84,128
1,56,84,0
1,59,84,0
1,61,84,128
1,56,84,0
1,59,84,0
1,61,84,128
1,59,84,0
1,56,84,0
1,61,84,128
1,56,84,0
1,59,84,0
1,56,84,116
1,59,84,0
1,61,84,0
1,61,84,128
1,59,84,0
1,56,84,0
1,58,84,128
1,61,84,0
1,56,84,0
1,58,84,128
1,61,84,0
1,56,84,0
1,58,84,128
1,56,84,0
1,61,84,0
1,58,84,128
1,56,84,0
1,61,84,0
1,58,84,128
1,61,84,0
1,56,84,0
1,58,84,128
1,61,84,0
1,56,84,0
1,58,84,136
1,61,84,0
1,56,84,0
1,58,84,136
1,61,84,0
1,56,84,0
1,56,84,128
1,61,84,0
1,59,84,0
1,56,84,128
1,59,84,0
1,61,84,0
1,56,84,128
1,61,84,0
1,59,84,0
1,56,84,128
1,61,84,0
1,59,84,0
1,56,84,120
1,61,84,0
1,59,84,0
1,56,84,128
1,61,84,0
1,59,84,0
1,56,84,116
1,61,84,0
1,59,84,0
1,61,84,128
1,56,84,0
1,59,84,0
1,61,84,112
1,58,84,0
1,56,84,0
1,58,84,128
1,61,84,0
1,56,84,0
1,61,84,128
1,56,84,0
1,58,84,0
1,58,84,128
1,61,84,0
1,56,84,0
1,61,84,116
1,56,84,0
1,58,84,0
1,61,84,116
1,58,84,0
1,56,84,0
1,56,84,120
1,61,84,0
1,58,84,0
1,61,84,128
1,58,84,0
1,56,84,0
1,56,84,128
1,61,84,0
1,59,84,0
1,61,84,112
1,56,84,0
1,59,84,0
1,61,84,116
1,56,84,0
1,59,84,0
1,56,84,116
1,61,84,0
1,59,84,0
1,56,84,112
1,61,84,0
1,59,84,0
1,56,84,112
1,61,84,0
1,59,84,0
1,56,84,112
1,61,84,0
1,59,84,0
1,61,84,112
1,56,84,0
1,59,84,0
1,61,84,112
1,58,84,0
1,56,84,0
1,58,84,128
1,61,84,0
1,56,84,0
1,61,84,128
1,56,84,0
1,58,84,0
1,58,84,112
1,56,84,0
1,61,84,0
1,61,84,128
1,56,84,0
1,58,84,0
1,58,84,120
1,61,84,0
1,56,84,0
1,56,84,128
1,61,84,0
1,58,84,0
1,56,84,128
1,61,84,0
1,58,84,0
1,56,84,116
1,61,84,0
1,59,84,0
1,61,84,112
1,56,84,0
1,59,84,0
1,61,84,116
1,56,84,0
1,59,84,0
1,61,84,112
1,56,84,0
1,59,84,0
1,61,84,112
1,56,84,0
1,59,84,0
1,61,84,112
1,56,84,0
1,59,84,0
1,56,84,112
1,61,84,0
1,59,84,0
1,61,84,112
1,59,84,0
1,56,84,0
1,61,84,100
1,58,84,0
1,56,84,0
1,61,84,128
1,58,84,0
1,56,84,0
1,61,84,120
1,58,84,0
1,56,84,0
1,61,84,116
1,58,84,0
1,56,84,0
1,56,84,112
1,58,84,0
1,61,84,0
1,56,84,128
1,61,84,0
1,58,84,0
1,56,84,116
1,61,84,0
1,58,84,0
1,61,84,128
1,56,84,0
1,58,84,0
1,61,84,128
1,59,84,0
1,56,84,0
1,61,84,120
1,59,84,0
1,56,84,0
1,61,84,128
1,56,84,0
1,59,84,0
1,61,84,128
1,56,84,0
1,59,84,0
1,61,84,128
1,59,84,0
1,56,84,0
1,61,84,128
1,56,84,0
1,59,84,0
1,56,84,116
1,59,84,0
1,61,84,0
1,61,84,128
1,59,84,0
1,56,84,0
1,58,84,128
1,61,84,0
1,56,84,0
1,58,84,128
1,61,84,0
1,56,84,0
1,58,84,128
1,56,84,0
1,61,84,0
1,58,84,128
1,56,84,0
1,61,84,0
1,58,84,128
1,61,84,0
1,56,84,0
1,58,84,128
1,61,84,0
1,56,84,0
1,58,84,136
1,61,84,0
1,56,84,0
1,58,84,132
1,61,84,0
1,56,84,0
1,56,84,128
1,61,84,0
1,59,84,0
1,56,84,128
1,59,84,0
1,61,84,0
1,56,84,128
1,61,84,0
1,59,84,0
1,56,84,128
1,61,84,0
1,59,84,0
1,56,84,116
1,61,84,0
1,59,84,0
1,56,84,128
1,61,84,0
1,59,84,0
1,56,84,120
1,61,84,0
1,59,84,0
1,61,84,128
1,56,84,0
1,59,84,0
1,61,84,112
1,58,84,0
1,56,84,0
1,58,84,128
1,61,84,0
1,56,84,0
1,61,84,128
1,56,84,0
1,58,84,0
1,58,84,128
1,61,84,0
1,56,84,0
1,61,84,116
1,56,84,0
1,58,84,0
1,61,84,120
1,58,84,0
1,56,84,0
1,56,84,116
1,61,84,0
1,58,84,0
1,61,84,128
1,58,84,0
1,56,84,0
1,56,84,128
1,61,84,0
1,59,84,0
1,61,84,112
1,56,84,0
1,59,84,0
1,61,84,116
1,56,84,0
1,59,84,0
1,56,84,120
1,61,84,0
1,59,84,0
1,56,84,112
1,61,84,0
1,59,84,0
1,56,84,112
1,61,84,0
1,59,84,0
1,56,84,112
1,61,84,0
1,59,84,0
1,61,84,112
1,56,84,0
1,59,84,0
1,61,84,112
1,58,84,0
1,56,84,0
1,58,84,128
1,61,84,0
1,56,84,0
1,61,84,128
1,56,84,0
1,58,84,0
1,58,84,112
1,56,84,0
1,61,84,0
1,61,84,128
1,56,84,0
1,58,84,0
1,58,84,120
1,61,84,0
1,56,84,0
1,56,84,128
1,61,84,0
1,58,84,0
1,56,84,128
1,61,84,0
1,58,84,0
1,56,84,120
1,61,84,0
1,59,84,0
1,61,84,112
1,56,84,0
1,59,84,0
1,61,84,116
1,56,84,0
1,59,84,0
1,61,84,112
1,56,84,0
1,59,84,0
1,61,84,112
1,56,84,0
1,59,84,0
1,61,84,112
1,56,84,0
1,59,84,0
1,56,84,112
1,61,84,0
1,59,84,0
1,61,84,112
1,59,84,0
1,56,84,0
1,61,84,104
1,58,84,0
1,56,84,0
1,61,84,128
1,58,84,0
1,56,84,0
1,61,84,120
1,58,84,0
1,56,84,0
1,61,84,116
1,58,84,0
1,56,84,0
1,56,84,112
1,58,84,0
1,61,84,0
1,56,84,128
1,61,84,0
1,58,84,0
1,56,84,116
1,61,84,0
1,58,84,0
1,61,84,128
1,56,84,0
1,58,84,0
1,61,84,128
1,59,84,0
1,56,84,0
1,61,84,116
1,59,84,0
1,56,84,0
1,61,84,128
1,56,84,0
1,59,84,0
1,61,84,128
1,56,84,0
1,59,84,0
1,61,84,128
1,59,84,0
1,56,84,0
1,61,84,128
1,56,84,0
1,59,84,0
1,56,84,120
1,59,84,0
1,61,84,0
1,61,84,128
1,59,84,0
1,56,84,0
1,58,84,128
1,61,84,0
1,56,84,0
1,58,84,128
1,61,84,0
1,56,84,0
1,58,84,128
1,56,84,0
1,61,84,0
1,58,84,128
1,56,84,0
1,61,84,0
1,58,84,128
1,61,84,0
1,56,84,0
1,58,84,128
1,61,84,0
1,56,84,0
1,58,84,132
1,61,84,0
1,56,84,0
1,58,84,136
1,61,84,0
1,56,84,0
1,56,84,128
1,61,84,0
1,59,84,0
1,56,84,128
1,59,84,0
1,61,84,0
1,56,84,128
1,61,84,0
1,59,84,0
1,56,84,128
1,61,84,0
1,59,84,0
1,56,84,116
1,61,84,0
1,59,84,0
1,56,84,128
1,61,84,0
1,59,84,0
1,56,84,120
1,61,84,0
1,59,84,0
1,61,84,128
1,56,84,0
1,59,84,0
1,61,84,112
1,58,84,0
1,56,84,0
1,58,84,128
1,61,84,0
1,56,84,0
1,61,84,128
1,56,84,0
1,58,84,0
1,58,84,128
1,61,84,0
1,56,84,0
1,61,84,120
1,56,84,0
1,58,84,0
1,61,84,116
1,58,84,0
1,56,84,0
1,56,84,116
1,61,84,0
1,58,84,0
1,61,84,128
1,58,84,0
1,56,84,0
1,56,84,128
1,61,84,0
1,59,84,0
1,61,84,112
1,56,84,0
1,59,84,0
1,61,84,120
1,56,84,0
1,59,84,0
1,56,84,116
1,61,84,0
1,59,84,0
1,56,84,112
1,61,84,0
1,59,84,0
1,56,84,112
1,61,84,0
1,59,84,0
1,56,84,112
1,61,84,0
1,59,84,0
1,61,84,112
1,56,84,0
1,59,84,0
1,61,84,112
1,58,84,0
1,56,84,0
1,58,84,128
1,61,84,0
1,56,84,0
1,61,84,128
1,56,84,0
1,58,84,0
1,58,84,112
1,56,84,0
1,61,84,0
1,61,84,128
1,56,84,0
1,58,84,0
1,58,84,116
1,61,84,0
1,56,84,0
1,56,84,128
1,61,84,0
1,58,84,0
1,56,84,128
1,61,84,0
1,58,84,0
1,56,84,116
1,61,84,0
1,59,84,0
1,61,84,112
1,56,84,0
1,59,84,0
1,61,84,120
1,56,84,0
1,59,84,0
1,61,84,112
1,56,84,0
1,59,84,0
1,61,84,112
1,56,84,0
1,59,84,0
1,61,84,112
1,56,84,0
1,59,84,0
1,56,84,112
1,61,84,0
1,59,84,0
1,61,84,112
1,59,84,0
1,56,84,0
1,61,84,100
1,58,84,0
1,56,84,0
1,61,84,128
1,58,84,0
1,56,84,0
1,61,84,116
1,58,84,0
1,56,84,0
1,61,84,120
1,58,84,0
1,56,84,0
1,56,84,112
1,58,84,0
1,61,84,0
1,56,84,128
1,61,84,0
1,58,84,0
1,56,84,120
1,61,84,0
1,58,84,0
1,61,84,128
1,56,84,0
1,58,84,0
1,64,60,128
1,67,60,0
1,71,60,0
1,60,62,0
1,64,55,448
1,60,57,0
1,67,55,0
1,71,53,0
1,64,55,224
1,60,57,0
1,67,58,0
1,71,46,0
1,57,61,0
1,60,53,0
1,64,57,0
1,67,64,0
1,71,55,0
1,67,85,324
1,64,82,0
1,71,91,0
1,74,89,0
1,64,60,572
1,71,62,0
1,67,64,0
1,60,53,0
1,71,49,352
1,60,43,0
1,64,46,0
1,67,52,0
1,57,61,196
1,64,70,0
1,60,62,0
1,67,63,4
1,71,54,0
1,60,60,0
1,64,59,0
1,57,60,0
1,67,63,0
1,71,59,0
1,64,82,288
