track,note,velocity,time
1,79,60,0
1,79,0,120
1,74,57,120
1,74,0,120
1,75,60,120
1,75,0,120
1,79,57,120
1,79,0,120
1,78,64,120
1,78,0,120
1,81,59,120
1,81,0,120
1,79,64,120
1,79,0,80
1,81,54,0
1,81,0,80
1,79,54,0
1,79,0,80
1,78,58,0
1,78,0,120
1,79,63,120
1,79,0,120
1,82,60,120
1,82,0,120
1,81,63,120
1,74,63,0
1,74,0,120
1,81,0,0
1,84,60,120
1,84,0,120
1,82,64,120
1,82,0,120
1,89,63,120
1,80,63,0
1,86,63,0
1,86,0,120
1,80,0,0
1,89,0,0
1,88,61,120
1,79,61,0
1,84,61,0
1,84,0,120
1,79,0,0
1,88,0,0
1,78,60,120
1,87,60,0
1,84,60,0
1,84,0,120
1,87,0,0
1,78,0,0
1,79,58,120
1,86,58,0
1,86,0,120
1,79,0,0
1,74,57,120
1,81,57,0
1,84,57,0
1,84,0,120
1,81,0,0
1,74,0,0
1,79,59,120
1,74,59,0
1,82,65,0
1,82,0,240
1,74,0,0
1,79,0,0
1,71,60,0
1,80,60,0
1,80,0,240
1,71,0,0
1,79,57,0
1,72,57,0
1,72,0,240
1,73,60,0
1,73,0,240
1,74,62,0
1,74,0,240
1,79,0,0
1,79,67,0
1,75,67,0
1,82,67,0
1,82,0,240
1,75,0,0
1,79,0,0
1,79,70,0
1,70,70,0
1,74,70,0
1,82,70,0
1,82,0,960
1,79,0,0
1,70,0,0
1,74,0,0
1,70,67,0
1,74,67,0
1,74,0,480
1,70,0,0
1,72,61,0
1,69,61,0
1,69,0,120
1,72,0,0
1,72,64,120
1,75,64,0
1,75,0,120
1,72,0,0
1,77,69,120
1,81,69,0
1,81,0,240
1,77,0,0
1,74,70,240
1,77,70,0
1,77,0,120
1,74,0,0
1,70,65,120
1,74,65,0
1,74,0,120
1,70,0,0
1,70,68,120
1,67,68,0
1,67,0,120
1,70,0,0
1,79,63,120
1,75,63,0
1,75,0,120
1,79,0,0
1,75,67,120
1,72,67,0
1,72,0,120
1,75,0,0
1,69,63,120
1,72,63,0
1,72,0,120
1,69,0,0
1,69,67,120
1,66,67,0
1,66,0,120
1,69,0,0
1,74,64,120
1,77,64,0
1,77,0,120
1,74,0,0
1,70,70,120
1,74,70,0
1,74,0,120
1,70,0,0
1,67,66,120
1,70,66,0
1,70,0,120
1,67,0,0
1,63,69,120
1,67,69,0
1,67,0,240
1,70,63,0
1,70,0,240
1,63,0,0
1,66,56,0
1,69,65,0
1,60,55,0
1,69,0,240
1,74,56,0
1,74,0,240
1,60,0,0
1,66,0,0
1,74,68,0
1,74,0,1440
1,72,64,240
1,72,0,80
1,74,61,0
1,74,0,80
1,72,61,0
1,72,0,80
1,71,64,0
1,71,0,240
1,72,61,0
1,72,0,240
1,74,64,0
1,74,0,240
1,75,62,0
1,75,0,240
1,70,61,0
1,67,61,0
1,67,0,240
1,70,0,0
1,72,63,0
1,72,0,240
1,73,66,0
1,73,0,240
1,74,69,0
1,74,0,240
1,79,70,0
1,79,0,240
1,74,66,0
1,74,0,240
1,70,68,0
1,66,68,0
1,66,0,960
1,70,0,0
1,69,68,0
1,69,0,420
1,67,55,0
1,74,56,30
1,79,60,30
1,79,0,240
1,74,0,0
1,67,0,0
1,74,57,0
1,74,0,120
1,75,60,120
1,75,0,120
1,79,57,120
1,79,0,120
1,78,64,120
1,78,0,120
1,81,59,120
1,81,0,120
1,79,64,120
1,79,0,80
1,81,54,0
1,81,0,80
1,79,54,0
1,79,0,80
1,78,59,0
1,78,0,120
1,79,66,120
1,79,0,120
1,82,64,120
1,82,0,120
1,81,69,120
1,74,61,0
1,74,0,120
1,81,0,0
1,86,71,120
1,86,0,120
1,77,68,120
1,77,0,960
1,75,68,0
1,75,0,480
1,74,64,0
1,74,0,80
1,75,55,0
1,75,0,80
1,74,55,0
1,74,0,80
1,72,59,0
1,72,0,240
1,71,64,0
1,71,0,240
1,72,58,0
1,72,0,240
1,74,64,0
1,74,0,240
1,75,58,0
1,75,0,240
1,74,69,0
1,74,0,960
1,68,47,0
1,73,59,0
1,73,0,240
1,74,56,0
1,74,0,240
1,68,0,0
1,67,46,0
1,77,59,0
1,77,0,240
1,75,57,0
1,75,0,240
1,74,64,0
1,74,0,240
1,75,61,0
1,75,0,240
1,72,69,0
1,72,0,240
1,67,66,0
1,67,0,240
1,67,0,0
1,70,64,0
1,65,63,0
1,74,70,0
1,74,0,240
1,65,0,0
1,70,0,0
1,77,57,0
1,77,0,120
1,78,60,120
1,78,0,120
1,82,57,120
1,82,0,120
1,81,64,120
1,81,0,120
1,84,59,120
1,84,0,120
1,82,64,120
1,82,0,80
1,84,54,0
1,84,0,80
1,82,54,0
1,82,0,80
1,81,58,0
1,81,0,120
1,82,63,120
1,82,0,120
1,86,63,120
1,86,0,120
1,84,63,120
1,77,58,0
1,77,0,120
1,84,0,0
1,89,60,120
1,89,0,120
1,70,64,360
1,70,0,240
1,72,64,0
1,72,0,240
1,74,61,0
1,74,0,240
1,77,64,0
1,77,0,240
1,75,62,0
1,75,0,240
1,74,61,0
1,74,0,80
1,75,56,0
1,75,0,80
1,74,55,0
1,74,0,80
1,71,59,0
1,71,0,240
1,70,63,0
1,70,0,240
1,68,57,0
1,68,0,240
1,66,65,0
1,66,0,240
1,70,58,0
1,70,0,180
1,70,60,0
1,70,0,60
1,65,65,0
1,65,0,960
1,68,56,0
1,70,56,0
1,70,0,480
1,68,0,0
1,70,57,0
1,66,41,0
1,66,0,960
1,70,0,0
1,69,67,0
1,69,0,240
1,75,64,0
1,75,0,240
1,70,64,240
1,70,0,240
1,71,64,0
1,71,0,240
1,74,61,0
1,74,0,240
1,77,67,0
1,77,0,240
1,78,67,0
1,78,0,240
1,77,61,0
1,70,41,0
1,77,0,80
1,78,51,0
1,78,0,80
1,77,51,0
1,77,0,80
1,70,0,0
1,75,54,0
1,75,0,240
1,71,65,0
1,71,0,240
1,70,58,0
1,70,0,240
1,66,65,0
1,66,0,240
1,70,58,0
1,70,0,180
1,70,60,0
1,70,0,60
1,65,63,0
1,65,0,960
1,68,56,0
1,70,56,0
1,70,0,480
1,68,0,0
1,66,48,0
1,70,65,0
1,66,0,958
1,70,0,2
1,69,67,0
1,69,0,240
1,75,64,0
1,75,0,240
1,74,64,0
1,74,0,960
1,72,64,720
1,72,0,80
1,74,54,0
1,74,0,80
1,72,54,0
1,72,0,80
1,71,58,0
1,71,0,240
1,72,61,0
1,72,0,240
1,74,64,0
1,74,0,240
1,75,62,0
1,75,0,240
1,67,61,0
1,70,61,0
1,70,0,240
1,67,0,0
1,72,63,0
1,72,0,240
1,73,66,0
1,73,0,240
1,74,69,0
1,74,0,240
1,79,70,0
1,79,0,240
1,74,66,0
1,74,0,240
1,70,68,0
1,66,59,0
1,66,0,960
1,70,0,0
1,69,65,0
1,69,0,420
1,67,55,0
1,74,56,30
1,79,60,30
1,79,0,240
1,74,0,0
1,67,0,0
1,74,57,0
1,74,0,120
1,75,60,120
1,75,0,120
1,79,57,120
1,79,0,120
1,78,64,120
1,78,0,120
1,81,59,120
1,81,0,120
1,79,64,120
1,79,0,80
1,81,54,0
1,81,0,80
1,79,54,0
1,79,0,80
1,78,58,0
1,78,0,120
1,79,63,120
1,79,0,120
1,82,60,120
1,82,0,120
1,74,63,120
1,81,63,0
1,81,0,120
1,74,0,0
1,84,60,120
1,84,0,120
1,82,64,120
1,82,0,120
1,80,63,120
1,89,63,0
1,86,63,0
1,86,0,120
1,89,0,0
1,80,0,0
1,84,61,120
1,79,61,0
1,88,61,0
1,88,0,120
1,79,0,0
1,84,0,0
1,84,60,120
1,78,60,0
1,87,60,0
1,87,0,120
1,78,0,0
1,84,0,0
1,86,58,120
1,79,58,0
1,79,0,120
1,86,0,0
1,84,57,120
1,74,57,0
1,81,57,0
1,81,0,120
1,74,0,0
1,84,0,0
1,74,65,120
1,82,65,0
1,79,65,0
1,79,0,240
1,82,0,0
1,74,0,0
1,80,60,0
1,71,60,0
1,71,0,240
1,80,0,0
1,79,57,0
1,72,57,0
1,72,0,240
1,73,60,0
1,73,0,240
1,74,62,0
1,74,0,240
1,79,0,0
1,82,67,0
1,75,67,0
1,79,67,0
1,79,0,240
1,75,0,0
1,82,0,0
1,74,70,0
1,70,70,0
1,79,70,0
1,82,70,0
1,82,0,960
1,74,0,0
1,70,0,0
1,79,0,0
1,74,68,0
1,70,68,0
1,70,0,480
1,74,0,0
1,72,61,0
1,69,61,0
1,69,0,120
1,72,0,0
1,75,66,120
1,72,66,0
1,72,0,120
1,75,0,0
1,81,70,120
1,77,70,0
1,77,0,240
1,81,0,0
1,74,71,240
1,77,71,0
1,77,0,120
1,74,0,0
1,74,65,120
1,70,65,0
1,70,0,120
1,74,0,0
1,67,68,120
1,70,68,0
1,70,0,120
1,67,0,0
1,75,65,120
1,79,65,0
1,79,0,120
1,75,0,0
1,72,67,120
1,75,67,0
1,75,0,120
1,72,0,0
1,69,63,120
1,72,63,0
1,72,0,120
1,69,0,0
1,69,67,120
1,66,67,0
1,66,0,120
1,69,0,0
1,77,62,120
1,74,62,0
1,74,0,120
1,77,0,0
1,74,69,120
1,70,69,0
1,70,0,240
1,74,0,0
1,67,66,0
1,70,66,0
1,70,0,240
1,67,0,0
1,67,69,0
1,63,53,0
1,67,0,240
1,70,63,0
1,70,0,240
1,63,0,0
1,66,58,0
1,60,47,0
1,69,65,0
1,69,0,240
1,70,59,0
1,70,0,240
1,60,0,0
1,66,0,0
1,71,55,0
1,59,44,0
1,62,44,0
1,62,0,240
1,59,0,0
1,64,42,0
1,64,0,120
1,62,42,0
1,62,0,120
1,59,44,0
1,59,0,240
1,62,41,0
1,62,0,240
1,62,42,240
1,62,0,240
1,71,0,0
1,71,55,0
1,59,45,0
1,65,45,0
1,65,0,240
1,59,0,0
1,64,42,0
1,64,0,120
1,62,42,0
1,62,0,120
1,59,44,0
1,59,0,240
1,62,42,0
1,62,0,240
1,62,42,240
1,62,0,240
1,71,0,0
1,72,55,0
1,60,44,0
1,62,44,0
1,62,0,240
1,60,0,0
1,64,42,0
1,64,0,120
1,62,42,0
1,62,0,120
1,60,44,0
1,60,0,240
1,62,41,0
1,62,0,240
1,72,0,0
1,60,44,0
1,68,53,0
1,60,0,240
1,62,41,0
1,62,0,240
1,69,55,0
1,60,44,0
1,62,44,0
1,68,0,20
1,62,0,220
1,60,0,0
1,64,42,0
1,64,0,120
1,62,42,0
1,62,0,120
1,60,44,0
1,60,0,240
1,62,41,0
1,62,0,240
1,69,0,0
1,60,44,0
1,70,53,0
1,60,0,240
1,62,41,0
1,62,0,240
1,71,55,0
1,59,44,0
1,62,44,0
1,70,0,20
1,62,0,220
1,59,0,0
1,64,42,0
1,64,0,120
1,62,42,0
1,62,0,120
1,59,44,0
1,59,0,240
1,62,41,0
1,62,0,240
1,71,0,0
1,59,44,0
1,71,53,0
1,59,0,240
1,62,41,0
1,62,0,240
1,64,55,0
1,62,44,0
1,71,0,20
1,62,0,220
1,67,42,0
1,67,0,120
1,65,42,0
1,65,0,120
1,64,44,0
1,62,44,0
1,64,0,240
1,71,54,0
1,62,0,240
1,64,0,0
1,62,37,0
1,64,37,0
1,68,37,0
1,72,59,0
1,71,0,20
1,74,57,220
1,72,0,20
1,68,0,220
1,62,0,0
1,64,0,0
1,60,44,0
1,72,55,0
1,74,0,20
1,60,0,220
1,65,42,0
1,65,0,120
1,64,42,0
1,64,0,120
1,60,44,0
1,60,0,240
1,64,41,0
1,64,0,240
1,72,0,0
1,60,44,0
1,72,53,0
1,60,0,240
1,67,41,0
1,67,0,240
1,60,47,0
1,66,58,0
1,72,0,20
1,60,0,220
1,69,45,0
1,69,0,120
1,66,45,0
1,66,0,120
1,66,0,0
1,60,47,0
1,64,44,0
1,69,44,240
1,60,0,20
1,69,0,220
1,64,0,0
1,60,50,0
1,62,39,0
1,70,44,240
1,60,0,20
1,70,0,220
1,62,0,0
1,71,55,0
1,59,41,0
1,62,41,0
1,62,0,240
1,59,0,0
1,64,39,0
1,64,0,120
1,62,39,0
1,62,0,120
1,59,41,0
1,59,0,240
1,62,38,0
1,62,0,240
1,62,42,240
1,62,0,240
1,71,0,0
1,71,55,0
1,59,43,0
1,65,43,0
1,65,0,240
1,59,0,0
1,64,40,0
1,64,0,120
1,62,40,0
1,62,0,120
1,59,42,0
1,59,0,240
1,62,40,0
1,62,0,240
1,62,42,240
1,62,0,240
1,71,0,0
1,72,55,0
1,60,44,0
1,62,44,0
1,62,0,240
1,60,0,0
1,64,42,0
1,64,0,120
1,62,42,0
1,62,0,120
1,60,44,0
1,60,0,240
1,62,41,0
1,62,0,240
1,72,0,0
1,60,44,0
1,68,53,0
1,60,0,240
1,62,41,0
1,62,0,240
1,69,55,0
1,60,44,0
1,62,44,0
1,68,0,20
1,62,0,220
1,60,0,0
1,64,42,0
1,64,0,120
1,62,42,0
1,62,0,120
1,60,44,0
1,60,0,240
1,62,41,0
1,62,0,240
1,69,0,0
1,60,44,0
1,70,53,0
1,60,0,240
1,62,41,0
1,62,0,240
1,71,55,0
1,59,44,0
1,62,44,0
1,70,0,20
1,62,0,220
1,59,0,0
1,64,42,0
1,64,0,120
1,62,42,0
1,62,0,120
1,59,44,0
1,59,0,240
1,62,41,0
1,62,0,240
1,71,0,0
1,62,49,240
1,62,0,240
1,64,51,0
1,59,51,0
1,59,0,240
1,69,46,0
1,69,0,120
1,67,47,0
1,67,0,120
1,64,50,0
1,64,0,240
1,71,57,0
1,71,0,240
1,64,0,0
1,64,50,0
1,76,59,0
1,76,0,240
1,64,0,0
1,71,55,0
1,71,0,240
1,74,50,0
1,62,61,0
1,62,0,240
1,67,53,0
1,67,0,120
1,66,53,0
1,66,0,120
1,65,55,0
1,64,55,240
1,65,0,240
1,74,0,0
1,73,59,0
1,73,0,240
1,66,55,0
1,66,0,240
1,64,0,0
1,62,53,0
1,71,66,0
1,71,0,1440
1,62,0,0
1,69,56,0
1,72,75,0
1,72,0,960
1,69,0,0
1,68,55,0
1,71,73,0
1,71,0,480
1,68,0,0
1,71,56,0
1,74,75,0
1,69,63,480
1,72,71,0
1,74,0,20
1,71,0,0
1,68,61,460
1,71,68,0
1,69,0,20
1,72,0,0
1,68,0,460
1,71,0,0
1,65,53,0
1,68,71,0
1,68,0,240
1,65,0,0
1,66,52,0
1,69,70,0
1,69,0,240
1,66,0,0
1,69,52,0
1,72,70,0
1,72,0,240
1,69,0,0
1,72,54,0
1,76,73,0
1,76,0,240
1,72,0,0
1,76,57,0
1,79,76,0
1,79,0,240
1,76,0,0
1,74,55,0
1,78,74,0
1,78,0,240
1,74,0,0
1,81,76,0
1,78,57,0
1,78,0,240
1,81,0,0
1,74,52,0
1,78,70,0
1,78,0,240
1,74,0,0
1,72,55,0
1,76,74,0
1,76,0,240
1,72,0,0
1,69,51,0
1,72,67,0
1,72,0,240
1,69,0,0
1,68,52,0
1,71,70,0
1,71,0,240
1,68,0,0
1,71,51,0
1,74,67,0
1,74,0,240
1,71,0,0
1,69,63,0
1,72,75,0
1,72,0,960
1,69,0,0
1,68,56,0
1,71,66,0
1,71,0,480
1,68,0,0
1,70,57,0
1,74,68,0
1,69,53,480
1,72,63,0
1,74,0,20
1,70,0,0
1,67,51,460
1,70,61,0
1,69,0,20
1,72,0,0
1,67,0,460
1,70,0,0
1,65,51,0
1,68,60,0
1,68,0,240
1,65,0,0
1,66,48,0
1,69,57,0
1,69,0,240
1,66,0,0
1,69,51,0
1,72,60,0
1,72,0,240
1,69,0,0
1,72,51,0
1,75,60,0
1,75,0,240
1,72,0,0
1,75,53,0
1,79,63,0
1,79,0,240
1,75,0,0
1,74,50,0
1,78,59,0
1,78,0,240
1,74,0,0
1,81,65,0
1,78,54,0
1,78,0,240
1,81,0,0
1,74,53,0
1,78,63,0
1,78,0,240
1,74,0,0
1,72,50,0
1,75,59,0
1,75,0,240
1,72,0,0
