track,note,velocity,time
2,35,112,3072
2,35,112,360
2,35,112,360
2,35,112,360
2,35,112,360
2,35,112,360
2,35,112,360
2,35,112,360
2,35,112,360
2,35,112,360
2,35,112,360
2,35,112,360
2,35,112,360
2,35,112,360
2,35,112,360
2,35,112,360
2,35,112,360
2,35,112,360
2,35,112,360
2,35,112,360
2,35,112,360
2,35,112,360
2,35,112,360
2,35,112,360
2,35,112,360
2,35,112,360
2,35,112,360
2,35,112,360
2,35,112,360
2,35,112,360
2,35,112,360
2,35,112,360
2,35,112,360
2,35,112,360
2,35,112,360
2,35,112,360
2,35,112,360
2,35,112,360
2,35,112,360
2,35,112,360
2,35,112,360
2,35,112,360
2,35,112,360
2,35,112,360
2,35,112,360
2,35,112,360
2,35,112,360
2,35,112,360
2,35,112,360
2,35,112,360
2,35,112,360
2,35,112,360
2,35,112,360
2,35,112,360
2,35,112,360
2,35,112,360
2,35,112,360
2,35,112,360
2,35,112,360
2,35,112,360
2,35,112,360
2,35,112,360
2,35,112,360
2,35,112,360
2,35,112,360
2,35,112,360
2,35,112,360
2,35,112,360
2,35,112,360
2,35,112,360
2,35,112,360
2,35,112,360
2,35,112,360
2,35,112,360
2,35,112,360
2,35,112,360
2,35,112,360
2,35,112,360
2,35,112,360
2,35,112,360
2,35,112,360
2,35,112,360
2,35,112,360
2,35,112,360
2,35,112,360
2,35,112,360
2,35,112,360
2,35,112,360
2,35,112,360
2,35,112,360
2,35,112,360
2,35,112,360
2,35,112,360
2,35,112,360
2,35,112,360
2,35,112,360
2,35,112,360
2,35,112,360
2,35,112,360
2,35,112,360
2,35,112,360
2,35,112,360
2,35,112,360
2,35,112,360
2,35,112,360
2,35,112,360
2,35,112,360
2,35,112,360
2,35,112,360
2,35,112,360
2,35,112,360
2,35,112,360
2,35,112,360
2,35,112,360
2,35,112,360
2,35,112,360
2,35,112,360
2,35,112,360
2,35,112,360
2,35,112,360
2,35,112,360
2,35,112,360
2,35,112,360
2,35,112,360
2,35,112,360
2,35,112,360
2,35,112,360
2,35,112,360
2,35,112,360
2,35,112,360
2,35,112,360
2,35,112,360
2,35,112,360
2,35,112,360
2,35,112,360
2,35,112,360
2,35,112,360
2,35,112,360
2,35,112,360
2,35,112,360
2,35,112,360
2,35,112,360
2,35,112,360
2,35,112,360
2,35,112,360
2,35,112,360
2,35,112,360
2,35,112,360
2,35,112,360
2,35,112,360
2,35,112,360
2,35,112,360
2,35,112,360
2,35,112,360
2,35,112,360
2,35,112,360
2,35,112,360
2,35,112,360
2,35,112,360
2,35,112,360
2,35,112,360
2,35,112,360
2,35,112,360
2,35,112,360
2,35,112,360
2,35,112,360
2,35,112,360
2,35,112,360
2,35,112,360
2,35,112,360
2,35,112,360
2,35,112,360
2,35,112,360
2,35,112,360
2,35,112,360
2,35,112,360
2,35,112,360
2,35,112,360
2,35,112,360
2,35,112,360
2,35,112,360
2,35,112,360
2,35,112,360
2,35,112,360
2,35,112,360
2,35,112,360
2,35,112,360
2,35,112,360
2,35,112,360
2,35,112,360
2,35,112,360
2,35,112,360
2,35,112,360
2,35,112,360
2,35,112,360
2,35,112,360
2,35,112,360
2,35,112,360
2,35,112,360
2,35,112,360
2,35,112,360
2,35,112,360
2,35,112,360
2,35,112,360
2,35,112,360
2,35,112,360
2,35,112,360
2,35,112,360
2,35,112,360
2,35,112,360
2,35,112,360
2,35,112,360
2,35,112,360
2,35,112,360
2,35,112,360
2,35,112,360
2,35,112,360
2,35,112,360
2,35,112,360
2,35,112,360
2,35,112,360
2,35,112,360
2,35,112,360
2,35,112,360
2,35,112,360
2,35,112,360
2,35,112,360
2,35,112,360
2,35,112,360
2,35,112,360
2,35,112,360
2,35,112,360
2,35,112,360
2,35,112,744
2,35,112,744
2,35,112,744
2,35,112,744
2,35,112,744
2,35,112,744
2,35,112,744
2,35,112,744
2,35,112,744
2,35,112,744
2,35,112,744
2,35,112,744
2,35,112,744
2,35,112,744
2,35,112,744
2,35,112,744
2,35,112,744
2,35,112,744
2,35,112,744
2,35,112,744
2,35,112,744
2,35,112,744
2,35,112,744
2,35,112,744
2,35,112,744
2,35,112,744
2,35,112,744
2,35,112,744
2,35,112,744
2,35,112,744
2,35,112,744
2,35,112,744
2,35,112,744
2,35,112,744
2,35,112,744
2,35,112,744
2,35,112,744
2,35,112,744
2,35,112,744
2,35,112,744
2,35,112,744
2,35,112,744
2,35,112,744
2,35,112,744
2,35,112,744
2,35,112,744
2,35,112,744
2,35,112,744
2,35,112,744
2,35,112,744
2,35,112,744
2,35,112,744
2,35,112,744
2,35,112,744
2,35,112,744
2,35,112,744
2,35,112,744
2,35,112,744
2,35,112,744
2,35,112,744
2,35,112,744
2,35,112,744
2,35,112,744
2,35,112,744
2,35,112,744
2,35,112,744
2,35,112,744
2,35,116,360
2,35,112,360
2,35,112,744
2,35,112,744
2,35,112,744
2,35,114,360
2,35,112,360
2,35,112,744
2,35,112,744
2,35,112,744
2,35,112,744
2,35,112,744
2,35,112,744
2,35,112,744
2,35,111,360
2,35,112,360
2,35,112,744
2,35,112,744
2,35,112,744
2,35,111,360
2,35,112,360
2,35,112,744
2,35,112,744
2,35,112,744
2,35,118,360
2,35,112,360
2,35,112,744
2,35,112,744
2,35,112,744
2,35,114,360
2,35,112,360
2,35,112,744
2,35,112,744
2,35,112,744
2,35,116,360
2,35,112,360
2,35,112,744
2,35,112,744
2,35,112,744
2,35,116,360
2,35,112,360
2,35,112,744
2,35,112,744
2,35,112,744
2,35,118,360
2,35,112,360
2,35,112,744
2,35,112,744
2,35,112,744
2,35,114,360
2,35,112,360
2,35,112,744
2,35,112,744
2,35,112,744
2,35,112,744
2,35,112,744
2,35,112,744
2,35,112,744
2,35,116,360
2,35,112,360
2,35,112,744
2,35,112,744
2,35,112,744
2,35,109,360
2,35,112,360
2,35,112,744
2,35,112,744
2,35,112,744
2,35,114,360
2,35,112,360
2,35,112,744
2,35,112,744
2,35,112,744
2,35,111,360
2,35,112,360
2,35,112,1512
2,35,112,744
2,35,112,744
2,35,112,744
2,35,112,744
2,35,112,744
2,35,112,744
2,35,112,744
2,35,112,744
2,35,112,744
2,35,112,744
2,35,112,744
2,35,112,744
2,35,112,744
2,35,112,744
2,35,112,744
2,35,112,744
2,35,112,744
2,35,112,744
2,35,112,744
2,35,112,744
2,35,112,744
2,35,112,744
2,35,112,744
2,35,112,744
2,35,112,744
2,35,112,744
2,35,112,744
2,35,112,744
2,35,112,744
2,35,112,744
2,35,112,744
2,35,112,744
2,35,112,744
2,35,112,744
2,35,112,744
2,35,112,744
2,35,112,744
2,35,112,744
2,35,112,744
2,35,112,744
2,35,112,744
2,35,112,744
2,35,112,744
2,35,112,744
2,35,112,744
2,35,112,744
2,35,112,744
2,35,112,744
2,35,112,744
2,35,112,744
2,35,112,744
2,35,112,744
2,35,112,744
2,35,112,744
2,35,112,744
2,35,112,744
2,35,112,744
2,35,112,744
2,35,112,744
2,35,112,744
2,35,112,744
2,35,112,744
2,35,112,744
2,35,112,744
2,35,112,744
2,35,112,744
2,35,112,744
2,35,112,744
2,35,112,744
2,35,112,744
2,35,112,744
2,35,112,744
2,35,112,744
2,35,112,744
2,35,112,744
2,35,112,744
2,35,112,744
2,35,112,744
2,35,112,744
2,35,112,744
2,35,112,744
2,35,112,744
2,35,112,744
2,35,112,744
2,35,112,744
2,35,112,744
2,35,112,744
2,35,112,744
2,35,112,744
2,35,112,744
2,35,112,744
2,35,112,744
2,35,112,744
2,35,112,744
2,35,112,744
2,35,112,744
2,35,112,744
2,35,112,744
2,35,112,744
2,35,112,744
2,35,112,744
2,35,112,744
2,35,112,744
2,35,112,744
2,35,112,744
2,35,112,744
2,35,112,744
2,35,112,744
2,35,112,744
2,35,112,744
2,35,112,744
2,35,112,744
2,35,112,744
2,35,112,744
2,35,112,744
2,35,112,744
2,35,112,744
2,35,112,744
2,35,112,744
2,35,112,744
2,35,112,744
2,35,112,744
2,35,112,744
2,35,112,744
2,35,112,744
2,35,112,744
2,35,112,744
2,35,112,744
2,35,112,744
2,35,112,744
2,35,112,744
2,35,112,744
2,35,112,744
2,35,112,744
2,35,112,744
2,35,112,744
2,35,112,744
2,35,112,744
2,35,112,744
2,35,112,744
2,35,112,744
2,35,112,744
2,35,112,744
2,35,112,744
2,35,112,744
2,35,112,744
2,35,112,744
2,35,112,744
2,35,112,744
2,35,112,744
2,35,112,744
2,35,112,744
2,35,112,744
2,35,112,744
2,35,112,744
3,38,81,15744
3,38,75,744
3,38,73,744
3,38,77,744
3,38,82,168
3,38,85,72
3,38,81,456
3,38,75,744
3,38,73,744
3,38,77,744
3,38,81,744
3,38,75,744
3,38,73,744
3,38,77,744
3,38,75,168
3,38,77,72
3,38,81,456
3,38,75,744
3,38,73,744
3,38,77,744
3,38,81,744
3,38,75,744
3,38,73,744
3,38,77,744
3,38,80,168
3,38,82,72
3,38,81,456
3,38,75,744
3,38,73,744
3,38,77,744
3,38,81,744
3,38,75,744
3,38,73,744
3,38,77,744
3,38,82,168
3,38,80,72
3,38,81,456
3,38,75,744
3,38,73,744
3,38,77,744
3,38,81,744
3,38,75,744
3,38,73,744
3,38,77,744
3,38,85,168
3,38,87,72
3,38,81,456
3,38,75,744
3,38,73,744
3,38,77,744
3,38,81,744
3,38,75,744
3,38,73,744
3,38,77,744
3,38,81,744
3,38,75,744
3,38,73,744
3,38,77,744
3,38,81,744
3,38,75,744
3,38,73,744
3,38,77,744
3,38,81,744
3,38,75,744
3,38,73,744
3,38,77,744
3,38,81,744
3,38,75,744
3,38,73,744
3,38,77,744
3,38,81,744
3,38,75,744
3,38,73,744
3,38,77,744
3,38,77,168
3,38,77,72
3,38,69,456
3,38,69,744
3,38,69,744
3,38,79,168
3,38,69,552
3,38,72,168
3,38,74,72
3,38,69,456
3,38,69,744
3,38,69,744
3,38,69,744
3,38,69,744
3,38,69,744
3,38,69,744
3,38,69,744
3,38,62,72
3,38,67,72
3,38,67,72
3,38,69,456
3,38,69,744
3,38,69,744
3,38,69,744
3,38,69,744
3,38,69,744
3,38,69,744
3,38,69,744
3,38,69,744
3,38,69,744
3,38,69,744
3,38,69,744
3,38,69,744
3,38,69,744
3,38,69,744
3,38,69,744
3,38,69,744
3,38,69,744
3,38,69,744
3,38,69,744
3,38,69,744
3,38,69,744
3,38,69,744
3,38,69,744
3,38,91,49896
3,38,89,744
3,38,91,744
3,38,89,744
3,38,91,744
3,38,89,744
3,38,91,744
3,38,89,744
3,38,86,168
3,38,86,72
3,38,91,456
3,38,89,744
3,38,91,744
3,38,89,744
3,38,91,744
3,38,89,744
3,38,91,744
3,38,89,744
3,38,86,168
3,38,86,72
3,38,91,456
3,38,89,744
3,38,91,744
3,38,89,744
3,38,91,744
3,38,89,744
3,38,91,744
3,38,89,744
3,38,91,744
3,38,89,744
3,38,91,744
3,38,89,744
3,38,91,744
3,38,89,744
3,38,91,744
3,38,89,744
3,38,91,744
3,38,89,744
3,38,91,744
3,38,89,744
3,38,91,744
3,38,89,744
3,38,91,744
3,38,89,744
3,38,91,744
3,38,89,744
3,38,91,744
3,38,89,744
3,38,91,744
3,38,89,744
3,38,91,744
3,38,89,744
3,38,91,744
3,38,89,744
3,38,91,744
3,38,89,744
3,38,91,744
3,38,89,744
3,38,91,744
3,38,89,744
3,38,91,744
3,38,89,744
3,38,91,744
3,38,89,744
3,38,91,744
3,38,89,744
3,38,91,744
3,38,89,744
3,38,94,744
3,38,90,288
3,38,90,168
3,38,93,168
3,38,93,72
3,38,91,648
3,38,89,744
3,38,91,744
3,38,89,744
3,38,91,744
3,38,89,744
3,38,91,744
3,38,89,744
3,38,91,744
3,38,89,744
3,38,91,744
3,38,89,744
3,38,91,744
3,38,89,744
3,38,91,744
3,38,89,744
3,38,91,744
3,38,89,744
3,38,91,744
3,38,89,744
3,38,91,744
3,38,89,744
3,38,91,744
3,38,89,744
3,38,91,744
3,38,89,744
3,38,91,744
3,38,89,744
3,38,91,744
3,38,89,744
3,38,91,744
3,38,89,744
3,38,91,744
3,38,89,744
3,38,91,744
3,38,89,744
3,38,91,744
3,38,89,744
3,38,91,744
3,38,89,744
3,38,91,744
3,38,89,744
3,38,91,744
3,38,89,744
3,38,91,744
3,38,89,744
3,38,91,744
3,38,89,744
3,38,91,744
3,38,89,744
3,38,91,744
3,38,89,744
3,38,91,744
3,38,89,744
3,38,91,744
3,38,89,744
3,38,91,744
3,38,89,744
3,38,91,744
3,38,89,744
3,38,91,744
3,38,89,744
3,38,91,744
3,38,89,744
3,38,91,744
3,38,89,744
3,38,91,744
3,38,89,744
3,38,91,744
3,38,89,744
3,38,91,744
3,38,89,744
3,38,91,744
3,38,89,744
3,38,91,744
3,38,89,744
3,38,91,744
3,38,89,744
3,38,91,744
3,38,89,744
3,38,91,744
3,38,89,744
3,38,91,744
3,38,89,744
3,38,91,744
3,38,89,744
3,38,91,744
3,38,89,744
3,38,91,744
3,38,89,744
3,38,91,744
3,38,89,744
3,38,91,744
3,38,89,744
3,38,91,744
3,38,89,744
3,38,91,744
3,38,89,744
3,38,91,744
3,38,89,744
3,38,91,744
3,38,89,744
3,38,91,744
3,38,89,744
3,38,91,744
3,38,89,744
3,38,91,744
3,38,89,744
3,38,91,744
3,38,89,744
3,38,91,744
3,38,89,744
3,38,91,744
3,38,89,744
3,38,91,744
3,38,89,744
3,38,91,744
3,38,89,744
3,38,91,744
3,38,89,744
3,38,91,744
3,38,89,744
3,38,91,744
3,38,89,744
3,38,91,744
3,38,89,744
3,38,91,744
3,38,89,744
3,38,91,744
3,38,89,744
3,38,91,744
3,38,89,744
3,38,91,744
3,38,89,744
3,38,91,744
3,38,89,744
3,38,91,744
3,38,89,744
3,38,91,744
3,38,89,744
3,38,91,744
3,38,89,744
3,38,91,744
3,38,89,744
3,38,91,744
3,38,89,744
3,38,91,744
3,38,89,744
3,38,91,744
3,38,89,744
3,38,91,744
3,38,89,744
3,38,91,744
3,38,89,744
3,38,91,744
3,38,89,744
4,40,102,92544
4,40,100,744
4,40,102,744
4,40,100,744
4,40,102,744
4,40,100,744
4,40,102,744
4,40,100,744
4,40,102,744
4,40,100,744
4,40,102,744
4,40,100,744
4,40,102,744
4,40,100,744
4,40,102,744
4,40,100,744
4,40,102,744
4,40,100,744
4,40,102,744
4,40,100,744
4,40,102,744
4,40,100,744
4,40,102,744
4,40,100,744
4,40,102,744
4,40,100,744
4,40,102,744
4,40,100,744
4,40,102,744
4,40,100,744
4,40,102,744
4,40,100,744
4,40,102,744
4,40,100,744
4,40,102,744
4,40,100,744
4,40,102,744
4,40,100,744
4,40,102,744
4,40,100,744
4,40,102,744
4,40,100,744
4,40,102,744
4,40,100,744
4,40,102,744
4,40,100,744
4,40,102,744
4,40,100,744
4,40,102,744
4,40,100,744
4,40,102,744
4,40,100,744
4,40,102,744
4,40,100,744
4,40,102,744
4,40,100,744
4,40,102,744
4,40,100,744
4,40,102,744
4,40,100,744
4,40,102,744
4,40,100,744
4,40,102,744
4,40,100,744
5,42,77,15360
5,42,77,168
5,42,77,168
5,42,77,168
5,42,77,168
5,42,76,168
5,42,77,168
5,42,77,168
5,42,77,168
5,42,77,168
5,42,77,168
5,42,77,168
5,42,77,168
5,42,77,168
5,42,77,168
5,42,77,168
5,42,77,168
5,42,77,168
5,42,77,168
5,42,77,168
5,42,77,168
5,42,76,168
5,42,77,168
5,42,77,168
5,42,77,168
5,42,77,168
5,42,77,168
5,42,77,168
5,42,77,168
5,42,77,168
5,42,77,168
5,42,77,168
5,42,77,168
5,42,77,168
5,42,77,168
5,42,77,168
5,42,77,168
5,42,76,168
5,42,77,168
5,42,77,168
5,42,77,168
5,42,77,168
5,42,77,168
5,42,77,168
5,42,77,168
5,42,77,168
5,42,77,168
5,42,77,168
5,42,77,168
5,42,77,168
5,42,77,168
5,42,77,168
5,42,77,168
5,42,76,168
5,42,77,168
5,42,77,168
5,42,77,168
5,42,77,168
