track,note,velocity,time
1,44,119,25712
1,58,109,0
1,61,119,0
1,66,119,0
1,44,101,128
1,44,114,124
1,44,101,128
1,44,119,128
1,44,119,316
1,44,119,84
1,56,102,0
1,61,114,0
1,65,107,0
1,44,102,136
1,44,114,136
1,44,116,56
1,56,88,0
1,60,111,0
1,63,107,0
1,44,122,76
1,58,91,0
1,61,111,0
1,66,111,0
1,44,109,144
1,44,114,140
1,44,109,132
1,44,119,140
1,44,127,316
1,44,119,92
1,56,104,0
1,61,114,0
1,65,107,0
1,44,107,132
1,44,111,136
1,44,114,80
1,56,102,0
1,60,116,0
1,63,109,0
1,44,116,84
1,58,97,0
1,61,111,0
1,66,111,0
1,44,111,140
1,44,114,136
1,44,102,128
1,44,122,136
1,44,116,316
1,44,119,84
1,56,95,0
1,61,107,0
1,65,104,0
1,44,104,132
1,44,116,136
1,44,116,64
1,56,89,0
1,60,111,0
1,63,107,0
1,44,116,84
1,58,102,0
1,61,111,0
1,66,111,0
1,44,109,132
1,44,116,132
1,44,102,132
1,44,116,136
1,44,119,316
1,44,116,84
1,56,95,0
1,61,109,0
1,65,102,0
1,44,102,132
1,44,114,132
1,44,116,64
1,56,89,0
1,60,116,0
1,63,104,0
1,44,119,88
1,58,99,0
1,61,114,0
1,66,111,0
1,44,107,136
1,44,119,140
1,44,102,132
1,44,116,136
1,44,122,316
1,44,119,84
1,56,95,0
1,61,107,0
1,65,104,0
1,44,102,136
1,44,114,136
1,44,116,84
1,56,92,0
1,60,114,0
1,63,104,0
1,44,116,88
1,58,109,0
1,61,119,0
1,66,114,0
1,44,107,136
1,44,116,132
1,44,102,132
1,44,116,136
1,44,119,316
1,44,122,80
1,56,97,0
1,61,109,0
1,65,102,0
1,44,101,132
1,44,111,132
1,44,114,64
1,56,91,0
1,60,109,0
1,63,101,0
1,44,119,104
1,58,109,0
1,61,116,0
1,66,109,0
1,44,109,136
1,44,116,136
1,44,102,128
1,44,119,136
1,44,122,308
1,44,116,92
1,56,102,0
1,61,111,0
1,65,107,0
1,44,104,132
1,44,107,136
1,44,114,76
1,56,94,0
1,60,111,0
1,63,104,0
1,44,114,108
1,58,107,0
1,61,116,0
1,66,109,0
1,44,104,136
1,44,116,132
1,44,101,136
1,44,119,136
1,44,119,308
1,44,116,88
1,56,102,0
1,61,114,0
1,65,107,0
1,44,102,136
1,44,114,136
1,44,114,76
1,56,99,0
1,60,111,0
1,63,102,0
1,37,88,128
1,49,99,0
1,56,108,0
1,58,100,0
1,63,115,0
1,65,102,0
1,36,83,48
1,48,94,0
1,58,97,0
1,63,107,0
1,65,107,0
1,67,103,0
1,70,109,0
1,67,115,180
1,58,51,16
1,70,115,0
1,29,94,32
1,41,94,0
1,58,96,0
1,63,122,0
1,66,70,0
1,67,112,0
1,70,114,0
1,29,94,44
1,41,92,0
1,60,90,0
1,65,120,0
1,69,112,0
1,34,87,44
1,46,99,0
1,56,106,0
1,58,109,0
1,61,120,0
1,65,120,0
1,39,99,72
1,51,96,0
1,56,109,0
1,61,120,0
1,65,111,0
1,39,92,84
1,51,96,0
1,56,109,0
1,61,120,0
1,65,109,0
1,39,106,48
1,51,111,0
1,56,111,0
1,61,120,0
1,65,114,0
1,39,96,100
1,51,96,0
1,56,109,0
1,61,117,0
1,65,111,0
1,39,114,96
1,51,102,0
1,56,106,0
1,61,120,0
1,65,114,0
1,44,119,21752
1,58,109,0
1,61,119,0
1,66,119,0
1,44,101,128
1,44,114,124
1,44,101,128
1,44,119,128
1,44,119,316
1,44,119,84
1,56,102,0
1,61,114,0
1,65,107,0
1,44,102,136
1,44,114,136
1,44,116,56
1,56,88,0
1,60,111,0
1,63,107,0
1,44,122,76
1,58,91,0
1,61,111,0
1,66,111,0
1,44,109,144
1,44,114,140
1,44,109,132
1,44,119,140
1,44,127,316
1,44,119,92
1,56,104,0
1,61,114,0
1,65,107,0
1,44,107,132
1,44,111,136
1,44,114,80
1,56,102,0
1,60,116,0
1,63,109,0
1,44,116,84
1,58,97,0
1,61,111,0
1,66,111,0
1,44,111,140
1,44,114,136
1,44,102,128
1,44,122,136
1,44,116,316
1,44,119,84
1,56,95,0
1,61,107,0
1,65,104,0
1,44,104,132
1,44,116,136
1,44,116,64
1,56,89,0
1,60,111,0
1,63,107,0
1,44,116,84
1,58,102,0
1,61,111,0
1,66,111,0
1,44,109,132
1,44,116,132
1,44,102,132
1,44,116,136
1,44,119,316
1,44,116,84
1,56,95,0
1,61,109,0
1,65,102,0
1,44,102,132
1,44,114,132
1,44,116,64
1,56,89,0
1,60,116,0
1,63,104,0
1,44,119,88
1,58,99,0
1,61,114,0
1,66,111,0
1,44,107,136
1,44,119,140
1,44,102,132
1,44,116,136
1,44,122,316
1,44,119,84
1,56,95,0
1,61,107,0
1,65,104,0
1,44,102,136
1,44,114,136
1,44,116,84
1,56,92,0
1,60,114,0
1,63,104,0
1,44,116,88
1,58,109,0
1,61,119,0
1,66,114,0
1,44,107,136
1,44,116,132
1,44,102,132
1,44,116,136
1,44,119,316
1,44,122,80
1,56,97,0
1,61,109,0
1,65,102,0
1,44,101,132
1,44,111,132
1,44,114,64
1,56,91,0
1,60,109,0
1,63,101,0
1,44,119,104
1,58,109,0
1,61,116,0
1,66,109,0
1,44,109,136
1,44,116,136
1,44,102,128
1,44,119,136
1,44,122,308
1,44,116,92
1,56,102,0
1,61,111,0
1,65,107,0
1,44,104,132
1,44,107,136
1,44,114,76
1,56,94,0
1,60,111,0
1,63,104,0
1,44,114,108
1,58,107,0
1,61,116,0
1,66,109,0
1,44,104,136
1,44,116,132
1,44,101,136
1,44,119,136
1,44,119,308
1,44,116,88
1,56,102,0
1,61,114,0
1,65,107,0
1,44,102,136
1,44,114,136
1,44,114,76
1,56,99,0
1,60,111,0
1,63,102,0
2,29,127,1308
2,29,102,68
2,30,117,100
2,30,124,100
2,29,127,200
2,30,127,208
2,29,117,140
2,32,127,160
2,32,111,84
2,32,104,96
2,32,124,108
2,32,124,16
2,29,127,128
2,29,120,116
2,30,117,116
2,30,127,120
2,29,127,244
2,30,127,196
2,29,127,124
2,32,120,148
2,32,114,92
2,32,114,112
2,32,127,104
2,32,127,16
2,29,127,128
2,29,124,100
2,30,124,108
2,30,127,108
2,29,127,192
2,30,127,172
2,29,127,124
2,32,127,160
2,32,109,96
2,32,120,100
2,32,127,108
2,32,127,16
2,29,127,128
2,29,124,104
2,30,124,112
2,30,127,100
2,29,127,196
2,30,127,184
2,29,127,116
2,32,127,148
2,32,109,92
2,32,120,104
2,32,127,112
2,32,127,16
2,29,127,128
2,29,117,108
2,30,120,104
2,30,124,116
2,29,127,212
2,30,127,204
2,29,124,124
2,32,127,172
2,32,120,108
2,32,124,116
2,32,124,112
2,32,127,16
2,29,127,128
2,29,120,112
2,30,120,116
2,30,120,112
2,29,127,216
2,30,127,208
2,29,120,128
2,32,120,160
2,32,109,124
2,32,124,124
2,32,127,124
2,32,127,16
2,29,127,128
2,29,114,108
2,30,114,108
2,30,120,116
2,29,127,216
2,30,127,196
2,29,124,116
2,32,127,160
2,32,109,100
2,32,120,104
2,32,127,104
2,32,127,16
2,29,127,128
2,29,114,112
2,30,114,108
2,30,120,112
2,29,120,208
2,30,127,200
2,29,127,112
2,32,127,180
2,32,120,132
2,32,120,108
2,32,120,116
2,32,127,16
2,32,127,4
2,32,112,128
2,32,124,112
2,32,116,112
2,32,121,108
2,32,127,264
2,32,124,260
2,32,109,80
2,32,114,108
2,32,119,112
2,32,120,16
2,32,127,480
2,32,109,88
2,32,121,116
2,32,107,116
2,32,121,124
2,32,124,272
2,32,127,192
2,32,107,116
2,32,121,116
2,32,119,124
2,32,118,16
2,32,127,480
2,32,119,128
2,32,121,124
2,32,124,120
2,32,121,120
2,32,127,256
2,32,127,192
2,32,114,112
2,32,124,132
2,32,121,128
2,32,118,16
2,32,127,480
2,32,116,104
2,32,124,124
2,32,114,116
2,32,121,128
2,32,127,280
2,32,121,212
2,32,92,92
2,32,114,120
2,32,119,120
2,32,118,16
2,32,112,480
2,32,116,120
2,32,121,124
2,32,109,124
2,32,119,128
2,32,124,208
2,32,124,180
2,32,109,112
2,32,119,128
2,32,121,128
2,32,118,16
2,32,121,480
2,32,112,124
2,32,124,128
2,32,109,124
2,32,127,128
2,32,127,232
2,32,127,204
2,32,107,108
2,32,121,128
2,32,121,124
2,32,118,16
2,32,124,480
2,32,121,128
2,32,127,128
2,32,116,120
2,32,127,128
2,32,124,240
2,32,127,184
2,32,109,120
2,32,121,128
2,32,114,132
2,32,118,16
2,32,124,480
2,32,114,120
2,32,119,132
2,32,116,120
2,32,121,128
2,32,127,280
2,32,124,176
2,32,114,124
2,32,119,128
2,32,121,132
2,32,118,16
2,37,127,480
2,37,114,92
2,37,124,120
2,37,117,116
2,37,127,124
2,37,127,224
2,36,127,172
2,36,111,124
2,36,117,124
2,36,124,128
2,36,127,16
2,29,127,704
2,29,111,104
2,29,117,116
2,29,117,128
2,29,124,128
2,29,127,256
2,29,127,192
2,29,120,108
2,29,120,124
2,29,120,124
2,29,127,16
2,34,127,704
2,34,120,136
2,34,114,128
2,34,117,132
2,34,120,128
2,34,124,204
2,39,127,156
2,39,127,216
2,39,127,188
2,39,127,128
2,39,127,124
2,29,127,432
2,29,102,68
2,30,117,100
2,30,124,100
2,29,127,200
2,30,127,208
2,29,117,140
2,32,127,160
2,32,111,84
2,32,104,96
2,32,124,108
2,32,124,16
2,29,127,128
2,29,120,116
2,30,117,116
2,30,127,120
2,29,127,244
2,30,127,196
2,29,127,124
2,32,120,148
2,32,114,92
2,32,114,112
2,32,127,104
2,32,127,0
2,32,127,16
2,32,127,0
2,29,127,128
2,29,124,104
2,30,124,112
2,30,127,100
2,29,127,196
2,30,127,184
2,29,127,116
2,32,127,148
2,32,109,92
2,32,120,104
2,32,127,112
2,32,127,16
2,29,127,128
2,29,117,108
2,30,120,104
2,30,124,116
2,29,127,212
2,30,127,204
2,29,124,124
2,32,127,172
2,32,120,108
2,32,124,116
2,32,124,112
2,32,127,16
2,29,127,128
2,29,120,112
2,30,120,116
2,30,120,112
2,29,127,216
2,30,127,208
2,29,120,128
2,32,120,160
2,32,109,124
2,32,124,124
2,32,127,124
2,32,127,16
2,29,127,128
2,29,114,108
2,30,114,108
2,30,120,116
2,29,127,216
2,30,127,196
2,29,124,116
2,32,127,160
2,32,109,100
2,32,120,104
2,32,127,104
2,32,127,16
2,29,127,128
2,29,114,112
2,30,114,108
2,30,120,112
2,29,120,208
2,30,127,200
2,29,127,112
2,32,127,180
2,32,120,132
2,32,120,108
2,32,120,116
2,32,127,16
2,32,127,4
2,32,112,128
2,32,124,112
2,32,116,112
2,32,121,108
2,32,127,264
2,32,124,260
2,32,109,80
2,32,114,108
2,32,119,112
2,32,120,16
2,32,127,480
2,32,109,88
2,32,121,116
2,32,107,116
2,32,121,124
2,32,124,272
2,32,127,192
2,32,107,116
2,32,121,116
2,32,119,124
2,32,118,16
2,32,127,480
2,32,119,128
2,32,121,124
2,32,124,120
2,32,121,120
2,32,127,256
2,32,127,192
2,32,114,112
2,32,124,132
2,32,121,128
2,32,118,16
2,32,127,480
2,32,116,104
2,32,124,124
2,32,114,116
2,32,121,128
2,32,127,280
2,32,121,212
2,32,92,92
2,32,114,120
2,32,119,120
2,32,118,16
2,32,112,480
2,32,116,120
2,32,121,124
2,32,109,124
2,32,119,128
2,32,124,208
2,32,124,180
2,32,109,112
2,32,119,128
2,32,121,128
2,32,118,16
2,32,121,480
2,32,112,124
2,32,124,128
2,32,109,124
2,32,127,128
2,32,127,232
2,32,127,204
2,32,107,108
2,32,121,128
2,32,121,124
2,32,118,16
2,32,124,480
2,32,121,128
2,32,127,128
2,32,116,120
2,32,127,128
2,32,124,240
2,32,127,184
2,32,109,120
2,32,121,128
2,32,114,132
2,32,118,16
2,32,124,480
2,32,114,120
2,32,119,132
2,32,116,120
2,32,121,128
2,32,127,280
2,32,124,176
2,32,114,124
2,32,119,128
2,32,121,132
2,32,118,16
2,29,127,672
2,29,102,68
2,30,117,100
2,30,124,100
2,29,127,200
2,30,127,208
2,29,117,140
2,32,127,160
2,32,111,84
2,32,104,96
2,32,124,108
2,32,124,16
2,29,127,128
2,29,120,116
2,30,117,116
2,30,127,120
2,29,127,244
2,30,127,196
2,29,127,124
2,32,120,148
2,32,114,92
2,32,114,112
2,32,127,104
2,32,127,16
2,29,127,128
2,29,124,100
2,30,124,108
2,30,127,108
2,29,127,192
2,30,127,172
2,29,127,124
2,32,127,160
2,32,109,96
2,32,120,100
2,32,127,108
2,32,127,16
2,29,127,128
2,29,124,104
2,30,124,112
2,30,127,100
2,29,127,196
2,30,127,184
2,29,127,116
2,32,127,148
2,32,109,92
2,32,120,104
2,32,127,112
2,32,127,16
2,29,127,128
2,29,117,108
2,30,120,104
2,30,124,116
2,29,127,212
2,30,127,204
2,29,124,124
2,32,127,172
2,32,120,108
2,32,124,116
2,32,124,112
2,32,127,16
2,29,127,128
2,29,120,112
2,30,120,116
2,30,120,112
2,29,127,216
2,30,127,208
2,29,120,128
2,32,120,160
2,32,109,124
2,32,124,124
2,32,127,124
2,32,127,16
2,29,127,128
2,29,114,108
2,30,114,108
2,30,120,116
2,29,127,216
2,30,127,196
2,29,124,116
2,32,127,160
2,32,109,100
2,32,120,104
2,32,127,104
2,32,127,16
2,29,127,128
2,29,114,112
2,30,114,108
2,30,120,112
2,29,120,208
2,30,127,200
2,29,127,112
2,32,127,180
2,32,120,132
2,32,120,108
3,56,114,1288
3,61,127,0
3,65,116,0
3,56,109,76
3,61,124,0
3,65,119,0
3,58,112,68
3,61,121,0
3,66,124,0
3,58,112,72
3,61,116,0
3,66,114,0
3,56,112,248
3,61,127,0
3,65,119,0
3,58,119,244
3,61,127,0
3,66,124,0
3,56,114,156
3,61,124,0
3,65,116,0
3,56,105,180
3,60,115,0
3,63,111,0
3,56,127,28
3,61,127,0
3,65,127,0
3,56,104,60
3,61,112,0
3,65,109,0
3,58,106,64
3,61,116,0
3,66,116,0
3,58,107,68
3,61,119,0
3,66,116,0
3,56,127,244
3,61,127,0
3,65,124,0
3,58,116,244
3,61,127,0
3,66,121,0
3,56,114,144
3,61,121,0
3,65,121,0
3,56,112,164
3,60,121,0
3,63,124,0
3,56,114,212
3,61,127,0
3,65,116,0
3,56,109,76
3,61,124,0
3,65,119,0
3,58,112,68
3,61,121,0
3,66,124,0
3,58,112,72
3,61,116,0
3,66,114,0
3,56,112,248
3,61,127,0
3,65,119,0
3,58,119,244
3,61,127,0
3,66,124,0
3,56,114,156
3,61,124,0
3,65,116,0
3,56,112,180
3,60,124,0
3,63,121,0
3,56,127,28
3,61,127,0
3,65,127,0
3,56,104,60
3,61,112,0
3,65,109,0
3,58,106,64
3,61,116,0
3,66,116,0
3,58,107,68
3,61,119,0
3,66,116,0
3,56,127,244
3,61,127,0
3,65,124,0
3,58,116,244
3,61,127,0
3,66,121,0
3,56,114,144
3,61,121,0
3,65,121,0
3,56,112,164
3,60,121,0
3,63,124,0
3,56,114,212
3,61,127,0
3,65,116,0
3,56,109,76
3,61,124,0
3,65,119,0
3,58,112,68
3,61,121,0
3,66,124,0
3,58,112,72
3,61,116,0
3,66,114,0
3,56,112,248
3,61,127,0
3,65,119,0
3,58,119,244
3,61,127,0
3,66,124,0
3,56,114,156
3,61,124,0
3,65,116,0
3,56,112,180
3,60,124,0
3,63,121,0
3,56,127,28
3,61,127,0
3,65,127,0
3,56,104,60
3,61,112,0
3,65,109,0
3,58,106,64
3,61,116,0
3,66,116,0
3,58,107,68
3,61,119,0
3,66,116,0
3,56,127,244
3,61,127,0
3,65,124,0
3,58,116,244
3,61,127,0
3,66,121,0
3,56,114,144
3,61,121,0
3,65,121,0
3,56,112,164
3,60,121,0
3,63,124,0
3,56,114,212
3,61,127,0
3,65,116,0
3,56,109,76
3,61,124,0
3,65,119,0
3,58,112,68
3,61,121,0
