track,note,velocity,time
1,36,127,1152
1,36,0,12
1,36,95,36
1,36,0,12
1,36,89,36
1,36,0,12
1,36,127,277
1,36,0,12
1,36,127,372
1,36,0,12
1,36,127,372
1,36,0,12
1,36,127,372
1,36,0,12
1,36,127,371
1,36,0,12
1,36,127,373
1,36,0,12
1,36,127,370
1,36,0,12
1,36,127,374
1,36,0,12
1,36,127,371
1,36,0,12
1,36,127,373
1,36,0,12
1,36,127,370
1,36,0,12
1,36,127,375
1,36,0,12
1,36,127,370
1,36,0,12
1,36,127,374
1,36,0,12
1,36,127,369
1,36,0,12
1,36,127,375
1,36,0,12
1,36,127,372
1,36,0,12
1,36,127,371
1,36,0,12
1,36,127,371
1,36,0,12
1,36,127,374
1,36,0,12
1,36,127,372
1,36,0,12
1,36,127,372
1,36,0,12
1,36,127,371
1,36,0,12
1,36,127,373
1,36,0,12
1,36,127,371
1,36,0,12
1,36,127,372
1,36,0,12
1,36,127,370
1,36,0,12
1,36,127,374
1,36,0,12
1,36,127,372
1,36,0,12
1,36,127,372
1,36,0,12
1,36,127,372
1,36,0,12
1,36,127,372
1,36,0,12
1,36,127,372
1,36,0,12
1,36,127,372
1,36,0,12
1,36,127,372
1,36,0,12
1,36,127,372
1,36,0,12
1,36,127,372
1,36,0,12
1,36,127,373
1,36,0,12
1,36,127,371
1,36,0,12
1,36,127,374
1,36,0,12
1,36,127,370
1,36,0,12
1,36,127,374
1,36,0,12
1,36,127,370
1,36,0,12
1,36,127,374
1,36,0,12
1,36,127,370
1,36,0,12
1,36,127,373
1,36,0,12
1,36,127,371
1,36,0,12
1,36,127,373
1,36,0,12
1,36,127,371
1,36,0,12
1,36,127,373
1,36,0,12
1,36,127,371
1,36,0,12
1,36,127,372
1,36,0,12
1,36,127,372
1,36,0,12
1,36,127,373
1,36,0,12
1,36,127,371
1,36,0,12
1,36,127,371
1,36,0,12
1,36,127,373
1,36,0,12
1,36,127,372
1,36,0,12
1,36,127,372
1,36,0,12
1,36,127,373
1,36,0,12
1,36,127,371
1,36,0,12
1,36,127,372
1,36,0,12
1,36,127,373
1,36,0,12
1,36,127,372
1,36,0,12
1,36,127,371
1,36,0,12
1,36,127,373
1,36,0,12
1,36,127,371
1,36,0,12
1,36,127,372
1,36,0,12
1,36,127,372
1,36,0,12
1,36,127,372
1,36,0,12
1,36,127,372
1,36,0,12
1,36,127,372
1,36,0,12
1,36,127,372
1,36,0,12
1,36,127,372
1,36,0,12
1,36,127,372
1,36,0,12
1,36,127,372
1,36,0,12
1,36,127,372
1,36,0,12
1,36,127,372
1,36,0,12
1,36,127,372
1,36,0,12
1,36,127,372
1,36,0,12
1,36,127,372
1,36,0,12
1,36,127,373
1,36,0,12
1,36,127,372
1,36,0,12
1,36,127,371
1,36,0,12
1,36,127,371
1,36,0,12
1,36,127,374
1,36,0,12
1,36,127,370
1,36,0,12
1,36,127,373
1,36,0,12
1,36,127,371
1,36,0,12
1,36,127,374
1,36,0,12
1,36,127,371
1,36,0,12
1,36,127,372
1,36,0,12
1,36,127,371
1,36,0,12
1,36,127,373
1,36,0,12
1,36,127,371
1,36,0,12
1,36,127,374
1,36,0,12
1,36,127,371
1,36,0,12
1,36,127,371
1,36,0,12
1,36,127,374
1,36,0,12
1,36,127,371
1,36,0,12
1,36,127,371
1,36,0,12
1,36,127,373
1,36,0,12
1,36,127,372
1,36,0,12
1,36,127,372
1,36,0,12
1,36,127,372
1,36,0,12
1,36,127,372
1,36,0,12
1,36,127,372
1,36,0,12
1,36,127,372
1,36,0,12
1,36,127,371
1,36,0,12
1,36,127,373
1,36,0,12
1,36,127,371
1,36,0,12
1,36,127,373
1,36,0,12
1,36,127,371
1,36,0,12
1,36,127,373
1,36,0,12
1,36,127,372
1,36,0,12
1,36,127,373
1,36,0,12
1,36,127,372
1,36,0,12
1,36,127,372
1,36,0,12
1,36,127,371
1,36,0,12
1,36,127,373
1,36,0,12
1,36,127,371
1,36,0,12
1,36,127,372
1,36,0,12
1,36,127,372
1,36,0,12
1,36,127,372
1,36,0,12
1,36,127,372
1,36,0,12
1,36,127,373
1,36,0,12
1,36,127,371
1,36,0,12
1,36,127,373
1,36,0,12
1,36,127,371
1,36,0,12
1,36,127,373
1,36,0,12
1,36,127,370
1,36,0,12
1,36,127,373
1,36,0,12
1,36,127,372
1,36,0,12
1,36,127,372
1,36,0,12
1,36,127,372
1,36,0,12
1,36,127,372
1,36,0,12
1,36,127,372
1,36,0,12
1,36,127,372
1,36,0,12
1,36,127,372
1,36,0,12
1,36,127,372
1,36,0,12
1,36,127,371
1,36,0,12
1,36,127,374
1,36,0,12
1,36,127,369
1,36,0,12
1,36,127,375
1,36,0,12
1,36,127,371
1,36,0,12
1,36,127,373
1,36,0,12
1,36,127,370
1,36,0,12
1,36,127,374
1,36,0,12
1,36,127,369
1,36,0,12
1,36,127,375
1,36,0,12
1,36,127,370
1,36,0,12
1,36,127,373
1,36,0,12
1,36,127,371
1,36,0,12
1,36,127,372
1,36,0,12
1,36,127,373
1,36,0,12
1,36,127,370
1,36,0,12
1,36,127,373
1,36,0,12
1,36,127,374
1,36,0,12
1,36,127,370
1,36,0,12
1,36,127,373
1,36,0,12
1,36,127,371
1,36,0,12
1,36,127,372
1,36,0,12
1,36,127,372
1,36,0,12
1,36,127,373
1,36,0,12
1,36,127,372
1,36,0,12
1,36,127,372
1,36,0,12
1,36,127,371
1,36,0,12
1,36,127,373
1,36,0,12
1,36,127,372
1,36,0,12
1,36,127,370
1,36,0,12
1,36,127,374
1,36,0,12
1,36,127,373
1,36,0,12
1,36,127,371
1,36,0,12
1,36,127,372
1,36,0,12
1,36,127,372
1,36,0,12
1,36,127,373
1,36,0,12
1,36,127,371
1,36,0,12
1,36,127,372
1,36,0,12
1,36,127,372
1,36,0,12
1,36,127,372
1,36,0,12
1,36,127,372
1,36,0,12
1,36,127,372
1,36,0,12
1,36,127,373
1,36,0,12
1,36,127,371
1,36,0,12
1,36,127,372
1,36,0,12
1,36,127,373
1,36,0,12
1,36,127,370
1,36,0,12
1,36,127,374
1,36,0,12
1,36,127,371
1,36,0,12
1,36,127,373
1,36,0,12
1,36,127,371
1,36,0,12
1,36,127,373
1,36,0,12
1,36,127,370
1,36,0,12
1,36,127,374
1,36,0,12
1,36,127,370
1,36,0,12
1,36,127,374
1,36,0,12
1,36,127,370
1,36,0,12
1,36,127,373
1,36,0,12
1,36,127,371
1,36,0,12
1,36,127,373
1,36,0,12
1,36,127,371
1,36,0,12
1,36,127,374
1,36,0,12
1,36,127,371
1,36,0,12
1,36,127,372
1,36,0,12
1,36,127,372
1,36,0,12
1,36,127,372
1,36,0,12
1,36,127,372
1,36,0,12
1,36,127,372
1,36,0,12
1,36,102,371
1,36,0,12
2,38,105,1344
2,38,0,12
2,38,123,374
2,38,0,12
2,38,123,372
2,38,0,12
2,38,123,372
2,38,0,12
2,38,123,369
2,38,0,12
2,38,123,374
2,38,0,12
2,38,123,372
2,38,0,12
2,38,123,372
2,38,0,12
2,38,123,372
2,38,0,12
2,38,123,372
2,38,0,12
2,38,123,372
2,38,0,12
2,38,123,372
2,38,0,12
2,38,123,372
2,38,0,12
2,38,123,372
2,38,0,12
2,38,123,373
2,38,0,12
2,38,123,372
2,38,0,12
2,38,123,371
2,38,0,12
2,38,123,372
2,38,0,12
2,38,123,372
2,38,0,12
2,38,123,373
2,38,0,12
2,38,123,372
2,38,0,12
2,38,123,372
2,38,0,12
2,38,123,372
2,38,0,12
2,38,123,371
2,38,0,12
2,38,123,372
2,38,0,12
2,38,123,373
2,38,0,12
2,38,123,372
2,38,0,12
2,38,123,371
2,38,0,12
2,38,123,372
2,38,0,12
2,38,123,372
2,38,0,12
2,38,123,372
2,38,0,12
2,38,123,371
2,38,0,12
2,38,123,373
2,38,0,12
2,38,123,374
2,38,0,12
2,38,123,370
2,38,0,12
2,38,123,372
2,38,0,12
2,38,123,372
2,38,0,12
2,38,123,372
2,38,0,12
2,38,123,372
2,38,0,12
2,38,123,373
2,38,0,12
2,38,123,372
2,38,0,12
2,38,123,372
2,38,0,12
2,38,123,373
2,38,0,12
2,38,123,371
2,38,0,12
2,38,123,373
2,38,0,12
2,38,123,371
2,38,0,12
2,38,123,373
2,38,0,12
2,38,123,371
2,38,0,12
2,38,123,372
2,38,0,12
2,38,123,372
2,38,0,12
2,38,123,372
2,38,0,12
2,38,123,372
2,38,0,12
2,38,123,371
2,38,0,12
2,38,123,372
2,38,0,12
2,38,123,372
2,38,0,12
2,38,123,373
2,38,0,12
2,38,123,371
2,38,0,12
2,38,123,374
2,38,0,12
2,38,123,371
2,38,0,12
2,38,123,371
2,38,0,12
2,38,123,374
2,38,0,12
2,38,123,370
2,38,0,12
2,38,123,373
2,38,0,12
2,38,123,371
2,38,0,12
2,38,123,372
2,38,0,12
2,38,123,374
2,38,0,12
2,38,123,370
2,38,0,12
2,38,123,372
2,38,0,12
2,38,123,372
2,38,0,12
2,38,123,372
2,38,0,12
2,38,123,370
2,38,0,12
2,38,123,375
2,38,0,12
2,38,123,373
2,38,0,12
2,38,123,371
2,38,0,12
2,38,123,371
2,38,0,12
2,38,123,372
2,38,0,12
2,38,123,373
2,38,0,12
2,38,123,369
2,38,0,12
2,38,123,374
2,38,0,12
2,38,123,373
2,38,0,12
2,38,123,368
2,38,0,12
2,38,123,375
2,38,0,12
2,38,123,370
2,38,0,12
2,38,123,375
2,38,0,12
2,38,123,371
2,38,0,12
2,38,123,372
2,38,0,12
2,38,123,373
2,38,0,12
2,38,123,372
2,38,0,12
2,38,123,369
2,38,0,12
2,38,123,375
2,38,0,12
2,38,123,371
2,38,0,12
2,38,123,372
2,38,0,12
2,38,123,372
2,38,0,12
2,38,123,372
2,38,0,12
2,38,123,372
2,38,0,12
2,38,123,370
2,38,0,12
2,38,123,375
2,38,0,12
2,38,123,372
2,38,0,12
2,38,123,371
2,38,0,12
2,38,123,373
2,38,0,12
2,38,123,371
2,38,0,12
2,38,123,371
2,38,0,12
2,38,123,373
2,38,0,12
2,38,123,373
2,38,0,12
2,38,123,372
2,38,0,12
2,38,123,372
2,38,0,12
2,38,123,372
2,38,0,12
2,38,123,371
2,38,0,12
2,38,123,372
2,38,0,12
2,38,123,372
2,38,0,12
2,38,123,372
2,38,0,12
2,38,123,372
2,38,0,12
2,38,123,372
2,38,0,12
2,38,123,375
2,38,0,12
2,38,123,369
2,38,0,12
2,38,123,373
2,38,0,12
2,38,123,372
2,38,0,12
2,38,123,372
2,38,0,12
2,38,123,372
2,38,0,12
2,38,123,372
2,38,0,12
2,38,123,369
2,38,0,12
2,38,123,375
2,38,0,12
2,38,123,372
2,38,0,12
2,38,123,372
2,38,0,12
2,38,123,371
2,38,0,12
2,38,123,373
2,38,0,12
2,38,123,372
2,38,0,12
2,38,123,372
2,38,0,12
2,38,123,372
2,38,0,12
2,38,123,372
2,38,0,12
2,38,123,372
2,38,0,12
2,38,123,371
2,38,0,12
2,38,123,372
2,38,0,12
2,38,123,372
2,38,0,12
2,38,123,372
2,38,0,12
2,38,123,372
2,38,0,12
2,38,123,372
2,38,0,12
2,38,123,373
2,38,0,12
2,38,123,371
2,38,0,12
2,38,123,373
2,38,0,12
2,38,123,371
2,38,0,12
2,38,123,373
2,38,0,12
2,38,123,371
2,38,0,12
2,38,123,373
2,38,0,12
2,38,123,372
2,38,0,12
2,38,123,372
2,38,0,12
2,38,123,372
2,38,0,12
2,38,123,371
2,38,0,12
2,38,123,373
2,38,0,12
2,38,123,375
2,38,0,12
2,38,123,367
2,38,0,12
2,38,123,374
2,38,0,12
2,38,123,373
2,38,0,12
2,38,123,370
2,38,0,12
2,38,123,371
2,38,0,12
2,38,123,371
2,38,0,12
2,38,123,377
2,38,0,12
2,38,123,369
2,38,0,12
2,38,123,373
2,38,0,12
2,38,123,371
2,38,0,12
2,38,123,373
2,38,0,12
2,38,123,370
2,38,0,12
2,38,123,373
2,38,0,12
2,38,123,371
2,38,0,12
2,38,123,372
2,38,0,12
2,38,123,373
2,38,0,12
2,38,123,372
2,38,0,12
2,38,123,372
2,38,0,12
2,38,123,372
2,38,0,12
2,38,123,372
2,38,0,12
2,38,123,372
2,38,0,12
2,38,123,372
2,38,0,12
2,38,123,372
2,38,0,12
2,38,123,372
2,38,0,12
2,38,123,373
2,38,0,12
2,38,123,371
2,38,0,12
2,38,123,372
2,38,0,12
2,38,123,372
2,38,0,12
2,38,123,372
2,38,0,12
2,38,123,372
2,38,0,12
2,38,123,372
2,38,0,12
2,38,123,372
2,38,0,12
2,38,123,373
2,38,0,12
2,38,123,372
2,38,0,12
2,38,123,372
2,38,0,12
2,38,123,372
2,38,0,12
2,38,123,372
2,38,0,12
2,38,123,371
2,38,0,12
2,38,123,373
2,38,0,12
2,38,123,372
2,38,0,12
2,38,123,371
2,38,0,12
2,38,123,372
2,38,0,12
2,38,123,372
2,38,0,12
2,38,123,372
2,38,0,12
2,38,123,372
2,38,0,12
2,38,123,372
2,38,0,12
2,38,123,372
2,38,0,12
2,38,123,372
2,38,0,12
2,38,123,372
2,38,0,12
2,38,123,371
2,38,0,12
2,38,123,373
2,38,0,12
2,38,123,372
2,38,0,12
2,38,123,372
2,38,0,12
2,38,123,372
2,38,0,12
2,38,123,373
2,38,0,12
2,38,123,371
2,38,0,12
2,38,123,372
2,38,0,12
2,38,123,373
2,38,0,12
2,38,103,274
2,38,0,12
2,38,123,85
2,38,0,12
2,38,119,82
2,38,0,12
2,38,95,36
2,38,0,12
3,42,127,769
3,42,0,12
3,42,127,179
3,42,0,12
3,42,127,468
3,42,0,12
3,42,119,85
3,42,0,12
3,42,110,83
3,42,0,12
3,42,114,86
3,42,0,12
3,42,110,81
3,42,0,12
3,42,110,84
3,42,0,12
3,42,110,84
3,42,0,12
3,42,110,84
3,42,0,12
3,42,108,84
3,42,0,12
3,42,119,86
3,42,0,12
3,42,110,83
3,42,0,12
3,42,114,86
3,42,0,12
3,42,110,81
3,42,0,12
3,42,110,84
3,42,0,12
3,42,110,84
3,42,0,12
3,42,110,84
3,42,0,12
3,42,108,84
3,42,0,12
3,42,119,85
3,42,0,12
3,42,110,85
3,42,0,12
3,42,114,84
3,42,0,12
3,42,110,83
3,42,0,12
3,42,110,85
3,42,0,12
3,42,110,83
3,42,0,12
3,42,110,84
3,42,0,12
3,42,108,84
3,42,0,12
3,42,119,83
3,42,0,12
3,42,110,85
3,42,0,12
3,42,114,85
3,42,0,12
3,42,110,83
3,42,0,12
3,42,110,85
3,42,0,12
3,42,110,83
3,42,0,12
3,42,110,85
3,42,0,12
3,42,108,83
3,42,0,12
3,42,119,84
3,42,0,12
3,42,110,84
3,42,0,12
3,42,114,84
3,42,0,12
3,42,110,84
3,42,0,12
3,42,110,85
3,42,0,12
3,42,110,83
3,42,0,12
3,42,110,85
3,42,0,12
3,42,108,83
3,42,0,12
3,42,119,83
3,42,0,12
3,42,110,85
3,42,0,12
3,42,114,84
3,42,0,12
3,42,110,85
3,42,0,12
3,42,110,85
3,42,0,12
3,42,110,82
3,42,0,12
3,42,110,85
3,42,0,12
3,42,108,83
3,42,0,12
3,42,119,84
3,42,0,12
3,42,110,84
3,42,0,12
3,42,114,84
3,42,0,12
3,42,110,84
3,42,0,12
3,42,110,86
3,42,0,12
3,42,110,82
3,42,0,12
3,42,110,86
3,42,0,12
3,42,108,82
3,42,0,12
3,42,119,83
3,42,0,12
3,42,110,85
3,42,0,12
3,42,114,84
3,42,0,12
3,42,110,84
3,42,0,12
3,42,110,86
3,42,0,12
3,42,110,81
3,42,0,12
3,42,110,86
3,42,0,12
3,42,108,82
3,42,0,12
3,42,119,87
3,42,0,12
3,42,110,82
3,42,0,12
3,42,114,83
3,42,0,12
3,42,110,85
3,42,0,12
3,42,110,83
3,42,0,12
3,42,110,85
3,42,0,12
3,42,110,85
3,42,0,12
3,42,108,82
3,42,0,12
3,42,119,85
3,42,0,12
