track,note,velocity,time
1,43,100,4
1,38,110,210
1,43,100,222
1,38,110,210
1,43,100,216
1,36,110,210
1,43,100,222
1,38,110,210
1,43,100,222
1,36,110,208
1,43,100,224
1,38,110,210
1,42,100,222
1,38,110,218
1,43,100,220
1,38,110,216
1,43,110,222
1,38,120,210
1,43,110,212
1,38,120,208
1,43,110,216
1,36,120,208
1,43,110,216
1,38,120,210
1,38,75,1754
1,50,75,424
1,43,85,48
1,43,85,26
1,31,120,26
1,43,100,234
1,38,110,210
1,43,100,224
1,38,110,208
1,43,100,224
1,36,110,208
1,43,100,224
1,38,110,208
1,43,100,224
1,36,110,208
1,43,100,218
1,38,110,210
1,42,100,224
1,38,110,216
1,43,100,222
1,38,110,208
1,43,100,220
1,38,110,210
1,43,100,224
1,38,110,210
1,43,100,216
1,36,110,208
1,43,110,214
1,38,120,208
1,38,75,1754
1,38,75,416
1,43,85,48
1,31,120,224
1,35,110,224
1,31,120,216
1,35,110,224
1,31,120,220
1,36,110,218
1,31,120,212
1,36,110,226
1,34,120,216
1,33,110,226
1,29,120,212
1,33,110,226
1,29,120,216
1,34,110,218
1,29,120,218
1,34,110,222
1,29,120,214
1,42,70,220
1,38,70,210
1,42,70,220
1,38,70,210
1,39,70,216
1,34,70,208
1,39,70,218
1,34,70,208
1,42,120,226
1,38,100,472
1,40,120,2
1,42,100,186
1,43,100,300
1,43,115,28
1,43,100,384
1,31,100,198
1,35,110,204
1,31,120,210
1,35,110,226
1,31,120,216
1,36,110,218
1,31,120,214
1,36,110,222
1,34,120,218
1,33,110,224
1,29,120,220
1,33,110,224
1,29,120,218
1,34,110,214
1,29,120,220
1,34,110,218
1,29,120,218
1,42,70,216
1,38,70,210
1,42,70,220
1,38,70,210
1,39,70,222
1,34,70,212
1,39,70,222
1,34,70,208
1,42,120,230
1,38,100,468
1,40,120,2
1,42,100,194
1,43,100,296
1,43,115,28
1,43,100,0
1,31,100,36
1,31,100,204
1,38,100,184
1,31,100,0
1,38,100,188
1,31,100,0
1,38,100,190
1,31,100,0
1,38,100,0
1,31,100,0
1,38,120,190
1,31,100,190
1,38,120,0
1,31,100,0
1,38,100,188
1,31,100,0
1,38,100,192
1,31,100,0
1,38,100,188
1,31,100,176
1,38,100,192
1,31,100,198
1,38,120,176
1,31,100,188
1,38,120,0
1,31,100,188
1,38,100,0
1,31,100,198
1,38,100,192
1,31,100,186
1,38,100,0
1,31,100,196
1,38,100,194
1,31,100,0
1,38,120,180
1,31,100,190
1,38,120,0
1,31,100,0
1,38,100,194
1,31,100,0
1,38,100,202
1,31,100,194
1,38,100,190
1,31,100,0
1,38,100,198
1,31,100,200
1,38,120,0
1,31,100,190
1,38,120,0
1,31,80,2
1,31,80,84
1,31,80,82
1,31,80,82
1,31,80,0
1,43,80,0
1,40,80,16
1,36,80,2
1,31,80,2
1,43,80,0
1,31,80,230
1,31,80,82
1,31,80,82
1,31,80,78
1,31,80,78
1,36,80,4
1,38,80,16
1,38,80,16
1,31,80,4
1,43,80,374
1,31,80,204
1,31,80,88
1,31,80,82
1,31,80,86
1,31,80,2
1,43,80,16
1,40,80,2
1,36,80,0
1,31,80,2
1,43,80,0
1,31,80,0
1,31,80,84
1,31,80,82
1,31,80,88
1,31,80,2
1,36,80,4
1,38,80,2
1,38,80,2
1,31,80,2
1,43,80,380
1,43,100,210
1,38,110,210
1,43,100,218
1,38,110,210
1,43,100,220
1,36,110,208
1,43,100,224
1,38,110,210
1,43,100,222
1,36,110,208
1,43,100,220
1,38,110,206
1,42,100,220
1,38,110,214
1,43,100,224
1,38,110,208
1,43,100,220
1,38,110,212
1,43,100,220
1,38,110,216
1,43,100,224
1,36,110,206
1,43,110,212
1,38,120,208
1,38,75,1756
1,38,75,418
1,43,85,46
1,31,120,218
1,35,110,222
1,31,120,216
1,35,110,222
1,31,120,218
1,36,110,216
1,31,120,216
1,36,110,220
1,34,120,214
1,33,110,220
1,29,120,214
1,33,110,222
1,29,120,212
1,34,110,220
1,29,120,208
1,34,110,222
1,29,120,216
1,42,70,222
1,38,70,210
1,42,70,220
1,38,70,210
1,39,70,222
1,34,70,210
1,39,70,222
1,34,70,212
1,42,120,224
1,38,100,480
1,40,120,102
1,42,100,196
1,43,100,298
1,43,115,16
1,43,100,12
1,31,100,26
1,35,110,206
1,31,120,214
1,35,110,222
1,31,120,210
1,36,110,212
1,31,120,210
1,36,110,218
1,34,120,216
1,33,110,222
1,29,120,208
1,33,110,216
1,29,120,218
1,34,110,214
1,29,120,210
1,34,110,214
1,29,120,216
1,42,70,222
1,38,70,210
1,42,70,216
1,38,70,208
1,39,70,216
1,34,70,208
1,39,70,220
1,34,70,210
1,42,120,224
1,38,100,482
1,40,120,100
1,42,100,192
1,43,100,298
1,43,115,16
1,43,100,16
1,31,100,26
1,36,120,214
1,38,120,198
1,43,120,204
2,62,110,2232
2,67,115,296
2,70,110,2
2,67,115,2
2,66,110,0
2,67,90,0
2,69,100,0
2,67,110,0
2,63,110,0
2,65,90,0
2,67,100,0
2,62,110,0
2,60,110,494
2,58,110,50
2,58,110,8
2,57,110,0
2,57,110,0
2,62,110,0
2,55,110,0
2,74,110,0
2,62,110,0
2,67,110,2
2,79,110,0
2,82,120,0
2,70,120,0
2,86,110,0
2,74,110,0
2,70,110,2
2,82,110,0
2,78,110,2
2,81,110,2
2,79,110,2
2,82,110,0
2,81,110,0
2,84,110,0
2,79,110,2
2,82,110,2
2,75,80,496
2,77,82,16
2,79,85,20
2,75,82,16
2,74,80,16
2,75,82,16
2,77,85,20
2,74,80,16
2,72,75,24
2,74,80,16
2,75,80,18
2,72,78,16
2,70,75,14
2,72,80,16
2,74,80,18
2,70,75,16
2,72,75,26
2,70,75,84
2,70,75,16
2,69,75,90
2,69,75,12
2,74,75,90
2,67,100,2
2,58,105,0
2,62,105,2
2,55,120,24
2,62,120,0
2,79,120,2
2,70,120,0
2,74,110,10
2,62,100,0
2,67,105,0
2,79,115,0
2,70,110,2
2,82,100,0
2,79,115,0
2,67,105,0
2,66,100,2
2,78,110,2
2,79,90,0
2,67,80,0
2,69,90,0
2,81,100,0
2,67,100,60
2,79,110,4
2,72,110,0
2,75,110,2
2,74,90,2
2,77,90,0
2,75,100,2
2,79,100,0
2,74,110,0
2,70,110,0
2,72,110,2
2,70,110,48
2,70,110,14
2,69,110,2
2,69,110,0
2,74,110,2
2,67,110,0
2,62,100,578
2,62,110,4
2,55,120,2
2,67,120,0
2,70,90,0
2,58,90,0
2,74,100,50
2,62,100,0
2,67,110,56
2,79,110,0
2,70,120,52
2,82,120,2
2,74,110,0
2,86,110,2
2,82,110,0
2,70,110,0
2,78,110,2
2,81,110,0
2,79,110,0
2,82,110,2
2,81,110,0
2,84,110,2
2,82,110,0
2,79,110,0
2,75,80,0
2,77,82,16
2,79,85,18
2,75,82,16
2,74,80,18
2,75,82,16
2,77,85,18
2,74,80,18
2,72,75,26
2,74,80,16
2,75,80,16
2,72,78,16
2,70,75,20
2,72,80,16
2,74,80,18
2,70,75,16
2,72,75,30
2,70,75,82
2,70,75,12
2,69,75,0
2,69,75,0
2,74,75,94
2,67,100,0
2,58,105,0
2,62,105,2
2,79,120,32
2,70,120,0
2,62,120,0
2,55,120,0
2,86,120,180
2,86,120,0
2,87,110,0
2,86,120,0
2,84,110,0
2,83,110,2
2,84,110,8
2,86,110,2
2,84,110,48
2,83,110,0
2,86,110,0
2,84,110,0
2,84,120,204
2,84,120,0
2,86,120,0
2,84,120,2
2,82,110,0
2,81,110,2
2,82,110,54
2,84,110,58
2,82,110,2
2,81,110,0
2,84,110,2
2,82,110,0
2,81,80,2
2,84,80,392
2,82,80,0
2,81,80,0
2,79,80,0
2,78,80,100
2,79,80,0
2,81,80,2
2,79,80,2
2,78,80,0
2,81,80,50
2,79,80,2
2,62,120,206
2,74,120,2
2,78,120,0
2,74,110,474
2,62,110,0
2,76,110,2
2,78,110,190
2,81,100,206
2,79,100,2
2,79,110,2
2,78,110,2
2,79,110,2
2,81,110,2
2,79,110,2
2,78,110,2
2,81,110,50
2,79,110,0
2,86,120,2
2,86,120,14
2,87,110,0
2,86,120,2
2,84,110,2
2,83,110,2
2,84,110,6
2,86,110,0
2,84,110,0
2,83,110,0
2,86,110,48
2,84,110,0
2,84,120,2
2,84,120,2
2,86,110,0
2,84,120,0
2,82,110,4
2,81,110,0
2,82,110,52
2,84,110,0
2,82,110,2
2,81,110,0
2,84,110,0
2,82,110,2
2,81,80,0
2,84,80,0
2,82,80,102
2,81,80,100
2,79,80,2
2,78,80,0
2,79,80,0
2,81,80,4
2,79,80,0
2,78,80,2
2,81,80,0
2,79,80,0
2,62,120,206
2,74,120,2
2,78,120,0
2,74,110,472
2,62,110,0
2,76,110,0
2,78,110,194
2,81,100,198
2,79,100,8
2,79,110,0
2,78,110,0
2,79,110,46
2,81,110,2
2,79,110,0
2,78,110,0
2,81,110,4
2,79,110,2
2,79,100,0
2,74,100,0
2,74,100,2
2,74,100,0
2,74,100,22
2,72,100,2
2,71,100,0
2,72,100,16
2,74,100,24
2,62,100,0
2,62,100,2
2,74,100,0
2,79,100,12
2,74,100,0
2,74,100,0
2,74,100,2
2,74,100,24
2,72,100,0
2,71,100,98
2,69,100,2
2,55,100,0
2,67,100,0
2,55,100,0
2,67,100,2
2,79,100,10
2,74,100,0
2,74,100,2
2,74,100,2
2,74,100,0
2,72,100,0
2,71,100,2
2,72,100,0
2,62,100,2
2,74,100,0
2,62,100,6
2,74,100,0
2,79,100,10
2,74,100,0
2,74,100,16
2,74,100,2
2,74,100,0
2,72,100,0
2,71,100,0
2,69,100,8
2,55,100,0
2,67,100,2
2,67,100,14
2,55,100,0
2,62,80,2
2,71,80,0
2,64,80,82
2,72,80,2
2,62,80,84
2,71,80,0
2,62,80,80
2,69,80,2
2,83,80,2
2,83,80,2
2,84,80,16
2,84,80,2
2,86,80,0
2,91,80,2
2,86,80,2
2,71,80,230
2,62,80,0
2,72,80,80
2,64,80,0
2,74,80,80
2,66,80,0
2,74,80,78
2,67,80,0
2,86,80,80
2,84,80,18
2,83,80,16
2,81,80,2
2,79,80,24
2,91,80,0
2,79,80,98
2,71,80,236
2,62,80,0
2,64,80,86
2,72,80,0
2,62,80,80
2,71,80,2
2,62,80,80
2,69,80,4
2,83,80,0
2,83,80,4
2,84,80,0
2,84,80,0
2,86,80,2
2,91,80,0
2,86,80,2
2,62,80,0
2,71,80,0
2,64,80,82
2,72,80,4
2,74,80,82
2,66,80,0
2,67,80,86
2,74,80,2
2,86,80,2
2,84,80,20
2,83,80,0
2,81,80,2
2,79,80,2
2,91,80,2
2,79,80,0
2,62,110,240
2,67,115,2
2,70,110,0
2,67,115,4
2,66,110,0
2,67,90,0
2,69,100,0
2,67,110,2
2,63,110,0
2,65,90,0
2,67,100,2
2,62,110,2
2,60,110,0
2,58,110,2
2,58,110,2
2,57,110,2
2,57,110,0
2,62,110,2
2,55,110,0
2,62,100,0
2,62,110,20
2,55,120,2
2,67,120,0
2,58,90,50
2,70,90,0
2,62,100,50
2,74,100,0
2,67,110,54
2,79,110,2
2,82,120,42
2,70,120,0
2,86,110,60
2,74,110,0
2,82,110,2
2,70,110,0
2,78,110,2
2,81,110,0
2,79,110,4
2,82,110,2
2,81,110,0
2,84,110,2
2,82,110,46
2,79,110,0
2,75,80,0
2,77,82,16
2,79,85,14
2,75,82,16
2,74,80,18
2,75,82,16
2,77,85,12
2,74,80,16
2,72,75,28
2,74,80,16
2,75,80,12
2,72,78,16
2,70,75,20
2,72,80,16
2,74,80,14
2,70,75,16
2,72,75,30
2,70,75,0
2,70,75,6
2,69,75,96
2,69,75,2
2,74,75,94
2,67,100,2
2,58,105,2
2,62,105,0
2,55,120,22
2,62,120,0
2,70,120,0
2,79,120,2
2,86,120,196
2,86,120,2
2,87,110,2
2,86,120,2
2,84,110,186
2,83,110,0
2,84,110,46
2,86,110,0
2,84,110,46
2,83,110,0
2,86,110,0
2,84,110,2
2,84,120,200
2,84,120,0
2,86,120,0
2,84,120,292
2,82,110,2
2,81,110,0
2,82,110,52
2,84,110,0
2,82,110,0
2,81,110,0
2,84,110,0
2,82,110,0
2,81,80,2
2,84,80,2
2,82,80,0
2,81,80,0
2,79,80,96
2,78,80,0
2,79,80,0
2,81,80,0
2,79,80,46
2,78,80,0
2,81,80,0
2,79,80,50
2,62,120,204
2,74,120,0
2,78,120,2
2,62,110,0
2,74,110,2
2,76,110,4
2,78,110,2
2,81,100,204
2,79,100,12
2,79,110,16
2,78,110,0
2,79,110,0
2,81,110,0
2,79,110,44
2,78,110,0
2,81,110,0
2,79,110,2
2,86,120,2
2,86,120,2
2,87,110,106
2,86,120,0
2,84,110,2
2,83,110,2
2,84,110,0
2,86,110,2
2,84,110,0
2,83,110,0
2,86,110,2
2,84,110,0
2,84,120,0
2,84,120,10
2,86,110,0
2,84,120,0
2,82,110,182
2,81,110,0
2,82,110,2
2,84,110,0
2,82,110,2
2,81,110,0
2,84,110,0
2,82,110,0
2,81,80,200
2,84,80,390
2,82,80,0
2,81,80,0
2,79,80,0
2,78,80,0
2,79,80,0
2,81,80,58
2,79,80,48
2,78,80,0
2,81,80,0
2,79,80,50
2,62,120,204
2,74,120,2
2,78,120,0
2,62,110,0
2,74,110,2
2,76,110,58
2,78,110,194
2,81,100,204
2,79,100,4
2,79,110,4
2,78,110,0
2,79,110,2
2,81,110,2
2,79,110,44
2,78,110,38
2,81,110,2
2,79,110,0
2,63,110,2
2,72,110,0
2,79,110,2
2,62,110,194
2,78,110,4
2,55,110,204
2,62,110,0
2,70,110,0
2,79,110,2
3,50,120,2414
3,58,120,4
3,50,110,0
3,58,110,0
3,50,120,2
3,58,120,0
3,50,110,2
3,58,110,0
3,51,125,0
3,60,125,2
3,51,110,30
3,60,110,0
3,58,125,220
3,50,125,0
3,50,110,0
3,58,110,2
3,51,125,2
3,60,125,0
3,51,110,30
3,60,110,0
3,50,115,212
3,58,115,0
3,58,115,208
3,50,115,0
3,60,115,208
3,50,115,0
3,50,115,214
3,60,115,4
3,50,115,186
3,58,115,0
3,50,115,208
3,58,115,4
3,58,127,182
3,50,127,0
3,50,127,2
3,58,127,2
3,50,127,192
3,58,127,2
3,50,127,2
3,58,127,0
3,60,127,192
3,51,127,0
3,51,127,2
3,60,127,0
3,50,127,194
3,58,127,2
3,50,127,0
3,58,127,2
3,55,110,0
3,58,115,48
3,53,110,64
3,57,115,50
3,51,110,58
3,55,115,48
3,50,110,64
3,58,115,48
3,50,110,58
3,60,115,54
3,50,115,260
3,60,115,2
3,50,120,186
3,58,120,0
3,67,127,0
3,67,120,180
3,58,120,0
3,58,110,2
3,67,110,0
3,67,120,4
3,58,120,0
3,67,110,194
3,58,110,0
3,60,125,0
3,69,125,2
3,69,110,28
3,60,110,0
3,67,120,208
3,58,120,0
3,67,110,192
3,58,110,0
3,63,125,210
3,60,125,0
3,60,110,32
3,63,110,0
3,58,120,218
3,67,120,2
3,67,110,4
3,58,110,0
3,66,120,208
3,57,120,0
3,57,110,0
3,66,110,2
3,58,120,2
3,67,120,2
3,58,110,0
3,67,110,2
3,67,120,208
3,58,120,0
3,58,110,2
3,67,110,2
3,67,120,208
3,58,120,0
3,67,110,192
3,58,110,0
3,69,125,210
3,60,125,0
3,60,110,30
3,69,110,0
3,55,127,186
3,58,127,2
3,55,127,0
3,58,127,0
3,58,100,24
3,63,80,80
3,57,100,72
3,62,80,72
3,55,100,90
3,60,80,74
3,53,100,74
3,58,80,74
3,54,115,270
3,62,115,0
3,54,115,256
3,60,115,2
3,58,120,62
3,50,120,0
3,55,120,22
3,62,120,0
3,67,127,34
3,50,127,0
3,58,127,0
3,74,127,206
3,74,127,0
3,75,127,0
3,74,127,0
3,72,127,0
3,71,127,0
3,72,127,2
3,74,127,60
3,72,127,48
3,71,127,48
3,74,127,0
3,72,127,0
3,72,127,2
3,72,127,16
3,74,127,106
