track,note,velocity,time
0,63,127,960
0,67,112,0
0,68,127,0
0,92,95,0
0,35,127,0
0,42,93,0
0,52,100,0
0,63,72,64
0,68,66,0
0,29,127,32
0,56,114,0
0,61,127,0
0,65,116,0
0,63,63,0
0,42,56,0
0,63,90,76
0,68,99,0
0,29,102,32
0,56,109,0
0,61,124,0
0,65,119,0
0,35,124,0
0,39,113,0
0,40,127,0
0,42,127,0
0,63,43,4
0,68,73,0
0,30,117,56
0,58,112,0
0,61,121,0
0,66,124,0
0,63,114,0
0,68,127,0
0,42,54,0
0,63,65,4
0,68,61,0
0,30,124,52
0,58,112,0
0,61,116,0
0,66,114,0
0,63,69,0
0,68,59,0
0,35,127,0
0,42,80,0
0,63,94,72
0,68,86,0
0,63,61,8
0,68,65,0
0,42,54,0
0,63,56,72
0,68,52,0
0,29,127,68
0,56,112,0
0,61,127,0
0,65,119,0
0,63,124,0
0,68,127,0
0,35,127,0
0,39,117,0
0,40,127,0
0,42,117,0
0,63,70,52
0,68,70,0
0,63,74,16
0,68,70,0
0,42,61,0
0,63,76,64
0,68,66,0
0,30,127,60
0,58,119,0
0,61,127,0
0,66,124,0
0,63,120,0
0,68,120,0
0,35,127,0
0,42,76,0
0,63,63,52
0,68,60,0
0,63,58,44
0,68,63,0
0,42,56,0
0,29,117,60
0,56,114,0
0,61,124,0
0,65,116,0
0,63,104,0
0,68,102,0
0,35,127,0
0,39,117,0
0,40,127,0
0,42,117,0
0,63,59,64
0,68,52,0
0,32,127,60
0,56,105,0
0,60,115,0
0,63,111,0
0,63,120,0
0,68,120,0
0,42,67,0
0,63,70,48
0,68,66,0
0,63,54,48
0,68,63,0
0,35,127,0
0,42,82,0
0,63,86,0
0,68,79,0
0,32,111,36
0,42,51,0
0,63,77,0
0,68,59,0
0,32,104,60
0,72,113,0
0,80,115,0
0,63,124,0
0,67,70,0
0,68,127,0
0,35,127,0
0,39,117,0
0,40,127,0
0,42,107,0
0,63,59,12
0,68,33,0
0,32,124,44
0,63,79,0
0,68,78,0
0,42,67,0
0,32,124,16
0,63,77,0
0,68,64,0
0,72,110,24
0,80,114,0
0,63,124,0
0,68,117,0
0,35,127,0
0,42,74,0
0,63,74,4
0,68,61,0
0,29,127,20
0,56,127,0
0,61,127,0
0,65,127,0
0,63,70,0
0,68,76,0
0,42,62,0
0,63,92,0
0,68,90,0
0,29,120,12
0,56,104,0
0,61,112,0
0,65,109,0
0,35,127,0
0,39,117,0
0,40,127,0
0,42,117,0
0,63,74,20
0,68,62,0
0,30,117,56
0,58,106,0
0,61,116,0
0,66,116,0
0,63,111,0
0,68,114,0
0,42,66,0
0,63,72,24
0,68,62,0
0,30,127,48
0,58,107,0
0,61,119,0
0,66,116,0
0,63,60,0
0,68,71,0
0,35,127,0
0,42,76,0
0,63,92,64
0,68,83,0
0,63,69,36
0,68,72,0
0,42,49,0
0,63,70,68
0,68,51,0
0,29,127,64
0,56,127,0
0,61,127,0
0,65,124,0
0,63,127,0
0,68,127,0
0,35,127,0
0,39,117,0
0,40,127,0
0,42,107,0
0,63,59,52
0,68,62,0
0,63,71,4
0,68,75,0
0,42,63,0
0,63,76,60
0,68,66,0
0,30,127,60
0,58,116,0
0,61,127,0
0,66,121,0
0,63,120,0
0,67,63,0
0,68,124,0
0,35,127,0
0,42,84,0
0,63,67,48
0,68,62,0
0,63,60,28
0,68,63,0
0,42,49,0
0,68,75,16
0,29,127,64
0,56,114,0
0,61,121,0
0,65,121,0
0,63,99,0
0,68,92,0
0,68,55,40
0,35,127,0
0,39,117,0
0,40,127,0
0,42,112,0
0,70,124,12
0,75,112,0
0,71,52,44
0,63,60,0
0,68,56,0
0,72,88,12
0,32,120,40
0,56,112,0
0,60,121,0
0,63,124,0
0,63,124,0
0,68,120,0
0,42,55,0
0,77,88,4
0,73,100,8
0,63,67,48
0,68,59,0
0,63,64,52
0,68,64,0
0,35,127,0
0,42,72,0
0,70,96,12
0,75,90,8
0,71,59,8
0,63,90,0
0,68,82,0
0,72,61,4
0,32,114,28
0,63,60,0
0,68,64,0
0,42,54,0
0,63,69,16
0,68,63,0
0,68,80,16
0,32,114,56
0,63,120,0
0,68,117,0
0,35,127,0
0,39,117,0
0,40,127,0
0,42,103,0
0,63,65,8
0,68,59,0
0,32,127,44
0,63,70,0
0,68,75,0
0,42,49,0
0,32,127,16
0,63,63,0
0,68,60,0
0,70,124,20
0,78,119,0
0,63,127,0
0,67,112,0
0,68,127,0
0,35,127,0
0,42,93,0
0,63,72,32
0,68,66,0
0,29,127,32
0,56,114,0
0,61,127,0
0,65,116,0
0,63,63,0
0,42,56,0
0,63,90,4
0,68,99,0
0,29,124,32
0,56,109,0
0,61,124,0
0,65,119,0
0,68,122,0
0,77,122,0
0,35,124,0
0,39,113,0
0,40,127,0
0,42,127,0
0,63,43,12
0,68,73,0
0,30,124,56
0,58,112,0
0,61,121,0
0,66,124,0
0,63,114,0
0,68,127,0
0,42,54,0
0,63,65,12
0,68,61,0
0,30,127,52
0,58,112,0
0,61,116,0
0,66,114,0
0,66,119,0
0,75,122,0
0,63,69,0
0,68,59,0
0,35,127,0
0,42,80,0
0,63,94,12
0,68,86,0
0,63,61,0
0,68,65,0
0,42,54,0
0,63,56,72
0,68,52,0
0,29,127,68
0,56,112,0
0,61,127,0
0,65,119,0
0,65,113,0
0,73,122,0
0,63,124,0
0,68,127,0
0,35,127,0
0,39,117,0
0,40,127,0
0,42,117,0
0,63,70,12
0,68,70,0
0,63,74,44
0,68,70,0
0,42,61,0
0,63,76,64
0,68,66,0
0,30,127,60
0,58,119,0
0,61,127,0
0,66,124,0
0,63,114,0
0,72,122,0
0,63,120,0
0,68,120,0
0,35,127,0
0,42,76,0
0,63,63,52
0,68,60,0
0,65,97,28
0,73,104,0
0,63,58,0
0,68,63,0
0,42,56,0
0,29,127,20
0,56,114,0
0,61,124,0
0,65,116,0
0,63,104,0
0,68,102,0
0,66,111,0
0,75,111,0
0,35,127,0
0,39,117,0
0,40,127,0
0,42,117,0
0,63,59,28
0,68,52,0
0,32,127,60
0,56,112,0
0,60,124,0
0,63,121,0
0,63,109,0
0,68,117,0
0,63,120,0
0,68,120,0
0,42,67,0
0,63,70,48
0,68,66,0
0,63,54,48
0,68,63,0
0,35,127,0
0,42,82,0
0,63,86,0
0,68,79,0
0,32,109,36
0,42,51,0
0,63,77,4
0,68,59,0
0,32,120,60
0,72,110,0
0,80,119,0
0,63,124,0
0,67,70,0
0,68,127,0
0,35,127,0
0,39,117,0
0,40,127,0
0,42,107,0
0,63,59,12
0,68,33,0
0,32,127,32
0,63,79,0
0,68,78,0
0,42,67,0
0,32,127,16
0,63,77,0
0,68,64,0
0,72,105,36
0,80,118,0
0,63,124,0
0,68,117,0
0,35,127,0
0,42,74,0
0,63,74,4
0,68,61,0
0,29,127,28
0,56,127,0
0,61,127,0
0,65,127,0
0,63,70,0
0,68,76,0
0,42,62,0
0,63,92,8
0,68,90,0
0,29,124,4
0,56,104,0
0,61,112,0
0,65,109,0
0,35,127,0
0,39,117,0
0,40,127,0
0,42,117,0
0,63,74,16
0,68,62,0
0,30,124,56
0,58,106,0
0,61,116,0
0,66,116,0
0,63,111,0
0,68,114,0
0,42,66,0
0,63,72,4
0,68,62,0
0,30,127,48
0,58,107,0
0,61,119,0
0,66,116,0
0,63,60,0
0,68,71,0
0,35,127,0
0,42,76,0
0,63,92,64
0,68,83,0
0,63,69,4
0,68,72,0
0,42,49,0
0,63,70,68
0,68,51,0
0,29,127,64
0,56,127,0
0,61,127,0
0,65,124,0
0,63,127,0
0,68,127,0
0,35,127,0
0,39,117,0
0,40,127,0
0,42,107,0
0,63,59,52
0,68,62,0
0,63,71,36
0,68,75,0
0,42,63,0
0,63,76,60
0,68,66,0
0,30,127,60
0,58,116,0
0,61,127,0
0,66,121,0
0,63,120,0
0,67,63,0
0,68,124,0
0,35,127,0
0,42,84,0
0,63,67,48
0,68,62,0
0,63,60,20
0,68,63,0
0,42,49,0
0,68,77,4
0,29,127,64
0,56,114,0
0,61,121,0
0,65,121,0
0,63,99,0
0,68,92,0
0,68,55,28
0,35,127,0
0,39,117,0
0,40,127,0
0,42,112,0
0,70,114,4
0,75,105,4
0,71,44,8
0,72,91,8
0,63,60,0
0,68,56,0
0,73,107,44
0,77,104,0
0,32,127,4
0,56,112,0
0,60,121,0
0,63,124,0
0,63,124,0
0,68,120,0
0,42,55,0
0,63,67,48
0,68,59,0
0,70,105,52
0,63,64,0
0,68,64,0
0,35,127,0
0,42,72,0
0,75,101,4
0,71,62,0
0,63,90,0
0,68,82,0
0,72,60,28
0,32,109,4
0,63,60,0
0,68,64,0
0,42,54,0
0,63,69,8
0,68,63,0
0,68,87,16
0,32,120,56
0,63,120,0
0,68,117,0
0,35,127,0
0,39,117,0
0,40,127,0
0,42,103,0
0,63,65,16
0,68,59,0
0,32,127,28
0,63,70,0
0,68,75,0
0,42,49,0
0,68,88,16
0,32,127,16
0,63,63,0
0,68,60,0
0,63,127,20
0,67,112,0
0,68,127,0
0,35,127,0
0,42,93,0
0,63,72,32
0,68,66,0
0,29,127,32
0,56,114,0
0,61,127,0
0,65,116,0
0,63,63,0
0,42,56,0
0,63,90,12
0,68,99,0
0,29,117,32
0,56,109,0
0,61,124,0
0,65,119,0
0,35,124,0
0,39,113,0
0,40,127,0
0,42,127,0
0,78,127,4
0,63,43,8
0,68,73,0
0,30,120,56
0,58,112,0
0,61,121,0
0,66,124,0
0,63,114,0
0,68,127,0
0,42,54,0
0,63,65,20
0,68,61,0
0,30,124,52
0,58,112,0
0,61,116,0
0,66,114,0
0,63,69,0
0,68,59,0
0,35,127,0
0,42,80,0
0,63,94,72
0,68,86,0
0,63,61,20
0,68,65,0
0,42,54,0
0,63,56,72
0,68,52,0
0,29,127,28
0,56,112,0
0,61,127,0
0,65,119,0
0,63,124,0
0,68,127,0
0,35,127,0
0,39,117,0
0,40,127,0
0,42,117,0
0,77,117,8
0,63,70,52
0,68,70,0
0,63,74,8
0,68,70,0
0,42,61,0
0,63,76,64
0,68,66,0
0,30,127,60
0,58,119,0
0,61,127,0
0,66,124,0
0,63,120,0
0,68,120,0
0,35,127,0
0,42,76,0
0,78,121,24
0,63,63,52
0,68,60,0
0,63,58,28
0,68,63,0
0,42,56,0
0,80,91,16
0,29,124,12
0,56,114,0
0,61,124,0
0,65,116,0
0,63,104,0
0,68,102,0
0,78,73,44
0,35,127,0
0,39,117,0
0,40,127,0
0,42,117,0
0,77,122,0
0,63,59,68
0,68,52,0
0,32,127,44
0,56,112,0
0,60,124,0
0,63,121,0
0,63,120,0
0,68,120,0
0,42,67,0
0,63,70,48
0,68,66,0
0,75,105,48
0,63,54,0
0,68,63,0
0,35,127,0
0,42,82,0
0,63,86,0
0,68,79,0
0,32,120,8
0,42,51,0
0,63,77,12
0,68,59,0
0,32,124,60
0,63,124,0
0,67,70,0
0,68,127,0
0,35,127,0
0,39,117,0
0,40,127,0
0,42,107,0
0,68,105,4
0,80,120,4
0,63,59,16
0,68,33,0
0,32,124,44
0,63,79,0
0,68,78,0
0,42,67,0
0,68,101,16
0,80,109,0
0,32,127,16
0,63,77,0
0,68,64,0
0,63,124,56
0,68,117,0
0,35,127,0
0,42,74,0
0,63,74,32
0,68,61,0
0,29,127,28
0,56,127,0
0,61,127,0
0,65,127,0
0,63,70,0
0,68,76,0
0,42,62,0
0,63,92,16
0,68,90,0
0,29,120,36
0,56,104,0
0,61,112,0
0,65,109,0
0,35,127,0
0,39,117,0
0,40,127,0
0,42,117,0
0,63,74,20
0,68,62,0
0,30,120,56
0,58,106,0
0,61,116,0
0,66,116,0
0,63,111,0
0,68,114,0
0,42,66,0
0,63,72,16
0,68,62,0
0,30,120,48
0,58,107,0
0,61,119,0
0,66,116,0
0,63,60,0
0,68,71,0
0,35,127,0
0,42,76,0
0,63,92,12
0,68,83,0
0,63,69,24
0,68,72,0
0,42,49,0
0,63,70,68
0,68,51,0
0,29,127,28
0,56,127,0
0,61,127,0
0,65,124,0
0,63,127,0
0,68,127,0
0,35,127,0
0,39,117,0
0,40,127,0
0,42,107,0
0,63,59,52
0,68,62,0
0,63,71,16
0,68,75,0
0,42,63,0
0,63,76,60
0,68,66,0
0,30,127,60
0,58,116,0
0,61,127,0
0,66,121,0
0,63,120,0
0,67,63,0
0,68,124,0
0,35,127,0
0,42,84,0
0,63,67,32
0,68,62,0
0,63,60,32
0,68,63,0
0,42,49,0
0,68,80,4
0,29,120,64
0,56,114,0
0,61,121,0
0,65,121,0
0,63,99,0
0,68,92,0
0,68,55,40
0,35,127,0
0,39,117,0
0,40,127,0
0,42,112,0
0,70,99,4
0,75,91,0
0,63,60,8
0,68,56,0
0,72,88,8
0,32,120,48
0,56,112,0
0,60,121,0
0,63,124,0
0,63,124,0
0,68,120,0
0,42,55,0
0,73,117,4
0,77,120,4
0,63,67,48
0,68,59,0
0,63,64,52
0,68,64,0
0,35,127,0
0,42,72,0
0,70,101,8
0,75,97,8
0,71,53,12
0,63,90,0
0,68,82,0
0,72,62,12
0,32,109,4
0,63,60,0
0,68,64,0
0,42,54,0
0,63,69,28
0,68,63,0
0,68,98,12
0,32,124,56
0,63,120,0
0,68,117,0
0,35,127,0
0,39,117,0
0,40,127,0
0,42,103,0
0,63,65,24
0,68,59,0
0,68,87,40
0,32,127,4
0,63,70,0
0,68,75,0
0,42,49,0
0,32,127,16
0,63,63,0
0,68,60,0
0,63,127,20
0,67,112,0
0,68,127,0
0,35,127,0
0,42,93,0
0,63,72,32
0,68,66,0
0,29,127,32
0,56,114,0
0,61,127,0
0,65,116,0
0,63,63,0
0,42,56,0
0,63,90,12
0,68,99,0
0,29,114,32
0,56,109,0
0,61,124,0
0,65,119,0
0,35,124,0
0,39,113,0
0,40,127,0
0,42,127,0
0,78,127,4
0,63,43,12
0,68,73,0
0,30,114,56
0,58,112,0
0,61,121,0
0,66,124,0
0,63,114,0
0,68,127,0
0,42,54,0
0,63,65,20
0,68,61,0
0,30,120,52
0,58,112,0
0,61,116,0
0,66,114,0
0,63,69,0
0,68,59,0
0,35,127,0
0,42,80,0
0,63,94,32
0,68,86,0
0,63,61,24
0,68,65,0
0,42,54,0
0,63,56,12
0,68,52,0
0,80,88,4
0,78,72,4
0,29,127,36
0,56,112,0
0,61,127,0
0,65,119,0
0,63,124,0
0,68,127,0
0,35,127,0
0,39,117,0
0,40,127,0
0,42,117,0
0,77,111,12
0,63,70,52
0,68,70,0
0,63,74,4
0,68,70,0
0,42,61,0
0,63,76,64
0,68,66,0
0,30,127,60
0,58,119,0
0,61,127,0
0,66,124,0
0,63,120,0
0,68,120,0
0,35,127,0
0,42,76,0
0,78,127,4
0,63,63,52
0,68,60,0
0,63,58,20
0,68,63,0
0,42,56,0
0,29,124,16
0,56,114,0
0,61,124,0
0,65,116,0
0,63,104,0
0,68,102,0
0,80,67,24
0,78,72,4
0,35,127,0
0,39,117,0
0,40,127,0
0,42,117,0
0,77,106,4
0,63,59,64
0,68,52,0
0,32,127,60
0,56,112,0
0,60,124,0
0,63,121,0
0,63,120,0
0,68,120,0
0,42,67,0
0,63,70,48
0,68,66,0
0,63,54,48
0,68,63,0
0,35,127,0
0,42,82,0
0,75,106,4
0,63,86,0
0,68,79,0
0,32,109,16
0,42,51,0
0,63,77,8
0,68,59,0
0,32,120,60
0,63,124,0
0,67,70,0
0,68,127,0
0,35,127,0
0,39,117,0
0,40,127,0
0,42,107,0
0,80,114,4
0,68,111,4
0,63,59,8
0,68,33,0
0,32,127,36
0,63,79,0
0,68,78,0
0,42,67,0
0,68,101,28
0,80,100,0
0,32,127,16
0,63,77,0
0,68,64,0
0,63,124,56
0,68,117,0
0,35,127,0
0,42,74,0
0,63,74,32
0,68,61,0
0,29,127,28
0,56,127,0
0,61,127,0
0,65,127,0
0,63,70,0
0,68,76,0
0,42,62,0
0,63,92,16
0,68,90,0
