track,note,velocity,time
1,35,127,0
1,35,120,84
1,35,123,78
1,35,118,76
1,35,121,78
1,35,117,226
1,35,119,92
1,33,117,74
1,35,114,28
1,35,127,74
1,35,127,242
1,35,120,80
1,33,118,54
1,33,119,80
1,31,119,56
1,31,118,76
1,31,122,98
1,31,118,64
1,31,127,82
1,31,117,84
1,31,127,86
1,31,120,80
1,30,127,74
1,30,118,64
1,30,124,86
1,30,117,84
1,30,127,108
1,30,121,84
1,33,127,6
1,30,127,24
1,35,121,6
1,35,115,88
1,35,116,78
1,35,114,68
1,35,123,78
1,35,122,250
1,35,118,80
1,33,122,78
1,35,117,24
1,35,121,74
1,35,123,230
1,35,118,72
1,33,114,62
1,33,112,84
1,31,114,54
1,31,119,60
1,31,121,74
1,31,111,84
1,31,127,94
1,31,115,84
1,31,122,102
1,31,116,92
1,33,127,66
1,33,110,70
1,33,120,82
1,33,115,80
1,30,127,70
1,30,124,76
1,30,126,98
1,30,121,98
1,35,127,8
1,35,118,80
1,35,123,82
1,35,119,74
1,35,125,78
1,35,123,266
1,35,118,72
1,33,127,82
1,35,118,16
1,35,123,82
1,35,123,222
1,35,119,76
1,33,123,58
1,33,123,88
1,31,127,82
1,31,114,92
1,31,122,90
1,31,114,84
1,31,127,98
1,31,122,68
1,31,122,86
1,31,119,84
1,30,127,72
1,30,123,72
1,30,127,90
1,30,123,80
1,30,126,94
1,30,124,84
1,33,127,8
1,30,127,94
1,28,110,86
1,26,116,76
1,35,125,84
1,35,120,76
1,35,123,94
1,35,118,80
1,35,123,86
1,35,125,258
1,35,118,88
1,33,127,94
1,35,117,28
1,35,127,74
1,35,125,238
1,35,117,80
1,33,120,70
1,33,119,80
1,31,121,62
1,31,117,88
1,31,120,90
1,31,114,72
1,31,127,90
1,31,115,60
1,31,127,98
1,31,118,84
1,33,127,90
1,33,115,88
1,33,120,94
1,33,121,96
1,30,107,98
1,30,127,94
1,30,97,86
1,33,125,0
1,30,123,32
1,35,123,194
1,35,122,80
1,35,121,74
1,35,122,76
1,35,122,66
1,35,122,246
1,35,118,80
1,33,122,74
1,35,120,8
1,35,122,82
1,35,123,238
1,35,119,68
1,33,119,66
1,33,118,68
1,31,121,72
1,31,118,90
1,31,117,94
1,31,119,76
1,31,122,86
1,31,118,80
1,31,125,88
1,31,121,64
1,30,127,66
1,30,127,84
1,30,125,106
1,30,127,96
1,30,127,106
1,30,127,128
1,33,127,24
1,30,127,32
1,28,115,8
1,26,121,96
1,35,125,10
1,35,125,96
1,35,127,94
1,35,125,92
1,35,127,86
1,35,127,222
1,35,121,84
1,33,127,98
1,35,127,32
1,35,127,90
1,35,127,218
1,35,123,84
1,33,127,90
1,33,127,88
1,43,127,0
1,31,127,18
1,31,127,84
1,31,127,94
1,31,127,72
1,31,127,90
1,31,127,80
1,31,127,86
1,31,125,88
1,33,127,74
1,33,125,68
1,33,127,98
1,33,122,88
1,33,127,78
1,33,123,86
1,30,127,58
1,30,124,80
1,35,127,44
1,35,122,94
1,35,127,82
1,35,125,84
1,35,127,90
1,35,122,234
1,35,127,80
1,33,125,78
1,35,127,46
1,35,127,96
1,35,127,250
1,37,127,28
1,38,123,18
1,33,127,12
1,31,117,38
1,31,118,80
1,31,118,90
1,31,111,90
1,31,117,82
1,31,117,84
1,31,123,74
1,31,121,76
1,30,127,66
1,30,125,88
1,30,126,94
1,30,121,100
1,30,126,118
1,30,127,112
1,33,127,96
1,30,121,184
1,28,116,84
1,26,118,84
1,35,125,86
1,35,127,80
1,35,127,86
1,35,123,76
1,35,127,76
1,35,122,266
1,35,123,72
1,33,127,94
1,35,120,28
1,35,125,76
1,35,127,242
1,35,118,72
1,33,127,50
1,33,127,88
1,43,125,16
1,31,127,26
1,31,125,78
1,31,127,88
1,31,122,76
1,31,127,86
1,31,118,64
1,31,127,108
1,31,121,76
1,33,127,58
1,33,119,88
1,33,125,98
1,33,122,76
1,33,125,98
1,30,127,92
1,33,127,96
1,30,127,12
1,28,110,96
1,26,116,88
1,35,127,66
1,35,125,72
1,35,125,94
1,35,117,80
1,35,125,92
1,35,122,282
1,35,114,80
1,33,122,78
1,35,118,36
1,35,120,62
1,35,127,214
1,35,118,60
1,33,121,34
1,33,116,68
1,31,121,54
1,31,123,90
1,31,127,98
1,31,116,62
1,31,127,88
1,31,114,72
1,31,127,98
1,31,114,76
1,30,127,86
1,30,120,68
1,30,126,98
1,30,118,96
1,30,126,102
1,30,123,104
1,30,76,96
1,33,127,64
1,30,127,4
1,35,127,10
1,35,121,84
1,35,125,86
1,35,119,80
1,35,125,98
1,35,121,250
1,35,121,88
1,33,121,98
1,35,122,14
1,35,127,82
1,35,127,252
1,35,122,80
1,33,127,62
1,33,118,80
1,31,127,70
1,31,117,88
1,31,127,94
1,31,120,86
1,31,127,102
1,31,120,72
1,31,127,106
1,31,119,92
1,33,127,98
1,33,125,96
1,33,125,102
1,33,122,104
1,33,125,118
1,30,127,104
1,33,127,16
1,30,121,192
1,28,111,92
1,26,113,90
1,35,127,6
1,35,127,76
1,35,127,82
1,35,123,84
1,35,127,88
1,35,125,250
1,35,118,88
1,33,127,90
1,35,125,16
1,35,127,98
1,35,127,252
1,35,121,72
1,33,127,74
1,33,127,84
1,43,127,12
1,31,127,14
1,31,125,86
1,31,127,90
1,31,127,80
1,31,127,86
1,31,127,258
1,31,127,88
1,30,127,6
1,30,124,88
1,30,127,98
1,30,126,104
1,30,127,114
1,30,127,106
1,33,127,4
1,30,121,192
1,28,100,72
1,29,100,2
1,26,116,68
1,35,127,78
1,35,122,76
1,35,127,82
1,35,122,72
1,35,127,104
1,35,127,242
1,35,122,84
1,33,127,86
1,35,127,24
1,35,127,86
1,35,127,238
1,35,125,68
1,33,127,66
1,33,127,88
1,43,127,96
1,31,127,18
1,31,127,84
1,31,127,82
1,31,119,80
1,31,127,94
1,31,122,72
1,31,127,86
1,31,127,72
1,33,127,42
1,33,127,84
1,33,127,86
1,33,127,92
1,33,127,98
1,30,127,86
1,30,127,98
1,30,127,104
1,35,127,2
1,35,127,80
1,35,127,98
1,35,121,76
1,35,127,86
1,35,127,242
1,35,123,96
1,33,127,90
1,35,127,28
1,35,127,94
1,35,127,242
1,37,127,40
1,38,127,10
1,33,127,12
1,31,120,30
1,31,125,76
1,31,127,102
1,31,121,76
1,31,127,94
1,31,123,84
1,31,123,90
1,31,125,86
1,30,127,78
1,30,127,76
1,30,127,102
1,30,125,74
1,30,127,90
1,30,127,92
1,33,127,12
1,30,127,0
1,28,116,96
1,26,120,92
1,35,127,18
1,35,122,68
1,35,127,90
1,35,121,88
1,35,123,86
1,35,127,262
1,35,125,96
1,33,127,92
1,35,121,36
1,35,127,90
1,35,127,230
1,35,127,64
1,33,127,82
1,33,127,88
1,43,125,8
1,31,127,18
1,31,127,106
1,31,127,102
1,31,120,80
1,31,127,106
1,31,122,84
1,31,127,102
1,31,122,84
1,33,127,82
1,33,125,90
1,33,127,106
1,33,118,84
1,33,127,110
1,33,111,56
1,30,127,98
1,30,126,80
1,31,127,34
1,31,122,84
1,31,127,102
1,31,120,88
1,31,127,110
1,31,116,74
1,31,127,94
1,31,123,94
1,33,125,92
1,33,122,84
1,33,127,82
1,33,122,92
1,33,127,98
1,28,115,56
1,33,127,62
1,30,126,12
1,31,127,194
1,31,123,92
1,31,127,90
1,31,123,76
1,31,127,98
1,31,127,76
1,31,127,98
1,31,127,88
1,33,127,10
1,33,120,76
1,33,127,94
1,33,118,72
1,33,127,82
1,28,118,190
1,33,127,176
1,30,127,188
1,31,127,188
1,31,127,82
1,31,127,78
1,31,127,88
1,31,127,74
1,31,123,80
1,31,120,86
1,31,114,88
1,33,127,18
1,33,127,72
1,30,101,66
1,33,127,0
1,33,127,76
1,33,127,86
1,33,127,92
1,28,119,14
1,33,127,0
1,31,125,10
1,31,119,68
1,31,125,70
1,31,127,76
1,31,120,70
1,31,127,76
1,31,127,70
1,31,127,74
1,30,127,58
1,30,127,84
1,30,127,106
1,30,127,104
1,30,127,106
1,30,127,114
1,33,127,16
1,30,127,28
1,28,117,96
1,26,121,84
1,35,127,88
1,35,125,64
1,35,127,82
1,35,121,80
1,35,127,94
1,35,127,274
1,35,116,96
1,33,121,88
1,35,120,28
1,35,123,78
1,35,125,242
1,35,123,92
1,33,127,102
1,33,127,96
1,43,127,28
1,31,127,98
1,31,127,96
1,31,127,86
1,31,122,100
1,31,127,94
1,31,125,94
1,31,127,102
1,31,122,108
1,30,127,98
1,30,127,88
1,30,126,106
1,30,127,104
1,30,127,98
1,30,127,118
1,33,127,34
1,38,127,24
1,35,127,16
1,35,127,80
1,35,127,90
1,35,127,92
1,35,127,86
1,35,127,246
1,35,127,76
1,33,127,94
1,35,127,20
1,35,127,70
1,35,127,232
1,35,127,92
1,33,127,86
1,33,127,96
1,43,127,20
1,31,127,18
1,31,127,96
1,31,127,94
1,31,127,92
1,31,127,118
1,31,127,88
1,31,127,106
1,31,121,96
1,33,127,94
1,33,125,84
1,33,127,106
1,33,125,96
1,33,127,106
1,33,125,96
1,30,127,106
1,30,127,76
1,35,127,6
1,35,123,80
1,35,127,78
1,35,127,76
1,35,127,78
1,35,127,238
1,35,127,96
1,33,127,98
1,35,125,36
1,35,127,86
1,35,127,250
1,37,127,42
1,38,127,50
1,33,127,28
1,31,127,46
1,31,121,76
1,31,125,98
1,31,115,80
1,31,127,98
1,31,117,64
1,31,127,94
1,31,120,76
1,30,127,98
1,30,125,68
1,30,127,106
1,30,127,92
1,30,127,114
1,30,127,112
1,33,127,20
1,30,125,192
1,28,115,90
1,26,117,80
1,35,127,74
1,35,127,72
1,35,127,78
1,35,127,68
1,35,127,78
1,35,127,242
1,35,118,60
1,33,127,86
1,35,120,32
1,35,127,90
1,35,127,238
1,35,123,84
1,33,127,86
1,33,125,88
1,43,125,8
1,31,127,6
1,31,125,76
1,31,127,82
1,31,120,72
1,31,127,114
1,31,123,80
1,31,127,94
1,31,119,88
1,33,127,98
1,33,127,94
1,33,123,86
1,33,127,100
1,33,127,114
1,30,127,100
1,33,127,0
1,30,127,20
1,28,112,96
1,26,121,58
1,35,127,70
1,35,127,72
1,35,127,78
1,35,125,84
1,35,127,82
1,35,127,230
1,35,125,80
1,33,127,106
1,35,121,20
1,35,127,82
1,35,127,242
1,37,127,20
1,38,127,30
1,33,127,190
1,31,127,22
1,31,123,72
1,31,127,102
1,31,116,74
1,31,127,94
1,31,119,80
1,31,127,114
1,31,125,72
1,30,127,94
1,30,127,84
1,30,127,98
1,30,127,96
1,30,127,102
1,30,127,112
1,33,127,20
1,30,126,192
1,28,115,76
1,26,114,76
1,35,127,2
1,35,127,62
1,35,127,78
1,35,127,68
1,35,127,66
1,35,127,218
1,35,127,76
1,33,127,66
1,35,127,24
1,35,127,66
1,35,127,222
1,35,127,58
1,33,127,70
1,33,127,88
1,43,127,8
1,31,127,10
1,31,127,80
1,31,127,82
1,31,127,72
1,31,127,74
1,31,123,64
1,31,127,86
1,31,127,80
1,33,127,78
1,33,127,88
1,33,125,94
1,33,127,104
1,33,125,106
1,30,127,104
1,33,127,20
1,30,127,16
1,28,116,96
1,26,123,92
1,35,127,6
1,35,127,96
1,35,127,86
1,35,127,96
1,35,127,82
1,35,127,250
1,35,123,96
1,33,127,94
1,35,127,24
1,35,127,86
1,35,127,262
1,37,127,32
1,38,127,106
1,33,127,190
1,31,127,54
1,31,127,72
1,31,127,86
1,31,121,72
1,31,127,106
1,31,120,62
1,31,127,86
1,31,125,68
1,30,127,50
1,30,125,84
1,30,127,98
1,30,127,96
1,30,127,108
1,30,127,104
1,33,127,24
1,30,127,8
1,28,118,96
1,26,122,86
1,35,127,14
1,35,127,76
1,35,127,82
1,35,127,88
1,35,127,82
1,35,127,254
1,35,127,88
1,33,127,94
1,35,127,32
1,35,127,78
1,35,127,222
1,35,127,76
1,33,127,86
1,33,127,108
1,43,127,28
1,31,127,28
1,31,127,100
1,31,127,90
1,31,127,76
1,31,127,94
1,31,127,80
1,30,97,102
1,31,127,0
1,31,127,92
1,33,127,82
1,33,123,76
1,33,127,102
1,33,123,84
1,33,127,98
1,30,127,102
1,33,127,96
1,30,127,28
1,28,121,96
1,26,119,92
1,35,127,96
1,35,127,60
1,35,127,86
1,35,122,78
1,35,127,86
1,35,127,230
1,35,127,84
1,33,127,94
1,35,127,54
1,35,127,74
2,66,112,2
2,66,112,82
2,71,112,382
2,66,112,20
2,69,112,92
2,71,112,64
2,74,112,288
2,74,112,268
2,71,112,10
2,67,112,194
2,74,112,12
2,71,112,196
2,67,112,180
2,74,112,184
2,71,112,194
2,73,112,152
2,71,112,18
2,73,112,22
2,66,112,92
2,69,112,116
2,71,112,36
2,71,112,102
2,66,112,4
2,69,112,106
2,71,112,58
2,74,112,20
2,74,112,208
2,71,112,184
2,67,112,8
2,74,112,12
2,71,112,196
2,67,112,4
2,74,112,8
2,71,112,180
2,73,112,188
2,71,112,12
2,73,112,48
2,78,112,244
2,76,112,16
2,76,112,132
2,78,112,116
2,76,112,90
2,74,112,76
2,74,112,596
2,74,112,84
2,71,112,8
2,74,112,120
2,74,112,256
2,71,112,8
2,74,112,36
2,74,112,112
2,74,112,58
2,73,112,8
2,73,112,140
2,71,112,20
2,73,112,84
2,66,112,108
2,66,112,100
2,69,112,56
2,71,112,36
2,71,112,76
2,66,112,22
2,69,112,12
2,71,112,16
2,74,112,12
2,74,112,112
2,74,112,94
2,76,112,0
2,74,112,92
2,74,112,40
2,74,112,92
2,73,112,20
2,73,112,88
2,71,112,20
2,73,112,84
2,66,112,28
2,71,112,120
2,71,112,208
2,76,112,20
2,74,112,8
2,71,112,564
2,71,112,116
2,71,112,84
2,71,112,106
2,71,112,108
2,71,112,114
2,73,112,200
2,71,112,8
2,73,112,76
2,66,112,112
2,71,112,202
2,71,112,716
2,76,112,42
2,74,112,8
2,71,112,502
2,71,112,92
2,71,112,104
2,71,112,104
2,71,112,114
2,73,112,64
2,69,112,18
2,66,112,280
2,69,112,22
2,71,112,28
2,71,112,112
2,66,112,60
2,69,112,108
2,71,112,48
2,74,112,376
2,74,112,528
2,71,112,204
2,67,112,12
2,74,112,36
2,71,112,188
2,67,112,12
2,71,112,12
2,73,112,210
2,71,112,4
2,73,112,20
2,66,112,40
2,66,112,120
2,69,112,116
2,71,112,36
2,71,112,114
2,66,112,110
2,69,112,14
2,71,112,24
2,74,112,20
2,74,112,220
2,71,112,188
2,67,112,166
2,74,112,16
2,71,112,196
2,67,112,182
2,71,112,176
2,73,112,156
2,71,112,20
2,73,112,56
2,78,112,132
2,76,112,36
2,76,112,140
2,74,112,112
2,71,112,748
2,74,112,28
2,76,112,92
2,74,112,8
2,74,112,296
2,74,112,56
2,71,112,180
2,74,112,60
2,74,112,96
2,74,112,112
2,73,112,140
2,71,112,4
2,73,112,84
2,66,112,108
2,66,112,112
2,69,112,64
2,71,112,64
2,66,112,8
2,69,112,100
2,71,112,84
2,74,112,28
2,74,112,480
2,74,112,100
2,74,112,112
2,74,112,88
2,74,112,92
2,73,112,212
2,71,112,12
2,73,112,76
2,66,112,108
2,71,112,100
2,71,112,160
2,76,112,36
2,74,112,56
2,71,112,808
2,71,112,96
2,71,112,96
2,71,112,68
2,71,112,60
2,73,112,32
2,73,112,60
2,71,112,180
2,73,112,36
2,66,112,208
2,71,112,20
2,76,112,984
2,74,112,40
2,71,112,684
2,71,112,104
2,71,112,92
2,71,112,76
2,71,112,108
2,73,112,74
2,71,112,20
2,73,112,84
2,71,112,882
2,71,112,108
2,73,112,76
2,74,112,92
2,78,112,108
2,76,112,48
2,71,112,488
2,71,112,76
2,71,112,56
2,69,112,40
2,67,112,244
2,66,112,140
2,64,112,28
2,71,112,956
2,71,112,84
2,73,112,64
2,74,112,88
2,78,112,120
2,76,112,56
2,76,112,92
2,74,112,8
2,71,112,140
2,71,112,114
2,71,112,104
2,73,112,44
2,74,112,76
2,78,112,138
