track,note,velocity,time
0,55,93,281
0,70,60,0
0,59,102,2
0,63,90,2
0,67,105,0
0,70,0,0
0,70,33,92
0,70,0,4
0,70,63,92
0,70,0,4
0,70,31,92
0,70,0,4
0,70,64,92
0,70,0,4
0,70,46,92
0,70,0,4
0,48,124,92
0,48,101,0
0,70,61,0
0,70,0,4
0,55,0,54
0,59,0,2
0,63,0,2
0,67,0,0
0,70,42,34
0,70,0,4
0,48,0,75
0,48,0,0
0,55,102,6
0,60,102,6
0,36,122,5
0,48,124,0
0,48,101,0
0,61,71,0
0,64,80,0
0,64,97,0
0,70,60,0
0,61,0,4
0,64,0,0
0,70,0,0
0,61,67,92
0,70,33,0
0,61,0,4
0,70,0,0
0,48,0,27
0,48,0,0
0,50,122,1
0,50,99,0
0,64,0,7
0,67,102,1
0,60,0,2
0,64,102,1
0,52,110,5
0,55,114,0
0,60,102,0
0,60,72,48
0,62,121,0
0,70,63,0
0,60,0,4
0,62,0,0
0,70,0,0
0,64,0,38
0,55,0,5
0,60,0,0
0,67,0,0
0,50,0,16
0,50,0,0
0,52,123,1
0,52,100,0
0,60,102,27
0,64,102,1
0,36,0,1
0,52,0,2
0,55,0,0
0,36,77,1
0,52,104,0
0,55,104,0
0,61,63,0
0,67,102,0
0,70,31,0
0,61,0,4
0,70,0,0
0,55,0,7
0,52,0,11
0,36,0,50
0,52,0,22
0,52,0,0
0,43,111,2
0,55,112,0
0,55,89,0
0,61,71,0
0,64,66,0
0,70,64,0
0,61,0,4
0,64,0,0
0,70,0,0
0,60,0,82
0,60,88,1
0,64,0,4
0,64,87,1
0,52,106,4
0,55,108,0
0,60,66,0
0,63,93,0
0,67,0,0
0,70,46,0
0,67,78,1
0,60,0,3
0,63,0,0
0,70,0,0
0,52,0,20
0,55,0,0
0,67,0,64
0,67,82,1
0,43,0,2
0,64,0,0
0,64,76,1
0,60,0,3
0,31,111,1
0,60,92,0
0,61,69,0
0,63,111,0
0,70,61,0
0,61,0,4
0,63,0,0
0,70,0,0
0,60,0,85
0,60,98,1
0,64,0,2
0,64,98,1
0,67,0,2
0,52,105,1
0,55,110,0
0,60,67,0
0,64,63,0
0,67,97,0
0,70,42,0
0,60,0,4
0,64,0,0
0,70,0,0
0,52,0,22
0,55,0,5
0,31,0,56
0,60,0,2
0,64,0,1
0,64,102,1
0,60,102,1
0,67,0,3
0,69,80,0
0,36,111,1
0,61,67,0
0,64,93,0
0,70,60,0
0,61,0,4
0,64,0,0
0,70,0,0
0,61,67,92
0,70,33,0
0,61,0,4
0,70,0,0
0,69,0,34
0,69,102,2
0,64,0,2
0,60,0,1
0,64,102,0
0,52,110,5
0,57,112,0
0,60,102,0
0,60,67,48
0,62,121,0
0,70,63,0
0,60,0,4
0,62,0,0
0,70,0,0
0,64,0,38
0,60,0,5
0,69,0,0
0,57,0,44
0,60,102,0
0,52,0,1
0,64,102,0
0,36,0,3
0,36,110,1
0,52,107,0
0,57,107,0
0,61,70,0
0,69,102,0
0,70,31,0
0,61,0,4
0,70,0,0
0,57,0,15
0,36,0,5
0,52,0,0
0,55,0,32
0,55,0,0
0,43,106,40
0,52,122,0
0,52,99,0
0,61,68,0
0,64,66,0
0,70,64,0
0,61,0,4
0,64,0,0
0,70,0,0
0,60,0,82
0,60,80,1
0,64,0,4
0,64,85,1
0,52,107,4
0,57,103,0
0,60,68,0
0,63,93,0
0,69,0,0
0,70,46,0
0,69,87,1
0,60,0,3
0,63,0,0
0,70,0,0
0,57,0,16
0,52,0,11
0,69,0,57
0,69,76,1
0,64,0,2
0,64,78,1
0,43,0,3
0,52,0,0
0,52,0,0
0,60,0,0
0,31,110,1
0,50,117,0
0,50,94,0
0,52,98,0
0,60,92,0
0,61,71,0
0,63,111,0
0,70,61,0
0,61,0,4
0,63,0,0
0,70,0,0
0,52,0,12
0,60,0,73
0,60,98,1
0,64,0,2
0,64,98,1
0,69,0,2
0,52,107,1
0,57,109,0
0,60,74,0
0,64,65,0
0,69,97,0
0,70,42,0
0,60,0,4
0,64,0,0
0,70,0,0
0,52,0,22
0,57,0,0
0,31,0,58
0,60,0,5
0,64,0,1
0,60,98,1
0,50,0,2
0,50,0,0
0,64,98,0
0,69,0,2
0,36,109,1
0,52,98,0
0,52,75,0
0,61,71,0
0,64,97,0
0,70,60,0
0,71,80,0
0,61,0,4
0,64,0,0
0,70,0,0
0,61,67,92
0,70,33,0
0,61,0,4
0,70,0,0
0,60,0,33
0,64,0,2
0,71,0,0
0,71,102,1
0,64,102,3
0,52,114,5
0,59,110,0
0,60,102,0
0,60,72,48
0,62,121,0
0,70,63,0
0,60,0,4
0,62,0,0
0,70,0,0
0,64,0,38
0,60,0,5
0,71,0,0
0,59,0,26
0,52,0,6
0,60,102,12
0,64,102,1
0,36,0,3
0,36,99,1
0,52,108,0
0,59,101,0
0,61,63,0
0,70,31,0
0,71,102,0
0,61,0,4
0,70,0,0
0,59,0,17
0,52,0,5
0,36,0,12
0,69,90,4
0,70,118,25
0,69,0,6
0,43,110,23
0,61,71,0
0,64,66,0
0,70,64,0
0,71,103,2
0,61,0,2
0,64,0,0
0,70,0,0
0,70,0,28
0,60,0,54
0,60,84,1
0,64,0,4
0,64,86,1
0,52,103,4
0,59,100,0
0,60,66,0
0,63,93,0
0,70,46,0
0,71,0,0
0,74,87,0
0,71,83,1
0,60,0,3
0,63,0,0
0,70,0,0
0,71,0,13
0,59,0,13
0,52,0,8
0,74,0,35
0,71,0,15
0,71,79,1
0,64,0,2
0,64,79,1
0,43,0,3
0,60,0,0
0,31,110,1
0,60,83,0
0,61,69,0
0,63,111,0
0,70,61,0
0,61,0,4
0,63,0,0
0,70,0,0
0,60,0,85
0,60,98,1
0,64,0,2
0,64,98,1
0,71,0,2
0,52,104,1
0,59,97,0
0,60,67,0
0,64,63,0
0,70,42,0
0,71,97,0
0,60,0,4
0,64,0,0
0,70,0,0
0,59,0,18
0,52,0,12
0,31,0,55
0,60,0,0
0,64,0,1
0,64,102,1
0,60,102,1
0,69,80,3
0,71,0,0
0,36,111,1
0,61,67,0
0,64,93,0
0,70,60,0
0,61,0,4
0,64,0,0
0,70,0,0
0,67,85,76
0,67,0,6
0,61,67,10
0,70,33,0
0,61,0,4
0,70,0,0
0,69,0,34
0,69,102,2
0,64,0,2
0,60,0,1
0,64,102,0
0,52,110,5
0,57,112,0
0,60,102,0
0,67,83,4
0,70,104,21
0,52,0,3
0,52,0,0
0,67,0,2
0,60,67,18
0,62,121,0
0,70,63,0
0,71,95,0
0,60,0,4
0,62,0,0
0,70,0,0
0,70,0,0
0,64,0,38
0,60,0,5
0,69,0,0
0,71,0,32
0,52,0,3
0,57,0,0
0,36,0,3
0,60,102,6
0,64,102,1
0,36,112,4
0,52,104,0
0,57,106,0
0,61,70,0
0,69,102,0
0,70,31,0
0,76,68,0
0,61,0,4
0,70,0,0
0,52,0,15
0,57,0,1
0,36,0,8
0,43,109,68
0,61,68,0
0,64,66,0
0,70,64,0
0,61,0,4
0,64,0,0
0,70,0,0
0,60,0,82
0,60,87,1
0,64,0,4
0,64,86,1
0,76,0,2
0,52,105,2
0,60,68,0
0,63,93,0
0,69,0,0
0,70,46,0
0,69,84,1
0,60,0,3
0,63,0,0
0,70,0,0
0,52,0,16
0,69,0,68
0,69,94,1
0,64,0,2
0,64,88,1
0,43,0,3
0,60,0,0
0,31,110,1
0,48,126,0
0,48,103,0
0,52,101,0
0,60,92,0
0,61,71,0
0,63,111,0
0,70,61,0
0,61,0,4
0,63,0,0
0,70,0,0
0,52,0,7
0,60,0,78
0,60,98,1
0,64,0,2
0,64,98,1
0,69,0,2
0,52,106,1
0,57,107,0
0,60,74,0
0,64,65,0
0,69,97,0
0,70,42,0
0,60,0,4
0,64,0,0
0,70,0,0
0,52,0,27
0,57,0,0
0,48,0,24
0,48,0,0
0,31,0,25
0,55,102,5
0,60,0,4
0,64,0,1
0,60,102,1
0,69,0,4
0,36,122,1
0,48,113,0
0,48,90,0
0,61,71,0
0,64,80,0
0,64,97,0
0,70,60,0
0,61,0,4
0,64,0,0
0,70,0,0
0,61,67,92
0,70,33,0
0,61,0,4
0,70,0,0
0,48,0,27
0,48,0,0
0,50,113,1
0,50,90,0
0,64,0,7
0,67,102,1
0,60,0,2
0,64,102,1
0,52,110,5
0,55,114,0
0,60,102,0
0,60,72,48
0,62,121,0
0,70,63,0
0,60,0,4
0,62,0,0
0,70,0,0
0,64,0,38
0,55,0,5
0,60,0,0
0,67,0,0
0,50,0,15
0,50,0,0
0,52,109,2
0,52,86,0
0,60,102,27
0,64,102,1
0,36,0,3
0,52,0,0
0,55,0,0
0,36,92,1
0,52,104,0
0,55,104,0
0,61,63,0
0,67,102,0
0,70,31,0
0,61,0,4
0,70,0,0
0,55,0,7
0,52,0,11
0,36,0,2
0,52,0,71
0,52,0,0
0,43,111,1
0,57,103,0
0,57,80,0
0,61,71,0
0,64,66,0
0,70,64,0
0,61,0,4
0,64,0,0
0,70,0,0
0,60,0,82
0,60,88,1
0,64,0,4
0,64,87,1
0,52,106,4
0,55,108,0
0,60,66,0
0,63,93,0
0,67,0,0
0,70,46,0
0,67,78,1
0,60,0,3
0,63,0,0
0,70,0,0
0,52,0,20
0,55,0,0
0,67,0,64
0,67,82,1
0,43,0,2
0,64,0,0
0,64,76,1
0,60,0,3
0,31,111,1
0,60,92,0
0,61,69,0
0,63,111,0
0,70,61,0
0,61,0,4
0,63,0,0
0,70,0,0
0,60,0,85
0,60,98,1
0,64,0,2
0,64,98,1
0,67,0,2
0,52,105,1
0,55,110,0
0,60,67,0
0,64,63,0
0,67,97,0
0,70,42,0
0,60,0,4
0,64,0,0
0,70,0,0
0,52,0,22
0,55,0,5
0,31,0,56
0,60,0,2
0,64,0,1
0,64,102,1
0,60,102,1
0,67,0,3
0,69,80,0
0,36,111,1
0,61,67,0
0,64,93,0
0,70,60,0
0,61,0,4
0,64,0,0
0,70,0,0
0,61,67,92
0,70,33,0
0,61,0,4
0,70,0,0
0,69,0,34
0,69,102,2
0,64,0,2
0,60,0,1
0,64,102,0
0,52,110,5
0,57,112,0
0,60,102,0
0,57,0,11
0,57,0,0
0,55,118,37
0,55,95,0
0,60,67,0
0,62,121,0
0,70,63,0
0,60,0,4
0,62,0,0
0,70,0,0
0,64,0,38
0,60,0,5
0,69,0,0
0,57,0,44
0,60,102,0
0,52,0,1
0,64,102,0
0,36,0,3
0,36,110,1
0,52,107,0
0,57,107,0
0,61,70,0
0,69,102,0
0,70,31,0
0,61,0,4
0,70,0,0
0,57,0,15
0,52,0,5
0,55,0,32
0,55,0,0
0,36,0,35
0,43,106,5
0,55,125,0
0,55,102,0
0,61,68,0
0,64,66,0
0,70,64,0
0,61,0,4
0,64,0,0
0,70,0,0
0,60,0,82
0,60,80,1
0,64,0,4
0,64,85,1
0,52,107,4
0,57,103,0
0,60,68,0
0,63,93,0
0,69,0,0
0,70,46,0
0,69,87,1
0,60,0,3
0,63,0,0
0,70,0,0
0,57,0,16
0,52,0,11
0,55,0,0
0,55,0,0
0,53,107,1
0,53,84,0
0,69,0,56
0,69,76,1
0,64,0,2
0,64,78,1
0,43,0,3
0,60,0,0
0,31,110,1
0,52,98,0
0,60,92,0
0,61,71,0
0,63,111,0
0,70,61,0
0,61,0,4
0,63,0,0
0,70,0,0
0,52,0,12
0,53,0,47
0,53,0,0
0,52,102,1
0,52,79,0
0,60,0,25
0,60,98,1
0,64,0,2
0,64,98,1
0,69,0,2
0,52,107,1
0,57,109,0
0,60,74,0
0,64,65,0
0,69,97,0
0,70,42,0
0,60,0,4
0,64,0,0
0,70,0,0
0,52,0,22
0,57,0,0
0,31,0,58
0,60,0,5
0,64,0,1
0,62,98,1
0,65,98,2
0,52,0,2
0,52,0,0
0,69,0,0
0,38,109,1
0,53,103,0
0,53,80,0
0,61,71,0
0,64,97,0
0,70,60,0
0,72,80,0
0,61,0,4
0,64,0,0
0,70,0,0
0,61,67,92
0,70,33,0
0,61,0,4
0,70,0,0
0,62,0,33
0,65,0,2
0,72,0,0
0,72,102,1
0,65,102,3
0,53,114,5
0,57,110,0
0,62,102,0
0,60,72,48
0,62,121,0
0,70,63,0
0,74,117,0
0,60,0,4
0,62,0,0
0,70,0,0
0,65,0,38
0,62,0,5
0,72,0,0
0,72,103,1
0,74,0,1
0,57,0,24
0,53,0,6
0,72,0,4
0,62,102,8
0,65,102,1
0,38,0,3
0,38,111,1
0,53,108,0
0,57,101,0
0,61,63,0
0,69,88,0
0,70,31,0
0,72,102,0
0,61,0,4
0,70,0,0
0,57,0,17
0,53,0,5
0,69,0,14
0,75,99,35
0,53,0,5
0,53,0,0
0,38,0,6
0,45,110,10
0,50,99,0
0,50,76,0
0,61,71,0
0,64,66,0
0,70,64,0
0,76,95,0
0,61,0,4
0,64,0,0
0,70,0,0
0,75,0,10
0,76,0,59
0,62,0,13
0,62,84,1
0,65,0,4
0,65,86,1
0,53,103,4
0,57,100,0
0,60,66,0
0,63,93,0
0,70,46,0
0,72,71,0
0,72,0,0
0,72,83,1
0,60,0,3
0,63,0,0
0,70,0,0
0,57,0,26
0,53,0,8
0,72,0,6
0,72,0,44
0,72,79,1
0,65,0,2
0,65,79,1
0,45,0,3
0,62,0,0
0,33,110,1
0,61,69,0
0,62,83,0
0,63,111,0
0,70,61,0
0,61,0,4
0,63,0,0
0,70,0,0
0,62,0,85
0,62,98,1
0,65,0,2
0,65,98,1
0,72,0,2
0,53,104,1
0,57,97,0
0,60,67,0
0,64,63,0
0,70,42,0
0,72,97,0
0,60,0,4
0,64,0,0
0,70,0,0
0,57,0,18
0,53,0,12
0,33,0,55
0,62,0,0
0,65,0,1
0,67,102,1
0,62,102,1
0,71,80,3
0,72,0,0
0,38,111,1
0,61,67,0
0,64,93,0
0,70,60,0
0,61,0,4
0,64,0,0
0,70,0,0
0,69,81,82
0,61,67,10
0,70,33,0
0,61,0,4
0,70,0,0
0,69,0,2
0,71,0,32
0,71,102,2
0,67,0,2
0,62,0,1
0,67,102,0
0,55,110,5
0,59,112,0
0,62,102,0
0,60,67,48
0,62,121,0
0,70,63,0
0,74,119,0
0,60,0,4
0,62,0,0
0,70,0,0
0,67,0,38
0,74,0,2
0,62,0,3
0,71,0,0
0,72,105,1
0,55,0,34
0,59,0,0
0,72,0,5
0,62,102,4
0,67,102,1
0,38,0,3
0,38,92,1
0,55,104,0
0,59,106,0
0,61,70,0
0,69,91,0
0,70,31,0
0,71,102,0
0,61,0,4
0,70,0,0
0,55,0,15
0,59,0,1
0,38,0,1
0,69,0,4
0,69,81,24
0,70,81,21
0,69,0,12
0,43,109,14
0,61,68,0
0,64,66,0
0,70,64,0
0,71,98,0
0,61,0,4
0,64,0,0
0,70,0,0
0,70,0,13
0,50,0,31
0,50,0,0
0,71,0,35
0,62,0,3
0,62,87,1
0,67,0,4
0,67,86,1
0,55,105,4
0,60,68,0
0,63,93,0
0,70,46,0
0,71,0,0
0,74,102,0
0,71,84,1
0,60,0,3
0,63,0,0
0,70,0,0
0,55,0,16
0,71,0,68
0,71,94,1
0,67,0,2
0,67,88,1
0,43,0,3
0,62,0,0
0,31,110,1
0,50,122,0
0,50,89,0
0,55,101,0
0,61,71,0
0,62,92,0
0,63,111,0
0,70,61,0
0,61,0,4
0,63,0,0
0,70,0,0
0,55,0,7
0,74,0,8
0,62,0,70
0,62,98,1
0,67,0,2
0,67,98,1
0,71,0,2
0,55,106,1
0,59,107,0
0,60,74,0
0,64,65,0
0,70,42,0
0,71,97,0
0,60,0,4
0,64,0,0
0,70,0,0
0,55,0,27
0,59,0,0
0,50,0,24
0,50,0,0
0,31,0,25
0,62,0,9
0,67,0,1
0,62,98,1
0,65,98,2
0,71,0,2
0,38,122,1
0,50,120,0
0,50,87,0
0,61,71,0
0,64,97,0
0,70,60,0
0,72,80,0
0,61,0,4
0,64,0,0
0,70,0,0
0,61,67,92
0,70,33,0
