track,note,velocity,time
0,33,93,1536
0,52,33,0
0,57,30,0
0,60,36,0
0,76,74,0
0,67,66,0
0,64,63,0
0,57,63,0
0,67,80,0
0,76,94,0
0,45,61,0
0,52,61,0
0,57,41,0
0,64,41,0
0,69,63,0
0,76,63,0
0,42,73,0
0,36,93,0
0,46,73,44
0,33,99,40
0,52,27,0
0,60,33,0
0,45,66,0
0,57,46,0
0,52,64,0
0,64,44,0
0,42,69,0
0,40,108,0
0,57,22,0
0,67,58,0
0,74,82,0
0,67,66,0
0,74,108,0
0,46,67,28
0,54,62,4
0,66,62,0
0,62,64,8
0,74,64,0
0,38,81,4
0,76,76,0
0,76,98,0
0,42,69,0
0,50,38,0
0,60,38,0
0,45,67,0
0,50,63,0
0,57,47,0
0,62,43,0
0,36,87,0
0,54,15,4
0,71,51,0
0,71,54,0
0,74,78,28
0,74,101,0
0,46,62,0
0,71,57,12
0,71,64,0
0,38,93,44
0,74,83,0
0,74,110,0
0,50,69,0
0,62,49,0
0,42,73,0
0,40,99,0
0,54,23,0
0,57,61,0
0,69,41,0
0,50,42,4
0,60,43,0
0,76,62,0
0,76,73,0
0,70,61,4
0,70,71,0
0,46,69,0
0,71,69,76
0,71,85,0
0,36,42,4
0,31,90,4
0,62,67,0
0,74,67,0
0,55,61,4
0,67,61,0
0,42,82,0
0,36,82,0
0,59,44,0
0,50,41,0
0,55,57,0
0,47,61,0
0,67,37,0
0,59,41,0
0,55,39,4
0,70,67,52
0,70,82,0
0,71,57,8
0,71,64,0
0,46,67,0
0,70,66,88
0,70,80,0
0,31,104,44
0,50,64,0
0,62,44,0
0,40,105,0
0,71,78,0
0,71,101,0
0,55,58,0
0,67,38,0
0,55,37,4
0,59,41,0
0,42,82,0
0,50,37,0
0,70,72,92
0,70,91,0
0,46,71,0
0,71,82,0
0,71,108,0
0,70,73,92
0,70,92,0
0,32,93,44
0,59,47,0
0,71,82,0
0,56,63,0
0,71,108,0
0,50,67,0
0,62,47,0
0,56,69,0
0,68,49,0
0,68,63,0
0,36,102,0
0,42,73,0
0,50,31,0
0,56,43,0
0,65,61,0
0,65,71,0
0,70,69,40
0,70,85,0
0,71,79,8
0,71,103,0
0,46,67,0
0,70,66,92
0,70,80,0
0,40,99,60
0,32,117,0
0,71,78,0
0,71,101,0
0,56,69,0
0,68,49,0
0,50,63,0
0,62,43,0
0,42,79,0
0,50,32,0
0,59,44,0
0,56,30,0
0,65,59,0
0,65,68,0
0,74,67,96
0,74,82,0
0,46,67,8
0,64,69,0
0,57,68,0
0,69,68,0
0,76,69,0
0,52,67,20
0,64,47,0
0,33,113,4
0,57,61,0
0,69,41,0
0,42,73,0
0,36,102,0
0,57,25,4
0,52,29,0
0,60,34,0
0,69,71,52
0,69,89,0
0,46,67,0
0,76,77,0
0,76,99,0
0,74,72,64
0,74,91,0
0,57,31,72
0,60,42,0
0,52,18,0
0,52,67,0
0,64,47,0
0,33,113,4
0,57,67,0
0,69,47,0
0,42,93,0
0,40,102,0
0,76,84,0
0,76,112,0
0,74,77,88
0,74,99,0
0,46,58,4
0,76,77,12
0,76,99,0
0,54,67,0
0,66,67,0
0,62,87,8
0,74,87,0
0,60,40,0
0,50,36,0
0,54,27,4
0,38,99,4
0,57,73,0
0,50,69,0
0,69,53,0
0,62,49,0
0,42,87,0
0,36,87,0
0,46,67,4
0,74,85,0
0,74,113,0
0,74,78,16
0,74,101,0
0,60,50,88
0,38,108,4
0,54,31,0
0,50,44,0
0,50,69,0
0,62,49,0
0,60,67,0
0,72,47,0
0,42,87,4
0,40,99,0
0,71,69,0
0,71,85,0
0,74,79,12
0,74,103,0
0,46,69,0
0,71,70,88
0,71,87,0
0,55,64,0
0,64,60,0
0,67,64,0
0,76,60,0
0,59,54,0
0,40,93,4
0,55,44,0
0,52,34,0
0,59,67,0
0,71,47,0
0,52,67,0
0,64,47,0
0,36,96,0
0,42,87,0
0,76,75,0
0,76,96,0
0,71,72,76
0,71,91,0
0,67,68,4
0,67,84,0
0,46,67,28
0,59,43,136
0,28,90,4
0,52,30,0
0,55,30,0
0,59,66,0
0,52,73,0
0,71,46,0
0,64,53,0
0,40,108,4
0,42,84,0
0,46,67,40
0,55,33,180
0,59,44,0
0,50,24,4
0,59,64,0
0,50,66,0
0,71,44,0
0,62,46,0
0,36,87,0
0,38,90,0
0,42,87,0
0,46,71,0
0,26,86,36
0,59,55,0
0,55,38,0
0,50,34,4
0,59,68,4
0,50,63,0
0,71,48,0
0,62,43,0
0,40,99,0
0,42,87,0
0,76,64,36
0,76,77,0
0,46,73,4
0,74,85,84
0,74,113,0
0,36,27,12
0,33,93,8
0,64,73,0
0,57,61,0
0,69,61,0
0,76,73,0
0,76,71,4
0,76,89,0
0,45,63,0
0,52,67,0
0,57,43,0
0,64,47,0
0,42,87,0
0,52,30,0
0,57,32,0
0,60,45,0
0,36,82,0
0,74,69,48
0,74,85,0
0,76,77,0
0,76,99,0
0,46,73,0
0,33,47,60
0,74,66,0
0,74,80,0
0,33,99,72
0,60,33,0
0,52,31,0
0,76,62,0
0,76,73,0
0,52,66,0
0,45,66,0
0,64,46,0
0,57,46,0
0,42,87,0
0,57,30,0
0,40,105,0
0,76,61,36
0,76,71,0
0,46,67,40
0,74,72,0
0,74,91,0
0,76,70,64
0,76,87,0
0,35,90,4
0,59,27,0
0,62,50,0
0,66,82,0
0,59,82,0
0,47,68,0
0,54,66,0
0,59,48,0
0,66,46,0
0,71,82,0
0,78,82,0
0,36,96,0
0,42,82,0
0,54,38,0
0,74,79,56
0,74,103,0
0,74,65,24
0,74,78,0
0,46,69,0
0,35,77,0
0,71,69,0
0,71,85,0
0,47,68,48
0,54,67,0
0,59,48,0
0,66,47,0
0,35,99,4
0,59,33,0
0,62,42,0
0,40,99,0
0,42,79,0
0,54,36,0
0,74,69,0
0,74,85,0
0,34,77,0
0,71,66,0
0,71,80,0
0,46,79,0
0,35,104,4
0,67,57,0
0,76,71,0
0,67,64,0
0,76,89,0
0,60,63,0
0,67,70,0
0,48,68,0
0,60,48,0
0,55,68,0
0,67,48,0
0,72,63,0
0,79,70,0
0,64,47,0
0,55,36,0
0,42,79,0
0,36,93,0
0,36,104,0
0,60,24,0
0,46,76,64
0,36,74,40
0,55,55,0
0,48,53,0
0,67,35,0
0,60,33,0
0,55,34,52
0,64,44,4
0,40,105,0
0,42,87,0
0,36,108,0
0,60,36,0
0,48,69,0
0,60,49,0
0,55,66,0
0,67,46,0
0,46,87,12
0,48,61,88
0,55,63,0
0,60,41,0
0,67,43,0
0,64,50,32
0,55,48,0
0,60,37,4
0,36,93,0
0,36,104,0
0,42,87,0
0,55,55,0
0,48,61,0
0,67,35,0
0,60,41,0
0,62,46,4
0,57,58,16
0,69,38,0
0,64,34,4
0,48,38,0
0,60,18,0
0,46,82,4
0,41,87,0
0,40,73,0
0,36,65,0
0,62,56,0
0,55,51,0
0,48,42,0
0,67,31,0
0,60,22,0
0,55,36,32
0,64,51,0
0,55,67,0
0,48,66,0
0,67,47,0
0,60,46,0
0,45,76,0
0,36,113,0
0,47,73,0
0,42,53,0
0,60,23,0
0,55,63,12
0,48,63,0
0,67,43,0
0,60,43,0
0,42,64,0
0,45,76,0
0,79,73,0
0,79,92,0
0,57,63,8
0,69,43,0
0,48,41,0
0,60,21,0
0,46,93,0
0,43,93,0
0,41,102,0
0,55,53,32
0,67,33,0
0,31,83,20
0,79,74,0
0,71,64,0
0,71,77,0
0,79,94,0
0,50,55,0
0,43,61,0
0,62,35,0
0,55,41,0
0,55,37,4
0,74,72,0
0,59,69,0
0,74,91,0
0,71,69,0
0,42,67,0
0,43,57,0
0,36,93,0
0,74,71,36
0,79,71,0
0,74,89,0
0,79,89,0
0,50,66,0
0,43,64,0
0,62,46,0
0,55,44,0
0,71,63,4
0,71,75,0
0,42,73,0
0,71,68,40
0,79,68,0
0,71,84,0
0,79,84,0
0,52,67,0
0,64,47,0
0,39,96,0
0,38,90,0
0,74,74,0
0,74,94,0
0,43,71,0
0,55,51,0
0,46,96,0
0,31,86,28
0,50,64,0
0,62,44,0
0,71,74,4
0,78,91,0
0,71,94,0
0,78,124,0
0,43,58,0
0,55,38,0
0,36,82,0
0,74,71,0
0,74,89,0
0,50,73,60
0,43,66,0
0,62,53,0
0,55,46,0
0,31,104,4
0,55,50,0
0,36,82,0
0,42,82,0
0,43,54,0
0,43,66,0
0,55,46,0
0,50,64,0
0,62,44,0
0,76,75,4
0,76,96,0
0,42,87,0
0,43,45,32
0,55,25,0
0,52,63,0
0,64,43,0
0,39,99,0
0,38,90,0
0,46,87,0
0,76,67,0
0,76,82,0
0,50,64,32
0,43,66,0
0,62,44,0
0,55,46,0
0,74,77,4
0,74,99,0
0,50,73,8
0,43,64,0
0,62,53,0
0,55,44,0
0,42,79,0
0,36,87,0
0,31,108,0
0,43,53,0
0,55,53,0
0,76,77,4
0,71,64,0
0,67,47,0
0,67,47,0
0,71,77,0
0,76,99,0
0,50,61,8
0,43,63,0
0,62,41,0
0,55,43,0
0,42,82,0
0,74,81,0
0,71,67,0
0,67,72,0
0,67,91,0
0,71,82,0
0,74,106,0
0,52,62,48
0,43,66,0
0,64,42,0
0,55,46,0
0,38,90,0
0,39,96,0
0,46,96,0
0,31,86,12
0,50,62,0
0,62,42,0
0,43,55,0
0,55,35,0
0,74,81,4
0,71,68,0
0,67,58,0
0,67,66,0
0,71,84,0
0,74,106,0
0,36,64,0
0,55,40,56
0,43,62,0
0,55,42,0
0,50,67,0
0,62,47,0
0,31,113,4
0,43,42,0
0,42,96,0
0,43,53,24
0,50,56,0
0,55,33,0
0,62,36,0
0,42,73,0
0,36,82,0
0,52,64,8
0,64,44,0
0,43,67,0
0,55,47,0
0,32,99,4
0,67,57,0
0,79,89,0
0,74,70,0
0,67,64,0
0,74,87,0
0,79,120,0
0,46,93,0
0,38,99,0
0,39,93,0
0,71,59,0
0,71,68,0
0,43,40,40
0,55,20,0
0,50,55,0
0,62,35,0
0,57,68,4
0,64,87,0
0,69,68,0
0,76,87,0
0,45,62,4
0,52,66,0
0,57,42,0
0,64,46,0
0,33,104,4
0,45,35,0
0,57,50,0
0,64,64,0
0,60,62,0
0,69,72,0
0,60,73,0
0,64,77,0
0,69,91,0
0,42,87,0
0,36,87,0
0,52,61,56
0,45,57,0
0,64,41,0
0,57,37,0
0,42,87,4
0,52,64,20
0,45,58,0
0,64,44,0
0,57,38,0
0,46,93,4
0,38,84,0
0,39,87,0
0,52,55,64
0,64,35,0
0,36,50,0
0,33,72,0
0,45,42,0
0,57,22,0
0,45,64,60
0,57,44,0
0,33,117,4
0,57,55,0
0,69,63,0
0,76,79,0
0,72,75,0
0,69,75,0
0,72,96,0
0,76,103,0
0,52,56,0
0,64,36,0
0,36,93,0
0,42,87,0
0,45,40,0
0,45,55,16
0,52,57,0
0,57,35,0
0,64,37,0
0,69,83,4
0,69,110,0
0,42,87,0
0,38,87,0
0,39,93,0
0,55,64,0
0,67,44,0
0,46,99,0
0,67,77,8
0,67,99,0
0,52,58,0
0,64,38,0
0,45,41,4
0,57,21,0
0,33,104,64
0,57,52,0
0,45,35,0
0,52,64,0
0,64,44,0
0,69,72,4
0,69,91,0
0,45,63,0
0,57,43,0
0,42,87,0
0,36,87,0
0,64,48,0
0,64,49,0
0,60,26,4
0,60,10,0
0,52,56,0
0,45,60,0
0,64,36,0
0,57,40,0
0,42,87,4
0,55,63,8
0,67,43,0
0,45,56,4
0,57,36,0
0,46,87,0
0,38,82,0
0,39,82,0
0,52,52,28
0,64,32,0
0,33,69,4
0,45,50,0
0,57,30,0
0,36,52,0
0,57,64,48
0,45,36,4
0,45,57,4
0,52,60,0
0,57,37,0
0,64,40,0
0,42,76,0
0,33,104,0
0,36,93,0
0,59,65,8
0,45,51,0
0,57,31,0
0,52,52,0
0,64,32,0
0,35,117,4
0,47,38,0
0,42,87,0
0,45,62,12
0,52,56,0
0,57,42,0
0,64,36,0
0,46,93,0
0,38,90,0
0,39,99,0
0,52,46,32
0,45,50,0
0,64,26,0
0,57,30,0
0,67,68,8
0,79,68,0
0,60,67,4
0,72,67,0
0,36,117,8
0,60,56,0
0,69,69,0
0,69,85,0
0,42,93,0
0,48,34,0
0,48,28,0
0,55,51,0
0,60,8,0
0,67,31,0
0,36,93,0
0,69,64,56
0,69,77,0
0,42,87,0
0,48,61,0
0,60,41,0
0,55,60,0
0,67,40,0
0,69,67,12
0,69,82,0
0,57,67,4
0,69,47,0
0,46,87,4
0,39,87,0
0,38,73,0
0,71,72,16
0,71,91,0
0,36,65,4
0,55,52,0
0,67,32,0
0,48,34,4
0,60,14,0
0,36,32,0
0,36,117,68
0,60,49,0
0,64,51,0
0,64,54,0
0,48,43,4
0,48,63,0
0,55,73,0
0,60,43,0
0,67,53,0
0,36,93,0
0,42,87,0
0,48,53,56
0,55,51,0
0,60,33,0
0,67,31,0
0,42,90,0
0,57,53,28
0,48,56,0
0,69,33,0
0,60,36,0
0,46,82,0
0,39,93,0
0,38,96,0
0,55,42,40
0,67,22,0
0,55,62,4
0,60,69,8
0,48,36,0
0,36,104,0
0,55,69,0
0,67,49,0
0,48,61,0
0,60,41,0
0,42,93,4
0,36,96,0
0,48,50,40
0,55,50,0
0,60,30,0
0,67,30,0
0,42,82,0
0,57,46,48
0,69,26,0
0,55,63,0
0,48,60,0
0,67,43,0
0,60,40,0
0,46,96,0
0,39,96,0
0,38,84,0
0,36,74,44
0,55,48,0
0,67,28,0
0,55,58,4
0,36,24,0
0,48,63,4
0,60,43,0
0,55,64,0
0,67,44,0
0,36,113,4
0,60,64,0
0,48,50,0
0,42,87,0
0,36,93,0
0,55,60,4
0,67,40,0
0,48,51,0
0,60,31,0
0,39,90,0
0,52,69,0
0,38,82,0
0,42,87,0
0,53,63,4
0,57,58,0
0,69,38,0
0,46,93,4
0,39,90,0
0,38,90,0
0,54,69,0
0,48,38,0
0,60,18,0
0,55,37,0
0,67,17,0
0,36,67,4
0,55,64,40
0,31,89,4
0,79,78,0
0,79,101,0
0,43,48,4
0,74,62,0
0,71,74,0
0,71,94,0
0,74,73,0
0,43,60,0
0,50,40,0
0,55,40,0
0,62,20,0
0,42,93,4
0,36,99,0
0,59,82,0
0,71,82,0
0,78,85,52
0,74,64,0
0,74,77,0
0,78,113,0
0,50,64,0
0,62,44,0
0,43,62,0
0,55,42,0
0,42,87,0
0,71,73,0
0,71,92,0
0,52,52,28
0,64,32,0
0,46,93,0
0,38,90,0
0,39,102,0
0,31,77,12
0,50,52,0
0,62,32,0
0,36,36,4
0,76,69,0
0,76,85,0
0,31,113,16
0,55,58,0
0,43,34,0
0,43,62,0
0,50,64,0
0,55,42,0
0,62,44,0
0,76,74,0
0,67,69,0
0,71,70,0
0,67,85,0
0,71,87,0
0,76,94,0
0,42,82,0
0,36,96,0
0,43,63,24
0,55,43,0
0,50,63,0
0,62,43,0
0,42,87,0
0,71,43,0
0,67,62,0
0,74,68,0
0,67,73,0
0,71,40,0
0,74,84,0
0,52,67,20
0,64,47,0
0,46,79,0
0,74,80,0
0,74,105,0
0,39,99,0
0,38,99,0
0,67,57,0
0,71,59,0
0,67,64,0
0,71,68,0
0,74,69,20
0,74,85,0
0,50,55,0
0,62,35,0
0,67,51,4
0,67,54,0
0,71,36,4
0,71,28,0
0,31,117,36
0,74,59,0
0,74,68,0
0,43,61,0
0,55,41,0
0,50,64,0
0,62,44,0
0,42,96,4
0,36,93,0
0,55,45,0
0,67,61,0
0,71,71,0
0,67,71,0
0,71,89,0
0,43,29,4
0,50,64,20
0,43,61,0
0,62,44,0
0,55,41,0
0,42,69,4
0,67,59,0
0,71,46,0
0,74,82,0
0,67,68,0
0,71,45,0
0,74,108,0
0,52,58,36
0,43,55,0
0,64,38,0
0,55,35,0
0,38,87,4
0,39,102,0
0,46,96,0
0,76,77,0
0,76,99,0
0,67,78,4
0,71,78,0
0,67,101,0
