track,note,velocity,time
1,45,74,1880
1,36,85,2
1,38,85,216
1,43,85,28
1,36,85,34
1,38,85,192
1,43,85,28
1,36,85,34
1,38,85,192
1,43,85,28
1,36,85,34
1,38,85,192
1,43,85,28
1,36,85,34
1,38,85,192
1,43,85,28
1,36,85,34
1,38,85,192
1,43,85,28
1,31,85,34
1,33,85,192
1,38,85,28
1,31,85,34
1,33,85,192
1,38,85,28
1,31,85,34
1,33,85,192
1,38,85,28
1,31,85,34
1,33,85,192
1,38,85,28
1,31,85,34
1,33,85,192
1,38,85,28
1,31,85,34
1,33,85,192
1,38,85,28
1,31,85,34
1,33,85,192
1,38,85,28
1,31,85,34
1,33,85,192
1,38,85,28
1,36,85,34
1,38,85,216
1,43,85,28
1,36,85,34
1,38,85,192
1,43,85,28
1,36,85,34
1,38,85,216
1,43,85,28
1,36,85,34
1,38,85,192
1,43,85,28
1,36,85,34
1,38,85,192
1,43,85,28
1,36,85,34
1,38,85,192
1,43,85,28
1,36,85,34
1,38,85,192
1,43,85,28
1,36,85,34
1,38,85,192
1,43,85,28
1,31,85,34
1,33,85,192
1,38,85,28
1,31,85,34
1,33,85,192
1,38,85,28
1,31,85,34
1,33,85,192
1,38,85,28
1,31,85,34
1,33,85,192
1,38,85,28
1,31,85,34
1,33,85,192
1,38,85,28
1,31,85,34
1,33,85,192
1,38,85,28
1,31,85,34
1,33,85,192
1,38,85,28
1,31,85,34
1,33,85,192
1,38,85,28
1,36,85,34
1,38,85,216
1,43,85,28
1,36,85,34
1,38,85,192
1,43,85,28
1,36,85,34
1,38,85,216
1,43,85,28
1,36,85,34
1,38,85,192
1,43,85,28
1,36,85,34
1,38,85,192
1,43,85,28
1,36,85,34
1,38,85,192
1,43,85,28
1,36,85,34
1,38,85,192
1,43,85,28
1,36,85,34
1,38,85,192
1,43,85,28
1,31,85,34
1,33,85,192
1,38,85,28
1,31,85,34
1,33,85,192
1,38,85,28
1,31,85,34
1,33,85,192
1,38,85,28
1,31,85,34
1,33,85,192
1,38,85,28
1,31,85,34
1,33,85,192
1,38,85,28
1,31,85,34
1,33,85,192
1,38,85,28
1,31,85,34
1,33,85,192
1,38,85,28
1,31,85,34
1,33,85,192
1,38,85,28
1,36,85,34
1,43,95,216
1,48,98,220
1,43,85,192
1,36,85,2
1,38,85,216
1,43,85,28
1,36,85,34
1,38,85,192
1,43,85,28
1,36,85,34
1,38,85,192
1,43,85,28
1,36,85,34
1,38,85,192
1,43,85,28
1,36,85,34
1,38,85,192
1,43,85,28
1,36,85,34
1,38,85,192
1,43,85,28
1,31,85,34
1,33,85,192
1,38,85,28
1,31,85,34
1,33,85,192
1,38,85,28
1,31,85,34
1,33,85,192
1,38,85,28
1,31,85,34
1,33,85,192
1,38,85,28
1,31,85,34
1,33,85,192
1,38,85,28
1,31,85,34
1,33,85,192
1,38,85,28
1,31,93,34
1,31,93,96
1,33,95,92
1,33,85,100
1,35,91,100
1,35,95,102
1,31,85,64
1,35,85,2
1,36,85,24
1,38,85,192
1,43,85,28
1,36,85,34
1,38,85,192
1,43,85,28
1,36,85,34
1,38,85,216
1,43,85,28
1,36,85,34
1,38,85,192
1,43,85,28
1,36,85,34
1,38,85,192
1,43,85,28
1,36,85,34
1,38,85,192
1,43,85,28
1,36,85,34
1,38,85,192
1,43,85,28
1,36,85,34
1,38,85,192
1,43,85,28
1,31,85,34
1,33,85,192
1,38,85,28
1,31,85,34
1,33,85,192
1,38,85,28
1,31,85,34
1,33,85,192
1,38,85,28
1,31,85,34
1,33,85,192
1,38,85,28
1,31,85,34
1,33,85,192
1,38,85,28
1,31,85,34
1,33,85,192
1,38,85,28
1,31,85,34
1,33,85,192
1,38,85,28
1,31,85,34
1,33,85,192
1,38,85,28
1,36,85,34
1,38,85,216
1,43,85,28
1,36,85,34
1,38,85,192
1,43,85,28
1,36,85,34
1,38,85,216
1,43,85,28
1,36,85,34
1,38,85,192
1,43,85,28
1,36,85,34
1,38,85,192
1,43,85,28
1,36,85,34
1,38,85,192
1,43,85,28
1,36,85,34
1,38,85,192
1,43,85,28
1,36,85,34
1,38,85,192
1,43,85,28
1,31,85,34
1,33,85,192
1,38,85,28
1,31,85,34
1,33,85,192
1,38,85,28
1,31,85,34
1,33,85,192
1,38,85,28
1,31,85,34
1,33,85,192
1,38,85,28
1,31,85,34
1,33,85,192
1,38,85,28
1,31,85,34
1,33,85,192
1,38,85,28
1,31,85,34
1,33,85,192
1,38,85,28
1,31,85,34
1,33,85,192
1,38,85,28
1,36,85,34
1,43,95,216
1,48,98,220
1,43,85,192
1,36,85,24
1,38,85,216
1,43,85,28
1,36,85,34
1,38,85,192
1,43,85,28
1,36,85,34
1,38,85,192
1,43,85,28
1,36,85,34
1,38,85,192
1,43,85,28
1,36,85,34
1,38,85,192
1,43,85,28
1,36,85,34
1,38,85,192
1,43,85,28
1,31,85,34
1,33,85,192
1,38,85,28
1,31,85,34
1,33,85,192
1,38,85,28
1,31,85,34
1,33,85,192
1,38,85,28
1,31,85,34
1,33,85,192
1,38,85,28
1,31,85,34
1,33,85,192
1,38,85,28
1,31,85,34
1,33,85,192
1,38,85,28
1,31,93,34
1,31,93,96
1,33,95,92
1,33,85,100
1,35,91,100
1,35,95,102
1,35,91,64
1,35,95,102
1,36,85,64
1,38,87,192
1,43,89,28
1,36,91,34
1,38,93,192
1,43,95,28
1,36,100,34
2,64,125,2236
2,67,85,0
2,72,85,0
2,64,85,132
2,67,85,0
2,72,85,0
2,64,85,132
2,67,85,0
2,72,85,0
2,64,85,132
2,67,85,0
2,72,85,0
2,64,85,132
2,67,85,0
2,72,85,0
2,64,85,132
2,67,85,0
2,72,85,0
2,64,85,132
2,67,85,0
2,72,85,0
2,64,85,132
2,67,85,0
2,72,85,0
2,64,85,132
2,67,85,0
2,72,85,0
2,64,85,132
2,67,85,0
2,72,85,0
2,64,85,132
2,67,85,0
2,72,85,0
2,64,85,132
2,67,85,0
2,72,85,0
2,64,85,132
2,67,85,0
2,72,85,0
2,64,85,132
2,67,85,0
2,72,85,0
2,64,85,132
2,67,85,0
2,72,85,0
2,64,85,132
2,67,85,0
2,72,85,0
2,64,85,132
2,67,85,0
2,72,85,0
2,64,85,132
2,67,85,0
2,72,85,0
2,64,85,132
2,67,85,0
2,72,85,0
2,64,85,132
2,67,85,0
2,72,85,0
2,64,85,132
2,67,85,0
2,72,85,0
2,64,85,132
2,67,85,0
2,72,85,0
2,64,85,132
2,67,85,0
2,72,85,0
2,64,85,132
2,67,85,0
2,72,85,0
2,62,85,132
2,67,84,0
2,71,90,0
2,62,85,132
2,67,85,0
2,71,85,0
2,62,85,132
2,67,85,0
2,71,85,0
2,62,85,132
2,67,85,0
2,71,85,0
2,62,85,132
2,67,85,0
2,71,85,0
2,62,85,132
2,67,85,0
2,71,85,0
2,62,85,132
2,67,85,0
2,71,85,0
2,62,85,132
2,67,85,0
2,71,85,0
2,62,85,132
2,67,85,0
2,71,85,0
2,62,85,132
2,67,85,0
2,71,85,0
2,62,85,132
2,67,85,0
2,71,85,0
2,62,85,132
2,67,84,0
2,71,90,0
2,62,85,132
2,67,85,0
2,71,85,0
2,62,85,132
2,67,85,0
2,71,85,0
2,62,85,132
2,67,85,0
2,71,85,0
2,62,85,132
2,67,85,0
2,71,85,0
2,62,85,132
2,67,85,0
2,71,85,0
2,62,85,132
2,67,85,0
2,71,85,0
2,62,85,132
2,67,85,0
2,71,85,0
2,62,85,132
2,67,85,0
2,71,85,0
2,62,85,132
2,67,85,0
2,71,85,0
2,62,85,132
2,67,85,0
2,71,85,0
2,62,85,132
2,67,84,0
2,71,90,0
2,62,85,132
2,67,85,0
2,71,85,0
2,62,85,132
2,67,85,0
2,71,85,0
2,62,85,132
2,67,85,0
2,71,85,0
2,62,85,132
2,67,85,0
2,71,85,0
2,62,85,132
2,67,85,0
2,71,85,0
2,62,85,132
2,67,85,0
2,71,85,0
2,62,85,132
2,67,85,0
2,71,85,0
2,62,85,132
2,67,85,0
2,71,85,0
2,62,85,132
2,67,85,0
2,71,85,0
2,64,120,132
2,67,85,0
2,72,85,0
2,64,85,132
2,67,85,0
2,72,85,0
2,64,85,132
2,67,85,0
2,72,85,0
2,64,85,132
2,67,85,0
2,72,85,0
2,64,85,132
2,67,85,0
2,72,85,0
2,64,85,132
2,67,85,0
2,72,85,0
2,64,85,132
2,67,85,0
2,72,85,0
2,64,85,132
2,67,85,0
2,72,85,0
2,64,125,132
2,67,85,0
2,72,85,0
2,64,85,132
2,67,85,0
2,72,85,0
2,64,85,132
2,67,85,0
2,72,85,0
2,64,85,132
2,67,85,0
2,72,85,0
2,64,85,132
2,67,85,0
2,72,85,0
2,64,85,132
2,67,85,0
2,72,85,0
2,64,85,132
2,67,85,0
2,72,85,0
2,64,85,132
2,67,85,0
2,72,85,0
2,64,85,132
2,67,85,0
2,72,85,0
2,64,85,132
2,67,85,0
2,72,85,0
2,64,85,132
2,67,85,0
2,72,85,0
2,64,85,132
2,67,85,0
2,72,85,0
2,64,85,132
2,67,85,0
2,72,85,0
2,64,85,132
2,67,85,0
2,72,85,0
2,64,85,132
2,67,85,0
2,72,85,0
2,64,85,132
2,67,85,0
2,72,85,0
2,64,85,132
2,67,85,0
2,72,85,0
2,64,85,132
2,67,85,0
2,72,85,0
2,64,85,132
2,67,85,0
2,72,85,0
2,64,85,132
2,67,85,0
2,72,85,0
2,64,85,132
2,67,85,0
2,72,85,0
2,64,85,132
2,67,85,0
2,72,85,0
2,64,85,132
2,67,85,0
2,72,85,0
2,64,85,132
2,67,85,0
2,72,85,0
2,62,85,132
2,67,84,0
2,71,90,0
2,62,85,132
2,67,85,0
2,71,85,0
2,62,85,132
2,67,85,0
2,71,85,0
2,62,85,132
2,67,85,0
2,71,85,0
2,62,85,132
2,67,85,0
2,71,85,0
2,62,85,132
2,67,85,0
2,71,85,0
2,62,85,132
2,67,111,0
2,71,114,0
2,62,85,132
2,66,107,0
2,70,112,0
2,65,83,128
2,69,86,0
2,62,85,4
2,62,85,132
2,62,85,4
2,67,85,0
2,71,85,0
2,62,85,132
2,67,84,0
2,71,90,0
2,62,85,132
2,67,85,0
2,71,85,0
2,62,85,132
2,67,85,0
2,71,85,0
2,62,85,132
2,67,111,0
2,71,114,0
2,62,85,132
2,66,107,0
2,70,112,0
2,65,83,128
2,69,86,0
2,62,85,4
2,62,85,132
2,62,85,4
2,67,85,0
2,71,85,0
2,62,85,132
2,67,85,0
2,71,85,0
2,62,85,132
2,67,85,0
2,71,85,0
2,62,85,132
2,67,85,0
2,71,85,0
2,62,85,132
2,67,111,0
2,71,114,0
2,62,85,132
2,66,107,0
2,70,112,0
2,65,83,128
2,69,86,0
2,62,85,4
2,62,85,132
2,62,85,4
2,67,85,0
2,71,85,0
2,62,85,132
2,67,85,0
2,71,85,0
2,62,85,132
2,67,85,0
2,71,85,0
2,62,85,132
2,67,85,0
2,71,85,0
2,62,85,132
2,67,85,0
2,71,85,0
2,62,85,132
2,67,85,0
2,71,85,0
2,64,120,132
2,67,85,0
2,72,85,0
2,64,85,132
2,67,85,0
2,72,85,0
2,64,85,132
2,67,85,0
2,72,85,0
2,64,85,132
2,67,85,0
2,72,85,0
2,64,85,132
2,67,85,0
2,72,85,0
2,64,85,132
2,67,85,0
2,72,85,0
2,64,85,132
2,67,85,0
2,72,85,0
2,64,85,132
2,67,85,0
2,72,85,0
2,64,125,132
2,67,85,0
2,72,85,0
2,64,85,132
2,67,85,0
2,72,85,0
2,64,85,132
2,67,85,0
2,72,85,0
2,64,85,132
2,67,85,0
2,72,85,0
2,64,85,132
2,67,85,0
2,72,85,0
2,64,85,132
2,67,85,0
2,72,85,0
2,64,85,132
2,67,85,0
2,72,85,0
2,64,85,132
2,67,85,0
2,72,85,0
2,64,85,132
2,67,85,0
2,72,85,0
2,64,85,132
2,67,85,0
2,72,85,0
2,64,85,132
2,67,85,0
2,72,85,0
2,64,85,132
2,67,85,0
2,72,85,0
2,64,85,132
2,67,85,0
2,72,85,0
2,64,85,132
2,67,85,0
2,72,85,0
2,64,85,132
2,67,85,0
2,72,85,0
2,64,85,132
2,67,85,0
2,72,85,0
2,64,85,132
2,67,85,0
2,72,85,0
2,64,85,132
2,67,85,0
2,72,85,0
2,64,85,132
2,67,85,0
2,72,85,0
2,64,85,132
2,67,85,0
2,72,85,0
2,64,85,132
2,67,85,0
2,72,85,0
2,64,85,132
2,67,85,0
2,72,85,0
2,64,85,132
2,67,85,0
2,72,85,0
2,64,85,132
2,67,85,0
2,72,85,0
2,62,85,132
2,67,84,0
2,71,90,0
2,62,85,132
2,67,85,0
2,71,85,0
2,62,85,132
2,67,85,0
2,71,85,0
2,62,85,132
2,67,85,0
2,71,85,0
2,62,85,132
2,67,85,0
2,71,85,0
2,62,85,132
2,67,85,0
2,71,85,0
2,62,85,132
2,67,85,0
2,71,85,0
2,62,85,132
2,67,85,0
2,71,85,0
2,62,85,132
2,67,85,0
2,71,85,0
2,62,85,132
2,67,85,0
2,71,85,0
2,62,85,132
2,67,111,0
2,71,114,0
2,62,85,132
2,66,107,0
2,70,112,0
2,65,83,128
2,69,86,0
2,62,85,4
2,62,85,132
2,62,85,4
2,67,85,0
2,71,85,0
2,62,85,132
2,66,94,0
2,70,100,0
2,62,85,36
2,67,85,0
2,71,85,0
2,62,85,132
2,67,85,0
2,71,85,0
2,62,85,132
2,67,111,0
2,71,114,0
2,62,85,132
2,66,107,0
2,70,112,0
2,65,83,128
2,69,86,0
2,62,85,4
2,62,85,132
2,62,85,4
2,67,85,0
2,71,85,0
2,62,85,132
2,66,97,0
2,70,97,0
2,62,85,36
2,67,85,0
2,71,85,0
2,62,85,132
2,67,85,0
2,71,85,0
2,62,85,132
2,67,111,0
2,71,114,0
2,62,85,132
2,66,107,0
2,70,112,0
2,65,83,128
2,69,86,0
2,62,85,4
2,62,85,132
2,62,85,4
2,67,85,0
2,71,85,0
2,62,85,132
2,67,85,0
2,71,85,0
2,64,120,132
2,67,85,0
2,72,85,0
2,64,85,132
2,67,85,0
2,72,85,0
2,64,85,132
2,67,85,0
2,72,85,0
2,64,85,132
2,67,85,0
2,72,85,0
2,64,105,132
2,67,105,0
2,72,105,0
2,62,117,318
2,59,106,4
2,67,114,0
2,64,125,54
2,67,85,0
2,72,85,0
2,64,85,132
2,67,85,0
2,72,85,0
2,64,85,132
2,67,85,0
2,72,85,0
2,64,85,132
2,67,85,0
2,72,85,0
2,64,85,132
2,67,85,0
2,72,85,0
2,64,85,132
2,67,85,0
2,72,85,0
2,64,85,132
2,67,85,0
2,72,85,0
2,64,85,132
2,67,85,0
2,72,85,0
2,64,85,132
2,67,85,0
2,72,85,0
2,64,85,132
2,67,85,0
2,72,85,0
2,64,85,132
2,67,85,0
2,72,85,0
2,64,85,132
2,67,85,0
2,72,85,0
2,64,85,132
2,67,85,0
2,72,85,0
2,64,85,132
2,67,85,0
2,72,85,0
2,64,85,132
2,67,85,0
2,72,85,0
2,64,85,132
2,67,85,0
2,72,85,0
2,64,85,132
2,67,85,0
2,72,85,0
2,64,85,132
2,67,85,0
2,72,85,0
2,64,85,132
2,67,85,0
2,72,85,0
2,64,85,132
2,67,85,0
2,72,85,0
2,64,85,132
2,67,85,0
2,72,85,0
2,64,85,132
2,67,85,0
2,72,85,0
2,64,85,132
2,67,85,0
2,72,85,0
2,64,85,132
2,67,85,0
2,72,85,0
2,62,85,132
2,67,84,0
2,71,90,0
2,62,85,132
2,67,85,0
2,71,85,0
2,62,85,132
2,67,85,0
2,71,85,0
2,62,85,132
2,67,85,0
2,71,85,0
2,62,85,132
2,67,85,0
2,71,85,0
2,62,85,132
2,67,85,0
2,71,85,0
2,62,85,132
2,67,85,0
2,71,85,0
2,62,85,132
2,67,85,0
2,71,85,0
2,62,85,132
2,67,85,0
2,71,85,0
2,62,85,132
2,67,85,0
2,71,85,0
2,62,85,132
2,67,85,0
