track,note,velocity,time
1,35,85,15678
1,33,78,3072
1,30,73,1490
1,35,77,1506
1,37,73,0
1,38,76,192
1,40,84,186
1,35,78,3072
1,35,74,120
1,35,79,26
1,35,74,172
1,35,76,106
1,35,83,54
1,35,87,160
1,35,83,156
1,35,87,46
1,35,88,210
1,31,81,3070
1,33,79,3040
1,30,79,3060
1,45,102,2096
1,40,102,238
1,42,102,10
1,35,102,158
1,35,89,178
1,35,91,66
1,35,94,196
1,35,92,144
1,35,88,70
1,31,94,178
1,31,97,122
1,31,91,56
1,31,97,218
1,31,93,120
1,31,87,42
1,33,93,170
1,33,81,130
1,33,86,32
1,33,91,266
1,33,84,134
1,33,87,64
1,30,87,190
1,30,90,156
1,30,79,62
1,30,102,208
1,30,96,54
1,30,102,176
1,30,100,54
1,30,99,108
1,35,101,118
1,35,90,166
1,35,96,58
1,28,102,372
1,28,102,168
1,28,102,54
1,33,100,392
1,33,101,166
1,33,101,54
1,30,102,370
1,30,102,144
1,30,102,54
1,35,102,360
1,35,102,184
1,35,101,58
1,28,101,344
1,28,102,132
1,28,102,60
1,33,101,352
1,33,101,156
1,33,100,58
1,30,102,298
1,30,102,172
1,30,102,54
1,30,102,94
1,35,102,148
1,35,99,166
1,35,102,54
1,28,101,318
1,28,102,168
1,28,102,54
1,33,100,402
1,33,101,172
1,33,96,54
1,30,102,358
1,30,102,160
1,30,92,54
1,35,100,368
1,35,97,174
1,35,97,58
1,28,102,374
1,28,100,156
1,28,102,54
1,33,96,378
1,33,99,176
1,33,101,60
1,30,102,364
1,30,100,134
1,30,102,58
1,30,102,138
1,31,102,52
1,35,102,218
1,35,93,228
1,35,99,52
1,35,97,204
1,35,99,166
1,35,97,50
1,35,96,316
1,35,96,202
1,35,102,58
1,42,96,334
1,45,96,10
1,47,93,96
1,50,100,96
1,35,102,192
1,35,89,178
1,35,91,66
1,35,94,196
1,35,92,144
1,35,88,70
1,31,94,178
1,31,97,122
1,31,91,56
1,31,97,218
1,31,93,120
1,31,87,42
1,33,93,170
1,33,81,130
1,33,86,32
1,33,91,266
1,33,84,134
1,33,87,64
1,30,87,190
1,30,90,156
1,30,79,62
1,30,102,208
1,30,96,54
1,30,102,176
1,30,100,54
1,30,99,108
1,35,102,118
1,35,89,178
1,35,91,66
1,35,94,196
1,35,92,144
1,35,88,70
1,31,94,178
1,31,97,122
1,31,91,56
1,31,97,218
1,31,93,120
1,31,87,42
1,33,93,170
1,33,81,130
1,33,86,32
1,33,91,266
1,33,84,134
1,33,87,64
1,30,87,190
1,30,90,156
1,30,79,62
1,30,102,208
1,30,96,54
1,30,102,176
1,30,100,54
1,30,99,108
1,35,101,118
1,35,90,166
1,35,96,58
1,28,102,372
1,28,102,168
1,28,102,54
1,33,100,392
1,33,101,166
1,33,101,54
1,30,102,370
1,30,102,144
1,30,102,54
1,35,102,360
1,35,102,184
1,35,101,58
1,28,101,344
1,28,102,132
1,28,102,60
1,33,101,352
1,33,101,156
1,33,100,58
1,30,102,298
1,30,102,172
1,30,102,54
1,30,102,94
1,35,102,148
1,35,99,166
1,35,102,54
1,28,101,318
1,28,102,168
1,28,102,54
1,33,100,402
1,33,101,172
1,33,96,54
1,30,102,358
1,30,102,160
1,30,92,54
1,35,100,368
1,35,97,174
1,35,97,58
1,28,102,374
1,28,100,156
1,28,102,54
1,33,96,378
1,33,99,176
1,33,101,60
1,30,102,364
1,30,100,134
1,30,102,58
1,30,102,138
1,31,102,52
1,31,100,0
1,28,99,3070
1,33,81,28
1,35,85,190
1,38,86,190
1,40,82,192
1,38,86,364
1,31,102,42
1,30,102,2
1,30,65,34
1,30,70,78
1,30,68,84
1,30,75,80
1,30,70,64
1,30,84,76
1,30,80,74
1,30,100,96
1,30,75,76
1,30,98,76
1,30,96,88
1,30,102,92
1,30,84,82
1,30,102,92
1,30,102,88
1,35,101,86
1,35,90,166
1,35,96,58
1,28,102,372
1,28,102,168
1,28,102,54
1,33,100,392
1,33,101,166
1,33,101,54
1,30,102,370
1,30,102,144
1,30,102,54
1,35,102,360
1,35,102,184
1,35,101,58
1,28,101,344
1,28,102,132
1,28,102,60
1,33,101,352
1,33,101,156
1,33,100,58
1,30,102,298
1,30,102,172
1,30,102,54
1,30,102,94
1,30,96,11970
1,35,101,64
1,35,90,166
1,35,96,58
1,28,102,372
1,28,102,168
1,28,102,54
1,33,100,392
1,33,101,166
1,33,101,54
1,30,102,370
1,30,102,144
1,30,102,54
1,35,102,360
1,35,102,184
1,35,101,58
1,28,101,344
1,28,102,132
1,28,102,60
1,33,101,352
1,33,101,156
1,33,100,58
1,42,102,494
1,40,102,26
1,38,102,0
1,37,102,10
1,38,102,14
1,37,99,32
1,33,102,0
1,35,102,2
1,35,102,172
1,35,99,52
1,28,101,346
1,28,102,124
1,28,97,50
1,33,97,316
1,33,102,144
1,33,94,54
1,30,102,260
1,30,96,128
1,30,102,56
1,35,102,210
1,35,99,124
1,35,100,56
1,28,101,324
1,28,102,124
1,28,101,58
1,33,102,342
1,33,102,146
1,33,101,58
1,30,102,268
1,30,102,54
1,30,96,138
1,30,102,62
1,30,102,138
1,35,102,48
1,35,97,170
1,35,102,56
1,28,102,348
1,28,99,122
1,31,102,4
1,32,92,384
1,33,97,24
1,33,101,134
1,33,99,58
1,30,102,286
1,30,100,118
1,33,87,192
1,37,96,364
1,35,90,372
1,35,96,162
1,35,99,52
1,28,100,366
1,28,100,174
1,28,100,54
1,33,100,352
1,33,93,176
1,33,96,44
1,30,100,378
1,30,102,116
1,30,102,58
1,30,102,126
1,35,99,36
2,61,77,28122
2,62,80,192
2,69,81,174
2,61,82,172
2,62,83,22
2,69,95,216
2,71,90,348
2,66,94,388
2,61,69,3212
2,62,71,2
2,69,76,194
2,61,73,3276
2,62,72,2
2,69,78,194
2,71,78,8
2,66,79,400
2,61,69,3336
2,62,71,2
2,69,74,194
2,61,73,3276
2,62,76,2
2,69,78,194
2,71,81,8
2,66,82,400
2,57,82,20
2,62,82,0
2,57,88,40
2,62,88,0
2,54,88,10
2,57,79,10
2,62,79,0
2,57,85,40
2,62,85,0
2,54,85,10
2,71,96,24678
2,71,88,94
2,66,94,74
2,66,90,112
2,69,84,68
2,69,83,90
2,64,80,96
2,64,80,98
2,66,87,106
2,66,82,120
2,62,78,90
2,62,81,112
2,64,79,120
2,62,79,70
2,59,80,68
2,62,90,112
2,66,88,104
2,71,88,0
2,66,78,96
2,71,78,0
2,66,78,384
2,71,78,0
2,61,90,64
2,62,83,2
2,69,90,192
2,62,78,5952
2,66,79,0
2,62,88,54
2,66,87,0
2,61,58,576
2,64,73,0
2,61,73,80
2,64,81,0
2,59,67,36
2,62,68,0
2,59,74,94
2,62,83,0
2,52,84,10
2,52,83,312
2,76,95,1266
2,69,96,14
2,71,77,214
2,71,77,110
2,66,79,110
2,66,73,132
2,69,80,120
2,69,74,122
2,64,70,100
2,64,69,100
2,66,67,110
2,66,71,122
2,62,69,124
2,62,69,120
2,64,77,108
2,64,73,110
2,59,74,100
2,59,73,112
2,71,83,100
2,71,78,108
2,66,75,90
2,66,75,132
2,69,78,122
2,69,78,122
2,64,67,100
2,64,70,110
2,66,79,112
2,66,75,120
2,62,76,112
2,62,76,134
2,64,81,100
2,59,64,24
2,62,88,124
2,62,92,38
2,61,87,576
2,61,87,70
2,59,84,4
2,57,83,192
2,49,83,110
2,52,84,120
2,49,78,40
2,59,96,246
2,52,92,74
2,57,76,0
2,52,96,94
2,57,96,0
2,49,90,192
2,52,95,150
2,57,90,0
2,52,92,98
2,57,88,0
2,49,94,192
2,52,96,10
2,57,95,0
2,71,93,1550
2,69,91,574
2,66,93,570
2,69,93,0
2,71,93,3364
2,69,91,590
2,66,90,544
2,69,90,0
2,71,93,3192
2,69,91,588
2,66,91,562
2,69,91,28
2,71,93,3370
2,69,90,562
2,66,91,556
2,69,91,164
2,43,80,1642
2,62,80,54
2,43,83,100
2,54,96,228
2,61,88,192
2,54,90,348
2,62,96,166
2,54,90,366
2,64,92,186
2,58,84,0
2,66,90,194
2,58,85,8
2,66,90,194
2,78,104,70
2,71,104,192
2,69,104,88
2,64,104,190
2,76,104,82
2,69,104,188
2,45,104,200
2,59,104,94
2,59,104,2
2,57,104,10
2,59,104,6
2,59,104,40
2,62,104,12
2,59,104,14
2,64,104,0
2,59,104,0
2,62,104,192
2,59,104,0
2,64,104,30
2,62,104,570
2,62,104,120
2,61,104,530
2,59,104,172
2,57,104,14
2,57,104,140
2,54,104,98
2,52,104,64
2,54,104,102
2,52,104,2
2,50,104,0
2,52,104,90
2,50,104,86
2,47,104,46
2,50,104,6
2,47,104,6
2,45,104,10
2,47,104,100
2,45,104,92
2,42,104,70
2,45,104,6
2,52,96,10920
2,57,96,2
2,52,96,60
2,57,96,0
2,49,96,194
2,52,96,0
2,57,96,0
2,52,96,62
2,57,96,0
2,49,96,0
2,71,93,1634
2,69,90,574
2,66,90,570
2,69,90,0
2,71,93,3364
2,69,91,590
2,66,91,544
2,69,91,0
2,64,110,1680
2,67,96,72
2,71,96,0
2,67,96,34
2,71,96,0
2,67,96,76
2,71,96,0
2,64,97,192
2,69,103,0
2,62,96,60
2,69,96,0
2,64,95,6
2,69,96,0
2,62,105,1496
2,62,105,62
2,61,104,192
2,59,102,158
2,59,105,60
2,67,96,96
2,71,96,0
2,67,96,60
2,71,96,0
2,66,96,20
2,69,96,0
2,62,96,28
2,69,96,0
2,64,96,54
2,69,96,0
2,76,107,192
2,69,107,192
2,69,107,74
2,76,112,192
2,76,109,84
2,69,109,192
2,64,109,154
2,67,96,72
2,74,96,0
2,67,96,34
2,74,96,0
2,67,96,76
2,74,96,0
2,64,96,10
2,74,95,0
2,76,96,56
2,62,96,4
2,64,95,6
2,73,96,0
2,62,105,1496
2,62,107,62
2,61,109,192
2,59,107,158
2,59,105,60
2,67,96,96
2,74,96,0
2,67,96,60
2,74,96,0
2,66,96,20
2,74,96,0
2,62,96,28
2,76,96,0
2,64,96,54
2,69,96,0
2,76,105,206
2,69,107,192
2,69,105,74
2,76,110,192
2,76,107,84
2,69,107,192
2,59,88,142
3,78,127,15354
3,76,126,574
3,78,127,192
3,79,122,14
3,79,111,64
3,79,117,86
3,78,127,70
3,74,123,14
3,76,111,4
3,78,122,1364
3,76,106,8
3,78,119,192
3,78,122,160
3,76,96,186
3,74,105,194
3,74,108,92
3,71,106,204
3,74,103,288
3,74,108,102
3,79,117,66
3,79,108,44
3,79,113,96
3,78,111,12
3,74,96,0
3,74,96,58
3,71,123,6396
3,71,123,102
3,71,113,106
3,71,106,66
3,71,121,106
3,71,120,126
3,69,96,16
3,71,113,20
3,74,112,94
3,71,105,390
3,71,100,554
3,71,100,88
3,71,123,104
3,71,113,64
3,76,120,22
3,74,98,568
3,73,104,60
3,74,103,8
3,74,111,74
3,74,117,82
3,73,122,566
3,73,111,104
3,71,103,12
3,71,113,98
3,69,96,390
3,64,96,456
3,67,103,188
3,67,103,88
3,66,103,388
3,66,103,58
3,66,103,88
3,71,123,1752
3,71,123,102
3,71,113,106
3,71,106,66
3,71,121,106
3,71,120,126
3,69,96,16
3,71,113,20
3,74,112,94
3,71,105,390
3,71,100,554
3,71,100,88
3,71,123,104
3,71,113,64
3,76,120,22
3,74,98,568
3,73,104,60
3,74,103,8
3,74,111,74
3,74,117,82
3,73,122,566
3,73,111,104
3,71,103,12
3,71,113,98
3,69,96,390
3,64,96,456
3,67,103,188
3,67,103,88
3,66,103,388
3,66,103,58
3,66,103,88
3,78,127,1576
3,76,126,574
3,78,127,192
3,79,122,14
3,79,111,64
3,79,117,86
3,78,127,70
3,74,123,14
3,76,111,4
3,78,127,1356
3,76,123,174
3,78,127,12
3,78,127,164
3,76,127,0
3,74,126,196
3,74,127,122
3,71,120,204
3,74,127,474
3,74,127,110
3,79,127,58
3,79,126,62
3,79,127,104
3,78,127,32
3,74,120,12
3,76,127,6
3,76,121,1340
3,74,103,140
3,76,122,26
3,78,127,212
3,76,126,574
3,78,127,192
3,79,122,14
3,79,111,64
3,79,117,86
3,78,127,70
3,74,123,14
3,76,111,4
3,78,127,1356
3,76,123,174
3,78,127,12
3,78,127,164
3,76,127,0
3,74,126,196
3,74,127,122
3,71,120,204
3,74,127,474
3,74,127,110
3,79,127,58
3,79,126,62
3,79,127,104
3,78,127,32
3,74,120,12
3,76,127,6
3,76,127,1344
3,78,127,114
3,76,127,190
3,78,127,102
3,76,127,188
3,78,127,58
3,71,123,9396
3,71,123,102
3,71,113,106
3,71,106,66
3,71,121,106
3,71,120,126
3,69,96,16
3,71,113,20
3,74,112,94
3,71,105,390
3,71,100,554
3,71,100,88
3,71,123,104
3,71,113,64
3,76,120,22
3,74,98,568
3,73,104,60
3,74,103,8
3,74,111,74
3,74,117,82
3,73,122,566
3,73,111,104
3,71,103,12
3,71,113,98
3,69,96,390
3,64,96,456
3,67,103,188
3,67,103,88
3,66,103,388
3,66,103,58
3,66,103,88
3,71,127,986
3,78,127,148
3,76,127,140
3,74,123,144
3,71,100,358
3,71,126,100
3,71,117,90
3,78,127,186
3,78,125,92
3,76,103,190
3,74,108,6
3,71,124,212
3,78,127,148
3,76,122,138
3,74,123,162
3,71,103,364
3,71,126,104
3,71,111,64
3,78,122,194
3,78,119,84
3,76,113,10
3,74,108,2
3,74,108,138
3,74,105,34
3,74,117,82
3,73,107,580
3,73,115,94
3,71,120,0
3,71,123,126
3,69,91,18
3,64,106,236
3,67,98,188
3,67,106,48
3,66,102,404
3,66,105,94
3,78,127,2074
3,76,126,574
3,78,127,192
3,79,122,14
3,79,111,64
3,79,117,86
3,78,127,70
3,74,123,14
3,76,111,4
3,78,127,1356
3,76,123,174
3,78,127,12
3,78,127,164
3,76,127,0
3,74,126,196
3,74,127,122
3,71,120,204
3,74,127,474
3,74,127,110
3,79,127,58
3,79,126,62
3,79,127,104
3,78,127,32
3,74,120,12
3,76,127,6
3,76,121,1340
3,74,103,140
3,76,122,26
3,78,127,212
3,76,126,574
3,78,127,192
3,79,122,14
3,79,111,64
3,79,117,86
3,78,127,70
3,74,123,14
3,76,111,4
3,78,127,1356
3,76,123,174
3,78,127,12
3,78,127,164
3,76,127,0
3,74,126,196
3,74,127,122
3,71,120,204
3,74,127,474
3,74,127,110
3,79,127,58
3,79,126,62
3,79,127,104
3,78,127,32
3,74,120,12
3,76,127,6
3,76,127,952
3,78,127,114
3,76,127,190
3,78,127,102
3,76,127,188
3,78,127,58
3,69,100,980
3,71,98,186
3,69,102,168
3,71,113,8
3,71,117,150
3,74,117,128
3,71,118,430
3,71,111,58
3,69,93,16
3,71,106,14
3,71,106,152
3,71,113,228
3,76,122,188
3,74,117,174
3,73,125,180
3,71,107,8
3,69,106,534
3,71,120,14
3,69,105,178
3,71,123,196
3,71,126,84
3,69,103,206
3,71,127,6
3,71,126,98
3,74,126,142
3,71,127,214
3,76,126,70
3,76,112,66
3,76,115,96
3,76,127,118
3,74,120,6
3,76,127,70
3,76,127,8
3,76,127,118
3,74,120,174
3,74,108,74
3,71,105,196
3,78,127,11092
3,76,126,574
3,78,127,192
3,79,122,14
3,79,111,64
3,79,117,86
3,78,127,70
3,74,123,14
3,76,111,4
3,78,122,1364
3,76,106,8
3,78,119,192
3,78,122,160
3,76,96,186
3,74,105,194
3,74,108,92
3,71,106,204
3,74,103,288
3,74,108,102
3,79,117,66
3,79,108,44
3,79,113,96
3,78,111,12
3,74,96,0
3,74,96,58
3,78,127,76
3,76,126,574
3,78,127,192
3,79,122,14
3,79,111,64
3,79,117,86
3,78,127,70
3,74,123,14
3,76,111,4
3,78,127,1356
3,76,123,174
3,78,127,12
3,78,127,164
3,76,127,0
3,74,126,196
3,74,127,122
3,71,120,204
3,74,114,850
3,79,127,30
3,79,126,36
3,79,127,104
3,78,127,32
3,74,120,12
3,76,127,6
3,76,127,952
3,78,127,114
3,76,127,190
3,78,127,102
3,76,127,188
3,78,127,58
4,42,98,9066
4,47,97,0
4,49,94,942
4,50,83,154
4,52,90,166
4,50,92,534
