track,note,velocity,time
1,77,69,2200
1,73,69,20
1,77,69,20
1,73,69,0
1,77,69,96
1,77,69,92
1,72,69,96
1,77,69,4
1,72,69,96
1,77,69,0
1,74,69,96
1,70,69,16
1,74,69,0
1,70,69,96
1,74,69,92
1,70,69,76
1,74,69,72
1,69,69,72
1,70,69,168
1,82,69,120
1,78,69,0
1,82,69,96
1,78,69,8
1,82,69,96
1,80,69,108
1,77,69,8
1,80,69,96
1,78,69,20
1,75,69,96
1,77,69,76
1,73,69,24
1,77,69,12
1,73,69,96
1,77,69,80
1,72,69,76
1,73,69,164
1,75,69,12
1,84,59,6920
1,80,59,16
1,84,59,20
1,80,59,100
1,85,59,80
1,80,59,12
1,84,59,0
1,80,59,8
1,84,59,92
1,80,59,84
1,82,59,4
1,78,59,100
1,80,59,8
1,77,59,16
1,80,59,96
1,77,59,8
1,80,59,4
1,77,59,0
1,72,79,4
1,68,79,0
1,70,79,188
1,73,79,0
1,75,79,0
1,72,79,4
1,74,59,2304
1,70,59,12
1,74,59,28
1,70,59,24
1,74,59,20
1,70,59,28
1,75,59,16
1,70,59,4
1,75,59,20
1,70,59,24
1,77,59,24
1,70,59,16
1,78,59,24
1,75,59,16
1,78,59,0
1,75,59,8
1,78,59,0
1,75,59,8
1,78,59,96
1,75,59,4
1,78,59,8
1,75,59,4
1,78,59,0
1,75,59,24
1,82,52,20
1,78,52,4
1,82,52,96
1,78,52,16
1,82,52,16
1,78,52,16
1,82,41,20
1,78,42,12
1,82,42,24
1,78,42,12
1,82,42,44
1,78,52,20
1,77,56,16
1,73,53,12
1,77,52,0
1,73,52,12
1,77,52,16
1,73,52,8
1,76,52,0
1,73,52,0
1,76,52,0
1,73,52,4
1,77,52,4
1,73,52,16
1,77,48,116
1,80,60,96
1,77,59,4
1,80,57,16
1,77,57,8
1,78,58,12
1,75,57,96
1,78,57,24
1,75,64,4
1,78,57,12
1,75,60,96
1,77,52,20
1,73,52,12
1,77,49,4
1,73,51,4
1,77,39,96
1,73,33,84
1,77,32,0
1,73,27,96
1,80,75,1544
1,84,71,0
1,80,64,40
1,84,64,4
1,84,64,88
1,80,64,0
1,85,64,392
1,87,68,68
1,80,68,0
1,87,64,92
1,80,64,0
1,87,64,96
1,80,64,0
1,87,64,4
1,84,64,16
1,80,64,24
1,84,64,52
1,80,64,0
1,84,64,60
1,87,64,0
1,82,64,76
1,85,64,0
1,84,64,76
1,87,64,0
1,87,64,96
1,84,64,0
1,85,64,48
1,82,64,4
1,85,64,144
1,82,64,8
1,81,56,0
1,85,75,8
1,82,64,0
1,82,64,0
1,85,64,8
1,82,64,76
1,85,64,0
1,82,64,48
1,79,64,0
1,82,64,108
1,85,64,0
1,85,64,24
1,82,64,0
1,85,64,96
1,82,64,0
1,78,44,12
1,79,64,16
1,82,64,36
1,79,64,20
1,85,64,48
1,89,64,32
1,87,64,12
1,85,64,4
1,85,64,156
1,84,64,384
1,84,64,124
1,85,64,32
1,85,64,16
1,85,64,92
1,87,64,384
1,85,64,0
1,80,64,192
1,75,64,12
1,80,64,28
1,75,64,24
1,80,64,8
1,75,64,4
1,80,64,4
1,87,64,40
1,84,64,96
1,80,64,48
1,75,64,40
1,79,64,8
1,77,64,68
1,73,64,0
1,75,64,24
1,72,64,8
1,73,64,68
1,70,64,8
1,68,64,52
1,72,64,0
1,84,69,7540
1,80,69,16
1,84,69,20
1,80,69,100
1,85,69,80
1,80,69,12
1,84,69,0
1,80,69,8
1,84,69,92
1,80,69,84
1,82,69,4
1,78,69,100
1,80,69,8
1,77,69,16
1,80,69,96
1,77,69,8
1,80,69,4
1,77,69,0
1,72,89,4
1,68,89,0
1,70,89,188
1,73,89,0
1,75,89,0
1,72,89,4
1,74,69,2304
1,70,69,12
1,74,69,28
1,70,69,24
1,74,69,20
1,70,69,28
1,75,69,16
1,70,69,4
1,75,69,20
1,70,69,24
1,77,69,24
1,70,69,16
1,78,69,24
1,75,69,16
1,78,69,0
1,75,69,8
1,78,69,0
1,75,69,8
1,78,69,96
1,75,69,4
1,78,69,8
1,75,69,4
1,78,69,0
1,75,69,24
1,82,62,20
1,78,62,4
1,82,62,96
1,78,62,16
1,82,62,16
1,78,62,16
1,82,51,20
1,78,52,12
1,82,52,24
1,78,52,12
1,82,52,44
1,78,62,20
1,77,66,16
1,73,63,12
1,77,62,0
1,73,62,12
1,77,62,16
1,73,62,8
1,76,62,0
1,73,62,0
1,76,62,0
1,73,62,4
1,77,62,4
1,73,62,16
1,77,58,116
1,80,70,96
1,77,69,4
1,80,67,16
1,77,67,8
1,78,68,12
1,75,67,96
1,78,67,24
1,75,74,4
1,78,67,12
1,75,70,96
1,77,62,20
1,73,62,12
1,77,59,4
1,73,61,4
1,77,49,96
1,73,43,84
1,77,42,0
1,73,37,96
1,80,75,1544
1,84,71,0
1,80,64,40
1,84,64,4
1,84,64,88
1,80,64,0
1,85,64,392
1,87,68,68
1,80,68,0
1,87,64,92
1,80,64,0
1,87,64,96
1,80,64,0
1,87,64,4
1,84,64,16
1,80,64,24
1,84,64,52
1,80,64,0
1,84,64,60
1,87,64,0
1,82,64,76
1,85,64,0
1,84,64,76
1,87,64,0
1,87,64,96
1,84,64,0
1,85,64,48
1,82,64,4
1,85,64,144
1,82,64,8
1,81,56,0
1,85,75,8
1,82,64,0
1,82,64,0
1,85,64,8
1,82,64,76
1,85,64,0
1,82,64,48
1,79,64,0
1,82,64,108
1,85,64,0
1,85,64,24
1,82,64,0
1,85,64,96
1,82,64,0
1,78,40,16
1,79,64,16
1,82,64,32
1,79,64,20
1,85,64,48
1,89,64,32
1,87,64,12
1,85,64,4
1,85,64,156
1,84,64,384
1,84,64,124
1,85,64,32
1,85,64,16
1,85,64,92
1,87,64,384
1,85,64,0
1,80,64,192
1,75,64,12
1,80,64,28
1,75,64,24
1,80,64,8
1,75,64,4
1,80,64,4
1,87,64,40
1,84,64,96
1,80,64,48
1,75,64,40
1,79,64,8
1,77,64,68
1,73,64,0
1,75,64,24
1,72,64,8
1,73,64,68
1,70,64,8
1,68,64,52
1,72,64,0
1,84,69,7540
1,80,69,16
1,84,69,20
1,80,69,100
1,85,69,80
1,80,69,12
1,84,69,0
1,80,69,8
1,84,69,92
1,80,69,84
1,82,69,4
1,78,69,100
1,80,69,8
1,77,69,16
1,80,69,96
1,77,69,8
1,80,69,4
1,77,69,0
1,72,89,4
1,68,89,0
1,70,89,188
1,73,89,0
1,75,89,0
1,72,89,4
1,74,69,2304
1,70,69,12
1,74,69,28
1,70,69,24
1,74,69,20
1,70,69,28
1,75,69,16
1,70,69,4
1,75,69,20
1,70,69,24
1,77,69,24
1,70,69,16
1,78,69,24
1,75,69,16
1,78,69,0
1,75,69,8
1,78,69,0
1,75,69,8
1,78,69,96
1,75,69,4
1,78,69,8
1,75,69,4
1,78,69,0
1,75,69,24
1,82,62,20
1,78,62,4
1,82,62,96
1,78,62,16
1,82,62,16
1,78,62,16
1,82,51,20
1,78,52,12
1,82,52,24
1,78,52,12
1,82,52,44
1,78,62,20
1,77,66,16
1,73,63,12
1,77,62,0
1,73,62,12
1,77,62,16
1,73,62,8
1,76,62,0
1,73,62,0
1,76,62,0
1,73,62,4
1,77,62,4
1,73,62,16
1,77,58,116
1,80,70,96
1,77,69,4
1,80,67,16
1,77,67,8
1,78,68,12
1,75,67,96
1,78,67,24
1,75,74,4
1,78,67,12
1,75,70,96
1,82,62,1172
1,78,62,4
1,82,62,96
1,78,62,16
1,82,62,16
1,78,62,16
1,82,51,20
1,78,52,12
1,82,52,24
1,78,52,12
1,82,52,44
1,78,62,20
1,77,66,16
1,73,63,12
1,77,62,0
1,73,62,12
1,77,62,16
1,73,62,8
1,76,62,0
1,73,62,0
1,76,62,0
1,73,62,4
1,77,62,4
1,73,62,16
1,77,58,116
1,80,70,96
1,77,69,4
1,80,67,16
1,77,67,8
1,78,68,12
1,75,67,96
1,78,67,24
1,75,74,4
1,78,67,12
1,75,70,96
1,81,69,1172
1,82,82,16
1,78,85,24
1,82,82,16
1,85,77,76
1,84,88,64
1,87,89,56
1,85,89,76
1,85,91,144
2,37,97,2096
2,32,97,200
2,34,97,132
2,41,97,104
2,39,97,180
2,32,97,192
2,34,97,48
2,36,97,48
2,37,97,16
2,44,97,184
2,42,97,20
2,39,97,0
2,37,97,28
2,44,97,224
2,37,97,188
2,44,97,160
2,37,97,92
2,41,97,176
2,40,97,24
2,39,97,200
2,32,97,104
2,39,97,128
2,34,97,292
2,32,97,216
2,39,97,144
2,32,97,136
2,39,97,96
2,32,97,176
2,37,97,168
2,32,97,132
2,34,97,28
2,36,97,8
2,37,97,60
2,32,97,192
2,35,97,160
2,34,97,168
2,41,97,124
2,34,97,184
2,38,97,72
2,39,97,32
2,34,97,160
2,39,97,84
2,42,97,88
2,46,97,164
2,45,97,20
2,44,97,100
2,37,97,148
2,46,97,144
2,32,97,116
2,34,97,60
2,36,97,4
2,37,97,8
2,32,97,152
2,37,97,12
2,39,97,192
2,39,97,104
2,41,97,56
2,43,97,108
2,44,97,68
2,39,97,224
2,44,97,160
2,39,97,192
2,44,97,160
2,45,97,120
2,46,97,28
2,41,97,184
2,39,97,164
2,34,97,168
2,39,97,176
2,34,97,184
2,39,97,156
2,39,97,100
2,41,97,24
2,43,97,192
2,44,97,144
2,32,97,152
2,34,97,24
2,36,97,0
2,37,97,0
2,37,97,112
2,44,97,164
2,36,97,188
2,39,97,84
2,39,97,184
2,44,97,144
2,44,97,112
2,44,97,124
2,44,97,116
2,42,97,16
2,39,97,4
2,37,97,12
2,44,97,224
2,37,97,188
2,44,97,160
2,37,97,92
2,41,97,176
2,40,97,24
2,39,97,200
2,32,97,104
2,39,97,128
2,34,97,292
2,32,97,216
2,39,97,144
2,32,97,136
2,39,97,96
2,32,97,176
2,37,97,168
2,32,97,132
2,34,97,28
2,36,97,8
2,37,97,60
2,32,97,192
2,35,97,160
2,34,97,168
2,41,97,124
2,34,97,184
2,38,97,72
2,39,97,32
2,34,97,160
2,39,97,84
2,42,97,88
2,46,97,164
2,45,97,20
2,44,97,100
2,37,97,148
2,46,97,144
2,32,97,116
2,34,97,60
2,36,97,4
2,37,97,8
2,32,97,152
2,37,97,12
2,39,97,192
2,39,97,104
2,41,97,56
2,43,97,108
2,44,97,68
2,39,97,224
2,44,97,160
2,39,97,192
2,44,97,160
2,45,97,120
2,46,97,28
2,41,97,184
2,39,97,164
2,34,97,168
2,39,97,176
2,34,97,184
2,39,97,156
2,39,97,100
2,41,97,24
2,43,97,192
2,44,97,144
2,32,97,152
2,34,97,24
2,36,97,0
2,37,97,0
2,37,97,112
2,44,97,164
2,36,97,188
2,39,97,84
2,39,97,184
2,44,97,144
2,44,97,112
2,44,97,124
2,44,97,116
2,42,97,16
2,39,97,4
2,37,97,12
2,44,97,224
2,37,97,188
2,44,97,160
2,37,97,92
2,41,97,176
2,40,97,24
2,39,97,200
2,32,97,104
2,39,97,128
2,34,97,292
2,32,97,216
2,39,97,144
2,32,97,136
2,39,97,96
2,32,97,176
2,37,97,168
2,32,97,132
2,34,97,28
2,36,97,8
2,37,97,60
2,32,97,192
2,35,97,160
2,34,97,168
2,41,97,124
2,34,97,184
2,38,97,72
2,39,97,32
2,34,97,160
2,39,97,84
2,42,97,88
2,46,97,164
2,45,97,20
2,44,97,100
2,37,97,148
2,46,97,144
2,32,97,116
2,34,97,60
2,36,97,4
2,37,102,16
2,37,99,156
2,39,92,48
2,41,95,188
2,42,97,44
2,46,97,176
2,45,97,8
2,44,97,196
2,37,97,132
2,46,97,132
2,32,97,140
2,34,97,36
2,36,97,4
2,37,97,36
2,32,97,52
2,39,97,44
2,32,97,384
2,37,97,4
2,37,97,112
3,68,46,2276
3,73,63,0
3,77,75,0
3,68,75,156
3,77,73,0
3,73,81,0
3,68,51,336
3,72,59,0
3,77,54,0
3,77,57,128
3,72,71,4
3,68,51,0
3,65,50,336
3,74,63,0
3,68,50,0
3,70,55,4
3,68,67,136
3,65,63,0
3,74,71,0
3,70,71,8
3,74,63,320
3,70,59,4
3,65,54,0
3,68,57,0
3,74,52,120
3,68,57,4
3,70,67,4
3,65,55,0
3,70,63,328
3,75,59,4
3,66,55,0
3,75,71,152
3,70,63,0
3,66,56,0
3,68,48,300
3,75,63,0
3,72,63,0
3,72,71,140
3,68,51,0
3,75,57,4
3,68,67,328
3,77,65,0
3,73,71,0
3,77,74,144
3,73,65,0
3,68,61,0
3,72,63,152
3,68,74,4
3,68,64,64
3,72,68,0
3,70,72,64
3,73,74,0
3,70,71,56
3,73,64,8
3,72,72,56
3,75,68,4
3,72,67,64
3,75,73,0
3,73,67,252
3,65,67,0
3,68,75,0
3,73,70,140
3,65,74,0
3,68,75,0
3,72,71,328
3,68,55,0
3,65,58,0
3,72,72,140
3,68,69,4
3,65,67,0
3,70,67,324
3,65,55,4
3,70,72,136
3,65,71,0
3,68,75,328
3,65,71,4
3,65,74,148
3,68,78,0
3,73,80,336
3,68,68,0
3,65,80,0
3,68,78,148
3,73,78,0
3,65,74,0
3,70,74,332
3,65,76,0
3,70,73,144
3,65,70,0
3,68,57,340
3,72,67,0
3,75,59,4
3,66,60,0
3,68,72,140
3,75,67,0
3,66,76,4
3,72,60,0
3,68,76,332
3,75,63,0
3,72,65,4
3,66,69,0
3,66,72,148
3,68,72,0
3,75,68,4
3,72,63,0
3,68,63,348
3,66,54,4
3,75,71,0
3,72,71,0
3,68,74,144
3,66,75,0
3,75,80,4
3,72,77,0
3,73,59,340
3,66,51,0
3,70,57,0
3,66,71,144
3,70,78,0
3,73,75,0
3,66,58,336
3,72,55,4
3,68,59,0
3,66,71,148
3,72,84,4
3,68,75,0
3,70,57,332
3,63,52,0
3,66,59,8
3,63,81,148
3,66,69,0
3,70,78,4
3,68,59,340
3,72,59,4
3,66,56,0
3,75,63,4
3,66,67,156
3,68,75,0
3,75,71,0
3,72,71,0
3,75,55,344
3,68,55,0
3,72,55,0
3,66,62,0
3,66,67,140
3,75,84,0
3,68,71,4
3,72,63,0
3,73,63,340
3,68,62,0
3,65,60,0
3,73,80,140
3,68,73,0
3,65,67,0
3,72,57,292
3,68,67,0
3,63,74,0
3,63,57,132
3,68,67,4
3,72,73,0
3,77,71,332
3,73,75,4
3,68,59,4
3,77,72,156
3,73,71,0
3,68,71,0
3,77,57,328
3,72,57,0
3,68,52,8
3,72,71,144
3,77,57,0
3,68,57,0
3,71,57,328
3,66,58,0
3,75,57,8
3,71,59,136
3,66,55,4
3,75,59,0
3,68,55,336
3,70,57,0
3,74,57,0
3,65,60,4
3,74,57,140
3,65,55,8
3,70,67,0
3,68,57,0
3,74,59,332
3,68,55,4
3,65,54,0
3,70,59,0
3,74,72,148
3,65,71,0
3,68,80,0
3,70,63,0
3,68,57,328
3,74,57,0
3,70,67,0
3,65,43,4
3,68,75,152
3,74,67,4
3,65,55,0
3,70,59,0
3,75,67,340
3,70,59,0
3,66,57,0
3,70,71,144
3,75,75,4
3,66,63,0
3,75,71,336
3,70,67,4
3,66,55,4
3,75,71,144
3,70,67,4
3,66,54,4
3,66,74,340
3,70,73,4
3,73,59,0
3,70,73,156
3,66,70,0
3,73,74,0
3,73,64,352
3,66,70,4
3,70,74,0
3,66,74,152
3,73,74,4
3,70,68,0
3,73,63,332
3,68,53,0
3,65,65,4
3,68,88,148
3,73,88,4
3,65,84,0
3,73,71,336
3,68,71,0
3,65,63,4
3,73,60,152
3,68,56,4
3,65,70,0
3,73,45,348
3,68,54,0
3,65,60,0
3,73,51,160
3,68,55,4
3,65,55,0
3,68,57,328
3,75,67,0
3,66,52,4
3,72,71,0
3,68,67,144
3,75,62,0
3,66,68,0
3,72,71,0
3,68,57,332
3,73,63,0
3,65,64,0
3,68,62,136
3,73,72,0
3,65,67,0
3,68,67,332
3,73,57,0
3,65,50,0
3,68,68,140
3,65,74,4
3,73,57,0
3,67,59,340
3,70,58,8
3,75,59,4
3,70,67,140
