track,note,velocity,time
1,38,89,4605
1,43,104,0
1,38,83,3072
1,43,112,0
1,45,100,1536
1,38,100,1440
1,43,104,0
1,43,100,96
1,42,100,0
1,40,100,384
1,47,104,1344
1,43,108,0
1,38,89,1536
1,43,104,0
1,45,104,1536
1,38,104,0
1,38,71,96
1,38,80,96
1,38,104,192
1,38,89,96
1,38,93,96
1,43,104,0
1,43,100,192
1,43,108,96
1,43,112,96
1,43,104,96
1,43,104,96
1,38,104,768
1,38,100,0
1,38,89,96
1,38,68,96
1,38,86,0
1,38,74,96
1,38,89,96
1,38,86,96
1,43,93,0
1,43,108,288
1,43,104,96
1,43,108,288
1,43,93,96
1,43,104,96
1,42,108,0
1,40,112,384
1,40,100,0
1,40,86,0
1,43,74,576
1,47,108,0
1,47,96,96
1,47,96,96
1,43,112,0
1,43,89,96
1,43,104,96
1,43,77,96
1,38,104,0
1,38,86,192
1,38,108,96
1,38,96,96
1,43,108,0
1,43,112,96
1,43,100,96
1,45,112,768
1,45,104,192
1,45,104,96
1,45,104,96
1,38,108,0
1,38,83,0
1,50,93,192
1,50,104,96
1,38,86,0
1,50,112,0
1,49,108,0
1,47,108,0
1,47,104,96
1,47,100,96
1,47,100,96
1,38,104,0
1,38,89,0
1,38,96,96
1,38,100,96
1,43,104,0
1,43,112,96
1,43,108,96
1,43,104,96
1,38,96,0
1,38,104,96
1,38,104,96
1,38,89,96
1,43,108,0
1,43,108,96
1,43,104,96
1,43,96,96
1,38,104,0
1,38,89,96
1,38,100,96
1,38,89,96
1,47,112,0
1,47,100,96
1,47,100,96
1,47,80,96
1,38,104,0
1,38,104,96
1,38,104,96
1,38,104,96
1,43,112,192
1,43,108,96
1,43,108,96
1,43,112,96
1,45,112,192
1,45,93,96
1,45,112,96
1,45,100,96
1,42,112,96
1,42,112,96
1,42,112,96
1,42,108,192
1,43,108,0
1,55,83,1152
1,50,74,0
1,43,96,0
1,47,108,1536
1,45,108,96
1,38,104,0
1,47,108,1920
1,45,104,0
1,47,108,0
1,45,86,0
1,47,86,0
1,45,83,0
1,47,108,0
1,45,108,0
1,38,108,0
1,43,112,2304
1,45,66,0
1,45,112,0
1,43,100,0
1,47,112,0
1,45,112,2304
1,43,112,0
1,43,110,0
1,38,85,96
1,31,70,192
1,38,104,864
1,43,93,0
1,43,93,96
1,42,104,384
1,40,93,288
1,47,80,0
1,43,93,0
1,38,93,1536
1,38,112,96
1,38,96,0
1,38,100,96
1,38,108,288
1,38,100,96
1,38,100,96
1,38,93,96
1,43,112,192
1,43,108,96
1,43,108,96
1,43,104,96
1,43,100,96
1,43,112,96
1,42,112,0
1,40,112,384
1,40,108,192
1,40,112,96
1,40,93,96
1,47,112,192
1,47,100,192
1,47,96,96
1,47,96,96
1,47,104,0
1,47,104,96
1,47,108,288
1,43,108,384
1,43,112,192
1,43,112,96
1,43,112,96
1,38,108,96
1,38,86,288
1,38,104,96
1,38,96,96
1,43,108,96
1,43,108,192
1,43,112,96
1,43,112,96
1,45,108,192
1,45,108,192
1,45,108,96
1,45,100,96
1,38,108,192
1,47,112,192
1,47,112,96
1,47,108,96
1,47,112,96
1,47,108,96
1,47,112,96
1,47,112,96
1,43,108,96
1,43,112,192
1,43,112,96
1,43,112,96
1,45,112,0
1,45,108,384
1,45,40,192
1,45,112,96
1,45,40,192
1,38,108,96
1,38,93,192
1,38,86,0
1,38,104,96
1,43,34,96
1,38,86,96
1,38,108,96
1,38,104,96
1,38,108,0
1,38,93,192
1,38,86,0
1,38,104,96
1,43,34,96
1,38,86,96
1,38,108,96
1,38,104,96
1,47,112,192
1,47,100,192
1,47,96,96
1,47,96,96
1,47,104,96
1,47,104,192
1,47,108,288
1,43,108,384
1,43,112,288
1,43,112,96
1,43,112,96
1,45,112,96
1,45,93,288
1,45,112,96
1,45,100,96
1,38,108,96
1,38,93,192
1,38,86,0
1,38,104,96
1,43,34,96
1,38,86,96
1,38,108,96
1,38,104,96
1,38,108,0
1,38,93,192
1,38,86,0
1,38,104,96
1,43,34,96
1,38,86,96
1,38,108,96
1,38,104,96
1,47,112,192
1,47,100,192
1,47,96,96
1,47,96,96
1,47,104,96
1,47,104,192
1,47,108,288
1,43,108,384
1,43,112,288
1,43,112,96
1,43,112,96
1,45,112,96
1,45,93,288
1,45,112,96
1,45,100,96
1,38,108,96
1,38,93,192
1,38,86,0
1,38,104,96
1,43,34,96
1,38,86,96
1,38,108,96
1,38,104,96
1,38,108,0
1,38,93,192
1,38,86,0
1,38,104,96
1,43,34,96
1,38,86,96
1,38,108,96
1,38,104,96
1,47,112,192
1,47,100,192
1,47,96,96
1,47,96,96
1,47,104,96
1,47,104,192
1,47,108,288
1,43,108,384
1,43,112,288
1,43,112,96
1,43,112,96
1,45,112,96
1,45,93,288
1,45,112,96
1,45,100,96
1,50,108,96
2,69,123,4605
2,26,117,0
2,38,108,0
2,81,127,0
2,74,127,96
2,69,101,96
2,74,115,96
2,76,119,96
2,78,127,192
2,76,119,0
2,74,115,96
2,43,117,90
2,79,117,0
2,31,117,0
2,74,127,0
2,69,113,0
2,81,119,0
2,69,117,0
2,74,113,0
2,74,119,90
2,69,119,0
2,69,104,0
2,74,108,0
2,76,123,96
2,78,119,87
2,78,119,0
2,76,123,0
2,74,119,192
2,26,113,96
2,74,123,0
2,38,119,0
2,69,119,0
2,81,127,0
2,69,123,96
2,74,119,0
2,81,119,96
2,74,127,0
2,69,119,0
2,81,86,0
2,81,123,96
2,76,111,0
2,78,123,0
2,76,89,96
2,69,60,0
2,43,109,0
2,71,127,0
2,31,113,0
2,74,127,0
2,76,127,765
2,78,127,192
2,43,115,0
2,76,123,0
2,45,117,0
2,33,113,0
2,74,123,0
2,73,127,96
2,38,119,192
2,69,111,0
2,66,127,0
2,26,101,0
2,74,108,0
2,50,108,464
2,38,98,192
2,55,119,384
2,43,111,0
2,74,119,0
2,67,127,0
2,71,119,0
2,71,104,96
2,74,98,96
2,43,60,0
2,55,78,96
2,79,119,0
2,54,68,192
2,78,127,0
2,76,104,0
2,52,89,0
2,79,101,0
2,71,95,0
2,40,89,0
2,59,64,90
2,78,111,0
2,47,70,0
2,71,66,0
2,74,74,0
2,43,92,288
2,71,98,0
2,74,101,0
2,55,89,0
2,67,104,0
2,50,70,96
2,66,72,0
2,69,81,0
2,38,83,0
2,74,74,0
2,43,98,768
2,55,111,0
2,74,115,0
2,71,115,0
2,67,119,0
2,45,101,103
2,76,119,0
2,57,104,0
2,69,98,0
2,73,111,0
2,50,127,1344
2,38,85,0
2,69,123,96
2,74,123,0
2,78,127,0
2,50,127,192
2,38,127,192
2,38,127,0
2,74,123,0
2,50,119,0
2,78,127,0
2,69,123,0
2,50,127,0
2,38,119,192
2,69,119,0
2,74,127,0
2,50,127,96
2,74,119,96
2,50,92,0
2,69,127,0
2,76,123,0
2,38,119,0
2,78,127,0
2,76,115,0
2,74,95,0
2,50,119,0
2,43,115,96
2,81,123,0
2,83,104,0
2,71,92,0
2,55,127,0
2,74,127,96
2,71,119,0
2,43,119,192
2,55,115,0
2,71,60,0
2,71,123,96
2,74,127,0
2,55,123,96
2,43,123,192
2,55,127,0
2,74,119,0
2,71,119,0
2,71,115,0
2,74,119,0
2,43,127,0
2,76,127,0
2,78,127,0
2,76,104,192
2,50,119,0
2,38,123,0
2,69,123,0
2,74,123,0
2,78,127,0
2,50,111,0
2,50,123,0
2,38,111,192
2,50,123,96
2,50,111,96
2,38,98,0
2,69,81,0
2,69,119,0
2,74,119,0
2,78,127,0
2,50,123,96
2,50,92,0
2,38,115,0
2,69,89,96
2,69,119,0
2,74,119,0
2,50,115,0
2,55,115,0
2,79,123,0
2,74,119,0
2,43,119,0
2,71,123,0
2,55,127,192
2,43,104,192
2,55,101,96
2,43,92,192
2,55,92,0
2,71,119,0
2,55,108,96
2,43,108,0
2,74,123,0
2,71,111,0
2,79,127,0
2,42,104,96
2,54,111,0
2,78,127,0
2,52,66,0
2,71,92,96
2,76,104,0
2,52,101,0
2,40,108,0
2,79,119,0
2,52,119,0
2,40,115,192
2,71,104,0
2,74,101,0
2,47,92,96
2,59,98,0
2,78,127,0
2,59,123,96
2,47,108,0
2,71,108,96
2,74,127,96
2,71,119,0
2,78,127,0
2,55,119,96
2,67,115,96
2,55,119,0
2,74,123,0
2,71,127,0
2,43,111,0
2,74,115,0
2,67,111,0
2,71,119,0
2,55,108,0
2,43,104,96
2,55,119,0
2,67,115,96
2,74,108,96
2,67,115,0
2,71,119,0
2,50,104,96
2,69,83,96
2,66,127,0
2,74,115,0
2,50,115,0
2,38,119,0
2,69,98,0
2,66,127,0
2,50,119,0
2,74,108,0
2,38,123,192
2,66,104,96
2,66,123,96
2,69,95,0
2,74,98,0
2,50,86,0
2,69,89,96
2,66,95,0
2,55,123,0
2,43,115,0
2,74,89,0
2,71,127,0
2,55,119,0
2,74,119,0
2,67,123,0
2,55,119,96
2,43,119,0
2,67,111,96
2,67,115,0
2,55,108,0
2,74,123,0
2,73,86,0
2,71,123,0
2,73,127,96
2,69,123,0
2,45,119,0
2,76,123,0
2,57,123,0
2,57,123,96
2,76,119,0
2,69,119,0
2,73,119,0
2,45,119,96
2,57,83,0
2,69,111,96
2,69,108,0
2,76,104,0
2,73,127,0
2,50,111,0
2,69,108,96
2,38,119,0
2,66,127,0
2,74,104,0
2,50,119,0
2,50,123,0
2,66,119,0
2,74,95,0
2,69,92,0
2,38,111,183
2,66,81,96
2,69,95,0
2,74,98,0
2,66,104,0
2,50,119,96
2,38,119,13
2,66,78,16
2,50,115,0
2,66,115,192
2,74,101,0
2,69,101,0
2,38,123,0
2,73,108,0
2,49,123,0
2,61,127,0
2,59,86,96
2,71,119,96
2,74,119,0
2,47,115,0
2,59,119,0
2,74,115,0
2,71,111,0
2,59,123,0
2,59,119,96
2,47,98,0
2,71,66,0
2,71,81,0
2,78,127,0
2,74,115,0
2,50,92,192
2,69,92,13
2,74,98,0
2,66,111,0
2,38,119,0
2,50,119,0
2,74,86,0
2,66,127,0
2,50,115,0
2,69,108,0
2,38,98,96
2,50,119,0
2,66,119,96
2,69,60,0
2,74,83,0
2,50,111,0
2,67,123,96
2,74,127,0
2,71,123,0
2,43,111,0
2,55,119,0
2,71,119,0
2,55,115,0
2,74,115,0
2,67,115,0
2,43,104,0
2,55,123,0
2,67,104,96
2,74,83,96
2,71,60,0
2,50,119,96
2,50,127,96
2,74,104,0
2,38,123,0
2,66,127,0
2,69,111,0
2,50,98,96
2,78,127,0
2,74,108,0
2,69,127,0
2,38,119,96
2,50,104,0
2,76,115,0
2,74,115,0
2,69,108,0
2,55,115,96
2,43,123,96
2,74,123,0
2,55,119,0
2,71,123,0
2,67,123,0
2,74,115,96
2,71,123,0
2,67,119,0
2,55,119,0
2,55,119,0
2,67,115,96
2,71,83,96
2,74,98,0
2,67,83,0
2,50,60,96
2,66,127,96
2,38,119,0
2,69,115,0
2,74,108,0
2,50,123,0
2,66,127,0
2,69,98,0
2,74,95,0
2,50,127,0
2,38,127,0
2,50,108,0
2,66,127,0
2,71,92,192
2,73,108,192
2,59,98,0
2,71,115,0
2,47,111,0
2,66,127,0
2,74,108,0
2,59,123,0
2,74,111,96
2,66,127,0
2,71,108,0
2,59,119,0
2,47,104,96
2,59,111,0
2,66,119,0
2,71,62,0
2,74,76,0
2,50,98,96
2,50,127,96
2,38,123,0
2,69,111,0
2,66,127,0
2,74,108,0
2,74,92,0
2,69,89,0
2,50,119,0
2,66,119,0
2,38,119,0
2,66,111,0
2,74,60,96
2,55,111,96
2,74,123,96
2,67,127,0
2,43,123,0
2,55,123,0
2,71,127,0
2,55,127,96
2,71,115,0
2,67,127,0
2,74,119,0
2,43,115,96
2,55,119,0
2,71,123,96
2,73,127,0
2,71,83,0
2,55,119,0
2,74,119,0
2,45,119,0
2,69,119,0
2,57,119,0
2,76,123,0
2,73,127,0
2,76,119,0
2,69,119,0
2,73,123,0
2,57,115,0
2,45,119,96
2,57,101,0
2,69,104,0
2,73,127,0
2,74,119,0
2,76,119,0
2,69,60,0
2,73,127,96
2,42,123,0
2,78,127,0
2,54,127,0
2,69,101,0
2,78,127,0
2,73,119,0
2,69,111,0
2,54,127,0
2,42,119,96
2,54,127,0
2,69,115,0
2,73,104,0
2,78,119,0
2,55,101,96
2,79,127,96
2,55,127,0
2,74,127,0
2,71,127,0
2,43,127,0
2,67,123,0
2,74,76,0
2,71,66,0
2,67,86,192
2,78,127,125
2,47,111,0
2,71,127,0
2,59,123,0
2,74,127,0
2,45,111,125
2,57,111,0
2,73,123,0
2,69,119,0
2,76,119,0
2,66,123,125
2,50,108,0
2,74,98,0
2,38,123,0
2,69,104,0
2,78,127,864
2,69,127,0
2,74,127,96
2,76,127,96
2,78,127,96
2,74,127,0
2,69,127,0
2,69,119,96
2,74,123,0
2,76,127,0
2,78,127,0
2,74,119,10
2,59,104,0
2,71,111,0
2,78,127,0
2,47,104,0
2,69,123,128
2,57,115,0
2,45,115,0
2,76,119,0
2,73,127,0
2,74,101,128
2,69,104,0
2,66,115,0
2,50,111,0
2,38,119,0
2,78,127,864
2,69,127,0
2,74,127,96
2,76,127,96
2,74,127,96
2,78,127,0
2,69,127,0
2,76,123,96
2,74,119,0
2,69,119,0
2,78,127,0
2,74,60,0
2,71,98,192
2,74,101,0
2,78,119,0
2,47,89,0
2,59,76,0
2,45,119,576
2,57,119,0
2,76,127,0
2,69,123,0
2,73,127,0
2,71,127,135
2,74,127,0
2,79,127,0
2,67,127,0
2,55,127,0
2,43,123,0
2,43,95,672
2,38,66,96
2,31,127,0
2,50,80,1063
2,38,109,192
2,69,94,576
2,78,127,0
2,76,109,192
2,55,88,0
2,74,80,192
2,67,80,0
2,43,103,0
2,71,80,0
2,55,127,0
2,67,127,96
2,74,94,0
2,76,106,0
2,54,127,0
2,73,106,0
2,52,109,0
2,40,127,96
2,67,103,202
2,71,101,192
2,76,118,192
2,57,112,96
2,59,127,0
2,47,127,96
2,71,127,192
2,78,127,0
2,76,106,96
2,79,124,0
2,71,109,0
2,55,98,0
2,43,94,0
2,74,118,0
2,71,127,0
2,74,127,192
2,76,118,96
2,50,96,96
2,50,96,0
2,74,98,0
2,78,121,0
2,38,106,0
2,69,101,0
2,50,127,1056
2,38,127,0
2,69,127,368
2,62,127,0
2,74,119,0
2,66,127,0
2,50,119,96
2,50,123,96
2,62,60,0
2,66,127,0
2,69,127,0
2,74,119,0
2,62,119,0
2,50,111,192
2,74,119,96
2,38,127,0
2,78,127,0
2,50,127,0
2,69,123,0
2,74,81,0
2,69,115,0
2,74,127,0
2,69,115,0
2,78,127,0
2,50,127,96
2,38,108,96
2,50,119,0
2,69,115,0
2,69,111,96
2,78,127,0
2,74,119,0
2,74,127,96
2,78,127,0
2,55,115,0
2,69,119,0
2,67,127,96
2,55,127,0
2,43,119,0
2,74,123,0
2,71,123,0
2,71,111,0
2,55,123,0
2,67,108,0
2,74,108,0
2,55,123,96
2,67,95,96
2,71,115,0
2,74,108,0
2,67,115,0
2,55,127,192
2,43,115,0
2,67,101,0
2,74,101,0
2,71,92,0
2,55,119,0
2,71,104,288
2,79,127,0
2,55,119,0
2,74,115,0
2,43,111,0
2,78,127,0
2,42,111,0
2,54,119,0
2,52,68,96
2,71,119,96
2,40,119,0
2,79,123,0
2,52,119,0
2,76,127,0
2,52,123,0
2,40,119,0
2,71,62,0
2,79,119,96
2,71,104,0
2,76,123,0
2,52,115,0
2,47,95,96
2,59,115,0
2,45,108,0
2,71,95,0
2,78,127,0
2,57,101,0
2,74,119,0
2,59,127,192
2,59,123,96
2,71,108,96
2,71,76,0
2,74,108,0
2,76,115,96
2,71,72,0
2,59,101,0
2,59,115,96
2,78,127,0
2,47,95,0
2,76,111,96
2,74,108,0
2,71,104,96
2,59,115,0
2,59,108,96
2,47,111,0
2,71,115,0
2,74,111,192
2,55,104,0
2,78,108,0
2,76,60,0
2,43,119,96
2,71,123,0
2,67,127,0
