track,note,velocity,time
1,79,76,14178
1,77,68,0
1,75,56,8
1,70,85,6
1,82,58,4
1,82,54,62
1,79,76,2
1,75,82,2
1,75,82,68
1,74,68,12
1,77,71,138
1,80,77,4
1,70,79,190
1,70,74,6
1,70,77,78
1,75,77,0
1,79,73,4
1,79,74,72
1,77,58,2
1,79,65,8
1,77,58,2
1,75,74,14
1,74,57,8
1,79,73,348
1,77,73,6
1,75,82,66
1,70,77,0
1,82,68,76
1,82,85,82
1,79,78,2
1,75,82,42
1,75,79,84
1,74,58,16
1,77,57,10
1,80,54,6
1,70,70,282
1,70,74,22
1,70,77,94
1,75,74,16
1,79,74,10
1,82,61,68
1,80,58,12
1,77,62,16
1,75,85,12
1,74,73,0
1,79,80,12
1,77,68,16
1,75,85,0
1,70,82,576
1,70,93,58
1,74,82,28
1,74,74,36
1,74,51,26
1,74,66,64
1,74,82,76
1,72,93,0
1,70,96,0
1,69,95,10
1,67,95,58
1,69,102,6
1,70,90,2
1,65,95,6
1,65,91,2
1,64,91,0
1,63,106,124
1,63,106,330
1,63,110,322
1,63,93,332
1,62,78,12
1,63,103,4
1,74,70,120
1,75,76,6
1,74,86,0
1,65,97,322
1,65,97,68
1,73,74,116
1,74,80,4
1,74,78,18
1,74,76,34
1,74,68,0
1,74,95,66
1,72,95,6
1,70,93,124
1,69,110,8
1,67,97,2
1,69,102,16
1,70,90,124
1,65,93,12
1,65,100,90
1,64,100,6
1,63,122,0
1,63,116,326
1,63,116,320
1,63,50,214
1,63,110,106
1,67,104,26
1,65,104,12
1,62,100,6
1,70,85,352
1,70,103,82
1,80,68,74
1,80,68,2
1,80,79,68
1,78,74,44
1,78,82,8
1,78,90,68
1,77,74,38
1,70,90,74
1,70,110,56
1,80,85,32
1,80,90,6
1,80,87,52
1,78,77,36
1,78,90,34
1,80,82,46
1,78,96,36
1,77,78,40
1,79,100,664
1,77,86,10
1,75,110,338
1,70,103,36
1,82,90,118
1,82,106,140
1,79,102,4
1,75,106,118
1,75,116,136
1,74,102,32
1,77,91,20
1,80,93,24
1,70,103,300
1,70,103,164
1,70,110,130
1,75,96,80
1,79,102,74
1,79,104,182
1,77,91,0
1,79,95,18
1,77,86,2
1,75,96,12
1,74,100,18
1,77,56,230
1,78,74,22
1,79,100,4
1,77,82,0
1,75,85,10
1,70,110,36
1,82,82,70
1,82,103,150
1,79,100,30
1,75,103,100
1,75,122,144
1,74,102,26
1,77,97,8
1,80,90,8
1,70,116,446
1,70,106,158
1,70,110,136
1,75,93,14
1,79,95,22
1,82,82,92
1,80,93,24
1,77,86,30
1,75,90,24
1,74,91,24
1,79,91,252
1,77,84,0
1,75,68,232
1,82,45,718
1,79,110,192
1,77,102,348
1,75,116,16
1,70,103,4
1,82,90,118
1,82,106,140
1,79,102,4
1,75,106,118
1,75,116,136
1,74,102,32
1,77,91,20
1,80,93,24
1,70,103,300
1,70,103,164
1,70,110,130
1,75,96,80
1,79,102,74
1,79,104,182
1,77,91,0
1,79,95,18
1,77,86,2
1,75,96,12
1,74,100,18
1,77,56,230
1,78,74,22
1,79,100,4
1,77,82,0
1,75,85,10
1,70,110,36
1,82,82,70
1,82,103,150
1,79,100,30
1,75,103,100
1,75,122,144
1,74,102,26
1,77,97,8
1,80,90,8
1,70,116,446
1,70,106,158
1,70,110,136
1,75,93,14
1,79,95,22
1,82,82,92
1,80,93,24
1,77,86,30
1,75,90,24
1,74,91,24
1,79,91,252
1,77,84,0
1,75,68,232
1,69,91,466
1,70,127,38
1,68,127,132
1,67,127,122
2,34,127,12618
2,36,127,74
2,38,127,62
2,46,127,70
2,46,127,38
2,43,127,28
2,41,127,66
2,39,127,66
2,34,127,262
2,39,127,248
2,34,127,258
2,36,127,44
2,38,127,32
2,39,127,62
2,34,127,152
2,39,127,176
2,34,127,170
2,45,127,132
2,46,127,96
2,41,127,182
2,34,127,142
2,41,127,118
2,46,127,86
2,41,127,90
2,39,127,84
2,34,127,84
2,44,127,122
2,44,127,96
2,45,127,38
2,46,127,68
2,41,127,98
2,34,127,90
2,34,127,120
2,36,127,88
2,38,127,96
2,39,127,92
2,34,127,152
2,39,127,176
2,34,127,170
2,45,127,132
2,46,127,96
2,41,127,182
2,34,127,142
2,41,127,118
2,46,127,86
2,41,127,90
2,39,127,84
2,44,127,80
2,44,127,102
2,39,127,96
2,34,127,12
2,39,127,94
2,46,127,96
2,43,127,100
2,39,127,52
2,39,127,192
2,46,127,168
2,46,127,76
2,41,127,252
2,46,127,274
2,46,127,288
2,45,127,60
2,43,127,62
2,41,127,76
2,36,127,284
2,34,127,290
2,46,127,266
2,41,127,302
2,36,127,294
2,41,127,296
2,41,127,302
2,43,127,90
2,41,127,70
2,46,127,90
2,41,127,306
2,46,127,304
2,41,127,288
2,43,127,96
2,45,127,98
2,46,127,98
2,41,127,310
2,46,127,314
2,46,127,310
2,45,127,66
2,43,127,68
2,41,127,88
2,36,127,302
2,34,127,314
2,46,127,304
2,41,127,316
2,36,127,326
2,41,127,326
2,41,127,308
2,43,127,100
2,41,127,72
2,34,127,96
2,41,127,322
2,46,127,340
2,41,127,332
2,46,127,344
2,41,127,250
2,39,127,270
2,46,127,276
2,46,127,254
2,41,127,222
2,44,127,122
2,46,127,104
2,41,127,238
2,44,127,146
2,46,127,58
2,41,127,278
2,39,127,282
2,44,127,272
2,46,127,266
2,41,127,276
2,46,127,278
2,41,127,328
2,46,127,284
2,41,127,262
2,46,127,312
2,44,127,124
2,43,127,124
2,41,127,142
2,39,127,150
2,34,127,220
2,39,127,224
2,34,127,218
2,39,127,210
2,34,127,202
2,39,127,190
2,38,127,182
2,36,127,98
2,34,127,92
2,41,127,248
2,46,127,216
2,41,127,218
2,46,127,218
2,41,127,238
2,46,127,252
2,34,127,222
2,39,127,232
2,34,127,212
2,39,127,270
2,34,127,258
2,44,127,224
2,44,127,240
2,45,127,232
2,45,127,216
2,46,127,234
2,41,127,222
2,46,127,202
2,41,127,232
2,46,127,240
2,41,127,234
2,34,127,216
2,36,127,140
2,38,127,104
2,39,127,110
2,34,127,210
2,39,127,240
2,34,127,240
2,39,127,236
2,34,127,208
2,39,127,240
2,45,127,246
2,46,127,190
2,41,127,206
2,46,127,204
2,41,127,234
2,46,127,218
2,45,81,32
2,41,127,264
2,46,127,220
2,34,127,236
2,38,127,90
2,39,127,92
2,39,127,256
2,44,127,202
2,44,127,214
2,39,127,230
2,39,127,226
2,34,127,214
2,34,127,210
2,39,127,206
2,34,127,208
2,39,127,230
2,34,127,206
2,39,127,200
2,34,127,204
2,39,127,170
2,34,127,96
2,36,127,80
2,38,127,106
2,39,127,118
2,34,127,220
2,39,127,224
2,34,127,218
2,39,127,210
2,34,127,202
2,39,127,190
2,38,127,182
2,36,127,98
2,34,127,92
2,41,127,248
2,46,127,216
2,41,127,218
2,46,127,218
2,41,127,238
2,46,127,252
2,34,127,222
2,39,127,232
2,34,127,212
2,39,127,270
2,34,127,258
2,44,127,224
2,44,127,240
2,45,127,232
2,45,127,216
2,46,127,234
2,41,127,222
2,46,127,202
2,41,127,232
2,46,127,240
2,41,127,234
2,34,127,216
2,36,127,140
2,38,127,104
2,39,127,110
2,34,127,210
2,39,127,240
2,34,127,240
2,39,127,236
2,34,127,208
2,39,127,240
2,45,127,246
2,46,127,190
2,41,127,206
2,46,127,204
2,41,127,234
2,46,127,218
2,45,81,32
2,41,127,264
2,46,127,220
2,34,127,236
2,38,127,90
2,39,127,92
2,39,127,256
2,44,127,202
2,44,127,214
2,39,127,230
2,39,127,226
2,34,127,214
2,34,127,210
2,39,127,206
2,34,127,208
2,39,127,230
2,34,127,206
2,39,127,200
2,34,127,204
2,38,127,30
2,39,127,72
3,78,75,14140
3,79,94,2
3,77,74,30
3,75,69,44
3,70,72,4
3,82,46,44
3,82,77,72
3,79,85,30
3,75,100,88
3,75,93,106
3,74,68,16
3,77,66,8
3,80,60,10
3,70,83,202
3,70,72,98
3,70,77,88
3,75,69,26
3,79,70,34
3,79,70,98
3,77,64,6
3,79,68,12
3,77,55,242
3,75,77,8
3,74,58,4
3,79,70,474
3,77,56,32
3,75,75,68
3,70,80,26
3,82,75,74
3,82,75,60
3,79,76,20
3,75,83,42
3,75,75,82
3,74,76,22
3,77,63,12
3,80,64,6
3,70,60,264
3,70,72,86
3,70,75,88
3,75,67,16
3,79,68,14
3,82,72,58
3,80,69,12
3,77,66,14
3,75,93,14
3,74,66,28
3,79,83,62
3,77,72,76
3,75,93,76
3,57,117,5934
3,58,119,16
3,60,115,80
3,62,118,90
3,60,66,38
3,65,87,310
3,65,85,34
3,65,97,66
3,65,94,94
3,65,97,68
3,65,94,50
3,65,97,86
3,65,100,88
3,63,96,32
3,65,94,18
3,67,87,14
3,62,76,10
3,62,66,108
3,61,40,34
3,60,96,248
3,60,97,198
3,60,98,2
3,60,92,70
3,63,100,10
3,62,87,124
3,58,93,2
3,58,127,180
3,60,94,108
3,62,92,106
3,70,77,360
3,70,72,32
3,80,77,14
3,80,86,38
3,80,86,54
3,78,69,38
3,78,83,6
3,78,86,68
3,77,70,24
3,70,86,212
3,70,86,96
3,80,72,58
3,80,75,18
3,80,75,86
3,78,69,48
3,78,72,12
3,78,77,102
3,77,76,26
3,78,52,258
3,79,55,2
3,80,66,62
3,82,78,42
3,79,74,2
3,77,90,314
3,75,83,14
3,70,96,44
3,82,80,192
3,82,93,216
3,79,70,22
3,75,83,132
3,75,86,170
3,74,90,28
3,77,83,14
3,80,69,4
3,70,80,400
3,70,75,172
3,70,80,144
3,75,72,46
3,79,74,32
3,79,81,178
3,77,81,30
3,79,81,4
3,77,81,0
3,75,75,10
3,74,72,10
3,79,81,634
3,77,72,20
3,75,77,14
3,70,80,40
3,82,72,118
3,82,60,230
3,79,64,6
3,75,69,130
3,75,80,188
3,74,70,28
3,77,68,6
3,80,75,226
3,70,67,338
3,70,75,192
3,70,72,140
3,75,67,20
3,79,66,16
3,82,56,98
3,80,72,18
3,77,66,32
3,75,75,36
3,74,74,56
3,79,70,24
3,77,64,34
3,75,69,12
3,70,96,2160
3,82,80,192
3,82,93,216
3,79,70,22
3,75,83,132
3,75,86,170
3,74,90,28
3,77,83,14
3,80,69,4
3,70,80,400
3,70,75,172
3,70,80,144
3,75,72,46
3,79,74,32
3,79,81,178
3,77,81,30
3,79,81,4
3,77,81,0
3,75,75,10
3,74,72,10
3,79,81,634
3,77,72,20
3,75,77,14
3,70,80,40
3,82,72,118
3,82,60,230
3,79,64,6
3,75,69,130
3,75,80,188
3,74,70,28
3,77,68,6
3,80,75,226
3,70,67,338
3,70,75,192
3,70,72,140
3,75,67,20
3,79,66,16
3,82,56,98
3,80,72,18
3,77,66,32
3,75,75,36
3,74,74,56
3,79,70,24
3,77,64,34
3,75,69,12
3,60,72,180
3,61,96,38
3,62,112,30
3,60,120,118
3,58,127,122
4,58,100,13128
4,58,112,100
4,58,106,238
4,58,112,88
4,58,100,220
4,58,127,96
4,65,52,76
4,66,127,8
4,67,100,2
4,58,127,118
4,65,97,4
4,58,127,4
4,63,127,100
4,58,119,80
4,70,106,88
4,70,112,104
4,67,97,18
4,63,100,40
4,63,116,88
4,62,92,14
4,65,100,2
4,68,100,10
4,58,127,314
4,58,127,108
4,58,116,90
4,63,112,76
4,67,101,82
4,67,107,102
4,65,97,8
4,67,97,6
4,65,100,6
4,63,127,134
4,62,107,12
4,66,127,330
4,67,107,0
4,65,94,6
4,63,127,154
4,58,127,14
4,70,106,96
4,70,112,80
4,67,100,8
4,63,112,28
4,63,110,86
4,62,94,14
4,65,104,4
4,68,106,14
4,58,100,372
4,58,112,98
4,58,112,74
4,63,100,12
4,67,112,30
4,70,100,8
4,68,101,22
4,65,112,120
4,63,127,8
4,62,101,2
4,67,116,116
4,65,98,14
4,63,104,2
4,58,100,588
4,70,127,10
4,58,127,74
4,70,112,14
4,62,112,58
4,74,97,10
4,74,100,2
4,62,97,0
4,62,98,8
4,74,98,0
4,74,97,6
4,62,94,0
4,60,64,52
4,61,112,18
4,74,97,18
4,62,120,0
4,60,94,14
4,72,100,8
4,70,106,0
4,58,93,4
4,69,120,8
4,57,94,4
4,55,112,20
4,67,100,10
4,69,100,6
4,57,92,2
4,70,106,112
4,58,86,4
4,65,120,12
4,53,90,0
4,65,120,60
4,53,90,6
4,52,92,2
4,64,112,4
4,63,127,136
4,51,106,0
4,63,72,10
4,64,70,18
4,65,70,18
4,63,77,4
4,51,127,0
4,63,127,4
4,63,80,24
4,64,70,16
4,65,70,14
4,63,77,94
4,63,127,2
4,51,127,0
4,63,80,32
4,64,26,0
4,65,74,16
4,51,51,6
4,63,80,0
4,51,112,90
4,63,127,8
4,62,100,2
4,50,90,0
4,63,106,14
4,51,100,2
4,66,112,0
4,53,53,8
4,55,81,2
4,67,127,2
4,65,112,6
4,53,90,2
4,53,97,228
4,65,120,4
4,53,94,60
4,65,112,6
4,62,100,0
4,74,94,4
4,73,106,16
4,62,94,4
4,74,98,0
4,74,84,2
4,62,104,6
4,74,94,26
4,62,85,10
4,62,97,32
4,74,97,14
4,72,97,8
4,60,92,0
4,70,112,0
4,58,83,2
4,69,100,0
4,57,92,4
4,67,100,4
4,55,92,0
4,69,97,0
4,57,74,12
4,70,96,110
4,58,80,4
4,65,100,6
4,53,90,6
4,65,112,114
4,53,90,8
4,64,97,14
4,52,92,8
4,50,97,14
4,63,127,22
4,51,127,6
4,63,100,24
4,64,70,0
4,65,90,4
4,63,86,0
4,50,76,102
4,51,127,10
4,63,127,8
4,63,100,8
4,64,64,18
4,65,76,8
4,63,83,92
4,50,85,100
4,63,127,10
4,51,127,0
4,63,100,56
4,64,72,6
4,65,92,20
4,63,93,10
4,63,75,6
4,63,127,102
4,51,127,16
4,67,100,20
4,65,120,116
4,50,90,0
4,62,127,12
4,46,100,444
4,58,112,8
4,58,110,72
4,46,93,2
4,56,100,50
4,68,119,6
4,68,116,78
4,56,96,8
4,68,106,60
4,56,106,8
4,66,110,54
4,54,106,8
4,66,110,94
4,54,127,6
4,66,116,84
4,54,127,12
4,65,110,58
4,53,97,8
4,46,100,6
4,53,81,36
4,58,112,22
4,46,80,28
4,53,81,4
4,46,112,62
4,58,113,10
4,56,93,22
4,68,106,8
4,56,96,6
4,68,100,2
4,68,100,54
4,56,93,6
4,54,100,72
4,66,106,12
4,66,112,54
4,54,112,26
4,66,112,58
4,54,112,10
4,65,116,14
4,53,92,14
4,66,88,4
4,67,92,0
4,68,95,8
4,69,100,0
4,70,106,8
4,65,56,44
4,66,127,10
4,67,127,20
4,55,112,6
4,53,100,74
4,65,127,18
4,51,127,74
4,63,127,14
4,46,127,34
4,58,127,26
4,58,127,146
4,70,127,14
4,70,127,170
4,58,127,6
4,67,127,32
4,55,127,0
4,51,127,132
4,63,127,2
4,63,127,142
4,51,127,20
4,50,120,80
4,62,127,12
4,53,112,106
4,65,127,2
4,56,106,94
4,68,127,16
4,58,127,242
4,46,127,10
4,58,127,124
4,46,127,0
4,46,127,126
4,58,127,12
4,63,127,148
4,51,127,0
4,55,112,116
4,67,127,8
4,55,120,140
4,67,127,14
4,53,112,28
4,65,127,20
4,67,127,24
4,55,120,0
4,53,100,14
4,65,127,4
4,51,127,2
4,63,127,16
4,53,68,0
4,51,75,0
4,50,94,12
4,62,127,2
4,65,64,154
4,66,127,10
4,55,120,0
4,67,127,24
4,53,112,20
4,65,127,8
4,51,127,4
4,63,127,14
4,46,127,30
4,58,127,6
4,58,127,128
4,70,127,2
4,58,127,132
4,70,127,4
4,55,127,34
4,67,127,10
4,51,127,86
4,63,127,18
4,63,127,132
4,51,127,10
4,62,127,68
4,50,112,0
4,53,120,64
4,65,127,18
4,56,112,66
4,68,112,18
4,58,127,146
4,46,127,18
4,58,127,144
4,46,127,6
4,58,127,128
4,46,127,8
4,63,127,112
4,51,127,4
4,55,127,116
4,67,112,2
4,70,112,102
4,58,127,4
4,68,127,98
4,56,112,0
