track,note,velocity,time
1,34,88,6748
1,36,87,64
1,26,65,56
1,27,87,36
1,27,63,68
1,27,74,76
1,29,89,16
1,29,83,120
1,29,68,52
1,34,88,12
1,24,87,64
1,27,87,56
1,27,63,56
1,27,74,80
1,29,89,12
1,29,83,124
1,29,68,48
1,34,88,8
1,36,87,68
1,26,65,60
1,27,87,32
1,27,63,64
1,27,74,76
1,29,89,12
1,29,83,120
1,29,68,52
1,34,88,12
1,24,87,68
1,27,87,56
1,27,63,56
1,27,74,80
1,29,89,12
1,29,83,124
1,29,68,48
1,34,89,8
1,24,88,68
1,27,88,56
1,27,64,68
1,27,75,76
1,29,90,16
1,29,84,120
1,29,69,52
1,34,89,12
1,36,88,64
1,26,66,84
1,27,88,36
1,27,64,56
1,27,75,80
1,29,90,12
1,29,84,124
1,29,69,64
1,34,89,12
1,24,88,68
1,26,66,60
1,27,88,32
1,27,64,64
1,27,75,76
1,29,90,12
1,29,84,120
1,29,69,52
1,34,89,12
1,36,88,60
1,31,76,40
1,29,76,108
1,27,88,108
1,27,64,252
1,29,90,76
1,29,84,120
1,31,95,20
1,29,97,20
1,41,84,0
1,43,82,124
1,45,78,8
1,41,75,104
1,36,77,4
1,39,97,88
1,39,85,96
1,39,93,80
1,39,92,104
1,36,88,84
1,36,85,112
1,36,90,80
1,36,90,96
1,39,97,96
1,39,85,96
1,39,93,80
1,39,92,104
1,34,97,84
1,34,85,104
1,34,93,80
1,34,92,108
1,39,97,96
1,39,85,92
1,39,93,80
1,39,92,108
1,36,88,88
1,36,85,112
1,36,90,80
1,36,90,92
1,36,90,92
1,36,85,124
1,36,97,80
1,36,92,92
1,36,86,48
1,41,88,84
1,41,85,116
1,41,90,84
1,41,90,92
1,41,90,88
1,41,85,120
1,41,97,80
1,34,91,36
1,34,66,68
1,36,90,76
1,26,66,56
1,26,77,76
1,27,90,16
1,27,66,52
1,27,77,80
1,29,92,20
1,29,66,48
1,33,76,8
1,29,62,8
1,34,91,12
1,34,66,56
1,34,77,76
1,36,90,16
1,31,66,56
1,29,77,76
1,27,90,16
1,27,66,52
1,27,77,80
1,29,92,20
1,41,72,32
1,41,81,96
1,36,72,4
1,34,89,72
1,34,64,40
1,34,75,76
1,36,88,20
1,26,66,36
1,27,88,36
1,27,64,48
1,27,75,76
1,29,90,16
1,29,84,120
1,34,89,56
1,34,64,40
1,34,75,80
1,36,88,16
1,26,66,48
1,27,88,36
1,27,64,48
1,27,75,80
1,29,90,12
1,29,84,116
1,29,69,40
1,29,64,16
1,34,89,76
1,36,64,36
1,34,75,76
1,36,88,20
1,26,66,44
1,27,88,32
1,27,64,44
1,27,75,76
1,29,90,12
1,29,84,120
1,29,90,28
1,34,89,36
1,34,64,44
1,34,75,80
1,36,88,16
1,26,66,52
1,27,88,40
1,27,64,52
1,27,75,80
1,29,90,12
1,29,84,116
1,29,69,36
1,34,91,36
1,34,66,48
1,34,77,76
1,36,90,12
1,26,68,56
1,27,90,32
1,27,66,68
1,27,77,76
1,29,92,16
1,29,66,36
1,29,77,76
1,29,66,20
1,29,77,76
1,34,91,48
1,34,77,52
1,36,90,68
1,26,66,48
1,26,77,76
1,27,90,12
1,27,66,52
1,27,77,80
1,29,92,12
1,29,86,124
1,29,71,52
1,34,91,28
1,34,68,44
1,36,90,80
1,26,68,60
1,27,90,80
1,27,66,64
1,27,77,76
1,29,92,12
1,29,66,24
1,29,77,76
1,29,71,36
1,34,91,32
1,36,90,72
1,31,78,40
1,29,78,108
1,27,90,108
1,27,66,256
1,29,92,76
1,29,86,120
1,29,82,0
1,33,88,8
1,31,79,32
1,29,76,8
1,41,76,16
1,39,99,4
1,39,87,96
1,39,95,80
1,39,94,104
1,36,90,84
1,36,87,120
1,36,92,80
1,36,92,96
1,39,99,92
1,39,87,96
1,39,95,80
1,39,94,104
1,34,99,84
1,34,87,104
1,34,95,84
1,34,94,108
1,39,99,92
1,39,87,92
1,39,95,80
1,39,94,108
1,36,90,88
1,36,87,112
1,36,92,80
1,36,92,92
1,36,92,88
1,36,87,124
1,36,99,80
1,36,94,92
1,36,88,48
1,41,90,84
1,41,87,116
1,41,92,84
1,41,92,92
1,41,90,96
1,41,87,112
1,41,92,80
1,41,92,92
1,41,90,92
1,41,87,116
1,41,92,80
1,41,92,104
1,48,74,60
1,53,78,8
1,34,94,176
1,34,80,64
1,36,93,88
1,26,69,56
1,26,80,76
1,27,93,16
1,27,69,52
1,27,80,80
1,29,94,16
1,29,95,84
1,29,69,40
1,33,79,8
1,29,65,8
1,34,94,8
1,34,69,52
1,34,80,76
1,36,93,16
1,31,69,52
1,29,80,76
1,27,93,16
1,27,69,52
1,27,80,80
1,29,94,16
1,29,95,84
1,29,69,36
1,33,79,8
1,29,65,8
1,34,94,8
1,34,69,76
1,34,80,76
1,36,93,20
1,26,69,56
1,26,80,76
1,27,93,16
1,27,69,56
1,27,80,80
1,29,95,20
1,29,95,80
1,33,79,136
1,29,65,8
1,34,94,8
1,34,69,52
1,34,80,76
1,36,93,16
1,31,69,52
1,29,80,76
1,27,93,16
1,27,69,52
1,27,80,80
1,29,94,20
1,29,95,84
1,29,69,40
1,33,79,8
1,29,65,12
1,34,96,8
1,34,71,64
1,34,82,76
1,36,96,16
1,36,95,80
1,26,71,52
1,26,82,76
1,27,95,16
1,27,71,60
1,27,82,80
1,29,96,16
1,29,97,84
1,29,71,48
1,33,81,16
1,29,67,12
1,34,96,8
1,34,71,64
1,34,82,76
1,36,95,24
1,31,71,64
1,29,82,76
1,27,95,20
1,27,71,80
1,27,82,80
1,29,96,16
1,29,97,84
1,29,71,40
1,33,81,8
1,29,67,12
1,34,96,20
1,34,71,84
1,34,82,76
1,36,95,16
1,26,71,84
1,26,82,80
1,27,95,16
1,27,71,60
1,27,82,84
1,29,97,16
1,29,97,88
1,33,81,144
1,29,67,8
1,34,96,8
1,34,71,60
1,34,82,76
1,36,95,16
1,31,71,52
1,29,82,76
1,27,95,20
1,27,71,72
1,27,82,80
1,29,96,24
1,29,97,88
1,29,71,48
1,33,81,8
1,29,67,12
1,34,95,16
2,53,91,604
2,57,99,0
2,60,96,0
2,53,91,32
2,57,99,0
2,60,96,0
2,53,80,116
2,48,60,96
2,53,84,28
2,58,99,0
2,62,101,0
2,53,79,8
2,58,101,36
2,62,96,0
2,53,72,132
2,53,91,56
2,60,99,0
2,63,96,0
2,53,91,32
2,60,99,0
2,63,96,0
2,53,87,116
2,48,66,96
2,53,91,28
2,58,99,0
2,62,101,0
2,53,79,8
2,58,101,36
2,62,96,0
2,53,80,124
2,53,91,56
2,57,99,0
2,60,96,0
2,53,91,44
2,57,99,0
2,60,96,0
2,53,80,116
2,48,60,96
2,53,84,28
2,58,99,0
2,62,101,0
2,53,79,8
2,58,101,36
2,62,96,0
2,53,72,136
2,53,91,60
2,57,99,0
2,60,87,0
2,63,72,0
2,46,81,52
2,58,79,0
2,62,78,0
2,65,87,20
2,62,91,4
2,58,67,188
2,48,90,24
2,60,82,8
2,63,84,0
2,67,89,8
2,60,76,0
2,63,82,0
2,60,67,8
2,51,94,24
2,67,89,4
2,63,82,0
2,63,67,20
2,70,87,28
2,67,82,0
2,63,70,116
2,53,86,24
2,65,86,4
2,72,86,0
2,65,70,20
2,41,72,20
2,69,91,0
2,72,84,0
2,65,68,116
2,65,68,32
2,46,86,0
2,62,85,0
2,65,81,28
2,65,81,8
2,70,83,0
2,74,89,0
2,65,63,28
2,48,84,44
2,72,87,0
2,63,73,4
2,67,67,0
2,67,79,12
2,72,78,0
2,75,91,0
2,63,65,124
2,51,84,20
2,67,84,0
2,70,81,0
2,63,82,0
2,63,64,20
2,75,87,24
2,67,82,0
2,63,65,112
2,53,86,20
2,65,81,4
2,69,78,0
2,65,66,20
2,69,91,24
2,72,86,0
2,65,64,116
2,46,81,32
2,58,79,0
2,62,78,0
2,70,78,0
2,65,87,20
2,70,87,0
2,62,91,4
2,58,67,188
2,48,90,28
2,60,82,8
2,63,84,0
2,72,84,0
2,67,89,12
2,75,89,0
2,60,76,0
2,63,82,0
2,60,67,8
2,51,94,20
2,67,89,4
2,70,89,0
2,63,82,0
2,63,67,20
2,70,87,24
2,67,82,0
2,63,70,112
2,53,86,20
2,65,86,4
2,69,86,0
2,72,86,0
2,65,70,20
2,41,72,20
2,69,91,0
2,72,84,0
2,65,68,116
2,65,68,32
2,74,68,0
2,46,86,0
2,62,85,0
2,65,74,28
2,65,81,8
2,70,83,0
2,74,89,0
2,65,63,28
2,48,84,44
2,75,74,0
2,63,73,4
2,67,67,0
2,67,79,12
2,72,78,0
2,75,91,0
2,63,65,124
2,51,84,20
2,67,84,0
2,70,81,0
2,63,82,0
2,63,64,20
2,70,87,24
2,67,82,0
2,63,65,112
2,53,86,20
2,65,81,4
2,69,73,0
2,72,78,0
2,65,66,20
2,69,91,24
2,72,84,0
2,65,64,116
2,46,83,32
2,58,81,0
2,62,80,0
2,65,89,20
2,62,93,4
2,58,69,188
2,48,92,24
2,60,84,8
2,63,86,0
2,67,91,8
2,60,78,0
2,63,84,0
2,60,69,8
2,51,96,16
2,67,91,4
2,63,84,0
2,63,69,20
2,70,89,28
2,67,84,0
2,63,72,116
2,53,88,24
2,65,88,4
2,72,88,0
2,65,72,20
2,41,74,20
2,69,93,0
2,72,86,0
2,65,70,116
2,65,70,32
2,46,88,0
2,62,87,0
2,65,83,28
2,65,83,8
2,70,85,0
2,74,91,0
2,65,65,28
2,48,86,44
2,72,89,0
2,63,75,4
2,67,69,0
2,67,81,36
2,72,80,0
2,75,93,0
2,63,67,152
2,51,86,16
2,67,86,0
2,70,83,0
2,63,84,0
2,63,66,20
2,75,89,24
2,67,84,0
2,63,67,112
2,53,88,20
2,65,83,4
2,69,80,0
2,65,68,20
2,69,93,28
2,72,88,0
2,65,66,128
2,46,83,44
2,58,81,0
2,62,80,0
2,70,80,0
2,65,89,20
2,70,89,0
2,62,93,4
2,58,69,188
2,48,92,28
2,60,84,8
2,63,86,0
2,72,86,0
2,67,91,12
2,75,91,0
2,60,78,0
2,63,84,0
2,60,69,8
2,51,96,20
2,67,91,4
2,70,91,0
2,63,84,0
2,63,69,20
2,70,89,24
2,67,84,0
2,63,72,112
2,53,88,20
2,65,88,4
2,69,88,0
2,72,88,0
2,65,72,20
2,41,74,20
2,69,93,0
2,72,86,0
2,65,70,116
2,65,70,32
2,46,88,0
2,62,87,0
2,65,83,28
2,74,96,0
2,65,83,12
2,72,92,0
2,65,65,8
2,70,80,4
2,48,86,20
2,72,89,0
2,63,75,4
2,67,69,0
2,67,88,20
2,60,80,16
2,65,93,0
2,51,86,16
2,58,83,0
2,67,73,0
2,63,94,0
2,63,66,32
2,67,89,20
2,51,88,0
2,58,84,0
2,58,67,12
2,53,84,32
2,57,78,4
2,60,81,0
2,65,80,0
2,60,68,20
2,53,89,20
2,57,86,4
2,60,87,0
2,65,87,0
2,60,74,16
2,53,86,16
2,57,80,4
2,60,83,0
2,65,82,0
2,60,70,24
2,53,91,24
2,57,88,4
2,60,89,0
2,65,89,0
2,60,76,12
2,53,88,16
2,57,82,4
2,60,85,0
2,65,84,0
2,60,72,16
2,53,93,20
2,57,90,4
2,60,91,0
2,65,91,0
2,60,78,12
2,51,114,8
2,55,103,0
2,58,114,0
2,63,114,0
2,55,107,44
2,55,86,12
2,58,114,0
2,63,112,0
2,55,96,0
2,51,103,36
2,55,108,0
2,58,112,0
2,63,108,0
2,55,105,104
2,58,115,28
2,63,108,0
2,55,108,4
2,55,103,0
2,48,107,44
2,55,107,0
2,60,114,0
2,63,114,0
2,55,107,76
2,55,101,32
2,60,108,0
2,63,110,0
2,55,103,4
2,48,94,32
2,60,110,0
2,63,112,0
2,55,98,4
2,55,108,16
2,60,110,36
2,55,84,0
2,63,110,0
2,55,110,8
2,51,114,68
2,55,103,0
2,58,114,0
2,63,114,0
2,55,107,44
2,55,86,12
2,58,114,0
2,63,112,0
2,55,96,0
2,51,103,36
2,55,108,0
2,58,112,0
2,63,108,0
2,55,105,104
2,58,115,28
2,63,108,0
2,55,108,4
2,55,103,100
2,46,107,52
2,58,107,0
2,62,114,0
2,65,114,0
2,58,107,0
2,58,101,32
2,62,108,0
2,65,110,0
2,58,103,4
2,46,94,36
2,62,110,0
2,65,112,0
2,58,98,4
2,58,108,16
2,65,110,40
2,58,84,0
2,62,110,0
2,58,110,4
2,51,114,56
2,55,103,0
2,58,114,0
2,63,114,0
2,55,107,44
2,55,86,8
2,58,114,0
2,63,112,0
2,55,96,0
2,51,103,36
2,55,108,0
2,58,112,0
2,63,108,0
2,55,105,108
2,58,115,28
2,63,108,0
2,55,108,4
2,55,103,0
2,48,107,48
2,55,107,0
2,60,114,0
2,63,114,0
2,55,107,76
2,55,101,32
2,60,108,0
2,63,110,0
2,55,103,4
2,48,94,32
2,60,110,0
2,63,112,0
2,55,98,4
2,55,108,8
2,60,110,36
2,55,84,0
2,63,110,0
2,55,110,8
2,48,114,64
2,55,103,0
2,60,114,0
2,63,114,0
2,55,107,48
2,55,86,12
2,60,114,0
2,63,112,0
2,55,96,0
2,48,103,36
2,55,108,0
2,60,112,0
2,63,108,0
2,55,105,104
2,60,115,28
2,63,108,0
2,55,108,4
2,55,103,104
2,53,107,48
2,57,107,0
2,60,114,0
2,65,114,0
2,57,107,4
2,57,101,32
2,60,108,0
2,65,110,0
2,57,103,0
2,53,94,36
2,60,110,0
2,65,112,0
2,58,98,4
2,57,108,8
2,60,110,36
2,65,110,0
2,58,84,0
2,57,110,8
2,53,107,52
2,57,107,0
2,60,114,0
2,65,114,0
2,57,107,0
2,57,101,36
2,60,108,0
2,65,110,0
2,57,103,84
2,53,107,36
2,57,107,0
2,60,114,0
2,65,114,0
2,46,115,244
2,53,104,0
2,58,115,0
2,62,115,0
2,53,108,44
2,53,87,8
2,58,115,0
2,62,113,0
2,53,97,0
2,48,104,40
2,55,109,0
2,60,113,0
2,63,109,0
2,55,106,104
2,60,116,28
2,63,109,0
2,55,109,4
2,55,104,104
2,51,108,40
2,55,108,0
2,58,115,0
2,63,115,0
2,55,108,76
2,55,102,32
2,58,109,0
2,63,111,0
2,55,104,4
2,53,95,40
2,60,111,0
2,65,113,0
2,58,99,4
2,58,109,4
2,60,111,32
2,57,85,0
2,65,111,0
2,57,111,12
2,46,115,60
2,53,104,0
2,58,115,0
2,62,115,0
2,53,108,44
2,53,87,8
2,58,115,0
2,62,113,0
2,53,97,0
2,48,104,36
2,55,109,0
2,60,113,0
2,63,109,0
2,55,106,104
2,60,116,28
2,63,109,0
2,55,109,4
2,55,104,104
2,51,108,40
2,55,108,0
2,58,115,0
2,63,115,0
2,55,108,76
2,55,102,32
2,58,109,0
2,63,111,0
2,55,104,4
2,53,95,40
2,60,111,0
2,65,113,0
2,58,99,4
2,58,109,4
2,41,95,28
2,60,111,4
2,58,85,0
2,65,111,0
2,58,111,8
2,58,88,44
2,53,84,4
2,62,89,0
2,55,82,88
2,60,88,4
2,63,88,12
2,63,91,124
2,58,88,0
2,55,78,4
2,60,80,160
2,57,86,4
2,65,87,0
2,53,87,200
2,58,88,4
2,62,84,0
2,58,84,72
2,63,89,8
2,55,79,8
2,63,89,96
2,58,87,4
2,67,90,0
2,60,87,136
2,57,90,4
2,65,88,0
2,58,88,48
2,53,84,4
2,62,89,0
2,55,82,84
2,60,88,4
2,63,88,12
2,63,91,132
2,58,88,0
2,55,78,4
2,60,80,156
2,57,86,4
2,65,87,0
2,53,87,200
2,58,88,4
2,62,84,0
2,58,84,80
2,63,89,8
2,55,79,8
2,63,89,104
2,58,87,4
2,67,90,0
2,60,87,140
2,57,90,4
2,65,88,0
2,46,88,48
2,58,86,0
2,62,85,0
2,65,94,20
2,62,98,4
2,58,74,188
2,48,97,24
2,60,89,8
2,63,91,0
2,67,96,8
2,60,83,0
2,63,89,0
2,60,74,8
2,51,101,20
2,67,96,4
2,63,89,0
2,63,74,20
