track,note,velocity,time
0,38,83,1340
0,44,48,0
0,61,73,0
0,35,80,0
0,60,105,4
0,44,44,132
0,65,89,2
0,69,86,10
0,44,48,10
0,63,77,4
0,60,94,42
0,38,83,12
0,44,44,0
0,35,74,0
0,61,54,10
0,59,91,80
0,31,88,8
0,44,48,0
0,35,80,0
0,61,68,186
0,44,44,2
0,65,85,150
0,69,80,14
0,63,73,16
0,44,48,4
0,61,58,86
0,38,99,0
0,44,44,0
0,35,74,0
0,60,102,8
0,44,48,76
0,35,80,0
0,65,84,154
0,69,87,10
0,38,96,2
0,44,44,0
0,61,73,0
0,63,73,66
0,44,48,0
0,59,98,160
0,38,96,28
0,44,44,0
0,61,56,0
0,35,74,0
0,31,89,34
0,44,48,0
0,35,80,0
0,63,58,86
0,31,91,22
0,65,88,0
0,69,86,0
0,44,44,0
0,63,66,56
0,36,93,18
0,44,48,0
0,61,52,48
0,60,98,10
0,37,66,4
0,44,44,0
0,35,74,0
0,60,103,66
0,61,71,6
0,38,95,0
0,44,48,0
0,35,80,0
0,44,44,188
0,65,85,32
0,63,77,2
0,69,85,2
0,44,48,4
0,60,80,42
0,61,60,20
0,38,99,2
0,44,44,0
0,35,74,0
0,31,81,76
0,44,48,0
0,35,80,0
0,59,89,0
0,61,71,170
0,44,44,14
0,65,83,32
0,69,83,0
0,63,77,0
0,44,48,10
0,63,64,80
0,38,92,6
0,44,44,0
0,35,74,0
0,60,93,0
0,44,48,64
0,35,80,0
0,61,68,128
0,38,90,0
0,44,44,0
0,65,87,2
0,69,80,0
0,63,71,64
0,44,48,6
0,63,68,182
0,31,91,2
0,59,91,0
0,44,44,0
0,35,74,0
0,61,63,174
0,71,110,2
0,63,57,2
0,74,98,18
0,73,74,172
0,63,69,2
0,35,74,12
0,38,83,182
0,44,48,0
0,61,73,0
0,75,66,0
0,35,80,0
0,61,79,2
0,66,88,0
0,69,80,12
0,57,77,10
0,50,77,16
0,44,44,146
0,44,48,188
0,63,77,4
0,38,93,120
0,44,44,0
0,75,66,0
0,35,74,0
0,61,54,10
0,45,77,48
0,44,48,0
0,35,80,0
0,61,68,52
0,44,44,2
0,63,73,180
0,44,48,4
0,75,68,0
0,66,104,58
0,61,58,24
0,38,87,0
0,44,44,0
0,35,74,0
0,67,97,16
0,34,73,24
0,64,95,0
0,44,48,0
0,35,80,0
0,58,73,6
0,70,65,24
0,61,74,24
0,67,86,0
0,44,44,6
0,61,73,0
0,73,73,46
0,63,73,14
0,70,70,2
0,44,48,0
0,75,63,0
0,64,78,6
0,76,88,12
0,73,68,8
0,67,69,18
0,40,86,4
0,44,44,0
0,61,56,0
0,35,74,0
0,70,82,38
0,79,104,2
0,76,87,12
0,43,84,12
0,44,48,0
0,35,80,0
0,63,58,68
0,44,44,12
0,75,71,0
0,78,83,8
0,63,66,52
0,34,66,18
0,44,48,0
0,81,100,124
0,61,52,26
0,44,44,14
0,35,74,0
0,61,71,126
0,33,75,0
0,44,48,0
0,75,66,0
0,35,80,0
0,69,86,2
0,57,65,20
0,44,44,168
0,63,77,28
0,60,79,0
0,72,90,0
0,76,85,0
0,44,48,4
0,64,77,4
0,61,60,74
0,33,88,2
0,44,44,0
0,75,66,0
0,35,74,0
0,68,71,14
0,56,70,10
0,44,48,42
0,35,80,0
0,61,71,82
0,76,86,6
0,72,86,2
0,45,78,6
0,44,44,0
0,60,85,2
0,64,78,10
0,63,77,16
0,44,48,10
0,75,68,0
0,67,92,172
0,63,64,6
0,37,85,6
0,44,44,0
0,35,74,0
0,55,77,2
0,38,83,20
0,44,48,0
0,35,80,0
0,76,82,176
0,60,80,2
0,64,70,0
0,72,83,0
0,61,68,6
0,44,44,0
0,63,71,26
0,44,48,6
0,75,63,0
0,81,104,144
0,63,68,16
0,38,83,2
0,44,44,0
0,35,74,0
0,66,88,0
0,54,67,12
0,66,73,46
0,81,103,2
0,45,77,6
0,44,48,0
0,35,80,0
0,54,68,0
0,61,63,46
0,44,44,2
0,75,71,0
0,83,104,24
0,63,57,54
0,76,86,6
0,60,78,2
0,72,86,0
0,38,82,8
0,44,48,0
0,64,67,0
0,63,69,32
0,81,101,10
0,44,44,2
0,35,74,0
0,66,66,54
0,71,87,2
0,74,86,0
0,31,83,6
0,44,48,0
0,61,73,0
0,75,66,0
0,35,80,0
0,62,80,12
0,59,86,2
0,54,66,10
0,44,44,164
0,44,48,188
0,63,77,4
0,79,91,2
0,31,79,60
0,44,44,0
0,75,66,0
0,35,74,0
0,61,54,10
0,79,110,18
0,44,48,110
0,35,80,0
0,61,68,24
0,31,81,2
0,44,44,0
0,81,93,6
0,79,93,6
0,78,71,56
0,63,73,2
0,44,48,4
0,75,68,0
0,61,58,76
0,38,86,0
0,44,44,0
0,35,74,0
0,79,82,2
0,70,71,2
0,65,80,2
0,31,77,8
0,44,48,0
0,35,80,0
0,58,59,0
0,62,69,12
0,53,69,10
0,44,44,166
0,61,73,0
0,63,73,180
0,44,48,0
0,75,63,0
0,78,106,76
0,38,81,6
0,44,44,0
0,61,56,0
0,35,74,0
0,45,70,30
0,44,48,0
0,35,80,0
0,79,98,2
0,63,58,28
0,44,44,0
0,75,71,0
0,81,96,38
0,63,66,0
0,43,83,18
0,44,48,0
0,61,52,32
0,78,89,2
0,31,83,14
0,44,44,0
0,35,74,0
0,61,71,38
0,30,63,0
0,44,48,0
0,75,66,0
0,35,80,0
0,58,72,188
0,63,86,0
0,66,83,0
0,44,44,0
0,52,82,8
0,63,77,58
0,44,48,4
0,58,74,174
0,62,91,2
0,66,77,0
0,61,60,10
0,30,80,2
0,44,44,0
0,75,66,0
0,35,74,0
0,52,78,6
0,44,48,52
0,35,80,0
0,61,86,162
0,61,71,8
0,58,74,2
0,66,83,0
0,42,73,14
0,44,44,0
0,52,76,4
0,63,77,56
0,33,74,10
0,44,48,0
0,75,68,0
0,66,106,34
0,63,64,8
0,34,61,6
0,44,44,0
0,35,74,0
0,51,73,0
0,57,79,2
0,35,75,30
0,44,48,0
0,35,80,0
0,78,111,180
0,61,68,4
0,44,44,0
0,63,71,8
0,81,91,0
0,44,48,6
0,75,63,0
0,80,71,0
0,63,68,8
0,39,66,2
0,44,44,0
0,35,74,0
0,79,90,0
0,42,64,8
0,44,48,0
0,35,80,0
0,78,83,12
0,61,63,2
0,44,44,2
0,75,71,0
0,63,57,56
0,35,75,4
0,44,48,0
0,78,80,148
0,63,69,24
0,44,44,12
0,35,74,0
0,69,89,114
0,57,80,22
0,28,80,2
0,44,48,0
0,61,73,0
0,75,66,0
0,35,80,0
0,74,87,12
0,44,44,16
0,78,69,86
0,66,62,12
0,74,87,0
0,62,80,0
0,74,85,4
0,44,48,2
0,63,77,4
0,68,75,20
0,28,87,12
0,44,44,0
0,75,66,0
0,35,74,0
0,56,63,6
0,74,96,2
0,61,54,2
0,44,48,86
0,35,80,0
0,61,68,186
0,40,92,2
0,44,44,0
0,71,82,2
0,63,73,4
0,74,87,2
0,44,48,0
0,75,68,0
0,76,97,34
0,61,58,14
0,40,87,0
0,44,44,0
0,35,74,0
0,76,101,64
0,72,92,26
0,77,91,0
0,34,66,10
0,44,48,0
0,35,80,0
0,62,89,2
0,56,68,0
0,67,84,0
0,77,98,10
0,76,90,22
0,44,44,22
0,61,73,0
0,72,94,24
0,77,90,0
0,62,87,2
0,74,95,8
0,56,63,6
0,67,78,0
0,63,73,4
0,44,48,0
0,75,63,0
0,68,75,16
0,34,74,12
0,44,44,0
0,61,56,0
0,35,74,0
0,61,71,6
0,72,93,0
0,60,83,2
0,65,80,0
0,77,86,0
0,67,85,6
0,55,80,8
0,33,73,20
0,44,48,0
0,35,80,0
0,63,58,2
0,65,80,16
0,60,86,0
0,72,93,0
0,77,88,2
0,61,67,2
0,65,82,0
0,44,44,2
0,75,71,0
0,55,84,6
0,63,66,36
0,37,75,18
0,44,48,0
0,69,84,162
0,62,85,2
0,74,96,0
0,61,52,4
0,60,87,4
0,64,88,2
0,44,44,8
0,35,74,0
0,53,73,4
0,57,70,0
0,61,71,174
0,38,90,0
0,44,48,0
0,75,66,0
0,35,80,0
0,44,44,188
0,70,88,0
0,63,77,0
0,45,77,4
0,44,48,0
0,64,80,80
0,71,96,0
0,53,77,14
0,59,84,0
0,61,60,2
0,31,87,2
0,44,44,0
0,75,66,0
0,35,74,0
0,44,48,40
0,35,80,0
0,71,86,128
0,74,93,0
0,59,87,12
0,79,86,0
0,64,83,2
0,53,78,10
0,61,71,18
0,36,87,14
0,44,44,0
0,63,77,46
0,44,48,10
0,75,68,0
0,72,86,130
0,60,80,2
0,69,74,0
0,76,82,0
0,64,77,2
0,53,74,10
0,63,64,34
0,38,83,6
0,44,44,0
0,35,74,0
0,44,48,32
0,35,80,0
0,69,82,136
0,72,94,0
0,76,91,0
0,60,86,2
0,64,82,0
0,53,78,22
0,61,68,24
0,41,83,0
0,44,44,0
0,63,71,64
0,44,48,6
0,75,63,0
0,59,82,148
0,64,80,0
0,71,86,0
0,79,91,12
0,53,75,12
0,63,68,10
0,38,89,2
0,44,44,0
0,35,74,0
0,71,89,46
0,59,87,2
0,64,86,0
0,79,94,0
0,53,81,12
0,31,79,16
0,44,48,0
0,35,80,0
0,61,63,186
0,44,44,2
0,75,71,0
0,71,107,0
0,63,57,40
0,31,87,2
0,44,48,0
0,74,98,2
0,63,69,54
0,73,91,8
0,44,44,4
0,35,74,0
0,38,68,30
0,44,48,0
0,61,73,0
0,75,66,0
0,35,80,0
0,62,83,2
0,66,88,0
0,61,95,20
0,69,85,14
0,44,44,152
0,44,48,188
0,63,77,4
0,38,81,6
0,44,44,0
0,75,66,0
0,35,74,0
0,59,89,2
0,61,54,8
0,61,83,62
0,45,74,2
0,44,48,0
0,35,80,0
0,61,68,186
0,44,44,2
0,63,73,4
0,44,48,4
0,75,68,0
0,66,79,46
0,61,58,38
0,38,77,0
0,44,44,0
0,35,74,0
0,67,87,14
0,76,92,2
0,34,63,4
0,44,48,0
0,35,80,0
0,64,90,6
0,44,44,60
0,61,73,0
0,73,83,14
0,70,87,12
0,61,69,0
0,63,73,44
0,44,48,0
0,75,63,0
0,73,77,78
0,70,88,60
0,37,70,6
0,44,44,0
0,61,56,0
0,35,74,0
0,58,64,2
0,76,98,4
0,40,79,4
0,44,48,0
0,35,80,0
0,63,58,10
0,67,82,4
0,55,78,12
0,44,44,6
0,75,71,0
0,79,87,64
0,63,66,44
0,43,79,18
0,44,48,0
0,78,74,32
0,61,52,16
0,44,44,14
0,35,74,0
0,80,79,72
0,61,71,18
0,33,72,0
0,44,48,0
0,75,66,0
0,35,80,0
0,81,79,2
0,67,87,6
0,57,78,2
0,44,44,126
0,63,77,180
0,44,48,4
0,61,60,186
0,35,85,2
0,44,44,0
0,75,66,0
0,35,74,0
0,36,85,52
0,44,48,0
0,35,80,0
0,69,99,58
0,61,71,2
0,37,80,14
0,44,44,0
0,63,77,92
0,60,68,2
0,44,48,4
0,75,68,0
0,71,86,12
0,63,64,50
0,38,76,6
0,44,44,0
0,35,74,0
0,62,70,30
0,72,90,22
0,44,48,10
0,35,80,0
0,54,59,6
0,81,87,148
0,61,68,30
0,44,44,0
0,81,103,104
0,63,71,14
0,44,48,6
0,75,63,0
0,81,101,94
0,63,68,26
0,38,91,2
0,44,44,0
0,35,74,0
0,81,100,76
0,74,77,0
0,44,48,0
0,35,80,0
0,61,63,22
0,45,90,2
0,44,44,0
0,75,71,0
0,83,99,56
0,63,57,22
0,44,48,4
0,76,89,114
0,81,89,8
0,63,69,6
0,38,86,12
0,44,44,0
0,35,74,0
0,78,75,42
0,31,84,2
0,44,48,0
0,61,73,0
0,75,66,0
0,35,80,0
0,62,86,6
0,59,85,2
0,81,108,10
0,57,80,0
0,44,44,170
0,44,48,2
0,63,77,4
0,79,89,0
0,31,85,72
0,44,44,0
0,75,66,0
0,35,74,0
0,61,54,10
0,79,96,26
0,44,48,110
0,35,80,0
0,61,68,26
0,38,93,2
0,44,44,0
0,81,87,0
0,79,91,58
0,78,74,62
0,63,73,10
0,44,48,4
0,75,68,0
0,78,95,86
0,61,58,18
0,79,91,2
0,31,69,0
0,44,44,0
0,35,74,0
0,58,49,52
0,62,68,10
0,77,85,0
0,31,91,6
0,44,48,0
0,35,80,0
0,53,62,4
0,57,61,10
0,44,44,174
0,61,73,0
0,74,85,100
0,63,73,6
0,44,48,0
0,75,63,0
0,78,84,22
0,38,79,16
0,44,44,0
0,61,56,0
0,35,74,0
0,70,66,10
0,79,94,54
0,45,83,0
0,44,48,0
0,35,80,0
0,63,58,6
0,43,75,22
0,44,44,0
0,75,71,0
0,81,91,46
0,63,66,4
0,38,75,14
0,44,48,0
0,81,99,14
0,61,52,20
0,31,75,14
0,44,44,0
0,35,74,0
0,78,67,48
0,61,71,2
0,30,67,0
0,44,48,0
0,75,66,0
0,35,80,0
0,63,84,174
0,66,82,0
0,58,82,10
0,44,44,4
0,52,82,14
0,63,77,50
0,44,48,4
0,62,92,70
0,66,74,0
0,58,71,2
0,61,60,10
0,32,83,2
0,44,44,0
0,75,66,0
0,35,74,0
0,52,80,6
0,44,48,30
0,35,80,0
0,61,71,170
0,61,78,0
0,66,97,0
0,58,75,2
0,33,77,12
0,44,44,0
0,52,75,6
0,63,77,26
0,44,48,10
0,75,68,0
0,63,64,38
0,34,70,6
0,44,44,0
0,35,74,0
0,57,86,12
0,51,78,2
0,35,83,6
0,44,48,0
0,35,80,0
0,78,104,184
0,61,68,0
0,44,44,0
0,63,71,56
0,81,95,4
0,44,48,2
0,75,63,0
0,80,78,62
0,63,68,16
0,35,91,2
0,44,44,0
0,35,74,0
0,79,93,74
0,44,48,6
0,35,80,0
0,61,63,50
0,42,83,2
0,44,44,0
0,75,71,0
0,78,80,0
0,63,57,50
0,44,48,8
0,78,100,172
0,63,69,0
0,35,87,12
0,44,44,0
0,35,74,0
0,57,82,66
0,69,100,0
0,28,83,10
0,44,48,0
0,61,73,0
0,75,66,0
0,35,80,0
0,74,85,34
0,44,44,10
0,74,93,10
0,66,58,2
0,78,71,0
0,62,80,0
0,74,91,2
0,42,74,8
0,44,48,0
0,63,77,4
0,68,75,2
0,74,95,4
0,40,78,18
0,44,44,0
0,75,66,0
0,35,74,0
0,61,54,10
0,56,69,2
0,44,48,32
0,35,80,0
0,78,74,146
0,74,94,12
0,61,68,18
0,35,85,2
0,44,44,0
0,71,83,2
0,66,67,18
0,62,80,0
0,74,93,10
0,63,73,16
0,44,48,4
0,75,68,0
0,76,90,38
0,68,69,8
0,61,58,20
0,28,83,0
0,44,44,0
0,35,74,0
0,76,91,76
0,72,92,36
0,77,93,0
0,77,97,12
0,62,86,0
0,67,78,0
0,56,68,2
0,34,72,8
0,44,48,0
0,35,80,0
0,76,91,54
0,44,44,16
0,61,73,0
0,74,87,54
0,72,96,6
0,77,86,16
0,56,69,2
0,62,85,0
0,67,77,0
0,63,73,6
0,44,48,0
0,75,63,0
0,68,72,12
0,34,77,2
0,44,44,0
0,61,56,0
0,35,74,0
0,67,97,30
0,61,69,10
0,72,99,0
0,77,86,16
0,55,80,2
0,60,80,0
0,65,79,0
0,33,75,6
0,44,48,0
0,35,80,0
0,68,80,16
0,63,58,24
0,44,44,22
0,75,71,0
0,60,80,12
0,61,68,2
0,65,77,0
0,74,96,0
0,55,78,12
0,67,85,18
0,65,76,2
0,63,66,24
0,35,74,18
0,44,48,0
0,61,52,12
0,62,85,4
0,74,87,2
0,37,66,8
0,44,44,0
0,35,74,0
0,53,78,0
0,60,80,0
0,64,83,0
0,57,70,2
0,61,71,60
0,38,77,0
0,44,48,0
0,75,66,0
0,35,80,0
0,44,44,188
0,63,77,16
0,44,48,4
0,61,60,38
0,31,92,2
0,44,44,0
0,75,66,0
0,35,74,0
0,44,48,78
0,35,80,0
0,62,85,104
0,61,71,6
0,31,86,14
0,44,44,0
0,59,99,2
0,53,89,2
0,64,102,0
0,67,95,22
0,74,94,2
