track,note,velocity,time
1,47,100,12360
1,47,0,180
1,46,100,0
1,46,0,60
1,44,100,0
1,44,0,180
1,41,100,0
1,41,0,60
1,39,100,0
1,39,0,180
1,36,100,0
1,36,0,60
1,34,100,0
1,34,0,60
1,32,100,0
1,32,0,60
1,27,100,0
1,27,0,60
1,29,100,60
1,29,0,75
1,29,100,525
1,29,0,75
1,29,100,525
1,29,0,75
1,29,100,1725
1,29,0,75
1,29,100,525
1,29,0,75
1,29,100,525
1,29,0,75
1,30,100,1005
1,30,0,40
1,30,100,80
1,30,0,40
1,30,100,80
1,30,0,40
1,30,100,80
1,30,0,40
1,30,100,80
1,30,0,40
1,30,100,80
1,30,0,40
1,30,100,80
1,30,0,40
1,30,100,80
1,30,0,40
1,30,100,80
1,30,0,40
1,30,100,80
1,30,0,40
1,30,100,80
1,30,0,40
1,30,100,80
1,30,0,40
1,30,100,80
1,30,0,40
1,30,100,80
1,30,0,40
1,30,100,80
1,30,0,40
1,30,100,80
1,30,0,40
1,30,100,80
1,30,0,40
1,30,100,80
1,30,0,40
1,30,100,80
1,30,0,40
1,30,100,80
1,30,0,40
1,30,100,80
1,30,0,40
1,30,100,80
1,30,0,40
1,30,100,80
1,30,0,40
1,30,100,80
1,30,0,40
1,30,100,80
1,30,0,40
1,30,100,80
1,30,0,40
1,30,100,80
1,30,0,40
1,30,100,80
1,30,0,40
1,30,100,80
1,30,0,40
1,30,100,80
1,30,0,40
1,30,100,80
1,30,0,40
1,30,100,80
1,30,0,40
1,30,100,80
1,30,0,40
1,30,100,80
1,30,0,40
1,30,100,80
1,30,0,40
1,30,100,80
1,30,0,40
1,30,100,80
1,30,0,40
1,30,100,80
1,30,0,40
1,30,100,80
1,30,0,40
1,30,100,80
1,30,0,40
1,30,100,80
1,30,0,40
1,30,100,80
1,30,0,40
1,30,100,80
1,30,0,40
1,30,100,80
1,30,0,40
1,30,100,80
1,30,0,40
1,30,100,80
1,30,0,40
1,30,100,80
1,30,0,40
1,30,100,80
1,30,0,40
1,30,100,80
1,30,0,40
1,30,100,80
1,30,0,40
1,30,100,80
1,30,0,40
1,30,100,80
1,30,0,40
1,30,100,80
1,30,0,40
1,30,100,80
1,30,0,40
1,30,100,80
1,30,0,40
1,30,100,80
1,30,0,40
1,30,100,80
1,30,0,40
1,30,100,80
1,30,0,40
1,30,100,80
1,30,0,40
1,30,100,80
1,30,0,40
1,32,100,80
1,32,0,40
1,32,100,80
1,32,0,40
1,32,100,80
1,32,0,40
1,32,100,80
1,32,0,40
1,32,100,80
1,32,0,40
1,32,100,80
1,32,0,40
1,32,100,80
1,32,0,40
1,32,100,80
1,32,0,40
1,32,100,80
1,32,0,40
1,32,100,80
1,32,0,40
1,32,100,80
1,32,0,40
1,32,100,80
1,32,0,40
1,32,100,80
1,32,0,40
1,32,100,80
1,32,0,40
1,32,100,80
1,32,0,40
1,32,100,80
1,32,0,40
1,32,100,80
1,32,0,40
1,32,100,80
1,32,0,40
1,32,100,80
1,32,0,40
1,32,100,80
1,32,0,40
1,32,100,80
1,32,0,40
1,32,100,80
1,32,0,40
1,33,100,80
1,33,0,40
1,33,100,80
1,33,0,40
1,33,100,80
1,33,0,40
1,33,100,80
1,33,0,40
1,33,100,80
1,33,0,40
1,33,100,80
1,33,0,40
1,33,100,80
1,33,0,40
1,33,100,80
1,33,0,40
1,33,100,80
1,33,0,40
1,33,100,80
1,33,0,40
1,33,100,80
1,33,0,40
1,33,100,80
1,33,0,40
1,33,100,80
1,33,0,40
1,33,100,80
1,33,0,40
1,33,100,80
1,33,0,40
1,33,100,80
1,33,0,40
1,35,100,80
1,35,0,40
1,35,100,80
1,35,0,40
1,35,100,80
1,35,0,40
1,35,100,80
1,35,0,40
1,35,100,80
1,35,0,40
1,35,100,80
1,35,0,40
1,35,100,80
1,35,0,40
1,35,100,80
1,35,0,40
1,35,100,80
1,35,0,40
1,35,100,80
1,35,0,40
1,35,100,80
1,35,0,40
1,35,100,80
1,35,0,40
1,35,100,80
1,35,0,40
1,35,100,80
1,35,0,40
1,35,100,80
1,35,0,40
1,35,100,80
1,35,0,40
1,25,100,80
1,25,0,360
1,25,100,60
1,25,0,360
1,25,100,60
1,25,0,120
1,25,100,120
1,25,0,120
1,25,100,120
1,25,0,120
1,25,100,120
1,25,0,120
1,27,100,120
1,27,0,360
1,27,100,60
1,27,0,360
1,27,100,60
1,27,0,120
1,27,100,120
1,27,0,120
1,27,100,120
1,27,0,120
1,27,100,120
1,27,0,120
1,28,100,120
1,28,0,360
1,28,100,60
1,28,0,360
1,28,100,60
1,28,0,120
1,28,100,120
1,28,0,120
1,28,100,120
1,28,0,120
1,28,100,120
1,28,0,120
1,38,100,120
1,38,0,30
1,38,100,0
1,38,0,30
1,38,100,0
1,38,0,30
1,26,100,30
1,26,0,50
1,26,100,10
1,26,0,50
1,38,100,10
1,38,0,90
1,39,100,30
1,39,0,90
1,36,100,0
1,36,0,90
1,38,100,0
1,38,0,60
1,26,100,0
1,26,0,50
1,26,100,10
1,26,0,50
1,38,100,10
1,38,0,90
1,39,100,30
1,39,0,90
1,36,100,0
1,36,0,90
1,38,100,0
1,38,0,60
1,26,100,0
1,26,0,50
1,26,100,10
1,26,0,50
1,38,100,10
1,38,0,90
1,39,100,30
1,39,0,90
1,36,100,0
1,36,0,90
1,38,100,0
1,38,0,60
1,26,100,0
1,26,0,50
1,26,100,10
1,26,0,50
1,38,100,10
1,38,0,90
1,39,100,30
1,39,0,90
1,36,100,0
1,36,0,90
1,38,100,0
1,38,0,60
1,26,100,0
1,26,0,50
1,26,100,10
1,26,0,50
1,38,100,10
1,38,0,90
1,39,100,30
1,39,0,90
1,36,100,0
1,36,0,90
1,38,100,0
1,38,0,60
1,26,100,0
1,26,0,50
1,26,100,10
1,26,0,50
1,38,100,10
1,38,0,90
1,39,100,30
1,39,0,90
1,36,100,0
1,36,0,90
1,38,100,0
1,38,0,60
1,26,100,0
1,26,0,50
1,26,100,10
1,26,0,50
1,38,100,10
1,38,0,90
1,39,100,30
1,39,0,90
1,36,100,0
1,36,0,90
1,38,100,0
1,38,0,60
1,26,100,0
1,26,0,50
1,26,100,10
1,26,0,50
1,38,100,10
1,38,0,90
1,39,100,30
1,39,0,90
1,36,100,0
1,36,0,90
1,38,100,0
1,38,0,60
1,26,100,0
1,26,0,50
1,26,100,10
1,26,0,50
1,38,100,10
1,38,0,90
1,39,100,30
1,39,0,90
1,36,100,0
1,36,0,90
1,38,100,0
1,38,0,60
1,26,100,0
1,26,0,50
1,26,100,10
1,26,0,50
1,38,100,10
1,38,0,90
1,39,100,30
1,39,0,90
1,36,100,0
1,36,0,90
1,38,100,0
1,38,0,60
1,26,100,0
1,26,0,50
1,26,100,10
1,26,0,50
1,38,100,10
1,38,0,90
1,39,100,30
1,39,0,90
1,36,100,0
1,36,0,90
1,38,100,0
1,38,0,60
1,26,100,0
1,26,0,480
1,24,100,0
1,24,0,480
1,22,100,0
1,22,0,480
1,23,100,0
1,23,0,480
1,29,100,0
1,29,0,480
1,32,100,0
1,32,0,480
1,27,100,0
1,27,0,480
1,33,100,0
1,33,0,480
1,26,110,0
1,26,0,120
1,26,110,0
1,26,0,60
1,26,110,0
1,26,0,120
1,26,110,60
1,26,0,60
1,26,110,0
1,26,0,60
1,26,110,0
1,26,0,120
1,26,110,0
1,26,0,60
1,26,110,0
1,26,0,120
1,26,110,60
1,26,0,60
1,26,110,0
1,26,0,60
1,26,110,0
1,26,0,120
1,26,110,0
1,26,0,60
1,26,110,0
1,26,0,120
1,26,110,60
1,26,0,60
1,26,110,0
1,26,0,60
1,32,56,0
1,32,0,120
1,32,56,0
1,32,0,120
1,32,56,0
1,32,0,60
1,32,56,0
1,32,0,60
1,32,56,240
1,32,0,120
1,32,56,0
1,32,0,120
1,32,56,0
1,32,0,60
1,32,56,0
1,32,0,60
2,62,80,1560
2,62,0,120
2,61,80,0
2,61,0,120
2,62,80,0
2,62,0,120
2,64,80,0
2,64,0,450
2,62,80,0
2,62,0,120
2,62,80,0
2,62,0,120
2,69,80,0
2,69,0,90
2,69,80,0
2,69,0,120
2,68,80,0
2,68,0,240
2,62,80,120
2,62,0,60
2,61,80,0
2,61,0,120
2,62,80,0
2,62,0,120
2,64,80,0
2,64,0,450
2,62,80,0
2,62,0,120
2,62,80,0
2,62,0,120
2,69,80,0
2,69,0,90
2,69,80,0
2,69,0,120
2,68,80,0
2,68,0,240
2,62,80,120
2,62,0,60
2,61,80,0
2,61,0,120
2,62,80,0
2,62,0,120
2,64,80,0
2,64,0,450
2,65,80,0
2,65,0,120
2,65,80,0
2,65,0,120
2,72,80,0
2,72,0,90
2,72,80,0
2,72,0,120
2,71,80,0
2,71,0,240
2,65,80,120
2,65,0,60
2,64,80,0
2,64,0,120
2,65,80,0
2,65,0,120
2,67,80,0
2,67,0,450
2,65,80,0
2,65,0,120
2,65,80,0
2,65,0,120
2,72,80,0
2,72,0,90
2,72,80,0
2,72,0,120
2,71,80,0
2,71,0,360
2,69,100,0
2,69,0,150
2,70,100,0
2,70,0,60
2,68,100,0
2,68,0,180
2,65,100,0
2,65,0,60
2,63,100,0
2,63,0,180
2,60,100,0
2,60,0,60
2,58,100,0
2,58,0,60
2,56,100,0
2,56,0,60
2,51,100,0
2,51,0,60
2,77,100,60
2,77,0,75
2,77,100,525
2,77,0,75
2,77,100,525
2,77,0,75
2,77,100,1725
2,77,0,75
2,77,100,525
2,77,0,75
2,77,100,525
2,77,0,75
2,79,100,10665
2,74,100,0
2,74,0,60
2,79,0,0
2,79,100,0
2,74,100,0
2,74,0,60
2,79,0,0
2,79,100,0
2,74,100,0
2,74,0,60
2,79,0,0
2,79,100,0
2,74,100,0
2,74,0,60
2,79,0,0
2,79,100,60
2,73,100,0
2,73,0,60
2,79,0,0
2,79,100,120
2,74,100,0
2,74,0,60
2,79,0,0
2,79,100,0
2,74,100,0
2,74,0,60
2,79,0,0
2,79,100,0
2,74,100,0
2,74,0,60
2,79,0,0
2,79,100,0
2,74,100,0
2,74,0,60
2,79,0,0
2,79,100,60
2,73,100,0
2,73,0,60
2,79,0,0
2,79,100,120
2,74,100,0
2,74,0,60
2,79,0,0
2,79,100,0
2,74,100,0
2,74,0,60
2,79,0,0
2,79,100,0
2,74,100,0
2,74,0,60
2,79,0,0
2,79,100,0
2,74,100,0
2,74,0,60
2,79,0,0
2,79,100,60
2,73,100,0
2,73,0,60
2,79,0,0
2,79,100,0
2,76,100,0
2,76,0,90
2,79,0,0
2,79,100,30
2,74,100,0
2,74,0,60
2,79,0,0
2,79,100,0
2,74,100,0
2,74,0,60
2,79,0,0
2,79,100,0
2,74,100,0
2,74,0,60
2,79,0,0
2,79,100,0
2,74,100,0
2,74,0,60
2,79,0,0
2,79,100,60
2,73,100,0
2,73,0,60
2,79,0,0
2,79,100,120
2,74,100,0
2,74,0,60
2,79,0,0
2,79,100,0
2,74,100,0
2,74,0,60
2,79,0,0
2,79,100,0
2,74,100,0
2,74,0,60
2,79,0,0
2,79,100,0
2,74,100,0
2,74,0,60
2,79,0,0
2,79,100,60
2,73,100,0
2,73,0,60
2,79,0,0
2,79,100,120
2,74,100,0
2,74,0,60
2,79,0,0
2,79,100,0
2,74,100,0
2,74,0,60
2,79,0,0
2,79,100,0
2,74,100,0
2,74,0,60
2,79,0,0
2,79,100,0
2,74,100,0
2,74,0,60
2,79,0,0
2,79,100,60
2,73,100,0
2,73,0,60
2,79,0,0
2,79,100,120
2,74,100,0
2,74,0,60
2,79,0,0
2,79,100,0
2,74,100,0
2,74,0,60
2,79,0,0
2,79,100,0
2,74,100,0
2,74,0,60
2,79,0,0
2,79,100,0
2,74,100,0
2,74,0,60
2,79,0,0
2,79,100,60
2,73,100,0
2,73,0,60
2,79,0,0
2,79,100,0
2,76,100,0
2,76,0,90
2,79,0,0
2,79,100,30
2,74,100,0
2,74,0,60
2,79,0,0
2,79,100,0
2,74,100,0
2,74,0,60
2,79,0,0
2,79,100,0
2,74,100,0
2,74,0,60
2,79,0,0
2,79,100,0
2,74,100,0
2,74,0,60
2,79,0,0
2,79,100,60
2,73,100,0
2,73,0,60
2,79,0,0
2,79,100,120
2,74,100,0
2,74,0,60
2,79,0,0
2,79,100,0
2,74,100,0
2,74,0,60
2,79,0,0
2,79,100,0
2,74,100,0
2,74,0,60
2,79,0,0
2,50,100,5400
2,50,0,30
2,50,100,0
2,50,0,30
2,50,100,0
2,50,0,30
2,38,100,30
2,38,0,50
2,38,100,10
2,38,0,50
2,50,100,10
2,50,0,40
2,50,100,20
2,50,0,8
2,50,100,22
2,50,0,8
2,51,100,22
2,48,100,30
2,48,0,8
2,51,0,22
2,48,100,0
2,48,0,8
2,48,100,22
2,48,0,60
2,50,100,30
2,50,0,60
2,38,100,0
2,38,0,50
2,38,100,10
2,38,0,50
2,50,100,10
2,50,0,40
2,50,100,20
2,50,0,8
2,50,100,22
2,50,0,8
2,51,100,22
2,48,100,30
2,48,0,8
2,51,0,22
2,48,100,0
2,48,0,8
2,48,100,22
2,48,0,60
2,50,100,30
2,50,0,60
2,38,100,0
2,38,0,50
2,38,100,10
2,38,0,50
2,50,100,10
2,50,0,40
2,50,100,20
2,50,0,8
2,50,100,22
2,50,0,8
2,51,100,22
2,48,100,30
2,48,0,8
2,51,0,22
2,48,100,0
2,48,0,8
2,48,100,22
2,48,0,60
2,50,100,30
2,50,0,60
2,38,100,0
2,38,0,50
2,38,100,10
2,38,0,50
2,50,100,10
2,50,0,40
2,50,100,20
2,50,0,8
2,50,100,22
2,50,0,8
2,51,100,22
2,48,100,30
2,48,0,8
2,51,0,22
2,48,100,0
2,48,0,8
2,48,100,22
2,48,0,60
2,50,100,30
2,50,0,60
2,38,100,0
2,38,0,50
2,38,100,10
2,38,0,50
2,50,100,10
2,50,0,40
2,50,100,20
2,50,0,8
2,50,100,22
2,50,0,8
2,51,100,22
2,48,100,30
2,48,0,8
2,51,0,22
2,48,100,0
2,48,0,8
2,48,100,22
2,48,0,60
2,50,100,30
2,50,0,60
2,38,100,0
2,38,0,50
2,38,100,10
2,38,0,50
2,50,100,10
2,50,0,40
2,50,100,20
2,50,0,8
2,50,100,22
2,50,0,8
2,51,100,22
2,48,100,30
2,48,0,8
2,51,0,22
2,48,100,0
2,48,0,8
2,48,100,22
2,48,0,60
2,50,100,30
2,50,0,60
2,38,100,0
2,38,0,50
2,38,100,10
2,38,0,50
2,50,100,10
2,50,0,40
2,50,100,20
2,50,0,8
2,50,100,22
2,50,0,8
2,51,100,22
2,48,100,30
2,48,0,8
2,51,0,22
2,48,100,0
2,48,0,8
2,48,100,22
2,48,0,60
2,50,100,30
2,50,0,60
2,38,100,0
2,38,0,50
2,38,100,10
2,38,0,50
2,50,100,10
2,50,0,40
2,50,100,20
2,50,0,8
2,50,100,22
2,50,0,8
2,51,100,22
2,48,100,30
2,48,0,8
2,51,0,22
2,48,100,0
2,48,0,8
2,48,100,22
2,48,0,60
2,50,100,30
2,50,0,60
2,38,100,0
2,38,0,50
2,38,100,10
2,38,0,50
2,50,100,10
2,50,0,40
2,50,100,20
2,50,0,8
2,50,100,22
2,50,0,8
2,51,100,22
2,48,100,30
2,48,0,8
2,51,0,22
2,48,100,0
2,48,0,8
2,48,100,22
2,48,0,60
2,50,100,30
2,50,0,60
2,38,100,0
2,38,0,50
2,38,100,10
2,38,0,50
2,50,100,10
2,50,0,40
2,50,100,20
2,50,0,8
2,50,100,22
2,50,0,8
2,51,100,22
2,48,100,30
2,48,0,8
2,51,0,22
2,48,100,0
2,48,0,8
2,48,100,22
2,48,0,60
2,50,100,30
2,50,0,60
2,38,100,0
2,38,0,50
2,38,100,10
2,38,0,50
2,50,100,10
2,50,0,40
2,50,100,20
2,50,0,8
2,50,100,22
2,50,0,8
2,51,100,22
2,48,100,30
2,48,0,8
2,51,0,22
2,48,100,0
2,48,0,8
2,48,100,22
2,48,0,60
