track,note,velocity,time
2,48,100,114
2,55,100,101
2,60,100,120
2,48,0,93
2,62,100,27
2,60,0,16
2,55,0,7
2,59,100,97
2,47,100,0
2,62,0,5
2,50,100,77
2,55,100,120
2,62,100,0
2,55,0,98
2,50,0,8
2,47,0,3
2,67,100,11
2,62,0,16
2,59,0,35
2,45,100,69
2,57,100,0
2,67,0,77
2,60,100,1
2,52,100,0
2,64,100,120
2,57,0,14
2,52,0,80
2,52,100,26
2,57,100,0
2,45,0,10
2,52,0,85
2,57,0,9
2,60,0,2
2,64,0,4
2,59,100,1
2,47,100,0
2,50,100,103
2,62,100,0
2,67,100,93
2,55,100,0
2,59,0,8
2,55,0,83
2,59,100,29
2,47,0,42
2,50,0,4
2,59,0,41
2,62,0,21
2,67,0,3
2,60,100,7
2,55,100,0
2,48,100,0
2,52,100,78
2,64,100,0
2,55,0,27
2,52,0,90
2,55,100,3
2,64,0,35
2,62,100,85
2,48,0,3
2,60,0,6
2,47,100,19
2,59,100,0
2,62,0,8
2,55,0,65
2,50,100,30
2,62,100,0
2,55,100,120
2,67,100,0
2,59,0,22
2,59,100,98
2,55,0,3
2,50,0,5
2,62,0,5
2,47,0,1
2,59,0,76
2,67,0,3
2,57,100,8
2,45,100,0
2,60,100,83
2,52,100,0
2,64,100,120
2,69,100,120
2,45,0,8
2,52,0,39
2,57,0,49
2,69,0,7
2,60,0,6
2,47,100,7
2,59,100,0
2,64,0,3
2,62,100,89
2,50,100,0
2,59,0,119
2,67,100,1
2,55,100,0
2,62,0,105
2,67,0,8
2,47,0,6
2,59,100,1
2,50,0,4
2,55,0,3
2,59,0,33
2,60,100,15
2,55,100,0
2,48,100,0
2,67,100,0
2,64,100,0
2,52,100,0
2,55,0,27
2,67,0,48
2,60,0,10
2,64,0,4
2,64,100,31
2,55,100,0
2,67,100,0
2,55,0,12
2,55,100,108
2,52,0,24
2,48,0,7
2,67,0,40
2,64,0,34
2,47,100,9
2,67,100,0
2,62,100,0
2,59,100,0
2,50,100,54
2,55,0,18
2,55,100,102
2,62,0,77
2,67,0,7
2,55,0,6
2,47,0,7
2,59,0,1
2,50,0,8
2,62,100,14
2,67,100,0
2,62,0,41
2,67,0,5
2,57,100,6
2,45,100,0
2,64,100,0
2,52,100,0
2,60,100,0
2,64,0,145
2,60,0,26
2,57,0,23
2,64,100,3
2,60,100,0
2,52,0,37
2,52,100,83
2,45,0,1
2,64,0,103
2,60,0,5
2,60,100,8
2,55,100,0
2,64,100,0
2,43,100,0
2,52,0,35
2,52,100,46
2,60,0,70
2,64,0,11
2,55,0,0
2,64,100,39
2,55,100,0
2,60,100,0
2,52,0,20
2,43,0,92
2,52,100,8
2,60,0,17
2,52,0,9
2,55,0,6
2,64,0,69
2,60,100,18
2,48,100,0
2,53,100,0
2,41,100,0
2,57,100,0
2,57,0,172
2,60,0,2
2,60,100,24
2,65,100,0
2,57,100,0
2,48,0,35
2,65,0,37
2,41,0,44
2,48,100,4
2,53,0,65
2,57,0,11
2,60,0,0
2,48,0,5
2,40,100,13
2,52,100,0
2,60,100,0
2,55,100,0
2,60,0,153
2,55,0,12
2,52,0,10
2,60,100,8
2,55,100,0
2,55,0,71
2,40,0,3
2,60,0,10
2,40,100,36
2,40,0,52
2,65,100,10
2,50,100,0
2,69,100,0
2,36,100,0
2,57,100,0
2,62,100,0
2,38,100,0
2,36,0,8
2,69,0,53
2,62,0,42
2,65,0,1
2,57,0,6
2,69,100,13
2,62,100,0
2,65,100,0
2,50,0,31
2,38,0,85
2,50,100,4
2,65,0,31
2,50,0,1
2,62,0,2
2,69,0,8
2,69,100,78
2,50,100,0
2,57,100,0
2,62,100,0
2,65,100,0
2,53,100,120
2,57,0,44
2,69,0,45
2,62,0,19
2,65,0,7
2,69,100,5
2,65,100,0
2,50,0,112
2,57,100,8
2,53,0,2
2,69,0,28
2,65,0,5
2,62,100,85
2,65,100,0
2,50,100,0
2,69,100,0
2,53,100,0
2,62,0,53
2,62,100,3
2,65,0,20
2,69,0,7
2,62,0,61
2,62,100,32
2,65,100,0
2,69,100,0
2,57,0,33
2,50,0,68
2,57,100,19
2,62,0,89
2,69,0,2
2,57,0,3
2,65,0,4
2,53,0,10
2,65,100,1
2,69,100,0
2,48,100,0
2,57,100,0
2,60,100,0
2,53,100,26
2,69,0,60
2,65,0,8
2,60,0,9
2,69,100,43
2,60,100,0
2,65,100,0
2,57,0,36
2,48,0,4
2,48,100,80
2,57,100,0
2,69,0,30
2,53,0,6
2,57,0,0
2,65,0,2
2,48,0,4
2,60,0,4
2,62,100,6
2,47,100,0
2,55,100,0
2,50,100,0
2,59,100,0
2,67,100,0
2,67,0,83
2,62,0,21
2,59,0,4
2,59,100,20
2,62,100,0
2,67,100,0
2,55,0,22
2,55,100,98
2,62,0,21
2,67,0,0
2,59,0,1
2,50,0,3
2,55,0,1
2,47,0,4
2,48,100,6
2,65,100,0
2,57,100,0
2,53,100,0
2,60,100,0
2,45,100,0
2,65,0,103
2,60,0,10
2,57,0,5
2,53,0,15
2,65,100,12
2,60,100,0
2,53,100,120
2,48,0,11
2,45,0,4
2,60,0,13
2,53,0,3
2,65,0,2
2,50,100,20
2,43,100,0
2,62,100,0
2,59,100,0
2,55,100,0
2,59,0,151
2,55,0,2
2,62,0,6
2,62,100,16
2,67,100,0
2,59,100,0
2,50,0,34
2,50,100,86
2,67,0,101
2,59,0,1
2,62,0,11
2,59,100,7
2,67,100,0
2,55,100,0
2,50,0,38
2,50,100,82
2,67,0,85
2,62,100,35
2,55,0,32
2,67,100,28
2,55,100,60
2,50,0,40
2,59,0,47
2,67,0,2
2,55,0,3
2,62,0,5
2,60,100,3
2,55,100,0
2,48,100,0
2,64,100,0
2,52,100,0
2,64,0,165
2,55,0,1
2,67,100,6
2,64,100,0
2,52,0,27
2,52,100,93
2,60,0,33
2,48,0,11
2,52,0,6
2,43,0,8
2,64,0,10
2,67,0,2
2,59,100,10
2,55,100,0
2,62,100,0
2,50,100,0
2,43,100,0
2,55,0,97
2,55,100,10
2,59,0,39
2,62,0,57
2,67,100,24
2,59,100,0
2,59,0,20
2,55,0,32
2,55,100,8
2,59,100,0
2,67,0,49
2,62,100,11
2,55,0,16
2,50,0,16
2,43,0,3
2,59,0,4
2,62,0,2
2,55,100,15
2,60,100,0
2,48,100,0
2,64,100,0
2,67,100,0
2,52,100,0
2,55,0,27
2,67,0,48
2,60,0,10
2,64,0,4
2,64,100,31
2,55,100,0
2,67,100,0
2,55,0,12
2,55,100,108
2,52,0,24
2,48,0,7
2,67,0,40
2,64,0,34
2,47,100,9
2,67,100,0
2,59,100,0
2,62,100,0
2,50,100,54
2,55,0,18
2,55,100,102
2,62,0,77
2,67,0,7
2,55,0,6
2,47,0,7
2,59,0,1
2,50,0,8
2,67,100,14
2,62,100,0
2,62,0,41
2,67,0,5
2,57,100,6
2,45,100,0
2,60,100,0
2,64,100,0
2,52,100,0
2,64,0,145
2,60,0,26
2,57,0,23
2,64,100,3
2,60,100,0
2,52,0,37
2,52,100,83
2,45,0,1
2,64,0,103
2,60,0,5
2,55,100,8
2,64,100,0
2,60,100,0
2,43,100,0
2,52,0,35
2,52,100,46
2,60,0,70
2,55,0,11
2,64,0,0
2,55,100,39
2,60,100,0
2,64,100,0
2,52,0,20
2,43,0,92
2,52,100,8
2,60,0,17
2,52,0,9
2,55,0,6
2,64,0,69
2,57,100,18
2,41,100,0
2,48,100,0
2,53,100,0
2,60,100,0
2,57,0,172
2,60,0,2
2,65,100,24
2,57,100,0
2,60,100,0
2,48,0,35
2,65,0,37
2,41,0,44
2,48,100,4
2,53,0,65
2,57,0,11
2,60,0,0
2,48,0,5
2,55,100,13
2,40,100,0
2,52,100,0
2,60,100,0
2,60,0,153
2,55,0,12
2,52,0,10
2,60,100,8
2,55,100,0
2,55,0,71
2,40,0,3
2,60,0,10
2,40,100,36
2,40,0,52
2,38,100,10
2,69,100,0
2,65,100,0
2,50,100,0
2,57,100,0
2,62,100,0
2,36,100,0
2,36,0,8
2,69,0,53
2,62,0,42
2,65,0,1
2,57,0,6
2,62,100,13
2,65,100,0
2,69,100,0
2,50,0,31
2,38,0,85
2,50,100,4
2,65,0,31
2,50,0,1
2,62,0,2
2,69,0,8
2,57,100,78
2,69,100,0
2,62,100,0
2,50,100,0
2,65,100,0
2,53,100,120
2,57,0,44
2,69,0,45
2,62,0,19
2,65,0,7
2,69,100,5
2,65,100,0
2,50,0,112
2,57,100,8
2,53,0,2
2,69,0,28
2,65,0,5
2,69,100,85
2,53,100,0
2,62,100,0
2,50,100,0
2,65,100,0
2,62,0,53
2,62,100,3
2,65,0,20
2,69,0,7
2,62,0,61
2,62,100,32
2,65,100,0
2,69,100,0
2,57,0,33
2,50,0,68
2,57,100,19
2,62,0,89
2,69,0,2
2,57,0,3
2,65,0,4
2,53,0,10
2,60,100,1
2,48,100,0
2,69,100,0
2,65,100,0
2,57,100,0
2,53,100,26
2,69,0,60
2,65,0,8
2,60,0,9
2,65,100,43
2,69,100,0
2,60,100,0
2,57,0,36
2,48,0,4
2,57,100,80
2,48,100,0
2,69,0,30
2,57,0,6
2,53,0,0
2,65,0,2
2,48,0,4
2,60,0,4
2,47,100,6
2,62,100,0
2,59,100,0
2,67,100,0
2,50,100,0
2,55,100,0
2,67,0,83
2,62,0,21
2,59,0,4
2,67,100,20
2,62,100,0
2,59,100,0
2,55,0,22
2,55,100,98
2,62,0,21
2,67,0,0
2,59,0,1
2,50,0,3
2,55,0,1
2,47,0,4
2,45,100,6
2,53,100,0
2,48,100,0
2,65,100,0
2,60,100,0
2,57,100,0
2,65,0,103
2,60,0,10
2,57,0,5
2,53,0,15
2,65,100,12
2,60,100,0
2,53,100,120
2,48,0,11
2,45,0,4
2,60,0,13
2,53,0,3
2,65,0,2
2,43,100,20
2,62,100,0
2,55,100,0
2,50,100,0
2,59,100,0
2,59,0,151
2,55,0,2
2,62,0,6
2,62,100,16
2,59,100,0
2,67,100,0
2,50,0,34
2,50,100,86
2,67,0,101
2,59,0,1
2,62,0,11
2,67,100,7
2,55,100,0
2,59,100,0
2,50,0,38
2,50,100,82
2,67,0,85
2,62,100,35
2,55,0,32
2,67,100,28
2,55,100,60
2,50,0,40
2,59,0,47
2,67,0,2
2,55,0,3
2,62,0,5
2,60,100,3
2,55,100,0
2,48,100,0
2,64,100,0
2,52,100,0
2,64,0,165
2,55,0,1
2,67,100,6
2,64,100,0
2,52,0,27
2,52,100,93
2,60,0,33
2,48,0,11
2,52,0,6
2,43,0,8
2,64,0,10
2,67,0,2
2,62,100,10
2,43,100,0
2,55,100,0
2,58,100,0
2,58,0,150
2,62,0,6
2,55,0,2
2,64,100,4
2,52,100,0
2,60,100,0
2,48,100,0
2,55,100,0
2,43,0,6
2,52,0,133
2,48,0,27
2,55,0,14
2,60,0,4
2,64,0,4
2,41,100,12
2,48,100,0
2,60,100,0
2,53,100,0
2,57,100,0
2,57,0,81
2,53,0,6
2,65,100,14
2,57,100,0
2,48,0,41
2,41,0,36
2,48,100,43
2,60,0,88
2,57,0,2
2,65,0,11
2,48,0,7
2,55,100,12
2,59,100,0
2,62,100,0
2,41,100,0
2,59,0,59
2,62,0,4
2,59,100,7
2,67,100,0
2,62,100,0
2,41,0,49
2,41,100,71
2,55,0,25
2,59,0,7
2,41,0,9
2,62,0,0
2,67,0,12
2,64,100,67
2,59,100,0
2,40,100,0
2,67,100,0
2,52,100,0
2,67,0,112
2,64,0,18
2,59,0,12
2,64,100,17
2,67,100,0
2,52,0,49
2,59,100,11
2,40,0,55
2,52,100,5
2,59,0,91
2,67,0,2
2,64,0,5
2,57,100,22
2,45,100,0
2,60,100,0
2,64,100,0
2,52,0,10
2,52,100,66
2,57,0,36
2,57,100,24
2,60,0,39
2,64,0,8
2,60,100,13
2,57,0,55
2,69,100,5
2,57,100,60
2,60,0,12
2,57,0,38
2,52,0,5
2,69,0,0
2,45,0,6
2,53,100,8
2,46,100,0
2,58,100,0
2,62,100,0
2,65,100,0
2,65,0,130
2,62,0,25
2,58,0,6
2,62,100,5
2,70,100,0
2,58,100,0
2,53,0,47
2,65,100,13
2,53,100,60
2,58,0,65
2,65,0,26
2,62,0,27
2,58,100,2
2,53,0,95
2,53,100,25
2,70,0,120
2,65,100,0
2,62,100,0
2,58,0,18
2,58,100,42
2,53,0,16
2,65,0,30
2,62,0,2
2,53,100,12
2,58,0,5
2,46,0,9
2,53,0,15
2,62,100,9
2,59,100,0
2,50,100,0
2,55,100,0
2,43,100,0
2,67,100,95
2,55,0,1
2,55,100,59
2,50,0,6
2,50,100,54
2,55,0,30
2,55,100,30
2,59,0,2
2,62,0,10
2,59,100,48
2,50,0,66
2,50,100,54
2,55,0,21
2,59,0,28
2,55,100,11
2,59,100,60
2,67,0,9
2,50,0,49
2,67,100,2
2,55,0,3
2,43,0,7
2,59,0,46
2,55,100,4
2,67,0,19
2,55,0,15
2,55,100,2
2,48,100,0
2,60,100,0
2,67,100,0
2,64,100,0
2,52,100,120
2,64,0,90
2,67,0,5
2,64,100,12
2,72,100,0
2,55,0,15
2,55,100,105
2,48,0,28
2,52,0,14
2,55,0,2
2,60,0,48
2,64,0,2
2,72,0,12
2,50,100,7
2,69,100,0
2,57,100,0
2,62,100,0
2,53,100,0
2,65,100,0
2,53,0,24
2,62,0,29
2,62,100,16
2,65,0,106
2,69,0,2
2,69,100,12
2,65,100,0
2,74,100,0
2,53,100,120
2,50,0,27
2,53,0,12
2,57,0,1
2,74,0,8
2,65,0,4
2,62,0,3
2,69,0,23
2,52,100,7
2,59,100,0
2,55,100,0
2,71,100,0
2,64,100,0
2,67,100,0
2,67,0,182
2,71,0,1
2,64,0,0
2,67,100,22
2,71,100,0
2,52,0,33
2,59,0,3
2,55,0,32
2,55,100,52
2,59,100,0
2,52,100,0
2,67,0,9
2,71,0,6
2,59,0,9
2,55,0,4
2,52,0,0
2,57,100,92
2,60,100,0
2,53,100,0
2,69,100,0
2,65,100,0
2,48,100,0
2,65,0,153
2,69,0,3
2,65,100,15
2,72,100,0
2,69,100,0
2,60,0,7
2,57,0,37
2,60,100,16
2,57,100,60
2,48,0,22
2,53,0,22
2,57,0,9
2,60,0,36
2,65,0,2
2,72,0,1
2,69,0,4
2,50,100,24
2,53,100,0
2,62,100,0
2,57,100,0
2,69,100,0
2,65,100,0
2,65,0,179
2,69,0,8
2,65,100,18
2,74,100,0
2,69,100,0
2,62,0,7
2,62,100,53
2,57,0,6
2,50,0,25
2,53,0,2
2,57,100,27
2,50,100,0
2,53,100,0
2,74,0,53
2,57,0,32
2,50,0,4
2,53,0,3
2,62,0,1
2,65,0,4
2,69,0,5
2,65,100,18
2,69,100,0
2,53,100,0
2,57,100,0
2,60,100,0
2,48,100,0
2,60,0,155
2,65,0,24
2,65,100,11
2,69,0,13
2,57,0,22
2,60,100,25
2,57,100,60
2,65,0,9
2,48,0,15
2,60,0,2
2,57,0,2
2,53,0,2
2,59,100,90
2,43,100,0
2,62,100,0
2,67,100,0
2,50,100,73
2,62,0,20
2,59,0,1
2,55,100,99
2,67,0,27
2,59,100,33
2,62,100,60
2,59,0,106
2,62,0,3
2,59,100,11
2,67,100,0
2,50,0,32
2,50,100,88
2,55,0,72
2,55,100,48
2,67,0,36
2,62,100,24
2,43,0,1
2,55,0,9
2,50,0,10
2,55,100,40
2,55,0,26
2,62,0,3
2,59,0,5
2,64,100,86
2,67,100,0
2,55,100,0
2,60,100,0
2,48,100,0
2,52,100,88
2,64,0,96
2,67,0,1
2,64,100,23
2,72,100,0
2,55,0,20
2,52,0,100
2,55,100,0
2,48,0,11
2,55,0,36
2,60,0,18
2,64,0,23
2,72,0,5
2,50,100,2
2,69,100,0
2,62,100,0
2,57,100,0
2,65,100,0
2,53,100,92
2,65,0,91
2,69,0,1
2,65,100,28
2,74,100,0
2,69,100,0
2,57,0,27
2,50,0,24
2,53,0,36
