track,note,velocity,time
1,50,60,8448
1,50,61,18
1,50,76,14
1,38,85,14
1,38,88,24
1,38,110,28
1,38,113,50
1,38,82,20
1,45,86,2
1,38,94,10
1,38,90,58
1,38,90,12
1,45,101,8
1,38,101,16
1,38,85,52
1,28,86,32
1,40,113,6
1,33,94,10
1,33,88,28
1,40,90,16
1,40,86,22
1,45,78,20
1,40,83,128
1,45,75,2
1,38,104,8
1,38,88,2
1,45,92,12
1,38,92,14
1,38,97,88
1,33,94,34
1,38,92,10
1,38,90,32
1,28,97,50
1,28,88,24
1,33,88,8
1,33,88,20
1,40,94,16
1,40,86,42
1,45,78,6
1,42,104,74
1,35,94,18
1,40,88,50
1,40,71,34
1,45,88,64
1,43,85,40
1,42,86,50
1,35,92,46
1,40,86,36
1,45,92,48
1,41,113,96
1,38,110,16
1,31,110,6
1,36,110,16
1,38,113,34
1,38,113,56
1,38,82,20
1,45,86,2
1,38,94,10
1,38,90,58
1,38,90,12
1,45,101,8
1,38,101,16
1,38,85,52
1,28,86,32
1,40,113,6
1,33,94,10
1,33,88,28
1,40,90,16
1,40,86,22
1,45,78,20
1,40,83,128
1,45,75,2
1,38,104,8
1,38,88,2
1,45,92,12
1,38,92,14
1,38,97,88
1,33,94,34
1,38,92,10
1,38,90,32
1,28,97,50
1,28,88,24
1,33,88,8
1,33,88,20
1,40,94,16
1,40,86,42
1,45,78,6
1,42,104,74
1,35,94,18
1,40,88,50
1,40,71,34
1,45,88,64
1,43,85,40
1,42,86,50
1,35,92,46
1,40,86,36
1,45,92,48
1,41,113,96
1,38,110,16
1,31,110,6
1,36,110,16
1,41,113,34
1,38,110,16
1,31,110,6
1,36,110,16
1,38,113,34
1,48,94,56
1,43,83,40
1,38,60,128
1,48,88,118
1,48,75,54
1,43,85,24
1,38,73,8
1,48,92,88
1,48,82,94
1,43,66,256
1,38,66,8
1,38,113,144
1,38,82,20
1,45,86,2
1,38,94,10
1,38,90,58
1,38,90,12
1,45,101,8
1,38,101,16
1,38,85,52
1,28,86,32
1,40,113,6
1,33,94,10
1,33,88,28
1,40,90,16
1,40,86,22
1,45,78,20
1,40,83,128
1,45,75,2
1,38,104,8
1,38,88,2
1,45,92,12
1,38,92,14
1,38,97,88
1,33,94,34
1,38,92,10
1,38,90,32
1,28,97,50
1,28,88,24
1,33,88,8
1,33,88,20
1,40,94,16
1,40,86,42
1,45,78,6
1,42,104,74
1,35,94,18
1,40,88,50
1,40,71,34
1,45,88,64
1,43,85,40
1,42,86,50
1,35,92,46
1,40,86,36
1,45,92,48
1,41,113,96
1,38,110,16
1,31,110,6
1,36,110,16
1,41,113,34
1,38,110,16
1,31,110,6
1,36,110,16
1,38,113,34
1,48,94,56
1,43,83,40
1,38,60,128
1,48,88,118
1,48,75,54
1,43,85,24
1,38,73,8
1,48,97,88
1,47,90,40
1,43,92,26
1,45,76,128
1,41,117,112
1,40,107,42
1,36,104,24
1,38,104,8
2,50,87,768
2,62,87,0
2,62,87,0
2,69,75,32
2,74,79,0
2,81,82,0
2,69,72,68
2,74,75,0
2,81,78,0
2,69,80,4
2,74,81,0
2,81,82,0
2,69,74,46
2,74,75,0
2,81,80,0
2,69,76,64
2,74,83,0
2,81,85,0
2,69,79,16
2,74,83,0
2,81,82,0
2,81,87,2
2,69,75,42
2,74,79,0
2,81,82,0
2,69,72,68
2,74,75,0
2,81,78,0
2,69,80,4
2,74,81,0
2,81,82,0
2,69,74,46
2,74,75,0
2,81,80,0
2,69,76,64
2,74,83,0
2,81,85,0
2,62,87,14
2,81,87,0
2,69,79,2
2,74,83,0
2,81,82,0
2,69,75,38
2,74,79,0
2,81,82,0
2,69,72,68
2,74,75,0
2,81,78,0
2,69,80,4
2,74,81,0
2,81,82,0
2,69,74,46
2,74,75,0
2,81,80,0
2,69,76,64
2,74,83,0
2,81,85,0
2,69,79,16
2,74,83,0
2,81,82,0
2,69,72,40
2,74,80,0
2,81,73,0
2,69,81,60
2,74,87,0
2,81,80,0
2,69,83,44
2,74,87,0
2,81,89,0
2,69,80,34
2,74,88,0
2,81,85,0
2,69,72,54
2,74,80,0
2,81,82,0
2,55,90,8
2,60,99,0
2,64,98,0
2,69,80,0
2,74,86,0
2,81,83,0
2,69,77,32
2,74,80,0
2,81,83,0
2,69,74,72
2,74,78,0
2,81,78,0
2,69,82,20
2,74,87,0
2,81,83,0
2,69,74,24
2,74,78,0
2,81,82,0
2,69,69,14
2,74,77,0
2,81,75,0
2,54,93,8
2,57,105,0
2,62,99,0
2,69,82,0
2,74,88,0
2,81,86,0
2,69,80,32
2,74,81,0
2,81,80,0
2,69,74,8
2,74,79,0
2,81,73,0
2,69,83,16
2,74,88,0
2,81,86,0
2,69,72,28
2,74,78,0
2,81,78,0
2,69,80,58
2,74,83,0
2,81,80,0
2,55,89,18
2,60,95,0
2,64,90,0
2,69,86,0
2,74,90,0
2,81,86,0
2,69,82,32
2,74,88,0
2,81,87,0
2,69,72,70
2,74,80,0
2,81,75,0
2,69,80,22
2,74,86,0
2,81,86,0
2,69,70,24
2,74,78,0
2,81,82,0
2,69,75,50
2,74,80,0
2,81,77,0
2,54,71,2
2,57,90,0
2,62,86,0
2,69,82,0
2,74,87,0
2,81,86,0
2,69,77,24
2,74,84,0
2,81,86,0
2,69,78,24
2,74,85,0
2,81,82,0
2,69,73,12
2,74,84,0
2,81,77,0
2,69,74,28
2,74,78,0
2,81,81,0
2,69,85,56
2,74,89,0
2,81,86,0
2,60,86,8
2,65,99,0
2,69,87,0
2,74,95,0
2,81,89,0
2,69,71,40
2,74,79,0
2,81,80,0
2,69,72,88
2,74,77,0
2,81,70,0
2,59,89,16
2,64,95,0
2,67,94,0
2,69,85,0
2,74,91,0
2,81,87,0
2,69,74,32
2,74,78,0
2,81,78,0
2,69,79,8
2,74,84,0
2,81,82,0
2,57,82,16
2,62,91,0
2,66,83,0
2,69,82,0
2,74,90,0
2,81,88,0
2,69,73,40
2,74,77,0
2,81,75,0
2,69,78,62
2,74,83,0
2,81,82,0
2,69,86,62
2,74,95,0
2,81,93,0
2,69,80,48
2,74,83,0
2,81,82,0
2,69,86,64
2,74,88,0
2,81,86,0
2,38,82,26
2,50,84,0
2,69,78,0
2,74,90,0
2,81,86,0
2,38,86,48
2,50,80,0
2,74,78,0
2,81,85,0
2,69,73,0
2,38,99,72
2,50,119,0
2,69,80,0
2,74,88,0
2,81,89,0
2,38,108,72
2,50,114,0
2,69,86,0
2,74,94,0
2,81,95,0
2,38,127,64
2,50,127,0
2,69,99,0
2,74,96,0
2,81,92,0
2,38,121,54
2,50,117,0
2,69,100,0
2,74,103,0
2,81,95,0
2,50,112,44
2,62,110,0
2,65,117,0
2,69,110,0
2,57,114,72
2,62,103,22
2,65,114,0
2,69,108,0
2,50,103,74
2,61,109,0
2,65,119,0
2,69,110,0
2,60,106,104
2,65,121,0
2,69,114,0
2,59,105,64
2,65,117,0
2,69,110,0
2,50,103,50
2,59,93,22
2,40,94,92
2,52,112,0
2,55,114,0
2,59,105,0
2,45,99,216
2,57,106,0
2,61,101,0
2,64,105,0
2,52,96,18
2,52,96,146
2,55,96,0
2,59,93,0
2,62,103,0
2,67,110,0
2,71,103,0
2,45,100,244
2,61,101,0
2,64,119,0
2,69,110,0
2,50,90,212
2,62,96,0
2,65,103,0
2,69,102,0
2,57,105,58
2,62,100,8
2,65,119,14
2,69,114,0
2,50,95,84
2,61,109,0
2,65,112,0
2,69,108,0
2,61,112,42
2,65,121,0
2,69,112,0
2,50,95,58
2,60,103,0
2,65,102,0
2,69,102,0
2,60,108,30
2,65,121,0
2,69,110,0
2,59,106,46
2,65,112,0
2,69,108,0
2,52,108,190
2,62,108,0
2,67,117,0
2,71,110,0
2,59,105,60
2,62,89,8
2,67,99,14
2,71,105,0
2,45,96,96
2,57,106,0
2,61,101,0
2,64,90,0
2,52,99,10
2,52,108,160
2,55,114,0
2,59,106,0
2,45,103,226
2,57,105,0
2,61,101,0
2,64,103,0
2,49,86,88
2,54,93,0
2,57,92,0
2,61,97,0
2,66,99,0
2,47,94,232
2,59,98,0
2,62,106,0
2,66,104,0
2,52,88,224
2,55,86,0
2,59,82,0
2,62,94,0
2,67,103,0
2,71,99,0
2,45,94,236
2,57,94,0
2,61,89,0
2,64,95,0
2,52,77,24
2,49,97,216
2,54,99,0
2,57,94,0
2,61,97,0
2,66,106,0
2,47,98,240
2,59,95,0
2,62,103,0
2,66,101,0
2,52,94,240
2,62,95,0
2,67,103,0
2,71,99,0
2,45,106,258
2,57,102,0
2,61,101,0
2,64,103,0
2,53,98,72
2,57,100,0
2,60,95,0
2,65,106,0
2,50,94,240
2,60,93,0
2,65,102,0
2,69,99,0
2,43,94,222
2,55,99,0
2,58,93,0
2,62,100,0
2,50,98,32
2,55,90,46
2,58,109,0
2,62,106,0
2,48,95,82
2,60,103,0
2,64,110,0
2,55,110,8
2,60,82,48
2,64,100,0
2,67,99,0
2,45,100,54
2,38,105,2
2,50,91,0
2,90,97,64
2,93,100,0
2,81,90,2
2,86,105,0
2,81,105,24
2,93,114,0
2,86,124,2
2,90,116,0
2,81,124,76
2,90,124,0
2,93,121,0
2,86,127,2
2,86,102,178
2,81,80,2
2,90,95,0
2,74,91,4
2,74,105,22
2,81,90,0
2,90,106,0
2,86,114,2
2,86,124,60
2,90,116,0
2,81,102,2
2,74,119,2
2,81,94,74
2,74,95,2
2,78,89,0
2,81,94,20
2,78,97,2
2,74,92,2
2,74,110,60
2,78,112,0
2,81,112,0
2,50,112,138
2,62,110,0
2,65,117,0
2,69,110,0
2,57,114,72
2,62,103,22
2,65,114,0
2,69,108,0
2,50,103,74
2,61,109,0
2,65,119,0
2,69,110,0
2,60,106,104
2,65,121,0
2,69,114,0
2,59,105,64
2,65,117,0
2,69,110,0
2,50,103,50
2,59,93,22
2,40,94,92
2,52,112,0
2,55,114,0
2,59,105,0
2,45,99,216
2,57,106,0
2,61,101,0
2,64,105,0
2,52,96,18
2,52,96,146
2,55,96,0
2,59,93,0
2,62,103,0
2,67,110,0
2,71,103,0
2,45,100,244
2,61,101,0
2,64,119,0
2,69,110,0
2,50,90,212
2,62,96,0
2,65,103,0
2,69,102,0
2,57,105,58
2,62,100,8
2,65,119,14
2,69,114,0
2,50,95,84
2,61,109,0
2,65,112,0
2,69,108,0
2,61,112,42
2,65,121,0
2,69,112,0
2,50,95,58
2,60,103,0
2,65,102,0
2,69,102,0
2,60,108,30
2,65,121,0
2,69,110,0
2,59,106,46
2,65,112,0
2,69,108,0
2,52,108,190
2,62,108,0
2,67,117,0
2,71,110,0
2,59,105,60
2,62,89,8
2,67,99,14
2,71,105,0
2,45,96,96
2,57,106,0
2,61,101,0
2,64,90,0
2,52,99,10
2,52,108,160
2,55,114,0
2,59,106,0
2,45,103,226
2,57,105,0
2,61,101,0
2,64,103,0
2,49,86,88
2,54,93,0
2,57,92,0
2,61,97,0
2,66,99,0
2,47,94,232
2,59,98,0
2,62,106,0
2,66,104,0
2,52,88,224
2,55,86,0
2,59,82,0
2,62,94,0
2,67,103,0
2,71,99,0
2,45,94,236
2,57,94,0
2,61,89,0
2,64,95,0
2,52,77,24
2,49,97,216
2,54,99,0
2,57,94,0
2,61,97,0
2,66,106,0
2,47,98,240
2,59,95,0
2,62,103,0
2,66,101,0
2,52,94,240
2,62,95,0
2,67,103,0
2,71,99,0
2,45,106,258
2,57,102,0
2,61,101,0
2,64,103,0
2,53,98,72
2,57,100,0
2,60,95,0
2,65,106,0
2,50,94,240
2,60,93,0
2,65,102,0
2,69,99,0
2,43,94,222
2,55,99,0
2,58,93,0
2,62,100,0
2,50,98,32
2,55,90,46
2,58,109,0
2,62,106,0
2,48,95,82
2,60,103,0
2,64,110,0
2,55,110,8
2,60,82,48
2,64,100,0
2,67,99,0
2,45,100,54
2,53,98,0
2,57,100,0
2,60,95,0
2,65,106,0
2,50,94,240
2,60,93,0
2,65,102,0
2,69,99,0
2,43,94,222
2,55,99,0
2,58,93,0
2,62,100,0
2,50,98,32
2,55,90,46
2,58,109,0
2,62,106,0
2,48,95,82
2,60,103,0
2,64,110,0
2,55,110,8
2,60,82,48
2,64,100,0
2,67,99,0
2,45,100,54
2,38,105,0
2,45,100,0
2,50,91,0
2,90,97,64
2,93,100,0
2,81,90,2
2,86,105,0
2,81,105,24
2,93,114,0
2,86,124,2
2,90,116,0
2,81,124,76
2,90,124,0
2,93,121,0
2,86,127,2
2,86,102,178
2,81,80,2
2,90,95,0
2,74,91,4
2,74,105,22
2,81,90,0
2,90,106,0
2,86,114,2
2,86,124,60
2,90,116,0
2,81,102,2
2,74,119,2
2,81,94,74
2,74,95,2
2,78,89,0
2,81,94,20
2,78,97,2
2,74,92,2
2,74,110,60
2,78,112,0
2,81,112,0
2,69,80,138
2,74,86,0
2,81,87,0
2,69,75,58
2,74,79,0
2,81,82,0
2,69,72,68
2,74,75,0
2,81,78,0
2,69,80,4
2,74,81,0
2,81,82,0
2,69,74,46
2,74,75,0
2,81,80,0
2,69,76,64
2,74,83,0
2,81,85,0
2,54,74,16
2,57,92,0
2,62,86,0
2,69,79,0
2,74,83,0
2,81,82,0
2,69,72,40
2,74,80,0
2,81,73,0
2,69,81,60
2,74,87,0
2,81,80,0
2,69,83,34
2,74,87,0
2,81,89,0
2,69,80,34
2,74,88,0
2,81,85,0
2,69,72,54
2,74,80,0
2,81,82,0
2,60,87,8
2,64,94,0
2,67,88,0
2,69,80,0
2,74,86,0
2,81,87,0
2,69,75,58
2,74,79,0
2,81,82,0
2,69,72,0
2,74,75,0
2,81,78,0
2,69,80,4
2,74,81,0
2,81,82,0
2,69,74,46
2,74,75,0
2,81,80,0
2,69,76,64
2,74,83,0
2,81,85,0
2,57,98,16
2,62,108,0
2,66,106,0
2,69,79,0
2,74,83,0
2,81,82,0
2,69,72,40
2,74,80,0
2,81,73,0
2,69,81,60
2,74,87,0
2,81,80,0
2,69,83,8
2,74,87,0
2,81,89,0
2,69,80,34
2,74,88,0
2,81,85,0
2,69,72,54
2,74,80,0
2,81,82,0
2,60,102,8
2,64,106,0
2,67,103,0
2,69,80,0
2,74,86,0
2,81,87,0
2,69,75,0
2,74,79,0
2,81,82,0
2,69,72,68
2,74,75,0
2,81,78,0
2,69,80,4
2,74,81,0
2,81,82,0
2,69,74,46
2,74,75,0
2,81,80,0
2,69,76,64
2,74,83,0
2,81,85,0
2,57,102,16
2,62,108,0
2,66,104,0
2,69,79,0
2,74,83,0
2,81,82,0
2,69,72,30
2,74,80,0
2,81,73,0
2,69,81,60
2,74,87,0
2,81,80,0
2,50,127,44
2,69,83,0
2,74,87,0
2,81,89,0
2,38,127,24
2,69,80,0
2,74,88,0
2,81,85,0
2,69,72,54
2,74,80,0
2,81,82,0
2,50,112,8
2,62,110,0
2,65,117,0
2,69,110,0
2,57,114,72
2,62,103,22
2,65,114,0
2,69,108,0
2,50,103,74
2,61,109,0
2,65,119,0
2,69,110,0
2,60,106,104
2,65,121,0
2,69,114,0
2,59,105,64
2,65,117,0
2,69,110,0
2,50,103,50
2,59,93,22
2,40,94,92
2,52,112,0
2,55,114,0
2,59,105,0
2,45,99,216
2,57,106,0
2,61,101,0
2,64,105,0
2,52,96,18
2,52,96,146
2,55,96,0
2,59,93,0
2,62,103,0
2,67,110,0
2,71,103,0
2,45,100,244
2,61,101,0
2,64,119,0
2,69,110,0
2,50,90,212
2,62,96,0
2,65,103,0
2,69,102,0
2,57,105,58
2,62,100,8
2,65,119,14
2,69,114,0
2,50,95,84
2,61,109,0
2,65,112,0
2,69,108,0
2,61,112,42
2,65,121,0
2,69,112,0
2,50,95,58
2,60,103,0
2,65,102,0
2,69,102,0
2,60,108,30
2,65,121,0
2,69,110,0
2,59,106,46
2,65,112,0
2,69,108,0
2,52,108,190
2,62,108,0
2,67,117,0
2,71,110,0
2,59,105,60
2,62,89,8
2,67,99,14
2,71,105,0
2,45,96,96
