track,note,velocity,time
1,40,121,720
1,40,0,8
1,37,121,52
1,37,0,58
1,33,120,2
1,33,0,18
1,28,121,42
1,28,0,59
1,32,121,1
1,32,0,44
1,37,111,16
1,37,0,104
1,37,111,16
1,37,0,119
1,38,111,1
1,38,0,44
1,38,112,16
1,38,0,118
1,32,110,62
1,32,0,104
1,32,111,16
1,32,0,119
1,33,112,1
1,33,0,44
1,33,111,16
1,33,0,104
1,33,120,16
1,33,0,58
1,37,120,2
1,37,0,104
1,37,120,16
1,37,0,118
1,38,120,2
1,38,0,44
1,38,119,16
1,38,0,104
1,32,119,76
1,32,0,104
1,32,119,16
1,32,0,118
1,33,119,2
1,33,0,44
1,33,119,16
1,33,0,104
1,33,118,16
1,33,0,58
1,37,118,2
1,37,0,104
1,37,118,16
1,37,0,118
1,38,118,2
1,38,0,44
1,38,118,16
1,38,0,119
1,32,118,61
1,32,0,104
1,32,118,16
1,32,0,118
1,33,118,2
1,33,0,44
1,33,120,16
1,33,0,119
1,33,122,1
1,33,0,58
1,37,111,2
1,37,0,104
1,37,111,16
1,37,0,119
1,38,111,1
1,38,0,44
1,38,112,16
1,38,0,118
1,32,110,62
1,32,0,104
1,32,111,16
1,32,0,119
1,33,112,1
1,33,0,44
1,33,111,16
1,33,0,104
1,33,120,16
1,33,0,58
1,37,120,2
1,37,0,104
1,37,120,16
1,37,0,118
1,38,120,2
1,38,0,44
1,38,119,16
1,38,0,104
1,32,119,76
1,32,0,104
1,32,119,16
1,32,0,118
1,33,119,2
1,33,0,44
1,33,119,16
1,33,0,104
1,33,118,16
1,33,0,58
1,37,118,2
1,37,0,104
1,37,118,16
1,37,0,118
1,38,118,2
1,38,0,44
1,38,118,16
1,38,0,119
1,32,118,61
1,32,0,104
1,32,118,16
1,32,0,118
1,33,118,2
1,33,0,44
1,33,120,16
1,33,0,119
1,33,122,1
1,33,0,58
1,37,111,2
1,37,0,104
1,37,111,16
1,37,0,119
1,38,111,1
1,38,0,44
1,38,112,16
1,38,0,118
1,32,110,62
1,32,0,104
1,32,111,16
1,32,0,119
1,33,112,1
1,33,0,44
1,33,111,16
1,33,0,104
1,42,127,16
1,42,0,164
1,42,127,16
1,42,0,269
1,40,127,31
1,40,0,179
1,40,127,16
1,40,0,254
1,38,127,31
1,38,0,164
1,38,127,16
1,38,0,269
1,37,127,31
1,37,0,164
1,37,127,16
1,37,0,209
1,38,127,31
1,38,0,59
1,42,127,1
1,42,0,164
1,42,127,16
1,42,0,239
1,40,127,61
1,40,0,164
1,40,127,16
1,40,0,239
1,38,127,61
1,38,0,164
1,38,127,16
1,38,0,239
1,37,127,61
1,37,0,119
1,37,127,1
1,37,0,59
1,37,127,1
1,37,0,59
1,37,127,1
1,37,0,59
1,37,127,1
1,37,0,59
1,37,127,1
1,37,0,59
1,30,127,1
1,30,0,59
1,38,127,1
1,38,0,59
1,38,127,1
1,38,0,59
1,38,120,1
1,38,0,119
1,38,120,1
1,38,0,59
1,38,120,1
1,38,0,59
1,38,120,1
1,38,0,119
1,35,120,1
1,35,0,59
1,35,120,1
1,35,0,59
1,32,120,1
1,32,0,59
1,32,120,1
1,32,0,59
1,28,120,1
1,28,0,119
1,28,120,1
1,28,0,119
1,36,120,1
1,36,0,59
1,36,120,1
1,36,0,59
1,36,120,1
1,36,0,119
1,36,120,1
1,36,0,59
1,36,120,1
1,36,0,59
1,36,120,1
1,36,0,119
1,40,120,1
1,40,0,119
1,40,120,1
1,40,0,119
1,39,120,1
1,39,0,119
1,39,120,1
1,39,0,119
1,45,120,1
1,45,0,59
1,45,120,1
1,45,0,59
1,45,120,1
1,45,0,119
1,45,120,1
1,45,0,59
1,45,120,1
1,45,0,59
1,45,120,1
1,45,0,119
1,40,120,1
1,40,0,59
1,40,120,1
1,40,0,59
1,40,120,1
1,40,0,119
1,40,120,1
1,40,0,59
1,40,120,1
1,40,0,59
1,40,120,1
1,40,0,119
1,33,120,1
1,33,0,58
1,37,120,2
1,37,0,104
1,37,120,16
1,37,0,118
1,38,120,2
1,38,0,44
1,38,119,16
1,38,0,104
1,32,119,76
1,32,0,104
1,32,119,16
1,32,0,118
1,33,119,2
1,33,0,44
1,33,119,16
1,33,0,104
1,33,118,16
1,33,0,58
1,37,118,2
1,37,0,104
1,37,118,16
1,37,0,118
1,38,118,2
1,38,0,44
1,38,118,16
1,38,0,119
1,32,118,61
1,32,0,104
1,32,118,16
1,32,0,118
1,33,118,2
1,33,0,44
1,33,120,16
1,33,0,119
1,33,122,1
1,33,0,58
1,37,111,2
1,37,0,104
1,37,111,16
1,37,0,119
1,38,111,1
1,38,0,44
1,38,112,16
1,38,0,118
1,32,110,62
1,32,0,104
1,32,111,16
1,32,0,119
1,33,112,1
1,33,0,44
1,33,111,16
1,33,0,104
1,33,120,16
1,33,0,58
1,37,120,2
1,37,0,104
1,37,120,16
1,37,0,118
1,38,120,2
1,38,0,44
1,38,119,16
1,38,0,104
1,32,119,76
1,32,0,104
1,32,119,16
1,32,0,118
1,33,119,2
1,33,0,44
1,33,119,16
1,33,0,104
1,33,118,16
1,33,0,58
1,37,118,2
1,37,0,104
1,37,118,16
1,37,0,118
1,38,118,2
1,38,0,44
1,38,118,16
1,38,0,119
1,32,118,61
1,32,0,104
1,32,118,16
1,32,0,118
1,33,118,2
1,33,0,44
1,33,120,16
1,33,0,119
1,33,122,1
1,33,0,58
1,37,111,2
1,37,0,104
1,37,111,16
1,37,0,119
1,38,111,1
1,38,0,44
1,38,112,16
1,38,0,118
1,32,110,62
1,32,0,104
1,32,111,16
1,32,0,119
1,33,112,1
1,33,0,44
1,33,111,16
1,33,0,104
1,42,127,16
1,42,0,164
1,42,127,16
1,42,0,269
1,40,127,31
1,40,0,179
1,40,127,16
1,40,0,254
1,38,127,31
1,38,0,164
1,38,127,16
1,38,0,269
1,37,127,31
1,37,0,164
1,37,127,16
1,37,0,209
1,38,127,31
1,38,0,59
1,42,127,1
1,42,0,164
1,42,127,16
1,42,0,239
1,40,127,61
1,40,0,164
1,40,127,16
1,40,0,239
1,38,127,61
1,38,0,164
1,38,127,16
1,38,0,239
1,37,127,61
1,37,0,119
1,37,127,1
1,37,0,59
1,37,127,1
1,37,0,59
1,37,127,1
1,37,0,59
1,37,127,1
1,37,0,59
1,37,127,1
1,37,0,59
1,30,127,1
1,30,0,59
1,38,127,1
1,38,0,59
1,38,127,1
1,38,0,59
1,38,120,1
1,38,0,119
1,38,120,1
1,38,0,59
1,38,120,1
1,38,0,59
1,38,120,1
1,38,0,119
1,35,120,1
1,35,0,59
1,35,120,1
1,35,0,59
1,32,120,1
1,32,0,59
1,32,120,1
1,32,0,59
1,28,120,1
1,28,0,119
1,28,120,1
1,28,0,119
1,36,120,1
1,36,0,59
1,36,120,1
1,36,0,59
1,36,120,1
1,36,0,119
1,36,120,1
1,36,0,59
1,36,120,1
1,36,0,59
1,36,120,1
1,36,0,119
1,40,120,1
1,40,0,119
1,40,120,1
1,40,0,119
1,39,120,1
1,39,0,119
1,39,120,1
1,39,0,119
1,45,120,1
1,45,0,59
1,45,120,1
1,45,0,59
1,45,120,1
1,45,0,119
1,45,120,1
1,45,0,59
1,45,120,1
1,45,0,59
1,45,120,1
1,45,0,119
1,40,120,1
1,40,0,59
1,40,120,1
1,40,0,59
1,40,120,1
1,40,0,119
1,40,120,1
1,40,0,59
1,40,120,1
1,40,0,59
1,40,120,1
1,40,0,119
1,33,120,1
1,33,0,58
1,37,120,2
1,37,0,104
1,37,120,16
1,37,0,118
1,38,120,2
1,38,0,44
1,38,119,16
1,38,0,104
1,33,120,496
1,33,0,58
1,37,118,2
1,37,120,0
1,37,0,104
1,37,0,0
1,37,118,16
1,37,120,0
1,37,0,118
1,37,0,0
1,38,118,2
1,38,120,0
1,38,0,44
1,38,0,0
1,38,118,16
1,38,119,0
1,38,0,104
1,38,0,15
1,33,120,481
1,33,0,58
1,37,118,2
1,37,120,0
1,37,0,104
1,37,0,0
1,37,118,16
1,37,120,0
1,37,0,118
1,37,0,0
1,38,118,2
1,38,120,0
1,38,0,44
1,38,0,0
1,38,118,16
1,38,119,0
1,38,0,104
1,38,0,15
1,33,120,481
1,33,0,58
1,37,118,2
1,37,120,0
1,37,0,104
1,37,0,0
1,37,118,16
1,37,120,0
1,37,0,118
1,37,0,0
1,38,118,2
1,38,120,0
1,38,0,44
1,38,0,0
1,38,118,16
1,38,119,0
1,38,0,104
1,38,0,15
1,57,120,241
1,57,0,14
1,56,120,16
1,56,0,14
1,52,120,16
1,49,120,60
1,52,0,14
1,49,0,45
1,45,120,1
1,45,0,59
1,42,120,1
1,42,0,44
1,42,120,16
1,42,0,44
1,42,120,16
1,42,0,164
1,42,120,16
1,42,0,104
1,42,120,16
1,42,0,59
1,45,120,1
1,45,0,44
1,45,120,16
1,45,0,104
1,45,120,16
1,45,0,134
1,45,120,1
1,45,0,44
1,45,120,1
1,45,0,44
1,45,120,1
1,45,0,44
1,45,120,1
1,45,0,29
1,38,120,1
1,38,0,59
1,38,120,1
1,38,0,59
1,42,120,1
1,38,120,60
1,42,0,14
1,38,0,105
1,38,120,1
1,38,0,119
1,37,120,1
1,37,0,59
1,37,120,1
1,37,0,59
1,37,120,1
1,37,0,119
1,37,120,1
1,37,0,89
1,37,120,31
1,37,0,89
1,37,120,30
1,37,0,59
1,38,120,2
1,38,0,59
1,42,120,1
1,42,0,119
1,45,120,1
1,45,0,119
1,45,120,1
1,45,0,119
1,45,120,1
1,45,0,59
1,42,120,1
1,42,0,59
1,40,120,1
1,40,0,59
1,38,120,1
1,38,0,59
1,37,120,1
1,37,0,119
1,37,120,1
1,37,0,119
1,37,120,1
1,37,0,59
1,45,120,1
1,45,0,44
1,45,120,16
1,45,0,59
1,45,120,1
1,45,0,59
1,45,120,1
1,45,0,119
1,42,120,1
1,42,0,59
1,38,120,1
1,40,120,60
1,38,0,14
1,40,0,45
1,37,120,1
1,37,0,59
1,37,120,1
1,37,0,59
1,37,120,1
1,37,0,59
1,37,120,1
1,37,0,119
1,37,120,1
1,37,0,59
1,35,120,1
1,35,0,59
1,33,120,1
1,33,0,59
1,42,120,1
1,42,0,44
1,42,120,16
1,42,0,44
1,42,120,16
1,42,0,164
1,42,120,16
1,42,0,104
1,42,120,16
1,42,0,59
1,45,120,1
1,45,0,44
1,45,120,16
1,45,0,104
1,45,120,16
1,45,0,134
1,45,120,1
1,45,0,44
1,45,120,1
1,45,0,44
1,45,120,1
1,45,0,44
1,45,120,1
1,45,0,29
1,38,120,1
1,38,0,59
1,38,120,1
1,38,0,59
1,42,120,1
1,38,120,60
1,42,0,14
1,38,0,105
1,38,120,1
1,37,120,120
1,38,0,14
1,37,0,45
1,37,120,1
1,37,0,59
1,37,120,1
1,37,0,119
1,37,120,1
1,37,0,89
1,37,120,31
1,37,0,89
1,37,120,30
1,37,0,59
1,38,120,2
1,38,0,59
1,42,120,1
1,42,0,119
1,45,120,1
1,45,0,119
1,45,120,1
1,45,0,119
1,45,120,1
1,45,0,59
1,42,120,1
1,42,0,59
1,40,120,1
1,40,0,59
1,38,120,1
1,38,0,59
1,37,120,1
1,37,0,119
1,37,120,1
1,37,0,119
1,37,120,1
1,37,0,59
1,45,120,1
1,45,0,44
1,45,120,16
1,45,0,59
1,45,120,1
1,45,0,59
1,45,120,1
1,45,0,119
1,42,120,1
1,42,0,59
1,38,120,1
1,40,120,60
1,38,0,14
1,40,0,45
1,37,120,1
1,37,0,59
1,37,120,1
1,37,0,59
1,37,120,1
1,37,0,59
1,37,120,1
1,37,0,119
1,37,120,1
1,37,0,59
1,45,120,1
1,45,0,119
1,35,120,1
1,35,0,479
1,45,120,1
1,45,0,119
1,45,120,1
1,45,0,59
1,44,120,1
1,44,0,119
1,42,120,1
1,42,0,119
1,40,120,1
1,40,0,59
1,38,120,1
1,38,0,479
1,57,120,961
1,57,0,44
1,57,120,76
1,57,0,44
1,57,120,76
1,57,0,44
1,57,120,76
1,57,0,44
1,57,120,76
1,57,0,44
1,57,120,76
1,57,0,44
1,57,120,76
1,57,0,44
1,57,120,76
1,57,0,44
1,57,120,76
1,57,0,44
1,57,120,76
1,57,0,44
1,57,120,76
1,57,0,44
1,57,120,76
1,57,0,44
1,33,120,76
1,33,0,58
1,37,120,2
1,37,0,104
1,37,120,16
1,37,0,118
1,38,120,2
1,38,0,44
1,38,119,16
1,38,0,179
1,33,120,421
1,33,0,58
1,37,118,2
1,37,120,0
1,37,0,104
1,37,0,0
1,37,118,16
1,37,120,0
1,37,0,118
1,37,0,0
1,38,118,2
1,38,120,0
1,38,0,44
1,38,0,0
1,38,119,16
1,38,0,179
1,28,127,421
1,28,0,44
1,37,111,16
1,37,0,104
1,37,111,16
1,37,0,119
1,38,111,1
1,38,0,44
1,38,112,16
1,38,0,44
1,28,127,16
1,28,0,119
1,32,110,1
1,32,0,104
1,32,111,16
1,32,0,119
1,33,112,1
1,33,0,44
1,33,111,16
1,33,0,44
1,37,120,136
1,37,0,104
1,37,120,16
1,37,0,118
1,38,120,2
1,38,0,44
1,38,119,16
1,38,0,29
1,28,127,31
1,28,0,104
1,32,119,16
1,32,0,104
1,32,119,16
1,32,0,118
1,33,119,2
1,33,0,44
1,33,119,16
1,33,0,44
1,37,118,136
1,37,0,104
1,37,118,16
1,37,0,118
1,38,118,2
1,38,0,44
1,38,118,16
1,38,0,44
1,28,127,16
1,28,0,119
1,32,118,1
1,32,0,104
1,32,118,16
1,32,0,118
1,33,118,2
1,33,0,44
1,33,120,16
1,33,0,119
1,33,122,1
1,33,0,58
1,37,111,2
1,37,0,104
1,37,111,16
1,37,0,119
1,38,111,1
1,38,0,44
1,38,112,16
1,38,0,44
1,28,127,16
1,28,0,119
1,32,110,1
1,32,0,104
1,32,111,16
1,32,0,119
1,33,112,1
1,33,0,44
1,33,111,16
1,33,0,104
1,42,127,16
1,42,0,164
1,42,127,16
1,42,0,269
1,40,127,31
1,40,0,179
1,40,127,16
1,40,0,254
1,38,127,31
1,38,0,164
1,38,127,16
1,38,0,269
1,37,127,31
1,37,0,164
1,37,127,16
1,37,0,209
1,38,127,31
1,38,0,59
1,42,127,1
1,42,0,164
1,42,127,16
1,42,0,239
1,40,127,61
1,40,0,164
1,40,127,16
1,40,0,239
1,38,127,61
1,38,0,164
1,38,127,16
1,38,0,239
1,37,127,61
1,37,0,119
1,37,127,1
1,37,0,59
1,37,127,1
1,37,0,59
1,37,127,1
1,37,0,59
1,37,127,1
1,37,0,59
1,37,127,1
1,37,0,59
1,30,127,1
1,30,0,59
1,38,127,1
1,38,0,59
1,38,127,1
1,38,0,59
1,38,120,1
1,38,0,119
1,38,120,1
1,38,0,59
1,38,120,1
1,38,0,59
1,38,120,1
1,38,0,119
1,35,120,1
1,35,0,59
1,35,120,1
1,35,0,59
1,32,120,1
1,32,0,59
1,32,120,1
1,32,0,59
1,28,120,1
1,28,0,119
1,28,120,1
1,28,0,119
1,36,120,1
1,36,0,59
1,36,120,1
1,36,0,59
1,36,120,1
1,36,0,119
1,36,120,1
1,36,0,59
1,36,120,1
1,36,0,59
1,36,120,1
1,36,0,119
1,40,120,1
1,40,0,119
1,40,120,1
1,40,0,119
1,39,120,1
1,39,0,119
1,39,120,1
1,39,0,119
1,45,120,1
1,45,0,59
1,45,120,1
1,45,0,59
1,45,120,1
1,45,0,119
1,45,120,1
1,45,0,59
1,45,120,1
1,45,0,59
1,45,120,1
1,45,0,119
1,40,120,1
1,40,0,59
1,40,120,1
1,40,0,59
1,40,120,1
1,40,0,119
1,40,120,1
1,40,0,59
1,40,120,1
1,40,0,59
1,40,120,1
1,40,0,119
1,42,120,1
1,42,0,29
1,42,120,31
1,42,0,59
1,42,120,1
1,42,0,59
1,45,120,1
1,45,0,179
1,47,120,1
1,47,0,59
1,42,120,61
1,42,0,29
1,42,120,31
1,42,0,59
1,42,120,1
1,42,0,59
1,45,120,1
1,45,0,179
