track,note,velocity,time
1,55,90,2676
1,58,72,0
1,63,71,0
1,58,83,152
1,55,93,0
1,63,81,0
1,39,103,140
1,58,87,136
1,63,94,0
1,55,108,0
1,58,89,332
1,55,96,0
1,63,97,8
1,39,107,188
1,58,84,148
1,63,90,0
1,55,94,0
1,55,71,132
1,36,78,152
1,58,91,132
1,63,107,0
1,60,96,4
1,55,111,0
1,36,108,188
1,31,106,4
1,34,117,44
1,58,84,44
1,55,96,0
1,63,101,0
1,60,102,0
1,36,89,8
1,34,105,92
1,63,94,152
1,58,75,0
1,55,80,0
1,39,83,0
1,39,94,152
1,58,103,148
1,63,123,0
1,55,110,0
1,39,83,64
1,63,81,8
1,58,83,0
1,63,60,144
1,39,111,168
1,58,95,132
1,63,100,0
1,55,99,0
1,39,100,60
1,58,77,320
1,56,69,0
1,46,105,172
1,56,101,0
1,58,90,0
1,53,77,0
1,58,101,156
1,56,101,0
1,53,84,0
1,46,115,0
1,56,126,164
1,58,126,0
1,53,113,0
1,46,127,0
1,56,126,140
1,58,127,0
1,53,114,0
1,46,127,0
1,58,127,132
1,56,127,0
1,53,116,0
1,46,127,0
1,46,127,132
1,56,115,0
1,58,111,0
1,53,97,0
1,58,95,148
1,63,89,0
1,55,96,0
1,39,111,4
1,39,115,136
1,58,105,148
1,63,101,4
1,55,100,0
1,58,77,84
1,55,66,4
1,63,66,0
1,39,111,324
1,63,101,128
1,58,107,0
1,55,108,0
1,39,74,188
1,36,80,32
1,36,89,100
1,63,109,144
1,58,90,0
1,55,110,0
1,60,99,0
1,36,107,192
1,31,102,64
1,34,120,48
1,58,81,88
1,36,104,0
1,60,95,4
1,63,80,4
1,55,85,0
1,34,120,64
1,55,82,100
1,63,87,0
1,39,109,0
1,58,80,0
1,63,123,324
1,58,105,0
1,55,110,4
1,39,77,76
1,63,77,0
1,55,68,8
1,58,72,0
1,39,91,320
1,63,111,140
1,58,95,0
1,55,91,4
1,39,101,196
1,63,51,92
1,36,59,4
1,60,62,4
1,36,99,140
1,58,107,120
1,63,115,0
1,55,108,0
1,60,108,0
1,36,107,192
1,31,116,112
1,34,120,72
1,36,100,48
1,58,86,0
1,63,100,0
1,60,95,4
1,55,88,4
1,34,115,100
1,39,101,140
1,63,97,0
1,58,84,4
1,55,70,0
1,39,100,120
1,58,87,152
1,63,113,0
1,55,104,0
1,58,72,84
1,55,70,0
1,63,74,0
1,39,109,348
1,58,101,116
1,63,111,0
1,55,113,0
1,39,101,200
1,36,65,72
1,58,77,8
1,63,77,0
1,60,89,4
1,55,58,0
1,36,99,92
1,58,82,128
1,63,91,0
1,60,89,8
1,55,102,0
1,36,104,184
1,31,113,12
1,34,123,32
1,58,89,52
1,63,98,0
1,36,103,0
1,60,101,0
1,55,90,0
1,34,115,64
1,63,100,68
1,58,90,0
1,39,113,4
1,55,70,0
1,39,111,120
1,63,111,140
1,58,98,0
1,55,107,0
1,55,54,60
1,63,80,0
1,39,105,0
1,58,87,0
1,39,115,300
1,58,101,128
1,63,117,0
1,55,110,0
1,39,107,196
1,36,65,80
1,58,66,8
1,63,62,0
1,60,84,0
1,36,100,92
1,58,103,136
1,63,109,0
1,60,113,0
1,55,103,4
1,36,108,184
1,31,118,112
1,34,115,48
1,63,87,0
1,58,81,0
1,60,106,0
1,55,91,0
1,36,103,0
1,34,97,16
1,63,79,128
1,58,82,0
1,55,76,4
1,39,115,124
1,63,109,140
1,58,89,0
1,55,94,0
1,58,64,80
1,39,65,0
1,63,50,4
1,39,127,360
1,63,113,144
1,58,98,0
1,55,101,4
1,39,95,188
1,43,69,16
1,62,77,8
1,59,76,0
1,43,71,132
1,59,118,164
1,62,114,0
1,53,103,0
1,43,60,52
1,59,76,116
1,62,71,0
1,53,64,0
1,62,113,136
1,59,116,0
1,53,107,0
1,43,99,200
1,62,90,136
1,59,95,0
1,53,69,4
1,43,89,0
1,36,99,124
1,63,105,4
1,58,77,4
1,60,88,0
1,55,77,0
1,36,82,132
1,63,105,148
1,58,100,0
1,60,107,4
1,55,96,0
1,36,89,196
1,63,65,124
1,60,71,0
1,63,107,156
1,58,109,0
1,60,104,0
1,55,106,0
1,36,114,200
1,58,56,124
1,63,66,0
1,60,77,4
1,55,72,4
1,36,96,0
1,53,79,120
1,60,79,4
1,57,70,0
1,41,94,112
1,53,106,148
1,57,106,0
1,63,103,0
1,60,108,0
1,57,54,216
1,60,71,4
1,63,98,148
1,41,87,0
1,60,108,0
1,57,92,0
1,53,72,0
1,41,113,136
1,56,117,104
1,60,106,28
1,57,122,0
1,56,95,80
1,60,77,0
1,41,85,4
1,55,82,52
1,60,74,0
1,41,96,16
1,53,108,128
1,60,101,0
1,41,96,8
1,53,116,136
1,60,106,0
1,41,93,192
1,58,91,140
1,53,91,0
1,56,91,0
1,46,91,0
1,63,111,1352
1,58,95,0
1,55,110,0
1,39,77,104
1,63,98,156
1,58,86,0
1,55,100,0
1,58,75,124
1,63,81,0
1,55,82,0
1,39,98,0
1,39,98,324
1,58,115,132
1,63,111,0
1,55,107,0
1,39,90,192
1,36,75,84
1,58,74,8
1,60,82,0
1,63,67,0
1,36,89,88
1,58,109,120
1,63,113,0
1,60,106,0
1,55,111,0
1,36,104,184
1,31,110,112
1,34,120,92
1,63,105,92
1,58,95,0
1,36,106,0
1,60,108,4
1,55,101,0
1,34,98,100
1,39,101,140
1,58,94,0
1,63,101,0
1,55,86,0
1,39,64,120
1,58,79,172
1,63,93,0
1,58,86,152
1,63,101,0
1,55,89,0
1,39,111,4
1,39,123,196
1,58,91,156
1,63,115,0
1,55,104,0
1,39,101,192
1,58,95,316
1,56,101,0
1,46,90,4
1,53,86,0
1,56,84,156
1,46,109,4
1,58,77,0
1,53,65,0
1,56,117,144
1,58,109,4
1,46,127,0
1,53,99,0
1,56,120,128
1,58,105,0
1,53,99,8
1,46,127,0
1,56,123,140
1,58,109,0
1,53,99,8
1,46,127,0
1,56,101,136
1,58,93,0
1,53,94,0
1,46,120,0
1,56,89,136
1,58,84,0
1,46,72,0
1,39,93,156
1,58,74,0
1,63,95,0
1,39,126,160
1,58,95,156
1,63,123,0
1,55,91,4
1,39,74,148
1,63,83,0
1,58,77,0
1,55,77,4
1,39,111,336
1,58,98,132
1,63,101,0
1,55,97,0
1,39,101,196
1,36,72,36
1,63,57,4
1,60,81,4
1,55,55,0
1,58,28,0
1,36,96,88
1,58,93,128
1,63,107,0
1,55,102,0
1,60,106,0
1,36,107,192
1,31,106,120
1,34,123,76
1,58,84,52
1,63,100,0
1,36,96,4
1,55,90,0
1,60,95,4
1,34,95,92
1,63,97,132
1,39,101,0
1,55,82,4
1,58,83,0
1,39,111,136
1,63,109,140
1,58,97,0
1,55,102,0
1,39,103,60
1,63,84,4
1,58,83,0
1,39,111,320
1,63,115,112
1,58,100,0
1,55,101,4
1,39,101,196
1,36,81,64
1,60,67,12
1,58,74,72
1,63,89,0
1,55,78,0
1,60,87,0
1,36,107,0
1,58,97,336
1,63,101,0
1,60,106,0
1,36,113,0
1,55,94,0
1,31,113,100
1,34,115,56
1,58,90,92
1,63,88,0
1,60,99,0
1,36,107,0
1,55,90,0
1,34,113,88
1,63,107,124
1,58,87,0
1,55,89,0
1,39,100,8
1,39,72,128
1,58,103,132
1,63,117,0
1,55,108,0
1,55,54,64
1,39,109,8
1,58,81,0
1,63,69,0
1,39,109,320
1,58,93,120
1,55,100,0
1,63,115,0
1,39,100,196
1,58,62,92
1,36,77,4
1,55,59,0
1,63,49,4
1,60,80,0
1,36,102,88
1,58,109,112
1,63,117,0
1,55,120,0
1,60,101,0
1,36,108,200
1,31,111,0
1,34,120,72
1,58,107,32
1,36,111,0
1,55,113,0
1,63,115,0
1,34,120,84
1,39,115,72
1,63,77,8
1,58,51,0
1,55,86,0
1,39,89,128
1,55,101,128
1,58,95,0
1,63,111,0
1,55,44,48
1,39,105,0
1,63,95,0
1,58,91,4
1,39,120,304
1,58,101,132
1,63,109,0
1,55,110,0
1,39,100,192
1,36,78,64
1,60,86,4
1,36,76,76
1,58,100,148
1,60,96,4
1,63,101,0
1,55,100,0
1,36,108,192
1,31,120,112
1,34,115,0
1,58,101,96
1,63,105,0
1,55,94,0
1,36,106,0
1,34,109,84
1,58,94,108
1,55,91,0
1,63,105,0
1,39,89,0
1,39,103,132
1,58,107,132
1,63,113,0
1,55,103,0
1,39,93,100
1,63,70,136
1,55,64,0
1,58,89,168
1,63,109,0
1,55,96,0
1,39,117,200
1,63,111,108
1,58,89,0
1,55,92,0
1,43,70,92
1,62,72,8
1,59,73,0
1,43,107,136
1,59,103,136
1,62,110,4
1,53,111,0
1,43,84,36
1,53,77,128
1,62,80,0
1,59,60,8
1,59,104,124
1,62,104,0
1,53,108,0
1,43,97,0
1,43,82,140
1,59,78,124
1,62,69,4
1,43,87,4
1,56,90,108
1,36,78,12
1,36,96,116
1,51,109,148
1,60,104,0
1,55,95,0
1,36,100,28
1,51,97,128
1,60,92,0
1,55,84,0
1,43,110,132
1,58,82,16
1,55,89,4
1,60,96,0
1,63,100,0
1,43,99,188
1,41,118,80
1,56,102,108
1,57,118,16
1,60,124,0
1,41,107,8
1,56,83,48
1,60,56,0
1,55,77,56
1,41,94,12
1,53,108,116
1,60,102,4
1,48,96,40
1,41,90,0
1,53,104,140
1,60,95,4
1,48,99,0
1,41,91,8
1,58,72,128
1,53,91,0
1,41,96,148
1,60,81,0
1,57,89,8
1,57,104,132
1,60,94,0
1,53,107,0
1,41,91,84
1,53,100,140
1,57,103,0
1,60,91,0
1,48,104,44
1,41,108,0
1,53,116,192
1,57,120,0
1,60,108,0
1,41,96,136
1,48,106,0
1,56,126,148
1,46,127,0
1,53,118,0
1,58,105,0
1,39,88,1416
1,63,98,0
1,58,74,0
1,55,95,0
1,39,83,160
1,55,82,0
1,58,70,0
1,63,74,0
1,39,127,140
1,63,120,140
1,58,101,0
1,55,114,0
1,39,83,196
1,39,120,164
1,63,97,128
1,55,110,0
1,58,93,0
1,39,107,192
1,36,89,112
1,58,74,4
1,63,77,4
1,55,71,0
1,60,78,0
1,36,110,108
1,58,100,124
1,63,107,0
1,55,111,0
1,60,103,0
1,36,107,192
1,31,111,108
1,34,115,36
1,36,101,16
1,58,89,0
1,63,101,0
1,55,100,0
1,60,97,0
1,34,103,76
1,39,107,140
1,58,90,0
1,55,86,0
1,63,89,0
1,39,113,128
1,58,95,140
1,63,120,0
1,55,96,4
1,39,103,44
1,58,87,4
1,63,69,0
1,39,109,320
1,63,109,120
1,58,86,4
1,55,89,0
1,39,101,192
1,58,82,328
1,56,109,0
1,53,89,0
1,46,101,0
1,46,111,152
1,56,111,4
1,58,103,4
1,53,91,0
1,46,127,152
1,56,127,0
1,58,115,4
1,53,106,0
1,46,127,144
1,56,123,4
1,58,105,0
1,53,96,4
1,56,123,136
1,58,103,0
1,46,127,0
1,53,97,0
1,56,115,144
1,46,120,0
1,58,101,0
1,53,89,8
1,56,98,144
1,58,84,0
1,46,123,0
1,53,71,4
1,66,115,156
1,75,113,0
1,67,96,8
1,39,126,124
1,66,126,300
1,39,98,0
1,75,115,0
1,67,100,8
1,39,79,52
1,66,127,164
1,75,117,0
1,39,120,0
1,67,104,8
1,39,95,84
1,36,86,100
1,66,101,0
1,72,104,0
1,65,108,8
1,36,108,84
1,36,110,308
1,72,127,0
1,66,105,20
1,65,92,8
1,31,110,0
1,34,109,80
1,63,126,8
1,60,96,16
1,36,102,0
1,34,113,44
1,58,101,0
1,63,127,4
1,39,113,4
1,67,106,4
1,39,105,128
1,63,74,140
1,39,101,112
1,63,126,8
1,67,126,0
1,60,89,132
1,39,93,64
1,67,114,0
1,63,127,0
1,60,81,148
1,39,126,0
1,39,83,100
1,58,100,0
1,67,96,8
1,67,78,52
1,36,83,0
1,63,111,4
1,58,103,52
1,36,118,4
1,60,114,48
1,67,101,24
1,63,113,0
1,36,107,0
1,31,110,60
1,70,117,40
1,46,120,0
1,34,115,0
1,72,111,8
1,48,96,0
1,36,103,0
1,51,123,40
1,75,120,0
1,34,100,0
1,39,100,44
1,39,84,116
1,66,126,120
1,70,117,8
1,67,101,0
1,39,83,0
1,39,126,64
1,68,115,136
1,72,122,0
1,70,107,4
1,67,118,0
1,39,84,8
1,39,101,148
1,39,126,140
1,66,120,48
1,67,118,0
1,72,127,4
1,36,87,0
1,36,99,32
1,36,111,68
1,36,111,120
1,67,103,0
1,66,94,0
1,72,113,0
1,31,113,104
1,70,117,56
1,46,120,0
1,34,111,0
1,48,90,12
1,72,111,0
1,36,108,0
1,34,89,16
1,51,127,0
1,75,127,0
1,39,83,28
1,39,86,112
1,39,113,140
1,63,107,0
1,67,99,0
1,75,98,0
1,51,103,4
1,39,103,96
1,63,82,32
1,46,101,0
1,65,116,8
1,39,86,0
1,47,102,36
1,66,95,4
1,63,55,4
1,39,77,0
1,67,100,24
1,48,114,0
1,63,81,0
1,39,103,0
1,36,74,16
1,36,101,68
1,70,115,12
1,58,115,0
1,36,118,40
1,72,110,0
1,60,96,0
1,63,115,40
1,75,126,4
1,31,100,0
1,77,99,16
1,65,89,4
1,34,100,0
1,79,101,16
1,67,97,0
1,36,101,8
1,34,100,36
1,70,101,4
1,82,127,0
1,39,105,116
1,39,113,132
1,58,93,124
1,63,97,0
1,55,90,8
1,39,80,8
1,82,100,44
1,70,91,0
1,39,98,8
1,39,127,132
1,82,127,0
1,70,123,4
1,39,105,188
1,71,120,8
1,83,118,0
1,31,96,0
1,31,110,128
1,62,93,112
1,59,100,0
1,53,94,4
1,31,116,184
1,83,96,48
1,71,100,4
1,31,86,56
1,83,122,4
1,71,127,0
1,31,108,124
1,31,95,84
1,84,124,96
1,63,93,0
1,72,118,0
1,55,90,0
1,60,93,0
1,36,86,12
1,36,99,124
1,84,126,84
1,72,124,0
1,36,118,196
1,55,89,8
1,58,93,0
1,63,105,0
1,70,113,4
1,82,115,0
1,36,89,108
1,70,123,8
1,82,126,0
1,36,111,132
1,36,94,84
1,29,102,44
1,69,108,8
1,81,126,0
1,29,106,104
1,29,116,220
1,45,126,0
1,29,88,4
1,44,127,4
1,29,89,288
1,45,120,0
1,41,106,0
1,29,104,196
1,66,120,108
1,57,114,0
1,29,94,4
1,67,107,124
1,29,113,4
1,57,86,48
1,65,114,0
1,29,113,4
1,57,103,0
1,63,126,0
1,29,110,84
1,41,127,0
1,34,111,4
1,56,127,0
1,53,108,4
1,46,98,4
1,34,115,192
1,58,120,0
1,46,126,0
1,48,104,12
1,60,100,0
1,51,127,4
1,63,100,0
1,60,100,4
1,48,113,0
1,63,127,16
1,51,126,0
1,39,123,80
1,60,110,0
1,56,105,0
1,58,103,48
1,55,103,4
1,39,105,8
1,44,111,16
1,60,110,0
1,56,117,0
1,56,115,116
1,60,116,0
1,44,115,0
1,56,120,108
1,44,117,0
1,60,114,0
1,39,83,88
1,58,117,8
1,55,104,0
1,58,100,84
1,56,100,0
1,53,96,0
1,46,107,4
1,46,83,76
1,53,102,0
1,56,109,0
1,58,109,0
1,53,118,132
1,58,126,4
1,56,126,0
1,46,123,4
1,53,120,132
1,46,83,4
1,56,127,0
1,58,120,0
1,53,114,96
1,56,127,0
1,58,127,0
1,46,83,4
1,56,127,96
1,58,127,0
1,53,127,0
1,46,127,0
1,39,95,268
1,55,100,0
1,63,91,0
1,58,76,0
1,63,105,144
1,39,101,0
1,58,84,0
1,55,89,0
1,63,115,352
1,58,98,0
1,55,111,0
1,39,120,336
1,58,94,140
1,63,101,0
1,55,103,0
1,39,101,184
1,36,80,64
1,63,72,0
1,58,56,4
1,60,82,4
1,36,84,60
1,58,89,148
1,63,100,0
1,60,97,0
1,55,101,0
1,36,103,192
1,31,113,128
1,34,117,8
1,36,93,92
1,58,86,8
1,63,89,0
1,55,94,0
1,60,95,0
1,34,109,64
1,63,95,144
1,58,70,4
1,55,81,4
1,39,88,0
1,39,97,148
1,63,107,0
1,58,83,4
1,55,90,4
