track,note,velocity,time
1,26,100,0
1,26,0,60
1,26,100,120
1,26,0,60
1,26,100,180
1,26,0,60
1,26,100,60
1,26,0,60
1,26,100,60
1,26,0,30
1,26,100,30
1,26,0,60
1,26,100,180
1,26,0,60
1,26,100,120
1,26,0,60
1,26,100,180
1,26,0,60
1,26,100,60
1,26,0,60
1,26,100,60
1,26,0,30
1,26,100,30
1,26,0,60
1,26,100,180
1,26,0,60
1,26,100,120
1,26,0,60
1,26,100,180
1,26,0,60
1,26,100,60
1,26,0,60
1,26,100,60
1,26,0,30
1,26,100,30
1,26,0,60
1,26,100,180
1,26,0,60
1,26,100,120
1,26,0,60
1,26,100,180
1,26,0,60
1,26,100,60
1,26,0,60
1,26,100,60
1,26,0,30
1,26,100,30
1,26,0,60
1,29,100,180
1,29,0,60
1,31,100,240
1,31,0,60
1,26,100,120
1,26,0,60
1,26,100,180
1,26,0,120
1,28,100,0
1,28,0,120
1,29,100,0
1,29,0,60
1,31,100,240
1,31,0,60
1,33,100,120
1,33,0,60
1,26,100,420
1,26,0,60
1,26,100,120
1,26,0,60
1,26,100,180
1,26,0,60
1,26,100,60
1,26,0,60
1,26,100,60
1,26,0,30
1,26,100,30
1,26,0,60
1,29,100,180
1,29,0,60
1,29,100,120
1,29,0,60
1,29,100,180
1,29,0,60
1,29,100,60
1,29,0,60
1,29,100,60
1,29,0,30
1,29,100,30
1,29,0,60
1,24,100,180
1,24,0,60
1,24,100,120
1,24,0,60
1,24,100,180
1,24,0,60
1,24,100,60
1,24,0,60
1,24,100,60
1,24,0,30
1,24,100,30
1,24,0,60
1,26,100,180
1,26,0,60
1,26,100,120
1,26,0,60
1,26,100,180
1,26,0,60
1,26,100,60
1,26,0,60
1,26,100,60
1,26,0,30
1,26,100,30
1,26,0,60
1,26,100,180
1,26,0,60
1,26,100,120
1,26,0,60
1,26,100,180
1,26,0,60
1,26,100,60
1,26,0,60
1,26,100,60
1,26,0,30
1,26,100,30
1,26,0,60
1,29,100,180
1,29,0,60
1,29,100,120
1,29,0,60
1,29,100,180
1,29,0,60
1,29,100,60
1,29,0,60
1,29,100,60
1,29,0,30
1,29,100,30
1,29,0,60
1,24,100,180
1,24,0,60
1,24,100,120
1,24,0,60
1,24,100,180
1,24,0,60
1,24,100,60
1,24,0,60
1,24,100,60
1,24,0,30
1,24,100,30
1,24,0,60
1,26,100,180
1,26,0,60
1,26,100,120
1,26,0,60
1,26,100,180
1,26,0,60
1,26,100,60
1,26,0,60
1,26,100,60
1,26,0,30
1,26,100,30
1,26,0,60
1,26,100,180
1,26,0,60
1,26,100,120
1,26,0,60
1,26,100,180
1,26,0,60
1,26,100,60
1,26,0,60
1,26,100,60
1,26,0,30
1,26,100,30
1,26,0,60
1,29,100,180
1,29,0,60
1,29,100,120
1,29,0,60
1,29,100,180
1,29,0,60
1,29,100,60
1,29,0,60
1,29,100,60
1,29,0,30
1,29,100,30
1,29,0,60
1,24,100,180
1,24,0,60
1,24,100,120
1,24,0,60
1,24,100,180
1,24,0,60
1,24,100,60
1,24,0,60
1,24,100,60
1,24,0,30
1,24,100,30
1,24,0,60
1,26,100,180
1,26,0,60
1,26,100,120
1,26,0,60
1,26,100,180
1,26,0,60
1,26,100,60
1,26,0,60
1,26,100,60
1,26,0,30
1,26,100,30
1,26,0,60
1,29,100,180
1,29,0,60
1,31,100,240
1,31,0,60
1,26,100,120
1,26,0,60
1,26,100,180
1,26,0,120
1,28,100,0
1,28,0,120
1,29,100,0
1,29,0,60
1,31,100,240
1,31,0,60
1,26,100,120
1,26,0,60
1,26,100,180
1,26,0,120
1,28,100,0
1,28,0,120
1,29,100,0
1,29,0,60
1,31,100,240
1,31,0,60
1,26,100,120
1,26,0,60
1,26,100,180
1,26,0,120
1,28,100,0
1,28,0,120
1,29,100,0
1,29,0,60
1,31,100,240
1,31,0,60
1,33,100,120
1,33,0,60
1,26,100,420
1,26,0,60
1,26,100,120
1,26,0,60
1,26,100,180
1,26,0,60
1,26,100,60
1,26,0,60
1,26,100,60
1,26,0,30
1,26,100,30
1,26,0,60
1,26,100,180
1,26,0,60
1,26,100,120
1,26,0,60
1,26,100,180
1,26,0,60
1,26,100,60
1,26,0,60
1,26,100,60
1,26,0,30
1,26,100,30
1,26,0,60
1,26,100,180
1,26,0,60
1,26,100,120
1,26,0,60
1,26,100,180
1,26,0,60
1,26,100,60
1,26,0,60
1,26,100,60
1,26,0,30
1,26,100,30
1,26,0,60
1,29,100,180
1,29,0,60
1,29,100,120
1,29,0,60
1,29,100,180
1,29,0,60
1,29,100,60
1,29,0,60
1,29,100,60
1,29,0,30
1,29,100,30
1,29,0,60
1,24,100,180
1,24,0,60
1,24,100,120
1,24,0,60
1,24,100,180
1,24,0,60
1,24,100,60
1,24,0,60
1,24,100,60
1,24,0,30
1,24,100,30
1,24,0,60
1,26,100,180
1,26,0,60
1,26,100,120
1,26,0,60
1,26,100,180
1,26,0,60
1,26,100,60
1,26,0,60
1,26,100,60
1,26,0,30
1,26,100,30
1,26,0,60
1,26,100,180
1,26,0,60
1,26,100,120
1,26,0,60
1,26,100,180
1,26,0,60
1,26,100,60
1,26,0,60
1,26,100,60
1,26,0,30
1,26,100,30
1,26,0,60
1,29,100,180
1,29,0,60
1,29,100,120
1,29,0,60
1,29,100,180
1,29,0,60
1,29,100,60
1,29,0,60
1,29,100,60
1,29,0,30
1,29,100,30
1,29,0,60
1,24,100,180
1,24,0,60
1,24,100,120
1,24,0,60
1,24,100,180
1,24,0,60
1,24,100,60
1,24,0,60
1,24,100,60
1,24,0,30
1,24,100,30
1,24,0,60
1,26,100,180
1,26,0,60
1,26,100,120
1,26,0,60
1,26,100,180
1,26,0,60
1,26,100,60
1,26,0,60
1,26,100,60
1,26,0,30
1,26,100,30
1,26,0,60
1,29,100,180
1,29,0,60
1,31,100,240
1,31,0,60
1,26,100,120
1,26,0,60
1,26,100,180
1,26,0,120
1,28,100,0
1,28,0,120
1,29,100,0
1,29,0,60
1,31,100,240
1,31,0,60
1,26,100,120
1,26,0,60
1,26,100,180
1,26,0,120
1,28,100,0
1,28,0,120
1,29,100,0
1,29,0,60
1,31,100,240
1,31,0,60
1,26,100,120
1,26,0,60
1,26,100,180
1,26,0,120
1,28,100,0
1,28,0,120
1,29,100,0
1,29,0,60
1,31,100,240
1,31,0,60
1,33,100,120
1,33,0,60
1,39,127,480
1,39,0,30
1,39,127,0
1,39,0,30
1,39,127,60
1,39,0,30
1,39,127,0
1,39,0,30
1,39,127,60
1,39,0,30
1,39,127,0
1,39,0,30
1,39,127,60
1,39,0,30
1,39,127,0
1,39,0,30
1,41,127,60
1,41,0,30
1,41,127,0
1,41,0,30
1,41,127,60
1,41,0,30
1,41,127,0
1,41,0,30
1,41,127,60
1,41,0,30
1,41,127,0
1,41,0,30
1,41,127,60
1,41,0,30
1,41,127,0
1,41,0,30
1,39,127,60
1,39,0,30
1,39,127,0
1,39,0,30
1,39,127,60
1,39,0,30
1,39,127,0
1,39,0,30
1,39,127,60
1,39,0,30
1,39,127,0
1,39,0,30
1,39,127,60
1,39,0,30
1,39,127,0
1,39,0,30
1,41,127,60
1,41,0,30
1,41,127,0
1,41,0,30
1,41,127,60
1,41,0,30
1,41,127,0
1,41,0,30
1,41,127,60
1,41,0,30
1,41,127,0
1,41,0,30
1,41,127,60
1,41,0,30
1,41,127,0
1,41,0,30
1,39,127,60
1,39,0,30
1,39,127,0
1,39,0,30
1,39,127,60
1,39,0,30
1,39,127,0
1,39,0,30
1,39,127,60
1,39,0,30
1,39,127,0
1,39,0,30
1,39,127,60
1,39,0,30
1,39,127,0
1,39,0,30
1,41,127,60
1,41,0,30
1,41,127,0
1,41,0,30
1,41,127,60
1,41,0,30
1,41,127,0
1,41,0,30
1,41,127,60
1,41,0,30
1,41,127,0
1,41,0,30
1,41,127,60
1,41,0,30
1,41,127,0
1,41,0,30
1,43,127,60
1,43,0,30
1,43,127,0
1,43,0,30
1,43,127,60
1,43,0,30
1,43,127,0
1,43,0,30
1,43,127,60
1,43,0,30
1,43,127,0
1,43,0,30
1,43,127,60
1,43,0,30
1,43,127,0
1,43,0,30
1,43,127,60
1,43,0,30
1,43,127,0
1,43,0,30
1,43,127,60
1,43,0,30
1,43,127,0
1,43,0,30
1,43,127,60
1,43,0,30
1,43,127,0
1,43,0,30
1,43,127,60
1,43,0,30
1,43,127,0
1,43,0,30
1,26,100,0
1,26,0,60
1,26,100,120
1,26,0,60
1,26,100,180
1,26,0,60
1,26,100,60
1,26,0,60
1,26,100,60
1,26,0,30
1,26,100,30
1,26,0,60
1,26,100,180
1,26,0,60
1,26,100,120
1,26,0,60
1,26,100,180
1,26,0,60
1,26,100,60
1,26,0,60
1,26,100,60
1,26,0,30
1,26,100,30
1,26,0,60
1,26,100,180
1,26,0,60
1,26,100,120
1,26,0,60
1,26,100,180
1,26,0,60
1,26,100,60
1,26,0,60
1,26,100,60
1,26,0,30
1,26,100,30
1,26,0,60
1,26,100,180
1,26,0,60
1,26,100,120
1,26,0,60
1,26,100,180
1,26,0,60
1,26,100,60
1,26,0,60
1,26,100,60
1,26,0,30
1,26,100,30
1,26,0,60
1,26,127,180
1,26,0,60
1,26,127,120
1,26,0,60
1,26,127,180
1,26,0,60
1,26,127,60
1,26,0,60
1,26,127,60
1,26,0,30
1,26,127,30
1,26,0,60
1,26,127,180
1,26,0,60
1,26,127,120
1,26,0,60
1,26,127,180
1,26,0,60
1,26,127,60
1,26,0,60
1,26,127,60
1,26,0,30
1,26,127,30
1,26,0,60
1,26,127,7620
1,26,0,120
1,28,127,0
1,28,0,120
1,29,100,0
1,29,0,60
1,31,100,240
1,31,0,60
1,26,100,120
1,26,0,60
1,26,100,180
1,26,0,120
1,28,100,0
1,28,0,120
1,29,100,0
1,29,0,60
1,31,100,240
1,31,0,60
1,26,100,120
1,26,0,60
1,26,100,180
1,26,0,120
1,28,100,0
1,28,0,120
1,29,100,0
1,29,0,60
1,31,100,240
1,31,0,60
1,26,100,120
1,26,0,60
1,26,100,180
1,26,0,120
1,28,100,0
1,28,0,120
1,29,100,0
1,29,0,60
1,31,100,240
1,31,0,60
1,33,100,120
1,33,0,60
1,29,100,420
1,29,0,60
1,31,100,240
1,31,0,60
1,26,100,120
1,26,0,60
1,26,100,180
1,26,0,120
1,28,100,0
1,28,0,120
1,29,100,0
1,29,0,60
1,31,100,240
1,31,0,60
1,26,100,120
1,26,0,60
1,26,100,180
1,26,0,120
1,28,100,0
1,28,0,120
1,29,100,0
1,29,0,60
1,31,100,240
1,31,0,60
1,26,100,120
1,26,0,60
1,26,100,180
1,26,0,120
1,28,100,0
1,28,0,120
1,29,100,0
1,29,0,60
1,31,100,240
1,31,0,60
1,33,100,120
1,33,0,60
2,69,100,3840
2,65,100,0
2,60,100,0
2,60,0,60
2,65,0,0
2,69,0,0
2,69,100,0
2,65,100,0
2,60,100,0
2,60,0,15
2,65,0,0
2,69,0,0
2,65,100,15
2,69,100,0
2,60,100,0
2,60,0,15
2,69,0,0
2,65,0,0
2,69,100,15
2,65,100,0
2,60,100,0
2,60,0,15
2,65,0,0
2,69,0,0
2,69,100,15
2,65,100,0
2,60,100,0
2,60,0,15
2,65,0,0
2,69,0,0
2,69,100,15
2,65,100,0
2,60,100,0
2,60,0,15
2,65,0,0
2,69,0,0
2,69,100,15
2,65,100,0
2,60,100,0
2,60,0,15
2,65,0,0
2,69,0,0
2,69,100,15
2,65,100,0
2,60,100,0
2,60,0,15
2,65,0,0
2,69,0,0
2,69,100,15
2,65,100,0
2,60,100,0
2,60,0,15
2,65,0,0
2,69,0,0
2,71,100,15
2,67,100,0
2,62,100,0
2,62,0,60
2,67,0,0
2,71,0,0
2,62,100,0
2,62,0,15
2,62,100,15
2,62,0,15
2,62,100,15
2,62,0,15
2,62,100,15
2,62,0,15
2,69,100,15
2,66,100,0
2,62,100,0
2,62,0,60
2,66,0,0
2,69,0,0
2,69,100,0
2,66,100,0
2,62,100,0
2,62,0,15
2,66,0,0
2,69,0,0
2,69,100,15
2,66,100,0
2,62,100,0
2,62,0,15
2,66,0,0
2,69,0,0
2,69,100,15
2,66,100,0
2,62,100,0
2,62,0,15
2,66,0,0
2,69,0,0
2,69,100,15
2,66,100,0
2,62,100,0
2,62,0,15
2,66,0,0
2,69,0,0
2,69,100,15
2,66,100,0
2,62,100,0
2,62,0,15
2,66,0,0
2,69,0,0
2,69,100,15
2,66,100,0
2,62,100,0
2,62,0,15
2,66,0,0
2,69,0,0
2,69,100,15
2,66,100,0
2,62,100,0
2,62,0,15
2,66,0,0
2,69,0,0
2,69,100,15
2,66,100,0
2,62,100,0
2,62,0,15
2,66,0,0
2,69,0,0
2,69,100,15
2,66,100,0
2,62,100,0
2,62,0,15
2,66,0,0
2,69,0,0
2,69,100,15
2,62,100,0
2,66,100,0
2,66,0,15
2,62,0,0
2,69,0,0
2,69,100,15
2,66,100,0
2,62,100,0
2,62,0,15
2,66,0,0
2,69,0,0
2,69,100,15
2,66,100,0
2,62,100,0
2,62,0,15
2,66,0,0
2,69,0,0
2,69,100,15
2,66,100,0
2,62,100,0
2,62,0,15
2,66,0,0
2,69,0,0
2,69,100,15
2,66,100,0
2,62,100,0
2,62,0,15
2,66,0,0
2,69,0,0
2,69,100,15
2,65,100,0
2,60,100,0
2,60,0,60
2,65,0,0
2,69,0,0
2,69,100,0
2,65,100,0
2,60,100,0
2,60,0,15
2,65,0,0
2,69,0,0
2,65,100,15
2,69,100,0
2,60,100,0
2,60,0,15
2,69,0,0
2,65,0,0
2,69,100,15
2,65,100,0
2,60,100,0
2,60,0,15
2,65,0,0
2,69,0,0
2,69,100,15
2,65,100,0
2,60,100,0
2,60,0,15
2,65,0,0
2,69,0,0
2,69,100,15
2,65,100,0
2,60,100,0
2,60,0,15
2,65,0,0
2,69,0,0
2,69,100,15
2,65,100,0
2,60,100,0
2,60,0,15
2,65,0,0
2,69,0,0
2,69,100,15
2,65,100,0
2,60,100,0
2,60,0,15
2,65,0,0
2,69,0,0
2,69,100,15
2,65,100,0
2,60,100,0
2,60,0,15
2,65,0,0
2,69,0,0
2,71,100,15
2,67,100,0
2,62,100,0
2,62,0,60
2,67,0,0
2,71,0,0
2,62,100,0
2,62,0,15
2,62,100,15
2,62,0,15
2,62,100,15
2,62,0,15
2,62,100,15
2,62,0,15
2,69,100,15
2,73,100,0
2,64,100,0
2,64,0,60
2,73,0,0
2,69,0,0
2,73,100,0
2,69,100,0
2,64,100,0
2,64,0,15
2,69,0,0
2,73,0,0
2,73,100,15
2,69,100,0
2,64,100,0
2,64,0,15
2,69,0,0
2,73,0,0
2,64,100,15
2,69,100,0
2,73,100,0
2,73,0,15
2,69,0,0
2,64,0,0
2,73,100,15
2,69,100,0
2,64,100,0
2,64,0,15
2,69,0,0
2,73,0,0
2,73,100,15
2,69,100,0
2,64,100,0
2,64,0,15
2,69,0,0
2,73,0,0
2,73,100,15
2,69,100,0
2,64,100,0
2,64,0,15
2,69,0,0
2,73,0,0
2,57,127,38655
2,62,127,0
2,66,127,0
2,66,0,60
2,62,0,0
2,57,0,0
2,57,127,0
2,62,127,0
2,66,127,0
2,66,0,15
2,62,0,0
2,57,0,0
2,66,127,15
2,62,100,0
2,57,100,0
2,57,0,15
2,62,0,0
2,66,0,0
2,57,100,15
2,62,100,0
2,66,127,0
2,66,0,15
2,62,0,0
2,57,0,0
2,62,100,15
2,57,100,0
2,66,127,0
2,66,0,15
2,57,0,0
2,62,0,0
2,57,100,15
2,62,100,0
2,66,127,0
2,66,0,15
2,62,0,0
2,57,0,0
2,57,100,15
2,62,100,0
2,66,127,0
2,66,0,15
2,62,0,0
2,57,0,0
2,57,100,15
2,62,100,0
2,66,127,0
2,66,0,15
2,62,0,0
2,57,0,0
2,57,100,15
2,62,100,0
2,66,127,0
2,66,0,15
2,62,0,0
2,57,0,0
2,57,127,15
2,62,127,0
