track,note,velocity,time
0,60,91,144
0,60,96,0
0,64,99,0
0,55,96,0
0,46,98,0
0,72,75,0
0,76,72,0
0,60,87,4
0,55,92,292
0,60,89,4
0,79,65,0
0,60,89,4
0,55,84,292
0,60,86,4
0,84,61,0
0,55,95,0
0,63,95,0
0,60,100,0
0,46,99,0
0,75,75,0
0,60,85,4
0,55,88,292
0,60,85,4
0,60,84,4
0,82,64,0
0,81,66,4
0,53,92,4
0,82,60,0
0,58,86,4
0,77,65,0
0,53,101,0
0,58,97,0
0,62,102,0
0,46,99,0
0,70,71,0
0,74,67,0
0,58,90,4
0,53,91,292
0,58,92,4
0,58,90,4
0,53,88,292
0,58,87,4
0,58,87,4
0,53,89,292
0,58,86,4
0,58,86,4
0,55,93,48
0,60,84,4
0,60,100,0
0,64,94,0
0,55,97,0
0,46,96,0
0,72,76,0
0,76,67,0
0,46,92,0
0,36,115,0
0,42,54,0
0,60,93,4
0,46,98,0
0,42,56,0
0,36,117,68
0,38,118,0
0,42,55,0
0,55,86,120
0,46,90,0
0,42,57,0
0,43,61,0
0,60,89,4
0,79,61,0
0,46,92,0
0,36,114,0
0,42,53,0
0,60,88,4
0,42,55,0
0,34,91,100
0,36,123,0
0,38,119,0
0,42,56,0
0,43,54,0
0,55,86,4
0,34,90,0
0,42,56,0
0,43,57,0
0,60,93,4
0,84,58,0
0,55,99,0
0,63,95,0
0,60,101,0
0,46,103,0
0,75,71,0
0,46,92,0
0,36,117,0
0,42,53,0
0,60,84,4
0,46,93,0
0,42,53,0
0,36,123,68
0,38,121,0
0,42,50,0
0,55,89,188
0,46,92,0
0,42,58,0
0,43,59,0
0,60,89,4
0,46,97,0
0,36,121,0
0,42,56,0
0,60,89,4
0,82,64,0
0,42,50,0
0,81,59,4
0,34,96,0
0,36,121,0
0,38,122,0
0,42,59,0
0,43,58,0
0,53,92,4
0,82,59,0
0,34,98,0
0,42,56,0
0,43,62,0
0,58,84,4
0,77,60,0
0,53,103,0
0,58,97,0
0,62,99,0
0,46,102,0
0,70,76,0
0,74,68,0
0,46,91,0
0,36,118,0
0,42,56,0
0,58,93,4
0,46,96,0
0,42,51,0
0,36,114,68
0,38,115,0
0,42,54,0
0,53,89,188
0,46,96,0
0,42,55,0
0,43,61,0
0,58,84,4
0,46,96,0
0,36,123,0
0,42,50,0
0,58,91,4
0,42,53,0
0,34,90,100
0,36,117,0
0,38,120,0
0,42,58,0
0,43,63,0
0,53,93,4
0,34,95,0
0,42,52,0
0,43,58,0
0,58,88,4
0,46,90,0
0,36,117,0
0,42,56,0
0,58,90,4
0,46,91,0
0,42,52,0
0,36,120,68
0,38,118,0
0,42,54,0
0,53,84,188
0,46,91,0
0,42,53,0
0,43,57,0
0,58,88,4
0,46,97,0
0,36,123,0
0,42,53,0
0,58,88,4
0,42,50,0
0,34,90,100
0,36,114,0
0,38,116,0
0,42,51,0
0,43,58,0
0,55,84,4
0,34,99,0
0,42,54,0
0,43,57,0
0,60,91,4
0,60,98,0
0,64,103,0
0,55,103,0
0,46,99,0
0,72,70,0
0,76,67,0
0,46,99,0
0,36,122,0
0,42,53,0
0,60,87,4
0,46,96,0
0,42,58,0
0,36,115,68
0,38,116,0
0,42,51,0
0,55,90,188
0,46,92,0
0,42,55,0
0,43,59,0
0,60,88,4
0,79,62,0
0,46,90,0
0,36,119,0
0,42,56,0
0,60,86,4
0,42,59,0
0,34,90,100
0,36,123,0
0,38,119,0
0,42,58,0
0,43,59,0
0,55,93,4
0,34,92,0
0,42,54,0
0,43,54,0
0,60,91,4
0,84,63,0
0,55,97,0
0,63,95,0
0,60,102,0
0,46,95,0
0,75,74,0
0,46,99,0
0,36,122,0
0,42,50,0
0,60,87,4
0,46,93,0
0,42,56,0
0,36,122,68
0,38,122,0
0,42,56,0
0,55,87,188
0,46,94,0
0,42,55,0
0,43,59,0
0,60,91,4
0,46,96,0
0,36,120,0
0,42,58,0
0,60,87,4
0,82,61,0
0,42,50,0
0,81,61,4
0,34,97,0
0,36,119,0
0,38,114,0
0,42,53,0
0,43,55,0
0,53,89,4
0,82,58,0
0,34,91,0
0,42,59,0
0,43,54,0
0,72,120,4
0,58,91,0
0,77,60,0
0,53,95,0
0,58,101,0
0,62,103,0
0,46,102,0
0,70,74,0
0,74,72,0
0,46,95,0
0,36,114,0
0,42,59,0
0,70,119,4
0,58,84,0
0,46,93,0
0,42,59,0
0,36,119,52
0,38,123,0
0,42,52,0
0,69,121,188
0,53,84,0
0,46,91,0
0,42,56,0
0,43,54,0
0,58,89,4
0,46,97,0
0,36,115,0
0,42,52,0
0,70,117,4
0,58,90,0
0,42,50,0
0,72,115,4
0,34,95,0
0,36,114,0
0,38,116,0
0,42,56,0
0,43,58,0
0,74,121,4
0,53,89,0
0,34,99,0
0,42,50,0
0,43,59,0
0,72,115,4
0,58,92,0
0,46,99,0
0,36,120,0
0,42,57,0
0,70,123,4
0,58,87,0
0,46,91,0
0,42,53,0
0,36,114,45
0,38,120,0
0,42,58,0
0,69,119,188
0,53,92,0
0,46,92,0
0,42,59,0
0,43,60,0
0,58,90,4
0,46,94,0
0,36,114,0
0,42,57,0
0,70,114,4
0,58,84,0
0,42,58,0
0,72,117,4
0,34,92,0
0,36,119,0
0,38,121,0
0,42,57,0
0,43,59,0
0,74,121,4
0,55,88,0
0,34,96,0
0,42,58,0
0,43,55,0
0,72,122,4
0,60,88,0
0,60,101,0
0,64,96,0
0,55,101,0
0,46,96,0
0,72,67,0
0,76,74,0
0,46,96,0
0,36,118,0
0,42,59,0
0,60,92,4
0,46,91,0
0,42,57,0
0,36,121,68
0,38,122,0
0,42,50,0
0,55,88,188
0,46,90,0
0,42,52,0
0,43,61,0
0,60,86,4
0,79,59,0
0,46,92,0
0,36,115,0
0,42,58,0
0,60,89,4
0,42,51,0
0,34,99,100
0,36,118,0
0,38,115,0
0,42,52,0
0,43,55,0
0,55,86,4
0,34,91,0
0,42,55,0
0,43,63,0
0,60,90,4
0,84,63,0
0,55,102,0
0,63,103,0
0,60,103,0
0,46,96,0
0,75,74,0
0,46,90,0
0,36,122,0
0,42,52,0
0,60,84,4
0,46,99,0
0,42,50,0
0,36,117,68
0,38,120,0
0,42,54,0
0,55,84,188
0,46,95,0
0,42,54,0
0,43,59,0
0,60,87,4
0,46,94,0
0,36,120,0
0,42,57,0
0,60,85,4
0,82,63,0
0,42,59,0
0,81,60,4
0,34,90,0
0,36,119,0
0,38,117,0
0,42,52,0
0,43,62,0
0,53,88,4
0,82,61,0
0,34,90,0
0,42,56,0
0,43,56,0
0,72,117,4
0,58,90,0
0,77,60,0
0,53,96,0
0,58,102,0
0,62,99,0
0,46,97,0
0,70,76,0
0,74,76,0
0,34,96,0
0,36,119,0
0,42,59,0
0,70,120,4
0,58,87,0
0,34,94,0
0,42,56,0
0,36,123,68
0,38,118,0
0,42,58,0
0,69,118,188
0,53,91,0
0,34,94,0
0,42,57,0
0,43,55,0
0,58,91,4
0,34,94,0
0,36,122,0
0,42,56,0
0,70,120,4
0,58,87,0
0,42,56,0
0,36,122,45
0,38,123,0
0,42,57,0
0,43,55,0
0,72,114,188
0,53,88,0
0,42,51,0
0,43,60,0
0,46,35,4
0,58,93,0
0,34,96,0
0,36,118,0
0,42,56,0
0,46,36,4
0,46,38,4
0,46,39,4
0,46,40,4
0,74,118,0
0,58,88,0
0,34,94,0
0,42,50,0
0,46,41,4
0,46,42,4
0,46,43,4
0,46,44,4
0,36,117,0
0,38,118,0
0,42,57,0
0,46,45,4
0,46,46,4
0,46,48,4
0,46,49,4
0,53,90,0
0,34,96,0
0,42,54,0
0,43,59,0
0,46,50,4
0,46,51,4
0,46,52,4
0,46,53,4
0,58,85,0
0,34,94,0
0,36,118,0
0,42,58,0
0,77,114,3
0,46,54,4
0,46,55,4
0,46,57,4
0,46,58,4
0,58,89,0
0,42,57,0
0,46,59,4
0,77,117,1
0,46,60,3
0,46,63,4
0,46,69,4
0,36,118,0
0,38,119,0
0,42,54,0
0,43,57,0
0,46,75,4
0,46,81,4
0,46,87,4
0,77,120,23
0,46,93,4
0,42,50,0
0,43,57,0
0,46,99,4
0,46,105,4
0,46,111,2
0,79,121,0
0,62,97,0
0,58,95,0
0,65,97,0
0,70,95,0
0,34,95,0
0,36,116,0
0,42,54,0
0,49,107,0
0,42,56,132
0,77,122,1
0,36,121,100
0,38,123,0
0,42,58,0
0,76,121,164
0,34,92,23
0,42,59,0
0,43,56,0
0,34,93,4
0,36,119,0
0,42,50,0
0,77,114,1
0,62,71,186
0,65,74,0
0,70,73,0
0,42,53,0
0,36,117,100
0,38,117,0
0,42,59,0
0,43,58,0
0,62,76,188
0,65,68,0
0,70,74,0
0,34,93,0
0,42,59,0
0,43,60,0
0,34,94,4
0,36,118,0
0,42,53,0
0,42,52,188
0,36,116,100
0,38,119,0
0,42,58,0
0,34,94,188
0,42,57,0
0,43,58,0
0,77,116,81
0,62,102,4
0,58,98,0
0,65,98,0
0,34,96,0
0,36,118,0
0,42,51,0
0,42,55,188
0,77,122,43
0,67,97,4
0,36,118,96
0,38,120,0
0,42,58,0
0,43,54,0
0,77,121,46
0,70,98,4
0,34,96,0
0,42,58,0
0,43,58,0
0,79,115,0
0,58,96,0
0,62,100,0
0,69,96,0
0,65,96,0
0,34,97,0
0,36,118,0
0,42,50,0
0,42,52,132
0,36,123,100
0,38,115,0
0,42,51,0
0,77,115,168
0,34,99,13
0,42,56,0
0,43,59,0
0,76,116,50
0,77,116,92
0,34,95,4
0,36,119,0
0,42,53,0
0,62,70,188
0,65,70,0
0,69,71,0
0,42,54,0
0,36,122,100
0,38,122,0
0,42,55,0
0,43,63,0
0,62,76,188
0,65,73,0
0,69,67,0
0,34,94,0
0,42,57,0
0,43,57,0
0,34,91,4
0,36,122,0
0,42,50,0
0,42,52,188
0,36,123,100
0,38,122,0
0,42,58,0
0,62,96,100
0,34,99,0
0,42,54,0
0,43,54,0
0,77,116,92
0,65,95,4
0,34,92,0
0,36,122,0
0,42,52,0
0,42,50,188
0,77,117,50
0,67,98,4
0,36,115,96
0,38,117,0
0,42,56,0
0,43,57,0
0,77,121,55
0,68,94,4
0,34,92,0
0,42,53,0
0,43,56,0
0,68,95,0
0,58,96,0
0,65,97,0
0,60,97,0
0,34,91,0
0,36,114,0
0,42,55,0
0,79,119,2
0,42,59,132
0,77,121,4
0,36,122,100
0,38,120,0
0,42,54,0
0,76,119,136
0,34,91,45
0,42,57,0
0,43,63,0
0,77,122,183
0,34,90,4
0,36,117,0
0,42,57,0
0,62,73,187
0,65,76,0
0,68,72,0
0,42,53,0
0,36,123,100
0,38,117,0
0,42,55,0
0,43,60,0
0,62,67,188
0,65,76,0
0,68,69,0
0,34,93,0
0,42,54,0
0,43,61,0
0,34,93,4
0,36,117,0
0,42,54,0
0,42,52,188
0,77,120,95
0,36,117,5
0,38,118,0
0,42,54,0
0,74,120,0
0,34,91,8
0,42,52,0
0,43,62,0
0,77,121,23
0,70,103,4
0,34,96,0
0,36,122,0
0,42,58,0
0,42,55,188
0,75,117,0
0,68,98,4
0,36,117,0
0,38,120,0
0,42,57,0
0,43,58,0
0,77,122,2
0,34,93,186
0,42,51,0
0,43,56,0
0,58,102,4
0,63,98,0
0,67,97,0
0,39,90,0
0,36,123,0
0,42,56,0
0,77,116,2
0,42,50,186
0,36,123,100
0,38,123,0
0,42,50,0
0,39,96,188
0,42,59,0
0,43,57,0
0,75,116,181
0,39,98,4
0,36,121,0
0,42,53,0
0,63,70,183
0,67,75,0
0,70,68,0
0,42,54,0
0,77,114,0
0,36,121,0
0,38,117,0
0,42,58,0
0,43,56,0
0,75,115,125
0,63,71,7
0,67,70,0
0,70,75,0
0,39,91,0
0,42,54,0
0,43,55,0
0,39,98,4
0,36,119,0
0,42,55,0
0,42,55,188
0,36,119,100
0,38,119,0
0,42,52,0
0,39,95,188
0,42,56,0
0,43,61,0
0,75,118,63
0,39,98,4
0,36,114,0
0,42,53,0
0,42,55,188
0,75,118,45
0,36,121,100
0,38,117,0
0,42,56,0
0,43,61,0
0,75,120,50
0,39,91,52
0,42,59,0
0,43,63,0
0,58,100,4
0,63,95,0
0,66,100,0
0,61,99,0
0,39,94,0
0,36,116,0
0,42,52,0
0,77,121,6
0,42,54,182
0,75,120,89
0,36,119,11
0,38,117,0
0,42,52,0
0,74,121,7
0,39,94,10
0,42,56,0
0,43,55,0
0,75,122,155
0,39,91,4
0,36,119,0
0,42,55,0
0,63,68,188
0,66,71,0
0,70,76,0
0,42,59,0
0,36,123,100
0,38,121,0
0,42,50,0
0,43,61,0
0,63,69,188
0,66,69,0
0,70,73,0
0,39,94,0
0,42,58,0
0,43,61,0
0,39,90,4
0,36,122,0
0,42,54,0
0,42,56,188
0,36,118,100
0,38,114,0
0,42,55,0
0,65,122,59
0,39,93,1
0,42,50,0
0,43,56,0
0,75,122,4
0,58,101,0
0,61,100,0
0,66,94,0
0,63,96,0
0,39,95,0
0,36,114,0
0,42,56,0
0,42,58,188
0,65,98,4
0,75,119,44
0,36,119,2
0,38,120,0
0,42,56,0
0,43,63,0
0,63,101,4
0,39,93,0
0,42,58,0
0,43,55,0
0,75,120,0
0,58,95,0
0,62,101,0
0,65,97,0
0,34,93,0
0,36,118,0
0,42,51,0
0,42,54,132
0,74,114,1
0,36,123,100
0,38,121,0
0,42,57,0
0,74,122,53
0,34,98,18
0,42,52,0
0,43,54,0
0,72,118,0
0,34,98,4
0,36,117,0
0,42,55,0
0,75,120,7
0,62,71,13
0,65,68,0
0,70,68,0
0,42,50,0
0,36,121,100
0,38,122,0
0,42,56,0
0,43,58,0
0,62,68,53
0,65,75,0
0,70,69,0
0,34,96,0
0,42,55,0
0,43,60,0
0,74,120,2
0,34,98,4
0,36,116,0
0,42,52,0
0,42,55,188
0,36,114,100
0,38,123,0
0,42,53,0
0,34,90,188
0,42,52,0
0,43,59,0
0,74,120,60
0,34,94,4
0,36,121,0
0,42,57,0
0,42,54,188
0,74,118,44
0,36,122,100
0,38,115,0
0,42,51,0
0,43,54,0
0,74,123,52
0,34,91,38
0,42,52,0
0,43,61,0
0,74,116,2
0,60,103,2
0,67,95,0
0,64,100,0
0,72,95,0
0,46,94,0
0,34,90,0
0,36,116,0
0,42,51,0
0,72,122,178
0,42,59,8
0,72,115,49
0,36,117,18
0,38,123,0
0,42,52,0
0,74,115,4
0,34,93,94
0,42,50,0
0,43,59,0
0,72,121,64
0,34,92,4
0,36,115,0
0,42,52,0
0,64,69,188
0,67,67,0
0,72,67,0
0,42,52,0
0,36,116,100
0,38,116,0
0,42,55,0
0,43,54,0
0,63,73,188
0,67,72,0
0,72,71,0
0,34,95,0
0,42,52,0
0,43,61,0
0,72,103,4
0,63,99,0
0,67,96,0
0,60,96,0
0,46,100,0
0,34,93,0
0,36,122,0
0,42,58,0
0,42,51,188
0,36,116,100
0,38,116,0
0,42,57,0
0,34,97,119
0,42,59,0
0,43,56,0
0,65,120,2
0,34,98,4
0,36,121,0
0,42,51,0
0,72,115,6
0,42,57,182
0,70,120,10
0,36,121,100
0,38,121,0
0,42,59,0
0,43,56,0
0,69,117,8
0,34,97,53
0,42,57,0
0,43,58,0
0,72,119,7
0,72,122,4
0,70,99,0
0,62,99,0
0,65,98,0
0,58,102,0
0,53,98,0
0,46,99,0
0,60,71,0
0,34,97,0
0,36,122,0
0,42,54,0
0,70,122,4
0,58,67,0
0,42,51,0
0,70,118,5
0,36,116,59
0,38,114,0
0,42,56,0
0,70,122,55
0,69,121,2
0,57,70,0
0,34,96,0
0,42,59,0
0,43,54,0
0,69,114,96
0,34,95,4
0,36,120,0
0,42,59,0
0,70,117,4
0,70,123,181
0,58,68,0
0,42,54,0
0,36,114,49
0,38,115,0
0,42,56,0
0,43,63,0
0,72,121,188
0,60,70,0
0,34,98,0
0,42,55,0
0,43,61,0
0,46,27,4
0,34,92,0
0,36,123,0
0,42,54,0
