track,note,velocity,time
1,64,101,1336
1,60,119,0
1,57,119,0
1,52,109,0
1,50,78,208
1,53,109,30
1,57,84,60
1,62,107,20
1,52,93,244
1,56,97,8
1,59,74,36
1,64,95,42
1,53,107,480
1,57,113,2
1,60,117,4
1,59,119,180
1,55,117,2
1,62,113,0
1,64,101,302
1,60,119,0
1,57,119,0
1,52,109,0
1,50,78,208
1,53,109,30
1,57,84,60
1,62,107,20
1,52,93,244
1,56,97,8
1,59,74,36
1,64,95,42
1,53,107,480
1,57,113,2
1,60,117,4
1,59,119,180
1,55,117,2
1,62,113,0
1,52,55,672
1,57,94,10
1,69,63,8
1,61,99,6
1,64,102,6
1,69,92,6
1,64,94,6
1,61,78,42
1,57,70,6
1,61,99,6
1,64,99,6
1,69,97,4
1,50,55,370
1,57,94,10
1,69,63,8
1,62,99,6
1,66,102,6
1,69,92,6
1,66,94,6
1,62,78,42
1,57,70,6
1,62,99,6
1,66,99,6
1,69,97,4
1,52,55,370
1,56,94,10
1,68,63,8
1,59,99,6
1,64,102,6
1,68,92,6
1,64,94,6
1,59,78,42
1,56,70,6
1,59,99,6
1,64,99,6
1,68,97,4
1,52,55,370
1,57,94,10
1,69,63,8
1,61,99,6
1,64,102,6
1,69,92,6
1,64,94,6
1,61,78,42
1,57,70,6
1,61,99,6
1,64,99,6
1,69,97,4
1,59,94,380
1,69,63,8
1,62,99,6
1,66,102,6
1,69,92,6
1,66,94,6
1,62,78,42
1,59,70,6
1,62,99,6
1,66,99,6
1,69,97,4
1,54,94,380
1,66,63,8
1,59,99,6
1,62,102,6
1,68,92,6
1,64,94,6
1,59,78,42
1,56,70,20
1,59,99,6
1,64,99,6
1,68,97,4
1,54,55,370
1,57,94,10
1,69,63,8
1,61,99,6
1,66,102,6
1,69,92,6
1,66,94,6
1,61,78,42
1,57,70,6
1,61,99,6
1,66,99,6
1,69,97,4
1,50,55,370
1,57,94,10
1,69,63,8
1,62,99,6
1,66,102,6
1,69,92,6
1,66,94,6
1,62,78,42
1,57,70,6
1,62,99,6
1,66,99,6
1,69,97,4
1,52,55,370
1,57,94,10
1,71,63,8
1,61,99,6
1,66,102,6
1,69,92,6
1,64,94,6
1,61,78,42
1,57,70,6
1,61,99,6
1,64,99,6
1,69,97,4
1,52,55,370
1,57,94,10
1,69,63,8
1,61,99,6
1,64,102,6
1,69,92,6
1,64,94,6
1,61,78,42
1,57,70,6
1,61,99,6
1,64,99,6
1,69,97,4
1,52,55,370
1,57,94,10
1,69,63,8
1,61,99,6
1,64,102,6
1,69,92,6
1,64,94,6
1,61,78,42
1,57,70,6
1,61,99,6
1,64,99,6
1,69,97,4
1,50,55,370
1,57,94,10
1,69,63,8
1,62,99,6
1,66,102,6
1,69,92,6
1,66,94,6
1,62,78,42
1,57,70,6
1,62,99,6
1,66,99,6
1,69,97,4
1,52,55,370
1,56,94,10
1,68,63,8
1,59,99,6
1,64,102,6
1,68,92,6
1,64,94,6
1,59,78,42
1,56,70,6
1,59,99,6
1,64,99,6
1,68,97,4
1,52,55,370
1,57,94,10
1,69,63,8
1,61,99,6
1,64,102,6
1,69,92,6
1,64,94,6
1,61,78,42
1,57,70,6
1,61,99,6
1,64,99,6
1,69,97,4
1,59,94,380
1,69,63,8
1,62,99,6
1,66,102,6
1,69,92,6
1,66,94,6
1,62,78,42
1,59,70,6
1,62,99,6
1,66,99,6
1,69,97,4
1,54,94,380
1,66,63,8
1,59,99,6
1,62,102,6
1,68,92,6
1,64,94,6
1,59,78,42
1,56,70,20
1,59,99,6
1,64,99,6
1,68,97,4
1,54,55,370
1,57,94,10
1,69,63,8
1,61,99,6
1,66,102,6
1,69,92,6
1,66,94,6
1,61,78,42
1,57,70,6
1,61,99,6
1,66,99,6
1,69,97,4
1,50,55,370
1,57,94,10
1,69,63,8
1,62,99,6
1,66,102,6
1,69,92,6
1,66,94,6
1,62,78,42
1,57,70,6
1,62,99,6
1,66,99,6
1,69,97,4
1,52,55,370
1,57,94,10
1,71,63,8
1,61,99,6
1,66,102,6
1,69,92,6
1,64,94,6
1,61,78,42
1,57,70,6
1,61,99,6
1,64,99,6
1,69,97,4
1,52,55,370
1,57,94,10
1,69,63,8
1,61,99,6
1,64,102,6
1,69,92,6
1,64,94,6
1,61,78,42
1,57,70,6
1,61,99,6
1,64,99,6
1,69,97,4
1,67,120,23676
1,59,120,0
1,56,115,0
1,56,114,166
1,59,120,0
1,65,118,0
1,57,121,178
1,64,117,0
1,52,115,0
1,65,118,238
1,53,118,0
1,60,122,0
1,52,120,236
1,59,121,0
1,64,121,0
1,59,120,760
1,67,120,0
1,56,116,0
1,59,121,150
1,65,120,0
1,56,116,0
1,64,115,138
1,52,118,0
1,57,112,2
1,65,117,224
1,53,115,0
1,60,122,0
1,52,121,178
1,64,122,0
1,59,122,0
1,64,108,196
1,57,111,2
1,52,104,6
1,57,95,26
1,60,122,74
1,65,120,0
1,53,121,0
1,55,118,170
1,62,121,4
1,67,120,2
1,52,55,516
1,57,94,10
1,69,63,8
1,61,99,6
1,64,102,6
1,69,92,6
1,64,94,6
1,61,78,42
1,57,70,6
1,61,99,6
1,64,99,6
1,69,97,4
1,50,55,370
1,57,94,10
1,69,63,8
1,62,99,6
1,66,102,6
1,69,92,6
1,66,94,6
1,62,78,42
1,57,70,6
1,62,99,6
1,66,99,6
1,69,97,4
1,52,55,370
1,56,94,10
1,68,63,8
1,59,99,6
1,64,102,6
1,68,92,6
1,64,94,6
1,59,78,42
1,56,70,6
1,59,99,6
1,64,99,6
1,68,97,4
1,52,55,370
1,57,94,10
1,69,63,8
1,61,99,6
1,64,102,6
1,69,92,6
1,64,94,6
1,61,78,42
1,57,70,6
1,61,99,6
1,64,99,6
1,69,97,4
1,59,94,380
1,69,63,8
1,62,99,6
1,66,102,6
1,69,92,6
1,66,94,6
1,62,78,42
1,59,70,6
1,62,99,6
1,66,99,6
1,69,97,4
1,54,94,380
1,66,63,8
1,59,99,6
1,62,102,6
1,68,92,6
1,64,94,6
1,59,78,42
1,56,70,20
1,59,99,6
1,64,99,6
1,68,97,4
1,54,55,370
1,57,94,10
1,69,63,8
1,61,99,6
1,66,102,6
1,69,92,6
1,66,94,6
1,61,78,42
1,57,70,6
1,61,99,6
1,66,99,6
1,69,97,4
1,50,55,370
1,57,94,10
1,69,63,8
1,62,99,6
1,66,102,6
1,69,92,6
1,66,94,6
1,62,78,42
1,57,70,6
1,62,99,6
1,66,99,6
1,69,97,4
1,52,55,370
1,57,94,10
1,71,63,8
1,61,99,6
1,66,102,6
1,69,92,6
1,64,94,6
1,61,78,42
1,57,70,6
1,61,99,6
1,64,99,6
1,69,97,4
1,52,55,370
1,57,94,10
1,69,63,8
1,61,99,6
1,64,102,6
1,69,92,6
1,64,94,6
1,61,78,42
1,57,70,6
1,61,99,6
1,64,99,6
1,69,97,4
1,67,120,23676
1,59,120,0
1,56,115,0
1,56,114,166
1,59,120,0
1,65,118,0
1,57,121,178
1,64,117,0
1,52,115,0
1,65,118,238
1,53,118,0
1,60,122,0
1,52,120,236
1,59,121,0
1,64,121,0
1,59,120,760
1,67,120,0
1,56,116,0
1,59,121,150
1,65,120,0
1,56,116,0
1,64,115,138
1,52,118,0
1,57,112,2
1,65,117,224
1,53,115,0
1,60,122,0
1,52,121,178
1,64,122,0
1,59,122,0
1,64,108,196
1,57,111,2
1,52,104,6
1,57,95,26
1,60,122,74
1,65,120,0
1,53,121,0
1,55,118,170
1,62,121,4
1,67,120,2
1,52,55,516
1,57,94,10
1,69,63,8
1,61,99,6
1,64,102,6
1,69,92,6
1,64,94,6
1,61,78,42
1,57,70,6
1,61,99,6
1,64,99,6
1,69,97,4
1,50,55,370
1,57,94,10
1,69,63,8
1,62,99,6
1,66,102,6
1,69,92,6
1,66,94,6
1,62,78,42
1,57,70,6
1,62,99,6
1,66,99,6
1,69,97,4
1,52,55,370
1,56,94,10
1,68,63,8
1,59,99,6
1,64,102,6
1,68,92,6
1,64,94,6
1,59,78,42
1,56,70,6
1,59,99,6
1,64,99,6
1,68,97,4
1,52,55,370
1,57,94,10
1,69,63,8
1,61,99,6
1,64,102,6
1,69,92,6
1,64,94,6
1,61,78,42
1,57,70,6
1,61,99,6
1,64,99,6
1,69,97,4
1,59,94,380
1,69,63,8
1,62,99,6
1,66,102,6
1,69,92,6
1,66,94,6
1,62,78,42
1,59,70,6
1,62,99,6
1,66,99,6
1,69,97,4
1,54,94,380
1,66,63,8
1,59,99,6
1,62,102,6
1,68,92,6
1,64,94,6
1,59,78,42
1,56,70,20
1,59,99,6
1,64,99,6
1,68,97,4
1,54,55,370
1,57,94,10
1,69,63,8
1,61,99,6
1,66,102,6
1,69,92,6
1,66,94,6
1,61,78,42
1,57,70,6
1,61,99,6
1,66,99,6
1,69,97,4
1,50,55,370
1,57,94,10
1,69,63,8
1,62,99,6
1,66,102,6
1,69,92,6
1,66,94,6
1,62,78,42
1,57,70,6
1,62,99,6
1,66,99,6
1,69,97,4
1,52,55,370
1,57,94,10
1,71,63,8
1,61,99,6
1,66,102,6
1,69,92,6
1,64,94,6
1,61,78,42
1,57,70,6
1,61,99,6
1,64,99,6
1,69,97,4
1,52,55,370
1,57,94,10
1,69,63,8
1,61,99,6
1,64,102,6
1,69,92,6
1,64,94,6
1,61,78,42
1,57,70,6
1,61,99,6
1,64,99,6
1,69,97,4
1,67,120,23676
1,59,120,0
1,56,115,0
1,56,114,166
1,59,120,0
1,65,118,0
1,57,121,178
1,64,117,0
1,52,115,0
1,65,118,238
1,53,118,0
1,60,122,0
1,52,120,236
1,59,121,0
1,64,121,0
1,59,120,760
1,67,120,0
1,56,116,0
1,59,121,150
1,65,120,0
1,56,116,0
1,64,115,138
1,52,118,0
1,53,113,2
1,57,112,0
1,65,117,224
1,53,115,0
1,60,122,0
1,52,121,178
1,64,122,0
1,59,122,0
1,67,120,636
1,59,120,0
1,56,115,0
1,56,114,166
1,59,120,0
1,65,118,0
1,57,121,178
1,64,117,0
1,52,115,0
1,65,118,238
1,53,118,0
1,60,122,0
1,52,120,236
1,59,121,0
1,64,121,0
1,59,120,760
1,67,120,0
1,56,116,0
1,59,121,150
1,65,120,0
1,56,116,0
1,64,115,138
1,52,118,0
1,53,113,2
1,57,112,0
1,65,117,224
1,53,115,0
1,60,122,0
1,52,121,178
1,64,122,0
1,59,122,0
1,67,120,636
1,59,120,0
1,56,115,0
1,56,114,166
1,59,120,0
1,65,118,0
1,57,121,178
1,64,117,0
1,52,115,0
1,65,118,238
1,53,118,0
1,60,122,0
1,52,120,236
1,59,121,0
1,64,121,0
1,59,120,760
1,67,120,0
1,56,116,0
1,59,121,150
1,65,120,0
1,56,116,0
1,64,115,138
1,52,118,0
1,53,113,2
1,57,112,0
1,65,117,224
1,53,115,0
1,60,122,0
1,65,118,0
1,53,118,0
1,60,122,0
1,69,121,236
1,60,121,0
1,57,120,0
2,33,102,1336
2,33,108,138
2,33,99,144
2,33,112,172
2,45,106,2
2,33,108,2
2,33,94,130
2,33,112,126
2,31,101,26
2,33,101,4
2,33,108,142
2,33,98,152
2,33,110,154
2,45,102,10
2,33,108,512
2,33,97,128
2,33,109,154
2,31,98,254
2,33,102,124
2,33,110,134
2,33,93,134
2,33,112,116
2,45,104,6
2,33,108,512
2,33,97,122
2,33,108,104
2,31,97,12
2,33,101,130
2,33,108,108
2,33,98,118
2,33,110,142
2,45,99,254
2,33,108,502
2,33,98,84
2,33,107,122
2,31,99,254
2,33,99,98
2,33,110,118
2,33,93,106
2,33,108,84
2,31,94,2
2,33,88,8
2,33,110,120
2,33,95,96
2,33,110,88
2,33,93,152
2,33,108,114
2,33,94,78
2,33,108,108
2,31,98,256
2,33,98,124
2,33,110,98
2,33,88,84
2,33,108,116
2,31,92,260
2,33,95,8
2,33,108,70
2,33,94,102
2,33,109,96
2,33,102,124
2,33,109,146
2,28,104,4
2,28,112,74
2,30,102,20
2,30,109,82
2,30,91,96
2,30,107,92
2,38,101,90
2,38,105,84
2,38,98,94
2,38,114,98
2,31,98,6
2,33,97,126
2,33,111,120
2,33,95,102
2,33,110,90
2,33,94,96
2,33,108,114
2,33,98,120
2,35,93,256
2,33,100,106
2,35,91,210
2,33,99,118
2,33,109,104
2,33,94,98
2,33,109,122
2,31,95,258
2,33,98,72
2,33,111,116
2,33,97,78
2,33,108,100
2,31,98,258
2,33,89,110
2,33,111,140
2,33,93,86
2,33,109,82
2,33,96,96
2,33,107,120
2,33,95,106
2,33,110,96
2,33,94,90
2,33,108,104
2,33,97,84
2,33,108,116
2,33,99,104
2,33,113,136
2,28,101,254
2,28,112,46
2,30,102,254
2,30,109,112
2,30,96,110
2,30,107,118
2,36,103,30
2,38,101,130
2,38,110,144
2,38,90,86
2,38,110,114
2,31,98,18
2,33,98,128
2,33,112,120
2,33,99,108
2,33,108,160
2,33,103,158
2,33,111,166
2,37,97,256
2,40,106,328
2,42,98,76
2,40,105,216
2,33,99,0
2,33,111,110
2,35,95,68
2,35,112,108
2,36,96,50
2,36,110,110
2,40,98,90
2,40,114,146
2,31,98,70
2,31,109,90
2,31,93,108
2,31,111,122
2,29,73,258
2,31,98,0
2,31,108,158
2,35,109,6
2,36,102,128
2,48,112,198
2,47,104,46
2,38,93,44
2,38,108,110
2,38,96,112
2,38,109,142
2,38,94,138
2,38,109,138
2,38,94,114
2,38,104,134
2,40,99,256
2,41,98,124
2,41,113,116
2,41,99,142
2,41,110,138
2,41,98,36
2,43,109,128
2,43,100,106
2,43,100,100
2,43,114,122
2,33,102,112
2,33,110,126
2,35,99,66
2,35,112,132
2,36,95,56
2,36,112,134
2,40,100,82
2,40,110,114
2,40,98,62
2,31,94,124
2,31,108,98
2,31,98,102
2,31,113,130
2,31,98,122
2,31,108,158
2,35,109,6
2,36,102,128
2,48,112,198
2,47,104,46
2,38,102,34
2,38,111,116
2,38,93,132
2,38,112,122
2,38,92,128
2,38,109,122
2,38,81,124
2,38,105,172
2,38,98,60
2,40,102,124
2,40,111,62
2,40,97,110
2,40,114,130
2,40,87,88
2,40,112,116
2,40,100,110
2,40,112,112
2,40,98,40
2,33,95,0
2,33,105,124
2,33,94,114
2,33,108,128
2,38,101,132
2,38,108,106
2,38,94,84
2,38,107,112
2,38,97,40
2,40,102,128
2,40,108,136
2,40,95,104
2,40,111,110
2,40,97,128
2,40,113,98
2,40,93,128
2,40,112,138
2,31,98,252
2,33,94,120
2,33,107,124
2,33,98,88
2,33,109,132
2,36,98,12
2,38,98,128
2,38,110,142
2,38,97,132
2,38,111,142
2,38,99,64
2,40,99,128
2,40,110,136
2,40,100,132
2,40,109,142
2,38,92,24
2,40,104,130
2,40,114,106
2,40,97,124
2,40,114,126
2,33,99,134
2,33,109,104
2,33,94,98
2,33,109,122
2,31,95,258
2,33,98,72
2,33,111,116
2,33,97,78
2,33,108,100
2,31,98,258
2,33,89,110
2,33,111,140
2,33,93,86
2,33,109,82
2,33,96,96
2,33,107,120
2,33,95,106
2,33,110,96
2,33,94,90
2,33,108,104
2,33,97,84
2,33,108,116
2,33,99,104
2,33,113,136
2,28,101,254
2,28,112,46
2,30,102,254
2,30,109,112
2,30,96,110
2,30,107,118
2,36,103,30
2,38,101,130
2,38,110,144
2,38,90,86
2,38,110,114
2,31,98,18
2,33,98,128
2,33,112,120
2,33,99,108
2,33,108,160
2,33,103,158
2,33,111,166
2,37,97,256
2,40,106,328
2,42,98,76
2,40,105,216
2,33,99,0
2,33,111,110
2,35,95,68
2,35,112,108
2,36,96,50
2,36,110,110
2,40,98,90
2,40,114,146
2,31,98,70
2,31,109,90
2,31,93,108
2,31,111,122
2,29,73,258
2,31,98,0
2,31,108,158
2,35,109,6
2,36,102,128
2,48,112,198
2,47,104,46
2,38,93,44
2,38,108,110
2,38,96,112
2,38,109,142
2,38,94,138
2,38,109,138
2,38,94,114
2,38,104,134
2,40,99,256
2,41,98,124
2,41,113,116
2,41,99,142
