track,note,velocity,time
1,36,104,19484
1,36,99,44
1,36,100,236
1,36,108,10
1,24,103,2
1,24,100,44
1,36,104,2
1,36,97,44
1,36,106,236
1,36,109,8
1,24,103,2
1,24,99,44
1,36,97,2
1,36,104,44
1,36,106,236
1,36,109,8
1,24,103,2
1,24,100,44
1,36,106,2
1,36,102,44
1,36,106,236
1,36,109,10
1,24,103,10
1,24,104,44
1,36,104,14
1,36,99,44
1,36,100,236
1,36,108,12
1,24,103,2
1,24,100,44
1,36,104,2
1,36,97,44
1,36,106,236
1,36,109,12
1,24,103,2
1,24,99,44
1,36,97,2
1,36,104,44
1,36,106,236
1,36,109,8
1,24,103,2
1,24,100,44
1,36,106,2
1,36,102,44
1,36,106,236
1,36,109,12
1,24,103,12
1,24,104,44
1,36,104,16
1,36,99,44
1,36,100,236
1,36,108,12
1,24,103,2
1,24,100,44
1,36,104,2
1,36,97,44
1,36,106,236
1,36,109,12
1,24,103,2
1,24,99,44
1,36,97,2
1,36,104,44
1,36,106,236
1,36,109,8
1,24,103,2
1,24,100,44
1,36,106,2
1,36,102,44
1,36,106,236
1,36,109,12
1,24,103,12
1,24,104,44
1,36,104,16
1,36,99,44
1,36,100,236
1,36,108,12
1,24,103,2
1,24,100,44
1,36,104,2
1,36,97,44
1,36,106,236
1,36,109,12
1,24,103,2
1,24,99,44
1,36,97,2
1,36,104,44
1,36,106,236
1,36,109,10
1,24,103,2
1,24,100,44
1,36,106,2
1,36,102,44
1,36,106,236
1,36,109,12
1,24,103,12
1,24,104,44
1,36,104,16
1,36,99,44
1,36,100,236
1,36,108,12
1,24,103,2
1,24,100,44
1,36,104,2
1,36,97,44
1,36,106,236
1,36,109,14
1,24,103,2
1,24,99,44
1,36,97,2
1,36,104,44
1,36,106,236
1,36,109,10
1,24,103,2
1,24,100,44
1,36,106,2
1,36,102,44
1,36,106,236
1,36,109,14
1,24,103,14
1,24,104,44
1,26,108,18
1,26,106,158
1,26,99,88
1,26,104,70
1,31,107,40
1,31,103,128
1,31,98,74
1,31,107,116
1,24,106,96
1,24,108,144
1,24,110,116
1,24,109,92
1,24,110,106
1,24,113,138
1,24,113,138
1,24,110,120
1,25,104,44
1,26,99,24
1,26,107,124
1,26,104,72
1,26,108,100
1,31,109,48
1,31,103,106
1,31,107,90
1,31,109,122
1,23,110,32
1,24,106,2
1,24,110,140
1,24,109,104
1,24,109,74
1,21,109,56
1,21,110,120
1,21,109,104
1,21,109,120
1,36,104,128
1,36,99,44
1,36,100,236
1,36,108,12
1,24,103,2
1,24,100,44
1,36,104,2
1,36,97,44
1,36,106,236
1,36,109,12
1,24,103,2
1,24,99,44
1,36,97,2
1,36,104,44
1,36,106,236
1,36,109,10
1,24,103,2
1,24,100,44
1,36,106,2
1,36,102,44
1,36,106,236
1,36,109,12
1,24,103,12
1,24,104,44
1,36,104,16
1,36,99,44
1,36,100,236
1,36,108,10
1,24,103,2
1,24,100,44
1,36,104,2
1,36,97,44
1,36,106,236
1,36,109,12
1,24,103,2
1,24,99,44
1,36,97,2
1,36,104,44
1,36,106,236
1,36,109,8
1,24,103,2
1,24,100,44
1,36,106,2
1,36,102,44
1,36,106,236
1,36,109,14
1,24,103,18
1,24,104,44
1,24,109,18
1,24,99,178
1,24,101,44
1,24,99,274
1,24,98,118
1,24,99,44
1,24,100,190
1,24,100,44
1,24,99,244
1,24,100,234
1,24,98,182
1,24,96,44
1,24,102,166
1,24,100,44
1,24,101,172
1,24,99,194
1,24,98,214
1,24,98,44
1,29,108,310
1,29,99,168
1,29,99,44
1,29,100,226
1,29,104,158
1,29,104,208
1,29,100,188
1,29,100,44
1,29,101,130
1,29,98,44
1,29,104,186
1,29,104,150
1,29,104,44
1,24,106,330
1,24,103,172
1,24,101,44
1,24,103,222
1,24,99,122
1,24,100,44
1,24,103,166
1,24,107,236
1,24,98,188
1,24,101,44
1,24,107,254
1,24,101,134
1,24,104,44
1,24,101,100
1,24,102,204
1,24,103,228
1,24,102,44
1,24,108,370
1,24,108,208
1,24,112,44
1,24,102,446
1,36,97,16
1,24,96,44
1,36,92,36
1,24,97,44
1,36,91,30
1,24,92,36
1,36,90,4
1,24,99,28
1,36,97,10
1,24,99,44
1,36,88,12
1,24,95,44
1,36,98,18
1,24,99,28
1,36,97,16
1,24,98,40
1,36,98,14
1,24,99,44
1,36,98,18
1,24,100,44
1,36,97,20
1,24,99,44
1,36,98,30
1,24,99,44
1,36,91,28
1,24,99,30
1,36,93,2
1,24,99,44
1,36,100,30
1,24,98,44
1,36,98,24
1,24,98,44
1,36,97,38
1,24,98,44
1,36,98,38
1,24,98,44
1,36,98,38
1,24,98,34
1,36,97,24
1,24,100,44
1,36,97,28
1,24,107,2
1,36,104,2
1,26,104,44
1,38,97,2
1,28,110,44
1,40,98,2
1,29,106,44
1,41,99,4
1,29,98,28
1,41,93,38
1,29,95,28
1,41,91,14
1,29,96,44
1,41,93,20
1,29,97,28
1,41,91,18
1,29,96,28
1,41,95,32
1,29,97,32
1,41,92,34
1,27,108,2
1,28,100,36
1,29,89,28
1,41,97,26
1,29,97,38
1,41,101,36
1,29,100,18
1,41,90,26
1,29,96,24
1,41,89,24
1,29,98,20
1,41,98,10
1,29,99,24
1,41,98,36
1,29,98,24
1,41,95,26
1,29,99,24
1,41,96,12
1,24,106,44
1,36,104,28
1,24,99,44
1,36,99,38
1,24,97,44
1,36,98,30
1,24,98,32
1,36,97,40
1,24,98,36
1,36,97,10
1,24,95,34
1,36,90,16
1,24,98,34
1,36,97,2
1,24,97,44
1,36,98,12
1,24,100,44
1,36,95,30
1,24,98,44
1,36,92,32
1,24,97,44
1,36,93,14
1,24,97,32
1,36,97,2
1,24,98,44
1,36,97,4
1,24,97,44
1,36,90,20
1,24,97,44
1,36,98,10
1,24,98,44
1,36,91,28
1,24,99,44
1,36,91,14
1,24,98,44
1,36,98,14
1,24,99,44
1,36,90,36
1,24,99,36
1,36,97,12
1,24,98,44
1,36,94,24
1,24,102,44
1,36,99,16
1,24,102,20
1,36,104,24
1,24,104,42
1,36,109,2
1,26,108,44
1,26,106,158
1,26,99,88
1,26,104,72
1,31,107,40
1,31,103,128
1,31,98,76
1,31,107,116
1,24,106,96
1,24,108,144
1,24,110,116
1,24,109,92
1,24,110,112
1,24,113,140
1,24,113,140
1,24,110,120
1,25,104,44
1,26,99,24
1,26,107,124
1,26,104,72
1,26,108,100
1,31,109,48
1,31,103,104
1,31,107,90
1,31,109,122
1,23,110,32
1,24,106,2
1,24,110,138
1,24,109,104
1,24,109,74
1,21,109,56
1,21,110,120
1,21,109,104
1,21,109,120
1,21,109,128
1,21,110,120
1,21,109,104
1,21,109,120
1,26,104,128
1,38,98,36
1,26,97,36
1,38,99,16
1,26,98,24
1,38,97,10
1,26,97,2
1,38,99,2
1,31,106,44
1,43,100,2
1,31,100,44
1,43,98,2
1,31,98,44
1,43,98,2
1,31,100,44
1,43,97,44
1,28,102,44
1,40,97,2
1,28,100,44
1,40,99,2
1,28,98,44
1,40,99,2
1,24,101,44
1,36,107,2
1,21,102,44
1,33,94,2
1,21,99,44
1,33,93,44
1,21,100,44
1,33,93,2
1,21,100,44
1,33,93,44
1,26,106,44
1,38,97,2
1,26,100,44
1,38,101,2
1,26,90,44
1,38,97,44
1,26,99,44
1,38,100,44
1,31,98,28
1,43,100,2
1,31,99,44
1,43,98,2
1,31,101,44
1,43,98,44
1,31,91,44
1,43,97,44
1,36,108,44
1,48,93,2
1,36,106,44
1,48,97,44
1,36,106,44
1,48,90,2
1,36,99,44
1,48,99,44
1,33,100,44
1,45,99,2
1,33,99,44
1,45,100,44
1,33,102,44
1,45,101,44
1,33,102,44
1,45,104,44
1,26,99,32
1,38,95,2
1,26,99,44
1,38,100,44
1,26,97,44
1,38,98,44
1,26,99,44
1,38,98,2
1,31,104,44
1,43,97,2
1,31,102,44
1,43,97,44
1,31,101,44
1,43,96,44
1,31,106,44
1,43,100,44
1,28,107,44
1,40,94,2
1,28,100,44
1,40,99,44
1,28,102,44
1,40,91,2
1,24,107,32
1,36,109,2
1,21,103,44
1,33,91,2
1,21,102,44
1,33,97,44
1,21,103,44
1,33,97,44
1,21,104,44
1,33,99,44
1,26,108,44
1,26,108,184
1,26,107,112
1,26,108,150
1,26,106,112
1,26,107,164
1,22,109,164
1,22,110,108
1,27,102,1552
1,39,97,16
1,27,96,44
1,39,92,36
1,27,97,44
1,39,91,30
1,27,92,32
1,39,90,4
1,27,99,30
1,39,97,10
1,27,99,44
1,39,88,12
1,27,95,44
1,39,98,18
1,27,99,28
1,39,97,16
1,27,98,40
1,39,98,14
1,27,99,42
1,39,98,16
1,27,100,44
1,39,97,6
1,27,99,44
1,39,98,28
1,27,99,44
1,39,91,26
1,27,99,28
1,39,93,2
1,27,99,44
1,39,100,30
1,27,98,42
1,39,98,24
1,27,98,44
1,39,97,38
1,27,98,44
1,39,98,38
1,27,98,44
1,39,98,38
1,27,98,32
1,39,97,24
1,27,100,44
1,39,97,26
1,27,107,2
1,39,104,2
1,29,104,44
1,41,97,2
1,31,110,44
1,43,98,2
1,32,106,44
1,44,99,4
1,32,98,28
1,44,93,38
1,32,95,28
1,44,91,14
1,32,96,44
1,44,93,20
1,32,97,28
1,44,91,18
1,32,96,28
1,44,95,32
1,32,97,30
1,44,92,34
1,30,108,2
1,31,100,34
1,32,89,28
1,44,97,26
1,32,97,40
1,44,101,36
1,32,100,20
1,44,90,26
1,32,96,24
1,44,89,24
1,32,98,20
1,44,98,10
1,32,99,24
1,44,98,36
1,32,98,24
1,44,95,26
1,32,99,24
1,44,96,12
1,27,106,44
1,39,104,28
1,27,99,42
1,39,99,40
1,27,97,44
1,39,98,30
1,27,98,32
1,39,97,38
1,27,98,34
1,39,97,10
1,27,95,36
1,39,90,16
1,27,98,36
1,39,97,2
1,27,97,44
1,39,98,12
1,27,100,44
1,39,95,26
1,27,98,44
1,39,92,34
1,27,97,36
1,39,93,16
1,27,97,32
1,39,97,2
1,27,98,44
1,39,97,4
1,27,97,44
1,39,90,20
1,27,97,44
1,39,98,10
1,27,98,44
1,39,91,28
1,27,99,44
1,39,91,12
1,27,98,44
1,39,98,14
1,27,99,44
1,39,90,36
1,27,99,36
1,39,97,12
1,27,98,44
1,39,94,24
1,27,102,44
1,39,99,18
1,27,102,24
1,39,104,26
1,27,104,44
1,39,109,2
1,26,108,44
1,26,106,162
1,26,99,88
1,26,104,70
1,31,107,40
1,31,103,130
1,31,98,76
1,31,107,116
1,24,106,98
1,24,108,146
1,24,110,116
1,24,109,92
1,24,110,112
1,24,113,140
1,24,113,138
1,24,110,120
1,25,104,44
1,26,99,24
1,26,107,124
1,26,104,72
1,26,108,100
1,31,109,48
1,31,103,104
1,31,107,90
1,31,109,122
1,23,110,32
1,24,106,2
1,24,110,140
1,24,109,104
1,24,109,76
1,21,109,56
1,21,110,120
1,21,109,104
1,21,109,118
1,21,109,128
1,21,109,0
1,26,104,1274
1,38,98,36
1,26,97,36
1,38,99,16
1,26,98,24
1,38,97,10
1,26,97,2
1,38,99,2
1,31,106,44
1,43,100,2
1,31,100,44
1,43,98,2
1,31,98,44
1,43,98,2
1,31,100,44
1,43,97,44
1,28,102,44
1,40,97,2
1,28,100,44
1,40,99,2
1,28,98,44
1,40,99,2
1,24,101,44
1,36,107,2
1,21,102,44
1,33,94,2
1,21,99,44
1,33,93,44
1,21,100,44
1,33,93,2
1,21,100,44
1,33,93,44
1,26,106,44
1,38,97,2
1,26,100,44
1,38,101,2
1,26,90,44
1,38,97,44
1,26,99,44
1,38,100,44
1,31,98,28
1,43,100,2
1,31,99,44
1,43,98,2
1,31,101,44
1,43,98,44
1,31,91,44
1,43,97,44
1,36,108,44
1,48,93,2
1,36,106,44
1,48,97,44
1,36,106,44
1,48,90,2
1,36,99,44
1,48,99,44
1,33,100,44
1,45,99,2
1,33,99,44
1,45,100,44
1,33,102,44
1,45,101,44
1,33,102,44
1,45,104,44
1,26,99,34
1,38,95,2
1,26,99,44
1,38,100,44
1,26,97,44
1,38,98,44
1,26,99,44
1,38,98,2
1,31,104,44
1,43,97,2
1,31,102,44
1,43,97,44
1,31,101,44
1,43,96,44
1,31,106,44
1,43,100,44
1,28,107,44
1,40,94,2
1,28,100,44
1,40,99,44
1,28,102,44
1,40,91,2
1,24,107,32
1,36,109,2
1,21,103,44
1,33,91,2
1,21,102,44
1,33,97,44
1,21,103,44
1,33,97,44
1,21,104,44
1,33,99,44
1,26,108,44
1,26,108,184
1,26,107,110
1,26,108,148
1,26,106,112
1,26,107,166
1,22,109,164
1,22,110,112
1,27,102,1554
1,39,97,16
1,27,96,44
1,39,92,36
1,27,97,44
1,39,91,30
1,27,92,36
1,39,90,4
1,27,99,28
1,39,97,10
1,27,99,44
1,39,88,12
1,27,95,44
1,39,98,18
1,27,99,28
1,39,97,16
1,27,98,40
1,39,98,12
1,27,99,44
1,39,98,16
1,27,100,44
1,39,97,18
1,27,99,44
1,39,98,28
1,27,99,44
1,39,91,26
1,27,99,28
1,39,93,2
1,27,99,44
1,39,100,30
1,27,98,44
1,39,98,24
1,27,98,44
1,39,97,38
1,27,98,44
1,39,98,38
1,27,98,44
1,39,98,36
1,27,98,34
1,39,97,24
1,27,100,44
1,39,97,26
1,27,107,2
1,39,104,2
1,29,104,44
1,41,97,2
1,31,110,44
1,43,98,2
1,32,106,44
1,44,99,4
1,32,98,28
1,44,93,40
1,32,95,28
1,44,91,14
1,32,96,44
1,44,93,20
1,32,97,28
1,44,91,18
1,32,96,26
1,44,95,32
1,32,97,32
1,44,92,34
1,30,108,2
1,31,100,36
1,32,89,28
1,44,97,26
1,32,97,40
1,44,101,36
1,32,100,20
1,44,90,26
1,32,96,24
1,44,89,24
1,32,98,20
1,44,98,10
1,32,99,24
1,44,98,36
1,32,98,24
1,44,95,26
1,32,99,24
1,44,96,12
1,27,106,44
1,39,104,28
1,27,99,44
1,39,99,40
1,27,97,44
1,39,98,30
1,27,98,20
1,39,97,40
1,27,98,36
1,39,97,10
1,27,95,36
1,39,90,16
1,27,98,36
1,39,97,2
1,27,97,44
1,39,98,12
1,27,100,44
1,39,95,30
1,27,98,44
1,39,92,34
1,27,97,44
1,39,93,14
1,27,97,32
1,39,97,2
1,27,98,44
1,39,97,2
1,27,97,44
1,39,90,20
1,27,97,44
1,39,98,10
1,27,98,44
1,39,91,28
1,27,99,44
1,39,91,12
1,27,98,44
1,39,98,14
1,27,99,44
1,39,90,36
1,27,99,34
1,39,97,14
1,27,98,44
1,39,94,22
1,27,102,44
1,39,99,18
1,27,102,24
1,39,104,28
1,27,104,44
1,39,109,2
1,26,108,44
1,26,106,160
1,26,99,88
1,26,104,72
1,31,107,40
1,31,103,128
1,31,98,76
1,31,107,116
1,24,106,98
1,24,108,146
1,24,110,114
1,24,109,92
1,24,110,112
1,24,113,138
1,24,113,140
1,24,110,120
1,25,104,44
1,26,99,24
1,26,107,124
1,26,104,72
1,26,108,100
1,31,109,44
1,31,103,104
1,31,107,90
1,31,109,122
1,23,110,32
1,24,106,2
1,24,110,140
1,24,109,104
1,24,109,76
1,21,109,56
1,21,110,120
1,21,109,104
1,21,109,120
1,21,109,128
1,21,109,0
1,26,104,1274
1,38,98,36
1,26,97,36
1,38,99,16
1,26,98,24
1,38,97,10
1,26,97,2
1,38,99,2
1,31,106,44
1,43,100,2
1,31,100,44
1,43,98,2
1,31,98,44
1,43,98,2
1,31,100,44
1,43,97,44
1,28,102,44
1,40,97,2
1,28,100,44
1,40,99,2
1,28,98,44
1,40,99,2
1,24,101,44
1,36,107,2
1,21,102,44
1,33,94,2
1,21,99,44
1,33,93,44
1,21,100,44
1,33,93,2
1,21,100,44
1,33,93,44
1,26,106,44
1,38,97,2
1,26,100,44
1,38,101,2
1,26,90,44
1,38,97,44
1,26,99,44
1,38,100,44
1,31,98,30
1,43,100,2
1,31,99,44
1,43,98,2
1,31,101,44
