track,note,velocity,time
1,34,121,2672
1,46,71,26
1,58,73,12
1,50,59,190
1,53,75,190
1,50,59,178
1,60,74,18
1,43,74,40
1,58,68,4
1,50,59,190
1,55,73,188
1,50,60,166
1,60,75,40
1,39,71,78
1,58,74,2
1,51,59,196
1,55,72,192
1,51,59,186
1,60,73,6
1,41,71,52
1,58,72,4
1,51,62,196
1,55,75,196
1,51,59,180
1,60,77,18
1,46,71,36
1,58,80,12
1,50,59,190
1,53,75,190
1,50,59,178
1,60,78,18
1,43,74,40
1,58,76,4
1,50,59,190
1,55,73,188
1,50,60,166
1,60,78,40
1,39,71,78
1,58,80,2
1,51,59,196
1,55,72,192
1,51,59,186
1,60,78,6
1,41,71,52
1,58,79,4
1,51,62,196
1,55,75,196
1,51,59,180
1,60,80,18
1,46,71,36
1,58,80,12
1,50,59,190
1,53,75,190
1,50,59,178
1,60,78,18
1,43,74,40
1,58,76,4
1,50,59,190
1,55,73,188
1,50,60,166
1,60,78,40
1,39,71,78
1,58,80,2
1,51,59,196
1,55,72,192
1,51,59,186
1,60,78,6
1,41,71,52
1,58,79,4
1,51,62,196
1,55,75,196
1,51,59,180
1,60,80,18
1,37,77,36
1,61,86,12
1,53,65,190
1,56,81,190
1,53,65,178
1,63,84,18
1,34,80,40
1,61,84,4
1,53,65,190
1,58,79,188
1,53,66,166
1,63,84,40
1,30,77,78
1,61,86,2
1,54,65,196
1,58,78,192
1,54,65,186
1,63,84,6
1,32,77,52
1,61,85,4
1,54,68,196
1,58,81,196
1,54,65,180
1,63,86,14
1,40,77,40
1,64,86,14
1,56,65,188
1,59,81,190
1,56,65,178
1,66,84,16
1,37,80,28
1,64,84,4
1,56,65,190
1,61,79,188
1,56,66,166
1,66,84,40
1,33,77,72
1,64,86,2
1,57,65,196
1,61,78,192
1,57,65,186
1,66,84,6
1,35,77,52
1,64,85,4
1,57,68,196
1,61,81,196
1,57,65,180
1,66,86,14
1,55,73,40
1,43,83,0
1,62,102,6
1,67,93,0
1,59,65,198
1,67,93,38
1,62,93,2
1,59,63,168
1,69,93,18
1,62,93,0
1,59,63,180
1,62,93,32
1,69,84,2
1,59,66,182
1,64,93,18
1,52,73,2
1,67,93,0
1,40,83,0
1,59,71,186
1,67,84,28
1,64,84,0
1,59,66,180
1,69,89,14
1,64,89,2
1,59,69,182
1,64,93,18
1,69,84,2
1,59,77,176
1,48,74,18
1,36,84,0
1,64,93,2
1,67,93,0
1,60,72,194
1,62,93,38
1,67,93,2
1,60,75,186
1,64,93,14
1,69,102,0
1,60,71,194
1,69,93,32
1,64,102,2
1,60,75,184
1,50,73,0
1,38,77,0
1,67,102,8
1,64,102,2
1,60,75,192
1,66,102,16
1,69,111,0
1,62,75,190
1,66,102,6
1,69,111,0
1,52,75,6
1,40,84,0
1,62,84,194
1,68,111,14
1,71,102,0
1,64,84,192
1,45,83,6
1,57,73,0
1,64,109,0
1,69,101,0
1,61,70,198
1,69,98,38
1,64,98,2
1,61,68,168
1,71,98,16
1,64,98,0
1,61,68,180
1,64,98,32
1,71,89,2
1,61,71,182
1,64,98,20
1,54,73,2
1,69,98,0
1,42,83,0
1,61,76,186
1,69,89,28
1,64,89,0
1,61,71,180
1,71,94,14
1,64,98,2
1,61,74,182
1,64,98,18
1,71,89,2
1,61,82,176
1,50,74,18
1,38,84,0
1,64,98,0
1,69,98,0
1,62,72,192
1,64,98,34
1,69,98,2
1,62,80,180
1,64,98,20
1,71,107,0
1,62,71,192
1,64,102,26
1,71,93,0
1,62,75,184
1,52,73,6
1,40,77,0
1,69,102,4
1,66,102,0
1,62,75,192
1,66,102,18
1,69,111,0
1,62,75,194
1,68,102,6
1,71,111,0
1,64,69,198
1,71,102,20
1,68,111,2
1,64,75,192
1,45,83,2
1,57,73,0
1,64,109,0
1,69,101,0
1,61,70,198
1,69,98,38
1,64,98,2
1,61,68,168
1,71,98,30
1,64,102,0
1,61,68,180
1,64,101,32
1,71,89,0
1,61,71,182
1,54,73,24
1,42,83,0
1,69,104,2
1,64,103,0
1,61,76,184
1,69,89,24
1,64,89,0
1,61,71,180
1,71,94,14
1,64,99,2
1,61,74,182
1,64,98,18
1,71,89,2
1,61,82,176
1,50,74,18
1,38,84,0
1,64,102,0
1,69,101,0
1,62,72,192
1,64,98,34
1,69,98,2
1,62,80,180
1,64,103,20
1,71,107,0
1,62,71,192
1,64,102,26
1,71,93,0
1,62,75,184
1,52,73,6
1,40,77,0
1,69,102,4
1,66,102,0
1,62,75,192
1,66,102,18
1,69,111,0
1,62,75,194
1,68,102,6
1,71,111,0
1,64,69,198
1,71,102,20
1,68,111,2
1,64,75,192
1,36,83,2
1,48,73,0
1,67,109,0
1,72,101,0
1,64,70,198
1,72,98,38
1,67,98,2
1,64,68,168
1,74,98,30
1,67,102,0
1,64,68,180
1,67,101,32
1,74,89,0
1,64,71,182
1,45,73,24
1,33,83,0
1,72,104,2
1,67,103,0
1,64,76,184
1,72,89,24
1,67,89,0
1,64,71,180
1,74,94,14
1,67,99,2
1,64,74,182
1,67,98,18
1,74,89,2
1,64,82,176
1,41,74,18
1,29,84,0
1,67,102,0
1,72,101,0
1,65,80,192
1,67,98,34
1,72,98,2
1,65,80,180
1,67,103,20
1,74,107,0
1,65,71,192
1,67,102,26
1,74,93,0
1,65,75,184
1,43,73,6
1,31,77,0
1,72,102,4
1,69,102,0
1,65,75,192
1,69,102,18
1,72,111,0
1,65,75,194
1,71,102,6
1,74,111,0
1,67,69,198
1,74,102,20
1,71,111,2
1,67,75,192
1,64,75,6
1,45,73,0
1,33,77,0
1,74,105,4
1,67,102,0
1,73,98,192
1,62,102,16
1,67,102,2
1,71,111,0
1,73,98,194
1,64,75,20
1,69,102,0
1,73,111,0
1,71,95,198
1,62,102,20
1,71,102,0
1,67,111,2
1,73,92,192
1,38,83,2
1,50,73,0
1,66,109,0
1,69,101,0
1,64,93,6
1,62,70,192
1,69,98,38
1,64,84,2
1,66,98,0
1,62,68,168
1,64,75,30
1,69,98,0
1,66,102,0
1,62,68,180
1,66,101,32
1,69,89,0
1,64,84,0
1,62,71,182
1,47,73,24
1,35,83,0
1,73,104,2
1,69,103,0
1,64,84,0
1,66,76,184
1,73,89,24
1,69,89,0
1,64,82,2
1,66,71,180
1,74,94,8
1,69,99,2
1,66,84,2
1,66,74,50
1,69,98,18
1,74,89,2
1,66,82,176
1,69,93,18
1,43,74,0
1,31,84,0
1,62,102,0
1,71,101,0
1,67,72,192
1,69,84,30
1,62,98,4
1,71,98,2
1,67,80,180
1,69,93,20
1,62,103,0
1,71,107,0
1,67,71,192
1,69,93,26
1,62,102,0
1,71,96,0
1,67,75,184
1,45,73,26
1,33,77,0
1,67,102,4
1,74,92,0
1,69,104,0
1,64,75,192
1,69,105,18
1,74,111,0
1,67,104,0
1,64,75,194
1,69,102,26
1,76,111,0
1,67,84,4
1,64,84,0
1,38,77,32
1,50,70,0
1,62,86,6
1,54,65,190
1,57,81,190
1,54,65,178
1,64,84,18
1,47,73,34
1,35,80,0
1,62,84,4
1,54,65,190
1,59,79,188
1,54,66,166
1,64,84,40
1,43,70,78
1,31,77,0
1,62,86,2
1,55,65,196
1,59,78,192
1,55,65,186
1,64,84,6
1,45,70,52
1,33,77,0
1,62,85,4
1,55,68,196
1,59,81,196
1,55,65,180
1,64,86,14
1,50,71,40
1,38,77,0
1,62,86,14
1,54,65,188
1,57,81,190
1,54,65,178
1,64,84,16
1,47,74,28
1,35,80,0
1,62,84,4
1,54,65,190
1,59,79,188
1,54,66,166
1,64,84,40
1,43,71,72
1,31,77,0
1,62,86,2
1,55,65,196
1,59,78,192
1,55,65,186
1,64,84,6
1,45,71,52
1,33,77,0
1,62,85,4
1,55,68,196
1,59,81,196
1,55,65,180
1,64,86,14
1,50,71,40
1,38,77,0
1,62,86,14
1,54,65,188
1,57,81,190
1,54,65,178
1,64,84,16
1,47,74,28
1,35,80,0
1,62,84,4
1,54,65,190
1,59,79,188
1,54,66,166
1,64,84,40
1,43,71,72
1,31,77,0
1,62,86,2
1,55,65,196
1,59,78,192
1,55,65,186
1,64,84,6
1,45,71,52
1,33,77,0
1,62,85,4
1,55,68,196
1,59,81,196
1,55,65,180
1,64,86,14
1,35,77,48
1,47,71,0
1,66,89,2
1,59,83,2
1,61,87,0
1,57,63,186
1,66,84,24
1,59,84,0
1,61,93,0
1,57,66,184
1,35,77,16
1,47,71,0
1,66,102,4
1,63,93,0
1,59,75,190
1,63,102,4
1,66,102,2
1,59,93,190
1,64,101,14
1,59,109,0
1,52,73,0
1,40,83,0
1,56,70,198
1,59,98,40
1,64,98,0
1,56,77,168
1,59,100,14
1,66,102,0
1,56,68,180
1,59,98,32
1,66,89,2
1,56,83,182
1,61,98,22
1,49,73,0
1,37,83,0
1,64,98,2
1,56,76,188
1,61,89,28
1,64,89,0
1,56,71,178
1,66,94,14
1,61,98,2
1,56,74,182
1,66,89,20
1,61,98,0
1,56,82,174
1,45,74,16
1,33,84,0
1,61,98,0
1,64,98,0
1,57,72,192
1,61,98,34
1,64,98,2
1,57,80,180
1,61,98,20
1,66,107,0
1,57,71,192
1,61,102,26
1,66,93,0
1,57,75,184
1,47,73,6
1,35,77,0
1,64,102,4
1,61,102,0
1,57,75,192
1,61,112,18
1,64,113,0
1,57,86,194
1,63,102,6
1,66,111,0
1,59,80,198
1,66,102,20
1,63,111,2
1,59,79,192
1,40,83,2
1,52,73,0
1,59,109,0
1,64,101,0
1,56,70,198
1,59,98,40
1,64,98,0
1,56,77,168
1,59,100,14
1,66,102,0
1,56,68,180
1,59,98,32
1,66,89,2
1,56,83,182
1,61,98,22
1,49,73,0
1,37,83,0
1,64,98,2
1,56,76,188
1,61,89,28
1,64,89,0
1,56,71,178
1,66,94,14
1,61,98,2
1,56,74,182
1,66,104,20
1,61,98,82
1,56,80,94
1,45,74,6
1,33,84,0
1,61,98,0
1,64,98,0
1,57,72,192
1,61,98,34
1,64,98,2
1,57,80,180
1,61,98,20
1,66,107,0
1,57,71,192
1,61,102,26
1,66,93,0
1,57,75,184
1,47,83,6
1,35,87,0
1,64,112,4
1,61,112,0
1,57,75,192
1,61,112,18
1,64,113,0
1,57,86,194
1,63,111,6
1,66,115,0
1,59,80,198
1,66,120,10
1,71,111,6
1,59,84,6
1,71,107,194
1,66,111,0
1,40,83,2
1,52,73,0
1,66,98,0
1,71,101,0
1,64,103,6
1,59,70,192
1,71,98,38
1,64,104,2
1,66,97,0
1,59,68,168
1,64,115,30
1,71,98,0
1,66,92,0
1,59,68,180
1,66,89,32
1,71,89,0
1,64,99,0
1,59,71,182
1,49,73,24
1,37,83,0
1,71,111,2
1,66,112,0
1,63,103,0
1,59,76,190
1,71,106,2
1,66,103,0
1,63,95,2
1,59,71,190
1,71,105,8
1,66,109,4
1,64,108,0
1,59,74,190
1,66,103,28
1,71,105,2
1,64,92,4
1,59,82,176
1,64,102,22
1,45,74,0
1,33,84,0
1,61,108,0
1,71,107,0
1,57,72,192
1,64,93,16
1,71,98,2
1,61,98,2
1,57,80,190
1,66,93,20
1,64,103,0
1,71,107,0
1,59,71,192
1,66,93,26
1,64,102,0
1,71,96,0
1,59,75,184
1,47,73,26
1,35,77,0
1,64,102,4
1,71,109,0
1,66,104,0
1,59,75,192
1,66,105,18
1,71,111,0
1,64,104,0
1,59,75,194
1,66,111,26
1,59,102,4
1,71,111,24
1,66,111,0
1,59,111,4
1,59,102,6
1,66,102,54
1,71,102,0
1,59,93,0
1,40,83,16
1,52,73,0
1,66,98,0
1,71,101,0
1,64,103,6
1,59,70,192
1,71,98,38
1,64,104,2
1,66,97,0
1,59,68,168
1,64,115,30
1,71,98,0
1,66,108,0
1,59,68,180
1,66,89,32
1,71,89,0
1,64,99,0
1,59,71,182
1,49,73,24
1,37,83,0
1,71,104,2
1,66,106,0
1,63,112,0
1,59,76,190
1,71,104,2
1,66,103,0
1,63,102,2
1,59,71,190
1,71,104,8
1,66,105,4
1,64,105,0
1,59,74,14
1,64,111,42
1,71,106,2
1,66,102,0
1,59,84,46
1,66,98,10
1,71,104,0
1,64,103,0
1,64,102,20
1,45,74,0
1,33,84,0
1,61,108,0
1,71,107,0
1,57,72,192
1,64,93,16
1,71,98,2
1,61,98,2
1,57,80,190
1,66,93,20
1,64,103,0
1,71,107,0
1,59,71,192
1,66,93,26
1,64,102,0
1,71,96,0
1,59,75,184
1,47,73,26
1,35,77,0
1,64,102,4
1,71,109,0
1,66,104,0
1,59,75,192
1,66,105,18
1,71,111,0
1,64,104,0
1,71,102,24
1,83,112,2
1,47,93,76
1,83,117,30
1,71,116,0
1,71,102,6
1,66,102,0
1,78,112,0
1,47,84,52
1,59,93,96
1,66,102,34
1,66,93,6
1,78,112,0
1,71,102,2
1,40,83,24
1,52,73,0
1,66,98,0
1,71,101,0
1,64,103,6
1,59,70,192
1,71,98,38
1,64,104,2
1,66,97,0
1,59,68,168
1,64,115,30
1,71,98,0
1,66,108,0
1,59,68,180
1,66,89,32
1,71,89,0
1,64,99,0
1,59,71,182
1,49,73,24
1,37,83,0
1,71,104,2
1,66,106,0
1,63,112,0
1,59,76,190
1,71,104,2
1,66,103,0
1,63,102,2
1,59,71,190
1,71,104,8
1,66,105,4
1,64,105,0
1,59,74,190
1,64,103,42
1,71,103,2
1,66,112,0
1,59,84,182
1,64,102,8
1,45,74,0
1,33,84,0
1,61,108,0
1,71,107,0
1,57,72,192
1,64,93,16
1,71,98,2
1,61,98,2
1,57,80,190
1,66,93,20
1,64,103,0
1,71,107,0
1,59,71,192
1,66,93,26
1,64,102,0
1,71,96,0
1,59,75,184
1,47,73,26
1,35,77,0
1,64,102,4
1,71,109,0
1,66,104,0
1,59,75,192
1,66,105,18
1,71,111,0
1,64,104,0
1,59,75,192
1,47,93,76
1,66,111,30
1,71,102,2
1,59,93,0
1,47,84,52
1,66,111,0
1,71,102,0
1,59,84,72
1,71,102,32
1,66,111,2
1,40,83,12
1,52,73,0
1,66,98,0
1,71,101,0
1,64,103,6
1,59,70,192
1,71,98,38
1,64,104,2
1,66,97,0
1,59,68,80
1,64,115,20
1,71,98,0
1,66,108,0
1,59,68,180
1,66,89,24
1,71,89,0
1,64,99,0
1,59,71,72
1,49,73,24
1,37,83,0
1,71,104,2
1,66,106,0
1,63,112,0
1,59,76,2
1,71,104,2
1,66,103,0
1,63,102,2
1,59,71,60
1,71,104,8
1,66,105,2
1,64,105,0
1,59,74,14
1,64,111,42
1,71,106,2
1,66,102,0
1,59,84,20
1,66,98,6
1,71,104,0
1,64,103,0
1,64,102,20
1,45,74,0
1,33,84,0
1,61,108,0
1,71,107,0
1,57,72,42
1,64,93,16
1,71,98,2
1,61,98,2
1,57,80,6
1,66,93,20
1,64,103,0
1,71,107,0
1,59,71,6
1,66,93,26
1,64,102,0
1,71,96,0
1,59,75,154
1,47,73,26
1,35,77,0
1,64,102,4
1,71,109,0
1,66,104,0
1,59,75,36
1,66,105,18
1,71,111,0
1,64,104,0
1,71,102,20
1,83,112,2
1,47,93,76
1,83,117,30
1,71,116,0
1,71,102,6
1,66,102,0
1,78,112,0
1,47,84,10
1,59,93,84
1,66,102,34
1,66,93,6
1,78,112,0
1,71,102,2
1,40,83,24
1,52,73,0
1,66,98,0
1,71,101,0
1,64,103,6
1,59,70,18
1,71,98,30
1,64,104,2
1,66,97,0
1,59,68,60
1,64,115,30
1,71,98,0
1,66,108,0
1,59,68,58
1,66,89,32
1,71,89,0
1,64,99,0
1,59,71,60
1,49,73,12
1,37,83,0
1,71,104,2
1,66,106,0
1,63,112,0
1,59,76,0
1,71,104,0
1,66,103,0
1,63,102,2
1,59,71,12
1,71,104,8
1,66,105,4
1,64,105,0
1,59,74,90
1,64,103,28
1,71,103,2
1,66,112,0
1,59,84,90
1,64,102,8
1,45,74,0
1,33,84,0
1,61,108,0
1,71,107,0
1,57,72,84
1,64,93,16
1,71,98,2
1,61,98,2
