track,note,velocity,time
0,63,39,2224
0,60,43,0
0,67,45,16
0,55,29,12
0,48,78,0
0,67,95,4
0,55,58,96
0,60,68,96
0,63,74,92
0,74,52,88
0,67,43,0
0,58,35,0
0,63,52,0
0,46,78,0
0,74,96,4
0,55,66,20
0,58,66,36
0,62,62,0
0,67,64,0
0,60,35,160
0,63,41,12
0,67,45,4
0,51,38,0
0,44,78,0
0,51,56,84
0,56,68,96
0,58,64,92
0,60,76,96
0,58,39,8
0,41,29,0
0,63,43,0
0,67,58,0
0,58,70,4
0,41,74,0
0,67,96,0
0,48,58,100
0,60,51,0
0,68,59,0
0,60,78,12
0,68,95,0
0,51,47,0
0,53,59,80
0,75,59,4
0,68,43,4
0,68,78,4
0,63,56,0
0,63,66,4
0,75,87,0
0,43,29,0
0,71,40,8
0,43,74,4
0,67,48,0
0,67,66,4
0,71,68,0
0,75,76,0
0,74,43,20
0,55,59,8
0,65,66,0
0,71,67,0
0,74,71,0
0,65,43,4
0,60,82,276
0,62,91,12
0,63,39,4
0,60,43,0
0,67,45,0
0,79,45,0
0,48,27,0
0,55,47,0
0,48,78,0
0,67,97,0
0,63,110,0
0,55,56,20
0,60,69,4
0,63,77,0
0,62,77,8
0,60,91,20
0,74,52,0
0,86,52,0
0,67,43,0
0,58,41,0
0,63,52,0
0,46,78,0
0,46,29,0
0,74,95,4
0,58,110,0
0,55,63,8
0,60,101,8
0,58,66,0
0,62,62,0
0,67,74,0
0,61,77,20
0,62,83,8
0,60,35,92
0,63,41,12
0,67,45,4
0,79,45,0
0,44,27,0
0,51,44,0
0,44,78,0
0,60,109,0
0,51,56,84
0,56,68,28
0,58,64,8
0,60,75,52
0,58,50,8
0,41,33,0
0,29,26,0
0,60,100,0
0,63,43,0
0,67,58,0
0,79,58,0
0,58,75,4
0,41,74,0
0,67,97,0
0,48,58,0
0,60,56,0
0,68,59,0
0,80,59,0
0,60,79,12
0,68,96,0
0,51,44,0
0,58,74,28
0,53,59,8
0,56,91,16
0,75,59,4
0,87,59,0
0,55,104,4
0,68,43,0
0,68,79,4
0,63,61,0
0,63,67,4
0,75,88,0
0,53,91,8
0,43,33,0
0,31,23,0
0,71,38,0
0,43,74,4
0,49,100,0
0,67,56,0
0,67,66,4
0,71,68,0
0,75,76,0
0,50,77,16
0,51,93,0
0,50,100,32
0,50,58,8
0,74,43,0
0,86,43,0
0,55,59,0
0,65,66,0
0,71,67,0
0,74,71,0
0,43,57,4
0,65,47,0
0,60,64,8
0,62,76,12
0,63,68,8
0,60,68,16
0,60,40,36
0,65,46,8
0,32,47,4
0,44,61,0
0,53,31,4
0,65,83,0
0,60,74,4
0,65,85,4
0,60,74,28
0,65,74,0
0,60,74,32
0,65,83,0
0,60,64,4
0,60,76,16
0,65,74,0
0,62,76,28
0,63,68,0
0,60,68,12
0,34,47,16
0,46,61,4
0,65,83,0
0,60,74,0
0,65,85,8
0,60,74,32
0,65,83,0
0,60,70,32
0,65,73,0
0,60,70,20
0,65,68,0
0,60,60,4
0,62,76,28
0,63,60,28
0,60,68,16
0,32,47,20
0,44,61,0
0,65,83,4
0,60,74,4
0,65,72,0
0,65,67,28
0,65,70,24
0,60,74,24
0,65,74,0
0,65,76,4
0,65,68,28
0,65,60,40
0,60,74,32
0,65,83,0
0,65,76,0
0,63,64,24
0,60,76,20
0,60,72,0
0,65,74,0
0,62,70,20
0,63,64,16
0,60,68,12
0,34,47,12
0,46,61,4
0,65,83,0
0,60,74,4
0,65,72,0
0,60,60,32
0,65,70,0
0,60,56,12
0,65,52,0
0,60,43,264
0,60,39,20
0,65,37,0
0,60,76,0
0,62,76,24
0,63,68,20
0,60,68,8
0,65,46,0
0,32,47,4
0,44,61,0
0,65,83,8
0,65,78,0
0,60,74,4
0,60,74,28
0,65,74,0
0,60,72,32
0,65,79,0
0,60,41,256
0,60,64,8
0,60,76,12
0,65,74,0
0,62,76,20
0,63,60,16
0,60,68,16
0,34,47,12
0,46,61,4
0,65,84,0
0,60,76,4
0,65,76,12
0,60,71,32
0,65,81,0
0,58,38,16
0,58,75,0
0,65,65,0
0,62,48,20
0,55,43,0
0,36,47,4
0,48,61,0
0,51,31,0
0,62,87,8
0,55,73,0
0,51,39,180
0,62,72,68
0,60,64,20
0,62,81,12
0,55,77,16
0,62,92,0
0,51,41,56
0,63,68,48
0,60,47,4
0,34,47,0
0,55,78,0
0,60,82,0
0,46,61,4
0,62,84,12
0,60,73,24
0,51,48,36
0,55,80,24
0,60,89,0
0,34,27,28
0,46,51,0
0,51,46,0
0,55,67,8
0,55,67,20
0,63,53,0
0,60,43,0
0,55,31,0
0,32,47,4
0,63,82,0
0,44,61,0
0,60,73,4
0,63,72,0
0,55,50,184
0,63,60,28
0,63,76,20
0,60,83,4
0,63,97,0
0,55,53,36
0,63,72,24
0,62,48,4
0,53,34,4
0,31,47,4
0,43,61,0
0,60,79,4
0,62,82,0
0,63,76,0
0,62,76,0
0,55,56,48
0,59,48,168
0,59,79,20
0,62,77,0
0,31,27,32
0,43,51,0
0,55,56,0
0,55,60,4
0,55,67,28
0,62,40,0
0,65,57,0
0,55,40,0
0,36,47,4
0,48,61,0
0,65,76,4
0,65,85,0
0,62,73,0
0,55,53,180
0,65,76,32
0,62,89,28
0,65,93,0
0,65,73,0
0,55,57,56
0,65,68,40
0,63,56,4
0,34,47,12
0,46,61,0
0,62,74,4
0,63,94,0
0,65,85,0
0,63,76,32
0,55,61,36
0,60,45,172
0,60,85,0
0,63,94,0
0,34,27,32
0,46,47,0
0,55,56,0
0,60,60,8
0,63,68,24
0,60,43,0
0,63,47,0
0,67,55,0
0,32,47,0
0,67,93,0
0,67,78,0
0,44,61,0
0,63,83,4
0,67,73,28
0,67,76,24
0,56,53,60
0,63,86,32
0,67,95,0
0,32,27,32
0,44,51,0
0,56,57,0
0,65,70,20
0,65,50,0
0,58,38,0
0,65,85,0
0,34,47,4
0,46,61,0
0,63,82,4
0,65,86,0
0,58,61,184
0,62,47,172
0,62,79,20
0,65,91,0
0,58,56,48
0,68,56,0
0,65,52,8
0,51,41,0
0,39,47,0
0,51,61,0
0,68,92,8
0,68,72,0
0,63,60,4
0,65,81,0
0,58,40,12
0,68,76,12
0,58,66,8
0,63,60,16
0,68,76,4
0,63,77,8
0,68,92,0
0,65,81,0
0,58,48,4
0,67,83,4
0,67,72,16
0,63,40,12
0,48,39,0
0,67,60,0
0,36,47,0
0,48,61,0
0,63,78,4
0,67,82,0
0,60,60,0
0,67,76,0
0,56,65,176
0,56,64,0
0,63,64,12
0,60,56,8
0,63,80,0
0,67,79,0
0,58,48,60
0,56,60,8
0,65,56,0
0,62,42,0
0,43,44,0
0,55,34,4
0,31,47,0
0,43,61,0
0,62,73,0
0,65,82,0
0,59,55,0
0,65,70,104
0,55,50,76
0,63,67,28
0,65,76,0
0,47,36,16
0,35,47,0
0,47,61,0
0,59,56,4
0,62,83,0
0,65,92,0
0,65,72,20
0,55,53,36
0,65,76,44
0,63,76,28
0,48,48,0
0,63,48,4
0,36,47,4
0,48,61,0
0,62,79,4
0,63,85,0
0,65,76,12
0,63,72,12
0,55,55,40
0,60,48,0
0,46,44,0
0,34,47,0
0,46,61,4
0,60,79,4
0,63,82,0
0,55,56,44
0,60,60,84
0,63,76,28
0,60,40,0
0,56,34,4
0,44,52,4
0,65,51,0
0,32,47,0
0,44,61,4
0,65,89,0
0,60,74,4
0,65,73,0
0,65,76,20
0,56,53,44
0,60,89,28
0,65,93,0
0,65,76,28
0,43,55,8
0,31,27,16
0,43,51,0
0,55,51,0
0,67,76,20
0,41,52,4
0,65,85,0
0,29,47,4
0,41,61,0
0,60,74,4
0,65,94,0
0,63,76,32
0,56,61,48
0,60,85,12
0,65,94,0
0,56,56,48
0,60,64,68
0,63,68,20
0,59,41,0
0,43,46,0
0,55,43,0
0,63,62,4
0,31,47,8
0,63,93,0
0,63,76,0
0,43,61,0
0,59,73,0
0,62,76,32
0,55,53,36
0,62,59,0
0,47,46,12
0,35,38,0
0,53,46,0
0,35,47,0
0,47,61,4
0,59,86,0
0,62,95,0
0,60,72,40
0,55,57,4
0,48,40,0
0,36,32,0
0,55,40,0
0,60,54,0
0,51,40,0
0,36,47,8
0,48,61,0
0,55,72,0
0,60,87,0
0,48,44,24
0,36,59,20
0,48,53,12
0,60,110,0
0,60,91,0
0,62,83,12
0,62,82,8
0,63,101,8
0,63,82,4
0,60,78,0
0,60,84,0
0,60,40,16
0,56,49,4
0,44,41,0
0,48,93,0
0,32,47,4
0,44,61,0
0,53,99,0
0,65,63,0
0,53,41,0
0,53,76,0
0,60,89,0
0,65,110,0
0,60,109,0
0,65,89,0
0,68,50,4
0,32,100,4
0,36,68,0
0,49,82,0
0,60,56,16
0,53,43,4
0,42,41,4
0,48,78,12
0,53,104,0
0,60,113,4
0,65,104,0
0,53,79,4
0,60,92,0
0,65,102,0
0,77,76,0
0,68,64,0
0,37,113,8
0,42,77,0
0,77,85,28
0,60,66,16
0,53,43,4
0,42,50,4
0,77,85,4
0,68,86,12
0,60,86,4
0,65,92,0
0,32,64,8
0,36,34,0
0,48,71,4
0,53,75,0
0,53,75,4
0,60,88,0
0,65,102,0
0,60,84,0
0,79,85,4
0,32,100,4
0,36,68,0
0,42,77,0
0,68,78,36
0,65,96,0
0,60,66,8
0,77,94,36
0,65,83,12
0,60,90,4
0,53,71,4
0,42,41,4
0,75,85,40
0,48,85,12
0,53,102,0
0,60,115,4
0,65,107,0
0,68,65,4
0,53,69,4
0,60,116,0
0,37,113,4
0,42,77,0
0,72,85,16
0,62,116,16
0,65,62,20
0,60,81,4
0,42,50,8
0,63,98,4
0,34,64,8
0,60,107,16
0,58,40,4
0,46,32,0
0,46,93,0
0,34,47,0
0,46,61,0
0,53,99,0
0,53,76,0
0,60,89,0
0,65,110,0
0,58,109,0
0,60,89,4
0,65,80,4
0,34,100,4
0,36,68,0
0,42,77,0
0,58,56,16
0,53,43,4
0,42,41,4
0,72,68,44
0,46,78,0
0,53,104,0
0,58,113,4
0,60,104,0
0,53,79,4
0,60,92,0
0,65,102,0
0,65,94,0
0,77,94,0
0,37,113,8
0,42,77,0
0,77,94,32
0,58,66,24
0,53,43,4
0,42,50,4
0,65,106,0
0,58,86,4
0,60,92,0
0,34,64,8
0,36,34,0
0,77,94,20
0,46,71,4
0,53,85,0
0,53,75,4
0,58,88,0
0,65,102,0
0,58,74,0
0,34,100,8
0,36,68,0
0,42,77,0
0,79,85,8
0,65,108,28
0,60,96,0
0,58,66,8
0,60,83,4
0,58,90,4
0,53,71,4
0,42,41,4
0,77,85,12
0,46,85,4
0,53,102,0
0,58,115,4
0,60,107,0
0,53,75,4
0,60,116,0
0,65,102,0
0,60,91,0
0,65,86,0
0,37,113,8
0,42,77,0
0,62,89,12
0,62,82,8
0,60,72,8
0,63,107,0
0,58,86,4
0,63,82,0
0,53,77,0
0,42,50,4
0,60,78,0
0,60,90,0
0,56,44,4
0,44,36,0
0,48,93,0
0,44,61,0
0,32,47,4
0,53,99,0
0,65,63,0
0,53,76,0
0,60,89,0
0,65,110,0
0,60,109,0
0,65,89,4
0,68,50,4
0,32,100,4
0,36,68,0
0,42,77,0
0,60,56,16
0,53,43,4
0,42,41,4
0,72,60,56
0,48,78,12
0,53,104,0
0,60,113,4
0,65,104,0
0,53,79,4
0,60,92,0
0,65,102,0
0,68,64,0
0,77,94,0
0,37,113,0
0,42,77,0
0,77,85,24
0,60,66,16
0,53,43,4
0,42,50,4
0,77,94,4
0,68,86,16
0,60,86,4
0,65,92,0
0,32,64,8
0,36,34,0
0,48,71,4
0,79,85,0
0,53,75,0
0,53,75,4
0,60,88,0
0,65,102,0
0,60,84,0
0,32,100,8
0,36,68,0
0,42,77,0
0,68,78,36
0,65,96,0
0,60,66,4
0,42,24,4
0,77,85,24
0,65,83,12
0,60,90,4
0,53,71,4
0,42,58,4
0,75,85,32
0,48,85,12
0,53,102,0
0,60,115,0
0,65,107,0
0,53,69,4
0,68,65,0
0,60,116,4
0,37,113,4
0,42,77,0
0,72,76,20
0,62,116,32
0,65,62,20
0,60,81,4
0,32,64,8
0,42,50,0
0,63,98,4
0,34,74,8
0,60,107,12
0,58,44,0
0,46,36,0
0,46,93,0
0,46,61,4
0,53,99,0
0,34,47,0
0,53,76,0
0,60,89,0
0,65,110,0
0,58,109,0
0,60,89,4
0,65,80,4
0,34,100,4
0,36,68,0
0,46,67,0
0,58,56,16
0,53,43,4
0,46,64,4
0,70,56,40
0,46,78,12
0,53,104,0
0,58,113,4
0,60,104,0
0,53,79,4
0,60,92,0
0,65,102,0
0,65,94,0
0,77,85,0
0,40,98,0
0,77,80,20
0,58,66,24
0,77,94,0
0,53,43,4
0,36,37,4
0,65,106,4
0,58,86,4
0,60,92,0
0,34,64,8
0,36,64,0
0,44,66,0
0,79,85,8
0,58,55,8
0,46,71,0
0,53,85,4
0,53,75,4
0,58,88,0
0,65,102,0
0,58,74,0
0,47,85,0
0,34,100,8
0,40,98,0
0,65,108,4
0,60,96,0
0,58,66,8
0,44,62,4
0,77,94,8
0,60,83,12
0,58,90,4
0,53,71,4
0,47,101,4
0,58,82,40
0,46,85,12
0,53,102,0
0,58,115,4
0,60,107,0
0,65,116,4
0,65,86,0
0,44,62,8
0,48,82,0
0,58,56,28
0,70,56,0
0,58,84,12
0,50,96,4
0,60,73,8
0,72,73,0
0,60,72,4
0,58,86,4
0,60,100,0
0,53,77,4
0,41,96,4
0,55,55,0
0,48,56,4
0,36,48,0
0,48,93,4
0,51,31,0
0,36,47,4
0,55,99,0
0,62,69,0
0,74,69,0
0,48,61,0
0,55,97,0
0,62,110,0
0,60,109,0
0,62,89,0
0,67,50,4
0,36,100,0
0,36,68,0
0,49,82,0
0,51,47,8
0,60,56,8
0,55,43,4
0,42,41,4
0,48,78,12
0,55,104,0
0,60,113,4
0,55,91,0
0,62,106,0
0,62,104,0
0,74,76,0
0,67,64,4
0,40,98,8
0,42,77,0
0,74,78,20
0,51,52,4
0,60,66,8
0,74,84,4
0,55,43,0
0,42,50,4
0,67,86,12
0,60,86,4
0,74,85,0
0,62,92,0
0,36,64,8
0,36,34,0
0,42,21,0
0,60,64,0
0,72,64,0
0,46,56,0
0,34,48,0
0,46,93,4
0,51,99,0
0,34,47,0
0,55,92,0
0,60,96,0
0,55,109,0
0,46,61,0
0,74,94,0
0,60,89,0
0,67,50,0
0,34,100,4
0,36,68,0
0,42,77,0
0,72,72,16
0,51,55,8
0,55,56,8
0,51,43,4
0,42,48,4
0,42,21,60
0,46,85,12
0,51,102,0
0,55,115,4
0,60,107,0
0,55,94,4
0,60,103,0
0,67,65,0
0,40,98,8
0,42,77,0
0,46,51,16
0,51,59,4
0,60,62,0
0,55,81,4
0,42,50,8
0,67,76,0
0,34,64,16
0,36,34,0
0,67,72,12
0,36,54,0
0,60,55,0
0,55,31,0
0,44,54,0
0,32,46,0
0,63,66,0
0,75,66,0
0,44,93,0
0,32,47,0
0,63,106,0
0,51,99,0
0,56,109,0
0,44,61,4
0,60,87,0
0,60,89,0
0,63,80,4
0,32,100,4
0,75,94,0
0,36,68,0
0,42,77,0
0,75,85,24
0,55,57,8
0,56,56,8
0,51,43,4
0,42,41,4
0,44,78,12
0,51,104,0
0,56,113,4
0,60,104,0
0,60,97,4
0,63,111,0
0,63,94,0
0,40,98,8
0,42,77,0
0,75,85,28
0,55,60,8
0,56,66,8
0,51,43,4
0,32,54,4
0,42,50,0
0,75,93,4
0,63,96,12
0,56,86,4
0,60,92,0
0,32,64,8
0,36,34,0
0,42,21,0
0,53,34,0
0,43,51,0
0,31,43,0
0,62,67,8
0,74,67,0
0,75,96,0
0,43,93,0
0,55,99,4
0,31,47,0
0,43,61,0
0,60,109,0
0,60,93,0
0,62,105,0
0,62,89,0
0,67,50,4
0,31,100,4
0,36,68,0
0,42,77,0
0,74,96,24
0,55,63,8
0,60,56,8
