track,note,velocity,time
2,53,66,2632
2,58,83,0
2,58,91,100
2,52,76,4
2,53,84,4
2,52,79,1540
2,50,85,1484
2,58,78,0
2,58,77,136
2,49,92,4
2,57,80,20
2,48,69,0
2,58,76,1456
2,53,76,0
2,52,76,172
2,58,85,4
2,53,65,1492
2,52,78,0
2,58,78,1540
2,50,76,0
2,49,85,284
2,58,84,0
2,57,73,1496
2,50,65,0
2,52,91,340
2,53,85,384
2,57,82,368
2,55,86,324
2,55,85,76
2,58,88,388
2,60,96,1028
2,58,97,316
2,57,92,336
2,55,94,0
2,57,97,192
2,58,100,140
2,60,98,176
2,57,85,916
2,55,80,1488
2,57,71,1536
2,58,93,52
2,60,96,384
2,58,97,356
2,57,95,144
2,55,95,176
2,55,76,104
2,58,76,384
2,60,86,868
2,58,97,220
2,57,91,352
2,55,92,172
2,53,96,168
2,55,87,64
2,57,71,128
2,58,93,336
2,57,87,384
2,53,88,28
2,55,80,376
2,55,82,80
2,58,85,388
2,52,71,716
2,58,82,644
2,57,76,0
2,55,75,0
2,57,76,196
2,53,66,408
2,58,83,0
2,58,91,100
2,52,76,4
2,53,84,4
2,52,79,1540
2,50,85,1484
2,58,78,0
2,58,77,136
2,49,92,4
2,57,80,20
2,48,69,0
2,58,76,1456
2,53,76,0
2,52,76,172
2,58,85,4
2,53,65,1492
2,52,78,0
2,58,78,1540
2,50,76,0
2,49,85,284
2,58,84,0
2,57,87,1496
2,48,87,4
2,60,59,380
2,53,59,0
3,67,77,2616
3,67,93,104
3,74,100,388
3,72,105,8
3,74,110,184
3,70,110,196
3,69,98,304
3,67,91,188
3,69,91,24
3,70,88,120
3,72,100,184
3,74,105,388
3,69,93,368
3,67,85,24
3,65,87,36
3,62,85,60
3,62,93,116
3,67,87,360
3,69,91,504
3,67,98,312
3,65,93,272
3,64,91,160
3,65,86,24
3,64,82,116
3,62,80,152
3,64,95,352
3,65,95,384
3,69,94,272
3,67,76,96
3,67,78,124
3,74,84,392
3,72,101,476
3,74,95,164
3,70,101,148
3,69,95,156
3,67,100,64
3,69,96,196
3,70,109,100
3,72,93,116
3,74,103,4
3,69,83,380
3,67,93,368
3,65,97,28
3,62,80,204
3,62,94,124
3,67,76,4
3,69,89,0
3,67,86,384
3,65,87,20
3,64,78,192
3,65,83,32
3,64,87,144
3,62,73,160
3,65,78,52
3,61,80,4
3,69,73,112
3,65,64,0
3,61,98,104
3,60,93,264
3,61,101,60
3,61,105,124
3,65,88,392
3,67,107,784
3,65,103,84
3,63,111,332
3,61,105,140
3,65,94,184
3,60,93,696
3,62,97,2000
3,64,88,772
3,60,98,868
3,62,94,764
3,62,96,844
3,60,101,1160
3,62,106,128
3,64,86,368
3,62,84,0
3,64,86,308
3,62,91,0
3,64,77,240
3,61,79,0
3,67,86,392
3,67,85,112
3,74,97,384
3,72,103,456
3,74,104,132
3,70,102,180
3,69,93,324
3,67,87,0
3,69,91,36
3,70,98,144
3,72,92,152
3,74,109,424
3,69,101,352
3,67,105,8
3,65,107,32
3,62,94,200
3,62,92,72
3,67,87,8
3,69,95,1164
3,67,102,292
3,65,95,312
3,64,95,0
3,65,91,16
3,64,82,164
3,62,94,164
3,64,100,348
3,65,96,152
3,69,89,340
3,67,66,0
3,67,87,92
3,74,91,388
3,72,96,512
3,74,98,180
3,70,98,180
3,69,80,16
3,67,94,192
3,69,78,188
3,70,93,84
3,72,83,20
3,74,93,8
3,69,93,384
3,67,93,0
3,65,93,32
3,62,93,48
3,62,93,128
3,67,93,384
3,69,94,880
3,67,94,220
3,65,94,356
3,64,94,8
3,65,94,204
3,69,65,1360
3,72,84,0
4,65,51,2592
4,67,51,0
4,70,51,0
4,74,51,0
4,67,46,72
4,65,46,0
4,70,46,8
4,74,46,0
4,65,65,380
4,67,42,0
4,70,48,0
4,74,53,0
4,70,52,128
4,76,59,0
4,67,62,4
4,67,41,124
4,76,41,0
4,70,41,0
4,72,41,4
4,67,57,376
4,76,57,4
4,64,59,0
4,65,53,116
4,69,53,4
4,72,53,8
4,77,53,4
4,65,51,120
4,69,51,0
4,72,51,0
4,77,51,8
4,65,52,368
4,69,52,4
4,72,52,0
4,77,52,4
4,65,55,124
4,69,55,4
4,72,55,0
4,76,55,8
4,65,42,120
4,69,42,0
4,72,42,4
4,76,42,4
4,69,51,376
4,65,51,0
4,72,51,4
4,65,59,120
4,67,59,0
4,70,59,4
4,67,51,128
4,70,51,0
4,65,51,0
4,65,53,380
4,67,53,0
4,74,53,8
4,70,53,0
4,67,59,116
4,65,59,4
4,70,59,0
4,73,59,8
4,67,46,116
4,65,46,0
4,70,46,8
4,73,46,4
4,67,52,376
4,70,52,0
4,65,52,4
4,65,52,124
4,69,52,0
4,65,52,132
4,69,52,4
4,69,56,384
4,65,33,0
4,69,48,124
4,65,48,4
4,65,48,124
4,69,48,0
4,60,48,384
4,69,48,4
4,65,48,4
4,67,49,120
4,62,49,0
4,70,49,4
4,67,50,124
4,62,50,0
4,70,50,4
4,70,50,380
4,67,50,0
4,67,51,124
4,62,51,0
4,70,51,8
4,62,52,124
4,67,52,0
4,70,52,0
4,62,59,376
4,67,59,8
4,70,59,0
4,72,56,132
4,69,56,0
4,65,56,0
4,69,53,128
4,72,53,0
4,65,53,4
4,65,55,380
4,64,55,0
4,69,55,4
4,65,55,124
4,69,55,4
4,72,55,0
4,72,55,124
4,65,55,0
4,69,55,4
4,65,55,376
4,60,55,0
4,69,55,4
4,62,50,120
4,67,50,4
4,70,50,4
4,67,47,124
4,62,47,0
4,70,47,0
4,62,43,380
4,67,43,4
4,70,43,4
4,70,51,124
4,67,51,4
4,61,51,0
4,67,49,124
4,70,49,0
4,61,49,4
4,61,44,360
4,64,44,8
4,67,44,8
4,70,44,8
4,62,50,116
4,65,50,4
4,69,51,4
4,62,56,120
4,65,56,4
4,69,56,4
4,62,52,376
4,65,52,4
4,69,52,4
4,62,52,124
4,65,52,4
4,69,52,4
4,62,52,120
4,65,52,4
4,69,52,8
4,62,53,372
4,65,53,0
4,69,53,4
4,65,57,124
4,61,57,0
4,70,57,8
4,61,41,124
4,65,49,0
4,70,42,4
4,65,68,380
4,61,48,0
4,65,48,120
4,61,13,4
4,67,77,4
4,65,40,128
4,61,35,0
4,67,62,0
4,61,59,384
4,65,59,4
4,60,58,124
4,65,57,4
4,69,57,4
4,60,56,116
4,65,56,4
4,69,56,0
4,60,55,384
4,65,55,8
4,69,55,4
4,60,53,112
4,65,53,8
4,69,53,4
4,60,52,120
4,65,52,4
4,69,52,8
4,60,61,372
4,65,61,0
4,60,61,112
4,65,61,8
4,70,61,8
4,65,60,128
4,60,60,0
4,70,60,4
4,65,55,384
4,60,55,0
4,73,55,8
4,70,55,0
4,60,55,116
4,73,55,4
4,65,55,4
4,70,55,4
4,60,53,112
4,65,53,4
4,73,53,8
4,70,53,0
4,60,59,372
4,65,56,8
4,65,53,120
4,69,64,8
4,60,59,8
4,60,44,116
4,65,61,8
4,60,49,372
4,65,40,4
4,69,64,8
4,60,39,104
4,65,51,4
4,69,76,12
4,60,47,128
4,65,53,0
4,60,34,380
4,65,50,4
4,62,62,132
4,58,51,0
4,62,67,128
4,58,58,4
4,58,60,376
4,62,60,4
4,67,60,4
4,55,57,108
4,62,57,8
4,67,57,8
4,55,55,120
4,62,55,4
4,67,55,8
4,55,56,376
4,62,56,4
4,58,56,0
4,62,60,124
4,50,60,4
4,57,60,8
4,65,50,116
4,62,50,4
4,62,55,380
4,60,55,0
4,65,55,8
4,60,53,116
4,62,53,4
4,65,53,8
4,60,52,120
4,62,52,4
4,65,52,4
4,60,58,368
4,62,58,4
4,58,51,128
4,62,51,4
4,62,55,120
4,67,55,8
4,58,61,380
4,62,61,4
4,62,60,120
4,55,60,12
4,55,58,120
4,62,58,4
4,58,56,380
4,62,56,4
4,57,58,124
4,64,58,8
4,57,61,120
4,64,61,4
4,57,62,380
4,67,62,0
4,57,58,132
4,67,58,4
4,57,59,128
4,67,59,4
4,67,61,376
4,57,61,4
4,53,97,128
4,62,66,128
4,67,66,0
4,58,66,0
4,58,66,128
4,67,66,8
4,62,66,4
4,48,103,108
4,48,105,124
4,60,53,140
4,70,53,0
4,64,53,4
4,70,57,128
4,60,57,0
4,64,57,4
4,48,96,120
4,48,98,124
4,65,51,132
4,69,51,0
4,60,51,0
4,60,56,120
4,65,56,8
4,69,56,4
4,48,96,128
4,48,97,128
4,60,39,116
4,65,62,4
4,69,60,8
4,60,49,120
4,65,46,8
4,69,69,4
4,48,101,120
4,50,101,128
4,67,58,128
4,62,58,0
4,70,58,4
4,70,61,128
4,67,61,0
4,62,61,8
4,50,95,116
4,49,94,128
4,67,52,124
4,58,52,0
4,61,52,0
4,70,52,4
4,58,56,128
4,61,56,0
4,67,56,0
4,70,56,4
4,49,107,124
4,48,111,124
4,60,58,116
4,65,58,8
4,69,58,4
4,60,59,124
4,69,59,0
4,65,59,4
4,48,102,124
4,48,105,136
4,60,62,124
4,65,62,8
4,69,62,4
4,69,66,128
4,60,66,0
4,65,66,4
4,48,103,504
4,62,61,124
4,65,61,0
4,70,61,0
4,70,71,124
4,62,29,4
4,65,57,4
4,48,114,120
4,48,116,124
4,70,60,132
4,62,60,0
4,67,60,4
4,70,62,120
4,67,62,0
4,62,64,8
4,48,112,120
4,48,113,132
4,60,57,128
4,65,57,0
4,69,57,0
4,60,57,124
4,69,57,8
4,65,57,0
4,48,104,124
4,48,106,128
4,60,51,128
4,65,51,4
4,69,51,4
4,60,55,116
4,69,55,0
4,65,55,4
4,48,105,132
4,50,105,132
4,62,58,116
4,67,58,4
4,70,58,0
4,62,62,124
4,67,62,0
4,70,62,4
4,50,98,128
4,49,102,132
4,58,59,124
4,67,59,4
4,61,59,0
4,58,59,124
4,67,59,8
4,61,59,0
4,49,94,116
4,48,97,132
4,60,61,124
4,65,60,8
4,69,60,4
4,60,57,116
4,65,57,4
4,69,57,0
4,48,97,132
4,60,39,112
4,65,41,8
4,69,41,4
4,41,41,4
4,72,41,8
4,77,41,4
5,79,62,2572
5,79,55,192
5,86,71,64
5,84,63,1128
5,86,65,188
5,82,67,4
5,84,72,60
5,82,58,4
5,81,71,16
5,79,66,56
5,81,66,8
5,82,67,4
5,84,61,208
5,86,75,1528
5,81,67,304
5,82,73,0
5,81,73,56
5,79,59,12
5,77,38,40
5,74,53,12
5,74,67,220
5,79,55,388
5,81,70,1096
5,79,52,20
5,81,69,68
5,79,57,52
5,77,54,20
5,76,65,4
5,77,51,24
5,76,56,8
5,74,49,8
5,76,56,292
5,77,44,0
5,81,65,16
5,79,65,372
5,79,63,92
5,86,70,16
5,84,58,52
5,86,68,168
5,82,57,12
5,84,68,68
5,82,53,32
5,81,72,56
5,79,55,20
5,81,67,0
5,82,68,0
5,84,58,236
5,86,73,1476
5,81,67,12
5,82,70,12
5,81,62,72
5,79,61,16
5,77,37,48
5,74,44,8
5,74,65,108
5,79,49,12
5,81,60,1136
5,79,42,16
5,81,67,56
5,79,43,76
5,77,55,28
5,76,64,0
5,77,55,4
5,76,62,0
5,74,52,16
5,67,60,1452
5,67,68,108
5,70,54,404
5,72,49,12
5,70,54,4
5,69,60,20
5,67,67,188
5,69,65,8
5,70,61,0
5,72,64,196
5,73,64,56
5,72,54,368
5,69,58,316
5,73,58,336
5,73,46,72
5,77,48,4
5,79,62,0
5,77,52,0
5,79,60,0
5,77,51,68
5,75,49,4
5,73,34,208
5,77,55,168
5,72,49,760
5,70,60,364
5,72,64,8
5,70,63,12
5,69,55,16
5,67,64,204
5,67,59,104
5,70,55,0
5,72,63,60
5,70,58,12
5,72,46,44
5,70,61,28
5,69,56,308
5,67,65,24
5,65,51,196
5,67,63,160
5,69,71,176
5,70,67,48
5,69,63,12
5,65,47,24
5,67,64,376
5,67,58,104
5,74,65,340
5,72,65,12
5,74,58,192
5,70,49,76
5,72,66,0
5,70,58,84
5,69,59,48
5,67,69,148
5,69,60,224
5,79,56,1552
5,79,55,112
5,86,63,404
5,84,55,40
5,86,63,196
5,82,46,112
5,84,69,0
5,82,54,64
5,81,64,20
5,79,58,28
5,81,66,32
5,82,64,8
5,84,41,12
5,86,72,1508
5,81,65,4
5,82,66,0
5,81,66,76
5,79,57,20
5,77,59,24
5,74,62,4
5,74,58,148
5,79,58,72
5,81,65,36
5,79,58,44
5,81,57,72
5,79,58,8
5,77,49,252
5,76,51,12
5,77,34,28
5,76,60,56
5,74,54,0
5,76,59,1512
5,77,57,4
5,81,67,372
5,79,63,376
5,79,67,56
5,86,67,384
5,84,64,0
5,86,64,212
5,82,69,136
5,84,69,68
5,82,48,76
5,81,66,264
5,79,66,24
5,81,66,192
5,82,55,188
5,84,54,132
5,86,65,56
5,81,70,16
5,82,71,80
5,81,70,56
5,79,61,64
5,77,42,28
5,74,45,208
5,74,66,132
5,79,52,56
5,81,64,0
5,79,45,12
5,81,65,52
5,79,50,80
5,77,51,44
5,76,60,196
5,77,38,176
6,62,54,2552
6,64,57,2292
6,65,41,768
6,65,38,100
6,64,51,20
6,62,54,0
6,61,45,4
6,62,44,1536
6,62,50,172
6,65,49,1148
6,67,56,396
6,64,57,0
6,65,35,764
6,65,45,92
6,64,42,1144
6,62,41,384
6,62,45,112
6,61,37,392
6,61,45,88
6,62,66,392
6,62,62,240
6,64,68,380
6,65,62,348
6,69,60,336
6,67,62,368
6,70,48,752
6,65,41,744
6,65,44,108
6,60,37,188
6,61,46,776
6,58,64,2588
6,60,48,0
6,58,57,184
6,57,57,172
6,60,45,1144
6,62,60,388
6,62,52,56
6,64,59,752
6,65,48,756
6,62,43,8
6,62,49,84
6,62,52,8
6,64,61,752
6,64,51,40
6,62,51,8
6,64,47,200
6,62,46,4
6,61,46,16
6,64,46,0
6,64,46,32
6,61,46,0
6,64,46,140
6,61,46,4
6,58,59,4
6,62,58,1516
6,64,66,0
6,65,55,776
6,57,46,1456
6,58,43,1508
6,62,55,696
6,61,57,776
6,62,37,16
6,57,36,4
6,53,48,16
6,60,47,728
6,57,33,0
6,65,48,292
6,62,40,172
6,64,48,1496
6,65,44,1520
6,64,44,1508
6,62,52,1504
6,61,35,1528
6,62,41,1520
6,53,25,28
7,55,54,2536
7,58,57,0
7,62,66,0
7,67,60,0
7,70,75,0
7,74,76,20
7,70,80,192
7,67,70,168
7,72,79,184
7,70,74,180
7,67,61,4
7,60,67,188
7,58,66,0
7,55,60,0
7,52,71,192
7,48,66,8
7,53,63,192
7,57,73,156
7,60,76,184
7,65,76,184
7,69,71,176
7,72,78,168
7,69,69,156
7,65,73,152
7,72,84,152
7,69,68,168
7,65,73,152
7,60,80,132
7,57,78,184
7,53,78,184
7,57,79,0
7,60,78,192
7,55,71,184
7,58,82,168
7,62,84,144
7,67,73,176
7,70,84,184
7,74,81,168
7,70,84,192
7,67,72,136
7,73,86,180
7,70,74,0
7,65,65,8
7,61,68,20
7,58,75,0
7,55,66,196
7,49,82,0
7,55,50,12
7,72,75,32
7,69,61,192
7,65,68,176
7,60,73,168
7,57,69,0
7,53,66,188
7,48,67,164
7,53,61,184
7,57,65,188
7,60,81,188
7,65,86,184
7,69,91,188
7,72,88,164
7,65,90,88
7,69,93,88
7,72,94,76
7,77,97,80
7,69,91,88
7,72,95,92
7,77,100,80
7,79,104,68
7,74,73,0
7,70,80,196
7,67,69,180
7,62,66,0
7,58,68,188
7,55,65,12
7,58,70,0
7,72,76,0
7,70,76,188
7,67,77,188
7,64,77,188
7,60,83,188
7,58,72,0
7,55,60,192
7,48,67,176
7,53,65,4
7,57,71,188
7,60,66,144
7,65,66,188
7,69,60,168
7,72,76,184
7,69,73,172
7,65,69,128
7,72,78,152
7,69,65,156
7,65,73,188
7,60,72,188
7,57,72,0
7,53,69,188
7,48,67,148
7,53,67,180
7,55,76,156
7,58,84,4
7,62,82,192
7,67,74,188
7,70,88,184
7,74,84,0
7,70,82,188
7,67,71,140
7,73,88,156
7,70,85,168
7,67,67,188
7,61,80,184
7,58,79,188
7,55,60,184
7,49,80,176
7,55,54,184
