track,note,velocity,time
1,74,104,0
1,58,99,0
1,67,93,20
1,79,122,120
1,70,113,0
1,62,99,20
1,67,99,300
1,74,107,0
1,82,122,0
1,70,88,160
1,79,101,0
1,86,110,20
1,86,104,480
1,94,109,20
1,74,91,0
1,74,111,200
1,58,105,0
1,67,99,20
1,79,120,180
1,70,120,0
1,62,106,20
1,67,97,240
1,74,99,20
1,82,124,0
1,70,85,200
1,86,115,20
1,79,101,0
1,94,109,600
1,86,104,0
1,74,88,0
1,57,89,60
1,68,118,0
1,72,103,40
1,69,116,0
1,71,127,60
1,68,127,0
1,56,106,20
1,57,105,0
1,72,111,20
1,68,121,0
1,69,109,20
1,73,127,760
1,69,127,0
1,61,94,0
1,52,99,20
1,53,94,20
1,69,127,0
1,62,92,20
1,74,122,0
1,70,121,0
1,70,127,300
1,74,127,0
1,57,85,40
1,69,109,20
1,72,117,0
1,68,116,80
1,71,113,0
1,70,118,40
1,67,98,0
1,65,113,0
1,69,110,0
1,60,98,20
1,57,97,0
1,56,109,220
1,59,83,40
1,58,108,0
1,55,109,0
1,51,89,0
1,57,100,0
1,69,121,40
1,60,92,0
1,72,127,0
1,81,127,0
1,51,96,20
1,70,113,80
1,74,118,0
1,60,91,0
1,50,95,0
1,82,127,0
1,81,127,20
1,69,121,20
1,54,98,0
1,63,89,0
1,60,90,0
1,72,125,0
1,53,84,40
1,69,109,0
1,59,85,20
1,57,81,0
1,73,109,20
1,64,84,0
1,79,108,40
1,74,113,20
1,57,88,480
1,67,125,20
1,71,127,0
1,64,89,0
1,53,90,0
1,59,94,20
1,53,94,0
1,59,86,40
1,57,75,0
1,69,127,20
1,74,127,0
1,64,83,20
1,71,98,60
1,74,127,1200
1,79,122,0
1,58,93,0
1,53,88,0
1,70,125,20
1,62,85,0
1,52,103,200
1,81,122,20
1,74,110,0
1,70,103,20
1,79,127,100
1,60,83,0
1,69,87,20
1,77,116,0
1,57,78,0
1,72,102,20
1,68,117,60
1,65,107,0
1,62,101,20
1,74,117,40
1,69,111,0
1,60,101,0
1,67,107,40
1,72,103,20
1,69,98,60
1,55,97,80
1,58,96,0
1,53,103,0
1,58,125,80
1,60,127,40
1,62,127,60
1,64,127,40
1,65,127,40
1,58,98,20
1,67,127,0
1,52,106,0
1,69,124,60
1,70,127,40
1,72,127,40
1,64,103,0
1,58,111,0
1,74,127,20
1,76,127,40
1,65,85,60
1,57,92,0
1,77,122,40
1,84,127,400
1,81,127,0
1,72,127,0
1,57,104,20
1,71,124,140
1,80,127,20
1,56,106,0
1,83,127,0
1,72,111,20
1,57,97,0
1,80,121,80
1,84,116,60
1,81,102,20
1,81,125,760
1,73,127,0
1,85,127,0
1,52,111,20
1,61,109,0
1,74,117,40
1,81,118,20
1,62,89,0
1,53,87,0
1,86,121,20
1,82,122,0
1,62,100,460
1,74,127,0
1,86,127,0
1,53,97,20
1,82,127,0
1,84,127,40
1,79,127,0
1,60,102,0
1,81,107,20
1,84,127,200
1,79,127,0
1,81,121,0
1,83,120,20
1,80,121,0
1,79,110,0
1,82,125,0
1,77,125,0
1,81,127,0
1,72,103,460
1,69,101,0
1,71,106,300
1,68,109,0
1,70,114,100
1,67,107,0
1,63,110,200
1,67,111,20
1,69,106,40
1,72,115,80
1,81,127,280
1,69,127,20
1,54,94,320
1,70,108,20
1,60,89,20
1,74,118,20
1,82,127,100
1,60,85,300
1,72,117,20
1,63,86,20
1,69,114,0
1,81,127,0
1,53,86,220
1,67,79,0
1,57,82,20
1,59,89,20
1,74,111,40
1,79,121,20
1,74,124,120
1,57,94,20
1,59,96,0
1,67,116,0
1,79,127,0
1,53,94,20
1,57,96,200
1,59,99,0
1,67,127,0
1,74,127,0
1,79,127,0
1,53,95,20
1,57,98,140
1,71,127,0
1,67,124,20
1,59,97,0
1,53,95,0
1,53,98,40
1,64,101,40
1,69,127,0
1,74,127,0
1,71,107,20
1,55,127,0
1,55,127,60
1,56,105,0
1,57,113,0
1,55,110,0
1,53,110,0
1,52,127,0
1,53,113,20
1,55,122,20
1,53,127,60
1,61,95,0
1,74,120,60
1,65,107,20
1,67,102,0
1,62,101,0
1,70,107,0
1,65,113,100
1,74,127,0
1,70,117,20
1,62,118,0
1,67,115,0
1,70,91,0
1,68,110,0
1,81,127,0
1,74,98,0
1,77,116,20
1,69,108,40
1,67,101,0
1,79,116,40
1,70,101,0
1,74,117,0
1,58,107,0
1,65,107,40
1,67,94,20
1,70,108,20
1,74,117,20
1,79,101,0
1,79,102,100
1,82,109,80
1,86,120,0
1,91,118,20
1,72,127,1420
1,70,120,0
1,74,118,40
1,77,125,0
1,70,121,360
1,74,127,0
1,65,125,0
1,62,98,20
1,63,101,180
1,64,96,100
1,77,115,20
1,74,107,0
1,72,109,0
1,69,107,0
1,65,99,20
1,69,111,80
1,65,118,0
1,62,107,20
1,74,114,0
1,72,120,0
1,65,115,0
1,74,117,20
1,72,120,0
1,77,125,20
1,69,117,0
1,64,100,0
1,63,106,40
1,74,108,0
1,72,100,20
1,69,104,0
1,62,116,0
1,61,99,40
1,65,102,0
1,69,104,0
1,72,116,0
1,60,95,20
1,57,102,0
1,60,105,0
1,62,106,0
1,65,104,20
1,69,107,60
1,72,106,40
1,74,95,20
1,77,100,20
1,79,100,0
1,81,100,20
1,84,98,40
1,86,96,60
1,89,95,0
1,93,102,20
1,96,101,0
1,98,104,0
1,101,102,0
1,61,109,520
1,62,116,60
1,74,121,20
1,65,116,0
1,71,118,0
1,69,120,0
1,74,115,0
1,83,118,0
1,71,121,0
1,69,115,0
1,77,107,20
1,81,118,0
1,76,93,20
1,80,125,0
1,68,115,0
1,71,87,0
1,71,117,40
1,67,109,0
1,79,117,20
1,77,110,0
1,74,107,0
1,67,127,400
1,65,113,0
1,77,125,20
1,74,116,0
1,71,121,0
1,64,100,40
1,63,106,100
1,62,110,20
1,74,125,20
1,67,113,20
1,71,113,0
1,65,121,0
1,71,121,120
1,67,121,0
1,65,127,0
1,74,127,0
1,62,113,0
1,77,127,220
1,48,108,60
1,67,107,20
1,79,116,20
1,74,110,0
1,55,102,20
1,58,105,60
1,62,98,20
1,65,102,0
1,67,95,40
1,70,107,60
1,74,110,0
1,79,102,60
1,82,101,40
1,86,111,40
1,88,100,40
1,91,95,20
1,94,107,60
1,98,104,20
1,103,127,0
1,79,127,680
1,74,122,20
1,70,110,20
1,48,95,80
1,80,120,0
1,58,102,140
1,62,103,220
1,64,105,0
1,68,108,60
1,72,100,200
1,76,101,80
1,80,107,80
1,84,113,240
1,88,103,40
1,92,109,40
1,95,108,60
1,96,113,40
1,41,98,0
1,73,127,1700
1,65,124,20
1,69,127,80
1,73,127,60
1,58,80,20
1,69,109,40
1,62,82,0
1,74,100,20
1,70,96,40
1,69,105,40
1,74,107,60
1,70,107,20
1,65,116,60
1,70,122,0
1,70,108,40
1,74,127,20
1,57,87,0
1,72,108,40
1,69,98,0
1,71,127,20
1,68,127,0
1,67,107,20
1,70,109,0
1,65,106,20
1,69,104,0
1,60,111,460
1,57,116,0
1,60,115,220
1,57,113,0
1,53,117,120
1,51,124,20
1,60,109,0
1,81,127,40
1,69,127,180
1,72,127,60
1,81,127,0
1,50,100,0
1,60,86,40
1,70,120,0
1,82,127,120
1,69,127,240
1,81,127,280
1,53,88,140
1,59,87,40
1,67,92,0
1,64,80,60
1,73,109,0
1,79,105,20
1,74,95,0
1,71,127,360
1,67,121,0
1,53,92,40
1,74,127,40
1,64,83,20
1,69,127,0
1,71,98,40
1,62,85,20
1,58,87,0
1,52,89,0
1,79,127,400
1,58,87,340
1,73,103,20
1,67,99,20
1,81,122,80
1,79,127,160
1,77,87,40
1,57,92,0
1,79,115,0
1,65,87,40
1,77,127,0
1,69,101,20
1,65,92,180
1,77,127,20
1,79,127,20
1,72,118,40
1,53,88,0
1,62,87,40
1,77,111,40
1,74,106,40
1,72,127,20
1,77,124,40
1,74,127,0
1,62,110,140
1,72,127,40
1,70,127,0
1,69,106,60
1,60,92,0
1,77,127,760
1,65,115,0
1,64,115,180
1,76,122,0
1,63,122,140
1,75,127,0
1,74,122,120
1,62,108,0
1,62,114,240
1,65,116,0
1,74,127,0
1,68,80,320
1,70,108,40
1,74,114,0
1,81,121,0
1,69,107,20
1,67,109,60
1,74,116,20
1,79,121,0
1,70,115,20
1,60,120,520
1,62,124,0
1,65,117,0
1,60,127,100
1,86,113,0
1,98,124,0
1,58,124,0
1,105,123,0
1,93,105,20
1,65,117,40
1,60,125,0
1,103,111,20
1,91,98,0
1,62,125,0
1,60,91,500
1,77,125,0
1,70,116,0
1,74,118,0
1,62,108,20
1,65,110,0
1,67,108,0
1,70,120,100
1,62,122,0
1,67,120,20
1,65,121,0
1,74,118,0
1,77,127,0
1,60,88,20
1,58,110,20
1,67,117,0
1,65,114,0
1,74,127,0
1,70,122,0
1,60,105,20
1,69,114,20
1,72,115,0
1,65,115,0
1,77,124,0
1,57,102,0
1,62,114,160
1,60,109,0
1,65,121,0
1,69,118,0
1,74,125,0
1,72,116,0
1,69,125,160
1,77,127,0
1,72,125,0
1,60,106,0
1,57,111,20
1,69,124,40
1,74,127,0
1,67,122,20
1,62,106,20
1,60,96,0
1,60,107,20
1,57,108,20
1,65,116,0
1,69,113,0
1,72,125,0
1,62,125,0
1,53,108,0
1,89,110,360
1,101,127,0
1,86,105,140
1,98,115,0
1,96,107,20
1,84,95,0
1,72,127,1000
1,72,127,120
1,72,127,280
1,50,109,0
1,54,107,40
1,60,110,60
1,74,127,20
1,71,113,20
1,66,118,0
1,73,127,60
1,66,51,0
1,72,127,80
1,43,110,40
1,53,106,40
1,62,106,40
1,67,105,0
1,71,115,0
1,59,113,0
1,65,104,20
1,74,127,280
1,69,120,20
1,53,113,0
1,62,117,0
1,65,117,0
1,59,118,0
1,74,122,380
1,71,125,0
1,69,127,0
1,59,117,0
1,62,124,0
1,81,127,0
1,59,92,360
1,67,108,0
1,53,85,0
1,71,118,20
1,55,57,20
1,76,120,20
1,79,126,20
1,83,114,600
1,95,123,0
1,86,101,60
1,98,113,0
1,105,109,0
1,93,103,20
1,91,98,100
1,103,115,0
1,74,118,580
1,71,115,0
1,69,122,0
1,77,127,0
1,65,121,0
1,76,127,80
1,64,110,20
1,63,110,60
1,75,122,0
1,69,51,0
1,69,109,40
1,65,124,0
1,62,117,0
1,71,121,20
1,74,127,0
1,71,125,60
1,74,116,0
1,69,127,0
1,64,113,0
1,76,125,0
1,77,127,0
1,69,127,0
1,74,125,0
1,71,125,0
1,65,120,0
1,79,127,60
1,48,127,0
1,36,127,0
1,67,127,20
1,74,127,0
1,70,127,0
1,70,127,420
1,67,125,0
1,74,127,0
1,62,121,0
1,53,110,0
1,58,118,0
1,62,107,400
1,79,127,0
1,65,116,0
1,67,121,0
1,74,127,0
1,70,125,0
1,58,122,0
1,86,127,420
1,65,107,0
1,91,127,0
1,70,124,0
1,60,113,20
1,79,127,0
1,82,127,0
1,53,124,640
1,62,127,0
1,74,127,20
1,70,127,0
1,67,127,0
1,79,127,0
1,58,122,0
1,48,127,40
1,74,127,20
1,80,127,0
1,58,127,0
1,56,108,640
1,60,104,60
1,64,101,20
1,68,106,60
1,72,111,0
1,76,108,40
1,80,89,80
1,84,95,20
1,88,93,20
1,92,106,80
1,95,113,40
1,100,122,0
1,80,115,860
1,81,118,20
1,84,127,40
1,80,118,140
1,81,118,0
1,84,127,80
1,80,116,140
1,81,110,40
1,84,127,20
1,80,111,160
1,81,105,0
1,85,127,780
1,77,127,20
1,81,127,80
1,85,127,60
1,81,120,80
1,86,109,100
1,82,110,40
1,81,100,120
1,86,102,60
1,82,105,20
1,82,121,100
1,77,111,0
1,82,101,0
1,86,127,20
1,80,110,140
1,84,102,0
1,81,105,20
1,83,115,100
1,80,117,0
1,79,102,0
1,82,117,20
1,81,124,20
1,77,122,20
1,72,117,440
1,69,120,0
1,68,115,0
1,71,108,0
1,67,108,60
1,70,117,0
1,63,107,100
1,67,107,60
1,69,107,60
1,72,127,80
1,81,127,380
1,69,127,200
1,72,127,60
1,81,127,0
1,54,98,160
1,60,95,20
1,70,127,40
1,82,127,120
1,69,127,180
1,81,127,0
1,53,80,20
1,67,96,0
1,57,74,20
1,73,103,40
1,59,81,0
1,74,108,0
1,79,117,60
1,71,118,60
1,67,118,20
1,53,89,20
1,57,89,40
1,59,91,20
1,64,87,40
1,74,122,20
1,69,127,0
1,71,113,20
1,62,96,40
1,52,102,0
1,58,101,0
1,70,117,80
1,79,116,0
1,74,122,0
1,58,101,220
1,61,109,80
1,64,103,40
1,70,111,20
1,69,100,40
1,73,114,40
1,76,107,40
1,81,127,60
1,79,127,400
1,57,95,0
1,65,92,120
1,69,101,20
1,72,111,20
1,77,114,120
1,55,96,400
1,60,98,0
1,67,100,40
1,61,97,0
1,65,91,60
1,72,106,20
1,73,109,80
1,77,116,100
1,53,96,500
1,60,92,40
1,69,102,0
1,72,110,60
1,77,117,120
1,56,97,0
1,60,92,60
1,65,93,80
1,68,92,80
1,84,93,20
1,89,108,40
1,92,117,80
1,96,116,20
1,73,96,40
1,74,107,100
1,83,109,20
1,86,118,0
1,79,109,0
1,76,105,0
1,83,124,200
1,79,113,20
1,74,115,0
1,71,107,0
1,76,103,20
1,70,110,60
1,69,98,40
1,68,114,20
1,76,105,20
1,71,110,0
1,79,117,20
1,74,108,0
1,67,110,20
1,62,108,160
1,74,124,60
1,67,121,0
1,71,121,0
1,62,111,20
1,59,106,0
1,71,113,20
1,67,106,0
1,64,105,0
1,62,100,200
1,71,98,0
1,67,95,0
1,74,108,0
1,64,57,60
1,60,95,20
1,64,89,40
1,72,98,0
1,69,92,0
1,67,90,0
1,81,96,500
1,96,109,20
1,91,94,20
1,84,101,0
1,88,96,20
1,93,101,0
1,95,108,120
1,80,96,0
1,83,97,20
1,81,93,280
1,84,93,20
1,88,97,60
1,91,102,20
1,93,101,0
1,96,116,0
2,41,86,0
2,48,79,320
2,57,87,380
2,41,86,1840
2,48,84,0
2,58,83,80
2,41,84,20
2,48,85,20
2,57,100,80
2,41,89,2060
2,48,82,40
2,58,82,0
2,67,86,67240
2,70,83,0
2,74,87,780
2,68,86,680
2,74,89,20
2,80,93,0
2,77,105,100
2,76,103,1240
2,79,91,0
2,81,64,21840
2,74,64,20
2,81,64,40
2,79,64,0
2,84,64,2360
2,83,64,0
2,82,64,0
2,81,64,260
2,67,108,80
2,70,103,740
2,74,108,240
2,68,92,400
2,74,108,80
2,80,95,700
2,77,105,700
2,76,103,1220
2,79,91,20
2,41,93,13540
2,48,82,0
2,57,98,20
2,39,77,20
2,46,84,80
2,55,100,100
2,38,83,0
2,45,89,20
2,53,102,240
2,37,82,20
2,44,84,0
2,53,89,20
3,72,125,2160
3,70,120,220
3,69,120,40
3,67,120,200
3,72,127,20
3,70,117,180
3,69,122,180
3,67,120,340
3,69,127,320
3,70,120,340
3,65,123,120
3,62,113,40
3,60,122,40
3,60,127,0
3,72,127,60
3,70,127,120
3,69,125,120
3,67,127,20
3,65,127,240
3,62,105,60
3,60,103,40
3,64,126,140
3,67,127,60
3,70,107,220
3,64,117,300
3,70,110,120
3,76,122,100
3,74,127,440
3,73,125,1120
3,76,127,220
3,75,103,20
3,72,126,0
3,74,126,0
3,69,127,0
3,67,127,20
3,72,127,20
3,69,127,0
3,69,127,200
3,67,127,0
3,72,127,0
3,67,127,20
3,70,125,0
3,65,127,20
3,70,126,800
3,74,127,20
3,77,127,0
3,77,127,40
3,74,111,0
3,70,107,0
3,67,127,80
3,70,99,0
3,74,127,0
3,65,126,0
3,70,124,0
3,67,127,0
3,69,127,20
3,72,127,0
3,74,124,0
3,65,127,0
3,72,127,0
3,69,127,0
3,74,127,0
3,69,127,0
3,72,124,0
3,65,127,20
3,69,121,0
3,72,109,0
3,69,127,20
3,65,127,0
3,62,127,0
3,64,127,760
3,67,127,720
3,70,127,660
3,64,127,660
3,70,127,720
3,76,127,720
3,74,127,780
