track,note,velocity,time
0,55,111,0
0,74,107,0
0,67,113,4
0,71,108,0
0,71,0,604
0,74,0,28
0,55,0,8
0,67,0,36
0,64,106,88
0,72,106,4
0,67,110,0
0,52,106,0
0,67,0,584
0,64,0,12
0,72,0,92
0,52,0,32
0,73,112,44
0,66,115,0
0,70,104,4
0,61,117,0
0,54,124,0
0,70,0,664
0,61,0,40
0,73,0,4
0,66,0,16
0,54,0,36
0,55,125,4
0,67,98,192
0,71,88,0
0,62,92,0
0,74,86,4
0,79,83,0
0,71,80,0
0,71,0,64
0,74,0,0
0,71,0,0
0,62,0,12
0,79,0,4
0,67,0,8
0,62,104,100
0,67,110,0
0,71,107,0
0,74,78,4
0,71,74,0
0,79,79,0
0,79,0,76
0,71,0,0
0,74,0,0
0,67,0,4
0,71,0,4
0,62,0,0
0,71,95,104
0,67,93,0
0,62,89,0
0,74,71,4
0,79,71,0
0,71,66,0
0,79,0,68
0,74,0,0
0,62,0,0
0,71,0,4
0,67,0,20
0,71,0,0
0,71,102,96
0,74,73,4
0,79,72,0
0,71,69,0
0,62,98,0
0,67,103,0
0,43,97,0
0,55,0,32
0,71,0,36
0,79,0,0
0,74,0,0
0,67,0,24
0,62,0,4
0,71,0,4
0,71,101,88
0,62,98,0
0,79,80,4
0,74,81,0
0,71,76,0
0,67,103,0
0,43,0,160
0,55,108,28
0,71,0,44
0,62,0,0
0,67,0,4
0,71,0,12
0,74,0,0
0,79,0,0
0,67,98,132
0,71,94,0
0,71,78,4
0,74,83,0
0,79,82,0
0,62,88,0
0,55,0,56
0,79,0,8
0,74,0,0
0,71,0,4
0,71,0,0
0,62,0,4
0,67,0,4
0,62,103,112
0,71,79,4
0,74,83,0
0,79,82,0
0,67,110,0
0,71,106,0
0,43,99,0
0,79,0,76
0,71,0,4
0,62,0,0
0,67,0,0
0,74,0,4
0,71,0,0
0,67,97,104
0,71,95,0
0,74,81,4
0,79,79,0
0,71,75,0
0,62,91,0
0,62,0,80
0,71,0,0
0,67,0,0
0,71,0,8
0,74,0,0
0,79,0,4
0,43,0,56
0,55,103,40
0,64,102,0
0,79,78,4
0,76,78,0
0,71,77,0
0,67,113,0
0,71,106,0
0,71,0,68
0,67,0,16
0,64,0,0
0,71,0,4
0,76,0,0
0,79,0,4
0,62,113,96
0,67,123,0
0,71,84,4
0,79,86,0
0,74,91,0
0,71,111,0
0,55,0,36
0,43,102,152
0,79,0,272
0,71,0,0
0,74,0,12
0,62,0,24
0,71,0,12
0,67,0,0
0,67,107,64
0,63,112,0
0,71,101,0
0,75,97,4
0,79,91,0
0,71,86,0
0,55,109,0
0,43,0,8
0,55,0,244
0,71,0,40
0,79,0,12
0,75,0,4
0,63,0,40
0,67,0,12
0,71,0,0
0,52,110,24
0,67,98,188
0,64,90,0
0,79,82,4
0,71,85,0
0,76,83,0
0,64,0,64
0,76,0,12
0,71,0,12
0,79,0,0
0,67,0,4
0,52,0,56
0,71,110,40
0,64,99,0
0,67,103,0
0,71,82,4
0,79,84,0
0,76,85,0
0,52,105,0
0,76,0,76
0,67,0,8
0,71,0,0
0,64,0,0
0,79,0,8
0,71,0,0
0,64,101,96
0,71,105,0
0,76,83,4
0,79,82,0
0,71,78,0
0,67,103,0
0,67,0,52
0,71,0,16
0,76,0,0
0,64,0,4
0,79,0,8
0,71,0,8
0,52,0,60
0,64,106,40
0,76,82,4
0,79,81,0
0,71,79,0
0,71,110,0
0,67,109,0
0,40,96,0
0,67,0,76
0,64,0,0
0,76,0,4
0,71,0,4
0,79,0,0
0,71,0,8
0,64,106,96
0,67,113,0
0,76,92,4
0,71,86,0
0,79,86,0
0,71,109,0
0,40,0,176
0,52,98,12
0,71,0,52
0,67,0,0
0,64,0,4
0,79,0,24
0,71,0,0
0,76,0,0
0,67,108,112
0,64,99,0
0,76,86,4
0,79,82,0
0,71,78,0
0,71,106,0
0,67,0,48
0,52,0,0
0,64,0,24
0,71,0,0
0,71,0,8
0,76,0,0
0,79,0,16
0,40,99,92
0,76,87,4
0,71,81,0
0,79,84,0
0,64,106,0
0,71,113,0
0,67,123,0
0,67,0,56
0,71,0,16
0,64,0,0
0,76,0,4
0,79,0,16
0,71,0,0
0,71,108,96
0,64,101,0
0,76,82,4
0,79,82,0
0,71,77,0
0,67,113,0
0,67,0,68
0,64,0,8
0,71,0,0
0,71,0,4
0,79,0,0
0,76,0,0
0,40,0,32
0,71,111,76
0,64,107,0
0,76,79,4
0,81,83,0
0,71,66,0
0,69,116,0
0,52,98,0
0,69,0,72
0,71,0,12
0,64,0,0
0,71,0,20
0,81,0,0
0,76,0,0
0,71,120,84
0,67,125,0
0,76,87,4
0,71,80,0
0,79,89,0
0,52,0,0
0,64,113,0
0,40,99,188
0,79,0,216
0,71,0,28
0,76,0,12
0,64,0,44
0,67,0,44
0,40,0,32
0,71,84,8
0,52,103,0
0,62,115,0
0,76,92,4
0,79,86,0
0,64,107,92
0,62,0,44
0,52,0,36
0,67,111,16
0,64,0,76
0,79,0,40
0,71,0,0
0,76,0,16
0,48,110,60
0,67,0,20
0,71,0,8
0,67,111,164
0,72,111,0
0,64,100,0
0,72,84,4
0,76,89,0
0,79,89,0
0,64,0,56
0,67,0,4
0,72,0,12
0,72,0,16
0,79,0,4
0,76,0,0
0,72,108,96
0,64,108,0
0,76,81,4
0,79,82,0
0,72,78,0
0,67,115,0
0,72,0,76
0,79,0,0
0,76,0,0
0,67,0,8
0,64,0,24
0,72,0,24
0,48,0,16
0,67,111,40
0,64,103,0
0,76,82,4
0,79,80,0
0,72,78,0
0,72,111,0
0,48,87,0
0,79,0,68
0,76,0,0
0,72,0,4
0,64,0,4
0,67,0,12
0,72,0,12
0,48,0,16
0,36,106,72
0,72,113,0
0,76,86,4
0,79,84,0
0,72,82,0
0,64,113,0
0,67,125,0
0,67,0,68
0,64,0,0
0,72,0,8
0,79,0,4
0,76,0,0
0,72,0,4
0,72,123,104
0,64,110,0
0,67,123,0
0,76,89,4
0,79,89,0
0,72,86,0
0,36,0,156
0,48,116,32
0,64,0,56
0,79,0,16
0,76,0,0
0,72,0,0
0,72,0,4
0,67,0,8
0,64,105,108
0,67,115,0
0,76,86,4
0,79,84,0
0,72,82,0
0,72,109,0
0,72,0,64
0,67,0,0
0,64,0,0
0,72,0,4
0,79,0,0
0,76,0,0
0,48,0,20
0,76,86,104
0,79,86,0
0,72,83,0
0,72,118,0
0,67,127,0
0,64,118,0
0,36,106,0
0,79,0,64
0,76,0,0
0,72,0,16
0,64,0,12
0,72,0,0
0,67,0,4
0,67,127,92
0,64,111,0
0,72,125,0
0,76,84,4
0,79,86,0
0,72,82,0
0,72,0,76
0,79,0,0
0,76,0,4
0,64,0,16
0,36,0,0
0,72,0,8
0,67,0,4
0,48,118,80
0,64,123,0
0,69,127,0
0,81,84,4
0,76,84,0
0,72,82,0
0,72,120,0
0,72,0,76
0,64,0,32
0,72,0,4
0,76,0,0
0,69,0,8
0,81,0,8
0,64,116,60
0,72,127,0
0,72,84,4
0,76,85,0
0,79,85,0
0,67,127,0
0,48,0,68
0,36,108,120
0,79,0,244
0,72,0,0
0,76,0,16
0,76,92,124
0,48,125,0
0,79,91,4
0,72,84,0
0,36,0,0
0,72,0,332
0,76,0,0
0,79,0,4
0,67,0,12
0,48,0,4
0,72,0,16
0,64,0,0
0,38,107,12
0,62,96,192
0,69,102,0
0,69,86,4
0,74,83,0
0,78,93,0
0,66,100,0
0,78,0,72
0,74,0,4
0,66,0,12
0,69,0,4
0,69,0,0
0,62,0,0
0,38,0,80
0,62,102,16
0,66,105,0
0,69,109,0
0,78,88,4
0,69,83,0
0,74,82,0
0,50,97,0
0,74,0,76
0,78,0,4
0,69,0,4
0,62,0,0
0,66,0,0
0,69,0,8
0,69,118,96
0,66,113,0
0,69,78,4
0,78,89,0
0,74,77,0
0,62,106,0
0,50,0,52
0,74,0,16
0,78,0,0
0,69,0,0
0,69,0,20
0,66,0,0
0,62,0,0
0,38,101,100
0,74,81,4
0,78,90,0
0,69,82,0
0,66,114,0
0,62,110,0
0,69,120,0
0,78,0,56
0,74,0,0
0,69,0,16
0,69,0,4
0,62,0,0
0,66,0,0
0,62,116,112
0,66,121,0
0,78,95,4
0,69,87,0
0,74,89,0
0,69,127,0
0,38,0,160
0,50,104,28
0,69,0,64
0,78,0,0
0,62,0,4
0,69,0,0
0,66,0,0
0,74,0,12
0,50,0,104
0,66,113,8
0,69,116,0
0,62,100,0
0,78,87,4
0,74,82,0
0,69,82,0
0,78,0,56
0,69,0,12
0,74,0,0
0,62,0,4
0,69,0,0
0,66,0,0
0,38,101,116
0,78,89,4
0,69,82,0
0,74,83,0
0,66,117,0
0,62,110,0
0,69,120,0
0,74,0,64
0,78,0,0
0,69,0,4
0,62,0,8
0,66,0,0
0,69,0,4
0,66,112,108
0,62,106,0
0,69,79,4
0,78,88,0
0,74,79,0
0,69,115,0
0,69,0,72
0,62,0,0
0,66,0,0
0,74,0,8
0,78,0,0
0,69,0,0
0,38,0,48
0,66,119,60
0,62,111,0
0,78,89,4
0,71,80,0
0,74,84,0
0,71,111,0
0,50,107,0
0,62,0,60
0,66,0,0
0,71,0,4
0,71,0,24
0,78,0,0
0,74,0,4
0,50,0,56
0,62,118,40
0,66,124,0
0,69,127,0
0,78,90,4
0,74,85,0
0,69,86,0
0,26,127,0
0,38,95,4
0,62,0,48
0,78,0,12
0,69,0,12
0,74,0,0
0,66,0,0
0,69,0,4
0,28,127,112
0,62,107,0
0,78,91,4
0,69,86,0
0,74,85,0
0,66,112,0
0,69,115,0
0,26,0,20
0,59,127,0
0,28,0,108
0,38,0,20
0,31,127,0
0,50,95,4
0,59,0,16
0,62,127,20
0,62,0,84
0,50,0,32
0,31,0,16
0,28,127,0
0,38,99,0
0,62,127,48
0,74,0,76
0,69,0,0
0,78,0,0
0,28,0,8
0,38,0,32
0,31,127,4
0,43,106,0
0,43,85,0
0,50,78,0
0,36,127,0
0,44,92,0
0,49,125,4
0,66,0,12
0,62,0,16
0,69,0,12
0,43,0,68
0,50,0,12
0,31,0,20
0,31,127,0
0,62,93,0
0,62,0,4
0,74,82,0
0,71,75,0
0,79,79,0
0,71,82,0
0,67,100,0
0,50,62,4
0,43,61,0
0,60,127,32
0,71,0,8
0,62,0,4
0,71,0,16
0,74,0,0
0,67,0,0
0,79,0,16
0,50,0,12
0,43,0,4
0,31,0,64
0,38,127,0
0,71,78,4
0,28,127,0
0,71,110,0
0,67,125,0
0,62,111,0
0,38,0,0
0,44,0,0
0,74,80,4
0,79,80,0
0,50,85,0
0,43,97,0
0,60,0,28
0,43,0,0
0,59,127,16
0,74,0,16
0,71,0,12
0,79,0,4
0,43,0,52
0,50,0,0
0,71,0,28
0,67,0,0
0,71,97,28
0,67,100,0
0,71,74,4
0,74,77,0
0,79,77,0
0,43,63,0
0,50,72,0
0,28,0,36
0,74,0,32
0,67,0,4
0,71,0,0
0,79,0,8
0,43,0,0
0,71,0,4
0,62,0,0
0,50,0,8
0,26,127,4
0,67,115,0
0,62,106,0
0,71,107,0
0,36,0,0
0,44,90,0
0,44,0,1
0,74,82,3
0,71,77,0
0,79,81,0
0,50,83,0
0,43,88,0
0,79,0,52
0,71,0,0
0,74,0,0
0,71,0,4
0,62,0,0
0,67,0,0
0,43,0,44
0,50,0,12
0,59,0,12
0,67,120,0
0,71,110,0
0,79,81,4
0,74,82,0
0,71,79,0
0,62,111,0
0,50,64,0
0,43,58,0
0,62,127,32
0,43,0,56
0,50,0,12
0,26,0,24
0,38,127,64
0,28,127,4
0,50,81,0
0,43,88,0
0,38,0,0
0,79,0,64
0,71,0,4
0,74,0,0
0,62,0,4
0,71,0,0
0,67,0,0
0,43,0,32
0,50,0,16
0,62,0,8
0,31,127,0
0,67,113,0
0,71,72,4
0,74,79,0
0,79,80,0
0,62,102,0
0,71,106,0
0,43,64,0
0,50,66,4
0,59,127,28
0,79,0,20
0,74,0,4
0,71,0,0
0,71,0,4
0,67,0,0
0,62,0,4
0,43,0,28
0,50,0,12
0,36,127,84
0,74,82,4
0,71,76,0
0,67,116,0
0,71,104,0
0,62,106,0
0,36,0,0
0,44,95,0
0,44,0,1
0,79,80,3
0,50,73,0
0,43,74,0
0,79,0,40
0,67,0,12
0,31,0,4
0,62,0,0
0,71,0,0
0,71,0,8
0,74,0,0
0,43,0,44
0,50,0,16
0,57,127,20
0,59,0,4
0,31,127,36
0,74,86,4
0,71,81,0
0,79,84,0
0,62,103,0
0,67,116,0
0,71,106,0
0,50,68,0
0,43,60,4
0,57,0,36
0,62,0,16
0,55,127,4
0,71,0,0
0,67,0,0
0,43,0,16
0,50,0,0
0,79,0,28
0,71,0,0
0,74,0,0
0,31,0,80
0,38,126,4
0,71,77,4
0,79,80,0
0,28,127,0
0,64,109,0
0,71,107,0
0,67,120,0
0,38,0,0
0,76,77,4
0,50,83,0
0,43,90,0
0,67,0,68
0,71,0,0
0,64,0,0
0,76,0,12
0,79,0,12
0,71,0,4
0,43,0,8
0,50,0,0
0,67,116,80
0,71,107,0
0,74,85,4
0,79,82,0
0,71,78,0
0,62,110,0
0,69,107,0
0,50,69,0
0,69,0,4
0,43,57,0
0,43,0,84
0,50,0,0
0,28,0,16
0,55,0,40
0,36,127,44
0,26,127,4
0,50,81,0
0,43,76,0
0,36,0,0
0,44,88,0
0,44,0,1
0,43,0,111
0,50,0,0
0,36,127,0
0,28,127,4
0,43,58,0
0,50,69,0
0,36,0,0
0,26,0,28
0,59,127,8
0,79,0,36
0,71,0,16
0,74,0,0
0,43,0,0
0,50,0,12
0,59,0,84
0,38,126,0
0,71,78,4
0,74,86,0
0,79,87,0
0,31,127,0
0,50,90,0
0,43,101,0
0,38,0,0
0,28,0,4
0,62,127,32
0,62,0,84
0,43,0,20
0,50,0,0
0,28,124,0
0,36,127,0
0,50,67,4
0,43,56,0
0,36,0,0
0,31,0,20
0,64,127,12
0,43,0,80
0,50,0,24
0,79,0,4
0,71,0,0
0,62,0,12
0,74,0,4
0,71,0,8
0,67,0,12
0,28,0,4
0,36,127,8
0,35,127,4
0,54,63,0
0,47,72,0
0,36,0,0
0,44,90,0
0,44,0,1
0,47,0,87
0,54,0,16
0,35,0,12
0,64,0,20
0,35,127,0
0,66,114,0
0,74,89,4
0,78,91,0
0,71,82,0
0,62,105,0
0,71,106,0
0,47,65,4
0,54,72,0
0,62,127,36
0,66,0,20
0,74,0,4
0,71,0,4
0,78,0,0
0,71,0,4
0,62,0,0
0,54,0,8
0,47,0,0
0,62,0,28
0,35,0,24
0,38,127,0
0,30,127,4
0,32,116,0
0,71,106,0
0,66,114,0
0,62,105,0
0,38,0,0
0,78,85,4
0,71,80,0
0,74,86,0
0,47,88,0
0,54,89,0
0,62,127,36
0,32,0,12
0,66,0,12
0,71,0,0
0,74,0,4
0,78,0,0
0,62,0,0
0,71,0,16
0,54,0,32
0,47,0,0
0,66,117,72
0,62,108,0
0,78,85,4
0,74,83,0
0,71,73,0
0,71,105,0
0,47,68,0
0,54,78,0
0,74,0,52
0,78,0,4
0,30,0,0
0,66,0,4
0,54,0,4
0,71,0,4
0,71,0,8
0,62,0,0
0,47,0,8
0,36,127,0
0,78,87,4
0,74,84,0
0,35,127,0
0,66,115,0
0,62,105,0
0,71,105,0
0,36,0,0
0,44,95,0
0,44,0,1
0,71,78,3
0,47,78,0
0,54,82,0
0,62,0,32
0,59,127,8
0,74,0,12
0,78,0,0
0,62,0,4
0,66,0,0
0,71,0,4
0,71,0,0
0,54,0,28
0,47,0,0
0,59,0,36
0,66,121,0
0,62,111,0
0,78,91,4
0,74,92,0
0,71,84,0
0,71,111,0
0,47,62,0
0,54,77,0
0,62,127,40
0,54,0,36
0,47,0,0
0,35,0,100
0,38,127,12
0,30,127,4
0,47,83,0
0,54,89,0
0,38,0,0
0,62,0,40
0,66,0,0
0,71,0,4
0,54,0,36
0,71,0,12
0,74,0,0
