track,note,velocity,time
3,59,127,1294
3,59,0,28
3,59,127,7
3,60,127,43
3,59,0,4
3,60,0,40
3,57,105,7
3,57,0,40
3,59,127,5
3,59,0,4
3,60,127,415
3,60,0,30
3,60,127,21
3,62,126,50
3,60,0,10
3,62,0,16
3,60,127,69
3,60,0,7
3,62,127,406
3,62,0,22
3,62,127,1
3,62,0,3
3,62,127,20
3,62,0,30
3,62,127,7
3,62,0,47
3,60,127,23
3,60,0,29
3,60,127,65
3,60,0,79
3,62,127,16
3,62,0,26
3,60,127,62
3,60,0,69
3,59,127,15
3,59,0,30
3,59,127,70
3,59,0,25
3,57,113,0
3,55,127,28
3,57,0,8
3,55,0,142
3,59,127,608
3,59,0,40
3,60,127,3
3,60,0,38
3,57,127,11
3,57,0,40
3,59,127,13
3,59,0,70
3,60,113,387
3,60,0,16
3,60,111,29
3,60,0,14
3,60,111,6
3,60,0,34
3,62,105,0
3,62,0,40
3,59,103,4
3,60,113,47
3,59,0,3
3,60,0,84
3,62,115,353
3,62,0,26
3,62,127,28
3,62,0,18
3,62,127,27
3,62,0,47
3,62,127,16
3,62,0,42
3,62,127,1
3,62,0,38
3,60,127,18
3,60,0,36
3,60,127,60
3,60,0,82
3,59,127,15
3,59,0,44
3,59,127,57
3,59,0,82
3,57,127,8
3,57,0,158
3,64,127,1
3,64,0,27
3,66,127,14
3,66,0,32
3,67,127,38
3,67,0,18
3,67,127,31
3,67,0,74
3,62,127,20
3,62,0,18
3,59,127,32
3,59,0,91
3,60,127,6
3,60,0,32
3,62,127,15
3,62,0,127
3,59,127,68
3,59,0,23
3,60,127,22
3,60,0,16
3,62,127,2
3,62,0,12
3,59,127,9
3,59,0,22
3,55,127,81
3,55,0,152
3,64,127,3
3,64,0,30
3,66,127,15
3,66,0,44
3,67,127,25
3,67,0,20
3,67,127,30
3,67,0,77
3,62,127,22
3,62,0,20
3,59,127,31
3,59,0,85
3,60,127,12
3,60,0,27
3,62,127,17
3,62,0,135
3,55,127,56
3,55,0,16
3,55,127,32
3,55,0,18
3,55,127,28
3,55,0,31
3,57,127,15
3,57,0,86
3,59,127,18
3,59,0,95
3,60,127,3
3,59,127,22
3,60,0,5
3,57,127,18
3,59,0,3
3,57,0,91
3,59,93,73
3,59,0,27
3,59,109,24
3,59,0,21
3,59,127,25
3,59,0,25
3,59,127,22
3,60,127,51
3,59,0,7
3,60,0,18
3,57,127,19
3,57,0,36
3,59,127,17
3,59,0,82
3,60,105,311
3,60,0,26
3,60,105,25
3,60,0,40
3,60,127,6
3,60,0,15
3,60,127,33
3,60,0,33
3,62,127,14
3,62,0,85
3,60,127,17
3,60,0,6
3,62,127,398
3,62,0,17
3,62,127,28
3,62,0,40
3,62,127,8
3,62,0,35
3,62,127,1
3,62,0,45
3,60,127,21
3,60,0,24
3,60,127,72
3,60,0,80
3,62,127,13
3,62,0,46
3,60,127,43
3,60,0,82
3,59,127,20
3,59,0,30
3,59,127,2
3,59,0,52
3,57,127,10
3,55,127,23
3,57,0,2
3,55,0,134
3,59,107,353
3,59,0,25
3,59,127,24
3,59,0,40
3,59,127,8
3,59,0,20
3,59,127,26
3,60,127,48
3,59,0,1
3,60,0,42
3,59,127,57
3,59,0,99
3,60,127,334
3,60,0,30
3,60,127,18
3,60,0,40
3,60,127,6
3,60,0,42
3,62,127,6
3,62,0,41
3,60,127,56
3,60,0,2
3,62,127,353
3,62,0,30
3,62,127,17
3,62,0,40
3,62,127,11
3,62,0,25
3,62,127,19
3,62,0,35
3,62,127,68
3,62,0,63
3,60,127,29
3,60,0,44
3,60,127,55
3,60,0,78
3,59,127,17
3,59,0,38
3,59,127,60
3,59,0,80
3,57,127,14
3,57,0,147
3,64,127,6
3,64,0,37
3,66,127,14
3,66,0,45
3,67,127,24
3,67,0,19
3,67,127,27
3,67,0,73
3,62,127,13
3,62,0,32
3,59,127,31
3,59,0,87
3,60,127,9
3,60,0,28
3,62,127,19
3,62,0,22
3,59,127,46
3,59,0,20
3,60,127,25
3,60,0,34
3,62,127,2
3,62,0,13
3,59,127,11
3,59,0,30
3,55,127,74
3,55,0,164
3,64,127,1
3,64,0,35
3,66,127,16
3,66,0,45
3,67,127,22
3,67,0,18
3,67,127,29
3,67,0,75
3,62,127,17
3,62,0,21
3,59,127,35
3,59,0,78
3,60,127,17
3,60,0,28
3,62,127,18
3,62,0,132
3,55,127,62
3,55,0,17
3,55,127,28
3,55,0,30
3,55,127,17
3,55,0,31
3,57,127,16
3,57,0,129
3,59,127,19
3,57,127,199
3,59,0,5
3,57,0,99
3,64,117,196
3,64,0,53
3,66,72,7
3,67,112,20
3,66,0,2
3,67,0,20
3,66,110,5
3,66,0,2
3,62,127,3
3,62,0,14
3,62,127,35
3,62,0,26
3,64,127,5
3,62,127,10
3,64,0,4
3,59,127,11
3,62,0,1
3,59,0,15
3,64,117,3
3,62,90,43
3,64,0,2
3,62,0,9
3,64,102,13
3,64,0,12
3,59,114,15
3,57,79,81
3,59,0,2
3,57,0,11
3,55,104,13
3,55,0,10
3,57,122,15
3,57,0,3
3,59,112,2
3,62,114,14
3,59,0,2
3,62,0,10
3,62,127,13
3,62,0,26
3,59,100,2
3,62,127,19
3,59,0,2
3,62,0,15
3,66,127,17
3,66,0,49
3,62,125,17
3,62,0,16
3,59,120,0
3,59,0,92
3,52,125,4
3,55,124,32
3,52,0,3
3,55,0,17
3,55,127,2
3,55,0,28
3,55,126,69
3,55,0,1
3,59,125,2
3,57,123,37
3,59,0,4
3,55,113,39
3,57,0,2
3,55,0,19
3,59,124,4
3,59,0,12
3,62,127,2
3,62,0,84
3,59,127,34
3,57,127,20
3,59,0,3
3,57,0,15
3,55,127,8
3,55,0,219
3,59,106,2
3,59,0,103
3,57,114,30
3,57,0,7
3,55,104,0
3,55,0,126
3,59,112,6
3,59,0,80
3,59,102,38
3,59,0,20
3,57,110,2
3,57,0,277
3,59,127,176
3,59,0,18
3,59,127,30
3,60,127,46
3,59,0,10
3,60,0,26
3,57,127,11
3,57,0,33
3,59,127,0
3,59,0,5
3,60,127,389
3,60,0,15
3,60,127,34
3,62,127,45
3,60,0,6
3,62,0,42
3,60,127,2
3,60,0,13
3,62,127,395
3,62,0,30
3,62,127,22
3,62,0,40
3,62,127,3
3,62,0,27
3,62,127,2
3,62,0,37
3,60,127,22
3,60,0,29
3,60,127,66
3,60,0,82
3,62,127,10
3,62,0,86
3,60,127,10
3,60,0,85
3,59,127,10
3,59,0,46
3,59,127,59
3,59,0,25
3,57,127,0
3,55,127,29
3,57,0,5
3,55,0,100
3,59,127,553
3,60,127,43
3,59,0,12
3,60,0,29
3,57,127,9
3,57,0,39
3,59,127,13
3,59,0,2
3,60,113,358
3,60,0,29
3,60,127,15
3,60,0,16
3,60,127,36
3,60,0,31
3,62,127,14
3,62,0,42
3,59,115,7
3,59,0,18
3,60,127,30
3,60,0,4
3,62,117,356
3,62,0,28
3,62,127,19
3,62,0,40
3,62,127,10
3,62,0,10
3,62,127,17
3,62,0,34
3,62,127,60
3,62,0,80
3,60,127,14
3,60,0,39
3,60,127,61
3,60,0,84
3,62,127,7
3,62,0,50
3,60,127,2
3,60,0,45
3,59,127,18
3,59,0,43
3,59,127,3
3,59,0,56
3,57,126,10
3,57,0,21
3,55,127,1
3,55,0,4
3,59,127,440
3,59,0,18
3,59,127,30
3,60,127,46
3,59,0,10
3,60,0,26
3,57,127,11
3,57,0,33
3,59,127,0
3,59,0,5
3,60,127,389
3,60,0,15
3,60,127,34
3,62,127,45
3,60,0,6
3,62,0,42
3,60,127,2
3,60,0,13
3,62,127,396
3,62,0,17
3,62,127,34
3,62,0,20
3,62,127,23
3,62,0,27
3,62,127,2
3,62,0,37
3,60,127,22
3,60,0,29
3,60,127,66
3,60,0,82
3,62,127,10
3,62,0,86
3,60,127,10
3,60,0,85
3,59,127,10
3,59,0,46
3,59,127,59
3,59,0,25
3,57,127,0
3,55,127,29
3,57,0,5
3,55,0,100
3,59,127,553
3,60,127,43
3,59,0,12
3,60,0,29
3,57,127,9
3,57,0,39
3,59,127,13
3,59,0,2
3,60,113,358
3,60,0,29
3,60,127,15
3,60,0,16
3,60,127,36
3,60,0,31
3,62,127,14
3,62,0,42
3,59,115,7
3,59,0,18
3,60,127,30
3,60,0,4
3,62,117,2
3,62,0,4
3,62,127,1
3,62,0,20
3,62,127,8
3,62,0,14
3,62,127,9
3,62,0,4
3,62,127,16
3,62,0,45
3,60,127,14
3,60,0,39
3,60,127,61
3,60,0,84
3,62,127,2
3,62,0,1
3,60,127,18
3,60,0,14
3,59,127,3
3,59,0,1
3,59,127,3
3,59,0,9
3,57,126,6
3,57,0,2
3,55,127,1
3,55,0,4
4,42,101,382
4,42,0,10
4,42,72,38
4,42,0,10
4,42,97,38
4,42,0,14
4,42,28,10
4,42,0,10
4,42,93,14
4,42,0,13
4,42,70,11
4,42,0,13
4,42,97,11
4,42,0,14
4,42,76,10
4,42,0,14
4,42,83,34
4,42,0,13
4,42,97,11
4,42,0,14
4,42,17,10
4,42,0,8
4,42,89,16
4,42,0,14
4,42,97,34
4,42,0,15
4,42,28,9
4,42,0,12
4,42,72,12
4,42,0,11
4,42,28,13
4,42,0,11
4,42,97,13
4,42,0,14
4,42,40,10
4,42,0,9
4,42,89,15
4,42,0,11
4,42,57,13
4,42,0,13
4,42,101,11
4,42,0,14
4,42,64,10
4,42,0,14
4,42,83,34
4,42,0,14
4,42,101,10
4,42,0,15
4,42,89,33
4,42,0,13
4,42,35,11
4,42,0,14
4,42,93,10
4,42,0,15
4,42,28,9
4,42,0,10
4,42,70,14
4,42,0,11
4,42,25,13
4,42,0,14
4,42,101,10
4,42,0,32
4,42,87,16
4,42,0,13
4,42,70,11
4,42,0,14
4,42,101,10
4,42,0,15
4,42,76,9
4,42,0,13
4,42,42,11
4,42,0,6
4,42,83,18
4,42,0,13
4,42,93,11
4,42,0,15
4,42,89,33
4,42,0,14
4,42,93,34
4,42,0,30
4,42,80,18
4,42,0,12
4,42,33,12
4,42,0,13
4,42,93,11
4,42,0,16
4,42,28,8
4,42,0,12
4,42,89,12
4,42,0,13
4,42,43,11
4,42,0,14
4,42,101,10
4,42,0,14
4,42,61,10
4,42,0,14
4,42,87,10
4,42,0,8
4,42,70,16
4,42,0,14
4,42,97,10
4,42,0,13
4,42,87,35
4,42,0,15
4,42,89,33
4,42,0,15
4,42,87,33
4,42,0,14
4,42,97,34
4,42,0,31
4,42,89,17
4,42,0,13
4,42,31,11
4,42,0,11
4,42,97,13
4,42,0,14
4,42,72,10
4,42,0,13
4,42,31,11
4,42,0,6
4,42,72,18
4,42,0,12
4,42,97,12
4,42,0,14
4,42,89,34
4,42,0,15
4,42,89,33
4,42,0,15
4,42,87,33
4,42,0,12
4,42,101,36
4,42,0,15
4,42,89,33
4,42,0,14
4,42,70,10
4,42,0,13
4,42,101,11
4,42,0,15
4,42,83,9
4,42,0,13
4,42,72,35
4,42,0,13
4,42,97,11
4,42,0,14
4,42,89,34
4,42,0,13
4,42,89,35
4,42,0,14
4,42,89,34
4,42,0,12
4,42,97,36
4,42,0,14
4,42,25,10
4,42,0,10
4,42,97,14
4,42,0,13
4,42,67,11
4,42,0,14
4,42,101,10
4,42,0,15
4,42,76,9
4,42,0,12
4,42,76,36
4,42,0,13
4,42,97,11
4,42,0,14
4,42,93,34
4,42,0,14
4,42,93,34
4,42,0,15
4,42,76,33
4,42,0,11
4,42,97,37
4,42,0,15
4,42,93,33
4,42,0,13
4,42,54,11
4,42,0,13
4,42,97,11
4,42,0,14
4,42,89,10
4,42,0,12
4,42,87,36
4,42,0,11
4,42,101,13
4,42,0,14
4,42,97,34
4,42,0,15
4,42,93,33
4,42,0,15
4,42,80,33
4,42,0,10
4,42,97,38
4,42,0,15
4,42,93,33
4,42,0,13
4,42,61,11
4,42,0,12
4,42,101,12
4,42,0,13
4,42,76,11
4,42,0,12
4,42,70,12
4,42,0,6
4,42,87,18
4,42,0,11
4,42,101,13
4,42,0,12
4,42,93,36
4,42,0,15
4,42,89,33
4,42,0,14
4,42,72,34
4,42,0,10
4,42,25,14
4,42,0,8
4,42,101,16
4,42,0,14
4,42,93,34
4,42,0,12
4,42,54,12
4,42,0,13
4,42,101,11
4,42,0,13
4,42,83,11
4,42,0,13
4,42,54,11
4,42,0,5
4,42,83,19
4,42,0,12
4,42,97,12
4,42,0,13
4,42,101,35
4,42,0,21
4,42,97,27
4,36,101,0
4,42,0,11
4,42,97,85
4,40,109,0
4,42,0,13
4,40,0,24
4,42,93,59
4,40,106,0
4,42,0,12
4,40,0,25
4,42,104,59
4,40,104,0
4,42,0,14
4,36,0,0
4,36,112,34
4,40,0,4
4,42,97,44
4,40,106,0
4,42,0,11
4,40,0,34
4,42,97,51
4,40,96,0
4,42,0,13
4,40,0,25
4,42,93,58
4,40,99,0
4,42,0,12
4,40,0,18
4,42,104,66
4,40,106,0
4,42,0,14
4,36,0,8
4,36,112,26
4,40,0,15
4,42,97,33
4,40,109,0
4,42,0,10
4,40,0,40
4,42,97,46
4,40,104,0
4,42,0,12
4,40,0,33
4,42,97,51
4,40,101,0
4,42,0,11
4,40,0,39
4,42,87,46
4,40,101,0
4,42,0,9
4,40,0,10
4,40,101,29
4,40,0,10
4,40,112,14
4,36,0,13
4,42,97,11
4,36,106,0
4,42,0,12
4,40,0,16
4,42,97,68
4,40,106,0
4,42,0,11
4,40,0,28
4,42,97,57
4,40,99,0
4,42,0,11
4,40,0,33
4,42,97,52
4,40,104,0
4,42,0,11
4,36,0,16
4,36,106,21
4,40,0,7
4,42,101,41
4,40,104,0
4,42,0,12
4,40,0,41
4,42,101,43
4,40,106,0
4,42,0,12
4,40,0,33
4,42,101,51
4,40,106,0
4,42,0,13
4,40,0,25
4,42,97,58
4,40,109,0
4,42,0,14
4,36,0,11
4,36,112,23
4,40,0,6
4,42,97,42
4,40,109,0
4,42,0,11
4,40,0,38
4,42,97,47
4,40,104,0
4,42,0,13
4,40,0,25
4,42,93,58
4,40,109,0
4,42,0,12
4,40,0,23
4,42,104,61
4,40,109,0
4,42,0,14
4,36,0,7
4,36,117,27
4,40,0,6
4,42,97,42
4,40,109,0
4,42,0,10
4,40,0,36
4,42,97,50
4,40,109,0
4,42,0,12
4,36,0,12
4,40,0,23
4,36,106,1
4,42,97,48
4,40,109,0
4,42,0,11
4,40,0,37
4,42,87,48
4,40,106,0
4,42,0,9
4,36,0,4
4,40,0,35
4,36,101,0
4,42,97,48
4,40,109,0
4,42,0,12
4,40,0,40
4,42,97,44
4,40,109,0
4,42,0,11
4,36,0,10
4,40,0,23
4,42,97,52
4,45,125,3
4,41,125,0
4,42,0,8
4,45,0,39
4,41,0,2
4,40,122,43
4,42,97,1
4,42,0,11
4,40,0,2
4,40,96,9
4,40,0,14
4,40,106,10
4,40,0,13
4,40,127,12
4,40,0,25
4,42,108,0
4,36,111,0
4,53,90,0
4,49,80,5
4,42,0,7
4,53,0,1
4,49,0,2
4,53,54,31
4,53,0,11
4,42,108,39
4,40,108,0
4,53,98,1
4,42,0,11
4,53,0,6
4,53,63,29
4,53,0,12
4,36,0,5
4,42,108,32
4,36,98,0
4,53,95,1
4,42,0,12
4,53,0,6
4,53,76,31
4,40,0,5
4,53,0,8
4,42,104,33
4,40,105,0
4,53,111,3
4,42,0,11
4,53,0,7
4,53,63,29
4,53,0,11
4,36,0,10
4,53,98,24
4,42,104,1
4,36,98,0
4,42,0,11
4,53,0,6
4,53,74,30
4,40,0,9
4,53,0,5
4,42,104,35
4,40,108,0
4,53,103,0
4,42,0,13
4,53,0,5
4,53,74,28
4,53,0,16
4,42,100,34
4,53,98,2
4,42,0,10
4,36,0,3
4,53,0,5
4,36,105,28
4,53,88,2
4,40,0,8
4,53,0,7
4,42,111,31
4,40,111,0
4,53,103,2
4,42,0,12
4,53,0,5
4,53,78,29
4,53,0,14
4,36,0,5
4,53,103,28
