track,note,velocity,time
7,64,51,13632
7,56,47,96
7,68,53,96
7,63,68,114
7,59,59,0
7,54,55,0
7,56,37,3997
7,68,43,0
7,59,43,0
7,64,37,0
7,64,51,9216
7,56,47,96
7,68,53,96
7,63,68,114
7,59,59,0
7,54,55,0
7,64,55,2461
7,61,60,0
7,57,53,0
7,52,43,0
7,57,66,36
7,61,60,0
7,64,60,0
7,52,47,0
7,33,55,47
7,64,60,12
7,52,47,0
7,57,60,0
7,61,55,0
7,66,55,103
7,63,60,0
7,59,53,0
7,54,43,0
7,59,67,324
7,56,52,0
7,61,46,17320
7,70,39,0
7,66,47,0
7,64,62,588
7,61,62,0
7,57,60,0
7,69,60,0
7,59,46,93
7,66,39,0
7,63,47,0
7,68,55,13824
7,64,60,0
7,56,43,0
7,64,57,324
7,57,51,0
7,61,57,0
7,66,58,13
7,59,48,0
7,63,50,0
7,54,48,0
7,68,63,232
7,61,59,0
7,64,61,0
7,56,41,0
7,61,48,7
7,66,50,0
7,64,55,316
7,61,60,0
7,66,55,324
7,63,60,0
7,59,53,0
7,54,43,0
7,68,55,324
7,64,60,0
7,59,53,0
7,56,43,0
8,54,100,576
8,47,107,0
8,54,102,26
8,47,110,0
8,35,85,104
8,47,105,96
8,54,93,0
8,54,107,120
8,47,107,0
8,54,102,309
8,47,107,0
8,35,62,84
8,54,102,96
8,47,107,0
8,47,110,71
8,54,105,0
8,54,105,69
8,47,107,0
8,35,95,55
8,54,98,96
8,47,105,0
8,35,100,88
8,47,105,40
8,54,70,0
8,54,105,68
8,35,56,15
8,47,110,96
8,54,107,0
8,35,66,64
8,47,110,96
8,54,110,0
8,40,89,96
8,52,107,96
8,40,76,34
8,59,107,96
8,40,98,26
8,52,100,64
8,61,34,0
8,59,102,60
8,64,98,37
8,52,105,0
8,59,102,0
8,40,93,108
8,59,105,96
8,52,110,0
8,40,85,23
8,64,91,15
8,52,98,0
8,59,63,0
8,59,107,47
8,52,113,0
8,40,91,120
8,59,105,96
8,52,113,0
8,40,87,34
8,59,95,16
8,52,56,0
8,52,105,55
8,59,110,66
8,52,91,40
8,61,33,0
8,64,105,32
8,52,102,26
8,59,102,5
8,52,107,34
8,45,64,0
8,57,102,0
8,52,100,0
8,45,57,112
8,52,95,63
8,57,100,0
8,45,105,0
8,52,102,109
8,57,105,0
8,45,102,0
8,52,93,88
8,45,87,0
8,57,98,0
8,45,100,79
8,52,34,0
8,57,102,84
8,45,110,0
8,52,105,0
8,45,66,0
8,45,102,88
8,52,100,77
8,40,64,45
8,64,102,0
8,59,100,0
8,52,107,0
8,40,57,112
8,59,95,63
8,64,100,0
8,52,105,0
8,59,102,109
8,64,105,0
8,52,102,0
8,40,78,13
8,59,93,66
8,52,87,0
8,64,98,0
8,40,82,192
8,52,100,15
8,59,34,0
8,40,85,80
8,64,102,84
8,52,110,0
8,59,105,0
8,40,66,0
8,52,102,88
8,59,100,77
8,40,89,124
8,52,107,96
8,40,76,34
8,59,107,96
8,40,98,26
8,52,100,64
8,61,34,0
8,59,102,60
8,64,98,37
8,52,105,0
8,59,102,0
8,40,93,108
8,59,105,96
8,52,110,0
8,40,85,23
8,64,91,15
8,52,98,0
8,59,63,0
8,40,62,47
8,64,100,96
8,59,100,0
8,52,110,0
8,40,76,127
8,52,105,96
8,64,105,0
8,59,102,0
8,40,89,50
8,52,55,69
8,64,102,5
8,59,102,0
8,52,107,0
8,37,62,21
8,61,100,96
8,56,100,0
8,49,110,0
8,37,76,127
8,49,105,96
8,61,105,0
8,56,102,0
8,37,89,50
8,49,55,69
8,61,102,5
8,56,102,0
8,49,107,0
8,35,64,21
8,59,102,0
8,54,100,0
8,47,107,0
8,35,57,112
8,54,95,63
8,59,100,0
8,47,105,0
8,54,102,109
8,59,105,0
8,47,102,0
8,35,78,13
8,54,93,66
8,47,87,0
8,59,98,0
8,35,82,192
8,47,100,15
8,54,34,0
8,35,85,80
8,59,102,84
8,47,110,0
8,54,105,0
8,35,66,0
8,47,102,88
8,54,100,77
8,35,66,28
8,59,110,96
8,54,91,82
8,47,105,96
8,59,105,76
8,54,95,18
8,47,100,32
8,59,100,21
8,54,80,23
8,47,98,37
8,59,105,21
8,54,85,24
8,52,102,0
8,54,78,0
8,59,85,85
8,40,93,96
8,52,119,18
8,60,39,48
8,40,110,36
8,52,107,61
8,64,100,96
8,59,107,0
8,45,63,15
8,52,100,53
8,45,107,0
8,45,80,128
8,52,105,96
8,45,95,66
8,45,100,0
8,52,38,0
8,52,100,26
8,54,98,140
8,47,107,0
8,53,52,0
8,35,89,138
8,47,107,96
8,54,110,0
8,40,61,85
8,59,113,96
8,52,107,0
8,58,53,0
8,40,74,130
8,59,113,96
8,52,116,0
8,40,87,149
8,52,107,92
8,59,105,0
8,52,110,76
8,59,110,0
8,40,57,0
8,52,105,64
8,59,105,0
8,40,102,192
8,52,105,72
8,52,74,10
8,59,102,0
8,40,64,20
8,64,102,0
8,59,100,0
8,52,107,0
8,40,57,112
8,59,95,63
8,64,100,0
8,52,105,0
8,59,102,109
8,64,105,0
8,52,102,0
8,40,78,13
8,59,93,66
8,52,87,0
8,64,98,0
8,40,82,192
8,52,100,15
8,59,34,0
8,40,85,80
8,64,102,84
8,52,110,0
8,59,105,0
8,40,66,0
8,52,102,88
8,59,100,77
8,59,107,124
8,52,105,0
8,40,91,138
8,52,102,96
8,59,110,0
8,40,91,37
8,59,102,58
8,52,105,0
8,40,91,26
8,52,107,13
8,59,57,0
8,40,85,32
8,59,113,96
8,40,80,44
8,52,102,74
8,59,102,55
8,45,89,96
8,45,76,34
8,52,107,96
8,45,98,26
8,45,100,64
8,54,34,0
8,52,102,60
8,57,98,37
8,45,105,0
8,52,102,0
8,45,93,128
8,52,105,96
8,45,85,23
8,57,91,15
8,45,98,0
8,52,63,0
8,59,110,56
8,52,102,0
8,58,68,0
8,40,87,84
8,59,68,87
8,52,63,0
8,52,113,71
8,59,113,0
8,40,102,192
8,52,100,34
8,59,110,64
8,52,110,0
8,40,91,60
8,52,95,80
8,59,95,0
8,52,105,61
8,59,102,0
8,52,98,60
8,59,98,0
8,52,105,63
8,59,107,0
8,52,105,60
8,59,102,0
8,59,105,52
8,52,105,0
8,59,102,226
8,52,105,0
8,52,105,204
8,59,100,0
8,59,107,85
8,52,107,0
8,52,107,50
8,59,98,72
8,52,80,48
8,64,89,96
8,52,82,42
8,59,100,96
8,52,91,56
8,40,56,47
8,52,110,96
8,59,107,0
8,40,66,64
8,52,110,96
8,59,110,0
8,37,63,36
8,56,100,53
8,49,107,0
8,37,80,128
8,56,105,96
8,49,110,0
8,37,95,66
8,49,100,0
8,56,38,0
8,56,100,26
8,59,102,112
8,54,100,0
8,47,100,0
8,42,43,130
8,59,95,34
8,54,105,0
8,47,93,0
8,42,87,0
8,59,91,88
8,54,100,0
8,47,91,0
8,42,35,0
8,47,98,44
8,42,61,96
8,54,102,77
8,47,43,0
8,42,63,0
8,47,107,96
8,54,87,90
8,35,78,42
8,47,95,96
8,54,78,0
8,47,105,63
8,54,105,0
8,35,87,44
8,47,100,52
8,54,100,0
8,35,102,36
8,47,116,2
8,54,59,48
8,54,110,12
8,40,62,45
8,64,100,96
8,59,100,0
8,52,110,0
8,40,76,127
8,52,105,96
8,64,105,0
8,59,102,0
8,40,89,50
8,52,55,69
8,64,102,5
8,59,102,0
8,52,107,0
8,45,61,21
8,52,95,96
8,57,91,0
8,57,100,63
8,45,102,0
8,52,100,0
8,45,93,52
8,52,93,77
8,45,95,0
8,57,85,0
8,52,100,64
8,45,100,0
8,57,100,0
8,45,98,58
8,52,87,0
8,57,89,0
8,45,107,64
8,57,105,0
8,52,110,0
8,35,61,13
8,54,95,96
8,47,89,0
8,59,91,0
8,59,100,63
8,47,102,0
8,54,100,0
8,35,93,52
8,54,93,77
8,47,95,0
8,59,85,0
8,54,100,64
8,47,100,0
8,59,100,0
8,47,98,58
8,54,87,0
8,59,89,0
8,47,107,64
8,59,105,0
8,54,110,0
8,40,48,0
8,59,107,74
8,52,105,0
8,52,100,52
8,59,102,0
8,54,55,0
8,40,91,90
8,59,87,60
8,52,76,0
8,52,107,66
8,59,107,0
8,40,80,74
8,59,107,72
8,52,107,0
8,40,87,45
8,52,105,36
8,59,57,0
8,59,98,79
8,64,91,0
8,52,68,0
8,59,38,0
8,52,105,77
8,59,95,96
8,52,105,48
8,37,63,34
8,56,100,53
8,49,107,0
8,37,80,128
8,56,105,96
8,49,110,0
8,37,95,66
8,49,100,0
8,56,38,0
8,56,100,26
8,42,63,16
8,49,100,53
8,42,107,0
8,42,80,128
8,49,105,96
8,42,95,66
8,42,100,0
8,49,38,0
8,49,100,26
8,45,63,44
8,52,100,53
8,45,107,0
8,45,80,128
8,52,105,96
8,45,95,66
8,45,100,0
8,52,38,0
8,52,100,26
8,40,70,44
8,59,91,96
8,52,93,0
8,40,89,47
8,52,107,96
8,64,100,0
8,59,89,96
8,52,102,66
8,59,98,63
8,37,70,0
8,56,91,96
8,49,93,0
8,37,89,47
8,49,107,96
8,61,100,0
8,56,89,96
8,49,102,66
8,56,98,63
8,42,56,0
8,49,107,96
8,42,66,114
8,49,110,96
8,45,56,53
8,52,107,96
8,45,66,114
8,52,110,96
8,54,98,149
8,47,107,0
8,53,52,0
8,35,89,138
8,47,107,96
8,54,110,0
8,35,70,85
8,54,91,96
8,47,93,0
8,35,89,47
8,47,107,96
8,59,100,0
8,54,89,96
8,47,102,66
8,54,98,63
8,38,56,0
8,50,110,96
8,57,107,0
8,38,66,64
8,50,110,96
8,57,110,0
8,38,56,36
8,50,110,96
8,57,107,0
8,38,66,64
8,50,110,96
8,57,110,0
8,40,70,36
8,59,91,96
8,52,93,0
8,40,89,47
8,52,107,96
8,64,100,0
8,59,89,96
8,52,102,66
8,59,98,63
8,40,70,0
8,59,91,96
8,52,93,0
8,40,89,47
8,52,107,96
8,64,100,0
8,59,89,96
8,52,102,66
8,59,98,63
8,52,98,96
8,45,107,0
8,51,52,0
8,45,89,138
8,52,110,96
8,54,98,184
8,47,107,0
8,53,52,0
8,35,89,138
8,47,107,96
8,54,110,0
8,59,98,181
8,52,107,0
8,58,52,0
8,40,89,138
8,52,107,96
8,59,110,0
8,40,56,85
8,52,110,96
8,59,107,0
8,40,66,64
8,52,110,96
8,59,110,0
8,37,63,36
8,56,100,53
8,49,107,0
8,37,80,128
8,56,105,96
8,49,110,0
8,37,95,66
8,49,100,0
8,56,38,0
8,56,100,26
8,49,98,112
8,42,107,0
8,48,52,0
8,42,89,138
8,49,110,96
8,52,98,184
8,45,107,0
8,51,52,0
8,45,89,138
8,52,110,96
8,40,56,88
8,52,110,96
8,59,107,0
8,40,66,64
8,52,110,96
8,59,110,0
8,37,56,36
8,49,110,96
8,56,107,0
8,37,66,64
8,49,110,96
8,56,110,0
8,42,70,36
8,49,91,96
8,42,89,125
8,54,100,96
8,49,89,96
8,42,102,66
8,49,98,63
8,45,56,8
8,52,107,96
8,45,66,114
8,52,110,96
8,35,56,53
8,47,110,96
8,54,107,0
8,35,66,64
8,47,110,96
8,54,110,0
8,35,56,1440
8,47,110,96
8,54,107,0
8,35,66,64
8,47,110,96
8,54,110,0
8,40,63,36
8,59,100,53
8,52,107,0
8,40,80,128
8,59,105,96
8,52,110,0
8,40,95,66
8,52,100,0
8,59,38,0
8,59,100,26
8,59,102,208
8,52,110,0
8,40,78,117
8,52,110,21
8,59,102,0
8,52,107,143
8,59,100,0
8,59,102,26
8,52,110,0
8,40,85,104
8,52,105,96
8,59,93,0
8,59,107,120
8,52,107,0
8,40,78,117
8,52,95,96
8,59,78,0
8,52,105,63
8,59,105,0
8,40,87,44
8,52,100,52
8,59,100,0
8,40,102,36
8,52,116,2
8,59,59,48
8,59,110,12
8,45,62,45
8,57,100,96
8,52,100,0
8,45,76,148
8,57,105,96
8,52,102,0
8,45,89,50
8,45,55,69
8,57,102,74
8,52,102,0
8,45,107,0
8,45,66,21
8,57,110,96
8,52,91,82
8,57,105,76
8,52,95,18
8,45,100,32
8,57,100,21
8,52,80,23
8,45,98,37
8,57,105,21
8,52,85,24
8,40,61,0
8,59,95,96
8,52,89,0
8,64,91,0
8,64,100,63
8,52,102,0
8,59,100,0
8,40,93,52
8,59,93,77
8,52,95,0
8,64,85,0
8,59,100,64
8,52,100,0
8,64,100,0
8,52,98,58
8,59,87,0
8,64,89,0
8,52,107,64
8,64,105,0
8,59,110,0
8,40,76,0
8,59,105,96
8,52,110,0
8,40,93,60
8,52,107,96
8,59,110,0
8,40,93,44
8,64,110,24
8,52,105,61
8,59,82,96
8,64,105,68
8,40,98,32
8,47,58,0
8,52,100,55
8,59,102,4
8,59,110,2
8,52,102,0
8,58,68,0
8,40,87,84
8,59,68,87
8,52,63,0
8,52,113,71
8,59,113,0
8,40,102,192
8,52,100,34
8,59,110,64
8,52,110,0
8,40,91,60
8,52,95,80
8,59,95,0
8,52,105,61
8,59,102,0
8,52,98,60
8,59,98,0
8,52,105,63
8,59,107,0
8,52,105,60
8,59,102,0
8,59,105,52
8,52,105,0
8,37,62,34
8,61,100,96
8,56,100,0
8,49,110,0
8,37,76,127
8,49,105,96
8,61,105,0
8,56,102,0
8,37,89,50
8,49,55,69
8,61,102,5
8,56,102,0
8,49,107,0
8,35,62,21
8,59,100,96
8,54,100,0
8,47,110,0
8,35,76,127
8,47,105,96
8,59,105,0
8,54,102,0
8,35,89,50
8,47,55,69
8,59,102,5
8,54,102,0
8,47,107,0
8,54,107,117
8,47,105,0
8,35,91,138
8,47,102,96
8,54,110,0
8,35,91,37
8,54,102,58
8,47,105,0
8,35,91,26
8,47,107,13
8,54,57,0
8,35,85,32
8,54,113,96
8,35,80,44
8,47,102,74
8,54,102,55
8,40,78,0
8,52,95,96
8,59,78,0
8,52,105,63
8,59,105,0
8,40,87,44
8,52,100,52
8,59,100,0
8,40,102,36
8,52,116,2
8,59,59,48
8,59,110,12
8,45,78,45
8,52,78,96
8,45,105,63
8,52,105,0
8,45,87,44
8,45,100,52
8,52,100,0
8,45,102,36
8,45,116,2
8,52,59,48
8,52,110,12
8,35,61,45
8,54,95,96
8,47,89,0
8,59,91,0
8,59,100,63
8,47,102,0
8,54,100,0
8,35,93,52
8,54,93,77
8,47,95,0
8,59,85,0
8,54,100,64
8,47,100,0
8,59,100,0
8,47,98,58
8,54,87,0
8,59,89,0
8,47,107,64
8,59,105,0
8,54,110,0
8,37,66,0
8,61,110,96
8,56,91,82
8,49,105,96
8,61,105,76
8,56,95,18
8,49,100,32
8,61,100,21
8,56,80,23
8,49,98,37
8,61,105,21
8,56,85,24
8,42,78,0
8,49,78,96
8,42,105,63
8,49,105,0
8,42,87,44
8,42,100,52
8,49,100,0
8,42,102,36
8,42,116,2
8,49,59,48
8,49,110,12
8,45,78,45
8,52,78,96
8,45,105,63
8,52,105,0
8,45,87,44
8,45,100,52
8,52,100,0
8,45,102,36
8,45,116,2
8,52,59,48
8,52,110,12
8,35,66,45
8,59,110,96
8,54,91,82
8,47,105,96
8,59,105,76
8,54,95,18
8,47,100,32
8,59,100,21
8,54,80,23
8,47,98,37
8,59,105,21
8,54,85,24
8,52,102,0
8,54,78,0
8,59,85,85
8,40,93,96
8,52,119,18
8,60,39,48
8,40,110,36
8,52,107,61
8,64,100,96
8,59,107,0
8,40,85,15
8,59,105,96
8,52,102,0
8,40,100,50
8,59,110,96
8,52,105,0
8,54,105,0
8,40,102,39
8,59,100,52
8,52,100,0
8,52,100,0
8,59,100,0
8,40,105,96
8,59,105,141
8,52,105,0
8,64,105,0
8,59,85,48
8,52,80,32
8,64,110,23
8,59,89,24
8,52,93,20
8,59,76,18
8,40,93,0
8,52,105,96
8,59,87,96
8,59,127,8
8,64,110,0
8,52,83,0
8,40,120,58
8,52,115,66
8,59,105,39
8,64,96,15
8,52,80,0
8,59,105,0
8,64,102,21
8,52,92,0
8,59,102,0
8,64,96,159
8,50,109,0
