track,note,velocity,time
0,69,127,0
0,45,127,0
0,69,127,8
0,69,127,8
0,45,127,0
0,76,127,8
0,57,127,0
0,69,127,8
0,69,127,8
0,74,127,8
0,45,127,24
0,69,127,8
0,69,127,8
0,45,127,0
0,72,127,8
0,52,127,16
0,69,127,8
0,45,127,0
0,71,127,8
0,43,127,8
0,69,127,8
0,41,127,0
0,69,127,8
0,69,127,8
0,41,127,0
0,76,127,8
0,53,127,16
0,69,127,8
0,69,127,8
0,74,127,8
0,41,127,24
0,69,127,8
0,69,127,8
0,41,127,0
0,72,127,8
0,69,127,8
0,71,127,8
0,41,127,0
0,40,127,8
0,69,127,8
0,38,127,0
0,69,127,8
0,38,127,0
0,69,127,8
0,36,127,0
0,76,127,8
0,38,127,16
0,69,127,8
0,69,127,8
0,74,127,8
0,43,127,24
0,69,127,8
0,69,127,8
0,43,127,0
0,72,127,8
0,69,127,8
0,71,127,8
0,50,127,0
0,47,127,8
0,69,127,10
0,45,127,0
0,45,127,6
0,43,127,8
0,45,127,16
0,45,127,64
0,38,127,0
0,45,127,16
0,38,127,0
0,38,127,16
0,38,127,0
0,52,127,0
0,43,127,0
0,48,127,0
0,43,127,0
0,69,127,0
0,45,127,0
0,36,127,0
0,42,127,0
0,49,127,0
0,69,127,0
0,69,127,8
0,45,127,0
0,36,127,0
0,42,127,0
0,76,127,2
0,57,127,16
0,38,127,0
0,42,127,0
0,69,127,8
0,69,127,8
0,42,127,0
0,74,127,8
0,45,127,24
0,36,127,0
0,42,127,0
0,69,127,8
0,69,127,8
0,45,127,0
0,36,127,0
0,42,127,0
0,72,127,2
0,52,127,16
0,38,127,0
0,42,127,0
0,69,127,8
0,45,127,0
0,71,127,8
0,36,127,0
0,42,127,0
0,43,127,2
0,69,127,8
0,41,127,0
0,36,127,0
0,42,127,0
0,69,127,8
0,69,127,8
0,41,127,0
0,36,127,0
0,42,127,0
0,76,127,2
0,53,127,16
0,38,127,0
0,42,127,0
0,69,127,8
0,69,127,8
0,42,127,0
0,74,127,8
0,41,127,24
0,36,127,0
0,42,127,0
0,69,127,8
0,69,127,8
0,41,127,0
0,36,127,0
0,42,127,0
0,72,127,2
0,38,127,16
0,42,127,0
0,69,127,8
0,71,127,8
0,41,127,0
0,36,127,0
0,42,127,0
0,40,127,2
0,69,127,8
0,38,127,0
0,36,127,0
0,42,127,0
0,69,127,8
0,38,127,0
0,69,127,8
0,36,127,0
0,36,127,0
0,42,127,0
0,76,127,2
0,38,127,16
0,38,127,0
0,42,127,0
0,69,127,8
0,69,127,8
0,42,127,0
0,74,127,8
0,43,127,24
0,36,127,0
0,42,127,0
0,69,127,8
0,69,127,8
0,43,127,0
0,36,127,0
0,42,127,0
0,72,127,2
0,38,127,16
0,42,127,0
0,69,127,8
0,71,127,8
0,50,127,0
0,36,127,0
0,42,127,0
0,47,127,2
0,36,127,8
0,42,127,0
0,69,127,0
0,45,127,0
0,45,127,6
0,43,127,8
0,36,127,0
0,42,127,0
0,45,127,16
0,38,127,0
0,42,127,0
0,42,127,16
0,45,127,46
0,38,127,0
0,45,127,16
0,38,127,0
0,57,127,16
0,38,127,0
0,69,127,0
0,69,127,0
0,38,127,0
0,69,127,0
0,69,127,0
0,38,127,0
0,69,127,0
0,69,127,0
0,52,127,0
0,69,127,0
0,69,127,0
0,64,127,0
0,60,127,0
0,45,127,0
0,36,127,0
0,42,127,0
0,49,127,0
0,69,127,0
0,69,127,0
0,67,127,8
0,67,127,0
0,45,127,0
0,36,127,0
0,42,127,0
0,69,127,2
0,69,127,0
0,69,127,8
0,69,127,0
0,64,127,0
0,60,127,0
0,57,127,0
0,38,127,0
0,42,127,0
0,69,127,8
0,69,127,0
0,67,127,8
0,67,127,0
0,42,127,0
0,69,127,8
0,69,127,0
0,67,127,8
0,67,127,0
0,64,127,0
0,60,127,0
0,45,127,0
0,36,127,0
0,42,127,0
0,67,127,16
0,67,127,0
0,64,127,0
0,60,127,0
0,45,127,0
0,36,127,0
0,42,127,0
0,69,127,2
0,69,127,0
0,64,127,0
0,60,127,0
0,52,127,16
0,38,127,0
0,42,127,0
0,69,127,8
0,69,127,0
0,45,127,0
0,69,127,8
0,69,127,0
0,36,127,0
0,42,127,0
0,69,127,2
0,69,127,0
0,43,127,0
0,69,127,8
0,69,127,0
0,65,127,0
0,60,127,0
0,36,127,0
0,42,127,0
0,67,127,16
0,67,127,0
0,43,127,0
0,36,127,0
0,42,127,0
0,69,127,16
0,69,127,0
0,65,127,0
0,60,127,0
0,53,127,0
0,38,127,0
0,42,127,0
0,69,127,8
0,69,127,0
0,67,127,8
0,67,127,0
0,42,127,0
0,69,127,8
0,69,127,0
0,67,127,8
0,67,127,0
0,60,127,0
0,41,127,0
0,36,127,0
0,42,127,0
0,67,127,16
0,67,127,0
0,60,127,0
0,41,127,0
0,36,127,0
0,42,127,0
0,69,127,2
0,69,127,0
0,65,127,0
0,60,127,0
0,48,127,16
0,38,127,0
0,42,127,0
0,72,127,8
0,72,127,0
0,41,127,0
0,72,127,8
0,72,127,0
0,36,127,0
0,42,127,0
0,72,127,2
0,72,127,0
0,40,127,0
0,72,127,0
0,72,127,0
0,66,127,0
0,62,127,0
0,38,127,0
0,36,127,0
0,42,127,0
0,72,127,8
0,72,127,0
0,69,127,8
0,69,127,0
0,38,127,0
0,36,127,0
0,42,127,0
0,69,127,2
0,69,127,0
0,69,127,8
0,66,127,0
0,62,127,0
0,50,127,0
0,38,127,0
0,42,127,0
0,67,127,16
0,67,127,0
0,42,127,0
0,67,127,8
0,67,127,0
0,67,127,8
0,67,127,0
0,62,127,0
0,59,127,0
0,43,127,0
0,36,127,0
0,42,127,0
0,67,127,8
0,67,127,0
0,67,127,8
0,67,127,0
0,43,127,0
0,36,127,0
0,42,127,0
0,67,127,2
0,67,127,0
0,67,127,8
0,67,127,0
0,62,127,0
0,59,127,0
0,50,127,0
0,38,127,0
0,42,127,0
0,36,127,16
0,42,127,0
0,67,127,2
0,67,127,0
0,43,127,0
0,69,127,0
0,69,127,0
0,64,127,0
0,60,127,0
0,45,127,0
0,36,127,0
0,42,127,0
0,69,127,8
0,69,127,0
0,64,127,0
0,60,127,0
0,36,127,16
0,42,127,0
0,69,127,26
0,69,127,0
0,64,127,0
0,60,127,0
0,38,127,0
0,42,127,0
0,67,127,16
0,67,127,0
0,42,127,0
0,67,127,8
0,67,127,0
0,69,127,8
0,69,127,0
0,36,127,0
0,42,127,0
0,69,127,8
0,69,127,0
0,69,127,8
0,69,127,0
0,36,127,0
0,42,127,0
0,67,127,2
0,67,127,0
0,69,127,8
0,69,127,0
0,38,127,0
0,42,127,0
0,69,127,8
0,69,127,0
0,45,127,0
0,69,127,8
0,69,127,0
0,52,127,0
0,36,127,0
0,42,127,0
0,69,127,2
0,69,127,0
0,43,127,0
0,69,127,0
0,69,127,0
0,64,127,0
0,60,127,0
0,45,127,0
0,36,127,0
0,42,127,0
0,67,127,16
0,67,127,0
0,45,127,0
0,36,127,0
0,42,127,0
0,69,127,2
0,69,127,0
0,64,127,0
0,60,127,0
0,57,127,16
0,38,127,0
0,42,127,0
0,69,127,8
0,69,127,0
0,69,127,8
0,69,127,0
0,42,127,0
0,67,127,16
0,67,127,0
0,64,127,0
0,60,127,0
0,45,127,0
0,36,127,0
0,42,127,0
0,67,127,16
0,67,127,0
0,45,127,0
0,36,127,0
0,42,127,0
0,69,127,2
0,69,127,0
0,64,127,0
0,60,127,0
0,52,127,16
0,38,127,0
0,42,127,0
0,69,127,8
0,69,127,0
0,45,127,0
0,69,127,8
0,69,127,0
0,36,127,0
0,42,127,0
0,69,127,2
0,69,127,0
0,43,127,0
0,69,127,0
0,69,127,0
0,65,127,0
0,60,127,0
0,41,127,0
0,36,127,0
0,42,127,0
0,67,127,0
0,67,127,0
0,41,127,0
0,36,127,0
0,42,127,0
0,69,127,2
0,69,127,0
0,65,127,0
0,60,127,0
0,53,127,16
0,38,127,0
0,42,127,0
0,69,127,8
0,69,127,0
0,69,127,0
0,69,127,0
0,42,127,0
0,69,127,8
0,69,127,0
0,67,127,0
0,67,127,0
0,60,127,0
0,41,127,0
0,36,127,0
0,42,127,0
0,67,127,0
0,67,127,0
0,60,127,0
0,41,127,0
0,36,127,0
0,42,127,0
0,69,127,0
0,69,127,0
0,65,127,0
0,60,127,0
0,48,127,16
0,38,127,0
0,42,127,0
0,69,127,16
0,69,127,0
0,41,127,0
0,36,127,0
0,42,127,0
0,69,127,2
0,69,127,0
0,40,127,0
0,72,127,0
0,72,127,0
0,66,127,0
0,62,127,0
0,38,127,0
0,36,127,0
0,42,127,0
0,69,127,16
0,69,127,0
0,36,127,0
0,36,127,0
0,42,127,0
0,67,127,2
0,67,127,0
0,69,127,8
0,69,127,0
0,66,127,0
0,62,127,0
0,50,127,0
0,38,127,0
0,42,127,0
0,69,127,8
0,69,127,0
0,67,127,8
0,67,127,0
0,42,127,0
0,69,127,8
0,69,127,0
0,71,127,8
0,71,127,0
0,62,127,0
0,62,127,0
0,43,127,0
0,36,127,0
0,42,127,0
0,67,127,0
0,67,127,0
0,43,127,0
0,36,127,0
0,42,127,0
0,69,127,2
0,69,127,0
0,62,127,0
0,62,127,0
0,50,127,16
0,38,127,0
0,42,127,0
0,36,127,16
0,42,127,0
0,67,127,2
0,67,127,0
0,43,127,0
0,69,127,0
0,69,127,0
0,64,127,0
0,60,127,0
0,45,127,0
0,36,127,0
0,42,127,0
0,67,127,0
0,67,127,0
0,36,127,0
0,42,127,0
0,69,127,2
0,69,127,0
0,64,127,0
0,60,127,0
0,38,127,24
0,42,127,0
0,67,127,16
0,67,127,0
0,42,127,0
0,67,127,8
0,67,127,0
0,72,127,8
0,72,127,0
0,38,127,0
0,72,127,0
0,72,127,0
0,69,127,8
0,69,127,0
0,38,127,0
0,67,127,0
0,67,127,0
0,69,127,8
0,69,127,0
0,38,127,0
0,69,127,0
0,69,127,0
0,38,127,0
0,69,127,0
0,69,127,0
0,60,127,0
0,60,127,0
0,48,127,0
0,36,127,0
0,69,127,0
0,69,127,0
0,60,127,0
0,60,127,0
0,47,127,0
0,36,127,0
0,69,127,0
0,69,127,0
0,60,127,0
0,45,127,0
0,36,127,0
0,42,127,0
0,49,127,0
0,69,127,0
0,69,127,0
0,60,127,0
0,69,127,8
0,69,127,0
0,60,127,0
0,45,127,0
0,36,127,0
0,42,127,0
0,69,127,2
0,69,127,0
0,60,127,0
0,76,127,8
0,76,127,0
0,72,127,0
0,64,127,0
0,57,127,0
0,38,127,0
0,42,127,0
0,76,127,8
0,76,127,0
0,72,127,0
0,64,127,0
0,42,127,8
0,45,127,46
0,36,127,0
0,42,127,0
0,69,127,22
0,69,127,0
0,60,127,0
0,45,127,16
0,36,127,0
0,42,127,0
0,69,127,2
0,69,127,0
0,60,127,0
0,76,127,8
0,76,127,0
0,72,127,0
0,64,127,0
0,52,127,0
0,38,127,0
0,42,127,0
0,76,127,8
0,76,127,0
0,72,127,0
0,64,127,0
0,69,127,8
0,69,127,0
0,60,127,0
0,45,127,0
0,36,127,0
0,42,127,0
0,69,127,0
0,69,127,0
0,60,127,0
0,43,127,0
0,69,127,0
0,69,127,0
0,60,127,0
0,41,127,0
0,36,127,0
0,42,127,0
0,69,127,8
0,69,127,0
0,60,127,0
0,69,127,8
0,69,127,0
0,60,127,0
0,41,127,0
0,36,127,0
0,42,127,0
0,69,127,2
0,69,127,0
0,60,127,0
0,76,127,8
0,76,127,0
0,69,127,0
0,65,127,0
0,53,127,0
0,38,127,0
0,42,127,0
0,76,127,8
0,76,127,0
0,69,127,0
0,65,127,0
0,42,127,8
0,41,127,46
0,36,127,0
0,42,127,0
0,69,127,22
0,69,127,0
0,60,127,0
0,41,127,16
0,36,127,0
0,42,127,0
0,69,127,2
0,69,127,0
0,60,127,0
0,76,127,8
0,76,127,0
0,69,127,0
0,65,127,0
0,48,127,0
0,38,127,0
0,42,127,0
0,76,127,8
0,76,127,0
0,69,127,0
0,65,127,0
0,69,127,8
0,69,127,0
0,60,127,0
0,41,127,0
0,36,127,0
0,42,127,0
0,69,127,0
0,69,127,0
0,60,127,0
0,40,127,0
0,69,127,0
0,69,127,0
0,66,127,0
0,62,127,0
0,38,127,0
0,36,127,0
0,42,127,0
0,69,127,8
0,69,127,0
0,66,127,0
0,62,127,0
0,69,127,8
0,69,127,0
0,66,127,0
0,62,127,0
0,38,127,0
0,36,127,0
0,42,127,0
0,69,127,2
0,69,127,0
0,66,127,0
0,62,127,0
0,76,127,8
0,76,127,0
0,69,127,0
0,65,127,0
0,50,127,0
0,38,127,0
0,42,127,0
0,76,127,8
0,76,127,0
0,69,127,0
0,65,127,0
0,42,127,8
0,43,127,46
0,36,127,0
0,42,127,0
0,67,127,22
0,67,127,0
0,62,127,0
0,59,127,0
0,43,127,16
0,36,127,0
0,42,127,0
0,67,127,2
0,67,127,0
0,62,127,0
0,59,127,0
0,50,127,16
0,38,127,0
0,42,127,0
0,67,127,8
0,67,127,0
0,62,127,0
0,59,127,0
0,67,127,8
0,67,127,0
0,62,127,0
0,59,127,0
0,43,127,0
0,36,127,0
0,42,127,0
0,67,127,0
0,67,127,0
0,62,127,0
0,59,127,0
0,50,127,0
0,67,127,8
0,67,127,0
0,64,127,0
0,60,127,0
0,45,127,0
0,36,127,0
0,42,127,0
0,69,127,8
0,69,127,0
0,64,127,0
0,60,127,0
0,45,127,8
0,36,127,0
0,42,127,0
0,57,127,16
0,38,127,0
0,42,127,0
0,42,127,16
0,45,127,46
0,36,127,0
0,42,127,0
0,45,127,16
0,36,127,0
0,42,127,0
0,57,127,16
0,38,127,0
0,42,127,0
0,69,127,16
0,69,127,0
0,60,127,0
0,60,127,0
0,48,127,0
0,36,127,0
0,42,127,0
0,69,127,0
0,69,127,0
0,60,127,0
0,60,127,0
0,47,127,0
0,69,127,0
0,69,127,0
0,60,127,0
0,45,127,0
0,36,127,0
0,42,127,0
0,69,127,8
0,69,127,0
0,60,127,0
0,69,127,8
0,69,127,0
0,60,127,0
0,45,127,0
0,36,127,0
0,42,127,0
0,69,127,2
0,69,127,0
0,60,127,0
0,76,127,8
0,76,127,0
0,72,127,0
0,64,127,0
0,57,127,0
0,38,127,0
0,42,127,0
0,76,127,8
0,76,127,0
0,72,127,0
0,64,127,0
0,42,127,8
0,45,127,46
0,36,127,0
0,42,127,0
0,69,127,22
0,69,127,0
0,60,127,0
0,45,127,16
0,36,127,0
0,42,127,0
0,69,127,2
0,69,127,0
0,60,127,0
0,76,127,8
0,76,127,0
0,72,127,0
0,64,127,0
0,52,127,0
0,38,127,0
0,42,127,0
0,76,127,8
0,76,127,0
0,72,127,0
0,64,127,0
0,69,127,8
0,69,127,0
0,60,127,0
0,45,127,0
0,36,127,0
0,42,127,0
0,69,127,0
0,69,127,0
0,60,127,0
0,43,127,0
0,69,127,0
0,69,127,0
0,60,127,0
0,41,127,0
0,36,127,0
0,42,127,0
0,69,127,8
0,69,127,0
0,60,127,0
0,69,127,8
0,69,127,0
0,60,127,0
0,41,127,0
0,36,127,0
0,42,127,0
0,69,127,2
0,69,127,0
0,60,127,0
0,76,127,8
0,76,127,0
0,69,127,0
0,65,127,0
0,53,127,0
0,38,127,0
0,42,127,0
0,76,127,8
0,76,127,0
0,69,127,0
0,65,127,0
0,42,127,8
0,41,127,46
0,36,127,0
0,42,127,0
0,69,127,22
0,69,127,0
0,60,127,0
0,41,127,16
0,36,127,0
0,42,127,0
0,69,127,2
0,69,127,0
0,60,127,0
0,76,127,8
0,76,127,0
0,69,127,0
0,65,127,0
0,48,127,0
0,38,127,0
0,42,127,0
0,76,127,8
0,76,127,0
0,69,127,0
0,65,127,0
0,69,127,8
0,69,127,0
0,60,127,0
0,41,127,0
0,36,127,0
0,42,127,0
0,69,127,0
0,69,127,0
0,60,127,0
0,40,127,0
0,69,127,0
0,69,127,0
0,66,127,0
0,62,127,0
0,38,127,0
