track,note,velocity,time
1,64,110,5856
1,64,99,27
1,64,107,30
1,57,120,45
1,64,106,507
1,62,120,17875
1,60,115,192
1,59,103,93
1,57,117,0
1,57,120,52
1,62,127,96
1,60,123,81
1,57,123,257
1,62,123,5
1,62,123,61
1,60,111,96
1,59,110,64
1,57,110,90
1,57,126,61
1,62,127,3
1,64,117,96
1,62,107,37
1,62,126,64
1,62,123,68
1,62,126,66
1,62,104,60
1,62,113,69
1,62,118,69
1,62,120,69
1,64,108,96
1,60,118,18
1,60,82,36
1,60,115,63
1,60,117,67
1,60,120,67
1,60,103,64
1,62,118,13
1,60,123,96
1,62,120,15360
1,60,115,192
1,59,103,93
1,57,117,0
1,57,120,52
1,62,127,96
1,60,123,81
1,57,123,257
1,62,123,5
1,62,123,61
1,60,111,96
1,59,110,64
1,57,110,90
1,57,126,61
1,62,127,3
1,64,117,96
1,62,107,37
1,62,126,64
1,62,123,68
1,62,126,66
1,62,104,60
1,62,113,69
1,62,118,69
1,62,120,69
1,64,108,96
1,60,118,18
1,60,82,36
1,60,115,63
1,60,117,67
1,60,120,67
1,60,103,64
1,62,118,13
1,60,123,96
1,62,120,1536
1,60,115,192
1,59,103,93
1,57,117,0
1,57,120,52
1,62,127,96
1,60,123,81
1,57,123,257
1,62,123,5
1,62,123,61
1,60,111,96
1,59,110,64
1,57,110,90
1,57,126,61
1,62,127,3
1,64,117,96
1,62,107,37
1,62,126,64
1,62,123,68
1,62,126,66
1,62,104,60
1,62,113,69
1,62,118,69
1,62,120,69
1,64,108,96
1,60,118,18
1,60,82,36
1,60,115,63
1,60,117,67
1,60,120,67
1,60,103,64
1,62,118,13
1,60,123,96
1,57,125,3264
1,57,127,296
1,57,127,296
1,57,127,282
1,57,126,269
1,57,123,294
1,57,125,289
1,57,123,671
1,57,123,280
1,57,123,275
1,57,120,280
1,57,123,278
1,57,123,292
1,62,120,863
1,60,115,192
1,59,103,93
1,57,117,0
1,57,120,52
1,62,127,96
1,60,123,81
1,57,123,257
1,62,123,5
1,62,123,61
1,60,111,96
1,59,110,64
1,57,110,90
1,57,126,61
1,62,127,3
1,64,117,96
1,62,107,37
1,62,126,64
1,62,123,68
1,62,126,66
1,62,104,60
1,62,113,69
1,62,118,69
1,62,120,69
1,64,108,96
1,60,118,18
1,60,82,36
1,60,115,63
1,60,117,67
1,60,120,67
1,60,103,64
1,62,118,13
1,60,123,96
1,62,120,1536
1,60,115,192
1,59,103,93
1,57,117,0
1,57,120,52
1,62,127,96
1,60,123,81
1,57,123,257
1,62,123,5
1,62,123,61
1,60,111,96
1,59,110,64
1,57,110,90
1,57,126,61
1,62,127,3
1,64,117,96
1,62,107,37
1,62,126,64
1,62,123,68
1,62,126,66
1,62,104,60
1,62,113,69
1,62,118,69
1,62,120,69
1,64,108,96
1,60,118,18
1,60,82,36
1,60,115,63
1,60,117,67
1,60,120,67
1,60,103,64
1,62,118,13
1,60,123,96
1,62,120,768
1,60,115,192
1,59,103,93
1,57,117,0
1,57,120,52
1,62,127,96
1,60,123,81
1,57,123,257
1,62,123,5
1,62,123,61
1,60,111,96
1,59,110,64
1,57,110,90
1,57,126,61
1,62,127,3
1,64,117,96
1,62,107,37
1,62,126,64
1,62,123,68
1,62,120,66
1,60,115,192
1,59,103,93
1,57,117,0
1,57,120,52
1,62,127,96
1,60,123,81
1,57,76,257
1,62,66,5
1,62,57,61
1,60,49,96
1,59,40,64
1,57,32,90
1,57,23,61
1,62,13,3
1,64,5,96
2,64,59,1536
2,67,51,96
2,72,53,84
2,67,49,84
2,69,59,84
2,64,59,84
2,67,62,84
2,69,59,84
2,64,65,84
2,67,59,84
2,72,56,84
2,67,60,84
2,69,58,84
2,64,63,84
2,67,58,84
2,69,60,84
2,64,63,84
2,67,63,84
2,72,53,84
2,67,59,84
2,69,59,84
2,64,59,84
2,67,56,84
2,69,58,84
2,64,53,84
2,67,56,84
2,72,51,84
2,67,55,84
2,69,58,84
2,64,55,84
2,67,53,84
2,69,55,84
2,64,51,84
2,67,55,84
2,72,49,84
2,67,53,84
2,69,55,84
2,64,45,84
2,67,55,84
2,69,55,84
2,64,58,84
2,67,55,84
2,72,47,84
2,67,55,84
2,69,53,84
2,64,53,84
2,67,56,84
2,69,60,84
2,57,66,0
2,64,67,0
2,60,75,0
2,59,83,0
2,62,78,0
2,55,90,0
2,64,66,9
2,57,61,0
2,60,79,0
2,55,87,0
2,59,78,0
2,62,33,0
2,64,80,382
2,57,66,0
2,64,67,0
2,60,75,0
2,59,83,0
2,62,78,0
2,55,90,0
2,64,66,0
2,57,61,0
2,60,79,0
2,55,87,0
2,59,78,0
2,62,33,0
2,64,80,0
2,57,66,0
2,64,67,0
2,60,75,0
2,59,83,0
2,62,78,0
2,55,90,0
2,64,66,9
2,57,61,0
2,60,79,0
2,55,87,0
2,59,78,0
2,62,33,0
2,64,80,0
2,57,66,0
2,64,67,0
2,60,75,0
2,59,83,0
2,62,78,0
2,55,90,0
2,64,66,0
2,57,61,0
2,60,79,0
2,55,87,0
2,59,78,0
2,62,33,0
2,64,80,0
2,57,66,0
2,64,67,0
2,60,75,0
2,59,83,0
2,62,78,0
2,55,90,0
2,64,66,9
2,57,61,0
2,60,79,0
2,55,87,0
2,59,78,0
2,62,33,0
2,57,66,0
2,64,67,0
2,60,75,0
2,59,83,0
2,62,78,0
2,55,90,0
2,64,66,0
2,57,61,0
2,60,79,0
2,55,87,0
2,59,78,0
2,62,33,0
2,64,80,0
2,57,87,864
2,48,97,0
2,52,93,0
2,50,97,28
2,55,97,0
2,59,97,0
2,52,97,4
2,57,97,0
2,60,97,0
2,59,46,2
2,55,94,0
2,50,97,0
2,64,93,876
2,60,93,0
2,69,87,0
2,71,97,20
2,67,95,0
2,62,95,0
2,64,97,63
2,72,97,0
2,69,97,0
2,67,91,14
2,62,97,0
2,71,87,0
2,64,91,42
2,69,80,0
2,60,97,0
2,66,97,45
2,74,97,0
2,69,97,0
2,64,69,829
2,67,69,96
2,72,59,84
2,67,65,84
2,69,65,84
2,64,65,84
2,67,62,84
2,69,64,84
2,64,59,84
2,67,62,84
2,72,57,84
2,67,61,84
2,69,64,84
2,64,61,84
2,67,59,84
2,69,61,84
2,64,57,84
2,67,61,84
2,72,55,84
2,67,59,84
2,69,61,84
2,64,51,84
2,67,61,84
2,69,61,84
2,64,64,84
2,67,61,84
2,72,53,84
2,67,61,84
2,69,59,84
2,64,59,84
2,67,62,84
2,69,66,84
2,57,66,0
2,64,67,0
2,60,75,0
2,59,83,0
2,62,78,0
2,55,90,0
2,64,66,9
2,57,61,0
2,60,79,0
2,55,87,0
2,59,78,0
2,62,33,0
2,64,80,382
2,57,66,0
2,64,67,0
2,60,75,0
2,59,83,0
2,62,78,0
2,55,90,0
2,64,66,0
2,57,61,0
2,60,79,0
2,55,87,0
2,59,78,0
2,62,33,0
2,64,80,0
2,57,66,0
2,64,67,0
2,60,75,0
2,59,83,0
2,62,78,0
2,55,90,0
2,64,66,9
2,57,61,0
2,60,79,0
2,55,87,0
2,59,78,0
2,62,33,0
2,64,80,382
2,57,66,0
2,64,67,0
2,60,75,0
2,59,83,0
2,62,78,0
2,55,90,0
2,64,66,0
2,57,61,0
2,60,79,0
2,55,87,0
2,59,78,0
2,62,33,0
2,64,80,0
2,57,87,864
2,48,97,0
2,52,93,0
2,50,97,28
2,55,97,0
2,59,97,0
2,52,97,4
2,57,97,0
2,60,97,0
2,59,46,2
2,55,94,0
2,50,97,0
2,64,93,876
2,60,93,0
2,69,87,0
2,71,97,20
2,67,95,0
2,62,95,0
2,64,97,63
2,72,97,0
2,69,97,0
2,67,91,14
2,62,97,0
2,71,87,0
2,64,91,42
2,69,80,0
2,60,97,0
2,66,97,45
2,74,97,0
2,69,97,0
2,57,87,3229
2,48,97,0
2,52,93,0
2,50,97,28
2,55,97,0
2,59,97,0
2,52,97,4
2,57,97,0
2,60,97,0
2,59,46,2
2,55,94,0
2,50,97,0
2,64,93,876
2,60,93,0
2,69,87,0
2,71,97,20
2,67,95,0
2,62,95,0
2,64,97,63
2,72,97,0
2,69,97,0
2,67,91,14
2,62,97,0
2,71,87,0
2,64,91,42
2,69,80,0
2,60,97,0
2,66,97,45
2,74,97,0
2,69,97,0
2,33,30,829
2,33,31,86
2,33,34,15
2,33,36,64
2,33,38,61
2,33,40,57
2,33,42,64
2,33,44,66
2,33,47,71
2,33,49,74
2,33,51,67
2,33,54,70
2,33,56,72
2,33,58,71
2,33,61,70
2,33,63,70
2,33,65,68
2,33,67,62
2,33,69,66
2,33,71,65
2,33,74,66
2,33,76,71
2,33,78,66
2,33,80,70
2,33,82,63
2,33,85,68
2,33,87,71
2,33,89,68
2,33,91,67
2,33,94,70
2,33,96,74
2,33,97,75
2,57,66,40
2,64,67,0
2,60,75,0
2,59,83,0
2,62,78,0
2,55,90,0
2,64,66,9
2,57,61,0
2,60,79,0
2,55,87,0
2,59,78,0
2,62,33,0
2,64,80,382
2,57,66,0
2,64,67,0
2,60,75,0
2,59,83,0
2,62,78,0
2,55,90,0
2,64,66,0
2,57,61,0
2,60,79,0
2,55,87,0
2,59,78,0
2,62,33,0
2,64,80,0
2,57,87,864
2,48,97,0
2,52,93,0
2,50,97,28
2,55,97,0
2,59,97,0
2,52,97,4
2,57,97,0
2,60,97,0
2,59,46,2
2,55,94,0
2,50,97,0
2,64,93,876
2,60,93,0
2,69,87,0
2,71,97,20
2,67,95,0
2,62,95,0
2,64,97,63
2,72,97,0
2,69,97,0
2,67,91,14
2,62,97,0
2,71,87,0
2,64,91,42
2,69,80,0
2,60,97,0
2,66,97,45
2,74,97,0
2,69,97,0
2,57,87,3229
2,48,97,0
2,52,93,0
2,50,97,28
2,55,97,0
2,59,97,0
2,52,97,4
2,57,97,0
2,60,97,0
2,59,46,2
2,55,94,0
2,50,97,0
2,64,93,876
2,60,93,0
2,69,87,0
2,71,97,20
2,67,95,0
2,62,95,0
2,64,97,63
2,72,97,0
2,69,97,0
2,67,91,14
2,62,97,0
2,71,87,0
2,64,91,42
2,69,80,0
2,60,97,0
2,66,97,45
2,74,97,0
2,69,97,0
2,57,87,2461
2,48,97,0
2,52,93,0
2,50,97,28
2,55,97,0
2,59,97,0
2,52,97,4
2,57,97,0
2,60,97,0
2,59,46,2
2,55,94,0
2,50,97,0
2,64,93,876
2,60,93,0
2,69,87,0
2,71,97,20
2,67,95,0
2,62,95,0
2,64,97,63
2,72,97,0
2,69,97,0
2,67,91,14
2,62,97,0
2,71,87,0
2,64,91,42
2,69,80,0
2,60,97,0
2,57,87,909
2,48,97,0
2,52,93,0
2,50,97,28
2,55,97,0
2,59,97,0
2,52,97,4
2,57,97,0
2,60,97,0
2,59,57,2
2,55,57,0
2,50,57,0
2,64,30,876
2,60,30,0
2,69,30,0
2,71,30,20
2,67,30,0
2,62,30,0
2,64,30,63
2,72,30,0
2,69,30,0
2,67,30,14
2,62,30,0
2,71,30,0
2,64,30,42
2,69,30,0
2,60,30,0
3,72,93,768
3,67,85,67
3,69,90,64
3,64,79,67
3,67,90,67
3,62,90,66
3,64,90,63
3,67,90,64
3,72,88,69
3,67,92,63
3,69,93,66
3,64,83,66
3,67,90,61
3,62,92,63
3,64,93,63
3,67,82,65
3,72,75,71
3,67,85,57
3,69,95,63
3,64,89,60
3,67,90,64
3,62,90,66
3,64,90,64
3,67,86,62
3,72,88,69
3,67,93,64
3,69,95,64
3,64,92,64
3,67,90,63
3,62,82,64
3,64,88,58
3,67,82,64
3,72,89,71
3,67,93,63
3,69,92,63
3,64,83,65
3,67,97,58
3,62,93,65
3,64,95,65
3,67,88,64
3,72,100,67
3,67,95,64
3,69,97,64
3,64,90,66
3,67,97,61
3,62,95,68
3,64,93,65
3,67,90,62
3,72,92,69
3,67,93,62
3,69,93,66
3,64,92,63
3,67,92,60
3,62,95,65
3,64,95,68
3,67,95,64
3,57,100,70
3,57,89,21
3,57,98,51
3,52,88,45
3,57,100,21
3,55,97,27
3,50,95,518
3,52,90,50
3,59,98,55
3,57,98,35
3,55,100,45
3,57,98,41
3,57,88,20
3,57,92,42
3,52,90,44
3,57,101,18
3,55,100,37
3,50,90,514
3,51,102,50
3,52,88,93
3,57,100,154
3,57,89,21
3,57,98,51
3,52,88,45
3,57,100,21
3,55,97,27
3,50,95,521
3,52,90,48
3,59,98,54
3,57,98,35
3,55,100,45
3,57,98,41
3,57,88,20
3,57,92,42
3,52,90,44
3,57,101,18
3,55,100,37
3,50,90,514
3,51,102,50
3,52,88,93
3,57,100,154
3,57,89,21
3,57,98,51
3,52,88,45
3,57,100,21
3,55,97,27
3,50,95,518
3,52,90,50
3,59,98,55
3,57,98,35
3,55,100,45
3,57,98,41
3,57,88,20
3,57,92,42
3,52,90,44
3,57,101,18
3,55,100,37
3,50,90,514
3,51,102,50
3,52,88,93
3,57,100,154
3,57,89,21
3,57,98,51
3,52,88,45
3,57,100,21
3,55,97,27
3,50,95,521
3,52,90,48
3,59,98,54
3,57,98,35
3,55,100,45
3,57,98,41
3,57,88,20
3,57,92,42
3,52,90,44
3,57,101,18
3,55,100,37
3,50,90,514
3,51,102,50
3,52,88,93
3,57,100,154
3,57,89,21
3,57,98,51
3,52,88,45
3,57,100,21
3,55,97,27
3,50,95,518
3,52,90,50
3,59,98,55
3,57,98,35
3,55,100,45
3,57,98,41
3,57,88,20
3,57,92,42
3,52,90,44
3,57,101,18
3,55,100,37
3,50,90,514
3,51,102,50
3,52,88,93
3,57,100,154
3,57,89,21
3,57,98,51
3,52,88,45
3,57,100,21
3,55,97,27
3,50,95,521
3,52,90,48
3,59,98,54
3,57,98,35
3,55,100,45
3,57,98,41
3,57,88,20
3,57,92,42
3,52,90,44
3,57,101,18
3,55,100,37
3,50,90,514
3,51,102,50
3,52,88,93
3,72,88,4762
3,67,93,64
3,69,95,64
3,64,92,64
3,67,90,63
3,62,82,64
3,64,88,58
3,67,82,64
3,72,89,71
3,67,93,63
3,69,92,63
3,64,83,65
3,67,97,58
3,62,93,65
3,64,95,65
3,67,88,64
3,72,100,67
3,67,95,64
3,69,97,64
3,64,90,66
3,67,97,61
3,62,95,68
3,64,93,65
3,67,90,62
3,72,92,69
3,67,93,62
3,69,93,66
3,64,92,63
3,67,92,60
3,62,95,65
3,64,95,68
3,67,95,64
3,57,100,70
3,57,89,21
3,57,98,51
3,52,88,45
3,57,100,21
3,55,97,27
3,50,95,518
3,52,90,50
3,59,98,55
3,57,98,35
3,55,100,45
3,57,98,41
3,57,88,20
3,57,92,42
3,52,90,44
3,57,101,18
3,55,100,37
3,50,90,514
3,51,102,50
3,52,88,93
3,57,100,154
3,57,89,21
3,57,98,51
3,52,88,45
3,57,100,21
3,55,97,27
3,50,95,521
3,52,90,48
3,59,98,54
3,57,98,35
3,55,100,45
3,57,98,41
3,57,88,20
3,57,92,42
3,52,90,44
3,57,101,18
3,55,100,37
3,50,90,514
3,51,102,50
3,52,88,93
3,57,100,154
3,57,89,21
3,57,98,51
3,52,88,45
3,57,100,21
3,55,97,27
3,50,95,518
3,52,90,50
3,59,98,55
3,57,98,35
3,55,100,45
3,57,98,41
3,57,88,20
3,57,92,42
3,52,90,44
3,57,101,18
3,55,100,37
3,50,90,514
3,51,102,50
3,52,88,93
3,57,100,154
3,57,89,21
3,57,98,51
3,52,88,45
3,57,100,21
3,55,97,27
3,50,95,521
3,52,90,48
3,59,98,54
3,57,98,35
3,55,100,45
3,57,98,41
3,57,88,20
3,57,92,42
3,52,90,44
3,57,101,18
3,55,100,37
3,50,90,514
3,51,102,50
3,52,88,93
3,69,88,250
3,74,88,159
3,69,90,151
3,65,85,123
3,67,75,58
3,69,81,56
3,65,95,57
3,67,85,60
3,69,89,56
3,74,73,61
3,57,101,4756
3,69,101,0
3,67,81,57
3,55,81,0
3,69,95,32
3,57,95,0
3,57,100,150
3,69,100,0
3,67,85,80
3,55,85,0
3,69,100,46
3,57,100,0
3,57,101,1
