track,note,velocity,time
1,69,79,2880
1,69,79,16
1,69,79,16
1,69,79,16
1,69,79,16
1,67,79,16
1,69,79,16
1,69,79,16
1,69,79,16
1,67,79,16
1,69,79,16
1,67,79,16
1,67,79,32
1,69,79,16
1,69,79,16
1,69,79,16
1,69,79,16
1,69,79,16
1,67,79,32
1,69,79,32
1,69,79,16
1,67,79,16
1,69,79,16
1,67,79,16
1,67,79,32
1,69,79,16
1,72,79,16
1,72,79,16
1,72,79,16
1,72,79,16
1,72,79,16
1,69,79,16
1,69,79,16
1,67,79,32
1,67,79,16
1,67,79,16
1,67,79,16
1,67,79,16
1,67,79,16
1,67,79,16
1,67,79,80
1,69,79,16
1,69,79,16
1,69,79,80
1,67,79,32
1,67,79,16
1,69,79,16
1,69,79,16
1,69,79,16
1,67,79,16
1,69,79,16
1,69,79,16
1,69,79,16
1,69,79,16
1,69,79,16
1,67,79,32
1,69,79,16
1,69,79,16
1,69,79,16
1,67,79,32
1,67,79,32
1,69,79,16
1,69,79,16
1,69,79,16
1,69,79,16
1,69,79,16
1,67,79,32
1,69,79,16
1,69,79,16
1,69,79,16
1,69,79,16
1,67,79,16
1,67,79,32
1,69,79,16
1,69,79,32
1,69,79,16
1,72,79,16
1,69,79,32
1,67,79,16
1,69,79,16
1,69,79,16
1,67,79,16
1,69,79,16
1,71,79,16
1,67,79,32
1,69,79,16
1,67,79,80
1,69,79,16
1,67,79,32
1,69,79,16
1,67,79,32
1,67,79,16
1,72,79,16
1,72,79,16
1,69,79,16
1,67,79,16
1,69,79,16
1,69,79,16
1,69,95,16
1,69,95,16
1,69,95,16
1,69,95,16
1,69,95,16
1,69,95,16
1,76,95,16
1,76,95,16
1,69,95,160
1,69,95,32
1,76,95,16
1,76,95,16
1,69,95,16
1,69,95,16
1,69,95,16
1,69,95,16
1,69,95,16
1,69,95,16
1,76,95,16
1,76,95,16
1,69,95,160
1,69,95,32
1,76,95,16
1,76,95,16
1,69,95,16
1,69,95,16
1,69,95,16
1,69,95,16
1,69,95,16
1,69,95,16
1,76,95,16
1,76,95,16
1,67,95,160
1,67,95,32
1,67,95,16
1,67,95,16
1,67,95,16
1,67,95,16
1,69,95,16
1,69,95,592
1,69,95,16
1,69,95,16
1,69,95,16
1,69,95,16
1,69,95,16
1,76,95,16
1,76,95,16
1,69,95,160
1,69,95,32
1,76,95,16
1,76,95,16
1,69,95,16
1,69,95,16
1,69,95,16
1,69,95,16
1,69,95,16
1,69,95,16
1,76,95,16
1,76,95,16
1,69,95,160
1,69,95,32
1,76,95,16
1,76,95,16
1,69,95,16
1,69,95,16
1,69,95,16
1,69,95,16
1,69,95,16
1,69,95,16
1,76,95,16
1,76,95,16
1,67,95,160
1,67,95,32
1,67,95,16
1,67,95,16
1,67,95,16
1,67,79,16
1,69,79,16
1,69,79,544
1,69,79,0
1,69,79,0
1,69,79,16
1,67,79,16
1,69,79,16
1,69,79,16
1,69,79,16
1,67,79,16
1,69,79,16
1,67,79,16
1,67,79,32
1,69,79,16
1,69,79,16
1,69,79,16
1,69,79,16
1,69,79,16
1,67,79,32
1,69,79,32
1,69,79,16
1,67,79,16
1,69,79,16
1,67,79,16
1,67,79,32
1,69,79,16
1,72,79,16
1,72,79,16
1,72,79,16
1,72,79,16
1,72,79,16
1,69,79,16
1,69,79,16
1,67,79,32
1,67,79,16
1,67,79,16
1,67,79,16
1,67,79,16
1,67,79,16
1,67,79,16
1,67,79,80
1,69,79,16
1,69,79,16
1,69,79,80
1,67,79,32
1,67,79,16
1,69,79,16
1,69,79,16
1,69,79,16
1,67,79,16
1,69,79,16
1,69,79,16
1,69,79,16
1,69,79,16
1,69,79,16
1,67,79,32
1,69,79,16
1,69,79,16
1,69,79,16
1,67,79,32
1,67,79,32
1,69,79,16
1,69,79,16
1,69,79,16
1,69,79,16
1,69,79,16
1,67,79,32
1,69,79,16
1,69,79,16
1,69,79,16
1,69,79,16
1,67,79,16
1,67,79,32
1,69,79,16
1,69,79,32
1,69,79,16
1,72,79,16
1,69,79,32
1,67,79,16
1,69,79,16
1,69,79,16
1,67,79,16
1,69,79,16
1,71,79,16
1,67,79,32
1,69,79,16
1,67,79,80
1,69,79,16
1,67,79,32
1,69,79,16
1,67,79,32
1,67,79,16
1,72,79,16
1,72,79,16
1,69,79,16
1,67,79,16
1,69,79,16
1,69,79,16
1,69,95,16
1,69,95,16
1,69,95,16
1,69,95,16
1,69,95,16
1,69,95,16
1,76,95,16
1,76,95,16
1,69,95,160
1,69,95,32
1,76,95,16
1,76,95,16
1,69,95,16
1,69,95,16
1,69,95,16
1,69,95,16
1,69,95,16
1,69,95,16
1,76,95,16
1,76,95,16
1,69,95,160
1,69,95,32
1,76,95,16
1,76,95,16
1,69,95,16
1,69,95,16
1,69,95,16
1,69,95,16
1,69,95,16
1,69,95,16
1,76,95,16
1,76,95,16
1,67,95,160
1,67,95,32
1,67,95,16
1,67,95,16
1,67,95,16
1,67,95,16
1,69,95,16
1,67,95,208
1,69,95,16
1,72,95,16
1,69,95,16
1,67,95,16
1,69,95,16
1,69,95,16
1,69,95,16
1,69,95,112
1,69,95,16
1,69,95,16
1,69,95,16
1,76,95,16
1,76,95,16
1,69,95,160
1,69,95,32
1,76,95,16
1,76,95,16
1,69,95,16
1,69,95,16
1,69,95,16
1,69,95,16
1,69,95,16
1,69,95,16
1,76,95,16
1,76,95,16
1,69,95,160
1,69,95,32
1,76,95,16
1,76,95,16
1,69,95,16
1,69,95,16
1,69,95,16
1,69,95,16
1,69,95,16
1,69,95,16
1,76,95,16
1,76,95,16
1,67,95,160
1,67,95,32
1,67,95,16
1,67,95,16
1,67,95,16
1,67,95,16
1,69,95,16
1,71,95,592
1,71,95,16
1,71,95,16
1,71,95,16
1,71,95,16
1,71,95,16
1,78,95,16
1,78,95,16
1,71,95,160
1,71,95,32
1,78,95,16
1,78,95,16
1,71,95,16
1,71,95,16
1,71,95,16
1,71,95,16
1,71,95,16
1,71,95,16
1,78,95,16
1,78,95,16
1,71,95,160
1,71,95,32
1,78,95,16
1,78,95,16
1,71,95,16
1,71,95,16
1,71,95,16
1,71,95,16
1,71,95,16
1,71,95,16
1,78,95,16
1,78,95,16
1,69,95,160
1,69,95,32
1,69,95,16
1,69,95,16
1,69,95,16
1,69,95,16
1,71,95,0
1,71,95,576
1,71,95,0
1,71,95,0
1,71,95,16
1,71,95,16
1,71,95,16
1,78,95,16
1,78,95,16
1,71,95,160
1,71,95,32
1,78,95,16
1,78,95,16
1,71,95,16
1,71,95,16
1,71,95,16
1,71,95,16
1,71,95,16
1,71,95,16
1,78,95,16
1,78,95,16
1,71,95,160
1,71,95,32
1,78,95,16
1,78,95,16
1,71,95,16
1,71,95,16
1,71,95,16
1,71,95,16
1,71,95,16
1,71,95,16
1,78,95,16
1,78,95,16
1,69,95,160
1,69,95,32
1,69,95,16
1,69,95,16
1,69,95,16
1,69,95,16
1,71,95,0
1,71,95,576
1,71,95,0
1,71,95,0
1,71,95,16
1,71,95,16
1,71,95,16
1,78,95,16
1,78,95,16
1,71,95,160
1,71,95,32
1,78,95,16
1,78,95,16
1,71,95,16
1,71,95,16
1,71,95,16
1,71,95,16
1,71,95,16
1,71,95,16
1,78,95,16
1,78,95,16
1,71,95,160
1,71,95,32
1,78,95,16
1,78,95,16
1,71,95,16
1,71,95,16
1,71,95,16
1,71,95,16
1,71,95,16
1,71,95,16
1,78,95,16
1,78,95,16
1,69,95,160
1,69,95,32
1,69,95,16
1,69,95,16
1,69,95,16
1,69,95,16
1,71,95,0
1,71,95,576
1,71,95,0
1,71,95,0
1,71,95,16
1,71,95,16
1,71,95,16
1,78,95,16
1,78,95,16
1,71,95,160
1,71,95,32
1,78,95,16
1,78,95,16
1,71,95,16
1,71,95,16
1,71,95,16
1,71,95,16
1,71,95,16
1,71,95,16
1,78,95,16
1,78,95,16
1,71,95,160
1,71,95,32
1,78,95,16
1,78,95,16
1,71,95,16
1,71,95,16
1,71,95,16
1,71,95,16
1,71,95,16
1,71,95,16
1,78,95,16
1,78,95,16
1,69,95,160
1,69,95,32
1,69,95,16
1,69,95,16
1,69,95,16
1,69,95,16
1,71,95,0
2,69,95,0
2,69,95,16
2,69,95,16
2,76,95,16
2,69,95,16
2,69,95,16
2,74,95,16
2,69,95,16
2,69,95,16
2,72,95,16
2,69,95,16
2,71,95,16
2,69,95,32
2,69,95,16
2,69,95,16
2,76,95,16
2,69,95,16
2,69,95,16
2,74,95,16
2,69,95,16
2,69,95,16
2,72,95,16
2,69,95,16
2,71,95,16
2,69,95,32
2,69,95,16
2,69,95,16
2,76,95,16
2,69,95,16
2,69,95,16
2,74,95,16
2,69,95,16
2,69,95,16
2,72,95,16
2,69,95,16
2,71,95,16
2,69,95,36
2,69,95,0
2,69,95,0
2,69,95,16
2,76,95,16
2,69,95,16
2,69,95,16
2,74,95,16
2,69,95,16
2,69,95,16
2,72,95,16
2,69,95,16
2,71,95,16
2,69,95,32
2,69,95,16
2,69,95,16
2,76,95,16
2,69,95,16
2,69,95,16
2,74,95,16
2,69,95,16
2,69,95,16
2,72,95,16
2,69,95,16
2,71,95,16
2,69,95,32
2,69,95,16
2,69,95,16
2,76,95,16
2,69,95,16
2,69,95,16
2,74,95,16
2,69,95,16
2,69,95,16
2,72,95,16
2,69,95,16
2,71,95,16
2,69,95,36
2,69,79,492
2,69,79,16
2,69,79,16
2,69,79,16
2,69,79,16
2,67,79,16
2,69,79,16
2,69,79,16
2,69,79,16
2,67,79,16
2,69,79,16
2,67,79,16
2,67,79,32
2,69,79,16
2,69,79,16
2,69,79,16
2,69,79,16
2,69,79,16
2,67,79,32
2,69,79,32
2,69,79,16
2,67,79,16
2,69,79,16
2,67,79,16
2,67,79,32
2,69,79,16
2,72,79,16
2,72,79,16
2,72,79,16
2,72,79,16
2,72,79,16
2,69,79,16
2,69,79,16
2,69,79,16
2,67,79,32
2,67,79,16
2,67,79,16
2,67,79,16
2,67,79,16
2,67,79,16
2,67,79,16
2,67,79,80
2,69,95,16
2,69,95,16
2,69,95,80
2,67,79,32
2,67,79,16
2,69,79,16
2,69,79,16
2,69,79,16
2,67,79,16
2,69,79,16
2,69,79,16
2,69,79,16
2,69,79,16
2,69,79,16
2,67,79,32
2,69,79,16
2,69,79,16
2,69,79,16
2,67,79,32
2,67,79,32
2,69,79,16
2,69,79,16
2,69,79,16
2,69,79,16
2,69,79,16
2,67,79,32
2,69,79,16
2,69,79,16
2,69,79,16
2,69,79,16
2,67,79,16
2,67,79,32
2,69,79,16
2,69,79,32
2,69,79,16
2,72,79,16
2,69,79,32
2,67,79,16
2,69,79,16
2,69,79,16
2,67,79,16
2,69,79,16
2,71,79,16
2,67,79,32
2,69,79,16
2,67,79,80
2,69,95,16
2,67,79,32
2,69,95,16
2,67,79,32
2,67,79,16
2,72,79,16
2,72,79,16
2,69,79,16
2,67,79,16
2,69,79,16
2,69,79,16
2,69,95,16
2,69,95,16
2,69,95,16
2,69,95,16
2,69,95,16
2,69,95,16
2,76,95,16
2,76,95,16
2,69,95,160
2,69,95,32
2,76,95,16
2,76,95,16
2,69,95,16
2,69,95,16
2,69,95,16
2,69,95,16
2,69,95,16
2,69,95,16
2,76,95,16
2,76,95,16
2,69,95,160
2,69,95,32
2,76,95,16
2,76,95,16
2,69,95,16
2,69,95,16
2,69,95,16
2,69,95,16
2,69,95,16
2,69,95,16
2,76,95,16
2,76,95,16
2,67,95,160
2,67,95,32
2,67,95,16
2,67,95,16
2,67,95,16
2,67,95,16
2,69,95,16
2,69,95,592
2,69,95,16
2,69,95,16
2,69,95,16
2,69,95,16
2,69,95,16
2,76,95,16
2,76,95,16
2,69,95,160
2,69,95,32
2,76,95,16
2,76,95,16
2,69,95,16
2,69,95,16
2,69,95,16
2,69,95,16
2,69,95,16
2,69,95,16
2,76,95,16
2,76,95,16
2,69,95,160
2,69,95,32
2,76,95,16
2,76,95,16
2,69,95,16
2,69,95,16
2,69,95,16
2,69,95,16
2,69,95,16
2,69,95,16
2,76,95,16
2,76,95,16
2,67,95,160
2,67,95,32
2,67,95,16
2,67,95,16
2,67,95,16
2,67,95,16
2,69,95,16
2,69,79,544
2,69,79,16
2,69,79,32
2,69,79,16
2,67,79,16
2,69,79,16
2,69,79,16
2,69,79,16
2,67,79,16
2,69,79,16
2,67,79,16
2,67,79,32
2,69,79,16
2,69,79,16
2,69,79,16
2,69,79,16
2,69,79,16
2,67,79,32
2,69,79,32
2,69,79,16
2,67,79,16
2,69,79,16
2,67,79,16
2,67,79,32
2,69,79,16
2,72,79,16
2,72,79,16
2,72,79,16
2,72,79,16
2,72,79,16
2,69,79,16
2,69,79,16
2,69,79,16
2,67,79,32
2,67,79,16
2,67,79,16
2,67,79,16
2,67,79,16
2,67,79,16
2,67,79,16
2,67,79,80
2,69,95,16
2,69,95,16
2,69,95,80
2,67,79,32
2,67,79,16
2,69,79,16
2,69,79,16
2,69,79,16
2,67,79,16
2,69,79,16
2,69,79,16
2,69,79,16
2,69,79,16
2,69,79,16
2,67,79,32
2,69,79,16
2,69,79,16
2,69,79,16
2,67,79,32
2,67,79,32
2,69,79,16
2,69,79,16
2,69,79,16
2,69,79,16
2,69,79,16
2,67,79,32
2,69,79,16
2,69,79,16
2,69,79,16
2,69,79,16
2,67,79,16
2,67,79,32
2,69,79,16
2,69,79,32
2,69,79,16
2,72,79,16
2,69,79,32
2,67,79,16
2,69,79,16
2,69,79,16
2,67,79,16
2,69,79,16
2,71,79,16
2,67,79,32
2,69,79,16
2,67,79,80
2,69,95,16
2,67,79,32
2,69,95,16
2,67,79,32
2,67,79,16
2,72,79,16
2,72,79,16
2,69,79,16
2,67,79,16
2,69,79,16
2,69,79,16
2,69,95,16
2,69,95,16
2,69,95,16
2,69,95,16
2,69,95,16
2,69,95,16
2,76,95,16
2,76,95,16
2,69,95,160
2,69,95,32
2,76,95,16
2,76,95,16
2,69,95,16
2,69,95,16
2,69,95,16
2,69,95,16
2,69,95,16
2,69,95,16
2,76,95,16
2,76,95,16
2,69,95,160
2,69,95,32
2,76,95,16
2,76,95,16
2,69,95,16
2,69,95,16
2,69,95,16
2,69,95,16
2,69,95,16
2,69,95,16
2,76,95,16
2,76,95,16
2,67,95,160
2,67,95,32
2,67,95,16
2,67,95,16
2,67,95,16
2,67,95,16
2,69,95,16
2,69,95,592
2,69,95,16
2,69,95,16
2,69,95,16
2,69,95,16
2,69,95,16
2,76,95,16
2,76,95,16
2,69,95,160
2,69,95,32
2,76,95,16
2,76,95,16
2,69,95,16
2,69,95,16
2,69,95,16
2,69,95,16
2,69,95,16
2,69,95,16
2,76,95,16
2,76,95,16
2,69,95,160
2,69,95,32
2,76,95,16
2,76,95,16
2,69,95,16
2,69,95,16
2,69,95,16
2,69,95,16
2,69,95,16
2,69,95,16
2,76,95,16
2,76,95,16
2,67,95,160
2,67,95,32
2,67,95,16
2,67,95,16
2,67,95,16
2,67,95,16
2,69,95,16
2,71,95,592
2,71,95,16
2,71,95,16
2,71,95,16
2,71,95,16
2,71,95,16
2,78,95,16
2,78,95,16
2,71,95,160
2,71,95,32
2,78,95,16
2,78,95,16
2,71,95,16
2,71,95,16
2,71,95,16
2,71,95,16
2,71,95,16
2,71,95,16
2,78,95,16
2,78,95,16
2,71,95,160
2,71,95,32
2,78,95,16
2,78,95,16
2,71,95,16
2,71,95,16
2,71,95,16
2,71,95,16
2,71,95,16
2,71,95,16
2,78,95,16
2,78,95,16
2,69,95,160
2,69,95,32
2,69,95,16
2,69,95,16
2,69,95,16
2,69,95,16
2,71,95,16
2,71,95,592
2,71,95,16
2,71,95,16
2,71,95,16
2,71,95,16
2,71,95,16
2,78,95,16
2,78,95,16
2,71,95,160
2,71,95,32
2,78,95,16
2,78,95,16
2,71,95,16
2,71,95,16
2,71,95,16
2,71,95,16
2,71,95,16
2,71,95,16
2,78,95,16
2,78,95,16
2,71,95,160
