track,note,velocity,time
2,69,79,3660
2,69,79,20
2,69,79,20
2,69,79,20
2,69,79,20
2,67,79,20
2,69,79,20
2,69,79,20
2,69,79,20
2,67,79,20
2,69,79,20
2,67,79,20
2,67,79,40
2,69,79,20
2,69,79,20
2,69,79,20
2,69,79,20
2,69,79,20
2,67,79,40
2,69,79,40
2,69,79,20
2,67,79,20
2,69,79,20
2,67,79,20
2,67,79,40
2,69,79,20
2,72,79,20
2,72,79,20
2,72,79,20
2,72,79,20
2,72,79,20
2,69,79,20
2,69,79,20
2,67,79,40
2,67,79,20
2,67,79,20
2,67,79,20
2,67,79,20
2,67,79,20
2,67,79,20
2,67,79,100
2,69,79,20
2,69,79,20
2,69,79,100
2,67,79,40
2,67,79,20
2,69,79,20
2,69,79,20
2,69,79,20
2,67,79,20
2,69,79,20
2,69,79,20
2,69,79,20
2,69,79,20
2,69,79,20
2,67,79,40
2,69,79,20
2,69,79,20
2,69,79,20
2,67,79,40
2,67,79,40
2,69,79,20
2,69,79,20
2,69,79,20
2,69,79,20
2,69,79,20
2,67,79,40
2,69,79,20
2,69,79,20
2,69,79,20
2,69,79,20
2,67,79,20
2,67,79,40
2,69,79,20
2,69,79,40
2,69,79,20
2,72,79,20
2,69,79,40
2,67,79,20
2,69,79,20
2,69,79,20
2,67,79,20
2,69,79,20
2,71,79,20
2,67,79,40
2,69,79,20
2,67,79,100
2,69,79,20
2,67,79,40
2,69,79,20
2,67,79,40
2,67,79,20
2,72,79,20
2,72,79,20
2,69,79,20
2,67,79,20
2,69,79,20
2,69,79,20
2,69,95,20
2,69,95,20
2,69,95,20
2,69,95,20
2,69,95,20
2,69,95,20
2,76,95,20
2,76,95,20
2,69,95,200
2,69,95,40
2,76,95,20
2,76,95,20
2,69,95,20
2,69,95,20
2,69,95,20
2,69,95,20
2,69,95,20
2,69,95,20
2,76,95,20
2,76,95,20
2,69,95,200
2,69,95,40
2,76,95,20
2,76,95,20
2,69,95,20
2,69,95,20
2,69,95,20
2,69,95,20
2,69,95,20
2,69,95,20
2,76,95,20
2,76,95,20
2,67,95,200
2,67,95,40
2,67,95,20
2,67,95,20
2,67,95,20
2,67,95,20
2,69,95,20
2,69,95,740
2,69,95,20
2,69,95,20
2,69,95,20
2,69,95,20
2,69,95,20
2,76,95,20
2,76,95,20
2,69,95,200
2,69,95,40
2,76,95,20
2,76,95,20
2,69,95,20
2,69,95,20
2,69,95,20
2,69,95,20
2,69,95,20
2,69,95,20
2,76,95,20
2,76,95,20
2,69,95,200
2,69,95,40
2,76,95,20
2,76,95,20
2,69,95,20
2,69,95,20
2,69,95,20
2,69,95,20
2,69,95,20
2,69,95,20
2,76,95,20
2,76,95,20
2,67,95,200
2,67,95,40
2,67,95,20
2,67,95,20
2,67,95,20
2,67,79,20
2,69,79,20
2,69,79,680
2,69,79,0
2,69,79,0
2,69,79,20
2,67,79,20
2,69,79,20
2,69,79,20
2,69,79,20
2,67,79,20
2,69,79,20
2,67,79,20
2,67,79,40
2,69,79,20
2,69,79,20
2,69,79,20
2,69,79,20
2,69,79,20
2,67,79,40
2,69,79,40
2,69,79,20
2,67,79,20
2,69,79,20
2,67,79,20
2,67,79,40
2,69,79,20
2,72,79,20
2,72,79,20
2,72,79,20
2,72,79,20
2,72,79,20
2,69,79,20
2,69,79,20
2,67,79,40
2,67,79,20
2,67,79,20
2,67,79,20
2,67,79,20
2,67,79,20
2,67,79,20
2,67,79,100
2,69,79,20
2,69,79,20
2,69,79,100
2,67,79,40
2,67,79,20
2,69,79,20
2,69,79,20
2,69,79,20
2,67,79,20
2,69,79,20
2,69,79,20
2,69,79,20
2,69,79,20
2,69,79,20
2,67,79,40
2,69,79,20
2,69,79,20
2,69,79,20
2,67,79,40
2,67,79,40
2,69,79,20
2,69,79,20
2,69,79,20
2,69,79,20
2,69,79,20
2,67,79,40
2,69,79,20
2,69,79,20
2,69,79,20
2,69,79,20
2,67,79,20
2,67,79,40
2,69,79,20
2,69,79,40
2,69,79,20
2,72,79,20
2,69,79,40
2,67,79,20
2,69,79,20
2,69,79,20
2,67,79,20
2,69,79,20
2,71,79,20
2,67,79,40
2,69,79,20
2,67,79,100
2,69,79,20
2,67,79,40
2,69,79,20
2,67,79,40
2,67,79,20
2,72,79,20
2,72,79,20
2,69,79,20
2,67,79,20
2,69,79,20
2,69,79,20
2,69,95,20
2,69,95,20
2,69,95,20
2,69,95,20
2,69,95,20
2,69,95,20
2,76,95,20
2,76,95,20
2,69,95,200
2,69,95,40
2,76,95,20
2,76,95,20
2,69,95,20
2,69,95,20
2,69,95,20
2,69,95,20
2,69,95,20
2,69,95,20
2,76,95,20
2,76,95,20
2,69,95,200
2,69,95,40
2,76,95,20
2,76,95,20
2,69,95,20
2,69,95,20
2,69,95,20
2,69,95,20
2,69,95,20
2,69,95,20
2,76,95,20
2,76,95,20
2,67,95,200
2,67,95,40
2,67,95,20
2,67,95,20
2,67,95,20
2,67,95,20
2,69,95,20
2,67,95,260
2,69,95,20
2,72,95,20
2,69,95,20
2,67,95,20
2,69,95,20
2,69,95,20
2,69,95,20
2,69,95,140
2,69,95,20
2,69,95,20
2,69,95,20
2,76,95,20
2,76,95,20
2,69,95,200
2,69,95,40
2,76,95,20
2,76,95,20
2,69,95,20
2,69,95,20
2,69,95,20
2,69,95,20
2,69,95,20
2,69,95,20
2,76,95,20
2,76,95,20
2,69,95,200
2,69,95,40
2,76,95,20
2,76,95,20
2,69,95,20
2,69,95,20
2,69,95,20
2,69,95,20
2,69,95,20
2,69,95,20
2,76,95,20
2,76,95,20
2,67,95,200
2,67,95,40
2,67,95,20
2,67,95,20
2,67,95,20
2,67,95,20
2,69,95,20
2,71,95,740
2,71,95,20
2,71,95,20
2,71,95,20
2,71,95,20
2,71,95,20
2,78,95,20
2,78,95,20
2,71,95,200
2,71,95,40
2,78,95,20
2,78,95,20
2,71,95,20
2,71,95,20
2,71,95,20
2,71,95,20
2,71,95,20
2,71,95,20
2,78,95,20
2,78,95,20
2,71,95,200
2,71,95,40
2,78,95,20
2,78,95,20
2,71,95,20
2,71,95,20
2,71,95,20
2,71,95,20
2,71,95,20
2,71,95,20
2,78,95,20
2,78,95,20
2,69,95,200
2,69,95,40
2,69,95,20
2,69,95,20
2,69,95,20
2,69,95,20
2,71,95,0
2,71,95,720
2,71,95,0
2,71,95,0
2,71,95,20
2,71,95,20
2,71,95,20
2,78,95,20
2,78,95,20
2,71,95,200
2,71,95,40
2,78,95,20
2,78,95,20
2,71,95,20
2,71,95,20
2,71,95,20
2,71,95,20
2,71,95,20
2,71,95,20
2,78,95,20
2,78,95,20
2,71,95,200
2,71,95,40
2,78,95,20
2,78,95,20
2,71,95,20
2,71,95,20
2,71,95,20
2,71,95,20
2,71,95,20
2,71,95,20
2,78,95,20
2,78,95,20
2,69,95,200
2,69,95,40
2,69,95,20
2,69,95,20
2,69,95,20
2,69,95,20
2,71,95,0
2,71,95,720
2,71,95,0
2,71,95,0
2,71,95,20
2,71,95,20
2,71,95,20
2,78,95,20
2,78,95,20
2,71,95,200
2,71,95,40
2,78,95,20
2,78,95,20
2,71,95,20
2,71,95,20
2,71,95,20
2,71,95,20
2,71,95,20
2,71,95,20
2,78,95,20
2,78,95,20
2,71,95,200
2,71,95,40
2,78,95,20
2,78,95,20
2,71,95,20
2,71,95,20
2,71,95,20
2,71,95,20
2,71,95,20
2,71,95,20
2,78,95,20
2,78,95,20
2,69,95,200
2,69,95,40
2,69,95,20
2,69,95,20
2,69,95,20
2,69,95,20
2,71,95,0
2,71,95,720
2,71,95,0
2,71,95,0
2,71,95,20
2,71,95,20
2,71,95,20
2,78,95,20
2,78,95,20
2,71,95,200
2,71,95,40
2,78,95,20
2,78,95,20
2,71,95,20
2,71,95,20
2,71,95,20
2,71,95,20
2,71,95,20
2,71,95,20
2,78,95,20
2,78,95,20
2,71,95,200
2,71,95,40
2,78,95,20
2,78,95,20
2,71,95,20
2,71,95,20
2,71,95,20
2,71,95,20
2,71,95,20
2,71,95,20
2,78,95,20
2,78,95,20
2,69,95,200
2,69,95,40
2,69,95,20
2,69,95,20
2,69,95,20
2,69,95,20
2,71,95,0
3,69,95,430
3,69,95,20
3,69,95,20
3,76,95,20
3,69,95,20
3,69,95,20
3,74,95,20
3,69,95,20
3,69,95,20
3,72,95,20
3,69,95,20
3,71,95,20
3,69,95,40
3,69,95,20
3,69,95,20
3,76,95,20
3,69,95,20
3,69,95,20
3,74,95,20
3,69,95,20
3,69,95,20
3,72,95,20
3,69,95,20
3,71,95,20
3,69,95,40
3,69,95,20
3,69,95,20
3,76,95,20
3,69,95,20
3,69,95,20
3,74,95,20
3,69,95,20
3,69,95,20
3,72,95,20
3,69,95,20
3,71,95,20
3,69,95,45
3,69,95,0
3,69,95,20
3,69,95,20
3,76,95,20
3,69,95,20
3,69,95,20
3,74,95,20
3,69,95,20
3,69,95,20
3,72,95,20
3,69,95,20
3,71,95,20
3,69,95,40
3,69,95,20
3,69,95,20
3,76,95,20
3,69,95,20
3,69,95,20
3,74,95,20
3,69,95,20
3,69,95,20
3,72,95,20
3,69,95,20
3,71,95,20
3,69,95,40
3,69,95,20
3,69,95,20
3,76,95,20
3,69,95,20
3,69,95,20
3,74,95,20
3,69,95,20
3,69,95,20
3,72,95,20
3,69,95,20
3,71,95,20
3,69,95,45
3,69,79,615
3,69,79,20
3,69,79,20
3,69,79,20
3,69,79,20
3,67,79,20
3,69,79,20
3,69,79,20
3,69,79,20
3,67,79,20
3,69,79,20
3,67,79,20
3,67,79,40
3,69,79,20
3,69,79,20
3,69,79,20
3,69,79,20
3,69,79,20
3,67,79,40
3,69,79,40
3,69,79,20
3,67,79,20
3,69,79,20
3,67,79,20
3,67,79,40
3,69,79,20
3,72,79,20
3,72,79,20
3,72,79,20
3,72,79,20
3,72,79,20
3,69,79,20
3,69,79,20
3,69,79,20
3,67,79,40
3,67,79,20
3,67,79,20
3,67,79,20
3,67,79,20
3,67,79,20
3,67,79,20
3,67,79,100
3,69,95,20
3,69,95,20
3,69,95,100
3,67,79,40
3,67,79,20
3,69,79,20
3,69,79,20
3,69,79,20
3,67,79,20
3,69,79,20
3,69,79,20
3,69,79,20
3,69,79,20
3,69,79,20
3,67,79,40
3,69,79,20
3,69,79,20
3,69,79,20
3,67,79,40
3,67,79,40
3,69,79,20
3,69,79,20
3,69,79,20
3,69,79,20
3,69,79,20
3,67,79,40
3,69,79,20
3,69,79,20
3,69,79,20
3,69,79,20
3,67,79,20
3,67,79,40
3,69,79,20
3,69,79,40
3,69,79,20
3,72,79,20
3,69,79,40
3,67,79,20
3,69,79,20
3,69,79,20
3,67,79,20
3,69,79,20
3,71,79,20
3,67,79,40
3,69,79,20
3,67,79,100
3,69,95,20
3,67,79,40
3,69,95,20
3,67,79,40
3,67,79,20
3,72,79,20
3,72,79,20
3,69,79,20
3,67,79,20
3,69,79,20
3,69,79,20
3,69,95,20
3,69,95,20
3,69,95,20
3,69,95,20
3,69,95,20
3,69,95,20
3,76,95,20
3,76,95,20
3,69,95,200
3,69,95,40
3,76,95,20
3,76,95,20
3,69,95,20
3,69,95,20
3,69,95,20
3,69,95,20
3,69,95,20
3,69,95,20
3,76,95,20
3,76,95,20
3,69,95,200
3,69,95,40
3,76,95,20
3,76,95,20
3,69,95,20
3,69,95,20
3,69,95,20
3,69,95,20
3,69,95,20
3,69,95,20
3,76,95,20
3,76,95,20
3,67,95,200
3,67,95,40
3,67,95,20
3,67,95,20
3,67,95,20
3,67,95,20
3,69,95,20
3,69,95,740
3,69,95,20
3,69,95,20
3,69,95,20
3,69,95,20
3,69,95,20
3,76,95,20
3,76,95,20
3,69,95,200
3,69,95,40
3,76,95,20
3,76,95,20
3,69,95,20
3,69,95,20
3,69,95,20
3,69,95,20
3,69,95,20
3,69,95,20
3,76,95,20
3,76,95,20
3,69,95,200
3,69,95,40
3,76,95,20
3,76,95,20
3,69,95,20
3,69,95,20
3,69,95,20
3,69,95,20
3,69,95,20
3,69,95,20
3,76,95,20
3,76,95,20
3,67,95,200
3,67,95,40
3,67,95,20
3,67,95,20
3,67,95,20
3,67,95,20
3,69,95,20
3,69,79,680
3,69,79,20
3,69,79,40
3,69,79,20
3,67,79,20
3,69,79,20
3,69,79,20
3,69,79,20
3,67,79,20
3,69,79,20
3,67,79,20
3,67,79,40
3,69,79,20
3,69,79,20
3,69,79,20
3,69,79,20
3,69,79,20
3,67,79,40
3,69,79,40
3,69,79,20
3,67,79,20
3,69,79,20
3,67,79,20
3,67,79,40
3,69,79,20
3,72,79,20
3,72,79,20
3,72,79,20
3,72,79,20
3,72,79,20
3,69,79,20
3,69,79,20
3,69,79,20
3,67,79,40
3,67,79,20
3,67,79,20
3,67,79,20
3,67,79,20
3,67,79,20
3,67,79,20
3,67,79,100
3,69,95,20
3,69,95,20
3,69,95,100
3,67,79,40
3,67,79,20
3,69,79,20
3,69,79,20
3,69,79,20
3,67,79,20
3,69,79,20
3,69,79,20
3,69,79,20
3,69,79,20
3,69,79,20
3,67,79,40
3,69,79,20
3,69,79,20
3,69,79,20
3,67,79,40
3,67,79,40
3,69,79,20
3,69,79,20
3,69,79,20
3,69,79,20
3,69,79,20
3,67,79,40
3,69,79,20
3,69,79,20
3,69,79,20
3,69,79,20
3,67,79,20
3,67,79,40
3,69,79,20
3,69,79,40
3,69,79,20
3,72,79,20
3,69,79,40
3,67,79,20
3,69,79,20
3,69,79,20
3,67,79,20
3,69,79,20
3,71,79,20
3,67,79,40
3,69,79,20
3,67,79,100
3,69,95,20
3,67,79,40
3,69,95,20
3,67,79,40
3,67,79,20
3,72,79,20
3,72,79,20
3,69,79,20
3,67,79,20
3,69,79,20
3,69,79,20
3,69,95,20
3,69,95,20
3,69,95,20
3,69,95,20
3,69,95,20
3,69,95,20
3,76,95,20
3,76,95,20
3,69,95,200
3,69,95,40
3,76,95,20
3,76,95,20
3,69,95,20
3,69,95,20
3,69,95,20
3,69,95,20
3,69,95,20
3,69,95,20
3,76,95,20
3,76,95,20
3,69,95,200
3,69,95,40
3,76,95,20
3,76,95,20
3,69,95,20
3,69,95,20
3,69,95,20
3,69,95,20
3,69,95,20
3,69,95,20
3,76,95,20
3,76,95,20
3,67,95,200
3,67,95,40
3,67,95,20
3,67,95,20
3,67,95,20
3,67,95,20
3,69,95,20
3,69,95,740
3,69,95,20
3,69,95,20
3,69,95,20
3,69,95,20
3,69,95,20
3,76,95,20
3,76,95,20
3,69,95,200
3,69,95,40
3,76,95,20
3,76,95,20
3,69,95,20
3,69,95,20
3,69,95,20
3,69,95,20
3,69,95,20
3,69,95,20
3,76,95,20
3,76,95,20
3,69,95,200
3,69,95,40
3,76,95,20
3,76,95,20
3,69,95,20
3,69,95,20
3,69,95,20
3,69,95,20
3,69,95,20
3,69,95,20
3,76,95,20
3,76,95,20
3,67,95,200
3,67,95,40
3,67,95,20
3,67,95,20
3,67,95,20
3,67,95,20
3,69,95,20
3,71,95,740
3,71,95,20
3,71,95,20
3,71,95,20
3,71,95,20
3,71,95,20
3,78,95,20
3,78,95,20
3,71,95,200
3,71,95,40
3,78,95,20
3,78,95,20
3,71,95,20
3,71,95,20
3,71,95,20
3,71,95,20
3,71,95,20
3,71,95,20
3,78,95,20
3,78,95,20
3,71,95,200
3,71,95,40
3,78,95,20
3,78,95,20
3,71,95,20
3,71,95,20
3,71,95,20
3,71,95,20
3,71,95,20
3,71,95,20
3,78,95,20
3,78,95,20
3,69,95,200
3,69,95,40
3,69,95,20
3,69,95,20
3,69,95,20
3,69,95,20
3,71,95,20
3,71,95,740
3,71,95,20
3,71,95,20
3,71,95,20
3,71,95,20
3,71,95,20
3,78,95,20
3,78,95,20
3,71,95,200
3,71,95,40
3,78,95,20
3,78,95,20
3,71,95,20
3,71,95,20
3,71,95,20
3,71,95,20
3,71,95,20
3,71,95,20
3,78,95,20
3,78,95,20
3,71,95,200
