track,note,velocity,time
1,69,99,3600
1,69,99,20
1,69,99,20
1,69,99,20
1,69,99,20
1,67,99,20
1,69,99,20
1,69,99,20
1,69,99,20
1,67,99,20
1,69,99,20
1,67,99,20
1,67,99,40
1,69,99,20
1,69,99,20
1,69,99,20
1,69,99,20
1,69,99,20
1,67,99,40
1,69,99,40
1,69,99,20
1,67,99,20
1,69,99,20
1,67,99,20
1,67,99,40
1,69,99,20
1,72,99,20
1,72,99,20
1,72,99,20
1,72,99,20
1,72,99,20
1,69,99,20
1,69,99,20
1,67,99,40
1,67,99,20
1,67,99,20
1,67,99,20
1,67,99,20
1,67,99,20
1,67,99,20
1,67,99,100
1,69,99,20
1,69,99,20
1,69,99,100
1,67,99,40
1,67,99,20
1,69,99,20
1,69,99,20
1,69,99,20
1,67,99,20
1,69,99,20
1,69,99,20
1,69,99,20
1,69,99,20
1,69,99,20
1,67,99,40
1,69,99,20
1,69,99,20
1,69,99,20
1,67,99,40
1,67,99,40
1,69,99,20
1,69,99,20
1,69,99,20
1,69,99,20
1,69,99,20
1,67,99,40
1,69,99,20
1,69,99,20
1,69,99,20
1,69,99,20
1,67,99,20
1,67,99,40
1,69,99,20
1,69,99,40
1,69,99,20
1,72,99,20
1,69,99,40
1,67,99,20
1,69,99,20
1,69,99,20
1,67,99,20
1,69,99,20
1,71,99,20
1,67,99,40
1,69,99,20
1,67,99,100
1,69,99,20
1,67,99,40
1,69,99,20
1,67,99,40
1,67,99,20
1,72,99,20
1,72,99,20
1,69,99,20
1,67,99,20
1,69,99,20
1,69,99,20
1,69,115,20
1,69,115,20
1,69,115,20
1,69,115,20
1,69,115,20
1,69,115,20
1,76,115,20
1,76,115,20
1,69,115,200
1,69,115,40
1,76,115,20
1,76,115,20
1,69,115,20
1,69,115,20
1,69,115,20
1,69,115,20
1,69,115,20
1,69,115,20
1,76,115,20
1,76,115,20
1,69,115,200
1,69,115,40
1,76,115,20
1,76,115,20
1,69,115,20
1,69,115,20
1,69,115,20
1,69,115,20
1,69,115,20
1,69,115,20
1,76,115,20
1,76,115,20
1,67,115,200
1,67,115,40
1,67,115,20
1,67,115,20
1,67,115,20
1,67,115,20
1,69,115,20
1,69,115,740
1,69,115,20
1,69,115,20
1,69,115,20
1,69,115,20
1,69,115,20
1,76,115,20
1,76,115,20
1,69,115,200
1,69,115,40
1,76,115,20
1,76,115,20
1,69,115,20
1,69,115,20
1,69,115,20
1,69,115,20
1,69,115,20
1,69,115,20
1,76,115,20
1,76,115,20
1,69,115,200
1,69,115,40
1,76,115,20
1,76,115,20
1,69,115,20
1,69,115,20
1,69,115,20
1,69,115,20
1,69,115,20
1,69,115,20
1,76,115,20
1,76,115,20
1,67,115,200
1,67,115,40
1,67,115,20
1,67,115,20
1,67,115,20
1,67,99,20
1,69,99,20
1,69,99,680
1,69,99,0
1,69,99,0
1,69,99,20
1,67,99,20
1,69,99,20
1,69,99,20
1,69,99,20
1,67,99,20
1,69,99,20
1,67,99,20
1,67,99,40
1,69,99,20
1,69,99,20
1,69,99,20
1,69,99,20
1,69,99,20
1,67,99,40
1,69,99,40
1,69,99,20
1,67,99,20
1,69,99,20
1,67,99,20
1,67,99,40
1,69,99,20
1,72,99,20
1,72,99,20
1,72,99,20
1,72,99,20
1,72,99,20
1,69,99,20
1,69,99,20
1,67,99,40
1,67,99,20
1,67,99,20
1,67,99,20
1,67,99,20
1,67,99,20
1,67,99,20
1,67,99,100
1,69,99,20
1,69,99,20
1,69,99,100
1,67,99,40
1,67,99,20
1,69,99,20
1,69,99,20
1,69,99,20
1,67,99,20
1,69,99,20
1,69,99,20
1,69,99,20
1,69,99,20
1,69,99,20
1,67,99,40
1,69,99,20
1,69,99,20
1,69,99,20
1,67,99,40
1,67,99,40
1,69,99,20
1,69,99,20
1,69,99,20
1,69,99,20
1,69,99,20
1,67,99,40
1,69,99,20
1,69,99,20
1,69,99,20
1,69,99,20
1,67,99,20
1,67,99,40
1,69,99,20
1,69,99,40
1,69,99,20
1,72,99,20
1,69,99,40
1,67,99,20
1,69,99,20
1,69,99,20
1,67,99,20
1,69,99,20
1,71,99,20
1,67,99,40
1,69,99,20
1,67,99,100
1,69,99,20
1,67,99,40
1,69,99,20
1,67,99,40
1,67,99,20
1,72,99,20
1,72,99,20
1,69,99,20
1,67,99,20
1,69,99,20
1,69,99,20
1,69,115,20
1,69,115,20
1,69,115,20
1,69,115,20
1,69,115,20
1,69,115,20
1,76,115,20
1,76,115,20
1,69,115,200
1,69,115,40
1,76,115,20
1,76,115,20
1,69,115,20
1,69,115,20
1,69,115,20
1,69,115,20
1,69,115,20
1,69,115,20
1,76,115,20
1,76,115,20
1,69,115,200
1,69,115,40
1,76,115,20
1,76,115,20
1,69,115,20
1,69,115,20
1,69,115,20
1,69,115,20
1,69,115,20
1,69,115,20
1,76,115,20
1,76,115,20
1,67,115,200
1,67,115,40
1,67,115,20
1,67,115,20
1,67,115,20
1,67,115,20
1,69,115,20
1,67,115,260
1,69,115,20
1,72,115,20
1,69,115,20
1,67,115,20
1,69,115,20
1,69,115,20
1,69,115,20
1,69,115,140
1,69,115,20
1,69,115,20
1,69,115,20
1,76,115,20
1,76,115,20
1,69,115,200
1,69,115,40
1,76,115,20
1,76,115,20
1,69,115,20
1,69,115,20
1,69,115,20
1,69,115,20
1,69,115,20
1,69,115,20
1,76,115,20
1,76,115,20
1,69,115,200
1,69,115,40
1,76,115,20
1,76,115,20
1,69,115,20
1,69,115,20
1,69,115,20
1,69,115,20
1,69,115,20
1,69,115,20
1,76,115,20
1,76,115,20
1,67,115,200
1,67,115,40
1,67,115,20
1,67,115,20
1,67,115,20
1,67,115,20
1,69,115,20
1,71,115,740
1,71,115,20
1,71,115,20
1,71,115,20
1,71,115,20
1,71,115,20
1,78,115,20
1,78,115,20
1,71,115,200
1,71,115,40
1,78,115,20
1,78,115,20
1,71,115,20
1,71,115,20
1,71,115,20
1,71,115,20
1,71,115,20
1,71,115,20
1,78,115,20
1,78,115,20
1,71,115,200
1,71,115,40
1,78,115,20
1,78,115,20
1,71,115,20
1,71,115,20
1,71,115,20
1,71,115,20
1,71,115,20
1,71,115,20
1,78,115,20
1,78,115,20
1,69,115,200
1,69,115,40
1,69,115,20
1,69,115,20
1,69,115,20
1,69,115,20
1,71,115,0
1,71,115,720
1,71,115,0
1,71,115,0
1,71,115,20
1,71,115,20
1,71,115,20
1,78,115,20
1,78,115,20
1,71,115,200
1,71,115,40
1,78,115,20
1,78,115,20
1,71,115,20
1,71,115,20
1,71,115,20
1,71,115,20
1,71,115,20
1,71,115,20
1,78,115,20
1,78,115,20
1,71,115,200
1,71,115,40
1,78,115,20
1,78,115,20
1,71,115,20
1,71,115,20
1,71,115,20
1,71,115,20
1,71,115,20
1,71,115,20
1,78,115,20
1,78,115,20
1,69,115,200
1,69,115,40
1,69,115,20
1,69,115,20
1,69,115,20
1,69,115,20
1,71,115,0
1,71,115,720
1,71,115,0
1,71,115,0
1,71,115,20
1,71,115,20
1,71,115,20
1,78,115,20
1,78,115,20
1,71,115,200
1,71,115,40
1,78,115,20
1,78,115,20
1,71,115,20
1,71,115,20
1,71,115,20
1,71,115,20
1,71,115,20
1,71,115,20
1,78,115,20
1,78,115,20
1,71,115,200
1,71,115,40
1,78,115,20
1,78,115,20
1,71,115,20
1,71,115,20
1,71,115,20
1,71,115,20
1,71,115,20
1,71,115,20
1,78,115,20
1,78,115,20
1,69,115,200
1,69,115,40
1,69,115,20
1,69,115,20
1,69,115,20
1,69,115,20
1,71,115,0
1,71,115,720
1,71,115,0
1,71,115,0
1,71,115,20
1,71,115,20
1,71,115,20
1,78,115,20
1,78,115,20
1,71,115,200
1,71,115,40
1,78,115,20
1,78,115,20
1,71,115,20
1,71,115,20
1,71,115,20
1,71,115,20
1,71,115,20
1,71,115,20
1,78,115,20
1,78,115,20
1,71,115,200
1,71,115,40
1,78,115,20
1,78,115,20
1,71,115,20
1,71,115,20
1,71,115,20
1,71,115,20
1,71,115,20
1,71,115,20
1,78,115,20
1,78,115,20
1,69,115,200
1,69,115,40
1,69,115,20
1,69,115,20
1,69,115,20
1,69,115,20
1,71,115,0
2,69,95,0
2,69,95,20
2,69,95,20
2,76,95,20
2,69,95,20
2,69,95,20
2,74,95,20
2,69,95,20
2,69,95,20
2,72,95,20
2,69,95,20
2,71,95,20
2,69,95,40
2,69,95,20
2,69,95,20
2,76,95,20
2,69,95,20
2,69,95,20
2,74,95,20
2,69,95,20
2,69,95,20
2,72,95,20
2,69,95,20
2,71,95,20
2,69,95,40
2,69,95,20
2,69,95,20
2,76,95,20
2,69,95,20
2,69,95,20
2,74,95,20
2,69,95,20
2,69,95,20
2,72,95,20
2,69,95,20
2,71,95,20
2,69,95,45
2,69,95,0
2,69,95,0
2,69,95,20
2,76,95,20
2,69,95,20
2,69,95,20
2,74,95,20
2,69,95,20
2,69,95,20
2,72,95,20
2,69,95,20
2,71,95,20
2,69,95,40
2,69,95,20
2,69,95,20
2,76,95,20
2,69,95,20
2,69,95,20
2,74,95,20
2,69,95,20
2,69,95,20
2,72,95,20
2,69,95,20
2,71,95,20
2,69,95,40
2,69,95,20
2,69,95,20
2,76,95,20
2,69,95,20
2,69,95,20
2,74,95,20
2,69,95,20
2,69,95,20
2,72,95,20
2,69,95,20
2,71,95,20
2,69,95,45
2,69,79,615
2,69,79,20
2,69,79,20
2,69,79,20
2,69,79,20
2,67,79,20
2,69,79,20
2,69,79,20
2,69,79,20
2,67,79,20
2,69,79,20
2,67,79,20
2,67,79,40
2,69,79,20
2,69,79,20
2,69,79,20
2,69,79,20
2,69,79,20
2,67,79,40
2,69,79,40
2,69,79,20
2,67,79,20
2,69,79,20
2,67,79,20
2,67,79,40
2,69,79,20
2,72,79,20
2,72,79,20
2,72,79,20
2,72,79,20
2,72,79,20
2,69,79,20
2,69,79,20
2,69,79,20
2,67,79,40
2,67,79,20
2,67,79,20
2,67,79,20
2,67,79,20
2,67,79,20
2,67,79,20
2,67,79,100
2,69,95,20
2,69,95,20
2,69,95,100
2,67,79,40
2,67,79,20
2,69,79,20
2,69,79,20
2,69,79,20
2,67,79,20
2,69,79,20
2,69,79,20
2,69,79,20
2,69,79,20
2,69,79,20
2,67,79,40
2,69,79,20
2,69,79,20
2,69,79,20
2,67,79,40
2,67,79,40
2,69,79,20
2,69,79,20
2,69,79,20
2,69,79,20
2,69,79,20
2,67,79,40
2,69,79,20
2,69,79,20
2,69,79,20
2,69,79,20
2,67,79,20
2,67,79,40
2,69,79,20
2,69,79,40
2,69,79,20
2,72,79,20
2,69,79,40
2,67,79,20
2,69,79,20
2,69,79,20
2,67,79,20
2,69,79,20
2,71,79,20
2,67,79,40
2,69,79,20
2,67,79,100
2,69,95,20
2,67,79,40
2,69,95,20
2,67,79,40
2,67,79,20
2,72,79,20
2,72,79,20
2,69,79,20
2,67,79,20
2,69,79,20
2,69,79,20
2,69,95,20
2,69,95,20
2,69,95,20
2,69,95,20
2,69,95,20
2,69,95,20
2,76,95,20
2,76,95,20
2,69,95,200
2,69,95,40
2,76,95,20
2,76,95,20
2,69,95,20
2,69,95,20
2,69,95,20
2,69,95,20
2,69,95,20
2,69,95,20
2,76,95,20
2,76,95,20
2,69,95,200
2,69,95,40
2,76,95,20
2,76,95,20
2,69,95,20
2,69,95,20
2,69,95,20
2,69,95,20
2,69,95,20
2,69,95,20
2,76,95,20
2,76,95,20
2,67,95,200
2,67,95,40
2,67,95,20
2,67,95,20
2,67,95,20
2,67,95,20
2,69,95,20
2,69,95,740
2,69,95,20
2,69,95,20
2,69,95,20
2,69,95,20
2,69,95,20
2,76,95,20
2,76,95,20
2,69,95,200
2,69,95,40
2,76,95,20
2,76,95,20
2,69,95,20
2,69,95,20
2,69,95,20
2,69,95,20
2,69,95,20
2,69,95,20
2,76,95,20
2,76,95,20
2,69,95,200
2,69,95,40
2,76,95,20
2,76,95,20
2,69,95,20
2,69,95,20
2,69,95,20
2,69,95,20
2,69,95,20
2,69,95,20
2,76,95,20
2,76,95,20
2,67,95,200
2,67,95,40
2,67,95,20
2,67,95,20
2,67,95,20
2,67,95,20
2,69,95,20
2,69,79,680
2,69,79,20
2,69,79,40
2,69,79,20
2,67,79,20
2,69,79,20
2,69,79,20
2,69,79,20
2,67,79,20
2,69,79,20
2,67,79,20
2,67,79,40
2,69,79,20
2,69,79,20
2,69,79,20
2,69,79,20
2,69,79,20
2,67,79,40
2,69,79,40
2,69,79,20
2,67,79,20
2,69,79,20
2,67,79,20
2,67,79,40
2,69,79,20
2,72,79,20
2,72,79,20
2,72,79,20
2,72,79,20
2,72,79,20
2,69,79,20
2,69,79,20
2,69,79,20
2,67,79,40
2,67,79,20
2,67,79,20
2,67,79,20
2,67,79,20
2,67,79,20
2,67,79,20
2,67,79,100
2,69,95,20
2,69,95,20
2,69,95,100
2,67,79,40
2,67,79,20
2,69,79,20
2,69,79,20
2,69,79,20
2,67,79,20
2,69,79,20
2,69,79,20
2,69,79,20
2,69,79,20
2,69,79,20
2,67,79,40
2,69,79,20
2,69,79,20
2,69,79,20
2,67,79,40
2,67,79,40
2,69,79,20
2,69,79,20
2,69,79,20
2,69,79,20
2,69,79,20
2,67,79,40
2,69,79,20
2,69,79,20
2,69,79,20
2,69,79,20
2,67,79,20
2,67,79,40
2,69,79,20
2,69,79,40
2,69,79,20
2,72,79,20
2,69,79,40
2,67,79,20
2,69,79,20
2,69,79,20
2,67,79,20
2,69,79,20
2,71,79,20
2,67,79,40
2,69,79,20
2,67,79,100
2,69,95,20
2,67,79,40
2,69,95,20
2,67,79,40
2,67,79,20
2,72,79,20
2,72,79,20
2,69,79,20
2,67,79,20
2,69,79,20
2,69,79,20
2,69,95,20
2,69,95,20
2,69,95,20
2,69,95,20
2,69,95,20
2,69,95,20
2,76,95,20
2,76,95,20
2,69,95,200
2,69,95,40
2,76,95,20
2,76,95,20
2,69,95,20
2,69,95,20
2,69,95,20
2,69,95,20
2,69,95,20
2,69,95,20
2,76,95,20
2,76,95,20
2,69,95,200
2,69,95,40
2,76,95,20
2,76,95,20
2,69,95,20
2,69,95,20
2,69,95,20
2,69,95,20
2,69,95,20
2,69,95,20
2,76,95,20
2,76,95,20
2,67,95,200
2,67,95,40
2,67,95,20
2,67,95,20
2,67,95,20
2,67,95,20
2,69,95,20
2,69,95,740
2,69,95,20
2,69,95,20
2,69,95,20
2,69,95,20
2,69,95,20
2,76,95,20
2,76,95,20
2,69,95,200
2,69,95,40
2,76,95,20
2,76,95,20
2,69,95,20
2,69,95,20
2,69,95,20
2,69,95,20
2,69,95,20
2,69,95,20
2,76,95,20
2,76,95,20
2,69,95,200
2,69,95,40
2,76,95,20
2,76,95,20
2,69,95,20
2,69,95,20
2,69,95,20
2,69,95,20
2,69,95,20
2,69,95,20
2,76,95,20
2,76,95,20
2,67,95,200
2,67,95,40
2,67,95,20
2,67,95,20
2,67,95,20
2,67,95,20
2,69,95,20
2,71,95,740
2,71,95,20
2,71,95,20
2,71,95,20
2,71,95,20
2,71,95,20
2,78,95,20
2,78,95,20
2,71,95,200
2,71,95,40
2,78,95,20
2,78,95,20
2,71,95,20
2,71,95,20
2,71,95,20
2,71,95,20
2,71,95,20
2,71,95,20
2,78,95,20
2,78,95,20
2,71,95,200
2,71,95,40
2,78,95,20
2,78,95,20
2,71,95,20
2,71,95,20
2,71,95,20
2,71,95,20
2,71,95,20
2,71,95,20
2,78,95,20
2,78,95,20
2,69,95,200
2,69,95,40
2,69,95,20
2,69,95,20
2,69,95,20
2,69,95,20
2,71,95,20
2,71,95,740
2,71,95,20
2,71,95,20
2,71,95,20
2,71,95,20
2,71,95,20
2,78,95,20
2,78,95,20
2,71,95,200
2,71,95,40
2,78,95,20
2,78,95,20
2,71,95,20
2,71,95,20
2,71,95,20
2,71,95,20
2,71,95,20
2,71,95,20
2,78,95,20
2,78,95,20
2,71,95,200
