track,note,velocity,time
1.0,64.0,55.0,3840.0
1.0,64.0,0.0,1690.0
1.0,59.0,41.0,0.0
1.0,59.0,0.0,235.0
1.0,62.0,55.0,0.0
1.0,62.0,0.0,1915.0
1.0,62.0,55.0,0.0
1.0,62.0,0.0,660.0
1.0,66.0,44.0,0.0
1.0,66.0,0.0,60.0
1.0,64.0,51.0,0.0
1.0,64.0,0.0,240.0
1.0,62.0,53.0,0.0
1.0,62.0,0.0,720.0
1.0,57.0,41.0,0.0
1.0,57.0,0.0,240.0
1.0,59.0,52.0,0.0
1.0,59.0,0.0,470.0
1.0,59.0,48.0,10.0
1.0,59.0,0.0,350.0
1.0,59.0,44.0,10.0
1.0,59.0,0.0,110.0
1.0,59.0,46.0,10.0
1.0,59.0,0.0,1920.0
1.0,71.0,62.0,1920.0
1.0,71.0,0.0,720.0
1.0,66.0,53.0,5.0
1.0,66.0,0.0,240.0
1.0,69.0,59.0,0.0
1.0,69.0,0.0,1915.0
1.0,69.0,51.0,0.0
1.0,69.0,0.0,660.0
1.0,73.0,38.0,0.0
1.0,73.0,0.0,60.0
1.0,71.0,47.0,0.0
1.0,71.0,0.0,240.0
1.0,69.0,51.0,0.0
1.0,69.0,0.0,720.0
1.0,64.0,46.0,0.0
1.0,64.0,0.0,240.0
1.0,66.0,53.0,0.0
1.0,66.0,0.0,470.0
1.0,66.0,58.0,10.0
1.0,66.0,0.0,350.0
1.0,66.0,56.0,10.0
1.0,66.0,0.0,110.0
1.0,66.0,63.0,10.0
1.0,66.0,0.0,1920.0
1.0,69.0,55.0,3360.0
1.0,69.0,0.0,3120.0
1.0,64.0,47.0,0.0
1.0,64.0,0.0,240.0
1.0,65.0,49.0,10.0
1.0,65.0,0.0,1910.0
1.0,65.0,46.0,0.0
1.0,65.0,0.0,660.0
1.0,69.0,37.0,0.0
1.0,69.0,0.0,60.0
1.0,67.0,42.0,0.0
1.0,67.0,0.0,240.0
1.0,65.0,46.0,0.0
1.0,65.0,0.0,720.0
1.0,60.0,42.0,0.0
1.0,60.0,0.0,240.0
1.0,62.0,46.0,0.0
1.0,62.0,0.0,470.0
1.0,62.0,44.0,10.0
1.0,62.0,0.0,350.0
1.0,62.0,42.0,10.0
1.0,62.0,0.0,110.0
1.0,62.0,46.0,10.0
1.0,62.0,0.0,1920.0
1.0,62.0,46.0,960.0
1.0,62.0,0.0,660.0
1.0,65.0,37.0,0.0
1.0,65.0,0.0,60.0
1.0,64.0,42.0,0.0
1.0,64.0,0.0,240.0
1.0,62.0,46.0,0.0
1.0,62.0,0.0,720.0
1.0,57.0,35.0,0.0
1.0,59.0,39.0,240.0
1.0,59.0,0.0,470.0
1.0,59.0,44.0,10.0
1.0,59.0,0.0,350.0
1.0,59.0,42.0,10.0
1.0,59.0,0.0,110.0
1.0,57.0,0.0,10.0
1.0,52.0,31.0,0.0
1.0,59.0,38.0,0.0
1.0,56.0,31.0,0.0
1.0,59.0,0.0,470.0
1.0,56.0,0.0,10.0
1.0,52.0,0.0,0.0
1.0,54.0,30.0,0.0
1.0,51.0,30.0,0.0
1.0,59.0,37.0,0.0
1.0,59.0,0.0,470.0
1.0,51.0,0.0,10.0
1.0,54.0,0.0,0.0
1.0,59.0,38.0,0.0
1.0,52.0,31.0,0.0
1.0,56.0,31.0,0.0
1.0,56.0,0.0,780.0
1.0,52.0,0.0,0.0
1.0,59.0,0.0,0.0
1.0,50.0,31.0,0.0
1.0,52.0,31.0,60.0
1.0,56.0,31.0,60.0
1.0,59.0,38.0,60.0
1.0,59.0,0.0,720.0
1.0,60.0,38.0,0.0
1.0,60.0,0.0,240.0
1.0,56.0,0.0,0.0
1.0,52.0,0.0,0.0
1.0,50.0,0.0,0.0
1.0,48.0,31.0,120.0
1.0,52.0,31.0,60.0
1.0,57.0,38.0,60.0
1.0,57.0,0.0,1680.0
1.0,52.0,0.0,0.0
1.0,48.0,0.0,0.0
2.0,40.0,34.0,1.0
2.0,47.0,40.0,0.0
2.0,47.0,0.0,149.0
2.0,40.0,0.0,0.0
2.0,46.0,28.0,0.0
2.0,55.0,34.0,0.0
2.0,55.0,0.0,240.0
2.0,46.0,0.0,0.0
2.0,40.0,34.0,0.0
2.0,47.0,40.0,0.0
2.0,47.0,0.0,149.0
2.0,40.0,0.0,0.0
2.0,43.0,28.0,0.0
2.0,55.0,34.0,0.0
2.0,55.0,0.0,240.0
2.0,43.0,0.0,0.0
2.0,40.0,34.0,0.0
2.0,47.0,40.0,0.0
2.0,47.0,0.0,160.0
2.0,40.0,0.0,0.0
2.0,46.0,28.0,0.0
2.0,55.0,34.0,0.0
2.0,55.0,0.0,240.0
2.0,46.0,0.0,0.0
2.0,47.0,40.0,0.0
2.0,40.0,34.0,0.0
2.0,40.0,0.0,114.0
2.0,47.0,0.0,0.0
2.0,43.0,27.0,0.0
2.0,55.0,33.0,0.0
2.0,55.0,0.0,240.0
2.0,43.0,0.0,0.0
2.0,47.0,40.0,0.0
2.0,40.0,34.0,0.0
2.0,40.0,0.0,149.0
2.0,47.0,0.0,0.0
2.0,55.0,33.0,0.0
2.0,46.0,27.0,0.0
2.0,46.0,0.0,240.0
2.0,55.0,0.0,0.0
2.0,40.0,31.0,0.0
2.0,47.0,38.0,0.0
2.0,47.0,0.0,149.0
2.0,40.0,0.0,0.0
2.0,43.0,26.0,0.0
2.0,55.0,31.0,0.0
2.0,55.0,0.0,240.0
2.0,43.0,0.0,0.0
2.0,40.0,30.0,0.0
2.0,47.0,36.0,0.0
2.0,47.0,0.0,160.0
2.0,40.0,0.0,0.0
2.0,46.0,25.0,0.0
2.0,55.0,29.0,0.0
2.0,55.0,0.0,240.0
2.0,46.0,0.0,0.0
2.0,47.0,35.0,0.0
2.0,40.0,28.0,0.0
2.0,40.0,0.0,114.0
2.0,47.0,0.0,0.0
2.0,43.0,22.0,0.0
2.0,55.0,26.0,0.0
2.0,55.0,0.0,240.0
2.0,43.0,0.0,0.0
2.0,47.0,33.0,0.0
2.0,40.0,27.0,0.0
2.0,40.0,0.0,149.0
2.0,47.0,0.0,0.0
2.0,46.0,23.0,0.0
2.0,55.0,27.0,0.0
2.0,55.0,0.0,240.0
2.0,46.0,0.0,0.0
2.0,47.0,33.0,0.0
2.0,40.0,27.0,0.0
2.0,40.0,0.0,149.0
2.0,47.0,0.0,0.0
2.0,43.0,23.0,0.0
2.0,55.0,27.0,0.0
2.0,55.0,0.0,240.0
2.0,43.0,0.0,0.0
2.0,47.0,33.0,0.0
2.0,40.0,27.0,0.0
2.0,40.0,0.0,160.0
2.0,47.0,0.0,0.0
2.0,46.0,23.0,0.0
2.0,55.0,27.0,0.0
2.0,55.0,0.0,240.0
2.0,46.0,0.0,0.0
2.0,47.0,33.0,0.0
2.0,40.0,27.0,0.0
2.0,40.0,0.0,114.0
2.0,47.0,0.0,0.0
2.0,55.0,26.0,0.0
2.0,43.0,22.0,0.0
2.0,43.0,0.0,240.0
2.0,55.0,0.0,0.0
2.0,38.0,27.0,0.0
2.0,47.0,33.0,0.0
2.0,47.0,0.0,149.0
2.0,38.0,0.0,0.0
2.0,55.0,27.0,0.0
2.0,46.0,23.0,0.0
2.0,46.0,0.0,240.0
2.0,55.0,0.0,0.0
2.0,38.0,27.0,0.0
2.0,47.0,33.0,0.0
2.0,47.0,0.0,149.0
2.0,38.0,0.0,0.0
2.0,55.0,27.0,0.0
2.0,43.0,23.0,0.0
2.0,43.0,0.0,240.0
2.0,55.0,0.0,0.0
2.0,47.0,33.0,0.0
2.0,38.0,27.0,0.0
2.0,38.0,0.0,160.0
2.0,47.0,0.0,0.0
2.0,46.0,23.0,0.0
2.0,55.0,27.0,0.0
2.0,55.0,0.0,240.0
2.0,46.0,0.0,0.0
2.0,47.0,33.0,0.0
2.0,38.0,27.0,0.0
2.0,38.0,0.0,114.0
2.0,47.0,0.0,0.0
2.0,43.0,22.0,0.0
2.0,55.0,26.0,0.0
2.0,55.0,0.0,240.0
2.0,43.0,0.0,0.0
2.0,45.0,33.0,0.0
2.0,38.0,27.0,0.0
2.0,38.0,0.0,149.0
2.0,45.0,0.0,0.0
2.0,55.0,27.0,0.0
2.0,44.0,23.0,0.0
2.0,44.0,0.0,240.0
2.0,55.0,0.0,0.0
2.0,38.0,27.0,0.0
2.0,45.0,33.0,0.0
2.0,45.0,0.0,149.0
2.0,38.0,0.0,0.0
2.0,55.0,27.0,0.0
2.0,43.0,23.0,0.0
2.0,43.0,0.0,240.0
2.0,55.0,0.0,0.0
2.0,38.0,27.0,0.0
2.0,45.0,33.0,0.0
2.0,45.0,0.0,160.0
2.0,38.0,0.0,0.0
2.0,54.0,27.0,0.0
2.0,44.0,23.0,0.0
2.0,44.0,0.0,240.0
2.0,54.0,0.0,0.0
2.0,38.0,27.0,0.0
2.0,45.0,33.0,0.0
2.0,45.0,0.0,114.0
2.0,38.0,0.0,0.0
2.0,54.0,26.0,0.0
2.0,42.0,22.0,0.0
2.0,42.0,0.0,240.0
2.0,54.0,0.0,0.0
2.0,31.0,27.0,0.0
2.0,43.0,33.0,0.0
2.0,43.0,0.0,149.0
2.0,31.0,0.0,0.0
2.0,55.0,26.0,0.0
2.0,52.0,22.0,0.0
2.0,52.0,0.0,240.0
2.0,55.0,0.0,0.0
2.0,43.0,25.0,0.0
2.0,50.0,29.0,0.0
2.0,50.0,0.0,149.0
2.0,43.0,0.0,0.0
2.0,51.0,19.0,0.0
2.0,55.0,24.0,0.0
2.0,55.0,0.0,240.0
2.0,51.0,0.0,0.0
2.0,43.0,23.0,0.0
2.0,50.0,27.0,0.0
2.0,50.0,0.0,160.0
2.0,43.0,0.0,0.0
2.0,52.0,18.0,0.0
2.0,55.0,23.0,0.0
2.0,55.0,0.0,240.0
2.0,52.0,0.0,0.0
2.0,50.0,27.0,0.0
2.0,43.0,23.0,0.0
2.0,43.0,0.0,114.0
2.0,50.0,0.0,0.0
2.0,55.0,22.0,0.0
2.0,51.0,18.0,0.0
2.0,51.0,0.0,240.0
2.0,55.0,0.0,0.0
2.0,43.0,24.0,0.0
2.0,50.0,29.0,0.0
2.0,50.0,0.0,149.0
2.0,43.0,0.0,0.0
2.0,55.0,25.0,0.0
2.0,52.0,20.0,0.0
2.0,52.0,0.0,240.0
2.0,55.0,0.0,0.0
2.0,43.0,25.0,0.0
2.0,50.0,30.0,0.0
2.0,50.0,0.0,149.0
2.0,43.0,0.0,0.0
2.0,51.0,22.0,0.0
2.0,55.0,26.0,0.0
2.0,55.0,0.0,240.0
2.0,51.0,0.0,0.0
2.0,43.0,26.0,0.0
2.0,50.0,31.0,0.0
2.0,50.0,0.0,160.0
2.0,43.0,0.0,0.0
2.0,52.0,23.0,0.0
2.0,55.0,27.0,0.0
2.0,55.0,0.0,240.0
2.0,52.0,0.0,0.0
2.0,43.0,27.0,0.0
2.0,50.0,33.0,0.0
2.0,50.0,0.0,114.0
2.0,43.0,0.0,0.0
2.0,55.0,26.0,0.0
2.0,51.0,22.0,0.0
2.0,51.0,0.0,240.0
2.0,55.0,0.0,0.0
2.0,47.0,27.0,0.0
2.0,54.0,33.0,0.0
2.0,54.0,0.0,149.0
2.0,47.0,0.0,0.0
2.0,53.0,23.0,0.0
2.0,62.0,27.0,0.0
2.0,62.0,0.0,240.0
2.0,53.0,0.0,0.0
2.0,47.0,27.0,0.0
2.0,54.0,33.0,0.0
2.0,54.0,0.0,149.0
2.0,47.0,0.0,0.0
2.0,50.0,23.0,0.0
2.0,62.0,27.0,0.0
2.0,62.0,0.0,240.0
2.0,50.0,0.0,0.0
2.0,54.0,33.0,0.0
2.0,47.0,27.0,0.0
2.0,47.0,0.0,160.0
2.0,54.0,0.0,0.0
2.0,53.0,23.0,0.0
2.0,62.0,27.0,0.0
2.0,62.0,0.0,240.0
2.0,53.0,0.0,0.0
2.0,54.0,33.0,0.0
2.0,47.0,27.0,0.0
2.0,47.0,0.0,114.0
2.0,54.0,0.0,0.0
2.0,50.0,22.0,0.0
2.0,62.0,26.0,0.0
2.0,62.0,0.0,240.0
2.0,50.0,0.0,0.0
2.0,54.0,33.0,0.0
2.0,45.0,27.0,0.0
2.0,45.0,0.0,149.0
2.0,54.0,0.0,0.0
2.0,53.0,23.0,0.0
2.0,62.0,27.0,0.0
2.0,62.0,0.0,240.0
2.0,53.0,0.0,0.0
2.0,45.0,27.0,0.0
2.0,54.0,33.0,0.0
2.0,54.0,0.0,149.0
2.0,45.0,0.0,0.0
2.0,50.0,23.0,0.0
2.0,62.0,27.0,0.0
2.0,62.0,0.0,240.0
2.0,50.0,0.0,0.0
2.0,45.0,27.0,0.0
2.0,54.0,33.0,0.0
2.0,54.0,0.0,160.0
2.0,45.0,0.0,0.0
2.0,53.0,23.0,0.0
2.0,62.0,27.0,0.0
2.0,62.0,0.0,240.0
2.0,53.0,0.0,0.0
2.0,54.0,33.0,0.0
2.0,45.0,27.0,0.0
2.0,45.0,0.0,114.0
2.0,54.0,0.0,0.0
2.0,50.0,22.0,0.0
2.0,62.0,26.0,0.0
2.0,62.0,0.0,240.0
2.0,50.0,0.0,0.0
2.0,52.0,33.0,0.0
2.0,45.0,27.0,0.0
2.0,45.0,0.0,149.0
2.0,52.0,0.0,0.0
2.0,62.0,27.0,0.0
2.0,51.0,23.0,0.0
2.0,51.0,0.0,240.0
2.0,62.0,0.0,0.0
2.0,52.0,33.0,0.0
2.0,45.0,27.0,0.0
2.0,45.0,0.0,149.0
2.0,52.0,0.0,0.0
2.0,62.0,27.0,0.0
2.0,50.0,23.0,0.0
2.0,50.0,0.0,240.0
2.0,62.0,0.0,0.0
2.0,45.0,28.0,0.0
2.0,52.0,28.0,0.0
2.0,52.0,0.0,160.0
2.0,45.0,0.0,0.0
2.0,61.0,27.0,0.0
2.0,51.0,23.0,0.0
2.0,51.0,0.0,240.0
2.0,61.0,0.0,0.0
2.0,45.0,27.0,0.0
2.0,52.0,33.0,0.0
2.0,52.0,0.0,114.0
2.0,45.0,0.0,0.0
2.0,49.0,22.0,0.0
2.0,61.0,26.0,0.0
2.0,61.0,0.0,240.0
2.0,49.0,0.0,0.0
2.0,45.0,27.0,0.0
2.0,51.0,33.0,0.0
2.0,51.0,0.0,149.0
2.0,45.0,0.0,0.0
2.0,50.0,25.0,0.0
2.0,61.0,29.0,0.0
2.0,61.0,0.0,240.0
2.0,50.0,0.0,0.0
2.0,45.0,31.0,0.0
2.0,51.0,38.0,0.0
2.0,51.0,0.0,149.0
2.0,45.0,0.0,0.0
2.0,61.0,34.0,0.0
2.0,49.0,28.0,0.0
2.0,49.0,0.0,240.0
2.0,61.0,0.0,0.0
2.0,45.0,36.0,0.0
2.0,51.0,44.0,0.0
2.0,51.0,0.0,160.0
2.0,45.0,0.0,0.0
2.0,61.0,36.0,0.0
2.0,50.0,30.0,0.0
2.0,50.0,0.0,240.0
2.0,61.0,0.0,0.0
2.0,45.0,36.0,0.0
2.0,51.0,44.0,0.0
2.0,51.0,0.0,114.0
2.0,45.0,0.0,0.0
2.0,61.0,35.0,0.0
2.0,49.0,29.0,0.0
2.0,49.0,0.0,240.0
2.0,61.0,0.0,0.0
2.0,45.0,36.0,0.0
2.0,51.0,44.0,0.0
2.0,51.0,0.0,149.0
2.0,45.0,0.0,0.0
2.0,50.0,30.0,0.0
2.0,61.0,36.0,0.0
2.0,61.0,0.0,240.0
2.0,50.0,0.0,0.0
2.0,45.0,36.0,0.0
2.0,51.0,44.0,0.0
2.0,51.0,0.0,149.0
2.0,45.0,0.0,0.0
2.0,49.0,30.0,0.0
2.0,61.0,36.0,0.0
2.0,61.0,0.0,240.0
2.0,49.0,0.0,0.0
2.0,51.0,44.0,0.0
2.0,45.0,36.0,0.0
2.0,45.0,0.0,160.0
2.0,51.0,0.0,0.0
2.0,50.0,30.0,0.0
2.0,60.0,36.0,0.0
2.0,60.0,0.0,240.0
2.0,50.0,0.0,0.0
2.0,45.0,36.0,0.0
2.0,51.0,44.0,0.0
2.0,51.0,0.0,114.0
2.0,45.0,0.0,0.0
2.0,48.0,29.0,0.0
2.0,60.0,35.0,0.0
2.0,60.0,0.0,240.0
2.0,48.0,0.0,0.0
2.0,42.0,36.0,0.0
2.0,51.0,44.0,0.0
2.0,51.0,0.0,149.0
2.0,42.0,0.0,0.0
2.0,50.0,29.0,0.0
2.0,57.0,35.0,0.0
2.0,57.0,0.0,240.0
2.0,50.0,0.0,0.0
2.0,51.0,40.0,0.0
2.0,42.0,34.0,0.0
2.0,42.0,0.0,149.0
2.0,51.0,0.0,0.0
2.0,48.0,27.0,0.0
2.0,57.0,33.0,0.0
2.0,57.0,0.0,240.0
2.0,48.0,0.0,0.0
2.0,51.0,38.0,0.0
2.0,42.0,31.0,0.0
2.0,42.0,0.0,160.0
2.0,51.0,0.0,0.0
2.0,57.0,30.0,0.0
2.0,50.0,25.0,0.0
2.0,50.0,0.0,240.0
2.0,57.0,0.0,0.0
2.0,42.0,28.0,0.0
2.0,51.0,34.0,0.0
2.0,51.0,0.0,114.0
2.0,42.0,0.0,0.0
2.0,48.0,20.0,0.0
2.0,57.0,26.0,0.0
2.0,57.0,0.0,240.0
2.0,48.0,0.0,0.0
2.0,42.0,26.0,0.0
2.0,51.0,31.0,0.0
2.0,51.0,0.0,149.0
2.0,42.0,0.0,0.0
2.0,50.0,22.0,0.0
2.0,57.0,26.0,0.0
2.0,57.0,0.0,240.0
2.0,50.0,0.0,0.0
2.0,51.0,31.0,0.0
2.0,42.0,26.0,0.0
2.0,42.0,0.0,149.0
2.0,51.0,0.0,0.0
2.0,48.0,22.0,0.0
2.0,57.0,26.0,0.0
2.0,57.0,0.0,240.0
2.0,48.0,0.0,0.0
2.0,51.0,30.0,0.0
2.0,41.0,26.0,0.0
2.0,41.0,0.0,160.0
2.0,51.0,0.0,0.0
2.0,50.0,22.0,0.0
2.0,57.0,26.0,0.0
2.0,57.0,0.0,240.0
2.0,50.0,0.0,0.0
2.0,51.0,30.0,0.0
2.0,41.0,25.0,0.0
2.0,41.0,0.0,114.0
2.0,51.0,0.0,0.0
2.0,47.0,20.0,0.0
2.0,57.0,24.0,0.0
2.0,57.0,0.0,240.0
2.0,47.0,0.0,0.0
2.0,48.0,30.0,0.0
2.0,40.0,25.0,0.0
2.0,40.0,0.0,149.0
2.0,48.0,0.0,0.0
2.0,47.0,20.0,0.0
2.0,57.0,25.0,0.0
2.0,57.0,0.0,240.0
2.0,47.0,0.0,0.0
2.0,48.0,29.0,0.0
2.0,40.0,25.0,0.0
2.0,40.0,0.0,149.0
2.0,48.0,0.0,0.0
2.0,57.0,25.0,0.0
2.0,45.0,20.0,0.0
2.0,45.0,0.0,240.0
2.0,57.0,0.0,0.0
2.0,40.0,25.0,0.0
2.0,48.0,29.0,0.0
2.0,48.0,0.0,160.0
2.0,40.0,0.0,0.0
2.0,57.0,24.0,0.0
2.0,47.0,20.0,0.0
2.0,47.0,0.0,240.0
2.0,57.0,0.0,0.0
2.0,40.0,24.0,0.0
2.0,48.0,29.0,0.0
2.0,48.0,0.0,114.0
2.0,40.0,0.0,0.0
2.0,57.0,23.0,0.0
2.0,45.0,19.0,0.0
2.0,45.0,0.0,240.0
2.0,57.0,0.0,0.0
2.0,48.0,29.0,0.0
2.0,40.0,24.0,0.0
2.0,40.0,0.0,149.0
2.0,48.0,0.0,0.0
2.0,47.0,19.0,0.0
2.0,57.0,24.0,0.0
2.0,57.0,0.0,240.0
2.0,47.0,0.0,0.0
2.0,48.0,28.0,0.0
2.0,40.0,24.0,0.0
2.0,40.0,0.0,149.0
2.0,48.0,0.0,0.0
2.0,45.0,19.0,0.0
2.0,57.0,24.0,0.0
2.0,57.0,0.0,240.0
2.0,45.0,0.0,0.0
2.0,48.0,28.0,0.0
2.0,40.0,24.0,0.0
2.0,40.0,0.0,160.0
2.0,48.0,0.0,0.0
2.0,57.0,23.0,0.0
2.0,47.0,19.0,0.0
2.0,47.0,0.0,240.0
2.0,57.0,0.0,0.0
2.0,40.0,23.0,0.0
2.0,48.0,28.0,0.0
2.0,48.0,0.0,114.0
2.0,40.0,0.0,0.0
2.0,57.0,22.0,0.0
2.0,45.0,18.0,0.0
2.0,45.0,0.0,240.0
2.0,57.0,0.0,0.0
2.0,40.0,23.0,635.0
2.0,48.0,27.0,0.0
2.0,48.0,0.0,141.0
2.0,40.0,0.0,0.0
2.0,53.0,23.0,0.0
2.0,47.0,18.0,0.0
2.0,47.0,0.0,240.0
2.0,53.0,0.0,0.0
2.0,40.0,23.0,0.0
2.0,48.0,27.0,0.0
2.0,48.0,0.0,149.0
2.0,40.0,0.0,0.0
2.0,53.0,23.0,0.0
2.0,45.0,18.0,0.0
2.0,45.0,0.0,240.0
2.0,53.0,0.0,0.0
2.0,40.0,23.0,0.0
2.0,48.0,27.0,0.0
2.0,48.0,0.0,160.0
2.0,40.0,0.0,0.0
2.0,47.0,18.0,0.0
2.0,53.0,23.0,0.0
2.0,53.0,0.0,240.0
2.0,47.0,0.0,0.0
2.0,40.0,23.0,0.0
2.0,48.0,27.0,0.0
2.0,48.0,0.0,114.0
2.0,40.0,0.0,0.0
2.0,45.0,18.0,0.0
2.0,53.0,22.0,0.0
2.0,53.0,0.0,99.0
2.0,45.0,0.0,0.0
2.0,40.0,30.0,748.0
2.0,40.0,0.0,339.0
2.0,35.0,24.0,0.0
2.0,47.0,28.0,0.0
2.0,47.0,0.0,374.0
2.0,35.0,0.0,0.0
2.0,47.0,30.0,0.0
2.0,40.0,25.0,0.0
2.0,40.0,0.0,817.0
2.0,47.0,0.0,0.0
2.0,40.0,30.0,0.0
2.0,28.0,25.0,0.0
2.0,28.0,0.0,840.0
2.0,40.0,0.0,0.0
2.0,33.0,25.0,0.0
2.0,40.0,30.0,49.0
2.0,40.0,0.0,1835.0
2.0,33.0,0.0,0.0
0.0,0.0,0.0,0.0
0.0,0.0,0.0,0.0
0.0,0.0,0.0,0.0
0.0,0.0,0.0,0.0
0.0,0.0,0.0,0.0
0.0,0.0,0.0,0.0
0.0,0.0,0.0,0.0
0.0,0.0,0.0,0.0
0.0,0.0,0.0,0.0
0.0,0.0,0.0,0.0
0.0,0.0,0.0,0.0
0.0,0.0,0.0,0.0
0.0,0.0,0.0,0.0
0.0,0.0,0.0,0.0
0.0,0.0,0.0,0.0
0.0,0.0,0.0,0.0
0.0,0.0,0.0,0.0
0.0,0.0,0.0,0.0
0.0,0.0,0.0,0.0
0.0,0.0,0.0,0.0
0.0,0.0,0.0,0.0
0.0,0.0,0.0,0.0
0.0,0.0,0.0,0.0
0.0,0.0,0.0,0.0
0.0,0.0,0.0,0.0
0.0,0.0,0.0,0.0
0.0,0.0,0.0,0.0
0.0,0.0,0.0,0.0
0.0,0.0,0.0,0.0
0.0,0.0,0.0,0.0
0.0,0.0,0.0,0.0
0.0,0.0,0.0,0.0
0.0,0.0,0.0,0.0
0.0,0.0,0.0,0.0
0.0,0.0,0.0,0.0
0.0,0.0,0.0,0.0
0.0,0.0,0.0,0.0
0.0,0.0,0.0,0.0
0.0,0.0,0.0,0.0
0.0,0.0,0.0,0.0
0.0,0.0,0.0,0.0
0.0,0.0,0.0,0.0
0.0,0.0,0.0,0.0
0.0,0.0,0.0,0.0
0.0,0.0,0.0,0.0
0.0,0.0,0.0,0.0
0.0,0.0,0.0,0.0
0.0,0.0,0.0,0.0
0.0,0.0,0.0,0.0
0.0,0.0,0.0,0.0
0.0,0.0,0.0,0.0
0.0,0.0,0.0,0.0
0.0,0.0,0.0,0.0
0.0,0.0,0.0,0.0
0.0,0.0,0.0,0.0
0.0,0.0,0.0,0.0
0.0,0.0,0.0,0.0
0.0,0.0,0.0,0.0
0.0,0.0,0.0,0.0
0.0,0.0,0.0,0.0
0.0,0.0,0.0,0.0
0.0,0.0,0.0,0.0
0.0,0.0,0.0,0.0
0.0,0.0,0.0,0.0
0.0,0.0,0.0,0.0
0.0,0.0,0.0,0.0
0.0,0.0,0.0,0.0
0.0,0.0,0.0,0.0
0.0,0.0,0.0,0.0
0.0,0.0,0.0,0.0
0.0,0.0,0.0,0.0
0.0,0.0,0.0,0.0
0.0,0.0,0.0,0.0
0.0,0.0,0.0,0.0
0.0,0.0,0.0,0.0
0.0,0.0,0.0,0.0
0.0,0.0,0.0,0.0
0.0,0.0,0.0,0.0
0.0,0.0,0.0,0.0
0.0,0.0,0.0,0.0
0.0,0.0,0.0,0.0
0.0,0.0,0.0,0.0
0.0,0.0,0.0,0.0
0.0,0.0,0.0,0.0
0.0,0.0,0.0,0.0
0.0,0.0,0.0,0.0
0.0,0.0,0.0,0.0
0.0,0.0,0.0,0.0
0.0,0.0,0.0,0.0
0.0,0.0,0.0,0.0
0.0,0.0,0.0,0.0
0.0,0.0,0.0,0.0
0.0,0.0,0.0,0.0
0.0,0.0,0.0,0.0
0.0,0.0,0.0,0.0
0.0,0.0,0.0,0.0
0.0,0.0,0.0,0.0
0.0,0.0,0.0,0.0
0.0,0.0,0.0,0.0
0.0,0.0,0.0,0.0
0.0,0.0,0.0,0.0
0.0,0.0,0.0,0.0
0.0,0.0,0.0,0.0
0.0,0.0,0.0,0.0
0.0,0.0,0.0,0.0
0.0,0.0,0.0,0.0
0.0,0.0,0.0,0.0
0.0,0.0,0.0,0.0
0.0,0.0,0.0,0.0
0.0,0.0,0.0,0.0
0.0,0.0,0.0,0.0
0.0,0.0,0.0,0.0
0.0,0.0,0.0,0.0
0.0,0.0,0.0,0.0
0.0,0.0,0.0,0.0
0.0,0.0,0.0,0.0
0.0,0.0,0.0,0.0
0.0,0.0,0.0,0.0
0.0,0.0,0.0,0.0
0.0,0.0,0.0,0.0
0.0,0.0,0.0,0.0
0.0,0.0,0.0,0.0
0.0,0.0,0.0,0.0
0.0,0.0,0.0,0.0
0.0,0.0,0.0,0.0
0.0,0.0,0.0,0.0
0.0,0.0,0.0,0.0
0.0,0.0,0.0,0.0
0.0,0.0,0.0,0.0
0.0,0.0,0.0,0.0
0.0,0.0,0.0,0.0
0.0,0.0,0.0,0.0
0.0,0.0,0.0,0.0
0.0,0.0,0.0,0.0
0.0,0.0,0.0,0.0
0.0,0.0,0.0,0.0
0.0,0.0,0.0,0.0
0.0,0.0,0.0,0.0
0.0,0.0,0.0,0.0
0.0,0.0,0.0,0.0
0.0,0.0,0.0,0.0
0.0,0.0,0.0,0.0
0.0,0.0,0.0,0.0
0.0,0.0,0.0,0.0
0.0,0.0,0.0,0.0
0.0,0.0,0.0,0.0
0.0,0.0,0.0,0.0
0.0,0.0,0.0,0.0
0.0,0.0,0.0,0.0
0.0,0.0,0.0,0.0
0.0,0.0,0.0,0.0
0.0,0.0,0.0,0.0
0.0,0.0,0.0,0.0
0.0,0.0,0.0,0.0
0.0,0.0,0.0,0.0
0.0,0.0,0.0,0.0
0.0,0.0,0.0,0.0
0.0,0.0,0.0,0.0
0.0,0.0,0.0,0.0
0.0,0.0,0.0,0.0
0.0,0.0,0.0,0.0
0.0,0.0,0.0,0.0
0.0,0.0,0.0,0.0
0.0,0.0,0.0,0.0
0.0,0.0,0.0,0.0
0.0,0.0,0.0,0.0
0.0,0.0,0.0,0.0
0.0,0.0,0.0,0.0
0.0,0.0,0.0,0.0
0.0,0.0,0.0,0.0
0.0,0.0,0.0,0.0
0.0,0.0,0.0,0.0
0.0,0.0,0.0,0.0
0.0,0.0,0.0,0.0
0.0,0.0,0.0,0.0
0.0,0.0,0.0,0.0
0.0,0.0,0.0,0.0
0.0,0.0,0.0,0.0
0.0,0.0,0.0,0.0
0.0,0.0,0.0,0.0
0.0,0.0,0.0,0.0
0.0,0.0,0.0,0.0
0.0,0.0,0.0,0.0
0.0,0.0,0.0,0.0
0.0,0.0,0.0,0.0
0.0,0.0,0.0,0.0
0.0,0.0,0.0,0.0
0.0,0.0,0.0,0.0
0.0,0.0,0.0,0.0
0.0,0.0,0.0,0.0
0.0,0.0,0.0,0.0
0.0,0.0,0.0,0.0
0.0,0.0,0.0,0.0
0.0,0.0,0.0,0.0
0.0,0.0,0.0,0.0
0.0,0.0,0.0,0.0
0.0,0.0,0.0,0.0
0.0,0.0,0.0,0.0
0.0,0.0,0.0,0.0
0.0,0.0,0.0,0.0
0.0,0.0,0.0,0.0
0.0,0.0,0.0,0.0
0.0,0.0,0.0,0.0
0.0,0.0,0.0,0.0
0.0,0.0,0.0,0.0
0.0,0.0,0.0,0.0
0.0,0.0,0.0,0.0
0.0,0.0,0.0,0.0
0.0,0.0,0.0,0.0
0.0,0.0,0.0,0.0
0.0,0.0,0.0,0.0
0.0,0.0,0.0,0.0
0.0,0.0,0.0,0.0
0.0,0.0,0.0,0.0
0.0,0.0,0.0,0.0
0.0,0.0,0.0,0.0
0.0,0.0,0.0,0.0
0.0,0.0,0.0,0.0
0.0,0.0,0.0,0.0
0.0,0.0,0.0,0.0
0.0,0.0,0.0,0.0
0.0,0.0,0.0,0.0
0.0,0.0,0.0,0.0
0.0,0.0,0.0,0.0
0.0,0.0,0.0,0.0
0.0,0.0,0.0,0.0
0.0,0.0,0.0,0.0
0.0,0.0,0.0,0.0
0.0,0.0,0.0,0.0
0.0,0.0,0.0,0.0
0.0,0.0,0.0,0.0
0.0,0.0,0.0,0.0
0.0,0.0,0.0,0.0
0.0,0.0,0.0,0.0
0.0,0.0,0.0,0.0
0.0,0.0,0.0,0.0
0.0,0.0,0.0,0.0
0.0,0.0,0.0,0.0
0.0,0.0,0.0,0.0
0.0,0.0,0.0,0.0
0.0,0.0,0.0,0.0
0.0,0.0,0.0,0.0
0.0,0.0,0.0,0.0
0.0,0.0,0.0,0.0
0.0,0.0,0.0,0.0
0.0,0.0,0.0,0.0
0.0,0.0,0.0,0.0
0.0,0.0,0.0,0.0
0.0,0.0,0.0,0.0
0.0,0.0,0.0,0.0
0.0,0.0,0.0,0.0
0.0,0.0,0.0,0.0
0.0,0.0,0.0,0.0
0.0,0.0,0.0,0.0
0.0,0.0,0.0,0.0
0.0,0.0,0.0,0.0
0.0,0.0,0.0,0.0
0.0,0.0,0.0,0.0
0.0,0.0,0.0,0.0
0.0,0.0,0.0,0.0
0.0,0.0,0.0,0.0
0.0,0.0,0.0,0.0
0.0,0.0,0.0,0.0
0.0,0.0,0.0,0.0
0.0,0.0,0.0,0.0
0.0,0.0,0.0,0.0
0.0,0.0,0.0,0.0
0.0,0.0,0.0,0.0
0.0,0.0,0.0,0.0
0.0,0.0,0.0,0.0
0.0,0.0,0.0,0.0
0.0,0.0,0.0,0.0
0.0,0.0,0.0,0.0
0.0,0.0,0.0,0.0
0.0,0.0,0.0,0.0
0.0,0.0,0.0,0.0
0.0,0.0,0.0,0.0
0.0,0.0,0.0,0.0
0.0,0.0,0.0,0.0
0.0,0.0,0.0,0.0
0.0,0.0,0.0,0.0
0.0,0.0,0.0,0.0
0.0,0.0,0.0,0.0
0.0,0.0,0.0,0.0
0.0,0.0,0.0,0.0
0.0,0.0,0.0,0.0
0.0,0.0,0.0,0.0
0.0,0.0,0.0,0.0
0.0,0.0,0.0,0.0
0.0,0.0,0.0,0.0
0.0,0.0,0.0,0.0
0.0,0.0,0.0,0.0
0.0,0.0,0.0,0.0
0.0,0.0,0.0,0.0
0.0,0.0,0.0,0.0
0.0,0.0,0.0,0.0
0.0,0.0,0.0,0.0
0.0,0.0,0.0,0.0
0.0,0.0,0.0,0.0
0.0,0.0,0.0,0.0
0.0,0.0,0.0,0.0
0.0,0.0,0.0,0.0
0.0,0.0,0.0,0.0
0.0,0.0,0.0,0.0
0.0,0.0,0.0,0.0
0.0,0.0,0.0,0.0
0.0,0.0,0.0,0.0
0.0,0.0,0.0,0.0
0.0,0.0,0.0,0.0
0.0,0.0,0.0,0.0
0.0,0.0,0.0,0.0
0.0,0.0,0.0,0.0
0.0,0.0,0.0,0.0
0.0,0.0,0.0,0.0
0.0,0.0,0.0,0.0
0.0,0.0,0.0,0.0
