track,note,velocity,time
1,36,101,1920
1,36,89,160
1,36,98,352
1,36,95,160
1,36,101,160
1,36,101,352
1,36,98,160
1,36,95,160
1,36,98,352
1,36,101,160
1,36,89,160
1,36,101,352
1,36,89,160
1,36,98,160
1,36,98,352
1,36,98,160
1,36,89,160
1,36,95,352
1,36,101,160
1,36,104,352
1,36,107,352
1,36,107,352
1,36,107,352
1,36,101,1504
1,36,95,544
1,36,95,160
1,36,92,544
1,36,98,160
1,36,101,544
1,36,89,160
1,36,95,544
1,36,98,160
1,36,95,544
1,36,98,160
1,36,95,544
1,36,95,160
1,36,95,544
1,36,95,160
1,36,92,544
1,36,89,160
1,36,92,544
1,36,92,160
1,36,92,544
1,36,95,160
1,36,98,544
1,36,95,160
1,36,95,544
1,36,92,160
1,36,95,544
1,36,92,160
1,36,98,544
1,36,92,160
1,36,95,544
1,36,101,160
1,36,95,544
1,36,107,160
1,36,104,544
1,36,104,160
1,36,98,544
1,36,101,160
1,36,101,544
1,36,104,160
1,36,101,544
1,36,107,160
1,36,104,544
1,36,107,160
1,36,101,544
1,36,104,160
1,36,104,544
1,36,104,160
1,36,104,544
1,36,104,160
1,36,101,544
1,36,104,160
1,36,101,544
1,36,104,160
1,36,101,544
1,36,107,160
1,36,101,544
1,36,104,160
1,36,104,544
1,36,101,160
1,36,101,544
1,36,107,160
1,36,104,352
1,36,104,352
1,36,107,352
1,36,101,352
1,36,101,352
1,36,101,352
1,36,104,352
1,36,98,352
1,36,92,544
1,36,98,160
1,36,92,736
1,36,89,544
1,36,95,160
1,36,92,736
1,36,92,544
1,36,89,160
1,36,92,736
1,36,92,544
1,36,92,160
1,36,95,736
1,36,92,544
1,36,89,160
1,36,95,736
1,36,89,544
1,36,89,160
1,36,89,736
1,36,89,544
1,36,92,160
1,36,89,736
1,36,89,544
1,36,95,160
1,36,92,736
1,36,89,544
1,36,86,160
1,36,89,736
1,36,89,544
1,36,95,160
1,36,95,736
1,36,92,544
1,36,86,160
1,36,92,736
1,36,92,544
1,36,86,160
1,36,89,736
1,36,92,544
1,36,86,160
1,36,89,736
1,36,92,544
1,36,95,160
1,36,92,736
1,36,89,544
1,36,89,160
1,36,104,736
1,36,101,352
1,36,104,352
1,36,104,352
1,36,101,352
1,36,101,352
1,36,101,352
1,36,101,352
1,36,101,352
1,36,101,352
1,36,101,352
1,36,101,352
1,36,101,352
1,36,101,352
1,36,101,352
1,36,104,352
1,36,104,352
1,36,101,352
1,36,104,352
1,36,104,352
1,36,101,352
1,36,101,352
1,36,101,352
1,36,101,352
1,36,101,352
1,36,101,352
1,36,101,352
1,36,101,352
1,36,101,352
1,36,101,352
1,36,101,352
1,36,104,352
1,36,95,352
1,36,92,352
1,36,101,352
1,36,95,352
1,36,92,352
1,36,95,352
1,36,98,352
1,36,95,352
1,36,98,352
1,36,98,352
1,36,98,352
1,36,98,352
1,36,95,352
1,36,92,352
1,36,92,352
1,36,98,352
1,36,98,160
1,36,89,160
1,36,101,352
1,36,98,352
1,36,98,352
1,36,98,352
1,36,95,352
1,36,89,352
1,36,92,352
1,36,95,352
1,36,95,352
1,36,92,352
1,36,89,352
1,36,89,352
1,36,92,352
1,36,89,352
1,36,98,352
1,36,86,160
1,36,101,160
1,36,104,352
1,36,98,352
1,36,98,352
1,36,98,352
1,36,98,352
1,36,98,352
1,36,98,352
1,36,98,352
1,36,98,352
1,36,101,352
1,36,92,352
1,36,98,352
1,36,98,352
1,36,101,352
1,36,98,352
1,36,89,160
1,35,101,160
1,35,101,352
1,35,101,352
1,35,104,352
1,35,101,352
1,35,104,352
1,35,101,352
1,35,101,352
1,35,104,352
1,35,101,352
1,35,101,352
1,35,104,352
1,35,101,352
1,35,104,352
1,35,101,352
1,35,101,352
1,35,101,352
1,35,101,352
1,35,101,352
1,35,101,352
1,35,101,352
1,35,104,352
1,35,101,352
1,35,104,352
1,35,101,352
1,35,101,352
1,35,101,352
1,35,104,352
1,35,101,352
1,35,101,352
1,35,101,352
1,35,101,352
1,35,101,352
1,35,101,352
1,35,101,352
1,35,101,352
1,35,101,352
1,35,101,352
1,35,101,352
1,35,101,352
1,35,101,352
1,35,101,352
1,35,98,352
1,35,101,352
1,35,101,352
1,35,104,352
1,35,101,352
1,35,104,352
1,36,101,352
1,36,92,544
1,36,98,160
1,36,98,736
1,36,89,544
1,36,95,160
1,36,101,736
1,36,92,544
1,36,89,160
1,36,101,736
1,36,86,544
1,36,98,160
1,36,98,736
1,36,89,544
1,36,98,160
1,36,98,736
1,36,92,544
1,36,89,160
1,36,98,736
1,36,92,544
1,36,89,160
1,36,98,736
1,36,95,352
1,36,98,352
1,36,101,352
1,36,98,352
1,36,95,544
1,36,98,160
1,36,101,736
1,36,95,544
1,36,98,160
1,36,101,736
1,36,95,544
1,36,101,160
1,36,101,736
1,36,95,544
1,36,101,160
1,36,101,736
1,35,101,1504
1,35,101,352
1,35,101,352
1,35,104,352
1,35,98,352
1,35,101,352
1,35,101,352
1,35,104,352
1,35,101,352
1,35,101,352
1,35,101,352
1,35,101,352
1,35,101,352
1,35,104,352
1,35,101,352
1,35,101,352
1,35,101,352
1,35,101,352
1,35,101,352
1,35,104,352
1,35,101,352
1,35,101,352
1,35,101,352
1,35,101,352
1,35,101,352
1,35,101,352
1,35,101,352
1,35,101,352
1,35,101,352
1,35,101,352
1,35,101,352
1,35,101,352
1,35,101,352
1,35,98,352
1,35,101,352
1,35,98,352
1,35,98,352
1,35,98,352
1,35,98,352
1,35,98,352
1,35,101,352
1,35,95,352
1,35,98,352
1,35,98,352
1,35,104,352
1,35,104,352
1,35,104,352
1,35,101,352
1,35,86,160
1,35,101,160
1,35,101,352
1,35,101,352
1,35,104,352
1,35,98,352
1,35,101,352
1,35,101,352
1,35,104,352
1,35,101,352
1,35,101,352
1,35,101,352
1,35,101,352
1,35,101,352
1,35,104,352
1,35,101,352
1,35,101,352
1,35,101,352
1,35,101,352
1,35,101,352
1,35,104,352
1,35,101,352
1,35,101,352
1,35,101,352
1,35,101,352
1,35,101,352
1,35,101,352
1,35,101,352
1,35,101,352
1,35,101,352
1,35,101,352
1,35,101,352
1,35,101,352
1,35,101,352
1,35,98,352
1,35,101,352
1,35,98,352
1,35,98,352
1,35,98,352
1,35,98,352
1,35,98,352
1,35,101,352
1,35,95,352
1,35,98,352
1,35,98,352
1,35,104,352
1,35,104,352
1,35,104,352
1,35,101,352
1,35,86,160
1,36,101,160
1,36,89,160
1,36,98,352
1,36,95,160
1,36,101,160
1,36,101,352
1,36,98,160
1,36,95,160
1,36,98,352
1,36,101,160
1,36,89,160
1,36,101,352
1,36,89,160
1,36,98,160
1,36,98,352
1,36,98,160
1,36,89,160
1,36,95,352
1,36,101,160
1,36,104,352
1,36,107,352
1,36,107,352
1,36,107,352
1,36,101,1504
1,36,95,544
1,36,95,160
1,36,92,544
1,36,98,160
1,36,101,544
1,36,89,160
1,36,95,544
1,36,98,160
1,36,95,544
1,36,98,160
1,36,95,544
1,36,95,160
1,36,95,544
1,36,95,160
1,36,92,544
1,36,89,160
1,36,92,544
1,36,92,160
1,36,92,544
1,36,95,160
1,36,98,544
1,36,95,160
1,36,95,544
1,36,92,160
1,36,95,544
1,36,92,160
1,36,98,544
1,36,92,160
1,36,95,544
1,36,101,160
1,36,95,544
1,36,107,160
1,36,104,544
1,36,104,160
1,36,98,544
1,36,101,160
1,36,101,544
1,36,104,160
1,36,101,544
1,36,107,160
1,36,104,544
1,36,107,160
1,36,101,544
1,36,104,160
1,36,104,544
1,36,104,160
1,36,104,544
1,36,104,160
1,36,101,544
1,36,104,160
1,36,101,544
1,36,104,160
1,36,101,544
1,36,107,160
1,36,101,544
1,36,104,160
1,36,104,544
1,36,101,160
1,36,101,544
1,36,107,160
1,36,104,352
1,36,104,352
1,36,107,352
1,36,104,352
1,36,101,544
1,36,104,160
1,36,101,544
1,36,104,160
1,36,101,544
1,36,107,160
1,36,101,544
1,36,104,160
1,36,104,544
1,36,101,160
1,36,101,544
1,36,107,160
1,36,104,352
1,36,104,352
1,36,107,352
1,36,101,352
1,36,101,352
1,36,101,352
1,36,104,352
1,36,104,352
1,36,98,352
1,36,104,352
1,36,92,160
1,36,104,352
1,36,101,160
2,38,104,3452
2,38,104,738
2,38,104,734
2,38,104,738
2,38,104,734
2,38,104,738
2,38,50,354
2,38,53,64
2,38,60,64
2,38,67,156
2,38,74,68
2,38,74,64
2,38,80,160
2,38,84,64
2,38,90,64
2,38,94,158
2,38,101,66
2,38,104,64
2,38,104,64
2,38,95,64
2,38,98,1884
2,38,104,738
2,38,101,734
2,38,104,738
2,38,104,734
2,38,104,738
2,38,104,734
2,38,104,738
2,38,101,734
2,38,104,738
2,38,104,734
2,38,101,738
2,38,98,734
2,38,101,738
2,38,104,734
2,38,101,1504
2,38,101,738
2,38,104,734
2,38,104,738
2,38,104,734
2,38,101,738
2,38,104,734
2,38,104,738
2,38,104,734
2,38,104,738
2,38,104,734
2,38,101,738
2,38,101,734
2,38,95,548
2,38,92,158
2,38,89,162
2,38,104,540
2,38,104,738
2,38,98,354
2,38,83,160
2,38,98,156
2,38,101,164
2,38,107,160
2,38,98,160
2,38,104,158
2,38,101,162
2,38,92,540
2,38,98,738
2,38,98,734
2,38,95,738
2,38,98,734
2,38,95,738
2,38,92,734
2,38,89,738
2,38,86,734
2,38,98,738
2,38,98,734
2,38,89,738
2,38,89,734
2,38,86,738
2,38,92,734
2,38,95,738
2,38,86,734
2,38,92,738
2,38,89,734
2,38,92,738
2,38,92,734
2,38,92,738
2,38,98,734
2,38,95,738
2,38,95,734
2,38,95,738
2,38,95,734
2,38,95,738
2,38,92,734
2,38,89,738
2,38,101,734
2,38,95,738
2,38,98,162
2,38,104,540
2,38,98,738
2,38,89,162
2,38,104,540
2,38,95,738
2,38,98,162
2,38,95,540
2,38,101,548
2,38,86,158
2,38,86,162
2,38,101,540
2,38,95,738
2,38,98,162
2,38,104,540
2,38,98,738
2,38,89,162
2,38,104,540
2,38,95,738
2,38,98,162
2,38,95,540
2,38,101,548
2,38,86,158
2,38,86,162
2,38,89,540
2,38,98,738
2,38,98,734
2,38,86,738
2,38,92,734
2,38,92,738
2,38,86,734
2,38,95,738
2,38,92,734
2,38,89,738
2,38,89,734
2,38,92,738
2,38,86,734
2,38,92,738
2,38,95,734
2,38,95,738
2,38,89,734
2,38,92,738
2,38,89,734
2,38,92,738
2,38,92,734
2,38,89,738
2,38,89,734
2,38,86,548
2,38,62,158
2,38,62,162
2,38,95,540
2,38,86,738
2,38,74,162
2,38,89,540
2,38,86,738
2,38,77,162
2,38,89,540
2,38,86,738
2,38,77,162
2,38,86,540
2,38,86,738
2,38,89,162
2,38,86,540
2,38,86,738
2,38,83,162
2,38,95,540
2,38,89,738
2,38,86,162
2,38,89,540
2,38,92,738
2,38,86,162
2,38,98,540
2,38,86,548
2,38,86,158
2,38,89,162
2,38,86,540
2,38,86,738
2,38,86,162
2,38,86,540
2,38,92,738
2,38,77,162
2,38,92,540
2,38,89,738
2,38,89,162
2,38,95,540
2,38,92,548
2,38,89,158
2,38,92,162
2,38,86,540
2,38,89,738
2,38,89,734
2,38,89,738
2,38,92,734
2,38,89,738
2,38,89,734
2,38,89,738
2,38,86,734
2,38,92,738
2,38,89,734
2,38,89,738
2,38,86,734
2,38,89,738
2,38,92,734
2,38,98,738
2,38,86,162
2,38,89,540
2,38,98,738
2,38,89,734
2,38,89,738
2,38,92,734
2,38,86,738
2,38,71,546
2,38,86,156
2,38,89,164
2,38,92,160
2,38,86,160
2,38,89,158
2,38,86,162
2,38,95,160
2,38,83,1118
2,38,86,162
2,38,98,540
2,38,101,738
2,38,98,734
2,38,104,738
2,38,98,734
2,38,101,738
2,38,101,734
2,38,101,738
2,38,89,162
2,38,101,540
2,38,101,738
2,38,101,734
2,38,101,738
2,38,92,734
2,38,101,738
2,38,104,734
2,38,101,738
2,38,92,162
2,38,98,540
2,38,95,738
2,38,101,734
2,38,98,738
2,38,98,734
2,38,98,738
2,38,98,734
2,38,98,548
2,38,98,158
2,38,86,162
2,38,98,540
2,38,101,738
2,38,98,734
2,38,104,738
2,38,98,734
2,38,101,738
2,38,101,734
2,38,101,738
2,38,89,162
2,38,101,540
2,38,101,738
2,38,101,734
2,38,101,738
2,38,92,734
2,38,101,738
2,38,104,734
2,38,101,738
2,38,92,162
2,38,98,540
2,38,95,738
2,38,101,734
2,38,98,738
2,38,98,734
2,38,98,738
2,38,98,734
2,38,98,548
2,38,98,158
2,38,86,162
2,38,104,540
2,38,104,738
2,38,104,734
2,38,104,738
2,38,104,734
2,38,104,738
2,38,50,354
2,38,53,64
2,38,60,64
2,38,67,156
2,38,74,68
2,38,74,64
2,38,80,160
2,38,84,64
2,38,90,64
2,38,94,158
2,38,101,66
2,38,104,64
2,38,104,64
2,38,95,64
2,38,98,1884
2,38,104,738
2,38,101,734
2,38,104,738
2,38,104,734
2,38,104,738
2,38,104,734
2,38,104,738
2,38,101,734
2,38,104,738
2,38,104,734
2,38,101,738
2,38,98,734
2,38,101,738
2,38,104,734
2,38,101,1504
2,38,101,738
2,38,104,734
2,38,104,738
2,38,104,734
2,38,101,738
2,38,104,734
2,38,104,738
2,38,104,734
2,38,104,738
2,38,104,734
2,38,101,738
2,38,101,734
2,38,95,548
2,38,92,158
2,38,89,162
2,38,104,540
2,38,104,738
2,38,104,734
2,38,104,738
2,38,104,734
2,38,101,738
2,38,101,734
2,38,95,548
2,38,92,158
2,38,89,162
2,38,104,540
2,38,104,738
2,38,98,354
2,38,83,160
2,38,98,156
2,38,101,164
2,38,107,160
2,38,98,160
2,38,104,158
2,38,101,162
2,38,104,540
2,38,101,738
2,38,98,162
2,38,101,160
3,42,101,3072
3,42,86,160
3,42,89,156
3,42,86,164
3,42,101,160
3,42,92,160
3,42,104,158
3,42,89,162
3,42,104,160
3,42,86,160
3,42,101,156
3,42,86,164
3,42,101,160
3,42,77,160
3,42,92,158
3,42,86,162
3,42,101,160
3,42,86,160
3,42,98,156
3,42,86,164
3,42,101,160
3,42,95,160
3,42,101,158
3,42,92,162
3,42,104,160
3,42,92,160
3,42,104,156
3,42,77,164
3,42,98,160
3,42,98,160
3,42,101,158
3,42,101,162
3,42,101,160
3,42,83,1504
3,42,74,160
3,44,86,156
3,42,68,164
3,42,86,160
3,42,71,160
3,44,86,158
3,42,80,162
3,42,86,160
3,42,71,160
3,44,92,156
3,42,83,164
3,42,86,160
3,42,77,160
3,44,101,158
3,42,74,162
3,42,71,160
3,42,77,160
3,44,98,156
3,42,80,164
3,42,89,160
3,42,74,160
3,44,101,158
3,42,89,162
3,42,92,160
3,42,71,160
3,44,98,156
3,42,77,164
3,42,92,160
3,42,77,160
3,44,98,158
3,42,86,162
3,42,89,160
3,42,83,160
3,44,98,156
3,42,86,164
3,42,86,160
3,42,83,160
3,44,101,158
3,42,83,162
3,42,86,160
3,42,74,160
3,44,101,156
3,42,86,164
3,42,89,160
3,42,83,160
3,44,92,158
3,42,86,162
3,42,89,160
3,42,68,160
3,44,98,156
3,42,83,164
3,42,92,160
3,42,77,160
3,44,92,158
3,42,77,162
3,42,92,160
3,42,86,160
3,44,92,156
3,42,86,164
3,42,92,160
3,42,77,160
3,44,95,158
3,42,95,162
3,42,86,160
3,42,74,160
3,44,89,156
3,42,86,164
3,42,89,160
3,42,71,160
3,44,101,158
3,42,83,162
3,42,80,160
3,42,80,160
3,44,95,156
3,42,86,164
3,42,80,160
3,42,86,160
3,44,98,158
3,42,86,162
3,42,83,160
3,42,80,160
3,44,101,156
3,42,89,164
3,42,86,160
3,42,71,160
3,44,98,158
3,42,83,162
3,42,80,160
3,42,86,160
3,44,98,156
3,42,86,164
3,42,86,160
3,42,77,160
3,44,98,158
3,42,80,162
3,42,89,160
3,42,83,160
3,44,101,156
3,42,86,164
3,42,89,160
3,42,86,160
3,44,95,158
3,42,83,162
3,42,89,160
3,42,77,160
