track,note,velocity,time
1,36,90,12838
1,36,89,196
1,36,89,196
1,36,89,182
1,36,89,196
1,36,88,196
1,36,88,196
1,36,88,196
1,36,88,196
1,36,87,196
1,36,87,196
1,36,87,196
1,36,90,194
1,36,89,196
1,36,89,196
1,36,89,182
1,36,89,196
1,36,88,196
1,36,88,196
1,36,88,196
1,36,88,196
1,36,87,196
1,36,87,196
1,36,87,196
1,36,90,194
1,36,89,196
1,36,89,196
1,36,89,182
1,36,89,196
1,36,88,196
1,36,88,196
1,36,88,196
1,36,88,196
1,36,87,196
1,36,87,196
1,36,87,196
1,36,90,194
1,36,89,196
1,36,89,196
1,36,89,182
1,36,89,196
1,36,88,196
1,36,88,196
1,36,88,196
1,36,88,196
1,36,87,196
1,36,87,196
1,36,87,196
1,36,90,194
1,36,89,196
1,36,89,196
1,36,89,182
1,36,89,196
1,36,88,196
1,36,88,196
1,36,88,196
1,36,88,196
1,36,87,196
1,36,87,196
1,36,87,196
1,36,90,194
1,36,89,196
1,36,89,196
1,36,89,182
1,36,73,61444
1,36,82,38
1,48,98,0
1,36,72,52
1,36,82,30
1,48,97,0
1,36,72,52
1,36,82,20
1,48,96,8
1,36,71,52
1,36,82,24
1,48,96,4
1,36,71,52
1,36,82,28
1,48,95,4
1,36,73,52
1,36,82,38
1,48,98,0
1,36,72,52
1,36,82,30
1,48,97,0
1,36,72,52
1,36,82,20
1,48,96,8
1,36,71,52
1,36,82,24
1,48,96,4
1,36,71,52
1,36,82,28
1,48,95,4
1,36,73,52
1,36,82,38
1,48,98,0
1,36,72,52
1,36,82,30
1,48,97,0
1,36,72,52
1,36,82,20
1,48,96,8
1,36,71,52
1,36,82,24
1,48,96,4
1,36,71,52
1,36,82,28
1,48,95,4
1,36,73,52
1,36,82,38
1,48,98,0
1,36,72,52
1,36,82,30
1,48,97,0
1,36,72,52
1,36,82,20
1,48,96,8
1,36,71,52
1,36,82,24
1,48,96,4
1,36,71,52
1,36,82,28
1,48,95,4
1,36,73,52
1,36,82,38
1,48,98,0
1,36,72,52
1,36,82,30
1,48,97,0
1,36,72,52
1,36,82,20
1,48,96,8
1,36,71,52
1,36,82,24
1,48,96,4
1,36,71,52
1,36,82,28
1,48,95,96
1,36,73,52
1,36,82,38
1,48,98,0
1,36,72,52
1,36,82,30
1,48,97,0
1,36,72,52
1,36,82,20
1,48,96,8
1,36,71,28
1,46,100,0
1,36,82,24
1,48,96,4
1,36,71,28
1,36,82,28
1,48,95,96
1,36,73,52
1,36,82,38
1,48,98,0
1,36,110,52
1,48,97,4
1,36,71,52
1,36,82,28
1,48,95,4
1,36,73,52
1,36,82,38
1,48,98,0
1,36,72,52
1,36,82,30
1,48,97,0
1,36,72,52
1,36,82,20
1,48,96,8
1,36,71,28
1,46,100,0
1,36,82,24
1,48,96,4
1,36,71,28
1,36,82,28
1,48,95,4
1,36,73,52
1,36,82,38
1,48,98,0
1,36,73,52
1,36,82,38
1,48,97,0
1,36,71,52
1,36,82,28
1,48,95,4
1,36,73,52
1,36,82,38
1,48,98,0
1,36,72,52
1,36,82,30
1,48,97,0
1,36,72,52
1,36,82,20
1,48,96,8
1,36,71,28
1,46,100,0
1,36,82,24
1,48,96,4
1,36,71,28
1,36,82,28
1,48,95,4
1,36,73,52
1,36,82,38
1,48,98,0
1,36,73,52
1,36,82,38
1,48,97,0
1,36,71,52
1,36,82,28
1,48,95,4
1,36,73,52
1,36,82,38
1,48,98,0
1,36,72,52
1,36,82,30
1,48,97,0
1,36,72,52
1,36,82,20
1,48,96,8
1,36,71,28
1,46,100,0
1,36,82,24
1,48,96,4
1,36,71,28
1,36,82,28
1,48,95,4
1,36,73,52
1,36,82,38
1,48,98,0
1,36,73,52
1,36,82,38
1,48,97,0
1,36,71,52
1,36,82,28
1,48,95,4
1,36,73,52
1,36,82,38
1,48,98,0
1,36,72,52
1,36,82,30
1,48,97,0
1,36,72,52
1,36,82,20
1,48,96,8
1,36,71,28
1,46,100,0
1,36,82,24
1,48,96,4
1,36,71,28
1,36,82,28
1,48,95,4
1,36,73,52
1,36,82,38
1,48,98,0
1,36,73,52
1,36,82,38
1,48,97,0
1,36,61,52
1,55,100,0
1,36,72,28
1,48,85,4
1,36,63,52
1,36,72,38
1,48,88,0
1,36,62,52
1,36,72,30
1,48,87,0
1,36,62,52
1,51,94,0
1,36,72,20
1,48,86,4
1,36,61,28
1,46,96,0
1,36,72,24
1,48,86,4
1,36,61,28
1,36,72,28
1,48,85,4
1,36,63,52
1,36,72,38
1,48,88,0
1,36,109,52
1,48,87,4
1,36,61,52
1,55,104,0
1,36,72,28
1,48,85,4
1,36,63,52
1,36,72,38
1,48,88,0
1,36,62,52
1,36,72,30
1,48,87,0
1,36,62,52
1,51,94,0
1,36,72,20
1,48,86,4
1,36,61,28
1,46,96,0
1,36,72,24
1,48,86,4
1,36,61,28
1,36,72,28
1,48,85,4
1,36,63,52
1,36,72,38
1,48,88,0
1,36,109,52
1,48,87,4
1,36,61,52
1,55,104,0
1,36,72,28
1,48,85,4
1,36,63,52
1,36,72,38
1,48,88,0
1,36,62,52
1,36,72,30
1,48,87,0
1,36,62,52
1,51,94,0
1,36,72,20
1,48,86,4
1,36,61,28
1,46,96,0
1,36,72,24
1,48,86,4
1,36,61,28
1,36,72,28
1,48,85,4
1,36,63,52
1,36,72,38
1,48,88,0
1,36,109,52
1,48,87,4
1,36,61,52
1,55,104,0
1,36,72,28
1,48,85,4
1,36,63,52
1,36,72,38
1,48,88,0
1,36,62,52
1,36,72,30
1,48,87,0
1,36,62,52
1,51,94,0
1,36,72,20
1,48,86,4
1,36,61,28
1,46,96,0
1,36,72,24
1,48,86,4
1,36,61,28
1,36,72,28
1,48,85,4
1,36,63,52
1,36,72,38
1,48,88,0
1,36,109,52
1,48,87,4
2,24,82,49494
2,36,95,4
2,24,80,192
2,36,95,4
2,24,80,4
2,36,95,4
2,24,80,4
2,36,95,4
2,31,80,4
2,43,95,4
2,31,80,4
2,43,95,4
2,31,81,4
2,43,95,4
2,31,80,4
2,43,95,4
2,33,81,4
2,45,95,4
2,33,80,4
2,45,95,4
2,33,80,192
2,45,95,4
2,33,80,4
2,45,95,4
2,29,80,4
2,41,95,4
2,29,80,4
2,41,96,4
2,29,81,192
2,41,95,4
2,29,81,2
2,41,97,4
2,31,80,4
2,43,95,4
2,31,80,4
2,43,95,4
2,31,80,4
2,43,95,4
2,31,80,4
2,43,95,4
2,38,80,26
2,50,95,4
2,38,80,2
2,50,95,4
2,38,80,192
2,50,99,6
2,38,80,4
2,50,95,192
2,29,80,4
2,41,95,4
2,29,80,4
2,41,95,4
2,29,80,4
2,41,95,4
2,29,80,4
2,41,95,4
2,33,80,4
2,45,95,4
2,33,80,192
2,45,95,4
2,31,80,4
2,43,95,4
2,31,80,4
2,43,98,4
2,24,82,4
2,36,95,4
2,24,80,192
2,36,95,4
2,24,80,4
2,36,95,4
2,24,80,4
2,36,95,4
2,31,80,4
2,43,95,4
2,31,80,4
2,43,95,4
2,31,81,4
2,43,95,4
2,31,80,4
2,43,95,4
2,33,81,4
2,45,95,4
2,33,80,4
2,45,95,4
2,33,80,192
2,45,95,4
2,33,80,4
2,45,95,4
2,29,80,4
2,41,95,4
2,29,80,4
2,41,96,4
2,29,81,192
2,41,95,4
2,29,81,2
2,41,97,4
2,31,80,4
2,43,95,4
2,31,80,4
2,43,95,4
2,31,80,4
2,43,95,4
2,31,80,4
2,43,95,4
2,38,80,26
2,50,95,4
2,38,80,2
2,50,95,4
2,38,80,192
2,50,99,6
2,38,80,4
2,50,95,192
2,29,80,4
2,41,95,4
2,29,80,4
2,41,95,4
2,29,80,4
2,41,95,4
2,29,80,4
2,41,95,4
2,33,80,4
2,45,95,4
2,33,80,192
2,45,95,4
2,31,80,4
2,43,95,4
2,31,80,4
2,43,98,4
2,24,82,4
2,36,95,4
2,24,80,192
2,36,95,4
2,24,80,4
2,36,95,4
2,24,80,4
2,36,95,4
2,31,80,4
2,43,95,4
2,31,80,4
2,43,95,4
2,31,81,4
2,43,95,4
2,31,80,4
2,43,95,4
2,33,81,4
2,45,95,4
2,33,80,4
2,45,95,4
2,33,80,192
2,45,95,4
2,33,80,4
2,45,95,4
2,29,80,4
2,41,95,4
2,29,80,4
2,41,96,4
2,29,81,192
2,41,95,4
2,29,81,2
2,41,97,4
2,31,80,4
2,43,95,4
2,31,80,4
2,43,95,4
2,31,80,4
2,43,95,4
2,31,80,4
2,43,95,4
2,38,80,26
2,50,95,4
2,38,80,2
2,50,95,4
2,38,80,192
2,50,99,6
2,38,80,4
2,50,95,192
2,29,80,4
2,41,95,4
2,29,80,4
2,41,95,4
2,29,80,4
2,41,95,4
2,29,80,4
2,41,95,4
2,33,80,4
2,45,95,4
2,33,80,192
2,45,95,4
2,31,80,4
2,43,95,4
2,31,80,4
2,43,98,4
2,24,82,4
2,36,95,4
2,24,80,192
2,36,95,4
2,24,80,4
2,36,95,4
2,24,80,4
2,36,95,4
2,31,80,4
2,43,95,4
2,31,80,4
2,43,95,4
2,31,81,4
2,43,95,4
2,31,80,4
2,43,95,4
2,33,81,4
2,45,95,4
2,33,80,4
2,45,95,4
2,33,80,192
2,45,95,4
2,33,80,4
2,45,95,4
2,29,80,4
2,41,95,4
2,29,80,4
2,41,96,4
2,29,81,192
2,41,95,4
2,29,81,2
2,41,97,4
2,31,80,4
2,43,95,4
2,31,80,4
2,43,95,4
2,31,80,4
2,43,95,4
2,31,80,4
2,43,95,4
2,38,80,26
2,50,95,4
2,38,80,2
2,50,95,4
2,38,80,192
2,50,99,6
2,38,80,4
2,50,95,192
2,29,80,4
2,41,95,4
2,29,80,4
2,41,95,4
2,29,80,4
2,41,95,4
2,29,80,4
2,41,95,4
2,24,78,1540
2,36,93,52
2,24,78,52
2,36,93,52
2,24,78,52
2,36,93,52
2,24,78,52
2,36,93,52
2,24,78,52
2,36,93,52
2,24,78,52
2,36,93,52
2,24,78,52
2,36,93,52
2,24,78,52
2,36,93,52
2,24,78,52
2,36,93,52
2,24,78,52
2,36,93,52
2,24,78,52
2,36,93,52
2,24,78,52
2,36,93,52
2,24,78,52
2,36,93,52
2,24,78,52
2,36,93,52
2,24,78,52
2,36,93,52
2,24,78,52
2,36,93,52
2,24,78,52
2,36,93,52
2,24,78,52
2,36,93,52
2,24,78,52
2,36,93,52
2,24,78,52
2,36,93,52
2,24,78,52
2,36,93,52
2,24,78,52
2,36,93,52
2,24,78,52
2,36,93,52
2,24,78,52
2,36,93,52
2,24,78,52
2,36,93,52
2,24,78,52
2,36,93,52
2,24,78,52
2,36,93,52
2,24,78,52
2,36,93,52
2,24,78,1588
2,36,93,52
2,24,78,52
2,36,93,52
2,24,78,52
2,36,93,52
2,24,78,52
2,36,93,52
2,24,78,52
2,36,93,52
2,24,78,52
2,36,93,52
2,24,78,52
2,36,93,52
2,24,78,52
2,36,93,52
2,24,78,52
2,36,93,52
2,24,78,52
2,36,93,52
2,24,78,52
2,36,93,52
2,24,78,52
2,36,93,52
2,24,78,52
2,36,93,52
2,24,78,52
2,36,93,52
2,24,78,52
2,36,93,52
2,24,78,52
2,36,93,52
2,24,78,52
2,36,93,52
2,24,78,52
2,36,93,52
2,24,78,52
2,36,93,52
2,24,78,52
2,36,93,52
2,24,78,52
2,36,93,52
2,24,78,52
2,36,93,52
2,24,78,52
2,36,93,52
2,24,78,52
2,36,93,52
2,24,78,52
2,36,93,52
2,24,78,52
2,36,93,52
2,24,78,52
2,36,93,52
2,24,78,52
2,36,93,52
2,24,78,52
2,36,93,52
2,24,78,52
2,36,93,52
2,24,78,52
2,36,93,52
2,24,78,52
2,36,93,52
2,24,78,52
2,36,93,52
2,24,78,52
2,36,93,52
2,24,78,52
2,36,93,52
2,24,78,52
2,36,93,52
2,24,78,52
2,36,93,52
2,24,78,52
2,36,93,52
2,24,78,52
2,36,93,52
2,24,78,52
2,36,93,52
2,24,78,52
2,36,93,52
2,24,78,52
2,36,93,52
2,24,78,52
2,36,93,52
2,24,78,52
2,36,93,52
2,24,78,52
2,36,93,52
2,24,78,52
2,36,93,52
2,24,78,52
2,36,93,52
2,24,78,52
2,36,93,52
2,24,82,30772
2,36,95,4
2,24,80,192
2,36,95,4
2,24,80,4
2,36,95,4
2,24,80,4
2,36,95,4
2,31,80,4
2,43,95,4
2,31,80,4
2,43,95,4
2,31,81,4
2,43,95,4
2,31,80,4
2,43,95,4
2,33,81,4
2,45,95,4
2,33,80,4
2,45,95,4
2,33,80,192
2,45,95,4
2,33,80,4
2,45,95,4
2,29,80,4
2,41,95,4
2,29,80,4
2,41,96,4
2,29,81,192
2,41,95,4
2,29,81,2
2,41,97,4
2,31,80,4
2,43,95,4
2,31,80,4
2,43,95,4
2,31,80,4
2,43,95,4
2,31,80,4
2,43,95,4
2,38,80,26
2,50,95,4
2,38,80,2
2,50,95,4
2,38,80,192
2,50,99,6
2,38,80,4
2,50,95,192
2,29,80,4
2,41,95,4
2,29,80,4
2,41,95,4
2,29,80,4
2,41,95,4
2,29,80,4
2,41,95,4
2,33,80,4
2,45,95,4
2,33,80,192
2,45,95,4
2,31,80,4
2,43,95,4
2,31,80,4
2,43,98,4
2,24,82,4
2,36,95,4
2,24,80,192
2,36,95,4
2,24,80,4
2,36,95,4
2,24,80,4
2,36,95,4
2,31,80,4
2,43,95,4
2,31,80,4
2,43,95,4
2,31,81,4
2,43,95,4
2,31,80,4
2,43,95,4
2,33,81,4
2,45,95,4
2,33,80,4
2,45,95,4
2,33,80,192
2,45,95,4
2,33,80,4
2,45,95,4
2,29,80,4
2,41,95,4
2,29,80,4
2,41,96,4
2,29,81,192
2,41,95,4
2,29,81,2
2,41,97,4
2,31,80,4
2,43,95,4
2,31,80,4
2,43,95,4
2,31,80,4
2,43,95,4
2,31,80,4
2,43,95,4
2,38,80,26
2,50,95,4
2,38,80,2
2,50,95,4
2,38,80,192
2,50,99,6
2,38,80,4
2,50,95,192
2,29,80,4
2,41,95,4
2,29,80,4
2,41,95,4
2,29,80,4
2,41,95,4
2,29,80,4
2,41,95,4
2,33,80,4
2,45,95,4
2,33,80,192
2,45,95,4
2,31,80,4
2,43,95,4
2,31,80,4
2,43,98,4
2,24,82,4
2,36,95,4
2,24,80,192
2,36,95,4
2,24,80,4
2,36,95,4
2,24,80,4
2,36,95,4
2,31,80,4
2,43,95,4
2,31,80,4
2,43,95,4
2,31,81,4
2,43,95,4
2,31,80,4
2,43,95,4
2,33,81,4
2,45,95,4
2,33,80,4
2,45,95,4
2,33,80,192
2,45,95,4
2,33,80,4
2,45,95,4
2,29,80,4
2,41,95,4
2,29,80,4
2,41,96,4
2,29,81,192
2,41,95,4
2,29,81,2
2,41,97,4
2,31,80,4
2,43,95,4
2,31,80,4
2,43,95,4
2,31,80,4
2,43,95,4
2,31,80,4
2,43,95,4
2,38,80,26
2,50,95,4
2,38,80,2
2,50,95,4
2,38,80,192
2,50,99,6
2,38,80,4
2,50,95,192
2,29,80,4
2,41,95,4
2,29,80,4
2,41,95,4
2,29,80,4
2,41,95,4
2,29,80,4
2,41,95,4
2,33,80,4
2,45,95,4
2,33,80,192
2,45,95,4
2,31,80,4
2,43,95,4
2,31,80,4
2,43,98,4
2,24,82,4
2,36,95,4
2,24,80,192
2,36,95,4
2,24,80,4
2,36,95,4
2,24,80,4
2,36,95,4
2,31,80,4
2,43,95,4
2,31,80,4
2,43,95,4
2,31,81,4
2,43,95,4
2,31,80,4
2,43,95,4
2,33,81,4
2,45,95,4
2,33,80,4
2,45,95,4
2,33,80,192
2,45,95,4
2,33,80,4
2,45,95,4
2,29,80,4
2,41,95,4
2,29,80,4
2,41,96,4
2,29,81,192
2,41,95,4
2,29,81,2
2,41,97,4
2,31,80,4
2,43,95,4
2,31,80,4
2,43,95,4
2,31,80,4
2,43,95,4
2,31,80,4
2,43,95,4
2,38,80,26
2,50,95,4
2,38,80,2
2,50,95,4
