track,note,velocity,time
1,50,100,3840
1,62,100,120
1,62,0,48
1,74,100,12
1,74,0,48
1,69,100,12
1,69,0,48
1,62,100,12
1,62,0,48
1,50,0,0
1,52,100,12
1,62,100,120
1,62,0,48
1,74,100,12
1,74,0,48
1,69,100,12
1,69,0,48
1,62,100,12
1,62,0,48
1,52,0,0
1,55,100,12
1,62,100,120
1,62,0,48
1,74,100,12
1,74,0,48
1,69,100,12
1,69,0,48
1,62,100,12
1,62,0,48
1,55,0,0
1,50,100,12
1,62,100,120
1,62,0,48
1,74,100,12
1,74,0,48
1,69,100,12
1,69,0,48
1,62,100,12
1,62,0,48
1,50,0,0
1,50,100,12
1,62,100,120
1,62,0,48
1,74,100,12
1,74,0,48
1,69,100,12
1,69,0,48
1,62,100,12
1,62,0,48
1,50,0,0
1,57,100,12
1,62,100,120
1,62,0,48
1,74,100,12
1,74,0,48
1,69,100,12
1,69,0,48
1,62,100,12
1,62,0,48
1,57,0,0
1,55,100,12
1,62,100,120
1,62,0,48
1,74,100,12
1,74,0,48
1,69,100,12
1,69,0,48
1,62,100,12
1,62,0,48
1,55,0,0
1,62,100,12
1,62,100,120
1,62,0,48
1,74,100,12
1,74,0,48
1,69,100,12
1,69,0,48
1,62,100,12
1,62,0,48
1,62,0,0
1,50,100,12
1,62,100,120
1,62,0,48
1,74,100,12
1,74,0,48
1,69,100,12
1,69,0,48
1,62,100,12
1,62,0,48
1,50,0,0
1,52,100,12
1,62,100,120
1,62,0,48
1,74,100,12
1,74,0,48
1,69,100,12
1,69,0,48
1,62,100,12
1,62,0,48
1,52,0,0
1,55,100,12
1,62,100,120
1,62,0,48
1,74,100,12
1,74,0,48
1,69,100,12
1,69,0,48
1,62,100,12
1,62,0,48
1,55,0,0
1,50,100,12
1,62,100,120
1,62,0,48
1,74,100,12
1,74,0,48
1,69,100,12
1,69,0,48
1,62,100,12
1,62,0,48
1,50,0,0
1,50,100,12
1,62,100,120
1,62,0,48
1,74,100,12
1,74,0,48
1,69,100,12
1,69,0,48
1,62,100,12
1,62,0,48
1,50,0,0
1,57,100,12
1,62,100,120
1,62,0,48
1,74,100,12
1,74,0,48
1,69,100,12
1,69,0,48
1,62,100,12
1,62,0,48
1,57,0,0
1,55,100,12
1,62,100,120
1,62,0,48
1,74,100,12
1,74,0,48
1,69,100,12
1,69,0,48
1,62,100,12
1,62,0,48
1,55,0,0
1,62,100,12
1,62,100,120
1,62,0,48
1,74,100,12
1,74,0,48
1,69,100,12
1,69,0,48
1,62,100,12
1,62,0,48
1,62,0,0
1,50,100,12
1,62,100,120
1,62,0,48
1,74,100,12
1,74,0,48
1,69,100,12
1,69,0,48
1,62,100,12
1,62,0,48
1,50,0,0
1,52,100,12
1,62,100,120
1,62,0,48
1,74,100,12
1,74,0,48
1,69,100,12
1,69,0,48
1,62,100,12
1,62,0,48
1,52,0,0
1,55,100,12
1,62,100,120
1,62,0,48
1,74,100,12
1,74,0,48
1,69,100,12
1,69,0,48
1,62,100,12
1,62,0,48
1,55,0,0
1,50,100,12
1,62,100,120
1,62,0,48
1,74,100,12
1,74,0,48
1,69,100,12
1,69,0,48
1,62,100,12
1,62,0,48
1,50,0,0
1,50,100,12
1,62,100,120
1,62,0,48
1,74,100,12
1,74,0,48
1,69,100,12
1,69,0,48
1,62,100,12
1,62,0,48
1,50,0,0
1,57,100,12
1,62,100,120
1,62,0,48
1,74,100,12
1,74,0,48
1,69,100,12
1,69,0,48
1,62,100,12
1,62,0,48
1,57,0,0
1,55,100,12
1,62,100,120
1,62,0,48
1,74,100,12
1,74,0,48
1,69,100,12
1,69,0,48
1,62,100,12
1,62,0,48
1,55,0,0
1,62,100,12
1,62,100,120
1,62,0,48
1,74,100,12
1,74,0,48
1,69,100,12
1,69,0,48
1,62,100,12
1,62,0,48
1,62,0,0
1,50,100,12
1,62,100,120
1,62,0,48
1,74,100,12
1,74,0,48
1,69,100,12
1,69,0,48
1,62,100,12
1,62,0,48
1,50,0,0
1,52,100,12
1,62,100,120
1,62,0,48
1,74,100,12
1,74,0,48
1,69,100,12
1,69,0,48
1,62,100,12
1,62,0,48
1,52,0,0
1,55,100,12
1,62,100,120
1,62,0,48
1,74,100,12
1,74,0,48
1,69,100,12
1,69,0,48
1,62,100,12
1,62,0,48
1,55,0,0
1,50,100,12
1,62,100,120
1,62,0,48
1,74,100,12
1,74,0,48
1,69,100,12
1,69,0,48
1,62,100,12
1,62,0,48
1,50,0,0
1,50,100,12
1,62,100,120
1,62,0,48
1,74,100,12
1,74,0,48
1,69,100,12
1,69,0,48
1,62,100,12
1,62,0,48
1,50,0,0
1,57,100,12
1,62,100,120
1,62,0,48
1,74,100,12
1,74,0,48
1,69,100,12
1,69,0,48
1,62,100,12
1,62,0,48
1,57,0,0
1,55,100,12
1,62,100,120
1,62,0,48
1,74,100,12
1,74,0,48
1,69,100,12
1,69,0,48
1,62,100,12
1,62,0,48
1,55,0,0
1,62,100,12
1,81,100,0
1,81,0,96
1,62,100,24
1,62,0,48
1,74,100,12
1,74,0,48
1,69,100,12
1,69,0,48
1,62,100,12
1,62,0,48
1,62,0,0
1,66,100,12
1,62,100,0
1,59,100,0
1,47,100,0
1,59,0,96
1,66,0,0
1,62,0,0
1,59,100,24
1,59,0,48
1,66,100,12
1,66,0,48
1,47,0,0
1,47,100,12
1,59,100,0
1,59,0,48
1,66,100,12
1,66,0,48
1,47,0,0
1,45,100,12
1,57,100,0
1,61,100,0
1,64,100,0
1,64,0,96
1,61,0,0
1,57,0,0
1,57,100,24
1,57,0,48
1,64,100,12
1,64,0,48
1,57,100,12
1,57,0,48
1,45,0,0
1,64,100,12
1,45,100,0
1,45,0,48
1,64,0,0
1,43,100,12
1,50,100,0
1,55,100,0
1,62,100,0
1,62,0,96
1,55,0,0
1,50,0,0
1,55,100,24
1,55,0,48
1,62,100,12
1,62,0,48
1,43,0,0
1,55,100,12
1,43,100,0
1,55,0,48
1,62,100,12
1,62,0,48
1,43,0,0
1,43,100,12
1,62,100,0
1,55,100,0
1,50,100,0
1,50,0,96
1,55,0,0
1,62,0,0
1,55,100,24
1,55,0,48
1,62,100,12
1,62,0,48
1,43,0,0
1,55,100,12
1,43,100,0
1,55,0,48
1,62,100,12
1,62,0,48
1,43,0,0
1,47,100,12
1,59,100,0
1,62,100,0
1,66,100,0
1,66,0,96
1,62,0,0
1,59,0,0
1,59,100,24
1,59,0,48
1,66,100,12
1,66,0,48
1,47,0,0
1,47,100,12
1,59,100,0
1,59,0,48
1,66,100,12
1,66,0,48
1,47,0,0
1,64,100,12
1,61,100,0
1,57,100,0
1,45,100,0
1,57,0,96
1,64,0,0
1,61,0,0
1,57,100,24
1,57,0,48
1,64,100,12
1,64,0,48
1,57,100,12
1,57,0,48
1,45,0,0
1,45,100,12
1,64,100,0
1,64,0,48
1,45,0,0
1,62,100,12
1,55,100,0
1,50,100,0
1,43,100,0
1,50,0,96
1,62,0,0
1,55,0,0
1,55,100,24
1,55,0,48
1,62,100,12
1,62,0,48
1,43,0,0
1,55,100,12
1,43,100,0
1,55,0,48
1,62,100,12
1,62,0,48
1,43,0,0
1,50,100,12
1,55,100,0
1,62,100,0
1,43,100,0
1,62,0,96
1,50,0,0
1,55,0,0
1,55,100,24
1,55,0,48
1,62,100,12
1,62,0,48
1,43,0,0
1,43,100,12
1,55,100,0
1,55,0,48
1,62,100,12
1,62,0,48
1,43,0,0
1,47,100,12
1,59,100,0
1,62,100,0
1,66,100,0
1,66,0,96
1,62,0,0
1,59,0,0
1,59,100,24
1,59,0,48
1,66,100,12
1,66,0,48
1,47,0,0
1,59,100,12
1,47,100,0
1,59,0,48
1,66,100,12
1,66,0,48
1,47,0,0
1,64,100,12
1,61,100,0
1,57,100,0
1,45,100,0
1,57,0,96
1,64,0,0
1,61,0,0
1,57,100,24
1,57,0,48
1,64,100,12
1,64,0,48
1,57,100,12
1,57,0,48
1,45,0,0
1,45,100,12
1,64,100,0
1,64,0,48
1,45,0,0
1,62,100,12
1,55,100,0
1,50,100,0
1,43,100,0
1,50,0,96
1,62,0,0
1,55,0,0
1,55,100,24
1,55,0,48
1,62,100,12
1,62,0,48
1,43,0,0
1,55,100,12
1,43,100,0
1,55,0,48
1,62,100,12
1,62,0,48
1,43,0,0
1,43,100,12
1,50,100,0
1,55,100,0
1,62,100,0
1,62,0,96
1,55,0,0
1,50,0,0
1,55,100,24
1,55,0,48
1,62,100,12
1,62,0,48
1,43,0,0
1,43,100,12
1,55,100,0
1,55,0,48
1,62,100,12
1,62,0,48
1,43,0,0
1,47,100,12
1,59,100,0
1,62,100,0
1,66,100,0
1,66,0,96
1,62,0,0
1,59,0,0
1,59,100,24
1,59,0,48
1,66,100,12
1,66,0,48
1,47,0,0
1,59,100,12
1,47,100,0
1,59,0,48
1,66,100,12
1,66,0,48
1,47,0,0
1,64,100,12
1,61,100,0
1,57,100,0
1,45,100,0
1,57,0,96
1,64,0,0
1,61,0,0
1,57,100,24
1,57,0,48
1,64,100,12
1,64,0,48
1,57,100,12
1,57,0,48
1,45,0,0
1,45,100,12
1,64,100,0
1,64,0,48
1,45,0,0
1,62,100,12
1,55,100,0
1,50,100,0
1,43,100,0
1,50,0,96
1,62,0,0
1,55,0,0
1,55,100,24
1,55,0,48
1,62,100,12
1,62,0,48
1,43,0,0
1,55,100,12
1,43,100,0
1,55,0,48
1,62,100,12
1,62,0,48
1,43,0,0
1,50,100,12
1,55,100,0
1,62,100,0
1,43,100,0
1,62,0,96
1,50,0,0
1,55,0,0
1,55,100,24
1,55,0,48
1,62,100,12
1,62,0,48
1,43,0,0
1,43,100,12
1,55,100,0
1,55,0,48
1,62,100,12
1,62,0,48
1,43,0,0
1,50,100,3612
1,62,100,120
1,62,0,48
1,74,100,12
1,74,0,48
1,69,100,12
1,69,0,48
1,62,100,12
1,62,0,48
1,50,0,0
1,52,100,12
1,62,100,120
1,62,0,48
1,74,100,12
1,74,0,48
1,69,100,12
1,69,0,48
1,62,100,12
1,62,0,48
1,52,0,0
1,55,100,12
1,62,100,120
1,62,0,48
1,74,100,12
1,74,0,48
1,69,100,12
1,69,0,48
1,62,100,12
1,62,0,48
1,55,0,0
1,50,100,12
1,62,100,120
1,62,0,48
1,74,100,12
1,74,0,48
1,69,100,12
1,69,0,48
1,62,100,12
1,62,0,48
1,50,0,0
1,50,100,12
1,62,100,120
1,62,0,48
1,74,100,12
1,74,0,48
1,69,100,12
1,69,0,48
1,62,100,12
1,62,0,48
1,50,0,0
1,57,100,12
1,62,100,120
1,62,0,48
1,74,100,12
1,74,0,48
1,69,100,12
1,69,0,48
1,62,100,12
1,62,0,48
1,57,0,0
1,55,100,12
1,62,100,120
1,62,0,48
1,74,100,12
1,74,0,48
1,69,100,12
1,69,0,48
1,62,100,12
1,62,0,48
1,55,0,0
1,62,100,12
1,62,100,120
1,62,0,48
1,74,100,12
1,74,0,48
1,69,100,12
1,69,0,48
1,62,100,12
1,62,0,48
1,62,0,0
1,50,100,12
1,62,100,120
1,62,0,48
1,74,100,12
1,74,0,48
1,69,100,12
1,69,0,48
1,62,100,12
1,62,0,48
1,50,0,0
1,52,100,12
1,62,100,120
1,62,0,48
1,74,100,12
1,74,0,48
1,69,100,12
1,69,0,48
1,62,100,12
1,62,0,48
1,52,0,0
1,55,100,12
1,62,100,120
1,62,0,48
1,74,100,12
1,74,0,48
1,69,100,12
1,69,0,48
1,62,100,12
1,62,0,48
1,55,0,0
1,50,100,12
1,62,100,120
1,62,0,48
1,74,100,12
1,74,100,0
1,74,0,48
1,74,0,0
1,69,100,12
1,69,0,48
1,62,100,12
1,62,0,48
1,50,0,0
1,50,100,12
1,62,100,120
1,62,0,48
1,74,100,12
1,74,100,0
1,74,0,48
1,74,0,0
1,69,100,12
1,69,0,48
1,62,100,12
1,62,0,48
1,50,0,0
1,57,100,12
1,62,100,120
1,62,0,48
1,74,100,12
1,74,100,0
1,74,0,48
1,74,0,0
1,69,100,12
1,69,0,48
1,62,100,12
1,62,0,48
1,57,0,0
1,55,100,12
1,62,100,120
1,62,0,48
1,74,100,12
1,74,0,48
1,69,100,12
1,69,0,48
1,62,100,12
1,62,0,48
1,55,0,0
1,62,100,12
1,62,100,120
1,62,0,48
1,74,100,12
1,74,0,48
1,69,100,12
1,69,0,48
1,62,100,12
1,62,0,48
1,62,0,0
1,47,100,12
1,59,100,0
1,62,100,0
1,66,100,0
1,66,0,96
1,62,0,0
1,59,0,0
1,59,100,24
1,59,0,48
1,66,100,12
1,66,0,48
1,47,0,0
1,59,100,12
1,47,100,0
1,59,0,48
1,66,100,12
1,66,0,48
1,47,0,0
1,64,100,12
1,61,100,0
1,57,100,0
1,45,100,0
1,57,0,96
1,64,0,0
1,61,0,0
1,57,100,24
1,57,0,48
1,64,100,12
1,64,0,48
1,57,100,12
1,57,0,48
1,45,0,0
1,45,100,12
1,64,100,0
1,64,0,48
1,45,0,0
1,62,100,12
1,55,100,0
1,50,100,0
1,43,100,0
1,50,0,96
1,62,0,0
1,55,0,0
1,55,100,24
1,55,0,48
1,62,100,12
1,62,0,48
1,43,0,0
1,55,100,12
1,43,100,0
1,55,0,48
1,62,100,12
1,62,0,48
1,43,0,0
1,50,100,12
1,55,100,0
1,62,100,0
1,43,100,0
1,62,0,96
1,50,0,0
1,55,0,0
1,55,100,24
1,55,0,48
1,62,100,12
1,62,0,48
1,43,0,0
1,43,100,12
1,55,100,0
1,55,0,48
1,62,100,12
1,62,0,48
1,43,0,0
1,66,100,12
1,62,100,0
1,59,100,0
1,47,100,0
1,59,0,96
1,66,0,0
1,62,0,0
1,59,100,24
1,59,0,48
1,66,100,12
1,66,0,48
1,47,0,0
1,59,100,12
1,47,100,0
1,59,0,48
1,66,100,12
1,66,0,48
1,47,0,0
1,45,100,12
1,57,100,0
1,61,100,0
1,64,100,0
1,64,0,96
1,61,0,0
1,57,0,0
1,57,100,24
1,57,0,48
1,64,100,12
1,64,0,48
1,57,100,12
1,57,0,48
1,45,0,0
1,64,100,12
1,45,100,0
1,45,0,48
1,64,0,0
1,43,100,12
1,50,100,0
1,55,100,0
1,62,100,0
1,62,0,96
1,55,0,0
1,50,0,0
1,55,100,24
1,55,0,48
1,62,100,12
1,62,0,48
1,43,0,0
1,43,100,12
1,55,100,0
1,55,0,48
1,62,100,12
1,62,0,48
1,43,0,0
1,43,100,12
1,62,100,0
1,55,100,0
1,50,100,0
1,50,0,96
1,55,0,0
1,62,0,0
1,55,100,24
1,55,0,48
1,62,100,12
1,62,0,48
1,43,0,0
1,55,100,12
1,43,100,0
1,55,0,48
1,62,100,12
1,62,0,48
1,43,0,0
1,66,100,12
1,62,100,0
1,59,100,0
1,47,100,0
1,59,0,96
1,66,0,0
1,62,0,0
1,59,100,24
1,59,0,48
1,66,100,12
1,66,0,48
1,47,0,0
1,47,100,12
1,59,100,0
1,59,0,48
1,66,100,12
1,66,0,48
1,47,0,0
1,45,100,12
1,57,100,0
1,61,100,0
1,64,100,0
1,64,0,96
1,61,0,0
1,57,0,0
1,57,100,24
1,57,0,48
1,64,100,12
1,64,0,48
1,57,100,12
1,57,0,48
1,45,0,0
1,64,100,12
1,45,100,0
1,45,0,48
1,64,0,0
1,43,100,12
1,50,100,0
1,55,100,0
1,62,100,0
1,62,0,96
1,55,0,0
1,50,0,0
1,55,100,24
1,55,0,48
1,62,100,12
1,62,0,48
1,43,0,0
1,43,100,12
1,55,100,0
1,55,0,48
1,62,100,12
1,62,0,48
1,43,0,0
1,62,100,12
1,55,100,0
1,50,100,0
1,43,100,0
1,50,0,96
1,62,0,0
1,55,0,0
1,55,100,24
1,55,0,48
1,62,100,12
1,62,0,48
1,43,0,0
1,55,100,12
1,43,100,0
1,55,0,48
1,62,100,12
1,62,0,48
1,43,0,0
1,66,100,12
1,62,100,0
1,59,100,0
1,47,100,0
1,59,0,96
1,66,0,0
1,62,0,0
1,59,100,24
