track,note,velocity,time
3,47,81,34
3,59,62,2
3,62,70,2
3,66,82,0
3,59,71,10
3,62,73,6
3,66,81,26
3,59,64,24
3,64,84,6
3,61,71,0
3,59,75,2
3,57,75,0
3,45,84,2
3,52,74,52
3,57,77,50
3,59,84,66
3,61,91,22
3,43,83,8
3,59,71,8
3,55,55,0
3,62,74,0
3,50,64,20
3,55,74,32
3,59,83,48
3,62,71,72
3,40,95,8
3,55,79,2
3,59,69,2
3,52,99,0
3,47,4,68
3,52,83,26
3,55,86,82
3,59,79,2
3,47,79,2
3,59,67,2
3,66,81,0
3,62,75,0
3,59,70,6
3,62,66,30
3,66,89,2
3,62,71,2
3,59,62,0
3,61,79,6
3,64,88,4
3,57,74,2
3,45,91,4
3,61,57,44
3,64,86,2
3,59,70,2
3,57,62,2
3,52,73,28
3,57,74,2
3,59,96,12
3,43,79,12
3,62,63,2
3,59,79,2
3,55,77,0
3,50,71,22
3,55,75,34
3,59,91,50
3,62,67,74
3,40,88,18
3,55,73,2
3,52,99,2
3,59,71,2
3,47,24,28
3,66,65,112
3,62,75,2
3,69,90,0
3,50,75,2
3,38,74,2
3,40,83,82
3,52,74,0
3,67,104,2
3,64,88,0
3,55,60,96
3,43,75,0
3,67,93,2
3,62,75,0
3,59,71,0
3,50,74,0
3,55,67,86
3,59,83,46
3,62,81,92
3,67,99,0
3,66,77,84
3,62,91,4
3,47,91,0
3,59,79,0
3,61,82,4
3,57,83,4
3,64,96,0
3,45,88,2
3,43,83,4
3,62,84,2
3,59,79,2
3,55,70,0
3,50,60,32
3,55,70,100
3,57,99,4
3,59,91,78
3,55,73,58
3,50,96,12
3,66,81,2
3,38,70,2
3,62,84,0
3,69,88,2
3,52,70,70
3,67,77,0
3,40,84,2
3,64,77,0
3,43,88,100
3,67,104,0
3,55,66,0
3,62,71,0
3,59,74,2
3,50,74,2
3,55,67,68
3,59,71,40
3,62,67,86
3,67,107,2
3,55,69,0
3,66,78,12
3,47,81,0
3,62,91,2
3,59,74,2
3,61,92,110
3,45,90,4
3,57,79,0
3,64,96,0
3,43,83,12
3,59,77,0
3,55,58,0
3,62,69,2
3,50,74,38
3,55,64,96
3,57,93,62
3,59,83,90
3,55,73,48
3,66,73,8
3,50,88,0
3,62,86,4
3,69,93,0
3,38,75,2
3,52,75,94
3,40,83,0
3,67,104,0
3,64,95,2
3,62,74,4
3,67,86,0
3,59,70,0
3,43,73,2
3,55,60,2
3,50,57,6
3,55,70,100
3,59,77,46
3,67,109,18
3,62,83,2
3,55,74,2
3,66,79,2
3,47,88,2
3,62,95,2
3,59,84,0
3,61,82,146
3,45,93,0
3,57,90,2
3,64,98,0
3,43,88,62
3,59,90,0
3,55,74,4
3,50,48,40
3,55,77,92
3,57,93,12
3,59,90,36
3,55,77,64
3,66,82,8
3,50,84,2
3,62,95,2
3,38,74,4
3,52,79,96
3,40,81,0
3,67,106,0
3,64,96,2
3,43,83,130
3,62,83,0
3,59,79,2
3,67,104,0
3,55,64,0
3,50,79,10
3,55,67,82
3,59,79,60
3,62,83,2
3,67,110,0
3,55,60,4
3,47,91,64
3,66,82,2
3,62,93,0
3,59,84,2
3,61,81,124
3,45,93,2
3,57,79,0
3,64,93,0
3,59,83,56
3,43,99,0
3,62,93,0
3,55,95,0
3,50,98,30
3,55,95,96
3,57,109,40
3,59,98,2
3,57,31,10
3,55,95,52
3,66,102,12
3,47,99,0
3,62,110,0
3,59,109,0
3,61,91,4
3,64,104,2
3,45,105,0
3,57,107,0
3,43,99,8
3,59,83,4
3,62,99,0
3,55,93,0
3,50,88,12
3,55,83,94
3,57,101,6
3,59,98,58
3,55,79,62
3,47,93,8
3,66,85,0
3,62,104,0
3,59,96,2
3,61,91,134
3,64,98,2
3,57,99,0
3,45,102,2
3,43,83,14
3,59,84,2
3,55,74,2
3,62,96,0
3,50,83,30
3,55,83,90
3,57,99,0
3,59,101,14
3,55,91,52
3,66,92,20
3,47,96,2
3,62,101,0
3,59,99,0
3,64,99,8
3,61,91,0
3,57,99,2
3,45,105,0
3,43,99,8
3,59,96,2
3,62,93,0
3,55,91,0
3,50,95,30
3,55,75,94
3,57,99,4
3,59,98,18
3,55,79,60
3,66,89,10
3,47,91,0
3,62,104,2
3,59,99,2
3,61,97,130
3,64,99,0
3,57,96,0
3,45,101,4
3,59,84,10
3,62,96,0
3,55,84,2
3,43,98,0
3,50,96,42
3,55,79,96
3,57,96,8
3,59,88,34
3,55,73,8
3,66,81,10
3,47,84,0
3,59,70,2
3,62,88,0
3,59,73,12
3,62,73,22
3,62,40,6
3,66,81,0
3,59,70,44
3,61,82,6
3,64,98,2
3,57,79,4
3,45,93,2
3,52,70,36
3,57,79,96
3,59,96,0
3,61,97,96
3,43,91,0
3,59,81,0
3,62,90,2
3,55,79,0
3,50,88,18
3,55,79,30
3,57,98,0
3,59,71,32
3,40,99,8
3,55,99,6
3,52,96,0
3,47,58,54
3,52,84,96
3,57,91,26
3,52,88,66
3,59,79,10
3,66,82,0
3,62,93,0
3,47,84,2
3,59,75,8
3,62,84,36
3,62,40,8
3,66,96,2
3,59,69,0
3,61,84,12
3,64,95,2
3,59,91,2
3,57,91,0
3,45,93,4
3,52,83,46
3,57,83,70
3,59,98,74
3,61,92,4
3,43,91,8
3,59,90,2
3,55,81,2
3,50,98,20
3,55,83,32
3,57,91,52
3,59,66,36
3,40,104,2
3,55,96,2
3,52,79,4
3,66,82,4
3,62,99,2
3,50,93,0
3,38,91,2
3,69,99,0
3,52,84,4
3,67,104,2
3,64,99,0
3,40,98,2
3,43,91,4
3,62,95,2
3,55,73,0
3,59,96,0
3,67,99,0
3,50,69,0
3,55,79,46
3,59,98,60
3,67,102,28
3,62,91,2
3,59,81,2
3,55,79,18
3,47,93,2
3,66,91,2
3,62,102,2
3,59,99,0
3,61,95,2
3,64,99,2
3,57,95,0
3,45,99,2
3,62,79,12
3,59,96,2
3,43,93,0
3,55,88,2
3,50,81,36
3,55,83,90
3,57,102,2
3,59,105,76
3,55,83,72
3,66,95,10
3,50,91,2
3,62,102,2
3,38,81,0
3,67,106,8
3,64,102,2
3,40,96,2
3,52,84,2
3,62,96,2
3,43,93,0
3,59,99,0
3,67,102,0
3,55,77,0
3,50,90,12
3,55,73,78
3,59,95,62
3,62,88,18
3,59,86,0
3,67,102,0
3,55,79,10
3,47,90,10
3,66,100,2
3,59,95,0
3,62,99,0
3,61,89,118
3,57,96,0
3,45,101,0
3,64,96,0
3,62,98,4
3,59,95,0
3,43,99,2
3,55,104,0
3,50,96,30
3,55,96,26
3,57,110,50
3,59,98,2
3,55,93,58
3,66,97,14
3,62,109,0
3,59,109,0
3,47,99,0
3,45,99,124
3,61,96,2
3,64,102,0
3,57,102,0
3,59,98,12
3,43,95,0
3,62,101,0
3,55,101,2
3,50,88,26
3,55,86,92
3,57,106,4
3,59,98,32
3,55,83,62
3,66,96,14
3,47,95,2
3,59,99,0
3,62,105,0
3,61,91,2
3,45,99,0
3,64,106,0
3,57,104,2
3,59,86,4
3,43,98,0
3,62,96,0
3,55,84,2
3,50,62,34
3,55,70,92
3,57,99,40
3,59,105,14
3,55,93,60
3,47,98,12
3,66,96,0
3,62,107,2
3,59,104,0
3,61,96,112
3,57,101,2
3,45,101,0
3,64,104,2
3,43,99,6
3,59,98,0
3,55,96,2
3,62,96,0
3,50,101,24
3,55,79,98
3,57,102,8
3,59,98,10
3,57,12,2
3,55,84,58
3,66,93,8
3,62,101,2
3,59,99,2
3,47,83,0
3,61,92,0
3,64,96,4
3,57,101,0
3,45,99,0
3,43,88,46
3,59,95,0
3,62,99,2
3,55,96,0
3,50,90,24
3,55,79,96
3,57,98,8
3,59,98,32
3,55,86,0
3,66,84,56
3,59,91,2
3,62,99,0
3,47,93,0
3,59,75,42
3,62,84,94
3,62,101,54
3,47,99,2
3,59,69,86
3,62,84,52
3,43,84,64
3,62,73,4
3,59,88,4
3,55,71,0
3,50,66,28
3,55,71,88
3,57,99,60
3,55,74,38
3,59,74,0
3,47,83,46
3,66,82,2
3,62,98,0
3,59,93,0
3,59,71,42
3,62,79,4
3,45,93,0
3,61,91,2
3,57,91,2
3,64,90,2
3,52,57,22
3,57,63,6
3,43,88,0
3,59,83,2
3,62,91,0
3,55,90,0
3,50,73,24
3,55,55,88
3,57,96,48
3,59,83,4
3,55,74,64
3,66,88,6
3,47,93,2
3,62,101,0
3,59,95,2
3,59,38,14
3,62,93,0
3,61,92,74
3,45,91,0
3,64,101,0
3,57,99,0
3,52,62,36
3,57,71,0
3,43,86,66
3,59,88,2
3,62,91,0
3,55,88,0
3,50,79,26
3,55,70,84
3,57,83,16
3,59,90,6
3,55,75,2
3,66,85,58
3,59,88,2
3,47,84,0
3,62,98,2
3,53,55,34
3,59,62,8
3,61,91,68
3,64,102,0
3,57,99,0
3,45,98,2
3,52,48,24
3,57,70,86
3,43,91,64
3,59,84,0
3,55,84,4
3,62,86,0
3,50,79,20
3,55,55,92
3,57,93,6
3,59,84,8
3,55,79,30
3,59,83,62
3,47,83,2
3,71,109,2
3,71,99,14
3,59,95,0
3,47,96,4
3,71,96,18
3,59,79,4
3,47,73,4
3,59,90,8
3,71,111,2
3,47,91,0
3,57,99,86
3,69,107,0
3,45,91,4
3,57,90,20
3,69,104,0
3,45,93,2
3,57,79,24
3,69,96,2
3,45,57,4
3,57,91,16
3,45,93,2
3,69,104,0
3,59,91,84
3,71,110,0
3,47,98,0
3,57,84,16
3,69,110,2
3,45,96,2
3,67,110,14
3,55,73,0
3,43,96,0
3,50,64,18
3,55,81,98
3,67,106,58
3,55,79,136
3,50,99,94
3,55,91,82
3,59,95,18
3,71,107,2
3,47,96,0
3,71,102,14
3,59,95,0
3,47,96,4
3,71,106,18
3,59,83,6
3,47,69,4
3,71,110,8
3,59,84,2
3,47,83,0
3,57,99,20
3,45,99,0
3,69,111,4
3,57,91,20
3,69,106,0
3,45,93,2
3,69,107,4
3,57,84,6
3,45,93,2
3,57,70,6
3,69,112,2
3,71,111,10
3,59,95,0
3,47,102,2
3,69,111,22
3,57,88,2
3,45,93,2
3,55,71,16
3,67,110,0
3,43,91,0
3,50,91,10
3,55,88,102
3,67,99,54
3,55,75,102
3,50,91,2
3,55,91,92
3,59,96,16
3,71,107,2
3,47,104,4
3,71,104,14
3,59,90,4
3,47,84,4
3,71,101,16
3,59,63,8
3,71,111,14
3,59,91,2
3,47,99,2
3,57,101,84
3,45,104,2
3,69,112,4
3,69,111,18
3,57,101,0
3,45,109,2
3,69,109,14
3,57,93,6
3,45,96,2
3,69,99,8
3,45,58,2
3,57,74,2
3,71,112,8
3,59,99,0
3,47,99,2
3,57,86,6
3,45,93,4
3,69,111,0
3,67,110,0
3,43,90,0
3,55,70,2
3,50,90,4
3,55,77,98
3,67,96,54
3,55,77,52
3,50,104,30
3,55,93,86
3,59,96,28
3,71,110,2
3,47,102,2
3,71,110,6
3,59,98,2
3,47,96,4
3,71,106,12
3,59,93,4
3,47,66,6
3,71,110,10
3,59,96,4
3,47,101,2
3,57,101,16
3,45,99,2
3,69,111,2
3,69,110,20
3,45,98,0
3,57,83,0
3,69,109,18
3,57,96,4
3,45,99,0
3,69,102,14
3,57,70,8
3,45,88,0
3,71,109,12
3,59,90,0
3,47,98,2
3,69,96,50
3,59,44,6
3,57,35,2
3,45,57,2
3,47,57,0
3,43,96,12
3,67,110,2
3,50,96,80
3,55,96,94
3,67,106,64
3,50,84,4
3,55,91,90
3,59,71,66
3,59,79,30
3,62,88,0
3,43,96,0
3,67,102,2
3,50,88,26
3,55,81,94
3,59,79,52
3,59,40,4
3,67,99,4
3,62,96,2
3,55,88,36
3,66,69,24
3,42,95,38
3,66,73,0
3,73,97,0
3,69,98,2
3,54,81,48
3,66,71,54
3,66,25,8
3,73,99,6
3,69,101,0
3,54,81,114
3,66,93,4
3,54,77,40
3,62,93,4
3,43,84,0
3,59,86,0
3,67,101,0
3,50,67,18
3,55,70,20
3,59,99,68
3,59,84,12
3,67,102,0
3,62,101,4
3,55,84,28
3,59,79,20
3,62,95,6
3,66,93,0
3,47,95,2
3,59,75,42
3,62,98,0
3,66,96,76
3,59,81,60
3,62,102,82
3,59,70,4
3,62,96,16
3,59,96,0
3,43,79,2
3,67,102,0
3,50,95,12
3,55,75,2
3,59,98,68
3,67,104,16
3,62,93,0
3,59,86,0
3,55,83,34
3,66,71,24
3,42,89,8
3,66,75,2
3,73,99,2
3,69,101,0
3,54,82,44
3,66,71,32
3,66,82,20
3,73,103,0
3,69,104,2
3,54,99,2
3,59,83,72
3,62,93,20
3,66,97,16
3,62,96,0
3,47,91,0
3,59,99,2
3,54,56,34
3,59,81,50
3,62,101,30
3,66,97,26
3,62,102,0
3,54,89,84
3,59,83,14
3,66,96,24
3,59,96,0
3,62,104,2
3,47,91,2
3,54,77,50
3,59,86,38
3,62,99,32
3,66,96,42
3,62,110,0
3,54,96,76
3,59,83,12
3,43,96,14
3,55,79,0
3,59,96,2
3,62,98,0
3,67,106,0
3,50,84,20
3,55,83,6
3,59,98,74
3,67,104,12
3,59,93,0
3,62,101,0
3,55,83,34
3,66,78,28
3,42,95,0
3,73,99,4
3,66,82,2
3,69,104,0
3,54,77,38
3,66,81,46
3,69,102,8
3,73,99,54
3,66,85,0
3,69,110,2
3,54,89,36
3,59,75,34
3,66,93,6
3,47,96,0
3,62,104,2
3,59,91,0
3,59,84,18
3,62,99,10
3,66,96,22
3,62,86,2
3,59,71,68
3,62,98,2
3,54,84,68
3,62,102,0
3,59,99,0
3,66,100,2
3,47,93,0
3,54,57,42
3,59,79,28
3,62,88,46
3,66,81,40
3,62,84,2
3,54,65,60
3,59,48,34
3,59,40,36
3,62,71,4
3,66,82,2
3,47,79,2
3,54,63,10
3,59,64,46
3,62,81,44
3,66,82,16
3,62,79,2
3,61,68,52
3,57,71,4
3,64,91,0
3,45,90,0
3,52,41,30
3,57,54,12
3,59,79,6
3,57,71,0
3,43,79,66
3,62,74,2
3,59,77,0
3,55,67,2
3,57,81,2
3,50,74,2
3,55,64,42
3,57,74,42
3,62,51,36
3,59,51,0
3,40,84,34
3,55,79,0
3,59,75,6
3,52,75,0
3,47,50,48
3,52,70,6
3,55,84,2
3,52,90,24
3,66,79,58
3,59,79,2
3,62,93,2
3,47,83,2
3,59,79,14
3,62,79,42
3,66,82,22
3,62,86,0
3,59,55,14
3,64,96,36
3,57,83,2
3,45,95,4
3,64,99,46
3,57,73,2
3,52,63,4
3,57,79,88
3,57,79,22
3,43,79,66
3,62,74,0
3,55,67,2
3,59,75,0
3,50,66,0
3,55,71,46
3,59,83,2
3,62,64,84
3,40,83,40
3,55,79,4
3,52,98,2
3,59,66,2
3,66,106,156
3,47,106,0
3,62,111,2
3,59,111,0
3,61,100,4
3,64,106,2
3,57,111,0
3,45,110,0
3,43,105,8
3,59,104,0
3,62,104,0
3,55,102,2
3,50,90,24
3,55,91,96
3,57,110,44
3,59,102,18
3,55,77,58
3,47,93,14
3,66,96,0
3,62,109,2
3,59,106,0
3,61,97,4
3,64,101,2
3,45,95,0
3,57,106,2
3,59,84,8
3,62,101,0
3,43,96,2
3,55,93,0
3,50,83,26
3,55,90,96
3,57,96,30
3,59,105,18
3,55,95,52
3,66,99,10
3,47,99,0
3,62,111,0
3,59,107,2
3,61,106,2
3,64,104,2
3,57,109,0
3,45,109,2
3,43,102,4
3,59,95,2
3,62,99,0
3,55,96,0
3,50,88,28
3,55,79,96
3,57,107,10
3,59,106,26
3,55,75,58
3,47,96,12
3,66,100,0
3,62,107,2
3,59,104,0
3,61,104,2
3,64,104,0
3,45,104,2
3,57,109,2
3,43,93,2
3,59,83,0
3,62,91,2
3,55,88,2
3,50,52,44
3,55,62,92
3,57,66,14
3,59,64,18
3,55,67,68
3,59,44,76
3,47,64,8
3,62,70,0
3,66,60,2
3,57,56,2
3,61,63,2
3,45,69,2
3,64,75,2
3,59,73,0
