track,note,velocity,time
0,53,96,34
0,56,85,52
0,56,0,27
0,53,0,23
0,63,104,3
0,56,85,49
0,63,0,1
0,51,97,15
0,56,0,9
0,51,0,16
0,51,95,24
0,58,99,25
0,58,0,28
0,63,103,26
0,51,0,6
0,63,0,40
0,58,96,7
0,58,0,44
0,49,97,9
0,56,93,33
0,56,0,21
0,49,0,7
0,63,96,26
0,63,0,48
0,56,108,1
0,44,108,3
0,56,0,10
0,44,0,10
0,44,103,31
0,56,105,25
0,44,0,3
0,56,0,10
0,43,96,1
0,43,0,26
0,56,107,11
0,56,0,42
0,53,93,1
0,56,99,36
0,56,0,24
0,63,99,29
0,53,0,8
0,63,0,32
0,56,100,7
0,51,97,2
0,56,0,5
0,51,0,13
0,51,93,34
0,58,96,23
0,58,0,22
0,63,93,31
0,51,0,3
0,63,0,39
0,58,93,10
0,58,0,41
0,49,89,11
0,56,93,33
0,56,0,21
0,49,0,9
0,63,92,20
0,63,0,31
0,56,96,13
0,44,96,4
0,56,0,3
0,44,0,42
0,56,97,7
0,44,91,26
0,56,0,10
0,44,0,13
0,43,95,28
0,43,0,43
0,56,91,10
0,56,0,5
0,53,99,1
0,70,97,6
0,70,0,18
0,41,90,22
0,70,96,3
0,70,0,18
0,63,108,20
0,53,0,1
0,56,93,3
0,63,102,0
0,70,120,0
0,70,0,17
0,56,0,2
0,63,0,2
0,63,106,14
0,53,73,6
0,70,104,1
0,63,0,3
0,70,0,9
0,63,0,1
0,63,95,8
0,70,105,8
0,56,54,1
0,53,0,4
0,56,0,15
0,70,0,1
0,60,106,9
0,70,96,4
0,53,58,3
0,63,0,8
0,70,0,1
0,70,96,13
0,56,49,9
0,53,0,2
0,60,0,9
0,70,0,2
0,58,110,3
0,56,0,1
0,70,112,26
0,63,89,12
0,56,75,2
0,58,0,3
0,70,0,9
0,56,114,2
0,41,0,29
0,70,97,2
0,53,75,9
0,56,0,1
0,70,0,7
0,53,0,5
0,58,114,2
0,70,111,6
0,39,100,5
0,70,0,8
0,56,0,30
0,70,93,1
0,51,56,5
0,63,0,5
0,70,0,7
0,51,0,37
0,63,93,4
0,70,120,1
0,56,65,1
0,70,0,22
0,56,0,8
0,63,0,16
0,51,49,1
0,70,96,2
0,70,0,14
0,51,0,6
0,58,0,9
0,56,50,3
0,56,93,0
0,70,93,1
0,56,0,19
0,70,0,1
0,63,102,4
0,56,0,5
0,70,96,20
0,51,36,1
0,63,0,7
0,70,0,4
0,63,103,14
0,56,50,1
0,70,99,0
0,63,0,18
0,56,0,1
0,70,0,2
0,63,95,6
0,51,0,2
0,70,113,23
0,56,75,1
0,63,89,0
0,63,0,5
0,70,0,18
0,63,105,3
0,63,0,10
0,39,0,1
0,63,106,3
0,51,50,2
0,70,97,0
0,51,0,14
0,70,0,3
0,37,81,8
0,70,111,3
0,70,0,17
0,56,0,19
0,49,62,9
0,70,95,1
0,63,0,13
0,70,0,2
0,49,0,31
0,63,91,5
0,56,71,1
0,70,113,4
0,70,0,23
0,56,0,1
0,49,52,20
0,70,100,2
0,63,0,5
0,70,0,10
0,49,0,6
0,63,0,1
0,70,97,5
0,56,99,1
0,56,52,1
0,56,0,16
0,70,0,1
0,56,0,0
0,56,103,8
0,49,55,18
0,70,99,0
0,70,0,13
0,56,0,9
0,70,93,3
0,56,54,4
0,49,0,4
0,56,106,9
0,70,0,3
0,56,0,5
0,56,0,7
0,56,96,10
0,70,114,10
0,63,91,1
0,56,75,1
0,56,0,14
0,70,0,6
0,56,97,10
0,56,0,11
0,70,91,7
0,37,0,1
0,49,60,0
0,58,110,13
0,56,0,3
0,70,0,0
0,49,0,4
0,70,113,34
0,37,71,3
0,60,102,3
0,58,0,6
0,70,0,12
0,70,93,28
0,49,63,6
0,70,0,10
0,63,0,2
0,49,0,35
0,70,116,1
0,63,89,4
0,56,68,1
0,70,0,17
0,56,0,12
0,49,53,18
0,70,105,0
0,63,0,5
0,70,0,7
0,60,0,2
0,56,85,3
0,49,0,1
0,70,110,3
0,56,50,5
0,70,0,16
0,60,110,1
0,56,0,3
0,56,0,4
0,60,0,11
0,49,53,4
0,70,97,2
0,60,104,1
0,70,0,7
0,70,100,11
0,60,0,4
0,49,0,3
0,56,48,0
0,60,99,12
0,56,0,5
0,70,0,1
0,70,113,14
0,63,91,5
0,56,68,2
0,58,106,11
0,70,0,4
0,60,0,6
0,56,102,6
0,37,0,8
0,58,0,2
0,70,106,3
0,49,63,3
0,70,0,15
0,49,0,2
0,70,112,12
0,41,79,1
0,70,0,20
0,56,0,7
0,70,100,22
0,53,74,5
0,63,0,6
0,70,0,7
0,56,0,7
0,63,110,4
0,70,113,5
0,53,0,2
0,63,89,1
0,56,66,3
0,70,0,3
0,63,0,5
0,56,0,1
0,63,106,8
0,63,0,7
0,70,99,3
0,53,60,3
0,70,0,10
0,63,0,4
0,53,0,8
0,70,92,5
0,56,63,4
0,63,105,0
0,70,0,14
0,56,0,5
0,70,96,22
0,53,55,2
0,60,105,3
0,70,0,5
0,63,0,3
0,70,97,8
0,53,0,6
0,56,51,1
0,56,0,18
0,70,0,1
0,60,0,1
0,58,108,2
0,70,114,20
0,63,89,10
0,56,73,1
0,70,0,13
0,58,0,5
0,56,103,0
0,41,0,23
0,70,84,3
0,53,74,8
0,70,0,9
0,53,0,4
0,56,0,1
0,58,107,11
0,70,110,8
0,39,89,3
0,70,0,6
0,56,0,24
0,70,97,5
0,51,49,4
0,63,0,5
0,70,0,7
0,51,0,33
0,63,91,9
0,56,69,1
0,70,116,0
0,70,0,22
0,56,0,8
0,63,0,16
0,51,48,1
0,70,100,3
0,58,0,4
0,70,0,9
0,51,0,3
0,56,96,2
0,56,60,10
0,70,102,2
0,56,0,7
0,63,102,0
0,70,0,8
0,56,0,3
0,63,0,21
0,51,38,2
0,70,96,5
0,70,0,12
0,63,96,1
0,51,0,11
0,70,100,0
0,56,45,1
0,63,0,3
0,56,0,9
0,63,107,3
0,70,0,6
0,70,114,16
0,63,0,1
0,63,85,0
0,56,71,1
0,63,100,16
0,70,0,6
0,63,0,14
0,39,0,3
0,63,108,3
0,70,106,4
0,51,55,1
0,51,0,15
0,70,0,2
0,37,85,11
0,70,114,2
0,70,0,18
0,56,0,22
0,49,57,5
0,70,106,1
0,63,0,9
0,70,0,10
0,49,0,29
0,63,91,2
0,56,71,2
0,70,116,1
0,70,0,20
0,56,0,3
0,49,53,18
0,63,0,1
0,70,99,4
0,70,0,11
0,49,0,9
0,56,62,7
0,70,103,0
0,63,0,13
0,70,0,5
0,56,102,5
0,56,0,4
0,49,56,10
0,70,104,2
0,56,0,1
0,70,0,12
0,70,100,12
0,56,91,1
0,56,51,3
0,56,0,2
0,70,0,4
0,56,0,1
0,56,102,10
0,49,0,9
0,70,113,3
0,56,0,5
0,56,78,1
0,63,89,0
0,70,0,17
0,56,91,4
0,56,0,14
0,37,0,3
0,70,71,5
0,58,103,0
0,56,0,1
0,49,50,5
0,70,0,9
0,49,0,10
0,58,0,29
0,70,108,3
0,60,111,3
0,37,69,1
0,70,0,13
0,70,99,22
0,49,54,4
0,63,0,9
0,70,0,3
0,70,110,35
0,49,0,1
0,63,92,4
0,56,71,0
0,70,0,16
0,70,97,31
0,37,0,5
0,49,66,3
0,70,0,3
0,49,0,18
0,70,91,3
0,56,0,8
0,70,0,13
0,39,89,9
0,63,0,8
0,70,95,11
0,51,93,3
0,70,0,8
0,58,60,16
0,70,89,1
0,70,0,18
0,58,0,2
0,51,0,10
0,63,99,2
0,70,107,17
0,70,0,27
0,63,0,1
0,58,92,5
0,39,0,18
0,51,81,7
0,70,95,0
0,58,92,1
0,58,0,2
0,60,0,10
0,70,0,2
0,51,0,3
0,56,92,2
0,58,0,7
0,56,100,6
0,37,95,2
0,49,69,1
0,37,122,0
0,70,120,1
0,63,107,48
0,56,0,2
0,63,0,20
0,63,106,11
0,63,0,15
0,63,93,18
0,63,0,2
0,63,92,10
0,63,0,3
0,60,98,8
0,60,0,3
0,58,103,11
0,58,0,28
0,56,82,12
0,56,0,28
0,53,106,6
0,70,0,137
0,37,0,11
0,49,0,11
0,53,0,44
0,39,96,18
0,56,0,12
0,51,95,13
0,37,0,6
0,58,91,17
0,58,0,20
0,63,99,5
0,51,0,8
0,63,0,24
0,58,93,15
0,39,0,23
0,58,0,4
0,51,92,0
0,51,0,17
0,37,120,5
0,56,110,1
0,25,120,0
0,49,95,1
0,37,95,1
0,70,110,4
0,63,106,32
0,63,0,15
0,63,106,3
0,70,0,21
0,63,0,2
0,63,100,14
0,63,0,33
0,63,93,24
0,60,96,32
0,63,0,12
0,60,0,27
0,58,99,10
0,58,0,47
0,60,96,9
0,60,0,43
0,56,92,8
0,37,0,143
0,56,0,6
0,56,0,4
0,49,0,2
0,56,103,26
0,40,115,9
0,56,0,4
0,60,109,0
0,39,95,4
0,51,97,0
0,63,106,1
0,56,106,0
0,56,0,22
0,63,0,7
0,51,0,5
0,39,0,1
0,40,0,8
0,25,0,2
0,60,0,3
0,58,114,22
0,37,0,1
0,51,95,0
0,39,93,1
0,63,108,1
0,56,96,0
0,40,117,0
0,56,0,17
0,51,0,4
0,39,0,3
0,63,0,1
0,40,0,11
0,58,0,4
0,56,120,21
0,40,117,4
0,51,91,1
0,39,89,1
0,63,104,2
0,56,96,1
0,51,0,12
0,39,0,1
0,40,0,11
0,56,0,2
0,56,0,13
0,37,116,14
0,37,107,1
0,36,112,0
0,56,121,4
0,63,0,9
0,37,0,6
0,36,0,4
0,49,100,23
0,37,113,0
0,36,112,4
0,37,0,23
0,36,0,3
0,49,0,18
0,37,121,1
0,63,108,2
0,56,110,1
0,40,122,6
0,40,0,30
0,37,0,6
0,49,77,3
0,36,107,6
0,49,0,1
0,36,0,10
0,30,111,8
0,32,111,1
0,36,112,1
0,56,0,9
0,30,0,8
0,36,0,4
0,63,0,23
0,44,103,3
0,36,112,2
0,30,91,7
0,32,106,1
0,36,0,5
0,30,0,5
0,32,0,1
0,56,63,7
0,36,111,0
0,56,0,14
0,36,0,11
0,32,121,17
0,40,122,6
0,63,102,3
0,56,102,0
0,44,0,4
0,37,0,7
0,40,0,17
0,32,0,1
0,37,121,19
0,36,111,2
0,44,92,2
0,32,0,8
0,36,0,8
0,44,0,0
0,37,0,16
0,37,120,6
0,56,0,1
0,36,120,4
0,37,105,1
0,36,0,4
0,37,0,6
0,56,0,10
0,37,114,13
0,49,93,5
0,36,113,1
0,63,0,5
0,37,0,11
0,36,0,3
0,37,121,24
0,49,0,7
0,40,122,1
0,63,106,1
0,56,103,1
0,40,0,20
0,37,0,17
0,36,115,9
0,49,77,1
0,49,0,1
0,36,0,6
0,32,121,10
0,37,0,4
0,36,120,0
0,32,111,4
0,56,0,10
0,32,0,4
0,36,0,1
0,32,117,27
0,36,111,5
0,63,0,4
0,44,82,2
0,36,0,5
0,32,0,1
0,32,106,9
0,36,112,3
0,56,44,13
0,32,0,6
0,36,0,2
0,56,0,1
0,31,117,28
0,40,123,3
0,56,111,7
0,44,0,6
0,31,0,4
0,40,0,17
0,56,0,6
0,31,121,9
0,36,110,4
0,32,0,1
0,63,102,6
0,56,99,1
0,36,0,12
0,56,0,26
0,37,122,6
0,31,0,1
0,36,120,1
0,37,97,5
0,36,0,6
0,37,0,5
0,37,121,26
0,36,113,4
0,49,88,3
0,63,0,2
0,37,0,12
0,36,0,0
0,37,123,26
0,40,122,10
0,49,0,1
0,63,107,2
0,56,108,1
0,40,0,19
0,37,0,1
0,56,0,8
0,49,73,14
0,36,111,4
0,49,0,5
0,36,0,6
0,32,121,6
0,32,113,10
0,36,112,1
0,32,0,8
0,36,0,9
0,32,114,24
0,44,97,2
0,36,110,3
0,63,0,1
0,36,0,8
0,32,0,1
0,32,106,11
0,56,91,2
0,36,112,4
0,32,0,17
0,56,0,3
0,36,0,0
0,32,120,25
0,56,97,5
0,63,97,0
0,40,116,0
0,44,0,13
0,32,0,7
0,32,0,1
0,40,0,2
0,32,117,23
0,36,106,5
0,44,91,1
0,56,0,3
0,37,0,11
0,36,0,3
0,44,0,1
0,63,0,6
0,32,0,7
0,39,123,11
0,63,103,5
0,56,96,0
0,39,103,0
0,40,123,0
0,36,116,0
0,56,0,37
0,36,0,0
0,40,0,16
0,63,0,8
0,39,0,21
0,63,107,19
0,40,123,0
0,36,116,0
0,39,122,0
0,56,100,2
0,36,0,15
0,40,0,16
0,56,0,11
0,63,0,8
0,39,0,0
0,51,82,2
0,40,106,0
0,36,96,1
0,40,0,10
0,36,0,0
0,39,114,7
0,40,112,8
0,36,104,0
0,56,97,1
0,63,108,0
0,51,0,14
0,39,0,1
0,56,0,2
0,36,0,2
0,63,0,2
0,40,0,3
0,39,96,20
0,40,113,5
0,36,101,0
0,63,107,3
0,56,99,1
0,39,0,5
0,40,0,2
0,36,0,1
0,39,96,9
0,40,111,4
0,56,0,1
0,36,93,0
0,51,92,4
0,63,0,2
0,36,0,10
0,39,0,3
0,40,0,2
0,39,106,21
0,40,113,9
0,36,88,3
0,51,0,3
0,63,106,0
0,56,93,0
0,36,0,8
0,39,0,3
0,40,0,3
0,39,102,24
0,40,112,9
0,36,96,0
0,51,92,7
0,39,0,6
0,39,0,2
0,36,0,0
0,40,0,2
0,56,0,1
0,63,0,5
0,51,0,9
0,39,118,13
0,40,118,9
0,60,106,0
0,61,113,3
0,56,100,3
0,63,110,0
0,39,99,1
0,51,51,5
0,60,0,3
0,40,0,4
0,51,0,3
0,40,111,30
0,56,0,14
0,40,0,5
0,63,0,2
0,39,0,18
0,40,116,14
0,39,120,4
0,63,108,6
0,56,97,0
0,40,0,12
0,40,110,26
0,56,0,7
0,40,0,5
0,51,81,1
0,63,0,2
0,40,110,14
0,56,96,13
0,63,108,1
0,51,0,4
0,40,0,2
0,56,0,13
0,63,0,5
0,61,0,10
0,40,105,9
0,51,97,10
0,40,0,2
0,61,103,8
0,40,109,4
0,61,0,18
0,40,0,2
0,39,0,1
0,60,48,5
0,59,38,1
0,59,0,5
0,60,0,1
0,61,96,8
0,39,118,6
0,40,112,10
0,63,104,2
0,56,85,1
0,51,0,11
0,40,0,4
0,61,0,16
0,60,111,5
0,40,112,16
0,51,85,1
0,39,0,3
0,51,0,13
0,60,0,4
0,40,0,0
0,39,0,11
0,61,104,2
0,37,120,13
0,36,111,2
0,37,103,1
0,60,88,4
0,56,0,11
0,36,0,2
0,61,0,4
0,60,0,4
0,63,0,9
0,56,107,2
0,58,60,3
0,58,0,4
0,49,89,8
0,36,109,3
0,36,0,20
0,37,0,11
0,49,0,8
0,63,106,8
0,56,97,1
0,40,118,3
0,37,122,2
0,40,0,23
0,37,0,15
0,49,85,3
0,36,106,6
0,49,0,2
0,36,0,10
0,32,113,5
0,32,120,1
0,36,110,4
0,56,0,3
0,36,0,14
0,32,0,3
0,63,0,21
0,44,106,1
0,36,106,5
0,32,117,0
0,36,0,11
0,32,0,8
0,56,96,1
0,36,110,4
0,56,0,18
0,56,0,3
0,36,0,5
0,32,121,23
0,63,107,2
0,40,113,0
0,56,110,1
0,44,0,4
0,40,0,23
0,32,0,17
0,36,99,7
0,44,93,2
0,37,0,8
0,44,0,8
0,36,0,2
0,37,105,12
0,37,122,1
0,36,117,1
0,32,0,10
0,36,0,5
0,56,0,20
0,49,91,6
0,63,0,9
0,36,110,0
0,36,0,21
0,37,0,4
0,49,0,20
0,63,110,1
0,56,106,0
0,40,121,1
0,37,121,0
0,40,0,28
0,37,0,9
0,49,91,9
0,36,99,2
0,49,0,3
0,36,0,6
0,32,111,1
0,36,110,4
0,32,113,1
0,32,0,5
0,36,0,12
0,56,0,3
0,63,0,27
0,44,96,2
0,32,114,0
0,36,106,4
0,32,0,11
0,36,0,1
0,32,105,8
0,56,97,2
0,36,109,2
0,32,0,18
0,56,0,8
0,36,0,1
0,31,111,16
0,40,121,6
0,63,110,6
0,56,110,1
0,44,0,1
0,40,0,25
0,32,0,13
