track,note,velocity,time
0,42,127,214
0,42,0,4
0,42,60,92
0,42,0,4
0,42,108,92
0,42,0,4
0,42,45,92
0,42,0,4
0,31,83,92
0,35,74,0
0,53,88,0
0,81,81,0
0,77,71,0
0,81,58,0
0,81,0,4
0,53,0,0
0,35,0,0
0,65,127,90
0,53,42,1
0,69,127,1
0,40,52,0
0,37,88,2
0,53,0,1
0,40,0,1
0,43,113,0
0,37,0,2
0,65,0,19
0,65,89,1
0,69,0,1
0,69,94,1
0,65,0,13
0,43,0,3
0,69,0,0
0,79,48,43
0,81,0,1
0,77,0,1
0,31,0,2
0,76,66,1
0,53,78,1
0,35,76,3
0,53,0,1
0,33,85,1
0,35,0,2
0,33,0,42
0,64,127,0
0,36,63,2
0,67,127,0
0,48,111,2
0,64,0,13
0,48,0,1
0,67,0,1
0,53,53,28
0,36,0,2
0,64,108,1
0,53,0,1
0,40,52,0
0,33,79,1
0,67,118,0
0,45,127,0
0,37,88,0
0,40,0,3
0,37,0,1
0,64,0,33
0,67,0,2
0,45,0,3
0,33,0,1
0,76,0,1
0,74,65,0
0,79,0,3
0,77,52,0
0,53,92,2
0,31,75,1
0,35,80,1
0,53,0,2
0,35,0,2
0,62,111,86
0,65,127,2
0,43,111,1
0,40,62,3
0,53,61,0
0,37,97,2
0,53,0,2
0,40,0,0
0,37,0,2
0,62,0,23
0,65,0,2
0,43,0,3
0,76,57,56
0,74,0,2
0,53,81,1
0,33,70,3
0,35,78,0
0,53,0,1
0,79,45,0
0,77,0,3
0,31,0,0
0,35,0,0
0,48,111,40
0,64,93,1
0,67,127,2
0,47,101,1
0,33,0,1
0,36,63,0
0,47,0,3
0,36,0,40
0,33,66,2
0,67,0,4
0,38,110,2
0,64,0,2
0,38,0,2
0,48,0,2
0,33,0,17
0,76,0,19
0,79,0,1
0,77,71,2
0,31,69,1
0,35,102,0
0,53,86,0
0,81,81,0
0,81,57,1
0,81,0,3
0,53,0,0
0,35,0,0
0,35,78,44
0,35,0,4
0,43,117,43
0,65,127,1
0,40,61,0
0,53,57,1
0,69,127,1
0,37,96,0
0,40,0,2
0,53,0,1
0,37,0,1
0,43,0,25
0,65,0,15
0,69,0,2
0,33,70,42
0,79,47,0
0,76,70,1
0,81,0,2
0,31,0,0
0,77,0,1
0,53,86,0
0,35,71,2
0,53,0,2
0,35,0,2
0,33,0,40
0,36,63,1
0,64,127,1
0,48,113,1
0,67,127,1
0,64,0,10
0,48,0,2
0,67,0,0
0,36,0,31
0,64,127,3
0,33,63,1
0,45,121,0
0,67,127,1
0,40,64,1
0,37,99,1
0,53,59,0
0,40,0,3
0,53,0,1
0,37,0,0
0,64,0,31
0,67,0,2
0,45,0,4
0,33,0,9
0,74,62,3
0,76,0,4
0,77,46,1
0,35,68,2
0,53,92,0
0,79,0,2
0,31,70,0
0,35,0,2
0,53,0,0
0,62,127,88
0,43,117,0
0,65,127,2
0,35,52,2
0,40,64,0
0,37,99,2
0,53,56,0
0,40,0,2
0,35,0,0
0,37,0,2
0,53,0,0
0,43,0,18
0,62,0,1
0,65,0,2
0,31,0,5
0,31,79,16
0,74,0,47
0,35,70,1
0,53,83,0
0,72,60,1
0,76,32,0
0,77,0,2
0,53,0,1
0,35,0,0
0,31,0,1
0,36,70,1
0,60,127,0
0,48,113,1
0,45,87,0
0,64,127,1
0,45,0,1
0,36,0,2
0,48,0,2
0,38,89,1
0,38,72,1
0,38,0,1
0,64,0,1
0,60,0,3
0,38,0,23
0,41,57,0
0,69,39,0
0,72,51,0
0,48,52,0
0,35,79,0
0,42,55,0
0,63,73,0
0,69,93,1
0,65,39,0
0,63,0,3
0,42,0,0
0,35,0,0
0,48,57,2
0,72,0,3
0,76,0,0
0,62,57,39
0,64,48,0
0,64,0,3
0,62,0,0
0,62,50,12
0,62,0,4
0,36,51,18
0,62,96,2
0,53,51,2
0,38,91,0
0,44,83,0
0,62,0,1
0,38,0,2
0,44,0,0
0,53,56,1
0,41,0,2
0,57,50,35
0,42,62,0
0,64,48,0
0,63,49,0
0,43,68,0
0,63,0,2
0,64,0,0
0,42,0,0
0,57,55,0
0,53,0,6
0,53,0,6
0,42,17,2
0,63,30,0
0,63,0,4
0,42,0,0
0,69,0,14
0,36,0,2
0,45,68,4
0,35,84,0
0,42,80,0
0,63,73,0
0,43,0,1
0,42,0,3
0,35,0,0
0,63,0,0
0,45,0,40
0,41,55,3
0,35,53,1
0,64,48,0
0,62,57,0
0,53,47,2
0,42,61,0
0,57,0,1
0,62,0,1
0,64,0,0
0,35,0,0
0,42,0,2
0,53,51,2
0,57,0,1
0,62,50,15
0,42,26,2
0,62,0,2
0,42,0,2
0,36,64,18
0,62,96,0
0,38,88,2
0,42,85,0
0,62,0,2
0,38,0,2
0,41,0,0
0,42,0,0
0,48,0,14
0,48,0,6
0,69,0,21
0,70,41,0
0,48,38,1
0,42,68,0
0,64,46,0
0,63,57,0
0,74,50,1
0,72,0,1
0,53,0,1
0,63,0,1
0,42,0,0
0,64,0,0
0,48,41,2
0,53,0,3
0,42,34,13
0,63,52,0
0,70,0,1
0,69,34,1
0,63,0,2
0,42,0,0
0,36,0,10
0,69,0,11
0,29,50,0
0,41,61,1
0,35,78,0
0,42,83,0
0,63,77,0
0,70,42,1
0,63,0,3
0,42,0,0
0,35,0,0
0,48,0,30
0,48,0,6
0,74,0,0
0,72,42,2
0,64,46,6
0,62,55,0
0,48,38,1
0,70,0,1
0,42,60,0
0,62,0,2
0,64,0,0
0,42,0,2
0,69,30,0
0,48,41,1
0,62,34,17
0,42,16,2
0,62,0,2
0,42,0,2
0,53,46,15
0,36,57,3
0,62,86,0
0,38,93,2
0,42,79,0
0,53,50,1
0,62,0,1
0,41,0,0
0,38,0,2
0,42,0,0
0,43,55,40
0,69,80,2
0,42,64,0
0,64,53,0
0,63,52,0
0,57,57,3
0,63,0,1
0,64,0,0
0,42,0,0
0,29,0,1
0,57,62,4
0,69,0,9
0,53,0,6
0,42,18,0
0,63,31,0
0,63,0,4
0,42,0,0
0,53,0,2
0,43,0,12
0,69,95,4
0,45,60,1
0,35,78,1
0,42,86,0
0,63,81,0
0,36,0,1
0,35,0,3
0,63,0,0
0,42,0,0
0,69,0,35
0,70,80,5
0,53,49,0
0,45,0,2
0,46,72,0
0,35,62,2
0,64,53,0
0,62,63,0
0,42,66,2
0,53,53,0
0,62,0,2
0,64,0,0
0,35,0,0
0,42,0,2
0,57,0,7
0,57,0,6
0,62,46,5
0,70,0,2
0,42,24,0
0,62,0,2
0,42,0,2
0,48,0,1
0,48,0,6
0,72,86,7
0,46,0,2
0,48,76,2
0,62,90,0
0,48,40,1
0,38,85,1
0,42,82,0
0,62,0,2
0,42,0,2
0,38,0,0
0,48,44,1
0,53,0,26
0,53,0,6
0,48,0,4
0,50,65,5
0,42,63,0
0,64,53,0
0,63,50,0
0,63,0,4
0,64,0,0
0,42,0,0
0,72,0,4
0,69,0,8
0,44,40,10
0,63,19,0
0,63,0,4
0,44,0,0
0,72,0,7
0,65,0,1
0,50,0,1
0,76,92,3
0,38,71,3
0,65,39,0
0,72,45,0
0,35,88,0
0,42,75,0
0,63,67,0
0,76,31,0
0,63,0,3
0,42,0,0
0,35,0,0
0,48,0,11
0,48,0,6
0,64,53,22
0,62,63,0
0,50,50,2
0,42,66,0
0,62,0,2
0,64,0,0
0,42,0,2
0,50,55,2
0,62,58,16
0,42,31,2
0,62,0,2
0,42,0,2
0,76,0,17
0,57,53,1
0,62,96,0
0,72,85,2
0,38,89,0
0,42,85,0
0,62,0,2
0,42,0,2
0,38,0,0
0,57,58,0
0,72,0,7
0,42,50,35
0,64,55,0
0,63,33,0
0,60,52,1
0,72,103,2
0,63,0,1
0,64,0,0
0,42,0,0
0,45,64,1
0,60,57,2
0,38,0,2
0,42,14,15
0,63,17,0
0,63,0,4
0,42,0,0
0,60,0,2
0,35,67,2
0,42,89,0
0,63,53,0
0,60,0,2
0,64,54,1
0,35,0,1
0,63,0,0
0,42,0,0
0,64,59,0
0,72,0,2
0,35,68,33
0,64,55,0
0,62,66,0
0,42,67,2
0,62,0,2
0,64,0,0
0,35,0,0
0,42,0,2
0,62,48,18
0,57,0,2
0,42,25,0
0,62,0,2
0,42,0,2
0,57,0,2
0,64,0,10
0,60,48,5
0,64,0,1
0,62,92,0
0,48,44,2
0,38,89,0
0,42,83,0
0,45,0,1
0,50,0,0
0,62,0,1
0,60,52,1
0,42,0,1
0,38,0,0
0,50,0,3
0,48,0,12
0,48,50,3
0,48,0,22
0,42,70,2
0,64,57,0
0,63,60,0
0,49,56,3
0,63,0,1
0,64,0,0
0,42,0,0
0,57,42,2
0,60,0,6
0,57,46,0
0,60,0,6
0,42,22,8
0,63,36,0
0,63,0,4
0,42,0,0
0,57,0,10
0,57,0,6
0,50,50,2
0,35,88,0
0,42,91,0
0,63,88,0
0,49,0,1
0,63,0,3
0,35,0,0
0,42,0,0
0,64,57,44
0,62,68,0
0,50,45,2
0,42,68,0
0,62,0,2
0,64,0,0
0,42,0,2
0,50,49,2
0,62,66,16
0,42,36,2
0,62,0,2
0,42,0,2
0,57,51,17
0,45,60,1
0,62,90,0
0,50,0,2
0,38,77,0
0,42,82,0
0,62,0,2
0,57,56,1
0,42,0,1
0,38,0,0
0,60,55,42
0,42,69,0
0,64,63,0
0,63,58,0
0,65,74,1
0,38,60,2
0,63,0,1
0,42,0,0
0,64,0,0
0,60,60,2
0,45,0,5
0,65,0,6
0,42,33,7
0,63,50,0
0,63,0,4
0,42,0,0
0,60,0,16
0,69,83,3
0,64,54,1
0,35,70,0
0,42,74,0
0,63,66,0
0,60,0,2
0,63,0,2
0,35,0,0
0,42,0,0
0,64,59,2
0,69,0,36
0,70,82,4
0,60,58,0
0,53,50,1
0,35,53,1
0,64,63,0
0,62,75,0
0,42,73,2
0,62,0,2
0,64,0,0
0,35,0,0
0,60,63,0
0,57,0,1
0,42,0,1
0,64,0,4
0,57,0,1
0,64,0,5
0,70,0,4
0,62,52,4
0,42,27,2
0,62,0,2
0,42,0,2
0,72,81,15
0,57,49,0
0,55,50,1
0,62,66,2
0,53,0,2
0,50,0,0
0,38,77,0
0,42,67,0
0,57,53,1
0,60,0,1
0,62,0,0
0,42,0,2
0,38,0,0
0,50,0,2
0,60,0,2
0,50,44,36
0,42,66,2
0,64,55,0
0,63,53,0
0,52,40,3
0,63,0,1
0,42,0,0
0,64,0,0
0,50,48,0
0,57,0,3
0,55,0,0
0,72,0,2
0,57,0,4
0,42,44,1
0,63,66,0
0,65,0,1
0,72,0,2
0,63,0,1
0,42,0,0
0,38,0,2
0,34,42,1
0,74,92,1
0,76,0,1
0,52,0,2
0,50,0,0
0,46,70,0
0,70,46,0
0,35,78,0
0,42,74,0
0,63,66,0
0,65,30,0
0,77,35,1
0,63,0,1
0,42,0,0
0,35,0,0
0,74,31,0
0,50,0,2
0,64,55,31
0,62,66,0
0,42,67,2
0,62,0,2
0,64,0,0
0,53,46,1
0,42,0,1
0,53,50,5
0,62,66,13
0,42,36,2
0,62,0,2
0,42,0,2
0,74,0,15
0,48,55,3
0,62,101,0
0,46,0,1
0,70,86,1
0,58,61,0
0,38,90,0
0,42,89,0
0,62,0,2
0,42,0,2
0,38,0,0
0,58,67,2
0,70,0,14
0,48,0,23
0,42,62,3
0,64,29,0
0,63,49,0
0,48,37,2
0,62,60,1
0,63,0,1
0,42,0,0
0,64,0,0
0,70,89,1
0,62,66,4
0,58,0,9
0,58,0,6
0,42,34,0
0,63,52,0
0,63,0,4
0,42,0,0
0,70,0,13
0,48,0,7
0,35,77,0
0,42,83,0
0,63,77,0
0,65,63,1
0,50,50,1
0,63,0,2
0,35,0,0
0,42,0,0
0,62,0,1
0,65,69,2
0,62,0,4
0,35,60,37
0,64,29,0
0,62,34,0
0,42,47,2
0,62,0,2
0,64,0,0
0,35,0,0
0,42,0,2
0,62,69,18
0,42,38,2
0,62,0,2
0,42,0,2
0,53,0,12
0,65,0,1
0,62,53,1
0,53,0,4
0,41,46,0
0,62,108,0
0,65,0,1
0,38,91,1
0,42,93,0
0,62,58,0
0,62,0,2
0,42,0,2
0,38,0,0
0,50,0,0
0,42,48,42
0,64,48,0
0,63,30,0
0,62,0,1
0,58,46,1
0,42,0,2
0,63,0,0
0,64,0,0
0,62,0,3
0,58,50,1
0,42,31,19
0,63,49,0
0,63,0,4
0,42,0,0
0,41,0,7
0,34,0,4
0,34,48,5
0,58,0,1
0,46,58,0
0,35,81,0
0,42,80,0
0,63,73,0
0,63,0,4
0,42,0,0
0,35,0,0
0,58,0,2
0,64,48,42
0,62,57,0
0,42,61,2
0,62,0,2
0,64,0,0
0,53,51,0
0,42,0,2
0,53,56,4
0,62,62,14
0,42,34,2
0,62,0,2
0,42,0,2
0,62,105,18
0,58,43,1
0,48,64,1
0,38,89,0
0,42,91,0
0,62,0,2
0,46,0,2
0,42,0,0
0,38,0,0
0,58,47,1
0,48,0,31
0,42,60,10
0,64,62,0
0,63,46,0
0,48,61,2
0,62,43,0
0,63,0,2
0,42,0,0
0,64,0,0
0,65,71,1
0,62,47,3
0,58,0,5
0,58,0,6
0,42,33,5
0,63,50,0
0,65,0,3
0,63,0,1
0,42,0,0
0,62,0,14
0,62,0,6
0,48,0,0
0,50,60,0
0,62,69,0
0,35,67,0
0,42,83,0
0,63,77,0
0,63,0,4
0,35,0,0
0,53,0,0
0,42,0,0
0,70,86,1
0,62,75,1
0,53,0,4
0,70,0,31
0,58,43,5
0,50,0,1
0,41,45,1
0,35,64,0
0,64,62,0
0,62,74,0
0,42,72,2
0,62,0,2
0,35,0,0
0,64,0,0
0,58,47,0
0,42,0,2
0,62,58,18
0,70,87,1
0,42,31,1
0,62,0,2
0,42,0,2
0,62,0,4
0,58,0,5
0,62,0,1
0,58,0,5
0,58,73,2
0,62,72,1
0,46,55,2
0,38,94,0
0,42,70,0
0,41,0,1
0,62,0,1
0,58,80,1
0,38,0,1
0,42,0,0
0,70,0,7
0,70,107,30
0,42,67,5
0,64,49,0
0,63,55,0
0,53,41,2
0,63,0,2
0,42,0,0
0,64,0,0
0,53,45,4
0,70,0,8
0,44,50,11
0,63,33,0
0,63,0,4
0,44,0,0
0,58,0,5
0,77,0,3
0,58,0,3
0,70,0,1
0,34,0,2
0,72,87,1
0,74,0,1
0,83,37,0
0,46,0,1
0,53,0,0
0,65,0,0
0,49,63,0
0,35,82,0
0,42,69,0
0,63,58,0
0,37,50,2
0,77,51,0
0,73,31,1
0,63,0,1
0,42,0,0
0,35,0,0
0,84,60,0
0,53,0,1
0,96,21,0
0,83,0,1
0,64,49,3
0,62,58,0
0,58,66,1
0,42,62,0
0,62,0,2
0,64,0,0
0,42,0,1
0,58,72,2
0,62,42,5
0,42,22,2
0,62,0,2
0,42,0,2
0,49,0,2
0,62,74,3
0,49,55,1
0,38,89,1
0,42,72,0
0,62,0,2
0,38,0,2
0,42,0,0
0,61,72,0
0,61,79,6
0,58,0,1
0,58,0,6
0,49,0,1
0,42,62,3
0,64,57,0
0,63,49,0
0,49,42,3
0,63,0,1
0,64,0,0
0,42,0,0
0,65,68,1
0,61,0,5
0,65,74,1
0,61,0,1
0,42,16,1
0,63,29,0
0,63,0,2
0,42,0,0
0,65,0,4
0,65,0,6
0,49,0,2
0,49,61,6
0,35,70,0
0,42,85,0
0,63,80,0
0,70,74,3
0,63,0,1
0,42,0,0
0,35,0,0
0,70,70,1
0,72,0,3
0,70,81,1
0,35,62,8
0,64,57,0
0,62,68,0
0,42,68,2
0,62,0,2
0,35,0,0
0,64,0,0
0,42,0,2
0,62,18,18
0,42,23,2
0,62,0,2
0,42,0,2
0,49,0,4
0,46,60,10
0,61,58,4
0,62,92,0
0,38,106,2
0,42,83,0
0,62,0,2
0,42,0,2
0,38,0,0
0,61,63,0
0,70,0,4
0,70,0,6
0,42,70,32
0,64,48,0
0,63,60,0
0,49,46,2
0,58,50,1
