track,note,velocity,time
0,36,118,1896
0,42,113,0
0,38,125,368
0,42,100,0
0,42,91,368
0,36,125,0
0,38,125,368
0,42,91,0
0,42,91,368
0,36,118,0
0,42,113,368
0,38,125,0
0,36,109,368
0,42,100,0
0,36,109,176
0,42,100,176
0,38,125,0
0,46,100,176
0,42,120,176
0,36,118,0
0,38,125,368
0,42,113,0
0,42,113,368
0,36,118,0
0,42,113,368
0,38,125,0
0,42,113,368
0,36,125,0
0,42,113,368
0,38,125,0
0,42,113,368
0,36,118,0
0,36,118,176
0,42,113,176
0,38,125,0
0,46,113,176
0,42,120,176
0,36,125,0
0,38,125,368
0,42,100,0
0,42,113,368
0,36,125,0
0,38,118,368
0,42,91,0
0,36,118,368
0,42,113,0
0,42,83,368
0,38,125,0
0,36,125,368
0,42,100,0
0,36,125,176
0,42,113,176
0,38,125,0
0,46,83,176
0,42,120,176
0,36,118,0
0,42,113,368
0,38,125,0
0,36,125,368
0,42,113,0
0,36,125,176
0,38,118,176
0,42,100,0
0,46,100,176
0,42,120,176
0,36,125,0
0,36,118,368
0,36,118,368
0,36,118,368
0,62,127,176
0,58,100,0
0,46,120,0
0,53,127,0
0,62,100,0
0,53,100,0
0,58,127,0
0,31,110,0
0,42,113,176
0,36,118,0
0,31,127,0
0,31,110,122
0,38,125,0
0,42,100,0
0,43,80,0
0,31,127,0
0,31,110,162
0,43,88,0
0,42,91,0
0,36,125,0
0,31,127,0
0,43,100,28
0,42,91,142
0,38,125,0
0,31,127,0
0,31,110,0
0,53,116,0
0,42,91,166
0,36,118,0
0,31,127,0
0,55,109,0
0,31,110,0
0,38,125,152
0,31,127,0
0,42,113,0
0,31,110,0
0,43,100,80
0,58,91,14
0,62,88,0
0,67,80,0
0,42,100,114
0,31,127,0
0,31,110,0
0,36,109,0
0,36,109,34
0,42,100,142
0,31,127,0
0,43,88,0
0,38,125,0
0,31,110,0
0,62,100,82
0,53,127,0
0,58,100,0
0,46,100,0
0,62,127,0
0,58,127,0
0,53,100,0
0,36,110,124
0,36,127,0
0,36,118,0
0,42,120,0
0,55,100,74
0,48,100,0
0,36,127,0
0,58,100,0
0,38,125,0
0,36,110,0
0,63,100,0
0,58,127,0
0,42,113,0
0,63,127,0
0,55,127,0
0,42,113,148
0,58,100,0
0,53,100,0
0,36,127,0
0,36,118,0
0,62,127,0
0,53,127,0
0,62,100,0
0,36,110,0
0,58,127,0
0,48,109,12
0,63,100,152
0,42,113,0
0,53,116,0
0,55,100,0
0,38,125,0
0,63,127,0
0,36,110,0
0,36,127,0
0,58,127,0
0,58,100,0
0,55,127,0
0,58,100,148
0,53,127,0
0,36,127,0
0,42,113,0
0,53,100,0
0,62,100,0
0,36,125,0
0,36,110,0
0,55,116,0
0,62,127,0
0,58,127,0
0,42,113,154
0,38,125,0
0,36,127,0
0,36,110,0
0,48,100,0
0,58,127,60
0,55,100,0
0,58,100,0
0,63,100,0
0,55,127,0
0,63,127,0
0,48,88,176
0,36,110,0
0,36,118,0
0,42,113,0
0,36,127,0
0,36,118,16
0,36,110,0
0,62,109,0
0,67,88,0
0,58,91,0
0,38,125,0
0,38,110,0
0,36,127,0
0,42,113,0
0,53,127,76
0,53,100,0
0,58,127,0
0,62,100,0
0,58,100,0
0,46,113,0
0,62,127,0
0,42,113,152
0,36,118,0
0,27,127,0
0,39,110,0
0,39,104,0
0,63,127,76
0,42,100,0
0,63,100,0
0,55,100,0
0,39,110,0
0,55,127,0
0,38,125,0
0,58,127,0
0,27,127,0
0,58,100,0
0,39,111,0
0,53,100,142
0,53,127,0
0,39,104,0
0,27,127,0
0,39,110,0
0,58,127,0
0,62,127,0
0,62,100,0
0,42,91,0
0,36,125,0
0,58,100,0
0,39,104,4
0,55,127,136
0,63,127,0
0,58,127,0
0,39,110,0
0,63,100,0
0,53,109,0
0,27,127,0
0,42,91,0
0,55,100,0
0,58,100,0
0,38,125,0
0,27,127,142
0,55,116,0
0,58,100,0
0,39,110,0
0,53,100,0
0,36,118,0
0,62,100,0
0,42,91,0
0,53,127,0
0,58,127,0
0,62,127,0
0,39,110,136
0,42,113,0
0,39,104,0
0,27,127,0
0,38,125,0
0,55,127,42
0,58,100,0
0,55,100,0
0,58,127,0
0,63,127,0
0,63,100,0
0,27,127,148
0,39,110,0
0,36,109,0
0,42,100,0
0,39,82,0
0,36,109,24
0,38,125,4
0,39,110,0
0,42,100,0
0,27,127,0
0,55,100,40
0,60,127,0
0,46,100,0
0,55,127,0
0,60,100,0
0,63,100,0
0,41,110,0
0,63,127,0
0,42,120,20
0,34,110,0
0,34,127,0
0,36,118,0
0,42,113,120
0,34,104,0
0,38,125,0
0,34,127,0
0,34,110,0
0,62,100,34
0,58,100,0
0,58,127,0
0,62,127,0
0,53,127,0
0,53,100,0
0,34,127,156
0,36,118,0
0,42,113,0
0,34,110,0
0,34,104,0
0,38,125,156
0,34,110,0
0,34,127,0
0,42,113,0
0,42,113,132
0,34,91,0
0,36,125,0
0,34,110,0
0,34,127,0
0,58,104,166
0,34,91,96
0,34,110,0
0,38,125,0
0,34,127,0
0,42,113,0
0,34,104,12
0,58,104,126
0,34,110,0
0,36,118,0
0,42,113,0
0,34,127,0
0,58,104,138
0,36,118,0
0,38,125,46
0,33,110,0
0,42,113,0
0,33,127,0
0,58,100,88
0,62,100,0
0,58,127,0
0,53,127,0
0,62,127,0
0,53,100,0
0,46,113,0
0,31,127,62
0,31,110,0
0,42,113,0
0,36,118,0
0,31,110,122
0,31,127,0
0,42,100,0
0,38,125,0
0,43,80,0
0,31,110,150
0,36,125,0
0,42,91,0
0,31,127,0
0,43,88,0
0,43,100,2
0,31,110,144
0,42,91,0
0,31,127,0
0,38,125,0
0,53,116,0
0,31,110,138
0,42,91,0
0,36,118,0
0,31,127,0
0,55,109,0
0,31,127,136
0,42,113,0
0,38,125,0
0,31,110,0
0,43,100,80
0,67,80,30
0,62,88,0
0,58,91,0
0,42,100,18
0,36,109,0
0,58,100,0
0,31,110,0
0,31,127,0
0,36,109,0
0,60,100,0
0,43,88,14
0,42,100,0
0,31,110,0
0,38,125,0
0,31,127,0
0,62,100,0
0,62,127,50
0,34,110,0
0,58,100,0
0,46,100,0
0,53,127,0
0,53,100,0
0,58,127,0
0,62,100,0
0,24,127,44
0,36,118,0
0,42,120,0
0,36,110,0
0,36,110,90
0,48,100,0
0,58,127,0
0,63,127,0
0,24,127,0
0,55,100,0
0,63,100,0
0,58,100,0
0,42,113,0
0,38,125,0
0,55,127,0
0,62,100,166
0,36,110,0
0,58,100,0
0,53,127,0
0,24,127,0
0,62,127,0
0,53,100,0
0,36,118,0
0,58,127,0
0,42,113,0
0,48,109,8
0,63,100,152
0,55,127,0
0,58,127,0
0,63,127,0
0,58,100,0
0,24,127,0
0,36,110,0
0,53,116,0
0,55,100,0
0,42,113,0
0,38,125,0
0,58,127,164
0,42,113,0
0,24,127,0
0,36,110,0
0,58,100,0
0,62,100,0
0,55,116,0
0,53,127,0
0,36,125,0
0,62,127,0
0,53,100,0
0,38,125,6
0,42,113,0
0,24,127,0
0,36,110,0
0,48,100,0
0,55,100,18
0,58,100,0
0,55,127,0
0,58,127,0
0,63,100,0
0,63,127,0
0,42,113,156
0,36,110,0
0,48,88,0
0,24,127,0
0,36,118,0
0,67,88,4
0,36,110,0
0,36,118,0
0,58,91,0
0,62,109,0
0,42,113,114
0,38,110,0
0,38,125,0
0,24,127,0
0,62,100,14
0,58,100,0
0,53,127,0
0,53,100,0
0,58,127,0
0,62,127,0
0,46,113,0
0,42,113,114
0,39,110,0
0,39,104,0
0,27,127,0
0,36,118,0
0,27,127,100
0,39,110,0
0,58,127,0
0,38,125,0
0,42,100,0
0,39,111,0
0,55,100,0
0,58,100,0
0,63,100,0
0,55,127,0
0,63,127,0
0,62,127,138
0,39,110,0
0,27,127,0
0,58,127,0
0,62,100,0
0,42,91,0
0,36,125,0
0,53,127,0
0,39,104,0
0,58,100,0
0,53,100,0
0,39,104,2
0,63,127,148
0,58,127,0
0,27,127,0
0,63,100,0
0,53,109,0
0,55,127,0
0,58,100,0
0,39,110,0
0,42,91,0
0,38,125,0
0,55,100,0
0,53,100,150
0,62,127,0
0,58,127,0
0,53,127,0
0,62,100,0
0,27,127,0
0,55,116,0
0,36,118,0
0,58,100,0
0,42,91,0
0,39,110,0
0,42,113,166
0,39,104,0
0,38,125,0
0,39,110,0
0,27,127,0
0,58,100,42
0,55,100,0
0,55,127,0
0,58,127,0
0,63,127,0
0,63,100,0
0,39,82,166
0,36,109,0
0,27,127,0
0,39,110,0
0,42,100,0
0,36,109,0
0,39,110,20
0,27,127,0
0,42,100,0
0,38,125,0
0,67,100,58
0,46,100,0
0,63,100,0
0,63,127,0
0,55,127,0
0,72,100,0
0,60,127,0
0,34,110,176
0,36,118,0
0,34,127,0
0,42,120,0
0,34,110,166
0,38,125,0
0,34,104,0
0,42,113,0
0,34,127,0
0,70,100,46
0,53,127,0
0,58,127,0
0,62,100,0
0,62,127,0
0,65,100,0
0,34,110,172
0,36,118,0
0,34,104,0
0,42,113,0
0,34,127,0
0,42,113,154
0,38,125,0
0,34,110,0
0,34,127,0
0,34,127,4
0,34,91,0
0,34,110,0
0,42,120,0
0,36,125,0
0,58,104,10
0,46,110,0
0,34,91,84
0,36,118,0
0,34,127,0
0,34,110,0
0,46,110,164
0,34,104,0
0,58,104,102
0,36,118,0
0,34,110,0
0,34,127,0
0,58,104,138
0,46,110,0
0,34,110,68
0,34,127,0
0,62,103,0
0,36,118,0
0,46,110,8
0,67,117,0
0,46,120,0
0,53,127,8
0,31,110,0
0,62,127,0
0,58,127,0
0,42,113,0
0,36,118,0
0,31,127,0
0,31,116,0
0,67,92,10
0,31,127,56
0,38,125,0
0,31,116,0
0,42,100,0
0,31,110,0
0,43,109,60
0,67,119,0
0,31,80,116
0,36,125,0
0,42,91,0
0,31,127,0
0,31,110,0
0,67,111,10
0,31,109,0
0,38,125,6
0,31,127,0
0,42,91,0
0,53,116,0
0,31,110,0
0,31,100,4
0,67,112,0
0,31,127,32
0,36,118,0
0,55,109,0
0,31,110,0
0,42,91,0
0,31,127,2
0,31,109,0
0,38,125,0
0,67,89,0
0,42,113,0
0,31,110,0
0,58,91,12
0,67,115,0
0,62,100,0
0,67,100,0
0,36,109,4
0,31,127,0
0,31,110,0
0,42,100,0
0,65,107,6
0,36,109,0
0,42,100,12
0,31,110,0
0,38,125,0
0,31,127,0
0,31,100,0
0,46,100,4
0,65,114,0
0,36,110,60
0,24,127,0
0,36,118,0
0,62,127,0
0,36,116,0
0,53,127,0
0,42,120,0
0,58,127,0
0,63,118,94
0,24,127,154
0,36,110,0
0,36,109,0
0,42,113,0
0,38,125,0
0,48,66,6
0,63,127,0
0,58,127,0
0,55,127,0
0,36,100,22
0,36,110,0
0,42,113,0
0,24,127,0
0,36,118,0
0,36,116,62
0,53,116,100
0,36,110,0
0,24,127,0
0,42,113,0
0,38,125,0
0,36,109,4
0,42,113,110
0,36,110,0
0,24,127,0
0,36,125,0
0,55,116,0
0,36,109,110
0,36,110,142
0,36,80,0
0,38,125,0
0,42,113,0
0,24,127,0
0,36,110,176
0,36,118,0
0,24,127,0
0,36,109,0
0,42,113,0
0,36,110,2
0,62,100,0
0,67,88,0
0,58,104,0
0,36,118,0
0,36,109,110
0,42,113,0
0,38,110,0
0,24,127,0
0,63,103,0
0,38,125,0
0,46,113,38
0,42,113,128
0,53,127,0
0,65,115,0
0,39,111,0
0,39,110,0
0,36,118,0
0,58,127,0
0,27,127,0
0,62,127,0
0,65,88,6
0,39,110,0
0,38,125,0
0,42,100,0
0,27,127,0
0,39,111,0
0,63,127,18
0,55,127,0
0,65,108,0
0,58,127,0
0,39,111,2
0,39,110,0
0,42,91,0
0,36,125,0
0,27,127,0
0,39,111,20
0,27,127,34
0,70,120,0
0,38,125,0
0,53,109,0
0,42,91,0
0,39,110,0
0,39,104,78
0,55,109,14
0,36,118,0
0,27,127,0
0,67,117,0
0,39,110,0
0,42,91,0
0,65,108,14
0,39,111,20
0,42,113,0
0,38,125,0
0,27,127,0
0,39,110,0
0,67,119,4
0,36,109,6
0,39,111,0
0,39,110,0
0,42,100,0
0,27,127,0
0,36,109,12
0,53,100,0
0,27,127,6
0,58,101,0
0,39,104,0
0,42,100,0
0,39,110,0
0,38,125,0
0,41,110,16
0,29,127,0
0,46,100,0
0,62,112,0
0,55,127,20
0,42,120,0
0,34,104,0
0,36,118,0
0,34,110,0
0,58,127,0
0,63,127,0
0,34,127,0
0,38,125,120
0,42,113,0
0,34,127,0
0,34,104,0
0,34,110,0
0,53,127,8
0,62,127,0
0,58,127,0
0,34,127,52
0,34,110,0
0,34,111,0
0,42,113,0
0,36,118,0
0,34,127,156
0,34,110,0
0,38,125,0
0,42,113,0
0,34,111,0
0,42,113,132
0,34,110,0
0,34,127,0
0,34,104,0
0,36,125,0
0,58,111,114
0,42,113,98
0,38,125,0
0,34,127,0
0,34,104,0
0,34,110,0
0,34,111,152
0,58,104,92
0,36,118,0
0,42,113,0
0,29,127,0
0,29,110,0
0,58,111,160
0,36,118,0
0,30,127,120
0,62,108,0
0,42,113,0
0,38,125,0
0,30,110,0
0,34,111,0
0,46,113,4
0,67,126,0
0,31,109,8
0,62,127,0
0,36,118,0
0,31,110,0
0,58,127,0
0,31,127,0
0,42,113,0
0,53,127,0
0,67,111,8
0,42,100,116
0,31,127,0
0,31,110,0
0,38,125,0
0,31,109,0
0,43,116,118
0,67,119,0
0,31,110,14
0,31,127,0
0,31,109,0
0,36,125,0
0,42,91,0
0,31,116,8
0,31,127,6
0,31,110,0
0,67,117,0
0,53,116,0
0,42,91,0
0,38,125,0
0,31,88,12
0,65,77,0
0,31,127,8
0,42,91,0
0,36,118,0
0,55,116,0
0,31,110,0
0,67,117,0
0,31,110,16
0,31,109,0
0,31,127,0
0,38,125,0
0,67,86,0
0,42,113,0
0,62,100,2
0,58,91,0
0,67,88,0
0,67,126,0
0,31,110,36
0,36,109,0
0,31,127,0
0,31,88,0
0,42,100,0
0,65,92,14
0,36,109,0
0,31,110,46
0,38,125,0
0,31,109,0
0,31,127,0
0,42,100,0
0,65,117,62
0,34,110,0
0,46,100,0
0,36,118,44
0,36,110,0
0,36,100,0
0,42,120,0
0,58,127,0
0,53,127,0
0,36,127,0
0,62,127,0
0,63,118,82
0,36,110,16
0,38,125,0
0,42,113,0
0,36,100,0
0,36,127,0
0,58,127,14
0,63,127,0
0,55,127,0
0,36,127,128
0,36,118,0
0,36,110,0
0,36,109,0
0,42,113,0
0,36,116,46
0,38,125,100
0,36,127,0
0,36,110,0
0,42,113,0
0,53,100,0
0,36,109,110
0,36,125,122
0,55,116,0
0,36,127,0
0,36,110,0
0,42,113,0
0,36,116,96
0,36,109,116
0,38,125,0
0,36,127,0
0,42,113,0
0,36,110,0
0,55,116,116
0,36,110,122
0,36,127,0
0,42,113,0
0,36,118,0
0,36,109,24
0,36,110,0
0,36,118,0
0,36,127,82
0,38,125,0
0,65,98,0
0,42,113,0
0,38,109,0
0,38,110,0
0,65,119,54
0,46,113,0
0,62,127,12
0,39,110,0
0,58,127,0
0,27,127,0
0,53,127,0
0,36,118,0
0,42,113,0
0,39,111,0
0,27,127,12
0,65,114,0
0,39,111,0
0,39,110,0
0,38,125,0
0,42,100,0
0,55,127,10
0,63,127,0
0,58,127,0
0,27,127,4
0,65,115,0
0,42,91,0
0,39,111,0
0,39,110,0
0,36,125,0
0,39,111,18
0,42,91,42
0,38,125,0
0,53,109,0
0,39,110,0
0,70,106,0
0,27,127,0
0,39,111,8
0,42,91,66
0,55,116,0
0,36,118,0
0,27,127,0
0,39,110,0
0,67,114,0
0,39,111,80
0,42,113,68
0,39,110,0
0,27,127,0
0,65,103,0
0,38,125,0
0,67,122,106
0,39,111,0
0,27,127,6
0,36,109,0
0,42,100,0
0,39,110,0
0,36,109,0
0,39,111,0
