track,note,velocity,time
1,57,59,360
1,61,70,0
1,55,59,0
1,55,0,60
1,61,0,0
1,57,0,0
1,61,76,60
1,55,64,0
1,57,64,0
1,57,0,360
1,55,0,0
1,61,0,0
1,55,59,0
1,61,70,0
1,57,59,0
1,57,0,60
1,61,0,0
1,55,0,0
1,55,63,60
1,62,75,0
1,57,63,0
1,57,0,360
1,62,0,0
1,55,0,0
1,57,59,0
1,55,59,0
1,64,70,0
1,64,0,60
1,55,0,0
1,57,0,0
1,54,68,60
1,57,68,0
1,66,80,0
1,62,68,0
1,62,0,931
1,54,0,0
1,57,0,0
1,66,0,0
1,57,68,29
1,54,68,0
1,66,80,0
1,62,68,0
1,62,0,815
1,57,0,0
1,54,0,0
1,66,0,0
1,66,67,25
1,66,0,120
1,67,75,0
1,57,66,0
1,67,0,360
1,66,70,0
1,57,0,106
1,66,0,14
1,64,74,0
1,57,66,0
1,64,0,120
1,66,66,0
1,66,0,120
1,64,66,0
1,64,0,120
1,62,70,0
1,57,0,106
1,62,0,14
1,69,80,0
1,57,68,0
1,64,68,0
1,64,0,931
1,57,0,0
1,69,0,0
1,57,68,29
1,69,80,0
1,64,68,0
1,64,0,815
1,69,0,0
1,57,0,0
1,69,67,25
1,69,0,120
1,71,75,0
1,64,66,0
1,71,0,120
1,73,66,0
1,73,0,120
1,71,68,0
1,71,0,120
1,69,70,0
1,64,0,106
1,69,0,14
1,64,66,0
1,71,74,0
1,71,0,360
1,73,70,0
1,73,0,120
1,64,0,0
1,66,68,0
1,71,68,0
1,62,68,0
1,74,80,0
1,74,0,931
1,66,0,0
1,71,0,0
1,62,0,0
1,62,68,29
1,66,68,0
1,74,80,0
1,71,68,0
1,71,0,710
1,62,0,0
1,66,0,0
1,74,0,0
1,68,63,10
1,74,75,0
1,74,0,120
1,68,0,0
1,68,68,120
1,74,80,0
1,74,0,120
1,68,0,0
1,74,79,120
1,68,67,0
1,76,79,0
1,76,0,120
1,68,0,0
1,74,0,0
1,68,70,120
1,74,70,0
1,78,83,0
1,78,0,120
1,74,0,0
1,68,0,0
1,68,73,120
1,74,73,0
1,80,86,0
1,80,0,120
1,74,0,0
1,68,0,0
1,69,76,120
1,73,76,0
1,81,90,0
1,81,0,931
1,73,0,0
1,69,0,0
1,57,73,29
1,61,73,0
1,69,87,0
1,69,0,960
1,61,0,0
1,57,0,0
1,81,61,0
1,81,0,480
1,82,58,0
1,82,0,480
1,83,62,0
1,83,0,160
1,82,57,0
1,82,0,160
1,83,57,0
1,83,0,160
1,88,63,0
1,88,0,160
1,87,61,0
1,87,0,160
1,88,65,0
1,88,0,160
1,91,70,0
1,91,0,840
1,90,61,0
1,90,0,120
1,88,69,0
1,88,0,360
1,86,62,0
1,86,0,120
1,85,70,0
1,85,0,360
1,83,62,0
1,83,0,120
1,81,69,0
1,81,0,160
1,80,60,0
1,80,0,160
1,81,55,0
1,81,0,160
1,86,68,0
1,86,0,160
1,85,65,0
1,85,0,160
1,86,69,0
1,86,0,160
1,90,72,0
1,90,0,840
1,88,61,0
1,88,0,120
1,86,69,0
1,86,0,360
1,85,62,0
1,85,0,120
1,83,70,0
1,83,0,360
1,81,62,0
1,81,0,120
1,79,67,0
1,79,0,160
1,78,58,0
1,78,0,160
1,79,58,0
1,79,0,160
1,85,63,0
1,85,0,160
1,84,61,0
1,84,0,160
1,85,65,0
1,85,0,160
1,88,70,0
1,88,0,840
1,86,59,0
1,86,0,120
1,85,68,0
1,85,0,360
1,86,57,0
1,86,0,120
1,85,67,0
1,85,0,360
1,83,58,0
1,83,0,120
1,78,53,0
1,82,63,0
1,82,0,931
1,78,0,0
1,78,47,29
1,82,56,0
1,82,0,815
1,78,0,15
1,82,46,10
1,82,0,120
1,78,46,0
1,83,52,0
1,83,0,360
1,82,49,0
1,78,0,106
1,82,0,14
1,78,46,0
1,83,51,0
1,83,0,360
1,82,49,0
1,78,0,106
1,82,0,14
1,77,47,0
1,80,56,0
1,80,0,931
1,77,0,0
1,80,56,29
1,77,47,0
1,80,0,815
1,77,0,15
1,80,46,10
1,80,0,120
1,82,52,0
1,77,46,0
1,82,0,360
1,80,49,0
1,77,0,105
1,80,0,15
1,82,51,0
1,77,46,0
1,82,0,360
1,80,49,0
1,77,0,105
1,80,0,15
1,78,56,0
1,78,0,931
1,78,56,29
1,78,0,830
1,49,59,10
1,55,59,0
1,57,70,0
1,57,0,60
1,55,0,0
1,49,0,0
1,55,64,60
1,49,64,0
1,57,76,0
1,57,0,360
1,49,0,0
1,55,0,0
1,55,59,0
1,49,59,0
1,57,70,0
1,57,0,60
1,49,0,0
1,55,0,0
1,59,75,60
1,49,63,0
1,55,63,0
1,55,0,360
1,49,0,0
1,59,0,0
1,49,59,0
1,55,59,0
1,61,70,0
1,61,0,60
1,55,0,0
1,49,0,0
1,50,68,60
1,54,68,0
1,62,80,0
1,62,0,931
1,54,0,0
1,50,0,0
1,50,68,29
1,59,68,0
1,54,68,0
1,62,80,0
1,62,0,815
1,62,67,25
1,50,0,91
1,54,0,0
1,59,0,0
1,62,0,29
1,54,66,0
1,62,75,0
1,62,0,360
1,64,70,0
1,54,0,106
1,64,0,14
1,54,66,0
1,66,74,0
1,66,0,360
1,62,70,0
1,54,0,106
1,62,0,14
1,67,68,0
1,69,80,0
1,57,68,0
1,64,68,0
1,64,0,931
1,57,0,0
1,69,0,0
1,67,0,29
1,67,68,0
1,69,80,0
1,57,68,0
1,64,68,0
1,64,0,815
1,67,0,0
1,69,0,0
1,57,0,0
1,69,67,25
1,64,53,0
1,67,53,0
1,67,0,114
1,64,0,0
1,69,0,0
1,69,75,6
1,64,60,0
1,67,60,0
1,69,0,333
1,67,0,9
1,64,0,0
1,64,56,18
1,67,56,0
1,69,70,0
1,69,0,114
1,67,0,0
1,64,0,0
1,64,59,6
1,67,59,0
1,71,74,0
1,71,0,342
1,67,0,0
1,64,0,0
1,64,56,18
1,67,56,0
1,73,70,0
1,73,0,120
1,67,0,0
1,64,0,0
1,62,68,0
1,66,68,0
1,69,68,0
1,74,80,0
1,74,0,931
1,62,0,0
1,66,0,0
1,69,0,0
1,62,68,29
1,67,68,0
1,74,80,0
1,74,0,710
1,67,0,0
1,62,0,0
1,68,63,10
1,74,75,0
1,74,0,120
1,68,0,0
1,68,68,120
1,74,80,0
1,74,0,120
1,68,0,0
1,68,67,120
1,74,79,0
1,76,79,0
1,76,0,120
1,74,0,0
1,68,0,0
1,68,70,120
1,74,70,0
1,78,83,0
1,78,0,120
1,74,0,0
1,68,0,0
1,68,73,120
1,74,73,0
1,80,86,0
1,80,0,120
1,74,0,0
1,68,0,0
1,69,76,120
1,73,76,0
1,81,90,0
1,81,0,931
1,73,0,0
1,69,0,0
1,57,73,29
1,61,73,0
1,69,87,0
1,69,0,960
1,61,0,0
1,57,0,0
1,76,61,0
1,76,0,480
1,77,58,0
1,77,0,480
1,78,62,0
1,78,0,160
1,77,57,0
1,77,0,160
1,78,57,0
1,78,0,160
1,83,63,0
1,83,0,160
1,82,61,0
1,82,0,160
1,83,65,0
1,83,0,160
1,86,70,0
1,86,0,840
1,85,61,0
1,85,0,120
1,83,69,0
1,83,0,120
1,85,63,0
1,85,0,120
1,83,63,0
1,83,0,120
1,81,62,0
1,81,0,120
1,80,70,0
1,80,0,120
1,81,65,0
1,81,0,120
1,80,66,0
1,80,0,120
1,78,62,0
1,78,0,120
1,76,69,0
1,76,0,160
1,75,60,0
1,75,0,160
1,76,55,0
1,76,0,160
1,81,68,0
1,81,0,160
1,80,65,0
1,80,0,160
1,81,69,0
1,81,0,160
1,85,72,0
1,85,0,840
1,83,61,0
1,83,0,120
1,81,69,0
1,81,0,120
1,83,63,0
1,83,0,120
1,81,63,0
1,81,0,120
1,80,62,0
1,80,0,120
1,78,70,0
1,78,0,120
1,80,65,0
1,80,0,120
1,78,65,0
1,78,0,120
1,76,62,0
1,76,0,120
1,74,67,0
1,74,0,160
1,73,58,0
1,73,0,160
1,74,58,0
1,74,0,160
1,80,63,0
1,80,0,160
1,79,61,0
1,79,0,160
1,80,65,0
1,80,0,160
1,83,70,0
1,83,0,840
1,81,59,0
1,81,0,120
1,80,68,0
1,80,0,360
1,81,57,0
1,81,0,120
1,80,67,0
1,80,0,360
1,78,58,0
1,78,0,120
1,77,63,0
1,73,53,0
1,73,0,931
1,77,0,0
1,73,47,29
1,77,56,0
1,77,0,815
1,77,46,25
1,73,0,110
1,77,0,10
1,73,46,0
1,78,52,0
1,78,0,360
1,77,49,0
1,73,0,106
1,77,0,14
1,78,51,0
1,73,46,0
1,78,0,360
1,77,49,0
1,73,0,106
1,77,0,14
1,80,61,0
1,74,51,0
1,76,51,0
1,76,0,931
1,74,0,0
1,80,0,0
1,74,51,29
1,80,61,0
1,76,51,0
1,76,0,830
1,80,0,0
1,74,0,0
1,76,50,10
1,76,0,120
1,78,57,0
1,74,50,0
1,78,0,360
1,76,53,0
1,74,0,105
1,76,0,15
1,74,50,0
1,78,56,0
1,78,0,360
1,80,53,0
1,74,0,105
1,80,0,15
1,69,51,0
1,81,61,0
1,73,51,0
1,73,0,931
1,81,0,0
1,69,0,0
1,73,51,29
1,69,51,0
1,81,61,0
1,81,0,830
1,69,0,0
1,73,0,0
1,57,70,10
1,57,0,60
1,57,76,60
1,57,0,120
1,57,70,240
1,57,0,60
1,55,75,60
1,55,0,120
1,57,70,240
1,57,0,60
1,55,68,60
1,61,80,0
1,58,68,0
1,52,68,0
1,52,0,931
1,55,0,0
1,61,0,0
1,58,0,29
1,52,68,0
1,55,68,0
1,61,80,0
1,58,68,0
1,58,0,815
1,52,0,0
1,55,0,0
1,61,0,0
1,69,70,25
1,69,0,60
1,69,76,60
1,69,0,120
1,69,70,240
1,69,0,60
1,67,75,60
1,67,0,120
1,69,70,240
1,69,0,60
1,70,68,60
1,62,68,0
1,74,80,0
1,65,68,0
1,65,0,931
1,74,0,0
1,62,0,0
1,70,0,29
1,70,68,0
1,62,68,0
1,74,80,0
1,65,68,0
1,65,0,815
1,70,0,0
1,62,0,0
1,74,0,0
1,74,59,25
1,77,70,0
1,77,0,60
1,74,0,0
1,77,76,60
1,74,64,0
1,74,0,120
1,77,0,0
1,74,59,240
1,77,70,0
1,77,0,60
1,74,0,0
1,73,63,60
1,76,75,0
1,76,0,120
1,73,0,0
1,77,70,240
1,74,59,0
1,74,0,60
1,77,0,0
1,70,64,60
1,74,76,0
1,74,0,120
1,70,0,0
1,74,70,240
1,70,59,0
1,70,0,60
1,74,0,0
1,69,63,60
1,73,75,0
1,73,0,120
1,69,0,0
1,74,70,240
1,70,59,0
1,70,0,60
1,74,0,0
1,70,76,60
1,67,64,0
1,67,0,120
1,70,0,0
1,67,59,240
1,70,70,0
1,70,0,60
1,67,0,0
1,69,75,60
1,66,63,0
1,66,0,120
1,69,0,0
1,67,59,240
1,70,70,0
1,70,0,60
1,67,0,0
1,63,68,60
1,67,80,0
1,67,0,931
1,63,0,29
1,75,74,0
1,67,74,0
1,79,88,0
1,71,74,0
1,71,0,950
1,75,0,0
1,67,0,0
1,79,0,0
1,75,74,10
1,67,74,0
1,79,88,0
1,72,74,0
1,72,0,950
1,75,0,0
1,67,0,0
1,79,0,0
1,65,74,10
1,77,88,0
1,74,74,0
1,74,0,120
1,77,0,0
1,65,0,0
1,69,74,360
1,72,74,0
1,81,88,0
1,75,74,0
1,75,0,120
1,69,0,0
1,72,0,0
1,81,0,0
1,74,85,360
1,70,85,0
1,82,101,0
1,82,0,950
1,70,0,0
1,74,0,0
1,58,74,10
1,62,74,0
1,70,88,0
1,70,0,815
1,62,0,0
1,58,0,0
1,74,47,25
1,77,56,0
1,77,0,60
1,74,0,0
1,74,51,60
1,77,60,0
1,77,0,120
1,74,0,0
1,74,47,240
1,77,56,0
1,77,0,60
1,74,0,0
1,73,50,60
1,76,60,0
1,76,0,120
1,73,0,0
1,74,47,240
1,77,56,0
1,77,0,60
1,74,0,0
1,70,51,60
1,74,60,0
1,74,0,960
1,70,0,0
1,70,51,0
1,74,60,0
1,74,0,815
1,70,0,0
1,70,47,25
1,74,56,0
1,74,0,60
1,70,0,0
1,70,51,60
1,74,60,0
1,74,0,120
1,70,0,0
1,70,47,240
1,74,56,0
1,74,0,60
1,70,0,0
1,69,50,60
1,73,60,0
1,73,0,120
1,69,0,0
1,70,47,240
1,74,56,0
1,74,0,60
1,70,0,0
1,74,51,60
1,77,60,0
1,77,0,960
1,74,0,0
1,72,51,0
1,75,60,0
1,75,0,815
1,72,0,0
1,77,47,25
1,72,47,0
1,75,56,0
1,75,0,60
1,72,0,0
1,77,0,0
1,77,51,60
1,72,51,0
1,75,60,0
1,75,0,120
1,72,0,0
1,77,0,0
1,77,47,240
1,72,47,0
1,75,56,0
1,75,0,60
1,72,0,0
1,77,0,0
1,77,50,60
1,71,50,0
1,74,60,0
1,74,0,120
1,71,0,0
1,77,0,0
1,77,56,240
1,72,47,0
1,75,56,0
1,75,0,60
1,72,0,0
1,77,0,0
1,69,51,60
1,72,51,0
1,77,60,0
1,77,0,951
1,72,0,0
1,69,0,0
1,69,51,9
1,72,51,0
1,77,60,0
1,77,0,815
1,72,0,0
1,69,0,0
1,77,47,25
1,69,47,0
1,72,56,0
1,72,0,60
1,69,0,0
1,77,0,0
1,77,51,60
1,69,51,0
1,72,60,0
1,72,0,120
1,69,0,0
1,77,0,0
1,69,47,240
1,72,56,0
1,77,47,0
1,77,0,60
1,72,0,0
1,69,0,0
1,68,50,60
1,71,60,0
1,77,50,0
1,77,0,120
1,71,0,0
1,68,0,0
1,69,47,240
1,72,56,0
1,77,56,0
1,77,0,60
1,72,0,0
1,69,0,0
1,73,45,60
1,77,54,0
1,69,45,0
1,73,0,950
1,69,0,1
1,77,0,0
1,70,45,9
1,77,54,0
1,74,45,0
1,74,0,815
1,77,0,0
1,70,0,0
1,70,47,25
1,77,56,0
1,74,47,0
1,74,0,60
1,77,0,0
1,70,0,0
1,70,51,60
1,74,51,0
1,77,60,0
1,77,0,120
1,74,0,0
1,70,0,0
1,70,48,240
1,74,48,0
1,77,57,0
1,77,0,60
1,74,0,0
1,70,0,0
1,74,52,60
1,76,63,0
1,70,52,0
1,70,0,120
1,76,0,0
1,74,0,0
1,74,50,240
1,77,60,0
1,70,50,0
1,70,0,60
1,77,0,0
1,74,0,0
1,70,56,60
1,79,66,0
1,74,56,0
1,74,0,951
1,79,0,0
1,70,0,0
1,74,56,9
1,70,56,0
1,79,66,0
1,79,0,815
1,70,0,0
1,74,0,0
1,74,51,25
1,70,51,0
1,79,61,0
1,79,0,60
1,70,0,0
1,74,0,0
1,70,56,60
1,79,66,0
1,74,56,0
1,74,0,120
1,79,0,0
1,70,0,0
1,70,50,240
1,82,60,0
1,74,50,0
1,74,0,60
1,82,0,0
1,70,0,0
1,70,54,60
1,81,64,0
1,74,54,0
1,74,0,120
1,81,0,0
1,70,0,0
1,74,49,240
1,79,59,0
1,70,49,0
1,70,0,60
1,79,0,0
1,74,0,0
1,70,51,60
1,77,60,0
1,74,51,0
1,74,0,951
1,77,0,0
1,70,0,0
1,70,60,9
1,74,51,0
1,77,60,0
1,77,0,815
1,74,0,0
1,70,0,0
1,77,47,25
1,70,47,0
1,74,56,0
1,74,0,60
1,70,0,0
1,77,0,0
1,77,51,60
1,70,51,0
1,74,60,0
1,74,0,120
1,70,0,0
1,77,0,0
1,70,47,240
1,74,56,0
1,77,47,0
1,77,0,60
1,74,0,0
1,70,0,0
1,70,50,60
1,75,60,0
1,79,50,0
1,79,0,120
1,75,0,0
1,70,0,0
1,74,56,240
1,77,56,0
1,70,47,0
1,70,0,60
1,77,0,0
1,74,0,0
1,69,51,60
1,77,60,0
1,72,51,0
1,72,0,960
1,77,0,0
1,69,0,0
1,69,48,0
1,75,57,0
1,72,48,0
1,72,0,815
1,75,0,0
1,69,0,0
1,65,44,25
1,75,44,0
1,72,53,0
1,72,0,60
