track,note,velocity,time
1,38,100,1336
1,38,0,256
1,38,100,64
1,38,0,51
1,45,100,13
1,45,0,154
1,38,100,38
1,38,0,102
1,45,100,26
1,45,0,51
1,38,100,13
1,38,0,154
1,42,100,166
1,42,0,51
1,45,100,13
1,45,0,154
1,42,100,38
1,42,0,154
1,43,100,38
1,43,0,256
1,43,100,64
1,43,0,51
1,50,100,13
1,50,0,154
1,43,100,38
1,43,0,102
1,50,100,26
1,50,0,51
1,43,100,13
1,43,0,154
1,47,100,166
1,47,0,51
1,50,100,13
1,50,0,154
1,47,100,38
1,47,0,154
1,33,100,38
1,33,0,256
1,33,100,64
1,33,0,51
1,40,100,13
1,40,0,154
1,33,100,38
1,33,0,102
1,40,100,26
1,40,0,51
1,33,100,13
1,33,0,154
1,37,100,166
1,37,0,51
1,40,100,13
1,40,0,154
1,37,100,38
1,37,0,154
1,38,100,38
1,38,0,154
1,42,100,166
1,42,0,51
1,45,100,13
1,45,0,154
1,42,100,38
1,42,0,154
1,38,100,38
1,38,0,256
1,38,100,64
1,38,0,51
1,45,100,13
1,45,0,154
1,38,100,38
1,38,0,102
1,45,100,26
1,45,0,51
1,38,100,13
1,38,0,154
1,42,100,166
1,42,0,51
1,45,100,13
1,45,0,154
1,42,100,38
1,42,0,154
1,38,100,38
1,38,0,154
1,42,100,166
1,42,0,51
1,45,100,13
1,45,0,154
1,42,100,38
1,42,0,154
1,43,100,38
1,43,0,154
1,47,100,166
1,47,0,51
1,50,100,13
1,50,0,154
1,47,100,38
1,47,0,154
1,43,100,38
1,43,0,256
1,43,100,64
1,43,0,51
1,50,100,13
1,50,0,154
1,43,100,38
1,43,0,102
1,50,100,26
1,50,0,51
1,33,100,13
1,33,0,154
1,37,100,166
1,37,0,51
1,40,100,13
1,40,0,154
1,37,100,38
1,37,0,154
1,33,100,38
1,33,0,154
1,37,100,166
1,37,0,51
1,40,100,13
1,40,0,154
1,37,100,38
1,37,0,154
1,38,100,38
1,38,0,154
1,42,100,166
1,42,0,51
1,45,100,13
1,45,0,154
1,42,100,38
1,42,0,154
1,38,100,38
1,38,0,154
1,42,100,166
1,42,0,51
1,45,100,13
1,45,0,154
1,42,100,38
1,42,0,154
1,38,100,38
1,38,0,256
1,38,100,64
1,38,0,51
1,45,100,13
1,45,0,154
1,38,100,38
1,38,0,102
1,45,100,26
1,45,0,51
1,38,100,13
1,38,0,256
1,38,100,64
1,38,0,51
1,45,100,13
1,45,0,154
1,38,100,38
1,38,0,102
1,45,100,26
1,45,0,51
1,43,100,13
1,43,0,154
1,47,100,166
1,47,0,51
1,50,100,13
1,50,0,154
1,47,100,38
1,47,0,154
1,43,100,38
1,43,0,154
1,47,100,166
1,47,0,51
1,50,100,13
1,50,0,154
1,47,100,38
1,47,0,154
1,33,100,38
1,33,0,256
1,33,100,64
1,33,0,51
1,40,100,13
1,40,0,154
1,33,100,38
1,33,0,102
1,40,100,26
1,40,0,51
1,33,100,13
1,33,0,256
1,33,100,64
1,33,0,51
1,40,100,13
1,40,0,154
1,33,100,38
1,33,0,102
1,40,100,26
1,40,0,51
1,38,100,13
1,38,0,256
1,38,100,64
1,38,0,51
1,45,100,13
1,45,0,154
1,38,100,38
1,38,0,102
1,45,100,26
1,45,0,51
1,38,100,13
1,38,0,154
1,42,100,166
1,42,0,51
1,45,100,13
1,45,0,154
1,42,100,38
1,42,0,154
1,38,100,38
1,38,0,154
1,42,100,166
1,42,0,51
1,45,100,13
1,45,0,154
1,42,100,38
1,42,0,154
1,38,100,38
1,38,0,256
1,38,100,64
1,38,0,51
1,45,100,13
1,45,0,154
1,38,100,38
1,38,0,102
1,45,100,26
1,45,0,51
1,43,100,13
1,43,0,256
1,43,100,64
1,43,0,51
1,50,100,13
1,50,0,154
1,43,100,38
1,43,0,102
1,50,100,26
1,50,0,51
1,43,100,13
1,43,0,256
1,43,100,64
1,43,0,51
1,50,100,13
1,50,0,154
1,43,100,38
1,43,0,102
1,50,100,26
1,50,0,51
1,33,100,13
1,33,0,256
1,33,100,64
1,33,0,51
1,40,100,13
1,40,0,154
1,33,100,38
1,33,0,102
1,40,100,26
1,40,0,51
1,33,100,13
1,33,0,154
1,37,100,166
1,37,0,51
1,40,100,13
1,40,0,154
1,37,100,38
1,37,0,154
1,38,100,38
1,38,0,256
1,38,100,64
1,38,0,51
1,45,100,13
1,45,0,154
1,38,100,38
1,38,0,102
1,45,100,26
1,45,0,51
1,38,100,13
1,38,0,154
1,42,100,166
1,42,0,51
1,45,100,13
1,45,0,154
1,42,100,38
1,42,0,154
1,38,100,38
1,38,0,154
1,42,100,166
1,42,0,51
1,45,100,13
1,45,0,154
1,42,100,38
1,42,0,154
1,38,100,38
1,38,0,154
1,42,100,166
1,42,0,51
1,45,100,13
1,45,0,154
1,42,100,38
1,42,0,154
1,43,100,38
1,43,0,154
1,47,100,166
1,47,0,51
1,50,100,13
1,50,0,154
1,47,100,38
1,47,0,154
1,43,100,38
1,43,0,154
1,47,100,166
1,47,0,51
1,50,100,13
1,50,0,154
1,47,100,38
1,47,0,154
1,33,100,38
1,33,0,256
1,33,100,64
1,33,0,51
1,40,100,13
1,40,0,154
1,33,100,38
1,33,0,102
1,40,100,26
1,40,0,51
1,33,100,13
1,33,0,256
1,33,100,64
1,33,0,51
1,40,100,13
1,40,0,154
1,33,100,38
1,33,0,102
1,40,100,26
1,40,0,51
1,38,100,13
1,38,0,256
1,38,100,64
1,38,0,51
1,45,100,13
1,45,0,154
1,38,100,38
1,38,0,102
1,45,100,26
1,45,0,51
1,38,100,13
1,38,0,256
1,38,100,64
1,38,0,51
1,45,100,13
1,45,0,154
1,38,100,38
1,38,0,102
1,45,100,26
1,45,0,51
1,38,100,13
1,38,0,256
1,38,100,64
1,38,0,51
1,45,100,13
1,45,0,154
1,38,100,38
1,38,0,102
1,45,100,26
1,45,0,51
1,38,100,13
1,38,0,256
1,38,100,64
1,38,0,51
1,45,100,13
1,45,0,154
1,38,100,38
1,38,0,102
1,45,100,26
1,45,0,51
1,43,100,13
1,43,0,154
1,47,100,166
1,47,0,51
1,50,100,13
1,50,0,154
1,47,100,38
1,47,0,154
1,43,100,38
1,43,0,154
1,47,100,166
1,47,0,51
1,50,100,13
1,50,0,154
1,47,100,38
1,47,0,154
1,33,100,38
1,33,0,154
1,37,100,166
1,37,0,51
1,40,100,13
1,40,0,154
1,37,100,38
1,37,0,154
1,33,100,38
1,33,0,154
1,37,100,166
1,37,0,51
1,40,100,13
1,40,0,154
1,37,100,38
1,37,0,154
1,38,100,38
1,38,0,256
1,38,100,64
1,38,0,51
1,45,100,13
1,45,0,154
1,38,100,38
1,38,0,102
1,45,100,26
1,45,0,51
1,38,100,13
1,38,0,154
1,42,100,166
1,42,0,51
1,45,100,13
1,45,0,154
1,42,100,38
1,42,0,154
1,38,100,38
1,38,0,256
1,38,100,64
1,38,0,51
1,45,100,13
1,45,0,154
1,38,100,38
1,38,0,102
1,45,100,26
1,45,0,51
1,38,100,13
1,38,0,256
1,38,100,64
1,38,0,51
1,45,100,13
1,45,0,154
1,38,100,38
1,38,0,102
1,45,100,26
1,45,0,51
1,43,100,13
1,43,0,154
1,47,100,166
1,47,0,51
1,50,100,13
1,50,0,154
1,47,100,38
1,47,0,154
1,43,100,38
1,43,0,154
1,47,100,166
1,47,0,51
1,50,100,13
1,50,0,154
1,47,100,38
1,47,0,154
1,33,100,38
1,33,0,256
1,33,100,64
1,33,0,51
1,40,100,13
1,40,0,154
1,33,100,38
1,33,0,102
1,40,100,26
1,40,0,51
1,33,100,13
1,33,0,256
1,33,100,64
1,33,0,51
1,40,100,13
1,40,0,154
1,33,100,38
1,33,0,102
1,40,100,26
1,40,0,51
1,38,100,13
1,38,0,256
1,38,100,64
1,38,0,51
1,45,100,13
1,45,0,154
1,38,100,38
1,38,0,102
1,45,100,26
1,45,0,51
1,38,100,13
1,38,0,154
1,42,100,166
1,42,0,51
1,45,100,13
1,45,0,154
1,42,100,38
1,42,0,154
1,38,100,38
1,38,0,256
1,38,100,64
1,38,0,51
1,45,100,13
1,45,0,154
1,38,100,38
1,38,0,102
1,45,100,26
1,45,0,51
1,38,100,13
1,38,0,154
1,42,100,166
1,42,0,51
1,45,100,13
1,45,0,154
1,42,100,38
1,42,0,154
1,43,100,38
1,43,0,256
1,43,100,64
1,43,0,51
1,50,100,13
1,50,0,154
1,43,100,38
1,43,0,102
1,50,100,26
1,50,0,51
1,43,100,13
1,43,0,256
1,43,100,64
1,43,0,51
1,50,100,13
1,50,0,154
1,43,100,38
1,43,0,102
1,50,100,26
1,50,0,51
1,33,100,13
1,33,0,256
1,33,100,64
1,33,0,51
1,40,100,13
1,40,0,154
1,33,100,38
1,33,0,102
1,40,100,26
1,40,0,51
1,33,100,13
1,33,0,154
1,37,100,166
1,37,0,51
1,40,100,13
1,40,0,154
1,37,100,38
1,37,0,154
1,38,100,38
1,38,0,256
1,38,100,64
1,38,0,51
1,45,100,13
1,45,0,154
1,38,100,38
1,38,0,102
1,45,100,26
1,45,0,51
1,38,100,13
1,38,0,154
1,42,100,166
1,42,0,51
1,45,100,13
1,45,0,154
1,42,100,38
1,42,0,154
1,33,100,38
1,33,0,256
1,33,100,64
1,33,0,51
1,40,100,13
1,40,0,154
1,33,100,38
1,33,0,102
1,40,100,26
1,40,0,51
1,33,100,13
1,33,0,256
1,33,100,64
1,33,0,51
1,40,100,13
1,40,0,154
1,33,100,38
1,33,0,102
1,40,100,26
1,40,0,51
1,38,100,13
1,38,0,154
1,42,100,166
1,42,0,51
1,45,100,13
1,45,0,154
1,42,100,38
1,42,0,154
1,38,80,38
1,38,0,256
1,33,80,64
1,33,0,51
1,38,80,13
1,38,0,256
1,33,80,64
1,33,0,51
1,38,80,13
1,38,0,768
2,35,90,1296
2,42,100,0
2,49,90,0
2,49,0,40
2,42,0,0
2,35,0,0
2,42,80,88
2,42,0,40
2,42,100,24
2,37,100,0
2,37,0,40
2,42,0,0
2,35,80,88
2,35,0,40
2,35,90,24
2,42,100,0
2,42,0,40
2,35,0,0
2,42,80,88
2,42,0,40
2,42,100,24
2,37,100,0
2,37,0,40
2,42,0,0
2,35,80,88
2,42,80,0
2,42,0,40
2,35,0,0
2,35,90,24
2,42,100,0
2,42,0,40
2,35,0,0
2,42,70,88
2,42,0,40
2,42,100,24
2,37,100,0
2,37,0,40
2,42,0,0
2,35,80,88
2,42,70,0
2,42,0,40
2,35,0,0
2,35,90,24
2,42,100,0
2,42,0,40
2,35,0,0
2,42,70,88
2,42,0,40
2,42,100,24
2,37,100,0
2,37,0,40
2,42,0,0
2,35,80,88
2,42,70,0
2,42,0,40
2,35,0,0
2,35,90,24
2,42,100,0
2,42,0,40
2,35,0,0
2,42,80,88
2,42,0,40
2,42,100,24
2,37,100,0
2,37,0,40
2,42,0,0
2,35,80,88
2,42,80,0
2,42,0,40
2,35,0,0
2,35,90,24
2,42,100,0
2,42,0,40
2,35,0,0
2,42,80,88
2,42,0,40
2,42,100,24
2,37,100,0
2,37,0,40
2,42,0,0
2,46,90,24
2,46,0,40
2,35,80,24
2,42,80,0
2,42,0,40
2,35,0,0
2,35,90,24
2,42,100,0
2,42,0,40
2,35,0,0
2,42,70,88
2,42,0,40
2,42,100,24
2,37,100,0
2,37,0,40
2,42,0,0
2,35,80,88
2,42,70,0
2,42,0,40
2,35,0,0
2,35,90,24
2,42,100,0
2,42,0,40
2,35,0,0
2,42,70,24
2,42,0,40
2,42,70,24
2,42,0,40
2,42,100,24
2,37,100,0
2,37,0,40
2,42,0,0
2,35,80,88
2,42,70,0
2,42,0,40
2,35,0,0
2,35,90,24
2,42,100,0
2,42,0,40
2,35,0,0
2,42,80,88
2,42,0,40
2,42,100,24
2,37,82,0
2,37,0,40
2,42,0,0
2,35,80,88
2,42,80,0
2,42,0,40
2,35,0,0
2,35,90,24
2,42,100,0
2,42,0,40
2,35,0,0
2,42,80,88
2,42,0,40
2,42,100,24
2,37,100,0
2,37,0,40
2,42,0,0
2,35,80,88
2,42,80,0
2,42,0,40
2,35,0,0
2,35,90,24
2,42,100,0
2,42,0,40
2,35,0,0
2,42,70,88
2,42,0,40
2,42,100,24
2,37,100,0
2,37,0,40
2,42,0,0
2,35,80,88
2,42,70,0
2,42,0,40
2,35,0,0
2,35,90,24
2,42,100,0
2,42,0,40
2,35,0,0
2,42,70,24
2,42,0,40
2,42,70,24
2,42,0,40
2,42,100,24
2,37,100,0
2,37,0,40
2,42,0,0
2,35,80,88
2,42,70,0
2,42,0,40
2,35,0,0
2,35,90,24
2,42,100,0
2,42,0,40
2,35,0,0
2,42,70,88
2,42,0,40
2,42,100,24
2,37,100,0
2,37,0,40
2,42,0,0
2,35,80,88
2,42,70,0
2,42,0,40
2,35,0,0
2,35,90,24
2,42,100,0
2,42,0,40
2,35,0,0
2,42,70,88
2,42,0,40
2,42,100,24
2,37,100,0
2,37,0,40
2,42,0,0
2,35,80,88
2,42,70,0
2,42,0,40
2,35,0,0
2,35,100,24
2,38,110,0
2,42,100,0
2,42,0,40
2,38,0,0
2,35,0,0
2,42,100,152
2,42,0,40
2,42,50,24
2,42,0,40
2,42,70,24
2,42,0,40
2,42,100,24
2,42,0,40
2,38,50,24
2,42,50,0
2,42,0,40
2,38,0,0
2,38,60,24
2,42,70,0
2,42,0,40
2,38,0,0
2,38,125,24
2,46,100,0
2,46,0,40
2,38,0,0
2,38,100,24
2,38,0,40
2,38,110,24
2,38,0,40
2,35,90,24
2,42,100,0
2,49,90,0
2,49,0,40
2,42,0,0
2,35,0,0
2,42,80,88
2,42,0,40
2,42,100,24
2,37,100,0
2,37,0,40
2,42,0,0
2,35,80,88
2,42,80,0
2,42,0,40
2,35,0,0
2,35,90,24
2,42,100,0
2,42,0,40
2,35,0,0
2,42,80,88
2,42,0,40
2,42,100,24
2,37,100,0
2,37,0,40
2,42,0,0
2,35,80,88
2,42,80,0
2,42,0,40
2,35,0,0
2,35,90,24
2,42,100,0
2,42,0,40
2,35,0,0
2,42,80,88
2,42,0,40
2,42,100,24
2,37,82,0
2,37,0,40
2,42,0,0
2,35,64,88
2,42,80,0
2,42,0,40
2,35,0,0
2,35,90,24
2,42,100,0
2,42,0,40
2,35,0,0
2,42,80,88
2,42,0,40
2,42,100,24
2,37,100,0
2,37,0,40
2,42,0,0
2,35,80,88
2,46,100,0
2,46,0,40
2,35,0,0
2,35,90,24
2,42,100,0
2,42,0,40
2,35,0,0
2,42,80,88
2,42,0,40
2,42,100,24
2,37,100,0
2,37,0,40
2,42,0,0
2,35,80,88
2,42,80,0
2,42,0,40
2,35,0,0
2,35,90,24
2,42,100,0
2,42,0,40
2,35,0,0
2,42,80,88
2,42,0,40
2,42,100,24
2,37,100,0
2,37,0,40
2,42,0,0
2,35,80,88
2,42,80,0
2,42,0,40
2,35,0,0
2,35,90,24
2,42,100,0
2,42,0,40
2,35,0,0
2,42,80,88
2,42,0,40
2,42,100,24
2,37,100,0
2,37,0,40
2,42,0,0
2,35,80,88
2,42,80,0
2,42,0,40
2,35,0,0
2,35,90,24
2,42,100,0
2,42,0,40
2,35,0,0
2,42,80,88
2,42,0,40
2,42,100,24
2,37,100,0
2,37,0,40
2,42,0,0
2,35,80,88
2,46,90,0
2,46,0,40
2,35,0,0
2,35,90,24
2,42,100,0
2,42,0,40
2,35,0,0
2,42,80,88
2,42,0,40
2,42,100,24
2,37,82,0
2,37,0,40
2,42,0,0
2,35,80,88
2,42,100,0
2,42,0,40
2,35,0,0
2,35,90,24
2,42,100,0
2,42,0,40
2,35,0,0
2,42,80,88
2,42,0,40
2,42,100,24
2,37,100,0
2,37,0,40
2,42,0,0
2,35,80,88
2,42,80,0
2,42,0,40
2,35,0,0
2,35,90,24
2,42,100,0
2,42,0,40
2,35,0,0
2,42,80,88
2,42,0,40
2,42,100,24
2,37,100,0
2,37,0,40
2,42,0,0
2,35,80,88
2,42,80,0
