track,note,velocity,time
1,52,107,0
1,64,106,0
1,59,96,0
1,52,94,0
1,64,99,0
1,59,98,0
1,52,89,0
1,64,87,0
1,59,86,0
1,52,105,0
1,62,102,56
1,57,110,0
1,66,92,0
1,57,89,104
1,64,101,0
1,61,101,0
1,52,93,0
1,64,97,0
1,59,80,0
1,52,96,0
1,64,97,0
1,59,102,0
1,52,96,0
1,64,88,0
1,59,89,0
1,52,103,0
1,62,106,56
1,57,108,0
1,66,94,0
1,57,97,104
1,64,113,0
1,61,112,0
1,52,105,0
1,64,112,0
1,59,94,0
1,52,100,0
1,64,93,0
1,59,103,0
1,52,104,0
1,64,100,0
1,59,81,0
1,52,106,0
1,62,102,56
1,57,107,0
1,66,93,0
1,57,99,104
1,64,108,0
1,61,114,0
1,52,104,0
1,64,94,0
1,59,81,0
1,52,85,0
1,64,86,0
1,59,99,0
1,52,96,0
1,64,103,0
1,59,98,0
1,52,96,0
1,62,109,56
1,57,107,0
1,66,89,0
1,57,98,104
1,64,106,0
1,61,108,0
1,68,93,24
1,52,97,0
1,71,91,0
1,64,98,0
1,64,82,240
1,68,82,0
1,71,82,0
1,52,100,0
1,64,97,80
1,68,87,168
1,71,93,192
1,57,103,120
1,64,90,368
1,69,101,0
1,73,94,0
1,57,102,284
1,64,92,4
1,69,101,192
1,73,89,44
1,52,102,24
1,68,102,0
1,64,96,0
1,71,92,0
1,71,96,208
1,68,83,0
1,64,88,0
1,52,82,192
1,64,90,56
1,64,102,88
1,71,85,0
1,68,99,0
1,52,99,232
1,68,98,292
1,64,88,0
1,71,101,0
1,52,84,32
1,64,94,80
1,68,83,192
1,71,103,0
1,59,82,80
1,71,99,344
1,75,94,0
1,78,84,0
1,59,100,24
1,71,87,72
1,75,86,192
1,78,83,0
1,57,86,52
1,64,91,380
1,69,103,0
1,73,81,0
1,57,89,288
1,64,84,32
1,69,88,192
1,73,93,192
1,52,103,0
1,68,100,320
1,64,85,0
1,71,99,0
1,52,89,4
1,64,92,40
1,71,83,60
1,68,92,192
1,52,84,36
1,64,90,384
1,71,103,0
1,68,98,0
1,52,94,296
1,64,92,72
1,64,88,64
1,68,86,0
1,71,91,0
1,71,87,132
1,68,82,0
1,64,83,0
1,52,100,120
1,68,92,272
1,71,97,0
1,64,103,0
1,52,94,36
1,64,97,32
1,68,86,192
1,71,82,192
1,57,101,0
1,64,97,312
1,69,82,0
1,73,81,0
1,57,90,12
1,64,81,44
1,69,86,192
1,73,103,20
1,52,90,0
1,68,91,328
1,71,84,0
1,64,93,0
1,52,94,4
1,52,90,92
1,68,98,192
1,64,103,0
1,71,85,0
1,52,99,272
1,71,95,104
1,68,101,0
1,64,101,0
1,52,83,240
1,64,95,76
1,68,91,188
1,71,103,192
1,59,84,124
1,71,88,288
1,75,86,0
1,78,83,0
1,59,90,240
1,71,94,60
1,75,92,192
1,78,92,192
1,57,97,20
1,64,103,340
1,69,100,0
1,73,102,0
1,57,92,4
1,64,89,328
1,69,92,0
1,73,94,0
1,52,97,336
1,64,88,248
1,71,81,0
1,68,85,0
1,52,98,8
1,64,96,0
1,68,94,192
1,71,101,68
1,52,92,52
1,68,115,344
1,71,115,0
1,64,114,0
1,52,110,244
1,71,110,0
1,68,109,0
1,64,109,0
1,71,113,252
1,68,112,0
1,64,112,0
1,52,113,0
1,59,91,272
1,71,83,384
1,66,88,0
1,63,88,0
1,59,82,248
1,63,103,12
1,66,82,192
1,71,94,0
1,59,91,28
1,66,95,344
1,71,89,0
1,63,101,0
1,59,91,280
1,63,93,20
1,66,99,192
1,71,100,192
1,57,92,156
1,64,98,344
1,69,93,0
1,73,98,0
1,57,92,200
1,64,95,56
1,69,88,192
1,73,87,40
1,52,101,104
1,64,85,336
1,71,85,0
1,68,94,0
1,52,93,12
1,64,101,92
1,68,100,192
1,71,92,8
1,57,101,192
1,64,96,352
1,73,92,0
1,69,86,0
1,57,99,20
1,64,83,88
1,69,95,192
1,73,91,52
1,52,96,88
1,71,81,316
1,68,95,0
1,64,89,0
1,52,92,228
1,68,108,264
1,64,109,0
1,71,102,0
1,59,93,140
1,66,100,384
1,63,103,0
1,71,103,0
1,66,103,304
1,63,89,0
1,71,83,0
1,59,83,280
1,63,109,204
1,71,110,0
1,66,109,0
1,59,105,308
1,63,105,0
1,66,105,0
1,71,105,0
1,59,111,248
1,66,111,0
1,63,110,0
1,71,110,0
1,57,86,196
1,64,101,384
1,69,89,0
1,73,95,0
1,57,89,216
1,64,89,40
1,69,93,192
1,73,87,0
1,57,101,36
1,64,102,384
1,73,92,0
1,69,93,0
1,57,95,168
1,64,83,8
1,69,86,192
1,73,96,192
1,52,99,112
1,64,97,336
1,71,84,0
1,68,87,0
1,52,83,288
1,64,85,28
1,68,86,176
1,71,92,0
1,49,97,136
1,68,91,352
1,64,103,0
1,61,103,0
1,49,91,152
1,61,100,20
1,64,88,192
1,68,102,0
1,57,90,156
1,69,89,384
1,76,97,0
1,73,103,0
1,57,90,0
1,69,89,60
1,73,85,192
1,76,87,192
1,59,94,124
1,71,98,344
1,75,85,0
1,78,92,0
1,59,97,8
1,71,103,36
1,75,96,192
1,78,98,192
1,57,81,24
1,69,100,344
1,73,83,0
1,76,98,0
1,59,85,136
1,71,101,384
1,75,91,0
1,78,96,0
1,52,91,0
1,64,101,0
1,59,80,0
1,52,89,0
1,64,95,0
1,59,92,0
1,52,89,0
1,64,96,0
1,59,83,0
1,52,91,0
1,62,108,56
1,57,107,0
1,66,82,0
1,57,94,104
1,64,105,0
1,61,111,0
1,52,103,0
1,64,112,0
1,59,89,0
1,52,94,0
1,64,100,0
1,59,99,0
1,52,103,0
1,64,100,0
1,59,94,0
1,52,91,0
1,62,101,56
1,57,107,0
1,66,91,0
1,57,104,104
1,64,106,0
1,61,107,0
1,52,103,0
1,64,110,0
1,59,92,0
1,52,100,0
1,64,103,0
1,59,102,0
1,52,99,0
1,64,95,0
1,59,92,0
1,52,97,0
1,62,104,56
1,57,108,0
1,66,97,0
1,57,91,104
1,64,107,0
1,61,111,0
1,52,91,0
1,64,95,0
1,59,87,0
1,52,87,0
1,64,102,0
1,59,101,0
1,52,98,0
1,64,101,0
1,59,97,0
1,52,107,0
1,62,99,56
1,57,110,0
1,66,81,0
1,57,92,104
1,64,111,0
1,61,107,0
1,68,93,24
1,52,97,0
1,71,91,0
1,64,98,0
1,64,82,240
1,68,82,0
1,71,82,0
1,52,100,0
1,64,97,80
1,68,87,168
1,71,93,192
1,57,103,120
1,64,90,368
1,69,101,0
1,73,94,0
1,57,102,284
1,64,92,4
1,69,101,192
1,73,89,44
1,52,102,24
1,68,102,0
1,64,96,0
1,71,92,0
1,71,96,208
1,68,83,0
1,64,88,0
1,52,82,192
1,64,90,56
1,64,102,88
1,71,85,0
1,68,99,0
1,52,99,232
1,68,98,292
1,64,88,0
1,71,101,0
1,52,84,32
1,64,94,80
1,68,83,192
1,71,103,0
1,59,82,80
1,71,99,344
1,75,94,0
1,78,84,0
1,59,100,24
1,71,87,72
1,75,86,192
1,78,83,0
1,57,86,52
1,64,91,380
1,69,103,0
1,73,81,0
1,57,89,288
1,64,84,32
1,69,88,192
1,73,93,192
1,52,103,0
1,68,100,320
1,64,85,0
1,71,99,0
1,52,89,4
1,64,92,40
1,71,83,60
1,68,92,192
1,52,84,36
1,64,90,384
1,71,103,0
1,68,98,0
1,52,94,296
1,64,92,72
1,64,88,64
1,68,86,0
1,71,91,0
1,71,87,132
1,68,82,0
1,64,83,0
1,52,100,120
1,68,92,272
1,71,97,0
1,64,103,0
1,52,94,36
1,64,97,32
1,68,86,192
1,71,82,192
1,57,101,0
1,64,97,312
1,69,82,0
1,73,81,0
1,57,90,12
1,64,81,44
1,69,86,192
1,73,103,20
1,52,90,0
1,68,91,328
1,71,84,0
1,64,93,0
1,52,94,4
1,52,90,92
1,68,98,192
1,64,103,0
1,71,85,0
1,52,99,272
1,71,95,104
1,68,101,0
1,64,101,0
1,52,83,240
1,64,95,76
1,68,91,188
1,71,103,192
1,59,84,124
1,71,88,288
1,75,86,0
1,78,83,0
1,59,90,240
1,71,94,60
1,75,92,192
1,78,92,192
1,57,97,20
1,64,103,340
1,69,100,0
1,73,102,0
1,57,92,4
1,64,89,328
1,69,92,0
1,73,94,0
1,52,97,336
1,64,88,248
1,71,81,0
1,68,85,0
1,52,98,8
1,64,96,0
1,68,94,192
1,71,101,68
1,52,92,52
1,68,109,344
1,71,110,0
1,64,109,0
1,52,107,244
1,71,107,0
1,68,107,0
1,64,107,0
1,71,112,252
1,68,112,0
1,64,112,0
1,52,112,0
1,59,91,272
1,71,83,384
1,66,88,0
1,63,88,0
1,59,82,248
1,63,103,12
1,66,82,192
1,71,94,0
1,59,91,28
1,66,95,344
1,71,89,0
1,63,101,0
1,59,91,280
1,63,93,20
1,66,99,192
1,71,100,192
1,57,92,156
1,64,98,344
1,69,93,0
1,73,98,0
1,57,92,200
1,64,95,56
1,69,88,192
1,73,87,40
1,52,101,104
1,64,85,336
1,71,85,0
1,68,94,0
1,52,93,12
1,64,101,92
1,68,100,192
1,71,92,8
1,57,101,192
1,64,96,352
1,73,92,0
1,69,86,0
1,57,99,20
1,64,83,88
1,69,95,192
1,73,91,52
1,52,96,88
1,71,81,316
1,68,95,0
1,64,89,0
1,52,92,228
1,68,103,264
1,64,103,0
1,71,96,0
1,59,94,140
1,66,102,384
1,63,102,0
1,71,97,0
1,66,102,304
1,63,89,0
1,71,83,0
1,59,83,280
1,63,112,204
1,71,112,0
1,66,112,0
1,59,115,308
1,63,115,0
1,66,115,0
1,71,115,0
1,59,110,248
1,66,110,0
1,63,109,0
1,71,110,0
1,57,86,196
1,64,101,384
1,69,89,0
1,73,95,0
1,57,89,216
1,64,89,40
1,69,93,192
1,73,87,0
1,57,101,36
1,64,102,384
1,73,92,0
1,69,93,0
1,57,95,168
1,64,83,8
1,69,86,192
1,73,96,192
1,52,99,112
1,64,97,336
1,71,84,0
1,68,87,0
1,52,83,288
1,64,85,28
1,68,86,176
1,71,92,0
1,49,97,136
1,68,91,352
1,64,103,0
1,61,103,0
1,49,91,152
1,61,100,20
1,64,88,192
1,68,102,0
1,57,90,156
1,69,89,384
1,76,97,0
1,73,103,0
1,57,90,0
1,69,89,60
1,73,85,192
1,76,87,192
1,59,94,124
1,71,98,344
1,75,85,0
1,78,92,0
1,59,97,8
1,71,103,36
1,75,96,192
1,78,98,192
1,57,81,24
1,69,100,344
1,73,83,0
1,76,98,0
1,59,85,136
1,71,101,384
1,75,91,0
1,78,96,0
1,52,91,0
1,64,101,0
1,59,80,0
1,52,89,0
1,64,95,0
1,59,92,0
1,52,89,0
1,64,96,0
1,59,83,0
1,52,91,0
1,62,108,56
1,57,107,0
1,66,82,0
1,57,94,104
1,64,105,0
1,61,111,0
1,52,103,0
1,64,112,0
1,59,89,0
1,52,94,0
1,64,100,0
1,59,99,0
1,52,103,0
1,64,100,0
1,59,94,0
1,52,91,0
1,62,101,56
1,57,107,0
1,66,91,0
1,57,104,104
1,64,106,0
1,61,107,0
1,59,91,24
1,71,83,384
1,66,88,0
1,63,88,0
1,59,82,248
1,63,103,12
1,66,82,192
1,71,94,0
1,59,91,28
1,66,95,344
1,71,89,0
1,63,101,0
1,59,91,280
1,63,93,20
1,66,99,192
1,71,100,192
1,57,92,156
1,64,98,344
1,69,93,0
1,73,98,0
1,57,92,200
1,64,95,56
1,69,88,192
1,73,87,40
1,52,101,104
1,64,85,336
1,71,85,0
1,68,94,0
1,52,93,12
1,64,101,92
1,68,100,192
1,71,92,8
1,57,101,192
1,64,96,352
1,73,92,0
1,69,86,0
1,57,99,20
1,64,83,88
1,69,95,192
1,73,91,52
1,52,96,88
1,71,81,316
1,68,95,0
1,64,89,0
1,52,92,228
1,68,103,264
1,64,103,0
1,71,96,0
1,59,94,140
1,66,102,384
1,63,102,0
1,71,97,0
1,66,102,304
1,63,89,0
1,71,83,0
1,59,83,280
1,63,114,204
1,71,114,0
1,66,113,0
1,59,113,308
1,63,113,0
1,66,113,0
1,71,113,0
1,59,113,248
1,66,113,0
1,63,113,0
1,71,113,0
1,57,86,196
1,64,101,384
1,69,89,0
1,73,95,0
1,57,89,216
1,64,89,40
1,69,93,192
1,73,87,0
1,57,101,36
1,64,102,384
1,73,92,0
1,69,93,0
1,57,95,168
1,64,83,8
1,69,86,192
1,73,96,192
1,52,99,112
1,64,97,336
1,71,84,0
1,68,87,0
1,52,83,288
1,64,85,28
1,68,86,176
1,71,92,0
1,49,97,136
1,68,91,352
1,64,103,0
1,61,103,0
1,49,91,152
1,61,100,20
1,64,88,192
1,68,102,0
1,57,90,156
1,69,89,384
1,76,97,0
1,73,103,0
1,57,90,0
1,69,89,60
1,73,85,192
1,76,87,192
1,59,94,124
1,71,98,344
1,75,85,0
1,78,92,0
1,59,97,8
1,71,103,36
1,75,96,192
1,78,98,192
1,57,81,24
1,69,100,344
1,73,83,0
1,76,98,0
1,59,85,136
1,71,101,384
1,75,91,0
1,78,96,0
1,52,107,0
1,64,106,0
1,59,96,0
1,52,94,0
1,64,99,0
1,59,98,0
1,52,89,0
1,64,87,0
1,59,86,0
1,52,105,0
1,62,102,56
1,57,110,0
1,66,92,0
1,57,89,104
1,64,101,0
1,61,101,0
1,52,93,0
1,64,97,0
1,59,80,0
1,52,96,0
1,64,97,0
1,59,102,0
1,52,96,0
1,64,88,0
1,59,89,0
1,52,103,0
1,62,106,56
1,57,108,0
1,66,94,0
1,57,97,104
1,64,113,0
1,61,112,0
1,68,96,24
1,59,96,0
1,64,95,0
2,40,111,13404
2,35,108,168
2,33,111,144
2,40,87,184
2,33,91,384
2,40,80,132
2,40,91,96
2,35,103,76
2,40,95,188
2,35,91,184
2,35,91,128
2,35,83,148
2,42,87,100
2,35,95,76
2,33,103,152
2,40,91,192
2,33,91,24
2,40,80,256
2,40,78,136
2,35,91,108
2,40,91,152
2,40,83,156
2,35,99,104
2,40,95,192
2,35,103,204
2,33,103,148
2,33,80,144
2,40,83,112
2,33,91,80
2,40,91,168
2,40,83,124
2,35,99,100
2,40,91,168
2,35,87,184
2,35,83,136
2,35,75,200
2,42,83,104
2,35,95,56
2,33,83,192
2,33,83,120
2,40,72,96
2,33,83,120
2,40,95,156
2,40,83,116
2,35,83,92
2,40,95,176
2,35,91,216
2,35,91,204
2,35,67,132
2,42,87,112
2,35,83,0
2,35,95,116
2,35,78,168
2,42,87,108
2,35,87,24
2,33,83,200
2,33,75,140
2,40,95,108
2,33,75,56
2,40,95,208
2,40,83,120
2,35,83,84
2,40,83,56
2,33,99,192
2,33,72,88
2,40,78,112
2,40,91,152
2,40,80,164
2,35,87,88
2,40,95,152
2,35,80,104
2,35,64,132
2,42,91,120
2,35,83,136
2,42,83,184
2,35,80,168
2,33,91,200
2,40,83,124
2,33,83,136
2,40,80,160
2,33,83,132
2,40,99,216
2,35,99,152
2,37,83,280
2,32,91,172
2,37,78,384
2,33,91,160
2,33,75,192
2,40,83,92
2,33,91,128
2,35,91,236
2,35,75,144
2,42,87,104
2,35,80,88
2,33,91,196
2,35,91,184
2,40,91,164
2,40,83,184
2,38,83,76
2,37,91,112
2,40,91,208
2,40,83,184
2,38,83,76
2,37,91,112
2,40,91,208
2,40,83,1532
2,38,83,76
2,37,91,112
2,40,91,208
2,40,83,1540
2,38,83,76
2,37,91,112
2,40,91,208
2,35,107,184
2,33,111,144
2,40,87,184
2,33,91,384
2,40,80,132
2,40,91,96
2,35,103,76
2,40,95,188
2,35,91,184
2,35,91,128
2,35,83,148
2,42,87,100
2,35,95,76
2,33,103,152
2,40,91,192
2,33,91,24
2,40,80,256
2,40,78,136
2,35,91,108
2,40,91,152
2,40,83,156
2,35,99,104
2,40,95,192
2,35,103,204
2,33,103,148
2,33,80,144
2,40,83,112
2,33,91,80
2,40,91,168
2,40,83,124
2,35,99,100
2,40,91,168
2,35,87,184
2,35,83,136
2,35,75,200
