track,note,velocity,time
1,38,126,56064
1,39,126,0
1,41,126,0
1,41,126,0
1,41,126,0
1,41,126,0
1,41,126,0
1,41,126,0
1,39,126,0
1,46,126,0
1,46,126,0
1,43,126,0
1,38,126,0
1,39,126,0
1,41,126,0
1,41,126,0
1,41,126,0
1,41,126,0
1,41,126,0
1,41,126,0
1,41,126,4
1,39,126,0
1,46,126,0
1,43,126,0
2,50,126,56064
2,51,126,0
2,53,126,0
2,53,126,0
2,53,126,0
2,53,126,0
2,53,126,0
2,53,126,0
2,51,126,0
2,58,126,0
2,58,126,0
2,55,126,0
2,50,126,0
2,51,126,0
2,53,126,0
2,53,126,0
2,53,126,0
2,53,126,0
2,53,126,0
2,53,126,0
2,53,126,4
2,51,126,0
2,58,126,0
2,55,126,0
3,65,125,7296
3,68,125,4
3,72,125,4
3,68,125,4
3,77,125,4
3,72,125,4
3,68,125,4
3,60,125,4
3,65,125,4
3,68,125,4
3,72,125,4
3,68,125,4
3,77,125,4
3,72,125,4
3,68,125,4
3,65,125,4
3,63,125,4
3,67,125,4
3,70,125,4
3,67,125,4
3,74,125,4
3,70,125,4
3,67,125,4
3,58,125,4
3,63,125,4
3,67,125,4
3,70,125,4
3,67,125,4
3,74,125,4
3,70,125,4
3,67,125,4
3,63,125,4
3,65,125,4
3,68,125,4
3,72,125,4
3,68,125,4
3,77,125,4
3,72,125,4
3,68,125,4
3,60,125,4
3,65,125,4
3,68,125,4
3,72,125,4
3,68,125,4
3,77,125,4
3,72,125,4
3,68,125,4
3,65,125,4
3,63,125,4
3,67,125,4
3,70,125,4
3,67,125,4
3,74,125,4
3,70,125,4
3,67,125,4
3,58,125,4
3,63,125,4
3,67,125,4
3,70,125,4
3,67,125,4
3,74,125,4
3,70,125,4
3,67,125,4
3,63,125,4
3,68,125,4
3,72,125,4
3,75,125,4
3,72,125,4
3,80,125,4
3,75,125,4
3,72,125,4
3,68,125,4
3,70,125,4
3,74,125,4
3,77,125,4
3,74,125,4
3,82,125,4
3,77,125,4
3,74,125,4
3,70,125,4
3,67,125,4
3,70,125,4
3,74,125,4
3,70,125,4
3,79,125,4
3,74,125,4
3,70,125,4
3,67,125,4
3,60,125,4
3,63,125,4
3,67,125,4
3,63,125,4
3,72,125,4
3,67,125,4
3,63,125,4
3,60,125,4
3,65,125,4
3,68,125,4
3,72,125,4
3,68,125,4
3,77,125,4
3,72,125,4
3,68,125,4
3,60,125,4
3,65,125,4
3,68,125,4
3,72,125,4
3,68,125,4
3,77,125,4
3,72,125,4
3,68,125,4
3,65,125,4
3,61,125,4
3,65,125,4
3,68,125,4
3,65,125,4
3,73,125,4
3,68,125,4
3,65,125,4
3,61,125,4
3,58,125,4
3,62,125,4
3,65,125,4
3,62,125,4
3,68,125,4
3,65,125,4
3,62,125,4
3,58,125,4
3,65,125,4
3,68,125,4
3,72,125,4
3,68,125,4
3,77,125,4
3,72,125,4
3,68,125,4
3,60,125,4
3,65,125,4
3,68,125,4
3,72,125,4
3,68,125,4
3,77,125,4
3,72,125,4
3,68,125,4
3,65,125,4
3,63,125,4
3,67,125,4
3,70,125,4
3,67,125,4
3,74,125,4
3,70,125,4
3,67,125,4
3,58,125,4
3,63,125,4
3,67,125,4
3,70,125,4
3,67,125,4
3,74,125,4
3,70,125,4
3,67,125,4
3,63,125,4
3,65,125,4
3,68,125,4
3,72,125,4
3,68,125,4
3,77,125,4
3,72,125,4
3,68,125,4
3,60,125,4
3,65,125,4
3,68,125,4
3,72,125,4
3,68,125,4
3,77,125,4
3,72,125,4
3,68,125,4
3,65,125,4
3,63,125,4
3,67,125,4
3,70,125,4
3,67,125,4
3,74,125,4
3,70,125,4
3,67,125,4
3,58,125,4
3,63,125,4
3,67,125,4
3,70,125,4
3,67,125,4
3,74,125,4
3,70,125,4
3,67,125,4
3,63,125,4
3,68,125,4
3,72,125,4
3,75,125,4
3,72,125,4
3,80,125,4
3,75,125,4
3,72,125,4
3,68,125,4
3,70,125,4
3,74,125,4
3,77,125,4
3,74,125,4
3,82,125,4
3,77,125,4
3,74,125,4
3,70,125,4
3,67,125,4
3,70,125,4
3,74,125,4
3,70,125,4
3,79,125,4
3,74,125,4
3,70,125,4
3,67,125,4
3,60,125,4
3,63,125,4
3,67,125,4
3,63,125,4
3,72,126,4
3,67,126,4
3,63,126,4
3,60,126,4
3,65,126,4
3,68,126,4
3,72,126,4
3,68,126,4
3,77,126,4
3,72,126,4
3,68,126,4
3,60,126,4
3,65,126,4
3,68,126,4
3,72,126,4
3,68,126,4
3,77,126,4
3,72,126,4
3,68,126,4
3,65,126,4
3,61,126,4
3,65,126,4
3,68,126,4
3,65,126,4
3,73,126,4
3,68,126,4
3,65,126,4
3,61,126,4
3,58,126,4
3,62,126,4
3,65,126,4
3,62,126,4
3,68,126,4
3,65,126,4
3,62,126,4
3,58,126,4
3,65,126,4
3,68,126,4
3,72,126,4
3,68,126,4
3,77,126,4
3,72,126,4
3,68,126,4
3,60,126,4
3,65,126,4
3,68,126,4
3,72,126,4
3,68,126,4
3,77,126,4
3,72,126,4
3,68,126,4
3,65,126,4
3,63,126,4
3,67,126,4
3,70,126,4
3,67,126,4
3,74,126,4
3,70,126,4
3,67,126,4
3,58,126,4
3,63,126,4
3,67,126,4
3,70,126,4
3,67,126,4
3,74,126,4
3,70,126,4
3,67,126,4
3,63,126,4
3,65,126,4
3,68,126,4
3,72,126,4
3,68,126,4
3,77,126,4
3,72,126,4
3,68,126,4
3,60,126,4
3,65,126,4
3,68,126,4
3,72,126,4
3,68,126,4
3,77,126,4
3,72,126,4
3,68,126,4
3,65,126,4
3,63,126,4
3,67,126,4
3,70,126,4
3,67,126,4
3,74,126,4
3,70,126,4
3,67,126,4
3,58,126,4
3,63,126,4
3,67,126,4
3,70,126,4
3,67,126,4
3,74,126,4
3,70,126,4
3,67,126,4
3,63,126,4
3,68,126,4
3,72,126,4
3,75,126,4
3,72,126,4
3,80,126,4
3,75,126,4
3,72,126,4
3,68,126,4
3,70,126,4
3,74,126,4
3,77,126,4
3,74,126,4
3,82,126,4
3,77,126,4
3,74,126,4
3,70,126,4
3,67,126,4
3,70,126,4
3,74,126,4
3,70,126,4
3,79,126,4
3,74,126,4
3,70,126,4
3,67,126,4
3,60,126,4
3,63,126,4
3,67,126,4
3,63,126,4
3,72,126,4
3,67,126,4
3,63,126,4
3,60,126,4
3,65,126,4
3,68,126,4
3,72,126,4
3,68,126,4
3,77,126,4
3,72,126,4
3,68,126,4
3,65,126,4
3,58,126,4
3,62,126,4
3,65,126,4
3,62,126,4
3,68,126,4
3,65,126,4
3,62,126,4
3,58,126,4
3,63,126,4
3,67,126,4
3,70,126,4
3,67,126,4
3,74,126,4
3,70,126,4
3,67,126,4
3,63,126,4
3,68,126,4
3,72,126,4
3,75,126,4
3,72,126,4
3,79,126,4
3,75,126,4
3,72,126,4
3,68,126,4
3,65,126,4
3,68,126,4
3,72,126,4
3,68,126,4
3,77,126,4
3,72,126,4
3,68,126,4
3,65,126,4
3,67,126,4
3,71,126,4
3,74,126,4
3,71,126,4
3,79,126,4
3,74,126,4
3,71,126,4
3,67,126,4
3,60,126,4
3,64,126,4
3,67,126,4
3,64,126,4
3,72,126,4
3,67,126,4
3,64,126,4
3,60,126,4
3,58,126,4
3,62,126,4
3,65,126,4
3,62,126,4
3,70,126,4
3,65,126,4
3,62,126,4
3,58,126,4
3,60,126,4
3,64,126,4
3,67,126,4
3,64,126,4
3,72,126,4
3,67,126,4
3,64,126,4
3,60,126,4
3,58,126,4
3,62,126,4
3,65,126,4
3,62,126,4
3,70,126,4
3,65,126,4
3,62,126,4
3,58,126,4
3,60,126,4
4,46,125,7296
4,56,125,384
4,53,125,0
4,60,125,0
4,46,125,0
4,56,125,384
4,60,125,0
4,53,125,0
4,46,125,0
4,56,125,384
4,60,125,0
4,53,125,0
4,46,125,0
4,60,125,384
4,56,125,0
4,53,125,0
4,51,125,0
4,62,125,384
4,55,125,0
4,58,125,0
4,46,125,0
4,62,125,384
4,58,125,0
4,55,125,0
4,51,125,0
4,62,125,384
4,58,125,0
4,55,125,0
4,51,125,0
4,62,125,384
4,58,125,0
4,55,125,0
4,46,125,0
4,53,125,384
4,56,125,0
4,60,125,0
4,46,125,0
4,53,125,384
4,56,125,0
4,60,125,0
4,46,125,0
4,60,125,384
4,56,125,0
4,53,125,0
4,46,125,0
4,56,125,384
4,60,125,0
4,53,125,0
4,51,125,0
4,55,125,384
4,62,125,0
4,58,125,0
4,46,125,0
4,62,125,384
4,55,125,0
4,58,125,0
4,51,125,0
4,55,125,384
4,62,125,0
4,58,125,0
4,51,125,0
4,62,125,384
4,55,125,0
4,58,125,0
4,44,125,0
4,60,125,384
4,56,125,0
4,63,125,0
4,44,125,0
4,60,125,384
4,63,125,0
4,55,125,0
4,46,125,0
4,58,125,384
4,53,125,0
4,62,125,0
4,46,125,0
4,53,125,384
4,58,125,0
4,62,125,0
4,43,125,0
4,55,125,384
4,62,125,0
4,58,125,0
4,43,125,0
4,58,125,384
4,55,125,0
4,62,125,0
4,48,125,0
4,60,125,384
4,63,125,0
4,55,125,0
4,48,125,0
4,60,125,384
4,55,125,0
4,63,125,0
4,41,125,0
4,53,125,384
4,56,125,0
4,60,125,0
4,48,125,0
4,53,125,384
4,56,125,0
4,60,125,0
4,41,125,0
4,53,125,384
4,56,125,0
4,60,125,0
4,41,125,0
4,53,125,384
4,56,125,0
4,60,125,0
4,49,125,0
4,65,125,384
4,56,125,0
4,61,125,0
4,49,125,0
4,65,125,384
4,61,125,0
4,56,125,0
4,46,125,0
4,62,125,384
4,56,125,0
4,53,125,0
4,41,125,0
4,56,125,384
4,62,125,0
4,53,125,0
4,46,125,0
4,56,125,384
4,53,125,0
4,60,125,0
4,46,125,0
4,56,125,384
4,60,125,0
4,53,125,0
4,46,125,0
4,56,125,384
4,60,125,0
4,53,125,0
4,46,125,0
4,60,125,384
4,56,125,0
4,53,125,0
4,51,125,0
4,62,125,384
4,55,125,0
4,58,125,0
4,46,125,0
4,62,125,384
4,58,125,0
4,55,125,0
4,51,125,0
4,62,125,384
4,58,125,0
4,55,125,0
4,51,125,0
4,62,125,384
4,58,125,0
4,55,125,0
4,46,125,0
4,53,125,384
4,56,125,0
4,60,125,0
4,46,125,0
4,53,125,384
4,56,125,0
4,60,125,0
4,46,125,0
4,60,125,384
4,56,125,0
4,53,125,0
4,46,125,0
4,56,125,384
4,60,125,0
4,53,125,0
4,51,125,0
4,55,125,384
4,62,125,0
4,58,125,0
4,46,125,0
4,62,125,384
4,55,125,0
4,58,125,0
4,51,125,0
4,55,125,384
4,62,125,0
4,58,125,0
4,51,125,0
4,62,125,384
4,55,125,0
4,58,125,0
4,44,125,0
4,60,125,384
4,56,125,0
4,63,125,0
4,44,125,0
4,60,125,384
4,63,125,0
4,55,125,0
4,46,125,0
4,58,125,384
4,53,125,0
4,62,125,0
4,46,125,0
4,53,125,384
4,58,125,0
4,62,125,0
4,43,125,0
4,55,125,384
4,62,125,0
4,58,125,0
4,43,125,0
4,58,125,384
4,55,125,0
4,62,125,0
4,48,125,0
4,60,125,384
4,63,125,0
4,55,125,0
4,48,126,0
4,60,126,384
4,55,126,0
4,63,126,0
4,41,126,0
4,53,126,384
4,56,126,0
4,60,126,0
4,48,126,0
4,53,126,384
4,56,126,0
4,60,126,0
4,41,126,0
4,53,126,384
4,56,126,0
4,60,126,0
4,41,126,0
4,53,126,384
4,56,126,0
4,60,126,0
4,49,126,0
4,65,126,384
4,56,126,0
4,61,126,0
4,49,126,0
4,65,126,384
4,61,126,0
4,56,126,0
4,46,126,0
4,62,126,384
4,56,126,0
4,53,126,0
4,41,126,0
4,56,126,384
4,62,126,0
4,53,126,0
4,46,126,0
4,56,126,384
4,53,126,0
4,60,126,0
4,46,126,0
4,56,126,384
4,60,126,0
4,53,126,0
4,46,126,0
4,56,126,384
4,60,126,0
4,53,126,0
4,46,126,0
4,60,126,384
4,56,126,0
4,53,126,0
4,51,126,0
4,62,126,384
4,55,126,0
4,58,126,0
4,46,126,0
4,62,126,384
4,58,126,0
4,55,126,0
4,51,126,0
4,62,126,384
4,58,126,0
4,55,126,0
4,51,126,0
4,62,126,384
4,58,126,0
4,55,126,0
4,46,126,0
4,53,126,384
4,56,126,0
4,60,126,0
4,46,126,0
4,53,126,384
4,56,126,0
4,60,126,0
4,46,126,0
4,60,126,384
4,56,126,0
4,53,126,0
4,46,126,0
4,56,126,384
4,60,126,0
4,53,126,0
4,51,126,0
4,55,126,384
4,62,126,0
4,58,126,0
4,46,126,0
4,62,126,384
4,55,126,0
4,58,126,0
4,51,126,0
4,55,126,384
4,62,126,0
4,58,126,0
4,51,126,0
4,62,126,384
4,55,126,0
4,58,126,0
4,44,126,0
4,60,126,384
4,56,126,0
4,63,126,0
4,44,126,0
4,60,126,384
4,63,126,0
4,55,126,0
4,46,126,0
4,58,126,384
4,53,126,0
4,62,126,0
4,46,126,0
4,53,126,384
4,58,126,0
4,62,126,0
4,43,126,0
4,55,126,384
4,62,126,0
4,58,126,0
4,43,126,0
4,58,126,384
4,55,126,0
4,62,126,0
4,48,126,0
4,60,126,384
4,63,126,0
4,55,126,0
4,48,126,0
4,60,126,384
4,55,126,0
4,63,126,0
4,41,126,0
4,65,126,384
4,56,126,0
4,60,126,0
4,41,126,0
4,65,126,384
4,56,126,0
4,60,126,0
4,46,126,0
4,56,126,384
4,62,126,0
4,65,126,0
4,46,126,0
4,56,126,384
4,62,126,0
4,65,126,0
4,51,126,0
4,62,126,384
4,55,126,0
4,58,126,0
4,51,126,0
4,58,126,384
4,62,126,0
4,55,126,0
4,44,126,0
4,55,126,384
4,63,126,0
4,60,126,0
4,44,126,0
4,63,126,384
4,60,126,0
4,55,126,0
4,41,126,0
4,65,126,384
4,60,126,0
4,56,126,0
4,41,126,0
4,65,126,384
4,56,126,0
4,60,126,0
4,43,126,0
4,59,126,384
4,62,126,0
4,55,126,0
4,43,126,0
4,55,126,384
4,59,126,0
4,62,126,0
4,48,126,0
4,60,126,384
4,64,126,0
4,55,126,0
4,48,126,0
4,64,126,384
4,60,126,0
4,55,126,0
4,46,126,0
4,62,126,384
4,53,126,0
4,58,126,0
4,46,126,0
4,58,126,384
4,62,126,0
4,53,126,0
4,48,126,0
4,64,126,384
4,60,126,0
4,55,126,0
4,48,126,0
4,60,126,384
4,64,126,0
4,55,126,0
4,46,126,0
4,62,126,384
4,58,126,0
4,53,126,0
4,46,126,0
4,58,126,384
4,53,126,0
4,62,126,0
4,48,126,0
4,60,88,0
4,64,81,0
4,55,88,0
5,75,125,11520
5,82,125,0
5,82,125,0
5,79,125,0
5,77,125,3840
5,75,125,0
5,82,125,0
5,79,125,0
5,75,125,0
5,77,125,0
5,79,125,0
5,80,125,0
5,82,125,0
5,83,125,0
5,84,126,0
5,75,125,14976
5,82,125,0
5,82,125,0
5,79,125,0
5,77,125,3840
5,75,125,0
5,82,125,0
5,79,125,0
5,75,125,0
5,77,125,0
5,79,125,0
5,80,125,0
5,82,125,0
5,83,125,0
5,84,126,0
5,75,125,14976
5,82,125,0
5,82,125,0
5,79,125,0
5,77,125,3374
5,75,125,0
5,82,125,0
5,79,125,0
5,75,125,0
5,77,125,0
5,79,125,0
5,80,125,0
5,82,125,0
5,83,125,0
5,84,126,0
6,87,91,378
6,75,91,0
6,86,97,96
6,74,97,0
6,84,87,90
6,72,87,0
6,82,95,90
6,70,95,0
6,87,93,90
6,75,93,0
6,86,95,90
6,74,95,0
6,84,81,90
6,72,81,0
6,82,101,90
6,70,101,0
6,87,91,90
6,75,91,0
6,86,92,90
6,74,92,0
6,84,87,90
6,72,87,0
6,82,97,90
6,70,97,0
6,87,101,90
6,75,101,0
6,86,102,90
6,74,102,0
6,84,92,90
6,72,92,0
6,82,101,90
6,70,101,0
6,87,91,90
6,75,91,0
6,86,97,90
6,74,97,0
6,84,87,90
6,72,87,0
