track,note,velocity,time
1,33,124,4608
1,33,124,578
1,33,124,26
1,38,124,1634
1,36,124,50
1,33,124,50
1,28,124,50
1,30,124,2
1,31,124,2
1,32,124,2
1,33,124,2
1,38,124,98
1,36,124,50
1,33,124,50
1,28,124,50
1,30,124,2
1,31,124,2
1,32,124,2
1,33,124,2
1,38,124,98
1,36,124,50
1,33,124,50
1,28,124,50
1,30,124,2
1,31,124,2
1,32,124,2
1,33,124,2
1,38,124,98
1,36,124,50
1,33,124,50
1,28,124,50
1,30,124,2
1,31,124,2
1,32,124,2
1,33,124,2
1,30,124,98
1,30,124,26
1,31,124,202
1,31,124,26
1,33,124,202
1,33,124,26
1,30,124,586
1,30,124,26
1,31,124,202
1,31,124,26
1,38,124,202
1,38,124,10
1,30,124,586
1,30,124,26
1,31,124,202
1,31,124,26
1,38,124,202
1,38,124,50
1,33,124,1538
1,33,124,578
1,33,124,26
1,33,124,674
1,33,124,578
1,33,124,2
1,33,124,674
1,33,124,578
1,33,124,2
1,33,124,674
1,33,124,578
1,38,124,194
1,36,124,50
1,33,124,50
1,28,124,50
1,30,124,2
1,31,124,2
1,32,124,2
1,33,124,2
1,38,124,98
1,36,124,50
1,33,124,50
1,28,124,50
1,30,124,2
1,31,124,2
1,32,124,2
1,33,124,2
1,38,124,98
1,36,124,50
1,33,124,50
1,28,124,50
1,30,124,2
1,31,124,2
1,32,124,2
1,33,124,2
1,38,124,98
1,36,124,50
1,33,124,50
1,28,124,50
1,30,124,2
1,31,124,2
1,32,124,2
1,33,124,2
1,30,124,98
1,30,124,26
1,31,124,202
1,31,124,26
1,33,124,202
1,33,124,26
1,30,124,586
1,30,124,26
1,31,124,202
1,31,124,26
1,38,124,202
1,38,124,10
1,30,124,586
1,30,124,26
1,31,124,202
1,31,124,26
1,38,124,202
1,38,124,50
1,33,124,1538
1,33,124,578
1,33,124,26
1,33,124,674
1,33,124,98
1,37,124,2
1,38,124,2
1,40,124,2
1,45,124,98
1,45,124,34
1,43,124,2
1,40,124,2
1,38,124,50
1,36,124,50
1,33,124,50
1,28,124,50
1,30,124,2
1,31,124,2
1,32,124,2
1,33,124,2
1,38,124,98
1,36,124,50
1,33,124,50
1,28,124,50
1,30,124,2
1,31,124,2
1,32,124,2
1,33,124,2
1,38,124,98
1,36,124,50
1,33,124,50
1,28,124,50
1,30,124,2
1,31,124,2
1,32,124,2
1,33,124,2
1,38,124,98
1,36,124,50
1,33,124,50
1,28,124,50
1,30,124,2
1,31,124,2
1,32,124,2
1,33,124,2
1,30,124,98
1,30,124,26
1,31,124,202
1,31,124,26
1,33,124,202
1,33,124,26
1,30,124,586
1,30,124,26
1,31,124,202
1,31,124,26
1,38,124,202
1,38,124,10
1,30,124,586
1,30,124,26
1,31,124,202
1,31,124,26
1,38,124,202
1,38,124,50
1,30,114,2
1,31,114,2
1,33,114,2
1,31,114,2
1,33,114,2
1,31,114,194
1,33,114,2
1,31,114,2
1,33,114,2
1,31,114,2
1,33,114,2
1,30,114,290
1,31,114,2
1,33,114,2
1,31,114,2
1,33,114,2
1,31,114,194
1,33,114,2
1,31,114,2
1,33,114,2
1,31,114,2
1,33,114,2
1,30,114,290
1,31,114,2
1,33,114,2
1,31,114,2
1,33,114,2
1,31,114,194
1,33,114,2
1,31,114,2
1,33,114,2
1,31,114,2
1,33,114,2
1,30,114,290
1,31,114,2
1,33,114,2
1,31,114,2
1,33,114,2
1,31,114,194
1,33,114,2
1,31,114,2
1,33,114,2
1,31,114,2
1,33,114,2
1,30,114,290
1,31,114,2
1,33,114,2
1,31,114,2
1,33,114,2
1,31,114,194
1,33,114,2
1,31,114,2
1,33,114,2
1,31,114,2
1,33,114,2
1,30,114,290
1,31,114,2
1,33,114,2
1,31,114,2
1,33,114,2
1,31,114,194
1,33,114,2
1,31,114,2
1,33,114,2
1,31,114,2
1,33,114,2
1,30,114,290
1,31,114,2
1,33,114,2
1,31,114,2
1,33,114,2
1,31,114,194
1,33,114,2
1,31,114,2
1,33,114,2
1,31,114,2
1,33,114,2
1,30,114,290
1,31,114,2
1,33,114,2
1,31,114,2
1,33,114,2
1,31,114,194
1,33,114,2
1,31,114,2
1,33,114,2
1,31,114,2
1,33,114,2
1,30,114,290
1,31,114,2
1,33,114,2
1,31,114,2
1,33,114,2
1,31,114,194
1,33,114,2
1,31,114,2
1,33,114,2
1,31,114,2
1,33,114,2
1,30,114,290
1,31,114,2
1,33,114,2
1,31,114,2
1,33,114,2
1,31,114,194
1,33,114,2
1,31,114,2
1,33,114,2
1,31,114,2
1,33,114,2
1,30,114,290
1,31,114,2
1,33,114,2
1,31,114,2
1,33,114,2
1,31,114,194
1,33,114,2
1,31,114,2
1,33,114,2
1,31,114,2
1,33,114,2
1,30,114,290
1,31,114,2
1,33,114,2
1,31,114,2
1,33,114,2
1,31,114,194
1,33,114,2
1,31,114,2
1,33,114,2
1,31,114,2
1,33,114,2
1,30,114,290
1,31,114,2
1,33,114,2
1,31,114,2
1,33,114,2
1,31,114,194
1,33,114,2
1,31,114,2
1,33,114,2
1,31,114,2
1,33,114,2
1,30,114,290
1,31,114,2
1,33,114,2
1,31,114,2
1,33,114,2
1,31,114,194
1,33,114,2
1,31,114,2
1,33,114,2
1,31,114,2
1,33,114,2
1,30,114,290
1,31,114,2
1,33,114,2
1,31,114,2
1,33,114,2
1,31,114,194
1,33,114,2
1,31,114,2
1,33,114,2
1,31,114,2
1,33,114,2
1,30,114,290
1,31,114,2
1,33,114,2
1,31,114,2
1,33,114,2
1,31,114,194
1,33,114,2
1,31,114,2
1,33,114,2
1,31,114,2
1,33,114,2
1,30,114,290
1,31,114,2
1,33,114,2
1,31,114,2
1,33,114,2
1,31,114,194
1,33,114,2
1,31,114,2
1,33,114,2
1,31,114,2
1,33,114,2
1,30,114,290
1,31,114,2
1,33,114,2
1,31,114,2
1,33,114,2
1,31,114,194
1,33,114,2
1,31,114,2
1,33,114,2
1,31,114,2
1,33,114,2
1,30,114,290
1,31,114,2
1,33,114,2
1,31,114,2
1,33,114,2
1,31,114,194
1,33,114,2
1,31,114,2
1,33,114,2
1,31,114,2
1,33,114,2
1,30,114,290
1,31,114,2
1,33,114,2
1,31,114,2
1,33,114,2
1,31,114,194
1,33,114,2
1,31,114,2
1,33,114,2
1,31,114,2
1,33,114,2
1,30,114,290
1,31,114,2
1,33,114,2
1,31,114,2
1,33,114,2
1,31,114,194
1,33,114,2
1,31,114,2
1,33,114,2
1,31,114,2
1,33,114,2
1,30,114,290
1,31,114,2
1,33,114,2
1,31,114,2
1,33,114,2
1,31,114,194
1,33,114,2
1,31,114,2
1,33,114,2
1,31,114,2
1,33,114,2
1,30,114,290
1,31,114,2
1,33,114,2
1,31,114,2
1,33,114,2
1,31,114,194
1,33,114,2
1,31,114,2
1,33,114,2
1,31,114,2
1,33,114,2
1,30,114,290
1,31,114,2
1,33,114,2
1,31,114,2
1,33,114,2
1,31,114,194
1,33,114,2
1,31,114,2
1,33,114,2
1,31,114,2
1,33,114,2
1,30,114,290
1,31,114,2
1,33,114,2
2,42,68,13248
2,42,68,29
2,43,68,221
2,43,68,29
2,45,68,221
2,45,68,29
2,42,68,605
2,42,68,0
2,42,68,29
2,43,68,221
2,43,68,29
2,50,68,221
2,50,68,29
2,42,68,605
2,42,68,29
2,43,68,221
2,43,68,29
2,38,68,221
2,50,68,0
2,50,68,66
2,38,68,0
2,42,68,13250
2,42,68,29
2,43,68,221
2,43,68,29
2,45,68,221
2,45,68,29
2,42,68,605
2,42,68,29
2,43,68,221
2,43,68,29
2,50,68,221
2,50,68,29
2,42,68,605
2,42,68,29
2,43,68,221
2,43,68,29
2,38,68,221
2,50,68,0
2,50,68,66
2,38,68,0
2,33,93,3266
2,37,93,2
2,38,93,2
2,40,93,2
2,42,68,6530
2,42,68,29
2,43,68,221
2,43,68,29
2,45,68,221
2,45,68,29
2,42,68,605
2,42,68,29
2,43,68,221
2,43,68,29
2,50,68,221
2,50,68,29
2,42,68,605
2,42,68,29
2,43,68,221
2,43,68,29
2,38,68,221
2,50,68,0
2,50,68,66
2,38,68,0
3,45,100,6720
3,45,100,66
3,45,100,66
3,43,100,2
3,40,100,2
3,30,74,7298
3,33,74,2
3,35,74,2
3,37,74,26
3,35,74,2
3,33,74,2
3,30,74,1154
3,33,74,2
3,35,74,2
3,37,74,26
3,35,74,2
3,33,74,2
3,30,74,15746
3,33,74,2
3,35,74,2
3,37,74,26
3,35,74,2
3,33,74,2
3,30,74,1154
3,33,74,2
3,35,74,2
3,37,74,26
3,35,74,2
3,33,74,2
3,45,110,5138
3,45,110,34
3,43,110,2
3,40,110,2
3,30,100,7298
3,33,100,2
3,35,74,2
3,37,74,26
3,35,74,2
3,33,74,2
3,30,74,1154
3,33,74,2
3,35,74,2
3,37,74,26
3,35,74,2
3,33,74,2
3,30,104,576
3,31,100,2
3,33,100,2
3,31,104,2
3,33,100,2
3,31,100,194
3,33,100,48
3,31,108,2
3,33,96,2
3,31,105,2
3,33,95,2
3,30,99,290
3,31,89,2
3,33,105,2
3,31,98,2
3,33,100,2
3,31,105,194
3,33,100,48
3,31,100,2
3,33,100,2
3,31,93,2
3,33,102,2
3,30,92,290
3,31,100,2
3,33,100,2
3,31,103,2
3,33,110,2
3,31,100,194
3,33,90,48
3,31,112,2
3,33,104,2
3,31,100,2
3,33,99,2
3,30,97,290
3,31,97,2
3,33,104,2
3,31,111,2
3,33,100,2
3,31,100,194
3,33,94,48
3,31,106,2
3,33,100,2
3,31,97,2
3,33,108,2
3,30,101,290
3,31,100,2
3,33,112,2
3,31,111,2
3,33,100,2
3,31,100,194
3,33,100,48
3,31,100,2
3,33,100,2
3,31,100,2
3,33,99,2
3,30,100,290
3,31,89,2
3,33,91,2
3,31,100,2
3,33,111,2
3,31,111,194
3,33,102,48
3,31,100,2
3,33,100,2
3,31,107,2
3,33,111,2
3,30,100,290
3,31,100,2
3,33,95,2
3,31,101,2
3,33,110,2
3,31,97,194
3,33,90,48
3,31,100,2
3,33,100,2
3,31,93,2
3,33,111,2
3,30,100,290
3,31,105,2
3,33,111,2
3,31,98,2
3,33,99,2
3,31,110,194
3,33,100,48
3,31,107,2
3,33,104,2
3,31,100,2
3,33,100,2
3,30,111,290
3,31,100,2
3,33,109,2
3,31,106,2
3,33,108,2
3,31,93,194
3,33,97,48
3,31,98,2
3,33,93,2
3,31,112,2
3,33,98,2
3,30,100,290
3,31,104,2
3,33,107,2
3,31,95,2
3,33,100,2
3,31,91,194
3,33,103,48
3,31,95,2
3,33,100,2
3,31,100,2
3,33,105,2
3,30,107,290
3,31,98,2
3,33,102,2
3,31,100,2
3,33,100,2
3,31,100,194
3,33,94,48
3,31,96,2
3,33,103,2
3,31,91,2
3,33,102,2
3,30,100,290
3,31,105,2
3,33,103,2
3,31,100,2
3,33,103,2
3,31,99,194
3,33,103,48
3,31,100,2
3,33,97,2
3,31,107,2
3,33,97,2
3,30,99,290
3,31,106,2
3,33,102,2
3,31,94,2
3,33,99,2
3,31,88,194
3,33,91,48
3,31,106,2
3,33,107,2
3,31,100,2
3,33,99,2
3,30,93,290
3,31,94,2
3,33,100,2
3,31,109,2
3,33,109,2
3,31,100,194
3,33,100,48
3,31,100,2
3,33,102,2
3,31,108,2
3,33,100,2
3,30,100,290
3,31,108,2
3,33,99,2
3,31,92,2
3,33,100,2
3,31,100,194
3,33,94,48
3,31,100,2
3,33,88,2
3,31,102,2
3,33,100,2
3,30,98,290
3,31,100,2
3,33,112,2
3,31,101,2
3,33,99,2
3,31,108,194
3,33,103,48
3,31,101,2
3,33,90,2
3,31,110,2
3,33,100,2
3,30,100,290
3,31,93,2
3,33,100,2
3,31,100,2
3,33,100,2
3,31,106,194
3,33,102,48
3,31,100,2
3,33,88,2
3,31,100,2
3,33,93,2
3,30,93,290
3,31,100,2
3,33,111,2
3,31,93,2
3,33,103,2
3,31,100,194
3,33,103,48
3,31,100,2
3,33,104,2
3,31,100,2
3,33,101,2
3,30,100,290
3,31,92,2
3,33,100,2
3,31,100,2
3,33,100,2
3,31,88,194
3,33,88,48
3,31,103,2
3,33,106,2
3,31,98,2
3,33,100,2
3,30,88,290
3,31,100,2
3,33,107,2
3,31,104,2
3,33,100,2
3,31,95,194
3,33,100,48
3,31,102,2
3,33,94,2
3,31,94,2
3,33,100,2
3,30,100,290
3,31,94,2
3,33,103,2
3,31,99,2
3,33,97,2
3,31,102,194
3,33,94,48
3,31,91,2
3,33,108,2
3,31,107,2
3,33,98,2
3,30,95,290
3,31,100,2
3,33,89,2
3,31,100,2
3,33,100,2
3,31,93,194
3,33,100,48
3,31,100,2
3,33,109,2
3,31,89,2
3,33,100,2
3,30,100,290
3,31,105,2
3,33,98,2
3,31,93,2
3,33,100,2
3,31,93,194
3,33,110,48
3,31,100,2
3,33,111,2
3,31,100,2
3,33,91,2
3,30,100,290
3,31,89,2
3,33,107,2
3,31,100,2
3,33,92,2
3,31,95,194
3,33,111,48
3,31,100,2
3,33,100,2
3,31,90,2
3,33,105,2
3,30,96,290
3,31,112,2
3,33,100,2
4,50,54,768
4,57,54,2
4,57,84,18
4,62,84,8
4,69,94,8
4,69,94,18
4,66,91,8
4,64,84,2
4,67,94,8
4,66,94,24
4,62,94,8
4,57,94,2
4,62,94,5
4,57,52,40
4,62,52,5
4,57,74,40
4,62,74,5
4,57,52,40
4,62,52,5
4,50,54,40
4,54,54,2
4,59,84,2
4,62,84,8
4,67,94,8
4,67,94,2
4,62,84,8
4,62,84,2
4,66,91,8
4,64,84,24
4,61,84,8
4,57,84,8
4,57,94,0
4,62,94,5
4,57,52,40
4,62,52,5
4,57,74,40
4,62,74,5
4,57,52,40
4,62,52,5
4,50,54,40
4,57,54,18
4,57,84,18
4,62,84,8
4,69,94,8
4,69,94,18
4,66,91,8
4,64,84,2
4,67,94,8
4,66,94,24
4,62,94,8
4,57,94,2
4,62,94,5
4,57,52,40
4,62,52,5
4,57,74,40
4,62,74,5
4,57,52,40
4,62,52,5
4,50,54,40
4,54,54,2
4,59,84,2
4,62,84,8
4,67,94,8
4,67,94,2
4,62,84,8
4,62,84,2
4,66,91,8
4,64,84,24
4,61,84,8
4,57,84,8
4,57,94,0
4,62,94,5
4,57,52,40
4,62,52,5
4,57,74,40
4,62,74,5
4,57,52,40
4,62,52,5
4,50,54,40
4,57,54,2
4,57,84,18
4,62,84,8
4,69,94,8
4,69,94,18
4,66,91,8
4,64,84,2
4,67,94,8
4,66,94,24
4,62,94,8
4,57,94,2
4,62,94,5
4,57,52,40
4,62,52,5
4,57,74,40
4,62,74,5
4,57,52,40
4,62,52,5
4,50,54,40
4,54,54,2
4,59,84,2
4,62,84,8
4,67,94,8
4,67,94,2
4,62,84,8
4,62,84,2
4,66,91,8
4,64,84,24
4,61,84,8
4,57,84,8
4,57,94,0
4,62,94,5
4,57,52,40
4,62,52,5
4,57,74,40
4,62,74,5
4,57,52,40
4,62,52,5
4,57,54,136
4,57,84,18
4,62,84,8
4,69,94,8
4,69,94,18
4,66,91,8
4,64,84,2
4,67,94,8
4,66,94,24
4,62,94,8
4,57,94,2
4,62,94,5
4,57,52,40
4,62,52,5
4,57,74,40
4,62,74,5
4,57,52,40
4,62,52,5
4,50,54,40
4,54,54,2
4,59,84,2
4,62,84,8
4,67,94,8
4,67,94,2
4,62,84,8
4,62,84,2
4,66,91,8
4,64,84,24
4,61,84,8
4,57,84,8
4,45,44,8
4,57,84,11808
4,61,84,8
4,64,84,8
4,69,94,50
4,61,84,8
4,57,84,8
4,59,84,18
4,64,84,8
4,67,94,8
4,66,91,24
4,62,84,8
4,50,59,8
4,57,74,98
4,62,74,5
4,57,52,40
4,62,52,5
4,57,94,40
4,62,94,5
4,50,54,88
4,54,54,8
4,62,84,8
4,67,94,2
4,59,84,8
4,55,64,8
4,57,84,50
4,62,84,8
4,66,91,8
4,64,84,8
4,61,84,8
4,57,84,8
4,57,84,288
4,61,84,8
