track,note,velocity,time
1,36,110,6232
1,36,0,115
1,37,110,5
1,37,0,115
1,38,110,5
1,38,0,115
1,41,110,5
1,41,0,115
1,43,110,5
1,43,0,115
1,41,110,5
1,41,0,115
1,43,110,5
1,43,0,115
1,29,110,5
1,29,0,115
1,41,110,2885
1,41,0,7
1,77,110,233
1,77,0,475
1,41,110,5
1,40,110,120
1,40,0,115
1,41,0,5
1,41,110,0
1,41,0,115
1,42,110,5
1,42,0,115
1,43,110,5
1,43,0,355
1,46,110,5
1,46,0,115
1,43,110,5
1,43,0,115
1,48,110,5
1,48,0,115
1,46,110,5
1,46,0,115
1,43,110,5
1,43,0,115
1,46,110,5
1,46,0,355
1,48,110,5
1,48,0,115
1,46,110,5
1,46,0,115
1,48,110,5
1,48,0,5
1,48,110,5
1,48,0,75
1,46,110,5
1,46,0,75
1,43,110,5
1,43,0,235
1,46,110,5
1,46,0,475
1,43,110,5
1,65,110,0
1,65,0,115
1,43,0,0
1,70,110,5
1,70,0,475
1,67,110,0
1,67,0,235
1,65,110,5
1,65,0,235
1,60,110,5
1,60,0,115
1,58,110,5
1,58,0,115
1,55,110,5
1,55,0,235
1,58,110,5
1,58,0,235
1,60,110,5
1,60,0,115
1,58,110,5
1,58,0,115
1,60,110,5
1,60,0,35
1,62,110,5
1,62,0,195
1,65,110,5
1,65,0,235
1,62,110,5
1,62,0,35
1,60,110,5
1,60,0,75
1,58,110,5
1,58,0,115
1,55,110,5
1,55,0,955
1,45,110,40
1,45,0,115
1,46,110,5
1,46,0,115
1,47,110,5
1,47,0,115
1,48,110,5
1,48,0,355
1,51,110,5
1,51,0,115
1,48,110,5
1,48,0,115
1,53,110,5
1,53,0,115
1,51,110,5
1,51,0,115
1,48,110,5
1,48,0,115
1,51,110,5
1,51,0,355
1,53,110,5
1,53,0,115
1,51,110,5
1,51,0,115
1,53,110,5
1,53,0,5
1,53,110,5
1,53,0,75
1,51,110,5
1,51,0,75
1,48,110,5
1,48,0,235
1,51,110,5
1,51,0,475
1,48,110,5
1,48,0,715
1,64,110,5
1,64,0,115
1,65,110,5
1,65,0,115
1,66,110,5
1,66,0,115
1,67,110,5
1,67,0,275
1,67,110,0
1,67,0,115
1,70,110,5
1,70,0,115
1,72,110,5
1,72,0,115
1,70,110,5
1,70,0,115
1,67,110,5
1,67,0,115
1,70,110,5
1,70,0,35
1,72,110,5
1,72,0,115
1,70,110,5
1,70,0,115
1,72,110,5
1,72,0,35
1,74,110,5
1,74,0,195
1,74,110,5
1,74,0,115
1,72,110,5
1,72,0,115
1,67,110,5
1,67,0,235
1,70,110,5
1,70,0,395
1,67,110,0
1,67,0,35
1,69,110,5
1,69,0,35
1,70,110,5
1,70,0,195
1,69,110,245
1,69,0,35
1,70,110,5
1,70,0,195
1,69,110,5
1,69,0,115
1,67,110,5
1,67,0,115
1,69,110,5
1,69,0,35
1,70,110,5
1,70,0,195
1,69,110,5
1,69,0,115
1,67,110,5
1,67,0,115
1,69,110,5
1,69,0,35
1,70,110,5
1,70,0,195
1,69,110,5
1,69,0,115
1,67,110,5
1,67,0,115
1,69,110,5
1,69,0,235
1,70,110,5
1,70,0,235
1,69,110,5
1,69,0,75
1,70,110,5
1,70,0,75
1,69,110,5
1,69,0,75
1,67,110,5
1,67,0,35
1,65,110,5
1,65,0,35
1,67,110,5
1,67,0,195
1,65,110,245
1,65,0,35
1,67,110,5
1,67,0,195
1,65,110,5
1,65,0,115
1,62,110,5
1,62,0,115
1,65,110,5
1,65,0,35
1,67,110,5
1,67,0,195
1,65,110,5
1,65,0,115
1,62,110,5
1,62,0,115
1,65,110,5
1,65,0,35
1,67,110,5
1,67,0,195
1,65,110,5
1,65,0,115
1,62,110,5
1,62,0,115
1,65,110,5
1,65,0,235
1,67,110,5
1,67,0,235
1,65,110,5
1,65,0,75
1,67,110,5
1,67,0,75
1,65,110,5
1,65,0,75
1,64,110,5
1,64,0,35
1,62,110,360
1,62,0,115
1,60,110,5
1,60,0,115
1,58,110,5
1,58,0,115
1,55,110,5
1,55,0,115
1,53,110,5
1,53,0,115
1,50,110,5
1,50,0,115
1,48,110,5
1,48,0,115
1,46,110,5
1,46,0,115
1,43,110,5
1,43,0,235
1,38,100,2982
1,38,0,38
1,40,97,0
1,40,0,27
1,43,97,0
1,43,0,28
1,46,95,0
1,46,0,25
1,49,95,0
1,49,0,22
1,51,95,0
1,51,0,25
1,54,95,0
1,54,0,20
1,57,95,3
1,57,0,20
1,60,95,0
1,60,0,20
1,62,95,0
1,62,0,20
1,65,95,0
1,65,0,20
1,68,95,0
1,68,0,20
1,71,95,5
1,71,0,27
1,74,93,0
1,74,0,60
1,74,112,18
1,74,0,42
1,72,106,40
1,72,0,93
1,74,106,27
1,74,0,80
1,72,106,25
1,72,0,83
1,70,105,60
1,70,0,77
1,72,106,43
1,72,0,90
1,70,105,27
1,70,0,88
1,69,107,47
1,69,0,98
1,70,104,30
1,70,0,85
1,69,104,27
1,69,0,108
1,67,108,25
1,67,0,75
1,67,113,30
1,67,0,42
1,68,109,0
1,68,0,40
1,69,106,0
1,69,0,133
1,67,112,52
1,67,0,173
1,65,110,27
1,65,0,108
1,67,108,25
1,67,0,87
1,65,111,28
1,65,0,85
1,64,109,30
1,64,0,97
1,65,111,33
1,65,0,70
1,64,107,50
1,64,0,70
1,62,110,52
1,62,0,93
1,64,108,27
1,64,0,98
1,62,109,27
1,62,0,83
1,60,107,30
1,60,0,87
1,62,109,28
1,62,0,85
1,60,108,35
1,60,0,75
1,58,109,45
1,58,0,95
1,60,107,30
1,60,0,90
1,57,105,57
1,57,0,75
1,58,104,38
1,58,0,102
1,55,107,33
1,55,0,80
1,58,105,25
1,58,0,102
1,53,104,18
1,53,0,95
1,55,104,20
1,55,0,85
1,44,98,27
1,50,105,3
1,44,0,50
1,50,0,30
1,53,106,32
1,53,0,98
1,48,107,15
1,48,0,100
1,50,106,25
1,50,0,67
1,46,106,55
1,46,0,98
1,48,105,27
1,48,0,93
1,45,105,35
1,45,0,92
1,46,105,15
1,46,0,120
1,43,108,13
1,43,0,240
1,43,109,15
1,43,0,72
1,41,107,33
1,41,0,107
1,43,104,33
1,43,0,80
1,46,106,27
1,46,0,98
1,42,95,7
1,42,0,13
1,48,107,0
1,48,0,122
1,49,106,0
1,49,0,18
1,50,105,0
1,50,0,75
1,52,106,27
1,46,103,0
1,46,0,18
1,52,0,82
1,52,97,0
1,52,0,5
1,50,104,8
1,55,98,0
1,55,0,65
1,50,0,2
1,52,105,28
1,52,0,105
1,52,107,25
1,52,0,82
1,53,104,0
1,47,98,0
1,47,0,58
1,53,0,80
1,52,104,22
1,52,0,108
1,53,107,17
1,53,0,103
1,54,104,0
1,54,0,17
1,55,103,0
1,55,0,100
1,57,111,15
1,57,0,125
1,58,105,0
1,58,0,100
1,58,112,15
1,58,0,108
1,59,106,0
1,59,0,20
1,60,106,0
1,60,0,100
1,60,108,20
1,60,0,105
1,61,105,5
1,61,0,10
1,62,104,0
1,62,0,110
1,62,113,10
1,62,0,100
1,63,107,0
1,63,0,17
1,64,107,0
1,64,0,103
1,64,113,17
1,64,0,120
1,65,107,0
1,65,0,103
1,65,113,12
1,65,0,108
1,66,108,0
1,66,0,20
1,67,107,0
1,67,0,97
1,67,113,20
1,67,0,108
1,69,105,12
1,69,0,113
1,69,111,20
1,69,0,95
1,70,105,0
1,70,0,125
1,70,111,10
1,70,0,117
1,70,108,23
1,70,0,97
1,70,108,75
1,70,0,118
1,70,107,20
1,70,0,142
1,70,107,20
1,70,0,158
1,70,108,40
1,70,0,115
1,72,104,25
1,72,0,87
1,70,109,23
1,70,0,100
1,72,105,20
1,72,0,120
1,70,104,20
1,70,0,120
1,72,102,10
1,72,0,100
1,70,106,10
1,70,0,92
1,72,105,20
1,72,0,108
1,74,110,17
1,74,0,193
1,72,103,27
1,72,0,100
1,74,106,13
1,74,0,100
1,75,98,2
1,75,0,8
1,76,97,5
1,76,0,7
1,76,104,18
1,76,0,200
1,74,101,22
1,74,0,105
1,76,103,20
1,76,0,100
1,77,97,3
1,77,0,5
1,77,98,12
1,77,0,88
1,76,105,35
1,76,0,97
1,74,104,28
1,74,0,87
1,72,106,33
1,72,0,92
1,74,102,3
1,74,0,5
1,74,105,25
1,74,0,95
1,72,105,25
1,72,0,60
1,70,106,50
1,70,0,92
1,72,105,25
1,72,0,115
1,67,110,18
1,67,0,80
1,65,113,35
1,65,0,120
1,67,112,20
1,67,0,92
1,65,112,23
1,65,0,80
1,64,103,10
1,64,0,15
1,64,111,5
1,64,0,87
1,65,113,28
1,65,0,85
1,64,104,7
1,64,0,15
1,64,109,5
1,64,0,63
1,62,103,20
1,62,0,10
1,62,112,22
1,62,0,108
1,61,105,10
1,61,0,7
1,60,102,8
1,60,0,100
1,60,112,20
1,60,0,92
1,59,104,8
1,59,0,7
1,58,111,20
1,58,0,113
1,60,104,0
1,60,0,7
1,60,112,8
1,60,0,110
1,60,113,15
1,60,0,535
1,69,111,160
1,69,0,17
1,70,105,0
1,70,0,20
1,71,104,0
1,71,0,8
1,72,102,5
1,72,0,7
1,73,102,0
1,73,0,8
1,74,101,0
1,74,0,7
1,75,102,0
1,75,0,8
1,76,101,0
1,76,0,10
1,77,100,0
1,77,0,2
1,78,100,0
1,78,0,8
1,80,99,0
1,80,0,10
1,81,99,0
1,81,0,250
1,81,113,20
1,81,0,117
1,80,102,0
1,80,0,15
1,79,100,0
1,79,0,8
1,78,98,5
1,78,0,7
1,77,97,0
1,77,0,5
1,75,95,20
1,75,0,8
1,74,95,0
1,74,0,7
1,73,93,0
1,73,0,38
1,81,112,127
1,81,0,120
1,79,113,103
1,79,0,65
1,77,112,45
1,77,0,87
1,79,106,28
1,79,0,92
1,77,112,28
1,77,0,80
1,76,113,40
1,76,0,95
1,77,104,5
1,77,0,7
1,77,109,20
1,77,0,98
1,76,97,7
1,76,0,3
1,76,110,25
1,76,0,105
1,74,106,22
1,74,0,85
1,76,109,33
1,76,0,80
1,74,108,35
1,74,0,115
1,75,99,0
1,75,0,20
1,76,98,0
1,76,0,52
1,75,97,0
1,75,0,28
1,74,98,0
1,74,0,12
1,69,103,20
1,74,105,0
1,69,0,5
1,74,0,83
1,70,104,37
1,70,0,83
1,72,106,25
1,72,0,105
1,67,113,35
1,67,0,200
1,69,109,25
1,69,0,90
1,70,103,0
1,70,0,5
1,70,107,25
1,70,0,95
1,69,108,25
1,69,0,102
1,67,113,13
1,64,105,515
1,67,0,32
1,64,0,20
1,76,114,53
1,76,0,35
1,77,106,0
1,77,0,12
1,78,105,0
1,78,0,13
1,79,103,0
1,79,0,7
1,80,103,0
1,80,0,5
1,81,102,3
1,81,0,5
1,82,102,0
1,82,0,7
1,83,101,0
1,83,0,8
1,84,99,5
1,84,0,232
1,84,110,15
1,84,0,138
1,83,98,15
1,83,0,7
1,82,97,0
1,82,0,18
1,81,95,0
1,81,0,15
1,80,93,0
1,80,0,20
1,79,93,0
1,79,0,7
1,78,93,0
1,78,0,18
1,77,91,0
1,77,0,7
1,76,91,0
1,76,0,15
1,75,91,0
1,75,0,13
1,74,91,0
1,74,0,12
1,81,114,283
1,81,0,185
1,79,108,40
1,79,0,92
1,81,100,8
1,81,0,5
1,81,110,20
1,81,0,102
1,79,106,33
1,79,0,87
1,77,102,33
1,77,0,95
1,79,107,45
1,79,0,92
1,77,103,28
1,77,0,85
1,74,104,35
1,74,0,55
1,72,104,52
1,72,0,78
1,74,106,42
1,74,0,60
1,70,105,58
1,70,0,100
1,72,105,30
1,72,0,97
1,69,105,35
1,69,0,88
1,70,105,25
1,70,0,75
1,67,105,45
1,67,0,95
1,69,102,0
1,69,0,12
1,69,104,25
1,69,0,68
1,65,106,47
1,65,0,105
1,67,105,20
1,67,0,80
1,64,103,48
1,64,0,92
1,65,101,0
1,65,0,8
1,65,104,20
1,62,111,112
1,65,0,3
1,62,0,140
1,61,104,10
1,61,0,27
1,60,101,8
1,60,0,25
1,43,111,47
1,48,95,3
1,48,0,20
1,43,0,285
1,41,104,35
1,41,0,97
1,43,103,3
1,43,0,5
1,43,107,25
1,43,0,100
1,46,106,10
1,41,101,0
1,41,0,85
1,46,0,7
1,47,110,18
1,47,0,115
1,48,111,20
1,48,0,215
1,48,109,25
1,48,0,72
1,47,104,8
1,47,0,5
1,40,107,20
1,40,0,220
1,41,105,20
1,41,0,230
1,42,109,10
1,42,0,215
1,43,110,20
1,43,0,332
1,41,102,28
1,41,0,100
1,43,108,25
1,43,0,100
1,41,103,15
1,47,110,5
1,47,0,7
1,46,109,3
1,41,0,32
1,40,95,0
1,40,0,33
1,46,0,20
1,47,110,15
1,47,0,110
1,48,111,20
1,48,0,207
1,48,108,28
1,48,0,85
1,52,108,27
1,52,0,208
1,53,107,20
1,53,0,235
1,54,108,17
1,54,0,233
1,55,107,22
1,55,0,88
1,50,111,30
1,50,0,100
1,43,110,22
1,43,0,220
1,43,109,20
1,43,0,100
1,42,103,8
1,42,0,30
1,46,111,2
1,46,0,98
1,47,110,15
1,47,0,105
1,48,113,22
1,48,0,178
1,48,111,22
1,48,0,93
1,47,104,0
1,47,0,7
1,40,108,28
1,40,0,225
1,41,106,25
1,41,0,222
1,42,108,18
1,42,0,235
1,43,111,20
1,43,0,325
1,41,105,42
1,41,0,98
1,43,109,15
1,43,0,95
1,46,112,17
1,40,100,0
1,40,0,15
1,46,0,80
1,47,112,25
1,47,0,103
1,48,111,20
1,48,0,217
1,48,108,28
1,48,0,80
1,52,107,32
1,52,0,208
1,53,107,25
1,53,0,220
1,54,102,0
1,54,0,7
1,54,108,8
1,54,0,235
1,53,116,51965
1,53,0,32
1,55,111,13
1,55,0,40
1,58,113,7
1,58,0,43
1,60,119,5
1,60,0,35
1,62,111,17
1,62,0,35
1,65,124,13
1,65,0,32
1,62,117,20
1,62,0,40
1,60,125,13
1,60,0,30
1,58,121,20
1,58,0,60
1,53,112,10
1,53,0,35
1,55,111,12
1,55,0,35
1,58,123,5
1,58,0,43
1,60,111,10
1,60,0,35
1,62,109,15
1,62,0,40
1,65,124,12
1,65,0,40
1,62,119,18
1,62,0,40
1,60,111,15
1,60,0,27
1,58,123,20
1,58,0,40
1,53,116,18
1,53,0,40
1,55,114,15
1,55,0,35
1,58,120,17
1,58,0,48
1,60,111,7
1,60,0,38
1,62,106,10
1,62,0,45
1,65,117,12
1,65,0,40
1,62,109,15
1,62,0,40
1,60,111,13
1,60,0,32
1,58,119,20
1,58,0,43
1,53,116,12
1,53,0,45
1,55,109,13
1,55,0,40
1,58,113,15
1,58,0,45
1,60,124,15
1,60,0,35
1,62,106,17
1,62,0,40
1,65,117,8
1,65,0,45
1,62,109,15
1,62,0,40
1,60,112,7
1,60,0,33
1,58,119,25
1,58,0,42
1,55,121,18
1,55,0,35
1,58,118,15
1,58,0,37
1,60,112,13
1,60,0,40
1,62,113,15
1,62,0,40
1,65,120,7
1,65,0,38
1,67,113,15
1,67,0,40
1,70,113,7
1,65,118,5
1,65,0,33
1,70,0,7
1,62,114,15
1,62,0,40
1,60,112,13
1,60,0,35
1,55,118,17
1,55,0,35
1,58,118,18
1,58,0,40
1,60,116,7
1,60,0,40
1,62,112,15
1,62,0,40
1,65,116,8
1,65,0,40
1,67,114,12
1,67,0,48
1,65,116,12
1,65,0,33
1,62,113,15
1,62,0,45
1,60,125,12
1,60,0,40
1,55,119,15
1,55,0,38
1,58,116,10
1,58,0,37
1,60,113,15
1,60,0,38
1,62,112,20
1,62,0,40
1,65,113,7
1,65,0,35
1,67,112,20
1,67,0,40
1,65,116,18
1,65,0,30
1,62,112,17
1,62,0,43
1,60,111,12
1,60,0,40
1,55,119,18
1,55,0,35
1,58,114,15
1,58,0,45
1,60,123,15
1,60,0,50
1,62,111,15
1,62,0,40
1,65,112,12
1,65,0,40
1,67,111,15
1,67,0,48
1,70,109,5
1,65,114,7
1,70,0,28
1,65,0,5
