track,note,velocity,time
0,42,105,239
0,42,0,1
0,42,64,95
0,42,0,1
0,42,64,94
0,42,0,1
0,42,71,95
0,42,0,1
0,57,63,96
0,76,74,0
0,67,66,0
0,64,41,0
0,64,63,0
0,52,33,0
0,57,30,0
0,57,41,0
0,33,93,0
0,76,63,0
0,69,63,0
0,52,61,0
0,45,61,0
0,60,36,0
0,42,73,0
0,36,93,0
0,76,94,0
0,67,80,0
0,36,0,1
0,42,0,0
0,45,0,29
0,57,0,0
0,64,0,2
0,52,0,0
0,60,0,2
0,57,0,3
0,46,73,11
0,46,0,1
0,52,0,1
0,67,0,23
0,67,0,0
0,33,0,12
0,33,99,10
0,52,27,0
0,76,0,1
0,76,0,0
0,52,64,0
0,64,44,0
0,45,66,0
0,40,108,0
0,57,46,0
0,60,33,0
0,42,69,0
0,42,0,1
0,40,0,0
0,74,82,0
0,74,108,0
0,67,66,0
0,57,22,0
0,67,58,0
0,57,0,28
0,60,0,8
0,57,0,2
0,45,0,0
0,52,0,0
0,64,0,1
0,52,0,0
0,46,67,7
0,46,0,1
0,67,0,37
0,67,0,0
0,33,0,5
0,54,62,1
0,66,62,0
0,74,64,2
0,62,64,0
0,74,0,1
0,74,0,0
0,38,81,1
0,76,76,0
0,42,69,0
0,76,98,0
0,42,0,1
0,36,87,0
0,45,67,0
0,57,47,0
0,60,38,0
0,50,63,0
0,62,43,0
0,50,38,0
0,36,0,1
0,57,0,0
0,69,0,0
0,54,15,1
0,76,0,1
0,64,0,0
0,50,0,5
0,76,0,4
0,76,0,0
0,60,0,0
0,54,0,1
0,71,51,0
0,71,54,0
0,57,0,2
0,45,0,0
0,50,0,2
0,62,0,0
0,74,78,7
0,46,62,0
0,74,101,0
0,46,0,1
0,71,0,3
0,71,0,0
0,74,0,25
0,74,0,0
0,38,0,5
0,71,57,3
0,71,64,0
0,38,93,11
0,50,69,0
0,74,83,0
0,40,99,0
0,42,73,0
0,74,110,0
0,62,49,0
0,42,0,1
0,40,0,0
0,71,0,0
0,71,0,0
0,57,61,0
0,54,23,0
0,69,41,0
0,50,42,1
0,60,43,0
0,74,0,24
0,74,0,0
0,76,73,0
0,76,62,0
0,50,0,6
0,54,0,2
0,57,0,6
0,69,0,0
0,60,0,1
0,62,0,7
0,50,0,0
0,46,69,1
0,70,61,0
0,70,71,0
0,46,0,1
0,76,0,5
0,76,0,0
0,71,69,19
0,71,85,0
0,36,42,1
0,36,0,1
0,70,0,2
0,70,0,0
0,62,0,8
0,74,0,0
0,38,0,6
0,66,0,3
0,54,0,0
0,74,67,1
0,31,90,0
0,62,67,0
0,67,61,1
0,36,82,0
0,42,82,0
0,55,61,0
0,42,0,1
0,36,0,0
0,55,57,0
0,50,41,0
0,47,61,0
0,67,37,0
0,59,44,0
0,59,41,0
0,55,39,1
0,70,67,13
0,70,82,0
0,71,0,3
0,71,0,0
0,47,0,4
0,59,0,0
0,59,0,1
0,55,0,1
0,67,0,2
0,55,0,0
0,50,0,9
0,71,57,2
0,46,67,0
0,71,64,0
0,46,0,1
0,70,0,2
0,70,0,0
0,70,80,22
0,70,66,0
0,71,0,2
0,71,0,0
0,31,0,9
0,40,105,11
0,50,64,0
0,31,104,0
0,62,44,0
0,40,0,1
0,67,38,0
0,55,58,0
0,71,78,0
0,71,101,0
0,42,82,1
0,55,37,0
0,59,41,0
0,42,0,1
0,70,0,0
0,70,0,0
0,50,37,0
0,70,91,23
0,70,72,0
0,71,0,5
0,71,0,0
0,55,0,4
0,59,0,4
0,50,0,4
0,70,0,6
0,50,0,0
0,62,0,0
0,70,0,0
0,46,71,0
0,46,0,1
0,67,0,0
0,55,0,0
0,71,82,0
0,71,108,0
0,70,73,23
0,70,92,0
0,71,0,2
0,71,0,0
0,31,0,11
0,50,67,11
0,32,93,0
0,68,63,0
0,71,108,0
0,62,47,0
0,59,47,0
0,71,82,0
0,56,63,0
0,56,69,0
0,68,49,0
0,42,73,0
0,36,102,0
0,36,0,1
0,42,0,0
0,55,0,0
0,70,0,0
0,70,0,0
0,67,0,0
0,56,43,0
0,50,31,0
0,65,71,0
0,65,61,0
0,70,85,10
0,70,69,0
0,71,0,2
0,71,0,0
0,56,0,4
0,59,0,3
0,62,0,2
0,50,0,0
0,68,0,5
0,56,0,0
0,46,67,2
0,71,103,0
0,71,79,0
0,46,0,1
0,70,0,1
0,70,0,0
0,50,0,0
0,70,66,23
0,70,80,0
0,71,0,4
0,71,0,0
0,65,0,2
0,65,0,0
0,32,0,1
0,40,99,15
0,40,0,1
0,56,69,0
0,71,78,0
0,68,49,0
0,50,63,0
0,62,43,0
0,42,79,0
0,71,101,0
0,32,117,0
0,42,0,1
0,70,0,0
0,70,0,0
0,50,32,0
0,65,68,0
0,59,44,0
0,65,59,0
0,56,30,0
0,74,82,24
0,74,67,0
0,71,0,4
0,71,0,0
0,59,0,2
0,56,0,3
0,50,0,6
0,62,0,1
0,50,0,0
0,68,0,4
0,56,0,0
0,46,67,2
0,46,0,1
0,65,0,22
0,65,0,0
0,62,0,2
0,74,0,0
0,74,0,6
0,74,0,0
0,68,0,10
0,56,0,0
0,57,68,0
0,64,69,0
0,69,68,0
0,76,69,0
0,32,0,2
0,52,67,5
0,64,47,0
0,36,102,1
0,42,73,0
0,69,41,0
0,57,61,0
0,33,113,0
0,42,0,1
0,36,0,0
0,57,25,1
0,52,29,0
0,60,34,0
0,69,71,13
0,69,89,0
0,57,0,5
0,60,0,1
0,52,0,9
0,64,0,2
0,52,0,0
0,46,67,0
0,46,0,1
0,76,99,0
0,76,77,0
0,69,0,5
0,69,0,0
0,69,0,2
0,57,0,0
0,74,72,16
0,74,91,0
0,76,0,2
0,76,0,0
0,33,0,3
0,57,31,18
0,60,42,0
0,52,18,0
0,64,47,0
0,52,67,0
0,69,47,1
0,40,102,0
0,57,67,0
0,42,93,0
0,33,113,0
0,42,0,1
0,40,0,0
0,76,84,0
0,76,112,0
0,74,0,2
0,74,0,0
0,74,99,22
0,74,77,0
0,76,0,7
0,76,0,0
0,52,0,1
0,57,0,2
0,60,0,3
0,52,0,9
0,64,0,0
0,46,58,1
0,46,0,1
0,69,0,3
0,57,0,0
0,74,0,16
0,74,0,0
0,76,99,3
0,76,77,0
0,33,0,18
0,64,0,2
0,76,0,0
0,54,67,0
0,66,67,0
0,74,87,2
0,62,87,0
0,57,0,1
0,69,0,0
0,60,40,0
0,50,36,0
0,54,27,1
0,36,87,1
0,42,87,0
0,38,99,0
0,57,73,0
0,50,69,0
0,69,53,0
0,62,49,0
0,42,0,1
0,36,0,0
0,76,0,20
0,60,0,2
0,54,0,1
0,50,0,3
0,62,0,1
0,50,0,0
0,46,67,1
0,46,0,1
0,76,0,0
0,74,85,0
0,74,113,0
0,69,0,1
0,57,0,0
0,74,0,10
0,74,0,0
0,38,0,9
0,74,101,4
0,74,78,0
0,60,50,22
0,38,108,1
0,60,67,0
0,72,47,0
0,54,31,0
0,50,44,0
0,62,49,0
0,50,69,0
0,42,87,1
0,40,99,0
0,40,0,1
0,42,0,0
0,54,0,18
0,74,0,5
0,71,85,0
0,71,69,0
0,74,0,2
0,60,0,4
0,50,0,15
0,74,79,3
0,74,103,0
0,71,0,1
0,71,0,0
0,46,69,0
0,46,0,1
0,71,70,22
0,71,87,0
0,74,0,2
0,74,0,0
0,66,0,17
0,54,0,0
0,74,0,1
0,62,0,0
0,67,64,0
0,76,60,0
0,55,64,0
0,64,60,0
0,38,0,1
0,50,0,1
0,62,0,0
0,59,54,0
0,52,34,1
0,52,67,0
0,36,96,0
0,64,47,0
0,55,44,0
0,71,47,0
0,40,93,0
0,59,67,0
0,36,0,1
0,42,87,0
0,42,0,1
0,72,0,0
0,60,0,0
0,76,75,0
0,76,96,0
0,71,0,3
0,71,0,0
0,71,72,19
0,71,91,0
0,67,68,1
0,67,84,0
0,76,0,2
0,76,0,0
0,52,0,4
0,64,0,0
0,59,0,5
0,71,0,0
0,59,0,1
0,55,0,3
0,46,67,7
0,46,0,1
0,52,0,11
0,59,43,34
0,28,90,1
0,59,66,0
0,52,73,0
0,64,53,0
0,71,46,0
0,55,30,0
0,52,30,0
0,40,108,1
0,42,84,0
0,42,0,1
0,40,0,0
0,40,0,4
0,64,0,27
0,52,0,0
0,59,0,2
0,71,0,0
0,59,0,1
0,52,0,1
0,55,0,2
0,46,67,10
0,46,0,1
0,59,44,45
0,55,33,0
0,50,24,1
0,62,46,0
0,71,44,0
0,36,87,0
0,50,66,0
0,59,64,0
0,36,0,1
0,42,87,0
0,38,90,0
0,42,0,1
0,28,0,3
0,50,0,17
0,59,0,0
0,62,0,0
0,55,0,3
0,59,0,2
0,71,0,0
0,50,0,4
0,46,71,0
0,46,0,1
0,38,0,36
0,59,55,9
0,26,86,0
0,55,38,0
0,50,34,1
0,50,63,1
0,62,43,0
0,59,68,0
0,42,87,0
0,40,99,0
0,71,48,0
0,40,0,1
0,42,0,0
0,71,0,7
0,71,0,0
0,67,0,8
0,67,0,0
0,71,0,16
0,55,0,0
0,62,0,0
0,50,0,0
0,59,0,0
0,59,0,1
0,50,0,5
0,76,64,9
0,76,77,0
0,46,73,1
0,46,0,1
0,74,85,21
0,74,113,0
0,36,27,3
0,36,0,1
0,76,0,1
0,76,0,0
0,64,0,2
0,76,0,0
0,55,0,5
0,67,0,0
0,26,0,10
0,69,61,2
0,64,73,0
0,33,93,0
0,57,61,0
0,76,73,0
0,45,63,1
0,52,67,0
0,42,87,0
0,76,89,0
0,64,47,0
0,76,71,0
0,57,43,0
0,42,0,1
0,52,30,0
0,36,82,0
0,57,32,0
0,60,45,0
0,36,0,1
0,74,0,3
0,74,0,0
0,74,85,12
0,74,69,0
0,76,0,5
0,76,0,0
0,52,0,9
0,45,0,0
0,64,0,0
0,57,0,0
0,57,0,5
0,74,0,2
0,74,0,0
0,46,73,0
0,76,99,0
0,76,77,0
0,46,0,1
0,60,0,0
0,33,0,3
0,52,0,5
0,74,66,15
0,74,80,0
0,33,47,0
0,76,0,4
0,76,0,0
0,33,0,2
0,42,87,18
0,52,66,0
0,76,62,0
0,52,31,0
0,76,73,0
0,60,33,0
0,45,66,0
0,33,99,0
0,64,46,0
0,57,46,0
0,42,0,1
0,74,0,0
0,74,0,0
0,40,105,0
0,57,30,0
0,40,0,1
0,76,0,14
0,76,0,0
0,76,61,9
0,76,71,0
0,57,0,11
0,45,0,1
0,57,0,0
0,60,0,0
0,52,0,1
0,64,0,0
0,46,67,10
0,46,0,1
0,74,91,0
0,74,72,0
0,76,0,3
0,76,0,0
0,52,0,6
0,76,70,16
0,76,87,0
0,74,0,2
0,74,0,0
0,33,0,16
0,64,0,1
0,76,0,0
0,57,0,2
0,69,0,0
0,62,50,1
0,59,82,0
0,36,96,0
0,78,82,0
0,66,82,0
0,66,46,0
0,59,27,0
0,71,82,0
0,35,90,0
0,54,66,0
0,59,48,0
0,47,68,0
0,36,0,1
0,42,82,0
0,42,0,1
0,54,38,0
0,74,79,14
0,74,103,0
0,76,0,5
0,76,0,0
0,74,0,7
0,74,0,0
0,59,0,2
0,47,0,0
0,66,0,3
0,54,0,0
0,74,65,6
0,74,78,0
0,46,69,0
0,46,0,1
0,59,0,0
0,62,0,1
0,35,0,8
0,54,0,0
0,74,0,14
0,74,0,0
0,71,69,0
0,35,77,0
0,71,85,0
0,35,0,11
0,54,67,12
0,59,48,0
0,66,47,0
0,47,68,0
0,42,79,1
0,35,99,0
0,40,99,0
0,62,42,0
0,59,33,0
0,40,0,1
0,42,0,0
0,74,85,0
0,74,69,0
0,54,36,0
0,71,0,2
0,71,0,0
0,74,0,23
0,74,0,0
0,59,0,1
0,54,0,4
0,62,0,4
0,47,0,2
0,59,0,0
0,66,0,5
0,54,0,0
0,35,0,6
0,46,79,0
0,71,66,0
0,71,80,0
0,34,77,0
0,46,0,1
0,34,0,22
0,35,104,1
0,67,57,0
0,76,71,0
0,76,89,0
0,67,64,0
0,71,0,19
0,59,0,0
0,66,0,4
0,78,0,0
0,67,48,0
0,55,68,0
0,72,63,0
0,60,63,0
0,48,68,0
0,79,70,0
0,60,48,0
0,67,70,0
0,35,0,1
0,55,36,0
0,42,79,0
0,36,93,0
0,64,47,0
0,36,0,1
0,42,0,0
0,60,24,0
0,36,104,0
0,46,76,16
0,46,0,1
0,60,0,0
0,48,0,0
0,36,0,2
0,64,0,0
0,60,0,1
0,67,0,1
0,55,0,0
0,55,0,10
0,36,74,10
0,60,33,0
0,67,35,0
0,48,53,0
0,55,55,0
0,36,0,7
0,55,0,1
0,67,0,0
0,60,0,1
0,48,0,0
0,55,34,13
0,64,44,1
0,40,105,0
0,42,87,0
0,42,0,1
0,40,0,0
0,48,69,0
0,67,46,0
0,55,66,0
0,60,36,0
0,60,49,0
0,36,108,0
0,60,0,30
0,60,0,10
0,48,0,0
0,55,0,1
0,67,0,0
0,64,0,1
0,55,0,2
0,46,87,3
0,46,0,1
0,55,63,22
0,60,41,0
0,67,43,0
0,48,61,0
0,36,0,3
0,71,0,11
0,71,0,0
0,76,0,1
0,76,0,0
0,55,48,8
0,64,50,0
0,36,93,1
0,60,37,0
0,36,0,1
0,42,87,0
0,36,104,0
0,42,0,1
0,60,0,2
0,48,0,0
0,67,0,2
0,55,0,0
0,67,0,1
0,67,0,0
0,55,55,0
0,48,61,0
0,67,35,0
0,60,41,0
0,62,46,1
0,64,0,2
0,60,0,6
0,48,0,9
0,60,0,0
0,62,0,2
0,69,38,4
0,57,58,0
0,64,34,1
0,48,38,0
0,60,18,0
0,46,82,1
0,40,73,0
0,41,87,0
0,41,0,1
0,40,0,0
0,46,0,0
0,67,0,1
0,55,0,0
0,36,0,0
0,55,0,3
0,69,0,10
0,57,0,0
0,60,0,2
0,48,0,0
0,64,0,6
0,60,22,0
0,67,31,0
0,55,51,0
0,48,42,0
0,36,65,0
0,62,56,0
0,48,0,6
0,60,0,0
0,55,0,1
0,67,0,0
0,36,0,2
0,62,0,7
0,64,51,8
0,67,47,0
0,60,46,0
0,55,67,0
0,45,76,0
0,48,66,0
0,55,36,0
0,45,0,1
0,47,73,0
0,42,53,0
0,36,113,0
0,42,0,1
0,47,0,0
0,60,23,0
0,55,0,9
0,67,0,0
0,48,0,1
0,60,0,0
0,42,64,3
0,67,43,0
0,45,76,0
0,60,43,0
0,48,63,0
0,55,63,0
0,45,0,1
0,42,0,0
0,79,73,0
0,79,92,0
0,64,0,11
0,60,0,3
0,55,0,2
0,67,0,2
0,55,0,0
0,48,0,2
0,60,0,1
0,60,21,2
0,41,102,0
0,69,43,0
0,48,41,0
0,43,93,0
0,46,93,0
0,57,63,0
0,46,0,1
0,43,0,0
0,41,0,0
0,79,0,9
0,79,0,0
0,60,0,5
0,48,0,0
0,69,0,1
0,57,0,0
0,67,33,8
0,55,53,0
0,60,0,1
0,72,0,0
0,67,0,4
0,55,0,0
0,36,0,14
0,71,64,5
0,79,74,0
0,71,77,0
0,55,41,0
0,62,35,0
0,43,61,0
0,79,94,0
0,31,83,0
0,50,55,0
0,59,69,1
0,42,67,0
0,55,37,0
0,74,91,0
0,71,69,0
0,74,72,0
0,42,0,1
0,43,57,0
0,36,93,0
0,36,0,1
0,62,0,3
0,50,0,0
0,43,0,3
0,55,0,0
0,74,0,1
0,74,0,0
0,79,0,2
0,79,0,0
0,71,0,2
0,71,0,0
0,55,44,9
0,74,71,0
0,74,89,0
0,43,64,0
0,62,46,0
0,79,71,0
0,50,66,0
0,79,89,0
0,71,75,1
0,42,73,0
0,71,63,0
0,42,0,1
0,71,0,4
0,71,0,0
0,74,0,0
0,74,0,0
0,79,0,1
0,79,0,0
0,50,0,1
0,62,0,0
0,43,0,2
0,55,0,0
0,64,47,10
0,79,84,0
0,71,84,0
0,52,67,0
0,38,90,0
0,71,68,0
0,79,68,0
0,39,96,0
0,39,0,1
0,38,0,0
0,43,71,0
0,46,96,0
0,74,94,0
0,55,51,0
0,74,74,0
