track,note,velocity,time
0,38,55,1051
0,45,44,24
0,50,44,9
0,62,53,9
0,66,51,31
0,67,54,55
0,38,0,10
0,45,0,29
0,69,66,4
0,50,0,47
0,69,66,41
0,62,0,63
0,66,50,0
0,71,59,20
0,69,57,125
0,66,0,2
0,67,0,23
0,69,0,203
0,69,0,41
0,66,0,39
0,71,0,64
0,69,0,26
0,49,54,10
0,37,52,0
0,66,59,4
0,67,58,41
0,49,0,2
0,37,0,39
0,69,63,8
0,66,0,67
0,69,63,36
0,67,0,77
0,71,50,21
0,69,0,49
0,69,0,6
0,69,67,36
0,71,0,299
0,69,0,66
0,36,61,102
0,60,66,18
0,48,53,6
0,64,70,2
0,67,63,18
0,36,0,21
0,60,0,21
0,64,21,11
0,67,69,4
0,48,0,20
0,48,54,57
0,64,0,26
0,67,0,7
0,64,0,4
0,67,61,56
0,67,0,38
0,69,60,6
0,48,0,8
0,67,0,30
0,36,54,13
0,71,57,15
0,60,46,0
0,64,60,3
0,69,0,58
0,69,51,4
0,36,0,16
0,71,0,5
0,60,0,33
0,64,0,32
0,66,77,81
0,69,0,12
0,64,78,41
0,66,0,4
0,64,0,7
0,38,56,34
0,59,62,32
0,62,67,2
0,31,64,5
0,38,0,1
0,59,0,85
0,50,56,14
0,59,49,3
0,55,57,1
0,62,0,115
0,43,40,43
0,31,0,108
0,50,57,0
0,50,0,19
0,59,0,68
0,43,46,4
0,57,73,1
0,55,0,10
0,43,0,18
0,50,0,52
0,55,82,23
0,43,0,8
0,45,57,2
0,57,0,1
0,55,0,1
0,38,56,80
0,66,69,9
0,62,59,1
0,57,67,0
0,45,0,3
0,38,0,2
0,45,65,17
0,69,26,20
0,66,0,11
0,62,0,14
0,57,0,5
0,45,0,25
0,69,0,21
0,69,69,6
0,50,63,2
0,66,45,1
0,57,53,1
0,62,58,4
0,69,0,4
0,50,0,7
0,66,0,29
0,57,0,12
0,66,75,32
0,62,40,1
0,62,0,12
0,66,0,15
0,71,72,19
0,54,59,44
0,62,0,1
0,71,0,15
0,54,0,37
0,66,50,46
0,69,41,2
0,62,51,2
0,57,31,2
0,66,0,97
0,69,0,9
0,38,41,0
0,62,0,29
0,57,91,19
0,57,0,19
0,62,82,25
0,38,0,10
0,57,0,3
0,62,0,13
0,64,76,16
0,51,47,14
0,64,0,21
0,51,0,1
0,66,69,6
0,62,69,1
0,40,55,7
0,66,0,45
0,62,0,5
0,56,56,57
0,64,57,1
0,59,31,10
0,47,50,44
0,40,0,7
0,56,0,13
0,64,0,10
0,56,35,26
0,64,21,10
0,59,0,5
0,47,0,18
0,62,56,18
0,47,55,0
0,56,0,8
0,64,0,8
0,52,44,61
0,56,52,1
0,64,59,3
0,62,54,1
0,59,51,5
0,62,0,19
0,47,0,4
0,52,0,4
0,56,0,30
0,64,0,32
0,52,40,31
0,62,74,72
0,62,0,26
0,59,0,12
0,64,64,5
0,52,0,17
0,62,0,7
0,66,65,20
0,64,0,31
0,43,58,10
0,62,66,2
0,66,0,2
0,67,64,6
0,43,0,10
0,67,66,42
0,62,0,18
0,67,0,21
0,50,68,34
0,67,62,45
0,62,35,4
0,67,0,9
0,50,0,6
0,67,0,15
0,62,62,11
0,67,59,0
0,62,0,2
0,55,64,6
0,62,0,10
0,67,0,1
0,55,0,6
0,71,82,58
0,67,76,1
0,62,75,1
0,59,82,1
0,71,0,21
0,67,0,6
0,62,0,3
0,71,60,23
0,62,66,1
0,67,61,1
0,59,0,13
0,71,0,12
0,62,0,4
0,71,83,30
0,67,77,1
0,62,73,3
0,67,0,20
0,59,83,27
0,71,0,12
0,67,0,1
0,62,0,6
0,59,0,10
0,74,82,13
0,74,0,27
0,52,36,17
0,52,0,8
0,52,61,24
0,52,0,29
0,61,52,17
0,71,62,1
0,45,57,2
0,64,62,1
0,61,0,5
0,71,0,0
0,45,0,15
0,52,50,5
0,69,56,82
0,57,53,1
0,61,57,1
0,64,0,24
0,57,41,15
0,52,0,17
0,69,0,37
0,57,0,35
0,47,51,9
0,62,58,2
0,61,0,2
0,57,0,24
0,57,52,1
0,47,0,19
0,49,24,77
0,64,44,5
0,62,0,3
0,57,0,15
0,57,58,70
0,49,0,10
0,45,46,40
0,66,52,37
0,38,53,3
0,64,0,2
0,62,50,1
0,57,0,49
0,45,48,29
0,57,53,8
0,45,0,24
0,66,0,11
0,38,0,17
0,62,0,4
0,45,0,14
0,57,0,8
0,50,55,7
0,50,0,11
0,54,43,71
0,66,59,35
0,71,50,54
0,59,57,2
0,54,0,25
0,66,0,6
0,71,0,23
0,69,58,33
0,57,56,14
0,59,0,38
0,69,0,14
0,54,52,28
0,57,0,37
0,66,50,38
0,45,54,95
0,61,36,0
0,64,43,5
0,57,74,23
0,54,0,2
0,66,0,3
0,45,0,19
0,52,74,62
0,61,83,3
0,61,0,14
0,64,0,2
0,64,74,68
0,57,0,3
0,52,0,5
0,61,0,1
0,50,75,2
0,64,0,8
0,62,62,6
0,50,0,3
0,43,54,0
0,59,51,1
0,55,38,0
0,62,0,5
0,43,0,9
0,59,0,10
0,59,61,63
0,62,67,9
0,67,82,33
0,55,0,19
0,59,0,9
0,67,69,15
0,62,0,18
0,67,61,21
0,67,0,15
0,67,0,2
0,67,0,6
0,67,50,20
0,45,52,1
0,62,68,1
0,57,69,3
0,67,0,7
0,38,54,3
0,45,0,2
0,62,0,27
0,57,59,15
0,57,0,10
0,38,0,26
0,62,48,5
0,57,0,10
0,57,66,37
0,62,57,1
0,66,58,0
0,45,48,14
0,50,56,98
0,62,0,3
0,57,0,70
0,57,39,18
0,62,0,59
0,50,50,35
0,66,0,10
0,45,0,19
0,50,0,7
0,57,52,0
0,40,24,46
0,57,0,10
0,50,0,10
0,57,0,13
0,40,0,50
0,33,54,14
0,61,47,3
0,57,45,1
0,45,54,1
0,64,48,0
0,33,0,26
0,61,0,7
0,57,51,32
0,57,0,65
0,45,49,22
0,45,0,10
0,64,0,25
0,57,52,5
0,33,58,49
0,57,0,12
0,45,0,8
0,57,0,3
0,62,62,5
0,59,57,2
0,33,0,3
0,31,52,0
0,55,54,1
0,43,47,2
0,62,0,35
0,59,0,42
0,55,49,1
0,31,0,59
0,43,53,21
0,55,0,16
0,43,0,3
0,55,60,25
0,55,0,9
0,43,0,11
0,55,0,9
0,33,68,8
0,33,0,21
0,33,59,29
0,33,0,26
0,66,62,10
0,26,56,3
0,38,52,0
0,57,56,1
0,62,51,0
0,69,62,40
0,66,0,8
0,26,0,11
0,38,0,4
0,57,0,3
0,62,0,6
0,69,0,35
0,62,66,19
0,57,76,1
0,69,66,0
0,38,64,2
0,45,60,73
0,62,0,9
0,66,72,0
0,57,0,4
0,71,75,42
0,69,0,40
0,38,0,7
0,45,0,3
0,50,81,0
0,66,0,7
0,71,0,7
0,50,0,8
0,66,76,62
0,62,74,2
0,69,76,0
0,57,82,2
0,54,80,86
0,66,0,21
0,62,0,0
0,69,0,11
0,57,0,38
0,69,67,20
0,54,0,12
0,69,0,5
0,69,71,25
0,57,51,4
0,69,0,15
0,57,0,21
0,61,77,6
0,64,80,1
0,57,65,2
0,49,76,1
0,37,67,1
0,61,0,22
0,69,67,8
0,64,0,4
0,57,0,8
0,49,0,7
0,57,16,17
0,69,72,4
0,37,0,25
0,69,0,14
0,57,0,2
0,69,0,6
0,49,75,3
0,71,74,41
0,49,0,25
0,52,54,21
0,71,0,15
0,52,58,27
0,61,62,45
0,69,66,1
0,57,71,3
0,64,63,6
0,52,0,40
0,52,0,62
0,57,79,12
0,61,0,20
0,69,0,1
0,57,0,8
0,64,0,10
0,61,77,6
0,64,56,49
0,57,0,4
0,61,0,8
0,43,69,27
0,64,0,32
0,43,0,8
0,60,65,1
0,67,69,1
0,36,59,1
0,64,69,1
0,60,0,39
0,67,67,43
0,67,0,61
0,43,52,19
0,36,0,13
0,67,64,24
0,64,0,37
0,69,65,12
0,67,0,8
0,43,0,16
0,67,0,11
0,60,63,45
0,36,62,3
0,64,76,1
0,71,72,1
0,69,0,43
0,69,71,0
0,60,0,5
0,36,0,9
0,64,0,20
0,71,0,7
0,62,73,19
0,66,75,1
0,43,67,45
0,69,0,18
0,62,0,7
0,66,0,3
0,60,78,9
0,64,82,2
0,43,0,17
0,60,0,3
0,43,78,17
0,64,0,8
0,43,0,4
0,38,67,35
0,38,0,22
0,62,70,3
0,31,64,4
0,59,60,0
0,55,58,1
0,62,0,7
0,31,0,4
0,59,51,102
0,50,53,1
0,55,53,1
0,43,48,21
0,59,0,10
0,55,0,4
0,59,0,1
0,50,0,2
0,55,0,33
0,59,76,35
0,62,71,2
0,43,52,2
0,43,0,4
0,59,0,28
0,43,49,6
0,62,0,10
0,43,0,14
0,57,69,9
0,62,60,1
0,43,50,42
0,43,0,2
0,57,0,24
0,62,0,5
0,55,66,9
0,62,61,1
0,43,0,8
0,55,0,10
0,62,0,13
0,43,60,5
0,43,0,11
0,45,61,33
0,45,0,23
0,38,58,6
0,66,68,0
0,57,74,1
0,62,65,0
0,38,0,18
0,69,72,20
0,66,0,7
0,57,0,18
0,62,0,7
0,69,77,54
0,57,80,0
0,45,64,1
0,62,61,3
0,69,0,73
0,66,70,8
0,69,0,5
0,71,64,44
0,57,0,36
0,50,51,11
0,45,0,7
0,62,0,12
0,66,58,62
0,57,72,1
0,69,62,0
0,62,59,2
0,66,0,43
0,71,0,29
0,38,63,13
0,50,0,8
0,66,0,2
0,57,0,18
0,69,0,6
0,62,0,7
0,57,94,1
0,38,0,24
0,39,67,13
0,51,83,0
0,62,87,4
0,57,0,11
0,39,0,13
0,51,0,4
0,62,0,4
0,64,82,7
0,64,0,25
0,66,91,14
0,62,86,2
0,40,70,0
0,66,0,3
0,62,0,11
0,64,77,49
0,56,77,1
0,59,72,5
0,47,63,39
0,40,0,7
0,64,0,4
0,56,0,13
0,56,78,19
0,64,72,2
0,59,0,3
0,47,0,40
0,62,67,6
0,47,62,1
0,56,0,14
0,64,0,24
0,56,70,0
0,64,60,3
0,52,56,4
0,59,57,1
0,62,0,26
0,47,0,21
0,56,0,47
0,64,0,11
0,52,55,16
0,52,0,24
0,59,0,13
0,52,0,8
0,62,58,2
0,62,0,31
0,64,59,9
0,64,0,16
0,43,56,67
0,59,50,1
0,67,62,0
0,62,50,3
0,43,0,6
0,67,48,35
0,59,0,12
0,67,0,9
0,62,0,14
0,50,61,47
0,67,55,46
0,67,0,10
0,62,51,40
0,50,0,3
0,67,53,2
0,67,0,8
0,62,0,11
0,67,0,7
0,43,72,0
0,45,66,23
0,43,0,8
0,45,0,20
0,47,69,0
0,62,66,5
0,71,66,1
0,67,60,1
0,47,0,10
0,62,0,0
0,71,0,7
0,71,54,27
0,62,46,1
0,67,54,2
0,67,0,29
0,71,0,15
0,47,62,32
0,62,0,17
0,67,0,18
0,74,77,5
0,47,0,26
0,74,0,14
0,40,60,15
0,40,0,27
0,71,68,9
0,64,66,6
0,33,67,1
0,71,0,17
0,64,0,3
0,33,0,8
0,57,25,43
0,57,0,25
0,69,77,40
0,61,70,0
0,69,0,86
0,57,71,2
0,35,58,90
0,47,48,1
0,62,62,0
0,61,0,7
0,57,0,26
0,35,0,3
0,47,0,12
0,57,60,0
0,49,59,84
0,37,54,4
0,64,51,5
0,62,0,11
0,57,0,27
0,49,0,5
0,57,59,47
0,37,0,13
0,64,0,10
0,57,0,21
0,38,58,6
0,66,53,4
0,62,54,3
0,57,43,0
0,38,0,31
0,45,52,10
0,66,0,4
0,62,0,16
0,57,0,63
0,45,0,8
0,50,58,3
0,50,0,11
0,54,57,72
0,66,54,44
0,54,0,39
0,59,49,8
0,71,60,0
0,62,58,2
0,66,0,24
0,59,0,2
0,71,0,5
0,69,79,58
0,57,63,0
0,62,0,22
0,69,0,14
0,66,60,51
0,54,62,3
0,57,0,12
0,62,60,82
0,66,0,8
0,57,39,28
0,61,50,48
0,45,48,3
0,54,0,1
0,64,51,1
0,62,0,23
0,57,67,35
0,57,0,4
0,61,0,3
0,45,0,2
0,45,70,68
0,64,0,12
0,57,0,9
0,57,63,21
0,61,59,43
0,45,0,22
0,57,0,21
0,64,56,2
0,61,0,5
0,64,0,5
0,43,67,41
0,59,78,1
0,55,80,2
0,62,78,0
0,43,0,43
0,59,0,9
0,55,0,5
0,59,70,22
0,62,77,42
0,62,0,11
0,59,0,9
0,62,0,3
0,67,92,22
0,59,85,0
0,43,74,3
0,67,0,14
0,59,0,4
0,43,0,1
0,67,82,23
0,59,80,3
0,67,0,12
0,59,0,2
0,67,73,21
0,67,0,30
0,45,65,12
0,57,74,5
0,62,65,2
0,67,61,1
0,45,0,24
0,38,60,25
0,57,0,5
0,62,0,36
0,57,68,3
0,67,0,32
0,38,0,2
0,57,69,56
0,62,64,0
0,45,58,2
0,66,60,0
0,57,0,18
0,57,43,15
0,57,0,48
0,50,51,42
0,62,0,37
0,57,51,8
0,50,47,50
0,45,0,19
0,66,0,51
0,50,55,15
0,57,0,36
0,57,57,5
0,50,53,43
0,50,0,9
0,57,0,12
0,50,0,15
0,50,0,37
0,57,66,11
0,64,64,2
0,62,57,1
0,38,53,1
0,57,0,20
0,57,62,24
0,50,0,4
0,57,0,68
0,50,38,30
0,64,0,19
0,57,62,15
0,50,72,41
0,62,0,8
0,38,0,1
0,57,0,22
0,50,0,11
0,57,0,8
0,62,73,27
0,66,72,1
0,57,81,1
0,38,74,5
0,50,0,15
0,62,0,19
0,38,71,21
0,66,0,14
0,57,0,32
0,38,0,3
0,40,73,38
0,60,69,0
0,57,78,1
0,38,0,37
0,40,0,3
0,60,0,4
0,42,77,34
0,57,0,19
0,42,0,10
0,43,90,73
0,62,91,0
0,67,79,39
0,43,0,8
0,62,0,3
0,67,77,18
0,62,67,1
0,71,86,2
0,67,0,9
0,67,0,5
0,62,0,12
0,67,93,59
0,71,93,0
0,62,86,1
0,50,74,1
0,71,0,19
0,67,0,8
0,71,0,9
0,62,0,43
0,50,0,2
0,71,79,2
0,55,47,4
0,71,0,14
0,55,0,3
0,52,70,21
0,52,0,10
0,69,94,3
0,64,84,1
0,73,91,1
0,45,79,2
0,69,0,11
0,64,0,4
0,76,77,17
0,69,24,7
0,73,0,9
0,45,0,1
0,76,0,5
0,73,83,22
0,69,75,0
0,64,63,3
0,57,84,38
0,69,0,11
0,73,0,7
0,69,0,4
0,64,0,1
0,57,0,0
0,69,81,12
0,73,77,1
0,64,76,1
0,69,0,35
0,55,77,5
0,73,0,2
0,43,61,0
0,64,0,11
0,55,0,4
0,43,0,1
0,42,72,2
0,71,78,3
0,66,71,1
0,42,0,44
0,69,88,16
0,71,0,2
0,66,0,16
0,54,81,90
0,69,95,2
0,69,0,25
0,54,0,7
0,57,54,52
0,69,0,18
0,47,67,28
0,66,59,43
0,59,59,3
0,57,73,4
0,62,50,2
0,57,0,37
0,59,58,29
0,47,0,22
0,54,84,60
0,66,0,5
0,59,0,8
0,57,0,8
0,62,0,2
0,59,0,3
0,59,70,17
0,54,0,37
0,62,78,0
0,59,0,9
0,62,0,20
0,66,79,9
0,47,69,7
0,66,0,12
0,47,0,10
0,67,92,3
0,40,74,0
0,64,91,1
0,59,78,1
0,67,0,4
0,67,75,33
0,40,0,9
0,64,0,5
0,59,0,3
0,59,50,15
0,64,25,2
0,67,0,4
0,67,72,0
0,59,0,17
0,64,0,4
0,67,0,6
0,59,77,23
0,67,77,1
0,64,79,2
0,41,40,14
0,59,0,10
0,67,0,4
0,64,0,5
0,41,0,2
0,67,74,39
0,43,70,7
0,67,0,14
0,44,79,6
0,43,0,4
0,62,81,17
0,64,88,1
0,71,86,1
0,44,0,16
0,45,55,5
0,62,0,58
0,69,76,4
0,64,0,27
0,71,0,11
0,45,0,7
0,69,86,31
0,64,76,1
0,62,69,1
0,69,0,16
0,45,83,33
0,69,0,19
0,64,0,1
0,62,0,0
0,45,0,15
0,71,87,4
0,62,86,39
0,71,0,8
0,62,0,10
0,45,74,24
0,45,0,24
