track,note,velocity,time
1,64,127,3720
1,64,0,48
1,64,127,12
1,64,0,48
1,64,127,12
1,64,0,96
1,64,127,24
1,64,0,48
1,64,127,12
1,64,0,96
1,64,127,24
1,64,0,48
1,64,127,12
1,64,0,228
1,59,127,12
1,59,0,108
1,59,127,12
1,59,0,96
1,59,127,24
1,59,0,96
1,61,127,24
1,61,0,96
1,59,127,24
1,59,0,60
1,59,127,0
1,59,0,108
1,61,127,12
1,61,0,96
1,59,127,24
1,59,0,96
1,64,127,324
1,64,0,108
1,64,127,12
1,64,0,96
1,64,127,24
1,64,0,96
1,64,127,24
1,64,0,96
1,64,127,24
1,64,0,96
1,64,127,24
1,64,0,96
1,59,127,24
1,59,0,96
1,59,127,24
1,59,0,96
1,64,127,984
1,64,0,108
1,64,127,12
1,64,0,96
1,64,127,24
1,64,0,48
1,64,127,12
1,64,0,96
1,64,127,24
1,64,0,96
1,64,127,24
1,64,0,168
1,59,127,12
1,59,0,48
1,59,127,12
1,59,0,216
1,59,127,24
1,61,127,60
1,59,0,36
1,61,0,60
1,59,127,24
1,59,0,60
1,59,127,0
1,59,0,108
1,61,127,12
1,61,0,48
1,59,127,12
1,59,0,96
1,64,127,384
1,64,0,108
1,64,127,12
1,64,0,96
1,64,127,24
1,64,0,96
1,64,127,24
1,64,0,96
1,64,127,24
1,64,0,96
1,64,127,24
1,64,0,96
1,59,127,24
1,59,0,96
1,59,127,24
1,59,0,96
1,64,127,984
1,64,0,48
1,64,127,12
1,64,0,48
1,64,127,12
1,64,0,96
1,64,127,24
1,64,0,48
1,64,127,12
1,64,0,96
1,64,127,24
1,64,0,48
1,64,127,12
1,64,0,48
1,64,127,12
1,64,0,48
1,64,127,12
1,64,0,108
1,59,127,12
1,59,0,48
1,59,127,12
1,59,0,156
1,59,127,24
1,59,0,48
1,59,127,12
1,59,0,48
1,61,127,12
1,61,0,96
1,59,127,24
1,59,0,60
1,59,127,0
1,59,0,108
1,61,127,12
1,61,0,48
1,59,127,12
1,59,0,96
1,64,127,384
1,64,0,108
1,64,127,12
1,64,0,96
1,64,127,24
1,64,0,96
1,64,127,24
1,64,0,96
1,64,127,24
1,64,0,96
1,64,127,24
1,64,0,96
1,59,127,24
1,59,0,96
1,59,127,24
1,59,0,96
1,64,127,984
1,64,0,48
1,64,127,12
1,64,0,48
1,64,127,12
1,64,0,96
1,64,127,24
1,64,0,48
1,64,127,12
1,64,0,96
1,64,127,24
1,64,0,48
1,64,127,12
1,64,0,228
1,59,127,12
1,59,0,48
1,59,127,12
1,59,0,48
1,59,127,12
1,59,0,96
1,59,127,24
1,59,0,48
1,61,127,12
1,61,0,108
1,59,127,72
1,59,0,60
1,59,127,0
1,59,0,48
1,59,127,12
1,59,0,48
1,61,127,12
1,61,0,48
1,59,127,12
1,59,0,96
1,64,127,384
1,64,0,48
1,64,127,12
1,64,0,48
1,64,127,12
1,64,0,96
1,64,127,24
1,64,0,96
1,64,127,24
1,64,0,96
1,64,127,24
1,64,0,96
1,64,127,24
1,64,0,96
1,59,127,24
1,59,0,96
1,59,127,24
1,59,0,96
1,59,127,984
1,59,0,108
1,64,127,12
1,64,0,192
1,64,127,168
1,64,0,96
1,64,127,24
1,64,0,192
1,64,127,168
1,64,0,96
1,63,127,24
1,63,0,192
1,64,127,768
1,64,0,96
1,59,127,24
1,59,0,96
1,64,127,24
1,64,0,96
1,59,127,24
1,59,0,96
1,64,127,24
1,64,0,128
1,64,127,32
1,64,0,128
1,64,127,32
1,64,0,128
1,63,127,32
1,63,0,192
1,64,127,768
1,64,0,96
1,59,127,24
1,59,0,48
1,64,127,12
1,64,0,168
1,59,127,12
1,59,0,96
1,64,127,24
1,64,0,144
1,64,127,36
1,64,0,144
1,63,127,36
1,63,0,312
1,59,127,21768
1,59,0,108
1,64,127,12
1,64,0,192
1,64,127,168
1,64,0,96
1,64,127,24
1,64,0,192
1,64,127,168
1,64,0,96
1,63,127,24
1,63,0,192
1,64,127,768
1,64,0,96
1,59,127,24
1,59,0,96
1,64,127,24
1,64,0,96
1,59,127,24
1,59,0,96
1,64,127,24
1,64,0,128
1,64,127,32
1,64,0,128
1,64,127,32
1,64,0,128
1,63,127,32
1,63,0,192
1,64,127,768
1,64,0,96
1,59,127,24
1,59,0,48
1,64,127,12
1,64,0,168
1,59,127,12
1,59,0,96
1,64,127,24
1,64,0,144
1,64,127,36
1,64,0,144
1,63,127,36
1,63,0,312
1,59,127,2568
1,59,0,108
1,64,127,12
1,64,0,192
1,64,127,168
1,64,0,96
1,64,127,24
1,64,0,192
1,64,127,168
1,64,0,96
1,63,127,24
1,63,0,192
1,64,127,768
1,64,0,128
1,64,127,32
1,64,0,128
1,59,127,32
1,59,0,128
1,64,127,32
1,64,0,128
1,64,127,32
1,64,0,128
1,64,127,32
1,64,0,128
1,63,127,32
1,63,0,192
1,64,127,768
1,64,0,96
1,59,127,24
1,59,0,48
1,64,127,12
1,64,0,168
1,59,127,12
1,59,0,96
1,64,127,24
1,64,0,144
1,64,127,36
1,64,0,144
1,63,127,36
1,63,0,312
2,64,127,20400
2,64,0,96
2,64,127,24
2,64,0,96
2,68,127,24
2,68,0,96
2,68,127,24
2,68,0,96
2,68,127,24
2,68,0,96
2,64,127,24
2,64,0,504
2,64,127,816
2,64,0,96
2,64,127,24
2,64,0,96
2,68,127,24
2,68,0,96
2,68,127,24
2,68,0,96
2,68,127,24
2,68,0,96
2,64,127,24
2,64,0,504
2,64,127,816
2,64,0,96
2,64,127,24
2,64,0,96
2,68,127,24
2,68,0,96
2,68,127,24
2,68,0,96
2,68,127,24
2,68,0,96
2,64,127,24
2,64,0,504
2,64,127,5256
2,64,0,48
2,64,127,12
2,64,0,48
2,64,127,12
2,64,0,96
2,64,127,24
2,64,0,48
2,64,127,12
2,64,0,96
2,64,127,24
2,64,0,48
2,64,127,12
2,64,0,228
2,59,127,12
2,59,0,108
2,59,127,12
2,59,0,96
2,59,127,24
2,59,0,96
2,61,127,24
2,61,0,96
2,59,127,24
2,59,0,60
2,59,127,0
2,59,0,108
2,61,127,12
2,61,0,216
2,59,127,24
2,59,0,96
2,64,127,324
2,64,0,96
2,64,127,24
2,64,0,96
2,64,127,24
2,64,0,96
2,64,127,24
2,64,0,96
2,64,127,24
2,64,0,96
2,59,127,24
2,59,0,96
2,59,127,24
2,59,0,96
2,64,127,984
2,64,0,108
2,64,127,12
2,64,0,96
2,64,127,24
2,64,0,48
2,64,127,12
2,64,0,96
2,64,127,24
2,64,0,96
2,64,127,24
2,64,0,168
2,59,127,12
2,59,0,48
2,59,127,12
2,59,0,216
2,59,127,24
2,61,127,60
2,59,0,36
2,61,0,60
2,59,127,24
2,59,0,60
2,59,127,0
2,59,0,108
2,61,127,12
2,61,0,48
2,59,127,12
2,59,0,96
2,64,127,384
2,64,0,108
2,64,127,12
2,64,0,96
2,64,127,24
2,64,0,96
2,64,127,24
2,64,0,96
2,64,127,24
2,64,0,96
2,64,127,24
2,64,0,96
2,59,127,24
2,59,0,96
2,59,127,24
2,59,0,96
2,64,127,984
2,64,0,48
2,64,127,12
2,64,0,48
2,64,127,12
2,64,0,96
2,64,127,24
2,64,0,48
2,64,127,12
2,64,0,168
2,64,127,12
2,64,0,48
2,64,127,12
2,64,0,48
2,64,127,12
2,64,0,108
2,59,127,12
2,59,0,48
2,59,127,12
2,59,0,156
2,59,127,24
2,59,0,48
2,59,127,12
2,59,0,48
2,61,127,12
2,61,0,96
2,59,127,24
2,59,0,60
2,59,127,0
2,59,0,108
2,61,127,12
2,61,0,48
2,59,127,12
2,59,0,96
2,64,127,384
2,64,0,108
2,64,127,12
2,64,0,96
2,64,127,24
2,64,0,96
2,64,127,24
2,64,0,96
2,64,127,24
2,64,0,96
2,64,127,24
2,64,0,96
2,59,127,24
2,59,0,96
2,59,127,24
2,59,0,96
2,64,127,984
2,64,0,48
2,64,127,12
2,64,0,48
2,64,127,12
2,64,0,96
2,64,127,24
2,64,0,48
2,64,127,12
2,64,0,96
2,64,127,24
2,64,0,48
2,64,127,12
2,64,0,228
2,59,127,12
2,59,0,48
2,59,127,12
2,59,0,156
2,59,127,24
2,59,0,48
2,61,127,12
2,61,0,108
2,59,127,72
2,59,0,60
2,59,127,0
2,59,0,108
2,61,127,12
2,61,0,48
2,59,127,12
2,59,0,96
2,64,127,384
2,64,0,48
2,64,127,12
2,64,0,48
2,64,127,12
2,64,0,96
2,64,127,24
2,64,0,96
2,64,127,24
2,64,0,96
2,64,127,24
2,64,0,96
2,64,127,24
2,64,0,96
2,59,127,24
2,59,0,96
2,59,127,24
2,59,0,96
2,64,127,2304
2,64,0,96
2,64,127,24
2,64,0,96
2,68,127,24
2,68,0,96
2,68,127,24
2,68,0,96
2,68,127,24
2,68,0,96
2,64,127,24
2,64,0,504
2,64,127,816
2,64,0,96
2,64,127,24
2,64,0,96
2,68,127,24
2,68,0,96
2,68,127,24
2,68,0,96
2,68,127,24
2,68,0,96
2,64,127,24
2,64,0,504
2,64,127,816
2,64,0,96
2,64,127,24
2,64,0,96
2,68,127,24
2,68,0,96
2,68,127,24
2,68,0,96
2,68,127,24
2,68,0,96
2,64,127,24
2,64,0,504
2,64,127,2736
2,64,0,96
2,64,127,24
2,64,0,96
2,68,127,24
2,68,0,96
2,68,127,24
2,68,0,96
2,68,127,24
2,68,0,96
2,64,127,24
2,64,0,504
2,64,127,816
2,64,0,96
2,64,127,24
2,64,0,96
2,68,127,24
2,68,0,96
2,68,127,24
2,68,0,96
2,68,127,24
2,68,0,96
2,64,127,24
2,64,0,504
2,64,127,816
2,64,0,96
2,64,127,24
2,64,0,96
2,68,127,24
2,68,0,96
2,68,127,24
2,68,0,96
2,68,127,24
2,68,0,96
2,64,127,24
2,64,0,504
2,64,127,2736
2,64,0,96
2,64,127,24
2,64,0,96
2,68,127,24
2,68,0,96
2,68,127,24
2,68,0,96
2,68,127,24
2,68,0,96
2,64,127,24
2,64,0,504
2,64,127,816
2,64,0,96
2,64,127,24
2,64,0,96
2,68,127,24
2,68,0,96
2,68,127,24
2,68,0,96
2,68,127,24
2,68,0,96
2,64,127,24
2,64,0,504
2,64,127,816
2,64,0,96
2,64,127,24
2,64,0,96
2,68,127,24
2,68,0,96
2,68,127,24
2,68,0,96
2,68,127,24
2,68,0,96
2,64,127,24
2,64,0,504
2,64,127,816
2,64,0,96
2,64,127,24
2,64,0,96
2,68,127,24
2,68,0,96
2,68,127,24
2,68,0,96
2,68,127,24
2,68,0,96
2,64,127,24
2,64,0,504
2,64,127,816
2,64,0,96
2,64,127,24
2,64,0,96
2,68,127,24
2,68,0,96
2,68,127,24
2,68,0,96
2,68,127,24
2,68,0,96
2,64,127,24
2,64,0,504
2,64,127,816
2,64,0,96
2,64,127,24
2,64,0,96
2,68,127,24
2,68,0,96
2,68,127,24
2,68,0,96
2,68,127,24
2,68,0,96
2,64,127,24
2,64,0,504
2,64,127,816
2,64,0,96
2,64,127,24
2,64,0,96
2,68,127,24
2,68,0,96
2,68,127,24
2,68,0,96
2,68,127,24
2,68,0,96
2,64,127,24
2,64,0,504
3,59,127,61320
3,59,0,96
3,61,127,24
3,61,0,168
3,59,127,12
3,64,127,300
3,64,0,456
3,63,127,24
3,63,0,384
3,59,0,0
3,59,127,456
3,59,0,96
3,61,127,24
3,61,0,168
3,59,127,12
3,64,127,300
3,64,0,456
3,63,127,24
3,63,0,384
3,59,0,0
3,59,127,456
3,59,0,96
3,61,127,24
3,61,0,168
3,59,127,12
3,64,127,300
3,64,0,456
3,63,127,24
3,63,0,384
3,59,0,0
3,59,127,456
3,59,0,96
3,61,127,24
3,61,0,168
3,59,127,12
3,59,0,1164
3,59,127,456
3,59,0,96
3,61,127,24
3,61,0,168
3,59,127,12
3,64,127,300
3,64,0,456
3,63,127,24
3,63,0,384
3,59,0,0
3,59,127,456
3,59,0,96
3,61,127,24
3,61,0,168
3,59,127,12
3,64,127,300
3,64,0,456
3,63,127,24
3,63,0,384
3,59,0,0
3,59,127,456
3,59,0,96
3,61,127,24
3,61,0,168
3,59,127,12
3,64,127,300
3,64,0,456
3,63,127,24
3,63,0,384
3,59,0,0
3,59,127,456
3,59,0,96
3,61,127,24
3,61,0,168
3,59,127,12
3,64,127,300
3,64,0,456
3,63,127,24
3,63,0,384
3,59,0,0
4,76,127,19200
4,76,0,576
4,76,127,1344
4,76,0,576
4,76,127,1344
4,76,0,576
4,76,127,1344
4,76,0,576
4,76,127,20544
4,76,0,576
4,76,127,1344
4,76,0,576
4,76,127,1344
4,76,0,576
4,76,127,1344
4,76,0,576
4,76,127,1344
4,76,0,576
4,76,127,1344
4,76,0,576
4,76,127,1344
4,76,0,576
4,76,127,1344
4,76,0,576
4,76,127,1344
4,76,0,576
4,76,127,1344
4,76,0,576
4,76,127,1344
4,76,0,576
4,76,127,1344
4,76,0,576
4,76,127,1344
4,76,0,576
4,76,127,1344
4,76,0,576
4,76,127,1344
4,76,0,576
4,76,127,1344
4,76,0,576
5,63,127,0
5,66,127,0
5,71,127,0
5,71,0,120
5,66,0,0
5,63,0,0
5,63,127,60
5,68,127,0
5,71,127,0
5,71,0,60
5,68,0,0
5,63,0,0
5,66,127,180
5,63,127,0
5,63,0,60
5,66,0,0
5,71,127,0
5,63,127,0
5,66,127,0
5,66,0,120
5,63,0,0
5,71,0,0
5,68,127,60
5,71,127,0
5,63,127,0
5,63,0,60
5,71,0,0
5,68,0,0
5,63,127,60
5,66,127,0
5,71,127,0
5,71,0,60
5,66,0,0
5,63,0,0
5,63,127,60
5,66,127,0
5,66,0,60
5,63,0,0
5,63,127,0
5,66,127,0
5,71,127,0
5,71,0,120
5,66,0,0
5,63,0,0
5,63,127,60
5,71,127,0
5,68,127,0
5,68,0,60
5,71,0,0
5,63,0,0
5,66,127,180
5,63,127,0
5,63,0,60
5,66,0,0
5,66,127,0
5,63,127,0
5,71,127,0
5,71,0,120
5,63,0,0
5,66,0,0
5,63,127,60
5,68,127,0
5,71,127,0
5,71,0,60
5,68,0,0
5,63,0,0
5,66,127,60
5,71,127,0
5,63,127,0
5,63,0,60
5,71,0,0
5,66,0,0
5,71,127,120
5,66,127,0
5,63,127,0
5,63,0,120
5,66,0,0
5,71,0,0
5,71,127,60
5,68,127,0
5,63,127,0
5,63,0,60
5,68,0,0
5,71,0,0
5,63,127,180
5,66,127,0
5,66,0,60
5,63,0,0
5,66,127,0
5,63,127,0
5,71,127,0
5,71,0,120
5,63,0,0
5,66,0,0
5,63,127,60
5,71,127,0
5,68,127,0
5,68,0,60
5,71,0,0
5,63,0,0
5,71,127,60
5,66,127,0
5,63,127,0
5,63,0,60
5,66,0,0
5,71,0,0
5,66,127,60
5,63,127,0
5,63,0,60
5,66,0,0
5,71,127,0
5,66,127,0
5,63,127,0
5,63,0,120
5,66,0,0
5,71,0,0
5,68,127,60
5,71,127,0
5,63,127,0
5,63,0,60
5,71,0,0
5,68,0,0
5,63,127,180
5,66,127,0
5,66,0,60
5,63,0,0
5,71,127,0
5,63,127,0
5,66,127,0
5,66,0,120
5,63,0,0
5,71,0,0
5,71,127,60
5,68,127,0
5,63,127,0
5,63,0,60
5,68,0,0
5,71,0,0
5,63,127,60
5,71,127,0
5,66,127,0
5,66,0,60
5,71,0,0
5,63,0,0
5,69,127,120
5,64,127,0
5,61,127,0
5,61,0,120
5,64,0,0
5,69,0,0
5,69,127,60
5,64,127,0
5,61,127,0
5,61,0,60
5,64,0,0
5,69,0,0
5,64,127,60
5,61,127,0
5,69,127,0
5,69,0,60
5,61,0,0
5,64,0,0
5,68,127,0
5,64,127,0
5,59,127,0
5,59,0,120
5,64,0,0
5,68,0,0
5,59,127,120
5,68,127,0
5,64,127,0
5,64,0,120
5,68,0,0
5,59,0,0
5,68,127,0
5,64,127,0
5,59,127,0
5,59,0,120
5,64,0,0
5,68,0,0
5,64,127,60
5,59,127,0
5,59,0,60
5,64,0,0
5,66,127,0
5,63,127,0
5,59,127,0
5,59,0,120
