track,note,velocity,time
0,57,102,3
0,64,93,0
0,60,93,1
0,45,70,11
0,45,69,0
0,55,73,1
0,57,64,0
0,60,91,0
0,64,91,0
0,57,91,0
0,60,91,0
0,64,82,0
0,33,100,3
0,36,69,0
0,40,91,0
0,52,100,0
0,36,82,8
0,46,109,0
0,64,44,0
0,38,20,15
0,40,91,19
0,44,75,0
0,62,68,0
0,64,44,8
0,45,52,4
0,36,82,3
0,42,100,0
0,62,40,0
0,38,20,3
0,57,76,3
0,60,65,1
0,60,91,11
0,55,64,1
0,57,82,0
0,64,91,0
0,57,73,0
0,36,91,3
0,36,69,0
0,42,60,0
0,63,40,0
0,57,72,7
0,60,83,0
0,64,82,0
0,67,83,0
0,45,72,9
0,52,64,0
0,40,100,3
0,60,82,0
0,64,91,0
0,67,82,0
0,40,91,0
0,42,109,0
0,62,68,0
0,57,102,8
0,65,93,0
0,62,93,1
0,57,82,3
0,60,82,0
0,50,73,1
0,62,82,0
0,65,91,0
0,50,68,0
0,57,82,0
0,60,86,0
0,62,80,0
0,65,91,0
0,38,100,3
0,42,48,0
0,64,44,0
0,38,64,16
0,36,82,3
0,42,109,0
0,64,44,0
0,42,52,12
0,57,73,20
0,40,91,4
0,42,109,0
0,62,68,0
0,42,56,19
0,64,44,0
0,64,26,4
0,36,82,7
0,42,100,0
0,62,40,0
0,57,64,9
0,36,69,3
0,42,66,0
0,63,40,0
0,62,91,8
0,65,82,0
0,62,85,4
0,65,80,0
0,40,91,3
0,42,109,0
0,62,68,0
0,60,73,0
0,62,82,4
0,57,63,9
0,46,87,3
0,64,44,0
0,57,102,4
0,64,93,0
0,60,93,1
0,45,73,3
0,45,69,0
0,57,91,1
0,60,91,0
0,64,82,0
0,33,100,3
0,36,82,0
0,42,109,0
0,64,44,0
0,42,40,19
0,60,82,4
0,55,73,1
0,64,91,0
0,57,73,3
0,40,91,4
0,42,109,0
0,62,68,0
0,42,66,4
0,64,44,0
0,45,52,1
0,36,82,3
0,42,100,0
0,62,40,0
0,57,76,4
0,60,65,1
0,45,64,0
0,57,73,0
0,36,91,3
0,36,69,0
0,42,60,0
0,63,40,0
0,57,72,7
0,60,83,0
0,64,82,0
0,67,83,0
0,55,73,0
0,57,64,0
0,60,82,0
0,64,82,0
0,52,64,1
0,40,100,3
0,60,82,0
0,64,91,0
0,67,82,0
0,40,91,0
0,42,109,0
0,62,68,0
0,57,102,15
0,65,93,0
0,62,93,1
0,50,73,7
0,60,82,1
0,57,82,3
0,62,91,0
0,65,91,0
0,50,68,1
0,57,82,0
0,60,86,0
0,62,80,0
0,65,91,0
0,38,100,3
0,46,84,0
0,64,44,0
0,38,64,9
0,36,82,3
0,42,109,0
0,64,44,0
0,42,52,4
0,57,73,12
0,40,91,4
0,42,109,0
0,62,68,0
0,42,56,12
0,64,44,0
0,64,26,19
0,60,91,1
0,65,82,0
0,36,82,3
0,42,100,0
0,62,40,0
0,62,73,4
0,57,64,1
0,36,69,15
0,42,66,0
0,63,40,0
0,62,91,19
0,65,91,1
0,62,85,8
0,65,80,0
0,40,91,3
0,42,109,0
0,62,68,0
0,62,100,15
0,65,82,4
0,57,63,1
0,46,87,3
0,64,44,0
0,57,61,11
0,60,82,4
0,64,91,0
0,45,73,1
0,55,73,0
0,57,73,0
0,45,69,7
0,64,93,0
0,69,102,0
0,57,91,1
0,60,91,0
0,64,82,0
0,33,100,3
0,72,93,0
0,36,82,0
0,42,109,0
0,64,44,0
0,42,40,12
0,62,93,7
0,67,92,0
0,71,89,0
0,40,91,4
0,42,109,0
0,62,68,0
0,42,66,19
0,64,44,0
0,60,80,13
0,69,90,3
0,64,91,4
0,45,52,1
0,36,82,3
0,42,100,0
0,62,40,0
0,38,20,4
0,45,64,0
0,57,73,0
0,36,91,3
0,36,69,0
0,42,60,0
0,63,40,0
0,60,80,11
0,64,80,0
0,67,93,1
0,52,73,4
0,52,64,1
0,40,100,3
0,60,82,0
0,64,91,0
0,67,82,0
0,40,91,0
0,42,109,0
0,62,68,0
0,69,87,13
0,62,80,4
0,65,93,0
0,50,73,3
0,60,82,1
0,57,82,3
0,62,91,0
0,65,91,0
0,50,68,1
0,57,82,0
0,60,86,0
0,62,80,0
0,65,91,0
0,38,100,3
0,46,84,0
0,64,44,0
0,38,64,21
0,36,82,3
0,42,109,0
0,64,44,0
0,42,52,16
0,57,73,8
0,40,91,4
0,42,109,0
0,62,68,0
0,42,56,3
0,64,44,0
0,64,26,12
0,36,82,7
0,42,100,0
0,62,40,0
0,36,69,11
0,42,66,0
0,63,40,0
0,62,111,7
0,57,88,1
0,60,80,0
0,38,93,3
0,40,91,0
0,42,109,0
0,62,68,0
0,36,90,19
0,60,93,16
0,57,100,8
0,42,61,0
0,64,44,0
0,36,78,4
0,60,82,23
0,38,84,0
0,52,73,11
0,62,83,0
0,59,80,1
0,64,89,0
0,67,91,0
0,62,120,0
0,52,68,0
0,59,81,1
0,62,86,0
0,64,83,0
0,67,83,0
0,40,109,3
0,36,82,0
0,49,80,0
0,64,44,0
0,35,91,3
0,42,40,0
0,59,82,8
0,65,120,0
0,40,100,0
0,40,91,0
0,42,109,0
0,62,68,0
0,42,66,20
0,64,44,0
0,60,84,0
0,61,93,16
0,60,68,8
0,60,88,13
0,62,91,0
0,50,73,1
0,57,73,0
0,65,91,0
0,50,68,3
0,58,111,0
0,57,73,1
0,60,82,0
0,62,91,0
0,65,82,0
0,38,109,3
0,36,82,0
0,57,80,0
0,62,40,0
0,57,82,5
0,57,104,4
0,38,100,3
0,36,69,0
0,42,60,0
0,63,40,0
0,55,120,4
0,57,91,1
0,40,91,3
0,42,109,0
0,62,68,0
0,55,74,8
0,57,87,0
0,64,91,0
0,57,127,1
0,45,73,3
0,60,82,0
0,55,79,1
0,45,68,3
0,57,88,0
0,60,83,1
0,64,88,0
0,33,109,3
0,36,82,0
0,49,82,0
0,64,44,0
0,42,109,20
0,64,44,0
0,36,69,20
0,42,52,0
0,40,91,12
0,46,109,0
0,62,68,0
0,40,81,7
0,64,44,0
0,40,91,4
0,64,26,0
0,43,109,7
0,40,81,0
0,44,81,0
0,62,40,0
0,57,91,8
0,67,91,0
0,43,109,4
0,40,90,0
0,63,40,0
0,60,82,3
0,69,100,5
0,40,98,3
0,62,68,0
0,40,73,1
0,40,91,8
0,55,73,7
0,72,98,4
0,36,100,3
0,40,75,0
0,64,44,0
0,64,91,1
0,40,90,11
0,57,102,0
0,64,93,0
0,60,93,1
0,45,70,1
0,55,73,0
0,57,64,0
0,60,91,0
0,64,91,0
0,45,69,0
0,57,91,1
0,60,91,0
0,64,82,0
0,33,100,3
0,36,82,0
0,49,82,0
0,64,44,0
0,40,91,12
0,42,109,0
0,62,68,0
0,45,52,1
0,64,44,3
0,57,73,1
0,36,82,3
0,42,100,0
0,62,40,0
0,71,100,4
0,57,76,0
0,60,65,1
0,52,64,5
0,52,64,4
0,36,91,3
0,60,82,0
0,64,91,0
0,67,82,0
0,36,69,0
0,42,60,0
0,63,40,0
0,57,72,7
0,60,83,0
0,64,82,0
0,67,83,0
0,71,91,5
0,40,100,7
0,40,91,0
0,42,109,0
0,62,68,0
0,57,102,15
0,65,93,0
0,62,93,1
0,50,73,7
0,57,82,0
0,60,82,0
0,62,82,0
0,65,91,0
0,50,68,5
0,57,82,0
0,60,86,0
0,62,80,0
0,65,91,0
0,38,100,3
0,69,100,0
0,42,55,0
0,64,44,0
0,38,64,9
0,36,82,3
0,42,109,0
0,64,44,0
0,42,52,4
0,57,73,12
0,40,91,4
0,42,109,0
0,62,68,0
0,62,109,13
0,65,109,1
0,42,56,11
0,64,44,0
0,60,82,9
0,64,26,3
0,62,100,8
0,65,100,0
0,36,82,4
0,42,100,0
0,62,40,0
0,60,91,3
0,62,100,12
0,57,64,1
0,36,69,15
0,42,66,0
0,63,40,0
0,63,91,23
0,64,100,20
0,62,109,20
0,62,85,8
0,65,80,0
0,40,91,3
0,42,109,0
0,62,68,0
0,60,100,9
0,57,100,11
0,45,53,1
0,57,63,0
0,46,87,3
0,64,44,0
0,72,100,4
0,57,102,0
0,64,93,0
0,60,93,1
0,45,70,4
0,55,73,0
0,57,64,0
0,60,91,0
0,64,91,0
0,45,69,7
0,57,91,1
0,60,91,0
0,64,82,0
0,33,100,3
0,36,82,0
0,42,109,0
0,64,44,0
0,72,100,4
0,42,40,8
0,71,100,13
0,40,91,4
0,42,109,0
0,62,68,0
0,45,52,13
0,42,66,3
0,64,44,0
0,69,100,4
0,57,73,1
0,36,82,3
0,42,100,0
0,62,40,0
0,57,76,0
0,60,65,1
0,52,64,8
0,52,64,1
0,67,100,0
0,36,91,3
0,60,82,0
0,64,91,0
0,67,82,0
0,36,69,0
0,42,60,0
0,63,40,0
0,57,72,3
0,60,83,0
0,64,82,0
0,67,83,0
0,40,100,16
0,40,91,0
0,42,109,0
0,62,68,0
0,57,102,15
0,65,93,0
0,62,93,1
0,50,73,1
0,60,82,0
0,57,82,3
0,62,91,0
0,65,91,0
0,69,109,0
0,50,68,5
0,57,82,0
0,60,86,0
0,62,80,0
0,65,91,0
0,38,100,3
0,42,58,0
0,64,44,0
0,38,64,4
0,36,82,3
0,42,109,0
0,64,44,0
0,42,52,3
0,57,73,3
0,62,107,4
0,65,107,0
0,40,91,0
0,42,109,0
0,62,68,0
0,60,89,0
0,42,56,3
0,64,44,0
0,63,99,4
0,64,26,4
0,64,108,7
0,36,82,7
0,42,100,0
0,62,40,0
0,57,81,4
0,57,64,16
0,60,106,9
0,36,100,3
0,36,69,0
0,42,66,0
0,63,40,0
0,57,81,7
0,62,104,5
0,65,99,3
0,62,85,1
0,65,80,0
0,38,100,3
0,40,91,0
0,42,109,0
0,62,68,0
0,60,99,16
0,65,90,0
0,60,69,0
0,46,87,3
0,64,44,0
0,57,102,4
0,64,93,0
0,60,93,1
0,60,82,3
0,64,91,0
0,45,73,1
0,55,73,0
0,57,73,0
0,72,91,4
0,45,69,3
0,57,91,1
0,60,91,0
0,64,82,0
0,33,100,3
0,36,82,0
0,42,109,0
0,64,44,0
0,72,100,11
0,42,40,7
0,72,82,1
0,40,91,15
0,42,109,0
0,62,68,0
0,45,52,9
0,71,91,3
0,42,66,0
0,64,44,0
0,69,82,16
0,57,73,1
0,36,82,3
0,42,100,0
0,62,40,0
0,57,76,4
0,60,65,1
0,45,64,4
0,52,64,0
0,36,91,3
0,60,82,0
0,64,91,0
0,67,82,0
0,36,69,0
0,42,60,0
0,63,40,0
0,57,72,11
0,60,83,0
0,64,82,0
0,67,83,0
0,52,73,5
0,40,100,4
0,40,91,0
0,42,109,0
0,62,68,0
0,57,102,24
0,65,93,0
0,62,93,1
0,50,73,4
0,57,82,0
0,60,82,0
0,62,91,0
0,65,91,0
0,50,68,4
0,57,82,0
0,60,86,0
0,62,80,0
0,65,91,0
0,38,100,3
0,46,84,0
0,64,44,0
0,69,91,12
0,38,64,4
0,36,82,3
0,42,109,0
0,64,44,0
0,67,82,4
0,42,52,8
0,57,73,20
0,69,100,4
0,40,91,0
0,42,109,0
0,62,68,0
0,42,56,19
0,64,44,0
0,67,91,1
0,64,26,4
0,57,76,8
0,69,98,1
0,65,92,3
0,36,82,4
0,42,100,0
0,62,40,0
0,60,110,1
0,62,92,4
0,36,79,3
0,42,84,0
0,63,40,0
0,62,100,1
0,65,100,0
0,57,88,5
0,60,80,0
0,40,91,3
0,42,109,0
0,62,68,0
0,36,90,7
0,60,91,1
0,65,109,25
0,62,109,3
0,42,93,12
0,64,44,0
0,36,78,4
0,38,84,35
0,69,100,4
0,52,73,7
0,62,83,0
0,67,91,0
0,64,93,0
0,59,80,1
0,64,89,0
0,59,88,0
0,52,68,3
0,59,81,1
0,62,86,0
0,64,83,0
0,67,83,0
0,40,109,3
0,36,82,0
0,49,80,0
0,64,44,0
0,67,93,1
0,67,91,15
0,35,91,4
0,42,40,0
0,69,100,1
0,59,82,4
0,40,100,7
0,40,91,0
0,42,109,0
0,62,68,0
0,67,82,13
0,42,66,4
0,64,44,0
0,72,91,12
0,62,91,4
0,50,73,3
0,57,73,0
0,60,88,0
0,65,91,0
0,65,87,1
0,50,68,3
0,57,84,0
0,62,93,0
0,57,73,1
0,60,82,0
0,62,91,0
0,65,82,0
0,38,109,3
0,36,82,0
0,57,80,0
0,62,40,0
0,69,91,1
0,57,82,5
0,38,100,7
0,36,69,0
0,42,60,0
0,63,40,0
0,67,73,8
0,57,91,1
0,40,91,3
0,42,109,0
0,62,68,0
0,69,100,3
0,55,74,4
0,57,87,0
0,64,91,0
0,45,73,1
0,60,82,0
0,57,93,0
0,60,102,0
0,55,79,4
0,64,93,0
0,45,68,3
0,57,88,0
0,60,91,1
0,64,88,0
0,33,109,3
0,36,82,0
0,49,82,0
0,64,44,0
0,42,109,11
0,64,44,0
0,36,69,3
0,42,52,0
0,57,92,11
0,40,91,16
0,46,109,0
0,62,68,0
0,60,101,0
0,69,101,1
0,62,101,1
0,33,100,8
0,42,69,0
0,64,44,0
0,62,101,3
0,69,101,4
0,64,26,12
0,43,100,7
0,40,81,0
0,42,104,0
0,62,40,0
0,60,92,15
0,62,99,13
0,69,101,3
0,67,91,9
0,64,82,4
0,45,100,3
0,36,69,0
0,46,84,0
0,63,40,0
0,57,90,9
0,57,82,5
0,69,100,0
0,43,100,3
0,40,98,0
0,44,69,0
0,62,68,0
0,52,31,5
0,60,73,3
0,72,98,1
0,60,91,3
0,40,100,0
0,40,75,0
0,64,44,0
0,40,90,11
0,57,102,0
0,64,93,0
0,60,93,1
0,45,70,1
0,55,73,0
0,57,64,0
0,60,91,0
0,64,91,0
0,45,69,7
0,57,91,1
0,60,91,0
0,64,82,0
0,33,100,3
0,36,82,0
0,49,82,0
0,64,44,0
0,40,91,4
0,42,109,0
0,62,68,0
0,45,52,13
0,64,44,3
0,57,73,1
0,36,82,3
0,42,100,0
0,62,40,0
0,38,17,19
0,71,100,4
0,57,76,0
0,60,65,1
0,52,64,8
0,52,64,1
0,36,91,3
0,60,82,0
0,64,91,0
0,67,82,0
0,36,69,0
0,42,60,0
0,63,40,0
0,57,72,3
0,60,83,0
0,64,82,0
0,67,83,0
0,71,91,5
0,40,100,11
0,40,91,0
0,42,109,0
0,62,68,0
0,57,102,15
0,65,93,0
0,62,93,1
0,50,73,4
0,57,82,0
0,60,82,0
0,62,82,0
0,65,91,0
0,50,68,5
0,57,82,0
0,60,86,0
0,62,80,0
0,65,91,0
0,38,100,3
0,69,100,0
0,42,55,0
0,64,44,0
0,38,64,4
0,36,82,3
0,42,109,0
0,64,44,0
0,42,52,12
0,57,73,8
0,40,91,4
0,42,109,0
0,62,68,0
0,42,56,7
0,64,44,0
0,38,17,15
0,64,26,12
0,38,17,3
0,62,98,7
0,65,98,0
0,36,82,0
0,42,100,0
0,62,40,0
0,60,80,3
0,57,64,12
0,36,69,12
0,42,66,0
0,63,40,0
0,62,98,3
0,65,107,0
0,62,85,4
0,65,80,0
0,36,100,3
0,40,91,0
0,42,109,0
0,62,68,0
0,60,79,13
0,62,107,0
0,65,116,0
0,45,53,9
0,57,63,0
0,38,75,3
0,46,87,0
0,64,44,0
0,72,100,3
0,57,102,0
0,64,93,0
0,60,93,1
0,45,70,1
0,55,73,0
0,57,64,0
0,60,91,0
0,64,91,0
0,45,69,7
0,57,91,1
0,60,91,0
0,64,82,0
0,33,100,3
0,36,82,0
0,42,109,0
0,64,44,0
0,72,100,15
0,42,40,7
0,71,100,5
0,40,91,11
0,42,109,0
0,62,68,0
0,45,52,9
0,42,66,3
0,64,44,0
0,69,100,15
0,57,73,1
0,36,82,3
0,42,100,0
0,62,40,0
0,57,76,0
0,60,65,1
0,52,64,8
0,52,64,4
0,67,100,0
0,36,91,3
0,60,82,0
0,64,91,0
0,67,82,0
0,36,69,0
0,42,60,0
0,63,40,0
0,57,72,11
0,60,83,0
0,64,82,0
0,67,83,0
0,40,100,11
0,40,91,0
