track,note,velocity,time
1,51,127,978
1,39,99,3073
1,51,127,153
1,39,126,3072
1,34,127,0
1,39,127,209
1,39,127,197
1,39,126,135
1,39,127,126
1,34,126,2
1,39,127,198
1,39,127,139
1,39,127,404
1,34,127,1
1,27,99,16
1,29,127,112
1,31,99,28
1,32,127,0
1,32,127,160
1,32,127,119
1,31,127,64
1,31,127,125
1,36,127,19
1,32,127,229
1,44,127,9
1,39,127,385
1,32,127,373
1,32,126,89
1,31,127,82
1,36,127,23
1,29,127,11
1,34,127,262
1,34,127,540
1,34,127,47
1,34,127,620
1,34,127,541
1,34,127,44
1,29,127,5
1,34,127,18
1,29,127,287
1,34,127,31
1,34,127,71
1,34,127,527
1,34,127,50
1,34,127,624
1,34,127,436
1,34,127,138
1,34,127,52
1,29,127,13
1,34,127,24
1,29,127,2
1,34,127,34
1,34,127,492
1,34,127,40
1,29,127,433
1,34,127,74
1,29,127,10
1,34,127,14
1,33,127,1229
1,34,127,240
1,29,127,94
1,34,127,365
1,34,127,36
1,34,127,104
1,34,127,173
1,27,127,10
1,34,127,4
1,39,127,71
1,39,127,207
1,39,127,51
1,39,119,493
1,34,127,84
1,27,127,88
1,39,127,14
1,39,127,198
1,39,127,260
1,39,127,216
1,27,127,196
1,39,127,78
1,39,127,464
1,39,127,41
1,39,127,126
1,39,127,179
1,27,127,182
1,34,127,30
1,34,127,172
1,29,127,20
1,34,127,130
1,34,127,82
1,29,127,87
1,34,127,18
1,39,127,86
1,39,127,217
1,39,127,36
1,39,127,404
1,34,127,14
1,39,127,85
1,34,127,16
1,27,127,12
1,39,127,16
1,39,127,172
1,39,127,39
1,34,127,572
1,39,127,83
1,39,127,120
1,39,127,48
1,39,127,406
1,27,127,15
1,39,127,17
1,27,127,9
1,39,127,18
1,39,127,173
1,27,127,93
1,27,127,61
1,39,127,87
1,27,127,185
1,32,127,11
1,32,127,143
1,44,127,18
1,44,127,56
1,44,127,55
1,39,127,86
1,32,127,94
1,44,127,1
1,32,127,23
1,32,127,122
1,32,127,55
1,32,127,133
1,32,127,185
1,44,127,179
1,31,127,0
1,43,127,404
1,31,127,175
1,43,127,17
1,31,127,9
1,36,127,0
1,36,127,102
1,36,127,252
1,36,127,53
1,32,127,50
1,44,127,8
1,32,127,2
1,32,127,185
1,44,127,0
1,32,127,180
1,32,127,66
1,44,127,15
1,32,127,92
1,32,127,99
1,44,127,1
1,32,127,186
1,31,127,64
1,31,127,75
1,43,127,16
1,31,127,5
1,43,127,16
1,31,127,6
1,43,127,76
1,36,127,43
1,36,127,118
1,29,127,0
1,41,127,9
1,29,127,4
1,41,127,77
1,34,127,79
1,34,127,541
1,34,127,47
1,34,127,622
1,34,127,542
1,34,127,46
1,29,127,4
1,34,127,18
1,29,127,288
1,34,127,28
1,34,127,69
1,34,127,527
1,34,127,52
1,34,127,622
1,34,127,436
1,34,127,138
1,34,127,55
1,29,127,14
1,34,127,24
1,29,127,1
1,36,127,31
1,36,127,495
1,36,127,39
1,31,127,432
1,36,127,75
1,31,127,9
1,36,127,15
1,35,127,1224
1,34,127,239
1,33,127,124
1,36,127,172
1,31,127,95
1,36,127,363
1,36,127,18
1,36,127,103
1,36,127,174
1,29,127,10
1,36,127,6
1,41,127,58
1,41,127,207
1,41,127,50
1,41,119,492
1,36,127,84
1,29,127,87
1,41,127,6
1,41,127,197
1,41,127,260
1,41,127,215
1,29,127,197
1,41,127,64
1,41,127,462
1,41,127,40
1,41,127,127
1,41,127,179
1,29,127,177
1,36,127,19
1,36,127,177
1,31,127,18
1,36,127,130
1,36,127,80
1,31,127,88
1,36,127,18
1,41,127,87
1,41,127,214
1,41,127,38
1,41,127,402
1,36,127,16
1,41,127,85
1,36,127,15
1,29,127,9
1,41,127,17
1,41,127,173
1,41,127,40
1,36,127,572
1,41,127,84
1,41,127,122
1,41,127,44
1,41,127,403
1,29,127,17
1,41,127,15
1,29,127,9
1,41,127,18
1,41,127,172
1,29,127,94
1,29,127,61
1,41,127,87
1,29,127,184
1,34,127,11
1,34,127,142
1,46,127,17
1,46,127,55
1,46,127,56
1,41,127,86
1,34,127,96
1,46,127,0
1,34,127,0
1,34,127,122
1,34,127,56
1,34,127,134
1,34,127,185
1,46,127,179
1,33,127,0
1,45,127,405
1,33,127,174
1,45,127,16
1,33,127,10
1,38,127,0
1,38,127,103
1,38,127,251
1,38,127,54
1,34,127,50
1,46,127,6
1,34,127,1
1,34,127,183
1,46,127,0
1,34,127,179
1,34,127,68
1,46,127,15
1,34,127,94
1,34,127,100
1,46,127,2
1,34,127,185
1,33,127,62
1,33,127,78
1,45,127,15
1,33,127,3
1,45,127,16
1,33,127,6
1,45,127,78
1,38,127,44
1,38,127,118
1,31,127,0
1,43,127,9
1,31,127,4
1,43,127,0
1,36,127,79
1,36,127,540
1,36,127,46
1,36,127,622
1,36,127,542
1,36,127,44
1,31,127,4
1,36,127,19
1,31,127,287
1,36,127,30
1,36,127,71
1,36,127,527
1,36,127,48
1,36,127,627
1,36,127,436
1,36,127,138
1,36,127,54
1,31,127,16
1,36,127,30
1,31,127,1
1,36,127,35
1,36,127,492
1,36,127,39
1,31,127,432
1,36,127,73
1,31,127,11
1,36,127,14
1,35,127,1224
1,34,127,239
1,33,127,125
1,36,127,168
1,31,127,0
1,36,127,340
1,36,127,18
1,36,127,106
1,36,127,172
1,29,127,10
1,36,127,5
1,36,127,57
1,36,127,93
1,36,127,54
1,36,127,50
1,29,127,62
2,67,95,960
2,58,85,0
2,62,79,0
2,55,78,0
2,51,90,26
2,79,55,26
2,80,55,2
2,79,55,15
2,80,47,6
2,79,45,19
2,80,45,19
2,79,45,16
2,80,46,18
2,79,53,8
2,80,43,8
2,79,47,22
2,80,45,11
2,79,46,22
2,80,46,11
2,79,55,19
2,80,45,57
2,79,69,23
2,80,53,15
2,79,66,40
2,56,66,41
2,60,63,0
2,63,66,11
2,72,55,1520
2,82,58,0
2,62,70,131
2,67,85,0
2,55,57,10
2,51,69,3
2,58,53,6
2,79,39,340
2,79,46,93
2,80,42,34
2,79,53,50
2,80,46,27
2,79,45,1
2,80,43,37
2,79,47,58
2,80,43,34
2,79,47,55
2,80,46,24
2,79,53,65
2,80,46,16
2,79,49,64
2,80,43,20
2,79,53,5
2,80,49,7
2,79,47,1
2,80,47,12
2,79,49,75
2,80,53,21
2,79,55,71
2,60,79,13
2,56,73,5
2,46,82,148
2,56,65,0
2,60,65,0
2,63,69,16
2,62,75,216
2,51,90,0
2,58,85,0
2,70,75,7
2,67,79,5
2,86,101,1543
2,56,101,987
2,63,79,76
2,72,82,9
2,65,59,1
2,68,95,14
2,84,69,1154
2,79,67,630
2,80,55,0
2,82,51,27
2,67,73,3
2,51,78,0
2,62,54,0
2,70,38,8
2,58,95,1155
2,62,95,78
2,65,95,90
2,70,66,83
2,58,70,146
2,78,74,0
2,70,54,6
2,62,65,1
2,66,85,1
2,90,54,66
2,58,79,781
2,62,73,77
2,66,79,145
2,70,69,190
2,58,73,202
2,62,63,2
2,67,79,3
2,51,75,1
2,79,73,144
2,58,66,165
2,84,57,12
2,79,79,5
2,70,101,141
2,82,50,33
2,67,78,18
2,56,79,13
2,68,46,12
2,72,63,22
2,63,63,224
2,70,74,28
2,72,95,59
2,75,74,617
2,65,69,226
2,70,101,2
2,61,79,0
2,73,67,0
2,61,82,90
2,77,101,0
2,63,85,2
2,67,90,0
2,79,90,0
2,51,74,7
2,58,90,354
2,70,118,72
2,75,113,25
2,63,90,102
2,44,101,0
2,55,79,0
2,60,101,0
2,51,82,364
2,67,113,255
2,63,95,315
2,60,101,739
2,62,75,41
2,58,79,0
2,65,79,0
2,44,85,0
2,44,101,81
2,58,73,88
2,58,79,672
2,62,85,0
2,43,95,6
2,55,74,4
2,55,79,65
2,62,101,174
2,67,79,154
2,48,95,25
2,63,95,0
2,60,74,0
2,67,78,7
2,60,82,107
2,63,127,93
2,48,90,416
2,60,106,336
2,65,113,0
2,48,79,147
2,67,123,155
2,60,101,0
2,63,70,42
2,55,73,2
2,44,95,0
2,60,82,0
2,51,73,37
2,60,75,5
2,63,95,37
2,51,95,65
2,67,95,81
2,60,90,323
2,58,79,290
2,62,95,0
2,44,90,0
2,65,79,2
2,44,73,191
2,58,95,50
2,62,106,119
2,58,118,0
2,65,123,0
2,43,95,253
2,65,73,0
2,55,79,0
2,59,85,0
2,62,90,0
2,67,95,0
2,55,79,217
2,59,63,32
2,62,65,137
2,67,78,54
2,60,70,118
2,67,85,0
2,63,95,0
2,48,79,7
2,67,113,38
2,63,118,396
2,41,85,317
2,65,67,16
2,57,47,0
2,53,57,0
2,60,78,0
2,58,127,350
2,55,118,0
2,62,123,0
2,46,127,0
2,56,101,166
2,60,95,0
2,63,101,0
2,46,113,0
2,62,95,26
2,58,118,2
2,55,90,0
2,46,101,0
2,60,82,145
2,56,90,0
2,46,95,0
2,63,106,0
2,58,106,72
2,62,101,0
2,55,82,0
2,46,113,0
2,56,123,157
2,60,127,0
2,63,127,0
2,46,123,0
2,56,123,205
2,60,101,0
2,63,123,0
2,46,127,47
2,56,118,0
2,63,127,0
2,60,127,0
2,60,123,1060
2,57,118,0
2,67,118,0
2,63,123,0
2,45,127,0
2,46,127,42
2,63,127,2
2,56,118,0
2,60,118,0
2,63,127,34
2,46,127,0
2,56,127,0
2,60,127,0
2,60,127,372
2,56,127,0
2,63,127,0
2,46,127,0
2,46,127,52
2,56,127,0
2,63,127,0
2,60,127,0
2,55,78,778
2,67,106,0
2,58,78,0
2,62,95,0
2,51,90,0
2,51,101,22
2,60,113,0
2,56,101,0
2,63,106,0
2,62,106,18
2,58,113,0
2,55,90,0
2,62,106,148
2,58,101,0
2,66,118,0
2,54,95,0
2,70,113,66
2,62,101,172
2,55,101,0
2,67,113,0
2,58,101,0
2,51,95,0
2,56,101,6
2,60,101,0
2,63,101,0
2,61,95,31
2,51,90,0
2,58,74,0
2,67,95,0
2,55,66,0
2,58,106,161
2,61,101,2
2,65,127,68
2,67,127,89
2,58,85,88
2,68,127,71
2,58,101,48
2,70,127,68
2,56,123,229
2,60,118,0
2,63,118,0
2,51,90,0
2,44,113,0
2,56,118,52
2,63,127,0
2,60,123,0
2,44,118,299
2,58,106,0
2,62,113,0
2,65,95,0
2,58,113,0
2,62,95,0
2,43,90,0
2,55,79,0
2,63,101,31
2,67,95,0
2,48,90,0
2,60,67,0
2,65,106,30
2,63,118,242
2,44,118,17
2,55,82,0
2,63,74,0
2,51,85,0
2,60,95,0
2,62,101,25
2,65,95,0
2,58,101,0
2,46,90,0
2,55,74,8
2,43,95,2
2,59,101,0
2,62,101,0
2,63,118,27
2,60,90,0
2,67,113,0
2,48,106,0
2,53,101,12
2,41,113,0
2,57,113,0
2,60,106,0
2,58,127,219
2,55,118,0
2,62,123,0
2,46,127,0
2,56,101,166
2,60,95,0
2,63,101,0
2,46,113,0
2,58,118,26
2,55,90,0
2,46,101,0
2,62,95,0
2,60,82,145
2,56,90,0
2,46,95,0
2,63,106,0
2,48,113,73
2,57,82,0
2,64,101,0
2,60,106,0
2,48,123,155
2,65,127,0
2,62,127,0
2,58,123,0
2,65,123,206
2,62,101,0
2,58,123,0
2,62,127,48
2,65,127,0
2,58,118,0
2,48,127,0
2,47,127,1061
2,65,123,0
2,69,118,0
2,59,118,0
2,62,123,0
2,46,127,43
2,65,127,0
2,62,118,0
2,69,106,0
2,60,113,3
2,65,127,0
2,45,123,0
2,69,123,0
2,48,127,329
2,62,118,0
2,58,118,0
2,65,127,0
2,62,127,36
2,58,127,0
2,48,127,0
2,65,127,0
2,48,127,369
2,65,127,0
2,58,127,0
2,62,127,0
2,62,127,51
2,65,127,0
2,58,127,0
2,48,127,0
2,53,90,776
2,64,95,0
2,60,78,0
2,69,106,0
2,57,78,0
2,65,106,21
2,58,101,0
2,62,113,0
2,53,101,0
2,57,90,21
2,60,113,0
2,64,106,0
2,56,95,146
2,68,118,0
2,60,101,0
2,64,106,0
2,72,113,65
2,53,95,173
2,60,101,0
2,69,113,0
2,57,101,0
2,64,101,0
2,65,101,6
2,62,101,0
2,58,101,0
2,57,66,30
2,69,95,0
2,60,74,0
2,53,90,0
2,63,95,0
2,60,106,159
2,63,101,2
2,67,127,71
2,69,127,89
2,60,85,89
2,70,127,70
2,60,101,48
2,72,127,68
2,46,113,229
2,53,90,0
2,65,118,0
2,62,118,0
2,58,123,0
2,62,123,52
2,65,127,0
2,58,118,0
2,67,95,0
2,64,113,0
2,60,106,0
2,46,118,0
2,57,79,0
2,45,90,0
2,64,95,0
2,60,113,0
2,62,67,32
2,50,90,0
2,69,95,0
2,65,101,0
2,67,106,29
2,65,118,244
2,62,95,17
2,53,85,0
2,65,74,0
2,57,82,0
2,46,118,0
2,48,90,26
2,60,101,0
2,67,95,0
2,64,101,0
2,57,74,8
2,64,101,0
2,61,101,0
2,45,95,0
2,50,106,28
2,69,113,0
2,62,90,0
2,65,118,0
2,62,106,13
2,59,113,0
2,43,113,0
2,55,101,0
2,48,127,219
2,64,123,0
2,57,118,0
2,60,127,0
2,48,113,166
2,65,101,0
2,62,95,0
2,58,101,0
2,64,95,26
2,48,101,0
2,57,90,0
2,60,118,0
2,65,106,146
2,48,95,0
2,58,90,0
2,62,82,0
2,48,113,72
2,57,82,0
2,64,101,0
2,60,106,0
2,48,123,156
2,65,127,0
2,62,127,0
2,58,123,0
2,65,123,207
2,62,101,0
2,58,123,0
2,62,127,47
2,65,127,0
2,58,118,0
2,48,127,0
2,47,127,1060
2,65,123,0
2,69,118,0
2,59,118,0
2,62,123,0
2,46,127,44
2,65,127,0
2,62,118,0
2,69,106,0
2,60,113,250
2,65,127,0
2,45,123,0
2,69,123,0
2,48,127,328
2,62,118,0
2,58,118,0
2,65,127,0
2,62,127,33
2,58,127,0
2,48,127,0
2,65,127,0
2,48,127,371
2,65,127,0
2,58,127,0
2,62,127,0
2,62,127,52
2,65,127,0
2,58,127,0
2,48,127,0
2,58,123,774
2,62,127,0
2,65,127,0
2,48,127,0
2,53,127,10
2,57,127,0
2,60,127,0
3,61,97,36500
3,63,87,192
3,65,90,163
3,67,87,169
3,68,94,86
3,70,90,191
3,72,77,0
3,70,60,89
3,68,81,1919
3,67,56,357
3,68,65,24
3,67,43,16
3,72,94,930
3,74,77,28
3,75,87,766
3,74,73,4
3,72,77,8
3,70,65,762
3,67,87,1898
3,65,57,2
3,67,53,0
3,72,63,134
3,74,90,72
3,75,77,0
3,79,60,384
3,70,97,765
3,65,97,0
3,70,97,208
3,65,94,0
3,70,97,237
3,65,90,0
3,70,94,303
3,65,63,0
3,70,97,49
3,65,73,0
3,65,94,224
3,70,97,0
3,72,97,327
3,68,97,0
3,72,97,299
3,68,90,0
3,68,97,141
3,72,97,0
3,72,94,131
3,68,90,0
3,72,97,143
3,68,94,0
3,72,97,53
3,68,97,0
3,70,97,413
3,65,90,0
3,70,97,228
3,65,94,0
3,70,97,233
3,65,81,0
3,70,97,332
3,65,90,0
3,70,97,46
3,65,90,0
3,68,97,408
3,72,97,0
3,68,97,224
3,72,97,0
3,68,94,235
3,72,97,0
3,72,97,131
3,68,90,0
3,72,97,144
3,68,90,0
3,72,97,51
3,68,94,0
3,70,97,413
3,65,94,0
3,70,97,219
3,65,94,0
3,65,97,232
3,70,97,0
3,65,97,326
3,70,97,0
3,70,97,322
3,58,94,22
3,70,97,44
3,58,97,24
3,70,97,27
3,67,97,1072
3,72,97,17
3,75,97,16
3,77,97,191
3,79,97,14
3,77,97,19
3,75,97,12
3,72,97,193
3,68,97,72
3,75,97,0
3,72,97,0
3,75,97,47
3,72,97,0
3,68,97,0
3,75,97,401
3,72,97,0
3,68,97,0
3,75,97,52
3,68,97,0
3,72,97,0
3,74,97,17690
3,70,97,0
3,75,97,43
3,72,97,0
3,74,97,6
3,70,97,0
3,72,97,27
3,67,97,0
3,72,97,274
3,75,97,0
3,72,97,136
3,75,97,0
3,72,97,58
3,75,97,0
