track,note,velocity,time
0,52,76,50
0,55,76,0
0,36,91,1
0,48,72,0
0,60,85,0
0,48,0,93
0,52,0,31
0,60,0,24
0,55,0,4
0,48,69,11
0,36,0,38
0,52,79,10
0,48,0,1
0,52,0,43
0,55,77,7
0,55,0,27
0,36,106,18
0,57,71,2
0,57,0,10
0,36,0,26
0,34,99,8
0,53,83,1
0,46,84,1
0,60,109,0
0,53,0,8
0,62,89,5
0,46,0,3
0,60,0,5
0,34,0,13
0,62,0,13
0,53,68,13
0,53,0,22
0,33,93,5
0,45,99,1
0,57,103,0
0,60,112,1
0,53,82,1
0,53,0,23
0,45,0,9
0,33,0,10
0,60,0,26
0,57,0,7
0,43,91,11
0,31,99,1
0,55,100,22
0,58,90,1
0,43,0,3
0,31,0,7
0,55,0,10
0,58,0,9
0,57,62,3
0,41,63,1
0,60,77,0
0,29,62,1
0,53,62,0
0,53,0,48
0,57,0,50
0,60,0,1
0,53,49,15
0,41,0,5
0,53,0,16
0,53,64,23
0,60,102,1
0,29,0,10
0,60,0,30
0,60,70,8
0,65,108,2
0,53,0,26
0,65,0,3
0,60,0,1
0,48,62,68
0,36,110,1
0,48,0,3
0,55,54,6
0,64,66,0
0,36,69,1
0,60,68,0
0,60,0,7
0,64,0,3
0,55,0,9
0,48,65,54
0,48,0,37
0,52,95,11
0,60,104,1
0,55,98,1
0,36,0,18
0,36,105,6
0,52,0,6
0,48,95,1
0,48,0,11
0,55,0,5
0,60,0,22
0,58,88,5
0,58,0,20
0,36,0,13
0,57,103,13
0,52,100,1
0,52,0,9
0,57,0,6
0,36,0,6
0,29,108,5
0,41,96,0
0,48,83,2
0,53,79,1
0,29,70,1
0,41,63,0
0,48,73,0
0,53,78,0
0,57,71,0
0,60,84,0
0,60,94,0
0,35,77,1
0,57,77,0
0,65,84,1
0,57,112,2
0,35,0,1
0,57,0,2
0,57,116,17
0,48,0,31
0,53,0,6
0,57,0,10
0,60,0,0
0,57,0,20
0,57,110,25
0,57,0,86
0,55,99,6
0,55,0,39
0,57,101,11
0,35,75,62
0,35,0,4
0,57,0,43
0,41,0,22
0,29,0,26
0,60,0,28
0,41,106,10
0,55,106,2
0,58,117,0
0,29,101,1
0,65,101,0
0,53,127,3
0,55,0,13
0,65,0,4
0,58,0,1
0,57,82,29
0,55,127,2
0,60,82,1
0,53,0,2
0,65,61,0
0,29,0,11
0,41,0,22
0,57,0,6
0,60,0,0
0,65,0,0
0,57,120,1
0,55,0,2
0,58,99,2
0,62,92,0
0,65,82,3
0,34,94,3
0,46,78,4
0,65,0,0
0,48,0,10
0,53,0,7
0,57,0,4
0,57,0,8
0,53,123,5
0,41,0,5
0,35,52,4
0,35,0,4
0,41,98,1
0,46,85,9
0,53,78,13
0,29,0,2
0,34,107,2
0,58,79,0
0,53,0,5
0,62,93,3
0,35,82,4
0,58,0,0
0,65,0,0
0,65,85,0
0,35,0,4
0,62,0,44
0,62,121,37
0,62,0,32
0,62,121,19
0,62,0,87
0,63,122,1
0,63,0,35
0,62,115,6
0,46,0,27
0,62,0,7
0,60,118,2
0,34,0,1
0,46,82,10
0,35,77,7
0,35,0,4
0,53,55,38
0,60,0,3
0,46,0,22
0,58,47,26
0,60,118,2
0,58,0,10
0,53,0,1
0,53,100,34
0,58,108,0
0,63,111,0
0,65,104,0
0,60,0,21
0,34,0,8
0,46,115,18
0,34,107,2
0,53,0,2
0,62,121,0
0,58,0,22
0,63,0,3
0,53,69,10
0,60,107,3
0,62,0,3
0,53,0,1
0,65,0,2
0,65,0,1
0,41,0,5
0,46,0,0
0,46,0,0
0,58,106,6
0,35,66,1
0,53,104,0
0,62,106,0
0,65,104,0
0,60,0,1
0,62,0,0
0,62,110,1
0,35,0,2
0,53,0,1
0,58,0,3
0,53,0,1
0,58,0,4
0,53,77,3
0,62,0,3
0,60,109,1
0,41,74,0
0,62,0,1
0,41,0,5
0,41,74,5
0,34,0,13
0,33,102,3
0,48,95,0
0,60,0,3
0,29,87,3
0,53,77,1
0,57,79,3
0,60,122,0
0,60,93,3
0,35,73,1
0,57,100,0
0,60,106,0
0,35,0,4
0,65,93,1
0,53,0,11
0,57,0,6
0,65,0,2
0,60,0,4
0,29,0,6
0,60,0,13
0,53,106,2
0,53,0,39
0,53,98,9
0,53,0,58
0,57,106,130
0,53,95,3
0,58,96,0
0,60,105,0
0,57,0,26
0,41,81,4
0,58,108,0
0,29,80,1
0,35,87,0
0,35,0,4
0,53,0,4
0,60,0,26
0,53,74,16
0,41,0,33
0,53,0,8
0,58,0,1
0,57,110,2
0,41,47,5
0,41,0,21
0,58,0,8
0,53,93,5
0,55,100,0
0,60,106,0
0,55,114,2
0,57,0,4
0,41,78,13
0,53,0,3
0,29,0,6
0,41,0,2
0,55,0,23
0,60,0,6
0,53,72,8
0,55,0,1
0,57,106,1
0,53,0,21
0,57,0,16
0,57,0,4
0,35,81,3
0,53,60,2
0,58,73,0
0,60,84,0
0,62,69,0
0,34,70,1
0,46,65,0
0,35,0,1
0,50,122,0
0,53,0,4
0,48,0,5
0,41,0,6
0,60,0,3
0,65,0,5
0,33,0,4
0,46,107,5
0,41,98,1
0,46,96,2
0,53,83,2
0,58,74,0
0,62,81,2
0,65,86,0
0,35,82,2
0,35,0,4
0,46,0,30
0,50,0,4
0,34,0,5
0,53,0,26
0,58,0,5
0,60,0,10
0,62,0,0
0,35,71,4
0,35,0,4
0,35,70,91
0,46,52,3
0,35,0,1
0,65,0,37
0,62,0,5
0,58,0,3
0,53,0,1
0,46,0,5
0,46,0,4
0,41,0,3
0,41,85,32
0,35,82,1
0,46,92,2
0,53,74,1
0,35,0,1
0,58,72,0
0,62,94,0
0,65,79,1
0,46,65,47
0,46,0,40
0,34,90,10
0,46,64,47
0,53,64,46
0,53,0,19
0,46,0,24
0,58,100,6
0,63,100,0
0,53,95,1
0,48,126,8
0,46,80,6
0,53,123,0
0,46,0,2
0,53,0,3
0,58,0,9
0,63,0,0
0,53,0,20
0,58,72,2
0,63,78,0
0,55,127,2
0,53,63,2
0,65,0,1
0,53,0,3
0,62,0,2
0,46,0,3
0,58,0,5
0,53,0,3
0,58,0,4
0,63,0,1
0,41,0,7
0,55,0,10
0,57,127,5
0,58,98,1
0,35,75,1
0,62,99,0
0,53,91,1
0,35,0,3
0,46,0,1
0,34,0,9
0,57,0,1
0,58,0,7
0,60,127,8
0,62,0,1
0,41,86,1
0,53,0,6
0,41,0,4
0,48,0,2
0,57,46,2
0,60,61,0
0,41,126,1
0,29,52,1
0,53,47,0
0,35,70,0
0,41,92,1
0,35,0,3
0,60,0,19
0,60,127,15
0,60,0,2
0,53,0,9
0,57,0,1
0,60,0,5
0,29,0,30
0,53,74,5
0,53,0,67
0,35,32,73
0,48,44,1
0,41,0,1
0,35,0,2
0,48,0,1
0,57,100,6
0,41,79,1
0,35,83,3
0,35,0,4
0,60,84,26
0,57,0,17
0,60,0,3
0,65,74,30
0,65,0,17
0,57,116,28
0,60,124,1
0,65,115,0
0,67,123,0
0,57,0,26
0,60,0,0
0,65,0,6
0,67,0,12
0,53,127,1
0,53,79,2
0,57,81,1
0,41,98,1
0,48,105,0
0,60,108,0
0,65,105,0
0,53,0,23
0,55,127,22
0,41,0,2
0,60,69,0
0,53,82,2
0,55,0,9
0,60,0,0
0,41,111,34
0,57,127,0
0,60,127,2
0,65,127,0
0,69,127,0
0,53,0,25
0,57,0,6
0,65,0,2
0,60,0,6
0,53,0,1
0,69,0,0
0,53,127,7
0,65,0,1
0,41,0,1
0,48,0,0
0,60,0,0
0,62,85,1
0,53,74,2
0,58,74,0
0,65,75,0
0,58,0,8
0,53,0,5
0,62,0,2
0,53,0,2
0,57,0,0
0,65,0,0
0,53,79,2
0,58,95,0
0,62,84,0
0,65,81,0
0,41,0,2
0,62,69,6
0,65,79,0
0,70,77,0
0,46,89,2
0,35,78,0
0,46,85,0
0,53,0,0
0,58,0,0
0,62,0,0
0,65,0,0
0,46,104,1
0,53,100,1
0,58,109,0
0,62,104,0
0,65,99,0
0,41,0,1
0,35,0,1
0,62,0,29
0,62,127,2
0,65,0,3
0,62,0,32
0,62,127,11
0,53,0,34
0,58,0,12
0,65,0,4
0,53,54,4
0,62,0,1
0,46,0,15
0,62,0,18
0,63,124,5
0,53,0,32
0,63,0,10
0,62,119,6
0,35,70,8
0,35,0,3
0,62,61,24
0,60,127,3
0,62,0,3
0,46,0,1
0,70,0,5
0,62,0,2
0,46,77,34
0,60,0,29
0,53,66,19
0,60,113,0
0,53,0,6
0,60,0,29
0,60,108,13
0,65,112,0
0,70,103,0
0,62,123,4
0,60,0,18
0,65,0,1
0,70,0,0
0,62,0,4
0,46,0,17
0,46,114,1
0,46,0,2
0,60,118,1
0,65,118,0
0,70,114,0
0,62,127,1
0,50,90,2
0,53,90,0
0,46,79,1
0,58,82,0
0,53,80,9
0,60,0,4
0,65,0,5
0,70,0,3
0,62,0,1
0,53,0,16
0,62,127,4
0,60,66,10
0,60,0,7
0,46,0,7
0,62,0,1
0,53,0,3
0,60,122,1
0,50,0,2
0,35,75,2
0,58,0,1
0,60,84,0
0,65,92,0
0,70,89,0
0,46,0,1
0,35,0,2
0,60,0,2
0,60,0,4
0,65,0,7
0,60,127,1
0,70,0,0
0,53,69,10
0,48,80,10
0,57,76,0
0,45,111,6
0,41,92,4
0,60,96,4
0,65,100,3
0,69,87,4
0,35,67,1
0,41,82,0
0,60,83,0
0,65,85,0
0,53,72,3
0,35,0,1
0,60,0,0
0,53,107,14
0,53,0,43
0,41,0,7
0,53,0,35
0,45,67,73
0,60,0,28
0,45,0,25
0,65,0,1
0,69,0,17
0,57,116,25
0,53,0,8
0,60,0,10
0,65,0,0
0,57,0,3
0,57,0,0
0,48,0,6
0,41,0,5
0,57,122,11
0,35,44,3
0,35,0,4
0,57,0,17
0,35,82,0
0,35,0,4
0,58,123,0
0,65,99,0
0,60,84,1
0,70,100,0
0,60,0,2
0,58,0,54
0,70,0,4
0,57,123,6
0,65,0,5
0,57,0,19
0,65,101,28
0,55,122,2
0,60,93,0
0,69,100,0
0,60,0,58
0,65,0,9
0,55,0,10
0,69,0,1
0,57,126,5
0,67,80,8
0,45,0,14
0,57,0,2
0,45,97,6
0,67,0,0
0,50,114,2
0,60,89,9
0,65,100,0
0,65,0,2
0,60,0,1
0,45,0,6
0,46,98,2
0,46,94,1
0,46,96,0
0,62,76,0
0,53,85,1
0,58,85,0
0,60,96,0
0,65,93,0
0,34,91,1
0,35,61,1
0,60,77,0
0,58,70,1
0,65,69,0
0,35,0,3
0,62,71,1
0,60,0,3
0,50,0,15
0,46,0,142
0,62,0,6
0,44,58,1
0,53,0,0
0,58,0,0
0,60,0,0
0,65,0,0
0,62,70,1
0,60,96,1
0,44,0,2
0,46,79,0
0,62,0,43
0,60,0,1
0,53,64,2
0,58,83,0
0,62,76,0
0,65,79,0
0,60,85,1
0,46,0,28
0,53,0,17
0,58,0,0
0,62,0,0
0,65,0,0
0,48,127,1
0,60,0,0
0,53,90,3
0,58,85,0
0,60,95,0
0,62,94,0
0,65,94,0
0,48,0,1
0,62,0,11
0,58,0,8
0,65,0,1
0,34,0,18
0,46,56,2
0,46,0,41
0,34,106,12
0,46,91,0
0,44,58,1
0,44,0,4
0,34,0,29
0,46,0,0
0,34,100,14
0,46,94,0
0,46,0,30
0,34,0,1
0,45,127,13
0,45,0,4
0,58,89,0
0,60,93,0
0,62,87,0
0,65,98,0
0,62,0,15
0,60,0,1
0,65,0,3
0,58,0,1
0,46,0,18
0,41,114,3
0,58,95,7
0,60,109,0
0,62,102,0
0,65,102,0
0,41,0,39
0,46,0,1
0,46,104,2
0,53,0,3
0,58,0,0
0,60,0,0
0,62,0,0
0,65,0,0
0,44,58,3
0,34,104,2
0,46,88,0
0,44,0,2
0,58,0,4
0,60,0,14
0,65,0,2
0,46,0,5
0,34,0,2
0,62,0,1
0,45,127,14
0,34,102,4
0,45,0,0
0,46,96,0
0,34,0,30
0,46,0,3
0,41,127,10
0,57,127,1
0,41,0,3
0,58,109,0
0,60,123,0
0,62,115,0
0,65,117,0
0,57,0,31
0,58,127,6
0,58,0,20
0,60,0,2
0,65,0,3
0,62,0,1
0,58,0,19
0,46,0,6
0,48,124,0
0,35,121,5
0,60,121,1
0,64,117,0
0,67,119,0
0,72,113,0
0,55,102,1
0,67,98,0
0,36,93,1
0,48,87,0
0,64,106,0
0,35,0,1
0,60,104,0
0,60,127,1
0,55,0,20
0,60,0,25
0,60,0,0
0,64,0,9
0,48,0,4
0,67,0,0
0,60,105,17
0,42,43,5
0,42,0,4
0,60,0,16
0,60,127,30
0,55,65,39
0,64,77,0
0,60,71,2
0,48,0,2
0,42,63,1
0,38,121,1
0,43,116,0
0,42,0,3
0,38,0,1
0,55,0,10
0,60,0,1
0,60,0,44
0,64,0,7
0,42,53,25
0,42,0,4
0,57,118,35
0,57,0,34
0,43,0,10
0,60,127,3
0,36,118,4
0,42,66,5
0,55,60,0
0,64,71,1
0,60,88,1
0,60,71,0
0,35,123,1
0,42,0,1
0,35,0,2
0,60,0,4
0,55,0,1
0,64,0,9
0,60,0,9
0,48,46,8
0,60,125,11
0,48,0,6
0,60,0,28
0,64,0,0
0,67,0,0
0,72,0,0
0,60,121,2
0,64,119,0
0,67,121,0
0,72,115,0
0,60,0,1
0,42,36,5
0,42,0,4
0,60,127,21
0,60,0,2
0,64,0,0
0,67,0,0
0,72,0,0
0,65,123,2
0,70,111,0
0,72,98,0
0,72,115,0
0,60,109,1
0,60,113,0
0,64,119,0
0,67,121,0
0,36,0,4
0,60,0,6
0,36,124,4
0,42,75,1
0,48,105,0
0,65,0,1
0,42,0,2
0,72,0,0
0,38,121,1
0,57,127,0
0,70,0,0
0,60,0,2
0,38,0,2
0,72,0,4
0,36,0,8
0,60,61,3
0,57,0,3
0,60,0,0
0,64,0,0
0,67,0,0
0,38,124,2
0,60,113,0
0,64,111,0
0,67,108,0
0,72,100,0
0,60,0,2
0,48,0,21
0,38,0,3
0,60,0,4
0,64,0,0
0,67,0,0
0,72,0,0
0,60,117,2
0,64,119,0
0,67,119,0
0,72,117,0
0,40,124,1
0,60,99,0
0,65,109,0
0,70,104,0
0,42,52,1
0,72,86,0
0,42,0,4
0,57,127,0
0,60,0,10
0,65,0,6
0,72,0,0
0,70,0,10
0,57,0,8
0,48,74,8
0,60,59,4
0,58,109,1
0,60,0,9
0,36,0,8
0,48,0,1
0,40,0,13
0,60,0,7
0,41,111,1
0,60,121,0
0,60,0,0
0,64,0,0
0,65,127,0
0,67,0,0
0,70,114,0
0,72,102,0
0,72,0,0
0,41,120,1
0,42,63,0
0,60,122,1
0,60,121,0
0,65,121,0
0,70,121,0
0,72,115,0
0,70,119,1
0,35,121,1
0,57,102,0
0,42,0,1
0,58,0,0
0,60,110,0
0,65,104,0
0,35,0,3
0,60,0,17
0,65,0,10
0,57,0,2
0,60,0,3
0,65,0,0
0,72,0,0
0,69,107,1
0,70,0,0
0,70,0,3
0,60,0,9
0,69,0,32
0,42,41,4
0,60,105,0
0,60,58,0
0,70,112,0
0,60,73,2
0,42,0,2
0,65,41,0
0,65,56,1
0,65,0,4
0,60,0,1
0,65,0,1
0,60,0,1
0,60,0,22
0,69,104,13
0,60,86,1
0,57,76,1
0,60,125,0
0,65,81,0
0,65,127,0
0,70,117,0
0,72,112,0
0,60,119,1
0,70,0,4
0,57,0,17
0,65,0,4
0,60,0,2
0,60,0,1
0,65,0,2
0,70,0,0
0,72,0,5
0,69,0,3
0,53,74,7
0,70,112,0
0,41,0,2
0,38,121,1
0,42,78,0
0,38,0,4
0,42,0,0
0,53,0,20
0,60,0,3
0,57,79,8
0,62,85,1
0,65,71,0
0,69,110,6
0,60,117,3
0,60,0,0
0,65,127,0
0,65,0,0
0,69,125,0
0,70,0,0
0,72,125,0
0,72,0,0
0,70,0,1
0,62,119,1
0,72,96,0
0,60,109,1
