track,note,velocity,time
1,62,116,1893
1,62,0,23
1,62,125,44
1,62,0,29
1,65,108,148
1,65,0,176
1,62,111,56
1,62,0,29
1,62,116,38
1,62,0,39
1,62,116,376
1,62,0,25
1,62,116,42
1,62,0,35
1,65,111,146
1,65,0,188
1,62,111,44
1,62,0,30
1,62,125,35
1,62,0,36
1,62,116,379
1,62,0,27
1,62,116,41
1,62,0,31
1,65,116,146
1,65,0,192
1,62,116,43
1,62,0,29
1,62,111,36
1,62,0,39
1,62,111,374
1,62,0,29
1,62,116,40
1,62,0,34
1,65,116,146
1,65,0,199
1,62,116,34
1,62,0,30
1,62,116,37
1,62,0,46
1,65,122,426
1,65,0,99
1,62,122,31
1,62,0,184
1,60,122,414
1,60,0,40
1,62,102,17
1,62,0,30
1,62,102,24
1,62,0,39
1,67,103,27
1,67,0,33
1,65,105,33
1,65,0,88
1,62,102,30
1,62,0,108
1,65,116,725
1,65,0,90
1,62,116,33
1,62,0,224
1,69,111,368
1,69,0,71
1,67,102,19
1,67,0,60
1,65,116,24
1,65,0,49
1,67,116,35
1,67,0,89
1,65,111,25
1,65,0,215
1,69,108,677
1,69,0,63
1,67,105,21
1,67,0,47
1,72,98,39
1,72,0,55
1,69,105,35
1,69,0,52
1,67,108,28
1,67,0,41
1,65,111,41
1,65,0,66
1,62,111,30
1,62,0,40
1,62,116,47
1,62,0,56
1,69,116,304
1,69,0,15
1,69,111,17
1,69,0,17
1,69,111,12
1,69,0,36
1,67,108,20
1,67,0,30
1,72,116,33
1,72,0,93
1,69,105,26
1,69,0,30
1,67,116,33
1,67,0,100
1,65,111,17
1,65,0,54
1,62,108,67
1,62,0,23
1,60,98,9
1,60,0,22
1,62,111,7
1,62,0,35
1,62,111,22
1,62,0,35
1,62,108,28
1,62,0,42
1,69,116,147
1,69,0,49
1,67,111,34
1,67,0,55
1,67,105,29
1,67,0,70
1,62,111,115
1,62,0,19
1,62,91,13
1,62,0,24
1,65,108,10
1,65,0,46
1,62,98,10
1,62,0,28
1,62,122,22
1,62,0,63
1,62,116,422
1,62,0,30
1,62,116,27
1,62,0,35
1,65,111,25
1,65,0,41
1,67,111,20
1,67,0,40
1,69,116,26
1,69,0,40
1,69,112,23
1,69,0,223
1,62,116,699
1,62,0,28
1,65,111,29
1,65,0,30
1,67,108,28
1,67,0,34
1,67,116,26
1,67,0,78
1,77,86,572
1,77,0,90
1,74,108,19
1,74,0,29
1,74,111,33
1,74,0,110
1,72,98,10
1,72,0,89
1,69,111,440
1,69,0,23
1,72,111,44
1,72,0,71
1,69,98,8
1,69,0,18
1,67,98,20
1,67,0,46
1,65,98,13
1,65,0,34
1,67,116,31
1,67,0,82
1,69,122,247
1,69,0,34
1,69,122,69
1,69,0,56
1,69,125,59
1,69,0,45
1,69,122,72
1,69,0,74
1,69,122,40
1,69,0,66
1,73,122,60
1,73,0,107
1,69,116,4
1,69,0,33
1,74,125,33
1,74,0,338
1,65,102,1334
1,65,0,97
1,62,125,28
1,62,0,186
1,60,116,412
1,60,0,34
1,62,111,24
1,62,0,30
1,62,102,30
1,62,0,33
1,67,98,28
1,67,0,35
1,65,108,31
1,65,0,93
1,62,116,29
1,62,0,149
1,65,113,686
1,65,0,95
1,62,116,30
1,62,0,170
1,69,122,426
1,69,0,58
1,67,102,24
1,67,0,49
1,65,116,33
1,65,0,39
1,67,116,46
1,67,0,98
1,65,113,18
1,65,0,209
1,69,111,697
1,69,0,69
1,67,102,18
1,67,0,42
1,67,111,39
1,67,0,70
1,62,116,104
1,62,0,18
1,62,93,14
1,62,0,22
1,65,116,14
1,65,0,48
1,62,116,10
1,62,0,31
1,62,122,35
1,62,0,65
1,69,111,357
1,69,0,45
1,67,98,42
1,67,0,47
1,67,102,43
1,67,0,70
1,62,105,105
1,62,0,21
1,62,93,12
1,62,0,25
1,65,108,9
1,65,0,42
1,62,116,21
1,62,0,27
1,62,116,34
1,62,0,50
1,69,111,363
1,69,0,71
1,67,102,22
1,67,0,62
1,72,98,28
1,72,0,99
1,69,105,25
1,69,0,57
1,67,111,13
1,67,0,137
1,65,105,24
1,65,0,44
1,62,111,21
1,62,0,76
1,62,116,337
1,62,0,34
1,62,102,27
1,62,0,39
1,65,102,23
1,65,0,42
1,67,102,19
1,67,0,45
1,69,102,20
1,69,0,42
1,69,115,25
1,69,0,127
1,62,116,639
1,62,0,28
1,65,105,29
1,65,0,30
1,67,96,25
1,67,0,40
1,69,98,23
1,69,0,40
1,67,105,17
1,67,0,30
1,67,111,32
1,67,0,69
1,79,116,431
1,79,0,104
1,77,92,9
1,77,0,35
1,74,108,32
1,74,0,172
1,69,108,368
1,69,0,41
1,67,98,58
1,67,0,33
1,67,116,42
1,67,0,67
1,65,102,21
1,65,0,20
1,67,100,12
1,67,0,45
1,65,102,10
1,65,0,43
1,67,105,23
1,67,0,82
1,69,105,344
1,69,0,32
1,69,105,22
1,69,0,32
1,69,98,23
1,69,0,32
1,69,105,28
1,69,0,36
1,69,98,23
1,69,0,40
1,73,116,88
1,73,0,1154
1,65,111,687
1,65,0,95
1,62,102,28
1,62,0,82
1,65,111,33
1,65,0,90
1,62,111,26
1,62,0,34
1,62,96,29
1,62,0,36
1,65,100,27
1,65,0,34
1,65,116,29
1,65,0,40
1,62,116,22
1,62,0,33
1,67,93,22
1,67,0,35
1,65,111,30
1,65,0,90
1,62,116,25
1,62,0,35
1,62,122,30
1,62,0,32
1,62,122,30
1,62,0,39
1,60,111,379
1,60,0,29
1,62,116,39
1,62,0,64
1,65,111,406
1,65,0,92
1,62,108,32
1,62,0,81
1,65,111,39
1,65,0,84
1,62,116,33
1,62,0,33
1,62,102,25
1,62,0,33
1,65,111,27
1,65,0,34
1,65,98,30
1,65,0,40
1,67,105,23
1,67,0,39
1,65,116,20
1,65,0,32
1,69,111,31
1,69,0,93
1,65,116,22
1,65,0,80
1,62,116,97
1,62,0,32
1,62,122,34
1,62,0,42
1,60,111,252
1,60,0,28
1,62,108,35
1,62,0,61
1,62,98,475
1,62,0,35
1,69,96,33
1,69,0,45
1,67,90,8
1,67,0,40
1,67,76,32
1,67,0,48
1,62,111,122
1,62,0,24
1,65,105,35
1,65,0,42
1,62,102,14
1,62,0,17
1,62,105,18
1,62,0,35
1,62,93,410
1,62,0,15
1,62,85,15
1,62,0,22
1,69,96,10
1,69,0,52
1,67,98,11
1,67,0,33
1,67,100,27
1,67,0,65
1,62,105,112
1,62,0,14
1,62,93,14
1,62,0,22
1,65,111,11
1,65,0,43
1,62,105,12
1,62,0,32
1,62,116,39
1,62,0,59
1,62,102,360
1,62,0,17
1,62,89,11
1,62,0,24
1,69,93,8
1,69,0,23
1,69,92,8
1,67,116,28
1,69,0,7
1,67,0,23
1,67,97,24
1,67,0,48
1,65,125,25
1,65,0,24
1,65,108,79
1,65,0,20
1,65,100,15
1,65,0,19
1,67,116,18
1,67,0,79
1,65,108,14
1,65,0,48
1,62,111,391
1,62,0,30
1,65,108,36
1,65,0,159
1,67,105,21
1,67,0,38
1,69,96,23
1,69,0,52
1,65,100,7
1,65,0,53
1,62,102,12
1,62,0,104
1,62,108,4152
1,62,0,28
1,62,111,35
1,62,0,31
1,62,102,142
1,62,0,157
1,62,111,76
1,62,0,31
1,62,111,37
1,62,0,40
1,62,102,375
1,62,0,33
1,62,111,36
1,62,0,34
1,62,102,140
1,62,0,176
1,62,108,58
1,62,0,30
1,62,111,36
1,62,0,37
1,62,111,382
1,62,0,28
1,62,116,38
1,62,0,37
1,62,111,138
1,62,0,185
1,62,102,51
1,62,0,29
1,62,102,37
1,62,0,41
1,62,111,372
1,62,0,31
1,62,102,32
1,62,0,37
1,62,102,143
1,62,0,209
1,62,96,30
1,62,0,30
1,62,108,31
1,62,0,44
1,74,116,318
1,74,0,42
1,74,108,21
1,74,0,47
1,74,116,68
1,74,0,33
1,67,105,689
1,67,0,33
1,65,96,0
1,65,0,22
1,67,98,9
1,67,0,56
1,65,102,9
1,65,0,32
1,69,100,27
1,69,0,79
1,74,116,871
1,74,0,60
1,74,116,21
1,74,0,43
1,67,111,540
1,67,0,28
1,65,95,5
1,65,0,26
1,67,100,0
1,67,0,45
1,65,111,16
1,65,0,27
1,67,116,33
1,67,0,38
1,72,105,143
1,72,0,29
1,69,111,39
1,69,0,78
1,74,116,819
1,74,0,37
1,74,122,22
1,74,0,36
1,74,122,24
1,74,0,37
1,74,113,25
1,74,0,41
1,74,127,25
1,74,0,37
1,67,116,78
1,67,0,22
1,67,116,32
1,67,0,34
1,67,116,24
1,67,0,37
1,65,116,24
1,65,0,38
1,67,111,23
1,67,0,72
1,74,108,293
1,74,0,34
1,72,98,23
1,72,0,31
1,74,116,25
1,74,0,42
1,72,111,19
1,72,0,36
1,74,116,23
1,74,0,37
1,69,108,37
1,69,0,26
1,69,111,23
1,69,0,36
1,67,111,20
1,67,0,39
1,65,105,18
1,65,0,36
1,67,111,27
1,67,0,46
1,65,111,17
1,65,0,102
1,74,127,153
1,74,0,21
1,74,116,25
1,74,0,36
1,74,116,21
1,74,0,35
1,74,116,676
1,74,0,37
1,74,116,31
1,74,0,41
1,72,98,16
1,72,0,37
1,74,122,23
1,74,0,39
1,74,113,25
1,74,0,38
1,74,116,25
1,74,0,47
1,65,108,2707
1,65,0,100
1,62,116,26
1,62,0,190
1,60,111,409
1,60,0,30
1,62,105,21
1,62,0,29
1,62,105,30
1,62,0,31
1,67,102,29
1,67,0,37
1,65,111,31
1,65,0,97
1,62,111,28
1,62,0,166
1,65,111,666
1,65,0,100
1,62,108,26
1,62,0,203
1,69,111,390
1,69,0,60
1,67,111,28
1,67,0,49
1,65,111,36
1,65,0,38
1,67,111,39
1,67,0,82
1,65,102,34
1,65,0,188
1,62,116,588
1,62,0,32
1,62,111,33
1,62,0,41
1,65,98,141
1,65,0,167
1,62,111,66
1,62,0,33
1,62,111,30
1,62,0,42
1,62,111,373
1,62,0,31
1,62,111,33
1,62,0,35
1,65,111,149
1,65,0,187
1,62,105,47
1,62,0,33
1,62,102,32
1,62,0,49
1,62,102,360
1,62,0,31
1,62,111,36
1,62,0,41
1,65,108,138
1,65,0,198
1,62,102,41
1,62,0,36
1,62,111,28
1,62,0,42
1,62,105,370
1,62,0,29
1,62,102,35
1,62,0,36
1,65,105,151
1,65,0,194
1,62,116,47
1,62,0,31
1,62,116,33
1,62,0,41
2,26,109,1950
2,26,0,180
2,36,106,9
2,36,0,26
2,37,89,5
2,37,0,24
2,38,94,8
2,38,0,27
2,33,96,35
2,33,0,48
2,31,106,64
2,31,0,189
2,29,94,46
2,29,0,21
2,30,85,5
2,30,0,24
2,31,90,6
2,31,0,45
2,33,96,76
2,33,0,93
2,26,114,33
2,26,0,165
2,36,106,10
2,36,0,19
2,37,80,11
2,37,0,23
2,38,91,2
2,38,0,30
2,33,103,43
2,33,0,23
2,31,114,96
2,31,0,175
2,29,98,50
2,29,0,21
2,30,88,10
2,30,0,23
2,31,98,8
2,31,0,62
2,33,109,65
2,33,0,64
2,26,106,57
2,26,0,161
2,36,103,14
2,36,0,22
2,37,85,9
2,37,0,24
2,38,90,3
2,38,0,30
2,33,96,40
2,33,0,66
2,31,114,52
2,31,0,189
2,29,96,47
2,29,0,21
2,30,83,6
2,30,0,23
2,31,96,6
2,31,0,65
2,33,106,61
2,33,0,79
2,26,106,49
2,26,0,158
2,36,109,12
2,36,0,20
2,37,87,9
2,37,0,24
2,38,94,4
2,38,0,42
2,33,103,29
2,33,0,72
2,31,114,47
2,31,0,184
2,29,106,51
2,29,0,24
2,30,90,6
2,30,0,24
2,31,103,5
2,31,0,76
2,33,114,48
2,33,0,81
2,26,114,43
2,26,0,165
2,36,103,8
2,36,0,17
2,37,91,12
2,37,0,23
2,38,98,7
2,38,0,34
2,33,114,36
2,33,0,58
2,31,120,60
2,31,0,191
2,29,100,40
2,29,0,24
2,30,90,5
2,30,0,23
2,31,96,6
2,31,0,73
2,33,114,53
2,33,0,68
2,26,109,59
2,26,0,165
2,36,100,7
2,36,0,18
2,37,88,10
2,37,0,25
2,38,96,4
2,38,0,37
2,33,106,35
2,33,0,52
2,31,114,67
2,31,0,192
2,29,91,44
2,29,0,24
2,30,94,7
2,30,0,24
2,31,106,3
2,31,0,62
2,33,123,56
2,33,0,67
2,26,114,59
2,26,0,158
2,36,100,15
2,36,0,24
2,37,100,8
2,37,0,24
2,38,106,4
2,38,0,34
2,33,114,32
2,33,0,62
2,31,114,59
2,31,0,187
2,29,114,52
2,29,0,26
2,30,91,3
2,30,0,24
2,31,96,5
2,31,0,58
2,33,123,60
2,33,0,58
2,26,114,65
2,26,0,151
2,36,109,22
2,36,0,21
2,37,100,8
2,37,0,25
2,38,109,6
2,38,0,33
2,33,114,33
2,33,0,53
2,31,114,69
2,31,0,182
2,29,109,49
2,29,0,23
2,30,85,6
2,30,0,25
2,31,100,4
2,31,0,68
2,33,100,62
2,33,0,52
2,26,123,65
2,26,0,171
2,36,109,8
2,36,0,24
2,37,94,5
2,37,0,24
2,38,100,5
2,38,0,31
2,33,109,35
2,33,0,47
2,31,114,72
2,31,0,184
2,29,111,49
2,29,0,26
2,30,94,6
2,30,0,24
2,31,96,4
2,31,0,58
2,33,114,67
2,33,0,49
2,26,114,73
2,26,0,161
2,36,109,9
2,36,0,24
2,37,96,8
2,37,0,24
2,38,96,5
2,38,0,32
2,33,114,41
2,33,0,35
2,31,114,85
2,31,0,181
2,29,114,49
2,29,0,25
2,30,100,5
2,30,0,23
2,31,96,7
2,31,0,35
2,31,38,20
2,31,0,4
2,33,111,63
2,33,0,49
2,26,126,72
2,26,0,167
2,36,109,15
2,36,0,26
2,37,96,4
2,37,0,24
2,38,100,4
2,38,0,30
2,33,109,37
2,33,0,43
2,31,114,76
2,31,0,182
2,29,109,50
2,29,0,25
2,30,91,4
2,30,0,23
2,31,96,3
2,31,0,60
2,33,111,63
2,33,0,58
2,26,120,66
2,26,0,159
2,36,114,21
2,36,0,26
2,37,98,4
2,37,0,25
2,38,100,6
2,38,0,29
2,33,114,36
2,33,0,43
2,31,114,79
2,31,0,169
2,29,93,64
2,29,0,23
2,30,91,9
2,30,0,20
2,31,100,5
2,31,0,53
2,33,120,67
2,33,0,53
2,34,123,73
2,34,0,46
2,34,109,18
2,34,0,41
2,33,127,137
2,33,0,39
2,33,96,17
2,33,0,43
2,34,123,81
2,34,0,50
2,34,120,488
2,34,0,41
2,34,106,20
2,34,0,41
2,33,120,132
2,33,0,39
2,33,109,22
2,33,0,47
2,31,114,77
2,31,0,57
2,26,96,303
2,26,0,19
2,29,109,41
2,29,0,49
2,31,96,7
2,31,0,25
2,34,109,37
2,34,0,43
2,34,109,17
2,34,0,36
2,33,120,140
2,33,0,44
2,33,106,18
2,33,0,39
2,34,114,82
2,34,0,47
2,33,120,555
2,33,0,49
2,21,106,8
2,21,0,44
2,21,103,18
2,21,0,33
2,21,103,24
2,21,0,35
2,21,109,26
2,21,0,38
2,21,103,24
2,21,0,35
2,21,109,25
2,21,0,35
2,21,109,24
2,21,0,33
2,21,109,24
2,21,0,35
2,21,109,27
2,21,0,33
2,21,109,25
2,21,0,35
2,21,109,27
2,21,0,33
2,26,114,214
2,26,0,165
2,36,103,8
2,36,0,17
2,37,91,12
2,37,0,23
2,38,98,7
2,38,0,34
2,33,114,36
2,33,0,58
2,31,120,60
2,31,0,191
2,29,100,40
2,29,0,24
2,30,90,5
2,30,0,23
2,31,96,6
2,31,0,73
2,33,114,53
2,33,0,68
2,26,109,59
2,26,0,165
2,36,100,7
2,36,0,18
2,37,88,10
2,37,0,25
2,38,96,4
2,38,0,37
2,33,106,35
2,33,0,52
2,31,114,67
2,31,0,192
2,29,91,44
2,29,0,24
2,30,94,7
2,30,0,24
2,31,106,3
2,31,0,62
2,33,123,56
2,33,0,67
2,26,114,59
2,26,0,165
2,36,103,8
2,36,0,17
2,37,91,12
2,37,0,23
2,38,98,7
2,38,0,34
