track,note,velocity,time
1,67,111,7812
1,67,0,30
1,67,97,20
1,67,0,38
1,65,97,22
1,65,0,51
1,67,108,71
1,67,0,32
1,67,88,20
1,67,0,43
1,65,93,20
1,65,0,41
1,69,103,29
1,69,0,40
1,62,111,79
1,62,0,39
1,65,106,69
1,65,0,107
1,67,100,15
1,67,0,39
1,65,100,147
1,65,0,44
1,62,100,14
1,62,0,32
1,65,100,31
1,65,0,41
1,62,106,18
1,62,0,32
1,65,91,28
1,65,0,38
1,62,106,19
1,62,0,26
1,70,86,34
1,70,0,37
1,67,97,25
1,67,0,183
1,67,106,355
1,67,0,42
1,65,95,15
1,65,0,34
1,67,100,29
1,67,0,42
1,65,87,16
1,65,0,27
1,67,97,39
1,67,0,101
1,65,87,16
1,65,0,35
1,69,103,30
1,69,0,60
1,62,93,62
1,62,0,43
1,65,93,70
1,65,0,100
1,67,97,17
1,67,0,42
1,65,97,132
1,65,0,44
1,62,91,18
1,62,0,32
1,65,91,31
1,65,0,34
1,62,97,31
1,62,0,32
1,65,88,30
1,65,0,34
1,62,100,27
1,62,0,28
1,70,76,29
1,70,0,38
1,67,93,27
1,67,0,171
1,67,97,119
1,67,0,32
1,67,100,32
1,67,0,35
1,70,93,26
1,70,0,46
1,67,100,15
1,67,0,37
1,72,93,27
1,72,0,66
1,72,97,51
1,72,0,58
1,70,93,62
1,70,0,42
1,69,88,21
1,69,0,36
1,67,103,23
1,67,0,35
1,67,106,25
1,67,0,99
1,67,106,23
1,67,0,45
1,67,111,189
1,67,0,34
1,70,97,23
1,70,0,47
1,67,97,16
1,67,0,36
1,72,91,27
1,72,0,61
1,72,87,60
1,72,0,52
1,70,91,64
1,70,0,44
1,69,88,14
1,69,0,37
1,67,106,26
1,67,0,39
1,67,106,25
1,67,0,154
1,67,111,203
1,67,0,37
1,70,97,26
1,70,0,43
1,67,95,14
1,67,0,31
1,72,93,28
1,72,0,61
1,72,93,56
1,72,0,61
1,74,100,57
1,74,0,40
1,72,93,19
1,72,0,43
1,70,88,17
1,70,0,31
1,74,106,33
1,74,0,112
1,70,91,14
1,70,0,61
1,72,95,296
1,72,0,106
1,70,87,14
1,70,0,33
1,72,100,27
1,72,0,39
1,70,88,17
1,70,0,34
1,72,95,25
1,72,0,43
1,70,88,17
1,70,0,39
1,74,97,83
1,74,0,108
1,70,85,8
1,70,0,36
1,72,93,24
1,72,0,39
1,70,86,22
1,70,0,35
1,72,100,27
1,72,0,108
1,70,88,15
1,70,0,38
1,72,91,22
1,70,84,107
1,72,0,4
1,70,0,24
1,67,85,0
1,67,0,161
1,74,93,546
1,74,0,49
1,72,91,10
1,72,0,69
1,72,97,51
1,72,0,76
1,70,100,52
1,70,0,95
1,74,93,561
1,74,0,37
1,72,106,22
1,72,0,42
1,70,93,16
1,70,0,37
1,72,91,24
1,72,0,67
1,70,106,54
1,70,0,83
1,74,106,523
1,74,0,77
1,72,106,37
1,72,0,73
1,72,93,39
1,72,0,78
1,70,106,51
1,70,0,76
1,67,106,4547
1,67,0,89
1,65,91,15
1,65,0,31
1,67,111,33
1,67,0,43
1,65,93,16
1,65,0,39
1,67,106,24
1,67,0,33
1,67,106,24
1,67,0,42
1,65,103,20
1,65,0,38
1,69,91,23
1,69,0,52
1,62,106,66
1,62,0,39
1,65,97,77
1,65,0,99
1,67,91,18
1,67,0,43
1,67,97,84
1,67,0,38
1,65,106,26
1,65,0,39
1,62,97,18
1,62,0,31
1,65,93,29
1,65,0,36
1,62,97,27
1,62,0,34
1,65,93,26
1,65,0,33
1,62,100,24
1,62,0,33
1,70,86,29
1,70,0,36
1,67,95,26
1,67,0,148
1,67,106,389
1,67,0,46
1,65,85,12
1,65,0,35
1,67,100,28
1,67,0,44
1,65,87,13
1,65,0,32
1,67,100,29
1,67,0,34
1,67,97,26
1,67,0,39
1,65,97,20
1,65,0,34
1,69,93,25
1,69,0,92
1,62,106,24
1,62,0,28
1,62,111,35
1,62,0,38
1,65,97,27
1,65,0,96
1,67,100,19
1,67,0,46
1,65,106,140
1,65,0,45
1,62,100,15
1,62,0,29
1,65,97,26
1,65,0,41
1,62,95,16
1,62,0,29
1,70,103,38
1,70,0,61
1,69,93,24
1,69,0,50
1,67,100,28
1,67,0,48
1,67,91,29
1,67,0,112
1,67,97,124
1,67,0,40
1,67,100,24
1,67,0,42
1,70,100,20
1,70,0,52
1,67,100,13
1,67,0,32
1,72,93,22
1,72,0,74
1,72,97,41
1,72,0,69
1,70,93,49
1,70,0,45
1,69,95,19
1,69,0,37
1,67,100,23
1,67,0,43
1,67,106,22
1,67,0,109
1,67,97,18
1,67,0,46
1,67,97,184
1,67,0,39
1,70,97,21
1,70,0,40
1,67,97,19
1,67,0,34
1,72,91,27
1,72,0,81
1,72,97,44
1,72,0,69
1,70,88,45
1,70,0,43
1,69,87,16
1,69,0,41
1,67,100,22
1,67,0,39
1,67,103,23
1,67,0,164
1,67,103,191
1,67,0,39
1,70,100,22
1,70,0,53
1,67,88,5
1,67,0,35
1,72,91,30
1,72,0,73
1,72,100,48
1,72,0,76
1,74,103,38
1,74,0,46
1,72,95,15
1,72,0,38
1,70,91,23
1,70,0,36
1,74,106,28
1,74,0,120
1,70,88,4
1,70,0,63
1,72,93,291
1,72,0,109
1,70,93,12
1,70,0,38
1,72,97,21
1,72,0,43
1,70,85,14
1,70,0,35
1,72,95,25
1,72,0,46
1,70,95,15
1,70,0,38
1,74,106,84
1,74,0,105
1,70,91,12
1,70,0,40
1,72,95,21
1,72,0,42
1,70,88,19
1,70,0,37
1,72,100,26
1,72,0,107
1,70,85,20
1,70,0,36
1,72,91,20
1,72,0,94
1,70,82,3
1,70,0,26
1,67,87,0
1,67,0,148
1,74,93,563
1,74,0,48
1,72,91,15
1,72,0,52
1,72,93,66
1,72,0,66
1,70,93,56
1,70,0,77
1,74,91,591
1,74,0,43
1,72,88,20
1,72,0,42
1,70,88,14
1,70,0,44
1,72,93,19
1,72,0,71
1,70,95,40
1,70,0,86
1,74,93,570
1,74,0,40
1,72,97,20
1,72,0,57
1,72,100,64
1,72,0,68
1,70,93,55
1,70,0,75
1,74,117,8508
1,74,0,31
1,74,123,79
1,74,0,30
1,74,117,88
1,74,0,28
1,74,126,87
1,74,0,35
1,74,117,222
1,74,0,72
1,72,117,107
1,72,0,33
1,72,127,82
1,72,0,51
1,74,117,68
1,74,0,44
1,74,111,683
1,74,0,41
1,74,111,77
1,74,0,33
1,74,111,86
1,74,0,30
1,74,126,91
1,74,0,30
1,74,111,3
1,74,0,93
1,72,97,98
1,72,0,46
1,72,93,70
1,72,0,49
1,74,108,80
1,74,0,43
1,67,106,367
1,67,0,33
1,67,106,26
1,67,0,35
1,70,93,26
1,70,0,48
1,67,97,15
1,67,0,34
1,72,97,29
1,72,0,63
1,72,93,49
1,72,0,59
1,70,97,66
1,70,0,38
1,69,90,22
1,69,0,35
1,67,111,20
1,67,0,41
1,67,100,24
1,67,0,112
1,67,93,17
1,67,0,40
1,67,93,195
1,67,0,34
1,70,95,21
1,70,0,46
1,67,100,9
1,67,0,32
1,72,93,27
1,72,0,71
1,72,97,52
1,72,0,55
1,70,93,64
1,70,0,49
1,69,87,14
1,69,0,38
1,67,100,25
1,67,0,42
1,67,97,22
1,67,0,78
1,67,97,269
1,67,0,39
1,70,97,23
1,70,0,43
1,67,97,19
1,67,0,38
1,72,93,22
1,72,0,62
1,72,97,63
1,72,0,49
1,74,93,64
1,74,0,38
1,72,93,19
1,72,0,45
1,70,88,20
1,70,0,35
1,74,93,30
1,74,0,111
1,70,100,16
1,70,0,51
1,72,93,300
1,72,0,107
1,70,91,10
1,70,0,38
1,72,91,21
1,72,0,50
1,70,86,15
1,70,0,35
1,72,91,25
1,72,0,46
1,70,93,15
1,70,0,64
1,72,100,63
1,70,95,12
1,72,0,1
1,70,0,40
1,72,85,14
1,72,0,46
1,70,91,10
1,70,0,35
1,72,93,25
1,72,0,104
1,70,91,13
1,70,0,34
1,72,95,24
1,72,0,102
1,70,88,2
1,70,0,28
1,67,97,2
1,67,0,184
1,74,106,523
1,74,0,39
1,72,91,20
1,72,0,41
1,70,93,20
1,70,0,38
1,72,93,24
1,72,0,70
1,70,106,57
1,70,0,75
1,70,100,579
1,70,0,38
1,72,93,24
1,72,0,60
1,72,87,57
1,72,0,64
1,70,106,60
1,70,0,73
1,74,111,525
1,74,0,55
1,72,97,26
1,72,0,52
1,70,93,29
1,70,0,55
1,72,100,25
1,72,0,71
1,70,106,46
1,70,0,86
1,67,103,4593
1,67,0,36
1,67,106,25
1,67,0,37
1,65,97,20
1,65,0,47
1,67,111,70
1,67,0,29
1,67,95,25
1,67,0,40
1,65,91,26
1,65,0,40
1,69,91,22
1,69,0,57
1,62,111,61
1,62,0,31
1,62,106,31
1,62,0,37
1,65,97,24
1,65,0,103
1,67,91,16
1,67,0,38
1,67,100,77
1,67,0,36
1,65,106,29
1,65,0,42
1,62,91,18
1,62,0,30
1,65,97,29
1,65,0,35
1,62,97,25
1,62,0,30
1,65,95,32
1,65,0,36
1,62,97,27
1,62,0,28
1,70,97,33
1,70,0,33
1,67,111,35
1,67,0,56
1,65,100,356
1,65,0,27
1,67,106,34
1,67,0,94
1,65,90,18
1,65,0,30
1,67,106,31
1,67,0,35
1,65,93,23
1,65,0,28
1,67,106,36
1,67,0,91
1,65,91,26
1,65,0,29
1,69,103,49
1,69,0,31
1,62,103,86
1,62,0,26
1,65,103,85
1,65,0,100
1,67,97,23
1,67,0,36
1,67,106,78
1,67,0,35
1,65,97,30
1,65,0,38
1,62,111,19
1,62,0,28
1,65,106,33
1,65,0,38
1,70,97,77
1,70,0,43
1,69,93,18
1,69,0,41
1,67,91,18
1,67,0,32
1,67,97,32
1,67,0,107
1,67,97,142
1,67,0,71
1,67,106,38
1,67,0,35
1,70,93,21
1,70,0,43
1,67,93,19
1,67,0,31
1,72,97,28
1,72,0,73
1,72,95,47
1,72,0,65
1,70,93,52
1,70,0,44
1,69,88,18
1,69,0,42
1,67,100,20
1,67,0,41
1,67,93,24
1,67,0,100
1,67,100,23
1,67,0,40
1,67,97,201
1,67,0,35
1,70,91,20
1,70,0,41
1,67,97,15
1,67,0,34
1,72,91,31
1,72,0,68
1,72,93,51
1,72,0,74
1,74,97,45
1,74,0,46
1,72,100,17
1,72,0,41
1,70,86,19
1,70,0,36
1,74,106,25
1,74,0,222
1,67,97,139
1,67,0,40
1,70,97,19
1,70,0,40
1,67,97,15
1,67,0,29
1,72,97,32
1,72,0,59
1,72,91,63
1,72,0,70
1,74,100,54
1,74,0,45
1,72,88,10
1,72,0,49
1,70,91,10
1,70,0,39
1,74,100,23
1,74,0,116
1,70,93,12
1,70,0,60
1,72,93,294
1,72,0,103
1,70,88,10
1,70,0,37
1,72,106,22
1,72,0,48
1,70,85,13
1,70,0,38
1,72,100,23
1,72,0,46
1,70,93,16
1,70,0,54
1,74,100,67
1,74,0,105
1,70,91,8
1,70,0,40
1,72,97,20
1,72,0,43
1,70,88,19
1,70,0,35
1,72,93,26
1,72,0,109
1,70,88,15
1,70,0,31
1,72,91,30
1,72,0,96
1,70,85,3
1,70,0,27
1,67,80,2
1,67,0,121
1,72,111,523
1,72,0,78
1,70,100,50
1,70,0,79
1,72,95,35
1,72,0,70
1,70,97,57
1,70,0,73
1,74,111,525
1,74,0,57
1,72,93,22
1,72,0,55
1,70,87,28
1,70,0,49
1,72,100,33
1,72,0,73
1,70,100,47
1,70,0,82
1,72,97,521
1,72,0,99
1,70,95,18
1,70,0,95
1,72,90,20
1,72,0,82
1,70,103,41
1,70,0,86
2,31,116,131
2,31,0,870
2,29,102,90
2,29,0,402
2,31,107,24
2,31,0,453
2,31,107,72
2,31,0,886
2,29,116,81
2,29,0,388
2,31,113,39
2,31,0,483
2,31,107,43
2,31,0,64
2,31,93,64
2,31,0,59
2,31,107,54
2,31,0,73
2,31,107,49
2,31,0,54
2,31,107,64
2,31,0,50
2,31,102,75
2,31,0,57
2,31,107,61
2,31,0,62
2,31,102,63
2,31,0,50
2,29,113,59
2,29,0,60
2,29,113,63
2,29,0,58
2,29,102,62
2,29,0,55
2,29,122,64
2,29,0,53
2,31,107,67
2,31,0,68
2,31,107,55
2,31,0,50
2,31,107,68
2,31,0,52
2,31,102,67
2,31,0,52
2,31,102,65
2,31,0,56
2,31,102,66
2,31,0,49
2,31,107,71
2,31,0,56
2,31,107,61
2,31,0,56
2,31,99,68
2,31,0,55
2,31,107,65
2,31,0,52
2,31,102,70
2,31,0,57
2,31,107,59
2,31,0,57
2,29,102,64
2,29,0,60
2,29,107,62
2,29,0,57
2,29,113,60
2,29,0,62
2,29,107,60
2,29,0,57
2,31,99,58
2,31,0,67
2,31,107,54
2,31,0,67
2,31,107,59
2,31,0,60
2,31,107,58
2,31,0,60
2,31,107,60
2,31,0,64
2,31,93,64
2,31,0,59
2,31,107,54
2,31,0,73
2,31,107,49
2,31,0,54
2,31,107,64
2,31,0,50
2,31,102,75
2,31,0,57
2,31,107,61
2,31,0,62
2,31,102,63
2,31,0,50
2,29,113,59
2,29,0,60
2,29,113,63
2,29,0,58
2,29,102,62
2,29,0,55
2,29,122,64
2,29,0,53
2,31,107,67
2,31,0,68
2,31,107,55
2,31,0,50
2,31,107,68
2,31,0,52
2,31,102,67
2,31,0,52
2,31,102,65
2,31,0,56
2,31,102,66
2,31,0,49
2,31,107,71
2,31,0,56
2,31,107,61
2,31,0,56
2,31,99,68
2,31,0,55
2,31,107,65
2,31,0,52
2,31,102,70
2,31,0,57
2,31,107,59
2,31,0,57
2,29,102,64
2,29,0,60
2,29,107,62
2,29,0,57
2,29,113,60
2,29,0,62
2,29,107,60
2,29,0,57
2,31,99,58
2,31,0,67
2,31,107,54
2,31,0,67
2,31,107,59
2,31,0,60
2,31,107,58
2,31,0,60
2,36,107,63
2,36,0,75
2,36,107,48
2,36,0,65
2,38,107,50
2,38,0,72
2,38,107,44
2,38,0,72
2,31,102,49
2,31,0,74
2,31,102,50
2,31,0,69
2,31,102,47
2,31,0,66
2,31,107,53
2,31,0,68
2,36,107,57
2,36,0,73
2,36,107,45
2,36,0,70
2,38,107,48
2,38,0,74
2,38,113,45
2,38,0,71
2,31,107,51
2,31,0,72
2,31,102,54
2,31,0,58
2,31,89,55
2,31,0,71
2,31,107,50
2,31,0,64
2,36,107,60
2,36,0,68
2,36,107,54
2,36,0,60
2,38,102,49
2,38,0,69
2,38,107,50
2,38,0,63
2,31,107,59
2,31,0,69
2,31,107,57
2,31,0,65
2,31,99,55
2,31,0,62
2,31,107,58
2,31,0,56
2,36,116,61
2,36,0,407
2,38,116,24
2,38,0,514
2,31,107,24
2,31,0,64
2,34,113,244
2,34,0,67
2,36,107,55
2,36,0,409
2,31,107,124
2,31,0,125
2,34,119,181
2,34,0,59
2,36,107,59
2,36,0,448
2,31,107,84
2,31,0,104
2,34,119,206
2,34,0,66
2,36,119,54
2,36,0,477
2,31,122,47
2,31,0,84
2,34,122,227
2,34,0,67
2,36,102,56
2,36,0,252
2,26,102,33
2,26,0,209
2,31,107,32
2,31,0,64
2,31,93,64
2,31,0,59
2,31,107,54
2,31,0,73
2,31,107,49
2,31,0,54
2,31,107,64
2,31,0,50
2,31,102,75
2,31,0,57
2,31,107,61
2,31,0,62
2,31,102,63
2,31,0,50
2,29,113,59
2,29,0,60
2,29,113,63
2,29,0,58
2,29,102,62
2,29,0,55
2,29,122,64
2,29,0,53
2,31,107,67
2,31,0,68
2,31,107,55
2,31,0,50
2,31,107,68
2,31,0,52
2,31,102,67
2,31,0,52
2,31,102,65
2,31,0,56
2,31,102,66
2,31,0,49
2,31,107,71
2,31,0,56
2,31,107,61
2,31,0,56
2,31,99,68
2,31,0,55
2,31,107,65
2,31,0,52
2,31,102,70
2,31,0,57
2,31,107,59
2,31,0,57
2,29,102,64
2,29,0,60
2,29,107,62
2,29,0,57
2,29,113,60
2,29,0,62
