track,note,velocity,time
1,69,120,3180
1,69,0,60
1,69,120,0
1,69,0,60
1,69,120,0
1,69,120,90
1,69,0,29
1,69,0,1
1,70,120,0
1,70,0,60
1,69,120,0
1,69,0,90
1,67,120,0
1,67,0,29
1,65,120,1
1,65,0,60
1,69,120,0
1,69,0,180
1,69,120,0
1,69,0,60
1,70,120,0
1,70,0,60
1,69,120,0
1,69,0,60
1,67,120,0
1,67,0,60
1,65,120,0
1,65,0,60
1,67,120,0
1,67,0,150
1,67,120,30
1,67,0,29
1,67,120,1
1,67,0,29
1,67,120,1
1,67,0,60
1,67,120,0
1,67,0,60
1,65,120,0
1,65,0,60
1,63,120,0
1,63,0,60
1,62,120,0
1,62,0,480
1,62,120,990
1,62,0,29
1,69,120,1
1,69,0,60
1,69,120,0
1,69,0,60
1,69,120,0
1,69,0,60
1,69,120,0
1,69,0,29
1,70,120,1
1,70,0,60
1,69,120,0
1,69,0,120
1,67,120,0
1,67,0,29
1,65,121,1
1,65,0,60
1,69,121,0
1,69,0,150
1,69,121,30
1,69,0,29
1,70,121,1
1,70,0,60
1,69,121,0
1,69,0,90
1,67,121,0
1,67,0,60
1,65,121,0
1,65,0,60
1,67,121,0
1,67,0,180
1,67,121,0
1,67,0,29
1,67,121,1
1,67,0,29
1,67,121,1
1,67,0,60
1,67,121,0
1,67,0,60
1,65,121,0
1,65,0,60
1,63,121,0
1,63,0,60
1,62,121,0
1,62,0,480
1,64,121,960
1,64,0,60
1,64,121,0
1,64,0,60
1,64,121,0
1,64,0,60
1,64,121,0
1,64,0,60
1,65,121,0
1,65,0,60
1,64,121,0
1,64,0,60
1,62,121,0
1,62,0,60
1,60,121,0
1,60,0,29
1,64,121,1
1,64,0,180
1,64,121,30
1,64,0,29
1,64,121,1
1,64,0,29
1,65,121,1
1,65,0,60
1,64,121,0
1,64,0,60
1,62,121,0
1,62,0,60
1,60,121,0
1,60,0,60
1,67,121,0
1,67,0,120
1,69,121,0
1,69,0,60
1,70,121,0
1,70,0,300
1,69,121,0
1,69,0,60
1,69,121,0
1,69,0,60
1,69,121,0
1,69,0,60
1,69,121,0
1,69,0,29
1,70,121,1
1,70,0,60
1,69,121,0
1,69,0,120
1,67,121,0
1,67,0,29
1,65,121,1
1,65,0,60
1,69,121,0
1,69,0,240
1,69,121,0
1,69,0,120
1,71,121,0
1,71,0,120
1,72,121,0
1,72,0,60
1,72,121,0
1,72,0,60
1,72,121,0
1,72,0,60
1,71,121,0
1,71,0,29
1,74,121,1
1,74,0,60
1,72,121,0
1,72,0,150
1,69,121,0
1,69,0,29
1,71,121,1
1,71,0,29
1,72,121,1
1,72,0,60
1,72,121,0
1,72,0,60
1,72,121,0
1,72,0,60
1,71,121,0
1,71,0,29
1,74,121,1
1,74,0,60
1,72,121,0
1,72,0,150
1,69,121,0
1,69,0,29
1,71,121,1
1,71,0,29
1,72,121,1
1,72,0,60
1,72,121,0
1,72,0,29
1,72,121,1
1,72,0,150
1,74,121,0
1,74,0,60
1,72,121,0
1,72,0,29
1,72,121,1
1,72,0,60
1,74,121,0
1,74,0,90
1,76,121,0
1,76,0,360
1,77,122,0
1,77,0,120
1,79,122,0
1,79,0,750
1,69,122,570
1,69,0,60
1,69,122,0
1,69,0,60
1,69,122,0
1,69,122,90
1,69,0,29
1,69,0,1
1,70,122,0
1,70,0,60
1,69,122,0
1,69,0,90
1,67,122,0
1,67,0,29
1,65,122,1
1,65,0,60
1,69,122,0
1,69,0,180
1,69,122,0
1,69,0,60
1,70,122,0
1,70,0,60
1,69,122,0
1,69,0,60
1,67,122,0
1,67,0,60
1,65,122,0
1,65,0,60
1,67,122,0
1,67,0,150
1,67,122,30
1,67,0,29
1,67,122,1
1,67,0,29
1,67,122,1
1,67,0,60
1,67,122,0
1,67,0,60
1,65,122,0
1,65,0,60
1,63,122,0
1,63,0,60
1,62,122,0
1,62,0,480
1,62,122,990
1,62,0,29
1,69,122,1
1,69,0,60
1,69,122,0
1,69,0,60
1,69,122,0
1,69,0,60
1,69,122,0
1,69,0,29
1,70,122,1
1,70,0,60
1,69,122,0
1,69,0,120
1,67,122,0
1,67,0,29
1,65,122,1
1,65,0,60
1,69,122,0
1,69,0,150
1,69,122,30
1,69,0,29
1,70,122,1
1,70,0,60
1,69,122,0
1,69,0,90
1,67,122,0
1,67,0,60
1,65,122,0
1,65,0,60
1,67,122,0
1,67,0,180
1,67,122,0
1,67,0,29
1,67,122,1
1,67,0,29
1,67,122,1
1,67,0,60
1,67,122,0
1,67,0,60
1,65,122,0
1,65,0,60
1,63,122,0
1,63,0,60
1,62,122,0
1,62,0,480
1,64,123,960
1,64,0,60
1,64,123,0
1,64,0,60
1,64,123,0
1,64,0,60
1,64,123,0
1,64,0,60
1,65,123,0
1,65,0,60
1,64,123,0
1,64,0,60
1,62,123,0
1,62,0,60
1,60,123,0
1,60,0,29
1,64,123,1
1,64,0,180
1,64,123,30
1,64,0,29
1,64,123,1
1,64,0,29
1,65,123,1
1,65,0,60
1,64,123,0
1,64,0,60
1,62,123,0
1,62,0,60
1,60,123,0
1,60,0,60
1,67,123,0
1,67,0,120
1,69,123,0
1,69,0,60
1,70,123,0
1,70,0,300
1,69,123,0
1,69,0,60
1,69,123,0
1,69,0,60
1,69,123,0
1,69,0,60
1,69,123,0
1,69,0,29
1,70,123,1
1,70,0,60
1,69,123,0
1,69,0,120
1,67,123,0
1,67,0,29
1,65,123,1
1,65,0,60
1,69,123,0
1,69,0,240
1,69,123,0
1,69,0,120
1,71,123,0
1,71,0,120
1,72,123,0
1,72,0,60
1,72,123,0
1,72,0,60
1,72,123,0
1,72,0,60
1,71,123,0
1,71,0,29
1,74,123,1
1,74,0,60
1,72,123,0
1,72,0,150
1,69,123,0
1,69,0,29
1,71,123,1
1,71,0,29
1,72,123,1
1,72,0,60
1,72,123,0
1,72,0,60
1,72,123,0
1,72,0,60
1,71,123,0
1,71,0,29
1,74,123,1
1,74,0,60
1,72,123,0
1,72,0,150
1,69,123,0
1,69,0,29
1,71,123,1
1,71,0,29
1,72,123,1
1,72,0,60
1,72,123,0
1,72,0,29
1,72,123,1
1,72,0,150
1,74,123,0
1,74,0,60
1,72,123,0
1,72,0,29
1,72,123,1
1,72,0,60
1,74,123,0
1,74,0,90
1,76,123,0
1,76,0,360
1,77,123,0
1,77,0,120
1,79,123,0
1,79,0,750
1,69,124,4290
1,69,0,60
1,69,124,0
1,69,0,60
1,69,124,0
1,69,0,60
1,69,124,0
1,69,0,60
1,69,124,0
1,69,0,60
1,67,124,0
1,67,0,120
1,65,124,0
1,65,0,29
1,67,124,1
1,67,0,29
1,69,124,1
1,69,0,300
1,67,124,0
1,67,0,60
1,65,124,0
1,65,0,60
1,67,124,0
1,67,0,60
1,69,124,0
1,65,124,180
1,69,0,30
1,65,0,30
1,67,124,0
1,67,0,630
1,67,124,90
1,67,0,60
1,67,124,0
1,67,0,60
1,67,124,0
1,67,0,60
1,67,124,0
1,67,0,60
1,67,124,0
1,67,0,60
1,65,124,0
1,64,124,90
1,64,0,29
1,65,0,1
1,65,124,0
1,65,0,60
1,67,124,0
1,67,0,270
1,65,124,30
1,65,0,60
1,64,124,0
1,64,0,60
1,65,125,0
1,65,0,60
1,67,125,0
1,67,0,180
1,60,125,0
1,60,0,60
1,65,125,0
1,69,125,600
1,65,0,30
1,69,0,30
1,72,125,0
1,72,0,60
1,74,125,0
1,74,0,120
1,74,125,0
1,74,0,60
1,74,125,0
1,74,0,60
1,74,125,0
1,74,0,150
1,74,125,30
1,74,0,29
1,74,125,1
1,74,0,29
1,74,125,1
1,74,0,180
1,74,125,0
1,74,0,60
1,74,125,0
1,74,0,60
1,72,125,0
1,72,0,120
1,70,125,0
1,70,0,60
1,72,125,0
1,72,0,90
1,70,125,0
1,70,0,60
1,69,125,0
1,69,0,29
1,70,125,1
1,70,0,60
1,72,125,0
1,72,0,450
1,69,125,210
1,69,0,60
1,70,125,0
1,70,0,60
1,70,125,0
1,70,0,60
1,70,125,0
1,70,0,60
1,70,125,0
1,70,0,60
1,70,125,0
1,70,0,29
1,69,125,1
1,69,0,29
1,67,125,1
1,67,0,120
1,67,125,0
1,67,0,29
1,69,125,1
1,69,0,29
1,70,125,1
1,70,0,270
1,69,125,210
1,69,0,60
1,69,125,0
1,69,0,60
1,69,125,0
1,69,0,60
1,69,125,0
1,69,0,60
1,69,125,0
1,69,0,29
1,67,125,1
1,67,0,29
1,65,125,1
1,65,0,120
1,65,125,0
1,65,0,29
1,67,125,1
1,67,0,29
1,69,125,1
1,69,0,240
1,70,125,0
1,70,0,60
1,69,125,0
1,69,0,60
1,67,125,0
1,67,0,60
1,65,125,0
1,65,0,60
1,67,125,0
1,67,0,450
1,65,125,390
1,65,0,60
1,67,125,0
1,67,0,60
1,69,125,0
1,69,0,60
1,69,125,0
1,69,0,60
1,69,125,0
1,69,0,180
1,67,125,0
1,67,0,60
1,65,125,0
1,65,0,60
1,67,125,0
1,67,0,60
1,69,125,0
1,69,0,300
1,67,126,0
1,67,0,60
1,65,126,0
1,65,0,60
1,67,126,0
1,67,0,59
1,69,105,1
1,69,0,180
1,67,107,0
1,67,0,29
1,65,105,1
1,65,0,29
1,67,112,1
1,67,0,240
1,67,126,480
1,67,0,60
1,67,126,0
1,67,0,60
1,67,126,0
1,67,0,60
1,67,126,0
1,67,0,60
1,67,126,0
1,67,0,60
1,65,126,0
1,65,0,120
1,64,126,0
1,64,0,29
1,65,126,1
1,65,0,29
1,67,126,1
1,67,0,300
1,65,126,0
1,65,0,60
1,64,126,0
1,64,0,60
1,65,126,0
1,65,0,60
1,67,126,0
1,67,0,120
1,60,126,0
1,60,0,119
1,60,99,1
1,60,0,59
1,65,104,1
1,65,0,179
1,69,126,361
1,69,0,60
1,72,126,0
1,72,0,59
1,74,94,1
1,74,0,59
1,74,95,1
1,74,0,29
1,74,94,1
1,74,0,89
1,74,78,1
1,74,0,59
1,74,93,1
1,74,0,29
1,74,105,1
1,74,0,29
1,74,115,1
1,74,0,239
1,74,112,61
1,74,0,29
1,74,105,1
1,74,0,59
1,76,105,1
1,76,0,59
1,74,93,1
1,74,0,89
1,72,94,1
1,72,0,59
1,70,91,1
1,70,0,59
1,72,126,1
1,72,0,60
1,70,126,0
1,70,0,90
1,69,126,0
1,69,0,29
1,70,126,1
1,70,0,60
1,72,126,0
1,72,0,570
1,69,126,90
1,69,0,60
1,70,87,0
1,70,0,59
1,70,93,1
1,70,0,59
1,70,110,1
1,70,0,59
1,70,105,1
1,70,0,29
1,70,105,1
1,70,0,180
1,67,126,30
1,67,0,29
1,69,126,1
1,69,0,29
1,70,126,1
1,70,0,240
1,70,126,120
1,70,0,120
1,69,90,0
1,69,0,59
1,69,107,1
1,69,0,59
1,69,105,1
1,69,0,59
1,69,105,1
1,69,0,29
1,69,94,1
1,69,0,179
1,65,126,31
1,65,0,29
1,67,126,1
1,67,0,29
1,69,127,1
1,69,0,119
1,70,109,1
1,70,0,59
1,69,94,1
1,69,0,59
1,67,93,1
1,67,0,59
1,67,93,1
1,67,0,119
1,65,89,1
1,65,0,59
1,67,110,1
1,67,0,239
1,67,115,421
1,67,0,60
1,67,112,0
1,67,0,90
1,65,112,0
1,65,0,90
1,64,94,0
1,64,0,60
1,69,119,0
1,69,0,570
1,69,120,34710
1,69,0,60
1,69,120,0
1,69,0,60
1,69,120,0
1,69,0,60
1,69,120,0
1,69,0,60
1,70,120,0
1,70,0,60
1,69,120,0
1,69,0,120
1,67,120,0
1,67,0,29
1,65,120,1
1,65,0,29
1,69,120,1
1,69,0,150
1,69,120,30
1,69,0,29
1,69,120,1
1,69,0,29
1,70,120,1
1,70,0,60
1,69,120,0
1,69,0,60
1,67,120,0
1,67,0,60
1,65,120,0
1,65,0,60
1,72,120,0
1,72,0,120
1,74,120,0
1,74,0,60
1,75,120,0
1,75,0,300
1,74,121,0
1,74,0,60
1,74,121,0
1,74,0,60
1,74,121,0
1,74,0,60
1,74,121,0
1,74,0,29
1,75,121,1
1,75,0,60
1,74,121,0
1,74,0,150
1,72,121,0
1,72,0,29
1,70,121,1
1,70,0,29
1,74,121,1
1,74,0,240
1,74,121,0
1,74,0,120
1,76,121,0
1,76,0,120
1,77,122,0
1,77,0,60
1,77,122,0
1,77,0,60
1,77,122,0
1,76,122,60
1,77,0,1
1,76,0,28
1,79,122,1
1,79,0,60
1,77,122,0
1,77,0,150
1,74,122,0
1,74,0,29
1,76,122,1
1,76,0,29
1,77,122,1
1,77,0,60
1,77,122,0
1,77,0,60
1,77,122,0
1,77,0,60
1,76,122,0
1,76,0,29
1,79,122,1
1,79,0,60
1,77,122,0
1,74,122,120
1,74,0,30
1,77,0,0
1,76,122,0
1,76,0,60
1,77,122,0
1,77,0,60
1,77,122,0
1,77,0,60
1,77,122,0
1,77,0,60
1,76,122,0
1,76,0,29
1,79,122,1
1,79,0,60
1,77,123,0
1,77,0,90
1,77,123,0
1,77,0,60
1,79,123,0
1,79,0,60
1,81,123,0
1,81,0,360
1,82,123,0
1,82,0,120
1,84,123,0
1,84,0,720
1,86,124,120
1,86,0,60
1,81,124,0
1,81,0,60
1,86,124,0
1,86,0,29
1,87,124,1
1,87,0,29
1,84,124,1
1,84,0,719
1,77,125,421
1,77,0,450
1,77,125,30
1,77,0,240
1,77,126,0
1,77,0,120
1,77,126,0
1,77,0,90
1,82,126,30
1,82,0,540
2,74,120,0
2,81,120,0
2,77,120,0
2,77,0,59
2,81,0,0
2,74,0,0
2,69,120,1
2,69,0,59
2,77,120,1
2,74,120,0
2,81,120,0
2,81,0,59
2,74,0,0
2,77,0,0
2,69,120,1
2,69,0,29
2,74,120,1
2,82,120,0
2,77,120,0
2,77,0,59
2,82,0,0
2,74,0,0
2,69,120,1
2,69,0,29
2,81,120,1
2,74,120,0
2,77,120,0
2,77,0,89
2,74,0,0
2,81,0,0
2,79,120,1
2,67,120,0
2,67,0,29
2,79,0,0
2,77,120,1
2,65,120,0
2,65,0,59
2,77,0,0
2,74,120,1
2,81,120,0
2,77,120,0
2,77,0,59
2,81,0,0
2,74,0,0
2,69,120,1
2,69,0,59
2,74,120,1
2,81,120,0
2,77,120,0
2,77,0,59
2,81,0,0
2,74,0,0
2,69,120,1
2,69,0,29
2,74,120,1
2,82,120,0
2,77,120,0
2,77,0,59
2,82,0,0
2,74,0,0
2,69,120,1
2,69,0,29
2,81,120,1
2,74,120,0
2,77,120,0
2,77,0,89
2,74,0,0
2,81,0,0
2,79,120,1
2,67,120,0
2,67,0,29
2,79,0,0
2,77,120,1
2,65,120,0
2,65,0,59
2,77,0,0
2,79,120,1
2,75,120,0
2,70,120,0
2,70,0,59
2,75,0,0
2,79,0,0
2,67,120,1
2,67,0,59
2,75,120,1
2,79,120,0
2,70,120,0
2,70,0,59
2,79,0,0
2,75,0,0
2,67,120,1
2,67,0,29
2,79,120,1
2,75,120,0
2,70,120,0
2,70,0,89
2,75,0,0
2,79,0,0
2,79,120,1
2,70,120,0
2,75,120,0
2,75,0,89
2,70,0,0
2,79,0,0
2,77,120,1
2,69,120,0
2,74,120,0
2,74,0,89
2,69,0,0
2,77,0,0
2,79,120,1
2,72,120,0
2,75,120,0
2,75,0,59
2,72,0,0
2,79,0,0
2,67,120,1
2,67,0,29
2,77,120,1
2,74,120,0
2,69,120,0
2,69,0,89
2,74,0,0
2,77,0,0
2,75,120,1
2,72,120,0
2,67,120,0
2,67,0,59
2,72,0,0
2,75,0,0
2,67,120,1
2,74,120,0
2,70,120,0
2,70,0,59
2,74,0,0
2,67,0,0
2,62,120,1
2,62,0,59
2,74,120,1
2,67,120,0
2,70,120,0
2,70,0,59
2,67,0,0
2,74,0,0
2,62,120,1
2,62,0,29
2,75,120,1
2,70,120,0
2,67,120,0
2,67,0,59
2,70,0,0
2,75,0,0
2,62,120,1
2,62,0,29
2,67,120,1
2,70,120,0
2,74,120,0
2,74,0,89
