track,note,velocity,time
1,40,80,8
1,40,0,19
1,40,80,23
1,40,0,34
1,42,80,17
1,42,0,27
1,43,80,17
1,43,0,27
1,45,80,24
1,45,0,50
1,47,80,19
1,47,0,39
1,40,80,41
1,40,0,78
1,40,80,17
1,40,0,30
1,42,80,14
1,42,0,26
1,43,80,18
1,43,0,26
1,45,80,24
1,45,0,54
1,47,80,23
1,47,0,31
1,38,80,40
1,38,0,80
1,40,80,16
1,40,0,31
1,103,79,539
1,101,86,3
1,103,0,1
1,100,79,2
1,101,0,1
1,98,84,2
1,100,0,1
1,96,84,2
1,98,0,1
1,95,81,2
1,96,0,1
1,93,84,2
1,95,0,1
1,91,88,2
1,93,0,1
1,89,95,2
1,91,0,1
1,88,90,2
1,89,0,1
1,86,89,2
1,88,0,1
1,84,85,2
1,86,0,1
1,83,85,2
1,84,0,1
1,81,89,2
1,83,0,1
1,79,89,2
1,81,0,1
1,71,92,0
1,74,86,0
1,77,82,2
1,79,0,1
1,71,0,1
1,74,0,0
1,76,88,1
1,77,0,1
1,76,0,3
1,72,86,2
1,72,0,4
1,86,84,2
1,84,84,3
1,86,0,1
1,83,81,2
1,84,0,1
1,81,84,2
1,83,0,1
1,79,88,2
1,81,0,1
1,77,95,2
1,79,0,1
1,76,90,2
1,77,0,1
1,74,89,2
1,76,0,1
1,72,85,2
1,74,0,1
1,71,85,2
1,72,0,1
1,69,89,2
1,71,0,1
1,67,89,2
1,69,0,1
1,86,84,0
1,67,0,3
1,84,84,0
1,86,0,1
1,83,81,2
1,84,0,1
1,81,84,2
1,83,0,1
1,79,88,2
1,81,0,1
1,77,95,2
1,79,0,1
1,76,90,2
1,77,0,1
1,74,89,2
1,76,0,1
1,72,85,2
1,74,0,1
1,71,85,2
1,72,0,1
1,69,89,2
1,71,0,1
1,67,89,2
1,69,0,1
1,67,0,3
1,55,65,1
1,55,0,30
1,55,65,14
1,55,0,32
1,52,65,15
1,52,0,39
1,50,65,12
1,50,0,38
1,55,65,15
1,55,0,37
1,50,65,109
1,52,65,25
1,50,0,2
1,55,65,20
1,52,0,2
1,55,0,22
1,55,65,25
1,55,0,22
1,52,65,27
1,52,0,38
1,50,65,7
1,50,0,18
1,59,65,30
1,59,0,31
1,57,65,16
1,57,0,37
1,55,65,12
1,55,0,79
1,60,65,21
1,60,0,27
1,60,65,13
1,60,0,34
1,57,65,18
1,57,0,32
1,55,65,12
1,55,0,36
1,60,65,13
1,60,0,36
1,55,65,130
1,57,65,15
1,55,0,10
1,60,65,5
1,57,0,5
1,60,0,18
1,60,65,26
1,60,0,23
1,57,65,23
1,57,0,37
1,55,65,8
1,55,0,15
1,64,65,30
1,64,0,38
1,62,65,10
1,62,0,35
1,60,65,13
1,60,0,46
1,59,65,6
1,59,0,21
1,40,80,8
1,40,0,19
1,40,80,23
1,40,0,34
1,42,80,17
1,42,0,27
1,43,80,17
1,43,0,27
1,45,80,24
1,45,0,50
1,47,80,19
1,47,0,39
1,40,80,41
1,40,0,78
1,40,80,17
1,40,0,30
1,42,80,14
1,42,0,26
1,43,80,18
1,43,0,26
1,45,80,24
1,45,0,54
1,47,80,23
1,47,0,31
1,38,80,40
1,38,0,80
1,40,80,16
1,40,0,31
1,103,79,539
1,101,86,3
1,103,0,1
1,100,79,2
1,101,0,1
1,98,84,2
1,100,0,1
1,96,84,2
1,98,0,1
1,95,81,2
1,96,0,1
1,93,84,2
1,95,0,1
1,91,88,2
1,93,0,1
1,89,95,2
1,91,0,1
1,88,90,2
1,89,0,1
1,86,89,2
1,88,0,1
1,84,85,2
1,86,0,1
1,83,85,2
1,84,0,1
1,81,89,2
1,83,0,1
1,79,89,2
1,81,0,1
1,71,92,0
1,74,86,0
1,77,82,2
1,79,0,1
1,71,0,1
1,74,0,0
1,76,88,1
1,77,0,1
1,76,0,3
1,72,86,2
1,72,0,4
1,86,84,2
1,84,84,3
1,86,0,1
1,83,81,2
1,84,0,1
1,81,84,2
1,83,0,1
1,79,88,2
1,81,0,1
1,77,95,2
1,79,0,1
1,76,90,2
1,77,0,1
1,74,89,2
1,76,0,1
1,72,85,2
1,74,0,1
1,71,85,2
1,72,0,1
1,69,89,2
1,71,0,1
1,67,89,2
1,69,0,1
1,67,0,3
2,28,92,386
2,28,0,10
2,28,92,38
2,28,0,10
2,28,92,38
2,28,0,10
2,28,92,38
2,28,0,10
2,28,92,38
2,28,0,10
2,28,92,38
2,28,0,10
2,28,92,38
2,28,0,10
2,28,92,38
2,28,0,10
2,28,92,38
2,28,0,10
2,28,92,38
2,28,0,10
2,28,92,38
2,28,0,10
2,28,92,38
2,28,0,10
2,28,92,38
2,28,0,10
2,28,92,38
2,28,0,10
2,28,92,38
2,28,0,10
2,28,92,38
2,28,0,10
2,28,92,38
2,28,0,10
2,28,92,38
2,28,0,10
2,28,92,38
2,28,0,10
2,28,92,38
2,28,0,10
2,28,92,38
2,28,0,10
2,28,92,38
2,28,0,10
2,28,92,38
2,28,0,10
2,28,92,38
2,28,0,10
2,28,92,38
2,28,0,10
2,28,92,38
2,28,0,10
2,28,92,38
2,28,0,10
2,28,92,38
2,28,0,10
2,28,92,38
2,28,0,10
2,28,92,38
2,28,0,10
2,28,92,38
2,28,0,10
2,28,92,38
2,28,0,10
2,28,92,38
2,28,0,10
2,28,92,38
2,28,0,10
2,28,92,38
2,28,0,10
2,28,92,38
2,28,0,10
2,28,92,38
2,28,0,10
2,28,92,38
2,28,0,10
2,28,92,38
2,28,0,10
2,28,92,38
2,28,0,10
2,28,92,38
2,28,0,10
2,28,92,38
2,28,0,10
2,28,92,38
2,28,0,10
2,28,92,38
2,28,0,10
2,28,92,38
2,28,0,10
2,28,92,38
2,28,0,10
2,28,92,38
2,28,0,10
2,28,92,38
2,28,0,10
2,28,92,38
2,28,0,10
2,28,92,38
2,28,0,10
2,28,92,38
2,28,0,10
2,28,92,38
2,28,0,10
2,28,92,38
2,28,0,10
2,28,92,38
2,28,0,10
2,28,92,38
2,28,0,10
2,28,92,38
2,28,0,10
2,28,92,38
2,28,0,10
2,28,92,38
2,28,0,10
2,28,92,38
2,28,0,10
2,28,92,38
2,28,0,10
2,28,92,38
2,28,0,10
2,28,92,38
2,28,0,10
2,28,92,38
2,28,0,10
2,28,92,38
2,28,0,10
2,40,92,36
2,40,0,25
2,40,92,20
2,40,0,34
2,35,92,18
2,35,0,26
2,38,92,18
2,38,0,27
2,40,92,26
2,40,0,30
2,40,92,62
2,40,0,50
2,33,92,50
2,33,0,24
2,33,92,22
2,33,0,29
2,31,92,19
2,31,0,32
2,28,92,14
2,28,0,28
2,33,92,24
2,33,0,32
2,33,92,60
2,33,0,65
2,38,92,39
2,38,0,20
2,38,92,22
2,38,0,30
2,33,92,20
2,33,0,28
2,36,92,19
2,36,0,23
2,38,92,28
2,38,0,29
2,38,92,67
2,38,0,61
2,38,92,40
2,38,0,22
2,38,92,19
2,38,0,25
2,33,92,25
2,33,0,33
2,36,92,13
2,36,0,25
2,38,92,19
2,38,0,26
2,38,92,19
2,38,0,34
2,39,92,17
2,39,0,27
2,39,92,24
2,39,0,31
2,40,92,20
2,40,0,24
2,40,92,18
2,40,0,31
2,35,92,21
2,35,0,30
2,38,92,17
2,38,0,28
2,40,92,23
2,40,0,32
2,40,92,63
2,40,0,63
2,33,92,32
2,33,0,29
2,33,92,26
2,33,0,29
2,31,92,10
2,31,0,31
2,28,92,18
2,28,0,22
2,33,92,28
2,33,0,28
2,33,92,66
2,33,0,56
2,38,92,44
2,38,0,23
2,38,92,21
2,38,0,28
2,33,92,23
2,33,0,21
2,35,92,21
2,35,0,27
2,38,92,24
2,38,0,29
2,38,92,67
2,38,0,58
2,38,92,46
2,38,0,24
2,38,92,14
2,38,0,28
2,33,92,23
2,33,0,26
2,36,92,17
2,36,0,27
2,38,92,21
2,38,0,26
2,38,92,21
2,38,0,33
2,39,92,20
2,39,0,25
2,39,92,24
2,39,0,21
2,42,92,29
2,40,92,2
2,40,0,29
2,42,0,1
2,42,92,14
2,42,0,35
2,38,92,16
2,38,0,31
2,40,92,16
2,40,0,34
2,42,92,13
2,42,0,41
2,42,92,59
2,42,0,47
2,42,92,50
2,42,0,29
2,42,92,18
2,42,0,33
2,38,92,14
2,38,0,35
2,40,92,11
2,40,0,37
2,42,92,10
2,42,0,66
2,42,92,32
2,42,0,66
2,40,92,32
2,40,0,27
2,40,92,20
2,40,0,33
2,35,92,14
2,35,0,32
2,38,92,14
2,38,0,35
2,40,92,13
2,40,0,43
2,40,92,56
2,40,0,54
2,40,92,40
2,40,0,15
2,40,92,32
2,40,0,21
2,35,92,26
2,35,0,33
2,38,92,14
2,38,0,34
2,40,92,17
2,40,0,45
2,40,92,46
2,40,0,65
2,40,92,36
2,40,0,27
2,40,92,21
2,40,0,28
2,35,92,21
2,35,0,29
2,38,92,11
2,38,0,39
2,40,92,13
2,40,0,45
2,40,92,48
2,40,0,81
2,40,92,27
2,40,0,21
2,40,92,22
2,40,0,32
2,35,92,14
2,35,0,32
2,38,92,10
2,38,0,36
2,40,92,12
2,40,0,90
2,40,92,13
2,40,0,71
2,33,92,31
2,33,0,19
2,33,92,23
2,33,0,37
2,31,92,12
2,31,0,37
2,28,92,6
2,28,0,36
2,33,92,16
2,33,0,33
2,33,92,57
2,33,0,45
2,33,92,55
2,33,0,21
2,33,92,27
2,33,0,29
2,28,92,18
2,28,0,28
2,31,92,20
2,31,0,36
2,33,92,17
2,33,0,49
2,33,92,42
2,33,0,59
2,40,92,36
2,40,0,25
2,40,92,20
2,40,0,34
2,35,92,18
2,35,0,26
2,38,92,18
2,38,0,27
2,40,92,26
2,40,0,30
2,40,92,62
2,40,0,50
2,33,92,50
2,33,0,24
2,33,92,22
2,33,0,29
2,31,92,19
2,31,0,32
2,28,92,14
2,28,0,28
2,33,92,24
2,33,0,32
2,33,92,60
2,33,0,65
2,38,92,39
2,38,0,20
2,38,92,22
2,38,0,30
2,33,92,20
2,33,0,28
2,36,92,19
2,36,0,23
2,38,92,28
2,38,0,29
2,38,92,67
2,38,0,61
2,38,92,40
2,38,0,22
2,38,92,19
2,38,0,25
2,33,92,25
2,33,0,33
2,36,92,13
2,36,0,25
2,38,92,19
2,38,0,26
2,38,92,19
2,38,0,34
2,39,92,17
2,39,0,27
2,39,92,24
2,39,0,31
2,40,92,20
2,40,0,24
2,40,92,18
2,40,0,31
2,35,92,21
2,35,0,30
2,38,92,17
2,38,0,28
2,40,92,23
2,40,0,32
2,40,92,63
2,40,0,63
2,33,92,32
2,33,0,29
2,33,92,26
2,33,0,29
2,31,92,10
2,31,0,31
2,28,92,18
2,28,0,22
2,33,92,28
2,33,0,28
2,33,92,66
2,33,0,56
2,38,92,44
2,38,0,23
2,38,92,21
2,38,0,28
2,33,92,23
2,33,0,21
2,35,92,21
2,35,0,27
2,38,92,24
2,38,0,29
2,38,92,67
2,38,0,58
2,38,92,46
2,38,0,24
2,38,92,14
2,38,0,28
2,33,92,23
2,33,0,26
2,36,92,17
2,36,0,27
2,38,92,21
2,38,0,26
2,38,92,21
2,38,0,33
2,39,92,20
2,39,0,25
2,39,92,24
2,39,0,21
2,40,92,31
2,42,92,4
2,42,0,20
2,40,0,5
2,42,92,14
2,42,0,30
2,38,92,21
2,38,0,27
2,40,92,21
2,40,0,27
2,42,92,20
2,42,0,60
2,42,92,37
2,42,0,63
2,42,92,36
2,42,0,20
2,42,92,26
2,42,0,22
2,38,92,27
2,38,0,29
2,40,92,18
2,40,0,27
2,42,92,20
2,42,0,65
2,42,92,31
2,42,0,60
2,40,92,33
2,40,0,31
2,40,92,19
2,40,0,31
2,35,92,18
2,35,0,26
2,38,92,18
2,38,0,37
2,40,92,15
2,40,0,42
2,40,92,50
2,40,0,59
2,40,92,39
2,40,0,21
2,40,92,27
2,40,0,21
2,35,92,27
2,35,0,32
2,38,92,15
2,38,0,36
2,40,92,15
2,40,0,51
2,40,92,43
2,40,0,59
2,40,92,38
2,40,0,25
2,40,92,21
2,40,0,28
2,35,92,23
2,35,0,32
2,38,92,15
2,38,0,33
2,40,92,15
2,40,0,51
2,40,92,39
2,40,0,70
2,40,92,33
2,40,0,26
2,40,92,22
2,40,0,24
2,35,92,20
2,35,0,29
2,38,92,16
2,38,0,38
2,40,92,17
2,40,0,67
2,40,92,28
2,40,0,57
2,33,92,37
2,33,0,24
2,33,92,25
2,33,0,35
2,28,92,15
2,28,0,28
2,31,92,16
2,31,0,39
2,33,92,14
2,33,0,53
2,33,92,43
2,33,0,60
2,33,92,35
2,33,0,11
2,33,92,32
2,33,0,40
2,28,92,14
2,28,0,31
2,31,92,13
2,31,0,39
2,33,92,12
2,33,0,52
2,33,92,43
2,33,0,63
2,40,92,30
2,40,0,25
2,40,92,20
2,40,0,34
2,35,92,18
2,35,0,26
2,38,92,18
2,38,0,27
2,40,92,26
2,40,0,30
2,40,92,62
2,40,0,50
2,33,92,50
2,33,0,24
2,33,92,22
2,33,0,29
2,31,92,19
2,31,0,32
2,28,92,14
2,28,0,28
2,33,92,24
2,33,0,32
2,33,92,60
2,33,0,65
2,38,92,39
2,38,0,20
2,38,92,22
2,38,0,30
2,33,92,20
2,33,0,28
2,36,92,19
2,36,0,23
2,38,92,28
2,38,0,29
2,38,92,67
2,38,0,61
2,38,92,40
2,38,0,22
2,38,92,19
2,38,0,25
2,33,92,25
2,33,0,33
2,36,92,13
2,36,0,25
2,38,92,19
2,38,0,26
2,38,92,19
2,38,0,34
2,39,92,17
2,39,0,27
2,39,92,24
2,39,0,31
2,40,92,20
2,40,0,24
2,40,92,18
2,40,0,31
2,35,92,21
2,35,0,30
2,38,92,17
2,38,0,28
2,40,92,23
2,40,0,32
2,40,92,63
2,40,0,63
2,33,92,32
2,33,0,29
2,33,92,26
2,33,0,29
2,31,92,10
2,31,0,31
2,28,92,18
2,28,0,22
2,33,92,28
2,33,0,28
2,33,92,66
2,33,0,56
2,38,92,44
2,38,0,23
2,38,92,21
2,38,0,28
2,33,92,23
2,33,0,21
2,35,92,21
2,35,0,27
2,38,92,24
2,38,0,29
2,38,92,67
2,38,0,58
2,38,92,46
2,38,0,24
2,38,92,14
2,38,0,28
2,33,92,23
2,33,0,26
2,36,92,17
2,36,0,27
2,38,92,21
2,38,0,26
2,38,92,21
2,38,0,33
2,39,92,20
2,39,0,25
2,39,92,24
2,39,0,21
2,42,92,29
2,40,92,2
2,42,0,24
2,40,0,5
2,42,92,16
2,42,0,33
2,38,92,18
2,38,0,30
2,40,92,18
2,40,0,28
2,42,92,20
2,42,0,51
2,42,92,43
2,42,0,57
2,42,92,39
2,42,0,15
2,42,92,31
2,42,0,17
2,38,92,35
2,38,0,22
2,40,92,22
2,40,0,28
2,42,92,25
2,42,0,59
2,42,92,35
2,42,0,59
2,40,92,35
2,40,0,28
2,40,92,20
2,40,0,31
2,35,92,19
2,35,0,31
2,38,92,13
2,38,0,36
2,40,92,16
2,40,0,53
2,40,92,42
2,40,0,61
2,40,92,35
2,40,0,16
2,40,92,30
2,40,0,27
2,36,92,22
2,36,0,29
2,38,92,17
2,38,0,30
2,40,92,18
2,40,0,45
2,40,92,49
2,40,0,60
2,28,92,579
2,28,0,10
2,28,92,38
2,28,0,10
2,28,92,38
2,28,0,10
2,28,92,38
2,28,0,10
2,40,100,37
2,40,0,72
2,42,92,24
2,42,0,75
2,43,84,21
2,43,0,72
2,45,97,24
2,45,0,68
2,33,105,28
2,33,0,72
2,35,85,24
2,35,0,72
2,37,93,24
2,37,0,72
2,38,93,24
2,38,0,73
2,40,110,23
2,40,0,72
2,42,105,24
2,42,0,72
2,43,97,24
2,43,0,72
2,45,103,24
2,45,0,72
2,33,105,24
2,33,0,72
2,35,97,24
2,35,0,72
2,37,106,27
2,37,0,71
2,38,97,21
2,38,0,74
2,40,109,25
2,40,0,73
2,42,106,21
2,42,0,72
2,43,97,24
2,43,0,72
2,45,98,24
2,45,0,72
