track,note,velocity,time
1,60,127,4608
1,61,127,1536
1,63,127,576
1,58,127,576
1,60,127,2880
1,61,127,1440
1,63,127,576
1,58,127,576
1,60,127,2880
1,61,127,1440
1,63,127,576
1,58,127,576
1,60,127,2880
1,61,127,1440
1,63,127,576
1,58,127,576
1,60,127,2880
1,61,127,1440
1,63,127,576
1,58,127,576
1,60,127,2880
1,61,127,1440
1,63,127,576
1,58,127,576
1,60,127,2880
1,61,127,1440
1,63,127,576
1,58,127,576
1,60,127,2880
1,61,127,1440
1,63,127,576
1,58,127,576
1,60,127,2880
1,61,127,1440
1,63,127,576
1,58,127,576
1,60,127,2880
1,61,127,1440
1,63,127,576
1,58,127,576
1,60,127,2880
1,61,127,1440
1,63,127,576
1,58,127,576
1,60,127,2880
1,61,127,1440
1,63,127,576
1,58,127,576
1,60,127,2880
1,61,127,1440
1,63,127,576
1,58,127,576
1,60,100,2880
1,61,90,1440
1,63,90,576
1,58,70,576
1,60,127,110496
1,61,127,1536
1,63,127,576
1,58,127,576
1,60,127,2880
1,61,127,1440
1,63,127,576
1,58,127,576
1,60,127,2880
1,61,127,1440
1,63,127,576
1,58,127,576
1,60,127,2880
1,61,127,1440
1,63,127,576
1,58,127,576
1,60,127,2880
1,61,127,1440
1,63,127,576
1,58,127,576
1,60,127,2880
1,61,127,1440
1,63,127,576
1,58,127,576
1,60,127,2880
1,61,127,1440
1,63,127,576
1,58,127,576
1,60,127,2880
1,61,127,1440
1,63,127,576
1,58,127,576
1,60,127,2880
1,61,127,1440
1,63,127,576
1,58,127,576
1,60,127,2880
1,61,127,1440
1,63,127,576
1,58,127,576
2,42,127,53760
2,42,127,0
2,42,127,0
2,42,127,0
2,42,127,0
2,42,127,0
2,42,127,0
2,42,127,0
2,42,127,0
2,42,127,0
2,42,127,0
2,42,127,0
2,42,127,0
2,42,127,0
2,42,127,0
2,42,127,0
2,42,127,0
2,42,127,0
2,42,127,0
2,42,127,0
2,42,127,0
2,42,127,0
2,42,127,0
2,42,127,0
2,42,127,0
2,42,127,0
2,42,127,0
2,42,127,0
2,42,127,0
2,42,127,0
2,42,127,0
2,42,127,0
2,42,127,0
2,42,127,0
2,42,127,0
2,42,127,0
2,42,127,0
2,42,127,0
2,42,127,0
2,42,127,0
2,42,127,0
2,42,127,0
2,42,127,0
2,42,127,0
2,42,127,0
2,42,127,0
2,42,127,0
2,42,127,0
2,42,127,0
2,42,127,0
2,42,127,0
2,42,127,0
2,42,127,0
2,42,127,0
2,42,127,0
2,42,127,0
2,42,127,0
2,42,127,0
2,42,127,0
2,42,127,0
2,42,127,0
2,42,127,0
2,42,127,0
2,42,127,0
2,42,127,0
2,42,127,0
2,42,127,0
2,42,127,0
2,42,127,0
2,42,127,0
2,42,127,0
2,42,127,0
2,42,127,0
2,42,127,0
2,42,127,0
2,42,127,0
2,42,127,0
2,42,127,0
2,42,127,0
2,42,127,0
2,42,127,0
2,42,127,0
2,42,127,0
2,42,127,0
2,42,127,0
2,42,127,0
2,42,127,0
2,42,127,0
2,42,127,0
2,42,127,0
2,42,127,0
2,42,127,0
2,42,127,0
2,42,127,0
2,42,127,0
2,42,127,0
2,42,127,0
2,42,127,0
2,42,127,0
2,42,127,0
2,42,127,0
2,42,127,0
2,42,127,0
2,42,127,0
2,42,127,0
2,42,127,0
2,42,127,0
2,42,127,0
2,42,127,0
2,42,127,0
2,42,127,0
2,42,127,0
2,42,127,0
2,42,127,0
2,42,127,0
2,42,127,0
2,42,127,0
2,42,127,0
2,42,127,0
2,42,127,0
2,42,127,0
2,42,127,0
2,42,127,0
2,42,127,0
2,42,127,0
2,42,127,0
2,42,127,0
2,42,127,0
2,42,127,0
2,42,127,0
2,42,127,0
2,42,127,0
2,42,127,0
2,42,127,0
2,42,127,0
2,42,127,0
2,42,127,0
2,42,127,0
2,42,127,0
2,42,127,0
2,42,127,0
2,42,127,0
2,42,127,0
2,42,127,0
2,42,127,0
2,42,127,0
2,42,127,0
2,42,127,0
2,42,127,0
2,42,127,0
2,42,127,0
2,42,127,0
2,42,127,0
2,42,127,0
2,42,127,0
2,42,127,0
2,42,127,0
2,42,127,0
2,42,127,0
2,42,127,0
2,42,127,0
2,42,127,0
2,42,127,0
2,42,127,0
2,42,127,0
2,42,127,0
2,42,127,0
2,42,127,0
2,42,127,0
2,42,127,0
2,42,127,0
2,42,127,0
2,42,127,0
2,42,127,0
2,42,127,0
2,42,127,0
2,42,127,0
2,42,127,0
2,42,127,0
2,42,127,0
2,42,127,0
2,42,127,0
2,42,127,0
2,42,127,0
2,42,127,0
2,42,127,0
2,42,127,0
2,42,127,0
2,42,127,0
2,42,127,0
2,42,127,0
2,42,127,0
2,42,127,0
2,42,127,0
2,42,127,0
2,42,127,0
2,42,127,0
2,42,127,0
2,42,127,0
2,42,127,0
2,42,127,0
2,42,127,0
2,42,127,0
2,42,127,0
2,42,127,0
2,42,127,0
2,42,127,0
2,42,127,0
2,42,127,0
2,42,127,0
2,42,127,0
2,42,127,0
2,42,127,0
2,42,127,0
2,42,127,0
2,42,127,0
2,42,127,0
2,42,127,0
2,42,127,0
2,42,127,0
2,42,127,0
2,42,127,0
2,42,127,0
2,42,127,0
2,42,127,0
2,42,127,0
2,42,127,0
2,42,127,0
2,42,127,0
2,42,127,0
2,42,127,0
2,42,127,0
2,42,127,0
2,42,127,0
2,42,127,0
2,42,127,0
2,42,127,0
2,42,127,0
2,42,127,0
2,42,127,0
2,42,127,0
2,42,127,0
2,42,127,0
2,42,127,0
2,42,127,0
2,42,127,0
2,42,127,0
2,42,127,0
2,42,127,0
2,42,127,0
2,42,127,0
2,42,127,0
2,42,127,0
2,42,127,0
2,42,127,0
2,42,127,0
2,42,127,0
2,42,127,0
2,42,127,0
2,42,127,0
2,42,127,0
2,42,127,0
2,42,127,0
2,42,127,0
2,42,127,0
2,42,127,0
2,42,127,0
2,42,127,0
2,42,127,0
2,42,127,0
2,42,127,0
2,42,127,0
2,42,127,0
2,42,127,0
2,42,127,0
2,42,127,0
2,42,127,0
2,42,127,0
2,42,127,0
2,42,127,0
2,42,127,0
2,42,127,0
2,42,127,0
2,42,127,0
2,42,127,0
2,42,127,0
2,42,127,0
2,42,127,0
2,42,127,0
2,42,127,0
2,42,127,0
2,42,127,0
2,42,127,0
2,42,127,0
2,42,127,0
2,42,127,0
2,42,127,0
2,42,127,0
2,42,127,0
2,42,127,0
2,42,127,0
2,42,127,0
2,42,127,0
2,42,127,0
2,42,127,0
2,42,127,0
2,42,127,0
2,42,127,0
2,42,127,0
2,42,127,0
2,42,127,0
2,42,127,0
2,42,127,0
2,42,127,0
2,42,127,0
2,42,127,0
2,42,127,0
2,42,127,0
2,42,127,0
2,42,127,0
2,42,127,0
2,42,127,0
2,42,127,0
2,42,127,0
2,42,127,0
2,42,127,0
2,42,127,0
2,42,127,0
2,42,127,0
2,42,127,0
2,42,127,0
2,42,127,0
2,42,127,0
2,42,127,0
2,42,127,0
2,42,127,0
2,42,127,0
2,42,127,0
2,42,127,0
2,42,127,0
2,42,127,0
2,42,127,0
2,42,127,0
2,42,127,0
2,42,127,0
2,42,127,0
2,42,127,0
2,42,127,0
2,42,127,0
2,42,127,0
2,42,127,0
2,42,127,0
2,42,127,0
2,42,127,0
2,42,127,0
2,42,127,0
2,42,127,0
2,42,127,0
2,42,127,0
2,42,127,0
2,42,127,0
2,42,127,0
2,42,127,0
2,42,127,0
2,42,127,0
2,42,127,0
2,42,127,0
2,42,127,0
2,42,127,0
2,42,127,0
2,42,127,0
2,42,127,0
2,42,127,0
2,42,127,0
2,42,127,0
2,42,127,0
2,42,127,0
2,42,127,0
2,42,127,0
2,42,127,0
2,42,127,0
2,42,127,0
2,42,127,0
2,42,127,0
2,42,127,0
2,42,127,0
2,42,127,0
2,46,127,0
2,42,127,0
2,42,127,0
2,42,127,0
2,42,127,0
2,46,127,0
2,42,127,0
2,42,127,0
2,42,127,0
2,42,127,0
2,46,127,0
2,42,127,0
2,42,127,0
2,42,127,0
2,42,127,0
2,46,127,0
2,42,127,0
2,42,127,0
2,42,127,0
2,42,127,0
2,46,127,0
2,42,127,0
2,42,127,0
2,42,127,0
2,42,127,0
2,46,127,0
2,42,127,0
2,42,127,0
2,42,127,0
2,42,127,0
2,46,127,0
2,42,127,0
2,42,127,0
2,42,127,0
2,42,127,0
2,46,127,0
2,42,127,0
2,42,127,0
2,42,127,0
2,42,127,0
2,46,127,0
2,42,127,0
2,42,127,0
2,42,127,0
2,42,127,0
2,46,127,0
2,42,127,0
2,42,127,0
2,42,127,0
2,42,127,0
2,46,127,0
2,42,127,0
2,42,127,0
2,42,127,0
2,42,127,0
2,46,127,0
2,42,127,0
2,42,127,0
2,42,127,0
2,42,127,0
2,46,127,0
2,42,127,0
2,42,127,0
2,42,127,0
2,42,127,0
2,46,127,0
2,42,127,0
2,42,127,0
2,42,127,0
2,42,127,0
2,46,127,0
2,42,127,0
2,42,127,0
2,42,127,0
2,42,127,0
2,46,127,0
2,42,127,0
2,42,127,0
2,42,127,0
2,42,127,0
2,46,127,0
2,42,127,0
2,42,127,0
2,42,127,0
2,42,127,0
2,46,127,0
2,42,127,0
2,42,127,0
2,42,127,0
2,42,127,0
2,46,127,0
2,42,127,0
2,42,127,0
2,42,127,0
2,42,127,0
2,46,127,0
2,42,127,0
2,42,127,0
2,42,127,0
2,42,127,0
2,46,127,0
2,42,127,0
2,42,127,0
2,42,127,0
2,42,127,0
2,46,127,0
2,42,127,0
2,42,127,0
2,42,127,0
2,42,127,0
2,46,127,0
2,42,127,0
2,42,127,0
2,42,127,0
2,42,127,0
2,46,127,0
2,42,127,0
2,42,127,0
2,42,127,0
2,42,127,0
2,46,127,0
2,42,127,0
2,42,127,0
2,42,127,0
2,42,127,0
2,46,127,0
2,42,127,0
2,42,127,0
2,42,127,0
2,42,127,0
2,46,127,0
2,42,127,0
2,42,127,0
2,42,127,0
2,42,127,0
2,46,127,0
2,42,127,0
2,42,127,0
2,42,127,0
2,42,127,0
2,46,127,0
2,42,127,0
2,42,127,0
2,42,127,0
2,42,127,0
2,46,127,0
2,42,127,0
2,42,127,0
2,42,127,0
2,42,127,0
2,46,127,0
2,42,127,0
2,42,127,0
2,42,127,0
2,42,127,0
2,46,127,0
2,42,127,0
2,42,127,0
2,42,127,0
2,42,127,0
2,46,127,0
2,42,127,0
2,42,127,0
2,42,127,0
2,42,127,0
2,46,127,0
2,42,127,0
2,42,127,0
2,42,127,0
2,42,127,0
2,46,127,0
2,42,127,0
2,42,127,0
2,42,127,0
2,42,127,0
2,46,127,0
2,42,127,0
2,42,127,0
2,42,127,0
2,42,127,0
2,46,127,0
2,42,127,0
2,42,127,0
2,42,127,0
2,42,127,0
2,46,127,0
2,42,127,0
2,42,127,0
2,42,127,0
2,42,127,0
2,46,127,0
2,42,127,0
2,42,127,0
2,42,127,0
2,42,127,0
2,46,127,0
2,42,127,0
2,42,127,0
2,42,127,0
2,42,127,0
2,46,127,0
2,42,127,0
2,42,127,0
2,42,127,0
2,42,127,0
2,46,127,0
2,42,127,0
2,42,127,0
2,42,127,0
2,42,127,0
2,46,127,0
2,42,127,0
2,42,127,0
2,42,127,0
2,42,127,0
2,46,127,0
2,42,127,0
2,42,127,0
2,42,127,0
2,42,127,0
2,46,127,0
2,42,127,0
2,42,127,0
2,42,127,0
2,42,127,0
2,46,127,0
2,42,127,0
2,42,127,0
2,42,127,0
2,42,127,0
2,46,127,0
2,42,127,0
2,42,127,0
2,42,127,0
2,42,127,0
2,46,127,0
2,42,127,0
2,42,127,0
2,42,127,0
2,42,127,0
2,46,127,0
2,42,127,0
2,42,127,0
2,42,127,0
2,42,127,0
2,46,127,0
2,42,127,0
2,42,127,0
2,42,127,0
2,42,127,0
2,46,127,0
2,42,127,0
2,42,127,0
2,42,127,0
2,42,127,0
2,46,127,0
2,42,127,0
2,42,127,0
2,42,127,0
2,42,127,0
2,46,127,0
2,42,127,0
2,42,127,0
2,42,127,0
2,42,127,0
2,46,127,0
2,42,127,0
2,42,127,0
2,42,127,0
2,42,127,0
2,46,127,0
2,42,127,0
2,42,127,0
2,42,127,0
2,42,127,0
2,46,127,0
2,42,127,0
2,42,127,0
2,42,127,0
2,42,127,0
2,46,127,0
2,42,127,0
2,42,127,0
2,42,127,0
2,42,127,0
2,46,127,0
2,42,127,0
2,42,127,0
2,42,127,0
2,42,127,0
2,46,127,0
2,42,127,0
2,42,127,0
2,42,127,0
2,42,127,0
2,46,127,0
2,42,127,0
2,42,127,0
2,42,127,0
2,42,127,0
2,46,127,0
2,42,127,0
2,42,127,0
2,42,127,0
2,42,127,0
2,46,127,0
2,42,127,0
2,42,127,0
2,42,127,0
2,42,127,0
2,46,127,0
2,42,127,0
2,42,127,0
2,42,127,0
2,42,127,0
2,46,127,0
2,42,127,0
2,42,127,0
2,42,127,0
2,42,127,0
2,46,127,0
2,42,127,0
2,42,127,0
2,42,127,0
2,42,127,0
2,46,127,0
2,42,127,0
2,42,127,0
2,42,127,0
2,42,127,0
2,46,127,0
2,42,127,0
2,42,127,0
2,42,127,0
2,42,127,0
2,46,127,0
2,42,127,0
2,42,127,0
2,42,127,0
2,42,127,0
2,46,127,0
2,42,127,0
2,42,127,0
2,42,127,0
2,42,127,0
2,46,127,0
2,42,127,0
2,42,127,0
2,42,127,0
2,42,127,0
2,46,127,0
2,42,127,0
2,42,127,0
2,42,127,0
2,42,127,0
2,46,127,0
2,42,127,0
2,42,127,0
2,42,127,0
2,42,127,0
2,46,127,0
2,42,127,0
2,42,127,0
2,42,127,0
2,42,127,0
2,46,127,0
2,42,127,0
2,42,127,0
2,42,127,0
2,42,127,0
2,46,127,0
2,42,127,0
2,42,127,0
2,42,127,0
2,42,127,0
2,46,127,0
2,42,127,0
2,42,127,0
2,42,127,0
2,42,127,0
2,46,127,0
2,42,127,0
2,42,127,0
2,42,127,0
2,42,127,0
2,46,127,0
2,42,127,0
2,42,127,0
2,42,127,0
2,42,127,0
2,46,127,0
2,42,127,0
2,42,127,0
2,42,127,0
2,42,127,0
2,46,127,0
2,42,127,0
2,42,127,0
2,42,127,0
2,42,127,0
2,46,127,0
2,42,127,0
2,42,127,0
2,42,127,0
2,42,127,0
2,46,127,0
2,42,127,0
2,42,127,0
2,42,127,0
2,42,127,0
2,46,127,0
2,42,127,0
2,42,127,0
2,42,127,0
2,42,127,0
2,46,127,0
2,42,127,0
2,42,127,0
2,42,127,0
2,42,127,0
2,46,127,0
2,42,127,0
2,42,127,0
2,42,127,0
2,42,127,0
2,46,127,0
2,42,127,0
2,42,127,0
2,42,127,0
2,42,127,0
2,46,127,0
2,42,127,0
2,42,127,0
2,42,127,0
2,42,127,0
2,46,127,0
2,42,127,0
2,42,127,0
2,42,127,0
2,42,127,0
2,46,127,0
2,42,127,0
2,42,127,0
2,42,127,0
2,42,127,0
2,46,127,0
2,42,127,0
2,42,127,0
2,42,127,0
2,42,127,0
2,46,127,0
2,42,127,0
2,42,127,0
2,42,127,0
2,42,127,0
2,46,127,0
2,42,127,0
2,42,127,0
2,42,127,0
2,42,127,0
2,46,127,0
2,42,127,0
2,42,127,0
2,42,127,0
2,42,127,0
2,46,127,0
2,42,127,0
2,42,127,0
2,42,127,0
2,42,127,0
2,46,127,0
2,42,127,0
2,42,127,0
2,42,127,0
2,42,127,0
2,46,127,0
2,42,127,0
2,42,127,0
2,42,127,0
2,42,127,0
2,46,127,0
2,42,127,0
2,42,127,0
2,42,127,0
2,42,127,0
2,46,127,0
2,42,127,0
2,42,127,0
2,42,127,0
2,42,127,0
2,46,127,0
2,42,127,0
2,42,127,0
2,42,127,0
2,42,127,0
2,46,127,0
2,42,127,0
2,42,127,0
2,42,127,0
2,42,127,0
2,46,127,0
2,42,127,0
2,42,127,0
2,42,127,0
2,42,127,0
2,46,127,0
2,42,127,0
2,42,127,0
2,42,127,0
2,42,127,0
2,46,127,0
2,42,127,0
2,42,127,0
2,42,127,0
2,42,127,0
2,46,127,0
2,42,127,0
