track,note,velocity,time
0,38,87,2180
0,38,96,32
0,38,87,312
0,38,96,32
0,45,84,348
0,41,84,0
0,45,84,216
0,50,91,0
0,62,95,0
0,41,84,4
0,74,107,0
0,74,114,2
0,45,84,8
0,52,95,0
0,64,102,0
0,41,84,4
0,76,105,0
0,76,110,2
0,35,109,144
0,49,75,0
0,43,111,6
0,50,104,2
0,55,111,0
0,59,111,0
0,62,111,0
0,62,104,0
0,43,108,2
0,50,104,0
0,59,109,0
0,62,109,0
0,31,99,2
0,67,109,0
0,43,126,2
0,79,110,0
0,79,118,0
0,51,61,44
0,43,110,2
0,50,102,0
0,62,102,0
0,55,93,0
0,55,87,2
0,59,80,0
0,62,108,0
0,67,91,0
0,31,99,2
0,43,120,0
0,38,96,0
0,51,61,0
0,43,111,8
0,52,99,0
0,55,93,0
0,60,106,0
0,64,111,0
0,64,104,0
0,43,104,2
0,44,81,0
0,52,104,0
0,60,108,0
0,31,99,2
0,64,108,0
0,67,108,0
0,43,122,2
0,76,107,0
0,76,112,2
0,51,65,28
0,43,108,0
0,52,99,2
0,64,106,0
0,55,93,0
0,55,104,2
0,59,108,0
0,62,99,0
0,67,109,0
0,31,99,2
0,43,116,0
0,35,109,24
0,51,65,0
0,43,110,6
0,50,104,0
0,62,102,0
0,43,95,2
0,59,111,0
0,62,106,0
0,50,99,2
0,59,95,0
0,62,104,0
0,67,99,0
0,31,99,2
0,43,120,0
0,35,109,24
0,51,67,0
0,43,107,0
0,45,84,2
0,55,97,0
0,55,91,0
0,59,91,0
0,62,91,0
0,31,99,2
0,67,87,0
0,74,105,0
0,43,124,2
0,74,109,0
0,38,96,4
0,51,78,0
0,55,106,8
0,60,106,0
0,64,102,0
0,43,91,2
0,44,111,0
0,44,81,0
0,52,108,0
0,60,99,0
0,64,109,0
0,32,99,2
0,41,84,0
0,45,84,0
0,67,99,0
0,76,104,0
0,44,120,0
0,76,105,2
0,35,109,52
0,57,75,0
0,45,110,6
0,52,106,2
0,57,111,0
0,61,111,0
0,64,111,0
0,64,106,0
0,45,108,2
0,52,109,0
0,61,109,0
0,64,109,0
0,33,99,2
0,69,109,0
0,79,110,0
0,45,126,2
0,79,118,0
0,51,65,20
0,45,110,0
0,52,95,2
0,64,93,0
0,57,93,2
0,57,95,0
0,33,99,2
0,61,101,0
0,64,99,0
0,69,99,0
0,45,123,2
0,38,96,8
0,51,63,0
0,44,81,8
0,45,111,0
0,54,100,0
0,57,97,0
0,62,106,0
0,66,99,0
0,66,98,0
0,45,91,2
0,54,101,0
0,62,108,0
0,66,101,0
0,33,99,2
0,69,95,0
0,45,123,2
0,76,107,0
0,76,110,0
0,51,69,4
0,45,111,4
0,54,100,0
0,66,106,2
0,57,97,2
0,57,99,0
0,61,109,0
0,33,99,2
0,64,109,0
0,69,108,0
0,45,123,2
0,51,67,12
0,45,110,6
0,52,90,0
0,64,97,0
0,57,85,2
0,61,111,0
0,64,111,0
0,45,108,2
0,52,108,0
0,61,96,0
0,64,99,0
0,33,99,2
0,69,95,0
0,45,125,2
0,51,65,0
0,45,111,6
0,57,97,2
0,57,87,0
0,61,101,0
0,33,99,2
0,41,84,0
0,45,84,0
0,64,108,0
0,69,91,0
0,45,118,2
0,74,105,0
0,74,105,2
0,38,96,10
0,51,69,0
0,62,102,4
0,66,99,0
0,44,81,2
0,45,80,0
0,47,110,0
0,54,109,0
0,62,104,0
0,66,101,0
0,35,99,0
0,41,84,0
0,69,99,0
0,45,84,0
0,47,123,2
0,76,106,0
0,76,110,2
0,35,109,92
0,49,75,0
0,48,111,6
0,55,106,2
0,60,111,0
0,64,111,0
0,67,111,0
0,67,106,0
0,48,108,2
0,55,109,0
0,60,109,0
0,64,109,0
0,36,99,2
0,67,109,0
0,48,126,2
0,79,110,0
0,79,118,0
0,51,69,0
0,48,111,0
0,57,104,0
0,69,102,2
0,60,93,0
0,36,99,2
0,60,104,0
0,64,108,0
0,67,99,0
0,48,126,2
0,38,96,8
0,51,67,0
0,48,111,8
0,55,104,0
0,60,102,0
0,65,102,0
0,67,99,0
0,44,81,2
0,48,104,0
0,57,108,0
0,60,109,0
0,69,111,0
0,36,99,2
0,65,99,0
0,69,108,0
0,48,122,2
0,76,110,0
0,76,112,0
0,35,109,4
0,48,111,0
0,51,69,0
0,60,89,4
0,36,99,2
0,60,95,0
0,65,104,0
0,69,99,0
0,48,120,2
0,35,109,16
0,51,67,0
0,50,111,6
0,55,99,2
0,62,93,0
0,66,111,0
0,67,106,0
0,69,106,0
0,50,104,2
0,57,109,0
0,62,108,0
0,66,109,0
0,38,99,2
0,69,108,0
0,74,109,0
0,50,120,2
0,74,116,0
0,51,67,32
0,50,111,4
0,57,99,2
0,69,102,0
0,62,102,2
0,67,106,0
0,71,111,0
0,62,99,2
0,66,101,0
0,69,104,0
0,76,106,0
0,50,124,2
0,76,108,0
0,38,96,12
0,51,69,0
0,44,81,4
0,50,109,0
0,59,108,0
0,62,104,0
0,38,99,2
0,67,108,0
0,71,104,0
0,51,69,144
0,43,111,6
0,53,104,0
0,55,106,2
0,59,111,0
0,62,106,0
0,65,106,0
0,43,108,2
0,50,109,0
0,59,109,0
0,62,109,0
0,43,126,2
0,67,109,0
0,67,108,0
0,67,114,2
0,35,109,44
0,31,99,8
0,38,87,8
0,43,111,4
0,52,104,2
0,64,106,0
0,55,102,2
0,55,91,0
0,31,99,2
0,59,87,0
0,62,99,0
0,67,99,0
0,43,126,2
0,38,96,16
0,55,106,8
0,60,111,0
0,64,106,0
0,43,99,2
0,44,81,0
0,52,108,0
0,60,109,0
0,64,109,0
0,31,99,2
0,67,108,0
0,38,87,0
0,38,87,30
0,43,111,0
0,50,104,0
0,62,104,2
0,55,102,2
0,55,87,0
0,59,109,0
0,31,99,2
0,62,108,0
0,67,104,0
0,43,126,2
0,35,109,6
0,38,96,0
0,59,106,4
0,43,104,2
0,50,108,0
0,59,108,0
0,62,111,0
0,31,99,2
0,62,99,0
0,67,95,0
0,41,84,8
0,38,111,2
0,50,97,0
0,62,97,0
0,55,93,2
0,55,104,0
0,38,99,2
0,45,84,0
0,59,91,0
0,62,104,0
0,67,108,0
0,62,105,2
0,74,102,0
0,74,111,2
0,41,84,0
0,38,96,16
0,40,108,4
0,44,81,0
0,55,106,0
0,60,111,0
0,64,111,0
0,43,108,2
0,52,104,0
0,52,97,0
0,60,108,0
0,64,109,0
0,64,102,0
0,40,99,2
0,45,84,0
0,67,104,0
0,64,107,2
0,76,105,0
0,76,110,0
0,35,109,80
0,57,75,0
0,43,111,8
0,55,111,0
0,59,111,0
0,59,102,0
0,62,111,0
0,62,100,0
0,67,106,0
0,43,109,2
0,50,109,0
0,59,109,0
0,62,109,0
0,31,99,2
0,67,109,0
0,67,109,2
0,74,95,0
0,76,111,0
0,83,118,0
0,51,69,16
0,55,102,0
0,55,87,2
0,59,95,0
0,62,109,0
0,67,108,0
0,31,99,2
0,38,96,16
0,51,67,0
0,55,97,8
0,60,106,0
0,64,111,0
0,43,108,0
0,52,104,0
0,60,109,0
0,64,109,0
0,44,81,0
0,31,99,0
0,43,111,0
0,55,95,0
0,67,108,0
0,59,100,0
0,64,106,0
0,64,107,0
0,74,111,0
0,52,123,2
0,64,82,0
0,64,106,0
0,71,92,2
0,79,118,0
0,51,67,12
0,55,102,8
0,55,95,0
0,31,99,2
0,59,108,0
0,62,108,0
0,67,108,0
0,59,126,2
0,71,119,0
0,71,90,2
0,35,109,12
0,51,65,0
0,55,74,8
0,59,106,0
0,62,106,0
0,43,99,2
0,50,104,0
0,59,99,0
0,62,108,0
0,31,99,2
0,67,108,0
0,35,109,8
0,51,65,0
0,50,97,6
0,55,102,2
0,55,104,0
0,59,95,0
0,62,97,0
0,31,99,2
0,41,84,0
0,45,84,0
0,62,104,0
0,67,95,0
0,62,105,2
0,74,107,0
0,74,107,2
0,38,96,4
0,51,69,0
0,44,81,4
0,52,95,0
0,60,106,0
0,64,106,0
0,64,99,0
0,41,84,2
0,45,84,0
0,52,108,0
0,60,109,0
0,64,108,0
0,67,95,0
0,32,99,2
0,64,106,0
0,76,105,2
0,76,110,0
0,35,109,52
0,49,75,0
0,45,111,8
0,57,111,0
0,59,106,0
0,61,111,0
0,64,111,0
0,64,100,0
0,67,106,0
0,45,109,2
0,52,108,0
0,61,109,0
0,64,109,0
0,33,99,2
0,67,106,0
0,69,109,0
0,73,95,2
0,76,105,0
0,83,118,0
0,51,72,12
0,57,102,4
0,57,91,0
0,40,99,2
0,61,96,0
0,64,104,0
0,69,99,0
0,38,96,8
0,51,67,0
0,57,102,4
0,62,106,0
0,44,81,0
0,45,83,0
0,54,101,0
0,62,108,0
0,66,99,0
0,45,111,2
0,45,99,0
0,66,101,0
0,69,99,0
0,55,102,0
0,61,100,0
0,64,99,0
0,64,106,2
0,64,106,0
0,73,105,0
0,52,125,2
0,64,84,0
0,69,92,0
0,79,116,0
0,51,67,20
0,57,93,8
0,57,87,0
0,61,109,0
0,40,99,2
0,64,104,0
0,69,108,0
0,59,125,2
0,71,90,0
0,71,119,0
0,51,67,0
0,57,89,8
0,61,111,0
0,64,111,0
0,45,104,2
0,52,108,0
0,61,101,0
0,64,104,0
0,33,99,2
0,69,87,0
0,51,69,4
0,50,88,6
0,62,91,0
0,57,85,2
0,57,95,0
0,33,99,2
0,41,84,0
0,45,84,0
0,61,79,0
0,64,95,0
0,69,95,0
0,62,105,2
0,74,98,0
0,74,105,2
0,38,96,0
0,51,69,0
0,52,99,4
0,62,97,0
0,64,99,0
0,44,81,2
0,45,76,0
0,54,101,0
0,62,99,0
0,66,90,0
0,35,99,0
0,41,84,0
0,45,84,0
0,66,101,0
0,69,91,0
0,64,106,2
0,76,103,0
0,76,105,0
0,35,109,96
0,57,75,0
0,48,111,8
0,60,111,0
0,60,99,0
0,64,111,0
0,64,100,0
0,67,106,0
0,67,97,0
0,48,104,2
0,55,109,0
0,60,109,0
0,64,101,0
0,36,99,2
0,67,109,0
0,67,106,0
0,72,93,2
0,76,105,0
0,83,112,0
0,51,69,4
0,62,95,4
0,65,99,2
0,69,93,0
0,60,97,2
0,60,95,0
0,64,101,0
0,67,99,2
0,69,104,0
0,77,109,0
0,74,92,2
0,84,107,0
0,38,96,8
0,51,69,0
0,48,111,8
0,60,102,0
0,63,98,0
0,65,106,0
0,66,100,0
0,69,106,0
0,44,81,2
0,48,99,0
0,57,108,0
0,60,104,0
0,65,108,0
0,70,96,0
0,36,99,2
0,69,104,0
0,70,108,2
0,75,92,0
0,78,105,0
0,85,112,0
0,35,109,12
0,51,63,0
0,64,93,2
0,67,95,0
0,71,91,0
0,60,81,2
0,60,95,0
0,64,101,0
0,67,108,0
0,71,102,2
0,76,90,0
0,79,104,0
0,86,114,0
0,35,109,28
0,51,67,0
0,50,111,4
0,60,102,0
0,62,97,0
0,64,111,0
0,66,100,0
0,69,106,0
0,50,95,2
0,57,104,0
0,60,109,0
0,67,97,0
0,38,99,0
0,64,109,0
0,67,109,0
0,69,103,2
0,72,94,0
0,78,100,0
0,82,116,0
0,51,67,16
0,50,109,6
0,57,93,0
0,60,100,0
0,64,104,0
0,60,111,2
0,65,97,0
0,69,111,0
0,60,99,2
0,62,95,0
0,64,109,0
0,67,95,0
0,66,108,2
0,69,91,0
0,72,109,0
0,76,110,2
0,38,96,12
0,51,69,0
0,44,81,6
0,50,104,2
0,59,108,0
0,60,108,0
0,65,108,0
0,38,99,2
0,69,104,0
0,51,55,152
0,55,102,6
0,67,106,0
0,55,106,2
0,59,106,0
0,62,102,0
0,43,109,2
0,50,109,0
0,59,108,0
0,62,109,0
0,67,108,2
0,67,110,0
0,79,111,0
0,67,95,2
0,79,118,0
0,35,109,40
0,51,69,0
0,31,99,8
0,51,65,8
0,55,97,4
0,55,91,0
0,38,96,36
0,51,67,0
0,55,97,8
0,60,111,0
0,64,106,0
0,44,81,2
0,48,99,0
0,55,108,0
0,64,109,0
0,67,108,0
0,36,99,2
0,72,109,0
0,48,126,2
0,52,100,0
0,64,113,0
0,55,90,2
0,60,88,0
0,51,61,12
0,55,106,4
0,60,83,0
0,52,98,2
0,64,109,0
0,48,120,2
0,55,83,0
0,60,88,0
0,35,109,4
0,51,67,0
0,47,104,8
0,59,106,0
0,62,102,0
0,54,108,2
0,62,108,0
0,66,109,0
0,35,99,2
0,69,109,0
0,71,108,0
0,47,125,2
0,50,99,0
0,54,84,0
0,59,85,0
0,62,112,0
0,51,69,0
0,54,99,8
0,59,91,0
0,50,99,0
0,62,112,0
0,47,123,2
0,54,82,0
0,59,83,0
0,38,96,16
0,51,67,0
0,52,97,8
0,57,111,0
0,60,111,0
0,44,81,2
0,45,99,0
0,52,104,0
0,60,109,0
0,64,109,0
0,33,99,2
0,67,109,0
0,69,109,0
0,48,104,2
0,60,117,0
0,45,125,2
0,52,84,0
0,57,88,0
0,51,69,8
0,52,93,4
0,57,108,0
0,35,109,8
0,51,59,0
0,59,102,8
0,62,111,0
0,67,102,0
0,31,99,2
0,43,95,0
0,50,95,0
0,47,100,2
0,59,119,0
0,43,124,2
0,50,88,0
0,55,88,0
0,51,57,12
0,55,76,4
0,59,85,0
0,51,59,8
0,44,81,6
0,54,81,0
0,60,93,2
0,64,102,0
0,67,89,0
0,43,99,2
0,52,99,0
0,51,59,24
0,59,85,8
0,62,106,0
0,67,61,0
0,55,87,2
0,59,104,0
0,62,104,0
0,64,104,0
0,67,104,2
0,35,109,28
0,51,65,0
0,59,89,8
0,62,97,0
0,67,93,0
0,38,99,2
0,43,95,0
0,50,95,0
0,51,63,12
0,55,91,8
0,59,85,0
0,62,97,0
0,51,61,4
0,44,81,6
0,54,81,2
0,60,81,0
0,64,102,0
0,67,85,0
0,43,91,2
0,52,95,0
0,51,61,116
0,59,111,8
0,62,106,0
0,67,111,0
0,43,108,2
0,50,109,0
0,59,91,0
0,62,95,0
0,50,104,2
0,64,87,0
0,67,95,0
0,50,89,2
0,62,88,0
0,62,117,0
0,35,109,60
0,51,59,0
0,43,99,8
0,51,59,4
0,55,91,4
0,59,71,0
0,62,81,0
0,59,104,2
0,62,99,0
0,64,108,0
0,67,104,0
0,50,102,2
0,62,117,0
0,50,88,2
0,62,88,0
0,51,57,16
0,44,81,8
0,60,93,0
0,64,106,0
0,67,85,0
0,40,99,2
0,43,99,0
0,52,99,0
0,54,81,0
0,52,106,2
0,52,90,2
0,64,84,0
0,64,113,0
0,51,59,12
0,55,87,8
0,59,61,0
0,62,97,0
0,52,100,2
0,59,87,0
0,64,113,0
0,52,87,2
0,64,84,0
0,35,109,16
0,51,61,0
0,59,85,8
0,62,97,0
0,67,89,0
0,43,95,2
0,50,95,0
0,62,91,0
0,64,87,0
0,38,99,2
0,50,102,0
0,67,104,0
0,50,88,2
0,62,86,0
0,62,115,0
0,51,61,16
0,59,85,8
0,62,93,0
0,67,74,0
0,55,91,2
0,62,109,0
0,64,109,0
0,67,108,0
0,71,109,2
0,51,59,16
0,44,81,8
0,54,81,0
0,60,89,0
0,64,102,0
0,67,97,0
0,35,99,2
0,43,83,0
0,52,99,0
0,51,57,128
0,61,99,8
0,64,111,0
0,69,111,0
0,45,108,2
0,52,99,0
0,35,109,24
0,51,61,0
0,33,99,8
0,51,57,4
0,61,77,8
0,69,85,0
0,57,99,2
0,51,53,32
0,44,81,6
0,54,81,0
0,62,106,2
0,66,99,0
0,69,102,0
0,45,80,2
0,54,101,0
0,51,55,8
0,61,90,8
0,64,93,0
0,57,99,2
0,61,109,0
0,64,108,0
0,69,89,0
0,67,91,2
0,71,108,0
0,35,109,8
0,51,55,0
0,61,85,8
0,64,97,0
0,69,102,0
0,40,99,2
0,45,95,0
0,52,99,0
0,51,52,20
0,61,85,8
0,64,85,0
0,69,93,0
0,57,95,2
0,61,101,0
0,64,99,0
0,67,91,0
0,71,91,2
0,51,48,16
0,44,81,2
0,54,81,2
0,62,97,0
0,66,94,0
0,45,80,2
