track,note,velocity,time
3,67,107,0
3,67,0,45
3,67,107,0
3,67,0,133
3,72,107,0
3,72,0,58
3,70,107,0
3,67,107,0
3,70,0,1
3,67,0,31
3,65,107,0
3,65,0,25
3,63,107,0
3,63,0,158
3,60,107,0
3,60,0,46
3,63,107,0
3,65,107,0
3,63,0,1
3,65,0,61
3,67,107,0
3,67,0,88
3,67,107,0
3,67,0,41
3,67,107,0
3,67,0,167
3,70,107,0
3,72,107,0
3,70,0,10
3,70,107,0
3,72,0,2
3,67,107,0
3,70,0,1
3,67,0,26
3,65,107,0
3,65,0,22
3,63,107,0
3,63,0,180
3,60,107,0
3,60,0,55
3,63,107,0
3,63,0,107
3,65,107,0
3,65,0,55
3,67,107,0
3,67,0,457
3,65,107,0
3,67,107,0
3,65,0,6
3,67,0,52
3,63,107,0
3,63,0,51
3,65,107,0
3,65,0,56
3,63,107,0
3,63,0,120
3,60,107,0
3,60,0,98
3,63,107,0
3,63,0,56
3,67,107,0
3,67,0,56
3,63,107,0
3,63,0,36
3,65,107,0
3,65,0,36
3,63,107,0
3,63,0,187
3,67,107,0
3,67,0,53
3,63,107,0
3,63,0,37
3,65,107,0
3,65,0,53
3,63,107,0
3,63,0,117
3,60,107,0
3,60,0,111
3,70,107,0
3,70,0,106
3,67,107,0
3,67,0,72
3,65,107,0
3,65,0,116
3,67,107,0
3,67,0,42
3,67,107,0
3,67,0,96
3,67,107,0
3,67,0,60
3,67,107,0
3,67,0,117
3,65,107,0
3,65,0,140
3,63,107,0
3,63,0,85
3,65,107,0
3,65,0,73
3,63,107,0
3,63,0,62
3,60,107,0
3,60,0,507
3,67,107,0
3,67,0,45
3,67,107,0
3,67,0,133
3,72,107,0
3,72,0,58
3,70,107,0
3,67,107,0
3,70,0,1
3,67,0,31
3,65,107,0
3,65,0,25
3,63,107,0
3,60,107,0
3,63,0,39
3,60,0,7
3,65,107,0
3,65,0,62
3,67,107,0
3,67,0,88
3,67,107,0
3,67,0,41
3,67,107,0
3,67,0,167
3,72,107,0
3,70,107,0
3,72,0,2
3,67,107,0
3,70,0,1
3,67,0,26
3,65,107,0
3,65,0,22
3,63,107,0
3,63,0,180
3,60,107,0
3,60,0,55
3,63,107,0
3,63,0,107
3,65,107,0
3,65,0,55
3,67,107,0
3,67,0,457
3,65,107,0
3,65,0,60
3,67,107,0
3,67,0,58
3,63,107,5
3,63,0,51
3,65,107,0
3,65,0,56
3,63,107,0
3,63,0,120
3,63,107,0
3,63,0,56
3,67,107,0
3,67,0,56
3,63,107,4
3,63,0,36
3,65,107,0
3,65,0,36
3,63,107,0
3,63,0,187
3,67,107,0
3,67,0,53
3,65,107,0
3,65,0,37
3,63,107,0
3,63,0,117
3,70,107,0
3,70,0,60
3,67,107,0
3,67,0,72
3,65,107,0
3,65,0,116
3,67,107,0
3,67,0,42
3,67,107,0
3,67,0,96
3,67,107,0
3,67,0,60
3,67,107,0
3,67,0,117
3,65,107,0
3,65,0,140
3,63,107,0
3,63,0,85
3,65,107,0
3,65,0,73
3,63,107,0
3,63,0,62
3,60,107,0
3,60,0,507
3,68,107,0
3,68,0,45
3,68,107,0
3,68,0,133
3,73,107,0
3,73,0,58
3,71,107,0
3,68,107,0
3,71,0,1
3,68,0,31
3,66,107,0
3,66,0,25
3,64,107,0
3,64,0,158
3,61,107,0
3,61,0,46
3,64,107,0
3,66,107,0
3,64,0,1
3,66,0,61
3,68,107,0
3,68,0,88
3,68,107,0
3,68,0,41
3,68,107,0
3,68,0,167
3,73,107,0
3,71,107,0
3,73,0,2
3,68,107,0
3,71,0,1
3,68,0,26
3,66,107,0
3,66,0,22
3,64,107,0
3,64,0,180
3,61,107,0
3,61,0,55
3,64,107,0
3,64,0,107
3,66,107,0
3,66,0,55
3,68,107,0
3,68,0,457
3,66,107,0
3,66,0,60
3,68,107,0
3,68,0,58
3,64,107,5
3,64,0,51
3,66,107,0
3,66,0,56
3,64,107,0
3,64,0,120
3,61,107,0
3,61,0,98
3,64,107,0
3,64,0,56
3,68,107,0
3,68,0,56
3,64,107,0
3,64,0,36
3,66,107,19
3,66,0,36
3,64,107,0
3,64,107,0
3,64,0,12
3,64,0,48
3,64,107,0
3,64,0,53
3,68,107,0
3,68,0,53
3,64,107,0
3,64,0,37
3,66,107,21
3,66,0,53
3,64,107,0
3,64,0,117
3,61,107,0
3,61,0,111
3,64,107,0
3,64,0,45
3,71,107,0
3,71,0,106
3,68,107,0
3,68,0,72
3,66,107,0
3,66,0,116
3,68,107,0
3,68,0,42
3,68,107,0
3,68,0,96
3,68,107,0
3,68,0,60
3,68,107,0
3,68,0,117
3,66,107,0
3,66,0,140
3,64,107,0
3,64,0,85
3,66,107,0
3,66,0,73
3,64,107,0
3,64,0,62
3,61,107,0
3,61,0,507
3,69,107,0
3,69,0,60
3,69,107,0
3,69,0,60
3,70,107,0
3,70,0,45
3,70,107,0
3,70,0,133
3,75,107,0
3,75,0,58
3,73,107,0
3,70,107,0
3,73,0,1
3,70,0,31
3,68,107,0
3,68,0,25
3,66,107,0
3,66,0,158
3,63,107,0
3,63,0,46
3,66,107,0
3,68,107,0
3,66,0,1
3,68,0,61
3,70,107,0
3,70,0,88
3,70,107,0
3,70,0,41
3,70,107,0
3,70,0,167
3,75,107,0
3,73,107,0
3,75,0,2
3,70,107,0
3,73,0,1
3,70,0,26
3,68,107,0
3,68,0,22
3,66,107,0
3,66,0,180
3,63,107,0
3,63,0,55
3,66,107,0
3,66,0,107
3,68,107,0
3,68,0,55
3,70,107,0
3,70,0,457
3,70,107,0
3,70,0,58
3,66,107,5
3,66,0,51
3,68,107,0
3,68,0,56
3,66,107,0
3,66,0,120
3,63,107,0
3,63,0,98
3,66,107,14
3,66,0,56
3,70,107,0
3,70,0,56
3,66,107,4
3,66,0,36
3,68,107,0
3,68,0,36
3,66,107,0
3,66,0,187
3,70,107,0
3,70,0,53
3,66,107,9
3,66,0,37
3,68,107,0
3,68,0,53
3,66,107,0
3,66,0,117
3,66,107,0
3,66,0,45
3,73,107,0
3,73,0,106
3,70,107,0
3,70,0,72
3,68,107,0
3,68,0,116
3,70,107,0
3,70,0,42
3,70,107,0
3,70,0,96
3,70,107,0
3,70,0,60
3,70,107,0
3,70,0,117
3,68,107,0
3,68,0,140
3,66,107,0
3,66,0,85
3,68,107,0
3,68,0,73
3,66,107,0
3,66,0,62
3,63,107,0
3,63,0,507
3,70,107,0
3,70,0,45
3,70,107,0
3,70,0,133
3,75,107,0
3,75,0,58
3,73,107,0
3,70,107,0
3,73,0,1
3,70,0,31
3,68,107,0
3,68,0,25
3,66,107,0
3,66,0,158
3,63,107,0
3,63,0,46
3,66,107,0
3,68,107,0
3,66,0,1
3,68,0,61
3,70,107,0
3,70,0,88
3,70,107,0
3,70,0,41
3,70,107,0
3,70,0,167
3,73,107,0
3,75,107,0
3,73,0,3
3,73,107,0
3,75,0,2
3,70,107,0
3,73,0,1
3,70,0,26
3,68,107,0
3,68,0,22
3,66,107,0
3,66,0,180
3,63,107,0
3,63,0,55
3,66,107,0
3,66,0,107
3,68,107,0
3,68,0,55
3,70,107,0
3,70,0,457
3,68,107,0
3,68,0,58
3,70,107,0
3,70,0,58
3,66,107,0
3,66,0,51
3,68,107,0
3,68,0,56
3,66,107,0
3,66,0,120
3,63,107,0
3,63,0,98
3,66,107,0
3,66,0,56
3,70,107,0
3,70,0,56
3,66,107,0
3,66,0,36
3,68,107,0
3,68,0,36
3,66,107,0
3,66,0,187
3,70,107,0
3,70,0,53
3,66,107,0
3,66,0,37
3,68,107,0
3,68,0,53
3,66,107,0
3,66,0,117
3,63,107,0
3,63,0,111
3,73,107,0
3,73,0,106
3,70,107,0
3,70,0,72
3,68,107,0
3,68,0,116
3,70,107,0
3,70,0,42
3,70,107,0
3,70,0,96
3,70,107,0
3,70,0,60
3,70,107,0
3,70,0,117
3,68,107,0
3,68,0,140
3,66,107,0
3,66,0,85
3,68,107,0
3,68,0,73
3,66,107,0
3,66,0,62
3,63,107,0
3,63,0,507
3,66,107,0
3,66,0,85
3,68,107,0
3,68,0,73
3,66,107,0
3,66,0,62
3,63,107,4
3,63,0,507
3,66,107,0
3,66,0,85
3,68,107,0
3,68,0,73
3,66,107,0
3,66,0,62
3,63,107,4
3,63,0,507
3,66,107,0
3,66,0,85
3,68,107,0
3,68,0,73
3,66,107,0
3,66,0,239
4,79,100,4550
4,79,0,29
4,79,100,1
4,79,0,29
4,82,100,1
4,82,0,59
4,84,100,1
4,84,0,29
4,79,100,211
4,79,0,59
4,77,100,64
4,77,0,29
4,75,100,30
4,72,100,61
4,75,0,1
4,72,0,47
4,84,100,299
4,82,100,31
4,84,0,7
4,84,100,27
4,82,0,4
4,84,0,25
4,77,100,99
4,77,0,46
4,80,100,8
4,80,0,36
4,84,100,23
4,84,0,28
4,79,100,34
4,79,0,38
4,83,100,20
4,83,0,33
4,86,100,28
4,86,0,33
4,89,100,29
4,91,100,55
4,89,0,1
4,91,0,22
4,79,100,523
4,79,0,29
4,77,100,157
4,77,0,29
4,75,100,145
4,75,0,89
4,65,100,511
4,68,100,54
4,65,0,1
4,68,0,39
4,72,100,26
4,72,0,31
4,67,100,29
4,67,0,38
4,71,100,22
4,71,0,32
4,74,100,17
4,74,0,35
4,77,100,36
4,79,100,49
4,77,0,7
4,79,0,25
4,65,100,7239
4,68,100,54
4,65,0,1
4,68,0,39
4,72,100,26
4,72,0,31
4,67,100,29
4,67,0,38
4,71,100,22
4,71,0,32
4,74,100,17
4,74,0,35
4,77,100,36
4,79,100,49
4,77,0,7
4,79,0,25
4,84,100,2317
4,84,0,18
4,82,100,10
4,82,0,26
4,84,100,2
4,86,100,36
4,84,0,6
4,86,0,23
4,87,100,1
4,87,0,475
4,77,100,488
4,77,0,46
4,80,100,8
4,80,0,36
4,84,100,23
4,84,0,28
4,79,100,34
4,79,0,38
4,83,100,20
4,83,0,33
4,86,100,28
4,86,0,33
4,89,100,29
4,91,100,55
4,89,0,1
4,91,0,22
4,84,100,333
4,82,100,32
4,84,0,2
4,84,100,24
4,82,0,7
4,84,0,29
4,87,100,273
4,86,100,28
4,87,0,5
4,86,0,29
4,87,100,0
4,86,100,29
4,87,0,4
4,87,100,21
4,86,0,1
4,86,100,29
4,87,0,4
4,87,100,26
4,86,0,3
4,87,0,29
4,91,100,335
4,89,100,51
4,91,0,9
4,89,0,39
4,87,100,21
4,87,0,46
4,84,100,11
4,84,0,35
4,84,100,268
4,82,100,53
4,84,0,5
4,82,0,23
4,79,100,39
4,79,0,48
4,77,100,1
4,77,0,25
4,77,100,526
4,77,0,40
4,80,100,10
4,80,0,33
4,84,100,37
4,84,0,30
4,79,100,23
4,79,0,43
4,83,100,24
4,83,0,29
4,86,100,23
4,86,0,31
4,91,100,37
4,91,0,27
4,89,100,3
4,89,0,27
4,91,100,3
4,91,0,27
4,66,100,513
4,69,100,54
4,66,0,1
4,69,0,39
4,73,100,26
4,73,0,31
4,68,100,29
4,68,0,38
4,72,100,22
4,72,0,32
4,75,100,17
4,75,0,35
4,78,100,36
4,80,100,49
4,78,0,7
4,80,0,25
4,85,100,43
4,83,100,476
4,85,0,10
4,81,100,470
4,83,0,7
4,80,100,472
4,81,0,4
4,85,100,477
4,80,0,9
4,85,0,470
4,83,100,1
4,83,0,479
4,81,100,1
4,81,0,479
4,80,100,481
4,80,0,237
4,76,100,3
4,76,0,71
4,78,100,0
4,76,100,109
4,78,0,10
4,76,0,47
4,80,100,3
4,80,0,113
4,88,100,7
4,85,100,115
4,88,0,9
4,85,0,227
4,92,100,249
4,90,100,51
4,92,0,9
4,90,0,39
4,88,100,21
4,88,0,46
4,85,100,11
4,85,0,35
4,85,100,268
4,83,100,53
4,85,0,5
4,83,0,23
4,80,100,39
4,80,0,48
4,78,100,1
4,78,0,25
4,78,100,526
4,78,0,40
4,81,100,10
4,81,0,33
4,85,100,37
4,85,0,30
4,80,100,23
4,80,0,43
4,84,100,24
4,84,0,29
4,87,100,23
4,87,0,31
4,92,100,37
4,92,0,27
4,90,100,3
4,90,0,27
4,92,100,3
4,92,0,27
4,67,100,513
4,70,100,54
4,67,0,1
4,70,0,39
4,74,100,26
4,74,0,31
4,69,100,29
4,69,0,38
4,73,100,22
4,73,0,32
4,76,100,17
4,76,0,35
4,79,100,36
4,81,100,49
4,79,0,7
4,81,0,25
4,81,100,39
4,81,0,598
4,86,100,2
4,86,0,57
4,84,100,3
4,86,100,60
4,84,0,10
4,84,100,50
4,86,0,11
4,84,0,47
4,81,100,2
4,81,0,49
4,79,100,11
4,77,100,60
4,79,0,8
4,74,100,172
4,77,0,22
4,77,100,38
4,74,0,5
4,79,100,55
4,77,0,5
4,81,100,115
4,79,0,3
4,81,0,107
4,76,100,10
4,76,0,34
4,79,100,26
4,79,0,34
4,81,100,26
4,81,0,106
4,76,100,14
4,76,0,37
4,79,100,23
4,81,100,60
4,79,0,6
4,81,0,20
4,86,100,34
4,93,100,420
4,86,0,1
4,86,100,179
4,93,0,3
4,86,0,55
4,84,100,2
4,86,100,60
4,84,0,7
4,84,100,53
4,86,0,4
4,81,100,56
4,84,0,6
4,81,0,50
4,79,100,4
4,77,100,60
4,79,0,9
4,74,100,171
4,77,0,17
4,77,100,43
4,74,0,6
4,79,100,54
4,77,0,3
4,81,100,117
4,79,0,2
4,81,0,112
4,76,100,6
4,76,0,44
4,79,100,16
4,79,0,49
4,81,100,11
4,76,100,120
4,81,0,2
4,79,100,58
4,76,0,4
4,81,100,56
4,79,0,13
4,81,0,11
4,86,100,36
4,84,100,30
4,86,0,1
4,86,100,29
4,84,0,7
4,86,0,21
4,86,100,152
4,84,100,30
4,86,0,6
4,86,100,24
4,84,0,8
4,86,0,24
4,86,100,148
4,84,100,30
4,86,0,3
4,86,100,27
4,84,0,6
4,86,0,21
4,86,100,153
4,84,100,30
4,86,0,2
4,86,100,28
4,84,0,8
4,86,0,22
4,86,100,150
4,84,100,30
4,86,0,7
4,86,100,23
4,84,0,5
4,86,0,32
4,86,100,143
4,84,100,30
4,86,0,4
4,86,100,26
4,84,0,8
4,86,0,22
4,86,100,150
4,84,100,30
4,86,0,7
4,86,100,23
4,84,0,7
4,86,0,22
4,86,100,151
4,84,100,30
4,86,0,8
4,86,100,22
4,84,0,11
4,86,0,26
4,86,100,143
4,84,100,30
4,86,0,2
4,86,100,28
4,84,0,12
4,86,0,16
4,86,100,152
4,84,100,30
4,86,0,3
4,86,100,27
4,84,0,7
4,86,0,23
4,79,100,150
4,79,0,33
4,83,100,27
4,83,0,30
4,86,100,30
4,86,0,22
4,81,100,38
4,81,0,33
4,85,100,27
4,85,0,29
4,88,100,31
4,88,0,28
4,93,100,32
4,91,100,30
4,93,0,10
4,91,0,20
4,93,100,0
4,93,0,24
4,86,100,36
4,86,0,111
4,74,100,9
4,74,0,26
4,74,100,28
4,74,0,31
4,77,100,35
4,77,0,40
4,74,100,12
4,74,0,36
4,77,100,32
4,77,0,40
4,81,100,5
4,81,0,28
4,80,100,47
4,80,0,38
4,83,100,9
4,83,0,31
4,87,100,42
4,87,0,30
4,82,100,30
4,82,0,46
4,86,100,14
4,86,0,38
4,89,100,11
4,89,0,26
4,94,100,45
4,94,0,90
4,68,100,7230
4,71,100,54
4,68,0,1
4,71,0,39
4,75,100,26
4,75,0,31
4,70,100,29
4,70,0,38
4,74,100,22
4,74,0,32
4,77,100,17
4,77,0,35
4,80,100,36
4,82,100,49
4,80,0,7
4,82,0,25
4,87,100,2317
4,87,0,18
4,85,100,10
4,85,0,26
4,87,100,2
4,89,100,36
4,87,0,6
4,89,0,23
4,90,100,1
4,90,0,475
4,80,100,488
4,80,0,46
4,83,100,8
4,83,0,36
4,87,100,23
4,87,0,28
4,82,100,34
4,82,0,38
4,86,100,20
4,86,0,33
4,89,100,28
4,89,0,33
4,92,100,29
4,94,100,55
4,92,0,1
4,94,0,22
4,87,100,333
4,85,100,32
