track,note,velocity,time
0,42,127,1112
0,42,74,0
0,36,120,8
0,49,120,0
0,69,85,0
0,54,85,0
0,41,114,0
0,47,107,0
0,66,86,0
0,69,104,0
0,78,101,0
0,62,86,0
0,59,84,0
0,62,82,0
0,66,83,0
0,83,120,0
0,83,120,0
0,71,120,0
0,54,25,20
0,75,60,8
0,78,70,12
0,66,70,0
0,77,80,0
0,65,80,0
0,69,85,12
0,75,70,0
0,54,85,0
0,63,120,0
0,40,123,0
0,76,80,0
0,64,80,0
0,54,25,76
0,35,90,8
0,75,60,8
0,38,120,60
0,75,70,0
0,54,85,0
0,38,127,0
0,83,120,0
0,54,25,44
0,36,120,84
0,54,85,0
0,35,123,0
0,54,25,44
0,75,70,20
0,69,85,60
0,54,85,0
0,38,113,0
0,83,120,0
0,28,70,56
0,54,25,0
0,36,120,84
0,69,85,0
0,54,85,0
0,54,25,100
0,41,127,8
0,38,120,32
0,54,85,0
0,45,80,0
0,83,120,0
0,54,25,48
0,69,85,84
0,54,85,0
0,54,25,100
0,75,70,20
0,36,120,20
0,69,85,0
0,54,85,0
0,30,122,0
0,42,119,0
0,64,104,0
0,76,97,0
0,61,92,0
0,69,98,0
0,57,84,0
0,57,89,0
0,61,91,0
0,64,83,0
0,83,120,0
0,59,98,48
0,54,25,8
0,75,60,8
0,69,85,56
0,75,70,0
0,54,85,0
0,63,120,0
0,59,95,92
0,54,25,8
0,75,60,20
0,30,114,0
0,38,120,36
0,75,70,0
0,54,85,0
0,83,120,0
0,47,92,40
0,54,25,8
0,36,120,56
0,54,85,0
0,30,123,0
0,57,89,0
0,59,83,56
0,54,25,8
0,75,70,8
0,30,122,0
0,69,85,56
0,54,85,0
0,83,120,0
0,71,120,0
0,59,115,0
0,54,94,40
0,54,25,8
0,33,127,20
0,36,120,4
0,69,85,0
0,54,85,0
0,30,120,0
0,54,88,0
0,69,120,0
0,57,115,0
0,47,87,48
0,54,25,8
0,38,120,56
0,54,85,0
0,45,80,0
0,30,127,0
0,47,83,0
0,83,120,0
0,71,120,0
0,71,120,0
0,59,120,0
0,74,120,36
0,74,120,0
0,62,120,0
0,54,25,8
0,69,85,72
0,54,85,0
0,30,118,0
0,54,25,44
0,75,70,20
0,36,120,20
0,69,85,0
0,54,85,0
0,41,123,0
0,47,100,0
0,62,95,0
0,66,96,0
0,78,98,0
0,69,91,0
0,59,83,0
0,62,85,0
0,66,85,0
0,83,120,0
0,54,25,8
0,75,60,8
0,69,85,60
0,75,70,0
0,54,85,0
0,63,120,0
0,40,115,0
0,54,25,100
0,35,90,8
0,75,60,8
0,38,120,60
0,75,70,0
0,54,85,0
0,38,121,0
0,83,120,0
0,54,25,56
0,36,120,24
0,54,85,0
0,35,122,0
0,54,25,100
0,75,70,8
0,69,85,60
0,54,85,0
0,38,115,0
0,83,120,0
0,28,70,56
0,54,25,0
0,36,120,84
0,69,85,0
0,54,85,0
0,54,25,100
0,35,112,8
0,38,120,64
0,54,85,0
0,45,80,0
0,83,120,0
0,54,25,48
0,69,85,84
0,54,85,0
0,33,119,0
0,54,25,44
0,75,70,20
0,35,122,0
0,36,120,4
0,69,85,0
0,54,85,0
0,28,114,0
0,40,104,0
0,59,95,0
0,62,89,0
0,74,96,0
0,67,86,0
0,57,84,0
0,55,93,0
0,83,120,0
0,59,81,48
0,54,25,8
0,75,60,8
0,69,85,56
0,75,70,0
0,54,85,0
0,63,120,0
0,30,127,0
0,59,93,92
0,54,25,8
0,75,60,8
0,38,120,56
0,75,70,0
0,54,85,0
0,31,124,0
0,83,120,0
0,47,88,48
0,54,25,8
0,36,120,56
0,54,85,0
0,33,127,0
0,57,81,0
0,59,83,56
0,54,25,8
0,75,70,8
0,34,111,0
0,69,85,4
0,54,85,0
0,35,126,0
0,83,120,0
0,76,120,0
0,64,120,0
0,59,89,48
0,54,25,8
0,36,120,56
0,69,85,0
0,54,85,0
0,37,127,0
0,59,89,0
0,47,95,24
0,54,25,8
0,38,120,8
0,54,85,0
0,45,80,0
0,38,125,0
0,47,90,0
0,83,120,0
0,54,25,44
0,40,119,20
0,69,85,64
0,54,85,0
0,74,120,8
0,62,120,0
0,40,120,8
0,54,25,0
0,75,70,8
0,36,120,20
0,49,120,0
0,69,85,0
0,54,85,0
0,41,122,0
0,47,112,0
0,66,102,0
0,78,98,0
0,69,95,0
0,62,101,0
0,66,89,0
0,83,120,0
0,54,25,16
0,75,60,8
0,69,85,60
0,75,70,0
0,54,85,0
0,63,120,0
0,40,127,0
0,54,25,100
0,35,90,8
0,75,60,8
0,38,120,60
0,75,70,0
0,54,85,0
0,38,127,0
0,83,120,0
0,54,25,44
0,36,120,84
0,54,85,0
0,35,124,0
0,54,25,44
0,75,70,20
0,69,85,60
0,54,85,0
0,38,117,0
0,83,120,0
0,28,70,56
0,54,25,0
0,36,120,84
0,69,85,0
0,54,85,0
0,54,25,100
0,41,126,8
0,38,120,64
0,54,85,0
0,45,80,0
0,83,120,0
0,54,25,48
0,69,85,72
0,54,85,0
0,54,25,100
0,75,70,20
0,36,120,20
0,69,85,0
0,54,85,0
0,30,111,0
0,42,101,0
0,61,99,0
0,64,88,0
0,76,94,0
0,69,86,0
0,57,97,0
0,57,99,0
0,61,85,0
0,64,81,0
0,83,120,0
0,59,98,48
0,54,25,8
0,75,60,8
0,69,85,56
0,75,70,0
0,54,85,0
0,63,120,0
0,59,98,92
0,54,25,8
0,75,60,20
0,30,127,0
0,38,120,56
0,75,70,0
0,54,85,0
0,83,120,0
0,47,85,40
0,54,25,8
0,36,120,56
0,54,85,0
0,30,120,0
0,57,83,0
0,59,97,56
0,54,25,8
0,75,70,8
0,30,120,0
0,69,85,56
0,54,85,0
0,83,120,0
0,71,120,0
0,59,115,0
0,54,93,40
0,54,25,8
0,33,115,20
0,36,120,4
0,69,85,0
0,54,85,0
0,30,122,0
0,54,86,0
0,69,120,0
0,57,115,0
0,47,86,48
0,54,25,8
0,38,120,56
0,54,85,0
0,45,80,0
0,30,127,0
0,47,91,0
0,83,120,0
0,71,120,0
0,71,120,0
0,59,120,0
0,74,120,36
0,74,120,0
0,62,120,0
0,54,25,8
0,69,85,72
0,54,85,0
0,30,111,0
0,54,25,44
0,75,70,20
0,36,120,20
0,69,85,0
0,54,85,0
0,41,118,0
0,47,119,0
0,69,86,0
0,62,104,0
0,78,96,0
0,66,93,0
0,59,89,0
0,62,93,0
0,66,80,0
0,83,120,0
0,54,25,32
0,75,60,8
0,69,85,60
0,75,70,0
0,54,85,0
0,63,120,0
0,40,125,0
0,54,25,100
0,35,90,8
0,75,60,8
0,38,120,60
0,75,70,0
0,54,85,0
0,38,117,0
0,83,120,0
0,54,25,56
0,36,120,72
0,54,85,0
0,35,123,0
0,54,25,100
0,75,70,8
0,69,85,60
0,54,85,0
0,38,119,0
0,83,120,0
0,28,70,56
0,54,25,0
0,36,120,84
0,69,85,0
0,54,85,0
0,54,25,100
0,35,117,8
0,38,120,64
0,54,85,0
0,45,80,0
0,83,120,0
0,54,25,48
0,69,85,84
0,54,85,0
0,33,127,0
0,54,25,44
0,75,70,20
0,35,127,0
0,36,120,4
0,69,85,0
0,54,85,0
0,28,123,0
0,40,114,0
0,59,93,0
0,57,87,0
0,52,86,0
0,55,89,0
0,83,120,0
0,78,120,0
0,66,120,0
0,76,90,12
0,64,90,0
0,74,90,12
0,62,90,0
0,59,89,8
0,54,25,8
0,71,90,0
0,59,90,0
0,75,60,0
0,28,127,0
0,69,85,4
0,75,70,0
0,54,85,0
0,63,120,0
0,30,124,0
0,59,84,92
0,54,25,8
0,75,60,8
0,38,120,56
0,75,70,0
0,54,85,0
0,31,112,0
0,83,120,0
0,76,120,0
0,64,120,0
0,74,90,12
0,62,90,0
0,73,90,16
0,61,90,0
0,47,86,12
0,54,25,8
0,71,90,0
0,59,90,0
0,36,120,56
0,54,85,0
0,33,127,0
0,57,94,0
0,59,95,56
0,54,25,8
0,75,70,8
0,34,120,0
0,69,85,4
0,54,85,0
0,35,126,0
0,83,120,0
0,74,120,0
0,62,120,0
0,59,81,48
0,54,25,8
0,36,120,4
0,69,85,0
0,54,85,0
0,37,120,0
0,59,94,0
0,47,95,56
0,54,25,8
0,38,120,56
0,54,85,0
0,45,80,0
0,38,114,0
0,47,80,0
0,83,120,0
0,64,75,0
0,69,120,0
0,57,120,0
0,54,25,44
0,40,119,20
0,40,120,4
0,69,85,0
0,54,85,0
0,71,120,0
0,59,120,0
0,40,115,4
0,54,25,4
0,75,70,8
0,36,120,4
0,49,120,0
0,69,85,0
0,54,85,0
0,35,124,0
0,54,83,0
0,62,83,0
0,54,25,84
0,75,60,20
0,69,85,8
0,75,70,0
0,54,85,0
0,63,120,0
0,54,25,76
0,35,90,8
0,75,60,8
0,35,123,0
0,38,120,60
0,75,70,0
0,54,85,0
0,54,25,100
0,36,120,72
0,54,85,0
0,35,118,0
0,54,25,100
0,75,70,20
0,69,85,8
0,54,85,0
0,28,70,100
0,54,25,0
0,38,127,20
0,36,120,4
0,69,85,0
0,54,85,0
0,35,120,0
0,54,25,48
0,38,120,84
0,54,85,0
0,45,80,0
0,54,25,100
0,69,85,8
0,54,85,0
0,33,127,0
0,54,25,100
0,75,70,8
0,34,120,0
0,36,120,4
0,69,85,0
0,54,85,0
0,35,127,0
0,52,94,0
0,57,93,0
0,61,86,0
0,54,25,100
0,75,60,20
0,69,85,8
0,75,70,0
0,54,85,0
0,63,120,0
0,54,25,100
0,35,90,8
0,75,60,8
0,35,113,0
0,38,120,60
0,75,70,0
0,54,85,0
0,54,25,48
0,36,120,84
0,54,85,0
0,33,118,0
0,54,25,100
0,75,70,8
0,35,121,0
0,69,85,60
0,54,85,0
0,28,70,100
0,54,25,0
0,36,120,72
0,69,85,0
0,54,85,0
0,35,119,0
0,54,25,100
0,38,120,8
0,54,85,0
0,45,80,0
0,38,114,0
0,64,75,0
0,54,25,4
0,69,85,12
0,54,85,0
0,54,25,16
0,75,70,8
0,36,120,4
0,69,85,0
0,54,85,0
0,35,123,0
0,54,87,0
0,59,96,0
0,62,89,0
0,54,25,84
0,75,60,20
0,69,85,8
0,75,70,0
0,54,85,0
0,63,120,0
0,54,25,76
0,35,90,8
0,75,60,8
0,35,121,0
0,38,120,60
0,75,70,0
0,54,85,0
0,54,25,100
0,36,120,72
0,54,85,0
0,35,112,0
0,54,25,100
0,75,70,20
0,69,85,8
0,54,85,0
0,28,70,100
0,54,25,0
0,38,121,20
0,36,120,4
0,69,85,0
0,54,85,0
0,35,123,0
0,54,25,48
0,38,120,84
0,54,85,0
0,45,80,0
0,54,25,100
0,69,85,8
0,54,85,0
0,33,112,0
0,54,25,100
0,75,70,8
0,34,113,0
0,36,120,4
0,69,85,0
0,54,85,0
0,35,127,0
0,52,83,0
0,57,93,0
0,61,91,0
0,54,25,100
0,75,60,20
0,69,85,8
0,75,70,0
0,54,85,0
0,63,120,0
0,54,25,100
0,35,90,8
0,75,60,8
0,35,118,0
0,38,120,60
0,75,70,0
0,54,85,0
0,54,25,48
0,36,120,84
0,54,85,0
0,33,118,0
0,54,25,100
0,75,70,8
0,35,119,0
0,69,85,60
0,54,85,0
0,28,70,100
0,54,25,0
0,36,120,72
0,69,85,0
0,54,85,0
0,35,113,0
0,54,25,100
0,38,120,8
0,54,85,0
0,45,80,0
0,38,127,0
0,64,75,0
0,54,25,4
0,69,85,12
0,54,85,0
0,54,25,16
0,75,70,8
0,36,120,4
0,69,85,0
0,54,85,0
0,35,124,0
0,54,80,0
0,59,92,0
0,62,93,0
0,54,25,84
0,75,60,20
0,69,85,8
0,75,70,0
0,54,85,0
0,63,120,0
0,54,25,76
0,35,90,8
0,75,60,8
0,35,127,0
0,38,120,60
0,75,70,0
0,54,85,0
0,54,25,48
0,35,124,20
0,36,120,4
0,54,85,0
0,33,121,0
0,54,25,100
0,75,70,8
0,35,124,0
0,69,85,60
0,54,85,0
0,28,70,48
0,54,25,0
0,38,113,20
0,36,120,4
0,69,85,0
0,54,85,0
0,35,124,0
0,54,25,48
0,38,120,8
0,54,85,0
0,45,80,0
0,42,112,0
0,54,25,44
0,40,117,20
0,69,85,4
0,54,85,0
0,40,113,0
0,54,25,100
0,75,70,8
0,38,116,0
0,36,120,4
0,69,85,0
0,54,85,0
0,35,127,0
0,52,99,0
0,57,80,0
0,61,87,0
0,54,25,100
0,75,60,20
0,69,85,8
0,75,70,0
0,54,85,0
0,63,120,0
0,54,25,100
0,35,90,8
0,75,60,8
0,35,111,0
0,38,120,4
0,75,70,0
0,54,85,0
0,35,122,0
0,54,25,100
0,36,120,72
0,54,85,0
0,33,126,0
0,54,25,100
0,75,70,8
0,35,112,0
0,69,85,60
0,54,85,0
0,28,70,100
0,54,25,0
0,36,120,72
0,69,85,0
0,54,85,0
0,35,125,0
0,54,25,100
0,38,120,8
0,54,85,0
0,45,80,0
0,30,111,0
0,64,75,0
0,54,25,4
0,69,85,52
0,54,85,0
0,54,25,16
0,75,70,8
0,36,120,4
0,69,85,0
0,54,85,0
0,35,120,0
0,54,88,0
0,59,94,0
0,62,96,0
0,54,25,84
0,75,60,20
0,69,85,8
0,75,70,0
0,54,85,0
0,63,120,0
0,54,25,76
0,35,90,8
0,75,60,8
0,35,127,0
0,38,120,60
0,75,70,0
0,54,85,0
0,54,25,48
0,35,123,20
0,36,120,4
0,54,85,0
0,33,124,0
0,54,25,100
0,75,70,8
0,35,120,0
0,69,85,60
0,54,85,0
0,28,70,48
0,54,25,0
0,38,114,20
0,36,120,4
0,69,85,0
0,54,85,0
0,35,127,0
0,54,25,48
0,38,120,8
0,54,85,0
0,45,80,0
0,42,112,0
0,54,25,44
0,40,112,20
0,69,85,4
0,54,85,0
0,40,118,0
0,54,25,100
0,75,70,8
0,38,124,0
0,36,120,4
0,69,85,0
0,54,85,0
0,35,120,0
0,52,99,0
0,57,83,0
0,61,81,0
0,54,25,100
0,75,60,20
0,69,85,8
0,75,70,0
0,54,85,0
0,63,120,0
0,54,25,100
0,35,90,8
0,75,60,8
0,35,127,0
0,38,120,4
0,75,70,0
0,54,85,0
0,35,127,0
0,54,25,100
0,36,120,72
0,54,85,0
0,33,123,0
0,54,25,100
0,75,70,8
0,35,125,0
0,69,85,60
0,54,85,0
0,28,70,100
0,54,25,0
0,36,120,72
0,69,85,0
0,54,85,0
0,35,123,0
0,54,25,100
0,38,120,8
0,54,85,0
0,45,80,0
0,30,119,0
0,57,85,0
0,57,87,12
0,57,90,12
0,57,93,4
0,54,25,0
0,57,96,16
0,57,99,32
0,40,120,16
0,69,85,0
0,54,85,0
0,57,103,12
0,57,106,28
0,57,109,32
0,54,25,8
0,57,111,4
0,40,115,0
0,75,70,8
0,57,115,12
0,57,117,0
0,36,120,16
0,69,85,0
0,54,85,0
0,28,112,0
0,40,101,0
0,59,87,0
0,62,99,0
0,67,69,0
0,71,68,0
0,50,90,0
0,55,83,0
0,59,93,0
0,54,25,76
0,75,60,20
0,67,74,0
0,71,65,0
0,69,85,36
0,75,70,0
0,54,85,0
0,63,120,0
0,67,72,0
0,71,66,0
0,54,25,48
0,35,90,8
0,75,60,8
0,28,122,0
0,67,67,0
0,71,73,0
0,38,120,4
0,75,70,0
0,54,85,0
0,28,115,0
0,67,57,0
0,71,57,0
0,59,115,64
0,54,25,8
0,67,61,20
0,71,70,0
0,36,120,8
0,54,85,0
0,67,65,0
0,71,74,0
0,59,124,0
0,54,25,24
0,75,70,20
0,35,127,0
0,69,85,4
0,54,85,0
0,38,112,0
0,67,55,0
0,71,62,0
0,62,120,0
0,28,70,64
0,54,25,0
0,35,126,8
0,67,74,0
0,71,61,0
0,36,120,4
0,69,85,0
0,54,85,0
0,40,125,0
0,67,71,0
0,71,72,0
0,62,124,0
0,54,25,44
0,40,111,4
0,67,68,0
0,71,72,0
0,38,120,8
0,54,85,0
0,45,80,0
0,67,59,0
0,71,68,0
0,67,115,0
0,67,117,8
0,54,25,8
