track,note,velocity,time
0,51,115,89
0,51,0,14
0,60,115,10
0,60,0,14
0,58,115,10
0,51,60,0
0,51,0,14
0,58,0,0
0,55,115,10
0,60,60,0
0,60,0,14
0,55,0,0
0,51,115,10
0,58,60,0
0,58,0,14
0,51,0,0
0,60,115,10
0,55,60,0
0,55,0,14
0,60,0,0
0,58,115,10
0,51,60,0
0,51,0,14
0,58,0,0
0,55,115,10
0,60,60,0
0,60,0,14
0,55,0,0
0,51,115,10
0,58,60,0
0,58,0,14
0,51,0,0
0,60,115,10
0,55,60,0
0,55,0,14
0,60,0,0
0,58,115,10
0,51,60,0
0,51,0,14
0,58,0,0
0,55,115,10
0,60,60,0
0,60,0,14
0,55,0,0
0,51,115,10
0,58,60,0
0,58,0,14
0,51,0,0
0,60,115,10
0,55,60,0
0,55,0,14
0,60,0,0
0,58,107,10
0,58,115,0
0,51,60,0
0,51,0,14
0,58,0,0
0,60,60,10
0,60,0,14
0,67,115,10
0,58,60,0
0,58,0,14
0,67,0,0
0,74,115,10
0,74,0,14
0,70,115,10
0,67,60,0
0,67,0,14
0,70,0,0
0,65,115,10
0,74,60,0
0,74,0,14
0,65,0,0
0,58,0,10
0,67,115,0
0,70,60,0
0,70,0,14
0,67,0,0
0,74,115,10
0,65,60,0
0,65,0,14
0,74,0,0
0,70,115,10
0,67,60,0
0,67,0,14
0,70,0,0
0,65,115,10
0,74,60,0
0,74,0,14
0,65,0,0
0,67,115,10
0,70,60,0
0,70,0,14
0,67,0,0
0,74,115,10
0,65,60,0
0,65,0,14
0,74,0,0
0,70,115,10
0,67,60,0
0,67,0,14
0,70,0,0
0,65,115,10
0,74,60,0
0,74,0,14
0,65,0,0
0,67,115,10
0,70,60,0
0,70,0,14
0,67,0,0
0,74,115,10
0,65,60,0
0,65,0,14
0,74,0,0
0,70,107,10
0,70,115,0
0,67,60,0
0,67,0,14
0,70,0,0
0,65,115,10
0,74,60,0
0,74,0,14
0,65,0,0
0,51,115,10
0,70,60,0
0,70,0,14
0,51,0,0
0,60,115,10
0,65,60,0
0,65,0,14
0,60,0,0
0,58,115,10
0,51,60,0
0,51,0,14
0,58,0,0
0,55,115,10
0,60,60,0
0,60,0,14
0,55,0,0
0,70,0,10
0,51,115,0
0,58,60,0
0,58,0,14
0,51,0,0
0,60,115,10
0,55,60,0
0,55,0,14
0,60,0,0
0,58,115,10
0,51,60,0
0,51,0,14
0,58,0,0
0,55,115,10
0,60,60,0
0,60,0,14
0,55,0,0
0,51,115,10
0,58,60,0
0,58,0,14
0,51,0,0
0,60,115,10
0,55,60,0
0,55,0,14
0,60,0,0
0,58,115,10
0,51,60,0
0,51,0,14
0,58,0,0
0,55,115,10
0,60,60,0
0,60,0,14
0,55,0,0
0,51,115,10
0,58,60,0
0,58,0,14
0,51,0,0
0,60,115,10
0,55,60,0
0,55,0,14
0,60,0,0
0,58,115,10
0,51,60,0
0,51,0,14
0,58,0,0
0,60,60,10
0,60,0,14
0,70,115,10
0,58,60,0
0,58,0,14
0,70,0,0
0,65,115,10
0,65,0,14
0,74,115,10
0,70,60,0
0,70,0,14
0,74,0,0
0,67,115,10
0,65,60,0
0,65,0,14
0,67,0,0
0,70,115,10
0,74,60,0
0,74,0,14
0,70,0,0
0,65,115,10
0,67,60,0
0,67,0,14
0,65,0,0
0,74,115,10
0,70,60,0
0,70,0,14
0,74,0,0
0,67,115,10
0,65,60,0
0,65,0,14
0,67,0,0
0,70,115,10
0,74,60,0
0,74,0,14
0,70,0,0
0,65,115,10
0,67,60,0
0,67,0,14
0,65,0,0
0,74,115,10
0,70,60,0
0,70,0,14
0,74,0,0
0,67,115,10
0,65,60,0
0,65,0,14
0,67,0,0
0,70,115,10
0,74,60,0
0,74,0,14
0,70,0,0
0,65,115,10
0,67,60,0
0,67,0,14
0,65,0,0
0,74,115,10
0,70,60,0
0,70,0,14
0,74,0,0
0,67,115,10
0,65,60,0
0,65,0,14
0,67,0,0
0,55,115,10
0,74,60,0
0,44,110,0
0,44,0,12
0,74,0,2
0,55,0,0
0,58,115,10
0,67,60,0
0,67,0,14
0,58,0,0
0,60,115,10
0,55,60,0
0,46,100,0
0,46,0,12
0,55,0,2
0,60,0,0
0,51,115,10
0,58,60,0
0,70,100,0
0,44,8,4
0,70,0,8
0,51,0,2
0,58,0,0
0,44,0,2
0,55,115,8
0,60,60,0
0,44,110,0
0,44,0,12
0,60,0,2
0,55,0,0
0,58,115,10
0,51,60,0
0,51,0,14
0,58,0,0
0,60,115,10
0,55,60,0
0,46,100,0
0,46,0,12
0,55,0,2
0,60,0,0
0,51,115,10
0,58,60,0
0,70,100,0
0,44,8,4
0,70,0,8
0,51,0,2
0,58,0,0
0,44,0,2
0,55,115,8
0,60,60,0
0,44,110,0
0,44,0,12
0,60,0,2
0,55,0,0
0,58,115,10
0,51,60,0
0,51,0,14
0,58,0,0
0,60,115,10
0,55,60,0
0,46,100,0
0,46,0,12
0,55,0,2
0,60,0,0
0,51,115,10
0,58,60,0
0,70,100,0
0,44,8,4
0,70,0,8
0,51,0,2
0,58,0,0
0,44,0,2
0,55,115,8
0,60,60,0
0,44,110,0
0,44,0,12
0,60,0,2
0,55,0,0
0,58,115,10
0,51,60,0
0,51,0,14
0,58,0,0
0,58,107,10
0,60,115,0
0,55,60,0
0,46,100,0
0,46,0,12
0,55,0,2
0,60,0,0
0,51,115,10
0,58,60,0
0,70,100,0
0,44,8,4
0,70,0,8
0,58,0,2
0,51,0,0
0,44,0,2
0,67,115,8
0,60,60,0
0,44,110,0
0,44,0,12
0,60,0,2
0,67,0,0
0,70,115,10
0,51,60,0
0,51,0,14
0,70,0,0
0,74,115,10
0,67,60,0
0,46,100,0
0,46,0,12
0,67,0,2
0,74,0,0
0,65,115,10
0,70,60,0
0,70,100,0
0,44,8,4
0,70,0,8
0,70,0,2
0,65,0,0
0,44,0,2
0,58,0,8
0,67,115,0
0,74,60,0
0,44,110,0
0,44,0,12
0,74,0,2
0,67,0,0
0,70,115,10
0,65,60,0
0,65,0,14
0,70,0,0
0,74,115,10
0,67,60,0
0,46,100,0
0,46,0,12
0,67,0,2
0,74,0,0
0,65,115,10
0,70,60,0
0,70,100,0
0,44,8,4
0,70,0,8
0,65,0,2
0,70,0,0
0,44,0,2
0,67,115,8
0,74,60,0
0,44,110,0
0,44,0,12
0,74,0,2
0,67,0,0
0,70,115,10
0,65,60,0
0,65,0,14
0,70,0,0
0,74,115,10
0,67,60,0
0,46,100,0
0,46,0,12
0,67,0,2
0,74,0,0
0,65,115,10
0,70,60,0
0,70,100,0
0,44,8,4
0,70,0,8
0,65,0,2
0,70,0,0
0,44,0,2
0,67,115,8
0,74,60,0
0,44,110,0
0,44,0,12
0,74,0,2
0,67,0,0
0,70,115,10
0,65,60,0
0,65,0,14
0,70,0,0
0,70,107,10
0,74,115,0
0,67,60,0
0,46,100,0
0,46,0,12
0,67,0,2
0,74,0,0
0,65,115,10
0,70,60,0
0,70,100,0
0,44,8,4
0,70,0,8
0,70,0,2
0,65,0,0
0,44,0,2
0,55,115,8
0,74,60,0
0,44,110,0
0,44,0,12
0,74,0,2
0,55,0,0
0,58,115,10
0,65,60,0
0,65,0,14
0,58,0,0
0,60,115,10
0,55,60,0
0,46,100,0
0,46,0,12
0,55,0,2
0,60,0,0
0,51,115,10
0,58,60,0
0,70,100,0
0,44,8,4
0,70,0,8
0,58,0,2
0,51,0,0
0,44,0,2
0,70,0,8
0,55,115,0
0,60,60,0
0,44,110,0
0,44,0,12
0,60,0,2
0,55,0,0
0,58,115,10
0,51,60,0
0,51,0,14
0,58,0,0
0,60,115,10
0,55,60,0
0,46,100,0
0,46,0,12
0,55,0,2
0,60,0,0
0,51,115,10
0,58,60,0
0,70,100,0
0,44,8,4
0,70,0,8
0,51,0,2
0,58,0,0
0,44,0,2
0,55,115,8
0,60,60,0
0,44,110,0
0,44,0,12
0,60,0,2
0,55,0,0
0,58,115,10
0,51,60,0
0,51,0,14
0,58,0,0
0,60,115,10
0,55,60,0
0,46,100,0
0,46,0,12
0,55,0,2
0,60,0,0
0,51,115,10
0,58,60,0
0,70,100,0
0,44,8,4
0,70,0,8
0,51,0,2
0,58,0,0
0,44,0,2
0,55,115,8
0,60,60,0
0,44,110,0
0,44,0,12
0,60,0,2
0,55,0,0
0,58,115,10
0,51,60,0
0,51,0,14
0,58,0,0
0,60,115,10
0,55,60,0
0,46,100,0
0,46,0,12
0,55,0,2
0,60,0,0
0,51,115,10
0,58,60,0
0,70,100,0
0,44,8,4
0,70,0,8
0,51,0,2
0,58,0,0
0,44,0,2
0,67,115,8
0,60,60,0
0,44,110,0
0,44,0,12
0,60,0,2
0,67,0,0
0,70,115,10
0,51,60,0
0,51,0,14
0,70,0,0
0,72,115,10
0,67,60,0
0,46,100,0
0,46,0,12
0,67,0,2
0,72,0,0
0,65,115,10
0,70,60,0
0,70,100,0
0,44,8,4
0,70,0,8
0,65,0,2
0,70,0,0
0,44,0,2
0,67,115,8
0,72,60,0
0,44,110,0
0,44,0,12
0,72,0,2
0,67,0,0
0,70,115,10
0,65,60,0
0,65,0,14
0,70,0,0
0,72,115,10
0,67,60,0
0,46,100,0
0,46,0,12
0,67,0,2
0,72,0,0
0,65,115,10
0,70,60,0
0,70,100,0
0,44,8,4
0,70,0,8
0,65,0,2
0,70,0,0
0,44,0,2
0,67,115,8
0,72,60,0
0,44,110,0
0,44,0,12
0,72,0,2
0,67,0,0
0,70,115,10
0,65,60,0
0,65,0,14
0,70,0,0
0,72,115,10
0,67,60,0
0,40,60,0
0,46,100,0
0,46,0,12
0,40,0,0
0,67,0,2
0,72,0,0
0,65,115,10
0,70,60,0
0,40,60,0
0,70,100,0
0,44,8,4
0,70,0,8
0,40,0,0
0,65,0,2
0,70,0,0
0,44,0,2
0,67,115,8
0,72,60,0
0,44,110,0
0,44,0,12
0,72,0,2
0,67,0,0
0,70,115,10
0,65,60,0
0,40,60,0
0,40,0,12
0,65,0,2
0,70,0,0
0,72,115,10
0,67,60,0
0,46,100,0
0,46,0,12
0,67,0,2
0,72,0,0
0,65,115,10
0,70,60,0
0,40,60,0
0,70,100,0
0,28,127,0
0,44,8,4
0,70,0,8
0,40,0,0
0,65,0,2
0,70,0,0
0,44,0,2
0,28,0,2
0,79,110,6
0,51,115,0
0,72,60,0
0,36,120,0
0,44,110,0
0,44,0,12
0,36,0,0
0,79,0,2
0,51,0,0
0,72,0,0
0,77,110,10
0,60,115,0
0,65,60,0
0,65,0,14
0,60,0,0
0,77,0,0
0,82,110,10
0,58,115,0
0,51,60,0
0,46,100,0
0,46,0,12
0,82,0,2
0,58,0,0
0,51,0,0
0,77,110,10
0,55,115,0
0,60,60,0
0,70,100,0
0,44,8,4
0,70,0,8
0,60,0,2
0,77,0,0
0,55,0,0
0,44,0,2
0,84,110,8
0,51,115,0
0,58,60,0
0,36,120,0
0,27,127,0
0,44,110,0
0,44,0,12
0,36,0,0
0,27,0,0
0,84,0,2
0,58,0,0
0,51,0,0
0,86,110,10
0,60,115,0
0,55,60,0
0,55,0,14
0,60,0,0
0,86,0,0
0,79,110,10
0,58,115,0
0,51,60,0
0,46,100,0
0,46,0,12
0,79,0,2
0,58,0,0
0,51,0,0
0,82,110,10
0,55,115,0
0,60,60,0
0,40,80,0
0,70,100,0
0,44,8,4
0,70,0,8
0,40,0,0
0,60,0,2
0,82,0,0
0,55,0,0
0,44,0,2
0,77,110,8
0,51,115,0
0,58,60,0
0,36,120,0
0,44,110,0
0,44,0,12
0,36,0,0
0,77,0,2
0,51,0,0
0,58,0,0
0,84,110,10
0,60,115,0
0,55,60,0
0,55,0,14
0,60,0,0
0,84,0,0
0,86,110,10
0,58,115,0
0,51,60,0
0,46,100,0
0,46,0,12
0,86,0,2
0,58,0,0
0,51,0,0
0,77,110,10
0,55,115,0
0,60,60,0
0,70,100,0
0,44,8,4
0,70,0,8
0,60,0,2
0,77,0,0
0,55,0,0
0,44,0,2
0,82,110,8
0,51,115,0
0,58,60,0
0,36,120,0
0,27,127,0
0,44,110,0
0,44,0,12
0,36,0,0
0,27,0,0
0,82,0,2
0,58,0,0
0,51,0,0
0,77,110,10
0,60,115,0
0,55,60,0
0,55,0,14
0,60,0,0
0,77,0,0
0,84,110,10
0,58,115,0
0,51,60,0
0,46,100,0
0,46,0,12
0,84,0,2
0,58,0,0
0,51,0,0
0,86,110,10
0,60,60,0
0,70,100,0
0,44,8,4
0,70,0,8
0,86,0,2
0,60,0,0
0,44,0,2
0,79,110,8
0,67,115,0
0,58,60,0
0,36,120,0
0,44,110,0
0,44,0,12
0,36,0,0
0,79,0,2
0,67,0,0
0,58,0,0
0,82,110,10
0,74,115,0
0,74,0,14
0,82,0,0
0,77,110,10
0,70,115,0
0,67,60,0
0,46,100,0
0,46,0,12
0,77,0,2
0,70,0,0
0,67,0,0
0,84,110,10
0,65,115,0
0,74,60,0
0,70,100,0
0,44,8,4
0,70,0,8
0,74,0,2
0,84,0,0
0,65,0,0
0,44,0,2
0,86,110,8
0,67,115,0
0,70,60,0
0,36,120,0
0,27,127,0
0,44,110,0
0,44,0,12
0,36,0,0
0,27,0,0
0,86,0,2
0,70,0,0
0,67,0,0
0,77,110,10
0,74,115,0
0,65,60,0
0,65,0,14
0,74,0,0
0,77,0,0
0,82,110,10
0,70,115,0
0,67,60,0
0,46,100,0
0,46,0,12
0,82,0,2
0,70,0,0
0,67,0,0
0,77,110,10
0,65,115,0
0,74,60,0
0,40,80,0
0,70,100,0
0,44,8,4
0,70,0,8
0,40,0,0
0,74,0,2
0,77,0,0
0,65,0,0
0,44,0,2
0,84,110,8
0,67,115,0
0,70,60,0
0,36,120,0
0,44,110,0
0,44,0,12
0,36,0,0
0,84,0,2
0,67,0,0
0,70,0,0
0,77,110,10
0,74,115,0
0,65,60,0
0,40,80,0
0,40,0,12
0,77,0,2
0,74,0,0
0,65,0,0
0,86,110,10
0,70,115,0
0,67,60,0
0,46,100,0
0,46,0,12
0,86,0,2
0,70,0,0
0,67,0,0
0,77,110,10
0,65,115,0
0,74,60,0
0,70,100,0
0,44,8,4
0,70,0,8
0,74,0,2
0,77,0,0
0,65,0,0
0,44,0,2
0,67,115,8
0,70,60,0
0,36,120,0
0,27,127,0
0,44,110,0
0,44,0,12
0,36,0,0
0,27,0,0
0,70,0,2
0,67,0,0
0,82,110,10
0,74,115,0
0,65,60,0
0,65,0,14
0,74,0,0
0,82,0,0
0,84,110,10
0,70,115,0
0,67,60,0
0,46,100,0
0,46,0,12
0,84,0,2
0,70,0,0
0,67,0,0
0,86,110,10
0,65,115,0
0,74,60,0
0,70,100,0
0,44,8,4
0,70,0,8
0,74,0,2
0,86,0,0
0,65,0,0
0,44,0,2
0,79,110,8
0,51,115,0
0,70,60,0
0,36,120,0
0,44,110,0
0,44,0,12
0,36,0,0
0,79,0,2
0,51,0,0
0,70,0,0
0,82,110,10
0,60,115,0
0,65,60,0
0,65,0,14
0,60,0,0
0,82,0,0
0,77,110,10
0,58,115,0
0,51,60,0
0,46,100,0
0,46,0,12
0,77,0,2
0,58,0,0
0,51,0,0
0,84,110,10
0,55,115,0
0,60,60,0
0,70,100,0
0,44,8,4
0,70,0,8
0,60,0,2
0,84,0,0
0,55,0,0
0,44,0,2
0,86,110,8
0,51,115,0
0,58,60,0
0,36,120,0
0,27,127,0
0,44,110,0
0,44,0,12
0,36,0,0
0,27,0,0
0,86,0,2
0,58,0,0
0,51,0,0
0,77,110,10
0,60,115,0
0,55,60,0
0,55,0,14
0,60,0,0
0,77,0,0
0,82,110,10
0,58,115,0
0,51,60,0
0,46,100,0
0,46,0,12
0,82,0,2
0,58,0,0
0,51,0,0
0,77,110,10
0,55,115,0
0,60,60,0
0,40,80,0
0,70,100,0
0,44,8,4
0,70,0,8
0,40,0,0
0,60,0,2
0,77,0,0
0,55,0,0
0,44,0,2
0,84,110,8
0,51,115,0
