track,note,velocity,time
0,44,127,342
0,37,127,0
0,37,0,9
0,44,0,4
0,37,85,47
0,37,0,9
0,44,127,21
0,37,127,0
0,37,0,10
0,44,0,5
0,37,43,15
0,37,0,9
0,37,85,21
0,37,0,10
0,44,127,20
0,37,127,0
0,37,0,13
0,44,0,1
0,37,43,16
0,37,0,10
0,37,85,20
0,37,0,13
0,44,124,17
0,37,127,0
0,44,0,9
0,37,0,5
0,44,104,16
0,37,43,0
0,37,127,0
0,44,0,11
0,37,0,1
0,37,0,1
0,44,104,17
0,37,127,0
0,37,85,0
0,44,0,11
0,37,0,2
0,37,0,1
0,44,112,16
0,37,85,0
0,37,127,0
0,37,0,12
0,44,0,0
0,37,0,2
0,44,115,16
0,37,85,0
0,37,127,0
0,37,43,0
0,37,0,11
0,44,0,2
0,37,0,0
0,37,0,1
0,37,43,16
0,37,85,0
0,37,0,12
0,37,0,2
0,37,43,16
0,37,85,0
0,37,0,11
0,37,0,2
0,44,127,17
0,37,127,0
0,37,43,0
0,37,0,10
0,44,0,3
0,37,0,1
0,37,43,16
0,37,0,11
0,37,85,19
0,37,0,10
0,44,127,20
0,37,127,0
0,37,0,10
0,44,0,3
0,37,43,17
0,37,0,10
0,37,85,20
0,37,0,10
0,44,127,20
0,37,127,0
0,37,0,11
0,44,0,2
0,37,43,17
0,37,0,10
0,37,85,20
0,37,0,11
0,44,127,19
0,37,127,0
0,44,0,10
0,37,0,4
0,44,101,16
0,37,127,0
0,37,43,0
0,37,0,11
0,37,0,0
0,44,0,1
0,44,102,18
0,37,85,0
0,37,127,0
0,37,0,11
0,44,0,1
0,37,0,2
0,44,104,16
0,37,127,0
0,37,85,0
0,37,0,11
0,44,0,1
0,37,0,1
0,44,115,17
0,37,127,0
0,37,43,0
0,37,85,0
0,37,0,8
0,37,0,3
0,44,0,2
0,37,0,1
0,37,43,16
0,37,85,0
0,37,0,11
0,37,0,2
0,37,43,17
0,37,85,0
0,37,0,8
0,37,0,3
0,44,127,19
0,37,43,0
0,37,127,0
0,37,0,9
0,44,0,3
0,37,0,1
0,37,43,17
0,37,0,8
0,37,85,22
0,37,0,9
0,44,127,21
0,37,127,0
0,37,0,10
0,44,0,3
0,37,43,17
0,37,0,9
0,37,85,21
0,37,0,10
0,44,127,20
0,37,127,0
0,37,0,13
0,44,0,0
0,37,43,17
0,37,0,10
0,37,85,20
0,37,0,13
0,44,124,17
0,37,127,0
0,44,0,9
0,37,0,5
0,44,104,16
0,37,43,0
0,37,127,0
0,44,0,11
0,37,0,1
0,37,0,1
0,44,105,17
0,37,127,0
0,37,85,0
0,44,0,12
0,37,0,1
0,37,0,1
0,44,109,16
0,37,85,0
0,37,127,0
0,44,0,11
0,37,0,1
0,37,0,2
0,44,112,16
0,37,85,0
0,37,127,0
0,37,43,0
0,37,0,11
0,44,0,1
0,37,0,1
0,37,0,1
0,37,43,0
0,37,85,0
0,37,0,12
0,37,0,2
0,37,43,16
0,37,85,0
0,37,0,11
0,37,0,2
0,44,127,17
0,37,127,0
0,37,43,0
0,37,0,10
0,44,0,3
0,37,0,1
0,37,43,16
0,37,0,11
0,37,85,19
0,37,0,10
0,44,127,20
0,37,127,0
0,37,0,10
0,44,0,1
0,37,43,19
0,37,0,10
0,37,85,20
0,37,0,10
0,44,127,20
0,37,127,0
0,37,0,11
0,44,0,0
0,37,43,19
0,37,0,10
0,37,85,20
0,37,0,11
0,44,119,19
0,37,127,0
0,44,0,10
0,37,0,4
0,44,100,16
0,37,127,0
0,37,43,0
0,37,0,11
0,37,0,0
0,44,0,1
0,44,101,18
0,37,85,0
0,37,127,0
0,44,0,10
0,37,0,1
0,37,0,3
0,44,104,16
0,37,127,0
0,37,85,0
0,44,0,10
0,37,0,1
0,37,0,2
0,44,124,17
0,37,127,0
0,37,43,0
0,37,85,0
0,37,0,8
0,44,0,3
0,37,0,0
0,37,0,3
0,37,43,16
0,37,85,0
0,37,43,17
0,37,85,0
0,37,0,8
0,37,0,3
0,37,43,19
0,37,127,0
0,44,127,0
0,37,0,9
0,44,0,4
0,37,0,0
0,37,43,17
0,37,0,8
0,40,99,22
0,37,85,0
0,37,0,9
0,40,0,2
0,40,101,19
0,37,127,0
0,44,127,0
0,37,0,10
0,40,0,5
0,44,0,0
0,37,43,15
0,37,0,9
0,37,85,21
0,37,0,10
0,44,127,20
0,37,127,0
0,37,0,13
0,44,0,1
0,37,43,16
0,37,0,10
0,37,85,20
0,37,0,13
0,44,124,17
0,37,127,0
0,44,0,9
0,37,0,5
0,40,115,16
0,37,43,0
0,44,104,0
0,37,127,0
0,40,0,10
0,44,0,1
0,37,0,1
0,37,0,1
0,40,91,17
0,37,85,0
0,44,104,0
0,37,127,0
0,44,0,11
0,40,0,2
0,37,0,0
0,37,0,1
0,37,85,16
0,44,112,0
0,37,127,0
0,44,0,12
0,37,0,0
0,37,0,2
0,37,85,16
0,37,127,0
0,37,43,0
0,44,115,0
0,37,0,11
0,37,0,2
0,44,0,0
0,37,0,1
0,37,85,16
0,37,43,0
0,37,0,12
0,37,0,2
0,37,43,16
0,37,85,0
0,37,0,11
0,37,0,2
0,37,43,17
0,37,127,0
0,44,127,0
0,37,0,10
0,44,0,3
0,37,0,1
0,37,43,16
0,37,0,11
0,40,114,19
0,37,85,0
0,37,0,10
0,40,0,3
0,40,99,17
0,44,127,0
0,37,127,0
0,37,0,10
0,44,0,3
0,40,0,3
0,37,43,14
0,37,0,10
0,37,85,20
0,37,0,10
0,37,127,20
0,44,127,0
0,37,0,11
0,44,0,2
0,37,43,17
0,37,0,10
0,37,85,20
0,37,0,11
0,44,127,19
0,37,127,0
0,44,0,10
0,37,0,4
0,40,127,16
0,37,127,0
0,37,43,0
0,44,101,0
0,37,0,11
0,37,0,0
0,40,0,1
0,44,0,0
0,40,100,18
0,44,102,0
0,37,127,0
0,37,85,0
0,37,0,11
0,40,0,1
0,44,0,0
0,37,0,2
0,37,127,16
0,44,104,0
0,37,85,0
0,37,0,11
0,44,0,1
0,37,0,1
0,44,115,17
0,37,127,0
0,37,43,0
0,37,85,0
0,37,0,8
0,37,0,3
0,44,0,2
0,37,0,1
0,37,85,16
0,37,43,0
0,37,0,11
0,37,0,2
0,37,43,17
0,37,85,0
0,37,0,8
0,37,0,3
0,37,127,19
0,37,43,0
0,44,127,0
0,37,0,9
0,44,0,3
0,37,0,1
0,37,43,17
0,37,0,8
0,40,99,22
0,37,85,0
0,37,0,9
0,40,0,2
0,40,101,19
0,37,127,0
0,44,127,0
0,37,0,10
0,44,0,3
0,40,0,2
0,37,43,15
0,37,0,9
0,37,85,21
0,37,0,10
0,37,127,20
0,44,127,0
0,44,0,13
0,37,0,0
0,37,43,17
0,37,0,10
0,37,85,20
0,37,0,13
0,44,124,17
0,37,127,0
0,44,0,9
0,37,0,5
0,40,115,16
0,37,43,0
0,44,104,0
0,37,127,0
0,40,0,10
0,44,0,1
0,37,0,1
0,37,0,1
0,40,91,17
0,44,105,0
0,37,127,0
0,37,85,0
0,44,0,12
0,40,0,1
0,37,0,0
0,37,0,1
0,37,85,16
0,37,127,0
0,44,109,0
0,44,0,11
0,37,0,1
0,37,0,2
0,37,85,16
0,37,127,0
0,44,112,0
0,37,43,0
0,37,0,11
0,44,0,1
0,37,0,1
0,37,0,1
0,37,43,45
0,37,85,0
0,37,0,8
0,37,0,3
0,37,127,19
0,37,43,0
0,44,127,0
0,37,0,9
0,44,0,3
0,37,0,1
0,37,43,17
0,37,0,8
0,37,85,22
0,40,114,1
0,37,0,8
0,40,0,5
0,37,127,16
0,44,127,0
0,40,99,1
0,37,0,9
0,44,0,3
0,40,0,4
0,37,43,13
0,37,0,9
0,37,85,21
0,37,0,10
0,37,127,20
0,44,127,0
0,44,0,13
0,37,0,0
0,37,43,17
0,37,0,10
0,37,85,20
0,37,0,13
0,44,124,17
0,37,127,0
0,44,0,9
0,37,0,5
0,37,43,16
0,44,104,0
0,37,127,0
0,40,127,1
0,44,0,10
0,37,0,1
0,40,0,1
0,37,0,0
0,44,105,17
0,37,127,0
0,37,85,0
0,40,100,1
0,44,0,11
0,40,0,1
0,37,0,0
0,37,0,1
0,37,85,16
0,37,127,0
0,44,109,0
0,44,0,11
0,37,0,1
0,37,0,2
0,37,85,16
0,37,127,0
0,44,112,0
0,37,43,0
0,37,0,11
0,44,0,1
0,37,0,1
0,37,0,1
0,36,127,17
0,37,43,21
0,37,85,0
0,36,127,1
0,37,0,7
0,36,0,3
0,37,0,0
0,37,127,19
0,37,43,0
0,44,127,0
0,37,0,9
0,44,0,3
0,37,0,1
0,37,43,17
0,37,0,8
0,37,85,22
0,40,99,1
0,37,0,8
0,40,0,3
0,37,127,18
0,44,127,0
0,40,101,1
0,37,0,9
0,44,0,3
0,40,0,3
0,37,43,14
0,36,127,1
0,36,0,5
0,37,0,3
0,37,85,21
0,36,127,1
0,37,0,9
0,36,0,1
0,37,127,19
0,44,127,0
0,44,0,13
0,37,0,0
0,37,43,17
0,37,0,10
0,37,85,20
0,36,127,1
0,36,0,8
0,37,0,4
0,44,124,17
0,37,127,0
0,44,0,9
0,37,0,5
0,37,43,16
0,44,104,0
0,37,127,0
0,40,115,1
0,40,0,10
0,44,0,0
0,37,0,1
0,37,0,1
0,44,105,17
0,37,127,0
0,37,85,0
0,40,91,1
0,44,0,11
0,37,0,1
0,40,0,1
0,37,0,0
0,37,85,16
0,37,127,0
0,44,109,0
0,44,0,11
0,37,0,1
0,37,0,2
0,37,85,16
0,37,127,0
0,44,112,0
0,37,43,0
0,37,0,11
0,44,0,1
0,37,0,1
0,37,0,1
0,36,127,17
0,36,0,8
0,37,43,21
0,37,85,0
0,36,127,1
0,37,0,7
0,36,0,3
0,37,0,0
0,37,127,19
0,37,43,0
0,44,127,0
0,37,0,9
0,44,0,3
0,37,0,1
0,37,43,17
0,37,0,8
0,37,85,22
0,40,114,1
0,37,0,8
0,40,0,5
0,37,127,16
0,44,127,0
0,40,99,1
0,37,0,9
0,44,0,3
0,40,0,4
0,37,43,13
0,36,127,1
0,36,0,8
0,37,0,0
0,37,85,21
0,36,127,1
0,37,0,9
0,36,0,3
0,37,127,17
0,44,127,0
0,44,0,13
0,37,0,0
0,37,43,17
0,37,0,10
0,37,85,20
0,36,127,1
0,36,0,6
0,37,0,6
0,44,124,17
0,37,127,0
0,44,0,9
0,37,0,5
0,37,43,16
0,44,104,0
0,37,127,0
0,40,127,1
0,44,0,10
0,37,0,1
0,40,0,1
0,37,0,0
0,44,105,17
0,37,127,0
0,37,85,0
0,40,100,1
0,44,0,11
0,40,0,1
0,37,0,0
0,37,0,1
0,37,85,16
0,37,127,0
0,44,109,0
0,44,0,11
0,37,0,1
0,37,0,2
0,37,85,16
0,37,127,0
0,44,112,0
0,37,43,0
0,37,0,11
0,44,0,1
0,37,0,1
0,37,0,1
0,36,127,17
0,36,0,8
0,37,43,21
0,37,85,0
0,36,127,1
0,37,0,7
0,36,0,3
0,37,0,0
0,37,127,19
0,37,43,0
0,44,127,0
0,37,0,9
0,44,0,3
0,37,0,1
0,37,43,17
0,37,0,8
0,37,85,22
0,40,99,1
0,37,0,8
0,40,0,3
0,37,127,18
0,44,127,0
0,40,101,1
0,37,0,9
0,44,0,3
0,40,0,3
0,37,43,14
0,36,127,1
0,36,0,5
0,37,0,3
0,37,85,21
0,36,127,1
0,37,0,9
0,36,0,1
0,37,127,19
0,44,127,0
0,44,0,13
0,37,0,0
0,37,43,17
0,37,0,10
0,37,85,20
0,36,127,1
0,36,0,8
0,37,0,4
0,44,124,17
0,37,127,0
0,44,0,9
0,37,0,5
0,37,43,16
0,44,104,0
0,37,127,0
0,40,115,1
0,40,0,10
0,44,0,0
0,37,0,1
0,37,0,1
0,44,105,17
0,37,127,0
0,37,85,0
0,40,91,1
0,44,0,11
0,37,0,1
0,40,0,1
0,37,0,0
0,37,85,16
0,37,127,0
0,44,109,0
0,44,0,11
0,37,0,1
0,37,0,2
0,37,85,16
0,37,127,0
0,44,112,0
0,37,43,0
0,37,0,11
0,44,0,1
0,37,0,1
0,37,0,1
0,36,127,17
0,36,0,8
0,37,43,21
0,37,85,0
0,36,127,1
0,37,0,7
0,36,0,3
0,37,0,0
0,37,127,19
0,37,43,0
0,44,127,0
0,37,0,9
0,44,0,3
0,37,0,1
0,37,43,17
0,37,0,8
0,37,85,22
0,40,114,1
0,37,0,8
0,40,0,5
0,37,127,16
0,44,127,0
0,40,99,1
0,37,0,9
0,44,0,3
0,40,0,4
0,37,43,13
0,36,127,1
0,36,0,8
0,37,0,0
0,37,85,21
0,36,127,1
0,37,0,9
0,36,0,3
0,37,127,17
0,44,127,0
0,44,0,13
0,37,0,0
0,37,43,17
0,37,0,10
0,37,85,20
0,36,127,1
0,36,0,6
0,37,0,6
0,44,124,17
0,37,127,0
0,44,0,9
0,37,0,5
0,37,43,16
0,44,104,0
0,37,127,0
0,40,127,1
0,44,0,10
0,37,0,1
0,40,0,1
0,37,0,0
0,44,105,17
0,37,127,0
0,37,85,0
0,40,100,1
0,44,0,11
0,40,0,1
0,37,0,0
0,37,0,1
0,37,85,16
0,37,127,0
0,44,109,0
0,44,0,11
0,37,0,1
0,37,0,2
0,37,85,16
0,37,127,0
0,44,112,0
0,37,43,0
0,37,0,11
0,44,0,1
0,37,0,1
0,37,0,1
0,36,127,0
0,37,43,21
0,37,85,0
0,36,127,1
0,37,0,7
0,36,0,3
0,37,0,0
0,37,127,19
0,37,43,0
0,44,127,0
0,37,0,9
0,44,0,3
0,37,0,1
0,37,43,17
0,37,0,8
0,37,85,22
0,40,99,1
0,37,0,8
0,40,0,3
0,37,127,18
0,44,127,0
0,40,101,1
0,37,0,9
0,44,0,3
0,40,0,3
0,37,43,14
0,36,127,1
0,36,0,5
0,37,0,3
0,37,85,21
0,36,127,1
0,37,0,9
0,36,0,1
0,37,127,19
0,44,127,0
0,44,0,13
0,37,0,0
0,37,43,17
0,37,0,10
0,37,85,20
0,36,127,1
0,36,0,8
0,37,0,4
0,44,124,17
0,37,127,0
0,44,0,9
0,37,0,5
0,37,43,16
0,44,104,0
0,37,127,0
0,40,115,1
0,40,0,10
0,44,0,0
0,37,0,1
0,37,0,1
0,44,105,17
0,37,127,0
0,37,85,0
0,40,91,1
0,44,0,11
0,37,0,1
0,40,0,1
0,37,0,0
0,37,85,16
0,37,127,0
0,44,109,0
0,44,0,11
0,37,0,1
0,37,0,2
0,37,85,16
0,37,127,0
0,44,112,0
0,37,43,0
0,37,0,11
0,44,0,1
0,37,0,1
0,37,0,1
0,36,127,17
0,36,0,8
0,37,43,21
0,37,85,0
0,36,127,1
0,37,0,7
0,36,0,3
0,37,0,0
0,37,127,19
0,37,43,0
0,44,127,0
0,37,0,9
0,44,0,3
0,37,0,1
0,37,43,17
0,37,0,8
0,37,85,22
0,40,114,1
0,37,0,8
0,40,0,5
0,37,127,16
0,44,127,0
0,40,99,1
0,37,0,9
0,44,0,3
0,40,0,4
0,37,43,13
0,36,127,1
0,36,0,8
0,37,0,0
0,37,85,21
0,36,127,1
0,37,0,9
0,36,0,3
0,37,127,17
0,44,127,0
0,44,0,13
0,37,0,0
0,37,43,17
0,37,0,10
0,37,85,20
0,36,127,1
0,36,0,6
0,37,0,6
0,44,124,17
0,37,127,0
0,44,0,9
0,37,0,5
0,37,43,16
0,44,104,0
0,37,127,0
0,40,127,1
0,44,0,10
0,37,0,1
0,40,0,1
0,37,0,0
0,44,105,17
0,37,127,0
0,37,85,0
0,40,100,1
0,44,0,11
0,40,0,1
0,37,0,0
0,37,0,1
0,37,85,16
0,37,127,0
0,44,109,0
0,44,0,11
0,37,0,1
0,37,0,2
0,37,85,16
0,37,127,0
0,44,112,0
0,37,43,0
0,37,0,11
0,44,0,1
0,37,0,1
0,37,0,1
0,36,127,17
0,36,0,8
0,37,43,21
0,37,85,0
0,36,127,1
0,37,0,7
0,36,0,3
0,37,0,0
