track,note,velocity,time
0,36,107,0
0,46,95,0
0,46,0,43
0,36,0,36
0,42,86,41
0,42,0,44
0,42,90,76
0,40,101,0
0,42,0,39
0,40,0,33
0,42,83,48
0,42,0,33
0,40,95,27
0,40,0,45
0,42,77,15
0,42,0,33
0,36,80,27
0,36,0,49
0,42,86,11
0,42,0,41
0,40,101,79
0,42,101,0
0,42,0,37
0,40,0,20
0,42,95,8
0,42,0,8
0,36,114,0
0,47,80,0
0,47,0,7
0,36,0,42
0,42,95,38
0,42,0,28
0,42,101,6
0,40,107,0
0,42,0,39
0,40,0,6
0,42,80,7
0,42,0,30
0,36,95,0
0,36,0,23
0,42,83,0
0,42,0,19
0,36,95,28
0,36,0,53
0,42,90,7
0,42,0,17
0,42,101,83
0,40,101,0
0,42,0,44
0,40,0,20
0,72,121,47
0,42,101,9
0,42,0,31
0,72,0,4
0,48,90,20
0,36,107,0
0,72,127,0
0,46,101,0
0,48,90,15
0,48,0,1
0,46,0,6
0,48,0,9
0,36,101,11
0,36,101,15
0,36,0,4
0,36,0,6
0,48,74,8
0,42,95,0
0,36,0,7
0,48,74,3
0,48,0,5
0,42,0,9
0,48,0,6
0,48,72,25
0,48,72,8
0,48,0,30
0,48,0,7
0,42,95,0
0,40,101,0
0,36,101,0
0,36,101,3
0,42,0,3
0,40,0,5
0,48,72,2
0,36,0,15
0,48,72,0
0,48,0,3
0,36,0,12
0,48,0,3
0,42,83,8
0,48,69,0
0,48,69,15
0,42,0,11
0,48,0,8
0,36,101,1
0,36,95,0
0,48,0,4
0,36,101,5
0,36,0,24
0,42,77,6
0,48,68,0
0,48,68,15
0,48,0,2
0,36,0,3
0,42,0,5
0,48,0,0
0,36,0,3
0,36,101,19
0,48,71,0
0,48,71,15
0,48,0,17
0,36,0,8
0,48,0,7
0,36,101,1
0,42,95,0
0,36,101,2
0,42,0,7
0,36,0,7
0,48,71,0
0,36,0,15
0,48,71,0
0,48,0,4
0,40,101,11
0,42,101,0
0,36,107,0
0,48,0,4
0,36,107,1
0,42,0,7
0,48,72,20
0,40,0,3
0,36,0,8
0,48,72,1
0,48,0,4
0,36,0,7
0,48,0,1
0,42,101,13
0,48,72,0
0,48,72,15
0,48,0,8
0,48,0,4
0,42,0,0
0,48,62,0
0,48,62,2
0,48,0,3
0,48,0,4
0,42,101,0
0,36,101,0
0,36,107,0
0,36,101,1
0,42,0,3
0,36,0,1
0,48,72,5
0,48,72,2
0,36,0,4
0,48,0,1
0,36,0,1
0,48,0,1
0,36,121,7
0,48,86,0
0,42,101,0
0,48,86,2
0,48,0,5
0,42,0,3
0,48,0,4
0,36,0,8
0,48,83,5
0,48,83,2
0,48,0,1
0,48,0,15
0,36,107,5
0,36,107,1
0,48,74,12
0,48,74,7
0,48,0,2
0,36,0,0
0,48,0,5
0,36,0,0
0,72,0,2
0,36,114,14
0,48,83,0
0,42,107,0
0,48,83,1
0,42,0,17
0,48,0,8
0,36,0,8
0,36,101,6
0,48,0,1
0,36,101,14
0,36,121,0
0,48,74,0
0,42,107,0
0,36,0,2
0,48,74,1
0,36,0,2
0,42,0,8
0,48,0,2
0,36,0,4
0,48,0,8
0,36,107,1
0,36,107,0
0,40,107,21
0,48,71,0
0,36,0,11
0,48,71,1
0,48,0,2
0,36,0,9
0,48,0,5
0,40,0,5
0,40,114,8
0,48,80,0
0,48,80,7
0,48,0,14
0,48,0,15
0,36,114,5
0,36,114,2
0,40,0,8
0,48,72,14
0,36,0,6
0,48,72,2
0,48,0,3
0,36,0,4
0,48,0,7
0,48,83,0
0,40,114,0
0,48,83,3
0,40,0,3
0,48,0,3
0,48,0,5
0,36,114,2
0,36,114,15
0,76,71,0
0,67,58,1
0,72,58,0
0,36,0,7
0,46,95,5
0,48,90,0
0,36,107,0
0,36,0,10
0,48,90,5
0,46,0,28
0,48,0,3
0,36,107,14
0,48,0,1
0,36,107,1
0,36,0,4
0,36,0,36
0,48,74,5
0,42,86,0
0,36,0,10
0,48,74,5
0,48,0,1
0,48,0,15
0,42,0,13
0,48,86,16
0,48,86,15
0,48,0,42
0,40,101,3
0,36,107,0
0,42,90,0
0,48,0,12
0,36,107,3
0,42,0,24
0,48,77,21
0,36,0,9
0,40,0,3
0,48,77,0
0,48,0,2
0,36,0,3
0,48,0,8
0,42,83,28
0,48,86,0
0,48,86,15
0,42,0,18
0,48,0,7
0,48,0,15
0,36,107,5
0,40,95,0
0,36,107,15
0,40,0,30
0,36,0,5
0,48,74,10
0,42,77,0
0,36,0,5
0,48,74,10
0,42,0,18
0,48,0,3
0,48,0,15
0,36,80,9
0,36,107,0
0,36,107,15
0,36,0,34
0,48,77,11
0,42,86,0
0,36,0,2
0,48,77,13
0,36,0,2
0,48,0,3
0,48,0,15
0,42,0,6
0,48,74,19
0,48,74,15
0,48,0,23
0,48,0,15
0,42,101,7
0,40,101,0
0,36,107,0
0,36,107,15
0,42,0,22
0,48,77,23
0,40,0,1
0,36,0,5
0,48,77,9
0,48,0,4
0,36,0,2
0,48,0,13
0,48,86,26
0,42,95,0
0,67,0,3
0,48,86,12
0,48,0,10
0,42,0,10
0,48,0,5
0,76,0,9
0,48,83,11
0,48,83,15
0,72,0,5
0,48,0,15
0,48,0,15
0,72,69,0
0,77,72,5
0,69,65,2
0,36,114,3
0,47,80,0
0,36,121,0
0,36,121,15
0,47,0,13
0,48,80,32
0,36,0,2
0,48,80,13
0,36,0,2
0,48,0,3
0,36,0,2
0,48,0,13
0,48,90,25
0,42,95,0
0,48,90,15
0,48,0,11
0,42,0,2
0,48,0,13
0,48,90,19
0,48,90,15
0,48,0,27
0,48,0,15
0,40,107,3
0,36,107,0
0,42,101,0
0,36,107,15
0,42,0,24
0,48,77,21
0,36,0,5
0,40,0,1
0,48,77,9
0,48,0,3
0,36,0,2
0,48,0,13
0,42,80,27
0,48,90,0
0,69,0,13
0,48,90,2
0,42,0,15
0,48,0,7
0,48,0,15
0,36,95,8
0,36,114,0
0,72,0,12
0,36,114,3
0,77,0,1
0,36,0,27
0,74,68,8
0,36,0,2
0,79,77,1
0,71,60,1
0,42,83,5
0,48,77,0
0,36,0,8
0,48,77,7
0,42,0,17
0,48,0,8
0,48,0,15
0,36,95,5
0,36,107,0
0,36,107,15
0,36,0,38
0,36,0,5
0,42,90,2
0,48,80,0
0,36,0,13
0,48,80,2
0,48,0,6
0,48,0,15
0,42,0,1
0,48,83,23
0,48,83,15
0,48,0,28
0,48,0,15
0,36,107,2
0,40,101,0
0,42,101,0
0,36,107,15
0,42,0,29
0,48,74,16
0,36,0,1
0,40,0,3
0,48,74,11
0,36,0,1
0,48,0,2
0,48,0,15
0,42,101,27
0,48,90,0
0,48,90,15
0,48,0,7
0,79,0,2
0,42,0,7
0,48,0,6
0,71,0,1
0,74,0,12
0,48,95,10
0,48,95,15
0,48,0,22
0,72,68,5
0,67,74,1
0,76,69,0
0,48,0,9
0,46,101,8
0,36,107,0
0,36,107,0
0,36,107,15
0,46,0,25
0,48,80,20
0,36,0,10
0,48,0,5
0,48,80,0
0,36,0,10
0,36,0,0
0,48,0,5
0,48,90,30
0,42,95,0
0,48,90,15
0,48,0,11
0,42,0,3
0,48,0,12
0,48,90,19
0,48,90,15
0,48,0,26
0,48,0,15
0,36,114,4
0,42,95,0
0,40,101,0
0,36,114,15
0,42,0,22
0,40,0,21
0,48,80,2
0,36,0,8
0,48,80,7
0,48,0,1
0,36,0,7
0,48,0,8
0,42,83,29
0,48,90,0
0,48,90,15
0,42,0,16
0,48,0,11
0,48,0,15
0,36,101,3
0,36,95,0
0,36,101,15
0,36,0,24
0,36,0,15
0,42,77,6
0,48,83,0
0,36,0,9
0,48,83,6
0,42,0,17
0,48,0,3
0,48,0,15
0,36,101,10
0,36,107,0
0,36,107,15
0,36,0,37
0,48,80,8
0,42,95,0
0,36,0,8
0,48,80,7
0,48,0,5
0,36,0,3
0,42,0,10
0,48,0,2
0,48,80,25
0,48,80,15
0,48,0,25
0,48,0,15
0,42,101,5
0,36,107,0
0,40,101,0
0,36,107,15
0,42,0,25
0,48,83,20
0,36,0,2
0,40,0,1
0,48,83,12
0,36,0,2
0,48,0,3
0,48,0,15
0,42,101,25
0,48,80,0
0,48,80,15
0,48,0,8
0,42,0,15
0,48,0,0
0,48,90,22
0,48,90,15
0,48,0,41
0,36,107,4
0,36,107,0
0,42,101,0
0,48,0,11
0,36,107,4
0,42,0,22
0,36,0,18
0,48,83,5
0,36,0,7
0,48,83,8
0,48,0,6
0,36,0,1
0,48,0,14
0,48,90,24
0,36,121,0
0,42,101,0
0,48,90,15
0,48,0,11
0,42,0,11
0,48,0,4
0,36,0,14
0,48,80,5
0,48,80,15
0,48,0,22
0,48,0,15
0,36,114,8
0,36,114,15
0,48,80,45
0,36,0,4
0,48,80,11
0,48,0,2
0,36,0,2
0,48,0,13
0,42,107,19
0,36,114,0
0,48,86,0
0,48,86,15
0,48,0,4
0,42,0,1
0,48,0,12
0,36,0,3
0,36,107,6
0,36,107,3
0,36,0,5
0,48,80,11
0,36,121,0
0,42,107,0
0,36,0,4
0,48,80,3
0,48,0,7
0,42,0,5
0,36,0,9
0,48,0,1
0,36,121,8
0,36,121,15
0,36,0,3
0,40,107,0
0,48,80,0
0,36,0,4
0,48,80,0
0,48,0,1
0,48,0,1
0,40,0,4
0,40,114,15
0,48,80,0
0,48,80,4
0,48,0,5
0,48,0,6
0,36,114,3
0,36,114,4
0,40,0,8
0,48,80,9
0,36,0,1
0,48,80,3
0,36,0,1
0,48,0,1
0,48,0,8
0,48,86,10
0,40,114,0
0,48,86,15
0,48,0,1
0,67,0,15
0,48,0,0
0,40,0,6
0,72,0,1
0,76,0,0
0,48,80,22
0,48,80,15
0,48,0,29
0,76,69,5
0,72,68,0
0,48,0,2
0,46,95,1
0,36,107,0
0,36,114,0
0,67,66,4
0,36,114,4
0,46,0,19
0,48,80,3
0,36,0,4
0,48,80,10
0,36,0,4
0,36,0,0
0,48,0,0
0,48,0,15
0,42,86,26
0,48,80,0
0,48,80,15
0,48,0,3
0,48,0,15
0,42,0,11
0,48,74,16
0,48,74,15
0,48,0,20
0,48,0,15
0,40,101,10
0,42,90,0
0,36,114,0
0,36,114,15
0,42,0,24
0,48,80,21
0,36,0,9
0,40,0,3
0,48,80,3
0,48,0,3
0,36,0,6
0,48,0,9
0,42,83,27
0,48,83,0
0,48,83,15
0,42,0,18
0,48,0,1
0,48,0,15
0,36,107,11
0,40,95,0
0,36,107,15
0,40,0,30
0,36,0,3
0,42,77,12
0,48,83,0
0,36,0,3
0,48,83,12
0,42,0,18
0,48,0,3
0,48,0,15
0,36,80,9
0,36,107,0
0,36,107,15
0,36,0,34
0,36,0,7
0,42,86,4
0,48,71,0
0,36,0,11
0,48,0,3
0,48,71,1
0,48,0,14
0,42,0,12
0,48,90,19
0,48,90,15
0,48,0,21
0,48,0,15
0,40,101,9
0,36,114,0
0,42,101,0
0,36,114,15
0,42,0,22
0,36,0,21
0,48,80,2
0,40,0,1
0,36,0,12
0,48,80,2
0,48,0,1
0,48,0,15
0,48,80,29
0,42,95,0
0,67,0,6
0,48,80,9
0,48,0,8
0,42,0,12
0,48,0,3
0,72,0,3
0,76,0,6
0,48,83,13
0,48,83,15
0,48,0,27
0,72,68,8
0,77,74,1
0,48,0,6
0,69,62,1
0,36,114,2
0,36,121,0
0,47,80,0
0,36,121,15
0,47,0,13
0,36,0,31
0,48,80,1
0,36,0,14
0,48,80,1
0,48,0,3
0,36,0,4
0,48,0,11
0,42,95,27
0,48,83,0
0,48,83,15
0,48,0,7
0,42,0,6
0,48,0,9
0,48,86,23
0,48,86,15
0,48,0,18
0,48,0,15
0,42,101,12
0,36,107,0
0,40,107,0
0,36,107,15
0,42,0,24
0,48,80,21
0,36,0,1
0,40,0,5
0,48,80,9
0,36,0,1
0,48,0,1
0,48,0,15
0,42,80,28
0,48,86,0
0,48,86,15
0,69,0,6
0,72,0,4
0,42,0,5
0,77,0,8
0,48,0,1
0,48,0,15
0,36,95,6
0,36,107,0
0,36,107,15
0,36,0,27
0,36,0,1
0,71,68,3
0,74,68,2
0,79,72,0
0,36,0,9
0,48,80,3
0,42,83,0
0,48,80,15
0,42,0,17
0,48,0,8
0,48,0,15
0,36,101,5
0,36,95,0
0,36,101,15
0,36,0,38
0,36,0,1
0,42,90,6
0,48,80,0
0,36,0,9
0,48,80,6
0,48,0,5
0,48,0,15
0,42,0,2
0,48,83,23
0,48,83,15
0,48,0,29
0,48,0,15
0,36,121,1
0,42,101,0
0,40,101,0
0,36,121,15
0,42,0,29
0,36,0,14
0,48,80,2
0,40,0,4
0,36,0,9
0,48,80,2
0,48,0,4
0,48,0,15
0,42,101,26
0,48,80,0
0,48,80,15
0,48,0,3
0,71,0,9
0,42,0,4
0,79,0,0
0,48,0,2
0,74,0,26
0,48,86,1
0,48,86,15
0,48,0,17
0,48,0,15
0,72,71,5
0,67,69,3
0,36,107,5
0,46,101,0
0,36,107,0
0,76,54,2
0,36,107,13
0,46,0,25
0,48,72,20
0,36,0,2
0,48,0,13
0,48,72,0
0,36,0,2
0,36,0,8
0,48,0,5
0,42,95,30
0,48,86,0
0,48,86,15
0,48,0,10
0,42,0,4
0,48,0,11
0,48,83,20
0,48,83,15
0,48,0,19
0,48,0,15
0,42,95,11
0,36,107,0
0,40,101,0
0,36,107,15
0,42,0,22
0,40,0,21
0,48,80,2
0,36,0,7
0,48,0,8
0,48,80,0
0,36,0,7
0,48,0,8
0,48,83,30
0,42,83,0
0,48,83,15
0,42,0,16
0,48,0,4
0,48,0,15
0,36,114,10
0,36,95,0
0,36,114,15
0,36,0,24
0,36,0,12
0,48,83,9
0,42,77,0
0,36,0,6
0,48,83,9
0,42,0,17
0,48,0,4
0,48,0,15
0,36,107,9
0,36,101,0
0,36,107,15
0,36,0,37
0,36,0,8
0,42,95,0
0,48,77,0
0,36,0,15
0,48,77,0
0,48,0,3
0,42,0,15
0,48,0,0
0,48,80,27
0,48,80,15
0,48,0,25
0,48,0,15
0,42,101,5
0,40,101,0
0,36,114,0
0,36,114,15
0,42,0,25
0,36,0,18
0,48,80,2
0,40,0,3
0,36,0,10
0,48,80,2
0,48,0,5
0,48,0,15
0,42,101,25
0,48,74,0
0,48,74,15
0,48,0,9
0,42,0,14
0,48,0,1
0,48,83,21
0,48,83,15
0,48,0,21
0,48,0,15
0,42,101,9
0,36,107,0
0,36,121,0
0,36,121,15
0,42,0,22
0,36,0,18
0,48,80,5
0,36,0,4
0,48,80,11
0,36,0,4
0,48,0,3
0,48,0,15
0,42,101,23
0,48,83,0
0,36,121,0
0,48,83,15
0,48,0,5
0,48,0,15
0,42,0,2
0,36,0,18
0,48,83,5
0,48,83,15
0,48,0,24
0,48,0,15
0,36,107,6
0,36,107,15
0,48,83,45
0,36,0,3
0,48,83,12
0,36,0,3
0,48,0,1
0,48,0,15
0,42,107,26
0,48,83,0
0,36,114,0
0,48,83,15
0,42,0,23
0,48,0,2
0,36,0,14
0,48,0,1
0,36,107,5
0,36,107,15
0,36,0,37
0,36,121,8
0,42,107,0
0,48,86,0
0,36,0,7
0,48,86,8
0,48,0,18
0,42,0,9
0,48,0,6
0,36,0,3
0,36,107,9
0,36,107,15
0,36,0,43
0,48,83,2
0,40,107,0
0,36,0,13
0,48,83,2
0,48,0,6
0,48,0,15
0,40,0,1
0,48,90,23
0,40,114,0
0,48,90,15
0,48,0,34
0,36,107,11
0,48,0,4
0,36,107,11
0,40,0,8
0,48,83,37
0,36,0,1
0,48,83,14
0,36,0,1
0,48,0,1
0,48,0,15
0,40,114,28
0,48,80,0
0,48,80,15
0,48,0,8
0,40,0,14
0,48,0,1
0,67,0,9
0,72,0,3
0,76,0,4
0,67,65,2
0,48,83,4
0,48,83,15
0,48,0,23
0,76,62,5
0,72,69,5
0,67,65,2
0,48,0,3
0,36,107,7
0,36,107,0
0,46,95,0
0,72,69,0
