track,note,velocity,time
1,67,124,1536
1,67,0,67
1,67,124,125
1,67,0,30
1,67,124,162
1,67,0,30
1,67,124,162
1,67,0,30
1,67,124,162
1,67,0,67
1,67,124,125
1,67,0,30
1,67,124,162
1,67,0,30
1,67,124,162
1,67,0,30
1,67,124,162
1,67,0,67
1,67,124,125
1,67,0,30
1,67,124,162
1,67,0,30
1,67,124,162
1,67,0,30
1,67,124,162
1,67,0,67
1,67,124,125
1,67,0,30
1,67,124,162
1,67,0,30
1,67,124,162
1,67,0,30
1,67,124,162
1,67,0,67
1,67,124,125
1,67,0,30
1,67,124,162
1,67,0,30
1,67,124,162
1,67,0,30
1,67,124,162
1,67,0,67
1,67,124,125
1,67,0,30
1,67,124,162
1,67,0,30
1,67,124,162
1,67,0,30
1,67,124,162
1,67,0,67
1,67,124,125
1,67,0,30
1,67,124,162
1,67,0,30
1,67,124,162
1,67,0,30
1,67,124,162
1,67,0,67
1,67,124,125
1,67,0,30
1,67,124,162
1,67,0,30
1,67,124,162
1,67,0,30
1,67,124,162
1,67,0,67
1,67,124,125
1,67,0,30
1,67,124,162
1,67,0,30
1,67,124,162
1,67,0,30
1,67,124,162
1,67,0,67
1,67,124,125
1,67,0,30
1,67,124,162
1,67,0,30
1,67,124,162
1,67,0,30
1,67,124,162
1,67,0,67
1,67,124,125
1,67,0,30
1,67,124,162
1,67,0,30
1,67,124,162
1,67,0,30
1,67,124,162
1,67,0,67
1,67,124,125
1,67,0,30
1,67,124,162
1,67,0,30
1,67,124,162
1,67,0,30
1,67,124,162
1,67,0,67
1,67,124,125
1,67,0,30
1,67,124,162
1,67,0,30
1,67,124,162
1,67,0,30
1,67,124,162
1,67,0,67
1,67,124,125
1,67,0,30
1,67,124,162
1,67,0,30
1,67,124,162
1,67,0,30
1,67,124,162
1,67,0,67
1,67,124,125
1,67,0,30
1,67,124,162
1,67,0,30
1,67,124,162
1,67,0,30
1,67,124,162
1,67,0,67
1,67,124,125
1,67,0,30
1,67,124,162
1,67,0,30
1,67,124,162
1,67,0,30
1,67,124,162
1,67,0,67
1,67,124,125
1,67,0,30
1,67,124,162
1,67,0,30
1,67,124,162
1,67,0,30
1,67,124,162
1,67,0,67
1,67,124,125
1,67,0,30
1,67,124,162
1,67,0,30
1,67,124,162
1,67,0,30
1,67,124,162
1,67,0,67
1,67,124,125
1,67,0,30
1,67,124,162
1,67,0,30
1,67,124,162
1,67,0,30
1,67,124,162
1,67,0,67
1,67,124,125
1,67,0,30
1,67,124,162
1,67,0,30
1,67,124,162
1,67,0,30
1,67,124,162
1,67,0,67
1,67,124,125
1,67,0,30
1,67,124,162
1,67,0,30
1,67,124,162
1,67,0,30
1,67,124,162
1,67,0,67
1,67,124,125
1,67,0,30
1,67,124,162
1,67,0,30
1,67,124,162
1,67,0,30
1,67,124,162
1,67,0,67
1,67,124,125
1,67,0,30
1,67,124,162
1,67,0,30
1,67,124,162
1,67,0,30
1,67,124,162
1,67,0,67
1,67,124,125
1,67,0,30
1,67,124,162
1,67,0,30
1,67,124,162
1,67,0,30
1,67,124,162
1,67,0,67
1,67,124,125
1,67,0,30
1,67,124,162
1,67,0,30
1,67,124,162
1,67,0,30
1,67,124,162
1,67,0,67
1,67,124,125
1,67,0,30
1,67,124,162
1,67,0,30
1,67,124,162
1,67,0,30
1,67,124,162
1,67,0,67
1,67,124,125
1,67,0,30
1,67,124,162
1,67,0,30
1,67,124,162
1,67,0,30
1,67,124,162
1,67,0,67
1,67,124,125
1,67,0,30
1,67,124,162
1,67,0,30
1,67,124,162
1,67,0,30
1,67,124,162
1,67,0,67
1,67,124,125
1,67,0,30
1,67,124,162
1,67,0,30
1,67,124,162
1,67,0,30
1,67,124,162
1,67,0,67
1,67,124,125
1,67,0,30
1,67,124,162
1,67,0,30
1,67,124,162
1,67,0,30
1,67,124,162
1,67,0,67
1,67,124,125
1,67,0,30
1,67,124,162
1,67,0,30
1,67,124,162
1,67,0,30
1,67,124,162
1,67,0,67
1,67,124,125
1,67,0,30
1,67,124,162
1,67,0,30
1,67,124,162
1,67,0,30
1,67,124,162
1,67,0,67
1,67,124,125
1,67,0,30
1,67,124,162
1,67,0,30
1,67,124,162
1,67,0,30
1,67,124,162
1,67,0,67
1,67,124,125
1,67,0,30
1,67,124,162
1,67,0,30
1,67,124,162
1,67,0,30
1,67,124,162
1,67,0,67
1,67,124,125
1,67,0,30
1,67,124,162
1,67,0,30
1,67,124,162
1,67,0,30
1,67,124,162
1,67,0,67
1,67,124,125
1,67,0,30
1,67,124,162
1,67,0,30
1,67,124,162
1,67,0,30
1,67,124,162
1,67,0,67
1,67,124,125
1,67,0,30
1,67,124,162
1,67,0,30
1,67,124,162
1,67,0,30
1,67,124,162
1,67,0,67
1,67,124,125
1,67,0,30
1,67,124,162
1,67,0,30
1,67,124,162
1,67,0,30
1,67,124,162
1,67,0,67
1,67,124,125
1,67,0,30
1,67,124,162
1,67,0,30
1,67,124,162
1,67,0,30
1,67,124,162
1,67,0,67
1,67,124,125
1,67,0,30
1,67,124,162
1,67,0,30
1,67,124,162
1,67,0,30
1,67,124,162
1,67,0,67
1,67,124,125
1,67,0,30
1,67,124,162
1,67,0,30
1,67,124,162
1,67,0,30
1,67,124,162
1,67,0,67
1,67,124,125
1,67,0,30
1,67,124,162
1,67,0,30
1,67,124,162
1,67,0,30
1,67,124,162
1,67,0,67
1,67,124,125
1,67,0,30
1,67,124,162
1,67,0,30
1,67,124,162
1,67,0,30
1,67,124,162
1,67,0,67
1,67,124,125
1,67,0,30
1,67,124,162
1,67,0,30
1,67,124,162
1,67,0,30
1,67,124,162
1,67,0,67
1,67,124,125
1,67,0,30
1,67,124,162
1,67,0,30
1,67,124,162
1,67,0,30
1,67,124,162
1,67,0,67
1,67,124,125
1,67,0,30
1,67,124,162
1,67,0,30
1,67,124,162
1,67,0,30
1,67,124,162
1,67,0,67
1,67,124,125
1,67,0,30
1,67,124,162
1,67,0,30
1,67,124,162
1,67,0,30
1,67,124,162
1,67,0,67
1,67,124,125
1,67,0,30
1,67,124,162
1,67,0,30
1,67,124,162
1,67,0,30
1,67,124,162
1,67,0,67
1,67,124,125
1,67,0,30
1,67,124,162
1,67,0,30
1,67,124,162
1,67,0,30
1,67,124,162
1,67,0,67
1,67,124,125
1,67,0,30
1,67,124,162
1,67,0,30
1,67,124,162
1,67,0,30
1,67,124,162
1,67,0,67
1,67,124,125
1,67,0,30
1,67,124,162
1,67,0,30
1,67,124,162
1,67,0,30
1,67,124,162
1,67,0,67
1,67,124,125
1,67,0,30
1,67,124,162
1,67,0,30
1,67,124,162
1,67,0,30
1,67,124,162
1,67,0,67
1,67,124,125
1,67,0,30
1,67,124,162
1,67,0,30
1,67,124,162
1,67,0,30
1,67,124,162
1,67,0,67
1,67,124,125
1,67,0,30
1,67,124,162
1,67,0,30
1,67,124,162
1,67,0,30
1,67,124,162
1,67,0,67
1,67,124,125
1,67,0,30
1,67,124,162
1,67,0,30
1,67,124,162
1,67,0,30
1,67,124,162
1,67,0,67
1,67,124,125
1,67,0,30
1,67,124,162
1,67,0,30
1,67,124,162
1,67,0,30
1,67,124,162
1,67,0,67
1,67,124,125
1,67,0,30
1,67,124,162
1,67,0,30
1,67,124,162
1,67,0,30
1,67,124,162
1,67,0,67
1,67,124,125
1,67,0,30
1,67,124,162
1,67,0,30
1,67,124,162
1,67,0,30
1,67,124,162
1,67,0,67
1,67,124,125
1,67,0,30
1,67,124,162
1,67,0,30
1,67,124,162
1,67,0,30
1,67,124,162
1,67,0,67
1,67,124,125
1,67,0,30
1,67,124,162
1,67,0,30
1,67,124,162
1,67,0,30
1,67,124,162
1,67,0,67
1,67,124,125
1,67,0,30
1,67,124,162
1,67,0,30
1,67,124,162
1,67,0,30
1,67,124,162
1,67,0,67
1,67,124,125
1,67,0,30
1,67,124,162
1,67,0,30
1,67,124,162
1,67,0,30
1,67,124,162
1,67,0,67
1,67,124,125
1,67,0,30
1,67,124,162
1,67,0,30
1,67,124,162
1,67,0,30
1,67,124,162
1,67,0,67
1,67,124,125
1,67,0,30
1,67,124,162
1,67,0,30
1,67,124,162
1,67,0,30
1,67,124,162
1,67,0,67
1,67,124,125
1,67,0,30
1,67,124,162
1,67,0,30
1,67,124,162
1,67,0,30
1,67,124,162
1,67,0,67
1,67,124,125
1,67,0,30
1,67,124,162
1,67,0,30
1,67,124,162
1,67,0,30
1,67,124,162
1,67,0,67
1,67,124,125
1,67,0,30
1,67,124,162
1,67,0,30
1,67,124,162
1,67,0,30
1,67,124,162
1,67,0,67
1,67,124,701
1,67,0,67
1,67,124,125
1,67,0,30
1,67,124,162
1,67,0,30
1,67,124,162
1,67,0,30
1,67,124,162
1,67,0,67
1,67,124,125
1,67,0,30
1,67,124,162
1,67,0,30
1,67,124,162
1,67,0,30
1,67,124,162
1,67,0,67
1,67,124,701
1,67,0,67
1,67,124,701
1,67,0,67
1,67,124,125
1,67,0,30
1,67,124,162
1,67,0,30
1,67,124,162
1,67,0,30
1,67,124,162
1,67,0,67
1,67,124,125
1,67,0,30
1,67,124,162
1,67,0,30
1,67,124,162
1,67,0,30
1,67,124,162
1,67,0,67
1,67,124,125
1,67,0,30
1,67,124,162
1,67,0,30
1,67,124,162
1,67,0,30
1,67,124,162
1,67,0,67
1,67,124,125
1,67,0,30
1,67,124,162
1,67,0,30
1,67,124,162
1,67,0,30
1,67,124,162
1,67,0,67
1,67,124,125
1,67,0,30
1,67,124,162
1,67,0,30
1,67,124,162
1,67,0,30
1,67,124,162
1,67,0,67
1,67,124,125
1,67,0,30
1,67,124,162
1,67,0,30
1,67,124,162
1,67,0,30
1,67,124,162
1,67,0,67
1,67,124,125
1,67,0,30
1,67,124,162
1,67,0,30
1,67,124,162
1,67,0,30
1,67,124,162
1,67,0,67
1,67,124,125
1,67,0,30
1,67,124,162
1,67,0,30
1,67,124,162
1,67,0,30
1,67,124,162
1,67,0,67
1,67,124,125
1,67,0,30
1,67,124,162
1,67,0,30
1,67,124,162
1,67,0,30
1,67,124,162
1,67,0,67
1,67,124,125
1,67,0,30
1,67,124,162
1,67,0,30
1,67,124,162
1,67,0,30
1,67,124,162
1,67,0,67
1,67,124,125
1,67,0,30
1,67,124,162
1,67,0,30
1,67,124,162
1,67,0,30
1,67,124,162
1,67,0,67
1,67,124,125
1,67,0,30
1,67,124,162
1,67,0,30
1,67,124,162
1,67,0,30
1,67,124,162
1,67,0,67
1,67,124,125
1,67,0,30
1,67,124,162
1,67,0,30
1,67,124,162
1,67,0,30
1,67,124,162
1,67,0,67
1,67,124,125
1,67,0,30
1,67,124,162
1,67,0,30
1,67,124,162
1,67,0,30
1,67,124,162
1,67,0,67
1,67,124,125
1,67,0,30
1,67,124,162
1,67,0,30
1,67,124,162
1,67,0,30
1,67,124,162
1,67,0,67
1,67,124,125
1,67,0,30
1,67,124,162
1,67,0,30
1,67,124,162
1,67,0,30
1,67,124,162
1,67,0,67
1,67,124,125
1,67,0,30
1,67,124,162
1,67,0,30
1,67,124,162
1,67,0,30
1,67,124,162
1,67,0,67
1,67,124,125
1,67,0,30
1,67,124,162
1,67,0,30
1,67,124,162
1,67,0,30
1,67,124,162
1,67,0,67
1,67,124,125
1,67,0,30
1,67,124,162
1,67,0,30
1,67,124,162
1,67,0,30
1,67,124,162
1,67,0,67
1,67,124,125
1,67,0,30
1,67,124,162
1,67,0,30
1,67,124,162
1,67,0,30
1,67,124,162
1,67,0,67
1,67,124,125
1,67,0,30
1,67,124,162
1,67,0,30
1,67,124,162
1,67,0,30
1,67,124,162
1,67,0,67
1,67,124,125
1,67,0,30
1,67,124,162
1,67,0,30
1,67,124,162
1,67,0,30
1,67,124,162
1,67,0,67
1,67,124,125
1,67,0,30
1,67,124,162
1,67,0,30
1,67,124,162
1,67,0,30
1,67,124,162
1,67,0,67
1,67,124,125
1,67,0,30
1,67,124,162
1,67,0,30
1,67,124,162
1,67,0,30
1,67,124,162
1,67,0,67
1,67,124,125
1,67,0,30
1,67,124,162
1,67,0,30
1,67,124,162
1,67,0,30
1,67,124,162
1,67,0,67
1,67,124,125
1,67,0,30
1,67,124,162
1,67,0,30
1,67,124,162
1,67,0,30
1,67,124,162
1,67,0,67
1,67,124,125
1,67,0,30
1,67,124,162
1,67,0,30
1,67,124,162
1,67,0,30
1,67,124,162
1,67,0,67
1,67,124,125
1,67,0,30
1,67,124,162
1,67,0,30
1,67,124,162
1,67,0,30
1,67,124,162
1,67,0,67
1,67,124,125
1,67,0,30
1,67,124,162
1,67,0,30
1,67,124,162
1,67,0,30
1,67,124,162
1,67,0,67
1,67,124,125
1,67,0,30
1,67,124,162
1,67,0,30
1,67,124,162
1,67,0,30
1,67,124,162
1,67,0,67
1,67,124,125
1,67,0,30
1,67,124,162
1,67,0,30
1,67,124,162
1,67,0,30
1,67,124,162
1,67,0,67
1,67,124,125
1,67,0,30
1,67,124,162
1,67,0,30
1,67,124,162
1,67,0,30
1,67,124,162
1,67,0,67
1,67,124,125
1,67,0,30
1,67,120,162
1,67,0,30
1,67,120,162
1,67,0,30
1,67,116,162
1,67,0,67
1,67,116,125
1,67,0,30
1,67,112,162
1,67,0,30
1,67,112,162
1,67,0,30
1,67,108,162
1,67,0,67
1,67,104,125
1,67,0,30
1,67,104,162
1,67,0,30
1,67,100,162
1,67,0,30
1,67,100,162
1,67,0,67
1,67,96,125
1,67,0,30
1,67,96,162
1,67,0,30
1,67,92,162
1,67,0,30
1,67,92,162
1,67,0,67
1,67,88,125
1,67,0,30
1,67,84,162
1,67,0,30
1,67,84,162
1,67,0,30
1,67,80,162
1,67,0,67
1,67,80,125
1,67,0,30
1,67,76,162
1,67,0,30
1,67,76,162
1,67,0,30
1,67,72,162
1,67,0,67
1,67,68,125
1,67,0,30
1,67,68,162
1,67,0,30
1,67,64,162
1,67,0,30
2,53,127,4799
2,53,0,48
2,53,127,309
2,53,0,38
2,53,127,305
2,53,0,35
2,53,108,118
2,53,0,16
2,53,127,176
2,53,0,9
2,53,127,345
2,53,0,48
2,53,127,309
2,53,0,38
2,53,127,305
2,53,0,35
2,53,108,118
2,53,0,16
2,53,127,176
2,53,0,9
2,53,127,345
2,53,0,48
2,53,127,309
2,53,0,38
2,53,127,305
2,53,0,35
2,53,108,118
2,53,0,16
2,53,127,176
2,53,0,9
2,53,127,345
2,53,0,48
2,53,127,309
2,53,0,38
2,53,127,305
2,53,0,35
2,53,108,118
2,53,0,16
2,53,127,176
2,53,0,9
2,53,127,345
2,53,0,48
2,53,127,309
2,53,0,38
2,53,127,305
2,53,0,35
2,53,108,118
2,53,0,16
2,53,127,176
2,53,0,9
2,53,127,345
2,53,0,48
2,53,127,309
2,53,0,38
2,53,127,305
2,53,0,35
2,53,108,118
2,53,0,16
2,53,127,176
2,53,0,9
2,53,127,345
2,53,0,48
2,53,127,309
2,53,0,38
2,53,127,305
2,53,0,35
2,53,108,118
2,53,0,16
2,53,127,176
2,53,0,9
2,53,127,345
2,53,0,48
2,53,127,309
2,53,0,38
2,53,127,305
2,53,0,35
2,53,108,118
2,53,0,16
2,53,127,176
2,53,0,9
2,53,127,345
2,53,0,48
2,53,127,309
2,53,0,38
2,53,127,305
2,53,0,35
2,53,108,118
2,53,0,16
2,53,127,176
2,53,0,9
2,53,127,345
2,53,0,48
2,53,127,309
2,53,0,38
2,53,127,305
2,53,0,35
2,53,108,118
2,53,0,16
2,53,127,176
2,53,0,9
2,53,127,345
2,53,0,48
2,53,127,309
2,53,0,38
2,53,127,305
2,53,0,35
2,53,108,118
2,53,0,16
2,53,127,176
2,53,0,9
2,53,127,4955
2,53,0,48
2,53,127,309
2,53,0,38
2,53,127,305
2,53,0,35
2,53,127,310
2,53,0,46
2,53,127,299
2,53,0,48
2,53,127,309
2,53,0,38
2,53,127,305
2,53,0,35
2,53,127,310
2,53,0,47
2,53,127,298
2,53,0,48
2,53,127,309
2,53,0,38
