track,note,velocity,time
1,64,127,1903
1,60,127,0
1,45,127,0
1,55,115,0
1,57,115,0
1,33,127,0
1,57,0,391
1,55,0,3
1,60,0,4
1,64,0,3
1,45,0,3
1,55,112,76
1,57,112,0
1,60,122,0
1,64,122,0
1,45,117,0
1,45,0,325
1,45,114,35
1,57,0,8
1,55,0,1
1,60,0,51
1,64,0,5
1,59,122,55
1,55,110,0
1,57,114,0
1,62,127,0
1,33,127,0
1,33,0,25
1,62,0,51
1,60,122,44
1,64,120,0
1,59,0,8
1,64,0,241
1,57,0,1
1,55,0,3
1,60,0,14
1,45,0,5
1,60,124,88
1,64,127,0
1,55,122,0
1,57,122,0
1,45,127,0
1,45,0,234
1,40,124,6
1,64,0,167
1,57,0,6
1,55,0,3
1,60,0,11
1,33,0,28
1,40,0,0
1,45,127,25
1,60,127,0
1,55,120,0
1,57,122,0
1,64,124,0
1,33,127,0
1,64,0,414
1,57,0,4
1,55,0,0
1,60,0,10
1,45,0,18
1,60,127,34
1,55,122,0
1,57,122,0
1,45,127,0
1,64,127,0
1,45,0,347
1,45,124,13
1,57,0,63
1,64,0,2
1,55,0,3
1,60,0,14
1,33,0,38
1,64,127,0
1,59,115,0
1,55,103,0
1,62,122,0
1,60,127,0
1,67,127,0
1,57,127,0
1,57,0,51
1,55,0,16
1,62,0,3
1,59,0,20
1,67,0,8
1,64,0,22
1,60,0,0
1,57,127,0
1,67,127,0
1,55,127,0
1,60,127,0
1,64,127,0
1,64,0,52
1,55,0,8
1,67,0,7
1,60,0,53
1,57,0,0
1,60,127,120
1,57,127,0
1,67,127,0
1,64,127,0
1,55,127,0
1,45,0,82
1,60,0,38
1,57,0,0
1,45,127,0
1,67,0,67
1,55,0,7
1,64,0,0
1,67,127,46
1,60,127,0
1,64,127,0
1,57,127,0
1,55,127,0
1,45,0,116
1,60,0,4
1,64,0,0
1,57,0,0
1,55,0,0
1,40,127,0
1,62,127,0
1,67,0,18
1,62,0,102
1,50,127,0
1,40,0,108
1,50,0,12
1,60,127,0
1,57,120,0
1,55,120,0
1,64,127,0
1,45,127,0
1,33,127,0
1,64,0,334
1,55,0,4
1,57,0,4
1,60,0,5
1,45,0,5
1,60,127,128
1,55,120,0
1,57,122,0
1,64,124,0
1,45,127,0
1,45,0,320
1,45,124,40
1,64,0,62
1,57,0,8
1,55,0,3
1,60,0,7
1,45,0,6
1,33,0,34
1,59,114,0
1,55,106,0
1,57,109,0
1,62,117,0
1,45,115,0
1,33,127,0
1,62,0,67
1,57,0,4
1,59,0,1
1,55,0,2
1,55,105,46
1,57,105,0
1,60,124,0
1,64,122,0
1,45,0,294
1,64,0,6
1,57,0,6
1,55,0,0
1,60,0,5
1,64,122,49
1,60,127,0
1,55,120,0
1,57,117,0
1,45,127,0
1,45,0,233
1,40,117,7
1,57,0,172
1,64,0,3
1,55,0,2
1,60,0,11
1,33,0,52
1,45,127,0
1,64,115,0
1,60,117,0
1,55,114,0
1,57,114,0
1,33,127,0
1,40,0,10
1,57,0,392
1,55,0,3
1,64,0,7
1,60,0,4
1,45,0,14
1,60,127,50
1,64,122,0
1,55,120,0
1,57,120,0
1,45,127,0
1,45,0,321
1,45,127,39
1,55,0,58
1,57,0,0
1,64,0,2
1,60,0,18
1,59,114,42
1,55,104,0
1,62,122,0
1,57,109,0
1,33,127,0
1,33,0,25
1,57,0,34
1,62,0,7
1,55,0,13
1,59,0,2
1,55,100,39
1,60,117,0
1,57,107,0
1,64,120,0
1,45,0,310
1,64,0,6
1,57,0,16
1,55,0,6
1,60,0,2
1,64,122,20
1,60,124,0
1,55,117,0
1,57,117,0
1,45,127,0
1,45,0,221
1,40,112,19
1,55,0,159
1,57,0,0
1,60,0,8
1,64,0,5
1,40,0,15
1,33,0,28
1,64,127,25
1,38,124,0
1,60,120,0
1,54,115,0
1,57,124,0
1,50,120,0
1,52,122,0
1,52,0,37
1,60,0,1
1,57,0,11
1,57,25,71
1,60,69,120
1,60,0,105
1,57,0,43
1,64,0,13
1,54,0,11
1,50,0,26
1,54,111,42
1,64,122,0
1,57,120,0
1,50,114,0
1,60,79,120
1,50,0,212
1,38,0,4
1,38,109,24
1,50,122,0
1,60,0,9
1,64,0,21
1,54,0,18
1,57,0,5
1,38,0,40
1,38,112,27
1,57,115,0
1,54,107,0
1,62,117,0
1,60,85,0
1,60,0,56
1,57,0,15
1,62,0,3
1,63,115,46
1,57,110,0
1,64,127,0
1,60,25,0
1,63,0,12
1,60,0,186
1,57,0,82
1,54,0,10
1,64,0,0
1,38,0,37
1,50,0,9
1,64,124,24
1,38,117,0
1,54,113,0
1,57,115,0
1,50,115,0
1,60,95,0
1,40,100,240
1,60,0,21
1,38,0,51
1,57,0,13
1,54,0,78
1,64,0,40
1,50,0,8
1,40,0,23
1,62,115,6
1,55,107,0
1,43,124,0
1,59,124,0
1,43,0,190
1,59,0,6
1,55,0,4
1,62,0,5
1,43,117,35
1,62,112,0
1,55,114,0
1,59,124,0
1,59,0,196
1,55,0,7
1,62,0,5
1,43,0,13
1,55,117,19
1,62,122,0
1,59,127,0
1,43,114,0
1,43,0,201
1,59,0,9
1,55,0,5
1,62,0,5
1,43,120,20
1,62,120,0
1,55,115,0
1,59,127,0
1,55,0,176
1,59,0,12
1,43,0,6
1,62,0,11
1,40,102,35
1,52,115,0
1,41,109,0
1,56,118,0
1,64,124,0
1,59,127,0
1,41,0,60
1,64,0,88
1,59,0,14
1,56,0,11
1,52,0,6
1,40,0,1
1,64,127,60
1,56,118,0
1,59,127,0
1,40,122,0
1,52,120,0
1,59,0,126
1,56,0,5
1,64,0,1
1,52,0,4
1,40,0,1
1,60,127,583
1,57,120,0
1,55,120,0
1,64,127,0
1,45,127,0
1,33,127,0
1,64,0,334
1,55,0,4
1,57,0,4
1,60,0,5
1,45,0,5
1,60,127,128
1,55,120,0
1,57,122,0
1,64,124,0
1,45,127,0
1,45,0,320
1,45,124,40
1,64,0,62
1,57,0,8
1,55,0,3
1,60,0,7
1,45,0,6
1,33,0,34
1,59,114,0
1,55,106,0
1,57,109,0
1,62,117,0
1,45,115,0
1,33,127,0
1,62,0,67
1,57,0,4
1,59,0,1
1,55,0,2
1,55,105,46
1,57,105,0
1,60,124,0
1,64,122,0
1,45,0,294
1,64,0,6
1,57,0,6
1,55,0,0
1,60,0,5
1,64,122,49
1,60,127,0
1,55,120,0
1,57,117,0
1,45,127,0
1,45,0,233
1,40,117,7
1,57,0,172
1,64,0,3
1,55,0,2
1,60,0,11
1,33,0,52
1,45,127,0
1,64,115,0
1,60,117,0
1,55,114,0
1,57,114,0
1,33,127,0
1,40,0,10
1,57,0,392
1,55,0,3
1,64,0,7
1,60,0,4
1,45,0,14
1,60,127,50
1,64,122,0
1,55,120,0
1,57,120,0
1,45,127,0
1,45,0,321
1,45,127,39
1,55,0,58
1,57,0,0
1,64,0,2
1,60,0,18
1,59,114,42
1,55,104,0
1,62,122,0
1,57,109,0
1,33,127,0
1,33,0,51
1,57,0,8
1,62,0,7
1,55,0,13
1,59,0,2
1,55,100,39
1,60,117,0
1,57,107,0
1,64,120,0
1,45,0,310
1,64,0,6
1,57,0,16
1,55,0,6
1,60,0,2
1,64,122,20
1,60,124,0
1,55,117,0
1,57,117,0
1,45,127,0
1,45,0,221
1,40,112,19
1,55,0,159
1,57,0,0
1,60,0,8
1,64,0,5
1,40,0,15
1,33,0,2
1,64,127,51
1,38,124,0
1,60,120,0
1,54,115,0
1,57,124,0
1,50,120,0
1,52,122,0
1,52,0,37
1,60,0,1
1,57,0,11
1,57,25,71
1,60,69,120
1,60,0,105
1,57,0,43
1,64,0,13
1,54,0,11
1,50,0,26
1,54,111,42
1,64,122,0
1,57,120,0
1,50,114,0
1,60,79,120
1,50,0,212
1,38,0,4
1,38,109,24
1,50,122,0
1,60,0,9
1,64,0,21
1,54,0,18
1,57,0,5
1,38,0,40
1,38,112,27
1,57,115,0
1,54,107,0
1,62,117,0
1,60,85,0
1,60,0,56
1,57,0,15
1,62,0,3
1,63,115,46
1,57,110,0
1,64,127,0
1,60,25,0
1,63,0,12
1,60,0,186
1,57,0,82
1,54,0,10
1,64,0,0
1,38,0,37
1,50,0,9
1,64,124,24
1,38,117,0
1,54,113,0
1,57,115,0
1,50,115,0
1,60,95,0
1,40,100,240
1,60,0,21
1,38,0,51
1,57,0,13
1,54,0,78
1,64,0,40
1,50,0,8
1,40,0,23
1,62,115,6
1,55,107,0
1,43,124,0
1,59,124,0
1,67,100,0
1,59,122,0
1,62,127,0
1,43,117,0
1,43,0,190
1,59,0,6
1,55,0,4
1,62,0,5
1,43,0,10
1,67,0,2
1,62,0,4
1,59,0,6
1,67,112,13
1,62,120,0
1,43,114,0
1,59,115,0
1,43,0,189
1,67,0,4
1,59,0,16
1,62,0,2
1,43,117,29
1,67,115,0
1,62,117,0
1,59,117,0
1,43,0,169
1,67,0,20
1,43,120,51
1,67,98,0
1,62,0,82
1,67,0,5
1,59,0,14
1,43,0,128
1,40,102,11
1,52,105,0
1,56,113,0
1,50,106,0
1,64,127,0
1,59,124,0
1,50,0,40
1,64,0,115
1,40,0,23
1,59,0,11
1,56,0,8
1,52,0,2
1,52,106,41
1,40,120,0
1,56,105,0
1,59,120,0
1,64,122,0
1,64,0,199
1,40,0,6
1,59,0,14
1,56,0,2
1,40,112,19
1,56,96,0
1,59,114,0
1,64,117,0
1,64,0,217
1,52,0,2
1,40,0,3
1,64,112,18
1,52,114,0
1,40,117,0
1,59,0,140
1,56,0,54
1,64,0,32
1,52,0,2
1,61,61,12
1,57,124,0
1,55,122,0
1,64,117,0
1,55,0,28
1,45,127,92
1,40,0,13
1,61,0,242
1,64,0,27
1,57,0,13
1,57,122,65
1,61,115,0
1,64,124,0
1,45,124,0
1,63,107,0
1,63,0,13
1,45,0,34
1,61,0,374
1,57,0,43
1,45,0,15
1,40,102,1
1,59,109,0
1,56,111,120
1,64,0,278
1,59,0,4
1,52,124,78
1,56,115,0
1,59,127,0
1,64,124,0
1,56,0,24
1,40,0,119
1,40,109,97
1,40,0,184
1,59,0,12
1,64,0,27
1,43,103,17
1,62,122,0
1,56,98,0
1,55,106,0
1,57,103,0
1,59,105,0
1,56,0,5
1,52,0,8
1,57,0,11
1,56,0,3
1,45,107,93
1,45,0,42
1,59,0,173
1,55,0,68
1,43,0,3
1,62,0,12
1,43,120,62
1,55,115,0
1,62,117,0
1,59,124,0
1,59,0,415
1,43,0,58
1,55,0,7
1,54,115,0
1,57,122,0
1,38,106,120
1,50,109,240
1,38,112,120
1,38,0,33
1,57,0,128
1,54,0,10
1,62,0,32
1,57,120,37
1,62,122,0
1,54,111,0
1,48,114,0
1,50,117,0
1,50,0,8
1,48,0,33
1,50,79,79
1,50,0,46
1,57,0,9
1,62,0,28
1,50,0,4
1,54,0,18
1,38,0,9
1,41,114,6
1,53,109,0
1,60,110,0
1,57,114,0
1,57,0,437
1,41,0,13
1,53,0,12
1,60,0,5
1,57,124,13
1,60,122,0
1,41,122,0
1,53,120,0
1,57,0,394
1,53,0,22
1,60,0,19
1,59,117,45
1,40,114,0
1,56,113,0
1,52,124,0
1,41,0,6
1,40,0,436
1,56,0,34
1,52,0,3
1,59,120,1
1,56,111,0
1,52,120,0
1,59,0,3
1,40,122,237
1,44,113,0
1,59,0,141
1,52,0,4
1,56,0,4
1,40,0,68
1,44,0,18
1,45,117,5
1,57,124,0
1,63,118,0
1,60,127,0
1,61,111,0
1,64,127,0
1,63,0,9
1,61,0,1
1,45,0,445
1,45,115,25
1,45,0,419
1,45,122,61
1,60,0,443
1,57,0,6
1,64,0,10
1,45,0,3
1,45,124,18
1,57,112,240
1,64,106,0
1,60,114,0
1,45,0,178
1,40,114,62
1,60,0,169
1,57,0,23
1,64,115,48
1,59,122,0
1,56,115,0
1,52,124,0
1,64,0,6
1,40,0,167
1,40,104,67
1,52,0,148
1,64,0,22
1,59,0,6
1,56,0,15
1,64,122,49
1,59,122,0
1,56,103,0
1,52,122,0
1,40,0,163
1,64,0,12
1,59,0,23
1,56,0,31
1,40,110,11
1,65,96,0
1,57,102,0
1,52,0,2
1,65,0,40
1,57,0,83
1,65,127,115
1,60,127,0
1,57,127,0
1,53,127,0
1,53,0,404
1,53,120,76
1,40,0,174
1,53,0,65
1,40,115,1
1,60,0,21
1,57,0,5
1,65,0,1
1,59,127,213
1,67,117,0
1,62,127,0
1,55,124,0
1,55,0,422
1,67,0,55
1,67,100,3
1,55,115,0
1,62,0,170
1,40,0,5
1,67,0,3
1,59,0,9
1,59,114,53
1,40,112,0
1,68,111,0
1,64,115,0
1,56,115,0
1,55,0,41
1,59,0,126
1,64,0,207
1,68,0,93
1,68,109,13
1,52,114,0
1,63,107,0
1,63,0,33
1,64,89,87
1,52,0,32
1,59,115,88
1,52,87,0
1,68,0,131
1,56,0,18
1,64,0,21
1,59,0,31
1,52,0,5
1,64,122,34
1,45,106,0
1,57,100,0
1,33,127,0
1,40,0,17
1,57,0,10
1,64,0,318
1,45,0,18
1,64,117,117
1,60,122,0
1,45,127,0
1,55,124,0
1,57,124,0
1,45,0,315
1,45,117,45
1,57,0,80
1,60,0,1
1,64,0,31
1,33,0,8
1,59,120,0
1,62,120,0
1,33,127,0
1,62,0,71
1,59,0,7
1,55,0,18
1,55,107,24
1,64,122,0
1,60,124,0
1,57,114,0
1,59,110,0
1,62,105,0
1,62,0,8
1,59,0,8
1,57,0,221
1,64,0,2
1,60,0,7
1,55,0,1
1,45,0,6
1,60,127,107
1,55,122,0
1,57,124,0
1,64,127,0
1,45,127,0
1,45,0,220
1,40,122,20
1,64,0,160
1,57,0,8
1,55,0,2
1,60,0,18
1,40,0,23
1,33,0,29
1,45,127,0
1,64,120,0
1,60,120,0
1,55,115,0
1,57,115,0
1,33,127,0
1,57,0,395
1,55,0,5
1,64,0,4
1,60,0,6
1,45,0,12
1,64,117,58
1,60,124,0
1,55,120,0
1,57,120,0
1,45,127,0
1,45,0,323
1,45,124,37
1,60,0,59
1,64,0,6
1,57,0,2
1,55,0,13
1,59,115,40
1,55,100,0
1,62,122,0
1,57,107,0
1,33,127,0
1,33,0,26
1,57,0,30
1,55,0,15
1,59,0,10
1,62,0,0
1,55,112,39
1,64,124,0
1,57,115,0
1,59,117,0
1,60,127,0
1,62,122,0
1,59,0,27
1,62,0,1
1,60,0,266
1,64,0,2
1,45,0,2
1,57,0,4
1,55,0,7
1,45,127,51
1,64,127,0
1,60,127,0
1,55,127,0
1,57,127,0
1,63,115,0
1,63,0,8
1,45,0,189
1,45,112,43
1,57,0,96
1,55,0,6
1,64,0,38
1,60,0,5
1,45,0,43
1,33,0,26
1,62,122,26
1,38,106,0
1,50,117,0
1,52,114,0
1,40,109,0
1,57,114,0
1,54,115,0
1,52,0,54
1,40,0,38
1,62,0,141
1,64,106,7
1,57,0,58
1,64,0,50
1,54,0,20
1,38,0,26
1,50,0,1
1,64,127,85
1,54,118,0
1,60,114,0
1,57,127,0
1,38,124,0
1,50,127,0
1,60,0,58
1,60,71,182
1,38,0,61
1,38,115,59
1,64,0,39
1,57,0,13
1,60,0,23
1,54,0,10
1,54,96,35
1,62,122,0
1,57,112,0
1,57,0,76
1,64,124,44
1,57,100,0
1,62,0,6
1,64,0,266
1,54,0,6
1,57,0,10
1,50,0,3
1,64,127,69
1,57,122,0
1,54,109,0
1,50,124,0
1,54,0,166
1,57,0,54
1,62,127,140
1,64,0,1
1,50,0,35
1,38,0,2
1,59,115,82
1,43,110,0
1,67,127,0
1,62,0,130
1,43,0,99
1,67,0,10
1,67,124,1
1,43,122,0
1,62,127,0
1,59,127,0
1,59,0,6
1,43,0,199
1,67,0,4
1,62,0,7
1,59,0,1
1,67,120,23
1,43,124,0
1,62,127,0
1,59,127,0
1,43,0,185
1,67,0,7
1,62,0,9
1,43,112,39
1,67,112,0
1,62,117,0
1,67,0,91
1,62,0,3
1,59,0,3
1,43,0,113
