track,note,velocity,time
3,70,64,0
3,66,64,0
3,66,0,118
3,68,64,2
3,68,0,118
3,66,64,2
3,70,0,118
3,73,64,2
3,73,0,118
3,75,64,2
3,75,0,118
3,70,64,2
3,70,0,118
3,70,64,2
3,66,0,118
3,70,0,0
3,66,64,2
3,73,64,0
3,73,0,118
3,73,64,2
3,66,0,118
3,70,64,2
3,70,0,118
3,68,64,2
3,68,0,118
3,66,64,2
3,66,0,118
3,65,64,2
3,73,0,478
3,65,0,0
3,61,64,122
3,61,0,118
3,63,64,2
3,63,0,118
3,66,64,2
3,66,0,118
3,66,64,2
3,63,64,240
3,63,0,238
3,61,64,2
3,61,0,238
3,59,64,2
3,59,0,238
3,58,64,2
3,61,64,0
3,66,0,598
3,58,0,0
3,61,0,0
3,70,64,2642
3,75,64,0
3,78,64,0
3,70,64,120
3,75,64,0
3,78,64,0
3,70,0,38
3,75,0,0
3,78,0,0
3,70,0,40
3,75,0,0
3,78,0,0
3,69,64,42
3,68,64,0
3,73,64,0
3,76,64,0
3,75,64,0
3,69,0,478
3,68,0,0
3,73,0,0
3,76,0,0
3,75,0,0
3,69,64,2
3,76,64,0
3,73,64,0
3,69,0,118
3,76,0,0
3,73,0,0
3,68,64,2
3,75,64,0
3,71,64,0
3,68,0,118
3,75,0,0
3,71,0,0
3,66,64,2
3,69,64,0
3,73,64,0
3,66,0,78
3,69,0,0
3,73,0,0
3,66,64,402
3,58,64,0
3,63,64,0
3,63,64,120
3,66,64,0
3,58,64,0
3,66,0,38
3,58,0,0
3,63,0,0
3,63,0,40
3,66,0,0
3,58,0,0
3,57,64,42
3,61,64,0
3,64,64,0
3,57,0,838
3,61,0,0
3,64,0,0
3,61,64,2882
3,61,0,478
3,63,64,2
3,63,0,118
3,60,64,2
3,68,64,600
3,68,0,118
3,66,64,2
3,60,0,118
3,66,0,0
3,64,64,2
3,59,64,0
3,59,0,478
3,61,64,2
3,61,0,118
3,59,64,2
3,59,0,118
3,58,64,2
3,64,0,478
3,66,64,2
3,66,0,118
3,64,64,2
3,58,0,118
3,64,0,0
3,63,64,2
3,54,64,0
3,58,64,0
3,63,0,1078
3,54,0,0
3,58,0,0
3,58,64,2
3,63,64,0
3,66,64,0
3,54,64,0
3,58,0,238
3,63,0,0
3,66,0,0
3,54,0,0
3,62,64,122
3,54,64,0
3,58,64,0
3,59,64,0
3,62,0,1198
3,54,0,0
3,58,0,0
3,59,0,0
3,70,64,3482
3,75,64,0
3,78,64,0
3,70,64,120
3,75,64,0
3,78,64,0
3,70,0,38
3,75,0,0
3,78,0,0
3,70,0,40
3,75,0,0
3,78,0,0
3,69,64,42
3,68,64,0
3,73,64,0
3,76,64,0
3,69,0,478
3,68,0,0
3,73,0,0
3,76,0,0
3,69,64,2
3,73,64,0
3,76,64,0
3,69,0,118
3,73,0,0
3,76,0,0
3,68,64,2
3,71,64,0
3,75,64,0
3,68,0,118
3,71,0,0
3,75,0,0
3,66,64,2
3,69,64,0
3,73,64,0
3,66,0,78
3,69,0,0
3,73,0,0
3,58,64,402
3,63,64,0
3,66,64,0
3,66,64,120
3,58,64,0
3,63,64,0
3,58,0,38
3,63,0,0
3,66,0,0
3,66,0,40
3,58,0,0
3,63,0,0
3,57,64,42
3,64,64,0
3,61,64,0
3,57,0,838
3,64,0,0
3,61,0,0
3,61,64,1082
3,64,64,0
3,61,0,118
3,64,0,0
3,59,64,2
3,63,64,0
3,59,0,118
3,63,0,0
3,57,64,2
3,61,64,0
3,57,0,78
3,61,0,0
3,64,64,1122
3,61,64,0
3,64,0,118
3,61,0,0
3,59,64,2
3,63,64,0
3,59,0,118
3,63,0,0
3,57,64,2
3,61,64,0
3,57,0,78
3,61,0,0
3,61,64,402
3,61,0,358
3,60,64,2
3,64,64,360
3,68,64,0
3,64,0,118
3,68,0,0
3,63,64,2
3,66,64,0
3,63,0,118
3,66,0,0
3,61,64,2
3,64,64,0
3,61,0,78
3,64,0,0
3,60,0,40
3,59,64,2
3,59,0,718
3,58,64,2
3,64,64,360
3,68,64,0
3,64,0,118
3,68,0,0
3,63,64,2
3,66,64,0
3,63,0,118
3,66,0,0
3,61,64,2
3,64,64,0
3,58,0,118
3,61,0,0
3,64,0,0
3,63,64,2
3,54,64,0
3,58,64,0
3,59,64,0
3,63,0,1078
3,54,0,0
3,58,0,0
3,59,0,0
3,59,64,2
3,63,64,0
3,58,64,0
3,66,64,0
3,58,64,120
3,63,64,0
3,59,64,0
3,66,64,0
3,59,0,38
3,63,0,0
3,58,0,0
3,66,0,0
3,58,0,40
3,63,0,0
3,59,0,0
3,66,0,0
3,62,64,162
3,54,64,0
3,58,64,0
3,59,64,0
3,62,0,1198
3,54,0,0
3,58,0,0
3,59,0,0
3,70,64,3482
3,75,64,0
3,78,64,0
3,70,64,120
3,75,64,0
3,78,64,0
3,70,0,38
3,75,0,0
3,78,0,0
3,70,0,40
3,75,0,0
3,78,0,0
3,69,64,42
3,76,64,0
3,68,64,0
3,73,64,0
3,69,0,478
3,76,0,0
3,68,0,0
3,73,0,0
3,69,64,2
3,76,64,0
3,73,64,0
3,69,0,118
3,76,0,0
3,73,0,0
3,68,64,2
3,71,64,0
3,75,64,0
3,68,0,118
3,71,0,0
3,75,0,0
3,69,64,2
3,66,64,0
3,73,64,0
3,69,0,78
3,66,0,0
3,73,0,0
3,58,64,402
3,63,64,0
3,66,64,0
3,58,64,120
3,63,64,0
3,66,64,0
3,58,0,38
3,63,0,0
3,66,0,0
3,58,0,40
3,63,0,0
3,66,0,0
3,57,64,42
3,61,64,0
3,64,64,0
3,57,0,478
3,61,0,0
3,64,0,0
3,70,64,4442
3,66,64,0
3,70,0,1078
3,66,0,0
3,69,64,362
3,68,64,0
3,68,0,118
3,66,64,2
3,69,0,118
3,66,0,0
3,70,64,2
3,64,64,0
3,64,0,118
3,63,64,2
3,63,0,118
3,64,64,2
3,70,0,118
3,71,64,2
3,64,0,118
3,71,0,0
3,73,64,2
3,64,64,0
3,73,0,238
3,75,64,2
3,75,0,118
3,73,64,2
3,64,0,118
3,73,0,0
3,62,64,2
3,71,64,0
3,62,0,118
3,64,64,2
3,64,0,118
3,66,64,2
3,71,0,118
3,70,64,2
3,70,0,118
3,68,64,2
3,66,0,238
3,65,64,2
3,65,0,118
3,63,64,2
3,63,0,118
3,65,64,2
3,68,0,478
3,65,0,0
3,64,64,2882
3,64,0,88
3,68,64,2
3,68,0,178
3,73,64,2
3,73,0,718
3,75,64,2
3,75,0,88
3,72,64,2
3,72,0,88
3,68,64,2
3,68,0,268
3,64,64,2
3,64,0,88
3,68,64,2
3,68,0,178
3,73,64,2
3,73,0,448
3,73,64,2
3,73,0,268
3,73,64,2
3,73,0,88
3,70,64,2
3,70,0,88
3,64,64,2
3,64,0,268
3,59,64,2
3,63,64,0
3,59,0,958
3,63,0,0
3,59,64,122
3,63,64,0
3,66,64,0
3,58,64,0
3,59,0,118
3,63,0,0
3,66,0,0
3,58,0,0
3,58,64,2
3,59,64,0
3,63,64,0
3,66,64,0
3,58,0,118
3,59,0,0
3,63,0,0
3,66,0,0
3,62,64,122
3,54,64,0
3,58,64,0
3,59,64,0
3,62,0,1198
3,54,0,0
3,58,0,0
3,59,0,0
3,64,64,7442
3,70,64,0
3,75,64,0
3,78,64,0
3,64,0,238
3,70,0,0
3,75,0,0
3,78,0,0
3,64,64,2
3,70,64,0
3,75,64,0
3,78,64,0
3,64,0,238
3,70,0,0
3,75,0,0
3,78,0,0
3,64,64,122
3,70,64,0
3,75,64,0
3,78,64,0
3,64,0,238
3,70,0,0
3,75,0,0
3,78,0,0
3,76,64,2
3,73,64,0
3,68,64,0
3,69,64,0
3,76,0,478
3,73,0,0
3,68,0,0
3,69,0,0
3,68,64,2
3,69,64,0
3,76,64,0
3,73,64,0
3,68,0,118
3,69,0,0
3,76,0,0
3,73,0,0
3,68,64,122
3,76,64,0
3,69,64,0
3,73,64,0
3,73,64,0
3,69,64,120
3,68,64,0
3,76,64,0
3,73,64,0
3,68,0,38
3,76,0,0
3,69,0,0
3,73,0,0
3,73,0,0
3,69,0,200
3,68,0,0
3,76,0,0
3,73,0,0
3,64,64,2
3,70,64,0
3,75,64,0
3,78,64,0
3,64,0,238
3,70,0,0
3,75,0,0
3,78,0,0
3,64,64,2
3,70,64,0
3,75,64,0
3,78,64,0
3,64,0,238
3,70,0,0
3,75,0,0
3,78,0,0
3,70,64,122
3,64,64,0
3,75,64,0
3,78,64,0
3,70,0,238
3,64,0,0
3,75,0,0
3,78,0,0
3,73,64,2
3,76,64,0
3,69,64,0
3,68,64,0
3,73,0,1078
3,76,0,0
3,69,0,0
3,68,0,0
3,64,64,2
3,70,64,0
3,75,64,0
3,78,64,0
3,64,0,238
3,70,0,0
3,75,0,0
3,78,0,0
3,64,64,2
3,70,64,0
3,75,64,0
3,78,64,0
3,64,0,238
3,70,0,0
3,75,0,0
3,78,0,0
3,64,64,122
3,70,64,0
3,75,64,0
3,78,64,0
3,64,0,238
3,70,0,0
3,75,0,0
3,78,0,0
3,76,64,2
3,73,64,0
3,68,64,0
3,69,64,0
3,76,0,478
3,73,0,0
3,68,0,0
3,69,0,0
3,68,64,2
3,69,64,0
3,76,64,0
3,73,64,0
3,68,0,118
3,69,0,0
3,76,0,0
3,73,0,0
3,68,64,122
3,76,64,0
3,69,64,0
3,73,64,0
3,73,64,0
3,69,64,120
3,68,64,0
3,76,64,0
3,73,64,0
3,68,0,38
3,76,0,0
3,69,0,0
3,73,0,0
3,73,0,0
3,69,0,200
3,68,0,0
3,76,0,0
3,73,0,0
3,64,64,2
3,70,64,0
3,75,64,0
3,78,64,0
3,64,0,238
3,70,0,0
3,75,0,0
3,78,0,0
3,64,64,2
3,70,64,0
3,75,64,0
3,78,64,0
3,64,0,238
3,70,0,0
3,75,0,0
3,78,0,0
3,70,64,122
3,64,64,0
3,75,64,0
3,78,64,0
3,70,0,238
3,64,0,0
3,75,0,0
3,78,0,0
3,73,64,2
3,76,64,0
3,69,64,0
3,68,64,0
3,73,0,1078
3,76,0,0
3,69,0,0
3,68,0,0
3,63,64,15002
3,75,64,0
3,63,0,238
3,75,0,0
3,68,64,2
3,80,64,0
3,68,0,118
3,80,0,0
3,82,64,2
3,70,64,0
3,82,0,718
3,70,0,0
3,82,64,2
3,70,64,0
3,82,0,118
3,70,0,0
3,80,64,2
3,68,64,0
3,80,0,838
3,68,0,0
3,66,64,2
3,78,64,0
3,66,0,118
3,78,0,0
3,68,64,2
3,80,64,0
3,68,0,118
3,80,0,0
3,82,64,2
3,70,64,0
3,82,0,718
3,70,0,0
3,70,64,2
3,82,64,0
3,70,0,118
3,82,0,0
3,68,64,2
3,80,64,0
3,68,0,598
3,80,0,0
3,77,64,3962
3,83,64,0
3,66,64,0
3,77,0,238
3,83,0,0
3,66,0,0
3,75,64,2
3,85,64,0
3,61,64,0
3,75,0,118
3,85,0,0
3,61,0,0
3,73,64,7442
3,61,64,0
3,73,0,238
3,61,0,0
3,82,64,2
3,70,64,0
3,82,0,718
3,70,0,0
3,82,64,2
3,70,64,0
3,82,0,118
3,70,0,0
3,80,64,2
3,68,64,0
3,80,0,598
3,68,0,0
3,78,64,122
3,66,64,0
3,78,0,238
3,66,0,0
3,80,64,2
3,68,64,0
3,80,0,118
3,68,0,0
3,82,64,2
3,70,64,0
3,82,0,718
3,70,0,0
3,82,64,2
3,70,64,0
3,82,0,118
3,70,0,0
3,80,64,2
3,68,64,0
3,80,0,598
3,68,0,0
3,61,64,242
3,73,64,0
3,61,0,238
3,73,0,0
3,70,64,2
3,82,64,0
3,70,0,718
3,82,0,0
3,82,64,2
3,70,64,0
3,82,0,118
3,70,0,0
3,68,64,2
3,80,64,0
3,68,0,598
3,80,0,0
3,66,64,122
3,78,64,0
3,66,0,238
3,78,0,0
3,68,64,2
3,80,64,0
3,68,0,118
3,80,0,0
3,70,64,2
3,82,64,0
3,70,0,718
3,82,0,0
3,70,64,2
3,82,64,0
3,70,0,118
3,82,0,0
3,80,64,2
3,68,64,0
3,80,0,598
3,68,0,0
3,66,64,122
3,82,64,0
3,73,64,0
3,76,64,0
3,66,0,118
3,82,0,0
3,73,0,0
3,76,0,0
3,71,64,122
3,75,64,0
3,82,64,0
3,78,64,0
3,71,0,118
3,75,0,0
3,82,0,0
3,78,0,0
3,73,64,7442
3,61,64,0
3,73,0,238
3,61,0,0
3,82,64,2
3,70,64,0
3,82,0,718
3,70,0,0
3,82,64,2
3,70,64,0
3,82,0,118
3,70,0,0
3,80,64,2
3,68,64,0
3,80,0,598
3,68,0,0
3,78,64,122
3,66,64,0
3,78,0,238
3,66,0,0
3,80,64,2
3,68,64,0
3,80,0,118
3,68,0,0
3,82,64,2
3,70,64,0
3,82,0,718
3,70,0,0
3,82,64,2
3,70,64,0
3,82,0,118
3,70,0,0
3,80,64,2
3,68,64,0
3,80,0,598
3,68,0,0
3,61,64,242
3,73,64,0
3,61,0,238
3,73,0,0
3,70,64,2
3,82,64,0
3,70,0,718
3,82,0,0
3,82,64,2
3,70,64,0
3,82,0,118
3,70,0,0
3,68,64,2
3,80,64,0
3,68,0,598
3,80,0,0
3,66,64,122
3,78,64,0
3,66,0,238
3,78,0,0
3,68,64,2
3,80,64,0
3,68,0,118
3,80,0,0
3,82,64,2
3,70,64,0
3,82,0,718
3,70,0,0
3,82,64,2
3,70,64,0
3,82,0,118
3,70,0,0
3,68,64,2
3,80,64,0
3,68,0,358
3,80,0,0
3,77,64,242
3,53,64,0
3,70,64,0
3,77,0,118
3,53,0,0
3,70,0,0
3,77,64,2
3,82,64,0
3,58,64,0
3,73,64,0
3,77,0,158
3,82,0,0
3,58,0,0
3,73,0,0
3,70,64,82
3,61,64,0
3,85,64,0
3,77,64,0
3,63,64,120
3,83,64,0
3,78,64,0
3,66,64,0
3,70,0,38
3,61,0,0
3,85,0,0
3,77,0,0
3,63,0,200
3,83,0,0
3,78,0,0
3,66,0,0
3,82,64,3842
3,70,64,0
3,82,0,478
3,70,0,0
3,69,64,2
3,81,64,0
3,69,0,58
3,81,0,0
3,68,64,2
3,80,64,0
3,68,0,58
3,80,0,0
3,66,64,2
3,78,64,0
3,66,0,118
3,78,0,0
3,63,64,2
3,75,64,0
3,63,0,838
3,75,0,0
3,61,64,5402
3,61,0,478
3,63,64,2
3,63,0,118
3,60,64,2
3,68,64,600
3,68,0,118
3,66,64,2
3,60,0,118
3,66,0,0
3,64,64,2
3,59,64,0
3,59,0,478
3,61,64,2
3,61,0,118
3,59,64,2
3,59,0,118
3,58,64,2
3,64,0,478
3,66,64,2
3,66,0,118
3,64,64,2
3,58,0,118
3,64,0,0
3,63,64,2
3,54,64,0
3,58,64,0
3,63,0,1078
3,54,0,0
3,58,0,0
3,54,64,2
3,66,64,0
3,58,64,0
3,63,64,0
3,54,0,238
3,66,0,0
3,58,0,0
3,63,0,0
3,62,64,122
3,54,64,0
3,58,64,0
3,59,64,0
3,62,0,1198
3,54,0,0
3,58,0,0
3,59,0,0
3,70,64,4082
3,66,64,0
3,66,0,118
3,68,64,2
3,68,0,118
3,66,64,2
3,70,0,118
3,73,64,2
3,73,0,118
3,75,64,2
3,75,0,118
3,70,64,2
3,70,0,118
3,70,64,2
3,66,0,118
3,70,0,0
3,66,64,2
3,73,64,0
3,73,0,118
3,73,64,2
3,66,0,118
3,70,64,2
3,70,0,118
3,68,64,2
3,68,0,118
3,66,64,2
3,66,0,118
3,65,64,2
3,73,0,478
3,65,0,0
3,61,64,122
3,61,0,118
3,63,64,2
3,63,0,118
3,66,64,2
3,66,0,118
3,66,64,2
3,63,64,240
3,63,0,238
3,61,64,2
3,61,0,238
3,59,64,2
3,59,0,238
3,58,64,2
3,66,0,958
3,58,0,0
4,61,64,0
4,54,64,0
4,54,0,358
4,53,64,2
4,61,0,118
4,53,0,0
4,63,64,2
4,51,64,0
4,51,0,118
4,61,64,2
4,61,0,118
4,59,64,2
4,63,0,118
4,59,0,0
