track,note,velocity,time
0,60,46,978
0,64,50,5
0,67,46,5
0,71,53,7
0,78,88,7
0,77,16,2
0,60,0,8
0,79,81,0
0,64,0,1
0,83,86,72
0,67,0,8
0,71,0,69
0,78,0,8
0,77,0,3
0,79,0,13
0,81,66,45
0,83,0,4
0,81,0,33
0,79,54,7
0,79,0,16
0,66,47,9
0,78,66,2
0,62,50,1
0,59,53,4
0,69,51,4
0,66,0,17
0,74,64,49
0,78,0,27
0,62,0,76
0,59,0,4
0,69,0,8
0,76,52,73
0,74,0,3
0,76,0,5
0,58,44,60
0,62,51,4
0,65,52,5
0,69,54,12
0,77,61,11
0,81,76,14
0,58,0,8
0,62,0,10
0,65,0,157
0,69,0,28
0,77,0,23
0,81,0,11
0,79,79,69
0,79,0,32
0,77,56,8
0,57,71,33
0,77,0,1
0,76,69,10
0,64,61,7
0,67,51,31
0,57,0,32
0,72,68,4
0,76,0,34
0,67,43,62
0,64,0,24
0,67,0,12
0,72,0,15
0,76,63,33
0,67,0,7
0,76,0,5
0,55,64,38
0,62,55,42
0,66,52,1
0,74,61,2
0,72,55,40
0,55,0,8
0,62,0,34
0,71,59,6
0,66,0,83
0,74,0,42
0,72,0,106
0,72,57,57
0,71,0,2
0,72,0,97
0,71,46,3
0,71,0,9
0,45,42,81
0,52,45,13
0,61,49,9
0,69,30,1
0,64,55,1
0,57,5,15
0,45,0,6
0,52,0,45
0,61,0,6
0,69,0,1
0,52,39,21
0,64,0,72
0,61,38,4
0,57,40,3
0,64,21,2
0,57,0,78
0,52,0,2
0,52,45,12
0,57,59,45
0,61,0,4
0,57,0,7
0,64,0,4
0,52,0,58
0,52,60,2
0,57,63,73
0,57,0,14
0,61,72,0
0,52,0,17
0,57,0,14
0,61,0,6
0,64,72,0
0,45,60,1
0,64,0,34
0,62,74,0
0,55,74,3
0,59,66,0
0,45,0,56
0,62,0,11
0,55,0,7
0,52,31,7
0,62,57,71
0,55,53,0
0,59,0,1
0,59,50,2
0,52,0,83
0,52,54,19
0,62,0,12
0,55,0,18
0,55,43,7
0,59,0,10
0,59,53,25
0,62,53,33
0,52,0,29
0,64,63,7
0,55,0,15
0,59,0,3
0,62,44,16
0,62,0,7
0,64,18,33
0,52,41,3
0,64,0,6
0,62,0,1
0,45,54,34
0,61,36,2
0,57,24,11
0,64,0,1
0,52,0,57
0,45,0,5
0,61,0,6
0,52,43,13
0,57,0,62
0,57,46,8
0,61,40,2
0,64,46,2
0,52,0,37
0,52,43,71
0,57,0,37
0,57,49,5
0,61,0,70
0,52,40,11
0,64,0,4
0,52,0,5
0,57,0,3
0,52,0,10
0,57,43,49
0,61,62,18
0,57,0,11
0,64,71,16
0,61,0,1
0,64,0,24
0,33,60,3
0,45,55,5
0,55,71,2
0,62,66,0
0,59,63,2
0,33,0,24
0,45,0,2
0,55,0,14
0,55,56,51
0,62,0,21
0,62,59,54
0,45,53,0
0,59,54,1
0,59,0,40
0,55,0,50
0,55,44,31
0,62,0,36
0,59,50,6
0,45,0,41
0,45,38,37
0,59,0,21
0,55,56,7
0,55,0,32
0,59,0,3
0,45,44,11
0,45,0,5
0,55,0,9
0,33,62,58
0,57,51,2
0,61,49,1
0,64,51,1
0,45,0,23
0,33,0,10
0,57,52,57
0,61,57,0
0,57,0,5
0,61,0,27
0,64,0,10
0,57,0,14
0,45,46,20
0,61,0,29
0,45,52,51
0,57,80,1
0,61,92,80
0,45,0,17
0,45,0,23
0,64,85,103
0,57,0,4
0,61,0,13
0,64,0,4
0,45,66,7
0,45,0,22
0,33,76,4
0,55,78,24
0,62,84,0
0,59,70,2
0,45,62,0
0,33,0,51
0,64,40,12
0,61,72,10
0,55,0,12
0,62,0,82
0,59,0,6
0,45,54,34
0,45,0,24
0,57,75,52
0,45,74,1
0,64,0,48
0,61,0,43
0,45,0,49
0,57,0,1
0,45,83,1
0,57,83,0
0,45,0,13
0,45,0,15
0,57,0,11
0,35,70,26
0,62,95,3
0,66,88,0
0,47,74,1
0,35,0,13
0,62,0,8
0,66,0,38
0,47,0,2
0,36,65,6
0,67,87,0
0,64,90,1
0,59,82,1
0,48,74,1
0,36,0,17
0,67,0,9
0,64,0,1
0,67,81,18
0,59,79,0
0,64,77,1
0,59,0,13
0,48,0,38
0,67,0,4
0,48,73,3
0,59,0,2
0,67,73,50
0,64,0,25
0,48,0,2
0,67,0,2
0,69,80,17
0,69,0,20
0,35,60,35
0,62,69,0
0,66,71,2
0,47,56,0
0,57,70,1
0,35,0,36
0,62,0,19
0,66,0,6
0,47,0,17
0,47,72,13
0,57,90,37
0,57,0,30
0,47,0,3
0,62,79,5
0,57,0,2
0,62,0,23
0,64,77,9
0,64,0,23
0,46,59,24
0,34,59,0
0,65,77,3
0,56,82,0
0,60,74,1
0,46,0,2
0,34,0,15
0,65,76,19
0,56,44,2
0,65,0,10
0,56,0,1
0,60,0,7
0,65,0,3
0,46,69,36
0,65,75,49
0,56,0,2
0,46,0,24
0,65,0,1
0,67,68,14
0,33,74,9
0,67,0,9
0,60,59,11
0,55,72,0
0,64,72,0
0,45,63,2
0,33,0,29
0,60,0,15
0,55,0,7
0,64,0,9
0,55,63,9
0,45,50,39
0,60,70,2
0,45,0,23
0,55,0,0
0,45,0,29
0,62,62,23
0,60,0,17
0,62,0,4
0,31,63,21
0,62,71,14
0,43,49,0
0,54,57,3
0,31,0,32
0,60,68,6
0,62,0,27
0,59,67,8
0,43,0,28
0,54,0,18
0,60,0,17
0,43,34,55
0,59,0,28
0,43,44,56
0,57,59,2
0,43,0,12
0,43,37,60
0,43,0,28
0,55,59,15
0,57,0,26
0,43,0,8
0,54,63,4
0,43,44,75
0,55,0,3
0,54,0,20
0,43,0,8
0,52,58,7
0,52,0,31
0,38,60,7
0,50,66,1
0,38,0,33
0,50,47,34
0,81,71,80
0,78,65,2
0,50,0,12
0,50,46,56
0,50,0,22
0,81,0,5
0,78,0,14
0,79,59,1
0,50,0,31
0,78,72,4
0,50,57,8
0,79,0,28
0,76,61,8
0,78,0,37
0,74,76,5
0,50,0,9
0,76,0,11
0,50,54,62
0,74,0,48
0,72,54,25
0,50,0,1
0,72,0,28
0,71,53,9
0,71,0,27
0,69,67,13
0,45,43,4
0,69,0,14
0,52,46,14
0,61,51,74
0,64,51,3
0,45,0,19
0,52,40,67
0,52,0,13
0,61,0,59
0,57,70,3
0,52,54,1
0,64,0,7
0,61,80,78
0,52,0,8
0,52,46,66
0,57,0,67
0,64,76,7
0,52,0,15
0,52,63,23
0,61,0,1
0,52,0,21
0,45,68,15
0,64,0,3
0,62,75,3
0,59,53,3
0,52,0,4
0,45,0,63
0,64,73,0
0,61,72,0
0,62,0,22
0,57,51,88
0,52,54,70
0,59,0,10
0,57,64,68
0,64,0,23
0,61,0,3
0,57,0,2
0,52,0,31
0,45,77,4
0,57,0,1
0,45,0,57
0,66,85,12
0,62,92,1
0,36,71,53
0,66,0,10
0,62,0,0
0,67,93,2
0,64,93,1
0,59,86,0
0,48,75,1
0,36,0,3
0,67,0,2
0,64,0,11
0,67,93,18
0,59,84,1
0,64,87,1
0,59,0,14
0,48,0,3
0,67,0,0
0,59,0,1
0,48,76,45
0,64,0,35
0,67,92,15
0,48,0,2
0,67,0,20
0,69,83,23
0,35,64,12
0,69,0,15
0,47,57,10
0,62,78,1
0,66,78,2
0,57,70,0
0,35,0,65
0,47,0,10
0,62,0,6
0,47,64,28
0,66,0,10
0,57,0,12
0,47,0,2
0,57,90,16
0,62,77,41
0,57,0,16
0,62,0,10
0,64,74,6
0,64,0,26
0,46,68,10
0,34,65,0
0,56,83,4
0,60,77,1
0,65,80,0
0,46,0,12
0,34,0,16
0,56,11,17
0,65,65,1
0,56,0,13
0,60,0,1
0,65,0,1
0,56,0,10
0,46,67,33
0,65,0,43
0,65,82,10
0,46,0,21
0,65,0,5
0,67,78,16
0,33,76,7
0,67,0,13
0,45,71,14
0,55,79,1
0,64,67,1
0,60,66,0
0,61,54,2
0,33,0,6
0,45,0,27
0,55,0,20
0,64,0,22
0,60,0,1
0,55,71,5
0,61,0,26
0,45,61,9
0,55,16,0
0,60,79,4
0,55,0,27
0,45,0,5
0,55,0,14
0,62,78,25
0,60,0,14
0,62,0,9
0,31,71,17
0,43,45,8
0,62,73,5
0,54,72,0
0,31,0,36
0,60,71,2
0,43,0,33
0,59,62,10
0,62,0,33
0,54,0,2
0,60,0,32
0,43,38,70
0,59,0,22
0,57,59,63
0,43,47,2
0,43,0,12
0,43,49,62
0,57,0,21
0,55,56,14
0,43,0,25
0,43,0,4
0,54,52,11
0,55,0,75
0,43,34,1
0,54,0,16
0,43,0,22
0,52,48,2
0,52,0,29
0,38,55,7
0,50,59,5
0,38,0,42
0,50,54,34
0,81,68,78
0,78,65,2
0,50,0,20
0,50,51,49
0,50,0,15
0,81,0,17
0,79,51,12
0,78,0,31
0,78,60,5
0,50,0,36
0,76,48,8
0,79,0,39
0,74,62,4
0,78,0,3
0,76,0,9
0,50,54,54
0,74,0,17
0,50,0,1
0,72,67,64
0,72,0,29
0,71,59,9
0,71,0,31
0,45,67,2
0,69,74,4
0,45,0,11
0,52,64,10
0,73,61,78
0,64,64,2
0,69,59,0
0,76,18,4
0,69,0,34
0,52,0,25
0,57,61,1
0,73,0,19
0,64,0,4
0,74,79,25
0,69,0,17
0,76,0,15
0,73,77,2
0,57,0,2
0,71,60,35
0,74,0,11
0,73,0,21
0,69,68,11
0,71,0,13
0,81,98,58
0,52,77,1
0,69,0,15
0,81,0,1
0,52,0,43
0,79,79,18
0,78,82,33
0,79,0,2
0,78,0,11
0,47,81,13
0,52,86,1
0,40,80,1
0,76,93,0
0,47,0,24
0,65,51,55
0,67,46,0
0,52,0,12
0,40,0,4
0,64,79,16
0,76,0,5
0,65,0,16
0,59,87,21
0,67,97,0
0,52,73,1
0,67,0,58
0,64,86,11
0,64,0,2
0,59,0,16
0,67,0,4
0,59,85,13
0,67,93,1
0,40,71,36
0,52,0,8
0,64,0,14
0,59,0,17
0,64,90,1
0,67,0,21
0,67,86,17
0,40,0,33
0,64,77,9
0,64,0,14
0,52,62,5
0,67,0,8
0,64,0,4
0,67,74,2
0,52,0,4
0,67,0,5
0,61,81,12
0,69,80,1
0,64,81,0
0,52,77,1
0,45,54,3
0,47,58,3
0,61,0,7
0,69,0,1
0,64,0,4
0,52,0,0
0,45,0,4
0,47,0,2
0,40,79,50
0,47,80,1
0,52,77,2
0,67,83,61
0,59,72,1
0,40,0,29
0,64,81,3
0,47,0,2
0,52,0,11
0,67,0,12
0,59,77,12
0,67,83,1
0,52,72,1
0,59,0,65
0,64,0,5
0,64,72,6
0,59,0,28
0,67,0,20
0,50,77,23
0,67,82,1
0,59,77,1
0,52,0,17
0,64,0,1
0,50,0,11
0,67,0,9
0,59,0,3
0,67,66,37
0,67,0,13
0,61,76,2
0,69,77,1
0,52,74,3
0,64,77,1
0,45,71,1
0,61,0,22
0,69,0,1
0,52,0,54
0,47,80,54
0,40,80,0
0,52,82,1
0,64,0,3
0,45,0,4
0,59,77,40
0,67,87,0
0,47,0,15
0,40,0,3
0,52,0,2
0,59,0,13
0,64,86,0
0,67,0,13
0,64,0,19
0,67,85,7
0,59,71,2
0,67,0,56
0,64,86,16
0,59,0,1
0,64,0,27
0,59,83,2
0,67,93,0
0,50,76,1
0,38,79,2
0,48,58,3
0,59,0,8
0,64,83,28
0,67,0,3
0,50,0,31
0,67,78,2
0,38,0,34
0,64,83,1
0,67,73,38
0,48,0,17
0,64,0,2
0,67,0,2
0,69,100,18
0,64,0,23
0,67,0,13
0,48,87,4
0,64,86,2
0,36,82,0
0,59,79,1
0,69,0,8
0,48,0,3
0,64,0,0
0,36,0,1
0,48,92,62
0,59,82,1
0,36,82,1
0,64,83,0
0,59,0,57
0,48,0,24
0,59,0,7
0,59,82,53
0,67,77,1
0,36,0,10
0,64,0,24
0,64,82,5
0,67,77,42
0,59,0,16
0,67,0,23
0,67,66,31
0,64,0,4
0,67,0,1
0,67,0,3
0,33,72,27
0,61,75,0
0,45,54,1
0,69,60,4
0,64,69,1
0,33,0,53
0,61,0,55
0,45,58,31
0,45,0,29
0,61,43,110
0,69,0,6
0,64,0,13
0,45,0,18
0,45,57,37
0,57,66,34
0,61,53,35
0,61,0,11
0,45,0,17
0,64,66,4
0,57,0,3
0,61,0,23
0,33,66,6
0,59,64,11
0,62,71,0
0,45,55,22
0,64,0,25
0,33,0,2
0,59,0,2
0,62,49,43
0,64,56,0
0,59,50,1
0,62,0,2
0,45,0,41
0,62,0,16
0,64,0,3
0,45,49,6
0,59,0,18
0,45,59,56
0,45,0,60
0,45,0,7
0,71,61,14
0,74,66,80
0,71,0,16
0,74,0,57
0,78,65,2
0,78,0,13
0,60,64,68
0,79,61,2
0,64,65,16
0,67,50,4
0,71,48,29
0,60,0,22
0,81,63,20
0,79,0,6
0,71,40,35
0,64,0,29
0,79,62,8
0,67,0,7
0,71,0,1
0,81,0,0
0,71,0,29
0,67,58,1
0,79,0,12
0,67,0,7
0,59,66,16
0,78,71,5
0,62,59,20
0,74,77,2
0,66,59,1
0,59,0,5
0,69,59,41
0,78,0,5
0,66,71,34
0,62,0,6
0,69,72,32
0,74,0,2
0,66,0,30
0,69,0,0
0,66,0,1
0,76,77,2
0,69,0,1
0,65,45,43
0,64,31,4
0,76,0,8
0,65,0,0
0,64,0,8
0,58,81,9
0,77,86,4
0,62,74,23
0,65,74,3
0,69,74,33
0,58,0,22
0,77,0,14
0,79,78,4
0,69,71,40
0,62,0,16
0,65,0,19
0,77,81,3
0,69,0,7
0,79,0,9
0,69,0,11
0,64,72,8
0,77,0,32
0,64,0,3
0,57,75,3
0,76,70,1
0,64,69,30
0,72,69,19
0,57,0,2
0,76,0,32
0,67,61,7
0,64,0,2
0,72,0,45
0,64,66,1
0,67,0,63
0,60,48,1
0,64,0,15
0,60,0,6
0,74,71,25
0,74,0,25
0,59,35,29
0,59,0,32
0,75,76,9
0,53,51,3
0,59,49,28
0,63,59,38
0,65,60,35
0,53,0,13
0,71,52,20
0,59,0,29
0,75,70,3
0,63,0,13
0,77,40,29
0,65,0,22
0,83,64,13
0,71,0,28
0,87,68,5
0,75,0,8
0,89,68,27
0,75,0,31
0,95,68,22
0,77,0,10
0,83,0,45
0,99,70,14
0,87,0,8
0,89,0,158
0,95,0,11
0,99,0,1
0,71,90,125
0,71,0,55
0,72,70,21
0,72,0,7
0,50,62,38
0,50,0,31
0,43,69,3
0,66,85,0
0,74,85,1
0,69,82,0
0,71,71,3
0,50,69,50
0,43,0,1
0,66,0,10
0,74,0,6
0,66,49,55
0,69,0,2
0,71,0,2
0,50,0,4
0,66,0,14
0,36,74,47
0,59,57,17
0,62,67,0
0,64,69,1
0,67,60,2
0,48,52,44
0,36,0,11
0,59,54,58
0,59,0,2
0,62,0,18
0,47,77,63
0,35,77,1
0,64,0,1
0,67,0,11
0,48,0,2
0,59,0,3
0,47,0,8
0,35,0,4
0,67,83,37
0,65,53,6
0,67,0,8
0,33,80,18
0,65,0,5
0,64,78,3
0,33,0,29
0,45,69,11
0,60,84,2
0,57,90,0
0,64,73,1
0,67,84,0
0,64,0,28
0,45,0,13
0,60,0,7
0,57,0,13
0,60,75,4
0,64,82,1
0,57,74,1
0,64,0,9
0,45,73,64
0,67,0,2
0,60,0,11
0,64,0,1
0,57,0,3
0,45,0,6
0,67,84,19
0,67,0,17
0,67,77,26
0,67,0,19
0,38,67,0
0,50,69,47
0,66,68,1
0,60,74,1
0,69,66,1
0,38,0,42
0,60,71,24
0,50,0,18
0,66,0,2
0,60,0,5
0,69,0,5
0,50,82,40
0,60,0,15
0,50,0,7
0,71,78,25
0,71,0,23
0,72,79,16
0,72,0,14
0,43,69,1
0,74,83,15
0,66,84,1
0,54,72,1
0,71,73,1
0,43,0,16
0,74,0,5
0,66,0,6
0,54,0,6
0,54,77,67
0,71,0,3
0,54,0,5
