track,note,velocity,time
3,52,66,962
3,52,0,108
3,52,66,10
3,52,0,50
3,43,66,10
3,43,0,48
3,45,66,12
3,45,0,110
3,45,66,10
3,45,0,48
3,48,66,12
3,48,0,50
3,50,66,10
3,50,0,110
3,50,66,11
3,50,0,49
3,41,66,10
3,41,0,50
3,43,66,10
3,43,0,109
3,47,66,11
3,47,0,49
3,50,66,11
3,50,0,50
3,52,66,10
3,52,0,107
3,52,66,13
3,52,0,50
3,43,66,10
3,43,0,48
3,45,66,12
3,45,0,110
3,45,66,7
3,45,0,51
3,48,66,13
3,48,0,49
3,50,66,10
3,50,0,109
3,50,66,11
3,50,0,50
3,41,66,10
3,41,0,50
3,43,66,10
3,43,0,110
3,47,66,11
3,47,0,49
3,50,66,10
3,50,0,49
3,52,66,13
3,52,0,108
3,52,66,7
3,52,0,53
3,43,66,10
3,43,0,48
3,45,66,12
3,45,0,107
3,45,66,13
3,45,0,48
3,48,66,12
3,48,0,50
3,50,66,10
3,50,0,110
3,50,66,11
3,50,0,49
3,41,66,10
3,41,0,47
3,43,66,9
3,43,0,114
3,45,66,10
3,45,0,50
3,47,66,10
3,47,0,50
3,54,77,547
3,65,77,0
3,60,77,0
3,54,0,422
3,65,0,0
3,60,0,0
3,52,66,2
3,52,0,109
3,52,66,12
3,52,0,49
3,43,66,9
3,43,0,48
3,45,66,12
3,45,0,110
3,45,66,12
3,45,0,46
3,48,66,12
3,48,0,51
3,50,66,10
3,50,0,109
3,50,66,12
3,50,0,48
3,41,66,10
3,41,0,50
3,43,66,10
3,43,0,110
3,47,66,11
3,47,0,49
3,50,66,11
3,50,0,49
3,52,66,10
3,52,0,110
3,52,66,12
3,52,0,48
3,43,66,10
3,43,0,49
3,45,66,12
3,45,0,110
3,45,66,10
3,45,0,47
3,48,66,12
3,48,0,50
3,50,66,10
3,50,0,110
3,50,66,11
3,50,0,49
3,41,66,7
3,41,0,53
3,43,66,10
3,43,0,110
3,47,66,10
3,47,0,47
3,50,66,13
3,50,0,49
3,52,66,11
3,52,0,110
3,52,66,11
3,52,0,49
3,43,66,10
3,43,0,48
3,45,66,12
3,45,0,110
3,45,66,11
3,45,0,45
3,48,66,14
3,48,0,50
3,50,66,10
3,50,0,110
3,50,66,12
3,50,0,48
3,41,66,10
3,41,0,49
3,43,66,11
3,43,0,110
3,47,66,11
3,47,0,49
3,50,66,10
3,50,0,50
3,54,77,552
3,65,77,1
3,60,77,0
3,54,0,416
3,65,0,2
3,60,0,0
3,74,76,0
3,76,78,1
3,79,72,0
3,74,0,39
3,76,0,0
3,79,0,0
3,67,79,19
3,67,0,41
3,74,80,19
3,76,78,1
3,79,74,0
3,74,0,40
3,76,0,0
3,79,0,0
3,67,83,19
3,67,0,40
3,76,80,20
3,79,78,0
3,74,73,1
3,76,0,40
3,79,0,0
3,74,0,0
3,67,83,19
3,67,0,41
3,76,79,19
3,79,75,0
3,74,74,1
3,76,0,40
3,79,0,0
3,74,0,0
3,67,83,19
3,67,0,40
3,72,76,20
3,74,78,0
3,77,72,1
3,72,0,40
3,74,0,0
3,77,0,0
3,65,79,16
3,65,0,40
3,72,80,20
3,74,78,0
3,77,74,0
3,72,0,43
3,74,0,1
3,77,0,0
3,65,83,19
3,65,0,41
3,74,80,20
3,77,78,1
3,72,73,0
3,74,0,38
3,77,0,2
3,72,0,0
3,65,83,18
3,65,0,41
3,74,79,19
3,77,75,0
3,72,74,1
3,74,0,39
3,77,0,1
3,72,0,0
3,65,83,19
3,65,0,41
3,70,76,16
3,72,78,0
3,75,72,0
3,70,0,44
3,72,0,0
3,75,0,0
3,63,79,19
3,63,0,38
3,70,80,22
3,72,78,0
3,75,74,0
3,70,0,40
3,72,0,1
3,75,0,1
3,63,83,18
3,63,0,41
3,72,80,19
3,75,78,1
3,70,73,0
3,72,0,39
3,75,0,1
3,70,0,0
3,63,83,19
3,63,0,40
3,72,79,20
3,75,75,1
3,70,74,0
3,72,0,36
3,75,0,0
3,70,0,0
3,63,83,23
3,63,0,41
3,69,76,20
3,71,78,0
3,74,72,0
3,69,0,40
3,71,0,0
3,74,0,1
3,62,79,18
3,62,0,40
3,69,80,20
3,71,78,1
3,74,74,0
3,69,0,40
3,71,0,0
3,74,0,0
3,62,83,19
3,62,0,41
3,71,80,19
3,74,78,1
3,69,73,0
3,71,0,40
3,74,0,0
3,69,0,1
3,62,83,15
3,62,0,44
3,71,79,19
3,74,75,0
3,69,74,1
3,71,0,39
3,74,0,1
3,69,0,1
3,62,83,18
3,62,0,41
3,74,76,21
3,76,78,1
3,79,72,0
3,74,0,38
3,76,0,0
3,79,0,1
3,67,79,18
3,67,0,40
3,74,80,20
3,76,78,1
3,79,74,0
3,74,0,40
3,76,0,0
3,79,0,0
3,67,83,19
3,67,0,41
3,76,80,19
3,79,78,1
3,74,73,0
3,76,0,39
3,79,0,1
3,74,0,0
3,67,83,17
3,67,0,42
3,76,79,20
3,79,75,1
3,74,74,1
3,76,0,38
3,79,0,1
3,74,0,1
3,67,83,18
3,67,0,40
3,72,76,21
3,74,78,0
3,77,72,0
3,72,0,40
3,74,0,0
3,77,0,0
3,65,79,19
3,65,0,41
3,72,80,19
3,74,78,0
3,77,74,1
3,72,0,40
3,74,0,0
3,77,0,0
3,65,83,19
3,65,0,40
3,74,80,17
3,77,78,0
3,72,73,0
3,74,0,40
3,77,0,0
3,72,0,0
3,65,83,23
3,65,0,40
3,74,79,20
3,77,75,1
3,72,74,1
3,74,0,38
3,77,0,1
3,72,0,1
3,65,83,18
3,65,0,41
3,70,76,22
3,72,78,0
3,75,72,0
3,70,0,38
3,72,0,0
3,75,0,0
3,63,79,19
3,63,0,40
3,70,80,20
3,72,78,1
3,75,74,0
3,70,0,39
3,72,0,1
3,75,0,0
3,63,83,19
3,63,0,41
3,72,80,19
3,75,78,1
3,70,73,0
3,72,0,40
3,75,0,0
3,70,0,1
3,63,83,18
3,63,0,41
3,72,79,19
3,75,75,1
3,70,74,0
3,72,0,40
3,75,0,0
3,70,0,0
3,63,83,20
3,63,0,39
3,54,77,80
3,65,77,0
3,60,77,1
3,54,0,417
3,65,0,1
3,60,0,1
3,63,77,2
3,56,77,2
3,60,77,0
3,56,0,474
3,60,0,1
3,63,0,1
3,58,77,0
3,65,77,0
3,62,77,0
3,65,0,479
3,62,0,0
3,58,0,1
3,60,82,1
3,64,74,0
3,60,0,48
3,64,0,1
3,55,73,10
3,55,0,49
3,60,76,11
3,64,66,1
3,60,0,49
3,64,0,0
3,55,81,10
3,55,0,50
3,60,80,5
3,64,67,0
3,60,0,55
3,64,0,0
3,55,82,11
3,55,0,48
3,60,79,11
3,64,72,1
3,60,0,49
3,64,0,0
3,55,76,10
3,55,0,50
3,57,77,11
3,62,77,0
3,64,77,0
3,57,0,49
3,62,0,0
3,64,0,1
3,54,77,9
3,54,0,50
3,62,77,10
3,57,77,1
3,64,77,0
3,62,0,49
3,57,0,1
3,64,0,0
3,54,77,9
3,54,0,50
3,62,77,10
3,57,77,1
3,64,77,0
3,62,0,49
3,57,0,0
3,64,0,0
3,54,77,7
3,54,0,53
3,57,77,12
3,62,77,0
3,64,77,0
3,57,0,47
3,62,0,1
3,64,0,0
3,54,77,10
3,54,0,49
3,62,66,13
3,57,66,1
3,64,66,0
3,62,0,477
3,57,0,0
3,64,0,0
3,64,77,0
3,62,77,1
3,57,77,0
3,50,66,3
3,50,0,45
3,45,66,12
3,45,0,49
3,50,66,11
3,50,0,49
3,45,66,7
3,45,0,26
3,50,66,8
3,50,0,49
3,50,66,11
3,50,0,24
3,45,66,7
3,45,0,48
3,50,66,13
3,50,0,48
3,45,66,10
3,45,0,49
3,64,0,10
3,62,0,0
3,57,0,0
3,64,88,0
3,62,88,0
3,57,88,1
3,50,77,2
3,50,0,43
3,45,77,12
3,45,0,52
3,50,77,12
3,50,0,44
3,45,77,15
3,45,0,23
3,50,77,8
3,50,0,45
3,50,77,14
3,50,0,24
3,45,77,6
3,45,0,49
3,50,77,11
3,50,0,49
3,45,77,11
3,45,0,49
3,64,0,11
3,62,0,0
3,57,0,1
3,53,66,1
3,53,0,17
3,53,66,42
3,53,0,17
3,53,66,43
3,53,0,18
3,53,66,42
3,53,0,17
3,53,66,43
3,53,0,20
3,53,66,20
3,53,0,25
3,53,66,15
3,53,0,24
3,53,66,15
3,53,0,25
3,53,66,15
3,53,0,25
3,53,66,15
3,53,0,25
3,52,66,976
3,52,0,108
3,43,66,11
3,43,0,49
3,44,66,10
3,44,0,46
3,45,66,14
3,45,0,110
3,48,66,12
3,48,0,46
3,49,66,12
3,49,0,51
3,50,66,9
3,50,0,110
3,41,66,11
3,41,0,49
3,42,66,10
3,42,0,50
3,43,66,11
3,43,0,106
3,47,66,15
3,47,0,48
3,50,66,10
3,50,0,50
3,52,66,10
3,52,0,110
3,43,66,12
3,43,0,48
3,44,66,10
3,44,0,48
3,45,66,12
3,45,0,110
3,48,66,11
3,48,0,47
3,49,66,9
3,49,0,49
3,50,66,15
3,50,0,106
3,41,66,15
3,41,0,48
3,42,66,10
3,42,0,45
3,43,66,15
3,43,0,110
3,52,66,131
3,52,0,109
3,52,66,11
3,52,0,49
3,43,66,10
3,43,0,48
3,45,66,12
3,45,0,110
3,48,66,12
3,48,0,46
3,49,66,12
3,49,0,47
3,50,66,13
3,50,0,110
3,41,66,11
3,41,0,49
3,42,66,10
3,42,0,50
3,43,66,10
3,43,0,107
3,45,66,15
3,45,0,48
3,47,66,10
3,47,0,50
3,54,77,551
3,65,77,0
3,60,77,1
3,54,0,417
3,65,0,1
3,60,0,0
3,31,51,6
3,31,0,29
3,41,51,61
3,41,0,14
3,43,51,71
3,43,0,34
3,31,51,60
3,33,51,31
3,31,0,2
3,33,0,12
3,34,51,46
3,34,0,14
3,35,51,42
3,35,0,18
3,31,51,45
3,31,0,28
3,41,51,63
3,41,0,14
3,43,51,75
3,43,0,31
3,31,51,59
3,26,51,30
3,31,0,3
3,26,0,27
3,29,51,31
3,29,0,26
3,30,51,34
3,30,0,30
3,31,51,30
3,31,0,29
3,41,51,60
3,41,0,15
3,43,51,76
3,43,0,29
3,31,51,60
3,31,0,31
3,33,51,0
3,33,0,14
3,34,51,46
3,34,0,14
3,35,51,42
3,35,0,18
3,31,51,46
3,31,0,29
3,41,51,60
3,41,0,15
3,43,51,76
3,43,0,29
3,31,51,57
3,31,0,30
3,26,51,0
3,26,0,33
3,29,51,31
3,29,0,30
3,30,51,31
3,30,0,30
3,62,77,114
3,56,71,0
3,67,77,0
3,62,0,145
3,56,0,1
3,67,0,1
3,61,77,92
3,66,77,0
3,55,77,1
3,61,0,145
3,66,0,0
3,55,0,0
3,65,77,94
3,61,77,0
3,54,77,2
3,65,0,144
3,61,0,0
3,54,0,0
3,53,77,95
3,59,77,0
3,64,77,0
3,53,0,145
3,59,0,0
3,64,0,0
3,62,77,94
3,67,77,1
3,56,71,0
3,62,0,144
3,67,0,1
3,56,0,0
3,61,77,95
3,66,77,0
3,55,77,0
3,61,0,145
3,66,0,0
3,55,0,0
3,65,77,94
3,60,77,1
3,54,77,0
3,65,0,145
3,60,0,0
3,54,0,1
3,53,77,94
3,59,77,0
3,64,77,1
3,53,0,141
3,59,0,0
3,64,0,0
3,56,73,9
3,62,74,1
3,67,64,1
3,56,0,47
3,62,0,0
3,67,0,0
3,62,67,10
3,67,49,0
3,56,72,0
3,62,0,50
3,67,0,0
3,56,0,0
3,56,75,10
3,67,50,1
3,62,66,0
3,56,0,50
3,67,0,0
3,62,0,0
3,56,74,9
3,62,67,0
3,67,53,1
3,56,0,49
3,62,0,0
3,67,0,0
3,61,84,6
3,66,77,0
3,55,70,0
3,61,0,54
3,66,0,0
3,55,0,0
3,55,64,9
3,66,65,1
3,61,81,0
3,55,0,50
3,66,0,1
3,61,0,0
3,55,70,8
3,61,76,0
3,66,65,1
3,55,0,47
3,61,0,0
3,66,0,0
3,66,66,9
3,55,73,0
3,61,76,0
3,66,0,53
3,55,0,1
3,61,0,0
3,61,86,10
3,54,82,0
3,65,54,0
3,61,0,50
3,54,0,0
3,65,0,0
3,54,79,10
3,61,79,0
3,65,54,1
3,54,0,46
3,61,0,0
3,65,0,0
3,54,80,13
3,61,80,0
3,65,58,1
3,54,0,48
3,61,0,1
3,65,0,0
3,54,83,10
3,61,77,0
3,65,57,0
3,54,0,50
3,61,0,0
3,65,0,1
3,59,85,9
3,53,79,0
3,64,61,0
3,59,0,50
3,53,0,0
3,64,0,1
3,53,75,9
3,59,76,0
3,64,58,0
3,53,0,50
3,59,0,0
3,64,0,0
3,53,74,9
3,59,74,0
3,64,58,1
3,53,0,50
3,59,0,0
3,64,0,1
3,53,76,8
3,64,66,0
3,59,78,1
3,53,0,50
3,64,0,0
3,59,0,1
3,62,68,10
3,56,68,0
3,67,56,1
3,62,0,48
3,56,0,0
3,67,0,0
3,62,70,6
3,56,77,0
3,67,56,0
3,62,0,53
3,56,0,1
3,67,0,0
3,56,74,10
3,62,73,0
3,67,55,0
3,56,0,50
3,62,0,0
3,67,0,1
3,56,80,9
3,62,73,0
3,67,55,1
3,56,0,46
3,62,0,0
3,67,0,0
3,55,73,12
3,61,88,1
3,66,68,0
3,55,0,50
3,61,0,0
3,66,0,0
3,55,71,10
3,61,85,0
3,66,71,0
3,55,0,50
3,61,0,0
3,66,0,1
3,66,73,8
3,55,71,1
3,61,78,0
3,66,0,50
3,55,0,0
3,61,0,1
3,66,76,9
3,61,80,0
3,55,79,0
3,66,0,50
3,61,0,0
3,55,0,0
3,60,79,10
3,54,81,0
3,65,62,0
3,60,0,50
3,54,0,0
3,65,0,1
3,54,85,9
3,60,77,0
3,65,61,0
3,54,0,50
3,60,0,1
3,65,0,0
3,54,87,9
3,65,62,1
3,60,78,0
3,54,0,49
3,65,0,0
3,60,0,1
3,54,86,9
3,65,62,0
3,60,74,0
3,54,0,50
3,65,0,0
3,60,0,0
3,53,76,10
3,59,77,0
3,64,60,0
3,53,0,50
3,59,0,0
3,64,0,1
3,53,74,8
3,59,80,1
3,64,56,0
3,53,0,50
3,59,0,0
3,64,0,0
3,53,80,10
3,59,80,0
3,64,58,0
3,53,0,50
3,59,0,0
3,64,0,0
3,53,78,6
3,64,62,0
3,59,80,0
3,53,0,54
3,64,0,0
3,59,0,0
3,56,77,12
3,62,77,0
3,67,77,0
3,56,0,49
3,62,0,0
3,67,0,0
3,67,77,39
3,62,77,0
3,56,77,0
3,56,0,770
3,67,0,2
3,62,0,1
3,66,79,99
3,55,73,0
3,61,88,0
3,66,0,43
3,61,0,1
3,55,0,7
3,61,86,37
3,66,76,1
3,55,78,4
3,61,0,720
3,66,0,3
3,55,0,1
3,54,77,143
3,60,77,0
3,65,77,0
3,54,0,56
3,60,0,0
3,65,0,2
3,60,77,28
3,54,77,0
3,65,77,2
3,60,0,833
3,54,0,0
3,65,0,5
3,52,66,271
3,52,0,110
3,43,66,11
3,43,0,49
3,44,66,11
3,44,0,47
3,45,66,12
3,45,0,110
3,48,66,13
3,48,0,45
3,49,66,12
3,49,0,50
3,50,66,10
3,50,0,110
3,41,66,10
3,41,0,50
3,42,66,10
3,42,0,53
3,43,66,7
3,43,0,110
3,47,66,11
3,47,0,49
3,50,66,7
3,50,0,53
3,52,66,11
3,52,0,109
3,43,66,12
3,43,0,48
3,44,66,11
3,44,0,47
3,45,66,12
3,45,0,110
3,48,66,10
3,48,0,48
3,49,66,12
3,49,0,50
3,50,66,10
3,50,0,110
3,41,66,11
3,41,0,49
3,42,66,11
3,42,0,49
3,43,66,10
3,43,0,110
3,52,66,130
3,52,0,110
3,52,66,12
3,52,0,48
3,43,66,10
3,43,0,48
3,45,66,12
3,45,0,110
3,48,66,11
3,48,0,47
3,49,66,12
3,49,0,51
3,50,66,9
3,50,0,107
3,41,66,15
3,41,0,48
3,42,66,10
3,42,0,50
3,43,66,10
3,43,0,110
3,45,66,11
3,45,0,49
