track,note,velocity,time
1,43,64,0
1,55,64,0
1,44,64,2
1,43,64,2
1,55,64,0
1,51,64,5642
1,66,84,0
1,70,84,0
1,73,84,0
1,50,64,2
1,65,84,0
1,69,84,0
1,72,84,0
1,50,64,82
1,65,84,0
1,69,84,0
1,72,84,0
1,50,64,82
1,65,84,0
1,69,84,0
1,72,84,0
1,50,64,82
1,65,84,0
1,69,84,0
1,72,84,0
1,51,64,42
1,66,84,0
1,70,84,0
1,73,84,0
1,50,64,2
1,65,84,0
1,69,84,0
1,72,84,0
1,50,64,82
1,65,84,0
1,69,84,0
1,72,84,0
1,50,64,82
1,65,84,0
1,69,84,0
1,72,84,0
1,50,64,82
1,65,84,0
1,69,84,0
1,72,84,0
1,51,64,42
1,66,84,0
1,70,84,0
1,73,84,0
1,50,64,2
1,65,84,0
1,69,84,0
1,72,84,0
1,50,64,82
1,65,84,0
1,69,84,0
1,72,84,0
1,50,64,82
1,65,84,0
1,69,84,0
1,72,84,0
1,50,64,82
1,65,84,0
1,69,84,0
1,72,84,0
1,50,64,42
1,66,84,0
1,70,84,0
1,73,84,0
1,43,64,2
1,65,84,0
1,69,84,0
1,72,84,0
1,65,84,722
1,64,84,2
1,60,84,2
1,62,84,2
1,55,84,2
1,55,84,602
1,65,84,2
1,64,84,2
1,60,84,2
1,60,84,2
1,62,84,2
1,76,30,1562
1,76,30,2
1,72,30,2
1,69,30,2
1,72,30,2
1,67,30,322
1,69,30,2
1,71,30,2
1,74,30,2
1,74,30,2
1,67,30,2
1,71,30,2
1,67,30,2
1,69,30,2
1,64,30,2
1,59,30,602
1,62,30,2
1,64,30,2
1,65,30,2
1,67,30,2
1,69,30,2
1,71,30,2
1,72,30,2
1,74,30,2
1,76,30,2
1,74,30,2
1,72,30,2
1,71,30,2
1,67,30,2
1,69,30,2
1,64,30,2
1,67,30,2
1,51,64,122
1,66,84,0
1,70,84,0
1,73,84,0
1,50,64,2
1,65,84,0
1,69,84,0
1,72,84,0
1,50,64,82
1,65,84,0
1,69,84,0
1,72,84,0
1,50,64,82
1,65,84,0
1,69,84,0
1,72,84,0
1,50,64,82
1,65,84,0
1,69,84,0
1,72,84,0
1,51,64,42
1,66,84,0
1,70,84,0
1,73,84,0
1,50,64,2
1,65,84,0
1,69,84,0
1,72,84,0
1,50,64,82
1,65,84,0
1,69,84,0
1,72,84,0
1,50,64,82
1,65,84,0
1,69,84,0
1,72,84,0
1,50,64,82
1,65,84,0
1,69,84,0
1,72,84,0
1,51,64,42
1,70,84,0
1,73,84,0
1,66,84,0
1,50,64,2
1,65,84,0
1,69,84,0
1,72,84,0
1,50,64,82
1,65,84,0
1,69,84,0
1,72,84,0
1,50,64,82
1,65,84,0
1,69,84,0
1,72,84,0
1,50,64,82
1,65,84,0
1,69,84,0
1,72,84,0
1,50,64,42
1,66,84,0
1,70,84,0
1,73,84,0
1,43,64,2
1,65,84,0
1,69,84,0
1,72,84,0
1,65,84,722
1,64,84,2
1,60,84,2
1,62,84,2
1,55,84,2
1,55,84,602
1,65,84,2
1,64,84,2
1,60,84,2
1,60,84,2
1,62,84,2
1,50,64,1922
1,77,84,0
1,52,64,2
1,76,84,0
1,53,64,122
1,72,84,0
1,54,64,122
1,67,84,0
1,55,64,2
1,50,64,2
1,77,84,0
1,52,64,2
1,76,84,0
1,53,64,122
1,72,84,0
1,54,64,122
1,67,84,0
1,55,64,2
1,50,64,2
1,77,84,0
1,52,64,2
1,76,84,0
1,53,64,122
1,72,84,0
1,54,64,122
1,67,84,0
1,55,64,2
1,77,84,2
1,52,64,2
1,76,84,0
1,53,64,122
1,72,84,0
1,54,64,122
1,74,84,0
1,55,64,2
1,60,64,2
1,67,84,0
1,71,84,0
1,76,84,0
1,74,84,2
1,76,84,2
1,61,64,2
1,67,84,0
1,76,84,0
1,81,84,0
1,70,84,482
1,65,84,0
1,74,84,0
1,70,84,2
1,65,84,0
1,74,84,0
1,65,84,2
1,70,84,0
1,74,84,0
1,65,84,602
1,70,84,0
1,74,84,0
1,70,84,2
1,65,84,0
1,74,84,0
1,65,84,2
1,70,84,0
1,74,84,0
1,72,84,602
1,65,84,0
1,69,84,0
1,65,84,2
1,69,84,0
1,72,84,0
1,65,84,2
1,69,84,0
1,72,84,0
1,65,84,122
1,69,84,0
1,72,84,0
1,65,84,2
1,69,84,0
1,72,84,0
1,65,84,2
1,69,84,0
1,72,84,0
1,65,84,2
1,69,84,0
1,72,84,0
1,65,84,2
1,69,84,0
1,72,84,0
1,64,84,2
1,67,84,0
1,72,84,0
1,64,84,2
1,67,84,0
1,72,84,0
1,64,84,2
1,67,84,0
1,72,84,0
1,64,84,122
1,76,84,0
1,64,84,2
1,76,84,0
1,64,84,2
1,76,84,0
1,65,84,2
1,77,84,0
1,67,84,2
1,79,84,0
1,65,84,2
1,70,84,0
1,74,84,0
1,65,84,2
1,70,84,0
1,74,84,0
1,70,84,2
1,65,84,0
1,74,84,0
1,65,84,602
1,70,84,0
1,74,84,0
1,70,84,2
1,65,84,0
1,74,84,0
1,65,84,2
1,70,84,0
1,74,84,0
1,51,64,482
1,66,84,0
1,70,84,0
1,73,84,0
1,50,64,2
1,65,84,0
1,69,84,0
1,72,84,0
1,56,64,542
1,63,84,0
1,60,84,0
1,55,64,2
1,58,84,0
1,62,84,0
1,43,64,6362
1,55,84,0
1,50,64,2
1,62,84,0
1,45,64,2
1,57,84,0
1,46,64,2
1,58,84,0
1,50,64,2
1,62,84,0
1,48,64,2
1,60,84,0
1,50,64,2
1,62,84,0
1,50,64,2
1,62,84,0
1,48,64,2
1,60,84,0
1,45,64,2
1,57,84,0
1,43,64,2
1,55,84,0
1,45,64,2
1,57,84,0
1,48,64,2
1,60,84,0
1,45,64,2
1,57,84,0
1,51,64,2
1,63,84,0
1,51,64,2
1,63,84,0
1,49,64,2
1,61,84,0
1,46,64,2
1,58,84,0
1,44,64,2
1,56,84,0
1,46,64,2
1,58,84,0
1,49,64,2
1,61,84,0
1,46,64,2
1,58,84,0
1,50,64,2
1,62,84,0
1,50,64,2
1,62,84,0
1,48,64,2
1,60,84,0
1,45,64,2
1,57,84,0
1,46,64,2
1,58,84,0
1,49,64,2
1,61,84,0
1,51,64,2
1,63,84,0
1,53,64,2
1,65,84,0
1,51,64,962
1,66,84,0
1,70,84,0
1,73,84,0
1,51,64,2
1,70,84,0
1,66,84,0
1,73,84,0
1,51,64,2
1,66,84,0
1,70,84,0
1,73,84,0
1,51,64,2
1,73,84,0
1,70,84,0
1,66,84,0
1,75,84,2
1,72,84,0
1,70,84,2
1,73,84,0
1,49,64,2
1,68,84,0
1,65,84,0
1,72,84,0
1,53,64,2
1,65,84,0
1,54,64,2
1,66,84,0
1,56,64,2
1,68,84,0
1,58,64,2
1,70,84,0
1,59,64,2
1,71,84,0
1,61,64,2
1,73,84,0
1,62,64,2
1,74,84,0
1,65,64,2
1,77,84,0
1,51,64,2
1,68,84,0
1,58,84,0
1,61,84,0
1,47,64,2
1,61,84,0
1,68,84,0
1,57,84,0
1,53,64,2
1,68,84,0
1,63,84,0
1,56,84,0
1,46,64,2
1,56,84,0
1,59,84,0
1,62,84,0
1,51,64,2
1,58,84,0
1,61,84,0
1,66,84,0
1,54,64,2
1,56,64,0
1,60,84,0
1,62,84,0
1,54,64,9482
1,66,84,0
1,78,84,0
1,54,64,842
1,66,84,0
1,78,84,0
1,54,64,842
1,66,84,0
1,78,84,0
1,54,64,842
1,66,84,0
1,78,84,0
1,54,64,842
1,66,84,0
1,78,84,0
1,54,64,842
1,66,84,0
1,78,84,0
1,54,64,10
1,66,84,0
1,78,84,0
1,54,64,64
1,66,84,0
1,78,84,0
1,66,84,42
1,78,84,0
1,54,64,0
2,58,99,77280
2,61,99,0
2,56,99,0
2,42,99,0
2,61,99,2
2,56,99,0
2,58,99,0
2,56,99,2
2,58,99,0
2,61,99,0
2,61,99,2
2,56,99,0
2,58,99,0
2,42,99,120
2,58,99,2
2,63,99,0
2,56,99,0
2,47,99,0
2,56,99,2
2,63,99,0
2,58,99,0
2,56,99,2
2,58,99,0
2,63,99,0
2,58,99,2
2,63,99,0
2,56,99,0
2,47,99,120
2,56,99,2
2,61,99,0
2,58,99,0
2,42,99,0
2,61,99,2
2,58,99,0
2,56,99,0
2,61,99,2
2,56,99,0
2,58,99,0
2,56,99,2
2,61,99,0
2,58,99,0
2,42,99,120
2,63,99,2
2,56,99,0
2,58,99,0
2,47,99,0
2,63,99,2
2,56,99,0
2,58,99,0
2,63,99,2
2,58,99,0
2,56,99,0
2,63,99,2
2,56,99,0
2,58,99,0
2,47,99,120
2,56,99,2
2,58,99,0
2,61,99,0
2,42,99,0
2,61,99,2
2,56,99,0
2,58,99,0
2,61,99,2
2,56,99,0
2,58,99,0
2,56,99,2
2,58,99,0
2,61,99,0
2,42,99,120
2,63,99,2
2,56,99,0
2,58,99,0
2,47,99,0
2,56,99,2
2,63,99,0
2,58,99,0
2,63,99,2
2,56,99,0
2,58,99,0
2,63,99,2
2,56,99,0
2,58,99,0
2,47,99,120
2,56,99,2
2,58,99,0
2,61,99,0
2,42,99,0
2,61,99,2
2,56,99,0
2,58,99,0
2,61,99,2
2,56,99,0
2,58,99,0
2,56,99,2
2,58,99,0
2,61,99,0
2,42,99,120
2,63,99,2
2,56,99,0
2,58,99,0
2,47,99,0
2,56,99,2
2,63,99,0
2,58,99,0
2,63,99,2
2,56,99,0
2,58,99,0
2,63,99,2
2,56,99,0
2,58,99,0
2,47,99,120
2,56,99,2
2,58,99,0
2,61,99,0
2,42,99,0
2,61,99,2
2,56,99,0
2,58,99,0
2,61,99,2
2,56,99,0
2,58,99,0
2,56,99,2
2,58,99,0
2,61,99,0
2,42,99,120
2,63,99,2
2,56,99,0
2,58,99,0
2,47,99,0
2,56,99,2
2,63,99,0
2,58,99,0
2,63,99,2
2,56,99,0
2,58,99,0
2,63,99,2
2,56,99,0
2,58,99,0
2,47,99,120
2,56,99,2
2,58,99,0
2,61,99,0
2,42,99,0
2,61,99,2
2,56,99,0
2,58,99,0
2,61,99,2
2,56,99,0
2,58,99,0
2,56,99,2
2,58,99,0
2,61,99,0
2,42,99,120
2,63,99,2
2,56,99,0
2,58,99,0
2,47,99,0
2,56,99,2
2,63,99,0
2,58,99,0
2,63,99,2
2,56,99,0
2,58,99,0
2,63,99,2
2,56,99,0
2,58,99,0
2,47,99,120
2,56,99,2
2,58,99,0
2,61,99,0
2,42,99,0
2,61,99,2
2,56,99,0
2,58,99,0
2,61,99,2
2,56,99,0
2,58,99,0
2,56,99,2
2,58,99,0
2,61,99,0
2,42,99,120
2,63,99,2
2,56,99,0
2,58,99,0
2,47,99,0
2,56,99,2
2,63,99,0
2,58,99,0
2,63,99,2
2,56,99,0
2,58,99,0
2,63,99,2
2,56,99,0
2,58,99,0
2,47,99,120
2,56,99,2
2,58,99,0
2,61,99,0
2,42,99,0
2,61,99,2
2,56,99,0
2,58,99,0
2,61,99,2
2,56,99,0
2,58,99,0
2,56,99,2
2,58,99,0
2,61,99,0
2,42,99,120
2,63,99,2
2,56,99,0
2,58,99,0
2,47,99,0
2,56,99,2
2,63,99,0
2,58,99,0
2,63,99,2
2,56,99,0
2,58,99,0
2,63,99,2
2,56,99,0
2,58,99,0
2,47,99,120
2,56,99,2
2,58,99,0
2,61,99,0
2,42,99,0
2,61,99,2
2,56,99,0
2,58,99,0
2,61,99,2
2,56,99,0
2,58,99,0
2,56,99,2
2,58,99,0
2,61,99,0
2,42,99,120
2,63,99,2
2,56,99,0
2,58,99,0
2,47,99,0
2,56,99,2
2,63,99,0
2,58,99,0
2,63,99,2
2,56,99,0
2,58,99,0
2,63,99,2
2,56,99,0
2,58,99,0
2,47,99,120
2,56,99,2
2,58,99,0
2,61,99,0
2,42,99,0
2,61,99,2
2,56,99,0
2,58,99,0
2,61,99,2
2,56,99,0
2,58,99,0
2,56,99,2
2,58,99,0
2,61,99,0
2,42,99,120
2,63,99,0
2,56,99,0
2,58,99,0
2,47,99,0
2,56,99,2
2,63,99,0
2,58,99,0
2,63,99,2
2,56,99,0
2,58,99,0
2,63,99,2
2,56,99,0
2,58,99,0
2,47,99,20
2,56,99,2
2,58,99,0
2,61,99,0
2,42,99,0
2,61,99,2
2,56,99,0
2,58,99,0
2,61,99,2
2,56,99,0
2,58,99,0
2,56,99,2
2,58,99,0
2,61,99,0
2,42,99,10
2,63,99,2
2,56,99,0
2,58,99,0
2,47,99,0
2,56,99,2
2,63,99,0
2,58,99,0
2,63,99,2
2,56,99,0
2,58,99,0
2,63,99,2
2,56,99,0
2,58,99,0
2,47,99,0
2,56,99,2
2,58,99,0
2,61,99,0
2,42,99,0
2,61,99,2
2,56,99,0
2,58,99,0
2,61,99,2
2,56,99,0
2,58,99,0
2,56,99,2
2,58,99,0
2,61,99,0
2,42,99,64
2,63,99,2
2,56,99,0
2,58,99,0
2,47,99,0
2,56,99,2
2,63,99,0
2,58,99,0
2,63,99,2
2,56,99,0
2,58,99,0
2,63,99,2
2,56,99,0
2,58,99,0
2,47,99,54
2,56,99,2
2,58,99,0
2,61,99,0
2,42,99,0
2,61,99,2
2,56,99,0
2,58,99,0
2,61,99,2
2,56,99,0
2,58,99,0
2,56,99,2
2,58,99,0
2,61,99,0
2,42,99,42
2,63,99,2
2,56,99,0
2,58,99,0
2,47,99,0
2,56,99,2
2,63,99,0
2,58,99,0
2,63,99,2
2,56,99,0
2,58,99,0
2,63,99,2
2,56,99,0
2,58,99,0
2,47,99,32
3,31,119,0
3,32,119,2
3,31,119,2
3,38,119,2
3,33,119,2
3,38,119,2
3,38,119,2
3,33,119,2
3,36,119,2
3,45,119,2
3,43,119,2
3,40,119,2
3,38,119,2
3,36,119,2
3,38,119,2
3,33,119,2
3,38,119,2
3,38,119,2
3,33,119,2
3,36,119,2
3,45,119,2
3,43,119,2
3,40,119,2
3,38,119,2
3,36,119,2
3,38,119,2
3,38,119,2
3,38,119,2
3,33,119,2
3,36,119,2
3,45,119,2
3,43,119,2
3,40,119,2
3,33,119,2
3,39,119,2
3,38,119,2
3,33,119,2
3,38,119,2
3,33,119,2
3,38,119,2
3,33,119,2
3,38,119,2
3,39,119,2
3,38,119,2
3,33,119,2
3,38,119,2
3,33,119,2
3,38,119,2
3,33,119,2
3,38,119,2
3,39,119,2
3,38,119,2
3,33,119,2
3,38,119,2
3,33,119,2
3,38,119,2
3,33,119,2
3,38,119,2
3,33,119,2
3,32,119,2
3,31,119,2
3,31,119,2
3,31,119,2
3,38,119,2
3,43,119,2
3,38,119,2
3,43,119,2
3,38,119,2
3,31,119,2
3,31,119,2
3,31,119,2
3,31,119,2
3,38,119,2
3,43,119,2
3,31,119,2
3,31,119,2
3,31,119,2
3,28,119,2
3,29,119,2
3,30,119,2
3,31,119,2
3,31,119,2
3,31,119,2
3,31,119,2
3,38,119,2
3,43,119,2
3,31,119,2
3,31,119,2
3,38,119,2
3,31,119,2
3,31,119,2
3,31,119,2
3,33,119,2
3,36,119,2
3,36,119,2
3,36,119,2
3,36,119,2
3,40,119,2
3,40,119,2
3,40,119,2
3,41,119,2
3,43,119,2
3,43,119,2
3,45,119,2
3,40,119,2
3,45,119,122
3,40,119,2
3,39,119,2
3,38,119,2
3,33,119,122
3,31,119,2
3,33,119,2
3,36,119,2
3,33,119,122
3,31,119,2
3,33,119,2
3,38,119,2
3,33,119,122
3,31,119,2
3,33,119,2
3,36,119,2
3,33,119,122
3,31,119,2
3,33,119,2
3,38,119,2
3,33,119,122
3,31,119,2
3,33,119,2
3,36,119,2
3,33,119,122
3,31,119,2
3,39,119,2
3,38,119,2
3,33,119,2
3,33,119,2
3,38,119,2
3,33,119,2
3,33,119,2
3,38,119,2
3,33,119,2
3,33,119,2
3,38,119,2
3,39,119,2
3,38,119,2
3,33,119,2
3,33,119,2
3,38,119,2
3,33,119,2
3,33,119,2
3,38,119,2
3,33,119,2
3,33,119,2
