track,note,velocity,time
1,52,66,962
1,52,0,108
1,52,66,10
1,52,0,50
1,43,66,10
1,43,0,48
1,45,66,12
1,45,0,110
1,45,66,10
1,45,0,48
1,48,66,12
1,48,0,50
1,50,66,10
1,50,0,110
1,50,66,11
1,50,0,49
1,41,66,10
1,41,0,50
1,43,66,10
1,43,0,109
1,47,66,11
1,47,0,49
1,50,66,11
1,50,0,50
1,52,66,10
1,52,0,107
1,52,66,13
1,52,0,50
1,43,66,10
1,43,0,48
1,45,66,12
1,45,0,110
1,45,66,7
1,45,0,51
1,48,66,13
1,48,0,49
1,50,66,10
1,50,0,109
1,50,66,11
1,50,0,50
1,41,66,10
1,41,0,50
1,43,66,10
1,43,0,110
1,47,66,11
1,47,0,49
1,50,66,10
1,50,0,49
1,52,66,13
1,52,0,108
1,52,66,7
1,52,0,53
1,43,66,10
1,43,0,48
1,45,66,12
1,45,0,107
1,45,66,13
1,45,0,48
1,48,66,12
1,48,0,50
1,50,66,10
1,50,0,110
1,50,66,11
1,50,0,49
1,41,66,10
1,41,0,47
1,43,66,9
1,43,0,114
1,45,66,10
1,45,0,50
1,47,66,10
1,47,0,50
1,54,77,547
1,65,77,0
1,60,77,0
1,54,0,422
1,65,0,0
1,60,0,0
1,52,66,2
1,52,0,109
1,52,66,12
1,52,0,49
1,43,66,9
1,43,0,48
1,45,66,12
1,45,0,110
1,45,66,12
1,45,0,46
1,48,66,12
1,48,0,51
1,50,66,10
1,50,0,109
1,50,66,12
1,50,0,48
1,41,66,10
1,41,0,50
1,43,66,10
1,43,0,110
1,47,66,11
1,47,0,49
1,50,66,11
1,50,0,49
1,52,66,10
1,52,0,110
1,52,66,12
1,52,0,48
1,43,66,10
1,43,0,49
1,45,66,12
1,45,0,110
1,45,66,10
1,45,0,47
1,48,66,12
1,48,0,50
1,50,66,10
1,50,0,110
1,50,66,11
1,50,0,49
1,41,66,7
1,41,0,53
1,43,66,10
1,43,0,110
1,47,66,10
1,47,0,47
1,50,66,13
1,50,0,49
1,52,66,11
1,52,0,110
1,52,66,11
1,52,0,49
1,43,66,10
1,43,0,48
1,45,66,12
1,45,0,110
1,45,66,11
1,45,0,45
1,48,66,14
1,48,0,50
1,50,66,10
1,50,0,110
1,50,66,12
1,50,0,48
1,41,66,10
1,41,0,49
1,43,66,11
1,43,0,110
1,47,66,11
1,47,0,49
1,50,66,10
1,50,0,50
1,54,77,552
1,65,77,1
1,60,77,0
1,54,0,416
1,65,0,2
1,60,0,0
1,74,76,0
1,76,78,1
1,79,72,0
1,74,0,39
1,76,0,0
1,79,0,0
1,67,79,19
1,67,0,41
1,74,80,19
1,76,78,1
1,79,74,0
1,74,0,40
1,76,0,0
1,79,0,0
1,67,83,19
1,67,0,40
1,76,80,20
1,79,78,0
1,74,73,1
1,76,0,40
1,79,0,0
1,74,0,0
1,67,83,19
1,67,0,41
1,76,79,19
1,79,75,0
1,74,74,1
1,76,0,40
1,79,0,0
1,74,0,0
1,67,83,19
1,67,0,40
1,72,76,20
1,74,78,0
1,77,72,1
1,72,0,40
1,74,0,0
1,77,0,0
1,65,79,16
1,65,0,40
1,72,80,20
1,74,78,0
1,77,74,0
1,72,0,43
1,74,0,1
1,77,0,0
1,65,83,19
1,65,0,41
1,74,80,20
1,77,78,1
1,72,73,0
1,74,0,38
1,77,0,2
1,72,0,0
1,65,83,18
1,65,0,41
1,74,79,19
1,77,75,0
1,72,74,1
1,74,0,39
1,77,0,1
1,72,0,0
1,65,83,19
1,65,0,41
1,70,76,16
1,72,78,0
1,75,72,0
1,70,0,44
1,72,0,0
1,75,0,0
1,63,79,19
1,63,0,38
1,70,80,22
1,72,78,0
1,75,74,0
1,70,0,40
1,72,0,1
1,75,0,1
1,63,83,18
1,63,0,41
1,72,80,19
1,75,78,1
1,70,73,0
1,72,0,39
1,75,0,1
1,70,0,0
1,63,83,19
1,63,0,40
1,72,79,20
1,75,75,1
1,70,74,0
1,72,0,36
1,75,0,0
1,70,0,0
1,63,83,23
1,63,0,41
1,69,76,20
1,71,78,0
1,74,72,0
1,69,0,40
1,71,0,0
1,74,0,1
1,62,79,18
1,62,0,40
1,69,80,20
1,71,78,1
1,74,74,0
1,69,0,40
1,71,0,0
1,74,0,0
1,62,83,19
1,62,0,41
1,71,80,19
1,74,78,1
1,69,73,0
1,71,0,40
1,74,0,0
1,69,0,1
1,62,83,15
1,62,0,44
1,71,79,19
1,74,75,0
1,69,74,1
1,71,0,39
1,74,0,1
1,69,0,1
1,62,83,18
1,62,0,41
1,74,76,21
1,76,78,1
1,79,72,0
1,74,0,38
1,76,0,0
1,79,0,1
1,67,79,18
1,67,0,40
1,74,80,20
1,76,78,1
1,79,74,0
1,74,0,40
1,76,0,0
1,79,0,0
1,67,83,19
1,67,0,41
1,76,80,19
1,79,78,1
1,74,73,0
1,76,0,39
1,79,0,1
1,74,0,0
1,67,83,17
1,67,0,42
1,76,79,20
1,79,75,1
1,74,74,1
1,76,0,38
1,79,0,1
1,74,0,1
1,67,83,18
1,67,0,40
1,72,76,21
1,74,78,0
1,77,72,0
1,72,0,40
1,74,0,0
1,77,0,0
1,65,79,19
1,65,0,41
1,72,80,19
1,74,78,0
1,77,74,1
1,72,0,40
1,74,0,0
1,77,0,0
1,65,83,19
1,65,0,40
1,74,80,17
1,77,78,0
1,72,73,0
1,74,0,40
1,77,0,0
1,72,0,0
1,65,83,23
1,65,0,40
1,74,79,20
1,77,75,1
1,72,74,1
1,74,0,38
1,77,0,1
1,72,0,1
1,65,83,18
1,65,0,41
1,70,76,22
1,72,78,0
1,75,72,0
1,70,0,38
1,72,0,0
1,75,0,0
1,63,79,19
1,63,0,40
1,70,80,20
1,72,78,1
1,75,74,0
1,70,0,39
1,72,0,1
1,75,0,0
1,63,83,19
1,63,0,41
1,72,80,19
1,75,78,1
1,70,73,0
1,72,0,40
1,75,0,0
1,70,0,1
1,63,83,18
1,63,0,41
1,72,79,19
1,75,75,1
1,70,74,0
1,72,0,40
1,75,0,0
1,70,0,0
1,63,83,20
1,63,0,39
1,54,77,80
1,65,77,0
1,60,77,1
1,54,0,417
1,65,0,1
1,60,0,1
1,63,77,2
1,56,77,2
1,60,77,0
1,56,0,474
1,60,0,1
1,63,0,1
1,58,77,0
1,65,77,0
1,62,77,0
1,65,0,479
1,62,0,0
1,58,0,1
1,60,82,1
1,64,74,0
1,60,0,48
1,64,0,1
1,55,73,10
1,55,0,49
1,60,76,11
1,64,66,1
1,60,0,49
1,64,0,0
1,55,81,10
1,55,0,50
1,60,80,5
1,64,67,0
1,60,0,55
1,64,0,0
1,55,82,11
1,55,0,48
1,60,79,11
1,64,72,1
1,60,0,49
1,64,0,0
1,55,76,10
1,55,0,50
1,57,77,11
1,62,77,0
1,64,77,0
1,57,0,49
1,62,0,0
1,64,0,1
1,54,77,9
1,54,0,50
1,62,77,10
1,57,77,1
1,64,77,0
1,62,0,49
1,57,0,1
1,64,0,0
1,54,77,9
1,54,0,50
1,62,77,10
1,57,77,1
1,64,77,0
1,62,0,49
1,57,0,0
1,64,0,0
1,54,77,7
1,54,0,53
1,57,77,12
1,62,77,0
1,64,77,0
1,57,0,47
1,62,0,1
1,64,0,0
1,54,77,10
1,54,0,49
1,62,66,13
1,57,66,1
1,64,66,0
1,62,0,477
1,57,0,0
1,64,0,0
1,64,77,0
1,62,77,1
1,57,77,0
1,50,66,3
1,50,0,45
1,45,66,12
1,45,0,49
1,50,66,11
1,50,0,49
1,45,66,7
1,45,0,26
1,50,66,8
1,50,0,49
1,50,66,11
1,50,0,24
1,45,66,7
1,45,0,48
1,50,66,13
1,50,0,48
1,45,66,10
1,45,0,49
1,64,0,10
1,62,0,0
1,57,0,0
1,64,88,0
1,62,88,0
1,57,88,1
1,50,77,2
1,50,0,43
1,45,77,12
1,45,0,52
1,50,77,12
1,50,0,44
1,45,77,15
1,45,0,23
1,50,77,8
1,50,0,45
1,50,77,14
1,50,0,24
1,45,77,6
1,45,0,49
1,50,77,11
1,50,0,49
1,45,77,11
1,45,0,49
1,64,0,11
1,62,0,0
1,57,0,1
1,53,66,1
1,53,0,17
1,53,66,42
1,53,0,17
1,53,66,43
1,53,0,18
1,53,66,42
1,53,0,17
1,53,66,43
1,53,0,20
1,53,66,20
1,53,0,25
1,53,66,15
1,53,0,24
1,53,66,15
1,53,0,25
1,53,66,15
1,53,0,25
1,53,66,15
1,53,0,25
1,52,66,976
1,52,0,108
1,43,66,11
1,43,0,49
1,44,66,10
1,44,0,46
1,45,66,14
1,45,0,110
1,48,66,12
1,48,0,46
1,49,66,12
1,49,0,51
1,50,66,9
1,50,0,110
1,41,66,11
1,41,0,49
1,42,66,10
1,42,0,50
1,43,66,11
1,43,0,106
1,47,66,15
1,47,0,48
1,50,66,10
1,50,0,50
1,52,66,10
1,52,0,110
1,43,66,12
1,43,0,48
1,44,66,10
1,44,0,48
1,45,66,12
1,45,0,110
1,48,66,11
1,48,0,47
1,49,66,9
1,49,0,49
1,50,66,15
1,50,0,106
1,41,66,15
1,41,0,48
1,42,66,10
1,42,0,45
1,43,66,15
1,43,0,110
1,52,66,131
1,52,0,109
1,52,66,11
1,52,0,49
1,43,66,10
1,43,0,48
1,45,66,12
1,45,0,110
1,48,66,12
1,48,0,46
1,49,66,12
1,49,0,47
1,50,66,13
1,50,0,110
1,41,66,11
1,41,0,49
1,42,66,10
1,42,0,50
1,43,66,10
1,43,0,107
1,45,66,15
1,45,0,48
1,47,66,10
1,47,0,50
1,54,77,551
1,65,77,0
1,60,77,1
1,54,0,417
1,65,0,1
1,60,0,0
1,31,51,6
1,31,0,29
1,41,51,61
1,41,0,14
1,43,51,71
1,43,0,34
1,31,51,60
1,33,51,31
1,31,0,2
1,33,0,12
1,34,51,46
1,34,0,14
1,35,51,42
1,35,0,18
1,31,51,45
1,31,0,28
1,41,51,63
1,41,0,14
1,43,51,75
1,43,0,31
1,31,51,59
1,26,51,30
1,31,0,3
1,26,0,27
1,29,51,31
1,29,0,26
1,30,51,34
1,30,0,30
1,31,51,30
1,31,0,29
1,41,51,60
1,41,0,15
1,43,51,76
1,43,0,29
1,31,51,60
1,31,0,31
1,33,51,0
1,33,0,14
1,34,51,46
1,34,0,14
1,35,51,42
1,35,0,18
1,31,51,46
1,31,0,29
1,41,51,60
1,41,0,15
1,43,51,76
1,43,0,29
1,31,51,57
1,31,0,30
1,26,51,0
1,26,0,33
1,29,51,31
1,29,0,30
1,30,51,31
1,30,0,30
1,62,77,114
1,56,71,0
1,67,77,0
1,62,0,145
1,56,0,1
1,67,0,1
1,61,77,92
1,66,77,0
1,55,77,1
1,61,0,145
1,66,0,0
1,55,0,0
1,65,77,94
1,61,77,0
1,54,77,2
1,65,0,144
1,61,0,0
1,54,0,0
1,53,77,95
1,59,77,0
1,64,77,0
1,53,0,145
1,59,0,0
1,64,0,0
1,62,77,94
1,67,77,1
1,56,71,0
1,62,0,144
1,67,0,1
1,56,0,0
1,61,77,95
1,66,77,0
1,55,77,0
1,61,0,145
1,66,0,0
1,55,0,0
1,65,77,94
1,60,77,1
1,54,77,0
1,65,0,145
1,60,0,0
1,54,0,1
1,53,77,94
1,59,77,0
1,64,77,1
1,53,0,141
1,59,0,0
1,64,0,0
1,56,73,9
1,62,74,1
1,67,64,1
1,56,0,47
1,62,0,0
1,67,0,0
1,62,67,10
1,67,49,0
1,56,72,0
1,62,0,50
1,67,0,0
1,56,0,0
1,56,75,10
1,67,50,1
1,62,66,0
1,56,0,50
1,67,0,0
1,62,0,0
1,56,74,9
1,62,67,0
1,67,53,1
1,56,0,49
1,62,0,0
1,67,0,0
1,61,84,6
1,66,77,0
1,55,70,0
1,61,0,54
1,66,0,0
1,55,0,0
1,55,64,9
1,66,65,1
1,61,81,0
1,55,0,50
1,66,0,1
1,61,0,0
1,55,70,8
1,61,76,0
1,66,65,1
1,55,0,47
1,61,0,0
1,66,0,0
1,66,66,9
1,55,73,0
1,61,76,0
1,66,0,53
1,55,0,1
1,61,0,0
1,61,86,10
1,54,82,0
1,65,54,0
1,61,0,50
1,54,0,0
1,65,0,0
1,54,79,10
1,61,79,0
1,65,54,1
1,54,0,46
1,61,0,0
1,65,0,0
1,54,80,13
1,61,80,0
1,65,58,1
1,54,0,48
1,61,0,1
1,65,0,0
1,54,83,10
1,61,77,0
1,65,57,0
1,54,0,50
1,61,0,0
1,65,0,1
1,59,85,9
1,53,79,0
1,64,61,0
1,59,0,50
1,53,0,0
1,64,0,1
1,53,75,9
1,59,76,0
1,64,58,0
1,53,0,50
1,59,0,0
1,64,0,0
1,53,74,9
1,59,74,0
1,64,58,1
1,53,0,50
1,59,0,0
1,64,0,1
1,53,76,8
1,64,66,0
1,59,78,1
1,53,0,50
1,64,0,0
1,59,0,1
1,62,68,10
1,56,68,0
1,67,56,1
1,62,0,48
1,56,0,0
1,67,0,0
1,62,70,6
1,56,77,0
1,67,56,0
1,62,0,53
1,56,0,1
1,67,0,0
1,56,74,10
1,62,73,0
1,67,55,0
1,56,0,50
1,62,0,0
1,67,0,1
1,56,80,9
1,62,73,0
1,67,55,1
1,56,0,46
1,62,0,0
1,67,0,0
1,55,73,12
1,61,88,1
1,66,68,0
1,55,0,50
1,61,0,0
1,66,0,0
1,55,71,10
1,61,85,0
1,66,71,0
1,55,0,50
1,61,0,0
1,66,0,1
1,66,73,8
1,55,71,1
1,61,78,0
1,66,0,50
1,55,0,0
1,61,0,1
1,66,76,9
1,61,80,0
1,55,79,0
1,66,0,50
1,61,0,0
1,55,0,0
1,60,79,10
1,54,81,0
1,65,62,0
1,60,0,50
1,54,0,0
1,65,0,1
1,54,85,9
1,60,77,0
1,65,61,0
1,54,0,50
1,60,0,1
1,65,0,0
1,54,87,9
1,65,62,1
1,60,78,0
1,54,0,49
1,65,0,0
1,60,0,1
1,54,86,9
1,65,62,0
1,60,74,0
1,54,0,50
1,65,0,0
1,60,0,0
1,53,76,10
1,59,77,0
1,64,60,0
1,53,0,50
1,59,0,0
1,64,0,1
1,53,74,8
1,59,80,1
1,64,56,0
1,53,0,50
1,59,0,0
1,64,0,0
1,53,80,10
1,59,80,0
1,64,58,0
1,53,0,50
1,59,0,0
1,64,0,0
1,53,78,6
1,64,62,0
1,59,80,0
1,53,0,54
1,64,0,0
1,59,0,0
1,56,77,12
1,62,77,0
1,67,77,0
1,56,0,49
1,62,0,0
1,67,0,0
1,67,77,39
1,62,77,0
1,56,77,0
1,56,0,770
1,67,0,2
1,62,0,1
1,66,79,99
1,55,73,0
1,61,88,0
1,66,0,43
1,61,0,1
1,55,0,7
1,61,86,37
1,66,76,1
1,55,78,4
1,61,0,720
1,66,0,3
1,55,0,1
1,54,77,143
1,60,77,0
1,65,77,0
1,54,0,56
1,60,0,0
1,65,0,2
1,60,77,28
1,54,77,0
1,65,77,2
1,60,0,833
1,54,0,0
1,65,0,5
1,52,66,271
1,52,0,110
1,43,66,11
1,43,0,49
1,44,66,11
1,44,0,47
1,45,66,12
1,45,0,110
1,48,66,13
1,48,0,45
1,49,66,12
1,49,0,50
1,50,66,10
1,50,0,110
1,41,66,10
1,41,0,50
1,42,66,10
1,42,0,53
1,43,66,7
1,43,0,110
1,47,66,11
1,47,0,49
1,50,66,7
1,50,0,53
1,52,66,11
1,52,0,109
1,43,66,12
1,43,0,48
1,44,66,11
1,44,0,47
1,45,66,12
1,45,0,110
1,48,66,10
1,48,0,48
1,49,66,12
1,49,0,50
1,50,66,10
1,50,0,110
1,41,66,11
1,41,0,49
1,42,66,11
1,42,0,49
1,43,66,10
1,43,0,110
1,52,66,130
1,52,0,110
1,52,66,12
1,52,0,48
1,43,66,10
1,43,0,48
1,45,66,12
1,45,0,110
1,48,66,11
1,48,0,47
1,49,66,12
1,49,0,51
1,50,66,9
1,50,0,107
1,41,66,15
1,41,0,48
1,42,66,10
1,42,0,50
1,43,66,10
1,43,0,110
1,45,66,11
1,45,0,49
