track,note,velocity,time
0,26,96,239
0,26,99,53
0,26,96,53
0,36,90,6
0,26,93,8
0,38,98,13
0,26,95,5
0,26,99,60
0,26,99,51
0,36,92,13
0,26,95,5
0,33,96,12
0,26,98,3
0,26,90,61
0,26,98,48
0,36,86,14
0,26,95,3
0,38,99,11
0,26,98,9
0,26,99,62
0,26,99,53
0,36,90,13
0,60,99,1
0,63,102,0
0,67,96,0
0,70,89,0
0,26,95,7
0,33,99,12
0,26,96,15
0,26,99,54
0,44,84,0
0,26,96,53
0,36,90,6
0,26,93,8
0,44,84,0
0,38,98,13
0,26,95,5
0,26,99,60
0,44,84,0
0,26,99,51
0,36,92,13
0,60,104,1
0,63,99,0
0,67,107,0
0,70,99,0
0,26,95,5
0,44,89,0
0,33,96,12
0,26,98,3
0,40,110,14
0,26,90,39
0,44,89,0
0,26,98,48
0,47,112,0
0,36,86,14
0,26,95,3
0,44,86,0
0,38,99,11
0,45,109,0
0,26,98,9
0,43,109,12
0,26,99,47
0,35,115,0
0,44,86,0
0,26,99,53
0,40,112,0
0,35,116,3
0,36,90,13
0,45,103,0
0,26,95,7
0,43,109,0
0,46,96,0
0,33,99,12
0,35,112,0
0,49,95,0
0,26,96,15
0,35,115,0
0,26,99,54
0,35,121,0
0,40,118,0
0,44,89,0
0,72,104,0
0,77,99,0
0,26,96,41
0,35,118,0
0,69,107,0
0,74,113,0
0,36,90,6
0,69,99,1
0,74,96,0
0,26,93,2
0,35,124,0
0,40,118,0
0,44,89,0
0,38,98,13
0,35,109,0
0,43,109,0
0,60,102,0
0,65,99,0
0,26,95,5
0,35,112,0
0,62,116,0
0,67,96,0
0,26,99,3
0,35,118,0
0,40,121,0
0,44,92,0
0,60,102,4
0,65,84,0
0,26,99,45
0,35,118,0
0,36,92,13
0,35,115,0
0,45,103,0
0,26,95,2
0,35,121,0
0,40,118,0
0,44,84,0
0,62,107,0
0,67,96,0
0,33,96,12
0,35,118,0
0,43,112,0
0,60,116,0
0,65,99,0
0,26,98,3
0,35,118,0
0,26,90,61
0,35,118,0
0,40,121,0
0,44,89,0
0,72,116,0
0,77,102,0
0,26,98,43
0,35,115,0
0,69,113,0
0,74,110,0
0,36,86,6
0,69,96,1
0,74,99,0
0,26,95,3
0,35,115,0
0,40,118,0
0,44,86,0
0,38,99,11
0,26,98,9
0,35,118,0
0,77,107,0
0,35,115,14
0,47,112,0
0,74,89,0
0,72,91,21
0,77,99,17
0,26,99,1
0,35,112,0
0,44,86,0
0,74,95,2
0,35,115,0
0,45,112,0
0,69,87,0
0,72,95,20
0,67,107,1
0,26,99,4
0,35,118,0
0,69,94,9
0,36,90,3
0,35,118,0
0,43,112,0
0,44,62,0
0,67,99,20
0,77,90,4
0,26,95,2
0,40,121,0
0,46,86,0
0,74,81,1
0,33,99,0
0,35,115,0
0,72,82,3
0,26,96,4
0,35,127,0
0,49,97,0
0,38,66,0
0,69,80,0
0,62,127,1
0,67,90,2
0,26,99,8
0,35,121,0
0,40,118,0
0,44,84,0
0,55,66,0
0,60,70,0
0,65,70,0
0,60,124,0
0,62,87,2
0,60,84,9
0,26,96,3
0,35,118,0
0,55,72,0
0,60,65,0
0,65,68,0
0,62,127,0
0,36,90,0
0,55,63,1
0,62,60,0
0,60,119,0
0,62,87,5
0,26,93,3
0,35,124,0
0,40,118,0
0,44,64,0
0,57,127,0
0,60,79,10
0,38,98,0
0,35,109,0
0,43,109,0
0,53,59,0
0,55,62,0
0,60,60,0
0,53,119,0
0,57,87,2
0,26,95,3
0,35,112,0
0,55,127,0
0,53,79,1
0,43,57,3
0,55,87,1
0,26,99,0
0,35,118,0
0,40,121,0
0,44,77,0
0,53,62,0
0,55,65,0
0,60,59,0
0,55,127,0
0,53,114,4
0,55,87,39
0,26,99,0
0,35,118,0
0,53,75,0
0,55,72,0
0,60,72,0
0,55,127,0
0,53,74,3
0,36,92,2
0,35,115,0
0,45,103,0
0,62,55,0
0,55,87,2
0,26,95,3
0,35,121,0
0,40,118,0
0,44,49,0
0,45,72,0
0,60,59,0
0,33,96,3
0,35,118,0
0,43,112,0
0,44,89,0
0,53,62,0
0,55,62,0
0,62,75,0
0,26,98,3
0,35,115,0
0,38,68,0
0,62,122,14
0,26,90,7
0,35,121,0
0,40,118,0
0,44,86,0
0,55,59,0
0,60,51,0
0,65,62,0
0,60,127,0
0,62,82,10
0,38,61,1
0,60,87,1
0,26,98,3
0,35,118,0
0,55,61,0
0,60,65,0
0,65,66,0
0,62,127,0
0,36,86,14
0,55,59,1
0,62,68,0
0,60,119,0
0,62,87,0
0,26,95,3
0,35,124,0
0,40,118,0
0,44,86,0
0,43,55,0
0,57,124,0
0,60,79,8
0,38,99,1
0,35,109,0
0,43,109,0
0,60,59,0
0,67,50,0
0,71,61,0
0,53,124,0
0,57,84,0
0,26,98,0
0,35,112,0
0,55,127,0
0,53,84,2
0,45,68,1
0,62,86,0
0,72,75,0
0,53,124,0
0,55,87,9
0,26,99,0
0,35,118,0
0,40,121,0
0,44,81,0
0,71,60,0
0,55,127,0
0,53,84,2
0,67,56,0
0,55,87,6
0,26,99,3
0,35,118,0
0,60,51,0
0,53,127,0
0,36,90,13
0,35,115,0
0,45,103,0
0,59,92,0
0,53,87,0
0,26,95,3
0,35,121,0
0,40,118,0
0,44,64,0
0,50,51,0
0,57,62,0
0,33,99,4
0,35,118,0
0,43,112,0
0,46,52,0
0,45,70,0
0,55,70,0
0,26,96,12
0,35,115,0
0,38,63,0
0,62,127,7
0,26,99,8
0,35,121,0
0,40,118,0
0,44,86,0
0,55,72,0
0,60,72,0
0,65,72,0
0,60,124,0
0,62,87,2
0,38,57,4
0,60,84,9
0,26,96,3
0,35,118,0
0,55,75,0
0,60,66,0
0,65,75,0
0,62,127,0
0,36,90,0
0,55,55,1
0,62,52,0
0,60,119,0
0,62,87,3
0,26,93,3
0,35,124,0
0,40,118,0
0,44,89,0
0,55,50,0
0,57,127,0
0,60,79,10
0,38,98,0
0,35,109,0
0,43,109,0
0,53,54,0
0,55,62,0
0,60,60,0
0,53,119,0
0,57,87,2
0,26,95,3
0,35,112,0
0,55,127,0
0,53,79,1
0,43,70,3
0,55,87,1
0,26,99,0
0,35,118,0
0,40,121,0
0,44,89,0
0,53,68,0
0,55,72,0
0,60,62,0
0,55,127,0
0,45,68,4
0,53,114,0
0,55,87,15
0,26,99,0
0,35,118,0
0,55,70,0
0,60,65,0
0,55,127,0
0,53,74,3
0,36,92,1
0,35,115,0
0,45,103,0
0,62,52,0
0,55,87,2
0,26,95,3
0,35,121,0
0,40,118,0
0,44,84,0
0,55,63,0
0,60,62,0
0,33,96,3
0,35,118,0
0,43,112,0
0,45,62,0
0,55,68,0
0,62,66,0
0,26,98,3
0,35,115,0
0,38,75,0
0,62,122,0
0,26,90,7
0,35,121,0
0,40,118,0
0,44,86,0
0,55,72,0
0,60,66,0
0,65,68,0
0,60,127,0
0,62,82,1
0,60,87,1
0,26,98,3
0,35,118,0
0,55,52,0
0,60,57,0
0,65,65,0
0,62,127,0
0,36,86,14
0,55,63,1
0,64,68,0
0,60,119,0
0,62,87,0
0,26,95,3
0,35,124,0
0,40,118,0
0,44,86,0
0,43,66,0
0,57,124,0
0,60,79,8
0,38,99,1
0,35,109,0
0,43,109,0
0,45,75,0
0,60,86,0
0,53,124,0
0,57,84,0
0,26,98,0
0,35,112,0
0,62,68,0
0,55,127,0
0,53,84,2
0,71,68,1
0,53,124,0
0,55,87,10
0,26,99,0
0,35,118,0
0,40,121,0
0,44,81,0
0,60,52,0
0,55,127,0
0,53,84,2
0,67,81,0
0,55,87,6
0,26,99,3
0,35,118,0
0,53,127,0
0,36,90,13
0,35,115,0
0,44,68,0
0,45,103,0
0,53,87,4
0,26,95,3
0,35,121,0
0,40,118,0
0,46,81,0
0,33,99,12
0,35,118,0
0,43,112,0
0,44,86,0
0,26,95,15
0,35,127,0
0,46,100,0
0,49,97,0
0,60,102,0
0,65,96,0
0,69,96,0
0,72,87,0
0,89,123,0
0,77,103,7
0,26,90,2
0,35,121,0
0,40,118,0
0,46,73,0
0,88,117,0
0,77,103,2
0,26,90,0
0,35,118,0
0,86,112,0
0,26,90,5
0,65,98,1
0,69,89,0
0,72,89,0
0,77,103,0
0,74,94,0
0,26,84,6
0,35,124,0
0,40,118,0
0,46,54,0
0,60,72,0
0,84,112,0
0,74,94,0
0,74,97,0
0,26,88,3
0,35,109,0
0,43,109,0
0,65,89,0
0,69,98,0
0,72,98,0
0,77,112,0
0,74,94,0
0,76,94,2
0,26,93,4
0,35,112,0
0,62,104,0
0,67,99,0
0,71,84,0
0,74,93,0
0,86,117,0
0,77,94,0
0,74,97,0
0,74,95,0
0,81,103,4
0,77,94,0
0,77,95,15
0,26,93,3
0,35,118,0
0,40,121,0
0,46,49,0
0,88,96,0
0,76,94,0
0,77,94,0
0,81,101,3
0,26,86,0
0,35,118,0
0,89,112,0
0,74,94,0
0,76,97,0
0,26,93,0
0,35,115,0
0,45,103,0
0,67,81,0
0,71,95,0
0,74,95,0
0,81,99,0
0,74,98,0
0,26,84,2
0,35,121,0
0,40,118,0
0,46,51,0
0,62,89,0
0,91,112,0
0,77,94,0
0,26,90,3
0,35,118,0
0,43,112,0
0,67,89,0
0,71,95,0
0,74,98,0
0,84,56,0
0,26,90,0
0,35,115,0
0,74,104,0
0,77,104,0
0,81,104,0
0,69,94,0
0,77,95,0
0,74,104,2
0,77,104,0
0,81,104,0
0,69,94,0
0,26,90,18
0,35,121,0
0,40,118,0
0,44,89,0
0,72,89,0
0,77,98,0
0,72,104,0
0,76,104,0
0,79,104,0
0,67,94,0
0,69,94,0
0,69,95,0
0,26,95,25
0,35,118,0
0,69,95,0
0,74,89,0
0,69,104,0
0,74,104,0
0,77,104,0
0,65,94,0
0,67,97,0
0,26,83,7
0,69,75,1
0,74,78,0
0,65,98,3
0,26,93,3
0,35,124,0
0,40,118,0
0,44,86,0
0,74,104,0
0,77,104,0
0,81,104,0
0,84,104,0
0,72,94,0
0,26,93,11
0,35,109,0
0,43,109,0
0,60,81,0
0,65,81,0
0,69,96,3
0,26,93,1
0,35,112,0
0,62,81,0
0,67,68,0
0,63,86,6
0,68,98,0
0,26,93,9
0,35,118,0
0,40,121,0
0,44,86,0
0,62,75,0
0,67,95,0
0,60,72,1
0,65,89,0
0,26,90,2
0,35,118,0
0,26,91,1
0,35,115,0
0,45,103,0
0,62,86,0
0,26,84,1
0,35,121,0
0,40,118,0
0,44,79,0
0,67,104,0
0,67,91,0
0,26,88,2
0,35,118,0
0,43,112,0
0,46,26,0
0,60,86,0
0,65,92,0
0,26,91,2
0,35,117,0
0,46,69,0
0,49,87,0
0,60,89,0
0,65,91,0
0,67,86,0
0,69,87,0
0,72,82,0
0,89,117,0
0,72,54,1
0,77,112,10
0,26,88,3
0,35,121,0
0,40,118,0
0,46,54,0
0,88,123,0
0,77,112,1
0,26,87,4
0,35,118,0
0,86,126,0
0,26,93,2
0,65,95,1
0,69,83,0
0,72,92,0
0,77,112,0
0,74,94,0
0,26,82,0
0,35,124,0
0,40,118,0
0,46,50,0
0,60,95,0
0,84,117,0
0,74,94,0
0,26,86,2
0,35,109,0
0,43,109,0
0,65,78,0
0,69,72,0
0,72,95,0
0,77,103,0
0,74,94,0
0,74,93,0
0,26,88,4
0,35,112,0
0,62,99,0
0,64,70,0
0,74,82,0
0,76,80,0
0,86,126,0
0,79,94,0
0,74,94,0
0,74,95,10
0,81,101,1
0,26,86,6
0,35,118,0
0,40,121,0
0,46,68,0
0,88,123,0
0,77,94,0
0,83,93,0
0,81,103,6
0,81,93,30
0,26,90,0
0,35,118,0
0,89,112,0
0,76,94,0
0,26,90,1
0,35,115,0
0,45,103,0
0,67,83,0
0,71,92,0
0,74,95,0
0,81,91,0
0,79,95,1
0,26,85,0
0,35,121,0
0,40,118,0
0,46,71,0
0,62,92,0
0,91,117,0
0,77,94,0
0,26,90,6
0,35,118,0
0,43,112,0
0,44,79,0
0,67,78,0
0,71,92,0
0,74,83,0
0,84,56,0
0,76,94,0
0,26,82,1
0,35,115,0
0,81,94,0
0,79,94,1
0,26,90,1
0,35,121,0
0,40,118,0
0,44,84,0
0,72,89,0
0,77,95,0
0,26,85,1
0,35,118,0
0,69,68,0
0,74,98,0
0,26,83,3
0,69,78,1
0,74,86,0
0,26,83,1
0,35,124,0
0,40,118,0
0,44,86,0
0,74,94,0
0,26,90,3
0,35,109,0
0,43,109,0
0,60,86,0
0,65,86,0
0,72,94,0
0,26,90,3
0,35,112,0
0,62,66,0
0,67,81,0
0,63,47,4
0,68,57,0
0,77,90,6
0,26,85,1
0,35,118,0
0,40,121,0
0,46,51,0
0,62,60,0
0,67,70,0
0,67,94,0
0,60,70,1
0,65,68,0
0,67,94,0
0,26,90,11
0,35,118,0
0,26,82,11
0,35,115,0
0,45,103,0
0,77,72,0
0,26,82,1
0,35,121,0
0,40,118,0
0,46,51,0
0,69,83,0
0,72,92,0
0,64,94,0
0,26,85,0
0,35,118,0
0,43,112,0
0,62,60,0
0,65,78,0
0,69,81,0
0,64,94,0
0,26,90,1
0,35,115,0
0,69,98,3
0,26,90,1
0,35,121,0
0,40,118,0
0,46,59,0
0,72,66,0
0,77,78,0
0,65,95,3
0,69,83,0
0,72,63,0
0,74,92,0
0,72,101,4
0,26,90,11
0,35,118,0
0,79,101,0
0,26,83,9
0,69,87,3
0,26,85,1
0,35,124,0
0,40,118,0
0,46,42,0
0,81,70,0
0,79,102,0
0,26,87,5
0,35,109,0
0,43,109,0
0,69,101,0
0,72,78,0
0,74,89,0
0,77,86,0
0,72,93,10
0,26,91,5
0,35,112,0
0,79,94,1
0,40,127,5
0,26,87,5
0,40,113,0
0,46,34,0
0,79,96,0
0,35,110,2
0,72,97,0
0,76,97,2
0,77,97,0
0,26,90,5
0,47,110,0
0,84,99,2
0,77,99,0
0,26,84,5
0,35,115,0
0,44,89,0
0,45,103,0
0,76,99,1
0,84,99,3
0,77,99,2
0,26,87,3
0,35,121,0
0,43,118,0
0,57,99,0
0,76,99,0
0,72,98,1
0,71,98,6
0,26,90,0
0,35,118,0
0,43,112,0
0,52,97,0
0,72,86,0
0,69,97,8
0,67,95,2
0,76,86,0
0,65,95,3
0,64,93,10
0,77,86,0
0,26,90,2
0,35,127,0
0,44,69,0
0,49,97,0
0,69,113,0
0,74,119,0
0,76,104,0
0,59,87,7
0,60,87,0
0,84,90,0
0,57,81,3
0,77,90,0
0,53,79,1
0,52,78,8
0,76,90,0
0,50,78,3
0,84,90,0
0,76,105,18
0,77,90,0
0,26,93,3
0,35,121,0
0,40,118,0
0,46,42,0
0,76,90,4
0,72,88,1
0,71,87,6
0,69,104,1
0,73,119,0
0,76,107,0
0,69,85,8
0,67,82,12
0,65,81,4
0,64,77,11
0,26,98,4
0,35,118,0
0,46,25,0
0,59,65,7
0,60,65,0
0,69,81,3
0,57,62,0
0,53,62,1
0,73,104,0
0,26,91,3
0,75,98,1
0,76,98,0
0,81,89,0
0,52,62,4
0,50,62,3
0,76,102,14
0,26,98,3
0,35,124,0
0,40,118,0
0,46,25,0
0,69,89,0
0,75,104,0
0,76,95,0
0,81,98,0
0,26,90,0
0,35,109,0
0,43,109,0
0,26,101,14
0,35,112,0
0,46,42,0
0,69,113,0
0,74,122,0
0,76,110,0
0,73,99,4
0,76,103,22
0,26,98,3
0,35,118,0
0,40,121,0
0,46,42,0
0,69,99,2
0,73,113,0
0,76,102,0
0,26,101,2
0,35,118,0
0,46,34,0
0,78,101,6
0,26,91,3
0,35,115,0
0,45,103,0
0,76,97,14
0,26,100,3
0,35,121,0
0,40,118,0
0,46,34,0
0,26,95,9
0,35,118,0
0,43,112,0
0,26,101,21
0,35,115,0
0,46,51,0
0,78,94,5
0,26,101,17
0,35,121,0
0,40,118,0
0,46,34,0
0,67,96,0
0,72,116,0
0,74,116,0
0,74,94,8
0,74,104,39
