track,note,velocity,time
1,38,92,96
1,38,93,114
1,33,92,26
1,38,85,20
1,38,92,72
1,35,92,4
1,33,85,8
1,38,92,12
1,38,93,114
1,33,92,26
1,38,85,20
1,38,92,72
1,35,92,4
1,33,85,8
1,38,92,12
1,38,93,114
1,33,92,26
1,38,85,20
1,38,92,72
1,35,92,4
1,33,85,8
1,33,92,12
1,33,93,114
1,28,92,26
1,33,85,20
1,33,92,72
1,30,92,4
1,28,85,8
1,33,92,12
1,33,93,114
1,28,92,26
1,33,85,20
1,33,92,72
1,30,92,4
1,28,85,8
1,33,92,12
1,33,93,114
1,28,92,26
1,33,85,20
1,33,92,72
1,30,92,4
1,28,85,8
1,33,92,12
1,33,93,114
1,28,92,26
1,33,85,20
1,33,92,72
1,35,92,4
1,33,85,8
1,38,92,12
1,38,93,114
1,33,92,26
1,38,85,20
1,38,92,72
1,35,92,4
1,33,85,8
1,38,92,12
1,38,93,114
1,33,92,26
1,38,85,20
1,38,92,72
1,35,92,4
1,33,85,8
1,38,96,12
1,38,97,114
1,33,96,26
1,38,89,20
1,38,96,72
1,35,96,4
1,33,89,8
1,38,96,12
1,38,97,114
1,33,96,26
1,38,89,20
1,38,96,72
1,35,96,4
1,33,89,8
1,31,96,12
1,31,97,114
1,26,96,26
1,31,89,20
1,31,96,72
1,28,96,4
1,26,89,8
1,38,96,12
1,38,97,114
1,33,96,26
1,38,89,20
1,38,96,72
1,35,96,4
1,33,89,8
1,31,96,12
1,31,97,114
1,26,96,26
1,31,89,20
1,31,96,72
1,28,96,4
1,26,89,8
1,35,96,12
1,35,97,114
1,30,96,26
1,35,89,20
1,35,96,72
1,33,96,4
1,30,89,8
1,33,96,12
1,33,97,114
1,28,96,26
1,33,89,20
1,33,96,72
1,30,96,4
1,28,89,8
1,33,96,12
1,33,97,114
1,28,96,26
1,33,89,20
1,33,96,72
1,28,96,4
1,33,89,8
1,38,96,12
1,38,97,114
1,33,96,26
1,38,89,20
1,38,96,72
1,35,96,4
1,33,89,8
1,38,96,12
1,38,97,114
1,33,96,26
1,38,89,20
1,38,96,72
1,35,96,4
1,33,89,8
1,31,96,12
1,31,97,114
1,26,96,26
1,31,89,20
1,31,96,72
1,28,96,4
1,26,89,8
1,40,96,12
1,40,97,114
1,35,96,26
1,40,89,20
1,40,96,72
1,35,96,4
1,38,89,8
1,40,96,12
1,40,97,114
1,35,96,26
1,40,89,20
1,40,96,72
1,38,96,4
1,35,89,8
1,38,96,12
1,38,97,114
1,33,96,26
1,38,89,20
1,38,96,72
1,35,96,4
1,33,89,8
1,33,96,12
1,33,97,114
1,28,96,26
1,33,89,20
1,33,96,72
1,30,96,4
1,28,89,8
1,31,96,12
1,31,89,110
1,31,69,72
1,33,96,20
1,33,89,112
1,33,69,72
1,38,96,20
1,38,97,92
1,35,96,26
1,33,82,20
1,33,96,4
1,33,97,114
1,35,96,26
1,33,89,8
1,38,102,12
1,38,103,114
1,33,102,26
1,38,95,20
1,38,102,72
1,35,102,4
1,33,95,8
1,38,102,12
1,38,103,114
1,33,102,26
1,38,95,20
1,38,102,72
1,35,102,4
1,33,95,8
1,38,102,12
1,38,103,114
1,33,102,26
1,38,95,20
1,38,102,72
1,35,102,4
1,33,95,8
1,33,102,12
1,33,103,114
1,28,102,26
1,33,95,20
1,33,102,72
1,30,102,4
1,28,95,8
1,33,102,12
1,33,103,114
1,28,102,26
1,33,95,20
1,33,102,72
1,30,102,4
1,28,95,8
1,33,102,12
1,33,103,114
1,28,102,26
1,33,95,20
1,33,102,72
1,30,102,4
1,28,95,8
1,33,102,12
1,33,103,114
1,28,102,26
1,33,95,20
1,33,102,72
1,30,102,4
1,28,95,8
1,33,102,12
1,33,103,114
1,28,102,26
1,33,95,20
1,33,102,72
1,35,102,4
1,33,95,8
1,38,102,12
1,38,103,114
1,33,102,26
1,38,95,20
1,38,102,72
1,35,102,4
1,33,95,8
1,38,102,12
1,38,103,114
1,33,102,26
1,38,95,20
1,38,102,72
1,35,102,4
1,33,95,8
1,38,102,12
1,38,103,114
1,33,102,26
1,38,95,20
1,38,102,72
1,35,102,4
1,33,95,8
1,31,102,12
1,31,103,114
1,26,102,26
1,31,95,20
1,31,102,72
1,28,102,4
1,26,95,8
1,31,102,12
1,31,103,114
1,26,102,26
1,31,95,20
1,31,102,72
1,28,102,4
1,26,95,8
1,38,102,12
1,38,103,114
1,33,102,26
1,38,95,20
1,38,102,72
1,35,102,4
1,33,95,8
1,33,102,12
1,33,103,114
1,28,102,26
1,33,95,20
1,33,102,72
1,30,102,4
1,28,95,8
1,38,102,12
1,38,103,114
1,33,102,26
1,38,95,20
1,38,102,72
1,35,102,4
1,33,95,8
1,31,102,12
1,31,103,114
1,26,102,26
1,31,95,20
1,31,102,72
1,28,102,4
1,26,95,8
1,38,102,12
1,38,103,114
1,33,102,26
1,38,95,20
1,38,102,72
1,35,102,4
1,33,95,8
1,33,102,12
1,33,103,114
1,28,102,26
1,33,95,20
1,33,102,72
1,30,102,4
1,28,95,8
1,33,102,12
1,33,103,114
1,28,102,26
1,33,95,20
1,33,102,72
1,35,102,4
1,33,95,8
1,38,102,12
1,38,103,114
1,33,102,26
1,38,95,20
1,38,102,72
1,35,102,4
1,33,95,8
1,38,102,12
1,38,103,114
1,33,102,26
1,38,95,20
1,38,102,72
1,35,102,4
1,33,95,8
1,38,98,12
1,38,99,114
1,33,98,26
1,38,91,20
1,38,98,72
1,35,98,4
1,33,91,8
1,38,98,12
1,38,99,114
1,33,98,26
1,38,91,20
1,38,98,72
1,35,98,4
1,33,91,8
1,31,98,12
1,31,99,114
1,26,98,26
1,31,91,20
1,31,98,72
1,28,98,4
1,26,91,8
1,38,98,12
1,38,99,114
1,33,98,26
1,38,91,20
1,38,98,72
1,35,98,4
1,33,91,8
1,31,98,12
1,31,99,114
1,26,98,26
1,31,91,20
1,31,98,72
1,28,98,4
1,26,91,8
1,35,98,12
1,35,99,114
1,30,98,26
1,35,91,20
1,35,98,72
1,33,98,4
1,30,91,8
1,33,98,12
1,33,99,114
1,28,98,26
1,33,91,20
1,33,98,72
1,30,98,4
1,28,91,8
1,33,98,12
1,33,99,114
1,28,98,26
1,33,91,20
1,33,98,72
1,28,98,4
1,33,91,8
1,38,98,12
1,38,99,114
1,33,98,26
1,38,91,20
1,38,98,72
1,35,98,4
1,33,91,8
1,38,98,12
1,38,99,114
1,33,98,26
1,38,91,20
1,38,98,72
1,35,98,4
1,33,91,8
1,31,98,12
1,31,99,114
1,26,98,26
1,31,91,20
1,31,98,72
1,28,98,4
1,26,91,8
1,40,98,12
1,40,99,114
1,35,98,26
1,40,91,20
1,40,98,72
1,35,98,4
1,38,91,8
1,40,98,12
1,40,99,114
1,35,98,26
1,40,91,20
1,40,98,72
1,38,98,4
1,35,91,8
1,38,98,12
1,38,99,114
1,33,98,26
1,38,91,20
1,38,98,72
1,35,98,4
1,33,91,8
1,33,98,12
1,33,99,114
1,28,98,26
1,33,91,20
1,33,98,72
1,30,98,4
1,28,91,8
1,31,98,12
1,31,91,110
1,31,71,72
1,33,98,20
1,33,91,112
1,33,71,72
1,38,98,20
1,38,99,92
1,35,98,26
1,33,84,20
1,33,98,4
1,33,99,114
1,35,98,26
1,33,91,8
1,38,104,12
1,38,105,114
1,33,104,26
1,38,97,20
1,38,104,72
1,35,104,4
1,33,97,8
1,38,104,12
1,38,105,114
1,33,104,26
1,38,97,20
1,38,104,72
1,35,104,4
1,33,97,8
1,38,104,12
1,38,105,114
1,33,104,26
1,38,97,20
1,38,104,72
1,35,104,4
1,33,97,8
1,33,104,12
1,33,105,114
1,28,104,26
1,33,97,20
1,33,104,72
1,30,104,4
1,28,97,8
1,33,104,12
1,33,105,114
1,28,104,26
1,33,97,20
1,33,104,72
1,30,104,4
1,28,97,8
1,33,104,12
1,33,105,114
1,28,104,26
1,33,97,20
1,33,104,72
1,30,104,4
1,28,97,8
1,33,104,12
1,33,105,114
1,28,104,26
1,33,97,20
1,33,104,72
1,30,104,4
1,28,97,8
1,33,104,12
1,33,105,114
1,28,104,26
1,33,97,20
1,33,104,72
1,35,104,4
1,33,97,8
1,38,104,12
1,38,105,114
1,33,104,26
1,38,97,20
1,38,104,72
1,35,104,4
1,33,97,8
1,38,104,12
1,38,105,114
1,33,104,26
1,38,97,20
1,38,104,72
1,35,104,4
1,33,97,8
1,38,104,12
1,38,105,114
1,33,104,26
1,38,97,20
1,38,104,72
1,35,104,4
1,33,97,8
1,31,104,12
1,31,105,114
1,26,104,26
1,31,97,20
1,31,104,72
1,28,104,4
1,26,97,8
1,31,104,12
1,31,105,114
1,26,104,26
1,31,97,20
1,31,104,72
1,28,104,4
1,26,97,8
1,38,104,12
1,38,105,114
1,33,104,26
1,38,97,20
1,38,104,72
1,35,104,4
1,33,97,8
1,33,104,12
1,33,105,114
1,28,104,26
1,33,97,20
1,33,104,72
1,30,104,4
1,28,97,8
1,38,104,12
1,38,105,114
1,33,104,26
1,38,97,20
1,38,104,72
1,35,104,4
1,33,97,8
1,31,104,12
1,31,105,114
1,26,104,26
1,31,97,20
1,31,104,72
1,28,104,4
1,26,97,8
1,38,104,12
1,38,105,114
1,33,104,26
1,38,97,20
1,38,104,72
1,35,104,4
1,33,97,8
1,33,104,12
1,33,105,114
1,28,104,26
1,33,97,20
1,33,104,72
1,30,104,4
1,28,97,8
1,33,104,12
1,33,105,114
1,28,104,26
1,33,97,20
1,33,104,72
1,35,104,4
1,33,97,8
1,38,104,12
1,38,105,114
1,33,104,26
1,38,97,20
1,38,104,72
1,35,104,4
1,33,97,8
1,38,104,12
1,38,105,114
1,33,104,26
1,38,97,20
1,38,104,72
1,35,104,4
1,33,97,8
1,31,100,12
1,31,101,114
1,31,100,26
1,31,93,20
1,31,100,2
1,31,100,114
1,28,100,4
1,26,93,8
1,30,100,12
1,30,101,114
1,30,100,26
1,30,93,20
1,30,100,2
1,30,100,114
1,28,100,4
1,30,93,8
1,31,100,12
1,31,101,114
1,31,100,26
1,31,93,20
1,31,100,2
1,31,100,114
1,28,100,4
1,26,93,8
1,38,100,12
1,38,101,114
1,33,100,26
1,38,93,20
1,38,100,72
1,35,100,4
1,33,93,8
1,31,100,12
1,31,101,114
1,26,100,26
1,31,93,20
1,31,100,72
1,28,100,4
1,26,93,8
1,38,100,12
1,38,101,114
1,33,100,26
1,38,93,20
1,38,100,72
1,36,100,4
1,33,93,8
1,33,100,12
1,33,101,114
1,28,100,26
1,33,93,20
1,33,100,72
1,30,100,4
1,28,93,8
1,33,100,12
1,33,101,114
1,28,100,26
1,33,93,20
1,33,100,72
1,30,100,4
1,28,93,8
1,38,106,12
1,38,107,114
1,33,106,26
1,38,99,20
1,38,106,72
1,35,106,4
1,33,99,8
1,38,106,12
1,38,107,114
1,33,106,26
1,38,99,20
1,38,106,72
1,35,106,4
1,33,99,8
1,38,106,12
1,38,107,114
1,33,106,26
1,38,99,20
1,38,106,72
1,35,106,4
1,33,99,8
1,33,106,12
1,33,107,114
1,28,106,26
1,33,99,20
1,33,106,72
1,30,106,4
1,28,99,8
1,33,106,12
1,33,107,114
1,28,106,26
1,33,99,20
1,33,106,72
1,30,106,4
1,28,99,8
1,33,106,12
1,33,107,114
1,28,106,26
1,33,99,20
1,33,106,72
1,30,106,4
1,28,99,8
1,33,106,12
1,33,107,114
1,28,106,26
1,33,99,20
1,33,106,72
1,30,106,4
1,28,99,8
1,33,106,12
1,33,107,114
1,28,106,26
1,33,99,20
1,33,106,72
1,35,106,4
1,33,99,8
1,38,106,12
1,38,107,114
1,33,106,26
1,38,99,20
1,38,106,72
1,35,106,4
1,33,99,8
1,38,106,12
1,38,107,114
1,33,106,26
1,38,99,20
1,38,106,72
1,35,106,4
1,33,99,8
1,38,106,12
1,38,107,114
1,33,106,26
1,38,99,20
1,38,106,72
1,35,106,4
1,33,99,8
1,31,106,12
1,31,107,114
1,26,106,26
1,31,99,20
1,31,106,72
1,28,106,4
1,26,99,8
1,31,106,12
1,31,107,114
1,26,106,26
1,31,99,20
1,31,106,72
1,28,106,4
1,26,99,8
1,38,106,12
1,38,107,114
1,33,106,26
1,38,99,20
1,38,106,72
1,35,106,4
1,33,99,8
1,33,106,12
1,33,107,114
1,28,106,26
1,33,99,20
1,33,106,72
1,30,106,4
1,28,99,8
1,38,106,12
1,38,107,114
1,33,106,26
1,38,99,20
1,38,106,72
1,35,106,4
1,33,99,8
1,31,106,12
1,31,107,114
1,26,106,26
1,31,99,20
1,31,106,72
1,28,106,4
1,26,99,8
1,38,106,12
1,38,107,114
1,33,106,26
1,38,99,20
1,38,106,72
1,35,106,4
1,33,99,8
1,33,106,12
1,33,107,114
1,28,106,26
1,33,99,20
1,33,106,72
1,30,106,4
1,28,99,8
1,33,106,12
1,33,107,114
1,28,106,26
1,33,99,20
1,33,106,72
1,35,106,4
1,33,99,8
1,38,106,12
1,38,107,114
1,33,106,26
1,38,99,20
1,38,106,72
1,35,107,4
1,33,100,8
1,38,107,12
1,38,108,114
1,33,107,26
1,38,101,20
1,38,108,72
1,35,108,4
1,33,101,8
1,38,109,12
1,38,110,114
1,33,109,26
1,38,102,20
1,38,110,72
1,35,110,4
1,33,103,8
1,38,110,12
2,57,69,96
2,62,69,0
2,66,69,0
2,57,69,36
2,61,69,0
2,64,69,0
2,57,69,36
2,62,69,0
2,66,69,0
2,50,73,36
2,57,73,0
2,66,73,0
2,50,73,12
2,57,73,0
2,67,73,0
2,66,73,12
2,55,73,12
2,59,73,0
2,67,73,0
2,50,73,12
2,57,73,0
2,66,73,0
2,55,73,12
2,59,73,0
2,67,73,0
2,54,73,12
2,62,73,0
2,66,73,0
2,52,73,12
2,61,73,0
2,64,73,0
2,50,73,12
2,57,73,0
2,66,73,0
2,50,73,12
2,57,73,0
2,67,73,0
2,66,73,12
2,55,73,12
2,59,73,0
2,67,73,0
2,52,73,12
2,56,73,0
2,64,73,0
2,50,81,12
2,57,81,0
2,66,81,0
2,57,81,12
2,61,81,0
2,67,81,0
2,59,81,12
2,62,81,0
2,67,81,0
2,57,81,12
2,61,81,0
2,64,81,0
2,50,81,12
2,62,81,0
2,66,81,0
2,57,81,12
2,61,81,0
2,64,81,0
2,54,86,12
2,62,86,0
2,69,86,0
2,57,86,36
2,61,86,0
2,69,86,0
2,57,86,36
2,61,86,0
2,69,86,0
2,57,86,36
2,61,86,0
2,69,86,0
2,54,86,2
2,62,86,0
2,69,86,0
2,55,86,36
2,64,86,0
2,71,86,0
2,55,86,2
2,62,86,0
2,71,86,0
2,54,86,2
2,62,86,0
2,69,86,0
2,57,86,36
2,61,86,0
2,69,86,0
2,54,86,36
2,62,86,0
2,69,86,0
2,55,86,2
2,59,86,0
2,67,86,0
2,57,86,36
2,62,86,0
2,66,86,0
2,57,86,36
2,61,86,0
2,64,86,0
2,57,86,36
2,62,86,0
2,66,86,0
2,50,73,36
2,57,73,0
2,66,73,0
2,50,73,12
2,57,73,0
2,67,73,0
2,66,73,12
2,55,73,12
2,59,73,0
2,67,73,0
2,50,73,12
2,57,73,0
2,66,73,0
2,55,73,12
2,59,73,0
2,67,73,0
2,54,73,12
2,62,73,0
2,66,73,0
2,52,73,12
2,61,73,0
2,64,73,0
2,50,73,12
2,57,73,0
2,66,73,0
2,50,73,12
2,57,73,0
2,67,73,0
2,66,73,12
2,55,73,12
2,59,73,0
2,67,73,0
2,52,73,12
2,56,73,0
2,64,73,0
2,50,81,12
2,57,81,0
2,66,81,0
2,57,81,12
2,61,81,0
2,67,81,0
2,59,81,12
2,62,81,0
2,67,81,0
2,57,81,12
2,61,81,0
2,64,81,0
2,50,81,12
2,62,81,0
2,66,81,0
2,57,81,12
2,61,81,0
2,64,81,0
2,54,88,12
2,62,88,0
2,69,88,0
2,57,88,36
2,61,88,0
2,69,88,0
2,57,88,36
2,61,88,0
2,69,88,0
2,57,88,36
2,61,88,0
2,69,88,0
2,54,88,2
