track,note,velocity,time
0,43,59,156
0,55,76,0
0,55,49,0
0,55,56,36
0,55,76,36
0,50,70,36
0,55,56,0
0,50,50,18
0,55,72,0
0,55,52,18
0,59,76,0
0,55,76,26
0,59,56,0
0,50,76,26
0,55,56,0
0,50,56,32
0,55,76,0
0,55,56,28
0,55,74,144
0,55,54,50
0,50,74,146
0,50,54,36
0,55,76,36
0,55,56,36
0,55,76,36
0,50,70,36
0,55,56,0
0,50,50,18
0,55,72,0
0,55,52,18
0,59,76,0
0,55,76,26
0,59,56,0
0,50,76,26
0,55,56,0
0,48,88,32
0,50,56,0
0,55,76,0
0,55,56,32
0,55,74,144
0,55,54,50
0,50,74,146
0,50,54,36
0,31,117,18
0,35,127,0
0,42,72,0
0,49,64,0
0,55,55,0
0,55,75,0
0,59,74,0
0,71,56,0
0,71,29,0
0,74,69,0
0,42,32,36
0,55,35,0
0,42,20,26
0,55,55,0
0,42,32,36
0,50,49,0
0,55,35,0
0,35,127,18
0,38,47,0
0,42,67,0
0,50,29,0
0,55,51,0
0,55,73,0
0,59,72,0
0,42,32,18
0,55,31,0
0,59,55,0
0,42,16,18
0,55,55,0
0,55,75,0
0,59,35,0
0,59,73,0
0,42,60,26
0,50,55,0
0,55,35,0
0,31,121,2
0,35,127,0
0,42,56,0
0,50,35,0
0,55,55,0
0,59,75,0
0,62,74,0
0,74,58,0
0,74,46,0
0,42,16,32
0,55,35,0
0,42,52,42
0,42,64,88
0,55,53,0
0,28,57,8
0,35,127,0
0,38,47,0
0,42,82,0
0,54,99,0
0,55,33,0
0,59,75,0
0,62,74,0
0,42,32,50
0,42,32,18
0,50,53,0
0,59,76,0
0,62,73,0
0,42,32,36
0,50,33,0
0,31,125,2
0,35,127,0
0,42,80,0
0,55,55,0
0,62,73,0
0,67,75,0
0,74,57,0
0,79,58,0
0,79,54,0
0,42,30,36
0,55,35,0
0,42,27,36
0,55,55,0
0,42,32,36
0,50,49,0
0,55,35,0
0,35,127,18
0,38,47,0
0,42,84,0
0,50,29,0
0,55,51,0
0,42,28,18
0,55,31,0
0,59,55,0
0,31,109,2
0,42,36,0
0,55,55,0
0,59,35,0
0,72,68,0
0,84,59,0
0,84,80,0
0,84,62,0
0,42,23,2
0,50,55,0
0,55,35,0
0,31,125,2
0,35,127,0
0,42,60,0
0,50,35,0
0,55,55,0
0,42,28,32
0,55,35,0
0,42,33,2
0,71,61,0
0,83,62,0
0,83,80,0
0,83,58,0
0,42,28,2
0,55,53,0
0,35,127,2
0,38,86,0
0,42,80,0
0,55,33,0
0,69,68,0
0,81,58,0
0,81,64,0
0,81,50,0
0,42,44,2
0,42,22,2
0,50,53,0
0,67,65,0
0,79,55,0
0,79,60,0
0,79,54,0
0,42,40,2
0,50,33,0
0,35,127,2
0,36,48,0
0,36,117,0
0,42,72,0
0,48,62,0
0,55,55,0
0,55,75,0
0,60,74,0
0,72,61,0
0,72,60,0
0,74,69,0
0,42,32,36
0,55,35,0
0,42,20,8
0,55,55,0
0,42,32,36
0,52,49,0
0,55,35,0
0,35,127,8
0,38,47,0
0,42,67,0
0,52,29,0
0,55,51,0
0,55,74,0
0,60,70,0
0,42,32,18
0,55,31,0
0,60,55,0
0,42,16,10
0,55,55,0
0,55,76,0
0,60,35,0
0,60,71,0
0,42,60,26
0,52,55,0
0,55,35,0
0,35,127,2
0,36,109,0
0,42,56,0
0,52,35,0
0,55,55,0
0,60,74,0
0,64,74,0
0,76,61,0
0,76,62,0
0,42,16,32
0,55,35,0
0,42,52,48
0,42,64,88
0,55,53,0
0,28,57,12
0,35,127,0
0,38,47,0
0,42,82,0
0,54,99,0
0,55,33,0
0,60,74,0
0,64,74,0
0,42,32,50
0,42,32,18
0,52,53,0
0,60,74,0
0,64,77,0
0,42,32,36
0,52,33,0
0,35,127,2
0,36,113,0
0,42,80,0
0,55,55,0
0,64,75,0
0,67,76,0
0,74,57,0
0,79,58,0
0,79,56,0
0,42,30,36
0,55,35,0
0,42,27,36
0,55,55,0
0,42,32,36
0,52,49,0
0,55,35,0
0,35,127,18
0,38,47,0
0,42,84,0
0,52,29,0
0,55,51,0
0,42,28,18
0,55,31,0
0,60,55,0
0,36,113,2
0,42,36,0
0,55,55,0
0,60,35,0
0,72,75,0
0,84,60,0
0,84,76,0
0,84,60,0
0,42,23,26
0,52,55,0
0,55,35,0
0,35,127,2
0,36,117,0
0,42,60,0
0,52,35,0
0,55,55,0
0,42,28,32
0,55,35,0
0,42,33,2
0,71,76,0
0,83,57,0
0,83,76,0
0,83,60,0
0,42,28,88
0,55,53,0
0,35,127,2
0,38,86,0
0,42,80,0
0,55,33,0
0,69,68,0
0,81,59,0
0,81,68,0
0,81,59,0
0,42,44,50
0,42,22,2
0,52,53,0
0,67,68,0
0,79,56,0
0,79,68,0
0,79,52,0
0,42,40,36
0,52,33,0
0,35,127,2
0,38,51,0
0,38,117,0
0,42,72,0
0,50,59,0
0,54,55,0
0,57,73,0
0,62,75,0
0,74,69,0
0,74,59,0
0,74,59,0
0,42,32,36
0,54,35,0
0,42,20,2
0,54,55,0
0,42,32,36
0,50,49,0
0,54,35,0
0,35,127,18
0,38,47,0
0,42,67,0
0,50,29,0
0,54,51,0
0,57,74,0
0,62,72,0
0,42,32,18
0,54,31,0
0,57,55,0
0,42,16,12
0,54,55,0
0,57,35,0
0,57,73,0
0,62,73,0
0,42,60,26
0,50,55,0
0,54,35,0
0,35,127,2
0,38,117,0
0,42,56,0
0,50,35,0
0,54,55,0
0,62,76,0
0,66,76,0
0,78,64,0
0,78,58,0
0,42,16,32
0,54,35,0
0,42,52,48
0,42,64,88
0,54,53,0
0,28,57,10
0,35,127,0
0,38,47,0
0,42,82,0
0,54,33,0
0,54,99,0
0,62,76,0
0,66,74,0
0,42,32,50
0,42,32,12
0,50,53,0
0,62,73,0
0,66,73,0
0,42,32,36
0,50,33,0
0,35,127,2
0,38,117,0
0,42,80,0
0,54,55,0
0,66,75,0
0,69,74,0
0,74,57,0
0,81,61,0
0,81,62,0
0,42,30,36
0,54,35,0
0,42,27,36
0,54,55,0
0,42,32,36
0,50,49,0
0,54,35,0
0,35,127,2
0,38,47,0
0,42,84,0
0,50,29,0
0,54,51,0
0,42,28,18
0,54,31,0
0,57,55,0
0,38,109,2
0,42,36,0
0,54,55,0
0,57,35,0
0,74,112,0
0,83,59,0
0,83,64,0
0,83,59,0
0,42,23,26
0,50,55,0
0,54,35,0
0,35,127,2
0,38,117,0
0,42,60,0
0,50,35,0
0,54,55,0
0,76,96,0
0,84,63,0
0,84,72,0
0,84,60,0
0,42,28,32
0,54,35,0
0,42,33,48
0,42,28,88
0,54,53,0
0,30,117,2
0,35,127,0
0,38,86,0
0,42,80,0
0,54,33,0
0,72,96,0
0,78,61,0
0,78,68,0
0,78,60,0
0,42,44,50
0,42,22,88
0,50,53,0
0,42,40,36
0,50,33,0
0,31,117,2
0,35,127,0
0,42,72,0
0,43,63,0
0,55,55,0
0,55,56,0
0,55,46,0
0,71,100,0
0,74,69,0
0,79,41,0
0,79,52,0
0,79,57,0
0,43,57,2
0,50,58,0
0,42,32,8
0,55,35,0
0,42,20,36
0,55,55,0
0,55,83,0
0,43,70,2
0,50,68,0
0,42,32,8
0,50,49,0
0,55,35,0
0,35,127,18
0,38,47,0
0,42,67,0
0,50,29,0
0,55,51,0
0,55,61,0
0,43,60,2
0,50,65,0
0,42,32,8
0,55,31,0
0,59,55,0
0,43,70,0
0,50,74,0
0,31,117,2
0,42,16,0
0,55,55,0
0,55,74,0
0,59,35,0
0,42,60,10
0,50,55,0
0,55,35,0
0,43,53,0
0,31,113,2
0,35,127,0
0,42,56,0
0,50,35,0
0,50,60,0
0,55,55,0
0,55,56,2
0,42,16,8
0,55,35,0
0,50,75,46
0,42,52,2
0,43,71,0
0,55,76,2
0,42,64,8
0,55,53,0
0,55,59,48
0,28,57,2
0,35,127,0
0,38,47,0
0,42,82,0
0,54,99,0
0,55,33,0
0,43,57,2
0,50,56,0
0,42,32,8
0,42,32,88
0,50,53,0
0,50,71,0
0,55,76,0
0,43,78,2
0,42,32,2
0,50,33,0
0,50,57,0
0,31,125,2
0,35,127,0
0,42,80,0
0,43,55,0
0,55,55,0
0,69,41,0
0,74,57,0
0,55,62,2
0,42,30,8
0,55,35,0
0,42,27,36
0,55,55,0
0,55,75,0
0,43,66,2
0,50,77,0
0,42,32,8
0,50,49,0
0,55,35,0
0,35,127,18
0,38,47,0
0,42,84,0
0,43,56,0
0,50,29,0
0,55,51,0
0,50,59,2
0,55,60,0
0,42,28,8
0,55,31,0
0,59,55,0
0,55,60,0
0,31,113,2
0,42,36,0
0,55,55,0
0,59,35,0
0,43,56,2
0,50,58,0
0,42,23,8
0,50,55,0
0,55,35,0
0,50,69,0
0,31,113,2
0,35,127,0
0,42,60,0
0,50,35,0
0,55,55,0
0,55,60,0
0,72,41,0
0,43,51,2
0,42,28,8
0,55,35,0
0,50,58,46
0,55,80,0
0,42,33,2
0,43,76,0
0,42,28,10
0,55,53,0
0,43,57,48
0,35,127,2
0,38,86,0
0,42,80,0
0,50,58,0
0,55,33,0
0,55,61,0
0,42,44,10
0,42,22,88
0,43,53,0
0,50,53,0
0,50,72,0
0,55,79,2
0,42,40,2
0,50,33,0
0,43,60,0
0,55,65,0
0,31,105,2
0,35,127,0
0,42,72,0
0,50,117,0
0,55,55,0
0,71,41,0
0,50,61,2
0,42,32,4
0,43,56,86
0,55,76,0
0,42,20,2
0,55,55,0
0,50,77,2
0,42,32,8
0,50,49,0
0,35,127,18
0,38,47,0
0,42,67,0
0,50,58,0
0,55,51,0
0,43,59,2
0,55,61,0
0,42,32,4
0,59,55,0
0,55,81,0
0,31,113,2
0,42,16,0
0,43,61,0
0,50,62,0
0,55,55,0
0,42,60,10
0,50,55,0
0,43,62,0
0,55,61,0
0,31,113,2
0,35,127,0
0,42,56,0
0,55,55,0
0,59,113,0
0,50,62,2
0,42,16,8
0,50,72,86
0,55,75,0
0,42,52,2
0,43,62,0
0,42,64,10
0,55,53,0
0,43,62,48
0,35,127,2
0,38,47,0
0,42,82,0
0,50,60,0
0,55,61,0
0,42,32,6
0,42,32,88
0,43,60,0
0,50,53,0
0,50,61,2
0,55,62,0
0,42,32,2
0,43,62,0
0,50,61,0
0,55,61,0
0,31,109,2
0,35,127,0
0,42,80,0
0,55,55,0
0,42,30,12
0,43,60,86
0,50,73,0
0,42,27,2
0,55,55,0
0,55,74,0
0,42,32,10
0,50,49,0
0,43,61,16
0,50,59,0
0,35,127,2
0,38,47,0
0,42,84,0
0,55,51,0
0,55,61,2
0,42,28,8
0,59,55,0
0,43,60,0
0,31,93,2
0,42,36,0
0,50,105,0
0,55,55,0
0,55,73,0
0,50,72,2
0,42,23,2
0,50,55,0
0,43,60,0
0,35,127,2
0,36,98,0
0,42,60,0
0,52,60,0
0,55,55,0
0,55,62,0
0,60,107,0
0,42,28,10
0,43,59,68
0,52,78,0
0,42,33,2
0,55,78,0
0,60,101,0
0,42,28,10
0,55,53,0
0,28,86,2
0,35,127,0
0,38,47,0
0,40,83,0
0,42,80,0
0,43,60,0
0,54,86,0
0,55,61,0
0,60,111,0
0,52,61,2
0,42,44,8
0,42,22,62
0,43,61,0
0,50,53,0
0,52,73,0
0,55,79,0
0,59,111,0
0,42,40,2
0,50,61,0
0,31,113,2
0,35,127,0
0,42,72,0
0,43,59,0
0,55,55,0
0,59,109,0
0,55,59,2
0,42,32,0
0,42,20,88
0,50,62,0
0,55,55,0
0,43,60,2
0,55,80,0
0,42,32,8
0,50,49,0
0,50,59,16
0,55,61,0
0,35,127,2
0,38,47,0
0,42,67,0
0,43,60,0
0,55,51,0
0,42,32,10
0,59,55,0
0,43,62,0
0,50,62,0
0,31,113,2
0,42,16,0
0,55,55,0
0,55,73,2
0,42,60,8
0,50,55,0
0,31,121,2
0,35,127,0
0,42,56,0
0,50,103,0
0,55,55,0
0,43,61,2
0,50,60,0
0,55,61,0
0,42,16,8
0,50,76,86
0,42,52,2
0,55,77,0
0,43,60,2
0,42,64,8
0,55,53,0
0,50,61,0
0,26,105,2
0,35,127,0
0,38,47,0
0,42,82,0
0,43,62,2
0,55,63,0
0,42,32,8
0,43,59,86
0,42,32,2
0,50,53,0
0,50,72,0
0,55,75,0
0,42,32,2
0,31,105,2
0,35,127,0
0,42,80,0
0,43,61,0
0,55,55,0
0,55,62,0
0,50,60,2
0,42,30,4
0,43,54,86
0,55,81,0
0,42,27,2
0,55,55,0
0,50,72,2
0,42,32,8
0,50,49,0
0,43,60,16
0,35,127,2
0,38,47,0
0,42,84,0
0,55,51,0
0,50,59,2
0,55,62,0
0,42,28,8
0,59,55,0
0,50,60,0
0,31,117,2
0,42,36,0
0,43,62,0
0,55,55,0
0,55,62,2
0,42,23,2
0,50,55,0
0,50,57,0
0,55,58,0
0,31,105,2
0,35,127,0
0,42,60,0
0,43,57,0
0,55,55,0
0,42,28,10
0,55,75,86
0,42,33,2
0,43,72,0
0,50,58,2
0,42,28,8
0,55,53,0
0,50,62,0
0,55,66,0
0,26,105,2
0,28,86,0
0,35,127,0
0,38,47,0
0,42,80,0
0,43,62,0
0,54,86,0
0,55,113,0
0,42,44,4
0,42,22,2
0,50,53,0
0,50,60,0
0,55,62,0
0,57,113,0
0,43,59,2
0,42,40,36
0,31,113,2
0,35,127,0
0,42,72,0
0,43,59,0
0,55,55,0
0,55,59,0
0,59,117,0
0,50,63,2
0,42,32,0
0,55,78,86
0,42,20,2
0,43,75,0
0,50,62,0
0,55,55,0
0,42,32,10
0,50,49,0
0,50,59,16
0,55,61,0
0,35,127,2
0,38,47,0
0,42,67,0
0,43,60,0
0,55,51,0
0,59,111,0
0,42,32,10
0,59,55,0
0,31,113,2
0,42,16,0
0,55,55,0
0,59,109,0
0,43,62,2
0,50,75,0
0,55,80,0
0,42,60,6
0,50,55,0
0,55,61,0
0,31,121,2
0,35,127,0
0,42,56,0
0,55,55,0
0,43,61,2
0,50,60,0
0,42,16,8
0,43,60,86
0,55,61,0
0,42,52,2
0,50,61,0
0,42,64,10
0,55,53,0
0,43,62,0
0,50,61,0
0,35,127,2
0,38,47,0
0,42,82,0
0,55,63,0
0,62,111,0
0,42,32,2
0,50,75,0
0,42,32,2
0,50,53,0
0,55,84,0
0,60,109,0
0,43,59,2
0,42,32,8
0,50,60,0
0,31,105,2
0,35,127,0
0,42,80,0
0,55,55,0
0,55,62,0
0,43,61,2
0,42,30,6
0,43,54,86
0,55,60,0
0,42,27,2
0,55,55,0
0,50,58,2
0,42,32,8
0,50,49,0
0,43,60,16
0,35,127,2
0,38,47,0
0,42,84,0
0,50,59,0
0,55,51,0
0,55,62,0
0,59,109,0
0,42,28,10
0,59,55,0
0,31,117,2
0,42,36,0
0,55,55,0
0,55,62,0
0,43,62,2
0,50,60,0
0,42,23,10
0,50,55,0
0,31,105,2
0,35,127,0
0,42,60,0
0,43,57,0
0,50,57,0
0,55,55,0
0,55,58,0
0,42,28,10
0,55,61,0
0,42,33,2
0,50,58,0
0,57,103,0
0,43,57,2
0,42,28,8
0,55,53,0
0,28,86,2
0,35,127,0
0,36,81,0
0,38,47,0
0,42,80,0
0,43,62,0
0,54,86,0
0,50,62,2
0,55,66,0
0,42,44,2
0,55,105,0
0,43,59,86
0,42,22,2
0,50,53,0
0,50,60,2
0,55,62,0
0,42,40,36
0,50,59,0
0,54,60,0
0,57,60,0
0,35,127,2
0,38,105,0
0,42,72,0
0,54,55,0
0,57,94,0
0,42,32,12
0,57,79,76
0,42,20,2
0,54,55,0
0,50,73,2
0,54,56,0
0,42,32,8
0,50,49,0
0,54,55,16
0,57,51,0
0,35,127,2
0,38,47,0
0,42,67,0
0,54,51,0
0,50,51,2
0,42,32,8
0,57,55,0
0,38,117,2
0,42,16,0
0,54,55,0
0,50,67,2
0,54,72,0
0,57,78,0
0,42,60,46
0,50,55,0
0,35,127,2
