track,note,velocity,time
0,82,82,238
0,49,75,2
0,53,17,0
0,82,82,0
0,49,0,4
0,52,105,15
0,53,0,3
0,52,0,1
0,53,21,1
0,53,0,22
0,53,25,2
0,53,0,22
0,53,30,2
0,82,0,20
0,53,0,2
0,81,110,0
0,82,0,0
0,53,34,2
0,81,110,0
0,53,0,22
0,53,38,2
0,53,0,22
0,53,42,2
0,53,0,22
0,53,47,2
0,53,0,22
0,53,51,2
0,53,0,22
0,53,55,2
0,53,0,22
0,53,59,2
0,53,0,22
0,53,64,2
0,81,0,20
0,53,0,2
0,72,105,0
0,81,0,0
0,53,68,2
0,72,105,0
0,53,0,22
0,53,72,2
0,53,0,22
0,53,76,2
0,53,0,22
0,53,81,2
0,53,0,22
0,29,127,2
0,36,91,0
0,42,64,0
0,48,93,0
0,49,90,0
0,53,98,0
0,57,83,0
0,60,83,0
0,65,83,0
0,36,0,4
0,42,0,0
0,49,0,0
0,29,0,42
0,42,62,2
0,48,0,2
0,42,0,2
0,53,0,0
0,29,127,44
0,41,114,0
0,46,64,0
0,48,46,0
0,53,42,0
0,46,0,4
0,41,0,18
0,53,0,10
0,48,0,10
0,29,0,4
0,41,114,2
0,41,0,28
0,28,118,20
0,29,127,0
0,38,121,0
0,48,55,0
0,49,90,0
0,53,55,0
0,65,112,0
0,77,109,0
0,28,0,4
0,38,0,0
0,49,0,0
0,53,0,28
0,48,0,4
0,29,0,10
0,29,127,50
0,41,114,0
0,46,67,0
0,48,99,0
0,53,98,0
0,65,0,3
0,46,0,1
0,77,0,4
0,41,0,21
0,29,0,17
0,48,0,26
0,53,0,0
0,72,0,20
0,72,0,2
0,82,88,0
0,29,127,2
0,36,96,0
0,42,58,0
0,82,88,0
0,36,0,4
0,42,0,0
0,29,0,42
0,42,63,2
0,48,25,0
0,53,26,0
0,42,0,4
0,48,0,20
0,53,0,3
0,82,0,17
0,81,93,2
0,82,0,0
0,29,127,2
0,41,114,0
0,46,66,0
0,48,59,0
0,53,54,0
0,81,93,0
0,46,0,4
0,41,0,14
0,48,0,10
0,53,0,4
0,29,0,14
0,29,127,50
0,38,127,0
0,42,53,0
0,48,96,0
0,53,97,0
0,38,0,4
0,42,0,0
0,29,0,42
0,42,63,2
0,48,0,3
0,42,0,1
0,53,0,0
0,81,0,40
0,72,104,2
0,81,0,0
0,29,127,2
0,41,114,0
0,46,65,0
0,48,43,0
0,53,40,0
0,72,104,0
0,46,0,4
0,53,0,16
0,48,0,2
0,41,0,8
0,29,0,16
0,57,0,24
0,60,0,0
0,65,0,0
0,29,127,2
0,36,91,0
0,42,64,0
0,48,92,0
0,53,99,0
0,57,83,0
0,60,83,0
0,65,83,0
0,36,0,4
0,42,0,0
0,29,0,42
0,42,62,2
0,42,0,4
0,48,0,10
0,53,0,0
0,29,127,34
0,41,114,0
0,46,64,0
0,48,21,0
0,46,0,4
0,41,0,18
0,48,0,5
0,29,0,19
0,41,114,2
0,41,0,33
0,29,127,15
0,38,121,0
0,42,58,0
0,48,46,0
0,53,54,0
0,38,0,4
0,42,0,0
0,48,0,24
0,53,0,1
0,29,0,17
0,42,68,2
0,42,0,4
0,29,127,44
0,41,114,0
0,46,67,0
0,48,96,0
0,53,97,0
0,46,0,4
0,41,0,18
0,29,0,24
0,41,114,2
0,53,0,19
0,48,0,3
0,41,0,10
0,72,0,12
0,72,0,2
0,82,90,0
0,29,127,2
0,36,96,0
0,42,58,0
0,48,42,0
0,53,23,0
0,82,90,0
0,36,0,4
0,42,0,0
0,53,0,18
0,48,0,7
0,29,0,17
0,42,63,2
0,42,0,4
0,82,0,40
0,81,106,2
0,82,0,0
0,29,127,2
0,41,114,0
0,46,66,0
0,48,65,0
0,53,45,0
0,81,106,0
0,46,0,4
0,41,0,16
0,53,0,7
0,48,0,6
0,29,0,13
0,29,127,50
0,38,127,0
0,42,53,0
0,48,97,0
0,53,99,0
0,38,0,4
0,42,0,0
0,29,0,42
0,42,63,2
0,42,0,4
0,53,0,14
0,48,0,1
0,81,0,25
0,74,102,2
0,81,0,0
0,29,127,2
0,41,114,0
0,46,65,0
0,48,39,0
0,53,40,0
0,62,99,0
0,74,102,0
0,74,106,0
0,46,0,4
0,53,0,6
0,48,0,3
0,41,0,5
0,29,0,20
0,62,0,18
0,57,0,20
0,60,0,0
0,65,0,0
0,74,0,0
0,34,127,2
0,36,91,0
0,42,64,0
0,53,83,0
0,53,85,0
0,58,83,0
0,58,65,0
0,62,83,0
0,36,0,4
0,42,0,0
0,34,0,42
0,42,62,2
0,53,0,0
0,42,0,4
0,58,0,0
0,34,127,44
0,46,114,0
0,46,64,0
0,53,62,0
0,58,43,0
0,70,77,0
0,46,0,4
0,46,0,18
0,53,0,18
0,34,0,6
0,58,0,0
0,46,114,2
0,46,0,28
0,34,127,20
0,38,121,0
0,42,58,0
0,53,78,0
0,58,59,0
0,77,78,0
0,38,0,4
0,42,0,0
0,70,0,3
0,53,0,31
0,34,0,8
0,42,68,2
0,58,0,1
0,42,0,3
0,77,0,38
0,34,127,6
0,46,114,0
0,46,67,0
0,53,96,0
0,58,62,0
0,86,101,0
0,46,0,4
0,86,0,23
0,46,0,2
0,34,0,17
0,53,0,43
0,58,0,6
0,34,127,1
0,36,96,0
0,42,58,0
0,36,0,4
0,42,0,0
0,34,0,42
0,42,63,2
0,42,0,4
0,34,120,44
0,46,114,0
0,46,66,0
0,53,80,0
0,58,65,0
0,46,0,4
0,46,0,14
0,53,0,4
0,58,0,12
0,34,0,12
0,34,127,50
0,38,127,0
0,42,53,0
0,53,95,0
0,58,77,0
0,38,0,4
0,42,0,0
0,34,0,42
0,42,63,2
0,42,0,4
0,53,0,21
0,58,0,3
0,34,122,20
0,46,114,0
0,46,65,0
0,46,0,4
0,46,0,26
0,34,0,16
0,34,127,2
0,53,27,0
0,58,34,0
0,53,0,22
0,58,0,1
0,74,0,21
0,34,0,2
0,74,0,0
0,34,127,2
0,36,91,0
0,42,64,0
0,53,86,0
0,58,74,0
0,36,0,4
0,42,0,0
0,34,0,42
0,34,127,2
0,42,62,0
0,42,0,4
0,53,0,12
0,58,0,1
0,34,0,29
0,34,127,2
0,46,114,0
0,46,64,0
0,46,0,4
0,46,0,18
0,34,0,10
0,46,114,2
0,46,0,33
0,34,127,15
0,38,121,0
0,42,58,0
0,53,63,0
0,58,55,0
0,38,0,4
0,42,0,0
0,53,0,28
0,58,0,4
0,34,0,10
0,42,68,2
0,42,0,4
0,34,117,44
0,46,114,0
0,46,67,0
0,53,105,0
0,58,79,0
0,46,0,4
0,46,0,16
0,34,0,24
0,46,114,2
0,46,0,32
0,82,96,14
0,34,127,2
0,36,96,0
0,42,58,0
0,53,0,0
0,57,100,0
0,70,61,0
0,74,73,0
0,82,96,0
0,82,65,0
0,58,0,2
0,36,0,2
0,42,0,0
0,57,0,0
0,74,0,16
0,82,0,0
0,70,0,14
0,34,0,12
0,42,63,2
0,42,0,4
0,82,0,40
0,81,104,2
0,82,0,0
0,34,116,2
0,46,114,0
0,46,66,0
0,53,51,0
0,58,49,0
0,69,93,0
0,72,98,0
0,81,104,0
0,81,99,0
0,46,0,4
0,46,0,16
0,53,0,20
0,58,0,2
0,34,0,4
0,69,0,26
0,81,0,0
0,72,0,5
0,34,127,19
0,38,127,0
0,42,53,0
0,53,101,0
0,58,83,0
0,38,0,4
0,42,0,0
0,34,0,42
0,42,63,2
0,42,0,4
0,81,0,40
0,79,104,2
0,81,0,0
0,34,123,2
0,46,114,0
0,46,65,0
0,53,0,0
0,58,0,0
0,67,88,0
0,70,78,0
0,79,104,0
0,79,96,0
0,46,0,4
0,46,0,22
0,34,0,64
0,53,0,0
0,58,0,0
0,62,0,0
0,31,127,2
0,36,91,0
0,42,64,0
0,49,90,0
0,58,83,0
0,62,83,0
0,67,83,0
0,36,0,4
0,42,0,0
0,49,0,0
0,55,98,7
0,50,94,1
0,31,0,22
0,42,62,2
0,42,0,4
0,50,0,5
0,55,0,5
0,31,122,34
0,43,114,0
0,46,64,0
0,46,0,4
0,50,41,1
0,55,53,0
0,43,0,17
0,50,0,12
0,55,0,0
0,31,0,12
0,43,114,2
0,43,0,28
0,31,127,20
0,38,121,0
0,42,58,0
0,50,62,3
0,38,0,1
0,42,0,0
0,55,69,2
0,50,0,24
0,55,0,1
0,31,0,15
0,42,68,2
0,42,0,4
0,31,125,44
0,43,114,0
0,46,67,0
0,46,0,4
0,50,94,1
0,55,97,0
0,43,0,24
0,31,0,17
0,50,0,16
0,55,0,6
0,79,0,24
0,79,0,2
0,82,94,0
0,31,127,2
0,36,96,0
0,42,58,0
0,82,94,0
0,36,0,4
0,42,0,0
0,55,63,5
0,50,41,3
0,50,0,23
0,31,0,11
0,42,63,2
0,55,0,0
0,42,0,4
0,82,0,40
0,55,63,2
0,81,99,0
0,82,0,0
0,31,125,2
0,43,114,0
0,46,66,0
0,81,99,0
0,46,0,4
0,50,60,0
0,43,0,14
0,50,0,7
0,67,0,7
0,55,0,4
0,70,0,6
0,31,0,4
0,79,0,4
0,31,127,46
0,38,127,0
0,42,53,0
0,50,96,0
0,81,118,0
0,55,100,2
0,38,0,2
0,42,0,0
0,31,0,42
0,42,63,2
0,42,0,4
0,81,0,40
0,79,103,2
0,81,0,0
0,31,127,2
0,43,114,0
0,46,65,0
0,79,103,0
0,46,0,4
0,55,0,5
0,43,0,21
0,50,0,2
0,31,0,14
0,58,0,20
0,62,0,0
0,67,0,0
0,36,127,2
0,36,91,0
0,42,64,0
0,55,91,0
0,60,83,0
0,60,90,0
0,64,83,0
0,67,83,0
0,72,74,0
0,76,92,0
0,79,80,0
0,36,0,4
0,42,0,0
0,81,0,12
0,36,0,30
0,55,0,1
0,42,62,1
0,42,0,4
0,60,0,2
0,36,127,42
0,46,64,0
0,48,114,0
0,55,46,0
0,60,34,0
0,46,0,4
0,48,0,18
0,55,0,12
0,60,0,8
0,36,0,4
0,48,114,2
0,48,0,33
0,36,127,15
0,38,121,0
0,42,58,0
0,55,73,0
0,60,65,0
0,38,0,4
0,42,0,0
0,55,0,24
0,60,0,14
0,36,0,4
0,42,68,2
0,42,0,4
0,36,127,44
0,46,67,0
0,48,114,0
0,55,101,0
0,60,87,0
0,46,0,4
0,48,0,3
0,36,0,24
0,48,114,2
0,55,0,11
0,60,0,7
0,48,0,14
0,79,0,12
0,77,108,2
0,79,0,0
0,36,127,2
0,36,96,0
0,42,58,0
0,55,50,0
0,60,63,0
0,77,108,0
0,36,0,4
0,42,0,0
0,55,0,25
0,60,0,9
0,79,0,2
0,72,0,3
0,36,0,3
0,76,0,0
0,42,63,2
0,42,0,4
0,77,0,40
0,76,100,2
0,77,0,0
0,36,127,2
0,46,66,0
0,48,114,0
0,55,64,0
0,60,46,0
0,76,100,0
0,46,0,4
0,48,0,16
0,55,0,7
0,60,0,3
0,36,0,16
0,36,127,50
0,38,127,0
0,42,53,0
0,55,97,0
0,60,96,0
0,38,0,4
0,42,0,0
0,36,0,42
0,42,63,2
0,42,0,4
0,76,0,40
0,55,0,2
0,76,0,0
0,77,99,0
0,36,127,2
0,46,65,0
0,48,114,0
0,77,99,0
0,46,0,4
0,60,0,14
0,48,0,8
0,36,0,20
0,60,0,8
0,64,0,0
0,67,0,0
0,29,127,2
0,36,91,0
0,42,64,0
0,48,87,0
0,53,96,0
0,57,83,0
0,60,83,0
0,65,83,0
0,36,0,4
0,42,0,0
0,53,0,40
0,29,0,2
0,48,0,0
0,42,62,2
0,42,0,4
0,29,127,44
0,41,114,0
0,46,64,0
0,48,24,0
0,53,54,0
0,46,0,4
0,41,0,18
0,53,0,2
0,48,0,2
0,29,0,20
0,41,114,2
0,41,0,28
0,28,107,11
0,29,127,0
0,38,121,0
0,42,58,0
0,48,52,0
0,53,69,0
0,65,119,0
0,77,111,0
0,28,0,4
0,38,0,0
0,42,0,0
0,48,0,30
0,53,0,7
0,29,0,5
0,42,68,2
0,42,0,4
0,65,0,40
0,29,127,4
0,41,114,0
0,46,67,0
0,48,81,0
0,53,93,0
0,46,0,4
0,77,0,0
0,41,0,25
0,29,0,17
0,48,0,5
0,53,0,11
0,29,127,34
0,36,96,0
0,42,58,0
0,36,0,4
0,42,0,0
0,29,0,42
0,42,63,2
0,53,23,0
0,42,0,4
0,53,0,20
0,29,127,24
0,41,114,0
0,46,66,0
0,48,54,0
0,53,63,0
0,46,0,4
0,41,0,14
0,48,0,18
0,53,0,4
0,29,0,6
0,29,127,50
0,38,127,0
0,42,53,0
0,48,77,0
0,53,92,0
0,57,100,0
0,38,0,4
0,42,0,0
0,57,0,0
0,29,0,42
0,42,63,2
0,42,0,4
0,48,0,1
0,53,0,15
0,29,127,28
0,41,114,0
0,46,65,0
0,48,32,0
0,53,55,0
0,46,0,4
0,53,0,14
0,48,0,6
0,41,0,6
0,29,0,16
0,29,127,2
0,29,0,34
0,29,127,2
0,36,91,0
0,42,64,0
0,48,84,0
0,53,96,0
0,67,102,0
0,36,0,4
0,42,0,0
0,29,0,42
0,29,127,2
0,42,62,0
0,48,0,1
0,42,0,3
0,53,0,10
0,29,0,32
0,29,127,2
0,41,114,0
0,46,64,0
0,48,30,0
0,53,51,0
0,69,91,0
0,46,0,4
0,67,0,14
0,41,0,4
0,48,0,0
0,53,0,14
0,29,0,10
0,41,114,2
0,41,0,33
0,29,127,15
0,38,121,0
0,42,58,0
0,48,59,0
0,53,63,0
0,65,71,0
0,38,0,4
0,42,0,0
0,69,0,13
0,48,0,12
0,53,0,12
0,29,0,5
0,42,68,2
0,42,0,4
0,65,0,41
0,29,127,3
0,41,114,0
0,46,67,0
0,48,91,0
0,53,94,0
0,60,91,0
0,46,0,4
0,41,0,18
0,29,0,24
0,41,114,2
0,48,0,29
0,41,0,3
0,53,0,4
0,77,0,8
0,77,0,2
0,29,127,2
0,36,96,0
0,42,58,0
0,36,0,4
0,42,0,0
0,29,0,34
0,42,63,2
0,47,92,0
0,48,30,0
0,53,58,0
0,42,0,4
0,47,0,0
0,48,0,18
0,53,0,1
0,29,127,25
0,38,79,0
0,41,114,0
0,45,92,0
0,48,49,0
0,53,69,0
0,38,0,4
0,45,0,0
0,41,0,16
0,48,0,6
0,53,0,0
0,29,0,20
0,43,92,2
0,43,0,4
0,29,127,44
0,36,98,0
0,38,79,0
0,41,98,0
0,48,82,0
0,53,96,0
0,36,0,4
0,38,0,0
0,41,0,0
0,29,0,42
0,42,63,2
0,42,0,4
0,60,0,8
0,48,0,6
0,53,0,2
0,29,127,28
0,38,99,0
0,41,114,0
0,41,98,0
0,46,65,0
0,38,0,4
0,41,0,0
0,46,0,0
0,41,0,22
0,29,0,20
0,45,118,43
0,57,0,5
0,60,0,0
0,65,0,0
0,29,127,2
0,36,100,0
0,42,96,0
0,49,77,0
0,57,83,0
0,60,83,0
0,65,83,0
0,36,0,4
0,42,0,0
0,49,0,0
0,29,0,42
0,29,127,50
0,42,65,0
0,53,114,0
0,42,0,4
0,53,0,18
0,29,0,24
0,53,114,2
0,53,0,28
0,29,127,20
0,36,70,0
0,38,92,0
0,42,95,0
0,36,0,4
0,38,0,0
0,42,0,0
0,45,0,16
0,29,0,26
0,45,122,38
0,29,127,12
0,42,56,0
0,53,114,0
0,42,0,4
0,53,0,25
0,29,0,17
0,29,127,50
0,36,100,0
0,42,93,0
0,36,0,4
0,42,0,0
0,29,0,42
0,29,127,50
0,42,55,0
0,53,114,0
0,42,0,4
0,53,0,14
0,29,0,28
0,46,122,46
0,29,127,4
0,36,70,0
0,38,92,0
0,42,92,0
0,36,0,4
0,38,0,0
0,42,0,0
0,45,0,12
0,29,0,30
0,29,127,50
0,42,60,0
0,53,114,0
0,42,0,4
0,53,0,26
0,29,0,16
0,48,120,44
0,46,0,4
0,60,0,1
0,28,127,1
0,36,100,0
0,42,95,0
0,55,83,0
0,60,83,0
0,64,83,0
0,65,0,0
0,57,0,2
0,60,0,0
0,36,0,2
0,42,0,0
