track,note,velocity,time
1,71,127,39952
1,74,127,96
1,71,127,80
1,69,122,96
1,69,114,368
1,76,116,144
1,76,121,96
1,74,122,96
1,72,115,16
1,74,117,112
1,71,121,512
1,71,116,48
1,71,123,96
1,74,111,0
1,72,106,32
1,69,127,288
1,69,118,64
1,69,115,96
1,74,109,64
1,72,115,48
1,71,109,16
1,69,112,16
1,71,121,32
1,71,127,224
1,74,124,128
1,71,119,16
1,69,114,32
1,69,115,160
1,76,114,96
1,76,112,80
1,74,115,64
1,72,117,96
1,74,117,112
1,71,119,656
1,71,118,144
1,76,121,96
1,74,115,16
1,72,108,16
1,71,107,16
1,72,124,32
1,72,127,160
1,71,121,96
1,69,116,64
1,71,98,16
1,71,127,28976
1,74,127,96
1,71,127,80
1,69,122,96
1,69,114,368
1,76,116,144
1,76,121,96
1,74,122,96
1,72,115,16
1,74,117,112
1,71,121,512
1,71,116,48
1,71,123,96
1,74,111,0
1,72,106,32
1,69,127,288
1,69,118,64
1,69,115,96
1,74,109,64
1,72,115,48
1,71,109,16
1,69,112,16
1,71,121,32
1,71,127,160
1,74,124,128
1,71,119,16
1,69,114,32
1,69,115,160
1,76,114,96
1,76,112,80
1,74,115,64
1,72,117,96
1,74,117,112
1,71,119,656
1,71,118,144
1,76,121,96
1,74,115,16
1,72,108,16
1,71,107,16
1,72,124,32
1,72,127,160
1,71,121,96
1,69,116,64
1,71,98,16
1,71,127,656
1,74,127,96
1,71,127,80
1,69,122,96
1,69,114,368
1,76,116,144
1,76,121,96
1,74,122,96
1,72,115,16
1,74,117,112
1,71,121,512
1,71,116,48
1,71,123,96
1,74,111,0
1,72,106,32
1,69,127,288
1,69,118,64
1,69,115,96
1,74,109,64
1,72,115,48
1,71,109,16
1,69,112,16
1,71,121,32
1,71,127,224
1,74,124,128
1,71,119,16
1,69,114,32
1,69,115,160
1,76,114,96
1,76,112,80
1,74,115,64
1,72,117,96
1,74,117,112
1,71,119,656
1,71,118,144
1,76,121,96
1,74,115,16
1,72,108,16
1,71,107,16
1,72,124,32
1,72,127,160
1,71,121,96
1,69,116,64
1,71,98,16
2,55,87,1520
2,59,91,0
2,62,82,0
2,54,88,48
2,57,92,16
2,62,86,0
2,55,89,48
2,60,82,0
2,64,76,0
2,52,89,32
2,55,95,16
2,59,87,0
2,62,82,0
2,55,102,64
2,60,92,0
2,64,89,0
2,59,88,32
2,62,87,0
2,55,102,48
2,59,89,0
2,64,91,0
2,66,77,32
2,54,96,16
2,57,85,0
2,62,86,0
2,50,77,32
2,55,92,0
2,59,86,0
2,62,80,0
2,52,82,96
2,54,85,0
2,57,93,0
2,62,93,0
2,52,93,0
2,57,87,0
2,60,90,0
2,64,88,0
2,55,93,112
2,59,84,0
2,55,99,16
2,60,85,0
2,64,91,0
2,50,89,32
2,59,84,0
2,62,83,0
2,52,87,0
2,57,91,0
2,60,87,0
2,50,86,64
2,54,81,0
2,57,81,0
2,62,82,0
2,59,83,144
2,55,97,16
2,54,86,112
2,57,90,0
2,52,78,32
2,57,87,0
2,60,87,0
2,64,84,0
2,55,87,0
2,59,84,0
2,55,110,0
2,60,93,0
2,64,93,0
2,59,83,32
2,62,84,0
2,50,90,0
2,52,94,48
2,57,92,0
2,60,87,0
2,55,114,64
2,62,95,0
2,67,95,16
2,54,80,0
2,66,78,0
2,57,90,560
2,52,110,80
2,55,120,0
2,54,103,32
2,57,99,16
2,55,90,96
2,59,93,0
2,50,87,32
2,62,97,544
2,54,94,32
2,57,99,0
2,66,87,0
2,55,127,96
2,60,91,0
2,64,91,0
2,67,87,0
2,59,91,16
2,62,89,0
2,52,87,48
2,59,93,16
2,64,94,0
2,67,87,0
2,57,110,0
2,60,97,0
2,64,91,0
2,54,101,224
2,62,90,0
2,55,110,112
2,62,99,0
2,59,85,160
2,67,93,400
2,54,106,80
2,57,92,0
2,62,84,0
2,66,88,0
2,52,84,80
2,60,99,0
2,64,96,0
2,67,86,0
2,55,102,80
2,59,91,16
2,67,82,0
2,62,86,16
2,55,99,80
2,59,87,0
2,64,96,0
2,67,91,0
2,57,99,16
2,60,95,0
2,64,94,0
2,67,95,0
2,54,101,80
2,57,97,0
2,62,97,0
2,50,85,112
2,55,91,0
2,59,86,0
2,52,88,96
2,55,102,0
2,60,91,0
2,64,93,0
2,55,95,16
2,62,81,0
2,59,89,16
2,64,87,32
2,52,86,16
2,55,97,0
2,60,90,0
2,50,91,112
2,54,89,0
2,57,85,0
2,62,89,0
2,55,78,32
2,59,82,0
2,54,101,32
2,57,89,0
2,57,62,32
2,60,87,0
2,64,88,0
2,52,88,0
2,55,90,0
2,59,79,0
2,55,99,96
2,60,86,0
2,64,88,0
2,59,87,16
2,62,87,0
2,57,89,48
2,60,87,0
2,64,84,0
2,52,94,16
2,54,94,32
2,62,86,0
2,57,93,16
2,50,93,112
2,55,89,0
2,59,80,0
2,54,101,80
2,57,102,16
2,52,93,48
2,57,93,0
2,60,93,0
2,64,86,0
2,55,92,144
2,59,84,0
2,52,93,112
2,55,102,0
2,60,92,0
2,64,96,0
2,62,84,16
2,55,99,16
2,59,87,0
2,57,93,64
2,52,101,16
2,60,85,0
2,64,88,0
2,55,106,96
2,62,95,0
2,67,95,0
2,62,76,32
2,54,106,16
2,66,101,0
2,57,97,368
2,50,97,64
2,52,119,0
2,55,120,0
2,54,110,32
2,57,102,0
2,50,90,96
2,55,102,0
2,59,91,0
2,62,99,400
2,54,89,48
2,57,93,0
2,62,78,0
2,66,86,0
2,55,114,16
2,60,95,0
2,64,93,0
2,67,89,576
2,55,106,48
2,59,84,0
2,62,82,0
2,67,86,0
2,59,83,32
2,64,86,0
2,57,90,32
2,60,89,0
2,64,83,16
2,69,74,0
2,69,60,32
2,66,84,48
2,54,101,16
2,57,92,0
2,62,87,0
2,55,110,96
2,59,85,0
2,62,83,0
2,67,84,0
2,54,94,96
2,57,95,16
2,62,87,0
2,66,84,0
2,52,101,240
2,60,106,0
2,64,96,0
2,67,87,0
2,55,99,48
2,59,93,0
2,62,89,0
2,67,87,0
2,59,91,48
2,67,85,0
2,52,91,16
2,64,91,0
2,57,99,192
2,60,91,0
2,64,87,0
2,69,86,0
2,54,98,64
2,57,106,0
2,62,89,0
2,55,110,48
2,59,93,0
2,62,78,0
2,67,83,0
2,57,93,112
2,66,81,0
2,54,106,32
2,62,86,0
2,60,99,80
2,64,93,0
2,67,86,0
2,52,98,48
2,55,110,48
2,59,85,32
2,62,90,0
2,67,84,0
2,52,87,80
2,59,94,0
2,64,93,16
2,67,87,0
2,57,99,16
2,60,97,0
2,64,91,0
2,54,96,32
2,57,99,0
2,62,91,0
2,66,93,0
2,55,114,112
2,59,91,0
2,62,86,0
2,67,85,0
2,66,88,112
2,54,103,16
2,57,93,0
2,62,85,0
2,55,114,80
2,60,95,0
2,64,94,0
2,55,97,176
2,59,84,0
2,62,86,0
2,55,114,128
2,59,89,0
2,64,87,0
2,57,102,144
2,60,87,0
2,64,84,0
2,57,89,112
2,54,84,16
2,62,106,0
2,55,97,128
2,59,84,0
2,62,93,0
2,67,86,0
2,60,102,144
2,59,83,0
2,60,102,144
2,55,110,32
2,55,127,0
2,67,83,0
2,59,83,16
3,48,126,7664
3,43,123,1536
3,40,119,1520
3,38,123,1520
3,31,127,160
3,38,127,48
3,38,126,112
3,33,127,32
3,33,127,112
3,40,127,96
3,35,127,0
3,36,127,0
3,36,127,80
3,31,127,16
3,31,113,96
3,33,127,48
3,36,127,576
3,40,127,32
3,38,127,16
3,31,127,32
3,31,127,96
3,38,127,0
3,38,127,112
3,33,127,32
3,33,127,112
3,40,127,48
3,35,127,16
3,36,127,16
3,36,127,112
3,31,127,32
3,31,114,112
3,33,127,48
3,36,127,32
3,40,127,0
3,38,127,16
3,33,127,32
3,26,127,16
3,28,127,0
3,30,127,0
3,31,127,48
3,31,127,144
3,38,127,16
3,31,127,32
3,38,127,384
3,38,127,144
3,45,127,0
3,38,127,384
3,36,127,32
3,36,127,96
3,43,127,0
3,36,127,384
3,31,127,32
3,31,125,128
3,38,127,0
3,31,127,16
3,28,127,32
3,28,122,112
3,35,127,0
3,28,127,48
3,33,127,48
3,33,127,80
3,40,127,48
3,40,126,64
3,33,127,16
3,38,127,48
3,38,127,128
3,33,127,0
3,38,127,16
3,31,127,32
3,31,127,128
3,38,127,32
3,26,127,64
3,31,127,48
3,31,127,80
3,38,127,0
3,31,123,0
3,38,127,32
3,38,127,64
3,45,127,0
3,38,127,384
3,36,127,32
3,36,127,144
3,36,127,112
3,36,127,96
3,43,127,16
3,43,127,80
3,38,127,0
3,43,127,32
3,40,127,48
3,40,127,128
3,35,127,32
3,40,127,384
3,33,127,32
3,33,126,128
3,28,126,32
3,33,127,0
3,38,127,48
3,38,127,112
3,33,127,16
3,38,127,384
3,31,127,32
3,31,127,128
3,38,127,32
3,26,127,32
3,36,127,16
3,36,125,48
3,36,127,80
3,31,127,16
3,31,127,144
3,36,127,0
3,36,127,80
3,36,125,80
3,38,127,16
3,38,127,80
3,31,127,112
3,38,127,48
3,38,126,112
3,33,127,32
3,33,127,112
3,40,127,96
3,35,127,0
3,36,127,0
3,36,127,80
3,31,127,16
3,31,113,96
3,33,127,48
3,36,127,576
3,40,127,32
3,38,127,16
3,31,127,32
3,31,127,96
3,38,127,0
3,38,127,112
3,33,127,32
3,33,127,112
3,40,127,48
3,35,127,16
3,36,127,16
3,36,127,112
3,31,127,32
3,31,114,112
3,33,127,48
3,36,127,32
3,40,127,0
3,38,127,16
3,33,127,32
3,26,127,16
3,28,127,0
3,30,127,0
3,31,127,48
3,31,127,144
3,38,127,16
3,31,127,32
3,38,127,384
3,38,127,144
3,45,127,0
3,38,127,384
3,36,127,32
3,36,127,96
3,43,127,0
3,36,127,384
3,31,127,32
3,31,125,128
3,38,127,0
3,31,127,16
3,28,127,32
3,28,122,112
3,35,127,0
3,28,127,48
3,33,127,48
3,33,127,80
3,40,127,48
3,40,126,64
3,33,127,16
3,38,127,48
3,38,127,128
3,33,127,0
3,38,127,16
3,31,127,32
3,31,127,128
3,38,127,32
3,26,127,384
3,31,127,48
3,31,127,80
3,38,127,0
3,31,123,0
3,38,127,32
3,38,127,64
3,45,127,0
3,38,127,384
3,36,127,32
3,36,121,144
3,36,127,144
3,36,127,112
3,43,127,32
3,43,127,80
3,38,127,0
3,43,127,32
3,40,127,48
3,40,127,128
3,35,127,32
3,40,127,384
3,33,127,32
3,33,126,128
3,28,126,32
3,33,127,0
3,38,127,48
3,38,127,112
3,33,127,16
3,38,127,384
3,31,127,32
3,31,127,128
3,38,127,16
3,26,127,384
3,31,127,96
3,31,127,144
3,38,127,32
3,38,127,80
3,31,127,192
3,38,127,64
3,38,127,144
3,45,127,0
3,38,127,384
3,36,127,32
3,36,127,96
3,43,127,0
3,36,127,384
3,31,127,32
3,31,125,128
3,38,127,0
3,31,127,16
3,28,127,32
3,28,122,112
3,35,127,0
3,28,127,48
3,33,127,48
3,33,127,80
3,40,127,48
3,40,126,64
3,33,127,16
3,38,127,48
3,38,127,128
3,33,127,0
3,38,127,16
3,31,127,32
3,31,127,128
3,38,127,32
3,26,127,384
3,31,127,48
3,31,127,80
3,38,127,0
3,31,123,0
3,38,127,32
3,38,127,64
3,45,127,0
3,38,127,384
3,36,127,32
3,36,127,96
3,38,127,16
3,40,127,48
3,43,127,112
3,43,127,80
3,38,127,0
3,43,127,32
3,40,127,48
3,40,127,128
3,35,127,32
3,40,127,384
3,33,127,32
3,33,126,128
3,28,126,32
3,33,127,0
3,38,127,48
3,38,127,112
3,33,127,16
3,38,127,384
3,31,127,32
3,31,127,128
3,38,127,16
3,26,127,256
3,31,126,368
3,31,127,96
3,38,127,192
3,26,127,368
3,31,127,368
3,31,127,64
3,38,127,32
3,38,127,48
3,26,127,192
3,31,127,352
4,55,127,39920
4,59,127,0
4,59,127,96
4,62,127,0
4,55,127,80
4,59,127,0
4,54,127,128
4,57,127,0
4,60,127,16
4,64,127,0
4,60,127,0
4,64,127,0
4,60,127,112
4,64,127,0
4,59,127,64
4,62,127,0
4,57,127,48
4,60,127,0
4,59,127,80
4,62,127,0
4,55,127,256
4,59,127,0
4,55,124,96
4,59,127,0
4,55,127,128
4,59,127,0
4,59,127,64
4,62,127,0
4,57,127,48
4,60,125,0
4,54,127,160
4,57,127,0
4,54,127,96
4,57,127,0
4,54,127,112
4,57,127,0
4,59,127,80
4,62,127,16
4,57,127,16
4,60,127,0
4,55,127,32
4,59,127,0
4,57,127,48
4,54,127,16
4,55,127,48
4,59,127,0
4,55,127,208
4,59,127,16
4,59,127,96
4,62,127,0
4,55,127,48
4,59,127,0
4,57,127,16
4,54,127,32
4,60,127,96
4,60,127,16
4,64,127,0
4,60,127,144
4,64,127,0
4,59,127,48
4,62,119,0
4,57,126,352
4,60,126,0
4,59,127,80
4,62,122,0
4,55,127,208
4,59,127,0
4,59,127,128
4,55,127,16
4,55,127,80
4,64,127,0
4,59,127,48
4,62,127,0
4,57,127,48
4,60,127,0
4,55,127,48
4,59,127,0
4,57,127,64
4,60,127,0
4,57,127,208
4,60,127,0
4,55,127,128
4,59,127,0
4,54,127,80
4,57,127,0
4,55,127,48
4,59,127,0
4,55,127,26944
4,59,127,0
4,59,127,96
4,62,127,0
4,55,127,80
4,59,127,0
4,54,127,128
4,57,127,0
4,60,127,80
4,64,127,0
4,60,127,0
4,64,127,0
4,60,127,112
4,64,127,0
4,59,127,64
4,62,127,0
4,57,127,48
4,60,127,0
4,59,127,80
4,62,127,0
4,55,127,256
4,59,127,0
4,55,124,96
4,59,127,0
4,55,127,128
4,59,127,0
4,59,127,64
4,62,127,0
4,57,127,48
4,60,125,0
4,54,127,160
4,57,127,0
4,54,127,96
4,57,127,0
4,54,127,112
4,57,127,0
4,59,127,80
4,62,127,16
4,57,127,16
4,60,127,0
4,55,127,32
4,59,127,0
4,57,127,48
4,54,127,16
4,55,127,48
4,59,127,0
4,55,127,160
4,59,127,16
4,59,127,96
4,62,127,0
4,55,127,48
4,59,127,0
4,57,127,16
4,54,127,32
4,60,127,96
4,60,127,16
4,64,127,0
4,60,127,144
4,64,127,0
4,59,127,48
4,62,119,0
4,57,126,352
4,60,126,0
4,59,127,80
4,62,122,0
4,55,127,208
4,59,127,0
4,59,127,128
4,55,127,16
4,55,127,80
4,64,127,0
4,59,127,48
4,62,127,0
4,57,127,48
4,60,127,0
4,55,127,48
4,59,127,0
4,57,127,64
4,60,127,0
4,57,127,208
4,60,127,0
4,55,127,128
4,59,127,0
4,54,127,80
4,57,127,0
4,55,127,48
4,59,127,0
4,55,127,496
4,59,127,0
4,59,127,96
4,62,127,0
4,55,127,80
4,59,127,0
4,54,127,128
4,57,127,0
4,60,127,80
4,64,127,0
4,60,127,0
4,64,127,0
4,60,127,112
4,64,127,0
4,59,127,64
4,62,127,0
4,57,127,48
4,60,127,0
4,59,127,80
4,62,127,0
4,55,127,256
4,59,127,0
4,55,124,96
4,59,127,0
4,55,127,128
4,59,127,0
4,59,127,64
4,62,127,0
4,57,127,48
4,60,125,0
4,54,127,160
4,57,127,0
4,54,127,96
4,57,127,0
4,54,127,112
4,57,127,0
4,59,127,80
4,62,127,16
4,57,127,16
4,60,127,0
4,55,127,32
4,59,127,0
4,57,127,48
4,54,127,16
4,55,127,48
4,59,127,0
4,55,127,208
4,59,127,16
4,59,127,80
4,62,127,0
4,55,127,48
4,59,127,0
4,57,127,16
4,54,127,32
4,60,127,96
4,60,127,16
4,64,127,0
4,60,127,144
4,64,127,0
4,59,127,48
4,62,119,0
4,57,126,352
4,60,126,0
4,59,127,80
4,62,122,0
4,55,127,208
4,59,127,0
4,59,127,128
4,55,127,16
4,55,127,80
4,64,127,0
4,59,127,48
4,62,127,0
4,57,127,48
4,60,127,0
4,55,127,48
4,59,127,0
4,57,127,64
4,60,127,0
4,57,127,208
4,60,127,0
4,55,127,128
4,59,127,0
4,54,127,80
4,57,127,0
