track,note,velocity,time
0,31,72,2242
0,43,92,0
0,55,86,4
0,55,72,120
0,55,86,12
0,50,86,40
0,55,72,28
0,55,86,12
0,50,72,28
0,59,86,12
0,55,72,28
0,55,86,12
0,59,72,28
0,50,86,12
0,55,72,28
0,55,86,12
0,50,72,24
0,55,72,40
0,55,86,48
0,55,72,120
0,50,86,48
0,50,72,120
0,55,86,12
0,55,72,120
0,55,86,12
0,50,86,40
0,55,72,28
0,55,86,12
0,50,72,28
0,59,86,12
0,55,72,28
0,55,86,12
0,59,72,28
0,50,86,12
0,55,72,28
0,55,86,12
0,50,72,24
0,55,72,40
0,55,86,48
0,51,72,26
0,51,68,46
0,55,72,8
0,51,59,34
0,51,73,38
0,57,74,0
0,50,86,10
0,55,78,92
0,59,78,0
0,62,78,0
0,71,89,16
0,83,88,6
0,55,94,2
0,59,94,0
0,50,72,4
0,35,108,0
0,42,83,0
0,49,81,0
0,74,73,2
0,59,99,2
0,31,98,0
0,71,88,2
0,55,102,2
0,55,86,0
0,59,102,0
0,62,102,0
0,69,42,34
0,55,72,72
0,42,62,2
0,55,75,4
0,55,86,0
0,59,75,0
0,62,75,0
0,69,38,34
0,50,86,8
0,55,90,26
0,59,90,0
0,55,72,4
0,35,108,2
0,37,114,0
0,42,80,0
0,59,95,0
0,55,77,4
0,55,86,0
0,59,79,0
0,62,77,0
0,50,72,30
0,69,34,4
0,59,86,8
0,55,92,2
0,59,92,0
0,55,72,4
0,42,64,2
0,59,97,0
0,55,95,4
0,55,86,0
0,59,99,0
0,62,95,0
0,59,72,30
0,69,30,4
0,50,86,8
0,74,91,4
0,86,89,2
0,59,87,2
0,62,87,0
0,55,72,4
0,35,108,2
0,42,82,0
0,62,92,6
0,31,98,0
0,74,88,2
0,55,86,2
0,50,72,30
0,69,26,4
0,55,72,42
0,42,62,2
0,55,81,4
0,59,78,0
0,62,77,0
0,69,22,46
0,55,86,8
0,59,88,26
0,62,88,0
0,35,108,6
0,38,102,0
0,42,78,0
0,54,85,2
0,62,93,0
0,55,76,4
0,59,75,0
0,62,73,0
0,55,72,72
0,69,18,4
0,59,87,8
0,62,87,0
0,42,64,6
0,62,92,0
0,50,86,4
0,55,82,0
0,59,81,0
0,62,74,0
0,69,14,34
0,79,91,4
0,91,84,4
0,62,87,2
0,67,87,0
0,50,72,4
0,35,108,2
0,42,83,0
0,74,73,2
0,67,92,0
0,31,100,0
0,79,88,2
0,55,95,2
0,55,86,0
0,59,99,0
0,62,95,0
0,69,42,34
0,55,72,72
0,42,62,2
0,55,76,4
0,55,86,0
0,59,73,0
0,62,76,0
0,69,38,34
0,50,86,8
0,55,72,30
0,35,108,2
0,37,114,0
0,42,80,0
0,55,79,4
0,55,86,0
0,59,79,0
0,62,81,0
0,50,72,30
0,69,34,4
0,59,86,8
0,96,93,4
0,55,72,6
0,42,64,2
0,31,98,0
0,84,122,2
0,55,99,2
0,55,86,0
0,59,92,0
0,62,92,0
0,59,72,4
0,69,30,4
0,50,86,8
0,55,72,30
0,35,108,2
0,42,82,0
0,31,100,6
0,55,86,4
0,50,72,18
0,69,26,4
0,95,80,4
0,55,72,6
0,42,62,2
0,83,95,2
0,55,79,2
0,59,79,0
0,62,76,0
0,69,22,46
0,55,86,8
0,93,80,4
0,35,108,8
0,38,102,0
0,39,97,0
0,42,78,0
0,38,98,0
0,81,87,2
0,55,81,2
0,59,78,0
0,62,77,0
0,55,72,74
0,69,18,4
0,91,80,4
0,42,64,8
0,79,104,2
0,50,86,2
0,55,76,0
0,59,76,0
0,62,75,0
0,69,14,34
0,55,78,4
0,60,78,0
0,64,78,0
0,72,92,4
0,84,85,4
0,52,94,2
0,60,94,0
0,50,72,4
0,35,108,2
0,42,83,0
0,74,73,2
0,60,99,0
0,36,98,0
0,72,88,2
0,55,92,2
0,55,86,0
0,60,95,0
0,64,89,0
0,69,42,34
0,55,72,72
0,42,62,2
0,55,76,4
0,55,86,0
0,60,78,0
0,64,77,0
0,69,38,4
0,52,86,8
0,52,90,26
0,60,90,0
0,55,72,4
0,35,108,2
0,37,114,0
0,42,80,0
0,60,95,0
0,55,81,2
0,55,86,0
0,60,86,0
0,64,79,0
0,52,72,30
0,69,34,4
0,60,86,8
0,52,92,0
0,60,92,0
0,55,72,4
0,42,64,0
0,60,97,0
0,55,92,4
0,55,86,0
0,60,89,0
0,64,89,0
0,60,72,30
0,69,30,4
0,52,86,8
0,76,95,4
0,88,88,2
0,55,87,2
0,64,87,0
0,55,72,4
0,35,108,2
0,42,82,0
0,64,92,6
0,36,98,0
0,76,88,2
0,55,86,2
0,52,72,30
0,69,26,4
0,55,72,40
0,42,62,2
0,55,79,4
0,60,76,0
0,64,78,0
0,69,22,46
0,55,86,8
0,55,88,26
0,64,88,0
0,35,108,6
0,38,102,0
0,42,78,0
0,54,85,2
0,64,93,0
0,55,81,4
0,60,79,0
0,64,76,0
0,55,72,72
0,69,18,4
0,55,87,0
0,64,87,0
0,42,64,6
0,64,92,0
0,52,86,4
0,55,92,0
0,60,82,0
0,64,89,0
0,69,14,34
0,79,93,4
0,91,80,0
0,60,87,2
0,67,87,0
0,52,72,4
0,35,108,2
0,42,83,0
0,74,73,2
0,67,92,0
0,36,100,0
0,79,88,2
0,55,92,2
0,55,86,0
0,60,95,0
0,64,89,0
0,69,42,34
0,55,72,2
0,42,62,2
0,55,76,2
0,55,86,0
0,60,78,0
0,64,77,0
0,69,38,34
0,52,86,8
0,55,72,30
0,35,108,2
0,37,114,0
0,42,80,0
0,55,81,4
0,55,86,0
0,60,86,0
0,64,79,0
0,52,72,30
0,69,34,4
0,60,86,8
0,96,88,4
0,55,72,6
0,42,64,2
0,36,98,0
0,84,122,2
0,55,92,2
0,55,86,0
0,60,89,0
0,64,89,0
0,60,72,4
0,69,30,4
0,52,86,8
0,55,72,30
0,35,108,2
0,42,82,0
0,36,100,6
0,55,86,4
0,52,72,30
0,69,26,4
0,95,80,4
0,55,72,6
0,42,62,2
0,83,104,2
0,55,79,2
0,60,76,0
0,64,78,0
0,69,22,46
0,55,86,8
0,93,84,4
0,35,108,8
0,38,102,0
0,39,97,0
0,42,78,0
0,40,98,0
0,81,93,2
0,55,81,2
0,60,79,0
0,64,76,0
0,55,72,74
0,69,18,4
0,91,79,4
0,42,64,8
0,79,104,2
0,52,86,2
0,55,92,0
0,60,82,0
0,64,89,0
0,69,14,34
0,57,78,4
0,62,78,0
0,66,78,0
0,74,93,4
0,86,82,4
0,54,94,2
0,62,94,0
0,52,72,4
0,35,108,2
0,42,83,0
0,74,73,2
0,62,99,0
0,26,98,0
0,74,88,2
0,57,92,2
0,57,86,0
0,62,92,0
0,66,86,0
0,69,42,34
0,57,72,70
0,42,62,2
0,57,77,4
0,57,86,0
0,62,75,0
0,66,74,0
0,69,38,34
0,54,86,8
0,54,90,26
0,62,90,0
0,57,72,4
0,35,108,2
0,37,114,0
0,42,80,0
0,62,95,0
0,57,81,4
0,57,86,0
0,62,81,0
0,66,79,0
0,54,72,30
0,69,34,4
0,62,86,8
0,54,92,4
0,62,92,0
0,57,72,4
0,42,64,2
0,62,97,0
0,57,89,4
0,57,86,0
0,62,89,0
0,66,92,0
0,62,72,30
0,69,30,4
0,54,86,8
0,78,93,4
0,90,75,2
0,57,87,2
0,66,87,0
0,57,72,4
0,35,108,2
0,42,82,0
0,66,92,6
0,38,98,0
0,78,88,2
0,57,86,2
0,54,72,30
0,69,26,4
0,57,72,42
0,42,62,2
0,57,79,4
0,62,73,0
0,66,74,0
0,69,22,46
0,57,86,8
0,57,88,26
0,66,88,0
0,35,108,6
0,38,102,0
0,42,78,0
0,54,85,2
0,66,93,0
0,33,98,0
0,57,75,4
0,62,76,0
0,66,75,0
0,57,72,72
0,69,18,4
0,57,87,2
0,66,87,0
0,42,64,6
0,66,92,0
0,54,86,4
0,57,79,0
0,62,81,0
0,66,76,0
0,69,14,34
0,81,93,4
0,93,75,4
0,62,87,0
0,69,87,0
0,54,72,4
0,35,108,2
0,42,83,0
0,74,73,2
0,69,92,0
0,38,98,0
0,81,88,2
0,57,92,2
0,57,86,0
0,62,92,0
0,66,86,0
0,69,42,34
0,57,72,4
0,42,62,2
0,57,77,4
0,57,86,0
0,62,75,0
0,66,74,0
0,69,38,34
0,54,86,8
0,57,72,30
0,35,108,2
0,37,114,0
0,42,80,0
0,57,81,4
0,57,86,0
0,62,81,0
0,66,79,0
0,54,72,30
0,69,34,4
0,62,86,8
0,83,91,4
0,95,75,4
0,57,72,6
0,42,64,2
0,38,98,0
0,83,89,2
0,83,88,0
0,57,89,2
0,57,86,0
0,62,89,0
0,66,92,0
0,62,72,30
0,69,30,4
0,54,86,8
0,84,87,4
0,96,76,4
0,57,72,6
0,35,108,2
0,42,82,0
0,38,98,0
0,84,100,2
0,84,88,0
0,57,86,2
0,54,72,30
0,69,26,4
0,57,72,42
0,42,62,2
0,57,79,4
0,62,73,0
0,66,74,0
0,69,22,46
0,57,86,8
0,78,95,4
0,90,80,4
0,35,108,8
0,38,102,0
0,39,97,0
0,42,78,0
0,30,98,0
0,78,104,2
0,78,88,0
0,57,75,2
0,62,76,0
0,66,75,0
0,57,72,74
0,69,18,4
0,42,64,44
0,54,86,4
0,57,79,0
0,62,81,0
0,66,76,0
0,69,14,34
0,55,78,4
0,59,78,0
0,62,78,0
0,79,85,4
0,91,74,4
0,54,72,6
0,35,108,2
0,42,83,0
0,74,73,0
0,31,98,0
0,79,104,2
0,79,88,0
0,55,86,2
0,59,82,0
0,62,86,0
0,67,82,0
0,69,42,34
0,55,72,72
0,42,62,2
0,55,86,4
0,59,58,0
0,62,64,0
0,67,63,0
0,69,38,34
0,50,86,8
0,55,72,30
0,35,108,2
0,37,114,0
0,42,80,0
0,55,86,4
0,59,71,0
0,62,70,0
0,67,70,0
0,50,72,6
0,69,34,4
0,59,86,8
0,55,72,30
0,42,64,2
0,31,98,0
0,55,86,4
0,59,96,0
0,62,93,0
0,67,93,0
0,59,72,26
0,69,30,4
0,50,86,8
0,55,72,30
0,35,108,2
0,42,82,0
0,31,98,6
0,55,86,4
0,50,72,20
0,69,26,4
0,55,72,24
0,42,62,2
0,59,71,4
0,62,69,0
0,67,69,0
0,69,22,46
0,55,86,8
0,35,108,32
0,38,102,0
0,42,78,0
0,54,85,2
0,59,67,4
0,62,67,0
0,67,67,0
0,55,72,36
0,69,18,4
0,42,64,44
0,50,86,4
0,59,71,0
0,62,66,0
0,67,73,0
0,69,14,34
0,50,72,38
0,35,108,2
0,42,83,0
0,74,73,2
0,31,100,0
0,55,86,4
0,59,82,0
0,62,86,0
0,67,82,0
0,69,42,34
0,55,72,72
0,42,62,2
0,55,86,4
0,59,58,0
0,62,64,0
0,67,63,0
0,69,38,34
0,50,86,8
0,55,72,30
0,35,108,2
0,37,114,0
0,42,80,0
0,55,86,4
0,59,71,0
0,62,70,0
0,67,70,0
0,50,72,30
0,69,34,4
0,59,86,8
0,55,72,30
0,42,64,2
0,31,98,0
0,55,86,4
0,59,93,0
0,62,93,0
0,67,93,0
0,59,72,30
0,69,30,4
0,50,86,4
0,69,95,18
0,55,72,12
0,35,108,2
0,42,82,0
0,31,100,6
0,55,86,4
0,50,72,26
0,69,26,4
0,55,72,4
0,42,62,2
0,59,70,4
0,62,75,0
0,67,69,0
0,69,22,4
0,55,86,8
0,72,87,4
0,35,108,14
0,38,102,0
0,39,97,0
0,42,78,0
0,38,98,0
0,59,67,4
0,62,67,0
0,67,67,0
0,55,72,74
0,69,18,4
0,42,64,44
0,50,86,4
0,59,71,0
0,62,66,0
0,67,73,0
0,69,14,34
0,55,68,4
0,59,68,0
0,62,68,0
0,71,91,4
0,50,72,12
0,35,108,2
0,42,83,0
0,50,101,0
0,31,100,0
0,55,102,4
0,55,86,0
0,59,102,0
0,62,102,0
0,69,42,34
0,55,72,72
0,42,62,2
0,55,75,4
0,55,86,0
0,59,75,0
0,62,75,0
0,69,35,34
0,50,86,8
0,55,72,30
0,35,108,2
0,37,114,0
0,42,80,0
0,55,77,4
0,55,86,0
0,59,79,0
0,62,77,0
0,50,72,30
0,69,29,4
0,59,86,8
0,55,72,30
0,42,64,0
0,59,97,0
0,31,98,0
0,55,95,4
0,55,86,0
0,59,99,0
0,62,95,0
0,59,72,4
0,69,22,4
0,50,86,8
0,55,72,30
0,35,108,2
0,42,82,0
0,59,90,6
0,31,98,0
0,55,86,4
0,50,72,30
0,69,16,4
0,55,72,42
0,42,62,2
0,55,81,4
0,59,78,0
0,62,77,0
0,69,10,46
0,55,86,8
0,35,108,32
0,37,114,0
0,42,78,0
0,55,76,4
0,59,75,0
0,62,73,0
0,55,72,74
0,69,6,4
0,42,64,44
0,50,86,4
0,55,82,0
0,59,81,0
0,62,74,0
0,69,4,10
0,50,72,72
0,35,108,2
0,42,83,0
0,31,100,0
0,55,95,4
0,55,86,0
0,59,99,0
0,62,95,0
0,69,42,34
0,55,72,72
0,42,62,2
0,55,76,4
0,55,86,0
0,59,73,0
0,62,76,0
0,69,35,34
0,50,86,8
0,55,72,30
0,35,108,2
0,37,114,0
0,42,80,0
0,55,79,4
0,55,86,0
0,59,79,0
0,62,81,0
0,50,72,30
0,69,29,4
0,59,86,8
0,55,72,30
0,42,64,2
0,50,100,0
0,31,98,0
0,55,99,4
0,55,86,0
0,60,92,0
0,64,92,0
0,59,72,30
0,69,22,4
0,50,86,8
0,60,68,2
0,64,68,0
0,55,72,28
0,35,108,2
0,42,82,0
0,60,100,2
0,36,100,0
0,55,86,4
0,50,72,30
0,69,16,4
0,55,72,34
0,42,62,2
0,60,98,0
0,55,79,4
0,60,79,0
0,64,76,0
0,69,10,46
0,55,86,8
0,35,108,10
0,37,114,0
0,39,97,0
0,42,78,0
0,54,85,2
0,60,94,0
0,40,98,0
0,55,81,4
0,60,78,0
0,64,77,0
0,55,72,72
0,69,6,4
0,42,64,38
0,60,92,0
0,50,86,4
0,55,76,0
0,60,76,0
0,64,75,0
0,69,4,34
0,59,68,4
0,62,68,0
0,50,72,8
0,35,108,2
0,42,83,0
0,59,97,0
0,31,100,0
0,55,86,4
0,59,92,0
0,62,95,0
0,67,89,0
0,69,42,34
0,55,72,72
0,42,62,2
0,55,86,4
0,59,76,0
0,62,78,0
0,67,77,0
0,69,35,34
0,50,86,8
0,55,72,30
0,35,108,2
0,37,114,0
0,42,80,0
0,55,86,4
0,59,81,0
0,62,86,0
0,67,79,0
0,50,72,30
0,69,29,4
0,59,86,8
0,55,72,30
0,42,64,2
0,31,98,0
0,55,86,4
0,59,92,0
0,62,89,0
0,67,89,0
0,59,72,4
0,69,22,4
0,50,86,8
0,55,72,30
0,35,108,2
0,42,82,0
0,50,94,6
0,31,98,0
0,55,86,4
0,50,72,30
0,69,16,4
0,55,72,42
0,42,62,2
0,59,79,4
0,62,76,0
0,67,78,0
0,69,10,46
0,55,86,8
0,35,108,32
0,37,114,0
0,42,78,0
0,59,81,4
0,62,79,0
0,67,76,0
0,55,72,74
0,69,6,4
0,42,64,44
0,50,86,4
0,59,92,0
0,62,82,0
0,67,89,0
0,69,4,10
0,69,91,60
0,50,72,12
0,35,108,2
0,42,83,0
0,31,100,0
0,55,86,4
0,59,92,0
0,62,92,0
0,67,86,0
0,69,42,34
0,55,72,72
0,42,62,2
0,55,86,4
0,59,77,0
0,62,75,0
0,67,74,0
0,69,35,34
0,50,86,8
0,55,72,30
0,35,108,2
0,37,114,0
0,42,80,0
0,55,86,4
0,59,81,0
0,62,81,0
0,67,79,0
0,50,72,30
0,69,29,4
0,59,86,8
0,55,72,30
0,42,64,2
0,31,98,0
0,55,86,4
0,59,89,0
0,62,89,0
0,67,92,0
0,59,72,30
0,69,22,4
0,50,86,8
0,71,93,4
0,55,72,12
0,35,108,2
0,42,82,0
0,31,100,6
0,55,86,4
0,50,72,30
0,69,16,4
0,55,72,42
0,42,62,2
0,59,79,4
0,62,73,0
0,67,74,0
