track,note,velocity,time
0,77,92,0
0,65,115,0
0,69,107,0
0,81,99,0
0,65,104,100
0,77,92,8
0,81,103,0
0,69,111,12
0,81,92,72
0,38,127,0
0,84,95,4
0,72,97,4
0,69,99,0
0,84,108,80
0,38,127,0
0,48,109,0
0,72,107,4
0,69,99,0
0,81,95,0
0,81,103,60
0,38,127,0
0,45,100,0
0,89,99,4
0,72,97,4
0,77,97,0
0,36,127,72
0,60,94,0
0,67,103,0
0,76,104,0
0,72,108,0
0,42,102,0
0,36,127,0
0,79,104,4
0,76,107,0
0,91,108,0
0,88,108,0
0,49,113,0
0,67,110,72
0,72,111,0
0,42,73,0
0,76,105,4
0,60,104,0
0,77,95,20
0,74,97,0
0,42,97,8
0,38,127,0
0,70,87,0
0,86,108,4
0,89,108,0
0,70,78,12
0,72,97,36
0,36,127,4
0,42,90,0
0,36,127,4
0,72,97,0
0,76,90,0
0,67,100,0
0,60,90,0
0,84,103,0
0,88,103,0
0,76,102,4
0,36,127,92
0,42,99,0
0,36,127,4
0,72,95,0
0,76,90,0
0,67,101,0
0,60,90,0
0,76,102,84
0,42,79,0
0,67,108,4
0,72,106,0
0,60,99,0
0,38,127,132
0,42,102,0
0,36,127,60
0,44,82,0
0,72,84,4
0,60,85,0
0,76,86,0
0,67,89,0
0,36,127,92
0,67,101,0
0,60,94,0
0,72,98,0
0,76,90,0
0,36,127,0
0,42,93,0
0,70,89,4
0,70,77,12
0,67,101,44
0,60,94,0
0,42,72,0
0,72,104,4
0,76,100,0
0,70,89,0
0,42,93,136
0,38,127,4
0,70,81,0
0,65,97,68
0,70,98,16
0,74,94,0
0,36,127,24
0,42,85,0
0,34,127,4
0,65,76,0
0,70,87,0
0,74,90,0
0,58,91,0
0,82,95,0
0,70,84,0
0,86,95,4
0,70,91,0
0,36,127,40
0,42,102,0
0,34,127,4
0,65,93,0
0,70,95,0
0,58,100,0
0,74,97,0
0,70,89,0
0,70,100,4
0,74,92,0
0,82,99,0
0,86,108,0
0,70,78,0
0,72,89,20
0,70,107,8
0,42,81,0
0,58,102,4
0,74,100,0
0,65,90,0
0,88,99,0
0,84,99,0
0,70,89,0
0,76,85,8
0,38,127,80
0,42,106,0
0,84,103,4
0,88,103,0
0,70,87,0
0,76,99,8
0,72,115,0
0,34,127,20
0,44,91,0
0,65,85,4
0,89,92,0
0,86,87,0
0,70,81,0
0,77,104,8
0,74,102,0
0,70,75,12
0,36,127,56
0,29,127,4
0,69,101,0
0,77,102,0
0,65,89,0
0,60,80,0
0,42,93,0
0,70,98,0
0,65,99,4
0,82,99,0
0,86,108,0
0,74,104,16
0,70,111,0
0,70,67,8
0,65,96,40
0,60,93,0
0,42,78,0
0,69,101,4
0,77,105,0
0,70,83,0
0,72,87,40
0,69,88,0
0,38,127,16
0,42,95,0
0,81,99,4
0,84,103,0
0,70,83,0
0,29,127,100
0,36,127,0
0,42,87,0
0,60,86,4
0,65,89,0
0,77,95,0
0,69,94,0
0,81,108,0
0,70,83,0
0,69,89,4
0,72,89,0
0,84,113,0
0,70,74,0
0,36,127,52
0,42,97,0
0,29,127,4
0,65,97,0
0,69,101,0
0,60,94,0
0,77,108,0
0,70,87,0
0,70,82,0
0,65,105,52
0,69,110,0
0,42,83,0
0,77,115,4
0,60,102,0
0,70,89,0
0,38,127,132
0,42,99,0
0,33,127,0
0,70,83,0
0,36,127,12
0,42,80,0
0,69,90,0
0,65,94,0
0,60,92,0
0,77,100,0
0,70,84,0
0,70,79,0
0,62,64,8
0,36,127,32
0,38,127,4
0,65,105,0
0,77,103,0
0,69,97,0
0,62,94,0
0,42,102,0
0,70,87,0
0,70,81,0
0,69,113,44
0,77,111,0
0,42,78,0
0,65,105,4
0,62,99,0
0,70,89,0
0,38,127,136
0,42,97,0
0,70,84,0
0,69,107,100
0,65,104,0
0,42,91,4
0,36,127,0
0,38,127,4
0,65,102,0
0,69,94,0
0,77,100,0
0,62,86,0
0,70,84,0
0,77,92,4
0,81,90,0
0,70,70,8
0,69,111,36
0,65,102,0
0,42,102,4
0,36,127,0
0,38,127,4
0,69,101,0
0,77,105,0
0,65,103,0
0,62,94,0
0,70,91,0
0,77,92,4
0,81,108,0
0,70,76,4
0,67,102,48
0,70,111,0
0,65,104,4
0,42,86,0
0,77,115,4
0,62,100,0
0,69,113,0
0,82,99,0
0,79,87,0
0,70,87,0
0,38,127,92
0,42,102,0
0,70,84,0
0,67,104,4
0,79,92,0
0,82,103,0
0,70,111,4
0,72,95,28
0,69,120,0
0,29,127,8
0,44,93,0
0,65,92,4
0,77,105,0
0,69,94,0
0,62,90,0
0,81,92,0
0,70,78,0
0,84,82,4
0,70,71,0
0,70,115,40
0,62,86,0
0,55,81,0
0,74,107,0
0,36,127,0
0,31,127,4
0,74,101,0
0,67,106,0
0,70,97,0
0,62,98,0
0,42,99,0
0,82,103,4
0,86,103,0
0,70,78,0
0,70,73,0
0,70,97,4
0,42,78,0
0,74,101,4
0,67,108,0
0,62,103,0
0,70,91,0
0,72,92,28
0,69,104,0
0,38,127,8
0,42,97,0
0,70,85,0
0,84,83,4
0,81,87,0
0,67,99,48
0,70,100,0
0,42,92,4
0,36,127,0
0,31,127,4
0,67,101,0
0,70,91,0
0,62,96,0
0,74,96,0
0,70,82,0
0,79,95,4
0,82,109,0
0,70,64,0
0,42,97,44
0,36,127,0
0,31,127,4
0,67,101,0
0,62,100,0
0,70,95,0
0,74,97,0
0,70,83,0
0,70,78,0
0,67,110,56
0,42,82,0
0,62,106,4
0,74,104,0
0,70,106,0
0,70,89,0
0,38,127,92
0,42,102,0
0,70,87,0
0,31,127,92
0,42,82,0
0,70,93,4
0,62,89,0
0,67,93,0
0,74,93,0
0,70,77,0
0,70,74,0
0,36,127,32
0,34,127,4
0,62,101,0
0,70,109,0
0,74,104,0
0,65,103,0
0,42,99,0
0,70,89,0
0,65,99,4
0,70,121,0
0,86,92,0
0,82,103,0
0,74,107,4
0,70,77,0
0,42,79,0
0,70,110,4
0,74,111,0
0,62,105,0
0,65,111,0
0,70,87,0
0,77,104,92
0,74,102,0
0,38,127,12
0,42,97,0
0,70,87,0
0,86,83,4
0,89,90,0
0,67,111,48
0,76,95,0
0,72,111,0
0,36,127,4
0,42,90,0
0,36,127,4
0,76,104,0
0,72,115,0
0,67,123,0
0,60,111,0
0,70,81,0
0,88,87,4
0,84,99,0
0,70,72,20
0,42,99,40
0,36,127,0
0,70,87,4
0,70,78,28
0,67,110,56
0,72,111,0
0,42,79,0
0,76,105,4
0,60,101,0
0,70,83,0
0,70,115,20
0,79,102,0
0,38,127,4
0,42,102,0
0,70,87,0
0,82,103,4
0,91,99,0
0,36,127,68
0,44,91,0
0,67,94,4
0,60,88,0
0,72,89,0
0,76,79,0
0,70,76,0
0,70,79,12
0,72,89,12
0,36,127,8
0,29,127,4
0,69,102,0
0,77,105,0
0,65,102,0
0,60,96,0
0,42,102,0
0,81,103,4
0,89,103,0
0,70,84,0
0,69,90,4
0,77,86,0
0,70,72,8
0,65,100,28
0,69,100,0
0,42,72,0
0,77,105,4
0,60,92,0
0,70,82,0
0,38,127,136
0,42,93,0
0,70,82,4
0,36,127,104
0,42,84,0
0,29,127,4
0,77,101,0
0,69,90,0
0,65,94,0
0,60,89,0
0,70,81,0
0,70,70,12
0,36,127,28
0,42,99,0
0,29,127,4
0,77,108,0
0,69,103,0
0,65,101,0
0,60,98,0
0,70,83,0
0,70,71,8
0,42,82,44
0,70,76,0
0,74,89,88
0,70,100,0
0,38,127,4
0,42,106,0
0,34,127,4
0,65,110,0
0,62,102,0
0,74,106,0
0,70,110,0
0,70,70,0
0,65,89,16
0,44,89,108
0,70,72,0
0,70,67,16
0,72,69,20
0,69,70,12
0,36,127,8
0,29,127,4
0,77,98,0
0,69,87,0
0,65,89,0
0,42,99,0
0,60,86,4
0,70,78,0
0,70,68,8
0,69,102,40
0,77,106,0
0,42,74,0
0,65,98,4
0,60,89,0
0,70,73,0
0,42,97,144
0,38,127,0
0,70,73,4
0,60,127,0
0,29,127,116
0,36,127,0
0,42,82,0
0,60,89,4
0,69,94,0
0,65,88,0
0,77,104,0
0,70,72,0
0,48,70,0
0,70,64,0
0,65,90,16
0,36,127,12
0,34,127,4
0,74,103,0
0,65,106,0
0,70,108,0
0,62,101,0
0,42,97,0
0,70,71,0
0,74,85,4
0,72,113,0
0,48,95,0
0,70,94,4
0,62,127,16
0,70,68,20
0,38,127,32
0,42,84,0
0,70,72,0
0,77,103,4
0,45,80,0
0,60,72,60
0,42,114,8
0,38,127,0
0,36,127,4
0,76,98,0
0,72,103,0
0,67,111,0
0,60,100,0
0,70,75,0
0,45,95,0
0,79,126,4
0,67,89,4
0,64,80,0
0,72,95,0
0,60,127,72
0,44,90,0
0,70,70,0
0,84,108,4
0,41,87,0
0,36,127,52
0,29,127,4
0,69,86,0
0,65,95,0
0,77,88,0
0,60,86,0
0,42,99,0
0,81,113,4
0,49,62,0
0,57,127,24
0,65,73,8
0,57,74,12
0,69,102,108
0,65,97,0
0,42,74,0
0,77,105,4
0,60,90,0
0,60,73,72
0,37,127,72
0,42,92,0
0,36,127,8
0,42,89,0
0,29,127,4
0,77,94,0
0,69,86,0
0,65,87,0
0,60,86,0
0,36,127,100
0,42,89,0
0,29,127,4
0,65,87,0
0,69,81,0
0,77,85,0
0,60,83,0
0,65,90,92
0,42,72,0
0,77,97,4
0,69,92,0
0,60,83,0
0,57,127,84
0,38,127,40
0,42,99,0
0,55,127,12
0,65,82,76
0,42,71,0
0,77,82,4
0,69,73,0
0,60,81,0
0,36,127,100
0,29,127,4
0,77,89,0
0,69,83,0
0,65,85,0
0,60,78,0
0,42,93,0
0,57,127,8
0,65,87,104
0,42,71,0
0,69,92,4
0,77,99,0
0,60,86,0
0,37,127,144
0,42,91,0
0,36,127,120
0,42,82,0
0,29,127,4
0,77,85,0
0,69,79,0
0,65,85,0
0,60,85,0
0,60,127,40
0,42,92,88
0,36,127,0
0,29,127,4
0,65,87,0
0,60,88,0
0,69,89,0
0,77,101,0
0,42,80,16
0,65,89,0
0,62,92,0
0,62,127,8
0,58,107,4
0,34,127,4
0,38,127,0
0,42,95,0
0,65,98,4
0,70,96,0
0,62,93,0
0,74,101,0
0,42,85,116
0,36,127,60
0,36,127,4
0,67,101,0
0,72,93,0
0,76,84,0
0,60,90,0
0,42,93,0
0,60,127,4
0,64,72,4
0,60,77,0
0,55,84,20
0,67,94,100
0,42,76,0
0,72,88,4
0,76,88,0
0,60,85,0
0,37,127,132
0,42,92,0
0,36,127,24
0,42,90,0
0,36,127,4
0,72,90,0
0,76,85,0
0,67,97,0
0,60,90,0
0,55,127,4
0,42,95,100
0,36,127,0
0,36,127,4
0,72,81,0
0,76,80,0
0,67,86,0
0,60,78,0
0,76,85,96
0,42,76,0
0,67,90,4
0,72,89,0
0,60,84,0
0,84,103,12
0,38,127,0
0,42,97,0
0,31,127,12
0,44,87,0
0,67,90,4
0,72,90,0
0,76,85,0
0,60,83,0
0,79,103,0
0,36,127,12
0,36,127,4
0,42,97,0
0,67,88,72
0,42,74,0
0,72,88,4
0,76,87,0
0,60,83,0
0,37,127,144
0,42,93,0
0,58,127,8
0,36,127,132
0,42,91,0
0,36,127,4
0,72,87,0
0,76,84,0
0,67,93,0
0,60,85,0
0,36,127,104
0,36,127,4
0,72,89,0
0,76,85,0
0,67,90,0
0,60,83,0
0,42,97,0
0,60,127,8
0,76,88,112
0,42,82,0
0,67,91,4
0,72,92,0
0,60,82,0
0,38,127,0
0,42,102,0
0,67,92,8
0,44,97,0
0,58,127,4
0,76,86,0
0,72,88,0
0,60,84,0
0,55,127,20
0,36,127,4
0,36,127,0
0,42,99,0
0,67,90,104
0,42,77,0
0,76,88,4
0,72,89,0
0,60,88,0
0,37,127,132
0,42,95,0
0,36,127,128
0,36,127,0
0,42,86,0
0,72,90,4
0,76,88,0
0,67,88,0
0,60,83,0
0,36,127,112
0,42,102,0
0,36,127,4
0,67,90,0
0,72,85,0
0,76,80,0
0,60,81,0
0,76,87,96
0,72,91,0
0,42,78,0
0,67,91,4
0,60,84,0
0,53,127,124
0,38,127,28
0,42,99,0
0,31,127,40
0,42,83,0
0,76,78,4
0,72,76,0
0,67,82,0
0,60,79,0
0,55,127,60
0,36,127,16
0,36,127,4
0,42,97,0
0,76,85,120
0,42,82,0
0,72,87,4
0,67,94,0
0,60,84,0
0,37,127,136
0,42,97,0
0,60,127,20
0,36,127,0
0,42,93,0
0,36,127,4
0,72,89,0
0,76,86,0
0,67,94,0
0,60,83,0
0,42,97,100
0,36,127,0
0,36,127,4
0,67,81,0
0,76,80,0
0,72,80,0
0,60,77,0
0,76,88,104
0,42,81,0
0,72,92,4
0,67,89,0
0,60,83,0
0,58,127,8
0,38,127,8
0,42,95,0
0,36,127,100
0,44,87,0
0,67,85,4
0,72,82,0
0,76,82,0
0,60,78,0
0,53,81,4
0,36,127,0
0,29,127,4
0,69,90,0
0,77,93,0
0,65,98,0
0,60,80,0
0,42,95,0
0,60,74,4
0,57,127,0
0,65,74,4
0,57,78,0
0,69,108,108
0,77,110,0
0,42,77,0
0,65,101,4
0,60,97,0
0,37,127,144
0,42,93,0
0,36,127,132
0,42,90,0
0,29,127,4
0,65,95,0
0,77,97,0
0,69,87,0
0,60,89,0
0,36,127,104
0,42,99,0
0,29,127,4
0,65,94,0
0,69,88,0
0,77,94,0
0,60,89,0
0,65,88,108
0,42,78,0
0,60,88,4
0,69,92,0
0,77,98,0
0,62,85,8
0,58,81,4
0,38,127,4
0,42,102,0
0,34,127,4
0,65,115,0
0,70,112,0
0,62,103,0
0,74,106,0
0,79,103,0
0,42,81,24
0,60,76,12
0,57,74,0
0,36,127,4
0,42,95,0
0,29,127,4
0,69,90,0
0,65,91,0
0,60,87,0
0,77,92,0
0,81,108,0
0,60,97,92
0,42,78,0
0,65,99,4
0,77,108,0
0,69,102,0
0,60,127,120
0,37,127,12
0,42,92,0
0,36,127,108
0,42,90,0
0,29,127,4
0,69,95,0
0,77,103,0
0,60,98,0
0,65,96,0
0,53,99,8
0,62,90,0
0,62,127,12
0,36,127,4
0,34,127,4
0,65,108,0
0,62,101,0
0,74,104,0
0,70,109,0
0,42,97,0
0,58,100,4
0,42,84,116
0,55,111,28
0,64,90,0
0,60,102,0
0,38,127,12
0,42,102,0
0,36,127,0
0,67,106,0
0,76,93,0
0,72,105,0
0,60,98,0
0,60,127,16
0,44,97,132
0,36,127,12
0,42,97,0
0,29,127,4
0,77,87,0
0,65,90,0
0,69,84,0
0,60,86,0
0,60,85,8
0,57,81,0
0,53,88,0
0,65,86,4
0,57,127,24
0,65,88,88
0,42,77,0
0,69,94,4
0,77,96,0
0,60,89,0
0,37,127,136
0,42,92,0
0,29,127,132
0,42,90,0
0,36,127,0
0,69,82,4
0,77,87,0
0,65,92,0
0,60,90,0
0,42,97,88
0,29,127,4
0,77,89,0
0,69,84,0
0,65,89,0
0,60,82,0
0,36,127,0
0,77,95,104
0,42,83,0
0,65,93,4
0,69,92,0
0,60,86,0
0,38,127,148
0,42,97,0
0,55,127,4
0,77,83,120
0,42,85,0
0,69,77,4
0,65,85,0
0,60,80,0
0,36,127,100
0,29,127,4
0,69,85,0
0,77,91,0
0,65,89,0
0,42,95,0
0,57,127,4
0,60,84,0
0,69,101,108
0,42,85,0
0,65,96,4
0,77,101,0
0,60,90,0
0,37,127,148
0,42,92,0
0,36,127,0
0,42,93,0
0,29,127,4
0,65,87,0
0,60,84,0
0,77,90,0
0,69,85,0
0,60,127,4
0,36,127,100
0,42,99,0
0,29,127,4
0,69,83,0
0,65,85,0
0,77,87,0
0,65,95,116
0,69,97,0
0,42,86,0
0,77,101,4
0,60,88,0
0,42,97,0
0,38,127,0
0,65,127,4
0,29,127,24
0,44,97,0
0,65,93,4
0,60,94,0
0,69,93,0
0,77,102,0
0,58,72,8
0,53,83,0
0,36,127,20
