track,note,velocity,time
0,38,127,1344
0,38,127,54
0,36,127,30
0,42,91,0
0,73,127,2
0,37,127,0
0,65,127,2
0,85,107,0
0,77,96,0
0,68,101,0
0,65,100,2
0,61,122,0
0,73,106,0
0,65,110,0
0,73,127,0
0,49,105,0
0,70,83,0
0,37,127,22
0,42,62,0
0,73,127,2
0,61,127,0
0,68,101,0
0,73,107,0
0,61,118,2
0,65,101,0
0,70,60,0
0,73,116,30
0,61,127,0
0,42,73,0
0,36,127,26
0,38,127,0
0,73,111,2
0,34,127,0
0,61,127,0
0,42,83,0
0,70,80,2
0,72,115,8
0,32,127,4
0,42,60,0
0,72,127,2
0,65,127,0
0,84,96,0
0,73,116,2
0,61,127,0
0,77,94,0
0,68,106,0
0,65,103,2
0,73,108,0
0,61,113,0
0,70,58,2
0,42,62,10
0,36,127,32
0,42,87,0
0,37,127,2
0,70,76,0
0,42,59,0
0,73,120,2
0,61,127,0
0,61,118,0
0,68,108,0
0,65,109,2
0,73,113,0
0,70,54,0
0,42,64,26
0,36,127,38
0,38,127,0
0,42,83,0
0,65,127,2
0,34,127,0
0,70,127,2
0,82,107,0
0,77,94,0
0,70,113,2
0,58,127,0
0,70,80,0
0,70,116,6
0,68,106,28
0,32,127,0
0,56,127,0
0,42,63,0
0,73,105,2
0,68,103,0
0,65,101,2
0,61,115,0
0,70,65,0
0,42,67,12
0,70,74,0
0,36,127,14
0,37,127,2
0,42,87,0
0,73,127,2
0,65,127,0
0,85,113,0
0,77,99,0
0,68,102,2
0,73,103,0
0,61,111,0
0,65,99,2
0,70,72,0
0,73,127,4
0,37,127,56
0,42,48,0
0,73,113,2
0,61,127,0
0,61,108,0
0,68,107,0
0,73,106,2
0,65,103,0
0,70,50,0
0,73,109,36
0,61,127,0
0,42,67,0
0,36,127,24
0,38,127,0
0,42,78,0
0,73,107,2
0,34,127,0
0,61,127,0
0,70,78,2
0,32,127,36
0,42,53,0
0,65,127,2
0,72,127,0
0,84,124,0
0,77,112,0
0,73,106,2
0,61,127,0
0,68,106,0
0,61,107,2
0,73,106,0
0,65,101,0
0,70,55,2
0,72,120,4
0,42,66,16
0,36,127,12
0,37,127,2
0,42,78,0
0,70,74,0
0,73,106,70
0,61,127,0
0,42,57,0
0,68,105,2
0,61,111,0
0,65,101,0
0,73,106,0
0,70,62,2
0,42,66,16
0,36,127,24
0,38,127,0
0,34,127,2
0,42,83,0
0,65,127,2
0,70,127,0
0,82,113,0
0,77,94,0
0,70,109,2
0,58,127,0
0,70,80,0
0,70,120,10
0,32,127,44
0,42,56,0
0,68,104,2
0,56,127,0
0,68,102,0
0,65,98,2
0,73,102,0
0,61,108,0
0,70,71,2
0,42,63,14
0,70,78,0
0,36,127,24
0,37,127,2
0,42,80,0
0,73,127,2
0,65,127,0
0,85,113,0
0,77,96,2
0,61,102,0
0,73,101,0
0,68,101,0
0,65,96,2
0,70,73,0
0,73,127,8
0,37,127,56
0,42,53,0
0,73,120,2
0,61,127,0
0,73,109,0
0,68,111,0
0,61,118,2
0,65,107,0
0,70,66,0
0,73,103,36
0,61,127,0
0,42,61,0
0,36,127,24
0,38,127,0
0,73,100,2
0,34,127,0
0,61,127,0
0,42,80,0
0,70,80,2
0,32,127,44
0,42,59,0
0,72,127,2
0,65,127,0
0,73,111,2
0,61,127,0
0,84,103,0
0,77,99,0
0,68,105,2
0,65,100,0
0,61,109,0
0,73,107,0
0,72,120,2
0,70,60,0
0,42,61,12
0,37,127,46
0,36,127,0
0,42,78,0
0,70,74,0
0,73,106,62
0,61,127,0
0,42,64,0
0,68,108,2
0,65,100,0
0,61,113,0
0,73,108,0
0,70,55,2
0,42,68,14
0,36,127,2
0,38,127,0
0,42,74,0
0,65,127,2
0,70,127,0
0,34,127,0
0,82,120,0
0,68,87,2
0,56,127,0
0,77,94,0
0,70,74,2
0,70,111,4
0,42,70,28
0,32,127,8
0,44,78,0
0,73,99,2
0,61,127,0
0,61,108,0
0,68,99,2
0,65,94,0
0,73,100,0
0,70,70,0
0,70,72,4
0,63,127,22
0,32,127,0
0,36,127,0
0,42,76,0
0,66,127,2
0,78,99,0
0,75,95,0
0,68,103,2
0,72,102,0
0,63,107,2
0,70,74,0
0,68,113,4
0,63,99,2
0,60,98,2
0,42,57,68
0,68,116,2
0,32,127,0
0,56,127,0
0,63,115,0
0,68,108,2
0,72,107,0
0,70,67,0
0,42,60,28
0,68,103,2
0,56,127,0
0,36,127,22
0,38,127,0
0,29,127,2
0,42,76,0
0,68,105,2
0,56,127,0
0,70,80,0
0,27,127,12
0,42,53,0
0,68,113,2
0,56,127,0
0,63,115,0
0,68,106,2
0,72,105,0
0,70,60,0
0,42,61,8
0,36,127,8
0,32,127,2
0,42,74,0
0,70,80,0
0,68,116,44
0,56,127,0
0,42,58,0
0,63,113,2
0,68,106,0
0,72,105,0
0,41,122,2
0,70,63,0
0,42,66,0
0,36,127,40
0,38,127,0
0,65,107,2
0,29,127,0
0,53,127,0
0,42,80,0
0,70,80,2
0,27,127,28
0,42,59,0
0,63,116,2
0,51,127,0
0,68,106,0
0,72,102,0
0,63,108,2
0,70,78,0
0,42,60,4
0,70,83,0
0,36,127,20
0,32,127,2
0,42,80,0
0,63,127,2
0,72,127,0
0,75,107,0
0,84,112,0
0,63,107,2
0,68,98,0
0,72,98,0
0,70,87,2
0,63,127,4
0,72,127,0
0,32,127,56
0,42,55,0
0,68,124,2
0,56,127,0
0,63,115,0
0,68,105,0
0,72,102,2
0,70,67,0
0,68,106,8
0,56,127,0
0,42,66,0
0,36,127,12
0,38,127,0
0,68,98,2
0,29,127,0
0,56,127,0
0,42,76,0
0,70,87,2
0,42,59,12
0,70,127,2
0,61,127,0
0,27,127,0
0,82,95,0
0,68,111,2
0,56,127,0
0,73,107,0
0,68,103,2
0,72,100,0
0,63,108,0
0,70,127,2
0,61,127,0
0,70,59,0
0,42,65,12
0,36,127,12
0,32,127,2
0,42,78,0
0,70,78,2
0,68,116,16
0,56,127,0
0,42,61,0
0,68,102,2
0,63,103,0
0,72,100,0
0,70,63,2
0,42,62,20
0,36,127,8
0,38,127,0
0,60,127,2
0,27,127,0
0,42,80,0
0,68,127,2
0,80,95,0
0,72,103,0
0,65,108,2
0,53,127,0
0,70,78,0
0,60,117,10
0,68,127,4
0,42,61,0
0,63,116,2
0,29,127,0
0,51,127,0
0,63,113,2
0,68,102,0
0,72,100,0
0,70,72,0
0,42,60,28
0,70,76,0
0,36,127,8
0,32,127,2
0,42,78,0
0,58,127,2
0,66,127,0
0,70,99,0
0,78,92,0
0,68,87,2
0,63,88,0
0,72,88,0
0,58,124,2
0,70,71,0
0,66,127,20
0,32,127,64
0,42,61,0
0,68,111,2
0,56,127,0
0,68,106,0
0,72,102,2
0,63,118,0
0,70,66,0
0,68,103,20
0,56,127,0
0,42,62,0
0,38,127,12
0,36,127,0
0,68,101,2
0,29,127,0
0,56,127,0
0,42,80,0
0,70,78,2
0,27,127,36
0,42,62,0
0,56,127,2
0,65,127,0
0,68,107,2
0,56,127,0
0,77,86,0
0,68,107,0
0,63,115,0
0,68,106,2
0,72,101,0
0,70,71,0
0,56,127,6
0,65,120,4
0,42,65,4
0,36,127,44
0,32,127,2
0,42,76,0
0,70,74,0
0,42,58,0
0,68,111,2
0,56,127,0
0,63,109,0
0,68,103,0
0,72,102,2
0,70,73,0
0,42,71,0
0,38,127,24
0,36,127,0
0,54,127,2
0,34,127,0
0,42,83,0
0,63,127,2
0,75,88,0
0,66,107,0
0,65,102,2
0,53,127,0
0,70,74,0
0,63,120,2
0,54,116,0
0,70,67,8
0,32,127,20
0,42,64,0
0,68,107,2
0,56,127,0
0,63,109,0
0,68,98,2
0,72,95,0
0,70,71,0
0,42,70,20
0,70,74,0
0,36,127,44
0,53,127,2
0,37,127,0
0,42,80,0
0,61,127,2
0,73,103,0
0,65,103,2
0,61,109,0
0,73,95,0
0,68,99,0
0,65,93,2
0,70,73,0
0,56,100,12
0,61,116,0
0,53,84,2
0,37,127,54
0,42,64,0
0,73,111,2
0,61,127,0
0,61,113,0
0,68,105,0
0,73,106,2
0,65,102,0
0,70,64,0
0,42,67,44
0,73,100,2
0,61,127,0
0,36,127,32
0,38,127,0
0,73,106,2
0,34,127,0
0,61,127,0
0,42,74,0
0,70,76,2
0,32,127,12
0,42,66,0
0,73,109,2
0,61,127,0
0,73,105,0
0,65,101,2
0,61,105,0
0,68,106,0
0,70,59,0
0,42,68,0
0,36,127,36
0,37,127,2
0,42,80,0
0,70,67,0
0,42,54,44
0,77,126,0
0,68,127,0
0,73,100,0
0,61,127,0
0,61,109,0
0,68,105,2
0,73,106,0
0,65,98,0
0,70,63,2
0,42,65,4
0,36,127,32
0,38,127,0
0,75,126,2
0,34,127,0
0,42,83,0
0,66,115,2
0,70,106,0
0,58,127,0
0,70,68,0
0,32,127,4
0,42,60,0
0,73,110,2
0,65,121,0
0,68,109,2
0,56,127,0
0,61,107,0
0,68,101,0
0,73,105,2
0,65,96,0
0,70,72,0
0,42,67,0
0,70,74,2
0,36,127,24
0,37,127,2
0,42,76,0
0,61,101,2
0,73,100,0
0,68,97,0
0,65,91,2
0,70,72,0
0,42,67,32
0,73,106,2
0,37,127,0
0,61,127,0
0,61,111,0
0,68,109,0
0,73,109,2
0,65,104,0
0,70,67,0
0,42,71,20
0,73,99,2
0,61,127,0
0,38,127,12
0,36,127,0
0,34,127,2
0,42,74,0
0,73,104,2
0,61,127,0
0,70,76,0
0,32,127,24
0,42,70,0
0,56,122,2
0,65,109,0
0,73,116,2
0,61,127,0
0,68,108,0
0,65,101,0
0,73,106,2
0,61,106,0
0,70,70,0
0,42,68,0
0,36,127,20
0,42,73,0
0,65,116,2
0,37,127,0
0,56,122,2
0,61,62,0
0,70,74,2
0,70,72,0
0,42,73,0
0,58,113,2
0,66,115,0
0,73,113,0
0,37,127,0
0,61,127,0
0,61,101,2
0,68,101,0
0,65,98,2
0,73,105,0
0,48,110,0
0,70,72,2
0,42,68,4
0,36,127,8
0,38,127,0
0,54,106,2
0,34,127,0
0,42,76,0
0,63,117,2
0,70,105,0
0,58,127,0
0,45,101,0
0,70,71,2
0,42,71,12
0,38,127,8
0,44,80,0
0,56,112,2
0,65,105,0
0,32,127,0
0,68,106,2
0,56,127,0
0,68,94,0
0,61,107,2
0,65,93,0
0,73,100,0
0,45,105,0
0,70,67,2
0,38,127,16
0,41,89,0
0,70,70,2
0,61,100,12
0,56,105,0
0,65,100,2
0,61,107,20
0,37,127,0
0,36,127,0
0,42,78,0
0,53,96,2
0,61,105,0
0,68,93,0
0,65,89,2
0,73,91,0
0,49,105,0
0,56,127,0
0,70,72,0
0,42,54,44
0,73,113,2
0,37,127,0
0,61,127,0
0,68,99,0
0,61,109,2
0,65,100,0
0,73,103,0
0,70,59,0
0,73,95,16
0,61,127,0
0,37,127,24
0,36,127,0
0,34,127,2
0,42,80,0
0,70,67,2
0,61,127,4
0,32,127,16
0,42,41,0
0,73,103,2
0,61,127,0
0,68,99,0
0,65,97,2
0,73,102,0
0,61,105,0
0,70,61,0
0,61,127,12
0,36,127,24
0,37,127,2
0,42,80,0
0,70,62,0
0,73,113,68
0,61,127,0
0,42,52,0
0,61,102,2
0,68,98,0
0,65,98,0
0,73,102,2
0,70,62,0
0,36,127,52
0,38,127,0
0,70,98,2
0,34,127,0
0,58,127,0
0,42,80,0
0,70,68,2
0,65,127,16
0,42,61,0
0,68,103,2
0,32,127,0
0,56,127,0
0,68,98,0
0,73,105,2
0,61,100,0
0,65,100,0
0,70,62,2
0,42,66,10
0,70,58,0
0,36,127,32
0,37,127,2
0,42,73,0
0,61,101,2
0,68,92,0
0,65,87,0
0,73,94,0
0,70,65,2
0,65,127,2
0,37,127,56
0,42,48,0
0,73,116,2
0,61,127,0
0,61,109,0
0,68,100,2
0,73,103,0
0,65,99,0
0,70,62,2
0,73,100,24
0,61,127,0
0,68,127,12
0,36,127,8
0,37,127,0
0,73,98,2
0,32,127,0
0,61,127,0
0,42,83,0
0,70,66,2
0,70,63,10
0,42,57,36
0,73,107,2
0,37,127,0
0,61,127,0
0,68,99,0
0,61,108,0
0,73,101,2
0,65,96,0
0,70,65,0
0,68,127,2
0,36,127,110
0,42,83,2
0,70,62,0
0,37,127,68
0,42,45,0
0,73,107,2
0,61,127,0
0,65,98,0
0,73,101,0
0,68,99,2
0,61,106,0
0,70,66,0
0,36,127,24
0,38,127,0
0,70,99,2
0,34,127,0
0,58,127,0
0,42,74,0
0,70,67,2
0,42,61,0
0,68,105,2
0,32,127,0
0,56,127,0
0,61,109,0
0,73,98,2
0,68,94,0
0,65,88,0
0,70,67,2
0,42,65,16
0,70,59,0
0,36,127,12
0,37,127,2
0,42,68,0
0,61,96,2
0,68,95,0
0,73,99,0
0,65,89,0
0,70,64,2
0,65,127,6
0,37,127,56
0,42,57,0
0,73,116,2
0,61,127,0
0,61,111,0
0,73,103,2
0,68,101,0
0,65,99,0
0,70,67,2
0,65,127,6
0,73,100,20
0,61,127,0
0,36,127,12
0,73,103,2
0,34,127,0
0,61,127,0
0,37,127,0
0,42,80,0
0,70,66,2
0,70,67,28
0,32,127,12
0,42,59,0
0,73,100,2
0,61,127,0
0,61,107,0
0,65,98,2
0,68,99,0
0,73,102,0
0,70,67,0
0,68,127,8
0,36,127,36
0,37,127,2
0,42,80,0
0,70,59,0
0,73,105,56
0,61,127,0
0,42,51,0
0,65,95,2
0,68,98,0
0,73,101,0
0,61,105,2
0,70,70,0
0,36,127,12
0,38,127,0
0,61,127,2
0,34,127,0
0,42,72,0
0,70,97,2
0,58,127,0
0,70,66,0
0,68,94,38
0,56,127,0
0,32,127,22
0,42,55,0
0,70,101,2
0,58,127,0
0,68,92,0
0,65,87,0
0,73,97,2
0,61,106,0
0,70,66,0
0,42,58,4
0,70,60,0
0,36,127,28
0,32,127,2
0,63,95,0
0,42,71,0
0,68,90,2
0,72,89,0
0,70,64,2
0,63,103,2
0,63,127,0
0,56,107,2
0,60,110,0
0,32,127,64
0,42,59,0
0,68,120,2
0,56,127,0
0,72,105,0
0,68,102,0
0,63,109,2
0,70,66,0
0,68,101,8
0,56,127,0
0,36,127,24
0,37,127,0
0,68,101,2
0,29,127,0
0,56,127,0
0,42,80,0
0,70,65,2
0,70,62,28
0,42,59,0
0,68,113,2
0,27,127,0
0,56,127,0
0,72,105,0
0,68,100,2
0,63,101,0
0,70,68,0
0,60,127,16
0,68,127,0
0,36,127,92
0,42,71,0
0,32,127,2
0,70,59,0
0,68,96,80
0,56,127,0
0,42,66,0
0,68,102,2
0,63,103,0
0,72,103,0
0,70,65,2
0,60,127,16
0,68,127,0
0,36,127,28
0,38,127,0
0,29,127,2
0,42,72,0
0,63,100,2
0,51,127,0
0,70,72,0
0,70,127,4
0,61,127,2
0,42,70,0
0,44,76,0
0,65,99,2
0,27,127,0
0,53,127,0
0,68,99,0
0,63,105,2
0,72,103,0
0,70,63,0
0,70,60,32
0,72,127,40
0,36,127,4
0,32,127,2
0,63,94,0
0,42,67,0
0,68,94,2
0,72,98,0
0,70,64,2
0,56,127,0
0,63,127,0
0,72,127,8
0,63,127,60
0,42,64,4
0,68,99,2
0,32,127,0
0,56,127,0
0,63,108,0
0,72,109,0
0,68,98,2
0,70,67,0
0,72,127,12
0,68,103,8
0,56,127,0
0,63,127,28
0,36,127,4
0,37,127,0
0,27,127,2
0,42,78,0
0,72,127,2
0,68,97,0
0,56,127,0
0,70,65,0
0,60,127,16
0,63,127,0
0,70,66,4
0,72,127,4
0,63,127,44
0,32,127,8
0,42,54,0
0,68,103,2
0,56,127,0
0,72,102,0
0,68,96,2
0,63,100,0
0,70,68,0
0,60,127,0
0,72,127,0
0,36,127,42
0,42,71,0
0,70,58,2
0,32,127,68
0,42,65,0
0,68,100,2
0,56,127,0
0,63,98,0
0,68,105,0
0,72,105,2
0,70,67,0
0,42,67,4
0,38,127,12
