track,note,velocity,time
1,61,96,0
1,62,96,50
1,61,96,2
1,61,96,2
1,62,96,2
1,61,96,2
1,61,96,2
1,62,96,2
1,61,96,2
1,61,96,2
1,61,96,2
1,60,96,2
1,61,96,2
1,61,96,2
1,61,96,2
1,61,96,2
1,62,96,50
1,61,96,2
1,61,96,2
1,62,96,2
1,61,96,2
1,61,96,2
1,62,96,2
1,61,96,2
1,61,96,2
1,61,96,2
1,60,96,2
1,61,96,2
1,61,96,2
1,61,96,2
1,61,96,1538
1,62,96,50
1,61,96,2
1,61,96,2
1,62,96,2
1,61,96,2
1,61,96,2
1,62,96,2
1,61,96,2
1,61,96,2
1,61,96,2
1,60,96,2
1,61,96,2
1,61,96,2
1,61,96,2
1,61,96,2
1,62,96,50
1,61,96,2
1,61,96,2
1,62,96,2
1,61,96,2
1,61,96,2
1,62,96,2
1,61,96,2
1,61,96,2
1,61,96,2
1,60,96,2
1,61,96,2
1,61,96,2
1,61,96,2
1,61,96,1538
1,62,96,50
1,61,96,2
1,61,96,2
1,62,96,2
1,61,96,2
1,61,96,2
1,62,96,2
1,61,96,2
1,61,96,2
1,61,96,2
1,60,96,2
1,61,96,2
1,61,96,2
1,61,96,2
1,61,96,2
1,62,96,50
1,61,96,2
1,61,96,2
1,62,96,2
1,61,96,2
1,61,96,2
1,62,96,2
1,61,96,2
1,61,96,2
1,61,96,2
1,60,96,2
1,61,96,2
1,61,96,2
1,61,96,2
1,61,96,2
1,62,96,50
1,61,96,2
1,61,96,2
1,62,96,2
1,61,96,2
1,61,96,2
1,61,96,1538
1,62,96,50
1,61,96,2
1,61,96,2
1,62,96,2
1,61,96,2
1,61,96,2
1,62,96,2
1,61,96,2
1,61,96,2
1,61,96,2
1,60,96,2
1,61,96,2
1,61,96,2
1,61,96,2
1,61,96,2
1,62,96,50
1,61,96,2
1,61,96,2
1,62,96,2
1,61,96,2
1,61,96,2
1,62,96,2
1,61,96,2
1,61,96,2
1,61,96,2
1,60,96,2
1,61,96,2
1,61,96,2
1,61,96,2
1,62,96,2
1,61,96,2
1,61,96,2
1,61,96,2
1,60,96,2
1,61,96,2
1,61,96,2
1,61,96,2
1,61,96,1538
1,62,96,50
1,61,96,2
1,61,96,2
1,62,96,2
1,61,96,2
1,61,96,2
1,62,96,2
1,61,96,2
1,61,96,2
1,61,96,2
1,60,96,2
1,61,96,2
1,61,96,2
1,61,96,2
1,61,96,2
1,62,96,50
1,61,96,2
1,61,96,2
1,62,96,2
1,61,96,2
1,61,96,2
1,62,96,2
1,61,96,2
1,61,96,2
1,61,96,2
1,60,96,2
1,61,96,2
1,61,96,2
1,61,96,2
1,61,96,1538
1,62,96,50
1,61,96,2
1,61,96,2
1,62,96,2
1,61,96,2
1,61,96,2
1,62,96,2
1,61,96,2
1,61,96,2
1,61,96,2
1,60,96,2
1,61,96,2
1,61,96,2
1,61,96,2
1,61,96,2
1,62,96,50
1,61,96,2
1,61,96,2
1,62,96,2
1,61,96,2
1,61,96,2
1,61,96,1538
1,62,96,50
1,61,96,2
1,61,96,2
1,62,96,2
1,61,96,2
1,61,96,2
1,62,96,2
1,61,96,2
1,61,96,2
1,61,96,2
1,60,96,2
1,61,96,2
1,61,96,2
1,61,96,2
1,61,96,2
1,62,96,50
1,61,96,2
1,61,96,2
1,62,96,2
1,61,96,2
1,61,96,2
1,61,96,1538
1,62,96,50
1,61,96,2
1,61,96,2
1,62,96,2
1,61,96,2
1,61,96,2
1,62,96,2
1,61,96,2
1,61,96,2
1,61,96,2
1,60,96,2
1,61,96,2
1,61,96,2
1,61,96,2
1,61,96,2
1,62,96,50
1,61,96,2
1,61,96,2
1,62,96,2
1,61,96,2
1,61,96,2
1,62,96,2
1,61,96,2
1,61,96,2
1,61,96,2
1,60,96,2
1,61,96,2
1,61,96,2
1,61,96,2
1,61,96,1538
1,62,96,50
1,61,96,2
1,61,96,2
1,62,96,2
1,61,96,2
1,61,96,2
1,62,96,2
1,61,96,2
1,61,96,2
1,61,96,2
1,60,96,2
1,61,96,2
1,61,96,2
1,61,96,2
1,61,96,2
1,62,96,50
1,61,96,2
1,61,96,2
1,62,96,2
1,61,96,2
1,61,96,2
1,62,96,2
1,61,96,2
1,61,96,2
1,61,96,2
1,60,96,2
1,61,96,2
1,61,96,2
1,61,96,2
1,61,96,1538
1,62,96,50
1,61,96,2
1,61,96,2
1,62,96,2
1,61,96,2
1,61,96,2
1,62,96,2
1,61,96,2
1,61,96,2
1,61,96,2
1,60,96,2
1,61,96,2
1,61,96,2
1,61,96,2
1,61,96,2
1,62,96,50
1,61,96,2
1,61,96,2
1,62,96,2
1,61,96,2
1,61,96,2
1,62,96,2
1,61,96,2
1,61,96,2
1,61,96,2
1,60,96,2
1,61,96,2
1,61,96,2
1,61,96,2
2,59,96,1536
2,60,96,50
2,59,96,2
2,59,96,2
2,60,96,2
2,59,96,2
2,59,96,2
2,60,96,2
2,59,96,2
2,59,96,2
2,59,96,2
2,58,96,2
2,59,96,2
2,59,96,2
2,59,96,2
2,59,96,2
2,60,96,50
2,59,96,2
2,59,96,2
2,60,96,2
2,59,96,2
2,59,96,2
2,60,96,2
2,59,96,2
2,59,96,2
2,59,96,2
2,58,96,2
2,59,96,2
2,59,96,2
2,59,96,2
2,59,96,1538
2,60,96,50
2,59,96,2
2,59,96,2
2,60,96,2
2,59,96,2
2,59,96,2
2,60,96,2
2,59,96,2
2,59,96,2
2,59,96,2
2,58,96,2
2,59,96,2
2,59,96,2
2,59,96,2
2,59,96,2
2,60,96,50
2,59,96,2
2,59,96,2
2,60,96,2
2,59,96,2
2,59,96,2
2,60,96,2
2,59,96,2
2,59,96,2
2,59,96,2
2,58,96,2
2,59,96,2
2,59,96,2
2,59,96,2
2,59,96,1922
2,60,96,50
2,59,96,2
2,59,96,2
2,60,96,2
2,59,96,2
2,59,96,2
2,60,96,2
2,59,96,2
2,59,96,2
2,59,96,2
2,58,96,2
2,59,96,2
2,59,96,2
2,59,96,2
2,59,96,2
2,60,96,50
2,59,96,2
2,59,96,2
2,60,96,2
2,59,96,2
2,59,96,2
2,60,96,2
2,59,96,2
2,59,96,2
2,59,96,2
2,58,96,2
2,59,96,2
2,59,96,2
2,59,96,2
2,59,96,1922
2,60,96,50
2,59,96,2
2,59,96,2
2,60,96,2
2,59,96,2
2,59,96,2
2,60,96,2
2,59,96,2
2,59,96,2
2,59,96,2
2,58,96,2
2,59,96,2
2,59,96,2
2,59,96,2
2,59,96,2
2,60,96,50
2,59,96,2
2,59,96,2
2,60,96,2
2,59,96,2
2,59,96,2
2,60,96,2
2,59,96,2
2,59,96,2
2,59,96,2
2,58,96,2
2,59,96,2
2,59,96,2
2,59,96,2
2,59,96,1538
2,60,96,50
2,59,96,2
2,59,96,2
2,60,96,2
2,59,96,2
2,59,96,2
2,60,96,2
2,59,96,2
2,59,96,2
2,59,96,2
2,58,96,2
2,59,96,2
2,59,96,2
2,59,96,2
2,59,96,2
2,60,96,50
2,59,96,2
2,59,96,2
2,60,96,2
2,59,96,2
2,59,96,2
2,60,96,2
2,59,96,2
2,59,96,2
2,59,96,2
2,58,96,2
2,59,96,2
2,59,96,2
2,59,96,2
2,59,96,1154
2,60,96,50
2,59,96,2
2,59,96,2
2,60,96,2
2,59,96,2
2,59,96,2
2,60,96,2
2,59,96,2
2,59,96,2
2,59,96,2
2,58,96,2
2,59,96,2
2,59,96,2
2,59,96,2
2,59,96,2
2,60,96,50
2,59,96,2
2,59,96,2
2,60,96,2
2,59,96,2
2,59,96,2
2,60,96,2
2,59,96,2
2,59,96,2
2,59,96,2
2,58,96,2
2,59,96,2
2,59,96,2
2,59,96,2
2,59,96,1154
2,60,96,50
2,59,96,2
2,59,96,2
2,60,96,2
2,59,96,2
2,59,96,2
2,60,96,2
2,59,96,2
2,59,96,2
2,59,96,2
2,58,96,2
2,59,96,2
2,59,96,2
2,59,96,2
2,59,96,2
2,60,96,50
2,59,96,2
2,59,96,2
2,60,96,2
2,59,96,2
2,59,96,2
2,60,96,2
2,59,96,2
2,59,96,2
2,59,96,2
2,58,96,2
2,59,96,2
2,59,96,2
2,59,96,2
2,59,96,1538
2,60,96,50
2,59,96,2
2,59,96,2
2,60,96,2
2,59,96,2
2,59,96,2
2,60,96,2
2,59,96,2
2,59,96,2
2,59,96,2
2,58,96,2
2,59,96,2
2,59,96,2
2,59,96,2
2,59,96,2
2,60,96,50
2,59,96,2
2,59,96,2
2,60,96,2
2,59,96,2
2,59,96,2
2,60,96,2
2,59,96,2
2,59,96,2
2,59,96,2
2,58,96,2
2,59,96,2
2,59,96,2
2,59,96,2
2,59,96,1538
2,60,96,50
2,59,96,2
2,59,96,2
2,60,96,2
2,59,96,2
2,59,96,2
2,60,96,2
2,59,96,2
2,59,96,2
2,59,96,2
2,58,96,2
2,59,96,2
2,59,96,2
2,59,96,2
2,59,96,2
2,60,96,50
2,59,96,2
2,59,96,2
2,60,96,2
2,59,96,2
2,59,96,2
2,60,96,2
2,59,96,2
2,59,96,2
2,59,96,2
2,58,96,2
2,59,96,2
2,59,96,2
2,59,96,2
3,42,116,0
3,42,116,2
3,42,116,290
3,42,116,2
3,42,116,290
3,42,116,2
3,42,116,98
3,42,116,2
3,42,116,98
3,42,116,2
3,40,116,290
3,40,116,2
3,40,116,290
3,40,116,2
3,40,116,290
3,40,116,2
3,40,116,98
3,40,116,2
3,40,116,98
3,40,116,2
3,42,116,290
3,42,116,2
3,42,116,290
3,42,116,2
3,42,116,290
3,42,116,2
3,42,116,98
3,42,116,2
3,42,116,98
3,42,116,2
3,43,116,290
3,43,116,2
3,43,116,290
3,43,116,2
3,43,116,290
3,43,116,2
3,43,116,98
3,43,116,2
3,43,116,98
3,43,116,2
3,42,116,290
3,42,116,2
3,42,116,290
3,42,116,2
3,42,116,290
3,42,116,2
3,42,116,98
3,42,116,2
3,42,116,98
3,42,116,2
3,42,116,290
3,42,116,2
3,40,116,290
3,40,116,2
3,40,116,290
3,40,116,2
3,40,116,290
3,40,116,2
3,40,116,98
3,40,116,2
3,40,116,98
3,40,116,2
3,42,116,290
3,42,116,2
3,42,116,290
3,42,116,2
3,42,116,290
3,42,116,2
3,42,116,98
3,42,116,2
3,42,116,98
3,42,116,2
3,42,116,290
3,42,116,2
3,43,116,290
3,43,116,2
3,43,116,290
3,43,116,2
3,43,116,290
3,43,116,2
3,43,116,98
3,43,116,2
3,43,116,98
3,43,116,2
3,42,116,290
3,42,116,2
3,42,116,290
3,42,116,2
3,42,116,290
3,42,116,2
3,42,116,98
3,42,116,2
3,42,116,98
3,42,116,2
3,40,116,290
3,40,116,2
3,40,116,290
3,40,116,2
3,40,116,290
3,40,116,2
3,40,116,98
3,40,116,2
3,40,116,98
3,40,116,2
3,42,116,290
3,42,116,2
3,42,116,290
3,42,116,2
3,42,116,290
3,42,116,2
3,42,116,98
3,42,116,2
3,43,116,98
3,43,116,2
3,43,116,290
3,43,116,2
3,43,116,290
3,43,116,2
3,43,116,98
3,43,116,2
3,43,116,98
3,43,116,2
3,42,116,290
3,42,116,2
3,42,116,290
3,42,116,2
3,42,116,290
3,42,116,2
3,42,116,98
3,42,116,2
3,40,116,98
3,40,116,2
3,40,116,290
3,40,116,2
3,40,116,290
3,40,116,2
3,40,116,98
3,40,116,2
3,40,116,98
3,40,116,2
3,42,116,290
3,42,116,2
3,42,116,290
3,42,116,2
3,42,116,290
3,42,116,2
3,42,116,98
3,42,116,2
3,42,116,98
3,42,116,2
3,43,116,290
3,43,116,2
3,43,116,290
3,43,116,2
3,43,116,290
3,43,116,2
3,43,116,98
3,43,116,2
3,43,116,98
3,43,116,2
3,42,116,290
3,42,116,2
3,42,116,290
3,42,116,2
3,42,116,290
3,42,116,2
3,42,116,98
3,42,116,2
3,42,116,98
3,42,116,2
3,43,116,290
3,43,116,2
3,43,116,290
3,43,116,2
3,43,116,290
3,43,116,2
3,43,116,98
3,43,116,2
3,43,116,98
3,43,116,2
4,66,116,6144
4,67,116,2
4,66,116,2
4,73,116,2
4,78,116,194
4,79,116,96
4,78,116,2
4,73,116,2
4,66,116,146
4,67,116,2
4,66,116,2
4,73,116,2
4,78,116,96
4,76,116,2
4,66,116,962
4,67,116,2
4,66,116,2
4,73,116,2
4,78,116,194
4,79,116,2
4,78,116,2
4,73,116,2
4,66,116,146
4,67,116,2
4,66,116,2
4,73,116,2
4,78,116,96
4,79,116,2
4,66,116,3842
4,67,116,2
4,66,116,2
4,73,116,2
4,78,116,2
4,79,116,2
4,78,116,2
4,73,116,2
4,66,116,2
4,67,116,2
4,66,116,2
4,73,116,2
4,78,116,2
4,76,116,2
4,66,116,770
4,67,116,2
4,66,116,2
4,73,116,2
4,78,116,2
4,79,116,2
4,78,116,2
4,73,116,2
4,66,116,2
4,67,116,2
4,66,116,2
4,73,116,2
4,78,116,50
4,79,116,2
4,76,116,674
4,78,116,50
4,66,116,5378
4,67,116,288
4,66,116,26
4,73,116,34
4,79,116,144
4,78,116,24
5,60,116,1392
6,36,116,3072
6,36,116,2
6,36,116,290
6,36,116,2
6,36,116,290
6,36,116,2
6,36,116,98
6,36,116,2
6,36,116,98
6,36,116,2
6,36,116,290
6,36,116,2
6,36,116,290
6,36,116,2
6,36,116,290
6,36,116,2
6,36,116,98
6,36,116,2
6,36,116,98
6,36,116,2
6,36,116,290
6,36,116,2
6,36,116,290
6,36,116,2
6,36,116,290
6,36,116,2
6,36,116,98
6,36,116,2
6,36,116,98
6,36,116,2
6,36,116,290
6,36,116,2
6,36,116,290
6,36,116,2
6,36,116,290
6,36,116,2
6,36,116,290
6,36,116,2
6,36,116,290
6,36,116,2
6,36,116,98
6,36,116,2
6,36,116,98
6,36,116,2
6,36,116,290
6,36,116,2
6,36,116,290
6,36,116,2
6,36,116,98
6,36,116,2
6,36,116,98
6,36,116,2
6,36,116,290
6,36,116,2
6,36,116,290
6,36,116,2
6,36,116,290
6,36,116,2
6,36,116,290
6,36,116,2
6,36,116,290
6,36,116,2
6,36,116,98
6,36,116,2
6,36,116,98
6,36,116,2
6,36,116,290
6,36,116,2
6,36,116,290
6,36,116,2
6,36,116,98
6,36,116,2
6,36,116,98
6,36,116,2
6,36,116,290
6,36,116,2
6,36,116,290
6,36,116,2
6,36,116,290
6,36,116,2
6,36,116,98
6,36,116,2
6,36,116,98
6,36,116,2
6,36,116,290
6,36,116,2
6,36,116,290
6,36,116,2
6,36,116,290
6,36,116,2
6,36,116,98
6,36,116,2
6,36,116,98
6,36,116,2
6,36,116,290
6,36,116,2
6,36,116,290
6,36,116,2
6,36,116,98
6,36,116,2
6,36,116,98
6,36,116,2
6,36,116,290
6,36,116,2
6,36,116,290
6,36,116,2
6,36,116,290
6,36,116,2
6,36,116,98
6,36,116,2
6,36,116,98
6,36,116,2
6,36,116,290
6,36,116,2
6,36,116,290
6,36,116,2
6,36,116,98
6,36,116,2
6,36,116,98
6,36,116,2
6,36,116,290
6,36,116,2
6,36,116,290
6,36,116,2
6,36,116,290
6,36,116,2
6,36,116,98
6,36,116,2
6,36,116,98
6,36,116,2
6,36,116,290
6,36,116,2
6,36,116,290
6,36,116,2
6,36,116,290
6,36,116,2
6,36,116,98
6,36,116,2
6,36,116,98
6,36,116,2
6,36,116,290
6,36,116,2
6,36,116,290
6,36,116,2
6,36,116,290
6,36,116,2
6,36,116,98
6,36,116,2
6,36,116,98
6,36,116,2
6,36,116,290
6,36,116,2
6,36,116,290
6,36,116,2
6,36,116,290
6,36,116,2
6,36,116,98
6,36,116,2
6,36,116,98
6,36,116,2
6,36,116,290
6,36,116,2
6,36,116,290
6,36,116,2
6,36,116,290
6,36,116,2
6,36,116,98
6,36,116,2
6,36,116,98
6,36,116,2
7,66,86,12288
7,67,86,2
7,66,86,48
7,63,86,2
7,66,86,2
7,67,86,2
7,66,86,48
7,63,86,2
7,66,86,2
7,67,86,2
7,66,86,48
7,63,86,2
7,66,86,2
7,66,86,50
7,66,86,48
8,38,116,3264
