track,note,velocity,time
1,41,83,7178
1,38,109,24
1,38,106,70
1,38,109,70
1,38,106,72
1,38,112,84
1,38,103,78
1,38,112,78
1,38,103,80
1,38,112,84
1,38,106,70
1,38,106,84
1,38,103,84
1,38,103,82
1,38,109,84
1,38,106,84
1,38,88,78
1,34,97,82
1,34,97,94
1,34,100,102
1,34,100,94
1,34,100,94
1,34,100,96
1,34,100,92
1,34,100,94
1,36,103,82
1,36,100,80
1,36,109,68
1,36,103,76
1,36,100,74
1,36,103,82
1,36,94,74
1,36,103,86
1,38,106,76
1,38,97,60
1,38,109,74
1,38,106,82
1,38,106,80
1,38,100,74
1,38,109,80
1,38,97,74
1,38,100,82
1,38,97,78
1,38,103,74
1,38,103,84
1,38,88,76
1,38,100,82
1,38,94,68
1,38,97,78
1,34,97,76
1,34,94,92
1,34,97,98
1,34,97,94
1,34,97,96
1,34,97,88
1,34,100,86
1,34,100,84
1,36,106,96
1,36,103,76
1,36,100,76
1,36,100,68
1,36,100,66
1,36,97,70
1,36,100,76
1,36,100,84
1,38,106,66
1,38,97,74
1,38,103,74
1,38,97,76
1,38,100,76
1,38,94,84
1,38,106,74
1,38,97,80
1,38,100,70
1,38,97,86
1,38,91,78
1,38,97,88
1,38,97,68
1,38,97,72
1,38,91,60
1,38,94,64
1,34,94,72
1,34,100,98
1,34,97,80
1,34,97,94
1,34,97,90
1,34,100,96
1,34,100,96
1,34,97,90
1,36,94,78
1,36,97,78
1,36,97,72
1,36,94,74
1,36,100,74
1,36,100,82
1,36,100,84
1,36,100,84
1,38,97,82
1,38,100,80
1,38,97,74
1,38,97,78
1,38,106,70
1,38,94,78
1,38,106,66
1,38,100,80
1,38,100,74
1,38,94,82
1,38,106,78
1,38,97,80
1,38,94,72
1,38,103,80
1,38,91,76
1,38,94,62
1,34,94,52
1,34,100,84
1,34,94,82
1,34,100,98
1,34,91,88
1,34,97,86
1,34,88,88
1,34,100,84
1,36,91,90
1,36,94,84
1,36,100,78
1,36,94,86
1,36,94,78
1,36,94,78
1,36,94,80
1,36,97,88
1,38,112,80
1,38,97,0
1,38,100,82
1,38,103,68
1,38,103,60
1,38,106,76
1,38,97,64
1,38,109,64
1,38,100,82
1,38,103,76
1,38,97,68
1,34,94,64
1,36,109,46
1,36,106,226
1,36,112,202
1,38,109,42
1,38,100,66
1,38,97,72
1,38,91,70
1,38,112,66
1,38,103,72
1,38,109,72
1,38,100,88
1,38,112,64
1,38,94,72
1,38,109,76
1,38,100,70
1,38,106,68
1,38,100,78
1,38,103,74
1,38,103,68
1,34,100,54
1,34,100,94
1,34,103,96
1,34,103,92
1,34,100,98
1,34,103,94
1,34,100,98
1,34,97,84
1,36,100,82
1,36,91,78
1,36,91,66
1,36,103,76
1,36,100,74
1,36,94,74
1,36,100,72
1,33,103,82
1,38,103,70
1,38,100,68
1,38,106,72
1,38,100,78
1,38,109,76
1,38,97,82
1,38,106,76
1,38,100,78
1,38,100,80
1,38,103,80
1,38,97,78
1,38,97,76
1,38,94,82
1,38,103,82
1,38,106,72
1,38,100,76
1,34,97,32
1,34,97,90
1,34,97,96
1,34,97,86
1,34,100,96
1,34,97,88
1,34,97,98
1,34,97,94
1,36,100,84
1,36,97,82
1,36,100,74
1,36,97,84
1,36,94,74
1,36,91,84
1,36,97,74
1,33,94,78
1,38,97,74
1,38,94,82
1,38,97,74
1,38,97,72
1,38,94,72
1,38,94,80
1,38,100,72
1,38,91,84
1,38,97,72
1,38,100,66
1,38,97,78
1,38,97,66
1,38,100,82
1,38,94,78
1,38,94,68
1,38,94,72
1,34,94,72
1,34,100,98
1,34,97,90
1,34,97,84
1,34,94,82
1,34,100,92
1,34,91,88
1,34,94,96
1,36,97,86
1,36,97,90
1,36,97,86
1,36,100,86
1,36,97,74
1,36,97,86
1,36,97,88
1,33,88,88
1,38,100,78
1,38,97,74
1,38,103,76
1,38,94,76
1,38,109,64
1,38,94,82
1,38,100,82
1,38,91,78
1,38,100,80
1,38,97,76
1,38,103,78
1,38,85,82
1,38,103,66
1,38,91,80
1,38,91,72
1,38,94,76
1,34,97,56
1,36,112,1328
1,36,112,218
1,34,86,50
1,36,85,1532
1,38,88,1538
1,36,86,2242
1,34,88,4
1,36,85,1496
1,31,88,1520
1,33,88,1520
1,34,82,18
1,36,83,1536
1,38,88,2
1,36,83,2304
1,34,85,2
1,34,83,2
1,34,81,2
1,34,83,2
1,34,83,2
1,34,82,2
1,34,83,2
1,34,86,2
1,34,82,2
1,34,82,2
1,34,88,2
1,34,88,2
1,34,88,2
1,34,88,2
1,34,89,2
1,34,86,2
1,33,91,2
1,33,92,2
1,33,97,2
1,33,98,2
1,33,99,2
1,33,100,2
1,33,98,2
1,33,101,2
1,33,104,2
1,34,106,258
1,38,109,850
1,38,106,70
1,38,109,70
1,38,106,72
1,38,112,84
1,38,103,78
1,38,112,78
1,38,103,80
1,38,112,84
1,38,106,70
1,38,106,84
1,38,103,84
1,38,103,82
1,38,109,84
1,38,106,84
1,38,88,78
1,34,97,82
1,34,97,94
1,34,100,102
1,34,100,94
1,34,100,94
1,34,100,96
1,34,100,92
1,34,100,94
1,36,103,82
1,36,100,80
1,36,109,68
1,36,103,76
1,36,100,74
1,36,103,82
1,36,94,74
1,36,103,86
1,38,106,76
1,38,97,60
1,38,109,74
1,38,106,82
1,38,106,80
1,38,100,74
1,38,109,80
1,38,97,74
1,38,100,82
1,38,97,78
1,38,103,74
1,38,103,84
1,38,88,76
1,38,100,82
1,38,94,68
1,38,97,78
1,34,97,76
1,34,94,92
1,34,97,98
1,34,97,94
1,34,97,96
1,34,97,88
1,34,100,86
1,34,100,84
1,36,106,96
1,36,103,76
1,36,100,76
1,36,100,68
1,36,100,66
1,36,97,70
1,36,100,76
1,36,100,84
1,38,109,66
1,38,100,66
1,38,97,72
1,38,91,70
1,38,112,66
1,38,103,72
1,38,109,72
1,38,100,88
1,38,112,64
1,38,94,72
1,38,109,76
1,38,100,70
1,38,106,68
1,38,100,78
1,38,103,74
1,38,103,68
1,34,100,54
1,34,100,94
1,34,103,96
1,34,103,92
1,34,100,98
1,34,103,94
1,34,100,98
1,34,97,84
1,36,100,82
1,36,91,78
1,36,91,66
1,36,103,76
1,36,100,74
1,36,94,74
1,36,100,72
1,33,103,82
1,38,103,70
1,38,100,68
1,38,106,72
1,38,100,78
1,38,109,76
1,38,97,82
1,38,106,76
1,38,100,78
1,38,100,80
1,38,103,80
1,38,97,78
1,38,97,76
1,38,94,82
1,38,103,82
1,38,106,72
1,38,100,76
1,34,97,32
1,34,97,90
1,34,97,96
1,34,97,86
1,34,100,96
1,34,97,88
1,34,97,98
1,34,97,94
1,36,100,84
1,36,97,82
1,36,100,74
1,36,97,84
1,36,94,74
1,36,91,84
1,36,97,74
1,33,94,78
1,38,97,74
1,38,94,82
1,38,97,74
1,38,97,72
1,38,94,72
1,38,94,80
1,38,100,72
1,38,91,84
1,38,97,72
1,38,100,66
1,38,97,78
1,38,97,66
1,38,100,82
1,38,94,78
1,38,94,68
1,38,94,72
1,34,94,72
1,34,100,98
1,34,97,90
1,34,97,84
1,34,94,82
1,34,100,92
1,34,91,88
1,34,94,96
1,36,97,86
1,36,97,90
1,36,97,86
1,36,100,86
1,36,97,74
1,36,97,86
1,36,97,88
1,33,88,88
1,38,100,78
1,38,97,74
1,38,103,76
1,38,94,76
1,38,109,64
1,38,94,82
1,38,100,82
1,38,91,78
1,38,100,80
1,38,97,76
1,38,103,78
1,38,85,82
1,38,103,66
1,38,91,80
1,38,91,72
1,38,94,76
1,34,97,56
1,36,112,1328
1,36,112,218
1,34,86,50
1,36,85,1532
1,38,88,1538
1,36,86,2242
1,34,88,4
1,36,85,1496
1,31,88,1520
1,33,88,1520
1,34,82,18
1,36,83,1536
1,38,88,2
1,36,83,2304
1,34,85,2
1,34,83,2
1,34,81,2
1,34,83,2
1,34,83,2
1,34,82,2
1,34,83,2
1,34,86,2
1,34,82,2
1,34,82,2
1,34,88,2
1,34,88,2
1,34,88,2
1,34,88,2
1,34,89,2
1,34,86,2
1,33,91,2
1,33,92,2
1,33,97,2
1,33,98,2
1,33,99,2
1,33,100,2
1,33,98,2
1,33,101,2
1,33,104,2
1,34,106,258
1,38,109,850
1,38,106,70
1,38,109,70
1,38,106,72
1,38,112,84
1,38,103,78
1,38,112,78
1,38,103,80
1,38,112,84
1,38,106,70
1,38,106,84
1,38,103,84
1,38,103,82
1,38,109,84
1,38,106,84
1,38,88,78
1,34,97,82
1,34,97,94
1,34,100,102
1,34,100,94
1,34,100,94
1,34,100,96
1,34,100,92
1,34,100,94
1,36,103,82
1,36,100,80
1,36,109,68
1,36,103,76
1,36,100,74
1,36,103,82
1,36,94,74
1,36,103,86
1,38,106,76
1,38,97,60
1,38,109,74
1,38,106,82
1,38,106,80
1,38,100,74
1,38,109,80
1,38,97,74
1,38,100,82
1,38,97,78
1,38,103,74
1,38,103,84
1,38,88,76
1,38,100,82
1,38,94,68
1,38,97,78
1,34,97,76
1,34,94,92
1,34,97,98
1,34,97,94
1,34,97,96
1,34,97,88
1,34,100,86
1,34,100,84
1,36,106,96
1,36,103,76
1,36,100,76
1,36,100,68
1,36,100,66
1,36,97,70
1,36,100,76
1,36,100,84
1,34,69,66
1,34,58,18982
1,34,65,2
1,34,73,2
1,34,77,2
1,34,78,2
1,33,88,2
1,33,89,2
1,33,94,2
1,33,95,2
1,33,96,2
1,33,97,2
1,33,95,2
1,33,98,2
1,33,101,2
1,34,118,258
1,34,113,74
1,34,118,82
1,34,115,76
1,34,115,66
1,34,118,60
1,34,115,68
1,34,109,68
1,36,118,60
1,36,112,60
1,36,121,64
1,36,118,68
1,36,124,70
1,36,115,66
1,36,118,76
1,36,121,62
1,38,127,76
1,38,112,50
1,38,127,70
1,38,124,56
1,38,124,82
1,38,121,62
1,38,115,82
1,38,118,78
1,38,118,42
1,38,112,58
1,38,112,72
1,38,121,68
1,36,124,74
1,36,118,68
1,36,115,82
1,36,115,74
1,34,118,80
1,34,115,68
1,34,115,84
1,34,121,88
1,34,115,94
1,34,124,94
1,34,118,80
1,34,124,92
1,36,118,102
1,36,118,74
1,36,124,72
1,36,121,72
1,36,121,80
1,36,124,76
1,36,121,82
1,36,121,70
1,31,121,66
1,31,124,64
1,31,127,62
1,31,124,72
1,31,127,70
1,31,115,70
1,31,115,64
1,31,121,64
1,33,118,70
1,33,124,64
1,33,127,68
1,33,121,62
1,33,121,66
1,33,124,64
1,33,127,68
1,33,127,60
1,34,115,36
1,34,109,74
1,34,118,82
1,34,115,76
1,34,115,66
1,34,118,60
1,34,115,68
1,34,109,68
1,36,118,60
1,36,112,60
1,36,121,64
1,36,118,68
1,36,124,70
1,36,115,66
1,36,118,76
1,36,121,62
1,38,127,76
1,38,112,50
1,38,127,70
1,38,124,56
1,38,124,82
1,38,121,62
1,38,115,82
1,38,118,78
1,38,118,42
1,38,112,58
1,38,112,72
1,38,121,68
1,36,124,74
1,36,118,68
1,36,115,82
1,36,115,74
1,34,118,80
1,33,127,0
1,34,103,388
1,36,112,848
1,38,115,838
1,38,115,838
1,26,49,2678
1,26,76,2
1,26,69,2
1,26,54,2
1,26,76,2
1,26,60,2
1,26,78,2
1,28,73,2
1,28,67,2
1,28,75,2
1,28,70,2
1,28,73,2
1,29,75,2
1,38,66,2
1,41,57,136
1,43,61,120
1,48,73,2
1,44,52,2
1,45,37,62
1,43,58,526
1,45,42,118
1,43,55,110
1,36,69,222
1,38,69,108
2,50,108,1322
2,57,91,0
2,62,85,0
2,50,106,2
2,57,89,0
2,62,83,0
2,50,108,2
2,57,91,0
2,62,85,0
2,50,106,2
2,57,89,0
2,62,83,0
2,50,106,2
2,57,89,0
2,62,83,0
2,50,106,2
2,57,89,0
2,62,83,0
2,50,106,2
2,57,89,0
2,62,83,0
2,50,106,2
2,57,89,0
2,62,83,0
2,50,100,2
2,57,83,0
2,62,77,0
2,50,103,2
2,57,86,0
2,62,80,0
2,50,105,2
2,57,88,0
2,62,82,0
2,50,100,2
2,57,83,0
2,62,77,0
2,50,104,2
2,57,87,0
2,62,81,0
2,50,103,2
2,57,86,0
2,62,80,0
2,50,101,2
2,57,84,0
2,62,78,0
2,50,103,2
2,57,86,0
2,62,80,0
2,50,105,2
2,57,88,0
2,62,82,0
2,50,103,2
2,57,86,0
2,62,80,0
2,50,106,2
2,57,89,0
2,62,83,0
2,50,102,2
2,57,85,0
2,62,79,0
2,50,106,2
2,57,89,0
2,62,83,0
2,50,101,2
2,57,84,0
2,62,78,0
2,50,107,2
2,57,90,0
2,62,84,0
2,50,103,2
2,57,86,0
2,62,80,0
2,50,106,2
2,57,89,0
2,62,83,0
2,50,103,2
2,57,86,0
2,62,80,0
2,50,106,2
2,57,89,0
2,62,83,0
2,50,104,2
2,57,87,0
2,62,81,0
2,50,107,2
2,57,90,0
2,62,84,0
2,50,102,2
2,57,85,0
2,62,79,0
2,50,105,2
2,57,88,0
2,62,82,0
2,50,104,2
2,57,87,0
2,62,81,0
2,50,108,2
2,57,91,0
2,62,85,0
2,50,106,2
2,57,89,0
2,62,83,0
2,50,108,2
2,57,91,0
2,62,85,0
2,50,106,2
2,57,89,0
2,62,83,0
2,50,106,2
2,57,89,0
2,62,83,0
2,50,106,2
2,57,89,0
2,62,83,0
2,50,106,2
2,57,89,0
2,62,83,0
2,50,106,2
2,57,89,0
2,62,83,0
2,50,100,2
2,57,83,0
2,62,77,0
2,50,103,2
2,57,86,0
2,62,80,0
2,50,105,2
2,57,88,0
2,62,82,0
2,50,100,2
2,57,83,0
2,62,77,0
2,50,104,2
2,57,87,0
2,62,81,0
2,50,103,2
2,57,86,0
2,62,80,0
2,50,101,2
2,57,84,0
2,62,78,0
2,50,103,2
2,57,86,0
2,62,80,0
2,46,105,2
2,53,88,0
2,58,82,0
2,46,103,2
2,53,86,0
2,58,80,0
2,46,106,2
2,53,89,0
2,58,83,0
2,46,102,2
2,53,85,0
2,58,79,0
2,46,106,2
2,53,89,0
2,58,83,0
2,46,101,2
2,53,84,0
2,58,78,0
2,46,107,2
2,53,90,0
2,58,84,0
2,46,103,2
2,53,86,0
2,58,80,0
2,48,106,2
2,55,89,0
2,60,83,0
2,48,103,2
2,55,86,0
2,60,80,0
2,48,106,2
2,55,89,0
2,60,83,0
2,48,104,2
2,55,87,0
2,60,81,0
2,48,107,2
2,55,90,0
2,60,84,0
2,48,102,2
2,55,85,0
2,60,79,0
2,48,105,2
2,55,88,0
2,60,82,0
2,48,104,2
2,55,87,0
2,60,81,0
2,50,108,2
2,57,91,0
2,62,85,0
2,50,106,2
2,57,89,0
2,62,83,0
2,50,108,2
2,57,91,0
2,62,85,0
2,50,106,2
2,57,89,0
2,62,83,0
2,50,106,2
2,57,89,0
2,62,83,0
2,50,106,2
2,57,89,0
2,62,83,0
2,50,106,2
2,57,89,0
2,62,83,0
2,50,106,2
2,57,89,0
2,62,83,0
2,50,100,2
2,57,83,0
2,62,77,0
2,50,103,2
2,57,86,0
2,62,80,0
2,50,105,2
2,57,88,0
2,62,82,0
2,50,100,2
2,57,83,0
2,62,77,0
2,50,104,2
2,57,87,0
2,62,81,0
2,50,103,2
2,57,86,0
2,62,80,0
2,50,101,2
2,57,84,0
2,62,78,0
2,50,103,2
2,57,86,0
2,62,80,0
2,46,105,2
2,53,88,0
2,58,82,0
2,46,103,2
2,53,86,0
2,58,80,0
2,46,106,2
2,53,89,0
2,58,83,0
2,46,102,2
2,53,85,0
2,58,79,0
2,46,106,2
2,53,89,0
2,58,83,0
2,46,101,2
2,53,84,0
2,58,78,0
2,46,107,2
2,53,90,0
2,58,84,0
2,46,103,2
2,53,86,0
2,58,80,0
2,48,106,2
2,55,89,0
2,60,83,0
2,48,103,2
2,55,86,0
2,60,80,0
2,48,106,2
2,55,89,0
2,60,83,0
2,48,104,2
2,55,87,0
2,60,81,0
2,48,107,2
2,55,90,0
2,60,84,0
2,48,102,2
2,55,85,0
