track,note,velocity,time
1,31,100,480
1,31,0,50
1,43,100,10
1,43,0,50
1,41,100,10
1,41,0,50
1,38,100,10
1,38,0,120
1,36,100,0
1,36,0,120
1,32,100,0
1,32,0,60
1,31,100,0
1,31,0,50
1,43,100,10
1,43,0,50
1,41,100,10
1,41,0,50
1,38,100,10
1,38,0,120
1,36,100,0
1,36,0,120
1,32,100,0
1,32,0,60
1,31,100,0
1,31,0,50
1,43,100,10
1,43,0,50
1,41,100,10
1,41,0,50
1,38,100,10
1,38,0,120
1,36,100,0
1,36,0,120
1,32,100,0
1,32,0,60
1,31,100,0
1,31,0,50
1,43,100,10
1,43,0,50
1,41,100,10
1,41,0,50
1,38,100,10
1,38,0,120
1,36,100,0
1,36,0,120
1,32,100,0
1,32,0,60
1,43,100,0
1,43,0,50
1,42,100,10
1,42,0,50
1,40,100,10
1,40,0,60
1,38,100,0
1,38,0,120
1,35,100,0
1,35,0,60
1,31,100,0
1,31,0,60
1,43,100,0
1,43,0,120
1,42,100,0
1,42,0,120
1,38,100,0
1,38,0,120
1,35,100,0
1,35,0,60
1,31,100,0
1,31,0,60
1,38,100,0
1,38,0,25
1,40,100,5
1,40,0,25
1,42,100,5
1,42,0,50
1,40,100,10
1,40,0,50
1,38,100,10
1,38,0,60
1,38,100,0
1,38,0,120
1,33,100,0
1,33,0,60
1,30,100,0
1,30,0,60
1,42,100,0
1,42,0,120
1,40,100,0
1,40,0,120
1,38,100,0
1,38,0,120
1,33,100,0
1,33,0,60
1,30,100,0
1,30,0,120
1,35,100,0
1,35,0,60
1,33,100,0
1,33,0,60
1,31,100,0
1,31,0,60
1,31,100,0
1,31,0,120
1,28,100,0
1,28,0,60
1,31,100,0
1,31,0,60
1,35,100,0
1,35,0,120
1,33,100,0
1,33,0,120
1,31,100,0
1,31,0,120
1,28,100,0
1,28,0,60
1,31,100,0
1,31,0,60
1,33,100,0
1,33,0,60
1,35,100,0
1,35,0,80
1,35,100,40
1,35,0,120
1,35,100,60
1,35,0,60
1,35,100,0
1,35,0,60
1,36,100,0
1,36,0,120
1,35,100,0
1,35,0,120
1,33,100,0
1,33,0,120
1,31,100,0
1,31,0,60
1,33,100,0
1,33,0,60
1,34,100,0
1,34,0,60
1,35,100,0
1,35,0,80
1,35,100,40
1,35,0,120
1,36,100,60
1,36,0,60
1,37,100,0
1,37,0,60
1,38,100,0
1,38,0,120
1,38,100,0
1,38,0,120
1,38,100,0
1,38,0,120
1,38,100,0
1,38,0,50
1,38,100,10
1,38,0,60
1,40,100,0
1,40,0,25
1,42,100,5
1,42,0,25
1,43,100,5
1,43,0,50
1,42,100,10
1,42,0,50
1,40,100,10
1,40,0,60
1,38,100,0
1,38,0,120
1,35,100,0
1,35,0,60
1,31,100,0
1,31,0,60
1,43,100,0
1,43,0,120
1,42,100,0
1,42,0,120
1,38,100,0
1,38,0,120
1,35,100,0
1,35,0,60
1,31,100,0
1,31,0,60
1,38,100,0
1,38,0,25
1,40,100,5
1,40,0,25
1,42,100,5
1,42,0,50
1,40,100,10
1,40,0,50
1,38,100,10
1,38,0,60
1,38,100,0
1,38,0,120
1,33,100,0
1,33,0,60
1,30,100,0
1,30,0,60
1,42,100,0
1,42,0,120
1,40,100,0
1,40,0,120
1,38,100,0
1,38,0,120
1,33,100,0
1,33,0,60
1,30,100,0
1,30,0,120
1,35,100,0
1,35,0,60
1,33,100,0
1,33,0,60
1,31,100,0
1,31,0,60
1,31,100,0
1,31,0,120
1,28,100,0
1,28,0,60
1,31,100,0
1,31,0,60
1,35,100,0
1,35,0,120
1,33,100,0
1,33,0,120
1,31,100,0
1,31,0,120
1,28,100,0
1,28,0,60
1,31,100,0
1,31,0,60
1,33,100,0
1,33,0,60
1,35,100,0
1,35,0,80
1,35,100,40
1,35,0,120
1,35,100,60
1,35,0,60
1,35,100,0
1,35,0,60
1,36,100,0
1,36,0,120
1,35,100,0
1,35,0,120
1,33,100,0
1,33,0,120
1,31,100,0
1,31,0,60
1,33,100,0
1,33,0,60
1,34,100,0
1,34,0,60
1,35,100,0
1,35,0,80
1,35,100,40
1,35,0,120
1,36,100,60
1,36,0,60
1,37,100,0
1,37,0,60
1,38,100,0
1,38,0,120
1,38,100,0
1,38,0,120
1,38,100,0
1,38,0,120
1,38,100,0
1,38,0,50
1,38,100,10
1,38,0,60
1,40,100,0
1,40,0,25
1,42,100,5
1,42,0,25
1,43,100,5
1,43,0,50
1,42,100,10
1,42,0,50
1,40,100,10
1,40,0,60
1,38,100,0
1,38,0,120
1,35,100,0
1,35,0,60
1,31,100,0
1,31,0,60
1,43,100,0
1,43,0,120
1,42,100,0
1,42,0,120
1,38,100,0
1,38,0,120
1,35,100,0
1,35,0,60
1,31,100,0
1,31,0,60
1,38,100,0
1,38,0,25
1,40,100,5
1,40,0,25
1,42,100,5
1,42,0,50
1,40,100,10
1,40,0,50
1,38,100,10
1,38,0,60
1,38,100,0
1,38,0,120
1,33,100,0
1,33,0,60
1,30,100,0
1,30,0,60
1,42,100,0
1,42,0,120
1,40,100,0
1,40,0,120
1,38,100,0
1,38,0,120
1,33,100,0
1,33,0,60
1,30,100,0
1,30,0,120
1,35,100,0
1,35,0,60
1,33,100,0
1,33,0,60
1,31,100,0
1,31,0,60
1,31,100,0
1,31,0,120
1,28,100,0
1,28,0,60
1,31,100,0
1,31,0,60
1,35,100,0
1,35,0,120
1,33,100,0
1,33,0,120
1,31,100,0
1,31,0,120
1,28,100,0
1,28,0,60
1,31,100,0
1,31,0,60
1,33,100,0
1,33,0,60
1,35,100,0
1,35,0,80
1,35,100,40
1,35,0,120
1,35,100,60
1,35,0,60
1,35,100,0
1,35,0,60
1,36,100,0
1,36,0,120
1,35,100,0
1,35,0,120
1,33,100,0
1,33,0,120
1,31,100,0
1,31,0,60
1,33,100,0
1,33,0,60
1,34,100,0
1,34,0,60
1,35,100,0
1,35,0,80
1,35,100,40
1,35,0,120
1,36,100,60
1,36,0,60
1,37,100,0
1,37,0,60
1,38,100,0
1,38,0,120
1,38,100,0
1,38,0,120
1,38,100,0
1,38,0,120
1,38,100,0
1,38,0,50
1,38,100,10
1,38,0,60
1,40,100,0
1,40,0,25
1,42,100,5
1,42,0,25
1,43,100,5
1,43,0,50
1,42,100,10
1,42,0,50
1,40,100,10
1,40,0,60
1,38,100,0
1,38,0,120
1,35,100,0
1,35,0,60
1,31,100,0
1,31,0,60
1,43,100,0
1,43,0,120
1,42,100,0
1,42,0,120
1,38,100,0
1,38,0,120
1,35,100,0
1,35,0,60
1,31,100,0
1,31,0,60
1,38,100,0
1,38,0,25
1,40,100,5
1,40,0,25
1,42,100,5
1,42,0,50
1,40,100,10
1,40,0,50
1,38,100,10
1,38,0,60
1,38,100,0
1,38,0,120
1,33,100,0
1,33,0,60
1,30,100,0
1,30,0,60
1,42,100,0
1,42,0,120
1,40,100,0
1,40,0,120
1,38,100,0
1,38,0,120
1,33,100,0
1,33,0,60
1,30,100,0
1,30,0,120
1,35,100,0
1,35,0,60
1,33,100,0
1,33,0,60
1,31,100,0
1,31,0,60
1,31,100,0
1,31,0,120
1,28,100,0
1,28,0,60
1,31,100,0
1,31,0,60
1,35,100,0
1,35,0,120
1,33,100,0
1,33,0,120
1,31,100,0
1,31,0,120
1,28,100,0
1,28,0,60
1,31,100,0
1,31,0,60
1,33,100,0
1,33,0,60
1,35,100,0
1,35,0,80
1,35,100,40
1,35,0,120
1,35,100,60
1,35,0,60
1,35,100,0
1,35,0,60
1,36,100,0
1,36,0,120
1,35,100,0
1,35,0,120
1,33,100,0
1,33,0,120
1,31,100,0
1,31,0,60
1,33,100,0
1,33,0,60
1,34,100,0
1,34,0,60
1,35,100,0
1,35,0,80
1,35,100,40
1,35,0,120
1,36,100,60
1,36,0,60
1,37,100,0
1,37,0,60
1,38,100,0
1,38,0,120
1,38,100,0
1,38,0,120
1,38,100,0
1,38,0,120
1,38,100,0
1,38,0,50
1,38,100,10
1,38,0,60
1,40,100,0
1,40,0,25
1,42,100,5
1,42,0,25
1,43,100,5
1,43,0,50
1,42,100,10
1,42,0,50
1,40,100,10
1,40,0,60
1,38,100,0
1,38,0,120
1,35,100,0
1,35,0,60
1,31,100,0
1,31,0,60
1,43,100,0
1,43,0,120
1,42,100,0
1,42,0,120
1,38,100,0
1,38,0,120
1,35,100,0
1,35,0,60
1,31,100,0
1,31,0,60
1,38,100,0
1,38,0,25
1,40,100,5
1,40,0,25
1,42,100,5
1,42,0,50
1,40,100,10
1,40,0,50
1,38,100,10
1,38,0,60
1,38,100,0
1,38,0,120
1,33,100,0
1,33,0,60
1,30,100,0
1,30,0,60
1,42,100,0
1,42,0,120
1,40,100,0
1,40,0,120
1,38,100,0
1,38,0,120
1,33,100,0
1,33,0,60
1,30,100,0
1,30,0,120
1,35,100,0
1,35,0,60
1,33,100,0
1,33,0,60
1,31,100,0
1,31,0,60
1,31,100,0
1,31,0,120
1,28,100,0
1,28,0,60
1,31,100,0
1,31,0,60
1,35,100,0
1,35,0,120
1,33,100,0
1,33,0,120
1,31,100,0
1,31,0,120
1,28,100,0
1,28,0,60
1,31,100,0
1,31,0,60
1,33,100,0
1,33,0,60
1,31,100,0
1,31,0,50
1,43,100,10
1,43,0,50
1,41,100,10
1,41,0,50
1,38,100,10
1,38,0,120
1,36,100,0
1,36,0,120
1,32,100,0
1,32,0,60
1,31,100,0
1,31,0,50
1,43,100,10
1,43,0,50
1,41,100,10
1,41,0,50
1,38,100,10
1,38,0,120
1,36,100,0
1,36,0,120
1,32,100,0
1,32,0,60
1,31,100,0
1,31,0,50
1,43,100,10
1,43,0,50
1,41,100,10
1,41,0,50
1,38,100,10
1,38,0,120
1,36,100,0
1,36,0,120
1,32,100,0
1,32,0,60
1,31,100,0
1,31,0,50
1,43,100,10
1,43,0,50
1,41,100,10
1,41,0,50
1,38,100,10
1,38,0,120
1,36,100,0
1,36,0,120
1,32,100,0
1,32,0,60
1,43,100,0
1,43,0,50
1,42,100,10
1,42,0,50
1,40,100,10
1,40,0,60
1,38,100,0
1,38,0,120
1,35,100,0
1,35,0,60
1,31,100,0
1,31,0,60
1,43,100,0
1,43,0,120
1,42,100,0
1,42,0,120
1,38,100,0
1,38,0,120
1,35,100,0
1,35,0,60
1,31,100,0
1,31,0,60
1,38,100,0
1,38,0,25
1,40,100,5
1,40,0,25
1,42,100,5
1,42,0,50
1,40,100,10
1,40,0,50
1,38,100,10
1,38,0,60
1,38,100,0
1,38,0,120
1,33,100,0
1,33,0,60
1,30,100,0
1,30,0,60
1,42,100,0
1,42,0,120
1,40,100,0
1,40,0,120
1,38,100,0
1,38,0,120
1,33,100,0
1,33,0,60
1,30,100,0
1,30,0,120
1,35,100,0
1,35,0,60
1,33,100,0
1,33,0,60
1,31,100,0
1,31,0,60
1,31,100,0
1,31,0,120
1,28,100,0
1,28,0,60
1,31,100,0
1,31,0,60
1,35,100,0
1,35,0,120
1,33,100,0
1,33,0,120
1,31,100,0
1,31,0,120
1,28,100,0
1,28,0,60
1,31,100,0
1,31,0,60
1,33,100,0
1,33,0,60
1,35,100,0
1,35,0,80
1,35,100,40
1,35,0,120
1,35,100,60
1,35,0,60
1,35,100,0
1,35,0,60
1,36,100,0
1,36,0,120
1,35,100,0
1,35,0,120
1,33,100,0
1,33,0,120
1,31,100,0
1,31,0,60
1,33,100,0
1,33,0,60
1,34,100,0
1,34,0,60
1,35,100,0
1,35,0,80
1,35,100,40
1,35,0,120
1,36,100,60
1,36,0,60
1,37,100,0
1,37,0,60
1,38,100,0
1,38,0,120
1,38,100,0
1,38,0,120
1,38,100,0
1,38,0,120
1,38,100,0
1,38,0,50
1,38,100,10
1,38,0,60
1,40,100,0
1,40,0,25
1,42,100,5
1,42,0,25
1,43,100,5
1,43,0,50
1,42,100,10
1,42,0,50
1,40,100,10
1,40,0,60
1,38,100,0
1,38,0,120
1,35,100,0
1,35,0,60
1,31,100,0
1,31,0,60
1,43,100,0
1,43,0,120
1,42,100,0
1,42,0,120
1,38,100,0
1,38,0,120
1,35,100,0
1,35,0,60
1,31,100,0
1,31,0,60
1,38,100,0
1,38,0,25
1,40,100,5
1,40,0,25
1,42,100,5
1,42,0,50
1,40,100,10
1,40,0,50
1,38,100,10
1,38,0,60
1,38,100,0
1,38,0,120
1,33,100,0
1,33,0,60
1,30,100,0
1,30,0,60
1,42,100,0
1,42,0,120
1,40,100,0
1,40,0,120
1,38,100,0
1,38,0,120
1,33,100,0
1,33,0,60
1,30,100,0
1,30,0,120
1,35,100,0
1,35,0,60
1,33,100,0
1,33,0,60
1,31,100,0
1,31,0,60
1,31,100,0
1,31,0,120
1,28,100,0
1,28,0,60
1,31,100,0
1,31,0,60
1,35,100,0
1,35,0,120
1,33,100,0
1,33,0,120
1,31,100,0
1,31,0,120
1,28,100,0
1,28,0,60
1,31,100,0
1,31,0,60
1,33,100,0
1,33,0,60
1,35,100,0
1,35,0,80
1,35,100,40
1,35,0,120
1,35,100,60
1,35,0,60
1,35,100,0
1,35,0,60
1,36,100,0
1,36,0,120
1,35,100,0
1,35,0,120
1,33,100,0
1,33,0,120
1,31,100,0
1,31,0,60
1,33,100,0
1,33,0,60
1,34,100,0
1,34,0,60
1,35,100,0
1,35,0,80
1,35,100,40
1,35,0,120
1,36,100,60
1,36,0,60
1,37,100,0
1,37,0,60
1,38,100,0
1,38,0,120
1,38,97,0
1,38,0,120
1,38,91,0
1,38,0,120
1,38,85,0
1,38,0,50
1,38,82,10
1,38,0,60
1,40,79,0
1,40,0,25
1,42,77,5
1,42,0,25
1,43,75,5
1,43,0,50
1,42,72,10
1,42,0,50
1,40,69,10
1,40,0,60
1,38,66,0
1,38,0,120
1,35,60,0
1,35,0,60
1,31,57,0
1,31,0,60
1,43,54,0
1,43,0,120
1,42,47,0
1,42,0,120
1,38,41,0
1,38,0,120
1,35,35,0
1,35,0,60
1,31,32,0
1,31,0,60
1,38,29,0
1,38,0,25
1,40,27,5
1,40,0,25
1,42,25,5
1,42,0,50
1,40,22,10
1,40,0,50
1,38,19,10
1,38,0,60
1,38,16,0
1,38,0,120
1,33,10,0
1,33,0,60
1,30,7,0
1,30,0,60
1,42,4,0
1,42,0,120
2,43,127,1440
2,43,0,50
2,55,127,10
2,55,0,50
2,53,127,10
2,53,0,50
2,50,127,10
2,50,0,120
2,48,127,0
2,48,0,120
2,44,127,0
2,44,0,60
2,43,127,0
2,43,0,50
2,55,127,10
2,55,0,50
2,53,127,10
2,53,0,50
2,50,127,10
2,50,0,120
2,48,127,0
2,48,0,120
2,44,127,0
2,44,0,60
2,59,127,0
2,59,0,50
2,57,127,10
2,57,0,50
2,55,127,10
2,55,0,60
2,55,127,0
2,55,0,120
2,59,127,180
2,59,0,50
2,57,127,10
2,57,0,50
2,55,127,10
2,55,0,60
2,55,127,0
2,55,0,120
2,59,127,4020
2,59,0,50
2,57,127,10
2,57,0,50
2,55,127,10
2,55,0,50
2,55,127,10
2,55,0,120
2,59,127,180
2,59,0,50
2,57,127,10
2,57,0,50
2,55,127,10
2,55,0,50
2,55,127,10
2,55,0,120
2,59,127,4020
2,59,0,50
2,57,127,10
2,57,0,50
2,55,127,10
2,55,0,50
2,55,127,10
2,55,0,120
2,59,127,180
2,59,0,50
2,57,127,10
2,57,0,50
2,55,127,10
2,55,0,60
2,55,127,0
2,55,0,120
2,59,127,4020
2,59,0,50
2,57,127,10
2,57,0,50
2,55,127,10
2,55,0,60
2,55,127,0
2,55,0,120
2,59,127,180
2,59,0,50
2,57,127,10
2,57,0,50
2,55,127,10
2,55,0,60
2,55,127,0
2,55,0,120
2,57,127,4020
2,57,0,20
2,57,127,0
2,57,0,50
2,55,127,10
2,55,0,60
2,55,127,0
2,55,0,120
2,59,127,120
2,59,0,120
2,57,127,0
2,57,0,50
2,55,127,10
2,55,0,60
2,55,127,0
2,55,0,120
2,55,127,60
2,55,0,50
2,55,127,10
2,55,0,50
