track,note,velocity,time
0,42,75,0
0,42,75,93
0,42,75,93
0,42,75,93
0,35,80,93
0,47,80,0
0,51,80,0
0,54,80,0
0,59,80,0
0,47,80,1
0,51,100,1
0,54,80,1
0,40,80,48
0,33,100,1
0,45,100,0
0,52,100,0
0,57,100,0
0,59,100,0
0,61,100,1
0,32,110,1
0,44,110,1
0,52,110,0
0,56,110,0
0,59,110,0
0,30,126,1
0,42,126,1
0,52,126,0
0,54,126,0
0,57,126,0
0,28,80,1
0,40,80,1
0,47,80,0
0,52,80,0
0,56,80,0
0,59,80,192
0,64,100,48
0,52,60,1
0,54,60,1
0,35,116,1
0,35,80,0
0,51,80,0
0,59,80,0
0,47,100,1
0,51,100,0
0,59,100,0
0,35,116,1
0,35,120,0
0,47,120,1
0,51,120,0
0,57,120,0
0,56,100,1
0,28,100,1
0,28,80,0
0,40,80,0
0,56,69,0
0,59,69,0
0,64,69,0
0,56,116,0
0,56,126,0
0,35,70,0
0,59,126,2
0,64,126,1
0,56,116,3
0,54,96,3
0,56,116,3
0,54,96,3
0,56,116,3
0,35,70,48
0,56,125,3
0,59,126,0
0,64,126,0
0,40,78,3
0,47,84,0
0,52,116,0
0,57,126,3
0,59,126,0
0,64,125,0
0,54,96,0
0,61,106,3
0,56,116,0
0,52,96,3
0,33,100,1
0,33,80,0
0,40,60,0
0,45,80,0
0,57,126,0
0,35,70,0
0,61,126,1
0,64,126,1
0,61,116,92
0,61,116,3
0,62,96,3
0,61,116,3
0,62,96,3
0,61,96,3
0,45,67,3
0,59,76,0
0,35,70,0
0,52,56,3
0,59,96,0
0,61,116,3
0,57,87,1
0,57,106,1
0,59,120,0
0,64,115,0
0,61,96,0
0,61,116,3
0,35,100,1
0,40,81,0
0,47,99,0
0,52,91,0
0,57,126,0
0,59,126,0
0,64,126,0
0,59,96,0
0,35,60,0
0,59,116,3
0,32,100,1
0,32,80,0
0,44,80,0
0,56,69,0
0,59,69,0
0,64,69,0
0,56,126,0
0,35,70,0
0,59,126,1
0,64,126,1
0,52,96,3
0,52,116,3
0,44,60,3
0,52,96,0
0,32,85,3
0,57,116,0
0,35,70,0
0,44,93,3
0,52,99,3
0,56,96,0
0,56,125,3
0,59,126,0
0,64,121,0
0,54,116,0
0,57,110,3
0,59,126,0
0,64,110,0
0,56,96,0
0,56,93,3
0,49,116,0
0,35,70,0
0,33,100,1
0,33,101,0
0,57,69,0
0,61,69,0
0,64,69,0
0,57,126,0
0,61,126,1
0,64,126,2
0,35,70,80
0,45,50,3
0,35,70,0
0,57,126,1
0,35,70,0
0,59,126,1
0,61,126,1
0,64,126,2
0,45,75,3
0,33,87,3
0,45,71,3
0,52,88,48
0,57,123,3
0,62,125,0
0,64,125,0
0,47,96,0
0,35,100,3
0,52,116,0
0,54,96,3
0,57,123,3
0,61,126,0
0,64,125,0
0,56,116,0
0,35,60,0
0,57,96,3
0,28,100,1
0,28,66,0
0,40,81,0
0,56,69,0
0,59,69,0
0,64,69,0
0,59,116,0
0,56,126,0
0,35,70,0
0,59,126,1
0,64,126,1
0,59,116,3
0,52,67,144
0,47,53,144
0,35,60,0
0,40,81,3
0,35,70,0
0,59,60,3
0,64,80,3
0,59,126,3
0,64,126,0
0,66,126,0
0,52,116,1
0,56,126,0
0,59,126,1
0,64,126,2
0,59,93,3
0,54,96,0
0,30,100,3
0,59,121,0
0,64,126,0
0,68,126,0
0,56,116,0
0,52,96,1
0,56,102,0
0,59,102,1
0,64,102,2
0,33,100,1
0,33,78,0
0,45,84,0
0,61,69,0
0,64,69,0
0,69,69,0
0,57,126,0
0,35,70,0
0,61,126,1
0,64,126,1
0,61,96,92
0,61,116,3
0,45,72,3
0,62,96,3
0,61,116,3
0,35,70,0
0,40,69,3
0,59,96,0
0,33,80,3
0,59,96,3
0,61,89,3
0,64,90,0
0,69,90,0
0,61,96,0
0,61,126,3
0,64,126,0
0,69,126,0
0,61,116,0
0,33,100,48
0,61,126,3
0,64,126,0
0,69,126,0
0,59,96,0
0,40,69,3
0,52,69,0
0,61,96,0
0,35,60,0
0,59,116,3
0,32,100,1
0,32,84,0
0,59,69,0
0,64,69,0
0,68,69,0
0,56,126,0
0,35,70,0
0,59,126,1
0,64,126,1
0,52,96,3
0,44,54,3
0,56,116,96
0,56,96,3
0,61,109,3
0,64,110,0
0,69,102,0
0,57,116,0
0,35,70,0
0,56,96,3
0,59,118,3
0,64,123,0
0,68,126,0
0,54,116,0
0,44,54,3
0,66,93,3
0,56,96,0
0,32,100,3
0,64,84,0
0,49,116,0
0,33,100,1
0,33,104,0
0,45,98,0
0,57,69,0
0,61,69,0
0,64,69,0
0,57,126,0
0,35,70,0
0,61,126,1
0,64,126,1
0,45,101,3
0,57,110,1
0,59,110,1
0,61,110,2
0,57,110,1
0,45,70,0
0,59,110,1
0,61,110,1
0,40,71,1
0,57,126,0
0,59,126,1
0,61,126,2
0,33,76,3
0,40,94,3
0,45,107,3
0,59,120,0
0,61,126,0
0,64,123,0
0,43,70,0
0,28,100,3
0,59,126,0
0,61,126,0
0,64,126,0
0,33,100,1
0,45,116,0
0,57,126,0
0,59,126,1
0,61,126,2
0,40,109,1
0,57,110,0
0,43,70,0
0,59,110,1
0,61,110,1
0,33,112,1
0,61,126,0
0,64,125,0
0,69,125,0
0,56,116,0
0,57,126,0
0,41,50,0
0,59,126,1
0,61,126,1
0,57,96,3
0,35,100,1
0,59,86,0
0,63,93,0
0,66,91,0
0,59,116,0
0,59,116,0
0,47,90,0
0,47,90,0
0,35,70,0
0,44,54,0
0,63,116,1
0,66,116,1
0,59,96,1
0,59,116,0
0,44,54,0
0,63,116,1
0,66,116,1
0,59,116,3
0,30,100,1
0,59,116,0
0,54,90,0
0,54,90,0
0,38,100,0
0,44,54,0
0,63,116,1
0,66,116,1
0,59,86,1
0,63,86,1
0,66,86,2
0,59,116,1
0,44,54,0
0,63,116,1
0,66,116,1
0,56,96,1
0,59,86,0
0,59,90,0
0,59,90,0
0,63,86,1
0,66,86,2
0,35,100,1
0,59,116,0
0,59,116,0
0,35,70,0
0,44,54,0
0,63,116,1
0,66,116,1
0,59,96,3
0,59,88,1
0,63,95,0
0,69,90,0
0,59,86,0
0,44,54,0
0,63,86,1
0,66,86,1
0,59,111,1
0,63,116,0
0,69,111,0
0,61,116,0
0,59,116,0
0,63,116,1
0,66,116,2
0,59,96,3
0,35,100,3
0,56,76,0
0,38,100,0
0,44,54,0
0,37,100,1
0,59,86,0
0,63,86,1
0,66,86,2
0,39,100,1
0,59,109,0
0,63,114,0
0,69,111,0
0,56,116,0
0,59,116,0
0,35,60,0
0,44,54,0
0,63,116,1
0,66,116,1
0,57,96,1
0,59,86,0
0,63,86,1
0,66,86,2
0,40,100,1
0,59,116,0
0,64,116,0
0,69,112,0
0,59,116,0
0,59,116,0
0,56,100,0
0,59,100,0
0,64,100,0
0,69,116,0
0,69,116,0
0,35,70,0
0,44,54,0
0,64,116,1
0,68,116,1
0,68,107,5
0,59,96,1
0,59,116,0
0,56,100,0
0,59,100,0
0,64,100,0
0,44,54,0
0,64,116,1
0,68,116,1
0,59,107,3
0,64,102,0
0,68,106,0
0,59,116,0
0,56,100,0
0,59,100,0
0,64,100,0
0,59,116,1
0,38,100,0
0,44,54,0
0,64,116,1
0,68,116,1
0,59,109,3
0,64,111,0
0,68,112,0
0,61,96,0
0,56,100,0
0,59,100,0
0,64,100,0
0,44,100,1
0,52,116,0
0,61,86,0
0,57,100,0
0,61,100,0
0,64,100,0
0,64,90,0
0,64,90,0
0,44,54,0
0,64,86,1
0,69,86,1
0,61,116,1
0,64,116,1
0,69,116,2
0,45,100,3
0,57,69,0
0,61,66,0
0,64,68,0
0,57,90,0
0,57,90,0
0,35,70,0
0,44,54,0
0,61,116,1
0,64,116,1
0,69,116,2
0,44,54,44
0,61,116,1
0,64,116,1
0,69,116,2
0,38,100,3
0,44,54,0
0,57,111,1
0,61,118,0
0,64,112,0
0,61,116,0
0,64,116,1
0,69,116,2
0,37,100,44
0,56,116,0
0,35,60,0
0,44,54,0
0,39,100,1
0,57,96,0
0,61,86,0
0,64,86,1
0,69,86,2
0,40,100,1
0,56,104,0
0,59,111,0
0,64,107,0
0,59,116,0
0,59,116,0
0,56,100,0
0,59,100,0
0,35,70,0
0,44,54,0
0,64,116,1
0,68,116,1
0,59,96,3
0,59,116,1
0,44,54,0
0,64,116,1
0,68,116,1
0,59,116,3
0,59,116,1
0,38,100,0
0,44,54,0
0,64,116,1
0,68,116,1
0,59,102,3
0,64,106,0
0,68,107,0
0,59,96,0
0,40,100,1
0,61,116,0
0,59,86,0
0,44,54,0
0,64,86,1
0,68,86,1
0,40,100,1
0,59,86,0
0,64,86,1
0,68,86,2
0,40,100,1
0,61,109,0
0,64,104,0
0,69,101,0
0,59,116,0
0,35,70,0
0,44,54,0
0,64,116,1
0,68,116,1
0,59,96,3
0,59,116,1
0,44,54,0
0,64,116,1
0,68,116,1
0,61,116,5
0,64,114,0
0,69,106,0
0,59,116,1
0,38,100,0
0,44,54,0
0,64,116,1
0,68,116,1
0,39,100,5
0,59,107,0
0,64,107,0
0,68,111,0
0,56,116,0
0,37,100,1
0,56,96,0
0,59,116,0
0,56,100,0
0,59,100,0
0,64,100,0
0,35,60,0
0,44,54,0
0,64,116,1
0,68,116,1
0,56,116,1
0,59,86,0
0,56,100,0
0,59,100,0
0,64,100,0
0,64,86,1
0,68,86,2
0,57,96,3
0,35,100,1
0,59,84,0
0,63,102,0
0,66,93,0
0,56,86,0
0,59,116,0
0,56,100,0
0,59,100,0
0,64,100,0
0,35,70,0
0,44,54,0
0,63,116,1
0,66,116,1
0,54,96,1
0,59,116,0
0,59,100,0
0,63,100,0
0,66,100,0
0,44,54,0
0,63,116,1
0,66,116,1
0,54,116,3
0,59,100,0
0,63,100,0
0,66,100,0
0,59,116,1
0,47,90,0
0,47,90,0
0,38,100,0
0,44,54,0
0,63,116,1
0,66,116,1
0,51,90,3
0,51,90,0
0,59,116,1
0,54,90,0
0,54,90,0
0,44,54,0
0,63,116,1
0,66,116,1
0,35,100,1
0,59,86,0
0,63,86,1
0,66,86,2
0,35,100,1
0,59,116,0
0,38,80,0
0,44,54,0
0,63,116,1
0,66,116,1
0,38,100,0
0,59,57,5
0,63,79,0
0,66,79,0
0,35,70,0
0,35,100,1
0,59,101,0
0,63,107,0
0,66,109,0
0,59,86,0
0,59,90,0
0,59,90,0
0,38,100,0
0,63,86,1
0,66,86,1
0,59,114,1
0,63,119,0
0,66,119,0
0,59,116,0
0,61,90,0
0,61,90,0
0,63,116,1
0,66,116,2
0,38,101,4
0,42,100,1
0,59,96,0
0,59,116,0
0,45,90,0
0,63,116,1
0,66,116,1
0,47,100,3
0,59,111,0
0,63,112,0
0,66,114,0
0,59,96,0
0,43,90,0
0,61,116,1
0,59,86,0
0,59,90,0
0,59,90,0
0,63,86,1
0,66,86,2
0,33,100,1
0,57,109,0
0,61,116,0
0,64,111,0
0,61,116,0
0,57,100,0
0,61,100,0
0,64,100,0
0,61,90,0
0,61,90,0
0,35,70,0
0,51,70,0
0,64,116,1
0,69,116,1
0,61,96,3
0,61,116,1
0,44,54,0
0,64,116,1
0,69,116,1
0,61,116,3
0,61,116,1
0,38,100,0
0,44,54,0
0,64,116,1
0,69,116,1
0,63,96,1
0,61,86,0
0,64,86,1
0,69,86,2
0,64,116,1
0,61,116,0
0,44,54,0
0,64,116,1
0,69,116,1
0,33,100,1
0,61,86,0
0,35,60,0
0,64,86,1
0,69,86,1
0,33,100,1
0,63,96,0
0,61,116,0
0,35,70,0
0,44,54,0
0,64,116,1
0,69,116,1
0,52,68,1
0,57,59,0
0,59,68,0
0,61,86,0
0,61,100,0
0,64,100,0
0,68,100,0
0,44,54,0
0,64,86,1
0,69,86,1
0,52,104,1
0,57,109,0
0,59,111,0
0,63,96,0
0,61,116,0
0,64,116,1
0,69,116,2
0,61,116,3
0,59,100,3
0,63,100,0
0,66,100,0
0,38,100,0
0,44,54,0
0,52,109,1
0,57,114,0
0,59,116,0
0,59,96,0
0,61,86,0
0,64,86,1
0,69,86,2
0,35,100,1
0,61,116,0
0,61,116,0
0,57,100,0
0,61,100,0
0,64,100,0
0,35,60,0
0,44,54,0
0,64,116,1
0,69,116,1
0,36,100,1
0,61,86,0
0,64,86,1
0,69,86,2
0,37,100,1
0,56,116,0
0,61,114,0
0,64,106,0
0,61,116,0
0,59,100,0
0,64,100,0
0,68,100,0
0,35,70,0
0,44,54,0
0,64,116,1
0,68,116,1
0,52,96,3
0,56,116,1
0,61,116,0
0,35,70,0
0,44,54,0
0,64,116,1
0,68,116,1
0,61,116,1
0,38,100,0
0,44,54,0
0,64,116,1
0,68,116,1
0,61,86,1
0,35,70,0
0,44,54,0
0,64,86,1
0,68,86,1
0,32,100,1
0,52,96,0
0,61,116,0
0,64,116,1
0,68,116,2
0,37,100,3
0,56,116,0
0,44,54,0
0,61,116,1
0,64,116,1
0,68,116,2
0,56,96,3
0,35,70,0
0,44,54,0
0,56,107,1
0,61,109,0
0,64,101,0
0,57,116,0
0,61,116,0
0,64,116,1
0,68,116,2
0,40,100,44
0,48,90,0
0,42,100,1
0,59,116,0
0,61,116,0
0,47,70,0
0,64,116,1
0,68,116,1
0,37,100,3
0,56,109,0
0,61,109,0
0,64,99,0
0,59,100,0
0,64,100,0
0,68,100,0
0,45,50,0
0,36,100,1
0,61,86,0
0,35,60,0
0,64,86,1
0,68,86,1
0,35,100,1
0,54,109,0
0,59,112,0
0,63,112,0
0,56,116,0
0,59,116,0
0,59,100,0
0,63,100,0
0,66,100,0
0,35,70,0
0,44,54,0
0,63,116,1
0,66,116,1
0,54,96,1
0,59,116,0
0,44,54,0
0,63,116,1
0,66,116,1
0,54,116,3
0,59,116,1
0,38,100,0
0,44,54,0
0,63,116,1
0,66,116,1
0,54,112,19
0,59,111,0
0,63,112,0
0,59,86,1
0,35,70,0
0,44,54,0
0,63,86,1
0,66,86,1
0,30,100,1
0,47,96,0
0,59,86,0
0,63,86,1
0,66,86,2
0,33,100,1
0,52,111,0
0,57,112,0
0,61,118,0
0,49,116,0
0,61,116,0
0,57,100,0
0,61,100,0
0,64,100,0
0,35,70,0
0,44,54,0
0,64,116,1
0,69,116,1
0,52,116,3
0,61,116,1
0,44,54,0
0,64,116,1
0,69,116,1
0,52,116,1
0,61,116,0
0,38,100,0
0,44,54,0
0,64,116,1
0,69,116,1
0,52,107,3
0,57,111,0
0,61,119,0
0,54,96,0
0,49,116,1
0,61,116,0
0,35,70,0
0,44,54,0
0,64,116,1
0,69,116,1
0,61,86,1
0,64,86,1
0,69,86,2
0,33,100,0
0,33,126,0
0,52,95,0
0,61,118,0
0,64,126,0
0,68,116,0
0,68,116,0
0,35,70,0
0,44,54,0
0,69,126,1
0,38,100,45
0,46,40,3
0,32,100,1
0,32,126,0
0,52,93,0
0,59,114,0
0,64,126,0
0,35,70,0
0,68,126,2
0,44,1,21
0,38,100,1
0,47,80,3
0,30,100,1
0,30,126,0
0,52,100,0
0,57,116,0
0,64,126,0
0,64,90,0
0,64,90,0
0,45,80,0
0,69,126,2
0,28,100,1
0,28,118,0
0,47,96,0
0,56,116,0
0,64,126,0
0,59,90,0
0,59,90,0
0,35,70,0
0,49,54,0
0,68,126,2
0,44,54,48
0,40,107,3
0,38,100,0
0,44,54,0
0,44,54,48
0,40,87,3
0,40,118,3
0,44,54,0
0,47,78,3
0,52,95,48
0,44,54,0
0,57,99,5
0,59,104,0
0,64,102,0
0,40,114,3
0,38,100,0
0,44,54,0
0,56,101,5
0,59,106,0
0,64,101,0
0,44,54,0
0,35,100,1
0,35,112,0
0,51,96,0
0,54,102,0
0,59,104,0
0,63,126,0
0,35,70,0
0,44,54,0
0,66,126,2
0,44,54,93
0,51,83,5
0,54,81,0
0,59,86,0
0,47,112,3
0,38,100,0
0,44,54,0
0,51,83,5
0,54,87,0
