track,note,velocity,time
1,80,120,72202
1,92,120,0
1,78,120,96
1,90,120,2
1,80,120,96
1,92,120,0
1,75,120,96
1,87,120,0
1,78,120,96
1,90,120,2
1,80,120,96
1,92,120,0
1,78,120,286
1,90,120,2
1,80,120,96
1,92,120,0
1,83,120,96
1,95,120,2
1,80,120,1248
1,92,120,2
1,78,120,96
1,90,120,0
1,80,120,92
1,92,120,2
1,75,120,96
1,87,120,2
1,78,120,94
1,90,120,2
1,80,120,96
1,92,120,2
1,78,120,286
1,90,120,2
1,80,120,98
1,92,120,0
1,83,120,96
1,95,120,0
1,80,120,1252
1,92,120,2
1,78,120,96
1,90,120,0
1,80,120,92
1,92,120,2
1,75,120,96
1,87,120,0
1,78,120,94
1,90,120,0
1,80,120,96
1,92,120,2
1,80,120,284
1,92,120,2
1,78,120,96
1,90,120,6
1,80,120,59810
1,92,120,2
1,78,120,96
1,90,120,2
1,80,120,92
1,92,120,2
1,75,120,96
1,87,120,0
1,78,120,92
1,90,120,0
1,80,120,96
1,92,120,2
1,78,120,284
1,90,120,0
1,80,120,96
1,92,120,0
1,83,120,96
1,95,120,0
1,80,120,1250
1,92,120,0
1,78,120,96
1,90,120,0
1,80,120,94
1,92,120,2
1,75,120,96
1,87,120,2
1,78,120,92
1,90,120,0
1,80,120,96
1,92,120,2
1,78,120,284
1,90,120,0
1,80,120,96
1,92,120,0
1,83,120,96
1,95,120,0
1,80,120,1252
1,92,120,0
1,78,120,96
1,90,120,0
1,80,120,92
1,92,120,0
1,75,120,96
1,87,120,2
1,78,120,96
1,90,120,2
1,80,120,96
1,92,120,0
1,80,120,288
1,92,120,0
1,78,120,98
1,90,120,0
2,80,100,72202
2,92,100,0
2,78,100,100
2,90,100,0
2,80,100,94
2,92,100,2
2,75,100,96
2,87,100,0
2,78,100,96
2,90,100,2
2,80,100,100
2,92,100,0
2,78,100,292
2,90,100,0
2,80,100,98
2,92,100,0
2,83,100,96
2,95,100,0
2,80,100,1248
2,92,100,0
2,78,100,100
2,90,100,0
2,80,100,94
2,92,100,0
2,75,100,98
2,87,100,0
2,78,100,96
2,90,100,2
2,80,100,98
2,92,100,0
2,78,100,292
2,90,100,0
2,80,100,100
2,92,100,0
2,83,100,96
2,95,100,0
2,80,100,1252
2,92,100,0
2,78,100,100
2,90,100,0
2,80,100,94
2,92,100,0
2,75,100,100
2,87,100,2
2,78,100,96
2,90,100,2
2,80,100,96
2,92,100,0
2,80,100,290
2,92,100,0
2,78,100,100
2,90,100,2
2,80,100,1152
2,92,100,0
2,78,100,98
2,90,100,0
2,80,100,94
2,92,100,0
2,75,100,100
2,87,100,2
2,78,100,94
2,90,100,2
2,80,100,96
2,92,100,0
2,78,100,290
2,90,100,0
2,80,100,96
2,92,100,2
2,83,100,100
2,95,100,0
2,80,100,1252
2,92,100,0
2,78,100,100
2,90,100,0
2,80,100,98
2,92,100,0
2,75,100,96
2,87,100,0
2,78,100,94
2,90,100,2
2,80,100,100
2,92,100,0
2,78,100,288
2,90,100,0
2,80,100,96
2,92,100,2
2,83,100,100
2,95,100,0
2,80,100,1252
2,92,100,2
2,78,100,96
2,90,100,0
2,80,100,94
2,92,100,2
2,75,100,100
2,87,100,2
2,78,100,98
2,90,100,0
2,80,100,100
2,92,100,0
2,80,100,292
2,92,100,0
2,78,100,96
2,90,100,2
3,63,120,94
3,68,120,0
3,71,120,6
3,63,120,94
3,68,120,2
3,71,120,0
3,63,120,94
3,68,120,2
3,71,120,2
3,63,120,286
3,68,120,2
3,70,120,2
3,63,120,94
3,68,120,0
3,71,120,2
3,63,120,96
3,68,120,0
3,70,120,4
3,63,120,286
3,68,120,0
3,71,120,2
3,63,120,94
3,68,120,0
3,71,120,2
3,63,120,94
3,68,120,2
3,71,120,0
3,63,120,286
3,68,120,2
3,70,120,2
3,63,120,94
3,68,120,2
3,71,120,2
3,63,120,96
3,68,120,0
3,70,120,4
3,63,120,286
3,68,120,2
3,71,120,4
3,63,120,94
3,68,120,0
3,71,120,2
3,63,120,94
3,68,120,2
3,71,120,0
3,63,120,286
3,68,120,0
3,70,120,4
3,63,120,94
3,68,120,2
3,71,120,0
3,63,120,96
3,68,120,0
3,70,120,6
3,63,120,286
3,68,120,2
3,71,120,0
3,63,120,94
3,68,120,0
3,71,120,2
3,63,120,96
3,68,120,2
3,71,120,2
3,63,120,286
3,68,120,0
3,70,120,4
3,63,120,94
3,68,120,2
3,71,120,0
3,63,120,96
3,68,120,0
3,70,120,4
3,61,120,286
3,66,120,2
3,70,120,2
3,61,120,94
3,66,120,0
3,70,120,2
3,61,120,94
3,66,120,2
3,70,120,2
3,61,120,286
3,66,120,0
3,68,120,2
3,61,120,94
3,66,120,2
3,70,120,0
3,61,120,96
3,66,120,0
3,68,120,2
3,61,120,286
3,66,120,2
3,70,120,2
3,61,120,94
3,66,120,0
3,70,120,2
3,61,120,94
3,66,120,2
3,70,120,2
3,61,120,284
3,66,120,0
3,68,120,4
3,61,120,94
3,66,120,2
3,70,120,0
3,61,120,96
3,66,120,0
3,68,120,4
3,63,120,286
3,68,120,2
3,71,120,2
3,63,120,94
3,68,120,2
3,71,120,2
3,63,120,94
3,68,120,2
3,71,120,0
3,63,120,286
3,68,120,0
3,70,120,6
3,63,120,94
3,68,120,2
3,71,120,0
3,63,120,96
3,68,120,2
3,70,120,2
3,63,120,286
3,68,120,2
3,71,120,2
3,63,120,94
3,68,120,0
3,71,120,2
3,63,120,94
3,68,120,0
3,71,120,4
3,63,120,286
3,68,120,0
3,70,120,6
3,63,120,94
3,68,120,0
3,71,120,2
3,63,120,96
3,68,120,2
3,70,120,2
3,63,120,94
3,68,120,2
3,71,120,0
3,63,120,94
3,68,120,2
3,71,120,0
3,63,120,94
3,68,120,2
3,71,120,0
3,63,120,286
3,68,120,0
3,70,120,6
3,63,120,94
3,68,120,2
3,71,120,0
3,63,120,96
3,68,120,2
3,70,120,2
3,63,120,284
3,68,120,0
3,71,120,2
3,63,120,94
3,68,120,2
3,71,120,2
3,63,120,96
3,68,120,2
3,71,120,0
3,63,120,286
3,68,120,0
3,70,120,4
3,63,120,94
3,68,120,2
3,71,120,0
3,63,120,96
3,68,120,2
3,70,120,0
3,63,120,286
3,68,120,0
3,71,120,2
3,63,120,94
3,68,120,2
3,71,120,0
3,63,120,94
3,68,120,2
3,71,120,0
3,63,120,286
3,68,120,2
3,70,120,2
3,63,120,94
3,68,120,0
3,71,120,2
3,63,120,96
3,68,120,2
3,70,120,0
3,63,120,286
3,68,120,2
3,71,120,0
3,63,120,94
3,68,120,2
3,71,120,0
3,63,120,94
3,68,120,2
3,71,120,0
3,63,120,286
3,68,120,2
3,70,120,2
3,63,120,92
3,68,120,0
3,71,120,2
3,63,120,96
3,68,120,2
3,70,120,2
3,61,120,286
3,66,120,0
3,70,120,4
3,61,120,94
3,66,120,2
3,70,120,0
3,61,120,94
3,66,120,2
3,70,120,0
3,61,120,286
3,66,120,2
3,68,120,0
3,61,120,94
3,66,120,0
3,70,120,2
3,61,120,96
3,66,120,0
3,68,120,4
3,61,120,286
3,66,120,0
3,70,120,4
3,61,120,94
3,66,120,2
3,70,120,0
3,61,120,94
3,66,120,2
3,70,120,0
3,61,120,286
3,66,120,2
3,68,120,2
3,61,120,94
3,66,120,2
3,70,120,2
3,61,120,96
3,66,120,0
3,68,120,4
3,63,120,286
3,68,120,0
3,71,120,4
3,63,120,92
3,68,120,0
3,71,120,2
3,63,120,94
3,68,120,2
3,71,120,2
3,63,120,286
3,68,120,2
3,70,120,2
3,63,120,94
3,68,120,0
3,71,120,2
3,63,120,96
3,68,120,2
3,70,120,0
3,63,120,286
3,68,120,0
3,71,120,2
3,63,120,94
3,68,120,0
3,71,120,2
3,63,120,94
3,68,120,2
3,71,120,0
3,63,120,286
3,68,120,0
3,70,120,4
3,63,120,94
3,68,120,2
3,71,120,2
3,63,120,96
3,68,120,0
3,70,120,4
3,63,120,286
3,68,120,2
3,71,120,0
3,63,120,94
3,68,120,0
3,71,120,2
3,63,120,94
3,68,120,2
3,71,120,0
3,63,120,286
3,68,120,2
3,70,120,0
3,63,120,94
3,68,120,2
3,71,120,0
3,63,120,96
3,68,120,0
3,70,120,6
3,63,120,286
3,68,120,2
3,71,120,2
3,63,120,94
3,68,120,0
3,71,120,2
3,63,120,94
3,68,120,2
3,71,120,2
3,63,120,286
3,68,120,0
3,70,120,4
3,63,120,94
3,68,120,2
3,71,120,0
3,63,120,96
3,68,120,0
3,70,120,2
3,64,120,286
3,68,120,2
3,71,120,2
3,64,120,94
3,68,120,0
3,71,120,2
3,64,120,94
3,68,120,2
3,71,120,2
3,64,120,286
3,68,120,0
3,70,120,2
3,64,120,94
3,68,120,2
3,71,120,0
3,64,120,96
3,68,120,0
3,70,120,4
3,64,120,286
3,68,120,2
3,71,120,2
3,64,120,94
3,68,120,0
3,71,120,2
3,64,120,94
3,68,120,2
3,71,120,0
3,64,120,286
3,68,120,0
3,70,120,4
3,64,120,94
3,68,120,2
3,71,120,0
3,64,120,96
3,68,120,2
3,70,120,2
3,61,120,286
3,66,120,2
3,70,120,2
3,61,120,92
3,66,120,0
3,70,120,2
3,61,120,94
3,66,120,4
3,70,120,0
3,61,120,284
3,66,120,2
3,68,120,4
3,61,120,92
3,66,120,0
3,70,120,2
3,61,120,96
3,66,120,4
3,68,120,0
3,61,120,96
3,66,120,2
3,70,120,2
3,63,120,94
3,68,120,2
3,71,120,2
3,63,120,94
3,68,120,0
3,71,120,2
3,63,120,94
3,68,120,2
3,71,120,0
3,63,120,286
3,68,120,0
3,70,120,4
3,63,120,94
3,68,120,2
3,71,120,0
3,63,120,96
3,68,120,2
3,70,120,0
3,63,120,286
3,68,120,2
3,71,120,0
3,63,120,94
3,68,120,0
3,71,120,2
3,63,120,94
3,68,120,0
3,71,120,4
3,63,120,286
3,68,120,2
3,70,120,0
3,63,120,92
3,68,120,2
3,71,120,0
3,63,120,96
3,68,120,2
3,70,120,2
3,63,120,286
3,68,120,2
3,71,120,2
3,63,120,94
3,68,120,2
3,71,120,2
3,63,120,94
3,68,120,0
3,71,120,4
3,63,120,286
3,68,120,0
3,70,120,2
3,63,120,94
3,68,120,2
3,71,120,0
3,63,120,96
3,68,120,0
3,70,120,4
3,63,120,286
3,68,120,2
3,71,120,2
3,63,120,94
3,68,120,2
3,71,120,2
3,63,120,94
3,68,120,2
3,71,120,0
3,63,120,286
3,68,120,2
3,70,120,0
3,63,120,94
3,68,120,0
3,71,120,2
3,63,120,96
3,68,120,2
3,70,120,2
3,61,120,286
3,66,120,2
3,70,120,2
3,61,120,94
3,66,120,0
3,70,120,2
3,61,120,96
3,66,120,0
3,70,120,2
3,61,120,286
3,66,120,0
3,68,120,4
3,61,120,94
3,66,120,0
3,70,120,2
3,61,120,96
3,66,120,2
3,68,120,2
3,61,120,286
3,66,120,0
3,70,120,2
3,61,120,94
3,66,120,2
3,70,120,2
3,61,120,94
3,66,120,0
3,70,120,2
3,61,120,286
3,66,120,2
3,68,120,2
3,61,120,94
3,66,120,0
3,70,120,2
3,61,120,96
3,66,120,2
3,68,120,2
3,63,120,286
3,68,120,0
3,71,120,2
3,63,120,94
3,68,120,2
3,71,120,0
3,63,120,94
3,68,120,0
3,71,120,4
3,63,120,286
3,68,120,2
3,70,120,2
3,63,120,94
3,68,120,2
3,71,120,2
3,63,120,96
3,68,120,2
3,70,120,2
3,63,120,284
3,68,120,0
3,71,120,4
3,63,120,94
3,68,120,2
3,71,120,0
3,63,120,94
3,68,120,2
3,71,120,0
3,63,120,286
3,68,120,2
3,70,120,2
3,63,120,90
3,68,120,2
3,71,120,0
3,63,120,96
3,68,120,2
3,70,120,0
3,63,120,286
3,68,120,2
3,71,120,0
3,63,120,94
3,68,120,2
3,71,120,0
3,63,120,94
3,68,120,2
3,71,120,0
3,63,120,286
3,68,120,2
3,70,120,0
3,63,120,94
3,68,120,0
3,71,120,2
3,63,120,96
3,68,120,0
3,70,120,4
3,63,120,286
3,68,120,0
3,71,120,6
3,63,120,94
3,68,120,2
3,71,120,0
3,63,120,94
3,68,120,2
3,71,120,2
3,63,120,286
3,68,120,2
3,70,120,0
3,63,120,94
3,68,120,2
3,71,120,2
3,63,120,96
3,68,120,0
3,70,120,4
3,64,120,286
3,68,120,0
3,71,120,6
3,64,120,94
3,68,120,0
3,71,120,2
3,64,120,94
3,68,120,2
3,71,120,2
3,64,120,286
3,68,120,2
3,70,120,2
3,64,120,94
3,68,120,2
3,71,120,0
3,64,120,96
3,68,120,2
3,70,120,0
3,64,120,286
3,68,120,0
3,71,120,4
3,64,120,94
3,68,120,0
3,71,120,2
3,64,120,94
3,68,120,2
3,71,120,0
3,64,120,286
3,68,120,0
3,70,120,4
3,64,120,94
3,68,120,2
3,71,120,2
3,64,120,96
3,68,120,0
3,70,120,6
3,61,120,286
3,66,120,2
3,70,120,4
3,61,120,92
3,66,120,0
3,70,120,2
3,61,120,94
3,66,120,2
3,70,120,4
3,61,120,284
3,66,120,4
3,68,120,0
3,61,120,92
3,66,120,2
3,70,120,2
3,61,120,96
3,66,120,4
3,68,120,0
3,61,120,96
3,66,120,4
3,70,120,0
4,63,75,1540
4,68,75,2
4,71,75,4
4,70,75,2
4,71,75,0
4,70,75,2
4,63,75,2
4,68,75,2
4,71,75,0
4,70,75,2
4,71,75,0
4,70,75,2
4,61,75,2
4,66,75,0
4,70,75,0
4,68,75,2
4,70,75,2
4,68,75,2
4,63,75,0
4,68,75,0
4,71,75,4
4,70,75,2
4,71,75,2
4,70,75,2
4,63,75,2
4,68,75,0
4,71,75,0
4,70,75,2
4,71,75,2
4,70,75,2
4,63,75,2
4,68,75,2
4,71,75,0
4,70,75,2
4,71,75,2
4,70,75,2
4,61,75,2
4,66,75,2
4,70,75,0
4,68,75,2
4,70,75,0
4,68,75,0
4,63,75,2
4,68,75,2
4,71,75,0
4,70,75,0
4,71,75,0
4,70,75,0
4,63,75,0
4,68,75,2
4,71,75,0
4,70,75,2
4,71,75,2
4,70,75,2
4,63,75,2
4,68,75,2
4,71,75,0
4,70,75,2
4,71,75,2
4,70,75,2
4,61,75,0
4,66,75,0
4,70,75,2
4,68,75,2
4,70,75,2
4,68,75,2
4,63,75,0
4,68,75,0
4,71,75,6
4,70,75,2
4,71,75,2
4,70,75,0
4,63,75,0
4,68,75,2
4,71,75,0
4,70,75,0
4,71,75,2
4,70,75,0
4,64,75,2
4,68,75,0
4,71,75,0
4,66,75,0
4,68,75,2
4,70,75,0
4,73,75,0
4,64,90,1276
4,68,90,2
4,52,120,2
4,71,90,0
4,61,90,2
4,64,90,0
4,68,90,0
4,49,120,4
4,61,90,0
4,66,90,0
4,70,90,2
4,54,120,4
4,63,90,2
4,66,90,0
4,70,90,0
4,51,120,4
4,64,90,2
4,68,90,0
4,71,90,0
4,52,120,2
4,61,90,2
4,64,90,0
4,68,90,0
4,49,120,4
4,61,90,2
4,66,90,0
4,70,90,0
4,54,120,2
4,63,90,0
4,67,90,2
4,70,90,0
4,51,120,4
4,64,90,0
4,68,90,2
4,71,90,0
4,52,120,4
4,61,90,2
4,64,90,0
4,68,90,0
4,49,120,4
4,61,90,0
4,66,90,0
4,70,90,0
4,54,120,2
4,63,90,2
4,66,90,0
4,70,90,0
4,51,120,4
4,64,90,2
4,68,90,0
4,71,90,0
4,52,120,4
4,61,90,2
4,64,90,0
4,68,90,0
4,49,120,4
4,61,90,0
4,66,90,0
4,70,90,2
4,54,120,4
4,63,90,2
4,67,90,0
4,70,90,0
4,51,120,4
4,63,90,6
4,68,90,2
4,71,90,0
4,70,90,2
4,71,90,6
4,63,90,6
4,68,90,0
4,56,127,4
4,71,90,0
4,70,90,2
4,71,90,6
4,54,127,8
4,66,75,0
4,70,75,0
4,73,75,0
4,68,75,760
4,63,90,1276
4,56,90,4
4,68,90,0
4,71,90,0
4,70,90,0
4,71,90,0
4,70,90,2
4,63,90,2
4,68,90,0
