track,note,velocity,time
1,54,83,7270
1,57,83,0
1,62,92,0
1,54,80,142
1,64,93,2
1,57,80,2
1,61,84,0
1,62,92,134
1,59,80,2
1,52,83,0
1,55,84,2
1,64,93,194
1,62,82,0
1,55,83,2
1,57,82,0
1,62,91,4
1,61,93,4
1,54,83,28
1,57,83,0
1,62,92,0
1,62,86,38
1,54,73,2
1,57,91,0
1,54,80,178
1,64,93,2
1,61,84,2
1,57,80,0
1,57,82,72
1,64,85,2
1,61,73,2
1,54,78,0
1,62,92,92
1,52,83,2
1,59,80,0
1,55,84,2
1,55,82,52
1,62,85,2
1,59,73,2
1,52,78,0
1,64,93,86
1,62,82,0
1,55,83,2
1,57,82,0
1,57,82,68
1,64,82,2
1,55,78,2
1,62,90,0
1,61,93,18
1,55,83,30
1,59,83,0
1,62,92,0
1,64,91,54
1,61,82,0
1,57,82,2
1,57,65,22
1,64,85,2
1,61,82,0
1,62,93,38
1,54,80,2
1,57,84,0
1,54,82,72
1,62,85,2
1,57,73,2
1,64,91,576
1,66,88,194
1,62,83,10
1,59,83,0
1,67,92,0
1,61,82,54
1,64,91,0
1,57,82,2
1,57,65,22
1,64,85,2
1,61,82,0
1,54,72,302
1,57,76,4
1,61,84,6
1,64,87,24
1,62,89,44
1,59,82,4
1,66,92,0
1,64,82,18
1,66,89,0
1,61,87,0
1,57,82,0
1,62,83,16
1,67,92,0
1,59,83,0
1,71,91,390
1,64,91,28
1,61,82,0
1,57,82,2
1,57,65,22
1,64,85,2
1,61,82,0
1,62,91,42
1,57,82,0
1,66,91,0
1,57,73,46
1,64,91,0
1,61,91,4
1,62,91,32
1,59,82,0
1,55,82,2
1,55,63,48
1,62,91,38
1,59,88,134
1,59,91,16
1,54,82,4
1,62,89,2
1,62,82,60
1,64,91,0
1,57,85,4
1,57,79,30
1,64,92,2
1,62,100,2
1,61,100,574
1,57,81,6
1,62,92,0
1,54,83,2
1,62,91,46
1,54,82,0
1,57,86,2
1,62,91,36
1,57,82,4
1,54,78,0
1,64,90,20
1,57,82,0
1,54,70,0
1,61,82,0
1,64,83,104
1,61,82,0
1,54,66,0
1,57,86,0
1,61,91,44
1,54,64,0
1,64,80,0
1,57,91,2
1,62,92,14
1,52,83,2
1,59,80,0
1,55,84,2
1,59,91,34
1,55,93,28
1,64,93,20
1,62,82,0
1,55,83,2
1,57,82,0
1,62,91,26
1,57,82,0
1,64,82,0
1,55,73,4
1,61,93,4
1,54,83,4
1,57,83,0
1,62,92,0
1,62,86,38
1,54,73,2
1,57,91,0
1,69,92,580
1,54,80,12
1,64,93,2
1,57,80,2
1,61,84,0
1,61,93,94
1,57,91,52
1,62,92,44
1,59,80,2
1,52,83,0
1,55,84,2
1,59,87,82
1,55,82,66
1,64,93,38
1,62,82,0
1,55,83,2
1,57,82,0
1,57,82,68
1,64,82,2
1,62,90,2
1,55,78,0
1,61,93,18
1,67,86,30
1,59,83,0
1,62,92,0
1,64,91,54
1,61,82,0
1,57,82,2
1,57,65,22
1,64,85,2
1,61,82,0
1,62,93,38
1,66,84,2
1,57,84,0
1,54,82,72
1,62,85,2
1,57,73,2
1,64,91,576
1,66,88,194
1,62,83,10
1,67,92,0
1,59,83,0
1,64,91,54
1,61,82,0
1,57,82,2
1,57,65,22
1,64,85,2
1,61,82,0
1,54,72,302
1,57,76,4
1,61,84,6
1,64,87,24
1,64,78,24
1,57,74,0
1,61,73,2
1,62,89,36
1,59,82,4
1,66,92,0
1,66,92,18
1,64,80,0
1,61,84,0
1,57,82,0
1,62,83,16
1,59,83,0
1,67,92,0
1,71,91,390
1,61,82,28
1,64,91,0
1,69,91,2
1,57,65,18
1,61,82,2
1,64,85,0
1,62,91,42
1,57,82,0
1,66,91,0
1,57,73,46
1,64,91,0
1,61,91,4
1,59,82,32
1,62,91,0
1,55,82,2
1,55,63,48
1,62,91,38
1,59,88,134
1,59,91,16
1,54,82,4
1,62,89,2
1,62,48,48
1,66,64,88
1,71,100,94
1,62,82,44
1,59,82,0
1,66,91,4
1,61,82,4
1,64,91,0
1,57,85,4
1,57,79,30
1,64,92,2
1,61,100,2
1,57,100,56
1,59,91,6
1,57,73,4
1,66,92,0
1,62,89,2
1,62,73,38
1,66,82,4
1,71,88,0
1,71,92,34
1,62,84,0
1,66,91,4
1,59,82,42
1,62,82,0
1,66,91,4
1,64,91,30
1,61,82,0
1,57,85,4
1,57,79,30
1,64,92,2
1,61,100,2
1,57,90,56
1,67,91,8
1,60,91,2
1,57,91,0
1,64,91,2
1,60,91,42
1,55,82,0
1,64,82,0
1,62,86,68
1,67,92,0
1,59,82,2
1,64,92,46
1,61,82,0
1,57,83,4
1,55,74,10
1,57,77,18
1,59,80,18
1,62,85,16
1,64,92,14
1,62,91,58
1,64,83,2
1,57,82,4
1,55,82,2
1,57,91,58
1,64,83,0
1,61,82,4
1,62,92,28
1,57,81,0
1,54,83,2
1,62,91,46
1,54,82,0
1,57,86,2
1,62,91,36
1,57,82,4
1,54,78,0
1,66,83,192
1,64,90,12
1,61,82,0
1,57,82,0
1,54,70,0
1,61,82,104
1,64,83,0
1,57,86,0
1,54,66,0
1,61,91,44
1,64,80,0
1,54,64,0
1,57,91,2
1,62,92,14
1,59,80,2
1,52,83,0
1,55,84,2
1,59,91,34
1,55,93,28
1,64,93,20
1,62,82,0
1,57,82,2
1,55,83,0
1,57,82,26
1,64,82,0
1,62,91,0
1,55,73,4
1,61,93,4
1,62,92,4
1,57,81,0
1,54,83,2
1,54,82,46
1,62,91,0
1,57,86,2
1,62,91,36
1,54,78,4
1,57,82,0
1,66,83,192
1,57,82,12
1,61,82,0
1,64,90,0
1,54,70,0
1,54,66,104
1,64,83,0
1,57,86,0
1,61,82,0
1,61,91,44
1,54,64,0
1,64,80,0
1,57,91,2
1,62,92,14
1,59,80,2
1,52,83,0
1,55,84,2
1,59,91,34
1,55,93,28
1,64,93,20
1,62,82,0
1,57,82,2
1,55,83,0
1,62,91,26
1,57,82,0
1,64,82,0
1,55,73,4
1,61,93,4
1,62,92,4
1,57,81,0
1,54,83,2
1,69,91,46
1,57,82,0
1,62,86,2
1,74,91,36
1,62,82,4
1,69,83,192
1,66,70,12
1,64,90,0
1,69,82,0
1,73,82,0
1,66,66,104
1,64,83,0
1,69,86,0
1,61,82,0
1,62,92,46
1,59,80,2
1,52,83,0
1,55,84,2
1,67,91,574
1,62,93,56
1,62,82,20
1,64,93,0
1,55,83,2
1,57,82,0
1,64,82,26
1,57,82,0
1,62,91,0
1,55,73,4
1,61,93,4
1,62,92,4
1,57,81,0
1,66,83,2
1,66,91,46
1,57,82,0
1,62,86,2
1,74,91,36
1,62,82,4
1,76,83,192
1,69,82,12
1,73,82,0
1,66,70,0
1,64,90,0
1,64,83,104
1,69,86,0
1,61,82,0
1,66,66,0
1,62,92,46
1,59,80,2
1,52,83,0
1,55,84,2
1,64,93,48
1,62,82,0
1,55,83,2
1,57,82,0
1,74,91,26
1,64,82,0
1,69,82,0
1,67,73,4
1,73,93,4
1,57,81,4
1,62,92,0
1,66,87,2
1,69,84,764
1,74,81,512
1,76,81,134
1,64,90,4
1,66,70,0
1,69,82,0
1,73,82,0
1,64,83,104
1,57,86,0
1,61,82,0
1,54,66,0
1,69,91,188
1,66,91,308
1,64,100,78
1,62,92,6
1,59,80,0
1,52,83,0
1,55,84,2
1,59,91,34
1,55,93,28
1,64,93,20
1,62,82,0
1,55,83,2
1,57,82,0
1,64,82,26
1,62,91,0
1,57,82,0
1,55,73,4
1,61,93,4
1,66,83,4
1,62,92,0
1,57,83,0
1,62,86,38
1,66,73,2
1,57,91,0
1,76,91,380
1,81,81,4
1,81,81,22
1,78,82,4
1,66,80,16
1,64,93,2
1,69,80,2
1,73,84,0
1,69,87,36
1,66,82,0
1,61,82,4
1,64,82,292
1,62,92,10
1,59,80,2
1,52,83,0
1,55,84,2
1,59,87,82
1,55,82,66
1,62,82,38
1,64,93,0
1,57,82,2
1,55,83,0
1,55,64,70
1,62,89,0
1,57,73,0
1,55,82,32
1,62,91,0
1,64,82,0
1,57,91,0
1,64,82,20
1,57,82,0
1,55,82,2
1,61,91,0
1,50,74,10
1,57,70,12
1,62,81,14
1,66,91,28
2,26,91,7260
2,26,91,370
2,30,91,766
2,30,91,370
2,28,91,764
2,28,91,370
2,28,83,574
2,31,82,56
2,33,91,20
2,33,91,370
2,33,92,380
2,32,45,192
2,31,57,16
2,30,50,22
2,29,43,20
2,26,91,74
2,26,91,370
2,30,91,766
2,30,91,370
2,28,91,764
2,28,91,370
2,33,91,766
2,33,91,370
2,30,91,572
2,31,91,114
2,31,91,182
2,33,91,112
2,38,91,184
2,38,91,170
2,30,91,172
2,31,91,118
2,31,91,182
2,33,91,112
2,32,48,96
2,31,75,34
2,30,91,14
2,30,91,182
2,35,91,112
2,33,91,140
2,31,91,128
2,31,91,182
2,33,91,112
2,38,91,184
2,37,91,32
2,33,91,26
2,31,91,34
2,33,91,178
2,35,91,118
2,42,56,86
2,42,80,68
2,44,73,46
2,45,95,20
2,47,82,88
2,47,93,62
2,45,91,52
2,38,27,82
2,40,46,20
2,41,59,22
2,43,74,18
2,45,109,14
2,43,34,152
2,41,36,14
2,40,49,2
2,38,49,26
2,36,50,20
2,35,52,16
2,33,69,14
2,38,91,8
2,38,91,290
2,38,91,168
2,37,64,72
2,36,60,2
2,35,56,10
2,30,91,24
2,30,100,136
2,30,91,232
2,30,91,380
2,28,100,146
2,28,91,232
2,31,91,380
2,33,100,132
2,33,91,252
2,33,92,380
2,32,45,192
2,31,57,16
2,30,50,22
2,29,43,20
2,26,91,74
2,26,91,266
2,30,91,406
2,30,91,350
2,28,73,554
2,30,89,28
2,28,91,32
2,28,91,370
2,33,91,406
2,33,91,370
2,30,91,212
2,31,91,114
2,31,91,182
2,33,91,112
2,33,91,172
2,38,91,112
2,38,91,170
2,37,26,444
2,36,40,28
2,35,52,2
2,33,52,8
2,28,91,12
2,30,91,34
2,31,91,38
2,31,91,182
2,33,91,112
2,30,91,184
2,30,91,182
2,35,91,112
2,33,91,140
2,31,91,128
2,31,91,182
2,33,91,112
2,37,91,152
2,38,91,112
2,37,91,36
2,33,91,26
2,31,91,34
2,33,91,178
2,35,91,118
2,30,56,86
2,42,73,68
2,44,73,4
2,45,95,20
2,47,82,88
2,47,93,62
2,35,91,20
2,37,91,148
2,47,82,126
2,49,83,12
2,45,64,142
2,47,91,18
2,45,91,52
2,35,91,68
2,35,82,182
2,42,64,72
2,45,100,68
2,47,73,88
2,47,100,66
2,35,91,26
2,37,91,32
2,47,73,158
2,49,91,20
2,47,91,58
2,45,91,38
2,38,91,106
2,38,88,134
2,38,90,68
2,38,91,144
2,43,91,56
2,43,91,152
2,45,91,70
2,47,91,38
2,49,100,50
2,50,100,44
2,52,100,38
2,38,91,80
2,33,91,126
2,30,91,110
2,30,91,168
2,28,91,130
2,26,91,146
2,26,91,290
2,30,100,552
2,30,91,232
2,28,100,572
2,28,91,232
2,30,91,380
2,31,82,24
2,33,100,16
2,33,91,252
2,28,91,188
2,33,92,88
2,32,45,224
2,31,57,26
2,30,50,22
2,29,43,20
2,26,91,42
2,38,91,266
2,38,91,162
2,30,91,72
2,30,91,88
2,30,91,350
2,28,91,186
2,28,91,370
2,30,73,214
2,31,91,42
2,33,91,28
2,33,91,250
2,30,91,100
2,28,82,142
2,26,91,166
2,26,91,290
2,38,91,36
2,37,91,138
2,33,91,38
2,30,100,46
2,30,91,232
2,28,82,60
2,30,91,34
2,28,100,34
2,28,91,232
2,30,91,200
2,31,82,24
2,33,100,16
2,33,91,252
2,42,60,152
2,43,87,12
2,45,91,36
2,50,91,106
2,38,91,266
2,49,91,162
2,45,91,44
2,42,91,86
2,42,91,350
2,44,60,142
2,45,91,20
2,45,91,38
2,47,91,152
2,40,91,20
2,40,91,134
2,37,91,200
2,35,91,100
2,31,91,24
2,33,91,132
2,31,91,68
2,30,91,78
2,28,91,96
2,26,91,132
2,26,91,290
2,28,82,180
2,30,100,116
2,30,91,232
2,28,73,200
2,30,82,42
2,28,91,38
2,28,91,232
2,30,82,36
2,31,91,106
2,32,91,46
2,33,91,242
2,31,91,122
2,30,91,94
2,28,82,80
2,26,91,490
2,33,91,70
2,30,91,62
2,30,91,68
2,30,91,350
2,28,80,166
2,30,82,28
2,28,91,30
2,28,91,370
2,35,91,62
2,31,73,34
2,35,91,42
2,33,91,28
2,35,91,250
2,33,91,136
2,33,91,118
2,26,91,108
3,50,40,6878
3,57,44,6
3,62,60,24
3,66,67,38
3,52,82,214
3,55,91,2
3,54,36,80
3,57,56,2
3,66,73,2
3,57,87,234
3,59,58,80
3,67,81,76
3,61,90,342
3,62,60,86
3,69,82,84
3,50,40,498
3,57,44,6
3,62,60,24
3,66,67,38
3,52,82,252
3,55,91,2
3,54,36,80
3,57,56,2
3,66,73,2
3,57,90,234
3,59,58,80
3,67,81,76
3,62,90,342
3,64,60,86
3,69,82,80
3,57,58,192
3,61,91,376
3,62,52,84
3,71,82,92
3,55,91,616
3,57,58,4
3,66,82,96
3,60,83,618
3,61,68,22
3,62,52,42
3,71,87,76
3,54,52,714
3,57,48,30
3,61,56,28
3,64,64,32
3,59,73,108
3,62,60,34
3,66,60,36
3,71,64,34
3,61,82,14
3,60,60,190
3,61,48,24
3,62,64,16
3,71,91,88
3,62,69,34
3,62,52,16
3,71,91,32
3,69,73,0
3,57,64,58
3,64,87,2
3,66,64,48
3,69,82,124
3,57,56,6
3,64,73,12
3,61,64,16
3,55,56,6
3,62,64,6
3,52,75,0
3,54,49,58
3,59,81,76
3,62,91,230
3,64,60,4
3,62,73,38
3,59,82,86
3,57,64,96
3,54,64,80
3,50,73,2
3,57,73,2
3,64,73,6
3,50,40,736
3,57,44,6
3,62,60,24
3,66,67,38
3,52,82,214
3,55,91,2
3,54,36,80
3,57,56,2
3,66,73,2
3,57,87,234
3,59,58,80
3,67,81,76
3,61,90,342
3,62,60,86
3,69,82,84
3,50,40,498
3,57,44,6
3,62,60,24
3,66,67,38
3,52,82,252
3,55,91,2
3,54,36,80
3,57,56,2
3,66,73,2
3,57,90,234
3,59,58,80
3,67,81,76
3,62,90,342
3,64,60,86
3,69,82,80
3,64,58,28
3,60,63,372
3,61,52,34
3,62,64,24
3,71,82,68
3,67,73,196
3,59,82,62
3,61,56,208
3,62,49,40
3,64,52,46
3,69,73,4
3,64,64,26
3,52,82,42
3,54,52,92
3,57,81,0
3,62,50,196
3,66,64,204
3,60,63,202
3,61,52,34
3,62,64,24
3,71,82,68
3,67,73,196
3,59,82,62
3,61,56,208
3,62,49,40
3,64,52,46
3,69,73,4
3,54,52,20
3,57,48,30
3,61,56,28
3,64,64,32
3,59,44,48
3,62,56,24
3,66,56,14
3,71,64,24
3,61,52,50
3,64,60,12
3,69,64,14
3,60,36,64
3,61,52,22
3,62,63,36
3,71,91,0
3,57,64,858
3,64,87,2
3,66,64,48
3,69,82,124
3,57,56,12
3,64,73,12
3,61,64,104
3,55,56,6
3,62,64,16
3,52,75,0
3,54,49,58
3,59,73,76
3,54,32,12
3,59,63,10
3,62,64,20
3,54,52,212
3,59,64,2
3,57,64,64
3,57,95,10
3,59,64,0
3,57,64,54
3,54,52,80
3,50,64,80
3,57,73,2
3,64,73,6
3,61,48,6
3,64,64,6
3,71,64,6
3,57,60,36
3,59,52,56
3,62,64,26
3,66,60,40
3,66,52,4
3,71,48,2
3,62,52,2
3,71,60,24
3,62,56,2
3,66,56,0
3,69,91,42
3,64,73,10
3,71,60,76
3,66,56,10
3,69,64,64
3,64,56,0
3,64,91,54
3,69,91,8
3,71,40,2
3,66,24,10
3,64,44,88
3,69,48,0
3,69,71,16
3,64,73,0
3,76,81,4
3,68,28,198
3,75,22,10
3,67,39,4
3,63,16,8
3,66,32,22
3,62,39,4
3,74,40,0
3,73,41,2
3,55,48,2
3,61,39,2
3,65,38,6
3,60,48,0
3,64,60,10
