track,note,velocity,time
1,65,62,1336
1,72,85,0
1,75,80,0
1,79,82,0
1,72,70,364
1,81,70,4
1,77,70,0
1,72,82,342
1,77,85,0
1,81,82,0
1,72,82,114
1,76,82,0
1,79,76,0
1,72,87,226
1,76,87,0
1,79,80,0
1,74,85,114
1,81,85,0
1,77,95,0
1,72,78,302
1,76,82,0
1,79,82,0
1,74,72,378
1,82,80,0
1,77,80,0
1,74,58,286
1,79,64,0
1,82,58,0
1,76,55,710
1,79,60,0
1,84,70,0
1,72,70,364
1,81,70,4
1,77,70,0
1,72,82,342
1,77,85,0
1,81,82,0
1,72,82,114
1,76,82,0
1,79,76,0
1,72,87,226
1,76,87,0
1,79,80,0
1,74,80,114
1,77,80,0
1,81,80,0
1,76,82,302
1,72,78,0
1,79,82,0
1,74,72,378
1,77,80,0
1,82,80,0
1,74,58,286
1,79,64,0
1,82,58,0
1,76,55,710
1,79,60,0
1,84,70,0
1,72,60,364
1,77,60,4
1,81,60,0
1,72,82,342
1,77,85,0
1,81,82,0
1,72,75,114
1,76,75,0
1,79,75,0
1,72,87,226
1,76,87,0
1,79,80,0
1,74,85,114
1,77,95,0
1,81,85,0
1,72,78,302
1,76,82,0
1,79,82,0
1,74,72,378
1,77,80,0
1,82,80,0
1,74,58,286
1,79,64,0
1,82,58,0
1,76,55,710
1,79,60,0
1,84,70,0
2,41,60,4
2,41,56,96
2,41,52,112
2,41,45,104
2,41,46,116
2,41,44,92
2,41,44,112
2,41,41,108
2,41,55,112
2,41,45,100
2,41,54,104
2,41,51,100
2,41,48,116
2,41,44,100
2,41,47,108
2,41,47,108
2,41,61,116
2,41,51,96
2,41,47,104
2,41,47,100
2,41,42,112
2,41,55,92
2,41,64,112
2,36,70,4
2,48,68,12
2,48,72,96
2,48,66,100
2,45,66,4
2,50,59,0
2,50,59,64
2,50,60,96
2,50,60,100
2,46,49,8
2,46,50,112
2,46,49,100
2,46,43,124
2,46,54,116
2,46,48,112
2,46,48,104
2,46,57,92
2,41,61,8
2,41,49,80
2,41,51,100
2,41,57,104
2,41,51,116
2,41,53,104
2,41,49,116
2,41,48,112
2,41,58,116
2,41,60,92
2,41,54,108
2,41,60,100
2,41,52,112
2,41,51,88
2,41,52,104
2,41,60,96
2,48,68,20
2,48,58,68
2,48,76,96
2,48,76,104
2,50,76,0
2,50,60,48
2,50,60,96
2,50,70,92
2,46,62,32
2,46,53,96
2,46,47,96
2,46,43,116
2,46,43,112
2,46,37,112
2,46,43,116
2,46,54,92
2,41,61,16
2,41,53,104
2,41,47,108
2,41,56,104
2,41,60,108
2,41,60,100
2,41,55,100
2,41,63,84
2,46,60,0
2,46,58,100
2,46,58,124
2,46,59,108
2,46,60,120
2,46,60,116
2,46,60,116
2,46,64,116
2,41,68,92
2,41,61,100
2,41,62,124
2,43,66,48
2,43,64,104
2,43,64,100
2,43,68,116
2,43,70,100
2,39,51,20
2,39,52,84
2,39,53,108
2,39,55,104
2,39,58,112
2,39,53,112
2,39,57,116
2,39,57,108
2,46,59,32
2,46,59,84
2,46,55,108
2,46,55,100
2,46,57,108
2,46,53,108
2,46,51,108
2,46,53,108
2,46,60,116
2,46,53,108
2,46,57,100
2,46,57,104
2,46,60,112
2,46,53,108
2,46,57,112
2,46,60,108
2,41,68,88
2,41,61,108
2,41,66,120
2,43,66,16
2,43,66,96
2,43,59,100
2,43,64,104
2,43,66,116
2,39,55,36
2,39,52,100
2,39,52,108
2,39,51,112
2,39,58,112
2,39,51,108
2,39,54,120
2,39,59,116
2,46,62,32
2,46,55,104
2,46,57,108
2,46,61,100
2,46,66,100
2,46,68,104
2,46,66,120
2,46,89,116
2,53,85,12
2,53,80,140
2,52,70,196
2,52,66,116
2,50,66,188
2,50,70,168
2,48,78,12
2,48,74,168
2,46,57,4
2,46,45,116
2,46,48,108
2,46,52,104
2,46,48,128
2,46,48,120
2,46,51,112
2,46,54,104
2,46,58,100
2,46,53,104
2,46,51,104
2,46,52,100
2,46,55,104
2,46,56,108
2,46,53,124
2,46,66,124
2,53,60,188
2,53,72,128
2,52,70,196
2,52,72,140
2,50,59,188
2,50,74,120
2,48,78,196
2,48,63,116
2,46,58,188
2,46,55,100
2,46,52,100
2,46,52,100
2,46,47,104
2,46,48,96
2,46,60,104
2,40,78,188
2,41,66,92
2,43,63,96
2,43,55,88
2,43,59,100
2,43,53,104
2,43,57,100
2,43,53,100
2,43,58,108
2,43,58,112
2,48,66,8
2,48,55,104
2,48,57,112
2,48,57,108
2,48,58,104
2,48,53,108
2,48,59,108
2,48,68,120
2,41,61,12
2,41,51,96
2,41,47,104
2,41,47,100
2,41,42,112
2,41,55,92
2,41,64,112
2,36,70,4
2,48,68,12
2,48,72,96
2,48,66,100
2,45,66,4
2,50,59,0
2,50,59,64
2,50,60,96
2,50,60,100
2,46,49,8
2,46,50,112
2,46,49,100
2,46,43,124
2,46,54,116
2,46,48,112
2,46,48,104
2,46,57,92
2,41,61,8
2,41,49,80
2,41,51,100
2,41,57,104
2,41,51,116
2,41,53,104
2,41,49,116
2,41,48,112
2,41,58,116
2,41,60,92
2,41,54,108
2,41,60,100
2,41,52,112
2,41,51,88
2,41,52,104
2,41,60,96
2,48,68,20
2,48,58,68
2,48,76,96
2,48,76,104
2,50,76,0
2,50,60,48
2,50,60,96
2,50,70,92
2,46,62,32
2,46,53,96
2,46,47,96
2,46,43,116
2,46,43,112
2,46,37,112
2,46,43,116
2,46,54,92
2,41,61,16
2,41,53,104
2,41,47,108
2,41,56,104
2,41,60,108
2,41,60,100
2,41,55,100
2,41,63,84
2,46,60,0
2,46,58,100
2,46,58,124
2,46,59,108
2,46,60,120
2,46,60,116
2,46,60,116
2,46,64,116
2,41,68,92
2,41,61,100
2,41,62,124
2,43,66,48
2,43,64,104
2,43,64,100
2,43,68,116
2,43,70,100
2,39,51,20
2,39,52,84
2,39,53,108
2,39,55,104
2,39,58,112
2,39,53,112
2,39,57,116
2,39,57,108
2,46,59,32
2,46,59,84
2,46,55,108
2,46,55,100
2,46,57,108
2,46,53,108
2,46,51,108
2,46,53,108
2,46,60,116
2,46,53,108
2,46,57,108
2,46,57,104
2,46,60,112
2,46,53,108
2,46,57,112
2,46,60,108
2,41,68,88
2,41,61,108
2,41,66,120
2,43,66,16
2,43,66,96
2,43,59,100
2,43,64,104
2,43,66,116
2,39,55,36
2,39,52,100
2,39,52,108
2,39,51,112
2,39,58,112
2,39,51,108
2,39,54,120
2,39,59,116
2,46,62,32
2,46,55,104
2,46,57,108
2,46,61,100
2,46,66,100
2,46,68,104
2,46,66,120
2,46,89,116
2,53,85,4
2,53,80,144
2,52,70,196
2,52,66,116
2,50,66,188
2,50,70,168
2,48,78,12
2,48,74,168
2,46,57,4
2,46,45,116
2,46,48,108
2,46,52,104
2,46,48,128
2,46,48,120
2,46,51,112
2,46,54,104
2,46,58,100
2,46,53,104
2,46,51,104
2,46,52,100
2,46,55,104
2,46,56,108
2,46,53,124
2,46,66,124
2,53,60,188
2,53,72,128
2,52,70,196
2,52,72,140
2,50,59,188
2,50,74,120
2,48,78,196
2,48,63,116
2,46,58,188
2,46,55,100
2,46,52,100
2,46,52,100
2,46,47,104
2,46,48,96
2,46,60,104
2,40,78,188
2,41,66,92
2,43,63,96
2,43,55,88
2,43,59,100
2,43,53,104
2,43,57,100
2,43,53,100
2,43,58,108
2,43,58,112
2,48,66,8
2,48,55,104
2,48,57,112
2,48,57,108
2,48,58,104
2,48,53,108
2,48,59,108
2,48,68,120
2,41,58,4
2,41,60,96
2,41,54,108
2,41,60,100
2,41,52,112
2,41,51,88
2,41,52,104
2,41,60,96
2,48,68,20
2,48,58,68
2,48,76,96
2,48,76,104
2,50,76,0
2,50,60,48
2,50,60,96
2,50,70,92
2,46,62,32
2,46,53,96
2,46,47,96
2,46,43,116
2,46,43,112
2,46,37,112
2,46,43,116
2,46,54,92
2,41,61,16
2,41,53,104
2,41,47,108
2,41,56,104
2,41,60,108
2,41,60,100
2,41,55,100
2,41,63,88
2,46,60,0
2,46,58,100
2,46,58,124
2,46,59,108
2,46,60,120
2,46,60,116
2,46,60,116
2,46,64,116
2,41,68,92
2,41,61,100
2,41,62,124
2,43,66,48
2,43,64,104
2,43,64,100
2,43,68,116
2,43,70,100
2,39,51,20
2,39,52,84
2,39,53,108
2,39,55,104
2,39,58,112
2,39,53,112
2,39,57,116
2,39,57,108
2,46,59,32
2,46,59,84
2,46,55,108
2,46,55,100
2,46,57,108
2,46,53,108
2,46,51,108
2,46,53,108
2,46,60,116
2,46,53,108
2,46,57,108
2,46,57,104
2,46,60,112
2,46,53,108
2,46,57,112
2,46,60,108
2,41,68,88
2,41,61,108
2,41,66,120
2,43,66,16
2,43,66,96
2,43,59,100
2,43,64,104
2,43,66,116
2,39,55,36
2,39,52,100
2,39,52,108
2,39,51,112
2,39,58,112
2,39,51,108
2,39,54,120
2,39,59,116
2,46,62,32
2,46,55,104
2,46,57,108
2,46,61,100
2,46,66,100
2,46,68,104
2,46,66,120
2,46,89,116
2,53,85,4
2,53,80,144
2,52,70,196
2,52,66,116
2,50,66,188
2,50,70,168
2,48,78,12
2,48,74,164
2,46,57,4
2,46,45,116
2,46,48,108
2,46,52,104
2,46,48,128
2,46,48,120
2,46,51,112
2,46,54,104
2,46,58,100
2,46,53,104
2,46,51,104
2,46,52,100
2,46,55,104
2,46,56,108
2,46,53,124
2,46,66,124
2,53,60,188
2,53,72,128
2,52,70,196
2,52,72,140
2,50,59,188
2,50,74,120
2,48,78,196
2,48,63,116
2,46,58,188
2,46,55,100
2,46,52,100
2,46,52,100
2,46,47,104
2,46,48,96
2,46,60,104
2,40,78,188
2,41,66,80
2,43,63,96
2,43,55,88
2,43,59,100
2,43,53,104
2,43,57,100
2,43,53,100
2,43,58,108
2,43,58,112
2,48,66,8
2,48,55,104
2,48,57,112
2,48,57,108
2,48,58,104
2,48,53,108
2,48,59,108
2,48,68,120
2,41,61,4
2,41,51,100
2,41,47,104
2,41,47,100
2,41,42,112
2,41,55,92
2,41,64,112
2,36,70,4
2,48,68,12
2,48,72,96
2,48,66,100
2,45,66,4
2,50,59,0
2,50,59,64
2,50,60,96
2,50,60,100
2,46,49,8
2,46,50,112
2,46,49,100
2,46,43,124
2,46,54,116
2,46,48,112
2,46,48,104
2,46,57,92
2,41,61,8
2,41,49,80
2,41,51,100
2,41,57,104
2,41,51,116
2,41,53,104
2,41,49,116
2,41,48,112
2,41,58,116
2,41,60,92
2,41,54,108
2,41,60,100
2,41,52,112
2,41,51,88
2,41,52,104
2,41,60,96
2,48,68,20
2,48,58,68
2,48,76,96
2,48,76,104
2,50,76,0
2,50,60,48
2,50,60,96
2,50,70,92
2,46,62,32
2,46,53,96
2,46,47,96
2,46,43,116
2,46,43,112
2,46,37,112
2,46,43,116
2,46,54,92
2,41,61,16
2,41,53,108
2,41,47,112
2,41,56,104
2,41,60,108
2,41,60,100
2,41,55,100
2,41,63,84
2,41,61,0
2,41,51,100
2,41,47,104
2,41,47,100
2,41,42,112
2,41,55,92
2,41,64,112
2,36,70,4
2,48,68,12
2,48,72,96
2,48,66,100
2,45,66,4
2,50,59,0
2,50,59,64
2,50,60,96
2,50,60,100
2,46,49,8
2,46,50,112
2,46,49,100
2,46,43,124
2,46,54,116
2,46,48,112
2,46,48,104
2,46,57,92
2,41,61,8
2,41,49,80
2,41,51,100
2,41,57,104
2,41,51,116
2,41,53,104
2,41,49,116
2,41,48,112
2,41,58,116
2,41,60,92
2,41,54,108
2,41,60,100
2,41,52,112
2,41,51,88
2,41,52,104
2,41,60,96
2,48,68,20
2,48,58,68
2,48,76,96
2,48,76,104
2,50,76,0
2,50,60,48
2,50,60,96
2,50,70,92
2,46,62,32
2,46,53,96
2,46,47,96
2,46,43,116
2,46,43,112
2,46,37,112
2,46,43,116
2,46,54,92
2,41,61,16
2,41,53,104
2,41,47,108
2,41,56,104
2,41,60,108
2,41,60,100
2,41,55,100
2,41,63,84
2,41,61,4
2,41,51,100
2,41,47,104
2,41,47,100
2,41,42,112
2,41,55,92
2,41,64,112
2,36,70,4
2,48,68,12
2,48,72,96
2,48,66,100
2,45,66,4
2,50,59,0
2,50,59,64
2,50,60,96
2,50,60,100
2,46,49,8
2,46,50,112
2,46,49,100
2,46,43,124
2,46,54,116
2,46,48,112
2,46,48,104
2,46,57,92
2,41,61,8
2,41,49,80
2,41,51,100
2,41,57,104
2,41,51,116
2,41,53,104
2,41,49,116
2,41,48,112
2,41,58,116
2,41,60,92
2,41,54,108
2,41,60,100
2,41,52,112
2,41,51,88
2,41,52,104
2,41,60,96
2,48,68,20
2,48,58,68
2,48,76,96
2,48,76,104
2,50,76,0
2,50,60,48
2,50,60,96
2,50,70,92
2,46,62,32
2,46,53,96
2,46,47,96
2,46,43,116
2,46,43,112
2,46,37,112
2,46,43,116
2,46,54,92
2,41,61,16
2,41,53,104
2,41,47,108
2,41,56,104
2,41,60,108
2,41,60,100
2,41,55,100
2,41,63,84
2,46,60,0
3,65,89,4
3,53,91,0
3,48,66,1332
3,60,62,0
3,50,60,16
3,62,80,4
3,46,57,924
3,58,59,0
3,53,53,756
3,65,57,0
3,65,70,604
3,69,66,0
3,72,78,0
3,72,80,648
3,67,72,0
3,64,72,0
3,62,78,316
3,65,66,0
3,74,87,0
3,69,80,0
3,62,66,380
3,65,76,0
3,70,70,0
3,60,63,360
3,65,59,0
3,69,72,0
3,65,60,264
3,70,64,0
3,62,64,0
3,69,78,232
3,60,68,0
3,65,68,0
3,62,66,296
3,67,85,0
3,70,64,0
3,63,70,404
3,67,82,0
3,70,64,0
3,74,78,248
3,65,78,0
3,70,78,0
3,65,61,228
3,69,78,0
3,60,70,0
3,62,64,108
3,70,58,0
3,67,60,0
3,70,82,268
3,75,78,0
3,67,76,0
3,74,74,732
3,65,57,0
3,70,60,0
3,77,66,88
3,72,55,0
3,69,60,0
3,69,65,184
3,72,65,0
3,77,65,0
3,76,65,4
3,67,65,0
3,67,65,104
3,76,65,0
3,72,65,0
3,74,65,16
3,69,65,0
3,77,65,0
3,77,65,116
3,74,65,0
3,69,65,0
3,76,65,16
3,72,65,0
3,67,65,0
3,65,65,272
3,70,65,0
3,74,65,0
3,72,65,1208
3,77,65,0
3,69,65,0
3,69,65,148
3,72,65,0
3,77,65,0
3,76,65,212
3,67,65,0
3,76,65,116
3,67,65,0
3,72,65,0
3,69,65,4
3,74,65,0
3,77,65,0
3,77,65,128
3,74,65,0
3,69,65,0
3,72,65,8
3,76,65,0
3,67,65,0
3,67,65,204
3,72,65,0
3,76,65,0
3,74,65,4
3,70,65,0
3,65,65,0
3,62,65,900
3,70,65,0
3,67,65,0
3,67,65,740
3,64,65,0
3,72,65,0
3,65,70,0
3,72,78,0
3,69,66,0
3,72,80,648
3,67,72,0
3,64,72,0
3,62,78,316
3,65,66,0
3,74,87,0
3,69,80,4
3,62,66,380
3,65,76,0
3,70,70,0
3,60,63,360
3,65,59,0
3,69,72,0
3,69,66,240
3,65,70,0
3,72,78,0
3,72,80,648
3,67,72,0
3,64,72,0
3,62,78,316
3,65,66,0
3,74,87,0
3,69,80,0
3,62,66,380
3,65,76,0
3,70,70,0
3,60,63,360
3,65,59,0
3,69,72,0
3,65,60,264
3,70,64,0
3,62,64,0
3,69,78,232
3,60,68,0
3,65,68,0
3,62,66,296
3,67,85,0
3,70,64,0
3,63,70,404
3,67,82,0
3,70,64,0
3,74,78,248
3,65,78,0
3,70,78,0
3,65,61,228
3,69,78,0
3,60,70,0
3,62,64,108
3,70,58,0
3,67,60,0
3,70,82,268
3,75,78,0
3,67,76,0
3,74,74,732
3,65,57,0
3,70,60,0
3,72,55,96
3,77,66,0
3,69,60,0
3,69,65,176
3,72,65,0
3,77,65,0
3,76,65,4
3,67,65,0
3,67,65,104
3,76,65,0
3,72,65,0
3,74,65,16
3,69,65,0
3,77,65,0
3,77,65,116
3,74,65,0
