track,note,velocity,time
0,50,80,120
0,57,80,0
0,62,80,0
0,74,80,0
0,74,80,0
0,62,80,0
0,57,80,0
0,50,80,0
0,50,80,12
0,62,80,0
0,57,80,0
0,74,80,0
0,74,80,0
0,57,80,0
0,62,80,0
0,50,80,0
0,74,80,0
0,62,80,0
0,57,80,0
0,50,80,0
0,74,80,0
0,50,80,0
0,57,80,0
0,62,80,0
0,74,80,24
0,62,80,0
0,57,80,0
0,50,80,0
0,74,80,0
0,50,80,0
0,57,80,0
0,62,80,0
0,76,80,12
0,62,80,0
0,57,80,0
0,50,80,0
0,76,80,0
0,50,80,0
0,57,80,0
0,62,80,0
0,76,80,12
0,62,80,0
0,57,80,0
0,50,80,0
0,76,80,0
0,50,80,0
0,57,80,0
0,62,80,0
0,76,80,12
0,62,80,0
0,50,80,0
0,57,80,0
0,76,80,0
0,57,80,0
0,50,80,0
0,62,80,0
0,78,80,12
0,62,80,0
0,57,80,0
0,50,80,0
0,78,80,0
0,50,80,0
0,57,80,0
0,62,80,0
0,78,80,24
0,62,80,0
0,57,80,0
0,50,80,0
0,78,80,0
0,50,80,0
0,57,80,0
0,62,80,0
0,76,80,12
0,62,80,0
0,57,80,0
0,50,80,0
0,76,80,0
0,50,80,0
0,57,80,0
0,62,80,0
0,78,80,12
0,50,80,0
0,57,80,0
0,62,80,0
0,78,80,0
0,62,80,0
0,57,80,0
0,50,80,0
0,78,80,12
0,62,80,0
0,57,80,0
0,50,80,0
0,78,80,0
0,50,80,0
0,57,80,0
0,62,80,0
0,79,80,12
0,79,80,0
0,76,80,12
0,62,80,0
0,57,80,0
0,50,80,0
0,76,80,0
0,50,80,0
0,57,80,0
0,62,80,0
0,76,80,12
0,62,80,0
0,57,80,0
0,50,80,0
0,76,80,0
0,50,80,0
0,57,80,0
0,62,80,0
0,76,80,12
0,57,80,0
0,64,80,0
0,69,80,0
0,76,80,0
0,69,80,0
0,64,80,0
0,57,80,0
0,76,80,24
0,69,80,0
0,64,80,0
0,57,80,0
0,76,80,0
0,57,80,0
0,64,80,0
0,69,80,0
0,57,80,12
0,64,80,0
0,69,80,0
0,78,80,0
0,78,80,0
0,69,80,0
0,64,80,0
0,57,80,0
0,78,80,12
0,69,80,0
0,64,80,0
0,57,80,0
0,78,80,0
0,57,80,0
0,64,80,0
0,69,80,0
0,78,80,12
0,69,80,0
0,64,80,0
0,57,80,0
0,78,80,0
0,57,80,0
0,64,80,0
0,69,80,0
0,76,80,8
0,76,80,0
0,74,80,8
0,74,80,0
0,76,80,8
0,69,80,0
0,64,80,0
0,57,80,0
0,76,80,0
0,57,80,0
0,64,80,0
0,69,80,0
0,76,80,24
0,69,80,0
0,64,80,0
0,57,80,0
0,76,80,0
0,57,80,0
0,64,80,0
0,69,80,0
0,78,80,12
0,69,80,0
0,64,80,0
0,57,80,0
0,78,80,0
0,57,80,0
0,64,80,0
0,69,80,0
0,76,80,12
0,69,80,0
0,64,80,0
0,57,80,0
0,76,80,0
0,57,80,0
0,64,80,0
0,69,80,0
0,74,80,24
0,67,80,0
0,62,80,0
0,55,80,0
0,74,80,0
0,55,80,0
0,62,80,0
0,67,80,0
0,55,80,12
0,62,80,0
0,67,80,0
0,74,80,0
0,74,80,0
0,67,80,0
0,62,80,0
0,55,80,0
0,74,80,24
0,67,80,0
0,62,80,0
0,55,80,0
0,74,80,0
0,55,80,0
0,62,80,0
0,67,80,0
0,55,80,12
0,62,80,0
0,67,80,0
0,76,80,0
0,76,80,0
0,67,80,0
0,62,80,0
0,55,80,0
0,55,80,12
0,76,80,0
0,67,80,0
0,62,80,0
0,76,80,0
0,55,80,0
0,62,80,0
0,67,80,0
0,55,80,12
0,62,80,0
0,67,80,0
0,74,80,0
0,74,80,0
0,67,80,0
0,62,80,0
0,55,80,0
0,55,80,11
0,74,80,0
0,67,80,0
0,62,80,0
0,74,80,0
0,67,80,0
0,55,80,0
0,62,80,0
0,67,80,12
0,74,80,0
0,55,80,0
0,62,80,0
0,74,80,0
0,67,80,0
0,62,80,0
0,55,80,0
0,55,80,12
0,74,80,0
0,67,80,0
0,62,80,0
0,74,80,0
0,55,80,0
0,62,80,0
0,67,80,0
0,55,80,12
0,62,80,0
0,67,80,0
0,74,80,0
0,74,80,0
0,67,80,0
0,62,80,0
0,55,80,0
0,50,80,24
0,62,80,0
0,67,80,0
0,71,80,0
0,57,80,0
0,71,80,0
0,62,80,0
0,50,80,0
0,57,80,0
0,67,80,0
0,62,80,12
0,67,80,0
0,71,80,0
0,57,80,0
0,50,80,0
0,71,80,0
0,50,80,0
0,57,80,0
0,67,80,0
0,62,80,0
0,50,80,12
0,57,80,0
0,62,80,0
0,79,80,0
0,79,80,0
0,62,80,0
0,57,80,0
0,50,80,0
0,78,80,12
0,62,80,0
0,57,80,0
0,50,80,0
0,78,80,0
0,50,80,0
0,57,80,0
0,62,80,0
0,78,80,24
0,62,80,0
0,57,80,0
0,50,80,0
0,78,80,0
0,50,80,0
0,57,80,0
0,62,80,0
0,78,80,24
0,62,80,0
0,57,80,0
0,50,80,0
0,78,80,0
0,50,80,0
0,57,80,0
0,62,80,0
0,76,80,12
0,62,80,0
0,57,80,0
0,50,80,0
0,76,80,0
0,50,80,0
0,57,80,0
0,62,80,0
0,78,80,12
0,62,80,0
0,57,80,0
0,50,80,0
0,78,80,0
0,50,80,0
0,57,80,0
0,62,80,0
0,41,80,0
0,33,80,0
0,35,80,0
0,36,80,0
0,43,80,12
0,45,80,0
0,35,80,0
0,16,80,0
0,40,80,0
0,78,80,12
0,62,80,0
0,57,80,0
0,50,80,0
0,78,80,0
0,50,80,0
0,57,80,0
0,62,80,0
0,41,80,0
0,33,80,0
0,35,80,0
0,36,80,0
0,76,80,12
0,62,80,0
0,57,80,0
0,50,80,0
0,76,80,0
0,50,80,0
0,57,80,0
0,62,80,0
0,74,80,12
0,74,80,0
0,41,80,0
0,33,80,0
0,35,80,0
0,36,80,0
0,74,80,12
0,62,80,0
0,57,80,0
0,50,80,0
0,74,80,0
0,62,80,0
0,50,80,0
0,57,80,0
0,74,127,0
0,74,127,0
0,69,127,0
0,62,127,0
0,47,80,0
0,16,80,0
0,33,80,0
0,35,80,0
0,45,80,0
0,40,80,0
0,36,80,0
0,62,127,12
0,69,127,0
0,74,127,0
0,45,80,0
0,33,80,0
0,35,80,0
0,43,80,0
0,36,80,0
0,74,80,12
0,62,80,0
0,57,80,0
0,50,80,0
0,74,80,0
0,50,80,0
0,62,80,0
0,57,80,0
0,69,80,0
0,74,80,0
0,62,80,0
0,57,80,0
0,50,80,0
0,38,80,0
0,43,80,0
0,33,80,0
0,35,80,0
0,41,80,0
0,36,80,0
0,74,80,12
0,62,80,0
0,57,80,0
0,50,80,0
0,74,80,0
0,50,80,0
0,57,80,0
0,62,80,0
0,69,80,0
0,74,80,0
0,62,80,0
0,57,80,0
0,50,80,0
0,38,80,0
0,43,80,0
0,33,80,0
0,35,80,0
0,41,80,0
0,36,80,0
0,50,80,12
0,57,80,0
0,62,80,0
0,74,80,0
0,74,80,0
0,62,80,0
0,57,80,0
0,50,80,0
0,50,80,0
0,57,80,0
0,62,80,0
0,69,80,0
0,74,80,0
0,38,80,0
0,57,80,0
0,49,80,0
0,36,80,0
0,35,80,0
0,33,80,0
0,74,80,24
0,50,80,0
0,57,80,0
0,62,80,0
0,74,80,0
0,62,80,0
0,57,80,0
0,50,80,0
0,49,80,0
0,50,80,12
0,57,80,0
0,62,80,0
0,76,80,0
0,76,80,0
0,62,80,0
0,57,80,0
0,50,80,0
0,50,80,0
0,57,80,0
0,62,80,0
0,69,80,0
0,74,80,0
0,38,80,0
0,36,80,0
0,35,80,0
0,33,80,0
0,50,80,12
0,57,80,0
0,62,80,0
0,69,80,0
0,74,80,0
0,50,80,0
0,49,80,0
0,40,80,0
0,50,80,12
0,57,80,0
0,62,80,0
0,76,80,0
0,76,80,0
0,62,80,0
0,57,80,0
0,50,80,0
0,57,80,12
0,50,80,0
0,62,80,0
0,76,80,0
0,76,80,0
0,62,80,0
0,50,80,0
0,57,80,0
0,74,80,0
0,50,80,0
0,57,80,0
0,62,80,0
0,69,80,0
0,50,80,0
0,49,80,0
0,57,80,12
0,62,80,0
0,78,80,0
0,50,80,0
0,78,80,0
0,57,80,0
0,50,80,0
0,62,80,0
0,50,80,0
0,36,80,0
0,33,80,0
0,35,80,0
0,50,80,12
0,49,80,0
0,62,80,12
0,78,80,0
0,50,80,0
0,57,80,0
0,78,80,0
0,62,80,0
0,57,80,0
0,50,80,0
0,50,80,0
0,50,80,12
0,57,80,0
0,62,80,0
0,76,80,0
0,76,80,0
0,62,80,0
0,57,80,0
0,50,80,0
0,50,80,0
0,57,80,0
0,62,80,0
0,69,80,0
0,74,80,0
0,38,80,0
0,49,80,0
0,36,80,0
0,35,80,0
0,33,80,0
0,62,80,12
0,57,80,0
0,50,80,0
0,78,80,0
0,78,80,0
0,50,80,0
0,57,80,0
0,62,80,0
0,62,80,0
0,57,80,0
0,50,80,0
0,69,80,0
0,74,80,0
0,50,80,12
0,57,80,0
0,62,80,0
0,78,80,0
0,78,80,0
0,62,80,0
0,57,80,0
0,50,80,0
0,50,80,0
0,57,80,0
0,62,80,0
0,69,80,0
0,74,80,0
0,38,80,0
0,40,80,0
0,49,80,0
0,79,80,12
0,79,80,0
0,50,80,0
0,76,80,12
0,50,80,0
0,57,80,0
0,62,80,0
0,76,80,0
0,62,80,0
0,57,80,0
0,50,80,0
0,74,80,0
0,62,80,0
0,57,80,0
0,50,80,0
0,69,80,0
0,52,80,0
0,49,80,0
0,76,80,12
0,50,80,0
0,57,80,0
0,62,80,0
0,76,80,0
0,62,80,0
0,57,80,0
0,50,80,0
0,74,80,0
0,50,80,0
0,57,80,0
0,62,80,0
0,69,80,0
0,50,80,0
0,76,80,12
0,69,80,0
0,64,80,0
0,57,80,0
0,76,80,0
0,57,80,0
0,64,80,0
0,69,80,0
0,76,80,0
0,81,80,0
0,69,80,0
0,64,80,0
0,57,80,0
0,45,80,0
0,33,80,0
0,35,80,0
0,36,80,0
0,49,80,0
0,57,80,0
0,76,80,24
0,57,80,0
0,64,80,0
0,69,80,0
0,76,80,0
0,69,80,0
0,64,80,0
0,57,80,0
0,81,80,0
0,76,80,0
0,57,80,0
0,64,80,0
0,69,80,0
0,49,80,0
0,78,80,12
0,69,80,0
0,64,80,0
0,57,80,0
0,78,80,0
0,57,80,0
0,64,80,0
0,69,80,0
0,81,80,0
0,76,80,0
0,69,80,0
0,64,80,0
0,57,80,0
0,45,80,0
0,33,80,0
0,35,80,0
0,36,80,0
0,69,80,12
0,57,80,0
0,64,80,0
0,81,80,0
0,76,80,0
0,45,80,0
0,40,80,0
0,49,80,0
0,57,80,12
0,64,80,0
0,69,80,0
0,78,80,0
0,78,80,0
0,69,80,0
0,64,80,0
0,57,80,0
0,81,80,0
0,69,80,0
0,64,80,0
0,57,80,0
0,76,80,0
0,49,80,0
0,57,80,12
0,64,80,0
0,69,80,0
0,78,80,0
0,78,80,0
0,69,80,0
0,64,80,0
0,57,80,0
0,81,80,0
0,76,80,0
0,69,80,0
0,64,80,0
0,57,80,0
0,50,80,0
0,49,80,0
0,76,80,8
0,76,80,0
0,49,80,12
0,35,80,0
0,33,80,0
0,36,80,0
0,74,80,8
0,74,80,0
0,57,80,8
0,64,80,0
0,69,80,0
0,76,80,0
0,76,80,0
0,69,80,0
0,64,80,0
0,57,80,0
0,57,80,0
0,64,80,0
0,69,80,0
0,76,80,0
0,81,80,0
0,49,80,0
0,49,80,0
0,57,80,24
0,64,80,0
0,69,80,0
0,76,80,0
0,76,80,0
0,69,80,0
0,64,80,0
0,57,80,0
0,69,80,0
0,64,80,0
0,57,80,0
0,76,80,0
0,81,80,0
0,49,80,0
0,33,80,0
0,35,80,0
0,36,80,0
0,49,80,0
0,57,80,12
0,64,80,0
0,69,80,0
0,78,80,0
0,78,80,0
0,69,80,0
0,64,80,0
0,57,80,0
0,57,80,0
0,64,80,0
0,69,80,0
0,76,80,0
0,81,80,0
0,50,80,0
0,57,80,12
0,64,80,0
0,69,80,0
0,76,80,0
0,81,80,0
0,49,80,0
0,40,80,0
0,57,80,12
0,64,80,0
0,69,80,0
0,76,80,0
0,76,80,0
0,69,80,0
0,64,80,0
0,57,80,0
0,52,80,0
0,69,80,12
0,64,80,0
0,57,80,0
0,76,80,0
0,81,80,0
0,50,80,0
0,49,80,0
0,55,80,12
0,62,80,0
0,67,80,0
0,74,80,0
0,74,80,0
0,67,80,0
0,62,80,0
0,55,80,0
0,57,80,0
0,64,80,0
0,69,80,0
0,76,80,0
0,81,80,0
0,50,80,0
0,74,80,12
0,67,80,0
0,62,80,0
0,55,80,0
0,74,80,0
0,55,80,0
0,62,80,0
0,67,80,0
0,55,80,0
0,62,80,0
0,67,80,0
0,74,80,0
0,79,80,0
0,43,80,0
0,33,80,0
0,35,80,0
0,36,80,0
0,49,80,0
0,57,80,0
0,55,80,24
0,62,80,0
0,67,80,0
0,74,80,0
0,74,80,0
0,67,80,0
0,62,80,0
0,55,80,0
0,67,80,0
0,62,80,0
0,55,80,0
0,74,80,0
0,79,80,0
0,49,80,0
0,76,80,12
0,67,80,0
0,62,80,0
0,55,80,0
0,76,80,0
0,55,80,0
0,62,80,0
0,67,80,0
0,55,80,0
0,62,80,0
0,67,80,0
0,74,80,0
0,79,80,0
0,43,80,0
0,33,80,0
0,35,80,0
0,36,80,0
0,74,80,12
0,79,80,0
0,62,80,0
0,55,80,0
0,67,80,0
0,43,80,0
0,40,80,0
0,49,80,0
0,55,80,12
0,62,80,0
0,67,80,0
0,76,80,0
0,76,80,0
0,67,80,0
0,62,80,0
0,55,80,0
0,74,80,0
0,55,80,0
0,62,80,0
0,67,80,0
0,79,80,0
0,38,80,0
0,74,80,12
0,67,80,0
0,62,80,0
0,55,80,0
0,74,80,0
0,55,80,0
0,62,80,0
0,67,80,0
0,55,80,0
0,62,80,0
0,67,80,0
0,74,80,0
0,79,80,0
0,41,80,0
0,49,80,0
0,43,80,12
0,35,80,0
0,33,80,0
0,36,80,0
0,55,80,12
0,62,80,0
0,67,80,0
0,74,80,0
0,79,80,0
0,49,80,0
0,55,80,11
0,62,80,0
0,67,80,0
0,74,80,0
0,74,80,0
0,67,80,0
0,62,80,0
0,55,80,0
0,74,80,0
0,67,80,0
0,62,80,0
0,55,80,0
0,79,80,0
0,43,80,0
0,67,80,12
0,62,80,0
0,55,80,0
0,74,80,0
0,74,80,0
0,55,80,0
0,62,80,0
0,67,80,0
0,55,80,0
0,62,80,0
0,67,80,0
0,74,80,0
0,79,80,0
0,43,80,0
0,33,80,0
0,35,80,0
0,36,80,0
0,49,80,0
0,55,80,12
0,62,80,0
0,67,80,0
0,74,80,0
0,74,80,0
0,67,80,0
0,62,80,0
0,55,80,0
0,67,80,0
0,62,80,0
0,55,80,0
0,74,80,0
0,79,80,0
0,38,80,0
0,74,80,12
0,67,80,0
0,62,80,0
0,55,80,0
0,74,80,0
0,55,80,0
0,62,80,0
0,67,80,0
0,55,80,0
0,62,80,0
0,67,80,0
0,74,80,0
0,79,80,0
0,41,80,0
0,49,80,0
0,40,80,0
0,43,80,12
0,50,80,12
0,57,80,0
0,71,80,0
0,67,80,0
0,62,80,0
0,71,80,0
0,62,80,0
0,67,80,0
0,57,80,0
0,50,80,0
0,74,80,0
0,67,80,0
0,62,80,0
0,55,80,0
0,79,80,0
0,43,80,0
0,49,80,0
0,50,80,12
0,57,80,0
0,71,80,0
0,67,80,0
0,62,80,0
0,71,80,0
0,62,80,0
0,67,80,0
0,57,80,0
0,50,80,0
0,38,80,0
0,79,80,12
0,62,80,0
0,57,80,0
0,50,80,0
0,79,80,0
0,50,80,0
0,57,80,0
0,62,80,0
0,55,80,0
0,62,80,0
0,43,80,0
0,57,80,0
0,40,80,0
0,33,80,0
0,35,80,0
0,36,80,0
0,49,80,0
