track,note,velocity,time
0,42,85,4
0,42,85,360
0,42,85,360
0,42,85,360
0,36,24,667
0,36,13,287
0,36,31,644
0,36,23,298
0,36,33,669
0,36,18,281
0,36,40,642
0,36,30,323
0,36,62,622
0,36,45,304
0,48,76,15
0,59,102,0
0,60,72,161
0,60,70,60
0,55,80,27
0,50,68,192
0,36,58,6
0,48,60,122
0,36,46,21
0,55,85,8
0,60,80,14
0,50,66,131
0,48,70,125
0,60,87,84
0,62,87,32
0,36,58,1
0,55,95,13
0,36,45,54
0,50,66,114
0,60,91,26
0,48,72,145
0,55,82,73
0,36,57,81
0,50,70,34
0,59,82,7
0,60,105,13
0,59,82,62
0,48,60,18
0,36,44,76
0,47,76,44
0,59,87,2
0,60,72,176
0,60,82,47
0,55,93,13
0,50,72,155
0,47,66,112
0,55,85,23
0,60,64,27
0,50,72,130
0,47,66,124
0,60,66,43
0,62,93,40
0,55,91,115
0,50,70,154
0,60,72,35
0,47,64,138
0,55,91,113
0,50,68,156
0,59,89,6
0,60,100,9
0,47,61,14
0,59,59,1
0,59,51,40
0,45,80,44
0,59,85,30
0,60,52,143
0,55,72,105
0,60,74,2
0,50,72,138
0,45,72,140
0,55,82,24
0,60,68,18
0,50,70,128
0,45,72,113
0,59,102,164
0,60,82,4
0,59,45,89
0,59,66,63
0,55,78,31
0,50,72,141
0,45,57,109
0,55,87,43
0,59,78,15
0,50,68,144
0,45,63,105
0,45,66,58
0,59,72,26
0,60,82,79
0,59,68,10
0,60,74,95
0,55,87,6
0,50,70,100
0,45,61,135
0,60,64,78
0,55,87,42
0,50,80,145
0,45,70,115
0,59,63,43
0,60,82,15
0,59,64,77
0,59,46,65
0,55,68,10
0,50,78,151
0,45,63,137
0,55,76,43
0,59,72,14
0,50,74,139
0,67,100,116
0,45,57,0
0,71,98,44
0,48,82,0
0,59,83,0
0,48,76,0
0,59,102,0
0,60,53,166
0,60,72,0
0,60,51,1
0,60,70,0
0,72,93,27
0,55,82,0
0,44,100,0
0,55,80,0
0,50,70,168
0,50,68,0
0,72,105,66
0,48,70,0
0,48,60,0
0,55,87,29
0,55,85,0
0,60,61,4
0,60,80,0
0,50,82,131
0,44,87,0
0,50,66,0
0,48,82,117
0,48,70,0
0,60,68,84
0,60,87,0
0,62,68,32
0,62,87,0
0,55,80,13
0,44,76,0
0,55,95,0
0,50,82,23
0,50,66,0
0,60,72,26
0,60,91,0
0,48,68,27
0,48,72,0
0,55,78,73
0,55,82,0
0,50,78,132
0,44,68,0
0,50,70,0
0,59,63,7
0,59,82,0
0,60,86,13
0,60,105,0
0,59,63,62
0,59,82,0
0,67,91,18
0,48,70,0
0,48,60,0
0,71,110,18
0,47,70,0
0,47,76,0
0,59,68,2
0,59,87,0
0,60,53,0
0,60,72,0
0,60,63,47
0,60,82,0
0,72,89,13
0,55,80,0
0,44,100,0
0,55,93,0
0,72,116,51
0,50,70,0
0,50,72,0
0,47,76,81
0,47,66,0
0,55,64,23
0,55,85,0
0,60,45,27
0,60,64,0
0,50,70,1
0,44,87,0
0,50,72,0
0,47,78,124
0,47,66,0
0,60,47,43
0,60,66,0
0,62,74,12
0,62,93,0
0,55,68,113
0,44,76,0
0,55,91,0
0,50,64,153
0,50,70,0
0,60,53,35
0,60,72,0
0,47,68,92
0,47,64,0
0,55,72,113
0,55,91,0
0,50,78,156
0,44,68,0
0,50,68,0
0,59,70,6
0,59,89,0
0,60,81,9
0,60,100,0
0,47,70,14
0,47,61,0
0,59,40,1
0,59,59,0
0,59,32,40
0,59,51,0
0,71,116,13
0,45,82,0
0,45,80,0
0,59,66,30
0,59,85,0
0,60,33,143
0,60,52,0
0,72,110,42
0,55,85,0
0,44,100,0
0,55,72,0
0,60,55,2
0,60,74,0
0,50,68,138
0,50,72,0
0,72,113,14
0,45,80,0
0,45,72,0
0,55,85,24
0,55,82,0
0,60,49,18
0,60,68,0
0,50,68,9
0,44,87,0
0,50,70,0
0,45,80,88
0,45,72,0
0,59,83,76
0,59,102,0
0,60,63,4
0,60,82,0
0,59,26,89
0,59,45,0
0,59,47,55
0,59,66,0
0,55,87,31
0,44,76,0
0,55,78,0
0,50,66,141
0,50,72,0
0,45,68,6
0,45,57,0
0,55,82,43
0,55,87,0
0,59,59,15
0,59,78,0
0,50,68,144
0,44,68,0
0,50,68,0
0,67,107,105
0,45,54,0
0,45,63,0
0,71,122,36
0,45,85,0
0,45,66,0
0,59,53,26
0,59,72,0
0,60,63,79
0,60,82,0
0,59,49,10
0,59,68,0
0,60,55,22
0,60,74,0
0,72,98,6
0,55,80,0
0,44,100,0
0,55,87,0
0,72,107,31
0,50,66,0
0,50,70,0
0,45,72,116
0,45,61,0
0,60,45,78
0,60,64,0
0,55,89,42
0,55,87,0
0,50,68,4
0,44,87,0
0,50,80,0
0,45,74,0
0,45,70,0
0,59,44,43
0,59,63,0
0,60,63,15
0,60,82,0
0,59,45,77
0,59,64,0
0,59,27,65
0,59,46,0
0,55,85,10
0,44,76,0
0,55,68,0
0,50,68,86
0,50,78,0
0,45,68,120
0,45,63,0
0,55,87,43
0,55,76,0
0,59,53,14
0,59,72,0
0,50,63,27
0,44,68,0
0,50,74,0
0,67,105,112
0,45,68,0
0,45,57,0
0,36,113,1
0,71,119,0
0,48,82,0
0,59,83,0
0,36,95,0
0,53,85,0
0,48,76,0
0,59,102,0
0,60,53,100
0,60,72,0
0,60,51,20
0,60,70,0
0,72,100,27
0,55,82,0
0,44,100,0
0,55,80,0
0,50,70,168
0,50,68,0
0,72,102,59
0,48,70,0
0,48,60,0
0,55,87,29
0,55,85,0
0,60,61,4
0,60,80,0
0,50,82,11
0,44,87,0
0,50,66,0
0,48,82,15
0,48,70,0
0,60,68,19
0,60,87,0
0,62,68,32
0,62,87,0
0,55,80,13
0,44,76,0
0,55,95,0
0,50,82,23
0,50,66,0
0,60,72,26
0,60,91,0
0,48,68,21
0,48,72,0
0,55,78,73
0,55,82,0
0,50,78,132
0,44,68,0
0,50,70,0
0,59,63,7
0,59,82,0
0,60,86,13
0,60,105,0
0,59,63,9
0,59,82,0
0,67,107,18
0,48,70,0
0,48,60,0
0,35,119,18
0,71,119,0
0,47,70,0
0,47,76,0
0,59,68,2
0,59,87,0
0,60,53,0
0,60,72,0
0,60,63,22
0,60,82,0
0,72,87,13
0,55,80,0
0,44,100,0
0,55,93,0
0,72,102,22
0,50,70,0
0,50,72,0
0,47,76,13
0,47,66,0
0,55,64,7
0,55,85,0
0,60,45,9
0,60,64,0
0,50,70,95
0,44,87,0
0,50,72,0
0,47,78,75
0,47,66,0
0,60,47,43
0,60,66,0
0,62,74,12
0,62,93,0
0,55,68,12
0,44,76,0
0,55,91,0
0,50,64,52
0,50,70,0
0,60,53,12
0,60,72,0
0,47,68,42
0,47,64,0
0,55,72,22
0,55,91,0
0,50,78,2
0,44,68,0
0,50,68,0
0,59,70,1
0,59,89,0
0,60,81,6
0,60,100,0
0,67,87,14
0,47,70,0
0,47,61,0
0,59,40,1
0,59,59,0
0,59,32,10
0,59,51,0
0,33,122,13
0,71,113,0
0,45,82,0
0,45,80,0
0,59,66,30
0,59,85,0
0,60,33,143
0,60,52,0
0,72,80,24
0,55,85,0
0,44,100,0
0,55,72,0
0,60,55,2
0,60,74,0
0,50,68,138
0,50,72,0
0,72,107,14
0,45,80,0
0,45,72,0
0,55,85,12
0,55,82,0
0,60,49,5
0,60,68,0
0,50,68,2
0,44,87,0
0,50,70,0
0,45,80,57
0,45,72,0
0,59,83,7
0,59,102,0
0,60,63,4
0,60,82,0
0,59,26,80
0,59,45,0
0,59,47,37
0,59,66,0
0,55,87,31
0,44,76,0
0,55,78,0
0,50,66,10
0,50,72,0
0,45,68,6
0,45,57,0
0,55,82,43
0,55,87,0
0,59,59,15
0,59,78,0
0,50,68,46
0,44,68,0
0,50,68,0
0,67,122,105
0,45,54,0
0,45,63,0
0,33,122,36
0,71,127,0
0,45,85,0
0,45,66,0
0,59,53,26
0,59,72,0
0,60,63,79
0,60,82,0
0,59,49,10
0,59,68,0
0,49,1,16
0,60,55,47
0,60,74,0
0,72,105,6
0,55,80,0
0,44,100,0
0,55,87,0
0,57,1,11
0,49,1,70
0,72,122,3
0,50,66,0
0,50,70,0
0,57,11,14
0,49,6,9
0,45,72,5
0,45,61,0
0,57,17,12
0,60,45,42
0,60,64,0
0,49,21,18
0,55,89,6
0,55,87,0
0,57,42,12
0,49,14,59
0,50,68,4
0,44,87,0
0,50,80,0
0,57,58,8
0,49,51,2
0,45,74,2
0,45,70,0
0,57,64,6
0,49,56,21
0,57,70,7
0,59,44,0
0,59,63,0
0,49,56,1
0,60,63,14
0,60,82,0
0,57,67,32
0,59,45,21
0,59,64,0
0,49,58,36
0,57,67,6
0,59,27,3
0,59,46,0
0,55,85,10
0,44,76,0
0,55,68,0
0,49,64,1
0,57,64,3
0,49,53,22
0,74,119,8
0,50,68,0
0,50,78,0
0,57,61,27
0,49,58,22
0,74,127,10
0,45,68,0
0,45,63,0
0,57,58,19
0,49,49,17
0,55,87,0
0,55,76,0
0,59,53,2
0,59,72,0
0,57,53,0
0,49,49,7
0,50,63,20
0,44,68,0
0,50,74,0
0,57,31,34
0,49,1,25
0,72,113,5
0,45,68,0
0,45,57,0
0,53,63,42
0,60,95,12
0,53,85,2
0,29,127,1
0,71,127,0
0,36,127,0
0,49,105,0
0,53,76,3
0,60,102,0
0,65,105,11
0,60,105,8
0,65,87,15
0,65,102,10
0,64,91,0
0,72,122,0
0,44,116,0
0,59,115,0
0,29,113,47
0,38,127,0
0,59,115,81
0,53,49,50
0,60,63,7
0,65,57,3
0,29,63,1
0,36,114,0
0,53,38,2
0,60,66,1
0,65,68,13
0,29,119,1
0,36,127,0
0,44,122,0
0,59,115,0
0,65,87,1
0,53,80,2
0,53,66,1
0,65,78,2
0,60,95,1
0,60,78,4
0,59,101,18
0,29,62,61
0,36,92,0
0,53,76,19
0,65,82,2
0,60,80,2
0,29,102,12
0,72,100,0
0,36,126,0
0,44,127,0
0,59,114,0
0,65,51,26
0,60,64,8
0,53,47,2
0,53,51,49
0,29,98,53
0,72,119,0
0,38,113,0
0,59,115,0
0,60,66,2
0,65,70,18
0,53,74,12
0,60,100,1
0,65,93,2
0,38,73,16
0,38,62,5
0,38,41,30
0,36,58,18
0,38,107,23
0,36,113,0
0,44,122,0
0,59,115,0
0,67,51,5
0,62,64,2
0,60,47,2
0,60,46,11
0,62,78,15
0,60,57,2
0,67,87,12
0,71,102,9
0,60,80,11
0,62,87,2
0,67,85,5
0,60,95,4
0,62,113,5
0,60,105,2
0,62,105,1
0,67,110,3
0,36,100,3
0,71,119,0
0,36,127,0
0,59,115,0
0,60,119,7
0,62,122,4
0,67,116,3
0,67,95,2
0,72,119,33
0,44,122,0
0,59,115,0
0,38,127,111
0,59,115,0
0,36,100,6
0,36,114,0
0,67,58,28
0,62,63,2
0,60,53,4
0,36,102,17
0,36,127,0
0,44,122,0
0,59,115,0
0,60,63,7
0,62,80,2
0,67,68,10
0,59,101,23
0,36,92,81
0,62,55,1
0,60,66,1
0,60,56,2
0,62,68,3
0,67,51,0
0,67,57,7
0,36,126,24
0,44,113,0
0,59,114,0
0,62,52,178
0,60,47,2
0,67,57,6
0,62,57,6
0,60,62,2
0,67,47,5
0,60,68,16
0,67,70,9
0,62,80,3
0,36,82,6
0,72,122,0
0,38,113,0
0,59,115,0
0,62,58,7
0,60,58,2
0,67,57,1
0,62,98,2
0,60,87,1
0,67,93,2
0,38,73,13
0,38,62,3
0,38,41,13
0,38,82,24
0,29,102,42
0,71,110,0
0,44,113,0
0,59,115,0
0,59,76,9
0,64,68,5
0,59,35,3
0,52,38,6
0,64,72,0
0,52,56,5
0,59,93,65
0,52,68,5
0,59,91,4
0,52,76,2
0,64,64,0
0,64,82,4
0,52,60,2
0,59,105,16
0,59,122,10
0,52,110,1
0,64,110,2
0,64,116,1
0,59,116,1
0,52,107,1
0,64,113,2
0,28,122,6
0,71,102,0
0,36,127,0
0,59,115,0
0,44,127,360
0,59,115,0
0,38,127,7
0,59,82,25
0,52,57,6
0,64,72,5
0,72,113,26
0,59,115,0
0,28,102,82
0,59,58,0
0,36,114,0
0,64,57,2
0,52,49,3
0,28,107,44
0,72,116,0
0,36,127,0
0,44,116,0
0,59,115,0
0,52,98,10
0,59,105,2
0,64,102,3
0,59,101,8
0,52,58,16
0,59,64,6
0,28,91,0
0,36,92,0
0,64,62,1
0,52,30,2
0,59,37,4
0,64,30,2
0,28,102,1
0,74,116,0
0,36,126,0
0,44,119,0
0,59,114,0
0,52,62,6
0,64,70,2
0,59,59,3
0,52,42,45
0,59,53,1
0,64,33,6
0,52,54,13
0,28,95,5
0,74,119,0
0,38,113,0
0,59,115,0
0,59,107,11
0,52,87,2
0,64,102,5
0,64,78,1
0,59,74,3
0,52,60,3
0,38,73,29
0,38,62,14
0,38,41,14
0,35,102,0
0,36,102,0
0,72,95,0
0,36,113,0
0,44,122,0
0,59,115,0
0,38,95,168
0,50,102,63
0,57,87,44
0,50,102,7
0,57,89,11
0,50,105,2
0,62,105,0
0,62,110,13
0,57,80,2
0,69,100,9
0,69,100,0
0,38,122,5
0,71,110,0
0,36,127,0
0,59,115,0
0,62,107,0
0,69,105,17
0,72,122,33
0,44,119,0
0,59,115,0
0,57,57,96
0,50,63,1
0,69,54,20
0,62,47,1
0,38,127,7
0,59,115,86
0,57,57,18
0,69,43,8
0,62,66,3
0,50,52,10
0,36,114,1
0,72,122,6
0,62,93,35
0,57,78,2
0,69,82,2
0,50,76,0
0,26,119,3
0,36,127,0
0,44,122,0
0,59,115,0
0,59,101,0
0,36,92,168
0,57,41,16
0,69,46,5
0,50,62,8
0,62,76,3
0,62,78,5
0,57,36,2
0,69,51,8
0,50,61,2
0,36,126,0
0,44,116,0
0,59,114,0
0,74,119,158
0,57,44,23
0,69,26,6
0,69,51,5
0,57,57,3
0,62,57,1
0,50,60,1
0,50,38,1
0,62,72,1
0,36,100,50
0,59,115,0
0,74,127,10
0,69,80,9
0,50,68,2
0,43,113,1
0,69,82,3
0,62,85,2
0,57,57,1
0,50,82,2
0,57,66,1
0,62,78,4
0,44,122,126
0,59,115,0
0,72,113,30
0,36,127,64
0,71,110,0
0,48,99,0
0,59,100,0
0,36,127,0
0,57,95,0
0,48,93,0
0,59,119,0
0,60,70,146
0,60,89,0
0,60,68,60
0,60,87,0
0,72,113,1
0,55,99,0
0,59,127,0
0,44,127,0
0,55,97,0
0,36,113,67
0,50,87,0
0,38,127,0
0,50,85,0
0,48,87,101
0,59,127,0
0,44,119,0
0,48,77,0
0,36,91,29
0,55,104,0
0,36,114,0
0,55,102,0
0,60,78,4
0,60,97,0
0,36,122,68
0,50,99,0
0,36,127,0
0,59,127,0
0,44,122,0
0,50,83,0
0,48,99,125
0,48,87,0
0,59,113,71
0,60,85,13
0,60,104,0
0,62,85,21
0,62,104,0
0,36,110,77
0,36,92,0
0,55,97,13
0,36,126,0
0,59,126,0
0,44,119,0
0,55,112,0
0,36,100,13
0,50,99,0
0,50,83,0
0,60,89,26
0,60,108,0
0,36,116,27
0,48,85,0
0,38,113,0
0,59,127,0
0,44,116,0
0,48,89,0
0,38,73,36
0,38,62,15
0,38,41,30
0,38,100,24
0,55,95,0
0,55,99,0
0,38,116,87
0,50,95,0
0,36,113,0
0,59,127,0
0,44,119,0
0,50,87,0
0,59,80,7
0,59,99,0
0,60,103,13
0,60,122,0
0,59,80,62
0,59,99,0
0,36,105,18
0,48,87,0
0,48,77,0
0,35,119,18
0,47,87,0
0,36,127,0
0,59,127,0
0,47,93,0
0,59,85,2
0,59,104,0
0,60,70,0
0,60,89,0
0,60,80,47
0,60,99,0
0,55,97,13
0,59,127,0
0,44,122,0
0,55,110,0
0,35,105,87
0,50,87,0
0,38,127,0
0,50,89,0
0,47,93,43
0,59,127,0
0,44,122,0
0,47,83,0
0,35,107,23
