track,note,velocity,time
1,57,80,7800
1,57,0,96
1,59,80,24
1,59,0,96
1,57,80,24
1,57,0,48
1,54,80,12
1,54,0,192
1,57,80,108
1,57,0,96
1,55,80,24
1,55,0,48
1,54,80,12
1,54,0,144
1,55,80,36
1,55,0,48
1,55,80,12
1,55,0,156
1,54,80,24
1,54,0,48
1,50,80,12
1,50,0,192
1,55,80,108
1,55,0,96
1,54,80,24
1,54,0,48
1,55,80,12
1,55,0,192
1,55,80,48
1,55,0,48
1,55,80,12
1,55,0,48
1,54,80,12
1,54,0,48
1,54,80,12
1,54,0,288
1,57,80,12
1,57,0,108
1,55,80,12
1,55,0,48
1,54,80,12
1,54,0,288
1,55,80,12
1,55,0,48
1,55,80,12
1,55,0,576
1,57,80,324
1,57,0,48
1,59,80,12
1,59,0,96
1,57,80,24
1,57,0,48
1,54,80,12
1,54,0,192
1,54,80,48
1,54,0,48
1,57,80,12
1,57,0,96
1,55,80,24
1,55,0,48
1,54,80,12
1,54,0,144
1,55,80,36
1,55,0,48
1,55,80,12
1,55,0,432
1,55,80,48
1,55,0,48
1,55,80,12
1,55,0,48
1,55,80,12
1,55,0,48
1,55,80,12
1,55,0,48
1,55,80,12
1,55,0,48
1,55,80,12
1,55,0,144
1,55,80,36
1,55,0,48
1,55,80,12
1,55,0,108
1,54,80,12
1,54,0,192
1,57,80,48
1,57,0,144
1,55,80,36
1,55,0,48
1,54,80,12
1,54,0,288
1,55,80,12
1,55,0,48
1,55,80,12
1,55,0,576
1,57,80,204
1,57,0,48
1,57,80,12
1,57,0,48
1,57,80,12
1,57,0,48
1,59,80,12
1,59,0,96
1,57,80,24
1,57,0,48
1,54,80,12
1,54,0,192
1,54,80,48
1,54,0,48
1,57,80,12
1,57,0,96
1,57,80,24
1,57,0,48
1,62,80,12
1,62,0,144
1,62,80,36
1,62,0,48
1,59,80,12
1,59,0,156
1,57,80,24
1,57,0,192
1,55,80,48
1,55,0,48
1,55,80,12
1,55,0,48
1,55,80,12
1,55,0,96
1,55,80,24
1,55,0,48
1,55,80,12
1,55,0,192
1,55,80,48
1,55,0,48
1,55,80,12
1,55,0,108
1,54,80,12
1,54,0,192
1,57,80,48
1,57,0,144
1,55,80,36
1,55,0,48
1,54,80,12
1,54,0,288
1,55,80,12
1,55,0,48
1,55,80,12
1,55,0,576
1,50,80,204
1,50,0,48
1,50,80,12
1,50,0,96
1,54,80,24
1,54,0,96
1,55,80,24
1,55,0,192
1,50,80,528
1,50,0,96
1,54,80,24
1,54,0,96
1,55,80,24
1,55,0,96
1,55,80,24
1,55,0,96
1,57,80,24
1,57,0,192
1,50,80,48
1,50,0,48
1,50,80,12
1,50,0,96
1,50,80,24
1,50,0,144
1,54,80,36
1,54,0,96
1,55,80,24
1,55,0,192
1,62,80,528
1,62,0,96
1,61,80,24
1,61,0,96
1,61,80,24
1,61,0,96
1,62,80,24
1,62,0,96
1,64,80,24
1,64,0,96
1,62,80,24
1,62,0,384
1,62,80,216
1,62,0,96
1,62,80,24
1,62,0,96
1,61,80,24
1,61,0,192
1,64,80,48
1,64,0,192
1,62,80,48
1,62,0,216
1,59,80,24
1,59,0,192
1,62,80,768
1,62,0,96
1,62,80,24
1,62,0,96
1,61,80,24
1,61,0,192
1,64,80,48
1,64,0,192
1,62,80,48
1,62,0,216
1,59,80,24
1,59,0,192
1,57,80,48
1,57,0,384
1,62,80,336
1,62,0,96
1,62,80,24
1,62,0,96
1,61,80,24
1,61,0,192
1,64,80,48
1,64,0,192
1,62,80,48
1,62,0,216
1,59,80,24
1,59,0,192
1,62,80,768
1,62,0,96
1,62,80,24
1,62,0,96
1,61,80,24
1,61,0,192
1,64,80,48
1,64,0,192
1,62,80,48
1,62,0,216
1,59,80,24
1,59,0,192
1,57,80,48
1,57,0,192
1,57,80,348
1,57,0,48
1,59,80,12
1,59,0,96
1,57,80,24
1,57,0,48
1,54,80,12
1,54,0,192
1,54,80,48
1,54,0,48
1,57,80,12
1,57,0,96
1,55,80,24
1,55,0,48
1,54,80,12
1,54,0,144
1,55,80,36
1,55,0,48
1,55,80,12
1,55,0,432
1,55,80,48
1,55,0,48
1,55,80,12
1,55,0,96
1,55,80,24
1,55,0,48
1,55,80,12
1,55,0,192
1,55,80,48
1,55,0,48
1,55,80,12
1,55,0,48
1,54,80,12
1,54,0,48
1,54,80,12
1,54,0,192
1,54,80,48
1,54,0,96
1,57,80,24
1,57,0,96
1,55,80,24
1,55,0,48
1,54,80,12
1,54,0,144
1,55,80,36
1,55,0,792
1,57,80,228
1,57,0,48
1,59,80,12
1,59,0,96
1,57,80,24
1,57,0,48
1,54,80,12
1,54,0,192
1,54,80,48
1,54,0,48
1,57,80,12
1,57,0,96
1,55,80,24
1,55,0,48
1,54,80,12
1,54,0,252
1,55,80,48
1,55,0,96
1,54,80,24
1,54,0,48
1,50,80,12
1,50,0,192
1,50,80,48
1,50,0,48
1,55,80,12
1,55,0,96
1,55,80,24
1,55,0,48
1,55,80,12
1,55,0,192
1,55,80,48
1,55,0,48
1,55,80,12
1,55,0,48
1,54,80,12
1,54,0,48
1,54,80,12
1,54,0,192
1,57,80,48
1,57,0,144
1,55,80,36
1,55,0,48
1,54,80,12
1,54,0,288
1,55,80,12
1,55,0,48
1,55,80,12
1,55,0,672
1,57,80,228
1,57,0,48
1,59,80,12
1,59,0,96
1,57,80,24
1,57,0,252
1,57,80,108
1,57,0,144
1,62,80,36
1,62,0,144
1,59,80,36
1,59,0,216
1,57,80,24
1,57,0,264
1,55,80,36
1,55,0,48
1,55,80,12
1,55,0,96
1,55,80,24
1,55,0,288
1,55,80,12
1,55,0,48
1,55,80,12
1,55,0,48
1,54,80,12
1,54,0,48
1,54,80,12
1,54,0,192
1,57,80,48
1,57,0,144
1,55,80,36
1,55,0,48
1,54,80,12
1,54,0,288
1,55,80,12
1,55,0,48
1,55,80,12
1,55,0,672
1,50,80,108
1,50,0,48
1,50,80,12
1,50,0,96
1,54,80,24
1,54,0,96
1,55,80,24
1,55,0,192
1,50,80,528
1,50,0,96
1,54,80,24
1,54,0,96
1,55,80,24
1,55,0,96
1,55,80,24
1,55,0,96
1,57,80,24
1,57,0,192
1,50,80,48
1,50,0,48
1,50,80,12
1,50,0,96
1,50,80,24
1,50,0,144
1,54,80,36
1,54,0,96
1,55,80,24
1,55,0,192
1,62,80,528
1,62,0,96
1,61,80,24
1,61,0,96
1,61,80,24
1,61,0,96
1,62,80,24
1,62,0,96
1,64,80,24
1,64,0,96
1,62,80,24
1,62,0,384
1,62,80,216
1,62,0,96
1,62,80,24
1,62,0,96
1,61,80,24
1,61,0,192
1,64,80,48
1,64,0,192
1,62,80,48
1,62,0,216
1,59,80,24
1,59,0,192
1,62,80,768
1,62,0,96
1,62,80,24
1,62,0,96
1,61,80,24
1,61,0,192
1,64,80,48
1,64,0,192
1,62,80,48
1,62,0,216
1,59,80,24
1,59,0,192
1,57,80,48
1,57,0,384
1,62,80,336
1,62,0,96
1,62,80,24
1,62,0,96
1,61,80,24
1,61,0,192
1,64,80,48
1,64,0,192
1,62,80,48
1,62,0,216
1,59,80,24
1,59,0,192
1,62,80,768
1,62,0,96
1,62,80,24
1,62,0,96
1,61,80,24
1,61,0,192
1,64,80,48
1,64,0,192
1,62,80,48
1,62,0,216
1,59,80,24
1,59,0,192
1,57,80,48
1,57,0,384
1,50,80,36
1,50,0,48
1,50,80,12
1,50,0,96
1,54,80,24
1,54,0,96
1,55,80,24
1,55,0,192
1,50,80,468
1,50,0,48
1,50,80,12
1,50,0,96
1,54,80,24
1,54,0,96
1,55,80,24
1,55,0,192
1,50,80,288
1,50,0,48
1,50,80,12
1,50,0,144
1,50,80,36
1,50,0,108
1,54,80,12
1,54,0,96
1,55,80,24
1,55,0,192
1,62,80,528
1,62,0,96
1,61,80,24
1,61,0,96
1,61,80,24
1,61,0,96
1,62,80,24
1,62,0,96
1,64,80,24
1,64,0,96
1,62,80,24
1,62,0,384
1,62,80,4056
1,62,0,192
1,61,80,48
1,61,0,192
1,61,80,48
1,61,0,192
1,62,80,48
1,62,0,216
1,59,80,24
1,59,0,192
1,57,80,48
1,57,0,288
1,57,80,72
1,57,0,96
1,62,80,24
1,62,0,216
1,59,80,24
1,59,0,192
1,57,80,48
1,57,0,288
1,57,80,72
1,57,0,96
1,62,80,24
1,62,0,216
1,59,80,24
1,59,0,192
1,57,80,48
1,57,0,384
1,62,80,336
1,62,0,96
1,62,80,24
1,62,0,96
1,61,80,24
1,61,0,192
1,61,80,48
1,61,0,192
1,62,80,48
1,62,0,216
1,59,80,24
1,59,0,192
1,57,80,48
1,57,0,288
1,57,80,72
1,57,0,96
1,62,80,24
1,62,0,216
1,59,80,24
1,59,0,192
1,57,80,48
1,57,0,288
1,57,80,72
1,57,0,96
1,62,80,24
1,62,0,216
1,59,80,24
1,59,0,192
1,57,80,48
1,57,0,384
1,62,80,4176
1,62,0,96
1,62,80,24
1,62,0,96
1,61,80,24
1,61,0,192
1,61,80,48
1,61,0,192
1,62,80,48
1,62,0,216
1,59,80,24
1,59,0,192
1,57,80,48
1,57,0,288
1,57,80,72
1,57,0,96
1,62,80,24
1,62,0,216
1,59,80,24
1,59,0,192
1,57,80,48
1,57,0,288
1,57,80,72
1,57,0,96
1,62,80,24
1,62,0,216
1,59,80,24
1,59,0,192
1,57,80,48
1,57,0,384
1,62,80,336
1,62,0,96
1,62,80,24
1,62,0,96
1,61,80,24
1,61,0,192
1,64,80,48
1,64,0,192
1,62,80,48
1,62,0,216
1,59,80,24
1,59,0,192
1,62,80,768
1,62,0,96
1,62,80,24
1,62,0,96
1,61,80,24
1,61,0,192
1,64,80,48
1,64,0,192
1,62,80,48
1,62,0,216
1,59,80,24
1,59,0,192
1,57,80,48
1,57,0,384
1,62,80,336
1,62,0,96
1,62,80,24
1,62,0,96
1,61,80,24
1,61,0,192
1,64,80,48
1,64,0,192
1,62,80,48
1,62,0,216
1,59,80,24
1,59,0,192
1,62,80,768
1,62,0,96
1,62,80,24
1,62,0,96
1,61,80,24
1,61,0,192
1,64,80,48
1,64,0,192
1,62,80,48
1,62,0,216
1,59,80,24
1,59,0,192
1,57,80,48
1,57,0,384
1,62,80,336
1,62,0,96
1,62,80,24
1,62,0,96
1,61,80,24
1,61,0,192
1,64,80,48
1,64,0,192
1,62,80,48
1,62,0,216
1,59,80,24
1,59,0,192
1,66,80,768
1,62,80,0
1,62,0,96
1,66,0,0
1,66,80,24
1,62,80,0
1,62,0,96
1,66,0,0
1,66,80,24
1,61,80,0
1,61,0,192
1,66,0,0
1,57,80,48
1,64,80,0
1,64,0,192
1,57,0,0
1,67,80,48
1,62,80,0
1,62,0,216
1,67,0,0
1,66,80,24
1,59,80,0
1,59,0,192
1,66,0,0
1,57,80,48
1,62,80,0
1,62,0,384
1,57,0,0
1,66,80,336
1,62,80,0
1,62,0,96
1,66,0,0
1,66,80,24
1,62,80,0
1,62,0,96
1,66,0,0
1,66,80,24
1,61,80,0
1,61,0,192
1,66,0,0
1,57,80,48
1,64,80,0
1,64,0,192
1,57,0,0
1,67,80,48
1,62,80,0
1,62,0,216
1,67,0,0
1,66,80,24
1,59,80,0
1,59,0,192
1,66,0,0
1,66,80,768
1,62,80,0
1,62,0,96
1,66,0,0
1,66,80,24
1,62,80,0
1,62,0,96
1,66,0,0
1,66,80,24
1,61,80,0
1,61,0,192
1,66,0,0
1,57,80,48
1,64,80,0
1,64,0,192
1,57,0,0
1,67,80,48
1,62,80,0
1,62,0,216
1,67,0,0
1,66,80,24
1,59,80,0
1,59,0,192
1,66,0,0
1,62,80,48
1,57,80,0
1,57,0,528
1,62,0,0
2,50,80,120
2,57,80,0
2,62,80,0
2,74,80,0
2,74,0,48
2,50,0,0
2,57,0,0
2,62,0,0
2,50,80,12
2,62,80,0
2,57,80,0
2,74,80,0
2,57,0,48
2,50,0,0
2,62,0,0
2,74,80,12
2,62,80,0
2,57,80,0
2,50,80,0
2,74,0,48
2,57,0,48
2,74,0,0
2,62,0,0
2,50,0,0
2,74,80,24
2,62,80,0
2,57,80,0
2,50,80,0
2,50,0,48
2,74,0,0
2,62,0,0
2,57,0,0
2,76,80,12
2,62,80,0
2,57,80,0
2,50,80,0
2,50,0,108
2,76,0,0
2,62,0,0
2,57,0,0
2,76,80,12
2,62,80,0
2,57,80,0
2,50,80,0
2,50,0,48
2,76,0,0
2,62,0,0
2,57,0,0
2,76,80,12
2,62,80,0
2,50,80,0
2,57,80,0
2,57,0,48
2,76,0,0
2,62,0,0
2,50,0,0
2,78,80,12
2,62,80,0
2,57,80,0
2,50,80,0
2,50,0,96
2,78,0,0
2,62,0,0
2,57,0,0
2,78,80,24
2,62,80,0
2,57,80,0
2,50,80,0
2,50,0,48
2,78,0,0
2,62,0,0
2,57,0,0
2,76,80,12
2,62,80,0
2,57,80,0
2,50,80,0
2,50,0,48
2,76,0,0
2,62,0,0
2,57,0,0
2,78,80,12
2,50,80,0
2,57,80,0
2,62,80,0
2,62,0,48
2,78,0,0
2,50,0,0
2,57,0,0
2,78,80,12
2,62,80,0
2,57,80,0
2,50,80,0
2,78,0,48
2,79,80,12
2,79,0,48
2,50,0,0
2,57,0,0
2,62,0,0
2,76,80,12
2,62,80,0
2,57,80,0
2,50,80,0
2,50,0,48
2,76,0,0
2,62,0,0
2,57,0,0
2,76,80,12
2,62,80,0
2,57,80,0
2,50,80,0
2,50,0,48
2,76,0,0
2,62,0,0
2,57,0,0
2,76,80,12
2,57,80,0
2,64,80,0
2,69,80,0
2,69,0,96
2,76,0,0
2,57,0,0
2,64,0,0
2,76,80,24
2,69,80,0
2,64,80,0
2,57,80,0
2,57,0,48
2,76,0,0
2,69,0,0
2,64,0,0
2,57,80,12
2,64,80,0
2,69,80,0
2,78,80,0
2,78,0,108
2,57,0,0
2,64,0,0
2,69,0,0
2,78,80,12
2,69,80,0
2,64,80,0
2,57,80,0
2,57,0,48
2,78,0,0
2,69,0,0
2,64,0,0
2,78,80,12
2,69,80,0
2,64,80,0
2,57,80,0
2,78,0,32
2,76,80,8
2,76,0,32
2,74,80,8
2,74,0,32
2,69,0,0
2,64,0,0
2,57,0,0
2,76,80,8
2,69,80,0
2,64,80,0
2,57,80,0
2,57,0,96
2,76,0,0
2,69,0,0
2,64,0,0
2,76,80,24
2,69,80,0
2,64,80,0
2,57,80,0
2,57,0,48
2,76,0,0
2,69,0,0
2,64,0,0
2,78,80,12
2,69,80,0
2,64,80,0
2,57,80,0
2,57,0,48
2,64,0,0
2,69,0,0
2,78,0,60
2,76,80,12
2,69,80,0
2,64,80,0
2,57,80,0
2,57,0,96
2,76,0,0
2,69,0,0
2,64,0,0
2,74,80,24
2,67,80,0
2,62,80,0
2,55,80,0
2,55,0,48
2,74,0,0
2,67,0,0
2,62,0,0
2,55,80,12
2,62,80,0
2,67,80,0
2,74,80,0
2,74,0,96
2,55,0,0
2,62,0,0
2,67,0,0
2,74,80,24
2,67,80,0
2,62,80,0
2,55,80,0
2,55,0,48
2,74,0,0
2,67,0,0
2,62,0,0
2,55,80,12
2,62,80,0
2,67,80,0
2,76,80,0
2,67,0,48
2,55,0,0
2,62,0,0
2,76,0,60
2,55,80,12
2,76,80,0
2,67,80,0
2,62,80,0
2,62,0,48
2,55,0,0
2,76,0,0
2,67,0,0
2,55,80,12
2,62,80,0
2,67,80,0
2,74,80,0
2,74,0,169
2,55,0,0
2,62,0,0
2,67,0,0
2,55,80,11
2,74,80,0
2,67,80,0
2,62,80,0
2,62,0,48
2,55,0,0
2,74,0,0
2,67,0,0
2,67,80,12
2,74,80,0
2,55,80,0
2,62,80,0
2,62,0,48
2,67,0,0
2,74,0,0
2,55,0,0
2,55,80,12
2,74,80,0
2,67,80,0
2,62,80,0
2,62,0,48
2,55,0,0
2,74,0,0
2,67,0,0
2,55,80,12
2,62,80,0
2,67,80,0
2,74,80,0
2,74,0,96
2,55,0,0
