track,note,velocity,time
1,50,96,0
1,62,96,384
1,60,96,0
1,50,96,0
1,65,96,96
1,50,96,0
1,62,96,0
1,60,96,0
1,50,96,0
1,64,96,96
1,65,96,0
1,60,96,0
1,50,96,0
1,62,96,0
1,60,96,0
1,50,96,0
1,65,96,0
1,50,96,0
1,62,96,0
1,60,96,0
1,50,96,0
1,64,96,0
1,65,96,0
1,60,96,0
1,50,96,0
1,62,96,0
1,60,96,0
1,50,96,0
1,65,96,0
1,50,96,0
1,62,96,0
1,60,96,0
1,50,96,0
1,64,96,0
1,65,96,0
1,60,96,0
1,50,96,0
1,62,96,0
1,60,96,0
1,50,96,0
1,60,96,0
1,65,96,0
1,60,96,0
1,65,96,0
1,50,96,0
1,60,96,0
1,65,96,0
1,62,96,0
1,67,96,0
1,62,96,0
1,67,96,0
1,62,96,0
1,67,96,0
1,50,96,0
1,62,96,0
1,60,96,0
1,50,96,0
1,60,96,0
1,65,96,0
1,60,96,0
1,65,96,0
1,50,96,0
1,62,96,0
1,60,96,0
1,50,96,0
1,64,96,0
1,65,96,0
1,60,96,0
1,50,96,0
1,62,96,0
1,60,96,0
1,50,96,0
1,60,96,0
1,65,96,0
1,60,96,0
1,65,96,0
1,50,96,0
1,62,96,0
1,60,96,0
1,50,96,0
1,64,96,0
1,65,96,0
1,60,96,0
1,50,96,0
1,62,96,0
1,60,96,0
1,50,96,0
1,60,96,0
1,65,96,0
1,60,96,0
1,65,96,0
1,50,96,0
1,62,96,0
1,60,96,0
1,50,96,0
1,64,96,0
1,65,96,0
1,60,96,0
1,50,96,0
1,62,96,0
1,60,96,0
1,50,96,0
1,60,96,0
1,65,96,0
1,60,96,0
1,65,96,0
1,50,96,0
1,60,96,0
1,65,96,0
1,62,96,0
1,67,96,0
1,62,96,0
1,67,96,0
1,62,96,0
1,67,96,0
1,50,96,0
1,62,96,0
1,60,96,0
1,50,96,0
1,60,96,0
1,65,96,0
1,60,96,0
1,65,96,0
1,50,96,0
1,62,96,0
1,60,96,0
1,50,96,0
1,64,96,0
1,65,96,0
1,60,96,0
1,50,96,0
1,62,96,0
1,60,96,0
1,50,96,0
1,60,96,0
1,65,96,0
1,60,96,0
1,65,96,0
1,50,96,0
1,62,96,0
1,60,96,0
1,50,96,0
1,64,96,0
1,65,96,0
1,60,96,0
1,50,96,0
1,62,96,0
1,60,96,0
1,50,96,0
1,60,96,0
1,65,96,0
1,60,96,0
1,65,96,0
1,50,96,0
1,62,96,0
1,60,96,0
1,50,96,0
1,64,96,0
1,65,96,0
1,60,96,0
1,50,96,0
1,62,96,0
1,60,96,0
1,50,96,0
1,60,96,0
1,65,96,0
1,60,96,0
1,65,96,0
1,50,96,0
1,60,96,0
1,65,96,0
1,62,96,0
1,67,96,0
1,62,96,0
1,67,96,0
1,62,96,0
1,67,96,0
1,50,96,0
1,62,96,0
1,60,96,0
1,50,96,0
1,60,96,0
1,65,96,0
1,60,96,0
1,65,96,0
1,50,96,0
1,62,96,0
1,60,96,0
1,50,96,0
1,64,96,0
1,65,96,0
1,60,96,0
1,50,96,0
1,62,96,0
1,60,96,0
1,50,96,0
1,60,96,0
1,65,96,0
1,60,96,0
1,65,96,0
1,50,96,0
1,62,96,0
1,60,96,0
1,50,96,0
1,64,96,0
1,65,96,0
1,60,96,0
1,50,96,0
1,62,96,0
1,60,96,0
1,50,96,0
1,60,96,0
1,65,96,0
1,60,96,0
1,65,96,0
1,50,96,0
1,62,96,0
1,60,96,0
1,50,96,0
1,64,96,0
1,65,96,0
1,60,96,0
1,50,96,0
1,62,96,0
1,60,96,0
1,50,96,0
1,60,96,0
1,65,96,0
1,60,96,0
1,65,96,0
1,50,96,0
1,60,96,0
1,65,96,0
1,62,96,0
1,67,96,0
1,62,96,0
1,67,96,0
1,62,96,0
1,67,96,0
1,41,96,0
1,48,96,0
1,53,96,0
1,60,96,0
1,41,96,0
1,48,96,0
1,53,96,0
1,60,96,0
1,41,96,0
1,48,96,0
1,53,96,0
1,60,96,0
1,41,96,0
1,48,96,0
1,53,96,0
1,60,96,0
1,41,96,0
1,48,96,0
1,53,96,0
1,60,96,0
1,41,96,0
1,48,96,0
1,53,96,0
1,60,96,0
1,41,96,0
1,48,96,0
1,53,96,0
1,60,96,0
1,41,96,0
1,48,96,0
1,53,96,0
1,60,96,0
1,38,96,0
1,45,96,0
1,50,96,0
1,55,96,0
1,48,96,0
1,55,96,0
1,60,96,0
1,48,96,0
1,55,96,0
1,60,96,0
1,48,96,0
1,55,96,0
1,60,96,0
1,48,96,0
1,55,96,0
1,60,96,0
1,38,96,0
1,45,96,0
1,50,96,0
1,38,96,0
1,45,96,0
1,50,96,0
1,38,96,0
1,45,96,0
1,50,96,0
1,38,96,0
1,45,96,0
1,50,96,0
1,41,96,0
1,48,96,0
1,53,96,0
1,38,96,0
1,45,96,0
1,50,96,0
1,38,96,0
1,45,96,0
1,50,96,0
1,38,96,0
1,45,96,0
1,50,96,0
1,41,96,0
1,48,96,0
1,53,96,0
1,38,96,0
1,45,96,0
1,50,96,0
1,38,96,0
1,45,96,0
1,50,96,0
1,45,96,0
1,48,96,0
1,49,96,0
1,50,96,0
1,45,96,0
1,48,96,0
1,49,96,0
1,38,96,0
1,45,96,0
1,50,96,0
1,38,96,0
1,45,96,0
1,50,96,0
1,38,96,0
1,45,96,0
1,50,96,0
1,41,96,0
1,48,96,0
1,53,96,0
1,38,96,0
1,45,96,0
1,50,96,0
1,38,96,0
1,45,96,0
1,45,96,0
1,50,96,0
1,48,96,0
1,49,96,0
1,50,96,0
1,45,96,0
1,50,96,0
1,49,96,0
1,48,96,0
1,45,96,0
1,41,96,0
1,48,96,0
1,53,96,0
1,60,96,0
1,41,96,0
1,48,96,0
1,53,96,0
1,60,96,0
1,41,96,0
1,48,96,0
1,53,96,0
1,60,96,0
1,41,96,0
1,48,96,0
1,53,96,0
1,60,96,0
1,41,96,0
1,48,96,0
1,53,96,0
1,60,96,0
1,41,96,0
1,48,96,0
1,53,96,0
1,60,96,0
1,41,96,0
1,48,96,0
1,53,96,0
1,60,96,0
1,41,96,0
1,48,96,0
1,53,96,0
1,60,96,0
1,38,96,0
1,45,96,0
1,50,96,0
1,55,96,0
1,48,96,0
1,55,96,0
1,60,96,0
1,48,96,0
1,55,96,0
1,60,96,0
1,48,96,0
1,55,96,0
1,60,96,0
1,48,96,0
1,55,96,0
1,60,96,0
1,38,96,0
1,45,96,0
1,50,96,0
1,38,96,0
1,45,96,0
1,50,96,0
1,38,96,0
1,45,96,0
1,50,96,0
1,38,96,0
1,45,96,0
1,50,96,0
1,41,96,0
1,48,96,0
1,53,96,0
1,38,96,0
1,45,96,0
1,50,96,0
1,38,96,0
1,45,96,0
1,50,96,0
1,38,96,0
1,45,96,0
1,50,96,0
1,41,96,0
1,48,96,0
1,53,96,0
1,38,96,0
1,45,96,0
1,50,96,0
1,38,96,0
1,45,96,0
1,50,96,0
1,45,96,0
1,48,96,0
1,49,96,0
1,50,96,0
1,45,96,0
1,48,96,0
1,49,96,0
1,38,96,0
1,45,96,0
1,50,96,0
1,38,96,0
1,45,96,0
1,50,96,0
1,38,96,0
1,45,96,0
1,50,96,0
1,41,96,0
1,48,96,0
1,53,96,0
1,38,96,0
1,45,96,0
1,50,96,0
1,38,96,0
1,45,96,0
1,45,96,0
1,50,96,0
1,48,96,0
1,49,96,0
1,50,96,0
1,45,96,0
1,50,96,0
1,49,96,0
1,48,96,0
1,45,96,0
1,41,96,0
1,48,96,0
1,53,96,0
1,41,96,0
1,48,96,0
1,53,96,0
1,41,96,0
1,48,96,0
1,53,96,0
1,41,96,0
1,48,96,0
1,53,96,0
1,48,96,0
1,55,96,0
1,60,96,0
1,55,96,0
1,60,96,0
1,48,96,0
1,55,96,0
1,60,96,0
1,48,96,0
1,55,96,0
1,60,96,0
1,48,96,0
1,55,96,0
1,60,96,0
1,38,96,0
1,45,96,0
1,50,96,0
1,43,96,0
1,50,96,0
1,55,96,0
1,43,96,0
1,50,96,0
1,55,96,0
1,43,96,0
1,50,96,0
1,55,96,0
1,43,96,0
1,50,96,0
1,55,96,0
1,50,96,0
1,57,96,0
1,62,96,0
1,57,96,0
1,62,96,0
1,50,96,0
1,57,96,0
1,62,96,0
1,50,96,0
1,57,96,0
1,62,96,0
1,50,96,0
1,57,96,0
1,62,96,0
1,38,96,0
1,45,96,0
1,50,96,0
1,46,96,0
1,53,96,0
1,58,96,0
1,46,96,0
1,53,96,0
1,58,96,0
1,46,96,0
1,53,96,0
1,58,96,0
1,46,96,0
1,53,96,0
1,58,96,0
1,53,96,0
1,60,96,0
1,65,96,0
1,60,96,0
1,65,96,0
1,53,96,0
1,60,96,0
1,65,96,0
1,53,96,0
1,60,96,0
1,65,96,0
1,53,96,0
1,60,96,0
1,65,96,0
1,45,96,0
1,52,96,0
1,57,96,0
1,45,96,0
1,52,96,0
1,57,96,0
1,45,96,0
1,52,96,0
1,57,96,0
1,45,96,0
1,45,96,0
1,57,96,0
1,55,96,0
1,52,96,0
1,50,96,0
1,48,96,0
1,41,96,0
1,43,96,0
1,41,96,0
1,48,96,0
1,53,96,0
1,41,96,0
1,48,96,0
1,53,96,0
1,41,96,0
1,48,96,0
1,53,96,0
1,41,96,0
1,48,96,0
1,53,96,0
1,48,96,0
1,55,96,0
1,60,96,0
1,55,96,0
1,60,96,0
1,48,96,0
1,55,96,0
1,60,96,0
1,48,96,0
1,55,96,0
1,60,96,0
1,48,96,0
1,55,96,0
1,60,96,0
1,38,96,0
1,45,96,0
1,50,96,0
1,43,96,0
1,50,96,0
1,55,96,0
1,43,96,0
1,50,96,0
1,55,96,0
1,43,96,0
1,50,96,0
1,55,96,0
1,43,96,0
1,50,96,0
1,55,96,0
1,50,96,0
1,57,96,0
1,62,96,0
1,57,96,0
1,62,96,0
1,50,96,0
1,57,96,0
1,62,96,0
1,50,96,0
1,57,96,0
1,62,96,0
1,50,96,0
1,57,96,0
1,62,96,0
1,38,96,0
1,45,96,0
1,50,96,0
1,46,96,0
1,53,96,0
1,58,96,0
1,46,96,0
1,53,96,0
1,58,96,0
1,46,96,0
1,53,96,0
1,58,96,0
1,46,96,0
1,53,96,0
1,58,96,0
1,53,96,0
1,60,96,0
1,65,96,0
1,60,96,0
1,65,96,0
1,53,96,0
1,60,96,0
1,65,96,0
1,53,96,0
1,60,96,0
1,65,96,0
1,53,96,0
1,60,96,0
1,65,96,0
1,45,96,0
1,52,96,0
1,57,96,0
1,45,96,0
1,52,96,0
1,57,96,0
1,45,96,0
1,52,96,0
1,57,96,0
1,45,96,0
1,45,96,0
1,57,96,0
1,55,96,0
1,52,96,0
1,50,96,0
1,48,96,0
1,41,96,0
1,43,96,0
1,38,96,0
1,38,96,0
1,48,96,0
1,48,96,0
1,47,96,0
1,47,96,0
1,38,96,0
1,38,96,0
1,44,96,0
1,45,96,0
1,51,96,0
1,51,96,0
1,38,96,0
1,38,96,0
1,51,96,0
1,51,96,0
1,45,96,0
1,45,96,0
1,38,96,0
1,38,96,0
1,42,96,0
1,43,96,0
1,49,96,0
1,50,96,0
1,49,96,0
1,43,96,0
1,38,96,0
1,41,96,0
1,41,96,0
1,41,96,0
1,41,96,0
1,53,96,0
1,53,96,0
1,53,96,0
1,41,96,0
1,41,96,0
1,41,96,0
1,41,96,0
1,41,96,0
1,53,96,0
1,53,96,0
1,53,96,0
1,50,96,0
1,40,96,0
1,40,96,0
1,40,96,0
1,40,96,0
1,52,96,0
1,52,96,0
1,52,96,0
1,40,96,0
1,40,96,0
1,40,96,0
1,40,96,0
1,40,96,0
1,52,96,0
1,52,96,0
1,52,96,0
1,50,96,0
1,38,96,0
1,38,96,0
1,48,96,0
1,48,96,0
1,47,96,0
1,47,96,0
1,38,96,0
1,38,96,0
1,44,96,0
1,45,96,0
1,51,96,0
1,51,96,0
1,38,96,0
1,38,96,0
1,51,96,0
1,51,96,0
1,45,96,0
1,45,96,0
1,38,96,0
1,38,96,0
1,42,96,0
1,43,96,0
1,49,96,0
1,50,96,0
1,49,96,0
1,43,96,0
1,38,96,0
1,41,96,0
1,48,96,0
1,53,96,0
1,60,96,0
1,41,96,0
1,48,96,0
1,53,96,0
1,60,96,0
1,41,96,0
1,48,96,0
1,53,96,0
1,60,96,0
1,38,96,0
1,45,96,0
1,50,96,0
1,38,96,0
1,45,96,0
1,50,96,0
1,41,96,0
1,48,96,0
1,53,96,0
1,43,96,0
1,50,96,0
1,55,96,0
1,40,96,0
1,47,96,0
1,52,96,0
1,59,96,0
1,40,96,0
1,47,96,0
1,52,96,0
1,59,96,0
1,40,96,0
1,47,96,0
1,52,96,0
1,59,96,0
1,38,96,0
1,45,96,0
1,50,96,0
1,38,96,0
1,45,96,0
1,50,96,0
1,38,96,0
1,45,96,0
1,50,96,0
1,40,96,0
1,47,96,0
1,52,96,0
1,41,96,0
1,48,96,0
1,53,96,0
1,38,96,0
1,45,96,0
1,50,96,0
1,48,96,0
1,55,96,0
1,60,96,0
1,47,96,0
1,54,96,0
1,59,96,0
1,38,96,0
1,45,96,0
1,50,96,0
1,44,96,0
1,51,96,0
1,56,96,0
1,45,96,0
1,52,96,0
1,57,96,0
1,51,96,0
1,58,96,0
1,63,96,0
1,38,96,0
1,45,96,0
1,38,96,0
1,45,96,0
1,51,96,0
1,58,96,0
1,63,96,0
1,45,96,0
1,52,96,0
1,57,96,0
1,38,96,0
1,45,96,0
1,50,96,0
1,42,96,0
1,49,96,0
1,54,96,0
1,43,96,0
1,50,96,0
1,55,96,0
1,49,96,0
1,56,96,0
1,61,96,0
1,50,96,0
1,57,96,0
1,62,96,0
1,49,96,0
1,56,96,0
1,61,96,0
1,43,96,0
1,50,96,0
1,55,96,0
1,38,96,0
1,45,96,0
1,50,96,0
1,41,96,0
1,48,96,0
1,53,96,0
1,60,96,0
1,41,96,0
1,48,96,0
1,53,96,0
1,60,96,0
1,41,96,0
1,48,96,0
1,53,96,0
1,60,96,0
1,38,96,0
1,45,96,0
1,50,96,0
1,38,96,0
1,45,96,0
1,50,96,0
1,41,96,0
1,48,96,0
1,53,96,0
1,43,96,0
1,50,96,0
1,55,96,0
1,40,96,0
1,47,96,0
1,52,96,0
1,59,96,0
1,40,96,0
1,47,96,0
1,52,96,0
1,59,96,0
1,40,96,0
1,47,96,0
1,52,96,0
1,59,96,0
1,38,96,0
1,45,96,0
1,50,96,0
1,38,96,0
1,45,96,0
1,50,96,0
1,38,96,0
1,45,96,0
1,50,96,0
1,40,96,0
1,47,96,0
1,52,96,0
1,41,96,0
1,48,96,0
1,53,96,0
1,38,96,0
1,45,96,0
1,50,96,0
1,48,96,0
1,55,96,0
1,60,96,0
1,47,96,0
1,54,96,0
1,59,96,0
1,38,96,0
1,45,96,0
1,50,96,0
1,44,96,0
1,51,96,0
1,56,96,0
1,45,96,0
1,52,96,0
1,57,96,0
1,51,96,0
1,58,96,0
1,63,96,0
1,38,96,0
1,45,96,0
1,38,96,0
1,45,96,0
1,51,96,0
1,58,96,0
1,63,96,0
1,45,96,0
1,52,96,0
1,57,96,0
1,38,96,0
1,45,96,0
1,50,96,0
1,42,96,0
1,49,96,0
1,54,96,0
1,43,96,0
1,50,96,0
1,55,96,0
1,49,96,0
1,56,96,0
1,61,96,0
1,50,96,0
1,57,96,0
1,62,96,0
1,49,96,0
1,56,96,0
1,61,96,0
1,43,96,0
1,50,96,0
1,55,96,0
1,38,96,0
1,45,96,0
1,50,96,0
1,41,96,0
1,48,96,0
1,53,96,0
1,60,96,0
1,41,96,0
1,48,96,0
1,53,96,0
1,60,96,0
1,41,96,0
1,48,96,0
1,53,96,0
1,60,96,0
1,38,96,0
1,45,96,0
1,50,96,0
1,38,96,0
1,45,96,0
1,50,96,0
1,41,96,0
1,48,96,0
1,53,96,0
1,43,96,0
1,50,96,0
1,55,96,0
1,40,96,0
1,47,96,0
1,52,96,0
1,59,96,0
1,40,96,0
