track,note,velocity,time
1,55,120,0
1,62,120,129
1,67,120,117
1,67,120,0
1,62,120,0
1,55,120,0
1,55,120,0
1,67,120,0
1,50,120,0
1,57,120,480
1,62,120,0
1,66,120,0
1,66,120,0
1,67,120,9
1,66,120,351
1,62,120,0
1,57,120,0
1,47,120,0
1,47,120,0
1,47,120,0
1,54,120,0
1,59,120,0
1,47,120,0
1,54,120,0
1,47,120,0
1,59,120,0
1,54,120,0
1,47,120,0
1,48,120,0
1,48,120,0
1,55,120,0
1,60,120,480
1,48,120,0
1,55,120,0
1,60,120,0
1,67,120,0
1,60,120,0
1,48,120,0
1,55,120,0
1,48,120,0
1,43,120,0
1,50,120,727
1,55,120,480
1,67,120,0
1,55,120,0
1,50,120,0
1,55,120,0
1,50,120,0
1,57,120,480
1,62,120,0
1,66,120,0
1,66,120,0
1,67,120,9
1,66,120,351
1,62,120,0
1,57,120,0
1,47,120,0
1,47,120,0
1,47,120,0
1,54,120,0
1,59,120,0
1,47,120,0
1,54,120,0
1,47,120,0
1,59,120,0
1,54,120,0
1,47,120,0
1,48,120,0
1,48,120,0
1,55,120,0
1,60,120,480
1,48,120,0
1,55,120,0
1,60,120,0
1,67,120,0
1,60,120,0
1,48,120,0
1,55,120,0
1,48,120,0
1,43,120,0
1,50,120,727
1,55,120,480
1,67,120,0
1,55,120,0
1,50,120,0
1,55,120,0
1,50,120,0
1,57,120,480
1,62,120,0
1,66,120,0
1,66,120,0
1,67,120,9
1,66,120,351
1,62,120,0
1,57,120,0
1,47,120,0
1,47,120,0
1,47,120,0
1,54,120,0
1,59,120,0
1,47,120,0
1,54,120,0
1,47,120,0
1,59,120,0
1,54,120,0
1,47,120,0
1,48,120,0
1,48,120,0
1,55,120,0
1,60,120,480
1,48,120,0
1,55,120,0
1,60,120,0
1,67,120,0
1,60,120,0
1,48,120,0
1,55,120,0
1,48,120,0
1,43,120,0
1,50,120,960
1,55,120,480
1,67,120,0
1,55,120,0
1,50,120,0
1,55,120,0
1,50,120,0
1,57,120,480
1,62,120,0
1,66,120,0
1,66,120,0
1,67,120,9
1,66,120,351
1,62,120,0
1,57,120,0
1,47,120,0
1,47,120,0
1,47,120,0
1,54,120,0
1,59,120,0
1,47,120,0
1,54,120,0
1,47,120,0
1,59,120,0
1,54,120,0
1,47,120,0
1,48,120,0
1,48,120,0
1,55,120,0
1,60,120,480
1,48,120,0
1,55,120,0
1,60,120,0
1,67,120,0
1,60,120,0
1,48,120,0
1,55,120,0
1,48,120,0
1,43,120,0
1,50,120,960
1,55,120,480
1,67,120,0
1,55,120,0
1,50,120,0
1,55,120,0
1,50,120,0
1,57,120,480
1,62,120,0
1,66,120,0
1,66,120,0
1,67,120,9
1,66,120,351
1,62,120,0
1,57,120,0
1,47,120,0
1,47,120,0
1,47,120,0
1,54,120,0
1,59,120,0
1,47,120,0
1,54,120,0
1,47,120,0
1,59,120,0
1,54,120,0
1,47,120,0
1,48,120,0
1,48,120,0
1,55,120,0
1,60,120,480
1,48,120,0
1,55,120,0
1,60,120,0
1,67,120,0
1,60,120,0
1,48,120,0
1,55,120,0
1,48,120,0
1,43,120,0
1,50,120,960
1,55,120,480
1,67,120,0
1,55,120,0
1,50,120,0
1,55,120,0
1,50,120,0
1,57,120,480
1,62,120,0
1,66,120,0
1,66,120,0
1,67,120,9
1,66,120,351
1,62,120,0
1,57,120,0
1,43,120,72960
1,50,120,960
1,55,120,480
1,67,120,0
1,55,120,0
1,50,120,0
1,55,120,0
1,50,120,0
1,57,120,480
1,62,120,0
1,66,120,0
1,66,120,0
1,67,120,9
1,66,120,351
1,62,120,0
1,57,120,0
1,47,120,0
1,47,120,0
1,47,120,0
1,54,120,0
1,59,120,0
1,47,120,0
1,54,120,0
1,47,120,0
1,59,120,0
1,54,120,0
1,47,120,0
1,48,120,0
1,48,120,0
1,55,120,0
1,60,120,480
1,48,120,0
1,55,120,0
1,60,120,0
1,67,120,0
1,60,120,0
1,48,120,0
1,55,120,0
1,48,120,0
1,43,120,0
1,50,120,960
1,55,120,480
1,67,120,0
1,55,120,0
1,50,120,0
1,55,120,0
1,50,120,0
1,57,120,480
1,62,120,0
1,66,120,0
1,66,120,0
1,67,120,9
1,66,120,351
1,62,120,0
1,57,120,0
1,47,120,0
1,47,120,0
1,47,120,0
1,54,120,0
1,59,120,0
1,47,120,0
1,54,120,0
1,47,120,0
1,59,120,0
1,54,120,0
1,47,120,0
1,48,120,0
1,48,120,0
1,55,120,0
1,60,120,480
1,48,120,0
1,55,120,0
1,60,120,0
1,67,120,0
1,60,120,0
1,48,120,0
1,55,120,0
1,48,120,0
1,43,120,0
1,50,120,960
1,55,120,480
1,67,120,0
1,55,120,0
1,50,120,0
1,55,120,0
1,50,120,0
1,57,120,480
1,62,120,0
1,66,120,0
1,66,120,0
1,67,120,9
1,66,120,351
1,62,120,0
1,57,120,0
1,47,120,0
1,47,120,0
1,47,120,0
1,54,120,0
1,59,120,0
1,47,120,0
1,54,120,0
1,47,120,0
1,59,120,0
1,54,120,0
1,47,120,0
1,48,120,0
1,48,120,0
1,55,120,0
1,60,120,480
1,48,120,0
1,55,120,0
1,60,120,0
1,67,120,0
1,60,120,0
1,48,120,0
1,55,120,0
1,48,120,0
1,43,120,0
1,50,120,960
1,55,120,480
1,67,120,0
1,55,120,0
1,50,120,0
1,55,120,0
1,50,120,0
1,57,120,480
1,62,120,0
1,66,120,0
1,66,120,0
1,67,120,9
1,66,120,351
1,62,120,0
1,57,120,0
1,47,120,0
1,47,120,0
1,47,120,0
1,54,120,0
1,59,120,0
1,47,120,0
1,54,120,0
1,47,120,0
1,59,120,0
1,54,120,0
1,47,120,0
1,48,120,0
1,48,120,0
1,55,120,0
1,60,120,480
1,48,120,0
1,55,120,0
1,60,120,0
1,67,120,0
1,60,120,0
1,48,120,0
1,55,120,0
1,48,120,0
1,43,120,0
1,50,120,960
1,55,120,480
1,67,120,0
1,55,120,0
1,50,120,0
1,55,120,0
1,50,120,0
1,57,120,480
1,62,120,0
1,66,120,0
1,66,120,0
1,67,120,9
1,66,120,351
1,62,120,0
1,57,120,0
1,67,120,76800
1,62,120,0
1,55,120,0
1,67,120,0
1,62,120,0
1,55,120,0
1,67,120,0
1,62,120,0
1,55,120,0
1,55,120,480
1,62,120,0
1,67,120,0
1,67,120,0
1,55,120,0
1,62,120,0
1,67,120,0
1,55,120,0
1,62,120,0
1,62,120,0
1,55,120,0
1,67,120,0
1,62,120,0
1,55,120,0
1,55,120,0
1,62,120,0
1,67,120,0
1,67,120,0
1,62,120,0
1,55,120,0
1,67,120,0
1,62,120,0
1,55,120,0
1,55,120,480
1,62,120,0
1,67,120,0
1,67,120,0
1,55,120,0
1,62,120,0
1,67,120,0
1,55,120,0
1,62,120,0
1,62,120,0
1,55,120,0
1,67,120,0
1,62,120,0
1,55,120,0
1,48,120,0
1,60,120,0
1,55,120,0
1,60,120,0
1,48,120,0
1,55,120,0
1,60,120,0
1,55,120,0
1,48,120,0
1,54,120,0
1,59,120,0
1,47,120,0
1,47,120,0
1,54,120,0
1,59,120,0
1,60,120,0
1,55,120,0
1,48,120,0
1,45,120,0
1,52,120,0
1,57,120,0
1,45,120,0
1,52,120,0
1,57,120,0
1,45,120,0
1,52,120,0
1,57,120,0
1,45,120,0
1,52,120,0
1,57,120,0
1,45,120,0
1,52,120,0
1,57,120,0
1,45,120,0
1,52,120,0
1,57,120,0
1,45,120,0
1,52,120,0
1,57,120,0
1,50,120,0
1,57,120,0
1,62,120,0
1,50,120,0
1,57,120,0
1,62,120,0
1,50,120,0
1,57,120,0
1,62,120,0
1,50,120,0
1,57,120,0
1,62,120,0
1,50,120,0
1,57,120,0
1,62,120,0
1,50,120,0
1,57,120,0
1,62,120,0
1,50,120,0
1,57,120,0
1,62,120,0
1,50,120,0
1,57,120,0
1,62,120,0
1,50,120,0
1,57,120,0
1,62,120,0
1,50,120,0
1,57,120,0
1,62,120,0
1,48,120,0
1,55,120,0
1,60,120,0
1,48,120,0
1,55,120,0
1,60,120,0
1,48,120,0
1,55,120,0
1,60,120,0
1,48,120,0
1,55,120,0
1,60,120,0
1,48,120,0
1,55,120,0
1,60,120,0
1,48,120,0
1,55,120,0
1,60,120,0
1,60,120,0
1,55,120,0
1,48,120,0
1,60,120,0
1,55,120,0
1,48,120,0
1,67,120,0
1,62,120,0
1,55,120,0
1,67,120,0
1,62,120,0
1,55,120,0
1,62,120,0
1,55,120,0
1,67,120,0
1,62,120,0
1,55,120,0
1,67,120,0
1,62,120,0
1,55,120,0
1,67,120,0
1,62,120,0
1,55,120,0
1,67,120,0
1,62,120,0
1,55,120,0
1,67,120,0
1,55,120,0
1,62,120,0
1,67,120,0
1,67,120,0
1,62,120,0
1,55,120,0
1,62,120,0
1,55,120,0
1,67,120,0
1,62,120,0
1,55,120,0
1,67,120,0
1,62,120,0
1,55,120,0
1,67,120,0
1,62,120,0
1,55,120,0
1,67,120,0
1,62,120,0
1,55,120,0
1,67,120,0
1,55,120,0
1,62,120,0
1,67,120,0
1,67,120,0
1,62,120,0
1,55,120,0
1,67,120,0
1,62,120,0
1,55,120,0
1,55,120,480
1,62,120,0
1,67,120,0
1,67,120,0
1,55,120,0
1,62,120,0
1,67,120,0
1,55,120,0
1,62,120,0
1,62,120,0
1,55,120,0
1,67,120,0
1,62,120,0
1,55,120,0
1,55,120,0
1,62,120,0
1,67,120,0
1,67,120,0
1,62,120,0
1,55,120,0
1,67,120,0
1,62,120,0
1,55,120,0
1,55,120,480
1,62,120,0
1,67,120,0
1,67,120,0
1,55,120,0
1,62,120,0
1,67,120,0
1,55,120,0
1,62,120,0
1,62,120,0
1,55,120,0
1,67,120,0
1,62,120,0
1,55,120,0
1,48,120,0
1,60,120,0
1,55,120,0
1,60,120,0
1,48,120,0
1,55,120,0
1,60,120,0
1,55,120,0
1,48,120,0
1,54,120,0
1,59,120,0
1,47,120,0
1,47,120,0
1,54,120,0
1,59,120,0
1,60,120,0
1,55,120,0
1,48,120,0
1,45,120,0
1,52,120,0
1,57,120,0
1,45,120,0
1,52,120,0
1,57,120,0
1,45,120,0
1,52,120,0
1,57,120,0
1,45,120,0
1,52,120,0
1,57,120,0
1,45,120,0
1,52,120,0
1,57,120,0
1,45,120,0
1,52,120,0
1,57,120,0
1,45,120,0
1,52,120,0
1,57,120,0
1,50,120,0
1,57,120,0
1,62,120,0
1,50,120,0
1,57,120,0
1,62,120,0
1,50,120,0
1,57,120,0
1,62,120,0
1,50,120,0
1,57,120,0
1,62,120,0
1,50,120,0
1,57,120,0
1,62,120,0
1,50,120,0
1,57,120,0
1,62,120,0
1,50,120,0
1,57,120,0
1,62,120,0
1,50,120,0
1,57,120,0
1,62,120,0
1,50,120,0
1,57,120,0
1,62,120,0
1,50,120,0
1,57,120,0
1,62,120,0
1,48,120,0
1,55,120,0
1,60,120,0
1,48,120,0
1,55,120,0
1,60,120,0
1,48,120,0
1,55,120,0
1,60,120,0
1,48,120,0
1,55,120,0
1,60,120,0
1,48,120,0
1,55,120,0
1,60,120,0
1,48,120,0
1,55,120,0
1,60,120,0
1,60,120,0
1,55,120,0
1,48,120,0
1,60,120,0
1,55,120,0
1,48,120,0
2,47,120,84480
2,54,120,0
2,59,120,0
2,59,120,0
2,54,120,0
2,47,120,0
2,59,120,0
2,54,120,0
2,47,120,0
2,47,120,0
2,54,120,0
2,59,120,0
2,60,120,0
2,55,120,0
2,48,120,0
2,60,120,0
2,55,120,0
2,48,120,0
2,60,120,0
2,55,120,0
2,48,120,0
2,60,120,0
2,55,120,0
2,48,120,0
2,60,120,0
2,55,120,0
2,48,120,0
2,55,120,0
2,50,120,0
2,43,120,0
2,43,120,0
2,50,120,0
2,55,120,0
2,43,120,0
2,50,120,0
2,55,120,0
2,43,120,0
2,50,120,0
2,55,120,0
2,50,120,0
2,57,120,0
2,62,120,0
2,50,120,0
2,57,120,0
2,62,120,0
2,50,120,0
2,57,120,0
2,62,120,0
2,50,120,0
2,57,120,0
2,62,120,0
2,47,120,0
2,54,120,0
2,59,120,0
2,47,120,0
2,54,120,0
2,59,120,0
2,47,120,0
2,54,120,0
2,59,120,0
2,47,120,0
2,54,120,0
2,59,120,0
2,59,120,0
2,47,120,0
2,54,120,0
2,60,120,0
2,55,120,0
2,48,120,0
2,48,120,0
2,55,120,0
2,60,120,0
2,48,120,0
2,55,120,0
2,60,120,0
2,48,120,0
2,55,120,0
2,60,120,0
2,55,120,0
2,50,120,0
2,43,120,0
2,43,120,0
2,50,120,0
2,55,120,0
2,43,120,0
2,50,120,0
2,55,120,0
2,43,120,0
2,50,120,0
2,55,120,0
2,50,120,0
2,57,120,0
2,62,120,0
2,50,120,0
2,57,120,0
2,62,120,0
2,50,120,0
2,57,120,0
2,62,120,0
2,50,120,0
2,57,120,0
2,62,120,0
2,47,120,0
2,54,120,0
2,59,120,0
2,47,120,0
2,54,120,0
2,59,120,0
2,47,120,0
2,54,120,0
2,59,120,0
2,47,120,0
2,54,120,0
2,59,120,0
2,59,120,0
2,47,120,0
2,54,120,0
2,60,120,0
2,55,120,0
2,48,120,0
2,48,120,0
2,55,120,0
2,60,120,0
2,48,120,0
2,55,120,0
2,60,120,0
2,48,120,0
2,55,120,0
2,60,120,0
2,55,120,0
2,50,120,0
2,43,120,0
2,43,120,0
2,50,120,0
2,55,120,0
2,43,120,0
2,50,120,0
2,55,120,0
2,43,120,0
2,50,120,0
2,55,120,0
2,50,120,0
2,57,120,0
2,62,120,0
2,50,120,0
2,57,120,0
2,62,120,0
2,50,120,0
2,57,120,0
2,62,120,0
2,50,120,0
2,57,120,0
2,62,120,0
2,47,120,0
2,54,120,0
2,59,120,0
2,47,120,0
2,54,120,0
2,59,120,0
2,47,120,0
2,54,120,0
2,59,120,0
2,47,120,0
2,54,120,0
2,59,120,0
2,59,120,0
2,47,120,0
2,54,120,0
2,60,120,0
2,55,120,0
2,48,120,0
2,48,120,0
2,55,120,0
2,60,120,0
2,48,120,0
2,55,120,0
2,60,120,0
2,48,120,0
2,55,120,0
2,60,120,0
2,55,120,0
2,50,120,0
2,43,120,0
2,43,120,0
2,50,120,0
2,55,120,0
2,43,120,0
2,50,120,0
2,55,120,0
2,43,120,0
2,50,120,0
2,55,120,0
2,50,120,0
2,57,120,0
2,62,120,0
2,50,120,0
2,57,120,0
2,62,120,0
2,50,120,0
2,57,120,0
2,62,120,0
2,50,120,0
2,57,120,0
2,62,120,0
2,47,120,0
2,54,120,0
2,59,120,0
2,47,120,0
2,54,120,0
2,59,120,0
2,47,120,0
2,54,120,0
2,59,120,0
2,47,120,0
2,54,120,0
2,59,120,0
2,60,120,0
2,55,120,0
2,48,120,0
2,59,120,69120
2,54,120,0
2,47,120,0
2,59,120,0
2,54,120,0
2,47,120,0
2,59,120,0
2,54,120,0
2,47,120,0
2,47,120,0
2,54,120,0
2,59,120,0
2,60,120,0
2,55,120,0
2,48,120,0
2,60,120,0
2,55,120,0
2,48,120,0
2,60,120,0
2,55,120,0
2,48,120,0
2,60,120,0
2,55,120,0
2,48,120,0
2,60,120,0
2,55,120,0
2,48,120,0
2,55,120,0
2,50,120,0
2,43,120,0
2,43,120,0
2,50,120,0
2,55,120,0
2,43,120,0
2,50,120,0
2,55,120,0
2,43,120,0
2,50,120,0
2,55,120,0
2,50,120,0
2,57,120,0
2,62,120,0
2,50,120,0
2,57,120,0
2,62,120,0
2,50,120,0
2,57,120,0
2,62,120,0
2,50,120,0
2,57,120,0
2,62,120,0
2,47,120,0
2,54,120,0
2,59,120,0
2,47,120,0
2,54,120,0
2,59,120,0
2,47,120,0
2,54,120,0
2,59,120,0
2,47,120,0
2,54,120,0
2,59,120,0
2,59,120,0
2,47,120,0
2,54,120,0
2,60,120,0
2,55,120,0
2,48,120,0
2,48,120,0
2,55,120,0
2,60,120,0
2,48,120,0
2,55,120,0
2,60,120,0
2,48,120,0
2,55,120,0
