track,note,velocity,time
1,59,74,1680
1,45,106,60
1,43,106,12
1,42,69,48
1,57,92,0
1,36,106,0
1,42,52,12
1,42,69,12
1,42,52,12
1,36,106,0
1,42,69,12
1,40,106,0
1,42,52,12
1,42,69,12
1,42,52,12
1,42,69,12
1,36,106,12
1,42,52,0
1,36,106,12
1,42,69,0
1,42,52,12
1,40,106,12
1,42,69,0
1,42,52,12
1,42,69,12
1,42,52,12
1,36,106,0
1,42,69,12
1,36,106,0
1,42,52,12
1,42,69,12
1,42,52,12
1,36,106,0
1,42,69,12
1,40,106,0
1,42,52,12
1,42,69,12
1,42,52,12
1,42,69,12
1,42,52,12
1,36,106,12
1,42,69,0
1,42,52,12
1,42,69,12
1,40,106,0
1,42,52,12
1,36,106,0
1,36,106,12
1,46,69,0
1,36,106,24
1,42,69,0
1,42,52,12
1,42,69,12
1,36,106,12
1,42,52,0
1,42,69,12
1,40,106,0
1,42,52,12
1,42,69,12
1,42,52,12
1,42,69,12
1,36,106,12
1,42,52,0
1,42,69,12
1,36,106,0
1,42,52,12
1,42,69,12
1,40,106,0
1,42,52,12
1,42,69,12
1,36,106,12
1,42,52,0
1,36,106,12
1,42,69,0
1,42,52,12
1,42,69,12
1,36,106,12
1,42,52,0
1,40,106,12
1,42,69,0
1,42,52,12
1,42,69,12
1,42,52,12
1,42,69,12
1,36,106,12
1,42,52,0
1,42,69,12
1,36,106,0
1,42,52,12
1,40,106,12
1,42,69,0
1,42,52,12
1,46,69,12
1,36,106,12
1,46,69,0
1,42,69,12
1,36,106,0
1,42,52,12
1,42,69,12
1,36,106,12
1,42,52,0
1,40,106,12
1,42,69,0
1,42,52,12
1,42,69,12
1,42,52,12
1,42,69,12
1,42,52,12
1,36,106,0
1,36,106,12
1,42,69,0
1,42,52,12
1,40,106,12
1,42,69,0
1,42,52,12
1,42,69,12
1,36,106,12
1,42,52,0
1,42,69,12
1,36,106,0
1,42,52,12
1,42,69,12
1,42,52,12
1,36,106,0
1,42,69,12
1,40,106,0
1,42,52,12
1,42,69,12
1,42,52,12
1,42,69,12
1,36,106,12
1,42,52,0
1,42,69,12
1,36,106,0
1,42,52,12
1,42,69,12
1,40,106,0
1,42,52,12
1,46,69,12
1,36,106,36
1,42,69,12
1,36,106,0
1,42,52,12
1,42,69,12
1,42,52,12
1,36,106,0
1,40,106,12
1,42,69,0
1,42,52,12
1,42,69,12
1,42,52,12
1,42,69,12
1,36,106,12
1,42,52,0
1,42,69,12
1,36,106,0
1,42,52,12
1,42,69,12
1,40,106,0
1,42,52,12
1,42,69,12
1,36,106,12
1,42,52,0
1,36,106,12
1,42,69,0
1,42,52,12
1,42,69,12
1,36,106,12
1,42,52,0
1,42,69,12
1,40,106,0
1,42,52,12
1,42,69,12
1,42,52,12
1,42,69,12
1,42,52,12
1,36,106,0
1,42,69,12
1,36,106,0
1,42,52,12
1,40,106,12
1,42,69,0
1,42,52,12
1,46,69,12
1,36,106,12
1,46,69,0
1,42,69,12
1,36,106,0
1,53,92,0
1,42,52,12
1,42,69,12
1,36,106,12
1,42,52,0
1,42,69,12
1,40,106,0
1,42,52,12
1,42,69,12
1,42,52,12
1,42,69,12
1,36,106,12
1,42,52,0
1,36,106,12
1,42,69,0
1,42,52,12
1,42,69,12
1,40,106,0
1,42,52,12
1,42,69,12
1,36,106,12
1,42,52,0
1,42,69,12
1,36,106,0
1,42,52,12
1,42,69,12
1,42,52,12
1,36,106,0
1,40,106,12
1,42,69,0
1,42,52,12
1,42,69,12
1,42,52,12
1,42,69,12
1,42,52,12
1,36,106,0
1,42,69,12
1,36,106,0
1,42,52,12
1,40,106,12
1,42,69,0
1,42,52,12
1,46,69,12
1,36,106,36
1,36,106,12
1,42,69,0
1,42,52,12
1,42,69,12
1,42,52,12
1,36,106,0
1,40,106,12
1,42,69,0
1,42,52,12
1,42,69,12
1,42,52,12
1,42,69,12
1,36,106,12
1,42,52,0
1,42,69,12
1,36,106,0
1,42,52,12
1,42,69,12
1,40,106,0
1,42,52,12
1,42,69,12
1,36,106,12
1,42,52,0
1,36,106,12
1,42,69,0
1,42,52,12
1,42,69,12
1,36,106,12
1,42,52,0
1,42,69,12
1,40,106,0
1,42,52,12
1,42,69,12
1,42,52,12
1,42,69,12
1,36,106,12
1,42,52,0
1,42,69,12
1,36,106,0
1,42,52,12
1,40,106,12
1,42,69,0
1,42,52,12
1,46,69,12
1,36,106,12
1,46,69,0
1,42,69,12
1,55,92,0
1,36,106,0
1,42,52,12
1,42,69,12
1,36,106,12
1,42,52,0
1,42,69,12
1,40,106,0
1,42,52,12
1,42,69,12
1,42,52,12
1,42,69,12
1,42,52,12
1,36,106,0
1,42,69,12
1,36,106,0
1,42,52,12
1,42,69,12
1,40,106,0
1,42,52,12
1,42,69,12
1,36,106,12
1,42,52,0
1,36,106,12
1,42,69,0
1,42,52,12
1,42,69,12
1,42,52,12
1,36,106,0
1,40,106,12
1,42,69,0
1,42,52,12
1,42,69,12
1,36,106,12
1,42,52,0
1,42,69,12
1,36,106,12
1,42,52,0
1,36,106,12
1,42,69,0
1,42,52,12
1,42,69,12
1,40,106,0
1,42,52,12
1,46,69,12
1,36,106,36
1,36,106,12
1,42,69,0
1,42,52,12
1,42,69,12
1,36,106,12
1,42,52,0
1,42,69,12
1,40,106,0
1,42,52,12
1,42,69,12
1,42,52,12
1,42,69,12
1,36,106,12
1,42,52,0
1,36,106,12
1,42,69,0
1,42,52,12
1,40,106,12
1,42,69,0
1,42,52,12
1,42,69,12
1,36,106,12
1,42,52,0
1,36,106,12
1,42,69,0
1,42,52,12
1,42,69,12
1,42,52,12
1,36,106,0
1,40,106,12
1,42,69,0
1,42,52,12
1,42,69,12
1,36,106,12
1,42,52,0
1,42,69,12
1,36,106,0
1,42,52,12
1,42,69,12
1,36,106,12
1,42,52,0
1,42,69,12
1,40,106,0
1,36,106,12
1,42,52,0
1,46,69,12
1,46,69,12
1,36,106,0
1,59,69,12
1,49,92,0
1,36,106,0
1,59,52,12
1,59,69,12
1,36,106,12
1,59,52,0
1,59,69,12
1,40,106,0
1,59,52,12
1,59,69,12
1,59,52,12
1,36,106,0
1,59,69,12
1,59,52,12
1,36,106,0
1,59,69,12
1,36,106,0
1,59,52,12
1,59,69,12
1,40,106,0
1,59,52,12
1,59,69,12
1,36,106,12
1,59,52,0
1,59,69,12
1,36,106,0
1,59,52,12
1,59,69,12
1,36,106,12
1,59,52,0
1,59,69,12
1,40,106,0
1,59,52,12
1,59,69,12
1,36,106,12
1,59,52,0
1,59,69,12
1,36,106,12
1,59,52,0
1,36,106,12
1,59,69,0
1,59,52,12
1,59,69,12
1,40,106,0
1,59,52,12
1,59,69,12
1,36,106,12
1,59,52,0
1,36,106,12
1,59,69,0
1,59,52,12
1,59,69,12
1,59,52,12
1,36,106,0
1,59,69,12
1,40,106,0
1,59,52,12
1,59,69,12
1,59,52,12
1,36,106,0
1,59,69,12
1,36,106,12
1,59,52,0
1,59,69,12
1,36,106,0
1,59,52,12
1,59,69,12
1,40,106,0
1,59,52,12
1,59,69,12
1,36,106,12
1,59,52,0
1,59,69,12
1,36,106,0
1,59,52,12
1,59,69,12
1,36,106,12
1,59,52,0
1,59,69,12
1,40,106,0
1,59,52,12
1,59,69,12
1,36,106,12
1,59,52,0
1,59,69,12
1,36,106,12
1,59,52,0
1,36,106,12
1,59,69,0
1,59,52,12
1,59,69,12
1,40,106,0
1,59,52,12
1,59,69,12
1,36,106,12
1,59,52,0
1,36,106,12
1,59,69,0
1,49,92,0
1,59,52,12
1,59,69,12
1,59,52,12
1,36,106,0
1,40,106,12
1,59,69,0
1,59,52,12
1,59,69,12
1,36,106,12
1,59,52,0
1,59,69,12
1,59,52,12
1,36,106,12
1,59,69,0
1,59,52,12
1,40,106,12
1,59,69,0
1,59,52,12
1,59,69,12
1,59,52,12
1,36,106,0
1,59,69,12
1,36,106,0
1,59,52,12
1,59,69,12
1,36,106,12
1,59,52,0
1,59,69,12
1,40,106,0
1,59,52,12
1,59,69,12
1,59,52,12
1,36,106,0
1,59,69,12
1,59,52,12
1,36,106,0
1,36,106,12
1,59,69,0
1,59,52,12
1,59,69,12
1,40,106,0
1,59,52,12
1,59,69,12
1,36,106,12
1,59,52,0
1,36,106,12
1,59,69,0
1,59,52,12
1,59,69,12
1,59,52,12
1,36,106,0
1,40,106,12
1,59,69,0
1,59,52,12
1,59,69,12
1,36,106,12
1,59,52,0
1,59,69,12
1,59,52,12
1,59,69,12
1,36,106,0
1,59,52,12
1,40,106,12
1,59,69,0
1,59,52,12
1,59,69,12
1,59,52,12
1,36,106,0
1,36,106,12
1,49,92,0
1,59,52,0
1,59,52,12
1,59,52,12
1,45,106,36
1,59,52,24
1,36,106,24
1,36,106,6
1,59,52,6
1,40,106,0
1,55,106,0
1,59,52,24
1,43,106,36
1,59,52,24
1,36,106,24
1,40,106,12
1,41,106,12
1,43,106,12
1,41,106,12
1,42,69,12
1,36,106,0
1,57,92,0
1,42,52,12
1,42,69,12
1,42,52,12
1,36,106,0
1,40,106,12
1,42,69,0
1,42,52,12
1,42,69,12
1,42,52,12
1,42,69,12
1,36,106,12
1,42,52,0
1,36,106,12
1,42,69,0
1,42,52,12
1,42,69,12
1,40,106,0
1,42,52,12
1,42,69,12
1,42,52,12
1,36,106,0
1,42,69,12
1,36,106,0
1,42,52,12
1,42,69,12
1,36,106,12
1,42,52,0
1,42,69,12
1,40,106,0
1,42,52,12
1,42,69,12
1,42,52,12
1,42,69,12
1,42,52,12
1,36,106,12
1,42,69,0
1,42,52,12
1,42,69,12
1,40,106,0
1,36,106,12
1,42,52,0
1,36,106,12
1,46,69,0
1,42,69,24
1,55,92,0
1,36,106,0
1,42,52,12
1,42,69,12
1,36,106,12
1,42,52,0
1,40,106,12
1,42,69,0
1,42,52,12
1,42,69,12
1,42,52,12
1,42,69,12
1,42,52,12
1,36,106,0
1,42,69,12
1,36,106,0
1,42,52,12
1,40,106,12
1,42,69,0
1,42,52,12
1,42,69,12
1,42,52,12
1,36,106,0
1,42,69,12
1,36,106,0
1,42,52,12
1,42,69,12
1,42,52,12
1,36,106,0
1,42,69,12
1,40,106,0
1,42,52,12
1,42,69,12
1,42,52,12
1,42,69,12
1,42,52,12
1,42,69,12
1,36,106,0
1,42,52,12
1,40,106,12
1,42,69,0
1,36,106,12
1,42,52,0
1,46,69,12
1,36,106,0
1,42,69,24
1,36,106,0
1,42,52,12
1,42,69,12
1,42,52,12
1,36,106,0
1,42,69,12
1,40,106,0
1,42,52,12
1,42,69,12
1,42,52,12
1,42,69,12
1,42,52,12
1,36,106,0
1,36,106,12
1,42,69,0
1,42,52,12
1,42,69,12
1,40,106,0
1,42,52,12
1,42,69,12
1,36,106,12
1,42,52,0
1,36,106,12
1,42,69,0
1,42,52,12
1,42,69,12
1,42,52,12
1,36,106,0
1,42,69,12
1,40,106,0
1,42,52,12
1,42,69,12
1,42,52,12
1,42,69,12
1,42,52,12
1,36,106,0
1,42,69,12
1,36,106,0
1,42,52,12
1,42,69,12
1,40,106,0
1,42,52,12
1,46,69,12
1,36,106,12
1,46,69,0
1,42,69,12
1,36,106,0
1,42,52,12
1,42,69,12
1,42,52,12
1,36,106,0
1,42,69,12
1,40,106,0
1,42,52,12
1,42,69,12
1,42,52,12
1,42,69,12
1,42,52,12
1,36,106,0
1,36,106,12
1,42,69,0
1,42,52,12
1,40,106,12
1,42,69,0
1,42,52,12
1,42,69,12
1,36,106,12
1,42,52,0
1,36,106,12
1,42,69,0
1,42,52,12
1,42,69,12
1,42,52,12
1,36,106,0
1,42,69,12
1,40,106,0
1,42,52,12
1,42,69,12
1,42,52,12
1,42,69,12
1,36,106,12
1,42,52,0
1,36,106,12
1,42,69,0
1,42,52,12
1,40,106,12
1,42,69,0
1,42,52,12
1,46,69,12
1,36,106,36
1,36,106,12
1,42,69,0
1,42,52,12
1,42,69,12
1,36,106,12
1,42,52,0
1,42,69,12
1,40,106,0
1,42,52,12
1,42,69,12
1,42,52,12
1,42,69,12
1,36,106,12
1,42,52,0
1,42,69,12
1,36,106,0
1,42,52,12
1,40,106,12
1,42,69,0
1,42,52,12
1,42,69,12
1,36,106,12
1,42,52,0
1,36,106,12
1,46,69,0
1,42,69,0
1,42,52,12
1,42,69,12
1,36,106,12
1,42,52,0
1,42,69,12
1,46,69,0
1,40,106,0
1,42,52,12
1,42,69,12
1,36,106,12
1,42,52,0
1,46,92,12
1,36,106,0
1,46,92,24
1,36,106,36
1,36,106,6
1,40,122,6
1,47,106,12
1,45,106,12
1,43,106,12
1,49,92,12
1,46,92,0
1,36,106,0
1,46,92,24
1,36,106,36
1,40,106,12
1,46,92,0
1,46,92,24
1,46,92,24
1,36,106,60
1,36,106,12
1,46,92,0
1,40,106,24
1,46,92,0
1,46,92,24
1,36,106,36
1,36,106,12
1,52,92,0
1,46,92,0
1,46,92,24
1,36,106,36
1,46,92,12
1,40,106,0
1,46,92,24
1,36,106,36
1,46,92,24
1,36,106,24
1,36,106,12
1,46,92,0
1,40,106,24
1,46,92,0
1,46,92,24
1,36,106,36
1,36,106,12
1,52,92,0
1,46,92,0
1,46,92,24
1,36,106,36
1,46,92,12
1,40,106,0
1,46,92,24
1,46,92,24
1,36,106,60
1,36,106,12
1,46,92,0
1,40,106,24
1,46,92,0
1,46,92,24
1,36,106,36
1,36,106,12
1,52,92,0
1,46,92,0
1,46,92,24
1,36,106,36
1,40,106,12
1,46,92,0
1,46,92,24
1,36,106,36
1,46,92,24
1,46,92,24
1,36,106,60
1,36,106,6
1,46,92,6
1,40,106,0
1,36,106,12
1,46,92,24
1,36,106,24
1,36,106,12
1,49,92,0
1,46,92,0
1,46,92,24
1,36,106,36
1,40,106,12
1,46,92,0
1,46,92,24
1,46,92,24
1,36,106,60
1,36,106,12
1,46,92,0
1,40,106,24
1,46,92,0
1,46,92,24
1,36,106,36
1,36,106,12
1,52,92,0
1,46,92,0
1,46,92,24
1,36,106,36
1,46,92,12
1,40,106,0
1,46,92,24
1,36,106,36
1,46,92,24
1,36,106,24
1,46,92,12
1,36,106,0
1,46,92,24
1,40,106,0
1,46,92,24
1,36,106,36
1,36,106,12
1,52,92,0
1,46,92,0
1,46,92,24
1,36,106,36
1,46,92,12
1,40,106,0
1,46,92,24
1,36,106,36
1,46,92,24
1,36,106,24
1,36,106,12
1,46,92,0
1,40,106,24
1,46,92,0
1,46,92,24
1,36,106,36
1,36,106,12
1,52,92,0
1,46,92,0
1,46,92,24
1,36,106,36
1,40,106,12
1,46,92,0
1,46,92,24
1,36,106,12
1,46,92,0
1,46,92,24
1,36,122,36
1,40,106,12
1,46,92,0
1,36,122,12
1,40,122,12
1,46,92,0
1,40,122,6
1,45,122,6
1,45,122,6
1,59,69,6
1,49,92,0
1,36,106,0
1,59,69,24
1,36,106,36
1,40,106,12
1,59,69,0
1,59,69,24
1,36,106,36
1,59,69,24
1,46,69,24
1,36,106,0
1,59,69,12
1,42,69,0
1,36,106,0
1,40,106,24
1,59,69,0
1,59,69,24
1,36,106,36
1,59,69,12
1,49,92,0
1,36,106,0
1,59,69,24
1,36,106,36
1,59,69,12
1,40,106,0
1,59,69,24
1,36,106,36
1,46,69,0
1,42,69,12
1,59,69,0
1,46,69,12
1,36,106,0
1,42,69,12
1,36,106,0
1,59,69,0
1,40,106,24
1,59,69,0
1,59,69,24
1,36,106,36
1,59,69,12
1,36,106,0
1,49,92,0
1,46,69,60
1,59,69,12
1,42,69,0
1,36,106,12
1,59,69,12
1,40,106,0
1,59,69,24
1,36,106,36
1,59,69,24
1,36,106,24
1,36,106,12
1,59,69,0
1,59,69,24
1,40,106,0
1,59,69,24
1,36,106,36
1,49,92,12
1,36,106,0
1,59,69,0
1,59,69,24
1,36,106,36
1,59,69,12
1,40,106,0
1,59,69,24
1,36,106,36
1,59,69,24
1,36,106,24
1,59,69,0
1,40,106,24
1,59,69,0
