track,note,velocity,time
1,38,75,0
1,50,75,0
1,50,0,960
1,38,0,0
1,38,75,0
1,45,75,0
1,50,75,0
1,50,0,720
1,45,0,0
1,38,0,0
1,45,75,0
1,50,75,0
1,57,75,0
1,57,0,480
1,50,0,0
1,45,0,0
1,45,75,0
1,45,0,240
1,46,75,0
1,46,0,240
1,50,75,0
1,50,0,240
1,53,75,0
1,53,0,240
1,55,75,0
1,55,0,240
1,53,75,0
1,53,0,240
1,45,75,0
1,45,0,240
1,41,75,0
1,48,75,0
1,48,0,960
1,41,0,0
1,41,75,0
1,48,75,0
1,53,75,0
1,60,75,0
1,60,0,720
1,41,0,0
1,48,0,0
1,53,0,0
1,48,75,0
1,53,75,0
1,60,75,0
1,60,0,240
1,53,0,0
1,48,0,0
1,48,75,240
1,53,75,0
1,53,0,240
1,48,0,0
1,48,75,0
1,48,0,240
1,50,75,0
1,50,0,240
1,48,75,0
1,48,0,240
1,43,75,0
1,43,0,240
1,41,75,0
1,41,0,480
1,38,75,0
1,38,0,960
1,38,75,0
1,45,75,0
1,50,75,0
1,57,75,0
1,57,0,720
1,38,0,0
1,45,0,0
1,50,0,0
1,45,75,0
1,50,75,0
1,57,75,0
1,57,0,480
1,50,0,0
1,45,0,0
1,45,75,0
1,45,0,240
1,46,75,0
1,46,0,240
1,50,75,0
1,50,0,240
1,53,75,0
1,53,0,240
1,55,75,0
1,55,0,240
1,53,75,0
1,53,0,240
1,45,75,0
1,45,0,240
1,41,75,0
1,48,75,0
1,48,0,960
1,41,0,0
1,41,75,0
1,48,75,0
1,53,75,0
1,60,75,0
1,60,0,720
1,41,0,0
1,48,0,0
1,53,0,0
1,48,75,0
1,53,75,0
1,60,75,0
1,60,0,240
1,53,0,0
1,48,0,0
1,48,75,240
1,53,75,0
1,53,0,240
1,48,0,0
1,48,75,0
1,48,0,240
1,50,75,0
1,50,0,240
1,48,75,0
1,48,0,240
1,43,75,0
1,43,0,240
1,41,75,0
1,41,0,240
1,50,75,0
1,50,0,240
1,38,75,0
1,38,0,960
1,38,75,0
1,45,75,0
1,50,75,0
1,57,75,0
1,57,0,720
1,38,0,0
1,45,0,0
1,50,0,0
1,45,75,0
1,50,75,0
1,57,75,0
1,57,0,480
1,50,0,0
1,45,0,0
1,45,75,0
1,45,0,240
1,46,75,0
1,46,0,240
1,50,75,0
1,50,0,240
1,53,75,0
1,53,0,240
1,55,75,0
1,55,0,240
1,53,75,0
1,53,0,240
1,45,75,0
1,45,0,240
1,41,75,0
1,48,75,0
1,48,0,960
1,41,0,0
1,41,75,0
1,48,75,0
1,53,75,0
1,60,75,0
1,60,0,720
1,41,0,0
1,48,0,0
1,53,0,0
1,48,75,0
1,53,75,0
1,60,75,0
1,60,0,240
1,53,0,0
1,48,0,0
1,48,75,240
1,53,75,0
1,53,0,240
1,48,0,0
1,48,75,0
1,48,0,240
1,50,75,0
1,50,0,240
1,48,75,0
1,48,0,240
1,43,75,0
1,43,0,240
1,41,75,0
1,41,0,240
1,50,75,0
1,50,0,240
1,38,75,0
1,38,0,960
1,38,75,0
1,45,75,0
1,50,75,0
1,57,75,0
1,57,0,720
1,38,0,0
1,45,0,0
1,50,0,0
1,45,75,0
1,50,75,0
1,57,75,0
1,57,0,480
1,50,0,0
1,45,0,0
1,45,75,0
1,45,0,240
1,46,75,0
1,46,0,240
1,50,75,0
1,50,0,240
1,53,75,0
1,53,0,240
1,55,75,0
1,55,0,240
1,53,75,0
1,53,0,240
1,45,75,0
1,45,0,240
1,41,75,0
1,48,75,0
1,48,0,960
1,41,0,0
1,41,75,0
1,48,75,0
1,53,75,0
1,60,75,0
1,60,0,720
1,41,0,0
1,48,0,0
1,53,0,0
1,48,75,0
1,53,75,0
1,60,75,0
1,60,0,240
1,53,0,0
1,48,0,0
1,48,75,240
1,53,75,0
1,53,0,240
1,48,0,0
1,48,75,0
1,48,0,240
1,50,75,0
1,50,0,240
1,48,75,0
1,48,0,240
1,43,75,0
1,43,0,240
1,41,75,0
1,41,0,240
1,50,75,0
1,50,0,240
1,38,75,0
1,38,0,960
1,38,75,0
1,45,75,0
1,50,75,0
1,57,75,0
1,57,0,720
1,38,0,0
1,45,0,0
1,50,0,0
1,45,75,0
1,50,75,0
1,57,75,0
1,57,0,480
1,50,0,0
1,45,0,0
1,45,75,0
1,45,0,240
1,46,75,0
1,46,0,240
1,50,75,0
1,50,0,240
1,53,75,0
1,53,0,240
1,55,75,0
1,55,0,240
1,53,75,0
1,53,0,240
1,45,75,0
1,45,0,240
1,41,75,0
1,48,75,0
1,48,0,960
1,41,0,0
1,41,75,0
1,48,75,0
1,53,75,0
1,60,75,0
1,60,0,720
1,41,0,0
1,48,0,0
1,53,0,0
1,48,75,0
1,53,75,0
1,60,75,0
1,60,0,240
1,53,0,0
1,48,0,0
1,48,75,240
1,53,75,0
1,53,0,240
1,48,0,0
1,48,75,0
1,48,0,240
1,50,75,0
1,50,0,240
1,48,75,0
1,48,0,240
1,43,75,0
1,43,0,240
1,41,75,0
1,41,0,240
1,50,75,0
1,50,0,240
1,38,75,0
1,38,0,960
1,38,75,0
1,45,75,0
1,50,75,0
1,57,75,0
1,57,0,720
1,38,0,0
1,45,0,0
1,50,0,0
1,45,75,0
1,50,75,0
1,57,75,0
1,57,0,480
1,50,0,0
1,45,0,0
1,45,75,0
1,45,0,240
1,46,75,0
1,46,0,240
1,50,75,0
1,50,0,240
1,53,75,0
1,53,0,240
1,55,75,0
1,55,0,240
1,53,75,0
1,53,0,240
1,45,75,0
1,45,0,240
1,41,75,0
1,48,75,0
1,48,0,960
1,41,0,0
1,41,75,0
1,48,75,0
1,53,75,0
1,60,75,0
1,60,0,720
1,41,0,0
1,48,0,0
1,53,0,0
1,48,75,0
1,53,75,0
1,60,75,0
1,60,0,240
1,53,0,0
1,48,0,0
1,48,75,240
1,53,75,0
1,53,0,240
1,48,0,0
1,48,75,0
1,48,0,240
1,50,75,0
1,50,0,240
1,48,75,0
1,48,0,240
1,43,75,0
1,43,0,240
1,41,75,0
1,41,0,240
1,50,75,0
1,50,0,240
1,38,75,0
1,38,0,960
1,38,75,0
1,45,75,0
1,50,75,0
1,57,75,0
1,57,0,720
1,38,0,0
1,45,0,0
1,50,0,0
1,45,75,0
1,50,75,0
1,57,75,0
1,57,0,480
1,50,0,0
1,45,0,0
1,45,75,0
1,45,0,240
1,46,75,0
1,46,0,240
1,50,75,0
1,50,0,240
1,53,75,0
1,53,0,240
1,55,75,0
1,55,0,240
1,53,75,0
1,53,0,240
1,45,75,0
1,45,0,240
1,41,75,0
1,48,75,0
1,48,0,960
1,41,0,0
1,41,75,0
1,48,75,0
1,53,75,0
1,60,75,0
1,60,0,720
1,41,0,0
1,48,0,0
1,53,0,0
1,48,75,0
1,53,75,0
1,60,75,0
1,60,0,240
1,53,0,0
1,48,0,0
1,48,75,240
1,53,75,0
1,53,0,240
1,48,0,0
1,48,75,0
1,48,0,240
1,50,75,0
1,50,0,240
1,48,75,0
1,48,0,240
1,43,75,0
1,43,0,240
1,41,75,0
1,41,0,240
1,50,75,0
1,50,0,240
1,38,75,0
1,38,0,960
1,38,75,0
1,45,75,0
1,50,75,0
1,57,75,0
1,57,0,720
1,38,0,0
1,45,0,0
1,50,0,0
1,45,75,0
1,50,75,0
1,57,75,0
1,57,0,480
1,50,0,0
1,45,0,0
1,45,75,0
1,45,0,240
1,46,75,0
1,46,0,240
1,50,75,0
1,50,0,240
1,53,75,0
1,53,0,240
1,55,75,0
1,55,0,240
1,53,75,0
1,53,0,240
1,45,75,0
1,45,0,240
1,41,75,0
1,48,75,0
1,48,0,960
1,41,0,0
1,41,75,0
1,48,75,0
1,53,75,0
1,60,75,0
1,60,0,720
1,41,0,0
1,48,0,0
1,53,0,0
1,48,75,0
1,53,75,0
1,60,75,0
1,60,0,240
1,53,0,0
1,48,0,0
1,48,75,240
1,53,75,0
1,53,0,240
1,48,0,0
1,48,75,0
1,48,0,240
1,50,75,0
1,50,0,240
1,48,75,0
1,48,0,240
1,43,75,0
1,43,0,240
1,41,75,0
1,41,0,240
1,50,75,0
1,50,0,240
1,38,75,0
1,38,0,960
1,38,75,0
1,45,75,0
1,50,75,0
1,57,75,0
1,57,0,720
1,38,0,0
1,45,0,0
1,50,0,0
1,45,75,0
1,50,75,0
1,57,75,0
1,57,0,480
1,50,0,0
1,45,0,0
1,45,75,0
1,45,0,240
1,46,75,0
1,46,0,240
1,50,75,0
1,50,0,240
1,53,75,0
1,53,0,240
1,55,75,0
1,55,0,240
1,53,75,0
1,53,0,240
1,45,75,0
1,45,0,240
1,41,75,0
1,48,75,0
1,48,0,960
1,41,0,0
1,41,75,0
1,48,75,0
1,53,75,0
1,60,75,0
1,60,0,720
1,41,0,0
1,48,0,0
1,53,0,0
1,48,75,0
1,53,75,0
1,60,75,0
1,60,0,240
1,53,0,0
1,48,0,0
1,48,75,240
1,53,75,0
1,53,0,240
1,48,0,0
1,48,75,0
1,48,0,240
1,50,75,0
1,50,0,240
1,48,75,0
1,48,0,240
1,43,75,0
1,43,0,240
1,41,75,0
1,41,0,240
1,50,75,0
1,50,0,240
1,41,75,0
1,48,75,0
1,48,0,960
1,41,0,0
1,41,75,0
1,48,75,0
1,53,75,0
1,60,75,0
1,60,0,720
1,41,0,0
1,48,0,0
1,53,0,0
1,41,75,0
1,48,75,0
1,53,75,0
1,60,75,0
1,60,0,480
1,41,0,0
1,48,0,0
1,53,0,0
1,41,75,0
1,48,75,0
1,53,75,0
1,60,75,0
1,60,0,240
1,41,0,0
1,48,0,0
1,53,0,0
1,41,75,0
1,48,75,0
1,53,75,0
1,60,75,0
1,60,0,720
1,41,0,0
1,48,0,0
1,53,0,0
1,41,75,0
1,48,75,0
1,53,75,0
1,60,75,0
1,60,0,240
1,41,0,0
1,48,0,0
1,53,0,0
1,41,75,0
1,48,75,0
1,53,75,0
1,60,75,0
1,60,0,240
1,41,0,0
1,48,0,0
1,53,0,0
1,41,75,0
1,48,75,0
1,53,75,0
1,60,75,0
1,60,0,240
1,41,0,0
1,48,0,0
1,53,0,0
1,40,75,0
1,47,75,0
1,52,75,0
1,59,75,0
1,59,0,720
1,40,0,0
1,47,0,0
1,52,0,0
1,40,75,0
1,47,75,0
1,52,75,0
1,59,75,0
1,59,0,240
1,40,0,0
1,47,0,0
1,52,0,0
1,40,75,0
1,47,75,0
1,52,75,0
1,59,75,0
1,59,0,720
1,40,0,0
1,47,0,0
1,52,0,0
1,40,75,0
1,47,75,0
1,52,75,0
1,59,75,0
1,59,0,480
1,40,0,0
1,47,0,0
1,52,0,0
1,40,75,0
1,47,75,0
1,52,75,0
1,59,75,0
1,59,0,240
1,40,0,0
1,47,0,0
1,52,0,0
1,40,75,0
1,47,75,0
1,52,75,0
1,59,75,0
1,59,0,720
1,40,0,0
1,47,0,0
1,52,0,0
1,40,75,0
1,47,75,0
1,52,75,0
1,59,75,0
1,59,0,240
1,40,0,0
1,47,0,0
1,52,0,0
1,40,75,0
1,47,75,0
1,52,75,0
1,59,75,0
1,59,0,240
1,40,0,0
1,47,0,0
1,52,0,0
1,40,75,0
1,47,75,0
1,52,75,0
1,59,75,0
1,59,0,240
1,40,0,0
1,47,0,0
1,52,0,0
1,39,75,0
1,46,75,0
1,51,75,0
1,58,75,0
1,58,0,480
1,39,0,0
1,46,0,0
1,51,0,0
1,39,75,0
1,46,75,0
1,51,75,0
1,58,75,0
1,58,0,240
1,39,0,0
1,46,0,0
1,51,0,0
1,39,75,0
1,46,75,0
1,51,75,0
1,58,75,0
1,58,0,240
1,39,0,0
1,46,0,0
1,51,0,0
1,39,75,0
1,46,75,0
1,51,75,0
1,58,75,0
1,58,0,480
1,39,0,0
1,46,0,0
1,51,0,0
1,39,75,0
1,46,75,0
1,51,75,0
1,58,75,0
1,58,0,240
1,39,0,0
1,46,0,0
1,51,0,0
1,39,75,0
1,46,75,0
1,51,75,0
1,58,75,0
1,58,0,240
1,39,0,0
1,46,0,0
1,51,0,0
1,39,75,0
1,46,75,0
1,51,75,0
1,58,75,0
1,58,0,240
1,39,0,0
1,46,0,0
1,51,0,0
1,39,75,0
1,46,75,0
1,51,75,0
1,58,75,0
1,58,0,240
1,39,0,0
1,46,0,0
1,51,0,0
1,39,75,0
1,46,75,0
1,51,75,0
1,58,75,0
1,58,0,480
1,39,0,0
1,46,0,0
1,51,0,0
1,39,75,0
1,46,75,0
1,51,75,0
1,58,75,0
1,58,0,240
1,39,0,0
1,46,0,0
1,51,0,0
1,39,75,0
1,46,75,0
1,51,75,0
1,58,75,0
1,58,0,240
1,39,0,0
1,46,0,0
1,51,0,0
1,39,75,0
1,46,75,0
1,51,75,0
1,58,75,0
1,58,0,240
1,39,0,0
1,46,0,0
1,51,0,0
1,39,75,0
1,46,75,0
1,51,75,0
1,58,75,0
1,58,0,240
1,39,0,0
1,46,0,0
1,51,0,0
1,38,75,0
1,45,75,0
1,50,75,0
1,57,75,0
1,57,0,720
1,38,0,0
1,45,0,0
1,50,0,0
1,50,75,0
1,57,75,0
1,62,75,0
1,62,0,240
1,57,0,0
1,50,0,0
1,50,75,0
1,57,75,0
1,62,75,0
1,62,0,480
1,57,0,0
1,50,0,0
1,50,75,0
1,50,0,240
1,50,75,0
1,59,75,0
1,64,75,0
1,64,0,480
1,59,0,0
1,50,0,0
1,50,75,0
1,59,75,0
1,64,75,0
1,64,0,480
1,59,0,0
1,50,0,0
1,50,75,0
1,60,75,0
1,65,75,0
1,65,0,240
1,60,0,0
1,50,0,0
1,50,75,0
1,60,75,0
1,65,75,0
1,65,0,240
1,60,0,0
1,50,0,0
1,50,75,0
1,60,75,0
1,65,75,0
1,65,0,240
1,60,0,0
1,50,0,0
1,50,75,0
1,60,75,0
1,65,75,0
1,65,0,240
1,60,0,0
1,50,0,0
1,50,75,0
1,60,75,0
1,65,75,0
1,65,0,240
1,60,0,0
1,50,0,0
1,41,75,0
1,48,75,0
1,48,0,480
1,41,0,0
1,41,75,0
1,48,75,0
1,53,75,0
1,60,75,0
1,60,0,240
1,41,0,0
1,48,0,0
1,53,0,0
1,41,75,0
1,48,75,0
1,53,75,0
1,60,75,0
1,60,0,240
1,41,0,0
1,48,0,0
1,53,0,0
1,41,75,0
1,48,75,0
1,53,75,0
1,60,75,0
1,60,0,480
1,41,0,0
1,48,0,0
1,53,0,0
1,41,75,0
1,48,75,0
1,53,75,0
1,60,75,0
1,60,0,240
1,41,0,0
1,48,0,0
1,53,0,0
1,41,75,0
1,48,75,0
1,53,75,0
1,60,75,0
1,60,0,480
1,41,0,0
1,48,0,0
1,53,0,0
1,41,75,0
1,48,75,0
1,53,75,0
1,60,75,0
1,60,0,240
1,41,0,0
1,48,0,0
1,53,0,0
1,41,75,0
1,48,75,0
1,53,75,0
1,60,75,0
1,60,0,720
1,41,0,0
1,48,0,0
1,53,0,0
1,41,75,0
1,48,75,0
1,53,75,0
1,60,75,0
1,60,0,240
1,41,0,0
1,48,0,0
1,53,0,0
1,41,75,0
1,48,75,0
1,53,75,0
1,60,75,0
1,60,0,240
1,41,0,0
1,48,0,0
1,53,0,0
1,41,75,0
1,48,75,0
1,53,75,0
1,60,75,0
1,60,0,240
1,41,0,0
1,48,0,0
1,53,0,0
1,40,75,0
1,47,75,0
1,52,75,0
1,59,75,0
1,59,0,720
1,40,0,0
1,47,0,0
1,52,0,0
1,40,75,0
1,47,75,0
1,52,75,0
1,59,75,0
1,59,0,240
1,40,0,0
1,47,0,0
1,52,0,0
1,40,75,0
1,47,75,0
1,52,75,0
1,59,75,0
1,59,0,720
1,40,0,0
1,47,0,0
1,52,0,0
1,40,75,0
1,47,75,0
1,52,75,0
1,59,75,0
1,59,0,480
1,40,0,0
1,47,0,0
1,52,0,0
1,40,75,0
1,47,75,0
1,52,75,0
1,59,75,0
1,59,0,240
1,40,0,0
1,47,0,0
1,52,0,0
1,40,75,0
1,47,75,0
