track,note,velocity,time
1,65,95,1532
1,65,89,112
1,60,100,272
1,65,98,1236
1,60,89,96
1,65,82,112
1,65,85,112
1,60,95,96
1,65,98,272
1,65,95,112
1,60,100,256
1,65,95,1216
1,60,95,80
1,65,85,92
1,65,85,112
1,60,80,96
1,65,87,240
1,65,85,112
1,60,98,280
1,65,100,1232
1,60,100,112
1,65,85,84
1,65,85,112
1,60,98,96
1,65,95,272
1,65,89,112
1,60,100,268
1,65,98,1236
1,60,89,92
1,65,82,112
1,65,85,112
1,60,95,96
1,65,98,272
1,65,95,112
1,60,100,256
1,65,95,1216
1,60,95,80
1,65,85,96
1,65,85,112
1,60,80,108
1,65,87,240
1,65,85,116
1,60,98,280
1,65,100,1232
1,60,100,108
1,65,85,80
1,65,85,112
1,60,98,96
1,65,95,272
1,65,89,104
1,60,100,264
1,65,98,1236
1,60,89,84
1,65,82,112
1,65,85,112
1,60,95,96
1,65,98,272
1,65,95,112
1,60,100,264
1,65,95,1216
1,60,95,80
1,65,85,96
1,65,85,112
1,60,80,100
1,65,87,240
1,65,85,112
1,60,98,272
1,65,100,1232
1,60,100,104
1,65,85,80
1,65,85,112
1,60,98,96
1,65,95,272
1,65,89,100
1,60,100,260
1,65,98,1240
1,60,89,96
1,65,82,112
1,65,85,120
1,60,95,96
1,65,98,272
1,65,95,112
1,60,100,260
1,65,95,1216
1,60,95,80
1,65,85,96
1,65,85,112
1,60,80,100
1,65,87,240
1,65,85,112
1,60,98,272
1,65,100,1232
1,60,100,112
1,65,85,88
1,65,85,112
1,60,98,96
1,65,98,272
1,65,95,112
1,60,100,260
1,65,95,1216
1,60,95,80
1,65,85,92
1,65,85,112
1,60,80,100
1,64,93,1584
1,67,100,0
1,72,98,0
1,67,95,96
1,72,95,0
1,64,91,0
1,67,100,256
1,64,91,0
1,72,95,0
1,64,100,208
1,67,93,0
1,72,102,0
1,60,105,112
1,72,113,0
1,64,85,32
1,72,85,0
1,67,82,0
1,67,85,128
1,72,85,0
1,64,72,0
1,72,91,112
1,67,89,0
1,64,87,0
1,67,98,272
1,64,93,0
1,72,95,0
1,67,102,288
1,64,100,0
1,72,98,0
1,60,107,128
1,72,113,0
1,72,98,40
1,64,98,0
1,67,85,0
1,72,91,128
1,64,85,0
1,67,82,0
1,72,95,128
1,67,98,0
1,64,93,0
1,72,105,288
1,67,102,0
1,64,100,0
1,71,107,468
1,67,110,0
1,64,102,0
1,108,56,864
1,107,127,0
1,105,116,16
1,103,109,12
1,101,127,8
1,100,127,16
1,98,127,12
1,96,114,0
1,95,116,0
1,93,114,0
1,91,116,4
1,89,114,8
1,88,105,0
1,86,114,0
1,84,111,4
1,83,95,12
1,81,88,0
1,79,88,16
1,77,84,0
1,76,84,0
1,74,76,20
1,72,74,16
1,71,71,0
1,89,102,224
1,81,105,0
1,84,113,0
1,84,113,848
1,89,91,112
1,81,100,0
1,88,100,0
1,84,105,0
1,81,110,0
1,86,105,0
1,86,116,1120
1,88,122,32
1,89,105,64
1,91,113,240
1,88,105,108
1,84,107,272
1,88,85,92
1,87,110,96
1,82,105,696
1,77,100,0
1,86,102,0
1,82,113,1616
1,86,122,0
1,89,107,176
1,84,105,0
1,86,110,84
1,91,102,0
1,91,100,160
1,88,105,0
1,84,105,0
1,88,110,96
1,84,119,64
1,81,110,192
1,84,89,0
1,81,85,0
1,76,91,0
1,89,113,0
1,93,102,0
1,86,113,0
1,79,102,464
1,86,98,0
1,83,110,0
1,86,107,0
1,83,105,0
1,79,98,0
1,88,95,160
1,84,105,0
1,79,89,0
1,86,102,144
1,89,85,0
1,79,93,0
1,85,95,96
1,76,62,0
1,82,87,0
1,79,95,0
1,76,82,144
1,85,98,80
1,76,105,0
1,79,107,0
1,84,107,0
1,77,93,1136
1,72,101,0
1,69,95,0
1,65,86,0
1,72,91,472
1,69,88,0
1,77,86,0
1,65,72,8
1,65,62,244
1,72,101,96
1,76,93,0
1,69,91,0
1,64,58,4
1,64,91,576
1,69,70,60
1,69,91,112
1,65,91,0
1,74,95,0
1,62,78,0
1,64,65,0
1,62,64,1456
1,65,61,176
1,69,88,80
1,74,95,0
1,69,95,24
1,74,95,0
1,62,64,224
1,69,93,64
1,76,88,0
1,65,69,0
1,72,88,0
1,65,106,512
1,64,86,88
1,65,76,16
1,75,91,0
1,69,91,0
1,63,86,0
1,65,106,320
1,63,104,60
1,58,86,48
1,65,88,0
1,74,99,8
1,70,84,0
1,81,88,1932
1,77,91,0
1,74,93,0
1,70,88,8
1,58,101,0
1,79,64,0
1,70,86,608
1,73,97,8
1,77,97,8
1,80,97,0
1,58,88,0
1,76,97,832
1,69,93,0
1,65,99,0
1,72,99,0
1,81,108,660
1,82,101,60
1,83,91,100
1,62,91,128
1,84,108,16
1,78,108,0
1,74,104,0
1,71,91,768
1,77,88,0
1,55,86,0
1,67,86,0
1,74,84,0
1,76,88,128
1,72,91,8
1,60,80,0
1,67,84,0
1,77,69,0
1,65,52,0
1,69,52,0
1,72,52,0
1,76,52,0
1,77,52,0
1,77,65,0
1,65,43,0
1,69,43,0
1,72,43,0
1,77,43,0
1,84,69,0
1,65,49,0
1,69,49,0
1,72,49,0
1,84,49,0
1,77,61,0
1,65,43,0
1,69,43,0
1,72,43,0
1,77,43,0
1,77,65,0
1,65,43,0
1,69,43,0
1,72,43,0
1,77,43,0
1,84,69,0
1,65,44,0
1,69,44,0
1,72,44,0
1,84,44,0
1,77,69,0
1,65,43,0
1,69,43,0
1,72,43,0
1,77,43,0
1,84,65,0
1,65,43,0
1,69,43,0
1,72,43,0
1,84,43,0
1,77,61,0
1,65,43,0
1,69,43,0
1,72,43,0
1,77,43,0
1,77,67,0
1,65,43,0
1,69,43,0
1,72,43,0
1,77,43,0
1,84,69,0
1,65,47,0
1,69,47,0
1,72,47,0
1,84,47,0
1,77,69,0
1,65,43,0
1,69,43,0
1,72,43,0
1,77,43,0
1,84,69,0
1,65,43,0
1,69,43,0
1,72,43,0
1,84,43,0
1,77,69,0
1,65,49,0
1,69,49,0
1,72,49,0
1,77,49,0
1,77,69,0
1,65,43,0
1,69,43,0
1,72,43,0
1,77,43,0
1,84,69,0
1,65,49,0
1,69,49,0
1,72,49,0
1,84,49,0
1,77,69,0
1,65,52,0
1,69,52,0
1,72,52,0
1,77,52,0
1,77,69,0
1,65,44,0
1,69,44,0
1,72,44,0
1,77,44,0
1,84,69,0
1,65,47,0
1,69,47,0
1,72,47,0
1,84,47,0
1,72,103,256
1,69,103,0
1,77,103,0
1,65,103,0
1,60,103,0
1,84,104,0
1,108,127,0
1,107,127,0
1,105,103,20
1,103,108,16
1,101,123,12
1,100,125,12
1,98,127,12
1,96,108,0
1,95,103,0
1,93,103,12
1,91,103,0
1,86,104,0
1,89,103,20
1,88,103,16
1,86,103,0
1,84,103,28
1,83,103,28
1,84,104,0
1,108,127,8
1,107,103,24
1,105,116,16
1,103,121,12
1,101,123,8
1,100,118,8
1,98,123,12
1,96,116,4
1,95,103,16
1,93,103,0
1,81,103,0
1,91,103,4
1,89,103,8
1,88,103,0
1,86,103,8
1,84,103,4
1,83,103,8
1,81,103,0
1,84,103,0
1,108,103,0
1,107,127,0
1,105,125,16
1,103,118,0
1,101,114,0
1,100,116,0
1,98,114,8
1,96,105,16
1,95,105,8
1,93,103,8
1,91,103,0
1,86,103,0
1,89,103,12
1,88,103,8
1,86,103,0
1,84,103,32
1,83,103,16
1,81,103,32
1,84,107,0
1,79,103,0
1,77,103,0
1,81,103,0
1,77,127,48
1,79,113,96
1,81,110,80
1,77,116,80
1,72,116,80
1,77,102,80
1,76,107,80
1,69,113,180
1,72,107,84
1,75,116,84
1,79,119,352
1,77,116,768
1,81,122,304
1,81,116,348
1,80,119,120
1,84,113,296
1,81,122,144
1,82,87,0
1,83,102,48
1,84,113,96
1,67,113,400
1,72,122,144
1,77,93,0
1,72,101,0
1,69,95,0
1,65,86,0
1,72,91,464
1,69,88,8
1,77,86,0
1,65,72,8
1,65,62,240
1,72,101,84
1,76,93,0
1,69,91,0
1,64,58,4
1,64,91,576
1,69,70,60
1,69,91,112
1,65,91,0
1,74,95,0
1,62,78,0
1,64,65,0
1,62,64,1456
1,65,61,176
1,69,88,80
1,74,95,0
1,69,95,28
1,74,95,0
1,62,64,224
1,69,93,64
1,76,88,0
1,65,69,0
1,72,88,0
1,65,106,516
1,64,86,92
1,65,76,16
1,75,91,0
1,69,91,0
1,63,86,0
1,65,106,320
1,63,104,48
1,58,86,44
1,65,88,0
1,74,99,4
1,70,84,0
1,81,88,1936
1,77,91,0
1,74,93,0
1,70,88,4
1,58,101,0
1,79,64,4
1,70,86,608
1,73,97,8
1,77,97,8
1,80,97,0
1,58,88,0
1,76,97,832
1,69,93,0
1,65,99,0
1,72,99,0
1,81,108,656
1,82,101,44
1,83,91,96
1,62,91,128
1,84,108,16
1,78,108,0
1,74,104,0
1,71,91,768
1,77,88,4
1,55,86,0
1,67,86,0
1,74,84,0
1,76,88,128
1,72,91,8
1,60,80,4
1,67,84,0
1,65,82,288
1,60,78,0
1,65,76,96
1,60,78,0
1,60,87,256
1,57,76,0
1,65,85,352
1,60,82,0
1,60,76,68
1,57,61,0
1,65,69,92
1,60,67,0
1,65,72,112
1,60,72,0
1,60,82,8
1,57,57,0
1,65,85,272
1,60,74,0
1,65,82,104
1,60,72,0
1,60,87,208
1,57,72,0
1,65,82,32
1,60,74,0
1,60,82,80
1,57,69,0
1,65,72,16
1,60,67,0
1,65,72,112
1,60,72,0
1,60,67,28
1,57,63,0
1,65,74,16
1,60,72,0
1,65,72,96
1,60,72,0
1,60,85,224
1,57,69,0
1,65,87,16
1,60,78,0
1,60,87,88
1,57,74,0
1,65,72,0
1,60,69,0
1,65,72,112
1,60,69,0
1,60,85,96
1,57,69,0
1,65,82,272
1,60,80,0
1,65,76,100
1,60,72,0
1,60,87,208
1,57,74,0
1,65,85,4
1,60,80,0
1,60,76,96
1,57,74,0
1,65,69,20
1,60,69,0
1,65,72,116
1,60,72,0
1,60,82,32
1,57,63,0
1,65,85,272
1,60,76,0
1,65,82,112
1,60,72,0
1,60,87,208
1,57,67,0
1,65,82,32
1,60,74,0
1,60,82,80
1,57,69,0
1,65,72,0
1,60,67,0
1,65,72,112
1,60,72,0
1,60,67,32
1,57,61,0
1,65,74,240
1,60,72,0
1,65,72,112
1,60,74,0
1,60,85,176
1,57,72,0
1,65,87,32
1,60,80,0
1,60,87,96
1,57,63,0
1,65,72,40
1,60,74,0
1,65,72,112
1,60,74,0
1,60,85,80
1,57,74,0
1,65,82,64
1,60,74,0
1,65,76,112
1,60,76,0
1,60,87,256
1,57,76,0
1,65,85,32
1,60,80,0
1,60,76,92
1,57,69,0
1,65,69,32
1,60,67,0
1,65,72,112
1,60,72,0
1,60,82,36
1,57,72,0
1,65,85,16
1,60,74,0
1,65,82,112
1,60,74,0
1,60,87,208
1,57,65,0
1,65,82,32
1,60,72,0
1,60,82,80
1,57,72,0
1,65,72,0
1,60,69,0
1,65,72,112
1,60,72,0
1,60,67,48
1,57,61,0
1,65,74,24
1,60,69,0
1,65,72,112
1,60,67,0
1,60,85,224
1,57,61,0
1,65,87,32
1,60,67,0
1,60,87,96
1,57,63,0
1,65,72,32
1,60,59,0
1,65,72,100
1,60,57,0
1,60,85,32
1,57,50,0
1,65,82,48
1,60,72,0
1,65,76,108
1,60,67,0
1,60,87,208
1,57,57,0
1,65,85,24
1,60,67,0
1,60,76,92
1,57,53,0
1,65,69,0
1,60,51,0
1,65,72,96
1,60,63,0
1,60,82,32
1,57,51,0
1,65,85,16
1,60,72,0
1,65,82,112
1,60,67,0
1,60,87,208
1,57,61,0
1,65,82,64
1,60,69,0
1,60,82,80
1,57,63,0
1,65,72,64
1,60,67,0
1,65,72,112
1,60,57,0
1,60,67,64
1,57,51,0
1,65,74,16
1,60,67,0
1,65,72,116
1,60,55,0
1,60,85,240
1,57,63,0
1,65,87,60
1,60,69,0
1,60,87,96
1,57,53,0
1,65,72,32
1,60,51,0
1,65,72,108
1,60,53,0
1,60,85,64
1,57,53,0
1,65,85,16
1,60,69,0
1,65,82,112
1,60,72,0
1,60,87,208
1,57,57,0
1,65,82,736
1,60,69,0
1,60,82,80
1,57,47,0
1,65,72,64
1,60,55,0
1,65,72,112
1,60,67,0
1,60,67,96
1,57,47,0
1,60,69,240
1,60,65,112
2,41,107,1532
2,41,93,96
2,48,107,228
2,67,107,256
2,68,76,16
2,69,68,20
2,41,105,416
2,48,100,80
2,41,87,108
2,41,91,108
2,48,102,96
2,41,102,240
2,41,87,96
2,48,107,240
2,67,102,284
2,68,68,16
2,69,85,16
2,41,98,272
2,48,91,80
2,41,89,104
2,41,98,112
2,48,100,104
2,41,98,256
2,41,100,80
2,48,105,240
2,67,100,304
2,68,66,16
2,69,82,8
2,41,100,384
2,48,98,96
2,41,87,112
2,41,85,112
2,48,100,112
2,41,102,256
2,41,85,108
2,48,113,208
2,67,102,288
2,68,76,0
2,69,76,0
2,41,102,284
2,48,100,64
2,41,85,96
2,41,89,112
2,48,105,96
2,41,102,256
2,41,98,96
2,48,113,240
2,67,105,288
2,68,78,8
2,69,70,96
2,41,100,272
2,48,105,80
2,41,85,104
2,41,87,112
2,48,105,112
2,41,100,256
2,41,89,100
2,48,107,256
2,67,100,292
2,68,66,16
2,69,70,0
2,41,95,176
2,48,107,76
2,41,87,108
2,41,87,108
2,48,102,92
2,41,107,288
2,41,93,96
2,48,107,224
2,67,107,256
2,68,76,16
2,69,68,16
2,41,105,416
2,48,100,80
2,41,87,100
2,41,91,100
2,48,102,96
2,41,102,240
2,41,87,96
2,48,107,240
2,67,102,288
2,68,68,16
2,69,85,16
2,41,98,272
2,48,91,80
2,41,89,112
2,41,98,112
2,48,100,108
2,41,98,256
2,41,100,80
2,48,105,240
2,67,100,304
2,68,66,16
2,69,82,0
2,41,100,384
2,48,98,88
2,41,87,104
2,41,85,104
2,48,100,112
2,41,107,248
2,41,93,96
2,48,107,224
2,67,107,256
2,68,76,16
2,69,68,24
2,41,105,416
2,48,100,80
2,41,87,112
2,41,91,112
2,48,102,100
2,41,102,240
2,41,87,96
2,48,107,240
2,67,102,284
2,68,68,16
2,69,85,16
2,41,98,272
2,48,91,80
2,41,89,108
2,41,98,112
2,48,100,108
2,41,98,256
2,41,100,80
2,48,105,240
2,67,100,304
2,68,66,16
2,69,82,0
2,41,100,384
2,48,98,84
2,41,87,112
2,41,85,112
2,48,100,112
2,41,102,256
2,41,87,96
2,48,107,240
2,67,102,288
2,68,68,16
2,69,85,16
2,41,98,272
2,48,91,80
2,41,89,108
2,41,98,112
2,48,100,108
2,41,105,256
2,41,102,100
2,48,113,268
2,48,98,592
2,48,95,112
2,48,98,224
2,48,102,216
2,48,100,208
2,48,85,112
2,48,95,112
2,48,98,264
2,48,98,232
2,48,100,272
2,48,95,112
2,48,98,112
2,48,102,240
2,48,100,240
2,48,102,256
2,48,95,120
2,48,95,112
2,48,78,112
2,46,102,92
2,46,100,112
2,45,93,112
2,45,100,112
2,43,105,112
2,43,102,96
2,53,102,96
2,53,87,72
2,50,105,96
2,48,102,208
2,50,105,208
2,53,107,80
2,53,100,256
2,50,102,88
2,48,100,176
2,45,87,48
2,48,87,68
2,49,102,32
2,50,95,112
2,50,85,96
2,48,100,88
2,45,98,208
2,48,93,192
2,50,98,64
2,50,107,240
2,48,95,112
2,50,105,68
2,50,105,224
2,48,85,96
2,50,89,80
2,53,100,76
2,53,87,80
2,50,105,80
2,48,98,192
2,50,102,192
2,53,105,80
2,53,100,248
2,50,105,80
2,48,100,216
2,50,105,80
2,53,105,48
2,58,105,192
2,58,98,96
2,55,93,80
2,53,100,196
2,55,98,224
2,58,100,64
2,58,100,232
2,55,91,80
2,58,100,148
2,57,89,144
2,53,98,112
2,55,95,48
2,55,91,96
2,53,87,112
2,50,100,176
2,53,100,128
2,48,95,112
2,48,98,184
2,55,98,80
2,60,100,96
2,60,98,192
