track,note,velocity,time
1,62,112,24012
1,65,112,12
1,62,112,196
1,65,112,0
1,62,112,8
1,60,112,84
1,57,112,8
1,55,112,100
1,57,105,48
1,62,112,720
1,65,112,28
1,62,89,0
1,65,112,20
1,62,112,192
1,69,112,28
1,67,112,72
1,62,112,908
1,65,112,4
1,62,105,212
1,65,112,0
1,62,112,8
1,60,112,180
1,57,112,16
1,55,112,12
1,53,112,56
1,55,112,72
1,62,112,1276
1,65,112,28
1,62,112,192
1,69,112,28
1,67,112,56
1,62,97,740
1,65,112,28
1,62,112,192
1,65,112,28
1,62,112,192
1,65,112,16
1,62,89,188
1,65,112,104
1,62,112,372
1,72,112,8
1,70,112,192
1,69,112,0
1,67,112,204
1,69,112,184
1,62,112,592
1,65,112,40
1,62,112,176
1,69,112,36
1,67,112,44
1,60,112,152
1,60,112,84
1,62,112,36
1,62,112,40
1,62,112,80
1,62,112,60
1,64,112,92
1,64,112,64
1,64,112,128
1,64,112,84
1,72,112,44
1,70,112,92
1,69,112,92
1,70,112,88
1,69,112,72
1,65,112,72
1,62,112,12
1,62,112,76
1,65,112,84
1,67,112,108
1,67,112,100
1,69,112,104
1,74,112,156
1,72,112,120
1,72,112,120
1,77,112,64
1,77,112,100
1,77,112,104
1,76,112,104
1,74,112,84
1,76,112,104
1,77,112,112
1,76,112,112
1,74,112,104
1,76,112,120
1,77,112,108
1,77,112,328
1,76,112,120
1,74,112,108
1,74,112,112
1,76,112,572
1,74,112,92
1,72,112,68
1,72,112,560
1,76,112,76
1,77,112,104
1,77,112,668
1,76,112,388
1,77,112,104
1,81,112,140
1,79,112,80
1,62,112,7148
1,65,112,8
1,62,112,0
1,65,112,188
1,62,112,200
1,60,112,72
1,62,112,184
1,57,112,8
1,57,103,44
1,55,109,44
1,57,112,28
1,53,112,12
1,55,109,8
1,57,112,180
1,65,112,308
1,65,112,76
1,62,109,8
1,65,112,8
1,62,109,200
1,69,112,12
1,67,112,20
1,65,71,372
1,67,59,8
1,62,93,584
1,65,112,200
1,62,71,188
1,65,112,8
1,62,112,184
1,60,112,184
1,62,112,196
1,57,112,0
1,57,103,64
1,55,112,72
1,57,112,52
1,55,112,20
1,57,109,8
1,60,112,20
1,62,95,272
1,65,112,20
1,62,112,8
1,69,112,8
1,67,112,16
1,65,112,192
1,67,112,12
1,62,112,8
1,65,112,188
1,62,61,176
1,62,112,136
1,62,112,96
1,60,112,116
1,62,112,44
1,62,112,0
1,62,112,348
1,62,112,128
1,65,112,64
1,62,112,4
1,64,112,36
1,67,112,28
1,67,112,88
1,69,112,40
1,69,112,124
1,72,112,88
1,70,112,80
1,69,112,88
1,70,112,100
1,69,112,84
1,65,112,92
1,62,112,4
1,65,112,8
1,67,112,32
1,65,112,376
1,67,112,64
1,69,112,80
1,74,112,120
1,72,112,100
1,72,112,136
1,77,112,56
1,77,112,72
1,77,112,92
1,76,112,76
1,74,112,12
1,76,112,16
1,77,112,84
1,76,112,64
1,74,112,84
1,76,112,108
1,77,112,120
1,77,112,676
1,76,112,96
1,74,112,4
1,74,112,96
1,76,112,568
1,74,112,72
1,72,112,8
1,72,112,692
1,76,112,56
1,77,112,72
1,77,112,376
1,76,112,8
1,77,112,40
1,81,112,0
1,79,112,8
1,62,112,7536
1,62,112,136
1,62,112,100
1,65,112,64
1,67,112,172
1,65,112,344
1,67,112,28
1,72,112,132
1,72,112,84
1,72,101,92
1,72,112,92
1,77,95,16
1,77,112,80
1,76,112,40
1,74,112,60
1,76,112,92
1,77,112,128
1,77,112,784
1,76,112,104
1,74,112,72
1,74,112,120
1,76,99,556
1,74,103,8
1,72,103,4
1,72,105,340
1,76,112,8
1,77,112,372
1,77,112,228
1,76,112,8
1,77,112,84
1,81,112,112
1,79,112,84
1,78,112,1456
1,78,112,416
1,77,112,120
1,75,112,108
1,75,112,120
1,77,112,84
1,75,112,92
1,73,112,0
1,73,112,388
1,77,112,108
1,78,112,104
1,78,112,624
1,77,112,100
1,75,112,8
1,75,112,128
1,77,112,576
1,75,112,108
1,73,112,20
1,73,112,712
1,77,112,56
1,78,112,92
1,78,112,720
1,77,112,120
1,75,112,20
1,75,112,104
1,77,101,8
1,75,112,84
1,73,112,20
1,73,112,484
1,77,112,60
1,78,112,84
1,78,112,476
1,77,112,104
1,75,112,412
1,75,112,120
1,77,105,8
1,75,111,96
1,73,111,16
1,73,112,580
1,77,112,116
1,78,112,104
1,78,112,356
1,77,112,132
1,75,112,0
1,75,112,112
1,77,105,576
1,75,107,100
1,73,101,20
2,36,127,16992
2,37,127,92
2,38,127,28
2,50,127,20
2,50,127,156
2,33,127,212
2,29,127,400
2,30,127,4
2,31,127,32
2,31,127,448
2,36,127,60
2,36,127,104
2,37,127,80
2,38,127,16
2,29,127,132
2,31,127,0
2,32,127,120
2,33,127,68
2,29,127,428
2,30,127,92
2,31,127,32
2,31,127,492
2,36,127,44
2,36,127,100
2,37,127,72
2,38,127,20
2,50,127,96
2,50,127,140
2,33,127,260
2,29,127,436
2,30,127,96
2,31,127,48
2,31,127,524
2,36,127,52
2,36,127,92
2,37,127,72
2,38,127,0
2,29,127,124
2,31,127,4
2,32,127,96
2,33,127,84
2,29,127,428
2,30,127,96
2,31,127,12
2,31,127,500
2,36,127,44
2,36,127,116
2,37,127,96
2,38,127,12
2,50,127,104
2,50,127,148
2,33,127,88
2,29,127,412
2,30,127,4
2,31,127,4
2,31,127,504
2,36,127,40
2,36,127,92
2,37,127,56
2,38,127,16
2,29,127,132
2,28,127,0
2,31,127,176
2,32,127,28
2,33,127,64
2,29,127,428
2,30,127,12
2,31,127,100
2,31,127,512
2,36,127,40
2,36,127,100
2,37,127,72
2,38,127,0
2,50,127,112
2,50,127,136
2,33,127,212
2,29,127,392
2,30,127,92
2,31,127,88
2,31,127,472
2,36,127,44
2,36,127,116
2,37,127,24
2,38,127,288
2,29,127,112
2,31,127,0
2,32,127,104
2,33,127,52
2,29,127,388
2,30,127,16
2,31,127,0
2,29,127,484
2,31,127,16
2,31,127,84
2,33,127,28
2,31,127,16
2,43,127,4
2,31,127,112
2,43,127,4
2,31,127,136
2,43,127,192
2,43,127,44
2,31,127,32
2,43,127,192
2,33,127,64
2,45,127,188
2,33,127,100
2,45,127,192
2,33,127,128
2,45,127,188
2,45,127,52
2,33,127,32
2,45,127,192
2,36,127,92
2,48,127,188
2,36,127,116
2,48,127,188
2,36,127,92
2,48,127,192
2,48,127,56
2,36,127,16
2,48,127,188
2,38,127,12
2,50,127,188
2,38,127,184
2,50,127,148
2,38,127,180
2,50,127,28
2,29,127,196
2,41,127,164
2,31,127,172
2,43,127,188
2,43,127,44
2,31,127,100
2,43,127,152
2,31,127,188
2,43,127,132
2,43,127,32
2,31,127,100
2,43,127,160
2,33,127,164
2,45,127,188
2,45,127,44
2,33,127,100
2,45,127,136
2,33,127,176
2,45,127,124
2,45,127,56
2,33,127,100
2,45,127,188
2,36,127,8
2,48,127,188
2,48,127,56
2,36,127,100
2,48,127,184
2,48,127,28
2,36,127,16
2,48,127,188
2,48,127,48
2,36,127,100
2,48,127,176
2,48,127,40
2,36,127,20
2,48,127,188
2,48,127,16
2,36,127,32
2,48,127,188
2,48,127,40
2,36,127,20
2,48,127,192
2,48,127,40
2,36,127,20
2,48,127,192
2,48,127,40
2,29,127,12
2,29,127,84
2,33,127,176
2,36,127,12
2,37,127,24
2,38,127,32
2,38,127,72
2,38,127,200
2,29,127,20
2,30,127,96
2,31,127,20
2,31,127,96
2,31,127,176
2,34,127,32
2,35,127,20
2,36,127,40
2,36,127,88
2,36,127,168
2,38,127,4
2,36,127,92
2,29,127,44
2,29,127,100
2,33,127,112
2,36,127,36
2,37,127,16
2,38,127,36
2,38,127,104
2,38,127,204
2,29,127,28
2,30,127,4
2,31,127,8
2,31,127,96
2,31,127,180
2,34,127,32
2,35,127,8
2,36,127,24
2,36,127,92
2,36,127,192
2,36,127,108
2,29,127,24
2,29,127,92
2,33,127,176
2,36,127,32
2,37,127,12
2,38,127,32
2,38,127,96
2,38,127,188
2,29,127,24
2,30,127,4
2,31,127,24
2,31,127,96
2,31,127,112
2,32,127,4
2,33,127,4
2,45,127,188
2,45,127,44
2,33,127,24
2,45,127,188
2,34,127,68
2,46,127,188
2,46,127,60
2,46,127,232
2,34,127,96
2,31,127,20
2,43,127,188
2,43,127,40
2,31,127,24
2,43,127,188
2,36,127,76
2,48,127,192
2,48,127,40
2,48,127,180
2,36,127,4
2,36,127,120
2,36,127,164
2,38,127,20
2,50,127,80
2,50,127,148
2,33,127,288
2,29,127,428
2,30,127,96
2,31,127,20
2,31,127,548
2,36,127,36
2,36,127,104
2,37,127,24
2,38,127,4
2,29,127,100
2,31,127,20
2,32,127,104
2,33,127,88
2,29,127,444
2,30,127,92
2,31,127,16
2,31,127,528
2,36,127,36
2,36,127,104
2,37,127,52
2,38,127,284
2,50,127,44
2,50,127,132
2,33,127,208
2,29,127,424
2,30,127,8
2,31,127,0
2,31,127,544
2,36,127,32
2,36,127,96
2,37,127,84
2,38,127,20
2,29,127,124
2,31,127,8
2,32,127,112
2,33,127,96
2,29,127,460
2,30,127,92
2,31,127,8
2,31,127,552
2,36,127,36
2,36,127,104
2,37,127,112
2,38,127,20
2,29,127,68
2,31,127,12
2,32,127,4
2,33,127,196
2,29,127,452
2,30,127,0
2,31,127,8
2,31,127,556
2,36,127,28
2,36,127,112
2,37,127,68
2,38,127,188
2,50,127,92
2,50,127,112
2,29,127,84
2,33,127,48
2,29,127,456
2,30,127,8
2,31,127,96
2,29,127,412
2,30,127,8
2,31,127,12
2,31,127,92
2,33,127,20
2,29,127,20
2,31,127,4
2,43,127,188
2,31,127,64
2,43,127,8
2,31,127,192
2,43,127,188
2,43,127,44
2,31,127,100
2,43,127,176
2,33,127,4
2,45,127,192
2,33,127,180
2,45,127,172
2,33,127,164
2,45,127,156
2,45,127,40
2,33,127,100
2,45,127,184
2,36,127,4
2,48,127,188
2,36,127,184
2,48,127,180
2,36,127,172
2,48,127,160
2,48,127,32
2,36,127,100
2,48,127,176
2,38,127,160
2,50,127,188
2,50,127,48
2,38,127,100
2,50,127,160
2,38,127,156
2,50,127,52
2,29,127,192
2,41,127,188
2,31,127,12
2,43,127,188
2,43,127,36
2,31,127,100
2,43,127,184
2,31,127,184
2,43,127,156
2,43,127,32
2,31,127,100
2,43,127,148
2,43,127,44
2,33,127,100
2,45,127,180
2,45,127,48
2,33,127,100
2,45,127,184
2,33,127,184
2,45,127,172
2,45,127,48
2,33,127,0
2,45,127,188
2,36,127,12
2,48,127,192
2,48,127,48
2,36,127,8
2,48,127,188
2,48,127,44
2,36,127,8
2,48,127,188
2,48,127,52
2,36,127,12
2,48,127,192
2,48,127,52
2,36,127,16
2,48,127,188
2,48,127,52
2,36,127,16
2,48,127,188
2,48,127,40
2,36,127,4
2,48,127,192
2,48,127,52
2,36,127,100
2,48,127,40
2,48,127,44
2,29,127,20
2,33,127,352
2,36,127,96
2,37,127,4
2,38,127,24
2,38,127,60
2,29,127,276
2,30,127,96
2,31,127,12
2,31,127,324
2,34,127,24
2,35,127,96
2,36,127,24
2,36,127,72
2,36,127,264
2,38,127,92
2,29,127,24
2,33,127,336
2,36,127,24
2,37,127,16
2,38,127,36
2,38,127,88
2,29,127,292
2,30,127,4
2,31,127,100
2,31,127,488
2,36,127,28
2,36,127,100
2,36,127,176
2,38,127,4
2,36,127,96
2,29,127,36
2,33,127,456
2,36,127,4
2,38,127,20
2,38,127,96
2,29,127,204
2,30,127,96
2,31,127,16
2,43,127,12
2,43,127,40
2,43,127,220
2,33,127,20
2,45,127,188
2,45,127,36
2,45,127,220
2,34,127,4
2,46,127,188
2,46,127,48
2,34,127,0
2,46,127,188
2,34,127,96
2,43,127,28
2,43,127,40
2,31,127,12
2,43,127,188
2,36,127,12
2,48,127,192
2,48,127,36
2,48,127,196
2,36,127,196
2,48,127,156
2,36,127,0
2,36,127,112
2,38,127,104
2,50,127,252
2,33,127,280
2,29,127,448
2,30,127,4
2,31,127,8
2,31,127,524
2,36,127,28
2,36,127,104
2,37,127,96
2,38,127,12
2,50,127,132
2,31,127,120
2,32,127,72
2,33,127,0
2,29,127,444
2,30,127,4
2,31,127,20
2,31,127,516
2,31,127,52
2,31,127,104
2,29,127,196
2,31,127,8
2,31,127,68
2,43,127,20
2,31,127,148
2,43,127,188
2,43,127,44
2,31,127,0
2,43,127,188
2,31,127,128
2,43,127,188
2,33,127,104
2,45,127,188
2,45,127,44
2,33,127,16
2,45,127,188
2,33,127,120
2,45,127,188
2,45,127,40
2,33,127,24
2,45,127,188
2,36,127,4
2,48,127,192
2,48,127,44
2,36,127,8
2,48,127,188
2,36,127,40
2,48,127,188
2,48,127,48
2,36,127,12
2,48,127,192
2,48,127,36
2,36,127,16
2,48,127,192
2,48,127,36
2,36,127,16
2,48,127,192
2,48,127,44
2,36,127,16
2,48,127,192
2,48,127,48
2,36,127,16
2,48,127,32
2,48,127,40
2,29,127,20
2,33,127,320
2,36,127,16
2,37,127,16
2,38,127,24
2,38,127,84
2,29,127,296
2,30,127,8
2,31,127,8
2,31,127,328
2,34,127,16
2,35,127,0
2,36,127,24
2,36,127,96
2,36,127,292
2,29,127,32
2,33,127,316
2,36,127,28
2,37,127,28
2,38,127,40
2,38,127,96
2,29,127,296
2,30,127,96
2,31,127,8
2,31,127,100
2,31,127,184
2,34,127,28
2,35,127,4
2,36,127,28
2,36,127,124
2,38,127,116
2,36,127,4
2,33,127,4
2,29,127,128
2,33,127,384
2,36,127,96
2,37,127,4
2,38,127,36
2,38,127,116
2,29,127,308
2,30,127,96
2,31,127,8
2,43,127,12
2,43,127,304
2,31,127,4
2,33,127,8
2,45,127,188
2,33,127,168
2,45,127,168
2,34,127,20
2,46,127,188
2,46,127,48
2,34,127,100
2,46,127,12
2,33,127,28
2,31,127,24
2,43,127,188
2,31,127,96
2,43,127,8
2,36,127,72
2,48,127,188
2,48,127,48
2,36,127,0
2,48,127,188
2,37,127,152
2,49,127,164
2,49,127,48
2,37,127,8
2,49,127,12
2,37,127,8
2,30,127,192
2,34,127,324
2,37,127,0
2,38,127,96
2,39,127,84
2,30,127,424
2,31,127,96
2,32,127,8
2,44,127,8
2,44,127,344
2,32,127,48
2,37,127,8
2,37,127,84
2,27,127,196
2,28,127,0
2,29,127,12
2,30,127,0
2,34,127,352
2,37,127,96
2,38,127,4
2,39,127,8
2,30,127,452
2,31,127,96
2,32,127,8
2,44,127,16
2,44,127,260
2,32,127,160
2,37,127,32
2,37,127,92
2,27,127,204
2,28,127,32
2,29,127,4
2,29,127,64
2,30,127,80
2,34,127,360
2,37,127,96
2,38,127,80
2,39,127,80
2,30,127,468
2,31,127,96
2,32,127,0
2,44,127,32
2,44,127,260
2,32,127,144
2,37,127,44
2,37,127,108
2,39,127,200
2,37,127,20
2,34,127,4
2,30,127,52
2,34,127,360
2,37,127,96
2,38,127,84
2,39,127,8
2,39,127,52
2,30,127,308
2,31,127,96
2,32,127,84
2,44,127,176
2,44,127,236
2,32,127,144
2,37,127,36
2,37,127,96
2,27,127,204
2,28,127,12
2,30,127,76
2,34,127,376
2,37,127,96
2,38,127,80
2,39,127,12
2,27,127,12
2,30,127,396
2,31,127,96
2,32,127,88
2,44,127,108
2,32,127,440
2,37,127,52
2,37,127,100
2,27,127,208
2,28,127,100
2,29,127,88
2,30,127,84
2,34,127,404
2,37,127,96
2,38,127,92
2,39,127,16
2,27,127,92
2,30,127,280
2,31,127,4
2,32,127,100
2,44,127,20
2,32,127,432
2,37,127,44
2,37,127,28
2,25,127,40
2,27,127,200
2,28,127,16
2,29,127,92
2,30,127,96
2,34,127,360
2,37,127,96
2,38,127,84
2,39,127,76
2,27,127,20
2,39,127,96
2,32,127,496
2,44,127,12
2,32,127,320
2,37,127,32
2,25,127,28
2,27,127,180
2,28,127,12
2,29,127,92
2,30,127,92
2,34,127,360
2,37,127,100
