track,note,velocity,time
1,36,127,0
1,36,127,144
1,36,127,144
1,36,127,144
1,36,127,144
1,36,127,144
1,36,127,144
1,36,127,144
1,36,127,144
1,36,127,144
1,36,127,144
1,36,127,144
1,36,127,144
1,36,127,144
1,36,127,144
1,36,127,144
1,36,127,144
1,36,127,144
1,36,127,144
1,36,127,144
1,36,127,144
1,36,127,144
1,36,127,144
1,36,127,144
1,36,127,144
1,36,127,144
1,36,127,144
1,36,127,144
1,36,127,144
1,36,127,144
1,36,127,144
1,36,127,144
1,36,127,144
1,36,127,144
1,36,127,144
1,36,127,144
1,36,127,144
1,36,127,144
1,36,127,144
1,36,127,144
1,36,127,144
1,36,127,144
1,36,127,144
1,36,127,144
1,36,127,144
1,36,127,144
1,36,127,144
1,36,127,144
1,36,127,144
1,36,127,144
1,36,127,144
1,36,127,144
1,36,127,144
1,36,127,144
1,36,127,144
1,36,127,144
1,36,127,144
1,36,127,144
1,36,127,144
1,36,127,144
1,36,127,144
1,36,127,144
1,36,127,144
1,36,127,144
1,36,127,144
1,36,127,144
1,36,127,144
1,36,127,144
1,36,127,144
1,36,127,144
1,36,127,144
1,36,127,144
1,36,127,144
1,36,127,144
1,36,127,144
1,36,127,144
1,36,127,144
1,36,127,144
1,36,127,144
1,36,127,144
1,36,127,144
1,36,127,144
1,36,127,144
1,36,127,144
1,36,127,144
1,36,127,144
1,36,127,144
1,36,127,144
1,36,127,144
1,36,127,144
1,36,127,144
1,36,127,144
1,36,127,144
1,36,127,144
1,36,127,144
1,36,127,144
1,36,127,144
1,36,127,144
1,36,127,144
1,36,127,144
1,36,127,144
1,36,127,144
1,36,127,144
1,36,127,144
1,36,127,144
1,36,127,144
1,36,127,144
1,36,127,144
1,36,127,144
1,36,127,144
1,36,127,144
1,36,127,144
1,36,127,144
1,36,127,144
1,36,127,144
1,36,127,144
1,36,127,144
1,36,127,144
1,36,127,144
1,36,127,144
1,36,127,144
1,36,127,144
1,36,127,144
1,36,127,144
1,36,127,144
1,36,127,144
1,36,127,144
1,36,127,144
1,36,127,24720
1,36,127,144
1,36,127,144
1,36,127,144
1,36,127,144
1,36,127,144
1,36,127,144
1,36,127,144
1,36,127,144
1,36,127,144
1,36,127,144
1,36,127,144
1,36,127,144
1,36,127,144
1,36,127,144
1,36,127,144
1,36,127,144
1,36,127,144
1,36,127,144
1,36,127,144
1,36,127,144
1,36,127,144
1,36,127,144
1,36,127,144
1,36,127,144
1,36,127,144
1,36,127,144
1,36,127,144
1,36,127,144
1,36,127,144
1,36,127,144
1,36,127,144
1,36,127,144
1,36,127,144
1,36,127,144
1,36,127,144
1,36,127,144
1,36,127,144
1,36,127,144
1,36,127,144
1,36,127,144
1,36,127,144
1,36,127,144
1,36,127,144
1,36,127,144
1,36,127,144
1,36,127,144
1,36,127,144
1,36,127,144
1,36,127,144
1,36,127,144
1,36,127,144
1,36,127,144
1,36,127,144
1,36,127,144
1,36,127,144
1,36,127,144
1,36,127,144
1,36,127,144
1,36,127,144
1,36,127,144
1,36,127,144
1,36,127,144
1,36,127,144
1,36,127,144
1,36,127,144
1,36,127,144
1,36,127,144
1,36,127,144
1,36,127,144
1,36,127,144
1,36,127,144
1,36,127,144
1,36,127,144
1,36,127,144
1,36,127,144
1,36,127,144
1,36,127,144
1,36,127,144
1,36,127,144
1,36,127,144
1,36,127,144
1,36,127,144
1,36,127,144
1,36,127,144
1,36,127,144
1,36,127,144
1,36,127,144
1,36,127,144
1,36,127,144
1,36,127,144
1,36,127,144
1,36,127,144
1,36,127,144
1,36,127,144
1,36,127,144
1,36,127,144
1,36,127,144
1,36,127,144
1,36,127,144
1,36,127,144
1,36,127,144
1,36,127,144
1,36,127,144
1,36,127,144
1,36,127,144
1,36,127,144
1,36,127,144
1,36,127,144
1,36,127,144
1,36,127,144
1,36,127,144
1,36,127,144
1,36,127,144
1,36,127,144
1,36,127,144
1,36,127,144
1,36,127,144
1,36,127,144
1,36,127,144
1,36,127,144
1,36,127,144
1,36,127,144
1,36,127,144
1,36,127,144
1,36,127,144
1,36,127,144
1,36,127,144
1,36,127,144
1,36,127,144
1,36,127,144
1,36,127,144
1,36,127,144
1,36,127,144
1,36,127,144
1,36,127,144
1,36,127,144
1,36,127,144
1,36,127,144
1,36,127,144
1,36,127,144
1,36,127,144
1,36,127,144
1,36,127,144
1,36,127,144
1,36,127,144
1,36,127,144
1,36,127,144
1,36,127,144
1,36,127,144
1,36,127,144
1,36,127,144
1,36,127,144
1,36,127,144
1,36,127,144
1,36,127,144
1,36,127,144
1,36,127,144
1,36,127,144
1,36,127,144
1,36,127,144
1,36,127,144
1,36,127,144
1,36,127,144
1,36,127,144
1,36,127,144
1,36,127,144
1,36,127,144
1,36,127,144
1,36,127,144
1,36,127,144
1,36,127,144
1,36,127,144
1,36,127,144
1,36,127,144
1,36,127,144
1,36,127,144
1,36,127,144
1,36,127,144
1,36,127,144
1,36,127,144
1,36,127,144
1,36,127,144
1,36,127,144
1,36,127,144
1,36,127,144
1,36,127,144
1,36,127,144
1,36,127,144
1,36,127,144
1,36,127,144
1,36,127,144
1,36,127,6288
1,36,127,144
1,36,127,144
1,36,127,144
1,36,127,144
1,36,127,144
1,36,127,144
1,36,127,144
1,36,127,144
1,36,127,144
1,36,127,144
1,36,127,144
1,36,127,144
1,36,127,144
1,36,127,144
1,36,127,144
1,36,127,144
1,36,127,144
1,36,127,144
1,36,127,144
1,36,127,144
1,36,127,144
1,36,127,144
1,36,127,144
1,36,127,144
1,36,127,144
1,36,127,144
1,36,127,144
1,36,127,144
1,36,127,144
1,36,127,144
1,36,127,144
1,36,127,144
1,36,127,144
1,36,127,144
1,36,127,144
1,36,127,144
1,36,127,144
1,36,127,144
1,36,127,144
1,36,127,144
1,36,127,144
1,36,127,144
1,36,127,144
1,36,127,144
1,36,127,144
1,36,127,144
1,36,127,144
1,36,127,144
1,36,127,144
1,36,127,144
1,36,127,144
1,36,127,144
1,36,127,144
1,36,127,144
1,36,127,144
1,36,127,144
1,36,127,144
1,36,127,144
1,36,127,144
1,36,127,144
1,36,127,144
1,36,127,144
1,36,127,144
1,36,127,6288
1,36,127,144
1,36,127,144
1,36,127,144
1,36,127,144
1,36,127,144
1,36,127,144
1,36,127,144
1,36,127,144
1,36,127,144
1,36,127,144
1,36,127,144
1,36,127,144
1,36,127,144
1,36,127,144
1,36,127,144
1,36,127,144
1,36,127,144
1,36,127,144
1,36,127,144
1,36,127,144
1,36,127,144
1,36,127,144
1,36,127,144
1,36,127,144
1,36,127,144
1,36,127,144
1,36,127,144
1,36,127,144
1,36,127,144
1,36,127,144
1,36,127,144
1,36,127,144
1,36,127,144
1,36,127,144
1,36,127,144
1,36,127,144
1,36,127,144
1,36,127,144
1,36,127,144
1,36,127,144
1,36,127,144
1,36,127,144
1,36,127,144
1,36,127,144
1,36,127,144
1,36,127,144
1,36,127,144
1,36,127,144
1,36,127,144
1,36,127,144
1,36,127,144
1,36,127,144
1,36,127,144
1,36,127,144
1,36,127,144
1,36,127,144
1,36,127,144
1,36,127,144
1,36,127,144
1,36,127,144
1,36,127,144
1,36,127,144
1,36,127,144
2,42,111,3072
2,42,111,0
2,46,127,0
2,42,111,48
2,46,127,48
2,42,111,48
2,46,127,48
2,42,111,48
2,42,111,0
2,46,127,0
2,42,111,48
2,42,111,0
2,46,127,0
2,42,111,48
2,46,127,48
2,42,111,48
2,46,127,48
2,42,111,48
2,42,111,0
2,46,127,0
2,42,111,48
2,42,111,0
2,46,127,0
2,42,111,48
2,46,127,48
2,42,111,48
2,46,127,48
2,42,111,48
2,42,111,0
2,46,127,0
2,42,111,48
2,42,111,0
2,46,127,0
2,42,111,48
2,46,127,48
2,42,111,48
2,46,127,48
2,42,111,48
2,42,111,0
2,46,127,0
2,42,111,48
2,42,111,0
2,46,127,0
2,42,111,48
2,46,127,48
2,42,111,48
2,46,127,48
2,42,111,48
2,42,111,0
2,46,127,0
2,42,111,48
2,42,111,0
2,46,127,0
2,42,111,48
2,46,127,48
2,42,111,48
2,46,127,48
2,42,111,48
2,42,111,0
2,46,127,0
2,42,111,48
2,42,111,0
2,46,127,0
2,42,111,48
2,46,127,48
2,42,111,48
2,46,127,48
2,42,111,48
2,42,111,0
2,46,127,0
2,42,111,48
2,42,111,0
2,46,127,0
2,42,111,48
2,46,127,48
2,42,111,48
2,46,127,48
2,42,111,48
2,42,111,0
2,46,127,0
2,42,111,48
2,42,111,0
2,46,127,0
2,42,111,48
2,46,127,48
2,42,111,48
2,46,127,48
2,42,111,48
2,42,111,0
2,46,127,0
2,42,111,48
2,42,111,0
2,46,127,0
2,42,111,48
2,46,127,48
2,42,111,48
2,46,127,48
2,42,111,48
2,42,111,0
2,46,127,0
2,42,111,48
2,42,111,0
2,46,127,0
2,42,111,48
2,46,127,48
2,42,111,48
2,46,127,48
2,42,111,48
2,42,111,0
2,46,127,0
2,42,111,48
2,42,111,0
2,46,127,0
2,42,111,48
2,46,127,48
2,42,111,48
2,46,127,48
2,42,111,48
2,42,111,0
2,46,127,0
2,42,111,48
2,42,111,0
2,46,127,0
2,42,111,48
2,46,127,48
2,42,111,48
2,46,127,48
2,42,111,48
2,42,111,0
2,46,127,0
2,42,111,48
2,42,111,0
2,46,127,0
2,42,111,48
2,46,127,48
2,42,111,48
2,46,127,48
2,42,111,48
2,42,111,0
2,46,127,0
2,42,111,48
2,42,111,0
2,46,127,0
2,42,111,48
2,46,127,48
2,42,111,48
2,46,127,48
2,42,111,48
2,42,111,0
2,46,127,0
2,42,111,48
2,42,111,0
2,46,127,0
2,42,111,48
2,46,127,48
2,42,111,48
2,46,127,48
2,42,111,48
2,42,111,0
2,46,127,0
2,42,111,48
2,42,111,0
2,46,127,0
2,42,111,48
2,46,127,48
2,42,111,48
2,46,127,48
2,42,111,48
2,42,111,0
2,46,127,0
2,42,111,48
2,42,111,0
2,46,127,0
2,42,111,48
2,46,127,48
2,42,111,48
2,46,127,48
2,42,111,48
2,42,111,0
2,46,127,0
2,42,111,48
2,42,111,0
2,46,127,0
2,42,111,48
2,46,127,48
2,42,111,48
2,46,127,48
2,42,111,48
2,42,111,0
2,46,127,0
2,42,111,48
2,42,111,0
2,46,127,0
2,42,111,48
2,46,127,48
2,42,111,48
2,46,127,48
2,42,111,48
2,42,111,0
2,46,127,0
2,42,111,48
2,42,111,0
2,46,127,0
2,42,111,48
2,46,127,48
2,42,111,48
2,46,127,48
2,42,111,48
2,42,111,0
2,46,127,0
2,42,111,48
2,42,111,0
2,46,127,0
2,42,111,48
2,46,127,48
2,42,111,48
2,46,127,48
2,42,111,48
2,42,111,0
2,46,127,0
2,42,111,48
2,42,111,0
2,46,127,0
2,42,111,48
2,46,127,48
2,42,111,48
2,46,127,48
2,42,111,48
2,42,111,0
2,46,127,0
2,42,111,48
2,42,111,0
2,46,127,0
2,42,111,48
2,46,127,48
2,42,111,48
2,46,127,48
2,42,111,48
2,42,111,0
2,46,127,0
2,42,111,48
2,42,111,0
2,46,127,0
2,42,111,48
2,46,127,48
2,42,111,48
2,46,127,48
2,42,111,48
2,42,111,0
2,46,127,0
2,42,111,48
2,42,111,0
2,46,127,0
2,42,111,48
2,46,127,48
2,42,111,48
2,46,127,48
2,42,111,48
2,42,111,0
2,46,127,0
2,42,111,48
2,42,111,0
2,46,127,0
2,42,111,48
2,46,127,48
2,42,111,48
2,46,127,48
2,42,111,48
2,42,111,0
2,46,127,0
2,42,111,48
2,42,111,0
2,46,127,0
2,42,111,48
2,46,127,48
2,42,111,48
2,46,127,48
2,42,111,48
2,42,111,0
2,46,127,0
2,42,111,18480
2,42,111,0
2,46,127,0
2,42,111,48
2,46,127,48
2,42,111,48
2,46,127,48
2,42,111,48
2,42,111,0
2,46,127,0
2,42,111,48
2,42,111,0
2,46,127,0
2,42,111,48
2,46,127,48
2,42,111,48
2,46,127,48
2,42,111,48
2,42,111,0
2,46,127,0
2,42,111,48
2,42,111,0
2,46,127,0
2,42,111,48
2,46,127,48
2,42,111,48
2,46,127,48
2,42,111,48
2,42,111,0
2,46,127,0
2,42,111,48
2,42,111,0
2,46,127,0
2,42,111,48
2,46,127,48
2,42,111,48
2,46,127,48
2,42,111,48
2,42,111,0
2,46,127,0
2,42,111,48
2,42,111,0
2,46,127,0
2,42,111,48
2,46,127,48
2,42,111,48
2,46,127,48
2,42,111,48
2,42,111,0
2,46,127,0
2,42,111,48
2,42,111,0
2,46,127,0
2,42,111,48
2,46,127,48
2,42,111,48
2,46,127,48
2,42,111,48
2,42,111,0
2,46,127,0
2,42,111,48
2,42,111,0
2,46,127,0
2,42,111,48
2,46,127,48
2,42,111,48
2,46,127,48
2,42,111,48
2,42,111,0
2,46,127,0
2,42,111,48
2,42,111,0
2,46,127,0
2,42,111,48
2,46,127,48
2,42,111,48
2,46,127,48
2,42,111,48
2,42,111,0
2,46,127,0
2,42,111,48
2,42,111,0
2,46,127,0
2,42,111,48
2,46,127,48
2,42,111,48
2,46,127,48
2,42,111,48
2,42,111,0
2,46,127,0
2,42,111,48
2,42,111,0
2,46,127,0
2,42,111,48
2,46,127,48
2,42,111,48
2,46,127,48
2,42,111,48
2,42,111,0
2,46,127,0
2,42,111,48
2,42,111,0
2,46,127,0
2,42,111,48
2,46,127,48
2,42,111,48
2,46,127,48
2,42,111,48
2,42,111,0
2,46,127,0
2,42,111,48
2,42,111,0
2,46,127,0
2,42,111,48
2,46,127,48
2,42,111,48
2,46,127,48
2,42,111,48
2,42,111,0
2,46,127,0
2,42,111,48
2,42,111,0
2,46,127,0
2,42,111,48
2,46,127,48
2,42,111,48
2,46,127,48
2,42,111,48
2,42,111,0
2,46,127,0
2,42,111,48
2,42,111,0
2,46,127,0
2,42,111,48
2,46,127,48
2,42,111,48
2,46,127,48
2,42,111,48
2,42,111,0
2,46,127,0
2,42,111,48
2,42,111,0
2,46,127,0
2,42,111,48
2,46,127,48
2,42,111,48
2,46,127,48
2,42,111,48
2,42,111,0
2,46,127,0
2,42,111,48
2,42,111,0
2,46,127,0
2,42,111,48
2,46,127,48
2,42,111,48
2,46,127,48
2,42,111,48
2,42,111,0
2,46,127,0
2,42,111,48
2,42,111,0
2,46,127,0
2,42,111,48
2,46,127,48
2,42,111,48
2,46,127,48
2,42,111,48
2,42,111,0
2,46,127,0
2,42,111,48
2,42,111,0
2,46,127,0
2,42,111,48
2,46,127,48
2,42,111,48
2,46,127,48
2,42,111,48
2,42,111,0
2,46,127,0
2,42,111,48
2,42,111,0
2,46,127,0
2,42,111,48
2,46,127,48
2,42,111,48
2,46,127,48
2,42,111,48
2,42,111,0
2,46,127,0
2,42,111,48
2,42,111,0
2,46,127,0
2,42,111,48
2,46,127,48
2,42,111,48
2,46,127,48
2,42,111,48
2,42,111,0
2,46,127,0
2,42,111,48
2,42,111,0
2,46,127,0
2,42,111,48
2,46,127,48
2,42,111,48
2,46,127,48
2,42,111,48
2,42,111,0
2,46,127,0
2,42,111,48
2,42,111,0
2,46,127,0
2,42,111,48
2,46,127,48
2,42,111,48
2,46,127,48
2,42,111,48
2,42,111,0
2,46,127,0
2,42,111,48
2,42,111,0
2,46,127,0
2,42,111,48
2,46,127,48
2,42,111,48
2,46,127,48
2,42,111,48
2,42,111,0
2,46,127,0
2,42,111,48
2,42,111,0
2,46,127,0
2,42,111,48
2,46,127,48
2,42,111,48
2,46,127,48
2,42,111,48
2,42,111,0
2,46,127,0
2,42,111,48
2,42,111,0
2,46,127,0
2,42,111,48
2,46,127,48
2,42,111,48
2,46,127,48
2,42,111,48
2,42,111,0
2,46,127,0
2,42,111,48
2,42,111,0
2,46,127,0
2,42,111,48
2,46,127,48
2,42,111,48
2,46,127,48
2,42,111,48
2,42,111,0
2,46,127,0
2,42,111,48
2,42,111,0
2,46,127,0
2,42,111,48
2,46,127,48
2,42,111,48
2,46,127,48
2,42,111,48
2,42,111,0
2,46,127,0
2,42,111,48
2,42,111,0
