track,note,velocity,time
0,55,126,0
0,36,126,0
0,35,126,0
0,57,126,0
0,49,126,0
0,35,0,44
0,49,0,0
0,57,0,0
0,55,0,0
0,36,0,0
0,55,126,1300
0,49,126,0
0,35,126,0
0,36,126,0
0,57,126,0
0,55,0,44
0,35,0,0
0,57,0,0
0,49,0,0
0,36,0,0
0,35,126,148
0,55,126,0
0,49,126,0
0,36,126,0
0,57,126,0
0,36,0,44
0,49,0,0
0,57,0,0
0,55,0,0
0,35,0,0
0,49,126,5956
0,35,126,0
0,55,126,0
0,36,126,0
0,57,126,0
0,35,0,44
0,36,0,0
0,55,0,0
0,57,0,0
0,49,0,0
0,35,126,148
0,36,126,0
0,38,7,0
0,57,127,0
0,55,127,0
0,49,127,0
0,35,0,44
0,38,0,0
0,36,0,0
0,38,7,4
0,38,0,44
0,38,7,4
0,38,0,44
0,38,7,4
0,38,0,44
0,38,7,4
0,38,0,44
0,38,7,4
0,38,0,44
0,38,7,4
0,38,0,44
0,38,7,4
0,38,0,44
0,38,7,4
0,38,0,44
0,38,7,4
0,38,0,44
0,38,7,4
0,38,0,44
0,38,7,4
0,38,0,44
0,38,6,4
0,38,0,44
0,38,6,4
0,38,0,44
0,38,6,4
0,38,0,44
0,38,6,4
0,38,0,44
0,38,6,4
0,38,0,44
0,38,6,4
0,38,0,44
0,38,6,4
0,38,0,44
0,38,6,4
0,38,0,44
0,38,6,4
0,38,0,44
0,38,6,4
0,38,0,44
0,38,6,4
0,38,0,44
0,38,6,4
0,38,0,44
0,38,6,4
0,38,0,44
0,38,6,4
0,38,0,44
0,38,6,4
0,38,0,44
0,38,6,4
0,38,0,44
0,38,6,4
0,38,0,44
0,38,6,4
0,38,0,44
0,38,6,4
0,38,0,44
0,38,6,4
0,49,0,32
0,57,0,8
0,55,0,0
0,38,0,4
0,38,7,4
0,38,0,44
0,38,7,4
0,38,0,44
0,38,7,4
0,38,0,44
0,38,7,4
0,38,0,44
0,38,7,4
0,38,0,44
0,38,7,4
0,38,0,44
0,38,7,4
0,38,0,44
0,38,7,4
0,38,0,44
0,38,7,4
0,38,0,44
0,38,7,4
0,38,0,44
0,38,7,4
0,38,0,44
0,38,7,4
0,38,0,44
0,38,7,4
0,38,0,44
0,38,7,4
0,38,0,44
0,38,7,4
0,38,0,44
0,38,7,4
0,38,0,44
0,38,7,4
0,38,0,44
0,38,7,4
0,38,0,44
0,38,7,4
0,38,0,44
0,38,7,4
0,38,0,44
0,38,7,4
0,38,0,44
0,38,7,4
0,38,0,44
0,38,7,4
0,38,0,44
0,38,7,4
0,38,0,44
0,38,7,4
0,38,0,44
0,38,7,4
0,38,0,44
0,38,7,4
0,38,0,44
0,38,7,4
0,38,0,44
0,38,7,4
0,38,0,44
0,38,7,4
0,38,0,44
0,38,7,4
0,38,0,44
0,38,8,4
0,38,0,44
0,38,10,4
0,38,0,44
0,38,10,4
0,38,0,44
0,38,11,4
0,38,0,44
0,38,12,4
0,38,0,44
0,38,14,4
0,38,0,44
0,38,14,4
0,38,0,44
0,38,15,4
0,38,0,44
0,38,17,4
0,38,0,44
0,38,20,4
0,38,0,44
0,38,20,4
0,38,0,44
0,38,22,4
0,38,0,44
0,38,24,4
0,38,0,44
0,38,28,4
0,38,0,44
0,38,28,4
0,38,0,44
0,38,30,4
0,38,0,44
0,38,34,4
0,38,0,44
0,38,37,4
0,38,0,44
0,38,37,4
0,38,0,44
0,38,40,4
0,38,0,44
0,38,41,4
0,38,0,44
0,38,44,4
0,38,0,44
0,38,44,4
0,38,0,44
0,38,45,4
0,38,0,44
0,38,48,4
0,38,0,44
0,38,50,4
0,38,0,44
0,38,50,4
0,38,0,44
0,38,54,4
0,38,0,44
0,38,55,4
0,38,0,44
0,38,58,4
0,38,0,44
0,38,58,4
0,38,0,44
0,38,61,4
0,38,0,44
0,38,64,4
0,38,0,44
0,38,67,4
0,38,0,44
0,38,67,4
0,38,0,44
0,38,70,4
0,38,0,44
0,38,73,4
0,38,0,44
0,38,75,4
0,38,0,44
0,38,75,4
0,38,0,44
0,38,77,4
0,38,0,44
0,38,80,4
0,38,0,44
0,38,83,4
0,38,0,44
0,38,83,4
0,38,0,44
0,38,85,4
0,38,0,44
0,38,88,4
0,38,0,44
0,38,91,4
0,38,0,44
0,38,91,4
0,38,0,44
0,38,94,4
0,38,0,44
0,38,97,4
0,38,0,44
0,38,102,4
0,38,0,44
0,38,102,4
0,38,0,44
0,38,102,4
0,38,0,44
0,38,105,4
0,38,0,44
0,38,108,4
0,38,0,44
0,38,108,4
0,38,0,44
0,38,110,4
0,38,0,44
0,38,111,4
0,38,0,44
0,38,113,4
0,38,0,12
0,38,113,4
0,38,0,12
0,38,113,4
0,38,0,14
0,38,113,2
0,38,0,12
0,38,113,4
0,38,0,12
0,38,113,4
0,38,0,12
0,38,113,4
0,38,0,12
0,38,113,4
0,38,0,14
0,38,113,2
0,38,0,14
0,38,113,2
0,38,0,12
0,38,113,4
0,38,0,12
0,38,113,4
0,38,0,12
0,38,113,4
0,38,0,10
0,38,113,6
0,38,0,12
0,38,113,4
0,38,0,12
0,38,113,4
0,38,0,12
0,38,113,4
0,38,0,12
0,38,113,4
0,38,0,14
0,38,113,2
0,38,0,10
0,38,113,6
0,38,0,10
0,38,113,6
0,38,0,12
0,38,113,4
0,38,0,12
0,38,113,4
0,38,0,12
0,38,113,4
0,55,127,16
0,35,127,0
0,38,0,0
0,36,127,0
0,57,127,0
0,49,127,0
0,36,0,44
0,35,0,0
0,51,99,52
0,44,97,0
0,44,0,44
0,51,0,0
0,51,99,4
0,44,97,0
0,51,0,44
0,44,0,0
0,39,97,4
0,35,126,0
0,38,103,0
0,36,126,0
0,39,0,44
0,35,0,0
0,38,0,0
0,36,0,0
0,44,97,52
0,51,99,0
0,51,0,44
0,44,0,0
0,51,99,4
0,44,97,0
0,51,0,44
0,44,0,0
0,35,126,4
0,36,126,0
0,36,0,44
0,35,0,0
0,51,99,52
0,44,97,0
0,44,0,44
0,51,0,0
0,51,99,4
0,44,97,0
0,51,0,44
0,44,0,0
0,39,97,4
0,38,104,0
0,35,126,0
0,36,126,0
0,35,0,44
0,36,0,0
0,38,0,0
0,39,0,0
0,51,99,52
0,44,97,0
0,44,0,44
0,51,0,0
0,51,99,4
0,44,97,0
0,57,0,32
0,55,0,8
0,49,0,0
0,44,0,4
0,51,0,0
0,36,126,4
0,35,126,0
0,36,0,44
0,35,0,0
0,44,97,52
0,51,99,0
0,44,0,44
0,51,0,0
0,51,99,4
0,44,97,0
0,44,0,44
0,51,0,0
0,36,126,4
0,39,97,0
0,35,126,0
0,38,104,0
0,35,0,44
0,38,0,0
0,36,0,0
0,39,0,0
0,51,99,52
0,44,97,0
0,51,0,44
0,44,0,0
0,51,99,4
0,44,97,0
0,51,0,44
0,44,0,0
0,35,126,4
0,36,126,0
0,35,0,44
0,36,0,0
0,44,97,52
0,51,99,0
0,44,0,44
0,51,0,0
0,44,97,4
0,51,99,0
0,44,0,44
0,51,0,0
0,39,97,4
0,36,126,0
0,35,126,0
0,38,104,0
0,36,0,44
0,39,0,0
0,35,0,0
0,38,0,0
0,44,97,52
0,51,99,0
0,44,0,44
0,51,0,0
0,51,99,4
0,44,97,0
0,51,0,44
0,44,0,0
0,36,126,4
0,35,126,0
0,36,0,44
0,35,0,0
0,44,96,52
0,51,99,0
0,44,0,44
0,51,0,0
0,44,96,4
0,51,99,0
0,44,0,44
0,51,0,0
0,38,104,4
0,35,126,0
0,39,96,0
0,36,126,0
0,38,0,44
0,35,0,0
0,36,0,0
0,39,0,0
0,44,96,52
0,51,99,0
0,44,0,44
0,51,0,0
0,51,99,4
0,44,96,0
0,44,0,44
0,51,0,0
0,36,126,4
0,35,126,0
0,35,0,44
0,36,0,0
0,44,96,52
0,51,99,0
0,51,0,44
0,44,0,0
0,51,99,4
0,44,96,0
0,44,0,44
0,51,0,0
0,39,95,4
0,35,126,0
0,36,126,0
0,38,104,0
0,35,0,44
0,36,0,0
0,38,0,0
0,39,0,0
0,44,95,52
0,51,99,0
0,44,0,44
0,51,0,0
0,51,99,4
0,44,95,0
0,51,0,44
0,44,0,0
0,35,126,4
0,36,126,0
0,36,0,44
0,35,0,0
0,44,95,52
0,51,99,0
0,51,0,44
0,44,0,0
0,44,95,4
0,51,99,0
0,44,0,44
0,51,0,0
0,39,95,4
0,35,126,0
0,36,126,0
0,38,104,0
0,36,0,44
0,39,0,0
0,35,0,0
0,38,0,0
0,51,99,52
0,44,95,0
0,51,0,44
0,44,0,0
0,51,99,4
0,44,95,0
0,44,0,44
0,51,0,0
0,35,126,4
0,36,126,0
0,35,0,44
0,36,0,0
0,51,99,52
0,44,95,0
0,44,0,44
0,51,0,0
0,51,99,4
0,44,95,0
0,51,0,44
0,44,0,0
0,35,126,4
0,39,95,0
0,38,104,0
0,36,126,0
0,39,0,44
0,38,0,0
0,36,0,0
0,35,0,0
0,51,99,52
0,44,95,0
0,44,0,44
0,51,0,0
0,51,99,4
0,44,95,0
0,51,0,44
0,44,0,0
0,35,126,4
0,36,126,0
0,36,0,44
0,35,0,0
0,44,95,52
0,51,101,0
0,44,0,44
0,51,0,0
0,44,95,4
0,51,101,0
0,44,0,44
0,51,0,0
0,38,104,4
0,36,126,0
0,35,126,0
0,39,95,0
0,39,0,44
0,38,0,0
0,35,0,0
0,36,0,0
0,51,101,52
0,44,95,0
0,51,0,44
0,44,0,0
0,51,101,4
0,44,95,0
0,51,0,44
0,44,0,0
0,35,126,4
0,36,126,0
0,36,0,44
0,35,0,0
0,44,95,52
0,51,101,0
0,51,0,44
0,44,0,0
0,44,95,4
0,51,101,0
0,51,0,44
0,44,0,0
0,35,126,4
0,38,104,0
0,36,126,0
0,39,95,0
0,36,0,44
0,35,0,0
0,39,0,0
0,38,0,0
0,51,101,52
0,44,95,0
0,51,0,44
0,44,0,0
0,51,101,4
0,44,95,0
0,51,0,44
0,44,0,0
0,36,126,4
0,35,126,0
0,36,0,44
0,35,0,0
0,44,95,52
0,51,101,0
0,51,0,44
0,44,0,0
0,44,95,4
0,51,101,0
0,51,0,44
0,44,0,0
0,35,126,4
0,36,126,0
0,38,104,0
0,39,95,0
0,36,0,44
0,39,0,0
0,35,0,0
0,38,0,0
0,44,95,52
0,51,101,0
0,44,0,44
0,51,0,0
0,51,101,4
0,44,95,0
0,51,0,44
0,44,0,0
0,35,126,4
0,36,126,0
0,35,0,44
0,36,0,0
0,44,95,52
0,51,101,0
0,44,0,44
0,51,0,0
0,44,95,4
0,51,101,0
0,51,0,44
0,44,0,0
0,36,126,4
0,39,95,0
0,38,104,0
0,35,126,0
0,38,0,44
0,35,0,0
0,39,0,0
0,36,0,0
0,44,95,52
0,51,101,0
0,51,0,44
0,44,0,0
0,44,95,4
0,51,101,0
0,51,0,44
0,44,0,0
0,36,126,4
0,35,126,0
0,36,0,44
0,35,0,0
0,44,95,52
0,51,101,0
0,44,0,44
0,51,0,0
0,51,101,4
0,44,95,0
0,51,0,44
0,44,0,0
0,38,104,4
0,39,95,0
0,35,126,0
0,36,126,0
0,39,0,44
0,36,0,0
0,35,0,0
0,38,0,0
0,44,95,52
0,51,101,0
0,44,0,44
0,51,0,0
0,51,101,4
0,44,95,0
0,51,0,44
0,44,0,0
0,35,126,4
0,36,126,0
0,35,0,44
0,36,0,0
0,44,95,52
0,51,101,0
0,44,0,44
0,51,0,0
0,51,101,4
0,44,95,0
0,44,0,44
0,51,0,0
0,36,126,4
0,35,126,0
0,38,104,0
0,39,95,0
0,39,0,44
0,35,0,0
0,38,0,0
0,36,0,0
0,44,95,52
0,51,101,0
0,51,0,44
0,44,0,0
0,44,95,4
0,51,101,0
0,44,0,44
0,51,0,0
0,35,126,4
0,36,126,0
0,36,0,44
0,35,0,0
0,51,101,52
0,44,95,0
0,51,0,44
0,44,0,0
0,51,101,4
0,44,95,0
0,51,0,44
0,44,0,0
0,35,126,4
0,36,126,0
0,39,95,0
0,38,104,0
0,38,0,44
0,39,0,0
0,35,0,0
0,36,0,0
0,51,101,52
0,44,95,0
0,51,0,44
0,44,0,0
0,44,95,4
0,51,101,0
0,44,0,44
0,51,0,0
0,36,126,4
0,35,126,0
0,36,0,44
0,35,0,0
0,44,95,52
0,51,101,0
0,51,0,44
0,44,0,0
0,44,95,4
0,51,101,0
0,51,0,44
0,44,0,0
0,38,104,4
0,36,126,0
0,35,126,0
0,39,95,0
0,35,0,44
0,36,0,0
0,38,0,0
0,39,0,0
0,51,101,52
0,44,95,0
0,44,0,44
0,51,0,0
0,44,95,4
0,51,101,0
0,44,0,44
0,51,0,0
0,36,126,4
0,35,126,0
0,35,0,44
0,36,0,0
0,51,101,52
0,44,95,0
0,51,0,44
0,44,0,0
0,44,95,4
0,51,101,0
0,51,0,44
0,44,0,0
0,36,126,4
0,39,95,0
0,35,126,0
0,38,104,0
0,38,0,44
0,36,0,0
0,35,0,0
0,39,0,0
0,44,95,52
0,51,101,0
0,51,0,44
0,44,0,0
0,44,95,4
0,51,101,0
0,44,0,44
0,51,0,0
0,35,126,4
0,36,126,0
0,36,0,44
0,35,0,0
0,44,95,52
0,51,101,0
0,51,0,44
0,44,0,0
0,44,95,4
0,51,101,0
0,44,0,44
0,51,0,0
0,39,95,4
0,35,126,0
0,36,126,0
0,38,104,0
0,36,0,44
0,39,0,0
0,35,0,0
0,38,0,0
0,44,95,52
0,51,101,0
0,51,0,44
0,44,0,0
0,51,101,4
0,44,95,0
0,44,0,44
0,51,0,0
0,36,126,4
0,35,126,0
0,35,0,44
0,36,0,0
0,44,96,52
0,51,101,0
0,44,0,44
0,51,0,0
0,51,101,4
0,44,96,0
0,44,0,44
0,51,0,0
0,35,126,4
0,38,104,0
0,36,126,0
0,39,96,0
0,36,0,44
0,38,0,0
0,39,0,0
0,35,0,0
0,44,96,52
0,51,101,0
0,51,0,44
0,44,0,0
0,51,101,4
0,44,96,0
0,51,0,44
0,44,0,0
0,36,126,4
0,35,126,0
0,35,0,44
0,36,0,0
0,51,101,52
0,44,96,0
0,44,0,44
0,51,0,0
0,51,101,4
0,44,96,0
0,51,0,44
0,44,0,0
0,36,126,4
0,35,126,0
0,38,104,0
0,39,96,0
0,38,0,44
0,39,0,0
0,36,0,0
0,35,0,0
0,44,96,52
0,51,101,0
0,51,0,44
0,44,0,0
0,44,96,4
0,51,101,0
0,44,0,44
0,51,0,0
0,35,126,4
0,36,126,0
0,35,0,44
0,36,0,0
0,51,101,52
0,44,96,0
0,44,0,44
0,51,0,0
0,44,96,4
0,51,101,0
0,44,0,44
0,51,0,0
0,35,126,4
0,36,126,0
0,39,96,0
0,38,104,0
0,35,0,44
0,38,0,0
0,39,0,0
0,36,0,0
0,44,97,52
0,51,101,0
0,51,0,44
0,44,0,0
0,51,101,4
0,44,97,0
0,51,0,44
0,44,0,0
0,36,126,4
0,35,126,0
0,35,0,44
0,36,0,0
0,51,101,52
0,44,97,0
0,51,0,44
0,44,0,0
0,51,101,4
0,44,97,0
0,51,0,44
0,44,0,0
0,36,126,4
0,39,97,0
0,38,104,0
0,35,126,0
0,39,0,44
0,38,0,0
0,35,0,0
0,36,0,0
0,44,97,52
0,51,101,0
0,44,0,44
0,51,0,0
0,44,97,4
0,51,101,0
0,51,0,44
0,44,0,0
0,35,126,4
0,36,126,0
0,36,0,44
0,35,0,0
0,44,97,52
0,51,101,0
0,51,0,44
0,44,0,0
0,44,97,4
0,51,101,0
0,51,0,44
0,44,0,0
0,36,126,4
0,38,104,0
0,39,97,0
0,35,126,0
0,36,0,44
0,35,0,0
0,39,0,0
0,38,0,0
0,51,101,52
0,44,97,0
0,51,0,44
0,44,0,0
0,44,97,4
0,51,101,0
0,51,0,44
0,44,0,0
0,36,126,4
0,35,126,0
0,36,0,44
0,35,0,0
0,44,97,52
0,51,101,0
0,44,0,44
0,51,0,0
0,44,97,4
0,51,101,0
0,44,0,44
0,51,0,0
