track,note,velocity,time
1,36,127,483
1,36,0,52
1,40,127,66
1,40,0,44
1,36,127,77
1,36,0,28
1,36,121,35
1,36,0,24
1,40,127,37
1,40,0,43
1,36,127,74
1,36,0,52
1,40,127,66
1,40,0,44
1,36,127,77
1,36,0,28
1,36,121,35
1,36,0,24
1,40,127,37
1,40,0,43
1,36,127,74
1,36,0,52
1,40,127,66
1,40,0,44
1,36,127,77
1,36,0,28
1,36,121,35
1,36,0,24
1,40,127,37
1,40,0,43
1,36,127,74
1,36,0,52
1,40,127,66
1,40,0,44
1,36,127,77
1,36,0,28
1,36,121,35
1,36,0,24
1,40,127,37
1,40,0,43
1,36,127,74
1,36,0,52
1,40,127,66
1,40,0,44
1,36,127,77
1,36,0,28
1,36,121,35
1,36,0,24
1,40,127,37
1,40,0,43
1,36,127,74
1,36,0,52
1,40,127,66
1,40,0,44
1,36,127,77
1,36,0,28
1,36,121,35
1,36,0,24
1,40,127,37
1,40,0,43
1,36,127,74
1,36,0,52
1,40,127,66
1,40,0,44
1,36,127,77
1,36,0,28
1,36,121,35
1,36,0,24
1,40,127,37
1,40,0,43
1,36,127,74
1,36,0,52
1,40,127,66
1,40,0,44
1,36,127,77
1,36,0,28
1,36,121,35
1,36,0,24
1,40,127,37
1,40,0,43
1,36,127,74
1,36,0,52
1,40,127,66
1,40,0,44
1,36,127,77
1,36,0,28
1,36,121,35
1,36,0,24
1,40,127,37
1,40,0,43
1,36,127,74
1,36,0,52
1,40,127,66
1,40,0,44
1,36,127,77
1,36,0,28
1,36,121,35
1,36,0,24
1,40,127,37
1,40,0,43
1,36,127,74
1,36,0,52
1,40,127,66
1,40,0,44
1,36,127,77
1,36,0,28
1,36,121,35
1,36,0,24
1,40,127,37
1,40,0,43
1,36,127,74
1,36,0,52
1,40,127,66
1,40,0,44
1,36,127,77
1,36,0,28
1,36,121,35
1,36,0,24
1,40,127,37
1,40,0,43
1,36,127,74
1,36,0,52
1,40,127,66
1,40,0,44
1,36,127,77
1,36,0,28
1,36,121,35
1,36,0,24
1,40,127,37
1,40,0,43
1,36,127,74
1,36,0,52
1,40,127,66
1,40,0,44
1,36,127,77
1,36,0,28
1,36,121,35
1,36,0,24
1,40,127,37
1,40,0,43
1,36,127,74
1,36,0,52
1,40,127,66
1,40,0,44
1,36,127,77
1,36,0,28
1,36,121,35
1,36,0,24
1,40,127,37
1,40,0,43
1,36,127,74
1,36,0,52
1,40,127,66
1,40,0,44
1,36,127,77
1,36,0,28
1,36,121,35
1,36,0,24
1,40,127,37
1,40,0,43
1,36,127,74
1,36,0,52
1,40,127,66
1,40,0,44
1,36,127,77
1,36,0,28
1,36,121,35
1,36,0,24
1,40,127,37
1,40,0,43
1,36,127,74
1,36,0,52
1,40,127,66
1,40,0,44
1,36,127,77
1,36,0,28
1,36,121,35
1,36,0,24
1,40,127,37
1,40,0,43
1,36,127,74
1,36,0,52
1,40,127,66
1,40,0,44
1,36,127,77
1,36,0,28
1,36,121,35
1,36,0,24
1,40,127,37
1,40,0,43
1,36,127,74
1,36,0,52
1,40,127,66
1,40,0,44
1,36,127,77
1,36,0,28
1,36,121,35
1,36,0,24
1,40,127,37
1,40,0,43
1,36,127,74
1,36,0,52
1,40,127,66
1,40,0,44
1,36,127,77
1,36,0,28
1,36,121,35
1,36,0,24
1,40,127,37
1,40,0,43
1,36,127,74
1,36,0,52
1,40,127,66
1,40,0,44
1,36,127,77
1,36,0,28
1,36,121,35
1,36,0,24
1,40,127,37
1,40,0,43
1,36,127,74
1,36,0,52
1,40,127,66
1,40,0,44
1,36,127,77
1,36,0,28
1,36,121,35
1,36,0,24
1,40,127,37
1,40,0,43
1,36,127,74
1,36,0,52
1,40,127,66
1,40,0,44
1,36,127,77
1,36,0,28
1,36,121,35
1,36,0,24
1,40,127,37
1,40,0,43
1,36,127,74
1,36,0,52
1,40,127,66
1,40,0,44
1,36,127,77
1,36,0,28
1,36,121,35
1,36,0,24
1,40,127,37
1,40,0,43
1,36,127,74
1,36,0,52
1,40,127,66
1,40,0,44
1,36,127,77
1,36,0,28
1,36,121,35
1,36,0,24
1,40,127,37
1,40,0,43
1,36,127,74
1,36,0,52
1,40,127,66
1,40,0,44
1,36,127,77
1,36,0,28
1,36,121,35
1,36,0,24
1,40,127,37
1,40,0,43
1,36,127,74
1,36,0,52
1,40,127,66
1,40,0,44
1,36,127,77
1,36,0,28
1,36,121,35
1,36,0,24
1,40,127,37
1,40,0,43
1,36,127,74
1,36,0,52
1,40,127,66
1,40,0,44
1,36,127,77
1,36,0,28
1,36,121,35
1,36,0,24
1,40,127,37
1,40,0,43
1,36,127,74
1,36,0,52
1,40,127,66
1,40,0,44
1,36,127,77
1,36,0,28
1,36,121,35
1,36,0,24
1,40,127,37
1,40,0,43
1,36,127,74
1,36,0,52
1,40,127,66
1,40,0,44
1,36,127,77
1,36,0,28
1,36,121,35
1,36,0,24
1,40,127,37
1,40,0,43
1,36,127,74
1,36,0,52
1,40,127,66
1,40,0,44
1,36,127,77
1,36,0,28
1,36,121,35
1,36,0,24
1,40,127,37
1,40,0,43
1,36,127,74
1,36,0,52
1,40,127,66
1,40,0,44
1,36,127,77
1,36,0,28
1,36,121,35
1,36,0,24
1,40,127,37
1,40,0,43
1,36,127,74
1,36,0,52
1,40,127,66
1,40,0,44
1,36,127,77
1,36,0,28
1,36,121,35
1,36,0,24
1,40,127,37
1,40,0,43
1,36,127,74
1,36,0,52
1,40,127,66
1,40,0,44
1,36,127,77
1,36,0,28
1,36,121,35
1,36,0,24
1,40,127,37
1,40,0,43
1,36,127,74
1,36,0,52
1,40,127,66
1,40,0,44
1,36,127,77
1,36,0,28
1,36,121,35
1,36,0,24
1,40,127,37
1,40,0,43
1,36,127,74
1,36,0,52
1,40,127,66
1,40,0,44
1,36,127,77
1,36,0,28
1,36,121,35
1,36,0,24
1,40,127,37
1,40,0,43
1,36,127,74
1,36,0,52
1,40,127,66
1,40,0,44
1,36,127,77
1,36,0,28
1,36,121,35
1,36,0,24
1,40,127,37
1,40,0,43
1,36,127,74
1,36,0,52
1,40,127,66
1,40,0,44
1,36,127,77
1,36,0,28
1,36,121,35
1,36,0,24
1,40,127,37
1,40,0,43
1,36,127,74
1,36,0,52
1,40,127,66
1,40,0,44
1,36,127,77
1,36,0,28
1,36,121,35
1,36,0,24
1,40,127,37
1,40,0,43
1,36,127,74
1,36,0,52
1,40,127,66
1,40,0,44
1,36,127,77
1,36,0,28
1,36,121,35
1,36,0,24
1,40,127,37
1,40,0,43
1,36,127,74
1,36,0,52
1,40,127,66
1,40,0,44
1,36,127,77
1,36,0,28
1,36,121,35
1,36,0,24
1,40,127,37
1,40,0,43
1,36,127,74
1,36,0,52
1,40,127,66
1,40,0,44
1,36,127,77
1,36,0,28
1,36,121,35
1,36,0,24
1,40,127,37
1,40,0,43
1,36,127,74
1,36,0,52
1,40,127,66
1,40,0,44
1,36,127,77
1,36,0,28
1,36,121,35
1,36,0,24
1,40,127,37
1,40,0,43
1,36,127,74
1,36,0,52
1,40,127,66
1,40,0,44
1,36,127,77
1,36,0,28
1,36,121,35
1,36,0,24
1,40,127,37
1,40,0,43
1,36,127,74
1,36,0,52
1,40,127,66
1,40,0,44
1,36,127,77
1,36,0,28
1,36,121,35
1,36,0,24
1,40,127,31
1,40,127,30
1,40,127,30
1,40,0,30
1,40,127,0
1,36,127,33
1,40,0,7
1,40,0,40
1,36,0,5
1,40,0,42
1,40,127,24
1,40,0,44
1,36,127,77
1,36,0,28
1,36,121,35
1,36,0,24
1,40,127,37
1,40,0,43
1,36,127,74
1,36,0,52
1,40,127,66
1,40,0,44
1,36,127,77
1,36,0,28
1,36,121,35
1,36,0,24
1,40,127,37
1,40,0,43
1,36,127,74
1,36,0,52
1,40,127,66
1,40,0,44
1,36,127,77
1,36,0,28
1,36,121,35
1,36,0,24
1,40,127,37
1,40,0,43
1,36,127,74
1,36,0,52
1,40,127,66
1,40,0,44
1,36,127,77
1,36,0,28
1,36,121,35
1,36,0,24
1,40,127,37
1,40,0,43
1,36,127,74
1,36,0,52
1,40,127,66
1,40,0,44
1,36,127,77
1,36,0,28
1,36,121,35
1,36,0,24
1,40,127,37
1,40,0,43
1,36,127,74
1,36,0,52
1,40,127,66
1,40,0,44
1,36,127,77
1,36,0,28
1,36,121,35
1,36,0,24
1,40,127,37
1,40,0,43
1,36,127,74
1,36,0,52
1,40,127,66
1,40,0,44
1,36,127,77
1,36,0,28
1,36,121,35
1,36,121,0
1,36,0,24
1,36,0,0
1,40,127,37
1,40,0,43
1,36,127,74
1,36,0,52
1,40,127,66
1,40,0,44
1,36,127,77
1,36,0,28
1,36,121,35
1,36,0,24
1,40,127,37
1,40,0,43
1,36,127,74
1,36,0,52
1,40,127,66
1,40,0,44
1,36,127,77
1,36,0,28
1,36,121,35
1,36,0,24
1,40,127,37
1,40,0,43
1,36,127,74
1,36,0,52
1,40,127,66
1,40,0,44
1,36,127,77
1,36,0,28
1,36,121,35
1,36,0,24
1,40,127,37
1,40,0,43
1,36,127,74
1,36,0,52
1,40,127,66
1,40,0,44
1,36,127,77
1,36,0,28
1,36,121,35
1,36,0,24
1,40,127,37
1,40,0,43
1,36,127,74
1,36,0,52
1,40,127,66
1,40,0,44
1,36,127,77
1,36,0,28
1,36,121,35
1,36,0,24
1,40,127,37
1,40,0,43
1,36,127,74
1,36,0,52
1,40,127,66
1,40,0,44
1,36,127,77
1,36,0,28
1,36,121,35
1,36,0,24
1,40,127,37
1,40,0,43
1,36,127,74
1,36,0,52
1,40,127,66
1,40,0,44
1,36,127,77
1,36,0,28
1,36,121,35
1,36,0,24
1,40,127,37
1,40,0,43
1,36,127,74
1,36,0,52
1,40,127,66
1,40,0,44
1,36,127,77
1,36,0,28
1,36,121,35
1,36,0,24
1,40,127,37
1,40,0,43
1,36,127,74
1,36,0,52
1,40,127,66
1,40,0,44
1,36,127,77
1,36,0,28
1,36,121,35
1,36,0,24
1,40,127,37
1,40,0,43
1,36,127,74
1,36,0,52
1,40,127,66
1,40,0,44
1,36,127,77
1,36,0,28
1,36,121,35
1,36,0,24
1,40,127,37
1,40,0,43
1,36,127,74
1,36,0,52
1,40,127,66
1,40,0,44
1,36,127,77
1,36,0,28
1,36,121,35
1,36,0,24
1,40,127,37
1,40,0,43
1,36,127,74
1,36,127,0
1,36,0,52
1,36,0,0
1,40,127,66
1,40,0,44
1,36,127,77
1,36,0,28
1,36,121,35
1,36,0,24
1,40,127,37
1,40,0,43
1,36,127,74
1,36,0,52
1,40,127,66
1,40,0,44
1,36,127,77
1,36,0,28
1,36,121,35
1,36,0,24
1,40,127,37
1,40,0,43
1,36,127,74
1,36,0,52
1,40,127,66
1,40,0,44
1,36,127,77
1,36,0,28
1,36,121,35
1,36,0,24
1,40,127,37
1,40,0,43
1,36,127,74
1,36,0,52
1,40,127,66
1,40,0,44
1,36,127,77
1,36,0,28
1,36,121,35
1,36,0,24
1,40,127,37
1,40,0,43
1,36,127,74
1,36,0,52
1,40,127,66
1,40,0,44
1,36,127,77
1,36,0,28
1,36,121,35
1,36,0,24
1,40,127,37
1,40,0,43
1,36,127,74
1,36,0,52
1,40,127,66
1,40,0,44
1,36,127,77
1,36,0,28
1,36,121,35
1,36,0,24
1,40,127,37
1,40,0,43
1,36,127,74
1,36,0,52
1,40,127,66
1,40,0,44
1,36,127,77
1,36,0,28
1,36,121,35
1,36,0,24
1,40,127,37
1,40,0,43
1,36,127,74
1,36,0,52
1,40,127,66
1,40,0,44
1,36,127,77
1,36,0,28
1,36,121,35
1,36,0,24
1,40,127,37
1,40,0,43
1,36,127,74
1,36,0,52
1,40,127,66
1,40,0,44
1,36,127,77
1,36,0,28
1,36,121,35
1,36,0,24
1,40,127,37
1,40,0,43
1,36,127,74
1,36,0,52
1,40,127,66
1,40,0,44
1,36,127,77
1,36,0,28
1,36,121,35
1,36,0,24
1,40,127,37
1,40,0,43
1,36,127,74
1,36,0,52
1,40,127,66
1,40,0,44
1,36,127,77
1,36,0,28
1,36,121,35
1,36,0,24
1,40,127,37
1,40,0,43
1,36,127,74
1,36,0,52
1,40,127,66
1,40,0,44
1,36,127,77
1,36,0,28
1,36,121,35
1,36,0,24
1,40,127,37
1,40,0,43
1,36,127,74
1,36,0,52
1,40,127,66
1,40,0,44
1,36,127,77
1,36,0,28
1,36,121,35
1,36,0,24
1,40,127,37
1,40,0,43
1,36,127,74
1,36,0,52
1,40,127,66
1,40,0,44
1,36,127,77
1,36,0,28
1,36,121,35
1,36,0,24
1,40,127,37
1,40,0,43
1,36,127,74
1,36,0,52
1,40,127,66
1,40,0,44
1,36,127,77
1,36,0,28
1,36,121,35
1,36,0,24
1,40,127,37
1,40,0,43
1,36,127,74
1,36,0,52
1,40,127,66
1,40,0,44
1,36,127,77
1,36,0,28
1,36,121,35
1,36,0,24
1,40,127,37
1,40,0,43
1,36,127,74
1,36,0,52
1,40,127,66
1,40,0,44
1,36,127,77
1,36,0,28
1,36,121,35
1,36,0,24
1,40,127,37
1,40,0,43
1,36,127,74
1,36,0,52
1,40,127,66
1,40,0,44
1,36,127,77
1,36,0,28
1,36,121,35
1,36,0,24
1,40,127,37
1,40,0,43
1,36,127,74
1,36,0,52
1,40,127,66
1,40,0,44
1,36,127,77
1,36,0,28
1,36,121,35
1,36,0,24
1,40,127,37
1,40,0,43
1,36,127,74
1,36,0,52
1,40,127,66
1,40,0,44
1,36,127,77
1,36,0,28
1,36,121,35
1,36,0,24
1,40,127,37
1,40,0,43
1,36,127,74
1,36,0,52
1,40,127,66
1,40,0,44
1,36,127,77
1,36,0,28
1,36,121,35
1,36,0,24
1,40,127,37
1,40,0,43
1,36,127,74
1,36,0,52
1,40,127,66
1,40,0,44
1,36,127,77
1,36,0,28
1,36,121,35
1,36,0,24
1,40,127,37
1,40,0,43
1,36,127,74
1,36,0,52
1,40,127,66
1,40,0,44
1,36,127,77
1,36,0,28
1,36,121,35
1,36,0,24
1,40,127,37
1,40,0,43
1,36,127,74
1,36,0,52
1,40,127,66
1,40,0,44
1,36,127,77
1,36,0,28
1,36,121,35
1,36,0,24
1,40,127,37
1,40,0,43
1,36,127,74
1,36,0,52
1,40,127,66
1,40,0,44
1,36,127,77
1,36,0,28
1,36,121,35
1,36,0,24
1,40,127,37
1,40,0,43
1,36,127,74
1,36,0,52
1,40,127,66
1,40,0,44
1,36,127,77
1,36,0,28
1,36,121,35
1,36,0,24
1,40,127,37
1,40,0,43
1,36,127,74
1,36,0,52
1,40,127,66
1,40,0,44
1,36,127,77
1,36,0,28
1,36,121,35
1,36,0,24
1,40,127,37
1,40,0,43
1,36,127,74
1,36,0,52
1,40,127,66
1,40,0,44
1,36,127,77
1,36,0,28
1,36,121,35
1,36,0,24
1,40,127,37
1,40,0,43
1,36,127,74
1,36,0,52
1,40,127,66
1,40,0,44
1,36,127,77
1,36,0,28
1,36,121,35
1,36,0,24
1,40,127,37
1,40,0,43
1,36,127,74
1,36,0,52
1,40,127,66
1,40,0,44
1,36,127,77
1,36,0,28
1,36,121,35
1,36,0,24
1,40,127,37
1,40,0,43
1,36,127,74
1,36,0,52
1,40,127,66
1,40,0,44
1,36,127,77
1,36,0,28
1,36,121,35
1,36,0,24
1,40,127,37
1,40,0,43
1,36,127,74
1,36,0,52
1,40,127,66
1,40,0,44
1,36,127,77
1,36,0,28
1,36,121,35
1,36,0,24
1,40,127,37
1,40,0,43
1,36,127,74
1,36,0,52
1,40,127,66
1,40,0,44
1,36,127,77
1,36,0,28
1,36,121,35
1,36,0,24
1,40,127,37
1,40,0,43
1,36,127,73
1,52,127,3
1,52,0,44
1,36,0,14
2,52,124,483
2,53,18,0
2,53,0,59
2,52,0,0
2,46,114,1
2,46,0,59
2,46,111,1
2,46,0,59
2,46,127,1
2,46,0,59
2,46,127,1
2,46,0,59
2,46,127,1
2,46,0,59
2,46,127,1
2,46,0,59
