track,note,velocity,time
1,53,42,1536
1,41,36,16
1,48,55,267
1,57,57,325
1,60,34,11
1,65,37,10
1,53,61,81
1,55,55,12
1,60,41,10
1,64,42,4
1,48,60,117
1,58,68,264
1,53,38,14
1,52,65,112
1,50,74,69
1,48,74,8
1,57,72,31
1,53,67,8
1,53,66,66
1,41,47,1
1,48,49,0
1,53,68,36
1,60,45,17
1,65,61,6
1,57,64,9
1,53,61,60
1,55,46,242
1,64,45,19
1,60,22,0
1,48,56,5
1,58,63,97
1,53,46,25
1,52,60,17
1,50,71,13
1,48,74,27
1,57,71,43
1,53,45,21
1,60,75,7
1,65,63,58
1,45,59,8
1,64,68,6
1,65,62,117
1,69,51,6
1,60,56,12
1,57,48,5
1,60,44,165
1,58,72,168
1,55,33,17
1,53,36,4
1,62,68,141
1,46,62,56
1,65,73,8
1,64,72,8
1,65,71,66
1,67,54,2
1,62,61,17
1,58,72,13
1,62,71,25
1,48,34,24
1,60,75,10
1,57,48,7
1,65,65,18
1,69,71,1
1,60,47,56
1,64,72,8
1,62,71,51
1,60,48,23
1,48,54,8
1,64,47,11
1,58,70,16
1,36,45,142
1,57,58,0
1,55,60,13
1,57,50,48
1,65,55,10
1,41,32,9
1,60,47,165
1,57,43,8
1,60,50,12
1,53,51,100
1,48,44,160
1,72,100,43
1,69,39,24
1,45,54,9
1,48,55,56
1,72,100,48
1,69,57,15
1,53,30,7
1,41,37,1
1,69,92,50
1,65,55,10
1,48,40,4
1,70,102,53
1,67,57,25
1,72,99,17
1,57,41,12
1,69,39,2
1,77,91,50
1,53,31,9
1,69,39,6
1,76,84,14
1,67,45,13
1,55,24,4
1,74,69,159
1,65,42,0
1,48,25,26
1,58,36,146
1,72,59,2
1,64,15,20
1,72,88,136
1,67,56,7
1,60,52,0
1,52,39,10
1,72,91,137
1,69,71,11
1,57,46,2
1,53,57,101
1,65,67,2
1,41,50,5
1,69,69,0
1,48,56,4
1,70,92,10
1,67,80,4
1,53,56,17
1,72,91,6
1,57,59,11
1,69,65,4
1,77,93,13
1,53,39,18
1,69,55,4
1,76,82,154
1,67,49,11
1,55,37,4
1,74,70,37
1,65,47,4
1,48,37,0
1,58,59,12
1,72,59,10
1,64,42,4
1,60,64,64
1,55,42,9
1,53,44,23
1,57,59,3
1,45,33,10
1,60,57,0
1,65,75,160
1,64,75,37
1,65,67,18
1,69,59,0
1,60,61,8
1,72,57,13
1,57,59,19
1,79,70,2
1,77,49,92
1,60,53,6
1,58,63,178
1,55,55,4
1,46,58,10
1,53,36,1
1,62,63,156
1,65,82,4
1,64,72,30
1,70,69,12
1,65,73,6
1,62,69,156
1,74,56,13
1,58,78,21
1,81,72,14
1,79,60,15
1,62,73,0
1,60,63,20
1,48,54,9
1,57,39,1
1,65,69,150
1,64,81,5
1,62,78,4
1,67,69,140
1,64,67,8
1,60,54,0
1,58,75,2
1,74,70,11
1,72,74,14
1,57,60,10
1,70,74,10
1,55,57,23
1,69,69,67
1,65,65,2
1,53,53,4
1,60,58,146
1,57,63,13
1,60,59,17
1,53,48,51
1,48,36,8
1,72,79,14
1,45,46,5
1,69,38,8
1,48,52,4
1,72,92,115
1,41,42,13
1,69,63,2
1,53,31,6
1,69,72,186
1,65,62,0
1,48,44,6
1,70,90,43
1,67,61,4
1,72,94,27
1,69,50,11
1,57,42,0
1,77,85,56
1,53,27,17
1,69,42,3
1,76,75,159
1,67,51,10
1,55,28,9
1,74,62,19
1,65,44,4
1,48,27,2
1,72,56,0
1,58,38,6
1,64,33,9
1,72,87,12
1,67,73,1
1,60,46,6
1,52,33,3
1,72,99,206
1,69,71,4
1,57,46,8
1,53,60,25
1,65,74,71
1,69,88,2
1,41,48,12
1,48,45,4
1,70,94,10
1,67,79,0
1,53,59,7
1,72,101,17
1,69,46,14
1,57,15,11
1,77,92,23
1,69,52,10
1,53,36,1
1,76,87,105
1,67,55,13
1,55,28,16
1,74,71,148
1,65,37,5
1,48,30,2
1,58,40,10
1,72,59,0
1,64,39,13
1,72,98,58
1,67,60,8
1,60,38,4
1,52,28,2
1,45,30,219
1,77,92,19
1,72,64,6
1,57,48,2
1,60,52,58
1,81,85,27
1,65,58,7
1,77,66,8
1,79,93,99
1,72,72,4
1,64,50,5
1,77,90,18
1,65,66,4
1,72,66,19
1,60,44,80
1,72,92,106
1,65,51,27
1,57,47,6
1,60,59,3
1,74,84,4
1,46,75,1
1,55,63,10
1,70,52,2
1,65,48,2
1,62,61,5
1,74,80,74
1,65,55,22
1,72,86,100
1,64,55,12
1,58,47,10
1,74,86,2
1,65,53,4
1,62,59,57
1,67,87,85
1,58,62,4
1,65,46,16
1,62,65,61
1,67,89,32
1,48,63,4
1,65,66,9
1,65,86,91
1,69,89,111
1,64,65,17
1,62,66,31
1,70,85,91
1,64,42,9
1,60,56,0
1,55,46,17
1,58,68,0
1,72,85,11
1,57,42,13
1,55,35,47
1,69,71,12
1,53,34,7
1,65,42,26
1,60,56,48
1,57,49,34
1,60,43,83
1,53,63,2
1,48,70,163
1,72,95,42
1,69,58,15
1,45,59,0
1,48,79,23
1,72,100,29
1,41,63,10
1,69,82,1
1,53,57,3
1,69,85,134
1,65,73,2
1,48,63,13
1,70,96,0
1,67,79,5
1,69,73,25
1,72,97,0
1,57,49,15
1,77,91,32
1,69,64,14
1,53,34,6
1,70,75,142
1,67,59,13
1,55,38,19
1,69,66,3
1,64,56,2
1,48,35,1
1,62,46,28
1,67,60,6
1,58,52,4
1,64,57,2
1,72,91,0
1,60,65,0
1,36,52,14
1,72,73,31
1,53,48,5
1,69,62,4
1,57,49,8
1,53,42,43
1,48,58,92
1,69,73,3
1,65,55,3
1,41,44,6
1,70,85,6
1,53,49,2
1,67,59,17
1,72,98,45
1,69,75,8
1,57,53,2
1,77,93,28
1,69,64,7
1,53,51,2
1,70,71,203
1,67,49,12
1,55,41,2
1,69,73,31
1,48,42,23
1,64,44,4
1,62,52,40
1,67,75,13
1,58,55,16
1,64,56,0
1,76,94,212
1,72,63,14
1,36,44,4
1,45,56,38
1,77,83,2
1,57,53,1
1,72,64,12
1,60,45,77
1,65,61,62
1,74,91,0
1,72,91,92
1,64,61,15
1,62,59,105
1,74,92,0
1,65,51,11
1,69,59,4
1,60,60,11
1,57,73,0
1,77,94,8
1,60,71,107
1,79,100,52
1,47,67,5
1,67,57,10
1,59,46,1
1,62,55,4
1,65,66,95
1,74,94,1
1,64,73,102
1,71,72,4
1,65,57,4
1,55,48,22
1,62,61,14
1,77,96,86
1,59,44,4
1,74,70,10
1,62,54,52
1,43,59,150
1,76,80,8
1,48,60,0
1,67,55,6
1,52,57,15
1,72,60,0
1,55,58,34
1,74,80,6
1,71,47,13
1,57,59,59
1,72,90,10
1,69,69,11
1,74,78,1
1,59,50,18
1,67,51,5
1,65,61,15
1,57,43,3
1,67,70,98
1,55,58,2
1,64,47,6
1,43,52,11
1,62,46,22
1,53,54,8
1,72,66,4
1,52,44,8
1,64,45,2
1,48,56,4
1,67,41,21
1,64,51,19
1,67,49,39
1,60,44,42
1,52,68,10
1,48,45,8
1,43,45,73
1,40,56,62
1,38,60,22
1,48,73,37
1,36,46,16
1,43,62,332
1,52,70,18
1,48,71,320
1,50,67,296
1,43,46,280
1,62,40,35
1,53,58,265
1,59,37,0
1,55,43,44
1,52,52,42
1,60,49,10
1,48,59,155
1,43,68,149
1,48,64,158
1,52,68,182
1,36,49,10
1,48,73,105
1,50,61,295
1,43,44,319
1,62,39,8
1,53,52,20
1,59,42,5
1,55,43,23
1,60,45,4
1,52,59,7
1,55,68,71
1,60,69,56
1,59,58,163
1,60,56,10
1,40,61,3
1,55,52,163
1,52,66,9
1,55,79,118
1,53,76,74
1,62,49,8
1,60,47,8
1,57,74,8
1,60,69,48
1,59,64,136
1,60,64,150
1,41,46,1
1,57,66,156
1,53,63,142
1,57,59,162
1,55,77,182
1,52,50,12
1,43,36,5
1,60,76,10
1,59,68,24
1,57,71,136
1,55,64,0
1,62,33,19
1,59,32,2
1,53,65,11
1,52,63,104
1,50,76,24
1,60,45,128
1,52,69,22
1,55,54,158
1,52,56,0
1,55,61,16
1,48,64,37
1,40,55,15
1,43,49,74
1,79,95,0
1,70,89,255
1,36,43,4
1,43,47,4
1,52,61,52
1,69,95,66
1,60,46,21
1,59,55,63
1,70,103,117
1,60,57,15
1,55,59,111
1,79,100,30
1,52,55,27
1,55,59,115
1,70,92,15
1,41,47,23
1,65,63,157
1,69,83,4
1,60,53,4
1,67,71,24
1,59,48,8
1,69,70,5
1,48,50,2
1,60,51,9
1,57,54,38
1,72,90,99
1,45,55,7
1,53,42,39
1,57,55,0
1,75,79,2
1,41,38,20
1,72,79,215
1,65,46,24
1,64,39,109
1,45,45,38
1,69,69,26
1,65,58,6
1,60,35,33
1,75,75,110
1,57,28,11
1,60,50,15
1,46,63,25
1,75,72,17
1,62,55,36
1,74,84,111
1,65,56,4
1,58,50,21
1,64,51,42
1,74,78,123
1,65,56,4
1,53,43,35
1,62,54,42
1,74,101,104
1,58,70,12
1,50,38,12
1,60,58,87
1,67,77,164
1,46,56,10
1,62,31,7
1,65,35,15
1,77,90,126
1,70,48,16
1,69,48,102
1,70,60,80
1,76,86,1
1,55,46,27
1,65,66,10
1,74,89,50
1,62,57,19
1,65,58,108
1,69,92,23
1,49,50,17
1,64,67,4
1,67,75,65
1,79,98,71
1,70,66,28
1,69,69,91
1,77,95,25
1,55,59,6
1,70,66,6
1,67,65,96
1,76,102,16
1,64,69,22
1,67,67,54
1,61,60,20
1,81,103,11
1,64,65,44
1,73,79,101
1,70,48,10
1,69,55,5
1,53,63,11
1,52,63,43
1,67,53,5
1,74,77,6
1,53,48,2
1,69,48,15
1,65,50,10
1,77,71,14
1,50,43,19
1,62,31,4
1,65,36,41
1,76,76,42
1,62,55,3
1,69,44,3
1,74,66,44
1,45,41,18
1,57,34,1
1,72,62,3
1,71,60,23
1,69,59,25
1,47,25,18
1,67,73,2
1,69,76,0
1,49,40,2
1,65,46,10
1,55,36,0
1,64,27,19
1,70,72,23
1,53,31,2
1,65,32,13
1,69,80,149
1,57,40,12
1,45,45,4
1,38,51,7
1,68,81,3
1,53,39,7
1,65,74,16
1,69,87,16
1,62,57,11
1,50,37,23
1,64,64,119
1,52,55,19
1,79,94,33
1,33,41,310
1,45,34,17
1,76,81,2
1,69,37,12
1,73,74,136
1,55,37,3
1,67,64,2
1,57,55,11
1,69,90,105
1,70,88,333
1,53,55,25
1,65,29,12
1,62,39,66
1,50,33,4
1,69,86,71
1,38,43,14
1,45,39,12
1,65,45,1
1,62,60,72
1,50,48,9
1,68,92,37
1,53,64,5
1,69,92,0
1,50,56,19
1,62,56,0
1,64,74,23
1,52,52,17
1,79,100,29
1,33,68,309
1,45,46,12
1,76,92,17
1,73,75,232
1,67,63,14
1,57,47,2
1,55,44,21
1,69,79,33
1,74,81,36
1,41,47,8
1,53,34,17
1,57,56,84
1,62,60,73
1,77,81,8
1,76,83,57
1,61,52,2
1,62,57,55
1,74,82,4
1,50,45,8
1,57,63,22
1,53,61,107
1,74,98,3
1,57,41,71
1,46,64,1
1,55,45,39
1,67,94,29
1,62,44,17
1,58,82,21
1,62,86,11
1,60,54,103
1,76,102,25
1,62,53,23
1,64,48,2
1,43,50,12
1,58,84,8
1,55,76,120
1,58,67,110
1,77,95,0
1,79,103,29
1,45,59,69
1,77,92,4
1,57,62,2
1,74,79,2
1,73,80,9
1,76,91,4
1,57,29,31
1,74,85,58
1,70,70,0
1,67,57,4
1,76,83,3
1,69,62,7
1,67,52,6
1,58,53,3
1,73,58,78
1,57,22,18
1,65,37,4
1,64,61,45
1,74,75,44
1,53,44,0
1,65,52,6
1,62,67,59
1,53,57,157
1,57,48,122
1,41,71,118
1,50,37,11
1,45,57,44
1,69,81,13
1,62,46,18
1,38,42,9
1,57,53,19
1,69,76,290
1,65,58,10
1,50,37,19
1,62,37,0
1,64,52,2
1,69,62,2
1,49,32,2
1,38,10,38
1,57,48,27
1,52,48,18
1,69,54,40
1,49,32,10
1,67,28,15
1,45,54,205
1,65,54,263
1,69,58,2
1,38,43,22
1,62,58,148
1,57,51,50
1,62,47,65
1,65,50,51
1,69,63,3
1,50,45,9
1,62,53,45
1,49,42,15
1,69,57,14
1,64,52,1
1,52,45,14
1,57,55,0
1,49,44,10
1,69,59,2
1,67,29,27
1,45,50,54
1,41,32,45
1,65,60,0
1,50,36,15
1,57,21,10
1,69,70,60
1,74,76,1
1,73,79,154
1,74,64,144
1,53,45,14
1,69,63,38
1,57,51,14
1,65,60,24
1,62,54,7
1,69,76,11
1,61,50,8
1,62,53,47
1,67,80,4
1,50,56,4
1,43,50,4
1,70,84,8
1,74,92,29
1,73,92,85
1,74,74,161
1,55,44,0
1,70,75,135
1,58,60,9
1,67,71,119
1,62,47,6
1,61,57,56
1,70,80,9
1,69,85,78
1,62,56,2
1,45,83,12
1,53,45,6
1,74,87,29
1,73,86,85
1,70,94,114
1,69,78,119
1,57,44,15
1,67,76,2
1,64,59,24
1,65,75,77
1,62,52,4
1,61,41,29
1,64,82,4
1,62,66,16
1,38,44,11
1,65,63,19
1,57,10,15
1,62,74,7
1,57,57,155
1,50,68,53
1,41,59,2
1,69,89,10
1,45,49,7
1,77,88,236
1,62,35,4
1,50,63,19
1,65,40,138
1,76,103,26
1,69,21,54
1,67,65,19
1,74,94,36
1,69,56,19
1,53,38,14
1,65,64,18
1,77,97,14
1,62,44,26
1,65,44,48
1,68,75,124
1,43,41,21
1,62,43,140
1,67,65,100
1,65,51,4
1,67,70,13
1,47,37,25
1,62,60,6
1,79,104,169
1,59,38,4
1,62,58,6
1,48,63,99
1,75,91,29
1,60,51,4
1,63,59,22
1,74,96,51
1,67,57,16
1,65,74,6
1,72,91,13
1,67,50,27
1,51,43,0
1,63,64,10
1,74,88,114
1,60,44,18
1,63,52,81
1,41,40,34
1,57,51,36
1,65,35,10
1,75,77,10
1,60,45,82
1,77,66,106
1,65,49,4
1,67,58,98
1,79,75,16
1,77,80,9
1,72,30,23
1,57,34,2
1,65,36,2
1,60,43,19
1,75,76,96
1,57,47,2
1,60,59,125
1,74,79,25
1,46,56,0
1,58,39,4
1,62,56,6
1,72,97,135
1,65,63,6
1,63,55,98
1,74,85,105
1,65,35,25
1,58,36,0
1,62,40,3
1,58,37,90
1,79,84,12
1,62,36,98
1,67,57,42
1,52,43,100
1,72,72,10
1,58,63,122
1,70,71,25
1,64,39,13
1,69,66,96
1,60,40,14
1,70,79,15
1,67,40,7
1,48,39,17
1,64,48,8
1,58,47,115
1,67,85,2
1,64,48,85
1,72,88,7
1,57,41,10
1,60,61,150
1,74,77,29
1,53,37,6
1,65,42,13
1,63,54,15
1,75,69,19
1,65,59,52
1,58,60,1
1,74,76,2
1,62,47,25
1,70,78,72
1,55,34,19
1,67,50,0
1,62,36,126
1,69,55,68
1,60,33,5
1,64,35,16
1,65,48,87
1,55,20,2
1,67,51,6
1,64,39,8
1,62,44,4
1,60,47,52
1,52,47,8
1,58,83,40
1,84,116,108
1,72,89,12
1,57,74,0
1,48,68,15
1,55,78,65
1,84,117,148
1,72,100,10
1,53,89,3
1,41,65,29
1,81,110,68
1,69,81,9
1,48,64,19
1,70,106,11
1,41,63,4
1,84,115,112
1,57,81,8
1,72,88,1
1,41,76,92
1,89,112,71
1,77,96,4
1,53,78,14
1,41,81,36
1,55,93,35
1,88,110,2
1,76,101,6
1,36,80,9
1,86,105,115
1,74,84,11
1,52,85,18
1,36,77,0
1,84,105,137
1,72,88,5
1,58,102,4
1,48,74,11
1,84,114,10
1,79,99,4
1,52,91,0
1,72,84,8
1,48,81,4
1,84,114,19
1,72,100,8
1,57,89,4
1,53,80,4
1,81,106,121
1,48,81,8
1,41,76,8
1,69,78,0
1,70,98,8
1,53,74,11
1,84,113,110
1,57,83,2
1,72,94,8
1,41,80,54
1,53,80,69
1,89,111,0
1,77,97,4
