track,note,velocity,time
1,31,26,0
1,43,18,0
1,67,34,90
1,69,25,222
1,62,28,6
1,71,46,2
1,67,25,8
1,55,20,18
1,43,16,0
1,74,40,0
1,66,30,80
1,72,47,2
1,72,47,0
1,40,41,20
1,67,36,2
1,64,25,6
1,52,34,0
1,76,55,40
1,74,65,54
1,69,36,4
1,67,46,10
1,74,62,0
1,47,28,8
1,35,29,16
1,71,41,0
1,79,65,0
1,78,66,80
1,69,35,0
1,40,44,22
1,79,53,12
1,71,28,16
1,64,34,22
1,52,30,42
1,74,46,12
1,71,55,190
1,67,31,8
1,67,48,84
1,59,25,8
1,28,15,8
1,64,28,8
1,40,29,2
1,69,43,36
1,71,57,82
1,62,34,6
1,72,52,8
1,33,27,12
1,64,29,4
1,45,17,8
1,74,67,26
1,73,11,92
1,66,39,62
1,76,43,10
1,74,38,164
1,67,28,8
1,62,20,14
1,35,25,20
1,47,13,2
1,72,47,6
1,71,56,118
1,62,40,8
1,69,39,6
1,60,42,4
1,48,19,16
1,36,22,4
1,64,24,18
1,71,50,2
1,67,45,152
1,59,30,14
1,66,42,0
1,57,32,22
1,50,24,10
1,38,23,0
1,60,18,18
1,67,41,2
1,69,32,164
1,62,30,10
1,62,35,6
1,54,26,2
1,57,29,2
1,42,18,12
1,66,41,14
1,69,39,102
1,67,28,14
1,72,30,26
1,66,18,6
1,50,16,18
1,38,18,0
1,71,42,4
1,69,33,146
1,66,27,6
1,71,44,34
1,55,30,0
1,67,24,4
1,43,25,4
1,62,21,4
1,67,40,70
1,69,47,118
1,66,29,12
1,71,61,152
1,67,48,0
1,55,25,4
1,40,27,12
1,74,60,16
1,66,45,40
1,72,63,0
1,72,57,38
1,64,50,0
1,48,23,10
1,67,45,0
1,36,31,0
1,76,59,16
1,74,70,12
1,69,37,8
1,67,42,6
1,74,66,2
1,35,32,10
1,71,47,8
1,47,21,2
1,79,66,16
1,78,69,180
1,40,38,2
1,69,35,8
1,79,67,172
1,71,41,0
1,64,37,4
1,52,29,28
1,74,63,42
1,71,59,188
1,67,32,4
1,67,45,22
1,38,19,8
1,59,26,0
1,50,21,4
1,64,22,4
1,69,36,16
1,67,30,30
1,71,45,6
1,60,29,20
1,64,42,2
1,48,20,6
1,69,25,2
1,36,27,2
1,74,60,88
1,66,29,74
1,72,57,8
1,71,54,170
1,64,31,6
1,67,20,6
1,37,19,6
1,49,19,0
1,69,34,24
1,67,44,38
1,64,30,14
1,62,46,6
1,57,25,8
1,50,17,22
1,38,17,0
1,67,40,12
1,66,32,156
1,60,19,24
1,67,42,164
1,43,20,2
1,59,27,2
1,31,26,4
1,62,28,8
1,71,69,18
1,74,52,168
1,67,44,2
1,79,58,112
1,71,47,20
1,67,40,64
1,74,28,2
1,71,47,160
1,62,35,0
1,55,36,6
1,59,27,170
1,50,48,12
1,67,36,4
1,62,36,38
1,71,39,4
1,74,48,192
1,67,15,20
1,31,34,152
1,71,28,46
1,67,8,0
1,79,56,216
1,59,79,48
1,71,25,8
1,54,62,2
1,60,82,132
1,72,44,2
1,64,25,20
1,52,42,10
1,67,7,14
1,55,22,2
1,62,71,120
1,74,66,0
1,69,35,6
1,54,36,22
1,57,14,14
1,67,32,56
1,55,18,32
1,52,34,10
1,74,64,186
1,66,39,2
1,62,70,10
1,50,42,12
1,59,42,6
1,72,45,146
1,60,69,4
1,67,32,10
1,59,42,12
1,52,30,16
1,67,2,74
1,54,34,138
1,62,28,0
1,57,33,8
1,71,44,180
1,62,27,12
1,59,34,14
1,67,19,8
1,55,27,10
1,69,32,222
1,66,12,12
1,57,38,2
1,62,15,10
1,50,22,26
1,62,41,138
1,64,40,32
1,66,37,168
1,57,35,10
1,62,34,0
1,50,31,2
1,69,31,30
1,38,30,4
1,67,43,4
1,57,36,0
1,50,31,14
1,64,36,2
1,66,30,120
1,69,30,4
1,50,39,2
1,62,39,4
1,38,34,14
1,72,48,18
1,71,54,6
1,62,44,6
1,67,41,0
1,50,34,4
1,38,35,4
1,72,49,46
1,66,25,0
1,69,30,0
1,38,35,8
1,26,25,28
1,69,40,4
1,66,32,96
1,62,36,12
1,66,28,110
1,69,31,224
1,62,30,24
1,72,32,12
1,57,28,6
1,66,18,0
1,62,22,6
1,50,20,2
1,71,34,0
1,69,31,66
1,62,34,4
1,66,12,4
1,50,3,36
1,71,39,8
1,62,9,14
1,59,63,2
1,55,36,36
1,67,44,32
1,69,42,52
1,71,49,224
1,67,31,8
1,54,46,14
1,74,50,158
1,72,45,12
1,66,31,8
1,72,42,130
1,64,24,26
1,60,81,14
1,67,19,2
1,52,50,12
1,76,43,52
1,69,30,154
1,74,48,2
1,47,44,10
1,74,61,150
1,71,38,6
1,67,44,2
1,62,75,4
1,79,60,36
1,78,60,96
1,69,27,10
1,79,65,82
1,67,29,14
1,35,33,12
1,74,63,48
1,66,40,180
1,71,59,14
1,67,42,84
1,64,28,18
1,52,47,2
1,59,71,0
1,69,39,210
1,71,44,34
1,67,14,24
1,48,6,82
1,69,33,54
1,64,38,10
1,57,38,22
1,74,43,218
1,59,53,28
1,72,39,0
1,66,19,4
1,60,64,6
1,71,41,56
1,62,14,26
1,59,61,14
1,50,15,48
1,69,35,16
1,67,46,120
1,64,33,12
1,57,54,144
1,62,33,22
1,38,15,6
1,50,11,8
1,67,42,22
1,66,41,118
1,60,30,14
1,55,52,200
1,67,40,10
1,31,29,0
1,43,29,6
1,59,24,4
1,62,18,16
1,71,46,120
1,69,40,158
1,71,43,4
1,62,32,0
1,67,28,2
1,55,22,18
1,43,18,4
1,74,53,68
1,72,56,62
1,66,34,4
1,52,42,2
1,72,48,2
1,64,45,2
1,40,47,6
1,67,44,4
1,76,54,62
1,74,69,182
1,69,34,12
1,74,70,10
1,67,44,4
1,47,32,12
1,71,42,0
1,35,41,12
1,79,64,32
1,40,57,194
1,78,70,0
1,69,42,10
1,79,73,14
1,71,52,12
1,64,40,12
1,52,53,8
1,74,67,0
1,71,62,174
1,67,48,0
1,67,58,30
1,59,28,8
1,64,36,4
1,28,17,8
1,40,37,6
1,69,50,36
1,71,64,24
1,62,42,8
1,33,33,18
1,72,66,102
1,64,57,4
1,57,34,8
1,45,40,18
1,74,75,12
1,76,68,140
1,66,45,6
1,74,66,4
1,67,37,8
1,62,33,2
1,35,32,2
1,47,24,0
1,72,52,8
1,71,53,62
1,62,42,10
1,69,39,12
1,48,23,6
1,60,34,2
1,64,36,4
1,36,22,2
1,71,54,14
1,67,44,124
1,59,30,16
1,66,43,140
1,57,22,4
1,50,26,4
1,38,23,0
1,60,22,20
1,67,47,16
1,69,37,86
1,62,31,14
1,62,39,150
1,57,35,4
1,54,26,8
1,42,24,0
1,66,37,26
1,69,33,56
1,67,40,10
1,72,39,8
1,38,22,2
1,66,25,2
1,50,20,6
1,71,44,10
1,69,37,146
1,66,30,4
1,71,48,12
1,62,26,2
1,55,30,10
1,43,22,2
1,67,19,2
1,67,50,2
1,69,44,24
1,66,23,10
1,40,47,152
1,71,51,8
1,55,33,0
1,67,34,4
1,74,58,10
1,66,43,4
1,72,60,2
1,72,60,10
1,48,30,12
1,64,43,0
1,36,33,4
1,67,45,6
1,76,56,50
1,74,66,168
1,69,36,4
1,67,52,156
1,74,62,4
1,47,38,12
1,71,48,10
1,35,40,2
1,79,75,18
1,78,70,206
1,40,57,4
1,69,34,8
1,79,65,0
1,71,50,8
1,64,44,2
1,52,37,10
1,74,55,64
1,71,59,168
1,67,29,16
1,67,47,48
1,59,24,12
1,38,22,2
1,50,24,0
1,64,20,30
1,69,39,22
1,71,52,28
1,67,23,2
1,60,36,32
1,69,28,8
1,64,44,0
1,48,22,2
1,36,25,0
1,74,56,94
1,66,24,80
1,72,54,0
1,71,37,182
1,49,16,6
1,64,33,2
1,37,20,8
1,67,13,20
1,69,27,12
1,67,35,32
1,64,16,14
1,57,29,142
1,62,35,2
1,38,18,6
1,50,11,12
1,67,41,4
1,66,39,174
1,60,30,28
1,71,89,206
1,67,33,8
1,31,26,4
1,62,21,0
1,59,17,4
1,43,14,2
1,54,36,354
1,72,88,282
1,67,20,40
1,60,28,2
1,52,33,0
1,64,29,2
1,74,99,234
1,69,37,12
1,62,30,10
1,54,33,2
1,57,19,6
1,67,42,228
1,52,39,24
1,74,98,288
1,59,28,22
1,50,25,2
1,66,42,2
1,62,34,6
1,72,81,236
1,67,36,32
1,60,24,14
1,59,30,2
1,52,19,32
1,62,25,28
1,57,23,6
1,54,29,4
1,71,67,218
1,59,29,30
1,62,20,8
1,67,13,0
1,55,22,2
1,69,42,174
1,66,11,16
1,57,23,12
1,50,19,22
1,62,43,2
1,64,45,76
1,69,44,10
1,66,37,2
1,50,33,8
1,62,32,12
1,57,20,2
1,69,26,28
1,57,37,178
1,38,30,0
1,67,44,2
1,64,46,6
1,50,21,10
1,69,35,136
1,50,35,0
1,66,29,0
1,62,37,8
1,38,31,12
1,72,47,8
1,71,54,16
1,38,44,6
1,50,36,4
1,67,43,6
1,62,41,0
1,72,42,6
1,66,20,4
1,69,24,8
1,26,41,2
1,38,42,2
1,69,43,6
1,66,41,164
1,62,34,184
1,66,32,40
1,69,34,184
1,50,28,28
1,62,21,12
1,72,43,120
1,66,22,2
1,62,22,10
1,57,30,0
1,50,23,10
1,71,38,18
1,69,33,52
1,62,29,8
1,66,14,2
1,50,28,12
1,71,90,114
1,67,28,22
1,62,29,10
1,59,41,10
1,55,27,10
1,67,33,118
1,69,31,172
1,71,46,64
1,67,20,14
1,54,51,4
1,74,56,12
1,72,49,22
1,66,24,6
1,72,80,134
1,60,55,22
1,64,43,2
1,67,42,6
1,52,36,14
1,76,37,38
1,74,59,10
1,69,24,0
1,47,33,62
1,74,88,96
1,67,43,22
1,62,48,8
1,71,41,4
1,79,68,12
1,78,61,8
1,69,26,20
1,79,57,116
1,35,29,28
1,67,7,12
1,74,51,32
1,71,56,174
1,66,20,16
1,71,79,128
1,67,51,10
1,59,36,14
1,64,11,22
1,52,22,4
1,69,34,36
1,71,49,2
1,67,20,22
1,69,61,152
1,64,43,30
1,57,38,4
1,48,20,18
1,74,42,0
1,71,76,56
1,59,42,24
1,72,75,80
1,60,51,16
1,71,81,116
1,62,36,34
1,59,33,2
1,66,20,0
1,50,23,12
1,69,35,30
1,67,50,16
1,69,66,206
1,57,25,26
1,50,27,0
1,45,22,14
1,38,17,2
1,62,23,0
1,67,13,142
1,66,26,90
1,60,23,24
1,67,54,252
1,55,38,2
1,62,25,20
1,59,31,2
1,31,26,4
1,43,17,10
1,71,39,84
1,69,31,104
1,62,27,2
1,43,22,4
1,71,37,2
1,55,19,10
1,67,25,0
1,74,36,66
1,72,47,28
1,66,21,12
1,52,37,144
1,40,44,0
1,72,55,8
1,64,37,6
1,67,37,4
1,76,48,56
1,74,57,188
1,69,35,10
1,74,59,152
1,67,45,2
1,71,45,14
1,47,29,2
1,35,36,4
1,79,57,4
1,78,60,0
1,69,31,8
1,40,60,12
1,79,64,10
1,71,51,6
1,64,62,6
1,52,50,18
1,74,64,46
1,71,65,182
1,67,46,4
1,67,61,6
1,59,26,16
1,64,38,4
1,28,17,2
1,40,34,0
1,69,52,0
1,71,68,56
1,62,41,8
1,72,60,162
1,64,48,10
1,45,33,2
1,33,35,6
1,74,71,2
1,66,46,46
1,76,76,2
1,74,64,80
1,67,36,8
1,47,25,10
1,62,29,2
1,35,36,2
1,72,57,2
1,71,53,84
1,62,32,14
1,67,23,14
1,69,47,34
1,60,37,16
1,36,27,2
1,48,17,4
1,64,33,2
1,71,61,6
1,67,44,62
1,59,34,12
1,66,47,124
1,38,25,28
1,57,24,6
1,50,24,0
1,60,13,20
1,67,42,4
1,69,38,132
1,62,27,22
1,54,26,144
1,42,24,8
1,62,38,6
1,57,23,2
1,66,40,20
1,69,38,90
1,67,23,16
1,38,21,12
1,66,24,2
1,72,36,4
1,50,24,12
1,71,49,2
1,69,39,154
1,66,26,4
1,55,26,38
1,62,35,2
1,43,22,0
1,71,36,4
1,67,20,22
1,67,23,12
1,69,32,126
1,66,15,26
1,71,48,0
1,67,35,2
1,40,39,12
1,55,22,8
1,74,47,22
1,72,54,68
1,66,38,6
1,72,45,2
1,36,36,4
1,48,29,4
1,64,43,0
1,67,42,8
1,76,52,20
1,74,63,168
1,69,30,12
1,67,41,156
1,74,69,2
1,35,40,2
1,71,46,4
1,47,26,4
1,79,72,8
1,78,68,208
1,69,39,10
1,40,51,2
1,79,65,0
1,71,50,12
1,64,50,18
1,52,43,18
1,74,61,44
1,71,63,182
1,67,31,10
1,67,55,42
1,59,35,8
1,50,35,4
1,38,25,0
1,64,34,0
1,69,42,8
1,67,44,64
1,71,59,6
1,60,45,16
1,48,24,4
1,36,28,2
1,69,38,10
1,64,50,0
1,74,61,100
1,72,55,58
1,66,36,2
1,71,52,170
1,67,25,14
1,64,28,2
1,49,18,2
1,37,23,4
1,69,32,18
1,67,47,48
1,64,23,4
1,62,44,138
1,57,33,4
1,50,25,12
1,38,21,6
1,67,36,26
1,66,33,102
1,60,39,10
1,31,25,6
1,43,25,2
1,59,27,0
1,67,36,4
1,71,59,10
1,74,44,180
1,67,34,2
1,79,62,142
1,71,45,4
1,67,40,54
1,74,37,6
1,62,45,156
1,71,54,2
1,55,52,14
1,59,36,118
1,54,79,20
1,67,19,8
1,71,51,52
1,62,39,6
1,73,48,76
1,67,44,4
1,52,78,28
1,74,57,8
1,66,25,16
1,57,78,30
1,50,65,18
1,62,50,152
1,64,52,154
1,66,45,192
1,62,29,30
1,48,48,16
1,69,37,66
1,68,50,144
1,68,46,66
1,62,46,16
1,59,83,14
1,47,42,18
1,71,55,86
1,69,45,132
1,60,84,136
1,69,54,14
1,57,34,14
1,64,31,10
1,45,22,4
1,52,29,34
1,72,47,48
1,71,57,30
1,62,27,14
1,72,55,150
1,64,22,22
1,60,28,6
1,57,54,36
1,45,37,8
1,69,42,8
1,55,66,80
1,43,56,8
1,64,71,114
1,60,92,96
1,69,52,12
1,53,69,12
1,41,44,4
1,65,32,12
1,62,61,10
1,52,71,52
1,40,62,8
1,64,76,108
1,59,91,184
1,57,46,20
1,65,51,4
1,50,48,8
1,38,36,12
1,74,55,112
1,65,25,8
1,72,55,24
1,64,46,6
1,74,61,4
1,65,44,8
1,47,26,4
1,69,23,4
1,35,31,6
1,71,61,128
1,60,71,34
1,68,50,104
1,62,75,6
1,64,47,18
1,59,73,40
1,52,54,22
1,66,42,148
1,68,42,4
1,62,42,18
1,69,36,146
1,60,36,12
1,57,51,4
1,64,36,8
1,45,21,12
1,72,44,44
1,71,54,0
1,68,27,0
1,41,36,76
1,57,39,6
1,60,39,0
1,69,21,6
1,72,42,4
1,76,66,72
1,68,47,4
1,74,69,8
1,74,73,132
1,65,44,2
1,50,37,0
1,69,40,2
1,38,28,4
1,77,71,26
1,76,63,174
1,71,51,0
1,76,67,172
1,69,35,4
1,72,42,2
1,48,30,2
1,36,29,8
1,81,69,18
1,80,66,22
1,71,37,24
1,41,52,2
1,81,62,0
1,72,43,12
1,65,52,4
1,53,72,32
1,76,49,14
1,72,57,170
1,69,34,6
1,69,58,38
1,60,47,2
1,52,61,8
1,65,35,2
1,40,47,6
1,71,74,18
1,69,39,34
1,72,66,2
1,38,55,18
1,77,61,184
1,69,31,14
1,62,47,22
1,50,34,10
1,76,57,24
1,68,46,106
1,74,63,6
1,72,54,144
1,66,31,14
1,51,36,2
1,69,26,8
1,39,29,0
1,71,74,22
1,69,51,50
1,66,43,6
1,64,59,94
1,52,41,6
1,40,42,2
1,59,46,4
1,69,53,20
1,68,68,48
1,62,43,8
1,72,99,176
1,69,71,12
1,60,63,4
1,64,57,6
1,57,47,10
1,72,89,0
1,76,70,194
1,81,85,236
1,57,63,4
1,45,56,4
1,74,102,442
1,62,74,12
1,59,80,0
1,67,59,2
1,47,65,8
1,76,101,116
1,67,62,8
1,60,71,8
1,64,65,0
1,48,58,4
1,72,79,106
