track,note,velocity,time
1.0,67.0,61.0,192.0
1.0,69.0,69.0,32.0
1.0,71.0,62.0,32.0
1.0,72.0,73.0,32.0
1.0,67.0,65.0,32.0
1.0,65.0,63.0,32.0
1.0,67.0,67.0,32.0
1.0,64.0,62.0,32.0
1.0,69.0,70.0,32.0
1.0,67.0,67.0,32.0
1.0,69.0,66.0,32.0
1.0,65.0,66.0,32.0
1.0,67.0,64.0,32.0
1.0,64.0,63.0,32.0
1.0,65.0,70.0,32.0
1.0,62.0,62.0,32.0
1.0,67.0,58.0,32.0
1.0,65.0,66.0,32.0
1.0,67.0,66.0,32.0
1.0,64.0,63.0,32.0
1.0,65.0,67.0,32.0
1.0,62.0,58.0,32.0
1.0,64.0,65.0,32.0
1.0,60.0,64.0,32.0
1.0,72.0,62.0,192.0
1.0,76.0,69.0,32.0
1.0,72.0,66.0,0.0
1.0,77.0,71.0,32.0
1.0,79.0,64.0,32.0
1.0,71.0,64.0,0.0
1.0,74.0,64.0,32.0
1.0,72.0,65.0,32.0
1.0,69.0,66.0,0.0
1.0,74.0,66.0,32.0
1.0,71.0,68.0,32.0
1.0,67.0,73.0,0.0
1.0,76.0,69.0,32.0
1.0,74.0,68.0,32.0
1.0,65.0,70.0,0.0
1.0,76.0,66.0,32.0
1.0,72.0,72.0,32.0
1.0,64.0,62.0,0.0
1.0,74.0,64.0,32.0
1.0,71.0,70.0,32.0
1.0,67.0,66.0,0.0
1.0,72.0,68.0,32.0
1.0,69.0,66.0,32.0
1.0,65.0,68.0,0.0
1.0,74.0,63.0,32.0
1.0,72.0,66.0,32.0
1.0,64.0,65.0,0.0
1.0,74.0,66.0,32.0
1.0,71.0,67.0,32.0
1.0,62.0,61.0,0.0
1.0,72.0,69.0,32.0
1.0,69.0,65.0,32.0
1.0,65.0,66.0,0.0
1.0,71.0,64.0,32.0
1.0,67.0,64.0,32.0
1.0,64.0,66.0,0.0
1.0,55.0,68.0,192.0
1.0,57.0,69.0,32.0
1.0,65.0,69.0,0.0
1.0,59.0,70.0,32.0
1.0,60.0,70.0,32.0
1.0,64.0,67.0,0.0
1.0,55.0,69.0,32.0
1.0,53.0,66.0,32.0
1.0,62.0,62.0,0.0
1.0,55.0,68.0,32.0
1.0,52.0,66.0,32.0
1.0,60.0,62.0,0.0
1.0,57.0,67.0,32.0
1.0,55.0,65.0,32.0
1.0,70.0,68.0,0.0
1.0,57.0,67.0,32.0
1.0,53.0,64.0,32.0
1.0,69.0,67.0,0.0
1.0,55.0,70.0,32.0
1.0,52.0,68.0,32.0
1.0,67.0,61.0,0.0
1.0,53.0,72.0,32.0
1.0,50.0,65.0,32.0
1.0,65.0,67.0,0.0
1.0,55.0,67.0,32.0
1.0,53.0,62.0,32.0
1.0,69.0,68.0,0.0
1.0,55.0,68.0,32.0
1.0,52.0,64.0,32.0
1.0,67.0,64.0,0.0
1.0,53.0,67.0,32.0
1.0,50.0,61.0,32.0
1.0,65.0,64.0,0.0
1.0,59.0,58.0,0.0
1.0,52.0,66.0,32.0
1.0,48.0,67.0,32.0
1.0,64.0,62.0,0.0
1.0,60.0,67.0,0.0
1.0,67.0,70.0,32.0
1.0,59.0,66.0,32.0
1.0,69.0,67.0,0.0
1.0,71.0,64.0,32.0
1.0,57.0,68.0,32.0
1.0,72.0,67.0,0.0
1.0,67.0,67.0,192.0
1.0,55.0,68.0,32.0
1.0,66.0,63.0,0.0
1.0,64.0,65.0,32.0
1.0,54.0,63.0,32.0
1.0,62.0,62.0,0.0
1.0,66.0,65.0,32.0
1.0,50.0,63.0,32.0
1.0,67.0,61.0,0.0
1.0,69.0,65.0,32.0
1.0,55.0,68.0,32.0
1.0,71.0,65.0,0.0
1.0,64.0,68.0,192.0
1.0,54.0,66.0,32.0
1.0,62.0,60.0,0.0
1.0,64.0,67.0,32.0
1.0,52.0,67.0,32.0
1.0,60.0,66.0,0.0
1.0,64.0,64.0,32.0
1.0,55.0,67.0,32.0
1.0,66.0,67.0,0.0
1.0,67.0,67.0,32.0
1.0,54.0,68.0,32.0
1.0,69.0,67.0,0.0
1.0,62.0,68.0,192.0
1.0,50.0,64.0,32.0
1.0,60.0,65.0,0.0
1.0,62.0,64.0,32.0
1.0,55.0,63.0,32.0
1.0,59.0,67.0,0.0
1.0,62.0,62.0,32.0
1.0,54.0,69.0,32.0
1.0,64.0,63.0,0.0
1.0,66.0,67.0,32.0
1.0,52.0,64.0,32.0
1.0,67.0,67.0,0.0
1.0,60.0,67.0,192.0
1.0,50.0,66.0,32.0
1.0,59.0,65.0,0.0
1.0,60.0,72.0,32.0
1.0,48.0,70.0,32.0
1.0,57.0,65.0,0.0
1.0,67.0,67.0,32.0
1.0,45.0,63.0,32.0
1.0,66.0,69.0,0.0
1.0,64.0,63.0,32.0
1.0,50.0,66.0,32.0
1.0,66.0,66.0,0.0
1.0,62.0,64.0,192.0
1.0,38.0,63.0,32.0
1.0,60.0,72.0,0.0
1.0,62.0,71.0,32.0
1.0,43.0,65.0,32.0
1.0,67.0,66.0,0.0
1.0,59.0,63.0,0.0
1.0,50.0,66.0,32.0
1.0,52.0,69.0,32.0
1.0,54.0,69.0,32.0
1.0,55.0,67.0,32.0
1.0,50.0,64.0,32.0
1.0,48.0,70.0,32.0
1.0,50.0,65.0,32.0
1.0,47.0,65.0,32.0
1.0,62.0,65.0,192.0
1.0,48.0,67.0,32.0
1.0,64.0,67.0,0.0
1.0,66.0,67.0,32.0
1.0,47.0,67.0,32.0
1.0,67.0,66.0,0.0
1.0,62.0,68.0,32.0
1.0,45.0,58.0,32.0
1.0,60.0,66.0,0.0
1.0,62.0,66.0,32.0
1.0,43.0,64.0,32.0
1.0,59.0,65.0,0.0
1.0,64.0,68.0,32.0
1.0,47.0,66.0,32.0
1.0,62.0,64.0,0.0
1.0,64.0,70.0,32.0
1.0,52.0,65.0,32.0
1.0,60.0,66.0,0.0
1.0,62.0,64.0,32.0
1.0,50.0,65.0,32.0
1.0,59.0,70.0,0.0
1.0,60.0,72.0,32.0
1.0,48.0,74.0,32.0
1.0,57.0,66.0,0.0
1.0,62.0,66.0,32.0
1.0,45.0,63.0,32.0
1.0,60.0,69.0,0.0
1.0,62.0,68.0,32.0
1.0,50.0,68.0,32.0
1.0,59.0,69.0,0.0
1.0,60.0,74.0,32.0
1.0,48.0,69.0,32.0
1.0,57.0,66.0,0.0
1.0,59.0,73.0,32.0
1.0,47.0,63.0,32.0
1.0,55.0,66.0,0.0
1.0,67.0,66.0,32.0
1.0,50.0,66.0,32.0
1.0,65.0,68.0,0.0
1.0,67.0,64.0,32.0
1.0,55.0,67.0,32.0
1.0,64.0,67.0,0.0
1.0,65.0,72.0,32.0
1.0,53.0,70.0,32.0
1.0,62.0,66.0,0.0
1.0,64.0,67.0,32.0
1.0,52.0,65.0,32.0
1.0,60.0,68.0,0.0
1.0,72.0,73.0,32.0
1.0,55.0,69.0,32.0
1.0,70.0,68.0,0.0
1.0,72.0,72.0,32.0
1.0,60.0,67.0,32.0
1.0,69.0,70.0,0.0
1.0,70.0,71.0,32.0
1.0,58.0,67.0,32.0
1.0,67.0,70.0,0.0
1.0,69.0,69.0,32.0
1.0,57.0,67.0,32.0
1.0,65.0,68.0,0.0
1.0,77.0,71.0,32.0
1.0,60.0,68.0,32.0
1.0,76.0,67.0,0.0
1.0,77.0,66.0,32.0
1.0,65.0,67.0,32.0
1.0,74.0,70.0,0.0
1.0,76.0,69.0,32.0
1.0,64.0,66.0,32.0
1.0,72.0,72.0,0.0
1.0,74.0,69.0,32.0
1.0,62.0,66.0,32.0
1.0,71.0,66.0,0.0
1.0,79.0,66.0,192.0
1.0,81.0,68.0,32.0
1.0,69.0,70.0,0.0
1.0,83.0,67.0,32.0
1.0,64.0,68.0,32.0
1.0,84.0,74.0,0.0
1.0,67.0,70.0,0.0
1.0,79.0,68.0,32.0
1.0,62.0,67.0,32.0
1.0,77.0,69.0,0.0
1.0,79.0,66.0,32.0
1.0,60.0,72.0,32.0
1.0,76.0,67.0,0.0
1.0,81.0,62.0,32.0
1.0,79.0,68.0,32.0
1.0,64.0,64.0,0.0
1.0,81.0,68.0,32.0
1.0,77.0,68.0,32.0
1.0,69.0,68.0,0.0
1.0,79.0,68.0,32.0
1.0,76.0,67.0,32.0
1.0,67.0,66.0,0.0
1.0,77.0,67.0,32.0
1.0,74.0,66.0,32.0
1.0,65.0,68.0,0.0
1.0,79.0,67.0,32.0
1.0,77.0,70.0,32.0
1.0,62.0,65.0,0.0
1.0,79.0,67.0,32.0
1.0,58.0,67.0,32.0
1.0,76.0,67.0,0.0
1.0,67.0,67.0,0.0
1.0,77.0,70.0,32.0
1.0,74.0,66.0,32.0
1.0,76.0,66.0,32.0
1.0,57.0,66.0,32.0
1.0,73.0,65.0,0.0
1.0,67.0,67.0,32.0
1.0,65.0,68.0,32.0
1.0,64.0,63.0,32.0
1.0,65.0,67.0,32.0
1.0,69.0,65.0,32.0
1.0,74.0,64.0,32.0
1.0,62.0,65.0,32.0
1.0,64.0,64.0,32.0
1.0,74.0,65.0,32.0
1.0,73.0,66.0,32.0
1.0,71.0,64.0,32.0
1.0,73.0,62.0,32.0
1.0,69.0,66.0,32.0
1.0,74.0,65.0,32.0
1.0,76.0,65.0,32.0
1.0,77.0,65.0,32.0
1.0,64.0,63.0,32.0
1.0,62.0,69.0,32.0
1.0,61.0,68.0,32.0
1.0,62.0,70.0,32.0
1.0,69.0,63.0,32.0
1.0,74.0,65.0,32.0
1.0,77.0,67.0,32.0
1.0,56.0,71.0,32.0
1.0,76.0,66.0,0.0
1.0,62.0,68.0,32.0
1.0,60.0,70.0,32.0
1.0,59.0,62.0,32.0
1.0,57.0,70.0,32.0
1.0,60.0,70.0,0.0
1.0,76.0,70.0,32.0
1.0,55.0,66.0,32.0
1.0,77.0,70.0,0.0
1.0,79.0,68.0,32.0
1.0,53.0,70.0,32.0
1.0,81.0,66.0,0.0
1.0,77.0,69.0,32.0
1.0,76.0,69.0,32.0
1.0,57.0,65.0,0.0
1.0,77.0,69.0,32.0
1.0,74.0,67.0,32.0
1.0,62.0,66.0,0.0
1.0,83.0,68.0,32.0
1.0,53.0,74.0,32.0
1.0,81.0,69.0,0.0
1.0,83.0,68.0,32.0
1.0,52.0,69.0,32.0
1.0,80.0,69.0,0.0
1.0,71.0,67.0,32.0
1.0,72.0,71.0,32.0
1.0,56.0,67.0,0.0
1.0,74.0,66.0,32.0
1.0,76.0,70.0,32.0
1.0,60.0,73.0,0.0
1.0,69.0,70.0,32.0
1.0,48.0,69.0,32.0
1.0,67.0,68.0,0.0
1.0,69.0,72.0,32.0
1.0,50.0,66.0,32.0
1.0,65.0,69.0,0.0
1.0,74.0,66.0,32.0
1.0,72.0,71.0,32.0
1.0,54.0,62.0,0.0
1.0,74.0,63.0,32.0
1.0,71.0,67.0,32.0
1.0,56.0,68.0,0.0
1.0,72.0,70.0,32.0
1.0,69.0,67.0,32.0
1.0,57.0,63.0,0.0
1.0,71.0,68.0,32.0
1.0,68.0,63.0,32.0
1.0,59.0,67.0,0.0
1.0,52.0,69.0,192.0
1.0,54.0,70.0,32.0
1.0,64.0,61.0,0.0
1.0,56.0,64.0,32.0
1.0,57.0,72.0,32.0
1.0,52.0,69.0,48.0
1.0,64.0,61.0,0.0
1.0,50.0,68.0,32.0
1.0,66.0,67.0,0.0
1.0,52.0,72.0,32.0
1.0,67.0,67.0,0.0
1.0,48.0,69.0,32.0
1.0,69.0,64.0,0.0
1.0,53.0,72.0,32.0
1.0,52.0,68.0,32.0
1.0,60.0,64.0,0.0
1.0,53.0,70.0,32.0
1.0,50.0,66.0,32.0
1.0,65.0,68.0,0.0
1.0,52.0,66.0,32.0
1.0,48.0,67.0,32.0
1.0,64.0,67.0,0.0
1.0,50.0,68.0,32.0
1.0,47.0,71.0,32.0
1.0,62.0,64.0,0.0
1.0,52.0,70.0,32.0
1.0,50.0,67.0,32.0
1.0,68.0,67.0,0.0
1.0,59.0,62.0,0.0
1.0,52.0,68.0,32.0
1.0,48.0,65.0,32.0
1.0,69.0,69.0,0.0
1.0,64.0,57.0,0.0
1.0,50.0,70.0,32.0
1.0,47.0,72.0,32.0
1.0,71.0,66.0,0.0
1.0,48.0,75.0,32.0
1.0,45.0,68.0,32.0
1.0,72.0,71.0,0.0
1.0,57.0,66.0,32.0
1.0,55.0,72.0,32.0
1.0,64.0,65.0,0.0
1.0,57.0,67.0,32.0
1.0,53.0,70.0,32.0
1.0,69.0,68.0,0.0
1.0,55.0,67.0,32.0
1.0,52.0,68.0,32.0
1.0,67.0,65.0,0.0
1.0,53.0,71.0,32.0
1.0,50.0,67.0,32.0
1.0,65.0,68.0,0.0
1.0,55.0,71.0,32.0
1.0,53.0,68.0,32.0
1.0,71.0,67.0,0.0
1.0,62.0,65.0,0.0
1.0,55.0,67.0,32.0
1.0,52.0,64.0,32.0
1.0,72.0,72.0,0.0
1.0,67.0,65.0,0.0
1.0,53.0,70.0,32.0
1.0,50.0,70.0,32.0
1.0,74.0,65.0,0.0
1.0,52.0,70.0,32.0
1.0,48.0,77.0,32.0
1.0,76.0,68.0,0.0
1.0,60.0,72.0,32.0
1.0,59.0,71.0,32.0
1.0,67.0,66.0,0.0
1.0,60.0,72.0,32.0
1.0,57.0,66.0,32.0
1.0,72.0,70.0,0.0
1.0,59.0,70.0,32.0
1.0,55.0,63.0,32.0
1.0,71.0,64.0,0.0
1.0,57.0,66.0,32.0
1.0,54.0,64.0,32.0
1.0,69.0,69.0,0.0
1.0,59.0,68.0,32.0
1.0,57.0,68.0,32.0
1.0,75.0,62.0,0.0
1.0,66.0,62.0,0.0
1.0,59.0,72.0,32.0
1.0,55.0,70.0,32.0
1.0,76.0,66.0,0.0
1.0,71.0,68.0,0.0
1.0,57.0,69.0,32.0
1.0,54.0,70.0,32.0
1.0,78.0,64.0,0.0
1.0,55.0,66.0,32.0
1.0,52.0,68.0,32.0
1.0,79.0,66.0,0.0
1.0,71.0,64.0,32.0
1.0,73.0,65.0,32.0
1.0,75.0,67.0,32.0
1.0,76.0,68.0,32.0
1.0,71.0,71.0,32.0
1.0,69.0,66.0,32.0
1.0,71.0,66.0,32.0
1.0,64.0,69.0,32.0
1.0,67.0,64.0,0.0
1.0,76.0,66.0,32.0
1.0,72.0,71.0,0.0
1.0,75.0,67.0,32.0
1.0,71.0,70.0,0.0
1.0,76.0,66.0,32.0
1.0,72.0,73.0,0.0
1.0,84.0,73.0,32.0
1.0,69.0,68.0,0.0
1.0,71.0,66.0,32.0
1.0,83.0,65.0,32.0
1.0,67.0,68.0,0.0
1.0,69.0,69.0,32.0
1.0,81.0,66.0,32.0
1.0,66.0,70.0,0.0
1.0,71.0,66.0,32.0
1.0,78.0,68.0,32.0
1.0,69.0,71.0,0.0
1.0,71.0,68.0,32.0
1.0,63.0,63.0,32.0
1.0,83.0,72.0,0.0
1.0,67.0,67.0,0.0
1.0,69.0,70.0,32.0
1.0,81.0,67.0,32.0
1.0,66.0,68.0,0.0
1.0,67.0,64.0,32.0
1.0,64.0,70.0,32.0
1.0,79.0,66.0,0.0
1.0,64.0,67.0,0.0
1.0,76.0,64.0,32.0
1.0,75.0,63.0,32.0
1.0,67.0,70.0,0.0
1.0,76.0,66.0,32.0
1.0,72.0,65.0,32.0
1.0,69.0,71.0,0.0
1.0,76.0,62.0,32.0
1.0,71.0,66.0,32.0
1.0,67.0,67.0,0.0
1.0,76.0,68.0,32.0
1.0,69.0,68.0,32.0
1.0,66.0,72.0,0.0
1.0,76.0,68.0,32.0
1.0,72.0,72.0,32.0
1.0,69.0,71.0,0.0
1.0,76.0,65.0,32.0
1.0,71.0,66.0,32.0
1.0,67.0,70.0,0.0
1.0,76.0,63.0,32.0
1.0,69.0,67.0,32.0
1.0,66.0,70.0,0.0
1.0,76.0,64.0,32.0
1.0,67.0,63.0,32.0
1.0,64.0,68.0,0.0
1.0,76.0,66.0,32.0
1.0,55.0,67.0,32.0
1.0,75.0,65.0,0.0
1.0,76.0,69.0,32.0
1.0,60.0,72.0,32.0
1.0,69.0,67.0,0.0
1.0,76.0,66.0,32.0
1.0,59.0,70.0,32.0
1.0,67.0,65.0,0.0
1.0,76.0,66.0,32.0
1.0,57.0,67.0,32.0
1.0,66.0,70.0,0.0
1.0,67.0,67.0,32.0
1.0,54.0,69.0,32.0
1.0,69.0,66.0,0.0
1.0,72.0,70.0,32.0
1.0,59.0,73.0,32.0
1.0,71.0,66.0,0.0
1.0,69.0,67.0,32.0
1.0,67.0,67.0,32.0
1.0,63.0,58.0,0.0
1.0,66.0,69.0,32.0
1.0,52.0,62.0,32.0
1.0,67.0,64.0,0.0
1.0,64.0,69.0,0.0
1.0,54.0,69.0,32.0
1.0,55.0,65.0,32.0
1.0,57.0,68.0,32.0
1.0,59.0,68.0,32.0
1.0,55.0,66.0,32.0
1.0,52.0,65.0,32.0
1.0,67.0,65.0,0.0
1.0,64.0,68.0,0.0
1.0,55.0,68.0,32.0
1.0,49.0,62.0,32.0
1.0,67.0,62.0,0.0
1.0,64.0,68.0,0.0
1.0,57.0,68.0,32.0
1.0,52.0,69.0,32.0
1.0,70.0,62.0,0.0
1.0,67.0,65.0,0.0
1.0,49.0,65.0,32.0
1.0,45.0,61.0,32.0
1.0,61.0,66.0,0.0
1.0,55.0,66.0,32.0
1.0,70.0,66.0,0.0
1.0,53.0,64.0,32.0
1.0,69.0,66.0,0.0
1.0,52.0,66.0,32.0
1.0,67.0,60.0,0.0
1.0,50.0,65.0,32.0
1.0,65.0,67.0,0.0
1.0,62.0,65.0,0.0
1.0,52.0,70.0,32.0
1.0,53.0,66.0,32.0
1.0,55.0,67.0,32.0
1.0,57.0,64.0,32.0
1.0,53.0,68.0,32.0
1.0,50.0,62.0,32.0
1.0,65.0,68.0,0.0
1.0,62.0,64.0,0.0
1.0,53.0,67.0,32.0
1.0,47.0,64.0,32.0
1.0,65.0,67.0,0.0
1.0,62.0,68.0,0.0
1.0,55.0,67.0,32.0
1.0,50.0,68.0,32.0
1.0,69.0,70.0,0.0
1.0,65.0,68.0,0.0
1.0,47.0,69.0,32.0
1.0,43.0,63.0,32.0
1.0,59.0,63.0,0.0
1.0,53.0,70.0,32.0
1.0,69.0,63.0,0.0
1.0,52.0,64.0,32.0
1.0,67.0,66.0,0.0
1.0,50.0,63.0,32.0
1.0,65.0,63.0,0.0
1.0,48.0,71.0,32.0
1.0,64.0,64.0,0.0
1.0,60.0,69.0,0.0
1.0,50.0,63.0,32.0
1.0,52.0,65.0,32.0
1.0,53.0,70.0,32.0
1.0,55.0,69.0,32.0
1.0,52.0,67.0,32.0
1.0,48.0,73.0,32.0
1.0,67.0,68.0,0.0
1.0,64.0,67.0,0.0
1.0,52.0,68.0,32.0
1.0,43.0,67.0,32.0
1.0,70.0,67.0,0.0
1.0,67.0,69.0,0.0
1.0,48.0,67.0,32.0
1.0,43.0,66.0,32.0
1.0,74.0,65.0,0.0
1.0,70.0,68.0,0.0
1.0,40.0,70.0,32.0
1.0,36.0,70.0,32.0
1.0,64.0,65.0,0.0
1.0,46.0,70.0,32.0
1.0,74.0,66.0,0.0
1.0,45.0,65.0,32.0
1.0,72.0,70.0,0.0
1.0,43.0,72.0,32.0
1.0,70.0,68.0,0.0
1.0,41.0,75.0,32.0
1.0,69.0,68.0,0.0
1.0,65.0,70.0,0.0
1.0,72.0,70.0,32.0
1.0,74.0,65.0,32.0
1.0,76.0,65.0,32.0
1.0,77.0,68.0,32.0
1.0,48.0,71.0,32.0
1.0,72.0,67.0,0.0
1.0,50.0,70.0,32.0
1.0,70.0,67.0,0.0
1.0,52.0,69.0,32.0
1.0,72.0,72.0,0.0
1.0,53.0,68.0,32.0
1.0,69.0,67.0,0.0
1.0,74.0,65.0,32.0
1.0,50.0,65.0,32.0
1.0,72.0,70.0,0.0
1.0,74.0,66.0,32.0
1.0,55.0,71.0,32.0
1.0,70.0,68.0,0.0
1.0,72.0,70.0,32.0
1.0,53.0,70.0,32.0
1.0,69.0,66.0,0.0
1.0,70.0,68.0,32.0
1.0,52.0,68.0,32.0
1.0,67.0,63.0,0.0
1.0,72.0,69.0,32.0
1.0,48.0,74.0,32.0
1.0,70.0,67.0,0.0
1.0,72.0,70.0,32.0
1.0,53.0,69.0,32.0
1.0,69.0,68.0,0.0
1.0,70.0,71.0,32.0
1.0,52.0,67.0,32.0
1.0,67.0,60.0,0.0
1.0,69.0,67.0,32.0
1.0,50.0,69.0,32.0
1.0,65.0,68.0,0.0
1.0,55.0,60.0,192.0
1.0,48.0,72.0,32.0
1.0,57.0,62.0,0.0
1.0,47.0,63.0,32.0
1.0,59.0,67.0,0.0
1.0,45.0,65.0,32.0
1.0,60.0,72.0,0.0
1.0,55.0,68.0,32.0
1.0,47.0,71.0,32.0
1.0,53.0,64.0,0.0
1.0,55.0,64.0,32.0
1.0,48.0,64.0,32.0
1.0,52.0,59.0,0.0
1.0,65.0,64.0,32.0
1.0,57.0,62.0,0.0
1.0,64.0,65.0,32.0
1.0,55.0,63.0,0.0
1.0,65.0,68.0,32.0
1.0,57.0,63.0,0.0
1.0,62.0,62.0,32.0
1.0,53.0,66.0,0.0
1.0,64.0,66.0,32.0
1.0,55.0,64.0,0.0
1.0,60.0,64.0,32.0
1.0,52.0,62.0,0.0
1.0,62.0,62.0,32.0
1.0,53.0,69.0,0.0
1.0,59.0,60.0,32.0
1.0,50.0,62.0,0.0
1.0,55.0,66.0,32.0
1.0,62.0,66.0,32.0
1.0,53.0,65.0,0.0
1.0,55.0,65.0,32.0
1.0,47.0,69.0,32.0
1.0,67.0,68.0,0.0
1.0,52.0,64.0,0.0
1.0,53.0,67.0,32.0
1.0,65.0,72.0,32.0
1.0,50.0,63.0,0.0
1.0,52.0,63.0,32.0
1.0,48.0,67.0,32.0
1.0,64.0,66.0,0.0
1.0,48.0,63.0,0.0
1.0,43.0,70.0,32.0
1.0,59.0,61.0,0.0
1.0,45.0,65.0,32.0
1.0,60.0,66.0,0.0
1.0,47.0,65.0,32.0
1.0,62.0,64.0,0.0
1.0,48.0,72.0,32.0
1.0,64.0,66.0,0.0
1.0,43.0,72.0,32.0
1.0,67.0,66.0,0.0
1.0,41.0,73.0,32.0
1.0,69.0,66.0,0.0
1.0,43.0,70.0,32.0
1.0,71.0,66.0,0.0
1.0,40.0,69.0,32.0
1.0,72.0,68.0,0.0
1.0,45.0,62.0,32.0
1.0,43.0,69.0,32.0
1.0,64.0,67.0,0.0
1.0,45.0,67.0,32.0
1.0,41.0,74.0,32.0
1.0,69.0,66.0,0.0
1.0,43.0,71.0,32.0
1.0,40.0,67.0,32.0
1.0,67.0,66.0,0.0
1.0,41.0,72.0,32.0
1.0,38.0,61.0,32.0
1.0,65.0,67.0,0.0
1.0,43.0,67.0,32.0
1.0,41.0,70.0,32.0
1.0,71.0,69.0,0.0
1.0,62.0,64.0,0.0
1.0,43.0,67.0,32.0
1.0,40.0,68.0,32.0
1.0,72.0,70.0,0.0
1.0,64.0,66.0,0.0
1.0,41.0,74.0,32.0
1.0,38.0,69.0,32.0
1.0,74.0,67.0,0.0
1.0,65.0,70.0,0.0
1.0,40.0,68.0,32.0
1.0,36.0,74.0,32.0
1.0,76.0,65.0,0.0
1.0,67.0,68.0,0.0
1.0,74.0,68.0,32.0
1.0,76.0,69.0,32.0
1.0,77.0,72.0,32.0
1.0,79.0,65.0,32.0
1.0,76.0,67.0,32.0
1.0,72.0,70.0,0.0
1.0,52.0,68.0,32.0
1.0,74.0,68.0,0.0
1.0,71.0,65.0,0.0
1.0,76.0,69.0,32.0
1.0,72.0,68.0,0.0
1.0,49.0,69.0,32.0
1.0,79.0,70.0,0.0
1.0,69.0,61.0,0.0
1.0,73.0,67.0,32.0
1.0,45.0,65.0,32.0
1.0,74.0,71.0,0.0
1.0,76.0,70.0,32.0
1.0,50.0,66.0,32.0
1.0,77.0,72.0,0.0
1.0,71.0,68.0,192.0
1.0,48.0,70.0,32.0
1.0,69.0,70.0,0.0
1.0,71.0,68.0,32.0
1.0,47.0,73.0,32.0
1.0,67.0,63.0,0.0
1.0,71.0,66.0,32.0
1.0,43.0,66.0,32.0
1.0,72.0,70.0,0.0
1.0,74.0,66.0,32.0
1.0,48.0,70.0,32.0
1.0,76.0,69.0,0.0
1.0,69.0,68.0,192.0
1.0,47.0,66.0,32.0
1.0,67.0,65.0,0.0
1.0,69.0,65.0,32.0
1.0,45.0,68.0,32.0
1.0,65.0,68.0,0.0
1.0,69.0,68.0,32.0
1.0,50.0,67.0,32.0
1.0,71.0,67.0,0.0
1.0,72.0,70.0,32.0
1.0,47.0,68.0,32.0
1.0,74.0,68.0,0.0
1.0,67.0,66.0,192.0
1.0,43.0,71.0,32.0
1.0,65.0,66.0,0.0
1.0,67.0,68.0,32.0
1.0,48.0,70.0,32.0
1.0,64.0,67.0,0.0
1.0,67.0,65.0,32.0
1.0,47.0,66.0,32.0
1.0,69.0,70.0,0.0
1.0,71.0,67.0,32.0
1.0,45.0,66.0,32.0
1.0,72.0,72.0,0.0
1.0,69.0,68.0,192.0
1.0,40.0,68.0,32.0
1.0,67.0,67.0,0.0
1.0,69.0,68.0,32.0
1.0,41.0,72.0,32.0
1.0,62.0,64.0,0.0
1.0,72.0,70.0,32.0
1.0,38.0,68.0,32.0
1.0,71.0,66.0,0.0
1.0,69.0,68.0,32.0
1.0,43.0,66.0,32.0
1.0,71.0,65.0,0.0
1.0,67.0,65.0,192.0
1.0,43.0,70.0,32.0
1.0,65.0,66.0,0.0
1.0,67.0,67.0,32.0
1.0,36.0,70.0,32.0
1.0,72.0,74.0,0.0
1.0,64.0,65.0,0.0
0.0,0.0,0.0,0.0
0.0,0.0,0.0,0.0
0.0,0.0,0.0,0.0
0.0,0.0,0.0,0.0
0.0,0.0,0.0,0.0
0.0,0.0,0.0,0.0
0.0,0.0,0.0,0.0
0.0,0.0,0.0,0.0
0.0,0.0,0.0,0.0
0.0,0.0,0.0,0.0
0.0,0.0,0.0,0.0
0.0,0.0,0.0,0.0
0.0,0.0,0.0,0.0
0.0,0.0,0.0,0.0
0.0,0.0,0.0,0.0
0.0,0.0,0.0,0.0
0.0,0.0,0.0,0.0
0.0,0.0,0.0,0.0
0.0,0.0,0.0,0.0
0.0,0.0,0.0,0.0
0.0,0.0,0.0,0.0
0.0,0.0,0.0,0.0
0.0,0.0,0.0,0.0
0.0,0.0,0.0,0.0
0.0,0.0,0.0,0.0
0.0,0.0,0.0,0.0
0.0,0.0,0.0,0.0
0.0,0.0,0.0,0.0
0.0,0.0,0.0,0.0
0.0,0.0,0.0,0.0
0.0,0.0,0.0,0.0
0.0,0.0,0.0,0.0
0.0,0.0,0.0,0.0
0.0,0.0,0.0,0.0
0.0,0.0,0.0,0.0
0.0,0.0,0.0,0.0
0.0,0.0,0.0,0.0
0.0,0.0,0.0,0.0
0.0,0.0,0.0,0.0
0.0,0.0,0.0,0.0
0.0,0.0,0.0,0.0
0.0,0.0,0.0,0.0
0.0,0.0,0.0,0.0
0.0,0.0,0.0,0.0
0.0,0.0,0.0,0.0
0.0,0.0,0.0,0.0
0.0,0.0,0.0,0.0
0.0,0.0,0.0,0.0
0.0,0.0,0.0,0.0
0.0,0.0,0.0,0.0
0.0,0.0,0.0,0.0
0.0,0.0,0.0,0.0
0.0,0.0,0.0,0.0
0.0,0.0,0.0,0.0
0.0,0.0,0.0,0.0
0.0,0.0,0.0,0.0
0.0,0.0,0.0,0.0
0.0,0.0,0.0,0.0
0.0,0.0,0.0,0.0
0.0,0.0,0.0,0.0
0.0,0.0,0.0,0.0
0.0,0.0,0.0,0.0
0.0,0.0,0.0,0.0
0.0,0.0,0.0,0.0
0.0,0.0,0.0,0.0
0.0,0.0,0.0,0.0
0.0,0.0,0.0,0.0
0.0,0.0,0.0,0.0
0.0,0.0,0.0,0.0
0.0,0.0,0.0,0.0
0.0,0.0,0.0,0.0
0.0,0.0,0.0,0.0
0.0,0.0,0.0,0.0
0.0,0.0,0.0,0.0
0.0,0.0,0.0,0.0
0.0,0.0,0.0,0.0
0.0,0.0,0.0,0.0
0.0,0.0,0.0,0.0
0.0,0.0,0.0,0.0
0.0,0.0,0.0,0.0
0.0,0.0,0.0,0.0
0.0,0.0,0.0,0.0
0.0,0.0,0.0,0.0
0.0,0.0,0.0,0.0
0.0,0.0,0.0,0.0
0.0,0.0,0.0,0.0
0.0,0.0,0.0,0.0
0.0,0.0,0.0,0.0
0.0,0.0,0.0,0.0
0.0,0.0,0.0,0.0
0.0,0.0,0.0,0.0
0.0,0.0,0.0,0.0
0.0,0.0,0.0,0.0
0.0,0.0,0.0,0.0
0.0,0.0,0.0,0.0
0.0,0.0,0.0,0.0
0.0,0.0,0.0,0.0
0.0,0.0,0.0,0.0
0.0,0.0,0.0,0.0
0.0,0.0,0.0,0.0
0.0,0.0,0.0,0.0
0.0,0.0,0.0,0.0
0.0,0.0,0.0,0.0
0.0,0.0,0.0,0.0
0.0,0.0,0.0,0.0
0.0,0.0,0.0,0.0
0.0,0.0,0.0,0.0
0.0,0.0,0.0,0.0
0.0,0.0,0.0,0.0
0.0,0.0,0.0,0.0
0.0,0.0,0.0,0.0
0.0,0.0,0.0,0.0
0.0,0.0,0.0,0.0
0.0,0.0,0.0,0.0
0.0,0.0,0.0,0.0
0.0,0.0,0.0,0.0
0.0,0.0,0.0,0.0
0.0,0.0,0.0,0.0
0.0,0.0,0.0,0.0
0.0,0.0,0.0,0.0
0.0,0.0,0.0,0.0
0.0,0.0,0.0,0.0
0.0,0.0,0.0,0.0
0.0,0.0,0.0,0.0
0.0,0.0,0.0,0.0
0.0,0.0,0.0,0.0
0.0,0.0,0.0,0.0
0.0,0.0,0.0,0.0
0.0,0.0,0.0,0.0
0.0,0.0,0.0,0.0
0.0,0.0,0.0,0.0
0.0,0.0,0.0,0.0
0.0,0.0,0.0,0.0
0.0,0.0,0.0,0.0
0.0,0.0,0.0,0.0
0.0,0.0,0.0,0.0
0.0,0.0,0.0,0.0
0.0,0.0,0.0,0.0
0.0,0.0,0.0,0.0
0.0,0.0,0.0,0.0
0.0,0.0,0.0,0.0
0.0,0.0,0.0,0.0
0.0,0.0,0.0,0.0
0.0,0.0,0.0,0.0
0.0,0.0,0.0,0.0
0.0,0.0,0.0,0.0
0.0,0.0,0.0,0.0
0.0,0.0,0.0,0.0
0.0,0.0,0.0,0.0
0.0,0.0,0.0,0.0
0.0,0.0,0.0,0.0
0.0,0.0,0.0,0.0
0.0,0.0,0.0,0.0
0.0,0.0,0.0,0.0
0.0,0.0,0.0,0.0
0.0,0.0,0.0,0.0
0.0,0.0,0.0,0.0
0.0,0.0,0.0,0.0
0.0,0.0,0.0,0.0
0.0,0.0,0.0,0.0
0.0,0.0,0.0,0.0
0.0,0.0,0.0,0.0
0.0,0.0,0.0,0.0
0.0,0.0,0.0,0.0
0.0,0.0,0.0,0.0
0.0,0.0,0.0,0.0
0.0,0.0,0.0,0.0
0.0,0.0,0.0,0.0
0.0,0.0,0.0,0.0
0.0,0.0,0.0,0.0
0.0,0.0,0.0,0.0
0.0,0.0,0.0,0.0
0.0,0.0,0.0,0.0
0.0,0.0,0.0,0.0
0.0,0.0,0.0,0.0
0.0,0.0,0.0,0.0
0.0,0.0,0.0,0.0
0.0,0.0,0.0,0.0
0.0,0.0,0.0,0.0
0.0,0.0,0.0,0.0
0.0,0.0,0.0,0.0
0.0,0.0,0.0,0.0
0.0,0.0,0.0,0.0
0.0,0.0,0.0,0.0
0.0,0.0,0.0,0.0
0.0,0.0,0.0,0.0
0.0,0.0,0.0,0.0
0.0,0.0,0.0,0.0
0.0,0.0,0.0,0.0
0.0,0.0,0.0,0.0
0.0,0.0,0.0,0.0
0.0,0.0,0.0,0.0
0.0,0.0,0.0,0.0
