track,note,velocity,time
1,74,52,1680
1,74,0,120
1,72,63,120
1,72,0,240
1,71,37,0
1,71,0,120
1,71,43,120
1,71,0,120
1,71,37,120
1,71,0,120
1,71,55,120
1,71,0,240
1,72,40,0
1,72,0,120
1,75,51,360
1,75,0,120
1,72,63,120
1,72,0,240
1,71,37,0
1,71,0,120
1,71,44,120
1,71,0,120
1,71,37,120
1,71,0,120
1,71,57,120
1,71,0,240
1,72,47,0
1,72,0,120
1,75,54,360
1,75,0,240
1,72,63,0
1,72,0,240
1,70,52,0
1,70,0,120
1,70,54,120
1,70,0,120
1,70,54,120
1,70,0,120
1,72,63,120
1,72,0,240
1,70,53,0
1,70,0,120
1,70,55,120
1,70,0,120
1,70,55,120
1,70,0,120
1,72,63,120
1,72,0,120
1,70,52,0
1,70,0,120
1,69,53,0
1,69,0,120
1,70,53,0
1,70,0,120
1,72,58,0
1,72,0,120
1,74,54,120
1,74,0,120
1,70,58,120
1,70,0,240
1,86,52,1440
1,86,0,120
1,84,64,120
1,84,0,240
1,83,37,0
1,83,0,120
1,83,43,120
1,83,0,120
1,83,37,120
1,83,0,120
1,83,55,120
1,83,0,240
1,84,42,0
1,84,0,120
1,87,51,360
1,87,0,120
1,84,64,120
1,84,0,240
1,83,37,0
1,83,0,120
1,83,44,120
1,83,0,120
1,83,37,120
1,83,0,120
1,83,57,120
1,83,0,240
1,84,47,0
1,84,0,120
1,87,54,360
1,87,0,240
1,84,64,0
1,84,0,240
1,82,52,0
1,82,0,120
1,82,54,120
1,82,0,120
1,82,54,120
1,82,0,120
1,84,64,120
1,84,0,240
1,82,53,0
1,82,0,120
1,82,55,120
1,82,0,120
1,82,55,120
1,82,0,120
1,84,64,120
1,84,0,120
1,82,52,0
1,82,0,120
1,81,53,0
1,81,0,120
1,82,53,0
1,82,0,120
1,84,58,0
1,84,0,120
1,86,54,120
1,86,0,120
1,82,58,120
1,82,0,480
1,74,57,240
1,74,0,120
1,79,60,120
1,79,0,480
1,75,60,0
1,75,0,480
1,72,60,0
1,72,0,480
1,74,60,0
1,74,0,120
1,75,58,120
1,75,0,120
1,77,57,120
1,77,0,120
1,79,53,0
1,79,0,120
1,77,53,0
1,77,0,120
1,75,53,0
1,75,0,120
1,74,59,0
1,74,0,120
1,75,52,0
1,75,0,120
1,74,52,0
1,74,0,120
1,72,53,0
1,72,0,120
1,70,60,0
1,70,0,720
1,70,57,0
1,70,0,120
1,75,60,120
1,75,0,480
1,72,60,0
1,72,0,480
1,69,60,0
1,69,0,480
1,74,65,0
1,62,54,0
1,62,0,120
1,74,0,0
1,60,49,120
1,72,58,0
1,72,0,120
1,60,0,0
1,60,55,120
1,72,66,0
1,72,0,240
1,60,0,0
1,58,51,0
1,70,60,0
1,70,0,120
1,58,0,0
1,69,67,120
1,57,56,0
1,57,0,120
1,69,0,0
1,55,52,120
1,67,61,0
1,67,0,120
1,55,0,0
1,70,73,120
1,58,61,0
1,58,0,240
1,70,0,0
1,69,66,0
1,57,55,0
1,57,0,120
1,69,0,0
1,55,59,120
1,67,71,0
1,67,0,120
1,55,0,0
1,66,66,120
1,54,55,0
1,54,0,120
1,66,0,0
1,55,60,120
1,67,72,0
1,67,0,240
1,55,0,0
1,74,81,240
1,62,69,0
1,69,69,0
1,69,0,720
1,62,0,0
1,74,0,0
1,63,53,0
1,75,64,0
1,75,0,120
1,63,0,0
1,74,68,120
1,62,57,0
1,62,0,120
1,74,0,0
1,72,64,120
1,60,53,0
1,60,0,120
1,72,0,0
1,60,58,120
1,72,69,0
1,72,0,240
1,60,0,0
1,70,64,0
1,58,53,0
1,58,0,120
1,70,0,0
1,57,58,120
1,69,69,0
1,69,0,120
1,57,0,0
1,55,53,120
1,67,64,0
1,67,0,120
1,55,0,0
1,68,72,120
1,56,60,0
1,56,0,480
1,68,0,0
1,54,55,0
1,66,66,0
1,66,0,480
1,54,0,0
1,55,59,0
1,67,71,0
1,67,0,240
1,55,0,0
1,74,52,1440
1,74,0,120
1,72,63,120
1,72,0,240
1,71,37,0
1,71,0,120
1,71,43,120
1,71,0,120
1,71,37,120
1,71,0,120
1,71,55,120
1,71,0,120
1,72,49,0
1,72,0,120
1,79,59,0
1,79,0,240
1,77,50,0
1,77,0,120
1,75,45,0
1,75,0,120
1,74,45,0
1,74,0,120
1,72,45,0
1,72,0,120
1,72,63,0
1,72,0,240
1,71,37,0
1,71,0,120
1,71,44,120
1,71,0,120
1,71,37,120
1,71,0,120
1,71,57,120
1,71,0,240
1,72,47,0
1,72,0,120
1,75,54,360
1,75,0,240
1,72,63,0
1,72,0,240
1,70,52,0
1,70,0,120
1,70,54,120
1,70,0,120
1,70,54,120
1,70,0,120
1,72,63,120
1,72,0,240
1,70,53,0
1,70,0,120
1,70,55,120
1,70,0,120
1,70,55,120
1,70,0,120
1,72,63,120
1,72,0,120
1,70,52,0
1,70,0,120
1,69,53,0
1,69,0,120
1,70,53,0
1,70,0,120
1,72,58,0
1,72,0,120
1,74,54,120
1,74,0,120
1,70,58,120
1,70,0,480
1,74,57,240
1,74,0,120
1,79,60,120
1,79,0,480
1,75,60,0
1,75,0,480
1,72,60,0
1,72,0,480
1,74,60,0
1,74,0,120
1,75,58,120
1,75,0,120
1,77,57,120
1,77,0,120
1,79,53,0
1,79,0,120
1,77,53,0
1,77,0,120
1,75,53,0
1,75,0,120
1,74,59,0
1,74,0,120
1,75,52,0
1,75,0,120
1,74,52,0
1,74,0,120
1,72,53,0
1,72,0,120
1,70,60,0
1,70,0,720
1,70,46,0
1,70,0,120
1,75,48,120
1,75,0,480
1,72,48,0
1,72,0,480
1,68,48,0
1,68,0,480
1,70,48,0
1,70,0,240
1,72,46,0
1,72,0,240
1,75,48,0
1,75,0,480
1,73,48,0
1,73,0,240
1,72,48,0
1,72,0,240
1,70,48,0
1,70,0,480
1,72,48,0
1,72,0,120
1,73,46,120
1,73,0,120
1,75,46,120
1,75,0,120
1,77,42,0
1,77,0,120
1,75,42,0
1,75,0,120
1,73,42,0
1,73,0,120
1,72,47,0
1,72,0,120
1,73,42,0
1,73,0,120
1,72,42,0
1,72,0,120
1,70,42,0
1,70,0,120
1,68,48,0
1,68,0,480
1,70,48,0
1,70,0,120
1,72,44,120
1,72,0,120
1,75,48,120
1,75,0,240
1,73,48,0
1,73,0,120
1,73,48,120
1,73,0,120
1,75,44,0
1,75,0,120
1,73,44,0
1,73,0,120
1,72,44,0
1,72,0,120
1,70,48,0
1,70,0,240
1,75,49,0
1,75,0,120
1,77,53,120
1,77,0,120
1,79,56,120
1,79,0,120
1,80,59,120
1,68,50,0
1,68,0,960
1,80,0,0
1,84,60,0
1,72,51,0
1,72,0,720
1,84,0,0
1,80,55,0
1,68,47,0
1,68,0,240
1,80,0,0
1,80,59,0
1,68,50,0
1,68,0,480
1,80,0,0
1,67,47,0
1,79,55,0
1,79,0,960
1,67,0,0
1,67,48,0
1,79,57,0
1,79,0,480
1,67,0,0
1,67,52,0
1,79,63,0
1,79,0,480
1,67,0,0
1,77,58,0
1,65,49,0
1,65,0,480
1,77,0,0
1,70,57,0
1,82,67,0
1,82,0,720
1,70,0,0
1,81,61,0
1,69,51,0
1,69,0,240
1,81,0,0
1,69,51,0
1,81,61,0
1,81,0,240
1,69,0,0
1,79,54,0
1,67,46,0
1,67,0,240
1,79,0,0
1,75,59,0
1,87,71,0
1,87,0,480
1,75,0,0
1,86,63,0
1,74,52,0
1,74,0,480
1,86,0,0
1,72,45,0
1,84,53,0
1,84,0,480
1,72,0,0
1,82,53,0
1,70,44,0
1,70,0,240
1,82,0,0
1,74,46,240
1,74,0,120
1,74,48,40
1,74,0,120
1,74,50,40
1,74,0,120
1,74,51,40
1,74,0,120
1,74,49,40
1,74,0,120
1,74,47,40
1,74,0,120
1,74,51,40
1,74,0,120
1,72,46,0
1,72,0,120
1,74,47,0
1,74,0,120
1,75,47,0
1,75,0,120
1,74,53,0
1,74,0,240
1,86,52,1440
1,86,0,120
1,84,63,120
1,84,0,240
1,83,37,0
1,83,0,120
1,83,43,120
1,83,0,120
1,83,37,120
1,83,0,120
1,83,55,120
1,83,0,120
1,84,49,0
1,84,0,120
1,91,59,0
1,91,0,240
1,89,50,0
1,89,0,120
1,87,45,0
1,87,0,120
1,86,45,0
1,86,0,120
1,84,45,0
1,84,0,120
1,84,63,0
1,84,0,240
1,83,37,0
1,83,0,120
1,83,44,120
1,83,0,120
1,83,37,120
1,83,0,120
1,83,57,120
1,83,0,240
1,84,47,0
1,84,0,120
1,87,54,360
1,87,0,240
1,84,63,0
1,84,0,240
1,82,52,0
1,82,0,120
1,82,54,120
1,82,0,120
1,82,54,120
1,82,0,120
1,84,63,120
1,84,0,240
1,82,53,0
1,82,0,120
1,82,55,120
1,82,0,120
1,82,55,120
1,82,0,120
1,79,63,120
1,79,0,120
1,77,52,0
1,77,0,120
1,76,53,0
1,76,0,120
1,77,53,0
1,77,0,120
1,75,58,0
1,75,0,120
1,72,54,120
1,72,0,120
1,70,58,120
1,70,0,120
1,74,55,120
1,74,0,120
1,77,55,120
1,77,0,120
1,82,55,120
1,82,0,120
1,86,60,120
1,86,0,240
1,84,58,0
1,84,0,120
1,84,61,120
1,84,0,120
1,84,58,120
1,84,0,120
1,79,63,120
1,79,0,120
1,77,52,0
1,77,0,120
1,76,53,0
1,76,0,120
1,77,53,0
1,77,0,120
1,72,58,0
1,72,0,120
1,69,54,120
1,69,0,120
1,86,65,120
1,86,0,240
1,84,58,0
1,84,0,120
1,84,61,120
1,84,0,120
1,84,58,120
1,84,0,120
1,79,63,120
1,79,0,120
1,77,52,0
1,77,0,120
1,76,53,0
1,76,0,120
1,77,53,0
1,77,0,120
1,72,58,0
1,72,0,120
1,69,54,120
1,69,0,120
1,81,54,120
1,81,0,240
1,79,49,0
1,79,0,120
1,79,52,120
1,79,0,120
1,79,49,120
1,79,0,120
1,86,53,120
1,86,0,120
1,84,44,0
1,84,0,120
1,83,45,0
1,83,0,120
1,84,45,0
1,84,0,120
1,79,49,0
1,79,0,120
1,76,46,120
1,76,0,120
1,81,54,120
1,81,0,240
1,79,49,0
1,79,0,120
1,79,52,120
1,79,0,120
1,79,49,120
1,79,0,120
1,86,53,120
1,86,0,120
1,84,44,0
1,84,0,120
1,83,45,0
1,83,0,120
1,84,45,0
1,84,0,120
1,79,49,0
1,79,0,120
1,76,46,120
1,76,0,120
1,74,53,120
1,74,0,120
1,72,44,0
1,72,0,120
1,71,45,0
1,71,0,120
1,72,45,0
1,72,0,120
1,67,49,0
1,67,0,120
1,64,46,120
1,64,0,120
1,67,52,2280
1,64,52,0
1,72,52,0
1,72,0,120
1,64,0,0
1,67,0,0
1,64,52,120
1,72,52,0
1,69,52,0
1,69,0,120
1,72,0,0
1,64,0,0
1,64,52,120
1,70,52,0
1,72,52,0
1,72,0,120
1,70,0,0
1,64,0,0
1,72,52,120
1,69,34,120
1,69,0,120
1,65,33,0
1,65,0,120
1,69,33,0
1,69,0,120
1,72,0,0
1,77,53,0
1,69,39,120
1,69,0,120
1,65,39,0
1,65,0,120
1,69,39,0
1,69,0,120
1,77,0,0
1,72,52,0
1,76,52,0
1,72,0,120
1,69,38,0
1,69,0,120
1,64,38,0
1,64,0,120
1,69,38,0
1,69,0,120
1,76,0,0
1,70,51,0
1,74,51,0
1,70,0,120
1,65,34,0
1,65,0,120
1,62,34,0
1,62,0,120
1,65,34,0
1,65,0,120
1,74,0,0
1,69,51,0
1,74,51,0
1,69,0,120
1,65,35,0
1,65,0,120
1,62,35,0
1,62,0,120
1,65,35,0
1,65,0,120
1,74,0,0
1,69,49,0
1,72,49,0
1,69,0,120
1,65,35,0
1,65,0,120
1,60,35,0
1,60,0,120
1,65,35,0
1,65,0,120
1,72,0,0
1,69,50,0
1,72,50,0
1,69,0,120
1,64,36,0
1,64,0,120
1,60,36,0
1,60,0,120
1,64,36,0
1,64,0,120
1,72,0,0
1,67,49,0
1,70,49,0
1,67,0,120
1,64,34,0
1,64,0,120
1,58,34,0
1,58,0,120
1,64,34,0
1,64,0,120
1,70,0,0
1,67,50,0
1,70,50,0
1,67,0,120
1,62,35,0
1,62,0,120
1,58,35,0
1,58,0,120
1,62,35,0
1,62,0,120
1,70,0,0
1,65,49,0
1,69,49,0
1,65,0,120
1,62,35,0
1,62,0,120
1,57,35,0
1,57,0,120
1,62,35,0
1,62,0,120
1,69,0,0
1,64,48,0
1,69,48,0
1,64,0,120
1,61,36,0
1,61,0,120
1,57,36,0
1,57,0,120
1,61,36,0
1,61,0,120
1,69,0,0
1,67,47,0
1,64,35,120
1,64,0,120
1,57,35,0
1,57,0,120
1,64,35,0
1,64,0,120
1,67,0,0
1,67,48,0
1,64,38,120
1,64,0,120
1,57,42,0
1,57,0,120
1,64,45,0
1,64,0,120
1,67,0,0
1,65,52,0
1,62,39,120
1,62,0,120
1,57,39,0
1,57,0,120
1,62,39,0
1,62,0,120
1,65,0,0
1,64,49,0
1,64,0,480
1,62,47,0
1,62,0,480
1,64,52,1200
1,67,52,0
1,72,52,0
1,72,0,120
1,67,0,0
1,64,0,0
1,64,52,120
1,69,52,0
1,72,52,0
1,72,0,120
1,69,0,0
1,64,0,0
1,64,52,120
1,70,52,0
1,72,52,0
1,72,0,120
1,70,0,0
1,64,0,0
1,72,52,120
1,69,37,120
1,69,0,120
1,65,37,0
1,65,0,120
1,69,37,0
1,69,0,120
1,72,0,0
1,77,53,0
1,69,40,120
1,69,0,120
1,65,40,0
1,65,0,120
1,69,42,0
1,69,0,120
1,77,0,0
1,72,52,0
1,76,52,0
1,72,0,120
1,69,38,0
1,69,0,120
1,64,38,0
1,64,0,120
1,69,38,0
1,69,0,120
1,76,0,0
1,70,51,0
1,74,51,0
1,70,0,120
1,65,34,0
1,65,0,120
1,62,34,0
1,62,0,120
1,65,34,0
1,65,0,120
1,74,0,0
1,69,48,0
1,74,48,0
1,69,0,120
1,65,37,0
1,65,0,120
1,62,37,0
1,62,0,120
1,65,37,0
1,65,0,120
1,74,0,0
1,69,49,0
1,72,49,0
1,69,0,120
1,65,35,0
1,65,0,120
1,60,35,0
1,60,0,120
1,65,35,0
1,65,0,120
1,72,0,0
1,69,49,0
1,72,49,0
1,69,0,120
1,64,36,0
1,64,0,120
1,60,36,0
1,60,0,120
1,64,37,0
1,64,0,120
1,72,0,0
1,67,49,0
1,70,49,0
1,67,0,120
1,64,35,0
1,64,0,120
1,58,35,0
1,58,0,120
1,64,35,0
1,64,0,120
1,70,0,0
1,67,50,0
1,70,50,0
1,67,0,120
1,62,36,0
1,62,0,120
1,58,36,0
1,58,0,120
1,62,36,0
1,62,0,120
1,70,0,0
1,65,49,0
1,69,49,0
1,65,0,120
1,62,36,0
1,62,0,120
1,57,36,0
1,57,0,120
1,62,36,0
1,62,0,120
1,69,0,0
1,64,48,0
1,69,48,0
1,64,0,120
1,61,36,0
1,61,0,120
1,57,36,0
1,57,0,120
1,61,36,0
1,61,0,120
1,69,0,0
1,67,47,0
1,64,37,120
1,64,0,120
1,57,37,0
1,57,0,120
1,64,37,0
1,64,0,120
1,67,0,0
1,67,48,0
1,64,38,120
1,64,0,120
1,57,42,0
1,57,0,120
1,64,45,0
1,64,0,120
1,67,0,0
1,66,52,0
1,62,43,120
1,62,0,120
1,57,44,0
1,57,0,120
1,62,44,0
1,62,0,120
1,66,0,0
1,64,49,0
1,62,40,120
1,62,0,120
1,59,38,0
1,59,0,120
1,62,36,0
1,62,0,120
1,64,0,0
1,66,45,0
1,61,33,120
1,61,0,120
1,57,33,0
1,57,0,120
1,61,33,0
1,61,0,120
1,66,0,0
1,62,43,0
1,57,35,120
1,57,0,120
1,54,35,0
1,54,0,120
1,57,35,0
1,57,0,120
1,62,0,0
1,64,49,0
1,59,35,120
1,59,0,120
1,55,35,0
1,55,0,120
1,59,35,0
1,59,0,120
1,64,0,0
1,66,49,0
1,60,35,120
1,60,0,120
1,57,36,0
