track,note,velocity,time
1,45,76,1888
1,38,65,28
1,40,86,0
1,41,84,16
1,40,91,24
1,38,80,8
1,36,75,16
1,35,85,20
1,36,71,12
1,38,78,4
1,40,93,0
1,45,70,392
1,40,72,4
1,33,69,4
1,45,65,48
1,33,73,360
1,47,84,340
1,35,66,4
1,36,75,368
1,43,76,8
1,43,75,48
1,41,88,20
1,40,84,4
1,38,69,16
1,37,84,24
1,37,75,160
1,38,58,468
1,42,63,364
1,41,84,132
1,40,76,28
1,38,64,12
1,43,77,36
1,48,78,28
1,45,76,40
1,38,65,28
1,40,86,0
1,41,84,16
1,40,91,24
1,38,80,8
1,36,75,16
1,35,85,16
1,36,71,12
1,38,78,4
1,40,93,0
1,45,70,392
1,40,72,8
1,33,69,8
1,45,65,40
1,33,73,364
1,47,84,340
1,35,66,4
1,36,75,364
1,43,76,8
1,43,75,48
1,41,88,16
1,40,84,4
1,38,69,16
1,37,84,24
1,37,75,160
1,38,58,468
1,42,63,364
1,41,84,132
1,40,76,24
1,38,64,12
1,43,77,36
1,48,78,24
1,36,75,44
1,40,83,48
1,43,72,20
1,36,66,8
1,48,69,16
1,47,61,36
1,45,62,0
1,43,55,12
1,42,63,192
1,39,63,364
1,40,69,24
1,47,76,20
1,49,75,28
1,51,61,20
1,45,65,16
1,43,73,192
1,42,75,8
1,40,71,8
1,52,78,20
1,40,75,220
1,39,68,80
1,51,74,0
1,38,73,208
1,36,69,120
1,33,60,48
1,35,83,28
1,40,59,28
1,43,63,20
1,47,53,40
1,40,75,20
1,52,62,8
1,43,68,12
1,45,60,20
1,38,49,752
1,50,59,384
1,41,83,4
1,43,67,12
1,48,77,776
1,47,72,8
1,45,71,4
1,43,73,192
1,41,76,8
1,40,69,8
1,38,65,32
1,35,85,0
1,32,86,48
1,33,63,20
1,42,85,16
1,44,86,36
1,45,73,24
1,40,81,28
1,33,61,20
1,36,75,60
1,40,83,48
1,43,72,24
1,36,66,8
1,48,69,16
1,47,61,36
1,45,62,0
1,43,55,12
1,42,63,192
1,39,63,364
1,40,69,24
1,47,76,16
1,49,75,24
1,51,61,20
1,45,65,16
1,43,73,192
1,42,75,8
1,40,71,12
1,52,78,20
1,40,75,220
1,39,68,80
1,51,74,4
1,38,73,208
1,36,69,124
1,33,60,48
1,35,83,28
1,40,59,24
1,43,63,20
1,47,53,40
1,40,75,24
1,52,62,8
1,43,68,16
1,45,60,20
1,38,49,752
1,50,59,0
1,41,83,4
1,43,67,12
1,48,77,776
1,47,72,8
1,45,71,4
1,43,73,192
1,41,76,8
1,40,69,8
1,38,65,32
1,35,85,0
1,32,86,48
1,33,63,20
1,42,85,16
1,44,86,36
1,45,73,20
1,40,81,28
1,33,61,20
2,57,73,1864
2,64,58,8
2,62,70,0
2,65,66,0
2,52,68,12
2,62,68,0
2,60,58,24
2,53,63,0
2,60,40,20
2,52,76,0
2,50,64,16
2,48,72,16
2,47,77,0
2,57,61,8
2,48,73,0
2,60,81,32
2,50,76,4
2,59,84,52
2,57,82,28
2,52,78,4
2,56,69,20
2,57,78,0
2,52,73,36
2,45,66,4
2,57,77,52
2,45,82,380
2,59,75,512
2,47,78,28
2,55,70,396
2,48,64,0
2,53,68,8
2,57,81,8
2,55,72,192
2,53,75,188
2,52,74,188
2,55,82,16
2,55,85,96
2,53,70,0
2,52,69,0
2,50,72,4
2,49,75,196
2,49,65,104
2,50,74,548
2,54,70,436
2,53,84,16
2,52,60,28
2,50,72,0
2,55,79,36
2,65,69,0
2,60,58,12
2,62,63,20
2,64,67,192
2,64,69,56
2,57,75,0
2,62,75,12
2,65,58,0
2,52,73,40
2,62,73,0
2,60,69,60
2,53,68,4
2,60,70,36
2,52,70,4
2,50,77,8
2,48,69,188
2,47,79,8
2,57,66,4
2,48,70,4
2,60,73,12
2,50,73,4
2,59,80,4
2,52,72,20
2,57,70,0
2,56,60,8
2,57,73,0
2,52,73,12
2,45,74,12
2,57,71,28
2,45,76,384
2,59,67,460
2,47,78,12
2,55,79,424
2,48,79,4
2,53,72,4
2,57,79,8
2,55,73,188
2,53,78,184
2,52,83,4
2,55,83,0
2,55,87,108
2,53,62,0
2,52,73,8
2,50,75,4
2,49,64,192
2,49,61,136
2,50,69,512
2,54,72,412
2,53,72,128
2,52,72,16
2,50,73,192
2,55,79,44
2,65,72,4
2,60,54,16
2,62,77,12
2,64,69,196
2,48,77,284
2,52,67,192
2,55,82,4
2,48,61,776
2,60,76,40
2,59,78,0
2,57,74,192
2,55,74,8
2,54,80,196
2,51,83,4
2,52,84,8
2,59,87,384
2,61,76,184
2,63,80,188
2,57,75,0
2,55,73,196
2,54,73,16
2,52,74,196
2,64,74,0
2,52,81,300
2,51,75,192
2,63,76,36
2,50,88,312
2,48,80,196
2,45,84,20
2,47,79,384
2,52,79,372
2,55,76,8
2,59,84,388
2,52,83,20
2,64,81,8
2,55,75,12
2,57,81,0
2,50,87,832
2,62,78,388
2,53,63,4
2,55,73,20
2,60,78,756
2,59,72,24
2,57,77,192
2,55,77,188
2,53,76,180
2,52,69,188
2,50,85,188
2,47,69,380
2,44,70,376
2,45,85,0
2,54,77,196
2,56,72,8
2,57,80,16
2,52,72,200
2,45,75,0
2,48,77,248
2,52,67,192
2,55,82,4
2,48,61,776
2,60,76,44
2,59,78,188
2,57,74,188
2,55,74,8
2,54,80,196
2,51,83,4
2,52,84,8
2,59,87,384
2,61,76,184
2,63,80,184
2,57,75,184
2,55,73,192
2,54,73,16
2,52,74,196
2,64,74,0
2,52,81,300
2,51,75,192
2,63,76,40
2,50,88,312
2,48,80,196
2,45,84,20
2,47,79,384
2,52,79,372
2,55,76,8
2,59,84,388
2,52,83,16
2,64,81,0
2,55,75,8
2,57,81,0
2,50,87,832
2,62,78,384
2,53,63,0
2,55,73,20
2,60,78,756
2,59,72,24
2,57,77,192
2,55,77,184
2,53,76,180
2,52,69,188
2,50,85,188
2,47,69,380
2,44,70,376
2,45,85,0
2,54,77,196
2,56,72,8
2,57,80,16
2,52,72,200
2,45,75,0
3,72,84,1848
3,72,78,68
3,71,76,0
3,69,69,4
3,68,75,196
3,69,73,196
3,69,79,88
3,76,89,24
3,76,87,52
3,74,78,20
3,72,79,4
3,71,74,0
3,71,77,36
3,72,69,20
3,71,71,12
3,69,65,16
3,72,83,40
3,69,68,184
3,65,78,164
3,64,81,184
3,65,86,4
3,72,82,196
3,74,93,184
3,67,74,180
3,65,80,8
3,64,78,192
3,65,81,188
3,74,84,4
3,76,82,16
3,74,81,192
3,77,86,192
3,76,75,0
3,74,81,192
3,72,75,184
3,79,84,188
3,67,65,16
3,70,70,196
3,69,66,0
3,70,73,196
3,79,82,184
3,76,77,4
3,70,71,0
3,69,75,0
3,67,72,0
3,69,78,20
3,81,86,0
3,75,79,192
3,74,87,8
3,83,90,8
3,84,89,188
3,77,85,84
3,76,73,16
3,74,86,28
3,72,71,20
3,72,71,72
3,72,66,132
3,72,80,156
3,72,81,68
3,71,74,4
3,69,74,0
3,68,69,192
3,69,75,188
3,69,75,68
3,76,81,768
3,76,83,68
3,74,81,188
3,72,76,184
3,71,74,188
3,71,84,32
3,72,81,36
3,71,77,8
3,69,77,24
3,72,81,392
3,69,65,172
3,65,81,4
3,64,77,192
3,65,81,8
3,72,79,8
3,74,91,196
3,67,77,0
3,65,81,188
3,64,74,0
3,65,82,196
3,74,89,12
3,76,84,8
3,74,83,192
3,77,91,0
3,76,81,0
3,74,81,192
3,72,83,188
3,79,82,192
3,67,75,372
3,70,75,168
3,69,66,8
3,70,72,8
3,79,82,0
3,76,72,12
3,70,73,0
3,69,75,12
3,67,74,192
3,69,73,8
3,81,84,4
3,75,73,196
3,74,75,8
3,83,91,16
3,84,80,8
3,77,82,40
3,76,77,12
3,74,80,192
3,72,67,8
3,72,76,60
3,72,74,88
3,67,87,244
3,67,84,72
3,65,80,4
3,64,73,0
3,62,79,8
3,64,79,4
3,64,86,80
3,63,90,16
3,69,81,8
3,67,89,192
3,66,79,188
3,67,84,16
3,71,79,0
3,76,87,8
3,75,85,196
3,78,79,12
3,76,75,0
3,78,86,100
3,71,78,8
3,79,86,392
3,76,78,4
3,72,87,0
3,71,81,0
3,70,77,196
3,79,85,16
3,78,81,196
3,72,70,8
3,71,83,192
3,69,73,0
3,68,76,196
3,77,76,12
3,76,84,12
3,72,73,12
3,71,78,60
3,69,77,8
3,67,78,24
3,66,72,4
3,66,78,68
3,67,73,192
3,64,75,184
3,67,82,216
3,69,75,0
3,70,67,8
3,67,84,12
3,65,77,4
3,64,76,192
3,62,80,0
3,61,77,192
3,70,83,8
3,69,71,20
3,67,77,4
3,65,79,192
3,64,80,0
3,65,82,192
3,67,73,188
3,69,79,88
3,65,82,88
3,64,79,176
3,62,77,8
3,60,82,4
3,59,85,0
3,69,81,8
3,67,78,4
3,65,77,192
3,64,73,184
3,62,75,4
3,64,85,192
3,62,81,0
3,65,85,0
3,64,84,16
3,69,86,192
3,67,81,12
3,70,91,4
3,69,81,192
3,68,81,188
3,69,77,0
3,65,79,192
3,64,75,188
3,63,86,184
3,64,76,12
3,62,84,196
3,60,78,168
3,59,76,4
3,57,75,0
3,69,77,88
3,57,79,52
3,67,87,232
3,67,84,72
3,65,80,4
3,64,73,0
3,62,79,8
3,64,79,4
3,64,86,80
3,63,90,16
3,69,81,12
3,67,89,192
3,66,79,184
3,67,84,16
3,71,79,0
3,76,87,8
3,75,85,196
3,78,79,12
3,76,75,0
3,78,86,100
3,71,78,4
3,79,86,392
3,76,78,0
3,72,87,4
3,71,81,0
3,70,77,196
3,79,85,16
3,78,81,196
3,72,70,8
3,71,83,188
3,69,73,0
3,68,76,192
3,77,76,16
3,76,84,12
3,72,73,12
3,71,78,60
3,69,77,8
3,67,78,24
3,66,72,4
3,66,78,68
3,67,73,192
3,64,75,184
3,67,82,216
3,69,75,0
3,70,67,8
3,67,84,12
3,65,77,4
3,64,76,192
3,62,80,0
3,61,77,192
3,70,83,8
3,69,71,20
3,67,77,4
3,65,79,192
3,64,80,0
3,65,82,192
3,67,73,188
3,69,79,88
3,65,82,88
3,64,79,172
3,62,77,8
3,60,82,4
3,59,85,4
3,69,81,8
3,67,78,4
3,65,77,192
3,64,73,184
3,62,75,4
3,64,85,192
3,62,81,180
3,65,85,192
3,64,84,16
3,69,86,192
3,67,81,12
3,70,91,0
3,69,81,196
3,68,81,184
3,69,77,0
3,65,79,192
3,64,75,188
3,63,86,184
3,64,76,16
3,62,84,196
3,60,78,168
3,59,76,4
3,57,75,0
3,69,77,88
3,57,79,48
4,64,83,1828
4,65,90,380
4,62,76,16
4,60,83,12
4,60,76,44
4,57,78,16
4,60,91,20
4,59,88,0
4,57,88,4
4,56,77,8
4,57,63,20
4,57,48,24
4,60,74,0
4,60,60,16
4,57,52,4
4,59,59,0
4,62,56,4
4,59,41,48
4,62,57,4
4,60,62,24
4,64,60,12
4,65,68,4
4,64,80,4
4,62,59,204
4,60,78,12
4,67,72,16
4,55,58,24
4,55,77,44
4,53,83,156
4,55,81,4
4,64,92,4
4,58,81,12
4,55,68,8
4,53,81,36
4,52,78,12
4,53,93,4
4,65,88,12
4,60,78,212
4,59,88,200
4,60,78,168
4,53,71,8
4,50,60,8
4,52,76,4
4,64,83,60
4,65,90,0
4,62,76,16
4,60,83,16
4,60,76,44
4,57,78,16
4,60,91,20
4,59,88,0
4,57,88,4
4,56,77,8
4,57,63,20
4,57,48,24
4,60,74,0
4,60,60,20
4,57,52,0
4,59,59,4
4,62,56,4
4,59,41,52
4,62,57,4
4,60,62,24
4,64,60,12
4,65,68,4
4,64,80,4
4,62,59,204
4,60,78,12
4,67,72,12
4,55,58,24
4,55,77,44
4,53,83,160
4,55,81,12
4,64,92,4
4,58,81,12
4,55,68,12
4,53,81,32
4,52,78,12
4,53,93,4
4,65,88,20
4,60,78,208
4,59,88,200
4,60,78,164
4,53,71,8
4,50,60,8
4,52,76,4
4,64,70,60
4,64,82,56
4,62,65,4
4,60,63,0
4,59,56,184
4,64,53,4
4,64,81,48
4,62,67,4
4,60,67,4
4,59,62,8
4,59,85,0
4,66,90,72
4,64,94,20
4,63,87,28
4,64,106,40
4,66,108,20
4,67,114,56
4,66,103,56
4,71,78,20
4,70,99,32
4,71,79,48
4,63,65,24
4,71,67,28
4,64,75,4
4,71,67,556
4,64,75,0
4,63,79,28
4,71,67,4
4,71,61,608
4,67,75,0
4,64,78,4
4,62,56,176
4,60,65,4
4,59,70,184
4,57,76,4
4,57,61,44
4,59,66,184
4,55,48,4
4,58,74,44
4,61,79,88
4,58,87,4
4,57,77,0
4,55,82,0
4,53,73,4
4,52,69,192
4,62,94,388
4,64,100,20
4,65,95,80
4,62,78,12
4,60,74,4
4,59,66,0
4,57,67,4
4,55,66,188
4,60,57,756
4,59,61,4
4,57,60,4
4,55,61,200
4,53,54,8
4,52,54,12
4,64,70,3456
4,64,82,52
4,62,65,4
4,60,63,0
4,59,56,184
4,64,53,4
4,64,81,48
4,62,67,4
4,60,67,0
4,59,62,8
4,59,85,0
4,66,90,72
4,64,94,20
4,63,87,28
4,64,106,40
4,66,108,16
4,67,114,56
4,66,103,56
4,71,78,24
4,70,99,32
4,71,79,44
4,63,65,24
4,71,67,28
4,64,75,4
4,71,67,560
4,64,75,0
4,63,79,28
4,71,67,4
4,71,61,612
4,67,75,0
4,64,78,4
4,62,56,176
4,60,65,4
4,59,70,184
4,57,76,4
4,57,61,48
4,59,66,184
4,55,48,4
4,58,74,44
4,61,79,88
4,58,87,4
4,57,77,0
4,55,82,0
4,53,73,4
4,52,69,192
4,62,94,388
4,64,100,20
4,65,95,80
4,62,78,16
4,60,74,4
4,59,66,0
4,57,67,0
4,55,66,192
4,60,57,756
4,59,61,4
4,57,60,4
4,55,61,0
4,53,54,8
4,52,54,12
5,72,83,1808
5,72,82,16
5,71,84,0
5,69,84,12
5,68,76,172
5,69,69,8
5,69,77,36
5,76,88,24
5,76,95,40
5,74,78,8
5,72,93,12
5,71,88,4
5,71,83,40
5,72,84,12
5,71,80,20
5,69,80,12
5,72,86,28
5,69,82,0
5,65,92,16
5,64,86,4
5,65,88,16
5,72,93,4
5,74,86,12
5,67,90,16
5,65,93,0
5,64,91,8
5,65,97,0
5,74,89,12
5,76,94,12
5,74,89,8
5,77,98,0
5,76,92,0
5,74,86,8
5,72,93,16
5,79,82,4
5,67,83,4
5,70,77,132
5,69,78,180
5,70,85,168
5,79,72,0
5,76,89,188
5,70,77,12
5,69,77,12
5,67,75,184
5,69,82,20
5,81,74,192
5,75,73,8
5,74,71,8
5,83,69,20
5,84,73,172
5,77,100,28
5,76,91,8
5,74,77,8
5,72,76,12
5,72,82,40
5,72,72,68
5,72,83,72
5,72,82,16
5,71,84,0
5,69,84,12
5,68,76,172
5,69,69,12
5,69,77,36
5,76,88,24
5,76,95,36
5,74,78,8
5,72,93,12
5,71,88,8
5,71,83,36
5,72,84,12
5,71,80,24
5,69,80,12
5,72,86,32
5,69,82,4
5,65,92,16
5,64,86,4
5,65,88,20
5,72,93,4
5,74,86,16
5,67,90,16
5,65,93,0
5,64,91,8
5,65,97,0
5,74,89,8
5,76,94,8
5,74,89,8
5,77,98,0
5,76,92,0
5,74,86,8
5,72,93,12
5,79,82,0
5,67,83,4
5,70,77,132
5,69,78,180
5,70,85,168
5,79,72,0
5,76,89,188
5,70,77,12
5,69,77,12
5,67,75,188
5,69,82,20
5,81,74,192
5,75,73,8
5,74,71,4
5,83,69,20
5,84,73,168
5,77,100,24
5,76,91,8
5,74,77,8
5,72,76,16
5,72,82,40
5,72,72,72
5,67,78,76
5,67,89,52
5,65,88,0
5,64,90,12
5,62,78,192
5,64,89,8
5,64,82,44
5,63,85,100
5,69,82,0
5,67,86,16
5,66,79,8
5,67,93,32
5,71,98,8
5,76,102,32
5,75,90,76
5,78,80,4
5,76,81,32
5,78,89,20
5,71,83,24
5,79,85,84
5,76,91,180
5,72,84,4
