track,note,velocity,time
1,67,89,288
1,62,91,4
1,66,84,12
1,67,91,128
1,64,98,6
1,69,90,4
1,71,88,128
1,67,90,0
1,69,91,0
1,71,91,128
1,64,91,0
1,67,90,236
1,64,91,0
1,59,90,2
1,62,91,242
1,57,88,126
1,64,91,2
1,66,77,228
1,67,88,120
1,62,84,2
1,62,91,0
1,64,88,122
1,60,90,12
1,59,90,16
1,57,91,128
1,62,90,250
1,69,90,124
1,57,90,8
1,67,88,228
1,69,91,108
1,66,88,2
1,66,83,0
1,62,88,102
1,67,90,2
1,66,81,248
1,67,82,0
1,55,88,4
1,66,81,232
1,64,91,126
1,67,83,0
1,69,91,240
1,71,91,116
1,67,88,0
1,69,91,14
1,64,91,124
1,71,94,4
1,67,91,238
1,64,91,0
1,59,90,2
1,67,84,228
1,69,91,128
1,60,91,0
1,66,84,238
1,64,91,104
1,67,84,2
1,64,91,0
1,57,91,2
1,62,91,4
1,60,84,252
1,59,84,28
1,62,88,4
1,67,91,0
1,71,91,128
1,74,83,0
1,62,84,2
1,79,82,12
1,59,94,2
1,74,91,0
1,67,90,0
1,71,91,112
1,62,88,6
1,62,97,3404
1,57,92,6
1,57,97,0
1,64,95,4
1,62,105,120
1,66,85,0
1,62,85,4
1,67,95,8
1,66,88,124
1,69,85,4
1,69,92,0
1,72,85,0
1,66,84,114
1,69,92,6
1,62,92,226
1,66,85,8
1,57,92,124
1,62,92,0
1,62,92,238
1,66,88,4
1,62,92,3724
1,66,85,252
1,64,85,124
1,67,85,4
1,69,84,244
1,71,84,118
1,67,92,6
1,69,88,2
1,71,92,128
1,64,92,0
1,67,85,240
1,64,85,0
1,59,85,0
1,62,92,244
1,64,92,128
1,57,85,4
1,66,88,234
1,67,84,122
1,62,92,0
1,62,88,0
1,60,85,116
1,64,92,2
1,59,92,252
1,57,85,110
1,62,92,240
1,69,85,126
1,57,88,10
1,67,92,228
1,69,85,2
1,66,82,2
1,66,84,0
1,62,84,108
1,67,92,0
1,66,84,2
1,55,88,126
1,67,85,0
1,66,85,236
1,67,85,128
1,64,92,0
1,69,88,0
1,71,92,128
1,67,85,4
1,69,85,12
1,64,85,124
1,71,85,4
1,67,88,244
1,64,92,0
1,59,85,0
1,67,84,236
1,69,88,128
1,60,85,0
1,66,84,224
1,67,82,104
1,64,85,8
1,64,85,0
1,57,85,108
1,62,85,10
1,60,88,244
1,59,92,18
1,62,92,12
1,62,92,3428
1,57,85,18
1,57,97,40
1,64,92,6
1,62,97,116
1,66,84,0
1,62,92,38
1,67,85,10
1,66,85,114
1,69,85,4
1,69,85,0
1,72,85,2
1,66,85,118
1,69,92,2
1,57,85,122
1,62,92,108
1,66,85,0
1,62,85,0
1,62,85,236
1,66,78,6
1,67,92,3822
1,62,92,0
1,66,84,4
1,67,85,128
1,64,85,4
1,69,88,246
1,71,94,108
1,67,92,0
1,69,92,240
1,64,92,94
1,71,85,2
1,67,85,246
1,59,85,102
1,64,85,0
1,62,85,256
1,64,92,120
1,57,84,8
1,66,85,232
1,62,85,116
1,67,85,4
1,62,92,0
1,64,85,122
1,60,92,0
1,59,85,250
1,57,84,114
1,62,85,2
1,69,85,128
1,57,85,10
1,67,85,228
1,69,88,124
1,66,84,12
1,66,85,0
1,62,85,108
1,67,92,6
1,66,84,2
1,67,88,0
1,55,85,0
1,66,85,238
1,67,92,128
1,64,92,0
1,69,92,0
1,71,92,128
1,67,85,0
1,69,85,0
1,64,85,120
1,71,88,8
1,67,88,248
1,59,85,116
1,64,85,0
1,67,85,246
1,69,88,128
1,60,88,2
1,66,84,236
1,67,92,120
1,64,85,4
1,64,92,0
1,57,85,108
1,62,92,16
1,60,85,230
1,59,92,8
1,62,92,10
1,67,92,2
1,71,85,128
1,74,92,2
1,67,92,8
1,79,92,4
1,62,92,0
1,67,85,2
1,64,92,8
1,64,97,3672
1,57,92,120
1,69,85,8
1,68,97,244
1,65,95,106
1,69,92,0
1,71,92,244
1,72,95,118
1,69,95,0
1,71,88,236
1,72,85,122
1,65,92,2
1,69,92,240
1,65,92,0
1,60,92,2
1,69,95,242
1,69,95,20
1,62,105,14
1,68,92,12
1,69,92,128
1,66,94,20
1,66,92,0
1,59,92,112
1,64,95,10
1,62,92,236
1,62,92,4462
1,65,92,118
1,60,85,10
1,64,92,250
1,69,92,116
1,65,92,0
1,69,97,0
1,71,92,128
1,67,92,0
1,74,92,242
1,72,85,0
1,67,88,12
1,67,85,0
1,72,92,2
1,69,97,256
1,62,97,0
1,74,88,24
1,62,85,2
1,66,88,20
1,62,95,10
1,62,92,3822
1,57,92,26
1,64,97,22
1,57,92,2
1,66,85,120
1,62,95,4
1,67,92,52
1,62,92,4
1,69,97,112
1,66,85,0
1,72,92,0
1,69,97,0
1,69,92,110
1,66,85,4
1,62,88,226
1,66,85,0
1,62,85,0
1,57,85,2
1,66,92,250
1,62,88,4
1,71,92,3834
1,74,84,6
1,67,92,10
1,79,94,118
1,62,92,12
1,67,88,224
1,74,97,0
1,71,92,128
1,62,92,2
1,67,85,246
1,74,94,2
1,67,85,252
1,71,95,4
1,64,92,110
1,72,92,0
1,60,92,234
1,57,92,134
1,69,84,260
1,71,92,114
1,62,92,242
1,59,92,4
1,67,85,248
1,64,92,0
1,69,92,0
1,52,97,12
1,57,92,234
1,54,85,102
1,69,85,0
1,66,88,0
1,66,92,0
1,62,92,4
1,66,85,0
1,62,92,0
1,67,85,110
1,62,97,16
1,62,85,12
1,67,95,20
1,62,92,6
1,66,94,250
1,64,85,108
1,67,92,10
1,69,97,242
1,71,85,90
1,67,92,2
1,69,92,240
1,64,85,114
1,71,88,12
1,67,88,242
1,59,92,110
1,64,92,0
1,62,85,256
1,57,85,118
1,64,85,4
1,66,85,246
1,67,84,112
1,62,94,8
1,62,92,0
1,64,85,110
1,60,95,2
1,59,88,4
1,57,85,128
1,62,85,248
1,69,88,2
1,57,85,8
1,67,85,240
1,69,88,126
1,66,92,10
1,66,85,0
1,62,92,106
1,67,92,8
1,66,85,8
1,67,92,0
1,55,85,12
1,66,85,234
1,67,92,128
1,64,97,4
1,69,92,2
1,67,92,124
1,71,85,4
1,69,92,244
1,64,92,108
1,71,92,12
1,67,85,248
1,59,92,90
1,64,92,4
1,67,92,240
1,60,92,118
1,69,85,4
1,66,85,244
1,67,92,118
1,64,85,2
1,64,95,0
1,62,92,106
1,57,92,10
1,60,85,242
1,59,92,20
1,62,92,4
2,71,108,9132
2,72,108,782
2,74,108,364
2,74,92,24
2,72,94,384
2,71,103,762
2,69,103,364
2,69,103,32
2,71,100,1490
2,72,94,766
2,74,94,360
2,71,103,774
2,69,103,358
2,71,103,192
2,72,103,78
2,71,108,76
2,71,103,40
2,69,103,62
2,71,88,20
2,69,88,22
2,71,92,16
2,69,94,16
2,71,81,18
2,69,88,18
2,71,88,22
2,69,88,24
2,71,94,16
2,69,103,18
2,67,103,8
2,71,106,7266
2,72,103,772
2,74,103,370
2,74,103,36
2,72,94,394
2,71,103,752
2,69,103,352
2,69,103,44
2,71,108,1534
2,72,108,768
2,74,108,356
2,71,100,768
2,69,108,360
2,71,108,178
2,72,102,80
2,71,108,88
2,71,108,32
2,69,102,68
2,71,88,22
2,69,88,26
2,71,88,18
2,69,97,18
2,71,97,20
2,69,88,20
2,71,88,20
2,69,102,22
2,67,108,38
2,69,108,8448
2,71,108,750
2,72,108,382
2,72,103,36
2,71,103,374
2,72,108,568
2,74,103,74
2,71,100,86
2,69,103,392
2,69,100,26
2,72,108,2648
2,74,108,754
2,76,108,374
2,76,103,24
2,74,108,392
2,76,108,552
2,77,103,72
2,74,103,88
2,72,103,356
2,72,108,36
2,71,108,2660
2,72,108,750
2,74,103,360
2,74,103,30
2,72,103,380
2,72,103,34
2,71,103,86
2,72,92,44
2,71,103,44
2,72,88,24
2,71,81,30
2,72,84,20
2,71,88,18
2,72,88,22
2,71,88,14
2,72,84,22
2,71,88,18
2,72,81,20
2,71,81,18
2,72,88,32
2,71,73,26
2,72,88,24
2,71,81,26
2,69,103,36
2,71,108,1560
2,72,108,778
2,74,108,378
2,71,108,708
2,69,108,394
2,71,103,200
2,72,94,66
2,71,103,78
2,69,103,62
2,71,103,58
2,69,103,42
2,71,81,26
2,69,81,26
2,71,77,20
2,69,81,22
2,71,80,20
2,69,94,18
2,71,81,22
2,69,88,18
2,71,80,22
2,69,81,16
2,71,73,24
2,69,88,18
2,71,81,30
2,69,81,26
2,71,88,28
2,69,94,22
2,67,103,30
3,43,89,2
3,55,94,286
3,52,94,272
3,47,96,380
3,52,94,380
3,40,94,354
3,45,90,372
3,47,94,380
3,48,94,376
3,50,90,360
3,54,88,372
3,50,86,364
3,55,84,376
3,52,94,354
3,48,89,372
3,47,85,4
3,52,96,384
3,50,94,376
3,48,90,348
3,49,90,364
3,50,94,352
3,43,88,356
3,55,88,238
3,50,84,128
3,47,86,0
3,43,88,128
3,54,81,376
3,52,84,364
3,54,84,376
3,52,88,344
3,50,84,372
3,52,82,368
3,54,79,368
3,55,82,0
3,50,84,10
3,50,84,228
3,50,90,50
3,50,88,76
3,38,84,128
3,50,88,252
3,50,88,32
3,50,79,62
3,55,82,128
3,54,84,12
3,52,84,384
3,59,88,374
3,47,84,14
3,52,80,384
3,48,84,372
3,50,88,374
3,38,88,362
3,43,91,0
3,55,82,384
3,52,88,364
3,47,79,0
3,52,82,0
3,40,84,384
3,45,82,360
3,47,82,378
3,48,88,372
3,50,79,332
3,54,78,8
3,50,80,6
3,55,74,384
3,52,76,368
3,48,66,348
3,47,81,372
3,52,84,380
3,50,88,374
3,48,82,370
3,49,80,376
3,50,84,356
3,43,88,2
3,54,84,384
3,52,89,334
3,54,88,380
3,52,83,372
3,50,88,0
3,52,80,384
3,54,78,340
3,55,84,10
3,50,82,384
3,50,83,246
3,50,88,46
3,50,84,84
3,38,78,0
3,50,80,250
3,50,80,56
3,50,88,66
3,55,74,128
3,54,77,34
3,52,84,384
3,59,88,346
3,47,88,350
3,52,77,378
3,48,82,342
3,50,84,368
3,38,81,352
3,43,88,378
3,55,80,380
3,52,82,352
3,47,84,366
3,52,82,368
3,40,79,352
3,45,80,360
3,47,82,368
3,48,82,372
3,50,84,348
3,54,84,348
3,50,82,372
3,55,84,372
3,52,88,0
3,48,88,2
3,47,82,384
3,52,84,374
3,50,82,364
3,48,84,358
3,49,84,376
3,50,84,346
3,43,84,12
3,55,93,276
3,54,94,128
3,52,91,20
3,50,91,128
3,48,88,0
3,47,88,384
3,45,82,368
3,57,77,340
3,55,84,188
3,53,88,8
3,52,88,2
3,50,88,4
3,47,84,384
3,52,78,360
3,45,82,368
3,53,74,356
3,50,88,12
3,48,88,384
3,53,88,380
3,52,94,20
3,50,82,18
3,51,78,384
3,52,82,358
3,45,88,342
3,57,82,376
3,59,88,366
3,60,88,376
3,57,88,356
3,52,80,364
3,53,83,360
3,50,84,376
3,55,80,366
3,48,82,366
3,52,80,376
3,48,73,370
3,53,77,336
3,50,82,360
3,55,76,372
3,48,84,4
3,48,108,246
3,47,108,128
3,50,108,4
3,43,108,128
3,55,88,362
3,52,82,372
3,47,84,366
3,52,94,12
3,40,80,384
3,45,82,8
3,47,88,384
3,48,88,342
3,50,80,344
3,50,82,226
3,50,95,52
3,50,88,134
3,38,88,128
3,50,77,258
3,50,78,34
3,50,82,64
3,55,82,128
3,54,84,0
3,52,82,384
3,59,94,348
3,47,84,348
3,52,82,354
3,48,88,364
3,50,88,374
3,38,79,354
3,43,84,0
3,55,75,4992
3,52,82,362
3,47,88,356
3,52,88,370
3,40,82,372
3,45,79,8
3,47,88,384
3,48,80,348
3,50,82,344
3,54,77,352
3,50,79,360
3,55,80,368
3,52,80,370
3,48,77,358
3,47,80,4
3,52,81,384
3,50,79,354
3,48,82,20
3,49,88,384
3,50,80,336
3,43,82,380
4,67,96,32
4,69,103,0
4,71,103,128
4,74,99,116
4,72,106,120
4,72,103,44
4,76,99,128
4,74,103,118
4,74,100,30
4,79,98,0
4,78,98,128
4,79,103,8
4,74,106,128
4,71,103,4
4,67,99,128
4,69,105,120
4,71,96,112
4,72,105,116
4,74,93,120
4,76,96,116
4,74,103,106
4,72,93,124
4,71,105,0
4,69,99,0
4,71,99,128
4,67,99,126
4,66,93,122
4,67,99,120
4,69,103,122
4,62,99,0
4,66,96,128
4,69,99,122
4,72,103,120
4,71,99,124
4,69,103,122
4,71,99,122
4,67,99,122
4,69,99,0
4,71,99,128
4,74,103,0
4,72,99,4
4,72,96,38
4,76,99,128
4,74,93,110
4,74,99,24
4,79,103,128
4,78,99,120
4,79,103,114
4,74,96,4
4,71,103,0
4,67,99,128
4,69,103,116
4,71,99,116
4,64,93,116
4,74,96,0
4,72,98,128
4,71,99,0
4,69,103,128
4,67,93,124
4,62,99,120
4,67,91,8
4,66,96,128
4,67,103,108
4,71,103,2
4,74,103,128
4,79,103,2
4,74,99,128
4,71,105,2
4,67,106,128
4,71,103,126
4,74,105,120
4,79,103,108
4,62,108,3184
4,64,108,0
4,66,108,128
4,69,108,120
4,67,108,108
4,69,108,108
4,72,108,114
4,71,108,6
4,72,108,128
4,69,108,126
4,66,108,102
4,62,108,2
4,66,108,128
4,69,108,104
4,72,108,122
4,71,108,106
4,69,108,8
4,71,108,128
4,67,108,2
4,69,108,128
4,71,108,120
4,74,108,106
4,72,108,104
4,72,103,26
4,76,108,128
4,74,108,108
4,74,108,30
4,79,108,128
4,78,108,126
4,79,108,0
4,74,108,128
4,71,108,100
4,67,108,122
4,69,108,110
4,71,108,112
4,64,108,112
4,74,108,122
4,72,108,124
4,71,108,20
4,69,108,128
4,67,108,118
4,62,108,112
4,67,108,118
4,66,108,124
4,67,108,114
4,71,108,120
4,69,108,102
4,71,108,120
4,74,108,120
4,72,108,118
4,72,108,32
4,76,108,128
4,74,108,4
4,74,108,36
4,79,99,128
4,78,106,112
4,79,108,4
4,74,103,128
4,71,108,110
4,67,108,120
4,69,108,118
4,71,106,118
4,72,108,116
4,74,108,116
4,76,108,124
4,74,108,112
4,72,108,124
4,71,103,120
4,69,108,122
4,71,108,126
4,67,108,116
4,66,108,112
4,67,106,124
4,69,108,104
4,62,108,126
4,66,107,118
4,69,108,114
4,72,108,118
4,71,108,116
4,69,108,112
4,71,108,120
4,67,108,122
4,69,108,124
4,71,108,124
4,74,108,106
4,72,108,118
4,72,108,40
4,76,108,128
4,74,108,108
4,74,108,30
4,79,106,128
4,78,102,122
4,79,108,118
4,74,108,124
4,71,108,100
4,67,108,110
4,69,108,114
4,71,108,112
4,64,108,104
4,74,106,0
4,72,103,128
4,71,108,116
4,69,108,124
4,67,108,112
4,62,108,124
4,67,108,114
4,66,106,112
4,67,108,110
4,62,108,3172
4,64,108,128
4,66,108,126
4,69,108,112
4,67,108,116
4,69,108,116
4,72,108,118
4,71,108,4
4,72,108,128
4,69,108,124
4,66,108,110
4,62,108,124
4,66,108,122
4,69,108,110
4,72,108,124
4,71,108,118
4,69,108,104
4,71,108,122
4,67,108,4
4,69,108,128
4,71,108,106
4,74,108,118
4,72,108,112
4,72,108,26
4,76,108,128
4,74,108,112
4,74,108,30
4,79,108,128
4,78,108,120
4,79,108,0
4,74,108,128
4,71,108,108
4,67,108,126
4,69,108,114
4,71,108,110
4,64,108,112
4,74,108,108
4,72,108,122
4,71,108,114
4,69,108,116
4,67,108,112
4,62,108,108
4,67,108,114
4,66,108,112
4,67,108,108
4,71,108,122
4,69,108,122
4,71,108,112
4,74,108,120
4,72,108,124
4,72,108,32
4,76,108,128
4,74,108,0
4,74,108,40
4,79,108,128
4,78,108,118
4,79,108,6
4,74,108,128
4,71,108,110
4,67,108,110
4,69,108,120
4,71,108,116
4,72,103,104
4,74,108,126
4,76,108,116
4,74,108,110
4,72,106,124
4,71,108,118
4,69,108,120
4,71,108,118
4,67,108,118
4,66,103,124
4,67,108,122
4,69,108,114
4,62,108,120
4,66,108,120
4,69,108,124
4,72,108,114
4,71,108,120
4,69,108,6
