track,note,velocity,time
3,68,108,6234
3,68,0,32
3,68,112,64
3,73,104,96
3,68,0,12
3,77,84,84
3,73,0,19
3,77,0,116
3,77,86,58
3,75,63,192
3,77,0,15
3,73,60,32
3,75,0,11
3,73,0,75
3,70,106,731
3,73,102,96
3,70,0,10
3,77,82,181
3,73,0,26
3,75,86,167
3,77,0,13
3,75,0,182
3,72,98,862
3,72,0,26
3,72,96,69
3,72,0,26
3,72,94,70
3,72,0,29
3,72,90,67
3,72,0,29
3,72,98,67
3,72,0,27
3,72,92,69
3,73,96,193
3,72,0,24
3,73,0,224
3,70,94,519
3,70,0,25
3,70,88,71
3,70,0,190
3,73,96,2
3,77,86,96
3,73,0,19
3,75,76,173
3,77,0,10
3,75,0,231
3,72,110,911
3,72,0,86
3,72,98,106
3,72,0,30
3,72,98,66
3,72,0,24
3,72,98,73
3,72,0,187
3,73,88,4
3,73,0,265
3,70,100,600
3,73,94,96
3,70,0,20
3,73,0,58
3,73,96,113
3,77,82,96
3,73,0,18
3,75,94,79
3,77,0,26
3,75,0,358
3,72,92,672
3,72,0,33
3,72,94,63
3,72,0,28
3,72,90,68
3,72,0,29
3,72,104,66
3,72,0,71
3,72,96,121
3,73,71,192
3,72,0,16
3,73,0,211
3,70,88,542
3,70,0,31
3,70,108,64
3,70,0,28
3,70,108,68
3,70,0,24
3,70,116,73
3,73,104,95
3,70,0,2
3,77,80,94
3,73,0,21
3,75,88,75
3,77,0,19
3,75,0,276
3,72,106,858
3,72,0,93
3,72,116,99
3,72,0,115
3,73,90,77
3,73,0,204
3,70,110,851
3,73,98,96
3,70,0,17
3,73,0,88
3,75,90,87
3,77,86,96
3,75,0,24
3,75,100,72
3,77,0,21
3,75,0,218
3,72,102,817
3,72,0,38
3,72,102,58
3,72,0,38
3,72,105,58
3,72,0,47
3,72,112,49
3,72,0,53
3,72,116,138
3,73,100,193
3,72,0,18
3,73,0,24
3,73,110,150
3,68,94,192
3,73,0,1
3,68,0,109
3,70,110,371
3,70,0,89
3,73,96,7
3,73,0,118
3,77,90,73
3,77,0,158
3,75,108,35
3,75,0,280
3,75,120,871
3,75,0,28
3,75,116,68
3,75,0,32
3,75,119,64
3,75,0,109
3,77,108,180
3,77,0,39
3,77,98,153
3,77,0,30
3,77,112,67
3,75,100,191
3,77,0,11
3,73,98,85
3,75,0,11
3,73,0,65
3,73,104,308
3,73,0,26
3,73,98,71
3,73,0,20
3,73,114,75
3,77,84,97
3,73,0,23
3,75,102,167
3,77,0,1
3,75,0,268
3,73,114,883
3,73,0,28
3,73,108,68
3,73,0,32
3,73,112,64
3,73,0,37
3,73,114,155
3,75,98,192
3,73,0,22
3,75,0,86
3,72,121,661
3,73,98,95
3,72,0,4
3,73,0,82
3,75,104,11
3,75,0,114
3,73,110,77
3,72,76,96
3,73,0,6
3,72,0,39
3,75,114,52
3,75,0,192
3,73,92,0
3,73,0,96
3,68,108,863
3,73,100,96
3,68,0,9
3,73,0,76
3,75,117,12
3,75,0,78
3,77,98,209
3,77,0,85
3,77,86,108
3,77,0,20
3,77,117,77
3,75,96,191
3,77,0,13
3,73,88,82
3,75,0,17
3,73,0,95
3,77,106,752
3,77,0,38
3,78,106,61
3,78,0,93
3,78,104,1
3,78,104,191
3,78,0,161
3,77,98,30
3,78,0,6
3,75,98,186
3,77,0,10
3,75,0,163
3,72,110,405
3,72,0,29
3,72,112,67
3,72,0,33
3,72,104,63
3,73,84,96
3,72,0,12
3,75,86,84
3,73,0,26
3,73,88,165
3,75,0,39
3,72,84,153
3,73,0,7
3,73,84,185
3,72,0,11
3,73,0,107
3,77,121,266
3,75,63,192
3,77,0,22
3,73,88,169
3,75,0,7
3,73,0,214
3,73,106,3140
3,73,0,29
3,73,104,67
3,73,0,30
3,73,112,66
3,75,86,96
3,73,0,20
3,75,0,69
3,77,96,7
3,77,0,33
3,77,88,63
3,75,88,47
3,77,0,15
3,73,90,33
3,75,0,25
3,73,0,42
3,73,119,318
3,73,0,92
3,75,100,4
3,77,112,97
3,75,0,9
3,75,104,87
3,77,0,2
3,75,0,212
3,72,88,841
3,72,0,38
3,72,84,58
3,72,0,38
3,72,84,58
3,72,0,36
3,72,86,61
3,72,0,33
3,72,98,62
3,72,0,39
3,72,110,57
3,73,98,192
3,72,0,9
3,73,0,36
3,73,104,148
3,68,76,95
3,73,0,5
3,68,0,63
3,70,115,508
3,72,82,96
3,70,0,18
3,73,98,78
3,72,0,18
3,77,90,78
3,73,0,19
3,77,0,103
3,75,106,71
3,75,0,126
3,72,90,929
3,72,0,50
3,72,86,47
3,72,0,80
3,72,90,111
3,72,0,94
3,72,98,98
3,73,84,192
3,72,0,23
3,73,0,78
3,70,106,764
3,73,104,97
3,70,0,7
3,73,0,89
3,77,90,94
3,77,0,116
3,75,104,76
3,75,0,209
3,72,104,848
3,72,0,28
3,72,104,68
3,72,0,117
3,72,94,171
3,72,0,20
3,72,115,77
3,73,90,191
3,72,0,8
3,73,0,112
3,70,117,743
3,70,0,30
3,70,119,67
3,73,90,96
3,70,0,15
3,77,86,81
3,73,0,22
3,77,0,68
3,75,102,102
3,75,0,175
3,72,104,977
3,72,0,101
3,72,100,91
3,72,0,110
3,73,104,82
3,73,0,163
3,70,104,892
3,70,0,70
3,73,102,26
3,73,0,137
3,77,96,55
3,77,0,180
3,75,98,11
3,75,0,151
3,72,99,906
3,72,0,47
3,72,107,51
3,72,0,143
3,72,90,48
3,72,0,47
3,72,101,50
3,72,0,47
3,72,101,48
3,72,0,143
3,73,101,49
3,73,0,143
3,73,121,51
3,73,0,143
3,68,109,51
3,68,0,239
3,70,116,236
3,70,0,72
3,73,110,25
3,73,0,88
3,77,80,103
3,77,0,134
3,75,100,59
3,75,0,150
3,75,108,1002
3,75,0,55
3,75,112,41
3,75,0,38
3,75,117,58
3,75,0,52
3,77,110,236
3,77,0,71
3,77,98,121
3,77,0,27
3,77,114,69
3,75,86,191
3,77,0,16
3,73,90,81
3,75,0,17
3,73,0,62
3,73,82,306
3,73,0,30
3,73,74,65
3,73,0,24
3,73,104,72
3,77,98,97
3,73,0,31
3,77,0,158
3,75,102,2
3,75,0,121
3,73,119,1031
3,73,0,26
3,73,115,70
3,73,0,31
3,73,114,65
3,73,0,26
3,73,115,165
3,75,104,192
3,73,0,11
3,75,0,63
3,72,118,694
3,73,88,96
3,72,0,8
3,75,102,89
3,73,0,18
3,75,0,84
3,73,100,89
3,72,74,96
3,73,0,13
3,75,92,83
3,72,0,17
3,73,71,175
3,75,0,13
3,73,0,50
3,68,108,897
3,73,100,96
3,68,0,9
3,73,0,76
3,75,117,12
3,75,0,78
3,77,98,209
3,77,0,85
3,77,86,108
3,77,0,20
3,77,117,77
3,75,96,191
3,77,0,13
3,73,88,82
3,75,0,17
3,73,0,95
3,77,116,752
3,77,0,38
3,78,117,61
3,78,0,93
3,78,110,1
3,78,0,162
3,78,101,29
3,77,108,191
3,78,0,6
3,77,0,180
3,75,111,1
3,75,0,146
3,72,111,437
3,72,0,29
3,72,111,67
3,72,0,33
3,72,104,63
3,73,84,96
3,72,0,12
3,75,86,84
3,73,0,26
3,73,88,165
3,75,0,39
3,72,84,153
3,73,0,7
3,73,84,185
3,72,0,11
3,73,0,107
3,77,121,266
3,75,63,192
3,77,0,22
3,73,88,169
3,75,0,7
3,73,0,214
3,72,104,8613
3,72,0,101
3,72,100,91
3,72,0,110
3,73,104,82
3,73,0,163
3,70,104,892
3,70,0,70
3,73,102,26
3,73,0,137
3,77,96,55
3,77,0,180
3,75,98,11
3,75,0,151
3,72,99,908
3,72,0,47
3,72,105,49
3,72,0,143
3,72,69,47
3,72,0,47
3,72,101,49
3,72,0,47
3,72,103,49
3,72,0,191
3,73,101,0
3,73,0,143
3,73,121,50
3,73,0,143
3,68,117,51
3,68,0,239
3,70,116,239
3,70,0,72
3,73,110,25
3,73,0,88
3,77,80,103
3,77,0,134
3,75,100,59
3,75,0,150
3,75,108,1002
3,75,0,55
3,75,112,41
3,75,0,38
3,75,117,58
3,75,0,52
3,77,110,236
3,77,0,71
3,77,98,121
3,77,0,27
3,77,114,69
3,75,86,191
3,77,0,16
3,73,90,81
3,75,0,17
3,73,0,62
3,73,82,306
3,73,0,30
3,73,74,65
3,73,0,24
3,73,104,72
3,77,98,97
3,73,0,31
3,77,0,158
3,75,102,2
3,75,0,121
3,73,119,1031
3,73,0,26
3,73,115,70
3,73,0,31
3,73,114,65
3,73,0,26
3,73,115,165
3,75,104,192
3,73,0,11
3,75,0,63
3,72,118,694
3,73,88,96
3,72,0,22
3,75,102,75
3,73,0,18
3,75,0,84
3,73,100,89
3,72,74,96
3,73,0,13
3,75,92,83
3,72,0,17
3,73,71,175
3,75,0,13
3,73,0,50
3,68,108,897
3,73,100,96
3,68,0,9
3,73,0,76
3,75,117,12
3,75,0,78
3,77,98,209
3,77,0,85
3,77,86,108
3,77,0,20
3,77,117,77
3,75,96,191
3,77,0,13
3,73,88,82
3,75,0,17
3,73,0,95
3,77,106,752
3,77,0,38
3,77,106,59
3,78,104,96
3,77,0,12
3,78,0,150
3,78,104,29
3,77,98,191
3,78,0,6
3,75,98,186
3,77,0,10
3,75,0,163
3,72,110,405
3,72,0,29
3,72,112,67
3,72,0,33
3,72,104,63
3,73,84,96
3,72,0,12
3,75,86,84
3,73,0,26
3,73,88,165
3,75,0,39
3,72,84,153
3,73,0,7
3,73,84,185
3,72,0,11
3,73,0,107
3,77,121,266
3,75,63,192
3,77,0,22
3,73,88,169
3,75,0,7
3,73,0,214
3,73,110,1988
3,72,100,96
3,73,0,7
3,72,0,165
3,73,92,115
3,77,94,97
3,73,0,29
3,75,98,259
3,77,0,12
3,73,94,85
3,75,0,17
3,73,0,79
3,73,97,2114
3,73,0,90
3,72,100,3
3,72,0,172
3,73,92,115
3,77,94,97
3,73,0,29
3,75,98,259
3,77,0,12
3,73,94,85
3,75,0,17
3,73,0,79
4,44,32,188
4,44,0,2
4,44,48,22
4,44,0,2
4,44,64,22
4,44,0,2
4,44,80,22
4,44,0,2
4,42,96,22
4,42,0,2
4,47,80,94
4,47,0,2
4,44,64,94
4,43,96,0
4,43,0,2
4,44,0,0
4,76,96,94
4,76,0,2
4,42,96,94
4,35,106,0
4,69,56,0
4,69,0,2
4,35,0,0
4,42,0,0
4,42,48,94
4,69,56,0
4,69,0,2
4,42,0,0
4,42,48,94
4,69,73,0
4,69,0,2
4,42,0,0
4,42,80,94
4,69,73,0
4,69,0,2
4,42,0,0
4,42,96,94
4,35,106,0
4,69,56,0
4,69,0,2
4,35,0,0
4,42,0,0
4,42,48,94
4,69,56,0
4,69,0,2
4,42,0,0
4,42,48,94
4,82,96,0
4,37,115,0
4,69,73,0
4,69,0,2
4,42,0,0
4,82,0,0
4,37,0,0
4,42,48,94
4,69,73,0
4,69,0,2
4,42,0,0
4,42,48,94
4,35,106,0
4,69,56,0
4,69,0,2
4,35,0,0
4,42,0,0
4,42,80,94
4,69,56,0
4,69,0,2
4,42,0,0
4,42,48,94
4,69,73,0
4,69,0,2
4,42,0,0
4,42,80,94
4,69,73,0
4,69,0,2
4,42,0,0
4,42,80,94
4,35,106,0
4,69,56,0
4,69,0,2
4,35,0,0
4,42,0,0
4,42,48,94
4,69,56,0
4,69,0,2
4,42,0,0
4,42,48,94
4,82,96,0
4,37,115,0
4,69,73,0
4,69,0,2
4,42,0,0
4,82,0,0
4,37,0,0
4,42,48,94
4,69,73,0
4,69,0,2
4,42,0,0
4,42,96,94
4,35,106,0
4,69,56,0
4,69,0,2
4,35,0,0
4,42,0,0
4,42,48,94
4,69,56,0
4,69,0,2
4,42,0,0
4,42,48,94
4,69,73,0
4,69,0,2
4,42,0,0
4,42,80,94
4,69,73,0
4,69,0,2
4,42,0,0
4,42,96,94
4,35,106,0
4,69,56,0
4,69,0,2
4,35,0,0
4,42,0,0
4,42,48,94
4,69,56,0
4,69,0,2
4,42,0,0
4,42,48,94
4,82,96,0
4,37,115,0
4,69,73,0
4,69,0,2
4,42,0,0
4,82,0,0
4,37,0,0
4,42,48,94
4,69,73,0
4,69,0,2
4,42,0,0
4,42,48,94
4,35,106,0
4,69,56,0
4,69,0,2
4,35,0,0
4,42,0,0
4,42,80,94
4,69,56,0
4,69,0,2
4,42,0,0
4,42,48,94
4,69,73,0
4,69,0,2
4,42,0,0
4,42,80,94
4,50,96,0
4,69,73,0
4,69,0,2
4,50,0,0
4,42,0,0
4,42,80,94
4,35,106,0
4,69,56,0
4,69,0,2
4,35,0,0
4,42,0,0
4,42,48,94
4,47,96,0
4,35,90,0
4,69,56,0
4,69,0,2
4,42,0,0
4,47,0,0
4,35,0,0
4,42,48,94
4,43,96,0
4,82,96,0
4,37,115,0
4,35,106,0
4,69,73,0
4,69,0,2
4,43,0,0
4,82,0,0
4,42,0,0
4,35,0,0
4,37,0,0
4,42,48,94
4,44,64,0
4,69,73,0
4,69,0,2
4,44,0,0
4,42,0,0
4,42,96,94
4,35,106,0
4,69,56,0
4,69,0,2
4,35,0,0
4,42,0,0
4,42,48,94
4,69,56,0
4,69,0,2
4,42,0,0
4,42,48,94
4,69,73,0
4,69,0,2
4,42,0,0
4,42,80,94
4,69,73,0
4,69,0,2
4,42,0,0
4,42,96,94
4,35,106,0
4,69,56,0
4,69,0,2
4,35,0,0
4,42,0,0
4,42,48,94
4,69,56,0
4,69,0,2
4,42,0,0
4,42,48,94
4,82,96,0
4,37,115,0
4,69,73,0
4,69,0,2
4,42,0,0
4,82,0,0
4,37,0,0
4,42,48,94
4,69,73,0
4,69,0,2
4,42,0,0
4,42,48,94
4,35,106,0
4,69,56,0
4,69,0,2
4,35,0,0
4,42,0,0
4,42,80,94
4,69,56,0
4,69,0,2
4,42,0,0
4,42,48,94
4,69,73,0
4,69,0,2
4,42,0,0
4,42,80,94
4,69,73,0
4,69,0,2
4,42,0,0
4,42,80,94
4,35,106,0
4,69,56,0
4,69,0,2
4,35,0,0
4,42,0,0
4,42,48,94
4,69,56,0
4,69,0,2
4,42,0,0
4,42,48,94
4,82,96,0
4,37,115,0
4,69,73,0
4,69,0,2
4,42,0,0
4,82,0,0
4,37,0,0
4,42,48,94
4,69,73,0
4,69,0,2
4,42,0,0
4,42,96,94
4,35,106,0
4,69,56,0
4,69,0,2
4,35,0,0
4,42,0,0
4,42,48,94
4,69,56,0
4,69,0,2
4,42,0,0
4,42,48,94
4,69,73,0
4,69,0,2
4,42,0,0
4,42,80,94
4,69,73,0
4,69,0,2
4,42,0,0
4,42,96,94
4,35,106,0
4,69,56,0
4,69,0,2
4,35,0,0
4,42,0,0
4,42,48,94
4,69,56,0
4,69,0,2
4,42,0,0
4,42,48,94
4,82,96,0
4,37,115,0
4,69,73,0
4,69,0,2
4,42,0,0
4,82,0,0
4,37,0,0
4,42,48,94
4,69,73,0
4,69,0,2
4,42,0,0
4,42,48,94
4,35,106,0
4,69,56,0
4,69,0,2
4,35,0,0
4,42,0,0
4,42,80,94
4,69,56,0
4,69,0,2
4,42,0,0
4,42,48,94
4,69,73,0
4,69,0,2
4,42,0,0
4,42,80,94
4,50,96,0
4,69,73,0
4,69,0,2
4,50,0,0
4,42,0,0
4,42,80,94
4,35,106,0
4,69,56,0
4,69,0,2
4,35,0,0
4,42,0,0
4,42,48,94
4,47,96,0
4,35,90,0
4,69,56,0
4,69,0,2
4,42,0,0
4,47,0,0
4,35,0,0
4,42,48,94
4,43,96,0
4,82,96,0
4,37,115,0
4,35,106,0
4,69,73,0
4,69,0,2
4,43,0,0
4,82,0,0
4,42,0,0
4,35,0,0
4,37,0,0
4,42,48,94
4,44,64,0
4,69,73,0
4,69,0,2
4,44,0,0
4,42,0,0
4,42,96,94
4,35,106,0
4,69,56,0
4,69,0,2
4,35,0,0
4,42,0,0
4,42,48,94
4,69,56,0
4,69,0,2
4,42,0,0
4,42,48,94
4,69,73,0
4,69,0,2
4,42,0,0
4,42,80,94
4,69,73,0
