track,note,velocity,time
1.0,81.0,92.0,2656.0
1.0,69.0,92.0,0.0
1.0,79.0,68.0,4.0
1.0,67.0,68.0,0.0
1.0,81.0,94.0,8.0
1.0,69.0,94.0,4.0
1.0,79.0,79.0,8.0
1.0,67.0,79.0,0.0
1.0,77.0,75.0,92.0
1.0,65.0,75.0,0.0
1.0,76.0,87.0,88.0
1.0,64.0,87.0,0.0
1.0,74.0,68.0,0.0
1.0,62.0,68.0,0.0
1.0,73.0,84.0,0.0
1.0,61.0,84.0,8.0
1.0,62.0,76.0,8.0
1.0,74.0,76.0,4.0
1.0,57.0,84.0,4012.0
1.0,45.0,84.0,0.0
1.0,55.0,79.0,12.0
1.0,43.0,79.0,0.0
1.0,57.0,82.0,0.0
1.0,45.0,82.0,4.0
1.0,55.0,84.0,4.0
1.0,43.0,84.0,0.0
1.0,53.0,66.0,4.0
1.0,41.0,66.0,0.0
1.0,52.0,64.0,4.0
1.0,40.0,64.0,0.0
1.0,50.0,61.0,0.0
1.0,38.0,61.0,4.0
1.0,49.0,79.0,4.0
1.0,37.0,79.0,4.0
1.0,50.0,82.0,4.0
1.0,38.0,82.0,0.0
1.0,38.0,87.0,540.0
1.0,49.0,79.0,192.0
1.0,52.0,88.0,8.0
1.0,55.0,80.0,192.0
1.0,58.0,86.0,0.0
1.0,61.0,79.0,0.0
1.0,64.0,94.0,192.0
1.0,62.0,84.0,4.0
1.0,55.0,71.0,0.0
1.0,38.0,89.0,4.0
1.0,45.0,85.0,0.0
1.0,52.0,77.0,376.0
1.0,54.0,78.0,4.0
1.0,79.0,79.0,5380.0
1.0,82.0,64.0,4.0
1.0,76.0,60.0,36.0
1.0,79.0,73.0,72.0
1.0,82.0,69.0,8.0
1.0,76.0,47.0,36.0
1.0,77.0,87.0,72.0
1.0,81.0,58.0,12.0
1.0,74.0,65.0,36.0
1.0,77.0,87.0,64.0
1.0,81.0,60.0,16.0
1.0,74.0,58.0,36.0
1.0,76.0,86.0,64.0
1.0,79.0,54.0,8.0
1.0,72.0,57.0,36.0
1.0,76.0,84.0,64.0
1.0,79.0,54.0,4.0
1.0,72.0,55.0,20.0
1.0,74.0,83.0,60.0
1.0,77.0,52.0,96.0
1.0,70.0,48.0,48.0
1.0,74.0,85.0,68.0
1.0,77.0,55.0,12.0
1.0,70.0,41.0,40.0
1.0,72.0,85.0,80.0
1.0,76.0,61.0,12.0
1.0,69.0,52.0,36.0
1.0,72.0,78.0,56.0
1.0,76.0,62.0,28.0
1.0,69.0,50.0,24.0
1.0,70.0,70.0,56.0
1.0,74.0,74.0,4.0
1.0,67.0,56.0,36.0
1.0,45.0,70.0,8.0
1.0,69.0,70.0,4.0
1.0,49.0,69.0,4.0
1.0,73.0,69.0,4.0
1.0,37.0,57.0,32.0
1.0,38.0,78.0,92.0
1.0,58.0,83.0,380.0
1.0,55.0,58.0,4.0
1.0,49.0,79.0,0.0
1.0,61.0,87.0,4.0
1.0,57.0,75.0,196.0
1.0,61.0,91.0,12.0
1.0,64.0,90.0,8.0
1.0,67.0,83.0,16.0
1.0,65.0,95.0,16.0
1.0,64.0,82.0,4.0
1.0,62.0,88.0,4.0
1.0,38.0,83.0,0.0
1.0,45.0,76.0,0.0
1.0,65.0,88.0,4.0
1.0,74.0,82.0,204.0
1.0,69.0,70.0,8.0
1.0,76.0,89.0,4.0
1.0,69.0,66.0,12.0
1.0,77.0,86.0,96.0
1.0,69.0,65.0,12.0
1.0,74.0,82.0,4.0
1.0,69.0,69.0,16.0
1.0,76.0,92.0,96.0
1.0,69.0,62.0,8.0
1.0,77.0,83.0,96.0
1.0,69.0,69.0,12.0
1.0,79.0,83.0,96.0
1.0,69.0,66.0,4.0
1.0,76.0,87.0,0.0
1.0,69.0,70.0,12.0
1.0,62.0,77.0,100.0
1.0,74.0,85.0,0.0
1.0,69.0,81.0,28.0
1.0,70.0,89.0,192.0
1.0,67.0,73.0,8.0
1.0,69.0,85.0,192.0
1.0,65.0,80.0,180.0
1.0,67.0,77.0,180.0
1.0,64.0,81.0,0.0
1.0,57.0,73.0,8.0
1.0,65.0,83.0,0.0
1.0,62.0,86.0,176.0
1.0,67.0,86.0,180.0
1.0,64.0,82.0,188.0
1.0,65.0,86.0,0.0
1.0,62.0,86.0,188.0
1.0,64.0,82.0,180.0
1.0,61.0,80.0,180.0
1.0,50.0,83.0,8.0
1.0,53.0,72.0,4.0
1.0,62.0,104.0,0.0
1.0,50.0,107.0,1528.0
1.0,38.0,100.0,0.0
1.0,70.0,117.0,380.0
1.0,65.0,114.0,0.0
1.0,48.0,108.0,8.0
1.0,36.0,98.0,0.0
1.0,64.0,116.0,368.0
1.0,69.0,115.0,4.0
1.0,34.0,98.0,12.0
1.0,46.0,107.0,0.0
1.0,67.0,117.0,364.0
1.0,62.0,117.0,4.0
1.0,69.0,103.0,0.0
1.0,45.0,108.0,8.0
1.0,33.0,103.0,0.0
1.0,61.0,105.0,0.0
1.0,38.0,104.0,1520.0
1.0,50.0,101.0,4.0
1.0,70.0,116.0,384.0
1.0,65.0,113.0,0.0
1.0,48.0,103.0,380.0
1.0,36.0,95.0,4.0
1.0,69.0,113.0,368.0
1.0,64.0,113.0,4.0
1.0,46.0,101.0,8.0
1.0,34.0,102.0,0.0
1.0,62.0,118.0,368.0
1.0,67.0,115.0,4.0
1.0,33.0,100.0,4.0
1.0,45.0,112.0,4.0
1.0,61.0,108.0,36.0
1.0,69.0,107.0,0.0
1.0,62.0,112.0,28.0
1.0,65.0,112.0,4.0
1.0,71.0,114.0,4.0
1.0,44.0,110.0,8.0
1.0,32.0,113.0,0.0
1.0,64.0,110.0,0.0
1.0,69.0,100.0,0.0
1.0,73.0,112.0,0.0
1.0,31.0,101.0,8.0
1.0,43.0,106.0,0.0
1.0,79.0,108.0,0.0
1.0,77.0,116.0,184.0
1.0,76.0,113.0,4.0
1.0,74.0,111.0,188.0
1.0,70.0,111.0,4.0
1.0,76.0,104.0,4.0
1.0,55.0,104.0,4.0
1.0,61.0,99.0,188.0
1.0,70.0,104.0,0.0
1.0,76.0,103.0,192.0
1.0,43.0,100.0,8.0
1.0,55.0,108.0,0.0
1.0,81.0,112.0,4.0
1.0,73.0,111.0,0.0
1.0,81.0,106.0,0.0
1.0,74.0,108.0,4.0
1.0,41.0,103.0,8.0
1.0,53.0,105.0,0.0
1.0,46.0,109.0,0.0
1.0,34.0,99.0,0.0
1.0,79.0,104.0,0.0
1.0,67.0,101.0,0.0
1.0,45.0,108.0,1148.0
1.0,33.0,98.0,0.0
1.0,31.0,101.0,4.0
1.0,43.0,105.0,0.0
1.0,33.0,104.0,8.0
1.0,45.0,120.0,4.0
1.0,79.0,110.0,0.0
1.0,67.0,96.0,0.0
1.0,73.0,107.0,4.0
1.0,40.0,107.0,1140.0
1.0,52.0,114.0,4.0
1.0,41.0,104.0,16.0
1.0,53.0,111.0,0.0
1.0,50.0,115.0,24.0
1.0,38.0,115.0,0.0
1.0,52.0,112.0,380.0
1.0,40.0,110.0,4.0
1.0,37.0,109.0,4.0
1.0,49.0,113.0,0.0
1.0,50.0,114.0,384.0
1.0,38.0,113.0,0.0
1.0,47.0,111.0,36.0
1.0,35.0,107.0,4.0
1.0,49.0,111.0,304.0
1.0,37.0,109.0,4.0
1.0,33.0,104.0,52.0
1.0,45.0,109.0,4.0
1.0,34.0,101.0,60.0
1.0,46.0,108.0,4.0
1.0,44.0,104.0,380.0
1.0,32.0,97.0,0.0
1.0,33.0,99.0,4.0
1.0,45.0,106.0,4.0
1.0,43.0,111.0,360.0
1.0,31.0,102.0,4.0
1.0,82.0,69.0,16.0
1.0,85.0,117.0,0.0
1.0,81.0,117.0,0.0
1.0,76.0,113.0,0.0
1.0,41.0,115.0,0.0
1.0,29.0,113.0,4.0
1.0,74.0,116.0,0.0
1.0,86.0,116.0,4.0
1.0,38.0,114.0,4.0
1.0,50.0,117.0,0.0
1.0,77.0,116.0,0.0
1.0,74.0,109.0,4.0
1.0,76.0,116.0,756.0
1.0,45.0,100.0,0.0
1.0,33.0,100.0,0.0
1.0,73.0,112.0,736.0
1.0,38.0,111.0,0.0
1.0,55.0,95.0,0.0
1.0,74.0,108.0,0.0
1.0,67.0,102.0,0.0
1.0,53.0,101.0,48.0
1.0,65.0,112.0,4.0
1.0,52.0,104.0,380.0
1.0,64.0,109.0,0.0
1.0,53.0,95.0,376.0
1.0,65.0,112.0,0.0
2.0,73.0,84.0,4172.0
2.0,74.0,76.0,192.0
2.0,61.0,79.0,2276.0
2.0,62.0,88.0,12.0
2.0,49.0,79.0,1672.0
2.0,50.0,82.0,184.0
2.0,50.0,87.0,1100.0
2.0,70.0,86.0,208.0
2.0,73.0,79.0,200.0
2.0,50.0,70.0,1192.0
2.0,57.0,66.0,4.0
2.0,61.0,69.0,324.0
2.0,61.0,54.0,288.0
2.0,61.0,50.0,284.0
2.0,64.0,71.0,652.0
2.0,64.0,58.0,280.0
2.0,64.0,62.0,272.0
2.0,67.0,59.0,648.0
2.0,67.0,54.0,276.0
2.0,67.0,47.0,264.0
2.0,64.0,60.0,1424.0
2.0,64.0,47.0,268.0
2.0,62.0,65.0,268.0
2.0,62.0,58.0,260.0
2.0,60.0,57.0,244.0
2.0,60.0,55.0,260.0
2.0,58.0,48.0,248.0
2.0,58.0,41.0,260.0
2.0,57.0,52.0,272.0
2.0,57.0,50.0,248.0
2.0,55.0,56.0,248.0
2.0,49.0,57.0,208.0
2.0,50.0,78.0,140.0
2.0,57.0,76.0,1588.0
2.0,50.0,83.0,4.0
2.0,57.0,70.0,24.0
2.0,62.0,77.0,1536.0
2.0,57.0,73.0,24.0
2.0,53.0,72.0,1536.0
2.0,50.0,83.0,4.0
2.0,62.0,79.0,8.0
2.0,60.0,81.0,372.0
2.0,58.0,69.0,380.0
2.0,57.0,63.0,8.0
2.0,50.0,86.0,8.0
2.0,48.0,80.0,8.0
2.0,46.0,86.0,0.0
2.0,45.0,77.0,772.0
2.0,62.0,87.0,104.0
2.0,60.0,88.0,4.0
2.0,58.0,71.0,24.0
2.0,57.0,58.0,384.0
2.0,50.0,86.0,384.0
2.0,48.0,82.0,16.0
2.0,46.0,79.0,16.0
2.0,45.0,76.0,756.0
2.0,44.0,91.0,760.0
2.0,43.0,74.0,24.0
2.0,55.0,79.0,796.0
2.0,61.0,85.0,0.0
2.0,55.0,82.0,120.0
2.0,61.0,86.0,8.0
2.0,55.0,99.0,1092.0
2.0,53.0,90.0,780.0
2.0,58.0,91.0,760.0
2.0,57.0,79.0,8.0
2.0,55.0,88.0,192.0
2.0,57.0,82.0,8.0
2.0,52.0,78.0,1152.0
2.0,53.0,72.0,376.0
2.0,50.0,82.0,24.0
2.0,52.0,67.0,388.0
2.0,49.0,81.0,372.0
2.0,50.0,70.0,380.0
2.0,47.0,63.0,368.0
2.0,49.0,75.0,372.0
2.0,45.0,74.0,376.0
2.0,46.0,75.0,380.0
2.0,44.0,72.0,0.0
2.0,45.0,65.0,20.0
2.0,43.0,73.0,380.0
2.0,41.0,95.0,368.0
2.0,50.0,91.0,28.0
2.0,45.0,82.0,768.0
2.0,38.0,90.0,24.0
3.0,81.0,92.0,2612.0
3.0,79.0,68.0,4.0
3.0,81.0,94.0,12.0
3.0,79.0,79.0,8.0
3.0,77.0,75.0,96.0
3.0,76.0,87.0,92.0
3.0,74.0,68.0,0.0
3.0,69.0,91.0,1544.0
3.0,67.0,74.0,16.0
3.0,69.0,85.0,4.0
3.0,64.0,81.0,12.0
3.0,65.0,82.0,16.0
3.0,57.0,84.0,1756.0
3.0,55.0,79.0,16.0
3.0,57.0,82.0,4.0
3.0,55.0,84.0,956.0
3.0,53.0,66.0,4.0
3.0,52.0,64.0,8.0
3.0,50.0,61.0,12.0
3.0,61.0,79.0,1748.0
3.0,64.0,88.0,8.0
3.0,67.0,80.0,20.0
3.0,76.0,94.0,492.0
3.0,67.0,71.0,44.0
3.0,74.0,84.0,0.0
3.0,64.0,77.0,384.0
3.0,66.0,78.0,380.0
3.0,62.0,74.0,200.0
3.0,64.0,72.0,32.0
3.0,62.0,82.0,200.0
3.0,64.0,69.0,28.0
3.0,62.0,86.0,200.0
3.0,64.0,60.0,36.0
3.0,62.0,84.0,184.0
3.0,64.0,76.0,8.0
3.0,65.0,87.0,8.0
3.0,67.0,64.0,28.0
3.0,65.0,87.0,192.0
3.0,67.0,62.0,24.0
3.0,65.0,89.0,192.0
3.0,67.0,64.0,36.0
3.0,65.0,89.0,196.0
3.0,67.0,76.0,4.0
3.0,69.0,84.0,80.0
3.0,70.0,72.0,8.0
3.0,69.0,85.0,192.0
3.0,70.0,75.0,20.0
3.0,69.0,81.0,200.0
3.0,70.0,74.0,40.0
3.0,69.0,87.0,204.0
3.0,67.0,79.0,272.0
3.0,70.0,64.0,32.0
3.0,67.0,73.0,196.0
3.0,70.0,69.0,36.0
3.0,65.0,87.0,192.0
3.0,69.0,58.0,44.0
3.0,65.0,87.0,196.0
3.0,69.0,60.0,44.0
3.0,64.0,86.0,204.0
3.0,67.0,54.0,32.0
3.0,64.0,84.0,196.0
3.0,67.0,54.0,36.0
3.0,62.0,83.0,184.0
3.0,65.0,52.0,24.0
3.0,62.0,85.0,208.0
3.0,65.0,55.0,40.0
3.0,60.0,85.0,204.0
3.0,64.0,61.0,40.0
3.0,60.0,78.0,196.0
3.0,64.0,62.0,56.0
3.0,58.0,70.0,188.0
3.0,62.0,74.0,36.0
3.0,57.0,70.0,192.0
3.0,61.0,69.0,32.0
3.0,70.0,83.0,588.0
3.0,61.0,79.0,0.0
3.0,67.0,58.0,4.0
3.0,61.0,87.0,36.0
3.0,57.0,75.0,192.0
3.0,61.0,91.0,0.0
3.0,64.0,90.0,8.0
3.0,67.0,83.0,0.0
3.0,65.0,95.0,40.0
3.0,64.0,82.0,572.0
3.0,65.0,88.0,176.0
3.0,62.0,88.0,0.0
3.0,74.0,82.0,244.0
3.0,69.0,70.0,8.0
3.0,76.0,89.0,4.0
3.0,69.0,66.0,16.0
3.0,77.0,86.0,96.0
3.0,69.0,65.0,16.0
3.0,74.0,82.0,8.0
3.0,69.0,69.0,16.0
3.0,76.0,92.0,96.0
3.0,69.0,62.0,12.0
3.0,77.0,83.0,96.0
3.0,69.0,69.0,16.0
3.0,79.0,83.0,96.0
3.0,69.0,66.0,0.0
3.0,76.0,87.0,0.0
3.0,69.0,70.0,12.0
3.0,74.0,85.0,100.0
3.0,69.0,81.0,24.0
3.0,70.0,89.0,0.0
3.0,67.0,73.0,8.0
3.0,69.0,85.0,192.0
3.0,65.0,80.0,180.0
3.0,67.0,77.0,0.0
3.0,64.0,81.0,0.0
3.0,65.0,83.0,196.0
3.0,62.0,86.0,176.0
3.0,67.0,86.0,180.0
3.0,64.0,82.0,188.0
3.0,65.0,86.0,4.0
3.0,62.0,86.0,188.0
3.0,64.0,82.0,184.0
3.0,61.0,80.0,184.0
3.0,62.0,104.0,8.0
3.0,65.0,74.0,196.0
3.0,70.0,71.0,8.0
3.0,65.0,47.0,24.0
3.0,64.0,75.0,148.0
3.0,69.0,61.0,8.0
3.0,64.0,59.0,4.0
3.0,62.0,74.0,136.0
3.0,67.0,63.0,0.0
3.0,62.0,66.0,8.0
3.0,61.0,81.0,136.0
3.0,64.0,78.0,20.0
3.0,69.0,76.0,96.0
3.0,65.0,87.0,404.0
3.0,70.0,99.0,0.0
3.0,64.0,87.0,468.0
3.0,69.0,81.0,0.0
3.0,62.0,82.0,476.0
3.0,67.0,76.0,4.0
3.0,61.0,91.0,176.0
3.0,69.0,88.0,0.0
3.0,65.0,80.0,180.0
3.0,70.0,78.0,8.0
3.0,65.0,65.0,8.0
3.0,64.0,83.0,136.0
3.0,69.0,66.0,20.0
3.0,64.0,71.0,96.0
3.0,62.0,78.0,136.0
3.0,67.0,70.0,8.0
3.0,62.0,76.0,96.0
3.0,61.0,82.0,132.0
3.0,64.0,83.0,12.0
3.0,69.0,78.0,96.0
3.0,65.0,76.0,400.0
3.0,70.0,95.0,4.0
3.0,64.0,85.0,476.0
3.0,69.0,77.0,0.0
3.0,62.0,82.0,484.0
3.0,67.0,76.0,0.0
3.0,61.0,80.0,156.0
3.0,69.0,79.0,0.0
3.0,62.0,93.0,216.0
3.0,65.0,98.0,0.0
3.0,71.0,101.0,0.0
3.0,64.0,77.0,224.0
3.0,69.0,83.0,0.0
3.0,73.0,95.0,0.0
3.0,79.0,93.0,236.0
3.0,77.0,91.0,0.0
3.0,76.0,91.0,192.0
3.0,74.0,81.0,20.0
3.0,70.0,91.0,196.0
3.0,76.0,98.0,0.0
3.0,70.0,94.0,100.0
3.0,76.0,99.0,0.0
3.0,73.0,99.0,960.0
3.0,81.0,99.0,4.0
3.0,74.0,97.0,24.0
3.0,81.0,99.0,0.0
3.0,74.0,98.0,164.0
3.0,79.0,97.0,0.0
3.0,79.0,85.0,160.0
3.0,73.0,93.0,0.0
3.0,69.0,75.0,4664.0
3.0,73.0,88.0,0.0
3.0,69.0,85.0,20.0
3.0,74.0,88.0,0.0
3.0,65.0,83.0,292.0
3.0,62.0,77.0,0.0
3.0,64.0,80.0,208.0
3.0,62.0,81.0,0.0
3.0,61.0,71.0,752.0
3.0,55.0,67.0,12.0
3.0,62.0,84.0,152.0
3.0,55.0,80.0,0.0
3.0,53.0,73.0,0.0
3.0,52.0,66.0,380.0
3.0,53.0,72.0,4.0
4.0,69.0,91.0,5664.0
4.0,67.0,74.0,16.0
4.0,69.0,85.0,0.0
4.0,64.0,81.0,4.0
4.0,65.0,82.0,12.0
4.0,61.0,77.0,188.0
4.0,62.0,88.0,4.0
4.0,49.0,69.0,8036.0
4.0,49.0,54.0,284.0
4.0,49.0,50.0,284.0
4.0,52.0,71.0,652.0
4.0,52.0,58.0,280.0
4.0,52.0,62.0,272.0
4.0,55.0,59.0,648.0
4.0,55.0,54.0,272.0
4.0,55.0,47.0,264.0
4.0,52.0,60.0,1424.0
4.0,52.0,47.0,268.0
4.0,50.0,65.0,268.0
4.0,50.0,58.0,256.0
4.0,48.0,57.0,244.0
4.0,48.0,55.0,260.0
4.0,46.0,48.0,244.0
4.0,46.0,41.0,260.0
4.0,45.0,52.0,272.0
4.0,45.0,50.0,248.0
4.0,43.0,56.0,248.0
5.0,57.0,91.0,5648.0
5.0,55.0,74.0,16.0
5.0,57.0,85.0,0.0
5.0,52.0,81.0,4.0
5.0,53.0,82.0,12.0
5.0,49.0,77.0,188.0
5.0,50.0,88.0,4.0
5.0,50.0,74.0,7784.0
5.0,52.0,72.0,28.0
5.0,50.0,82.0,196.0
5.0,52.0,69.0,28.0
5.0,50.0,86.0,196.0
5.0,52.0,60.0,36.0
5.0,50.0,84.0,180.0
5.0,52.0,76.0,8.0
5.0,53.0,87.0,4.0
5.0,55.0,64.0,32.0
5.0,53.0,87.0,192.0
5.0,55.0,62.0,24.0
5.0,53.0,89.0,192.0
5.0,55.0,64.0,36.0
5.0,53.0,89.0,192.0
5.0,55.0,76.0,0.0
5.0,57.0,84.0,80.0
5.0,58.0,72.0,8.0
5.0,57.0,85.0,192.0
5.0,58.0,75.0,20.0
5.0,57.0,81.0,196.0
5.0,58.0,74.0,40.0
5.0,57.0,87.0,204.0
5.0,55.0,79.0,200.0
5.0,58.0,64.0,28.0
5.0,55.0,73.0,200.0
5.0,58.0,69.0,36.0
5.0,53.0,87.0,196.0
5.0,57.0,58.0,40.0
5.0,53.0,87.0,196.0
5.0,57.0,60.0,40.0
5.0,52.0,86.0,204.0
5.0,55.0,54.0,28.0
5.0,52.0,84.0,200.0
5.0,55.0,54.0,32.0
5.0,50.0,83.0,184.0
5.0,53.0,52.0,20.0
5.0,50.0,85.0,208.0
5.0,53.0,55.0,36.0
5.0,48.0,85.0,204.0
5.0,52.0,61.0,36.0
5.0,48.0,78.0,196.0
5.0,52.0,62.0,52.0
5.0,46.0,70.0,188.0
5.0,50.0,74.0,32.0
5.0,45.0,70.0,192.0
5.0,49.0,69.0,28.0
6.0,57.0,84.0,8700.0
6.0,45.0,84.0,0.0
6.0,55.0,79.0,12.0
6.0,43.0,79.0,4.0
6.0,57.0,82.0,4.0
6.0,45.0,82.0,0.0
6.0,55.0,84.0,0.0
6.0,43.0,84.0,4.0
6.0,53.0,66.0,0.0
6.0,41.0,66.0,4.0
6.0,52.0,64.0,4.0
6.0,40.0,64.0,4.0
6.0,50.0,61.0,0.0
6.0,38.0,61.0,0.0
6.0,49.0,79.0,4.0
6.0,37.0,79.0,0.0
6.0,50.0,82.0,0.0
6.0,38.0,82.0,4.0
6.0,38.0,87.0,476.0
6.0,49.0,79.0,192.0
6.0,52.0,88.0,4.0
6.0,55.0,80.0,0.0
6.0,58.0,86.0,0.0
6.0,61.0,79.0,0.0
6.0,64.0,94.0,192.0
6.0,55.0,71.0,12.0
6.0,62.0,84.0,0.0
6.0,45.0,85.0,4.0
6.0,38.0,89.0,0.0
6.0,52.0,77.0,0.0
6.0,54.0,78.0,8.0
6.0,45.0,70.0,9600.0
6.0,49.0,69.0,8.0
6.0,37.0,57.0,112.0
6.0,38.0,78.0,108.0
6.0,49.0,79.0,368.0
6.0,55.0,58.0,4.0
6.0,58.0,83.0,0.0
6.0,45.0,76.0,1556.0
6.0,53.0,88.0,0.0
6.0,50.0,88.0,4.0
6.0,38.0,83.0,0.0
6.0,41.0,72.0,4816.0
6.0,38.0,83.0,4.0
6.0,50.0,104.0,0.0
6.0,50.0,120.0,1520.0
6.0,38.0,115.0,12.0
6.0,36.0,111.0,8.0
6.0,48.0,118.0,0.0
6.0,46.0,114.0,4.0
6.0,34.0,114.0,0.0
6.0,33.0,97.0,0.0
6.0,45.0,109.0,4.0
6.0,38.0,113.0,1528.0
6.0,50.0,119.0,4.0
6.0,36.0,105.0,16.0
6.0,48.0,114.0,0.0
6.0,34.0,112.0,16.0
6.0,46.0,112.0,0.0
6.0,45.0,114.0,756.0
6.0,33.0,105.0,4.0
6.0,53.0,105.0,8.0
6.0,44.0,115.0,0.0
6.0,50.0,116.0,4.0
6.0,59.0,112.0,0.0
6.0,43.0,103.0,0.0
6.0,61.0,103.0,4.0
6.0,52.0,105.0,4.0
6.0,57.0,100.0,0.0
6.0,43.0,110.0,3072.0
6.0,55.0,112.0,0.0
6.0,53.0,121.0,12.0
6.0,41.0,114.0,0.0
6.0,46.0,120.0,4.0
6.0,34.0,117.0,0.0
6.0,45.0,115.0,4.0
6.0,33.0,104.0,0.0
6.0,43.0,119.0,0.0
6.0,31.0,108.0,4.0
6.0,33.0,109.0,0.0
6.0,45.0,118.0,8.0
6.0,52.0,116.0,4.0
6.0,40.0,114.0,0.0
6.0,41.0,113.0,0.0
6.0,53.0,113.0,0.0
6.0,50.0,118.0,40.0
6.0,38.0,116.0,0.0
6.0,52.0,114.0,8.0
6.0,40.0,112.0,0.0
6.0,49.0,115.0,16.0
6.0,37.0,111.0,0.0
6.0,38.0,115.0,8.0
6.0,50.0,119.0,0.0
6.0,35.0,106.0,4.0
6.0,47.0,111.0,4.0
6.0,37.0,110.0,8.0
6.0,49.0,110.0,8.0
6.0,45.0,113.0,364.0
6.0,33.0,108.0,4.0
6.0,46.0,110.0,372.0
6.0,34.0,101.0,0.0
6.0,44.0,106.0,4.0
6.0,32.0,100.0,0.0
6.0,33.0,103.0,0.0
6.0,45.0,111.0,0.0
6.0,43.0,114.0,4.0
6.0,31.0,103.0,0.0
6.0,57.0,118.0,4.0
6.0,62.0,119.0,4.0
6.0,29.0,113.0,0.0
6.0,41.0,115.0,0.0
6.0,38.0,112.0,760.0
6.0,65.0,112.0,0.0
6.0,64.0,109.0,4.0
6.0,33.0,100.0,0.0
6.0,45.0,102.0,0.0
6.0,61.0,104.0,764.0
6.0,38.0,113.0,4.0
6.0,62.0,114.0,0.0
6.0,53.0,109.0,756.0
6.0,52.0,108.0,380.0
6.0,53.0,114.0,380.0
7.0,91.0,79.0,21740.0
7.0,94.0,64.0,28.0
7.0,76.0,60.0,72.0
7.0,91.0,73.0,12.0
7.0,94.0,69.0,36.0
7.0,76.0,47.0,60.0
7.0,89.0,87.0,16.0
7.0,93.0,58.0,36.0
7.0,74.0,65.0,60.0
7.0,89.0,87.0,8.0
7.0,93.0,60.0,44.0
7.0,74.0,58.0,72.0
7.0,88.0,86.0,132.0
7.0,91.0,54.0,28.0
7.0,72.0,57.0,72.0
7.0,88.0,84.0,8.0
7.0,91.0,54.0,36.0
7.0,72.0,55.0,52.0
7.0,86.0,83.0,132.0
7.0,89.0,52.0,20.0
7.0,70.0,48.0,80.0
7.0,86.0,85.0,4.0
7.0,89.0,55.0,36.0
7.0,70.0,41.0,68.0
7.0,84.0,85.0,20.0
7.0,88.0,61.0,40.0
7.0,69.0,52.0,68.0
7.0,84.0,78.0,128.0
7.0,88.0,62.0,56.0
7.0,69.0,50.0,60.0
7.0,82.0,70.0,128.0
7.0,86.0,74.0,36.0
7.0,67.0,56.0,64.0
7.0,81.0,70.0,132.0
7.0,85.0,69.0,28.0
8.0,62.0,79.0,37084.0
8.0,65.0,74.0,84.0
8.0,70.0,71.0,8.0
8.0,65.0,47.0,20.0
8.0,60.0,81.0,52.0
8.0,64.0,75.0,92.0
8.0,69.0,61.0,8.0
8.0,64.0,59.0,0.0
8.0,58.0,69.0,40.0
8.0,62.0,74.0,84.0
8.0,67.0,63.0,96.0
8.0,62.0,66.0,8.0
8.0,57.0,63.0,8.0
8.0,61.0,81.0,96.0
8.0,64.0,78.0,16.0
8.0,69.0,76.0,96.0
8.0,50.0,86.0,4.0
8.0,65.0,87.0,376.0
8.0,70.0,99.0,4.0
8.0,48.0,80.0,12.0
8.0,64.0,87.0,380.0
8.0,69.0,81.0,0.0
8.0,46.0,86.0,0.0
8.0,62.0,82.0,376.0
8.0,67.0,76.0,0.0
8.0,61.0,91.0,176.0
8.0,69.0,88.0,0.0
8.0,45.0,77.0,0.0
8.0,62.0,87.0,88.0
8.0,65.0,80.0,92.0
8.0,70.0,78.0,8.0
8.0,65.0,65.0,8.0
8.0,60.0,88.0,4.0
8.0,64.0,83.0,96.0
8.0,69.0,66.0,20.0
8.0,64.0,71.0,96.0
8.0,58.0,71.0,20.0
8.0,62.0,78.0,96.0
8.0,67.0,70.0,8.0
8.0,62.0,76.0,96.0
8.0,57.0,58.0,32.0
8.0,61.0,82.0,92.0
8.0,64.0,83.0,12.0
8.0,69.0,78.0,96.0
8.0,50.0,86.0,16.0
8.0,65.0,76.0,372.0
8.0,70.0,95.0,0.0
8.0,48.0,82.0,12.0
8.0,64.0,85.0,384.0
8.0,69.0,77.0,0.0
8.0,46.0,79.0,0.0
8.0,62.0,82.0,376.0
8.0,67.0,76.0,0.0
8.0,61.0,80.0,164.0
8.0,69.0,79.0,0.0
8.0,45.0,76.0,0.0
0.0,0.0,0.0,0.0
0.0,0.0,0.0,0.0
0.0,0.0,0.0,0.0
0.0,0.0,0.0,0.0
0.0,0.0,0.0,0.0
0.0,0.0,0.0,0.0
0.0,0.0,0.0,0.0
0.0,0.0,0.0,0.0
0.0,0.0,0.0,0.0
0.0,0.0,0.0,0.0
0.0,0.0,0.0,0.0
0.0,0.0,0.0,0.0
0.0,0.0,0.0,0.0
0.0,0.0,0.0,0.0
0.0,0.0,0.0,0.0
0.0,0.0,0.0,0.0
0.0,0.0,0.0,0.0
0.0,0.0,0.0,0.0
0.0,0.0,0.0,0.0
0.0,0.0,0.0,0.0
0.0,0.0,0.0,0.0
0.0,0.0,0.0,0.0
0.0,0.0,0.0,0.0
0.0,0.0,0.0,0.0
0.0,0.0,0.0,0.0
0.0,0.0,0.0,0.0
0.0,0.0,0.0,0.0
0.0,0.0,0.0,0.0
0.0,0.0,0.0,0.0
0.0,0.0,0.0,0.0
0.0,0.0,0.0,0.0
0.0,0.0,0.0,0.0
0.0,0.0,0.0,0.0
0.0,0.0,0.0,0.0
0.0,0.0,0.0,0.0
0.0,0.0,0.0,0.0
0.0,0.0,0.0,0.0
0.0,0.0,0.0,0.0
0.0,0.0,0.0,0.0
0.0,0.0,0.0,0.0
0.0,0.0,0.0,0.0
0.0,0.0,0.0,0.0
0.0,0.0,0.0,0.0
0.0,0.0,0.0,0.0
0.0,0.0,0.0,0.0
0.0,0.0,0.0,0.0
0.0,0.0,0.0,0.0
0.0,0.0,0.0,0.0
0.0,0.0,0.0,0.0
0.0,0.0,0.0,0.0
0.0,0.0,0.0,0.0
0.0,0.0,0.0,0.0
0.0,0.0,0.0,0.0
0.0,0.0,0.0,0.0
0.0,0.0,0.0,0.0
0.0,0.0,0.0,0.0
0.0,0.0,0.0,0.0
0.0,0.0,0.0,0.0
0.0,0.0,0.0,0.0
0.0,0.0,0.0,0.0
0.0,0.0,0.0,0.0
0.0,0.0,0.0,0.0
0.0,0.0,0.0,0.0
0.0,0.0,0.0,0.0
0.0,0.0,0.0,0.0
0.0,0.0,0.0,0.0
0.0,0.0,0.0,0.0
0.0,0.0,0.0,0.0
0.0,0.0,0.0,0.0
0.0,0.0,0.0,0.0
0.0,0.0,0.0,0.0
0.0,0.0,0.0,0.0
0.0,0.0,0.0,0.0
0.0,0.0,0.0,0.0
0.0,0.0,0.0,0.0
0.0,0.0,0.0,0.0
0.0,0.0,0.0,0.0
0.0,0.0,0.0,0.0
0.0,0.0,0.0,0.0
0.0,0.0,0.0,0.0
0.0,0.0,0.0,0.0
0.0,0.0,0.0,0.0
0.0,0.0,0.0,0.0
0.0,0.0,0.0,0.0
0.0,0.0,0.0,0.0
0.0,0.0,0.0,0.0
0.0,0.0,0.0,0.0
0.0,0.0,0.0,0.0
0.0,0.0,0.0,0.0
0.0,0.0,0.0,0.0
0.0,0.0,0.0,0.0
0.0,0.0,0.0,0.0
0.0,0.0,0.0,0.0
0.0,0.0,0.0,0.0
0.0,0.0,0.0,0.0
0.0,0.0,0.0,0.0
0.0,0.0,0.0,0.0
0.0,0.0,0.0,0.0
0.0,0.0,0.0,0.0
0.0,0.0,0.0,0.0
0.0,0.0,0.0,0.0
0.0,0.0,0.0,0.0
0.0,0.0,0.0,0.0
0.0,0.0,0.0,0.0
0.0,0.0,0.0,0.0
0.0,0.0,0.0,0.0
0.0,0.0,0.0,0.0
0.0,0.0,0.0,0.0
0.0,0.0,0.0,0.0
0.0,0.0,0.0,0.0
0.0,0.0,0.0,0.0
0.0,0.0,0.0,0.0
0.0,0.0,0.0,0.0
0.0,0.0,0.0,0.0
0.0,0.0,0.0,0.0
0.0,0.0,0.0,0.0
0.0,0.0,0.0,0.0
0.0,0.0,0.0,0.0
0.0,0.0,0.0,0.0
0.0,0.0,0.0,0.0
0.0,0.0,0.0,0.0
0.0,0.0,0.0,0.0
0.0,0.0,0.0,0.0
0.0,0.0,0.0,0.0
0.0,0.0,0.0,0.0
0.0,0.0,0.0,0.0
0.0,0.0,0.0,0.0
0.0,0.0,0.0,0.0
0.0,0.0,0.0,0.0
0.0,0.0,0.0,0.0
0.0,0.0,0.0,0.0
0.0,0.0,0.0,0.0
0.0,0.0,0.0,0.0
0.0,0.0,0.0,0.0
0.0,0.0,0.0,0.0
0.0,0.0,0.0,0.0
0.0,0.0,0.0,0.0
0.0,0.0,0.0,0.0
0.0,0.0,0.0,0.0
0.0,0.0,0.0,0.0
0.0,0.0,0.0,0.0
0.0,0.0,0.0,0.0
0.0,0.0,0.0,0.0
0.0,0.0,0.0,0.0
0.0,0.0,0.0,0.0
0.0,0.0,0.0,0.0
0.0,0.0,0.0,0.0
0.0,0.0,0.0,0.0
0.0,0.0,0.0,0.0
0.0,0.0,0.0,0.0
0.0,0.0,0.0,0.0
0.0,0.0,0.0,0.0
0.0,0.0,0.0,0.0
0.0,0.0,0.0,0.0
0.0,0.0,0.0,0.0
0.0,0.0,0.0,0.0
0.0,0.0,0.0,0.0
0.0,0.0,0.0,0.0
0.0,0.0,0.0,0.0
0.0,0.0,0.0,0.0
0.0,0.0,0.0,0.0
