track,note,velocity,time
1,74,74,208
1,71,69,104
1,74,71,88
1,79,75,80
1,74,68,80
1,71,74,96
1,74,55,88
1,67,64,72
1,74,62,104
1,71,76,88
1,74,69,88
1,76,85,112
1,72,66,48
1,69,69,96
1,72,56,80
1,66,72,96
1,69,64,96
1,74,82,104
1,71,59,40
1,67,64,88
1,71,58,104
1,64,66,104
1,67,69,88
1,72,80,104
1,69,64,48
1,66,72,96
1,69,55,88
1,62,62,112
1,66,71,72
1,71,74,112
1,69,63,48
1,67,66,80
1,69,62,80
1,71,70,104
1,72,66,80
1,74,82,120
1,69,69,72
1,71,79,112
1,73,72,96
1,74,78,96
1,76,67,88
1,78,82,112
1,67,47,40
1,76,72,0
1,74,82,96
1,66,56,0
1,69,25,104
1,76,68,0
1,78,77,96
1,74,47,0
1,69,31,96
1,79,75,0
1,81,84,96
1,66,43,0
1,69,48,72
1,62,62,96
1,69,54,80
1,81,81,96
1,66,42,16
1,69,57,32
1,74,78,120
1,71,44,8
1,67,53,64
1,79,75,112
1,64,46,24
1,67,45,80
1,61,51,120
1,64,49,80
1,69,57,8
1,66,62,40
1,78,77,96
1,62,41,16
1,66,50,64
1,74,76,104
1,59,47,16
1,62,49,48
1,71,70,136
1,67,38,0
1,64,57,40
1,76,80,112
1,61,52,8
1,64,62,80
1,57,51,88
1,61,52,88
1,66,57,8
1,64,46,96
1,79,62,0
1,78,79,24
1,62,56,8
1,76,71,40
1,64,48,16
1,66,59,48
1,74,76,8
1,76,76,40
1,67,43,16
1,78,78,88
1,69,50,8
1,81,72,32
1,62,44,8
1,79,68,24
1,64,49,8
1,66,52,32
1,78,77,0
1,67,49,16
1,76,71,16
1,78,68,16
1,69,55,16
1,71,69,32
1,79,61,8
1,69,69,16
1,62,49,0
1,67,71,48
1,59,57,0
1,69,79,40
1,62,58,0
1,67,50,16
1,71,77,0
1,62,56,32
1,72,76,0
1,59,48,16
1,74,82,0
1,62,52,144
1,83,71,32
1,55,39,16
1,62,45,88
1,74,67,16
1,59,47,8
1,62,50,80
1,64,57,88
1,72,74,8
1,76,75,32
1,60,47,16
1,57,44,16
1,78,76,0
1,81,69,16
1,60,44,0
1,72,59,16
1,54,41,16
1,57,58,48
1,71,72,88
1,62,51,8
1,59,54,0
1,74,76,8
1,55,45,16
1,76,79,8
1,59,50,88
1,79,65,16
1,71,59,16
1,52,37,16
1,55,48,72
1,69,74,72
1,60,54,8
1,72,69,8
1,57,54,0
1,54,43,0
1,74,65,8
1,57,55,8
1,78,69,0
1,69,62,0
1,50,41,16
1,54,50,56
1,67,73,104
1,59,45,24
1,57,50,80
1,76,77,8
1,55,52,16
1,57,58,72
1,67,71,0
1,59,54,8
1,61,50,80
1,66,85,40
1,62,59,16
1,61,66,16
1,74,71,16
1,59,54,0
1,57,62,16
1,66,75,8
1,55,54,0
1,54,54,48
1,64,74,32
1,55,66,0
1,52,70,16
1,57,61,24
1,73,77,16
1,71,61,16
1,55,52,8
1,73,59,16
1,54,52,0
1,67,45,16
1,52,55,40
1,74,49,0
1,66,54,16
1,50,41,8
1,57,48,48
1,54,58,72
1,57,55,104
1,62,56,32
1,57,55,96
1,54,54,104
1,57,56,24
1,81,64,120
1,72,54,0
1,50,53,0
1,57,58,72
1,72,64,88
1,69,56,0
1,54,49,0
1,57,56,88
1,59,62,112
1,74,61,0
1,67,55,56
1,71,59,0
1,74,68,40
1,79,68,24
1,74,67,32
1,71,69,24
1,74,32,8
1,67,66,16
1,62,40,8
1,59,44,0
1,74,61,8
1,57,54,24
1,71,56,0
1,65,42,8
1,74,65,176
1,56,62,40
1,59,65,128
1,64,65,24
1,56,47,8
1,59,69,0
1,64,69,32
1,59,70,0
1,56,67,32
1,59,51,24
1,52,46,32
1,83,44,8
1,74,53,0
1,59,64,0
1,56,56,16
1,71,51,8
1,74,62,0
1,59,58,24
1,60,62,0
1,76,60,0
1,72,64,8
1,69,47,8
1,76,69,8
1,81,69,24
1,76,62,8
1,72,72,8
1,76,64,184
1,69,66,16
1,54,45,16
1,60,42,0
1,76,54,184
1,52,57,0
1,72,63,0
1,76,57,160
1,78,68,0
1,51,61,0
1,54,68,8
1,71,59,64
1,51,62,0
1,54,59,24
1,59,65,192
1,54,60,0
1,51,68,152
1,54,59,16
1,75,61,16
1,81,61,0
1,47,51,8
1,54,62,24
1,51,56,16
1,78,63,8
1,54,62,0
1,55,63,16
1,71,59,0
1,59,55,168
1,83,74,0
1,55,51,0
1,76,67,0
1,59,59,16
1,81,75,0
1,79,66,32
1,64,59,0
1,78,67,16
1,75,53,0
1,59,45,0
1,55,42,16
1,76,67,8
1,78,70,40
1,59,47,8
1,79,61,24
1,52,48,0
1,59,49,24
1,71,59,40
1,55,43,16
1,59,50,32
1,60,56,120
1,69,68,0
1,72,71,32
1,57,56,0
1,54,45,88
1,74,65,8
1,57,45,40
1,78,59,24
1,69,52,56
1,50,40,8
1,54,47,24
1,67,57,168
1,59,45,8
1,71,63,24
1,55,49,16
1,52,46,56
1,72,75,0
1,55,55,40
1,76,69,16
1,67,62,24
1,48,44,8
1,52,61,24
1,66,76,8
1,57,45,16
1,54,52,8
1,69,69,0
1,51,53,16
1,71,65,16
1,54,42,40
1,75,66,16
1,47,35,24
1,69,61,8
1,51,61,16
1,67,50,32
1,55,39,0
1,54,60,0
1,76,71,16
1,52,58,0
1,54,56,8
1,75,83,0
1,76,77,0
1,55,55,16
1,67,63,8
1,57,60,8
1,59,48,32
1,66,60,8
1,54,63,120
1,56,62,48
1,74,67,8
1,73,76,16
1,58,65,0
1,59,56,8
1,74,75,8
1,76,70,0
1,61,50,0
1,78,66,24
1,62,52,16
1,61,60,0
1,76,66,8
1,59,54,8
1,74,63,0
1,61,59,16
1,78,65,8
1,62,62,0
1,83,63,8
1,64,55,8
1,78,60,8
1,66,53,16
1,74,50,0
1,78,54,32
1,64,46,0
1,71,60,16
1,62,53,8
1,78,59,56
1,66,50,56
1,74,59,0
1,78,59,40
1,64,51,8
1,79,58,8
1,76,60,176
1,55,48,0
1,57,60,0
1,73,61,16
1,61,60,8
1,76,51,0
1,64,58,8
1,69,48,0
1,73,42,16
1,78,56,200
1,62,59,0
1,74,61,168
1,54,49,8
1,55,53,0
1,71,54,16
1,74,50,8
1,59,46,8
1,62,49,16
1,67,49,0
1,71,50,48
1,61,54,0
1,76,56,8
1,73,59,152
1,52,53,8
1,54,58,40
1,70,58,8
1,58,56,144
1,73,49,8
1,61,57,24
1,66,61,0
1,54,48,8
1,70,49,0
1,74,59,224
1,59,48,0
1,78,57,0
1,71,53,200
1,47,36,8
1,74,48,152
1,78,62,16
1,74,64,184
1,71,63,8
1,74,60,16
1,66,57,0
1,50,58,0
1,71,61,16
1,47,49,32
1,74,59,0
1,69,40,72
1,68,67,16
1,52,50,0
1,71,49,8
1,64,52,24
1,40,43,0
1,68,43,16
1,71,51,24
1,68,44,176
1,64,61,0
1,68,57,0
1,59,56,200
1,56,47,8
1,64,60,24
1,52,52,184
1,68,58,0
1,62,58,40
1,60,65,48
1,64,59,16
1,69,27,56
1,72,47,0
1,57,48,0
1,60,59,0
1,64,53,16
1,69,44,0
1,72,54,8
1,60,55,16
1,57,64,184
1,72,57,16
1,69,30,16
1,74,47,16
1,60,51,16
1,72,34,0
1,74,38,16
1,72,48,16
1,52,60,8
1,74,40,0
1,72,43,0
1,74,41,16
1,57,64,16
1,72,27,8
1,72,14,40
1,60,62,16
1,74,39,16
1,72,31,0
1,55,52,16
1,54,71,8
1,57,58,8
1,50,55,48
1,72,47,8
1,66,59,0
1,54,66,8
1,72,57,192
1,66,66,0
1,57,56,8
1,54,71,104
1,66,77,160
1,72,60,0
1,50,64,0
1,67,54,16
1,66,68,8
1,54,63,8
1,67,46,16
1,66,56,8
1,45,68,8
1,67,44,8
1,66,64,16
1,50,66,0
1,67,45,8
1,66,49,8
1,67,41,24
1,54,56,8
1,66,57,8
1,67,30,24
1,48,64,0
1,47,60,24
1,50,60,24
1,71,54,32
1,43,51,0
1,67,48,8
1,47,64,32
1,71,61,8
1,67,58,0
1,50,63,0
1,47,74,16
1,43,57,8
1,67,54,0
1,71,52,8
1,47,60,16
1,65,69,32
1,38,43,0
1,64,71,24
1,43,54,0
1,62,61,8
1,41,50,8
1,71,68,176
1,47,59,8
1,60,59,136
1,40,53,0
1,71,64,8
1,43,51,0
1,69,67,216
1,36,50,0
1,38,54,8
1,66,76,8
1,67,70,8
1,40,54,0
1,36,43,8
1,64,70,0
1,66,67,184
1,38,48,8
1,69,64,56
1,62,63,192
1,54,35,8
1,50,45,0
1,66,72,72
1,54,52,64
1,50,57,8
1,69,66,0
1,66,74,104
1,62,69,200
1,50,48,0
1,54,40,8
1,55,44,24
1,66,66,16
1,54,47,24
1,55,36,0
1,57,68,40
1,54,42,16
1,55,41,16
1,62,67,32
1,54,48,24
1,55,21,40
1,66,69,40
1,54,58,8
1,52,49,24
1,60,56,8
1,54,34,32
1,55,53,112
1,59,59,16
1,62,69,128
1,59,68,184
1,55,40,0
1,50,38,8
1,62,69,8
1,67,61,32
1,55,46,16
1,50,58,8
1,62,71,16
1,50,60,168
1,59,69,8
1,52,42,8
1,62,67,16
1,50,45,0
1,52,49,16
1,50,52,16
1,55,68,8
1,52,46,16
1,50,54,8
1,59,72,8
1,52,51,24
1,50,46,0
1,62,73,16
1,52,41,8
1,50,52,16
1,59,64,16
1,49,57,8
1,50,62,8
1,55,64,0
1,52,45,48
1,58,67,16
1,52,71,200
1,46,45,0
1,43,34,8
1,55,64,24
1,46,42,192
1,38,36,16
1,58,62,8
1,50,74,24
1,49,76,208
1,38,65,0
1,58,79,0
1,50,64,8
1,49,60,88
1,50,37,16
1,57,88,8
1,49,24,0
1,50,45,8
1,55,72,8
1,49,51,8
1,50,54,16
1,64,67,8
1,49,54,16
1,50,35,0
1,55,66,8
1,47,34,16
1,49,34,16
1,54,67,0
1,50,53,0
1,55,41,0
1,54,45,8
1,52,50,0
1,50,65,16
1,38,54,208
1,40,51,96
1,42,71,0
1,43,63,16
1,45,62,16
1,47,61,16
1,48,69,8
1,45,58,24
1,47,62,8
1,48,69,0
1,50,64,16
1,52,60,16
1,54,61,8
1,55,54,88
1,57,62,8
1,54,61,16
1,55,59,88
1,57,63,8
1,59,68,88
1,61,68,80
1,62,77,8
1,64,69,0
1,66,77,88
1,50,66,0
1,62,69,96
1,64,76,40
1,66,72,64
1,48,54,32
1,67,78,8
1,69,73,96
1,71,62,88
1,72,68,8
1,47,39,88
1,74,71,16
1,62,54,32
1,59,49,32
1,62,53,16
1,67,60,8
1,62,68,16
1,59,61,96
1,62,45,48
1,55,48,32
1,62,50,56
1,59,47,16
1,55,50,8
1,62,54,24
1,64,67,72
1,48,38,24
1,60,49,40
1,72,69,32
1,57,45,16
1,60,60,32
1,54,52,128
1,45,49,8
1,57,66,32
1,62,72,96
1,47,46,8
1,59,53,40
1,71,72,8
1,55,45,16
1,59,59,16
1,52,47,112
1,43,45,8
1,55,59,0
1,60,64,112
1,45,52,8
1,57,58,32
1,54,47,24
1,69,68,0
1,72,77,16
1,57,57,8
1,78,75,40
1,50,54,8
1,54,51,16
1,81,73,8
1,55,36,136
1,59,53,0
1,79,74,24
1,60,67,56
1,57,60,8
1,78,87,40
1,62,43,24
1,79,79,8
1,59,50,8
1,78,74,48
1,76,65,24
1,74,64,96
1,72,62,8
1,71,64,16
1,69,49,16
1,67,66,16
1,59,51,0
1,50,52,8
1,71,66,16
1,69,69,8
1,67,57,16
1,50,53,32
1,66,74,0
1,57,45,0
1,64,64,0
1,62,66,8
1,60,67,72
1,60,66,64
1,43,33,8
1,55,34,8
1,59,45,16
2,74,74,208
2,71,69,104
2,74,71,88
2,79,75,80
2,74,68,80
2,71,74,96
2,74,55,88
2,67,64,72
2,74,62,104
2,71,76,88
2,74,69,88
2,76,85,112
2,72,66,48
2,69,69,96
2,72,56,80
2,66,72,96
2,69,64,96
2,74,82,104
2,71,59,40
2,67,64,88
2,71,58,104
2,64,66,104
2,67,69,88
2,72,80,104
2,69,64,48
2,66,72,96
2,69,55,88
2,62,62,112
2,66,71,72
2,71,74,112
2,69,63,48
2,67,66,80
2,69,62,80
2,71,70,104
2,72,66,80
2,74,82,120
2,69,69,72
2,71,79,112
2,73,72,96
2,74,78,96
2,76,67,88
2,78,82,112
2,67,47,40
2,76,72,0
2,74,82,96
2,66,56,0
2,69,25,104
2,76,68,0
2,78,77,96
2,74,47,0
2,69,31,96
2,79,75,0
2,81,84,96
2,66,43,0
2,69,48,72
2,62,62,96
2,69,54,80
2,81,81,96
2,66,42,16
2,69,57,32
2,74,78,120
2,71,44,8
2,67,53,64
2,79,75,112
2,64,46,24
2,67,45,80
2,61,51,120
2,64,49,80
2,69,57,112
2,66,62,40
2,78,77,96
2,62,41,16
2,66,50,64
2,74,76,104
2,59,47,16
2,62,49,48
2,71,70,136
2,67,38,0
2,64,57,40
2,76,80,112
2,61,52,8
2,64,62,80
2,57,51,88
2,61,52,88
2,66,57,144
2,64,46,96
2,79,62,0
2,78,79,24
2,62,56,8
2,76,71,40
2,64,48,16
2,66,59,48
2,74,76,8
2,76,76,40
2,67,43,16
2,78,78,88
2,69,50,8
2,81,72,32
2,62,44,8
2,79,68,24
2,64,49,8
2,66,52,32
2,78,77,0
2,67,49,16
2,76,71,16
2,78,68,16
2,69,55,16
2,71,69,32
2,79,61,8
2,69,69,16
2,62,49,0
2,67,71,48
2,59,57,0
2,69,79,40
2,62,58,0
2,67,50,16
2,71,77,0
2,62,56,32
2,72,76,0
2,59,48,16
2,74,82,0
2,62,52,144
2,83,71,32
2,55,39,16
2,62,45,88
2,74,67,16
2,59,47,8
2,62,50,80
2,64,57,88
2,72,74,8
2,76,75,32
2,60,47,16
2,57,44,16
2,78,76,0
2,81,69,16
2,60,44,0
2,72,59,16
2,54,41,16
2,57,58,48
2,71,72,88
2,62,51,8
2,59,54,0
2,74,76,8
2,55,45,16
2,76,79,8
2,59,50,88
2,79,65,16
2,71,59,16
2,52,37,16
2,55,48,72
2,69,74,72
2,60,54,8
2,72,69,8
2,57,54,0
2,54,43,0
2,74,65,8
2,57,55,8
2,78,69,0
2,69,62,0
2,50,41,16
2,54,50,56
2,67,73,104
2,59,45,24
2,57,50,80
2,76,77,8
2,55,52,16
2,57,58,72
2,67,71,0
2,59,54,8
2,61,50,80
2,66,85,40
2,62,59,16
2,61,66,16
2,74,71,16
2,59,54,0
2,57,62,16
2,66,75,8
2,55,54,0
2,54,54,48
2,64,74,32
2,55,66,0
2,52,70,16
2,57,61,24
2,73,77,16
2,71,61,16
2,55,52,8
2,73,59,16
2,54,52,0
2,67,45,16
2,52,55,40
2,74,49,0
2,66,54,16
2,50,41,8
2,57,48,48
2,54,58,72
2,57,55,104
2,62,56,128
2,57,55,96
2,54,54,104
2,57,56,24
2,81,64,120
2,72,54,0
2,50,53,0
2,57,58,72
2,72,64,88
2,69,56,0
2,54,49,0
2,57,56,88
2,59,62,112
2,74,61,0
2,67,55,56
2,71,59,0
2,74,68,40
2,79,68,24
2,74,67,32
2,71,69,24
2,74,32,8
2,67,66,16
2,62,40,8
2,59,44,0
2,74,61,8
2,57,54,24
2,71,56,0
2,65,42,8
2,74,65,176
2,56,62,40
2,59,65,128
2,64,65,24
2,56,47,8
2,59,69,0
2,64,69,32
2,59,70,0
2,56,67,32
2,59,51,24
2,52,46,32
2,83,44,8
2,74,53,0
2,59,64,0
2,56,56,16
2,71,51,8
2,74,62,0
2,59,58,24
2,60,62,0
2,76,60,8
2,72,64,8
2,69,47,8
2,76,69,8
2,81,69,24
2,76,62,8
2,72,72,8
2,76,64,184
2,69,66,16
2,54,45,16
2,60,42,0
2,76,54,184
2,52,57,0
2,72,63,0
2,76,57,120
2,78,68,0
2,51,61,0
2,54,68,8
2,71,59,64
2,51,62,0
2,54,59,24
2,59,65,192
2,54,60,0
2,51,68,152
