track,note,velocity,time
1,65,59,960
1,69,66,0
1,72,65,0
1,69,62,0
1,65,62,0
1,69,60,0
1,72,60,0
1,77,71,0
1,72,63,0
1,69,65,0
1,72,57,0
1,69,61,0
1,65,77,0
1,69,66,0
1,72,69,0
1,77,66,0
1,79,73,0
1,81,73,0
1,82,78,0
1,84,80,0
1,84,64,0
1,84,74,0
1,84,77,0
1,84,85,0
1,86,69,0
1,84,62,0
1,86,88,0
1,84,69,0
1,86,85,0
1,84,77,0
1,86,78,0
1,84,67,0
1,86,82,0
1,84,62,0
1,86,78,0
1,84,78,0
1,86,69,0
1,84,67,0
1,86,77,0
1,84,67,0
1,86,77,0
1,84,73,0
1,86,77,0
1,84,61,0
1,86,81,0
1,84,66,0
1,86,83,0
1,84,72,0
1,86,73,0
1,84,65,0
1,86,77,0
1,84,70,0
1,86,75,0
1,84,73,0
1,86,80,0
1,84,62,0
1,86,77,0
1,84,77,0
1,86,73,0
1,84,55,0
1,86,57,0
1,84,77,0
1,86,58,0
1,77,80,192
1,77,64,0
1,72,41,0
1,72,61,0
1,69,74,0
1,69,71,0
1,65,65,0
1,65,69,0
1,77,75,0
1,77,71,0
1,72,63,0
1,72,77,0
1,69,73,0
1,69,75,0
1,65,72,0
1,65,65,0
1,72,80,0
1,72,81,0
1,72,86,0
1,72,62,192
1,72,77,0
1,72,84,0
1,72,74,192
1,72,82,0
1,72,92,0
1,77,70,0
1,72,60,0
1,69,76,0
1,65,66,0
1,72,77,0
1,69,80,0
1,65,70,3264
1,69,61,0
1,72,63,0
1,69,71,0
1,65,69,0
1,69,70,0
1,72,58,0
1,77,77,0
1,72,67,0
1,69,66,0
1,72,62,0
1,69,61,0
1,65,75,0
1,69,63,0
1,72,70,0
1,77,78,0
1,72,71,3120
1,84,90,48
1,86,66,0
1,88,71,0
1,86,66,0
1,84,78,0
1,86,64,0
1,88,53,0
1,86,60,0
1,84,83,0
1,83,74,0
1,84,74,0
1,86,57,0
1,88,71,0
1,89,71,0
1,88,69,0
1,86,63,0
1,84,74,0
1,86,60,0
1,88,71,0
1,86,64,0
1,84,72,0
1,86,62,0
1,88,64,0
1,86,62,0
1,84,78,0
1,72,80,0
1,72,71,3264
1,84,64,0
1,86,73,0
1,88,72,0
1,86,64,0
1,84,78,0
1,86,71,0
1,88,72,0
1,86,70,0
1,84,70,0
1,83,77,0
1,84,66,0
1,86,58,0
1,88,75,0
1,89,77,0
1,88,69,0
1,86,57,0
1,84,78,0
1,86,61,0
1,88,65,0
1,86,64,0
1,84,69,0
1,86,61,0
1,88,66,0
1,86,66,0
1,84,76,0
1,72,80,0
1,79,82,192
1,81,76,0
1,83,77,0
1,81,74,0
1,83,77,0
1,84,78,0
1,83,78,0
1,84,86,0
1,83,71,0
1,84,77,0
1,83,61,0
1,84,66,0
1,83,77,0
1,81,84,0
1,83,88,0
1,84,88,0
1,83,66,0
1,84,76,0
1,86,62,0
1,84,73,0
1,83,77,0
1,81,71,0
1,79,65,0
1,81,76,0
1,79,59,0
1,81,70,0
1,84,75,0
1,83,67,0
1,81,67,0
1,79,66,0
1,77,76,0
1,79,82,0
1,72,72,0
1,79,80,192
1,79,82,0
1,79,89,0
1,79,78,192
1,79,80,0
1,79,88,0
1,79,80,192
1,79,80,0
1,79,85,0
1,79,80,192
1,79,82,0
1,79,82,0
1,79,80,192
1,79,78,0
1,84,81,0
1,83,73,0
1,84,82,0
1,79,77,0
1,79,76,0
1,88,86,0
1,86,71,0
1,88,89,0
1,79,78,0
1,79,69,0
1,84,73,0
1,83,70,0
1,84,83,0
1,79,84,0
1,79,83,0
1,88,76,0
1,86,64,0
1,88,83,0
1,79,80,384
1,81,78,0
1,79,77,0
1,84,75,0
1,83,69,0
1,79,80,0
1,81,78,0
1,79,57,0
1,84,38,0
1,72,73,0
1,84,85,1152
1,86,77,0
1,88,69,0
1,86,61,0
1,88,75,0
1,88,74,0
1,89,81,0
1,88,76,0
1,89,77,0
1,88,63,0
1,89,73,0
1,88,63,0
1,86,88,0
1,88,82,0
1,89,81,0
1,77,66,0
1,79,77,0
1,81,76,0
1,82,59,0
1,84,76,0
1,81,83,0
1,86,75,0
1,82,77,0
1,79,74,0
1,82,64,0
1,72,49,0
1,79,63,0
1,84,86,0
1,82,74,0
1,81,77,0
1,82,76,0
1,84,80,0
1,81,77,0
1,77,83,0
1,81,80,0
1,81,82,0
1,82,70,0
1,81,72,0
1,82,88,0
1,81,59,0
1,82,66,0
1,81,76,0
1,82,73,0
1,81,66,0
1,82,77,0
1,81,73,0
1,82,61,0
1,81,71,0
1,82,62,0
1,81,76,0
1,82,80,0
1,81,65,0
1,82,80,0
1,81,61,0
1,82,82,0
1,81,77,0
1,82,75,0
1,81,71,0
1,82,76,0
1,81,71,0
1,82,75,0
1,81,66,0
1,82,69,0
1,81,74,0
1,82,78,0
1,81,64,0
1,82,66,0
1,81,78,0
1,82,67,0
1,81,76,0
1,82,85,0
1,81,71,0
1,82,72,0
1,81,80,0
1,82,86,0
1,81,76,0
1,82,70,0
1,81,72,0
1,82,72,0
1,81,76,0
1,82,78,0
1,81,78,0
1,82,78,0
1,81,72,0
1,82,77,0
1,81,77,0
1,82,81,0
1,81,65,0
1,82,75,0
1,81,73,0
1,82,77,0
1,81,77,0
1,82,81,0
1,81,75,0
1,82,57,0
1,82,66,0
1,81,57,0
1,82,53,0
1,81,62,0
1,82,72,0
1,81,59,0
1,82,62,0
1,81,80,352
1,86,85,0
1,81,81,0
1,82,88,0
1,79,89,0
1,84,89,0
1,79,81,0
1,81,92,0
1,77,89,960
1,82,80,0
1,77,84,0
1,79,96,0
1,81,82,0
1,79,88,0
1,81,88,0
1,79,78,0
1,81,78,0
1,79,70,0
1,81,61,0
1,79,59,0
1,81,88,0
1,79,69,0
1,81,70,0
1,79,60,0
1,81,66,0
1,79,40,0
1,81,69,0
1,79,57,0
1,81,69,0
1,79,57,0
1,81,69,0
1,79,57,0
1,81,69,0
1,79,57,0
1,81,69,0
1,79,57,0
1,81,69,0
1,79,57,0
1,81,69,0
1,79,57,0
1,77,80,32
1,79,84,0
1,81,96,0
1,79,71,0
1,77,96,0
1,86,77,0
1,85,82,0
1,86,83,0
1,81,78,0
1,81,90,0
1,89,89,0
1,88,77,0
1,89,85,0
1,81,84,0
1,81,89,0
1,86,67,0
1,85,84,0
1,86,80,0
1,81,96,0
1,81,92,0
1,89,84,0
1,88,80,0
1,89,89,0
1,69,81,384
1,69,81,0
1,69,81,0
1,69,82,288
1,69,84,0
1,69,92,0
1,69,78,384
1,69,82,0
1,69,92,0
1,69,89,0
1,65,89,0
1,81,81,192
1,81,86,0
1,77,80,0
1,79,71,0
1,81,89,0
1,77,77,0
1,79,65,0
1,81,78,0
1,86,80,0
1,81,73,0
1,86,77,0
1,81,82,0
1,77,71,0
1,79,63,0
1,81,78,0
1,77,62,0
1,79,71,0
1,81,71,0
1,86,70,0
1,81,67,0
1,86,71,0
1,84,76,0
1,83,73,0
1,81,66,0
1,79,66,0
1,81,76,0
1,83,78,0
1,81,67,0
1,79,64,0
1,81,70,0
1,83,77,0
1,84,78,0
1,83,72,0
1,81,66,0
1,79,62,0
1,81,67,0
1,79,65,0
1,81,73,0
1,83,80,0
1,81,62,0
1,79,65,0
1,81,62,0
1,83,73,0
1,81,70,0
1,79,62,0
1,81,61,0
1,83,75,0
1,84,69,0
1,83,60,0
1,81,73,0
1,79,77,0
1,72,81,3168
1,77,80,0
1,72,71,0
1,69,83,0
1,72,72,0
1,65,76,0
1,72,50,0
1,69,84,0
1,72,78,0
1,77,70,0
1,72,69,192
1,69,64,0
1,72,81,0
1,65,83,0
1,72,82,192
1,72,75,0
1,72,84,0
1,72,82,192
1,72,84,0
1,72,90,0
1,72,74,192
1,72,72,0
1,72,78,0
1,72,77,192
1,72,76,0
1,72,83,0
1,65,82,576
1,69,78,0
1,72,83,0
1,77,77,0
1,72,70,0
1,69,70,0
1,65,66,0
1,81,40,0
1,81,37,0
1,81,25,0
1,81,20,0
1,81,32,0
1,81,38,0
1,81,52,0
1,81,43,0
1,86,40,0
1,86,37,0
1,86,36,0
1,86,50,0
1,86,41,0
1,86,41,0
1,86,44,0
1,86,42,0
1,86,55,0
1,88,47,0
1,89,56,0
1,88,47,0
1,86,52,0
1,88,41,0
1,86,49,0
1,84,52,0
1,83,57,0
1,84,45,0
1,86,39,0
1,84,53,0
1,83,47,0
1,84,50,0
1,86,53,0
1,88,57,0
1,81,70,0
1,72,80,1344
1,75,111,96
1,75,119,0
1,72,111,0
1,81,80,0
1,79,86,0
1,77,96,0
1,84,100,0
1,82,88,0
1,81,82,0
1,79,83,0
1,77,71,0
1,75,81,0
1,77,80,0
1,82,85,0
1,81,80,0
1,82,85,0
1,77,90,0
1,77,103,0
1,86,89,0
1,84,84,0
1,86,94,0
1,77,84,0
1,77,94,0
1,82,83,0
1,81,73,0
1,82,88,0
1,77,90,0
1,77,98,0
1,86,80,0
1,84,80,0
1,86,90,0
1,77,86,0
1,77,94,0
1,77,103,0
1,65,69,192
1,65,64,0
1,65,83,0
1,77,75,192
1,77,74,0
1,82,81,0
1,84,77,0
1,82,83,0
1,84,77,0
1,84,98,0
1,82,94,0
1,82,84,0
1,79,85,9504
1,81,80,0
1,83,77,0
1,81,76,0
1,83,76,0
1,81,73,0
1,83,69,0
1,81,73,0
1,83,69,0
1,81,73,0
1,83,69,0
1,81,73,0
1,83,69,0
1,81,73,0
1,83,69,0
1,81,73,0
1,83,69,0
1,84,92,0
1,83,56,0
1,84,73,0
1,83,67,0
1,84,47,0
1,86,63,0
1,87,60,0
1,84,66,0
1,86,82,0
1,87,81,0
1,86,77,0
1,84,69,0
1,83,78,0
1,81,69,0
1,79,62,0
1,77,67,0
1,75,66,0
1,77,51,0
1,79,75,0
1,75,76,0
1,72,81,0
1,72,92,0
1,75,84,0
1,79,84,0
1,75,77,0
1,72,80,0
1,75,80,0
1,79,88,0
1,84,90,0
1,79,67,0
1,75,81,0
1,79,69,0
1,75,75,0
1,72,81,0
1,75,77,192
1,79,65,0
1,84,88,0
1,79,83,384
1,79,90,0
1,79,84,0
1,79,77,384
1,79,81,0
1,79,80,0
1,79,80,384
1,79,76,0
1,79,82,0
1,79,76,384
1,79,71,0
1,79,81,0
1,82,55,384
1,82,42,0
1,82,46,0
1,82,39,0
1,82,47,0
1,82,52,0
1,82,54,0
1,81,68,0
1,65,98,0
1,69,108,0
1,72,99,0
1,77,98,0
1,72,92,0
1,69,90,0
1,65,90,0
1,81,43,0
1,81,25,0
1,81,34,0
1,81,32,0
1,81,27,0
1,81,32,0
1,81,34,0
1,81,38,0
1,82,101,0
1,79,77,0
1,81,88,0
1,82,80,0
1,79,75,0
1,81,86,0
1,82,89,0
1,86,85,0
1,82,85,0
1,86,71,0
1,82,77,0
1,79,76,0
1,81,76,0
1,82,78,0
1,79,74,0
1,81,82,0
1,82,80,0
1,86,86,0
1,91,83,0
1,86,85,0
1,87,90,0
1,84,88,576
1,89,84,0
1,84,86,0
1,86,90,0
1,82,84,576
1,87,81,0
1,82,82,0
1,84,86,0
1,81,85,576
1,86,72,0
1,84,76,0
1,82,64,0
1,79,66,0
1,82,65,0
1,86,69,0
1,91,63,0
1,86,62,0
1,82,70,0
1,86,62,0
1,82,62,0
1,79,70,0
1,82,67,192
1,86,77,0
1,91,81,0
1,86,67,0
1,82,77,0
1,79,75,0
1,79,70,2880
1,81,76,0
1,82,77,0
1,81,66,0
1,79,60,0
1,81,67,0
1,82,70,0
1,81,69,0
1,79,63,0
1,81,73,0
1,82,69,0
1,84,62,0
1,82,63,0
1,81,60,0
1,79,60,0
1,81,69,0
1,79,61,0
1,81,71,0
1,82,71,0
1,81,62,0
1,79,61,0
1,81,63,0
1,82,70,0
1,81,64,0
1,79,59,0
1,81,71,0
1,82,69,0
1,84,65,0
1,82,64,0
1,81,74,0
1,79,69,0
1,69,62,384
1,69,60,0
1,69,57,0
1,69,60,0
1,69,56,0
1,69,59,0
1,69,60,0
1,69,61,0
1,69,59,0
1,69,57,0
1,69,58,0
1,69,66,0
1,81,81,960
1,81,82,0
1,77,81,0
1,79,77,0
1,81,83,0
1,77,77,0
1,79,73,0
1,81,78,0
1,86,78,0
1,81,65,0
1,86,66,0
1,81,76,0
1,77,74,0
1,79,67,0
1,81,77,0
1,86,77,0
1,82,82,0
1,86,65,0
1,82,66,0
1,86,62,0
1,84,66,0
1,79,63,0
1,84,69,0
1,79,62,0
1,81,69,0
1,84,63,0
1,81,73,0
1,84,70,0
1,83,69,0
1,84,64,0
1,83,75,0
1,84,75,0
1,86,74,0
1,84,70,0
1,83,67,0
1,81,65,0
1,86,42,0
1,86,39,0
1,86,38,0
1,83,48,0
1,84,49,0
1,84,34,0
1,84,50,0
1,81,51,0
1,83,58,0
1,81,49,0
1,83,68,0
1,84,64,0
1,86,53,0
1,84,49,0
1,83,51,0
1,86,44,0
1,84,53,0
1,86,51,0
1,88,64,0
1,84,52,0
1,81,58,0
1,84,93,768
1,84,93,0
1,81,90,0
1,83,82,0
1,84,90,0
1,81,78,0
1,83,87,0
1,84,86,0
1,88,92,0
1,84,85,0
1,88,78,0
1,84,85,0
1,81,78,0
1,83,77,0
1,84,97,0
1,81,86,0
1,81,78,96
1,84,71,0
1,81,66,0
1,84,65,0
1,79,69,0
1,83,76,0
1,79,64,0
1,83,60,0
1,79,69,0
1,83,64,0
1,79,61,0
1,83,70,0
1,77,70,0
1,81,65,0
1,77,66,0
1,81,61,0
1,77,60,0
1,81,59,0
1,77,64,0
1,86,65,0
1,83,77,0
1,81,81,192
1,81,77,0
1,81,64,1152
1,81,73,0
1,77,82,4224
1,72,83,0
1,69,80,0
1,65,77,0
1,72,78,0
1,69,75,0
1,65,72,0
1,72,84,0
1,77,77,0
1,72,85,0
1,77,61,0
1,72,72,0
1,69,75,0
1,65,69,0
1,72,77,0
1,69,77,0
1,65,72,0
1,72,77,0
1,77,75,0
1,72,80,0
1,72,70,96
1,72,69,0
1,72,82,0
1,72,71,192
1,72,80,0
1,72,75,0
1,72,80,384
1,72,69,0
1,72,83,0
1,72,71,192
1,72,76,0
1,72,81,0
1,77,54,576
1,77,34,0
1,77,42,0
1,77,46,0
1,77,50,0
1,77,52,0
1,77,44,0
1,77,52,0
1,79,57,0
1,79,52,0
1,79,50,0
1,79,49,0
1,79,40,0
1,79,46,0
1,79,45,0
1,79,50,0
1,79,89,0
1,72,76,0
1,79,82,0
1,79,90,0
1,84,90,0
1,79,84,0
1,79,88,0
1,72,81,0
1,69,52,0
1,69,47,0
1,69,53,0
1,69,53,0
1,69,54,0
1,69,50,0
1,69,52,0
1,69,47,0
1,69,40,0
1,69,42,0
1,69,47,0
1,69,50,0
1,69,51,0
1,69,47,0
1,69,48,0
1,69,53,0
1,65,60,0
1,65,56,0
1,65,56,0
1,65,52,0
1,65,55,0
1,65,55,0
1,65,56,0
1,65,57,0
1,72,85,0
1,79,77,0
1,77,67,0
1,79,82,0
1,72,77,0
1,72,80,0
1,84,83,0
1,82,77,0
1,84,83,0
1,72,74,0
1,72,85,0
1,79,78,0
1,77,78,0
1,79,85,0
1,72,83,0
1,72,80,96
1,84,84,0
1,82,76,0
1,84,85,0
1,77,81,0
1,79,78,0
1,77,88,0
1,72,78,0
1,72,55,0
1,69,80,0
1,69,73,0
1,65,65,0
1,65,63,0
1,77,85,0
1,77,80,0
1,72,69,0
1,72,63,0
1,69,77,0
1,69,71,0
1,65,66,0
1,65,71,0
1,72,88,0
1,72,90,0
1,72,100,0
1,72,84,384
1,72,85,0
1,72,90,0
1,72,65,384
1,72,78,0
1,72,92,0
1,77,85,0
1,72,77,0
1,69,84,0
1,65,84,0
1,72,77,0
1,69,71,0
1,77,77,75648
1,84,80,0
1,84,99,0
1,86,99,0
1,84,99,0
1,82,79,0
1,84,79,0
1,86,78,0
1,84,77,0
1,82,69,0
1,84,76,0
1,89,85,0
