track,note,velocity,time
1.0,71.0,71.0,360.0
1.0,76.0,65.0,18.0
1.0,45.0,63.0,16.0
1.0,73.0,67.0,2.0
1.0,69.0,66.0,84.0
1.0,52.0,47.0,0.0
1.0,57.0,52.0,8.0
1.0,50.0,61.0,100.0
1.0,64.0,72.0,6.0
1.0,71.0,63.0,78.0
1.0,56.0,56.0,4.0
1.0,69.0,67.0,116.0
1.0,49.0,44.0,4.0
1.0,52.0,55.0,80.0
1.0,57.0,52.0,6.0
1.0,56.0,68.0,96.0
1.0,71.0,71.0,8.0
1.0,73.0,54.0,2.0
1.0,64.0,49.0,86.0
1.0,59.0,48.0,0.0
1.0,76.0,61.0,0.0
1.0,74.0,51.0,78.0
1.0,57.0,51.0,72.0
1.0,73.0,61.0,8.0
1.0,74.0,58.0,74.0
1.0,61.0,45.0,64.0
1.0,64.0,56.0,10.0
1.0,76.0,62.0,0.0
1.0,78.0,60.0,8.0
1.0,59.0,56.0,78.0
1.0,74.0,67.0,0.0
1.0,76.0,64.0,8.0
1.0,68.0,42.0,88.0
1.0,62.0,47.0,0.0
1.0,80.0,61.0,4.0
1.0,78.0,49.0,0.0
1.0,76.0,71.0,8.0
1.0,61.0,28.0,16.0
1.0,64.0,41.0,58.0
1.0,69.0,41.0,2.0
1.0,76.0,73.0,68.0
1.0,61.0,53.0,0.0
1.0,81.0,69.0,4.0
1.0,69.0,38.0,0.0
1.0,64.0,55.0,0.0
1.0,80.0,66.0,2.0
1.0,62.0,40.0,2.0
1.0,81.0,52.0,8.0
1.0,80.0,67.0,0.0
1.0,81.0,49.0,6.0
1.0,71.0,27.0,32.0
1.0,80.0,62.0,0.0
1.0,64.0,54.0,0.0
1.0,78.0,61.0,2.0
1.0,76.0,69.0,6.0
1.0,61.0,53.0,2.0
1.0,81.0,58.0,40.0
1.0,69.0,49.0,10.0
1.0,64.0,50.0,2.0
1.0,62.0,42.0,56.0
1.0,80.0,69.0,16.0
1.0,81.0,54.0,8.0
1.0,80.0,66.0,2.0
1.0,81.0,54.0,16.0
1.0,71.0,44.0,8.0
1.0,64.0,58.0,6.0
1.0,80.0,47.0,0.0
1.0,78.0,66.0,0.0
1.0,76.0,64.0,14.0
1.0,61.0,47.0,0.0
1.0,64.0,57.0,48.0
1.0,69.0,45.0,0.0
1.0,81.0,63.0,8.0
1.0,56.0,60.0,26.0
1.0,73.0,61.0,6.0
1.0,76.0,63.0,4.0
1.0,78.0,56.0,88.0
1.0,64.0,46.0,12.0
1.0,59.0,47.0,2.0
1.0,74.0,61.0,6.0
1.0,57.0,62.0,88.0
1.0,74.0,65.0,8.0
1.0,71.0,59.0,0.0
1.0,76.0,40.0,18.0
1.0,69.0,64.0,70.0
1.0,73.0,57.0,8.0
1.0,64.0,59.0,0.0
1.0,52.0,51.0,120.0
1.0,70.0,54.0,0.0
1.0,67.0,49.0,8.0
1.0,64.0,59.0,10.0
1.0,71.0,54.0,26.0
1.0,68.0,62.0,6.0
1.0,76.0,67.0,38.0
1.0,73.0,59.0,180.0
1.0,45.0,61.0,0.0
1.0,69.0,62.0,74.0
1.0,57.0,57.0,0.0
1.0,52.0,61.0,2.0
1.0,50.0,57.0,104.0
1.0,64.0,63.0,4.0
1.0,71.0,59.0,76.0
1.0,56.0,51.0,8.0
1.0,69.0,62.0,108.0
1.0,49.0,54.0,2.0
1.0,52.0,46.0,186.0
1.0,57.0,48.0,6.0
1.0,56.0,62.0,48.0
1.0,71.0,66.0,2.0
1.0,73.0,56.0,0.0
1.0,64.0,41.0,70.0
1.0,59.0,57.0,0.0
1.0,76.0,67.0,0.0
1.0,74.0,56.0,10.0
1.0,57.0,62.0,86.0
1.0,73.0,69.0,0.0
1.0,74.0,66.0,0.0
1.0,76.0,71.0,24.0
1.0,64.0,57.0,0.0
1.0,61.0,57.0,0.0
1.0,78.0,67.0,76.0
1.0,74.0,71.0,96.0
1.0,59.0,55.0,0.0
1.0,76.0,67.0,8.0
1.0,68.0,45.0,80.0
1.0,80.0,67.0,4.0
1.0,62.0,49.0,2.0
1.0,78.0,50.0,76.0
1.0,76.0,64.0,18.0
1.0,61.0,54.0,8.0
1.0,64.0,58.0,194.0
1.0,69.0,51.0,4.0
1.0,76.0,74.0,80.0
1.0,61.0,60.0,0.0
1.0,81.0,66.0,40.0
1.0,69.0,52.0,2.0
1.0,64.0,45.0,2.0
1.0,62.0,38.0,6.0
1.0,80.0,59.0,2.0
1.0,81.0,49.0,14.0
1.0,80.0,68.0,0.0
1.0,81.0,56.0,12.0
1.0,64.0,46.0,32.0
1.0,80.0,56.0,8.0
1.0,78.0,62.0,12.0
1.0,61.0,41.0,0.0
1.0,76.0,64.0,0.0
1.0,64.0,46.0,4.0
1.0,69.0,52.0,0.0
1.0,81.0,62.0,0.0
1.0,80.0,62.0,36.0
1.0,62.0,34.0,4.0
1.0,81.0,55.0,18.0
1.0,80.0,61.0,8.0
1.0,81.0,54.0,4.0
1.0,71.0,48.0,34.0
1.0,64.0,56.0,6.0
1.0,80.0,29.0,20.0
1.0,78.0,62.0,52.0
1.0,61.0,52.0,0.0
1.0,76.0,63.0,0.0
1.0,81.0,61.0,16.0
1.0,69.0,52.0,8.0
1.0,64.0,56.0,0.0
1.0,73.0,70.0,64.0
1.0,73.0,69.0,40.0
1.0,76.0,58.0,16.0
1.0,71.0,63.0,8.0
1.0,62.0,54.0,2.0
1.0,56.0,51.0,2.0
1.0,52.0,49.0,4.0
1.0,71.0,67.0,32.0
1.0,73.0,54.0,18.0
1.0,57.0,60.0,8.0
1.0,61.0,61.0,8.0
1.0,69.0,66.0,0.0
1.0,69.0,66.0,82.0
1.0,81.0,64.0,6.0
1.0,76.0,61.0,0.0
1.0,45.0,71.0,0.0
1.0,57.0,64.0,2.0
1.0,49.0,58.0,2.0
1.0,73.0,56.0,4.0
1.0,52.0,66.0,2.0
1.0,71.0,71.0,360.0
1.0,76.0,65.0,18.0
1.0,45.0,63.0,16.0
1.0,73.0,67.0,2.0
1.0,69.0,66.0,84.0
1.0,52.0,47.0,0.0
1.0,57.0,52.0,8.0
1.0,50.0,61.0,100.0
1.0,64.0,72.0,6.0
1.0,71.0,63.0,78.0
1.0,56.0,56.0,4.0
1.0,69.0,67.0,116.0
1.0,49.0,44.0,4.0
1.0,52.0,55.0,80.0
1.0,57.0,52.0,6.0
1.0,56.0,68.0,96.0
1.0,71.0,71.0,8.0
1.0,73.0,54.0,2.0
1.0,64.0,49.0,86.0
1.0,59.0,48.0,0.0
1.0,76.0,61.0,0.0
1.0,74.0,51.0,78.0
1.0,57.0,51.0,72.0
1.0,73.0,61.0,8.0
1.0,74.0,58.0,74.0
1.0,61.0,45.0,64.0
1.0,64.0,56.0,10.0
1.0,76.0,62.0,0.0
1.0,78.0,60.0,8.0
1.0,59.0,56.0,78.0
1.0,74.0,67.0,0.0
1.0,76.0,64.0,8.0
1.0,68.0,42.0,88.0
1.0,62.0,47.0,0.0
1.0,80.0,61.0,4.0
1.0,78.0,49.0,0.0
1.0,76.0,71.0,8.0
1.0,61.0,28.0,16.0
1.0,64.0,41.0,58.0
1.0,69.0,41.0,2.0
1.0,76.0,73.0,68.0
1.0,61.0,53.0,0.0
1.0,81.0,69.0,4.0
1.0,69.0,38.0,0.0
1.0,64.0,55.0,0.0
1.0,80.0,66.0,2.0
1.0,62.0,40.0,2.0
1.0,81.0,52.0,8.0
1.0,80.0,67.0,0.0
1.0,81.0,49.0,6.0
1.0,71.0,27.0,32.0
1.0,80.0,62.0,0.0
1.0,64.0,54.0,0.0
1.0,78.0,61.0,2.0
1.0,76.0,69.0,6.0
1.0,61.0,53.0,2.0
1.0,81.0,58.0,40.0
1.0,69.0,49.0,10.0
1.0,64.0,50.0,2.0
1.0,62.0,42.0,56.0
1.0,80.0,69.0,16.0
1.0,81.0,54.0,8.0
1.0,80.0,66.0,2.0
1.0,81.0,54.0,16.0
1.0,71.0,44.0,8.0
1.0,64.0,58.0,6.0
1.0,80.0,47.0,0.0
1.0,78.0,66.0,0.0
1.0,76.0,64.0,14.0
1.0,61.0,47.0,0.0
1.0,64.0,57.0,48.0
1.0,69.0,45.0,0.0
1.0,81.0,63.0,8.0
1.0,56.0,60.0,26.0
1.0,73.0,61.0,6.0
1.0,76.0,63.0,4.0
1.0,78.0,56.0,88.0
1.0,64.0,46.0,12.0
1.0,59.0,47.0,2.0
1.0,74.0,61.0,6.0
1.0,57.0,62.0,88.0
1.0,74.0,65.0,8.0
1.0,71.0,59.0,0.0
1.0,76.0,40.0,18.0
1.0,69.0,64.0,70.0
1.0,73.0,57.0,8.0
1.0,64.0,59.0,0.0
1.0,52.0,51.0,120.0
1.0,70.0,54.0,0.0
1.0,67.0,49.0,8.0
1.0,64.0,59.0,10.0
1.0,71.0,54.0,26.0
1.0,68.0,62.0,6.0
1.0,76.0,67.0,38.0
1.0,73.0,59.0,180.0
1.0,45.0,61.0,0.0
1.0,69.0,62.0,74.0
1.0,57.0,57.0,0.0
1.0,52.0,61.0,2.0
1.0,50.0,57.0,104.0
1.0,64.0,63.0,4.0
1.0,71.0,59.0,76.0
1.0,56.0,51.0,8.0
1.0,69.0,62.0,108.0
1.0,49.0,54.0,2.0
1.0,52.0,46.0,186.0
1.0,57.0,48.0,6.0
1.0,56.0,62.0,48.0
1.0,71.0,66.0,2.0
1.0,73.0,56.0,0.0
1.0,64.0,41.0,70.0
1.0,59.0,57.0,0.0
1.0,76.0,67.0,0.0
1.0,74.0,56.0,10.0
1.0,57.0,62.0,86.0
1.0,73.0,69.0,0.0
1.0,74.0,66.0,0.0
1.0,76.0,71.0,24.0
1.0,64.0,57.0,0.0
1.0,61.0,57.0,0.0
1.0,78.0,67.0,76.0
1.0,74.0,71.0,96.0
1.0,59.0,55.0,0.0
1.0,76.0,67.0,8.0
1.0,68.0,45.0,80.0
1.0,80.0,67.0,4.0
1.0,62.0,49.0,2.0
1.0,78.0,50.0,76.0
1.0,76.0,64.0,18.0
1.0,61.0,54.0,8.0
1.0,64.0,58.0,194.0
1.0,69.0,51.0,4.0
1.0,76.0,74.0,80.0
1.0,61.0,60.0,0.0
1.0,81.0,66.0,40.0
1.0,69.0,52.0,2.0
1.0,64.0,45.0,2.0
1.0,62.0,38.0,6.0
1.0,80.0,59.0,2.0
1.0,81.0,49.0,14.0
1.0,80.0,68.0,0.0
1.0,81.0,56.0,12.0
1.0,64.0,46.0,32.0
1.0,80.0,56.0,8.0
1.0,78.0,62.0,12.0
1.0,61.0,41.0,0.0
1.0,76.0,64.0,0.0
1.0,64.0,46.0,4.0
1.0,69.0,52.0,0.0
1.0,81.0,62.0,0.0
1.0,80.0,62.0,36.0
1.0,62.0,34.0,4.0
1.0,81.0,55.0,18.0
1.0,80.0,61.0,8.0
1.0,81.0,54.0,4.0
1.0,71.0,48.0,34.0
1.0,64.0,56.0,6.0
1.0,80.0,29.0,20.0
1.0,78.0,62.0,52.0
1.0,61.0,52.0,0.0
1.0,76.0,63.0,0.0
1.0,81.0,61.0,16.0
1.0,69.0,52.0,8.0
1.0,64.0,56.0,0.0
1.0,73.0,70.0,64.0
1.0,73.0,69.0,40.0
1.0,76.0,58.0,16.0
1.0,71.0,63.0,8.0
1.0,62.0,54.0,2.0
1.0,56.0,51.0,2.0
1.0,52.0,49.0,4.0
1.0,71.0,67.0,32.0
1.0,73.0,54.0,18.0
1.0,57.0,60.0,8.0
1.0,61.0,61.0,8.0
1.0,69.0,66.0,0.0
1.0,69.0,66.0,82.0
1.0,81.0,64.0,6.0
1.0,76.0,61.0,0.0
1.0,45.0,71.0,0.0
1.0,57.0,64.0,2.0
1.0,49.0,58.0,2.0
1.0,73.0,56.0,4.0
1.0,52.0,66.0,2.0
2.0,71.0,71.0,360.0
2.0,76.0,65.0,18.0
2.0,45.0,63.0,16.0
2.0,73.0,67.0,2.0
2.0,69.0,66.0,84.0
2.0,52.0,47.0,0.0
2.0,57.0,52.0,8.0
2.0,50.0,61.0,100.0
2.0,64.0,72.0,6.0
2.0,71.0,63.0,78.0
2.0,56.0,56.0,4.0
2.0,69.0,67.0,116.0
2.0,49.0,44.0,4.0
2.0,52.0,55.0,80.0
2.0,57.0,52.0,6.0
2.0,56.0,68.0,96.0
2.0,71.0,71.0,8.0
2.0,73.0,54.0,2.0
2.0,64.0,49.0,86.0
2.0,59.0,48.0,0.0
2.0,76.0,61.0,0.0
2.0,74.0,51.0,78.0
2.0,57.0,51.0,72.0
2.0,73.0,61.0,8.0
2.0,74.0,58.0,74.0
2.0,61.0,45.0,64.0
2.0,64.0,56.0,10.0
2.0,76.0,62.0,0.0
2.0,78.0,60.0,8.0
2.0,59.0,56.0,78.0
2.0,74.0,67.0,0.0
2.0,76.0,64.0,8.0
2.0,68.0,42.0,88.0
2.0,62.0,47.0,0.0
2.0,80.0,61.0,4.0
2.0,78.0,49.0,0.0
2.0,76.0,71.0,8.0
2.0,61.0,28.0,16.0
2.0,64.0,41.0,58.0
2.0,69.0,41.0,2.0
2.0,76.0,73.0,68.0
2.0,61.0,53.0,0.0
2.0,81.0,69.0,4.0
2.0,69.0,38.0,0.0
2.0,64.0,55.0,0.0
2.0,80.0,66.0,2.0
2.0,62.0,40.0,2.0
2.0,81.0,52.0,8.0
2.0,80.0,67.0,0.0
2.0,81.0,49.0,6.0
2.0,71.0,27.0,32.0
2.0,80.0,62.0,0.0
2.0,64.0,54.0,0.0
2.0,78.0,61.0,2.0
2.0,76.0,69.0,6.0
2.0,61.0,53.0,2.0
2.0,81.0,58.0,40.0
2.0,69.0,49.0,10.0
2.0,64.0,50.0,2.0
2.0,62.0,42.0,56.0
2.0,80.0,69.0,16.0
2.0,81.0,54.0,8.0
2.0,80.0,66.0,2.0
2.0,81.0,54.0,16.0
2.0,71.0,44.0,8.0
2.0,64.0,58.0,6.0
2.0,80.0,47.0,0.0
2.0,78.0,66.0,0.0
2.0,76.0,64.0,14.0
2.0,61.0,47.0,0.0
2.0,64.0,57.0,48.0
2.0,69.0,45.0,0.0
2.0,81.0,63.0,8.0
2.0,56.0,60.0,26.0
2.0,73.0,61.0,6.0
2.0,76.0,63.0,4.0
2.0,78.0,56.0,88.0
2.0,64.0,46.0,12.0
2.0,59.0,47.0,2.0
2.0,74.0,61.0,6.0
2.0,57.0,62.0,88.0
2.0,74.0,65.0,8.0
2.0,71.0,59.0,0.0
2.0,76.0,40.0,18.0
2.0,69.0,64.0,70.0
2.0,73.0,57.0,8.0
2.0,64.0,59.0,0.0
2.0,52.0,51.0,120.0
2.0,70.0,54.0,0.0
2.0,67.0,49.0,8.0
2.0,64.0,59.0,10.0
2.0,71.0,54.0,26.0
2.0,68.0,62.0,6.0
2.0,76.0,67.0,38.0
2.0,73.0,59.0,180.0
2.0,45.0,61.0,0.0
2.0,69.0,62.0,74.0
2.0,57.0,57.0,0.0
2.0,52.0,61.0,2.0
2.0,50.0,57.0,104.0
2.0,64.0,63.0,4.0
2.0,71.0,59.0,76.0
2.0,56.0,51.0,8.0
2.0,69.0,62.0,108.0
2.0,49.0,54.0,2.0
2.0,52.0,46.0,186.0
2.0,57.0,48.0,6.0
2.0,56.0,62.0,48.0
2.0,71.0,66.0,2.0
2.0,73.0,56.0,0.0
2.0,64.0,41.0,70.0
2.0,59.0,57.0,0.0
2.0,76.0,67.0,0.0
2.0,74.0,56.0,10.0
2.0,57.0,62.0,86.0
2.0,73.0,69.0,0.0
2.0,74.0,66.0,0.0
2.0,76.0,71.0,24.0
2.0,64.0,57.0,0.0
2.0,61.0,57.0,0.0
2.0,78.0,67.0,76.0
2.0,74.0,71.0,96.0
2.0,59.0,55.0,0.0
2.0,76.0,67.0,8.0
2.0,68.0,45.0,80.0
2.0,80.0,67.0,4.0
2.0,62.0,49.0,2.0
2.0,78.0,50.0,76.0
2.0,76.0,64.0,18.0
2.0,61.0,54.0,8.0
2.0,64.0,58.0,194.0
2.0,69.0,51.0,4.0
2.0,76.0,74.0,80.0
2.0,61.0,60.0,0.0
2.0,81.0,66.0,40.0
2.0,69.0,52.0,2.0
2.0,64.0,45.0,2.0
2.0,62.0,38.0,6.0
2.0,80.0,59.0,2.0
2.0,81.0,49.0,14.0
2.0,80.0,68.0,0.0
2.0,81.0,56.0,12.0
2.0,64.0,46.0,32.0
2.0,80.0,56.0,8.0
2.0,78.0,62.0,12.0
2.0,61.0,41.0,0.0
2.0,76.0,64.0,0.0
2.0,64.0,46.0,4.0
2.0,69.0,52.0,0.0
2.0,81.0,62.0,0.0
2.0,80.0,62.0,36.0
2.0,62.0,34.0,4.0
2.0,81.0,55.0,18.0
2.0,80.0,61.0,8.0
2.0,81.0,54.0,4.0
2.0,71.0,48.0,34.0
2.0,64.0,56.0,6.0
2.0,80.0,29.0,20.0
2.0,78.0,62.0,52.0
2.0,61.0,52.0,0.0
2.0,76.0,63.0,0.0
2.0,81.0,61.0,16.0
2.0,69.0,52.0,8.0
2.0,64.0,56.0,0.0
2.0,73.0,70.0,64.0
2.0,73.0,69.0,40.0
2.0,76.0,58.0,16.0
2.0,71.0,63.0,8.0
2.0,62.0,54.0,2.0
2.0,56.0,51.0,2.0
2.0,52.0,49.0,4.0
2.0,71.0,67.0,32.0
2.0,73.0,54.0,18.0
2.0,57.0,60.0,8.0
2.0,61.0,61.0,8.0
2.0,69.0,66.0,0.0
2.0,69.0,66.0,82.0
2.0,81.0,64.0,6.0
2.0,76.0,61.0,0.0
2.0,45.0,71.0,0.0
2.0,57.0,64.0,2.0
2.0,49.0,58.0,2.0
2.0,73.0,56.0,4.0
2.0,52.0,66.0,2.0
2.0,71.0,71.0,360.0
2.0,76.0,65.0,18.0
2.0,45.0,63.0,16.0
2.0,73.0,67.0,2.0
2.0,69.0,66.0,84.0
2.0,52.0,47.0,0.0
2.0,57.0,52.0,8.0
2.0,50.0,61.0,100.0
2.0,64.0,72.0,6.0
2.0,71.0,63.0,78.0
2.0,56.0,56.0,4.0
2.0,69.0,67.0,116.0
2.0,49.0,44.0,4.0
2.0,52.0,55.0,80.0
2.0,57.0,52.0,6.0
2.0,56.0,68.0,96.0
2.0,71.0,71.0,8.0
2.0,73.0,54.0,2.0
2.0,64.0,49.0,86.0
2.0,59.0,48.0,0.0
2.0,76.0,61.0,0.0
2.0,74.0,51.0,78.0
2.0,57.0,51.0,72.0
2.0,73.0,61.0,8.0
2.0,74.0,58.0,74.0
2.0,61.0,45.0,64.0
2.0,64.0,56.0,10.0
2.0,76.0,62.0,0.0
2.0,78.0,60.0,8.0
2.0,59.0,56.0,78.0
2.0,74.0,67.0,0.0
2.0,76.0,64.0,8.0
2.0,68.0,42.0,88.0
2.0,62.0,47.0,0.0
2.0,80.0,61.0,4.0
2.0,78.0,49.0,0.0
2.0,76.0,71.0,8.0
2.0,61.0,28.0,16.0
2.0,64.0,41.0,58.0
2.0,69.0,41.0,2.0
2.0,76.0,73.0,68.0
2.0,61.0,53.0,0.0
2.0,81.0,69.0,4.0
2.0,69.0,38.0,0.0
2.0,64.0,55.0,0.0
2.0,80.0,66.0,2.0
2.0,62.0,40.0,2.0
2.0,81.0,52.0,8.0
2.0,80.0,67.0,0.0
2.0,81.0,49.0,6.0
2.0,71.0,27.0,32.0
2.0,80.0,62.0,0.0
2.0,64.0,54.0,0.0
2.0,78.0,61.0,2.0
2.0,76.0,69.0,6.0
2.0,61.0,53.0,2.0
2.0,81.0,58.0,40.0
2.0,69.0,49.0,10.0
2.0,64.0,50.0,2.0
2.0,62.0,42.0,56.0
2.0,80.0,69.0,16.0
2.0,81.0,54.0,8.0
2.0,80.0,66.0,2.0
2.0,81.0,54.0,16.0
2.0,71.0,44.0,8.0
2.0,64.0,58.0,6.0
2.0,80.0,47.0,0.0
2.0,78.0,66.0,0.0
2.0,76.0,64.0,14.0
2.0,61.0,47.0,0.0
2.0,64.0,57.0,48.0
2.0,69.0,45.0,0.0
2.0,81.0,63.0,8.0
2.0,56.0,60.0,26.0
2.0,73.0,61.0,6.0
2.0,76.0,63.0,4.0
2.0,78.0,56.0,88.0
2.0,64.0,46.0,12.0
2.0,59.0,47.0,2.0
2.0,74.0,61.0,6.0
2.0,57.0,62.0,88.0
2.0,74.0,65.0,8.0
2.0,71.0,59.0,0.0
2.0,76.0,40.0,18.0
2.0,69.0,64.0,70.0
2.0,73.0,57.0,8.0
2.0,64.0,59.0,0.0
2.0,52.0,51.0,120.0
2.0,70.0,54.0,0.0
2.0,67.0,49.0,8.0
2.0,64.0,59.0,10.0
2.0,71.0,54.0,26.0
2.0,68.0,62.0,6.0
2.0,76.0,67.0,38.0
2.0,73.0,59.0,180.0
2.0,45.0,61.0,0.0
2.0,69.0,62.0,74.0
2.0,57.0,57.0,0.0
2.0,52.0,61.0,2.0
2.0,50.0,57.0,104.0
2.0,64.0,63.0,4.0
2.0,71.0,59.0,76.0
2.0,56.0,51.0,8.0
2.0,69.0,62.0,108.0
2.0,49.0,54.0,2.0
2.0,52.0,46.0,186.0
2.0,57.0,48.0,6.0
2.0,56.0,62.0,48.0
2.0,71.0,66.0,2.0
2.0,73.0,56.0,0.0
2.0,64.0,41.0,70.0
2.0,59.0,57.0,0.0
2.0,76.0,67.0,0.0
2.0,74.0,56.0,10.0
2.0,57.0,62.0,86.0
2.0,73.0,69.0,0.0
2.0,74.0,66.0,0.0
2.0,76.0,71.0,24.0
2.0,64.0,57.0,0.0
2.0,61.0,57.0,0.0
2.0,78.0,67.0,76.0
2.0,74.0,71.0,96.0
2.0,59.0,55.0,0.0
2.0,76.0,67.0,8.0
2.0,68.0,45.0,80.0
2.0,80.0,67.0,4.0
2.0,62.0,49.0,2.0
2.0,78.0,50.0,76.0
2.0,76.0,64.0,18.0
2.0,61.0,54.0,8.0
2.0,64.0,58.0,194.0
2.0,69.0,51.0,4.0
2.0,76.0,74.0,80.0
2.0,61.0,60.0,0.0
2.0,81.0,66.0,40.0
2.0,69.0,52.0,2.0
2.0,64.0,45.0,2.0
2.0,62.0,38.0,6.0
2.0,80.0,59.0,2.0
2.0,81.0,49.0,14.0
2.0,80.0,68.0,0.0
2.0,81.0,56.0,12.0
2.0,64.0,46.0,32.0
2.0,80.0,56.0,8.0
2.0,78.0,62.0,12.0
2.0,61.0,41.0,0.0
2.0,76.0,64.0,0.0
2.0,64.0,46.0,4.0
2.0,69.0,52.0,0.0
2.0,81.0,62.0,0.0
2.0,80.0,62.0,36.0
2.0,62.0,34.0,4.0
2.0,81.0,55.0,18.0
2.0,80.0,61.0,8.0
2.0,81.0,54.0,4.0
2.0,71.0,48.0,34.0
2.0,64.0,56.0,6.0
2.0,80.0,29.0,20.0
2.0,78.0,62.0,52.0
2.0,61.0,52.0,0.0
2.0,76.0,63.0,0.0
2.0,81.0,61.0,16.0
2.0,69.0,52.0,8.0
2.0,64.0,56.0,0.0
2.0,73.0,70.0,64.0
2.0,73.0,69.0,40.0
2.0,76.0,58.0,16.0
2.0,71.0,63.0,8.0
2.0,62.0,54.0,2.0
2.0,56.0,51.0,2.0
2.0,52.0,49.0,4.0
2.0,71.0,67.0,32.0
2.0,73.0,54.0,18.0
2.0,57.0,60.0,8.0
2.0,61.0,61.0,8.0
2.0,69.0,66.0,0.0
2.0,69.0,66.0,82.0
2.0,81.0,64.0,6.0
2.0,76.0,61.0,0.0
2.0,45.0,71.0,0.0
2.0,57.0,64.0,2.0
2.0,49.0,58.0,2.0
2.0,73.0,56.0,4.0
2.0,52.0,66.0,2.0
0.0,0.0,0.0,0.0
0.0,0.0,0.0,0.0
0.0,0.0,0.0,0.0
0.0,0.0,0.0,0.0
0.0,0.0,0.0,0.0
0.0,0.0,0.0,0.0
0.0,0.0,0.0,0.0
0.0,0.0,0.0,0.0
0.0,0.0,0.0,0.0
0.0,0.0,0.0,0.0
0.0,0.0,0.0,0.0
0.0,0.0,0.0,0.0
0.0,0.0,0.0,0.0
0.0,0.0,0.0,0.0
0.0,0.0,0.0,0.0
0.0,0.0,0.0,0.0
0.0,0.0,0.0,0.0
0.0,0.0,0.0,0.0
0.0,0.0,0.0,0.0
0.0,0.0,0.0,0.0
0.0,0.0,0.0,0.0
0.0,0.0,0.0,0.0
0.0,0.0,0.0,0.0
0.0,0.0,0.0,0.0
0.0,0.0,0.0,0.0
0.0,0.0,0.0,0.0
0.0,0.0,0.0,0.0
0.0,0.0,0.0,0.0
0.0,0.0,0.0,0.0
0.0,0.0,0.0,0.0
0.0,0.0,0.0,0.0
0.0,0.0,0.0,0.0
0.0,0.0,0.0,0.0
0.0,0.0,0.0,0.0
0.0,0.0,0.0,0.0
0.0,0.0,0.0,0.0
0.0,0.0,0.0,0.0
0.0,0.0,0.0,0.0
0.0,0.0,0.0,0.0
0.0,0.0,0.0,0.0
0.0,0.0,0.0,0.0
0.0,0.0,0.0,0.0
0.0,0.0,0.0,0.0
0.0,0.0,0.0,0.0
0.0,0.0,0.0,0.0
0.0,0.0,0.0,0.0
0.0,0.0,0.0,0.0
0.0,0.0,0.0,0.0
0.0,0.0,0.0,0.0
0.0,0.0,0.0,0.0
0.0,0.0,0.0,0.0
0.0,0.0,0.0,0.0
0.0,0.0,0.0,0.0
0.0,0.0,0.0,0.0
0.0,0.0,0.0,0.0
0.0,0.0,0.0,0.0
0.0,0.0,0.0,0.0
0.0,0.0,0.0,0.0
0.0,0.0,0.0,0.0
0.0,0.0,0.0,0.0
0.0,0.0,0.0,0.0
0.0,0.0,0.0,0.0
0.0,0.0,0.0,0.0
0.0,0.0,0.0,0.0
0.0,0.0,0.0,0.0
0.0,0.0,0.0,0.0
0.0,0.0,0.0,0.0
0.0,0.0,0.0,0.0
0.0,0.0,0.0,0.0
0.0,0.0,0.0,0.0
0.0,0.0,0.0,0.0
0.0,0.0,0.0,0.0
0.0,0.0,0.0,0.0
0.0,0.0,0.0,0.0
0.0,0.0,0.0,0.0
0.0,0.0,0.0,0.0
0.0,0.0,0.0,0.0
0.0,0.0,0.0,0.0
0.0,0.0,0.0,0.0
0.0,0.0,0.0,0.0
0.0,0.0,0.0,0.0
0.0,0.0,0.0,0.0
0.0,0.0,0.0,0.0
0.0,0.0,0.0,0.0
0.0,0.0,0.0,0.0
0.0,0.0,0.0,0.0
0.0,0.0,0.0,0.0
0.0,0.0,0.0,0.0
0.0,0.0,0.0,0.0
0.0,0.0,0.0,0.0
0.0,0.0,0.0,0.0
0.0,0.0,0.0,0.0
0.0,0.0,0.0,0.0
0.0,0.0,0.0,0.0
0.0,0.0,0.0,0.0
0.0,0.0,0.0,0.0
0.0,0.0,0.0,0.0
0.0,0.0,0.0,0.0
0.0,0.0,0.0,0.0
0.0,0.0,0.0,0.0
0.0,0.0,0.0,0.0
0.0,0.0,0.0,0.0
0.0,0.0,0.0,0.0
0.0,0.0,0.0,0.0
0.0,0.0,0.0,0.0
0.0,0.0,0.0,0.0
0.0,0.0,0.0,0.0
0.0,0.0,0.0,0.0
0.0,0.0,0.0,0.0
0.0,0.0,0.0,0.0
0.0,0.0,0.0,0.0
0.0,0.0,0.0,0.0
0.0,0.0,0.0,0.0
0.0,0.0,0.0,0.0
0.0,0.0,0.0,0.0
0.0,0.0,0.0,0.0
0.0,0.0,0.0,0.0
0.0,0.0,0.0,0.0
0.0,0.0,0.0,0.0
0.0,0.0,0.0,0.0
0.0,0.0,0.0,0.0
0.0,0.0,0.0,0.0
0.0,0.0,0.0,0.0
0.0,0.0,0.0,0.0
0.0,0.0,0.0,0.0
0.0,0.0,0.0,0.0
0.0,0.0,0.0,0.0
0.0,0.0,0.0,0.0
0.0,0.0,0.0,0.0
0.0,0.0,0.0,0.0
0.0,0.0,0.0,0.0
0.0,0.0,0.0,0.0
0.0,0.0,0.0,0.0
0.0,0.0,0.0,0.0
0.0,0.0,0.0,0.0
0.0,0.0,0.0,0.0
0.0,0.0,0.0,0.0
0.0,0.0,0.0,0.0
0.0,0.0,0.0,0.0
0.0,0.0,0.0,0.0
0.0,0.0,0.0,0.0
0.0,0.0,0.0,0.0
0.0,0.0,0.0,0.0
0.0,0.0,0.0,0.0
0.0,0.0,0.0,0.0
0.0,0.0,0.0,0.0
0.0,0.0,0.0,0.0
0.0,0.0,0.0,0.0
0.0,0.0,0.0,0.0
0.0,0.0,0.0,0.0
0.0,0.0,0.0,0.0
0.0,0.0,0.0,0.0
0.0,0.0,0.0,0.0
0.0,0.0,0.0,0.0
0.0,0.0,0.0,0.0
0.0,0.0,0.0,0.0
0.0,0.0,0.0,0.0
0.0,0.0,0.0,0.0
0.0,0.0,0.0,0.0
0.0,0.0,0.0,0.0
0.0,0.0,0.0,0.0
0.0,0.0,0.0,0.0
0.0,0.0,0.0,0.0
0.0,0.0,0.0,0.0
0.0,0.0,0.0,0.0
0.0,0.0,0.0,0.0
0.0,0.0,0.0,0.0
0.0,0.0,0.0,0.0
0.0,0.0,0.0,0.0
0.0,0.0,0.0,0.0
0.0,0.0,0.0,0.0
0.0,0.0,0.0,0.0
0.0,0.0,0.0,0.0
0.0,0.0,0.0,0.0
0.0,0.0,0.0,0.0
0.0,0.0,0.0,0.0
0.0,0.0,0.0,0.0
0.0,0.0,0.0,0.0
0.0,0.0,0.0,0.0
0.0,0.0,0.0,0.0
0.0,0.0,0.0,0.0
0.0,0.0,0.0,0.0
0.0,0.0,0.0,0.0
0.0,0.0,0.0,0.0
0.0,0.0,0.0,0.0
0.0,0.0,0.0,0.0
0.0,0.0,0.0,0.0
0.0,0.0,0.0,0.0
0.0,0.0,0.0,0.0
0.0,0.0,0.0,0.0
0.0,0.0,0.0,0.0
0.0,0.0,0.0,0.0
0.0,0.0,0.0,0.0
0.0,0.0,0.0,0.0
0.0,0.0,0.0,0.0
0.0,0.0,0.0,0.0
0.0,0.0,0.0,0.0
0.0,0.0,0.0,0.0
0.0,0.0,0.0,0.0
0.0,0.0,0.0,0.0
0.0,0.0,0.0,0.0
0.0,0.0,0.0,0.0
0.0,0.0,0.0,0.0
0.0,0.0,0.0,0.0
0.0,0.0,0.0,0.0
0.0,0.0,0.0,0.0
0.0,0.0,0.0,0.0
0.0,0.0,0.0,0.0
0.0,0.0,0.0,0.0
0.0,0.0,0.0,0.0
0.0,0.0,0.0,0.0
0.0,0.0,0.0,0.0
0.0,0.0,0.0,0.0
0.0,0.0,0.0,0.0
0.0,0.0,0.0,0.0
0.0,0.0,0.0,0.0
0.0,0.0,0.0,0.0
0.0,0.0,0.0,0.0
0.0,0.0,0.0,0.0
0.0,0.0,0.0,0.0
0.0,0.0,0.0,0.0
0.0,0.0,0.0,0.0
0.0,0.0,0.0,0.0
0.0,0.0,0.0,0.0
0.0,0.0,0.0,0.0
0.0,0.0,0.0,0.0
0.0,0.0,0.0,0.0
0.0,0.0,0.0,0.0
0.0,0.0,0.0,0.0
0.0,0.0,0.0,0.0
0.0,0.0,0.0,0.0
0.0,0.0,0.0,0.0
0.0,0.0,0.0,0.0
0.0,0.0,0.0,0.0
0.0,0.0,0.0,0.0
0.0,0.0,0.0,0.0
0.0,0.0,0.0,0.0
0.0,0.0,0.0,0.0
0.0,0.0,0.0,0.0
0.0,0.0,0.0,0.0
0.0,0.0,0.0,0.0
0.0,0.0,0.0,0.0
0.0,0.0,0.0,0.0
0.0,0.0,0.0,0.0
0.0,0.0,0.0,0.0
0.0,0.0,0.0,0.0
0.0,0.0,0.0,0.0
0.0,0.0,0.0,0.0
0.0,0.0,0.0,0.0
0.0,0.0,0.0,0.0
0.0,0.0,0.0,0.0
0.0,0.0,0.0,0.0
0.0,0.0,0.0,0.0
0.0,0.0,0.0,0.0
0.0,0.0,0.0,0.0
0.0,0.0,0.0,0.0
0.0,0.0,0.0,0.0
0.0,0.0,0.0,0.0
0.0,0.0,0.0,0.0
0.0,0.0,0.0,0.0
0.0,0.0,0.0,0.0
0.0,0.0,0.0,0.0
0.0,0.0,0.0,0.0
0.0,0.0,0.0,0.0
