track,note,velocity,time
0,35,94,0
0,51,101,0
0,54,93,0
0,59,96,0
0,47,94,168
0,51,95,4
0,54,93,4
0,40,101,4
0,45,100,4
0,52,119,0
0,57,110,0
0,59,111,0
0,61,108,4
0,52,114,24
0,44,109,4
0,52,112,0
0,56,103,0
0,59,118,0
0,42,109,52
0,42,108,24
0,52,111,0
0,54,110,0
0,57,110,0
0,40,73,0
0,40,106,4
0,47,104,0
0,52,97,0
0,56,108,0
0,52,89,0
0,56,74,0
0,59,68,4
0,64,88,4
0,59,95,168
0,64,101,4
0,52,106,24
0,47,81,0
0,35,87,4
0,23,97,0
0,51,103,0
0,54,93,0
0,59,102,0
0,54,71,0
0,59,88,0
0,51,110,120
0,59,105,0
0,47,87,3
0,51,115,23
0,57,101,0
0,39,100,24
0,47,85,0
0,40,71,1
0,40,73,0
0,56,76,0
0,59,75,0
0,64,70,0
0,68,109,0
0,40,76,0
0,52,90,0
0,36,98,0
0,56,75,0
0,59,77,0
0,64,71,4
0,68,96,11
0,68,101,3
0,68,93,1
0,36,86,0
0,36,118,0
0,40,80,25
0,56,88,0
0,59,85,0
0,64,89,0
0,47,80,1
0,66,106,0
0,40,70,1
0,57,87,0
0,59,88,0
0,64,86,0
0,61,82,4
0,68,101,0
0,40,71,1
0,64,110,0
0,45,94,0
0,45,88,4
0,45,72,0
0,52,71,0
0,57,71,0
0,61,71,0
0,52,76,0
0,36,119,0
0,57,86,0
0,61,76,1
0,64,76,4
0,57,75,72
0,73,118,0
0,52,71,4
0,73,118,0
0,61,70,52
0,36,93,4
0,61,78,5
0,57,76,24
0,36,117,0
0,52,77,1
0,71,99,5
0,57,82,1
0,45,86,24
0,59,93,0
0,61,87,0
0,64,92,0
0,71,87,0
0,52,88,0
0,52,82,1
0,73,108,0
0,57,76,0
0,61,84,0
0,64,76,4
0,59,72,24
0,61,82,0
0,64,93,0
0,47,77,1
0,59,87,0
0,61,92,0
0,64,92,0
0,71,91,0
0,71,104,25
0,47,94,0
0,40,86,0
0,44,72,0
0,56,81,0
0,59,75,0
0,64,74,0
0,40,87,0
0,52,76,0
0,36,113,0
0,56,86,0
0,59,80,4
0,64,75,4
0,64,79,1
0,64,99,27
0,36,86,12
0,68,89,48
0,56,70,1
0,59,86,0
0,64,70,0
0,36,126,0
0,69,100,2
0,68,95,1
0,40,89,2
0,56,88,0
0,59,85,0
0,64,91,0
0,40,61,0
0,66,105,3
0,40,87,4
0,40,88,48
0,59,76,0
0,64,77,0
0,68,89,1
0,56,92,3
0,59,89,0
0,64,91,0
0,40,80,0
0,59,101,0
0,40,65,4
0,45,93,0
0,45,83,4
0,45,83,0
0,52,76,0
0,57,74,0
0,61,74,0
0,52,78,0
0,36,126,0
0,57,82,0
0,61,75,4
0,64,74,4
0,45,63,0
0,57,75,8
0,45,83,0
0,45,84,2
0,52,89,4
0,36,91,0
0,57,84,1
0,61,81,3
0,64,75,4
0,57,82,4
0,45,74,4
0,36,116,0
0,52,76,1
0,59,78,1
0,52,85,1
0,57,87,0
0,61,90,0
0,45,70,1
0,47,75,1
0,66,124,0
0,52,51,0
0,42,59,0
0,57,57,1
0,64,70,8
0,66,82,22
0,42,60,0
0,47,70,3
0,68,77,0
0,46,66,0
0,69,83,1
0,69,91,0
0,45,76,0
0,40,81,1
0,40,77,0
0,56,66,0
0,64,66,0
0,71,84,0
0,40,83,0
0,47,85,0
0,52,93,0
0,56,94,0
0,59,74,0
0,64,76,0
0,36,108,0
0,71,107,1
0,52,74,3
0,36,97,5
0,47,78,8
0,40,91,0
0,40,78,4
0,40,84,0
0,47,89,0
0,36,104,0
0,59,87,13
0,64,93,4
0,59,72,4
0,64,80,0
0,66,88,0
0,36,88,0
0,40,91,4
0,47,86,0
0,64,119,2
0,66,96,1
0,59,74,2
0,64,73,0
0,68,123,6
0,40,71,1
0,59,78,0
0,64,90,0
0,68,90,0
0,64,120,3
0,45,80,1
0,45,72,0
0,61,81,0
0,64,78,0
0,69,75,0
0,45,93,0
0,52,78,0
0,57,83,0
0,61,80,0
0,64,71,0
0,36,118,0
0,73,105,71
0,73,109,2
0,52,80,33
0,52,78,4
0,57,73,3
0,74,101,0
0,36,92,0
0,52,82,4
0,45,80,4
0,36,113,0
0,59,88,11
0,64,92,0
0,69,88,0
0,71,117,1
0,59,91,4
0,64,85,0
0,69,88,0
0,71,108,1
0,47,75,2
0,73,124,2
0,59,85,10
0,64,91,0
0,69,87,0
0,61,81,1
0,71,119,0
0,45,95,0
0,40,84,1
0,71,121,1
0,40,83,1
0,40,76,0
0,59,82,0
0,64,71,0
0,68,82,0
0,40,82,0
0,47,71,0
0,52,75,0
0,56,89,0
0,59,76,0
0,64,84,0
0,36,114,0
0,64,110,2
0,64,83,46
0,59,83,4
0,44,77,7
0,68,107,27
0,36,127,0
0,68,100,30
0,59,86,1
0,64,92,0
0,69,90,0
0,69,112,0
0,40,87,0
0,36,127,0
0,59,93,5
0,64,92,0
0,68,88,0
0,66,108,1
0,40,71,4
0,59,90,48
0,66,90,0
0,44,70,2
0,61,88,0
0,64,85,0
0,68,108,0
0,40,88,0
0,36,112,0
0,40,94,1
0,61,119,1
0,45,85,4
0,45,73,0
0,52,82,0
0,57,72,0
0,61,81,0
0,45,92,0
0,52,88,0
0,57,92,0
0,61,87,0
0,64,85,0
0,36,126,0
0,50,84,7
0,50,101,4
0,52,69,4
0,57,65,0
0,50,84,10
0,50,113,4
0,45,73,2
0,45,73,0
0,52,75,0
0,57,72,0
0,52,88,7
0,57,81,1
0,45,87,0
0,52,90,0
0,57,74,0
0,61,82,0
0,64,81,0
0,48,48,7
0,48,62,5
0,48,62,7
0,45,105,1
0,48,104,0
0,45,77,3
0,45,94,2
0,45,66,0
0,45,117,2
0,59,90,3
0,61,87,0
0,64,88,0
0,45,90,0
0,52,84,0
0,40,60,4
0,59,89,0
0,61,85,0
0,64,88,0
0,41,76,0
0,45,86,1
0,45,93,0
0,52,95,0
0,59,91,0
0,61,71,0
0,64,78,0
0,41,106,2
0,41,100,39
0,45,85,1
0,41,113,0
0,59,93,1
0,64,91,0
0,68,93,0
0,68,99,0
0,45,81,0
0,52,83,0
0,61,75,4
0,69,79,0
0,45,68,0
0,52,55,0
0,71,108,1
0,47,88,1
0,47,89,0
0,59,68,0
0,66,76,0
0,71,80,0
0,47,76,0
0,54,72,0
0,59,76,0
0,63,87,0
0,59,100,0
0,36,127,0
0,49,113,0
0,71,94,8
0,54,74,0
0,59,72,0
0,63,90,0
0,51,35,0
0,71,104,16
0,42,78,8
0,42,83,0
0,54,95,0
0,59,85,0
0,47,78,0
0,38,105,0
0,51,44,0
0,54,55,4
0,59,57,0
0,63,56,0
0,54,87,8
0,59,82,0
0,63,75,0
0,51,63,0
0,68,90,16
0,36,81,0
0,71,109,6
0,47,89,2
0,47,73,0
0,54,92,0
0,59,84,0
0,63,93,0
0,36,123,0
0,51,58,0
0,71,96,27
0,47,91,8
0,54,77,0
0,59,84,0
0,63,77,0
0,51,17,0
0,71,105,6
0,59,93,2
0,64,89,0
0,66,86,0
0,69,88,0
0,36,76,0
0,35,81,8
0,47,87,0
0,38,105,0
0,51,69,0
0,37,72,2
0,47,88,0
0,54,54,0
0,59,64,0
0,63,68,0
0,68,109,1
0,39,84,2
0,59,91,0
0,64,85,0
0,66,83,0
0,69,91,0
0,54,82,0
0,59,93,0
0,63,73,0
0,51,58,0
0,56,48,4
0,59,55,0
0,64,71,0
0,36,87,0
0,40,85,1
0,40,84,0
0,59,90,0
0,64,93,0
0,69,84,0
0,40,78,0
0,47,71,0
0,52,75,0
0,56,90,0
0,59,86,0
0,64,91,0
0,69,92,0
0,36,112,0
0,51,33,0
0,71,120,1
0,64,76,0
0,69,67,0
0,71,69,0
0,59,82,1
0,64,92,0
0,68,88,0
0,64,92,1
0,64,89,0
0,51,61,0
0,71,119,1
0,68,67,1
0,59,92,2
0,64,87,0
0,69,88,0
0,59,69,0
0,64,65,0
0,69,101,0
0,71,115,2
0,69,67,1
0,52,75,8
0,47,75,0
0,52,73,0
0,56,78,0
0,59,85,0
0,64,81,0
0,38,105,0
0,51,62,0
0,59,83,1
0,64,89,0
0,68,90,0
0,73,115,1
0,68,71,2
0,73,62,0
0,32,68,1
0,64,90,0
0,56,89,0
0,59,85,0
0,64,71,0
0,64,87,0
0,51,54,0
0,64,124,1
0,64,75,1
0,68,65,0
0,56,59,8
0,59,71,0
0,64,57,0
0,33,84,4
0,45,93,0
0,57,82,0
0,61,86,0
0,64,85,0
0,45,93,0
0,52,81,0
0,57,89,0
0,61,78,0
0,64,72,0
0,57,101,0
0,36,117,0
0,51,59,0
0,69,65,0
0,57,84,0
0,61,93,0
0,64,77,0
0,51,44,0
0,45,92,2
0,45,87,0
0,52,60,0
0,38,105,0
0,51,76,0
0,57,83,7
0,61,84,0
0,64,91,0
0,61,73,0
0,64,79,0
0,37,80,6
0,57,76,0
0,61,87,0
0,64,81,0
0,38,105,0
0,51,90,0
0,68,116,3
0,39,69,3
0,59,69,0
0,64,61,0
0,71,122,1
0,40,82,2
0,40,90,0
0,59,84,0
0,64,93,0
0,68,84,0
0,40,84,0
0,47,87,0
0,52,88,0
0,56,73,0
0,59,88,0
0,64,84,0
0,52,98,0
0,36,108,0
0,49,108,0
0,64,68,0
0,68,63,0
0,71,71,0
0,52,88,8
0,56,93,0
0,59,85,0
0,64,92,0
0,51,35,0
0,40,85,16
0,71,107,0
0,40,92,8
0,47,80,0
0,52,90,0
0,38,105,0
0,51,75,0
0,59,95,8
0,64,82,0
0,68,86,0
0,56,70,0
0,59,67,0
0,64,72,0
0,71,106,1
0,40,82,8
0,40,90,0
0,56,82,0
0,71,112,0
0,52,84,0
0,56,75,0
0,59,94,0
0,64,74,0
0,51,53,0
0,40,67,4
0,59,65,0
0,64,59,0
0,52,97,0
0,36,87,0
0,40,83,4
0,52,93,0
0,57,86,0
0,61,89,0
0,45,81,0
0,52,74,0
0,57,87,0
0,61,89,0
0,64,84,0
0,52,98,0
0,36,126,0
0,51,38,0
0,69,68,0
0,73,64,0
0,57,84,8
0,61,90,0
0,64,81,0
0,51,45,0
0,61,91,8
0,64,89,0
0,69,82,0
0,57,63,0
0,61,71,0
0,64,62,0
0,40,81,8
0,52,77,0
0,57,90,0
0,61,92,0
0,64,92,0
0,38,105,0
0,51,78,0
0,59,90,8
0,64,88,0
0,68,91,0
0,56,66,0
0,59,70,0
0,64,77,0
0,64,71,0
0,68,71,0
0,71,62,0
0,68,108,3
0,32,85,1
0,59,88,0
0,64,83,0
0,68,84,0
0,56,72,0
0,59,93,0
0,64,84,0
0,51,65,0
0,68,91,6
0,33,72,2
0,56,66,0
0,59,77,0
0,47,98,0
0,36,81,0
0,68,110,3
0,35,76,1
0,47,84,0
0,54,86,0
0,59,92,0
0,64,83,0
0,47,76,0
0,54,84,0
0,59,71,0
0,64,94,0
0,36,124,0
0,51,36,0
0,54,86,1
0,63,86,0
0,66,115,0
0,54,79,0
0,59,84,0
0,63,90,0
0,51,44,0
0,63,55,1
0,66,71,0
0,71,68,0
0,47,87,4
0,66,118,0
0,47,100,0
0,54,90,1
0,59,91,0
0,63,83,0
0,47,71,0
0,54,81,0
0,59,85,0
0,63,95,0
0,51,98,0
0,38,105,0
0,51,77,0
0,54,55,4
0,59,59,0
0,63,74,0
0,54,93,0
0,54,71,1
0,59,88,0
0,63,73,0
0,54,100,0
0,51,57,0
0,47,63,3
0,47,87,0
0,36,80,0
0,47,83,4
0,54,82,0
0,59,92,0
0,63,88,0
0,47,84,0
0,54,80,0
0,59,90,0
0,63,76,0
0,54,98,0
0,36,103,0
0,51,62,0
0,47,77,2
0,47,87,0
0,54,84,0
0,59,91,0
0,63,83,0
0,51,45,0
0,47,91,4
0,59,89,0
0,63,84,0
0,66,85,0
0,54,96,0
0,54,71,8
0,59,73,0
0,63,85,0
0,54,96,0
0,38,105,0
0,51,67,0
0,44,66,8
0,59,84,0
0,63,94,0
0,66,89,0
0,47,63,0
0,54,65,0
0,59,54,0
0,63,58,0
0,71,107,2
0,44,84,1
0,59,89,0
0,63,87,0
0,66,83,0
0,47,88,0
0,54,74,0
0,59,85,0
0,63,85,0
0,59,95,0
0,38,114,0
0,51,92,0
0,52,69,8
0,57,80,0
0,61,67,0
0,38,94,0
0,48,74,13
0,47,70,3
0,33,87,2
0,45,84,0
0,61,86,0
0,64,85,0
0,69,90,0
0,73,112,0
0,45,89,0
0,52,74,0
0,57,94,0
0,61,88,0
0,64,93,0
0,57,93,0
0,36,127,0
0,49,123,0
0,64,71,0
0,69,63,0
0,73,73,0
0,45,95,8
0,52,90,0
0,57,92,0
0,61,78,0
0,64,82,0
0,51,30,0
0,73,98,2
0,61,91,2
0,64,93,0
0,69,84,0
0,45,90,8
0,61,92,0
0,64,88,0
0,69,83,0
0,45,87,0
0,38,105,0
0,51,65,0
0,75,101,1
0,45,86,1
0,52,77,0
0,57,73,0
0,61,80,0
0,64,59,0
0,76,114,2
0,57,72,0
0,61,65,0
0,64,76,0
0,51,55,0
0,33,71,8
0,45,85,0
0,61,83,0
0,64,83,0
0,69,86,0
0,36,75,0
0,33,96,4
0,45,93,0
0,57,89,0
0,61,92,0
0,64,86,0
0,45,71,0
0,52,81,0
0,57,83,0
0,61,74,0
0,64,84,0
0,36,123,0
0,51,56,0
0,75,112,1
0,33,83,4
0,59,82,0
0,61,93,0
0,64,86,0
0,45,74,0
0,52,91,0
0,57,87,0
0,61,85,0
0,64,84,0
0,51,44,0
0,64,66,1
0,68,72,0
0,73,76,0
0,59,89,26
0,61,84,0
0,64,83,0
0,45,85,0
0,33,91,4
0,45,98,0
0,38,105,0
0,51,67,0
0,73,123,1
0,57,94,3
0,61,93,0
0,64,85,0
0,45,72,0
0,52,65,0
0,57,70,0
0,61,72,0
0,64,74,0
0,63,72,4
0,71,68,0
0,35,95,4
0,57,92,0
0,61,86,0
0,64,87,0
0,57,76,0
0,61,73,0
0,64,91,0
0,47,91,0
0,51,47,0
0,61,62,1
0,69,76,0
0,71,101,1
0,36,62,2
0,51,70,0
0,54,71,0
0,59,75,0
0,38,102,0
0,37,96,1
0,37,92,0
0,52,84,0
0,56,90,0
0,61,85,0
0,73,125,0
0,49,77,0
0,56,88,0
0,61,91,0
0,64,77,0
0,68,78,0
0,49,101,0
0,36,106,0
0,51,64,0
0,64,71,0
0,68,65,0
0,73,66,0
0,64,92,20
0,71,99,1
0,61,91,4
0,49,83,0
0,56,73,0
0,61,85,0
0,64,73,0
0,68,92,0
0,51,39,0
0,68,117,1
0,64,91,2
0,56,90,5
0,61,72,0
0,64,90,0
0,68,86,0
0,38,105,0
0,51,70,0
0,61,89,8
0,49,61,0
0,61,64,0
0,64,59,0
0,68,76,0
0,56,88,8
0,51,52,0
0,32,70,1
0,49,71,0
0,56,92,0
0,61,76,0
0,64,67,0
0,68,62,0
0,49,88,0
0,36,90,0
0,37,84,4
0,37,91,0
0,56,87,0
0,61,85,0
0,64,84,0
0,49,90,0
0,56,94,0
0,61,82,0
0,64,77,0
0,68,92,0
0,49,105,0
0,36,123,0
0,51,39,0
0,68,91,2
0,61,101,32
0,68,112,1
0,61,94,8
0,64,79,0
0,68,85,0
0,51,64,0
0,69,116,7
0,56,85,1
0,61,94,0
0,64,85,0
0,56,103,0
0,40,83,8
0,49,81,0
0,56,72,0
0,61,93,0
0,64,79,0
0,68,84,0
0,38,105,0
0,51,65,0
0,56,93,3
0,61,91,0
0,64,82,0
0,61,64,0
0,64,72,0
0,68,79,0
0,37,82,1
0,56,88,0
0,61,83,0
0,64,92,0
0,61,92,0
0,64,90,0
0,68,74,0
0,51,42,0
0,71,103,1
0,64,62,1
0,73,64,0
0,68,102,1
0,36,80,0
0,35,87,1
0,47,82,0
0,54,88,0
0,59,94,0
0,63,90,0
0,54,86,0
0,59,95,0
0,63,92,0
0,47,100,0
0,36,116,0
0,51,58,0
