track,note,velocity,time
1,41,76,4184
1,65,56,4
1,69,57,4
1,60,53,0
1,29,69,16
1,70,60,188
1,58,56,4
1,67,64,0
1,31,70,8
1,43,62,64
1,72,69,192
1,65,57,8
1,60,59,0
1,45,65,8
1,33,53,0
1,74,60,192
1,34,72,12
1,62,60,0
1,53,61,0
1,46,61,0
1,46,58,36
1,76,75,4
1,60,70,0
1,67,61,4
1,72,61,4
1,77,69,4
1,45,75,4
1,72,67,8
1,60,66,0
1,43,66,4
1,74,60,0
1,67,67,0
1,74,69,8
1,48,61,28
1,67,72,0
1,72,60,0
1,76,63,0
1,41,69,0
1,72,62,0
1,77,64,0
1,65,69,0
1,45,56,8
1,72,69,0
1,69,57,8
1,65,68,0
1,38,69,24
1,65,69,0
1,69,66,4
1,72,64,0
1,43,61,0
1,71,64,0
1,67,55,4
1,64,65,32
1,36,68,0
1,67,55,0
1,72,61,0
1,36,72,60
1,38,70,4
1,77,65,12
1,62,67,0
1,65,58,4
1,40,76,4
1,76,63,4
1,72,61,12
1,55,69,0
1,40,74,44
1,41,73,0
1,69,43,8
1,60,64,0
1,72,61,4
1,41,74,48
1,41,77,52
1,79,72,0
1,55,64,0
1,74,65,4
1,79,62,36
1,40,70,0
1,76,68,4
1,55,61,0
1,77,68,0
1,38,70,4
1,69,63,0
1,62,64,0
1,43,63,4
1,74,62,0
1,67,59,8
1,59,60,4
1,72,62,0
1,36,65,4
1,67,54,0
1,55,50,0
1,34,68,56
1,33,60,8
1,29,70,368
1,72,62,4
1,65,64,8
1,57,69,0
1,65,57,48
1,34,76,4
1,58,59,0
1,70,37,168
1,33,77,28
1,31,74,184
1,70,62,364
1,28,78,12
1,64,63,0
1,55,68,4
1,64,58,0
1,57,64,0
1,33,83,4
1,69,37,8
1,31,74,8
1,29,84,196
1,69,61,360
1,26,79,0
1,53,66,12
1,62,64,4
1,31,83,44
1,62,63,0
1,55,64,4
1,67,54,4
1,29,76,16
1,28,77,0
1,72,69,364
1,24,75,8
1,64,65,8
1,67,55,0
1,29,76,0
1,65,68,0
1,60,66,0
1,77,65,8
1,34,78,44
1,58,63,4
1,74,67,0
1,65,62,0
1,74,69,36
1,28,81,4
1,67,66,0
1,70,70,4
1,73,63,4
1,33,74,0
1,69,61,0
1,69,58,0
1,74,64,0
1,65,64,0
1,38,85,16
1,26,87,8
1,67,65,196
1,79,65,4
1,64,62,4
1,28,79,8
1,40,81,4
1,65,63,196
1,57,58,0
1,72,60,4
1,41,83,8
1,29,80,4
1,65,54,192
1,70,53,0
1,62,62,0
1,31,77,4
1,43,77,68
1,43,83,40
1,69,55,4
1,64,64,8
1,41,76,8
1,57,61,0
1,81,67,0
1,65,68,0
1,79,61,4
1,40,74,0
1,64,61,0
1,70,66,0
1,76,54,12
1,61,56,0
1,45,74,0
1,69,54,0
1,57,53,0
1,74,51,0
1,69,59,8
1,38,76,8
1,50,71,0
1,42,70,8
1,38,70,8
1,66,57,8
1,62,65,0
1,72,52,4
1,70,53,0
1,62,63,12
1,43,77,4
1,51,66,0
1,43,74,192
1,67,64,364
1,39,81,4
1,63,71,4
1,62,67,0
1,65,55,4
1,45,75,4
1,63,60,0
1,60,63,0
1,53,72,0
1,45,78,196
1,69,62,376
1,65,66,4
1,41,75,4
1,63,69,0
1,70,57,8
1,46,71,0
1,62,65,0
1,65,68,0
1,34,76,0
1,75,66,192
1,60,58,4
1,63,65,0
1,36,81,8
1,48,76,8
1,74,59,184
1,58,60,4
1,65,64,4
1,50,76,4
1,38,78,4
1,79,60,184
1,55,61,8
1,70,51,8
1,39,76,8
1,51,71,4
1,51,67,52
1,72,63,0
1,60,60,0
1,77,64,4
1,53,51,28
1,50,63,0
1,74,59,0
1,77,65,0
1,67,60,4
1,75,63,0
1,48,66,0
1,60,62,0
1,72,49,4
1,57,55,4
1,65,54,0
1,41,71,8
1,70,56,0
1,53,61,0
1,65,55,4
1,46,65,0
1,62,62,8
1,58,63,0
1,50,69,0
1,77,56,4
1,74,65,0
1,77,58,0
1,67,62,0
1,43,68,0
1,76,53,4
1,72,60,0
1,67,57,0
1,48,68,4
1,72,60,0
1,77,67,0
1,65,61,0
1,41,77,8
1,29,77,4
1,31,76,196
1,67,55,0
1,70,63,0
1,43,75,0
1,77,58,188
1,72,60,12
1,69,59,0
1,45,71,8
1,33,68,12
1,65,52,192
1,62,61,0
1,34,74,4
1,77,51,0
1,46,73,0
1,46,72,52
1,72,61,0
1,79,56,0
1,60,64,0
1,81,61,28
1,45,75,8
1,72,70,0
1,65,60,0
1,43,63,0
1,67,64,4
1,70,63,0
1,74,56,0
1,36,68,0
1,72,58,4
1,67,48,4
1,64,58,0
1,41,70,0
1,65,51,0
1,72,52,0
1,60,51,0
1,43,70,40
1,45,70,200
1,41,75,364
1,65,62,0
1,57,62,0
1,84,46,4
1,58,56,44
1,65,52,4
1,46,68,0
1,82,28,8
1,45,69,52
1,43,67,200
1,82,43,352
1,40,71,0
1,64,64,8
1,55,62,0
1,45,74,4
1,57,63,4
1,64,57,4
1,81,50,8
1,43,60,0
1,41,68,196
1,81,56,352
1,38,71,0
1,53,60,4
1,62,61,4
1,43,70,4
1,55,65,0
1,62,56,4
1,79,44,8
1,41,67,12
1,40,75,180
1,79,60,380
1,64,50,4
1,36,69,4
1,60,68,0
1,65,57,60
1,60,69,0
1,41,75,0
1,77,56,180
1,38,83,8
1,65,67,0
1,70,58,0
1,53,60,0
1,69,42,4
1,60,67,0
1,36,77,12
1,70,54,0
1,67,61,4
1,67,52,8
1,64,53,12
1,58,52,0
1,29,76,4
1,65,53,0
1,60,60,8
1,57,50,0
1,41,80,16
1,41,67,108
1,29,64,44
1,29,74,92
1,41,63,0
1,41,69,96
1,29,65,68
1,29,69,116
2,57,65,4172
2,53,61,0
2,53,66,80
2,58,60,192
2,55,62,0
2,57,67,208
2,60,64,0
2,57,58,116
2,58,54,184
2,62,49,4
2,58,69,276
2,57,69,4
2,55,68,188
2,50,65,8
2,52,66,0
2,53,72,8
2,45,66,0
2,50,70,196
2,47,68,0
2,48,72,8
2,48,63,68
2,53,60,172
2,50,67,0
2,55,66,204
2,52,67,4
2,52,72,116
2,53,64,4
2,57,57,4
2,53,75,280
2,52,76,384
2,50,76,184
2,57,73,0
2,59,76,192
2,60,82,0
2,58,70,384
2,57,78,184
2,53,63,376
2,58,70,0
2,57,71,12
2,55,72,0
2,52,67,12
2,57,73,200
2,55,63,360
2,53,69,188
2,50,65,12
2,55,72,196
2,53,67,0
2,52,59,188
2,48,59,20
2,53,68,192
2,52,78,204
2,45,75,4
2,50,79,4
2,50,73,72
2,52,75,8
2,55,65,0
2,53,71,244
2,57,67,4
2,53,71,36
2,55,70,192
2,58,62,0
2,55,67,260
2,53,69,380
2,52,73,184
2,45,70,376
2,50,66,192
2,54,64,24
2,50,65,4
2,55,82,196
2,57,75,0
2,58,77,1160
2,50,71,24
2,48,68,196
2,51,67,4
2,53,68,168
2,50,67,0
2,50,68,36
2,51,69,192
2,55,62,0
2,51,69,288
2,50,79,388
2,48,70,192
2,53,68,20
2,46,66,192
2,50,65,12
2,55,73,0
2,48,70,0
2,53,70,192
2,53,74,88
2,58,54,0
2,55,49,0
2,60,67,252
2,57,65,0
2,57,67,44
2,58,63,196
2,62,64,0
2,58,69,240
2,57,81,8
2,55,69,196
2,60,74,28
2,53,71,192
2,55,70,0
2,57,64,196
2,53,72,20
2,58,74,192
2,57,63,368
2,55,77,0
2,52,74,36
2,57,78,196
2,55,70,0
2,53,75,196
2,50,72,24
2,55,81,196
2,53,69,8
2,52,65,196
2,48,67,24
2,53,63,192
2,50,66,4
2,48,69,12
2,53,76,8
2,62,71,96
2,53,79,4
2,60,66,144
2,58,60,148
2,53,70,136
2,57,72,0
2,53,76,100
2,62,69,4
2,60,69,116
2,58,57,148
2,53,65,120
2,57,58,4
3,77,91,4152
3,76,74,0
3,74,78,4
3,72,74,192
3,70,72,0
3,69,73,192
3,67,76,0
3,64,74,188
3,65,84,4
3,70,91,192
3,69,61,8
3,72,81,192
3,77,90,184
3,79,83,4
3,77,83,4
3,76,71,96
3,74,84,4
3,72,86,100
3,71,81,0
3,69,80,4
3,67,82,0
3,65,82,772
3,64,79,184
3,62,79,0
3,59,83,192
3,60,81,188
3,65,83,188
3,64,78,16
3,67,81,192
3,72,85,180
3,63,85,20
3,62,70,384
3,65,83,172
3,70,83,184
3,62,81,12
3,60,77,384
3,64,77,8
3,69,75,12
3,60,72,12
3,58,79,388
3,62,74,176
3,67,81,184
3,58,71,4
3,57,73,388
3,62,80,0
3,67,85,0
3,69,82,188
3,67,78,88
3,65,84,92
3,64,77,0
3,74,100,100
3,72,82,8
3,70,83,192
3,69,81,188
3,67,69,764
3,65,75,0
3,64,75,192
3,61,76,188
3,62,82,12
3,67,84,192
3,64,74,4
3,66,81,96
3,67,84,12
3,69,85,0
3,70,86,96
3,72,85,92
3,75,88,88
3,74,84,96
3,72,76,4
3,70,77,100
3,69,71,4
3,70,81,0
3,66,73,4
3,67,86,8
3,69,84,0
3,70,88,100
3,72,89,4
3,74,91,100
3,77,87,84
3,75,82,92
3,74,79,92
3,72,75,4
3,70,74,96
3,72,82,0
3,67,78,92
3,69,79,92
3,70,81,88
3,72,83,8
3,74,90,92
3,75,91,92
3,79,95,0
3,77,88,96
3,75,83,84
3,74,86,88
3,72,79,4
3,70,88,104
3,69,84,16
3,67,84,196
3,65,92,0
3,63,83,768
3,62,85,188
3,60,86,4
3,57,80,188
3,58,82,180
3,63,94,184
3,62,65,8
3,65,82,196
3,70,87,176
3,72,88,0
3,70,83,96
3,69,85,88
3,67,82,0
3,77,97,100
3,76,81,0
3,74,85,188
3,72,82,188
3,70,82,768
3,69,80,0
3,67,81,0
3,64,81,188
3,65,84,192
3,70,79,176
3,69,75,12
3,70,82,192
3,72,87,180
3,63,83,0
3,62,83,0
3,65,88,192
3,70,85,4
3,62,82,388
3,60,83,8
3,64,83,192
3,69,81,8
3,60,76,16
3,58,82,388
3,62,78,0
3,67,79,196
3,58,78,32
3,57,70,388
3,70,89,8
3,69,81,8
3,70,81,0
3,67,81,192
3,65,85,192
3,60,81,4
3,62,77,96
3,58,56,8
3,60,79,4
3,70,86,88
3,69,84,144
3,67,79,132
3,65,80,128
3,60,76,4
3,62,75,100
3,58,72,8
3,60,82,4
3,70,88,64
3,69,78,104
3,67,74,108
3,65,77,4
4,84,77,8740
4,83,73,0
4,81,75,4
4,79,71,192
4,77,71,764
4,76,69,0
4,74,77,0
4,71,69,196
4,72,73,184
4,77,76,0
4,76,58,12
4,79,67,196
4,84,68,180
4,75,67,380
4,74,63,8
4,77,69,200
4,82,62,180
4,74,62,4
4,72,67,0
4,76,68,192
4,81,76,0
4,72,64,388
4,70,72,376
4,74,70,184
4,79,70,192
4,70,73,0
4,69,64,4
4,74,75,196
4,79,75,16
4,81,70,192
4,79,71,0
4,77,68,100
4,76,67,88
4,77,67,92
4,76,64,4
4,77,76,96
4,74,76,8
4,69,63,4
4,74,71,96
4,79,77,0
4,77,71,92
4,79,76,92
4,76,64,88
4,72,65,8
4,76,77,96
4,81,81,92
4,79,74,92
4,81,71,0
4,77,70,92
4,74,72,92
4,77,74,92
4,82,73,96
4,81,79,0
4,82,68,96
4,79,71,0
4,81,74,96
4,82,73,0
4,73,71,100
4,81,80,188
4,74,68,184
4,71,68,4
4,73,67,192
4,74,73,184
4,69,72,384
4,66,71,484
4,67,74,88
4,69,71,4
4,70,73,92
4,72,74,8
4,74,77,100
4,77,77,92
4,75,69,0
4,74,69,0
4,72,68,0
4,70,65,96
4,72,74,0
4,82,78,672
4,81,71,768
4,79,74,8
4,77,68,192
4,75,76,764
4,74,72,188
4,72,70,4
4,69,68,188
4,70,73,0
4,75,76,196
4,74,67,764
4,77,73,184
4,82,66,4
4,84,77,0
4,82,63,96
4,81,73,88
4,79,67,0
4,81,72,96
4,79,66,84
4,81,73,92
4,77,75,0
4,72,69,0
4,77,75,96
4,82,71,88
4,81,85,4
4,82,76,96
4,79,76,4
4,76,69,96
4,79,79,96
4,84,82,0
4,82,69,0
4,84,80,4
4,81,73,92
4,77,72,0
4,81,75,92
4,86,84,0
4,84,76,4
4,86,77,96
4,82,64,92
4,84,77,88
4,86,77,12
4,76,70,100
4,84,77,188
4,77,78,4
4,74,70,0
4,76,76,192
4,77,73,188
4,76,67,96
4,77,74,92
4,81,81,8
4,76,67,4
4,79,76,0
4,77,73,0
4,79,69,92
4,81,75,92
4,82,67,84
4,84,77,88
4,81,71,0
4,77,72,100
4,75,71,88
4,77,75,8
4,82,68,0
4,74,72,4
4,77,71,0
4,76,74,0
4,77,72,96
4,79,74,92
4,81,71,92
4,82,65,8
4,79,65,0
4,76,74,4
4,74,74,96
4,76,73,80
4,81,78,4
4,72,62,96
4,76,70,0
4,74,80,96
4,76,72,92
4,77,78,92
4,79,68,0
4,81,78,100
4,77,60,92
4,74,82,0
4,72,64,4
4,74,81,0
4,79,76,0
4,70,77,4
4,74,81,4
4,72,81,4
4,74,77,96
4,76,75,88
4,77,74,4
4,79,80,96
4,76,75,80
4,72,83,8
4,70,78,96
4,72,68,0
4,77,77,96
4,60,70,12
4,65,87,100
4,67,73,8
4,64,82,116
4,65,75,96
4,62,82,228
4,60,75,128
4,58,71,100
4,57,75,124
4,60,71,96
4,62,75,4
4,58,63,0
4,60,79,100
4,70,80,124
4,69,73,136
4,67,72,140
4,65,69,136
5,77,55,4112
5,76,57,4
5,74,65,16
5,72,59,0
5,70,60,768
5,69,55,12
5,67,65,196
5,64,60,188
5,65,65,188
5,70,65,8
5,69,58,776
5,72,67,0
5,77,67,0
5,79,65,12
5,77,72,96
5,76,62,88
5,74,65,8
5,76,67,96
5,74,61,88
5,76,71,12
5,72,64,4
5,67,62,8
5,72,65,96
5,77,80,4
5,76,65,96
5,77,66,0
5,74,62,96
5,71,65,8
5,74,77,96
5,79,77,4
5,77,72,92
5,79,68,96
5,76,64,88
5,72,64,16
5,76,63,96
5,81,84,0
5,79,69,0
5,81,76,4
5,77,66,4
5,79,51,92
5,81,77,4
5,71,65,100
5,79,74,188
5,72,74,188
5,69,69,8
5,71,65,0
5,72,71,16
5,71,75,96
5,72,78,4
5,67,72,0
5,64,64,4
5,67,64,0
5,65,76,100
5,67,69,88
5,69,65,96
5,70,72,84
5,72,77,0
5,69,58,96
5,65,65,0
5,63,72,96
5,65,62,88
5,70,74,0
5,62,67,96
5,65,64,4
5,64,74,4
5,65,72,100
5,67,68,88
5,69,67,0
5,70,69,96
5,67,69,8
5,64,73,96
5,62,71,92
5,64,73,92
5,69,71,0
5,60,69,0
5,64,67,0
5,62,74,100
5,64,65,0
5,65,72,96
5,67,68,88
5,69,68,8
5,65,69,96
5,62,78,92
5,60,74,88
5,62,77,0
5,67,75,96
5,58,67,92
5,62,64,92
5,60,69,4
5,62,72,96
5,64,66,88
5,65,71,88
5,67,62,92
5,64,62,8
5,65,64,100
5,74,76,764
5,72,67,0
5,70,58,4
5,69,55,192
5,67,68,764
5,65,68,0
5,64,72,0
5,61,65,0
5,62,73,12
5,67,75,192
5,64,65,660
5,66,69,4
5,67,74,8
5,69,75,0
5,70,66,0
5,72,72,8
5,75,71,4
5,74,65,4
5,72,59,4
5,70,64,96
5,69,59,4
5,70,60,100
5,70,66,436
5,67,68,0
5,69,73,4
5,70,71,92
5,72,77,4
5,74,82,92
5,75,80,96
5,79,80,0
5,77,77,96
5,75,67,84
5,74,70,92
5,72,64,4
5,74,65,96
5,72,72,4
5,74,74,92
5,70,64,88
5,65,65,92
5,70,73,0
5,75,74,96
5,74,73,8
5,75,81,96
5,72,78,4
5,69,65,0
5,72,76,92
5,77,85,92
5,75,65,88
5,77,76,4
5,74,72,4
5,70,76,96
5,74,76,0
5,79,81,0
5,77,72,0
5,79,74,0
5,75,64,96
5,77,71,92
5,79,74,4
5,69,65,96
5,77,71,188
5,70,71,184
