track,note,velocity,time
1,68,90,174
1,77,100,44
1,75,100,90
1,73,90,136
1,66,90,0
1,73,100,58
1,70,100,136
1,66,85,180
1,68,90,174
1,77,100,44
1,75,100,90
1,73,90,136
1,66,90,0
1,73,100,58
1,70,100,136
1,66,85,180
1,68,90,174
1,77,100,44
1,75,100,90
1,73,90,136
1,66,90,0
1,73,100,58
1,70,100,136
1,66,85,180
1,68,90,174
1,77,100,44
1,75,100,90
1,73,90,136
1,66,90,0
1,73,100,58
1,70,100,136
1,66,85,180
2,37,103,1336
2,29,103,12
2,29,103,12
2,30,103,12
2,30,103,12
2,30,103,12
2,30,103,12
2,42,103,12
2,37,103,12
2,29,103,12
2,29,103,12
2,30,103,12
2,30,103,12
2,30,103,12
2,30,103,12
2,37,103,12
2,30,103,12
2,37,103,12
2,38,103,12
2,39,103,12
2,39,103,12
2,44,103,12
2,32,103,12
2,37,103,12
2,32,103,12
2,30,103,12
2,39,103,12
2,44,103,12
2,44,103,12
2,44,103,12
2,32,103,12
2,34,103,12
2,30,103,12
2,30,103,12
2,30,103,12
2,32,103,12
2,32,103,12
2,32,103,12
2,32,103,12
2,32,103,12
2,32,103,12
2,32,103,12
2,33,103,12
2,34,103,12
2,34,103,12
2,34,103,12
2,34,103,12
2,30,103,12
2,30,103,12
2,30,103,12
2,32,103,12
2,32,103,12
2,32,103,12
2,39,103,12
2,44,103,12
2,32,103,12
2,34,103,12
2,36,103,12
2,37,103,12
2,37,103,12
2,32,103,12
2,30,103,12
2,39,103,12
2,39,103,12
2,39,103,12
2,42,103,12
2,44,103,12
2,32,103,12
2,32,103,12
2,32,103,12
2,32,103,12
2,37,103,12
2,30,103,12
2,32,103,12
2,32,103,12
2,32,103,12
2,32,103,12
2,32,103,12
2,32,103,12
2,32,103,12
2,32,103,12
2,37,103,12
2,37,103,12
2,37,103,12
2,32,103,12
2,37,103,12
2,37,103,12
2,37,103,12
2,37,103,12
2,32,103,12
2,30,103,12
2,30,103,12
2,30,103,12
2,30,103,12
2,30,103,12
2,30,103,12
2,30,103,12
2,30,103,12
2,30,103,12
2,31,103,12
2,32,103,12
2,32,103,12
2,32,103,12
2,32,103,12
2,32,103,12
2,32,103,12
2,32,103,12
2,32,103,12
2,32,103,12
2,37,103,12
2,37,103,12
2,37,103,12
2,32,103,12
2,37,103,12
2,37,103,12
2,37,103,12
2,37,103,12
2,32,103,12
2,37,103,12
2,37,103,12
2,37,103,12
2,37,103,12
2,37,103,12
2,37,103,12
2,37,103,12
2,37,103,12
2,37,103,12
2,37,103,12
2,37,103,12
2,37,103,12
2,37,103,12
2,29,103,12
2,29,103,12
2,29,103,12
2,30,103,12
2,32,103,12
2,32,103,12
2,37,103,12
2,29,103,12
2,29,103,12
2,30,103,12
2,30,103,12
2,30,103,12
2,30,103,12
2,42,103,12
2,37,103,12
2,30,103,12
2,37,103,12
2,38,103,12
2,39,103,12
2,39,103,12
2,44,103,12
2,32,103,12
2,37,103,12
2,32,103,12
2,30,103,12
2,39,103,12
2,44,103,12
2,44,103,12
2,44,103,12
2,32,103,12
2,34,103,12
2,30,103,12
2,30,103,12
2,30,103,12
2,32,103,12
2,32,103,12
2,32,103,12
2,32,103,12
2,32,103,12
2,32,103,12
2,32,103,12
2,33,103,12
2,34,103,12
2,34,103,12
2,34,103,12
2,34,103,12
2,30,103,12
2,30,103,12
2,30,103,12
2,32,103,12
2,32,103,12
2,32,103,12
2,39,103,12
2,44,103,12
2,32,103,12
2,34,103,12
2,36,103,12
2,37,103,12
2,37,103,12
2,32,103,12
2,30,103,12
2,39,103,12
2,39,103,12
2,39,103,12
2,42,103,12
2,44,103,12
2,32,103,12
2,32,103,12
2,32,103,12
2,32,103,12
2,37,103,12
2,30,103,12
2,32,103,12
2,32,103,12
2,32,103,12
2,32,103,12
2,32,103,12
2,32,103,12
2,32,103,12
2,32,103,12
2,37,103,12
2,37,103,12
2,37,103,12
2,32,103,12
2,37,103,12
2,37,103,12
2,37,103,12
2,37,103,12
2,32,103,12
2,30,103,12
2,30,103,12
2,30,103,12
2,30,103,12
2,30,103,12
2,30,103,12
2,30,103,12
2,30,103,12
2,30,103,12
2,31,103,12
2,32,103,12
2,32,103,12
2,32,103,12
2,32,103,12
2,32,103,12
2,32,103,12
2,32,103,12
2,32,103,12
2,32,103,12
2,37,103,12
2,37,103,12
2,37,103,12
2,32,103,12
2,37,103,12
2,37,103,12
2,37,103,12
2,37,103,12
2,32,103,12
2,37,103,12
2,37,103,12
2,37,103,12
2,37,103,12
2,37,103,12
2,37,103,12
2,37,103,12
2,37,103,12
2,37,103,12
2,37,103,12
2,37,103,12
2,37,103,12
2,37,103,12
2,29,103,12
2,29,103,12
2,29,103,12
2,30,103,12
2,32,103,12
2,32,103,12
2,37,103,12
2,29,103,12
2,29,103,12
2,30,103,12
2,30,103,12
2,30,103,12
2,30,103,12
2,42,103,12
2,37,103,12
2,37,103,12
2,30,103,12
2,30,103,12
2,37,103,12
2,38,103,12
2,39,103,12
2,39,103,12
2,39,103,12
2,46,103,12
2,44,103,12
2,32,103,12
2,32,103,12
2,32,103,12
2,37,103,12
2,37,103,12
2,30,103,12
2,30,103,12
2,37,103,12
2,38,103,12
2,39,103,12
2,39,103,12
2,39,103,12
2,46,103,12
2,44,103,12
2,32,103,12
2,32,103,12
2,32,103,12
2,37,103,12
2,37,103,12
2,32,103,12
2,30,103,12
2,39,103,12
2,39,103,12
2,39,103,12
2,42,103,12
2,44,103,12
2,32,103,12
2,32,103,12
2,32,103,12
2,32,103,12
2,37,103,12
2,30,103,12
2,32,103,12
2,32,103,12
2,32,103,12
2,32,103,12
2,32,103,12
2,32,103,12
2,32,103,12
2,32,103,12
2,37,103,12
2,37,103,12
2,37,103,12
2,32,103,12
2,37,103,12
2,37,103,12
2,37,103,12
2,37,103,12
2,32,103,12
2,30,103,12
2,30,103,12
2,30,103,12
2,30,103,12
2,30,103,12
2,30,103,12
2,30,103,12
2,30,103,12
2,30,103,12
2,31,103,12
2,32,103,12
2,32,103,12
2,32,103,12
2,32,103,12
2,32,103,12
2,32,103,12
2,32,103,12
2,32,103,12
2,32,103,12
2,37,103,12
2,37,103,12
2,37,103,12
2,32,103,12
2,37,103,12
2,37,103,12
2,37,103,12
2,37,103,12
2,32,103,12
2,37,103,12
2,37,103,12
2,37,103,12
2,37,103,12
2,37,103,12
2,37,103,12
2,37,103,12
2,37,103,12
2,37,103,12
2,37,103,12
2,37,103,12
2,37,103,12
2,37,103,12
2,29,103,12
2,29,103,12
2,29,103,12
2,30,103,12
2,32,103,12
2,32,103,12
2,37,103,12
2,37,103,12
2,30,103,12
2,30,103,12
2,37,103,12
2,38,103,12
2,39,103,12
2,39,103,12
2,39,103,12
2,46,103,12
2,44,103,12
2,32,103,12
2,32,103,12
2,32,103,12
2,37,103,12
2,37,103,12
2,30,103,12
2,30,103,12
2,37,103,12
2,38,103,12
2,39,103,12
2,39,103,12
2,39,103,12
2,46,103,12
2,44,103,12
2,32,103,12
2,32,103,12
2,32,103,12
2,37,103,12
2,29,103,12
2,29,103,12
2,30,103,12
2,30,103,12
2,30,103,12
2,30,103,12
2,42,103,12
2,37,103,12
3,49,83,1336
3,56,83,0
3,65,83,0
3,56,84,0
3,65,108,0
3,61,108,188
3,56,108,188
3,53,83,380
3,60,83,0
3,65,83,0
3,56,84,560
3,60,108,0
3,56,108,188
3,53,108,0
3,54,83,380
3,58,83,0
3,61,83,0
3,54,84,0
3,61,108,0
3,61,99,0
3,61,99,0
3,54,108,384
3,56,108,176
3,58,108,0
3,61,108,380
3,49,83,572
3,56,83,0
3,65,83,0
3,56,84,0
3,65,108,0
3,61,108,188
3,56,108,188
3,53,83,380
3,60,83,0
3,65,83,0
3,56,84,560
3,60,108,0
3,56,108,188
3,53,108,0
3,54,83,380
3,58,83,0
3,61,83,0
3,54,84,0
3,61,108,0
3,61,99,0
3,61,99,0
3,54,108,384
3,56,108,176
3,58,108,0
3,61,108,380
3,56,83,572
3,53,83,0
3,56,68,0
3,53,68,0
3,53,68,0
3,56,68,0
3,54,83,576
3,58,83,0
3,61,83,0
3,61,68,0
3,58,68,0
3,61,68,0
3,58,68,0
3,54,83,0
3,58,68,0
3,54,68,0
3,61,68,0
3,58,68,0
3,60,83,568
3,56,83,0
3,51,83,0
3,51,68,0
3,56,68,0
3,60,68,0
3,61,83,376
3,56,83,0
3,53,83,0
3,65,68,0
3,61,68,0
3,56,68,0
3,53,68,0
3,61,68,0
3,53,68,0
3,54,83,376
3,58,83,0
3,54,68,0
3,58,68,0
3,61,68,0
3,58,68,0
3,54,83,384
3,61,68,568
3,58,68,0
3,61,68,0
3,58,68,0
3,60,83,576
3,56,83,0
3,51,83,0
3,60,68,0
3,56,68,0
3,61,83,576
3,58,83,0
3,53,83,0
3,61,68,0
3,58,68,0
3,65,68,0
3,61,68,0
3,54,83,568
3,58,83,0
3,61,68,0
3,58,68,0
3,63,83,960
3,60,83,0
3,56,83,0
3,51,68,560
3,48,68,0
3,51,68,0
3,48,68,0
3,51,68,0
3,48,68,0
3,51,68,0
3,48,68,0
3,51,68,0
3,48,68,0
3,65,83,576
3,61,83,0
3,58,83,0
3,58,68,0
3,49,68,0
3,58,68,0
3,49,68,0
3,54,83,0
3,61,83,0
3,58,68,0
3,54,68,0
3,58,68,0
3,54,68,0
3,60,83,576
3,56,83,0
3,51,83,0
3,51,68,0
3,48,68,0
3,51,68,0
3,48,68,0
3,51,68,0
3,48,68,0
3,56,68,0
3,60,68,0
3,56,68,0
3,60,68,0
3,63,68,0
3,61,83,568
3,56,83,0
3,53,83,0
3,56,68,0
3,53,68,0
3,56,68,0
3,53,68,0
3,54,83,0
3,58,83,0
3,61,83,0
3,58,68,0
3,54,68,0
3,58,68,0
3,54,68,0
3,61,83,0
3,58,68,568
3,54,68,0
3,58,68,0
3,54,68,0
3,60,83,576
3,56,83,0
3,51,83,0
3,56,68,0
3,48,68,0
3,56,68,0
3,61,83,568
3,53,83,0
3,56,68,0
3,53,68,0
3,56,68,0
3,53,68,0
3,54,83,0
3,58,83,0
3,61,83,0
3,58,68,0
3,54,68,0
3,58,68,0
3,54,68,0
3,60,83,576
3,56,83,0
3,51,83,0
3,51,68,0
3,48,68,0
3,51,68,0
3,48,68,0
3,51,68,568
3,48,68,0
3,51,68,0
3,48,68,0
3,61,83,0
3,56,83,0
3,53,83,0
3,61,68,0
3,53,68,0
3,56,68,0
3,53,68,0
3,61,68,0
3,53,68,0
3,56,68,368
3,53,68,0
3,53,68,0
3,49,68,0
3,53,68,0
3,56,68,0
3,61,83,560
3,58,83,0
3,54,83,0
3,61,68,0
3,58,68,0
3,58,68,0
3,54,68,0
3,61,68,0
3,58,68,0
3,58,68,368
3,54,68,0
3,54,68,0
3,49,68,0
3,54,68,0
3,58,68,0
3,56,83,560
3,60,83,0
3,51,83,0
3,60,68,0
3,56,68,0
3,56,68,0
3,51,68,0
3,60,68,0
3,51,68,0
3,56,68,368
3,51,68,0
3,51,68,0
3,48,68,0
3,51,68,0
3,56,68,0
3,61,83,560
3,53,83,0
3,61,68,0
3,53,68,0
3,56,68,0
3,53,68,0
3,61,68,0
3,53,68,0
3,56,68,368
3,53,68,0
3,53,68,0
3,49,68,0
3,53,68,0
3,56,68,0
3,61,83,560
3,61,68,0
3,53,68,0
3,56,68,0
3,53,68,0
3,61,68,0
3,53,68,0
3,56,68,368
3,53,68,0
3,53,68,0
3,49,68,0
3,53,68,0
3,56,68,0
3,61,83,560
3,58,83,0
3,54,83,0
3,61,68,0
3,58,68,0
3,58,68,0
3,54,68,0
3,61,68,0
3,58,68,0
3,58,68,368
3,54,68,0
3,54,68,0
3,49,68,0
3,54,68,0
3,58,68,0
3,63,83,560
3,53,83,0
3,56,83,0
3,60,83,0
3,63,83,0
3,61,83,0
3,58,83,0
3,54,83,0
3,63,83,0
3,60,83,0
3,56,83,0
3,49,83,0
3,56,83,0
3,65,83,0
3,56,84,0
3,65,108,0
3,61,108,188
3,56,108,188
3,53,83,380
3,60,83,0
3,65,83,0
3,56,84,560
3,60,108,0
3,56,108,188
3,53,108,0
3,54,83,380
3,58,83,0
3,61,83,0
3,54,84,0
3,61,108,0
3,61,99,0
3,61,99,0
3,54,108,384
3,56,108,176
3,58,108,0
3,61,108,380
3,56,83,572
3,53,83,0
3,56,68,0
3,53,68,0
3,53,68,0
3,56,68,0
3,54,83,576
3,58,83,0
3,61,83,0
3,61,68,0
3,58,68,0
3,61,68,0
3,58,68,0
3,54,83,0
3,58,68,0
3,54,68,0
3,61,68,0
3,58,68,0
3,60,83,568
3,56,83,0
3,51,83,0
3,51,68,0
3,56,68,0
3,60,68,0
3,61,83,376
3,56,83,0
3,53,83,0
3,65,68,0
3,61,68,0
3,56,68,0
3,53,68,0
3,61,68,0
3,53,68,0
3,54,83,376
3,58,83,0
3,54,68,0
3,58,68,0
3,61,68,0
3,58,68,0
3,54,83,384
3,61,68,568
3,58,68,0
3,61,68,0
3,58,68,0
3,60,83,576
3,56,83,0
3,51,83,0
3,60,68,0
3,56,68,0
3,61,83,576
3,58,83,0
3,53,83,0
3,61,68,0
3,58,68,0
3,65,68,0
3,61,68,0
3,54,83,568
3,58,83,0
3,61,68,0
3,58,68,0
3,63,83,960
3,60,83,0
3,56,83,0
3,51,68,560
3,48,68,0
3,51,68,0
3,48,68,0
3,51,68,0
3,48,68,0
3,51,68,0
3,48,68,0
3,51,68,0
3,48,68,0
3,65,83,576
3,61,83,0
3,58,83,0
3,58,68,0
3,49,68,0
3,58,68,0
3,49,68,0
3,54,83,0
3,61,83,0
3,58,68,0
3,54,68,0
3,58,68,0
3,54,68,0
3,60,83,576
3,56,83,0
3,51,83,0
3,51,68,0
3,48,68,0
3,51,68,0
3,48,68,0
3,51,68,0
3,48,68,0
3,56,68,0
3,60,68,0
3,56,68,0
3,60,68,0
3,63,68,0
3,61,83,568
3,56,83,0
3,53,83,0
3,56,68,0
3,53,68,0
3,56,68,0
3,53,68,0
3,54,83,0
3,58,83,0
3,61,83,0
3,58,68,0
3,54,68,0
3,58,68,0
3,54,68,0
3,61,83,0
3,58,68,568
3,54,68,0
3,58,68,0
3,54,68,0
3,60,83,576
3,56,83,0
3,51,83,0
3,56,68,0
3,48,68,0
3,56,68,0
3,61,83,568
3,53,83,0
3,56,68,0
3,53,68,0
3,56,68,0
3,53,68,0
3,54,83,0
3,58,83,0
3,61,83,0
3,58,68,0
3,54,68,0
3,58,68,0
3,54,68,0
3,60,83,576
3,56,83,0
3,51,83,0
3,51,68,0
3,48,68,0
3,51,68,0
3,48,68,0
3,51,68,568
3,48,68,0
3,51,68,0
3,48,68,0
3,61,83,0
3,56,83,0
3,53,83,0
3,61,68,0
3,53,68,0
3,56,68,0
3,53,68,0
3,61,68,0
3,53,68,0
3,56,68,368
3,53,68,0
3,53,68,0
3,49,68,0
3,53,68,0
3,56,68,0
3,61,83,560
3,58,83,0
3,54,83,0
3,61,68,0
3,58,68,0
3,58,68,0
3,54,68,0
3,61,68,0
3,58,68,0
3,58,68,368
3,54,68,0
3,54,68,0
3,49,68,0
3,54,68,0
3,58,68,0
3,56,83,560
3,60,83,0
3,51,83,0
3,60,68,0
3,56,68,0
3,56,68,0
3,51,68,0
3,60,68,0
3,51,68,0
3,56,68,368
3,51,68,0
3,51,68,0
3,48,68,0
3,51,68,0
3,56,68,0
3,61,83,560
3,53,83,0
3,61,68,0
3,53,68,0
3,56,68,0
3,53,68,0
3,61,68,0
3,53,68,0
3,56,68,368
3,53,68,0
3,53,68,0
3,49,68,0
3,53,68,0
3,56,68,0
3,61,83,560
3,61,68,0
3,53,68,0
3,56,68,0
3,53,68,0
3,61,68,0
3,53,68,0
3,56,68,368
3,53,68,0
3,53,68,0
3,49,68,0
3,53,68,0
3,56,68,0
3,61,83,560
3,58,83,0
3,54,83,0
3,61,68,0
3,58,68,0
3,58,68,0
