track,note,velocity,time
0,70,72,322
0,67,87,0
0,70,72,0
0,67,87,0
0,70,57,0
0,67,58,0
0,63,95,48
0,63,95,0
0,62,98,48
0,62,98,0
0,63,72,46
0,63,72,0
0,58,70,45
0,58,70,0
0,55,93,23
0,55,93,0
0,51,82,48
0,51,82,0
0,67,82,44
0,67,82,0
0,67,53,0
0,67,82,0
0,67,82,0
0,67,53,0
0,75,82,22
0,75,82,0
0,75,80,0
0,65,72,0
0,65,52,0
0,75,80,0
0,65,72,0
0,65,52,0
0,58,102,40
0,58,102,0
0,74,74,0
0,57,85,0
0,56,53,0
0,74,74,0
0,57,85,0
0,56,53,0
0,58,60,12
0,58,60,0
0,53,85,0
0,53,85,0
0,50,85,40
0,50,85,0
0,46,78,46
0,46,78,0
0,65,82,40
0,65,82,0
0,67,91,37
0,67,91,0
0,68,64,43
0,53,89,0
0,68,64,0
0,53,89,0
0,60,82,1
0,60,82,0
0,63,64,1
0,63,64,0
0,62,82,48
0,62,82,0
0,62,82,0
0,62,58,0
0,58,78,0
0,62,82,0
0,58,78,0
0,62,58,0
0,65,85,46
0,65,85,0
0,70,76,38
0,70,76,0
0,58,80,1
0,58,80,0
0,58,53,0
0,46,91,0
0,58,80,0
0,58,80,0
0,58,53,0
0,46,91,0
0,65,91,47
0,65,91,0
0,68,78,32
0,68,78,0
0,68,82,6
0,63,76,0
0,58,68,0
0,58,51,0
0,63,53,0
0,68,82,0
0,63,76,0
0,58,68,0
0,58,51,0
0,63,53,0
0,51,98,48
0,51,98,0
0,67,66,0
0,50,100,0
0,67,66,0
0,50,100,0
0,51,68,19
0,51,68,0
0,46,72,0
0,46,72,0
0,43,93,43
0,43,93,0
0,39,93,46
0,39,93,0
0,51,85,40
0,51,85,0
0,50,78,5
0,50,78,0
0,51,85,47
0,51,85,0
0,55,82,48
0,55,82,0
0,53,87,46
0,53,87,0
0,55,87,47
0,55,87,0
0,58,80,43
0,58,80,0
0,56,87,41
0,39,89,0
0,56,87,0
0,39,89,0
0,58,70,8
0,63,74,0
0,63,51,0
0,39,98,0
0,58,70,0
0,63,74,0
0,39,98,0
0,63,51,0
0,61,68,46
0,61,68,0
0,55,78,5
0,61,80,0
0,61,48,0
0,39,85,0
0,55,78,0
0,61,80,0
0,61,48,0
0,39,85,0
0,56,93,5
0,60,80,0
0,60,44,0
0,39,80,0
0,56,93,0
0,60,80,0
0,39,80,0
0,60,44,0
0,60,82,4
0,60,82,0
0,58,85,2
0,63,60,0
0,63,42,0
0,58,85,0
0,63,60,0
0,63,42,0
0,60,82,1
0,56,85,0
0,56,44,0
0,60,82,0
0,56,85,0
0,56,44,0
0,63,64,36
0,63,64,0
0,61,72,1
0,58,68,0
0,58,43,0
0,39,95,0
0,61,72,0
0,58,68,0
0,58,43,0
0,39,95,0
0,63,76,10
0,60,82,0
0,60,48,0
0,39,82,0
0,63,76,0
0,60,82,0
0,39,82,0
0,60,48,0
0,68,78,38
0,68,78,0
0,60,74,1
0,56,78,0
0,56,51,0
0,39,82,0
0,60,74,0
0,56,78,0
0,56,51,0
0,39,82,0
0,62,87,16
0,65,90,0
0,65,48,0
0,51,74,0
0,62,87,0
0,65,90,0
0,51,74,0
0,65,48,0
0,65,82,40
0,65,82,0
0,63,78,1
0,68,87,0
0,68,42,0
0,63,78,0
0,68,87,0
0,68,42,0
0,65,70,2
0,62,95,0
0,62,44,0
0,65,70,0
0,62,95,0
0,62,44,0
0,68,68,47
0,68,68,0
0,67,91,3
0,63,80,0
0,63,46,0
0,67,91,0
0,63,80,0
0,63,46,0
0,68,82,48
0,65,80,0
0,65,58,0
0,68,82,0
0,65,80,0
0,65,58,0
0,77,80,39
0,77,80,0
0,68,70,1
0,62,85,0
0,62,45,0
0,39,93,0
0,68,70,0
0,62,85,0
0,62,45,0
0,39,93,0
0,67,85,6
0,63,68,0
0,63,37,0
0,39,95,0
0,67,85,0
0,63,68,0
0,39,95,0
0,63,37,0
0,70,64,42
0,70,64,0
0,68,78,5
0,65,85,0
0,68,78,0
0,65,85,0
0,70,82,46
0,67,85,0
0,70,82,0
0,67,85,0
0,75,74,0
0,75,74,0
0,74,80,2
0,70,82,0
0,74,80,0
0,70,82,0
0,67,89,48
0,75,85,0
0,75,85,0
0,67,89,0
0,79,80,43
0,79,80,0
0,77,85,47
0,62,98,0
0,77,85,0
0,62,98,0
0,79,82,45
0,79,82,0
0,63,80,2
0,63,80,0
0,75,74,42
0,75,74,0
0,74,74,44
0,74,74,0
0,67,87,1
0,67,87,0
0,75,64,43
0,75,64,0
0,60,85,2
0,60,85,0
0,72,52,36
0,72,52,0
0,62,87,2
0,62,87,0
0,70,53,3
0,70,53,0
0,72,61,3
0,72,61,0
0,63,74,1
0,63,74,0
0,62,93,21
0,62,93,0
0,60,82,1
0,60,82,0
0,69,48,4
0,69,48,0
0,62,85,0
0,62,85,0
0,63,87,0
0,63,87,0
0,67,56,5
0,67,56,0
0,53,95,40
0,53,95,0
0,69,59,6
0,69,59,0
0,65,87,3
0,65,87,0
0,63,74,1
0,63,74,0
0,65,85,0
0,65,85,0
0,60,80,43
0,60,80,0
0,57,82,2
0,57,82,0
0,53,91,2
0,53,91,0
0,69,76,48
0,69,57,0
0,69,76,0
0,69,57,0
0,75,74,1
0,75,74,0
0,74,82,6
0,70,46,0
0,58,68,0
0,74,82,0
0,70,46,0
0,58,68,0
0,70,76,31
0,70,76,0
0,65,85,3
0,65,85,0
0,67,87,35
0,51,85,0
0,67,87,0
0,51,85,0
0,63,70,41
0,63,70,0
0,62,82,47
0,62,82,0
0,60,85,2
0,60,82,0
0,60,49,0
0,53,91,0
0,60,85,0
0,60,82,0
0,53,91,0
0,60,49,0
0,70,74,47
0,70,74,0
0,69,80,1
0,69,80,0
0,70,63,1
0,62,72,0
0,62,45,0
0,70,63,0
0,62,72,0
0,62,45,0
0,58,93,40
0,58,93,0
0,57,100,48
0,57,100,0
0,58,85,7
0,58,85,0
0,53,85,36
0,53,85,0
0,50,95,1
0,50,95,0
0,46,89,48
0,46,89,0
0,58,61,42
0,58,61,0
0,57,64,48
0,57,64,0
0,58,63,4
0,58,63,0
0,62,82,41
0,46,98,0
0,62,82,0
0,46,98,0
0,60,61,1
0,45,82,0
0,60,61,0
0,45,82,0
0,62,80,45
0,46,91,0
0,62,80,0
0,46,91,0
0,65,70,1
0,50,85,0
0,65,70,0
0,50,85,0
0,63,68,2
0,48,87,0
0,46,89,0
0,63,68,0
0,48,87,0
0,46,89,0
0,65,76,7
0,50,89,0
0,46,100,0
0,65,76,0
0,50,89,0
0,46,100,0
0,68,70,0
0,53,87,0
0,68,70,0
0,53,87,0
0,62,74,16
0,56,66,0
0,46,89,0
0,62,74,0
0,56,66,0
0,46,89,0
0,63,68,6
0,55,89,0
0,46,87,0
0,63,68,0
0,55,89,0
0,46,87,0
0,67,80,2
0,58,72,0
0,67,80,0
0,58,72,0
0,65,70,2
0,67,62,0
0,56,82,0
0,65,70,0
0,67,62,0
0,56,82,0
0,67,85,40
0,58,82,0
0,67,85,0
0,58,82,0
0,70,64,1
0,55,87,0
0,70,64,0
0,55,87,0
0,68,78,3
0,53,82,0
0,46,89,0
0,68,78,0
0,53,82,0
0,46,89,0
0,70,78,1
0,55,85,0
0,46,87,0
0,70,78,0
0,55,85,0
0,46,87,0
0,75,64,46
0,58,72,0
0,75,64,0
0,58,72,0
0,67,76,1
0,62,85,0
0,58,85,0
0,67,76,0
0,62,85,0
0,58,85,0
0,69,85,8
0,60,91,0
0,58,62,0
0,69,85,0
0,60,91,0
0,58,62,0
0,72,72,46
0,63,80,0
0,72,72,0
0,63,80,0
0,70,70,5
0,62,85,0
0,70,70,0
0,62,85,0
0,72,66,1
0,63,85,0
0,72,66,0
0,63,85,0
0,75,70,37
0,60,93,0
0,75,70,0
0,60,93,0
0,74,74,4
0,58,80,0
0,74,74,0
0,58,80,0
0,75,72,3
0,60,85,0
0,75,72,0
0,60,85,0
0,84,68,45
0,58,78,0
0,84,68,0
0,58,78,0
0,75,70,42
0,57,80,0
0,46,89,0
0,75,70,0
0,57,80,0
0,46,89,0
0,74,72,7
0,58,78,0
0,46,85,0
0,74,72,0
0,58,78,0
0,46,85,0
0,70,78,48
0,62,85,0
0,70,78,0
0,62,85,0
0,69,76,0
0,60,85,0
0,69,76,0
0,60,85,0
0,70,76,47
0,62,93,0
0,70,76,0
0,62,93,0
0,74,82,3
0,65,80,0
0,74,82,0
0,65,80,0
0,72,70,1
0,63,82,0
0,72,70,0
0,63,82,0
0,65,93,48
0,74,85,0
0,74,85,0
0,65,93,0
0,77,80,1
0,68,76,0
0,77,80,0
0,68,76,0
0,75,60,2
0,67,89,0
0,75,60,0
0,67,89,0
0,68,89,48
0,77,85,0
0,77,85,0
0,68,89,0
0,58,85,40
0,58,85,0
0,57,95,1
0,57,95,0
0,58,66,0
0,58,85,0
0,53,87,48
0,53,87,0
0,50,93,43
0,50,93,0
0,46,91,48
0,46,91,0
0,67,66,41
0,63,78,0
0,67,66,0
0,63,78,0
0,65,66,5
0,62,82,0
0,65,66,0
0,62,82,0
0,67,64,2
0,63,74,0
0,67,64,0
0,63,74,0
0,58,89,44
0,58,89,0
0,56,87,48
0,56,87,0
0,58,74,0
0,58,74,0
0,55,85,41
0,55,85,0
0,51,82,42
0,51,82,0
0,46,89,47
0,46,89,0
0,74,85,44
0,65,89,0
0,74,85,0
0,65,89,0
0,75,63,31
0,67,98,0
0,75,63,0
0,67,98,0
0,77,74,45
0,68,82,0
0,77,74,0
0,68,82,0
0,46,98,40
0,46,98,0
0,45,89,19
0,45,89,0
0,46,93,42
0,46,93,0
0,50,85,44
0,50,85,0
0,77,91,47
0,68,89,0
0,48,91,0
0,77,91,0
0,68,89,0
0,48,91,0
0,71,87,21
0,68,82,0
0,50,93,0
0,71,87,0
0,68,82,0
0,50,93,0
0,53,78,43
0,53,78,0
0,72,76,45
0,65,93,0
0,51,82,0
0,72,76,0
0,65,93,0
0,51,82,0
0,71,68,45
0,62,95,0
0,53,82,0
0,71,68,0
0,62,95,0
0,53,82,0
0,56,100,41
0,56,100,0
0,55,91,4
0,55,91,0
0,56,76,0
0,56,76,0
0,59,78,42
0,59,78,0
0,62,80,11
0,62,80,0
0,65,74,46
0,47,98,0
0,65,74,0
0,47,98,0
0,63,64,42
0,63,64,0
0,62,74,3
0,62,74,0
0,63,80,3
0,48,89,0
0,63,80,0
0,48,89,0
0,67,80,48
0,67,80,0
0,72,72,3
0,72,72,0
0,75,66,0
0,60,93,0
0,75,66,0
0,60,93,0
0,74,82,48
0,74,82,0
0,72,76,26
0,72,76,0
0,58,87,4
0,58,87,0
0,63,76,48
0,63,76,0
0,72,74,4
0,72,74,0
0,65,80,3
0,56,85,0
0,65,80,0
0,56,85,0
0,68,74,48
0,68,74,0
0,72,80,22
0,72,80,0
0,75,82,45
0,44,95,0
0,75,82,0
0,44,95,0
0,74,87,44
0,74,87,0
0,72,78,16
0,72,78,0
0,51,87,4
0,51,87,0
0,67,82,48
0,67,82,0
0,72,78,16
0,72,78,0
0,68,80,46
0,53,85,0
0,68,80,0
0,53,85,0
0,71,82,46
0,71,82,0
0,72,70,26
0,72,70,0
0,75,76,46
0,54,91,0
0,75,76,0
0,54,91,0
0,74,85,46
0,74,85,0
0,72,78,26
0,72,78,0
0,55,100,2
0,55,100,0
0,65,91,48
0,65,91,0
0,71,91,7
0,71,91,0
0,72,76,48
0,72,76,0
0,48,91,0
0,48,91,0
0,67,80,47
0,67,80,0
0,63,70,44
0,63,70,0
0,60,82,46
0,60,82,0
0,51,93,44
0,51,93,0
0,55,95,45
0,55,95,0
0,58,107,45
0,58,107,0
0,57,100,44
0,57,100,0
0,55,100,45
0,55,100,0
0,57,89,47
0,57,89,0
0,75,60,42
0,75,60,0
0,74,68,48
0,74,68,0
0,75,60,38
0,75,60,0
0,72,63,47
0,72,63,0
0,69,74,1
0,69,74,0
0,65,66,48
0,65,66,0
0,60,80,48
0,60,80,0
0,53,95,48
0,53,95,0
0,58,82,46
0,58,82,0
0,65,78,37
0,65,78,0
0,63,70,6
0,63,70,0
0,65,82,2
0,53,43,0
0,65,82,0
0,53,43,0
0,58,36,48
0,70,74,0
0,70,74,0
0,58,36,0
0,72,74,42
0,60,50,0
0,72,74,0
0,60,50,0
0,73,64,46
0,61,47,0
0,73,64,0
0,61,47,0
0,56,78,41
0,56,78,0
0,53,87,6
0,53,87,0
0,55,82,4
0,55,82,0
0,73,82,41
0,73,82,0
0,72,72,0
0,72,72,0
0,73,82,48
0,73,82,0
0,70,80,47
0,70,80,0
0,67,87,1
0,67,87,0
0,63,68,48
0,63,68,0
0,58,82,41
0,58,82,0
0,51,80,16
0,51,80,0
0,56,89,46
0,56,89,0
0,63,70,43
0,63,70,0
0,61,76,21
0,61,76,0
0,63,80,48
0,51,43,0
0,63,80,0
0,51,43,0
0,68,78,1
0,56,44,0
0,68,78,0
0,56,44,0
0,58,51,48
0,70,76,0
0,70,76,0
0,58,51,0
0,72,74,11
0,60,39,0
0,72,74,0
0,60,39,0
0,55,76,43
0,55,74,1
0,51,78,0
0,51,64,3
0,53,89,0
0,53,87,0
0,62,82,48
0,62,82,0
0,68,74,13
0,68,74,0
0,72,85,47
0,72,85,0
0,70,82,45
0,70,82,0
0,68,66,40
0,68,66,0
0,55,87,6
0,55,87,0
0,61,89,48
0,61,89,0
0,70,80,1
0,70,80,0
0,52,89,14
0,52,89,0
0,60,98,48
0,60,98,0
0,67,98,21
0,67,98,0
0,70,80,47
0,70,80,0
0,68,74,42
0,68,74,0
0,67,87,39
0,67,87,0
0,53,93,3
0,53,93,0
0,60,91,48
0,60,91,0
0,68,80,1
0,68,80,0
0,50,105,4
0,50,105,0
0,58,85,48
0,58,85,0
0,68,80,33
0,68,80,0
0,51,87,6
0,51,87,0
0,68,85,48
0,68,85,0
0,67,85,27
0,67,85,0
0,45,107,6
0,45,107,0
0,72,80,48
0,72,80,0
0,63,78,28
0,63,78,0
0,46,91,4
0,46,91,0
0,62,82,48
0,62,82,0
0,60,89,18
0,60,89,0
0,62,87,47
0,62,87,0
0,58,70,45
0,50,98,0
0,58,70,0
0,50,98,0
0,57,68,3
0,48,100,0
0,57,68,0
0,48,100,0
0,58,72,43
0,50,93,0
0,58,72,0
0,50,93,0
0,62,74,43
0,53,87,0
0,62,74,0
0,53,87,0
0,65,87,44
0,56,89,0
0,65,87,0
0,56,89,0
0,68,68,14
0,46,89,0
0,68,68,0
0,46,89,0
0,65,82,48
0,50,100,0
0,65,82,0
0,50,100,0
0,63,72,45
0,48,89,0
0,63,72,0
0,48,89,0
0,65,87,1
0,50,98,0
0,65,87,0
0,50,98,0
0,62,85,43
0,53,91,0
0,62,85,0
0,53,91,0
0,60,78,43
0,51,87,0
0,60,78,0
0,51,87,0
0,62,89,42
0,53,85,0
0,62,89,0
0,53,85,0
0,65,82,42
0,50,93,0
0,65,82,0
0,50,93,0
0,68,63,42
0,46,107,0
0,68,63,0
0,46,107,0
0,72,85,5
0,72,85,0
0,63,80,45
0,63,80,0
0,62,80,3
0,53,98,0
0,62,80,0
0,53,98,0
0,43,102,48
0,70,87,0
0,70,87,0
0,43,102,0
0,61,80,41
0,61,80,0
0,60,85,0
0,51,87,0
0,60,85,0
0,51,87,0
0,68,80,2
0,41,100,0
0,68,80,0
0,41,100,0
0,59,85,48
0,59,85,0
0,58,76,4
0,50,87,0
0,58,76,0
0,50,87,0
0,39,105,1
0,39,105,0
0,67,80,37
0,67,80,0
0,65,80,2
0,65,80,0
0,67,82,48
0,67,82,0
0,63,72,45
0,55,95,0
0,63,72,0
0,55,95,0
0,62,82,3
0,53,95,0
0,62,82,0
0,53,95,0
0,63,70,38
0,55,89,0
0,63,70,0
0,55,89,0
0,65,66,2
0,67,72,0
0,58,82,0
0,65,66,0
0,67,72,0
0,58,82,0
0,70,80,42
0,61,82,0
