track,note,velocity,time
1,51,90,2672
1,55,105,0
1,58,120,0
1,63,127,0
1,67,118,0
1,55,85,8
1,58,83,28
1,63,86,16
1,67,96,8
1,58,120,8
1,55,99,0
1,65,101,0
1,63,83,20
1,65,97,36
1,55,85,0
1,60,99,60
1,65,115,0
1,58,84,0
1,53,92,0
1,50,93,0
1,62,95,8
1,65,107,192
1,62,115,0
1,60,90,0
1,53,83,0
1,50,88,40
1,53,93,28
1,58,94,0
1,65,124,0
1,62,118,0
1,53,79,52
1,48,99,4
1,63,94,0
1,60,99,0
1,55,88,0
1,55,87,4
1,60,85,180
1,60,101,96
1,63,110,0
1,55,94,0
1,48,103,68
1,65,95,0
1,60,95,0
1,55,91,0
1,63,81,192
1,62,92,4
1,63,101,12
1,60,95,0
1,46,95,0
1,55,86,0
1,55,83,208
1,60,83,108
1,65,97,60
1,60,96,0
1,55,94,0
1,46,91,8
1,63,80,184
1,62,103,140
1,63,96,36
1,56,98,8
1,60,98,0
1,51,98,0
1,44,98,0
1,63,98,0
1,56,80,24
1,60,93,8
1,63,81,4
1,51,110,20
1,65,96,0
1,60,99,0
1,56,88,0
1,63,82,12
1,56,71,0
1,62,94,8
1,63,87,28
1,51,83,4
1,46,85,72
1,63,107,0
1,58,101,0
1,55,95,12
1,58,85,4
1,55,84,8
1,58,94,48
1,56,89,0
1,46,83,0
1,53,96,0
1,62,94,0
1,56,85,84
1,53,78,12
1,56,94,48
1,46,88,0
1,39,109,20
1,58,109,0
1,51,109,0
1,63,109,0
1,55,109,0
1,55,79,64
1,58,107,52
1,63,87,8
1,67,97,112
1,58,107,0
1,63,101,0
1,55,93,0
1,51,88,0
1,55,79,0
1,46,87,80
1,58,101,0
1,65,93,0
1,58,89,40
1,46,92,0
1,63,99,0
1,39,105,0
1,51,105,0
1,63,105,0
1,58,105,0
1,55,105,4
1,63,110,32
1,58,110,0
1,51,90,0
1,55,103,0
1,67,106,360
1,58,101,0
1,55,97,0
1,65,92,188
1,63,86,88
1,58,81,24
1,63,113,12
1,51,87,4
1,58,99,156
1,55,80,16
1,67,113,68
1,63,118,0
1,58,110,0
1,55,83,24
1,65,92,16
1,58,124,0
1,55,86,12
1,58,91,4
1,50,105,0
1,53,96,0
1,53,78,148
1,65,96,16
1,53,103,0
1,58,99,0
1,60,110,4
1,50,82,184
1,53,78,52
1,58,93,32
1,62,106,0
1,53,93,0
1,50,93,228
1,53,73,8
1,53,92,112
1,65,94,0
1,58,103,0
1,60,99,0
1,53,78,20
1,53,90,68
1,58,127,0
1,62,120,0
1,50,92,16
1,53,80,16
1,58,120,88
1,65,94,0
1,53,79,0
1,60,105,0
1,56,85,208
1,60,79,0
1,68,96,128
1,60,103,0
1,63,120,0
1,68,95,84
1,63,124,4
1,60,106,0
1,56,72,100
1,60,74,8
1,68,106,76
1,63,127,0
1,60,107,0
1,56,85,64
1,60,80,64
1,67,101,24
1,58,106,4
1,63,93,0
1,67,93,84
1,58,89,0
1,63,91,0
1,65,106,48
1,56,120,4
1,62,113,0
1,56,85,100
1,62,106,0
1,65,101,0
1,56,80,40
1,58,105,20
1,55,105,0
1,63,107,0
1,67,110,0
1,55,82,48
1,58,87,112
1,67,96,80
1,63,92,0
1,58,89,0
1,55,82,0
1,65,113,108
1,58,110,0
1,55,101,4
1,63,87,0
1,65,87,20
1,58,127,36
1,67,107,0
1,63,127,0
1,55,91,8
1,55,79,8
1,65,110,92
1,58,101,0
1,55,91,0
1,58,89,124
1,65,92,4
1,55,80,0
1,55,89,32
1,63,87,0
1,51,83,0
1,41,97,8
1,57,94,0
1,60,96,0
1,57,72,204
1,60,74,68
1,57,115,0
1,65,107,0
1,60,120,0
1,51,113,0
1,63,99,68
1,60,89,148
1,60,99,112
1,63,101,0
1,57,90,0
1,41,101,28
1,51,85,0
1,60,97,124
1,57,105,0
1,48,72,32
1,51,85,8
1,60,106,0
1,57,94,4
1,62,99,188
1,63,124,20
1,51,93,72
1,63,95,44
1,60,118,0
1,56,99,0
1,51,89,0
1,44,92,0
1,56,84,20
1,51,91,164
1,65,120,180
1,56,124,8
1,60,105,0
1,63,84,0
1,60,99,4
1,63,89,76
1,56,103,0
1,60,97,4
1,51,94,4
1,44,94,8
1,65,99,148
1,56,95,8
1,60,105,0
1,56,72,36
1,51,118,0
1,56,94,0
1,60,107,0
1,63,93,0
1,56,88,116
1,51,87,36
1,63,97,24
1,51,127,0
1,55,96,0
1,55,74,100
1,58,113,112
1,51,80,16
1,55,79,4
1,58,127,124
1,63,115,0
1,55,93,0
1,51,110,0
1,65,103,40
1,55,83,0
1,58,86,0
1,63,115,4
1,55,82,0
1,58,79,8
1,51,80,4
1,55,69,8
1,62,107,36
1,58,99,4
1,53,115,0
1,53,79,16
1,62,124,84
1,56,118,0
1,53,120,0
1,46,80,196
1,53,77,16
1,46,87,100
1,56,86,0
1,53,73,152
1,39,95,4
1,63,97,4
1,55,105,0
1,58,99,0
1,51,89,0
1,55,99,12
1,51,90,68
1,55,105,156
1,51,127,0
1,58,127,0
1,63,127,0
1,65,92,24
1,55,84,0
1,63,103,80
1,58,33,0
1,65,90,20
1,55,80,0
1,58,124,12
1,67,120,0
1,51,96,0
1,63,127,0
1,55,106,0
1,55,79,4
1,55,97,64
1,67,120,192
1,58,127,0
1,63,127,0
1,56,101,56
1,44,93,4
1,63,110,0
1,61,103,0
1,56,90,108
1,60,107,0
1,63,95,0
1,51,73,192
1,56,79,8
1,60,87,0
1,58,105,4
1,67,106,0
1,63,99,4
1,46,84,0
1,62,124,232
1,58,95,0
1,65,107,0
1,58,80,16
1,53,70,100
1,58,71,0
1,67,105,20
1,58,93,0
1,51,93,0
1,63,95,0
1,58,110,56
1,67,97,0
1,63,82,0
1,51,79,64
1,65,99,44
1,63,89,16
1,58,82,52
1,63,86,120
1,58,83,0
1,55,92,8
1,51,79,84
1,58,87,188
1,55,78,0
1,55,86,4
1,58,120,140
1,63,107,0
1,63,107,32
1,58,120,0
1,55,105,0
1,51,82,0
1,75,105,156
1,79,94,0
1,70,99,0
1,58,78,196
1,77,95,84
1,75,86,4
1,70,80,36
1,67,89,140
1,51,73,4
1,63,107,120
1,58,94,140
1,55,91,140
1,58,71,280
1,58,78,336
1,63,74,8
1,58,92,60
1,65,97,0
1,62,110,0
1,53,81,372
1,58,103,516
1,60,105,0
1,53,74,60
1,58,86,12
1,62,107,8
1,53,71,20
1,58,67,196
1,65,99,140
1,58,87,0
1,62,107,0
1,46,73,4
1,58,78,56
1,53,85,92
1,63,96,136
1,56,92,0
1,60,110,0
1,56,91,208
1,60,107,0
1,63,90,0
1,51,83,16
1,56,32,128
1,58,94,0
1,63,96,4
1,51,93,0
1,55,89,0
1,58,96,12
1,62,110,4
1,53,96,0
1,53,80,92
1,46,33,48
1,58,82,20
1,51,92,24
1,58,93,4
1,63,91,0
1,55,88,0
1,63,89,100
1,58,85,0
1,55,83,0
1,51,67,44
1,65,95,184
1,58,107,4
1,55,103,0
1,63,85,4
1,58,67,24
1,63,95,128
1,55,93,0
1,58,106,0
1,51,80,12
1,51,79,16
1,58,124,188
1,63,110,0
1,55,105,0
1,51,80,236
1,63,84,124
1,55,88,0
1,58,89,0
1,63,91,8
1,51,87,4
1,57,96,0
1,63,94,64
1,57,94,0
1,60,97,0
1,60,92,40
1,57,81,4
1,51,68,8
1,57,92,88
1,63,89,0
1,60,94,0
1,51,70,120
1,63,90,156
1,57,94,0
1,60,95,0
1,51,78,304
1,63,103,188
1,57,96,0
1,60,105,0
1,51,82,8
1,56,82,176
1,56,110,4
1,60,110,4
1,63,103,0
1,44,91,0
1,51,89,464
1,56,93,144
1,68,101,0
1,60,101,0
1,63,87,4
1,56,79,48
1,51,86,92
1,56,95,184
1,60,97,4
1,56,107,160
1,63,89,0
1,51,84,0
1,60,88,36
1,56,66,40
1,58,93,4
1,46,91,0
1,55,87,0
1,63,91,0
1,55,57,48
1,58,79,8
1,67,94,128
1,58,95,0
1,55,97,0
1,46,76,8
1,65,78,116
1,63,81,36
1,58,79,8
1,55,67,4
1,46,82,24
1,56,94,124
1,62,110,0
1,46,80,0
1,53,85,0
1,56,91,152
1,53,94,0
1,62,105,0
1,46,81,20
1,53,74,76
1,63,90,40
1,55,97,8
1,51,84,0
1,58,89,0
1,55,76,32
1,55,90,16
1,67,90,0
1,51,80,192
1,65,101,16
1,63,94,192
1,58,77,32
1,58,99,8
1,67,103,0
1,63,91,4
1,51,86,4
1,58,107,52
1,65,107,0
1,51,82,192
1,63,81,20
1,58,120,32
1,60,120,32
1,68,127,0
1,63,127,0
1,63,118,12
1,68,120,0
1,60,115,4
1,58,90,224
1,67,99,0
1,65,78,184
1,63,80,16
1,67,105,8
1,58,97,0
1,63,96,4
1,58,79,20
1,58,99,140
1,65,110,4
1,62,118,0
1,58,81,124
1,63,118,44
1,58,124,0
1,55,120,4
1,67,115,0
1,58,113,8
1,63,103,0
1,65,95,32
1,63,85,24
1,65,91,20
1,67,106,52
1,58,120,0
1,63,105,0
1,75,107,36
1,67,127,0
1,70,127,0
1,67,105,72
1,61,124,8
1,63,118,0
1,68,118,0
1,68,95,64
1,63,103,0
1,60,97,0
1,67,101,292
1,58,103,0
1,63,96,8
1,65,84,96
1,63,87,28
1,67,107,8
1,58,93,0
1,63,99,0
1,58,75,20
1,65,107,144
1,58,92,0
1,62,127,4
1,58,79,8
1,58,127,48
1,55,127,0
1,63,127,0
1,58,93,460
1,58,110,152
1,67,107,0
1,65,97,0
1,63,80,40
1,65,97,4
1,58,120,40
1,63,110,0
1,55,79,220
1,55,120,136
1,63,118,0
1,58,127,0
1,55,81,16
1,63,110,84
1,58,124,0
1,61,120,284
1,68,127,0
1,63,115,0
1,68,127,160
1,63,127,4
1,60,127,0
1,60,82,24
1,63,127,64
1,67,106,16
1,58,124,0
1,63,96,0
1,58,84,8
1,58,127,16
1,62,124,4
1,65,113,0
1,58,127,16
1,63,118,28
1,55,115,0
1,58,127,0
1,63,78,60
1,55,79,4
1,58,83,0
1,63,127,288
1,58,127,0
1,55,120,4
1,55,87,176
1,62,127,256
1,59,127,0
1,55,124,0
1,55,99,44
1,62,127,260
1,55,127,0
1,59,127,0
1,67,127,0
1,55,97,24
1,67,107,8
1,60,127,0
1,63,127,0
1,60,120,332
1,63,127,0
1,67,120,0
1,60,77,0
1,67,96,68
1,63,124,0
1,60,94,8
1,60,120,4
1,67,118,0
1,62,127,0
1,60,94,12
1,66,127,304
1,60,127,0
1,62,127,0
1,60,87,12
1,67,113,264
1,58,127,0
1,62,127,0
1,58,63,12
1,67,106,336
1,58,127,0
1,62,120,0
1,58,97,124
1,58,93,124
1,67,94,12
1,62,85,4
1,58,127,128
1,62,127,0
1,67,127,0
1,58,92,24
1,58,124,324
1,67,99,4
1,62,127,0
1,58,96,36
1,56,120,36
1,60,120,0
1,63,93,0
1,56,113,284
1,60,120,0
1,63,94,8
1,56,105,36
1,56,127,132
1,60,118,0
1,63,101,4
1,56,83,4
1,55,127,0
1,58,127,0
1,63,124,0
1,62,99,292
1,53,120,0
1,58,127,0
1,53,107,92
1,58,77,60
1,63,118,52
1,58,127,0
1,55,124,0
1,55,71,64
1,63,118,284
1,55,127,0
1,58,127,0
1,55,97,160
1,63,83,8
1,62,115,40
1,55,113,0
1,59,107,8
1,55,120,28
1,55,118,308
1,59,127,0
1,62,127,0
1,67,120,0
1,55,94,200
1,59,86,96
1,67,94,144
1,63,127,4
1,60,113,0
1,60,113,240
1,67,107,0
1,63,127,0
1,60,87,24
1,60,103,112
1,67,99,4
1,63,127,0
1,60,82,8
1,60,118,116
1,67,107,0
1,62,127,0
1,60,89,16
1,60,124,292
1,66,127,0
1,62,127,0
1,60,81,20
1,62,127,16
1,58,124,4
1,67,115,0
1,67,107,240
1,58,95,0
1,62,120,4
1,58,118,196
1,70,96,128
1,62,120,0
1,58,118,0
1,67,106,28
1,62,79,0
1,58,76,4
1,58,127,72
1,62,115,0
1,67,107,0
1,58,76,20
1,67,110,300
1,62,120,0
1,58,127,0
1,58,110,48
1,56,124,8
1,60,120,0
1,63,97,0
1,56,127,284
1,60,127,0
1,63,95,0
1,56,94,44
1,60,101,60
1,56,81,20
1,63,106,116
1,55,124,0
1,58,127,0
1,55,76,4
1,58,106,120
1,62,118,0
1,53,127,4
1,53,81,36
1,58,110,96
1,55,120,20
1,58,127,0
1,63,110,0
1,55,82,12
1,55,101,316
1,58,127,0
1,63,105,0
1,55,99,20
1,58,110,76
1,63,118,100
1,55,103,0
1,67,124,0
1,63,127,0
1,58,124,0
1,58,120,60
1,55,105,0
1,51,82,0
1,75,105,156
1,79,94,0
1,70,99,0
1,58,78,196
1,77,95,84
1,75,86,4
1,70,80,36
1,67,89,140
1,51,73,4
1,63,107,120
1,58,94,140
1,55,91,140
1,58,71,280
1,58,78,336
1,63,74,8
1,58,92,12
1,65,97,0
1,62,110,0
1,53,81,372
1,58,103,516
1,60,105,0
1,53,74,60
1,58,86,12
1,62,107,8
1,53,71,20
1,58,67,196
1,65,99,140
1,58,87,0
1,62,107,0
1,46,73,4
1,58,78,56
1,53,85,92
1,63,96,136
1,56,92,0
1,60,110,0
1,56,91,208
1,60,107,0
1,63,90,0
1,51,83,16
1,56,32,128
1,58,94,0
1,63,96,4
1,51,93,0
1,55,89,0
1,58,96,12
1,62,110,4
1,53,96,0
1,53,80,92
1,46,33,48
1,58,82,20
1,51,92,24
1,58,93,4
1,63,91,0
1,55,88,0
1,63,89,100
1,58,85,0
1,55,83,0
1,51,67,44
1,65,95,184
1,58,107,4
1,55,103,0
1,63,85,4
1,58,67,24
1,63,95,128
1,55,93,0
1,58,106,0
1,51,80,12
1,51,79,16
1,58,124,188
1,63,110,0
1,55,105,0
1,51,80,236
1,63,84,124
1,55,88,0
1,58,89,0
1,63,91,8
1,51,87,4
1,57,96,0
1,63,94,64
1,57,94,0
1,60,97,0
1,60,92,40
1,57,81,4
1,51,68,8
1,57,92,88
1,63,89,0
1,60,94,0
1,51,70,120
1,63,90,156
1,57,94,0
1,60,95,0
1,51,78,304
1,63,103,188
1,57,96,0
1,60,105,0
1,51,82,8
1,56,82,176
1,56,110,4
1,60,110,4
1,63,103,0
1,44,91,0
1,51,89,464
1,56,93,144
1,68,101,0
1,60,101,0
1,63,87,4
1,56,79,48
1,51,86,92
1,56,95,184
1,60,97,4
1,56,107,160
1,63,89,0
1,51,84,0
1,60,88,36
1,56,66,40
1,58,93,4
1,46,91,0
1,55,87,0
1,63,91,0
1,55,57,48
1,58,79,8
1,67,94,128
1,58,95,0
1,55,97,0
1,46,76,8
1,65,78,116
1,63,81,36
1,58,79,8
1,55,67,4
1,46,82,24
1,56,94,124
1,62,110,0
1,46,80,0
1,53,85,0
1,56,91,152
1,53,94,0
1,62,105,0
1,46,81,20
1,53,74,76
1,63,90,40
1,55,97,8
1,51,84,0
1,58,89,0
1,55,76,32
1,55,90,16
1,67,90,0
1,51,80,192
1,65,101,16
1,63,94,192
1,58,77,32
1,58,99,8
1,67,103,0
1,63,91,4
1,51,86,4
1,58,107,52
1,65,107,0
1,51,82,192
1,63,81,20
1,58,120,32
1,61,120,32
1,68,127,0
1,63,127,0
1,63,118,12
1,68,120,0
1,60,115,4
1,58,90,224
1,67,99,0
1,65,78,184
1,63,80,16
1,67,105,8
1,58,97,0
1,63,96,4
1,58,79,20
1,58,99,140
1,65,110,4
1,62,118,0
1,58,81,124
1,63,118,44
1,58,124,0
1,55,120,4
1,67,115,0
1,58,113,8
1,63,103,0
1,65,95,32
1,63,85,24
1,65,91,20
1,67,106,52
1,58,120,0
1,63,105,0
1,75,107,36
1,67,127,0
1,70,127,0
1,67,105,72
1,61,124,8
1,63,118,0
1,68,118,0
1,68,95,64
1,63,103,0
1,60,97,0
1,67,101,292
1,58,103,0
1,63,96,8
1,65,84,96
1,63,87,28
1,67,107,8
1,58,93,0
1,63,99,0
1,58,75,20
