track,note,velocity,time
1.0,70.0,47.0,1536.0
1.0,67.0,55.0,116.0
1.0,65.0,50.0,8.0
1.0,67.0,50.0,130.0
1.0,63.0,61.0,134.0
1.0,68.0,62.0,4.0
1.0,67.0,64.0,20.0
1.0,68.0,65.0,22.0
1.0,72.0,60.0,34.0
1.0,70.0,32.0,6.0
1.0,69.0,49.0,284.0
1.0,65.0,64.0,16.0
1.0,75.0,79.0,42.0
1.0,74.0,78.0,170.0
1.0,74.0,65.0,132.0
1.0,72.0,56.0,16.0
1.0,74.0,70.0,0.0
1.0,72.0,56.0,16.0
1.0,74.0,57.0,50.0
1.0,72.0,56.0,10.0
1.0,74.0,73.0,10.0
1.0,72.0,46.0,56.0
1.0,70.0,57.0,4.0
1.0,72.0,65.0,2.0
1.0,70.0,52.0,76.0
1.0,77.0,59.0,10.0
1.0,74.0,57.0,10.0
1.0,70.0,43.0,116.0
1.0,68.0,46.0,132.0
1.0,77.0,61.0,24.0
1.0,74.0,50.0,24.0
1.0,68.0,52.0,6.0
1.0,67.0,57.0,56.0
1.0,63.0,62.0,16.0
1.0,62.0,62.0,114.0
1.0,60.0,64.0,10.0
1.0,80.0,72.0,4.0
1.0,62.0,71.0,128.0
1.0,58.0,66.0,2.0
1.0,79.0,80.0,14.0
1.0,63.0,78.0,80.0
1.0,62.0,74.0,0.0
1.0,77.0,72.0,18.0
1.0,63.0,77.0,10.0
1.0,67.0,75.0,26.0
1.0,75.0,65.0,2.0
1.0,72.0,62.0,122.0
1.0,74.0,65.0,0.0
1.0,65.0,36.0,18.0
1.0,75.0,66.0,118.0
1.0,77.0,76.0,14.0
1.0,62.0,47.0,290.0
1.0,58.0,55.0,0.0
1.0,68.0,76.0,158.0
1.0,75.0,69.0,28.0
1.0,67.0,79.0,112.0
1.0,77.0,84.0,2.0
1.0,79.0,88.0,34.0
1.0,67.0,62.0,100.0
1.0,80.0,72.0,14.0
1.0,65.0,58.0,24.0
1.0,67.0,61.0,26.0
1.0,77.0,63.0,14.0
1.0,65.0,21.0,18.0
1.0,67.0,45.0,46.0
1.0,70.0,46.0,2.0
1.0,65.0,39.0,14.0
1.0,67.0,41.0,50.0
1.0,80.0,45.0,34.0
1.0,65.0,29.0,10.0
1.0,63.0,41.0,8.0
1.0,79.0,53.0,12.0
1.0,70.0,41.0,28.0
1.0,75.0,59.0,54.0
1.0,67.0,44.0,2.0
1.0,79.0,90.0,50.0
1.0,65.0,40.0,24.0
1.0,84.0,90.0,24.0
1.0,63.0,42.0,10.0
1.0,72.0,59.0,6.0
1.0,69.0,46.0,146.0
1.0,65.0,33.0,18.0
1.0,62.0,58.0,2.0
1.0,69.0,37.0,146.0
1.0,74.0,56.0,124.0
1.0,65.0,35.0,14.0
1.0,77.0,59.0,32.0
1.0,63.0,39.0,2.0
1.0,82.0,52.0,2.0
1.0,61.0,48.0,10.0
1.0,70.0,45.0,110.0
1.0,67.0,46.0,24.0
1.0,63.0,46.0,64.0
1.0,60.0,49.0,10.0
1.0,67.0,52.0,0.0
1.0,72.0,51.0,4.0
1.0,63.0,45.0,10.0
1.0,75.0,64.0,6.0
1.0,60.0,37.0,16.0
1.0,80.0,62.0,46.0
1.0,62.0,41.0,6.0
1.0,70.0,43.0,12.0
1.0,63.0,52.0,28.0
1.0,79.0,73.0,2.0
1.0,72.0,51.0,44.0
1.0,58.0,51.0,86.0
1.0,77.0,67.0,4.0
1.0,74.0,57.0,6.0
1.0,55.0,66.0,18.0
1.0,73.0,46.0,10.0
1.0,53.0,94.0,2.0
1.0,55.0,73.0,130.0
1.0,51.0,80.0,16.0
1.0,72.0,52.0,6.0
1.0,79.0,71.0,2.0
1.0,56.0,73.0,122.0
1.0,70.0,38.0,12.0
1.0,55.0,73.0,2.0
1.0,74.0,54.0,8.0
1.0,56.0,74.0,116.0
1.0,60.0,78.0,12.0
1.0,68.0,52.0,2.0
1.0,75.0,58.0,0.0
1.0,67.0,56.0,4.0
1.0,68.0,51.0,140.0
1.0,58.0,48.0,10.0
1.0,70.0,57.0,122.0
1.0,72.0,59.0,14.0
1.0,77.0,71.0,274.0
1.0,57.0,69.0,10.0
1.0,53.0,102.0,12.0
1.0,63.0,95.0,50.0
1.0,79.0,89.0,0.0
1.0,70.0,75.0,56.0
1.0,72.0,78.0,8.0
1.0,62.0,87.0,6.0
1.0,74.0,73.0,6.0
1.0,62.0,72.0,144.0
1.0,75.0,76.0,10.0
1.0,60.0,77.0,10.0
1.0,62.0,54.0,72.0
1.0,74.0,80.0,12.0
1.0,60.0,75.0,0.0
1.0,62.0,62.0,34.0
1.0,72.0,56.0,8.0
1.0,81.0,94.0,12.0
1.0,65.0,46.0,6.0
1.0,60.0,54.0,20.0
1.0,62.0,50.0,14.0
1.0,75.0,55.0,22.0
1.0,60.0,51.0,8.0
1.0,58.0,52.0,16.0
1.0,82.0,83.0,0.0
1.0,74.0,57.0,16.0
1.0,65.0,44.0,116.0
1.0,77.0,75.0,4.0
1.0,62.0,66.0,0.0
1.0,58.0,57.0,122.0
1.0,56.0,49.0,138.0
1.0,74.0,74.0,4.0
1.0,65.0,41.0,92.0
1.0,62.0,57.0,128.0
1.0,70.0,48.0,16.0
1.0,56.0,50.0,40.0
1.0,55.0,52.0,34.0
1.0,75.0,51.0,4.0
1.0,82.0,57.0,20.0
1.0,79.0,69.0,138.0
1.0,63.0,51.0,4.0
1.0,75.0,69.0,88.0
1.0,73.0,63.0,52.0
1.0,82.0,68.0,108.0
1.0,79.0,76.0,134.0
1.0,51.0,40.0,10.0
1.0,73.0,67.0,74.0
1.0,56.0,42.0,0.0
1.0,72.0,79.0,4.0
1.0,63.0,51.0,2.0
1.0,75.0,72.0,16.0
1.0,60.0,48.0,16.0
1.0,56.0,42.0,26.0
1.0,80.0,65.0,14.0
1.0,55.0,44.0,8.0
1.0,72.0,45.0,12.0
1.0,63.0,45.0,60.0
1.0,68.0,49.0,14.0
1.0,60.0,37.0,26.0
1.0,55.0,44.0,54.0
1.0,53.0,59.0,46.0
1.0,74.0,49.0,2.0
1.0,80.0,61.0,2.0
1.0,77.0,74.0,122.0
1.0,62.0,33.0,26.0
1.0,74.0,74.0,98.0
1.0,72.0,70.0,112.0
1.0,80.0,71.0,110.0
1.0,50.0,42.0,104.0
1.0,77.0,73.0,2.0
1.0,72.0,68.0,36.0
1.0,70.0,62.0,112.0
1.0,55.0,58.0,16.0
1.0,62.0,60.0,16.0
1.0,74.0,77.0,74.0
1.0,58.0,47.0,18.0
1.0,55.0,44.0,22.0
1.0,79.0,87.0,2.0
1.0,70.0,43.0,16.0
1.0,53.0,54.0,10.0
1.0,61.0,43.0,38.0
1.0,67.0,60.0,2.0
1.0,58.0,37.0,6.0
1.0,55.0,33.0,56.0
1.0,72.0,47.0,24.0
1.0,52.0,34.0,8.0
1.0,60.0,35.0,16.0
1.0,70.0,43.0,2.0
1.0,55.0,36.0,16.0
1.0,52.0,38.0,66.0
1.0,68.0,48.0,32.0
1.0,53.0,60.0,14.0
1.0,60.0,44.0,40.0
1.0,72.0,63.0,6.0
1.0,56.0,49.0,2.0
1.0,74.0,77.0,8.0
1.0,53.0,68.0,10.0
1.0,75.0,73.0,10.0
1.0,77.0,76.0,26.0
1.0,50.0,45.0,0.0
1.0,58.0,34.0,80.0
1.0,72.0,59.0,6.0
1.0,70.0,56.0,114.0
1.0,53.0,63.0,20.0
1.0,68.0,55.0,12.0
1.0,50.0,41.0,16.0
1.0,51.0,50.0,16.0
1.0,67.0,57.0,12.0
1.0,58.0,36.0,114.0
1.0,75.0,54.0,32.0
1.0,55.0,33.0,12.0
1.0,51.0,30.0,14.0
1.0,46.0,30.0,22.0
1.0,65.0,34.0,4.0
1.0,74.0,54.0,12.0
1.0,72.0,51.0,8.0
1.0,56.0,44.0,4.0
1.0,74.0,63.0,22.0
1.0,70.0,53.0,12.0
1.0,55.0,35.0,0.0
1.0,75.0,59.0,116.0
1.0,74.0,69.0,4.0
1.0,53.0,49.0,10.0
1.0,75.0,65.0,110.0
1.0,51.0,42.0,32.0
1.0,79.0,80.0,8.0
1.0,48.0,43.0,138.0
1.0,50.0,53.0,4.0
1.0,68.0,57.0,6.0
1.0,77.0,58.0,8.0
1.0,67.0,47.0,52.0
1.0,51.0,47.0,4.0
1.0,68.0,66.0,44.0
1.0,53.0,81.0,6.0
1.0,65.0,71.0,24.0
1.0,74.0,67.0,16.0
1.0,70.0,72.0,128.0
1.0,62.0,55.0,26.0
1.0,80.0,86.0,2.0
1.0,51.0,64.0,134.0
1.0,79.0,86.0,56.0
1.0,53.0,87.0,0.0
1.0,75.0,66.0,4.0
1.0,55.0,71.0,22.0
1.0,77.0,89.0,32.0
1.0,56.0,47.0,2.0
1.0,53.0,76.0,4.0
1.0,74.0,68.0,12.0
1.0,46.0,44.0,2.0
1.0,56.0,66.0,12.0
1.0,75.0,66.0,16.0
1.0,55.0,80.0,10.0
1.0,82.0,62.0,42.0
1.0,58.0,68.0,100.0
1.0,79.0,77.0,8.0
1.0,75.0,62.0,32.0
1.0,73.0,59.0,102.0
1.0,63.0,81.0,8.0
1.0,55.0,47.0,24.0
1.0,82.0,64.0,54.0
1.0,79.0,74.0,138.0
1.0,51.0,59.0,0.0
1.0,73.0,57.0,34.0
1.0,72.0,63.0,120.0
1.0,56.0,37.0,4.0
1.0,63.0,64.0,18.0
1.0,80.0,60.0,22.0
1.0,60.0,44.0,14.0
1.0,56.0,45.0,24.0
1.0,55.0,57.0,32.0
1.0,63.0,64.0,6.0
1.0,68.0,60.0,112.0
1.0,60.0,59.0,2.0
1.0,55.0,67.0,136.0
1.0,53.0,92.0,10.0
1.0,74.0,62.0,6.0
1.0,80.0,67.0,28.0
1.0,77.0,65.0,122.0
1.0,56.0,75.0,0.0
1.0,74.0,63.0,34.0
1.0,62.0,66.0,120.0
1.0,72.0,60.0,10.0
1.0,53.0,71.0,2.0
1.0,80.0,60.0,26.0
1.0,77.0,59.0,138.0
1.0,50.0,58.0,0.0
1.0,72.0,52.0,86.0
1.0,71.0,56.0,98.0
1.0,55.0,43.0,0.0
1.0,62.0,54.0,20.0
1.0,59.0,48.0,20.0
1.0,79.0,55.0,2.0
1.0,55.0,39.0,70.0
1.0,53.0,58.0,58.0
1.0,62.0,42.0,34.0
1.0,67.0,45.0,18.0
1.0,59.0,34.0,24.0
1.0,53.0,52.0,56.0
1.0,72.0,48.0,16.0
1.0,52.0,49.0,14.0
1.0,79.0,68.0,28.0
1.0,55.0,48.0,138.0
1.0,76.0,48.0,6.0
1.0,72.0,58.0,38.0
1.0,70.0,46.0,106.0
1.0,60.0,60.0,6.0
1.0,52.0,37.0,10.0
1.0,79.0,64.0,34.0
1.0,76.0,46.0,0.0
1.0,48.0,41.0,0.0
1.0,70.0,47.0,124.0
1.0,69.0,43.0,6.0
1.0,53.0,54.0,16.0
1.0,79.0,62.0,120.0
1.0,72.0,44.0,2.0
1.0,51.0,34.0,0.0
1.0,67.0,45.0,130.0
1.0,68.0,39.0,10.0
1.0,59.0,50.0,14.0
1.0,50.0,31.0,18.0
1.0,77.0,59.0,0.0
1.0,60.0,60.0,8.0
1.0,74.0,50.0,6.0
1.0,48.0,29.0,20.0
1.0,68.0,46.0,6.0
1.0,68.0,16.0,22.0
1.0,62.0,61.0,20.0
1.0,47.0,40.0,8.0
1.0,67.0,62.0,4.0
1.0,77.0,71.0,48.0
1.0,43.0,40.0,16.0
1.0,74.0,57.0,0.0
1.0,71.0,62.0,120.0
1.0,67.0,54.0,18.0
1.0,48.0,51.0,4.0
1.0,75.0,60.0,2.0
1.0,72.0,42.0,18.0
1.0,46.0,34.0,12.0
1.0,67.0,52.0,30.0
1.0,66.0,42.0,16.0
1.0,45.0,29.0,4.0
1.0,75.0,54.0,126.0
1.0,72.0,45.0,28.0
1.0,57.0,52.0,2.0
1.0,69.0,39.0,140.0
1.0,65.0,44.0,14.0
1.0,59.0,48.0,2.0
1.0,74.0,56.0,44.0
1.0,71.0,59.0,16.0
1.0,55.0,54.0,0.0
1.0,67.0,45.0,8.0
1.0,60.0,57.0,22.0
1.0,64.0,54.0,8.0
1.0,74.0,55.0,0.0
1.0,55.0,59.0,46.0
1.0,71.0,46.0,2.0
1.0,67.0,55.0,10.0
1.0,56.0,60.0,22.0
1.0,63.0,48.0,0.0
1.0,72.0,53.0,24.0
1.0,51.0,68.0,48.0
1.0,67.0,45.0,8.0
1.0,63.0,58.0,106.0
1.0,62.0,62.0,10.0
1.0,53.0,88.0,0.0
1.0,72.0,54.0,116.0
1.0,51.0,65.0,22.0
1.0,68.0,50.0,0.0
1.0,53.0,85.0,0.0
1.0,65.0,48.0,6.0
1.0,55.0,80.0,8.0
1.0,62.0,62.0,8.0
1.0,71.0,70.0,8.0
1.0,69.0,55.0,2.0
1.0,43.0,62.0,6.0
1.0,71.0,70.0,78.0
1.0,60.0,54.0,118.0
1.0,48.0,48.0,8.0
1.0,72.0,57.0,14.0
1.0,58.0,40.0,40.0
1.0,77.0,73.0,8.0
1.0,56.0,48.0,18.0
1.0,58.0,52.0,124.0
1.0,75.0,66.0,6.0
1.0,55.0,56.0,2.0
1.0,60.0,58.0,16.0
1.0,74.0,75.0,40.0
1.0,59.0,52.0,8.0
1.0,60.0,55.0,0.0
1.0,63.0,69.0,0.0
1.0,72.0,46.0,0.0
1.0,69.0,39.0,0.0
1.0,71.0,52.0,6.0
1.0,62.0,36.0,12.0
1.0,72.0,52.0,122.0
1.0,74.0,73.0,32.0
1.0,59.0,70.0,258.0
1.0,55.0,83.0,2.0
1.0,65.0,78.0,46.0
1.0,72.0,71.0,20.0
1.0,63.0,81.0,132.0
1.0,74.0,77.0,6.0
1.0,75.0,75.0,54.0
1.0,63.0,72.0,102.0
1.0,77.0,78.0,16.0
1.0,62.0,63.0,36.0
1.0,63.0,70.0,16.0
1.0,74.0,63.0,6.0
1.0,62.0,50.0,12.0
1.0,63.0,59.0,58.0
1.0,67.0,59.0,4.0
1.0,62.0,48.0,14.0
1.0,63.0,76.0,40.0
1.0,77.0,61.0,4.0
1.0,62.0,46.0,42.0
1.0,60.0,56.0,18.0
1.0,75.0,65.0,8.0
1.0,59.0,65.0,4.0
1.0,79.0,74.0,0.0
1.0,60.0,81.0,106.0
1.0,75.0,73.0,8.0
1.0,63.0,84.0,88.0
1.0,74.0,80.0,8.0
1.0,68.0,85.0,2.0
1.0,72.0,68.0,4.0
1.0,84.0,88.0,110.0
1.0,80.0,75.0,128.0
1.0,77.0,71.0,104.0
1.0,74.0,76.0,116.0
1.0,77.0,71.0,128.0
1.0,58.0,40.0,132.0
1.0,74.0,59.0,4.0
1.0,72.0,57.0,6.0
1.0,62.0,46.0,2.0
1.0,70.0,50.0,8.0
1.0,67.0,51.0,26.0
1.0,82.0,53.0,8.0
1.0,79.0,50.0,22.0
1.0,75.0,49.0,32.0
1.0,72.0,46.0,18.0
1.0,75.0,47.0,124.0
1.0,56.0,30.0,6.0
1.0,72.0,47.0,2.0
1.0,70.0,43.0,10.0
1.0,60.0,25.0,30.0
1.0,68.0,39.0,0.0
1.0,65.0,28.0,40.0
1.0,80.0,59.0,84.0
1.0,77.0,45.0,8.0
1.0,74.0,54.0,2.0
1.0,71.0,56.0,134.0
1.0,55.0,37.0,2.0
1.0,67.0,43.0,22.0
1.0,51.0,30.0,8.0
1.0,68.0,44.0,44.0
1.0,50.0,39.0,10.0
1.0,71.0,5.0,56.0
1.0,51.0,50.0,14.0
1.0,48.0,46.0,2.0
1.0,72.0,58.0,12.0
1.0,53.0,75.0,0.0
1.0,67.0,60.0,28.0
1.0,51.0,57.0,8.0
1.0,53.0,75.0,102.0
1.0,65.0,36.0,26.0
1.0,56.0,51.0,4.0
1.0,63.0,59.0,4.0
1.0,71.0,64.0,72.0
1.0,65.0,47.0,4.0
1.0,55.0,36.0,14.0
1.0,67.0,64.0,38.0
1.0,72.0,71.0,2.0
1.0,69.0,58.0,10.0
1.0,71.0,88.0,132.0
1.0,72.0,76.0,124.0
1.0,54.0,66.0,0.0
1.0,50.0,70.0,10.0
1.0,74.0,73.0,4.0
1.0,75.0,65.0,34.0
1.0,60.0,60.0,4.0
1.0,67.0,54.0,16.0
1.0,58.0,41.0,26.0
1.0,69.0,40.0,4.0
1.0,74.0,61.0,4.0
1.0,70.0,55.0,46.0
1.0,57.0,47.0,8.0
1.0,72.0,57.0,10.0
1.0,76.0,61.0,2.0
1.0,58.0,43.0,14.0
1.0,57.0,34.0,68.0
1.0,69.0,46.0,14.0
1.0,58.0,19.0,22.0
1.0,78.0,61.0,32.0
1.0,62.0,49.0,0.0
1.0,57.0,44.0,6.0
1.0,58.0,46.0,28.0
1.0,72.0,46.0,26.0
1.0,57.0,36.0,14.0
1.0,70.0,47.0,24.0
1.0,79.0,67.0,10.0
1.0,55.0,45.0,2.0
1.0,58.0,36.0,28.0
1.0,74.0,57.0,10.0
1.0,72.0,56.0,8.0
1.0,56.0,41.0,0.0
1.0,58.0,36.0,18.0
1.0,74.0,59.0,10.0
1.0,70.0,48.0,24.0
1.0,55.0,37.0,8.0
1.0,76.0,58.0,22.0
1.0,56.0,52.0,2.0
1.0,74.0,69.0,136.0
1.0,53.0,67.0,2.0
1.0,55.0,50.0,8.0
1.0,76.0,60.0,0.0
1.0,79.0,73.0,12.0
1.0,52.0,65.0,8.0
1.0,60.0,46.0,24.0
1.0,73.0,62.0,0.0
1.0,77.0,67.0,50.0
1.0,56.0,53.0,4.0
1.0,72.0,52.0,0.0
1.0,53.0,78.0,70.0
1.0,70.0,50.0,2.0
1.0,68.0,51.0,20.0
1.0,48.0,55.0,10.0
1.0,53.0,76.0,12.0
1.0,67.0,63.0,0.0
1.0,44.0,62.0,16.0
1.0,65.0,69.0,4.0
1.0,67.0,69.0,16.0
1.0,48.0,47.0,8.0
1.0,77.0,80.0,34.0
1.0,68.0,52.0,0.0
1.0,41.0,53.0,12.0
1.0,72.0,61.0,2.0
1.0,56.0,62.0,0.0
1.0,70.0,62.0,70.0
1.0,55.0,55.0,0.0
1.0,72.0,73.0,56.0
1.0,56.0,45.0,2.0
1.0,68.0,69.0,0.0
1.0,53.0,74.0,6.0
1.0,74.0,73.0,72.0
1.0,55.0,48.0,2.0
1.0,72.0,67.0,0.0
1.0,51.0,47.0,4.0
1.0,74.0,71.0,126.0
1.0,53.0,69.0,8.0
1.0,77.0,79.0,62.0
1.0,50.0,44.0,2.0
1.0,58.0,41.0,40.0
1.0,72.0,65.0,18.0
1.0,70.0,47.0,26.0
1.0,75.0,48.0,10.0
1.0,55.0,46.0,6.0
1.0,68.0,41.0,36.0
1.0,51.0,44.0,24.0
1.0,67.0,44.0,10.0
1.0,46.0,30.0,2.0
1.0,51.0,40.0,8.0
1.0,65.0,44.0,8.0
1.0,63.0,60.0,18.0
1.0,43.0,43.0,28.0
1.0,65.0,46.0,20.0
1.0,46.0,41.0,4.0
1.0,67.0,56.0,6.0
1.0,39.0,39.0,10.0
1.0,70.0,47.0,20.0
1.0,75.0,58.0,32.0
1.0,51.0,46.0,8.0
1.0,72.0,58.0,96.0
1.0,73.0,42.0,18.0
1.0,53.0,67.0,4.0
1.0,70.0,38.0,104.0
1.0,67.0,42.0,20.0
1.0,55.0,39.0,16.0
1.0,63.0,47.0,6.0
1.0,56.0,46.0,20.0
1.0,72.0,69.0,90.0
1.0,77.0,73.0,130.0
1.0,53.0,62.0,8.0
1.0,74.0,75.0,114.0
1.0,55.0,42.0,26.0
1.0,75.0,74.0,6.0
1.0,72.0,55.0,124.0
1.0,69.0,40.0,4.0
1.0,57.0,43.0,4.0
1.0,65.0,60.0,32.0
1.0,58.0,39.0,24.0
1.0,74.0,76.0,12.0
1.0,79.0,76.0,126.0
1.0,55.0,48.0,4.0
1.0,75.0,67.0,120.0
1.0,77.0,73.0,8.0
1.0,57.0,38.0,16.0
1.0,74.0,66.0,112.0
1.0,71.0,66.0,18.0
1.0,59.0,17.0,24.0
1.0,67.0,60.0,8.0
1.0,60.0,48.0,48.0
1.0,75.0,53.0,4.0
1.0,79.0,52.0,0.0
1.0,48.0,35.0,2.0
1.0,82.0,50.0,2.0
1.0,50.0,46.0,32.0
1.0,80.0,56.0,6.0
1.0,77.0,53.0,10.0
1.0,51.0,69.0,70.0
1.0,70.0,52.0,2.0
1.0,79.0,88.0,10.0
1.0,77.0,87.0,148.0
1.0,50.0,72.0,24.0
1.0,80.0,84.0,16.0
1.0,77.0,73.0,10.0
1.0,48.0,63.0,0.0
1.0,50.0,76.0,4.0
1.0,46.0,71.0,2.0
1.0,79.0,92.0,0.0
1.0,75.0,66.0,0.0
1.0,51.0,84.0,114.0
1.0,68.0,58.0,24.0
1.0,50.0,89.0,0.0
1.0,77.0,76.0,2.0
1.0,51.0,83.0,108.0
1.0,75.0,80.0,34.0
1.0,70.0,67.0,0.0
1.0,55.0,85.0,8.0
1.0,72.0,67.0,10.0
1.0,68.0,73.0,26.0
1.0,74.0,76.0,0.0
1.0,53.0,84.0,4.0
1.0,75.0,79.0,2.0
1.0,67.0,72.0,8.0
1.0,68.0,63.0,32.0
1.0,77.0,84.0,6.0
1.0,74.0,72.0,56.0
1.0,70.0,70.0,106.0
1.0,50.0,57.0,4.0
1.0,46.0,69.0,0.0
1.0,65.0,52.0,2.0
1.0,56.0,73.0,56.0
1.0,62.0,29.0,8.0
1.0,74.0,72.0,98.0
1.0,75.0,72.0,16.0
1.0,63.0,78.0,14.0
1.0,55.0,69.0,0.0
1.0,79.0,73.0,46.0
1.0,80.0,84.0,8.0
1.0,53.0,83.0,10.0
1.0,77.0,72.0,138.0
1.0,70.0,57.0,10.0
1.0,62.0,63.0,12.0
1.0,80.0,66.0,132.0
1.0,63.0,60.0,38.0
1.0,79.0,80.0,2.0
1.0,51.0,38.0,12.0
1.0,82.0,66.0,30.0
1.0,39.0,68.0,130.0
1.0,79.0,75.0,0.0
1.0,75.0,68.0,124.0
1.0,73.0,85.0,106.0
1.0,41.0,63.0,0.0
1.0,70.0,65.0,114.0
1.0,67.0,63.0,0.0
1.0,43.0,58.0,18.0
1.0,63.0,78.0,0.0
1.0,73.0,2.0,2.0
1.0,56.0,51.0,22.0
1.0,44.0,62.0,4.0
1.0,72.0,78.0,2.0
1.0,84.0,101.0,88.0
1.0,80.0,87.0,50.0
1.0,41.0,60.0,0.0
1.0,77.0,85.0,0.0
1.0,75.0,78.0,16.0
1.0,43.0,42.0,10.0
1.0,72.0,52.0,120.0
1.0,69.0,45.0,12.0
1.0,45.0,44.0,0.0
1.0,65.0,53.0,4.0
1.0,58.0,39.0,18.0
1.0,74.0,54.0,6.0
1.0,46.0,34.0,8.0
1.0,77.0,68.0,2.0
1.0,74.0,59.0,24.0
1.0,46.0,58.0,0.0
1.0,70.0,47.0,10.0
1.0,68.0,68.0,100.0
1.0,48.0,26.0,24.0
1.0,65.0,43.0,122.0
1.0,50.0,38.0,6.0
1.0,62.0,40.0,4.0
1.0,58.0,34.0,22.0
1.0,51.0,52.0,32.0
1.0,67.0,47.0,132.0
1.0,65.0,53.0,0.0
1.0,61.0,50.0,16.0
1.0,67.0,64.0,124.0
1.0,63.0,66.0,12.0
1.0,60.0,47.0,2.0
1.0,68.0,65.0,114.0
1.0,67.0,73.0,98.0
1.0,58.0,47.0,14.0
1.0,68.0,75.0,108.0
1.0,56.0,48.0,34.0
1.0,72.0,63.0,4.0
1.0,55.0,67.0,118.0
1.0,70.0,54.0,132.0
1.0,56.0,62.0,12.0
1.0,58.0,61.0,16.0
1.0,60.0,63.0,0.0
1.0,50.0,72.0,82.0
1.0,69.0,63.0,2.0
1.0,51.0,65.0,6.0
1.0,53.0,93.0,124.0
1.0,65.0,71.0,6.0
1.0,75.0,78.0,32.0
1.0,55.0,88.0,10.0
1.0,58.0,56.0,80.0
1.0,74.0,82.0,18.0
1.0,60.0,73.0,8.0
1.0,53.0,93.0,24.0
1.0,62.0,74.0,0.0
1.0,74.0,78.0,6.0
1.0,63.0,83.0,0.0
1.0,51.0,65.0,12.0
1.0,72.0,62.0,24.0
1.0,74.0,64.0,16.0
1.0,60.0,62.0,4.0
1.0,72.0,73.0,0.0
1.0,74.0,68.0,64.0
1.0,53.0,94.0,26.0
1.0,72.0,58.0,0.0
1.0,74.0,75.0,4.0
1.0,72.0,76.0,34.0
1.0,63.0,65.0,24.0
1.0,70.0,70.0,12.0
1.0,72.0,83.0,0.0
1.0,70.0,67.0,52.0
1.0,46.0,57.0,10.0
1.0,62.0,38.0,16.0
1.0,53.0,85.0,12.0
1.0,77.0,95.0,8.0
1.0,50.0,72.0,14.0
1.0,46.0,58.0,128.0
1.0,74.0,96.0,72.0
1.0,44.0,65.0,2.0
1.0,53.0,88.0,120.0
1.0,70.0,85.0,52.0
1.0,50.0,69.0,12.0
1.0,44.0,69.0,4.0
1.0,82.0,92.0,4.0
1.0,43.0,63.0,0.0
1.0,70.0,61.0,102.0
1.0,75.0,58.0,8.0
1.0,55.0,51.0,22.0
1.0,79.0,68.0,2.0
1.0,73.0,46.0,30.0
1.0,70.0,46.0,32.0
1.0,39.0,43.0,36.0
1.0,73.0,47.0,10.0
1.0,79.0,60.0,26.0
1.0,44.0,60.0,30.0
1.0,72.0,53.0,10.0
1.0,51.0,55.0,54.0
1.0,75.0,79.0,2.0
1.0,48.0,52.0,10.0
1.0,44.0,59.0,2.0
1.0,72.0,71.0,16.0
1.0,43.0,43.0,16.0
1.0,51.0,49.0,98.0
1.0,68.0,48.0,2.0
1.0,48.0,42.0,14.0
1.0,43.0,39.0,22.0
1.0,80.0,62.0,16.0
1.0,41.0,49.0,0.0
1.0,68.0,48.0,128.0
1.0,74.0,55.0,18.0
1.0,53.0,63.0,0.0
1.0,77.0,55.0,32.0
1.0,72.0,54.0,12.0
1.0,68.0,46.0,130.0
1.0,72.0,48.0,14.0
1.0,38.0,35.0,2.0
1.0,77.0,56.0,6.0
1.0,43.0,30.0,12.0
1.0,70.0,43.0,12.0
1.0,50.0,50.0,126.0
1.0,74.0,81.0,10.0
1.0,46.0,48.0,8.0
1.0,43.0,46.0,112.0
1.0,70.0,68.0,2.0
1.0,41.0,48.0,10.0
1.0,50.0,42.0,14.0
1.0,67.0,73.0,36.0
1.0,46.0,45.0,18.0
1.0,41.0,47.0,96.0
1.0,79.0,92.0,38.0
1.0,40.0,55.0,16.0
1.0,48.0,38.0,0.0
1.0,70.0,56.0,118.0
1.0,43.0,37.0,4.0
1.0,40.0,44.0,64.0
1.0,41.0,55.0,28.0
1.0,68.0,74.0,16.0
1.0,48.0,47.0,116.0
1.0,72.0,66.0,16.0
1.0,44.0,55.0,68.0
1.0,74.0,78.0,14.0
1.0,41.0,51.0,54.0
1.0,75.0,80.0,2.0
1.0,38.0,64.0,0.0
1.0,77.0,85.0,16.0
1.0,46.0,52.0,80.0
1.0,75.0,77.0,0.0
1.0,74.0,85.0,24.0
1.0,41.0,62.0,2.0
1.0,72.0,80.0,18.0
1.0,38.0,50.0,10.0
1.0,39.0,53.0,0.0
1.0,70.0,71.0,10.0
1.0,67.0,76.0,8.0
1.0,46.0,51.0,106.0
1.0,68.0,78.0,6.0
1.0,63.0,86.0,14.0
1.0,70.0,63.0,12.0
1.0,43.0,49.0,6.0
1.0,39.0,60.0,16.0
1.0,72.0,55.0,16.0
1.0,65.0,73.0,30.0
1.0,46.0,63.0,2.0
1.0,62.0,71.0,16.0
1.0,60.0,71.0,18.0
1.0,53.0,91.0,2.0
1.0,62.0,72.0,16.0
1.0,58.0,75.0,10.0
1.0,50.0,83.0,18.0
1.0,63.0,86.0,110.0
1.0,46.0,65.0,32.0
1.0,65.0,91.0,2.0
1.0,62.0,92.0,2.0
1.0,63.0,94.0,20.0
1.0,66.0,80.0,102.0
1.0,75.0,92.0,0.0
1.0,57.0,76.0,4.0
1.0,74.0,89.0,14.0
1.0,56.0,69.0,2.0
1.0,65.0,72.0,0.0
1.0,56.0,81.0,54.0
1.0,62.0,94.0,90.0
1.0,53.0,108.0,4.0
1.0,58.0,84.0,16.0
1.0,50.0,93.0,10.0
1.0,68.0,85.0,152.0
1.0,77.0,100.0,2.0
1.0,46.0,73.0,2.0
1.0,75.0,90.0,26.0
1.0,67.0,78.0,2.0
1.0,51.0,79.0,10.0
1.0,65.0,90.0,76.0
1.0,58.0,74.0,6.0
1.0,74.0,98.0,40.0
1.0,59.0,88.0,8.0
1.0,75.0,87.0,14.0
1.0,63.0,75.0,6.0
1.0,60.0,73.0,4.0
1.0,79.0,95.0,102.0
1.0,75.0,81.0,94.0
1.0,72.0,87.0,24.0
1.0,68.0,76.0,58.0
1.0,60.0,64.0,126.0
1.0,65.0,76.0,58.0
1.0,56.0,70.0,6.0
1.0,53.0,84.0,8.0
1.0,58.0,72.0,70.0
1.0,50.0,74.0,4.0
1.0,77.0,89.0,84.0
1.0,74.0,89.0,144.0
1.0,46.0,61.0,18.0
1.0,70.0,75.0,84.0
1.0,67.0,85.0,42.0
1.0,51.0,76.0,130.0
1.0,75.0,82.0,2.0
1.0,65.0,69.0,10.0
1.0,48.0,65.0,12.0
1.0,44.0,70.0,24.0
1.0,67.0,87.0,142.0
1.0,46.0,70.0,0.0
1.0,62.0,73.0,112.0
1.0,63.0,66.0,170.0
1.0,58.0,60.0,114.0
1.0,65.0,81.0,106.0
1.0,60.0,60.0,126.0
1.0,62.0,70.0,12.0
1.0,56.0,65.0,62.0
1.0,63.0,77.0,94.0
1.0,39.0,76.0,10.0
1.0,61.0,69.0,182.0
1.0,58.0,49.0,180.0
1.0,55.0,66.0,24.0
1.0,60.0,64.0,150.0
1.0,56.0,53.0,172.0
1.0,53.0,75.0,244.0
1.0,59.0,63.0,120.0
1.0,55.0,52.0,546.0
1.0,58.0,35.0,0.0
0.0,0.0,0.0,0.0
0.0,0.0,0.0,0.0
0.0,0.0,0.0,0.0
0.0,0.0,0.0,0.0
0.0,0.0,0.0,0.0
0.0,0.0,0.0,0.0
0.0,0.0,0.0,0.0
0.0,0.0,0.0,0.0
0.0,0.0,0.0,0.0
0.0,0.0,0.0,0.0
0.0,0.0,0.0,0.0
0.0,0.0,0.0,0.0
0.0,0.0,0.0,0.0
0.0,0.0,0.0,0.0
0.0,0.0,0.0,0.0
0.0,0.0,0.0,0.0
0.0,0.0,0.0,0.0
0.0,0.0,0.0,0.0
0.0,0.0,0.0,0.0
0.0,0.0,0.0,0.0
0.0,0.0,0.0,0.0
0.0,0.0,0.0,0.0
0.0,0.0,0.0,0.0
0.0,0.0,0.0,0.0
0.0,0.0,0.0,0.0
0.0,0.0,0.0,0.0
0.0,0.0,0.0,0.0
0.0,0.0,0.0,0.0
0.0,0.0,0.0,0.0
0.0,0.0,0.0,0.0
0.0,0.0,0.0,0.0
0.0,0.0,0.0,0.0
0.0,0.0,0.0,0.0
0.0,0.0,0.0,0.0
0.0,0.0,0.0,0.0
0.0,0.0,0.0,0.0
0.0,0.0,0.0,0.0
0.0,0.0,0.0,0.0
0.0,0.0,0.0,0.0
0.0,0.0,0.0,0.0
0.0,0.0,0.0,0.0
0.0,0.0,0.0,0.0
0.0,0.0,0.0,0.0
0.0,0.0,0.0,0.0
0.0,0.0,0.0,0.0
0.0,0.0,0.0,0.0
0.0,0.0,0.0,0.0
0.0,0.0,0.0,0.0
0.0,0.0,0.0,0.0
0.0,0.0,0.0,0.0
0.0,0.0,0.0,0.0
0.0,0.0,0.0,0.0
0.0,0.0,0.0,0.0
0.0,0.0,0.0,0.0
0.0,0.0,0.0,0.0
0.0,0.0,0.0,0.0
0.0,0.0,0.0,0.0
0.0,0.0,0.0,0.0
0.0,0.0,0.0,0.0
0.0,0.0,0.0,0.0
0.0,0.0,0.0,0.0
0.0,0.0,0.0,0.0
0.0,0.0,0.0,0.0
0.0,0.0,0.0,0.0
0.0,0.0,0.0,0.0
