track,note,velocity,time
1.0,55.0,67.0,0.0
1.0,67.0,87.0,0.0
1.0,71.0,87.0,56.0
1.0,74.0,89.0,8.0
1.0,79.0,85.0,0.0
1.0,43.0,56.0,4.0
1.0,74.0,81.0,54.0
1.0,71.0,76.0,44.0
1.0,74.0,87.0,48.0
1.0,71.0,73.0,48.0
1.0,67.0,76.0,14.0
1.0,55.0,64.0,0.0
1.0,71.0,77.0,2.0
1.0,67.0,75.0,62.0
1.0,62.0,72.0,8.0
1.0,64.0,81.0,38.0
1.0,55.0,74.0,8.0
1.0,67.0,93.0,60.0
1.0,72.0,84.0,26.0
1.0,43.0,60.0,22.0
1.0,76.0,81.0,2.0
1.0,72.0,76.0,56.0
1.0,67.0,74.0,2.0
1.0,72.0,74.0,40.0
1.0,67.0,72.0,56.0
1.0,64.0,72.0,18.0
1.0,67.0,76.0,14.0
1.0,55.0,62.0,0.0
1.0,64.0,76.0,64.0
1.0,60.0,71.0,8.0
1.0,57.0,75.0,70.0
1.0,55.0,77.0,0.0
1.0,60.0,89.0,38.0
1.0,66.0,91.0,32.0
1.0,43.0,62.0,34.0
1.0,69.0,81.0,0.0
1.0,66.0,85.0,56.0
1.0,60.0,74.0,46.0
1.0,66.0,75.0,46.0
1.0,60.0,67.0,0.0
1.0,57.0,68.0,12.0
1.0,60.0,69.0,12.0
1.0,55.0,58.0,2.0
1.0,57.0,66.0,2.0
1.0,54.0,73.0,8.0
1.0,55.0,82.0,32.0
1.0,59.0,83.0,66.0
1.0,62.0,85.0,46.0
1.0,43.0,57.0,62.0
1.0,67.0,79.0,0.0
1.0,62.0,73.0,64.0
1.0,59.0,81.0,32.0
1.0,62.0,84.0,58.0
1.0,59.0,81.0,50.0
1.0,55.0,68.0,14.0
1.0,59.0,82.0,56.0
1.0,55.0,76.0,0.0
1.0,52.0,73.0,0.0
1.0,57.0,79.0,76.0
1.0,55.0,72.0,6.0
1.0,61.0,94.0,42.0
1.0,64.0,88.0,22.0
1.0,69.0,81.0,16.0
1.0,43.0,55.0,8.0
1.0,64.0,78.0,56.0
1.0,61.0,73.0,24.0
1.0,64.0,79.0,0.0
1.0,61.0,72.0,4.0
1.0,57.0,67.0,14.0
1.0,61.0,68.0,2.0
1.0,55.0,40.0,6.0
1.0,57.0,71.0,2.0
1.0,52.0,70.0,8.0
1.0,62.0,70.0,10.0
1.0,54.0,62.0,8.0
1.0,57.0,71.0,24.0
1.0,61.0,77.0,0.0
1.0,62.0,81.0,4.0
1.0,57.0,79.0,66.0
1.0,54.0,78.0,4.0
1.0,57.0,78.0,6.0
1.0,54.0,72.0,60.0
1.0,50.0,73.0,8.0
1.0,62.0,74.0,14.0
1.0,54.0,71.0,2.0
1.0,50.0,74.0,70.0
1.0,47.0,71.0,8.0
1.0,62.0,71.0,8.0
1.0,52.0,57.0,8.0
1.0,61.0,69.0,4.0
1.0,62.0,72.0,2.0
1.0,40.0,52.0,66.0
1.0,64.0,66.0,0.0
1.0,61.0,57.0,12.0
1.0,62.0,64.0,10.0
1.0,66.0,60.0,64.0
1.0,61.0,60.0,6.0
1.0,62.0,56.0,12.0
1.0,52.0,53.0,58.0
1.0,67.0,53.0,4.0
1.0,61.0,54.0,8.0
1.0,62.0,65.0,10.0
1.0,69.0,65.0,62.0
1.0,49.0,57.0,4.0
1.0,61.0,69.0,58.0
1.0,62.0,73.0,6.0
1.0,71.0,65.0,64.0
1.0,45.0,56.0,0.0
1.0,61.0,64.0,66.0
1.0,62.0,64.0,2.0
1.0,69.0,60.0,68.0
1.0,47.0,46.0,0.0
1.0,61.0,66.0,0.0
1.0,62.0,65.0,2.0
1.0,49.0,50.0,62.0
1.0,67.0,62.0,0.0
1.0,61.0,61.0,60.0
1.0,62.0,66.0,8.0
1.0,66.0,62.0,0.0
1.0,50.0,68.0,0.0
1.0,61.0,72.0,64.0
1.0,62.0,69.0,6.0
1.0,67.0,72.0,12.0
1.0,52.0,60.0,0.0
1.0,61.0,60.0,70.0
1.0,62.0,69.0,2.0
1.0,69.0,85.0,12.0
1.0,54.0,59.0,0.0
1.0,61.0,66.0,64.0
1.0,62.0,73.0,2.0
1.0,71.0,79.0,0.0
1.0,55.0,66.0,0.0
1.0,61.0,67.0,60.0
1.0,62.0,73.0,2.0
1.0,69.0,77.0,16.0
1.0,54.0,54.0,6.0
1.0,61.0,57.0,64.0
1.0,62.0,67.0,8.0
1.0,67.0,73.0,8.0
1.0,52.0,63.0,12.0
1.0,61.0,67.0,52.0
1.0,62.0,73.0,8.0
1.0,66.0,73.0,16.0
1.0,50.0,70.0,4.0
1.0,61.0,81.0,62.0
1.0,62.0,73.0,6.0
1.0,69.0,81.0,6.0
1.0,54.0,66.0,6.0
1.0,61.0,68.0,48.0
1.0,62.0,76.0,6.0
1.0,68.0,84.0,46.0
1.0,47.0,65.0,0.0
1.0,71.0,83.0,56.0
1.0,74.0,78.0,28.0
1.0,77.0,81.0,44.0
1.0,59.0,62.0,0.0
1.0,74.0,79.0,62.0
1.0,71.0,75.0,2.0
1.0,74.0,79.0,64.0
1.0,71.0,70.0,50.0
1.0,68.0,67.0,8.0
1.0,57.0,68.0,58.0
1.0,71.0,67.0,0.0
1.0,68.0,68.0,60.0
1.0,64.0,77.0,30.0
1.0,62.0,84.0,64.0
1.0,56.0,66.0,4.0
1.0,65.0,87.0,64.0
1.0,68.0,89.0,26.0
1.0,71.0,77.0,34.0
1.0,44.0,62.0,2.0
1.0,68.0,75.0,54.0
1.0,65.0,68.0,32.0
1.0,68.0,69.0,40.0
1.0,65.0,68.0,52.0
1.0,62.0,64.0,12.0
1.0,56.0,59.0,64.0
1.0,65.0,57.0,2.0
1.0,62.0,61.0,62.0
1.0,59.0,43.0,20.0
1.0,60.0,71.0,70.0
1.0,57.0,62.0,6.0
1.0,60.0,72.0,44.0
1.0,64.0,77.0,54.0
1.0,76.0,77.0,26.0
1.0,69.0,77.0,0.0
1.0,64.0,84.0,8.0
1.0,60.0,81.0,42.0
1.0,64.0,77.0,10.0
1.0,72.0,75.0,4.0
1.0,60.0,79.0,60.0
1.0,57.0,81.0,2.0
1.0,60.0,76.0,14.0
1.0,69.0,70.0,2.0
1.0,57.0,74.0,0.0
1.0,52.0,80.0,10.0
1.0,64.0,83.0,4.0
1.0,48.0,60.0,0.0
1.0,52.0,79.0,60.0
1.0,57.0,77.0,28.0
1.0,60.0,71.0,44.0
1.0,76.0,79.0,0.0
1.0,57.0,81.0,4.0
1.0,52.0,82.0,12.0
1.0,57.0,72.0,14.0
1.0,72.0,62.0,2.0
1.0,52.0,65.0,6.0
1.0,48.0,71.0,8.0
1.0,52.0,68.0,4.0
1.0,69.0,65.0,4.0
1.0,48.0,70.0,0.0
1.0,45.0,75.0,8.0
1.0,42.0,70.0,8.0
1.0,75.0,84.0,4.0
1.0,78.0,90.0,62.0
1.0,81.0,81.0,30.0
1.0,84.0,87.0,18.0
1.0,54.0,66.0,0.0
1.0,81.0,77.0,64.0
1.0,78.0,77.0,44.0
1.0,81.0,79.0,62.0
1.0,78.0,73.0,12.0
1.0,75.0,72.0,6.0
1.0,52.0,64.0,64.0
1.0,78.0,69.0,0.0
1.0,75.0,66.0,68.0
1.0,71.0,67.0,16.0
1.0,69.0,79.0,6.0
1.0,51.0,73.0,10.0
1.0,72.0,84.0,58.0
1.0,75.0,89.0,22.0
1.0,39.0,62.0,40.0
1.0,78.0,77.0,4.0
1.0,75.0,79.0,58.0
1.0,72.0,72.0,32.0
1.0,75.0,73.0,48.0
1.0,72.0,68.0,52.0
1.0,69.0,67.0,14.0
1.0,72.0,61.0,6.0
1.0,51.0,57.0,6.0
1.0,69.0,56.0,60.0
1.0,66.0,63.0,4.0
1.0,67.0,64.0,2.0
1.0,52.0,61.0,0.0
1.0,63.0,61.0,62.0
1.0,64.0,70.0,14.0
1.0,69.0,68.0,10.0
1.0,54.0,46.0,0.0
1.0,63.0,63.0,62.0
1.0,64.0,65.0,6.0
1.0,71.0,70.0,10.0
1.0,55.0,57.0,2.0
1.0,63.0,55.0,64.0
1.0,64.0,60.0,8.0
1.0,57.0,56.0,10.0
1.0,72.0,70.0,2.0
1.0,63.0,45.0,68.0
1.0,64.0,61.0,8.0
1.0,55.0,55.0,16.0
1.0,71.0,70.0,0.0
1.0,63.0,45.0,68.0
1.0,64.0,60.0,12.0
1.0,69.0,72.0,24.0
1.0,54.0,45.0,0.0
1.0,63.0,46.0,64.0
1.0,64.0,61.0,10.0
1.0,52.0,61.0,26.0
1.0,67.0,70.0,0.0
1.0,63.0,69.0,72.0
1.0,64.0,63.0,14.0
1.0,55.0,62.0,16.0
1.0,71.0,66.0,4.0
1.0,63.0,53.0,0.0
1.0,64.0,70.0,16.0
1.0,69.0,69.0,42.0
1.0,49.0,62.0,12.0
1.0,68.0,73.0,56.0
1.0,69.0,77.0,34.0
1.0,71.0,67.0,60.0
1.0,50.0,61.0,2.0
1.0,68.0,62.0,6.0
1.0,69.0,68.0,12.0
1.0,73.0,67.0,62.0
1.0,52.0,59.0,0.0
1.0,68.0,72.0,4.0
1.0,69.0,76.0,2.0
1.0,74.0,79.0,56.0
1.0,54.0,57.0,6.0
1.0,68.0,76.0,6.0
1.0,69.0,74.0,0.0
1.0,49.0,45.0,60.0
1.0,76.0,81.0,4.0
1.0,68.0,78.0,0.0
1.0,69.0,84.0,36.0
1.0,78.0,86.0,56.0
1.0,47.0,50.0,2.0
1.0,68.0,80.0,46.0
1.0,69.0,84.0,2.0
1.0,45.0,70.0,60.0
1.0,79.0,84.0,4.0
1.0,76.0,85.0,44.0
1.0,73.0,78.0,36.0
1.0,69.0,79.0,36.0
1.0,49.0,59.0,0.0
1.0,73.0,81.0,8.0
1.0,76.0,87.0,34.0
1.0,50.0,68.0,46.0
1.0,78.0,86.0,0.0
1.0,54.0,73.0,50.0
1.0,57.0,81.0,62.0
1.0,62.0,87.0,4.0
1.0,57.0,91.0,20.0
1.0,54.0,87.0,44.0
1.0,50.0,80.0,52.0
1.0,81.0,88.0,4.0
1.0,78.0,85.0,50.0
1.0,74.0,89.0,28.0
1.0,72.0,84.0,62.0
1.0,62.0,69.0,0.0
1.0,74.0,84.0,56.0
1.0,78.0,82.0,42.0
1.0,81.0,83.0,54.0
1.0,50.0,79.0,4.0
1.0,55.0,80.0,48.0
1.0,59.0,77.0,2.0
1.0,79.0,87.0,72.0
1.0,62.0,72.0,2.0
1.0,59.0,82.0,42.0
1.0,55.0,79.0,32.0
1.0,79.0,79.0,64.0
1.0,50.0,68.0,8.0
1.0,76.0,84.0,6.0
1.0,73.0,79.0,34.0
1.0,69.0,78.0,36.0
1.0,62.0,59.0,8.0
1.0,73.0,89.0,8.0
1.0,76.0,90.0,20.0
1.0,50.0,79.0,58.0
1.0,79.0,87.0,4.0
1.0,57.0,78.0,58.0
1.0,61.0,77.0,36.0
1.0,78.0,94.0,0.0
1.0,62.0,79.0,8.0
1.0,57.0,79.0,54.0
1.0,54.0,80.0,10.0
1.0,62.0,20.0,6.0
1.0,50.0,69.0,20.0
1.0,78.0,91.0,4.0
1.0,74.0,82.0,22.0
1.0,71.0,75.0,36.0
1.0,62.0,65.0,34.0
1.0,67.0,76.0,6.0
1.0,71.0,74.0,22.0
1.0,74.0,77.0,50.0
1.0,50.0,69.0,60.0
1.0,78.0,72.0,4.0
1.0,52.0,76.0,52.0
1.0,55.0,79.0,40.0
1.0,76.0,79.0,18.0
1.0,59.0,72.0,6.0
1.0,55.0,74.0,8.0
1.0,52.0,79.0,6.0
1.0,76.0,79.0,68.0
1.0,50.0,73.0,0.0
1.0,73.0,80.0,60.0
1.0,69.0,79.0,40.0
1.0,67.0,71.0,0.0
1.0,62.0,58.0,4.0
1.0,69.0,74.0,22.0
1.0,73.0,75.0,2.0
1.0,76.0,69.0,74.0
1.0,50.0,61.0,4.0
1.0,54.0,49.0,62.0
1.0,57.0,59.0,6.0
1.0,74.0,74.0,12.0
1.0,62.0,55.0,0.0
1.0,57.0,60.0,20.0
1.0,54.0,50.0,16.0
1.0,57.0,59.0,14.0
1.0,54.0,59.0,8.0
1.0,50.0,63.0,4.0
1.0,54.0,55.0,20.0
1.0,74.0,71.0,4.0
1.0,50.0,67.0,0.0
1.0,48.0,61.0,16.0
1.0,74.0,61.0,50.0
1.0,47.0,60.0,2.0
1.0,72.0,63.0,62.0
1.0,50.0,60.0,2.0
1.0,54.0,53.0,10.0
1.0,71.0,70.0,4.0
1.0,55.0,52.0,32.0
1.0,71.0,74.0,2.0
1.0,50.0,67.0,6.0
1.0,69.0,74.0,8.0
1.0,47.0,64.0,6.0
1.0,67.0,77.0,0.0
1.0,67.0,69.0,24.0
1.0,50.0,66.0,0.0
1.0,71.0,72.0,6.0
1.0,47.0,56.0,0.0
1.0,43.0,55.0,56.0
1.0,74.0,77.0,2.0
1.0,47.0,57.0,12.0
1.0,77.0,79.0,8.0
1.0,43.0,53.0,48.0
1.0,76.0,85.0,2.0
1.0,41.0,69.0,4.0
1.0,74.0,76.0,2.0
1.0,40.0,62.0,32.0
1.0,74.0,72.0,6.0
1.0,43.0,58.0,62.0
1.0,76.0,83.0,0.0
1.0,47.0,72.0,0.0
1.0,77.0,90.0,4.0
1.0,48.0,81.0,36.0
1.0,76.0,94.0,4.0
1.0,52.0,73.0,28.0
1.0,55.0,71.0,8.0
1.0,60.0,76.0,2.0
1.0,55.0,72.0,70.0
1.0,52.0,59.0,8.0
1.0,55.0,60.0,24.0
1.0,76.0,73.0,0.0
1.0,52.0,65.0,64.0
1.0,50.0,69.0,8.0
1.0,76.0,74.0,16.0
1.0,49.0,62.0,8.0
1.0,74.0,76.0,18.0
1.0,52.0,51.0,6.0
1.0,55.0,64.0,8.0
1.0,73.0,86.0,2.0
1.0,73.0,80.0,24.0
1.0,57.0,70.0,0.0
1.0,52.0,78.0,0.0
1.0,71.0,76.0,2.0
1.0,69.0,78.0,4.0
1.0,49.0,70.0,0.0
1.0,69.0,79.0,32.0
1.0,52.0,74.0,0.0
1.0,73.0,79.0,48.0
1.0,49.0,67.0,0.0
1.0,76.0,81.0,24.0
1.0,45.0,71.0,0.0
1.0,45.0,79.0,0.0
1.0,79.0,81.0,0.0
1.0,78.0,88.0,0.0
1.0,43.0,68.0,0.0
1.0,42.0,66.0,0.0
1.0,76.0,86.0,0.0
1.0,76.0,87.0,26.0
1.0,78.0,86.0,70.0
1.0,45.0,76.0,0.0
1.0,49.0,73.0,6.0
1.0,79.0,85.0,0.0
1.0,78.0,94.0,4.0
1.0,50.0,73.0,0.0
1.0,54.0,75.0,18.0
1.0,57.0,73.0,64.0
1.0,62.0,77.0,2.0
1.0,57.0,84.0,6.0
1.0,54.0,73.0,8.0
1.0,57.0,72.0,8.0
1.0,81.0,89.0,2.0
1.0,54.0,66.0,46.0
1.0,50.0,73.0,4.0
1.0,54.0,67.0,24.0
1.0,81.0,89.0,8.0
1.0,50.0,68.0,60.0
1.0,79.0,80.0,0.0
1.0,78.0,85.0,12.0
1.0,45.0,72.0,0.0
1.0,50.0,77.0,16.0
1.0,78.0,75.0,0.0
1.0,45.0,71.0,64.0
1.0,76.0,83.0,4.0
1.0,42.0,61.0,2.0
1.0,74.0,81.0,0.0
1.0,38.0,69.0,0.0
1.0,74.0,85.0,2.0
1.0,78.0,91.0,64.0
1.0,81.0,91.0,38.0
1.0,84.0,92.0,2.0
1.0,50.0,81.0,4.0
1.0,83.0,87.0,56.0
1.0,81.0,87.0,44.0
1.0,43.0,67.0,8.0
1.0,81.0,93.0,4.0
1.0,83.0,77.0,64.0
1.0,84.0,87.0,48.0
1.0,83.0,88.0,62.0
1.0,47.0,76.0,58.0
1.0,50.0,87.0,6.0
1.0,55.0,79.0,6.0
1.0,81.0,80.0,56.0
1.0,57.0,73.0,0.0
1.0,79.0,81.0,42.0
1.0,59.0,74.0,2.0
1.0,77.0,91.0,42.0
1.0,59.0,76.0,6.0
1.0,60.0,77.0,4.0
1.0,76.0,89.0,8.0
1.0,62.0,69.0,8.0
1.0,74.0,83.0,0.0
1.0,72.0,73.0,0.0
1.0,64.0,72.0,4.0
1.0,76.0,81.0,60.0
1.0,79.0,80.0,0.0
1.0,60.0,74.0,48.0
1.0,81.0,87.0,0.0
1.0,57.0,72.0,0.0
1.0,78.0,84.0,2.0
1.0,54.0,71.0,12.0
1.0,74.0,83.0,0.0
1.0,62.0,67.0,40.0
1.0,71.0,76.0,0.0
1.0,74.0,81.0,44.0
1.0,78.0,78.0,46.0
1.0,79.0,81.0,14.0
1.0,59.0,72.0,0.0
1.0,55.0,71.0,60.0
1.0,76.0,85.0,4.0
1.0,72.0,81.0,2.0
1.0,52.0,76.0,2.0
1.0,69.0,85.0,60.0
1.0,60.0,64.0,0.0
1.0,72.0,73.0,66.0
1.0,76.0,69.0,28.0
1.0,78.0,78.0,10.0
1.0,57.0,88.0,14.0
1.0,74.0,73.0,56.0
1.0,54.0,71.0,0.0
1.0,71.0,76.0,4.0
1.0,50.0,72.0,6.0
1.0,67.0,84.0,0.0
1.0,59.0,68.0,0.0
1.0,71.0,83.0,56.0
1.0,74.0,77.0,32.0
1.0,76.0,82.0,4.0
1.0,55.0,76.0,4.0
1.0,52.0,73.0,18.0
1.0,72.0,82.0,2.0
1.0,69.0,73.0,8.0
1.0,48.0,69.0,4.0
1.0,66.0,84.0,0.0
1.0,57.0,63.0,2.0
1.0,69.0,79.0,8.0
1.0,72.0,75.0,60.0
1.0,74.0,75.0,10.0
1.0,54.0,72.0,4.0
1.0,50.0,65.0,60.0
1.0,71.0,74.0,0.0
1.0,67.0,74.0,6.0
1.0,47.0,67.0,6.0
1.0,64.0,84.0,4.0
1.0,55.0,67.0,4.0
1.0,67.0,81.0,14.0
1.0,71.0,76.0,30.0
1.0,72.0,87.0,16.0
1.0,52.0,79.0,2.0
1.0,48.0,75.0,50.0
1.0,69.0,87.0,8.0
1.0,45.0,76.0,12.0
1.0,66.0,86.0,2.0
1.0,54.0,58.0,0.0
1.0,62.0,77.0,2.0
1.0,66.0,84.0,10.0
1.0,69.0,76.0,28.0
1.0,50.0,73.0,10.0
1.0,71.0,78.0,0.0
1.0,47.0,66.0,22.0
1.0,67.0,80.0,8.0
1.0,43.0,60.0,6.0
1.0,64.0,75.0,2.0
1.0,52.0,73.0,62.0
1.0,60.0,82.0,0.0
1.0,48.0,71.0,18.0
1.0,64.0,87.0,6.0
1.0,45.0,71.0,8.0
1.0,67.0,84.0,2.0
1.0,54.0,70.0,30.0
1.0,69.0,82.0,0.0
1.0,66.0,86.0,60.0
1.0,50.0,73.0,2.0
1.0,62.0,84.0,0.0
1.0,47.0,70.0,4.0
1.0,59.0,79.0,0.0
1.0,55.0,73.0,0.0
1.0,62.0,79.0,56.0
1.0,66.0,75.0,32.0
1.0,67.0,82.0,12.0
1.0,52.0,68.0,2.0
1.0,64.0,84.0,60.0
1.0,60.0,83.0,4.0
1.0,57.0,84.0,12.0
1.0,48.0,65.0,2.0
1.0,60.0,81.0,64.0
1.0,64.0,79.0,42.0
1.0,66.0,87.0,42.0
1.0,50.0,74.0,2.0
1.0,62.0,88.0,66.0
1.0,60.0,87.0,56.0
1.0,62.0,72.0,94.0
1.0,59.0,84.0,2.0
1.0,67.0,82.0,0.0
1.0,43.0,64.0,4.0
1.0,55.0,64.0,0.0
0.0,0.0,0.0,0.0
0.0,0.0,0.0,0.0
0.0,0.0,0.0,0.0
0.0,0.0,0.0,0.0
0.0,0.0,0.0,0.0
0.0,0.0,0.0,0.0
0.0,0.0,0.0,0.0
0.0,0.0,0.0,0.0
0.0,0.0,0.0,0.0
0.0,0.0,0.0,0.0
0.0,0.0,0.0,0.0
0.0,0.0,0.0,0.0
0.0,0.0,0.0,0.0
0.0,0.0,0.0,0.0
0.0,0.0,0.0,0.0
0.0,0.0,0.0,0.0
0.0,0.0,0.0,0.0
0.0,0.0,0.0,0.0
0.0,0.0,0.0,0.0
0.0,0.0,0.0,0.0
0.0,0.0,0.0,0.0
0.0,0.0,0.0,0.0
0.0,0.0,0.0,0.0
0.0,0.0,0.0,0.0
0.0,0.0,0.0,0.0
0.0,0.0,0.0,0.0
0.0,0.0,0.0,0.0
0.0,0.0,0.0,0.0
0.0,0.0,0.0,0.0
0.0,0.0,0.0,0.0
0.0,0.0,0.0,0.0
0.0,0.0,0.0,0.0
0.0,0.0,0.0,0.0
0.0,0.0,0.0,0.0
0.0,0.0,0.0,0.0
0.0,0.0,0.0,0.0
0.0,0.0,0.0,0.0
0.0,0.0,0.0,0.0
0.0,0.0,0.0,0.0
0.0,0.0,0.0,0.0
0.0,0.0,0.0,0.0
0.0,0.0,0.0,0.0
0.0,0.0,0.0,0.0
0.0,0.0,0.0,0.0
0.0,0.0,0.0,0.0
0.0,0.0,0.0,0.0
0.0,0.0,0.0,0.0
0.0,0.0,0.0,0.0
0.0,0.0,0.0,0.0
0.0,0.0,0.0,0.0
0.0,0.0,0.0,0.0
0.0,0.0,0.0,0.0
0.0,0.0,0.0,0.0
0.0,0.0,0.0,0.0
0.0,0.0,0.0,0.0
0.0,0.0,0.0,0.0
0.0,0.0,0.0,0.0
0.0,0.0,0.0,0.0
0.0,0.0,0.0,0.0
0.0,0.0,0.0,0.0
0.0,0.0,0.0,0.0
0.0,0.0,0.0,0.0
0.0,0.0,0.0,0.0
0.0,0.0,0.0,0.0
0.0,0.0,0.0,0.0
0.0,0.0,0.0,0.0
0.0,0.0,0.0,0.0
0.0,0.0,0.0,0.0
0.0,0.0,0.0,0.0
0.0,0.0,0.0,0.0
0.0,0.0,0.0,0.0
0.0,0.0,0.0,0.0
0.0,0.0,0.0,0.0
0.0,0.0,0.0,0.0
0.0,0.0,0.0,0.0
0.0,0.0,0.0,0.0
0.0,0.0,0.0,0.0
0.0,0.0,0.0,0.0
0.0,0.0,0.0,0.0
0.0,0.0,0.0,0.0
0.0,0.0,0.0,0.0
0.0,0.0,0.0,0.0
0.0,0.0,0.0,0.0
0.0,0.0,0.0,0.0
0.0,0.0,0.0,0.0
0.0,0.0,0.0,0.0
0.0,0.0,0.0,0.0
0.0,0.0,0.0,0.0
0.0,0.0,0.0,0.0
0.0,0.0,0.0,0.0
0.0,0.0,0.0,0.0
0.0,0.0,0.0,0.0
0.0,0.0,0.0,0.0
0.0,0.0,0.0,0.0
0.0,0.0,0.0,0.0
0.0,0.0,0.0,0.0
0.0,0.0,0.0,0.0
0.0,0.0,0.0,0.0
0.0,0.0,0.0,0.0
0.0,0.0,0.0,0.0
0.0,0.0,0.0,0.0
0.0,0.0,0.0,0.0
0.0,0.0,0.0,0.0
0.0,0.0,0.0,0.0
0.0,0.0,0.0,0.0
0.0,0.0,0.0,0.0
0.0,0.0,0.0,0.0
0.0,0.0,0.0,0.0
0.0,0.0,0.0,0.0
0.0,0.0,0.0,0.0
0.0,0.0,0.0,0.0
0.0,0.0,0.0,0.0
0.0,0.0,0.0,0.0
0.0,0.0,0.0,0.0
0.0,0.0,0.0,0.0
0.0,0.0,0.0,0.0
0.0,0.0,0.0,0.0
0.0,0.0,0.0,0.0
0.0,0.0,0.0,0.0
0.0,0.0,0.0,0.0
0.0,0.0,0.0,0.0
0.0,0.0,0.0,0.0
0.0,0.0,0.0,0.0
0.0,0.0,0.0,0.0
0.0,0.0,0.0,0.0
0.0,0.0,0.0,0.0
0.0,0.0,0.0,0.0
0.0,0.0,0.0,0.0
0.0,0.0,0.0,0.0
0.0,0.0,0.0,0.0
0.0,0.0,0.0,0.0
0.0,0.0,0.0,0.0
0.0,0.0,0.0,0.0
0.0,0.0,0.0,0.0
0.0,0.0,0.0,0.0
0.0,0.0,0.0,0.0
0.0,0.0,0.0,0.0
0.0,0.0,0.0,0.0
0.0,0.0,0.0,0.0
0.0,0.0,0.0,0.0
0.0,0.0,0.0,0.0
0.0,0.0,0.0,0.0
0.0,0.0,0.0,0.0
0.0,0.0,0.0,0.0
0.0,0.0,0.0,0.0
0.0,0.0,0.0,0.0
0.0,0.0,0.0,0.0
0.0,0.0,0.0,0.0
0.0,0.0,0.0,0.0
0.0,0.0,0.0,0.0
0.0,0.0,0.0,0.0
0.0,0.0,0.0,0.0
0.0,0.0,0.0,0.0
0.0,0.0,0.0,0.0
0.0,0.0,0.0,0.0
0.0,0.0,0.0,0.0
0.0,0.0,0.0,0.0
0.0,0.0,0.0,0.0
0.0,0.0,0.0,0.0
0.0,0.0,0.0,0.0
0.0,0.0,0.0,0.0
0.0,0.0,0.0,0.0
0.0,0.0,0.0,0.0
0.0,0.0,0.0,0.0
0.0,0.0,0.0,0.0
0.0,0.0,0.0,0.0
0.0,0.0,0.0,0.0
0.0,0.0,0.0,0.0
0.0,0.0,0.0,0.0
0.0,0.0,0.0,0.0
0.0,0.0,0.0,0.0
0.0,0.0,0.0,0.0
0.0,0.0,0.0,0.0
0.0,0.0,0.0,0.0
0.0,0.0,0.0,0.0
0.0,0.0,0.0,0.0
0.0,0.0,0.0,0.0
0.0,0.0,0.0,0.0
0.0,0.0,0.0,0.0
0.0,0.0,0.0,0.0
0.0,0.0,0.0,0.0
0.0,0.0,0.0,0.0
0.0,0.0,0.0,0.0
0.0,0.0,0.0,0.0
0.0,0.0,0.0,0.0
0.0,0.0,0.0,0.0
0.0,0.0,0.0,0.0
0.0,0.0,0.0,0.0
0.0,0.0,0.0,0.0
0.0,0.0,0.0,0.0
0.0,0.0,0.0,0.0
0.0,0.0,0.0,0.0
0.0,0.0,0.0,0.0
0.0,0.0,0.0,0.0
0.0,0.0,0.0,0.0
0.0,0.0,0.0,0.0
0.0,0.0,0.0,0.0
0.0,0.0,0.0,0.0
0.0,0.0,0.0,0.0
0.0,0.0,0.0,0.0
0.0,0.0,0.0,0.0
0.0,0.0,0.0,0.0
0.0,0.0,0.0,0.0
0.0,0.0,0.0,0.0
0.0,0.0,0.0,0.0
0.0,0.0,0.0,0.0
0.0,0.0,0.0,0.0
0.0,0.0,0.0,0.0
0.0,0.0,0.0,0.0
0.0,0.0,0.0,0.0
0.0,0.0,0.0,0.0
0.0,0.0,0.0,0.0
0.0,0.0,0.0,0.0
0.0,0.0,0.0,0.0
0.0,0.0,0.0,0.0
0.0,0.0,0.0,0.0
0.0,0.0,0.0,0.0
0.0,0.0,0.0,0.0
0.0,0.0,0.0,0.0
0.0,0.0,0.0,0.0
0.0,0.0,0.0,0.0
0.0,0.0,0.0,0.0
0.0,0.0,0.0,0.0
0.0,0.0,0.0,0.0
0.0,0.0,0.0,0.0
0.0,0.0,0.0,0.0
0.0,0.0,0.0,0.0
0.0,0.0,0.0,0.0
0.0,0.0,0.0,0.0
0.0,0.0,0.0,0.0
0.0,0.0,0.0,0.0
0.0,0.0,0.0,0.0
0.0,0.0,0.0,0.0
0.0,0.0,0.0,0.0
0.0,0.0,0.0,0.0
0.0,0.0,0.0,0.0
0.0,0.0,0.0,0.0
0.0,0.0,0.0,0.0
0.0,0.0,0.0,0.0
0.0,0.0,0.0,0.0
0.0,0.0,0.0,0.0
0.0,0.0,0.0,0.0
0.0,0.0,0.0,0.0
0.0,0.0,0.0,0.0
0.0,0.0,0.0,0.0
0.0,0.0,0.0,0.0
0.0,0.0,0.0,0.0
0.0,0.0,0.0,0.0
0.0,0.0,0.0,0.0
0.0,0.0,0.0,0.0
0.0,0.0,0.0,0.0
0.0,0.0,0.0,0.0
0.0,0.0,0.0,0.0
0.0,0.0,0.0,0.0
0.0,0.0,0.0,0.0
0.0,0.0,0.0,0.0
0.0,0.0,0.0,0.0
0.0,0.0,0.0,0.0
0.0,0.0,0.0,0.0
0.0,0.0,0.0,0.0
0.0,0.0,0.0,0.0
0.0,0.0,0.0,0.0
0.0,0.0,0.0,0.0
0.0,0.0,0.0,0.0
0.0,0.0,0.0,0.0
0.0,0.0,0.0,0.0
0.0,0.0,0.0,0.0
0.0,0.0,0.0,0.0
0.0,0.0,0.0,0.0
0.0,0.0,0.0,0.0
0.0,0.0,0.0,0.0
0.0,0.0,0.0,0.0
0.0,0.0,0.0,0.0
0.0,0.0,0.0,0.0
0.0,0.0,0.0,0.0
0.0,0.0,0.0,0.0
0.0,0.0,0.0,0.0
0.0,0.0,0.0,0.0
0.0,0.0,0.0,0.0
0.0,0.0,0.0,0.0
0.0,0.0,0.0,0.0
0.0,0.0,0.0,0.0
0.0,0.0,0.0,0.0
0.0,0.0,0.0,0.0
0.0,0.0,0.0,0.0
0.0,0.0,0.0,0.0
0.0,0.0,0.0,0.0
0.0,0.0,0.0,0.0
0.0,0.0,0.0,0.0
0.0,0.0,0.0,0.0
0.0,0.0,0.0,0.0
0.0,0.0,0.0,0.0
0.0,0.0,0.0,0.0
0.0,0.0,0.0,0.0
0.0,0.0,0.0,0.0
0.0,0.0,0.0,0.0
0.0,0.0,0.0,0.0
0.0,0.0,0.0,0.0
0.0,0.0,0.0,0.0
0.0,0.0,0.0,0.0
0.0,0.0,0.0,0.0
0.0,0.0,0.0,0.0
0.0,0.0,0.0,0.0
0.0,0.0,0.0,0.0
0.0,0.0,0.0,0.0
0.0,0.0,0.0,0.0
0.0,0.0,0.0,0.0
0.0,0.0,0.0,0.0
0.0,0.0,0.0,0.0
0.0,0.0,0.0,0.0
0.0,0.0,0.0,0.0
0.0,0.0,0.0,0.0
0.0,0.0,0.0,0.0
0.0,0.0,0.0,0.0
0.0,0.0,0.0,0.0
0.0,0.0,0.0,0.0
0.0,0.0,0.0,0.0
0.0,0.0,0.0,0.0
0.0,0.0,0.0,0.0
0.0,0.0,0.0,0.0
0.0,0.0,0.0,0.0
0.0,0.0,0.0,0.0
0.0,0.0,0.0,0.0
0.0,0.0,0.0,0.0
0.0,0.0,0.0,0.0
0.0,0.0,0.0,0.0
0.0,0.0,0.0,0.0
0.0,0.0,0.0,0.0
0.0,0.0,0.0,0.0
0.0,0.0,0.0,0.0
0.0,0.0,0.0,0.0
0.0,0.0,0.0,0.0
0.0,0.0,0.0,0.0
0.0,0.0,0.0,0.0
0.0,0.0,0.0,0.0
0.0,0.0,0.0,0.0
0.0,0.0,0.0,0.0
0.0,0.0,0.0,0.0
0.0,0.0,0.0,0.0
0.0,0.0,0.0,0.0
0.0,0.0,0.0,0.0
0.0,0.0,0.0,0.0
0.0,0.0,0.0,0.0
0.0,0.0,0.0,0.0
0.0,0.0,0.0,0.0
0.0,0.0,0.0,0.0
0.0,0.0,0.0,0.0
0.0,0.0,0.0,0.0
0.0,0.0,0.0,0.0
0.0,0.0,0.0,0.0
0.0,0.0,0.0,0.0
0.0,0.0,0.0,0.0
0.0,0.0,0.0,0.0
0.0,0.0,0.0,0.0
0.0,0.0,0.0,0.0
0.0,0.0,0.0,0.0
0.0,0.0,0.0,0.0
0.0,0.0,0.0,0.0
0.0,0.0,0.0,0.0
0.0,0.0,0.0,0.0
0.0,0.0,0.0,0.0
0.0,0.0,0.0,0.0
0.0,0.0,0.0,0.0
0.0,0.0,0.0,0.0
0.0,0.0,0.0,0.0
0.0,0.0,0.0,0.0
0.0,0.0,0.0,0.0
0.0,0.0,0.0,0.0
0.0,0.0,0.0,0.0
0.0,0.0,0.0,0.0
0.0,0.0,0.0,0.0
0.0,0.0,0.0,0.0
0.0,0.0,0.0,0.0
0.0,0.0,0.0,0.0
0.0,0.0,0.0,0.0
0.0,0.0,0.0,0.0
0.0,0.0,0.0,0.0
0.0,0.0,0.0,0.0
0.0,0.0,0.0,0.0
0.0,0.0,0.0,0.0
0.0,0.0,0.0,0.0
0.0,0.0,0.0,0.0
0.0,0.0,0.0,0.0
0.0,0.0,0.0,0.0
0.0,0.0,0.0,0.0
0.0,0.0,0.0,0.0
0.0,0.0,0.0,0.0
0.0,0.0,0.0,0.0
0.0,0.0,0.0,0.0
0.0,0.0,0.0,0.0
0.0,0.0,0.0,0.0
0.0,0.0,0.0,0.0
0.0,0.0,0.0,0.0
