track,note,velocity,time
1.0,43.0,55.0,4188.0
1.0,43.0,77.0,76.0
1.0,47.0,75.0,72.0
1.0,48.0,80.0,88.0
1.0,50.0,76.0,108.0
1.0,43.0,74.0,72.0
1.0,43.0,67.0,360.0
1.0,43.0,77.0,72.0
1.0,47.0,72.0,116.0
1.0,48.0,55.0,100.0
1.0,50.0,75.0,112.0
1.0,43.0,69.0,96.0
1.0,47.0,74.0,368.0
1.0,40.0,81.0,32.0
1.0,38.0,77.0,32.0
1.0,48.0,75.0,16.0
1.0,47.0,69.0,16.0
1.0,43.0,76.0,24.0
1.0,38.0,65.0,16.0
1.0,43.0,70.0,388.0
1.0,42.0,66.0,48.0
1.0,40.0,77.0,16.0
1.0,43.0,60.0,28.0
1.0,45.0,70.0,8.0
1.0,47.0,74.0,12.0
1.0,49.0,79.0,16.0
1.0,45.0,66.0,20.0
1.0,50.0,74.0,16.0
1.0,49.0,77.0,20.0
1.0,47.0,66.0,4.0
1.0,45.0,62.0,8.0
1.0,43.0,75.0,16.0
1.0,42.0,70.0,8.0
1.0,40.0,63.0,12.0
1.0,43.0,67.0,16.0
1.0,42.0,92.0,120.0
1.0,38.0,78.0,124.0
1.0,45.0,88.0,124.0
1.0,33.0,80.0,104.0
1.0,35.0,95.0,108.0
1.0,37.0,90.0,112.0
1.0,38.0,89.0,148.0
1.0,42.0,89.0,112.0
1.0,43.0,91.0,108.0
1.0,40.0,100.0,136.0
1.0,45.0,90.0,128.0
1.0,33.0,85.0,128.0
1.0,38.0,90.0,132.0
1.0,50.0,96.0,108.0
1.0,48.0,86.0,4.0
1.0,47.0,98.0,32.0
1.0,45.0,101.0,36.0
1.0,43.0,75.0,48.0
1.0,43.0,85.0,68.0
1.0,47.0,76.0,32.0
1.0,48.0,83.0,44.0
1.0,50.0,74.0,56.0
1.0,43.0,84.0,56.0
1.0,43.0,76.0,356.0
1.0,43.0,81.0,72.0
1.0,47.0,76.0,72.0
1.0,48.0,77.0,80.0
1.0,50.0,75.0,76.0
1.0,43.0,85.0,60.0
1.0,47.0,81.0,364.0
1.0,40.0,80.0,12.0
1.0,38.0,69.0,20.0
1.0,48.0,73.0,0.0
1.0,47.0,78.0,32.0
1.0,43.0,76.0,24.0
1.0,50.0,73.0,80.0
1.0,48.0,75.0,112.0
1.0,47.0,80.0,108.0
1.0,48.0,95.0,244.0
1.0,47.0,92.0,40.0
1.0,45.0,81.0,16.0
1.0,43.0,83.0,4.0
1.0,38.0,82.0,24.0
1.0,40.0,97.0,8.0
1.0,42.0,88.0,16.0
1.0,38.0,76.0,8.0
1.0,43.0,95.0,28.0
1.0,35.0,98.0,48.0
1.0,36.0,89.0,108.0
1.0,35.0,92.0,84.0
1.0,33.0,77.0,108.0
1.0,31.0,85.0,88.0
1.0,30.0,81.0,84.0
1.0,33.0,78.0,20.0
1.0,38.0,81.0,48.0
1.0,40.0,96.0,88.0
1.0,38.0,83.0,108.0
1.0,36.0,81.0,104.0
1.0,35.0,89.0,108.0
1.0,40.0,86.0,108.0
1.0,36.0,78.0,104.0
1.0,38.0,81.0,92.0
1.0,40.0,89.0,116.0
1.0,42.0,76.0,116.0
1.0,43.0,88.0,92.0
1.0,35.0,82.0,124.0
1.0,36.0,104.0,84.0
1.0,33.0,100.0,92.0
1.0,38.0,107.0,112.0
1.0,38.0,107.0,124.0
1.0,43.0,97.0,136.0
2.0,43.0,79.0,4172.0
2.0,43.0,69.0,68.0
2.0,47.0,71.0,388.0
2.0,48.0,74.0,8.0
2.0,50.0,81.0,384.0
2.0,43.0,64.0,368.0
2.0,43.0,82.0,400.0
2.0,43.0,78.0,56.0
2.0,47.0,74.0,392.0
2.0,48.0,78.0,4.0
2.0,50.0,69.0,0.0
2.0,43.0,65.0,388.0
2.0,47.0,75.0,388.0
2.0,52.0,74.0,12.0
2.0,50.0,74.0,380.0
2.0,48.0,72.0,0.0
2.0,47.0,72.0,384.0
2.0,43.0,73.0,4.0
2.0,50.0,75.0,384.0
2.0,55.0,79.0,424.0
2.0,54.0,64.0,384.0
2.0,52.0,72.0,4.0
2.0,55.0,79.0,384.0
2.0,57.0,71.0,380.0
2.0,59.0,69.0,376.0
2.0,61.0,61.0,16.0
2.0,57.0,68.0,4.0
2.0,62.0,84.0,0.0
2.0,61.0,63.0,380.0
2.0,59.0,77.0,380.0
2.0,57.0,74.0,380.0
2.0,55.0,75.0,380.0
2.0,54.0,72.0,4.0
2.0,52.0,65.0,388.0
2.0,55.0,71.0,4.0
2.0,54.0,70.0,12.0
2.0,50.0,68.0,196.0
2.0,57.0,72.0,20.0
2.0,45.0,71.0,20.0
2.0,47.0,70.0,20.0
2.0,49.0,72.0,12.0
2.0,50.0,75.0,16.0
2.0,42.0,66.0,12.0
2.0,43.0,74.0,12.0
2.0,40.0,76.0,196.0
2.0,45.0,78.0,8.0
2.0,50.0,77.0,384.0
2.0,50.0,84.0,96.0
2.0,48.0,70.0,20.0
2.0,47.0,64.0,16.0
2.0,45.0,60.0,16.0
2.0,43.0,82.0,16.0
2.0,43.0,87.0,88.0
2.0,47.0,81.0,8.0
2.0,48.0,74.0,4.0
2.0,50.0,81.0,384.0
2.0,43.0,73.0,0.0
2.0,43.0,82.0,388.0
2.0,43.0,81.0,84.0
2.0,47.0,74.0,384.0
2.0,48.0,80.0,12.0
2.0,50.0,79.0,4.0
2.0,43.0,74.0,384.0
2.0,47.0,79.0,372.0
2.0,52.0,77.0,388.0
2.0,50.0,79.0,8.0
2.0,48.0,71.0,0.0
2.0,47.0,74.0,384.0
2.0,43.0,77.0,0.0
2.0,50.0,77.0,388.0
2.0,48.0,71.0,8.0
2.0,47.0,77.0,4.0
2.0,48.0,73.0,8.0
2.0,47.0,73.0,384.0
2.0,45.0,74.0,0.0
2.0,43.0,71.0,8.0
2.0,50.0,87.0,8.0
2.0,52.0,83.0,0.0
2.0,54.0,74.0,388.0
2.0,50.0,73.0,368.0
2.0,55.0,77.0,8.0
2.0,47.0,75.0,24.0
2.0,48.0,86.0,388.0
2.0,47.0,85.0,0.0
2.0,45.0,82.0,0.0
2.0,43.0,87.0,8.0
2.0,42.0,77.0,196.0
2.0,45.0,78.0,8.0
2.0,50.0,80.0,388.0
2.0,52.0,74.0,16.0
2.0,50.0,81.0,20.0
2.0,48.0,79.0,192.0
2.0,47.0,75.0,188.0
2.0,52.0,77.0,4.0
2.0,48.0,80.0,4.0
2.0,50.0,77.0,8.0
2.0,52.0,81.0,12.0
2.0,54.0,79.0,192.0
2.0,55.0,78.0,8.0
2.0,47.0,79.0,0.0
2.0,48.0,73.0,28.0
2.0,45.0,71.0,192.0
2.0,50.0,84.0,8.0
2.0,38.0,75.0,16.0
2.0,43.0,76.0,192.0
3.0,62.0,75.0,3956.0
3.0,67.0,85.0,4.0
3.0,69.0,82.0,88.0
3.0,71.0,79.0,96.0
3.0,71.0,91.0,72.0
3.0,69.0,71.0,8.0
3.0,72.0,91.0,28.0
3.0,71.0,81.0,12.0
3.0,62.0,78.0,8.0
3.0,60.0,77.0,4.0
3.0,71.0,89.0,48.0
3.0,67.0,74.0,4.0
3.0,69.0,77.0,0.0
3.0,60.0,76.0,16.0
3.0,59.0,78.0,192.0
3.0,66.0,76.0,52.0
3.0,67.0,73.0,12.0
3.0,62.0,79.0,200.0
3.0,67.0,87.0,56.0
3.0,69.0,78.0,4.0
3.0,71.0,86.0,92.0
3.0,71.0,92.0,64.0
3.0,69.0,77.0,4.0
3.0,72.0,89.0,4.0
3.0,71.0,79.0,8.0
3.0,62.0,85.0,4.0
3.0,60.0,77.0,196.0
3.0,71.0,85.0,52.0
3.0,67.0,65.0,96.0
3.0,69.0,72.0,8.0
3.0,60.0,81.0,24.0
3.0,59.0,75.0,4.0
3.0,66.0,86.0,44.0
3.0,67.0,87.0,12.0
3.0,74.0,87.0,132.0
3.0,74.0,95.0,120.0
3.0,72.0,81.0,388.0
3.0,71.0,74.0,8.0
3.0,69.0,78.0,96.0
3.0,67.0,74.0,16.0
3.0,69.0,72.0,4.0
3.0,67.0,59.0,0.0
3.0,66.0,69.0,0.0
3.0,64.0,70.0,8.0
3.0,62.0,77.0,16.0
3.0,64.0,76.0,16.0
3.0,66.0,77.0,8.0
3.0,67.0,84.0,16.0
3.0,69.0,78.0,16.0
3.0,71.0,82.0,8.0
3.0,69.0,77.0,8.0
3.0,72.0,91.0,12.0
3.0,71.0,65.0,96.0
3.0,69.0,69.0,0.0
3.0,67.0,75.0,16.0
3.0,71.0,77.0,0.0
3.0,69.0,57.0,4.0
3.0,62.0,79.0,256.0
3.0,71.0,85.0,8.0
3.0,73.0,84.0,196.0
3.0,74.0,87.0,376.0
3.0,67.0,73.0,12.0
3.0,66.0,69.0,8.0
3.0,67.0,79.0,12.0
3.0,64.0,71.0,188.0
3.0,73.0,86.0,4.0
3.0,74.0,80.0,192.0
3.0,76.0,74.0,0.0
3.0,67.0,71.0,0.0
3.0,66.0,77.0,0.0
3.0,67.0,78.0,0.0
3.0,79.0,80.0,208.0
3.0,78.0,81.0,28.0
3.0,76.0,78.0,96.0
3.0,74.0,72.0,92.0
3.0,74.0,82.0,72.0
3.0,73.0,78.0,8.0
3.0,74.0,85.0,96.0
3.0,73.0,64.0,0.0
3.0,71.0,72.0,100.0
3.0,69.0,70.0,8.0
3.0,67.0,74.0,4.0
3.0,66.0,75.0,0.0
3.0,64.0,81.0,32.0
3.0,62.0,81.0,0.0
3.0,64.0,95.0,92.0
3.0,66.0,78.0,0.0
3.0,67.0,89.0,96.0
3.0,67.0,89.0,60.0
3.0,66.0,77.0,92.0
3.0,67.0,86.0,4.0
3.0,73.0,82.0,16.0
3.0,74.0,79.0,16.0
3.0,76.0,86.0,96.0
3.0,74.0,81.0,88.0
3.0,73.0,78.0,84.0
3.0,71.0,79.0,88.0
3.0,69.0,75.0,92.0
3.0,74.0,88.0,12.0
3.0,69.0,77.0,16.0
3.0,66.0,80.0,188.0
3.0,64.0,67.0,28.0
3.0,62.0,82.0,4.0
3.0,62.0,81.0,44.0
3.0,67.0,78.0,4.0
3.0,66.0,65.0,0.0
3.0,64.0,72.0,20.0
3.0,66.0,85.0,100.0
3.0,62.0,76.0,16.0
3.0,59.0,80.0,12.0
3.0,61.0,74.0,0.0
3.0,61.0,83.0,64.0
3.0,59.0,65.0,20.0
3.0,61.0,60.0,8.0
3.0,62.0,89.0,40.0
3.0,62.0,74.0,228.0
3.0,67.0,92.0,32.0
3.0,69.0,81.0,0.0
3.0,71.0,90.0,96.0
3.0,71.0,84.0,68.0
3.0,69.0,77.0,192.0
3.0,72.0,86.0,8.0
3.0,71.0,75.0,196.0
3.0,62.0,73.0,16.0
3.0,60.0,78.0,4.0
3.0,71.0,81.0,36.0
3.0,67.0,73.0,100.0
3.0,69.0,77.0,4.0
3.0,60.0,77.0,24.0
3.0,59.0,75.0,192.0
3.0,66.0,79.0,0.0
3.0,67.0,79.0,12.0
3.0,62.0,74.0,176.0
3.0,67.0,82.0,24.0
3.0,69.0,77.0,4.0
3.0,71.0,81.0,96.0
3.0,71.0,87.0,68.0
3.0,69.0,72.0,8.0
3.0,72.0,87.0,12.0
3.0,71.0,74.0,8.0
3.0,62.0,76.0,12.0
3.0,60.0,67.0,4.0
3.0,71.0,86.0,40.0
3.0,67.0,69.0,92.0
3.0,69.0,78.0,12.0
3.0,60.0,79.0,0.0
3.0,59.0,78.0,196.0
3.0,66.0,77.0,4.0
3.0,67.0,79.0,4.0
3.0,74.0,77.0,180.0
3.0,74.0,98.0,124.0
3.0,72.0,77.0,380.0
3.0,71.0,75.0,88.0
3.0,69.0,74.0,0.0
3.0,67.0,77.0,16.0
3.0,69.0,77.0,16.0
3.0,67.0,73.0,12.0
3.0,66.0,71.0,96.0
3.0,64.0,67.0,8.0
3.0,62.0,84.0,12.0
3.0,64.0,77.0,188.0
3.0,66.0,81.0,8.0
3.0,67.0,80.0,16.0
3.0,69.0,73.0,4.0
3.0,71.0,87.0,4.0
3.0,69.0,77.0,8.0
3.0,72.0,84.0,0.0
3.0,71.0,69.0,96.0
3.0,69.0,65.0,8.0
3.0,67.0,76.0,4.0
3.0,71.0,87.0,100.0
3.0,69.0,64.0,188.0
3.0,67.0,65.0,212.0
3.0,76.0,92.0,32.0
3.0,78.0,86.0,12.0
3.0,79.0,83.0,56.0
3.0,72.0,81.0,44.0
3.0,71.0,70.0,12.0
3.0,72.0,85.0,16.0
3.0,69.0,72.0,88.0
3.0,78.0,88.0,192.0
3.0,79.0,78.0,32.0
3.0,81.0,88.0,28.0
3.0,72.0,80.0,32.0
3.0,71.0,70.0,12.0
3.0,72.0,92.0,8.0
3.0,69.0,89.0,100.0
3.0,71.0,87.0,80.0
3.0,69.0,68.0,0.0
3.0,67.0,84.0,4.0
3.0,66.0,85.0,288.0
3.0,67.0,89.0,12.0
3.0,77.0,94.0,0.0
3.0,76.0,83.0,8.0
3.0,74.0,85.0,4.0
3.0,72.0,82.0,96.0
3.0,71.0,81.0,8.0
3.0,69.0,73.0,96.0
3.0,67.0,77.0,0.0
3.0,69.0,89.0,12.0
3.0,71.0,81.0,12.0
3.0,72.0,90.0,8.0
3.0,71.0,79.0,8.0
3.0,72.0,81.0,96.0
3.0,66.0,62.0,20.0
3.0,67.0,79.0,0.0
3.0,69.0,83.0,0.0
3.0,67.0,84.0,96.0
3.0,66.0,73.0,84.0
3.0,64.0,77.0,8.0
3.0,62.0,82.0,0.0
3.0,74.0,95.0,36.0
3.0,67.0,75.0,188.0
3.0,71.0,90.0,24.0
3.0,69.0,63.0,0.0
3.0,67.0,77.0,12.0
3.0,66.0,86.0,0.0
3.0,67.0,85.0,4.0
3.0,72.0,88.0,4.0
3.0,71.0,76.0,8.0
3.0,69.0,79.0,0.0
3.0,71.0,87.0,96.0
3.0,67.0,80.0,20.0
3.0,64.0,83.0,192.0
3.0,66.0,76.0,8.0
3.0,66.0,99.0,56.0
3.0,67.0,81.0,0.0
3.0,67.0,93.0,40.0
4.0,59.0,88.0,4128.0
4.0,60.0,67.0,72.0
4.0,62.0,71.0,16.0
4.0,62.0,66.0,108.0
4.0,60.0,73.0,4.0
4.0,64.0,83.0,116.0
4.0,62.0,68.0,176.0
4.0,59.0,85.0,132.0
4.0,57.0,69.0,8.0
4.0,62.0,66.0,120.0
4.0,59.0,71.0,4.0
4.0,60.0,65.0,20.0
4.0,59.0,81.0,1304.0
4.0,60.0,71.0,4.0
4.0,62.0,72.0,16.0
4.0,62.0,74.0,136.0
4.0,60.0,72.0,0.0
4.0,64.0,84.0,104.0
4.0,62.0,75.0,0.0
4.0,59.0,66.0,104.0
4.0,57.0,71.0,4.0
4.0,62.0,74.0,128.0
4.0,59.0,75.0,12.0
4.0,60.0,65.0,28.0
4.0,55.0,78.0,1316.0
4.0,55.0,84.0,8.0
4.0,57.0,80.0,16.0
4.0,57.0,93.0,56.0
4.0,59.0,101.0,20.0
4.0,60.0,109.0,36.0
4.0,57.0,100.0,32.0
4.0,59.0,97.0,28.0
4.0,62.0,77.0,1032.0
4.0,62.0,102.0,68.0
4.0,61.0,110.0,32.0
4.0,62.0,92.0,48.0
4.0,61.0,108.0,48.0
4.0,62.0,91.0,40.0
4.0,59.0,106.0,28.0
4.0,61.0,110.0,24.0
4.0,62.0,95.0,40.0
4.0,59.0,107.0,32.0
4.0,61.0,110.0,28.0
4.0,59.0,95.0,28.0
4.0,61.0,110.0,28.0
4.0,59.0,98.0,32.0
4.0,61.0,108.0,36.0
4.0,59.0,97.0,28.0
4.0,61.0,102.0,44.0
4.0,62.0,95.0,40.0
4.0,64.0,97.0,40.0
4.0,61.0,108.0,36.0
4.0,62.0,95.0,48.0
4.0,57.0,107.0,16.0
4.0,54.0,106.0,40.0
4.0,57.0,96.0,52.0
4.0,50.0,86.0,56.0
4.0,52.0,102.0,32.0
4.0,54.0,106.0,40.0
4.0,55.0,89.0,24.0
4.0,57.0,95.0,24.0
4.0,62.0,89.0,8.0
4.0,62.0,66.0,116.0
4.0,57.0,89.0,4.0
4.0,59.0,85.0,104.0
4.0,57.0,83.0,8.0
4.0,55.0,84.0,12.0
4.0,59.0,85.0,0.0
4.0,66.0,86.0,388.0
4.0,62.0,80.0,4.0
4.0,57.0,85.0,132.0
4.0,55.0,78.0,132.0
4.0,54.0,81.0,8.0
4.0,54.0,77.0,52.0
4.0,59.0,70.0,56.0
4.0,57.0,78.0,36.0
4.0,55.0,76.0,44.0
4.0,57.0,56.0,40.0
4.0,54.0,67.0,32.0
4.0,55.0,70.0,144.0
4.0,55.0,59.0,64.0
4.0,54.0,63.0,28.0
4.0,54.0,61.0,68.0
4.0,59.0,88.0,364.0
4.0,60.0,67.0,72.0
4.0,62.0,71.0,20.0
4.0,62.0,66.0,108.0
4.0,60.0,73.0,4.0
4.0,64.0,83.0,116.0
4.0,62.0,68.0,176.0
4.0,59.0,85.0,132.0
4.0,57.0,69.0,8.0
4.0,62.0,66.0,124.0
4.0,59.0,71.0,8.0
4.0,60.0,65.0,24.0
4.0,59.0,81.0,1304.0
4.0,60.0,71.0,4.0
4.0,62.0,72.0,16.0
4.0,62.0,74.0,136.0
4.0,60.0,72.0,4.0
4.0,64.0,84.0,104.0
4.0,62.0,75.0,0.0
4.0,59.0,66.0,104.0
4.0,57.0,71.0,4.0
4.0,62.0,74.0,124.0
4.0,59.0,75.0,12.0
4.0,60.0,65.0,28.0
4.0,55.0,78.0,1316.0
4.0,55.0,84.0,8.0
4.0,57.0,80.0,16.0
4.0,57.0,93.0,56.0
4.0,59.0,101.0,20.0
4.0,60.0,109.0,36.0
4.0,57.0,100.0,32.0
4.0,59.0,97.0,24.0
4.0,60.0,83.0,1220.0
4.0,62.0,82.0,32.0
4.0,64.0,83.0,24.0
4.0,57.0,84.0,32.0
4.0,55.0,97.0,4.0
4.0,57.0,101.0,44.0
4.0,62.0,88.0,64.0
4.0,64.0,115.0,24.0
4.0,66.0,101.0,28.0
4.0,57.0,104.0,44.0
4.0,55.0,83.0,44.0
4.0,57.0,93.0,48.0
4.0,55.0,91.0,3116.0
4.0,57.0,93.0,16.0
4.0,59.0,93.0,20.0
4.0,55.0,84.0,20.0
4.0,57.0,98.0,32.0
4.0,59.0,98.0,32.0
4.0,60.0,91.0,36.0
4.0,57.0,98.0,28.0
4.0,59.0,100.0,44.0
4.0,62.0,73.0,132.0
4.0,62.0,101.0,124.0
4.0,59.0,100.0,124.0
4.0,60.0,83.0,124.0
4.0,60.0,86.0,88.0
4.0,59.0,89.0,32.0
4.0,59.0,80.0,56.0
5.0,62.0,100.0,3896.0
5.0,67.0,97.0,48.0
5.0,69.0,100.0,88.0
5.0,71.0,106.0,28.0
5.0,71.0,100.0,108.0
5.0,69.0,92.0,12.0
5.0,72.0,104.0,108.0
5.0,71.0,107.0,8.0
5.0,62.0,100.0,124.0
5.0,60.0,97.0,12.0
5.0,71.0,101.0,100.0
5.0,67.0,104.0,4.0
5.0,69.0,109.0,32.0
5.0,60.0,98.0,120.0
5.0,59.0,102.0,8.0
5.0,66.0,108.0,100.0
5.0,67.0,107.0,12.0
5.0,62.0,92.0,292.0
5.0,67.0,100.0,20.0
5.0,69.0,96.0,0.0
5.0,71.0,104.0,24.0
5.0,71.0,101.0,100.0
5.0,69.0,93.0,12.0
5.0,72.0,101.0,52.0
5.0,71.0,107.0,4.0
5.0,62.0,93.0,88.0
5.0,60.0,102.0,12.0
5.0,71.0,98.0,100.0
5.0,67.0,95.0,8.0
5.0,69.0,106.0,28.0
5.0,60.0,98.0,132.0
5.0,59.0,104.0,8.0
5.0,66.0,106.0,92.0
5.0,67.0,107.0,4.0
5.0,74.0,113.0,264.0
5.0,74.0,89.0,80.0
5.0,72.0,102.0,28.0
5.0,71.0,91.0,4.0
5.0,69.0,92.0,32.0
5.0,67.0,95.0,28.0
5.0,69.0,98.0,52.0
5.0,67.0,91.0,4.0
5.0,66.0,102.0,16.0
5.0,64.0,90.0,12.0
5.0,62.0,90.0,16.0
5.0,64.0,96.0,12.0
5.0,66.0,94.0,20.0
5.0,67.0,106.0,32.0
5.0,69.0,96.0,8.0
5.0,71.0,102.0,20.0
5.0,69.0,101.0,28.0
5.0,72.0,101.0,24.0
5.0,71.0,106.0,4.0
5.0,69.0,90.0,8.0
5.0,67.0,98.0,20.0
5.0,71.0,106.0,40.0
5.0,69.0,92.0,8.0
5.0,62.0,86.0,272.0
5.0,71.0,91.0,80.0
5.0,73.0,93.0,28.0
5.0,74.0,90.0,40.0
5.0,67.0,100.0,24.0
5.0,66.0,88.0,12.0
5.0,67.0,95.0,28.0
5.0,64.0,95.0,164.0
5.0,73.0,96.0,48.0
5.0,74.0,86.0,52.0
5.0,76.0,93.0,32.0
5.0,67.0,95.0,40.0
5.0,66.0,90.0,12.0
5.0,67.0,96.0,24.0
5.0,79.0,97.0,180.0
5.0,78.0,112.0,68.0
5.0,76.0,104.0,24.0
5.0,74.0,109.0,48.0
5.0,74.0,104.0,44.0
5.0,73.0,108.0,16.0
5.0,74.0,107.0,36.0
5.0,73.0,108.0,24.0
5.0,71.0,100.0,16.0
5.0,69.0,98.0,20.0
5.0,67.0,102.0,16.0
5.0,66.0,112.0,4.0
5.0,64.0,107.0,16.0
5.0,62.0,97.0,24.0
5.0,64.0,104.0,52.0
5.0,66.0,99.0,16.0
5.0,67.0,106.0,24.0
5.0,67.0,98.0,48.0
5.0,66.0,96.0,12.0
5.0,67.0,102.0,24.0
5.0,73.0,101.0,12.0
5.0,74.0,90.0,20.0
5.0,76.0,104.0,36.0
5.0,74.0,111.0,20.0
5.0,73.0,121.0,100.0
5.0,71.0,98.0,12.0
5.0,69.0,85.0,8.0
5.0,74.0,92.0,28.0
5.0,69.0,93.0,4.0
5.0,66.0,94.0,92.0
5.0,64.0,100.0,124.0
5.0,62.0,91.0,32.0
5.0,62.0,104.0,44.0
5.0,67.0,98.0,32.0
5.0,66.0,110.0,28.0
5.0,64.0,101.0,48.0
5.0,66.0,104.0,40.0
5.0,62.0,100.0,120.0
5.0,59.0,119.0,28.0
5.0,61.0,121.0,64.0
5.0,61.0,123.0,56.0
5.0,59.0,107.0,48.0
5.0,61.0,123.0,48.0
5.0,62.0,115.0,16.0
5.0,62.0,104.0,196.0
5.0,67.0,109.0,88.0
5.0,69.0,97.0,8.0
5.0,71.0,106.0,20.0
5.0,71.0,106.0,92.0
5.0,69.0,95.0,12.0
5.0,72.0,100.0,68.0
5.0,71.0,102.0,184.0
5.0,62.0,95.0,76.0
5.0,60.0,111.0,12.0
5.0,71.0,104.0,84.0
5.0,67.0,101.0,0.0
5.0,69.0,106.0,16.0
5.0,60.0,97.0,116.0
5.0,59.0,100.0,0.0
5.0,66.0,99.0,72.0
5.0,67.0,98.0,4.0
5.0,62.0,92.0,260.0
5.0,67.0,101.0,28.0
5.0,69.0,97.0,4.0
5.0,71.0,113.0,24.0
5.0,71.0,107.0,112.0
5.0,69.0,92.0,8.0
5.0,72.0,104.0,68.0
5.0,71.0,100.0,0.0
5.0,62.0,89.0,84.0
5.0,60.0,106.0,12.0
5.0,71.0,104.0,96.0
5.0,67.0,92.0,8.0
5.0,69.0,100.0,24.0
5.0,60.0,104.0,108.0
5.0,59.0,100.0,8.0
5.0,66.0,110.0,72.0
5.0,67.0,102.0,12.0
5.0,74.0,113.0,248.0
5.0,74.0,119.0,92.0
5.0,72.0,117.0,80.0
5.0,71.0,106.0,88.0
5.0,69.0,102.0,4.0
5.0,67.0,107.0,16.0
5.0,69.0,106.0,28.0
5.0,67.0,113.0,108.0
5.0,66.0,115.0,8.0
5.0,64.0,101.0,8.0
5.0,62.0,102.0,32.0
5.0,64.0,104.0,8.0
5.0,66.0,108.0,16.0
5.0,67.0,109.0,24.0
5.0,69.0,104.0,12.0
5.0,71.0,113.0,16.0
5.0,69.0,104.0,20.0
5.0,72.0,104.0,24.0
5.0,71.0,111.0,0.0
5.0,69.0,93.0,4.0
5.0,67.0,101.0,24.0
5.0,71.0,106.0,44.0
5.0,69.0,101.0,12.0
5.0,67.0,102.0,316.0
5.0,76.0,106.0,12.0
5.0,78.0,106.0,32.0
5.0,79.0,102.0,20.0
5.0,72.0,101.0,28.0
5.0,71.0,89.0,4.0
5.0,72.0,97.0,16.0
5.0,69.0,93.0,28.0
5.0,78.0,108.0,8.0
5.0,79.0,106.0,12.0
5.0,81.0,106.0,24.0
5.0,72.0,97.0,24.0
5.0,71.0,89.0,12.0
5.0,72.0,96.0,4.0
5.0,69.0,106.0,68.0
5.0,71.0,117.0,56.0
5.0,69.0,107.0,28.0
5.0,67.0,119.0,40.0
5.0,66.0,121.0,48.0
5.0,67.0,107.0,48.0
5.0,77.0,113.0,64.0
5.0,76.0,111.0,84.0
5.0,74.0,106.0,20.0
5.0,72.0,104.0,24.0
5.0,71.0,113.0,16.0
5.0,69.0,107.0,24.0
5.0,67.0,106.0,28.0
5.0,69.0,111.0,40.0
5.0,71.0,111.0,24.0
5.0,72.0,107.0,36.0
5.0,71.0,107.0,28.0
5.0,72.0,106.0,36.0
5.0,66.0,117.0,36.0
5.0,67.0,104.0,20.0
5.0,69.0,111.0,24.0
5.0,67.0,102.0,12.0
5.0,66.0,119.0,4.0
5.0,64.0,109.0,12.0
5.0,62.0,102.0,16.0
5.0,74.0,119.0,36.0
5.0,67.0,126.0,100.0
5.0,71.0,127.0,120.0
5.0,69.0,111.0,0.0
5.0,67.0,106.0,20.0
5.0,66.0,104.0,84.0
5.0,67.0,111.0,32.0
5.0,72.0,113.0,32.0
5.0,71.0,109.0,96.0
5.0,69.0,111.0,16.0
5.0,71.0,123.0,36.0
5.0,67.0,111.0,120.0
5.0,64.0,115.0,132.0
5.0,66.0,117.0,56.0
5.0,66.0,121.0,64.0
5.0,67.0,109.0,64.0
5.0,67.0,117.0,56.0
0.0,0.0,0.0,0.0
0.0,0.0,0.0,0.0
0.0,0.0,0.0,0.0
0.0,0.0,0.0,0.0
0.0,0.0,0.0,0.0
0.0,0.0,0.0,0.0
0.0,0.0,0.0,0.0
0.0,0.0,0.0,0.0
0.0,0.0,0.0,0.0
0.0,0.0,0.0,0.0
0.0,0.0,0.0,0.0
0.0,0.0,0.0,0.0
0.0,0.0,0.0,0.0
0.0,0.0,0.0,0.0
0.0,0.0,0.0,0.0
0.0,0.0,0.0,0.0
0.0,0.0,0.0,0.0
0.0,0.0,0.0,0.0
0.0,0.0,0.0,0.0
0.0,0.0,0.0,0.0
0.0,0.0,0.0,0.0
0.0,0.0,0.0,0.0
0.0,0.0,0.0,0.0
0.0,0.0,0.0,0.0
0.0,0.0,0.0,0.0
0.0,0.0,0.0,0.0
0.0,0.0,0.0,0.0
0.0,0.0,0.0,0.0
0.0,0.0,0.0,0.0
0.0,0.0,0.0,0.0
0.0,0.0,0.0,0.0
0.0,0.0,0.0,0.0
0.0,0.0,0.0,0.0
0.0,0.0,0.0,0.0
0.0,0.0,0.0,0.0
0.0,0.0,0.0,0.0
0.0,0.0,0.0,0.0
0.0,0.0,0.0,0.0
0.0,0.0,0.0,0.0
0.0,0.0,0.0,0.0
0.0,0.0,0.0,0.0
0.0,0.0,0.0,0.0
0.0,0.0,0.0,0.0
0.0,0.0,0.0,0.0
0.0,0.0,0.0,0.0
0.0,0.0,0.0,0.0
0.0,0.0,0.0,0.0
0.0,0.0,0.0,0.0
0.0,0.0,0.0,0.0
0.0,0.0,0.0,0.0
0.0,0.0,0.0,0.0
0.0,0.0,0.0,0.0
0.0,0.0,0.0,0.0
0.0,0.0,0.0,0.0
0.0,0.0,0.0,0.0
0.0,0.0,0.0,0.0
0.0,0.0,0.0,0.0
0.0,0.0,0.0,0.0
0.0,0.0,0.0,0.0
0.0,0.0,0.0,0.0
0.0,0.0,0.0,0.0
0.0,0.0,0.0,0.0
0.0,0.0,0.0,0.0
0.0,0.0,0.0,0.0
0.0,0.0,0.0,0.0
0.0,0.0,0.0,0.0
0.0,0.0,0.0,0.0
0.0,0.0,0.0,0.0
0.0,0.0,0.0,0.0
0.0,0.0,0.0,0.0
0.0,0.0,0.0,0.0
0.0,0.0,0.0,0.0
0.0,0.0,0.0,0.0
0.0,0.0,0.0,0.0
0.0,0.0,0.0,0.0
0.0,0.0,0.0,0.0
0.0,0.0,0.0,0.0
0.0,0.0,0.0,0.0
0.0,0.0,0.0,0.0
0.0,0.0,0.0,0.0
0.0,0.0,0.0,0.0
0.0,0.0,0.0,0.0
0.0,0.0,0.0,0.0
0.0,0.0,0.0,0.0
0.0,0.0,0.0,0.0
0.0,0.0,0.0,0.0
0.0,0.0,0.0,0.0
0.0,0.0,0.0,0.0
0.0,0.0,0.0,0.0
0.0,0.0,0.0,0.0
0.0,0.0,0.0,0.0
0.0,0.0,0.0,0.0
0.0,0.0,0.0,0.0
0.0,0.0,0.0,0.0
0.0,0.0,0.0,0.0
0.0,0.0,0.0,0.0
0.0,0.0,0.0,0.0
0.0,0.0,0.0,0.0
0.0,0.0,0.0,0.0
0.0,0.0,0.0,0.0
0.0,0.0,0.0,0.0
0.0,0.0,0.0,0.0
0.0,0.0,0.0,0.0
0.0,0.0,0.0,0.0
0.0,0.0,0.0,0.0
0.0,0.0,0.0,0.0
0.0,0.0,0.0,0.0
0.0,0.0,0.0,0.0
0.0,0.0,0.0,0.0
0.0,0.0,0.0,0.0
0.0,0.0,0.0,0.0
0.0,0.0,0.0,0.0
0.0,0.0,0.0,0.0
0.0,0.0,0.0,0.0
0.0,0.0,0.0,0.0
0.0,0.0,0.0,0.0
0.0,0.0,0.0,0.0
0.0,0.0,0.0,0.0
0.0,0.0,0.0,0.0
0.0,0.0,0.0,0.0
0.0,0.0,0.0,0.0
0.0,0.0,0.0,0.0
0.0,0.0,0.0,0.0
0.0,0.0,0.0,0.0
0.0,0.0,0.0,0.0
0.0,0.0,0.0,0.0
0.0,0.0,0.0,0.0
0.0,0.0,0.0,0.0
0.0,0.0,0.0,0.0
0.0,0.0,0.0,0.0
0.0,0.0,0.0,0.0
0.0,0.0,0.0,0.0
0.0,0.0,0.0,0.0
0.0,0.0,0.0,0.0
0.0,0.0,0.0,0.0
0.0,0.0,0.0,0.0
0.0,0.0,0.0,0.0
0.0,0.0,0.0,0.0
0.0,0.0,0.0,0.0
0.0,0.0,0.0,0.0
0.0,0.0,0.0,0.0
0.0,0.0,0.0,0.0
0.0,0.0,0.0,0.0
0.0,0.0,0.0,0.0
0.0,0.0,0.0,0.0
0.0,0.0,0.0,0.0
0.0,0.0,0.0,0.0
0.0,0.0,0.0,0.0
0.0,0.0,0.0,0.0
0.0,0.0,0.0,0.0
0.0,0.0,0.0,0.0
0.0,0.0,0.0,0.0
0.0,0.0,0.0,0.0
0.0,0.0,0.0,0.0
0.0,0.0,0.0,0.0
0.0,0.0,0.0,0.0
0.0,0.0,0.0,0.0
0.0,0.0,0.0,0.0
0.0,0.0,0.0,0.0
0.0,0.0,0.0,0.0
0.0,0.0,0.0,0.0
0.0,0.0,0.0,0.0
0.0,0.0,0.0,0.0
0.0,0.0,0.0,0.0
0.0,0.0,0.0,0.0
0.0,0.0,0.0,0.0
0.0,0.0,0.0,0.0
0.0,0.0,0.0,0.0
0.0,0.0,0.0,0.0
0.0,0.0,0.0,0.0
0.0,0.0,0.0,0.0
0.0,0.0,0.0,0.0
0.0,0.0,0.0,0.0
0.0,0.0,0.0,0.0
0.0,0.0,0.0,0.0
0.0,0.0,0.0,0.0
0.0,0.0,0.0,0.0
0.0,0.0,0.0,0.0
0.0,0.0,0.0,0.0
0.0,0.0,0.0,0.0
0.0,0.0,0.0,0.0
0.0,0.0,0.0,0.0
0.0,0.0,0.0,0.0
0.0,0.0,0.0,0.0
0.0,0.0,0.0,0.0
0.0,0.0,0.0,0.0
0.0,0.0,0.0,0.0
0.0,0.0,0.0,0.0
0.0,0.0,0.0,0.0
0.0,0.0,0.0,0.0
