track,note,velocity,time
1,52,49,384
1,76,64,160
1,54,46,136
1,75,59,114
1,56,55,102
1,74,62,118
1,57,59,2
1,73,50,154
1,59,46,100
1,71,46,144
1,61,40,0
1,69,54,6
1,63,52,156
1,68,59,146
1,64,65,20
1,63,54,144
1,66,59,2
1,61,66,140
1,68,65,4
1,59,52,22
1,69,67,32
1,68,65,46
1,64,66,28
1,71,44,20
1,69,68,12
1,71,42,70
1,52,50,10
1,68,55,4
1,66,56,18
1,68,62,42
1,64,50,8
1,63,59,8
1,64,53,18
1,52,50,184
1,66,65,142
1,51,60,28
1,68,70,154
1,50,65,102
1,69,75,154
1,49,66,136
1,71,62,136
1,47,44,130
1,73,62,126
1,45,62,8
1,75,73,172
1,44,54,116
1,76,77,174
1,42,52,4
1,75,66,2
1,73,69,140
1,44,57,118
1,71,47,10
1,45,53,20
1,44,55,0
1,76,62,10
1,47,40,8
1,45,70,18
1,64,53,12
1,47,41,16
1,44,58,16
1,42,53,20
1,44,56,52
1,40,60,22
1,39,75,28
1,40,75,80
1,80,75,170
1,49,75,40
1,76,88,156
1,52,84,4
1,73,73,36
1,54,69,24
1,76,41,80
1,75,75,34
1,58,68,12
1,76,74,2
1,73,68,170
1,70,73,40
1,61,53,6
1,66,50,10
1,39,65,84
1,78,77,8
1,47,39,16
1,75,57,178
1,51,46,114
1,71,36,44
1,52,60,2
1,75,50,68
1,73,58,22
1,75,41,16
1,56,47,12
1,71,46,10
1,68,46,36
1,59,31,20
1,64,47,2
1,37,46,152
1,76,71,64
1,49,41,2
1,73,64,174
1,52,58,72
1,70,71,34
1,54,76,108
1,80,84,168
1,56,67,132
1,78,84,128
1,58,83,96
1,76,90,130
1,59,66,6
1,75,60,160
1,52,54,122
1,73,59,22
1,56,45,112
1,71,41,14
1,70,80,8
1,54,46,4
1,64,60,10
1,61,55,2
1,63,68,2
1,64,77,40
1,58,83,28
1,70,74,112
1,61,64,10
1,68,73,4
1,70,84,62
1,52,79,28
1,71,69,66
1,61,61,14
1,70,83,2
1,71,73,12
1,51,65,16
1,63,79,42
1,61,68,30
1,52,51,16
1,71,52,44
1,54,43,10
1,61,68,10
1,70,64,2
1,47,45,104
1,71,44,2
1,59,62,94
1,58,91,26
1,59,78,10
1,54,82,94
1,71,65,18
1,52,83,54
1,54,76,30
1,75,83,10
1,51,81,90
1,78,80,18
1,49,81,14
1,51,100,2
1,83,87,2
1,54,77,122
1,52,88,16
1,54,83,22
1,51,86,118
1,83,71,16
1,49,80,0
1,51,84,26
1,78,79,4
1,47,58,126
1,75,72,8
1,46,88,14
1,47,51,4
1,71,76,6
1,66,83,92
1,63,92,104
1,59,88,120
1,35,90,138
1,52,42,496
1,76,54,190
1,54,43,148
1,75,51,142
1,56,42,114
1,74,56,130
1,57,57,90
1,73,61,158
1,59,50,2
1,71,49,176
1,61,38,118
1,69,53,122
1,63,41,130
1,68,59,142
1,64,61,2
1,66,61,164
1,63,65,12
1,61,69,24
1,68,67,30
1,59,49,4
1,69,46,10
1,68,56,4
1,64,68,20
1,71,50,16
1,69,67,16
1,52,51,10
1,71,36,10
1,68,54,42
1,66,47,30
1,68,55,50
1,64,52,8
1,63,47,12
1,64,50,24
1,52,45,192
1,66,57,160
1,51,48,2
1,68,78,166
1,50,63,96
1,69,84,152
1,49,70,106
1,71,71,146
1,47,67,0
1,73,75,162
1,45,81,120
1,75,76,162
1,44,74,114
1,76,91,176
1,42,65,128
1,75,79,6
1,73,82,138
1,44,73,140
1,71,62,10
1,45,80,74
1,76,79,0
1,44,76,4
1,47,60,18
1,45,78,28
1,64,63,48
1,47,52,22
1,44,64,96
1,42,62,20
1,44,62,60
1,40,45,116
1,39,72,12
1,40,70,50
1,80,71,192
1,49,60,58
1,76,82,174
1,52,70,98
1,73,75,142
1,54,85,150
1,76,81,164
1,75,84,22
1,76,88,80
1,58,83,6
1,73,81,144
1,70,77,54
1,61,53,14
1,66,59,34
1,39,52,168
1,78,59,6
1,47,41,2
1,75,47,192
1,51,44,128
1,71,44,46
1,52,61,4
1,75,57,4
1,73,61,18
1,75,41,12
1,56,40,12
1,71,46,8
1,59,37,32
1,68,42,4
1,64,51,36
1,37,57,150
1,76,80,52
1,49,62,104
1,73,77,160
1,52,79,142
1,70,88,146
1,54,70,126
1,80,84,178
1,56,66,136
1,78,73,152
1,58,67,118
1,76,77,158
1,59,50,24
1,75,55,168
1,52,49,136
1,73,59,4
1,56,47,110
1,71,39,12
1,70,79,10
1,54,34,2
1,61,47,30
1,64,69,0
1,63,64,0
1,64,74,10
1,58,75,6
1,70,77,126
1,61,63,12
1,68,73,2
1,70,90,80
1,52,73,8
1,71,67,74
1,61,55,22
1,70,87,2
1,71,73,30
1,51,66,18
1,63,78,18
1,61,79,4
1,52,70,4
1,71,66,12
1,54,60,16
1,61,72,0
1,70,73,8
1,71,67,96
1,47,72,8
1,59,51,90
1,58,98,12
1,59,66,36
1,54,84,74
1,71,69,22
1,52,72,18
1,54,76,34
1,75,83,2
1,51,75,12
1,78,79,12
1,49,81,62
1,51,84,8
1,83,84,10
1,54,70,114
1,52,87,24
1,54,89,42
1,51,84,122
1,83,87,6
1,49,84,24
1,51,88,48
1,78,90,2
1,47,65,48
1,75,78,2
1,46,98,16
1,71,88,20
1,47,76,8
1,66,89,98
1,63,90,56
1,59,86,128
1,35,78,140
1,59,45,158
1,59,43,86
1,61,56,118
1,58,51,4
1,63,56,160
1,57,45,12
1,64,58,162
1,56,40,6
1,66,61,160
1,54,59,148
1,68,78,152
1,52,75,66
1,70,85,172
1,51,75,108
1,71,73,176
1,49,63,0
1,70,83,6
1,68,81,132
1,51,63,142
1,66,75,6
1,52,64,26
1,71,66,16
1,51,76,12
1,54,62,92
1,52,68,30
1,59,54,34
1,54,62,14
1,51,64,118
1,49,63,20
1,51,53,14
1,47,60,120
1,46,80,20
1,47,40,32
1,83,47,230
1,49,42,160
1,82,68,168
1,51,47,130
1,81,71,124
1,52,57,136
1,80,73,154
1,54,52,104
1,78,61,168
1,56,48,68
1,76,65,154
1,58,57,8
1,75,66,162
1,59,55,12
1,58,71,2
1,73,75,0
1,56,67,104
1,75,65,40
1,54,59,4
1,76,79,2
1,59,65,34
1,75,75,8
1,78,56,26
1,76,80,4
1,47,44,32
1,78,52,6
1,75,55,60
1,73,54,24
1,75,56,16
1,71,48,2
1,70,67,16
1,56,58,20
1,71,46,26
1,75,59,52
1,73,67,12
1,59,39,94
1,75,67,10
1,80,65,60
1,79,68,34
1,80,73,22
1,63,47,6
1,73,55,22
1,71,55,26
1,73,71,16
1,55,55,0
1,76,75,34
1,75,81,12
1,76,81,34
1,58,66,10
1,82,79,20
1,80,84,58
1,82,94,92
1,63,54,6
1,75,75,0
1,73,76,0
1,56,63,98
1,75,78,2
1,80,83,42
1,79,85,72
1,59,52,46
1,80,88,4
1,83,68,20
1,82,88,74
1,83,71,62
1,63,49,10
1,75,53,20
1,74,62,26
1,75,56,26
1,51,55,6
1,82,71,26
1,80,67,20
1,63,58,64
1,82,76,16
1,79,69,28
1,77,70,34
1,79,68,36
1,61,44,10
1,75,57,96
1,74,54,18
1,75,52,32
1,60,39,30
1,81,73,6
1,61,41,2
1,80,76,158
1,63,54,64
1,78,66,0
1,56,57,4
1,76,74,4
1,75,75,76
1,76,87,64
1,61,54,16
1,73,70,28
1,72,72,72
1,73,69,68
1,59,44,16
1,76,68,8
1,75,64,10
1,58,51,10
1,76,60,2
1,80,78,182
1,59,41,142
1,78,67,174
1,61,52,46
1,76,78,38
1,54,44,170
1,75,60,44
1,73,67,14
1,75,62,80
1,59,33,18
1,71,49,10
1,70,71,8
1,71,45,26
1,63,45,14
1,73,52,48
1,71,36,18
1,73,54,16
1,55,36,16
1,76,72,18
1,56,55,144
1,75,67,146
1,58,73,6
1,73,79,174
1,51,64,90
1,71,59,16
1,70,83,18
1,71,69,82
1,56,54,14
1,68,66,160
1,67,66,12
1,68,60,64
1,59,41,30
1,69,62,20
1,68,64,2
1,69,64,94
1,49,58,16
1,73,72,180
1,71,64,4
1,73,81,72
1,69,77,0
1,68,81,58
1,61,91,72
1,69,77,18
1,76,88,44
1,75,88,66
1,76,95,70
1,67,80,78
1,65,92,14
1,67,95,16
1,58,92,0
1,70,89,66
1,68,86,70
1,70,100,28
1,55,75,4
1,59,69,74
1,58,92,12
1,59,72,2
1,56,77,2
1,68,88,74
1,64,89,0
1,49,79,6
1,61,90,114
1,58,98,62
1,51,76,4
1,67,96,4
1,68,88,100
1,44,81,6
1,63,75,170
1,59,66,10
1,44,59,58
1,56,70,8
1,56,67,0
1,54,48,176
1,64,56,206
1,52,48,12
1,66,60,192
1,51,43,128
1,68,65,118
1,50,45,114
1,69,54,176
1,49,42,156
1,71,52,48
1,47,33,20
1,73,62,136
1,45,49,4
1,75,58,26
1,44,48,100
1,76,73,188
1,75,72,0
1,42,47,2
1,73,74,138
1,44,56,142
1,71,59,4
1,45,61,10
1,44,65,10
1,76,80,4
1,47,62,20
1,45,75,32
1,47,60,36
1,44,65,40
1,71,48,12
1,42,60,16
1,69,52,18
1,44,55,10
1,71,43,8
1,68,62,8
1,40,32,22
1,39,60,6
1,66,60,16
1,68,64,12
1,40,50,6
1,76,80,8
1,42,50,0
1,75,60,174
1,44,44,170
1,74,52,0
1,45,60,168
1,73,58,166
1,47,52,8
1,71,49,176
1,49,42,146
1,69,58,156
1,51,41,126
1,68,65,148
1,52,57,4
1,66,60,158
1,51,60,12
1,49,67,10
1,68,67,24
1,47,50,16
1,69,56,28
1,68,84,20
1,52,63,12
1,71,60,74
1,69,79,6
1,71,65,72
1,68,52,30
1,59,43,18
1,66,53,8
1,57,59,12
1,68,38,12
1,59,38,24
1,56,51,44
1,64,38,10
1,54,66,8
1,63,54,0
1,64,58,16
1,56,44,8
1,61,70,16
1,66,82,148
1,57,75,14
1,69,87,174
1,54,66,2
1,71,79,20
1,57,75,140
1,56,84,24
1,75,83,34
1,57,87,6
1,54,84,110
1,51,85,134
1,78,73,2
1,47,75,2
1,63,75,182
1,59,62,110
1,64,74,176
1,56,55,4
1,68,67,38
1,52,60,62
1,69,70,158
1,56,69,100
1,54,62,18
1,56,69,20
1,73,60,2
1,52,68,136
1,49,57,128
1,76,64,6
1,45,68,8
1,61,60,190
1,57,71,104
1,66,72,174
1,54,56,44
1,69,73,4
1,51,52,24
1,71,70,8
1,61,62,18
1,73,80,180
1,59,57,20
1,75,83,160
1,57,83,6
1,76,100,172
1,56,73,110
1,73,93,150
1,54,76,134
1,69,100,140
1,52,85,4
1,78,101,0
1,51,84,4
1,57,80,72
1,56,84,10
1,57,81,88
1,51,86,104
1,49,85,6
1,51,95,78
1,56,87,122
1,54,83,14
1,56,96,16
1,76,97,176
1,75,88,120
1,57,72,4
1,73,88,112
1,71,76,0
1,59,57,4
1,69,82,146
1,68,79,20
1,52,55,16
1,64,68,56
1,63,75,6
1,64,75,36
1,68,71,118
1,64,54,12
1,66,71,4
1,68,81,78
1,59,69,14
1,56,69,78
1,71,69,10
1,69,72,16
1,71,79,74
1,52,80,26
1,68,83,88
1,59,70,12
1,66,86,10
1,68,94,56
1,56,90,6
1,52,85,92
1,71,83,4
1,69,95,12
1,71,91,56
1,47,76,12
1,44,73,120
1,76,100,2
1,75,91,26
1,76,108,72
1,40,61,12
1,71,88,58
1,68,96,92
1,64,102,118
1,52,95,62
1,59,36,322
1,59,30,52
1,61,52,58
1,58,47,176
1,63,57,148
1,57,45,24
1,64,43,168
1,56,36,20
1,66,56,156
1,54,48,0
1,68,64,168
1,52,58,10
1,70,70,190
1,51,48,0
1,71,59,184
1,49,48,150
1,70,80,2
1,68,78,140
1,66,75,144
1,51,53,10
1,52,50,40
1,71,62,0
1,51,75,22
1,54,65,38
1,52,83,20
1,54,70,36
1,59,60,4
1,51,73,84
1,49,54,30
1,51,61,34
1,47,60,36
1,46,75,20
1,47,60,20
1,83,46,230
1,49,45,164
1,82,70,154
1,51,44,6
1,81,59,180
1,52,44,12
1,80,62,156
1,54,50,2
1,78,64,172
1,56,52,62
1,76,71,114
1,58,63,136
1,75,67,154
1,59,46,18
1,73,67,164
1,58,57,2
1,56,66,128
1,54,54,18
1,75,57,0
1,76,76,10
1,59,53,36
1,75,75,4
1,78,69,88
1,76,74,16
1,78,58,34
1,47,41,8
1,75,57,36
1,73,51,24
1,75,60,14
1,71,50,78
1,70,68,12
1,71,51,40
1,56,50,14
1,75,61,58
1,73,70,2
1,75,83,104
1,59,47,6
1,80,76,42
1,79,92,70
1,80,84,76
1,63,52,0
1,73,67,50
1,71,57,16
1,73,78,44
1,55,57,4
1,76,87,72
1,75,79,64
1,76,95,34
1,58,62,6
1,82,92,50
1,80,88,66
1,82,94,60
1,63,52,14
1,75,76,38
1,73,82,4
1,56,61,86
1,75,84,6
1,80,85,22
1,79,92,62
1,80,89,72
1,59,50,14
1,83,81,16
1,82,94,60
1,83,76,80
1,63,65,8
1,75,55,34
1,73,77,4
1,75,60,40
1,51,62,4
1,82,83,44
1,80,72,8
1,63,46,66
1,82,83,20
1,79,70,40
1,77,65,38
1,79,65,28
1,61,43,4
1,75,57,42
1,74,61,30
1,75,57,12
1,60,41,12
1,81,59,8
1,61,40,14
1,80,57,152
1,63,39,104
1,78,57,32
1,56,51,4
1,76,72,4
1,75,50,88
1,61,34,2
1,76,80,6
1,73,63,2
1,72,61,6
1,73,67,70
1,59,43,20
1,76,75,4
1,75,75,70
1,76,80,76
1,58,52,4
1,80,82,18
1,59,37,142
1,78,62,10
1,61,45,60
1,76,66,56
1,54,50,128
1,75,59,26
1,73,61,22
1,75,64,74
1,59,35,42
1,71,49,22
1,70,68,8
1,71,49,10
1,63,33,16
1,73,55,36
1,71,40,42
1,55,44,110
1,73,52,2
1,76,65,26
1,56,52,144
1,75,62,166
1,58,59,6
1,73,68,164
1,51,55,18
1,71,57,12
1,70,76,2
1,71,59,0
1,56,52,18
1,68,63,2
1,67,50,22
1,68,57,72
1,59,44,16
1,69,57,16
1,68,61,18
1,69,64,6
1,49,38,10
1,73,67,196
1,71,65,16
1,73,83,86
1,69,81,18
1,68,82,66
1,61,75,82
1,69,78,14
1,76,83,26
1,75,84,70
1,76,76,90
1,67,72,38
1,65,81,12
1,67,80,4
1,58,70,0
1,70,86,26
1,68,87,78
1,55,60,48
1,70,95,0
1,59,41,42
1,58,95,2
1,59,77,2
1,56,75,4
1,68,89,2
1,64,95,22
1,49,81,2
1,61,90,154
1,51,73,18
1,58,101,0
1,67,95,38
1,68,88,2
1,44,64,10
1,63,83,160
1,59,83,8
1,44,77,2
1,56,73,10
1,56,80,48
1,54,45,172
1,64,59,200
1,52,54,20
1,66,64,168
1,51,52,14
1,68,76,32
1,50,56,64
1,69,68,130
1,49,52,124
1,71,58,12
1,47,47,4
1,73,72,72
1,45,61,10
1,75,62,162
1,44,51,122
1,76,79,192
1,42,55,12
1,75,74,2
1,73,75,158
1,71,57,152
1,44,55,28
1,45,73,0
1,76,73,0
1,44,56,8
1,47,59,126
1,45,81,30
1,47,64,58
1,44,62,102
1,71,50,18
1,42,48,28
1,69,51,6
1,44,59,8
1,71,44,6
1,68,54,14
1,40,55,8
1,39,53,34
1,66,49,4
1,68,62,26
1,40,66,22
1,76,79,14
1,42,57,156
1,75,52,144
1,44,56,0
1,74,52,172
1,45,57,2
1,73,57,184
1,47,43,8
1,71,47,180
1,49,35,144
1,69,56,112
1,51,52,0
1,68,64,170
1,52,61,2
1,66,62,172
1,51,56,6
1,49,66,20
1,68,62,16
1,47,45,6
1,69,61,30
1,52,57,16
1,68,74,4
1,71,42,152
1,69,57,22
1,71,54,74
1,68,65,94
1,59,44,12
1,66,49,30
1,57,47,4
1,68,61,14
1,59,46,10
1,56,48,100
1,64,48,18
1,54,60,6
1,63,47,6
1,56,46,0
1,64,71,8
1,61,67,14
1,66,72,166
1,57,69,152
1,69,82,182
1,54,64,90
