track,note,velocity,time
0,69,95,192
0,81,98,0
0,67,99,8
0,79,101,0
0,69,95,24
0,81,103,0
0,67,97,132
0,79,95,0
0,65,103,44
0,77,96,0
0,64,100,0
0,76,103,0
0,62,103,4
0,74,97,0
0,61,94,40
0,73,98,0
0,62,97,4
0,74,99,0
0,57,98,328
0,69,101,0
0,55,100,4
0,67,99,0
0,57,95,0
0,69,100,0
0,52,100,172
0,64,94,0
0,53,101,8
0,65,97,0
0,49,97,8
0,61,95,0
0,50,101,4
0,62,97,0
0,45,102,536
0,57,99,0
0,43,97,4
0,55,95,0
0,45,99,4
0,57,99,0
0,43,95,100
0,55,95,0
0,41,96,36
0,53,96,0
0,40,103,28
0,52,96,0
0,38,94,0
0,50,100,0
0,37,101,40
0,49,96,0
0,38,99,16
0,50,98,0
0,38,101,624
0,49,100,548
0,52,96,200
0,55,100,148
0,58,100,160
0,61,101,176
0,64,94,220
0,50,95,8
0,62,102,0
0,57,101,4
0,52,103,132
0,54,98,20
0,49,95,1352
0,61,102,0
0,50,103,0
0,62,95,0
0,52,101,0
0,64,98,0
0,49,96,0
0,61,103,0
0,50,103,0
0,62,95,0
0,52,99,0
0,64,96,0
0,49,98,0
0,61,100,0
0,50,102,0
0,62,96,0
0,52,100,0
0,64,94,0
0,49,97,0
0,61,98,0
0,50,103,0
0,62,97,0
0,52,99,32
0,64,102,0
0,53,96,32
0,65,100,0
0,55,103,0
0,67,102,0
0,52,103,0
0,64,97,0
0,53,94,0
0,65,97,0
0,55,97,0
0,67,97,0
0,52,101,0
0,64,102,0
0,53,98,0
0,65,96,0
0,55,94,0
0,67,101,0
0,52,98,0
0,64,96,0
0,53,100,0
0,65,98,0
0,55,97,32
0,67,103,0
0,57,100,32
0,69,103,0
0,58,99,0
0,70,99,0
0,55,101,0
0,67,96,0
0,57,94,0
0,69,99,0
0,58,94,0
0,70,96,0
0,55,100,0
0,67,94,0
0,57,98,8
0,69,94,0
0,58,102,16
0,70,95,0
0,55,97,12
0,67,101,0
0,57,103,4
0,69,96,0
0,61,101,240
0,73,101,0
0,62,95,0
0,74,99,0
0,64,102,0
0,76,96,0
0,61,95,0
0,73,99,0
0,62,102,0
0,74,96,0
0,64,96,0
0,76,101,0
0,61,95,0
0,73,96,0
0,62,97,0
0,74,101,0
0,64,100,0
0,76,97,0
0,61,101,0
0,73,95,0
0,62,99,0
0,74,97,0
0,64,102,12
0,76,96,0
0,65,97,12
0,77,94,0
0,67,97,0
0,79,99,0
0,64,94,0
0,76,100,0
0,65,103,0
0,77,95,0
0,67,103,0
0,79,100,0
0,64,99,0
0,76,95,0
0,65,96,0
0,77,99,0
0,67,94,0
0,79,102,0
0,64,102,0
0,76,101,0
0,65,100,0
0,77,96,0
0,67,97,16
0,79,94,0
0,69,102,8
0,81,102,0
0,70,98,0
0,82,94,0
0,67,100,0
0,79,101,0
0,69,95,0
0,81,100,0
0,70,102,0
0,82,102,0
0,67,98,0
0,79,97,0
0,69,102,8
0,81,100,0
0,70,97,16
0,82,95,0
0,67,101,12
0,79,99,0
0,69,102,4
0,81,97,0
0,69,94,240
0,81,96,0
0,67,102,0
0,79,100,0
0,70,97,0
0,82,97,0
0,64,100,0
0,76,102,0
0,67,95,0
0,79,98,0
0,70,102,0
0,82,102,0
0,64,97,0
0,76,97,0
0,65,94,0
0,77,97,0
0,69,103,0
0,81,99,0
0,62,100,0
0,74,98,0
0,65,100,0
0,77,103,0
0,69,97,0
0,81,96,0
0,62,102,0
0,74,96,0
0,64,98,0
0,76,98,0
0,67,101,0
0,79,99,0
0,60,100,0
0,72,96,0
0,64,101,0
0,76,97,0
0,67,103,0
0,79,95,0
0,60,102,0
0,72,94,0
0,62,98,0
0,74,96,0
0,65,101,0
0,77,102,0
0,58,96,0
0,70,96,0
0,62,95,0
0,74,94,0
0,65,103,0
0,77,94,0
0,58,103,0
0,70,102,0
0,60,101,0
0,72,101,0
0,64,103,0
0,76,98,0
0,57,98,0
0,69,101,0
0,60,94,0
0,72,102,0
0,64,95,0
0,76,94,0
0,57,95,0
0,69,103,0
0,58,99,0
0,70,98,0
0,62,101,0
0,74,96,0
0,55,98,0
0,67,98,0
0,58,103,0
0,70,101,0
0,62,102,0
0,74,97,0
0,55,97,0
0,67,103,0
0,57,100,0
0,69,94,0
0,60,96,0
0,72,102,0
0,53,100,0
0,65,102,0
0,57,95,0
0,69,97,0
0,60,102,0
0,72,97,0
0,53,94,0
0,65,95,0
0,55,101,0
0,67,99,0
0,58,97,0
0,70,101,0
0,52,94,0
0,64,100,0
0,55,100,0
0,67,98,0
0,58,95,0
0,70,95,0
0,52,100,0
0,64,101,0
0,53,96,0
0,65,101,0
0,57,94,0
0,69,95,0
0,50,98,0
0,62,95,0
0,53,99,0
0,65,102,0
0,57,103,0
0,69,97,0
0,50,97,0
0,62,94,0
0,52,97,0
0,64,94,0
0,55,97,0
0,67,100,0
0,49,95,0
0,61,102,0
0,52,94,0
0,64,96,0
0,55,96,0
0,67,96,0
0,49,96,0
0,61,103,0
0,38,101,12
0,49,96,524
0,52,102,128
0,55,95,88
0,58,103,44
0,61,96,32
0,64,97,52
0,67,102,52
0,70,95,60
0,69,103,8
0,67,98,76
0,65,99,36
0,64,98,4
0,62,101,32
0,61,95,20
0,59,97,20
0,61,100,28
0,57,94,8
0,61,102,8
0,64,100,24
0,67,95,4
0,67,100,4
0,65,94,12
0,67,98,4
0,65,96,36
0,67,95,4
0,65,95,0
0,67,94,0
0,65,102,0
0,67,94,0
0,65,103,20
0,67,101,16
0,65,100,16
0,67,97,16
0,65,98,16
0,67,96,16
0,65,103,16
0,67,98,16
0,65,102,0
0,64,96,28
0,38,102,24
0,50,103,0
0,53,101,0
0,57,98,0
0,65,101,0
0,62,95,0
0,69,94,96
0,74,99,0
0,69,94,48
0,76,101,32
0,69,99,24
0,77,103,0
0,69,103,24
0,74,102,0
0,69,95,24
0,76,99,0
0,69,95,24
0,77,101,0
0,69,102,24
0,79,101,0
0,69,101,24
0,76,96,0
0,69,96,24
0,77,97,0
0,69,103,48
0,79,97,24
0,69,99,24
0,81,95,24
0,69,103,24
0,77,100,24
0,69,95,24
0,79,94,0
0,69,103,24
0,81,101,24
0,69,95,24
0,82,94,24
0,69,98,24
0,79,102,24
0,69,97,24
0,81,98,0
0,69,100,24
0,77,100,24
0,69,102,24
0,79,98,24
0,69,98,24
0,76,100,24
0,69,97,24
0,77,99,0
0,69,101,24
0,74,95,24
0,69,95,24
0,76,94,24
0,69,94,24
0,73,103,24
0,69,100,24
0,74,102,0
0,69,94,48
0,69,101,24
0,69,102,24
0,70,94,24
0,69,95,24
0,67,95,24
0,69,99,24
0,69,98,0
0,69,101,24
0,65,98,24
0,69,96,24
0,67,97,24
0,69,95,24
0,64,98,24
0,69,97,24
0,65,102,0
0,69,95,24
0,62,94,24
0,69,98,24
0,67,97,24
0,69,99,24
0,64,103,24
0,69,99,24
0,65,99,0
0,69,96,24
0,62,96,24
0,69,103,24
0,64,103,24
0,69,98,24
0,61,99,24
0,69,103,24
0,62,95,0
0,69,101,48
0,57,97,24
0,69,100,24
0,58,94,24
0,69,103,24
0,55,100,24
0,69,96,24
0,57,100,0
0,69,103,24
0,53,95,24
0,69,99,24
0,55,97,24
0,69,99,24
0,52,102,24
0,69,98,24
0,53,102,24
0,69,100,24
0,50,103,24
0,69,94,24
0,55,94,24
0,69,101,24
0,52,101,24
0,69,103,24
0,53,97,24
0,69,97,24
0,50,94,24
0,69,101,24
0,52,97,24
0,69,97,24
0,49,99,24
0,69,98,24
0,50,102,0
0,62,103,96
0,65,95,8
0,70,96,0
0,65,96,0
0,60,96,48
0,64,100,12
0,69,100,0
0,64,95,0
0,58,101,48
0,62,98,16
0,67,103,0
0,62,95,0
0,57,103,0
0,61,102,4
0,62,102,0
0,69,95,0
0,50,103,0
0,62,103,0
0,65,97,52
0,70,97,0
0,48,102,0
0,57,103,0
0,64,97,56
0,69,99,0
0,46,102,0
0,58,100,0
0,62,103,68
0,67,94,0
0,45,100,0
0,52,96,0
0,69,94,0
0,61,101,0
0,64,97,0
0,62,97,0
0,65,102,8
0,70,96,0
0,65,98,0
0,60,95,48
0,64,102,12
0,69,99,0
0,64,98,0
0,58,101,48
0,62,101,16
0,67,100,0
0,62,101,0
0,57,97,0
0,61,102,4
0,62,96,0
0,69,98,0
0,50,95,0
0,62,95,0
0,65,96,52
0,70,98,0
0,48,96,0
0,57,99,0
0,64,101,56
0,69,103,0
0,46,101,0
0,58,99,0
0,62,96,68
0,67,94,0
0,45,98,0
0,52,99,0
0,64,97,0
0,61,94,0
0,69,101,0
0,67,96,8
0,65,101,0
0,64,95,60
0,62,100,48
0,61,94,48
0,59,102,8
0,61,94,16
0,57,97,12
0,59,100,12
0,61,99,16
0,62,100,24
0,64,96,24
0,65,98,28
0,67,103,24
0,69,98,20
0,67,97,28
0,65,99,20
0,64,98,8
0,65,102,12
0,62,103,16
0,65,100,36
0,69,100,36
0,73,98,40
0,74,101,0
0,69,98,4
0,71,97,48
0,73,99,32
0,74,95,4
0,76,103,44
0,77,99,32
0,79,98,20
0,81,95,24
0,82,99,36
0,50,95,0
0,74,94,0
0,77,101,0
0,82,101,0
0,48,96,0
0,69,97,0
0,76,103,0
0,81,103,0
0,46,99,0
0,70,98,0
0,74,101,0
0,79,97,0
0,45,95,28
0,64,101,0
0,76,94,0
0,81,102,0
0,73,100,0
0,74,101,0
0,77,103,40
0,82,97,0
0,77,100,0
0,72,97,0
0,76,94,0
0,81,95,0
0,76,102,0
0,70,98,96
0,74,101,0
0,79,100,0
0,74,95,0
0,69,100,96
0,73,102,0
0,76,101,0
0,81,98,0
0,50,98,0
0,74,95,0
0,82,98,0
0,77,100,0
0,48,97,0
0,69,101,0
0,76,95,0
0,81,100,0
0,46,101,0
0,70,97,0
0,74,103,0
0,79,96,0
0,45,96,0
0,64,98,0
0,81,103,0
0,76,99,0
0,73,100,0
0,44,97,0
0,62,103,0
0,59,98,0
0,71,101,0
0,65,102,0
0,43,101,0
0,57,95,0
0,64,101,0
0,73,100,0
0,69,103,0
0,71,98,12
0,69,95,4
0,73,102,56
0,76,99,132
0,79,94,24
0,82,97,28
0,81,94,180
0,79,103,4
0,77,101,4
0,76,94,0
0,77,102,40
0,76,94,20
0,74,98,4
0,73,100,0
0,74,101,0
0,72,101,0
0,70,101,0
0,69,101,0
0,67,103,24
0,65,97,0
0,64,103,0
0,62,94,0
0,43,101,4
0,64,102,0
0,67,97,0
0,61,99,0
0,76,103,0
0,73,94,0
0,70,102,0
0,67,94,8
0,76,103,0
0,64,94,0
0,73,99,0
0,61,102,0
0,71,99,0
0,64,96,0
0,73,101,0
0,61,94,0
0,71,98,0
0,64,102,0
0,73,103,0
0,67,100,0
0,76,103,0
0,64,95,0
0,73,97,0
0,61,95,0
0,71,94,0
0,64,98,0
0,73,97,0
0,61,95,0
0,71,94,0
0,64,101,0
0,73,94,0
0,67,97,0
0,76,100,0
0,64,96,0
0,73,99,0
0,61,94,0
0,71,94,0
0,64,99,0
0,73,96,0
0,61,95,0
0,71,101,0
0,64,103,0
0,73,96,0
0,67,95,0
0,76,102,0
0,64,99,0
0,73,98,0
0,61,100,0
0,71,103,0
0,64,101,0
0,73,97,0
0,61,98,0
0,71,100,0
0,58,96,0
0,67,100,0
0,61,100,0
0,70,98,0
0,58,100,0
0,67,96,0
0,55,97,0
0,64,103,0
0,58,99,0
0,67,100,0
0,55,97,0
0,64,94,0
0,58,97,0
0,67,95,0
0,61,98,0
0,70,102,0
0,58,99,0
0,67,101,0
0,55,95,0
0,64,101,0
0,58,101,0
0,67,94,0
0,55,96,0
0,64,97,0
0,58,102,0
0,67,102,0
0,61,96,0
0,70,99,0
0,58,100,0
0,67,101,0
0,55,101,0
0,64,102,0
0,58,97,0
0,67,100,0
0,55,103,0
0,64,98,0
0,58,101,0
0,67,95,0
0,61,102,0
0,70,97,0
0,58,100,0
0,67,96,0
0,55,102,0
0,64,95,0
0,58,99,0
0,67,97,0
0,55,94,0
0,64,100,0
0,52,99,0
0,61,99,0
0,55,99,0
0,64,102,0
0,52,95,0
0,61,96,0
0,49,94,0
0,58,97,0
0,52,103,0
0,61,99,0
0,49,98,0
0,58,100,0
0,52,98,0
0,61,101,0
0,55,103,0
0,64,95,0
0,52,101,0
0,61,98,0
0,49,102,0
0,58,97,0
0,52,101,0
0,61,98,0
0,49,98,0
0,58,94,0
0,52,96,0
0,61,97,0
0,55,99,0
0,64,102,0
0,52,94,0
0,61,97,0
0,49,103,0
0,58,96,0
0,52,98,0
0,61,98,0
0,49,94,0
0,58,100,0
0,52,98,0
0,61,95,0
0,55,96,0
0,64,94,0
0,52,98,0
0,61,101,0
0,49,100,0
0,58,99,0
0,52,100,0
0,61,97,0
0,49,102,0
0,58,101,0
0,52,101,0
0,61,101,0
0,55,101,0
0,64,103,0
0,52,97,0
0,61,95,0
0,55,99,0
0,64,97,0
0,58,95,0
0,67,94,0
0,55,100,0
0,64,101,0
0,52,101,0
0,61,96,0
0,55,94,0
0,64,97,0
0,52,102,0
0,61,96,0
0,55,101,0
0,64,98,0
0,58,99,0
0,67,101,0
0,55,94,0
0,64,95,0
0,52,100,0
0,61,101,0
0,55,95,0
0,64,97,0
0,52,98,0
0,61,99,0
0,55,97,0
0,64,100,0
0,58,98,0
0,67,94,0
0,55,100,0
0,64,94,0
0,52,102,0
0,61,97,0
0,55,98,0
0,64,100,0
0,52,96,0
0,61,98,0
0,55,96,0
0,64,98,0
0,58,96,0
0,67,103,0
0,55,94,0
0,64,97,0
0,52,95,0
0,67,96,0
0,55,101,0
0,70,98,0
0,52,99,0
0,67,101,0
0,55,100,0
0,70,96,0
0,52,98,0
0,67,95,0
0,55,101,0
0,70,102,0
0,58,103,0
0,67,94,0
0,61,103,0
0,70,100,0
0,58,98,0
0,67,101,0
0,61,98,0
0,70,95,0
0,58,99,0
0,67,98,0
0,61,103,0
0,70,101,0
0,64,102,0
0,73,95,0
0,61,94,0
0,70,103,0
0,64,102,0
0,73,102,0
0,61,97,0
0,76,96,0
0,64,98,0
0,73,99,0
0,61,102,0
0,76,98,0
0,64,102,0
0,73,101,0
0,61,102,0
0,76,101,0
0,64,102,0
0,73,101,0
0,61,96,0
0,76,100,0
0,64,102,0
0,73,96,0
0,61,103,0
0,76,97,0
0,55,98,48
0,61,95,0
0,64,101,0
0,57,98,0
0,81,101,0
0,76,98,0
0,69,102,0
0,73,97,0
0,54,97,0
0,66,103,0
0,57,94,0
0,62,102,0
0,81,100,0
0,78,96,0
0,74,98,0
0,69,95,0
0,58,94,0
0,74,95,0
0,79,95,0
0,70,103,0
0,67,100,0
0,62,102,4
0,57,94,36
0,55,97,4
0,64,94,132
0,61,99,8
0,57,97,0
0,81,102,0
0,76,102,0
0,73,97,0
0,69,102,0
0,52,103,392
0,53,97,156
0,50,103,4
0,52,99,8
0,49,97,12
0,50,98,12
0,47,96,128
0,49,102,120
0,45,99,0
0,46,99,0
0,44,97,164
0,45,100,164
0,55,96,0
0,57,97,0
0,64,102,0
0,73,94,0
0,69,102,0
0,53,101,0
0,57,101,0
0,69,94,0
0,74,96,0
0,62,103,0
0,65,99,0
0,50,102,16
0,57,96,0
0,65,99,0
0,62,101,0
0,45,103,48
0,64,101,0
0,62,97,0
0,61,102,4
0,55,95,32
0,38,98,0
0,50,94,0
0,57,100,0
0,55,97,0
0,62,98,0
0,53,103,500
0,52,94,8
0,53,96,20
0,69,101,20
0,67,103,4
0,69,100,4
0,65,94,4
0,69,94,4
0,64,94,4
0,69,100,4
0,62,98,0
0,69,94,0
0,61,102,0
0,69,96,0
0,62,99,0
0,69,103,0
0,64,102,0
0,69,97,0
0,65,96,0
0,69,100,0
0,57,103,0
0,69,101,0
0,59,94,0
0,69,95,0
0,61,97,0
0,69,100,0
0,62,100,0
0,69,99,0
0,61,103,0
0,69,103,0
