track,note,velocity,time
0,76,80,1536
0,91,70,0
0,96,70,0
0,100,70,0
0,76,80,188
0,91,70,0
0,96,70,0
0,100,70,0
0,76,80,286
0,91,70,0
0,96,70,0
0,100,70,0
0,76,80,288
0,91,70,0
0,96,70,0
0,100,70,0
0,77,80,284
0,93,70,0
0,96,70,0
0,101,70,0
0,77,80,286
0,93,70,0
0,96,70,0
0,101,70,0
0,77,80,286
0,93,70,0
0,96,70,0
0,101,70,0
0,77,80,284
0,93,70,0
0,95,70,0
0,101,70,0
0,76,80,286
0,91,70,0
0,96,70,0
0,100,70,0
0,76,80,284
0,91,70,0
0,96,70,0
0,100,70,0
0,76,80,84
0,91,70,0
0,96,70,0
0,100,70,0
0,76,80,288
0,91,70,0
0,96,70,0
0,100,70,0
0,77,80,284
0,93,70,0
0,96,70,0
0,101,70,0
0,77,80,286
0,93,70,0
0,96,70,0
0,101,70,0
0,40,90,182
0,40,70,36
0,77,80,60
0,93,70,0
0,96,70,0
0,101,70,0
0,40,119,0
0,40,115,28
0,40,114,124
0,77,80,124
0,93,70,0
0,95,70,0
0,101,70,0
0,40,115,0
0,64,111,16
0,48,105,10
0,60,75,114
0,64,75,0
0,36,93,0
0,36,101,0
0,42,78,0
0,31,95,2
0,60,80,16
0,64,80,0
0,67,80,0
0,36,94,0
0,40,117,0
0,42,85,0
0,55,109,166
0,64,109,40
0,36,95,0
0,36,106,0
0,42,84,0
0,62,109,20
0,64,108,18
0,60,80,0
0,64,80,0
0,67,80,0
0,36,94,0
0,40,115,0
0,42,83,0
0,62,106,48
0,65,75,0
0,69,75,0
0,72,75,0
0,31,95,0
0,36,95,20
0,36,106,0
0,42,80,0
0,60,80,110
0,65,80,0
0,69,80,0
0,36,92,0
0,40,117,0
0,42,77,0
0,55,108,38
0,31,92,0
0,62,105,4
0,36,91,0
0,36,101,0
0,42,80,0
0,60,107,64
0,62,109,10
0,60,80,0
0,65,80,0
0,69,80,0
0,36,91,0
0,40,118,0
0,42,85,0
0,60,107,4
0,64,75,96
0,67,75,0
0,72,75,0
0,36,95,0
0,36,103,0
0,42,85,0
0,55,106,34
0,31,93,0
0,60,80,28
0,64,80,0
0,67,80,0
0,36,92,0
0,40,113,0
0,42,80,0
0,36,92,12
0,36,102,0
0,42,82,0
0,31,92,36
0,60,80,2
0,64,80,0
0,67,80,0
0,36,94,0
0,40,118,0
0,42,83,0
0,57,106,22
0,65,75,0
0,69,75,0
0,72,75,0
0,36,92,22
0,36,103,0
0,42,84,0
0,31,93,14
0,60,80,18
0,65,80,0
0,69,80,0
0,36,95,0
0,40,114,0
0,42,80,0
0,36,95,100
0,36,108,0
0,42,79,0
0,60,80,112
0,65,80,0
0,69,80,0
0,36,95,0
0,40,119,0
0,42,85,0
0,31,92,16
0,64,75,16
0,67,75,0
0,72,75,0
0,36,95,0
0,36,108,0
0,42,84,0
0,60,80,110
0,64,80,0
0,67,80,0
0,36,93,0
0,40,113,0
0,42,81,0
0,64,108,164
0,64,106,64
0,36,90,0
0,36,101,0
0,42,84,0
0,62,109,16
0,31,92,0
0,64,108,2
0,60,80,0
0,64,80,0
0,67,80,0
0,36,95,0
0,40,111,0
0,42,77,0
0,65,108,18
0,65,75,0
0,69,75,0
0,72,75,0
0,36,93,10
0,36,105,0
0,42,84,0
0,60,80,124
0,65,80,0
0,69,80,0
0,36,92,0
0,40,119,0
0,42,79,0
0,64,107,4
0,31,95,0
0,65,106,20
0,36,94,0
0,36,102,0
0,42,78,0
0,64,106,2
0,62,109,2
0,60,105,6
0,64,108,20
0,60,80,0
0,65,80,0
0,69,80,0
0,36,92,0
0,40,111,0
0,42,77,0
0,64,107,14
0,62,108,2
0,65,75,0
0,70,75,0
0,74,75,0
0,34,90,0
0,36,104,0
0,42,82,0
0,41,92,2
0,62,80,8
0,65,80,0
0,70,80,0
0,46,94,0
0,40,119,0
0,42,78,0
0,41,91,0
0,34,93,52
0,36,108,0
0,42,81,0
0,41,93,38
0,62,80,6
0,65,80,0
0,70,80,0
0,46,93,0
0,40,115,0
0,42,81,0
0,41,91,28
0,60,108,40
0,34,90,0
0,62,107,6
0,67,75,0
0,72,75,0
0,43,94,0
0,36,109,0
0,42,78,0
0,38,95,40
0,60,108,16
0,91,85,2
0,59,109,0
0,62,80,0
0,67,80,0
0,72,80,0
0,43,93,0
0,40,111,0
0,42,80,0
0,88,59,8
0,86,59,2
0,83,59,8
0,81,59,8
0,79,59,0
0,38,90,16
0,76,59,8
0,74,59,8
0,71,85,8
0,67,75,0
0,71,75,0
0,31,91,0
0,36,109,0
0,42,83,0
0,69,59,8
0,67,59,8
0,64,59,8
0,62,59,8
0,59,59,0
0,38,91,16
0,40,113,0
0,57,59,8
0,55,59,8
0,52,85,8
0,62,80,0
0,67,80,0
0,71,80,0
0,43,93,0
0,40,116,0
0,50,59,8
0,47,59,2
0,40,118,32
0,45,59,8
0,43,59,8
0,40,59,0
0,38,94,16
0,48,115,0
0,38,59,8
0,67,90,28
0,74,90,0
0,67,75,0
0,39,99,0
0,36,101,0
0,42,79,0
0,62,80,46
0,67,80,0
0,70,80,0
0,40,112,0
0,42,77,0
0,67,110,162
0,58,103,0
0,45,97,0
0,67,105,2
0,67,96,0
0,46,97,0
0,36,103,0
0,42,84,0
0,65,90,12
0,72,90,0
0,70,95,0
0,43,99,0
0,67,107,32
0,67,90,2
0,74,90,0
0,62,80,0
0,67,80,0
0,70,80,0
0,34,98,0
0,40,111,0
0,42,78,0
0,68,90,6
0,75,90,0
0,68,109,0
0,68,100,0
0,68,75,0
0,39,98,30
0,36,104,0
0,42,84,0
0,67,108,54
0,60,80,54
0,63,80,0
0,68,80,0
0,40,115,0
0,42,80,0
0,65,108,70
0,45,97,0
0,46,95,2
0,36,109,0
0,42,83,0
0,43,96,24
0,60,80,12
0,63,80,0
0,68,80,0
0,34,99,0
0,40,113,0
0,42,83,0
0,67,90,130
0,74,90,0
0,67,75,0
0,39,97,0
0,36,106,0
0,42,78,0
0,62,80,66
0,67,80,0
0,70,80,0
0,40,112,0
0,42,84,0
0,58,105,162
0,58,103,0
0,45,96,0
0,67,107,2
0,67,98,0
0,46,96,0
0,36,106,0
0,42,82,0
0,65,90,12
0,72,90,0
0,70,99,0
0,43,96,0
0,67,107,32
0,67,90,2
0,74,90,0
0,62,80,0
0,67,80,0
0,70,80,0
0,34,96,0
0,40,114,0
0,42,83,0
0,68,90,18
0,75,90,0
0,68,109,0
0,68,98,0
0,68,75,0
0,39,98,18
0,36,105,0
0,42,83,0
0,67,106,30
0,60,80,58
0,63,80,0
0,68,80,0
0,40,113,0
0,42,81,0
0,65,109,76
0,45,95,0
0,46,100,2
0,36,102,0
0,42,83,0
0,63,106,2
0,65,108,4
0,43,98,0
0,60,80,30
0,63,80,0
0,68,80,0
0,34,98,0
0,40,115,0
0,42,77,0
0,48,115,32
0,68,90,124
0,77,90,0
0,80,54,0
0,84,54,0
0,68,75,0
0,72,75,0
0,37,96,0
0,36,103,0
0,42,82,0
0,32,95,2
0,65,80,6
0,68,80,0
0,72,80,0
0,37,100,0
0,40,114,0
0,42,84,0
0,65,106,18
0,61,97,0
0,65,103,4
0,36,109,0
0,42,85,0
0,66,90,6
0,75,90,0
0,63,105,0
0,68,96,0
0,32,96,0
0,68,90,2
0,77,90,0
0,65,108,0
0,65,80,0
0,68,80,0
0,72,80,0
0,37,100,0
0,40,117,0
0,42,85,0
0,70,90,40
0,78,90,0
0,63,108,0
0,66,103,0
0,66,75,0
0,70,75,0
0,78,54,8
0,82,54,0
0,30,97,0
0,36,101,0
0,42,77,0
0,37,97,2
0,61,109,20
0,65,102,0
0,61,80,0
0,66,80,0
0,70,80,0
0,42,95,0
0,40,119,0
0,42,77,0
0,65,97,28
0,61,107,32
0,61,106,32
0,63,102,0
0,42,95,0
0,36,102,0
0,42,80,0
0,63,105,2
0,61,97,0
0,37,98,0
0,61,80,2
0,66,80,0
0,70,80,0
0,42,96,0
0,40,117,0
0,42,79,0
0,65,105,14
0,63,100,0
0,70,90,20
0,77,90,0
0,77,54,0
0,82,54,0
0,65,75,0
0,70,75,0
0,41,98,0
0,36,107,0
0,42,78,0
0,36,99,2
0,68,108,2
0,60,80,0
0,65,80,0
0,70,80,0
0,29,96,0
0,40,115,0
0,42,83,0
0,65,105,10
0,33,99,100
0,36,103,0
0,42,83,0
0,36,100,6
0,60,80,18
0,65,80,0
0,70,80,0
0,41,98,0
0,40,111,0
0,42,80,0
0,69,90,18
0,65,94,0
0,65,75,0
0,69,75,0
0,81,54,10
0,41,99,0
0,36,106,0
0,42,81,0
0,65,107,38
0,36,95,0
0,65,109,60
0,60,80,0
0,65,80,0
0,69,80,0
0,29,97,0
0,40,112,0
0,42,85,0
0,36,100,36
0,53,85,6
0,68,106,0
0,41,95,0
0,36,101,0
0,40,118,0
0,55,59,2
0,57,59,4
0,40,111,14
0,60,59,8
0,62,59,8
0,65,59,8
0,70,107,2
0,36,96,0
0,40,118,0
0,67,59,8
0,69,59,8
0,72,75,2
0,70,109,0
0,60,80,0
0,65,80,0
0,69,80,0
0,41,98,0
0,40,119,0
0,74,59,8
0,77,59,2
0,68,106,2
0,79,59,8
0,81,59,8
0,84,59,8
0,65,105,6
0,48,115,0
0,86,59,8
0,89,59,8
0,74,75,0
0,77,75,0
0,34,98,0
0,36,103,0
0,49,105,0
0,46,96,4
0,58,97,40
0,62,99,0
0,65,97,0
0,74,75,0
0,77,75,0
0,62,80,0
0,65,80,0
0,70,80,0
0,34,100,0
0,40,95,0
0,42,79,0
0,46,98,6
0,53,90,14
0,65,90,0
0,65,106,0
0,34,98,0
0,36,107,0
0,40,90,0
0,42,78,0
0,58,90,2
0,70,90,0
0,70,105,0
0,46,97,0
0,62,80,28
0,65,80,0
0,70,80,0
0,34,99,0
0,40,94,0
0,42,84,0
0,60,90,12
0,72,90,0
0,72,105,0
0,56,96,0
0,60,102,0
0,63,94,0
0,72,75,0
0,75,75,0
0,46,100,0
0,34,99,40
0,36,102,0
0,40,87,0
0,42,79,0
0,65,90,6
0,77,90,0
0,77,106,0
0,46,100,0
0,60,80,14
0,63,80,0
0,68,80,0
0,34,98,0
0,40,91,0
0,42,83,0
0,56,100,14
0,60,97,0
0,65,95,0
0,46,99,0
0,65,106,6
0,56,97,0
0,60,100,0
0,63,100,0
0,34,95,0
0,36,105,0
0,40,90,0
0,42,85,0
0,67,109,46
0,46,97,0
0,65,107,30
0,56,101,0
0,60,96,0
0,63,100,0
0,60,80,0
0,63,80,0
0,68,80,0
0,41,95,0
0,40,98,0
0,42,84,0
0,56,94,2
0,60,101,0
0,63,102,0
0,44,98,32
0,46,99,60
0,36,106,0
0,70,109,20
0,74,75,0
0,77,75,0
0,34,96,0
0,36,105,0
0,49,105,0
0,65,107,4
0,46,100,0
0,65,109,40
0,58,96,0
0,62,96,0
0,65,100,0
0,74,75,0
0,77,75,0
0,62,80,0
0,65,80,0
0,70,80,0
0,34,98,0
0,40,98,0
0,42,84,0
0,46,98,6
0,53,90,28
0,65,90,0
0,34,98,0
0,36,102,0
0,40,89,0
0,42,79,0
0,58,90,2
0,70,90,0
0,46,100,0
0,62,80,28
0,65,80,0
0,70,80,0
0,34,97,0
0,40,90,0
0,42,81,0
0,60,90,12
0,72,90,0
0,56,95,0
0,60,99,0
0,63,95,0
0,72,75,0
0,75,75,0
0,46,97,0
0,34,96,40
0,36,105,0
0,40,93,0
0,42,79,0
0,65,90,6
0,77,90,0
0,46,98,0
0,60,80,30
0,63,80,0
0,68,80,0
0,34,95,0
0,40,94,0
0,42,78,0
0,56,101,14
0,60,101,0
0,65,102,0
0,46,98,0
0,65,105,28
0,56,97,0
0,60,95,0
0,63,103,0
0,34,98,0
0,36,108,0
0,40,97,0
0,42,82,0
0,67,105,54
0,46,100,0
0,65,109,10
0,56,99,0
0,60,95,0
0,63,102,0
0,60,80,0
0,63,80,0
0,68,80,0
0,41,96,0
0,40,100,0
0,42,79,0
0,56,101,2
0,60,100,0
0,63,97,0
0,44,98,32
0,46,99,8
0,48,115,0
0,70,107,20
0,74,75,0
0,77,75,0
0,34,97,0
0,36,105,0
0,49,105,0
0,46,100,4
0,65,107,12
0,65,109,20
0,58,99,0
0,62,98,0
0,65,100,0
0,74,75,0
0,77,75,0
0,62,80,0
0,65,80,0
0,70,80,0
0,34,100,0
0,40,95,0
0,42,83,0
0,46,97,6
0,53,90,28
0,65,90,0
0,34,100,0
0,36,106,0
0,40,94,0
0,42,81,0
0,58,90,2
0,70,90,0
0,46,98,0
0,62,80,28
0,65,80,0
0,70,80,0
0,34,95,0
0,40,94,0
0,42,77,0
0,60,90,12
0,72,90,0
0,56,95,0
0,60,100,0
0,63,98,0
0,72,75,0
0,75,75,0
0,46,95,0
0,34,95,40
0,36,107,0
0,40,94,0
0,42,78,0
0,65,90,6
0,77,90,0
0,46,98,0
0,60,80,0
0,63,80,0
0,68,80,0
0,34,96,0
0,40,98,0
0,42,77,0
0,46,98,14
0,63,110,28
0,34,99,0
0,36,108,0
0,40,95,0
0,42,79,0
0,65,109,10
0,46,97,0
0,60,80,30
0,63,80,0
0,68,80,0
0,41,96,0
0,40,100,0
0,42,78,0
0,44,97,34
0,67,109,24
0,46,96,0
0,36,101,0
0,91,54,4
0,91,85,0
0,96,85,0
0,31,95,0
0,36,108,0
0,70,108,2
0,91,85,0
0,96,85,0
0,67,109,22
0,91,85,128
0,95,85,0
0,91,85,252
0,95,85,0
0,62,75,4
0,38,97,0
0,91,85,20
0,96,85,0
0,31,95,0
0,91,85,18
0,96,85,0
0,67,107,38
0,91,85,0
0,95,85,0
0,31,100,0
0,65,109,34
0,33,97,0
0,40,90,24
0,40,70,36
0,64,109,2
0,91,85,0
0,96,85,0
0,36,96,0
0,40,109,0
0,60,75,30
0,64,75,0
0,36,91,0
0,36,102,0
0,42,79,0
0,60,80,170
0,64,80,0
0,67,80,0
0,36,95,0
0,40,118,0
0,42,85,0
0,55,109,36
0,31,91,0
0,64,109,6
0,55,103,0
0,60,95,0
0,64,102,0
0,36,90,0
0,36,107,0
0,42,83,0
0,62,105,4
0,64,106,30
0,60,80,0
0,64,80,0
0,67,80,0
0,36,93,0
0,40,118,0
0,42,80,0
0,62,105,2
0,53,96,0
0,57,97,0
0,62,102,0
0,65,75,0
0,69,75,0
0,72,75,0
0,36,92,42
0,36,101,0
0,42,83,0
0,31,91,24
0,60,80,2
0,65,80,0
0,69,80,0
0,36,93,0
0,40,119,0
0,42,79,0
0,60,109,166
0,62,108,12
0,36,92,0
0,36,109,0
0,42,79,0
0,60,108,8
0,31,94,0
0,62,108,2
0,60,80,0
0,65,80,0
0,69,80,0
0,36,93,0
0,40,118,0
0,42,78,0
0,60,106,12
0,64,75,10
0,67,75,0
0,72,75,0
0,36,90,0
0,36,105,0
0,42,82,0
0,55,107,34
0,60,80,128
0,64,80,0
0,67,80,0
0,36,94,0
0,40,116,0
0,42,80,0
0,31,95,6
0,55,101,0
0,60,98,0
0,64,98,0
0,36,94,0
0,36,103,0
0,42,78,0
0,60,80,24
0,64,80,0
0,67,80,0
0,36,91,0
0,40,112,0
0,42,86,0
0,60,106,16
0,53,103,0
0,57,101,0
0,60,99,0
0,65,75,0
0,69,75,0
0,72,75,0
0,31,94,0
0,36,92,2
0,36,107,0
0,42,85,0
0,62,109,16
0,31,95,0
0,60,80,18
0,65,80,0
0,69,80,0
0,36,90,0
0,40,119,0
0,42,80,0
0,55,74,4
0,67,74,0
0,60,74,10
0,72,74,0
0,36,91,0
0,36,103,0
0,42,84,0
0,62,74,14
0,74,74,0
0,60,80,0
0,65,80,0
0,69,80,0
0,36,90,0
0,40,111,0
0,42,80,0
0,31,93,16
0,64,74,2
0,76,74,0
0,64,75,0
0,67,75,0
0,72,75,0
0,36,94,0
0,36,109,0
0,42,77,0
0,60,80,110
0,64,80,0
0,67,80,0
0,36,94,0
0,40,113,0
