track,note,velocity,time
1,43,78,1884
1,50,71,60
1,43,85,84
1,47,84,28
1,50,82,48
1,55,81,56
1,50,82,76
1,47,81,72
1,43,90,52
1,50,90,52
1,43,89,100
1,47,90,12
1,50,74,52
1,55,74,48
1,50,82,44
1,47,80,48
1,48,81,32
1,36,66,8
1,47,77,40
1,35,77,12
1,33,82,124
1,45,84,8
1,42,80,160
1,54,68,36
1,43,58,160
1,55,86,24
1,50,88,192
1,38,73,12
1,52,93,184
1,54,86,180
1,43,91,136
1,50,84,32
1,43,89,72
1,47,90,20
1,50,81,56
1,55,81,36
1,50,84,80
1,47,88,44
1,43,84,68
1,50,77,24
1,43,80,76
1,47,86,4
1,50,80,52
1,55,71,40
1,50,73,48
1,47,75,64
1,48,85,80
1,36,85,8
1,40,89,56
1,52,92,0
1,43,75,188
1,55,86,12
1,47,86,212
1,35,86,20
1,50,74,44
1,38,77,0
1,55,76,180
1,43,69,20
1,48,83,220
1,36,81,12
1,38,72,192
1,50,69,8
1,43,66,160
1,55,88,4
1,38,76,192
1,50,86,12
1,31,80,184
1,43,84,4
1,43,78,168
1,50,71,60
1,43,85,80
1,47,84,24
1,50,82,48
1,55,81,56
1,50,82,76
1,47,81,68
1,43,90,52
1,50,90,52
1,43,89,100
1,47,90,12
1,50,74,52
1,55,74,44
1,50,82,44
1,47,80,48
1,48,81,32
1,36,66,8
1,47,77,40
1,35,77,12
1,33,82,124
1,45,84,8
1,42,80,156
1,54,68,36
1,43,58,160
1,55,86,20
1,50,88,192
1,38,73,12
1,52,93,184
1,54,86,176
1,43,91,136
1,50,84,28
1,43,89,68
1,47,90,16
1,50,81,56
1,55,81,32
1,50,84,80
1,47,88,44
1,43,84,68
1,50,77,28
1,43,80,76
1,47,86,0
1,50,80,52
1,55,71,40
1,50,73,48
1,47,75,60
1,48,85,72
1,36,85,12
1,40,89,56
1,52,92,0
1,43,75,184
1,55,86,12
1,47,86,208
1,35,86,20
1,50,74,44
1,38,77,0
1,55,76,180
1,43,69,24
1,48,83,224
1,36,81,8
1,38,72,188
1,50,69,8
1,43,66,160
1,55,88,4
1,38,76,192
1,31,80,200
1,40,89,180
1,39,88,44
1,35,76,64
1,40,73,76
1,40,92,104
1,43,71,76
1,47,88,80
1,35,84,72
1,40,88,132
1,43,78,56
1,47,82,16
1,35,93,68
1,45,84,380
1,43,83,72
1,45,73,88
1,47,74,140
1,40,81,16
1,35,96,204
1,38,69,132
1,43,81,144
1,36,66,64
1,38,75,112
1,40,63,116
1,33,77,92
1,35,86,96
1,36,88,152
1,38,69,140
1,38,66,160
1,38,51,192
1,50,63,8
1,50,72,116
1,38,61,0
1,50,54,128
1,38,53,4
1,43,91,184
1,50,84,28
1,43,89,68
1,47,90,16
1,50,81,56
1,55,81,32
1,50,84,84
1,47,88,44
1,43,84,68
1,50,77,20
1,43,80,76
1,47,86,0
1,50,80,52
1,55,71,36
1,50,73,44
1,47,75,60
1,48,85,76
1,36,85,8
1,40,89,56
1,52,92,0
1,43,75,184
1,55,86,12
1,47,86,208
1,35,86,20
1,50,74,44
1,38,77,0
1,55,76,180
1,43,69,20
1,48,83,224
1,36,81,8
1,38,72,188
1,50,69,12
1,43,66,160
1,55,88,4
1,38,76,192
1,50,86,12
1,31,80,184
1,43,84,4
1,40,89,168
1,39,88,48
1,35,76,68
1,40,73,76
1,40,92,104
1,43,71,76
1,47,88,80
1,35,84,72
1,40,88,132
1,43,78,56
1,47,82,16
1,35,93,72
1,45,84,376
1,43,83,72
1,45,73,88
1,47,74,136
1,40,81,16
1,35,96,200
1,38,69,128
1,43,81,144
1,36,66,64
1,38,75,112
1,40,63,116
1,33,77,92
1,35,86,96
1,36,88,152
1,38,69,140
1,38,66,160
1,38,51,192
1,50,63,8
1,50,72,116
1,38,61,4
1,50,54,124
1,38,53,0
1,43,91,184
1,50,84,32
1,43,89,68
1,47,90,16
1,50,81,56
1,55,81,32
1,50,84,80
1,47,88,44
1,43,84,68
1,50,77,20
1,43,80,76
1,47,86,0
1,50,80,52
1,55,71,36
1,50,73,44
1,47,75,60
1,48,85,76
1,36,85,8
1,40,89,56
1,52,92,0
1,43,75,184
1,55,86,12
1,47,86,208
1,35,86,20
1,50,74,44
1,38,77,0
1,55,76,180
1,43,69,20
1,48,83,220
1,36,81,8
1,38,72,188
1,50,69,12
1,43,66,160
1,55,88,4
1,38,76,192
1,50,86,12
1,31,80,184
1,43,84,4
2,55,81,1868
2,50,71,36
2,43,81,4
2,47,72,192
2,50,84,20
2,55,82,16
2,50,80,4
2,47,82,12
2,43,84,8
2,50,79,776
2,43,83,12
2,47,73,0
2,50,79,28
2,55,77,4
2,50,72,4
2,47,63,40
2,48,81,196
2,47,71,16
2,45,74,16
2,54,81,76
2,55,77,144
2,50,82,136
2,52,81,92
2,54,81,72
2,55,81,32
2,50,71,32
2,43,81,20
2,47,74,4
2,50,85,12
2,55,75,12
2,50,70,8
2,47,74,12
2,43,74,196
2,50,67,756
2,43,78,16
2,47,74,0
2,50,83,12
2,55,82,4
2,50,77,8
2,47,78,20
2,48,77,200
2,52,85,60
2,55,78,0
2,47,77,24
2,50,72,8
2,55,73,20
2,48,84,32
2,50,83,12
2,55,83,8
2,50,74,160
2,43,73,228
2,55,79,216
2,50,68,20
2,43,81,16
2,47,77,4
2,50,81,20
2,55,78,12
2,50,73,188
2,47,63,32
2,43,75,12
2,50,63,28
2,43,77,24
2,47,73,4
2,50,84,20
2,55,75,0
2,50,72,12
2,47,69,28
2,48,78,12
2,47,77,16
2,45,74,0
2,54,81,104
2,55,84,156
2,50,85,104
2,52,80,96
2,54,75,124
2,55,81,40
2,50,75,12
2,43,79,28
2,47,74,20
2,50,80,36
2,55,75,12
2,50,70,196
2,47,72,16
2,43,72,8
2,50,78,764
2,43,80,32
2,47,79,12
2,50,79,28
2,55,74,16
2,50,74,20
2,47,75,32
2,48,77,8
2,52,79,72
2,55,70,16
2,47,74,388
2,50,65,60
2,55,71,16
2,48,70,4
2,50,78,20
2,55,74,12
2,50,72,40
2,43,66,44
2,52,66,192
2,51,69,68
2,47,65,40
2,52,76,8
2,52,71,296
2,55,73,72
2,59,79,40
2,47,74,36
2,52,74,284
2,55,76,8
2,59,80,16
2,47,77,8
2,57,74,20
2,55,75,192
2,57,74,96
2,59,77,4
2,52,75,20
2,47,79,152
2,50,74,52
2,55,74,28
2,48,78,20
2,50,74,8
2,52,80,12
2,45,77,48
2,47,75,380
2,48,65,52
2,50,81,16
2,54,59,264
2,50,55,4
2,55,67,220
2,50,54,4
2,54,69,224
2,50,66,0
2,55,77,24
2,54,57,372
2,50,71,0
2,55,84,20
2,50,82,20
2,43,87,388
2,47,79,20
2,50,88,24
2,55,79,28
2,50,82,192
2,47,77,4
2,43,80,12
2,50,73,4
2,43,84,12
2,47,78,8
2,50,83,28
2,55,81,28
2,50,82,16
2,47,70,40
2,48,79,0
2,52,78,48
2,55,70,12
2,47,80,0
2,50,71,52
2,55,73,24
2,48,71,20
2,50,78,32
2,55,77,40
2,50,75,88
2,43,75,152
2,52,68,216
2,51,57,136
2,47,70,120
2,52,74,28
2,52,78,236
2,55,71,96
2,59,82,32
2,47,77,28
2,52,70,340
2,55,73,40
2,59,78,80
2,47,77,12
2,57,78,32
2,55,77,128
2,57,74,136
2,59,74,8
2,52,72,32
2,47,79,52
2,50,71,44
2,55,73,8
2,48,74,36
2,50,79,32
2,52,75,12
2,45,72,60
2,47,71,24
2,48,75,24
2,50,78,20
2,54,75,240
2,50,68,0
2,50,68,208
2,55,73,0
2,54,75,216
2,50,74,4
2,55,68,16
2,54,64,16
2,50,66,4
2,55,81,128
2,50,79,12
2,43,86,28
2,47,75,36
2,50,79,28
2,55,80,28
2,50,81,16
2,47,79,16
2,43,67,12
2,50,77,20
2,43,81,384
2,47,79,12
2,50,84,20
2,55,80,4
2,50,75,28
2,47,74,24
2,48,82,200
2,52,77,44
2,55,78,16
2,47,79,388
2,50,77,56
2,55,79,32
2,48,75,20
2,50,79,28
2,55,76,48
2,50,81,56
2,43,74,88
3,67,85,1844
3,71,73,4
3,74,85,196
3,79,87,8
3,69,79,24
3,78,86,12
3,79,92,196
3,67,77,20
3,67,84,276
3,67,94,272
3,71,84,192
3,74,90,188
3,79,92,16
3,69,76,192
3,78,87,12
3,79,93,24
3,67,74,0
3,67,82,264
3,76,92,296
3,76,91,180
3,76,94,160
3,79,82,12
3,74,89,32
3,74,92,160
3,74,91,204
3,79,84,32
3,72,87,16
3,74,94,12
3,72,76,8
3,71,81,192
3,72,82,188
3,69,74,8
3,67,86,232
3,71,91,188
3,74,84,4
3,79,85,24
3,69,64,4
3,78,89,8
3,79,91,20
3,67,75,388
3,67,82,228
3,67,93,240
3,71,84,20
3,74,90,8
3,79,91,16
3,69,79,12
3,78,86,12
3,79,91,52
3,67,79,12
3,67,74,216
3,76,90,240
3,74,92,384
3,72,79,0
3,71,82,188
3,69,79,4
3,74,93,4
3,72,81,384
3,71,76,12
3,69,78,192
3,67,68,20
3,69,85,68
3,71,80,28
3,72,81,8
3,62,81,12
3,66,100,288
3,67,93,308
3,67,87,352
3,71,86,24
3,74,90,4
3,79,85,24
3,69,76,20
3,78,88,16
3,79,91,48
3,67,81,40
3,67,79,232
3,67,89,240
3,71,83,0
3,74,89,16
3,79,91,12
3,69,80,24
3,78,90,20
3,79,87,64
3,67,77,24
3,67,87,240
3,76,93,252
3,76,91,200
3,76,91,208
3,79,85,16
3,74,88,36
3,74,88,208
3,74,95,228
3,79,81,20
3,72,93,28
3,74,89,0
3,72,77,12
3,71,79,4
3,72,82,8
3,69,73,0
3,67,79,172
3,71,87,0
3,74,87,20
3,79,85,16
3,69,74,8
3,78,86,12
3,79,87,64
3,67,77,4
3,67,79,236
3,67,87,224
3,71,82,12
3,74,85,192
3,79,85,12
3,69,75,24
3,78,86,16
3,79,83,40
3,67,70,8
3,67,77,224
3,76,89,244
3,74,83,384
3,72,71,12
3,71,82,192
3,69,68,8
3,74,91,20
3,72,79,384
3,71,70,184
3,69,69,8
3,67,63,12
3,69,71,72
3,71,78,4
3,72,61,8
3,62,78,32
3,66,81,288
3,67,82,320
3,67,75,476
3,69,79,4
3,71,85,0
3,69,73,192
3,67,79,184
3,66,69,188
3,67,82,8
3,64,81,12
3,64,85,248
3,79,89,308
3,78,79,4
3,76,84,8
3,79,81,16
3,78,78,16
3,76,80,8
3,78,90,196
3,71,78,20
3,71,79,252
3,79,89,256
3,78,70,192
3,76,73,12
3,79,88,12
3,78,69,0
3,76,77,8
3,78,91,8
3,71,77,20
3,76,82,388
3,78,83,124
3,79,83,24
3,81,78,12
3,71,85,48
3,75,91,264
3,76,89,292
3,75,77,384
3,76,76,36
3,78,83,196
3,79,90,84
3,79,85,124
3,78,78,20
3,76,78,24
3,74,81,20
3,76,85,16
3,76,91,96
3,74,80,12
3,72,80,24
3,71,80,4
3,72,85,16
3,72,89,88
3,71,75,0
3,69,77,196
3,67,73,16
3,66,77,196
3,64,73,8
3,66,74,20
3,62,73,4
3,69,78,176
3,62,74,4
3,62,74,252
3,71,87,276
3,62,67,4
3,62,75,236
3,72,85,280
3,74,88,24
3,72,65,36
3,71,76,4
3,72,75,28
3,69,78,8
3,67,93,320
3,71,95,188
3,74,93,0
3,79,97,4
3,69,84,16
3,78,95,12
3,79,94,40
3,67,84,24
3,67,84,224
3,67,96,212
3,71,87,4
3,74,94,196
3,79,95,0
3,69,86,16
3,78,92,16
3,79,95,48
3,67,81,384
3,67,85,208
3,76,89,224
3,74,90,384
3,72,74,180
3,71,79,184
3,69,77,8
3,74,91,4
3,72,80,384
3,71,72,4
3,69,68,0
3,67,66,4
3,69,69,76
3,71,65,24
3,72,44,16
3,62,84,40
3,66,87,300
3,67,90,316
3,67,87,348
3,69,78,192
3,71,81,16
3,69,72,8
3,67,73,8
3,66,75,192
3,67,84,28
3,64,77,0
3,64,81,240
3,79,91,296
3,78,81,4
3,76,83,192
3,79,83,0
3,78,80,8
3,76,75,4
3,78,84,196
3,71,81,16
3,71,79,244
3,79,89,248
3,78,70,192
3,76,72,16
3,79,87,4
3,78,76,192
3,76,73,16
3,78,84,20
3,71,73,12
3,76,85,240
3,78,75,212
3,79,79,20
3,81,77,16
3,71,77,24
3,75,86,272
3,76,83,316
3,75,75,384
3,76,85,12
3,78,86,192
3,79,93,72
3,79,89,100
3,78,77,188
3,76,68,20
3,74,80,4
3,76,84,0
3,76,84,72
3,74,81,0
3,72,75,16
3,71,77,12
3,72,78,196
3,72,85,96
3,71,68,192
3,69,71,176
3,67,71,8
3,66,83,196
3,64,71,8
3,66,75,20
3,62,73,16
3,69,85,140
3,62,71,0
3,62,72,256
3,71,88,284
3,62,70,20
3,62,78,240
3,72,85,220
3,74,85,16
3,72,71,20
3,71,78,192
3,72,70,32
3,69,75,16
3,67,96,316
3,71,90,4
3,74,97,4
3,79,94,8
3,69,84,4
3,78,95,4
3,79,94,24
3,67,80,4
3,67,89,224
3,67,97,204
3,71,91,188
3,74,92,180
3,79,94,8
3,69,82,16
3,78,91,192
3,79,93,32
3,67,77,380
3,67,85,196
3,76,95,216
3,74,84,8
3,72,69,8
3,71,73,188
3,69,71,12
3,74,89,196
3,72,80,380
3,71,68,4
3,69,68,0
3,67,63,196
3,69,82,56
3,71,72,20
3,72,72,4
3,62,78,24
3,66,87,288
3,67,84,312
4,59,78,2964
4,62,75,4
4,67,83,40
4,71,71,196
4,67,61,28
4,62,48,24
4,59,61,8
4,59,82,384
4,62,72,12
4,67,83,44
4,71,78,0
4,67,74,44
4,62,57,36
4,67,57,24
4,67,58,96
4,66,59,84
4,67,61,32
4,62,45,12
4,59,89,1156
4,62,78,12
4,67,82,52
4,71,89,176
4,67,74,36
4,62,47,48
4,59,61,0
4,59,81,372
4,62,62,168
4,67,84,36
4,71,82,176
4,67,74,44
4,62,55,28
4,60,71,36
4,59,77,28
4,60,98,136
4,62,81,28
4,64,81,16
4,54,75,40
4,60,91,216
4,59,67,276
4,59,78,1228
4,62,75,0
4,67,83,40
4,71,71,192
4,67,61,28
4,62,48,24
4,59,61,8
4,59,82,380
4,62,72,8
4,67,83,48
4,71,78,0
4,67,74,44
4,62,57,36
4,67,57,28
4,67,58,96
4,66,59,84
4,67,61,36
4,62,45,20
4,59,89,1156
4,62,78,12
4,67,82,52
4,71,89,0
4,67,74,36
4,62,47,48
4,59,61,4
4,59,81,372
4,62,62,168
4,67,84,36
4,71,82,176
4,67,74,44
4,62,55,28
4,60,71,32
4,59,77,28
4,60,98,136
4,62,81,28
4,64,81,16
4,54,75,44
4,60,91,216
4,59,67,276
4,62,61,13912
4,54,76,0
4,55,70,456
4,62,61,4
4,57,71,316
4,62,71,4
4,55,83,60
4,62,46,20
4,54,76,76
4,62,48,4
4,59,89,1216
4,62,78,12
4,67,82,52
4,71,89,176
4,67,74,40
4,62,47,48
4,59,61,0
4,59,81,372
4,62,62,168
4,67,84,40
4,71,82,176
4,67,74,44
4,62,55,28
4,60,71,32
4,59,77,28
4,60,98,136
4,62,81,28
4,64,81,16
4,54,75,40
4,60,91,216
4,59,67,276
4,62,61,13916
4,54,76,0
4,55,70,456
4,62,61,4
4,57,71,316
4,62,71,4
4,55,83,64
4,62,46,16
4,54,76,76
4,62,48,4
4,59,89,1216
4,62,78,12
4,67,82,52
4,71,89,176
4,67,74,36
4,62,47,48
4,59,61,4
4,59,81,372
4,62,62,168
4,67,84,36
4,71,82,176
4,67,74,44
4,62,55,28
4,60,71,32
4,59,77,28
4,60,98,136
4,62,81,28
4,64,81,16
4,54,75,40
4,60,91,216
4,59,67,276
5,67,92,1808
5,71,97,16
5,74,89,36
5,79,93,20
5,69,92,60
5,78,84,40
5,79,98,56
5,67,84,8
5,67,96,208
5,67,93,260
5,71,91,32
5,74,86,52
5,79,83,12
5,69,86,68
5,78,85,40
5,79,88,36
5,67,91,28
5,67,93,220
5,76,97,220
5,76,97,212
