track,note,velocity,time
1.0,64.0,117.0,684.0
1.0,69.0,127.0,8.0
1.0,69.0,127.0,92.0
1.0,69.0,125.0,46.0
1.0,71.0,110.0,62.0
1.0,72.0,127.0,4.0
1.0,71.0,127.0,64.0
1.0,62.0,117.0,18.0
1.0,71.0,107.0,30.0
1.0,64.0,127.0,32.0
1.0,65.0,127.0,64.0
1.0,62.0,122.0,46.0
1.0,60.0,127.0,38.0
1.0,64.0,127.0,60.0
1.0,69.0,127.0,56.0
1.0,62.0,113.0,26.0
1.0,71.0,110.0,56.0
1.0,69.0,119.0,6.0
1.0,68.0,119.0,48.0
1.0,69.0,116.0,6.0
1.0,71.0,102.0,2.0
1.0,64.0,116.0,20.0
1.0,76.0,121.0,30.0
1.0,74.0,118.0,14.0
1.0,72.0,119.0,34.0
1.0,74.0,105.0,10.0
1.0,60.0,101.0,2.0
1.0,76.0,96.0,2.0
1.0,69.0,119.0,32.0
1.0,77.0,109.0,20.0
1.0,76.0,100.0,18.0
1.0,74.0,110.0,42.0
1.0,60.0,108.0,0.0
1.0,76.0,110.0,4.0
1.0,62.0,99.0,22.0
1.0,77.0,112.0,4.0
1.0,71.0,111.0,26.0
1.0,79.0,117.0,14.0
1.0,77.0,107.0,34.0
1.0,60.0,122.0,48.0
1.0,76.0,105.0,0.0
1.0,62.0,100.0,0.0
1.0,77.0,122.0,0.0
1.0,79.0,115.0,14.0
1.0,64.0,96.0,4.0
1.0,79.0,119.0,48.0
1.0,62.0,107.0,6.0
1.0,64.0,105.0,2.0
1.0,81.0,124.0,0.0
1.0,64.0,96.0,18.0
1.0,79.0,110.0,4.0
1.0,77.0,109.0,6.0
1.0,79.0,122.0,6.0
1.0,65.0,85.0,18.0
1.0,81.0,119.0,0.0
1.0,69.0,108.0,48.0
1.0,71.0,126.0,12.0
1.0,72.0,120.0,0.0
1.0,74.0,114.0,22.0
1.0,76.0,114.0,32.0
1.0,60.0,108.0,4.0
1.0,77.0,120.0,16.0
1.0,62.0,105.0,0.0
1.0,79.0,121.0,4.0
1.0,64.0,118.0,12.0
1.0,81.0,119.0,28.0
1.0,65.0,95.0,4.0
1.0,81.0,127.0,50.0
1.0,65.0,106.0,6.0
1.0,67.0,86.0,4.0
1.0,83.0,122.0,22.0
1.0,64.0,110.0,6.0
1.0,81.0,111.0,2.0
1.0,79.0,103.0,8.0
1.0,65.0,68.0,22.0
1.0,81.0,113.0,14.0
1.0,83.0,114.0,0.0
1.0,67.0,85.0,0.0
1.0,71.0,114.0,46.0
1.0,72.0,125.0,0.0
1.0,74.0,121.0,60.0
1.0,60.0,99.0,16.0
1.0,76.0,118.0,8.0
1.0,62.0,105.0,14.0
1.0,77.0,122.0,10.0
1.0,64.0,104.0,0.0
1.0,79.0,125.0,0.0
1.0,81.0,119.0,2.0
1.0,65.0,106.0,4.0
1.0,67.0,115.0,2.0
1.0,83.0,127.0,0.0
1.0,67.0,101.0,54.0
1.0,69.0,108.0,0.0
1.0,83.0,127.0,0.0
1.0,84.0,127.0,2.0
1.0,65.0,113.0,0.0
1.0,83.0,118.0,12.0
1.0,81.0,124.0,6.0
1.0,67.0,88.0,10.0
1.0,83.0,127.0,0.0
1.0,84.0,123.0,14.0
1.0,69.0,99.0,0.0
1.0,72.0,110.0,42.0
1.0,74.0,122.0,16.0
1.0,60.0,100.0,2.0
1.0,76.0,104.0,0.0
1.0,62.0,93.0,8.0
1.0,77.0,102.0,0.0
1.0,64.0,89.0,22.0
1.0,79.0,108.0,4.0
1.0,81.0,113.0,2.0
1.0,65.0,99.0,0.0
1.0,71.0,101.0,56.0
1.0,72.0,125.0,0.0
1.0,74.0,108.0,2.0
1.0,76.0,102.0,26.0
1.0,60.0,102.0,8.0
1.0,77.0,96.0,10.0
1.0,62.0,80.0,8.0
1.0,79.0,108.0,0.0
1.0,64.0,95.0,6.0
1.0,69.0,109.0,44.0
1.0,71.0,119.0,8.0
1.0,72.0,115.0,68.0
1.0,74.0,108.0,36.0
1.0,60.0,100.0,30.0
1.0,76.0,108.0,10.0
1.0,62.0,127.0,40.0
1.0,77.0,127.0,4.0
1.0,64.0,99.0,18.0
1.0,79.0,104.0,4.0
1.0,65.0,81.0,18.0
1.0,81.0,108.0,4.0
1.0,74.0,125.0,36.0
1.0,76.0,110.0,4.0
1.0,60.0,95.0,0.0
1.0,62.0,90.0,22.0
1.0,77.0,101.0,0.0
1.0,71.0,127.0,44.0
1.0,72.0,123.0,56.0
1.0,74.0,102.0,58.0
1.0,67.0,108.0,36.0
1.0,69.0,116.0,32.0
1.0,65.0,93.0,22.0
1.0,71.0,115.0,16.0
1.0,64.0,127.0,46.0
1.0,72.0,127.0,2.0
1.0,65.0,116.0,8.0
1.0,67.0,63.0,26.0
1.0,72.0,122.0,2.0
1.0,72.0,127.0,38.0
1.0,60.0,127.0,6.0
1.0,71.0,109.0,16.0
1.0,62.0,102.0,4.0
1.0,64.0,93.0,18.0
1.0,72.0,111.0,4.0
1.0,74.0,127.0,26.0
1.0,60.0,103.0,2.0
1.0,65.0,122.0,6.0
1.0,62.0,101.0,18.0
1.0,74.0,98.0,6.0
1.0,64.0,127.0,38.0
1.0,65.0,110.0,60.0
1.0,62.0,114.0,2.0
1.0,60.0,114.0,26.0
1.0,64.0,123.0,24.0
1.0,67.0,113.0,4.0
1.0,64.0,119.0,32.0
1.0,67.0,119.0,6.0
1.0,72.0,120.0,0.0
1.0,67.0,127.0,32.0
1.0,71.0,127.0,10.0
1.0,74.0,114.0,2.0
1.0,71.0,127.0,30.0
1.0,74.0,125.0,14.0
1.0,79.0,127.0,64.0
1.0,79.0,127.0,48.0
1.0,76.0,123.0,56.0
1.0,72.0,115.0,16.0
1.0,70.0,116.0,34.0
1.0,69.0,107.0,30.0
1.0,67.0,123.0,28.0
1.0,69.0,127.0,40.0
1.0,60.0,124.0,66.0
1.0,69.0,121.0,2.0
1.0,77.0,127.0,40.0
1.0,74.0,127.0,56.0
1.0,71.0,114.0,8.0
1.0,69.0,122.0,18.0
1.0,67.0,117.0,36.0
1.0,65.0,127.0,34.0
1.0,67.0,127.0,40.0
1.0,67.0,127.0,100.0
1.0,76.0,127.0,40.0
1.0,72.0,127.0,50.0
1.0,69.0,113.0,54.0
1.0,67.0,126.0,16.0
1.0,65.0,124.0,4.0
1.0,64.0,127.0,6.0
1.0,74.0,127.0,20.0
1.0,71.0,125.0,52.0
1.0,67.0,124.0,6.0
1.0,65.0,127.0,32.0
1.0,64.0,125.0,58.0
1.0,62.0,125.0,0.0
1.0,64.0,127.0,24.0
1.0,67.0,127.0,58.0
1.0,72.0,121.0,58.0
1.0,66.0,123.0,16.0
1.0,74.0,122.0,16.0
1.0,72.0,127.0,70.0
1.0,71.0,127.0,8.0
1.0,72.0,127.0,58.0
1.0,74.0,123.0,46.0
1.0,67.0,127.0,20.0
1.0,74.0,109.0,50.0
1.0,76.0,115.0,56.0
1.0,77.0,91.0,0.0
1.0,79.0,109.0,4.0
1.0,67.0,98.0,50.0
1.0,69.0,108.0,14.0
1.0,71.0,85.0,20.0
1.0,72.0,110.0,42.0
1.0,74.0,101.0,34.0
1.0,76.0,96.0,24.0
1.0,71.0,127.0,48.0
1.0,72.0,112.0,18.0
1.0,74.0,116.0,60.0
1.0,60.0,127.0,56.0
1.0,76.0,127.0,0.0
1.0,77.0,120.0,2.0
1.0,62.0,102.0,12.0
1.0,79.0,126.0,0.0
1.0,64.0,111.0,4.0
1.0,67.0,113.0,40.0
1.0,69.0,124.0,4.0
1.0,60.0,102.0,2.0
1.0,62.0,113.0,16.0
1.0,71.0,117.0,2.0
1.0,72.0,123.0,40.0
1.0,64.0,127.0,0.0
1.0,65.0,111.0,4.0
1.0,74.0,118.0,2.0
1.0,67.0,125.0,4.0
1.0,76.0,112.0,0.0
1.0,67.0,127.0,24.0
1.0,71.0,127.0,4.0
1.0,72.0,122.0,16.0
1.0,69.0,127.0,2.0
1.0,74.0,116.0,56.0
1.0,71.0,125.0,2.0
1.0,72.0,127.0,20.0
1.0,76.0,127.0,2.0
1.0,77.0,104.0,8.0
1.0,79.0,127.0,0.0
1.0,65.0,99.0,24.0
1.0,67.0,112.0,34.0
1.0,76.0,112.0,0.0
1.0,77.0,126.0,0.0
1.0,76.0,113.0,14.0
1.0,74.0,116.0,18.0
1.0,72.0,122.0,4.0
1.0,60.0,127.0,42.0
1.0,72.0,127.0,0.0
1.0,67.0,116.0,318.0
1.0,72.0,127.0,24.0
1.0,72.0,125.0,72.0
1.0,72.0,127.0,38.0
1.0,74.0,122.0,60.0
1.0,76.0,126.0,4.0
1.0,74.0,112.0,4.0
1.0,65.0,118.0,24.0
1.0,74.0,113.0,24.0
1.0,67.0,127.0,46.0
1.0,69.0,127.0,58.0
1.0,65.0,122.0,46.0
1.0,64.0,127.0,42.0
1.0,72.0,127.0,18.0
1.0,64.0,127.0,12.0
1.0,62.0,127.0,36.0
1.0,64.0,127.0,28.0
1.0,60.0,116.0,8.0
1.0,60.0,127.0,84.0
1.0,62.0,117.0,0.0
1.0,62.0,108.0,146.0
1.0,64.0,119.0,26.0
1.0,66.0,117.0,24.0
1.0,67.0,119.0,22.0
1.0,69.0,118.0,32.0
1.0,71.0,110.0,56.0
1.0,72.0,127.0,54.0
1.0,63.0,127.0,34.0
1.0,72.0,127.0,62.0
1.0,71.0,127.0,50.0
1.0,62.0,127.0,16.0
1.0,64.0,127.0,64.0
1.0,66.0,127.0,50.0
1.0,68.0,127.0,54.0
1.0,69.0,114.0,56.0
1.0,71.0,119.0,44.0
1.0,61.0,121.0,34.0
1.0,71.0,127.0,78.0
1.0,69.0,127.0,60.0
1.0,60.0,127.0,16.0
1.0,62.0,127.0,54.0
1.0,64.0,121.0,0.0
1.0,66.0,127.0,42.0
1.0,67.0,117.0,58.0
1.0,69.0,111.0,42.0
1.0,69.0,127.0,138.0
1.0,67.0,127.0,48.0
1.0,67.0,127.0,146.0
1.0,66.0,127.0,44.0
1.0,66.0,127.0,136.0
1.0,64.0,123.0,70.0
1.0,63.0,122.0,0.0
1.0,64.0,127.0,64.0
1.0,63.0,127.0,32.0
1.0,64.0,127.0,58.0
1.0,66.0,112.0,52.0
1.0,71.0,127.0,82.0
1.0,69.0,121.0,6.0
1.0,67.0,108.0,26.0
1.0,69.0,103.0,12.0
1.0,71.0,101.0,10.0
1.0,64.0,116.0,32.0
1.0,72.0,123.0,14.0
1.0,71.0,99.0,28.0
1.0,69.0,98.0,38.0
1.0,71.0,99.0,8.0
1.0,72.0,109.0,4.0
1.0,66.0,127.0,38.0
1.0,74.0,124.0,24.0
1.0,72.0,115.0,10.0
1.0,71.0,108.0,30.0
1.0,72.0,110.0,14.0
1.0,74.0,106.0,0.0
1.0,67.0,127.0,24.0
1.0,76.0,122.0,2.0
1.0,74.0,111.0,2.0
1.0,73.0,117.0,26.0
1.0,75.0,108.0,62.0
1.0,60.0,108.0,56.0
1.0,76.0,103.0,0.0
1.0,69.0,119.0,22.0
1.0,78.0,119.0,16.0
1.0,76.0,114.0,62.0
1.0,75.0,121.0,30.0
1.0,61.0,109.0,56.0
1.0,76.0,116.0,4.0
1.0,63.0,122.0,42.0
1.0,78.0,113.0,4.0
1.0,64.0,119.0,42.0
1.0,78.0,119.0,8.0
1.0,63.0,99.0,0.0
1.0,79.0,125.0,6.0
1.0,61.0,106.0,0.0
1.0,78.0,104.0,14.0
1.0,76.0,96.0,12.0
1.0,63.0,85.0,8.0
1.0,78.0,100.0,14.0
1.0,64.0,92.0,30.0
1.0,79.0,127.0,2.0
1.0,67.0,115.0,50.0
1.0,69.0,126.0,8.0
1.0,71.0,102.0,30.0
1.0,73.0,110.0,24.0
1.0,75.0,105.0,64.0
1.0,61.0,98.0,22.0
1.0,76.0,105.0,4.0
1.0,63.0,90.0,6.0
1.0,78.0,100.0,2.0
1.0,64.0,107.0,18.0
1.0,79.0,122.0,6.0
1.0,66.0,102.0,56.0
1.0,79.0,120.0,0.0
1.0,64.0,77.0,6.0
1.0,81.0,118.0,22.0
1.0,63.0,112.0,36.0
1.0,79.0,117.0,2.0
1.0,78.0,122.0,34.0
1.0,64.0,83.0,32.0
1.0,66.0,102.0,0.0
1.0,79.0,108.0,0.0
1.0,81.0,126.0,0.0
1.0,69.0,114.0,44.0
1.0,71.0,118.0,54.0
1.0,73.0,124.0,56.0
1.0,75.0,105.0,52.0
1.0,61.0,111.0,22.0
1.0,76.0,114.0,4.0
1.0,78.0,109.0,8.0
1.0,63.0,78.0,8.0
1.0,64.0,95.0,14.0
1.0,79.0,125.0,2.0
1.0,81.0,122.0,8.0
1.0,66.0,108.0,10.0
1.0,81.0,120.0,46.0
1.0,67.0,127.0,2.0
1.0,83.0,124.0,4.0
1.0,66.0,103.0,6.0
1.0,81.0,122.0,28.0
1.0,64.0,108.0,6.0
1.0,79.0,120.0,6.0
1.0,81.0,116.0,34.0
1.0,66.0,86.0,2.0
1.0,83.0,127.0,24.0
1.0,67.0,110.0,0.0
1.0,73.0,117.0,32.0
1.0,75.0,112.0,58.0
1.0,61.0,92.0,2.0
1.0,76.0,104.0,4.0
1.0,78.0,108.0,14.0
1.0,63.0,97.0,2.0
1.0,64.0,98.0,14.0
1.0,79.0,116.0,2.0
1.0,66.0,88.0,0.0
1.0,81.0,107.0,2.0
1.0,71.0,108.0,28.0
1.0,73.0,123.0,60.0
1.0,75.0,116.0,64.0
1.0,61.0,89.0,6.0
1.0,76.0,113.0,10.0
1.0,78.0,115.0,14.0
1.0,63.0,77.0,4.0
1.0,64.0,127.0,26.0
1.0,79.0,127.0,6.0
1.0,81.0,119.0,18.0
1.0,83.0,127.0,46.0
1.0,71.0,121.0,24.0
1.0,76.0,119.0,4.0
1.0,75.0,119.0,10.0
1.0,76.0,127.0,30.0
1.0,76.0,123.0,82.0
1.0,76.0,123.0,50.0
1.0,70.0,119.0,60.0
1.0,69.0,106.0,48.0
1.0,67.0,100.0,16.0
1.0,65.0,102.0,30.0
1.0,64.0,103.0,36.0
1.0,65.0,106.0,34.0
1.0,62.0,99.0,18.0
1.0,65.0,94.0,16.0
1.0,69.0,98.0,40.0
1.0,65.0,95.0,4.0
1.0,69.0,89.0,8.0
1.0,74.0,89.0,50.0
1.0,71.0,84.0,58.0
1.0,67.0,80.0,50.0
1.0,65.0,73.0,16.0
1.0,64.0,72.0,34.0
1.0,62.0,77.0,24.0
1.0,64.0,75.0,32.0
1.0,60.0,70.0,30.0
1.0,64.0,70.0,10.0
1.0,67.0,67.0,36.0
1.0,64.0,62.0,0.0
1.0,67.0,55.0,32.0
1.0,72.0,60.0,54.0
1.0,69.0,57.0,0.0
1.0,65.0,55.0,58.0
1.0,64.0,54.0,8.0
1.0,62.0,48.0,20.0
1.0,60.0,39.0,20.0
1.0,71.0,47.0,28.0
1.0,68.0,38.0,58.0
1.0,64.0,41.0,4.0
1.0,62.0,42.0,32.0
1.0,60.0,39.0,62.0
1.0,60.0,36.0,78.0
1.0,64.0,35.0,56.0
1.0,69.0,33.0,54.0
1.0,62.0,31.0,20.0
1.0,71.0,30.0,12.0
1.0,69.0,28.0,60.0
1.0,68.0,26.0,40.0
1.0,69.0,25.0,20.0
1.0,71.0,21.0,62.0
1.0,64.0,22.0,16.0
1.0,71.0,19.0,42.0
1.0,72.0,18.0,48.0
1.0,74.0,15.0,56.0
1.0,76.0,15.0,52.0
1.0,64.0,15.0,40.0
1.0,66.0,13.0,56.0
1.0,68.0,12.0,58.0
1.0,69.0,11.0,40.0
1.0,71.0,10.0,26.0
1.0,72.0,9.0,62.0
1.0,68.0,8.0,40.0
1.0,69.0,7.0,6.0
1.0,71.0,6.0,14.0
1.0,72.0,6.0,34.0
1.0,74.0,4.0,46.0
1.0,60.0,4.0,40.0
1.0,76.0,4.0,8.0
1.0,64.0,3.0,32.0
1.0,66.0,3.0,62.0
1.0,68.0,2.0,64.0
1.0,60.0,1.0,30.0
1.0,69.0,1.0,0.0
2.0,45.0,127.0,1152.0
2.0,57.0,111.0,26.0
2.0,56.0,127.0,18.0
2.0,57.0,123.0,16.0
2.0,53.0,127.0,10.0
2.0,52.0,127.0,46.0
2.0,54.0,126.0,14.0
2.0,56.0,113.0,2.0
2.0,57.0,124.0,42.0
2.0,59.0,97.0,32.0
2.0,53.0,127.0,94.0
2.0,55.0,108.0,28.0
2.0,57.0,113.0,18.0
2.0,59.0,122.0,48.0
2.0,55.0,127.0,160.0
2.0,57.0,108.0,28.0
2.0,59.0,105.0,22.0
2.0,53.0,118.0,504.0
2.0,55.0,108.0,14.0
2.0,57.0,104.0,2.0
2.0,59.0,104.0,10.0
2.0,55.0,119.0,552.0
2.0,57.0,94.0,6.0
2.0,59.0,96.0,60.0
2.0,57.0,119.0,596.0
2.0,59.0,82.0,16.0
2.0,55.0,118.0,262.0
2.0,57.0,99.0,10.0
2.0,59.0,93.0,56.0
2.0,53.0,114.0,194.0
2.0,55.0,94.0,14.0
2.0,57.0,73.0,0.0
2.0,59.0,96.0,10.0
2.0,59.0,116.0,284.0
2.0,55.0,127.0,162.0
2.0,59.0,127.0,578.0
2.0,55.0,127.0,152.0
2.0,57.0,106.0,20.0
2.0,59.0,96.0,22.0
2.0,52.0,127.0,48.0
2.0,53.0,110.0,14.0
2.0,55.0,106.0,18.0
2.0,48.0,127.0,46.0
2.0,50.0,117.0,18.0
2.0,52.0,125.0,12.0
2.0,47.0,127.0,42.0
2.0,48.0,127.0,2.0
2.0,50.0,122.0,12.0
2.0,43.0,127.0,28.0
2.0,45.0,109.0,10.0
2.0,47.0,115.0,58.0
2.0,40.0,127.0,36.0
2.0,52.0,84.0,176.0
2.0,53.0,127.0,50.0
2.0,55.0,127.0,26.0
2.0,57.0,101.0,24.0
2.0,57.0,127.0,46.0
2.0,59.0,127.0,14.0
2.0,38.0,127.0,100.0
2.0,50.0,127.0,152.0
2.0,52.0,127.0,40.0
2.0,53.0,127.0,24.0
2.0,55.0,127.0,20.0
2.0,55.0,127.0,36.0
2.0,57.0,127.0,10.0
2.0,59.0,127.0,4.0
2.0,36.0,127.0,72.0
2.0,48.0,127.0,154.0
2.0,47.0,127.0,30.0
2.0,48.0,127.0,16.0
2.0,45.0,127.0,28.0
2.0,43.0,127.0,34.0
2.0,45.0,114.0,0.0
2.0,47.0,116.0,6.0
2.0,48.0,127.0,46.0
2.0,50.0,97.0,18.0
2.0,52.0,96.0,18.0
2.0,47.0,118.0,48.0
2.0,48.0,98.0,26.0
2.0,50.0,100.0,26.0
2.0,52.0,123.0,54.0
2.0,53.0,102.0,18.0
2.0,55.0,95.0,22.0
2.0,55.0,127.0,48.0
2.0,57.0,116.0,16.0
2.0,59.0,107.0,4.0
2.0,59.0,127.0,238.0
2.0,55.0,127.0,984.0
2.0,52.0,127.0,24.0
2.0,48.0,127.0,28.0
2.0,36.0,127.0,182.0
2.0,48.0,127.0,10.0
2.0,47.0,125.0,22.0
2.0,48.0,120.0,20.0
2.0,41.0,127.0,20.0
2.0,59.0,127.0,28.0
2.0,43.0,127.0,0.0
2.0,55.0,127.0,134.0
2.0,45.0,121.0,0.0
2.0,47.0,112.0,24.0
2.0,48.0,127.0,32.0
2.0,50.0,127.0,24.0
2.0,52.0,124.0,16.0
2.0,54.0,125.0,32.0
2.0,55.0,127.0,48.0
2.0,57.0,124.0,2.0
2.0,47.0,127.0,54.0
2.0,59.0,106.0,24.0
2.0,57.0,127.0,6.0
2.0,56.0,122.0,2.0
2.0,57.0,127.0,54.0
2.0,54.0,125.0,18.0
2.0,56.0,127.0,14.0
2.0,54.0,127.0,0.0
2.0,52.0,127.0,28.0
2.0,50.0,127.0,26.0
2.0,49.0,100.0,0.0
2.0,47.0,118.0,12.0
2.0,45.0,126.0,12.0
2.0,57.0,120.0,18.0
2.0,55.0,113.0,10.0
2.0,54.0,122.0,8.0
2.0,55.0,117.0,6.0
2.0,52.0,125.0,18.0
2.0,54.0,123.0,10.0
2.0,52.0,127.0,0.0
2.0,50.0,125.0,20.0
2.0,48.0,127.0,32.0
2.0,47.0,122.0,56.0
2.0,45.0,104.0,8.0
2.0,43.0,127.0,60.0
2.0,59.0,127.0,4.0
2.0,55.0,127.0,20.0
2.0,54.0,122.0,36.0
2.0,52.0,123.0,56.0
2.0,51.0,107.0,2.0
2.0,52.0,120.0,58.0
2.0,42.0,127.0,54.0
2.0,57.0,127.0,6.0
2.0,54.0,113.0,20.0
2.0,52.0,127.0,20.0
2.0,51.0,115.0,68.0
2.0,49.0,91.0,4.0
2.0,51.0,125.0,56.0
2.0,40.0,127.0,64.0
2.0,55.0,127.0,0.0
2.0,52.0,127.0,20.0
2.0,50.0,127.0,24.0
2.0,48.0,120.0,70.0
2.0,47.0,125.0,4.0
2.0,45.0,127.0,60.0
2.0,47.0,127.0,32.0
2.0,59.0,110.0,186.0
2.0,49.0,110.0,4.0
2.0,51.0,126.0,48.0
2.0,52.0,127.0,48.0
2.0,54.0,101.0,20.0
2.0,55.0,96.0,24.0
2.0,48.0,127.0,48.0
2.0,50.0,122.0,24.0
2.0,52.0,108.0,18.0
2.0,54.0,110.0,48.0
2.0,55.0,94.0,10.0
2.0,57.0,99.0,10.0
2.0,50.0,127.0,44.0
2.0,52.0,127.0,0.0
2.0,54.0,117.0,48.0
2.0,55.0,127.0,48.0
2.0,57.0,105.0,8.0
2.0,59.0,105.0,8.0
2.0,52.0,127.0,44.0
2.0,54.0,122.0,60.0
2.0,55.0,127.0,38.0
2.0,57.0,127.0,48.0
2.0,59.0,113.0,6.0
2.0,54.0,127.0,88.0
2.0,55.0,121.0,64.0
2.0,57.0,99.0,0.0
2.0,59.0,127.0,48.0
2.0,52.0,116.0,402.0
2.0,54.0,98.0,8.0
2.0,55.0,92.0,4.0
2.0,57.0,102.0,6.0
2.0,59.0,105.0,30.0
2.0,54.0,120.0,496.0
2.0,56.0,105.0,62.0
2.0,57.0,103.0,38.0
2.0,59.0,104.0,10.0
2.0,57.0,119.0,560.0
2.0,59.0,96.0,56.0
2.0,55.0,127.0,248.0
2.0,57.0,88.0,12.0
2.0,59.0,70.0,4.0
2.0,57.0,106.0,278.0
2.0,59.0,127.0,38.0
2.0,47.0,89.0,56.0
2.0,52.0,127.0,40.0
2.0,54.0,127.0,64.0
2.0,55.0,122.0,8.0
2.0,55.0,127.0,34.0
2.0,57.0,107.0,12.0
2.0,58.0,110.0,34.0
2.0,49.0,123.0,40.0
2.0,45.0,107.0,170.0
2.0,50.0,106.0,40.0
2.0,48.0,98.0,164.0
2.0,47.0,89.0,154.0
2.0,43.0,77.0,64.0
2.0,48.0,75.0,44.0
2.0,47.0,67.0,178.0
2.0,45.0,60.0,168.0
2.0,57.0,53.0,70.0
2.0,56.0,42.0,22.0
2.0,59.0,38.0,118.0
2.0,57.0,36.0,16.0
2.0,53.0,32.0,26.0
2.0,53.0,12.0,22.0
2.0,52.0,26.0,40.0
2.0,40.0,22.0,52.0
2.0,42.0,20.0,56.0
2.0,44.0,20.0,40.0
2.0,45.0,18.0,44.0
2.0,47.0,17.0,6.0
2.0,48.0,15.0,22.0
2.0,44.0,14.0,48.0
2.0,45.0,13.0,0.0
2.0,47.0,12.0,10.0
2.0,48.0,11.0,50.0
2.0,50.0,10.0,20.0
2.0,52.0,9.0,4.0
2.0,52.0,8.0,40.0
2.0,54.0,7.0,52.0
2.0,56.0,6.0,34.0
2.0,57.0,6.0,32.0
2.0,59.0,5.0,4.0
2.0,56.0,3.0,76.0
2.0,57.0,3.0,2.0
2.0,59.0,2.0,4.0
0.0,0.0,0.0,0.0
0.0,0.0,0.0,0.0
0.0,0.0,0.0,0.0
0.0,0.0,0.0,0.0
0.0,0.0,0.0,0.0
0.0,0.0,0.0,0.0
0.0,0.0,0.0,0.0
0.0,0.0,0.0,0.0
0.0,0.0,0.0,0.0
0.0,0.0,0.0,0.0
0.0,0.0,0.0,0.0
0.0,0.0,0.0,0.0
0.0,0.0,0.0,0.0
0.0,0.0,0.0,0.0
0.0,0.0,0.0,0.0
0.0,0.0,0.0,0.0
0.0,0.0,0.0,0.0
0.0,0.0,0.0,0.0
0.0,0.0,0.0,0.0
0.0,0.0,0.0,0.0
0.0,0.0,0.0,0.0
0.0,0.0,0.0,0.0
0.0,0.0,0.0,0.0
0.0,0.0,0.0,0.0
0.0,0.0,0.0,0.0
0.0,0.0,0.0,0.0
0.0,0.0,0.0,0.0
0.0,0.0,0.0,0.0
0.0,0.0,0.0,0.0
0.0,0.0,0.0,0.0
0.0,0.0,0.0,0.0
0.0,0.0,0.0,0.0
0.0,0.0,0.0,0.0
0.0,0.0,0.0,0.0
0.0,0.0,0.0,0.0
0.0,0.0,0.0,0.0
0.0,0.0,0.0,0.0
0.0,0.0,0.0,0.0
0.0,0.0,0.0,0.0
0.0,0.0,0.0,0.0
0.0,0.0,0.0,0.0
0.0,0.0,0.0,0.0
0.0,0.0,0.0,0.0
0.0,0.0,0.0,0.0
0.0,0.0,0.0,0.0
0.0,0.0,0.0,0.0
0.0,0.0,0.0,0.0
0.0,0.0,0.0,0.0
0.0,0.0,0.0,0.0
0.0,0.0,0.0,0.0
0.0,0.0,0.0,0.0
0.0,0.0,0.0,0.0
0.0,0.0,0.0,0.0
0.0,0.0,0.0,0.0
0.0,0.0,0.0,0.0
0.0,0.0,0.0,0.0
0.0,0.0,0.0,0.0
0.0,0.0,0.0,0.0
0.0,0.0,0.0,0.0
0.0,0.0,0.0,0.0
0.0,0.0,0.0,0.0
0.0,0.0,0.0,0.0
0.0,0.0,0.0,0.0
0.0,0.0,0.0,0.0
0.0,0.0,0.0,0.0
0.0,0.0,0.0,0.0
0.0,0.0,0.0,0.0
0.0,0.0,0.0,0.0
0.0,0.0,0.0,0.0
0.0,0.0,0.0,0.0
0.0,0.0,0.0,0.0
0.0,0.0,0.0,0.0
0.0,0.0,0.0,0.0
0.0,0.0,0.0,0.0
0.0,0.0,0.0,0.0
0.0,0.0,0.0,0.0
0.0,0.0,0.0,0.0
0.0,0.0,0.0,0.0
0.0,0.0,0.0,0.0
0.0,0.0,0.0,0.0
0.0,0.0,0.0,0.0
0.0,0.0,0.0,0.0
0.0,0.0,0.0,0.0
0.0,0.0,0.0,0.0
0.0,0.0,0.0,0.0
0.0,0.0,0.0,0.0
0.0,0.0,0.0,0.0
0.0,0.0,0.0,0.0
0.0,0.0,0.0,0.0
0.0,0.0,0.0,0.0
0.0,0.0,0.0,0.0
0.0,0.0,0.0,0.0
0.0,0.0,0.0,0.0
0.0,0.0,0.0,0.0
0.0,0.0,0.0,0.0
0.0,0.0,0.0,0.0
0.0,0.0,0.0,0.0
0.0,0.0,0.0,0.0
0.0,0.0,0.0,0.0
0.0,0.0,0.0,0.0
0.0,0.0,0.0,0.0
0.0,0.0,0.0,0.0
0.0,0.0,0.0,0.0
0.0,0.0,0.0,0.0
0.0,0.0,0.0,0.0
0.0,0.0,0.0,0.0
0.0,0.0,0.0,0.0
0.0,0.0,0.0,0.0
0.0,0.0,0.0,0.0
0.0,0.0,0.0,0.0
0.0,0.0,0.0,0.0
0.0,0.0,0.0,0.0
0.0,0.0,0.0,0.0
0.0,0.0,0.0,0.0
0.0,0.0,0.0,0.0
0.0,0.0,0.0,0.0
0.0,0.0,0.0,0.0
0.0,0.0,0.0,0.0
0.0,0.0,0.0,0.0
0.0,0.0,0.0,0.0
0.0,0.0,0.0,0.0
0.0,0.0,0.0,0.0
0.0,0.0,0.0,0.0
0.0,0.0,0.0,0.0
0.0,0.0,0.0,0.0
0.0,0.0,0.0,0.0
0.0,0.0,0.0,0.0
0.0,0.0,0.0,0.0
0.0,0.0,0.0,0.0
0.0,0.0,0.0,0.0
0.0,0.0,0.0,0.0
0.0,0.0,0.0,0.0
0.0,0.0,0.0,0.0
0.0,0.0,0.0,0.0
0.0,0.0,0.0,0.0
0.0,0.0,0.0,0.0
0.0,0.0,0.0,0.0
0.0,0.0,0.0,0.0
0.0,0.0,0.0,0.0
0.0,0.0,0.0,0.0
0.0,0.0,0.0,0.0
0.0,0.0,0.0,0.0
0.0,0.0,0.0,0.0
0.0,0.0,0.0,0.0
0.0,0.0,0.0,0.0
0.0,0.0,0.0,0.0
0.0,0.0,0.0,0.0
0.0,0.0,0.0,0.0
0.0,0.0,0.0,0.0
0.0,0.0,0.0,0.0
0.0,0.0,0.0,0.0
0.0,0.0,0.0,0.0
0.0,0.0,0.0,0.0
0.0,0.0,0.0,0.0
0.0,0.0,0.0,0.0
0.0,0.0,0.0,0.0
0.0,0.0,0.0,0.0
0.0,0.0,0.0,0.0
0.0,0.0,0.0,0.0
0.0,0.0,0.0,0.0
0.0,0.0,0.0,0.0
0.0,0.0,0.0,0.0
0.0,0.0,0.0,0.0
0.0,0.0,0.0,0.0
0.0,0.0,0.0,0.0
0.0,0.0,0.0,0.0
0.0,0.0,0.0,0.0
0.0,0.0,0.0,0.0
0.0,0.0,0.0,0.0
0.0,0.0,0.0,0.0
0.0,0.0,0.0,0.0
0.0,0.0,0.0,0.0
0.0,0.0,0.0,0.0
0.0,0.0,0.0,0.0
0.0,0.0,0.0,0.0
0.0,0.0,0.0,0.0
0.0,0.0,0.0,0.0
0.0,0.0,0.0,0.0
0.0,0.0,0.0,0.0
0.0,0.0,0.0,0.0
0.0,0.0,0.0,0.0
0.0,0.0,0.0,0.0
0.0,0.0,0.0,0.0
0.0,0.0,0.0,0.0
0.0,0.0,0.0,0.0
0.0,0.0,0.0,0.0
0.0,0.0,0.0,0.0
0.0,0.0,0.0,0.0
0.0,0.0,0.0,0.0
0.0,0.0,0.0,0.0
0.0,0.0,0.0,0.0
0.0,0.0,0.0,0.0
0.0,0.0,0.0,0.0
0.0,0.0,0.0,0.0
0.0,0.0,0.0,0.0
0.0,0.0,0.0,0.0
0.0,0.0,0.0,0.0
0.0,0.0,0.0,0.0
0.0,0.0,0.0,0.0
0.0,0.0,0.0,0.0
0.0,0.0,0.0,0.0
0.0,0.0,0.0,0.0
0.0,0.0,0.0,0.0
0.0,0.0,0.0,0.0
0.0,0.0,0.0,0.0
0.0,0.0,0.0,0.0
0.0,0.0,0.0,0.0
0.0,0.0,0.0,0.0
0.0,0.0,0.0,0.0
0.0,0.0,0.0,0.0
0.0,0.0,0.0,0.0
0.0,0.0,0.0,0.0
0.0,0.0,0.0,0.0
0.0,0.0,0.0,0.0
0.0,0.0,0.0,0.0
0.0,0.0,0.0,0.0
0.0,0.0,0.0,0.0
0.0,0.0,0.0,0.0
0.0,0.0,0.0,0.0
0.0,0.0,0.0,0.0
0.0,0.0,0.0,0.0
0.0,0.0,0.0,0.0
0.0,0.0,0.0,0.0
0.0,0.0,0.0,0.0
0.0,0.0,0.0,0.0
0.0,0.0,0.0,0.0
0.0,0.0,0.0,0.0
0.0,0.0,0.0,0.0
0.0,0.0,0.0,0.0
0.0,0.0,0.0,0.0
0.0,0.0,0.0,0.0
0.0,0.0,0.0,0.0
0.0,0.0,0.0,0.0
0.0,0.0,0.0,0.0
0.0,0.0,0.0,0.0
0.0,0.0,0.0,0.0
0.0,0.0,0.0,0.0
0.0,0.0,0.0,0.0
0.0,0.0,0.0,0.0
0.0,0.0,0.0,0.0
0.0,0.0,0.0,0.0
0.0,0.0,0.0,0.0
0.0,0.0,0.0,0.0
0.0,0.0,0.0,0.0
0.0,0.0,0.0,0.0
0.0,0.0,0.0,0.0
0.0,0.0,0.0,0.0
0.0,0.0,0.0,0.0
0.0,0.0,0.0,0.0
0.0,0.0,0.0,0.0
0.0,0.0,0.0,0.0
0.0,0.0,0.0,0.0
0.0,0.0,0.0,0.0
0.0,0.0,0.0,0.0
0.0,0.0,0.0,0.0
0.0,0.0,0.0,0.0
0.0,0.0,0.0,0.0
0.0,0.0,0.0,0.0
0.0,0.0,0.0,0.0
0.0,0.0,0.0,0.0
0.0,0.0,0.0,0.0
