track,note,velocity,time
1,67,108,960
1,66,108,96
1,67,105,6
1,62,100,20
1,60,88,2
1,62,99,100
1,67,103,34
1,66,88,96
1,67,103,4
1,59,96,50
1,57,90,4
1,59,102,98
1,67,100,58
1,66,91,0
1,67,100,2
1,55,86,74
1,57,99,96
1,59,93,88
1,61,97,42
1,62,88,50
1,61,84,96
1,62,91,92
1,64,99,86
1,62,93,88
1,66,104,88
1,62,93,2
1,67,99,96
1,62,88,6
1,61,90,94
1,62,84,88
1,64,99,92
1,62,93,90
1,69,89,88
1,62,87,12
1,71,99,2
1,62,89,0
1,61,96,94
1,62,84,90
1,64,97,84
1,62,97,6
1,72,99,96
1,62,88,10
1,74,103,4
1,71,90,96
1,69,96,176
1,67,90,0
1,69,106,96
1,67,100,4
1,66,100,2
1,67,101,98
1,66,103,176
1,64,94,8
1,62,93,100
1,67,105,88
1,62,93,0
1,67,102,0
1,64,90,98
1,62,88,168
1,60,87,4
1,59,87,96
1,67,96,84
1,59,90,90
1,67,98,88
1,60,94,84
1,59,93,12
1,57,100,96
1,55,98,8
1,67,101,96
1,57,97,92
1,67,91,92
1,59,89,2
1,67,89,94
1,61,88,94
1,67,97,84
1,62,88,0
1,66,104,96
1,62,90,76
1,67,105,96
1,62,90,2
1,69,99,94
1,62,97,16
1,71,100,0
1,62,98,10
1,72,103,96
1,62,96,10
1,74,104,98
1,71,103,88
1,69,96,170
1,67,98,8
1,62,106,58
1,66,107,64
1,67,105,54
1,66,105,190
1,64,99,0
1,62,97,96
1,60,105,88
1,59,104,88
1,57,100,2
1,59,100,100
1,57,99,0
1,55,98,2
1,62,96,96
1,62,101,60
1,55,97,68
1,74,104,186
1,71,93,2
1,79,103,0
1,72,101,92
1,69,90,2
1,78,105,0
1,74,96,88
1,71,88,4
1,79,96,0
1,67,93,14
1,74,97,0
1,71,91,0
1,72,88,84
1,66,99,4
1,69,87,0
1,74,102,0
1,67,94,2
1,71,93,2
1,74,90,1136
1,79,91,4
1,83,82,98
1,81,87,80
1,79,83,4
1,78,88,96
1,81,70,86
1,74,85,86
1,76,96,74
1,78,96,86
1,79,96,82
1,81,96,82
1,73,104,2
1,76,86,0
1,79,90,86
1,78,88,6
1,78,99,0
1,74,96,2
1,81,84,84
1,74,84,2
1,86,96,4
1,76,88,94
1,78,99,14
1,79,85,82
1,81,96,82
1,76,102,2
1,85,88,0
1,79,90,90
1,86,99,2
1,78,88,0
1,78,81,0
1,81,88,80
1,81,94,10
1,74,88,0
1,86,97,0
1,76,96,92
1,74,86,10
1,78,89,4
1,79,94,86
1,76,100,82
1,81,91,2
1,85,107,0
1,79,98,90
1,78,101,4
1,86,99,2
1,76,88,2
1,74,89,62
1,76,90,86
1,74,94,170
1,73,91,86
1,74,88,90
1,73,84,4
1,71,71,96
1,69,84,94
1,74,97,82
1,69,83,92
1,74,88,2
1,71,86,100
1,69,96,176
1,67,81,0
1,66,105,12
1,74,78,10
1,66,98,96
1,74,99,2
1,67,85,98
1,66,78,188
1,64,85,90
1,62,75,0
1,74,103,98
1,64,88,4
1,74,97,4
1,66,94,96
1,74,99,2
1,68,88,98
1,74,93,0
1,69,86,8
1,73,78,98
1,69,84,78
1,74,99,96
1,69,84,4
1,76,89,94
1,69,82,6
1,78,86,94
1,69,69,92
1,79,98,0
1,69,83,96
1,81,88,0
1,78,99,96
1,76,90,6
1,74,83,96
1,69,86,2
1,73,91,2
1,74,87,4
1,74,88,204
1,67,93,4
1,79,96,4
1,72,99,90
1,69,87,2
1,78,87,2
1,74,88,78
1,71,86,0
1,79,99,4
1,67,90,8
1,74,85,0
1,71,85,2
1,72,85,0
1,66,85,2
1,69,86,2
1,71,88,2
1,67,84,2
1,74,97,0
1,71,95,1142
1,72,102,94
1,74,99,88
1,76,107,182
1,69,98,2
1,78,103,6
1,81,103,2
1,86,78,2
1,79,98,4
1,76,88,2
1,85,81,0
1,86,84,4
1,74,85,0
1,81,97,2
1,78,87,382
1,81,88,0
1,86,69,2
1,76,88,0
1,79,88,0
1,85,96,2
1,74,85,0
1,81,78,0
1,86,88,0
1,78,88,390
1,86,78,0
1,81,78,4
1,76,87,0
1,85,81,0
1,79,91,2
1,74,87,0
1,81,83,0
1,86,83,0
1,74,103,394
1,78,108,192
1,81,98,6
1,78,107,194
1,74,103,0
1,78,108,194
1,81,97,8
1,78,96,192
1,69,93,2
1,74,105,8
1,78,101,94
1,76,105,84
1,74,103,84
1,73,108,84
1,76,99,78
1,69,99,92
1,71,99,90
1,73,86,84
1,74,98,12
1,76,99,98
1,69,105,0
1,73,97,0
1,78,107,92
1,79,105,88
1,67,104,4
1,71,88,2
1,71,97,0
1,64,91,4
1,66,96,94
1,67,99,48
1,69,99,88
1,79,105,88
1,71,96,6
1,76,99,0
1,73,88,78
1,78,105,88
1,74,99,2
1,74,97,0
1,78,99,0
1,71,99,0
1,73,95,92
1,74,99,94
1,76,108,90
1,78,108,86
1,78,104,0
1,74,93,1
1,79,99,6
1,78,106,96
1,73,107,2
1,81,108,0
1,78,105,4
1,74,101,2
1,81,108,2
1,74,99,54
1,78,108,0
1,81,108,4
1,71,96,0
1,76,103,0
1,79,108,2
1,78,108,4
1,78,105,0
1,73,84,0
1,71,100,90
1,76,87,0
1,79,108,0
1,79,108,54
1,73,97,2
1,76,100,2
1,73,98,52
1,79,108,0
1,76,99,0
1,78,108,6
1,69,88,2
1,74,105,0
1,76,104,2
1,76,96,0
1,71,96,2
1,69,83,4
1,78,108,0
1,74,105,2
1,76,108,2
1,71,96,0
1,67,98,2
1,74,101,0
1,66,84,2
1,69,98,88
1,64,84,0
1,69,99,0
1,73,108,40
1,64,90,2
1,69,99,0
1,66,86,4
1,74,108,2
1,69,103,4
1,73,99,86
1,74,100,2
1,76,102,96
1,74,99,32
1,78,108,88
1,74,80,80
1,74,107,0
1,73,90,88
1,79,108,2
1,74,98,4
1,74,82,0
1,73,99,90
1,74,91,6
1,76,105,88
1,74,99,100
1,81,102,4
1,74,105,6
1,74,97,0
1,83,105,94
1,73,98,2
1,78,100,92
1,74,88,0
1,76,104,88
1,78,95,56
1,69,94,4
1,74,83,0
1,79,108,6
1,78,108,58
1,69,97,4
1,74,87,0
1,69,107,0
1,74,86,2
1,71,94,0
1,79,108,0
1,71,108,0
1,74,85,0
1,69,99,2
1,78,108,4
1,76,108,102
1,74,83,2
1,69,87,2
1,78,108,2
1,79,108,4
1,69,89,60
1,78,108,2
1,74,85,2
1,72,108,2
1,71,86,0
1,79,108,0
1,74,88,2
1,71,108,0
1,74,87,24
1,62,91,0
1,69,108,2
1,67,99,2
1,74,105,70
1,69,108,2
1,62,106,2
1,71,105,76
1,74,105,6
1,69,99,0
1,62,105,2
1,79,108,96
1,69,102,8
1,74,101,4
1,69,100,0
1,78,108,4
1,79,108,78
1,74,104,0
1,67,96,0
1,66,101,94
1,67,98,90
1,69,100,42
1,67,99,34
1,71,100,92
1,67,99,80
1,67,99,0
1,66,70,86
1,72,101,4
1,67,100,0
1,67,96,0
1,66,104,84
1,67,97,86
1,69,98,92
1,67,88,86
1,74,94,92
1,67,88,2
1,67,99,0
1,66,79,94
1,76,96,2
1,71,96,94
1,67,87,0
1,69,96,86
1,67,97,82
1,62,83,2
1,71,91,2
1,72,93,84
1,67,98,66
1,62,87,0
1,71,100,2
1,62,88,0
1,67,97,82
1,64,88,2
1,72,105,0
1,64,97,0
1,62,83,38
1,67,94,0
1,71,105,0
1,69,99,0
1,67,99,60
1,62,87,2
1,71,87,0
1,72,90,82
1,62,85,68
1,67,94,0
1,71,96,2
1,65,87,6
1,67,94,60
1,64,88,2
1,72,96,0
1,64,88,0
1,55,90,54
1,62,99,2
1,67,98,4
1,60,100,92
1,62,99,76
1,55,105,0
1,67,105,4
1,64,99,90
1,62,101,6
1,67,106,0
1,55,103,2
1,72,105,2
1,62,104,10
1,62,98,0
1,55,101,1
1,71,107,98
1,55,105,74
1,72,106,0
1,60,100,0
1,67,96,4
1,69,101,90
1,71,88,82
1,72,98,0
1,81,89,384
1,84,99,2
1,76,99,2
1,83,84,92
1,83,101,0
1,77,88,2
1,84,96,2
1,76,99,2
1,81,98,0
1,84,96,2
1,77,86,0
1,81,86,2
1,81,88,56
1,84,88,0
1,77,88,0
1,83,97,4
1,74,87,0
1,79,88,0
1,81,96,2
1,76,84,0
1,81,81,0
1,74,93,84
1,83,90,0
1,79,93,0
1,76,91,56
1,79,91,0
1,83,87,0
1,82,88,50
1,79,96,2
1,76,91,0
1,81,93,10
1,72,85,2
1,77,88,2
1,74,85,2
1,79,89,0
1,76,98,0
1,77,96,4
1,72,96,0
1,81,99,0
1,79,100,0
1,69,88,18
1,77,91,2
1,74,99,0
1,76,91,4
1,71,94,0
1,74,99,2
1,67,89,2
1,71,97,0
1,67,90,52
1,67,88,0
1,71,90,0
1,69,99,92
1,71,88,54
1,67,87,2
1,71,88,0
1,72,90,8
1,69,84,4
1,74,103,70
1,67,97,0
1,71,98,2
1,72,85,82
1,76,99,0
1,74,91,24
1,77,97,2
1,62,93,2
1,79,96,0
1,77,88,46
1,76,99,0
1,60,85,2
1,67,87,0
1,77,99,46
1,79,99,48
1,62,87,40
1,67,85,4
1,74,99,2
1,62,89,58
1,67,88,2
1,72,99,6
1,64,93,30
1,67,88,4
1,72,98,0
1,62,84,0
1,71,87,6
1,65,88,0
1,64,96,78
1,67,86,0
1,72,101,0
1,65,84,86
1,74,85,4
1,69,88,2
1,64,77,4
1,72,85,0
1,67,86,2
1,72,90,0
1,76,90,0
1,67,89,0
1,74,88,8
1,71,86,4
1,65,85,0
1,77,83,84
1,69,89,0
1,74,84,0
1,76,98,2
1,72,99,2
1,67,88,0
1,74,85,0
1,65,85,4
1,71,82,0
1,76,90,0
1,67,88,4
1,72,97,0
1,77,82,82
1,69,81,0
1,74,86,0
1,76,75,0
1,67,83,2
1,72,85,2
1,72,96,0
1,79,91,0
1,76,96,0
1,67,96,82
1,77,99,0
1,74,97,0
1,81,78,92
1,74,99,0
1,77,99,0
1,67,91,96
1,79,90,0
1,76,99,0
1,77,87,2
1,72,97,0
1,74,94,0
1,67,93,92
1,79,85,0
1,76,97,2
1,81,82,4
1,77,85,0
1,71,88,2
1,79,93,86
1,67,86,2
1,76,90,0
1,81,81,6
1,72,91,0
1,77,85,0
1,79,93,2
1,67,96,2
1,76,93,0
1,77,88,4
1,71,89,0
1,74,88,4
1,76,85,88
1,67,93,2
1,72,104,2
1,77,87,0
1,69,85,2
1,74,86,0
1,76,96,88
1,67,87,0
1,72,99,2
1,74,84,0
1,65,88,2
1,71,86,0
1,67,93,8
1,72,88,0
1,72,88,0
1,76,88,84
1,69,88,94
1,74,99,0
1,62,88,0
1,72,86,94
1,62,91,64
1,67,98,0
1,71,87,0
1,59,88,0
1,62,86,2
1,67,87,0
1,55,101,188
1,59,105,2
1,62,98,2
1,59,91,192
1,55,97,4
1,59,99,190
1,62,99,6
1,59,89,192
1,55,96,2
1,62,98,190
1,62,99,50
1,62,99,56
1,62,100,52
1,74,96,400
1,69,90,2
1,66,65,4
1,67,90,0
1,73,101,0
1,64,85,2
1,66,100,94
1,74,88,2
1,69,83,0
1,66,69,408
1,69,88,2
1,74,84,0
1,67,88,4
1,64,85,2
1,73,90,2
1,66,91,90
1,69,85,0
1,74,89,0
1,66,83,408
1,72,87,2
1,69,88,2
1,67,87,16
1,71,87,0
1,67,88,0
1,72,99,2
1,66,101,2
1,69,86,2
1,67,88,2
1,71,88,0
1,62,86,2
1,66,89,0
1,69,84,0
1,67,86,64
1,62,81,0
1,74,87,0
1,67,89,0
1,72,81,0
1,62,96,2
1,71,88,2
1,60,90,14
1,72,86,0
1,66,88,0
1,67,83,192
1,71,83,0
1,62,85,2
1,69,80,2
1,69,83,0
1,67,96,62
1,62,93,2
1,71,82,0
1,67,84,0
1,62,87,372
1,59,88,68
1,55,86,68
1,74,87,634
1,71,78,4
1,67,86,0
1,66,83,0
1,72,88,2
1,69,82,2
1,74,99,2
1,71,85,2
1,67,86,0
1,79,84,28
1,71,87,2
1,74,87,0
1,72,87,94
1,78,87,0
1,69,87,0
1,74,86,0
1,79,97,0
1,71,96,2
1,71,82,38
1,74,91,0
1,67,86,4
1,66,87,8
1,69,84,0
1,72,84,0
1,71,88,94
1,74,93,0
1,67,87,0
1,79,99,788
1,78,98,92
1,79,105,8
1,67,98,44
1,69,96,92
1,71,101,94
1,73,89,10
1,66,99,2
1,69,83,4
1,74,88,0
1,64,88,94
1,67,91,0
1,73,94,0
1,66,103,0
1,69,81,0
1,74,88,0
1,67,96,0
1,71,88,0
1,76,88,0
1,69,83,88
1,66,99,2
1,74,86,0
1,78,93,2
1,69,84,0
1,72,82,0
1,74,89,2
1,71,82,0
1,67,99,0
1,79,98,92
1,71,93,0
1,74,85,0
1,66,88,88
1,74,97,0
1,69,81,0
1,64,85,4
1,73,97,2
1,67,86,0
1,66,100,0
1,69,83,2
1,74,87,0
1,67,96,86
1,71,82,0
1,76,83,0
1,66,98,88
1,74,86,0
1,69,75,0
1,62,85,88
1,81,88,0
1,78,88,0
1,67,88,2
1,74,90,2
1,71,88,0
1,64,88,0
1,79,93,0
1,83,89,0
1,66,101,4
1,69,88,0
1,74,97,0
1,64,91,0
1,67,87,0
1,73,88,0
1,66,99,86
1,69,80,2
1,74,87,0
1,67,97,90
1,71,87,2
1,76,93,0
1,66,87,0
1,69,84,0
1,74,88,0
1,69,96,0
1,84,93,0
1,79,87,2
1,74,90,2
1,78,82,0
1,74,99,0
1,81,89,0
1,78,88,0
1,86,97,0
1,83,103,0
1,81,97,188
1,79,102,82
1,81,96,84
1,79,100,184
1,78,105,90
1,79,105,92
1,78,100,190
1,76,88,92
1,74,88,86
1,79,100,6
1,74,90,0
1,79,99,2
1,76,100,98
1,74,94,0
1,72,87,94
1,71,94,4
1,79,84,4
1,71,96,4
1,79,101,96
1,72,88,0
1,71,88,10
1,69,100,94
1,67,98,4
1,79,99,2
1,69,97,6
1,69,93,0
1,79,98,96
1,71,96,8
1,71,96,0
1,79,101,96
1,73,88,2
1,73,86,0
1,79,97,95
1,74,86,4
1,74,96,0
1,78,98,93
1,62,87,0
1,74,88,0
1,64,97,94
1,79,91,0
1,66,88,2
1,74,94,0
1,81,88,2
1,67,88,0
1,74,97,2
1,83,99,96
1,69,99,8
1,74,98,0
1,84,91,0
1,78,96,2
1,74,97,2
1,74,96,0
1,86,91,8
1,74,94,96
1,83,88,0
1,79,96,2
1,72,97,6
1,81,99,0
1,76,91,6
1,71,88,2
1,79,97,2
1,69,99,2
1,74,96,0
1,74,89,0
1,78,108,8
1,79,103,2
1,78,97,196
1,76,100,70
1,74,97,86
1,72,88,4
1,71,103,98
1,69,104,80
1,71,99,92
1,69,97,178
1,67,96,0
1,74,99,98
1,62,87,2
1,67,99,0
2,55,103,958
2,59,99,194
2,62,91,180
2,59,98,2
2,55,91,12
2,59,101,190
2,62,89,184
2,59,91,0
2,55,96,6
2,59,96,192
2,62,96,0
2,67,91,22
2,71,94,94
2,69,102,92
2,67,96,76
2,66,101,44
2,62,99,20
2,71,88,206
2,66,94,4
2,62,88,0
2,67,96,208
2,66,100,8
2,62,88,194
2,69,97,188
2,62,87,8
2,60,91,192
2,59,81,0
2,60,99,98
2,59,90,178
2,57,91,88
2,55,90,54
2,67,90,12
2,67,99,76
2,55,88,52
2,55,93,60
2,67,96,40
2,67,97,70
2,55,91,54
2,55,96,64
2,67,99,52
2,67,99,84
2,55,90,66
2,55,98,68
2,67,99,46
2,66,89,12
2,67,89,194
2,69,99,186
2,71,99,0
2,72,99,190
2,74,99,188
2,50,94,2100
2,55,100,192
2,62,96,190
2,67,99,194
2,67,105,584
2,62,105,0
2,71,106,2
2,66,105,92
2,60,105,2
2,69,101,0
2,67,99,2
2,62,98,0
2,71,98,0
2,62,88,2
2,67,90,2
2,59,98,0
2,57,88,0
2,66,101,0
2,60,88,2
