track,note,velocity,time
1,31,68,6492
1,35,68,192
1,38,68,192
1,43,68,192
1,31,68,192
1,38,68,576
1,38,68,192
1,31,68,576
1,31,68,192
1,31,68,576
1,35,68,192
1,39,68,192
1,40,68,192
1,42,68,192
1,43,68,192
1,45,68,192
1,33,68,576
1,38,68,192
1,26,68,192
1,31,68,576
1,35,68,192
1,38,68,192
1,43,68,192
1,31,68,192
1,38,68,576
1,38,68,192
1,31,68,576
1,31,68,192
1,31,68,576
1,35,68,192
1,39,68,192
1,40,68,192
1,42,68,192
1,43,68,192
1,45,68,192
1,33,68,576
1,38,68,192
1,38,68,192
1,31,78,19008
1,38,78,192
1,43,78,192
1,36,78,192
1,38,78,192
1,42,78,192
1,35,78,192
1,38,78,192
1,43,78,192
1,42,78,192
1,45,78,192
1,48,78,192
1,43,78,192
1,47,78,192
1,35,78,192
1,40,78,192
1,37,78,192
1,38,78,192
1,31,78,192
1,33,78,576
1,38,78,192
1,26,78,192
1,31,78,576
1,38,78,192
1,43,78,192
1,36,78,192
1,38,78,192
1,42,78,192
1,35,78,192
1,38,78,192
1,43,78,192
1,42,78,192
1,45,78,192
1,48,78,192
1,43,78,192
1,47,78,192
1,35,78,192
1,40,78,192
1,37,78,192
1,38,78,192
1,31,78,192
1,33,78,576
1,38,78,192
1,26,78,192
1,38,73,576
1,31,64,4416
1,38,73,4416
1,31,64,4416
1,31,68,4416
1,35,68,192
1,38,68,192
1,43,68,192
1,31,68,192
1,38,68,576
1,38,68,192
1,31,68,576
1,31,68,192
1,31,68,576
1,35,68,192
1,39,68,192
1,40,68,192
1,42,68,192
1,43,68,192
1,45,68,192
1,33,68,576
1,38,68,192
1,26,68,192
2,71,70,5732
2,72,80,0
2,74,82,0
2,73,70,0
2,74,82,0
2,73,70,0
2,74,82,0
2,73,70,0
2,74,82,0
2,76,78,0
2,71,82,0
2,72,82,0
2,74,85,0
2,69,80,0
2,71,70,0
2,67,70,184
2,69,80,0
2,71,82,0
2,70,76,0
2,71,82,0
2,70,70,0
2,71,82,0
2,70,70,0
2,71,82,0
2,69,87,0
2,67,85,0
2,67,85,64
2,66,80,192
2,66,85,64
2,69,80,192
2,67,87,172
2,64,80,172
2,62,70,176
2,71,70,312
2,72,80,284
2,74,82,4
2,73,70,284
2,74,82,4
2,73,70,284
2,74,82,4
2,73,70,0
2,74,82,92
2,76,85,0
2,71,82,4
2,72,82,92
2,74,85,0
2,69,80,4
2,71,70,92
2,67,70,180
2,69,80,4
2,71,82,92
2,70,76,4
2,71,82,0
2,70,70,0
2,71,82,0
2,70,70,0
2,71,82,0
2,69,87,0
2,67,85,188
2,67,88,64
2,66,80,192
2,66,88,64
2,69,80,192
2,67,87,168
2,64,80,172
2,62,70,176
2,74,78,312
2,79,82,192
2,79,71,32
2,78,73,0
2,79,82,384
2,81,88,356
2,79,80,720
2,78,69,0
2,76,80,96
2,74,73,0
2,72,86,0
2,71,58,384
2,76,83,100
2,72,83,0
2,71,80,0
2,69,62,384
2,67,73,164
2,69,78,0
2,71,85,0
2,70,73,0
2,71,85,0
2,70,67,0
2,71,85,0
2,70,73,0
2,71,78,0
2,72,90,0
2,68,83,0
2,69,78,0
2,71,93,0
2,66,81,0
2,67,75,0
2,74,75,320
2,79,79,188
2,79,68,32
2,78,70,0
2,79,79,384
2,81,85,356
2,79,77,720
2,78,66,0
2,76,77,96
2,74,70,0
2,72,83,0
2,71,55,384
2,76,80,120
2,72,80,0
2,71,77,0
2,69,59,384
2,67,73,168
2,69,78,284
2,71,85,0
2,70,73,0
2,71,85,0
2,70,67,0
2,71,85,0
2,70,73,0
2,71,78,0
2,72,90,0
2,68,83,0
2,69,78,0
2,71,88,0
2,66,81,0
2,67,75,0
2,74,80,132
2,73,83,192
2,74,85,184
2,71,85,160
2,74,77,184
2,67,80,112
2,71,76,72
2,62,80,80
2,71,76,100
2,69,87,92
2,72,77,192
2,66,80,96
2,69,78,72
2,62,78,72
2,66,76,72
2,67,87,72
2,66,73,192
2,67,87,72
2,69,78,0
2,71,80,0
2,72,83,0
2,74,87,192
2,73,78,188
2,74,86,72
2,76,82,192
2,74,78,188
2,72,73,188
2,71,87,72
2,70,78,192
2,71,80,72
2,72,78,192
2,71,80,0
2,69,73,192
2,67,88,72
2,71,77,192
2,69,83,72
2,67,82,0
2,66,81,0
2,69,75,0
2,64,87,72
2,66,70,192
2,67,87,72
2,64,85,0
2,61,83,192
2,57,75,188
2,62,75,0
2,74,80,188
2,73,83,192
2,74,85,184
2,71,85,160
2,74,77,184
2,67,80,112
2,71,82,92
2,62,80,100
2,71,80,104
2,69,87,96
2,72,77,192
2,66,80,96
2,69,78,72
2,62,78,72
2,66,76,72
2,67,87,72
2,66,73,192
2,67,87,72
2,69,78,0
2,71,80,0
2,72,83,0
2,74,87,72
2,73,78,192
2,74,86,72
2,76,82,192
2,74,78,188
2,72,73,188
2,71,87,72
2,70,78,192
2,71,80,72
2,72,78,192
2,71,80,0
2,69,73,192
2,67,88,72
2,71,77,192
2,69,83,72
2,67,82,0
2,66,81,0
2,69,75,0
2,64,87,72
2,66,70,192
2,67,87,72
2,64,85,0
2,61,83,192
2,57,75,188
2,62,75,0
2,74,91,188
2,73,82,192
2,74,95,176
2,76,98,176
2,72,98,172
2,69,87,164
2,71,87,36
2,69,89,192
2,71,91,180
2,72,85,184
2,69,85,160
2,66,80,152
2,74,90,36
2,73,87,0
2,74,93,192
2,76,93,188
2,72,90,160
2,69,87,160
2,71,87,68
2,69,91,0
2,71,98,192
2,72,85,160
2,69,89,164
2,66,80,156
2,74,83,60
2,73,80,192
2,74,75,176
2,71,75,56
2,74,73,192
2,67,73,72
2,71,73,84
2,62,75,112
2,79,70,112
2,76,80,92
2,79,75,192
2,72,73,88
2,76,73,84
2,69,75,92
2,72,75,116
2,66,80,104
2,69,75,192
2,62,80,72
2,64,79,0
2,65,82,0
2,66,83,0
2,69,82,0
2,67,70,0
2,74,91,36
2,73,82,192
2,74,95,176
2,76,98,176
2,72,98,172
2,69,87,164
2,71,87,36
2,69,89,192
2,71,91,180
2,72,85,184
2,69,85,160
2,66,80,152
2,74,90,36
2,73,87,0
2,74,93,192
2,76,93,188
2,72,90,160
2,69,87,160
2,71,87,68
2,69,91,0
2,71,98,192
2,72,85,160
2,69,89,164
2,66,80,156
2,74,83,60
2,73,80,192
2,74,75,176
2,71,75,56
2,74,73,192
2,67,73,72
2,71,73,84
2,62,75,112
2,79,70,112
2,76,80,92
2,79,75,192
2,72,73,88
2,76,73,84
2,69,75,92
2,72,75,116
2,66,80,104
2,69,75,192
2,62,80,72
2,64,79,0
2,65,82,0
2,66,83,0
2,69,82,0
2,67,70,0
2,71,70,192
2,72,80,284
2,74,82,4
2,73,70,284
2,74,82,4
2,73,70,284
2,74,82,4
2,73,70,0
2,74,82,92
2,76,85,0
2,71,82,4
2,72,82,92
2,74,85,0
2,69,80,4
2,71,70,92
2,67,70,180
2,69,80,4
2,71,82,92
2,70,76,4
2,71,82,0
2,70,70,0
2,71,82,0
2,70,70,0
2,71,82,0
2,69,87,0
2,67,85,188
2,67,85,64
2,66,80,192
2,66,85,64
2,69,80,192
2,67,87,168
2,64,80,172
2,62,70,176
2,74,75,312
2,79,79,192
2,79,68,32
2,78,70,4
2,79,79,384
2,81,85,360
2,79,77,724
2,78,66,4
2,76,77,92
2,74,70,4
2,72,83,92
2,71,55,384
2,76,80,100
2,72,80,284
2,71,77,4
2,69,59,384
2,67,73,168
2,69,78,0
2,71,85,0
2,70,73,0
2,71,85,0
2,70,67,0
2,71,85,0
2,70,73,0
2,71,78,0
2,72,90,0
2,68,83,0
2,69,78,0
2,71,93,764
2,66,81,4
2,67,75,0
3,71,70,1076
3,67,65,0
3,69,70,0
3,72,75,0
3,71,77,0
3,74,82,0
3,70,65,0
3,73,70,0
3,71,77,0
3,74,82,0
3,70,59,0
3,73,64,0
3,71,77,0
3,74,82,0
3,70,65,0
3,73,70,0
3,71,70,0
3,74,75,0
3,72,82,0
3,76,87,0
3,68,75,0
3,71,80,0
3,69,70,0
3,72,75,0
3,66,85,764
3,74,90,0
3,60,73,4
3,66,78,0
3,67,69,0
3,59,64,0
3,67,59,384
3,69,69,0
3,71,71,0
3,70,59,0
3,71,71,0
3,70,59,0
3,71,71,0
3,70,59,0
3,71,71,0
3,72,74,0
3,68,71,0
3,69,71,0
3,71,74,0
3,66,69,0
3,67,59,0
3,59,59,184
3,62,69,0
3,67,71,0
3,66,65,0
3,67,71,0
3,66,59,0
3,67,71,0
3,66,59,0
3,67,71,0
3,66,76,0
3,64,74,0
3,64,74,64
3,62,69,192
3,62,74,64
3,66,69,192
3,64,76,172
3,62,59,0
3,67,59,384
3,69,69,0
3,71,71,0
3,70,59,0
3,71,71,0
3,70,59,0
3,71,71,0
3,70,59,0
3,71,71,0
3,72,74,0
3,68,71,0
3,69,71,0
3,71,74,0
3,66,69,0
3,67,59,0
3,59,59,184
3,62,69,0
3,67,71,0
3,66,65,0
3,67,71,0
3,66,59,0
3,67,71,0
3,66,59,0
3,67,71,0
3,66,76,0
3,64,74,0
3,64,77,64
3,62,69,192
3,62,77,64
3,66,69,192
3,64,76,172
3,62,59,0
3,74,65,768
3,72,67,4
3,71,76,0
3,69,82,0
3,69,80,0
3,67,52,0
3,72,77,100
3,69,77,0
3,67,74,0
3,66,51,0
3,59,62,168
3,60,67,0
3,62,74,0
3,61,62,0
3,62,74,0
3,61,56,0
3,62,74,0
3,61,62,0
3,62,67,0
3,64,79,0
3,62,72,0
3,60,67,0
3,62,82,0
3,60,70,0
3,59,64,0
3,74,62,768
3,72,64,4
3,71,73,0
3,69,79,0
3,69,77,64
3,67,49,28
3,72,74,100
3,69,74,284
3,67,71,4
3,66,48,0
3,59,62,168
3,60,67,0
3,62,74,0
3,61,62,0
3,62,74,0
3,61,56,0
3,62,74,0
3,61,62,0
3,62,67,0
3,64,79,0
3,62,72,0
3,60,67,0
3,62,82,764
3,60,70,4
3,59,64,0
3,62,81,19780
3,61,83,0
3,62,84,188
3,64,85,0
3,60,83,4
3,57,79,0
3,59,83,0
3,58,76,188
3,59,81,0
3,60,79,4
3,62,69,0
3,62,79,32
3,62,77,24
3,62,62,48
3,64,62,0
3,66,62,0
3,62,62,0
3,64,75,188
3,65,75,4
3,66,62,188
3,66,66,4
3,67,58,380
3,62,81,1156
3,61,83,0
3,62,84,188
3,64,85,0
3,60,83,4
3,57,79,0
3,59,83,0
3,58,76,188
3,59,81,0
3,60,79,4
3,62,69,0
3,62,79,32
3,62,77,24
3,62,62,48
3,64,62,0
3,66,62,0
3,62,62,0
3,64,75,188
3,65,75,4
3,66,62,188
3,66,66,4
3,67,58,380
3,67,59,192
3,69,69,0
3,71,71,0
3,70,59,0
3,71,71,0
3,70,59,0
3,71,71,0
3,70,59,0
3,71,71,0
3,72,74,0
3,68,71,0
3,69,71,0
3,71,74,0
3,66,69,0
3,67,59,0
3,59,59,184
3,62,69,0
3,67,71,0
3,66,65,0
3,67,71,0
3,66,59,0
3,67,71,0
3,66,59,0
3,67,71,0
3,66,76,0
3,64,74,0
3,64,74,64
3,62,69,192
3,62,74,64
3,66,69,192
3,64,76,172
3,62,59,0
3,74,65,768
3,72,67,4
3,71,76,0
3,69,82,0
3,69,80,0
3,67,52,0
3,72,77,100
3,69,77,0
3,67,74,0
3,66,51,0
3,59,62,168
3,60,67,0
3,62,74,0
3,61,62,0
3,62,74,0
3,61,56,0
3,62,74,0
3,61,62,0
3,62,67,0
3,64,79,0
3,62,72,0
3,60,67,0
3,62,82,0
3,60,70,0
3,59,64,0
4,59,60,1420
4,43,60,0
4,59,65,4
4,47,65,4
4,59,70,4
4,50,70,4
4,55,70,8
4,59,68,0
4,57,70,8
4,53,70,0
4,60,80,0
4,52,70,8
4,56,70,0
4,59,73,0
4,57,68,4
4,52,70,4
4,55,70,8
4,51,70,0
4,50,70,8
4,54,70,0
4,55,65,8
4,62,68,19208
4,67,76,0
4,66,78,0
4,67,87,0
4,66,93,0
4,55,70,0
4,62,63,0
4,64,88,0
4,62,88,0
4,61,85,4
4,62,62,4
4,43,75,580
4,47,75,8
4,50,75,8
4,55,75,8
4,53,75,8
4,60,85,0
4,52,75,8
4,59,78,0
4,57,73,8
4,52,75,0
4,55,75,8
4,51,75,0
4,54,75,8
4,50,75,0
4,55,70,4
4,62,68,772
4,67,76,0
4,66,78,0
4,67,87,0
4,66,93,0
4,55,70,0
4,62,63,0
4,64,88,0
4,62,88,0
4,61,85,0
4,62,62,0
4,43,75,576
4,47,75,8
4,50,75,8
4,55,75,8
4,53,75,8
4,60,85,0
4,52,75,8
4,59,78,0
4,57,73,8
4,52,75,0
4,55,75,8
4,51,75,0
4,54,75,8
4,50,75,0
4,55,70,4
4,55,80,0
4,55,80,0
4,54,78,8
4,57,87,8
4,54,80,0
4,55,87,0
4,54,85,0
4,55,89,0
4,57,88,0
4,54,85,8
4,50,80,0
4,62,78,0
4,61,75,192
4,60,70,4
4,59,65,0
4,55,55,0
4,55,57,24
4,56,68,0
4,57,70,0
4,59,75,0
4,60,80,0
4,54,72,0
4,55,75,0
4,56,78,0
4,57,80,0
4,60,75,0
4,59,65,0
4,55,80,0
4,55,80,0
4,54,78,8
4,57,87,8
4,54,80,0
4,55,87,0
4,54,85,0
4,55,89,0
4,57,88,0
4,54,85,8
4,50,80,0
4,62,78,0
4,61,75,192
4,60,70,4
4,59,65,0
4,55,55,0
4,55,57,24
4,56,68,0
4,57,70,0
4,59,75,0
4,60,80,0
4,54,72,0
4,55,75,0
4,56,78,0
4,57,80,0
4,60,75,0
4,59,65,0
4,62,68,9792
4,67,76,0
4,66,78,0
4,67,87,0
4,66,93,0
4,55,70,0
4,62,63,0
4,64,88,0
4,62,88,0
4,61,85,0
4,62,62,0
4,43,75,576
4,47,75,8
4,50,75,8
4,55,75,8
4,53,75,8
4,60,85,0
4,52,75,8
4,59,78,0
4,57,73,8
4,52,75,0
4,55,75,8
4,51,75,0
4,54,75,8
4,50,75,0
4,55,70,4
5,50,58,6392
5,55,58,0
5,55,58,316
5,59,58,0
5,62,58,320
5,59,58,4
5,62,58,316
5,67,58,0
5,62,58,324
5,55,58,0
5,57,58,704
5,66,58,0
5,54,58,320
5,62,58,0
5,67,58,704
5,59,58,0
5,62,58,320
5,55,58,0
5,50,58,704
5,55,58,0
5,59,58,320
5,55,58,0
5,59,58,320
5,63,58,0
5,64,58,320
5,59,58,0
5,66,58,320
5,67,58,320
5,57,58,320
5,61,58,704
5,55,58,0
5,62,58,320
5,54,58,0
5,50,58,320
5,55,58,704
5,50,58,0
5,55,58,316
5,59,58,0
5,62,58,320
5,59,58,0
5,62,58,320
5,67,58,0
5,62,58,324
5,55,58,0
5,57,58,700
5,66,58,4
5,54,58,316
5,62,58,0
5,67,58,708
5,59,58,0
5,62,58,316
5,55,58,4
5,50,58,704
5,55,58,0
5,59,58,320
5,55,58,0
5,59,58,320
5,63,58,0
5,64,58,320
5,59,58,0
5,66,58,320
5,67,58,320
5,57,58,320
5,61,58,700
5,55,58,0
5,62,58,324
5,54,58,0
5,50,58,320
5,71,65,19136
5,62,65,0
5,67,65,316
5,59,65,0
5,55,65,320
5,62,65,0
5,72,65,320
5,66,65,0
5,69,65,320
5,60,65,0
5,66,65,324
5,57,65,0
5,74,65,316
5,67,65,0
5,71,65,320
5,62,65,0
5,67,65,324
5,59,65,0
5,72,65,320
5,66,65,0
5,62,65,320
5,69,65,0
5,66,65,320
5,57,65,0
5,71,65,316
5,62,65,4
5,67,65,320
5,59,65,0
5,69,65,320
5,63,65,0
5,64,65,316
5,67,65,0
5,67,65,320
5,57,65,0
5,66,65,320
5,57,65,0
5,64,65,324
5,59,65,0
5,67,65,704
5,57,65,0
5,66,65,320
5,57,65,0
5,71,65,1088
5,62,65,0
5,67,65,316
5,59,65,0
5,55,65,320
5,62,65,0
5,72,65,320
5,66,65,4
5,69,65,320
