track,note,velocity,time
1,31,116,1508
1,31,101,184
1,31,114,148
1,38,109,100
1,31,112,48
1,31,105,136
1,31,109,148
1,38,114,40
1,36,105,32
1,36,107,152
1,36,104,144
1,31,105,28
1,36,104,68
1,36,102,108
1,36,104,132
1,31,100,36
1,38,114,44
1,38,102,152
1,38,111,140
1,33,107,36
1,38,116,84
1,38,116,132
1,38,109,136
1,33,109,32
1,31,114,24
1,31,109,144
1,31,112,148
1,38,114,120
1,31,111,60
1,31,111,188
1,31,107,116
1,38,105,132
1,31,109,76
1,31,102,180
1,31,111,156
1,38,102,84
1,31,109,40
1,31,98,188
1,31,114,156
1,38,111,112
1,36,101,60
1,36,100,164
1,36,100,140
1,31,107,36
1,36,102,92
1,36,105,152
1,36,116,148
1,31,109,60
1,38,118,60
1,38,111,160
1,38,111,144
1,33,105,40
1,35,111,28
1,38,116,120
1,38,107,168
1,38,121,148
1,33,104,44
1,38,107,12
1,36,104,112
1,36,102,32
1,31,111,140
1,38,109,128
1,31,112,24
1,31,105,204
1,31,109,144
1,38,116,104
1,31,114,36
1,31,104,220
1,31,109,140
1,38,109,108
1,31,107,44
1,31,109,208
1,31,111,156
1,38,109,108
1,31,105,40
1,36,104,8
1,36,111,192
1,36,112,136
1,31,105,24
1,33,98,32
1,36,105,120
1,36,111,132
1,36,105,136
1,31,107,44
1,38,111,72
1,38,112,168
1,38,118,144
1,33,107,52
1,38,111,80
1,38,112,156
1,38,116,152
1,33,104,60
1,31,107,36
1,31,102,180
1,31,107,144
1,38,109,88
1,31,109,48
1,31,105,196
1,31,109,156
1,38,109,100
1,43,114,96
1,40,102,108
1,38,118,148
1,40,105,140
1,43,104,128
1,43,94,124
1,40,98,120
1,38,112,128
1,40,105,104
1,36,104,64
1,33,104,76
1,31,111,136
1,33,111,132
1,36,104,124
1,36,97,136
1,33,101,128
1,31,109,112
1,36,111,64
1,38,111,92
1,35,105,116
1,33,107,160
1,35,112,128
1,38,109,124
1,38,100,132
1,35,102,136
1,33,105,152
1,35,111,80
1,43,109,108
1,40,100,152
1,38,111,204
1,40,105,128
1,43,104,108
1,43,102,132
1,40,92,120
1,38,111,144
1,40,104,144
1,38,102,32
1,43,105,20
1,40,104,148
1,38,112,160
1,40,105,124
1,43,105,92
1,43,96,140
1,40,96,132
1,38,107,128
1,40,100,116
1,38,105,24
1,36,107,12
1,33,107,140
1,31,109,192
1,33,109,96
1,36,100,80
1,36,100,164
1,33,101,120
1,31,112,204
1,33,105,108
1,38,118,80
1,35,105,96
1,33,107,140
1,35,114,144
1,38,107,124
1,38,101,152
1,35,102,124
1,33,104,136
1,35,105,80
1,43,102,80
1,40,97,128
1,38,109,168
1,40,101,132
1,43,102,92
1,43,96,136
1,40,97,112
1,38,109,112
1,35,104,28
1,31,107,44
1,31,111,164
1,31,107,140
1,38,123,92
1,31,107,36
1,31,105,192
1,31,105,136
1,38,104,116
1,36,107,32
1,36,105,160
1,36,107,140
1,31,107,48
1,36,104,92
1,36,112,128
1,36,111,108
1,31,109,56
1,33,102,12
1,38,111,72
1,38,109,172
1,38,114,136
1,33,105,60
1,38,111,104
1,38,118,180
1,38,116,140
1,33,102,52
1,38,102,16
1,36,107,40
1,36,107,100
1,31,116,132
1,31,107,44
1,38,107,132
1,31,105,104
1,31,107,204
1,31,109,136
1,38,112,112
1,31,111,60
1,31,107,200
1,31,109,140
1,38,116,72
1,31,111,64
1,31,107,188
1,31,112,144
1,38,109,124
1,31,107,44
1,36,107,20
1,36,109,208
1,36,112,144
1,31,109,48
1,36,112,88
1,36,105,148
1,36,111,140
1,31,102,60
1,36,104,192
1,38,104,40
1,38,112,156
1,38,118,140
1,33,105,64
1,38,105,52
1,38,118,160
1,38,116,116
1,33,105,40
1,38,98,24
1,31,107,48
1,31,102,176
1,31,107,144
1,38,109,88
1,31,109,48
1,31,114,188
1,31,111,128
1,38,102,108
1,31,105,60
1,43,111,40
1,40,101,132
1,38,112,124
1,40,114,104
1,43,105,108
1,43,101,128
1,40,101,128
1,38,112,140
1,40,98,132
1,38,94,24
1,36,104,196
1,33,104,136
1,31,114,192
1,33,111,140
1,36,98,84
1,36,100,128
1,33,107,116
1,31,111,148
1,36,118,120
1,38,112,108
1,35,102,104
1,33,107,164
1,35,112,132
1,38,105,104
1,38,104,160
1,35,105,128
1,33,109,128
1,35,116,116
1,43,109,92
1,43,63,20
1,40,105,28
1,38,102,152
1,40,104,120
1,43,109,104
1,43,102,148
1,40,97,124
1,38,114,140
1,40,112,144
1,38,105,28
1,43,104,8
1,43,104,128
1,40,96,124
1,38,116,164
1,40,104,128
1,43,102,16
1,43,102,144
1,40,101,112
1,38,118,152
1,40,111,144
1,38,105,36
1,36,105,12
1,35,75,120
1,33,109,4
1,31,111,128
1,33,105,116
1,36,100,44
1,36,100,136
1,33,98,124
1,31,105,168
1,36,104,96
1,38,116,96
1,35,109,144
1,33,109,176
1,35,114,108
1,38,105,100
1,38,102,132
1,35,105,124
1,33,107,172
1,35,114,144
1,43,96,100
1,40,104,160
1,38,118,176
1,40,105,132
1,43,111,116
1,43,114,260
1,38,112,92
1,35,102,60
1,30,108,76
1,36,97,132
1,36,104,156
1,36,107,152
1,31,105,112
1,36,118,128
1,36,105,112
1,33,105,60
1,28,105,56
1,38,101,104
1,38,109,172
1,38,109,136
1,33,105,116
1,38,123,128
1,38,105,144
1,35,107,128
1,30,108,80
1,36,90,152
1,36,105,168
1,36,112,144
1,31,107,96
1,36,118,136
1,36,111,136
1,33,105,112
1,28,98,60
1,38,118,112
1,38,107,164
1,38,125,148
1,33,104,24
1,38,118,96
1,38,52,48
1,38,118,136
1,38,107,128
1,40,114,116
1,43,114,100
1,40,101,124
1,38,111,144
1,40,112,128
1,43,109,124
1,43,105,116
1,40,100,124
1,38,109,164
1,40,104,128
1,38,105,32
1,36,89,16
1,33,105,104
1,31,109,148
1,33,111,116
1,36,100,92
1,36,100,108
1,33,102,124
1,31,111,120
1,33,114,136
1,38,109,96
1,35,102,104
1,33,105,144
1,35,109,128
1,38,107,116
1,38,102,128
1,35,109,128
1,33,105,160
1,35,107,112
1,38,98,32
1,43,105,120
1,40,101,100
1,38,107,128
1,40,111,124
1,43,101,76
1,43,100,148
1,40,94,120
1,38,112,112
1,40,104,148
1,38,102,28
1,43,107,192
1,40,98,152
1,38,112,176
1,40,97,144
1,43,104,104
1,43,101,140
1,40,92,108
1,38,101,136
1,40,94,136
1,38,97,44
1,36,111,188
1,33,101,140
1,31,111,136
1,33,107,120
1,36,102,108
1,36,94,128
1,33,107,132
1,31,107,132
1,36,102,92
1,38,105,92
1,35,109,136
1,33,107,172
1,35,112,132
1,38,116,124
1,38,102,136
1,35,104,136
1,33,100,172
1,38,116,112
1,43,112,96
1,40,97,156
1,38,109,184
1,40,100,152
1,43,107,116
1,43,102,116
1,40,94,108
1,38,102,136
1,40,96,120
1,38,104,64
1,35,114,100
1,33,105,148
1,35,102,128
1,38,104,88
1,38,101,136
1,35,109,116
1,33,111,232
1,35,101,104
1,43,107,100
1,40,94,184
1,38,101,160
1,40,101,144
1,43,102,104
1,43,100,144
1,40,97,112
1,38,111,124
1,40,97,156
1,38,102,28
1,38,107,116
1,35,102,108
1,33,101,152
1,35,109,116
1,38,105,104
1,38,98,124
1,35,102,116
1,33,104,112
1,38,109,112
1,43,100,92
1,40,97,140
1,38,109,148
1,40,102,156
1,43,102,120
1,43,101,124
1,40,93,120
1,38,107,180
1,40,98,144
1,38,109,52
1,35,104,92
1,33,102,144
1,35,111,144
1,38,107,112
1,38,100,124
1,35,101,120
1,33,105,136
1,35,102,140
1,43,112,84
1,40,101,136
1,38,107,156
1,40,102,132
1,43,98,96
1,43,98,136
1,40,104,112
1,38,105,156
1,40,92,144
1,38,105,8
1,38,102,124
1,35,104,112
1,33,104,140
1,35,104,144
1,38,105,116
1,38,102,124
1,35,104,120
1,33,105,156
1,38,109,92
1,43,118,132
2,73,83,912
2,71,118,0
2,67,122,0
2,72,99,28
2,74,110,64
2,67,99,0
2,55,110,192
2,50,102,0
2,59,115,4
2,71,106,60
2,67,106,0
2,67,80,32
2,72,88,0
2,55,94,48
2,59,89,0
2,50,95,4
2,74,106,0
2,67,100,4
2,71,103,44
2,67,97,0
2,55,93,4
2,59,84,0
2,50,96,0
2,72,103,40
2,67,91,0
2,64,113,60
2,67,103,0
2,60,87,4
2,52,83,0
2,55,72,4
2,64,90,132
2,64,106,100
2,69,115,0
2,67,108,52
2,64,102,0
2,55,99,192
2,52,89,0
2,60,95,4
2,64,75,108
2,67,88,0
2,64,97,80
2,71,104,0
2,71,107,136
2,64,107,0
2,66,104,96
2,71,98,0
2,54,86,4
2,50,89,0
2,59,74,0
2,69,108,64
2,66,105,0
2,69,110,100
2,66,105,0
2,57,48,120
2,57,96,28
2,54,85,0
2,50,96,4
2,66,99,0
2,69,100,4
2,54,87,96
2,71,100,4
2,66,95,4
2,50,100,0
2,57,91,0
2,69,102,88
2,66,88,0
2,54,93,92
2,69,104,0
2,66,102,4
2,50,100,0
2,57,95,0
2,69,103,4
2,66,99,0
2,67,110,24
2,62,107,0
2,55,99,192
2,59,108,0
2,50,98,4
2,62,95,128
2,67,108,0
2,62,84,168
2,62,107,76
2,69,117,0
2,62,89,80
2,67,106,0
2,55,104,192
2,59,115,0
2,50,107,4
2,67,102,36
2,55,100,0
2,62,98,4
2,59,98,0
2,50,96,0
2,50,76,60
2,59,73,4
2,55,84,0
2,67,92,0
2,62,85,4
2,62,96,132
2,67,99,0
2,71,86,4
2,62,71,180
2,67,81,80
2,64,83,0
2,71,72,4
2,62,91,124
2,67,89,0
2,71,83,4
2,55,82,92
2,50,83,4
2,59,83,0
2,55,82,128
2,59,76,0
2,50,77,4
2,71,74,44
2,67,85,0
2,64,96,4
2,64,85,60
2,60,96,0
2,72,88,4
2,55,85,0
2,52,79,4
2,67,89,0
2,55,85,80
2,52,77,0
2,67,89,4
2,60,86,0
2,72,76,4
2,64,82,0
2,64,77,136
2,64,95,92
2,69,106,0
2,72,83,4
2,67,104,88
2,72,86,0
2,64,97,4
2,55,82,60
2,60,73,0
2,52,76,4
2,55,80,152
2,52,73,4
2,60,73,4
2,64,69,32
2,67,73,44
2,72,73,0
2,64,86,4
2,69,92,0
2,54,83,56
2,69,95,0
2,62,93,4
2,57,85,0
2,50,85,4
2,66,96,0
2,69,88,112
2,54,87,0
2,62,84,4
2,66,84,0
2,50,92,0
2,57,85,4
2,62,85,268
2,62,87,80
2,71,85,0
2,66,87,4
2,62,102,112
2,66,103,0
2,69,104,4
2,50,92,144
2,54,90,0
2,57,89,4
2,54,84,128
2,57,84,0
2,50,87,4
2,62,77,20
2,62,92,48
2,66,82,0
2,71,80,4
2,55,93,60
2,72,97,0
2,67,99,4
2,60,100,0
2,64,100,4
2,52,79,0
2,67,88,76
2,72,78,0
2,64,96,4
2,62,99,72
2,67,96,4
2,50,93,0
2,59,85,0
2,71,97,4
2,55,86,0
2,55,75,36
2,50,79,0
2,59,70,4
2,71,77,44
2,67,83,0
2,64,88,4
2,62,88,136
2,71,79,0
2,67,87,4
2,55,84,148
2,50,85,0
2,59,79,4
2,62,83,184
2,71,76,96
2,67,84,0
2,64,86,4
2,62,88,112
2,67,77,0
2,71,69,4
2,55,95,128
2,50,88,4
2,59,99,0
2,67,83,124
2,71,71,0
2,62,77,4
2,55,79,4
2,50,77,0
2,59,87,0
2,62,79,192
2,64,86,100
2,67,87,0
2,71,73,4
2,62,89,56
2,67,91,0
2,71,80,4
2,55,77,188
2,59,79,0
2,50,77,4
2,55,80,96
2,59,86,0
2,67,79,4
2,71,72,0
2,50,81,0
2,62,85,4
2,71,67,16
2,67,82,0
2,62,82,4
2,71,77,96
2,64,92,0
2,67,88,4
2,72,86,60
2,60,92,4
2,52,79,0
2,67,93,0
2,64,88,4
2,55,79,0
2,55,86,128
2,52,80,0
2,60,88,4
2,72,77,0
2,64,75,0
2,67,88,4
2,64,60,124
2,67,62,56
2,64,92,0
2,72,78,4
2,69,99,0
2,64,88,112
2,67,95,0
2,72,77,4
2,55,84,156
2,60,85,0
2,52,79,4
2,55,83,108
2,67,86,0
2,60,84,4
2,52,78,0
2,72,73,4
2,64,77,0
2,67,73,96
2,69,97,0
2,64,87,4
2,72,83,0
2,54,74,84
2,69,96,0
2,62,95,4
2,66,94,0
2,57,82,4
2,50,80,0
2,50,87,112
2,62,85,0
2,69,93,4
2,54,87,0
2,66,87,4
2,57,85,0
2,62,71,96
2,62,91,84
2,71,93,0
2,66,96,4
2,66,94,108
2,69,97,0
2,62,92,4
2,54,73,156
2,50,83,0
2,57,79,4
2,69,95,132
2,62,80,0
2,66,96,4
2,54,67,100
2,57,67,0
2,50,75,4
2,71,86,56
2,62,84,0
2,66,84,4
2,69,91,88
2,66,75,0
2,62,67,4
2,67,89,64
2,62,77,0
2,71,93,4
2,55,95,0
2,59,95,4
2,66,76,0
2,50,77,0
2,71,46,52
2,67,92,132
2,55,85,4
2,62,86,0
2,71,80,0
2,59,87,4
2,50,82,0
2,62,81,204
2,67,95,88
2,71,84,0
2,64,93,4
2,62,92,56
2,67,91,0
2,71,83,0
2,55,87,192
2,59,89,0
2,50,84,4
2,55,92,92
2,50,85,4
2,67,96,4
2,59,92,0
2,71,84,0
2,62,92,4
2,50,81,116
2,59,88,0
2,55,89,4
2,59,91,132
2,50,86,0
2,55,92,4
2,67,89,120
2,71,83,0
2,64,83,4
2,62,95,124
2,71,81,0
2,67,91,4
2,55,82,96
2,50,77,0
2,59,82,4
2,64,84,84
2,71,73,0
2,67,84,4
2,62,86,108
2,67,87,0
2,71,73,4
2,59,93,196
2,55,89,0
2,50,81,4
2,64,87,80
2,67,87,0
2,71,73,4
2,71,49,60
2,67,43,0
2,62,99,104
2,67,84,0
2,71,71,4
2,55,93,156
2,59,95,0
2,50,85,4
2,64,86,92
2,67,83,0
2,71,77,4
2,60,93,20
2,52,81,0
2,55,84,4
2,72,64,120
2,67,75,0
2,64,69,4
2,64,91,144
2,69,102,0
2,72,80,4
2,64,92,124
2,72,83,0
2,67,100,4
2,55,82,96
2,52,74,0
2,60,85,4
2,67,67,56
2,64,79,0
2,72,80,4
2,69,99,0
2,67,96,100
2,64,86,0
2,72,74,4
2,55,85,156
2,60,84,0
2,52,77,4
2,69,100,144
2,72,83,0
2,64,92,4
2,64,60,128
2,72,72,160
2,64,85,0
2,67,96,4
2,69,99,120
2,64,82,0
2,72,77,4
2,69,55,96
2,64,84,0
2,67,97,4
2,72,65,0
2,54,99,36
2,57,96,0
2,50,92,0
2,62,73,164
2,66,73,0
2,66,82,148
2,62,89,0
2,71,84,4
2,69,104,112
2,62,95,0
2,66,94,4
2,50,92,124
2,57,91,0
2,54,93,4
2,66,81,96
2,62,87,0
2,71,85,4
2,66,94,120
2,62,91,0
2,69,96,4
2,54,91,132
2,57,87,0
2,50,86,4
2,50,95,56
2,54,98,0
2,57,95,4
2,66,86,148
2,62,87,0
2,71,93,4
2,62,96,120
2,69,100,0
2,66,98,4
2,54,86,160
2,57,89,0
2,50,86,4
2,62,84,108
2,66,87,0
2,71,89,4
2,62,88,88
2,71,78,0
2,66,93,0
2,55,97,160
2,59,97,0
2,50,82,4
2,62,49,140
2,67,64,0
2,62,93,156
2,71,87,0
2,67,102,4
2,55,85,136
2,50,80,0
2,59,87,4
2,55,81,116
2,59,85,0
2,50,85,4
2,67,93,188
2,64,89,0
2,71,85,4
2,71,78,112
2,67,89,0
2,62,93,4
2,55,88,112
2,59,92,0
2,50,81,4
2,71,79,136
2,64,78,0
2,67,91,4
2,62,97,132
2,71,84,0
2,67,99,4
2,55,86,152
2,59,89,0
2,50,77,4
2,71,69,116
2,64,67,0
2,67,84,4
2,62,93,116
2,67,87,0
2,71,73,4
2,55,76,132
2,59,81,0
2,50,77,4
2,55,92,100
2,50,82,0
2,59,89,0
2,64,83,192
2,67,91,0
