track,note,velocity,time
1.0,55.0,68.0,3016.0
1.0,57.0,68.0,72.0
1.0,58.0,70.0,4.0
1.0,57.0,66.0,172.0
1.0,54.0,68.0,64.0
1.0,55.0,60.0,8.0
1.0,51.0,68.0,152.0
1.0,55.0,91.0,104.0
1.0,57.0,70.0,80.0
1.0,58.0,85.0,12.0
1.0,57.0,75.0,176.0
1.0,54.0,68.0,68.0
1.0,55.0,85.0,12.0
1.0,50.0,79.0,184.0
1.0,55.0,68.0,152.0
1.0,46.0,71.0,4.0
1.0,48.0,62.0,132.0
1.0,48.0,62.0,140.0
1.0,50.0,78.0,124.0
1.0,48.0,84.0,476.0
1.0,50.0,85.0,92.0
1.0,52.0,82.0,20.0
1.0,54.0,77.0,96.0
1.0,52.0,75.0,84.0
1.0,54.0,79.0,8.0
1.0,50.0,81.0,20.0
1.0,55.0,94.0,20.0
1.0,57.0,74.0,8.0
1.0,58.0,81.0,32.0
1.0,57.0,72.0,172.0
1.0,54.0,75.0,72.0
1.0,55.0,60.0,8.0
1.0,51.0,72.0,160.0
1.0,55.0,96.0,116.0
1.0,57.0,68.0,8.0
1.0,58.0,80.0,8.0
1.0,57.0,77.0,184.0
1.0,54.0,74.0,68.0
1.0,55.0,76.0,0.0
1.0,50.0,70.0,180.0
1.0,55.0,78.0,96.0
1.0,46.0,77.0,4.0
1.0,48.0,74.0,104.0
1.0,48.0,76.0,164.0
1.0,50.0,79.0,192.0
1.0,38.0,61.0,148.0
1.0,43.0,76.0,160.0
1.0,46.0,83.0,12.0
1.0,50.0,96.0,68.0
1.0,55.0,87.0,4.0
1.0,55.0,66.0,104.0
1.0,57.0,53.0,80.0
1.0,58.0,74.0,12.0
1.0,57.0,67.0,168.0
1.0,54.0,56.0,0.0
1.0,55.0,47.0,12.0
1.0,51.0,50.0,156.0
1.0,55.0,79.0,104.0
1.0,57.0,53.0,16.0
1.0,58.0,75.0,8.0
1.0,57.0,69.0,172.0
1.0,54.0,68.0,68.0
1.0,55.0,62.0,16.0
1.0,50.0,56.0,152.0
1.0,55.0,62.0,132.0
1.0,46.0,71.0,4.0
1.0,48.0,61.0,144.0
1.0,48.0,58.0,160.0
1.0,50.0,70.0,168.0
1.0,48.0,69.0,8.0
1.0,50.0,78.0,96.0
1.0,52.0,77.0,24.0
1.0,54.0,79.0,92.0
1.0,52.0,68.0,0.0
1.0,54.0,67.0,12.0
1.0,50.0,81.0,28.0
1.0,55.0,84.0,104.0
1.0,57.0,65.0,76.0
1.0,58.0,71.0,36.0
1.0,57.0,64.0,172.0
1.0,54.0,65.0,76.0
1.0,55.0,57.0,16.0
1.0,51.0,45.0,160.0
1.0,55.0,75.0,68.0
1.0,57.0,49.0,20.0
1.0,58.0,63.0,88.0
1.0,57.0,65.0,180.0
1.0,54.0,44.0,76.0
1.0,55.0,62.0,8.0
1.0,50.0,56.0,172.0
1.0,55.0,75.0,84.0
1.0,46.0,71.0,12.0
1.0,48.0,59.0,48.0
1.0,48.0,53.0,160.0
1.0,50.0,83.0,180.0
1.0,38.0,35.0,148.0
1.0,43.0,56.0,156.0
1.0,46.0,73.0,212.0
1.0,50.0,75.0,64.0
1.0,55.0,68.0,4.0
1.0,58.0,91.0,124.0
1.0,60.0,82.0,84.0
1.0,62.0,89.0,0.0
1.0,60.0,77.0,152.0
1.0,57.0,70.0,0.0
1.0,58.0,92.0,12.0
1.0,51.0,90.0,176.0
1.0,58.0,96.0,44.0
1.0,60.0,86.0,76.0
1.0,62.0,93.0,12.0
1.0,60.0,90.0,148.0
1.0,57.0,75.0,76.0
1.0,58.0,90.0,20.0
1.0,50.0,94.0,180.0
1.0,51.0,96.0,92.0
1.0,39.0,90.0,124.0
1.0,51.0,86.0,180.0
1.0,53.0,75.0,192.0
1.0,51.0,77.0,52.0
1.0,53.0,81.0,8.0
1.0,55.0,91.0,16.0
1.0,53.0,79.0,96.0
1.0,51.0,82.0,4.0
1.0,53.0,71.0,96.0
1.0,50.0,84.0,12.0
1.0,48.0,74.0,0.0
1.0,60.0,68.0,108.0
1.0,58.0,86.0,4.0
1.0,56.0,87.0,0.0
1.0,55.0,86.0,20.0
1.0,44.0,85.0,104.0
1.0,56.0,71.0,112.0
1.0,55.0,75.0,4.0
1.0,53.0,73.0,100.0
1.0,51.0,82.0,72.0
1.0,53.0,73.0,12.0
1.0,55.0,75.0,112.0
1.0,43.0,71.0,112.0
1.0,36.0,81.0,104.0
1.0,48.0,73.0,32.0
1.0,50.0,87.0,100.0
1.0,51.0,80.0,48.0
1.0,53.0,82.0,72.0
1.0,55.0,83.0,8.0
1.0,57.0,76.0,96.0
1.0,59.0,82.0,0.0
1.0,60.0,69.0,16.0
1.0,58.0,78.0,144.0
1.0,57.0,53.0,160.0
1.0,53.0,47.0,140.0
1.0,46.0,63.0,120.0
1.0,53.0,66.0,12.0
1.0,58.0,78.0,24.0
1.0,57.0,48.0,88.0
1.0,55.0,68.0,132.0
1.0,51.0,68.0,108.0
1.0,45.0,58.0,164.0
1.0,51.0,66.0,0.0
1.0,57.0,60.0,16.0
1.0,55.0,62.0,88.0
1.0,54.0,66.0,128.0
1.0,50.0,52.0,124.0
1.0,43.0,64.0,104.0
1.0,55.0,48.0,128.0
1.0,50.0,74.0,152.0
1.0,38.0,61.0,76.0
1.0,60.0,82.0,132.0
1.0,58.0,84.0,0.0
1.0,57.0,86.0,88.0
1.0,55.0,82.0,12.0
1.0,57.0,74.0,92.0
1.0,58.0,84.0,12.0
1.0,57.0,68.0,152.0
1.0,54.0,71.0,80.0
1.0,55.0,49.0,12.0
1.0,51.0,68.0,148.0
1.0,55.0,91.0,108.0
1.0,57.0,61.0,16.0
1.0,58.0,68.0,16.0
1.0,57.0,71.0,168.0
1.0,54.0,68.0,76.0
1.0,55.0,72.0,80.0
1.0,50.0,77.0,176.0
1.0,55.0,79.0,112.0
1.0,46.0,81.0,0.0
1.0,48.0,72.0,100.0
1.0,48.0,74.0,148.0
1.0,50.0,81.0,120.0
1.0,38.0,65.0,156.0
1.0,43.0,78.0,156.0
1.0,46.0,87.0,224.0
1.0,50.0,93.0,64.0
1.0,55.0,81.0,0.0
1.0,58.0,68.0,128.0
1.0,60.0,68.0,80.0
1.0,62.0,67.0,24.0
1.0,60.0,67.0,156.0
1.0,57.0,57.0,8.0
1.0,58.0,77.0,12.0
1.0,51.0,72.0,196.0
1.0,58.0,77.0,16.0
1.0,60.0,74.0,16.0
1.0,62.0,71.0,16.0
1.0,60.0,73.0,144.0
1.0,57.0,66.0,64.0
1.0,58.0,73.0,4.0
1.0,50.0,78.0,188.0
1.0,51.0,81.0,96.0
1.0,39.0,84.0,116.0
1.0,51.0,72.0,144.0
1.0,53.0,64.0,132.0
1.0,51.0,76.0,20.0
1.0,53.0,79.0,96.0
1.0,55.0,85.0,8.0
1.0,53.0,82.0,96.0
1.0,51.0,80.0,0.0
1.0,53.0,72.0,8.0
1.0,50.0,80.0,16.0
1.0,48.0,66.0,0.0
1.0,60.0,58.0,96.0
1.0,58.0,79.0,8.0
1.0,56.0,83.0,88.0
1.0,55.0,88.0,12.0
1.0,44.0,83.0,100.0
1.0,56.0,89.0,112.0
1.0,55.0,74.0,8.0
1.0,53.0,68.0,104.0
1.0,51.0,72.0,72.0
1.0,53.0,76.0,0.0
1.0,55.0,82.0,112.0
1.0,43.0,64.0,136.0
1.0,36.0,79.0,88.0
1.0,48.0,72.0,20.0
1.0,50.0,92.0,96.0
1.0,51.0,86.0,56.0
1.0,53.0,86.0,68.0
1.0,55.0,92.0,8.0
1.0,57.0,81.0,96.0
1.0,59.0,83.0,88.0
1.0,60.0,73.0,12.0
1.0,58.0,73.0,120.0
1.0,57.0,68.0,164.0
1.0,53.0,57.0,140.0
1.0,46.0,76.0,152.0
1.0,53.0,64.0,12.0
1.0,58.0,71.0,24.0
1.0,57.0,55.0,92.0
1.0,55.0,68.0,104.0
1.0,51.0,73.0,100.0
1.0,45.0,66.0,160.0
1.0,51.0,70.0,84.0
1.0,57.0,66.0,20.0
1.0,55.0,59.0,140.0
1.0,54.0,60.0,124.0
1.0,50.0,71.0,132.0
1.0,43.0,71.0,116.0
1.0,55.0,64.0,136.0
1.0,50.0,73.0,132.0
1.0,38.0,65.0,88.0
1.0,60.0,87.0,116.0
1.0,58.0,88.0,96.0
1.0,57.0,92.0,64.0
1.0,55.0,90.0,0.0
1.0,57.0,83.0,92.0
1.0,58.0,94.0,8.0
1.0,57.0,75.0,156.0
1.0,54.0,79.0,76.0
1.0,55.0,75.0,8.0
1.0,51.0,76.0,152.0
1.0,55.0,91.0,88.0
1.0,57.0,64.0,0.0
1.0,58.0,79.0,88.0
1.0,57.0,76.0,176.0
1.0,54.0,76.0,76.0
1.0,55.0,80.0,60.0
1.0,50.0,83.0,172.0
1.0,55.0,80.0,80.0
1.0,46.0,79.0,8.0
1.0,48.0,73.0,120.0
1.0,48.0,79.0,144.0
1.0,50.0,83.0,168.0
1.0,38.0,79.0,84.0
1.0,43.0,73.0,156.0
1.0,46.0,84.0,204.0
1.0,50.0,87.0,56.0
1.0,55.0,78.0,88.0
2.0,67.0,94.0,2996.0
2.0,69.0,91.0,0.0
2.0,70.0,90.0,84.0
2.0,69.0,97.0,164.0
2.0,66.0,92.0,72.0
2.0,67.0,87.0,4.0
2.0,63.0,88.0,168.0
2.0,67.0,99.0,100.0
2.0,69.0,96.0,76.0
2.0,70.0,92.0,88.0
2.0,69.0,94.0,156.0
2.0,66.0,92.0,68.0
2.0,67.0,85.0,92.0
2.0,62.0,97.0,152.0
2.0,74.0,106.0,124.0
2.0,74.0,97.0,180.0
2.0,67.0,90.0,16.0
2.0,75.0,103.0,0.0
2.0,72.0,85.0,4.0
2.0,70.0,96.0,172.0
2.0,74.0,103.0,0.0
2.0,72.0,92.0,136.0
2.0,69.0,91.0,0.0
2.0,70.0,102.0,144.0
2.0,67.0,81.0,0.0
2.0,69.0,97.0,152.0
2.0,66.0,95.0,8.0
2.0,69.0,95.0,164.0
2.0,66.0,90.0,8.0
2.0,67.0,93.0,0.0
2.0,70.0,94.0,4.0
2.0,69.0,88.0,4.0
2.0,66.0,85.0,4.0
2.0,62.0,85.0,88.0
2.0,67.0,101.0,64.0
2.0,69.0,96.0,0.0
2.0,70.0,94.0,96.0
2.0,69.0,101.0,156.0
2.0,66.0,95.0,4.0
2.0,67.0,90.0,8.0
2.0,63.0,89.0,160.0
2.0,67.0,104.0,120.0
2.0,69.0,99.0,76.0
2.0,70.0,95.0,88.0
2.0,69.0,101.0,156.0
2.0,66.0,94.0,68.0
2.0,67.0,95.0,80.0
2.0,62.0,93.0,156.0
2.0,74.0,103.0,96.0
2.0,74.0,99.0,176.0
2.0,67.0,84.0,16.0
2.0,75.0,99.0,96.0
2.0,72.0,94.0,0.0
2.0,74.0,106.0,160.0
2.0,70.0,89.0,0.0
2.0,69.0,91.0,140.0
2.0,72.0,90.0,0.0
2.0,67.0,84.0,144.0
2.0,70.0,98.0,0.0
2.0,69.0,95.0,160.0
2.0,66.0,96.0,4.0
2.0,67.0,84.0,164.0
2.0,66.0,92.0,64.0
2.0,67.0,91.0,88.0
2.0,58.0,83.0,8.0
2.0,62.0,71.0,4.0
2.0,67.0,69.0,112.0
2.0,69.0,72.0,16.0
2.0,70.0,73.0,96.0
2.0,69.0,79.0,164.0
2.0,66.0,71.0,12.0
2.0,67.0,73.0,16.0
2.0,63.0,57.0,164.0
2.0,67.0,82.0,108.0
2.0,69.0,83.0,4.0
2.0,70.0,78.0,88.0
2.0,69.0,80.0,140.0
2.0,66.0,78.0,68.0
2.0,67.0,68.0,8.0
2.0,62.0,71.0,148.0
2.0,74.0,96.0,96.0
2.0,74.0,91.0,180.0
2.0,67.0,68.0,24.0
2.0,75.0,89.0,92.0
2.0,72.0,68.0,4.0
2.0,74.0,98.0,160.0
2.0,70.0,80.0,8.0
2.0,69.0,84.0,144.0
2.0,72.0,79.0,0.0
2.0,70.0,86.0,148.0
2.0,67.0,77.0,4.0
2.0,69.0,91.0,156.0
2.0,66.0,91.0,4.0
2.0,69.0,82.0,180.0
2.0,66.0,81.0,0.0
2.0,67.0,84.0,0.0
2.0,70.0,75.0,4.0
2.0,69.0,78.0,12.0
2.0,66.0,68.0,0.0
2.0,62.0,71.0,376.0
2.0,67.0,90.0,12.0
2.0,69.0,84.0,8.0
2.0,70.0,80.0,92.0
2.0,69.0,85.0,152.0
2.0,66.0,77.0,8.0
2.0,67.0,72.0,8.0
2.0,63.0,69.0,164.0
2.0,67.0,85.0,84.0
2.0,69.0,85.0,0.0
2.0,70.0,85.0,96.0
2.0,69.0,86.0,160.0
2.0,66.0,83.0,72.0
2.0,67.0,73.0,8.0
2.0,62.0,80.0,152.0
2.0,74.0,101.0,40.0
2.0,74.0,94.0,176.0
2.0,67.0,82.0,16.0
2.0,75.0,95.0,16.0
2.0,72.0,78.0,4.0
2.0,70.0,88.0,168.0
2.0,74.0,90.0,0.0
2.0,72.0,85.0,148.0
2.0,69.0,84.0,0.0
2.0,70.0,90.0,144.0
2.0,67.0,72.0,8.0
2.0,69.0,87.0,136.0
2.0,66.0,84.0,8.0
2.0,67.0,74.0,148.0
2.0,66.0,78.0,68.0
2.0,67.0,73.0,0.0
2.0,62.0,71.0,8.0
2.0,58.0,71.0,0.0
2.0,70.0,102.0,108.0
2.0,72.0,98.0,80.0
2.0,74.0,97.0,76.0
2.0,72.0,103.0,156.0
2.0,69.0,100.0,4.0
2.0,70.0,102.0,84.0
2.0,79.0,106.0,160.0
2.0,70.0,98.0,4.0
2.0,70.0,108.0,24.0
2.0,72.0,97.0,0.0
2.0,74.0,101.0,92.0
2.0,72.0,103.0,160.0
2.0,69.0,91.0,4.0
2.0,70.0,96.0,92.0
2.0,70.0,99.0,156.0
2.0,77.0,105.0,4.0
2.0,79.0,106.0,32.0
2.0,75.0,99.0,4.0
2.0,79.0,106.0,180.0
2.0,75.0,97.0,4.0
2.0,77.0,99.0,108.0
2.0,74.0,95.0,0.0
2.0,75.0,100.0,148.0
2.0,72.0,89.0,4.0
2.0,70.0,94.0,136.0
2.0,74.0,102.0,0.0
2.0,72.0,99.0,152.0
2.0,69.0,98.0,0.0
2.0,72.0,100.0,176.0
2.0,69.0,97.0,4.0
2.0,70.0,99.0,16.0
2.0,74.0,96.0,4.0
2.0,72.0,90.0,4.0
2.0,69.0,84.0,4.0
2.0,65.0,87.0,92.0
2.0,75.0,93.0,120.0
2.0,72.0,91.0,4.0
2.0,71.0,85.0,4.0
2.0,74.0,90.0,4.0
2.0,75.0,80.0,12.0
2.0,72.0,72.0,8.0
2.0,75.0,96.0,164.0
2.0,72.0,93.0,0.0
2.0,71.0,75.0,8.0
2.0,74.0,86.0,4.0
2.0,75.0,78.0,16.0
2.0,72.0,69.0,0.0
2.0,75.0,100.0,156.0
2.0,72.0,93.0,4.0
2.0,74.0,88.0,4.0
2.0,71.0,82.0,0.0
2.0,75.0,85.0,8.0
2.0,72.0,72.0,0.0
2.0,75.0,96.0,180.0
2.0,72.0,93.0,4.0
2.0,74.0,89.0,8.0
2.0,71.0,77.0,0.0
2.0,75.0,80.0,0.0
2.0,72.0,74.0,4.0
2.0,75.0,99.0,168.0
2.0,72.0,91.0,4.0
2.0,74.0,102.0,380.0
2.0,71.0,84.0,24.0
2.0,74.0,98.0,0.0
2.0,80.0,91.0,20.0
2.0,75.0,94.0,28.0
2.0,72.0,86.0,0.0
2.0,75.0,91.0,168.0
2.0,77.0,94.0,12.0
2.0,74.0,99.0,20.0
2.0,71.0,94.0,4.0
2.0,74.0,89.0,144.0
2.0,75.0,81.0,12.0
2.0,72.0,94.0,44.0
2.0,63.0,78.0,4.0
2.0,67.0,58.0,0.0
2.0,72.0,82.0,144.0
2.0,71.0,94.0,88.0
2.0,67.0,71.0,88.0
2.0,63.0,85.0,0.0
2.0,72.0,81.0,0.0
2.0,67.0,85.0,48.0
2.0,72.0,50.0,28.0
2.0,75.0,73.0,4.0
2.0,65.0,81.0,168.0
2.0,72.0,49.0,32.0
2.0,75.0,62.0,4.0
2.0,74.0,79.0,128.0
2.0,65.0,78.0,104.0
2.0,70.0,73.0,16.0
2.0,74.0,77.0,0.0
2.0,63.0,83.0,132.0
2.0,70.0,68.0,28.0
2.0,74.0,79.0,4.0
2.0,72.0,79.0,144.0
2.0,63.0,82.0,72.0
2.0,69.0,82.0,16.0
2.0,72.0,88.0,96.0
2.0,62.0,77.0,128.0
2.0,69.0,84.0,84.0
2.0,72.0,87.0,96.0
2.0,70.0,80.0,208.0
2.0,69.0,85.0,52.0
2.0,67.0,74.0,12.0
2.0,73.0,92.0,92.0
2.0,74.0,82.0,80.0
2.0,70.0,83.0,72.0
2.0,67.0,75.0,12.0
2.0,69.0,84.0,12.0
2.0,66.0,83.0,12.0
2.0,67.0,73.0,8.0
2.0,69.0,75.0,92.0
2.0,62.0,74.0,16.0
2.0,67.0,99.0,84.0
2.0,69.0,98.0,88.0
2.0,70.0,93.0,84.0
2.0,69.0,99.0,136.0
2.0,66.0,94.0,84.0
2.0,67.0,83.0,0.0
2.0,63.0,88.0,144.0
2.0,67.0,101.0,108.0
2.0,69.0,94.0,80.0
2.0,70.0,93.0,88.0
2.0,69.0,95.0,152.0
2.0,66.0,93.0,76.0
2.0,67.0,85.0,72.0
2.0,62.0,90.0,156.0
2.0,74.0,107.0,88.0
2.0,74.0,99.0,172.0
2.0,67.0,86.0,16.0
2.0,75.0,95.0,4.0
2.0,72.0,90.0,0.0
2.0,74.0,101.0,172.0
2.0,70.0,94.0,0.0
2.0,72.0,93.0,144.0
2.0,69.0,93.0,4.0
2.0,70.0,94.0,144.0
2.0,67.0,80.0,4.0
2.0,69.0,94.0,144.0
2.0,66.0,95.0,0.0
2.0,67.0,84.0,152.0
2.0,66.0,87.0,68.0
2.0,67.0,87.0,104.0
2.0,58.0,83.0,4.0
2.0,62.0,77.0,4.0
2.0,70.0,92.0,116.0
2.0,72.0,88.0,84.0
2.0,74.0,95.0,88.0
2.0,72.0,94.0,164.0
2.0,69.0,87.0,12.0
2.0,70.0,90.0,80.0
2.0,79.0,97.0,168.0
2.0,70.0,75.0,4.0
2.0,70.0,99.0,40.0
2.0,72.0,90.0,80.0
2.0,74.0,95.0,88.0
2.0,72.0,92.0,152.0
2.0,69.0,91.0,4.0
2.0,70.0,87.0,80.0
2.0,77.0,99.0,176.0
2.0,70.0,74.0,4.0
2.0,79.0,90.0,48.0
2.0,75.0,88.0,4.0
2.0,79.0,93.0,172.0
2.0,75.0,86.0,0.0
2.0,77.0,91.0,104.0
2.0,74.0,88.0,4.0
2.0,75.0,89.0,152.0
2.0,72.0,85.0,4.0
2.0,70.0,94.0,132.0
2.0,74.0,94.0,0.0
2.0,69.0,94.0,156.0
2.0,72.0,84.0,0.0
2.0,72.0,89.0,168.0
2.0,69.0,83.0,4.0
2.0,70.0,95.0,8.0
2.0,74.0,82.0,4.0
2.0,72.0,82.0,8.0
2.0,69.0,79.0,4.0
2.0,65.0,69.0,96.0
2.0,75.0,90.0,92.0
2.0,72.0,82.0,8.0
2.0,71.0,79.0,4.0
2.0,74.0,87.0,8.0
2.0,75.0,80.0,12.0
2.0,72.0,70.0,4.0
2.0,75.0,92.0,156.0
2.0,72.0,88.0,4.0
2.0,71.0,80.0,0.0
2.0,74.0,85.0,8.0
2.0,75.0,76.0,0.0
2.0,72.0,61.0,4.0
2.0,75.0,87.0,160.0
2.0,72.0,79.0,0.0
2.0,74.0,88.0,12.0
2.0,71.0,80.0,0.0
2.0,75.0,85.0,12.0
2.0,72.0,73.0,0.0
2.0,75.0,95.0,156.0
2.0,72.0,95.0,4.0
2.0,74.0,94.0,12.0
2.0,71.0,78.0,4.0
2.0,75.0,82.0,20.0
2.0,72.0,75.0,0.0
2.0,75.0,99.0,160.0
2.0,72.0,91.0,4.0
2.0,74.0,97.0,380.0
2.0,71.0,94.0,120.0
2.0,74.0,101.0,4.0
2.0,80.0,94.0,8.0
2.0,75.0,89.0,24.0
2.0,72.0,84.0,4.0
2.0,75.0,87.0,156.0
2.0,77.0,78.0,20.0
2.0,74.0,92.0,28.0
2.0,71.0,85.0,4.0
2.0,74.0,88.0,152.0
2.0,75.0,87.0,0.0
2.0,72.0,90.0,60.0
2.0,63.0,82.0,0.0
2.0,67.0,81.0,0.0
2.0,72.0,86.0,180.0
2.0,71.0,92.0,8.0
2.0,67.0,66.0,96.0
2.0,63.0,74.0,0.0
2.0,72.0,87.0,4.0
2.0,67.0,81.0,36.0
2.0,72.0,61.0,20.0
2.0,75.0,67.0,16.0
2.0,65.0,69.0,172.0
2.0,72.0,58.0,12.0
2.0,75.0,71.0,4.0
2.0,74.0,82.0,180.0
2.0,65.0,84.0,128.0
2.0,70.0,75.0,12.0
2.0,74.0,82.0,0.0
2.0,63.0,83.0,144.0
2.0,70.0,75.0,32.0
2.0,74.0,75.0,88.0
2.0,72.0,79.0,140.0
2.0,63.0,85.0,164.0
2.0,69.0,83.0,4.0
2.0,72.0,86.0,104.0
2.0,62.0,88.0,136.0
2.0,69.0,87.0,80.0
2.0,72.0,93.0,88.0
2.0,70.0,85.0,208.0
2.0,69.0,85.0,60.0
2.0,67.0,79.0,8.0
2.0,73.0,97.0,100.0
2.0,74.0,85.0,84.0
2.0,70.0,82.0,80.0
2.0,67.0,76.0,8.0
2.0,69.0,85.0,8.0
2.0,66.0,84.0,4.0
2.0,67.0,77.0,4.0
2.0,69.0,78.0,92.0
2.0,62.0,86.0,12.0
2.0,67.0,101.0,84.0
2.0,69.0,101.0,88.0
2.0,70.0,100.0,80.0
2.0,69.0,103.0,140.0
2.0,66.0,97.0,80.0
2.0,67.0,89.0,76.0
2.0,63.0,91.0,160.0
2.0,67.0,98.0,88.0
2.0,69.0,96.0,80.0
2.0,70.0,97.0,80.0
2.0,69.0,102.0,148.0
2.0,66.0,98.0,80.0
2.0,67.0,88.0,72.0
2.0,62.0,92.0,144.0
2.0,74.0,105.0,60.0
2.0,74.0,101.0,172.0
2.0,67.0,91.0,20.0
2.0,75.0,97.0,88.0
2.0,72.0,87.0,0.0
2.0,74.0,102.0,160.0
2.0,70.0,96.0,4.0
2.0,72.0,96.0,140.0
2.0,69.0,92.0,0.0
2.0,70.0,95.0,144.0
2.0,67.0,83.0,0.0
2.0,69.0,94.0,140.0
2.0,66.0,92.0,8.0
2.0,67.0,80.0,144.0
2.0,66.0,91.0,0.0
2.0,67.0,84.0,108.0
2.0,62.0,69.0,4.0
2.0,58.0,80.0,0.0
0.0,0.0,0.0,0.0
0.0,0.0,0.0,0.0
0.0,0.0,0.0,0.0
0.0,0.0,0.0,0.0
0.0,0.0,0.0,0.0
0.0,0.0,0.0,0.0
0.0,0.0,0.0,0.0
0.0,0.0,0.0,0.0
0.0,0.0,0.0,0.0
0.0,0.0,0.0,0.0
0.0,0.0,0.0,0.0
0.0,0.0,0.0,0.0
0.0,0.0,0.0,0.0
0.0,0.0,0.0,0.0
0.0,0.0,0.0,0.0
0.0,0.0,0.0,0.0
0.0,0.0,0.0,0.0
0.0,0.0,0.0,0.0
0.0,0.0,0.0,0.0
0.0,0.0,0.0,0.0
0.0,0.0,0.0,0.0
0.0,0.0,0.0,0.0
0.0,0.0,0.0,0.0
0.0,0.0,0.0,0.0
0.0,0.0,0.0,0.0
0.0,0.0,0.0,0.0
0.0,0.0,0.0,0.0
0.0,0.0,0.0,0.0
0.0,0.0,0.0,0.0
0.0,0.0,0.0,0.0
0.0,0.0,0.0,0.0
0.0,0.0,0.0,0.0
0.0,0.0,0.0,0.0
0.0,0.0,0.0,0.0
0.0,0.0,0.0,0.0
0.0,0.0,0.0,0.0
0.0,0.0,0.0,0.0
0.0,0.0,0.0,0.0
0.0,0.0,0.0,0.0
0.0,0.0,0.0,0.0
0.0,0.0,0.0,0.0
0.0,0.0,0.0,0.0
0.0,0.0,0.0,0.0
0.0,0.0,0.0,0.0
0.0,0.0,0.0,0.0
0.0,0.0,0.0,0.0
0.0,0.0,0.0,0.0
0.0,0.0,0.0,0.0
0.0,0.0,0.0,0.0
0.0,0.0,0.0,0.0
0.0,0.0,0.0,0.0
0.0,0.0,0.0,0.0
0.0,0.0,0.0,0.0
0.0,0.0,0.0,0.0
0.0,0.0,0.0,0.0
0.0,0.0,0.0,0.0
0.0,0.0,0.0,0.0
0.0,0.0,0.0,0.0
0.0,0.0,0.0,0.0
0.0,0.0,0.0,0.0
0.0,0.0,0.0,0.0
0.0,0.0,0.0,0.0
0.0,0.0,0.0,0.0
0.0,0.0,0.0,0.0
0.0,0.0,0.0,0.0
0.0,0.0,0.0,0.0
0.0,0.0,0.0,0.0
0.0,0.0,0.0,0.0
0.0,0.0,0.0,0.0
0.0,0.0,0.0,0.0
0.0,0.0,0.0,0.0
0.0,0.0,0.0,0.0
0.0,0.0,0.0,0.0
0.0,0.0,0.0,0.0
0.0,0.0,0.0,0.0
0.0,0.0,0.0,0.0
0.0,0.0,0.0,0.0
0.0,0.0,0.0,0.0
0.0,0.0,0.0,0.0
0.0,0.0,0.0,0.0
0.0,0.0,0.0,0.0
0.0,0.0,0.0,0.0
0.0,0.0,0.0,0.0
0.0,0.0,0.0,0.0
0.0,0.0,0.0,0.0
0.0,0.0,0.0,0.0
0.0,0.0,0.0,0.0
0.0,0.0,0.0,0.0
0.0,0.0,0.0,0.0
0.0,0.0,0.0,0.0
0.0,0.0,0.0,0.0
0.0,0.0,0.0,0.0
0.0,0.0,0.0,0.0
0.0,0.0,0.0,0.0
0.0,0.0,0.0,0.0
0.0,0.0,0.0,0.0
0.0,0.0,0.0,0.0
0.0,0.0,0.0,0.0
0.0,0.0,0.0,0.0
0.0,0.0,0.0,0.0
0.0,0.0,0.0,0.0
0.0,0.0,0.0,0.0
0.0,0.0,0.0,0.0
0.0,0.0,0.0,0.0
0.0,0.0,0.0,0.0
0.0,0.0,0.0,0.0
0.0,0.0,0.0,0.0
0.0,0.0,0.0,0.0
0.0,0.0,0.0,0.0
0.0,0.0,0.0,0.0
0.0,0.0,0.0,0.0
0.0,0.0,0.0,0.0
0.0,0.0,0.0,0.0
0.0,0.0,0.0,0.0
0.0,0.0,0.0,0.0
0.0,0.0,0.0,0.0
0.0,0.0,0.0,0.0
0.0,0.0,0.0,0.0
0.0,0.0,0.0,0.0
0.0,0.0,0.0,0.0
0.0,0.0,0.0,0.0
0.0,0.0,0.0,0.0
0.0,0.0,0.0,0.0
0.0,0.0,0.0,0.0
0.0,0.0,0.0,0.0
0.0,0.0,0.0,0.0
0.0,0.0,0.0,0.0
0.0,0.0,0.0,0.0
0.0,0.0,0.0,0.0
0.0,0.0,0.0,0.0
0.0,0.0,0.0,0.0
0.0,0.0,0.0,0.0
0.0,0.0,0.0,0.0
0.0,0.0,0.0,0.0
0.0,0.0,0.0,0.0
0.0,0.0,0.0,0.0
0.0,0.0,0.0,0.0
0.0,0.0,0.0,0.0
0.0,0.0,0.0,0.0
0.0,0.0,0.0,0.0
0.0,0.0,0.0,0.0
0.0,0.0,0.0,0.0
0.0,0.0,0.0,0.0
0.0,0.0,0.0,0.0
0.0,0.0,0.0,0.0
0.0,0.0,0.0,0.0
0.0,0.0,0.0,0.0
0.0,0.0,0.0,0.0
0.0,0.0,0.0,0.0
0.0,0.0,0.0,0.0
0.0,0.0,0.0,0.0
0.0,0.0,0.0,0.0
0.0,0.0,0.0,0.0
0.0,0.0,0.0,0.0
0.0,0.0,0.0,0.0
0.0,0.0,0.0,0.0
0.0,0.0,0.0,0.0
0.0,0.0,0.0,0.0
0.0,0.0,0.0,0.0
0.0,0.0,0.0,0.0
0.0,0.0,0.0,0.0
0.0,0.0,0.0,0.0
0.0,0.0,0.0,0.0
0.0,0.0,0.0,0.0
0.0,0.0,0.0,0.0
0.0,0.0,0.0,0.0
0.0,0.0,0.0,0.0
0.0,0.0,0.0,0.0
0.0,0.0,0.0,0.0
0.0,0.0,0.0,0.0
0.0,0.0,0.0,0.0
0.0,0.0,0.0,0.0
0.0,0.0,0.0,0.0
0.0,0.0,0.0,0.0
0.0,0.0,0.0,0.0
0.0,0.0,0.0,0.0
0.0,0.0,0.0,0.0
0.0,0.0,0.0,0.0
0.0,0.0,0.0,0.0
0.0,0.0,0.0,0.0
0.0,0.0,0.0,0.0
0.0,0.0,0.0,0.0
0.0,0.0,0.0,0.0
0.0,0.0,0.0,0.0
0.0,0.0,0.0,0.0
0.0,0.0,0.0,0.0
0.0,0.0,0.0,0.0
0.0,0.0,0.0,0.0
0.0,0.0,0.0,0.0
0.0,0.0,0.0,0.0
0.0,0.0,0.0,0.0
0.0,0.0,0.0,0.0
0.0,0.0,0.0,0.0
0.0,0.0,0.0,0.0
0.0,0.0,0.0,0.0
0.0,0.0,0.0,0.0
0.0,0.0,0.0,0.0
0.0,0.0,0.0,0.0
0.0,0.0,0.0,0.0
0.0,0.0,0.0,0.0
0.0,0.0,0.0,0.0
0.0,0.0,0.0,0.0
0.0,0.0,0.0,0.0
0.0,0.0,0.0,0.0
0.0,0.0,0.0,0.0
0.0,0.0,0.0,0.0
0.0,0.0,0.0,0.0
0.0,0.0,0.0,0.0
0.0,0.0,0.0,0.0
0.0,0.0,0.0,0.0
0.0,0.0,0.0,0.0
0.0,0.0,0.0,0.0
0.0,0.0,0.0,0.0
0.0,0.0,0.0,0.0
0.0,0.0,0.0,0.0
0.0,0.0,0.0,0.0
0.0,0.0,0.0,0.0
0.0,0.0,0.0,0.0
0.0,0.0,0.0,0.0
0.0,0.0,0.0,0.0
0.0,0.0,0.0,0.0
0.0,0.0,0.0,0.0
0.0,0.0,0.0,0.0
0.0,0.0,0.0,0.0
0.0,0.0,0.0,0.0
0.0,0.0,0.0,0.0
0.0,0.0,0.0,0.0
0.0,0.0,0.0,0.0
0.0,0.0,0.0,0.0
0.0,0.0,0.0,0.0
0.0,0.0,0.0,0.0
0.0,0.0,0.0,0.0
0.0,0.0,0.0,0.0
0.0,0.0,0.0,0.0
0.0,0.0,0.0,0.0
0.0,0.0,0.0,0.0
0.0,0.0,0.0,0.0
0.0,0.0,0.0,0.0
0.0,0.0,0.0,0.0
0.0,0.0,0.0,0.0
0.0,0.0,0.0,0.0
0.0,0.0,0.0,0.0
0.0,0.0,0.0,0.0
0.0,0.0,0.0,0.0
0.0,0.0,0.0,0.0
0.0,0.0,0.0,0.0
0.0,0.0,0.0,0.0
0.0,0.0,0.0,0.0
0.0,0.0,0.0,0.0
0.0,0.0,0.0,0.0
0.0,0.0,0.0,0.0
0.0,0.0,0.0,0.0
0.0,0.0,0.0,0.0
0.0,0.0,0.0,0.0
0.0,0.0,0.0,0.0
0.0,0.0,0.0,0.0
0.0,0.0,0.0,0.0
0.0,0.0,0.0,0.0
0.0,0.0,0.0,0.0
0.0,0.0,0.0,0.0
0.0,0.0,0.0,0.0
0.0,0.0,0.0,0.0
0.0,0.0,0.0,0.0
0.0,0.0,0.0,0.0
0.0,0.0,0.0,0.0
0.0,0.0,0.0,0.0
0.0,0.0,0.0,0.0
0.0,0.0,0.0,0.0
0.0,0.0,0.0,0.0
0.0,0.0,0.0,0.0
0.0,0.0,0.0,0.0
0.0,0.0,0.0,0.0
0.0,0.0,0.0,0.0
0.0,0.0,0.0,0.0
0.0,0.0,0.0,0.0
0.0,0.0,0.0,0.0
0.0,0.0,0.0,0.0
0.0,0.0,0.0,0.0
0.0,0.0,0.0,0.0
0.0,0.0,0.0,0.0
0.0,0.0,0.0,0.0
0.0,0.0,0.0,0.0
0.0,0.0,0.0,0.0
0.0,0.0,0.0,0.0
0.0,0.0,0.0,0.0
0.0,0.0,0.0,0.0
0.0,0.0,0.0,0.0
0.0,0.0,0.0,0.0
0.0,0.0,0.0,0.0
0.0,0.0,0.0,0.0
0.0,0.0,0.0,0.0
0.0,0.0,0.0,0.0
