track,note,velocity,time
1,43,92,1884
1,43,90,60
1,55,98,208
1,43,96,320
1,48,88,228
1,47,89,56
1,55,97,368
1,47,86,296
1,45,86,328
1,42,79,72
1,43,84,32
1,47,84,48
1,50,85,120
1,47,97,224
1,43,95,280
1,38,84,296
1,48,95,112
1,47,89,56
1,45,80,60
1,43,90,68
1,45,85,56
1,47,83,256
1,47,83,316
1,48,76,288
1,48,82,112
1,47,85,28
1,55,81,24
1,43,75,292
1,45,81,276
1,42,73,88
1,43,73,8
1,43,84,64
1,48,93,132
1,50,90,20
1,38,84,264
1,43,74,236
1,38,84,36
1,31,91,208
1,43,92,152
1,43,90,60
1,55,98,208
1,43,96,316
1,48,88,224
1,47,89,56
1,55,97,368
1,47,86,292
1,45,86,328
1,42,79,72
1,43,84,32
1,47,84,48
1,50,85,116
1,47,97,220
1,43,95,276
1,38,84,300
1,48,95,108
1,47,89,52
1,45,80,56
1,43,90,64
1,45,85,56
1,47,83,252
1,47,83,316
1,48,76,288
1,48,82,112
1,47,85,28
1,55,81,24
1,43,75,292
1,45,81,276
1,42,73,88
1,43,73,4
1,43,84,64
1,48,93,128
1,50,90,20
1,38,84,260
1,43,74,236
1,38,84,36
1,31,91,208
1,43,92,152
1,42,92,52
1,40,102,112
1,43,98,216
1,40,100,224
1,45,90,224
1,45,77,244
1,47,101,76
1,50,93,260
1,49,106,248
1,50,89,252
1,42,101,268
1,45,95,256
1,38,97,244
1,47,77,340
1,48,90,76
1,47,98,200
1,45,91,264
1,43,92,244
1,50,83,244
1,45,82,16
1,38,88,248
1,38,93,256
1,42,93,24
1,40,93,200
1,43,82,188
1,42,90,228
1,43,92,256
1,35,104,264
1,38,83,224
1,43,96,268
1,38,90,240
1,31,115,248
1,43,92,204
1,42,92,52
1,40,102,108
1,43,98,216
1,40,100,224
1,45,90,224
1,45,77,244
1,47,101,76
1,50,93,260
1,49,106,248
1,50,89,252
1,42,101,268
1,45,95,256
1,38,97,240
1,47,77,340
1,48,90,72
1,47,98,196
1,45,91,264
1,43,92,244
1,50,83,244
1,45,82,16
1,38,88,248
1,38,93,256
1,42,93,28
1,40,93,196
1,43,82,188
1,42,90,228
1,43,92,256
1,35,104,260
1,38,83,216
1,43,96,264
1,38,90,236
1,31,115,248
2,55,74,1872
2,59,78,4
2,60,77,20
2,59,65,1148
2,57,69,24
2,55,64,1152
2,62,81,88
2,59,73,204
2,55,79,240
2,54,61,252
2,50,73,4
2,50,86,104
2,60,72,24
2,59,79,4
2,57,64,36
2,59,78,20
2,55,63,4
2,57,63,12
2,59,79,0
2,60,69,1152
2,64,76,0
2,59,66,8
2,62,64,8
2,67,77,8
2,62,71,4
2,55,74,284
2,59,76,0
2,60,66,236
2,57,55,4
2,57,61,72
2,54,77,4
2,59,81,56
2,55,67,4
2,52,72,60
2,59,60,4
2,50,82,816
2,55,76,264
2,50,74,272
2,43,70,292
2,55,77,296
2,59,66,4
2,60,79,16
2,59,67,8
2,57,69,1152
2,55,69,1136
2,62,74,136
2,59,78,216
2,55,79,252
2,50,73,252
2,54,61,4
2,50,82,52
2,60,70,12
2,59,73,28
2,57,64,44
2,59,73,48
2,55,68,0
2,57,63,0
2,59,76,384
2,60,76,1152
2,59,69,1108
2,57,71,8
2,55,70,1148
2,60,78,152
2,62,70,248
2,50,73,232
2,55,77,292
2,50,50,284
2,43,68,300
2,55,85,272
2,54,72,1140
2,52,75,48
2,55,79,192
2,52,74,232
2,45,86,260
2,45,82,164
2,47,81,60
2,50,85,156
2,49,79,236
2,50,85,264
2,42,81,300
2,45,81,288
2,50,84,276
2,62,74,320
2,59,84,4
2,60,82,1156
2,59,87,4
2,57,79,224
2,55,89,256
2,62,89,276
2,50,84,0
2,54,82,116
2,52,84,264
2,55,82,268
2,54,86,284
2,55,83,300
2,47,80,280
2,50,89,304
2,55,85,308
2,50,85,276
2,43,77,312
2,55,89,304
2,54,71,1136
2,52,75,1124
2,55,76,136
2,52,77,232
2,45,79,264
2,45,78,216
2,47,72,164
2,50,79,224
2,49,79,260
2,50,64,268
2,42,56,12
2,45,73,272
2,50,79,284
2,59,85,300
2,62,79,4
2,60,83,1148
2,59,82,1136
2,57,72,192
2,55,74,240
2,62,82,256
2,50,82,1164
2,54,82,160
2,52,79,256
2,55,80,272
2,54,82,284
2,55,83,304
2,47,76,268
2,50,81,300
2,55,79,296
2,50,81,284
2,43,75,304
3,74,79,1844
3,67,71,4
3,69,64,188
3,71,77,0
3,72,75,196
3,74,75,184
3,67,73,20
3,67,74,164
3,76,82,24
3,72,81,28
3,74,85,192
3,76,87,184
3,78,81,184
3,79,88,188
3,67,72,364
3,67,71,124
3,72,86,40
3,74,82,12
3,72,78,188
3,71,73,188
3,69,75,0
3,71,78,196
3,72,79,4
3,71,74,192
3,69,72,172
3,67,73,12
3,66,78,196
3,67,79,372
3,69,74,20
3,71,78,0
3,67,77,16
3,69,84,196
3,74,82,44
3,67,78,384
3,69,76,188
3,71,82,184
3,72,77,180
3,74,85,176
3,67,72,352
3,67,72,140
3,76,85,392
3,72,79,16
3,74,80,188
3,76,78,8
3,78,81,192
3,79,85,184
3,67,60,368
3,67,74,152
3,72,79,8
3,74,84,8
3,72,74,0
3,71,75,192
3,69,70,12
3,71,81,200
3,72,79,20
3,71,71,192
3,69,67,12
3,67,70,8
3,69,81,196
3,71,79,8
3,69,65,0
3,67,74,28
3,66,68,188
3,67,81,196
3,74,79,300
3,67,71,4
3,69,64,188
3,71,77,4
3,72,75,192
3,74,75,184
3,67,73,20
3,67,74,160
3,76,82,20
3,72,81,28
3,74,85,192
3,76,87,184
3,78,81,188
3,79,88,188
3,67,72,356
3,67,71,128
3,72,86,40
3,74,82,12
3,72,78,192
3,71,73,192
3,69,75,184
3,71,78,192
3,72,79,4
3,71,74,192
3,69,72,172
3,67,73,16
3,66,78,196
3,67,79,364
3,69,74,24
3,71,78,4
3,67,77,16
3,69,84,200
3,74,82,52
3,67,78,380
3,69,76,0
3,71,82,188
3,72,77,180
3,74,85,180
3,67,72,348
3,67,72,144
3,76,85,388
3,72,79,16
3,74,80,188
3,76,78,8
3,78,81,192
3,79,85,184
3,67,60,368
3,67,74,152
3,72,79,4
3,74,84,8
3,72,74,192
3,71,75,188
3,69,70,16
3,71,81,196
3,72,79,16
3,71,71,192
3,69,67,16
3,67,70,8
3,69,81,196
3,71,79,4
3,69,65,192
3,67,74,28
3,66,68,192
3,67,81,192
3,71,88,300
3,67,81,44
3,69,74,32
3,71,77,48
3,67,78,44
3,69,88,52
3,62,72,52
3,64,66,56
3,66,64,56
3,62,53,44
3,67,81,92
3,64,76,4
3,66,70,192
3,67,76,12
3,62,74,16
3,61,74,196
3,59,72,24
3,61,71,4
3,57,74,12
3,57,84,116
3,59,84,188
3,61,81,180
3,62,91,12
3,64,97,192
3,66,91,184
3,67,94,168
3,66,84,176
3,64,81,196
3,66,83,156
3,57,75,384
3,61,77,68
3,62,90,272
3,74,93,348
3,67,70,8
3,66,81,192
3,67,82,4
3,76,85,4
3,67,73,24
3,66,77,192
3,67,79,0
3,74,90,140
3,72,89,256
3,71,82,260
3,69,85,264
3,67,73,24
3,66,72,196
3,67,72,32
3,69,70,196
3,62,83,28
3,64,75,8
3,66,83,188
3,67,87,24
3,69,85,192
3,71,84,184
3,72,88,184
3,71,85,248
3,69,79,252
3,71,85,252
3,74,83,16
3,67,75,12
3,66,83,240
3,67,84,284
3,71,80,340
3,67,81,40
3,69,74,196
3,71,77,188
3,67,71,24
3,69,66,196
3,62,81,364
3,64,69,188
3,66,77,12
3,62,82,20
3,67,82,196
3,64,71,372
3,66,73,180
3,67,80,180
3,62,77,168
3,61,75,196
3,59,75,20
3,61,70,192
3,57,69,24
3,57,81,144
3,59,84,0
3,61,84,192
3,62,92,12
3,64,95,192
3,66,90,188
3,67,89,0
3,66,86,204
3,64,81,272
3,66,79,244
3,57,68,384
3,61,73,184
3,62,87,288
3,74,89,240
3,67,70,20
3,66,73,192
3,67,79,4
3,76,84,384
3,67,75,20
3,66,73,188
3,67,75,4
3,74,85,76
3,72,81,236
3,71,81,244
3,69,84,228
3,67,72,4
3,66,81,192
3,67,78,12
3,69,75,196
3,62,82,24
3,64,79,0
3,66,86,188
3,67,88,28
3,69,87,0
3,71,89,184
3,72,87,16
3,71,77,208
3,69,77,252
3,71,87,248
3,74,82,0
3,67,74,192
3,66,83,260
3,67,79,288
4,55,75,1828
4,59,83,0
4,59,88,292
4,62,81,0
4,59,97,272
4,55,76,12
4,64,86,288
4,60,71,4
4,62,77,48
4,59,91,4
4,59,91,148
4,62,76,0
4,60,72,276
4,57,67,4
4,54,73,112
4,60,85,4
4,59,81,240
4,55,81,4
4,59,83,168
4,55,76,8
4,57,76,236
4,50,78,0
4,55,67,4
4,59,84,12
4,55,89,288
4,47,88,0
4,57,70,300
4,54,67,4
4,59,68,344
4,55,64,4
4,57,53,40
4,60,59,8
4,59,68,100
4,62,59,0
4,59,72,40
4,55,55,16
4,59,78,288
4,55,55,24
4,60,59,284
4,64,81,0
4,60,61,96
4,64,86,0
4,62,83,60
4,59,84,8
4,67,85,20
4,62,78,4
4,59,93,280
4,55,73,16
4,60,72,288
4,52,66,16
4,62,74,76
4,54,57,4
4,55,76,40
4,59,73,4
4,52,56,76
4,59,61,4
4,60,82,92
4,57,66,0
4,59,85,0
4,62,74,12
4,57,55,52
4,60,66,8
4,59,89,60
4,55,68,0
4,54,67,48
4,57,70,28
4,59,77,60
4,55,68,4
4,55,75,192
4,59,83,0
4,59,88,292
4,62,81,0
4,59,97,272
4,55,76,12
4,64,86,288
4,60,71,4
4,62,77,48
4,59,91,4
4,59,91,148
4,62,76,0
4,60,72,276
4,57,67,4
4,54,73,112
4,60,85,4
4,59,81,240
4,55,81,4
4,59,83,168
4,55,76,8
4,57,76,236
4,50,78,0
4,55,67,8
4,59,84,12
4,55,89,284
4,47,88,4
4,57,70,300
4,54,67,4
4,59,68,344
4,55,64,4
4,57,53,36
4,60,59,8
4,59,68,100
4,62,59,0
4,59,72,40
4,55,55,16
4,59,78,288
4,55,55,24
4,60,59,276
4,64,81,4
4,60,61,100
4,64,86,0
4,62,83,60
4,59,84,8
4,67,85,20
4,62,78,4
4,59,93,288
4,55,73,12
4,60,72,288
4,52,66,20
4,62,74,72
4,54,57,8
4,55,76,36
4,59,73,4
4,52,56,76
4,59,61,4
4,60,82,92
4,57,66,4
4,59,85,0
4,62,74,16
4,57,55,52
4,60,66,8
4,59,89,60
4,55,68,0
4,54,67,52
4,57,70,24
4,59,77,56
4,55,68,8
4,62,119,192
4,59,117,344
4,60,117,68
4,62,106,100
4,59,102,80
4,62,96,108
4,54,99,76
4,55,96,92
4,57,91,88
4,54,104,80
4,59,104,116
4,55,107,40
4,57,102,76
4,59,102,76
4,55,111,60
4,52,121,92
4,50,111,60
4,52,113,104
4,49,112,96
4,49,123,232
4,50,104,20
4,52,119,44
4,54,123,76
4,55,115,60
4,57,123,56
4,59,127,96
4,57,124,276
4,55,117,264
4,57,117,268
4,62,98,28
4,54,117,36
4,55,121,244
4,54,93,264
4,67,115,260
4,59,106,344
4,62,109,36
4,55,111,40
4,67,111,264
4,60,92,12
4,64,111,12
4,55,113,52
4,71,93,256
4,69,96,256
4,67,96,240
4,66,108,252
4,64,100,4
4,62,91,20
4,64,100,160
4,66,104,32
4,54,85,272
4,55,81,16
4,57,91,4
4,59,96,4
4,60,89,28
4,62,82,196
4,64,106,20
4,62,89,260
4,60,90,232
4,62,75,252
4,67,82,8
4,59,86,40
4,60,78,284
4,59,68,276
4,62,119,112
4,59,117,348
4,60,117,68
4,62,106,104
4,59,102,80
4,62,96,108
4,54,99,72
4,55,96,92
4,57,91,88
4,54,104,80
4,59,104,116
4,55,107,36
4,57,102,76
4,59,102,76
4,55,111,64
4,52,121,92
4,50,111,60
4,52,113,104
4,49,112,96
4,49,123,232
4,50,104,20
4,52,119,48
4,54,123,76
4,55,115,60
4,57,123,56
4,59,127,96
4,57,124,276
4,55,117,264
4,57,117,268
4,62,98,28
4,54,117,36
4,55,121,244
4,54,93,264
4,67,115,260
4,59,106,348
4,62,109,32
4,55,111,40
4,67,111,264
4,60,92,12
4,64,111,8
4,55,113,48
4,71,93,256
4,69,96,260
4,67,96,240
4,66,108,248
4,64,100,4
4,62,91,20
4,64,100,160
4,66,104,32
4,54,85,272
4,55,81,16
4,57,91,4
4,59,96,4
4,60,89,28
4,62,82,196
4,64,106,20
4,62,89,260
4,60,90,232
4,62,75,252
4,67,82,8
4,59,86,44
4,60,78,284
4,59,68,276
5,74,85,1812
5,67,85,12
5,69,86,80
5,71,89,64
5,72,86,80
5,74,76,92
5,67,88,32
5,67,89,244
5,76,92,260
5,72,91,40
5,74,93,48
5,76,84,80
5,78,90,84
5,79,93,92
5,67,97,24
5,67,93,236
5,72,91,248
5,74,84,76
5,72,89,64
5,71,93,76
5,69,82,100
5,71,89,96
5,72,83,88
5,71,86,64
5,69,83,64
5,67,85,72
5,66,84,64
5,67,75,60
5,69,84,52
5,71,89,80
5,67,90,100
5,69,68,88
5,74,85,264
5,67,84,48
5,69,84,88
5,71,82,96
5,72,89,88
5,74,88,92
5,67,90,28
5,67,93,224
5,76,93,224
5,72,93,60
5,74,91,56
5,76,90,84
5,78,86,68
5,79,91,84
5,67,93,28
5,67,92,200
5,72,93,236
5,74,74,88
5,72,96,44
5,71,91,60
5,69,89,68
5,71,93,96
5,72,83,80
5,71,84,56
5,69,83,64
5,67,93,72
5,69,93,92
5,71,93,104
5,69,88,64
5,67,97,64
5,66,97,76
5,67,91,116
5,74,85,224
5,67,85,8
5,69,86,80
5,71,89,68
5,72,86,76
5,74,76,92
5,67,88,32
5,67,89,244
5,76,92,260
5,72,91,40
5,74,93,48
5,76,84,80
5,78,90,84
5,79,93,92
5,67,97,24
5,67,93,236
5,72,91,248
5,74,84,76
5,72,89,64
5,71,93,72
5,69,82,100
5,71,89,96
5,72,83,84
5,71,86,64
5,69,83,64
5,67,85,72
5,66,84,64
5,67,75,60
5,69,84,52
5,71,89,80
5,67,90,100
5,69,68,88
5,74,85,264
5,67,84,48
5,69,84,88
5,71,82,92
5,72,89,88
5,74,88,92
5,67,90,32
5,67,93,224
5,76,93,224
5,72,93,56
5,74,91,56
5,76,90,84
5,78,86,68
5,79,91,84
5,67,93,28
5,67,92,204
5,72,93,236
5,74,74,88
5,72,96,44
5,71,91,60
5,69,89,68
5,71,93,96
5,72,83,84
5,71,84,56
5,69,83,64
5,67,93,72
5,69,93,92
5,71,93,108
5,69,88,64
5,67,97,64
5,66,97,76
5,67,91,116
5,71,109,220
5,67,100,60
5,69,93,52
5,71,106,92
5,67,88,92
5,69,100,120
5,62,89,76
5,64,97,84
5,66,108,92
5,62,85,92
5,67,107,92
5,64,96,64
5,66,99,64
5,67,86,60
5,62,98,88
5,61,101,120
5,59,101,44
5,61,97,56
5,57,95,76
5,57,93,208
5,59,104,24
5,61,110,40
5,62,93,52
5,64,102,44
5,66,108,28
5,67,109,64
5,66,97,248
5,64,101,276
5,66,115,260
5,57,92,272
5,61,94,260
5,62,84,240
5,74,121,356
5,67,109,48
5,66,108,12
5,67,111,52
5,76,113,248
5,67,107,40
5,66,108,16
5,67,113,60
5,74,113,316
5,72,117,280
5,71,111,280
5,69,106,248
5,67,100,8
5,66,101,4
5,67,97,12
5,69,101,56
5,62,106,232
5,64,98,40
5,66,108,16
5,67,104,36
5,69,91,32
5,71,102,204
5,72,113,48
5,71,98,256
5,69,95,252
5,71,101,280
5,74,91,4
5,67,113,24
5,66,110,308
5,67,91,328
5,71,109,160
5,83,121,4
5,79,106,8
5,67,100,16
5,81,111,20
5,69,93,4
5,71,106,64
5,83,104,0
5,79,106,32
5,67,88,0
5,81,113,68
5,69,100,36
5,74,97,48
5,62,89,24
5,76,107,36
5,64,97,20
5,78,112,60
5,66,108,12
5,74,97,36
5,62,85,20
5,79,107,76
5,67,107,16
