track,note,velocity,time
7,65,100,660
7,62,100,0
7,57,100,0
7,50,100,0
7,50,0,150
7,57,0,8
7,62,0,7
7,65,0,6
7,50,85,9
7,65,85,0
7,62,85,0
7,57,85,0
7,65,0,48
7,62,0,6
7,50,0,6
7,57,0,0
7,58,110,60
7,67,110,0
7,63,110,0
7,51,110,0
7,51,0,150
7,58,0,0
7,67,0,0
7,63,0,0
7,67,85,30
7,51,85,0
7,63,85,0
7,58,85,0
7,51,0,150
7,67,0,0
7,58,0,13
7,63,0,4
7,51,85,13
7,58,85,0
7,63,85,0
7,67,85,0
7,67,0,51
7,63,0,6
7,58,0,3
7,51,0,0
7,58,120,60
7,67,120,0
7,63,120,0
7,53,120,0
7,53,0,150
7,58,0,0
7,67,0,0
7,63,0,0
7,67,85,30
7,63,85,0
7,58,85,0
7,53,85,0
7,53,0,150
7,67,0,0
7,63,0,0
7,58,0,0
7,53,85,27
7,58,85,3
7,63,85,2
7,67,85,2
7,53,0,51
7,67,0,1
7,63,0,3
7,58,0,1
7,63,103,60
7,74,127,0
7,67,103,2
7,74,0,103
7,63,0,0
7,67,0,2
7,63,103,11
7,72,127,2
7,67,103,3
7,63,0,100
7,72,0,2
7,67,0,3
7,63,103,12
7,70,127,0
7,67,103,6
7,70,0,99
7,63,0,0
7,67,0,6
7,63,103,3
7,72,127,6
7,67,103,2
7,63,0,97
7,67,0,6
7,72,0,0
7,38,79,28809
7,69,88,0
7,65,91,2
7,62,79,0
7,50,66,0
7,65,0,435
7,62,0,4
7,69,0,1
7,38,0,6
7,50,0,1
7,39,68,37
7,70,96,0
7,63,81,0
7,51,68,0
7,67,84,0
7,63,0,434
7,39,0,1
7,51,0,2
7,67,0,3
7,70,0,3
7,41,79,37
7,70,101,0
7,65,68,0
7,67,79,0
7,53,68,0
7,67,0,446
7,65,0,1
7,70,0,1
7,41,0,2
7,53,0,2
7,41,66,28
7,53,57,0
7,65,72,0
7,69,96,0
7,72,91,0
7,65,0,133
7,72,0,4
7,69,0,2
7,69,88,41
7,77,105,0
7,72,112,0
7,77,0,145
7,72,0,5
7,69,0,7
7,69,101,23
7,72,101,0
7,65,84,0
7,53,0,83
7,41,0,5
7,72,0,2
7,69,0,5
7,65,0,1
7,65,75,24
7,69,79,0
7,38,91,0
7,62,75,0
7,50,61,0
7,48,64,0
7,48,0,40
7,65,0,391
7,62,0,3
7,69,0,3
7,38,0,3
7,50,0,3
7,39,66,37
7,70,101,0
7,63,88,0
7,51,74,0
7,67,79,0
7,63,0,435
7,39,0,2
7,67,0,3
7,51,0,0
7,70,0,5
7,41,56,35
7,70,105,0
7,67,96,0
7,53,61,0
7,65,79,0
7,65,0,329
7,67,0,4
7,70,0,1
7,41,0,3
7,53,0,3
7,41,64,20
7,70,105,0
7,67,105,0
7,53,64,0
7,65,75,0
7,41,0,80
7,65,0,1
7,53,0,1
7,67,0,0
7,70,0,3
7,41,66,35
7,53,56,0
7,65,70,0
7,69,88,0
7,72,91,0
7,65,0,134
7,69,0,9
7,72,0,1
7,69,84,36
7,77,96,0
7,72,112,0
7,77,0,142
7,72,0,6
7,69,0,4
7,69,88,28
7,65,79,0
7,72,96,0
7,72,0,84
7,69,0,2
7,53,0,1
7,65,0,1
7,41,0,2
7,65,84,30
7,69,79,0
7,62,74,0
7,38,88,0
7,50,66,0
7,65,0,415
7,62,0,2
7,69,0,3
7,38,0,16
7,50,0,1
7,39,66,43
7,70,96,0
7,63,68,0
7,51,68,0
7,67,23,0
7,67,0,432
7,63,0,2
7,39,0,3
7,51,0,5
7,70,0,6
7,41,70,32
7,70,115,0
7,67,96,0
7,65,79,0
7,53,68,0
7,65,0,340
7,67,0,2
7,70,0,2
7,41,0,5
7,53,0,1
7,41,70,10
7,70,84,0
7,67,79,0
7,65,66,0
7,53,64,0
7,65,0,73
7,67,0,3
7,41,0,1
7,53,0,1
7,70,0,1
7,41,74,41
7,53,66,0
7,72,96,0
7,65,82,0
7,69,100,0
7,65,0,143
7,69,0,5
7,72,0,1
7,69,96,31
7,72,115,0
7,77,100,0
7,77,0,136
7,72,0,4
7,69,0,3
7,41,0,24
7,53,0,3
7,69,100,10
7,65,89,0
7,72,92,0
7,41,72,0
7,53,77,0
7,53,0,78
7,41,0,6
7,69,0,15
7,65,0,5
7,72,0,3
7,70,111,13
7,67,68,0
7,39,66,0
7,51,66,0
7,67,0,340
7,39,0,2
7,51,0,2
7,70,0,1
7,70,105,15
7,67,81,0
7,39,60,0
7,51,60,0
7,39,0,64
7,51,0,3
7,67,0,8
7,70,0,6
7,41,79,39
7,69,115,0
7,65,100,0
7,72,111,0
7,53,68,0
7,65,0,146
7,72,0,6
7,69,0,1
7,69,105,27
7,72,115,0
7,77,100,0
7,77,0,139
7,72,0,8
7,69,0,5
7,65,86,28
7,69,100,0
7,72,105,0
7,53,0,93
7,65,0,4
7,41,0,1
7,69,0,0
7,72,0,4
7,70,115,18
7,67,82,0
7,39,60,0
7,51,60,0
7,51,0,159
7,70,0,2
7,39,0,2
7,67,0,2
7,70,111,15
7,67,89,0
7,39,79,0
7,51,79,0
7,67,0,192
7,70,0,2
7,39,0,13
7,51,0,2
7,86,113,99
7,74,59,2
7,74,0,106
7,86,0,0
7,84,113,7
7,72,72,4
7,72,0,102
7,84,0,2
7,82,113,9
7,82,0,103
7,70,82,0
7,70,0,9
7,84,113,3
7,72,86,3
7,84,0,92
7,72,0,5
8,38,124,832
8,38,0,140
8,38,116,41
8,38,0,163
8,45,105,15
8,38,105,60
8,45,0,12
8,39,127,48
8,38,0,10
8,39,0,146
8,39,116,24
8,39,0,177
8,46,116,3
8,39,124,60
8,46,0,7
8,39,0,48
8,41,124,7
8,41,0,146
8,41,116,32
8,41,0,98
8,41,105,22
8,48,120,62
8,41,0,8
8,41,105,52
8,48,0,2
8,41,0,57
8,50,104,0
8,48,120,121
8,50,0,8
8,48,0,112
8,41,110,0
8,43,124,58
8,41,0,7
8,46,127,55
8,43,0,6
8,41,124,54
8,46,0,7
8,46,127,53
8,41,0,1
8,46,0,63
8,46,127,114
8,41,113,60
8,46,0,3
8,41,0,78
8,43,96,99
8,44,127,60
8,43,0,5
8,44,0,79
8,44,92,96
8,44,0,59
8,39,124,1
8,39,0,83
8,41,102,98
8,46,102,59
8,41,0,11
8,46,0,65
8,46,127,104
8,46,0,60
8,41,102,0
8,41,0,82
8,43,102,100
8,43,0,56
8,44,124,2
8,44,0,79
8,44,102,101
8,44,0,57
8,39,120,3
8,39,0,73
8,41,102,108
8,46,124,61
8,41,0,4
8,46,0,62
8,46,105,112
8,46,0,48
8,41,99,12
8,41,0,85
8,43,92,95
8,43,0,51
8,44,124,9
8,44,0,69
8,44,89,111
8,44,0,47
8,39,124,14
8,39,0,81
8,41,91,98
8,41,0,59
8,46,124,1
8,46,0,72
8,46,124,108
8,46,0,55
8,41,100,5
8,41,0,72
8,43,92,108
8,44,110,60
8,43,0,8
8,44,0,74
8,44,89,98
8,44,0,58
8,39,107,2
8,39,0,73
8,41,99,107
8,46,92,60
8,41,0,2
8,46,0,80
8,46,99,98
8,41,113,60
8,46,0,3
8,41,0,81
8,43,92,96
8,44,116,60
8,43,0,2
8,44,0,72
8,44,89,106
8,39,86,60
8,44,0,5
8,39,0,67
8,41,96,108
8,41,0,60
8,46,116,0
8,46,0,74
8,46,102,106
8,41,92,60
8,46,0,1
8,41,0,73
8,43,86,106
8,44,116,60
8,43,0,2
8,44,0,79
8,44,91,99
8,39,116,60
8,44,0,4
8,39,0,70
8,41,96,106
8,46,105,60
8,41,0,4
8,46,0,68
8,46,99,108
8,46,0,58
8,41,96,2
8,41,0,71
8,43,99,109
8,44,116,60
8,43,0,7
8,44,0,65
8,44,89,108
8,39,107,60
8,44,0,3
8,39,0,73
8,41,99,104
8,41,0,53
8,46,102,7
8,46,0,70
8,46,102,110
8,41,102,60
8,46,0,4
8,41,0,66
8,43,92,110
8,44,105,60
8,43,0,6
8,44,0,69
8,44,92,105
8,39,105,60
8,44,0,1
8,39,0,67
8,41,99,112
8,46,116,60
8,41,0,3
8,46,0,58
8,46,124,119
8,46,0,57
8,41,105,3
8,41,0,77
8,43,96,103
8,44,124,60
8,43,0,5
8,44,0,61
8,44,110,114
8,44,0,58
8,39,120,2
8,39,0,77
8,41,116,103
8,46,127,60
8,41,0,3
8,46,0,57
8,46,127,120
8,46,0,56
8,41,116,4
8,41,0,57
8,43,102,123
8,43,0,59
8,44,127,1
8,44,0,78
8,44,102,102
8,44,0,59
8,39,127,1
8,39,110,61
8,39,0,1
8,39,0,33
8,39,110,26
8,39,0,27
8,39,124,32
8,39,0,25
8,39,127,35
8,39,0,141
8,39,116,41
8,39,0,19
8,39,116,41
8,39,0,195
8,34,124,44
8,34,0,164
8,46,127,17
8,46,0,24
8,46,127,35
8,46,0,104
8,43,105,17
8,43,0,57
8,41,116,1
8,39,105,60
8,41,0,6
8,39,0,151
8,39,124,25
8,39,0,25
8,39,110,33
8,39,0,114
8,46,110,6
8,46,0,60
8,41,92,0
8,38,105,60
8,41,0,9
8,38,0,134
8,38,124,38
8,38,0,49
8,43,110,10
8,43,0,113
8,41,116,7
8,41,0,94
8,39,127,27
8,39,0,149
8,39,116,32
8,39,0,26
8,39,124,32
8,41,105,180
8,39,0,9
8,31,91,51
8,41,0,4
8,31,0,128
8,31,105,48
8,31,0,25
8,31,116,35
8,31,0,110
8,34,124,10
8,34,0,115
8,39,124,6
8,39,0,470
8,41,124,11
8,41,0,451
8,46,127,29
8,46,0,64
8,46,127,114
8,41,113,60
8,46,0,3
8,41,0,78
8,43,96,99
8,44,127,60
8,43,0,5
8,44,0,79
8,44,92,96
8,44,0,59
8,39,124,1
8,39,0,83
8,41,102,98
8,46,102,59
8,41,0,11
8,46,0,65
8,46,127,104
8,46,0,60
8,41,102,0
8,41,0,82
8,43,102,100
8,43,0,56
8,44,124,2
8,44,0,79
8,44,102,101
8,44,0,57
8,39,120,3
8,39,0,73
8,41,102,108
8,46,124,61
8,41,0,4
8,46,0,62
8,46,105,112
8,46,0,48
8,41,99,12
8,41,0,85
8,43,92,95
8,43,0,51
8,44,124,9
8,44,0,69
8,44,89,111
8,44,0,47
8,39,124,14
8,39,0,81
8,41,91,98
8,41,0,59
8,46,124,1
8,46,0,72
8,46,124,108
8,46,0,55
8,41,100,5
8,41,0,72
8,43,92,108
8,44,110,60
8,43,0,8
8,44,0,74
8,44,89,98
8,44,0,58
8,39,107,2
8,39,0,73
8,41,99,107
8,46,92,60
8,41,0,2
8,46,0,80
8,46,99,98
8,41,113,60
8,46,0,3
8,41,0,81
8,43,92,96
8,44,116,60
8,43,0,2
8,44,0,72
8,44,89,106
8,39,86,60
8,44,0,5
8,39,0,67
8,41,96,108
8,41,0,60
8,46,116,0
8,46,0,74
8,46,102,106
8,41,92,60
8,46,0,1
8,41,0,73
8,43,86,106
8,44,116,60
8,43,0,2
8,44,0,79
8,44,91,99
8,39,116,60
8,44,0,4
8,39,0,70
8,41,96,106
8,46,105,60
8,41,0,4
8,46,0,68
8,46,99,108
8,46,0,58
8,41,96,2
8,41,0,71
8,43,99,109
8,44,116,60
8,43,0,7
8,44,0,65
8,44,89,108
8,39,107,60
8,44,0,3
8,39,0,73
8,41,99,104
8,41,0,53
8,46,102,7
8,46,0,70
8,46,102,110
8,41,102,60
8,46,0,4
8,41,0,66
8,43,92,110
8,44,105,60
8,43,0,6
8,44,0,69
8,44,92,105
8,39,105,60
8,44,0,1
8,39,0,67
8,41,99,112
8,46,116,61
8,41,0,2
8,46,0,59
8,46,124,118
8,46,0,57
8,41,105,3
8,41,0,77
8,43,96,103
8,44,124,60
8,43,0,5
8,44,0,61
8,44,110,114
8,44,0,58
8,39,120,2
8,39,0,77
8,41,116,103
8,46,127,60
8,41,0,3
8,46,0,57
8,46,127,120
8,46,0,56
8,41,116,4
8,41,0,57
8,43,102,123
8,43,0,59
8,44,127,1
8,44,0,78
8,44,102,102
8,44,0,59
8,39,127,1
8,39,110,61
8,39,0,1
8,39,0,33
8,39,110,26
8,39,0,27
8,39,124,32
8,39,0,25
8,39,127,35
8,39,0,141
8,39,116,41
8,39,0,19
8,39,116,41
8,39,0,195
8,34,124,44
8,34,0,164
8,46,127,17
8,46,0,24
8,46,127,35
8,46,0,104
8,43,105,17
8,43,0,57
8,41,116,1
8,39,105,60
8,41,0,6
8,39,0,151
8,39,124,25
8,39,0,25
8,39,110,33
8,39,0,114
8,46,110,6
8,46,0,60
8,41,92,0
8,38,105,60
8,41,0,9
8,38,0,134
8,38,124,38
8,38,0,49
8,43,110,10
8,43,0,113
8,41,116,7
8,41,0,94
8,39,127,27
8,39,0,149
8,39,116,32
8,39,0,26
8,39,124,32
8,41,105,180
8,39,0,9
8,31,91,51
8,41,0,4
8,31,0,128
8,31,105,48
8,31,0,25
8,31,116,35
8,31,0,110
8,34,124,10
8,34,0,115
8,39,124,6
8,39,0,470
8,41,124,11
8,41,0,451
8,46,127,29
8,46,0,64
8,46,127,114
8,41,113,60
8,46,0,3
8,41,0,78
8,43,96,99
8,44,127,60
8,43,0,5
8,44,0,79
8,44,92,96
8,44,0,59
8,39,124,1
8,39,0,83
8,41,102,98
8,46,102,59
8,41,0,11
8,46,0,65
8,46,127,104
8,46,0,60
8,41,102,0
8,41,0,82
8,43,102,100
8,43,0,56
8,44,124,2
8,44,0,79
8,44,102,101
8,44,0,57
8,39,76,4
8,39,0,45
8,39,116,14
8,39,0,34
8,39,124,26
8,39,0,25
8,39,110,35
8,39,0,21
8,38,127,39
8,38,0,147
8,38,124,33
8,38,0,93
8,38,124,27
8,38,0,54
8,45,105,6
8,45,0,55
8,38,110,5
8,38,0,51
8,39,124,9
8,39,0,152
8,39,124,28
8,39,0,97
8,39,110,25
8,39,0,52
8,46,124,8
8,39,110,58
8,46,0,6
8,39,0,28
8,41,116,27
8,41,0,142
8,41,116,39
8,41,0,96
8,41,110,24
8,41,0,48
8,48,84,10
8,41,105,60
8,48,0,3
8,41,0,41
8,43,105,16
8,43,0,150
8,43,110,32
8,43,0,96
8,43,105,24
8,43,0,96
8,43,110,24
8,43,0,59
8,38,116,1
8,38,0,124
8,38,83,55
8,38,0,90
8,38,91,29
8,38,0,55
8,45,89,5
8,38,96,60
8,45,0,5
8,38,0,31
8,39,96,24
8,39,0,128
8,39,110,54
8,39,0,97
8,46,116,21
8,46,0,50
8,46,116,70
8,46,0,49
8,41,110,11
8,41,0,138
8,41,86,42
8,41,0,101
8,48,105,21
8,48,0,50
8,53,89,10
8,53,0,58
8,48,105,0
8,48,0,58
8,43,102,2
8,43,0,125
8,43,105,55
8,43,0,95
8,43,110,25
8,43,0,97
8,43,81,23
8,43,0,52
8,38,110,9
8,38,0,125
8,38,88,54
8,38,0,95
8,38,89,25
8,38,0,57
8,45,91,4
8,45,0,50
8,38,92,10
8,38,0,53
8,39,105,7
8,39,0,127
8,39,124,52
8,39,0,100
8,39,116,22
8,39,0,55
8,46,127,5
8,39,107,60
8,46,0,3
8,39,0,26
8,41,102,31
8,41,0,47
8,41,102,13
8,41,0,75
8,41,110,45
8,41,0,93
8,41,110,27
8,41,0,80
8,41,92,38
8,41,0,49
8,43,116,11
8,43,0,52
8,43,110,10
8,43,0,76
8,43,99,44
8,43,0,90
8,43,105,39
8,43,0,80
8,41,105,90
8,41,0,120
8,41,102,59
8,41,0,113
8,55,89,9
8,53,92,60
8,55,0,1
8,53,0,103
8,43,99,14
8,43,0,135
8,43,92,45
8,43,0,120
8,57,86,2
8,57,0,32
8,55,89,28
8,55,0,36
8,53,83,23
8,53,0,45
8,41,91,14
8,41,0,131
8,41,105,49
8,48,91,122
8,41,0,6
8,48,0,50
8,53,78,4
8,53,0,50
8,48,105,8
8,48,0,60
8,50,78,1
8,50,0,110
8,48,102,11
8,48,0,99
8,41,99,19
8,43,89,60
8,41,0,8
8,46,124,52
8,43,0,10
8,46,0,40
