track,note,velocity,time
0,36,99,96
0,42,92,0
0,42,93,188
0,36,99,188
0,38,109,0
0,42,102,0
0,42,87,188
0,36,90,188
0,42,92,0
0,42,93,188
0,36,96,188
0,38,101,0
0,42,95,0
0,42,91,188
0,36,90,96
0,42,102,0
0,42,90,188
0,36,94,188
0,38,106,0
0,42,94,0
0,42,91,188
0,36,90,188
0,42,96,0
0,42,89,188
0,36,98,188
0,38,103,0
0,42,102,0
0,42,92,188
0,36,96,96
0,42,96,0
0,30,108,0
0,73,109,0
0,70,109,0
0,65,101,0
0,66,105,0
0,42,87,16
0,42,105,0
0,36,93,16
0,38,109,0
0,42,93,0
0,30,105,0
0,42,93,16
0,42,101,0
0,66,107,0
0,70,108,0
0,61,104,0
0,63,100,0
0,36,92,16
0,42,103,0
0,35,108,0
0,42,87,16
0,47,104,0
0,36,99,16
0,38,103,0
0,42,99,0
0,37,100,0
0,42,91,16
0,49,105,0
0,36,95,16
0,42,96,0
0,42,102,0
0,42,89,16
0,54,103,0
0,36,97,16
0,38,109,0
0,42,93,0
0,37,102,0
0,42,90,16
0,49,102,0
0,36,99,16
0,42,103,0
0,35,106,0
0,42,84,16
0,47,108,0
0,36,94,16
0,38,101,0
0,42,102,0
0,37,107,0
0,42,90,16
0,49,101,0
0,36,92,16
0,42,102,0
0,30,105,0
0,64,109,0
0,75,105,0
0,71,101,0
0,68,102,0
0,42,89,16
0,42,103,0
0,36,97,16
0,38,103,0
0,42,103,0
0,30,107,0
0,42,93,16
0,42,101,0
0,63,102,0
0,66,100,0
0,70,104,0
0,73,108,0
0,36,92,16
0,42,103,0
0,35,101,0
0,42,87,16
0,47,102,0
0,36,95,16
0,38,104,0
0,42,102,0
0,37,102,0
0,42,87,16
0,49,106,0
0,36,90,16
0,42,95,0
0,42,101,0
0,42,92,16
0,54,109,0
0,36,91,16
0,38,103,0
0,42,97,0
0,37,108,0
0,42,86,16
0,49,103,0
0,36,92,16
0,42,103,0
0,35,107,0
0,42,91,16
0,47,102,0
0,36,94,16
0,38,102,0
0,42,100,0
0,37,103,0
0,42,91,16
0,49,100,0
0,36,96,16
0,42,92,0
0,30,109,0
0,57,106,0
0,61,104,0
0,64,104,0
0,42,83,16
0,42,108,0
0,36,98,16
0,38,101,0
0,42,99,0
0,30,103,0
0,42,87,16
0,42,101,0
0,63,101,0
0,59,106,0
0,66,103,0
0,36,92,16
0,42,100,0
0,35,109,0
0,42,88,16
0,47,104,0
0,36,95,16
0,38,109,0
0,42,96,0
0,37,103,0
0,64,103,0
0,68,106,0
0,61,102,0
0,42,92,16
0,49,109,0
0,36,98,16
0,42,92,0
0,42,104,0
0,63,105,0
0,59,106,0
0,66,98,0
0,42,92,16
0,54,107,0
0,36,91,16
0,38,106,0
0,42,97,0
0,37,107,0
0,42,92,16
0,49,102,0
0,36,92,16
0,42,94,0
0,35,109,0
0,42,89,16
0,47,101,0
0,36,91,16
0,38,109,0
0,42,98,0
0,37,103,0
0,42,89,16
0,49,107,0
0,36,91,16
0,42,93,0
0,30,106,0
0,66,100,0
0,62,106,0
0,69,108,0
0,42,91,16
0,42,103,0
0,36,93,16
0,38,104,0
0,42,94,0
0,30,108,0
0,42,82,16
0,42,107,0
0,68,106,0
0,64,102,0
0,71,101,0
0,36,97,16
0,42,93,0
0,35,107,0
0,42,93,16
0,47,109,0
0,36,93,16
0,38,106,0
0,42,92,0
0,37,101,0
0,73,109,0
0,69,99,0
0,66,101,0
0,42,91,16
0,49,104,0
0,36,95,16
0,42,100,0
0,42,102,0
0,71,99,0
0,64,104,0
0,68,107,0
0,42,88,16
0,54,104,0
0,36,97,16
0,38,106,0
0,42,103,0
0,37,109,0
0,42,85,16
0,49,104,0
0,36,90,16
0,42,94,0
0,35,100,0
0,42,84,16
0,47,106,0
0,36,90,16
0,38,106,0
0,42,94,0
0,37,109,0
0,42,88,16
0,49,100,0
0,36,91,16
0,42,92,0
0,49,106,0
0,30,102,0
0,73,109,0
0,70,109,0
0,65,104,0
0,66,106,0
0,73,109,0
0,85,107,0
0,85,103,0
0,42,93,16
0,42,103,0
0,36,97,16
0,38,105,0
0,42,96,0
0,30,107,0
0,42,83,12
0,42,104,0
0,66,106,0
0,70,108,0
0,61,98,0
0,63,107,0
0,70,107,0
0,82,103,0
0,82,101,0
0,36,90,16
0,42,96,0
0,35,105,0
0,42,93,16
0,47,105,0
0,36,92,16
0,38,100,0
0,42,98,0
0,37,101,0
0,42,92,16
0,49,109,0
0,36,95,16
0,42,93,0
0,42,103,0
0,42,91,16
0,54,109,0
0,36,92,16
0,38,107,0
0,42,101,0
0,37,102,0
0,42,87,16
0,49,102,0
0,36,95,12
0,42,95,0
0,35,104,0
0,80,102,0
0,68,102,0
0,80,107,0
0,42,84,16
0,47,103,0
0,36,90,12
0,38,109,0
0,42,95,0
0,37,101,0
0,82,101,0
0,70,103,0
0,82,106,0
0,42,85,16
0,49,107,0
0,36,92,12
0,42,98,0
0,30,107,0
0,64,103,0
0,75,107,0
0,71,102,0
0,68,103,0
0,87,103,0
0,75,101,0
0,87,102,0
0,42,92,16
0,42,106,0
0,36,91,16
0,38,101,0
0,42,102,0
0,30,100,0
0,42,90,12
0,42,102,0
0,63,102,0
0,66,101,0
0,70,103,0
0,73,106,0
0,85,102,0
0,73,104,0
0,85,102,0
0,36,90,16
0,42,100,0
0,35,102,0
0,42,84,16
0,47,108,0
0,36,90,16
0,38,107,0
0,42,98,0
0,37,107,0
0,42,85,16
0,49,101,0
0,36,92,16
0,42,101,0
0,42,102,0
0,42,82,16
0,54,105,0
0,36,96,16
0,38,107,0
0,42,95,0
0,37,102,0
0,42,91,16
0,49,107,0
0,36,96,16
0,42,97,0
0,35,105,0
0,42,91,16
0,47,105,0
0,36,95,16
0,38,106,0
0,42,94,0
0,37,106,0
0,42,90,12
0,49,102,0
0,36,91,16
0,42,93,0
0,30,101,0
0,57,99,0
0,61,106,0
0,64,103,0
0,64,100,0
0,76,105,0
0,76,109,0
0,42,86,16
0,42,104,0
0,36,92,16
0,38,109,0
0,42,103,0
0,30,108,0
0,42,92,12
0,42,101,0
0,63,108,0
0,59,104,0
0,66,104,0
0,66,107,0
0,78,104,0
0,78,104,0
0,36,99,16
0,42,93,0
0,35,103,0
0,42,88,16
0,47,100,0
0,36,91,12
0,38,106,0
0,42,94,0
0,37,109,0
0,64,105,0
0,68,99,0
0,61,102,0
0,68,106,0
0,80,104,0
0,80,105,0
0,42,85,16
0,49,104,0
0,36,98,12
0,42,94,0
0,42,103,0
0,63,104,0
0,59,103,0
0,66,99,0
0,78,109,0
0,66,105,0
0,78,100,0
0,42,90,16
0,54,105,0
0,36,94,16
0,38,108,0
0,42,100,0
0,37,109,0
0,42,89,16
0,49,106,0
0,36,97,16
0,42,97,0
0,35,101,0
0,42,92,16
0,47,103,0
0,36,91,16
0,38,102,0
0,42,92,0
0,37,109,0
0,42,85,16
0,49,109,0
0,36,97,12
0,42,103,0
0,30,100,0
0,66,106,0
0,62,99,0
0,69,108,0
0,69,100,0
0,81,98,0
0,81,99,0
0,42,83,16
0,42,107,0
0,36,98,16
0,38,100,0
0,42,99,0
0,30,106,0
0,42,83,12
0,42,106,0
0,68,106,0
0,64,99,0
0,71,107,0
0,83,109,0
0,71,103,0
0,83,107,0
0,36,95,16
0,42,93,0
0,35,103,0
0,42,83,16
0,47,100,0
0,36,94,12
0,38,108,0
0,42,98,0
0,37,107,0
0,73,98,0
0,69,109,0
0,66,103,0
0,73,107,0
0,85,102,0
0,85,106,0
0,42,89,16
0,49,107,0
0,36,95,12
0,42,97,0
0,42,105,0
0,71,100,0
0,64,99,0
0,68,98,0
0,83,105,0
0,71,108,0
0,83,104,0
0,42,90,16
0,54,107,0
0,36,95,16
0,38,100,0
0,42,102,0
0,37,105,0
0,42,92,16
0,49,105,0
0,36,92,16
0,42,101,0
0,35,100,0
0,42,84,16
0,47,107,0
0,36,98,16
0,38,105,0
0,42,101,0
0,37,100,0
0,42,82,16
0,49,106,0
0,73,107,24
0,77,102,4
0,36,90,16
0,42,103,0
0,30,100,0
0,70,109,0
0,66,107,0
0,73,104,0
0,78,78,0
0,82,83,0
0,73,79,0
0,73,120,0
0,82,101,20
0,85,106,40
0,42,89,16
0,42,105,0
0,36,91,16
0,38,103,0
0,42,100,0
0,30,107,0
0,42,92,16
0,42,104,0
0,36,94,16
0,42,93,0
0,30,102,0
0,42,83,16
0,42,106,0
0,36,98,16
0,38,108,0
0,42,94,0
0,30,104,0
0,42,92,16
0,42,109,0
0,36,94,16
0,42,94,0
0,30,107,0
0,54,108,0
0,42,93,16
0,42,109,0
0,58,106,0
0,36,91,16
0,38,105,0
0,42,98,0
0,30,108,0
0,61,103,0
0,42,87,16
0,42,106,0
0,66,109,0
0,36,91,0
0,42,102,0
0,30,106,0
0,66,105,0
0,70,107,0
0,73,107,0
0,42,86,16
0,42,102,0
0,36,99,0
0,38,106,0
0,42,102,0
0,40,100,0
0,68,102,0
0,64,98,0
0,71,107,0
0,42,82,16
0,52,100,0
0,66,116,0
0,36,94,0
0,42,102,0
0,38,100,0
0,62,99,0
0,66,106,0
0,69,108,0
0,74,87,0
0,81,84,0
0,78,82,0
0,74,116,0
0,42,82,16
0,50,101,0
0,36,93,12
0,38,106,0
0,42,101,0
0,38,104,0
0,76,112,0
0,42,85,12
0,50,103,0
0,78,113,0
0,36,95,16
0,42,96,0
0,38,109,0
0,42,87,16
0,50,103,0
0,36,92,12
0,38,108,0
0,42,101,0
0,38,106,0
0,74,112,0
0,42,86,12
0,50,107,0
0,71,115,0
0,36,95,0
0,42,94,0
0,40,103,0
0,64,99,0
0,68,104,0
0,71,106,0
0,76,86,0
0,80,82,0
0,83,80,0
0,42,93,12
0,52,104,0
0,69,121,0
0,36,94,16
0,38,105,0
0,42,93,0
0,40,102,0
0,42,90,12
0,52,100,0
0,68,110,0
0,36,96,16
0,42,98,0
0,40,103,0
0,42,87,16
0,52,102,0
0,36,92,12
0,38,109,0
0,42,101,0
0,40,106,0
0,71,115,0
0,42,82,12
0,52,107,0
0,73,110,0
0,36,92,0
0,42,94,0
0,54,101,0
0,70,99,0
0,66,107,0
0,73,109,0
0,82,78,0
0,78,86,0
0,85,84,0
0,42,83,16
0,42,101,0
0,36,90,16
0,38,100,0
0,42,94,0
0,54,106,0
0,42,84,16
0,42,105,0
0,36,93,16
0,42,100,0
0,35,100,0
0,42,89,16
0,47,104,0
0,36,97,16
0,38,101,0
0,42,98,0
0,37,102,0
0,42,84,16
0,49,104,0
0,36,98,16
0,42,100,0
0,42,108,0
0,42,93,16
0,54,105,0
0,36,94,16
0,38,106,0
0,42,101,0
0,37,109,0
0,42,93,16
0,49,103,0
0,36,92,0
0,42,100,0
0,35,109,0
0,68,108,0
0,64,99,0
0,71,107,0
0,76,80,0
0,80,84,0
0,83,85,0
0,42,88,16
0,47,108,0
0,36,99,16
0,38,107,0
0,42,99,0
0,37,102,0
0,42,86,16
0,49,108,0
0,66,117,0
0,36,91,0
0,42,94,0
0,38,100,0
0,66,109,0
0,69,105,0
0,62,107,0
0,74,81,0
0,81,79,0
0,78,83,0
0,74,110,0
0,42,91,16
0,50,103,0
0,36,90,12
0,38,100,0
0,42,103,0
0,38,108,0
0,76,110,0
0,42,85,12
0,50,105,0
0,78,111,0
0,36,98,16
0,42,101,0
0,38,109,0
0,42,82,16
0,50,108,0
0,36,96,12
0,38,105,0
0,42,97,0
0,38,101,0
0,74,118,0
0,42,83,12
0,50,100,0
0,71,115,0
0,36,91,0
0,42,102,0
0,40,101,0
0,68,103,0
0,64,103,0
0,71,100,0
0,76,85,0
0,83,83,0
0,80,78,0
0,42,93,16
0,52,101,0
0,36,91,12
0,38,105,0
0,42,98,0
0,40,101,0
0,69,113,0
0,42,85,12
0,52,103,0
0,68,118,0
0,36,95,16
0,42,101,0
0,40,103,0
0,42,86,16
0,52,100,0
0,36,92,12
0,38,104,0
0,42,95,0
0,40,100,0
0,66,121,0
0,42,85,12
0,52,104,0
0,64,111,0
0,36,98,0
0,42,100,0
0,37,109,0
0,64,105,0
0,61,101,0
0,68,104,0
0,73,78,0
0,76,79,0
0,80,84,0
0,42,85,16
0,49,107,0
0,36,93,16
0,38,108,0
0,42,102,0
0,37,104,0
0,42,93,16
0,49,107,0
0,36,98,16
0,42,92,0
0,37,106,0
0,42,91,16
0,49,103,0
0,36,90,12
0,38,101,0
0,42,95,0
0,37,108,0
0,71,112,0
0,42,91,16
0,49,103,0
0,36,93,0
0,42,97,0
0,38,100,0
0,62,108,0
0,69,99,0
0,66,105,0
0,74,78,0
0,81,84,0
0,78,85,0
0,71,116,0
0,42,93,12
0,50,108,0
0,69,114,0
0,36,98,16
0,38,106,0
0,42,92,0
0,38,105,0
0,42,86,16
0,50,101,0
0,36,97,16
0,42,94,0
0,38,109,0
0,42,85,16
0,50,102,0
0,36,91,16
0,38,106,0
0,42,95,0
0,38,100,0
0,42,90,16
0,50,100,0
0,36,93,0
0,42,98,0
0,40,102,0
0,64,100,0
0,68,103,0
0,71,104,0
0,83,80,0
0,80,78,0
0,76,85,0
0,42,91,16
0,52,107,0
0,36,91,16
0,38,104,0
0,42,98,0
0,40,106,0
0,42,86,16
0,52,104,0
0,36,92,16
0,42,99,0
0,40,101,0
0,71,104,0
0,71,112,0
0,42,91,12
0,52,104,0
0,69,104,0
0,69,115,0
0,36,96,12
0,38,103,0
0,42,97,0
0,40,108,0
0,68,103,0
0,68,111,0
0,42,87,12
0,52,101,0
0,66,109,0
0,66,120,0
0,36,90,0
0,42,93,0
0,37,102,0
0,64,104,0
0,68,108,0
0,61,103,0
0,73,83,0
0,80,78,0
0,76,83,0
0,64,117,0
0,42,85,16
0,49,102,0
0,36,95,16
0,38,106,0
0,42,99,0
0,37,106,0
0,42,90,16
0,49,108,0
0,36,92,16
0,42,102,0
0,37,109,0
0,42,90,16
0,49,100,0
0,36,96,12
0,38,101,0
0,42,94,0
0,37,108,0
0,64,98,0
0,68,108,0
0,61,100,0
0,71,119,0
0,42,86,16
0,49,103,0
0,36,96,0
0,42,93,0
0,38,107,0
0,62,106,0
0,69,107,0
0,66,100,0
0,81,87,0
0,78,79,0
0,74,84,0
0,71,114,0
0,42,85,12
0,50,107,0
0,69,119,0
0,36,90,16
0,38,104,0
0,42,94,0
0,38,103,0
0,42,85,16
0,50,103,0
0,36,99,16
0,42,96,0
0,38,108,0
0,42,88,16
0,50,103,0
0,36,97,16
0,38,105,0
0,42,95,0
0,38,109,0
0,42,84,16
0,50,106,0
0,36,98,0
0,42,94,0
0,38,107,0
0,69,100,0
0,62,100,0
0,66,99,0
0,78,83,0
0,81,82,0
0,74,81,0
0,76,117,0
0,42,85,16
0,50,104,0
0,36,91,12
0,38,104,0
0,42,99,0
0,38,106,0
0,74,120,0
0,42,89,12
0,50,101,0
0,69,121,0
0,36,96,0
0,42,99,0
0,40,103,0
0,68,100,0
0,64,102,0
0,71,102,0
0,80,80,0
0,76,86,0
0,83,79,0
0,42,87,16
0,52,103,0
0,36,94,12
0,38,105,0
0,42,103,0
0,40,100,0
0,73,111,0
0,42,91,12
0,52,103,0
0,73,119,0
0,36,91,0
0,42,100,0
0,49,100,0
0,30,101,0
0,73,107,0
0,70,102,0
0,65,109,0
0,66,106,0
0,73,104,0
0,85,108,0
0,85,99,0
0,42,86,16
0,42,108,0
0,36,96,16
0,38,108,0
0,42,103,0
0,30,101,0
0,42,87,12
0,42,101,0
0,66,105,0
0,70,107,0
0,61,107,0
0,63,104,0
0,70,100,0
0,82,105,0
0,82,106,0
0,36,90,16
0,42,92,0
0,35,103,0
0,42,87,16
0,47,101,0
0,36,91,16
0,38,108,0
0,42,100,0
0,37,101,0
0,42,93,16
0,49,109,0
0,36,95,16
0,42,100,0
0,42,108,0
0,42,83,16
0,54,103,0
0,36,98,16
0,38,109,0
0,42,102,0
0,37,105,0
0,42,83,16
