track,note,velocity,time
1,73,81,480
1,70,100,0
1,30,73,0
1,61,75,0
1,66,89,0
1,42,100,0
1,30,0,160
1,66,0,60
1,61,0,0
1,73,0,0
1,70,0,0
1,42,0,60
1,37,32,60
1,37,0,7
1,64,71,0
1,71,85,0
1,76,85,0
1,68,81,0
1,42,109,0
1,68,0,178
1,76,0,0
1,64,0,30
1,71,0,0
1,64,78,30
1,71,104,0
1,71,0,90
1,68,66,0
1,68,0,30
1,64,0,0
1,42,0,0
1,37,55,0
1,37,0,3
1,30,73,0
1,73,69,0
1,61,51,0
1,66,69,0
1,70,66,0
1,42,69,0
1,66,0,30
1,66,26,0
1,30,0,18
1,61,0,30
1,42,0,0
1,73,0,30
1,70,0,0
1,66,0,0
1,61,96,0
1,61,0,30
1,66,55,30
1,61,31,0
1,61,0,30
1,54,68,30
1,66,0,30
1,68,58,30
1,68,0,30
1,54,0,0
1,70,96,0
1,70,0,30
1,68,89,0
1,68,0,30
1,66,49,0
1,66,0,30
1,61,71,0
1,61,0,30
1,38,83,4
1,50,70,23
1,50,0,60
1,57,66,0
1,57,0,60
1,38,0,0
1,40,62,0
1,56,92,0
1,54,81,56
1,56,0,30
1,54,0,14
1,52,64,0
1,52,0,30
1,40,0,30
1,45,85,0
1,45,0,30
1,47,59,30
1,47,0,30
1,37,36,0
1,37,0,21
1,49,96,0
1,30,68,0
1,42,96,0
1,49,0,91
1,61,100,180
1,61,0,30
1,66,51,30
1,66,0,60
1,30,0,0
1,68,54,0
1,68,0,30
1,42,0,0
1,37,13,0
1,37,0,16
1,30,79,0
1,42,54,0
1,76,90,0
1,64,76,0
1,68,79,0
1,71,83,0
1,71,0,148
1,64,0,0
1,76,0,0
1,68,0,0
1,68,60,30
1,76,82,0
1,64,68,0
1,71,73,0
1,71,0,60
1,76,0,0
1,73,30,0
1,30,0,30
1,42,0,30
1,73,0,0
1,68,0,0
1,71,63,0
1,71,0,60
1,64,0,0
1,68,43,0
1,68,0,30
1,57,70,5
1,62,82,0
1,35,72,0
1,66,75,0
1,47,67,0
1,47,0,98
1,57,0,30
1,66,0,0
1,47,57,0
1,62,0,30
1,57,107,30
1,62,70,60
1,62,0,30
1,47,0,0
1,64,61,30
1,47,65,0
1,64,0,60
1,35,0,0
1,42,49,0
1,66,48,0
1,66,0,30
1,47,0,0
1,57,0,0
1,42,0,0
1,33,78,18
1,45,66,0
1,61,75,0
1,57,74,0
1,64,80,0
1,57,0,49
1,61,0,30
1,64,0,0
1,57,45,0
1,57,0,30
1,57,60,30
1,61,50,0
1,64,78,0
1,45,0,30
1,45,57,30
1,61,0,30
1,64,0,0
1,57,0,0
1,62,72,30
1,57,64,0
1,45,0,30
1,45,52,30
1,57,0,30
1,33,0,30
1,62,0,0
1,57,47,0
1,61,46,0
1,61,0,30
1,57,0,0
1,45,0,0
1,50,76,11
1,62,76,0
1,57,70,0
1,66,84,0
1,38,74,0
1,50,0,108
1,66,0,30
1,62,0,0
1,57,0,0
1,50,66,0
1,57,101,60
1,62,73,60
1,62,0,30
1,57,0,0
1,50,0,0
1,64,73,30
1,57,58,0
1,50,58,0
1,57,0,30
1,64,0,0
1,38,0,30
1,50,0,0
1,45,69,0
1,62,48,0
1,62,0,30
1,45,0,18
1,40,64,0
1,52,78,0
1,59,83,0
1,69,83,0
1,64,88,0
1,64,0,54
1,59,0,0
1,69,0,0
1,52,0,30
1,59,68,0
1,68,75,0
1,64,72,0
1,52,48,60
1,52,0,30
1,68,0,0
1,64,0,0
1,59,0,0
1,47,33,0
1,66,86,30
1,59,86,0
1,52,71,16
1,66,0,27
1,64,86,0
1,52,0,30
1,59,0,30
1,40,0,0
1,47,0,0
1,64,0,0
1,52,53,0
1,52,0,30
1,47,46,0
1,47,0,13
1,38,73,0
1,50,85,0
1,66,92,0
1,57,80,0
1,62,99,0
1,57,0,19
1,66,0,30
1,62,0,0
1,57,60,0
1,50,0,30
1,62,48,30
1,62,0,30
1,57,0,0
1,57,47,30
1,64,57,0
1,64,0,60
1,66,69,0
1,66,0,30
1,64,80,30
1,50,75,0
1,50,0,60
1,38,0,0
1,57,0,0
1,64,0,0
1,45,66,0
1,62,54,0
1,62,0,30
1,45,0,30
1,40,62,0
1,68,84,0
1,64,85,0
1,59,74,0
1,52,73,0
1,52,0,49
1,68,0,90
1,59,0,0
1,52,72,0
1,52,0,30
1,64,0,0
1,71,88,1
1,59,90,0
1,64,94,0
1,52,66,0
1,71,0,23
1,69,54,0
1,52,0,30
1,69,0,30
1,68,96,0
1,52,63,0
1,64,0,30
1,68,0,30
1,40,0,0
1,59,0,0
1,52,0,0
1,47,73,0
1,64,53,0
1,64,0,30
1,47,0,25
1,57,65,0
1,66,84,0
1,50,83,0
1,62,83,0
1,38,61,0
1,57,0,50
1,66,0,30
1,62,0,30
1,57,110,30
1,50,0,30
1,62,66,30
1,50,61,0
1,62,0,30
1,64,62,30
1,64,0,30
1,57,0,0
1,50,0,30
1,66,77,0
1,62,76,0
1,57,72,0
1,57,0,30
1,62,0,30
1,50,55,0
1,50,0,30
1,66,0,0
1,38,0,0
1,45,51,0
1,45,0,18
1,38,80,0
1,66,84,0
1,62,90,0
1,57,72,0
1,50,82,0
1,50,0,89
1,50,78,0
1,62,0,30
1,57,0,0
1,38,0,30
1,66,0,0
1,50,0,0
1,45,65,0
1,45,0,30
1,40,66,15
1,64,88,0
1,68,89,0
1,59,75,0
1,52,101,0
1,59,0,60
1,68,0,30
1,52,0,0
1,59,64,0
1,59,0,30
1,64,0,0
1,40,0,30
1,52,58,0
1,52,0,30
1,54,89,11
1,42,66,0
1,70,84,0
1,61,73,0
1,66,86,0
1,54,0,56
1,61,0,30
1,54,52,0
1,70,0,30
1,66,0,30
1,61,96,0
1,54,0,30
1,54,38,30
1,61,0,30
1,54,0,30
1,68,89,0
1,61,77,0
1,54,62,60
1,54,0,30
1,42,0,0
1,68,0,30
1,70,63,0
1,70,0,30
1,61,0,0
1,38,83,30
1,50,78,17
1,57,63,60
1,57,0,60
1,50,0,0
1,38,0,0
1,40,73,0
1,56,89,0
1,54,84,56
1,54,0,33
1,56,0,0
1,52,60,0
1,52,0,30
1,40,0,0
1,45,64,30
1,43,65,0
1,43,0,30
1,45,0,30
1,47,66,0
1,47,0,30
1,37,35,0
1,37,0,13
1,49,96,0
1,30,69,0
1,42,104,0
1,49,0,84
1,61,100,120
1,66,63,60
1,61,0,30
1,66,0,30
1,68,79,0
1,68,0,60
1,30,0,0
1,70,46,0
1,70,0,30
1,42,0,0
1,37,49,0
1,37,0,14
1,30,73,0
1,76,90,0
1,68,89,0
1,64,83,0
1,71,90,0
1,42,77,0
1,42,0,97
1,30,0,0
1,42,41,30
1,64,0,30
1,71,0,0
1,76,0,0
1,68,0,0
1,68,86,30
1,64,90,0
1,71,97,0
1,76,99,0
1,76,0,90
1,64,0,0
1,71,0,0
1,68,0,0
1,68,64,30
1,64,72,0
1,71,69,0
1,71,0,30
1,42,0,0
1,68,0,0
1,64,0,0
1,42,52,30
1,42,0,30
1,37,23,0
1,37,0,13
1,30,42,0
1,42,55,0
1,70,71,0
1,66,81,0
1,61,62,0
1,61,0,56
1,70,0,0
1,66,0,30
1,61,77,0
1,61,0,60
1,66,75,0
1,42,0,30
1,30,0,30
1,42,40,0
1,66,0,30
1,68,89,30
1,68,0,30
1,42,0,0
1,70,57,0
1,70,0,30
1,68,89,0
1,68,0,30
1,66,54,0
1,66,0,30
1,61,84,0
1,61,0,30
1,38,79,30
1,50,88,22
1,50,0,60
1,57,69,0
1,57,0,10
1,38,0,0
1,56,92,0
1,40,73,0
1,54,71,60
1,56,0,30
1,54,0,28
1,52,68,0
1,52,0,30
1,40,0,0
1,45,86,30
1,45,0,30
1,47,66,30
1,47,0,30
1,37,28,0
1,37,0,19
1,49,96,0
1,30,64,0
1,42,84,0
1,49,0,89
1,61,56,60
1,61,0,30
1,66,84,30
1,66,0,30
1,68,75,30
1,61,47,0
1,61,0,30
1,68,0,0
1,61,54,30
1,70,73,0
1,42,0,30
1,30,0,30
1,61,0,0
1,70,0,0
1,42,25,0
1,68,46,0
1,68,0,30
1,42,0,0
1,37,17,0
1,37,0,28
1,76,88,0
1,64,75,0
1,71,86,0
1,68,75,0
1,30,59,0
1,42,53,0
1,42,0,113
1,64,0,30
1,71,0,0
1,76,0,0
1,30,0,0
1,68,0,0
1,42,50,0
1,76,90,60
1,64,83,0
1,71,71,60
1,42,0,30
1,64,0,30
1,68,43,0
1,68,0,60
1,76,0,0
1,71,0,0
1,64,62,0
1,64,0,30
1,62,85,13
1,57,73,0
1,66,71,0
1,35,64,0
1,47,62,0
1,47,0,110
1,62,0,30
1,66,0,0
1,57,0,0
1,47,62,0
1,57,110,60
1,62,65,60
1,62,0,30
1,57,0,0
1,47,0,0
1,62,66,30
1,47,60,0
1,66,57,0
1,57,70,0
1,57,0,30
1,62,0,30
1,66,0,0
1,57,46,0
1,57,0,30
1,47,0,0
1,35,0,0
1,42,18,0
1,42,0,17
1,57,73,0
1,64,79,0
1,61,81,0
1,45,73,0
1,33,68,0
1,57,0,58
1,64,0,30
1,61,0,0
1,57,68,0
1,45,0,30
1,45,69,30
1,57,0,30
1,61,79,30
1,57,82,0
1,45,0,30
1,45,64,30
1,57,0,30
1,61,0,0
1,57,66,30
1,61,71,0
1,61,0,60
1,57,0,0
1,33,0,0
1,40,66,0
1,40,0,30
1,45,0,6
1,66,84,0
1,62,85,0
1,57,70,0
1,38,83,0
1,57,0,140
1,66,0,0
1,62,0,0
1,50,82,0
1,57,94,60
1,62,58,60
1,62,0,30
1,57,0,0
1,50,0,0
1,50,61,30
1,64,67,0
1,57,75,0
1,57,0,60
1,38,0,0
1,50,0,0
1,64,0,0
1,62,57,0
1,45,65,0
1,62,0,30
1,45,0,8
1,40,63,0
1,69,57,0
1,64,76,0
1,59,73,0
1,52,78,0
1,59,0,45
1,64,0,0
1,69,0,0
1,59,66,30
1,64,69,0
1,68,63,0
1,52,0,30
1,52,52,30
1,52,0,30
1,68,0,0
1,64,0,0
1,59,0,0
1,47,45,0
1,47,0,30
1,66,92,0
1,52,85,0
1,59,75,0
1,52,0,28
1,52,62,19
1,59,0,30
1,66,0,0
1,64,88,30
1,59,83,0
1,59,0,60
1,52,0,0
1,40,0,0
1,64,0,0
1,47,64,0
1,47,0,30
1,40,60,0
1,40,0,8
1,66,75,0
1,62,88,0
1,57,76,0
1,38,74,0
1,57,0,138
1,50,80,0
1,66,0,30
1,62,0,0
1,57,101,30
1,57,0,60
1,62,65,0
1,57,43,0
1,57,0,30
1,62,0,0
1,50,0,0
1,64,86,30
1,57,80,0
1,50,82,0
1,57,0,60
1,64,0,0
1,62,60,0
1,45,55,0
1,62,0,30
1,50,0,0
1,38,0,0
1,45,0,8
1,40,74,0
1,68,79,0
1,64,83,0
1,52,76,0
1,59,70,0
1,59,0,51
1,64,0,30
1,68,0,0
1,59,79,0
1,52,0,30
1,59,0,30
1,52,49,0
1,52,0,30
1,47,66,0
1,47,0,30
1,64,82,0
1,52,85,0
1,71,82,0
1,59,83,0
1,71,0,21
1,69,60,0
1,69,0,30
1,59,0,0
1,52,0,0
1,64,0,0
1,68,81,30
1,59,58,0
1,52,65,0
1,59,0,60
1,68,0,0
1,64,60,0
1,64,0,30
1,40,0,0
1,52,0,0
1,50,86,9
1,57,74,0
1,38,71,0
1,62,88,0
1,66,81,0
1,50,0,112
1,50,62,30
1,62,0,30
1,66,0,0
1,57,0,0
1,57,104,30
1,57,0,60
1,62,79,0
1,62,0,30
1,57,86,30
1,64,94,0
1,50,0,30
1,38,0,30
1,57,0,0
1,64,0,0
1,50,54,0
1,50,0,30
1,45,49,0
1,45,0,6
1,57,80,0
1,62,97,0
1,66,96,0
1,38,63,0
1,50,72,0
1,57,0,53
1,62,0,30
1,50,0,0
1,66,0,0
1,57,61,0
1,57,0,30
1,50,55,30
1,50,0,30
1,38,0,0
1,45,50,0
1,45,0,21
1,59,75,0
1,64,88,0
1,68,81,0
1,40,82,0
1,52,86,0
1,68,0,67
1,59,0,0
1,52,0,30
1,59,72,0
1,59,0,30
1,64,0,0
1,52,54,0
1,40,0,30
1,52,0,30
1,47,57,0
1,47,0,17
1,70,86,0
1,66,84,0
1,42,59,0
1,61,60,0
1,54,92,0
1,54,0,60
1,54,54,30
1,54,0,30
1,61,0,0
1,70,0,30
1,66,0,0
1,61,77,0
1,54,25,0
1,54,0,30
1,61,0,0
1,66,47,30
1,54,58,0
1,54,0,30
1,66,0,0
1,61,40,30
1,68,43,0
1,54,49,0
1,54,0,30
1,68,0,0
1,61,0,0
1,66,49,30
1,70,56,0
1,54,53,0
1,61,49,0
1,61,0,30
1,54,0,0
1,42,0,30
1,66,0,0
1,70,0,0
1,54,56,0
1,61,42,0
1,61,0,30
1,54,0,0
1,70,66,12
1,66,55,0
1,61,58,0
1,54,64,0
1,42,53,0
1,42,0,41
1,61,0,0
1,54,0,0
1,70,0,0
1,66,0,30
1,54,64,30
1,70,71,0
1,61,66,0
1,66,81,0
1,42,51,0
1,42,0,30
1,61,0,0
1,54,0,0
1,70,0,0
1,66,0,0
1,54,62,30
1,70,59,0
1,66,68,0
1,61,54,0
1,42,50,0
1,42,0,30
1,66,0,0
1,54,0,0
1,70,0,0
1,61,0,0
1,61,69,30
1,54,73,0
1,42,58,0
1,70,84,0
1,66,84,0
1,66,0,30
1,42,0,0
1,61,0,0
1,54,0,0
1,70,0,0
1,54,63,30
1,42,56,0
1,66,75,0
1,70,73,0
1,61,54,0
1,61,0,30
1,66,0,0
1,54,0,0
1,42,0,0
1,70,0,0
1,54,63,30
1,42,54,0
1,61,64,0
1,70,84,0
1,66,84,0
1,66,0,30
1,61,0,0
1,54,0,0
1,42,0,0
1,70,0,0
1,66,64,30
1,54,58,0
1,70,54,0
1,42,63,0
1,61,52,0
1,61,0,30
1,70,0,0
1,66,0,0
1,54,0,0
1,42,0,0
1,66,92,34
1,57,92,0
1,62,104,1
1,35,88,1
1,47,92,1
1,35,0,45
1,47,0,7
1,66,0,12
1,57,0,2
1,62,0,2
1,57,71,16
1,62,74,0
1,66,66,1
1,47,80,4
1,35,76,0
1,57,0,28
1,47,0,1
1,35,0,1
1,66,0,2
1,62,0,0
1,57,79,8
1,62,101,2
1,66,96,0
1,47,83,2
1,35,90,2
1,57,0,36
1,66,0,3
1,62,0,2
1,66,81,19
1,62,94,2
1,57,74,0
1,47,0,16
1,35,0,8
1,66,0,7
1,62,0,2
1,57,0,5
1,47,70,25
1,35,34,3
1,35,0,12
1,47,0,3
1,61,71,38
1,56,69,1
1,64,76,0
1,49,86,2
1,37,79,0
1,37,0,55
1,49,0,3
1,37,47,54
1,49,86,2
1,56,0,21
1,64,0,7
1,61,0,9
1,61,73,28
1,64,79,2
1,56,84,0
1,49,0,57
1,56,0,41
1,49,92,22
1,56,54,7
1,61,0,7
1,64,0,14
1,56,0,6
1,37,0,24
1,49,0,3
1,44,51,3
1,57,72,1
1,62,97,1
1,66,86,0
1,38,71,1
1,44,0,5
1,50,104,0
1,50,0,91
1,50,90,47
1,66,0,2
1,57,0,2
1,62,0,6
1,62,92,50
1,66,79,2
1,57,88,0
1,50,0,23
1,57,0,1
1,62,0,1
1,66,0,3
1,50,58,26
1,50,0,30
1,38,0,0
1,66,92,31
1,69,92,2
1,61,77,0
1,42,119,1
1,42,0,75
1,61,0,52
1,42,59,2
1,69,0,2
1,66,0,0
1,69,86,52
1,61,79,2
1,66,86,0
1,42,0,22
1,69,0,30
1,66,0,2
1,42,81,6
1,61,0,32
1,42,0,11
1,68,68,2
1,61,68,0
1,64,78,1
1,40,88,1
1,68,0,3
1,61,0,5
1,61,38,9
1,69,62,3
1,61,0,27
1,69,0,6
1,64,0,5
1,40,0,2
1,68,81,12
1,61,69,4
1,40,71,2
1,64,62,1
1,64,0,7
1,68,0,45
1,64,65,0
1,61,0,13
