track,note,velocity,time
0,73,84,1950
0,74,92,0
0,78,92,0
0,82,85,0
0,83,85,0
0,79,83,0
0,78,77,2
0,74,82,0
0,73,81,0
0,79,82,0
0,82,95,0
0,83,92,0
0,70,98,2
0,71,66,0
0,73,95,0
0,79,99,0
0,74,99,0
0,78,98,0
0,70,89,2
0,71,64,0
0,73,95,0
0,79,95,0
0,74,97,0
0,78,98,0
0,75,102,2
0,80,100,0
0,81,99,2
0,72,80,0
0,76,90,0
0,75,100,2
0,80,103,0
0,81,101,2
0,76,95,0
0,71,97,120
0,76,92,2
0,67,81,0
0,72,97,0
0,71,105,420
0,67,87,2
0,76,95,0
0,72,101,0
0,72,111,2
0,73,105,2
0,74,109,2
0,65,89,240
0,62,92,0
0,50,99,0
0,57,87,0
0,74,95,2
0,64,89,2
0,67,101,0
0,58,95,0
0,50,97,0
0,68,82,2
0,74,93,0
0,65,82,0
0,50,103,0
0,59,93,0
0,74,87,2
0,66,77,0
0,69,89,0
0,50,90,0
0,60,97,0
0,74,93,2
0,66,90,0
0,64,77,0
0,50,97,0
0,54,102,0
0,82,109,482
0,83,99,2
0,74,83,0
0,79,95,0
0,43,99,0
0,82,109,2
0,83,90,2
0,79,95,0
0,74,87,0
0,62,86,0
0,55,81,0
0,59,85,0
0,82,109,2
0,81,99,2
0,72,90,0
0,75,95,0
0,42,91,0
0,79,101,2
0,81,92,2
0,75,97,0
0,72,81,0
0,54,91,0
0,63,89,0
0,57,86,0
0,78,113,2
0,79,87,2
0,71,87,0
0,76,92,0
0,40,93,0
0,78,94,2
0,79,95,2
0,76,87,0
0,71,81,0
0,55,97,0
0,59,92,0
0,64,95,0
0,74,101,2
0,71,92,0
0,38,99,2
0,77,97,2
0,71,90,0
0,67,83,0
0,55,87,2
0,59,86,0
0,65,86,0
0,74,99,2
0,76,103,2
0,72,105,0
0,36,101,0
0,69,105,2
0,73,103,2
0,70,91,0
0,37,102,0
0,76,97,2
0,71,103,2
0,74,97,0
0,55,85,0
0,62,89,0
0,59,85,0
0,76,101,2
0,69,101,0
0,73,103,2
0,70,100,0
0,37,100,0
0,74,101,2
0,72,113,2
0,69,113,0
0,38,105,0
0,62,111,2
0,54,91,2
0,60,89,0
0,62,90,0
0,67,95,240
0,71,97,0
0,43,99,2
0,62,117,2
0,62,86,2
0,55,89,0
0,59,72,0
0,82,111,240
0,83,101,2
0,74,87,0
0,79,97,0
0,43,87,0
0,82,111,2
0,83,99,2
0,79,92,0
0,74,87,0
0,42,90,0
0,80,98,2
0,81,95,2
0,75,97,0
0,72,92,0
0,57,86,0
0,63,86,0
0,54,87,0
0,79,93,2
0,81,97,2
0,72,87,0
0,75,94,0
0,42,94,0
0,78,102,2
0,79,89,2
0,76,95,0
0,71,83,0
0,40,83,0
0,78,94,2
0,76,90,2
0,79,82,0
0,71,82,0
0,59,87,0
0,55,83,0
0,64,89,0
0,70,100,2
0,74,101,0
0,46,100,2
0,76,99,2
0,70,97,0
0,74,101,0
0,55,80,2
0,58,89,0
0,62,85,0
0,77,93,2
0,69,81,2
0,78,100,0
0,74,99,0
0,45,103,0
0,83,87,2
0,71,85,0
0,74,92,0
0,44,102,2
0,81,113,2
0,78,97,2
0,74,86,0
0,56,98,0
0,62,101,0
0,64,89,0
0,71,101,2
0,74,105,0
0,83,92,0
0,44,107,2
0,81,105,2
0,78,100,2
0,73,100,0
0,45,105,0
0,67,103,2
0,73,105,2
0,76,99,0
0,55,92,0
0,61,105,0
0,64,85,0
0,74,99,2
0,72,99,0
0,38,97,2
0,78,97,240
0,72,95,0
0,86,90,0
0,54,91,2
0,60,89,0
0,62,90,0
0,82,107,2
0,83,107,2
0,43,99,0
0,81,99,2
0,79,101,2
0,74,103,2
0,42,102,0
0,73,105,2
0,72,103,2
0,54,94,0
0,63,97,0
0,57,93,0
0,75,102,2
0,78,100,2
0,39,94,0
0,81,107,2
0,79,95,2
0,40,99,0
0,81,95,2
0,79,99,2
0,76,90,2
0,55,87,0
0,59,87,0
0,64,95,0
0,69,97,2
0,70,95,2
0,38,89,0
0,71,86,2
0,77,101,2
0,59,93,0
0,55,85,0
0,65,97,0
0,67,95,2
0,76,105,0
0,36,93,2
0,79,105,2
0,72,97,0
0,69,97,0
0,37,94,2
0,76,97,2
0,79,105,2
0,72,107,0
0,61,90,0
0,58,94,0
0,55,85,0
0,69,105,2
0,73,98,2
0,70,95,0
0,37,103,0
0,74,99,2
0,71,101,0
0,38,103,2
0,69,101,2
0,72,103,0
0,54,94,2
0,60,92,0
0,62,85,0
0,67,95,2
0,71,103,0
0,43,90,2
0,67,103,2
0,62,111,0
0,62,93,2
0,55,90,0
0,59,76,0
0,71,101,2
0,69,92,2
0,41,103,0
0,71,95,2
0,69,95,2
0,68,105,2
0,56,95,0
0,52,92,0
0,62,99,0
0,76,103,2
0,64,83,0
0,40,109,2
0,68,90,2
0,62,93,0
0,74,97,0
0,56,97,2
0,52,95,0
0,62,95,0
0,62,107,2
0,74,92,2
0,71,89,0
0,45,95,0
0,33,92,0
0,69,101,2
0,68,107,2
0,35,95,0
0,47,87,0
0,74,97,2
0,71,101,0
0,36,97,2
0,48,85,0
0,72,103,2
0,64,109,0
0,37,87,2
0,49,103,0
0,70,100,2
0,71,103,2
0,62,90,0
0,38,90,0
0,50,101,0
0,70,102,2
0,63,95,2
0,71,95,0
0,51,102,0
0,39,97,0
0,61,105,2
0,67,103,0
0,40,89,2
0,52,97,0
0,69,99,2
0,60,93,0
0,66,95,0
0,42,94,2
0,54,107,0
0,71,107,2
0,67,90,2
0,59,83,0
0,62,93,0
0,43,95,0
0,55,103,0
0,50,78,2
0,38,93,0
0,60,76,240
0,66,103,0
0,70,98,0
0,74,101,0
0,52,86,2
0,40,101,0
0,42,105,2
0,54,100,0
0,85,97,240
0,82,97,0
0,86,107,2
0,83,97,0
0,43,99,0
0,55,89,0
0,82,107,2
0,85,105,0
0,83,107,2
0,86,107,0
0,59,99,0
0,88,107,2
0,84,107,0
0,83,105,2
0,86,105,0
0,42,97,0
0,79,103,2
0,81,99,2
0,84,97,0
0,54,105,0
0,63,97,0
0,57,95,0
0,78,103,2
0,79,95,2
0,83,101,0
0,40,101,0
0,76,107,2
0,81,99,2
0,77,97,0
0,38,101,0
0,75,109,2
0,78,105,0
0,79,95,2
0,76,103,0
0,55,89,0
0,65,103,0
0,59,97,0
0,67,107,2
0,74,103,2
0,77,103,0
0,31,107,0
0,72,109,2
0,76,111,0
0,36,103,2
0,79,101,2
0,72,107,0
0,67,99,0
0,37,109,2
0,76,103,2
0,72,105,2
0,79,101,0
0,61,98,0
0,55,92,0
0,58,98,0
0,69,111,2
0,73,109,2
0,70,105,0
0,37,109,0
0,71,109,2
0,74,107,0
0,38,103,2
0,69,107,2
0,72,109,0
0,54,92,2
0,62,97,0
0,60,92,0
0,67,101,2
0,71,105,0
0,43,105,2
0,74,93,2
0,62,103,0
0,59,90,2
0,55,90,0
0,62,99,0
0,85,102,2
0,82,100,0
0,83,105,2
0,86,92,0
0,43,97,0
0,85,92,2
0,82,92,0
0,83,101,2
0,42,105,0
0,88,105,2
0,84,99,0
0,86,97,2
0,83,101,0
0,63,100,0
0,54,98,0
0,57,90,0
0,77,92,2
0,84,105,2
0,83,93,0
0,39,107,0
0,81,107,2
0,83,105,2
0,40,107,0
0,81,103,2
0,79,115,2
0,74,113,2
0,59,92,0
0,55,101,0
0,62,105,0
0,74,115,2
0,75,109,2
0,41,111,0
0,76,105,2
0,77,103,2
0,86,113,0
0,56,100,0
0,59,95,0
0,62,101,0
0,83,107,2
0,81,105,2
0,42,111,0
0,86,105,2
0,78,102,0
0,77,95,0
0,42,115,2
0,78,105,2
0,86,109,0
0,77,92,0
0,57,92,2
0,54,98,0
0,62,99,0
0,86,95,2
0,78,102,0
0,77,80,0
0,78,105,2
0,44,94,0
0,83,111,2
0,78,117,2
0,45,107,0
0,69,105,2
0,79,99,2
0,76,95,0
0,55,93,0
0,57,93,0
0,61,95,0
0,78,113,2
0,74,95,0
0,38,103,2
0,74,103,2
0,69,105,0
0,54,98,2
0,60,103,0
0,62,97,0
0,74,87,2
0,86,85,0
0,79,95,0
0,83,103,0
0,43,101,2
0,78,100,2
0,72,103,0
0,84,90,0
0,81,101,0
0,42,109,2
0,54,98,2
0,60,99,0
0,62,101,0
0,42,102,2
0,83,89,2
0,71,87,0
0,79,87,0
0,76,89,0
0,40,101,2
0,39,103,2
0,38,90,2
0,81,92,2
0,77,89,0
0,69,93,0
0,74,95,0
0,59,93,2
0,65,97,0
0,55,89,0
0,36,107,2
0,37,102,2
0,73,92,2
0,70,97,0
0,79,89,0
0,76,89,0
0,69,85,0
0,55,101,2
0,61,107,0
0,64,95,0
0,36,105,2
0,38,97,2
0,66,97,2
0,76,89,0
0,69,101,0
0,72,103,0
0,54,102,2
0,60,95,0
0,62,107,0
0,43,111,2
0,67,93,240
0,71,99,0
0,74,103,0
0,62,97,2
0,59,86,0
0,55,93,0
0,75,115,240
0,76,101,2
0,44,109,0
0,56,105,0
0,67,113,2
0,68,107,2
0,40,99,0
0,52,90,0
0,71,97,2
0,76,105,2
0,54,90,0
0,42,91,0
0,62,85,240
0,67,90,0
0,71,81,0
0,56,109,2
0,44,98,0
0,71,109,2
0,74,109,2
0,57,97,0
0,45,109,0
0,67,105,2
0,68,98,2
0,47,93,0
0,59,109,0
0,69,121,2
0,48,101,2
0,60,111,0
0,72,111,2
0,69,109,0
0,70,113,2
0,71,92,2
0,67,95,0
0,62,101,0
0,70,109,2
0,71,101,2
0,61,107,2
0,67,99,0
0,69,109,2
0,60,101,0
0,42,102,0
0,54,95,0
0,71,107,2
0,59,97,2
0,67,103,0
0,43,105,0
0,55,99,0
0,50,115,2
0,66,94,240
0,70,98,0
0,60,89,0
0,74,92,0
0,36,105,482
0,48,109,0
0,35,111,2
0,47,111,0
0,67,93,240
0,74,97,2
0,71,101,0
0,79,85,0
0,59,97,0
0,55,111,0
0,62,111,0
0,67,107,2
0,36,109,2
0,48,111,0
0,67,113,240
0,79,93,2
0,72,111,0
0,76,103,0
0,60,109,0
0,64,105,0
0,55,105,0
0,67,111,2
0,35,109,2
0,47,107,0
0,67,115,240
0,71,103,2
0,74,101,0
0,79,87,0
0,55,107,0
0,59,95,0
0,62,109,0
0,67,119,2
0,36,109,2
0,48,99,0
0,67,125,240
0,79,99,2
0,76,99,0
0,72,109,0
0,55,107,0
0,64,107,0
0,60,105,0
0,67,97,2
0,71,111,0
0,35,105,2
0,47,97,0
0,67,105,2
0,71,111,0
0,36,109,2
0,48,101,0
0,69,113,2
0,73,107,2
0,70,95,0
0,61,109,0
0,58,102,0
0,55,103,0
0,71,101,2
0,79,107,0
0,74,115,0
0,36,113,2
0,48,123,0
0,76,109,2
0,79,103,2
0,73,119,0
0,49,83,0
0,37,90,0
0,67,97,2
0,76,107,0
0,53,99,2
0,69,115,2
0,81,111,0
0,61,87,0
0,57,78,0
0,55,80,0
0,36,97,2
0,48,97,0
0,74,99,240
0,78,103,0
0,72,113,2
0,54,105,0
0,60,101,0
0,69,111,2
0,35,105,2
0,47,103,0
0,67,119,240
0,74,109,2
0,71,111,0
0,79,92,0
0,62,107,0
0,55,105,0
0,59,97,0
0,67,123,2
0,48,101,2
0,36,101,0
0,67,115,240
0,79,92,2
0,76,103,0
0,72,107,0
0,55,103,0
0,64,101,0
0,60,105,0
0,67,95,2
0,71,103,0
0,35,107,2
0,47,101,0
0,79,93,2
0,71,101,0
0,67,97,0
0,76,103,2
0,48,101,0
0,36,105,0
0,69,115,2
0,70,103,2
0,73,111,0
0,61,100,0
0,55,97,0
0,58,103,0
0,74,107,2
0,71,103,0
0,79,101,0
0,36,107,2
0,48,105,0
0,73,117,2
0,70,103,2
0,37,111,0
0,49,103,0
0,78,109,2
0,73,109,2
0,70,121,2
0,68,105,2
0,30,105,0
0,42,105,0
0,69,117,2
0,70,119,2
0,44,105,0
0,32,105,0
0,78,109,2
0,69,92,0
0,72,117,0
0,34,109,2
0,46,111,0
0,76,103,2
0,74,95,2
0,71,103,0
0,35,97,0
0,47,107,0
0,76,93,2
0,72,111,0
0,73,111,2
0,34,95,0
0,46,113,0
0,72,111,2
0,78,119,0
0,45,109,2
0,33,103,0
0,66,103,2
0,72,113,0
0,74,103,0
0,38,109,2
0,50,105,0
0,74,113,240
0,72,107,0
0,35,105,2
0,47,105,0
0,67,111,240
0,74,101,2
0,71,107,0
0,79,93,0
0,62,105,0
0,59,97,0
0,55,99,0
0,67,111,2
0,36,97,2
0,48,99,0
0,67,101,240
0,79,86,2
0,76,103,0
0,72,103,0
0,64,101,0
0,55,103,0
0,60,101,0
0,67,105,2
0,35,99,2
0,47,97,0
0,67,87,240
0,74,99,2
0,71,103,0
0,79,90,0
0,55,107,0
0,62,109,0
0,59,90,0
0,67,97,2
0,36,107,2
0,48,107,0
0,67,125,240
0,79,93,2
0,76,97,0
0,72,109,0
0,60,113,0
0,55,109,0
0,64,111,0
0,67,90,2
0,71,103,0
0,35,107,2
0,47,105,0
0,55,105,0
0,60,101,0
0,71,105,2
0,79,95,0
0,67,103,0
0,76,97,2
0,48,99,0
0,36,107,0
0,69,113,2
0,70,107,2
0,73,113,0
0,61,105,0
0,55,107,0
0,58,102,0
0,79,107,2
0,71,101,0
0,74,107,0
0,48,109,2
0,36,111,0
0,76,97,2
0,79,105,2
0,73,111,0
0,49,107,0
0,37,109,0
0,76,87,2
0,67,123,0
0,73,115,2
0,61,109,0
0,57,105,0
0,55,103,0
0,81,115,2
0,69,115,0
0,50,93,2
0,38,103,0
0,78,109,2
0,72,111,0
0,69,97,0
0,74,125,2
0,54,105,0
0,60,107,0
0,62,109,0
0,86,111,2
0,91,113,2
0,43,117,0
0,86,111,2
0,91,117,2
0,55,109,0
0,62,109,0
0,59,99,0
0,86,109,2
0,91,109,2
0,41,113,0
0,86,111,2
0,83,117,2
0,79,113,2
0,53,107,0
0,62,107,0
0,59,95,0
0,91,115,2
0,87,113,2
0,40,113,0
0,91,99,2
0,87,115,2
0,84,117,2
0,81,117,2
0,39,109,0
0,77,97,2
0,75,105,2
0,55,105,0
0,63,103,0
0,60,101,0
0,57,89,0
0,69,101,2
0,70,102,2
0,39,109,0
0,71,103,2
0,74,103,2
0,38,105,0
0,62,125,2
0,54,107,2
0,60,105,0
0,62,111,0
0,69,111,240
0,74,99,0
0,72,113,0
0,36,111,2
0,62,111,2
0,54,102,2
0,60,103,0
0,71,111,2
0,67,109,0
0,35,109,2
0,55,105,2
0,62,105,0
0,59,95,0
0,38,107,2
0,54,109,2
0,62,121,0
0,82,109,240
0,91,109,0
0,81,93,0
0,43,109,2
0,82,103,2
0,91,99,0
0,81,105,0
0,55,105,2
0,62,105,0
0,59,95,0
0,88,103,2
0,79,90,2
0,86,105,0
0,83,111,0
0,38,109,0
0,50,103,0
0,39,111,2
0,51,113,0
0,61,111,240
0,70,102,0
0,66,103,0
0,40,103,2
0,52,113,0
0,67,115,2
0,62,107,0
0,71,105,0
0,53,105,2
0,41,109,0
0,61,111,2
0,70,111,0
0,66,107,0
0,62,111,2
0,67,111,0
0,71,111,0
0,42,100,0
0,54,111,0
0,69,117,2
0,54,111,2
0,60,109,0
0,62,111,0
0,91,99,2
0,81,103,0
0,82,111,0
0,43,111,2
0,91,93,2
0,82,103,0
0,81,99,0
0,55,105,2
0,62,107,0
0,59,95,0
0,88,109,2
0,86,113,2
0,79,97,0
0,83,111,0
0,50,105,0
0,38,107,0
0,51,111,2
0,39,97,0
0,61,107,240
0,70,100,0
0,66,103,0
0,52,111,2
0,40,107,0
0,71,109,2
0,62,111,0
0,67,103,0
0,53,105,2
0,41,103,0
0,70,109,2
0,61,115,0
0,66,103,0
0,69,107,2
0,66,109,0
0,60,119,0
0,42,103,0
0,54,111,0
0,66,98,2
0,62,95,0
0,74,95,0
0,54,109,2
0,60,103,0
0,91,109,2
