track,note,velocity,time
1,68,60,4
1,68,0,240
1,64,66,0
1,64,0,120
1,61,60,0
1,61,0,120
1,64,60,0
1,64,0,120
1,68,60,0
1,68,0,120
1,64,64,0
1,64,0,120
1,61,60,0
1,61,0,120
1,64,60,0
1,64,0,120
1,69,60,0
1,69,0,120
1,63,63,0
1,63,0,120
1,60,60,0
1,60,0,120
1,63,60,0
1,63,0,120
1,69,60,0
1,69,0,120
1,63,63,0
1,63,0,120
1,60,60,0
1,60,0,120
1,63,60,0
1,63,0,120
1,68,60,0
1,68,0,120
1,68,66,0
1,68,0,120
1,64,63,0
1,64,0,120
1,68,63,0
1,68,0,120
1,76,63,0
1,76,0,120
1,68,66,0
1,68,0,120
1,64,63,0
1,64,0,120
1,68,63,0
1,68,0,120
1,73,63,0
1,73,0,120
1,69,67,0
1,69,0,120
1,68,60,0
1,68,0,120
1,66,61,0
1,66,0,120
1,73,62,0
1,73,0,120
1,72,68,0
1,72,0,120
1,66,65,0
1,66,0,120
1,68,66,0
1,68,0,120
1,72,67,0
1,72,0,120
1,73,72,0
1,73,0,120
1,64,63,0
1,64,0,120
1,68,65,0
1,68,0,120
1,73,67,0
1,73,0,120
1,76,69,0
1,76,0,120
1,68,64,0
1,68,0,120
1,76,66,0
1,76,0,120
1,80,68,0
1,80,0,120
1,76,73,0
1,76,0,120
1,69,64,0
1,69,0,120
1,76,66,0
1,76,0,120
1,80,68,0
1,80,0,120
1,74,70,0
1,74,0,120
1,78,67,0
1,78,0,120
1,73,70,0
1,73,0,120
1,76,67,0
1,76,0,120
1,72,68,0
1,72,0,120
1,75,65,0
1,75,0,120
1,73,67,0
1,73,0,120
1,76,65,0
1,76,0,120
1,75,68,0
1,75,0,120
1,78,64,0
1,78,0,120
1,72,69,0
1,72,0,120
1,75,64,0
1,75,0,120
1,76,68,0
1,76,0,120
1,73,67,0
1,73,0,120
1,71,66,0
1,71,0,120
1,69,64,0
1,69,0,120
1,68,63,0
1,68,0,120
1,66,62,0
1,66,0,120
1,64,60,0
1,64,0,120
1,63,59,0
1,63,0,120
1,64,62,0
1,64,0,120
1,61,57,0
1,61,0,120
1,64,57,0
1,64,0,120
1,68,57,0
1,68,0,120
1,64,60,0
1,64,0,120
1,61,57,0
1,61,0,120
1,64,57,0
1,64,0,120
1,69,57,0
1,69,0,120
1,63,59,0
1,63,0,120
1,59,57,0
1,59,0,120
1,63,57,0
1,63,0,120
1,69,57,0
1,69,0,120
1,63,59,0
1,63,0,120
1,59,57,0
1,59,0,120
1,63,57,0
1,63,0,120
1,68,57,0
1,68,0,120
1,68,62,0
1,68,0,120
1,61,59,0
1,61,0,120
1,68,59,0
1,68,0,120
1,73,59,0
1,73,0,120
1,66,62,0
1,66,0,120
1,63,59,0
1,63,0,120
1,66,59,0
1,66,0,120
1,73,59,0
1,73,0,120
1,68,63,0
1,68,0,120
1,64,59,0
1,64,0,120
1,68,59,0
1,68,0,120
1,73,59,0
1,73,0,120
1,68,62,0
1,68,0,120
1,64,60,0
1,64,0,120
1,68,60,0
1,68,0,120
1,71,60,0
1,71,0,120
1,67,68,0
1,67,0,120
1,64,59,0
1,64,0,120
1,67,61,0
1,67,0,120
1,70,63,0
1,70,0,120
1,76,65,0
1,76,0,120
1,70,60,0
1,70,0,120
1,76,62,0
1,76,0,120
1,79,64,0
1,79,0,120
1,75,64,0
1,75,0,120
1,79,62,0
1,79,0,120
1,75,63,0
1,75,0,120
1,78,61,0
1,78,0,120
1,69,62,0
1,69,0,120
1,76,61,0
1,76,0,120
1,69,62,0
1,69,0,120
1,75,60,0
1,75,0,120
1,69,59,0
1,69,0,120
1,78,56,0
1,78,0,120
1,68,59,0
1,68,0,120
1,76,56,0
1,76,0,120
1,64,58,0
1,64,0,120
1,73,55,0
1,73,0,120
1,61,57,0
1,61,0,120
1,69,55,0
1,69,0,120
1,59,57,0
1,59,0,120
1,68,55,0
1,68,0,120
1,64,57,0
1,64,0,120
1,71,56,0
1,71,0,120
1,59,57,0
1,59,0,120
1,69,56,0
1,69,0,120
1,63,57,0
1,63,0,120
1,71,56,0
1,71,0,120
1,69,57,0
1,63,54,120
1,63,0,120
1,59,54,0
1,59,0,120
1,69,0,0
1,69,57,0
1,69,0,120
1,68,57,0
1,68,0,120
1,64,53,0
1,64,0,120
1,68,55,0
1,68,0,120
1,69,57,0
1,69,0,120
1,71,59,0
1,71,0,120
1,68,50,0
1,68,0,120
1,71,53,0
1,71,0,120
1,80,46,0
1,80,0,120
1,71,49,0
1,71,0,120
1,78,44,0
1,78,0,120
1,72,49,0
1,72,0,120
1,76,46,0
1,76,0,120
1,73,53,0
1,73,0,120
1,64,56,0
1,64,0,120
1,73,54,0
1,73,0,120
1,76,55,0
1,76,0,120
1,71,59,0
1,71,0,120
1,75,54,0
1,75,0,120
1,69,57,0
1,69,0,120
1,73,54,0
1,73,0,120
1,68,57,0
1,68,0,120
1,59,54,0
1,59,0,120
1,68,54,0
1,68,0,120
1,71,54,0
1,71,0,120
1,64,57,0
1,64,0,120
1,58,51,0
1,58,0,120
1,64,52,0
1,64,0,120
1,73,52,0
1,73,0,120
1,66,54,0
1,66,0,120
1,57,49,0
1,57,0,120
1,66,49,0
1,66,0,120
1,71,49,0
1,71,0,120
1,66,53,0
1,66,0,120
1,57,48,0
1,57,0,120
1,66,48,0
1,66,0,120
1,71,48,0
1,71,0,120
1,64,48,0
1,64,0,120
1,56,44,0
1,56,0,120
1,64,44,0
1,64,0,120
1,68,44,0
1,68,0,120
1,63,48,480
1,63,0,120
1,57,43,0
1,57,0,120
1,63,43,0
1,63,0,120
1,71,43,0
1,71,0,120
1,64,48,480
1,64,0,120
1,56,45,0
1,56,0,120
1,64,45,0
1,64,0,120
1,68,45,0
1,68,0,120
1,68,44,0
1,68,0,120
1,71,49,0
1,71,0,120
1,76,53,0
1,76,0,120
1,80,58,0
1,80,0,120
1,80,62,0
1,68,46,120
1,68,0,120
1,80,0,0
1,76,56,0
1,68,47,120
1,68,0,120
1,76,0,0
1,75,53,0
1,68,44,120
1,68,0,120
1,75,0,0
1,74,50,0
1,68,44,120
1,68,0,120
1,74,0,0
1,73,48,0
1,73,0,120
1,61,43,0
1,61,0,120
1,69,43,0
1,69,0,120
1,73,43,0
1,73,0,120
1,68,48,480
1,68,0,120
1,62,42,0
1,62,0,120
1,68,42,0
1,68,0,120
1,76,42,0
1,76,0,120
1,69,48,480
1,69,0,120
1,61,42,0
1,61,0,120
1,69,42,0
1,69,0,120
1,73,43,0
1,73,0,120
1,73,43,0
1,73,0,120
1,76,48,0
1,76,0,120
1,81,53,0
1,81,0,120
1,85,59,0
1,85,0,120
1,85,64,0
1,85,0,120
1,73,56,0
1,73,0,120
1,81,61,0
1,81,0,120
1,73,56,0
1,73,0,120
1,80,61,0
1,80,0,120
1,76,56,0
1,76,0,120
1,78,61,0
1,78,0,120
1,75,55,0
1,75,0,120
1,64,66,0
1,68,66,0
1,76,66,0
1,76,0,120
1,68,0,0
1,64,0,0
1,68,61,0
1,68,0,120
1,66,61,0
1,66,0,120
1,68,61,0
1,68,0,120
1,64,58,0
1,64,0,120
1,68,62,0
1,68,0,120
1,63,66,0
1,63,0,120
1,68,69,0
1,68,0,120
1,64,80,0
1,64,0,120
1,61,74,0
1,61,0,120
1,64,74,0
1,64,0,120
1,68,74,0
1,68,0,120
1,64,78,0
1,64,0,120
1,61,74,0
1,61,0,120
1,64,74,0
1,64,0,120
1,69,74,0
1,69,0,120
1,63,76,0
1,63,0,120
1,60,74,0
1,60,0,120
1,63,74,0
1,63,0,120
1,69,74,0
1,69,0,120
1,63,76,0
1,63,0,120
1,60,74,0
1,60,0,120
1,63,74,0
1,63,0,120
1,68,74,0
1,68,0,120
1,68,80,0
1,68,0,120
1,64,76,0
1,64,0,120
1,68,76,0
1,68,0,120
1,76,76,0
1,76,0,120
1,68,80,0
1,68,0,120
1,64,76,0
1,64,0,120
1,68,76,0
1,68,0,120
1,73,76,0
1,73,0,120
1,69,82,0
1,69,0,120
1,68,74,0
1,68,0,120
1,66,75,0
1,66,0,120
1,73,76,0
1,73,0,120
1,72,83,0
1,72,0,120
1,63,79,0
1,63,0,120
1,68,80,0
1,68,0,120
1,72,82,0
1,72,0,120
1,73,88,0
1,73,0,120
1,68,76,0
1,68,0,120
1,73,79,0
1,73,0,120
1,76,82,0
1,76,0,120
1,76,84,0
1,76,0,120
1,68,82,0
1,68,0,120
1,76,86,0
1,76,0,120
1,80,90,0
1,80,0,120
1,76,93,0
1,76,0,120
1,69,90,0
1,69,0,120
1,76,88,0
1,76,0,120
1,80,85,0
1,80,0,120
1,74,86,0
1,74,0,120
1,78,82,0
1,78,0,120
1,73,86,0
1,73,0,120
1,76,82,0
1,76,0,120
1,72,83,0
1,72,0,120
1,75,79,0
1,75,0,120
1,73,82,0
1,73,0,120
1,76,76,0
1,76,0,120
1,75,81,0
1,75,0,120
1,78,75,0
1,78,0,120
1,72,79,0
1,72,0,120
1,75,72,0
1,75,0,120
1,76,79,0
1,76,0,120
1,73,74,0
1,73,0,120
1,71,69,0
1,71,0,120
1,69,65,0
1,69,0,120
1,68,61,0
1,68,0,120
1,66,57,0
1,66,0,120
1,64,53,0
1,64,0,120
1,63,48,0
1,63,0,120
1,64,42,0
1,64,0,120
1,61,45,0
1,61,0,120
1,64,45,0
1,64,0,120
1,68,45,0
1,68,0,120
1,64,48,0
1,64,0,120
1,61,45,0
1,61,0,120
1,64,45,0
1,64,0,120
1,69,45,0
1,69,0,120
1,63,47,0
1,63,0,120
1,59,45,0
1,59,0,120
1,63,45,0
1,63,0,120
1,69,45,0
1,69,0,120
1,63,47,0
1,63,0,120
1,59,45,0
1,59,0,120
1,63,45,0
1,63,0,120
1,68,45,0
1,68,0,120
1,68,49,0
1,68,0,120
1,61,47,0
1,61,0,120
1,68,47,0
1,68,0,120
1,73,47,0
1,73,0,120
1,66,49,0
1,66,0,120
1,63,47,0
1,63,0,120
1,66,47,0
1,66,0,120
1,73,47,0
1,73,0,120
1,68,50,0
1,68,0,120
1,64,47,0
1,64,0,120
1,68,47,0
1,68,0,120
1,73,47,0
1,73,0,120
1,68,49,0
1,68,0,120
1,64,48,0
1,64,0,120
1,68,48,0
1,68,0,120
1,71,48,0
1,71,0,120
1,67,54,0
1,67,0,120
1,64,47,0
1,64,0,120
1,67,48,0
1,67,0,120
1,70,50,0
1,70,0,120
1,76,52,0
1,76,0,120
1,70,48,0
1,70,0,120
1,76,49,0
1,76,0,120
1,79,51,0
1,79,0,120
1,75,51,0
1,75,0,120
1,79,49,0
1,79,0,120
1,75,50,0
1,75,0,120
1,78,48,0
1,78,0,120
1,69,49,0
1,69,0,120
1,76,48,0
1,76,0,120
1,69,49,0
1,69,0,120
1,75,48,0
1,75,0,120
1,69,47,0
1,69,0,120
1,78,44,0
1,78,0,120
1,68,47,0
1,68,0,120
1,76,44,0
1,76,0,120
1,64,46,0
1,64,0,120
1,73,44,0
1,73,0,120
1,61,45,0
1,61,0,120
1,69,44,0
1,69,0,120
1,59,45,0
1,59,0,120
1,68,44,0
1,68,0,120
1,64,45,0
1,64,0,120
1,71,44,0
1,71,0,120
1,59,45,0
1,59,0,120
1,69,44,0
1,69,0,120
1,63,45,0
1,63,0,120
1,71,44,0
1,71,0,120
1,69,45,0
1,63,43,120
1,63,0,120
1,59,43,0
1,59,0,120
1,69,0,0
1,69,45,0
1,69,0,120
1,68,45,0
1,68,0,120
1,59,42,0
1,59,0,120
1,64,44,0
1,64,0,120
1,66,45,0
1,66,0,120
1,68,47,0
1,68,0,120
1,64,43,0
1,64,0,120
1,68,45,0
1,68,0,120
1,76,44,0
1,76,0,120
1,68,47,0
1,68,0,120
1,75,44,0
1,75,0,120
1,68,48,0
1,68,0,120
1,73,44,0
1,73,0,120
1,69,48,0
1,69,0,120
1,61,44,0
1,61,0,120
1,69,46,0
1,69,0,120
1,73,46,0
1,73,0,120
1,68,47,0
1,68,0,120
1,71,43,0
1,71,0,120
1,66,45,0
1,66,0,120
1,69,43,0
1,69,0,120
1,64,45,0
1,64,0,120
1,56,43,0
1,56,0,120
1,64,43,0
1,64,0,120
1,68,43,0
1,68,0,120
1,61,45,0
1,61,0,120
1,55,40,0
1,55,0,120
1,61,41,0
1,61,0,120
1,69,41,0
1,69,0,120
1,63,43,0
1,63,0,120
1,54,39,0
1,54,0,120
1,63,39,0
1,63,0,120
1,68,39,0
1,68,0,120
1,63,42,0
1,63,0,120
1,54,38,0
1,54,0,120
1,63,38,0
1,63,0,120
1,68,38,0
1,68,0,120
1,61,38,0
1,61,0,120
1,52,35,0
1,52,0,120
1,61,35,0
1,61,0,120
1,64,35,0
1,64,0,120
1,61,38,480
1,61,0,120
1,52,34,0
1,52,0,120
1,61,34,0
1,61,0,120
1,64,34,0
1,64,0,120
1,62,38,480
1,62,0,120
1,57,36,0
1,57,0,120
1,62,36,0
1,62,0,120
1,66,36,0
1,66,0,120
1,66,35,0
1,66,0,120
1,69,39,0
1,69,0,120
1,74,42,0
1,74,0,120
1,78,46,0
1,78,0,120
1,81,49,0
1,74,36,120
1,74,0,120
1,81,0,0
1,69,37,0
1,78,44,0
1,69,0,120
1,71,37,0
1,71,0,120
1,78,0,0
1,73,35,0
1,76,42,0
1,73,0,120
1,68,35,0
1,68,0,120
1,76,0,0
1,72,35,0
1,75,40,0
1,72,0,120
1,68,35,0
1,68,0,120
1,75,0,0
1,73,38,0
1,73,0,120
1,64,34,0
1,64,0,120
1,73,34,0
1,73,0,120
1,76,34,0
1,76,0,120
1,73,38,480
1,73,0,120
1,64,33,0
1,64,0,120
1,73,33,0
1,73,0,120
1,76,33,0
1,76,0,120
1,74,38,480
1,74,0,120
1,69,39,0
1,69,0,120
1,74,44,0
1,74,0,120
1,78,49,0
1,78,0,120
1,81,55,0
1,81,0,120
1,78,53,0
1,78,0,120
1,74,50,0
1,74,0,120
1,69,47,0
1,69,0,120
1,68,44,0
1,68,0,120
1,76,44,0
1,76,0,120
1,64,48,0
1,64,0,120
1,73,44,0
1,73,0,120
1,66,48,0
1,66,0,120
1,75,44,0
1,75,0,120
1,63,48,0
1,63,0,120
1,72,44,0
1,72,0,120
1,64,51,0
1,64,0,120
1,73,42,0
1,73,0,120
1,61,43,0
1,64,43,0
1,64,0,120
1,61,0,0
1,68,35,0
1,68,0,120
1,63,38,0
1,66,38,0
1,66,0,120
1,63,0,0
1,68,31,0
1,68,0,120
1,60,34,0
1,63,34,0
1,63,0,120
1,60,0,0
1,68,30,0
1,68,0,120
1,65,36,0
1,65,0,120
1,68,36,0
1,68,0,120
1,66,32,0
1,70,32,0
1,70,0,480
1,66,0,0
1,65,28,0
1,68,28,0
1,68,0,180
1,65,0,0
1,65,36,60
1,65,0,120
1,68,36,0
1,68,0,120
1,66,33,0
1,70,33,0
1,73,33,0
1,73,0,480
1,70,0,0
1,66,0,0
1,65,30,0
1,68,30,0
1,68,0,180
1,65,0,0
1,65,37,60
1,68,37,0
1,68,0,120
1,65,0,0
1,62,37,0
1,62,0,120
1,63,39,0
1,66,39,0
1,66,0,480
1,63,0,0
1,66,36,0
1,75,36,0
1,75,0,240
1,66,0,0
1,68,39,0
1,77,39,0
1,77,0,120
1,68,0,0
1,66,37,0
1,75,37,0
1,75,0,120
1,66,0,0
1,65,38,0
1,73,38,0
1,73,0,480
1,65,0,0
1,65,31,0
1,68,31,0
1,68,0,180
1,65,0,0
1,65,36,0
1,65,0,120
1,68,36,0
1,68,0,120
1,66,32,0
1,70,32,0
1,70,0,480
1,66,0,0
1,65,30,0
1,68,30,0
1,68,0,180
1,65,0,0
1,65,36,60
1,65,0,120
1,68,36,0
1,68,0,120
1,66,32,0
1,70,32,0
1,73,32,0
1,73,0,480
1,70,0,0
1,66,0,0
1,65,28,0
1,68,28,0
1,68,0,180
1,65,0,0
1,65,37,60
1,68,37,0
1,68,0,120
1,65,0,0
