track,note,velocity,time
1,52,70,2092
1,45,60,4
1,47,61,0
1,54,61,0
1,48,68,20
1,55,61,0
1,49,51,20
1,56,63,0
1,56,74,0
1,61,67,0
1,64,70,0
1,63,73,304
1,59,66,0
1,63,67,116
1,64,35,52
1,63,49,64
1,59,62,48
1,52,47,8
1,61,48,8
1,57,64,0
1,52,54,8
1,57,62,36
1,61,56,184
1,45,65,44
1,52,62,8
1,47,68,0
1,54,67,0
1,48,70,12
1,55,58,0
1,49,51,8
1,56,42,8
1,56,74,4
1,61,67,0
1,64,70,0
1,63,73,304
1,59,66,0
1,63,67,116
1,64,35,52
1,63,49,64
1,59,62,48
1,52,47,8
1,61,48,8
1,57,64,0
1,52,43,4
1,57,51,28
1,61,56,192
1,47,66,4
1,49,49,4
1,57,58,92
1,61,52,0
1,52,57,4
1,57,69,80
1,61,56,0
1,56,46,164
1,64,39,0
1,59,37,0
1,56,37,4
1,59,37,0
1,56,43,208
1,59,35,0
1,64,45,0
1,56,25,0
1,59,35,0
1,64,39,4
1,56,41,28
1,59,34,0
1,63,43,196
1,59,43,0
1,66,43,4
1,63,36,4
1,66,36,0
1,59,36,0
1,63,44,296
1,66,44,0
1,59,44,0
1,61,47,4
1,64,47,0
1,57,47,8
1,57,45,4
1,64,45,0
1,61,45,0
1,68,61,616
1,69,51,4
1,68,48,0
1,66,56,4
1,68,41,8
1,64,56,12
1,61,62,8
1,64,46,4
1,59,53,0
1,64,39,4
1,56,54,4
1,59,43,32
1,68,65,344
1,69,61,4
1,68,57,40
1,66,40,36
1,61,44,4
1,64,64,0
1,56,46,384
1,64,39,0
1,59,37,0
1,56,37,4
1,59,37,0
1,56,43,208
1,59,35,0
1,64,45,0
1,56,25,0
1,59,35,0
1,64,39,4
1,56,41,28
1,59,34,0
1,63,43,196
1,59,43,0
1,66,43,4
1,63,36,4
1,66,36,0
1,59,36,0
1,63,44,296
1,66,44,0
1,59,44,0
1,61,47,4
1,64,47,0
1,57,47,8
1,57,45,4
1,64,45,0
1,61,45,0
1,68,61,616
1,69,51,4
1,68,48,0
1,66,56,4
1,68,41,8
1,64,56,12
1,61,62,8
1,64,46,4
1,59,53,0
1,64,39,4
1,56,54,4
1,59,43,32
1,66,52,120
1,63,52,0
1,68,65,4
1,69,61,4
1,68,57,40
1,66,40,36
1,61,44,4
1,64,64,0
1,64,52,12
1,61,52,12
1,61,56,36
1,64,58,16
1,61,51,12
1,64,70,20
1,61,58,72
1,57,55,0
1,64,60,0
1,61,67,120
1,66,67,0
1,58,66,0
1,63,60,100
1,66,66,0
1,59,62,0
1,59,64,20
1,63,67,196
1,64,64,32
1,63,67,36
1,59,55,8
1,63,54,516
1,68,55,0
1,59,49,4
1,63,57,8
1,68,56,0
1,59,52,0
1,63,59,0
1,68,57,4
1,59,55,0
1,68,51,4
1,64,66,0
1,61,49,0
1,61,65,60
1,64,66,188
1,66,73,12
1,68,60,16
1,66,63,60
1,64,74,0
1,61,79,180
1,59,64,0
1,66,20,8
1,62,39,0
1,57,32,0
1,50,19,0
1,50,35,4
1,57,34,0
1,66,35,4
1,62,46,0
1,50,34,4
1,57,50,0
1,66,56,0
1,62,65,0
1,66,54,8
1,57,56,0
1,62,70,0
1,50,56,4
1,66,31,4
1,57,41,0
1,62,55,0
1,50,29,4
1,57,42,0
1,62,57,0
1,66,59,0
1,57,52,4
1,66,62,0
1,62,71,0
1,50,54,0
1,62,52,4
1,66,38,0
1,57,47,0
1,50,47,4
1,66,62,0
1,57,50,0
1,62,66,0
1,66,61,4
1,62,70,0
1,57,66,0
1,50,71,0
1,50,29,4
1,66,46,0
1,62,54,4
1,57,47,0
1,66,65,4
1,62,54,0
1,57,55,0
1,66,58,8
1,62,69,0
1,57,67,0
1,50,75,0
1,61,54,4
1,66,66,0
1,64,65,0
1,47,63,0
1,57,62,0
1,47,59,16
1,66,37,0
1,61,48,0
1,64,48,0
1,57,55,0
1,61,33,0
1,64,34,0
1,66,37,4
1,61,70,4
1,66,67,0
1,64,73,0
1,57,73,0
1,47,73,0
1,66,53,4
1,64,65,0
1,57,64,0
1,61,65,0
1,47,44,4
1,66,39,4
1,64,50,0
1,57,51,0
1,61,45,0
1,64,86,0
1,68,84,0
1,61,81,0
1,47,65,0
1,57,80,8
1,47,68,72
1,61,84,4
1,68,85,0
1,64,90,0
1,57,85,0
1,47,67,0
1,61,57,4
1,66,61,0
1,64,75,0
1,57,67,0
1,56,67,8
1,64,67,0
1,59,67,0
1,73,77,580
1,68,65,376
1,52,50,0
1,61,51,0
1,57,49,0
1,64,56,0
1,52,28,8
1,57,49,0
1,61,51,0
1,64,56,0
1,66,65,4
1,69,66,12
1,68,61,28
1,66,54,40
1,61,64,24
1,61,64,4
1,64,86,0
1,57,66,0
1,64,62,12
1,61,53,0
1,57,58,8
1,52,63,0
1,64,62,0
1,66,54,0
1,61,54,4
1,54,56,0
1,57,53,4
1,54,64,12
1,61,64,0
1,64,64,0
1,57,64,0
1,66,64,0
1,54,53,8
1,61,53,0
1,57,53,0
1,64,53,0
1,66,53,0
1,59,59,12
1,63,58,0
1,57,65,0
1,57,64,12
1,59,48,4
1,56,56,0
1,64,68,0
1,59,41,0
1,56,61,4
1,64,49,0
1,59,63,0
1,61,46,4
1,66,49,0
1,69,58,0
1,63,42,0
1,71,41,0
1,68,57,0
1,71,54,4
1,68,67,0
1,63,61,0
1,61,51,0
1,66,42,0
1,69,65,8
1,56,50,0
1,68,53,0
1,64,52,0
1,59,48,4
1,56,56,8
1,64,60,0
1,68,58,0
1,59,58,4
1,59,39,4
1,68,54,0
1,64,56,4
1,59,39,4
1,64,39,0
1,68,39,0
1,69,48,0
1,61,48,0
1,64,48,0
1,57,48,0
1,57,42,12
1,61,58,0
1,64,66,0
1,69,60,0
1,69,56,8
1,64,55,0
1,61,50,0
1,66,65,0
1,68,55,4
1,66,58,64
1,61,62,4
1,61,79,4
1,64,79,0
1,61,61,0
1,52,66,0
1,57,68,0
1,61,54,8
1,54,56,0
1,64,62,0
1,57,53,0
1,54,64,16
1,61,64,0
1,64,64,0
1,57,64,0
1,54,53,8
1,61,53,0
1,57,53,0
1,64,53,0
1,59,59,12
1,63,58,0
1,57,65,0
1,57,64,12
1,59,48,4
1,56,56,0
1,64,68,0
1,59,41,0
1,56,61,4
1,64,49,0
1,59,63,0
1,59,46,4
1,64,49,0
1,68,58,0
1,64,42,4
1,59,41,0
1,68,57,0
1,64,61,4
1,59,54,0
1,68,67,0
1,56,46,8
1,64,39,0
1,59,37,0
1,56,37,4
1,59,37,0
1,56,43,4
1,59,35,0
1,64,45,0
1,56,25,0
1,59,35,0
1,64,39,4
1,56,41,28
1,59,34,0
1,63,43,4
1,59,43,0
1,66,43,4
1,63,36,4
1,66,36,0
1,59,36,0
1,63,44,196
1,66,44,0
1,59,44,0
1,61,47,4
1,64,47,0
1,57,47,8
1,61,45,4
1,57,45,0
1,64,45,0
1,57,45,4
1,61,45,0
1,64,45,0
1,59,45,4
1,56,45,0
1,64,45,0
1,68,61,4
1,69,51,4
1,68,48,0
1,66,56,4
1,68,41,8
1,64,56,4
1,61,62,8
1,64,46,4
1,59,62,0
1,64,39,4
1,56,54,4
1,59,43,32
1,59,54,120
1,63,49,0
1,66,54,12
1,71,72,0
1,73,59,36
1,71,57,0
1,59,40,4
1,63,58,0
1,66,61,0
1,57,40,4
1,61,44,0
1,64,64,0
1,56,46,384
1,64,39,0
1,59,37,0
1,56,37,4
1,59,37,0
1,56,43,208
1,59,35,0
1,64,45,0
1,56,25,0
1,59,35,0
1,64,39,4
1,56,41,28
1,59,34,0
1,63,43,196
1,59,43,0
1,66,43,4
1,63,36,4
1,66,36,0
1,59,36,0
1,63,44,296
1,66,44,0
1,59,44,0
1,61,47,4
1,64,47,0
1,57,47,8
1,57,45,4
1,64,45,0
1,61,45,0
1,57,37,4
1,61,37,0
1,64,37,0
1,57,29,4
1,61,29,0
1,64,29,0
1,56,45,4
1,59,45,0
1,64,45,0
1,68,61,192
1,69,51,4
1,68,48,0
1,66,56,4
1,68,41,8
1,64,56,12
1,61,62,8
1,64,46,4
1,59,53,0
1,64,39,4
1,56,54,4
1,59,43,32
1,66,52,120
1,63,52,0
1,68,65,224
1,69,61,4
1,68,57,40
1,66,40,36
1,61,44,4
1,64,64,0
1,64,52,12
1,61,52,12
1,61,56,0
1,64,58,16
1,61,51,4
1,64,70,4
1,61,58,4
1,57,55,0
1,64,60,0
1,61,67,120
1,66,67,0
1,58,66,0
1,63,60,100
1,66,66,0
1,59,62,0
1,59,64,20
1,63,67,196
1,64,64,32
1,63,67,36
1,59,55,8
1,63,54,516
1,68,55,0
1,59,49,4
1,68,77,8
1,63,57,0
1,59,52,0
1,63,59,0
1,59,55,4
1,68,57,0
1,68,51,4
1,64,66,0
1,61,49,0
1,61,65,60
1,64,66,188
1,66,73,12
1,68,60,16
1,66,63,60
1,64,74,0
1,61,79,180
1,59,64,0
1,66,20,8
1,62,39,0
1,57,32,0
1,50,19,0
1,50,35,4
1,57,34,0
1,66,35,4
1,62,46,0
1,50,34,4
1,57,50,0
1,66,56,0
1,62,65,0
1,66,54,8
1,57,56,0
1,62,70,0
1,50,56,4
1,66,31,4
1,57,41,0
1,62,55,0
1,50,29,4
1,57,42,0
1,62,57,0
1,66,59,0
1,57,52,4
1,66,62,0
1,62,71,0
1,50,54,0
1,62,52,4
1,66,38,0
1,57,47,0
1,50,47,4
1,66,62,0
1,57,50,0
1,62,66,0
1,66,61,4
1,62,70,0
1,57,66,0
1,50,71,0
1,50,29,4
1,66,46,0
1,62,54,4
1,57,47,0
1,66,65,4
1,62,54,0
1,57,55,0
1,66,58,8
1,62,69,0
1,57,67,0
1,50,75,0
1,61,54,4
1,66,66,0
1,64,65,0
1,47,63,0
1,57,62,0
1,47,59,16
1,66,37,0
1,61,48,0
1,64,48,0
1,57,55,0
1,61,33,0
1,64,34,0
1,66,37,4
1,61,70,4
1,66,67,0
1,64,73,0
1,57,73,0
1,47,73,0
1,66,53,4
1,64,65,0
1,57,64,0
1,61,65,0
1,47,44,4
1,66,39,4
1,64,50,0
1,57,51,0
1,61,45,0
1,64,86,0
1,68,84,0
1,61,81,0
1,47,65,0
1,57,80,8
1,47,68,72
1,61,84,4
1,68,85,0
1,64,90,0
1,57,85,0
1,47,67,0
1,61,57,4
1,66,61,0
1,64,75,0
1,57,67,0
1,56,67,8
1,64,67,0
1,59,67,0
1,73,77,580
1,68,65,376
1,52,50,0
1,61,51,0
1,57,49,0
1,64,56,0
1,52,28,8
1,57,49,0
1,61,51,0
1,64,56,0
1,66,65,4
1,69,66,12
1,68,61,28
1,66,54,40
1,61,64,24
1,61,64,4
1,64,86,0
1,57,66,0
1,64,62,12
1,61,53,0
1,57,58,8
1,52,63,0
1,61,54,0
1,54,56,0
1,64,62,0
1,57,53,0
1,66,54,0
1,54,64,16
1,61,64,0
1,64,64,0
1,57,64,0
1,66,64,0
1,54,53,8
1,61,53,0
1,57,53,0
1,64,53,0
1,66,53,0
1,59,59,12
1,63,58,0
1,57,65,0
1,57,64,12
1,59,48,4
1,56,56,0
1,64,68,0
1,59,41,0
1,56,61,4
1,64,49,0
1,59,63,0
1,61,46,4
1,66,49,0
1,69,58,0
1,63,42,0
1,71,41,0
1,68,57,0
1,71,54,4
1,68,67,0
1,63,61,0
1,61,51,0
1,66,42,0
1,69,65,8
1,56,50,0
1,68,53,0
1,64,52,0
1,59,48,4
1,56,56,8
1,64,60,0
1,68,58,0
1,59,58,4
1,59,39,4
1,68,54,0
1,64,56,4
1,59,39,4
1,64,39,0
1,68,39,0
1,69,48,0
1,61,48,0
1,64,48,0
1,57,48,0
1,57,42,12
1,61,58,0
1,64,66,0
1,69,60,0
1,69,56,8
1,64,55,0
1,61,50,0
1,66,65,0
1,68,55,4
1,66,58,64
1,61,62,4
1,61,79,4
1,64,79,0
1,61,61,0
1,52,66,0
1,57,68,0
1,61,54,8
1,54,56,0
1,64,62,0
1,57,53,0
1,54,64,16
1,61,64,0
1,64,64,0
1,57,64,0
1,54,53,8
1,61,53,0
1,57,53,0
1,64,53,0
1,59,59,12
1,63,58,0
1,57,65,0
1,57,64,12
1,59,48,4
1,56,56,0
1,64,68,0
1,59,41,0
1,56,61,4
1,64,49,0
1,59,63,0
1,59,46,4
1,64,49,0
1,68,58,0
1,64,42,4
1,59,41,0
1,68,57,0
1,52,68,0
1,45,62,0
1,47,68,0
1,54,73,0
1,48,70,0
1,55,64,0
1,56,74,388
1,61,67,0
1,64,70,0
1,63,73,304
1,59,66,0
1,63,67,116
1,64,35,52
1,63,49,64
1,59,62,48
1,52,47,8
1,61,48,8
1,57,64,0
1,52,54,8
1,57,62,36
1,61,56,184
1,45,65,44
1,52,62,8
1,47,68,0
1,54,67,0
1,48,70,12
1,55,58,0
1,49,51,8
1,56,42,8
1,56,74,4
1,61,67,0
1,64,70,0
1,63,73,304
1,59,66,0
1,63,67,116
1,64,35,52
1,63,49,64
1,59,62,48
1,52,47,8
1,61,48,8
1,57,64,0
1,52,43,4
1,57,51,28
1,61,56,192
1,47,66,4
1,49,49,4
1,57,58,92
1,61,52,0
1,52,57,4
1,57,48,0
1,61,48,0
1,52,48,4
1,56,67,4
1,64,67,0
1,59,67,0
1,68,77,384
1,73,77,196
1,52,50,0
1,61,51,0
1,57,49,0
1,64,56,0
1,52,28,8
1,57,49,0
1,61,51,0
1,64,56,0
1,66,65,4
1,69,66,12
1,68,61,4
1,66,54,48
1,61,64,24
1,61,64,4
1,64,86,0
1,57,66,0
1,64,45,12
1,61,45,0
1,57,45,8
1,52,45,0
1,61,58,0
1,54,58,0
1,64,58,0
1,57,58,0
1,66,58,0
1,54,71,16
1,61,71,0
1,64,71,0
1,57,71,0
1,66,71,0
1,63,58,200
1,59,59,0
1,57,65,0
1,56,56,92
1,64,68,0
1,59,41,0
1,56,61,4
1,64,49,0
1,59,63,0
1,61,46,4
1,66,49,0
1,69,58,0
1,63,42,0
1,71,41,0
1,68,57,0
1,71,54,4
1,68,67,0
1,63,61,0
1,61,51,0
1,66,42,0
1,69,65,8
1,56,50,0
1,68,53,0
1,64,52,0
1,59,48,4
1,56,56,8
1,64,60,0
1,68,58,0
1,59,58,4
1,59,39,4
1,68,54,0
1,64,56,4
1,59,39,4
1,64,39,0
1,68,39,0
1,69,48,0
1,61,48,0
1,64,48,0
1,57,48,0
1,57,42,12
1,61,58,0
1,64,66,0
1,69,60,0
1,69,56,8
1,64,55,0
1,61,50,0
1,66,65,0
1,68,55,76
1,66,58,60
1,61,62,4
1,64,65,0
1,61,79,0
1,66,55,0
1,64,58,60
1,61,72,8
1,66,56,8
1,64,62,0
1,61,54,0
1,57,53,0
1,66,64,16
1,61,64,0
1,64,64,0
1,57,64,0
1,64,58,200
1,61,59,0
1,57,65,0
1,64,65,4
1,61,65,0
1,57,65,0
1,56,56,192
1,64,68,0
1,59,41,0
1,56,61,4
1,64,49,0
1,59,63,0
1,61,49,36
1,54,46,0
1,69,58,0
1,63,42,0
1,56,41,0
1,71,57,0
1,71,47,0
1,45,47,0
1,56,47,4
1,63,47,0
1,61,68,0
1,69,73,0
1,54,68,4
1,56,48,192
1,68,64,0
1,64,68,0
1,59,58,0
1,68,74,0
1,64,80,0
1,59,68,4
1,54,60,196
1,59,73,0
1,62,84,0
1,66,78,0
1,66,58,12
1,62,59,4
1,64,80,4
1,61,75,0
1,52,66,0
1,57,73,0
1,69,85,12
1,61,93,0
1,64,84,0
1,57,64,4
1,68,68,192
1,63,70,0
1,59,70,0
1,56,78,0
1,56,66,0
1,63,68,8
1,68,75,0
1,59,65,0
1,61,68,4
1,66,67,0
1,57,68,0
1,54,61,0
1,61,54,8
1,57,54,0
1,54,54,0
1,66,54,8
1,66,84,8
1,61,85,0
1,57,78,4
1,54,69,0
1,66,76,208
1,61,79,0
1,57,79,0
1,61,79,12
1,66,81,4
