track,note,velocity,time
0,35,85,1508
0,38,87,172
0,38,115,12
0,95,127,212
0,90,98,44
0,86,127,4
0,59,118,44
0,62,118,0
0,54,118,0
0,83,127,12
0,47,121,0
0,50,127,4
0,35,112,0
0,54,127,0
0,59,127,4
0,62,127,4
0,49,64,0
0,50,90,48
0,54,90,8
0,59,90,4
0,62,90,4
0,42,44,8
0,50,127,76
0,54,127,4
0,38,112,0
0,42,87,0
0,59,127,4
0,62,127,4
0,47,109,56
0,50,118,4
0,35,83,0
0,54,118,4
0,59,118,8
0,42,45,0
0,62,118,4
0,50,127,132
0,47,112,4
0,54,127,4
0,35,114,0
0,59,127,4
0,42,84,0
0,62,127,4
0,42,42,140
0,42,118,36
0,50,127,0
0,54,127,0
0,38,111,4
0,42,87,0
0,59,127,4
0,62,127,0
0,64,107,96
0,50,104,36
0,54,104,4
0,46,45,0
0,59,104,4
0,62,104,0
0,71,101,16
0,80,91,16
0,74,67,44
0,52,118,8
0,56,118,0
0,59,118,4
0,40,118,12
0,52,127,0
0,56,127,4
0,35,112,0
0,83,127,4
0,59,127,4
0,42,89,0
0,64,127,4
0,42,44,140
0,52,127,168
0,56,127,0
0,38,112,4
0,42,87,0
0,59,127,4
0,64,127,4
0,40,118,64
0,52,127,4
0,35,83,0
0,56,127,12
0,59,127,4
0,64,127,0
0,42,45,0
0,40,116,12
0,52,127,0
0,56,127,4
0,35,114,0
0,59,127,4
0,42,84,0
0,64,127,4
0,42,42,144
0,52,127,172
0,56,127,4
0,38,111,0
0,42,87,0
0,59,127,4
0,64,127,4
0,52,107,88
0,56,107,4
0,59,107,4
0,64,107,4
0,42,45,4
0,52,118,24
0,57,118,0
0,61,118,4
0,45,114,12
0,52,127,0
0,45,111,4
0,57,127,0
0,35,112,0
0,61,127,8
0,42,90,0
0,57,101,4
0,64,127,4
0,42,42,16
0,68,114,148
0,52,127,20
0,69,127,4
0,57,127,0
0,38,111,4
0,42,85,0
0,57,127,4
0,61,127,0
0,64,127,4
0,45,112,88
0,52,127,4
0,35,75,0
0,57,127,12
0,61,127,4
0,64,127,0
0,42,44,0
0,66,127,112
0,52,127,0
0,57,109,4
0,45,111,0
0,57,127,4
0,35,114,0
0,61,127,4
0,42,83,0
0,64,127,4
0,57,78,28
0,64,105,0
0,42,45,16
0,65,114,24
0,57,94,4
0,66,118,0
0,40,118,4
0,52,127,0
0,57,127,4
0,38,110,0
0,42,86,4
0,61,127,4
0,64,127,4
0,57,127,20
0,69,127,4
0,52,98,0
0,57,98,4
0,61,98,0
0,64,98,12
0,42,46,0
0,45,111,28
0,52,127,0
0,57,127,0
0,35,112,4
0,42,89,4
0,61,127,4
0,64,127,4
0,47,105,112
0,52,100,4
0,35,75,0
0,57,100,4
0,61,100,4
0,64,100,0
0,42,44,8
0,52,127,4
0,57,127,0
0,38,112,4
0,46,82,4
0,61,127,4
0,64,127,0
0,47,114,60
0,52,127,4
0,35,83,0
0,52,90,4
0,57,127,0
0,61,127,4
0,64,127,0
0,57,70,32
0,61,90,8
0,64,109,48
0,38,96,32
0,52,127,8
0,45,105,4
0,64,127,0
0,57,127,4
0,61,127,4
0,64,127,4
0,38,116,0
0,61,127,28
0,42,112,0
0,52,83,4
0,35,83,0
0,64,123,4
0,57,83,4
0,44,45,0
0,61,83,4
0,64,83,4
0,45,70,8
0,40,107,8
0,66,123,0
0,52,127,4
0,57,127,0
0,61,127,4
0,45,91,0
0,64,127,4
0,57,127,28
0,52,105,4
0,35,83,0
0,57,105,4
0,44,45,0
0,61,84,4
0,61,105,4
0,64,105,0
0,78,64,8
0,83,96,28
0,59,118,16
0,54,118,0
0,62,118,4
0,47,105,12
0,71,118,0
0,50,127,4
0,54,127,0
0,35,112,0
0,59,127,8
0,57,67,0
0,62,127,4
0,86,104,4
0,50,74,24
0,54,74,4
0,59,74,4
0,62,74,0
0,42,44,4
0,71,123,156
0,50,127,4
0,54,127,0
0,38,112,4
0,59,127,4
0,42,87,0
0,62,127,4
0,69,109,40
0,47,112,4
0,50,121,4
0,35,83,0
0,54,121,8
0,59,121,4
0,42,45,0
0,62,121,4
0,71,107,56
0,50,127,0
0,47,105,4
0,54,127,4
0,35,114,0
0,42,84,0
0,59,127,4
0,62,127,0
0,50,80,56
0,54,80,8
0,59,80,4
0,42,42,0
0,62,80,4
0,71,114,100
0,42,111,4
0,50,127,0
0,54,127,4
0,38,111,0
0,59,127,4
0,42,87,0
0,62,127,4
0,69,107,12
0,50,100,8
0,54,100,4
0,46,45,0
0,59,100,4
0,62,100,8
0,76,96,8
0,80,68,24
0,56,118,12
0,59,118,0
0,52,118,0
0,71,102,12
0,40,112,4
0,52,127,4
0,56,127,0
0,35,112,0
0,59,127,8
0,42,89,0
0,83,96,4
0,64,127,4
0,52,91,72
0,56,91,4
0,59,91,4
0,64,91,4
0,42,44,4
0,71,111,136
0,52,127,4
0,56,127,4
0,38,112,0
0,59,127,4
0,42,87,0
0,64,127,4
0,69,112,16
0,40,116,4
0,52,125,4
0,35,83,0
0,56,125,4
0,59,125,4
0,42,45,0
0,64,125,4
0,71,105,56
0,52,127,0
0,40,123,4
0,56,127,0
0,42,84,4
0,35,114,0
0,59,127,8
0,64,127,0
0,66,118,64
0,52,86,8
0,56,86,8
0,59,86,0
0,42,42,4
0,64,86,4
0,52,127,140
0,56,127,4
0,38,111,0
0,42,87,0
0,59,127,4
0,64,127,4
0,69,121,120
0,52,111,0
0,56,111,4
0,59,111,0
0,64,111,4
0,42,45,8
0,52,118,16
0,57,118,0
0,61,118,4
0,45,111,12
0,52,127,0
0,57,127,4
0,35,112,0
0,42,90,0
0,61,127,4
0,64,127,4
0,45,125,72
0,52,73,4
0,57,73,4
0,61,73,0
0,64,73,0
0,42,42,0
0,69,112,164
0,69,127,0
0,61,127,4
0,52,127,0
0,57,127,0
0,38,111,0
0,42,85,0
0,61,127,4
0,64,127,0
0,66,111,32
0,45,116,4
0,52,123,4
0,35,75,0
0,57,123,4
0,61,123,4
0,64,123,0
0,42,44,0
0,66,118,12
0,69,116,0
0,52,127,0
0,45,116,4
0,57,127,4
0,35,114,0
0,61,127,4
0,42,83,0
0,64,127,4
0,45,114,24
0,64,118,0
0,52,84,4
0,57,84,12
0,61,84,0
0,64,84,4
0,42,45,0
0,66,118,56
0,69,127,0
0,40,118,4
0,52,127,0
0,57,127,4
0,38,110,0
0,42,86,4
0,57,105,4
0,61,127,4
0,64,127,4
0,64,92,8
0,66,109,0
0,52,107,8
0,57,107,4
0,46,46,0
0,61,107,4
0,64,107,0
0,38,82,32
0,69,116,4
0,45,121,0
0,69,102,0
0,61,100,4
0,33,125,0
0,52,127,0
0,57,127,4
0,61,127,4
0,38,122,0
0,64,127,0
0,67,62,60
0,66,86,40
0,64,105,8
0,62,100,0
0,61,104,0
0,59,101,12
0,48,101,68
0,48,127,20
0,64,118,288
0,66,121,24
0,71,111,80
0,59,94,16
0,66,102,28
0,59,118,16
0,62,118,0
0,54,118,4
0,74,97,12
0,47,116,0
0,50,127,0
0,35,112,4
0,54,127,4
0,59,127,4
0,49,70,0
0,62,127,4
0,42,44,148
0,50,127,48
0,54,127,4
0,38,112,0
0,69,112,4
0,42,87,0
0,59,127,4
0,62,127,4
0,47,105,68
0,50,123,4
0,35,83,0
0,71,111,4
0,54,123,0
0,59,123,4
0,42,45,0
0,62,123,4
0,50,127,140
0,47,111,4
0,54,127,0
0,42,84,4
0,35,114,0
0,59,127,4
0,62,127,4
0,69,116,120
0,42,42,12
0,50,127,96
0,54,127,4
0,38,111,0
0,42,87,0
0,59,127,4
0,62,127,4
0,52,94,128
0,50,112,8
0,54,112,4
0,59,112,4
0,62,112,4
0,42,45,4
0,64,94,12
0,52,118,80
0,59,118,0
0,56,118,4
0,68,91,12
0,40,127,0
0,52,127,4
0,35,112,0
0,71,121,4
0,56,127,4
0,42,89,0
0,59,127,4
0,64,127,4
0,69,125,24
0,52,83,0
0,56,83,4
0,59,83,4
0,64,83,4
0,42,44,4
0,52,127,28
0,56,127,4
0,38,112,0
0,42,87,0
0,59,127,4
0,64,127,0
0,40,114,80
0,52,127,4
0,35,83,0
0,56,127,4
0,59,127,8
0,64,127,0
0,42,45,0
0,52,127,124
0,40,125,4
0,56,127,4
0,35,114,0
0,59,127,4
0,42,84,0
0,64,127,4
0,71,118,24
0,52,89,0
0,56,89,8
0,59,89,0
0,42,42,0
0,64,89,4
0,52,127,24
0,56,127,4
0,38,111,0
0,59,127,4
0,42,87,0
0,64,127,4
0,40,111,80
0,52,107,4
0,35,83,0
0,71,111,4
0,56,107,0
0,59,107,4
0,46,45,0
0,64,107,4
0,52,118,16
0,57,118,0
0,61,118,4
0,45,111,12
0,52,127,0
0,57,127,4
0,35,112,0
0,69,109,4
0,61,127,4
0,42,90,0
0,64,127,4
0,66,102,0
0,64,112,96
0,52,74,0
0,57,74,0
0,61,74,4
0,64,74,0
0,42,42,8
0,68,112,132
0,61,127,16
0,69,116,0
0,52,127,0
0,57,127,4
0,38,111,0
0,42,85,4
0,61,127,4
0,64,127,4
0,45,104,28
0,52,127,4
0,35,75,0
0,57,127,8
0,61,127,4
0,42,44,0
0,64,127,4
0,66,127,128
0,52,127,0
0,61,118,4
0,45,109,0
0,57,127,4
0,35,114,0
0,42,83,4
0,61,127,4
0,64,127,4
0,64,98,8
0,61,78,4
0,52,54,8
0,57,54,4
0,61,54,8
0,64,54,0
0,42,45,0
0,66,94,48
0,61,86,0
0,52,127,4
0,57,127,0
0,38,110,4
0,42,86,0
0,61,127,8
0,64,127,0
0,69,114,88
0,61,116,4
0,52,100,4
0,57,100,4
0,61,100,4
0,64,100,8
0,42,46,0
0,45,111,68
0,52,127,4
0,57,127,0
0,35,114,0
0,42,89,4
0,61,127,4
0,64,127,4
0,45,107,124
0,52,101,0
0,35,84,4
0,57,101,4
0,61,101,4
0,64,101,0
0,42,47,4
0,52,127,156
0,57,127,0
0,38,110,0
0,42,84,0
0,61,127,4
0,64,127,4
0,61,114,80
0,69,111,0
0,45,101,4
0,52,127,4
0,35,84,0
0,57,127,4
0,61,127,8
0,42,42,0
0,64,127,4
0,40,116,72
0,52,127,0
0,66,116,4
0,61,97,0
0,57,127,0
0,35,114,0
0,64,121,4
0,42,88,0
0,61,127,4
0,64,127,4
0,64,123,28
0,61,109,0
0,66,104,4
0,52,82,0
0,57,82,4
0,61,82,8
0,42,42,0
0,64,82,4
0,45,107,68
0,52,127,0
0,57,127,0
0,38,114,4
0,46,78,4
0,61,127,8
0,64,127,0
0,71,111,12
0,52,105,0
0,57,105,4
0,61,105,8
0,64,105,0
0,42,47,4
0,66,74,4
0,71,113,12
0,54,118,12
0,59,118,0
0,62,118,0
0,74,107,12
0,47,104,0
0,50,127,4
0,35,110,0
0,54,127,4
0,59,127,4
0,42,85,0
0,62,127,4
0,50,93,120
0,54,93,8
0,59,93,4
0,62,93,4
0,42,42,4
0,50,127,148
0,54,127,0
0,38,112,4
0,42,86,0
0,69,114,4
0,59,127,0
0,62,127,4
0,47,102,64
0,50,127,4
0,35,83,0
0,71,111,4
0,54,127,4
0,59,127,4
0,42,47,0
0,62,127,4
0,50,127,120
0,47,107,4
0,54,127,4
0,35,112,0
0,59,127,4
0,42,85,0
0,62,127,4
0,66,88,32
0,74,107,4
0,42,47,16
0,62,107,68
0,50,127,4
0,54,127,0
0,38,111,0
0,42,84,0
0,69,114,4
0,59,127,0
0,62,127,4
0,74,107,12
0,71,105,0
0,50,111,0
0,54,111,4
0,59,111,4
0,62,111,0
0,42,42,0
0,59,118,84
0,56,118,0
0,52,118,4
0,68,101,12
0,40,118,0
0,64,111,4
0,52,127,0
0,35,112,0
0,56,127,8
0,42,90,0
0,59,127,4
0,64,127,0
0,69,121,108
0,52,82,0
0,56,82,4
0,59,82,4
0,64,82,4
0,42,45,4
0,52,127,144
0,56,127,0
0,38,110,4
0,42,90,0
0,59,127,4
0,64,127,4
0,40,105,60
0,52,127,4
0,35,84,0
0,71,125,4
0,56,127,0
0,59,127,4
0,42,46,0
0,64,127,4
0,52,127,124
0,40,118,8
0,56,127,0
0,42,88,4
0,35,110,0
0,59,127,4
0,64,127,0
0,71,114,52
0,52,86,0
0,56,86,8
0,59,86,4
0,42,44,0
0,64,86,4
0,52,127,76
0,56,127,0
0,38,114,4
0,42,83,0
0,69,111,4
0,59,127,0
0,64,127,4
0,69,114,52
0,52,101,0
0,56,101,4
0,46,41,4
0,59,101,4
0,64,101,4
0,52,118,20
0,57,118,0
0,61,118,4
0,45,103,12
0,45,111,0
0,52,127,4
0,35,112,0
0,57,127,4
0,61,127,4
0,42,89,0
0,64,127,4
0,52,76,24
0,57,76,4
0,61,76,0
0,64,76,4
0,42,44,0
0,68,97,96
0,69,114,12
0,61,127,4
0,52,127,0
0,57,127,4
0,38,112,0
0,42,87,4
0,61,127,4
0,64,127,4
0,45,105,84
0,52,125,4
0,35,83,0
0,57,125,4
0,61,125,8
0,64,125,0
0,42,45,0
0,69,104,120
0,52,127,0
0,66,116,4
0,61,109,0
0,45,112,0
0,57,127,4
0,35,114,0
0,42,84,4
0,61,127,4
0,64,127,0
0,64,112,28
0,61,89,0
0,52,74,4
0,57,74,8
0,61,74,4
0,42,42,0
0,64,74,4
0,66,116,68
0,69,97,4
0,61,109,0
0,40,114,0
0,52,127,0
0,57,127,4
0,38,111,0
0,61,127,4
0,42,87,0
0,64,127,4
0,69,114,64
0,61,112,4
0,52,100,0
0,57,100,4
0,61,100,4
0,64,100,8
0,42,45,0
0,47,112,56
0,52,127,0
0,57,127,4
0,35,112,0
0,42,90,4
0,61,127,4
0,64,127,0
0,69,116,44
0,47,111,0
0,61,123,4
0,52,62,0
0,57,62,4
0,61,62,0
0,64,62,0
0,42,42,0
0,45,103,24
0,52,127,4
0,57,127,0
0,38,111,0
0,46,80,0
0,61,127,4
0,64,127,0
0,61,125,64
0,69,118,0
0,45,112,0
0,52,125,4
0,35,115,0
0,57,125,4
0,61,125,8
0,64,125,0
0,42,44,0
0,52,127,0
0,57,127,4
0,74,116,4
0,42,83,0
0,61,127,4
0,64,127,0
0,73,121,72
0,69,105,0
0,42,111,4
0,52,89,4
0,35,114,0
0,57,89,4
0,61,89,4
0,42,45,0
0,64,89,4
0,40,102,20
0,52,127,0
0,73,112,4
0,57,127,0
0,38,110,0
0,46,81,4
0,61,127,4
0,64,127,0
0,69,43,116
0,52,104,8
0,35,84,0
0,57,104,4
0,61,104,4
0,64,104,4
0,42,46,4
0,59,118,20
0,54,118,0
0,62,118,0
0,74,87,4
0,62,87,4
0,66,105,4
0,47,109,0
0,50,127,0
0,71,112,4
0,35,114,0
0,71,118,4
0,49,62,4
0,54,127,4
0,59,127,0
0,62,127,4
0,50,86,136
0,54,86,8
0,59,86,4
0,62,86,8
0,42,47,0
0,50,127,132
0,54,127,0
0,38,110,0
0,42,84,0
0,69,112,4
0,59,127,0
0,62,127,4
0,47,105,52
0,71,104,4
0,50,127,0
0,35,84,0
0,54,127,4
0,59,127,8
0,42,42,0
0,62,127,4
0,73,87,120
0,61,87,4
0,47,125,4
0,50,127,0
0,54,127,0
0,35,114,0
0,59,127,4
0,42,88,0
0,62,127,4
0,66,100,52
0,74,104,0
0,69,121,4
0,50,87,0
0,54,87,8
0,59,87,4
0,42,42,0
0,62,87,4
0,71,104,144
0,50,127,4
0,54,127,0
0,38,114,4
0,42,83,4
0,59,127,4
0,62,127,0
0,62,100,96
0,71,102,8
0,50,107,0
0,54,107,4
0,59,107,4
0,62,107,4
0,42,47,4
0,71,97,8
0,52,118,36
0,56,118,0
0,59,118,0
0,71,87,4
0,59,87,0
0,68,104,4
0,40,123,0
0,64,112,4
0,52,127,0
0,35,110,0
0,73,116,8
0,56,127,0
0,42,85,0
0,59,127,4
0,64,127,0
0,42,42,140
0,52,127,16
0,56,127,4
0,38,112,0
0,42,86,0
0,59,127,4
0,64,127,4
0,40,104,56
