track,note,velocity,time
1,56,86,26112
1,59,86,0
1,52,70,0
1,64,78,0
1,59,95,68
1,62,86,0
1,57,95,136
1,61,95,0
1,56,95,52
1,50,104,0
1,59,104,0
1,50,74,16
1,64,86,0
1,59,104,116
1,64,95,0
1,56,95,0
1,52,104,0
1,64,104,48
1,56,95,0
1,56,104,76
1,62,113,0
1,62,113,68
1,56,113,64
1,61,104,0
1,50,104,56
1,59,95,0
1,56,86,0
1,50,86,1728
1,59,86,0
1,56,86,0
1,59,104,612
1,62,113,0
1,57,104,120
1,61,104,0
1,52,82,28
1,57,78,0
1,57,74,48
1,52,78,0
1,61,82,0
1,56,82,28
1,59,78,0
1,52,78,0
1,59,95,140
1,56,82,0
1,52,86,152
1,54,95,132
1,58,78,0
1,52,78,0
1,61,70,0
1,52,82,104
1,54,95,128
1,58,95,0
1,61,95,0
1,53,86,40
1,59,82,0
1,55,86,0
1,62,86,0
1,58,62,0
1,56,86,12268
1,59,86,0
1,52,70,0
1,64,78,0
1,62,113,1536
1,64,104,220
1,59,95,68
1,62,86,0
1,62,95,0
1,57,95,136
1,61,95,0
1,59,43,0
1,62,86,72
1,56,95,24
1,50,104,0
1,59,104,0
1,64,86,0
1,50,74,16
1,64,86,0
1,69,66,12
1,70,82,52
1,59,104,28
1,64,95,0
1,56,95,0
1,52,104,0
1,71,82,8
1,74,113,184
1,64,104,48
1,56,95,0
1,56,104,24
1,62,113,0
1,62,113,68
1,56,113,64
1,61,104,0
1,50,104,56
1,59,95,0
1,56,86,0
1,50,86,1728
1,59,86,0
1,56,86,0
1,59,104,612
1,62,113,0
1,57,104,120
1,61,104,0
1,52,82,28
1,57,78,0
1,57,74,48
1,52,78,0
1,61,82,0
1,56,82,28
1,59,78,0
1,52,78,0
1,59,95,140
1,56,82,0
1,52,86,152
1,54,95,132
1,58,78,0
1,52,78,0
1,61,70,0
1,52,82,104
1,54,95,128
1,58,95,0
1,61,95,0
1,53,86,40
1,59,82,0
1,55,86,0
1,62,86,0
1,58,62,0
1,56,115,24544
1,59,127,0
1,64,127,8
1,59,127,0
1,56,115,0
1,59,86,4
1,52,86,0
1,64,86,0
1,64,127,0
1,57,97,72
1,59,127,40
1,62,127,12
1,64,127,16
1,64,127,24
1,62,124,576
1,62,127,108
1,59,127,0
1,62,86,8
1,52,78,0
1,59,82,0
1,61,124,104
1,57,124,0
1,57,86,8
1,52,82,0
1,61,86,0
1,56,95,96
1,59,95,0
1,50,95,0
1,56,120,12
1,59,127,8
1,57,127,188
1,58,124,104
1,59,111,92
1,64,127,16
1,59,127,100
1,58,120,68
1,57,97,0
1,55,127,28
1,54,124,20
1,55,127,40
1,59,86,12
1,52,86,0
1,62,95,0
1,59,127,0
1,62,127,0
1,52,104,128
1,61,95,0
1,57,86,0
1,61,124,4
1,57,127,0
1,59,104,104
1,50,104,0
1,56,95,0
1,56,120,0
1,59,127,0
1,67,127,456
1,68,124,36
1,71,127,40
1,66,127,104
1,64,127,80
1,62,106,8
1,59,99,84
1,59,121,48
1,64,127,0
1,59,104,24
1,58,86,0
1,62,86,0
1,52,95,0
1,64,127,12
1,59,127,0
1,57,95,120
1,52,86,0
1,61,86,0
1,59,95,48
1,56,104,0
1,50,95,0
1,64,127,16
1,59,127,0
1,56,115,0
1,59,127,48
1,67,127,4
1,64,127,60
1,64,114,36
1,64,127,40
1,59,104,156
1,52,104,0
1,62,104,0
1,58,82,0
1,52,95,128
1,61,104,0
1,57,104,0
1,56,95,56
1,52,104,0
1,59,104,0
1,52,82,12024
1,57,78,0
1,57,74,48
1,52,78,0
1,61,82,0
1,56,82,28
1,59,78,0
1,52,78,0
1,59,95,140
1,56,82,0
1,52,86,152
1,54,95,132
1,58,78,0
1,52,78,0
1,61,70,0
1,52,82,104
1,54,95,128
1,58,95,0
1,61,95,0
1,53,86,40
1,59,82,0
1,55,86,0
1,62,86,0
1,58,62,0
1,65,86,1712
1,55,74,0
1,59,78,0
1,53,78,0
1,62,82,4
2,58,71,184
2,59,71,8
2,57,75,164
2,54,75,116
2,52,80,20
2,50,81,16
2,31,87,20
2,31,87,84
2,28,87,380
2,30,87,200
2,31,87,32
2,31,87,112
2,31,87,360
2,33,87,188
2,35,87,12
2,35,87,28
2,35,87,124
2,30,87,372
2,35,87,160
2,35,87,48
2,35,87,108
2,35,87,112
2,35,87,52
2,35,87,100
2,38,87,12
2,35,87,16
2,31,87,16
2,31,87,140
2,28,87,328
2,30,87,168
2,31,87,0
2,31,87,88
2,31,87,312
2,33,87,188
2,35,87,188
2,35,87,60
2,35,87,116
2,30,87,372
2,33,87,168
2,35,87,200
2,35,87,144
2,38,87,340
2,28,87,12
2,30,87,4
2,31,87,184
2,31,87,144
2,28,87,324
2,30,87,188
2,31,87,180
2,31,87,104
2,31,87,312
2,33,87,192
2,35,87,184
2,35,87,52
2,35,87,112
2,30,87,376
2,33,87,172
2,35,87,200
2,37,87,296
2,38,87,184
2,40,87,132
2,28,87,16
2,28,87,132
2,28,87,192
2,28,87,20
2,37,87,212
2,38,87,208
2,40,87,164
2,28,87,20
2,28,87,132
2,52,67,116
2,55,67,4
2,50,67,72
2,56,67,4
2,37,87,188
2,38,87,4
2,37,87,188
2,35,87,164
2,28,87,20
2,28,87,136
2,28,87,196
2,28,87,0
2,37,87,208
2,38,87,200
2,40,87,164
2,28,87,20
2,28,87,144
2,55,65,120
2,52,65,4
2,50,65,60
2,56,65,8
2,37,87,180
2,38,87,4
2,37,87,188
2,35,87,168
2,33,87,20
2,33,87,48
2,33,87,100
2,37,87,28
2,42,87,180
2,40,87,24
2,28,87,764
2,28,87,56
2,28,87,104
2,30,87,28
2,51,65,776
2,57,65,4
2,52,65,48
2,58,65,12
2,31,87,64
2,31,87,68
2,31,87,84
2,31,87,64
2,31,87,76
2,31,87,100
2,31,87,96
2,31,87,68
2,31,87,140
2,28,87,332
2,30,87,176
2,31,87,196
2,31,87,88
2,31,87,308
2,33,87,188
2,35,87,184
2,35,87,64
2,35,87,104
2,30,87,384
2,33,87,172
2,35,87,188
2,35,87,148
2,35,87,116
2,35,87,60
2,38,87,8
2,35,87,20
2,35,87,48
2,38,87,16
2,35,87,200
2,31,87,40
2,31,87,140
2,28,87,328
2,30,87,184
2,31,87,184
2,31,87,96
2,31,87,312
2,33,87,184
2,35,87,188
2,35,87,56
2,35,87,108
2,30,87,380
2,33,87,176
2,35,87,180
2,37,87,320
2,38,87,176
2,40,87,128
2,28,87,16
2,28,87,128
2,28,87,248
2,28,87,108
2,28,87,12
2,37,87,236
2,38,87,168
2,40,87,68
2,28,87,16
2,28,87,276
2,28,87,152
2,52,65,32
2,55,65,8
2,50,65,20
2,56,65,4
2,28,87,196
2,38,87,44
2,37,87,188
2,35,87,4
2,28,87,192
2,28,87,92
2,28,87,140
2,28,87,36
2,28,87,144
2,28,87,40
2,37,87,68
2,38,87,172
2,40,87,36
2,38,87,4
2,35,87,88
2,28,87,92
2,28,87,120
2,28,87,168
2,55,65,32
2,52,65,0
2,50,65,44
2,56,65,4
2,28,87,188
2,37,87,36
2,38,87,168
2,37,87,148
2,35,87,28
2,33,87,16
2,33,87,48
2,33,87,108
2,37,87,8
2,42,87,8
2,40,87,16
2,28,87,764
2,28,87,64
2,28,87,92
2,30,87,36
2,57,65,764
2,51,65,12
2,52,65,48
2,58,65,8
2,31,87,52
2,31,87,84
2,31,87,80
2,31,87,60
2,31,87,92
2,31,87,84
2,31,87,92
2,31,87,84
2,31,87,132
2,28,87,324
2,30,87,184
2,31,87,192
2,31,87,88
2,31,87,312
2,33,87,196
2,35,87,188
2,35,87,60
2,35,87,116
2,30,87,372
2,33,87,172
2,35,87,192
2,35,87,148
2,35,87,100
2,35,87,68
2,38,87,12
2,35,87,28
2,35,87,36
2,38,87,16
2,35,87,200
2,31,87,48
2,31,87,140
2,28,87,324
2,30,87,176
2,31,87,188
2,31,87,100
2,31,87,312
2,33,87,192
2,35,87,184
2,35,87,60
2,35,87,104
2,30,87,384
2,33,87,176
2,35,87,192
2,37,87,304
2,38,87,180
2,40,87,128
2,31,87,16
2,47,87,100
2,45,87,32
2,43,87,12
2,40,87,104
2,38,87,124
2,31,87,124
2,31,87,60
2,31,87,92
2,31,87,308
2,33,87,184
2,35,87,180
2,35,87,52
2,35,87,116
2,30,87,384
2,33,87,176
2,35,87,188
2,35,87,148
2,35,87,104
2,35,87,60
2,38,87,12
2,35,87,28
2,35,87,40
2,38,87,20
2,35,87,196
2,31,87,44
2,47,87,104
2,45,87,40
2,43,87,8
2,40,87,104
2,38,87,124
2,31,87,132
2,31,87,36
2,31,87,92
2,31,87,324
2,33,87,188
2,35,87,180
2,35,87,60
2,35,87,104
2,30,87,388
2,33,87,168
2,35,87,188
2,37,87,304
2,38,87,188
2,40,87,128
2,28,87,12
2,28,87,72
2,28,87,296
2,28,87,156
2,28,87,128
2,28,87,108
2,28,87,156
2,28,87,152
2,38,87,200
2,34,75,168
2,35,87,0
2,28,87,4
2,28,87,152
2,28,87,164
2,28,87,156
2,28,87,96
2,28,87,88
2,28,87,160
2,28,87,84
2,38,87,20
2,37,87,8
2,35,87,44
2,28,87,24
2,28,87,72
2,28,87,296
2,28,87,152
2,28,87,144
2,28,87,88
2,28,87,44
2,28,87,148
2,38,87,16
2,37,87,200
2,35,87,28
2,28,87,36
2,28,87,80
2,28,87,56
2,28,87,152
2,28,87,76
2,28,87,48
2,28,87,96
2,28,87,64
2,28,87,48
2,28,87,48
2,28,87,60
2,28,87,120
2,28,90,384
2,59,57,5760
2,56,57,8
2,50,57,0
2,56,57,56
2,50,57,0
2,59,57,8
2,59,57,24
2,56,57,0
2,50,57,0
2,33,87,5448
2,33,87,52
2,33,87,108
2,37,87,12
2,42,87,0
2,40,87,16
2,28,87,768
2,28,87,48
2,28,87,112
2,30,87,28
2,51,65,764
2,57,65,4
2,58,65,56
2,52,65,12
2,31,87,56
2,31,87,84
2,31,87,64
2,31,87,76
2,31,87,76
2,31,87,104
2,31,87,84
2,31,87,76
2,31,87,92
2,31,87,96
2,31,87,120
2,43,87,108
2,31,87,0
2,43,87,48
2,31,87,8
2,31,87,60
2,43,87,12
2,31,87,68
2,43,87,0
2,31,87,92
2,31,87,144
2,28,87,316
2,30,87,176
2,31,87,0
2,31,87,88
2,31,87,308
2,33,87,196
2,35,87,196
2,35,87,44
2,35,87,116
2,30,87,376
2,33,87,184
2,35,87,180
2,35,87,152
2,35,87,104
2,35,87,64
2,38,87,20
2,35,87,16
2,35,87,48
2,38,87,24
2,35,87,192
2,31,87,44
2,31,87,144
2,28,87,324
2,30,87,172
2,31,87,192
2,31,87,88
2,31,87,320
2,33,87,196
2,35,87,180
2,35,87,52
2,35,87,124
2,30,87,372
2,33,87,176
2,35,87,196
2,37,87,300
2,38,87,188
2,40,87,124
2,31,87,20
2,47,87,92
2,45,87,44
2,43,87,4
2,40,87,100
2,38,87,128
2,31,87,128
2,31,87,44
2,31,87,96
2,31,87,308
2,33,87,0
2,35,87,196
2,35,87,44
2,35,87,128
2,30,87,372
2,33,87,172
2,35,87,196
2,35,87,148
2,35,87,104
2,35,87,52
2,38,87,20
2,35,87,24
2,35,87,52
2,38,87,4
2,35,87,0
2,31,87,44
2,47,87,96
2,45,87,32
2,43,87,16
2,40,87,112
2,38,87,116
2,31,87,128
2,31,87,44
2,31,87,104
2,31,87,308
2,33,87,188
2,35,87,188
2,35,87,48
2,35,87,120
2,30,87,368
2,33,87,172
2,35,87,192
2,37,87,316
2,38,87,184
2,40,87,124
2,31,87,20
2,47,87,88
2,45,87,36
2,43,87,20
2,40,87,96
2,38,87,140
2,31,87,124
2,31,87,48
2,31,87,80
2,31,87,316
2,33,87,188
2,35,87,192
2,35,87,44
2,35,87,120
2,30,87,376
2,33,87,180
2,35,87,180
2,35,87,156
2,35,87,100
2,35,87,60
2,38,87,12
2,35,87,32
2,35,87,52
2,38,87,16
2,35,87,180
2,31,87,60
2,47,87,92
2,45,87,40
2,43,87,12
2,40,87,100
2,38,87,136
2,31,87,120
2,31,87,40
2,31,87,100
2,31,87,312
2,33,87,188
2,35,87,188
2,35,87,52
2,35,87,116
2,30,87,376
2,33,87,168
2,35,87,192
2,37,87,308
2,38,87,176
2,40,87,148
2,31,87,180
2,47,87,96
2,45,87,44
2,43,87,12
2,40,87,100
2,38,87,128
2,31,87,124
2,31,87,56
2,31,87,88
2,31,87,316
2,33,87,192
2,35,87,180
2,35,87,60
2,35,87,112
2,30,87,384
2,33,87,168
2,35,87,184
2,35,87,164
2,35,87,104
2,35,87,52
2,38,87,20
2,35,87,12
2,35,87,60
2,38,87,12
2,35,87,188
2,31,87,44
2,47,87,104
2,45,87,32
2,43,87,12
2,40,87,108
2,38,87,128
2,31,87,132
3,74,69,1528
3,71,69,0
3,67,69,0
3,79,78,0
3,62,69,0
3,59,65,0
3,55,57,0
3,62,61,324
3,59,69,0
3,71,69,0
3,79,61,0
3,74,69,0
3,55,61,0
3,67,61,0
3,55,78,136
3,62,69,0
3,67,65,0
3,71,69,0
3,74,69,0
3,79,65,0
3,59,78,0
3,62,78,152
3,55,78,0
3,74,61,0
3,67,69,0
3,59,87,0
3,79,87,0
3,71,69,0
3,74,69,400
3,71,61,0
3,55,65,0
3,62,57,0
3,67,53,0
3,79,57,0
3,59,53,0
3,79,69,136
3,74,69,0
3,62,69,0
3,55,69,0
3,71,65,0
3,67,65,0
3,59,65,0
3,62,78,80
3,54,78,0
3,74,69,0
3,66,69,0
3,59,78,0
3,78,61,0
3,71,69,0
3,62,69,424
3,54,69,0
3,66,78,0
3,78,57,0
3,74,65,0
3,71,65,0
3,59,78,0
3,62,78,140
3,54,78,0
3,66,78,0
3,59,65,0
3,78,78,0
3,74,78,0
3,71,69,0
3,78,69,112
3,54,69,0
3,74,69,0
3,66,69,0
3,62,69,0
3,59,65,0
3,71,69,0
3,78,65,404
3,66,65,0
3,71,65,0
3,62,69,0
3,54,69,0
3,59,78,0
3,74,65,0
3,78,78,124
3,71,65,0
3,66,78,0
3,74,69,0
3,54,87,0
3,62,78,0
3,59,87,0
3,74,69,240
3,71,69,0
3,67,69,0
3,79,78,0
3,62,69,0
3,59,65,0
3,55,57,0
3,71,60,12
3,79,60,0
3,62,71,0
3,62,71,336
3,79,65,0
3,71,51,0
3,62,87,120
3,79,68,0
3,71,65,0
3,79,78,128
3,71,75,0
3,62,87,0
3,62,87,188
3,71,60,4
3,79,65,0
3,79,71,136
3,62,87,0
3,71,71,8
3,62,96,88
3,71,65,0
3,78,57,4
3,62,78,220
3,78,54,0
3,71,62,0
3,62,87,132
3,78,57,0
3,71,75,0
3,62,87,120
3,78,57,0
3,71,71,4
3,62,78,120
3,78,47,0
3,71,60,0
3,62,91,136
3,78,61,4
3,71,78,0
3,62,61,896
3,59,69,0
3,71,69,0
3,79,61,0
3,74,69,0
3,55,61,0
3,67,61,0
3,55,78,136
3,62,69,0
3,67,65,0
3,71,69,0
3,74,69,0
3,79,65,0
3,59,78,0
3,62,78,152
3,55,78,0
3,74,61,0
3,67,69,0
3,59,87,0
3,79,87,0
3,71,69,0
3,74,69,400
3,71,61,0
3,55,65,0
3,62,57,0
3,67,53,0
3,79,57,0
3,59,53,0
3,79,69,136
3,74,69,0
3,62,69,0
3,55,69,0
3,71,65,0
3,67,65,0
3,59,65,0
3,62,78,80
3,54,78,0
3,74,69,0
3,66,69,0
3,59,78,0
3,78,61,0
3,71,69,0
3,62,69,424
3,54,69,0
3,66,78,0
3,78,57,0
3,74,65,0
3,71,65,0
3,59,78,0
3,62,78,140
3,54,78,0
3,66,78,0
3,59,65,0
3,78,78,0
3,74,78,0
3,71,69,0
3,78,69,112
3,54,69,0
3,74,69,0
3,66,69,0
3,62,69,0
3,59,65,0
3,71,69,0
3,78,65,404
3,66,65,0
3,71,65,0
3,62,69,0
3,54,69,0
3,59,78,0
3,74,65,0
3,78,78,124
3,71,65,0
3,66,78,0
