track,note,velocity,time
1,36,110,3072
1,36,57,529
1,36,57,48
1,36,110,48
1,36,110,150
1,36,55,331
1,36,110,144
1,36,52,517
1,36,55,48
1,36,110,48
1,36,110,146
1,36,50,337
1,36,110,144
1,36,48,532
1,36,50,48
1,36,110,48
1,36,110,140
1,36,50,340
1,36,110,144
1,36,46,526
1,36,46,48
1,36,110,48
1,36,110,152
1,36,41,335
1,36,110,144
1,36,57,529
1,36,57,48
1,36,110,48
1,36,110,150
1,36,55,331
1,36,110,144
1,36,52,517
1,36,55,48
1,36,110,48
1,36,110,146
1,36,50,337
1,36,110,144
1,36,48,532
1,36,50,48
1,36,110,48
1,36,110,140
1,36,50,340
1,36,110,144
1,36,46,526
1,36,46,48
1,36,110,48
1,36,110,152
1,36,41,335
1,36,110,144
1,36,57,529
1,36,57,48
1,36,110,48
1,36,110,150
1,36,55,331
1,36,110,144
1,36,52,517
1,36,55,48
1,36,110,48
1,36,110,146
1,36,50,337
1,36,110,144
1,36,48,532
1,36,50,48
1,36,110,48
1,36,110,140
1,36,50,340
1,36,110,144
1,36,46,526
1,36,46,48
1,36,110,48
1,36,110,152
1,36,41,335
1,36,110,144
1,36,57,529
1,36,57,48
1,36,110,48
1,36,110,150
1,36,55,331
1,36,110,144
1,36,52,517
1,36,55,48
1,36,110,48
1,36,110,146
1,36,50,337
1,36,110,144
1,36,48,532
1,36,50,48
1,36,110,48
1,36,110,140
1,36,50,340
1,36,110,144
1,36,46,526
1,36,46,48
1,36,110,48
1,36,110,152
1,36,41,335
1,36,110,144
1,36,57,529
1,36,57,48
1,36,110,48
1,36,110,150
1,36,55,331
1,36,110,144
1,36,52,517
1,36,55,48
1,36,110,48
1,36,110,146
1,36,50,337
1,36,110,144
1,36,48,532
1,36,50,48
1,36,110,48
1,36,110,140
1,36,50,340
1,36,110,144
1,36,46,526
1,36,46,48
1,36,110,48
1,36,110,152
1,36,41,335
1,36,110,144
1,36,57,529
1,36,57,48
1,36,110,48
1,36,110,150
1,36,55,331
1,36,110,144
1,36,52,517
1,36,55,48
1,36,110,48
1,36,110,146
1,36,50,337
1,36,110,144
1,36,48,532
1,36,50,48
1,36,110,48
1,36,110,140
1,36,50,340
1,36,110,144
1,36,46,526
1,36,46,48
1,36,110,48
1,36,110,152
1,36,41,335
1,36,110,144
1,36,57,529
1,36,57,48
1,36,110,48
1,36,110,150
1,36,55,331
1,36,110,144
1,36,52,517
1,36,55,48
1,36,110,48
1,36,110,146
1,36,50,337
1,36,110,144
1,36,48,532
1,36,50,48
1,36,110,48
1,36,110,140
1,36,50,340
1,36,110,144
1,36,46,526
1,36,46,48
1,36,110,48
1,36,110,152
1,36,41,335
1,36,110,144
1,36,57,529
1,36,57,48
1,36,110,48
1,36,110,150
1,36,55,331
1,36,110,144
1,36,52,517
1,36,55,48
1,36,110,48
1,36,110,146
1,36,50,337
1,36,110,144
1,36,48,532
1,36,50,48
1,36,110,48
1,36,110,140
1,36,50,340
1,36,110,144
1,36,46,526
1,36,46,48
1,36,110,48
1,36,110,152
1,36,41,335
1,36,110,144
1,36,57,529
1,36,57,48
1,36,110,48
1,36,110,150
1,36,55,331
1,36,110,144
1,36,52,517
1,36,55,48
1,36,110,48
1,36,110,146
1,36,50,337
1,36,110,144
1,36,48,532
1,36,50,48
1,36,110,48
1,36,110,140
1,36,50,340
1,36,110,144
1,36,46,526
1,36,46,48
1,36,110,48
1,36,110,152
1,36,41,335
1,36,110,144
1,36,57,529
1,36,57,48
1,36,110,48
1,36,110,150
1,36,55,331
1,36,110,144
1,36,52,517
1,36,55,48
1,36,110,48
1,36,110,146
1,36,50,337
1,36,110,144
1,36,48,532
1,36,50,48
1,36,110,48
1,36,110,140
1,36,50,340
1,36,110,144
1,36,46,526
1,36,46,48
1,36,110,48
1,36,110,152
1,36,41,335
1,36,110,144
1,36,57,529
1,36,57,48
1,36,110,48
1,36,110,150
1,36,55,331
1,36,110,144
1,36,52,517
1,36,55,48
1,36,110,48
1,36,110,146
1,36,50,337
1,36,110,144
1,36,48,532
1,36,50,48
1,36,110,48
1,36,110,140
1,36,50,340
1,36,110,144
1,36,46,526
1,36,46,48
1,36,110,48
1,36,110,152
1,36,41,335
1,36,110,144
1,36,57,529
1,36,57,48
1,36,110,48
1,36,110,150
1,36,55,331
1,36,110,144
1,36,52,517
1,36,55,48
1,36,110,48
1,36,110,146
1,36,50,337
1,36,110,144
1,36,48,532
1,36,50,48
1,36,110,48
1,36,110,140
1,36,50,340
1,36,110,144
1,36,46,526
1,36,46,48
1,36,110,48
1,36,110,152
1,36,41,335
1,36,110,144
1,36,57,529
1,36,57,48
1,36,110,48
1,36,110,150
1,36,55,331
1,36,110,144
1,36,52,517
1,36,55,48
1,36,110,48
1,36,110,146
1,36,50,337
1,36,110,144
1,36,48,532
1,36,50,48
1,36,110,48
1,36,110,140
1,36,50,340
1,36,110,144
1,36,46,526
1,36,46,48
1,36,110,48
1,36,110,152
1,36,41,335
1,36,110,144
1,36,57,529
1,36,57,48
1,36,110,48
1,36,110,150
1,36,55,331
1,36,110,144
1,36,52,517
1,36,55,48
1,36,110,48
1,36,110,146
1,36,50,337
1,36,110,144
1,36,48,532
1,36,50,48
1,36,110,48
1,36,110,140
1,36,50,340
1,36,110,144
1,36,46,526
1,36,46,48
1,36,110,48
1,36,110,152
1,36,41,335
1,36,110,144
1,36,57,529
1,36,57,48
1,36,110,48
1,36,110,150
1,36,55,331
1,36,110,144
1,36,52,517
1,36,55,48
1,36,110,48
1,36,110,146
1,36,50,337
1,36,110,144
1,36,48,532
1,36,50,48
1,36,110,48
1,36,110,140
1,36,50,340
1,36,110,144
1,36,46,526
1,36,46,48
1,36,110,48
1,36,110,152
1,36,41,335
1,36,110,144
1,36,57,529
1,36,57,48
1,36,110,48
1,36,110,150
1,36,55,331
1,36,110,144
1,36,52,517
1,36,55,48
1,36,110,48
1,36,110,146
1,36,50,337
1,36,110,144
1,36,48,532
1,36,50,48
1,36,110,48
1,36,110,140
1,36,50,340
1,36,110,144
1,36,46,526
1,36,46,48
1,36,110,48
1,36,110,152
1,36,41,335
1,36,110,144
1,36,57,529
1,36,57,48
1,36,110,48
1,36,110,150
1,36,55,331
1,36,110,144
1,36,52,517
1,36,55,48
1,36,110,48
1,36,110,146
1,36,50,337
1,36,110,144
1,36,48,532
1,36,50,48
1,36,110,48
1,36,110,140
1,36,50,340
1,36,110,144
1,36,46,526
1,36,46,48
1,36,110,48
1,36,110,152
1,36,41,335
1,36,110,144
1,36,57,529
1,36,57,48
1,36,110,48
1,36,110,150
1,36,55,331
1,36,110,144
1,36,52,517
1,36,55,48
1,36,110,48
1,36,110,146
1,36,50,337
1,36,110,144
1,36,48,532
1,36,50,48
1,36,110,48
1,36,110,140
1,36,50,340
1,36,110,144
1,36,46,526
1,36,46,48
1,36,110,48
1,36,110,152
1,36,41,335
1,36,110,144
1,36,57,529
1,36,57,48
1,36,110,48
1,36,110,150
1,36,55,331
1,36,110,144
1,36,52,517
1,36,55,48
1,36,110,48
1,36,110,146
1,36,50,337
1,36,110,144
1,36,48,532
1,36,50,48
1,36,110,48
1,36,110,140
1,36,50,340
1,36,110,144
1,36,46,526
1,36,46,48
1,36,110,48
1,36,110,152
1,36,41,335
1,36,110,144
1,36,57,529
1,36,57,48
1,36,110,48
1,36,110,150
1,36,55,331
1,36,110,144
1,36,52,517
1,36,55,48
1,36,110,48
1,36,110,146
1,36,50,337
1,36,110,144
1,36,48,532
1,36,50,48
1,36,110,48
1,36,110,140
1,36,50,340
1,36,110,144
1,36,110,1486
1,36,57,529
1,36,57,48
1,36,110,48
1,36,110,150
1,36,55,331
1,36,110,144
1,36,52,517
1,36,55,48
1,36,110,48
1,36,110,146
1,36,50,337
1,36,110,144
1,36,48,532
1,36,50,48
1,36,110,48
1,36,110,140
1,36,50,340
1,36,110,144
1,36,46,526
1,36,46,48
1,36,110,48
1,36,110,152
1,36,41,335
1,36,110,144
1,36,46,526
1,36,46,48
1,36,110,48
1,36,110,152
1,36,41,335
1,36,110,144
1,36,57,529
1,36,57,48
1,36,110,48
1,36,110,150
1,36,55,331
1,36,110,144
1,36,52,517
1,36,55,48
1,36,110,48
1,36,110,146
1,36,50,337
1,36,110,144
1,36,48,532
1,36,50,48
1,36,110,48
1,36,110,140
1,36,50,340
1,36,110,144
1,36,46,526
1,36,46,48
1,36,110,48
1,36,110,152
1,36,41,335
1,36,110,144
1,36,57,529
1,36,57,48
1,36,110,48
1,36,110,150
1,36,55,331
1,36,110,144
1,36,52,517
1,36,55,48
1,36,110,48
1,36,110,146
1,36,50,337
1,36,110,144
1,36,48,532
1,36,50,48
1,36,110,48
1,36,110,140
1,36,50,340
1,36,110,144
1,36,46,526
1,36,46,48
1,36,110,48
1,36,110,152
1,36,41,335
1,36,110,144
1,36,57,529
1,36,57,48
1,36,110,48
1,36,110,150
1,36,55,331
1,36,110,144
1,36,52,517
1,36,55,48
1,36,110,48
1,36,110,146
1,36,50,337
1,36,110,144
1,36,48,532
1,36,50,48
1,36,110,48
1,36,110,140
1,36,50,340
1,36,110,144
1,36,46,526
1,36,46,48
1,36,110,48
1,36,110,152
1,36,41,335
1,36,110,144
1,36,57,529
1,36,57,48
1,36,110,48
1,36,110,150
1,36,55,331
1,36,110,144
1,36,52,517
1,36,55,48
1,36,110,48
1,36,110,146
1,36,50,337
1,36,110,144
1,36,48,532
1,36,50,48
1,36,110,48
1,36,110,140
1,36,50,340
1,36,110,144
1,36,46,526
1,36,46,48
1,36,110,48
1,36,110,152
1,36,41,335
1,36,110,144
1,36,57,529
1,36,57,48
1,36,110,48
1,36,110,150
1,36,55,331
1,36,110,144
1,36,52,517
1,36,55,48
1,36,110,48
1,36,110,146
1,36,50,337
1,36,110,144
1,36,48,532
1,36,50,48
1,36,110,48
1,36,110,140
1,36,50,340
1,36,110,144
1,36,46,526
1,36,46,48
1,36,110,48
1,36,110,152
1,36,41,335
1,36,110,144
1,36,57,529
1,36,57,48
1,36,110,48
1,36,110,150
1,36,55,331
1,36,110,144
1,36,52,517
1,36,55,48
1,36,110,48
1,36,110,146
1,36,50,337
1,36,110,144
1,36,48,532
1,36,50,48
1,36,110,48
1,36,110,140
1,36,50,340
1,36,110,144
1,36,46,526
1,36,46,48
1,36,110,48
1,36,110,152
1,36,41,335
2,38,65,3007
2,38,70,401
2,38,70,723
2,38,70,730
2,38,70,730
2,38,70,733
2,38,70,734
2,38,70,735
2,38,70,732
2,38,70,738
2,38,70,723
2,38,70,730
2,38,70,730
2,38,70,733
2,38,70,734
2,38,70,735
2,38,70,732
2,38,70,738
2,38,70,723
2,38,70,730
2,38,70,730
2,38,70,733
2,38,70,734
2,38,70,735
2,38,41,444
2,38,57,48
2,38,61,48
2,38,63,48
2,38,50,162
2,38,63,48
2,38,70,432
2,38,70,723
2,38,70,730
2,38,70,730
2,38,70,733
2,38,70,734
2,38,70,735
2,38,63,732
2,38,70,738
2,38,70,723
2,38,70,730
2,38,70,730
2,38,70,733
2,38,70,734
2,38,70,735
2,38,63,732
2,38,70,738
2,38,70,723
2,38,70,730
2,38,70,730
2,38,70,733
2,38,70,734
2,38,70,735
2,38,63,732
2,38,70,738
2,38,70,723
2,38,70,730
2,38,70,730
2,38,70,733
2,38,70,734
2,38,54,543
2,38,70,144
2,38,60,348
2,38,46,84
2,38,48,30
2,38,50,134
2,38,73,81
2,38,77,36
2,38,70,530
2,38,70,723
2,38,70,730
2,38,70,730
2,38,70,733
2,38,70,734
2,38,70,735
2,38,41,444
2,38,57,48
2,38,61,48
2,38,63,48
2,38,50,162
2,38,63,48
2,38,70,432
2,38,70,723
2,38,70,730
2,38,70,730
2,38,70,733
2,38,70,734
2,38,70,735
2,38,63,732
2,38,70,738
2,38,70,723
2,38,70,730
2,38,70,730
2,38,70,733
2,38,70,734
2,38,70,735
2,38,63,732
2,38,70,738
2,38,70,723
2,38,70,730
2,38,70,730
2,38,70,733
2,38,70,734
2,38,70,735
2,38,63,732
2,38,70,738
2,38,70,723
2,38,70,730
2,38,70,730
2,38,70,733
2,38,70,734
2,38,54,543
2,38,70,144
2,38,60,348
2,38,46,84
2,38,48,30
2,38,50,134
2,38,73,81
2,38,77,36
2,38,70,530
2,38,70,723
2,38,70,730
2,38,70,730
2,38,70,733
2,38,70,734
2,38,70,735
2,38,41,444
2,38,57,48
2,38,61,48
2,38,63,48
2,38,50,162
2,38,63,48
2,38,70,432
2,38,70,723
2,38,70,730
2,38,70,730
2,38,70,733
2,38,70,734
2,38,70,735
2,38,63,732
2,38,70,738
2,38,70,723
2,38,70,730
2,38,70,730
2,38,70,733
2,38,70,734
2,38,70,735
2,38,41,444
2,38,57,48
2,38,61,48
2,38,63,48
2,38,50,162
2,38,63,48
2,38,70,432
2,38,70,723
2,38,70,730
2,38,70,730
2,38,70,733
2,38,70,734
2,38,70,735
2,38,63,732
2,38,70,738
2,38,70,723
2,38,70,730
2,38,70,730
2,38,70,733
2,38,70,734
2,38,70,735
2,38,63,732
2,38,70,738
2,38,70,723
2,38,70,730
2,38,70,730
2,38,70,733
2,38,70,734
2,38,70,735
2,38,63,732
2,38,70,738
2,38,70,723
2,38,70,730
2,38,70,730
2,38,70,733
2,38,70,734
2,38,70,735
2,38,63,732
2,38,70,738
2,38,70,723
2,38,70,730
2,38,70,730
2,38,70,733
2,38,70,734
2,38,70,351
2,38,70,1884
2,38,70,723
2,38,70,730
2,38,70,730
2,38,70,733
2,38,70,734
2,38,54,543
2,38,70,144
2,38,60,348
2,38,46,84
2,38,48,30
2,38,50,134
2,38,73,81
2,38,77,36
2,38,70,530
2,38,60,348
2,38,50,340
2,38,70,721
2,38,70,723
2,38,70,730
2,38,70,730
2,38,70,733
2,38,70,734
2,38,70,735
2,38,41,444
2,38,57,48
2,38,61,48
2,38,63,48
2,38,50,162
2,38,63,48
2,38,70,432
2,38,70,723
2,38,70,730
2,38,70,730
2,38,70,733
2,38,70,734
2,38,70,735
2,38,63,732
2,38,70,738
2,38,70,723
2,38,70,730
2,38,70,730
2,38,70,733
2,38,70,734
2,38,70,735
2,38,41,444
2,38,57,48
2,38,61,48
2,38,63,48
2,38,50,162
2,38,63,48
2,38,70,432
2,38,70,723
2,38,70,730
2,38,70,730
2,38,70,733
2,38,70,734
2,38,70,735
2,38,63,732
2,38,70,738
2,38,70,723
2,38,70,730
2,38,70,730
2,38,70,733
2,38,70,734
2,38,70,735
2,38,41,444
2,38,57,48
2,38,61,48
2,38,63,48
2,38,50,162
2,38,63,48
2,38,70,432
2,38,70,723
2,38,70,730
2,38,70,730
2,38,70,733
2,38,70,734
2,38,70,735
2,38,63,732
3,40,105,3007
3,40,110,401
3,40,110,723
3,40,110,730
3,40,110,730
3,40,110,733
3,40,110,734
3,40,110,735
3,40,110,732
3,40,110,738
3,40,110,723
3,40,110,730
3,40,110,730
3,40,110,733
3,40,110,734
3,40,110,735
3,40,110,732
3,40,110,738
3,40,110,723
3,40,110,730
3,40,110,730
3,40,110,733
3,40,110,734
3,40,110,735
3,40,81,444
3,40,97,48
3,40,101,48
3,40,103,48
3,40,90,162
3,40,103,48
3,40,110,432
3,40,110,723
3,40,110,730
3,40,110,730
3,40,110,733
3,40,110,734
3,40,110,735
3,40,103,732
3,40,110,738
3,40,110,723
3,40,110,730
3,40,110,730
3,40,110,733
3,40,110,734
3,40,110,735
3,40,103,732
3,40,110,738
3,40,110,723
3,40,110,730
3,40,110,730
3,40,110,733
3,40,110,734
3,40,110,735
3,40,103,732
3,40,110,738
3,40,110,723
3,40,110,730
3,40,110,730
3,40,110,733
3,40,110,734
3,40,94,543
3,40,110,144
3,40,100,348
3,40,86,84
3,40,88,30
3,40,90,134
3,40,113,81
3,40,117,36
3,40,110,530
3,40,110,723
3,40,110,730
3,40,110,730
3,40,110,733
3,40,110,734
3,40,110,735
3,40,81,444
3,40,97,48
3,40,101,48
3,40,103,48
