track,note,velocity,time
1,34,120,7
1,34,120,90
1,34,0,20
1,34,0,9
1,38,120,1
1,38,0,20
1,38,120,10
1,38,0,20
1,39,120,40
1,39,0,20
1,39,120,40
1,39,0,20
1,41,120,10
1,41,0,55
1,43,120,5
1,43,0,55
1,46,120,5
1,46,0,55
1,34,120,5
1,34,120,90
1,34,0,20
1,34,0,9
1,38,120,1
1,38,0,20
1,38,120,10
1,38,0,20
1,39,120,40
1,39,0,20
1,39,120,40
1,39,0,20
1,41,120,10
1,41,0,55
1,43,120,5
1,43,0,55
1,46,120,5
1,46,0,55
1,34,120,5
1,34,120,90
1,34,0,20
1,34,0,9
1,38,120,1
1,38,0,20
1,38,120,10
1,38,0,20
1,39,120,40
1,39,0,20
1,39,120,40
1,39,0,20
1,41,120,10
1,41,0,55
1,43,120,5
1,43,0,55
1,46,120,5
1,46,0,55
1,34,120,5
1,34,120,90
1,34,0,20
1,34,0,9
1,38,120,1
1,38,0,20
1,38,120,10
1,38,0,20
1,39,120,40
1,39,0,20
1,39,120,40
1,39,0,20
1,41,120,10
1,41,0,55
1,43,120,5
1,43,0,55
1,46,120,5
1,46,0,55
1,34,120,5
1,34,120,90
1,34,0,20
1,34,0,9
1,38,120,1
1,38,0,20
1,38,120,10
1,38,0,20
1,39,120,40
1,39,0,20
1,39,120,40
1,39,0,20
1,41,120,10
1,41,0,55
1,43,120,5
1,43,0,55
1,46,120,5
1,46,0,55
1,34,120,5
1,34,120,90
1,34,0,20
1,34,0,9
1,38,120,1
1,38,0,20
1,38,120,10
1,38,0,20
1,39,120,40
1,39,0,20
1,39,120,40
1,39,0,20
1,41,120,10
1,41,0,55
1,43,120,5
1,43,0,55
1,46,120,5
1,46,0,55
1,34,120,5
1,34,120,90
1,34,0,20
1,34,0,9
1,38,120,1
1,38,0,20
1,38,120,10
1,38,0,20
1,39,120,40
1,39,0,20
1,39,120,40
1,39,0,20
1,41,120,10
1,41,0,55
1,43,120,5
1,43,0,55
1,46,120,5
1,46,0,55
1,34,120,5
1,34,120,90
1,34,0,20
1,34,0,9
1,38,120,1
1,38,0,20
1,38,120,10
1,38,0,20
1,39,120,40
1,39,0,20
1,39,120,40
1,39,0,20
1,41,120,10
1,41,0,55
1,43,120,5
1,43,0,55
1,46,120,5
1,46,0,55
1,34,120,5
1,34,120,90
1,34,0,20
1,34,0,9
1,38,120,1
1,38,0,20
1,38,120,10
1,38,0,20
1,39,120,40
1,39,0,20
1,39,120,40
1,39,0,20
1,41,120,10
1,41,0,55
1,43,120,5
1,43,0,55
1,46,120,5
1,46,0,55
1,34,120,5
1,34,120,90
1,34,0,20
1,34,0,9
1,38,120,1
1,38,0,20
1,38,120,10
1,38,0,20
1,39,120,40
1,39,0,20
1,39,120,40
1,39,0,20
1,41,120,10
1,41,0,55
1,43,120,5
1,43,0,55
1,46,120,5
1,46,0,55
1,34,120,5
1,34,120,90
1,34,0,20
1,34,0,9
1,38,120,1
1,38,0,20
1,38,120,10
1,38,0,20
1,39,120,40
1,39,0,20
1,39,120,40
1,39,0,20
1,41,120,10
1,41,0,55
1,43,120,5
1,43,0,55
1,46,120,5
1,46,0,55
1,34,120,5
1,34,120,90
1,34,0,29
1,34,0,0
1,38,120,1
1,38,0,29
1,38,120,1
1,38,0,30
1,38,120,30
1,38,0,29
1,41,120,1
1,41,0,29
1,41,120,1
1,41,0,30
1,34,120,30
1,34,0,20
1,40,120,10
1,40,0,29
1,39,120,31
1,39,0,149
1,41,120,31
1,41,0,29
1,42,120,1
1,42,0,20
1,43,120,40
1,43,0,20
1,31,110,40
1,31,0,20
1,36,120,10
1,36,0,55
1,37,120,5
1,37,0,55
1,38,120,5
1,38,0,55
1,39,120,5
1,39,0,90
1,27,120,0
1,27,0,20
1,31,120,10
1,31,0,20
1,31,120,10
1,31,0,20
1,31,120,40
1,31,0,20
1,32,120,10
1,32,0,20
1,32,120,10
1,32,0,20
1,34,120,10
1,34,0,20
1,34,120,10
1,34,0,20
1,39,120,10
1,39,0,20
1,34,120,10
1,34,0,20
1,37,120,10
1,37,0,60
1,38,120,0
1,38,0,60
1,38,100,30
1,38,0,20
1,36,120,10
1,36,0,60
1,36,100,30
1,36,0,20
1,34,115,10
1,34,0,25
1,34,115,5
1,34,0,40
1,34,100,20
1,34,0,20
1,38,120,10
1,38,0,20
1,36,100,10
1,36,0,20
1,41,120,10
1,41,0,55
1,43,120,5
1,43,0,20
1,43,120,10
1,43,0,40
1,43,120,20
1,43,0,20
1,41,120,10
1,41,0,20
1,41,120,10
1,41,0,40
1,41,120,20
1,41,0,20
1,39,120,10
1,39,0,20
1,33,120,10
1,33,0,55
1,39,120,5
1,39,0,20
1,34,120,10
1,34,0,55
1,35,120,5
1,35,0,55
1,36,120,5
1,36,0,65
1,36,110,25
1,36,0,20
1,29,110,10
1,29,0,20
1,29,110,10
1,29,0,40
1,29,110,20
1,29,0,20
1,31,110,10
1,31,0,20
1,31,110,10
1,31,0,40
1,31,110,20
1,31,0,20
1,43,120,10
1,43,0,20
1,29,120,10
1,29,0,20
1,34,120,10
1,34,0,50
1,36,120,10
1,36,0,60
1,36,120,30
1,36,0,20
1,38,120,10
1,38,0,30
1,39,120,0
1,39,0,20
1,40,120,40
1,40,0,20
1,45,120,40
1,45,0,20
1,43,120,10
1,43,0,20
1,40,120,10
1,40,0,20
1,38,120,10
1,38,0,20
1,34,120,10
1,34,0,20
1,34,120,40
1,34,0,20
1,36,120,10
1,36,0,20
1,36,120,10
1,36,0,40
1,36,120,20
1,36,0,20
1,28,120,10
1,28,0,60
1,28,120,30
1,28,0,20
1,29,120,10
1,29,0,20
1,29,120,10
1,29,0,20
1,29,120,40
1,29,0,20
1,31,120,10
1,31,0,34
1,46,120,86
1,46,0,30
1,44,120,0
1,44,0,30
1,41,120,30
1,41,0,30
1,39,120,30
1,39,0,30
1,37,120,30
1,37,0,30
1,34,120,30
1,34,0,30
1,32,120,0
1,32,0,30
1,34,120,150
1,34,0,85
1,34,120,5
1,34,0,20
1,38,120,10
1,38,0,20
1,38,120,10
1,38,0,20
1,39,120,40
1,39,0,15
1,29,120,75
1,29,0,20
1,29,120,10
1,29,0,20
1,32,120,10
1,32,0,30
1,29,120,0
1,29,0,20
1,33,120,10
1,33,0,55
1,34,120,5
1,34,0,90
1,34,120,0
1,34,0,20
1,43,120,10
1,43,0,20
1,41,120,10
1,41,0,15
1,38,120,45
1,38,0,15
1,34,120,45
1,34,0,16
1,39,120,14
1,39,0,16
1,34,120,14
1,34,0,16
1,31,120,14
1,31,0,16
1,40,120,14
1,33,120,28
1,40,0,1
1,33,0,58
1,34,120,3
1,34,120,90
1,34,0,20
1,34,0,9
1,38,120,1
1,38,0,20
1,38,120,10
1,38,0,20
1,39,120,40
1,39,0,20
1,39,120,40
1,39,0,20
1,41,120,10
1,41,0,55
1,43,120,5
1,43,0,55
1,46,120,5
1,46,0,55
1,34,120,5
1,34,0,55
1,46,120,5
1,46,0,20
1,34,120,40
1,34,0,15
1,43,120,15
1,43,0,30
1,41,120,0
1,41,0,15
1,34,120,15
1,34,0,15
1,38,120,15
1,38,0,15
1,38,120,15
1,38,0,15
1,34,120,15
1,34,0,15
1,38,120,15
1,38,0,29
1,39,120,1
1,39,0,15
1,39,120,15
1,39,0,15
1,41,120,15
1,41,0,59
1,34,120,1
1,34,120,90
1,34,0,20
1,34,0,9
1,38,120,1
1,38,0,20
1,38,120,10
1,38,0,20
1,39,120,40
1,39,0,20
1,39,120,40
1,39,0,20
1,41,120,10
1,41,0,55
1,43,120,5
1,43,0,55
1,46,120,5
1,46,0,55
1,34,120,5
1,34,120,90
1,34,0,20
1,34,0,9
1,38,120,1
1,38,0,20
1,38,120,10
1,38,0,20
1,39,120,40
1,39,0,20
1,39,120,40
1,39,0,20
1,41,120,10
1,41,0,55
1,43,120,5
1,43,0,55
1,46,120,5
1,46,0,55
1,56,100,35
1,61,95,0
1,61,0,30
1,56,0,0
1,56,100,30
1,61,95,0
1,61,0,30
1,56,0,0
1,56,95,30
1,61,95,0
1,61,0,30
1,56,0,0
1,56,100,60
1,62,95,0
1,31,100,90
1,31,0,14
1,62,0,16
1,56,0,0
1,34,120,0
1,34,0,60
1,38,120,0
1,38,0,60
1,39,120,0
1,39,0,50
1,40,120,10
1,40,0,50
1,41,120,10
1,41,0,50
1,45,120,10
1,45,0,50
1,46,120,10
1,46,0,50
1,38,120,10
1,38,0,50
1,40,120,10
1,40,0,20
1,39,120,40
1,39,0,149
1,41,120,31
1,41,0,29
1,42,120,1
1,42,0,20
1,43,120,40
1,43,0,20
1,31,110,40
1,31,0,20
1,36,120,10
1,36,0,55
1,37,120,5
1,37,0,55
1,38,120,5
1,38,0,55
1,39,120,5
1,39,0,90
1,27,120,0
1,27,0,20
1,31,120,10
1,31,0,20
1,31,120,10
1,31,0,20
1,32,120,40
1,32,0,20
1,32,120,40
1,32,0,20
1,34,120,10
1,34,0,20
1,34,120,10
1,34,0,20
1,39,120,10
1,39,0,20
1,34,120,10
1,34,0,20
1,37,120,10
1,37,0,60
1,38,120,0
1,38,0,60
1,38,100,30
1,38,0,20
1,36,120,10
1,36,0,60
1,36,100,30
1,36,0,20
1,34,115,10
1,34,0,20
1,34,115,10
1,34,0,40
1,34,100,20
1,34,0,20
1,38,120,10
1,38,0,20
1,36,100,10
1,36,0,20
1,41,120,10
1,41,0,55
1,31,120,5
1,31,0,29
1,31,110,1
1,31,0,30
1,31,120,30
1,31,0,29
1,33,120,1
1,33,0,29
1,33,120,1
1,33,0,30
1,33,120,30
1,33,0,29
1,34,120,1
1,34,0,29
1,34,120,1
1,34,0,29
1,39,120,31
1,39,0,29
1,33,120,1
1,33,0,59
1,34,120,1
1,34,0,59
1,36,120,1
1,39,110,60
1,36,0,5
1,39,0,24
1,39,110,31
1,39,0,29
1,39,110,31
1,39,0,29
1,40,120,31
1,29,120,30
1,29,0,30
1,40,0,0
1,30,120,30
1,30,0,29
1,31,120,31
1,31,0,29
1,34,120,31
1,34,0,29
1,36,120,1
1,36,0,60
1,36,120,30
1,36,0,20
1,38,120,10
1,38,0,20
1,39,120,10
1,39,0,16
1,40,120,44
1,40,0,17
1,45,120,43
1,45,0,20
1,43,120,10
1,43,0,20
1,40,120,10
1,40,0,20
1,38,120,10
1,38,0,20
1,34,120,10
1,34,0,20
1,34,120,40
1,34,0,20
1,36,120,10
1,36,0,29
1,36,120,1
1,36,0,30
1,36,120,30
1,36,0,29
1,28,120,1
1,28,0,60
1,28,120,30
1,28,0,29
1,29,120,31
1,29,0,29
1,29,120,31
1,29,0,29
1,31,120,1
1,31,0,59
1,46,120,61
1,46,0,30
1,44,120,0
1,44,0,30
1,41,120,30
1,41,0,30
1,39,120,30
1,39,0,30
1,37,120,30
1,37,0,30
1,34,120,30
1,34,0,30
1,32,120,0
1,32,0,30
1,34,120,150
1,34,120,90
1,34,0,20
1,34,0,9
1,38,120,1
1,38,0,20
1,38,120,10
1,38,0,20
1,39,120,40
1,39,0,20
1,39,120,40
1,39,0,20
1,41,120,10
1,41,0,55
1,43,120,5
1,43,0,55
1,46,120,5
1,46,0,55
1,34,120,5
1,34,120,90
1,34,0,20
1,34,0,9
1,38,120,1
1,38,0,20
1,38,120,10
1,38,0,20
1,39,120,40
1,39,0,20
1,39,120,40
1,39,0,20
1,41,120,10
1,41,0,55
1,43,120,5
1,43,0,55
1,46,120,5
1,46,0,55
1,34,120,5
1,34,120,90
1,34,0,20
1,34,0,9
1,38,120,1
1,38,0,20
1,38,120,10
1,38,0,20
1,39,120,40
1,39,0,20
1,39,120,40
1,39,0,20
1,41,120,10
1,41,0,55
1,43,120,5
1,43,0,55
1,46,120,5
1,46,0,55
1,34,120,5
1,34,120,90
1,34,0,20
1,34,0,9
1,38,120,1
1,38,0,20
1,38,120,10
1,38,0,20
1,39,120,40
1,39,0,20
1,39,120,40
1,39,0,20
1,41,120,10
1,41,0,55
1,43,120,5
1,43,0,55
1,46,120,5
1,46,0,55
1,34,120,5
1,34,120,90
1,34,0,20
1,34,0,9
1,38,120,1
1,38,0,10
1,38,120,20
1,38,0,10
1,41,120,50
1,41,0,13
1,31,120,47
1,31,0,20
1,26,120,10
1,26,0,20
1,26,120,10
1,26,0,20
1,29,120,10
1,29,0,20
1,31,120,10
1,31,0,20
1,33,120,10
1,33,0,55
1,34,120,5
1,34,0,55
1,38,120,5
1,38,0,15
1,39,120,15
1,39,0,10
1,43,120,50
1,43,0,20
1,41,120,10
1,41,0,15
1,29,120,15
1,29,0,13
1,37,120,17
1,37,0,15
1,29,120,15
1,29,0,13
1,38,120,17
1,38,0,15
1,29,120,15
1,29,0,13
1,39,120,17
1,39,0,20
1,39,120,10
1,39,0,20
1,41,120,10
1,41,0,55
1,34,120,5
1,34,120,90
1,34,0,20
1,34,0,9
1,38,120,1
1,38,0,20
1,38,120,10
1,38,0,20
1,39,120,40
1,39,0,20
1,39,120,40
1,39,0,20
1,41,120,10
1,41,0,55
1,43,120,5
1,43,0,55
1,46,120,5
1,46,0,55
1,34,120,5
1,34,120,90
1,34,0,29
1,34,0,0
1,37,120,1
1,37,0,29
1,37,120,1
1,37,0,30
1,37,120,30
1,37,0,29
1,39,120,1
1,39,0,29
1,39,120,1
1,39,0,30
1,39,120,30
1,39,0,30
1,41,120,0
1,41,0,29
1,41,120,1
1,41,0,29
1,41,120,31
1,41,0,29
1,39,120,1
1,39,0,120
1,43,120,0
1,43,0,15
1,43,120,15
1,43,0,15
1,46,120,45
1,46,0,17
1,31,120,43
1,31,0,18
1,34,110,12
1,34,0,20
1,34,110,10
1,34,0,20
1,36,110,10
1,36,0,29
1,37,110,1
1,37,0,29
1,38,110,1
1,38,0,55
1,39,120,5
1,27,120,90
1,27,0,29
1,39,0,0
1,31,120,1
1,31,0,13
1,31,120,17
1,31,0,13
1,32,120,47
1,32,0,13
1,32,120,47
1,32,0,29
1,34,120,1
1,34,0,29
1,34,120,1
1,34,0,29
1,39,120,1
1,39,0,29
1,34,120,1
1,34,0,29
1,37,120,1
1,37,0,59
1,38,120,1
1,38,0,60
1,38,100,30
1,38,0,29
1,36,120,1
1,36,0,60
1,36,100,30
1,36,0,29
1,34,120,1
1,34,0,29
1,34,120,1
1,34,0,30
1,34,100,30
1,34,0,29
1,33,120,1
1,33,0,29
1,33,100,1
1,33,0,29
1,33,100,31
1,33,0,29
1,43,120,1
1,43,0,29
1,43,110,1
1,43,0,30
1,43,120,30
1,43,0,29
1,41,120,1
1,41,0,29
1,41,120,1
1,41,0,30
1,41,120,30
1,41,0,29
1,39,120,1
1,39,0,29
1,39,120,1
1,39,0,29
1,39,120,31
1,39,0,29
1,38,120,1
1,38,0,59
1,35,120,1
1,35,0,59
1,36,120,1
1,36,0,65
1,36,110,25
1,36,0,29
1,29,120,1
1,29,0,29
1,29,120,1
1,29,0,30
1,31,110,30
1,31,0,29
1,31,120,31
1,31,0,30
1,31,120,30
1,31,0,29
1,43,120,1
1,43,0,29
1,29,120,1
1,29,0,29
1,34,120,1
1,34,0,50
1,36,120,10
1,36,0,65
1,36,110,25
1,36,0,29
1,39,120,1
1,39,0,13
1,40,120,17
1,40,0,13
1,41,110,47
1,41,0,13
1,31,120,47
1,31,0,30
1,31,120,30
1,31,0,29
1,43,120,1
1,43,0,29
1,29,120,1
1,29,0,29
1,34,120,1
1,34,0,50
1,36,120,40
1,36,0,30
1,48,120,0
1,48,0,29
1,36,120,1
1,36,0,29
1,46,120,1
1,46,0,29
1,48,120,1
1,48,0,29
1,36,120,1
1,36,0,29
1,36,120,1
1,36,0,60
1,36,120,2
1,48,120,28
1,36,0,1
1,48,0,28
1,36,120,1
1,46,120,28
1,36,0,1
1,48,120,24
1,46,0,4
1,48,0,25
1,46,120,68
1,46,0,30
1,44,120,0
1,44,0,30
1,41,120,30
1,41,0,30
1,39,120,30
1,39,0,30
1,37,120,30
1,37,0,30
