track,note,velocity,time
1,37,99,846
1,37,78,126
1,37,73,114
1,37,80,110
1,37,77,116
1,37,59,106
1,37,66,100
1,37,75,102
1,37,69,122
1,37,71,108
1,37,70,116
1,37,68,118
1,37,66,120
1,37,51,116
1,37,61,116
1,37,70,108
1,37,77,130
1,37,72,128
1,37,67,122
1,37,61,116
1,37,76,114
1,37,66,120
1,37,70,122
1,37,74,114
1,37,65,128
1,37,73,116
1,37,73,130
1,37,68,122
1,37,72,130
1,37,66,130
1,37,75,120
1,37,72,124
1,37,80,140
1,37,68,128
1,37,73,126
1,37,56,128
1,37,71,116
1,37,67,120
1,37,73,122
1,37,68,124
1,37,80,138
1,37,67,134
1,37,68,128
1,37,78,130
1,37,66,130
1,37,65,118
1,37,73,126
1,37,68,132
1,37,78,136
1,37,69,128
1,37,73,124
1,37,69,126
1,37,68,118
1,37,65,120
1,37,70,126
1,37,70,124
1,37,73,132
1,37,66,124
1,37,68,118
1,37,68,114
1,37,68,126
1,37,69,126
1,37,77,140
1,37,75,132
1,46,79,140
1,46,70,118
1,46,73,114
1,46,65,110
1,46,73,112
1,46,70,120
1,46,73,118
1,46,74,132
1,44,73,114
1,44,70,118
1,44,73,118
1,44,66,116
1,44,69,122
1,44,70,112
1,44,69,118
1,44,70,126
1,42,78,114
1,42,73,114
1,42,76,112
1,42,69,114
1,42,74,114
1,42,70,114
1,42,71,124
1,42,66,118
1,42,73,126
1,42,74,112
1,42,73,118
1,42,69,118
1,42,68,120
1,42,76,118
1,44,70,130
1,44,66,110
1,46,79,104
1,46,70,118
1,46,73,114
1,46,65,110
1,46,73,112
1,46,70,120
1,46,73,118
1,46,74,132
1,44,73,114
1,44,70,118
1,44,73,118
1,44,66,116
1,44,69,122
1,44,70,112
1,44,69,118
1,44,70,126
1,42,78,114
1,42,73,114
1,42,76,112
1,42,69,114
1,42,74,114
1,42,70,114
1,42,71,124
1,42,66,118
1,42,73,126
1,42,74,112
1,42,73,118
1,42,69,118
1,42,68,120
1,42,76,118
1,44,70,130
1,44,66,110
1,46,86,104
1,46,76,122
1,46,78,102
1,46,70,112
1,46,76,110
1,46,68,98
1,46,70,116
1,46,70,114
1,44,68,130
1,44,67,112
1,44,69,102
1,44,66,118
1,44,70,120
1,44,78,118
1,44,69,118
1,44,73,116
1,39,74,108
1,39,79,106
1,39,75,112
1,39,79,98
1,39,76,112
1,39,68,100
1,39,73,106
1,39,78,112
1,39,77,108
1,39,73,106
1,39,75,120
1,39,78,102
1,39,74,110
1,39,75,102
1,39,74,114
1,39,79,110
1,42,77,116
1,42,70,108
1,42,73,112
1,42,73,106
1,42,72,116
1,42,68,112
1,42,74,116
1,42,76,108
1,44,73,104
1,44,68,118
1,44,66,120
1,44,65,96
1,44,70,106
1,44,66,108
1,44,71,110
1,44,63,114
1,46,72,90
1,46,61,108
1,46,70,96
1,46,66,102
1,46,68,110
1,46,67,112
1,46,63,112
1,46,60,108
1,46,65,100
1,46,64,108
1,46,65,114
1,46,59,108
1,46,66,112
1,46,66,112
1,46,62,110
1,46,60,110
1,48,76,114
1,48,74,98
1,48,75,108
1,48,77,110
1,48,78,106
1,48,76,112
1,48,75,112
1,48,72,114
1,45,80,106
1,45,80,116
1,45,80,112
1,45,77,120
1,45,76,114
1,45,77,106
1,45,72,110
1,45,76,108
1,44,79,118
1,44,73,120
1,44,73,116
1,44,70,116
1,44,56,118
1,44,73,108
1,44,69,118
1,44,70,110
1,46,79,114
1,46,70,106
1,46,70,104
1,46,72,118
1,46,71,120
1,46,63,112
1,46,70,116
1,46,68,116
1,48,76,126
1,48,74,98
1,48,75,108
1,48,77,110
1,48,78,106
1,48,76,112
1,48,75,112
1,48,72,114
1,45,80,106
1,45,80,116
1,45,80,112
1,45,77,120
1,45,76,114
1,45,77,106
1,45,72,110
1,45,76,108
1,44,79,118
1,44,73,120
1,44,73,116
1,44,70,116
1,44,56,118
1,44,73,108
1,44,69,118
1,44,70,110
1,46,79,114
1,46,70,106
1,46,70,104
1,46,72,118
1,46,71,120
1,46,63,112
1,46,70,116
1,46,68,116
1,48,76,126
1,48,74,98
1,48,75,108
1,48,77,110
1,48,78,106
1,48,76,112
1,48,75,112
1,48,72,114
1,45,80,106
1,45,80,116
1,45,80,112
1,45,77,120
1,45,76,114
1,45,77,106
1,45,72,110
1,45,76,108
1,44,79,118
1,44,73,120
1,44,73,116
1,44,70,116
1,44,56,118
1,44,73,108
1,44,69,118
1,44,70,110
1,46,79,114
1,46,70,106
1,46,70,104
1,46,72,118
1,46,71,120
1,46,63,112
1,46,70,116
1,46,68,116
1,48,76,126
1,48,74,98
1,48,75,108
1,48,77,110
1,48,78,106
1,48,76,112
1,48,75,112
1,48,72,114
1,45,80,106
1,45,80,116
1,45,80,112
1,45,77,120
1,45,76,114
1,45,77,106
1,45,72,110
1,45,76,108
1,44,79,118
1,44,73,120
1,44,73,116
1,44,70,116
1,44,56,118
1,44,73,108
1,44,69,118
1,44,70,110
1,46,79,114
1,46,70,106
1,46,70,104
1,46,72,118
1,46,71,120
1,46,63,112
1,46,70,116
1,46,68,116
1,37,99,126
1,37,78,126
1,37,73,114
1,37,80,110
1,37,77,116
1,37,59,106
1,37,66,100
1,37,75,102
1,37,69,122
1,37,71,108
1,37,70,116
1,37,68,118
1,37,66,120
1,37,51,116
1,37,61,116
1,37,70,108
1,37,77,130
1,37,72,128
1,37,67,122
1,37,61,116
1,37,76,114
1,37,66,120
1,37,70,122
1,37,74,114
1,37,65,128
1,37,73,116
1,37,73,130
1,37,68,122
1,37,72,130
1,37,66,130
1,37,75,120
1,37,72,124
1,48,76,144
1,48,74,98
1,48,75,108
1,48,77,110
1,48,78,106
1,48,76,112
1,48,75,112
1,48,72,114
1,45,80,106
1,45,80,116
1,45,80,112
1,45,77,120
1,45,76,114
1,45,77,106
1,45,72,110
1,45,76,108
1,44,79,118
1,44,73,120
1,44,73,116
1,44,70,116
1,44,56,118
1,44,73,108
1,44,69,118
1,44,70,110
1,46,79,114
1,46,70,106
1,46,70,104
1,46,72,118
1,46,71,120
1,46,63,112
1,46,70,116
1,46,68,116
1,48,76,126
1,48,74,98
1,48,75,108
1,48,77,110
1,48,78,106
1,48,76,112
1,48,75,112
1,48,72,114
1,45,80,106
1,45,80,116
1,45,80,112
1,45,77,120
1,45,76,114
1,45,77,106
1,45,72,110
1,45,76,108
1,44,79,118
1,44,73,120
1,44,73,116
1,44,70,116
1,44,56,118
1,44,73,108
1,44,69,118
1,44,70,110
1,46,79,114
1,46,70,106
1,46,70,104
1,46,72,118
1,46,71,120
1,46,63,112
1,46,70,116
1,46,68,116
1,37,99,126
1,37,78,126
1,37,73,114
1,37,80,110
1,37,77,116
1,37,59,106
1,37,66,100
1,37,75,102
1,37,69,122
1,37,71,108
1,37,70,116
1,37,68,118
1,37,66,120
1,37,51,116
1,37,61,116
1,37,70,108
1,37,77,130
1,37,72,128
1,37,67,122
1,37,61,116
1,37,76,114
1,37,66,120
1,37,70,122
1,37,74,114
1,37,65,128
1,37,73,116
1,37,73,130
1,37,68,122
1,37,72,130
1,37,66,130
1,37,75,120
1,37,72,124
1,37,80,140
1,37,68,128
1,37,73,126
1,37,56,128
1,37,71,116
1,37,67,120
1,37,73,122
1,37,68,124
1,37,80,138
1,37,67,134
1,37,68,128
1,37,78,130
1,37,66,130
1,37,65,118
1,37,73,126
1,37,68,132
1,37,78,136
1,37,69,128
1,37,73,124
1,37,69,126
1,37,68,118
1,37,65,120
1,37,70,126
1,37,70,124
1,37,73,132
1,37,66,124
1,37,68,118
1,37,68,114
1,37,68,126
1,37,69,126
1,37,77,140
1,37,75,132
1,46,79,140
1,46,70,118
1,46,73,114
1,46,65,110
1,46,73,112
1,46,70,120
1,46,73,118
1,46,74,132
1,44,73,114
1,44,70,118
1,44,73,118
1,44,66,116
1,44,69,122
1,44,70,112
1,44,69,118
1,44,70,126
1,42,78,114
1,42,73,114
1,42,76,112
1,42,69,114
1,42,74,114
1,42,70,114
1,42,71,124
1,42,66,118
1,42,73,126
1,42,74,112
1,42,73,118
1,42,69,118
1,42,68,120
1,42,76,118
1,44,70,130
1,44,66,110
1,46,79,104
1,46,70,118
1,46,73,114
1,46,65,110
1,46,73,112
1,46,70,120
1,46,73,118
1,46,74,132
1,44,73,114
1,44,70,118
1,44,73,118
1,44,66,116
1,44,69,122
1,44,70,112
1,44,69,118
1,44,70,126
1,42,78,114
1,42,73,114
1,42,76,112
1,42,69,114
1,42,74,114
1,42,70,114
1,42,71,124
1,42,66,118
1,42,73,126
1,42,74,112
1,42,73,118
1,42,69,118
1,42,68,120
1,42,76,118
1,44,70,130
1,44,66,110
1,46,86,104
1,46,76,122
1,46,78,102
1,46,70,112
1,46,76,110
1,46,68,98
1,46,70,116
1,46,70,114
1,44,68,130
1,44,67,112
1,44,69,102
1,44,66,118
1,44,70,120
1,44,78,118
1,44,69,118
1,44,73,116
1,39,74,108
1,39,79,106
1,39,75,112
1,39,79,98
1,39,76,112
1,39,68,100
1,39,73,106
1,39,78,112
1,39,77,108
1,39,73,106
1,39,75,120
1,39,78,102
1,39,74,110
1,39,75,102
1,39,74,114
1,39,79,110
1,42,77,116
1,42,70,108
1,42,73,112
1,42,73,106
1,42,72,116
1,42,68,112
1,42,74,116
1,42,76,108
1,44,73,104
1,44,68,118
1,44,66,120
1,44,65,96
1,44,70,106
1,44,66,108
1,44,71,110
1,44,63,114
1,46,72,90
1,46,61,108
1,46,70,96
1,46,66,102
1,46,68,110
1,46,67,112
1,46,63,112
1,46,60,108
1,46,65,100
1,46,64,108
1,46,65,114
1,46,59,108
1,46,66,112
1,46,66,112
1,46,62,110
1,46,60,110
1,48,76,114
1,48,74,98
1,48,75,108
1,48,77,110
1,48,78,106
1,48,76,112
1,48,75,112
1,48,72,114
1,45,80,106
1,45,80,116
1,45,80,112
1,45,77,120
1,45,76,114
1,45,77,106
1,45,72,110
1,45,76,108
1,44,79,118
1,44,73,120
1,44,73,116
1,44,70,116
1,44,56,118
1,44,73,108
1,44,69,118
1,44,70,110
1,46,79,114
1,46,70,106
1,46,70,104
1,46,72,118
1,46,71,120
1,46,63,112
1,46,70,116
1,46,68,116
1,48,76,126
1,48,74,98
1,48,75,108
1,48,77,110
1,48,78,106
1,48,76,112
1,48,75,112
1,48,72,114
1,45,80,106
1,45,80,116
1,45,80,112
1,45,77,120
1,45,76,114
1,45,77,106
1,45,72,110
1,45,76,108
1,44,79,118
1,44,73,120
1,44,73,116
1,44,70,116
1,44,56,118
1,44,73,108
1,44,69,118
1,44,70,110
1,46,79,114
1,46,70,106
1,46,70,104
1,46,72,118
1,46,71,120
1,46,63,112
1,46,70,116
1,46,68,116
1,48,76,126
1,48,74,98
1,48,75,108
1,48,77,110
1,48,78,106
1,48,76,112
1,48,75,112
1,48,72,114
1,45,80,106
1,45,80,116
1,45,80,112
1,45,77,120
1,45,76,114
1,45,77,106
1,45,72,110
1,45,76,108
1,44,79,118
1,44,73,120
1,44,73,116
1,44,70,116
1,44,56,118
1,44,73,108
1,44,69,118
1,44,70,110
1,46,79,114
1,46,70,106
1,46,70,104
1,46,72,118
1,46,71,120
1,46,63,112
1,46,70,116
1,46,68,116
1,48,76,126
1,48,74,98
1,48,75,108
1,48,77,110
1,48,78,106
1,48,76,112
1,48,75,112
1,48,72,114
1,45,80,106
1,45,80,116
1,45,80,112
1,45,77,120
1,45,76,114
1,45,77,106
1,45,72,110
1,45,76,108
1,44,79,118
1,44,73,120
1,44,73,116
1,44,70,116
1,44,56,118
1,44,73,108
1,44,69,118
1,44,70,110
1,46,79,114
1,46,70,106
1,46,70,104
1,46,72,118
1,46,71,120
1,46,63,112
1,46,70,116
1,46,68,116
1,48,76,126
1,48,74,98
1,48,75,108
1,48,77,110
1,48,78,106
1,48,76,112
1,48,75,112
1,48,72,114
1,45,80,106
1,45,80,116
1,45,80,112
1,45,77,120
1,45,76,114
1,45,77,106
1,45,72,110
1,45,76,108
1,44,79,118
1,44,73,120
1,44,73,116
1,44,70,116
1,44,56,118
1,44,73,108
1,44,69,118
1,44,70,110
1,46,79,114
1,46,70,106
1,46,70,104
1,46,72,118
1,46,71,120
1,46,63,112
1,46,70,116
1,46,68,116
1,48,76,126
1,48,74,98
1,48,75,108
1,48,77,110
1,48,78,106
1,48,76,112
1,48,75,112
1,48,72,114
1,45,80,106
1,45,80,116
1,45,80,112
1,45,77,120
1,45,76,114
1,45,77,106
1,45,72,110
1,45,76,108
1,44,79,118
1,44,73,120
1,44,73,116
1,44,70,116
1,44,56,118
1,44,73,108
1,44,69,118
1,44,70,110
1,46,79,114
1,46,70,106
1,46,70,104
1,46,72,118
1,46,71,120
1,46,63,112
1,46,70,116
1,46,68,116
1,48,76,126
1,48,74,98
1,48,75,108
1,48,77,110
1,48,78,106
1,48,76,112
1,48,75,112
1,48,72,114
1,45,80,106
1,45,80,116
1,45,80,112
1,45,77,120
1,45,76,114
1,45,77,106
1,45,72,110
1,45,76,108
1,44,79,118
1,44,73,120
1,44,73,116
1,44,70,116
1,44,56,118
1,44,73,108
1,44,69,118
1,44,70,110
1,46,79,114
1,46,70,106
1,46,70,104
1,46,72,118
1,46,71,120
1,46,63,112
1,46,70,116
1,46,68,116
1,48,76,126
1,48,74,98
1,48,75,108
1,48,77,110
1,48,78,36
1,48,76,4
1,48,75,92
1,48,72,30
1,45,80,106
1,45,80,84
1,45,80,112
1,45,77,36
1,45,76,114
1,45,77,62
1,45,72,38
1,45,76,108
1,44,79,118
1,44,73,68
1,44,73,4
1,44,70,116
1,44,56,118
1,44,73,56
1,44,69,118
1,44,70,50
1,46,79,22
1,46,70,106
1,46,70,16
1,46,72,118
1,46,71,2
1,46,63,112
1,46,70,62
1,46,68,54
1,48,76,32
1,48,74,36
1,48,75,30
1,48,77,40
1,48,78,4
1,48,76,38
1,48,75,52
1,48,72,60
1,45,80,12
1,45,80,44
1,45,80,22
1,45,77,120
1,45,76,24
1,45,77,2
1,45,72,48
1,45,76,10
1,44,79,58
1,44,73,14
1,44,73,26
1,44,70,116
1,44,56,118
1,44,73,108
2,34,61,770
2,53,61,0
2,58,61,0
2,61,61,0
2,63,61,0
2,34,61,50
2,53,61,0
2,58,61,0
2,61,61,0
2,63,61,0
2,58,61,50
2,61,61,0
2,65,61,0
2,56,61,66
2,60,61,0
2,61,61,114
2,54,61,2
2,58,61,0
2,58,61,24
2,61,61,0
2,65,61,0
2,56,61,1530
2,60,61,0
2,61,61,114
2,54,61,2
2,58,61,0
2,58,61,16
2,61,61,0
2,65,61,2
2,56,61,1526
2,60,61,0
2,55,61,10
2,58,61,0
2,63,61,0
2,54,61,138
2,56,61,116
2,60,61,2
2,56,61,4
2,53,61,4
2,58,61,2
2,61,61,0
2,55,71,6
2,60,71,0
2,64,71,0
2,67,65,4
2,57,71,6
2,56,71,32
2,63,71,0
2,65,59,20
2,58,71,12
2,62,71,0
2,53,71,2
2,55,71,38
2,60,71,0
2,64,71,0
2,67,71,0
2,57,71,6
2,56,71,32
2,63,71,0
2,58,71,6
2,62,71,0
2,53,71,2
2,65,63,2
2,55,71,56
2,60,71,0
2,64,71,0
2,57,71,6
2,56,71,32
2,63,71,0
2,58,71,12
2,62,71,0
2,53,71,2
2,55,71,70
2,60,71,0
2,64,71,0
2,57,71,6
2,56,71,32
2,63,71,0
2,58,71,12
2,62,71,0
2,53,71,2
2,53,41,70
2,58,41,0
2,61,41,0
2,63,41,0
2,55,66,50
2,60,66,0
2,64,66,0
2,57,66,6
2,56,66,32
2,63,66,0
2,58,66,10
2,62,66,0
2,53,66,2
2,55,71,70
2,60,71,0
2,64,71,0
2,57,71,6
2,56,71,36
2,63,71,0
2,53,71,12
2,58,71,0
2,62,71,0
2,53,45,68
2,58,45,0
2,61,45,0
2,63,45,0
2,53,45,50
2,58,45,0
2,61,45,0
2,63,45,0
2,58,61,50
2,61,61,0
2,65,61,0
