track,note,velocity,time
1,43,100,21508
1,55,100,48
1,43,100,50
1,55,100,50
1,43,100,50
1,55,100,50
1,43,100,50
1,55,100,48
1,42,100,50
1,54,100,52
1,42,100,50
1,54,100,48
1,42,100,50
1,54,100,48
1,42,100,50
1,54,100,50
1,40,100,52
1,52,100,48
1,40,100,50
1,52,100,48
1,40,100,50
1,52,100,48
1,40,100,50
1,52,100,50
1,40,100,52
1,52,100,50
1,40,100,50
1,52,100,48
1,40,100,50
1,52,100,50
1,40,100,52
1,52,100,48
1,45,100,50
1,57,100,50
1,45,100,52
1,57,100,52
1,45,100,50
1,57,100,48
1,45,100,50
1,57,100,50
1,38,100,50
1,50,100,48
1,38,100,50
1,50,100,52
1,38,100,52
1,50,100,50
1,38,100,50
1,50,100,48
1,43,100,52
1,55,100,48
1,43,100,50
1,55,100,48
1,43,100,50
1,55,100,48
1,43,100,50
1,55,100,52
1,36,100,52
1,48,100,48
1,36,100,50
1,48,100,48
1,36,100,50
1,48,100,48
1,36,100,52
1,48,100,52
1,45,100,52
1,57,100,50
1,45,100,50
1,57,100,48
1,45,100,50
1,57,100,50
1,45,100,50
1,57,100,48
1,47,100,50
1,59,100,48
1,47,100,50
1,59,100,48
1,47,100,50
1,59,100,48
1,47,100,50
1,59,100,48
1,40,100,50
1,52,100,48
1,40,100,52
1,52,100,50
1,40,100,50
1,52,100,50
1,40,100,50
1,52,100,48
1,38,100,52
1,50,100,48
1,38,100,50
1,50,100,48
1,38,100,50
1,50,100,48
1,38,100,52
1,50,100,50
1,43,100,52
1,55,100,48
1,43,100,50
1,55,100,48
1,43,100,50
1,55,100,48
1,43,100,50
1,55,100,48
1,42,100,50
1,54,100,48
1,42,100,50
1,54,100,48
1,42,100,50
1,54,100,48
1,42,100,50
1,54,100,48
1,40,100,50
1,52,100,48
1,40,100,50
1,52,100,50
1,40,100,50
1,52,100,48
1,40,100,50
1,52,100,48
1,40,100,50
1,52,100,48
1,40,100,50
1,52,100,48
1,40,100,52
1,52,100,50
1,40,100,50
1,52,100,48
1,45,100,52
1,57,100,48
1,45,100,50
1,57,100,48
1,45,100,50
1,57,100,48
1,45,100,50
1,57,100,50
1,38,100,52
1,50,100,48
1,38,100,50
1,50,100,48
1,38,100,50
1,50,100,48
1,38,100,50
1,50,100,52
1,43,100,52
1,55,100,50
1,43,100,50
1,55,100,48
1,43,100,50
1,55,100,48
1,43,100,50
1,55,100,48
1,36,100,50
1,48,100,48
1,36,100,50
1,48,100,50
1,36,100,52
1,48,100,48
1,36,100,50
1,48,100,48
1,45,100,52
1,57,100,48
1,45,100,50
1,57,100,48
1,45,100,50
1,57,100,52
1,45,100,50
1,57,100,50
1,47,100,52
1,59,100,48
1,47,100,50
1,59,100,48
1,47,100,50
1,59,100,52
1,47,100,52
1,59,100,50
1,40,100,52
1,52,100,48
1,40,100,50
1,52,100,48
1,40,100,50
1,52,100,48
1,40,100,50
1,52,100,48
1,38,100,50
1,50,100,50
1,38,100,50
1,50,100,50
1,38,100,50
1,50,100,48
1,38,100,50
1,50,100,48
1,40,100,50
1,52,100,48
1,40,100,50
1,52,100,52
1,40,100,52
1,52,100,52
1,40,100,50
1,52,100,50
1,43,100,52
1,55,100,48
1,43,100,50
1,55,100,48
1,38,100,50
1,50,100,48
1,38,100,50
1,50,100,52
1,40,100,52
1,52,100,48
1,40,100,50
1,52,100,48
1,40,100,52
1,52,100,50
1,40,100,52
1,52,100,54
1,43,100,52
1,55,100,52
1,43,100,50
1,55,100,46
1,38,100,52
1,50,100,52
1,38,100,50
1,50,100,48
1,36,100,50
1,48,100,52
1,36,100,50
1,48,100,50
1,36,100,50
1,48,100,48
1,36,100,50
1,48,100,48
1,43,100,50
1,55,100,48
1,43,100,50
1,55,100,52
1,43,100,52
1,55,100,50
1,43,100,50
1,55,100,48
1,47,100,52
1,59,100,52
1,47,100,50
1,59,100,48
1,47,100,50
1,59,100,50
1,47,100,50
1,59,100,52
1,38,100,52
1,50,100,48
1,38,100,50
1,50,100,48
1,38,100,50
1,50,100,48
1,38,100,50
1,50,100,52
1,45,100,52
1,57,100,52
1,45,100,50
1,57,100,48
1,45,100,50
1,57,100,48
1,45,100,50
1,57,100,48
1,40,100,50
1,52,100,52
1,40,100,50
1,52,100,48
1,40,100,52
1,52,100,48
1,40,100,50
1,52,100,48
1,43,100,52
1,55,100,48
1,43,100,50
1,55,100,48
1,45,100,52
1,57,100,50
1,45,100,50
1,57,100,48
1,47,100,52
1,59,100,48
1,47,100,50
1,59,100,48
1,47,100,50
1,59,100,52
1,47,100,52
1,59,100,50
1,40,100,52
1,52,100,48
1,40,100,50
1,52,100,48
1,38,100,52
1,50,100,48
1,38,100,50
1,50,100,50
1,43,100,52
1,55,100,50
1,43,100,50
1,55,100,48
1,43,100,50
1,55,100,48
1,43,100,50
1,55,100,48
1,42,100,50
1,54,100,52
1,42,100,52
1,54,100,52
1,42,100,50
1,54,100,48
1,42,100,50
1,54,100,48
1,40,100,50
1,52,100,48
1,40,100,50
1,52,100,50
1,40,100,50
1,52,100,50
1,40,100,50
1,52,100,48
1,40,100,50
1,52,100,48
1,40,100,50
1,52,100,48
1,40,100,50
1,52,100,52
1,40,100,50
1,52,100,50
1,45,100,52
1,57,100,50
1,45,100,54
1,57,100,48
1,45,100,50
1,57,100,48
1,45,100,50
1,57,100,52
1,38,100,52
1,50,100,50
1,38,100,52
1,50,100,50
1,38,100,50
1,50,100,48
1,38,100,50
1,50,100,48
1,43,100,50
1,55,100,48
1,43,100,50
1,55,100,50
1,43,100,50
1,55,100,52
1,43,100,50
1,55,100,48
1,36,100,50
1,48,100,48
1,36,100,50
1,48,100,48
1,36,100,50
1,48,100,50
1,36,100,50
1,48,100,50
1,45,100,52
1,57,100,48
1,45,100,50
1,57,100,48
1,45,100,50
1,57,100,48
1,45,100,50
1,57,100,52
1,47,100,52
1,59,100,52
1,47,100,50
1,59,100,48
1,47,100,50
1,59,100,48
1,47,100,50
1,59,100,48
1,40,100,52
1,52,100,50
1,40,100,50
1,52,100,50
1,40,100,50
1,52,100,48
1,40,100,50
1,52,100,48
1,38,100,50
1,50,100,48
1,38,100,50
1,50,100,52
1,38,100,52
1,50,100,52
1,38,100,50
1,50,100,48
1,43,100,52
1,55,100,48
1,43,100,50
1,55,100,52
1,43,100,52
1,55,100,52
1,43,100,52
1,55,100,52
1,42,100,52
1,54,100,48
1,42,100,50
1,54,100,48
1,42,100,50
1,54,100,52
1,42,100,52
1,54,100,52
1,40,100,52
1,52,100,52
1,40,100,50
1,52,100,48
1,40,100,50
1,52,100,52
1,40,100,50
1,52,100,48
1,40,100,50
1,52,100,48
1,40,100,50
1,52,100,48
1,40,100,50
1,52,100,48
1,40,100,50
1,52,100,48
1,45,100,52
1,57,100,48
1,45,100,52
1,57,100,52
1,45,100,52
1,57,100,50
1,45,100,52
1,57,100,48
1,38,100,52
1,50,100,48
1,38,100,50
1,50,100,48
1,38,100,50
1,50,100,48
1,38,100,50
1,50,100,48
1,43,100,52
1,55,100,48
1,43,100,50
1,55,100,48
1,43,100,50
1,55,100,48
1,43,100,50
1,55,100,48
1,36,100,50
1,48,100,52
1,36,100,52
1,48,100,48
1,36,100,52
1,48,100,48
1,36,100,50
1,48,100,48
1,45,100,50
1,57,100,48
1,45,100,50
1,57,100,50
1,45,100,50
1,57,100,48
1,45,100,50
1,57,100,48
1,47,100,52
1,59,100,48
1,47,100,50
1,59,100,48
1,47,100,52
1,59,100,50
1,47,100,50
1,59,100,48
1,40,100,52
1,52,100,48
1,40,100,50
1,52,100,48
1,40,100,52
1,52,100,48
1,40,100,50
1,52,100,50
1,38,100,52
1,50,100,48
1,38,100,50
1,50,100,48
1,38,100,50
1,50,100,48
1,38,100,50
1,50,100,52
1,40,100,52
1,52,100,52
1,40,100,50
1,52,100,48
1,40,100,52
1,52,100,50
1,40,100,50
1,52,100,50
1,43,100,52
1,55,100,48
1,43,100,52
1,55,100,48
1,38,100,52
1,50,100,48
1,38,100,50
1,50,100,48
1,40,100,50
1,52,100,48
1,40,100,50
1,52,100,48
1,40,100,52
1,52,100,52
1,40,100,48
1,52,100,50
1,43,100,52
1,55,100,48
1,43,100,50
1,55,100,48
1,38,100,50
1,50,100,48
1,38,100,52
1,50,100,52
1,36,100,52
1,48,100,48
1,36,100,50
1,48,100,48
1,36,100,50
1,48,100,48
1,36,100,50
1,48,100,48
1,43,100,50
1,55,100,48
1,43,100,50
1,55,100,46
1,43,100,50
1,55,100,48
1,43,100,50
1,55,100,48
1,47,100,52
1,59,100,52
1,47,100,52
1,59,100,50
1,47,100,50
1,59,100,50
1,47,100,50
1,59,100,48
1,38,100,52
1,50,100,48
1,38,100,50
1,50,100,48
1,38,100,50
1,50,100,52
1,38,100,50
1,50,100,52
1,45,100,52
1,57,100,48
1,45,100,52
1,57,100,48
1,45,100,50
1,57,100,48
1,45,100,50
1,57,100,52
1,40,100,52
1,52,100,52
1,40,100,48
1,52,100,48
1,40,100,50
1,52,100,48
1,40,100,50
1,52,100,48
1,43,100,52
1,55,100,50
1,43,100,52
1,55,100,48
1,45,100,52
1,57,100,48
1,45,100,50
1,57,100,48
1,47,100,52
1,59,100,48
1,47,100,50
1,59,100,50
1,47,100,52
1,59,100,52
1,47,100,50
1,59,100,48
1,40,100,52
1,52,100,48
1,40,100,50
1,52,100,52
1,38,100,54
1,50,100,50
1,38,100,52
1,50,100,50
1,40,100,52
1,52,100,48
1,40,100,50
1,52,100,48
1,40,100,50
1,52,100,48
1,40,100,50
1,52,100,50
1,36,100,52
1,48,100,50
1,36,100,50
1,48,100,48
1,36,100,50
1,48,100,48
1,36,100,50
1,48,100,48
1,45,100,50
1,57,100,48
1,45,100,50
1,57,100,50
1,45,100,50
1,57,100,48
1,45,100,50
1,57,100,48
1,38,100,52
1,50,100,48
1,38,100,50
1,50,100,50
1,38,100,52
1,50,100,50
1,38,100,50
1,50,100,48
1,40,100,52
1,52,100,48
1,40,100,50
1,52,100,48
1,40,100,50
1,52,100,48
1,40,100,50
1,52,100,48
1,36,100,52
1,48,100,48
1,36,100,50
1,48,100,48
1,36,100,50
1,48,100,48
1,36,100,50
1,48,100,50
1,38,100,52
1,50,100,50
1,38,100,50
1,50,100,48
1,38,100,50
1,50,100,48
1,38,100,50
1,50,100,48
1,38,100,50
1,50,100,48
1,38,100,50
1,50,100,50
1,38,100,50
1,50,100,48
1,38,100,50
1,50,100,48
1,43,100,52
1,55,100,48
1,43,100,52
1,55,100,48
1,43,100,52
1,55,100,52
1,43,100,48
1,55,100,48
1,42,100,52
1,54,100,48
1,42,100,50
1,54,100,48
1,42,100,52
1,54,100,52
1,42,100,50
1,54,100,52
1,40,100,52
1,52,100,48
1,40,100,50
1,52,100,48
1,40,100,50
1,52,100,48
1,40,100,50
1,52,100,48
1,40,100,52
1,52,100,52
1,40,100,52
1,52,100,50
1,40,100,52
1,52,100,48
1,40,100,50
1,52,100,48
1,45,100,52
1,57,100,52
1,45,100,50
1,57,100,50
1,45,100,52
1,57,100,48
1,45,100,50
1,57,100,48
1,38,100,52
1,50,100,48
1,38,100,50
1,50,100,52
1,38,100,52
1,50,100,50
1,38,100,52
1,50,100,48
1,43,100,52
1,55,100,48
1,43,100,50
1,55,100,48
1,43,100,50
1,55,100,52
1,43,100,52
1,55,100,52
1,36,100,52
1,48,100,52
1,36,100,50
1,48,100,48
1,36,100,50
1,48,100,48
1,36,100,50
1,48,100,48
1,45,100,50
1,57,100,48
1,45,100,50
1,57,100,46
1,45,100,50
1,57,100,48
1,45,100,50
1,57,100,48
1,47,100,52
1,59,100,52
1,47,100,52
1,59,100,50
1,47,100,52
1,59,100,50
1,47,100,50
1,59,100,48
1,40,100,52
1,52,100,48
1,40,100,50
1,52,100,48
1,40,100,52
1,52,100,52
1,40,100,52
1,52,100,54
1,38,100,52
1,50,100,48
1,38,100,50
1,50,100,48
1,38,100,50
1,50,100,50
1,38,100,52
1,50,100,50
1,40,100,52
1,52,100,52
1,40,100,50
1,52,100,48
1,40,100,52
1,52,100,50
1,40,100,50
1,52,100,50
1,43,100,52
1,55,100,48
1,43,100,52
1,55,100,50
1,38,100,52
1,50,100,50
1,38,100,50
1,50,100,48
1,40,100,52
1,52,100,48
1,40,100,52
1,52,100,50
1,40,100,52
1,52,100,52
1,40,100,50
1,52,100,50
1,43,100,52
1,55,100,48
1,43,100,50
1,55,100,48
1,38,100,52
1,50,100,52
1,38,100,50
1,50,100,52
1,36,100,52
1,48,100,48
1,36,100,50
1,48,100,48
1,36,100,50
1,48,100,52
1,36,100,48
1,48,100,52
1,43,100,52
1,55,100,50
1,43,100,50
1,55,100,48
1,43,100,50
1,55,100,48
1,43,100,50
1,55,100,48
1,47,100,52
1,59,100,50
1,47,100,52
1,59,100,50
1,47,100,52
1,59,100,48
1,47,100,50
1,59,100,48
1,38,100,50
1,50,100,48
1,38,100,50
1,50,100,52
1,38,100,52
1,50,100,50
1,38,100,50
1,50,100,52
1,45,100,52
1,57,100,48
1,45,100,50
1,57,100,48
1,45,100,50
1,57,100,48
1,45,100,50
1,57,100,52
1,40,100,50
1,52,100,48
1,40,100,50
1,52,100,48
1,40,100,50
1,52,100,48
1,40,100,50
1,52,100,52
1,43,100,52
1,55,100,52
1,43,100,50
1,55,100,48
1,45,100,52
1,57,100,48
1,45,100,50
1,57,100,48
1,47,100,50
1,59,100,52
1,47,100,52
1,59,100,50
1,47,100,52
1,59,100,48
1,47,100,50
1,59,100,48
1,40,100,52
1,52,100,48
1,40,100,52
1,52,100,52
1,38,100,52
1,50,100,50
1,38,100,50
1,50,100,48
1,40,100,52
2,62,65,1540
2,67,65,0
2,55,65,2
2,71,65,0
2,79,65,0
2,54,65,16
2,66,65,2
2,69,65,0
2,78,65,2
2,64,65,238
2,52,65,2
2,67,65,0
2,79,65,0
2,57,65,28
2,45,65,2
2,69,65,0
2,72,65,0
2,81,65,0
2,66,65,14
2,50,65,2
2,62,65,0
2,74,65,2
2,55,65,14
2,71,65,0
2,67,65,2
2,79,65,0
2,48,65,14
2,60,65,2
2,64,65,0
2,72,65,0
2,59,65,16
2,71,65,0
2,45,65,194
2,57,65,0
2,69,65,2
2,71,65,30
2,47,65,2
2,66,65,0
2,54,65,2
2,59,65,0
2,63,65,0
2,52,65,14
2,64,65,2
2,67,65,0
2,86,68,384
2,74,68,2
2,95,68,14
2,83,68,2
2,93,68,382
2,81,68,2
2,83,68,176
2,95,68,0
2,62,65,172
2,67,65,6
2,71,65,0
2,55,65,4
2,54,65,20
2,69,65,0
2,66,65,4
2,74,68,148
2,86,68,0
2,95,68,190
2,83,68,2
2,81,68,380
2,93,68,0
2,93,68,62
2,81,68,0
2,52,65,204
2,71,65,4
2,64,65,2
2,67,65,4
2,83,68,150
2,95,68,0
2,79,68,16
2,91,68,0
2,91,68,256
2,79,68,2
2,95,68,20
2,83,68,2
2,86,68,384
2,98,68,0
2,86,68,22
2,98,68,0
2,57,65,10
2,69,65,4
2,72,65,2
2,96,68,362
2,84,68,0
2,96,68,78
2,84,68,2
2,83,68,384
2,95,68,0
2,93,68,356
2,81,68,2
2,50,65,162
2,62,65,6
2,66,65,0
2,90,68,96
2,78,68,2
2,93,68,16
2,81,68,2
2,84,68,2
2,96,68,0
2,84,68,98
2,96,68,0
2,55,65,12
2,71,65,4
2,67,65,2
2,95,68,2
2,83,68,2
2,83,68,80
2,95,68,0
2,81,68,384
2,93,68,0
2,91,68,334
2,79,68,2
2,48,65,162
2,64,65,4
2,60,65,2
2,88,68,16
2,76,68,2
2,90,68,18
2,78,68,2
2,79,68,2
2,91,68,0
2,57,65,154
2,45,65,4
2,69,65,2
2,81,68,14
2,93,68,0
2,78,68,18
2,90,68,0
2,54,65,188
2,47,65,4
2,66,65,0
2,59,65,4
2,63,65,0
2,83,68,48
2,71,68,2
2,91,68,18
2,79,68,2
2,90,68,382
2,78,68,2
