track,note,velocity,time
1,55,100,959
1,55,0,60
1,58,100,0
1,58,0,60
1,62,100,0
1,62,0,60
1,67,100,0
1,67,0,60
1,58,100,0
1,58,0,60
1,62,100,0
1,62,0,60
1,67,100,0
1,67,0,60
1,70,100,0
1,70,0,60
1,62,100,0
1,62,0,60
1,67,100,0
1,67,0,60
1,70,100,0
1,70,0,60
1,74,100,6
1,67,100,54
1,74,0,6
1,67,0,54
1,70,100,0
1,70,0,60
1,74,100,0
1,74,0,60
1,79,100,0
1,79,0,60
1,75,100,0
1,75,0,120
1,72,100,0
1,72,0,120
1,77,100,0
1,77,0,120
1,74,100,0
1,74,0,120
1,75,100,0
1,75,0,120
1,72,100,0
1,72,0,60
1,67,100,0
1,67,0,180
1,72,100,0
1,72,0,60
1,74,100,0
1,74,0,60
1,75,100,0
1,75,0,120
1,72,100,0
1,72,0,120
1,77,100,0
1,77,0,120
1,74,100,0
1,74,0,120
1,79,100,0
1,79,0,120
1,77,100,0
1,77,0,60
1,75,100,0
1,75,0,180
1,72,100,0
1,72,0,60
1,74,100,0
1,74,0,60
1,75,100,0
1,75,0,120
1,72,100,0
1,72,0,120
1,77,100,0
1,77,0,120
1,74,100,0
1,74,0,120
1,75,100,0
1,75,0,120
1,72,100,0
1,72,0,60
1,67,100,0
1,67,0,180
1,72,100,0
1,72,0,60
1,74,100,0
1,74,0,60
1,75,100,0
1,75,0,120
1,72,100,0
1,72,0,120
1,74,100,0
1,74,0,120
1,70,100,0
1,70,0,60
1,72,100,0
1,72,0,180
1,70,100,0
1,70,0,60
1,72,100,0
1,72,0,120
1,70,100,0
1,70,0,60
1,72,100,0
1,72,0,60
1,74,100,0
1,74,0,60
1,55,100,16800
1,55,0,60
1,58,100,0
1,58,0,60
1,62,100,0
1,62,0,60
1,67,100,0
1,67,0,60
1,58,100,0
1,58,0,60
1,62,100,0
1,62,0,60
1,67,100,0
1,67,0,60
1,70,100,0
1,70,0,60
1,62,100,0
1,62,0,60
1,67,100,0
1,67,0,60
1,70,100,0
1,70,0,60
1,74,100,6
1,67,100,54
1,74,0,6
1,67,0,54
1,70,100,0
1,70,0,60
1,74,100,0
1,74,0,60
1,79,100,0
1,79,0,60
1,75,100,0
1,75,0,120
1,72,100,0
1,72,0,120
1,77,100,0
1,77,0,120
1,74,100,0
1,74,0,120
1,75,100,0
1,75,0,120
1,72,100,0
1,72,0,60
1,67,100,0
1,67,0,180
1,72,100,0
1,72,0,60
1,74,100,0
1,74,0,60
1,75,100,0
1,75,0,120
1,72,100,0
1,72,0,120
1,77,100,0
1,77,0,120
1,74,100,0
1,74,0,120
1,79,100,0
1,79,0,120
1,77,100,0
1,77,0,60
1,75,100,0
1,75,0,180
1,72,100,0
1,72,0,60
1,74,100,0
1,74,0,60
1,75,100,0
1,75,0,120
1,72,100,0
1,72,0,120
1,77,100,0
1,77,0,120
1,74,100,0
1,74,0,120
1,75,100,0
1,75,0,120
1,72,100,0
1,72,0,60
1,67,100,0
1,67,0,180
1,72,100,0
1,72,0,60
1,74,100,0
1,74,0,60
1,75,100,0
1,75,0,120
1,72,100,0
1,72,0,120
1,74,100,0
1,74,0,120
1,70,100,0
1,70,0,60
1,72,100,0
1,72,0,180
1,70,100,0
1,70,0,60
1,72,100,0
1,72,0,120
1,70,100,0
1,70,0,60
1,72,100,0
1,72,0,60
1,74,100,0
1,74,0,60
1,75,100,0
1,75,0,120
1,72,100,0
1,72,0,120
1,77,100,0
1,77,0,120
1,74,100,0
1,74,0,120
1,75,100,0
1,75,0,120
1,72,100,0
1,72,0,60
1,67,100,0
1,67,0,180
1,72,100,0
1,72,0,60
1,74,100,0
1,74,0,60
1,75,100,0
1,75,0,120
1,72,100,0
1,72,0,120
1,77,100,0
1,77,0,120
1,74,100,0
1,74,0,120
1,79,100,0
1,79,0,120
1,77,100,0
1,77,0,60
1,75,100,0
1,75,0,180
1,72,100,0
1,72,0,60
1,74,100,0
1,74,0,60
1,75,100,0
1,75,0,120
1,72,100,0
1,72,0,120
1,77,100,0
1,77,0,120
1,74,100,0
1,74,0,120
1,75,100,0
1,75,0,120
1,72,100,0
1,72,0,60
1,67,100,0
1,67,0,180
1,72,100,0
1,72,0,60
1,74,100,0
1,74,0,60
1,75,100,0
1,75,0,120
1,72,100,0
1,72,0,120
1,74,100,0
1,74,0,120
1,70,100,0
1,70,0,60
1,72,100,0
1,72,0,180
1,72,100,0
1,72,0,60
1,67,100,0
1,67,0,120
1,55,100,11220
1,55,0,60
1,58,100,0
1,58,0,60
1,62,100,0
1,62,0,60
1,67,100,0
1,67,0,60
1,58,100,0
1,58,0,60
1,62,100,0
1,62,0,60
1,67,100,0
1,67,0,60
1,70,100,0
1,70,0,60
1,62,100,0
1,62,0,60
1,67,100,0
1,67,0,60
1,70,100,0
1,70,0,60
1,74,100,6
1,67,100,54
1,74,0,6
1,67,0,54
1,70,100,0
1,70,0,60
1,74,100,0
1,74,0,60
1,79,100,0
1,79,0,60
1,75,100,0
1,75,0,120
1,72,100,0
1,72,0,120
1,77,100,0
1,77,0,120
1,74,100,0
1,74,0,120
1,75,100,0
1,75,0,120
1,72,100,0
1,72,0,60
1,67,100,0
1,67,0,180
1,72,100,0
1,72,0,60
1,74,100,0
1,74,0,60
1,75,100,0
1,75,0,120
1,72,100,0
1,72,0,120
1,77,100,0
1,77,0,120
1,74,100,0
1,74,0,120
1,79,100,0
1,79,0,120
1,77,100,0
1,77,0,60
1,75,100,0
1,75,0,180
1,72,100,0
1,72,0,60
1,74,100,0
1,74,0,60
1,75,100,0
1,75,0,120
1,72,100,0
1,72,0,120
1,77,100,0
1,77,0,120
1,74,100,0
1,74,0,120
1,75,100,0
1,75,0,120
1,72,100,0
1,72,0,60
1,67,100,0
1,67,0,180
1,72,100,0
1,72,0,60
1,74,100,0
1,74,0,60
1,75,100,0
1,75,0,120
1,72,100,0
1,72,0,120
1,74,100,0
1,74,0,120
1,70,100,0
1,70,0,60
1,72,100,0
1,72,0,180
1,70,100,0
1,70,0,60
1,72,100,0
1,72,0,120
1,70,100,0
1,70,0,60
1,72,100,0
1,72,0,60
1,74,100,0
1,74,0,60
1,75,100,0
1,75,0,120
1,72,100,0
1,72,0,120
1,77,100,0
1,77,0,120
1,74,100,0
1,74,0,120
1,75,100,0
1,75,0,120
1,72,100,0
1,72,0,60
1,67,100,0
1,67,0,180
1,72,100,0
1,72,0,60
1,74,100,0
1,74,0,60
1,75,100,0
1,75,0,120
1,72,100,0
1,72,0,120
1,77,100,0
1,77,0,120
1,74,100,0
1,74,0,120
1,79,100,0
1,79,0,120
1,77,100,0
1,77,0,60
1,75,100,0
1,75,0,180
1,72,100,0
1,72,0,60
1,74,100,0
1,74,0,60
1,75,100,0
1,75,0,120
1,72,100,0
1,72,0,120
1,77,100,0
1,77,0,120
1,74,100,0
1,74,0,120
1,75,100,0
1,75,0,120
1,72,100,0
1,72,0,60
1,67,100,0
1,67,0,180
1,72,100,0
1,72,0,60
1,74,100,0
1,74,0,60
1,75,100,0
1,75,0,120
1,72,100,0
1,72,0,120
1,74,100,0
1,74,0,120
1,70,100,0
1,70,0,60
1,72,100,0
1,72,0,180
1,72,100,0
1,72,0,60
1,67,100,0
1,67,0,120
1,55,100,7380
1,55,0,60
1,58,100,0
1,58,0,60
1,62,100,0
1,62,0,60
1,67,100,0
1,67,0,60
1,58,100,0
1,58,0,60
1,62,100,0
1,62,0,60
1,67,100,0
1,67,0,60
1,70,100,0
1,70,0,60
1,62,100,0
1,62,0,60
1,67,100,0
1,67,0,60
1,70,100,0
1,70,0,60
1,74,100,6
1,67,100,54
1,74,0,6
1,67,0,54
1,70,100,0
1,70,0,60
1,74,100,0
1,74,0,60
1,79,100,0
1,79,0,60
1,75,100,0
1,75,0,120
1,72,100,0
1,72,0,120
1,77,100,0
1,77,0,120
1,74,100,0
1,74,0,120
1,75,100,0
1,75,0,120
1,72,100,0
1,72,0,60
1,67,100,0
1,67,0,180
1,72,100,0
1,72,0,60
1,74,100,0
1,74,0,60
1,75,100,0
1,75,0,120
1,72,100,0
1,72,0,120
1,77,100,0
1,77,0,120
1,74,100,0
1,74,0,120
1,79,100,0
1,79,0,120
1,77,100,0
1,77,0,60
1,75,100,0
1,75,0,180
1,72,100,0
1,72,0,60
1,74,100,0
1,74,0,60
1,75,100,0
1,75,0,120
1,72,100,0
1,72,0,120
1,77,100,0
1,77,0,120
1,74,100,0
1,74,0,120
1,75,100,0
1,75,0,120
1,72,100,0
1,72,0,60
1,67,100,0
1,67,0,180
1,72,100,0
1,72,0,60
1,74,100,0
1,74,0,60
1,75,100,0
1,75,0,120
1,72,100,0
1,72,0,120
1,74,100,0
1,74,0,120
1,70,100,0
1,70,0,60
1,72,100,0
1,72,0,180
1,70,100,0
1,70,0,60
1,72,100,0
1,72,0,120
1,70,100,0
1,70,0,60
1,72,100,0
1,72,0,60
1,74,100,0
1,74,0,60
1,75,100,0
1,75,0,120
1,72,100,0
1,72,0,120
1,77,100,0
1,77,0,120
1,74,100,0
1,74,0,120
1,75,100,0
1,75,0,120
1,72,100,0
1,72,0,60
1,67,100,0
1,67,0,180
1,72,100,0
1,72,0,60
1,74,100,0
1,74,0,60
1,75,100,0
1,75,0,120
1,72,100,0
1,72,0,120
1,77,100,0
1,77,0,120
1,74,100,0
1,74,0,120
1,79,100,0
1,79,0,120
1,77,100,0
1,77,0,60
1,75,100,0
1,75,0,180
1,72,100,0
1,72,0,60
1,74,100,0
1,74,0,60
1,75,100,0
1,75,0,120
1,72,100,0
1,72,0,120
1,77,100,0
1,77,0,120
1,74,100,0
1,74,0,120
1,75,100,0
1,75,0,120
1,72,100,0
1,72,0,60
1,67,100,0
1,67,0,180
1,72,100,0
1,72,0,60
1,74,100,0
1,74,0,60
1,75,100,0
1,75,0,120
1,72,100,0
1,72,0,120
1,74,100,0
1,74,0,120
1,70,100,0
1,70,0,60
1,72,100,0
1,72,0,180
1,72,100,0
1,72,0,60
1,67,100,0
1,67,0,120
2,60,100,5639
2,60,0,60
2,62,100,0
2,62,0,60
2,63,100,0
2,63,0,120
2,60,100,0
2,60,0,120
2,65,100,0
2,65,0,120
2,62,100,0
2,62,0,120
2,63,100,0
2,63,0,120
2,60,100,0
2,60,0,60
2,55,100,0
2,55,0,180
2,60,100,0
2,60,0,60
2,62,100,0
2,62,0,60
2,63,100,0
2,63,0,120
2,60,100,0
2,60,0,120
2,65,100,0
2,65,0,120
2,62,100,0
2,62,0,120
2,67,100,0
2,67,0,120
2,65,100,0
2,65,0,60
2,63,100,0
2,63,0,180
2,60,100,0
2,60,0,60
2,62,100,0
2,62,0,60
2,63,100,0
2,63,0,120
2,60,100,0
2,60,0,120
2,65,100,0
2,65,0,120
2,62,100,0
2,62,0,120
2,63,100,0
2,63,0,120
2,60,100,0
2,60,0,60
2,55,100,0
2,55,0,180
2,60,100,0
2,60,0,60
2,62,100,0
2,62,0,60
2,63,100,0
2,63,0,120
2,60,100,0
2,60,0,120
2,62,100,0
2,62,0,120
2,58,100,0
2,58,0,60
2,60,100,0
2,60,0,180
2,58,100,0
2,58,0,60
2,60,100,0
2,60,0,120
2,58,100,0
2,58,0,60
2,60,100,0
2,60,0,60
2,62,100,0
2,62,0,60
2,63,100,0
2,63,0,120
2,60,100,0
2,60,0,120
2,65,100,0
2,65,0,120
2,62,100,0
2,62,0,120
2,63,100,0
2,63,0,120
2,60,100,0
2,60,0,60
2,55,100,0
2,55,0,180
2,60,100,0
2,60,0,60
2,62,100,0
2,62,0,60
2,63,100,0
2,63,0,120
2,60,100,0
2,60,0,120
2,65,100,0
2,65,0,120
2,62,100,0
2,62,0,120
2,67,100,0
2,67,0,120
2,65,100,0
2,65,0,60
2,63,100,0
2,63,0,180
2,60,100,0
2,60,0,60
2,62,100,0
2,62,0,60
2,63,100,0
2,63,0,120
2,60,100,0
2,60,0,120
2,65,100,0
2,65,0,120
2,62,100,0
2,62,0,120
2,63,100,0
2,63,0,120
2,60,100,0
2,60,0,60
2,55,100,0
2,55,0,180
2,60,100,0
2,60,0,60
2,62,100,0
2,62,0,60
2,63,100,0
2,63,0,120
2,60,100,0
2,60,0,120
2,62,100,0
2,62,0,120
2,58,100,0
2,58,0,60
2,60,100,0
2,60,0,180
2,58,100,0
2,58,0,60
2,60,100,0
2,60,0,120
2,60,100,17820
2,60,0,60
2,62,100,0
2,62,0,60
2,63,100,0
2,63,0,120
2,60,100,0
2,60,0,120
2,65,100,0
2,65,0,120
2,62,100,0
2,62,0,120
2,63,100,0
2,63,0,120
2,60,100,0
2,60,0,60
2,55,100,0
2,55,0,180
2,60,100,0
2,60,0,60
2,62,100,0
2,62,0,60
2,63,100,0
2,63,0,120
2,60,100,0
2,60,0,120
2,65,100,0
2,65,0,120
2,62,100,0
2,62,0,120
2,67,100,0
2,67,0,120
2,65,100,0
2,65,0,60
2,63,100,0
2,63,0,180
2,60,100,0
2,60,0,60
2,62,100,0
2,62,0,60
2,63,100,0
2,63,0,120
2,60,100,0
2,60,0,120
2,65,100,0
2,65,0,120
2,62,100,0
2,62,0,120
2,63,100,0
2,63,0,120
2,60,100,0
2,60,0,60
2,55,100,0
2,55,0,180
2,60,100,0
2,60,0,60
2,62,100,0
2,62,0,60
2,63,100,0
2,63,0,120
2,60,100,0
2,60,0,120
2,62,100,0
2,62,0,120
2,58,100,0
2,58,0,60
2,60,100,0
2,60,0,180
2,58,100,0
2,58,0,60
2,60,100,0
2,60,0,120
2,60,100,15900
2,60,0,60
2,62,100,0
2,62,0,60
2,63,100,0
2,63,0,120
2,60,100,0
2,60,0,120
2,65,100,0
2,65,0,120
2,62,100,0
2,62,0,120
2,63,100,0
2,63,0,120
2,60,100,0
2,60,0,60
2,55,100,0
2,55,0,180
2,60,100,0
2,60,0,60
2,62,100,0
2,62,0,60
2,63,100,0
2,63,0,120
2,60,100,0
2,60,0,120
2,65,100,0
2,65,0,120
2,62,100,0
2,62,0,120
2,67,100,0
2,67,0,120
2,65,100,0
2,65,0,60
2,63,100,0
2,63,0,180
2,60,100,0
2,60,0,60
2,62,100,0
2,62,0,60
2,63,100,0
2,63,0,120
2,60,100,0
2,60,0,120
2,65,100,0
2,65,0,120
2,62,100,0
2,62,0,120
2,63,100,0
2,63,0,120
2,60,100,0
2,60,0,60
2,55,100,0
2,55,0,180
2,60,100,0
2,60,0,60
2,62,100,0
2,62,0,60
2,63,100,0
2,63,0,120
2,60,100,0
2,60,0,120
2,62,100,0
2,62,0,120
2,58,100,0
2,58,0,60
2,60,100,0
2,60,0,180
2,58,100,0
2,58,0,60
2,60,100,0
2,60,0,120
2,60,100,12060
2,60,0,60
2,62,100,0
2,62,0,60
2,63,100,0
2,63,0,120
2,60,100,0
2,60,0,120
2,65,100,0
2,65,0,120
2,62,100,0
2,62,0,120
2,63,100,0
2,63,0,120
2,60,100,0
2,60,0,60
2,55,100,0
2,55,0,180
2,60,100,0
2,60,0,60
2,62,100,0
2,62,0,60
2,63,100,0
2,63,0,120
2,60,100,0
2,60,0,120
2,65,100,0
2,65,0,120
2,62,100,0
2,62,0,120
2,67,100,0
2,67,0,120
2,65,100,0
2,65,0,60
2,63,100,0
2,63,0,180
2,60,100,0
2,60,0,60
2,62,100,0
2,62,0,60
2,63,100,0
2,63,0,120
2,60,100,0
2,60,0,120
2,65,100,0
2,65,0,120
2,62,100,0
2,62,0,120
2,63,100,0
2,63,0,120
2,60,100,0
2,60,0,60
2,55,100,0
2,55,0,180
2,60,100,0
2,60,0,60
2,62,100,0
2,62,0,60
2,63,100,0
2,63,0,120
2,60,100,0
2,60,0,120
2,62,100,0
2,62,0,120
2,58,100,0
2,58,0,60
2,60,100,0
2,60,0,180
3,60,100,1799
3,60,0,60
3,62,100,0
3,62,0,60
3,63,100,0
3,63,0,120
3,60,100,0
3,60,0,120
3,65,100,0
3,65,0,120
3,62,100,0
3,62,0,120
3,63,100,0
3,63,0,120
