track,note,velocity,time
4,38,127,49580
4,38,0,261
4,38,126,219
4,38,0,279
4,31,123,201
4,31,0,271
4,31,117,209
4,31,0,309
4,33,122,171
4,33,0,278
4,33,123,202
4,33,0,272
4,33,116,208
4,33,0,266
4,33,126,214
4,33,0,269
4,38,117,211
4,38,0,267
4,38,123,213
4,38,0,246
4,31,122,234
4,31,0,250
4,31,122,230
4,31,0,270
4,33,127,210
4,33,0,247
4,33,127,233
4,33,0,263
4,33,122,217
4,33,0,295
4,33,126,185
4,33,0,290
4,30,111,190
4,30,0,262
4,30,126,218
4,30,0,275
4,31,117,205
4,31,0,262
4,31,123,218
4,31,0,246
4,33,116,234
4,33,0,254
4,33,123,226
4,33,0,255
4,33,116,225
4,33,0,249
4,33,116,231
4,33,0,257
4,36,107,223
4,36,0,265
4,36,107,215
4,36,0,264
4,36,116,216
4,36,0,269
4,36,112,211
4,36,0,243
4,35,127,237
4,35,0,270
4,35,123,210
4,35,0,282
4,33,122,198
4,33,0,247
4,33,126,233
4,33,0,249
4,38,127,231
4,38,0,261
4,38,126,219
4,38,0,279
4,31,123,201
4,31,0,271
4,31,117,209
4,31,0,309
4,33,122,171
4,33,0,278
4,33,123,202
4,33,0,272
4,33,116,208
4,33,0,266
4,33,126,214
4,33,0,269
4,38,117,211
4,38,0,267
4,38,123,213
4,38,0,246
4,31,122,234
4,31,0,250
4,31,122,230
4,31,0,270
4,33,127,210
4,33,0,247
4,33,127,233
4,33,0,263
4,33,122,217
4,33,0,295
4,33,126,185
4,33,0,290
4,30,111,190
4,30,0,262
4,30,126,218
4,30,0,275
4,31,117,205
4,31,0,262
4,31,123,218
4,31,0,246
4,33,116,234
4,33,0,254
4,33,123,226
4,33,0,255
4,33,116,225
4,33,0,249
4,33,116,231
4,33,0,257
4,36,107,223
4,36,0,265
4,36,107,215
4,36,0,264
4,36,116,216
4,36,0,269
4,36,112,211
4,36,0,243
4,35,127,237
4,35,0,270
4,35,123,210
4,35,0,282
4,33,122,198
4,33,0,247
4,33,126,233
4,33,0,249
4,38,123,231
4,38,0,260
4,38,118,220
4,38,0,260
4,38,113,220
4,38,0,268
4,38,119,212
4,38,0,265
4,38,112,215
4,38,0,272
4,38,119,208
4,26,112,240
4,38,0,21
4,26,0,99
4,38,112,120
4,26,107,240
4,38,0,12
4,26,0,108
4,38,107,120
4,38,0,240
4,31,122,240
4,31,0,240
4,31,112,240
4,31,0,240
4,31,113,240
4,31,0,240
4,31,113,240
4,31,0,240
4,33,112,240
4,33,0,240
4,33,112,240
4,33,0,240
4,33,113,240
4,33,0,240
4,33,112,240
4,33,0,240
4,35,113,240
4,35,0,240
4,35,113,240
4,35,0,240
4,35,118,240
4,35,0,240
4,31,123,240
4,31,0,240
4,33,118,240
4,33,0,240
4,33,122,240
4,33,0,240
4,30,107,240
4,30,0,240
4,26,119,240
4,26,0,240
4,31,118,240
4,31,0,240
4,31,112,240
4,31,0,240
4,31,119,240
4,31,0,240
4,31,113,240
4,31,0,240
4,33,112,240
4,33,0,240
4,33,112,240
4,33,0,240
4,33,113,240
4,33,0,240
4,33,112,240
4,33,0,240
4,31,119,240
4,31,0,240
4,31,113,240
4,31,0,240
4,31,112,240
4,31,0,240
4,31,119,240
4,31,0,240
4,30,120,240
4,30,0,240
4,30,120,240
4,30,0,240
4,37,121,240
4,37,0,240
4,37,113,240
4,37,0,240
4,38,126,240
4,38,0,261
4,38,126,219
4,38,0,279
4,31,123,201
4,31,0,271
4,31,117,209
4,31,0,309
4,33,122,171
4,33,0,278
4,33,122,202
4,33,0,272
4,33,117,208
4,33,0,266
4,33,126,214
4,33,0,269
4,38,117,211
4,38,0,267
4,38,123,213
4,38,0,246
4,31,122,234
4,31,0,250
4,31,123,230
4,31,0,270
4,33,126,210
4,33,0,247
4,33,126,233
4,33,0,263
4,33,123,217
4,33,0,295
4,33,127,185
4,33,0,290
4,30,110,190
4,30,0,262
4,30,126,218
4,30,0,275
4,31,117,205
4,31,0,262
4,31,123,218
4,31,0,246
4,33,116,234
4,33,0,254
4,33,122,226
4,33,0,255
4,33,117,225
4,33,0,249
4,33,116,231
4,33,0,257
4,36,107,223
4,36,0,265
4,36,107,215
4,36,0,264
4,36,116,216
4,36,0,269
4,36,113,211
4,36,0,243
4,35,126,237
4,35,0,270
4,35,122,210
4,35,0,282
4,33,123,198
4,33,0,247
4,33,127,233
4,33,0,249
4,38,126,231
4,38,0,261
4,38,126,219
4,38,0,279
4,31,123,201
4,31,0,271
4,31,117,209
4,31,0,309
4,33,122,171
4,33,0,278
4,33,122,202
4,33,0,272
4,33,117,208
4,33,0,266
4,33,126,214
4,33,0,269
4,38,117,211
4,38,0,267
4,38,123,213
4,38,0,246
4,31,122,234
4,31,0,250
4,31,123,230
4,31,0,270
4,33,126,210
4,33,0,247
4,33,126,233
4,33,0,263
4,33,123,217
4,33,0,295
4,33,127,185
4,33,0,290
4,30,110,190
4,30,0,262
4,30,126,218
4,30,0,275
4,31,117,205
4,31,0,262
4,31,123,218
4,31,0,246
4,33,116,234
4,33,0,254
4,33,122,226
4,33,0,255
4,33,117,225
4,33,0,249
4,33,116,231
4,33,0,257
4,36,107,223
4,36,0,265
4,36,107,215
4,36,0,264
4,36,116,216
4,36,0,269
4,36,113,211
4,36,0,243
4,35,126,237
4,35,0,270
4,35,122,210
4,35,0,282
4,33,123,198
4,33,0,247
4,33,127,233
4,33,0,249
4,38,126,231
4,38,0,261
4,38,126,219
4,38,0,279
4,31,123,201
4,31,0,271
4,31,117,209
4,31,0,309
4,33,122,171
4,33,0,278
4,33,122,202
4,33,0,272
4,33,117,208
4,33,0,266
4,33,126,214
4,33,0,269
4,38,117,211
4,38,0,267
4,38,123,213
4,38,0,246
4,31,122,234
4,31,0,250
4,31,123,230
4,31,0,270
4,33,126,210
4,33,0,247
4,33,126,233
4,33,0,263
4,33,123,217
4,33,0,295
4,33,127,185
4,33,0,290
4,30,110,190
4,30,0,262
4,30,126,218
4,30,0,275
4,31,117,205
4,31,0,262
4,31,123,218
4,31,0,246
4,33,116,234
4,33,0,254
4,33,122,226
4,33,0,255
4,33,117,225
4,33,0,249
4,33,116,231
4,33,0,257
4,36,107,223
4,36,0,265
4,36,107,215
4,36,0,264
4,36,116,216
4,36,0,269
4,36,113,211
4,36,0,243
4,35,126,237
4,35,0,270
4,35,122,210
4,35,0,282
4,33,123,198
4,33,0,247
4,33,127,233
4,33,0,249
4,38,126,231
4,38,0,261
4,38,126,219
4,38,0,279
4,31,123,201
4,31,0,271
4,31,117,209
4,31,0,309
4,33,122,171
4,33,0,278
4,33,122,202
4,33,0,272
4,33,117,208
4,33,0,266
4,33,126,214
4,33,0,269
4,38,117,211
4,38,0,267
4,38,123,213
4,38,0,246
4,31,122,234
4,31,0,250
4,31,123,230
4,31,0,270
4,33,126,210
4,33,0,247
4,33,126,233
4,33,0,263
4,33,123,217
4,33,0,295
4,33,127,185
4,33,0,290
4,30,110,190
4,30,0,262
4,30,126,218
4,30,0,275
4,31,117,205
4,31,0,262
4,31,123,218
4,31,0,246
4,33,116,234
4,33,0,254
4,33,122,226
4,33,0,255
4,33,117,225
4,33,0,249
4,33,116,231
4,33,0,257
4,36,107,223
4,36,0,265
4,36,107,215
4,36,0,264
4,36,116,216
4,36,0,269
4,36,113,211
4,36,0,243
4,35,126,237
4,35,0,270
4,35,122,210
4,35,0,282
4,33,123,198
4,33,0,247
4,33,127,233
4,31,88,240
4,33,0,9
4,33,88,1911
4,31,0,15
4,33,0,1893
4,35,91,12
4,33,89,1920
4,35,0,36
4,31,88,1884
4,33,0,1
4,33,92,1919
4,31,0,7
4,31,89,1913
4,33,0,26
4,31,0,1841
4,30,82,53
4,30,0,1957
4,31,123,203
4,31,0,240
4,31,113,240
4,31,0,240
4,31,112,240
4,31,0,240
4,31,113,240
4,31,0,240
4,33,112,240
4,33,0,240
4,33,112,240
4,33,0,240
4,33,113,240
4,33,0,240
4,33,113,240
4,33,0,240
4,35,112,240
4,35,0,240
4,35,112,240
4,35,0,240
4,35,119,240
4,35,0,240
4,31,123,240
4,31,0,240
4,33,118,240
4,33,0,240
4,33,122,240
4,33,0,240
4,30,107,240
4,30,0,240
4,26,118,240
4,26,0,240
4,31,119,240
4,31,0,240
4,31,113,240
4,31,0,240
4,31,118,240
4,31,0,240
4,31,113,240
4,31,0,240
4,33,112,240
4,33,0,240
4,33,112,240
4,33,0,240
4,33,113,240
4,33,0,240
4,33,113,240
4,33,0,240
4,31,118,240
4,31,0,240
4,31,112,240
4,31,0,240
4,31,113,240
4,31,0,240
4,31,119,240
4,31,0,240
4,30,120,240
4,30,0,240
4,30,120,240
4,30,0,240
4,37,121,240
4,37,0,240
4,37,112,240
4,37,0,240
4,38,127,240
4,38,0,261
4,38,127,219
4,38,0,279
4,31,122,201
4,31,0,271
4,31,117,209
4,31,0,309
4,33,122,171
4,33,0,278
4,33,122,202
4,33,0,272
4,33,117,208
4,33,0,266
4,33,127,214
4,33,0,269
4,38,116,211
4,38,0,267
4,38,122,213
4,38,0,246
4,31,123,234
4,31,0,250
4,31,123,230
4,31,0,270
4,33,126,210
4,33,0,247
4,33,126,233
4,33,0,263
4,33,123,217
4,33,0,295
4,33,126,185
4,33,0,290
4,30,111,190
4,30,0,262
4,30,127,218
4,30,0,275
4,31,116,205
4,31,0,262
4,31,123,218
4,31,0,246
4,33,116,234
4,33,0,254
4,33,122,226
4,33,0,255
4,33,117,225
4,33,0,249
4,33,117,231
4,33,0,257
4,36,106,223
4,36,0,265
4,36,106,215
4,36,0,264
4,36,117,216
4,36,0,269
4,36,113,211
4,36,0,243
4,35,126,237
4,35,0,270
4,35,122,210
4,35,0,282
4,33,123,198
4,33,0,247
4,33,126,233
4,33,0,249
4,38,127,231
4,38,0,261
4,38,127,219
4,38,0,279
4,31,122,201
4,31,0,271
4,31,117,209
4,31,0,309
4,33,122,171
4,33,0,278
4,33,122,202
4,33,0,272
4,33,117,208
4,33,0,266
4,33,127,214
4,33,0,269
4,38,116,211
4,38,0,267
4,38,122,213
4,38,0,246
4,31,123,234
4,31,0,250
4,31,123,230
4,31,0,270
4,33,126,210
4,33,0,247
4,33,126,233
4,33,0,263
4,33,123,217
4,33,0,295
4,33,126,185
4,33,0,290
4,30,111,190
4,30,0,262
4,30,127,218
4,30,0,275
4,31,116,205
4,31,0,262
4,31,123,218
4,31,0,246
4,33,116,234
4,33,0,254
4,33,122,226
4,33,0,255
4,33,117,225
4,33,0,249
4,33,117,231
4,33,0,257
4,36,106,223
4,36,0,265
4,36,106,215
4,36,0,264
4,36,117,216
4,36,0,269
4,36,113,211
4,36,0,243
4,35,126,237
4,35,0,270
4,35,122,210
4,35,0,282
4,33,123,198
4,33,0,247
4,33,126,233
4,33,0,249
4,38,127,231
4,38,0,261
4,38,127,219
4,38,0,279
4,31,122,201
4,31,0,271
4,31,117,209
4,31,0,309
4,33,122,171
4,33,0,278
4,33,122,202
4,33,0,272
4,33,117,208
4,33,0,266
4,33,127,214
4,33,0,269
4,38,116,211
4,38,0,267
4,38,122,213
4,38,0,246
4,31,123,234
4,31,0,250
4,31,123,230
4,31,0,270
4,33,126,210
4,33,0,247
4,33,126,233
4,33,0,263
4,33,123,217
4,33,0,295
4,33,126,185
4,30,121,240
4,33,0,50
4,31,107,910
4,30,0,2
4,33,126,958
4,31,0,4
4,36,123,1916
4,33,0,5
4,36,0,1894
4,35,118,21
4,35,0,945
4,33,106,15
4,33,0,455
4,37,127,25
4,37,0,457
5,74,105,18570
5,79,104,480
5,74,0,11
5,79,0,454
5,78,105,15
5,78,0,194
5,74,105,46
5,74,0,221
5,79,104,19
5,79,0,205
5,78,105,35
5,78,0,214
5,74,104,266
5,74,0,344
5,79,104,376
5,79,0,302
5,79,105,178
5,79,0,306
5,78,105,174
5,78,0,200
5,74,104,40
5,74,0,227
5,79,104,13
5,79,0,236
5,78,105,4
5,78,0,145
5,78,105,95
5,78,0,220
5,74,104,20
5,74,0,235
5,79,104,5
5,79,0,237
5,78,105,3
5,78,0,291
5,74,104,189
5,74,0,282
5,73,105,438
5,73,0,261
5,73,105,219
5,73,0,265
5,74,104,215
5,74,0,442
5,79,105,38
5,79,0,397
5,78,104,83
5,78,0,217
5,74,104,23
5,74,0,161
5,74,105,79
5,74,0,182
5,73,105,58
5,73,0,285
5,73,104,195
5,73,0,375
5,79,104,345
5,79,0,284
5,78,105,196
5,78,0,299
5,76,105,181
5,76,0,149
5,76,104,91
5,76,0,150
5,76,104,90
5,76,0,121
5,76,105,119
5,76,0,112
5,76,104,128
5,76,0,114
5,76,105,126
5,76,0,124
5,76,105,116
5,76,0,136
5,74,104,104
5,74,0,201
5,74,105,279
5,74,0,202
5,69,104,278
5,73,104,240
5,69,0,24
5,73,0,317
5,73,105,139
5,73,0,223
5,74,105,257
5,79,104,480
5,74,0,11
5,79,0,454
5,78,104,15
5,78,0,194
5,74,105,46
5,74,0,221
5,79,105,19
5,79,0,205
5,78,104,35
5,78,0,214
5,74,104,266
5,74,0,344
5,79,105,376
5,79,0,302
5,79,104,178
5,79,0,306
5,78,105,174
5,78,0,200
5,74,105,40
5,74,0,227
5,79,104,13
5,79,0,236
5,78,105,4
5,78,0,145
5,78,104,95
5,78,0,220
5,74,104,20
5,74,0,235
5,79,105,5
5,79,0,237
5,78,105,3
5,78,0,291
5,74,104,189
5,74,0,282
5,73,104,438
5,73,0,261
5,73,105,219
5,73,0,265
5,74,105,215
5,74,0,442
5,79,104,38
5,79,0,397
5,78,104,83
5,78,0,217
5,74,105,23
5,74,0,161
5,74,104,79
5,74,0,182
5,73,105,58
5,73,0,285
5,73,105,195
5,73,0,375
5,79,104,345
5,79,0,284
5,78,105,196
5,78,0,299
5,76,104,181
5,76,0,149
5,76,104,91
5,76,0,150
5,76,105,90
5,76,0,121
5,76,105,119
5,76,0,112
5,76,104,128
5,76,0,114
5,76,104,126
5,76,0,124
5,76,105,116
5,76,0,136
5,74,105,104
5,74,0,201
5,74,104,279
5,74,0,202
5,69,104,278
5,73,105,240
5,69,0,24
5,73,0,317
5,73,104,139
5,73,0,223
5,74,105,257
5,79,105,480
5,74,0,11
5,79,0,454
5,78,104,15
5,78,0,194
5,74,105,46
5,74,0,221
5,79,104,19
5,79,0,205
5,78,104,35
5,78,0,214
5,74,105,266
5,74,0,344
5,79,105,376
5,79,0,302
5,79,104,178
5,79,0,306
5,78,104,174
5,78,0,200
5,74,105,40
5,74,0,227
5,79,105,13
5,79,0,236
5,78,104,4
5,78,0,145
5,78,104,95
5,78,0,220
5,74,105,20
5,74,0,235
5,79,104,5
5,79,0,237
5,78,105,3
5,78,0,291
5,74,105,189
5,74,0,282
5,73,104,438
5,73,0,261
5,73,105,219
5,73,0,265
5,74,104,215
5,74,0,442
5,79,104,38
5,79,0,397
5,78,105,83
5,78,0,217
5,74,105,23
5,74,0,161
5,74,104,79
5,74,0,182
5,73,104,58
5,73,0,285
5,73,105,195
5,73,0,375
5,79,105,345
5,79,0,284
5,78,104,196
5,78,0,299
5,76,104,181
5,76,0,149
5,76,105,91
5,76,0,150
5,76,104,90
5,76,0,121
5,76,105,119
5,76,0,112
5,76,105,128
5,76,0,114
5,76,104,126
5,76,0,124
5,76,105,116
5,76,0,136
5,74,104,104
5,74,0,201
5,74,104,279
5,74,0,202
5,69,105,278
5,73,105,240
5,69,0,24
5,73,0,317
5,73,104,139
5,73,0,223
5,67,104,19457
5,67,0,287
5,67,105,193
5,67,0,236
5,71,105,244
5,71,0,149
5,71,104,91
5,71,0,143
5,71,104,97
5,71,0,182
5,69,105,538
5,69,0,266
5,69,104,214
5,69,0,207
5,67,105,33
5,67,0,123
5,67,105,117
5,67,0,132
5,67,104,108
5,67,0,146
5,66,105,94
5,66,0,258
5,66,104,462
5,66,0,102
5,67,104,138
5,67,0,98
5,67,105,142
5,67,0,133
5,67,105,107
5,67,0,139
5,67,104,101
5,67,0,131
