track,note,velocity,time
0,67,107,0
0,62,115,0
0,46,97,0
0,55,93,0
0,34,80,0
0,38,94,0
0,36,85,0
0,51,110,0
0,62,80,0
0,38,95,4
0,70,108,26
0,67,90,0
0,62,118,0
0,58,80,0
0,38,93,0
0,58,84,46
0,40,93,0
0,38,91,92
0,53,85,0
0,29,77,0
0,38,93,0
0,36,86,0
0,42,61,0
0,46,81,18
0,34,81,0
0,38,95,0
0,36,101,0
0,42,55,0
0,38,92,80
0,65,76,98
0,38,95,0
0,58,86,94
0,40,96,0
0,54,127,0
0,74,127,0
0,70,126,0
0,38,92,0
0,46,71,0
0,60,75,0
0,65,117,4
0,34,75,0
0,38,93,0
0,42,53,0
0,58,46,0
0,72,127,18
0,69,127,0
0,65,127,0
0,45,102,0
0,33,109,0
0,38,94,0
0,36,97,0
0,42,53,0
0,60,74,0
0,38,80,8
0,38,93,98
0,57,97,90
0,60,117,0
0,40,105,0
0,69,101,96
0,65,104,0
0,38,94,0
0,60,93,4
0,57,104,0
0,33,95,0
0,38,93,0
0,36,95,0
0,42,61,0
0,68,107,30
0,65,112,0
0,44,89,0
0,53,104,0
0,32,104,0
0,36,106,0
0,38,93,0
0,42,55,0
0,38,86,42
0,38,94,98
0,56,90,4
0,40,85,0
0,54,127,0
0,68,85,2
0,65,109,0
0,48,108,0
0,38,97,0
0,46,71,0
0,62,77,0
0,60,95,12
0,46,70,0
0,32,99,0
0,38,100,0
0,42,53,0
0,60,77,0
0,67,84,6
0,62,98,0
0,58,80,0
0,43,86,0
0,46,86,0
0,31,99,0
0,38,94,0
0,36,85,0
0,42,53,0
0,58,65,0
0,38,95,2
0,38,93,98
0,62,127,94
0,55,84,0
0,40,93,0
0,67,97,92
0,38,91,0
0,70,108,98
0,38,93,0
0,36,86,0
0,42,61,0
0,69,115,0
0,62,125,0
0,43,101,0
0,43,101,0
0,38,95,0
0,36,101,0
0,42,55,0
0,38,92,62
0,38,95,98
0,60,127,74
0,40,96,0
0,54,127,0
0,62,121,82
0,38,92,0
0,46,71,0
0,69,107,18
0,38,108,0
0,38,93,0
0,42,53,0
0,57,62,0
0,67,85,4
0,62,102,0
0,58,80,0
0,43,84,0
0,43,97,0
0,38,94,0
0,36,97,0
0,42,53,0
0,55,62,0
0,38,80,50
0,38,93,98
0,55,80,90
0,40,105,0
0,57,79,0
0,53,99,8
0,38,94,0
0,58,59,74
0,53,104,0
0,38,88,0
0,38,93,0
0,36,95,0
0,42,61,0
0,69,108,6
0,65,101,0
0,62,111,0
0,43,95,0
0,57,101,0
0,43,85,0
0,36,106,0
0,38,93,0
0,42,55,0
0,58,62,0
0,38,86,28
0,67,93,44
0,62,116,0
0,58,97,0
0,38,94,0
0,55,93,94
0,41,93,0
0,40,85,0
0,54,127,0
0,62,69,0
0,60,108,14
0,38,97,0
0,46,71,0
0,58,98,48
0,50,98,0
0,38,100,0
0,42,53,0
0,69,117,0
0,65,106,0
0,61,101,0
0,58,105,0
0,39,106,0
0,55,79,0
0,39,99,0
0,38,94,0
0,36,85,0
0,59,110,0
0,65,74,0
0,38,95,0
0,38,93,98
0,51,73,94
0,40,93,0
0,38,91,92
0,58,71,26
0,46,58,0
0,34,62,0
0,38,93,0
0,36,86,0
0,42,61,0
0,39,89,10
0,39,93,0
0,38,95,0
0,36,101,0
0,42,55,0
0,38,92,16
0,38,95,98
0,51,91,60
0,40,96,0
0,54,127,0
0,72,122,16
0,69,102,0
0,65,113,0
0,61,107,0
0,38,92,0
0,46,71,0
0,61,97,50
0,39,96,0
0,38,93,0
0,42,53,0
0,69,113,20
0,65,123,0
0,62,123,0
0,38,115,0
0,38,101,0
0,38,94,0
0,36,97,0
0,42,53,0
0,62,80,0
0,38,80,26
0,38,93,98
0,50,97,90
0,40,105,0
0,50,98,66
0,38,94,0
0,62,113,100
0,45,76,0
0,53,105,0
0,38,93,0
0,36,95,0
0,42,61,0
0,38,121,94
0,57,108,0
0,38,106,0
0,36,106,0
0,38,93,0
0,42,55,0
0,38,86,84
0,62,127,50
0,38,94,0
0,69,125,94
0,65,127,0
0,40,85,0
0,54,127,0
0,50,127,58
0,55,84,0
0,38,97,0
0,46,71,0
0,62,127,14
0,38,96,0
0,38,100,0
0,42,53,0
0,69,119,24
0,65,127,0
0,60,127,0
0,36,112,0
0,53,108,0
0,36,105,0
0,38,94,0
0,36,85,0
0,42,53,0
0,60,72,0
0,38,95,2
0,38,93,88
0,48,113,94
0,40,93,0
0,38,91,92
0,43,71,98
0,36,90,0
0,38,93,0
0,36,86,0
0,42,61,0
0,36,102,42
0,38,95,0
0,36,101,0
0,42,55,0
0,57,127,94
0,38,92,0
0,58,110,98
0,38,95,0
0,60,127,94
0,40,96,0
0,54,127,0
0,58,62,0
0,65,109,14
0,38,92,0
0,46,71,0
0,48,101,18
0,36,100,0
0,38,93,0
0,42,53,0
0,77,123,0
0,29,89,0
0,38,94,0
0,36,97,0
0,42,53,0
0,57,73,0
0,41,109,24
0,38,80,0
0,38,93,62
0,65,100,90
0,60,95,0
0,57,92,0
0,53,88,0
0,40,105,0
0,60,73,0
0,38,94,12
0,57,73,100
0,48,74,0
0,29,88,0
0,38,93,0
0,36,95,0
0,42,61,0
0,65,111,2
0,60,97,0
0,41,97,0
0,31,87,0
0,36,106,0
0,38,93,0
0,42,55,0
0,65,83,0
0,38,82,44
0,38,91,4
0,63,99,52
0,60,103,0
0,58,80,0
0,33,100,0
0,38,100,0
0,54,127,0
0,63,66,0
0,53,109,88
0,38,109,0
0,46,71,0
0,65,110,0
0,38,118,0
0,42,53,0
0,67,103,22
0,46,85,0
0,62,113,0
0,55,89,0
0,34,84,0
0,38,94,0
0,36,85,0
0,51,110,0
0,62,61,0
0,58,61,0
0,62,105,0
0,38,95,4
0,67,95,10
0,62,116,0
0,70,100,0
0,58,86,0
0,38,93,0
0,58,82,32
0,40,93,0
0,38,91,92
0,53,74,94
0,29,84,0
0,38,93,0
0,36,86,0
0,42,61,0
0,46,89,90
0,34,86,0
0,38,95,0
0,36,101,0
0,42,55,0
0,72,127,68
0,77,127,0
0,74,92,0
0,38,92,0
0,77,119,44
0,72,127,0
0,38,95,0
0,70,114,76
0,74,103,0
0,58,67,0
0,40,96,0
0,54,127,0
0,65,124,42
0,38,92,0
0,46,71,0
0,60,90,0
0,74,107,0
0,70,119,0
0,34,98,0
0,38,93,0
0,42,53,0
0,58,78,0
0,69,127,18
0,65,111,0
0,72,124,0
0,45,91,0
0,33,108,0
0,38,94,0
0,36,97,0
0,42,53,0
0,60,61,0
0,57,61,0
0,60,90,0
0,38,80,64
0,65,104,92
0,38,93,0
0,57,87,32
0,60,116,0
0,40,105,0
0,38,94,42
0,60,116,2
0,65,109,0
0,57,99,0
0,33,92,0
0,38,93,0
0,36,95,0
0,42,61,0
0,44,89,22
0,60,118,0
0,65,103,0
0,32,93,0
0,36,106,0
0,38,93,0
0,42,55,0
0,60,61,0
0,56,61,0
0,53,101,0
0,38,86,0
0,38,94,98
0,56,84,94
0,40,85,0
0,54,127,0
0,60,106,76
0,65,113,0
0,38,97,0
0,46,71,0
0,48,107,10
0,32,88,0
0,38,100,0
0,42,53,0
0,58,98,16
0,62,116,0
0,43,100,0
0,46,83,0
0,31,83,0
0,38,94,0
0,36,85,0
0,42,53,0
0,62,61,0
0,58,61,0
0,62,87,0
0,38,95,46
0,38,93,76
0,55,76,94
0,62,97,0
0,40,93,0
0,67,77,40
0,38,91,0
0,70,97,98
0,31,88,0
0,38,93,0
0,36,86,0
0,42,61,0
0,62,101,46
0,43,80,0
0,69,106,0
0,59,58,0
0,31,92,0
0,38,95,0
0,36,101,0
0,42,55,0
0,38,92,62
0,38,95,98
0,60,127,22
0,55,87,0
0,40,96,0
0,54,127,0
0,62,105,10
0,38,92,0
0,46,71,0
0,69,100,14
0,38,121,0
0,38,93,0
0,42,53,0
0,43,81,20
0,62,100,0
0,67,76,0
0,58,86,0
0,43,94,0
0,38,94,0
0,36,97,0
0,42,53,0
0,38,80,68
0,38,93,98
0,55,78,16
0,40,105,0
0,65,72,0
0,53,91,14
0,38,94,0
0,50,89,82
0,53,101,0
0,43,97,0
0,38,93,0
0,36,95,0
0,42,61,0
0,43,101,0
0,57,96,0
0,43,111,0
0,36,106,0
0,38,93,0
0,42,55,0
0,69,86,0
0,69,111,46
0,65,124,0
0,38,86,0
0,38,94,98
0,55,97,2
0,40,85,0
0,54,127,0
0,65,124,88
0,69,96,0
0,72,127,0
0,38,97,0
0,46,71,0
0,65,125,2
0,69,73,0
0,60,108,0
0,41,95,0
0,38,100,0
0,42,53,0
0,69,102,80
0,58,97,0
0,39,100,0
0,61,90,0
0,65,95,0
0,55,85,0
0,39,99,0
0,38,94,0
0,36,85,0
0,59,110,0
0,61,61,0
0,58,61,0
0,67,71,0
0,38,95,24
0,67,89,58
0,58,94,0
0,61,86,0
0,38,93,0
0,51,88,94
0,40,93,0
0,38,91,46
0,46,56,8
0,39,93,0
0,38,93,0
0,36,86,0
0,42,61,0
0,39,102,2
0,39,99,0
0,38,95,0
0,36,101,0
0,42,55,0
0,65,61,0
0,61,61,0
0,38,92,28
0,38,95,98
0,51,83,94
0,40,96,0
0,54,127,0
0,38,92,82
0,46,71,0
0,46,55,40
0,34,73,0
0,38,93,0
0,42,53,0
0,39,96,8
0,39,104,0
0,38,94,0
0,36,97,0
0,42,53,0
0,69,61,0
0,65,61,0
0,65,86,0
0,38,80,80
0,38,93,98
0,51,89,90
0,40,105,0
0,62,80,0
0,62,127,18
0,50,96,0
0,38,94,0
0,65,127,6
0,53,107,0
0,39,91,0
0,38,93,0
0,36,95,0
0,42,61,0
0,39,93,6
0,69,125,0
0,57,99,0
0,39,88,0
0,36,106,0
0,38,93,0
0,42,55,0
0,72,61,0
0,69,61,0
0,69,87,0
0,38,86,66
0,65,127,66
0,38,94,0
0,51,89,94
0,40,85,0
0,54,127,0
0,65,101,0
0,69,118,22
0,53,101,0
0,38,97,0
0,46,71,0
0,57,98,26
0,34,72,0
0,38,100,0
0,42,53,0
0,40,106,8
0,58,98,0
0,62,124,0
0,67,111,0
0,55,85,0
0,40,93,0
0,38,94,0
0,36,85,0
0,42,53,0
0,67,95,0
0,38,95,54
0,38,93,98
0,52,116,94
0,45,87,0
0,40,93,0
0,57,87,0
0,38,91,92
0,46,87,34
0,58,87,0
0,47,82,20
0,58,98,0
0,40,105,0
0,38,93,0
0,36,86,0
0,42,61,0
0,40,122,4
0,40,109,0
0,50,87,0
0,38,95,0
0,36,101,0
0,42,55,0
0,62,87,0
0,38,92,8
0,57,87,0
0,69,87,0
0,58,90,6
0,38,95,0
0,52,116,94
0,43,118,0
0,55,87,0
0,40,96,0
0,54,127,0
0,67,87,0
0,67,96,8
0,62,116,0
0,38,92,0
0,46,71,0
0,50,87,34
0,62,87,0
0,58,83,56
0,46,88,0
0,38,93,0
0,42,53,0
0,33,104,72
0,65,121,0
0,61,116,0
0,55,127,0
0,65,107,0
0,45,112,0
0,49,87,0
0,38,94,0
0,36,97,0
0,42,53,0
0,61,61,0
0,65,99,0
0,38,80,48
0,55,127,80
0,64,106,0
0,61,113,0
0,64,84,0
0,38,93,0
0,45,124,14
0,40,105,0
0,64,86,0
0,55,127,54
0,57,91,0
0,38,94,0
0,61,109,82
0,45,121,0
0,38,93,0
0,36,95,0
0,42,61,0
0,61,118,16
0,33,104,0
0,65,127,0
0,55,127,0
0,33,112,0
0,53,87,0
0,36,106,0
0,38,93,0
0,42,55,0
0,65,61,0
0,61,61,0
0,65,89,0
0,38,82,70
0,61,100,94
0,64,119,0
0,55,125,0
0,35,95,0
0,38,91,0
0,45,103,10
0,52,87,0
0,38,100,0
0,54,127,0
0,64,61,0
0,61,61,0
0,64,89,0
0,38,109,88
0,46,71,0
0,55,116,10
0,37,126,0
0,38,118,0
0,42,53,0
0,50,119,44
0,38,111,0
0,38,94,0
0,36,85,0
0,59,110,0
0,38,95,80
0,38,93,98
0,62,70,40
0,77,102,0
0,74,99,0
0,65,104,0
0,62,104,0
0,65,66,0
0,40,93,0
0,77,66,0
0,74,66,0
0,65,117,0
0,38,91,92
0,76,89,26
0,72,127,0
0,64,84,0
0,60,84,0
0,64,66,0
0,76,66,0
0,72,66,0
0,64,109,0
0,45,80,12
0,38,93,0
0,36,86,0
0,42,61,0
0,50,94,40
0,74,103,0
0,70,113,0
0,62,84,0
0,58,84,0
0,38,100,0
0,62,66,0
0,38,95,0
0,36,101,0
0,42,55,0
0,74,66,0
0,70,66,0
0,62,126,0
0,38,92,82
0,69,89,4
0,72,101,0
0,60,108,0
0,57,108,0
0,60,66,0
0,72,66,0
0,69,66,0
0,60,118,0
0,38,95,16
0,69,111,6
0,65,127,0
0,57,91,0
0,53,91,0
0,57,66,0
0,40,96,0
0,54,127,0
0,69,66,0
0,65,66,0
0,57,114,0
0,38,92,4
0,46,71,0
0,64,98,0
0,67,80,0
0,57,80,0
0,55,70,0
0,52,70,0
0,55,66,0
0,67,66,0
0,64,66,0
0,55,118,0
0,33,79,18
0,38,93,0
0,42,53,0
0,53,101,4
0,50,101,0
0,53,66,0
0,65,66,0
0,58,66,0
0,53,118,0
0,65,103,8
0,58,96,0
0,62,104,0
0,50,104,0
0,38,99,0
0,38,94,0
0,36,97,0
0,42,53,0
0,38,80,28
0,38,93,98
0,40,105,4
0,38,94,94
0,65,109,36
0,38,90,30
0,38,93,0
0,36,95,0
0,42,61,0
0,74,103,62
0,70,102,0
0,38,75,0
0,62,82,0
0,38,105,0
0,36,106,0
0,38,93,0
0,42,55,0
0,65,66,0
0,62,66,0
0,58,66,0
0,38,86,2
0,72,119,16
0,69,113,0
0,65,109,0
0,60,101,16
0,38,94,0
0,40,85,94
0,54,127,0
0,67,92,40
0,57,102,32
0,38,97,0
0,46,71,0
0,69,100,6
0,55,70,26
0,40,82,0
0,38,100,0
0,42,53,0
0,55,105,0
0,41,78,26
0,57,92,2
0,65,103,0
0,60,99,0
0,53,104,0
0,41,75,0
0,38,94,0
0,36,85,0
0,42,53,0
0,60,66,0
0,57,66,0
0,57,99,0
0,38,95,20
0,38,93,98
0,53,87,58
0,40,93,0
0,57,124,58
0,58,94,34
0,60,121,0
0,38,91,0
0,48,98,28
0,41,90,0
0,36,73,0
0,38,93,0
0,36,86,0
0,42,61,0
0,60,116,14
0,57,101,0
0,65,115,0
0,41,82,0
0,38,95,0
0,36,101,0
0,42,55,0
0,38,92,80
0,57,89,26
0,38,95,0
0,53,89,72
0,43,85,0
0,40,96,0
0,54,127,0
0,69,99,82
0,65,116,0
0,60,100,0
0,38,92,0
0,46,71,0
0,60,105,10
0,38,93,0
0,42,53,0
0,58,84,0
0,65,121,10
0,69,116,0
0,45,100,0
0,72,116,0
0,45,90,0
0,38,94,0
0,36,97,0
0,42,53,0
0,57,66,0
0,53,66,0
0,60,114,0
0,38,80,30
0,38,93,18
0,72,121,48
0,65,78,0
0,60,116,0
0,40,105,0
0,38,94,96
0,69,104,10
0,57,102,0
0,45,85,0
0,38,93,0
0,36,95,0
0,42,61,0
0,62,103,0
0,44,83,24
0,65,118,0
0,60,119,0
0,68,121,0
0,53,104,0
0,44,84,0
0,36,106,0
0,38,93,0
0,42,55,0
0,60,66,0
0,56,66,0
0,63,108,0
0,38,86,22
0,38,94,98
0,60,125,48
0,40,85,0
0,54,127,0
0,48,91,88
0,38,97,0
0,46,71,0
0,60,115,0
0,58,63,44
0,46,74,0
0,44,76,0
0,38,100,0
0,42,53,0
0,62,99,0
0,50,90,12
0,43,89,0
0,55,99,0
0,58,91,0
0,46,93,0
0,43,88,0
0,38,94,0
0,36,85,0
0,42,53,0
0,62,66,0
0,58,66,0
0,62,114,0
0,38,95,6
0,38,93,98
0,55,50,94
0,58,82,0
0,40,93,0
0,62,99,92
0,38,91,0
0,70,101,86
0,38,90,0
0,38,93,0
0,36,86,0
0,42,61,0
0,43,89,28
0,69,103,0
