track,note,velocity,time
1,75,92,768
1,75,0,94
1,71,92,2
1,71,0,94
1,66,92,2
1,66,0,94
1,71,92,2
1,71,0,94
1,75,92,2
1,75,0,94
1,71,92,2
1,71,0,94
1,66,92,2
1,66,0,94
1,71,92,2
1,71,0,94
1,70,92,2
1,70,0,94
1,66,92,2
1,66,0,94
1,63,92,2
1,63,0,94
1,66,92,2
1,66,0,94
1,73,92,2
1,73,0,94
1,66,92,2
1,66,0,94
1,75,92,2
1,75,0,94
1,66,92,2
1,66,0,94
1,71,92,2
1,71,0,94
1,68,92,2
1,68,0,94
1,70,92,2
1,70,0,94
1,71,92,2
1,71,0,94
1,73,92,2
1,73,0,94
1,71,92,2
1,71,0,94
1,70,92,2
1,70,0,94
1,65,92,2
1,65,0,94
1,66,92,2
1,66,0,94
1,63,92,2
1,63,0,94
1,58,92,2
1,58,0,94
1,63,92,2
1,63,0,94
1,75,92,2
1,75,0,94
1,63,92,2
1,63,0,94
1,76,92,2
1,76,0,94
1,63,92,2
1,63,0,94
1,75,92,2
1,75,0,94
1,71,92,2
1,71,0,94
1,66,92,2
1,66,0,94
1,71,92,2
1,71,0,94
1,75,92,2
1,75,0,94
1,71,92,2
1,71,0,94
1,66,92,2
1,66,0,94
1,71,92,2
1,71,0,94
1,70,92,2
1,70,0,94
1,66,92,2
1,66,0,94
1,63,92,2
1,63,0,94
1,66,92,2
1,66,0,94
1,73,92,2
1,73,0,94
1,66,92,2
1,66,0,94
1,75,92,2
1,75,0,94
1,66,92,2
1,66,0,94
1,71,92,2
1,71,0,94
1,66,92,2
1,66,0,94
1,76,92,2
1,76,0,94
1,75,92,2
1,75,0,94
1,70,92,2
1,70,0,94
1,75,92,2
1,75,0,94
1,71,92,2
1,71,0,94
1,65,92,2
1,65,0,94
1,66,92,2
1,66,0,94
1,63,92,2
1,63,0,94
1,58,92,2
1,58,0,94
1,63,92,2
1,63,0,94
1,75,92,2
1,75,0,94
1,66,92,2
1,66,0,94
1,76,92,2
1,76,0,94
1,66,92,2
1,66,0,94
1,75,92,2
1,75,0,94
1,71,92,2
1,71,0,94
1,66,92,2
1,66,0,94
1,71,92,2
1,71,0,94
1,75,92,2
1,75,0,94
1,71,92,2
1,71,0,94
1,66,92,2
1,66,0,94
1,71,92,2
1,71,0,94
1,70,92,2
1,70,0,94
1,66,92,2
1,66,0,94
1,63,92,2
1,63,0,94
1,66,92,2
1,66,0,94
1,73,92,2
1,73,0,94
1,66,92,2
1,66,0,94
1,75,92,2
1,75,0,94
1,66,92,2
1,66,0,94
1,71,92,2
1,71,0,94
1,68,92,2
1,68,0,94
1,70,92,2
1,70,0,94
1,71,92,2
1,71,0,94
1,73,92,2
1,73,0,94
1,71,92,2
1,71,0,94
1,70,92,2
1,70,0,94
1,65,92,2
1,65,0,94
1,66,92,2
1,66,0,94
1,63,92,2
1,63,0,94
1,58,92,2
1,58,0,94
1,63,92,2
1,63,0,94
1,75,92,2
1,75,0,94
1,63,92,2
1,63,0,94
1,76,92,2
1,76,0,94
1,63,92,2
1,63,0,94
1,75,92,2
1,75,0,94
1,71,92,2
1,71,0,94
1,66,92,2
1,66,0,94
1,71,92,2
1,71,0,94
1,75,92,2
1,75,0,94
1,71,92,2
1,71,0,94
1,66,92,2
1,66,0,94
1,71,92,2
1,71,0,94
1,70,92,2
1,70,0,94
1,66,92,2
1,66,0,94
1,63,92,2
1,63,0,94
1,66,92,2
1,66,0,94
1,73,92,2
1,73,0,94
1,66,92,2
1,66,0,94
1,75,92,2
1,75,0,94
1,66,92,2
1,66,0,94
1,71,92,2
1,71,0,94
1,66,92,2
1,66,0,94
1,76,92,2
1,76,0,94
1,75,92,2
1,75,0,94
1,70,92,2
1,70,0,94
1,75,92,2
1,75,0,94
1,71,92,2
1,71,0,94
1,65,92,2
1,65,0,94
1,66,92,2
1,66,0,94
1,63,92,2
1,63,0,94
1,58,92,2
1,58,0,94
1,63,92,2
1,63,0,94
1,75,92,2
1,75,0,94
1,66,92,2
1,66,0,94
1,76,92,2
1,76,0,94
1,66,92,2
1,66,0,94
1,75,92,2
1,75,0,94
1,71,92,2
1,71,0,94
1,66,92,2
1,66,0,94
1,71,92,2
1,71,0,94
1,75,92,2
1,75,0,94
1,71,92,2
1,71,0,94
1,66,92,2
1,66,0,94
1,71,92,2
1,71,0,94
1,70,92,2
1,70,0,94
1,66,92,2
1,66,0,94
1,63,92,2
1,63,0,94
1,66,92,2
1,66,0,94
1,73,92,2
1,73,0,94
1,66,92,2
1,66,0,94
1,75,92,2
1,75,0,94
1,66,92,2
1,66,0,94
1,71,92,2
1,71,0,94
1,68,92,2
1,68,0,94
1,70,92,2
1,70,0,94
1,71,92,2
1,71,0,94
1,73,92,2
1,73,0,94
1,71,92,2
1,71,0,94
1,70,92,2
1,70,0,94
1,65,92,2
1,65,0,94
1,66,92,2
1,66,0,94
1,63,92,2
1,63,0,94
1,58,92,2
1,58,0,94
1,63,92,2
1,63,0,94
1,75,92,2
1,75,0,94
1,63,92,2
1,63,0,94
1,76,92,2
1,76,0,94
1,63,92,2
1,63,0,94
1,75,92,2
1,75,0,94
1,71,92,2
1,71,0,94
1,66,92,2
1,66,0,94
1,71,92,2
1,71,0,94
1,75,92,2
1,75,0,94
1,71,92,2
1,71,0,94
1,66,92,2
1,66,0,94
1,71,92,2
1,71,0,94
1,70,92,2
1,70,0,94
1,66,92,2
1,66,0,94
1,63,92,2
1,63,0,94
1,66,92,2
1,66,0,94
1,73,92,2
1,73,0,94
1,66,92,2
1,66,0,94
1,75,92,2
1,75,0,94
1,66,92,2
1,66,0,94
1,71,92,2
1,71,0,94
1,66,92,2
1,66,0,94
1,76,92,2
1,76,0,94
1,75,92,2
1,75,0,94
1,70,92,2
1,70,0,94
1,75,92,2
1,75,0,94
1,71,92,2
1,71,0,94
1,65,92,2
1,65,0,94
1,66,92,2
1,66,0,94
1,63,92,2
1,63,0,94
1,58,92,2
1,58,0,94
1,63,92,2
1,63,0,94
1,75,92,2
1,75,0,94
1,66,92,2
1,66,0,94
1,76,92,2
1,76,0,94
1,66,92,2
1,66,0,94
1,75,92,2
1,75,0,94
1,71,92,2
1,71,0,94
1,66,92,2
1,66,0,94
1,71,92,2
1,71,0,94
1,75,92,2
1,75,0,94
1,71,92,2
1,71,0,94
1,66,92,2
1,66,0,94
1,71,92,2
1,71,0,94
1,70,92,2
1,70,0,94
1,66,92,2
1,66,0,94
1,63,92,2
1,63,0,94
1,66,92,2
1,66,0,94
1,73,92,2
1,73,0,94
1,66,92,2
1,66,0,94
1,75,92,2
1,75,0,94
1,66,92,2
1,66,0,94
1,71,92,2
1,71,0,94
1,68,92,2
1,68,0,94
1,70,92,2
1,70,0,94
1,71,92,2
1,71,0,94
1,73,92,2
1,73,0,94
1,71,92,2
1,71,0,94
1,70,92,2
1,70,0,94
1,65,92,2
1,65,0,94
1,66,92,2
1,66,0,94
1,63,92,2
1,63,0,94
1,58,92,2
1,58,0,94
1,63,92,2
1,63,0,94
1,75,92,2
1,75,0,94
1,63,92,2
1,63,0,94
1,76,92,2
1,76,0,94
1,63,92,2
1,63,0,94
1,75,92,2
1,75,0,94
1,71,92,2
1,71,0,94
1,66,92,2
1,66,0,94
1,71,92,2
1,71,0,94
1,75,92,2
1,75,0,94
1,71,92,2
1,71,0,94
1,66,92,2
1,66,0,94
1,71,92,2
1,71,0,94
1,70,92,2
1,70,0,94
1,66,92,2
1,66,0,94
1,63,92,2
1,63,0,94
1,66,92,2
1,66,0,94
1,73,92,2
1,73,0,94
1,66,92,2
1,66,0,94
1,75,92,2
1,75,0,94
1,66,92,2
1,66,0,94
1,71,92,2
1,71,0,94
1,66,92,2
1,66,0,94
1,76,92,2
1,76,0,94
1,75,92,2
1,75,0,94
1,70,92,2
1,70,0,94
1,75,92,2
1,75,0,94
1,71,92,2
1,71,0,94
1,65,92,2
1,65,0,94
1,66,92,2
1,66,0,94
1,63,92,2
1,63,0,94
1,58,92,2
1,58,0,94
1,63,92,2
1,63,0,94
1,75,92,2
1,75,0,94
1,66,92,2
1,66,0,94
1,76,92,2
1,76,0,94
1,66,92,2
1,66,0,94
1,75,92,2
1,75,0,94
1,71,92,2
1,71,0,94
1,66,92,2
1,66,0,94
1,71,92,2
1,71,0,94
1,75,92,2
1,75,0,94
1,71,92,2
1,71,0,94
1,66,92,2
1,66,0,94
1,71,92,2
1,71,0,94
1,70,92,2
1,70,0,94
1,66,92,2
1,66,0,94
1,63,92,2
1,63,0,94
1,66,92,2
1,66,0,94
1,73,92,2
1,73,0,94
1,66,92,2
1,66,0,94
1,75,92,2
1,75,0,94
1,66,92,2
1,66,0,94
1,71,92,2
1,71,0,94
1,68,92,2
1,68,0,94
1,70,92,2
1,70,0,94
1,71,92,2
1,71,0,94
1,73,92,2
1,73,0,94
1,71,92,2
1,71,0,94
1,70,92,2
1,70,0,94
1,65,92,2
1,65,0,94
1,66,92,2
1,66,0,94
1,63,92,2
1,63,0,94
1,58,92,2
1,58,0,94
1,63,92,2
1,63,0,94
1,75,92,2
1,75,0,94
1,63,92,2
1,63,0,94
1,76,92,2
1,76,0,94
1,63,92,2
1,63,0,94
1,75,92,2
1,75,0,94
1,71,92,2
1,71,0,94
1,66,92,2
1,66,0,94
1,71,92,2
1,71,0,94
1,75,92,2
1,75,0,94
1,71,92,2
1,71,0,94
1,66,92,2
1,66,0,94
1,71,92,2
1,71,0,94
1,70,92,2
1,70,0,94
1,66,92,2
1,66,0,94
1,63,92,2
1,63,0,94
1,66,92,2
1,66,0,94
1,73,92,2
1,73,0,94
1,66,92,2
1,66,0,94
1,75,92,2
1,75,0,94
1,66,92,2
1,66,0,94
1,71,92,2
1,71,0,94
1,66,92,2
1,66,0,94
1,76,92,2
1,76,0,94
1,75,92,2
1,75,0,94
1,70,92,2
1,70,0,94
1,75,92,2
1,75,0,94
1,71,92,2
1,71,0,94
1,65,92,2
1,65,0,94
1,66,92,2
1,66,0,94
1,63,92,2
1,63,0,94
1,58,92,2
1,58,0,94
1,63,92,2
1,63,0,94
1,75,92,2
1,75,0,94
1,66,92,2
1,66,0,94
1,76,92,2
1,76,0,94
1,66,92,2
1,66,0,94
1,75,75,2
1,75,0,94
1,66,75,2
1,66,0,94
1,76,60,2
1,76,0,94
1,66,60,2
1,66,0,94
1,75,45,2
1,75,0,94
1,66,45,2
1,66,0,94
1,76,30,2
1,76,0,94
1,66,30,2
1,66,0,94
1,61,92,12194
1,61,0,94
1,64,92,2
1,64,0,94
1,61,92,2
1,61,0,94
1,65,92,2
1,65,0,94
1,61,92,2
1,61,0,94
1,66,92,2
1,66,0,94
1,63,92,2
1,63,0,94
1,68,92,2
1,68,0,94
1,73,92,2
1,73,0,432
1,63,92,720
1,63,0,94
1,66,92,2
1,66,0,94
1,65,92,2
1,65,0,94
1,63,92,2
1,63,0,94
1,68,92,2
1,68,0,432
1,66,92,816
1,66,0,160
1,63,92,32
1,63,0,94
1,66,92,2
1,66,0,94
1,71,92,2
1,71,0,94
1,66,92,2
1,66,0,94
1,73,92,2
1,73,0,94
1,66,92,2
1,66,0,94
1,75,92,2
1,75,0,94
1,66,92,2
1,66,0,94
1,71,92,2
1,71,0,94
1,66,92,2
1,66,0,94
1,70,92,2
1,70,0,336
1,66,92,48
1,66,0,94
1,65,92,2
1,65,0,94
1,63,92,2
1,63,0,94
1,66,92,2
1,66,0,94
1,71,92,2
1,71,0,94
1,70,92,2
1,70,0,94
1,68,92,2
1,68,0,94
1,66,92,2
1,66,0,94
1,68,92,2
1,68,0,160
1,61,92,32
1,61,0,94
1,65,92,2
1,65,0,94
1,66,92,2
1,66,0,336
1,75,92,48
1,75,0,94
1,66,92,2
1,66,0,94
1,76,92,2
1,76,0,94
1,66,92,2
1,66,0,94
1,75,92,2
1,75,0,94
1,71,92,2
1,71,0,94
1,66,92,2
1,66,0,94
1,71,92,2
1,71,0,94
1,75,92,2
1,75,0,94
1,71,92,2
1,71,0,94
1,66,92,2
1,66,0,94
1,71,92,2
1,71,0,94
1,70,92,2
1,70,0,94
1,66,92,2
1,66,0,94
1,63,92,2
1,63,0,94
1,66,92,2
1,66,0,94
1,73,92,2
1,73,0,94
1,66,92,2
1,66,0,94
1,75,92,2
1,75,0,94
1,66,92,2
1,66,0,94
1,71,92,2
1,71,0,94
1,68,92,2
1,68,0,94
1,70,92,2
1,70,0,94
1,71,92,2
1,71,0,94
1,73,92,2
1,73,0,94
1,71,92,2
1,71,0,94
1,70,92,2
1,70,0,94
1,65,92,2
1,65,0,94
1,66,92,2
1,66,0,94
1,63,92,2
1,63,0,94
1,58,92,2
1,58,0,94
1,63,92,2
1,63,0,94
1,75,92,2
1,75,0,94
1,63,92,2
1,63,0,94
1,76,92,2
1,76,0,94
1,63,92,2
1,63,0,94
1,75,92,2
1,75,0,94
1,71,92,2
1,71,0,94
1,66,92,2
1,66,0,94
1,71,92,2
1,71,0,94
1,75,92,2
1,75,0,94
1,71,92,2
1,71,0,94
1,66,92,2
1,66,0,94
1,71,92,2
1,71,0,94
1,70,92,2
1,70,0,94
1,66,92,2
1,66,0,94
1,63,92,2
1,63,0,94
1,66,92,2
1,66,0,94
1,73,92,2
1,73,0,94
1,66,92,2
1,66,0,94
1,75,92,2
1,75,0,94
1,66,92,2
1,66,0,94
1,71,92,2
1,71,0,94
1,66,92,2
1,66,0,94
1,76,92,2
1,76,0,94
1,75,92,2
1,75,0,94
1,70,92,2
1,70,0,94
1,75,92,2
1,75,0,94
1,71,92,2
1,71,0,94
1,65,92,2
1,65,0,94
1,66,92,2
1,66,0,94
1,63,92,2
1,63,0,94
1,58,92,2
1,58,0,94
1,63,92,2
1,63,0,94
1,75,92,2
1,75,0,94
1,66,92,2
1,66,0,94
1,76,92,2
1,76,0,94
1,66,92,2
1,66,0,94
1,75,92,2
1,75,0,94
1,71,92,2
1,71,0,94
1,66,92,2
1,66,0,94
1,71,92,2
1,71,0,94
1,75,92,2
1,75,0,94
1,71,92,2
1,71,0,94
1,66,92,2
1,66,0,94
1,71,92,2
1,71,0,94
1,70,92,2
1,70,0,94
1,66,92,2
1,66,0,94
1,63,92,2
1,63,0,94
1,66,92,2
1,66,0,94
1,73,92,2
1,73,0,94
1,66,92,2
1,66,0,94
1,75,92,2
1,75,0,94
1,66,92,2
1,66,0,94
1,71,92,2
1,71,0,94
1,68,92,2
1,68,0,94
1,70,92,2
1,70,0,94
1,71,92,2
1,71,0,94
1,73,92,2
1,73,0,94
1,71,92,2
1,71,0,94
1,70,92,2
1,70,0,94
1,65,92,2
1,65,0,94
1,66,92,2
1,66,0,94
1,63,92,2
1,63,0,94
1,58,92,2
1,58,0,94
1,63,92,2
1,63,0,94
1,75,92,2
1,75,0,94
1,63,92,2
1,63,0,94
1,76,92,2
1,76,0,94
1,63,92,2
1,63,0,94
1,75,92,2
1,75,0,94
1,71,92,2
1,71,0,94
1,66,92,2
1,66,0,94
1,71,92,2
1,71,0,94
1,75,92,2
1,75,0,94
1,71,92,2
1,71,0,94
1,66,92,2
1,66,0,94
1,71,92,2
1,71,0,94
1,70,92,2
1,70,0,94
1,66,92,2
1,66,0,94
1,63,92,2
1,63,0,94
1,66,92,2
1,66,0,94
1,73,92,2
1,73,0,94
1,66,92,2
1,66,0,94
1,75,92,2
1,75,0,94
1,66,92,2
1,66,0,94
1,71,92,2
1,71,0,94
1,66,92,2
1,66,0,94
1,76,92,2
1,76,0,94
1,75,92,2
1,75,0,94
1,70,92,2
1,70,0,94
1,75,92,2
1,75,0,94
1,71,92,2
1,71,0,94
1,65,92,2
1,65,0,94
1,66,92,2
1,66,0,94
1,63,92,2
1,63,0,94
1,58,92,2
1,58,0,94
1,63,92,2
1,63,0,94
1,75,92,2
1,75,0,94
1,66,92,2
1,66,0,94
1,76,92,2
1,76,0,94
1,66,92,2
1,66,0,94
1,75,75,2
1,75,0,94
1,66,75,2
1,66,0,94
