track,note,velocity,time
0,78,101,135
0,69,105,120
0,18,115,5
0,78,105,0
0,57,93,0
0,66,84,0
0,57,87,0
0,87,95,0
0,30,85,0
0,45,70,0
0,24,105,0
0,66,1,1
0,69,1,0
0,66,93,0
0,69,98,0
0,78,104,21
0,66,1,1
0,71,1,0
0,66,79,0
0,71,99,0
0,68,1,4
0,71,1,0
0,68,88,0
0,71,95,0
0,73,105,1
0,59,95,0
0,61,83,0
0,68,1,21
0,71,1,0
0,68,88,0
0,71,94,0
0,71,105,15
0,66,1,0
0,69,1,0
0,66,67,0
0,69,97,0
0,69,104,5
0,61,1,4
0,66,1,0
0,61,86,0
0,66,100,0
0,78,105,1
0,69,1,0
0,73,1,0
0,61,93,0
0,69,97,0
0,73,79,0
0,64,97,0
0,69,96,0
0,73,1,11
0,73,84,0
0,69,1,2
0,69,96,0
0,78,104,115
0,69,1,19
0,69,93,0
0,66,1,1
0,66,80,0
0,73,104,5
0,61,95,0
0,66,94,0
0,57,92,5
0,64,1,37
0,64,91,0
0,68,1,4
0,68,69,0
0,71,105,18
0,76,98,5
0,56,93,0
0,59,82,0
0,70,105,12
0,64,1,0
0,64,94,0
0,68,1,6
0,68,77,0
0,66,1,3
0,70,1,0
0,66,78,0
0,70,76,0
0,30,74,2
0,73,104,0
0,73,99,0
0,54,88,0
0,61,97,0
0,28,75,1
0,71,104,0
0,78,97,0
0,52,94,0
0,40,95,0
0,61,92,0
0,61,92,199
0,70,105,5
0,26,75,5
0,80,98,0
0,46,51,0
0,50,95,0
0,38,97,0
0,61,93,0
0,73,103,5
0,61,92,0
0,25,74,1
0,70,105,0
0,66,1,0
0,70,1,0
0,78,102,0
0,49,110,0
0,66,89,0
0,70,89,0
0,37,90,0
0,61,93,0
0,70,104,18
0,66,1,0
0,70,1,0
0,66,94,0
0,70,88,0
0,71,104,5
0,64,1,0
0,71,1,0
0,85,102,0
0,42,98,0
0,64,93,0
0,71,93,0
0,61,92,0
0,73,105,10
0,66,1,0
0,73,1,0
0,66,90,0
0,73,90,0
0,35,75,1
0,74,104,0
0,71,1,0
0,74,1,0
0,86,97,0
0,47,91,0
0,62,91,0
0,71,91,0
0,74,90,0
0,35,91,0
0,59,93,0
0,66,92,0
0,74,105,18
0,71,1,0
0,74,1,0
0,71,85,0
0,74,81,0
0,59,99,19
0,66,98,0
0,74,105,18
0,71,1,0
0,74,1,0
0,71,84,0
0,74,77,0
0,59,98,38
0,66,99,0
0,73,1,5
0,73,80,0
0,73,104,5
0,59,105,0
0,66,104,0
0,71,105,18
0,71,1,0
0,71,88,0
0,59,104,0
0,66,105,0
0,71,1,4
0,71,71,0
0,74,1,2
0,74,85,0
0,67,1,2
0,67,88,0
0,31,74,5
0,74,104,0
0,43,92,0
0,50,92,0
0,67,93,0
0,31,81,0
0,59,104,0
0,67,104,0
0,74,104,16
0,59,105,0
0,67,104,0
0,74,1,1
0,74,90,0
0,67,1,2
0,67,89,0
0,71,1,2
0,71,73,0
0,74,1,13
0,74,88,0
0,71,1,2
0,71,80,0
0,67,1,2
0,67,85,0
0,74,105,1
0,59,105,0
0,67,105,0
0,85,101,5
0,59,104,60
0,67,105,0
0,76,105,24
0,74,1,0
0,74,84,0
0,71,1,3
0,71,95,0
0,83,102,5
0,52,98,0
0,59,104,70
0,67,104,0
0,74,104,5
0,69,1,0
0,69,95,0
0,50,101,5
0,26,74,5
0,78,104,0
0,69,1,0
0,81,98,0
0,38,99,0
0,45,96,0
0,62,99,0
0,66,98,0
0,69,84,0
0,38,99,0
0,57,105,0
0,66,104,0
0,74,1,3
0,74,81,0
0,57,104,34
0,66,105,0
0,76,105,18
0,69,1,0
0,69,90,0
0,74,1,3
0,74,84,0
0,74,105,18
0,69,1,0
0,74,1,0
0,69,89,0
0,74,89,0
0,57,105,0
0,66,104,0
0,76,104,18
0,69,1,0
0,74,1,0
0,69,90,0
0,74,90,0
0,57,102,0
0,66,103,0
0,86,95,5
0,50,96,0
0,73,104,5
0,25,75,5
0,66,1,0
0,73,1,0
0,85,93,0
0,37,99,0
0,49,97,0
0,61,98,0
0,66,91,0
0,73,91,0
0,49,78,0
0,56,79,0
0,66,93,0
0,65,92,2
0,65,1,1
0,65,80,0
0,29,75,18
0,29,85,0
0,69,104,0
0,77,96,5
0,18,106,4
0,78,105,0
0,69,84,0
0,90,85,0
0,57,92,0
0,66,85,0
0,36,111,0
0,37,81,0
0,42,55,0
0,57,90,0
0,87,94,0
0,30,84,0
0,45,70,0
0,24,84,0
0,66,1,1
0,69,1,0
0,66,92,0
0,69,99,0
0,78,104,21
0,37,80,0
0,42,54,0
0,66,1,1
0,71,1,0
0,66,78,0
0,71,99,0
0,69,84,65
0,37,51,120
0,40,101,0
0,42,55,0
0,68,1,4
0,71,1,0
0,68,89,0
0,71,94,0
0,73,105,1
0,71,83,0
0,59,95,0
0,36,110,0
0,37,81,0
0,42,55,0
0,61,83,0
0,37,42,195
0,42,54,0
0,68,1,21
0,71,1,0
0,37,59,0
0,42,55,0
0,68,89,0
0,71,94,0
0,71,105,49
0,37,80,0
0,66,1,15
0,69,1,0
0,40,100,0
0,42,54,0
0,66,66,0
0,69,97,0
0,37,80,5
0,69,104,5
0,37,81,0
0,42,54,0
0,61,1,4
0,66,1,0
0,61,87,0
0,66,100,0
0,78,105,1
0,69,1,0
0,73,1,0
0,69,81,0
0,61,92,0
0,36,111,0
0,37,41,0
0,42,55,0
0,69,96,0
0,73,79,0
0,64,97,0
0,69,96,0
0,37,80,8
0,42,55,0
0,73,1,3
0,73,85,0
0,69,1,2
0,69,96,0
0,78,104,75
0,69,84,0
0,37,56,0
0,40,101,0
0,42,54,0
0,69,1,3
0,69,92,0
0,66,1,1
0,66,81,0
0,73,104,5
0,66,85,0
0,36,111,0
0,37,81,0
0,42,54,0
0,61,94,0
0,66,95,0
0,57,92,5
0,37,31,0
0,42,55,0
0,64,1,4
0,64,90,0
0,68,1,4
0,68,69,0
0,71,105,18
0,68,82,0
0,37,50,0
0,42,55,0
0,37,80,75
0,56,93,5
0,40,101,0
0,42,54,0
0,59,83,0
0,70,105,16
0,64,1,0
0,66,86,0
0,37,81,0
0,64,95,0
0,68,1,6
0,68,76,0
0,37,80,75
0,42,54,0
0,66,1,3
0,70,1,0
0,66,79,0
0,70,76,0
0,30,74,2
0,73,104,0
0,70,75,0
0,54,88,0
0,36,110,0
0,37,59,0
0,42,55,0
0,61,96,0
0,37,81,195
0,42,54,0
0,37,60,195
0,40,100,0
0,42,55,0
0,36,111,105
0,37,81,0
0,42,55,0
0,88,89,9
0,28,75,1
0,71,104,0
0,52,95,0
0,37,30,0
0,42,54,0
0,40,94,0
0,61,93,0
0,37,56,195
0,42,55,0
0,37,81,75
0,40,101,75
0,42,54,0
0,61,92,0
0,37,81,75
0,70,105,5
0,37,80,0
0,42,54,0
0,26,75,4
0,46,51,0
0,50,94,0
0,36,110,0
0,37,58,0
0,42,55,0
0,38,97,0
0,61,93,0
0,86,94,5
0,37,81,195
0,42,55,0
0,37,61,145
0,40,100,0
0,42,54,0
0,61,92,0
0,36,110,34
0,37,80,0
0,42,54,0
0,85,84,3
0,25,74,1
0,70,105,0
0,66,1,0
0,70,1,0
0,49,111,0
0,37,40,0
0,42,55,0
0,66,88,0
0,70,89,0
0,37,91,0
0,61,92,0
0,70,104,18
0,66,1,0
0,70,1,0
0,37,81,0
0,42,55,0
0,66,95,0
0,70,88,0
0,37,80,59
0,71,104,18
0,64,1,0
0,71,1,0
0,42,98,0
0,40,100,0
0,42,54,0
0,64,92,0
0,71,93,0
0,61,92,0
0,37,81,75
0,73,105,10
0,66,1,0
0,73,1,0
0,37,89,0
0,42,54,0
0,66,91,0
0,73,90,0
0,35,74,1
0,74,104,0
0,71,1,0
0,74,1,0
0,78,61,0
0,86,83,0
0,47,90,0
0,62,91,0
0,36,111,0
0,37,58,0
0,42,55,0
0,71,90,0
0,74,91,0
0,35,91,0
0,59,93,0
0,66,92,0
0,37,81,5
0,42,54,0
0,74,105,18
0,71,1,0
0,74,1,0
0,71,84,0
0,74,81,0
0,37,60,19
0,40,101,0
0,42,55,0
0,59,98,0
0,66,99,0
0,74,105,18
0,71,1,0
0,74,1,0
0,36,111,0
0,37,80,0
0,42,55,0
0,71,85,0
0,74,76,0
0,59,99,75
0,66,98,0
0,37,31,120
0,42,54,0
0,73,104,5
0,73,1,0
0,37,57,0
0,42,55,0
0,73,81,0
0,37,80,5
0,40,101,60
0,42,54,0
0,59,104,0
0,66,105,0
0,37,80,5
0,71,105,5
0,71,1,0
0,37,81,0
0,42,54,0
0,71,88,0
0,59,104,0
0,66,105,0
0,71,1,8
0,71,70,0
0,74,1,2
0,74,85,0
0,67,1,2
0,67,89,0
0,31,75,5
0,74,104,0
0,67,80,0
0,83,58,0
0,91,85,0
0,43,93,0
0,50,92,0
0,36,110,0
0,37,59,0
0,42,55,0
0,31,81,0
0,59,104,0
0,67,105,0
0,37,80,5
0,42,55,0
0,74,104,15
0,59,104,0
0,67,104,0
0,74,1,1
0,74,90,0
0,67,1,2
0,67,88,0
0,71,1,2
0,71,73,0
0,37,60,115
0,40,100,0
0,42,54,0
0,74,1,10
0,74,89,0
0,71,1,2
0,71,80,0
0,67,1,2
0,67,84,0
0,74,105,1
0,36,110,0
0,37,81,0
0,42,54,0
0,59,105,0
0,67,105,0
0,37,40,176
0,42,55,0
0,37,81,60
0,42,55,0
0,59,104,0
0,67,104,0
0,76,105,29
0,74,1,0
0,74,85,0
0,71,1,3
0,71,94,0
0,37,81,37
0,52,98,5
0,40,100,0
0,42,54,0
0,37,80,70
0,59,105,0
0,67,105,0
0,74,104,5
0,69,1,0
0,69,95,0
0,50,101,5
0,37,89,0
0,42,54,0
0,26,74,5
0,78,104,0
0,69,1,0
0,66,80,0
0,81,67,0
0,90,87,0
0,38,99,0
0,45,96,0
0,62,98,0
0,36,111,0
0,37,58,0
0,42,55,0
0,69,85,0
0,38,98,0
0,57,104,0
0,66,105,0
0,74,1,3
0,74,80,0
0,37,80,34
0,42,54,0
0,57,104,0
0,66,105,0
0,76,105,17
0,69,1,0
0,69,91,0
0,74,1,3
0,74,84,0
0,37,61,117
0,40,101,0
0,42,55,0
0,74,105,17
0,69,1,0
0,74,1,0
0,36,111,0
0,37,81,0
0,42,55,0
0,69,88,0
0,74,89,0
0,57,105,0
0,66,104,0
0,37,30,195
0,42,54,0
0,76,104,18
0,69,1,0
0,74,1,0
0,37,56,0
0,42,55,0
0,69,91,0
0,74,90,0
0,57,103,0
0,66,102,0
0,37,81,75
0,50,97,5
0,40,101,0
0,42,54,0
0,37,81,75
0,73,104,5
0,37,80,0
0,42,54,0
0,25,75,5
0,66,1,0
0,73,1,0
0,61,74,0
0,78,67,0
0,37,98,0
0,49,97,0
0,36,110,0
0,37,58,0
0,42,55,0
0,66,90,0
0,73,91,0
0,49,78,0
0,56,79,0
0,66,93,0
0,37,81,195
0,42,55,0
0,37,60,195
0,40,100,0
0,42,54,0
0,77,64,2
0,89,92,0
0,36,110,0
0,37,81,0
0,42,54,0
0,65,92,0
0,65,1,1
0,65,81,0
0,29,75,18
0,37,41,0
0,42,55,0
0,69,105,0
0,37,80,195
0,42,55,0
0,36,111,75
0,37,81,0
0,66,105,5
0,40,100,0
0,42,54,0
0,36,120,5
0,37,80,0
0,37,88,4
0,40,111,0
0,42,54,0
0,40,110,75
0,36,121,5
0,57,85,0
0,24,105,0
0,47,101,48
0,74,105,0
0,27,115,0
0,35,127,0
0,57,89,0
0,35,126,13
0,59,114,0
0,47,101,54
0,66,104,0
0,74,105,0
0,27,114,0
0,35,126,0
0,39,71,0
0,35,127,5
0,59,115,0
0,74,105,0
0,74,70,0
0,47,100,5
0,71,105,0
0,66,105,0
0,27,115,0
0,35,127,0
0,35,126,5
0,59,115,0
0,74,105,0
0,47,100,5
0,71,104,0
0,27,115,0
0,35,127,0
0,39,70,0
0,35,126,5
0,59,114,0
0,74,79,0
0,47,101,5
0,71,64,0
0,27,114,0
0,35,126,0
0,35,127,5
0,59,115,0
0,74,50,0
0,47,100,5
0,71,43,0
0,27,115,0
0,35,127,0
0,39,71,0
0,35,127,5
0,59,114,0
0,62,104,0
0,74,26,0
0,47,101,5
0,66,105,0
0,71,17,0
0,27,114,0
0,35,124,0
0,35,126,5
0,59,115,0
0,71,104,0
0,62,105,0
0,47,100,5
0,66,104,0
0,27,114,0
0,35,124,0
0,39,71,0
0,35,126,5
0,59,114,0
0,59,104,0
0,71,104,0
0,46,101,5
0,66,105,0
0,66,71,0
0,27,115,0
0,35,127,0
0,34,127,5
0,58,114,0
0,73,105,0
0,59,105,0
0,46,101,5
0,73,104,0
0,66,104,0
0,27,115,0
0,35,127,0
0,39,70,0
0,34,127,5
0,58,115,0
0,70,104,0
0,73,104,0
0,46,100,28
0,70,105,0
0,73,105,0
0,27,114,0
0,35,126,0
0,34,126,5
0,58,115,0
0,70,104,0
0,46,100,31
0,70,105,0
0,27,114,0
0,35,126,0
0,39,71,0
0,34,126,29
0,58,114,0
0,70,83,0
0,46,101,24
0,70,62,0
0,27,115,0
0,35,127,0
0,34,127,27
0,58,115,0
0,70,105,0
0,70,45,0
0,46,100,22
0,70,104,0
0,70,30,0
0,27,115,0
0,35,127,0
0,39,70,0
0,34,126,23
0,58,114,0
0,61,104,0
0,70,104,0
0,46,101,5
0,66,105,0
0,70,104,0
0,27,114,0
0,35,124,0
0,34,127,5
0,58,115,0
0,70,104,0
0,61,105,0
0,46,100,5
0,66,105,0
0,27,114,0
0,35,124,0
0,39,70,0
0,34,127,5
0,58,114,0
0,70,104,0
0,47,101,5
0,74,105,0
0,27,115,0
0,35,127,0
0,49,35,0
0,51,91,0
0,35,126,5
0,59,114,0
0,66,105,0
0,47,101,5
0,74,104,0
0,27,114,0
0,35,126,0
0,39,71,0
0,49,34,0
0,51,90,0
0,35,127,5
0,59,115,0
0,74,104,0
0,66,105,0
0,47,100,5
0,71,105,0
0,27,115,0
0,35,127,0
0,49,35,0
0,51,91,0
0,35,126,145
0,59,115,0
0,74,97,0
0,47,100,5
0,71,84,0
0,27,115,0
0,35,127,0
0,39,71,0
0,49,35,0
0,51,91,0
0,35,126,5
0,59,114,0
0,74,72,0
0,47,101,5
0,71,63,0
0,27,114,0
0,35,126,0
0,49,34,0
0,51,90,0
0,35,127,5
0,59,115,0
0,74,50,0
0,47,100,5
0,71,39,0
0,27,115,0
0,35,127,0
0,39,70,0
0,49,35,0
0,51,91,0
0,35,127,5
0,59,114,0
0,62,104,0
0,47,101,5
0,66,104,0
0,27,114,0
0,35,124,0
0,49,34,0
0,51,90,0
0,35,126,5
0,59,115,0
0,71,105,0
0,62,105,0
0,47,100,5
0,66,104,0
0,27,114,0
0,35,124,0
0,39,70,0
0,49,34,0
0,51,90,0
0,35,126,5
0,59,114,0
0,59,105,0
0,71,105,0
0,46,101,42
0,66,104,0
0,27,115,0
0,35,127,0
0,49,35,0
0,51,91,0
0,34,127,5
0,58,114,0
0,73,104,0
0,59,104,0
0,46,101,42
0,73,105,0
0,66,104,0
0,27,115,0
0,35,127,0
0,39,71,0
0,49,35,0
0,51,91,0
0,34,127,5
0,58,115,0
0,70,105,0
0,73,105,0
0,46,100,28
0,70,104,0
0,73,105,0
0,27,114,0
0,35,126,0
0,49,36,0
0,51,90,0
0,34,126,5
0,58,115,0
0,70,104,0
0,46,100,31
0,70,98,0
0,27,114,0
0,35,126,0
0,39,71,0
0,49,36,0
0,51,90,0
0,34,126,23
0,58,114,0
0,70,87,0
0,46,101,24
0,70,77,0
0,27,115,0
0,35,127,0
0,49,35,0
0,51,93,0
0,34,127,23
0,58,115,0
0,70,104,0
0,70,64,0
0,38,103,0
0,46,100,22
0,70,105,0
0,70,54,0
0,27,115,0
0,35,127,0
0,38,102,0
0,39,70,0
0,49,35,0
0,51,93,0
0,34,126,4
0,58,114,0
0,61,104,0
