track,note,velocity,time
0,60,65,45
0,84,102,0
0,60,39,0
0,84,92,0
0,67,51,1
0,67,26,0
0,84,95,11
0,84,85,0
0,72,66,28
0,72,41,0
0,83,93,7
0,83,82,0
0,67,48,5
0,67,24,0
0,83,106,118
0,83,97,0
0,79,93,28
0,79,82,0
0,60,59,7
0,60,34,0
0,77,106,10
0,77,97,0
0,67,58,2
0,67,35,0
0,76,85,57
0,76,74,0
0,72,69,12
0,72,42,0
0,67,46,100
0,67,22,0
0,57,74,6
0,84,103,0
0,57,51,0
0,84,93,0
0,64,74,5
0,64,48,0
0,84,95,14
0,84,84,0
0,69,75,3
0,69,49,0
0,83,92,7
0,83,82,0
0,64,75,12
0,64,51,0
0,83,106,40
0,83,97,0
0,79,92,28
0,79,82,0
0,57,75,7
0,57,51,0
0,77,107,31
0,77,96,0
0,64,74,7
0,64,48,0
0,76,84,27
0,76,75,0
0,69,75,12
0,69,49,0
0,64,75,28
0,64,50,0
0,81,78,159
0,81,68,0
0,52,74,3
0,52,51,0
0,81,77,11
0,81,67,0
0,59,74,37
0,59,48,0
0,83,69,4
0,83,58,0
0,83,77,63
0,83,67,0
0,64,74,10
0,64,48,0
0,59,75,138
0,59,51,0
0,84,78,154
0,84,69,0
0,52,74,8
0,52,50,0
0,81,85,126
0,81,75,0
0,59,75,9
0,59,48,0
0,83,86,125
0,83,76,0
0,64,74,10
0,64,49,0
0,59,75,128
0,59,51,0
0,84,81,155
0,84,70,0
0,55,74,7
0,55,50,0
0,62,74,135
0,84,79,0
0,62,49,0
0,84,69,0
0,86,72,15
0,86,62,0
0,86,77,56
0,86,66,0
0,67,75,3
0,67,49,0
0,83,80,95
0,83,70,0
0,62,75,2
0,62,51,0
0,84,76,38
0,84,67,0
0,69,113,34
0,83,80,4
0,83,70,0
0,55,75,9
0,55,51,0
0,81,71,15
0,81,60,0
0,62,74,40
0,79,70,0
0,62,48,0
0,79,61,0
0,79,79,15
0,79,69,0
0,67,75,120
0,67,48,0
0,79,117,0
0,86,112,108
0,62,74,7
0,62,50,0
0,91,121,7
0,88,117,39
0,35,127,108
0,67,91,3
0,72,92,2
0,57,95,0
0,76,87,0
0,84,86,4
0,84,105,0
0,84,110,5
0,48,87,2
0,36,71,0
0,64,74,0
0,60,71,2
0,79,117,3
0,86,116,108
0,88,116,95
0,33,67,20
0,69,84,0
0,81,79,4
0,81,91,0
0,81,107,0
0,45,87,1
0,79,117,134
0,84,114,108
0,83,116,95
0,28,80,0
0,79,90,1
0,79,106,0
0,64,65,0
0,40,100,3
0,79,79,1
0,71,90,6
0,67,85,4
0,76,87,1
0,59,76,6
0,83,113,32
0,84,116,20
0,86,118,8
0,74,86,6
0,43,86,5
0,83,87,4
0,83,102,0
0,31,76,2
0,83,127,2
0,62,69,13
0,84,124,142
0,83,111,17
0,79,125,11
0,35,67,17
0,69,112,20
0,47,89,8
0,79,75,48
0,79,91,0
0,79,112,89
0,86,119,0
0,88,124,20
0,84,100,1
0,72,111,3
0,35,126,0
0,67,91,3
0,72,92,2
0,57,94,0
0,76,86,2
0,84,86,4
0,84,104,0
0,48,87,5
0,36,70,0
0,64,74,0
0,60,71,2
0,72,110,29
0,72,111,12
0,71,111,30
0,71,110,10
0,71,111,53
0,67,110,30
0,67,110,59
0,65,111,65
0,64,111,12
0,64,110,30
0,64,110,59
0,72,111,60
0,33,67,11
0,69,84,16
0,72,111,3
0,81,91,1
0,81,107,0
0,45,87,1
0,72,110,53
0,72,110,39
0,72,111,53
0,71,110,30
0,67,111,20
0,65,111,53
0,64,110,47
0,69,111,53
0,28,80,0
0,69,110,9
0,79,90,1
0,79,107,0
0,64,64,0
0,40,101,3
0,71,90,7
0,67,85,4
0,76,86,1
0,59,77,6
0,69,110,40
0,71,111,40
0,71,111,40
0,72,110,120
0,72,110,30
0,69,111,40
0,72,111,30
0,72,110,40
0,71,110,25
0,74,86,6
0,72,111,7
0,43,87,2
0,83,86,4
0,83,102,0
0,31,76,2
0,62,69,15
0,72,110,47
0,74,111,30
0,74,111,24
0,71,110,30
0,71,111,34
0,72,110,34
0,35,67,17
0,71,110,8
0,47,89,0
0,69,111,18
0,67,111,40
0,67,110,30
0,79,75,48
0,79,91,0
0,72,110,4
0,67,90,3
0,72,92,2
0,76,87,2
0,84,89,4
0,84,106,0
0,48,87,7
0,36,70,9
0,64,75,8
0,60,70,2
0,72,111,50
0,72,111,30
0,71,110,30
0,71,110,39
0,71,111,47
0,67,110,30
0,67,111,20
0,65,111,60
0,64,110,12
0,64,111,30
0,64,110,59
0,72,110,60
0,35,72,4
0,59,71,2
0,72,111,3
0,83,92,1
0,83,108,0
0,71,84,6
0,47,86,1
0,72,111,53
0,72,110,53
0,72,110,53
0,71,111,30
0,67,111,20
0,65,110,53
0,64,110,47
0,69,111,53
0,28,81,0
0,69,110,9
0,79,92,6
0,79,109,0
0,64,64,1
0,40,101,3
0,59,76,18
0,69,111,27
0,71,111,40
0,71,110,35
0,72,111,38
0,72,110,24
0,69,110,72
0,72,111,30
0,72,111,52
0,71,110,30
0,74,86,11
0,72,110,12
0,43,87,2
0,83,89,3
0,83,105,0
0,31,77,2
0,62,69,15
0,72,111,47
0,74,111,9
0,74,110,24
0,71,110,30
0,71,111,34
0,72,110,34
0,69,113,16
0,71,111,13
0,69,111,18
0,67,110,40
0,67,111,30
0,36,127,3
0,72,110,0
0,35,127,0
0,57,91,0
0,54,63,2
0,67,91,1
0,72,92,2
0,82,71,0
0,76,87,2
0,84,91,4
0,84,106,0
0,36,72,0
0,64,76,0
0,60,73,2
0,69,55,45
0,54,42,3
0,72,110,2
0,82,56,25
0,48,122,0
0,72,111,0
0,42,95,0
0,54,53,1
0,69,48,25
0,71,111,5
0,54,43,2
0,82,63,34
0,36,127,3
0,71,110,0
0,40,125,0
0,42,112,0
0,54,58,3
0,69,45,22
0,54,45,10
0,82,57,42
0,48,123,0
0,71,110,0
0,42,97,0
0,54,48,5
0,69,45,25
0,67,111,5
0,54,48,2
0,82,58,15
0,36,126,0
0,67,111,0
0,35,127,0
0,42,109,0
0,54,61,6
0,69,46,35
0,54,47,7
0,82,59,55
0,48,125,0
0,65,110,0
0,42,88,0
0,54,44,3
0,69,49,9
0,54,46,5
0,82,62,7
0,36,126,5
0,64,110,0
0,40,124,0
0,42,109,0
0,54,73,0
0,69,48,25
0,64,111,5
0,54,51,1
0,82,60,54
0,48,124,0
0,64,110,0
0,42,92,0
0,54,46,1
0,69,48,55
0,72,111,5
0,54,36,1
0,33,68,11
0,54,63,14
0,82,63,0
0,69,84,2
0,33,127,2
0,72,111,0
0,35,126,0
0,42,108,0
0,81,92,1
0,81,110,0
0,69,49,85
0,54,42,3
0,82,57,48
0,45,123,0
0,72,110,0
0,42,95,0
0,54,53,1
0,69,53,84
0,54,43,7
0,82,62,34
0,33,126,3
0,72,111,0
0,40,119,0
0,42,111,0
0,54,58,3
0,69,48,82
0,54,45,10
0,82,60,48
0,45,122,0
0,72,110,0
0,35,127,0
0,42,90,0
0,54,48,5
0,69,52,25
0,71,110,5
0,54,48,2
0,82,61,15
0,33,127,0
0,67,111,0
0,35,124,0
0,42,104,0
0,54,61,3
0,69,51,17
0,54,47,7
0,82,57,48
0,45,125,0
0,65,111,0
0,42,93,0
0,54,44,3
0,69,53,45
0,54,46,5
0,82,60,42
0,33,126,2
0,64,110,0
0,40,127,0
0,42,111,0
0,54,73,0
0,69,48,83
0,54,51,6
0,82,56,48
0,45,124,0
0,69,110,0
0,42,98,0
0,54,46,1
0,69,54,84
0,54,36,6
0,28,83,0
0,54,63,8
0,82,71,0
0,28,127,2
0,69,111,0
0,35,126,0
0,42,112,0
0,79,92,1
0,79,111,0
0,64,67,0
0,71,84,10
0,67,85,4
0,76,83,1
0,59,78,3
0,69,55,85
0,54,42,3
0,69,111,12
0,82,56,75
0,40,122,0
0,42,95,0
0,54,53,1
0,71,110,40
0,69,48,25
0,54,43,6
0,82,63,30
0,28,127,3
0,71,110,0
0,40,124,0
0,42,112,0
0,54,58,3
0,69,45,61
0,54,45,10
0,82,57,80
0,40,123,0
0,42,97,0
0,54,48,5
0,69,45,33
0,72,111,5
0,54,48,2
0,82,58,19
0,28,126,0
0,72,110,0
0,35,127,0
0,42,109,0
0,54,61,3
0,69,46,82
0,54,47,7
0,82,59,67
0,40,125,0
0,69,111,0
0,42,88,0
0,54,44,3
0,69,49,25
0,72,111,5
0,54,46,0
0,82,62,47
0,28,126,5
0,72,110,0
0,40,125,0
0,42,109,0
0,54,73,0
0,69,48,25
0,71,111,5
0,54,51,1
0,82,60,84
0,40,124,0
0,42,92,0
0,54,46,1
0,69,48,25
0,54,36,6
0,74,86,6
0,82,63,2
0,31,127,2
0,72,110,0
0,35,127,0
0,42,108,0
0,54,63,5
0,83,89,1
0,83,107,0
0,31,79,4
0,62,70,0
0,69,49,80
0,54,42,3
0,82,57,42
0,43,123,0
0,72,110,0
0,42,95,0
0,54,53,1
0,69,53,23
0,74,111,5
0,54,43,2
0,82,62,19
0,31,126,3
0,74,111,0
0,40,118,0
0,42,111,0
0,54,58,3
0,69,48,25
0,71,110,5
0,54,45,5
0,82,60,29
0,43,122,0
0,71,110,0
0,35,126,0
0,42,90,0
0,54,48,5
0,69,52,29
0,72,111,5
0,54,48,2
0,82,61,24
0,54,61,3
0,31,127,0
0,71,111,0
0,35,124,0
0,42,104,0
0,69,51,13
0,69,110,5
0,54,47,2
0,82,57,35
0,43,125,0
0,67,110,0
0,42,93,0
0,54,44,3
0,69,53,25
0,67,111,5
0,54,46,0
0,82,60,47
0,79,78,1
0,79,92,0
0,54,73,1
0,31,126,3
0,40,126,0
0,42,111,0
0,69,48,85
0,54,51,6
0,82,56,84
0,43,124,0
0,42,98,0
0,54,46,1
0,69,54,84
0,54,36,6
0,36,127,2
0,72,110,0
0,35,127,0
0,57,91,0
0,54,63,2
0,67,90,1
0,72,93,2
0,82,71,0
0,76,85,2
0,84,91,4
0,84,106,0
0,36,72,16
0,64,77,0
0,60,73,2
0,69,55,45
0,54,42,3
0,72,111,2
0,82,56,25
0,48,122,0
0,72,111,0
0,42,94,0
0,54,53,1
0,69,48,25
0,71,110,5
0,54,43,2
0,82,63,34
0,36,127,3
0,71,111,0
0,40,125,0
0,42,113,0
0,54,58,3
0,69,45,22
0,54,45,10
0,82,57,42
0,48,123,0
0,71,110,0
0,42,96,0
0,54,48,5
0,69,45,25
0,67,110,5
0,54,48,2
0,82,58,15
0,36,126,0
0,67,111,0
0,35,127,0
0,42,109,0
0,54,61,6
0,69,46,35
0,54,47,7
0,82,59,55
0,48,125,0
0,65,111,0
0,42,89,0
0,54,44,3
0,69,49,9
0,54,46,5
0,82,62,25
0,36,126,5
0,64,110,0
0,40,125,0
0,42,108,0
0,54,73,0
0,69,48,25
0,64,110,5
0,54,51,1
0,82,60,54
0,48,124,0
0,64,111,0
0,42,93,0
0,54,46,1
0,69,48,55
0,72,111,5
0,54,36,1
0,35,74,4
0,54,63,0
0,82,63,0
0,59,72,2
0,35,127,2
0,72,110,0
0,35,126,0
0,42,108,0
0,83,93,1
0,83,111,0
0,71,84,6
0,69,49,85
0,54,42,3
0,82,57,48
0,47,123,0
0,72,110,0
0,42,94,0
0,54,53,1
0,69,53,74
0,54,43,7
0,82,62,48
0,35,126,3
0,72,111,0
0,40,118,0
0,42,111,0
0,54,58,3
0,69,48,82
0,54,45,10
0,82,60,48
0,47,122,0
0,72,110,0
0,35,126,0
0,42,91,0
0,54,48,5
0,69,52,25
0,71,111,5
0,54,48,2
0,82,61,15
0,35,127,0
0,67,111,0
0,35,125,0
0,42,104,0
0,54,61,3
0,69,51,17
0,54,47,7
0,82,57,48
0,47,125,0
0,65,110,0
0,42,92,0
0,54,44,3
0,69,53,45
0,54,46,5
0,82,60,42
0,35,126,5
0,64,111,0
0,40,126,0
0,42,111,0
0,54,73,0
0,69,48,83
0,54,51,6
0,82,56,48
0,47,124,0
0,69,110,0
0,42,99,0
0,54,46,1
0,69,54,84
0,54,36,6
0,28,83,0
0,54,63,4
0,82,71,0
0,28,127,2
0,69,110,0
0,35,126,0
0,42,112,0
0,79,92,6
0,79,110,0
0,64,75,1
0,59,78,3
0,69,55,85
0,54,42,3
0,69,111,12
0,82,56,75
0,40,122,0
0,42,94,0
0,54,53,1
0,71,111,40
0,69,48,14
0,54,43,7
0,82,63,35
0,28,127,3
0,71,110,0
0,40,125,0
0,42,113,0
0,54,58,3
0,69,45,82
0,54,45,2
0,82,57,41
0,40,123,0
0,42,96,0
0,54,48,5
0,69,45,19
0,72,110,5
0,54,48,2
0,82,58,25
0,28,126,0
0,72,111,0
0,35,127,0
0,42,109,0
0,54,61,3
0,69,46,11
0,54,47,7
0,82,59,67
0,40,125,0
0,69,111,0
0,42,89,0
0,54,44,3
0,69,49,3
0,72,110,5
0,54,46,0
0,82,62,17
0,28,126,5
0,71,110,0
0,40,125,0
0,42,108,0
0,54,73,0
0,69,48,25
0,71,111,5
0,54,51,1
0,82,60,84
0,40,124,0
0,42,93,0
0,54,46,1
0,69,48,52
0,72,110,5
0,54,36,1
0,74,86,11
0,82,63,7
0,31,127,2
0,72,111,0
0,35,127,0
0,42,108,0
0,54,63,2
0,83,89,1
0,83,107,0
0,31,78,4
0,62,71,0
0,69,49,80
0,54,42,3
0,82,57,67
0,43,123,0
0,69,111,0
0,42,94,0
0,54,53,1
0,69,53,25
0,72,110,5
0,54,43,2
0,82,62,19
0,31,126,3
0,71,111,0
0,40,118,0
0,42,111,0
0,54,58,3
0,69,48,25
0,71,110,5
0,54,45,5
0,82,60,80
0,43,122,0
0,35,126,0
0,42,91,0
0,54,48,5
0,69,52,80
0,72,110,5
0,54,48,2
0,69,113,17
0,82,61,8
0,54,61,3
0,31,127,0
0,72,111,0
0,35,125,0
0,42,104,0
0,69,51,85
0,54,47,7
0,82,57,67
0,43,125,0
0,69,111,0
0,42,92,0
0,54,44,3
0,69,53,25
0,72,110,5
0,54,46,0
0,82,60,47
0,54,73,2
0,31,126,3
0,71,110,0
0,40,126,0
0,42,111,0
0,69,48,25
0,71,111,5
0,54,51,1
0,82,56,22
0,43,124,0
0,72,111,0
0,42,99,0
0,54,46,1
0,69,54,25
0,69,110,5
0,54,36,1
0,29,127,2
0,72,110,0
0,29,93,0
0,72,74,0
0,84,87,0
0,35,126,0
0,57,90,0
0,77,80,0
0,77,103,0
0,54,63,2
0,82,71,3
0,69,58,1
0,65,55,4
0,60,55,2
0,69,55,80
0,54,42,3
0,82,56,30
0,72,111,0
0,42,94,0
0,54,77,1
0,69,58,44
0,72,110,5
0,54,57,2
0,82,63,70
0,28,69,5
0,42,112,0
0,54,86,3
0,69,45,25
0,54,45,10
0,82,57,80
0,72,111,5
0,42,97,0
0,54,48,5
0,69,45,19
0,69,111,5
0,54,48,2
0,82,58,25
0,79,110,5
0,42,108,0
0,54,61,6
0,69,46,79
0,54,47,7
0,82,59,83
0,69,111,5
0,42,89,0
0,54,66,3
0,69,65,82
0,54,66,5
0,82,62,68
0,69,110,5
0,28,68,0
0,42,109,0
0,54,99,2
0,69,48,4
0,72,110,5
0,54,51,1
0,82,60,84
0,42,92,5
0,54,58,1
0,69,48,75
0,72,111,5
0,54,36,1
0,83,93,8
0,54,63,7
0,82,63,0
0,71,80,5
0,35,126,0
0,42,109,0
0,79,84,0
0,79,106,0
0,67,52,0
0,71,59,0
0,62,56,6
0,69,49,55
0,54,42,3
0,71,111,2
0,82,57,87
0,42,94,5
0,54,75,1
0,69,69,44
0,54,61,7
0,82,62,83
0,28,63,5
0,42,110,0
0,54,88,3
0,69,48,82
0,54,45,10
0,82,60,80
0,76,110,5
0,42,91,0
0,54,48,5
0,69,52,39
0,76,110,5
0,54,48,2
0,82,61,25
0,74,111,5
0,42,105,0
0,54,61,3
0,69,51,35
0,54,47,7
0,82,57,35
0,74,111,5
0,42,92,0
0,54,74,3
