track,note,velocity,time
0,61,37,0
0,32,57,0
0,61,56,0
0,63,57,0
0,66,57,0
0,68,56,0
0,49,89,0
0,69,71,0
0,82,71,0
0,18,91,0
0,63,38,0
0,66,39,0
0,69,50,0
0,82,50,0
0,68,41,0
0,61,42,0
0,39,87,0
0,69,71,0
0,82,71,0
0,63,45,0
0,66,46,0
0,69,51,0
0,82,51,0
0,68,46,0
0,61,49,0
0,69,70,0
0,82,70,0
0,63,51,0
0,66,52,0
0,69,51,0
0,82,51,0
0,68,52,0
0,61,55,0
0,39,86,0
0,69,70,0
0,82,70,0
0,63,57,0
0,66,58,0
0,69,50,0
0,82,50,0
0,68,60,0
0,61,59,0
0,46,77,0
0,69,71,0
0,82,71,0
0,63,56,0
0,68,111,0
0,66,55,0
0,69,51,0
0,82,51,0
0,68,53,0
0,68,110,0
0,61,52,0
0,39,87,0
0,46,76,0
0,69,70,0
0,82,70,0
0,63,51,0
0,68,111,0
0,66,48,0
0,69,50,0
0,82,50,0
0,68,46,0
0,68,111,0
0,61,45,0
0,46,77,0
0,69,71,0
0,82,71,0
0,63,43,0
0,66,42,0
0,28,71,0
0,69,51,0
0,82,51,0
0,68,40,0
0,68,110,0
0,61,39,0
0,28,100,0
0,39,87,0
0,46,77,0
0,69,70,0
0,82,70,0
0,63,37,0
0,71,111,0
0,66,34,0
0,69,50,0
0,82,50,0
0,68,34,0
0,32,53,0
0,36,127,0
0,49,88,0
0,44,104,0
0,44,87,0
0,63,95,0
0,68,94,0
0,32,53,0
0,70,110,0
0,36,126,0
0,44,105,0
0,71,110,0
0,44,86,0
0,63,95,0
0,68,95,0
0,27,52,0
0,73,111,0
0,36,127,0
0,39,105,0
0,44,87,0
0,58,94,0
0,63,95,0
0,27,52,0
0,70,111,0
0,36,127,0
0,39,104,0
0,71,110,0
0,44,87,0
0,58,94,0
0,63,94,0
0,23,53,12
0,36,126,0
0,35,105,0
0,44,86,0
0,54,95,0
0,59,95,0
0,23,52,62
0,36,127,0
0,35,104,0
0,68,110,0
0,44,87,0
0,54,94,0
0,59,94,0
0,28,53,0
0,70,111,0
0,36,126,0
0,40,105,0
0,44,86,0
0,59,95,0
0,64,95,0
0,28,52,0
0,70,111,0
0,36,126,0
0,40,104,0
0,71,110,0
0,44,86,0
0,59,94,0
0,64,94,0
0,32,53,12
0,36,127,0
0,44,104,0
0,44,87,0
0,63,95,0
0,68,94,0
0,32,53,0
0,70,110,0
0,36,127,0
0,44,105,0
0,71,111,0
0,44,87,0
0,63,95,0
0,68,95,0
0,27,52,0
0,73,110,0
0,36,126,0
0,39,105,0
0,44,86,0
0,58,94,0
0,63,95,0
0,27,52,0
0,75,111,0
0,36,126,0
0,39,104,0
0,71,111,0
0,44,86,0
0,58,94,0
0,63,94,0
0,23,53,62
0,36,127,0
0,35,105,0
0,44,87,0
0,54,95,0
0,59,95,0
0,23,52,0
0,70,110,0
0,36,127,0
0,35,104,0
0,70,111,0
0,44,87,0
0,54,94,0
0,59,94,0
0,28,53,0
0,70,110,0
0,36,126,0
0,40,105,0
0,44,86,0
0,59,95,0
0,64,95,0
0,28,52,0
0,70,110,0
0,36,126,0
0,40,104,0
0,71,111,0
0,44,86,0
0,59,94,0
0,64,94,0
0,32,53,12
0,36,127,0
0,44,104,0
0,44,87,0
0,63,95,0
0,68,94,0
0,32,53,62
0,36,126,0
0,44,105,0
0,44,86,0
0,63,95,0
0,68,95,0
0,27,52,0
0,75,111,0
0,36,127,0
0,39,105,0
0,44,87,0
0,58,94,0
0,63,95,0
0,27,52,0
0,75,110,0
0,36,127,0
0,39,104,0
0,71,110,0
0,44,87,0
0,58,94,0
0,63,94,0
0,23,53,62
0,36,126,0
0,35,105,0
0,44,86,0
0,54,95,0
0,59,95,0
0,23,52,0
0,71,111,0
0,36,127,0
0,35,104,0
0,71,111,0
0,44,87,0
0,54,94,0
0,59,94,0
0,28,53,0
0,70,110,0
0,36,126,0
0,40,105,0
0,44,86,0
0,59,95,0
0,64,95,0
0,28,52,0
0,70,110,0
0,36,126,0
0,40,104,0
0,68,111,0
0,44,86,0
0,59,94,0
0,64,94,0
0,25,53,62
0,36,127,0
0,37,104,0
0,44,87,0
0,56,95,0
0,61,94,0
0,25,53,62
0,36,127,0
0,37,105,0
0,68,110,0
0,44,87,0
0,56,95,0
0,61,95,0
0,28,52,0
0,73,111,0
0,36,126,0
0,40,105,0
0,44,86,0
0,59,94,0
0,64,95,0
0,28,52,0
0,73,111,0
0,36,126,0
0,40,104,0
0,70,110,0
0,44,86,0
0,59,94,0
0,64,94,0
0,27,65,12
0,36,127,0
0,49,87,0
0,39,105,220
0,56,67,0
0,61,67,0
0,56,92,62
0,61,92,0
0,39,104,145
0,38,81,0
0,47,61,0
0,56,79,0
0,61,79,0
0,68,111,0
0,38,100,0
0,47,80,0
0,56,100,0
0,61,100,0
0,39,104,12
0,38,87,0
0,45,67,0
0,56,93,0
0,61,92,0
0,68,110,0
0,38,97,0
0,45,76,0
0,56,99,0
0,61,99,0
0,37,105,0
0,71,110,0
0,38,82,0
0,43,63,0
0,56,102,0
0,61,103,0
0,32,53,0
0,36,127,0
0,49,89,0
0,44,104,0
0,46,110,0
0,69,55,0
0,63,94,0
0,68,94,0
0,82,49,5
0,69,54,25
0,82,48,5
0,32,52,0
0,70,111,0
0,36,126,0
0,38,73,0
0,39,84,0
0,42,97,0
0,69,55,100
0,82,49,5
0,44,105,0
0,71,111,0
0,46,111,0
0,69,55,0
0,63,95,0
0,68,95,0
0,82,49,5
0,27,52,0
0,73,110,0
0,36,126,0
0,42,96,0
0,39,105,0
0,46,110,0
0,69,54,0
0,58,94,0
0,63,94,0
0,82,48,5
0,69,55,25
0,82,49,5
0,27,53,0
0,70,110,0
0,36,127,0
0,38,72,0
0,39,85,0
0,42,97,0
0,69,54,100
0,82,48,5
0,39,104,0
0,71,111,0
0,46,110,0
0,69,54,0
0,58,95,0
0,63,95,0
0,82,48,5
0,23,53,12
0,36,126,0
0,42,97,0
0,35,104,0
0,46,111,0
0,69,55,0
0,54,94,0
0,59,94,0
0,82,49,5
0,69,55,25
0,82,49,5
0,23,52,62
0,36,127,0
0,38,72,0
0,39,84,0
0,42,96,0
0,69,54,100
0,82,48,5
0,35,105,0
0,46,111,0
0,69,54,0
0,54,95,0
0,59,94,0
0,82,48,5
0,28,53,0
0,70,111,0
0,36,127,0
0,42,97,0
0,40,104,0
0,46,110,0
0,69,55,0
0,59,95,0
0,64,95,0
0,82,49,5
0,69,55,12
0,82,49,5
0,28,52,0
0,70,110,0
0,36,126,0
0,38,73,0
0,39,84,0
0,42,96,0
0,69,54,100
0,82,48,5
0,40,105,0
0,71,110,0
0,46,110,0
0,69,54,0
0,59,94,0
0,64,95,0
0,82,48,5
0,32,53,12
0,36,127,0
0,42,96,0
0,44,104,0
0,46,111,0
0,69,55,0
0,63,94,0
0,68,94,0
0,82,49,5
0,69,54,25
0,82,48,5
0,32,52,0
0,70,111,0
0,36,126,0
0,38,73,0
0,39,85,0
0,42,97,0
0,69,55,12
0,82,49,5
0,44,105,0
0,71,110,0
0,46,111,0
0,69,55,0
0,63,95,0
0,68,95,0
0,82,49,5
0,27,52,0
0,73,111,0
0,36,126,0
0,42,97,0
0,39,105,0
0,46,110,0
0,69,54,0
0,58,94,0
0,63,94,0
0,82,48,5
0,69,55,12
0,82,49,5
0,27,53,0
0,75,111,0
0,36,127,0
0,38,72,0
0,39,85,0
0,42,96,0
0,69,54,12
0,82,48,5
0,39,104,0
0,71,110,0
0,46,110,0
0,69,54,0
0,58,95,0
0,63,95,0
0,82,48,5
0,23,53,62
0,36,127,0
0,42,96,0
0,35,104,0
0,46,111,0
0,69,55,0
0,54,94,0
0,59,94,0
0,82,49,5
0,69,55,25
0,82,49,5
0,23,52,0
0,70,111,0
0,36,126,0
0,38,72,0
0,39,84,0
0,42,97,0
0,69,54,12
0,82,48,5
0,35,105,0
0,70,110,0
0,46,110,0
0,69,54,0
0,54,95,0
0,59,94,0
0,82,48,5
0,28,53,0
0,70,110,0
0,36,126,0
0,42,97,0
0,40,104,0
0,46,111,0
0,69,55,0
0,59,95,0
0,64,95,0
0,82,49,5
0,69,55,12
0,82,49,5
0,28,52,0
0,70,111,0
0,36,127,0
0,38,73,0
0,39,84,0
0,42,96,0
0,69,54,100
0,82,48,5
0,40,105,0
0,71,111,0
0,46,111,0
0,69,54,0
0,59,94,0
0,64,95,0
0,82,48,5
0,32,53,12
0,36,127,0
0,42,96,0
0,44,104,0
0,46,110,0
0,69,55,0
0,63,94,0
0,68,94,0
0,82,49,5
0,69,54,25
0,82,48,5
0,32,52,62
0,36,126,0
0,38,73,0
0,39,85,0
0,42,97,0
0,69,55,100
0,82,49,5
0,44,105,0
0,46,111,0
0,69,55,0
0,63,95,0
0,68,95,0
0,82,49,5
0,27,52,0
0,75,110,0
0,36,126,0
0,42,96,0
0,39,105,0
0,46,110,0
0,69,54,0
0,58,94,0
0,63,94,0
0,82,48,5
0,69,55,12
0,82,49,5
0,27,53,0
0,75,110,0
0,36,127,0
0,38,72,0
0,39,85,0
0,42,97,0
0,69,54,100
0,82,48,5
0,39,104,0
0,71,111,0
0,46,110,0
0,69,54,0
0,58,95,0
0,63,95,0
0,82,48,5
0,23,53,62
0,36,126,0
0,42,97,0
0,35,104,0
0,46,111,0
0,69,55,0
0,54,94,0
0,59,94,0
0,82,49,5
0,69,55,25
0,82,49,5
0,23,52,0
0,71,111,0
0,36,127,0
0,38,72,0
0,39,84,0
0,42,96,0
0,69,54,12
0,82,48,5
0,35,105,0
0,71,110,0
0,46,111,0
0,69,54,0
0,54,95,0
0,59,94,0
0,82,48,5
0,28,53,0
0,70,110,0
0,36,127,0
0,42,97,0
0,40,104,0
0,46,110,0
0,69,55,0
0,59,95,0
0,64,95,0
0,82,49,5
0,69,55,12
0,82,49,5
0,28,52,0
0,70,111,0
0,36,126,0
0,38,73,0
0,39,84,0
0,42,96,0
0,69,54,100
0,82,48,5
0,40,105,0
0,68,110,0
0,46,110,0
0,69,54,0
0,59,94,0
0,64,95,0
0,82,48,5
0,25,53,62
0,36,127,0
0,42,96,0
0,37,104,0
0,46,111,0
0,69,55,0
0,56,94,0
0,61,94,0
0,82,49,5
0,69,54,25
0,82,48,5
0,25,52,62
0,36,126,0
0,38,72,0
0,39,85,0
0,42,97,0
0,69,55,100
0,82,49,5
0,37,105,0
0,68,111,0
0,46,111,0
0,69,55,0
0,56,95,0
0,61,95,0
0,82,49,5
0,28,52,0
0,73,111,0
0,36,126,0
0,42,97,0
0,40,105,0
0,46,110,0
0,69,54,0
0,59,94,0
0,64,94,0
0,82,48,5
0,69,55,12
0,82,49,5
0,28,53,0
0,73,110,0
0,36,127,0
0,38,73,0
0,39,84,0
0,42,96,0
0,69,54,100
0,82,48,5
0,40,104,0
0,70,111,0
0,46,110,0
0,69,54,0
0,59,95,0
0,64,95,0
0,82,48,5
0,27,65,12
0,36,127,0
0,38,29,0
0,42,96,0
0,49,88,0
0,58,79,0
0,68,84,16
0,63,79,2
0,61,79,0
0,38,30,10
0,38,31,10
0,38,30,10
0,38,32,10
0,38,33,10
0,38,33,10
0,38,34,10
0,39,104,10
0,38,34,0
0,46,111,0
0,58,108,0
0,61,108,0
0,68,109,0
0,38,35,10
0,38,35,10
0,38,36,10
0,38,36,10
0,38,37,10
0,38,38,2
0,38,39,10
0,38,39,10
0,39,85,0
0,42,97,0
0,58,116,0
0,61,117,0
0,68,117,0
0,38,38,10
0,38,41,10
0,38,40,10
0,38,40,10
0,38,43,10
0,38,43,10
0,38,42,10
0,39,104,10
0,38,42,0
0,46,110,0
0,48,77,0
0,58,108,0
0,61,109,0
0,68,108,0
0,38,45,10
0,38,45,10
0,38,44,10
0,38,46,10
0,38,47,10
0,38,46,2
0,38,47,10
0,38,49,10
0,42,97,0
0,48,108,0
0,58,116,0
0,61,117,0
0,68,117,0
0,38,48,10
0,38,49,10
0,38,50,10
0,38,50,10
0,38,51,10
0,38,53,10
0,38,52,10
0,39,105,10
0,38,52,0
0,46,111,0
0,47,93,0
0,58,108,0
0,61,108,0
0,68,109,0
0,38,53,10
0,38,55,10
0,38,54,10
0,38,54,10
0,38,55,10
0,38,56,2
0,38,57,10
0,38,57,10
0,39,85,0
0,42,96,0
0,58,117,0
0,61,116,0
0,68,116,0
0,38,58,10
0,38,59,10
0,38,58,10
0,38,60,10
0,38,61,10
0,38,61,10
0,38,60,10
0,37,105,10
0,38,62,0
0,45,101,0
0,46,111,0
0,58,109,0
0,61,108,0
0,68,109,0
0,38,63,10
0,38,63,10
0,38,64,10
0,38,64,10
0,38,65,10
0,38,64,2
0,38,67,0
0,42,96,9
0,40,104,0
0,80,110,0
0,80,1,0
0,83,1,0
0,40,55,0
0,59,56,0
0,64,57,0
0,68,57,0
0,36,126,0
0,49,89,0
0,69,71,0
0,82,71,0
0,52,77,0
0,59,76,0
0,64,77,0
0,68,77,0
0,75,96,0
0,18,126,0
0,69,51,132
0,82,51,0
0,71,110,0
0,39,86,0
0,69,70,0
0,82,70,0
0,71,89,0
0,73,111,0
0,82,1,0
0,69,50,0
0,82,50,0
0,73,88,0
0,71,56,220
0,69,71,0
0,82,71,0
0,75,111,0
0,83,1,0
0,69,51,0
0,82,51,0
0,75,88,0
0,39,87,12
0,69,70,0
0,82,70,0
0,37,108,0
0,78,1,0
0,82,1,0
0,37,59,0
0,69,50,0
0,82,50,0
0,54,77,0
0,61,77,0
0,68,76,0
0,70,76,0
0,73,89,0
0,42,117,0
0,42,66,0
0,61,56,0
0,66,57,0
0,70,57,0
0,46,76,0
0,69,71,0
0,82,71,0
0,69,50,61
0,82,50,0
0,39,86,220
0,46,77,0
0,69,71,0
0,82,71,0
0,69,51,220
0,82,51,0
0,46,76,12
0,69,70,0
0,82,70,0
0,28,71,220
0,69,51,0
0,82,51,0
0,28,101,220
0,39,86,0
0,46,76,0
0,69,70,0
0,82,70,0
0,66,110,0
0,75,1,0
0,80,1,0
0,69,50,0
0,82,50,0
0,66,89,0
0,40,105,0
0,68,110,0
0,76,1,0
0,40,54,0
0,59,56,0
0,64,57,0
0,68,57,0
0,69,71,0
0,82,71,0
0,52,76,0
0,59,76,0
0,64,77,0
0,68,88,0
0,69,51,12
0,82,51,0
0,71,111,0
0,39,87,0
0,69,70,0
0,82,70,0
0,71,89,0
0,73,111,0
0,69,50,0
0,82,50,0
0,73,89,0
0,37,108,0
0,37,58,0
0,61,56,0
0,69,71,0
0,82,71,0
0,49,76,0
0,56,77,0
0,61,76,0
0,71,110,0
0,69,51,0
0,82,51,0
0,71,88,0
0,39,87,12
0,69,70,0
0,82,70,0
0,69,50,220
0,82,50,0
0,42,116,0
0,42,67,0
0,66,56,0
0,70,57,0
0,69,71,0
0,82,71,0
0,54,77,0
0,66,77,0
0,68,76,0
0,73,76,0
0,69,50,220
0,82,50,0
0,39,86,220
0,69,71,0
0,82,71,0
0,69,51,220
0,82,51,0
0,69,70,220
0,82,70,0
0,68,110,0
0,75,1,0
0,80,1,0
0,69,51,0
0,82,51,0
0,68,89,0
0,71,111,0
0,39,86,0
0,69,70,0
0,82,70,0
0,71,99,0
0,68,110,0
0,69,50,0
0,82,50,0
0,68,88,0
0,40,117,0
0,75,111,0
0,40,67,0
0,64,56,0
0,71,57,0
0,69,71,0
0,82,71,0
0,52,76,0
0,59,77,0
0,64,76,0
0,75,99,0
0,73,111,0
0,69,51,0
0,82,51,0
0,73,89,0
0,71,110,0
0,39,87,0
0,69,70,0
0,82,70,0
0,71,88,0
0,73,111,0
0,69,50,0
0,82,50,0
0,73,99,0
0,69,71,12
0,82,71,0
0,69,51,12
0,82,51,0
0,39,87,220
0,69,70,0
0,82,70,0
0,69,50,220
0,82,50,0
0,44,116,0
0,80,110,0
0,75,1,0
0,80,1,0
0,83,1,0
0,44,66,0
0,59,56,0
0,63,57,0
0,46,77,0
