track,note,velocity,time
2,34,100,20
2,29,100,0
2,31,100,0
2,26,100,0
2,29,100,0
2,31,100,0
2,34,100,20
2,29,100,0
2,31,100,0
2,26,100,0
2,29,100,0
2,31,100,0
2,34,100,20
2,29,100,0
2,31,100,0
2,26,100,0
2,29,100,0
2,31,100,0
2,34,100,744
2,34,100,296
2,34,100,296
2,34,100,296
2,34,100,296
2,34,100,296
2,34,100,296
2,34,100,296
2,34,100,296
2,34,100,296
2,34,100,296
2,34,100,296
2,34,100,296
2,34,100,296
2,34,100,296
2,34,100,744
2,34,100,296
2,34,100,296
2,34,100,296
2,34,100,296
2,34,100,296
2,34,100,296
2,34,100,296
2,34,100,296
2,34,100,296
2,34,100,296
2,34,100,296
2,34,100,296
2,34,100,296
2,34,100,296
2,34,100,744
2,34,100,296
2,34,100,296
2,34,100,296
2,34,100,296
2,34,100,296
2,34,100,296
2,34,100,296
2,34,100,296
2,34,100,296
2,34,100,296
2,34,100,296
2,34,100,296
2,34,100,296
2,34,100,296
2,34,100,744
2,34,100,296
2,34,100,296
2,34,100,296
2,34,100,296
2,34,100,296
2,34,100,296
2,34,100,296
2,34,100,296
2,34,100,296
2,34,100,296
2,34,100,296
2,34,100,296
2,34,100,296
2,34,100,296
2,34,100,744
2,34,100,296
2,34,100,296
2,34,100,296
2,34,100,296
2,34,100,296
2,34,100,296
2,34,100,296
2,34,100,296
2,34,100,296
2,34,100,296
2,34,100,296
2,34,100,296
2,34,100,296
2,34,100,296
2,34,100,20
2,29,100,0
2,31,100,0
2,26,100,0
2,29,100,0
2,31,100,0
2,34,100,20
2,29,100,0
2,31,100,0
2,26,100,0
2,29,100,0
2,31,100,0
3,48,100,40
3,47,100,36
3,46,100,8
3,45,100,8
3,44,100,4
3,43,100,36
3,42,100,24
3,41,100,0
3,60,100,0
3,61,100,0
3,62,100,0
3,63,100,0
3,64,100,0
3,65,100,0
3,66,100,0
3,67,100,0
3,57,100,2332
3,58,100,0
3,55,100,0
3,58,100,4
3,60,100,0
3,60,100,12
3,57,100,0
3,58,100,0
3,53,100,4
3,58,100,8
3,62,100,8
3,63,100,240
3,62,100,0
3,60,100,8
3,58,100,8
3,53,100,0
3,58,100,240
3,60,100,8
3,60,100,8
3,57,100,240
3,58,100,8
3,53,100,460
3,58,100,8
3,62,100,8
3,57,100,2332
3,58,100,0
3,55,100,0
3,58,100,4
3,60,100,0
3,60,100,12
3,57,100,0
3,58,100,0
3,53,100,4
3,58,100,8
3,62,100,8
3,63,100,240
3,62,100,0
3,60,100,8
3,58,100,8
3,53,100,0
3,58,100,240
3,60,100,8
3,60,100,8
3,57,100,240
3,58,100,8
3,53,100,460
3,58,100,8
3,62,100,8
3,50,100,340
3,55,100,240
3,58,100,0
3,60,100,12
3,46,100,240
3,53,100,236
3,57,100,4
3,58,100,0
3,43,100,0
3,50,100,240
3,53,100,236
3,55,100,8
3,53,100,124
3,58,100,240
3,62,100,16
3,63,100,12
3,55,100,0
3,62,100,4
3,60,100,240
3,58,100,16
3,50,100,240
3,55,100,228
3,58,100,0
3,60,100,12
3,50,100,240
3,53,100,236
3,57,100,4
3,58,100,0
3,69,100,2332
3,70,100,0
3,67,100,0
3,70,100,4
3,72,100,0
3,72,100,12
3,69,100,0
3,70,100,0
3,65,100,4
3,70,100,8
3,74,100,8
3,75,100,240
3,74,100,0
3,72,100,8
3,70,100,8
3,65,100,0
3,70,100,240
3,72,100,8
3,72,100,8
3,69,100,240
3,70,100,8
3,65,100,460
3,70,100,8
3,74,100,8
3,57,100,2332
3,58,100,0
3,55,100,0
3,58,100,4
3,60,100,0
3,60,100,12
3,57,100,0
3,58,100,0
3,53,100,4
3,58,100,8
3,62,100,8
3,63,100,240
3,62,100,0
3,60,100,8
3,58,100,8
3,53,100,0
3,58,100,240
3,60,100,8
3,60,100,8
3,57,100,240
3,58,100,8
3,53,100,460
3,58,100,8
3,62,100,8
4,83,110,28
4,84,110,0
4,89,110,0
4,88,110,0
4,60,100,0
4,61,100,0
4,62,100,0
4,63,100,0
4,64,100,0
4,65,100,0
4,66,100,0
4,67,100,0
4,58,100,100
4,50,100,4
4,55,100,240
4,58,100,0
4,60,100,12
4,53,100,240
4,57,100,4
4,58,100,0
4,55,100,240
4,58,100,240
4,62,100,16
4,63,100,12
4,55,100,0
4,62,100,4
4,60,100,240
4,58,100,16
4,50,100,240
4,55,100,228
4,58,100,0
4,60,100,12
4,53,100,240
4,57,100,4
4,58,100,0
4,55,100,240
4,58,100,240
4,62,100,16
4,63,100,12
4,55,100,0
4,62,100,4
4,60,100,240
4,55,100,3292
4,60,100,244
4,57,100,248
4,53,100,484
4,62,100,248
4,62,100,476
4,58,100,248
4,58,100,240
4,60,100,248
4,58,100,236
4,58,100,220
4,55,100,3292
4,60,100,244
4,57,100,248
4,53,100,484
4,62,100,248
4,62,100,476
4,58,100,248
4,58,100,240
4,60,100,248
4,58,100,236
4,58,100,220
4,62,100,340
4,67,100,240
4,70,100,0
4,72,100,12
4,58,100,240
4,65,100,0
4,69,100,0
4,70,100,240
4,55,100,232
4,62,100,0
4,65,100,240
4,67,100,4
4,65,100,120
4,70,100,240
4,74,100,16
4,75,100,12
4,67,100,12
4,74,100,4
4,72,100,240
4,70,100,16
4,62,100,228
4,67,100,216
4,70,100,0
4,72,100,12
4,62,100,240
4,65,100,0
4,69,100,0
4,70,100,240
4,69,100,2332
4,70,100,0
4,67,100,0
4,70,100,4
4,72,100,0
4,72,100,12
4,69,100,0
4,70,100,0
4,65,100,4
4,70,100,8
4,74,100,8
4,75,100,240
4,74,100,0
4,72,100,8
4,70,100,8
4,65,100,0
4,70,100,240
4,72,100,8
4,72,100,8
4,69,100,240
4,70,100,8
4,65,100,460
4,70,100,8
4,74,100,8
4,69,100,2332
4,70,100,0
4,67,100,0
4,70,100,4
4,72,100,0
4,72,100,12
4,69,100,0
4,70,100,0
4,65,100,4
4,70,100,8
4,74,100,8
4,75,100,240
4,74,100,0
4,72,100,8
4,70,100,8
4,65,100,0
4,70,100,240
4,72,100,8
4,72,100,8
4,69,100,240
4,70,100,8
4,65,100,460
4,70,100,8
4,74,100,8
4,58,100,100
4,50,100,4
4,55,100,240
4,58,100,0
4,60,100,12
4,53,100,240
4,57,100,4
4,58,100,0
4,55,100,240
4,58,100,240
4,62,100,16
4,63,100,12
4,55,100,0
4,62,100,4
4,60,100,240
4,58,100,16
4,50,100,240
4,55,100,228
4,58,100,0
4,60,100,12
4,53,100,240
4,57,100,4
4,58,100,0
4,55,100,240
4,58,100,240
4,62,100,16
4,63,100,12
4,55,100,0
4,62,100,4
4,60,100,240
5,60,68,28
5,64,80,0
5,57,68,0
5,60,40,24
5,36,100,3880
5,35,100,8
5,34,100,8
5,33,100,0
5,32,100,12
5,31,100,4
5,30,100,0
5,29,100,8
5,40,100,8
5,82,100,100
5,74,100,4
5,79,100,240
5,82,100,232
5,84,100,20
5,77,100,240
5,81,100,4
5,82,100,240
5,79,100,236
5,82,100,240
5,86,100,28
5,87,100,20
5,79,100,0
5,86,100,4
5,84,100,240
5,82,100,28
5,74,100,240
5,79,100,16
5,82,100,4
5,81,100,104
5,72,100,240
5,77,100,100
5,79,100,12
5,79,100,228
5,82,100,240
5,86,100,16
5,87,100,8
5,77,100,8
5,79,100,240
5,81,100,220
5,82,100,100
5,74,100,4
5,79,100,240
5,82,100,232
5,84,100,20
5,77,100,240
5,81,100,4
5,82,100,240
5,79,100,236
5,82,100,240
5,86,100,28
5,87,100,20
5,79,100,0
5,86,100,4
5,84,100,240
5,82,100,28
5,74,100,240
5,79,100,16
5,82,100,4
5,81,100,104
5,72,100,240
5,77,100,100
5,79,100,12
5,79,100,228
5,82,100,240
5,86,100,16
5,87,100,8
5,77,100,8
5,79,100,240
5,81,100,220
5,66,127,1668
5,66,127,204
5,66,127,204
5,66,127,204
5,66,127,204
5,66,127,204
5,66,127,204
5,66,127,204
5,66,127,204
5,66,127,204
5,66,127,204
5,66,127,204
5,66,127,204
5,66,127,204
5,66,127,204
5,66,127,204
5,66,127,1668
5,66,127,204
5,66,127,204
5,66,127,204
5,66,127,204
5,66,127,204
5,66,127,204
5,66,127,204
5,66,127,204
5,66,127,204
5,66,127,204
5,66,127,204
5,66,127,204
5,66,127,204
5,66,127,204
5,66,127,204
5,66,127,1668
5,66,127,204
5,66,127,204
5,66,127,204
5,66,127,204
5,66,127,204
5,66,127,204
5,66,127,204
5,66,127,204
5,66,127,204
5,66,127,204
5,66,127,204
5,66,127,204
5,66,127,204
5,66,127,204
5,66,127,204
5,82,100,100
5,74,100,4
5,79,100,240
5,82,100,232
5,84,100,20
5,77,100,240
5,81,100,4
5,82,100,240
5,79,100,236
5,82,100,240
5,86,100,28
5,87,100,20
5,79,100,0
5,86,100,4
5,84,100,240
5,82,100,28
5,74,100,240
5,79,100,16
5,82,100,4
5,81,100,104
5,72,100,240
5,77,100,100
5,79,100,12
5,79,100,228
5,82,100,240
5,86,100,16
5,87,100,8
5,77,100,8
5,79,100,240
5,81,100,220
6,70,100,100
6,62,100,4
6,67,100,240
6,70,100,0
6,72,100,12
6,65,100,240
6,69,100,4
6,70,100,0
6,67,100,240
6,70,100,240
6,74,100,16
6,75,100,12
6,67,100,0
6,74,100,4
6,72,100,240
6,70,100,16
6,62,100,240
6,67,100,228
6,70,100,0
6,72,100,12
6,65,100,240
6,69,100,4
6,70,100,0
6,67,100,240
6,70,100,240
6,74,100,16
6,75,100,12
6,67,100,0
6,74,100,4
6,72,100,240
6,70,100,100
6,62,100,4
6,67,100,240
6,70,100,0
6,72,100,12
6,65,100,240
6,69,100,4
6,70,100,0
6,67,100,240
6,70,100,240
6,74,100,16
6,75,100,12
6,67,100,0
6,74,100,4
6,72,100,240
6,70,100,16
6,62,100,240
6,67,100,228
6,70,100,0
6,72,100,12
6,65,100,240
6,69,100,4
6,70,100,0
6,67,100,240
6,70,100,240
6,74,100,16
6,75,100,12
6,67,100,0
6,74,100,4
6,72,100,240
6,70,100,100
6,62,100,4
6,67,100,240
6,70,100,0
6,72,100,12
6,65,100,240
6,69,100,4
6,70,100,0
6,67,100,240
6,70,100,240
6,74,100,16
6,75,100,12
6,67,100,0
6,74,100,4
6,72,100,240
6,70,100,16
6,62,100,240
6,67,100,228
6,70,100,0
6,72,100,12
6,65,100,240
6,69,100,4
6,70,100,0
6,67,100,240
6,70,100,240
6,74,100,16
6,75,100,12
6,67,100,0
6,74,100,4
6,72,100,240
6,82,100,1060
6,74,100,4
6,79,100,240
6,82,100,0
6,84,100,12
6,77,100,240
6,81,100,4
6,82,100,0
6,79,100,240
6,82,100,240
6,86,100,16
6,87,100,12
6,79,100,0
6,86,100,4
6,84,100,240
6,82,100,16
6,74,100,240
6,79,100,228
6,82,100,0
6,84,100,12
6,77,100,240
6,81,100,4
6,82,100,0
6,79,100,240
6,82,100,240
6,86,100,16
6,87,100,12
6,79,100,0
6,86,100,4
6,84,100,240
6,82,100,1060
6,74,100,4
6,79,100,240
6,82,100,0
6,84,100,12
6,77,100,240
6,81,100,4
6,82,100,0
6,79,100,240
6,82,100,240
6,86,100,16
6,87,100,12
6,79,100,0
6,86,100,4
6,84,100,240
6,82,100,16
6,74,100,240
6,79,100,228
6,82,100,0
6,84,100,12
6,77,100,240
6,81,100,4
6,82,100,0
6,79,100,240
6,82,100,240
6,86,100,16
6,87,100,12
6,79,100,0
6,86,100,4
6,84,100,240
6,82,100,1060
6,74,100,4
6,79,100,240
6,82,100,0
6,84,100,12
6,77,100,240
6,81,100,4
6,82,100,0
6,79,100,240
6,82,100,240
6,86,100,16
6,87,100,12
6,79,100,0
6,86,100,4
6,84,100,240
6,82,100,16
6,74,100,240
6,79,100,228
6,82,100,0
6,84,100,12
6,77,100,240
6,81,100,4
6,82,100,0
6,79,100,240
6,82,100,240
6,86,100,16
6,87,100,12
6,79,100,0
6,86,100,4
6,84,100,240
6,70,100,100
6,62,100,4
6,67,100,240
6,70,100,0
6,72,100,12
6,65,100,240
6,69,100,4
6,70,100,0
6,67,100,240
6,70,100,240
6,74,100,16
6,75,100,12
6,67,100,0
6,74,100,4
6,72,100,240
6,70,100,16
6,62,100,240
6,67,100,228
6,70,100,0
6,72,100,12
6,65,100,240
6,69,100,4
6,70,100,0
6,67,100,240
6,70,100,240
6,74,100,16
6,75,100,12
6,67,100,0
6,74,100,4
6,72,100,240
6,70,100,100
6,62,100,4
6,67,100,240
6,70,100,0
6,72,100,12
6,65,100,240
6,69,100,4
6,70,100,0
6,67,100,240
6,70,100,240
6,74,100,16
6,75,100,12
6,67,100,0
6,74,100,4
6,72,100,240
6,70,100,16
6,62,100,240
6,67,100,228
6,70,100,0
6,72,100,12
6,65,100,240
6,69,100,4
6,70,100,0
6,67,100,240
6,70,100,240
6,74,100,16
6,75,100,12
6,67,100,0
6,74,100,4
6,72,100,240
7,38,100,8868
7,38,100,0
7,40,100,0
7,40,100,0
7,41,100,4
7,41,100,0
7,53,100,0
7,49,100,4
7,42,100,40
7,46,95,200
7,42,100,200
7,46,95,200
7,42,100,200
7,46,95,192
7,42,100,192
7,46,95,200
7,42,100,200
7,46,95,200
7,42,100,200
7,46,95,212
7,42,100,200
7,46,95,192
7,42,100,192
7,46,95,200
7,42,100,200
7,46,95,200
7,42,100,200
7,46,95,200
7,42,100,200
7,46,95,192
7,42,100,192
7,46,95,200
7,42,100,20
7,46,95,200
7,95,118,0
7,40,90,0
7,40,90,40
7,42,100,40
7,40,88,0
7,95,118,40
7,40,92,0
7,46,95,40
7,40,96,0
7,40,100,40
7,95,125,40
7,42,100,0
7,40,104,0
7,40,108,40
7,46,95,40
7,40,112,0
7,95,119,40
7,40,116,0
7,42,100,60
7,40,120,0
7,40,119,60
7,46,95,60
7,40,127,0
7,40,100,40
7,49,100,0
7,91,127,20
7,42,100,8
7,46,95,140
7,91,127,200
7,42,100,0
7,46,95,180
7,42,100,200
7,91,127,0
7,46,95,180
7,91,127,192
7,42,100,0
7,46,95,160
7,42,100,200
7,91,127,0
7,46,95,160
7,42,100,200
7,91,127,0
7,46,95,180
7,91,127,200
7,42,100,0
7,46,95,180
7,91,127,192
7,42,100,0
7,46,95,160
7,91,127,200
7,42,100,0
7,46,95,160
7,91,127,200
7,42,100,0
7,46,95,180
7,91,127,200
7,42,100,0
7,46,95,180
7,42,100,192
7,91,127,0
7,46,95,160
7,42,100,20
7,91,127,0
7,46,95,160
7,42,100,200
7,91,127,0
7,46,95,180
7,42,100,200
7,91,127,0
7,46,95,180
7,42,100,192
7,91,127,0
7,46,95,160
7,49,100,20
7,49,100,0
7,91,127,0
7,42,100,8
7,46,95,140
7,91,127,200
7,42,100,0
7,46,95,180
7,42,100,200
7,91,127,0
7,46,95,180
7,91,127,192
7,42,100,0
7,46,95,160
7,42,100,200
7,91,127,0
7,46,95,160
7,91,127,200
7,42,100,0
7,46,95,180
7,91,127,200
7,42,100,0
7,46,95,180
7,91,127,192
7,42,100,0
7,46,95,160
7,91,127,200
7,42,100,0
7,46,95,160
7,91,127,200
7,42,100,0
7,46,95,180
7,91,127,200
7,42,100,0
7,46,95,180
7,42,100,192
7,91,127,0
7,46,95,160
7,42,100,20
7,91,127,0
7,46,95,160
7,42,100,200
7,91,127,0
7,38,119,20
7,38,90,52
7,38,119,0
7,46,95,32
7,38,113,100
7,42,100,32
7,91,127,0
7,38,113,20
7,38,113,52
7,46,95,32
7,38,108,80
7,42,100,32
7,91,127,0
7,38,112,8
7,38,90,52
7,46,95,52
7,38,120,8
7,38,119,60
7,49,100,20
7,49,100,0
7,38,127,8
7,36,110,840
7,35,110,0
7,35,110,312
7,36,110,0
7,35,110,300
7,36,110,0
7,35,110,316
7,36,110,0
7,35,110,300
7,36,110,0
7,35,110,300
7,36,110,0
7,35,110,320
7,36,110,0
7,35,110,316
7,36,110,0
7,35,110,312
7,36,110,0
7,35,110,296
7,36,110,0
7,35,110,308
7,36,110,0
7,35,110,336
