track,note,velocity,time
3,36,100,5
3,36,104,365
3,36,104,365
3,36,102,370
3,36,100,385
3,36,104,365
3,36,104,365
3,36,102,370
3,36,100,385
3,36,104,365
3,36,104,365
3,36,102,370
3,36,100,385
3,36,104,365
3,36,104,365
3,36,102,370
3,36,100,385
3,36,104,365
3,36,104,365
3,36,102,370
3,36,100,385
3,36,104,365
3,36,104,365
3,36,102,370
3,36,100,385
3,36,104,365
3,36,104,365
3,36,102,370
3,36,100,385
3,47,100,0
3,47,100,0
3,45,98,40
3,45,98,0
3,47,102,50
3,47,102,0
3,47,107,60
3,47,107,0
3,47,111,375
3,47,111,0
3,43,107,175
3,43,107,0
3,43,94,50
3,43,94,0
3,41,111,45
3,41,111,0
3,36,111,350
3,42,119,240
3,38,111,10
3,42,119,0
3,36,115,25
3,42,119,240
3,38,111,20
3,42,115,240
3,36,111,35
3,42,111,240
3,38,111,15
3,42,119,240
3,36,115,40
3,42,115,0
3,38,115,20
3,42,123,15
3,36,111,110
3,42,119,240
3,38,111,10
3,42,119,0
3,36,115,25
3,42,119,240
3,38,111,20
3,42,115,240
3,36,111,35
3,42,111,240
3,38,111,15
3,42,119,240
3,36,115,40
3,42,115,0
3,38,115,20
3,42,123,15
3,36,111,110
3,42,119,240
3,38,111,10
3,42,119,0
3,36,115,25
3,42,119,240
3,38,111,20
3,42,115,240
3,36,111,35
3,42,111,240
3,38,111,15
3,42,119,240
3,36,115,40
3,42,115,0
3,38,115,20
3,42,123,15
3,36,111,110
3,42,119,240
3,38,111,10
3,42,119,0
3,36,115,25
3,42,119,240
3,38,111,20
3,42,115,240
3,36,111,35
3,42,111,240
3,38,111,15
3,42,119,240
3,36,115,40
3,42,115,0
3,38,115,20
3,42,123,15
3,36,111,110
3,42,119,240
3,38,111,10
3,42,119,0
3,36,115,25
3,42,119,240
3,38,111,20
3,42,115,240
3,36,111,35
3,42,111,240
3,38,111,15
3,42,119,240
3,36,115,40
3,42,115,0
3,38,115,20
3,42,123,15
3,36,111,110
3,42,119,240
3,38,111,10
3,42,119,0
3,36,115,25
3,42,119,240
3,38,111,20
3,42,115,240
3,36,111,35
3,42,111,240
3,38,111,15
3,42,119,240
3,36,115,40
3,42,115,0
3,38,115,20
3,42,123,15
3,36,111,110
3,42,119,240
3,38,111,10
3,42,119,0
3,36,115,25
3,42,119,240
3,38,111,20
3,42,115,240
3,36,111,35
3,42,111,240
3,38,111,15
3,42,119,240
3,36,115,40
3,42,115,0
3,38,115,20
3,42,123,15
3,36,111,110
3,42,119,240
3,38,111,10
3,42,119,0
3,36,115,25
3,42,119,240
3,38,111,20
3,42,115,240
3,36,111,35
3,42,111,240
3,38,111,15
3,42,119,240
3,36,115,40
3,38,115,245
3,36,111,260
3,42,119,240
3,38,111,10
3,42,119,0
3,36,115,25
3,42,119,240
3,38,111,20
3,42,115,240
3,36,111,35
3,42,111,240
3,38,111,15
3,42,119,240
3,36,115,40
3,42,115,0
3,38,115,20
3,42,123,15
3,36,111,110
3,42,119,240
3,38,111,10
3,42,119,0
3,36,115,25
3,42,119,240
3,38,111,20
3,42,115,240
3,36,111,35
3,47,111,10
3,47,100,50
3,47,100,0
3,47,111,70
3,38,115,35
3,47,115,360
3,38,119,375
3,36,111,395
3,42,119,240
3,38,111,10
3,42,119,0
3,36,115,25
3,42,119,240
3,38,111,20
3,42,115,240
3,36,111,35
3,42,111,240
3,38,111,15
3,42,119,240
3,36,115,40
3,42,115,0
3,38,115,20
3,42,123,15
3,36,111,110
3,42,119,240
3,38,111,10
3,42,119,0
3,36,115,25
3,42,119,240
3,38,111,20
3,42,115,240
3,36,111,35
3,42,111,240
3,38,111,15
3,42,119,240
3,36,115,40
3,42,115,0
3,38,115,20
3,42,123,15
3,36,111,110
3,42,119,240
3,38,111,10
3,42,119,0
3,36,115,25
3,42,119,240
3,38,111,20
3,42,115,240
3,36,111,35
3,42,111,240
3,38,111,15
3,42,119,240
3,36,115,40
3,42,115,0
3,38,115,20
3,42,123,15
3,36,111,110
3,42,119,240
3,38,111,10
3,42,119,0
3,36,115,25
3,42,119,240
3,38,111,20
3,42,115,240
3,36,111,35
3,42,111,240
3,38,111,15
3,42,119,240
3,36,115,40
3,42,115,0
3,38,115,20
3,42,123,15
3,36,111,110
3,42,119,240
3,38,111,10
3,42,119,0
3,36,115,25
3,42,119,240
3,38,111,20
3,42,115,240
3,36,111,35
3,50,95,5
3,50,91,45
3,48,98,0
3,50,100,25
3,50,100,45
3,47,107,610
3,47,97,55
3,45,111,45
3,36,111,365
3,42,119,240
3,38,111,10
3,42,119,0
3,36,115,25
3,42,119,240
3,38,111,20
3,42,115,240
3,36,111,35
3,42,111,240
3,38,111,15
3,42,119,240
3,36,115,40
3,42,115,0
3,38,115,20
3,42,123,15
3,36,111,110
3,42,119,240
3,38,111,10
3,42,119,0
3,36,115,25
3,42,119,240
3,38,111,20
3,42,115,240
3,36,111,35
3,42,111,240
3,38,111,15
3,42,119,240
3,36,115,40
3,42,115,0
3,38,115,20
3,42,123,15
3,36,111,110
3,42,119,240
3,38,111,10
3,42,119,0
3,36,115,25
3,42,119,240
3,38,111,20
3,42,115,240
3,36,111,35
3,42,111,240
3,38,111,15
3,42,119,240
3,36,115,40
3,42,115,0
3,38,115,20
3,42,123,15
3,36,111,110
3,42,119,240
3,38,111,10
3,42,119,0
3,36,115,25
3,42,119,240
3,38,111,20
3,42,115,240
3,36,111,35
3,42,111,240
3,38,111,15
3,42,119,240
3,36,115,40
3,42,115,0
3,38,115,20
3,42,123,15
3,36,111,110
3,42,119,240
3,38,111,10
3,42,119,0
3,36,115,25
3,42,119,240
3,38,111,20
3,42,115,240
3,36,111,35
3,42,111,240
3,38,111,15
3,42,119,240
3,38,115,520
3,36,111,260
3,42,119,240
3,38,111,10
3,42,119,0
3,36,115,25
3,42,119,240
3,38,111,20
3,42,115,240
3,36,111,35
3,42,111,240
3,38,111,15
3,42,119,240
3,36,115,40
3,42,115,0
3,38,115,20
3,42,123,15
3,36,111,110
3,42,119,240
3,38,111,10
3,42,119,0
3,36,115,25
3,42,119,240
3,38,111,20
3,42,115,240
3,36,111,35
3,42,111,240
3,38,111,15
3,42,119,240
3,36,115,40
3,42,115,0
3,38,115,20
3,42,123,15
3,36,111,110
3,42,119,240
3,38,111,10
3,42,119,0
3,36,115,25
3,42,119,240
3,38,111,20
3,42,115,240
3,36,111,35
3,42,111,240
3,38,111,15
3,42,119,240
3,36,115,40
3,38,115,245
3,36,111,260
3,42,119,240
3,38,111,10
3,42,119,0
3,36,115,25
3,42,119,240
3,38,111,20
3,42,115,240
3,36,111,35
3,42,111,240
3,38,111,15
3,42,119,240
3,36,115,40
3,42,115,0
3,38,115,20
3,42,123,15
3,36,111,110
3,42,119,240
3,38,111,10
3,42,119,0
3,36,115,25
3,42,119,240
3,38,111,20
3,42,115,240
3,36,111,35
3,42,111,240
3,38,111,15
3,42,119,240
3,36,115,40
3,42,115,0
3,38,115,20
3,42,123,15
3,36,111,110
3,42,119,240
3,38,111,10
3,42,119,0
3,36,115,25
3,42,119,240
3,38,111,20
3,42,115,240
3,36,111,35
3,42,111,240
3,38,111,15
3,42,119,240
3,36,115,40
3,42,115,0
3,38,115,20
3,42,123,15
3,36,111,110
3,42,119,240
3,38,111,10
3,42,119,0
3,36,115,25
3,42,119,240
3,38,111,20
3,42,115,240
3,36,111,35
3,42,111,240
3,38,111,15
3,42,119,240
3,36,115,40
3,42,115,0
3,38,115,20
3,42,123,15
3,36,111,110
3,42,119,240
3,38,111,10
3,42,119,0
3,36,115,25
3,42,119,240
3,38,111,20
3,42,115,240
3,36,111,35
3,42,111,240
3,38,111,15
3,42,119,240
3,36,115,40
3,42,115,0
3,38,115,20
3,42,123,15
3,36,111,110
3,42,119,240
3,38,111,10
3,42,119,0
3,36,115,25
3,42,119,240
3,38,111,20
3,42,115,240
3,36,111,35
3,42,111,240
3,38,111,15
3,42,119,240
3,36,115,40
3,42,115,0
3,38,115,20
3,42,123,15
3,36,111,110
3,42,119,240
3,38,111,10
3,42,119,0
3,36,115,25
3,42,119,240
3,38,111,20
3,42,115,240
3,36,111,35
3,42,111,240
3,38,111,15
3,42,119,240
3,36,115,40
3,42,115,0
3,38,115,20
3,42,123,15
3,36,111,110
3,42,119,240
3,38,111,10
3,42,119,0
3,36,115,25
3,42,119,240
3,38,111,20
3,42,115,240
3,36,111,35
3,42,111,240
3,38,111,15
3,42,119,240
3,36,115,40
3,42,115,0
3,38,115,20
3,42,123,15
3,36,111,110
3,42,119,240
3,38,111,10
3,42,119,0
3,36,115,25
3,42,119,240
3,38,111,20
3,42,115,240
3,36,111,35
3,42,111,240
3,38,111,15
3,42,119,240
3,36,115,40
3,42,115,0
3,38,115,20
3,42,123,15
3,36,111,110
3,42,119,240
3,38,111,10
3,42,119,0
3,36,115,25
3,42,119,240
3,38,111,20
3,42,115,240
3,36,111,35
3,42,111,240
3,38,111,15
3,42,119,240
3,38,115,520
3,36,111,260
3,42,119,240
3,38,111,10
3,42,119,0
3,36,115,25
3,42,119,240
3,38,111,20
3,42,115,240
3,36,111,35
3,42,111,240
3,38,111,15
3,42,119,240
3,36,115,40
3,42,115,0
3,38,115,20
3,42,123,15
3,36,111,110
3,42,119,240
3,38,111,10
3,42,119,0
3,36,115,25
3,42,119,240
3,38,111,20
3,42,115,240
3,36,111,35
3,42,111,240
3,38,111,15
3,42,119,240
3,36,115,40
3,42,115,0
3,38,115,20
3,42,123,15
3,36,111,110
3,42,119,240
3,38,111,10
3,42,119,0
3,36,115,25
3,42,119,240
3,38,111,20
3,42,115,240
3,36,111,35
3,42,111,240
3,38,111,15
3,42,119,240
3,36,115,40
3,42,115,0
3,38,115,20
3,42,123,15
3,36,111,110
3,42,119,240
3,38,111,10
3,42,119,0
3,36,115,25
3,42,119,240
3,38,111,20
3,42,115,240
3,36,111,35
3,42,111,240
3,38,111,15
3,42,119,240
3,36,115,40
3,42,115,0
3,38,115,20
3,42,123,15
3,36,111,110
3,42,119,240
3,38,111,10
3,42,119,0
3,36,115,25
3,42,119,240
3,38,111,20
3,42,115,240
3,36,111,35
3,42,111,240
3,38,111,15
3,42,119,240
3,36,115,40
3,42,115,0
3,38,115,20
3,42,123,15
3,36,111,110
3,42,119,240
3,38,111,10
3,42,119,0
3,36,115,25
3,42,119,240
3,38,111,20
3,42,115,240
3,36,111,35
3,42,111,240
3,38,111,15
3,42,119,240
3,36,115,40
3,42,115,0
3,38,115,20
3,42,123,15
3,36,111,110
3,42,119,240
3,38,111,10
3,42,119,0
3,36,115,25
3,42,119,240
3,38,111,20
3,42,115,240
3,36,111,35
3,42,111,240
3,38,111,15
3,42,119,240
3,36,115,40
3,42,115,0
3,38,115,20
3,42,123,15
3,36,111,110
3,42,119,240
3,38,111,10
3,42,119,0
3,36,115,25
3,42,119,240
3,38,111,20
3,42,115,240
4,47,97,3450
4,47,94,130
4,47,98,85
4,47,92,1585
4,47,91,85
4,47,90,80
4,47,86,70
4,47,91,75
4,47,94,100
4,47,90,65
4,47,92,80
4,47,95,95
4,47,100,70
4,47,97,880
4,47,90,70
4,47,95,130
4,47,95,90
4,47,94,70
4,47,97,75
4,47,98,210
4,47,97,90
4,47,95,80
4,47,98,80
4,47,100,135
4,47,97,1490
4,47,91,55
4,47,92,55
4,47,88,45
4,47,102,85
4,47,104,155
4,47,104,1505
4,47,111,170
4,47,115,330
4,52,104,1065
4,52,97,55
4,52,100,80
4,52,100,170
4,52,100,185
4,52,97,70
4,52,102,165
4,52,100,270
4,52,94,65
4,52,92,60
4,52,91,60
4,52,92,70
4,52,90,65
4,52,95,75
4,52,102,195
4,52,98,190
4,52,100,70
4,52,104,170
4,52,102,300
4,52,95,60
4,52,94,60
4,52,92,55
4,52,98,75
4,52,102,180
4,52,102,185
4,52,100,175
4,52,100,75
4,52,100,155
4,52,102,280
4,52,95,65
4,52,95,60
4,52,92,60
4,52,95,75
4,52,92,60
4,52,98,70
4,52,102,180
4,52,100,180
4,52,100,80
4,52,102,155
4,52,107,265
4,52,97,65
4,52,94,65
4,52,94,60
4,52,98,70
4,52,100,175
4,52,102,185
4,52,94,60
4,52,91,60
4,52,92,65
4,52,100,75
4,52,100,180
4,52,102,180
4,52,91,60
4,52,92,55
4,52,92,60
4,52,95,65
4,52,92,60
4,52,91,60
4,52,92,65
4,52,91,65
4,52,91,60
4,52,94,65
4,52,92,70
4,52,98,70
4,52,100,175
4,52,100,180
4,52,91,60
4,52,92,65
4,52,92,70
4,52,97,70
4,52,100,180
4,52,97,175
4,52,91,60
4,52,97,70
4,52,100,175
4,52,95,60
4,52,97,60
4,52,102,190
4,52,100,160
4,52,91,60
4,52,91,65
4,52,86,60
4,52,91,65
4,52,89,60
4,52,90,60
4,52,89,65
4,52,91,65
4,52,91,65
4,52,94,75
4,52,97,165
4,52,98,180
4,52,91,70
4,52,91,60
4,52,90,70
4,52,100,80
4,52,98,170
4,52,94,70
4,52,91,65
4,52,89,60
4,52,89,70
4,52,88,75
4,52,92,75
4,52,95,145
4,52,95,100
4,52,92,50
4,52,94,155
4,52,88,60
4,52,97,85
4,52,95,175
4,52,95,95
4,52,92,60
4,52,89,65
4,52,90,60
4,52,89,60
4,52,91,65
4,52,98,175
4,52,100,175
4,52,97,175
4,52,91,65
4,52,98,75
4,52,100,180
4,52,100,190
4,52,97,165
4,52,95,60
4,52,100,70
4,52,100,640
4,52,91,65
4,52,92,65
4,52,90,70
4,52,90,70
4,52,92,70
4,52,94,60
4,52,92,65
4,52,92,70
4,52,94,75
4,52,95,75
4,52,98,180
4,52,92,50
4,52,102,75
4,52,102,415
4,52,92,65
4,52,90,65
4,52,89,60
4,52,95,75
4,52,84,100
4,52,102,155
4,52,95,60
4,52,89,65
4,52,88,55
4,52,90,60
4,52,95,75
4,52,91,70
4,52,100,180
4,52,94,60
4,52,91,65
4,52,94,70
4,52,91,65
4,52,94,75
4,52,91,65
4,52,100,195
4,52,95,70
4,52,91,60
4,52,90,60
4,52,88,55
4,52,91,55
4,52,92,60
4,52,94,70
4,52,97,75
4,52,102,295
4,52,92,55
4,52,97,75
4,52,98,190
4,52,91,60
4,52,92,65
4,52,92,65
4,52,92,65
4,52,95,75
4,52,97,75
4,52,100,170
4,52,98,190
4,52,94,60
4,52,97,75
4,52,94,70
4,52,98,85
4,52,98,170
4,52,95,65
4,52,97,65
4,52,100,180
4,52,95,60
4,52,102,80
4,52,102,215
4,52,102,185
4,52,97,60
4,52,95,60
4,52,95,55
4,52,95,65
4,52,102,175
4,52,102,185
4,52,90,55
4,52,95,70
4,52,94,65
4,52,94,70
4,52,98,175
4,52,100,195
4,52,92,70
4,52,94,75
4,52,94,75
4,52,97,75
4,52,95,90
4,52,104,200
4,52,102,160
4,52,95,65
4,52,97,75
4,52,98,70
4,52,98,170
4,52,107,195
4,52,107,795
4,52,97,980
4,52,97,70
4,52,92,65
4,52,98,65
4,52,102,170
4,52,102,195
4,52,95,60
4,52,98,65
4,52,95,70
4,52,100,75
4,52,100,190
4,52,100,215
4,52,97,60
4,52,100,65
4,52,104,180
4,52,100,200
4,52,98,75
4,52,102,175
4,52,104,285
4,52,97,75
4,52,95,70
4,52,94,65
4,52,95,65
4,52,91,65
4,52,102,85
4,52,102,180
4,52,100,205
4,52,102,60
4,52,102,180
4,52,100,305
4,52,92,70
4,52,92,65
4,52,92,60
4,52,100,70
4,52,102,205
4,52,100,175
4,52,102,190
4,52,98,65
4,52,104,190
4,52,107,280
4,52,98,65
4,52,98,70
4,52,97,70
4,52,95,75
4,52,92,65
4,52,98,75
4,52,102,190
4,52,100,175
4,52,102,75
4,52,104,200
4,52,104,280
4,52,104,195
4,52,104,180
4,52,104,170
4,52,107,185
4,52,104,180
4,52,107,75
4,52,104,295
4,52,107,170
4,52,104,190
4,52,104,200
4,52,104,175
4,52,104,185
4,52,107,165
4,52,107,75
4,52,107,270
