track,note,velocity,time
4,47,103,394
4,60,104,2
4,64,110,0
4,69,94,0
4,59,104,6
4,69,0,1510
4,64,0,2
4,60,0,0
4,47,0,4
4,59,0,0
4,66,105,12
4,47,105,2
4,69,92,4
4,63,108,0
4,57,99,2
4,57,0,1520
4,66,0,0
4,47,0,4
4,63,0,0
4,69,0,2
4,47,103,0
4,59,104,2
4,69,94,0
4,64,110,0
4,60,104,0
4,69,0,1516
4,59,0,0
4,60,0,2
4,64,0,0
4,47,0,4
4,66,105,18
4,47,105,0
4,57,99,2
4,69,92,0
4,63,108,0
4,69,0,1520
4,57,0,0
4,66,0,0
4,47,0,2
4,63,0,0
4,54,90,8
4,52,91,0
4,59,91,2
4,59,0,1424
4,52,0,0
4,54,0,0
4,52,100,104
4,55,100,2
4,59,104,0
4,59,0,750
4,60,98,12
4,59,92,388
4,60,0,2
4,52,0,360
4,55,0,0
4,59,0,22
4,64,100,14
4,60,101,0
4,69,108,0
4,69,0,1050
4,60,0,2
4,64,0,4
4,60,90,86
4,57,100,0
4,69,88,2
4,64,91,0
4,60,0,352
4,57,0,18
4,64,0,2
4,71,94,6
4,64,98,0
4,66,96,0
4,69,0,4
4,66,0,752
4,64,0,10
4,71,0,0
4,54,91,2
4,63,91,2
4,59,90,2
4,54,0,718
4,63,0,2
4,59,0,6
4,54,97,36
4,59,97,0
4,64,98,0
4,71,95,388
4,71,0,40
4,71,83,146
4,71,0,74
4,71,90,22
4,64,0,40
4,54,0,0
4,59,0,6
4,54,100,54
4,63,101,2
4,59,104,0
4,71,0,14
4,71,96,82
4,71,0,88
4,69,90,2
4,67,84,98
4,69,0,4
4,69,92,94
4,67,0,6
4,69,0,70
4,63,0,10
4,71,98,6
4,63,92,0
4,54,0,2
4,66,92,0
4,59,0,2
4,63,0,176
4,71,0,4
4,66,0,14
4,64,102,2
4,64,0,80
4,71,95,16
4,67,92,0
4,64,98,0
4,71,0,750
4,60,98,10
4,59,90,388
4,60,0,2
4,67,0,362
4,64,0,2
4,59,0,18
4,64,97,4
4,69,97,2
4,60,98,0
4,60,0,1052
4,64,0,2
4,60,90,96
4,57,100,0
4,64,91,2
4,60,0,352
4,57,0,18
4,69,0,2
4,64,0,0
4,71,94,8
4,64,98,0
4,66,96,2
4,66,0,756
4,64,0,8
4,71,0,0
4,63,91,2
4,54,91,2
4,59,90,0
4,63,0,720
4,54,0,2
4,59,0,4
4,59,102,44
4,55,100,0
4,64,100,0
4,64,0,366
4,55,0,2
4,59,0,10
4,67,91,4
4,71,91,0
4,64,92,0
4,71,0,372
4,67,0,4
4,64,0,4
4,67,98,8
4,64,99,2
4,72,99,0
4,64,0,358
4,72,0,6
4,67,0,6
4,67,89,4
4,71,90,2
4,64,90,0
4,64,0,380
4,71,0,0
4,67,0,0
4,67,92,8
4,64,95,2
4,61,100,2
4,70,99,0
4,70,0,740
4,64,0,10
4,67,0,8
4,64,90,2
4,61,0,2
4,60,99,0
4,69,91,0
4,64,0,754
4,69,0,4
4,60,0,0
4,64,88,12
4,59,88,2
4,66,87,0
4,59,0,742
4,66,0,10
4,64,0,0
4,59,95,14
4,63,94,0
4,66,95,0
4,66,0,382
4,63,0,0
4,59,0,0
4,54,91,2
4,59,91,0
4,63,90,0
4,59,0,372
4,54,0,0
4,63,0,2
4,55,102,6
4,59,104,0
4,52,100,2
4,59,0,748
4,60,98,18
4,60,0,376
4,59,92,6
4,55,0,362
4,52,0,4
4,59,0,18
4,60,101,8
4,64,100,0
4,69,108,0
4,69,0,1050
4,60,0,2
4,64,0,4
4,57,100,88
4,60,90,0
4,64,91,2
4,69,88,0
4,60,0,352
4,57,0,18
4,64,0,2
4,69,0,10
4,71,94,0
4,64,98,0
4,66,96,0
4,66,0,756
4,64,0,10
4,71,0,0
4,54,91,2
4,63,91,2
4,59,90,2
4,54,0,718
4,63,0,2
4,59,0,6
4,54,97,36
4,59,97,0
4,64,98,0
4,64,0,710
4,54,0,0
4,59,0,6
4,54,100,54
4,63,101,2
4,59,104,0
4,69,92,382
4,69,0,76
4,63,0,10
4,71,98,6
4,63,92,0
4,54,0,2
4,66,92,0
4,59,0,2
4,63,0,176
4,66,0,18
4,64,102,2
4,64,0,80
4,71,0,6
4,64,102,10
4,55,100,2
4,59,100,0
4,59,0,376
4,64,0,0
4,55,0,2
4,67,89,6
4,71,89,0
4,64,90,0
4,60,98,374
4,64,0,4
4,59,90,384
4,60,0,2
4,59,0,382
4,71,0,4
4,67,0,0
4,64,97,0
4,69,97,2
4,60,98,0
4,60,0,1052
4,64,0,2
4,69,0,48
4,60,90,48
4,57,100,0
4,64,91,2
4,60,0,352
4,57,0,18
4,64,0,2
4,71,94,8
4,64,98,0
4,66,96,2
4,66,0,756
4,64,0,8
4,71,0,0
4,63,91,2
4,54,91,2
4,59,90,0
4,63,0,720
4,54,0,2
4,59,0,4
4,71,102,38
4,64,101,0
4,67,101,0
4,71,0,280
4,64,0,2
4,67,0,2
4,67,85,6
4,71,84,0
4,76,84,2
4,67,0,470
4,71,0,2
4,76,0,4
4,76,89,4
4,71,89,0
4,79,88,2
4,71,0,230
4,76,0,8
4,79,0,12
4,83,81,38
4,79,81,2
4,76,80,0
4,83,0,390
4,76,0,10
4,79,0,2
4,79,100,22
4,83,102,22
4,88,104,24
4,83,0,732
4,79,0,0
4,88,0,18
4,79,91,22
4,86,92,0
4,83,90,2
4,83,0,720
4,86,0,2
4,79,0,0
4,76,90,4
4,81,88,28
4,85,99,14
4,85,0,636
4,81,0,30
4,76,0,0
4,81,89,102
4,84,89,0
4,76,90,0
4,76,0,706
4,81,0,0
4,84,0,4
4,79,90,6
4,83,92,22
4,88,98,24
4,83,0,732
4,79,0,0
4,88,0,18
4,86,92,22
4,79,91,0
4,83,90,2
4,83,0,720
4,79,0,2
4,86,0,0
4,76,98,4
4,81,93,28
4,85,99,14
4,81,0,754
4,85,0,2
4,76,0,6
4,85,88,6
4,81,87,0
4,76,87,0
4,79,100,716
4,76,0,10
4,85,0,6
4,81,0,2
4,83,102,4
4,88,104,24
4,83,0,732
4,79,0,0
4,88,0,18
4,86,92,22
4,79,91,0
4,83,90,2
4,83,0,720
4,79,0,2
4,86,0,0
4,76,90,4
4,81,88,28
4,85,99,14
4,85,0,636
4,81,0,30
4,76,0,0
4,81,89,102
4,84,89,0
4,76,90,0
4,76,0,706
4,81,0,0
4,84,0,4
4,78,90,6
4,81,92,22
4,86,98,24
4,81,0,732
4,78,0,0
4,86,0,18
4,78,91,22
4,86,92,0
4,83,90,2
4,83,0,720
4,86,0,2
4,78,0,0
4,76,88,12
4,79,93,20
4,84,95,14
4,76,0,734
4,79,0,20
4,84,0,2
4,72,84,12
4,81,82,0
4,76,82,0
4,72,0,710
4,76,0,2
4,81,0,0
4,74,90,14
4,78,92,20
4,81,98,16
4,78,0,740
4,74,0,2
4,81,0,8
4,78,91,22
4,74,92,0
4,83,90,2
4,83,0,720
4,74,0,2
4,78,0,0
4,76,83,42
4,79,83,0
4,83,84,4
4,76,0,754
4,83,0,2
4,79,0,8
4,72,87,4
4,76,87,0
4,81,90,0
4,81,0,736
4,72,0,18
4,76,0,2
4,66,97,16
4,71,97,0
4,64,101,0
4,59,97,0
4,59,0,750
4,64,0,8
4,60,90,10
4,71,0,670
4,66,0,0
4,60,0,96
4,59,97,2
4,66,97,0
4,64,97,0
4,71,97,0
4,59,0,740
4,64,0,22
4,60,100,6
4,60,0,698
4,66,0,10
4,71,0,2
4,59,97,54
4,71,96,4
4,64,97,0
4,66,96,0
4,64,0,678
4,66,0,12
4,71,0,0
4,59,0,72
4,63,90,2
4,66,91,0
4,71,91,0
4,63,0,88
4,71,0,2
4,66,0,0
4,59,80,18
4,59,0,88
4,63,86,4
4,63,0,80
4,59,100,16
4,63,102,0
4,67,90,2
4,67,0,130
4,63,0,0
4,59,0,0
4,66,96,50
4,59,97,4
4,51,97,0
4,54,98,0
4,66,0,88
4,63,86,0
4,59,0,54
4,59,84,34
4,63,0,4
4,59,0,68
4,59,104,36
4,51,0,2
4,54,0,0
4,55,102,0
4,52,102,0
4,59,0,748
4,60,98,12
4,59,92,388
4,60,0,2
4,55,0,362
4,52,0,2
4,59,0,18
4,64,100,14
4,60,101,0
4,69,108,0
4,69,0,1050
4,60,0,2
4,64,0,4
4,60,90,86
4,57,100,0
4,69,88,2
4,64,91,0
4,60,0,352
4,57,0,18
4,64,0,2
4,71,94,6
4,64,98,0
4,66,96,0
4,69,0,4
4,66,0,752
4,64,0,10
4,71,0,0
4,54,91,2
4,63,91,2
4,59,90,2
4,54,0,718
4,63,0,2
4,59,0,6
4,54,97,36
4,59,97,0
4,64,98,0
4,71,95,388
4,71,0,40
4,71,83,146
4,71,0,74
4,71,90,22
4,64,0,40
4,54,0,0
4,59,0,6
4,54,100,54
4,63,101,2
4,59,104,0
4,71,0,14
4,71,96,82
4,71,0,88
4,69,90,2
4,67,84,98
4,69,0,4
4,69,92,94
4,67,0,6
4,69,0,70
4,63,0,10
4,71,98,6
4,63,92,0
4,54,0,2
4,66,92,0
4,59,0,2
4,63,0,176
4,71,0,4
4,66,0,14
4,64,102,2
4,64,0,80
4,71,95,16
4,67,92,0
4,64,98,0
4,71,0,750
4,60,98,10
4,59,90,388
4,60,0,2
4,67,0,362
4,64,0,2
4,59,0,18
4,64,97,4
4,69,97,2
4,60,98,0
4,60,0,1052
4,64,0,2
4,60,90,96
4,57,100,0
4,64,91,2
4,60,0,352
4,57,0,18
4,69,0,2
4,64,0,0
4,71,94,8
4,64,98,0
4,66,96,2
4,66,0,756
4,64,0,8
4,71,0,0
4,63,91,2
4,54,91,2
4,59,90,0
4,63,0,720
4,54,0,2
4,59,0,4
4,59,102,44
4,55,100,0
4,64,100,0
4,64,0,366
4,55,0,2
4,59,0,10
4,67,91,4
4,71,91,0
4,64,92,0
4,71,0,372
4,67,0,4
4,64,0,4
4,67,98,8
4,64,99,2
4,72,99,0
4,64,0,358
4,72,0,6
4,67,0,6
4,67,89,4
4,71,90,2
4,64,90,0
4,64,0,380
4,71,0,0
4,67,0,0
4,67,92,8
4,64,95,2
4,61,100,2
4,70,99,0
4,70,0,740
4,64,0,10
4,67,0,8
4,64,90,2
4,61,0,2
4,60,99,0
4,69,91,0
4,64,0,754
4,69,0,4
4,60,0,0
4,64,88,12
4,59,88,2
4,66,87,0
4,59,0,742
4,66,0,10
4,64,0,0
4,59,95,14
4,63,94,0
4,66,95,0
4,66,0,382
4,63,0,0
4,59,0,0
4,54,91,2
4,59,91,0
4,63,90,0
4,59,0,372
4,54,0,0
4,63,0,2
4,71,95,8
4,67,92,0
4,64,98,0
4,71,0,750
4,60,98,10
4,59,90,388
4,60,0,2
4,67,0,362
4,64,0,2
4,59,0,18
4,64,97,4
4,69,97,2
4,60,98,0
4,60,0,1052
4,64,0,2
4,60,90,96
4,57,100,0
4,64,91,2
4,60,0,352
4,57,0,18
4,69,0,2
4,64,0,0
4,71,94,8
4,64,98,0
4,66,96,2
4,66,0,756
4,64,0,8
4,71,0,0
4,63,91,2
4,54,91,2
4,59,90,0
4,63,0,720
4,54,0,2
4,59,0,4
4,71,102,38
4,64,101,0
4,67,101,0
4,71,0,280
4,64,0,2
4,67,0,2
4,67,85,6
4,71,84,0
4,76,84,2
4,67,0,470
4,71,0,2
4,76,0,4
4,76,89,4
4,71,89,0
4,79,88,2
4,71,0,230
4,76,0,8
4,79,0,12
4,83,81,38
4,79,81,2
4,76,80,0
4,83,0,390
4,76,0,10
4,79,0,2
4,79,100,22
4,83,102,22
4,88,104,24
4,83,0,732
4,79,0,0
4,88,0,18
4,79,91,22
4,86,92,0
4,83,90,2
4,83,0,720
4,86,0,2
4,79,0,0
4,76,90,4
4,81,88,28
4,85,99,14
4,85,0,636
4,81,0,30
4,76,0,0
4,81,89,102
4,84,89,0
4,76,90,0
4,76,0,706
4,81,0,0
4,84,0,4
4,79,90,6
4,83,92,22
4,88,98,24
4,83,0,732
4,79,0,0
4,88,0,18
4,86,92,22
4,79,91,0
4,83,90,2
4,83,0,720
4,79,0,2
4,86,0,0
4,76,98,4
4,81,93,28
4,85,99,14
4,81,0,754
4,85,0,2
4,76,0,6
4,85,88,6
4,81,87,0
4,76,87,0
4,79,100,716
4,76,0,10
4,85,0,6
4,81,0,2
4,83,102,4
4,88,104,24
4,83,0,732
4,79,0,0
4,88,0,18
4,86,92,22
4,79,91,0
4,83,90,2
4,83,0,720
4,79,0,2
4,86,0,0
4,76,90,4
4,81,88,28
4,85,99,14
4,85,0,636
4,81,0,30
4,76,0,0
4,81,89,102
4,84,89,0
4,76,90,0
4,76,0,706
4,81,0,0
4,84,0,4
4,78,90,6
4,81,92,22
4,86,98,24
4,81,0,732
4,78,0,0
4,86,0,18
4,78,91,22
4,86,92,0
4,83,90,2
4,83,0,720
4,86,0,2
4,78,0,0
4,76,88,12
4,79,93,20
4,84,95,14
4,76,0,734
4,79,0,20
4,84,0,2
4,72,84,12
4,81,82,0
4,76,82,0
4,72,0,710
4,76,0,2
4,81,0,0
4,74,90,14
4,78,92,20
4,81,98,16
4,78,0,740
4,74,0,2
4,81,0,8
4,78,91,22
4,74,92,0
4,83,90,2
4,83,0,720
4,74,0,2
4,78,0,0
4,76,83,42
4,79,83,0
4,83,84,4
4,76,0,754
4,83,0,2
4,79,0,8
4,72,87,4
4,76,87,0
4,81,90,0
4,81,0,736
4,72,0,18
4,76,0,2
4,66,97,16
4,71,97,0
4,64,101,0
4,59,97,0
4,59,0,750
4,64,0,8
4,60,90,10
4,71,0,670
4,66,0,0
4,60,0,96
4,59,97,2
4,66,97,0
4,64,97,0
4,71,97,0
4,59,0,740
4,64,0,22
4,60,100,6
4,60,0,698
4,66,0,10
4,71,0,2
4,59,97,54
4,71,96,4
4,64,97,0
4,66,96,0
4,64,0,678
4,66,0,12
4,71,0,0
4,59,0,72
4,63,90,2
4,66,91,0
4,71,91,0
4,63,0,88
4,71,0,2
4,66,0,0
4,59,80,18
4,59,0,88
4,63,86,4
4,63,0,80
4,59,100,16
4,63,102,0
4,67,90,2
4,67,0,130
4,63,0,0
4,59,0,0
4,66,96,50
4,59,97,4
4,51,97,0
4,54,98,0
4,66,0,88
4,63,86,0
4,59,0,54
4,59,84,34
4,63,0,4
4,59,0,68
4,59,104,36
4,51,0,2
4,54,0,0
4,55,102,0
4,52,102,0
4,59,0,748
4,60,98,12
4,59,92,388
4,60,0,2
4,55,0,362
4,52,0,2
4,59,0,18
4,64,100,14
4,60,101,0
4,69,108,0
4,69,0,1050
4,60,0,2
4,64,0,4
4,60,90,86
4,57,100,0
4,69,88,2
4,64,91,0
4,60,0,352
4,57,0,18
4,64,0,2
4,71,94,6
4,64,98,0
4,66,96,0
4,69,0,4
4,66,0,752
4,64,0,10
4,71,0,0
4,54,91,2
4,63,91,2
4,59,90,2
4,54,0,718
4,63,0,2
4,59,0,6
4,54,97,36
4,59,97,0
4,64,98,0
4,71,95,388
4,71,0,40
4,71,83,146
4,71,0,74
4,71,90,22
4,64,0,40
4,54,0,0
4,59,0,6
4,54,100,54
4,63,101,2
4,59,104,0
4,71,0,14
4,71,96,82
4,71,0,88
4,69,90,2
4,67,84,98
4,69,0,4
4,69,92,94
4,67,0,6
4,69,0,70
4,63,0,10
4,71,98,6
4,63,92,0
4,54,0,2
4,66,92,0
4,59,0,2
4,63,0,176
4,71,0,4
4,66,0,14
4,64,102,2
4,64,0,80
4,71,95,16
4,67,92,0
4,64,98,0
4,71,0,750
4,60,98,10
4,59,90,388
4,60,0,2
4,67,0,362
4,64,0,2
4,59,0,18
4,64,97,4
4,69,97,2
4,60,98,0
4,60,0,1052
4,64,0,2
4,60,90,96
4,57,100,0
4,64,91,2
4,60,0,352
4,57,0,18
4,69,0,2
4,64,0,0
4,71,94,8
4,64,98,0
4,66,96,2
4,66,0,756
4,64,0,8
4,71,0,0
4,63,91,2
4,54,91,2
4,59,90,0
4,63,0,720
