track,note,velocity,time
1,57,50,1
1,60,50,0
1,65,42,719
1,65,0,240
1,60,0,0
1,57,0,0
1,69,50,0
1,69,0,480
1,74,54,0
1,62,54,0
1,62,0,480
1,74,0,0
1,72,50,0
1,67,50,0
1,60,50,0
1,60,0,720
1,72,0,0
1,58,45,0
1,70,45,0
1,70,0,240
1,58,0,0
1,67,0,0
1,55,50,0
1,67,50,0
1,67,0,480
1,55,0,0
1,69,45,0
1,57,45,0
1,57,0,480
1,69,0,0
1,65,45,0
1,53,45,0
1,57,45,0
1,57,0,960
1,53,0,0
1,65,0,0
1,67,37,0
1,70,37,0
1,60,37,0
1,58,37,0
1,58,0,960
1,67,0,0
1,70,0,0
1,60,0,0
1,60,28,0
1,57,28,0
1,69,28,0
1,65,28,0
1,65,0,240
1,60,0,0
1,57,0,0
1,69,0,0
1,60,21,240
1,60,0,360
1,61,18,0
1,61,0,60
1,60,18,0
1,60,0,60
1,59,25,0
1,59,0,360
1,60,18,0
1,60,0,60
1,61,18,0
1,61,0,60
1,60,21,0
1,60,0,120
1,57,46,360
1,60,46,0
1,65,46,720
1,57,0,237
1,65,0,3
1,60,0,0
1,69,50,0
1,69,0,480
1,74,61,0
1,69,61,0
1,62,61,0
1,62,0,480
1,69,0,0
1,74,0,0
1,74,60,0
1,69,60,0
1,62,60,0
1,65,65,720
1,77,65,0
1,77,0,240
1,62,0,0
1,74,0,0
1,69,0,0
1,65,0,0
1,81,69,0
1,69,69,0
1,69,0,480
1,81,0,0
1,70,74,0
1,73,74,0
1,82,74,0
1,82,0,480
1,73,0,0
1,70,0,0
1,73,71,0
1,82,71,0
1,70,71,0
1,70,0,960
1,82,0,0
1,73,0,0
1,81,52,0
1,69,52,0
1,72,52,0
1,72,0,480
1,69,0,0
1,81,0,0
1,79,46,0
1,72,46,0
1,70,46,0
1,70,0,480
1,79,0,0
1,69,42,0
1,77,42,0
1,77,0,240
1,69,0,0
1,72,0,0
1,60,21,240
1,60,0,360
1,61,18,0
1,61,0,60
1,60,18,0
1,60,0,60
1,59,25,0
1,59,0,360
1,60,18,0
1,60,0,60
1,61,18,0
1,61,0,60
1,60,21,0
1,60,0,120
1,55,46,360
1,60,46,0
1,60,0,720
1,64,46,0
1,55,0,237
1,64,0,3
1,67,50,0
1,67,0,480
1,58,61,0
1,61,61,0
1,70,61,0
1,70,0,480
1,61,0,0
1,58,0,0
1,58,56,0
1,62,56,0
1,65,56,720
1,58,0,237
1,65,0,3
1,62,0,0
1,70,71,0
1,70,0,480
1,70,73,0
1,74,73,0
1,65,73,0
1,62,73,0
1,62,0,480
1,70,0,0
1,74,0,0
1,65,0,0
1,63,77,0
1,66,77,0
1,75,77,0
1,75,0,960
1,66,0,0
1,63,0,0
1,74,70,0
1,65,70,0
1,62,70,0
1,62,0,480
1,65,0,0
1,74,0,0
1,60,71,0
1,65,71,0
1,72,71,0
1,72,0,480
1,65,0,0
1,60,0,0
1,61,77,0
1,64,77,0
1,73,77,0
1,73,0,960
1,64,0,0
1,61,0,0
1,72,67,0
1,65,67,0
1,60,67,0
1,60,0,480
1,65,0,0
1,72,0,0
1,57,51,0
1,69,51,0
1,65,51,0
1,65,0,480
1,69,0,0
1,57,0,0
1,60,50,0
1,72,50,0
1,67,50,0
1,72,0,720
1,60,0,0
1,58,45,0
1,70,45,0
1,70,0,240
1,58,0,0
1,67,0,0
1,55,50,0
1,67,50,0
1,67,0,480
1,55,0,0
1,69,45,0
1,57,45,0
1,57,0,480
1,69,0,0
1,65,45,0
1,53,45,0
1,57,45,0
1,57,0,960
1,53,0,0
1,65,0,0
1,67,39,0
1,58,39,0
1,64,39,0
1,64,0,960
1,58,0,0
1,67,0,0
1,69,32,0
1,57,32,0
1,65,32,0
1,65,0,240
1,57,0,0
1,69,0,0
1,60,21,240
1,60,0,360
1,61,18,0
1,61,0,60
1,60,18,0
1,60,0,60
1,59,25,0
1,59,0,360
1,60,18,0
1,60,0,60
1,61,18,0
1,61,0,60
1,60,21,0
1,60,0,120
1,72,50,360
1,84,50,0
1,79,50,0
1,84,0,720
1,72,0,0
1,70,45,0
1,82,45,0
1,82,0,240
1,70,0,0
1,79,0,0
1,67,50,0
1,79,50,0
1,79,0,480
1,67,0,0
1,81,45,0
1,69,45,0
1,69,0,480
1,81,0,0
1,77,45,0
1,65,45,0
1,69,45,0
1,69,0,960
1,65,0,0
1,77,0,0
1,79,39,0
1,67,39,0
1,76,39,0
1,76,0,960
1,67,0,0
1,79,0,0
1,65,32,0
1,77,32,0
1,77,0,240
1,65,0,0
1,72,21,240
1,72,0,360
1,73,18,0
1,73,0,60
1,72,18,0
1,72,0,60
1,71,25,0
1,71,0,360
1,72,18,0
1,72,0,60
1,73,18,0
1,73,0,60
1,72,21,0
1,72,0,120
1,65,40,840
1,65,0,360
1,66,34,0
1,66,0,60
1,65,34,0
1,65,0,60
1,64,48,0
1,64,0,360
1,65,38,0
1,65,0,60
1,66,39,0
1,66,0,60
1,65,51,0
1,65,0,360
1,63,45,0
1,63,0,60
1,61,52,0
1,61,0,60
1,60,63,0
1,60,0,360
1,61,53,0
1,61,0,60
1,63,55,0
1,63,0,60
1,61,71,0
1,61,0,360
1,60,59,0
1,60,0,60
1,58,67,0
1,58,0,60
1,57,75,0
1,57,0,360
1,58,71,0
1,58,0,60
1,60,71,0
1,60,0,60
1,58,87,0
1,58,0,360
1,56,76,0
1,56,0,60
1,54,86,0
1,54,0,60
1,53,69,0
1,56,82,0
1,61,82,0
1,61,0,960
1,56,0,0
1,53,0,0
1,53,61,0
1,61,72,0
1,56,72,0
1,56,0,160
1,61,0,0
1,53,0,0
1,61,65,0
1,56,55,0
1,65,65,0
1,65,0,160
1,56,0,0
1,61,0,0
1,61,66,0
1,56,56,0
1,65,66,0
1,65,0,120
1,56,0,0
1,61,0,0
1,65,69,40
1,61,58,0
1,68,69,0
1,68,0,160
1,61,0,0
1,65,0,0
1,68,61,0
1,65,51,0
1,73,61,0
1,73,0,160
1,65,0,0
1,68,0,0
1,68,62,0
1,65,52,0
1,73,62,0
1,73,0,120
1,65,0,0
1,68,0,0
1,68,69,40
1,63,58,0
1,73,69,0
1,73,0,480
1,72,62,0
1,72,0,480
1,63,0,0
1,68,0,0
1,53,68,0
1,58,68,0
1,61,68,0
1,61,0,160
1,58,0,0
1,53,0,0
1,58,60,0
1,65,60,0
1,61,60,0
1,61,0,160
1,65,0,0
1,58,0,0
1,61,60,0
1,65,60,0
1,58,60,0
1,58,0,120
1,65,0,0
1,61,0,0
1,65,67,40
1,58,67,0
1,61,67,0
1,61,0,160
1,58,0,0
1,65,0,0
1,70,58,0
1,61,58,0
1,65,58,0
1,65,0,160
1,61,0,0
1,70,0,0
1,70,58,0
1,61,58,0
1,65,58,0
1,65,0,120
1,61,0,0
1,70,0,0
1,70,66,40
1,60,66,0
1,65,66,0
1,70,0,480
1,68,62,0
1,68,0,480
1,65,0,0
1,60,0,0
1,58,68,0
1,49,57,0
1,54,57,0
1,54,0,160
1,49,0,0
1,58,0,0
1,61,60,0
1,58,51,0
1,54,51,0
1,54,0,160
1,58,0,0
1,61,0,0
1,61,60,0
1,58,51,0
1,54,51,0
1,54,0,120
1,58,0,0
1,61,0,0
1,61,67,40
1,54,56,0
1,58,56,0
1,58,0,160
1,54,0,0
1,61,0,0
1,58,49,0
1,61,49,0
1,66,58,0
1,66,0,160
1,61,0,0
1,58,0,0
1,58,49,0
1,61,49,0
1,66,58,0
1,66,0,120
1,61,0,0
1,58,0,0
1,66,70,40
1,58,59,0
1,61,59,0
1,61,0,160
1,58,0,0
1,66,0,0
1,70,66,0
1,61,56,0
1,66,56,0
1,66,0,160
1,61,0,0
1,70,0,0
1,70,66,0
1,61,56,0
1,66,56,0
1,66,0,120
1,61,0,0
1,70,0,0
1,66,63,40
1,70,75,0
1,61,63,0
1,61,0,160
1,70,0,0
1,66,0,0
1,70,60,0
1,73,71,0
1,66,60,0
1,66,0,160
1,73,0,0
1,70,0,0
1,70,62,0
1,73,74,0
1,66,62,0
1,66,0,120
1,73,0,0
1,70,0,0
1,70,68,40
1,73,81,0
1,66,68,0
1,66,0,160
1,73,0,0
1,70,0,0
1,73,61,0
1,78,72,0
1,70,61,0
1,70,0,160
1,78,0,0
1,73,0,0
1,73,63,0
1,78,75,0
1,70,63,0
1,70,0,120
1,78,0,0
1,73,0,0
1,70,71,40
1,73,71,0
1,78,84,0
1,78,0,160
1,73,0,0
1,70,0,0
1,82,78,0
1,70,66,0
1,73,66,0
1,78,78,0
1,78,0,160
1,82,0,0
1,70,0,0
1,73,0,0
1,78,78,0
1,70,66,0
1,73,66,0
1,82,78,0
1,82,0,120
1,78,0,0
1,70,0,0
1,73,0,0
1,80,95,40
1,73,80,0
1,85,95,0
1,85,0,480
1,73,0,0
1,80,0,0
1,73,74,0
1,83,88,0
1,71,74,0
1,80,88,0
1,80,0,160
1,73,0,0
1,83,0,0
1,71,0,0
1,73,66,0
1,70,66,0
1,82,78,0
1,78,78,0
1,78,0,160
1,73,0,0
1,70,0,0
1,82,0,0
1,70,66,0
1,78,78,0
1,73,66,0
1,82,78,0
1,82,0,120
1,70,0,0
1,78,0,0
1,73,0,0
1,85,95,40
1,73,80,0
1,80,95,0
1,80,0,480
1,73,0,0
1,85,0,0
1,83,88,0
1,71,74,0
1,73,74,0
1,80,88,0
1,80,0,160
1,83,0,0
1,71,0,0
1,73,0,0
1,73,66,0
1,78,78,0
1,82,78,0
1,70,66,0
1,70,0,160
1,73,0,0
1,78,0,0
1,82,0,0
1,70,66,0
1,78,78,0
1,82,78,0
1,73,66,0
1,73,0,120
1,70,0,0
1,78,0,0
1,82,0,0
1,88,101,40
1,82,101,0
1,76,85,0
1,76,0,480
1,82,0,0
1,88,0,0
1,86,98,0
1,74,83,0
1,82,98,0
1,82,0,160
1,74,0,0
1,86,0,0
1,82,92,0
1,75,78,0
1,87,92,0
1,87,0,160
1,75,0,0
1,82,0,0
1,82,92,0
1,75,78,0
1,87,92,0
1,87,0,120
1,75,0,0
1,82,0,0
1,88,101,40
1,82,101,0
1,76,85,0
1,76,0,480
1,82,0,0
1,88,0,0
1,86,98,0
1,74,83,0
1,82,98,0
1,82,0,160
1,74,0,0
1,86,0,0
1,82,92,0
1,75,78,0
1,87,92,0
1,87,0,160
1,75,0,0
1,82,0,0
1,82,92,0
1,75,78,0
1,87,92,0
1,87,0,120
1,75,0,0
1,82,0,0
1,82,92,40
1,76,78,0
1,88,92,0
1,88,0,480
1,76,0,0
1,82,0,0
1,76,79,0
1,88,94,0
1,82,94,0
1,82,0,480
1,88,0,0
1,76,0,0
1,76,82,0
1,88,97,0
1,82,97,0
1,82,0,480
1,88,0,0
1,76,0,0
1,76,85,0
1,88,100,0
1,82,100,0
1,82,0,480
1,88,0,0
1,76,0,0
1,83,90,0
1,77,90,0
1,86,106,0
1,89,106,0
1,89,0,480
1,83,0,0
1,77,0,0
1,86,0,0
1,86,106,0
1,89,106,0
1,83,90,0
1,77,90,0
1,77,0,480
1,86,0,0
1,89,0,0
1,83,0,0
1,90,111,0
1,81,94,0
1,87,111,0
1,84,94,0
1,78,94,0
1,78,0,480
1,87,0,0
1,90,0,0
1,81,0,0
1,84,0,0
1,87,112,0
1,84,95,0
1,78,95,0
1,81,95,0
1,90,112,0
1,90,0,480
1,78,0,0
1,87,0,0
1,84,0,0
1,81,0,0
1,91,113,0
1,79,96,0
1,86,113,0
1,83,96,0
1,83,0,120
1,91,0,0
1,79,0,0
1,86,0,0
1,79,86,40
1,79,0,120
1,79,72,40
1,79,0,120
1,67,81,40
1,67,0,160
1,79,69,0
1,79,0,160
1,79,61,0
1,79,0,120
1,67,61,40
1,67,0,160
1,79,54,0
1,79,0,160
1,79,45,0
1,79,0,120
1,67,59,40
1,67,0,160
1,79,50,0
1,79,0,160
1,79,45,0
1,79,0,120
1,67,56,40
1,67,0,160
1,79,45,0
1,79,0,160
1,79,45,0
1,79,0,120
1,67,54,40
1,67,0,160
1,79,42,0
1,79,0,160
1,79,43,0
1,79,0,120
1,67,50,40
1,67,0,160
1,79,39,0
1,79,0,160
1,79,39,0
1,79,0,120
1,67,50,40
1,67,0,160
1,79,40,0
1,79,0,160
1,79,39,0
1,79,0,120
1,76,48,40
1,76,0,160
1,79,40,0
1,79,0,160
1,79,40,0
1,79,0,120
1,79,50,40
1,79,0,160
1,84,39,0
1,84,0,160
1,84,39,0
1,84,0,120
1,84,48,40
1,84,0,160
1,88,39,0
1,88,0,160
1,88,39,0
1,88,0,120
1,88,54,40
1,88,0,160
1,93,43,0
1,93,0,160
1,93,42,0
1,93,0,120
1,93,54,40
1,93,0,160
1,91,44,0
1,91,0,160
1,91,41,0
1,91,0,120
1,91,51,40
1,91,0,160
1,89,42,0
1,89,0,160
1,89,42,0
1,89,0,120
1,89,50,40
1,89,0,160
1,86,42,0
1,86,0,160
1,86,42,0
1,86,0,120
1,86,48,40
1,86,0,160
1,88,42,0
1,88,0,160
1,88,42,0
1,88,0,120
1,76,48,40
1,76,0,160
1,84,43,0
1,84,0,160
1,84,43,0
1,84,0,120
1,86,48,40
1,86,0,160
1,84,42,0
1,84,0,160
1,84,42,0
1,84,0,120
1,83,48,40
1,83,0,160
1,89,43,0
1,89,0,160
1,89,44,0
1,89,0,120
1,91,48,40
1,91,0,160
1,89,42,0
1,89,0,160
1,89,41,0
1,89,0,120
1,88,40,40
1,88,0,120
1,72,26,360
1,76,26,0
1,76,0,360
1,77,23,0
1,77,0,60
1,76,23,0
1,76,0,60
1,75,29,0
1,75,0,360
1,76,22,0
1,76,0,60
1,77,22,0
1,77,0,60
1,76,26,0
1,76,0,120
1,72,0,0
1,76,48,360
1,76,0,160
1,79,40,0
1,79,0,160
1,79,40,0
1,79,0,120
1,79,50,40
1,79,0,160
1,84,39,0
1,84,0,160
1,84,39,0
1,84,0,120
1,84,52,40
1,84,0,160
1,88,43,0
1,88,0,160
1,88,43,0
1,88,0,120
1,88,56,40
1,88,0,160
1,93,46,0
1,93,0,160
1,93,46,0
1,93,0,120
1,76,60,40
1,76,0,160
1,81,56,0
1,81,0,160
1,81,52,0
1,81,0,120
1,81,61,40
1,81,0,160
1,84,55,0
1,84,0,160
1,84,55,0
1,84,0,120
1,84,68,40
1,84,0,160
1,88,63,0
1,88,0,160
1,88,64,0
1,88,0,120
1,88,87,40
1,88,0,160
1,80,72,0
1,89,72,0
1,77,72,0
1,77,0,160
1,89,0,0
1,80,0,0
1,80,72,0
1,77,72,0
1,89,72,0
1,89,0,120
1,77,0,0
1,80,0,0
1,89,76,40
1,77,76,0
1,80,76,0
1,80,0,960
1,77,0,0
1,89,0,0
1,79,65,0
1,79,0,160
1,89,58,0
1,89,0,80
1,88,49,80
1,88,0,80
1,77,58,80
1,77,0,160
1,88,51,0
1,88,0,80
1,86,48,80
1,86,0,80
1,84,50,80
1,76,50,0
1,76,0,240
1,84,0,0
1,72,21,240
1,76,26,0
1,76,0,360
1,77,23,0
1,77,0,60
1,76,23,0
1,76,0,60
1,75,29,0
1,75,0,360
1,76,22,0
1,76,0,60
1,77,22,0
1,77,0,60
1,76,26,0
1,76,0,120
1,72,0,0
1,67,48,360
1,67,0,160
1,72,40,0
1,72,0,160
1,72,40,0
1,72,0,120
1,72,50,40
1,72,0,160
1,76,39,0
1,76,0,160
1,76,39,0
1,76,0,120
1,76,52,40
1,76,0,160
1,79,43,0
1,79,0,160
1,79,43,0
1,79,0,120
1,73,56,40
1,70,56,0
1,79,56,0
1,79,0,160
1,82,46,0
1,82,0,160
1,82,46,0
1,70,0,40
1,73,0,0
1,70,55,0
1,73,55,0
1,82,0,80
1,73,0,40
1,70,0,0
1,70,67,0
1,70,0,160
1,74,56,0
1,74,0,160
1,74,52,0
1,74,0,120
1,74,61,40
1,74,0,160
1,77,55,0
1,77,0,160
1,77,55,0
1,77,0,120
1,77,68,40
1,77,0,160
