track,note,velocity,time
2,36,78,3072
2,36,60,272
2,36,78,400
2,36,60,272
2,36,78,400
2,36,78,720
2,36,78,720
2,36,78,720
2,36,58,272
2,36,78,400
2,36,78,720
2,36,78,720
2,36,78,336
2,36,78,336
2,36,78,336
2,36,78,336
2,36,78,336
2,36,78,336
2,36,78,336
2,36,78,336
2,36,78,336
2,36,78,336
2,36,78,336
2,36,78,336
2,36,78,336
2,36,78,336
2,36,78,336
2,36,78,336
2,36,78,336
2,36,78,336
2,36,78,336
2,36,78,336
2,36,78,336
2,36,78,336
2,36,78,336
2,36,78,336
2,36,78,336
2,36,78,336
2,36,78,336
2,36,78,336
2,36,78,336
2,36,78,336
2,36,78,336
2,36,78,336
2,36,78,336
2,36,78,336
2,36,78,336
2,36,78,336
2,36,78,336
2,36,78,336
2,36,78,336
2,36,78,336
2,36,78,336
2,36,78,336
2,36,78,336
2,36,78,336
2,36,78,336
2,36,78,336
2,36,78,336
2,36,78,336
2,36,78,336
2,36,78,336
2,36,78,336
2,36,78,336
2,36,78,336
2,36,78,336
2,36,78,336
2,36,78,336
2,36,78,336
2,36,78,336
2,36,78,336
2,36,78,336
2,36,78,336
2,36,78,336
2,36,78,336
2,36,78,336
2,36,78,336
2,36,78,336
2,36,78,336
2,36,78,336
2,36,78,336
2,36,78,336
2,36,78,336
2,36,78,336
2,36,78,336
2,36,78,336
2,36,78,336
2,36,78,336
2,36,78,336
2,36,78,336
2,36,78,336
2,36,78,336
2,36,78,336
2,36,78,336
2,36,78,336
2,36,78,336
2,36,78,336
2,36,78,336
2,36,78,336
2,36,78,336
2,36,78,336
2,36,78,336
2,36,78,336
2,36,78,336
2,36,78,336
2,36,78,336
2,36,78,336
2,36,78,336
2,36,78,336
2,36,78,336
2,36,78,336
2,36,78,336
2,36,78,336
2,36,78,336
2,36,78,336
2,36,78,336
2,36,78,336
2,36,78,336
2,36,78,336
2,36,78,336
2,36,78,336
2,36,78,336
2,36,78,336
2,36,78,336
2,36,78,336
2,36,78,336
2,36,78,336
2,36,78,336
2,36,78,336
2,36,78,336
2,36,78,336
2,36,78,336
2,36,78,336
2,36,78,336
2,36,78,336
2,36,78,336
2,36,78,336
2,36,78,336
2,36,78,336
2,36,78,336
2,36,78,336
2,36,78,336
2,36,78,336
2,36,78,336
2,36,78,336
2,36,78,336
2,36,78,336
2,36,78,336
2,36,78,336
2,36,78,336
2,36,78,336
2,36,78,336
2,36,78,336
2,36,78,336
2,36,78,336
2,36,78,336
2,36,78,336
2,36,78,336
2,36,78,336
2,36,78,336
2,36,78,336
2,36,78,336
2,36,78,336
2,36,78,336
2,36,78,336
2,36,78,336
2,36,78,336
2,36,78,336
2,36,78,336
2,36,78,336
2,36,78,336
2,36,78,336
2,36,78,720
2,36,62,272
2,36,78,400
2,36,78,720
2,36,68,144
2,36,68,272
2,36,78,208
2,36,78,720
2,36,78,720
2,36,78,528
2,36,78,912
2,36,78,336
2,36,78,336
2,36,78,336
2,36,78,336
2,36,78,336
2,36,78,336
2,36,78,336
2,36,78,336
2,36,78,336
2,36,78,336
2,36,78,336
2,36,78,336
2,36,78,336
2,36,78,336
2,36,78,336
2,36,78,336
2,36,78,336
2,36,78,336
2,36,78,336
2,36,78,336
2,36,78,336
2,36,78,336
2,36,78,336
2,36,78,336
2,36,78,336
2,36,78,336
2,36,78,336
2,36,78,336
2,36,78,336
2,36,78,336
2,36,78,336
2,36,78,336
2,36,78,336
2,36,78,336
2,36,78,336
2,36,78,336
2,36,78,336
2,36,78,336
2,36,78,336
2,36,78,336
2,36,78,336
2,36,78,336
2,36,78,336
2,36,78,336
2,36,78,336
2,36,78,336
2,36,78,336
2,36,78,336
2,36,78,336
2,36,78,336
2,36,78,336
2,36,78,336
2,36,78,336
2,36,78,336
2,36,78,336
2,36,78,336
2,36,78,336
2,36,78,336
2,36,78,336
2,36,78,336
2,36,78,336
2,36,78,336
2,36,78,336
2,36,78,336
2,36,78,336
2,36,78,336
2,36,78,336
2,36,78,336
2,36,78,336
2,36,78,336
2,36,78,336
2,36,78,336
2,36,78,336
2,36,78,336
2,36,78,336
2,36,78,336
2,36,78,336
2,36,78,336
2,36,78,336
2,36,78,336
2,36,78,336
2,36,78,336
2,36,78,336
2,36,78,336
2,36,78,336
2,36,78,336
2,36,78,336
2,36,78,336
2,36,78,336
2,36,78,336
2,36,78,336
2,36,78,336
2,36,78,336
2,36,78,336
2,36,78,336
2,36,78,336
2,36,78,336
2,36,78,336
2,36,78,336
2,36,78,336
2,36,78,336
2,36,78,336
2,36,78,336
2,36,78,336
2,36,78,336
2,36,78,336
2,36,78,336
2,36,78,336
2,36,78,336
2,36,78,336
2,36,78,336
2,36,78,336
2,36,78,336
2,36,78,336
2,36,78,336
2,36,78,336
2,36,78,336
2,36,78,336
2,36,78,336
2,36,78,336
2,36,78,336
2,36,78,336
2,36,78,336
2,36,78,336
2,36,78,336
2,36,78,336
2,36,78,336
2,36,78,336
2,36,78,336
2,36,78,336
2,36,78,336
2,36,78,336
2,36,78,336
2,36,78,336
2,36,78,336
2,36,78,336
2,36,78,336
2,36,78,336
2,36,78,336
2,36,78,336
2,36,78,336
2,36,78,336
2,36,78,336
2,36,78,336
2,36,78,336
2,36,78,336
2,36,78,336
2,36,78,336
2,36,78,336
2,36,78,336
2,36,78,336
2,36,78,336
2,36,78,336
2,36,78,336
2,36,78,336
2,36,78,336
2,36,78,336
2,36,78,336
2,36,78,336
2,36,78,336
2,36,78,336
2,36,78,336
2,36,78,336
2,36,78,336
2,36,78,336
2,36,78,336
2,36,78,336
2,36,78,336
2,36,78,336
2,36,78,336
2,36,78,336
2,36,78,336
2,36,78,336
2,36,78,336
2,36,78,336
2,36,78,336
2,36,78,336
2,36,78,336
2,36,78,336
2,36,78,336
2,36,78,336
2,36,78,336
2,36,78,336
2,36,78,336
2,36,78,336
2,36,78,336
2,36,78,336
2,36,78,336
2,36,78,336
2,36,78,336
2,36,78,336
3,38,78,3456
3,38,78,720
3,38,78,720
3,38,78,720
3,38,78,720
3,38,78,720
3,38,78,720
3,38,58,652
3,38,78,20
3,38,77,144
3,38,63,76
3,38,78,212
3,38,78,336
3,38,78,336
3,38,78,336
3,38,78,336
3,38,78,336
3,38,78,336
3,38,78,336
3,38,78,336
3,38,78,336
3,38,78,336
3,38,78,336
3,38,78,336
3,38,78,336
3,38,78,336
3,38,78,336
3,38,78,336
3,38,78,336
3,38,78,336
3,38,78,336
3,38,78,336
3,38,78,336
3,38,78,336
3,38,78,336
3,38,78,336
3,38,78,336
3,38,78,336
3,38,78,336
3,38,78,336
3,38,78,336
3,38,78,336
3,38,55,144
3,38,52,76
3,38,78,20
3,38,78,336
3,38,78,336
3,38,78,336
3,38,78,336
3,38,78,336
3,38,78,336
3,38,78,336
3,38,78,336
3,38,78,336
3,38,78,336
3,38,78,336
3,38,78,336
3,38,78,336
3,38,78,336
3,38,78,336
3,38,78,336
3,38,78,336
3,38,78,336
3,38,78,336
3,38,78,336
3,38,78,336
3,38,78,336
3,38,78,336
3,38,78,336
3,38,78,336
3,38,78,336
3,38,78,336
3,38,78,336
3,38,78,336
3,38,78,336
3,38,68,144
3,38,57,80
3,38,78,16
3,38,68,144
3,38,78,144
3,38,68,76
3,38,78,212
3,38,78,336
3,38,78,336
3,38,78,336
3,38,78,336
3,38,78,336
3,38,78,336
3,38,78,336
3,38,78,336
3,38,78,336
3,38,78,336
3,38,78,336
3,38,78,336
3,38,78,336
3,38,78,336
3,38,78,336
3,38,78,336
3,38,78,336
3,38,78,336
3,38,78,336
3,38,78,336
3,38,78,336
3,38,78,336
3,38,78,336
3,38,78,336
3,38,78,336
3,38,78,336
3,38,78,336
3,38,78,336
3,38,78,336
3,38,78,336
3,38,78,336
3,38,55,144
3,38,55,80
3,38,78,16
3,38,72,268
3,38,64,144
3,38,55,144
3,38,66,20
3,38,46,76
3,38,78,20
3,38,78,144
3,38,55,76
3,38,78,212
3,38,78,336
3,38,78,336
3,38,78,336
3,38,78,336
3,38,78,336
3,38,78,336
3,38,78,336
3,38,78,336
3,38,78,336
3,38,78,336
3,38,78,336
3,38,78,336
3,38,78,336
3,38,78,336
3,38,78,336
3,38,78,336
3,38,78,336
3,38,78,336
3,38,78,336
3,38,78,336
3,38,78,336
3,38,78,336
3,38,78,336
3,38,78,336
3,38,78,336
3,38,78,336
3,38,78,336
3,38,78,336
3,38,78,336
3,38,78,336
3,38,61,144
3,38,59,76
3,38,78,20
3,38,78,336
3,38,78,336
3,38,78,336
3,38,78,336
3,38,78,336
3,38,78,336
3,38,78,336
3,38,78,336
3,38,78,336
3,38,78,336
3,38,78,336
3,38,78,336
3,38,78,336
3,38,78,336
3,38,78,336
3,38,78,336
3,38,78,336
3,38,78,336
3,38,78,336
3,38,78,336
3,38,78,336
3,38,78,336
3,38,78,336
3,38,78,336
3,38,78,336
3,38,78,336
3,38,78,336
3,38,78,336
3,38,78,528
3,38,78,720
3,38,78,720
3,38,78,720
3,38,78,720
3,38,78,720
3,38,56,652
3,38,78,20
3,38,56,460
3,38,78,20
3,38,78,144
3,38,49,76
3,38,78,20
3,38,78,336
3,38,78,336
3,38,78,336
3,38,78,336
3,38,78,336
3,38,78,336
3,38,78,336
3,38,78,336
3,38,78,336
3,38,78,336
3,38,78,336
3,38,78,336
3,38,78,336
3,38,78,336
3,38,78,336
3,38,78,336
3,38,78,336
3,38,78,336
3,38,78,336
3,38,78,336
3,38,78,336
3,38,78,336
3,38,78,336
3,38,78,336
3,38,78,336
3,38,78,336
3,38,78,336
3,38,78,336
3,38,78,528
3,38,66,76
3,38,64,144
3,38,61,144
3,38,78,20
3,38,61,76
3,38,78,20
3,38,78,144
3,38,61,76
3,38,78,212
3,38,78,336
3,38,78,336
3,38,78,336
3,38,78,336
3,38,78,336
3,38,78,336
3,38,78,336
3,38,78,336
3,38,78,336
3,38,78,336
3,38,78,336
3,38,78,336
3,38,78,336
3,38,78,336
3,38,58,144
3,38,58,76
3,38,78,20
3,38,78,336
3,38,78,336
3,38,78,336
3,38,78,336
3,38,78,336
3,38,78,336
3,38,78,336
3,38,78,336
3,38,78,336
3,38,78,336
3,38,78,336
3,38,78,336
3,38,78,336
3,38,78,336
3,38,61,144
3,38,72,76
3,38,75,144
3,38,78,144
3,38,69,144
3,38,78,212
3,38,78,336
3,38,78,336
3,38,78,336
3,38,78,336
3,38,78,336
3,38,78,336
3,38,78,336
3,38,78,336
3,38,78,336
3,38,78,336
3,38,78,336
3,38,78,336
3,38,78,336
3,38,78,336
3,38,58,144
3,38,58,76
3,38,78,20
3,38,78,336
3,38,78,336
3,38,78,336
3,38,78,336
3,38,78,336
3,38,78,336
3,38,78,336
3,38,78,336
3,38,78,336
3,38,78,336
3,38,78,336
3,38,78,336
3,38,48,144
3,38,57,76
3,38,78,20
3,38,68,268
3,38,75,144
3,38,61,144
3,38,75,20
3,38,55,76
3,38,75,20
3,38,78,144
3,38,61,76
3,38,78,212
3,38,78,336
3,38,78,336
3,38,78,336
3,38,78,336
3,38,78,336
3,38,78,336
3,38,78,336
3,38,78,336
3,38,78,336
3,38,78,336
3,38,78,336
3,38,78,336
3,38,78,336
3,38,78,336
3,38,78,336
3,38,78,336
3,38,78,336
3,38,78,336
3,38,78,336
3,38,78,336
3,38,78,336
3,38,78,336
3,38,78,336
3,38,78,336
3,38,78,336
3,38,78,336
3,38,78,336
3,38,78,336
3,38,78,336
3,38,66,144
3,38,69,76
3,38,78,144
3,38,78,144
3,38,68,144
3,38,78,212
3,38,78,336
3,38,78,336
3,38,78,336
3,38,78,336
3,38,78,336
3,38,78,336
3,38,78,336
3,38,78,336
3,38,78,336
3,38,78,336
3,38,78,336
3,38,78,336
3,38,78,336
3,38,78,336
3,38,58,144
3,38,58,80
3,38,78,16
3,38,78,336
3,38,78,336
3,38,78,336
3,38,78,336
3,38,78,336
3,38,78,336
3,38,78,336
3,38,78,336
3,38,78,336
3,38,78,336
3,38,78,336
3,38,78,336
3,38,58,268
3,38,78,20
3,38,65,268
3,38,78,144
3,38,69,144
3,38,55,20
3,38,58,76
3,38,78,20
3,38,78,144
3,38,58,76
3,38,78,212
3,38,78,336
3,38,78,336
3,38,78,336
3,38,78,336
3,38,78,336
3,38,78,336
3,38,78,336
3,38,78,336
3,38,78,336
3,38,78,336
3,38,78,336
3,38,78,336
3,38,78,336
3,38,78,336
3,38,78,336
3,38,78,336
3,38,78,336
3,38,78,336
3,38,78,336
3,38,78,336
3,38,78,336
3,38,78,336
3,38,78,336
3,38,78,336
3,38,78,336
3,38,78,336
3,38,78,336
3,38,78,336
3,38,78,336
3,38,78,336
3,38,78,336
4,42,91,3072
4,42,73,156
4,42,45,92
4,42,82,14
4,42,73,162
4,42,47,86
4,42,91,16
4,42,75,158
4,42,45,92
4,42,82,14
4,42,73,162
4,42,47,86
4,42,91,16
4,42,73,156
4,42,45,92
4,42,82,14
4,42,73,162
4,42,47,86
4,42,91,16
4,42,66,158
4,42,82,156
4,42,73,162
4,42,91,150
4,42,73,156
4,42,45,92
4,42,82,14
4,42,73,162
4,42,47,86
4,42,91,16
4,42,73,158
4,42,45,92
4,42,82,14
4,42,73,162
4,42,47,86
4,42,91,16
4,42,73,156
4,42,45,92
4,42,82,14
4,42,73,162
4,42,47,86
4,42,73,976
4,42,45,92
4,42,82,14
4,42,73,162
4,42,47,86
4,42,91,16
4,42,42,94
4,42,73,14
4,42,45,92
4,42,82,14
4,42,73,162
4,42,47,86
4,42,91,16
4,42,73,156
4,42,45,92
4,42,82,14
4,42,73,162
4,42,47,86
4,42,91,16
4,42,42,94
4,42,73,14
4,42,82,156
4,42,45,98
4,42,91,206
4,42,73,156
4,42,45,92
4,42,82,14
4,42,73,162
4,42,47,86
4,42,91,16
4,42,42,94
4,42,73,14
4,42,45,92
4,42,82,14
4,42,73,162
4,42,47,86
4,42,91,16
4,42,73,156
4,42,45,92
4,42,82,14
4,42,73,162
4,42,47,86
4,42,91,16
4,42,42,94
4,42,73,14
4,42,82,156
4,42,45,98
4,42,73,14
4,42,37,86
4,42,91,16
4,42,73,156
4,42,45,92
4,42,82,14
4,42,73,162
4,42,47,86
4,42,91,16
4,42,42,94
4,42,73,14
4,42,45,92
4,42,82,14
4,42,73,162
4,42,47,86
4,42,91,16
4,42,73,156
4,42,45,92
4,42,82,14
4,42,73,162
4,42,47,86
4,42,91,16
4,42,42,94
4,42,73,14
4,42,82,156
4,42,45,98
4,42,91,206
4,42,73,156
4,42,45,92
4,42,82,14
4,42,73,162
4,42,47,86
4,42,91,16
4,42,42,94
4,42,73,14
4,42,45,92
4,42,82,14
4,42,73,162
4,42,47,86
4,42,91,16
4,42,73,156
4,42,45,92
4,42,82,14
4,42,73,162
4,42,47,86
4,42,91,16
4,42,73,926
4,42,45,92
4,42,82,14
4,42,73,162
4,42,47,86
4,42,91,16
4,42,42,94
4,42,73,14
4,42,45,92
4,42,82,14
4,42,73,162
4,42,47,86
4,42,91,16
4,42,73,156
4,42,45,92
4,42,82,14
4,42,73,162
4,42,47,86
4,42,91,16
4,42,42,94
4,42,73,14
4,42,82,156
4,42,45,98
4,42,91,206
4,42,73,156
4,42,45,92
4,42,82,14
4,42,73,162
4,42,47,86
4,42,91,16
4,42,42,94
4,42,73,14
4,42,45,92
4,42,82,14
4,42,73,162
4,42,47,86
4,42,91,16
4,42,73,156
4,42,45,92
4,42,82,14
4,42,73,162
4,42,47,86
4,42,91,16
4,42,42,94
4,42,73,14
4,42,82,156
4,42,45,98
4,42,91,206
4,42,73,156
4,42,45,92
4,42,82,14
4,42,73,162
4,42,47,86
4,42,91,16
4,42,42,94
4,42,73,14
4,42,45,92
4,42,82,14
4,42,73,162
4,42,47,86
4,42,91,16
4,42,73,156
4,42,45,92
4,42,82,14
4,42,73,162
4,42,47,86
4,42,91,16
4,42,42,94
4,42,73,14
4,42,82,156
4,42,45,98
4,42,73,14
