track,note,velocity,time
2,35,108,1912
2,35,105,235
2,35,108,509
2,35,105,235
2,35,108,509
2,35,105,235
2,35,108,509
2,35,105,235
2,35,108,509
2,35,105,235
2,35,108,509
2,35,105,235
2,35,108,509
2,35,105,235
2,35,108,509
2,35,105,235
2,35,108,509
2,35,105,235
2,35,108,509
2,35,105,235
2,35,108,509
2,35,105,235
2,35,108,509
2,35,105,235
2,35,108,509
2,35,105,235
2,35,108,509
2,35,105,235
2,35,108,509
2,35,105,235
2,35,108,509
2,35,105,235
2,35,108,509
2,35,105,235
2,35,108,509
2,35,105,235
2,35,108,509
2,35,105,235
2,35,108,509
2,35,105,235
2,35,108,509
2,35,105,235
2,35,108,509
2,35,105,235
2,35,108,509
2,35,105,235
2,35,108,509
2,35,105,235
2,35,108,509
2,35,105,235
2,35,108,509
2,35,105,235
2,35,108,509
2,35,105,235
2,35,108,509
2,35,105,235
2,35,108,509
2,35,105,235
2,35,108,509
2,35,105,235
2,35,108,509
2,35,105,235
2,35,108,509
2,35,105,235
2,35,108,509
2,35,105,235
2,35,108,509
2,35,105,235
2,35,108,509
2,35,105,235
2,35,108,509
2,35,105,235
2,35,108,509
2,35,105,235
2,35,108,509
2,35,105,235
2,35,108,509
2,35,105,235
2,35,108,509
2,35,105,235
2,35,108,509
2,35,105,235
2,35,108,509
2,35,105,235
2,35,108,509
2,35,105,235
2,35,108,509
2,35,105,235
2,35,108,509
2,35,105,235
2,35,108,509
2,35,105,235
2,35,108,509
2,35,105,235
2,35,108,509
2,35,105,235
2,35,108,509
2,35,105,235
2,35,108,509
2,35,105,235
2,35,108,509
2,35,105,235
2,35,108,509
2,35,105,235
2,35,108,509
2,35,105,235
2,35,108,509
2,35,105,235
2,35,108,509
2,35,105,235
2,35,108,509
2,35,105,235
2,35,108,509
2,35,105,235
2,35,108,509
2,35,105,235
2,35,108,509
2,35,105,235
2,35,108,509
2,35,105,235
2,35,108,509
2,35,105,235
2,35,108,509
2,35,105,235
2,35,108,509
2,35,105,235
2,35,108,509
2,35,105,235
2,35,108,509
2,35,105,235
2,35,108,509
2,35,105,235
2,35,108,509
2,35,105,235
2,35,108,509
2,35,105,235
2,35,108,509
2,35,105,235
2,35,108,509
2,35,105,235
2,35,108,509
2,35,105,235
2,35,108,509
2,35,105,235
2,35,108,509
2,35,105,235
2,35,108,509
2,35,105,235
2,35,108,509
2,35,105,235
2,35,108,509
2,35,105,235
2,35,108,509
2,35,105,235
2,35,108,509
2,35,105,235
2,35,108,509
2,35,105,235
2,35,108,509
2,35,105,235
2,35,108,509
2,35,105,235
2,35,108,509
2,35,105,235
2,35,108,509
2,35,105,235
2,35,108,509
2,35,105,235
2,35,108,509
2,35,105,235
2,35,108,509
2,35,105,235
2,35,108,509
2,35,105,235
2,35,108,509
2,35,105,235
2,35,108,509
2,35,105,235
2,35,108,509
2,35,105,235
2,35,108,509
2,35,105,235
2,35,108,509
2,35,105,235
2,35,108,509
2,35,105,235
2,35,108,509
2,35,105,235
2,35,108,509
2,35,105,235
2,35,108,509
2,35,105,235
2,35,108,509
2,35,105,235
2,35,108,509
2,35,105,235
2,35,108,509
2,35,105,235
2,35,108,509
2,35,105,235
2,35,108,509
2,35,105,235
2,35,108,509
2,35,105,235
2,35,108,509
2,35,105,235
2,35,108,509
2,35,105,235
2,35,108,509
2,35,105,235
2,35,108,509
2,35,105,235
2,35,108,509
2,35,105,235
2,35,108,509
2,35,105,235
2,35,108,509
2,35,105,235
2,35,108,509
2,35,105,235
2,35,108,509
2,35,105,235
2,35,108,509
2,35,105,235
2,35,108,509
2,35,105,235
2,35,108,509
2,35,105,235
2,35,108,509
2,35,105,235
2,35,108,509
2,35,105,235
2,35,108,509
2,35,105,235
2,35,108,509
2,35,105,235
2,35,108,509
2,35,105,235
2,35,108,509
2,35,105,235
2,35,108,509
2,35,105,235
2,35,108,509
2,35,105,235
2,35,108,509
2,35,105,235
2,35,108,509
2,35,105,235
2,35,108,509
2,35,105,235
2,35,108,509
2,35,105,235
2,35,108,509
2,35,105,235
2,35,108,509
2,35,105,235
2,35,108,509
2,35,105,235
2,35,108,509
2,35,105,235
2,35,108,509
2,35,105,235
2,35,108,509
2,35,105,235
2,35,108,509
2,35,105,235
2,35,108,509
2,35,105,235
2,35,108,509
2,35,105,235
2,35,108,509
2,35,105,235
2,35,108,509
2,35,105,235
2,35,108,509
2,35,105,235
2,35,108,509
2,35,105,235
2,35,108,509
2,35,105,235
2,35,108,509
2,35,105,235
2,35,108,509
2,35,105,235
2,35,108,509
2,35,105,235
2,35,108,509
2,35,105,235
2,35,108,509
2,35,105,235
2,35,108,509
2,35,105,235
2,35,108,509
2,35,105,235
2,35,108,509
2,35,105,235
2,35,108,509
2,35,105,235
2,35,108,509
2,35,105,235
2,35,108,509
2,35,105,235
2,35,108,509
2,35,105,235
2,35,108,509
2,35,105,235
2,35,108,509
2,35,105,235
2,35,108,509
2,35,105,235
2,35,108,509
2,35,105,235
2,35,108,509
2,35,105,235
2,35,108,509
2,35,105,235
2,35,108,509
2,35,105,235
2,35,108,509
2,35,105,235
2,35,108,509
2,35,105,235
2,36,101,509
2,36,120,115
2,36,120,171
3,38,105,2292
3,38,105,486
3,38,105,408
3,38,105,444
3,38,105,441
3,38,105,402
3,38,105,417
3,38,85,418
3,38,105,90
3,38,105,458
3,38,105,439
3,38,105,495
3,38,105,499
3,38,105,542
3,38,105,430
3,38,85,405
3,38,105,74
3,38,85,371
3,38,105,66
3,38,82,145
3,38,105,432
3,38,105,486
3,38,105,408
3,38,105,444
3,38,105,441
3,38,105,402
3,38,105,417
3,38,85,418
3,38,105,90
3,38,105,458
3,38,105,486
3,38,105,408
3,38,105,444
3,38,105,441
3,38,105,402
3,38,105,417
3,38,85,418
3,38,105,90
3,38,105,458
3,38,105,402
3,38,105,417
3,38,85,418
3,38,105,90
3,38,105,458
3,38,105,402
3,38,105,417
3,38,85,418
3,38,105,90
3,38,105,458
3,38,105,439
3,38,105,495
3,38,105,499
3,38,105,542
3,38,105,430
3,38,85,405
3,38,105,74
3,38,82,256
3,38,85,304
3,38,105,66
3,38,105,657
3,38,105,486
3,38,105,408
3,38,105,444
3,38,105,441
3,38,105,402
3,38,105,417
3,38,85,418
3,38,105,90
3,38,105,458
3,38,105,486
3,38,105,408
3,38,105,444
3,38,105,441
3,38,105,402
3,38,105,417
3,38,85,418
3,38,105,90
3,38,105,458
3,38,105,402
3,38,105,417
3,38,85,418
3,38,105,90
3,38,105,458
3,38,105,402
3,38,105,417
3,38,85,418
3,38,105,90
3,38,105,458
3,38,105,439
3,38,105,495
3,38,105,499
3,38,105,542
3,38,105,430
3,38,85,405
3,38,105,74
3,38,82,256
3,38,85,304
3,38,105,66
3,38,105,657
3,38,105,486
3,38,105,408
3,38,105,444
3,38,105,441
3,38,105,402
3,38,105,417
3,38,85,418
3,38,105,90
3,38,105,458
3,38,105,486
3,38,105,408
3,38,105,444
3,38,105,441
3,38,105,402
3,38,105,417
3,38,85,418
3,38,105,90
3,38,105,458
3,38,105,402
3,38,105,417
3,38,85,418
3,38,105,90
3,38,105,458
3,38,105,402
3,38,105,417
3,38,85,418
3,38,105,90
3,38,105,458
3,38,105,439
3,38,105,495
3,38,105,499
3,38,105,542
3,38,105,439
3,38,105,495
3,38,105,499
3,38,105,542
3,38,105,430
3,38,85,405
3,38,105,74
3,38,82,115
3,38,105,304
3,38,85,145
3,38,105,450
3,38,105,486
3,38,105,408
3,38,105,444
3,38,105,441
3,38,105,402
3,38,105,417
3,38,85,418
3,38,105,90
3,38,105,458
3,38,105,486
3,38,105,408
3,38,105,444
3,38,105,441
3,38,105,402
3,38,105,417
3,38,85,418
3,38,105,90
3,38,105,458
3,38,105,402
3,38,105,417
3,38,85,418
3,38,105,90
3,38,105,458
3,38,105,402
3,38,105,417
3,38,85,418
3,38,105,90
3,38,105,458
3,38,105,439
3,38,105,495
3,38,105,499
3,38,105,542
3,38,105,430
3,38,85,405
3,38,105,74
3,38,82,256
3,38,85,304
3,38,105,66
3,38,105,657
3,38,105,486
3,38,105,408
3,38,105,444
3,38,105,441
3,38,105,402
3,38,105,417
3,38,85,418
3,38,105,90
3,38,105,458
3,38,105,486
3,38,105,408
3,38,105,444
3,38,105,441
3,38,105,402
3,38,105,417
3,38,85,418
3,38,105,90
3,38,105,458
3,38,105,402
3,38,105,417
3,38,85,418
3,38,105,90
3,38,105,458
3,38,105,402
3,38,105,417
3,38,85,418
3,38,105,90
3,38,105,458
3,38,105,439
3,38,105,495
3,38,105,499
3,38,105,542
3,38,105,430
3,38,85,405
3,38,105,74
3,38,82,256
3,38,85,304
3,38,105,66
3,38,105,657
3,38,105,486
3,38,105,408
3,38,105,444
3,38,105,441
3,38,105,402
3,38,105,417
3,38,85,418
3,38,105,90
3,38,105,458
3,38,105,486
3,38,105,408
3,38,105,444
3,38,105,441
3,38,105,402
3,38,105,417
3,38,85,418
3,38,105,90
3,38,105,458
3,38,105,402
3,38,105,417
3,38,85,418
3,38,105,90
3,38,105,458
3,38,105,402
3,38,105,417
3,38,85,418
3,38,105,90
3,38,105,458
3,38,105,439
3,38,105,495
3,38,105,499
3,38,105,542
3,38,105,439
3,38,105,495
3,38,105,499
3,38,105,542
3,38,105,430
3,38,85,405
3,38,105,74
3,38,82,115
3,38,105,304
3,38,85,145
3,38,105,450
3,38,105,486
3,38,105,408
3,38,105,444
3,38,105,441
3,38,105,402
3,38,105,417
3,38,85,418
3,38,105,90
3,38,105,458
3,38,105,486
3,38,105,408
3,38,105,444
3,38,105,441
3,38,105,402
3,38,105,417
3,38,85,418
3,38,105,90
3,38,105,458
3,38,105,402
3,38,105,417
3,38,85,418
3,38,105,90
3,38,105,458
3,38,105,402
3,38,105,417
3,38,85,418
3,38,105,90
3,38,105,458
3,38,105,439
3,38,105,495
3,38,105,499
3,38,105,542
3,38,105,430
3,38,85,405
3,38,105,74
3,38,82,256
3,38,85,304
3,38,105,66
3,38,105,657
3,38,105,486
3,38,105,408
3,38,105,444
3,38,105,441
3,38,105,402
3,38,105,417
3,38,85,418
3,38,105,90
3,38,105,458
3,38,105,486
3,38,105,408
3,38,105,444
3,38,105,441
3,38,105,402
3,38,105,417
3,38,85,418
3,38,105,90
3,38,105,458
3,38,105,402
3,38,105,417
3,38,85,418
3,38,105,90
3,38,105,458
3,38,105,402
3,38,105,417
3,38,85,418
3,38,105,90
3,38,105,458
3,38,105,439
3,38,105,495
3,38,105,499
3,38,105,542
3,38,105,430
3,38,85,405
3,38,105,74
3,38,82,256
3,38,85,304
3,38,105,66
3,38,105,657
3,38,105,486
3,38,105,408
3,38,105,444
3,38,105,441
3,38,105,402
3,38,105,417
3,38,85,418
3,38,105,90
3,38,105,458
3,38,105,486
3,38,105,408
3,38,105,444
3,38,105,441
3,38,105,402
3,38,105,417
3,38,85,418
3,38,105,90
3,38,105,458
3,38,105,402
3,38,105,417
3,38,85,418
3,38,105,90
3,38,105,458
3,38,105,402
3,38,105,417
3,38,85,418
3,38,105,90
3,38,105,458
3,38,105,439
3,38,105,495
3,38,105,499
3,38,105,542
3,38,105,439
3,38,105,495
3,38,105,499
3,38,105,542
3,38,105,430
3,38,85,405
3,38,105,74
3,38,82,115
3,38,105,304
3,38,85,145
3,38,105,450
3,38,105,439
3,38,105,495
3,38,105,499
3,38,105,542
3,38,105,430
3,38,98,149
3,38,98,519
4,42,110,1904
4,42,72,180
4,42,110,63
4,42,72,187
4,42,110,66
4,42,72,180
4,42,110,60
4,42,69,177
4,42,110,54
4,42,72,180
4,42,110,63
4,42,72,187
4,42,110,66
4,42,72,180
4,42,110,60
4,42,69,177
4,42,110,54
4,42,72,180
4,42,110,63
4,42,72,187
4,42,110,66
4,42,72,180
4,42,110,60
4,42,69,177
4,42,110,54
4,42,72,180
4,42,110,63
4,42,72,187
4,42,110,66
4,42,72,180
4,42,110,60
4,42,69,177
4,42,110,54
4,42,72,180
4,42,110,63
4,42,72,187
4,42,110,66
4,42,72,180
4,42,110,60
4,42,69,177
4,42,110,54
4,42,72,180
4,42,110,63
4,42,72,187
4,42,110,66
4,42,72,180
4,42,110,60
4,42,69,177
4,42,110,54
4,42,72,180
4,42,110,63
4,42,72,187
4,42,110,66
4,42,72,180
4,42,110,60
4,42,69,177
4,42,110,54
4,42,72,180
4,42,110,63
4,42,72,187
4,42,110,66
4,42,72,180
4,42,110,60
4,42,69,177
4,42,110,54
4,42,72,180
4,42,110,63
4,42,72,187
4,42,110,66
4,42,72,180
4,42,110,60
4,42,69,177
4,42,110,54
4,42,72,180
4,42,110,63
4,42,72,187
4,42,110,66
4,42,72,180
4,42,110,60
4,42,69,177
4,42,110,54
4,42,72,180
4,42,110,63
4,42,72,187
4,42,110,66
4,42,72,180
4,42,110,60
4,42,69,177
4,42,110,54
4,42,72,180
4,42,110,63
4,42,72,187
4,42,110,66
4,42,72,180
4,42,110,60
4,42,69,177
4,42,110,54
4,42,72,180
4,42,110,63
4,42,72,187
4,42,110,66
4,42,72,180
4,42,110,60
4,42,69,177
4,42,110,54
4,42,72,180
4,42,110,63
4,42,72,187
4,42,110,66
4,42,72,180
4,42,110,60
4,42,69,177
4,42,110,54
4,42,72,180
4,42,110,63
4,42,72,187
4,42,110,66
4,42,72,180
4,42,110,60
4,42,69,177
4,42,110,54
4,42,72,180
4,42,110,63
4,42,72,187
4,42,110,66
4,42,72,180
4,42,110,60
4,42,69,177
4,42,110,54
4,42,72,180
4,42,110,63
4,42,72,187
4,42,110,66
4,42,72,180
4,42,110,60
4,42,69,177
4,42,110,54
4,42,72,180
4,42,110,63
4,42,72,187
4,42,110,66
4,42,72,180
4,42,110,60
4,42,69,177
4,42,110,54
4,42,72,180
4,42,110,63
4,42,72,187
4,42,110,66
4,42,72,180
4,42,110,60
4,42,69,177
4,42,110,54
4,42,72,180
4,42,110,63
4,42,72,187
4,42,110,66
4,42,72,180
4,42,110,60
4,42,69,177
4,42,110,54
4,42,72,180
4,42,110,63
4,42,72,187
4,42,110,66
4,42,72,180
4,42,110,60
4,42,69,177
4,42,110,54
4,42,72,180
4,42,110,63
4,42,72,187
4,42,110,66
4,42,72,180
4,42,110,60
4,42,69,177
4,42,110,54
4,42,72,180
4,42,110,63
4,42,72,187
4,42,110,66
4,42,72,180
4,42,110,60
4,42,69,177
4,42,110,54
4,42,72,180
4,42,110,63
4,42,72,187
4,42,110,66
4,42,72,180
4,42,110,60
4,42,69,177
4,42,110,54
4,42,72,180
4,42,110,63
4,42,72,187
4,42,110,66
4,42,72,180
4,42,110,60
4,42,69,177
4,42,110,54
4,42,72,180
4,42,110,63
4,42,72,187
4,42,110,66
4,42,72,180
4,42,110,60
4,42,69,177
4,42,110,54
4,42,72,180
4,42,110,63
4,42,72,187
4,42,110,66
4,42,72,180
4,42,110,60
4,42,69,177
4,42,110,54
4,42,72,180
4,42,110,63
4,42,72,187
4,42,110,66
4,42,72,180
4,42,110,60
4,42,69,177
4,42,110,54
4,42,72,180
4,42,110,63
4,42,72,187
4,42,110,66
4,42,72,180
4,42,110,60
4,42,69,177
4,42,110,54
4,42,72,180
4,42,110,63
4,42,72,187
4,42,110,66
4,42,72,180
4,42,110,60
4,42,69,177
4,42,110,54
4,42,72,180
4,42,110,63
4,42,72,187
4,42,110,66
4,42,72,180
4,42,110,60
4,42,69,177
4,42,110,54
4,42,72,180
4,42,110,63
4,42,72,187
4,42,110,66
4,42,72,180
4,42,110,60
4,42,69,177
4,42,110,54
4,42,72,180
4,42,110,63
4,42,72,187
4,42,110,66
4,42,72,180
4,42,110,60
4,42,69,177
4,42,110,54
4,42,72,180
4,42,110,63
4,42,72,187
4,42,110,66
4,42,72,180
4,42,110,60
4,42,69,177
4,42,110,54
4,42,72,180
4,42,110,63
4,42,72,187
4,42,110,66
4,42,72,180
4,42,110,60
4,42,69,177
4,42,110,54
4,42,72,180
4,42,110,63
4,42,72,187
