track,note,velocity,time
1,62,82,3052
1,71,91,0
1,67,91,0
1,67,91,642
1,71,91,2
1,62,91,0
1,71,91,632
1,67,82,0
1,62,91,2
1,67,91,654
1,62,91,0
1,71,91,2
1,62,82,664
1,64,82,0
1,71,91,0
1,67,91,0
1,67,91,642
1,62,91,2
1,64,91,0
1,71,91,0
1,71,91,632
1,67,82,0
1,62,91,2
1,64,91,0
1,62,91,654
1,64,91,0
1,67,91,0
1,71,91,2
1,64,82,664
1,72,91,0
1,67,91,0
1,67,91,642
1,64,91,2
1,72,91,0
1,69,91,632
1,66,82,0
1,62,91,2
1,66,91,654
1,62,91,0
1,69,91,2
1,62,82,664
1,71,91,0
1,67,91,0
1,67,91,642
1,71,91,2
1,62,91,0
1,67,91,632
1,63,82,0
1,58,91,2
1,65,91,654
1,60,91,0
1,69,91,2
1,62,82,664
1,71,91,0
1,67,91,0
1,67,91,642
1,71,91,2
1,62,91,0
1,71,91,632
1,67,82,0
1,62,91,2
1,67,91,654
1,62,91,0
1,71,91,2
1,62,82,664
1,71,91,0
1,66,91,0
1,66,91,642
1,62,91,2
1,71,91,0
1,71,91,632
1,66,82,0
1,62,91,2
1,62,91,654
1,66,91,0
1,71,91,2
1,62,82,664
1,71,91,0
1,64,82,0
1,67,91,0
1,67,91,642
1,62,91,2
1,71,91,0
1,64,91,0
1,71,91,632
1,67,82,0
1,64,91,2
1,62,91,0
1,64,91,654
1,67,91,0
1,62,91,0
1,71,91,2
1,62,82,664
1,69,91,0
1,66,91,0
1,66,91,642
1,69,91,2
1,62,91,0
1,65,82,632
1,71,91,0
1,67,82,0
1,62,91,2
1,65,91,654
1,67,91,0
1,62,91,0
1,71,91,2
1,64,82,664
1,72,91,0
1,67,91,0
1,67,91,642
1,72,91,2
1,64,91,0
1,74,91,632
1,69,82,0
1,66,91,2
1,69,91,654
1,66,91,0
1,74,91,2
1,69,91,664
1,63,82,0
1,71,91,0
1,66,91,0
1,69,91,642
1,66,91,0
1,63,91,2
1,71,91,0
1,71,91,632
1,67,82,0
1,64,91,2
1,64,91,654
1,62,91,0
1,67,91,0
1,71,91,2
1,67,91,664
1,72,91,0
1,64,82,0
1,69,91,0
1,67,91,642
1,69,91,0
1,72,91,2
1,64,91,0
1,70,91,632
1,67,82,0
1,64,91,2
1,60,91,0
1,64,91,654
1,67,91,0
1,60,91,0
1,70,91,2
1,63,82,664
1,71,91,0
1,66,91,0
1,66,91,642
1,71,91,2
1,63,91,0
1,66,82,632
1,72,91,0
1,69,82,0
1,62,91,2
1,66,91,654
1,69,91,0
1,62,91,0
1,72,91,2
1,62,82,664
1,71,91,0
1,67,91,0
1,67,91,642
1,71,91,2
1,62,91,0
1,71,91,632
1,66,82,0
1,62,91,2
1,66,91,654
1,62,91,0
1,71,91,2
1,64,82,664
1,60,91,0
1,67,91,0
1,67,91,642
1,64,91,2
1,60,91,0
1,69,91,632
1,66,82,0
1,62,91,2
1,62,91,654
1,66,91,0
1,69,91,2
1,62,82,664
1,71,91,0
1,67,91,0
1,67,91,642
1,71,91,2
1,62,91,0
1,71,91,632
1,66,82,0
1,62,91,2
1,66,91,654
1,62,91,0
1,71,91,2
1,64,82,664
1,60,91,0
1,67,91,0
1,67,91,642
1,64,91,2
1,60,91,0
1,69,91,632
1,66,82,0
1,62,91,2
1,62,91,654
1,66,91,0
1,69,91,2
1,64,82,664
1,62,82,0
1,71,91,0
1,68,91,0
1,68,91,642
1,64,91,2
1,71,91,0
1,62,91,0
1,72,91,632
1,68,82,0
1,64,91,2
1,62,91,0
1,64,91,654
1,68,91,0
1,62,91,0
1,71,91,2
1,67,82,664
1,60,82,0
1,69,91,0
1,64,91,0
1,64,91,642
1,67,91,2
1,60,91,0
1,69,91,0
1,69,82,632
1,72,91,0
1,67,82,0
1,63,91,2
1,69,91,654
1,63,91,0
1,67,91,0
1,72,91,2
1,61,82,664
1,71,91,0
1,64,82,0
1,67,91,0
1,67,91,642
1,61,91,2
1,71,91,0
1,64,91,0
1,69,91,632
1,66,82,0
1,62,91,2
1,60,91,0
1,62,91,654
1,66,91,0
1,60,91,0
1,69,91,2
1,62,82,664
1,71,91,0
1,67,91,0
1,67,91,642
1,71,91,2
1,62,91,0
1,70,91,632
1,67,82,0
1,63,91,2
1,66,91,654
1,62,91,0
1,69,91,2
1,62,82,664
1,71,91,0
1,67,91,0
1,67,91,642
1,71,91,2
1,62,91,0
1,71,91,632
1,67,82,0
1,62,91,2
1,67,91,654
1,62,91,0
1,71,91,2
1,62,82,664
1,71,91,0
1,66,91,0
1,66,91,642
1,62,91,2
1,71,91,0
1,71,91,632
1,66,82,0
1,62,91,2
1,62,91,654
1,66,91,0
1,71,91,2
1,62,82,664
1,71,91,0
1,64,82,0
1,67,91,0
1,67,91,642
1,62,91,2
1,71,91,0
1,64,91,0
1,71,91,632
1,67,82,0
1,64,91,2
1,62,91,0
1,64,91,654
1,67,91,0
1,62,91,0
1,71,91,2
1,62,82,664
1,69,91,0
1,66,91,0
1,66,91,642
1,69,91,2
1,62,91,0
1,65,82,632
1,71,91,0
1,67,82,0
1,62,91,2
1,65,91,654
1,67,91,0
1,62,91,0
1,71,91,2
1,64,82,664
1,72,91,0
1,67,91,0
1,67,91,642
1,72,91,2
1,64,91,0
1,74,91,632
1,69,82,0
1,66,91,2
1,69,91,654
1,66,91,0
1,74,91,2
1,69,91,664
1,63,82,0
1,71,91,0
1,66,91,0
1,69,91,642
1,66,91,0
1,63,91,2
1,71,91,0
1,71,91,632
1,67,82,0
1,64,91,2
1,64,91,654
1,62,91,0
1,67,91,0
1,71,91,2
1,67,91,664
1,72,91,0
1,64,82,0
1,69,91,0
1,67,91,642
1,69,91,0
1,72,91,2
1,64,91,0
1,70,91,632
1,67,82,0
1,64,91,2
1,60,91,0
1,64,91,654
1,67,91,0
1,60,91,0
1,70,91,2
1,63,82,664
1,71,91,0
1,66,91,0
1,66,91,642
1,71,91,2
1,63,91,0
1,66,82,632
1,72,91,0
1,69,82,0
1,62,91,2
1,66,91,654
1,69,91,0
1,62,91,0
1,72,91,2
1,62,82,664
1,71,91,0
1,67,91,0
1,67,91,642
1,71,91,2
1,62,91,0
1,71,91,632
1,66,82,0
1,62,91,2
1,66,91,654
1,62,91,0
1,71,91,2
1,64,82,664
1,60,91,0
1,67,91,0
1,67,91,642
1,64,91,2
1,60,91,0
1,69,91,632
1,66,82,0
1,62,91,2
1,62,91,654
1,66,91,0
1,69,91,2
1,62,82,664
1,71,91,0
1,67,91,0
1,67,91,642
1,71,91,2
1,62,91,0
1,71,91,632
1,66,82,0
1,62,91,2
1,66,91,654
1,62,91,0
1,71,91,2
1,64,82,664
1,60,91,0
1,67,91,0
1,67,91,642
1,64,91,2
1,60,91,0
1,69,91,632
1,66,82,0
1,62,91,2
1,62,91,654
1,66,91,0
1,69,91,2
1,64,82,664
1,62,82,0
1,71,91,0
1,68,91,0
1,68,91,642
1,64,91,2
1,71,91,0
1,62,91,0
1,72,91,632
1,68,82,0
1,64,91,2
1,62,91,0
1,64,91,654
1,68,91,0
1,62,91,0
1,71,91,2
1,67,82,664
1,60,82,0
1,69,91,0
1,64,91,0
1,64,91,642
1,67,91,2
1,60,91,0
1,69,91,0
1,69,82,632
1,72,91,0
1,67,82,0
1,63,91,2
1,69,91,654
1,63,91,0
1,67,91,0
1,72,91,2
1,61,82,664
1,71,91,0
1,64,82,0
1,67,91,0
1,67,91,642
1,61,91,2
1,71,91,0
1,64,91,0
1,69,91,632
1,66,82,0
1,62,91,2
1,60,91,0
1,62,91,654
1,66,91,0
1,60,91,0
1,69,91,2
1,62,82,664
1,71,91,0
1,67,91,0
1,67,91,642
1,71,91,2
1,62,91,0
1,62,82,632
1,71,91,0
1,67,91,0
1,67,91,642
1,71,91,2
1,62,91,0
1,64,82,632
1,62,82,0
1,71,91,0
1,67,91,0
1,67,91,642
1,64,91,2
1,71,91,0
1,62,91,0
1,71,91,632
1,67,82,0
1,64,91,2
1,62,91,0
1,64,91,654
1,67,91,0
1,62,91,0
1,71,91,2
1,62,82,664
1,71,91,0
1,66,91,0
1,66,91,642
1,62,91,2
1,71,91,0
1,71,91,632
1,66,82,0
1,62,91,2
1,62,91,654
1,66,91,0
1,71,91,2
1,60,82,664
1,69,91,0
1,64,82,0
1,67,91,0
1,67,91,642
1,60,91,2
1,69,91,0
1,64,91,0
1,69,91,632
1,67,82,0
1,64,91,2
1,60,91,0
1,64,91,654
1,67,91,0
1,60,91,0
1,69,91,2
1,60,82,664
1,67,91,0
1,64,91,0
1,64,91,642
1,67,91,2
1,60,91,0
1,61,82,632
1,68,91,0
1,65,91,0
1,65,91,642
1,68,91,2
1,61,91,0
1,63,82,632
1,72,91,0
1,68,91,0
1,68,91,642
1,72,91,2
1,63,91,0
1,72,91,632
1,68,82,0
1,63,91,2
1,68,91,654
1,63,91,0
1,72,91,2
1,63,82,664
1,72,91,0
1,67,91,0
1,67,91,642
1,63,91,2
1,72,91,0
1,72,91,632
1,67,82,0
1,63,91,2
1,63,91,654
1,67,91,0
1,72,91,2
1,63,82,664
1,72,91,0
1,65,82,0
1,68,91,0
1,68,91,642
1,63,91,2
1,72,91,0
1,65,91,0
1,72,91,632
1,68,82,0
1,65,91,2
1,63,91,0
1,65,91,654
1,68,91,0
1,63,91,0
1,72,91,2
1,63,82,664
1,70,91,0
1,67,91,0
1,67,91,642
1,70,91,2
1,63,91,0
1,66,82,632
1,72,91,0
1,68,82,0
1,63,91,2
1,66,91,654
1,68,91,0
1,63,91,0
1,72,91,2
1,65,82,664
1,73,91,0
1,68,91,0
1,68,91,642
1,73,91,2
1,65,91,0
1,75,91,632
1,70,82,0
1,67,91,2
1,70,91,654
1,67,91,0
1,75,91,2
1,70,91,664
1,64,82,0
1,72,91,0
1,67,91,0
1,70,91,642
1,67,91,0
1,64,91,2
1,72,91,0
1,72,91,632
1,68,82,0
1,65,91,2
1,65,91,654
1,63,91,0
1,68,91,0
1,72,91,2
1,68,91,664
1,73,91,0
1,65,82,0
1,70,91,0
1,68,91,642
1,70,91,0
1,73,91,2
1,65,91,0
1,71,91,632
1,68,82,0
1,65,91,2
1,61,91,0
1,65,91,654
1,68,91,0
1,61,91,0
1,71,91,2
1,64,82,664
1,72,91,0
1,67,91,0
1,67,91,642
1,72,91,2
1,64,91,0
1,67,82,632
1,73,91,0
1,70,82,0
1,63,91,2
1,67,91,654
1,70,91,0
1,63,91,0
1,73,91,2
1,63,82,664
1,72,91,0
1,68,91,0
1,68,91,642
1,72,91,2
1,63,91,0
1,72,91,632
1,67,82,0
1,63,91,2
1,67,91,654
1,63,91,0
1,72,91,2
1,65,82,664
1,61,91,0
1,68,91,0
1,68,91,642
1,65,91,2
1,61,91,0
1,70,91,632
1,67,82,0
1,63,91,2
1,63,91,654
1,67,91,0
1,70,91,2
1,63,82,664
1,72,91,0
1,68,91,0
1,68,91,642
1,72,91,2
1,63,91,0
1,72,91,632
1,67,82,0
1,63,91,2
1,67,91,654
1,63,91,0
1,72,91,2
1,65,82,664
1,61,91,0
1,68,91,0
1,68,91,642
1,65,91,2
1,61,91,0
1,70,91,632
1,67,82,0
1,63,91,2
1,63,91,654
1,67,91,0
1,70,91,2
1,65,82,664
1,63,82,0
1,72,91,0
1,69,91,0
1,69,91,642
1,65,91,2
1,72,91,0
1,63,91,0
1,73,91,632
1,69,82,0
1,65,91,2
1,63,91,0
1,65,91,654
1,69,91,0
1,63,91,0
1,72,91,2
1,68,82,664
1,61,82,0
1,70,91,0
1,65,91,0
1,65,91,642
1,68,91,2
1,61,91,0
1,70,91,0
1,70,82,632
1,73,91,0
1,68,82,0
1,64,91,2
1,70,91,654
1,64,91,0
1,68,91,0
1,73,91,2
1,62,82,664
1,72,91,0
1,65,82,0
1,68,91,0
1,68,91,642
1,62,91,2
1,72,91,0
1,65,91,0
1,70,91,632
1,67,82,0
1,63,91,2
1,61,91,0
1,63,91,654
1,67,91,0
1,61,91,0
1,70,91,2
1,63,82,664
1,72,91,0
1,68,91,0
1,68,91,642
1,72,91,2
1,63,91,0
1,71,91,632
1,68,82,0
1,64,91,2
1,67,91,654
1,63,91,0
1,70,91,2
1,63,82,664
1,72,91,0
1,68,91,0
1,68,91,642
1,72,91,2
1,63,91,0
1,72,91,632
1,67,82,0
1,63,91,2
1,67,91,654
1,63,91,0
1,72,91,2
1,65,82,664
1,61,91,0
1,68,91,0
1,68,91,642
1,65,91,2
1,61,91,0
1,70,91,632
1,67,82,0
1,63,91,2
1,63,91,654
1,67,91,0
1,70,91,2
1,63,82,664
1,72,91,0
1,68,91,0
1,68,91,642
1,72,91,2
1,63,91,0
1,72,91,632
1,67,82,0
1,63,91,2
1,67,91,654
1,63,91,0
1,72,91,2
1,65,82,664
1,61,91,0
1,68,91,0
1,68,91,642
1,65,91,2
1,61,91,0
1,70,91,632
1,67,82,0
1,63,91,2
1,63,91,654
1,67,91,0
1,70,91,2
1,65,82,664
1,63,82,0
1,72,91,0
1,69,91,0
1,69,91,642
1,65,91,2
1,72,91,0
1,63,91,0
1,73,91,632
1,69,82,0
1,65,91,2
1,63,91,0
1,65,91,654
1,69,91,0
1,63,91,0
1,72,91,2
1,68,82,664
1,61,82,0
1,70,91,0
1,65,91,0
1,65,91,642
1,68,91,2
1,61,91,0
1,70,91,0
1,70,82,632
1,73,91,0
1,68,82,0
1,64,91,2
1,70,91,654
1,64,91,0
1,68,91,0
1,73,91,2
1,62,82,664
1,72,91,0
1,65,82,0
1,68,91,0
1,68,91,642
1,62,91,2
1,72,91,0
1,65,91,0
1,70,91,632
1,67,82,0
1,63,91,2
1,61,91,0
1,63,91,654
1,67,91,0
1,61,91,0
1,70,91,2
1,63,82,80
1,72,91,0
1,68,91,0
1,68,91,48
1,72,91,2
1,63,91,0
1,71,91,88
1,68,82,0
1,64,91,2
1,67,91,52
1,63,91,0
1,70,91,2
1,63,82,56
1,72,91,0
1,68,91,0
1,68,91,200
1,72,91,2
1,63,91,0
1,72,91,136
1,67,82,0
1,63,91,2
1,67,91,108
1,63,91,0
1,72,91,2
1,65,82,56
1,61,91,0
1,68,91,0
1,68,91,76
1,65,91,2
1,61,91,0
1,70,91,4
1,67,82,0
1,63,91,2
1,63,91,54
1,67,91,0
1,70,91,2
1,63,82,68
1,72,91,0
1,68,91,0
1,68,91,76
1,72,91,2
1,63,91,0
1,72,91,96
1,67,82,0
1,63,91,2
1,67,91,44
1,63,91,0
1,72,91,2
1,65,82,92
1,61,91,0
1,68,91,0
1,68,91,32
1,65,91,2
1,61,91,0
1,70,91,44
1,67,82,0
1,63,91,2
1,63,91,482
1,67,91,0
1,70,91,2
2,43,100,2652
2,43,82,248
2,38,100,10
2,43,100,354
2,43,82,236
2,38,100,12
2,43,100,72
2,40,100,94
2,40,82,248
2,35,100,10
2,40,100,354
2,40,82,236
2,35,100,12
2,35,100,72
2,36,100,94
2,36,82,236
2,31,100,12
2,36,100,72
2,38,100,94
2,38,82,236
2,33,100,12
2,38,100,72
2,43,100,94
2,43,82,236
2,38,100,12
2,43,100,72
2,39,100,94
2,41,100,364
2,43,100,364
2,43,82,248
2,38,100,10
2,43,100,354
2,43,82,236
2,38,100,12
2,43,100,72
2,35,100,94
2,35,82,248
2,30,100,10
2,35,100,354
2,42,100,54
2,47,100,148
2,42,100,72
2,40,100,94
2,40,82,236
2,35,100,12
2,40,100,354
2,40,82,236
2,35,100,12
2,40,100,72
2,38,100,94
2,45,100,364
2,44,100,72
2,43,100,94
2,46,100,54
2,47,100,148
2,50,100,72
2,36,100,94
2,36,82,248
2,31,100,10
2,36,100,72
2,38,100,94
2,38,82,236
2,33,100,12
2,38,100,72
2,35,100,94
2,35,82,248
2,30,100,10
2,35,100,72
2,40,100,94
2,42,100,54
2,43,100,148
2,47,100,72
2,33,100,94
2,40,100,364
2,33,100,72
2,36,100,94
2,43,100,364
2,36,100,72
2,35,100,94
