track,note,velocity,time
1,57,58,3456
1,61,34,0
1,64,61,0
1,76,64,576
1,81,68,6
1,85,66,192
1,57,58,0
1,61,45,0
1,65,57,0
1,77,57,502
1,81,71,96
1,85,64,88
1,88,76,54
1,85,70,88
1,81,73,70
1,57,53,0
1,62,54,0
1,68,56,0
1,57,67,2
1,66,58,0
1,59,58,0
1,62,55,0
1,65,51,0
1,77,73,576
1,74,76,96
1,71,71,62
1,77,77,80
1,74,71,62
1,71,63,6
1,57,53,0
1,61,39,0
1,64,60,0
1,56,51,0
1,62,48,0
1,64,58,0
1,57,53,0
1,61,39,0
1,64,65,0
1,76,70,192
1,81,75,102
1,88,73,124
1,56,43,0
1,59,53,0
1,62,46,0
1,61,35,0
1,64,59,0
1,57,50,0
1,66,45,0
1,62,46,0
1,57,59,0
1,74,79,1344
1,69,73,22
1,78,76,16
1,74,74,2
1,81,80,34
1,78,63,14
1,86,83,58
1,81,73,96
1,78,67,26
1,74,74,14
1,66,50,24
1,62,52,0
1,59,54,0
1,69,51,46
1,64,43,70
1,68,37,0
1,59,50,0
1,80,72,1320
1,76,69,20
1,83,74,192
1,80,61,178
1,76,60,20
1,61,41,0
1,49,38,0
1,64,60,0
1,76,70,1704
1,80,76,192
1,85,69,166
1,62,39,0
1,66,45,0
1,50,36,0
1,86,72,0
1,81,71,18
1,78,64,192
1,81,74,94
1,78,59,88
1,74,62,76
1,78,59,182
1,74,57,8
1,59,62,0
1,63,45,0
1,66,47,0
1,47,50,0
1,75,68,0
1,71,63,0
1,73,60,8
1,75,67,192
1,59,43,0
1,62,42,0
1,64,46,0
1,52,53,0
1,56,50,0
1,76,60,0
1,76,71,124
1,88,76,140
1,88,73,126
1,61,35,0
1,64,59,0
1,57,50,0
1,66,45,0
1,62,46,0
1,57,59,0
1,74,79,1344
1,69,73,22
1,78,76,16
1,74,74,2
1,81,80,34
1,78,63,14
1,86,83,58
1,81,73,96
1,78,67,26
1,74,74,14
1,66,50,24
1,62,52,0
1,59,54,0
1,69,51,46
1,64,43,70
1,68,37,0
1,59,50,0
1,80,72,1320
1,76,69,20
1,83,74,192
1,80,61,178
1,76,60,20
1,61,41,0
1,49,38,0
1,64,60,0
1,76,70,1704
1,80,76,192
1,85,69,166
1,62,39,0
1,66,45,0
1,50,36,0
1,86,72,0
1,81,71,18
1,78,64,192
1,81,74,94
1,78,59,88
1,74,62,76
1,78,59,182
1,74,57,8
1,59,62,0
1,63,45,0
1,66,47,0
1,47,50,0
1,75,68,0
1,71,63,0
1,73,60,8
1,75,67,192
1,59,43,0
1,62,42,0
1,64,46,0
1,52,53,0
1,56,50,0
1,76,60,0
1,76,71,124
1,88,76,140
1,88,73,126
1,61,56,0
1,64,61,0
1,69,59,0
1,81,67,0
1,68,48,0
1,61,63,0
1,64,71,0
1,80,63,0
1,57,59,0
1,66,55,0
1,61,46,0
1,78,59,0
1,64,40,0
1,61,38,0
1,57,51,0
1,76,72,192
1,73,66,26
1,81,73,22
1,76,64,8
1,85,76,24
1,81,74,12
1,88,77,26
1,85,60,96
1,81,72,82
1,76,65,22
1,62,54,0
1,59,63,0
1,66,59,0
1,78,67,0
1,74,72,768
1,78,66,178
1,66,53,0
1,61,41,0
1,58,47,0
1,78,74,0
1,73,68,40
1,78,62,192
1,66,67,0
1,57,61,0
1,62,60,0
1,74,66,0
1,69,74,566
1,81,72,146
1,78,64,80
1,74,74,82
1,69,75,24
1,56,28,10
1,59,44,0
1,64,58,0
1,62,58,0
1,76,65,0
1,74,73,572
1,76,51,16
1,74,68,96
1,71,63,16
1,68,63,46
1,64,75,20
1,61,42,0
1,57,56,0
1,64,57,0
1,93,68,0
1,64,72,0
1,56,53,0
1,61,41,0
1,92,66,0
1,88,71,864
1,85,64,86
1,80,68,4
1,66,51,0
1,54,44,0
1,61,37,0
1,57,54,0
1,78,63,0
1,64,55,0
1,57,28,0
1,61,47,0
1,52,46,0
1,76,62,142
1,81,72,96
1,85,63,20
1,81,69,6
1,88,74,16
1,85,61,96
1,81,70,18
1,85,68,14
1,88,73,96
1,85,64,90
1,59,60,0
1,62,55,0
1,66,50,0
1,83,62,0
1,81,62,0
1,64,56,0
1,62,58,0
1,59,44,0
1,56,52,0
1,80,60,0
1,76,47,12
1,83,62,20
1,80,59,384
1,76,58,36
1,64,69,0
1,57,62,0
1,61,47,0
1,81,65,0
1,62,39,0
1,59,43,0
1,64,50,0
1,56,53,0
1,88,73,0
1,86,70,96
1,86,77,50
1,83,76,96
1,83,76,42
1,80,74,14
1,80,75,34
1,76,66,6
1,76,70,46
1,74,58,14
1,74,70,66
1,71,72,10
1,61,56,0
1,64,61,0
1,69,59,0
1,81,67,0
1,68,48,0
1,61,63,0
1,64,71,0
1,80,63,0
1,57,59,0
1,66,55,0
1,61,46,0
1,78,59,0
1,64,40,0
1,61,38,0
1,57,51,0
1,76,72,192
1,73,66,26
1,81,73,22
1,76,64,8
1,85,76,24
1,81,74,12
1,88,77,26
1,85,60,96
1,81,72,82
1,76,65,22
1,62,54,0
1,59,63,0
1,66,59,0
1,78,67,0
1,74,72,768
1,78,66,178
1,66,53,0
1,61,41,0
1,58,47,0
1,78,74,0
1,73,68,40
1,78,62,192
1,66,67,0
1,57,61,0
1,62,60,0
1,74,66,0
1,69,74,566
1,81,72,146
1,78,64,80
1,74,74,82
1,69,75,24
1,56,28,10
1,59,44,0
1,64,58,0
1,62,58,0
1,76,65,0
1,74,73,572
1,76,51,16
1,74,68,96
1,71,63,16
1,68,63,46
1,64,75,20
1,64,71,0
1,61,44,0
1,57,68,0
1,76,69,576
1,81,73,6
1,85,71,192
1,65,67,0
1,57,68,0
1,61,55,0
1,77,62,502
1,81,76,96
1,85,69,88
1,88,81,54
1,85,75,88
1,81,78,70
1,62,64,0
1,68,66,0
1,57,63,0
1,66,68,2
1,57,77,0
1,65,61,0
1,59,68,0
1,62,65,0
1,77,78,576
1,74,81,96
1,71,76,62
1,77,82,80
1,74,76,62
1,71,68,6
1,57,63,0
1,64,70,0
1,61,49,0
1,62,58,0
1,56,61,0
1,64,68,0
1,61,49,0
1,64,75,0
1,57,63,0
1,76,75,192
1,81,80,102
1,88,78,124
1,62,56,0
1,59,63,0
1,56,53,0
1,76,83,0
1,78,85,26
1,80,79,96
1,81,85,16
1,83,86,38
1,85,81,34
1,86,85,38
1,85,83,22
1,86,83,20
1,88,85,38
1,90,82,44
1,92,85,36
1,61,56,0
1,64,61,0
1,69,59,0
1,81,67,0
1,68,48,0
1,61,63,0
1,64,71,0
1,80,63,0
1,57,59,0
1,66,55,0
1,61,46,0
1,78,59,0
1,64,40,0
1,61,38,0
1,57,51,0
1,76,72,192
1,73,66,26
1,81,73,22
1,76,64,8
1,85,76,24
1,81,74,12
1,88,77,26
1,85,60,96
1,81,72,82
1,76,65,22
1,62,54,0
1,59,63,0
1,66,59,0
1,78,67,0
1,74,72,768
1,78,66,178
1,66,53,0
1,61,41,0
1,58,47,0
1,78,74,0
1,73,68,40
1,78,62,192
1,66,67,0
1,57,61,0
1,62,60,0
1,74,66,0
1,69,74,566
1,81,72,146
1,78,64,80
1,74,74,82
1,69,75,24
1,56,28,10
1,59,44,0
1,64,58,0
1,62,58,0
1,76,65,0
1,74,73,572
1,76,51,16
1,74,68,96
1,71,63,16
1,68,63,46
1,64,75,20
1,61,42,0
1,57,56,0
1,64,57,0
1,93,68,0
1,64,72,0
1,56,53,0
1,61,41,0
1,92,66,0
1,88,71,864
1,85,64,86
1,80,68,4
1,66,51,0
1,54,44,0
1,61,37,0
1,57,54,0
1,78,63,0
1,64,55,0
1,57,28,0
1,61,47,0
1,52,46,0
1,76,62,142
1,81,72,96
1,85,63,20
1,81,69,6
1,88,74,16
1,85,61,96
1,81,70,18
1,85,68,14
1,88,73,96
1,85,64,90
1,59,60,0
1,62,55,0
1,66,50,0
1,83,62,0
1,81,62,0
1,64,56,0
1,62,58,0
1,59,44,0
1,56,52,0
1,80,60,0
1,76,47,12
1,83,62,20
1,80,59,384
1,76,58,36
1,64,69,0
1,57,62,0
1,61,47,0
1,81,65,0
1,57,53,0
1,60,43,0
1,63,39,0
1,65,50,0
1,74,83,0
1,75,81,0
1,77,82,96
1,79,82,0
1,81,80,96
1,82,73,64
1,84,71,80
1,86,77,0
1,87,75,96
1,89,77,0
1,91,78,96
1,93,81,0
1,62,56,0
1,65,61,0
1,70,59,0
1,82,67,0
1,62,63,0
1,65,71,0
1,69,48,0
1,81,63,0
1,58,59,0
1,62,46,0
1,67,55,0
1,79,59,0
1,58,51,0
1,62,38,0
1,65,40,0
1,77,72,192
1,74,66,26
1,82,73,22
1,77,64,8
1,86,76,24
1,82,74,12
1,89,77,26
1,86,60,96
1,82,72,82
1,77,65,22
1,60,63,0
1,63,54,0
1,67,59,0
1,79,67,0
1,75,72,768
1,79,66,178
1,59,47,0
1,62,41,0
1,67,53,0
1,79,74,0
1,74,68,40
1,79,62,192
1,58,61,0
1,63,60,0
1,67,67,0
1,75,66,0
1,70,74,566
1,82,72,146
1,79,64,80
1,75,74,82
1,70,75,24
1,57,28,10
1,60,44,0
1,63,58,0
1,65,58,0
1,77,65,0
1,75,73,572
1,77,51,16
1,75,68,96
1,72,63,16
1,69,63,46
1,65,75,20
1,58,56,0
1,62,42,0
1,65,57,0
1,94,68,0
1,57,53,0
1,62,41,0
1,65,72,0
1,93,66,0
1,89,71,864
1,86,64,86
1,81,68,4
1,55,44,0
1,58,54,0
1,62,37,0
1,67,51,0
1,79,63,0
1,53,46,0
1,58,28,0
1,62,47,0
1,65,55,0
1,77,62,142
1,82,72,96
1,86,63,20
1,82,69,6
1,89,74,16
1,86,61,96
1,82,70,18
1,86,68,14
1,89,73,96
1,86,64,90
1,60,60,0
1,63,55,0
1,67,50,0
1,84,62,0
1,82,62,0
1,57,52,0
1,60,44,0
1,63,58,0
1,65,56,0
1,81,60,0
1,77,47,12
1,84,62,20
1,81,59,384
1,77,58,36
1,58,62,0
1,62,47,0
1,65,69,0
1,82,65,0
1,57,53,0
1,60,43,0
1,63,39,0
1,65,50,0
1,89,73,0
1,87,70,96
1,87,77,50
1,84,76,96
1,84,76,42
1,81,74,14
1,81,75,34
1,77,66,6
1,77,70,46
1,75,58,14
1,75,70,66
1,72,72,10
1,62,56,0
1,65,61,0
1,70,59,0
1,82,67,0
1,62,63,0
1,65,71,0
1,69,48,0
1,81,63,0
1,58,59,0
1,62,46,0
1,67,55,0
1,79,59,0
1,58,51,0
1,62,38,0
1,65,40,0
1,77,72,192
1,74,66,26
1,82,73,22
1,77,64,8
1,86,76,24
1,82,74,12
1,89,77,26
1,86,60,96
1,82,72,82
1,77,65,22
1,60,63,0
1,63,54,0
1,67,59,0
1,79,67,0
1,75,72,768
1,79,66,178
1,59,47,0
1,62,41,0
1,67,53,0
1,79,74,0
1,74,68,40
1,79,62,192
1,58,61,0
1,63,60,0
1,67,67,0
1,75,66,0
1,70,74,566
1,82,72,146
1,79,64,80
1,75,74,82
1,70,75,24
1,57,28,10
1,60,44,0
1,63,58,0
1,65,58,0
1,77,65,0
1,75,73,572
1,77,51,16
1,75,68,96
1,72,63,16
1,69,63,46
1,65,75,20
1,58,68,0
1,62,44,0
1,65,71,0
1,77,69,576
1,82,73,6
1,86,71,192
1,58,68,0
1,62,55,0
1,66,67,0
1,78,62,502
1,82,76,96
1,86,69,88
1,89,81,54
1,86,75,88
1,82,78,70
1,58,63,0
1,63,64,0
1,69,66,0
1,58,77,2
1,67,68,0
1,60,68,0
1,63,65,0
1,66,61,0
1,58,63,0
1,62,49,0
1,65,70,0
1,57,61,0
1,63,58,0
1,65,68,0
1,58,63,0
1,62,49,0
1,65,75,0
1,77,75,192
1,82,80,102
1,89,78,124
1,58,47,0
1,66,52,0
1,63,40,0
1,58,27,26
1,62,53,2
1,65,43,8
2,57,68,3456
2,61,49,0
2,64,63,0
2,65,63,14
2,59,63,14
2,62,60,0
2,68,59,0
2,66,65,526
2,65,57,6
2,64,61,1152
2,69,64,0
2,73,58,0
2,66,63,8
2,68,64,0
2,74,71,0
2,64,54,384
2,73,62,0
2,62,53,368
2,71,57,0
2,61,57,6
2,64,60,0
2,69,60,0
2,56,51,1138
2,62,56,0
2,61,60,0
2,62,50,2304
2,66,57,0
2,66,56,40
2,59,74,0
2,69,74,1728
2,64,57,66
2,59,66,0
2,68,63,0
2,61,65,6
2,62,63,2286
2,66,64,0
2,69,63,0
2,59,66,2254
2,63,54,0
2,64,57,2286
2,62,42,0
2,68,56,0
2,61,60,0
2,62,50,2304
2,66,57,0
2,66,56,40
2,59,74,0
2,69,74,1728
2,64,57,66
2,59,66,0
2,68,63,0
2,61,65,6
2,62,63,2286
2,66,64,0
2,69,63,0
2,59,66,2254
2,63,54,0
2,61,54,0
2,57,63,0
2,64,66,0
2,56,61,1152
2,57,58,2
2,54,63,0
2,52,58,1144
2,54,68,1124
2,62,62,0
2,59,72,0
2,61,69,30
2,58,60,0
2,57,62,1152
2,62,54,0
2,59,57,30
2,64,61,0
2,56,60,0
2,57,60,0
2,61,58,0
2,56,66,1118
2,54,60,1148
2,57,72,0
2,52,54,1122
2,59,60,4
2,54,62,0
2,62,56,0
2,56,58,2
2,64,54,0
2,57,48,0
2,61,57,0
2,56,39,20
2,52,63,0
2,62,53,0
2,61,54,0
2,57,63,0
2,64,66,0
2,56,61,1152
2,57,58,2
2,54,63,0
2,52,58,1144
2,54,68,1124
2,62,62,0
2,59,72,0
2,61,69,30
2,58,60,0
2,57,62,1152
2,62,54,0
2,59,57,30
2,64,61,0
2,56,60,0
2,57,83,20
2,61,64,0
2,64,78,0
2,65,78,0
2,59,78,14
2,62,75,0
2,68,74,0
2,66,80,526
2,65,72,6
2,64,76,1152
2,69,79,0
2,73,73,0
2,68,79,8
2,74,86,0
2,66,78,0
2,64,69,384
2,73,77,0
2,62,68,368
2,71,72,0
2,64,75,6
2,61,72,0
2,69,75,0
2,62,71,1138
2,56,66,0
2,61,54,0
2,57,63,0
2,64,66,0
2,56,61,1152
2,57,58,2
2,54,63,0
2,52,58,1144
2,54,68,1124
2,62,62,0
2,59,72,0
2,61,69,30
2,58,60,0
2,57,62,1152
2,62,54,0
2,59,57,30
2,64,61,0
2,56,60,0
2,57,60,0
2,61,58,0
2,56,66,1118
2,54,60,1148
2,57,72,0
2,52,54,1122
2,59,60,4
2,54,62,0
2,62,56,0
2,56,58,2
2,64,54,0
2,57,48,0
2,61,57,0
2,53,63,0
2,57,39,0
2,63,53,0
2,58,63,0
2,62,54,0
2,65,66,0
2,57,61,1152
2,55,63,2
2,58,58,0
2,53,58,1144
2,55,68,1124
2,60,72,0
2,63,62,0
2,59,60,30
2,62,69,0
2,58,62,1152
2,63,54,0
2,57,60,30
2,60,57,0
2,65,61,0
2,58,60,0
2,62,58,0
2,57,66,1118
2,55,60,1148
2,58,72,0
2,53,54,1122
2,55,62,4
2,60,60,0
2,63,56,0
2,57,58,2
2,65,54,0
2,58,48,0
2,62,57,0
2,53,63,20
2,57,39,0
2,63,53,0
2,58,63,0
2,62,54,0
2,65,66,0
2,57,61,1152
2,55,63,2
2,58,58,0
2,53,58,1144
2,55,68,1124
2,60,72,0
2,63,62,0
2,59,60,30
2,62,69,0
2,58,62,1152
2,63,54,0
2,57,60,30
2,60,57,0
2,65,61,0
2,58,75,20
2,62,57,0
2,65,70,0
2,66,70,0
2,60,70,14
2,63,68,0
2,69,66,0
2,67,72,526
2,66,65,6
2,65,69,1152
2,70,72,0
2,74,66,0
2,67,71,8
2,69,72,0
2,75,78,0
2,65,61,384
2,74,69,0
2,63,60,368
2,72,65,0
2,70,71,6
2,65,66,0
2,62,64,0
2,63,75,90
2,66,79,6
2,65,57,20
2,62,55,10
3,45,67,3456
3,57,73,0
3,61,62,0
3,64,77,0
3,57,47,48
3,61,50,130
3,57,69,56
3,61,62,0
3,64,78,0
3,57,65,98
3,61,56,176
3,57,73,64
3,61,54,0
3,65,74,0
3,57,56,102
3,61,51,156
3,57,78,80
3,61,72,0
