track,note,velocity,time
1,38,89,1052
1,45,89,50
1,33,89,54
1,38,89,50
1,45,89,46
1,38,89,50
1,30,89,48
1,37,89,52
1,25,89,50
1,30,89,54
1,37,89,46
1,30,89,50
1,33,89,50
1,40,89,50
1,28,89,54
1,33,89,50
1,40,89,46
1,33,89,54
1,35,89,46
1,42,89,52
1,30,89,50
1,35,89,54
1,42,89,46
1,33,89,54
1,30,89,46
1,28,89,48
1,35,89,52
1,23,89,54
1,28,89,46
1,35,89,50
1,30,89,50
1,28,89,50
1,31,89,50
1,38,89,50
1,26,89,54
1,31,89,46
1,38,89,50
1,38,89,54
1,31,89,50
1,33,89,46
1,40,89,52
1,28,89,50
1,33,89,50
1,40,89,54
1,28,89,46
1,33,89,50
1,40,89,50
1,28,89,54
1,33,89,50
1,45,89,46
1,38,89,50
1,33,89,52
1,30,89,50
1,25,89,50
1,33,89,50
1,28,89,56
1,35,89,50
1,30,89,52
1,35,89,46
1,42,89,50
1,42,89,50
1,30,89,54
1,35,89,46
1,42,89,54
1,42,89,50
1,30,89,50
1,28,89,46
1,23,89,52
1,28,89,54
1,35,89,46
1,28,89,50
1,35,89,50
1,28,89,50
1,28,89,56
1,27,89,46
1,27,89,52
1,26,89,50
1,26,89,56
1,26,89,46
1,26,89,56
1,31,89,46
1,26,89,54
1,31,89,50
1,26,89,50
1,31,89,46
1,33,89,50
1,40,89,50
1,40,89,50
1,28,89,54
1,33,89,46
1,40,89,54
1,40,89,50
1,33,89,50
1,38,89,46
1,33,89,56
1,30,89,50
1,25,89,48
1,33,89,50
1,28,89,54
1,35,89,50
1,30,89,52
1,35,89,46
1,42,89,50
1,42,89,50
1,30,89,54
1,35,89,50
1,42,89,50
1,42,89,50
1,35,89,50
1,28,89,46
1,35,89,54
1,28,89,50
1,35,89,50
1,35,89,46
1,23,89,50
1,28,89,50
1,28,89,56
1,27,89,50
1,27,89,48
1,26,89,52
1,26,89,54
1,26,89,46
1,26,89,54
1,31,89,46
1,38,89,56
1,38,89,46
1,26,89,54
1,31,89,46
1,38,89,54
1,38,89,46
1,31,89,50
1,33,89,50
1,40,89,54
1,40,89,50
1,28,89,50
1,33,89,46
1,40,89,54
1,45,89,50
1,38,89,46
1,33,89,56
1,38,89,50
1,33,89,50
1,30,89,46
1,25,89,54
1,30,89,50
1,25,89,46
1,33,89,50
1,28,89,50
1,33,89,54
1,40,89,46
1,40,89,50
1,33,89,54
1,35,89,46
1,30,89,56
1,35,89,50
1,42,89,50
1,35,89,46
1,30,89,54
1,28,89,46
1,35,89,52
1,28,89,54
1,35,89,46
1,28,89,54
1,31,89,46
1,38,89,52
1,38,89,50
1,31,89,54
1,38,89,50
1,38,89,50
1,31,89,50
1,33,89,46
1,40,89,50
1,40,89,50
1,28,89,50
1,33,89,50
1,40,89,50
1,40,89,50
1,28,89,54
1,33,89,46
1,40,89,50
1,40,89,50
1,28,89,54
1,33,89,50
1,40,89,50
1,45,89,46
1,40,89,54
1,38,89,46
1,33,89,56
1,30,89,50
1,25,89,48
1,33,89,50
1,28,89,50
1,35,89,54
1,30,89,50
1,35,89,46
1,42,89,50
1,42,89,50
1,30,89,50
1,35,89,50
1,42,89,50
1,42,89,54
1,30,89,46
1,28,89,52
1,23,89,54
1,28,89,50
1,35,89,46
1,28,89,54
1,35,89,46
1,28,89,50
1,28,89,56
1,27,89,50
1,27,89,52
1,26,89,46
1,26,89,54
1,26,89,50
1,26,89,52
1,31,89,46
1,26,89,56
1,31,89,50
1,26,89,46
1,31,89,54
1,33,89,46
1,40,89,54
1,40,89,46
1,28,89,54
1,33,89,46
1,40,89,50
1,40,89,54
1,33,89,46
1,38,89,50
1,33,89,54
1,30,89,50
1,25,89,52
1,33,89,46
1,28,89,54
1,35,89,50
1,30,89,52
1,35,89,46
1,42,89,54
1,42,89,46
1,30,89,54
1,35,89,50
1,42,89,50
1,42,89,50
1,35,89,46
1,28,89,50
1,35,89,56
1,28,89,46
1,35,89,50
1,35,89,50
1,23,89,50
1,28,89,50
1,28,89,56
1,27,89,46
1,27,89,52
1,26,89,50
1,26,89,54
1,26,89,50
1,26,89,52
1,31,89,46
1,38,89,50
1,38,89,54
1,26,89,50
1,31,89,50
1,38,89,50
1,38,89,46
1,31,89,54
1,33,89,46
1,40,89,52
1,40,89,54
1,28,89,46
1,33,89,54
1,40,89,46
1,45,89,54
1,38,89,46
1,33,89,56
1,38,89,50
1,33,89,50
1,30,89,48
1,25,89,54
1,30,89,50
1,25,89,46
1,33,89,50
1,28,89,52
1,33,89,50
1,40,89,50
1,40,89,50
1,33,89,50
1,35,89,50
1,30,89,56
1,35,89,46
1,42,89,50
1,35,89,54
1,30,89,50
1,28,89,46
1,35,89,52
1,28,89,50
1,35,89,52
1,28,89,54
1,31,89,46
1,38,89,54
1,38,89,50
1,31,89,50
1,38,89,46
1,38,89,54
1,31,89,48
1,33,89,50
1,40,89,52
1,40,89,50
1,28,89,50
1,33,89,54
1,40,89,46
1,40,89,50
1,28,89,54
1,33,89,46
1,40,89,50
1,40,89,50
1,28,89,54
1,33,89,46
1,40,89,50
1,45,89,54
1,40,89,50
1,38,89,46
1,33,89,52
1,38,89,54
1,45,89,46
1,45,89,54
1,38,89,50
1,30,89,46
1,25,89,52
1,30,89,54
1,37,89,50
1,37,89,46
1,30,89,50
1,33,89,52
1,28,89,54
1,33,89,50
1,40,89,46
1,40,89,50
1,33,89,50
1,35,89,48
1,30,89,52
1,35,89,54
1,42,89,50
1,42,89,50
1,42,89,46
1,35,89,50
1,28,89,48
1,35,89,56
1,28,89,50
1,35,89,50
1,35,89,50
1,28,89,46
1,31,89,50
1,38,89,54
1,38,89,46
1,31,89,50
1,31,89,50
1,38,89,50
1,38,89,50
1,31,89,50
1,33,89,50
1,40,89,52
1,40,89,54
1,28,89,46
1,33,89,50
1,40,89,50
1,40,89,50
1,28,89,54
1,33,89,46
1,40,89,50
1,40,89,54
1,28,89,46
1,33,89,50
1,40,89,50
1,45,89,50
1,45,89,50
1,40,89,54
1,38,89,46
1,33,89,56
1,30,89,50
1,25,89,48
1,33,89,50
1,28,89,50
1,35,89,54
1,30,89,52
1,35,89,46
1,42,89,54
1,42,89,46
1,30,89,54
1,35,89,46
1,42,89,54
1,42,89,46
1,30,89,50
1,28,89,50
1,23,89,56
1,28,89,50
1,35,89,50
1,28,89,46
1,35,89,54
1,28,89,46
1,28,89,52
1,27,89,54
1,27,89,52
1,26,89,46
1,26,89,50
1,26,89,54
1,26,89,52
1,31,89,46
1,26,89,54
1,31,89,50
1,26,89,50
1,31,89,46
1,33,89,50
1,40,89,54
1,40,89,46
1,28,89,54
1,33,89,46
1,40,89,50
1,40,89,50
1,33,89,54
1,38,89,46
1,33,89,54
1,30,89,50
1,25,89,52
1,33,89,46
1,28,89,50
1,35,89,54
1,30,89,52
1,35,89,46
1,42,89,50
1,42,89,50
1,30,89,54
1,35,89,50
1,42,89,46
1,42,89,50
1,35,89,54
1,28,89,46
1,35,89,54
1,28,89,50
1,35,89,46
1,35,89,50
1,23,89,50
1,28,89,50
1,28,89,56
1,27,89,50
1,27,89,52
1,26,89,46
1,26,89,54
1,26,89,46
1,26,89,54
1,31,89,46
1,38,89,54
1,38,89,50
1,26,89,50
1,31,89,50
1,38,89,46
1,38,89,50
1,31,89,54
1,33,89,46
1,40,89,50
1,40,89,54
1,28,89,46
1,33,89,50
1,40,89,54
1,45,89,50
1,38,89,46
1,33,89,56
1,38,89,50
1,33,89,50
1,30,89,46
1,25,89,52
1,30,89,54
1,25,89,46
1,33,89,50
1,28,89,56
1,33,89,46
1,40,89,50
1,40,89,50
1,33,89,54
1,35,89,46
1,30,89,56
1,35,89,50
1,42,89,46
1,35,89,50
1,30,89,50
1,28,89,48
1,35,89,56
1,28,89,46
1,35,89,50
1,28,89,54
1,31,89,46
1,38,89,50
1,38,89,50
1,31,89,54
1,38,89,46
1,38,89,54
1,31,89,50
1,33,89,46
1,40,89,50
1,40,89,54
1,28,89,46
1,33,89,54
1,40,89,46
1,40,89,50
1,28,89,54
1,33,89,46
1,40,89,50
1,40,89,54
1,28,89,46
1,33,89,54
1,40,89,46
1,45,89,50
1,40,89,54
1,38,89,46
1,33,89,54
1,38,89,50
1,33,89,50
1,30,89,46
1,25,89,54
1,30,89,50
1,25,89,46
1,33,89,50
1,28,89,54
1,33,89,46
1,40,89,50
1,40,89,50
1,33,89,50
1,35,89,50
1,30,89,56
1,35,89,50
1,42,89,46
1,35,89,54
1,30,89,46
1,28,89,48
1,35,89,52
1,28,89,50
1,35,89,50
1,28,89,54
1,31,89,46
1,38,89,56
1,38,89,46
1,31,89,50
1,38,89,50
1,38,89,50
1,31,89,54
1,33,89,46
1,40,89,56
1,40,89,46
1,28,89,54
1,33,89,46
1,40,89,54
1,40,89,50
1,28,89,46
1,33,89,50
1,40,89,54
1,40,89,50
1,28,89,46
1,33,89,54
1,40,89,50
1,45,89,46
1,40,89,50
1,38,89,50
1,33,89,54
1,38,89,50
1,33,89,50
1,30,89,46
1,25,89,54
1,30,89,50
1,25,89,50
1,33,89,46
1,28,89,52
1,33,89,50
1,40,89,50
1,40,89,54
1,33,89,46
1,35,89,48
1,30,89,56
1,35,89,46
1,42,89,54
1,35,89,46
1,30,89,50
1,28,89,48
1,35,89,56
1,28,89,50
1,35,89,50
1,28,89,46
1,31,89,50
1,38,89,56
1,38,89,50
1,31,89,46
1,38,89,54
1,38,89,46
1,31,89,54
1,33,89,46
1,40,89,50
1,40,89,50
1,28,89,54
1,33,89,46
1,40,89,50
1,40,89,50
1,28,89,54
1,33,89,46
1,40,89,50
1,40,89,50
1,28,89,50
1,33,89,50
1,40,89,50
1,45,89,50
1,40,89,50
1,38,89,50
2,73,80,10662
2,73,74,46
2,73,65,46
2,74,73,46
2,76,75,10
2,76,68,40
2,76,67,58
2,78,78,10
2,79,74,2
2,79,72,40
2,79,67,54
2,81,75,54
2,83,63,24
2,78,66,24998
2,69,66,4
2,74,66,0
2,69,64,40
2,74,64,4
2,78,64,0
2,74,64,44
2,69,64,2
2,78,64,0
2,69,64,46
2,74,64,0
2,78,64,0
2,69,70,114
2,79,70,0
2,74,70,2
2,78,68,116
2,69,68,2
2,74,68,2
2,73,65,222
2,69,65,4
2,78,65,0
2,78,63,40
2,69,63,2
2,73,63,2
2,78,63,44
2,73,63,2
2,69,63,2
2,78,65,40
2,69,65,4
2,73,65,0
2,79,70,114
2,69,70,2
2,73,70,0
2,69,66,108
2,73,66,2
2,78,66,0
2,69,66,236
2,72,66,0
2,78,66,0
2,69,61,42
2,72,61,0
2,78,61,0
2,69,62,46
2,72,62,2
2,78,62,0
2,69,62,40
2,78,62,0
2,72,62,4
2,79,63,116
2,69,63,2
2,72,63,0
2,78,66,98
2,69,66,2
2,72,66,2
2,75,66,182
2,71,66,2
2,78,66,2
2,71,62,48
2,75,62,4
2,78,62,0
2,75,63,52
2,78,63,2
2,71,63,2
2,71,58,38
2,78,58,0
2,75,58,2
2,79,64,122
2,71,64,4
2,75,64,0
2,71,65,106
2,75,65,0
2,78,65,0
2,76,61,272
2,79,61,2
2,83,61,0
2,76,61,42
2,79,61,0
2,83,61,2
2,79,60,34
2,76,60,2
2,83,60,0
2,79,58,40
2,83,58,0
2,76,58,2
2,76,60,106
2,79,60,4
2,84,60,0
2,79,63,110
2,76,63,4
2,83,63,0
2,74,61,200
2,83,61,0
2,79,61,2
2,83,61,40
2,74,61,2
2,79,61,2
2,79,60,34
2,83,60,0
2,74,60,2
2,74,58,38
2,83,58,0
2,79,58,2
2,74,60,110
2,84,60,0
2,79,60,2
2,74,63,110
2,83,63,0
2,79,63,4
2,73,74,12
2,73,74,44
2,73,65,44
2,74,73,44
2,76,75,10
2,76,68,40
2,76,67,64
2,78,78,10
2,79,74,2
2,79,72,36
2,79,67,56
2,81,75,52
2,83,63,20
2,78,66,25002
2,69,66,2
2,74,66,2
2,69,64,44
2,74,64,0
2,78,64,0
2,74,64,44
2,78,64,0
2,69,64,4
2,69,64,42
2,74,64,0
2,78,64,2
2,69,70,114
2,74,70,2
2,79,70,0
2,74,68,116
2,78,68,0
2,69,68,2
2,69,65,224
2,78,65,0
2,73,65,4
2,73,63,40
2,69,63,2
2,78,63,2
2,69,63,46
2,73,63,2
2,78,63,0
2,78,65,40
2,73,65,2
2,69,65,2
2,69,70,114
2,73,70,0
2,79,70,0
2,73,66,108
2,69,66,4
2,78,66,0
2,69,66,234
2,72,66,2
2,78,66,2
2,72,61,38
2,69,61,4
2,78,61,0
2,69,62,44
2,72,62,0
2,78,62,0
2,78,62,42
2,69,62,2
2,72,62,2
2,72,63,114
2,69,63,4
2,79,63,0
2,72,66,98
2,69,66,2
2,78,66,2
2,71,66,186
2,75,66,0
2,78,66,0
2,71,62,48
2,78,62,2
2,75,62,2
2,75,63,52
2,71,63,2
2,78,63,2
2,78,58,38
2,71,58,2
2,75,58,2
2,71,64,120
2,75,64,2
2,79,64,0
2,71,65,104
2,78,65,0
2,75,65,4
2,79,61,274
2,76,61,2
2,83,61,0
2,83,61,40
2,76,61,2
2,79,61,0
2,83,60,36
2,76,60,2
2,79,60,0
2,76,58,38
2,83,58,0
2,79,58,2
2,79,60,106
2,84,60,0
2,76,60,4
2,79,63,112
2,83,63,0
2,76,63,2
2,83,61,200
2,74,61,2
2,79,61,0
2,83,61,40
2,74,61,4
2,79,61,0
2,74,60,34
2,79,60,0
2,83,60,2
2,74,58,38
2,79,58,2
2,83,58,2
2,79,60,106
2,74,60,2
2,84,60,0
2,79,63,112
2,83,63,0
2,74,63,2
2,73,74,14
2,73,74,46
2,73,65,42
2,74,73,46
2,76,75,12
2,76,68,40
2,76,67,58
2,78,78,8
2,79,74,4
2,79,72,38
2,79,67,58
2,81,75,50
2,83,63,24
2,73,73,9446
2,73,74,50
2,73,65,42
2,74,73,44
2,76,75,10
2,76,68,40
2,76,67,60
2,78,78,12
2,79,74,0
2,79,72,42
2,79,67,54
2,81,75,50
2,83,63,26
2,74,66,24998
2,69,66,4
2,78,66,0
2,78,64,40
2,69,64,2
2,74,64,2
2,74,64,44
2,69,64,2
2,78,64,2
2,74,64,40
2,69,64,4
2,78,64,0
2,69,70,114
2,74,70,4
2,79,70,0
2,74,68,114
2,78,68,0
2,69,68,4
2,69,65,226
2,73,65,0
2,78,65,0
2,73,63,40
2,69,63,4
2,78,63,0
2,78,63,44
2,69,63,2
2,73,63,2
2,69,65,40
2,73,65,2
2,78,65,0
2,69,70,116
2,79,70,0
2,73,70,2
2,69,66,106
2,73,66,4
2,78,66,0
2,69,66,234
2,72,66,4
2,78,66,0
2,69,61,40
2,72,61,0
2,78,61,2
2,72,62,44
2,78,62,0
2,69,62,4
2,78,62,38
2,69,62,2
2,72,62,2
2,69,63,114
2,79,63,2
2,72,63,2
2,78,66,98
2,72,66,2
2,69,66,2
2,71,66,182
2,75,66,0
2,78,66,4
2,78,62,48
2,71,62,4
2,75,62,0
2,71,63,54
2,75,63,2
2,78,63,0
2,75,58,38
2,71,58,4
2,78,58,0
2,71,64,122
2,79,64,0
2,75,64,2
2,71,65,102
2,78,65,0
2,75,65,2
2,76,61,274
2,79,61,0
2,83,61,2
2,79,61,40
2,83,61,2
2,76,61,2
2,83,60,34
2,76,60,2
2,79,60,0
2,79,58,38
2,76,58,2
2,83,58,0
2,76,60,110
2,79,60,2
2,84,60,0
2,76,63,110
2,79,63,0
2,83,63,2
2,74,61,206
2,79,61,0
2,83,61,0
2,83,61,38
2,74,61,4
2,79,61,0
2,79,60,36
2,83,60,0
2,74,60,2
2,79,58,36
2,83,58,0
2,74,58,2
2,74,60,110
2,84,60,0
2,79,60,2
2,79,63,110
2,83,63,0
2,74,63,4
2,73,85,8
2,73,74,50
2,73,65,42
2,74,73,44
2,76,75,14
2,76,68,40
2,76,67,58
2,78,78,8
2,79,74,2
2,79,72,40
2,79,67,58
2,81,75,48
2,83,63,24
