track,note,velocity,time
1,57,121,52358
1,59,121,2
1,60,113,2
1,60,111,2
1,59,111,2
1,67,1,2
1,66,1,2
1,67,121,2
1,66,122,2
1,59,119,2
1,59,116,2498
1,61,110,2
1,62,113,2
1,62,112,2
1,74,102,0
1,57,121,2
1,76,110,0
1,59,2,2114
1,60,3,2
1,59,6,2
1,72,122,2
1,71,2,2
1,64,17,1538
1,63,2,2
1,62,116,2
1,59,4,2
1,55,127,2
1,67,7,0
1,57,6,2
1,69,127,0
1,57,121,26306
1,59,121,2
1,60,113,2
1,60,111,2
1,59,111,2
1,67,1,2
1,66,1,2
1,67,121,2
1,66,122,2
1,59,119,2
1,59,116,2498
1,61,110,2
1,62,113,2
1,62,112,2
1,74,102,0
1,57,121,2
1,76,110,0
1,59,2,2114
1,60,3,2
1,59,6,2
1,72,122,2
1,71,2,2
1,64,17,1538
1,63,2,2
1,62,116,2
1,59,4,2
1,55,127,2
1,67,7,0
1,57,6,2
1,69,127,0
2,50,119,1514
2,57,119,50
2,45,119,54
2,50,119,50
2,57,119,46
2,50,119,50
2,42,119,48
2,49,119,52
2,37,119,50
2,42,119,54
2,49,119,46
2,42,119,50
2,45,119,50
2,52,119,50
2,40,119,54
2,45,119,50
2,52,119,46
2,45,119,54
2,47,119,46
2,54,119,52
2,42,119,50
2,47,119,54
2,54,119,46
2,45,119,54
2,42,119,46
2,40,119,48
2,47,119,52
2,35,119,54
2,40,119,46
2,47,119,50
2,42,119,50
2,40,119,50
2,43,119,50
2,50,119,50
2,38,119,54
2,43,119,46
2,50,119,50
2,50,119,54
2,43,119,50
2,45,119,46
2,52,119,52
2,40,119,50
2,45,119,50
2,52,119,54
2,40,119,46
2,45,119,50
2,52,119,50
2,40,119,54
2,45,119,50
2,57,119,46
2,50,119,50
2,45,119,52
2,42,119,50
2,37,119,50
2,45,119,50
2,40,119,56
2,47,119,50
2,42,119,52
2,47,119,46
2,54,119,50
2,54,119,50
2,42,119,54
2,47,119,46
2,54,119,54
2,54,119,50
2,42,119,50
2,40,119,46
2,35,119,52
2,40,119,54
2,47,119,46
2,40,119,50
2,47,119,50
2,40,119,50
2,40,119,56
2,39,119,46
2,39,119,52
2,38,119,50
2,38,119,56
2,38,119,46
2,38,119,56
2,43,119,46
2,38,119,54
2,43,119,50
2,38,119,50
2,43,119,46
2,45,119,50
2,52,119,50
2,52,119,50
2,40,119,54
2,45,119,46
2,52,119,54
2,52,119,50
2,45,119,50
2,50,119,46
2,45,119,56
2,42,119,50
2,37,119,48
2,45,119,50
2,40,119,54
2,47,119,50
2,42,119,52
2,47,119,46
2,54,119,50
2,54,119,50
2,42,119,54
2,47,119,50
2,54,119,50
2,54,119,50
2,47,119,50
2,40,119,46
2,47,119,54
2,40,119,50
2,47,119,50
2,47,119,46
2,35,119,50
2,40,119,50
2,40,119,56
2,39,119,50
2,39,119,48
2,38,119,52
2,38,119,54
2,38,119,46
2,38,119,54
2,43,119,46
2,50,119,56
2,50,119,46
2,38,119,54
2,43,119,46
2,50,119,54
2,50,119,46
2,43,119,50
2,45,119,50
2,52,119,54
2,52,119,50
2,40,119,50
2,45,119,46
2,52,119,54
2,57,119,50
2,50,119,46
2,45,119,56
2,50,119,50
2,45,119,50
2,42,119,46
2,37,119,54
2,42,119,50
2,37,119,46
2,45,119,50
2,40,119,50
2,45,119,54
2,52,119,46
2,52,119,50
2,45,119,54
2,47,119,46
2,42,119,56
2,47,119,50
2,54,119,50
2,47,119,46
2,42,119,54
2,40,119,46
2,47,119,52
2,40,119,54
2,47,119,46
2,40,119,54
2,43,119,46
2,50,119,52
2,50,119,50
2,43,119,54
2,50,119,50
2,50,119,50
2,43,119,50
2,45,119,46
2,52,119,50
2,52,119,50
2,40,119,50
2,45,119,50
2,52,119,50
2,52,119,50
2,40,119,54
2,45,119,46
2,52,119,50
2,52,119,50
2,40,119,54
2,45,119,50
2,52,119,50
2,57,119,46
2,52,119,54
2,50,119,46
2,45,119,56
2,42,119,50
2,37,119,48
2,45,119,50
2,40,119,50
2,47,119,54
2,42,119,50
2,47,119,46
2,54,119,50
2,54,119,50
2,42,119,50
2,47,119,50
2,54,119,50
2,54,119,54
2,42,119,46
2,40,119,52
2,35,119,54
2,40,119,50
2,47,119,46
2,40,119,54
2,47,119,46
2,40,119,50
2,40,119,56
2,39,119,50
2,39,119,52
2,38,119,46
2,38,119,54
2,38,119,50
2,38,119,52
2,43,119,46
2,38,119,56
2,43,119,50
2,38,119,46
2,43,119,54
2,45,119,46
2,52,119,54
2,52,119,46
2,40,119,54
2,45,119,46
2,52,119,50
2,52,119,54
2,45,119,46
2,50,119,50
2,45,119,54
2,42,119,50
2,37,119,52
2,45,119,46
2,40,119,54
2,47,119,50
2,42,119,52
2,47,119,46
2,54,119,54
2,54,119,46
2,42,119,54
2,47,119,50
2,54,119,50
2,54,119,50
2,47,119,46
2,40,119,50
2,47,119,56
2,40,119,46
2,47,119,50
2,47,119,50
2,35,119,50
2,40,119,50
2,40,119,56
2,39,119,46
2,39,119,52
2,38,119,50
2,38,119,54
2,38,119,50
2,38,119,52
2,43,119,46
2,50,119,50
2,50,119,54
2,38,119,50
2,43,119,50
2,50,119,50
2,50,119,46
2,43,119,54
2,45,119,46
2,52,119,52
2,52,119,54
2,40,119,46
2,45,119,54
2,52,119,46
2,57,119,54
2,50,119,46
2,45,119,56
2,50,119,50
2,45,119,50
2,42,119,48
2,37,119,54
2,42,119,50
2,37,119,46
2,45,119,50
2,40,119,52
2,45,119,50
2,52,119,50
2,52,119,50
2,45,119,50
2,47,119,50
2,42,119,56
2,47,119,46
2,54,119,50
2,47,119,54
2,42,119,50
2,40,119,46
2,47,119,52
2,40,119,50
2,47,119,52
2,40,119,54
2,43,119,46
2,50,119,54
2,50,119,50
2,43,119,50
2,50,119,46
2,50,119,54
2,43,119,48
2,45,119,50
2,52,119,52
2,52,119,50
2,40,119,50
2,45,119,54
2,52,119,46
2,52,119,50
2,40,119,54
2,45,119,46
2,52,119,50
2,52,119,50
2,40,119,54
2,45,119,46
2,52,119,50
2,57,119,54
2,52,119,50
2,50,119,46
2,45,119,52
2,50,119,54
2,57,119,46
2,57,119,54
2,50,119,50
2,42,119,46
2,37,119,52
2,42,119,54
2,49,119,50
2,49,119,46
2,42,119,50
2,45,119,52
2,40,119,54
2,45,119,50
2,52,119,46
2,52,119,50
2,45,119,50
2,47,119,48
2,42,119,52
2,47,119,54
2,54,119,50
2,54,119,50
2,54,119,46
2,47,119,50
2,40,119,48
2,47,119,56
2,40,119,50
2,47,119,50
2,47,119,50
2,40,119,46
2,43,119,50
2,50,119,54
2,50,119,46
2,43,119,50
2,43,119,50
2,50,119,50
2,50,119,50
2,43,119,50
2,45,119,50
2,52,119,52
2,52,119,54
2,40,119,46
2,45,119,50
2,52,119,50
2,52,119,50
2,40,119,54
2,45,119,46
2,52,119,50
2,52,119,54
2,40,119,46
2,45,119,50
2,52,119,50
2,57,119,50
2,57,119,50
2,52,119,54
2,50,119,46
2,45,119,56
2,42,119,50
2,37,119,48
2,45,119,50
2,40,119,50
2,47,119,54
2,42,119,52
2,47,119,46
2,54,119,54
2,54,119,46
2,42,119,54
2,47,119,46
2,54,119,54
2,54,119,46
2,42,119,50
2,40,119,50
2,35,119,56
2,40,119,50
2,47,119,50
2,40,119,46
2,47,119,54
2,40,119,46
2,40,119,52
2,39,119,54
2,39,119,52
2,38,119,46
2,38,119,50
2,38,119,54
2,38,119,52
2,43,119,46
2,38,119,54
2,43,119,50
2,38,119,50
2,43,119,46
2,45,119,50
2,52,119,54
2,52,119,46
2,40,119,54
2,45,119,46
2,52,119,50
2,52,119,50
2,45,119,54
2,50,119,46
2,45,119,54
2,42,119,50
2,37,119,52
2,45,119,46
2,40,119,50
2,47,119,54
2,42,119,52
2,47,119,46
2,54,119,50
2,54,119,50
2,42,119,54
2,47,119,50
2,54,119,46
2,54,119,50
2,47,119,54
2,40,119,46
2,47,119,54
2,40,119,50
2,47,119,46
2,47,119,50
2,35,119,50
2,40,119,50
2,40,119,56
2,39,119,50
2,39,119,52
2,38,119,46
2,38,119,54
2,38,119,46
2,38,119,54
2,43,119,46
2,50,119,54
2,50,119,50
2,38,119,50
2,43,119,50
2,50,119,46
2,50,119,50
2,43,119,54
2,45,119,46
2,52,119,50
2,52,119,54
2,40,119,46
2,45,119,50
2,52,119,54
2,57,119,50
2,50,119,46
2,45,119,56
2,50,119,50
2,45,119,50
2,42,119,46
2,37,119,52
2,42,119,54
2,37,119,46
2,45,119,50
2,40,119,56
2,45,119,46
2,52,119,50
2,52,119,50
2,45,119,54
2,47,119,46
2,42,119,56
2,47,119,50
2,54,119,46
2,47,119,50
2,42,119,50
2,40,119,48
2,47,119,56
2,40,119,46
2,47,119,50
2,40,119,54
2,43,119,46
2,50,119,50
2,50,119,50
2,43,119,54
2,50,119,46
2,50,119,54
2,43,119,50
2,45,119,46
2,52,119,50
2,52,119,54
2,40,119,46
2,45,119,54
2,52,119,46
2,52,119,50
2,40,119,54
2,45,119,46
2,52,119,50
2,52,119,54
2,40,119,46
2,45,119,54
2,52,119,46
2,57,119,50
2,52,119,54
2,50,119,46
2,45,119,54
2,50,119,50
2,45,119,50
2,42,119,46
2,37,119,54
2,42,119,50
2,37,119,46
2,45,119,50
2,40,119,54
2,45,119,46
2,52,119,50
2,52,119,50
2,45,119,50
2,47,119,50
2,42,119,56
2,47,119,50
2,54,119,46
2,47,119,54
2,42,119,46
2,40,119,48
2,47,119,52
2,40,119,50
2,47,119,50
2,40,119,54
2,43,119,46
2,50,119,56
2,50,119,46
2,43,119,50
2,50,119,50
2,50,119,50
2,43,119,54
2,45,119,46
2,52,119,56
2,52,119,46
2,40,119,54
2,45,119,46
2,52,119,54
2,52,119,50
2,40,119,46
2,45,119,50
2,52,119,54
2,52,119,50
2,40,119,46
2,45,119,54
2,52,119,50
2,57,119,46
2,52,119,50
2,50,119,50
2,45,119,54
2,50,119,50
2,45,119,50
2,42,119,46
2,37,119,54
2,42,119,50
2,37,119,50
2,45,119,46
2,40,119,52
2,45,119,50
2,52,119,50
2,52,119,54
2,45,119,46
2,47,119,48
2,42,119,56
2,47,119,46
2,54,119,54
2,47,119,46
2,42,119,50
2,40,119,48
2,47,119,56
2,40,119,50
2,47,119,50
2,40,119,46
2,43,119,50
2,50,119,56
2,50,119,50
2,43,119,46
2,50,119,54
2,50,119,46
2,43,119,54
2,45,119,46
2,52,119,50
2,52,119,50
2,40,119,54
2,45,119,46
2,52,119,50
2,52,119,50
2,40,119,54
2,45,119,46
2,52,119,50
2,52,119,50
2,40,119,50
2,45,119,50
2,52,119,50
2,57,119,50
2,52,119,50
2,50,119,50
3,62,95,1620
3,66,95,0
3,69,95,2
3,62,95,242
3,69,95,2
3,66,95,2
3,62,95,238
3,66,95,4
3,69,95,0
3,62,95,238
3,66,95,0
3,69,95,6
3,66,95,78
3,69,95,0
3,62,95,4
3,73,95,326
3,69,95,2
3,66,95,2
3,69,95,222
3,66,95,6
3,73,95,2
3,69,95,238
3,73,95,0
3,66,95,2
3,66,95,242
3,69,95,2
3,73,95,0
3,73,95,80
3,69,95,2
3,66,95,4
3,64,95,324
3,69,95,4
3,60,95,2
3,64,95,238
3,69,95,0
3,60,95,2
3,64,95,234
3,69,95,2
3,60,95,6
3,64,95,246
3,69,95,4
3,60,95,4
3,64,95,108
3,60,95,6
3,69,95,0
3,66,95,320
3,71,95,0
3,63,95,2
3,66,95,222
3,71,95,6
3,63,95,2
3,63,95,224
3,66,95,2
3,71,95,4
3,71,95,242
3,63,95,4
3,66,95,0
3,71,95,104
3,63,95,4
3,66,95,4
3,67,95,318
3,64,95,2
3,71,95,2
3,67,95,224
3,71,95,0
3,64,95,2
3,64,95,234
3,67,95,2
3,71,95,2
3,64,95,242
3,67,95,0
3,71,95,2
3,67,95,100
3,64,95,2
3,71,95,4
3,62,95,316
3,71,95,2
3,67,95,6
3,71,95,220
3,62,95,8
3,67,95,0
3,62,95,226
3,67,95,0
3,71,95,8
3,62,95,236
3,67,95,0
3,71,95,2
3,62,95,88
3,67,95,6
3,71,95,0
3,64,95,316
3,69,95,0
3,73,95,8
3,64,95,226
3,69,95,0
3,73,95,2
3,73,95,238
3,64,95,6
3,69,95,0
3,64,95,254
3,69,95,0
3,73,95,0
3,73,95,72
3,64,95,2
3,69,95,0
3,69,95,344
3,73,95,4
3,64,95,2
3,73,95,236
3,69,95,4
3,64,95,2
3,64,95,238
3,69,95,6
3,73,95,0
3,69,95,250
3,73,95,4
3,64,95,2
3,69,95,88
3,73,95,0
3,64,95,6
3,66,95,336
3,69,95,0
3,62,95,4
3,69,95,228
3,62,95,4
3,66,95,2
3,69,95,238
3,73,95,2
3,66,95,4
3,73,95,222
3,66,95,2
3,69,95,4
3,66,95,70
3,69,95,4
3,73,95,4
3,72,95,318
3,69,95,2
3,64,95,2
3,69,95,232
3,72,95,0
3,64,95,2
3,63,95,232
3,66,95,4
3,71,95,0
3,71,95,194
3,63,95,4
3,66,95,0
3,66,95,70
3,63,95,2
3,71,95,0
3,63,95,328
3,66,95,2
3,71,95,0
3,71,95,234
3,63,95,2
3,66,95,4
3,66,95,230
3,71,95,0
3,63,95,2
3,66,95,232
3,63,95,6
3,71,95,0
3,66,95,88
3,63,95,4
3,71,95,4
3,67,95,334
3,71,95,0
3,64,95,4
3,64,95,232
3,67,95,4
3,71,95,0
3,67,95,234
3,64,95,4
3,71,95,2
3,71,95,240
3,64,95,2
3,67,95,4
3,64,95,84
3,67,95,4
3,71,95,4
3,67,95,342
3,64,95,2
3,71,95,2
3,67,95,232
3,71,95,2
3,64,95,4
3,63,95,222
3,67,95,2
3,71,95,0
3,63,95,190
3,71,95,0
3,67,95,2
3,71,95,80
3,63,95,4
3,67,95,0
3,62,95,326
3,67,95,0
3,71,95,4
3,62,95,234
3,67,95,0
3,71,95,2
3,64,95,234
3,67,95,2
3,71,95,2
3,67,95,230
3,71,95,4
3,64,95,4
3,71,95,72
3,64,95,2
3,67,95,0
3,71,95,322
3,62,95,4
3,67,95,2
3,71,95,230
3,67,95,2
3,62,95,4
3,62,95,230
3,71,95,6
3,67,95,2
3,71,95,234
3,62,95,4
3,67,95,0
3,62,95,66
3,67,95,4
3,71,95,0
3,64,95,324
3,73,95,0
3,69,95,2
3,69,95,234
3,64,95,6
3,73,95,2
3,69,95,232
3,73,95,6
3,64,95,2
3,73,95,236
3,69,95,4
3,64,95,2
3,64,95,74
3,69,95,2
3,73,95,2
3,62,95,326
3,66,95,2
3,69,95,6
3,62,95,240
3,66,95,0
3,69,95,2
3,69,95,236
3,73,95,0
3,66,95,6
3,73,95,220
3,69,95,2
3,66,95,6
3,66,95,76
3,73,95,4
3,69,95,2
3,64,95,318
3,69,95,2
3,72,95,0
3,72,95,236
3,64,95,2
3,69,95,2
3,63,95,236
3,66,95,4
3,71,95,0
3,63,95,198
3,66,95,0
3,71,95,0
3,63,95,70
3,71,95,0
3,66,95,6
3,66,95,324
3,71,95,4
3,63,95,4
3,71,95,232
3,66,95,2
3,63,95,2
3,66,95,206
3,63,95,2
3,71,95,6
3,63,95,226
3,71,95,0
3,66,95,2
3,71,95,116
3,63,95,2
3,66,95,0
3,64,95,322
3,71,95,4
3,67,95,2
3,64,95,232
3,67,95,2
3,71,95,4
3,64,95,238
3,71,95,2
3,67,95,2
3,71,95,244
3,64,95,2
3,67,95,6
3,71,95,90
3,64,95,2
3,67,95,2
3,64,95,344
3,71,95,0
3,67,95,2
3,67,95,236
3,64,95,2
3,71,95,2
3,67,95,230
3,63,95,2
3,71,95,0
3,63,95,212
3,67,95,0
3,71,95,0
3,67,95,88
3,71,95,2
3,63,95,2
3,62,95,312
3,67,95,4
3,71,95,0
3,71,95,236
3,62,95,2
3,67,95,0
3,71,95,228
3,64,95,8
3,67,95,0
3,64,95,202
3,71,95,2
3,67,95,2
3,67,95,44
3,64,95,4
