track,note,velocity,time
0,84,52,1896
0,72,44,4
0,84,73,24
0,72,73,0
0,72,80,44
0,84,83,4
0,74,73,44
0,86,100,4
0,88,91,32
0,76,73,0
0,60,36,16
0,57,32,8
0,64,40,4
0,69,32,12
0,76,91,8
0,88,100,4
0,41,70,0
0,41,82,4
0,60,62,184
0,81,91,8
0,69,64,0
0,64,82,192
0,76,73,188
0,69,73,52
0,67,32,0
0,62,40,4
0,59,36,0
0,55,39,24
0,47,77,0
0,35,82,4
0,55,56,172
0,71,73,180
0,83,73,0
0,71,80,44
0,83,95,4
0,59,79,0
0,72,73,44
0,84,93,4
0,86,82,156
0,74,64,0
0,60,40,24
0,58,36,0
0,79,91,12
0,91,100,4
0,46,82,0
0,34,82,4
0,55,56,160
0,67,73,48
0,60,52,40
0,67,84,0
0,74,92,0
0,79,64,196
0,74,52,164
0,62,43,4
0,57,35,8
0,45,69,0
0,69,64,0
0,62,82,0
0,33,82,4
0,52,49,180
0,88,42,176
0,76,33,0
0,57,62,8
0,88,56,20
0,76,47,0
0,45,40,24
0,61,84,0
0,67,50,0
0,61,56,0
0,89,60,0
0,77,51,0
0,52,52,20
0,91,56,0
0,79,47,0
0,57,56,32
0,48,44,0
0,60,40,4
0,62,32,8
0,57,36,12
0,91,64,0
0,79,55,0
0,65,32,0
0,50,64,4
0,38,73,4
0,60,73,4
0,57,56,0
0,53,48,0
0,38,82,0
0,45,43,172
0,89,55,8
0,77,46,0
0,50,64,36
0,53,69,8
0,89,60,36
0,77,51,0
0,57,61,24
0,88,52,0
0,76,43,0
0,55,64,16
0,60,75,32
0,57,64,24
0,55,36,8
0,59,39,4
0,67,32,0
0,88,64,0
0,76,55,0
0,55,73,4
0,59,69,4
0,53,56,0
0,43,65,0
0,65,30,4
0,50,40,0
0,43,82,0
0,86,56,340
0,74,47,0
0,59,48,32
0,53,56,0
0,65,32,4
0,86,55,32
0,74,46,0
0,84,49,12
0,72,40,0
0,84,60,4
0,72,51,0
0,60,39,0
0,60,72,0
0,64,32,4
0,55,58,0
0,36,60,4
0,60,74,8
0,48,56,0
0,36,82,4
0,64,68,16
0,69,48,0
0,77,56,0
0,41,64,0
0,65,64,0
0,69,82,0
0,76,73,0
0,60,73,4
0,41,82,0
0,67,48,0
0,76,60,8
0,64,73,4
0,67,64,0
0,40,73,0
0,60,64,4
0,40,78,0
0,65,40,196
0,74,36,4
0,38,64,8
0,74,64,0
0,65,73,4
0,60,73,0
0,38,72,0
0,57,64,4
0,72,43,4
0,60,60,0
0,64,73,0
0,55,64,0
0,36,44,0
0,48,60,4
0,72,69,0
0,36,82,0
0,64,32,0
0,43,60,12
0,31,82,4
0,57,73,352
0,55,37,4
0,64,38,8
0,60,38,0
0,36,91,8
0,42,91,0
0,48,53,0
0,36,91,0
0,55,84,0
0,48,64,0
0,42,31,152
0,55,56,0
0,52,40,4
0,55,47,16
0,42,64,8
0,60,56,0
0,52,60,0
0,37,91,4
0,42,91,0
0,64,64,0
0,57,58,28
0,67,56,0
0,42,48,4
0,72,56,8
0,64,56,4
0,55,49,4
0,36,64,4
0,42,52,0
0,31,82,4
0,64,81,12
0,48,48,4
0,76,56,0
0,67,60,0
0,36,91,4
0,42,91,0
0,36,91,0
0,42,30,112
0,60,44,120
0,42,52,4
0,52,73,4
0,67,44,4
0,37,91,4
0,42,91,0
0,52,32,0
0,55,44,0
0,64,60,0
0,55,56,4
0,55,82,28
0,42,37,8
0,60,91,16
0,42,72,12
0,59,38,4
0,56,37,4
0,40,48,0
0,52,60,4
0,59,91,0
0,36,91,0
0,42,91,0
0,35,91,0
0,56,43,140
0,47,44,0
0,42,31,12
0,52,56,12
0,59,60,12
0,42,64,4
0,56,26,0
0,64,64,4
0,37,91,4
0,42,91,0
0,68,44,20
0,59,64,16
0,42,48,4
0,71,56,112
0,56,43,4
0,36,64,4
0,42,52,0
0,35,82,0
0,76,78,8
0,64,78,4
0,36,91,8
0,42,91,0
0,35,91,0
0,42,30,112
0,42,52,148
0,59,48,4
0,56,56,8
0,68,48,4
0,56,56,0
0,37,91,0
0,42,91,0
0,64,40,0
0,74,60,0
0,42,37,148
0,59,60,140
0,42,72,20
0,59,82,24
0,61,38,0
0,45,56,8
0,55,37,4
0,36,91,0
0,42,91,0
0,33,91,0
0,45,69,0
0,59,91,4
0,42,31,152
0,49,56,0
0,42,64,8
0,52,64,4
0,37,91,20
0,42,91,0
0,52,40,0
0,55,72,8
0,57,56,4
0,57,56,4
0,42,48,4
0,61,64,76
0,57,73,0
0,61,58,8
0,36,64,4
0,42,52,0
0,33,82,0
0,59,73,28
0,65,73,8
0,61,64,0
0,65,38,0
0,53,66,0
0,57,73,0
0,57,37,0
0,36,91,4
0,42,91,0
0,33,91,0
0,57,91,4
0,52,44,80
0,57,60,8
0,42,30,8
0,55,56,12
0,61,64,8
0,42,52,4
0,64,38,0
0,52,64,4
0,37,91,0
0,42,91,0
0,45,54,0
0,61,64,0
0,57,64,4
0,55,52,0
0,64,64,4
0,57,60,60
0,49,44,4
0,42,37,4
0,57,56,36
0,55,60,28
0,61,56,0
0,42,72,12
0,57,64,0
0,57,73,28
0,60,38,4
0,60,48,4
0,66,52,0
0,38,64,0
0,57,91,0
0,64,63,0
0,50,56,0
0,36,91,8
0,42,91,0
0,38,91,0
0,45,40,8
0,54,30,0
0,42,31,4
0,50,81,12
0,64,69,20
0,42,64,8
0,50,60,0
0,57,60,16
0,37,91,4
0,42,91,0
0,64,60,0
0,54,78,0
0,66,56,4
0,60,56,0
0,57,61,20
0,54,32,0
0,42,48,8
0,50,81,112
0,64,61,16
0,36,64,4
0,42,52,0
0,38,82,0
0,52,72,20
0,55,37,0
0,62,38,0
0,43,69,8
0,72,64,0
0,43,56,0
0,36,91,4
0,42,91,0
0,43,91,0
0,50,82,0
0,62,60,4
0,65,64,0
0,69,64,0
0,50,40,104
0,48,44,4
0,42,30,4
0,50,40,4
0,55,60,8
0,55,73,12
0,42,52,4
0,59,38,8
0,59,73,4
0,43,56,4
0,37,91,4
0,42,91,0
0,71,73,0
0,31,91,0
0,62,64,8
0,67,60,32
0,55,56,0
0,42,37,8
0,52,64,104
0,62,52,40
0,50,60,8
0,42,72,8
0,57,82,24
0,55,37,4
0,64,38,12
0,60,38,0
0,36,91,0
0,42,91,0
0,48,53,0
0,36,91,0
0,48,64,0
0,55,31,0
0,55,87,0
0,60,31,140
0,42,31,12
0,55,56,0
0,52,40,4
0,55,47,8
0,64,36,0
0,42,64,4
0,60,56,0
0,37,91,12
0,42,91,0
0,64,64,0
0,67,64,0
0,64,36,60
0,42,48,4
0,79,64,4
0,67,60,4
0,74,48,4
0,36,64,0
0,42,52,0
0,36,82,4
0,65,40,24
0,60,44,4
0,48,48,4
0,36,91,4
0,42,91,0
0,36,91,0
0,76,73,4
0,67,31,108
0,42,30,4
0,64,52,4
0,72,56,0
0,42,52,4
0,67,73,4
0,67,41,132
0,52,73,12
0,67,44,4
0,37,91,0
0,42,91,0
0,52,32,0
0,55,44,0
0,64,60,0
0,64,52,12
0,55,82,28
0,55,40,16
0,42,37,0
0,60,82,16
0,42,72,28
0,68,40,8
0,59,38,4
0,56,37,4
0,68,52,4
0,59,82,0
0,40,48,0
0,52,60,4
0,76,56,0
0,36,91,0
0,42,91,0
0,35,91,0
0,56,43,140
0,47,44,0
0,42,31,12
0,52,56,8
0,59,60,12
0,42,64,4
0,56,26,0
0,64,64,4
0,37,91,4
0,42,91,0
0,68,44,52
0,59,64,16
0,42,48,4
0,71,56,4
0,56,43,4
0,36,64,12
0,42,52,0
0,35,82,0
0,69,40,16
0,76,78,12
0,64,78,0
0,36,91,8
0,42,91,0
0,35,91,0
0,42,30,112
0,42,52,148
0,59,48,4
0,71,41,16
0,56,56,8
0,68,48,4
0,56,56,0
0,37,91,0
0,42,91,0
0,64,40,0
0,74,60,0
0,59,73,140
0,42,37,8
0,59,82,36
0,42,72,12
0,61,38,0
0,73,40,0
0,45,56,8
0,73,56,0
0,55,37,0
0,59,100,4
0,36,91,0
0,42,91,0
0,67,56,0
0,33,91,0
0,45,69,4
0,42,31,12
0,49,56,0
0,42,64,4
0,52,64,4
0,57,69,0
0,76,43,116
0,37,91,4
0,42,91,0
0,52,40,0
0,55,72,8
0,57,64,52
0,57,56,20
0,57,56,4
0,42,48,4
0,59,75,24
0,61,64,8
0,61,58,8
0,36,64,4
0,42,52,0
0,33,82,0
0,57,82,8
0,77,42,0
0,65,73,8
0,61,64,0
0,65,38,0
0,53,66,0
0,57,73,0
0,57,37,4
0,36,91,4
0,42,91,0
0,33,91,0
0,52,44,16
0,57,60,4
0,42,30,8
0,55,56,4
0,61,64,8
0,42,52,4
0,76,41,12
0,64,38,4
0,52,64,4
0,37,91,0
0,42,91,0
0,45,56,0
0,61,64,0
0,33,91,0
0,57,64,4
0,55,52,0
0,64,64,4
0,57,60,132
0,57,60,8
0,49,44,4
0,42,37,4
0,57,72,24
0,55,60,12
0,61,56,0
0,42,72,12
0,60,38,4
0,57,87,0
0,57,48,0
0,66,52,0
0,38,64,0
0,60,63,0
0,50,56,0
0,36,91,8
0,42,91,0
0,38,91,0
0,74,41,0
0,45,40,8
0,54,30,0
0,42,31,12
0,50,78,28
0,64,69,16
0,60,57,4
0,42,64,4
0,50,60,0
0,60,73,24
0,57,60,0
0,37,91,4
0,42,91,0
0,64,60,0
0,54,78,0
0,66,56,4
0,57,61,16
0,50,82,4
0,54,32,0
0,42,48,8
0,69,40,4
0,52,91,32
0,64,61,0
0,36,64,4
0,42,52,0
0,38,82,0
0,55,37,0
0,62,38,0
0,72,41,4
0,43,69,4
0,72,64,0
0,43,56,0
0,50,82,0
0,36,91,4
0,42,91,0
0,43,91,0
0,62,60,4
0,65,64,0
0,69,64,0
0,62,47,20
0,48,44,0
0,42,30,4
0,50,40,40
0,55,60,8
0,65,58,8
0,42,52,4
0,59,38,16
0,71,41,0
0,59,73,4
0,55,63,4
0,37,91,4
0,42,91,0
0,71,73,0
0,31,91,0
0,62,64,8
0,67,60,132
0,55,56,0
0,42,37,12
0,71,52,16
0,50,60,8
0,42,72,8
0,72,42,0
0,60,39,0
0,57,40,0
0,57,90,0
0,64,38,4
0,69,60,0
0,45,65,4
0,60,61,0
0,64,48,0
0,36,91,0
0,42,91,0
0,33,91,0
0,45,64,0
0,52,60,72
0,52,48,4
0,42,31,4
0,57,48,16
0,57,64,4
0,42,64,4
0,64,64,4
0,60,56,4
0,37,91,4
0,42,91,0
0,60,44,16
0,59,82,4
0,42,48,4
0,64,60,0
0,57,52,20
0,60,73,4
0,57,60,4
0,36,64,8
0,42,52,0
0,33,82,4
0,56,40,12
0,59,40,0
0,68,52,0
0,74,41,0
0,44,52,0
0,62,56,4
0,64,60,0
0,59,82,0
0,36,91,4
0,42,91,0
0,44,56,0
0,71,62,0
0,35,91,0
0,47,40,104
0,52,52,4
0,42,30,4
0,59,73,36
0,52,60,4
0,42,52,8
0,56,64,0
0,56,52,12
0,37,91,8
0,42,91,0
0,64,95,4
0,56,44,4
0,64,60,0
0,42,37,4
0,59,75,28
0,59,73,24
0,59,48,0
0,42,72,4
0,35,82,0
0,61,40,0
0,55,40,12
0,73,44,0
0,61,82,0
0,49,48,0
0,36,91,0
0,42,91,0
0,49,56,0
0,67,82,0
0,73,64,0
0,64,73,0
0,37,91,0
0,42,31,4
0,55,32,0
0,55,30,4
0,61,64,16
0,61,52,0
0,42,64,8
0,64,73,8
0,64,64,4
0,37,91,4
0,42,91,0
0,76,42,8
0,61,48,8
0,55,58,0
0,42,48,4
0,62,82,0
0,61,64,24
0,55,44,4
0,36,64,4
0,42,52,0
0,37,82,0
0,64,82,0
0,57,40,4
0,65,38,8
0,65,64,0
0,76,64,0
0,69,73,0
0,50,56,0
0,62,40,0
0,50,60,0
0,36,91,0
0,42,91,0
0,38,91,0
0,62,90,0
0,57,52,80
0,57,32,20
0,42,30,12
0,62,64,24
0,62,52,4
0,42,52,12
0,65,82,20
0,65,73,0
0,69,73,4
0,77,73,4
0,74,46,4
0,37,91,0
0,42,91,0
0,62,36,16
0,62,56,0
0,42,37,4
0,57,64,8
0,57,40,4
0,42,72,8
0,72,41,64
0,60,38,0
0,68,56,8
0,72,73,0
0,65,73,0
0,56,42,0
0,60,64,4
0,44,64,0
0,65,91,0
0,44,44,0
0,65,40,0
0,36,91,0
0,42,91,0
0,32,91,0
0,53,52,24
0,56,27,8
0,42,31,12
0,60,56,4
0,56,56,8
0,42,64,4
0,65,73,4
0,65,73,4
0,60,82,0
0,37,91,8
0,42,91,0
0,72,82,0
0,56,52,20
0,64,73,12
0,60,48,0
0,42,48,16
0,62,91,40
0,65,52,4
0,60,73,12
0,36,64,8
0,42,52,0
0,32,82,0
0,55,41,8
0,64,91,4
0,48,48,0
0,43,60,0
0,64,70,0
0,64,40,0
0,36,91,0
0,42,91,0
0,60,56,0
0,31,91,0
0,72,64,4
0,67,77,0
0,52,40,100
0,42,30,12
0,55,32,4
0,60,82,52
0,60,52,36
0,42,52,4
0,55,64,0
0,64,73,36
0,37,91,0
0,42,91,0
0,67,60,0
0,64,73,0
0,60,44,12
0,60,48,4
0,42,37,4
0,55,64,16
0,42,72,4
0,55,52,0
0,62,91,4
0,60,60,8
0,65,73,4
0,72,72,0
0,65,38,0
0,62,64,0
0,60,56,0
0,43,73,0
0,36,91,0
0,42,91,0
0,43,91,0
0,50,60,12
0,55,52,0
0,42,31,12
0,50,56,12
0,42,64,8
0,55,64,0
0,71,42,12
0,59,40,0
0,59,73,0
0,71,74,4
0,59,70,0
0,65,61,0
0,37,91,0
0,42,91,0
0,31,91,0
0,55,52,0
0,57,64,8
0,55,56,12
0,42,48,4
0,59,82,28
0,50,52,8
0,50,56,8
0,36,64,4
0,42,52,0
0,64,38,0
0,72,41,8
0,60,82,4
0,48,64,0
0,36,60,0
0,64,64,4
0,60,40,0
0,72,61,0
0,36,91,0
0,42,91,0
0,36,91,0
0,55,60,104
0,43,52,0
0,52,29,0
0,42,30,8
0,55,52,80
0,64,60,4
0,52,60,4
0,42,52,4
0,76,54,0
0,60,73,0
0,76,73,4
0,37,91,0
0,42,91,0
0,64,81,0
0,36,91,0
0,77,54,4
0,77,63,4
0,65,62,8
0,79,54,0
0,79,64,4
0,67,73,8
0,55,52,0
0,42,37,4
0,80,70,8
0,80,56,8
0,68,64,0
0,81,62,4
0,81,64,4
0,69,82,0
0,52,44,0
0,46,61,4
0,83,82,0
0,71,84,0
0,83,70,0
0,84,70,4
0,84,100,0
0,36,73,0
0,72,109,0
0,48,56,16
0,36,91,0
0,44,50,0
0,49,64,0
0,36,91,0
0,60,64,264
0,60,82,20
0,40,76,4
0,40,100,0
0,60,91,0
0,47,60,160
0,62,64,64
0,45,73,12
0,64,82,24
0,60,36,4
0,57,32,8
0,64,40,4
0,69,32,12
0,64,100,0
0,57,64,0
0,36,91,16
0,49,64,0
0,76,91,0
0,53,78,0
0,65,91,0
0,41,91,0
0,69,91,4
0,72,73,0
0,57,60,16
0,51,55,4
0,60,64,0
0,51,74,4
0,57,91,16
0,76,82,12
0,65,82,0
0,72,85,0
0,40,91,0
0,51,91,0
0,54,91,0
0,69,82,4
0,57,48,4
0,51,55,4
0,60,61,0
0,60,60,12
0,76,74,8
0,72,64,0
0,65,74,0
0,36,64,4
0,51,68,0
0,69,74,0
0,41,82,0
0,59,38,0
0,67,40,0
0,62,37,4
0,55,32,0
0,55,65,4
0,36,91,4
0,51,91,0
0,74,82,0
0,62,76,0
0,41,72,0
0,67,82,0
0,71,91,0
0,29,91,0
0,53,59,108
0,51,58,4
0,59,72,128
0,62,56,12
0,51,71,8
0,40,91,12
0,51,91,0
0,54,91,0
0,74,72,0
0,67,82,0
0,59,91,0
0,71,85,4
0,60,91,24
0,62,56,4
0,51,61,4
0,62,98,12
0,79,91,4
0,67,86,0
0,51,72,4
0,52,37,4
0,72,82,4
