track,note,velocity,time
1,50,107,1518
1,57,107,44
1,45,107,48
1,50,107,48
1,57,107,48
1,50,107,52
1,42,107,70
1,49,107,48
1,37,107,50
1,42,107,50
1,49,107,50
1,42,107,48
1,45,107,68
1,52,107,48
1,40,107,50
1,45,107,50
1,52,107,48
1,45,107,48
1,47,107,76
1,54,107,48
1,42,107,46
1,47,107,50
1,54,107,46
1,45,107,52
1,42,107,52
1,40,107,68
1,47,107,46
1,35,107,48
1,40,107,50
1,47,107,50
1,42,107,48
1,40,107,52
1,43,107,62
1,50,107,48
1,38,107,48
1,43,107,52
1,50,107,64
1,50,107,48
1,43,107,48
1,45,107,66
1,52,107,48
1,40,107,48
1,45,107,48
1,52,107,48
1,40,107,46
1,45,107,48
1,52,107,46
1,40,107,48
1,45,107,46
1,57,107,48
1,50,107,50
1,45,107,50
1,42,107,66
1,37,107,50
1,45,107,60
1,40,107,48
1,47,107,66
1,42,107,50
1,47,107,48
1,54,107,50
1,54,107,48
1,42,107,48
1,47,107,52
1,54,107,48
1,54,107,48
1,42,107,64
1,40,107,64
1,35,107,48
1,40,107,50
1,47,107,50
1,40,107,52
1,47,107,52
1,40,107,48
1,40,107,50
1,39,107,66
1,39,107,48
1,38,107,48
1,38,107,48
1,38,107,54
1,38,107,48
1,43,107,60
1,38,107,48
1,43,107,52
1,38,107,48
1,43,107,54
1,45,107,48
1,52,107,44
1,52,107,50
1,40,107,48
1,45,107,50
1,52,107,48
1,52,107,48
1,45,107,48
1,50,107,60
1,45,107,50
1,42,107,64
1,37,107,48
1,45,107,58
1,40,107,48
1,47,107,58
1,42,107,48
1,47,107,48
1,54,107,48
1,54,107,48
1,42,107,48
1,47,107,50
1,54,107,52
1,54,107,48
1,47,107,52
1,40,107,50
1,47,107,46
1,40,107,50
1,47,107,50
1,47,107,50
1,35,107,50
1,40,107,50
1,40,107,50
1,39,107,50
1,39,107,50
1,38,107,66
1,38,107,46
1,38,107,50
1,38,107,48
1,43,107,66
1,50,107,44
1,50,107,50
1,38,107,48
1,43,107,48
1,50,107,50
1,50,107,46
1,43,107,54
1,45,107,50
1,52,107,46
1,52,107,48
1,40,107,48
1,45,107,68
1,52,107,50
1,57,107,50
1,50,107,70
1,45,107,48
1,50,107,50
1,45,107,46
1,42,107,68
1,37,107,50
1,42,107,48
1,37,107,52
1,45,107,70
1,40,107,46
1,45,107,50
1,52,107,50
1,52,107,50
1,45,107,48
1,47,107,72
1,42,107,50
1,47,107,50
1,54,107,50
1,47,107,50
1,42,107,50
1,40,107,70
1,47,107,50
1,40,107,66
1,47,107,50
1,40,107,48
1,43,107,66
1,50,107,48
1,50,107,50
1,43,107,48
1,50,107,50
1,50,107,44
1,43,107,70
1,45,107,74
1,52,107,50
1,52,107,50
1,40,107,44
1,45,107,52
1,52,107,46
1,52,107,48
1,40,107,48
1,45,107,48
1,52,107,50
1,52,107,48
1,40,107,48
1,45,107,50
1,52,107,46
1,57,107,48
1,52,107,52
1,50,107,66
1,45,107,48
1,42,107,66
1,37,107,48
1,45,107,66
1,40,107,48
1,47,107,60
1,42,107,50
1,47,107,48
1,54,107,46
1,54,107,48
1,42,107,48
1,47,107,50
1,54,107,50
1,54,107,52
1,42,107,54
1,40,107,58
1,35,107,48
1,40,107,52
1,47,107,48
1,40,107,48
1,47,107,52
1,40,107,48
1,40,107,48
1,39,107,60
1,39,107,50
1,38,107,50
1,38,107,48
1,38,107,66
1,38,107,50
1,43,107,60
1,38,107,48
1,43,107,50
1,38,107,48
1,43,107,50
1,45,107,72
1,52,107,48
1,52,107,48
1,40,107,46
1,45,107,66
1,52,107,48
1,52,107,48
1,45,107,50
1,50,107,66
1,45,107,50
1,42,107,52
1,37,107,48
1,45,107,52
1,40,107,48
1,47,107,66
1,42,107,50
1,47,107,46
1,54,107,48
1,54,107,48
1,42,107,50
1,47,107,50
1,54,107,50
1,54,107,48
1,47,107,48
1,40,107,64
1,47,107,48
1,40,107,48
1,47,107,50
1,47,107,50
1,35,107,48
1,40,107,50
1,40,107,48
1,39,107,68
1,39,107,48
1,38,107,58
1,38,107,48
1,38,107,70
1,38,107,48
1,43,107,62
1,50,107,46
1,50,107,48
1,38,107,48
1,43,107,50
1,50,107,48
1,50,107,48
1,43,107,68
1,45,107,68
1,52,107,46
1,52,107,50
1,40,107,48
1,45,107,50
1,52,107,48
1,57,107,48
1,50,107,70
1,45,107,48
1,50,107,46
1,45,107,48
1,42,107,72
1,37,107,46
1,42,107,64
1,37,107,48
1,45,107,68
1,40,107,50
1,45,107,48
1,52,107,50
1,52,107,52
1,45,107,50
1,47,107,74
1,42,107,48
1,47,107,54
1,54,107,50
1,47,107,46
1,42,107,50
1,40,107,68
1,47,107,50
1,40,107,48
1,47,107,50
1,40,107,54
1,43,107,52
1,50,107,50
1,50,107,46
1,43,107,50
1,50,107,50
1,50,107,48
1,43,107,48
1,45,107,72
1,52,107,48
1,52,107,48
1,40,107,48
1,45,107,48
1,52,107,52
1,52,107,50
1,40,107,52
1,45,107,50
1,52,107,48
1,52,107,46
1,40,107,48
1,45,107,48
1,52,107,52
1,57,107,48
1,52,107,50
1,50,107,50
1,45,107,50
1,50,107,48
1,57,107,50
1,57,107,46
1,50,107,48
1,42,107,72
1,37,107,48
1,42,107,50
1,49,107,48
1,49,107,48
1,42,107,52
1,45,107,68
1,40,107,50
1,45,107,48
1,52,107,50
1,52,107,46
1,45,107,54
1,47,107,68
1,42,107,48
1,47,107,50
1,54,107,66
1,54,107,52
1,54,107,50
1,47,107,50
1,40,107,64
1,47,107,46
1,40,107,50
1,47,107,50
1,47,107,50
1,40,107,52
1,43,107,66
1,50,107,48
1,50,107,48
1,43,107,50
1,43,107,52
1,50,107,48
1,50,107,48
1,43,107,50
1,45,107,72
1,52,107,48
1,52,107,48
1,40,107,44
1,45,107,52
1,52,107,62
1,52,107,48
1,40,107,50
1,45,107,46
1,52,107,48
1,52,107,50
1,40,107,46
1,45,107,50
1,52,107,48
1,57,107,50
1,57,107,50
1,52,107,52
1,50,107,62
1,45,107,48
1,42,107,58
1,37,107,48
1,45,107,66
1,40,107,48
1,47,107,60
1,42,107,50
1,47,107,48
1,54,107,48
1,54,107,48
1,42,107,48
1,47,107,50
1,54,107,48
1,54,107,50
1,42,107,50
1,40,107,60
1,35,107,46
1,40,107,50
1,47,107,50
1,40,107,48
1,47,107,48
1,40,107,58
1,40,107,48
1,39,107,48
1,39,107,48
1,38,107,66
1,38,107,48
1,38,107,58
1,38,107,50
1,43,107,58
1,38,107,48
1,43,107,48
1,38,107,50
1,43,107,52
1,45,107,68
1,52,107,48
1,52,107,46
1,40,107,48
1,45,107,50
1,52,107,50
1,52,107,48
1,45,107,50
1,50,107,68
1,45,107,48
1,42,107,50
1,37,107,48
1,45,107,68
1,40,107,48
1,47,107,50
1,42,107,50
1,47,107,48
1,54,107,48
1,54,107,46
1,42,107,50
1,47,107,50
1,54,107,50
1,54,107,48
1,47,107,54
1,40,107,52
1,47,107,50
1,40,107,48
1,47,107,48
1,47,107,48
1,35,107,50
1,40,107,50
1,40,107,50
1,39,107,50
1,39,107,48
1,38,107,58
1,38,107,48
1,38,107,72
1,38,107,48
1,43,107,68
1,50,107,48
1,50,107,48
1,38,107,48
1,43,107,50
1,50,107,50
1,50,107,48
1,43,107,54
1,45,107,68
1,52,107,48
1,52,107,48
1,40,107,48
1,45,107,50
1,52,107,48
1,57,107,48
1,50,107,72
1,45,107,50
1,50,107,50
1,45,107,48
1,42,107,62
1,37,107,50
1,42,107,50
1,37,107,50
1,45,107,60
1,40,107,48
1,45,107,48
1,52,107,48
1,52,107,50
1,45,107,52
1,47,107,68
1,42,107,48
1,47,107,48
1,54,107,50
1,47,107,50
1,42,107,48
1,40,107,68
1,47,107,66
1,40,107,50
1,47,107,52
1,40,107,52
1,43,107,68
1,50,107,52
1,50,107,50
1,43,107,52
1,50,107,46
1,50,107,48
1,43,107,50
1,45,107,68
1,52,107,46
1,52,107,50
1,40,107,48
1,45,107,50
1,52,107,48
1,52,107,50
1,40,107,50
1,45,107,50
1,52,107,50
1,52,107,46
1,40,107,48
1,45,107,52
1,52,107,50
1,57,107,48
1,52,107,50
1,50,107,62
1,45,107,52
1,50,107,46
1,45,107,46
1,42,107,68
1,37,107,48
1,42,107,48
1,37,107,50
1,45,107,50
1,40,107,52
1,45,107,52
1,52,107,48
1,52,107,50
1,45,107,50
1,47,107,66
1,42,107,48
1,47,107,46
1,54,107,48
1,47,107,48
1,42,107,48
1,40,107,50
1,47,107,52
1,40,107,48
1,47,107,48
1,40,107,46
1,43,107,70
1,50,107,46
1,50,107,32
1,43,107,48
1,50,107,46
1,50,107,54
1,43,107,50
1,45,107,72
1,52,107,48
1,52,107,48
1,40,107,48
1,45,107,48
1,52,107,50
1,52,107,50
1,40,107,48
1,45,107,48
1,52,107,50
1,52,107,50
1,40,107,50
1,45,107,52
1,52,107,48
1,57,107,50
1,52,107,48
1,50,107,52
1,45,107,50
1,50,107,52
1,45,107,48
1,42,107,66
1,37,107,54
1,42,107,50
1,37,107,50
1,45,107,72
1,40,107,48
1,45,107,48
1,52,107,48
1,52,107,50
1,45,107,50
1,47,107,70
1,42,107,50
1,47,107,48
1,54,107,50
1,47,107,48
1,42,107,46
1,40,107,66
1,47,107,50
1,40,107,48
1,47,107,50
1,40,107,50
1,43,107,70
1,50,107,66
1,50,107,52
1,43,107,48
1,50,107,48
1,50,107,48
1,43,107,46
1,45,107,68
1,52,107,46
1,52,107,50
1,40,107,48
1,45,107,50
1,52,107,50
1,52,107,48
1,40,107,48
1,45,107,50
1,52,107,48
1,52,107,48
1,40,107,48
1,45,107,48
1,52,107,48
1,57,107,48
1,52,107,50
1,50,107,64
2,66,127,1516
2,62,127,0
2,81,31,2
2,78,31,0
2,74,31,0
2,69,127,0
2,81,31,0
2,78,31,0
2,73,31,0
2,69,127,0
2,66,127,0
2,61,127,0
2,64,127,0
2,60,127,0
2,72,31,16
2,69,127,0
2,81,31,2
2,76,31,0
2,59,127,0
2,83,31,22
2,78,31,0
2,75,31,0
2,71,31,0
2,71,127,0
2,66,127,0
2,63,127,0
2,64,127,6
2,67,127,0
2,71,127,0
2,83,31,8
2,79,31,0
2,76,31,0
2,62,127,6
2,67,127,0
2,71,127,0
2,74,31,2
2,79,31,0
2,83,31,0
2,61,127,4
2,64,127,0
2,81,31,10
2,76,31,0
2,73,31,0
2,69,127,0
2,69,127,0
2,66,127,0
2,62,127,0
2,69,127,2
2,66,127,0
2,61,127,0
2,69,127,4
2,64,127,0
2,60,127,0
2,59,127,18
2,63,127,0
2,66,127,0
2,67,127,0
2,64,127,0
2,71,127,16
2,71,127,0
2,67,127,0
2,64,127,0
2,71,127,14
2,67,127,0
2,63,127,0
2,71,127,0
2,67,127,0
2,62,127,0
2,67,127,4
2,64,127,0
2,71,127,2
2,59,127,6
2,62,127,0
2,67,127,0
2,69,127,0
2,64,127,0
2,61,127,0
2,62,127,6
2,66,127,0
2,69,127,0
2,61,127,0
2,69,127,14
2,66,127,0
2,60,127,4
2,64,127,2
2,69,127,0
2,59,127,4
2,63,127,2
2,66,127,0
2,71,127,0
2,67,127,0
2,64,127,0
2,71,127,0
2,67,127,0
2,64,127,0
2,71,127,0
2,67,127,0
2,63,127,0
2,62,127,0
2,71,127,16
2,67,127,0
2,71,127,0
2,67,127,0
2,64,127,0
2,59,127,0
2,67,127,16
2,62,127,0
2,69,127,0
2,64,127,0
2,61,127,0
2,74,31,0
2,69,127,0
2,66,127,0
2,62,127,0
2,81,31,18
2,78,31,0
2,61,127,2
2,66,127,2
2,69,127,0
2,81,31,10
2,78,31,0
2,73,31,0
2,60,127,4
2,64,127,0
2,69,127,0
2,72,31,2
2,76,31,0
2,81,31,8
2,83,31,0
2,78,31,0
2,75,31,0
2,71,31,0
2,71,127,0
2,66,127,0
2,63,127,0
2,59,127,0
2,64,127,4
2,67,127,2
2,71,127,8
2,83,31,2
2,79,31,0
2,76,31,0
2,62,127,2
2,67,127,2
2,83,31,8
2,79,31,0
2,74,31,0
2,71,127,0
2,69,127,0
2,64,127,0
2,61,127,0
2,73,31,20
2,76,31,0
2,81,31,2
2,69,127,12
2,66,127,0
2,62,127,0
2,69,127,2
2,66,127,0
2,61,127,0
2,69,127,0
2,64,127,0
2,60,127,0
2,57,123,192
2,59,123,0
2,60,115,0
2,59,127,6
2,63,127,0
2,66,127,2
2,60,111,0
2,59,111,0
2,67,127,2
2,66,127,2
2,67,123,0
2,66,123,0
2,64,127,2
2,67,127,2
2,71,127,0
2,59,119,0
2,71,127,0
2,67,127,0
2,64,127,0
2,63,127,4
2,67,127,2
2,71,127,2
2,71,127,0
2,67,127,0
2,62,127,0
2,71,127,0
2,67,127,0
2,64,127,0
2,59,119,190
2,61,111,2
2,62,115,2
2,59,127,6
2,62,127,0
2,67,127,2
2,62,115,0
2,74,103,2
2,76,111,0
2,57,123,0
2,69,127,0
2,64,127,0
2,61,127,0
2,62,127,6
2,66,127,0
2,69,127,0
2,69,127,2
2,66,127,0
2,61,127,0
2,69,127,0
2,64,127,0
2,60,127,0
2,59,127,572
2,63,127,0
2,59,127,0
2,60,127,16
2,66,127,0
2,59,127,2
2,72,123,2
2,71,127,2
2,71,127,0
2,67,127,0
2,64,127,0
2,64,127,2
2,71,127,0
2,67,127,0
2,64,127,0
2,63,127,2
2,71,127,0
2,67,127,0
2,63,127,0
2,62,127,6
2,67,127,0
2,71,127,0
2,62,119,2
2,64,127,0
2,67,127,18
2,71,127,2
2,59,127,0
2,59,127,2
2,62,127,2
2,67,127,0
2,55,127,0
2,67,127,0
2,61,127,6
2,64,127,0
2,69,127,0
2,57,127,10
2,69,127,2
2,69,127,0
2,66,127,0
2,62,127,0
2,74,31,16
2,78,31,0
2,81,31,2
2,61,127,4
2,66,127,0
2,69,127,0
2,73,31,2
2,78,31,0
2,81,31,0
2,69,127,0
2,64,127,0
2,60,127,0
2,81,31,18
2,76,31,0
2,72,31,0
2,59,127,4
2,63,127,0
2,66,127,16
2,71,127,2
2,71,31,0
2,75,31,2
2,78,31,0
2,83,31,0
2,64,127,4
2,67,127,2
2,71,127,0
2,76,31,0
2,79,31,2
2,83,31,0
2,83,31,0
2,79,31,0
2,74,31,0
2,71,127,0
2,67,127,0
2,62,127,0
2,64,127,0
2,61,127,0
2,69,127,18
2,73,31,2
2,76,31,0
2,81,31,0
2,81,31,0
2,78,31,0
2,74,31,0
2,69,127,0
2,66,127,0
2,62,127,0
2,61,127,16
2,66,127,2
2,69,127,0
2,73,31,2
2,78,31,0
2,81,31,0
2,64,127,0
2,60,127,0
2,69,127,16
2,72,31,0
2,76,31,2
2,81,31,0
2,63,127,0
2,59,127,0
2,83,31,18
2,78,31,0
2,75,31,0
2,71,31,0
2,71,127,0
2,66,127,0
2,64,127,6
2,67,127,0
2,71,127,0
2,76,31,2
2,79,31,0
2,83,31,0
2,62,127,0
2,83,31,16
2,79,31,0
2,74,31,0
2,71,127,0
2,67,127,0
2,73,31,0
2,69,127,0
2,64,127,0
2,61,127,0
2,76,31,20
2,81,31,0
2,62,127,4
2,66,127,0
2,69,127,0
2,61,127,4
2,66,127,0
2,69,127,2
2,60,127,4
2,64,127,2
2,69,127,0
2,57,123,188
2,59,123,0
2,60,115,0
2,59,127,6
2,63,127,0
2,66,127,0
2,60,111,2
2,59,111,2
2,67,127,2
2,66,127,2
2,67,123,2
2,66,123,0
2,64,127,6
2,67,127,0
2,71,127,0
2,59,119,2
2,64,127,4
2,67,127,2
2,71,127,0
2,71,127,0
2,67,127,0
2,63,127,0
2,62,127,0
2,71,127,16
2,67,127,0
2,64,127,4
2,67,127,0
2,71,127,0
2,59,119,184
2,61,111,2
2,62,115,2
2,59,127,4
2,62,127,0
2,67,127,2
2,62,115,0
2,74,103,0
2,61,127,4
2,64,127,0
2,69,127,0
2,57,123,2
2,76,111,0
2,69,127,0
