track,note,velocity,time
1,50,50,2672
1,62,55,0
1,57,60,0
1,66,60,0
1,78,82,0
1,42,48,24
1,64,60,0
1,58,60,2
1,62,56,0
1,54,48,0
1,76,73,0
1,78,73,198
1,81,73,148
1,74,67,8
1,66,60,30
1,43,48,0
1,55,46,0
1,59,60,0
1,74,82,0
1,62,56,4
1,76,64,4
1,78,66,16
1,76,82,20
1,57,49,0
1,62,60,0
1,64,56,0
1,45,48,2
1,67,61,0
1,61,68,382
1,74,68,36
1,69,64,0
1,78,64,0
1,50,48,2
1,74,60,16
1,78,60,0
1,69,52,0
1,71,64,6
1,79,64,0
1,74,68,0
1,74,60,60
1,79,60,0
1,71,56,0
1,76,68,24
1,73,64,0
1,45,48,0
1,81,64,2
1,73,53,44
1,76,60,0
1,81,60,0
1,79,60,46
1,74,68,4
1,71,64,0
1,50,46,30
1,57,58,192
1,62,73,192
1,69,73,8
1,54,49,2
1,61,64,372
1,62,56,192
1,47,49,40
1,59,64,174
1,62,73,192
1,66,65,192
1,71,68,384
1,52,46,30
1,66,60,192
1,67,73,192
1,71,68,190
1,50,49,38
1,71,70,44
1,69,69,2
1,57,52,2
1,64,56,0
1,49,49,0
1,54,52,4
1,62,56,2
1,47,49,2
1,52,52,24
1,61,51,2
1,45,49,0
1,43,49,26
1,42,46,10
1,62,60,192
1,69,73,194
1,74,69,194
1,66,52,2
1,54,49,2
1,76,70,0
1,73,51,2
1,70,53,4
1,74,64,2
1,74,65,6
1,66,60,0
1,71,55,2
1,55,46,4
1,69,73,4
1,54,49,4
1,57,55,190
1,64,70,196
1,69,67,50
1,52,46,0
1,67,73,0
1,59,56,194
1,62,64,4
1,67,64,192
1,50,49,2
1,59,60,194
1,64,70,192
1,67,70,190
1,49,46,0
1,64,69,188
1,61,64,194
1,62,64,36
1,55,57,2
1,47,49,0
1,57,64,4
1,64,68,0
1,49,49,0
1,62,64,0
1,57,56,0
1,66,56,0
1,50,46,4
1,61,64,34
1,55,56,0
1,66,56,0
1,45,49,4
1,64,65,10
1,62,56,22
1,54,56,0
1,59,64,0
1,47,46,4
1,64,56,34
1,54,56,0
1,57,64,0
1,42,49,4
1,64,56,36
1,67,56,0
1,59,64,0
1,40,46,4
1,67,56,34
1,62,56,0
1,59,64,0
1,38,49,4
1,57,52,40
1,64,56,0
1,49,49,0
1,54,52,4
1,62,56,2
1,47,49,2
1,52,52,24
1,61,51,2
1,45,49,0
1,43,49,26
1,64,56,6
1,69,56,0
1,57,64,0
1,42,46,4
1,62,65,10
1,64,56,22
1,62,60,0
1,70,56,0
1,54,49,4
1,66,56,0
1,62,60,36
1,71,56,0
1,66,56,4
1,55,46,0
1,64,56,34
1,61,60,0
1,71,56,0
1,67,56,4
1,49,49,0
1,70,56,14
1,66,56,4
1,54,49,0
1,59,56,12
1,57,60,0
1,66,56,0
1,71,73,2
1,62,56,2
1,47,46,0
1,73,64,18
1,74,73,14
1,78,73,10
1,59,56,0
1,56,60,0
1,66,56,0
1,62,56,4
1,52,49,0
1,68,59,382
1,62,73,14
1,64,64,2
1,69,60,2
1,57,64,0
1,45,46,0
1,61,64,14
1,69,60,0
1,64,60,2
1,55,69,0
1,47,49,2
1,49,49,56
1,62,64,28
1,57,56,0
1,66,56,0
1,50,46,4
1,61,64,34
1,57,56,0
1,64,56,0
1,49,49,4
1,62,56,28
1,66,56,0
1,59,64,0
1,47,46,4
1,64,56,34
1,54,56,0
1,57,64,0
1,42,49,4
1,62,56,36
1,57,56,0
1,59,64,0
1,43,46,4
1,59,56,34
1,62,64,0
1,40,49,4
1,55,56,0
1,67,58,0
1,62,73,26
1,67,73,44
1,67,62,22
1,59,56,0
1,62,64,0
1,45,49,4
1,59,64,40
1,66,64,0
1,43,48,0
1,64,64,38
1,57,64,2
1,42,48,0
1,55,64,26
1,62,64,2
1,40,48,0
1,64,73,16
1,57,64,4
1,37,48,0
1,57,64,14
1,66,56,0
1,62,56,0
1,38,46,4
1,62,56,64
1,57,60,0
1,64,56,0
1,42,49,4
1,66,60,36
1,62,56,0
1,71,56,4
1,47,46,0
1,57,56,0
1,57,56,34
1,62,60,0
1,71,56,4
1,45,49,0
1,66,56,0
1,66,60,24
1,71,61,4
1,74,68,18
1,78,60,2
1,43,48,0
1,71,73,2
1,76,67,22
1,73,64,0
1,69,72,0
1,42,48,2
1,71,64,86
1,74,73,0
1,40,48,2
1,67,56,0
1,40,48,12
1,71,64,2
1,74,63,0
1,67,62,0
1,50,50,52
1,78,73,2
1,69,64,0
1,62,56,194
1,66,73,190
1,78,73,34
1,69,60,2
1,76,73,20
1,69,64,2
1,49,50,2
1,61,56,178
1,64,64,192
1,69,62,42
1,76,73,0
1,74,73,0
1,47,50,2
1,66,64,0
1,59,56,188
1,62,64,190
1,69,60,48
1,74,77,2
1,54,53,0
1,45,50,0
1,73,73,0
1,74,73,24
1,57,60,2
1,73,73,32
1,62,64,2
1,57,63,72
1,69,73,22
1,66,64,0
1,62,62,58
1,55,64,2
1,71,73,0
1,43,50,2
1,62,73,0
1,59,61,174
1,62,73,40
1,67,73,188
1,45,50,6
1,55,44,0
1,59,56,184
1,62,64,6
1,74,73,0
1,73,64,32
1,67,64,0
1,62,68,2
1,57,64,0
1,66,64,0
1,50,48,2
1,74,82,0
1,57,52,28
1,66,60,0
1,62,60,0
1,62,68,6
1,67,64,0
1,59,64,0
1,61,64,16
1,64,68,0
1,45,48,2
1,69,64,0
1,69,60,44
1,64,60,0
1,61,53,0
1,67,60,46
1,59,64,4
1,62,68,0
1,50,46,28
1,66,64,0
1,57,64,0
1,64,73,2
1,62,73,192
1,57,67,22
1,69,73,4
1,54,49,2
1,66,73,0
1,64,60,194
1,64,72,34
1,62,61,192
1,54,56,14
1,62,72,0
1,47,49,0
1,59,58,174
1,62,58,28
1,66,70,192
1,69,68,384
1,52,46,30
1,59,64,192
1,64,73,192
1,67,73,192
1,50,49,6
1,55,69,2
1,59,73,192
1,64,62,192
1,57,57,4
1,64,64,0
1,49,49,0
1,54,56,4
1,62,61,2
1,47,49,2
1,52,55,24
1,61,57,2
1,45,49,0
1,43,49,26
1,42,46,10
1,54,56,194
1,57,72,188
1,62,73,198
1,54,58,4
1,64,70,0
1,42,46,0
1,58,53,6
1,62,72,2
1,59,64,6
1,66,68,2
1,57,60,2
1,62,64,0
1,43,46,4
1,55,60,192
1,59,64,20
1,66,60,22
1,59,60,2
1,62,64,0
1,61,60,24
1,42,49,2
1,64,73,0
1,57,73,4
1,57,64,50
1,52,46,0
1,55,73,2
1,59,56,194
1,67,64,188
1,62,64,192
1,50,49,2
1,67,66,0
1,59,60,194
1,64,70,192
1,67,68,38
1,69,60,14
1,59,60,0
1,49,46,2
1,61,59,0
1,64,60,0
1,64,69,42
1,61,64,194
1,64,73,26
1,62,64,0
1,55,57,2
1,47,49,0
1,57,64,4
1,64,68,0
1,49,49,0
1,62,64,0
1,57,56,0
1,66,56,0
1,50,46,4
1,61,64,34
1,55,56,0
1,66,56,0
1,45,49,4
1,64,65,10
1,62,56,22
1,54,56,0
1,59,64,0
1,47,46,4
1,64,56,34
1,54,56,0
1,57,64,0
1,42,49,4
1,64,56,36
1,67,56,0
1,59,64,0
1,40,46,4
1,59,56,34
1,62,56,0
1,55,64,0
1,38,49,4
1,57,52,40
1,64,56,0
1,49,49,0
1,54,52,4
1,62,56,2
1,47,49,2
1,52,52,24
1,61,51,2
1,45,49,0
1,43,49,26
1,64,56,6
1,69,56,0
1,57,64,0
1,42,46,4
1,62,65,10
1,64,56,22
1,62,60,0
1,70,56,0
1,54,49,4
1,66,56,0
1,62,60,36
1,71,56,0
1,66,56,4
1,55,46,0
1,64,56,34
1,61,60,0
1,71,56,0
1,67,56,4
1,49,49,0
1,70,56,14
1,66,56,4
1,54,49,0
1,59,56,12
1,57,60,0
1,66,56,0
1,71,73,2
1,62,56,2
1,47,46,0
1,73,64,18
1,74,73,14
1,78,73,10
1,59,56,0
1,56,60,0
1,66,56,0
1,62,56,4
1,52,49,0
1,68,59,382
1,62,73,14
1,64,64,2
1,69,60,2
1,57,64,0
1,45,46,0
1,61,64,14
1,69,60,0
1,64,60,2
1,55,69,0
1,47,49,2
1,49,49,56
1,62,64,28
1,57,56,0
1,66,56,0
1,50,46,4
1,61,64,34
1,57,56,0
1,64,56,0
1,49,49,4
1,62,56,28
1,66,56,0
1,59,64,0
1,47,46,4
1,64,56,34
1,54,56,0
1,57,64,0
1,42,49,4
1,62,56,36
1,57,56,0
1,59,64,0
1,43,46,4
1,59,56,34
1,62,64,0
1,40,49,4
1,55,56,0
1,67,58,0
1,62,73,26
1,67,73,44
1,67,62,22
1,59,56,0
1,62,64,0
1,45,49,4
1,59,64,40
1,66,64,0
1,43,48,0
1,64,64,38
1,57,64,2
1,42,48,0
1,55,64,26
1,62,64,2
1,40,48,0
1,64,73,16
1,57,64,4
1,37,48,0
1,57,64,14
1,66,56,0
1,62,56,0
1,38,46,4
1,62,56,64
1,57,60,0
1,64,56,0
1,42,49,4
1,66,60,36
1,62,56,0
1,71,56,4
1,47,46,0
1,57,56,0
1,57,56,34
1,62,60,0
1,71,56,4
1,45,49,0
1,66,56,0
1,66,60,24
1,71,61,4
1,74,68,18
1,78,60,2
1,43,48,0
1,71,73,2
1,76,67,22
1,73,64,0
1,69,72,0
1,42,48,2
1,71,64,86
1,74,73,0
1,40,48,2
1,67,56,0
1,40,48,12
1,71,64,2
1,74,63,0
1,67,62,0
1,38,50,56
1,57,64,190
1,69,64,2
1,62,73,20
1,74,64,2
1,76,75,18
1,64,82,0
1,71,79,12
1,79,76,0
1,69,73,28
1,78,74,0
1,76,73,26
1,67,73,2
1,66,73,12
1,74,73,2
1,65,68,4
1,70,72,0
1,43,50,0
1,62,65,0
1,64,73,4
1,67,68,2
1,72,66,0
1,46,50,4
1,60,56,10
1,67,71,0
1,45,50,4
1,55,66,100
1,60,72,34
1,64,64,98
1,67,73,42
1,72,58,0
1,72,73,28
1,65,68,6
1,72,73,0
1,38,51,0
1,62,57,0
1,69,60,0
1,74,73,14
1,71,60,4
1,66,64,0
1,69,64,0
1,47,50,0
1,71,71,16
1,62,64,0
1,40,50,0
1,64,64,2
1,68,64,0
1,45,50,16
1,71,64,0
1,64,64,0
1,74,73,0
1,67,60,0
1,76,60,32
1,69,73,0
1,73,60,0
1,54,50,2
1,66,73,0
1,74,73,30
1,52,50,2
1,71,64,0
1,78,64,0
1,67,73,2
1,79,68,40
1,73,73,0
1,76,68,0
1,69,73,2
1,45,50,0
1,62,64,20
1,57,56,0
1,66,56,0
1,50,46,4
1,61,64,34
1,57,56,0
1,64,56,0
1,49,49,4
1,62,56,28
1,66,56,0
1,59,64,0
1,47,46,4
1,64,56,34
1,54,56,0
1,57,64,0
1,42,49,4
1,62,56,36
1,57,56,0
1,59,64,0
1,43,46,4
1,59,56,34
1,62,64,0
1,40,49,4
1,55,56,0
1,67,58,0
1,62,73,26
1,67,73,44
1,67,62,22
1,59,56,0
1,62,64,0
1,45,49,4
1,59,64,40
1,66,64,0
1,43,48,0
1,64,64,38
1,57,64,2
1,42,48,0
1,55,64,26
1,62,64,2
1,40,48,0
1,64,73,16
1,57,64,4
1,37,48,0
1,57,64,14
1,66,56,0
1,62,56,0
1,38,46,4
1,62,56,64
1,57,60,0
1,64,56,0
1,42,49,4
1,66,60,36
1,62,56,0
1,71,56,4
1,47,46,0
1,57,56,0
1,57,56,34
1,62,60,0
1,71,56,4
1,45,49,0
1,66,56,0
1,66,60,24
1,71,61,4
1,74,68,18
1,78,60,2
1,43,48,0
1,71,73,2
1,76,67,22
1,73,64,0
1,69,72,0
1,42,48,2
1,71,64,86
1,74,73,0
1,40,48,2
1,67,56,0
1,40,48,12
1,71,64,2
1,74,63,0
1,67,62,0
1,45,64,58
1,55,56,36
1,59,64,38
1,62,60,34
1,67,66,50
1,50,50,42
1,78,73,2
1,69,64,0
1,62,56,194
1,66,73,190
1,78,73,34
1,69,60,2
1,76,73,20
1,69,64,2
1,49,50,2
1,61,56,178
1,64,64,192
1,69,62,42
1,76,73,0
1,74,73,0
1,47,50,2
1,66,64,0
1,59,56,188
1,62,64,190
1,66,60,40
1,74,77,2
1,54,53,0
1,45,50,0
1,73,73,0
1,74,73,24
1,62,60,2
1,73,73,32
1,66,64,2
1,54,63,24
1,69,82,0
1,71,72,16
1,43,50,28
1,55,61,174
1,59,64,186
1,55,52,12
1,45,50,6
1,59,56,12
1,62,60,10
1,67,73,34
1,74,73,714
1,73,64,50
1,64,31,0
1,50,51,12
1,66,60,24
1,69,56,14
1,74,72,26
2,45,82,5340
2,38,91,30
2,33,91,46
2,43,91,10
2,45,69,52
2,38,91,14
2,42,91,30
2,35,91,30
2,35,91,174
2,35,82,58
2,40,91,34
2,38,91,30
2,37,91,30
2,35,91,70
2,33,91,32
2,31,91,50
2,30,91,40
2,42,91,30
2,43,91,30
2,42,91,30
2,40,91,30
2,38,91,30
2,37,91,30
2,35,91,30
2,37,91,46
2,38,91,46
2,33,91,30
2,35,91,30
2,32,44,672
2,31,60,22
2,30,91,32
2,28,91,24
2,38,91,30
2,37,91,30
2,35,91,70
2,33,91,32
2,31,91,50
2,30,91,40
2,42,83,34
2,42,91,42
2,42,83,38
2,43,91,42
2,37,91,30
2,42,91,38
2,35,91,36
2,47,83,38
2,40,91,42
2,41,48,640
2,42,52,12
2,43,58,12
2,44,56,30
2,45,91,2
2,38,91,18
2,33,91,12
2,33,84,24
2,33,91,40
2,33,82,20
2,38,91,30
2,38,91,56
2,37,91,44
2,37,91,56
2,35,91,44
2,33,91,56
2,30,91,10
2,30,91,56
2,31,91,44
2,31,91,56
2,28,91,44
2,28,97,56
2,29,73,20
2,30,87,6
2,31,81,32
2,33,100,106
2,40,82,38
2,45,91,14
2,43,91,36
2,42,91,46
2,40,91,76
2,37,91,72
2,38,91,12
2,33,91,34
2,38,91,22
2,42,91,42
2,30,83,38
2,35,91,42
2,35,91,56
2,33,91,44
2,43,91,34
2,42,91,74
2,40,91,108
2,40,91,32
2,38,91,74
2,37,91,30
2,35,91,30
2,32,44,672
2,31,60,22
2,30,91,32
2,31,91,24
2,43,52,702
2,44,52,22
2,45,91,12
2,38,91,44
2,55,82,2304
2,57,60,52
2,38,91,32
2,42,91,30
2,35,91,30
2,47,91,22
2,42,72,94
2,35,90,0
2,47,82,8
2,40,91,16
2,38,91,30
2,37,91,30
2,35,91,42
2,33,91,32
2,31,91,50
2,30,91,40
2,30,83,34
2,42,91,42
2,43,91,30
2,43,83,38
2,42,91,38
2,40,91,30
2,40,83,38
2,38,91,42
2,37,91,56
2,35,91,70
2,37,91,64
2,38,91,60
2,33,82,58
2,33,91,26
2,35,91,30
2,35,91,50
2,30,87,96
2,30,91,28
2,42,91,36
2,40,91,40
2,40,82,30
2,38,91,46
2,37,91,30
2,35,91,32
2,33,91,32
2,31,91,50
2,30,91,40
2,42,83,34
2,42,91,42
2,42,83,38
2,43,91,42
2,37,91,30
2,42,91,38
2,35,91,36
2,35,83,38
2,40,91,42
2,41,61,640
2,42,55,12
2,43,58,12
2,44,49,4
2,45,91,2
2,38,91,18
2,33,91,12
2,33,84,24
2,33,91,40
2,37,82,20
2,38,91,30
2,33,82,40
2,38,91,28
2,37,91,34
2,37,75,56
2,37,91,22
2,35,91,16
2,30,91,56
2,30,91,44
2,42,91,30
2,31,91,30
2,31,91,56
2,28,91,32
2,33,100,52
2,45,100,42
2,43,91,48
2,42,91,24
2,40,91,36
2,37,91,102
2,38,91,24
2,42,91,42
2,30,83,38
2,35,91,42
2,35,91,56
2,33,91,44
2,43,91,34
2,42,91,74
2,40,91,108
2,40,91,32
2,38,91,74
2,45,91,14
2,50,91,72
2,52,82,22
2,50,91,24
2,43,91,30
2,34,92,24
2,34,73,28
2,33,92,22
2,33,92,18
2,38,93,192
2,40,87,24
2,41,91,24
2,45,82,26
2,50,91,22
2,48,31,236
