track,note,velocity,time
1,80,127,3960
1,80,0,30
1,80,127,30
1,80,0,60
1,80,127,0
1,80,0,60
1,79,127,0
1,79,0,30
1,79,127,30
1,79,0,30
1,79,127,30
1,79,0,60
1,77,127,0
1,77,0,60
1,77,127,0
1,77,0,30
1,77,127,30
1,77,0,60
1,72,127,0
1,72,0,60
1,70,127,0
1,70,0,60
1,68,127,0
1,68,0,60
1,65,127,0
1,65,0,60
1,72,127,0
1,72,0,60
1,75,127,0
1,75,0,60
1,72,127,0
1,72,0,180
1,80,127,780
1,80,0,60
1,80,127,0
1,80,0,60
1,80,127,0
1,80,0,120
1,79,127,0
1,79,0,60
1,79,127,0
1,79,0,60
1,79,127,0
1,79,0,120
1,77,127,0
1,77,0,60
1,77,127,0
1,77,0,60
1,77,127,0
1,77,0,60
1,72,127,0
1,72,0,60
1,70,127,0
1,70,0,60
1,68,127,0
1,68,0,60
1,65,127,0
1,65,0,60
1,72,127,0
1,72,0,60
1,72,127,0
1,72,0,60
1,75,127,0
1,75,0,60
1,72,127,0
1,72,0,90
1,63,127,630
1,63,0,60
1,68,127,0
1,68,0,60
1,65,127,0
1,65,0,60
1,68,127,0
1,68,0,60
1,65,127,0
1,65,0,60
1,68,127,0
1,68,0,60
1,68,127,60
1,68,0,60
1,65,127,0
1,65,0,60
1,68,127,0
1,68,0,60
1,65,127,0
1,65,0,60
1,68,127,0
1,68,0,60
1,65,127,0
1,65,0,60
1,68,127,0
1,68,0,60
1,70,127,0
1,70,0,120
1,63,127,0
1,63,0,180
1,63,127,180
1,63,0,60
1,63,127,0
1,63,0,60
1,65,127,0
1,65,0,180
1,63,127,60
1,63,0,60
1,65,127,0
1,65,0,60
1,68,127,0
1,68,0,180
1,68,127,120
1,68,0,60
1,65,127,0
1,65,0,60
1,68,127,0
1,68,0,60
1,65,127,0
1,65,0,60
1,68,127,0
1,68,0,60
1,65,127,0
1,65,0,60
1,68,127,0
1,68,0,60
1,65,127,0
1,65,0,60
1,68,127,0
1,68,0,60
1,65,127,0
1,65,0,60
1,68,127,0
1,68,0,60
1,65,127,0
1,65,0,60
1,63,127,0
1,63,0,60
1,70,127,0
1,70,0,120
1,63,127,0
1,63,0,180
1,60,127,60
1,60,0,60
1,63,127,0
1,63,0,60
1,65,127,0
1,65,0,120
1,63,127,120
1,63,0,60
1,72,127,0
1,72,0,60
1,70,127,0
1,70,0,30
1,68,127,0
1,68,0,60
1,65,127,30
1,65,0,60
1,61,127,240
1,61,0,60
1,61,127,0
1,61,0,60
1,61,127,0
1,61,0,60
1,63,127,0
1,63,0,180
1,56,127,360
1,56,0,180
1,56,127,0
1,56,0,60
1,56,127,0
1,56,0,60
1,68,127,0
1,68,0,120
1,65,127,0
1,65,0,180
1,65,127,540
1,65,0,60
1,65,127,0
1,65,0,60
1,67,127,0
1,67,0,60
1,68,127,0
1,68,0,60
1,68,127,0
1,68,0,60
1,67,127,0
1,67,0,60
1,67,127,0
1,67,0,180
1,63,127,180
1,63,0,60
1,67,127,0
1,67,0,60
1,67,127,0
1,67,0,60
1,67,127,0
1,67,0,60
1,68,127,0
1,68,0,120
1,70,127,0
1,70,0,180
1,80,127,120
1,80,0,30
1,80,127,30
1,80,0,60
1,80,127,0
1,80,0,60
1,79,127,0
1,79,0,30
1,79,127,30
1,79,0,30
1,79,127,30
1,79,0,60
1,77,127,0
1,77,0,60
1,77,127,0
1,77,0,30
1,77,127,30
1,77,0,60
1,72,127,0
1,72,0,60
1,70,127,0
1,70,0,60
1,68,127,0
1,68,0,60
1,65,127,0
1,65,0,60
1,72,127,0
1,72,0,60
1,75,127,0
1,75,0,60
1,72,127,0
1,72,0,180
1,80,127,780
1,80,0,60
1,80,127,0
1,80,0,60
1,80,127,0
1,80,0,120
1,79,127,0
1,79,0,60
1,79,127,0
1,79,0,60
1,79,127,0
1,79,0,120
1,77,127,0
1,77,0,60
1,77,127,0
1,77,0,60
1,77,127,0
1,77,0,60
1,72,127,0
1,72,0,60
1,70,127,0
1,70,0,60
1,68,127,0
1,68,0,60
1,65,127,0
1,65,0,60
1,72,127,0
1,72,0,60
1,72,127,0
1,72,0,60
1,75,127,0
1,75,0,60
1,72,127,0
1,72,0,60
1,77,127,780
1,77,0,60
1,77,127,0
1,77,0,60
1,77,127,0
1,77,0,120
1,75,127,0
1,75,0,60
1,75,127,0
1,75,0,60
1,75,127,0
1,75,0,120
1,73,127,0
1,73,0,60
1,73,127,0
1,73,0,60
1,73,127,0
1,73,0,120
1,72,127,0
1,72,0,120
1,72,127,0
1,72,0,180
1,73,127,900
1,73,0,60
1,73,127,0
1,73,0,60
1,73,127,0
1,73,0,120
1,72,127,0
1,72,0,60
1,72,127,0
1,72,0,60
1,72,127,0
1,72,0,120
1,70,127,0
1,70,0,60
1,70,127,0
1,70,0,60
1,68,127,0
1,68,0,120
1,67,127,0
1,67,0,120
1,68,127,0
1,68,0,180
1,68,127,1920
1,68,0,60
1,65,127,0
1,65,0,60
1,68,127,0
1,68,0,60
1,65,127,0
1,65,0,60
1,68,127,0
1,68,0,60
1,65,127,0
1,65,0,60
1,68,127,0
1,68,0,60
1,65,127,0
1,65,0,60
1,68,127,0
1,68,0,60
1,65,127,0
1,65,0,60
1,68,127,0
1,68,0,60
1,65,127,0
1,65,0,60
1,63,127,0
1,63,0,60
1,70,127,0
1,70,0,120
1,63,127,0
1,63,0,60
1,63,127,180
1,63,0,60
1,63,127,0
1,63,0,60
1,65,127,0
1,65,0,180
1,63,127,60
1,63,0,60
1,65,127,0
1,65,0,60
1,68,127,0
1,68,0,180
1,68,127,120
1,68,0,60
1,65,127,0
1,65,0,60
1,68,127,0
1,68,0,60
1,65,127,0
1,65,0,60
1,68,127,0
1,68,0,60
1,65,127,0
1,65,0,60
1,68,127,0
1,68,0,60
1,65,127,0
1,65,0,60
1,68,127,0
1,68,0,60
1,65,127,0
1,65,0,60
1,68,127,0
1,68,0,60
1,65,127,0
1,65,0,60
1,63,127,0
1,63,0,60
1,70,127,0
1,70,0,120
1,63,127,0
1,63,0,180
1,60,127,60
1,60,0,60
1,63,127,0
1,63,0,60
1,65,127,0
1,65,0,120
1,63,127,120
1,63,0,60
1,72,127,0
1,72,0,60
1,70,127,0
1,70,0,30
1,68,127,0
1,68,0,60
1,65,127,30
1,65,0,60
1,61,127,240
1,61,0,60
1,61,127,0
1,61,0,60
1,61,127,0
1,61,0,60
1,63,127,0
1,63,0,180
1,56,127,360
1,56,0,180
1,56,127,0
1,56,0,60
1,56,127,0
1,56,0,60
1,68,127,0
1,68,0,120
1,65,127,0
1,65,0,180
1,65,127,540
1,65,0,60
1,65,127,0
1,65,0,60
1,67,127,0
1,67,0,60
1,68,127,0
1,68,0,60
1,68,127,0
1,68,0,60
1,67,127,0
1,67,0,60
1,67,127,0
1,67,0,180
1,63,127,180
1,63,0,60
1,67,127,0
1,67,0,60
1,67,127,0
1,67,0,60
1,67,127,0
1,67,0,60
1,68,127,0
1,68,0,120
1,70,127,0
1,70,0,180
1,80,127,600
1,80,0,30
1,80,127,30
1,80,0,60
1,80,127,0
1,80,0,60
1,79,127,0
1,79,0,30
1,79,127,30
1,79,0,30
1,79,127,30
1,79,0,60
1,77,127,0
1,77,0,60
1,77,127,0
1,77,0,30
1,77,127,30
1,77,0,60
1,72,127,0
1,72,0,60
1,70,127,0
1,70,0,60
1,68,127,0
1,68,0,60
1,65,127,0
1,65,0,60
1,72,127,0
1,72,0,60
1,75,127,0
1,75,0,60
1,72,127,0
1,72,0,180
1,80,127,780
1,80,0,60
1,80,127,0
1,80,0,60
1,80,127,0
1,80,0,120
1,79,127,0
1,79,0,60
1,79,127,0
1,79,0,60
1,79,127,0
1,79,0,120
1,77,127,0
1,77,0,60
1,77,127,0
1,77,0,60
1,77,127,0
1,77,0,60
1,72,127,0
1,72,0,60
1,70,127,0
1,70,0,60
1,68,127,0
1,68,0,60
1,65,127,0
1,65,0,60
1,72,127,0
1,72,0,60
1,72,127,0
1,72,0,60
1,75,127,0
1,75,0,60
1,72,127,0
1,72,0,60
1,77,127,780
1,77,0,60
1,77,127,0
1,77,0,60
1,77,127,0
1,77,0,120
1,75,127,0
1,75,0,60
1,75,127,0
1,75,0,60
1,75,127,0
1,75,0,120
1,73,127,0
1,73,0,60
1,73,127,0
1,73,0,60
1,73,127,0
1,73,0,120
1,72,127,0
1,72,0,120
1,72,127,0
1,72,0,180
1,73,127,900
1,73,0,60
1,73,127,0
1,73,0,60
1,73,127,0
1,73,0,120
1,72,127,0
1,72,0,60
1,72,127,0
1,72,0,60
1,72,127,0
1,72,0,120
1,70,127,0
1,70,0,60
1,70,127,0
1,70,0,60
1,68,127,0
1,68,0,120
1,67,127,0
1,67,0,120
1,68,127,0
1,68,0,180
1,65,127,0
1,65,0,60
1,63,127,0
1,63,0,60
1,65,127,0
1,65,0,120
1,68,127,0
1,68,0,540
1,65,127,120
1,65,0,60
1,63,127,0
1,63,0,120
1,65,127,0
1,65,0,120
1,67,127,0
1,67,0,420
1,67,127,0
1,67,0,30
1,67,127,0
1,67,0,60
1,67,127,0
1,67,0,30
1,67,127,0
1,67,0,60
1,67,127,0
1,67,0,60
1,68,127,0
1,68,0,60
1,67,127,0
1,67,0,60
1,67,127,0
1,67,0,120
1,61,127,0
1,61,0,60
1,61,127,0
1,61,0,60
1,61,127,0
1,61,0,60
1,63,127,0
1,63,0,180
1,56,127,360
1,56,0,180
1,56,127,0
1,56,0,60
1,56,127,0
1,56,0,60
1,68,127,0
1,68,0,120
1,65,127,0
1,65,0,180
1,65,127,540
1,65,0,60
1,65,127,0
1,65,0,60
1,67,127,0
1,67,0,60
1,68,127,0
1,68,0,60
1,68,127,0
1,68,0,60
1,67,127,0
1,67,0,60
1,67,127,0
1,67,0,180
1,63,127,180
1,63,0,60
1,67,127,0
1,67,0,60
1,67,127,0
1,67,0,60
1,67,127,0
1,67,0,60
1,68,127,0
1,68,0,120
1,70,127,0
1,70,0,180
1,80,127,120
1,80,0,30
1,80,127,30
1,80,0,60
1,80,127,0
1,80,0,60
1,79,127,0
1,79,0,30
1,79,127,30
1,79,0,30
1,79,127,30
1,79,0,60
1,77,127,0
1,77,0,60
1,77,127,0
1,77,0,30
1,77,127,30
1,77,0,60
1,72,127,0
1,72,0,60
1,70,127,0
1,70,0,60
1,68,127,0
1,68,0,60
1,65,127,0
1,65,0,60
1,72,127,0
1,72,0,60
1,75,127,0
1,75,0,60
1,72,127,0
1,72,0,180
1,80,127,780
1,80,0,60
1,80,127,0
1,80,0,60
1,80,127,0
1,80,0,120
1,79,127,0
1,79,0,60
1,79,127,0
1,79,0,60
1,79,127,0
1,79,0,120
1,77,127,0
1,77,0,60
1,77,127,0
1,77,0,60
1,77,127,0
1,77,0,60
1,72,127,0
1,72,0,60
1,70,127,0
1,70,0,60
1,68,127,0
1,68,0,60
1,65,127,0
1,65,0,60
1,72,127,0
1,72,0,60
1,72,127,0
1,72,0,60
1,75,127,0
1,75,0,60
1,72,127,0
1,72,0,60
1,77,127,780
1,77,0,60
1,77,127,0
1,77,0,60
1,77,127,0
1,77,0,120
1,75,127,0
1,75,0,60
1,75,127,0
1,75,0,60
1,75,127,0
1,75,0,120
1,73,127,0
1,73,0,60
1,73,127,0
1,73,0,60
1,73,127,0
1,73,0,120
1,72,127,0
1,72,0,120
1,72,127,0
1,72,0,180
1,73,127,900
1,73,0,60
1,73,127,0
1,73,0,60
1,73,127,0
1,73,0,120
1,72,127,0
1,72,0,60
1,72,127,0
1,72,0,60
1,72,127,0
1,72,0,120
1,70,127,0
1,70,0,60
1,70,127,0
1,70,0,60
1,68,127,0
1,68,0,300
1,80,127,120
1,80,0,30
1,80,127,30
1,80,0,60
1,80,127,0
1,80,0,60
1,79,127,0
1,79,0,30
1,79,127,30
1,79,0,30
1,79,127,30
1,79,0,60
1,77,127,0
1,77,0,60
1,77,127,0
1,77,0,30
1,77,127,30
1,77,0,60
1,72,127,0
1,72,0,60
1,70,127,0
1,70,0,60
1,68,127,0
1,68,0,60
1,65,127,0
1,65,0,60
1,72,127,0
1,72,0,60
1,75,127,0
1,75,0,60
1,72,127,0
1,72,0,180
1,80,127,780
1,80,0,60
1,80,127,0
1,80,0,60
1,80,127,0
1,80,0,120
1,79,127,0
1,79,0,60
1,79,127,0
1,79,0,60
1,79,127,0
1,79,0,120
1,77,127,0
1,77,0,60
1,77,127,0
1,77,0,60
1,77,127,0
1,77,0,60
1,72,127,0
1,72,0,60
1,70,127,0
1,70,0,60
1,68,127,0
1,68,0,60
1,65,127,0
1,65,0,60
1,72,127,0
1,72,0,60
1,72,127,0
1,72,0,60
1,75,127,0
1,75,0,60
1,72,127,0
1,72,0,60
1,77,127,780
1,77,0,60
1,77,127,0
1,77,0,60
1,77,127,0
1,77,0,120
1,75,127,0
1,75,0,60
1,75,127,0
1,75,0,60
1,75,127,0
1,75,0,120
1,73,127,0
1,73,0,60
1,73,127,0
1,73,0,60
1,73,127,0
1,73,0,120
1,72,127,0
1,72,0,120
1,72,127,0
1,72,0,180
1,73,127,900
1,73,0,60
1,73,127,0
1,73,0,60
1,73,127,0
1,73,0,120
1,72,127,0
1,72,0,60
1,72,127,0
1,72,0,60
1,72,127,0
1,72,0,120
1,70,127,0
1,70,0,60
1,70,127,0
1,70,0,60
1,68,127,0
1,68,0,300
1,73,127,60
1,73,0,60
1,73,127,0
1,73,0,60
1,73,127,0
1,73,0,120
1,72,127,0
1,72,0,60
1,72,127,0
1,72,0,60
1,72,127,0
1,72,0,120
1,70,127,0
1,70,0,60
1,70,127,0
1,70,0,60
1,68,127,0
1,68,0,120
1,67,127,0
1,67,0,180
1,73,127,60
1,73,0,60
1,73,127,0
1,73,0,60
1,73,127,0
1,73,0,120
1,72,127,0
1,72,0,60
1,72,127,0
1,72,0,60
1,72,127,0
1,72,0,120
1,70,127,0
1,70,0,60
1,70,127,0
1,70,0,60
1,68,127,0
1,68,0,120
1,67,127,0
1,67,0,120
1,68,127,0
1,68,0,180
2,73,94,0
2,73,0,31
2,73,94,28
2,73,0,29
2,73,94,34
2,73,0,83
2,72,94,34
2,72,0,455
2,73,94,195
2,73,0,31
2,73,94,36
2,73,0,94
2,73,94,39
2,73,0,75
2,75,94,42
2,75,0,356
2,75,94,65
2,75,0,18
2,75,94,8
2,75,0,31
2,75,94,26
2,75,0,24
2,75,94,8
2,75,0,31
2,75,94,28
2,75,0,32
2,77,94,28
2,77,0,34
2,75,94,26
2,75,0,29
2,75,94,31
2,75,0,83
2,85,127,17856
2,85,0,60
2,85,127,0
2,85,0,60
2,85,127,0
2,85,0,120
2,84,127,0
2,84,0,60
2,84,127,0
2,84,0,60
2,84,127,0
2,84,0,120
2,82,127,0
2,82,0,60
2,82,127,0
2,82,0,60
2,80,127,0
2,80,0,120
2,79,127,0
2,79,0,120
2,80,127,0
2,80,0,180
3,63,74,3840
3,68,74,0
3,72,74,0
3,72,0,840
3,68,0,0
3,63,0,0
3,63,74,0
3,67,74,0
3,70,74,0
3,70,0,120
3,67,0,0
3,63,0,0
3,65,74,0
3,68,74,0
3,72,74,0
3,72,0,840
3,68,0,0
3,65,0,0
3,63,74,0
3,67,74,0
3,70,74,0
3,70,0,120
3,67,0,0
3,63,0,0
3,63,74,0
3,68,74,0
3,72,74,0
3,72,0,840
3,68,0,0
3,63,0,0
3,63,74,0
3,67,74,0
3,70,74,0
3,70,0,120
3,67,0,0
3,63,0,0
3,65,74,0
3,68,74,0
3,72,74,0
3,72,0,840
3,68,0,0
3,65,0,0
3,63,74,0
3,67,74,0
3,70,74,0
3,70,0,120
3,67,0,0
3,63,0,0
3,60,74,0
3,63,74,0
3,68,74,0
3,68,0,60
3,65,74,0
3,65,0,60
3,68,74,0
3,68,0,60
3,65,74,0
3,65,0,60
3,68,74,0
3,68,0,60
3,68,74,60
3,68,0,60
3,65,74,0
3,65,0,60
3,63,0,0
3,60,0,0
