track,note,velocity,time
1,74,127,0
1,70,127,0
1,65,127,0
1,72,127,4
1,68,127,0
1,63,127,0
1,70,127,4
1,67,127,0
1,62,127,0
1,69,127,4
1,65,127,0
1,60,127,0
1,74,127,484
1,70,127,0
1,65,127,0
1,72,127,4
1,68,127,0
1,63,127,0
1,70,127,4
1,67,127,0
1,62,127,0
1,69,127,4
1,65,127,0
1,60,127,0
1,60,127,244
1,60,127,4
1,57,127,0
1,53,127,0
1,60,127,4
1,62,127,4
1,60,127,4
1,68,127,4
1,65,127,0
1,60,127,0
1,67,127,4
1,65,127,4
1,65,127,4
1,60,127,0
1,57,127,0
1,65,127,4
1,62,127,4
1,65,127,4
1,57,127,4
1,62,127,480
1,65,127,4
1,68,127,4
1,65,127,0
1,60,127,0
1,67,127,4
1,65,127,4
1,60,127,4
1,56,127,0
1,65,127,0
1,68,127,19
1,65,127,0
1,60,127,0
1,65,127,4
1,59,127,0
1,68,127,0
1,67,127,4
1,65,127,4
1,62,127,0
1,59,127,0
1,59,127,4
1,62,127,240
1,65,127,4
1,67,127,4
1,68,127,4
1,60,127,0
1,72,127,4
1,74,127,4
1,68,127,4
1,67,127,4
1,62,127,0
1,58,127,0
1,65,127,4
1,62,127,4
1,58,127,0
1,65,127,4
1,60,127,0
1,56,127,0
1,65,127,4
1,60,127,0
1,57,127,0
1,55,127,4
1,53,127,0
1,60,127,0
1,58,127,0
1,55,127,240
1,53,127,0
1,60,127,244
1,60,127,4
1,57,127,0
1,53,127,0
1,60,127,4
1,62,127,4
1,60,127,4
1,69,127,4
1,65,127,0
1,60,127,0
1,67,127,4
1,65,127,4
1,67,127,4
1,60,127,0
1,57,127,0
1,65,127,4
1,60,127,0
1,57,127,0
1,65,127,4
1,60,127,0
1,57,127,0
1,62,127,4
1,57,127,0
1,53,127,0
1,57,127,4
1,62,127,480
1,65,127,4
1,68,127,4
1,65,127,0
1,60,127,0
1,67,127,4
1,65,127,4
1,65,127,4
1,60,127,0
1,57,127,0
1,59,127,484
1,62,127,240
1,65,127,4
1,67,127,4
1,69,127,4
1,65,127,0
1,72,127,4
1,74,127,4
1,71,127,0
1,65,127,4
1,68,127,0
1,65,127,240
1,67,127,0
1,65,127,4
1,62,127,0
1,56,127,0
1,62,127,4
1,58,127,0
1,65,127,4
1,62,127,0
1,65,127,4
1,60,127,0
1,57,127,0
1,65,127,964
1,60,127,0
1,57,127,0
1,69,127,484
1,65,127,0
1,72,127,4
1,69,127,0
1,74,127,4
1,70,127,0
1,65,127,0
1,72,127,4
1,70,127,4
1,62,127,0
1,65,127,0
1,74,127,4
1,70,127,0
1,65,127,0
1,75,127,4
1,70,127,0
1,65,127,0
1,75,127,4
1,70,127,0
1,65,127,0
1,74,127,4
1,70,127,0
1,65,127,0
1,72,127,4
1,70,127,4
1,74,127,4
1,69,127,0
1,65,127,0
1,72,127,4
1,69,127,0
1,65,127,0
1,69,127,4
1,65,127,0
1,72,127,4
1,69,127,0
1,74,127,4
1,70,127,0
1,65,127,0
1,72,127,4
1,70,127,4
1,65,127,0
1,62,127,0
1,74,127,4
1,70,127,0
1,65,127,0
1,70,127,4
1,65,127,0
1,75,127,0
1,70,127,240
1,65,127,0
1,75,127,4
1,70,127,0
1,65,127,0
1,74,127,4
1,70,127,0
1,65,127,0
1,72,127,4
1,70,127,4
1,72,127,4
1,69,127,0
1,69,127,4
1,67,127,4
1,65,127,4
1,60,127,0
1,57,127,0
1,65,127,964
1,60,127,0
1,57,127,0
1,65,127,4
1,60,127,0
1,57,127,0
1,75,127,4
1,70,127,0
1,67,127,0
1,72,127,4
1,74,127,4
1,72,127,4
1,74,127,4
1,72,127,4
1,74,127,4
1,72,127,4
1,75,127,4
1,72,127,0
1,69,127,0
1,66,127,0
1,74,127,4
1,72,127,0
1,66,127,0
1,72,127,4
1,69,127,0
1,66,127,0
1,69,127,4
1,66,127,0
1,60,127,0
1,69,127,4
1,65,127,0
1,62,127,0
1,58,127,0
1,67,127,4
1,65,127,4
1,62,127,4
1,58,127,0
1,65,127,4
1,61,127,0
1,55,127,0
1,62,127,4
1,65,127,4
1,69,127,4
1,66,127,0
1,60,127,0
1,72,127,4
1,69,127,0
1,66,127,0
1,74,127,4
1,72,127,0
1,66,127,0
1,77,127,4
1,74,127,0
1,69,127,0
1,68,127,4
1,65,127,0
1,61,127,0
1,65,127,4
1,68,127,484
1,65,127,0
1,61,127,0
1,61,127,4
1,61,127,4
1,56,127,0
1,65,127,0
1,58,127,4
1,62,127,0
1,58,127,1920
1,72,127,240
1,75,127,4
1,72,127,0
1,69,127,0
1,65,127,0
1,72,127,4
1,69,127,0
1,65,127,0
1,72,127,4
1,69,127,0
1,65,127,0
1,72,127,4
1,69,127,4
1,65,127,0
1,60,127,0
1,74,127,4
1,69,127,0
1,65,127,0
1,77,127,4
1,72,127,0
1,69,127,0
1,77,127,4
1,72,127,0
1,69,127,0
1,69,127,244
1,65,127,0
1,60,127,0
1,67,127,4
1,69,127,4
1,62,127,0
1,58,127,0
1,67,127,4
1,65,127,4
1,65,127,4
1,62,127,0
1,58,127,0
1,60,127,4
1,64,127,0
1,69,127,0
1,60,127,240
1,72,127,0
1,67,127,0
1,64,127,0
1,69,127,244
1,64,127,0
1,60,127,0
1,67,127,4
1,69,127,4
1,62,127,0
1,58,127,0
1,67,127,4
1,65,127,4
1,69,127,244
1,72,127,4
1,74,127,4
1,69,127,0
1,64,127,0
1,72,127,4
1,69,127,4
1,74,127,4
1,71,127,0
1,65,127,0
1,72,127,4
1,69,127,4
1,64,127,4
1,70,127,0
1,72,127,0
1,64,127,240
1,69,127,4
1,67,127,4
1,64,127,0
1,58,127,0
1,67,127,484
1,64,127,0
1,58,127,0
1,71,127,4
1,67,127,0
1,64,127,0
1,62,127,0
1,73,127,4
1,69,127,0
1,67,127,0
1,64,127,0
1,74,127,484
1,69,127,0
1,65,127,0
1,77,127,4
1,77,127,4
1,74,127,0
1,69,127,0
1,74,127,4
1,69,127,4
1,62,127,0
1,58,127,0
1,67,127,4
1,65,127,4
1,67,127,4
1,65,127,0
1,62,127,0
1,58,127,0
1,60,127,4
1,55,127,0
1,65,127,480
1,65,127,4
1,69,127,4
1,64,127,0
1,60,127,0
1,72,127,4
1,74,127,4
1,69,127,0
1,64,127,0
1,72,127,4
1,75,127,4
1,70,127,0
1,65,127,0
1,75,127,4
1,75,127,4
1,74,127,4
1,70,127,0
1,65,127,0
1,67,127,4
1,65,127,0
1,62,127,0
1,58,127,0
1,69,127,4
1,67,127,0
1,64,127,0
1,60,127,0
1,70,127,4
1,65,127,0
1,62,127,0
1,70,127,4
1,71,127,4
1,68,127,0
1,65,127,0
1,62,127,0
1,64,127,4
1,74,127,0
1,70,127,0
1,64,127,240
1,72,127,0
1,70,127,0
1,64,127,0
1,65,127,244
1,68,127,4
1,62,127,0
1,67,127,4
1,60,127,0
1,67,127,4
1,58,127,0
1,62,127,4
1,58,127,0
1,65,127,4
1,58,127,0
1,65,127,4
1,58,127,0
1,65,127,4
1,58,127,0
1,65,127,4
1,58,127,0
1,65,127,4
1,58,127,0
1,65,127,4
1,58,127,0
1,65,127,4
1,58,127,0
1,72,127,244
1,65,127,4
1,65,127,4
1,60,127,2640
1,57,127,0
1,60,127,19
1,57,127,0
1,74,127,4
1,70,127,0
1,65,127,0
1,72,127,4
1,68,127,0
1,63,127,0
1,70,127,4
1,67,127,0
1,62,127,0
1,60,127,4
1,69,127,0
1,65,127,0
1,60,127,240
1,74,127,484
1,70,127,0
1,65,127,0
1,72,127,4
1,68,127,0
1,63,127,0
1,70,127,4
1,67,127,0
1,62,127,0
1,69,127,4
1,65,127,0
1,60,127,0
1,60,127,484
1,57,127,0
1,53,127,0
1,60,127,4
1,62,127,4
1,60,127,4
1,68,127,4
1,65,127,0
1,60,127,0
1,67,127,4
1,65,127,4
1,65,127,4
1,60,127,0
1,57,127,0
1,65,127,4
1,62,127,4
1,65,127,4
1,57,127,4
1,62,127,480
1,65,127,4
1,68,127,4
1,65,127,0
1,60,127,0
1,67,127,4
1,65,127,4
1,60,127,4
1,56,127,0
1,65,127,0
1,68,127,19
1,65,127,0
1,60,127,0
1,65,127,4
1,59,127,0
1,68,127,0
1,67,127,4
1,65,127,4
1,62,127,0
1,59,127,0
1,59,127,4
1,62,127,240
1,65,127,4
1,67,127,4
1,68,127,4
1,60,127,0
1,72,127,4
1,74,127,4
1,68,127,4
1,67,127,4
1,62,127,0
1,58,127,0
1,65,127,4
1,62,127,4
1,58,127,0
1,65,127,4
1,60,127,0
1,56,127,0
1,65,127,4
1,60,127,0
1,57,127,0
1,55,127,4
1,53,127,0
1,60,127,0
1,58,127,0
1,55,127,240
1,53,127,0
1,60,127,244
1,60,127,4
1,57,127,0
1,53,127,0
1,60,127,4
1,62,127,4
1,60,127,4
1,69,127,4
1,65,127,0
1,60,127,0
1,67,127,4
1,65,127,4
1,67,127,4
1,60,127,0
1,57,127,0
1,65,127,4
1,60,127,0
1,57,127,0
1,65,127,4
1,60,127,0
1,57,127,0
1,62,127,4
1,57,127,0
1,53,127,0
1,57,127,4
1,62,127,480
1,65,127,4
1,68,127,4
1,65,127,0
1,60,127,0
1,67,127,4
1,65,127,4
1,65,127,4
1,60,127,0
1,57,127,0
1,59,127,484
1,62,127,240
1,65,127,4
1,67,127,4
1,69,127,4
1,65,127,0
1,72,127,4
1,74,127,4
1,71,127,0
1,65,127,4
1,68,127,0
1,65,127,240
1,67,127,0
1,65,127,4
1,62,127,0
1,56,127,0
1,62,127,4
1,58,127,0
1,65,127,4
1,62,127,0
1,65,127,4
1,60,127,0
1,57,127,0
1,65,127,964
1,60,127,0
1,57,127,0
1,69,127,484
1,65,127,0
1,72,127,4
1,69,127,0
1,74,127,4
1,70,127,0
1,65,127,0
1,72,127,4
1,70,127,4
1,62,127,0
1,65,127,0
1,74,127,4
1,70,127,0
1,65,127,0
1,75,127,4
1,70,127,0
1,65,127,0
1,75,127,4
1,70,127,0
1,65,127,0
1,74,127,4
1,70,127,0
1,65,127,0
1,72,127,4
1,70,127,4
1,74,127,4
1,69,127,0
1,65,127,0
1,72,127,4
1,69,127,0
1,65,127,0
1,69,127,4
1,65,127,0
1,72,127,4
1,69,127,0
1,74,127,4
1,70,127,0
1,65,127,0
1,72,127,4
1,70,127,4
1,65,127,0
1,62,127,0
1,74,127,4
1,70,127,0
1,65,127,0
1,70,127,4
1,65,127,0
1,75,127,0
1,70,127,240
1,65,127,0
1,75,127,4
1,70,127,0
1,65,127,0
1,74,127,4
1,70,127,0
1,65,127,0
1,72,127,4
1,70,127,4
1,72,127,4
1,69,127,0
1,69,127,4
1,67,127,4
1,65,127,4
1,60,127,0
1,57,127,0
1,65,127,964
1,60,127,0
1,57,127,0
1,65,127,4
1,60,127,0
1,57,127,0
1,75,127,4
1,70,127,0
1,67,127,0
1,72,127,4
1,74,127,4
1,72,127,4
1,74,127,4
1,72,127,4
1,74,127,4
1,72,127,4
1,75,127,4
1,72,127,0
1,69,127,0
1,66,127,0
1,74,127,4
1,72,127,0
1,66,127,0
1,72,127,4
1,69,127,0
1,66,127,0
1,69,127,4
1,66,127,0
1,60,127,0
1,69,127,4
1,65,127,0
1,62,127,0
1,58,127,0
1,67,127,4
1,65,127,4
1,62,127,4
1,58,127,0
1,65,127,4
1,61,127,0
1,55,127,0
1,62,127,4
1,65,127,4
1,69,127,4
1,66,127,0
1,60,127,0
1,72,127,4
1,69,127,0
1,66,127,0
1,74,127,4
1,72,127,0
1,66,127,0
1,77,127,4
1,74,127,0
1,69,127,0
1,68,127,4
1,65,127,0
1,61,127,0
1,65,127,4
1,68,127,484
1,65,127,0
1,61,127,0
1,61,127,4
1,61,127,4
1,56,127,0
1,65,127,0
1,58,127,4
1,62,127,0
1,58,127,1920
1,72,127,240
1,75,127,4
1,72,127,0
1,69,127,0
1,65,127,0
1,72,127,4
1,69,127,0
1,65,127,0
1,72,127,4
1,69,127,0
1,65,127,0
1,72,127,4
1,69,127,4
1,65,127,0
1,60,127,0
1,74,127,4
1,69,127,0
1,65,127,0
1,77,127,4
1,72,127,0
1,69,127,0
1,77,127,4
1,72,127,0
1,69,127,0
1,69,127,244
1,65,127,0
1,60,127,0
1,67,127,4
1,69,127,4
1,62,127,0
1,58,127,0
1,67,127,4
1,65,127,4
1,65,127,4
1,62,127,0
1,58,127,0
1,60,127,4
1,64,127,0
1,69,127,0
1,60,127,240
1,72,127,0
1,67,127,0
1,64,127,0
1,69,127,244
1,64,127,0
1,60,127,0
1,67,127,4
1,69,127,4
1,62,127,0
1,58,127,0
1,67,127,4
1,65,127,4
1,69,127,244
1,72,127,4
1,74,127,4
1,69,127,0
1,64,127,0
1,72,127,4
1,69,127,4
1,74,127,4
1,71,127,0
1,65,127,0
1,72,127,4
1,69,127,4
1,64,127,4
1,70,127,0
1,72,127,0
1,64,127,240
1,69,127,4
1,67,127,4
1,64,127,0
1,58,127,0
1,67,127,484
1,64,127,0
1,58,127,0
1,71,127,4
1,67,127,0
1,64,127,0
1,62,127,0
1,73,127,4
1,69,127,0
1,67,127,0
1,64,127,0
1,74,127,484
1,69,127,0
1,65,127,0
1,77,127,4
1,77,127,4
1,74,127,0
1,69,127,0
1,74,127,4
1,69,127,4
1,62,127,0
1,58,127,0
1,67,127,4
1,65,127,4
1,67,127,4
1,65,127,0
1,62,127,0
1,58,127,0
1,60,127,4
1,55,127,0
1,65,127,480
1,65,127,4
1,69,127,4
1,64,127,0
1,60,127,0
1,72,127,4
1,74,127,4
1,69,127,0
1,64,127,0
1,72,127,4
1,75,127,4
1,70,127,0
1,65,127,0
1,75,127,4
1,75,127,4
1,74,127,4
1,70,127,0
1,65,127,0
1,67,127,4
1,65,127,0
1,62,127,0
1,58,127,0
1,69,127,4
1,67,127,0
1,64,127,0
1,60,127,0
1,70,127,4
1,65,127,0
1,62,127,0
1,70,127,4
1,71,127,4
1,68,127,0
1,65,127,0
1,62,127,0
1,64,127,4
1,74,127,0
1,70,127,0
1,64,127,240
1,72,127,0
1,70,127,0
1,64,127,0
1,65,127,244
1,68,127,4
1,62,127,0
1,67,127,4
1,60,127,0
1,67,127,4
1,58,127,0
1,62,127,4
1,58,127,0
1,65,127,4
1,58,127,0
1,65,127,4
1,58,127,0
1,65,127,4
1,58,127,0
1,65,127,4
1,58,127,0
1,65,127,4
1,58,127,0
1,65,127,4
1,58,127,0
1,65,127,4
1,58,127,0
1,72,127,244
1,65,127,4
1,65,127,4
1,60,127,2640
1,57,127,0
1,60,127,19
1,57,127,0
1,74,127,4
1,70,127,0
1,65,127,0
1,72,127,4
1,68,127,0
1,63,127,0
1,70,127,4
1,67,127,0
1,62,127,0
1,60,127,4
1,69,127,0
1,65,127,0
1,60,127,240
1,74,127,484
1,70,127,0
1,65,127,0
1,72,127,4
1,68,127,0
1,63,127,0
1,70,127,4
1,67,127,0
1,62,127,0
1,69,127,4
1,65,127,0
1,60,127,0
2,46,127,0
2,44,127,4
2,43,127,4
2,41,127,4
2,48,127,4
2,53,127,4
2,48,127,4
2,53,127,4
2,48,127,4
2,43,127,4
2,45,127,4
2,46,127,4
2,44,127,4
2,43,127,4
2,41,127,4
2,48,127,4
2,53,127,4
2,48,127,4
2,53,127,4
2,48,127,4
2,41,127,4
2,41,127,244
2,41,127,4
2,41,127,4
2,41,127,4
2,41,127,4
2,41,127,4
2,41,127,4
2,41,127,4
2,48,127,4
2,50,127,4
2,41,127,4
2,48,127,4
2,53,127,4
2,48,127,4
2,41,127,4
2,48,127,4
2,53,127,4
2,41,127,4
2,43,127,4
2,43,127,4
2,43,127,4
2,43,127,4
2,44,127,4
2,44,127,4
2,43,127,4
2,43,127,4
2,41,127,4
2,48,127,4
2,50,127,4
2,48,127,4
2,41,127,4
2,48,127,4
2,48,127,240
2,48,127,4
2,48,127,4
2,48,127,4
2,48,127,4
2,41,127,244
2,41,127,4
2,41,127,4
