track,note,velocity,time
1,45,84,0
1,60,84,0
1,64,84,0
1,69,84,0
1,45,0,720
1,41,84,0
1,41,0,540
1,69,0,0
1,64,0,0
1,60,0,0
1,55,84,0
1,59,84,0
1,62,84,0
1,43,84,0
1,43,0,180
1,55,0,0
1,59,0,0
1,62,0,0
1,45,84,0
1,57,84,0
1,60,84,0
1,64,84,0
1,64,0,59
1,64,84,1
1,64,0,59
1,64,84,1
1,64,0,59
1,64,84,1
1,64,0,119
1,64,84,1
1,64,0,29
1,64,84,1
1,64,0,29
1,64,84,1
1,64,0,59
1,64,84,1
1,64,0,59
1,64,84,1
1,64,0,59
1,64,84,1
1,64,0,119
1,62,84,1
1,62,0,29
1,60,84,1
1,60,0,29
1,60,0,1
1,57,0,0
1,45,0,0
1,41,84,0
1,57,84,0
1,60,84,0
1,67,84,0
1,67,0,179
1,64,84,1
1,64,0,360
1,64,84,0
1,64,0,59
1,62,84,1
1,62,0,59
1,60,84,1
1,60,0,59
1,41,0,1
1,57,0,0
1,60,0,0
1,38,84,0
1,53,84,0
1,57,84,0
1,57,0,480
1,60,84,0
1,60,0,59
1,57,84,1
1,57,0,119
1,55,84,1
1,55,0,59
1,53,0,1
1,38,0,0
1,41,84,0
1,48,84,0
1,53,84,0
1,55,84,0
1,55,0,360
1,53,0,0
1,48,0,0
1,57,84,0
1,60,84,0
1,65,84,0
1,65,0,180
1,41,0,0
1,57,0,0
1,60,0,0
1,43,84,0
1,59,84,0
1,62,84,0
1,67,84,0
1,67,0,180
1,43,0,0
1,59,0,0
1,62,0,0
1,45,84,0
1,57,84,0
1,60,84,0
1,64,84,0
1,64,0,59
1,64,84,1
1,64,0,59
1,64,84,1
1,64,0,59
1,64,84,1
1,64,0,119
1,62,84,1
1,62,0,29
1,60,84,1
1,60,0,29
1,64,84,1
1,64,0,59
1,64,84,1
1,64,0,59
1,64,84,1
1,64,0,59
1,64,84,1
1,64,0,119
1,62,84,1
1,62,0,29
1,60,84,1
1,60,0,29
1,60,0,1
1,57,0,0
1,45,0,0
1,41,84,0
1,57,84,0
1,60,84,0
1,67,84,0
1,67,0,179
1,64,84,1
1,64,0,300
1,57,84,0
1,57,0,60
1,64,84,0
1,64,0,59
1,62,84,1
1,62,0,59
1,60,84,1
1,60,0,59
1,60,0,1
1,57,0,0
1,41,0,0
1,38,84,0
1,53,84,0
1,57,84,0
1,57,0,480
1,60,84,0
1,60,0,59
1,57,84,1
1,57,0,119
1,55,84,1
1,55,0,59
1,53,0,1
1,38,0,0
1,41,84,0
1,48,84,0
1,53,84,0
1,55,84,0
1,55,0,360
1,53,0,0
1,48,0,0
1,57,84,0
1,60,84,0
1,65,84,0
1,65,0,180
1,41,0,0
1,57,0,0
1,60,0,0
1,43,84,0
1,59,84,0
1,62,84,0
1,67,84,0
1,67,0,180
1,43,0,0
1,59,0,0
1,62,0,0
1,38,84,0
1,53,84,0
1,57,84,0
1,65,84,60
1,65,0,59
1,65,84,1
1,65,0,59
1,65,84,1
1,65,0,59
1,64,84,1
1,64,0,59
1,62,84,1
1,62,0,59
1,57,0,1
1,53,0,0
1,53,84,0
1,57,84,0
1,65,84,60
1,65,0,59
1,65,84,1
1,65,0,59
1,65,84,1
1,65,0,59
1,64,84,1
1,64,0,59
1,62,84,1
1,62,0,59
1,38,0,1
1,53,0,0
1,57,0,0
1,41,84,0
1,57,84,0
1,60,84,0
1,65,84,60
1,65,0,59
1,65,84,1
1,65,0,59
1,65,84,1
1,65,0,59
1,64,84,1
1,64,0,59
1,62,84,1
1,62,0,59
1,60,0,1
1,57,0,0
1,57,84,0
1,60,84,0
1,65,84,60
1,65,0,59
1,65,84,1
1,65,0,59
1,65,84,1
1,65,0,59
1,64,84,1
1,64,0,59
1,62,84,1
1,62,0,59
1,41,0,1
1,57,0,0
1,60,0,0
1,48,84,0
1,52,84,0
1,55,84,0
1,64,84,60
1,64,0,59
1,64,84,1
1,64,0,59
1,64,84,1
1,64,0,59
1,62,84,1
1,62,0,59
1,60,84,1
1,60,0,59
1,55,0,1
1,52,0,0
1,52,84,0
1,55,84,0
1,64,84,60
1,64,0,59
1,64,84,1
1,64,0,59
1,64,84,1
1,64,0,59
1,62,84,1
1,62,0,59
1,60,84,1
1,60,0,59
1,48,0,1
1,52,0,0
1,55,0,0
1,45,84,0
1,52,84,0
1,57,84,0
1,64,84,60
1,64,0,59
1,64,84,1
1,64,0,59
1,64,84,1
1,64,0,59
1,62,84,1
1,62,0,59
1,60,84,1
1,60,0,59
1,45,0,1
1,52,0,0
1,57,0,0
1,45,84,0
1,53,84,0
1,57,84,0
1,64,84,60
1,64,0,59
1,64,84,1
1,64,0,59
1,64,84,1
1,64,0,59
1,65,84,1
1,65,0,59
1,67,84,1
1,67,0,59
1,45,0,1
1,53,0,0
1,57,0,0
1,41,120,0
1,72,84,0
1,77,84,0
1,81,84,0
1,41,0,30
1,48,120,30
1,48,0,30
1,81,0,29
1,53,120,1
1,69,84,0
1,69,0,119
1,71,84,1
1,71,0,59
1,72,84,1
1,72,0,59
1,72,0,1
1,77,0,0
1,53,0,0
1,43,120,0
1,67,84,0
1,71,84,0
1,74,84,0
1,71,0,120
1,67,0,0
1,62,84,0
1,74,0,59
1,62,0,1
1,67,84,0
1,71,84,0
1,71,0,29
1,67,0,0
1,62,84,1
1,62,0,29
1,69,84,1
1,72,84,0
1,72,0,59
1,69,0,0
1,71,84,1
1,74,84,0
1,74,0,59
1,71,0,0
1,43,0,1
1,48,120,0
1,72,84,0
1,76,84,0
1,79,84,0
1,48,0,60
1,43,120,0
1,79,0,59
1,43,0,1
1,48,120,0
1,67,84,0
1,67,0,119
1,69,84,1
1,69,0,59
1,71,84,1
1,71,0,59
1,72,0,1
1,76,0,0
1,48,0,0
1,41,120,0
1,65,84,0
1,69,84,0
1,72,84,0
1,72,0,179
1,72,84,1
1,72,0,59
1,71,84,1
1,71,0,59
1,69,84,1
1,69,0,59
1,69,0,1
1,65,0,0
1,41,0,0
1,38,120,0
1,69,84,0
1,74,84,0
1,77,84,0
1,38,0,60
1,45,120,0
1,77,0,59
1,45,0,1
1,50,120,0
1,65,84,0
1,65,0,119
1,67,84,1
1,67,0,59
1,69,84,1
1,69,0,59
1,69,0,1
1,74,0,0
1,50,0,0
1,43,120,0
1,62,84,0
1,67,84,0
1,71,84,0
1,71,0,119
1,67,0,0
1,62,0,0
1,62,84,1
1,62,0,60
1,71,84,0
1,67,84,0
1,67,0,30
1,71,0,0
1,62,84,0
1,62,0,30
1,69,84,0
1,72,84,0
1,72,0,60
1,69,0,0
1,71,84,0
1,74,84,0
1,74,0,60
1,71,0,0
1,43,0,0
1,40,120,0
1,68,84,0
1,71,84,0
1,76,84,0
1,76,0,180
1,71,0,0
1,68,0,0
1,68,84,0
1,71,84,0
1,71,0,60
1,68,0,0
1,64,84,0
1,64,0,60
1,64,84,0
1,64,0,60
1,68,84,0
1,64,84,0
1,72,84,0
1,72,0,180
1,64,0,0
1,68,0,0
1,68,84,0
1,64,84,0
1,71,84,0
1,71,0,180
1,40,0,0
1,68,0,0
1,64,0,0
1,41,120,0
1,41,84,0
1,72,84,0
1,77,84,0
1,81,84,0
1,81,0,119
1,69,84,1
1,69,0,119
1,71,84,1
1,71,0,59
1,72,84,1
1,72,0,59
1,77,0,1
1,72,0,0
1,41,0,0
1,43,120,0
1,67,84,0
1,71,84,0
1,74,84,0
1,71,0,120
1,67,0,0
1,62,84,0
1,74,0,59
1,62,0,1
1,67,84,0
1,71,84,0
1,71,0,29
1,67,0,0
1,62,84,1
1,62,0,29
1,69,84,1
1,72,84,0
1,72,0,59
1,69,0,0
1,71,84,1
1,74,84,0
1,74,0,59
1,71,0,0
1,43,0,1
1,41,0,0
1,48,120,0
1,72,84,0
1,76,84,0
1,79,84,0
1,79,0,119
1,67,84,1
1,67,0,119
1,69,84,1
1,69,0,59
1,71,84,1
1,71,0,59
1,76,0,1
1,72,0,0
1,48,0,0
1,41,120,0
1,65,84,0
1,69,84,0
1,72,84,0
1,72,0,179
1,72,84,1
1,72,0,59
1,71,84,1
1,71,0,59
1,69,84,1
1,69,0,59
1,69,0,1
1,65,0,0
1,41,0,0
1,38,120,0
1,69,84,0
1,74,84,0
1,77,84,0
1,77,0,119
1,65,84,1
1,65,0,119
1,67,84,1
1,67,0,59
1,69,84,1
1,69,0,59
1,74,0,1
1,69,0,0
1,38,0,0
1,43,120,0
1,62,84,0
1,67,84,0
1,71,84,0
1,71,0,119
1,67,0,0
1,62,0,0
1,62,84,1
1,62,0,60
1,71,84,0
1,67,84,0
1,67,0,60
1,71,0,0
1,69,84,0
1,72,84,0
1,72,0,60
1,69,0,0
1,71,84,0
1,67,84,0
1,67,0,60
1,71,0,0
1,43,0,0
1,40,120,0
1,64,84,0
1,68,84,0
1,71,84,0
1,71,0,180
1,68,0,0
1,64,0,0
1,68,84,0
1,71,84,0
1,71,0,60
1,68,0,0
1,64,84,0
1,64,0,60
1,64,84,0
1,64,0,60
1,68,84,0
1,64,84,0
1,72,84,0
1,72,0,180
1,64,0,0
1,68,0,0
1,68,84,0
1,64,84,0
1,71,84,0
1,71,0,180
1,40,0,0
1,68,0,0
1,64,0,0
1,71,120,0
1,45,120,0
1,45,0,30
1,57,120,0
1,57,0,60
1,45,120,0
1,45,0,30
1,57,120,0
1,57,0,60
1,71,0,0
1,69,120,0
1,45,120,60
1,45,0,60
1,69,0,0
1,72,120,0
1,45,120,0
1,45,0,60
1,72,0,0
1,71,120,0
1,45,120,0
1,45,0,30
1,57,120,0
1,57,0,60
1,45,120,0
1,45,0,30
1,71,0,0
1,69,120,0
1,57,120,0
1,57,0,60
1,69,0,0
1,72,120,0
1,45,120,60
1,45,0,60
1,72,0,0
1,71,120,0
1,45,120,0
1,45,0,60
1,71,0,0
1,41,120,0
1,69,120,0
1,41,0,30
1,53,120,0
1,53,0,60
1,41,120,0
1,41,0,30
1,69,0,0
1,53,120,0
1,72,120,0
1,72,0,60
1,53,0,0
1,71,120,0
1,41,120,60
1,41,0,60
1,71,0,0
1,41,120,0
1,69,120,0
1,69,0,60
1,41,0,0
1,41,120,0
1,72,120,0
1,41,0,30
1,53,120,0
1,53,0,60
1,41,120,0
1,41,0,30
1,72,0,0
1,53,120,0
1,71,120,0
1,71,0,60
1,53,0,0
1,69,120,0
1,43,120,60
1,43,0,60
1,69,0,0
1,43,120,0
1,72,120,0
1,72,0,60
1,43,0,0
1,71,120,0
1,45,120,0
1,45,0,30
1,57,120,0
1,57,0,60
1,45,120,0
1,45,0,30
1,71,0,0
1,69,120,0
1,57,120,0
1,57,0,60
1,69,0,0
1,72,120,0
1,45,120,60
1,45,0,60
1,72,0,0
1,71,120,0
1,45,120,0
1,45,0,60
1,71,0,0
1,69,120,0
1,45,120,0
1,45,0,30
1,57,120,0
1,57,0,60
1,45,120,0
1,45,0,30
1,69,0,0
1,72,120,0
1,57,120,0
1,57,0,60
1,72,0,0
1,71,120,0
1,45,120,60
1,45,0,60
1,71,0,0
1,69,120,0
1,45,120,0
1,45,0,60
1,69,0,0
1,72,120,0
1,41,120,0
1,41,0,30
1,53,120,0
1,53,0,60
1,41,120,0
1,41,0,30
1,72,0,0
1,71,120,0
1,53,120,0
1,53,0,60
1,71,0,0
1,69,120,0
1,41,120,60
1,41,0,60
1,69,0,0
1,72,120,0
1,41,120,0
1,41,0,60
1,72,0,0
1,71,120,0
1,41,120,0
1,41,0,30
1,53,120,0
1,53,0,60
1,41,120,0
1,41,0,30
1,71,0,0
1,69,120,0
1,53,120,0
1,53,0,60
1,69,0,0
1,67,120,0
1,43,120,60
1,43,0,60
1,67,0,0
1,65,120,0
1,43,120,0
1,43,0,60
1,65,0,0
1,93,120,5827
1,93,0,37
1,93,120,17
1,93,0,55
1,93,120,65
1,93,0,40
1,93,120,25
1,93,0,40
1,93,120,76
1,93,0,37
1,93,120,21
1,93,0,47
1,93,120,73
1,93,0,40
1,93,120,27
1,93,0,40
1,93,120,80
1,93,0,29
1,93,120,32
1,93,0,38
1,93,120,73
1,93,0,36
1,93,120,25
1,93,0,42
1,93,120,82
1,93,0,36
1,93,120,27
1,93,0,42
1,93,120,71
1,93,0,40
1,93,120,21
1,93,0,51
1,93,120,75
1,93,0,37
1,93,120,17
1,93,0,55
1,93,120,65
1,93,0,40
1,93,120,25
1,93,0,40
1,93,120,76
1,93,0,37
1,93,120,21
1,93,0,47
1,93,120,73
1,93,0,40
1,93,120,27
1,93,0,40
1,93,120,80
1,93,0,29
1,93,120,32
1,93,0,38
1,93,120,73
1,93,0,36
1,93,120,25
1,93,0,42
1,93,120,82
1,93,0,36
1,93,120,27
1,93,0,42
1,93,120,71
1,93,0,40
1,93,120,21
1,93,0,51
1,93,120,47
1,93,0,14
1,93,120,1
1,93,0,6
1,93,120,21
1,93,0,11
1,93,120,25
1,93,0,6
1,93,120,22
1,93,0,37
1,93,120,10
1,93,0,47
1,93,120,10
1,93,0,40
1,93,120,27
1,93,0,27
1,93,120,57
1,93,0,6
1,93,120,32
1,93,0,26
1,93,120,24
1,93,0,20
1,93,120,5
1,93,0,7
1,93,120,29
1,93,0,36
1,93,120,27
1,93,0,34
1,93,120,35
1,93,0,35
1,93,120,21
1,93,0,37
1,93,120,32
1,93,0,37
1,93,120,16
1,93,0,31
1,93,120,36
1,93,0,40
1,93,120,11
1,93,0,40
1,93,120,7
1,93,0,37
1,93,120,21
1,93,0,22
1,93,120,15
1,93,0,40
1,93,120,12
1,93,0,40
1,93,120,2
1,93,0,1
1,93,120,32
1,93,0,31
1,93,120,73
1,93,0,36
1,93,120,25
1,93,0,42
1,93,120,82
1,93,0,36
1,93,120,27
1,93,0,42
1,93,120,71
1,93,0,40
1,93,120,21
1,93,0,51
2,76,127,1440
2,76,0,35
2,76,127,25
2,76,0,30
2,76,127,29
2,76,0,25
2,76,127,34
2,76,0,92
2,76,127,26
2,76,0,21
2,76,127,14
2,76,0,13
2,76,127,10
2,76,0,26
2,76,127,42
2,76,0,23
2,76,127,35
2,76,0,23
2,76,127,36
2,74,127,118
2,76,0,4
2,74,0,29
2,72,127,2
2,72,0,28
2,79,127,0
2,79,0,176
2,76,127,4
2,76,0,191
2,76,127,166
2,74,127,68
2,76,0,4
2,74,0,46
2,72,127,2
2,72,0,63
2,69,127,0
2,69,0,361
2,72,127,120
2,72,0,59
2,69,127,0
2,69,0,115
2,67,127,7
2,67,0,29
2,67,127,34
2,67,0,342
2,76,127,372
2,76,0,33
2,76,127,34
2,76,0,29
2,76,127,25
2,76,0,28
2,76,127,33
2,76,0,112
2,74,127,4
2,72,127,29
2,74,0,4
2,76,127,30
2,72,0,4
2,76,0,23
2,76,127,32
2,76,0,23
2,76,127,33
2,76,0,25
2,76,127,38
2,76,0,122
2,74,127,4
2,72,127,23
2,74,0,5
2,79,127,27
2,72,0,2
2,79,0,166
2,76,127,8
2,76,0,196
2,69,127,109
2,76,127,59
2,69,0,6
2,74,127,54
2,76,0,7
2,74,0,44
2,72,127,8
2,72,0,59
2,69,127,2
2,69,0,361
2,72,127,120
2,72,0,59
2,69,127,0
2,69,0,120
2,67,127,6
2,67,0,23
2,67,127,38
2,67,0,342
2,77,127,437
2,77,0,25
2,77,127,32
2,77,0,29
2,77,127,29
2,77,0,57
2,76,127,4
2,74,127,59
2,76,0,6
2,74,0,68
2,77,127,52
2,77,0,25
2,77,127,30
2,77,0,27
2,77,127,31
2,77,0,59
2,76,127,2
2,74,127,59
2,76,0,2
2,74,0,72
2,77,127,52
2,77,0,23
2,77,127,30
2,77,0,23
2,77,127,38
2,77,0,58
2,76,127,2
2,74,127,59
2,76,0,2
2,74,0,65
2,77,127,55
2,77,0,29
2,77,127,30
2,77,0,25
2,77,127,32
2,77,0,54
2,76,127,6
2,76,0,61
2,74,127,0
2,74,0,70
2,76,127,54
2,76,0,25
2,76,127,30
2,76,0,25
2,76,127,40
2,76,0,57
