track,note,velocity,time
3,59,100,1020
3,59,0,30
3,61,100,0
3,61,0,30
3,62,100,0
3,62,0,180
3,55,100,0
3,55,0,120
3,67,100,0
3,67,0,120
3,57,100,0
3,57,0,60
3,62,100,0
3,62,0,60
3,64,100,0
3,64,0,120
3,66,100,0
3,66,0,60
3,64,100,0
3,64,0,60
3,62,100,0
3,62,0,60
3,59,100,60
3,59,0,30
3,61,100,0
3,61,0,30
3,62,100,0
3,62,0,180
3,55,100,0
3,55,0,120
3,67,100,0
3,67,0,120
3,57,100,0
3,57,0,60
3,62,100,0
3,62,0,60
3,64,100,0
3,64,0,120
3,66,100,0
3,66,0,60
3,64,100,0
3,64,0,60
3,62,100,0
3,62,0,60
3,59,100,60
3,59,0,30
3,61,100,0
3,61,0,30
3,62,100,0
3,62,0,180
3,55,100,0
3,55,0,120
3,67,100,0
3,67,0,120
3,57,100,0
3,57,0,60
3,62,100,0
3,62,0,60
3,64,100,0
3,64,0,120
3,66,100,0
3,66,0,60
3,64,100,0
3,64,0,60
3,62,100,0
3,62,0,60
3,59,100,60
3,59,0,30
3,61,100,0
3,61,0,30
3,62,100,0
3,62,0,180
3,55,100,0
3,55,0,120
3,67,100,0
3,67,0,120
3,57,100,0
3,57,0,60
3,62,100,0
3,62,0,60
3,64,100,0
3,64,0,120
3,66,100,0
3,66,0,60
3,64,100,0
3,64,0,60
3,62,100,0
3,62,0,60
3,59,100,60
3,59,0,30
3,61,100,0
3,61,0,30
3,62,100,0
3,62,0,180
3,55,100,0
3,55,0,120
3,67,100,0
3,67,0,120
3,57,100,0
3,57,0,60
3,62,100,0
3,62,0,60
3,64,100,0
3,64,0,120
3,66,100,0
3,66,0,60
3,62,100,0
3,62,0,60
3,57,100,0
3,57,0,60
3,64,100,60
3,64,0,30
3,59,100,0
3,59,0,30
3,52,100,0
3,52,0,180
3,55,100,0
3,55,0,120
3,67,100,0
3,67,0,120
3,57,100,0
3,57,0,60
3,62,100,0
3,62,0,60
3,64,100,0
3,64,0,120
3,66,100,0
3,66,0,60
3,64,100,0
3,64,0,60
3,62,100,0
3,62,0,60
3,59,100,60
3,59,0,30
3,61,100,0
3,61,0,30
3,62,100,0
3,62,0,180
3,55,100,0
3,55,0,120
3,67,100,0
3,67,0,120
3,57,100,0
3,57,0,60
3,62,100,0
3,62,0,60
3,64,100,0
3,64,0,120
3,66,100,0
3,66,0,60
3,62,100,0
3,62,0,60
3,57,100,0
3,57,0,60
3,64,100,60
3,64,0,30
3,59,100,0
3,59,0,30
3,52,100,0
3,52,0,180
3,55,100,0
3,55,0,120
3,67,100,0
3,67,0,120
3,57,100,0
3,57,0,60
3,62,100,0
3,62,0,60
3,64,100,0
3,64,0,120
3,66,100,0
3,66,0,60
3,64,100,0
3,64,0,60
3,62,100,0
3,62,0,60
3,57,100,60
3,57,0,60
3,61,100,0
3,61,0,60
3,66,100,0
3,66,0,120
3,61,100,0
3,61,0,120
3,57,100,0
3,57,0,120
3,55,100,0
3,55,0,60
3,59,100,0
3,59,0,60
3,55,100,0
3,55,0,120
3,59,100,0
3,59,0,120
3,55,100,0
3,55,0,120
3,57,100,0
3,57,0,60
3,62,100,0
3,62,0,60
3,66,100,0
3,66,0,120
3,62,100,0
3,62,0,120
3,57,100,0
3,57,0,120
3,57,100,0
3,57,0,60
3,59,100,0
3,59,0,60
3,61,100,0
3,61,0,120
3,62,100,0
3,62,0,180
3,57,100,60
3,57,0,60
3,61,100,0
3,61,0,60
3,66,100,0
3,66,0,120
3,61,100,0
3,61,0,120
3,57,100,0
3,57,0,120
3,55,100,0
3,55,0,60
3,59,100,0
3,59,0,60
3,67,100,0
3,67,0,120
3,59,100,0
3,59,0,120
3,55,100,0
3,55,0,120
3,57,100,0
3,57,0,60
3,62,100,0
3,62,0,60
3,66,100,0
3,66,0,120
3,62,100,0
3,62,0,120
3,57,100,0
3,57,0,120
3,57,100,0
3,57,0,60
3,59,100,0
3,59,0,60
3,61,100,0
3,61,0,120
3,66,100,0
3,66,0,60
3,64,100,0
3,64,0,60
3,62,100,0
3,62,0,60
3,59,100,7740
3,59,0,30
3,61,100,0
3,61,0,30
3,62,100,0
3,62,0,180
3,55,100,0
3,55,0,120
3,67,100,0
3,67,0,120
3,57,100,0
3,57,0,60
3,62,100,0
3,62,0,60
3,64,100,0
3,64,0,120
3,66,100,0
3,66,0,60
3,64,100,0
3,64,0,60
3,62,100,0
3,62,0,60
3,59,100,60
3,59,0,30
3,61,100,0
3,61,0,30
3,62,100,0
3,62,0,180
3,55,100,0
3,55,0,120
3,67,100,0
3,67,0,120
3,57,100,0
3,57,0,60
3,62,100,0
3,62,0,60
3,64,100,0
3,64,0,120
3,66,100,0
3,66,0,60
3,64,100,0
3,64,0,60
3,62,100,0
3,62,0,60
3,59,100,60
3,59,0,30
3,61,100,0
3,61,0,30
3,62,100,0
3,62,0,180
3,55,100,0
3,55,0,120
3,67,100,0
3,67,0,120
3,57,100,0
3,57,0,60
3,62,100,0
3,62,0,60
3,64,100,0
3,64,0,120
3,66,100,0
3,66,0,60
3,62,100,0
3,62,0,60
3,57,100,0
3,57,0,60
3,64,100,60
3,64,0,30
3,59,100,0
3,59,0,30
3,52,100,0
3,52,0,180
3,55,100,0
3,55,0,120
3,67,100,0
3,67,0,120
3,57,100,0
3,57,0,60
3,62,100,0
3,62,0,60
3,64,100,0
3,64,0,120
3,66,100,0
3,66,0,60
3,64,100,0
3,64,0,60
3,62,100,0
3,62,0,60
3,59,100,60
3,59,0,30
3,61,100,0
3,61,0,30
3,62,100,0
3,62,0,180
3,55,100,0
3,55,0,120
3,67,100,0
3,67,0,120
3,57,100,0
3,57,0,60
3,62,100,0
3,62,0,60
3,64,100,0
3,64,0,120
3,66,100,0
3,66,0,60
3,62,100,0
3,62,0,60
3,57,100,0
3,57,0,60
3,64,100,60
3,64,0,30
3,59,100,0
3,59,0,30
3,52,100,0
3,52,0,180
3,55,100,0
3,55,0,120
3,67,100,0
3,67,0,120
3,57,100,0
3,57,0,60
3,62,100,0
3,62,0,60
3,64,100,0
3,64,0,120
3,66,100,0
3,66,0,60
3,64,100,0
3,64,0,60
3,62,100,0
3,62,0,60
3,57,100,60
3,57,0,60
3,61,100,0
3,61,0,60
3,66,100,0
3,66,0,120
3,61,100,0
3,61,0,120
3,57,100,0
3,57,0,120
3,55,100,0
3,55,0,60
3,59,100,0
3,59,0,60
3,55,100,0
3,55,0,120
3,59,100,0
3,59,0,120
3,55,100,0
3,55,0,120
3,57,100,0
3,57,0,60
3,62,100,0
3,62,0,60
3,66,100,0
3,66,0,120
3,62,100,0
3,62,0,120
3,57,100,0
3,57,0,120
3,57,100,0
3,57,0,60
3,59,100,0
3,59,0,60
3,61,100,0
3,61,0,120
3,62,100,0
3,62,0,180
3,57,100,60
3,57,0,60
3,61,100,0
3,61,0,60
3,66,100,0
3,66,0,120
3,61,100,0
3,61,0,120
3,57,100,0
3,57,0,120
3,55,100,0
3,55,0,60
3,59,100,0
3,59,0,60
3,67,100,0
3,67,0,120
3,59,100,0
3,59,0,120
3,55,100,0
3,55,0,120
3,57,100,0
3,57,0,60
3,62,100,0
3,62,0,60
3,66,100,0
3,66,0,120
3,62,100,0
3,62,0,120
3,57,100,0
3,57,0,120
3,57,100,0
3,57,0,60
3,59,100,0
3,59,0,60
3,61,100,0
3,61,0,120
3,66,100,0
3,66,0,60
3,64,100,0
3,64,0,60
3,62,100,0
3,62,0,60
3,57,100,11580
3,57,0,60
3,61,100,0
3,61,0,60
3,66,100,0
3,66,0,120
3,61,100,0
3,61,0,120
3,57,100,0
3,57,0,120
3,55,100,0
3,55,0,60
3,59,100,0
3,59,0,60
3,55,100,0
3,55,0,120
3,59,100,0
3,59,0,120
3,55,100,0
3,55,0,120
3,57,100,0
3,57,0,60
3,62,100,0
3,62,0,60
3,66,100,0
3,66,0,120
3,62,100,0
3,62,0,120
3,57,100,0
3,57,0,120
3,57,100,0
3,57,0,60
3,59,100,0
3,59,0,60
3,61,100,0
3,61,0,120
3,62,100,0
3,62,0,180
3,57,100,60
3,57,0,60
3,61,100,0
3,61,0,60
3,66,100,0
3,66,0,120
3,61,100,0
3,61,0,120
3,57,100,0
3,57,0,120
3,55,100,0
3,55,0,60
3,59,100,0
3,59,0,60
3,67,100,0
3,67,0,120
3,59,100,0
3,59,0,120
3,55,100,0
3,55,0,120
3,57,100,0
3,57,0,60
3,62,100,0
3,62,0,60
3,66,100,0
3,66,0,120
3,62,100,0
3,62,0,120
3,57,100,0
3,57,0,120
3,57,100,0
3,57,0,60
3,59,100,0
3,59,0,60
3,61,100,0
3,61,0,120
3,66,100,0
3,66,0,60
3,64,100,0
3,64,0,60
3,62,100,0
3,62,0,60
4,54,100,960
4,54,0,180
4,43,100,0
4,43,0,270
4,50,100,30
4,50,0,480
4,54,100,0
4,54,0,180
4,43,100,0
4,43,0,270
4,50,100,30
4,50,0,480
4,54,100,0
4,54,0,180
4,43,100,0
4,43,0,270
4,50,100,30
4,50,0,480
4,54,100,0
4,54,0,180
4,43,100,0
4,43,0,270
4,50,100,30
4,50,0,480
4,54,100,0
4,54,0,180
4,43,100,0
4,43,0,270
4,50,100,30
4,50,0,480
4,55,100,0
4,55,0,180
4,43,100,0
4,43,0,270
4,50,100,30
4,50,0,480
4,54,100,0
4,54,0,180
4,43,100,0
4,43,0,270
4,50,100,30
4,50,0,480
4,55,100,0
4,55,0,180
4,43,100,0
4,43,0,270
4,50,100,30
4,50,0,480
4,54,100,0
4,54,0,480
4,43,100,0
4,43,0,480
4,50,100,0
4,50,0,480
4,45,100,0
4,45,0,420
4,52,100,0
4,52,0,60
4,54,100,0
4,54,0,480
4,43,100,0
4,43,0,480
4,50,100,0
4,50,0,480
4,45,100,0
4,45,0,480
4,54,100,7680
4,54,0,180
4,43,100,0
4,43,0,270
4,50,100,30
4,50,0,480
4,54,100,0
4,54,0,180
4,43,100,0
4,43,0,270
4,50,100,30
4,50,0,480
4,54,100,0
4,54,0,180
4,43,100,0
4,43,0,270
4,50,100,30
4,50,0,480
4,55,100,0
4,55,0,180
4,43,100,0
4,43,0,270
4,50,100,30
4,50,0,480
4,54,100,0
4,54,0,180
4,43,100,0
4,43,0,270
4,50,100,30
4,50,0,480
4,55,100,0
4,55,0,180
4,43,100,0
4,43,0,270
4,50,100,30
4,50,0,480
4,54,100,0
4,54,0,480
4,43,100,0
4,43,0,480
4,50,100,0
4,50,0,480
4,45,100,0
4,45,0,420
4,52,100,0
4,52,0,60
4,54,100,0
4,54,0,480
4,43,100,0
4,43,0,480
4,50,100,0
4,50,0,480
4,45,100,0
4,45,0,480
4,54,100,11520
4,54,0,480
4,43,100,0
4,43,0,480
4,50,100,0
4,50,0,480
4,45,100,0
4,45,0,420
4,52,100,0
4,52,0,60
4,54,100,0
4,54,0,480
4,43,100,0
4,43,0,480
4,50,100,0
4,50,0,480
4,45,100,0
4,45,0,480
5,57,100,10130
5,57,0,46
5,59,100,14
5,59,0,39
5,61,100,21
5,61,0,56
5,66,100,64
5,66,0,51
5,64,100,9
5,64,0,42
5,62,100,18
5,62,0,62
5,74,84,1918
5,74,0,29
5,69,84,1
5,69,0,29
5,65,84,1
5,65,0,29
5,62,84,1
5,62,0,29
5,69,84,1
5,69,0,29
5,65,84,1
5,65,0,29
5,62,84,1
5,62,0,29
5,57,84,1
5,57,0,29
5,65,84,1
5,65,0,29
5,62,84,1
5,62,0,29
5,57,84,1
5,57,0,29
5,53,84,1
5,53,0,29
5,62,84,1
5,62,0,29
5,57,84,1
5,57,0,29
5,53,84,1
5,53,0,29
5,50,84,1
5,50,0,29
5,79,84,1
5,79,0,29
5,74,84,1
5,74,0,29
5,70,84,1
5,70,0,29
5,67,84,1
5,67,0,29
5,74,84,1
5,74,0,29
5,70,84,1
5,70,0,29
5,67,84,1
5,67,0,29
5,62,84,1
5,62,0,29
5,70,84,1
5,70,0,29
5,67,84,1
5,67,0,29
5,62,84,1
5,62,0,29
5,58,84,1
5,58,0,29
5,62,84,1
5,62,0,29
5,58,84,1
5,58,0,29
5,55,84,1
5,55,0,29
5,50,83,1
5,50,0,29
5,70,83,1
5,70,0,29
5,67,83,1
5,67,0,29
5,62,83,1
5,62,0,29
5,58,82,1
5,58,0,29
5,67,82,1
5,67,0,29
5,62,82,1
5,62,0,29
5,58,82,1
5,58,0,29
5,55,82,1
5,55,0,29
5,62,82,1
5,62,0,29
5,58,82,1
5,58,0,29
5,55,82,1
5,55,0,29
5,50,82,1
5,50,0,29
5,58,82,1
5,58,0,29
5,55,82,1
5,55,0,29
5,50,82,1
5,50,0,29
5,46,81,1
5,46,0,29
5,69,81,1
5,69,0,29
5,64,81,1
5,64,0,29
5,60,81,1
5,60,0,29
5,57,81,1
5,57,0,29
5,64,81,1
5,64,0,29
5,60,81,1
5,60,0,29
5,57,80,1
5,57,0,29
5,52,80,1
5,52,0,29
5,60,80,1
5,60,0,29
5,57,80,1
5,57,0,29
5,52,80,1
5,52,0,29
5,48,80,1
5,48,0,29
5,57,80,1
5,57,0,29
5,52,79,1
5,52,0,29
5,48,79,1
5,48,0,29
5,45,83,1
5,45,0,29
5,72,83,1
5,72,0,29
5,67,83,1
5,67,0,29
5,64,83,1
5,64,0,29
5,60,83,1
5,60,0,29
5,67,82,1
5,67,0,29
5,64,82,1
5,64,0,29
5,60,82,1
5,60,0,29
5,55,82,1
5,55,0,29
5,60,82,1
5,60,0,29
5,55,82,1
5,55,0,29
5,52,82,1
5,52,0,29
5,48,82,1
5,48,0,29
5,55,82,1
5,55,0,29
5,52,82,1
5,52,0,29
5,48,82,1
5,48,0,29
5,43,82,1
5,43,0,29
5,72,82,1
5,72,0,29
5,67,82,1
5,67,0,29
5,64,82,1
5,64,0,29
5,60,82,1
5,60,0,29
5,67,82,1
5,67,0,29
5,64,82,1
5,64,0,29
5,60,82,1
5,60,0,29
5,55,82,1
5,55,0,29
5,60,82,1
5,60,0,29
5,55,82,1
5,55,0,29
5,52,82,1
5,52,0,29
5,48,82,1
5,48,0,29
5,55,82,1
5,55,0,29
5,52,82,1
5,52,0,29
5,48,82,1
5,48,0,29
5,43,81,1
5,43,0,29
5,69,81,1
5,69,0,29
5,64,81,1
5,64,0,29
5,60,81,1
5,60,0,29
5,57,81,1
5,57,0,29
5,64,81,1
5,64,0,29
5,60,81,1
5,60,0,29
5,57,81,1
5,57,0,29
5,52,81,1
5,52,0,29
5,60,81,1
5,60,0,29
5,57,81,1
5,57,0,29
5,52,81,1
5,52,0,29
5,48,81,1
5,48,0,29
5,57,81,1
5,57,0,29
5,52,81,1
5,52,0,29
5,48,81,1
5,48,0,29
5,45,81,1
5,45,0,29
5,74,81,1
5,74,0,29
5,69,81,1
5,69,0,29
5,65,81,1
5,65,0,29
5,62,81,1
5,62,0,29
5,69,80,1
5,69,0,29
5,65,80,1
5,65,0,29
5,62,80,1
5,62,0,29
5,57,80,1
5,57,0,29
5,65,80,1
5,65,0,29
5,62,80,1
5,62,0,29
5,57,80,1
5,57,0,29
5,53,80,1
5,53,0,29
5,62,80,1
5,62,0,29
5,57,80,1
5,57,0,29
5,53,80,1
5,53,0,29
5,50,78,1
5,50,0,29
5,70,78,1
5,70,0,29
5,65,79,1
5,65,0,29
5,62,79,1
5,62,0,29
5,58,79,1
5,58,0,29
5,65,80,1
5,65,0,29
5,62,80,1
5,62,0,29
5,58,80,1
5,58,0,29
5,53,80,1
5,53,0,29
5,62,80,1
5,62,0,29
5,58,81,1
5,58,0,29
5,53,81,1
5,53,0,29
5,50,81,1
5,50,0,29
5,58,81,1
5,58,0,29
5,53,81,1
5,53,0,29
5,50,81,1
5,50,0,29
5,46,81,1
5,46,0,29
5,72,81,1
5,72,0,29
5,67,81,1
5,67,0,29
5,64,81,1
5,64,0,29
5,60,80,1
5,60,0,29
5,67,80,1
5,67,0,29
5,64,80,1
5,64,0,29
5,60,80,1
5,60,0,29
