track,note,velocity,time
0,39,127,0
0,75,39,1146
0,63,80,384
0,39,0,1128
0,75,0,0
0,35,127,24
0,66,80,0
0,78,39,0
0,63,0,120
0,75,39,174
0,63,80,8
0,78,0,96
0,66,0,34
0,75,0,1086
0,80,39,18
0,56,80,290
0,78,39,94
0,63,0,46
0,80,0,92
0,50,127,54
0,50,0,64
0,54,80,8
0,50,127,24
0,50,0,64
0,47,127,32
0,77,39,0
0,56,0,2
0,47,0,62
0,47,127,32
0,78,0,48
0,47,0,16
0,53,80,8
0,45,127,24
0,54,0,58
0,45,0,6
0,45,127,32
0,45,0,64
0,43,127,32
0,73,39,0
0,49,80,48
0,43,0,16
0,43,127,32
0,53,0,36
0,77,0,12
0,43,0,16
0,41,127,32
0,41,0,64
0,51,80,8
0,41,127,24
0,49,0,22
0,41,0,42
0,35,0,8
0,39,127,24
0,75,39,0
0,73,0,120
0,51,0,1080
0,82,39,192
0,75,0,264
0,56,80,264
0,85,39,152
0,82,0,16
0,56,0,240
0,87,39,186
0,61,80,6
0,85,0,6
0,75,80,262
0,85,39,24
0,61,0,14
0,87,0,22
0,39,0,200
0,35,127,24
0,81,39,32
0,85,0,24
0,69,80,22
0,75,0,40
0,80,39,84
0,81,0,18
0,68,80,110
0,69,0,44
0,78,39,10
0,80,0,28
0,66,80,124
0,68,0,32
0,106,20,372
0,109,20,454
0,106,0,98
0,66,0,150
0,105,20,196
0,109,0,106
0,104,20,186
0,105,0,54
0,102,20,120
0,104,0,140
0,78,0,244
0,35,0,360
0,102,0,0
0,39,127,24
0,42,127,0
0,39,127,0
0,75,102,4
0,75,0,56
0,42,0,20
0,39,0,0
0,46,127,112
0,39,76,0
0,75,102,4
0,75,0,48
0,46,0,28
0,39,0,0
0,39,64,16
0,75,102,2
0,75,0,50
0,39,0,28
0,78,102,16
0,42,127,0
0,39,96,0
0,78,0,48
0,42,0,32
0,39,0,0
0,51,64,16
0,51,0,80
0,75,102,14
0,46,127,2
0,39,96,0
0,75,0,40
0,46,0,40
0,39,0,0
0,42,127,112
0,39,54,0
0,42,0,80
0,39,0,0
0,46,127,112
0,39,107,0
0,75,102,4
0,75,0,58
0,46,0,18
0,39,0,0
0,39,85,16
0,39,0,80
0,82,102,16
0,42,127,0
0,51,64,0
0,82,0,68
0,42,0,12
0,51,0,0
0,51,18,16
0,51,0,80
0,75,102,8
0,46,127,8
0,39,102,0
0,75,0,38
0,46,0,42
0,39,0,0
0,39,0,88
0,34,127,24
0,42,127,0
0,34,127,0
0,73,102,4
0,73,0,56
0,42,0,20
0,34,0,0
0,46,127,112
0,34,76,0
0,73,102,4
0,73,0,48
0,46,0,28
0,34,0,0
0,34,64,16
0,73,102,2
0,73,0,50
0,34,0,28
0,77,102,16
0,42,127,0
0,34,96,0
0,77,0,48
0,42,0,32
0,34,0,0
0,46,64,16
0,46,0,80
0,73,102,14
0,46,127,2
0,34,96,0
0,73,0,40
0,46,0,40
0,34,0,0
0,42,127,112
0,34,54,0
0,42,0,80
0,34,0,0
0,46,127,112
0,34,107,0
0,73,102,4
0,73,0,58
0,46,0,18
0,34,0,0
0,34,84,16
0,34,0,80
0,80,102,16
0,42,127,0
0,46,64,0
0,80,0,68
0,42,0,12
0,46,0,0
0,46,18,16
0,46,0,80
0,73,102,8
0,46,127,8
0,34,102,0
0,73,0,38
0,46,0,42
0,34,0,0
0,34,0,88
0,37,125,24
0,42,127,0
0,37,127,0
0,73,102,4
0,73,0,56
0,42,0,20
0,37,0,0
0,46,127,112
0,37,76,0
0,73,102,4
0,73,0,48
0,46,0,28
0,37,0,0
0,37,64,16
0,73,102,2
0,73,0,50
0,37,0,28
0,77,102,16
0,42,127,0
0,37,96,0
0,77,0,48
0,42,0,32
0,37,0,0
0,49,64,16
0,49,0,80
0,73,102,14
0,46,127,2
0,37,96,0
0,73,0,40
0,46,0,40
0,37,0,0
0,42,127,112
0,37,54,0
0,42,0,80
0,37,0,0
0,46,127,112
0,37,107,0
0,73,102,4
0,73,0,58
0,46,0,18
0,37,0,0
0,37,84,16
0,37,0,80
0,80,102,16
0,42,127,0
0,49,64,0
0,80,0,68
0,42,0,12
0,49,0,0
0,49,18,16
0,49,0,80
0,73,102,8
0,46,127,8
0,37,102,0
0,73,0,38
0,46,0,42
0,37,0,0
0,37,0,88
0,32,127,24
0,42,127,0
0,32,127,0
0,72,102,4
0,72,0,56
0,42,0,20
0,32,0,0
0,46,127,112
0,32,76,0
0,72,102,4
0,72,0,48
0,46,0,28
0,32,0,0
0,32,64,16
0,72,102,2
0,72,0,50
0,32,0,28
0,75,102,16
0,42,127,0
0,32,96,0
0,75,0,48
0,42,0,32
0,32,0,0
0,44,64,16
0,44,0,80
0,72,102,14
0,46,127,2
0,32,96,0
0,72,0,40
0,46,0,40
0,32,0,0
0,42,127,112
0,32,54,0
0,42,0,80
0,32,0,0
0,46,127,112
0,32,107,0
0,72,102,4
0,72,0,58
0,46,0,18
0,32,0,0
0,32,84,16
0,32,0,80
0,80,102,16
0,42,127,0
0,44,64,0
0,80,0,68
0,42,0,12
0,44,0,0
0,44,18,16
0,44,0,80
0,72,102,8
0,46,127,8
0,32,102,0
0,72,0,38
0,46,0,42
0,32,0,0
0,32,0,88
0,39,127,24
0,42,127,0
0,35,127,0
0,55,127,0
0,70,127,0
0,70,0,0
0,70,127,0
0,70,0,0
0,70,127,0
0,70,0,0
0,70,127,0
0,70,0,0
0,70,127,0
0,70,0,0
0,70,127,0
0,39,127,0
0,75,102,4
0,35,0,50
0,75,0,6
0,42,0,20
0,39,0,0
0,46,127,112
0,39,76,0
0,75,102,4
0,75,0,48
0,46,0,28
0,39,0,0
0,39,64,16
0,75,102,2
0,75,0,50
0,70,0,28
0,39,0,0
0,78,102,16
0,42,127,0
0,35,127,0
0,39,96,0
0,78,0,48
0,35,0,6
0,42,0,26
0,39,0,0
0,51,64,16
0,51,0,80
0,75,102,14
0,46,127,2
0,39,96,0
0,75,0,40
0,46,0,40
0,39,0,0
0,42,127,112
0,35,127,0
0,39,54,0
0,35,0,48
0,42,0,32
0,39,0,0
0,46,127,112
0,39,107,0
0,75,102,4
0,75,0,58
0,46,0,2
0,55,0,0
0,39,0,16
0,39,85,16
0,39,0,80
0,82,102,16
0,42,127,0
0,35,127,0
0,51,64,0
0,35,0,56
0,82,0,12
0,42,0,12
0,51,0,0
0,51,18,16
0,51,0,80
0,75,102,8
0,46,127,8
0,39,102,0
0,75,0,38
0,46,0,42
0,39,0,0
0,39,0,88
0,34,127,24
0,42,127,0
0,35,127,0
0,34,127,0
0,73,102,4
0,35,0,50
0,73,0,6
0,42,0,20
0,34,0,0
0,46,127,112
0,34,76,0
0,73,102,4
0,73,0,48
0,46,0,28
0,34,0,0
0,34,64,16
0,73,102,2
0,73,0,50
0,34,0,28
0,77,102,16
0,42,127,0
0,35,127,0
0,34,96,0
0,77,0,48
0,35,0,6
0,42,0,26
0,34,0,0
0,46,64,16
0,46,0,80
0,73,102,14
0,46,127,2
0,34,96,0
0,73,0,40
0,46,0,40
0,34,0,0
0,42,127,112
0,35,127,0
0,34,54,0
0,35,0,48
0,42,0,32
0,34,0,0
0,46,127,112
0,34,107,0
0,73,102,4
0,73,0,58
0,46,0,18
0,34,0,0
0,34,84,16
0,34,0,80
0,80,102,16
0,42,127,0
0,35,127,0
0,46,64,0
0,35,0,56
0,80,0,12
0,42,0,12
0,46,0,0
0,46,18,16
0,46,0,80
0,73,102,8
0,46,127,8
0,34,102,0
0,73,0,38
0,46,0,42
0,34,0,0
0,34,0,88
0,37,127,24
0,42,127,0
0,35,127,0
0,37,127,0
0,73,102,4
0,35,0,50
0,73,0,6
0,42,0,20
0,37,0,0
0,46,127,112
0,37,76,0
0,73,102,4
0,73,0,48
0,46,0,28
0,37,0,0
0,37,64,16
0,73,102,2
0,73,0,50
0,37,0,28
0,77,102,16
0,42,127,0
0,35,127,0
0,37,96,0
0,77,0,48
0,35,0,6
0,42,0,26
0,37,0,0
0,49,64,16
0,49,0,80
0,73,102,14
0,46,127,2
0,37,96,0
0,73,0,40
0,46,0,40
0,37,0,0
0,42,127,112
0,35,127,0
0,37,54,0
0,35,0,48
0,42,0,32
0,37,0,0
0,46,127,112
0,37,107,0
0,73,102,4
0,73,0,58
0,46,0,18
0,37,0,0
0,37,84,16
0,37,0,80
0,80,102,16
0,42,127,0
0,35,127,0
0,49,64,0
0,35,0,56
0,80,0,12
0,42,0,12
0,49,0,0
0,49,18,16
0,49,0,80
0,73,102,8
0,46,127,8
0,37,102,0
0,73,0,38
0,46,0,42
0,37,0,0
0,37,0,88
0,32,127,24
0,42,127,0
0,35,127,0
0,32,127,0
0,72,102,4
0,35,0,50
0,72,0,6
0,42,0,20
0,32,0,0
0,46,127,112
0,32,76,0
0,72,102,4
0,72,0,48
0,46,0,28
0,32,0,0
0,32,64,16
0,72,102,2
0,72,0,50
0,32,0,28
0,75,102,16
0,42,127,0
0,35,127,0
0,32,96,0
0,75,0,48
0,35,0,6
0,42,0,26
0,32,0,0
0,44,64,16
0,44,0,80
0,72,102,14
0,46,127,2
0,32,96,0
0,72,0,40
0,46,0,40
0,32,0,0
0,42,127,112
0,35,127,0
0,32,54,0
0,35,0,48
0,42,0,32
0,32,0,0
0,46,127,112
0,32,107,0
0,72,102,4
0,72,0,58
0,46,0,18
0,32,0,0
0,32,84,16
0,32,0,80
0,80,102,16
0,42,127,0
0,40,127,0
0,40,0,0
0,35,127,0
0,40,127,0
0,44,64,0
0,35,0,56
0,80,0,12
0,40,0,2
0,42,0,10
0,44,0,0
0,44,18,16
0,44,0,80
0,72,102,8
0,46,127,8
0,32,102,0
0,72,0,38
0,46,0,42
0,32,0,0
0,40,127,16
0,40,0,0
0,40,127,0
0,40,0,62
0,32,0,10
0,39,127,24
0,42,127,0
0,35,127,0
0,55,127,0
0,39,127,0
0,75,102,4
0,55,0,44
0,35,0,6
0,75,0,6
0,42,0,20
0,39,0,0
0,46,127,112
0,39,76,0
0,75,102,4
0,75,0,48
0,46,0,28
0,39,0,0
0,39,64,16
0,75,102,2
0,75,0,50
0,39,0,28
0,63,127,9
0,78,102,7
0,42,127,0
0,40,127,0
0,35,127,0
0,39,96,0
0,78,0,34
0,35,0,6
0,40,0,10
0,42,0,16
0,39,0,0
0,63,0,13
0,51,64,3
0,63,127,0
0,51,0,7
0,75,102,14
0,46,127,2
0,39,96,0
0,75,0,40
0,63,0,35
0,46,0,5
0,39,0,0
0,63,127,0
0,42,127,0
0,35,127,0
0,39,54,0
0,35,0,48
0,42,0,32
0,39,0,0
0,46,127,112
0,39,107,0
0,75,102,4
0,75,0,58
0,46,0,18
0,39,0,0
0,39,85,16
0,39,0,80
0,63,0,15
0,82,102,0
0,63,127,0
0,42,127,0
0,40,127,0
0,40,0,0
0,35,127,0
0,35,0,0
0,35,127,0
0,40,127,0
0,51,64,0
0,35,0,48
0,82,0,20
0,40,0,4
0,42,0,8
0,51,0,0
0,51,18,16
0,51,0,80
0,75,102,8
0,63,0,7
0,61,127,0
0,46,127,0
0,39,102,0
0,75,0,38
0,46,0,42
0,39,0,0
0,39,0,88
0,34,127,24
0,42,127,0
0,35,127,0
0,34,127,0
0,73,102,4
0,35,0,50
0,73,0,6
0,42,0,20
0,34,0,0
0,61,0,111
0,60,127,0
0,46,127,0
0,34,76,0
0,73,102,4
0,73,0,48
0,46,0,28
0,34,0,0
0,34,64,16
0,73,102,2
0,73,0,50
0,34,0,28
0,60,0,15
0,77,102,0
0,58,127,0
0,42,127,0
0,40,127,0
0,35,127,0
0,34,96,0
0,77,0,48
0,35,0,6
0,42,0,26
0,34,0,0
0,40,0,2
0,46,64,14
0,46,0,80
0,73,102,14
0,46,127,2
0,34,96,0
0,73,0,40
0,46,0,40
0,34,0,0
0,58,0,111
0,42,127,1
0,35,127,0
0,34,54,0
0,35,0,48
0,42,0,32
0,34,0,0
0,58,127,0
0,46,127,0
0,34,107,0
0,73,102,4
0,73,0,58
0,46,0,18
0,34,0,0
0,34,84,16
0,34,0,80
0,58,0,15
0,80,102,0
0,60,127,0
0,42,127,0
0,40,127,0
0,35,127,0
0,46,64,0
0,35,0,56
0,80,0,12
0,40,0,4
0,42,0,8
0,46,0,0
0,46,18,16
0,46,0,80
0,73,102,8
0,60,0,7
0,61,127,0
0,46,127,0
0,34,102,0
0,73,0,38
0,46,0,42
0,34,0,0
0,34,0,88
0,37,127,24
0,42,127,0
0,35,127,0
0,37,127,0
0,73,102,4
0,35,0,50
0,73,0,6
0,42,0,20
0,37,0,0
0,46,127,112
0,37,76,0
0,73,102,4
0,73,0,48
0,46,0,28
0,37,0,0
0,37,64,16
0,73,102,2
0,73,0,50
0,37,0,28
0,61,0,15
0,77,102,0
0,61,127,0
0,42,127,0
0,40,127,0
0,35,127,0
0,37,96,0
0,77,0,48
0,35,0,6
0,42,0,26
0,37,0,0
0,40,0,2
0,49,64,14
0,49,0,80
0,73,102,14
0,61,0,1
0,63,127,0
0,46,127,0
0,37,96,0
0,73,0,40
0,46,0,40
0,37,0,0
0,42,127,112
0,35,127,0
0,37,54,0
0,35,0,48
0,42,0,32
0,37,0,0
0,63,0,111
0,61,127,0
0,46,127,0
0,37,107,0
0,73,102,4
0,73,0,58
0,46,0,18
0,37,0,0
0,37,84,16
0,37,0,80
0,80,102,16
0,42,127,0
0,40,127,0
0,35,127,0
0,49,64,0
0,35,0,56
0,80,0,12
0,40,0,4
0,42,0,8
0,49,0,0
0,49,18,16
0,49,0,80
0,73,102,8
0,61,0,7
0,60,127,0
0,46,127,0
0,37,102,0
0,73,0,38
0,46,0,42
0,37,0,0
0,37,0,88
0,32,127,24
0,42,127,0
0,35,127,0
0,32,127,0
0,72,102,4
0,35,0,50
0,72,0,6
0,42,0,20
0,32,0,0
0,60,0,111
0,58,127,0
0,46,127,0
0,32,76,0
0,72,102,4
0,72,0,48
0,46,0,28
0,32,0,0
0,32,64,16
0,72,102,2
0,72,0,50
0,32,0,28
0,58,0,15
0,75,102,0
0,56,127,0
0,42,127,0
0,40,127,0
0,35,127,0
0,32,96,0
0,75,0,48
0,35,0,6
0,42,0,26
0,32,0,0
0,40,0,2
0,44,64,14
0,44,0,80
0,72,102,14
0,46,127,2
0,32,96,0
0,72,0,40
0,46,0,40
0,32,0,0
0,56,0,111
0,42,127,1
0,35,127,0
0,32,54,0
0,35,0,48
0,42,0,32
0,32,0,0
0,60,127,112
0,46,127,0
0,32,107,0
0,72,102,4
0,72,0,58
0,46,0,18
0,32,0,0
0,32,84,16
0,32,0,80
0,60,0,0
0,56,127,0
0,80,102,1
0,42,127,0
0,40,127,0
0,35,127,0
0,44,64,0
0,40,0,14
0,35,0,42
0,80,0,12
0,42,0,12
0,44,0,0
0,44,18,16
0,56,0,75
0,44,0,5
0,72,102,8
0,58,127,0
0,46,127,0
0,32,102,0
0,72,0,38
0,46,0,42
0,32,0,0
0,32,0,88
0,39,127,24
0,42,127,0
0,35,127,0
0,39,127,0
0,75,102,4
0,35,0,50
0,75,0,6
0,42,0,20
0,39,0,0
0,63,110,88
0,46,127,24
0,39,76,0
0,75,102,4
0,75,0,48
0,63,0,20
0,46,0,8
0,39,0,0
0,39,64,16
0,75,102,2
0,75,0,50
0,39,0,28
0,58,0,15
0,78,102,1
0,66,110,0
0,40,127,0
0,42,127,0
0,35,127,0
0,39,96,0
0,78,0,48
0,35,0,6
0,42,0,26
0,39,0,0
0,40,0,2
0,66,0,14
0,51,64,0
0,63,110,76
0,51,0,4
0,75,102,14
0,46,127,2
0,39,96,0
0,75,0,40
0,63,0,36
0,46,0,4
0,39,0,0
0,42,127,112
0,35,127,0
0,39,54,0
0,35,0,48
0,42,0,32
0,39,0,0
0,63,110,88
0,46,127,24
0,39,107,0
0,75,102,4
0,75,0,58
0,63,0,10
0,46,0,8
0,39,0,0
0,39,85,16
0,39,0,80
0,82,102,16
0,70,110,0
0,42,127,0
