track,note,velocity,time
1,62,112,1920
1,62,0,59
1,57,112,1
1,57,0,59
1,65,112,1
1,65,0,59
1,62,112,1
1,62,0,59
1,62,112,1
1,62,0,59
1,57,112,1
1,57,0,59
1,64,112,1
1,64,0,59
1,57,112,1
1,57,0,59
1,58,112,1
1,58,0,59
1,53,112,1
1,53,0,59
1,62,112,1
1,62,0,59
1,58,112,1
1,58,0,59
1,60,112,1
1,60,0,59
1,55,112,1
1,55,0,59
1,64,112,1
1,64,0,59
1,60,112,1
1,60,0,59
1,62,112,1
1,62,0,59
1,57,112,1
1,57,0,59
1,65,112,1
1,65,0,59
1,62,112,1
1,62,0,59
1,62,112,1
1,62,0,59
1,57,112,1
1,57,0,59
1,64,112,1
1,64,0,59
1,57,112,1
1,57,0,59
1,58,112,1
1,58,0,59
1,53,112,1
1,53,0,59
1,62,112,1
1,62,0,59
1,58,112,1
1,58,0,59
1,60,112,1
1,60,0,59
1,55,112,1
1,55,0,59
1,64,112,1
1,64,0,59
1,60,112,1
1,60,0,59
1,62,112,1
1,62,0,59
1,57,112,1
1,57,0,59
1,65,112,1
1,65,0,59
1,62,112,1
1,62,0,59
1,62,112,1
1,62,0,59
1,57,112,1
1,57,0,59
1,64,112,1
1,64,0,59
1,57,112,1
1,57,0,59
1,58,112,1
1,58,0,59
1,53,112,1
1,53,0,59
1,62,112,1
1,62,0,59
1,58,112,1
1,58,0,59
1,60,112,1
1,60,0,59
1,55,112,1
1,55,0,59
1,64,112,1
1,64,0,59
1,60,112,1
1,60,0,59
1,62,112,1
1,62,0,59
1,57,112,1
1,57,0,59
1,65,112,1
1,65,0,59
1,62,112,1
1,62,0,59
1,62,112,1
1,62,0,59
1,57,112,1
1,57,0,59
1,64,112,1
1,64,0,59
1,57,112,1
1,57,0,59
1,58,112,1
1,58,0,59
1,53,112,1
1,53,0,59
1,62,112,1
1,62,0,59
1,58,112,1
1,58,0,59
1,60,112,1
1,60,0,59
1,55,112,1
1,55,0,59
1,64,112,1
1,64,0,59
1,60,112,1
1,60,0,59
1,62,112,1
1,62,0,59
1,57,112,1
1,57,0,59
1,65,112,1
1,65,0,59
1,62,112,1
1,62,0,59
1,62,112,1
1,62,0,59
1,57,112,1
1,57,0,59
1,64,112,1
1,64,0,59
1,57,112,1
1,57,0,59
1,58,112,1
1,58,0,59
1,53,112,1
1,53,0,59
1,62,112,1
1,62,0,59
1,58,112,1
1,58,0,59
1,60,112,1
1,60,0,59
1,55,112,1
1,55,0,59
1,64,112,1
1,64,0,59
1,60,112,1
1,60,0,59
1,62,112,1
1,62,0,59
1,57,112,1
1,57,0,59
1,65,112,1
1,65,0,59
1,62,112,1
1,62,0,59
1,62,112,1
1,62,0,59
1,57,112,1
1,57,0,59
1,64,112,1
1,64,0,59
1,57,112,1
1,57,0,59
1,58,112,1
1,58,0,59
1,53,112,1
1,53,0,59
1,62,112,1
1,62,0,59
1,58,112,1
1,58,0,59
1,62,112,1
1,62,0,59
1,58,112,1
1,58,0,59
1,65,112,1
1,65,0,59
1,58,112,1
1,58,0,59
1,57,112,1
1,57,0,59
1,53,112,1
1,53,0,59
1,59,112,1
1,59,0,59
1,53,112,1
1,53,0,59
1,57,112,1
1,57,0,59
1,53,112,1
1,53,0,59
1,57,112,1
1,57,0,59
1,60,112,1
1,60,0,59
1,58,112,1
1,58,0,59
1,53,112,1
1,53,0,59
1,62,112,1
1,62,0,59
1,53,112,1
1,53,0,59
1,58,112,1
1,58,0,59
1,53,112,1
1,53,0,59
1,62,112,1
1,62,0,59
1,58,112,1
1,58,0,59
1,61,112,1
1,61,0,59
1,57,112,1
1,57,0,59
1,64,112,1
1,64,0,59
1,57,112,1
1,57,0,59
1,61,112,1
1,61,0,59
1,57,112,1
1,57,0,59
1,64,112,1
1,64,0,59
1,57,112,1
1,57,0,59
1,61,112,1
1,61,0,59
1,57,112,1
1,57,0,59
1,67,112,1
1,67,0,59
1,57,112,1
1,57,0,59
1,61,112,1
1,61,0,59
1,57,112,1
1,57,0,59
1,67,112,1
1,67,0,59
1,57,112,1
1,57,0,59
1,62,112,1
1,62,0,59
1,57,112,1
1,57,0,59
1,66,112,1
1,66,0,59
1,62,112,1
1,62,0,59
1,62,112,1
1,62,0,59
1,57,112,1
1,57,0,59
1,66,112,1
1,66,0,59
1,62,112,1
1,62,0,59
1,58,112,1
1,58,0,59
1,53,112,1
1,53,0,59
1,62,112,1
1,62,0,59
1,53,112,1
1,53,0,59
1,58,112,1
1,58,0,59
1,53,112,1
1,53,0,59
1,62,112,1
1,62,0,59
1,58,112,1
1,58,0,59
1,57,112,1
1,57,0,59
1,53,112,1
1,53,0,59
1,60,112,1
1,60,0,59
1,53,112,1
1,53,0,59
1,57,112,1
1,57,0,59
1,53,112,1
1,53,0,59
1,65,112,1
1,65,0,59
1,60,112,1
1,60,0,59
1,58,112,1
1,58,0,59
1,55,112,1
1,55,0,59
1,62,112,1
1,62,0,59
1,55,112,1
1,55,0,59
1,58,112,1
1,58,0,59
1,53,112,1
1,53,0,59
1,62,112,1
1,62,0,59
1,58,112,1
1,58,0,59
1,61,112,1
1,61,0,59
1,57,112,1
1,57,0,59
1,64,112,1
1,64,0,59
1,57,112,1
1,57,0,59
1,61,112,1
1,61,0,59
1,57,112,1
1,57,0,59
1,64,112,1
1,64,0,59
1,57,112,1
1,57,0,59
1,61,112,1
1,61,0,59
1,57,112,1
1,57,0,59
1,67,112,1
1,67,0,59
1,57,112,1
1,57,0,59
1,61,112,1
1,61,0,59
1,57,112,1
1,57,0,59
1,64,112,1
1,64,0,59
1,61,112,1
1,61,0,59
1,62,112,3841
1,62,0,59
1,57,112,1
1,57,0,59
1,65,112,1
1,65,0,59
1,62,112,1
1,62,0,59
1,62,112,1
1,62,0,59
1,57,112,1
1,57,0,59
1,64,112,1
1,64,0,59
1,57,112,1
1,57,0,59
1,58,112,1
1,58,0,59
1,53,112,1
1,53,0,59
1,62,112,1
1,62,0,59
1,58,112,1
1,58,0,59
1,60,112,1
1,60,0,59
1,55,112,1
1,55,0,59
1,64,112,1
1,64,0,59
1,60,112,1
1,60,0,59
1,62,112,1
1,62,0,59
1,57,112,1
1,57,0,59
1,65,112,1
1,65,0,59
1,62,112,1
1,62,0,59
1,62,112,1
1,62,0,59
1,57,112,1
1,57,0,59
1,64,112,1
1,64,0,59
1,57,112,1
1,57,0,59
1,58,112,1
1,58,0,59
1,53,112,1
1,53,0,59
1,62,112,1
1,62,0,59
1,58,112,1
1,58,0,59
1,60,112,1
1,60,0,59
1,55,112,1
1,55,0,59
1,64,112,1
1,64,0,59
1,60,112,1
1,60,0,59
1,62,112,1
1,62,0,59
1,57,112,1
1,57,0,59
1,65,112,1
1,65,0,59
1,62,112,1
1,62,0,59
1,62,112,1
1,62,0,59
1,57,112,1
1,57,0,59
1,64,112,1
1,64,0,59
1,57,112,1
1,57,0,59
1,58,112,1
1,58,0,59
1,53,112,1
1,53,0,59
1,62,112,1
1,62,0,59
1,58,112,1
1,58,0,59
1,60,112,1
1,60,0,59
1,55,112,1
1,55,0,59
1,64,112,1
1,64,0,59
1,60,112,1
1,60,0,59
1,62,112,1
1,62,0,59
1,57,112,1
1,57,0,59
1,65,112,1
1,65,0,59
1,62,112,1
1,62,0,59
1,62,112,1
1,62,0,59
1,57,112,1
1,57,0,59
1,64,112,1
1,64,0,59
1,57,112,1
1,57,0,59
1,58,112,1
1,58,0,59
1,53,112,1
1,53,0,59
1,62,112,1
1,62,0,59
1,58,112,1
1,58,0,59
1,62,112,1
1,62,0,59
1,58,112,1
1,58,0,59
1,65,112,1
1,65,0,59
1,58,112,1
1,58,0,59
1,57,112,1
1,57,0,59
1,53,112,1
1,53,0,59
1,59,112,1
1,59,0,59
1,53,112,1
1,53,0,59
1,57,112,1
1,57,0,59
1,53,112,1
1,53,0,59
1,57,112,1
1,57,0,59
1,60,112,1
1,60,0,59
1,58,112,1
1,58,0,59
1,53,112,1
1,53,0,59
1,62,112,1
1,62,0,59
1,53,112,1
1,53,0,59
1,58,112,1
1,58,0,59
1,53,112,1
1,53,0,59
1,62,112,1
1,62,0,59
1,58,112,1
1,58,0,59
1,61,112,1
1,61,0,59
1,57,112,1
1,57,0,59
1,64,112,1
1,64,0,59
1,57,112,1
1,57,0,59
1,61,112,1
1,61,0,59
1,57,112,1
1,57,0,59
1,64,112,1
1,64,0,59
1,57,112,1
1,57,0,59
1,61,112,1
1,61,0,59
1,57,112,1
1,57,0,59
1,67,112,1
1,67,0,59
1,57,112,1
1,57,0,59
1,61,112,1
1,61,0,59
1,57,112,1
1,57,0,59
1,67,112,1
1,67,0,59
1,57,112,1
1,57,0,59
1,62,112,1
1,62,0,59
1,57,112,1
1,57,0,59
1,66,112,1
1,66,0,59
1,62,112,1
1,62,0,59
1,62,112,1
1,62,0,59
1,57,112,1
1,57,0,59
1,66,112,1
1,66,0,59
1,62,112,1
1,62,0,59
1,58,112,1
1,58,0,59
1,53,112,1
1,53,0,59
1,62,112,1
1,62,0,59
1,53,112,1
1,53,0,59
1,58,112,1
1,58,0,59
1,53,112,1
1,53,0,59
1,62,112,1
1,62,0,59
1,58,112,1
1,58,0,59
1,57,112,1
1,57,0,59
1,53,112,1
1,53,0,59
1,60,112,1
1,60,0,59
1,53,112,1
1,53,0,59
1,57,112,1
1,57,0,59
1,53,112,1
1,53,0,59
1,65,112,1
1,65,0,59
1,60,112,1
1,60,0,59
1,58,112,1
1,58,0,59
1,55,112,1
1,55,0,59
1,62,112,1
1,62,0,59
1,55,112,1
1,55,0,59
1,58,112,1
1,58,0,59
1,53,112,1
1,53,0,59
1,62,112,1
1,62,0,59
1,58,112,1
1,58,0,59
1,61,112,1
1,61,0,59
1,57,112,1
1,57,0,59
1,64,112,1
1,64,0,59
1,57,112,1
1,57,0,59
1,61,112,1
1,61,0,59
1,57,112,1
1,57,0,59
1,64,112,1
1,64,0,59
1,57,112,1
1,57,0,59
1,61,112,1
1,61,0,59
1,57,112,1
1,57,0,59
1,67,112,1
1,67,0,59
1,57,112,1
1,57,0,59
1,61,112,1
1,61,0,59
1,57,112,1
1,57,0,59
1,64,112,1
1,64,0,59
1,61,112,1
1,61,0,59
1,62,112,7681
1,62,0,59
1,57,112,1
1,57,0,59
1,66,112,1
1,66,0,59
1,62,112,1
1,62,0,59
1,62,112,1
1,62,0,59
1,57,112,1
1,57,0,59
1,66,112,1
1,66,0,59
1,62,112,1
1,62,0,59
1,58,112,1
1,58,0,59
1,53,112,1
1,53,0,59
1,62,112,1
1,62,0,59
1,53,112,1
1,53,0,59
1,58,112,1
1,58,0,59
1,53,112,1
1,53,0,59
1,62,112,1
1,62,0,59
1,58,112,1
1,58,0,59
1,57,112,1
1,57,0,59
1,53,112,1
1,53,0,59
1,60,112,1
1,60,0,59
1,53,112,1
1,53,0,59
1,57,112,1
1,57,0,59
1,53,112,1
1,53,0,59
1,65,112,1
1,65,0,59
1,60,112,1
1,60,0,59
1,58,112,1
1,58,0,59
1,55,112,1
1,55,0,59
1,62,112,1
1,62,0,59
1,55,112,1
1,55,0,59
1,58,112,1
1,58,0,59
1,53,112,1
1,53,0,59
1,62,112,1
1,62,0,59
1,58,112,1
1,58,0,59
1,61,112,1
1,61,0,59
1,57,112,1
1,57,0,59
1,64,112,1
1,64,0,59
1,57,112,1
1,57,0,59
1,61,112,1
1,61,0,59
1,57,112,1
1,57,0,59
1,64,112,1
1,64,0,59
1,57,112,1
1,57,0,59
1,61,112,1
1,61,0,59
1,57,112,1
1,57,0,59
1,67,112,1
1,67,0,59
1,57,112,1
1,57,0,59
1,61,112,1
1,61,0,59
1,57,112,1
1,57,0,59
1,64,112,1
1,64,0,59
1,61,112,1
1,61,0,59
1,62,112,0
1,62,0,14
1,57,112,0
1,57,0,14
1,65,112,0
1,65,0,13
1,62,112,1
1,62,0,13
1,62,112,1
1,62,0,12
1,57,112,1
1,57,0,12
1,64,112,1
1,64,0,12
1,57,112,1
1,57,0,11
1,58,112,1
1,58,0,11
1,53,112,1
1,53,0,10
1,62,112,1
1,62,0,10
1,58,112,1
1,58,0,9
1,60,112,1
1,60,0,9
1,55,112,1
1,55,0,8
1,64,112,1
1,64,0,8
1,60,112,1
1,60,0,8
1,62,112,1
1,62,0,7
1,57,112,1
1,57,0,7
1,65,112,1
1,65,0,6
1,62,112,1
1,62,0,6
1,62,112,1
1,62,0,5
1,57,112,1
1,57,0,5
1,64,112,1
1,64,0,4
1,57,112,1
1,57,0,4
1,58,112,1
1,58,0,4
1,53,112,1
1,53,0,3
1,62,112,1
1,62,0,3
1,58,112,1
1,58,0,2
1,60,112,1
1,60,0,2
1,55,112,1
1,55,0,1
1,64,112,1
1,64,0,1
1,60,112,1
1,60,0,16
1,62,112,1
1,62,0,59
1,57,112,1
1,57,0,59
1,65,112,1
1,65,0,59
1,62,112,1
1,62,0,59
1,62,112,1
1,62,0,59
1,57,112,1
1,57,0,59
1,64,112,1
1,64,0,59
1,57,112,1
1,57,0,59
1,58,112,1
1,58,0,59
1,53,112,1
1,53,0,59
1,62,112,1
1,62,0,59
1,58,112,1
1,58,0,59
1,60,112,1
1,60,0,59
1,55,112,1
1,55,0,59
1,64,112,1
1,64,0,59
1,60,112,1
1,60,0,59
1,62,112,1
1,62,0,59
1,57,112,1
1,57,0,59
1,65,112,1
1,65,0,59
1,62,112,1
1,62,0,59
1,62,112,1
1,62,0,59
1,57,112,1
1,57,0,59
1,64,112,1
1,64,0,59
1,57,112,1
1,57,0,59
1,58,112,1
1,58,0,59
1,53,112,1
1,53,0,59
1,62,112,1
1,62,0,59
1,58,112,1
1,58,0,59
1,60,112,1
1,60,0,59
1,55,112,1
1,55,0,59
1,64,112,1
1,64,0,59
1,60,112,1
1,60,0,59
1,62,112,1
1,62,0,59
1,57,112,1
1,57,0,59
1,65,112,1
1,65,0,59
1,62,112,1
1,62,0,59
1,62,112,1
1,62,0,59
1,57,112,1
1,57,0,59
1,64,112,1
1,64,0,59
1,57,112,1
1,57,0,59
1,58,112,1
1,58,0,59
1,53,112,1
1,53,0,59
1,62,112,1
1,62,0,59
1,58,112,1
1,58,0,59
1,60,112,1
1,60,0,59
1,55,112,1
1,55,0,59
1,64,112,1
1,64,0,59
1,60,112,1
1,60,0,59
1,62,112,1
1,62,0,59
1,57,112,1
1,57,0,59
1,65,112,1
1,65,0,59
1,62,112,1
1,62,0,59
1,62,112,1
1,62,0,59
1,57,112,1
1,57,0,59
1,64,112,1
1,64,0,59
1,57,112,1
1,57,0,59
1,58,112,1
1,58,0,59
1,53,112,1
1,53,0,59
1,62,112,1
1,62,0,59
1,58,112,1
1,58,0,59
1,60,112,1
1,60,0,59
1,55,112,1
1,55,0,59
1,64,112,1
1,64,0,59
1,60,112,1
1,60,0,59
1,62,112,1
1,62,0,59
1,57,112,1
1,57,0,59
1,65,112,1
1,65,0,59
1,62,112,1
1,62,0,59
1,62,112,1
1,62,0,59
1,57,112,1
1,57,0,59
1,64,112,1
1,64,0,59
1,57,112,1
1,57,0,59
1,58,112,1
1,58,0,59
1,53,112,1
1,53,0,59
1,62,112,1
1,62,0,59
1,58,112,1
1,58,0,59
1,60,112,1
1,60,0,59
1,55,112,1
1,55,0,59
1,64,112,1
1,64,0,59
1,60,112,1
1,60,0,59
1,62,112,0
1,62,0,25
1,57,112,1
1,57,0,15
1,65,112,1
1,65,0,5
1,62,112,1
1,62,0,30
1,62,112,1
1,62,0,20
1,57,112,1
1,57,0,10
1,64,112,1
1,64,0,1
1,57,112,1
1,57,0,26
1,58,112,1
1,58,0,16
1,53,112,1
1,53,0,6
1,62,112,1
1,62,0,31
1,58,112,1
1,58,0,21
1,60,112,1
1,60,0,12
1,55,112,1
1,55,0,2
1,64,112,1
1,64,0,27
1,60,112,1
1,60,0,17
1,62,112,1
1,62,0,7
1,57,112,1
1,57,0,32
1,65,112,1
1,65,0,23
1,62,112,1
1,62,0,13
