track,note,velocity,time
1,65,115,26
1,62,113,2
1,57,112,0
1,69,104,138
1,74,94,24
1,76,106,88
1,77,103,56
1,76,87,50
1,65,101,224
1,58,103,0
1,62,97,2
1,70,92,126
1,74,89,46
1,76,104,50
1,77,100,54
1,76,91,44
1,65,86,242
1,56,62,6
1,59,58,10
1,62,64,8
1,71,45,122
1,74,70,38
1,76,91,64
1,77,105,48
1,74,110,46
1,75,97,48
1,76,124,48
1,57,101,0
1,67,108,2
1,61,100,12
1,69,105,432
1,73,103,0
1,81,110,0
1,67,109,0
1,76,111,4
1,57,108,2
1,45,103,0
1,49,92,2
1,62,103,284
1,57,110,76
1,65,115,6
1,81,112,130
1,74,106,60
1,86,112,2
1,88,117,54
1,76,106,6
1,89,119,34
1,77,117,4
1,88,121,44
1,76,121,2
1,65,116,186
1,62,110,2
1,58,114,0
1,82,113,100
1,86,115,60
1,74,108,0
1,88,113,56
1,76,94,8
1,89,117,40
1,77,113,6
1,88,113,54
1,76,114,2
1,65,110,182
1,56,90,2
1,59,83,4
1,62,98,6
1,83,78,92
1,86,108,54
1,74,100,2
1,88,115,48
1,76,105,4
1,89,117,58
1,77,113,6
1,74,113,26
1,86,117,4
1,76,80,22
1,87,111,68
1,75,101,4
1,67,117,62
1,85,103,0
1,57,110,0
1,76,115,2
1,88,115,2
1,83,97,2
1,61,107,2
1,93,119,378
1,85,106,0
1,79,110,2
1,81,110,2
1,57,115,2
1,88,111,0
1,45,103,2
1,49,99,0
1,50,95,254
1,38,116,90
1,69,79,56
1,74,98,58
1,57,84,10
1,65,62,2
1,62,87,0
1,76,84,56
1,77,83,4
1,45,90,6
1,73,79,70
1,67,80,0
1,76,75,8
1,61,88,58
1,55,83,2
1,64,60,2
1,38,69,208
1,40,23,6
1,69,49,42
1,65,88,34
1,57,74,2
1,62,72,8
1,74,80,0
1,76,60,86
1,61,84,48
1,77,85,0
1,65,68,0
1,67,67,8
1,73,70,6
1,55,29,2
1,76,65,60
1,67,18,2
1,73,18,18
1,57,90,8
1,45,99,2
1,38,101,192
1,50,101,0
1,69,66,100
1,53,76,30
1,62,81,2
1,74,57,0
1,65,65,132
1,77,87,0
1,61,68,4
1,55,54,2
1,76,100,62
1,67,91,2
1,73,83,4
1,57,90,46
1,45,92,2
1,62,95,220
1,69,94,0
1,65,88,4
1,50,76,4
1,38,88,0
1,50,117,598
1,38,118,4
1,31,112,156
1,43,110,6
1,62,90,58
1,67,84,120
1,57,49,2
1,69,75,22
1,60,89,44
1,70,94,0
1,50,56,10
1,54,63,4
1,62,97,58
1,69,84,4
1,70,48,8
1,54,79,12
1,50,80,2
1,60,78,0
1,43,92,172
1,62,76,66
1,50,88,76
1,58,74,28
1,67,83,2
1,69,67,62
1,62,100,72
1,67,88,0
1,70,107,0
1,58,89,6
1,55,74,2
1,93,124,162
1,91,108,86
1,89,103,64
1,69,96,4
1,88,115,0
1,79,96,8
1,73,88,2
1,81,93,166
1,79,76,86
1,77,90,40
1,67,76,32
1,76,82,0
1,57,36,12
1,61,58,0
1,69,72,154
1,67,75,36
1,65,74,58
1,64,88,30
1,55,74,4
1,45,66,6
1,49,65,0
1,57,70,164
1,55,73,2
1,53,78,80
1,45,85,6
1,52,81,4
1,37,85,4
1,33,97,14
1,38,97,84
1,26,97,100
1,28,87,14
1,69,80,66
1,53,84,40
1,74,97,12
1,62,36,16
1,60,25,0
1,76,94,26
1,77,104,96
1,55,83,4
1,65,85,0
1,61,83,8
1,76,95,20
1,67,95,0
1,73,97,0
1,57,116,6
1,45,113,8
1,50,121,158
1,38,119,2
1,69,86,50
1,62,72,28
1,53,45,0
1,74,87,16
1,76,74,22
1,77,91,84
1,61,79,2
1,65,71,0
1,55,54,4
1,73,76,64
1,67,71,2
1,76,54,16
1,57,103,40
1,45,97,6
1,50,105,194
1,38,103,0
1,69,63,82
1,53,94,88
1,62,82,8
1,74,48,10
1,76,66,0
1,77,98,32
1,65,83,2
1,61,86,2
1,55,79,4
1,67,94,64
1,73,79,6
1,76,63,10
1,45,96,50
1,57,95,2
1,38,102,162
1,69,113,0
1,62,111,4
1,65,110,2
1,50,97,0
1,81,103,566
1,65,86,4
1,57,69,2
1,62,76,8
1,82,113,132
1,58,101,4
1,67,97,2
1,63,81,4
1,87,107,60
1,82,117,78
1,79,106,0
1,75,109,60
1,63,73,4
1,58,90,2
1,67,79,0
1,65,84,116
1,57,76,2
1,74,111,2
1,62,75,4
1,86,119,124
1,81,110,114
1,77,110,96
1,74,111,40
1,65,98,8
1,57,76,4
1,62,92,2
1,67,105,112
1,73,110,0
1,64,109,6
1,57,88,8
1,61,92,2
1,74,85,72
1,76,98,6
1,67,99,60
1,69,106,2
1,57,82,14
1,45,70,0
1,49,56,8
1,71,90,40
1,73,113,66
1,67,110,6
1,57,105,8
1,45,90,8
1,49,92,4
1,65,119,118
1,69,120,2
1,74,121,0
1,50,115,6
1,37,15,260
1,73,112,40
1,81,116,2
1,69,111,4
1,76,118,0
1,67,111,2
1,33,117,8
1,45,117,0
1,42,33,40
1,45,103,52
1,50,113,26
1,38,106,6
1,42,11,8
1,69,89,50
1,53,81,48
1,62,81,6
1,74,95,10
1,76,88,86
1,55,85,50
1,65,73,2
1,77,93,8
1,61,68,2
1,67,77,2
1,73,60,18
1,67,78,52
1,73,86,0
1,76,97,12
1,57,103,14
1,45,105,4
1,38,109,188
1,50,108,0
1,69,66,86
1,53,79,60
1,62,84,2
1,74,95,4
1,76,79,76
1,65,92,22
1,77,90,4
1,55,76,4
1,61,78,2
1,76,85,64
1,67,80,0
1,73,81,0
1,57,98,48
1,45,101,6
1,50,117,184
1,38,111,4
1,40,52,6
1,69,80,52
1,62,94,44
1,53,89,2
1,74,69,18
1,76,74,74
1,65,95,84
1,55,89,0
1,77,95,4
1,61,81,0
1,76,103,68
1,67,98,2
1,73,97,0
1,57,103,56
1,45,92,2
1,62,117,204
1,65,115,2
1,38,105,2
1,69,116,0
1,50,101,2
1,50,113,542
1,38,113,6
1,31,110,146
1,43,111,2
1,62,84,56
1,50,61,86
1,57,81,2
1,67,91,14
1,69,81,18
1,70,93,46
1,60,84,6
1,50,44,16
1,69,92,24
1,62,98,4
1,60,100,0
1,50,92,6
1,54,82,4
1,50,72,66
1,43,94,46
1,62,76,78
1,50,81,60
1,58,72,30
1,67,81,20
1,69,71,60
1,67,98,60
1,62,111,2
1,70,113,0
1,55,90,8
1,58,92,10
1,93,125,156
1,91,105,82
1,89,107,62
1,88,117,2
1,79,104,0
1,69,92,6
1,73,90,10
1,81,103,182
1,79,91,0
1,77,98,60
1,76,110,20
1,57,80,6
1,67,85,2
1,61,84,4
1,69,100,158
1,67,85,82
1,65,97,38
1,64,110,8
1,55,103,12
1,45,93,2
1,49,92,0
1,57,104,160
1,55,90,74
1,53,93,22
1,52,107,20
1,45,112,12
1,37,102,6
1,33,111,158
1,38,109,26
1,26,119,104
1,69,91,46
1,53,83,54
1,62,95,0
1,74,103,12
1,76,95,34
1,77,106,92
1,55,91,4
1,65,94,0
1,61,88,6
1,76,98,48
1,67,103,2
1,73,103,2
1,57,122,8
1,45,120,0
1,50,121,176
1,38,121,0
1,69,72,68
1,53,92,36
1,62,86,6
1,74,76,2
1,76,80,16
1,65,100,88
1,77,106,0
1,55,77,6
1,61,37,4
1,67,98,38
1,73,101,0
1,76,97,0
1,57,109,18
1,45,111,4
1,38,103,166
1,50,98,4
1,69,69,66
1,53,94,36
1,62,88,10
1,74,60,16
1,76,80,42
1,65,108,72
1,61,95,8
1,55,83,2
1,77,89,6
1,76,100,56
1,67,104,0
1,77,73,2
1,73,104,2
1,57,103,14
1,45,109,4
1,62,122,192
1,69,124,2
1,65,113,2
1,38,110,2
1,50,105,6
1,81,115,526
1,57,89,0
1,65,91,10
1,62,80,10
1,58,114,128
1,67,111,0
1,82,120,4
1,63,100,2
1,87,111,90
1,82,124,84
1,79,110,32
1,67,100,56
1,75,110,0
1,58,101,0
1,63,86,2
1,65,100,120
1,57,94,2
1,74,111,6
1,62,82,4
1,86,121,118
1,81,114,114
1,77,109,22
1,65,97,22
1,74,111,4
1,62,79,4
1,57,78,2
1,73,112,98
1,67,103,0
1,64,107,4
1,57,95,4
1,61,90,8
1,69,63,12
1,74,81,22
1,76,97,54
1,69,109,60
1,67,101,2
1,57,87,22
1,45,66,4
1,49,57,8
1,71,93,62
1,73,105,58
1,67,105,2
1,45,92,4
1,57,100,0
1,49,77,14
1,65,118,58
1,69,117,2
1,74,121,0
1,50,105,6
1,26,94,316
1,77,121,4
1,86,119,2
1,74,119,0
1,38,101,2
1,81,112,0
1,53,59,208
1,41,105,52
1,53,88,8
1,60,91,8
1,57,95,2
1,48,92,2
1,57,72,18
1,53,98,6
1,62,94,16
1,64,89,2
1,50,103,0
1,61,28,4
1,65,121,18
1,57,89,2
1,60,119,2
1,53,78,2
1,59,25,36
1,55,96,18
1,67,114,22
1,60,100,0
1,64,111,4
1,57,98,16
1,69,119,0
1,62,112,4
1,65,117,0
1,72,111,24
1,69,99,0
1,65,85,4
1,60,90,8
1,74,106,8
1,65,93,4
1,69,81,4
1,62,84,0
1,76,114,2
1,69,83,2
1,65,66,10
1,64,83,8
1,69,94,18
1,65,79,8
1,74,97,10
1,62,91,14
1,72,90,8
1,60,76,6
1,65,84,34
1,69,101,2
1,57,95,6
1,67,111,148
1,65,102,2
1,50,97,6
1,59,83,2
1,77,55,134
1,79,59,44
1,80,77,46
1,81,84,16
1,71,44,16
1,62,48,2
1,79,61,48
1,61,76,2
1,71,33,10
1,81,67,6
1,79,47,46
1,70,84,64
1,81,85,0
1,81,98,68
1,84,100,6
1,76,105,0
1,58,101,4
1,48,53,18
1,41,94,136
1,60,87,116
1,48,87,6
1,53,78,0
1,57,76,8
1,57,95,18
1,53,94,2
1,62,109,6
1,50,92,12
1,53,91,4
1,65,121,2
1,57,100,2
1,60,116,6
1,55,90,26
1,67,115,12
1,60,97,2
1,64,105,6
1,57,91,6
1,69,119,0
1,62,106,10
1,65,112,4
1,72,117,18
1,60,92,8
1,69,94,2
1,65,103,0
1,74,105,40
1,62,84,2
1,65,77,2
1,69,76,2
1,76,113,4
1,69,91,4
1,65,91,0
1,64,92,12
1,69,92,20
1,74,91,6
1,65,87,6
1,62,95,8
1,72,97,54
1,60,71,12
1,65,31,8
1,69,111,20
1,57,96,16
1,67,117,114
1,65,111,0
1,59,92,6
1,50,103,0
1,77,66,636
1,79,43,12
1,80,83,36
1,71,48,50
1,62,60,2
1,81,78,0
1,77,36,32
1,79,66,32
1,61,76,2
1,71,43,8
1,81,61,6
1,79,63,40
1,70,74,70
1,81,89,8
1,60,52,4
1,81,92,60
1,84,98,4
1,76,100,6
1,58,98,10
1,49,30,12
1,48,68,8
1,41,88,144
1,53,73,104
1,60,84,6
1,57,60,12
1,48,74,0
1,57,108,6
1,62,106,4
1,53,87,2
1,50,73,4
1,65,117,12
1,57,102,0
1,60,114,6
1,53,72,12
1,55,84,20
1,67,112,16
1,60,92,2
1,64,95,10
1,57,88,4
1,69,111,8
1,62,102,4
1,65,108,2
1,72,102,40
1,69,84,12
1,65,89,2
1,60,69,0
1,74,97,24
1,62,73,6
1,65,61,2
1,69,68,0
1,76,103,36
1,69,63,0
1,65,58,8
1,64,64,14
1,69,60,14
1,65,56,6
1,74,80,6
1,62,78,14
1,65,80,58
1,72,72,2
1,60,60,2
1,57,66,34
1,69,81,60
1,65,33,20
1,72,84,6
1,69,60,66
1,64,95,68
1,60,77,4
1,45,81,12
1,52,56,2
1,76,107,260
1,72,94,2
1,84,99,2
1,57,54,10
1,60,20,8
1,83,81,202
1,40,76,2
1,76,90,2
1,72,62,2
1,71,54,8
1,81,101,196
1,64,82,2
1,69,85,2
1,57,80,8
1,60,79,2
1,76,54,6
1,71,31,0
1,68,73,168
1,80,72,6
1,45,88,0
1,76,74,14
1,52,72,2
1,76,61,48
1,81,72,6
1,69,60,6
1,64,72,20
1,57,75,4
1,60,56,4
1,64,50,68
1,69,70,2
1,76,68,10
1,72,46,6
1,57,60,80
1,48,64,6
1,63,108,104
1,48,108,0
1,57,111,8
1,54,96,8
1,64,92,4
1,63,90,40
1,47,79,36
1,62,98,4
1,56,79,14
1,56,77,184
1,80,90,0
1,72,88,0
1,84,99,2
1,76,97,2
1,62,40,6
1,35,79,168
1,83,59,12
1,76,77,2
1,71,52,0
1,80,58,2
1,62,95,36
1,81,97,10
1,64,74,0
1,69,97,2
1,56,78,4
1,74,40,4
1,40,94,134
1,67,106,2
1,79,110,0
1,73,97,4
1,80,102,4
1,74,72,20
1,68,57,2
1,64,94,78
1,62,95,2
1,56,84,2
1,68,91,48
1,74,103,2
1,76,96,4
1,47,82,98
1,56,95,6
1,68,92,74
1,62,91,10
1,64,83,8
1,56,71,4
1,74,80,4
1,76,87,74
1,80,85,10
1,81,114,2
1,76,109,4
1,72,107,2
1,57,117,2
1,45,113,2
1,69,107,2
1,74,91,2
1,72,103,344
1,48,60,2
1,67,92,4
1,64,85,10
1,36,58,6
1,71,106,100
1,65,108,4
1,50,108,2
1,67,109,4
1,38,100,4
1,67,106,142
1,60,106,0
1,70,113,2
1,52,110,6
1,40,101,4
1,53,91,26
1,41,110,30
1,48,103,68
1,60,103,0
1,57,98,4
1,53,83,0
1,57,84,16
1,62,107,6
1,53,91,2
1,50,105,4
1,65,115,26
1,57,91,4
1,60,110,0
1,53,49,2
1,55,81,14
1,67,113,18
1,60,97,4
1,64,105,6
1,57,89,30
1,69,113,2
1,62,100,8
1,65,110,2
1,72,114,12
1,69,108,4
1,65,99,4
1,60,89,6
1,74,107,4
1,65,100,2
1,62,95,2
1,69,94,0
1,76,113,20
1,69,91,2
1,65,73,4
1,64,92,10
1,65,87,10
1,69,93,2
1,74,92,8
1,62,95,2
1,72,91,60
1,60,84,8
1,65,100,28
1,69,106,2
1,57,92,16
1,67,105,134
1,65,97,2
1,59,80,0
1,50,91,4
1,77,42,676
1,79,36,58
1,80,78,32
1,62,57,20
1,71,46,2
1,81,85,0
1,79,65,40
1,61,66,4
1,71,34,4
1,81,63,8
1,79,47,64
1,70,87,56
1,60,63,0
1,81,75,0
1,81,72,74
1,84,81,4
1,76,86,2
1,58,75,30
1,48,86,2
1,41,98,154
1,53,76,18
1,60,71,4
1,57,85,2
1,48,84,4
1,57,96,16
1,62,110,6
1,53,87,6
1,50,93,2
1,65,119,16
1,57,90,0
1,60,115,6
1,53,67,0
1,55,88,24
1,67,116,8
1,60,98,4
1,64,108,6
1,69,117,2
1,62,109,6
1,57,79,4
1,65,115,0
1,72,115,10
1,65,88,6
1,69,100,2
1,60,94,2
1,74,101,6
1,65,87,2
1,62,83,0
1,69,48,14
1,76,116,4
1,65,86,2
1,69,101,10
1,64,78,12
1,69,97,28
1,65,96,6
1,74,98,2
1,62,97,8
1,65,79,66
1,72,96,2
1,60,91,6
1,65,101,26
1,69,114,6
1,57,101,6
1,67,120,120
1,65,115,2
1,59,98,6
1,50,109,0
1,77,58,632
1,79,61,40
1,80,81,36
1,81,84,40
1,62,59,2
1,71,42,6
1,77,49,16
1,79,59,42
1,61,80,52
1,81,68,0
1,71,42,6
1,79,57,24
1,70,75,72
1,60,73,0
1,81,70,8
1,81,95,26
1,84,108,2
1,76,110,6
1,58,91,18
1,48,55,18
1,41,92,194
1,48,58,6
1,81,108,2
1,77,97,4
1,84,94,20
1,77,34,6
1,63,92,28
1,86,113,4
1,65,58,6
1,57,83,0
1,89,115,50
1,77,115,4
1,36,93,44
1,74,100,122
1,86,109,2
1,65,97,48
1,63,95,0
1,84,113,0
1,72,112,2
1,57,89,6
1,60,69,8
1,41,61,126
1,81,99,40
1,69,82,2
1,75,80,0
1,48,51,18
1,57,96,8
1,65,99,82
1,63,95,6
1,57,77,4
1,60,80,10
1,67,95,130
1,79,100,2
1,75,85,4
1,55,106,4
1,43,85,6
1,81,97,8
1,79,86,64
