track,note,velocity,time
3,60,118,0
3,55,118,0
3,64,118,0
3,64,0,13
3,55,0,0
3,60,0,0
3,64,119,47
3,55,119,0
3,60,119,0
3,60,0,5
3,55,0,0
3,64,0,0
3,60,119,25
3,55,119,0
3,64,119,0
3,64,0,13
3,55,0,0
3,60,0,0
3,55,119,47
3,60,119,0
3,64,119,0
3,64,0,5
3,60,0,0
3,55,0,0
3,55,119,25
3,60,119,0
3,64,119,0
3,64,0,13
3,60,0,0
3,55,0,0
3,65,119,47
3,55,119,0
3,60,119,0
3,60,0,13
3,55,0,0
3,65,0,0
3,55,120,47
3,60,120,0
3,65,120,0
3,65,0,5
3,60,0,0
3,55,0,0
3,65,120,25
3,60,120,0
3,55,120,0
3,55,0,13
3,60,0,0
3,65,0,0
3,55,120,47
3,60,120,0
3,65,120,0
3,65,0,5
3,60,0,0
3,55,0,0
3,65,120,25
3,55,120,0
3,60,120,0
3,60,0,13
3,55,0,0
3,65,0,0
3,60,120,47
3,55,120,0
3,64,120,0
3,64,0,13
3,55,0,0
3,60,0,0
3,64,120,47
3,55,120,0
3,60,120,0
3,60,0,5
3,55,0,0
3,64,0,0
3,60,120,25
3,55,120,0
3,64,120,0
3,64,0,13
3,55,0,0
3,60,0,0
3,55,120,47
3,60,120,0
3,64,120,0
3,64,0,5
3,60,0,0
3,55,0,0
3,55,120,25
3,60,120,0
3,64,120,0
3,64,0,13
3,60,0,0
3,55,0,0
3,65,120,47
3,55,120,0
3,60,120,0
3,60,0,13
3,55,0,0
3,65,0,0
3,55,120,47
3,60,120,0
3,65,120,0
3,65,0,5
3,60,0,0
3,55,0,0
3,65,120,25
3,60,120,0
3,55,120,0
3,55,0,13
3,60,0,0
3,65,0,0
3,55,120,47
3,60,120,0
3,65,120,0
3,65,0,5
3,60,0,0
3,55,0,0
3,65,120,25
3,55,120,0
3,60,120,0
3,60,0,13
3,55,0,0
3,65,0,0
3,60,120,47
3,55,120,0
3,64,120,0
3,64,0,13
3,55,0,0
3,60,0,0
3,64,120,47
3,55,120,0
3,60,120,0
3,60,0,5
3,55,0,0
3,64,0,0
3,60,121,25
3,55,121,0
3,64,121,0
3,64,0,13
3,55,0,0
3,60,0,0
3,55,121,47
3,60,121,0
3,64,121,0
3,64,0,5
3,60,0,0
3,55,0,0
3,55,121,25
3,60,121,0
3,64,121,0
3,64,0,13
3,60,0,0
3,55,0,0
3,65,121,47
3,55,121,0
3,60,121,0
3,60,0,13
3,55,0,0
3,65,0,0
3,55,121,47
3,60,121,0
3,65,121,0
3,65,0,5
3,60,0,0
3,55,0,0
3,65,121,25
3,60,121,0
3,55,121,0
3,55,0,13
3,60,0,0
3,65,0,0
3,55,121,47
3,60,121,0
3,65,121,0
3,65,0,5
3,60,0,0
3,55,0,0
3,65,121,25
3,55,121,0
3,60,121,0
3,60,0,13
3,55,0,0
3,65,0,0
3,60,121,47
3,55,121,0
3,64,121,0
3,64,0,13
3,55,0,0
3,60,0,0
3,64,121,47
3,55,121,0
3,60,121,0
3,60,0,5
3,55,0,0
3,64,0,0
3,60,121,25
3,55,121,0
3,64,121,0
3,64,0,13
3,55,0,0
3,60,0,0
3,55,121,47
3,60,121,0
3,64,121,0
3,64,0,5
3,60,0,0
3,55,0,0
3,55,121,25
3,60,121,0
3,64,121,0
3,64,0,13
3,60,0,0
3,55,0,0
3,65,121,47
3,55,121,0
3,60,121,0
3,60,0,13
3,55,0,0
3,65,0,0
3,55,121,47
3,60,121,0
3,65,121,0
3,65,0,5
3,60,0,0
3,55,0,0
3,65,121,25
3,60,121,0
3,55,121,0
3,55,0,13
3,60,0,0
3,65,0,0
3,55,121,47
3,60,121,0
3,65,121,0
3,65,0,5
3,60,0,0
3,55,0,0
3,65,121,25
3,55,121,0
3,60,121,0
3,60,0,13
3,55,0,0
3,65,0,0
3,60,121,47
3,55,121,0
3,64,121,0
3,64,0,13
3,55,0,0
3,60,0,0
3,64,121,47
3,55,121,0
3,60,121,0
3,60,0,5
3,55,0,0
3,64,0,0
3,60,121,25
3,55,121,0
3,64,121,0
3,64,0,13
3,55,0,0
3,60,0,0
3,55,121,47
3,60,121,0
3,64,121,0
3,64,0,5
3,60,0,0
3,55,0,0
3,55,121,25
3,60,121,0
3,64,121,0
3,64,0,13
3,60,0,0
3,55,0,0
3,65,121,47
3,55,121,0
3,60,121,0
3,60,0,13
3,55,0,0
3,65,0,0
3,55,121,47
3,60,121,0
3,65,121,0
3,65,0,5
3,60,0,0
3,55,0,0
3,65,121,25
3,60,121,0
3,55,121,0
3,55,0,13
3,60,0,0
3,65,0,0
3,55,121,47
3,60,121,0
3,65,121,0
3,65,0,5
3,60,0,0
3,55,0,0
3,65,121,25
3,55,121,0
3,60,121,0
3,60,0,13
3,55,0,0
3,65,0,0
3,60,121,47
3,55,121,0
3,64,121,0
3,64,0,13
3,55,0,0
3,60,0,0
3,64,121,47
3,55,121,0
3,60,121,0
3,60,0,5
3,55,0,0
3,64,0,0
3,60,120,25
3,55,120,0
3,64,120,0
3,64,0,13
3,55,0,0
3,60,0,0
3,55,120,47
3,60,120,0
3,64,120,0
3,64,0,5
3,60,0,0
3,55,0,0
3,55,120,25
3,60,120,0
3,64,120,0
3,64,0,13
3,60,0,0
3,55,0,0
3,65,119,47
3,55,119,0
3,60,119,0
3,60,0,13
3,55,0,0
3,65,0,0
3,55,119,47
3,60,119,0
3,65,119,0
3,65,0,5
3,60,0,0
3,55,0,0
3,65,119,25
3,60,119,0
3,55,119,0
3,55,0,13
3,60,0,0
3,65,0,0
3,55,119,47
3,60,119,0
3,65,119,0
3,65,0,5
3,60,0,0
3,55,0,0
3,65,119,25
3,55,119,0
3,60,119,0
3,60,0,13
3,55,0,0
3,65,0,0
3,59,119,47
3,62,119,0
3,55,119,0
3,55,0,13
3,62,0,0
3,59,0,0
3,55,119,47
3,62,119,0
3,59,119,0
3,59,0,5
3,62,0,0
3,55,0,0
3,62,119,25
3,55,119,0
3,59,119,0
3,59,0,13
3,55,0,0
3,62,0,0
3,62,119,47
3,55,119,0
3,59,119,0
3,59,0,5
3,55,0,0
3,62,0,0
3,62,119,25
3,59,119,0
3,55,119,0
3,55,0,13
3,59,0,0
3,62,0,0
3,62,121,47
3,55,121,0
3,60,121,0
3,60,0,13
3,55,0,0
3,62,0,0
3,62,121,47
3,55,121,0
3,60,121,0
3,60,0,5
3,55,0,0
3,62,0,0
3,55,121,25
3,60,121,0
3,62,121,0
3,62,0,13
3,60,0,0
3,55,0,0
3,62,121,47
3,55,121,0
3,60,121,0
3,60,0,5
3,55,0,0
3,62,0,0
3,60,121,25
3,62,121,0
3,55,121,0
3,55,0,13
3,62,0,0
3,60,0,0
3,59,121,47
3,62,121,0
3,55,121,0
3,55,0,13
3,62,0,0
3,59,0,0
3,62,121,47
3,55,121,0
3,59,121,0
3,59,0,5
3,55,0,0
3,62,0,0
3,62,121,25
3,55,121,0
3,59,121,0
3,59,0,13
3,55,0,0
3,62,0,0
3,55,122,47
3,62,122,0
3,59,122,0
3,59,0,5
3,62,0,0
3,55,0,0
3,59,122,25
3,62,122,0
3,55,122,0
3,55,0,13
3,62,0,0
3,59,0,0
3,60,122,47
3,55,122,0
3,62,122,0
3,62,0,13
3,55,0,0
3,60,0,0
3,60,122,47
3,62,122,0
3,55,122,0
3,55,0,5
3,62,0,0
3,60,0,0
3,55,122,25
3,62,122,0
3,60,122,0
3,60,0,13
3,62,0,0
3,55,0,0
3,55,122,47
3,62,122,0
3,60,122,0
3,60,0,5
3,62,0,0
3,55,0,0
3,62,122,25
3,60,122,0
3,55,122,0
3,55,0,13
3,60,0,0
3,62,0,0
3,56,122,47
3,59,122,0
3,64,122,0
3,64,0,13
3,59,0,0
3,56,0,0
3,64,122,47
3,56,122,0
3,59,122,0
3,59,0,5
3,56,0,0
3,64,0,0
3,64,123,25
3,59,123,0
3,56,123,0
3,56,0,13
3,59,0,0
3,64,0,0
3,56,123,47
3,64,123,0
3,59,123,0
3,59,0,5
3,64,0,0
3,56,0,0
3,64,123,25
3,59,123,0
3,56,123,0
3,56,0,13
3,59,0,0
3,64,0,0
3,64,122,47
3,57,122,0
3,59,122,0
3,59,0,13
3,57,0,0
3,64,0,0
3,59,122,47
3,57,122,0
3,64,122,0
3,64,0,5
3,57,0,0
3,59,0,0
3,59,122,25
3,57,122,0
3,64,122,0
3,64,0,13
3,57,0,0
3,59,0,0
3,64,122,47
3,57,122,0
3,59,122,0
3,59,0,5
3,57,0,0
3,64,0,0
3,59,122,25
3,57,122,0
3,64,122,0
3,64,0,13
3,57,0,0
3,59,0,0
3,59,122,47
3,56,122,0
3,64,122,0
3,64,0,13
3,56,0,0
3,59,0,0
3,59,122,47
3,56,122,0
3,64,122,0
3,64,0,5
3,56,0,0
3,59,0,0
3,59,122,25
3,56,122,0
3,64,122,0
3,64,0,13
3,56,0,0
3,59,0,0
3,59,122,47
3,56,122,0
3,64,122,0
3,64,0,5
3,56,0,0
3,59,0,0
3,59,122,25
3,56,122,0
3,64,122,0
3,64,0,13
3,56,0,0
3,59,0,0
3,57,122,47
3,59,122,0
3,64,122,0
3,64,0,13
3,59,0,0
3,57,0,0
3,57,122,47
3,59,122,0
3,64,122,0
3,64,0,5
3,59,0,0
3,57,0,0
3,57,122,25
3,64,122,0
3,59,122,0
3,59,0,13
3,64,0,0
3,57,0,0
3,57,122,47
3,64,122,0
3,59,122,0
3,59,0,5
3,64,0,0
3,57,0,0
3,57,122,25
3,59,122,0
3,64,122,0
3,64,0,13
3,59,0,0
3,57,0,0
3,60,122,47
3,57,122,0
3,65,122,0
3,65,0,13
3,57,0,0
3,60,0,0
3,60,122,47
3,65,122,0
3,57,122,0
3,57,0,5
3,65,0,0
3,60,0,0
3,65,122,25
3,57,122,0
3,60,122,0
3,60,0,13
3,57,0,0
3,65,0,0
3,65,122,47
3,60,122,0
3,57,122,0
3,57,0,5
3,60,0,0
3,65,0,0
3,60,122,25
3,57,122,0
3,65,122,0
3,65,0,13
3,57,0,0
3,60,0,0
3,58,122,47
3,60,122,0
3,65,122,0
3,65,0,13
3,60,0,0
3,58,0,0
3,58,121,47
3,60,121,0
3,65,121,0
3,65,0,5
3,60,0,0
3,58,0,0
3,60,121,25
3,58,121,0
3,65,121,0
3,65,0,13
3,58,0,0
3,60,0,0
3,65,121,47
3,60,121,0
3,58,121,0
3,58,0,5
3,60,0,0
3,65,0,0
3,60,121,25
3,58,121,0
3,65,121,0
3,65,0,13
3,58,0,0
3,60,0,0
3,57,121,47
3,65,121,0
3,60,121,0
3,60,0,13
3,65,0,0
3,57,0,0
3,60,121,47
3,57,121,0
3,65,121,0
3,65,0,5
3,57,0,0
3,60,0,0
3,65,121,25
3,57,121,0
3,60,121,0
3,60,0,13
3,57,0,0
3,65,0,0
3,60,120,47
3,57,120,0
3,65,120,0
3,65,0,5
3,57,0,0
3,60,0,0
3,60,120,25
3,57,120,0
3,65,120,0
3,65,0,13
3,57,0,0
3,60,0,0
3,60,121,47
3,58,121,0
3,65,121,0
3,65,0,13
3,58,0,0
3,60,0,0
3,60,122,47
3,58,122,0
3,65,122,0
3,65,0,5
3,58,0,0
3,60,0,0
3,65,119,25
3,60,119,0
3,58,119,0
3,58,0,13
3,60,0,0
3,65,0,0
3,58,119,47
3,65,119,0
3,60,119,0
3,60,0,5
3,65,0,0
3,58,0,0
3,58,119,25
3,60,119,0
3,65,119,0
3,65,0,13
3,60,0,0
3,58,0,0
3,60,119,47
3,55,119,0
3,64,119,0
3,64,0,13
3,55,0,0
3,60,0,0
3,64,120,47
3,55,120,0
3,60,120,0
3,60,0,5
3,55,0,0
3,64,0,0
3,60,120,25
3,55,120,0
3,64,120,0
3,64,0,13
3,55,0,0
3,60,0,0
3,55,120,47
3,60,120,0
3,64,120,0
3,64,0,5
3,60,0,0
3,55,0,0
3,55,120,25
3,60,120,0
3,64,120,0
3,64,0,13
3,60,0,0
3,55,0,0
3,65,120,47
3,55,120,0
3,60,120,0
3,60,0,13
3,55,0,0
3,65,0,0
3,55,120,47
3,60,120,0
3,65,120,0
3,65,0,5
3,60,0,0
3,55,0,0
3,65,120,25
3,60,120,0
3,55,120,0
3,55,0,13
3,60,0,0
3,65,0,0
3,55,120,47
3,60,120,0
3,65,120,0
3,65,0,5
3,60,0,0
3,55,0,0
3,65,120,25
3,55,120,0
3,60,120,0
3,60,0,13
3,55,0,0
3,65,0,0
3,60,120,47
3,55,120,0
3,64,120,0
3,64,0,13
3,55,0,0
3,60,0,0
3,64,120,47
3,55,120,0
3,60,120,0
3,60,0,5
3,55,0,0
3,64,0,0
3,60,121,25
3,55,121,0
3,64,121,0
3,64,0,13
3,55,0,0
3,60,0,0
3,55,121,47
3,60,121,0
3,64,121,0
3,64,0,5
3,60,0,0
3,55,0,0
3,55,121,25
3,60,121,0
3,64,121,0
3,64,0,13
3,60,0,0
3,55,0,0
3,65,121,47
3,55,121,0
3,60,121,0
3,60,0,13
3,55,0,0
3,65,0,0
3,55,121,47
3,60,121,0
3,65,121,0
3,65,0,5
3,60,0,0
3,55,0,0
3,65,121,25
3,60,121,0
3,55,121,0
3,55,0,13
3,60,0,0
3,65,0,0
3,55,122,47
3,60,122,0
3,65,122,0
3,65,0,5
3,60,0,0
3,55,0,0
3,65,122,25
3,55,122,0
3,60,122,0
3,60,0,13
3,55,0,0
3,65,0,0
3,59,122,47
3,62,122,0
3,55,122,0
3,55,0,13
3,62,0,0
3,59,0,0
3,55,122,47
3,62,122,0
3,59,122,0
3,59,0,5
3,62,0,0
3,55,0,0
3,62,123,25
3,55,123,0
3,59,123,0
3,59,0,13
3,55,0,0
3,62,0,0
3,62,123,47
3,55,123,0
3,59,123,0
3,59,0,5
3,55,0,0
3,62,0,0
3,62,123,25
3,59,123,0
3,55,123,0
3,55,0,13
3,59,0,0
3,62,0,0
3,62,123,47
3,55,123,0
3,60,123,0
3,60,0,13
3,55,0,0
3,62,0,0
3,62,123,47
3,55,123,0
3,60,123,0
3,60,0,5
3,55,0,0
3,62,0,0
3,55,123,25
3,60,123,0
3,62,123,0
3,62,0,13
3,60,0,0
3,55,0,0
3,62,123,47
3,55,123,0
3,60,123,0
3,60,0,5
3,55,0,0
3,62,0,0
3,60,123,25
3,62,123,0
3,55,123,0
3,55,0,13
3,62,0,0
3,60,0,0
3,59,122,47
3,62,122,0
3,55,122,0
3,55,0,13
3,62,0,0
3,59,0,0
3,62,122,47
3,55,122,0
3,59,122,0
3,59,0,5
3,55,0,0
3,62,0,0
3,62,122,25
3,55,122,0
3,59,122,0
3,59,0,13
3,55,0,0
3,62,0,0
3,55,121,47
3,62,121,0
3,59,121,0
3,59,0,5
3,62,0,0
3,55,0,0
3,59,121,25
3,62,121,0
3,55,121,0
3,55,0,13
3,62,0,0
3,59,0,0
3,60,121,47
3,55,121,0
3,62,121,0
3,62,0,13
3,55,0,0
3,60,0,0
3,60,121,47
3,62,121,0
3,55,121,0
3,55,0,5
3,62,0,0
3,60,0,0
3,55,121,25
3,62,121,0
3,60,121,0
3,60,0,13
3,62,0,0
3,55,0,0
3,55,120,47
3,62,120,0
3,60,120,0
3,60,0,5
3,62,0,0
3,55,0,0
3,62,120,25
3,60,120,0
3,55,120,0
3,55,0,13
3,60,0,0
3,62,0,0
3,60,120,47
3,57,120,0
3,65,120,0
3,65,0,13
3,57,0,0
3,60,0,0
3,60,120,47
3,65,120,0
3,57,120,0
3,57,0,5
3,65,0,0
3,60,0,0
3,65,120,25
3,57,120,0
3,60,120,0
3,60,0,13
3,57,0,0
3,65,0,0
3,65,120,47
3,60,120,0
3,57,120,0
3,57,0,5
3,60,0,0
3,65,0,0
3,60,120,25
3,57,120,0
3,65,120,0
3,65,0,13
3,57,0,0
3,60,0,0
3,55,120,47
3,60,120,0
3,65,120,0
3,65,0,13
3,60,0,0
3,55,0,0
3,55,120,47
3,60,120,0
3,65,120,0
3,65,0,5
