track,note,velocity,time
0,60,118,0
0,55,118,0
0,64,118,0
0,60,88,0
0,55,88,0
0,64,88,0
0,64,119,0
0,55,119,0
0,60,119,0
0,64,89,0
0,55,89,0
0,60,89,0
0,60,0,5
0,55,0,0
0,64,0,0
0,60,119,10
0,55,119,0
0,64,119,0
0,60,89,0
0,55,89,0
0,64,89,0
0,55,119,30
0,60,119,0
0,64,119,0
0,55,89,0
0,60,89,0
0,64,89,0
0,64,0,5
0,60,0,0
0,55,0,0
0,64,0,7
0,60,0,0
0,55,0,0
0,55,119,18
0,60,119,0
0,64,119,0
0,55,89,0
0,60,89,0
0,64,89,0
0,64,0,13
0,60,0,0
0,55,0,0
0,64,0,17
0,60,0,0
0,55,0,0
0,65,119,30
0,55,119,0
0,60,119,0
0,65,89,0
0,55,89,0
0,60,89,0
0,60,0,13
0,55,0,0
0,65,0,0
0,60,0,17
0,55,0,0
0,65,0,0
0,55,120,30
0,60,120,0
0,65,120,0
0,55,90,0
0,60,90,0
0,65,90,0
0,65,0,5
0,60,0,0
0,55,0,0
0,65,0,7
0,60,0,0
0,55,0,0
0,65,120,18
0,60,120,0
0,55,120,0
0,65,90,0
0,60,90,0
0,55,90,0
0,55,0,13
0,60,0,0
0,65,0,0
0,55,0,17
0,60,0,0
0,65,0,0
0,55,120,30
0,60,120,0
0,65,120,0
0,55,90,0
0,60,90,0
0,65,90,0
0,65,0,5
0,60,0,0
0,55,0,0
0,65,0,7
0,60,0,0
0,55,0,0
0,65,120,18
0,55,120,0
0,60,120,0
0,65,90,0
0,55,90,0
0,60,90,0
0,60,0,13
0,55,0,0
0,65,0,0
0,60,0,17
0,55,0,0
0,65,0,0
0,60,120,30
0,55,120,0
0,64,120,0
0,60,90,0
0,55,90,0
0,64,90,0
0,64,0,13
0,55,0,0
0,60,0,0
0,64,0,17
0,55,0,0
0,60,0,0
0,64,120,30
0,55,120,0
0,60,120,0
0,64,90,0
0,55,90,0
0,60,90,0
0,60,0,5
0,55,0,0
0,64,0,0
0,60,0,7
0,55,0,0
0,64,0,0
0,60,120,18
0,55,120,0
0,64,120,0
0,60,90,0
0,55,90,0
0,64,90,0
0,64,0,13
0,55,0,0
0,60,0,0
0,64,0,17
0,55,0,0
0,60,0,0
0,70,127,0
0,55,120,30
0,60,120,0
0,64,120,0
0,55,90,0
0,60,90,0
0,64,90,0
0,64,0,5
0,60,0,0
0,55,0,0
0,64,0,7
0,60,0,0
0,55,0,0
0,70,0,11
0,55,120,7
0,60,120,0
0,64,120,0
0,55,90,0
0,60,90,0
0,64,90,0
0,64,0,13
0,60,0,0
0,55,0,0
0,64,0,17
0,60,0,0
0,55,0,0
0,65,120,30
0,55,120,0
0,60,120,0
0,65,90,0
0,55,90,0
0,60,90,0
0,60,0,13
0,55,0,0
0,65,0,0
0,60,0,17
0,55,0,0
0,65,0,0
0,55,120,30
0,60,120,0
0,65,120,0
0,55,90,0
0,60,90,0
0,65,90,0
0,65,0,5
0,60,0,0
0,55,0,0
0,65,0,7
0,60,0,0
0,55,0,0
0,65,120,18
0,60,120,0
0,55,120,0
0,65,90,0
0,60,90,0
0,55,90,0
0,55,0,13
0,60,0,0
0,65,0,0
0,55,0,17
0,60,0,0
0,65,0,0
0,69,127,0
0,58,127,0
0,70,127,0
0,55,120,30
0,60,120,0
0,65,120,0
0,55,90,0
0,60,90,0
0,65,90,0
0,69,0,2
0,65,0,3
0,60,0,0
0,55,0,0
0,65,0,7
0,60,0,0
0,55,0,0
0,70,0,15
0,65,120,3
0,55,120,0
0,60,120,0
0,65,90,0
0,55,90,0
0,60,90,0
0,60,0,13
0,55,0,0
0,65,0,0
0,60,0,17
0,55,0,0
0,65,0,0
0,60,120,30
0,55,120,0
0,64,120,0
0,60,90,0
0,55,90,0
0,64,90,0
0,36,127,0
0,58,0,1
0,64,0,12
0,55,0,0
0,60,0,0
0,64,0,17
0,55,0,0
0,60,0,0
0,64,120,30
0,55,120,0
0,60,120,0
0,64,90,0
0,55,90,0
0,60,90,0
0,60,0,5
0,55,0,0
0,64,0,0
0,60,0,7
0,55,0,0
0,64,0,0
0,60,121,18
0,55,121,0
0,64,121,0
0,60,91,0
0,55,91,0
0,64,91,0
0,64,0,13
0,55,0,0
0,60,0,0
0,64,0,17
0,55,0,0
0,60,0,0
0,36,0,0
0,36,127,0
0,55,121,30
0,60,121,0
0,64,121,0
0,55,91,0
0,60,91,0
0,64,91,0
0,64,0,5
0,60,0,0
0,55,0,0
0,64,0,7
0,60,0,0
0,55,0,0
0,55,121,18
0,60,121,0
0,64,121,0
0,55,91,0
0,60,91,0
0,64,91,0
0,64,0,13
0,60,0,0
0,55,0,0
0,64,0,17
0,60,0,0
0,55,0,0
0,65,121,30
0,55,121,0
0,60,121,0
0,65,91,0
0,55,91,0
0,60,91,0
0,36,0,0
0,36,127,0
0,60,0,13
0,55,0,0
0,65,0,0
0,60,0,17
0,55,0,0
0,65,0,0
0,55,121,30
0,60,121,0
0,65,121,0
0,55,91,0
0,60,91,0
0,65,91,0
0,65,0,5
0,60,0,0
0,55,0,0
0,65,0,7
0,60,0,0
0,55,0,0
0,65,121,18
0,60,121,0
0,55,121,0
0,65,91,0
0,60,91,0
0,55,91,0
0,55,0,13
0,60,0,0
0,65,0,0
0,55,0,17
0,60,0,0
0,65,0,0
0,36,0,0
0,36,127,0
0,69,127,0
0,70,127,0
0,58,127,0
0,69,0,21
0,55,121,9
0,60,121,0
0,65,121,0
0,55,91,0
0,60,91,0
0,65,91,0
0,70,0,2
0,65,0,3
0,60,0,0
0,55,0,0
0,65,0,7
0,60,0,0
0,55,0,0
0,65,121,18
0,55,121,0
0,60,121,0
0,65,91,0
0,55,91,0
0,60,91,0
0,60,0,13
0,55,0,0
0,65,0,0
0,60,0,17
0,55,0,0
0,65,0,0
0,60,121,30
0,55,121,0
0,64,121,0
0,60,91,0
0,55,91,0
0,64,91,0
0,36,0,0
0,36,127,0
0,64,0,13
0,55,0,0
0,60,0,0
0,64,0,17
0,55,0,0
0,60,0,0
0,64,121,30
0,55,121,0
0,60,121,0
0,64,91,0
0,55,91,0
0,60,91,0
0,60,0,5
0,55,0,0
0,64,0,0
0,60,0,7
0,55,0,0
0,64,0,0
0,60,121,18
0,55,121,0
0,64,121,0
0,60,91,0
0,55,91,0
0,64,91,0
0,64,0,13
0,55,0,0
0,60,0,0
0,58,0,12
0,64,0,5
0,55,0,0
0,60,0,0
0,36,0,0
0,36,127,0
0,55,121,30
0,60,121,0
0,64,121,0
0,55,91,0
0,60,91,0
0,64,91,0
0,64,0,5
0,60,0,0
0,55,0,0
0,64,0,7
0,60,0,0
0,55,0,0
0,72,100,0
0,55,121,0
0,60,121,0
0,64,121,0
0,55,91,0
0,60,91,0
0,64,91,0
0,64,0,13
0,60,0,0
0,55,0,0
0,64,0,17
0,60,0,0
0,55,0,0
0,72,100,0
0,65,121,0
0,55,121,0
0,60,121,0
0,65,91,0
0,55,91,0
0,60,91,0
0,36,0,0
0,36,127,0
0,60,0,13
0,55,0,0
0,65,0,0
0,60,0,17
0,55,0,0
0,65,0,0
0,74,100,0
0,55,121,0
0,60,121,0
0,65,121,0
0,55,91,0
0,60,91,0
0,65,91,0
0,65,0,5
0,60,0,0
0,55,0,0
0,65,0,7
0,60,0,0
0,55,0,0
0,65,121,18
0,60,121,0
0,55,121,0
0,65,91,0
0,60,91,0
0,55,91,0
0,55,0,13
0,60,0,0
0,65,0,0
0,76,100,0
0,55,0,0
0,60,0,0
0,65,0,0
0,36,0,0
0,36,127,0
0,58,127,0
0,69,127,0
0,70,127,0
0,69,0,22
0,55,121,8
0,60,121,0
0,65,121,0
0,55,91,0
0,60,91,0
0,65,91,0
0,65,0,5
0,60,0,0
0,55,0,0
0,70,0,3
0,65,0,4
0,60,0,0
0,55,0,0
0,77,100,0
0,65,121,0
0,55,121,0
0,60,121,0
0,65,91,0
0,55,91,0
0,60,91,0
0,60,0,13
0,55,0,0
0,65,0,0
0,60,0,17
0,55,0,0
0,65,0,0
0,60,121,30
0,55,121,0
0,64,121,0
0,60,91,0
0,55,91,0
0,64,91,0
0,60,81,0
0,55,81,0
0,64,81,0
0,36,127,0
0,36,127,0
0,64,0,13
0,55,0,0
0,60,0,0
0,36,0,2
0,64,0,15
0,55,0,0
0,60,0,0
0,64,0,20
0,55,0,0
0,60,0,0
0,76,100,0
0,64,121,0
0,55,121,0
0,60,121,0
0,64,91,0
0,55,91,0
0,60,91,0
0,64,81,0
0,55,81,0
0,60,81,0
0,36,127,0
0,60,0,5
0,55,0,0
0,64,0,0
0,60,0,7
0,55,0,0
0,64,0,0
0,36,0,6
0,60,0,2
0,55,0,0
0,64,0,0
0,60,121,10
0,55,121,0
0,64,121,0
0,60,91,0
0,55,91,0
0,64,91,0
0,60,81,0
0,55,81,0
0,64,81,0
0,36,127,0
0,64,0,13
0,55,0,0
0,60,0,0
0,36,0,1
0,64,0,16
0,55,0,0
0,60,0,0
0,36,0,0
0,36,127,0
0,36,127,0
0,36,0,18
0,64,0,2
0,55,0,0
0,60,0,0
0,55,121,10
0,60,121,0
0,64,121,0
0,55,91,0
0,60,91,0
0,64,91,0
0,55,81,0
0,60,81,0
0,64,81,0
0,36,127,0
0,64,0,5
0,60,0,0
0,55,0,0
0,64,0,7
0,60,0,0
0,55,0,0
0,36,0,4
0,64,0,4
0,60,0,0
0,55,0,0
0,55,121,10
0,60,121,0
0,64,121,0
0,55,91,0
0,60,91,0
0,64,91,0
0,55,81,0
0,60,81,0
0,64,81,0
0,36,127,0
0,64,0,13
0,60,0,0
0,55,0,0
0,36,0,4
0,64,0,13
0,60,0,0
0,55,0,0
0,36,127,0
0,36,0,15
0,64,0,5
0,60,0,0
0,55,0,0
0,58,0,7
0,76,0,3
0,65,121,0
0,55,121,0
0,60,121,0
0,65,91,0
0,55,91,0
0,60,91,0
0,65,81,0
0,55,81,0
0,60,81,0
0,36,127,0
0,36,127,0
0,60,0,13
0,55,0,0
0,65,0,0
0,36,0,10
0,60,0,7
0,55,0,0
0,65,0,0
0,60,0,20
0,55,0,0
0,65,0,0
0,55,121,10
0,60,121,0
0,65,121,0
0,55,91,0
0,60,91,0
0,65,91,0
0,55,81,0
0,60,81,0
0,65,81,0
0,36,127,0
0,65,0,5
0,60,0,0
0,55,0,0
0,65,0,7
0,60,0,0
0,55,0,0
0,36,0,5
0,65,0,3
0,60,0,0
0,55,0,0
0,65,121,10
0,60,121,0
0,55,121,0
0,65,91,0
0,60,91,0
0,55,91,0
0,65,81,0
0,60,81,0
0,55,81,0
0,36,127,0
0,55,0,13
0,60,0,0
0,65,0,0
0,36,0,6
0,55,0,11
0,60,0,0
0,65,0,0
0,36,0,0
0,36,127,0
0,69,127,0
0,70,127,0
0,58,127,0
0,36,127,0
0,36,0,13
0,55,0,7
0,60,0,0
0,65,0,0
0,69,0,1
0,55,121,9
0,60,121,0
0,65,121,0
0,55,91,0
0,60,91,0
0,65,91,0
0,55,81,0
0,60,81,0
0,65,81,0
0,36,127,0
0,70,0,2
0,65,0,3
0,60,0,0
0,55,0,0
0,65,0,7
0,60,0,0
0,55,0,0
0,36,0,7
0,65,0,1
0,60,0,0
0,55,0,0
0,65,121,10
0,55,121,0
0,60,121,0
0,65,91,0
0,55,91,0
0,60,91,0
0,65,81,0
0,55,81,0
0,60,81,0
0,36,127,0
0,60,0,13
0,55,0,0
0,65,0,0
0,36,0,3
0,60,0,14
0,55,0,0
0,65,0,0
0,36,127,0
0,60,0,20
0,55,0,0
0,65,0,0
0,36,0,2
0,60,121,8
0,55,121,0
0,64,121,0
0,60,91,0
0,55,91,0
0,64,91,0
0,60,81,0
0,55,81,0
0,64,81,0
0,36,127,0
0,36,127,0
0,64,0,13
0,55,0,0
0,60,0,0
0,36,0,7
0,64,0,10
0,55,0,0
0,60,0,0
0,64,0,20
0,55,0,0
0,60,0,0
0,74,100,0
0,64,121,0
0,55,121,0
0,60,121,0
0,64,91,0
0,55,91,0
0,60,91,0
0,64,81,0
0,55,81,0
0,60,81,0
0,36,127,0
0,60,0,5
0,55,0,0
0,64,0,0
0,60,0,7
0,55,0,0
0,64,0,0
0,36,0,6
0,60,0,2
0,55,0,0
0,64,0,0
0,60,120,10
0,55,120,0
0,64,120,0
0,60,90,0
0,55,90,0
0,64,90,0
0,60,80,0
0,55,80,0
0,64,80,0
0,36,127,0
0,64,0,13
0,55,0,0
0,60,0,0
0,36,0,1
0,58,0,9
0,76,100,0
0,64,0,0
0,55,0,0
0,60,0,0
0,36,0,0
0,36,127,0
0,36,127,0
0,36,0,18
0,64,0,2
0,55,0,0
0,60,0,0
0,55,120,10
0,60,120,0
0,64,120,0
0,55,90,0
0,60,90,0
0,64,90,0
0,55,80,0
0,60,80,0
0,64,80,0
0,36,127,0
0,64,0,5
0,60,0,0
0,55,0,0
0,64,0,7
0,60,0,0
0,55,0,0
0,36,0,4
0,64,0,4
0,60,0,0
0,55,0,0
0,74,100,0
0,55,120,0
0,60,120,0
0,64,120,0
0,55,90,0
0,60,90,0
0,64,90,0
0,55,80,0
0,60,80,0
0,64,80,0
0,36,127,0
0,64,0,13
0,60,0,0
0,55,0,0
0,36,0,4
0,64,0,13
0,60,0,0
0,55,0,0
0,36,127,0
0,36,0,15
0,64,0,5
0,60,0,0
0,55,0,0
0,76,100,0
0,65,119,0
0,55,119,0
0,60,119,0
0,65,89,0
0,55,89,0
0,60,89,0
0,65,79,0
0,55,79,0
0,60,79,0
0,36,127,0
0,36,127,0
0,60,0,13
0,55,0,0
0,65,0,0
0,36,0,10
0,60,0,7
0,55,0,0
0,65,0,0
0,60,0,20
0,55,0,0
0,65,0,0
0,74,100,0
0,55,119,0
0,60,119,0
0,65,119,0
0,55,89,0
0,60,89,0
0,65,89,0
0,55,79,0
0,60,79,0
0,65,79,0
0,36,127,0
0,65,0,5
0,60,0,0
0,55,0,0
0,65,0,7
0,60,0,0
0,55,0,0
0,36,0,5
0,65,0,3
0,60,0,0
0,55,0,0
0,65,119,10
0,60,119,0
0,55,119,0
0,65,89,0
0,60,89,0
0,55,89,0
0,65,79,0
0,60,79,0
0,55,79,0
0,36,127,0
0,55,0,13
0,60,0,0
0,65,0,0
0,36,0,6
0,76,100,0
0,55,0,0
0,60,0,0
0,65,0,0
0,36,0,0
0,36,127,0
0,58,127,0
0,69,127,0
0,70,127,0
0,36,127,0
0,36,0,13
0,55,0,7
0,60,0,0
0,65,0,0
0,69,0,2
0,55,119,8
0,60,119,0
0,65,119,0
0,55,89,0
0,60,89,0
0,65,89,0
0,55,79,0
0,60,79,0
0,65,79,0
0,36,127,0
0,65,0,5
0,60,0,0
0,55,0,0
0,70,0,3
0,65,0,4
0,60,0,0
0,55,0,0
0,36,0,7
0,65,0,1
0,60,0,0
0,55,0,0
0,79,100,0
0,65,119,0
0,55,119,0
0,60,119,0
0,65,89,0
0,55,89,0
0,60,89,0
0,65,79,0
0,55,79,0
0,60,79,0
0,36,127,0
0,60,0,13
0,55,0,0
0,65,0,0
0,36,0,3
0,60,0,14
0,55,0,0
0,65,0,0
0,36,127,0
0,60,0,20
0,55,0,0
0,65,0,0
0,36,0,2
0,59,119,8
0,62,119,0
0,55,119,0
0,59,89,0
0,62,89,0
0,55,89,0
0,59,79,0
0,62,79,0
0,55,79,0
0,36,127,0
0,31,127,0
0,55,0,13
0,62,0,0
0,59,0,0
0,31,0,14
0,55,0,3
0,62,0,0
0,59,0,0
0,55,0,20
0,62,0,0
0,59,0,0
0,74,100,0
0,55,119,0
0,62,119,0
0,59,119,0
0,55,89,0
0,62,89,0
0,59,89,0
0,55,79,0
0,62,79,0
0,59,79,0
0,31,127,0
0,59,0,5
0,62,0,0
0,55,0,0
0,59,0,7
0,62,0,0
0,55,0,0
0,59,0,8
0,62,0,0
0,55,0,0
0,31,0,1
0,62,119,9
0,55,119,0
0,59,119,0
0,62,89,0
0,55,89,0
