track,note,velocity,time
1,39,127,480
1,39,0,5
1,39,76,7
1,39,0,5
1,39,64,1
1,39,0,5
1,39,96,1
1,39,0,5
1,51,64,1
1,51,0,5
1,39,96,1
1,39,0,5
1,39,54,7
1,39,0,5
1,39,107,7
1,39,0,5
1,39,85,1
1,39,0,5
1,51,64,1
1,51,0,5
1,51,18,1
1,51,0,5
1,39,102,1
1,39,0,5
1,34,127,7
1,34,0,5
1,34,76,7
1,34,0,5
1,34,64,1
1,34,0,5
1,34,96,1
1,34,0,5
1,46,64,1
1,46,0,5
1,34,96,1
1,34,0,5
1,34,54,7
1,34,0,5
1,34,107,7
1,34,0,5
1,34,84,1
1,34,0,5
1,46,64,1
1,46,0,5
1,46,18,1
1,46,0,5
1,34,102,1
1,34,0,5
1,37,127,7
1,37,0,5
1,37,76,7
1,37,0,5
1,37,64,1
1,37,0,5
1,37,96,1
1,37,0,5
1,49,64,1
1,49,0,5
1,37,96,1
1,37,0,5
1,37,54,7
1,37,0,5
1,37,107,7
1,37,0,5
1,37,84,1
1,37,0,5
1,49,64,1
1,49,0,5
1,49,18,1
1,49,0,5
1,37,102,1
1,37,0,5
1,32,127,7
1,32,0,5
1,32,76,7
1,32,0,5
1,32,64,1
1,32,0,5
1,32,96,1
1,32,0,5
1,44,64,1
1,44,0,5
1,32,96,1
1,32,0,5
1,32,54,7
1,32,0,5
1,32,107,7
1,32,0,5
1,32,84,1
1,32,0,5
1,44,64,1
1,44,0,5
1,44,18,1
1,44,0,5
1,32,102,1
1,32,0,5
1,39,127,7
1,39,0,5
1,39,76,7
1,39,0,5
1,39,64,1
1,39,0,5
1,39,96,1
1,39,0,5
1,51,64,1
1,51,0,5
1,39,96,1
1,39,0,5
1,39,54,7
1,39,0,5
1,39,107,7
1,39,0,5
1,39,85,1
1,39,0,5
1,51,64,1
1,51,0,5
1,51,18,1
1,51,0,5
1,39,102,1
1,39,0,5
1,34,127,7
1,34,0,5
1,34,76,7
1,34,0,5
1,34,64,1
1,34,0,5
1,34,96,1
1,34,0,5
1,46,64,1
1,46,0,5
1,34,96,1
1,34,0,5
1,34,54,7
1,34,0,5
1,34,107,7
1,34,0,5
1,34,84,1
1,34,0,5
1,46,64,1
1,46,0,5
1,46,18,1
1,46,0,5
1,34,102,1
1,34,0,5
1,37,127,7
1,37,0,5
1,37,76,7
1,37,0,5
1,37,64,1
1,37,0,5
1,37,96,1
1,37,0,5
1,49,64,1
1,49,0,5
1,37,96,1
1,37,0,5
1,37,54,7
1,37,0,5
1,37,107,7
1,37,0,5
1,37,84,1
1,37,0,5
1,49,64,1
1,49,0,5
1,49,18,1
1,49,0,5
1,37,102,1
1,37,0,5
1,32,127,7
1,32,0,5
1,32,76,7
1,32,0,5
1,32,64,1
1,32,0,5
1,32,96,1
1,32,0,5
1,44,64,1
1,44,0,5
1,32,96,1
1,32,0,5
1,32,54,7
1,32,0,5
1,32,107,7
1,32,0,5
1,32,84,1
1,32,0,5
1,44,64,1
1,44,0,5
1,44,18,1
1,44,0,5
1,32,102,1
1,32,0,5
1,39,127,7
1,39,0,5
1,39,76,7
1,39,0,5
1,39,64,1
1,39,0,5
1,39,96,1
1,39,0,5
1,51,64,1
1,51,0,5
1,39,96,1
1,39,0,5
1,39,54,7
1,39,0,5
1,39,107,7
1,39,0,5
1,39,85,1
1,39,0,5
1,51,64,1
1,51,0,5
1,51,18,1
1,51,0,5
1,39,102,1
1,39,0,5
1,34,127,7
1,34,0,5
1,34,76,7
1,34,0,5
1,34,64,1
1,34,0,5
1,34,96,1
1,34,0,5
1,46,64,1
1,46,0,5
1,34,96,1
1,34,0,5
1,34,54,7
1,34,0,5
1,34,107,7
1,34,0,5
1,34,84,1
1,34,0,5
1,46,64,1
1,46,0,5
1,46,18,1
1,46,0,5
1,34,102,1
1,34,0,5
1,37,127,7
1,37,0,5
1,37,76,7
1,37,0,5
1,37,64,1
1,37,0,5
1,37,96,1
1,37,0,5
1,49,64,1
1,49,0,5
1,37,96,1
1,37,0,5
1,37,54,7
1,37,0,5
1,37,107,7
1,37,0,5
1,37,84,1
1,37,0,5
1,49,64,1
1,49,0,5
1,49,18,1
1,49,0,5
1,37,102,1
1,37,0,5
1,32,127,7
1,32,0,5
1,32,76,7
1,32,0,5
1,32,64,1
1,32,0,5
1,32,96,1
1,32,0,5
1,44,64,1
1,44,0,5
1,32,96,1
1,32,0,5
1,32,54,7
1,32,0,5
1,32,107,7
1,32,0,5
1,32,84,1
1,32,0,5
1,44,64,1
1,44,0,5
1,44,18,1
1,44,0,5
1,32,102,1
1,32,0,5
1,39,127,7
1,39,0,5
1,39,76,7
1,39,0,5
1,39,64,1
1,39,0,5
1,39,96,1
1,39,0,5
1,51,64,1
1,51,0,5
1,39,96,1
1,39,0,5
1,39,54,7
1,39,0,5
1,39,107,7
1,39,0,5
1,39,85,1
1,39,0,5
1,51,64,1
1,51,0,5
1,51,18,1
1,51,0,5
1,39,102,1
1,39,0,5
1,34,127,7
1,34,0,5
1,34,76,7
1,34,0,5
1,34,64,1
1,34,0,5
1,34,96,1
1,34,0,5
1,46,64,1
1,46,0,5
1,34,96,1
1,34,0,5
1,34,54,7
1,34,0,5
1,34,107,7
1,34,0,5
1,34,84,1
1,34,0,5
1,46,64,1
1,46,0,5
1,46,18,1
1,46,0,5
1,34,102,1
1,34,0,5
1,37,127,7
1,37,0,5
1,37,76,7
1,37,0,5
1,37,64,1
1,37,0,5
1,37,96,1
1,37,0,5
1,49,64,1
1,49,0,5
1,37,96,1
1,37,0,5
1,37,54,7
1,37,0,5
1,37,107,7
1,37,0,5
1,37,84,1
1,37,0,5
1,49,64,1
1,49,0,5
1,49,18,1
1,49,0,5
1,37,102,1
1,37,0,5
1,32,127,7
1,32,0,5
1,32,76,7
1,32,0,5
1,32,64,1
1,32,0,5
1,32,96,1
1,32,0,5
1,44,64,1
1,44,0,5
1,32,96,1
1,32,0,5
1,32,54,7
1,32,0,5
1,32,107,7
1,32,0,5
1,32,84,1
1,32,0,5
1,44,64,1
1,44,0,5
1,44,18,1
1,44,0,5
1,32,102,1
1,32,0,5
1,39,127,7
1,39,0,5
1,39,76,7
1,39,0,5
1,39,64,1
1,39,0,5
1,39,96,1
1,39,0,5
1,51,64,1
1,51,0,5
1,39,96,1
1,39,0,5
1,39,54,7
1,39,0,5
1,39,107,7
1,39,0,5
1,39,85,1
1,39,0,5
1,51,64,1
1,51,0,5
1,51,18,1
1,51,0,5
1,39,102,1
1,39,0,5
1,34,127,7
1,34,0,5
1,34,76,7
1,34,0,5
1,34,64,1
1,34,0,5
1,34,96,1
1,34,0,5
1,46,64,1
1,46,0,5
1,34,96,1
1,34,0,5
1,34,54,7
1,34,0,5
1,34,107,7
1,34,0,5
1,34,84,1
1,34,0,5
1,46,64,1
1,46,0,5
1,46,18,1
1,46,0,5
1,34,102,1
1,34,0,5
1,37,127,7
1,37,0,5
1,37,76,7
1,37,0,5
1,37,64,1
1,37,0,5
1,37,96,1
1,37,0,5
1,49,64,1
1,49,0,5
1,37,96,1
1,37,0,5
1,37,54,7
1,37,0,5
1,37,107,7
1,37,0,5
1,37,84,1
1,37,0,5
1,49,64,1
1,49,0,5
1,49,18,1
1,49,0,5
1,37,102,1
1,37,0,5
1,32,127,7
1,32,0,5
1,32,76,7
1,32,0,5
1,32,64,1
1,32,0,5
1,32,96,1
1,32,0,5
1,44,64,1
1,44,0,5
1,32,96,1
1,32,0,5
1,32,54,7
1,32,0,5
1,32,107,7
1,32,0,5
1,32,84,1
1,32,0,5
1,44,64,1
1,44,0,5
1,44,18,1
1,44,0,5
1,32,102,1
1,32,0,5
1,39,127,7
1,39,0,5
1,39,76,7
1,39,0,5
1,39,64,1
1,39,0,5
1,39,96,1
1,39,0,5
1,51,64,1
1,51,0,5
1,39,96,1
1,39,0,5
1,39,54,7
1,39,0,5
1,39,107,7
1,39,0,5
1,39,85,1
1,39,0,5
1,51,64,1
1,51,0,5
1,51,18,1
1,51,0,5
1,39,102,1
1,39,0,5
1,34,127,7
1,34,0,5
1,34,76,7
1,34,0,5
1,34,64,1
1,34,0,5
1,34,96,1
1,34,0,5
1,46,64,1
1,46,0,5
1,34,96,1
1,34,0,5
1,34,54,7
1,34,0,5
1,34,107,7
1,34,0,5
1,34,84,1
1,34,0,5
1,46,64,1
1,46,0,5
1,46,18,1
1,46,0,5
1,34,102,1
1,34,0,5
1,37,127,7
1,37,0,5
1,37,76,7
1,37,0,5
1,37,64,1
1,37,0,5
1,37,96,1
1,37,0,5
1,49,64,1
1,49,0,5
1,37,96,1
1,37,0,5
1,37,54,7
1,37,0,5
1,37,107,7
1,37,0,5
1,37,84,1
1,37,0,5
1,49,64,1
1,49,0,5
1,49,18,1
1,49,0,5
1,37,102,1
1,37,0,5
1,32,127,7
1,32,0,5
1,32,76,7
1,32,0,5
1,32,64,1
1,32,0,5
1,32,96,1
1,32,0,5
1,44,64,1
1,44,0,5
1,32,96,1
1,32,0,5
1,32,54,7
1,32,0,5
1,32,107,7
1,32,0,5
1,32,84,1
1,32,0,5
1,44,64,1
1,44,0,5
1,44,18,1
1,44,0,5
1,32,102,1
1,32,0,5
1,39,127,7
1,39,0,5
1,39,76,7
1,39,0,5
1,39,64,1
1,39,0,5
1,39,96,1
1,39,0,5
1,51,64,1
1,51,0,5
1,39,96,1
1,39,0,5
1,39,54,7
1,39,0,5
1,39,107,7
1,39,0,5
1,39,85,1
1,39,0,5
1,51,64,1
1,51,0,5
1,51,18,1
1,51,0,5
1,39,102,1
1,39,0,5
1,34,127,7
1,34,0,5
1,34,76,7
1,34,0,5
1,34,64,1
1,34,0,5
1,34,96,1
1,34,0,5
1,46,64,1
1,46,0,5
1,34,96,1
1,34,0,5
1,34,54,7
1,34,0,5
1,34,107,7
1,34,0,5
1,34,84,1
1,34,0,5
1,46,64,1
1,46,0,5
1,46,18,1
1,46,0,5
1,34,102,1
1,34,0,5
1,37,127,7
1,37,0,5
1,37,76,7
1,37,0,5
1,37,64,1
1,37,0,5
1,37,96,1
1,37,0,5
1,49,64,1
1,49,0,5
1,37,96,1
1,37,0,5
1,37,54,7
1,37,0,5
1,37,107,7
1,37,0,5
1,37,84,1
1,37,0,5
1,49,64,1
1,49,0,5
1,49,18,1
1,49,0,5
1,37,102,1
1,37,0,5
1,37,127,7
1,37,0,5
1,37,76,7
1,37,0,5
1,37,64,1
1,37,0,5
1,37,96,1
1,37,0,5
1,49,64,1
1,49,0,5
1,37,96,1
1,37,0,5
1,37,54,7
1,37,0,5
1,37,107,7
1,37,0,5
1,37,84,1
1,37,0,5
1,49,64,1
1,49,0,5
1,49,18,1
1,49,0,5
1,37,102,1
1,37,0,5
1,37,18,1
1,37,0,5
1,35,127,1
1,35,0,5
1,35,76,7
1,35,0,5
1,35,64,1
1,35,0,5
1,35,96,1
1,35,0,5
1,47,64,1
1,47,0,5
1,35,96,1
1,35,0,5
1,35,54,7
1,35,0,5
1,35,107,7
1,35,0,5
1,35,84,1
1,35,0,5
1,47,64,1
1,47,0,5
1,47,18,1
1,47,0,5
1,35,102,1
1,35,0,5
1,35,18,1
1,35,0,5
1,35,127,1
1,35,0,5
1,35,76,7
1,35,0,5
1,35,64,1
1,35,0,5
1,35,96,1
1,35,0,5
1,47,64,1
1,47,0,5
1,35,96,1
1,35,0,5
1,35,54,7
1,35,0,5
1,35,107,7
1,35,0,5
1,35,84,1
1,35,0,5
1,47,64,1
1,47,0,5
1,47,18,1
1,47,0,5
1,35,102,1
1,35,0,5
1,35,18,1
1,35,0,5
1,39,127,1
1,39,0,5
1,39,86,7
1,39,0,5
1,39,74,1
1,39,0,5
1,39,106,1
1,39,0,5
1,51,74,1
1,51,0,5
1,39,106,1
1,39,0,5
1,39,64,7
1,39,0,5
1,39,117,7
1,39,0,5
1,39,95,1
1,39,0,5
1,51,74,1
1,51,0,5
1,51,28,1
1,51,0,5
1,39,112,1
1,39,0,5
1,35,127,7
1,35,0,5
1,35,86,7
1,35,0,5
1,35,74,1
1,35,0,5
1,35,106,1
1,35,0,5
1,47,74,1
1,47,0,5
1,35,106,1
1,35,0,5
1,35,64,7
1,35,0,5
1,35,117,7
1,35,0,5
1,35,95,1
1,35,0,5
1,47,74,1
1,47,0,5
1,47,28,1
1,47,0,5
1,35,112,1
1,35,0,5
1,37,127,7
1,37,0,5
1,37,86,7
1,37,0,5
1,37,74,1
1,37,0,5
1,37,106,1
1,37,0,5
1,49,74,1
1,49,0,5
1,37,106,1
1,37,0,5
1,37,64,7
1,37,0,5
1,37,117,7
1,37,0,5
1,37,95,1
1,37,0,5
1,49,74,1
1,49,0,5
1,49,28,1
1,49,0,5
1,37,112,1
1,37,0,5
1,34,127,7
1,34,0,5
1,34,86,7
1,34,0,5
1,34,74,1
1,34,0,5
1,34,106,1
1,34,0,5
1,46,74,1
1,46,0,5
1,34,106,1
1,34,0,5
1,34,64,7
1,34,0,5
1,34,117,7
1,34,0,5
1,34,95,1
1,34,0,5
1,46,74,1
1,46,0,5
1,46,28,1
1,46,0,5
1,34,112,1
1,34,0,5
1,35,127,7
1,35,0,5
1,35,86,7
1,35,0,5
1,35,74,1
1,35,0,5
1,35,106,1
1,35,0,5
1,47,74,1
1,47,0,5
1,35,106,1
1,35,0,5
1,35,64,7
1,35,0,5
1,35,117,7
1,35,0,5
1,35,95,1
1,35,0,5
1,47,74,1
1,47,0,5
1,47,28,1
1,47,0,5
1,35,112,1
1,35,0,5
1,37,127,7
1,37,0,5
1,37,86,7
1,37,0,5
1,37,74,1
1,37,0,5
1,37,106,1
1,37,0,5
1,49,74,1
1,49,0,5
1,37,106,1
1,37,0,5
1,37,64,7
1,37,0,5
1,37,117,7
1,37,0,5
1,37,95,1
1,37,0,5
1,49,74,1
1,49,0,5
1,49,28,1
1,49,0,5
1,37,112,1
1,37,0,5
1,34,127,7
1,34,0,5
1,34,86,7
1,34,0,5
1,34,74,1
1,34,0,5
1,34,106,1
1,34,0,5
1,46,74,1
1,46,0,5
1,34,106,1
1,34,0,5
1,34,64,7
1,34,0,5
1,34,117,7
1,34,0,5
1,34,95,1
1,34,0,5
1,46,74,1
1,46,0,5
1,46,28,1
1,46,0,5
1,34,112,1
1,34,0,5
1,35,127,7
1,35,0,5
1,35,86,7
1,35,0,5
1,35,74,1
1,35,0,5
1,35,106,1
1,35,0,5
1,47,74,1
1,47,0,5
1,35,106,1
1,35,0,5
1,35,64,7
1,35,0,5
1,35,117,7
1,35,0,5
1,35,95,1
1,35,0,5
1,47,74,1
1,47,0,5
1,47,28,1
1,47,0,5
1,35,112,1
1,35,0,5
1,38,127,7
1,38,0,5
1,38,86,7
1,38,0,5
1,38,74,1
1,38,0,5
1,38,106,1
1,38,0,5
1,50,74,1
1,50,0,5
1,38,106,1
1,38,0,5
1,38,64,7
1,38,0,5
1,38,117,7
1,38,0,5
1,38,95,1
1,38,0,5
1,50,74,1
1,50,0,5
1,50,28,1
1,50,0,5
1,38,112,1
1,38,0,5
1,38,127,7
1,38,0,5
1,38,86,7
1,38,0,5
1,38,74,1
1,38,0,5
1,38,106,1
1,38,0,5
1,50,74,1
1,50,0,5
1,38,106,1
1,38,0,5
1,38,64,7
1,38,0,5
1,38,117,7
1,38,0,5
1,38,95,1
1,38,0,5
1,50,74,1
1,50,0,5
1,50,28,1
1,50,0,5
1,38,112,1
1,38,0,5
1,38,28,1
1,38,0,5
1,39,127,1
1,39,0,5
1,39,76,7
1,39,0,5
1,39,64,1
1,39,0,5
1,39,96,1
1,39,0,5
1,51,64,1
1,51,0,5
1,39,96,1
1,39,0,5
1,39,54,7
1,39,0,5
1,39,107,7
1,39,0,5
1,39,85,1
1,39,0,5
1,51,64,1
1,51,0,5
1,51,18,1
1,51,0,5
1,39,102,1
1,39,0,5
1,34,127,7
1,34,0,5
1,34,76,7
1,34,0,5
1,34,64,1
1,34,0,5
1,34,96,1
1,34,0,5
