track,note,velocity,time
1,59,100,1020
1,59,0,30
1,61,100,0
1,61,0,30
1,62,100,0
1,62,0,180
1,55,100,0
1,55,0,120
1,67,100,0
1,67,0,120
1,57,100,0
1,57,0,60
1,62,100,0
1,62,0,60
1,64,100,0
1,64,0,120
1,66,100,0
1,66,0,60
1,64,100,0
1,64,0,60
1,62,100,0
1,62,0,60
1,59,100,60
1,59,0,30
1,61,100,0
1,61,0,30
1,62,100,0
1,62,0,180
1,55,100,0
1,55,0,120
1,67,100,0
1,67,0,120
1,57,100,0
1,57,0,60
1,62,100,0
1,62,0,60
1,64,100,0
1,64,0,120
1,66,100,0
1,66,0,60
1,64,100,0
1,64,0,60
1,62,100,0
1,62,0,60
1,59,100,60
1,59,0,30
1,61,100,0
1,61,0,30
1,62,100,0
1,62,0,180
1,55,100,0
1,55,0,120
1,67,100,0
1,67,0,120
1,57,100,0
1,57,0,60
1,62,100,0
1,62,0,60
1,64,100,0
1,64,0,120
1,66,100,0
1,66,0,60
1,64,100,0
1,64,0,60
1,62,100,0
1,62,0,60
1,59,100,60
1,59,0,30
1,61,100,0
1,61,0,30
1,62,100,0
1,62,0,180
1,55,100,0
1,55,0,120
1,67,100,0
1,67,0,120
1,57,100,0
1,57,0,60
1,62,100,0
1,62,0,60
1,64,100,0
1,64,0,120
1,66,100,0
1,66,0,60
1,64,100,0
1,64,0,60
1,62,100,0
1,62,0,60
1,59,100,60
1,59,0,30
1,61,100,0
1,61,0,30
1,62,100,0
1,62,0,180
1,55,100,0
1,55,0,120
1,67,100,0
1,67,0,120
1,57,100,0
1,57,0,60
1,62,100,0
1,62,0,60
1,64,100,0
1,64,0,120
1,66,100,0
1,66,0,60
1,62,100,0
1,62,0,60
1,57,100,0
1,57,0,60
1,64,100,60
1,64,0,30
1,59,100,0
1,59,0,30
1,52,100,0
1,52,0,180
1,55,100,0
1,55,0,120
1,67,100,0
1,67,0,120
1,57,100,0
1,57,0,60
1,62,100,0
1,62,0,60
1,64,100,0
1,64,0,120
1,66,100,0
1,66,0,60
1,64,100,0
1,64,0,60
1,62,100,0
1,62,0,60
1,59,100,60
1,59,0,30
1,61,100,0
1,61,0,30
1,62,100,0
1,62,0,180
1,55,100,0
1,55,0,120
1,67,100,0
1,67,0,120
1,57,100,0
1,57,0,60
1,62,100,0
1,62,0,60
1,64,100,0
1,64,0,120
1,66,100,0
1,66,0,60
1,62,100,0
1,62,0,60
1,57,100,0
1,57,0,60
1,64,100,60
1,64,0,30
1,59,100,0
1,59,0,30
1,52,100,0
1,52,0,180
1,55,100,0
1,55,0,120
1,67,100,0
1,67,0,120
1,57,100,0
1,57,0,60
1,62,100,0
1,62,0,60
1,64,100,0
1,64,0,120
1,66,100,0
1,66,0,60
1,64,100,0
1,64,0,60
1,62,100,0
1,62,0,60
1,57,100,60
1,57,0,60
1,61,100,0
1,61,0,60
1,66,100,0
1,66,0,120
1,61,100,0
1,61,0,120
1,57,100,0
1,57,0,120
1,55,100,0
1,55,0,60
1,59,100,0
1,59,0,60
1,55,100,0
1,55,0,120
1,59,100,0
1,59,0,120
1,55,100,0
1,55,0,120
1,57,100,0
1,57,0,60
1,62,100,0
1,62,0,60
1,66,100,0
1,66,0,120
1,62,100,0
1,62,0,120
1,57,100,0
1,57,0,120
1,57,100,0
1,57,0,60
1,59,100,0
1,59,0,60
1,61,100,0
1,61,0,120
1,62,100,0
1,62,0,180
1,57,100,60
1,57,0,60
1,61,100,0
1,61,0,60
1,66,100,0
1,66,0,120
1,61,100,0
1,61,0,120
1,57,100,0
1,57,0,120
1,55,100,0
1,55,0,60
1,59,100,0
1,59,0,60
1,67,100,0
1,67,0,120
1,59,100,0
1,59,0,120
1,55,100,0
1,55,0,120
1,57,100,0
1,57,0,60
1,62,100,0
1,62,0,60
1,66,100,0
1,66,0,120
1,62,100,0
1,62,0,120
1,57,100,0
1,57,0,120
1,57,100,0
1,57,0,60
1,59,100,0
1,59,0,60
1,61,100,0
1,61,0,120
1,66,100,0
1,66,0,60
1,64,100,0
1,64,0,60
1,62,100,0
1,62,0,60
1,59,100,7740
1,59,0,30
1,61,100,0
1,61,0,30
1,62,100,0
1,62,0,180
1,55,100,0
1,55,0,120
1,67,100,0
1,67,0,120
1,57,100,0
1,57,0,60
1,62,100,0
1,62,0,60
1,64,100,0
1,64,0,120
1,66,100,0
1,66,0,60
1,64,100,0
1,64,0,60
1,62,100,0
1,62,0,60
1,59,100,60
1,59,0,30
1,61,100,0
1,61,0,30
1,62,100,0
1,62,0,180
1,55,100,0
1,55,0,120
1,67,100,0
1,67,0,120
1,57,100,0
1,57,0,60
1,62,100,0
1,62,0,60
1,64,100,0
1,64,0,120
1,66,100,0
1,66,0,60
1,64,100,0
1,64,0,60
1,62,100,0
1,62,0,60
1,59,100,60
1,59,0,30
1,61,100,0
1,61,0,30
1,62,100,0
1,62,0,180
1,55,100,0
1,55,0,120
1,67,100,0
1,67,0,120
1,57,100,0
1,57,0,60
1,62,100,0
1,62,0,60
1,64,100,0
1,64,0,120
1,66,100,0
1,66,0,60
1,62,100,0
1,62,0,60
1,57,100,0
1,57,0,60
1,64,100,60
1,64,0,30
1,59,100,0
1,59,0,30
1,52,100,0
1,52,0,180
1,55,100,0
1,55,0,120
1,67,100,0
1,67,0,120
1,57,100,0
1,57,0,60
1,62,100,0
1,62,0,60
1,64,100,0
1,64,0,120
1,66,100,0
1,66,0,60
1,64,100,0
1,64,0,60
1,62,100,0
1,62,0,60
1,59,100,60
1,59,0,30
1,61,100,0
1,61,0,30
1,62,100,0
1,62,0,180
1,55,100,0
1,55,0,120
1,67,100,0
1,67,0,120
1,57,100,0
1,57,0,60
1,62,100,0
1,62,0,60
1,64,100,0
1,64,0,120
1,66,100,0
1,66,0,60
1,62,100,0
1,62,0,60
1,57,100,0
1,57,0,60
1,64,100,60
1,64,0,30
1,59,100,0
1,59,0,30
1,52,100,0
1,52,0,180
1,55,100,0
1,55,0,120
1,67,100,0
1,67,0,120
1,57,100,0
1,57,0,60
1,62,100,0
1,62,0,60
1,64,100,0
1,64,0,120
1,66,100,0
1,66,0,60
1,64,100,0
1,64,0,60
1,62,100,0
1,62,0,60
1,57,100,60
1,57,0,60
1,61,100,0
1,61,0,60
1,66,100,0
1,66,0,120
1,61,100,0
1,61,0,120
1,57,100,0
1,57,0,120
1,55,100,0
1,55,0,60
1,59,100,0
1,59,0,60
1,55,100,0
1,55,0,120
1,59,100,0
1,59,0,120
1,55,100,0
1,55,0,120
1,57,100,0
1,57,0,60
1,62,100,0
1,62,0,60
1,66,100,0
1,66,0,120
1,62,100,0
1,62,0,120
1,57,100,0
1,57,0,120
1,57,100,0
1,57,0,60
1,59,100,0
1,59,0,60
1,61,100,0
1,61,0,120
1,62,100,0
1,62,0,180
1,57,100,60
1,57,0,60
1,61,100,0
1,61,0,60
1,66,100,0
1,66,0,120
1,61,100,0
1,61,0,120
1,57,100,0
1,57,0,120
1,55,100,0
1,55,0,60
1,59,100,0
1,59,0,60
1,67,100,0
1,67,0,120
1,59,100,0
1,59,0,120
1,55,100,0
1,55,0,120
1,57,100,0
1,57,0,60
1,62,100,0
1,62,0,60
1,66,100,0
1,66,0,120
1,62,100,0
1,62,0,120
1,57,100,0
1,57,0,120
1,57,100,0
1,57,0,60
1,59,100,0
1,59,0,60
1,61,100,0
1,61,0,120
1,66,100,0
1,66,0,60
1,64,100,0
1,64,0,60
1,62,100,0
1,62,0,60
1,57,100,11580
1,57,0,60
1,61,100,0
1,61,0,60
1,66,100,0
1,66,0,120
1,61,100,0
1,61,0,120
1,57,100,0
1,57,0,120
1,55,100,0
1,55,0,60
1,59,100,0
1,59,0,60
1,55,100,0
1,55,0,120
1,59,100,0
1,59,0,120
1,55,100,0
1,55,0,120
1,57,100,0
1,57,0,60
1,62,100,0
1,62,0,60
1,66,100,0
1,66,0,120
1,62,100,0
1,62,0,120
1,57,100,0
1,57,0,120
1,57,100,0
1,57,0,60
1,59,100,0
1,59,0,60
1,61,100,0
1,61,0,120
1,62,100,0
1,62,0,180
1,57,100,60
1,57,0,60
1,61,100,0
1,61,0,60
1,66,100,0
1,66,0,120
1,61,100,0
1,61,0,120
1,57,100,0
1,57,0,120
1,55,100,0
1,55,0,60
1,59,100,0
1,59,0,60
1,67,100,0
1,67,0,120
1,59,100,0
1,59,0,120
1,55,100,0
1,55,0,120
1,57,100,0
1,57,0,60
1,62,100,0
1,62,0,60
1,66,100,0
1,66,0,120
1,62,100,0
1,62,0,120
1,57,100,0
1,57,0,120
1,57,100,0
1,57,0,60
1,59,100,0
1,59,0,60
1,61,100,0
1,61,0,120
1,66,100,0
1,66,0,60
1,64,100,0
1,64,0,60
1,62,100,0
1,62,0,60
2,54,100,960
2,54,0,180
2,43,100,0
2,43,0,270
2,50,100,30
2,50,0,480
2,54,100,0
2,54,0,180
2,43,100,0
2,43,0,270
2,50,100,30
2,50,0,480
2,54,100,0
2,54,0,180
2,43,100,0
2,43,0,270
2,50,100,30
2,50,0,480
2,54,100,0
2,54,0,180
2,43,100,0
2,43,0,270
2,50,100,30
2,50,0,480
2,54,100,0
2,54,0,180
2,43,100,0
2,43,0,270
2,50,100,30
2,50,0,480
2,55,100,0
2,55,0,180
2,43,100,0
2,43,0,270
2,50,100,30
2,50,0,480
2,54,100,0
2,54,0,180
2,43,100,0
2,43,0,270
2,50,100,30
2,50,0,480
2,55,100,0
2,55,0,180
2,43,100,0
2,43,0,270
2,50,100,30
2,50,0,480
2,54,100,0
2,54,0,480
2,43,100,0
2,43,0,480
2,50,100,0
2,50,0,480
2,45,100,0
2,45,0,420
2,52,100,0
2,52,0,60
2,54,100,0
2,54,0,480
2,43,100,0
2,43,0,480
2,50,100,0
2,50,0,480
2,45,100,0
2,45,0,480
2,54,100,7680
2,54,0,180
2,43,100,0
2,43,0,270
2,50,100,30
2,50,0,480
2,54,100,0
2,54,0,180
2,43,100,0
2,43,0,270
2,50,100,30
2,50,0,480
2,54,100,0
2,54,0,180
2,43,100,0
2,43,0,270
2,50,100,30
2,50,0,480
2,55,100,0
2,55,0,180
2,43,100,0
2,43,0,270
2,50,100,30
2,50,0,480
2,54,100,0
2,54,0,180
2,43,100,0
2,43,0,270
2,50,100,30
2,50,0,480
2,55,100,0
2,55,0,180
2,43,100,0
2,43,0,270
2,50,100,30
2,50,0,480
2,54,100,0
2,54,0,480
2,43,100,0
2,43,0,480
2,50,100,0
2,50,0,480
2,45,100,0
2,45,0,420
2,52,100,0
2,52,0,60
2,54,100,0
2,54,0,480
2,43,100,0
2,43,0,480
2,50,100,0
2,50,0,480
2,45,100,0
2,45,0,480
2,54,100,11520
2,54,0,480
2,43,100,0
2,43,0,480
2,50,100,0
2,50,0,480
2,45,100,0
2,45,0,420
2,52,100,0
2,52,0,60
2,54,100,0
2,54,0,480
2,43,100,0
2,43,0,480
2,50,100,0
2,50,0,480
2,45,100,0
2,45,0,480
3,57,100,10130
3,57,0,46
3,59,100,14
3,59,0,39
3,61,100,21
3,61,0,56
3,66,100,64
3,66,0,51
3,64,100,9
3,64,0,42
3,62,100,18
3,62,0,62
3,74,84,1918
3,74,0,29
3,69,84,1
3,69,0,29
3,65,84,1
3,65,0,29
3,62,84,1
3,62,0,29
3,69,84,1
3,69,0,29
3,65,84,1
3,65,0,29
3,62,84,1
3,62,0,29
3,57,84,1
3,57,0,29
3,65,84,1
3,65,0,29
3,62,84,1
3,62,0,29
3,57,84,1
3,57,0,29
3,53,84,1
3,53,0,29
3,62,84,1
3,62,0,29
3,57,84,1
3,57,0,29
3,53,84,1
3,53,0,29
3,50,84,1
3,50,0,29
3,79,84,1
3,79,0,29
3,74,84,1
3,74,0,29
3,70,84,1
3,70,0,29
3,67,84,1
3,67,0,29
3,74,84,1
3,74,0,29
3,70,84,1
3,70,0,29
3,67,84,1
3,67,0,29
3,62,84,1
3,62,0,29
3,70,84,1
3,70,0,29
3,67,84,1
3,67,0,29
3,62,84,1
3,62,0,29
3,58,84,1
3,58,0,29
3,62,84,1
3,62,0,29
3,58,84,1
3,58,0,29
3,55,84,1
3,55,0,29
3,50,83,1
3,50,0,29
3,70,83,1
3,70,0,29
3,67,83,1
3,67,0,29
3,62,83,1
3,62,0,29
3,58,82,1
3,58,0,29
3,67,82,1
3,67,0,29
3,62,82,1
3,62,0,29
3,58,82,1
3,58,0,29
3,55,82,1
3,55,0,29
3,62,82,1
3,62,0,29
3,58,82,1
3,58,0,29
3,55,82,1
3,55,0,29
3,50,82,1
3,50,0,29
3,58,82,1
3,58,0,29
3,55,82,1
3,55,0,29
3,50,82,1
3,50,0,29
3,46,81,1
3,46,0,29
3,69,81,1
3,69,0,29
3,64,81,1
3,64,0,29
3,60,81,1
3,60,0,29
3,57,81,1
3,57,0,29
3,64,81,1
3,64,0,29
3,60,81,1
3,60,0,29
3,57,80,1
3,57,0,29
3,52,80,1
3,52,0,29
3,60,80,1
3,60,0,29
3,57,80,1
3,57,0,29
3,52,80,1
3,52,0,29
3,48,80,1
3,48,0,29
3,57,80,1
3,57,0,29
3,52,79,1
3,52,0,29
3,48,79,1
3,48,0,29
3,45,83,1
3,45,0,29
3,72,83,1
3,72,0,29
3,67,83,1
3,67,0,29
3,64,83,1
3,64,0,29
3,60,83,1
3,60,0,29
3,67,82,1
3,67,0,29
3,64,82,1
3,64,0,29
3,60,82,1
3,60,0,29
3,55,82,1
3,55,0,29
3,60,82,1
3,60,0,29
3,55,82,1
3,55,0,29
3,52,82,1
3,52,0,29
3,48,82,1
3,48,0,29
3,55,82,1
3,55,0,29
3,52,82,1
3,52,0,29
3,48,82,1
3,48,0,29
3,43,82,1
3,43,0,29
3,72,82,1
3,72,0,29
3,67,82,1
3,67,0,29
3,64,82,1
3,64,0,29
3,60,82,1
3,60,0,29
3,67,82,1
3,67,0,29
3,64,82,1
3,64,0,29
3,60,82,1
3,60,0,29
3,55,82,1
3,55,0,29
3,60,82,1
3,60,0,29
3,55,82,1
3,55,0,29
3,52,82,1
3,52,0,29
3,48,82,1
3,48,0,29
3,55,82,1
3,55,0,29
3,52,82,1
3,52,0,29
3,48,82,1
3,48,0,29
3,43,81,1
3,43,0,29
3,69,81,1
3,69,0,29
3,64,81,1
3,64,0,29
3,60,81,1
3,60,0,29
3,57,81,1
3,57,0,29
3,64,81,1
3,64,0,29
3,60,81,1
3,60,0,29
3,57,81,1
3,57,0,29
3,52,81,1
3,52,0,29
3,60,81,1
3,60,0,29
3,57,81,1
3,57,0,29
3,52,81,1
3,52,0,29
3,48,81,1
3,48,0,29
3,57,81,1
3,57,0,29
3,52,81,1
3,52,0,29
3,48,81,1
3,48,0,29
3,45,81,1
3,45,0,29
3,74,81,1
3,74,0,29
3,69,81,1
3,69,0,29
3,65,81,1
3,65,0,29
3,62,81,1
3,62,0,29
3,69,80,1
3,69,0,29
3,65,80,1
3,65,0,29
3,62,80,1
3,62,0,29
3,57,80,1
3,57,0,29
3,65,80,1
3,65,0,29
3,62,80,1
3,62,0,29
3,57,80,1
3,57,0,29
3,53,80,1
3,53,0,29
3,62,80,1
3,62,0,29
3,57,80,1
3,57,0,29
3,53,80,1
3,53,0,29
3,50,78,1
3,50,0,29
3,70,78,1
3,70,0,29
3,65,79,1
3,65,0,29
3,62,79,1
3,62,0,29
3,58,79,1
3,58,0,29
3,65,80,1
3,65,0,29
3,62,80,1
3,62,0,29
3,58,80,1
3,58,0,29
3,53,80,1
3,53,0,29
3,62,80,1
3,62,0,29
3,58,81,1
3,58,0,29
3,53,81,1
3,53,0,29
3,50,81,1
3,50,0,29
3,58,81,1
3,58,0,29
3,53,81,1
3,53,0,29
3,50,81,1
3,50,0,29
3,46,81,1
3,46,0,29
3,72,81,1
3,72,0,29
3,67,81,1
3,67,0,29
3,64,81,1
3,64,0,29
3,60,80,1
3,60,0,29
3,67,80,1
3,67,0,29
3,64,80,1
3,64,0,29
3,60,80,1
3,60,0,29
