track,note,velocity,time
1,51,108,0
1,51,0,60
1,46,108,0
1,46,0,120
1,51,108,0
1,51,0,60
1,46,108,0
1,46,0,120
1,51,108,0
1,51,0,60
1,46,108,0
1,46,0,60
1,53,108,0
1,53,0,60
1,46,108,0
1,46,0,120
1,53,108,0
1,53,0,60
1,46,108,0
1,46,0,120
1,53,108,0
1,53,0,60
1,46,108,0
1,46,0,60
1,51,108,0
1,51,0,60
1,47,108,0
1,47,0,60
1,42,108,0
1,42,0,60
1,35,108,0
1,35,0,120
1,47,108,0
1,47,0,60
1,51,108,0
1,51,0,60
1,47,108,0
1,47,0,60
1,49,108,0
1,49,0,60
1,44,108,0
1,44,0,60
1,41,108,0
1,41,0,60
1,37,108,0
1,37,0,120
1,49,108,0
1,49,0,60
1,53,108,0
1,53,0,60
1,49,108,0
1,49,0,60
1,51,108,0
1,51,0,60
1,46,108,0
1,46,0,120
1,51,108,0
1,51,0,60
1,46,108,0
1,46,0,120
1,51,108,0
1,51,0,60
1,46,108,0
1,46,0,60
1,53,108,0
1,53,0,60
1,46,108,0
1,46,0,120
1,53,108,0
1,53,0,60
1,46,108,0
1,46,0,120
1,53,108,0
1,53,0,60
1,46,108,0
1,46,0,60
1,51,108,0
1,51,0,60
1,47,108,0
1,47,0,60
1,42,108,0
1,42,0,60
1,35,108,0
1,35,0,120
1,47,108,0
1,47,0,60
1,51,108,0
1,51,0,60
1,47,108,0
1,47,0,60
1,49,108,0
1,49,0,60
1,44,108,0
1,44,0,120
1,49,108,0
1,49,0,60
1,44,108,0
1,44,0,120
1,49,108,0
1,49,0,60
1,44,108,0
1,44,0,60
1,51,108,0
1,51,0,60
1,46,108,0
1,46,0,120
1,51,108,0
1,51,0,60
1,46,108,0
1,46,0,120
1,51,108,0
1,51,0,60
1,46,108,0
1,46,0,60
1,53,108,0
1,53,0,60
1,46,108,0
1,46,0,120
1,53,108,0
1,53,0,60
1,46,108,0
1,46,0,120
1,53,108,0
1,53,0,60
1,46,108,0
1,46,0,60
1,51,108,0
1,51,0,60
1,47,108,0
1,47,0,60
1,42,108,0
1,42,0,60
1,35,108,0
1,35,0,120
1,47,108,0
1,47,0,60
1,51,108,0
1,51,0,60
1,47,108,0
1,47,0,60
1,49,108,0
1,49,0,60
1,44,108,0
1,44,0,60
1,41,108,0
1,41,0,60
1,37,108,0
1,37,0,120
1,49,108,0
1,49,0,60
1,53,108,0
1,53,0,60
1,49,108,0
1,49,0,60
1,51,108,0
1,51,0,60
1,46,108,0
1,46,0,120
1,51,108,0
1,51,0,60
1,46,108,0
1,46,0,120
1,51,108,0
1,51,0,60
1,46,108,0
1,46,0,60
1,53,108,0
1,53,0,60
1,46,108,0
1,46,0,120
1,53,108,0
1,53,0,60
1,46,108,0
1,46,0,120
1,53,108,0
1,53,0,60
1,46,108,0
1,46,0,60
1,51,108,0
1,51,0,60
1,47,108,0
1,47,0,60
1,42,108,0
1,42,0,60
1,35,108,0
1,35,0,120
1,47,108,0
1,47,0,60
1,51,108,0
1,51,0,60
1,47,108,0
1,47,0,60
1,49,108,0
1,49,0,60
1,44,108,0
1,44,0,120
1,49,108,0
1,49,0,60
1,44,108,0
1,44,0,120
1,49,108,0
1,49,0,60
1,44,108,0
1,44,0,60
1,24,108,40320
1,24,0,180
1,46,108,0
1,46,0,60
1,46,108,0
1,46,0,60
1,46,108,0
1,46,0,60
1,46,108,0
1,46,0,30
1,48,108,0
1,48,0,90
1,24,108,0
1,24,0,120
1,27,108,0
1,27,0,60
1,48,108,0
1,48,0,60
1,48,108,0
1,48,0,60
1,48,108,0
1,48,0,60
1,48,108,0
1,48,0,30
1,51,108,0
1,51,0,90
1,31,108,0
1,31,0,180
1,41,108,0
1,41,0,60
1,41,108,0
1,41,0,60
1,41,108,0
1,41,0,60
1,41,108,0
1,41,0,30
1,43,108,0
1,43,0,90
1,24,108,0
1,24,0,180
1,46,108,0
1,46,0,60
1,46,108,0
1,46,0,60
1,46,108,0
1,46,0,60
1,46,108,0
1,46,0,30
1,48,108,0
1,48,0,90
1,24,108,0
1,24,0,180
1,46,108,0
1,46,0,60
1,46,108,0
1,46,0,60
1,46,108,0
1,46,0,60
1,46,108,0
1,46,0,30
1,48,108,0
1,48,0,90
1,24,108,0
1,24,0,120
1,27,108,0
1,27,0,60
1,48,108,0
1,48,0,60
1,48,108,0
1,48,0,60
1,48,108,0
1,48,0,60
1,48,108,0
1,48,0,30
1,51,108,0
1,51,0,90
1,31,108,0
1,31,0,180
1,41,108,0
1,41,0,60
1,41,108,0
1,41,0,60
1,41,108,0
1,41,0,60
1,41,108,0
1,41,0,30
1,43,108,0
1,43,0,90
1,24,108,0
1,24,0,180
1,46,108,0
1,46,0,60
1,46,108,0
1,46,0,60
1,46,108,0
1,46,0,60
1,46,108,0
1,46,0,30
1,48,108,0
1,48,0,570
1,29,108,0
1,29,0,120
1,27,108,300
1,27,0,60
1,29,108,0
1,29,0,120
1,31,108,300
1,31,0,60
1,24,108,0
1,24,0,120
1,24,108,300
1,24,0,540
1,29,108,0
1,29,0,120
1,27,108,300
1,27,0,60
1,29,108,0
1,29,0,120
1,31,108,300
1,31,0,60
1,24,108,0
1,24,0,120
1,24,108,300
1,24,0,120
1,24,108,7620
1,24,0,180
1,46,108,0
1,46,0,60
1,46,108,0
1,46,0,60
1,46,108,0
1,46,0,60
1,46,108,0
1,46,0,30
1,48,108,0
1,48,0,90
1,24,108,0
1,24,0,120
1,27,108,0
1,27,0,60
1,48,108,0
1,48,0,60
1,48,108,0
1,48,0,60
1,48,108,0
1,48,0,60
1,48,108,0
1,48,0,30
1,51,108,0
1,51,0,90
1,31,108,0
1,31,0,180
1,41,108,0
1,41,0,60
1,41,108,0
1,41,0,60
1,41,108,0
1,41,0,60
1,41,108,0
1,41,0,30
1,43,108,0
1,43,0,90
1,24,108,0
1,24,0,180
1,46,108,0
1,46,0,60
1,46,108,0
1,46,0,60
1,46,108,0
1,46,0,60
1,46,108,0
1,46,0,30
1,48,108,0
1,48,0,90
1,24,108,0
1,24,0,180
1,46,108,0
1,46,0,60
1,46,108,0
1,46,0,60
1,46,108,0
1,46,0,60
1,46,108,0
1,46,0,30
1,48,108,0
1,48,0,90
1,24,108,0
1,24,0,120
1,27,108,0
1,27,0,60
1,48,108,0
1,48,0,60
1,48,108,0
1,48,0,60
1,48,108,0
1,48,0,60
1,48,108,0
1,48,0,30
1,51,108,0
1,51,0,90
1,31,108,0
1,31,0,180
1,41,108,0
1,41,0,60
1,41,108,0
1,41,0,60
1,41,108,0
1,41,0,60
1,41,108,0
1,41,0,30
1,43,108,0
1,43,0,90
1,24,108,0
1,24,0,180
1,46,108,0
1,46,0,60
1,46,108,0
1,46,0,60
1,46,108,0
1,46,0,60
1,46,108,0
1,46,0,30
1,48,108,0
1,48,0,90
1,34,48,5760
1,34,0,60
1,46,108,0
1,46,0,30
1,46,108,0
1,46,0,90
1,34,108,0
1,34,0,60
1,34,108,0
1,34,0,60
1,46,108,0
1,46,0,30
1,46,108,0
1,46,0,150
1,36,108,0
1,36,0,60
1,48,108,0
1,48,0,30
1,48,108,0
1,48,0,90
1,36,108,0
1,36,0,60
1,36,108,0
1,36,0,60
1,48,108,0
1,48,0,30
1,48,108,0
1,48,0,90
1,36,108,0
1,36,0,60
1,34,108,0
1,34,0,60
1,46,108,0
1,46,0,30
1,46,108,0
1,46,0,90
1,34,108,0
1,34,0,60
1,41,108,0
1,41,0,60
1,53,108,0
1,53,0,30
1,53,108,0
1,53,0,90
1,41,108,0
1,41,0,30
1,53,108,0
1,53,0,30
1,36,108,0
1,36,0,60
1,48,108,0
1,48,0,30
1,48,108,0
1,48,0,90
1,36,108,0
1,36,0,30
1,48,108,0
1,48,0,30
1,36,108,0
1,36,0,240
1,34,108,0
1,34,0,60
1,46,108,0
1,46,0,30
1,46,108,0
1,46,0,180
1,34,108,0
1,34,0,60
1,46,108,0
1,46,0,30
1,46,108,0
1,46,0,60
1,34,108,0
1,34,0,60
1,36,108,0
1,36,0,60
1,48,108,0
1,48,0,30
1,48,108,0
1,48,0,120
1,36,108,0
1,36,0,30
1,36,108,0
1,36,0,60
1,48,108,0
1,48,0,30
1,48,108,0
1,48,0,60
1,36,108,0
1,36,0,60
1,48,108,0
1,48,0,30
1,34,108,0
1,34,0,60
1,46,108,0
1,46,0,30
1,46,108,0
1,46,0,90
1,34,108,0
1,34,0,60
1,41,108,0
1,41,0,60
1,53,108,0
1,53,0,30
1,53,108,0
1,53,0,90
1,41,108,0
1,41,0,30
1,40,108,0
1,40,0,30
1,36,108,0
1,36,0,60
1,48,108,0
1,48,0,30
1,48,108,0
1,48,0,90
1,36,108,0
1,36,0,30
1,48,108,0
1,48,0,30
1,36,108,0
1,36,0,180
1,51,108,15900
1,51,0,60
1,46,108,0
1,46,0,120
1,51,108,0
1,51,0,60
1,46,108,0
1,46,0,120
1,51,108,0
1,51,0,60
1,46,108,0
1,46,0,60
1,53,108,0
1,53,0,60
1,46,108,0
1,46,0,120
1,53,108,0
1,53,0,60
1,46,108,0
1,46,0,120
1,53,108,0
1,53,0,60
1,46,108,0
1,46,0,60
1,51,108,0
1,51,0,60
1,51,108,0
1,51,0,120
1,51,108,0
1,51,0,30
1,51,108,0
1,51,0,60
1,51,108,0
1,51,0,60
1,51,108,0
1,51,0,30
1,51,108,0
1,51,0,60
1,51,108,0
1,51,0,60
2,39,96,3840
2,39,0,60
2,39,96,0
2,39,0,30
2,39,96,0
2,39,0,90
2,39,96,0
2,39,0,30
2,39,96,0
2,39,0,30
2,39,96,0
2,39,0,60
2,39,96,0
2,39,0,30
2,39,96,0
2,39,0,90
2,39,96,0
2,39,0,30
2,39,96,0
2,39,0,30
2,34,96,0
2,34,0,60
2,34,96,0
2,34,0,30
2,34,96,0
2,34,0,90
2,34,96,0
2,34,0,30
2,34,96,0
2,34,0,30
2,34,96,0
2,34,0,60
2,34,96,0
2,34,0,30
2,34,96,0
2,34,0,90
2,34,96,0
2,34,0,30
2,34,96,0
2,34,0,30
2,35,96,0
2,35,0,60
2,35,96,0
2,35,0,30
2,35,96,0
2,35,0,90
2,35,96,0
2,35,0,30
2,35,96,0
2,35,0,30
2,35,96,0
2,35,0,60
2,35,96,0
2,35,0,30
2,35,96,0
2,35,0,90
2,35,96,0
2,35,0,30
2,35,96,0
2,35,0,30
2,37,96,0
2,37,0,60
2,37,96,0
2,37,0,30
2,37,96,0
2,37,0,90
2,37,96,0
2,37,0,30
2,37,96,0
2,37,0,30
2,37,96,0
2,37,0,60
2,37,96,0
2,37,0,30
2,37,96,0
2,37,0,90
2,37,96,0
2,37,0,30
2,37,96,0
2,37,0,30
2,39,96,0
2,39,0,60
2,39,96,0
2,39,0,30
2,39,96,0
2,39,0,90
2,39,96,0
2,39,0,30
2,39,96,0
2,39,0,30
2,39,96,0
2,39,0,60
2,39,96,0
2,39,0,30
2,39,96,0
2,39,0,90
2,39,96,0
2,39,0,30
2,39,96,0
2,39,0,30
2,34,96,0
2,34,0,60
2,34,96,0
2,34,0,30
2,34,96,0
2,34,0,90
2,34,96,0
2,34,0,30
2,34,96,0
2,34,0,30
2,34,96,0
2,34,0,60
2,34,96,0
2,34,0,30
2,34,96,0
2,34,0,90
2,34,96,0
2,34,0,30
2,34,96,0
2,34,0,30
2,35,96,0
2,35,0,60
2,35,96,0
2,35,0,30
2,35,96,0
2,35,0,90
2,35,96,0
2,35,0,30
2,35,96,0
2,35,0,30
2,35,96,0
2,35,0,60
2,35,96,0
2,35,0,30
2,35,96,0
2,35,0,90
2,35,96,0
2,35,0,30
2,35,96,0
2,35,0,30
2,37,96,0
2,37,0,60
2,37,96,0
2,37,0,30
2,37,96,0
2,37,0,30
2,37,96,60
2,37,0,30
2,37,96,0
2,37,0,30
2,37,96,0
2,37,0,60
2,37,96,0
2,37,0,30
2,37,96,0
2,37,0,30
2,37,96,60
2,37,0,30
2,37,96,0
2,37,0,30
2,34,96,0
2,34,0,60
2,34,96,0
2,34,0,30
2,34,96,0
2,34,0,90
2,34,96,0
2,34,0,30
2,34,96,0
2,34,0,30
2,34,96,0
2,34,0,60
2,34,96,0
2,34,0,30
2,34,96,0
2,34,0,90
2,34,96,0
2,34,0,30
2,34,96,0
2,34,0,30
2,32,96,0
2,32,0,60
2,32,96,0
2,32,0,30
2,32,96,0
2,32,0,90
2,32,96,0
2,32,0,30
2,32,96,0
2,32,0,30
2,39,96,0
2,39,0,60
2,39,96,0
2,39,0,30
2,39,96,0
2,39,0,90
2,39,96,0
2,39,0,30
2,39,96,0
2,39,0,30
2,34,96,0
2,34,0,60
2,34,96,0
2,34,0,30
2,34,96,0
2,34,0,90
2,34,96,0
2,34,0,30
2,34,96,0
2,34,0,30
2,34,96,0
2,34,0,60
2,34,96,0
2,34,0,30
2,34,96,0
2,34,0,90
2,34,96,0
2,34,0,30
2,34,96,0
2,34,0,30
2,32,96,0
2,32,0,60
2,32,96,0
2,32,0,30
2,32,96,0
2,32,0,90
2,32,96,0
2,32,0,30
2,32,96,0
2,32,0,30
2,39,96,0
2,39,0,60
2,39,96,0
2,39,0,30
2,39,96,0
2,39,0,90
2,39,96,0
2,39,0,30
2,39,96,0
2,39,0,30
2,34,96,0
2,34,0,60
2,34,96,0
2,34,0,30
2,34,96,0
2,34,0,90
2,34,96,0
2,34,0,30
2,34,96,0
2,34,0,30
2,34,96,0
2,34,0,60
2,34,96,0
2,34,0,30
2,34,96,0
2,34,0,90
2,34,96,0
2,34,0,30
2,34,96,0
2,34,0,30
2,32,96,0
2,32,0,60
2,32,96,0
2,32,0,30
2,32,96,0
2,32,0,90
2,32,96,0
2,32,0,30
2,32,96,0
2,32,0,30
2,39,96,0
2,39,0,60
2,39,96,0
2,39,0,30
2,39,96,0
2,39,0,90
2,39,96,0
2,39,0,30
2,39,96,0
2,39,0,30
2,34,96,0
2,34,0,60
2,34,96,0
2,34,0,30
2,34,96,0
2,34,0,90
2,34,96,0
2,34,0,30
2,34,96,0
2,34,0,30
2,34,96,0
2,34,0,60
2,34,96,0
2,34,0,30
2,34,96,0
2,34,0,90
2,34,96,0
2,34,0,30
2,34,96,0
2,34,0,30
2,32,96,0
2,32,0,60
2,32,96,0
2,32,0,30
2,32,96,0
2,32,0,90
2,32,96,0
2,32,0,30
2,32,96,0
2,32,0,30
2,39,96,0
2,39,0,60
2,39,96,0
2,39,0,30
2,39,96,0
2,39,0,90
2,39,96,0
2,39,0,30
2,39,96,0
2,39,0,30
2,36,96,0
2,36,0,60
2,36,96,0
2,36,0,30
2,36,96,0
2,36,0,90
2,36,96,0
2,36,0,30
2,36,96,0
2,36,0,30
2,36,96,0
2,36,0,60
2,36,96,0
2,36,0,30
2,36,96,0
2,36,0,90
2,36,96,0
2,36,0,30
2,36,96,0
2,36,0,30
2,29,96,0
2,29,0,60
2,29,96,0
2,29,0,30
2,29,96,0
2,29,0,90
2,29,96,0
2,29,0,30
2,29,96,0
2,29,0,30
2,29,96,0
2,29,0,60
2,29,96,0
2,29,0,30
2,29,96,0
2,29,0,90
2,29,96,0
2,29,0,30
2,29,96,0
2,29,0,30
2,37,96,0
2,37,0,60
2,37,96,0
2,37,0,30
2,37,96,0
2,37,0,90
2,37,96,0
2,37,0,30
2,37,96,0
2,37,0,30
2,32,96,0
2,32,0,60
2,32,96,0
2,32,0,30
2,32,96,0
2,32,0,90
2,32,96,0
2,32,0,30
2,32,96,0
2,32,0,30
2,34,96,0
2,34,0,60
2,34,96,0
2,34,0,30
2,34,96,0
2,34,0,90
2,34,96,0
2,34,0,30
2,34,96,0
2,34,0,30
2,34,96,0
2,34,0,60
2,34,96,0
2,34,0,30
2,34,96,0
2,34,0,90
2,34,96,0
2,34,0,30
2,34,96,0
2,34,0,30
2,39,96,0
2,39,0,60
2,39,96,0
2,39,0,30
2,39,96,0
2,39,0,90
2,39,96,0
2,39,0,30
2,39,96,0
2,39,0,30
