track,note,velocity,time
1,66,103,1910
1,62,103,0
1,69,103,0
1,69,0,479
1,62,0,0
1,66,0,0
1,62,103,1
1,71,103,0
1,67,103,0
1,67,0,479
1,71,0,0
1,62,0,0
1,57,103,1
1,64,103,0
1,61,103,0
1,61,0,960
1,64,0,0
1,57,0,0
1,66,103,0
1,62,103,0
1,69,103,0
1,69,0,479
1,62,0,0
1,66,0,0
1,62,103,1
1,71,103,0
1,67,103,0
1,67,0,479
1,71,0,0
1,62,0,0
1,57,103,1
1,64,103,0
1,61,103,0
1,61,0,960
1,64,0,0
1,57,0,0
1,66,103,0
1,62,103,0
1,69,103,0
1,69,0,479
1,62,0,0
1,66,0,0
1,62,103,1
1,71,103,0
1,67,103,0
1,67,0,479
1,71,0,0
1,62,0,0
1,57,103,1
1,64,103,0
1,61,103,0
1,61,0,960
1,64,0,0
1,57,0,0
1,64,111,0
1,60,111,0
1,67,111,0
1,67,0,479
1,60,0,0
1,64,0,0
1,67,111,1
1,59,111,0
1,62,111,0
1,62,0,479
1,59,0,0
1,67,0,0
1,57,111,1
1,62,111,0
1,66,111,0
1,66,0,960
1,62,0,0
1,57,0,0
1,64,111,0
1,55,111,0
1,60,111,0
1,60,0,479
1,55,0,0
1,64,0,0
1,59,111,1
1,62,111,0
1,55,111,0
1,55,0,479
1,62,0,0
1,59,0,0
1,62,111,1
1,54,111,0
1,57,111,0
1,57,0,960
1,54,0,0
1,62,0,0
1,67,108,0
1,60,108,0
1,64,108,0
1,64,0,960
1,60,0,0
1,67,0,0
1,60,110,0
1,65,110,0
1,69,110,0
1,69,0,960
1,65,0,0
1,60,0,0
1,67,111,0
1,72,111,0
1,62,111,0
1,62,0,960
1,72,0,0
1,67,0,0
1,72,111,0
1,67,111,0
1,64,111,0
1,64,0,960
1,67,0,0
1,72,0,0
1,48,110,0
1,60,110,0
1,67,110,0
1,64,110,0
1,64,0,960
1,48,0,0
1,60,0,0
1,67,0,0
1,53,112,0
1,65,112,0
1,60,112,0
1,69,112,0
1,69,0,960
1,53,0,0
1,65,0,0
1,60,0,0
1,55,109,0
1,67,109,0
1,72,109,0
1,62,109,0
1,62,0,960
1,55,0,0
1,67,0,0
1,72,0,0
1,60,109,0
1,72,109,0
1,67,109,0
1,64,109,0
1,64,0,960
1,60,0,0
1,72,0,0
1,67,0,0
1,69,91,0
1,62,91,0
1,66,91,0
1,69,0,461
1,66,0,2
1,62,0,0
1,67,91,17
1,71,91,0
1,62,91,0
1,62,0,451
1,67,0,0
1,71,0,5
1,64,91,24
1,69,91,0
1,73,91,0
1,73,0,897
1,69,0,3
1,64,0,7
1,66,91,53
1,62,91,0
1,69,91,0
1,69,0,454
1,62,0,2
1,66,0,2
1,71,91,22
1,62,91,0
1,67,91,0
1,67,0,439
1,62,0,0
1,71,0,5
1,69,91,36
1,64,91,0
1,73,91,0
1,73,0,903
1,69,0,9
1,64,0,3
1,67,91,45
1,60,91,0
1,64,91,0
1,64,0,454
1,60,0,14
1,67,0,0
1,59,91,12
1,62,91,0
1,67,91,0
1,67,0,439
1,62,0,10
1,59,0,0
1,62,91,31
1,66,91,0
1,57,91,0
1,66,0,917
1,57,0,3
1,62,0,2
1,67,91,38
1,60,91,0
1,64,91,0
1,64,0,441
1,60,0,5
1,67,0,10
1,67,91,24
1,62,91,0
1,59,91,0
1,59,0,454
1,62,0,2
1,67,0,0
1,62,91,24
1,66,91,0
1,57,91,0
1,57,0,912
1,62,0,5
1,66,0,2
1,48,110,41
1,60,110,0
1,67,110,0
1,64,110,0
1,64,0,960
1,48,0,0
1,60,0,0
1,67,0,0
1,53,112,0
1,65,112,0
1,60,112,0
1,69,112,0
1,69,0,960
1,53,0,0
1,65,0,0
1,60,0,0
1,55,109,0
1,67,109,0
1,72,109,0
1,62,109,0
1,62,0,960
1,55,0,0
1,67,0,0
1,72,0,0
1,60,109,0
1,72,109,0
1,67,109,0
1,64,109,0
1,64,0,960
1,60,0,0
1,72,0,0
1,67,0,0
1,48,110,0
1,60,110,0
1,67,110,0
1,64,110,0
1,64,0,960
1,48,0,0
1,60,0,0
1,67,0,0
1,53,112,0
1,65,112,0
1,60,112,0
1,69,112,0
1,69,0,960
1,53,0,0
1,65,0,0
1,60,0,0
1,55,109,0
1,67,109,0
1,72,109,0
1,62,109,0
1,62,0,960
1,55,0,0
1,67,0,0
1,72,0,0
1,60,109,0
1,72,109,0
1,67,109,0
1,64,109,0
1,64,0,960
1,60,0,0
1,72,0,0
1,67,0,0
1,66,109,0
1,69,109,0
1,62,109,0
1,62,0,479
1,69,0,0
1,66,0,0
1,59,109,1
1,66,109,0
1,62,109,0
1,69,109,0
1,69,0,479
1,59,0,0
1,66,0,0
1,62,0,0
1,59,109,1
1,62,109,0
1,67,109,0
1,67,0,479
1,62,0,0
1,59,0,0
1,62,110,1
1,64,110,0
1,69,110,0
1,62,0,240
1,61,111,0
1,69,0,239
1,64,0,0
1,61,0,1
1,57,111,0
1,61,111,0
1,66,111,0
1,66,0,479
1,61,0,0
1,57,0,0
1,61,112,1
1,57,112,0
1,66,112,0
1,66,0,479
1,57,0,0
1,61,0,0
1,67,111,1
1,59,111,0
1,62,111,0
1,62,0,479
1,59,0,0
1,67,0,0
1,62,111,1
1,69,111,0
1,64,111,0
1,62,0,240
1,61,111,0
1,64,0,239
1,69,0,0
1,61,0,1
1,67,111,3840
1,72,111,0
1,64,111,0
1,64,0,479
1,72,0,0
1,67,0,0
1,67,109,1
1,62,109,0
1,71,109,0
1,71,0,479
1,62,0,0
1,67,0,0
1,62,108,1
1,66,108,0
1,69,108,0
1,69,0,960
1,66,0,0
1,62,0,0
1,67,107,0
1,72,107,0
1,64,107,0
1,64,0,479
1,72,0,0
1,67,0,0
1,67,108,1
1,62,108,0
1,71,108,0
1,71,0,479
1,62,0,0
1,67,0,0
1,62,109,1
1,66,109,0
1,69,109,0
1,69,0,960
1,66,0,0
1,62,0,0
1,48,110,0
1,60,110,0
1,67,110,0
1,64,110,0
1,64,0,960
1,48,0,0
1,60,0,0
1,67,0,0
1,53,112,0
1,65,112,0
1,60,112,0
1,69,112,0
1,69,0,960
1,53,0,0
1,65,0,0
1,60,0,0
1,55,109,0
1,67,109,0
1,72,109,0
1,62,109,0
1,62,0,960
1,55,0,0
1,67,0,0
1,72,0,0
1,60,109,0
1,72,109,0
1,67,109,0
1,64,109,0
1,64,0,960
1,60,0,0
1,72,0,0
1,67,0,0
1,48,110,0
1,60,110,0
1,67,110,0
1,64,110,0
1,64,0,960
1,48,0,0
1,60,0,0
1,67,0,0
1,53,112,0
1,65,112,0
1,60,112,0
1,69,112,0
1,69,0,960
1,53,0,0
1,65,0,0
1,60,0,0
1,55,109,0
1,67,109,0
1,72,109,0
1,62,109,0
1,62,0,960
1,55,0,0
1,67,0,0
1,72,0,0
1,60,109,0
1,72,109,0
1,67,109,0
1,64,109,0
1,64,0,960
1,60,0,0
1,72,0,0
1,67,0,0
1,48,110,0
1,60,110,0
1,67,110,0
1,64,110,0
1,64,0,960
1,48,0,0
1,60,0,0
1,67,0,0
1,53,112,0
1,65,112,0
1,60,112,0
1,69,112,0
1,69,0,960
1,53,0,0
1,65,0,0
1,60,0,0
1,55,109,0
1,67,109,0
1,72,109,0
1,62,109,0
1,62,0,960
1,55,0,0
1,67,0,0
1,72,0,0
1,60,109,0
1,72,109,0
1,67,109,0
1,64,109,0
1,64,0,1
1,60,0,0
1,72,0,0
1,67,0,0
1,48,110,0
1,60,110,0
1,67,110,0
1,64,110,0
1,64,0,1
1,48,0,0
1,60,0,0
1,67,0,0
1,53,112,0
1,65,112,0
1,60,112,0
1,69,112,0
1,69,0,1
1,53,0,0
1,65,0,0
1,60,0,0
1,55,109,0
1,67,109,0
1,72,109,0
1,62,109,0
1,62,0,1
1,55,0,0
1,67,0,0
1,72,0,0
1,60,109,0
1,72,109,0
1,67,109,0
1,64,109,0
1,64,0,1
1,60,0,0
1,72,0,0
1,67,0,0
2,62,92,0
2,62,0,29
2,69,92,1
2,69,0,29
2,74,92,1
2,74,0,29
2,69,92,1
2,69,0,29
2,74,92,1
2,74,0,29
2,69,92,1
2,69,0,29
2,74,92,1
2,74,0,29
2,81,92,1
2,81,0,29
2,74,92,1
2,74,0,29
2,81,92,1
2,81,0,29
2,86,92,1
2,86,0,29
2,81,92,1
2,81,0,29
2,86,92,1
2,86,0,29
2,81,92,1
2,81,0,29
2,86,92,1
2,86,0,29
2,81,92,1
2,81,0,29
2,67,92,1
2,86,80,0
2,86,0,29
2,67,0,0
2,74,92,1
2,81,75,0
2,81,0,29
2,74,0,0
2,79,92,1
2,86,70,0
2,86,0,29
2,79,0,0
2,74,92,1
2,81,65,0
2,81,0,29
2,74,0,0
2,79,92,1
2,86,60,0
2,86,0,29
2,79,0,0
2,74,92,1
2,81,55,0
2,81,0,29
2,74,0,0
2,79,92,1
2,86,50,0
2,86,0,29
2,79,0,0
2,86,92,1
2,81,45,0
2,81,0,29
2,86,0,0
2,79,92,1
2,79,0,29
2,86,92,1
2,86,0,29
2,91,92,1
2,91,0,29
2,86,92,1
2,86,0,29
2,91,92,1
2,91,0,29
2,86,92,1
2,86,0,29
2,91,92,1
2,91,0,29
2,86,92,1
2,86,0,29
2,69,92,1
2,91,80,0
2,91,0,29
2,69,0,0
2,76,92,1
2,86,75,0
2,86,0,29
2,76,0,0
2,81,92,1
2,91,70,0
2,91,0,29
2,81,0,0
2,76,92,1
2,86,65,0
2,86,0,29
2,76,0,0
2,81,92,1
2,91,60,0
2,91,0,29
2,81,0,0
2,76,92,1
2,86,55,0
2,86,0,29
2,76,0,0
2,81,92,1
2,91,50,0
2,91,0,29
2,81,0,0
2,88,92,1
2,86,45,0
2,86,0,29
2,88,0,0
2,81,92,1
2,81,0,29
2,88,92,1
2,88,0,29
2,93,92,1
2,93,0,29
2,88,92,1
2,88,0,29
2,93,92,1
2,93,0,29
2,88,92,1
2,88,0,29
2,93,92,1
2,93,0,29
2,88,92,1
2,88,0,29
2,69,92,1
2,93,80,0
2,93,0,29
2,69,0,0
2,76,92,1
2,88,75,0
2,88,0,29
2,76,0,0
2,81,92,1
2,93,70,0
2,93,0,29
2,81,0,0
2,76,92,1
2,88,65,0
2,88,0,29
2,76,0,0
2,81,92,1
2,93,60,0
2,93,0,29
2,81,0,0
2,76,92,1
2,88,55,0
2,88,0,29
2,76,0,0
2,81,92,1
2,93,50,0
2,93,0,29
2,81,0,0
2,88,92,1
2,88,45,0
2,88,0,29
2,88,0,0
2,81,92,1
2,81,0,29
2,88,92,1
2,88,0,29
2,93,92,1
2,93,0,29
2,88,92,1
2,88,0,29
2,93,92,1
2,93,0,29
2,88,92,1
2,88,0,29
2,93,92,1
2,93,0,29
2,88,92,1
2,88,0,29
2,62,92,1
2,93,80,0
2,93,0,29
2,62,0,0
2,69,92,1
2,88,75,0
2,88,0,29
2,69,0,0
2,74,92,1
2,93,70,0
2,93,0,29
2,74,0,0
2,69,92,1
2,88,65,0
2,88,0,29
2,69,0,0
2,74,92,1
2,93,60,0
2,93,0,29
2,74,0,0
2,69,92,1
2,88,55,0
2,88,0,29
2,69,0,0
2,74,92,1
2,93,50,0
2,93,0,29
2,74,0,0
2,81,92,1
2,88,45,0
2,88,0,29
2,81,0,0
2,74,92,1
2,74,0,29
2,81,92,1
2,81,0,29
2,86,92,1
2,86,0,29
2,81,92,1
2,81,0,29
2,86,92,1
2,86,0,29
2,81,92,1
2,81,0,29
2,86,92,1
2,86,0,29
2,81,92,1
2,81,0,29
2,67,92,1
2,86,80,0
2,86,0,29
2,67,0,0
2,74,92,1
2,81,75,0
2,81,0,29
2,74,0,0
2,79,92,1
2,86,70,0
2,86,0,29
2,79,0,0
2,74,92,1
2,81,65,0
2,81,0,29
2,74,0,0
2,79,92,1
2,86,60,0
2,86,0,29
2,79,0,0
2,74,92,1
2,81,55,0
2,81,0,29
2,74,0,0
2,79,92,1
2,86,50,0
2,86,0,29
2,79,0,0
2,86,92,1
2,81,45,0
2,81,0,29
2,86,0,0
2,79,92,1
2,79,0,29
2,86,92,1
2,86,0,29
2,91,92,1
2,91,0,29
2,86,92,1
2,86,0,29
2,91,92,1
2,91,0,29
2,86,92,1
2,86,0,29
2,91,92,1
2,91,0,29
2,86,92,1
2,86,0,29
2,69,92,1
2,91,80,0
2,91,0,29
2,69,0,0
2,76,92,1
2,86,75,0
2,86,0,29
2,76,0,0
2,81,92,1
2,91,70,0
2,91,0,29
2,81,0,0
2,76,92,1
2,86,65,0
2,86,0,29
2,76,0,0
2,81,92,1
2,91,60,0
2,91,0,29
2,81,0,0
2,76,92,1
2,86,55,0
2,86,0,29
2,76,0,0
2,81,92,1
2,91,50,0
2,91,0,29
2,81,0,0
2,88,92,1
2,86,45,0
2,86,0,29
2,88,0,0
2,81,92,1
2,81,0,29
2,88,92,1
2,88,0,29
2,93,92,1
2,93,0,29
2,88,92,1
2,88,0,29
2,93,92,1
2,93,0,29
2,88,92,1
2,88,0,29
2,93,92,1
2,93,0,29
2,88,92,1
2,88,0,29
2,69,92,1
2,93,80,0
2,93,0,29
2,69,0,0
2,76,92,1
2,88,75,0
2,88,0,29
2,76,0,0
2,81,92,1
2,93,70,0
2,93,0,29
2,81,0,0
2,76,92,1
2,88,65,0
2,88,0,29
2,76,0,0
2,81,92,1
2,93,60,0
2,93,0,29
2,81,0,0
2,76,92,1
2,88,55,0
2,88,0,29
2,76,0,0
2,81,92,1
2,93,50,0
2,93,0,29
2,81,0,0
2,88,92,1
2,88,45,0
2,88,0,29
2,88,0,0
2,81,92,1
2,81,0,29
2,88,92,1
2,88,0,29
2,93,92,1
2,93,0,29
2,88,92,1
2,88,0,29
2,93,92,1
2,93,0,29
2,88,92,1
2,88,0,29
2,93,92,1
2,93,0,29
2,88,92,1
2,88,0,29
2,62,92,1
2,93,80,0
2,93,0,29
2,62,0,0
2,69,92,1
2,88,75,0
2,88,0,29
2,69,0,0
2,74,92,1
2,93,70,0
2,93,0,29
2,74,0,0
2,69,92,1
2,88,65,0
2,88,0,29
2,69,0,0
2,74,92,1
2,93,60,0
2,93,0,29
2,74,0,0
2,69,92,1
2,88,55,0
2,88,0,29
2,69,0,0
2,74,92,1
2,93,50,0
2,93,0,29
2,74,0,0
2,81,92,1
2,88,45,0
2,88,0,29
2,81,0,0
2,74,92,1
2,74,0,29
2,81,92,1
2,81,0,29
2,86,92,1
2,86,0,29
2,81,92,1
2,81,0,29
2,86,92,1
2,86,0,29
2,81,92,1
2,81,0,29
2,86,92,1
2,86,0,29
2,81,92,1
2,81,0,29
2,67,92,1
2,86,80,0
2,86,0,29
2,67,0,0
2,74,92,1
2,81,75,0
2,81,0,29
2,74,0,0
2,79,92,1
2,86,70,0
2,86,0,29
2,79,0,0
2,74,92,1
2,81,65,0
2,81,0,29
2,74,0,0
2,79,92,1
2,86,60,0
2,86,0,29
2,79,0,0
2,74,92,1
2,81,55,0
2,81,0,29
2,74,0,0
2,79,92,1
2,86,50,0
2,86,0,29
2,79,0,0
2,86,92,1
2,81,45,0
2,81,0,29
2,86,0,0
2,79,92,1
2,79,0,29
2,86,92,1
2,86,0,29
2,91,92,1
2,91,0,29
2,86,92,1
2,86,0,29
2,91,92,1
2,91,0,29
2,86,92,1
2,86,0,29
2,91,92,1
2,91,0,29
2,86,92,1
2,86,0,29
2,69,92,1
2,91,80,0
2,91,0,29
2,69,0,0
2,76,92,1
2,86,75,0
2,86,0,29
2,76,0,0
2,81,92,1
2,91,70,0
2,91,0,29
2,81,0,0
2,76,92,1
2,86,65,0
2,86,0,29
2,76,0,0
2,81,92,1
2,91,60,0
2,91,0,29
2,81,0,0
2,76,92,1
2,86,55,0
2,86,0,29
2,76,0,0
2,81,92,1
2,91,50,0
2,91,0,29
2,81,0,0
2,88,92,1
2,86,45,0
2,86,0,29
2,88,0,0
2,81,92,1
2,81,0,29
2,88,92,1
2,88,0,29
