track,note,velocity,time
1,64,100,0
1,60,100,0
1,55,100,0
1,55,0,480
1,60,0,0
1,64,0,0
1,58,100,0
1,62,100,0
1,55,100,0
1,55,0,480
1,62,0,0
1,58,0,0
1,64,100,0
1,60,100,0
1,55,100,0
1,55,0,480
1,60,0,0
1,64,0,0
1,58,100,0
1,62,100,0
1,55,100,0
1,55,0,480
1,62,0,0
1,58,0,0
1,64,100,0
1,60,100,0
1,55,100,0
1,55,0,480
1,60,0,0
1,64,0,0
1,58,100,0
1,62,100,0
1,55,100,0
1,55,0,480
1,62,0,0
1,58,0,0
1,64,100,0
1,60,100,0
1,55,100,0
1,55,0,480
1,60,0,0
1,64,0,0
2,29,127,3360
2,29,0,120
2,29,127,0
2,29,0,120
2,29,127,0
2,29,0,120
2,29,127,0
2,29,0,120
2,29,127,0
2,29,0,120
2,29,127,0
2,29,0,120
2,29,127,0
2,29,0,120
2,29,127,0
2,29,0,120
2,24,127,0
2,24,0,60
2,36,127,0
2,36,0,60
2,24,127,0
2,24,0,60
2,36,127,0
2,36,0,60
2,24,127,0
2,24,0,60
2,36,127,0
2,36,0,60
2,24,127,0
2,24,0,60
2,36,127,0
2,36,0,60
2,31,127,0
2,31,0,60
2,43,127,0
2,43,0,60
2,31,127,0
2,31,0,60
2,43,127,0
2,43,0,60
2,31,127,0
2,31,0,60
2,43,127,0
2,43,0,60
2,31,127,0
2,31,0,60
2,43,127,0
2,43,0,60
2,24,127,0
2,24,0,60
2,36,127,0
2,36,0,60
2,24,127,0
2,24,0,60
2,36,127,0
2,36,0,60
2,24,127,0
2,24,0,60
2,36,127,0
2,36,0,60
2,24,127,0
2,24,0,60
2,36,127,0
2,36,0,60
2,31,127,0
2,31,0,60
2,43,127,0
2,43,0,60
2,31,127,0
2,31,0,60
2,43,127,0
2,43,0,60
2,31,127,0
2,31,0,60
2,43,127,0
2,43,0,60
2,31,127,0
2,31,0,60
2,43,127,0
2,43,0,60
2,24,127,0
2,24,0,60
2,36,127,0
2,36,0,60
2,24,127,0
2,24,0,60
2,36,127,0
2,36,0,60
2,24,127,0
2,24,0,60
2,36,127,0
2,36,0,60
2,24,127,0
2,24,0,60
2,36,127,0
2,36,0,60
2,24,127,0
2,24,0,60
2,36,127,0
2,36,0,60
2,24,127,0
2,24,0,60
2,36,127,0
2,36,0,60
2,31,127,0
2,31,0,60
2,43,127,0
2,43,0,60
2,31,127,0
2,31,0,60
2,43,127,0
2,43,0,60
2,31,127,0
2,31,0,60
2,43,127,0
2,43,0,60
2,31,127,0
2,31,0,60
2,43,127,0
2,43,0,60
2,24,127,0
2,24,0,60
2,36,127,0
2,36,0,60
2,24,127,0
2,24,0,60
2,36,127,0
2,36,0,60
2,24,127,0
2,24,0,60
2,36,127,0
2,36,0,60
2,24,127,0
2,24,0,60
2,36,127,0
2,36,0,60
2,29,127,0
2,29,0,60
2,41,127,0
2,41,0,60
2,29,127,0
2,29,0,60
2,41,127,0
2,41,0,60
2,29,127,0
2,29,0,60
2,41,127,0
2,41,0,60
2,29,127,0
2,29,0,60
2,41,127,0
2,41,0,60
2,29,127,0
2,29,0,60
2,41,127,0
2,41,0,60
2,29,127,0
2,29,0,60
2,41,127,0
2,41,0,60
2,29,127,0
2,29,0,60
2,41,127,0
2,41,0,60
2,29,127,0
2,29,0,60
2,41,127,0
2,41,0,60
2,29,127,0
2,29,0,60
2,41,127,0
2,41,0,60
2,29,127,0
2,29,0,60
2,41,127,0
2,41,0,60
2,29,127,0
2,29,0,60
2,41,127,0
2,41,0,60
2,29,127,0
2,29,0,60
2,41,127,0
2,41,0,60
2,24,127,0
2,24,0,60
2,36,127,0
2,36,0,60
2,24,127,0
2,24,0,60
2,36,127,0
2,36,0,60
2,24,127,0
2,24,0,60
2,36,127,0
2,36,0,60
2,24,127,0
2,24,0,60
2,36,127,0
2,36,0,60
2,31,127,0
2,31,0,60
2,43,127,0
2,43,0,60
2,31,127,0
2,31,0,60
2,43,127,0
2,43,0,60
2,31,127,0
2,31,0,60
2,43,127,0
2,43,0,60
2,31,127,0
2,31,0,60
2,43,127,0
2,43,0,60
2,24,127,0
2,24,0,60
2,36,127,0
2,36,0,60
2,24,127,0
2,24,0,60
2,36,127,0
2,36,0,60
2,24,127,0
2,24,0,60
2,36,127,0
2,36,0,60
2,24,127,0
2,24,0,60
2,36,127,0
2,36,0,60
2,31,127,0
2,31,0,60
2,43,127,0
2,43,0,60
2,31,127,0
2,31,0,60
2,43,127,0
2,43,0,60
2,31,127,0
2,31,0,60
2,43,127,0
2,43,0,60
2,31,127,0
2,31,0,60
2,43,127,0
2,43,0,60
2,29,127,0
2,29,0,60
2,41,127,0
2,41,0,60
2,29,127,0
2,29,0,60
2,41,127,0
2,41,0,60
2,29,127,0
2,29,0,60
2,41,127,0
2,41,0,60
2,29,127,0
2,29,0,60
2,41,127,0
2,41,0,60
2,29,127,0
2,29,0,60
2,41,127,0
2,41,0,60
2,29,127,0
2,29,0,60
2,41,127,0
2,41,0,60
2,29,127,0
2,29,0,60
2,41,127,0
2,41,0,60
2,29,127,0
2,29,0,60
2,41,127,0
2,41,0,60
2,24,127,0
2,24,0,60
2,36,127,0
2,36,0,60
2,24,127,0
2,24,0,60
2,36,127,0
2,36,0,60
2,24,127,0
2,24,0,60
2,36,127,0
2,36,0,60
2,24,127,0
2,24,0,60
2,36,127,0
2,36,0,60
2,33,127,0
2,33,0,60
2,45,127,0
2,45,0,60
2,33,127,0
2,33,0,60
2,45,127,0
2,45,0,60
2,33,127,0
2,33,0,60
2,45,127,0
2,45,0,60
2,33,127,0
2,33,0,60
2,45,127,0
2,45,0,60
2,34,127,0
2,34,0,60
2,46,127,0
2,46,0,60
2,34,127,0
2,34,0,60
2,46,127,0
2,46,0,60
2,34,127,0
2,34,0,60
2,46,127,0
2,46,0,60
2,34,127,0
2,34,0,60
2,46,127,0
2,46,0,60
2,29,127,0
2,29,0,60
2,41,127,0
2,41,0,60
2,29,127,0
2,29,0,60
2,41,127,0
2,41,0,60
2,29,127,0
2,29,0,60
2,41,127,0
2,41,0,60
2,29,127,0
2,29,0,60
2,41,127,0
2,41,0,60
2,24,127,0
2,24,0,60
2,36,127,0
2,36,0,60
2,24,127,0
2,24,0,60
2,36,127,0
2,36,0,60
2,24,127,0
2,24,0,60
2,36,127,0
2,36,0,60
2,24,127,0
2,24,0,60
2,36,127,0
2,36,0,60
2,32,127,0
2,32,0,60
2,44,127,0
2,44,0,60
2,32,127,0
2,32,0,60
2,44,127,0
2,44,0,60
2,32,127,0
2,32,0,60
2,44,127,0
2,44,0,60
2,32,127,0
2,32,0,60
2,44,127,0
2,44,0,60
2,34,127,0
2,34,0,60
2,46,127,0
2,46,0,60
2,34,127,0
2,34,0,60
2,46,127,0
2,46,0,60
2,34,127,0
2,34,0,60
2,46,127,0
2,46,0,60
2,34,127,0
2,34,0,60
2,46,127,0
2,46,0,60
2,29,127,0
2,29,0,60
2,41,127,0
2,41,0,60
2,29,127,0
2,29,0,60
2,41,127,0
2,41,0,60
2,29,127,0
2,29,0,60
2,41,127,0
2,41,0,60
2,29,127,0
2,29,0,60
2,41,127,0
2,41,0,60
2,24,127,0
2,24,0,60
2,36,127,0
2,36,0,60
2,24,127,0
2,24,0,60
2,36,127,0
2,36,0,60
2,24,127,0
2,24,0,60
2,36,127,0
2,36,0,60
2,24,127,0
2,24,0,60
2,36,127,0
2,36,0,60
2,31,127,0
2,31,0,60
2,43,127,0
2,43,0,60
2,31,127,0
2,31,0,60
2,43,127,0
2,43,0,60
2,31,127,0
2,31,0,60
2,43,127,0
2,43,0,60
2,31,127,0
2,31,0,60
2,43,127,0
2,43,0,60
2,24,127,0
2,24,0,60
2,36,127,0
2,36,0,60
2,24,127,0
2,24,0,60
2,36,127,0
2,36,0,60
2,24,127,0
2,24,0,60
2,36,127,0
2,36,0,60
2,24,127,0
2,24,0,60
2,36,127,0
2,36,0,60
2,31,127,0
2,31,0,60
2,43,127,0
2,43,0,60
2,31,127,0
2,31,0,60
2,43,127,0
2,43,0,60
2,31,127,0
2,31,0,60
2,43,127,0
2,43,0,60
2,31,127,0
2,31,0,60
2,43,127,0
2,43,0,60
2,24,127,0
2,24,0,60
2,36,127,0
2,36,0,60
2,24,127,0
2,24,0,60
2,36,127,0
2,36,0,60
2,24,127,0
2,24,0,60
2,36,127,0
2,36,0,60
2,24,127,0
2,24,0,60
2,36,127,0
2,36,0,60
2,24,127,0
2,24,0,60
2,36,127,0
2,36,0,60
2,24,127,0
2,24,0,60
2,36,127,0
2,36,0,60
2,31,127,0
2,31,0,60
2,43,127,0
2,43,0,60
2,31,127,0
2,31,0,60
2,43,127,0
2,43,0,60
2,31,127,0
2,31,0,60
2,43,127,0
2,43,0,60
2,31,127,0
2,31,0,60
2,43,127,0
2,43,0,60
2,24,127,0
2,24,0,60
2,36,127,0
2,36,0,60
2,24,127,0
2,24,0,60
2,36,127,0
2,36,0,60
2,24,127,0
2,24,0,60
2,36,127,0
2,36,0,60
2,24,127,0
2,24,0,60
2,36,127,0
2,36,0,60
2,29,127,0
2,29,0,60
2,41,127,0
2,41,0,60
2,29,127,0
2,29,0,60
2,41,127,0
2,41,0,60
2,29,127,0
2,29,0,60
2,41,127,0
2,41,0,60
2,29,127,0
2,29,0,60
2,41,127,0
2,41,0,60
2,29,127,0
2,29,0,60
2,41,127,0
2,41,0,60
2,29,127,0
2,29,0,60
2,41,127,0
2,41,0,60
2,29,127,0
2,29,0,60
2,41,127,0
2,41,0,60
2,29,127,0
2,29,0,60
2,41,127,0
2,41,0,60
2,29,127,0
2,29,0,60
2,41,127,0
2,41,0,60
2,29,127,0
2,29,0,60
2,41,127,0
2,41,0,60
2,29,127,0
2,29,0,60
2,41,127,0
2,41,0,60
2,29,127,0
2,29,0,60
2,41,127,0
2,41,0,60
2,24,127,0
2,24,0,60
2,36,127,0
2,36,0,60
2,24,127,0
2,24,0,60
2,36,127,0
2,36,0,60
2,24,127,0
2,24,0,60
2,36,127,0
2,36,0,60
2,24,127,0
2,24,0,60
2,36,127,0
2,36,0,60
2,31,127,0
2,31,0,60
2,43,127,0
2,43,0,60
2,31,127,0
2,31,0,60
2,43,127,0
2,43,0,60
2,31,127,0
2,31,0,60
2,43,127,0
2,43,0,60
2,31,127,0
2,31,0,60
2,43,127,0
2,43,0,60
2,24,127,0
2,24,0,60
2,36,127,0
2,36,0,60
2,24,127,0
2,24,0,60
2,36,127,0
2,36,0,60
2,24,127,0
2,24,0,60
2,36,127,0
2,36,0,60
2,24,127,0
2,24,0,60
2,36,127,0
2,36,0,60
2,31,127,0
2,31,0,60
2,43,127,0
2,43,0,60
2,31,127,0
2,31,0,60
2,43,127,0
2,43,0,60
2,31,127,0
2,31,0,60
2,43,127,0
2,43,0,60
2,31,127,0
2,31,0,60
2,43,127,0
2,43,0,60
2,29,127,0
2,29,0,60
2,41,127,0
2,41,0,60
2,29,127,0
2,29,0,60
2,41,127,0
2,41,0,60
2,29,127,0
2,29,0,60
2,41,127,0
2,41,0,60
2,29,127,0
2,29,0,60
2,41,127,0
2,41,0,60
2,29,127,0
2,29,0,60
2,41,127,0
2,41,0,60
2,29,127,0
2,29,0,60
2,41,127,0
2,41,0,60
2,29,127,0
2,29,0,60
2,41,127,0
2,41,0,60
2,29,127,0
2,29,0,60
2,41,127,0
2,41,0,60
2,24,127,0
2,24,0,60
2,36,127,0
2,36,0,60
2,24,127,0
2,24,0,60
2,36,127,0
2,36,0,60
2,24,127,0
2,24,0,60
2,36,127,0
2,36,0,60
2,24,127,0
2,24,0,60
2,36,127,0
2,36,0,60
2,33,127,0
2,33,0,60
2,45,127,0
2,45,0,60
2,33,127,0
2,33,0,60
2,45,127,0
2,45,0,60
2,33,127,0
2,33,0,60
2,45,127,0
2,45,0,60
2,33,127,0
2,33,0,60
2,45,127,0
2,45,0,60
2,34,127,0
2,34,0,60
2,46,127,0
2,46,0,60
2,34,127,0
2,34,0,60
2,46,127,0
2,46,0,60
2,34,127,0
2,34,0,60
2,46,127,0
2,46,0,60
2,34,127,0
2,34,0,60
2,46,127,0
2,46,0,60
2,29,127,0
2,29,0,60
2,41,127,0
2,41,0,60
2,29,127,0
2,29,0,60
2,41,127,0
2,41,0,60
2,29,127,0
2,29,0,60
2,41,127,0
2,41,0,60
2,29,127,0
2,29,0,60
2,41,127,0
2,41,0,60
2,24,127,0
2,24,0,60
2,36,127,0
2,36,0,60
2,24,127,0
2,24,0,60
2,36,127,0
2,36,0,60
2,24,127,0
2,24,0,60
2,36,127,0
2,36,0,60
2,24,127,0
2,24,0,60
2,36,127,0
2,36,0,60
2,32,127,0
2,32,0,60
2,44,127,0
2,44,0,60
2,32,127,0
2,32,0,60
2,44,127,0
2,44,0,60
2,32,127,0
2,32,0,60
2,44,127,0
2,44,0,60
2,32,127,0
2,32,0,60
2,44,127,0
2,44,0,60
2,34,127,0
2,34,0,60
2,46,127,0
2,46,0,60
2,34,127,0
2,34,0,60
2,46,127,0
2,46,0,60
2,34,127,0
2,34,0,60
2,46,127,0
2,46,0,60
2,34,127,0
2,34,0,60
2,46,127,0
2,46,0,60
2,29,127,0
2,29,0,60
2,41,127,0
2,41,0,60
2,29,127,0
2,29,0,60
2,41,127,0
2,41,0,60
2,29,127,0
2,29,0,60
2,41,127,0
2,41,0,60
2,29,127,0
2,29,0,60
2,41,127,0
2,41,0,60
2,24,127,0
2,24,0,60
2,36,127,0
2,36,0,60
2,24,127,0
2,24,0,60
2,36,127,0
2,36,0,60
2,24,127,0
2,24,0,60
2,36,127,0
2,36,0,60
2,24,127,0
2,24,0,60
2,36,127,0
2,36,0,60
2,24,127,0
2,24,0,60
2,36,127,0
2,36,0,60
2,24,127,0
2,24,0,60
2,36,127,0
2,36,0,60
2,24,127,0
2,24,0,60
2,36,127,0
2,36,0,60
2,24,127,0
2,24,0,60
2,36,127,0
2,36,0,60
2,29,127,0
2,29,0,60
2,41,127,0
2,41,0,60
2,29,127,0
2,29,0,60
2,41,127,0
2,41,0,60
2,29,127,0
2,29,0,60
2,41,127,0
2,41,0,60
2,29,127,0
2,29,0,60
2,41,127,0
2,41,0,60
2,29,127,0
2,29,0,60
2,41,127,0
2,41,0,60
2,29,127,0
2,29,0,60
2,41,127,0
2,41,0,60
2,29,127,0
2,29,0,60
2,41,127,0
2,41,0,60
2,29,127,0
2,29,0,60
2,41,127,0
2,41,0,60
2,24,127,0
2,24,0,60
2,36,127,0
2,36,0,60
2,24,127,0
2,24,0,60
2,36,127,0
2,36,0,60
2,24,127,0
2,24,0,60
2,36,127,0
2,36,0,60
2,24,127,0
2,24,0,60
2,36,127,0
2,36,0,60
2,34,127,0
2,34,0,60
2,46,127,0
2,46,0,60
2,34,127,0
2,34,0,60
2,46,127,0
2,46,0,60
2,34,127,0
2,34,0,60
2,46,127,0
2,46,0,60
2,34,127,0
2,34,0,60
2,46,127,0
2,46,0,60
2,29,127,0
2,29,0,60
2,41,127,0
2,41,0,60
2,29,127,0
2,29,0,60
2,41,127,0
2,41,0,60
2,29,127,0
2,29,0,60
2,41,127,0
2,41,0,60
2,29,127,0
2,29,0,60
2,41,127,0
2,41,0,60
2,29,127,0
2,29,0,60
2,41,127,0
2,41,0,60
2,29,127,0
2,29,0,60
2,41,127,0
2,41,0,60
2,29,127,0
2,29,0,60
2,41,127,0
2,41,0,60
2,29,127,0
2,29,0,60
2,41,127,0
2,41,0,60
2,24,127,0
2,24,0,60
2,36,127,0
2,36,0,60
2,24,127,0
2,24,0,60
2,36,127,0
2,36,0,60
2,24,127,0
2,24,0,60
2,36,127,0
2,36,0,60
2,24,127,0
2,24,0,60
2,36,127,0
2,36,0,60
2,31,127,0
2,31,0,60
2,43,127,0
2,43,0,60
2,31,127,0
2,31,0,60
2,43,127,0
2,43,0,60
2,31,127,0
2,31,0,60
2,43,127,0
2,43,0,60
2,31,127,0
2,31,0,60
