track,note,velocity,time
1,33,127,2400
1,33,0,29
1,33,127,31
1,33,0,29
1,33,127,1
1,33,0,29
1,33,127,1
1,33,0,29
1,33,127,1
1,33,0,29
1,45,127,1
1,45,0,29
1,33,127,31
1,33,0,29
1,33,127,31
1,33,0,29
1,33,127,1
1,33,0,29
1,33,127,1
1,33,0,29
1,33,127,1
1,33,0,29
1,45,127,1
1,45,0,29
1,33,127,31
1,33,0,29
1,33,127,31
1,33,0,29
1,33,127,1
1,33,0,29
1,33,127,1
1,33,0,29
1,33,127,1
1,33,0,29
1,37,127,1
1,37,0,29
1,33,127,31
1,33,0,29
1,33,127,31
1,33,0,29
1,33,127,1
1,33,0,29
1,33,127,1
1,33,0,29
1,33,127,1
1,33,0,29
1,31,127,1
1,31,0,29
1,33,127,31
1,33,0,29
1,33,127,31
1,33,0,29
1,33,127,1
1,33,0,29
1,33,127,1
1,33,0,29
1,33,127,1
1,33,0,29
1,45,127,1
1,45,0,29
1,33,127,31
1,33,0,29
1,33,127,31
1,33,0,29
1,33,127,1
1,33,0,29
1,33,127,1
1,33,0,29
1,33,127,1
1,33,0,29
1,45,127,1
1,45,0,29
1,33,127,31
1,33,0,29
1,33,127,31
1,33,0,29
1,33,127,1
1,33,0,29
1,33,127,1
1,33,0,29
1,33,127,1
1,33,0,29
1,37,127,1
1,37,0,29
1,33,127,31
1,33,0,29
1,33,127,31
1,33,0,29
1,33,127,1
1,33,0,29
1,33,127,1
1,33,0,29
1,33,127,1
1,33,0,29
1,31,127,1
1,31,0,29
1,38,127,31
1,38,0,29
1,38,127,31
1,38,0,29
1,38,127,1
1,38,0,29
1,38,127,1
1,38,0,29
1,38,127,1
1,38,0,29
1,50,127,1
1,50,0,29
1,38,127,31
1,38,0,29
1,38,127,31
1,38,0,29
1,38,127,1
1,38,0,29
1,38,127,1
1,38,0,29
1,38,127,1
1,38,0,29
1,50,127,1
1,50,0,29
1,38,127,31
1,38,0,29
1,38,127,31
1,38,0,29
1,38,127,1
1,38,0,29
1,38,127,1
1,38,0,29
1,38,127,1
1,38,0,29
1,42,127,1
1,42,0,29
1,38,127,31
1,38,0,29
1,38,127,31
1,38,0,29
1,38,127,1
1,38,0,29
1,38,127,1
1,38,0,29
1,38,127,1
1,38,0,29
1,35,127,1
1,35,0,29
1,33,127,31
1,33,0,29
1,33,127,31
1,33,0,29
1,33,127,1
1,33,0,29
1,33,127,1
1,33,0,29
1,33,127,1
1,33,0,29
1,45,127,1
1,45,0,29
1,33,127,31
1,33,0,29
1,33,127,31
1,33,0,29
1,33,127,1
1,33,0,29
1,33,127,1
1,33,0,29
1,33,127,1
1,33,0,29
1,45,127,1
1,45,0,29
1,33,127,31
1,33,0,29
1,33,127,31
1,33,0,29
1,33,127,1
1,33,0,29
1,33,127,1
1,33,0,29
1,33,127,1
1,33,0,29
1,37,127,1
1,37,0,29
1,33,127,31
1,33,0,29
1,33,127,31
1,33,0,29
1,33,127,1
1,33,0,29
1,33,127,1
1,33,0,29
1,33,127,1
1,33,0,29
1,31,127,1
1,31,0,29
1,40,127,31
1,40,0,29
1,40,127,31
1,40,0,29
1,40,127,1
1,40,0,29
1,40,127,1
1,40,0,29
1,40,127,1
1,40,0,29
1,52,127,1
1,52,0,29
1,40,127,31
1,40,0,29
1,40,127,31
1,40,0,29
1,40,127,1
1,40,0,29
1,40,127,1
1,40,0,29
1,40,127,1
1,40,0,29
1,52,127,1
1,52,0,29
1,38,127,31
1,38,0,29
1,38,127,31
1,38,0,29
1,38,127,1
1,38,0,29
1,38,127,1
1,38,0,29
1,38,127,1
1,38,0,29
1,42,127,1
1,42,0,29
1,38,127,31
1,38,0,29
1,38,127,31
1,38,0,29
1,38,127,1
1,38,0,29
1,38,127,1
1,38,0,29
1,38,127,1
1,38,0,29
1,35,127,1
1,35,0,29
1,38,127,31
1,38,0,29
1,38,127,31
1,38,0,29
1,38,127,1
1,38,0,29
1,38,127,1
1,38,0,29
1,38,127,1
1,38,0,29
1,50,127,1
1,50,0,29
1,38,127,31
1,38,0,29
1,38,127,31
1,38,0,29
1,38,127,1
1,38,0,29
1,38,127,1
1,38,0,29
1,38,127,1
1,38,0,29
1,50,127,1
1,50,0,29
1,38,127,31
1,38,0,29
1,38,127,31
1,38,0,29
1,38,127,1
1,38,0,29
1,38,127,1
1,38,0,29
1,38,127,1
1,38,0,29
1,42,127,1
1,42,0,29
1,38,127,31
1,38,0,29
1,38,127,31
1,38,0,29
1,38,127,1
1,38,0,29
1,38,127,1
1,38,0,29
1,38,127,1
1,38,0,29
1,35,127,1
1,35,0,29
1,33,127,31
1,33,0,29
1,33,127,31
1,33,0,29
1,33,127,1
1,33,0,29
1,33,127,1
1,33,0,29
1,33,127,1
1,33,0,29
1,45,127,1
1,45,0,29
1,33,127,31
1,33,0,29
1,33,127,31
1,33,0,29
1,33,127,1
1,33,0,29
1,33,127,1
1,33,0,29
1,33,127,1
1,33,0,29
1,45,127,1
1,45,0,29
1,31,127,31
1,31,0,29
1,31,127,31
1,31,0,29
1,31,127,1
1,31,0,29
1,31,127,1
1,31,0,29
1,31,127,1
1,31,0,29
1,43,127,1
1,43,0,29
1,31,127,31
1,31,0,29
1,31,127,31
1,31,0,29
1,31,127,1
1,31,0,29
1,31,127,1
1,31,0,29
1,31,127,1
1,31,0,29
1,43,127,1
1,43,0,29
1,38,127,31
1,38,0,29
1,38,127,31
1,38,0,29
1,38,127,1
1,38,0,29
1,38,127,1
1,38,0,29
1,38,127,1
1,38,0,29
1,50,127,1
1,50,0,29
1,38,127,31
1,38,0,29
1,38,127,31
1,38,0,29
1,38,127,1
1,38,0,29
1,38,127,1
1,38,0,29
1,38,127,1
1,38,0,29
1,50,127,1
1,50,0,29
1,38,127,31
1,38,0,29
1,38,127,31
1,38,0,29
1,38,127,1
1,38,0,29
1,38,127,1
1,38,0,29
1,38,127,1
1,38,0,29
1,42,127,1
1,42,0,29
1,38,127,31
1,38,0,29
1,38,127,31
1,38,0,29
1,38,127,1
1,38,0,29
1,38,127,1
1,38,0,29
1,38,127,1
1,38,0,29
1,35,127,1
1,35,0,29
1,33,127,31
1,33,0,29
1,33,127,31
1,33,0,29
1,33,127,1
1,33,0,29
1,33,127,1
1,33,0,29
1,33,127,1
1,33,0,29
1,45,127,1
1,45,0,29
1,33,127,31
1,33,0,29
1,33,127,31
1,33,0,29
1,33,127,1
1,33,0,29
1,33,127,1
1,33,0,29
1,33,127,1
1,33,0,29
1,45,127,1
1,45,0,29
1,31,127,31
1,31,0,29
1,31,127,31
1,31,0,29
1,31,127,1
1,31,0,29
1,31,127,1
1,31,0,29
1,31,127,1
1,31,0,29
1,43,127,1
1,43,0,29
1,31,127,31
1,31,0,29
1,31,127,31
1,31,0,29
1,31,127,1
1,31,0,29
1,31,127,1
1,31,0,29
1,31,127,1
1,31,0,29
1,43,127,1
1,43,0,29
1,38,127,31
1,38,0,29
1,38,127,31
1,38,0,29
1,38,127,1
1,38,0,29
1,38,127,1
1,38,0,29
1,38,127,1
1,38,0,29
1,50,127,1
1,50,0,29
1,38,127,31
1,38,0,29
1,38,127,31
1,38,0,29
1,38,127,1
1,38,0,29
1,38,127,1
1,38,0,29
1,38,127,1
1,38,0,29
1,50,127,1
1,50,0,29
1,38,127,31
1,38,0,29
1,38,127,31
1,38,0,29
1,38,127,1
1,38,0,29
1,38,127,1
1,38,0,29
1,38,127,1
1,38,0,29
1,42,127,1
1,42,0,29
1,38,127,31
1,38,0,29
1,38,127,31
1,38,0,29
1,38,127,1
1,38,0,29
1,38,127,1
1,38,0,29
1,38,127,1
1,38,0,29
1,35,127,1
1,35,0,29
1,33,127,31
1,33,0,59
1,33,127,1
1,33,0,29
1,33,127,1
1,33,0,29
1,33,127,1
1,33,0,29
1,33,127,1
1,33,0,29
1,45,127,1
1,45,0,29
1,33,127,31
1,33,0,59
1,33,127,1
1,33,0,29
1,33,127,1
1,33,0,29
1,33,127,1
1,33,0,29
1,33,127,1
1,33,0,29
1,45,127,1
1,45,0,29
1,33,127,31
1,33,0,59
1,33,127,1
1,33,0,29
1,33,127,1
1,33,0,29
1,33,127,1
1,33,0,29
1,33,127,1
1,33,0,29
1,37,127,1
1,37,0,29
1,33,127,31
1,33,0,59
1,33,127,1
1,33,0,29
1,33,127,1
1,33,0,29
1,33,127,1
1,33,0,29
1,33,127,1
1,33,0,29
1,31,127,1
1,31,0,29
1,33,127,31
1,33,0,59
1,33,127,1
1,33,0,29
1,33,127,1
1,33,0,29
1,33,127,1
1,33,0,29
1,33,127,1
1,33,0,29
1,45,127,1
1,45,0,29
1,33,127,31
1,33,0,59
1,33,127,1
1,33,0,29
1,33,127,1
1,33,0,29
1,33,127,1
1,33,0,29
1,33,127,1
1,33,0,29
1,45,127,1
1,45,0,29
1,33,127,31
1,33,0,60
1,33,127,420
1,33,0,29
1,33,127,31
1,33,0,29
1,33,127,1
1,33,0,29
1,33,127,1
1,33,0,29
1,33,127,1
1,33,0,29
1,45,127,1
1,45,0,29
1,33,127,31
1,33,0,29
1,33,127,31
1,33,0,29
1,33,127,1
1,33,0,29
1,33,127,1
1,33,0,29
1,33,127,1
1,33,0,29
1,45,127,1
1,45,0,29
1,33,127,31
1,33,0,29
1,33,127,31
1,33,0,29
1,33,127,1
1,33,0,29
1,33,127,1
1,33,0,29
1,33,127,1
1,33,0,29
1,37,127,1
1,37,0,29
1,33,127,31
1,33,0,29
1,33,127,31
1,33,0,29
1,33,127,1
1,33,0,29
1,33,127,1
1,33,0,29
1,33,127,1
1,33,0,29
1,31,127,1
1,31,0,29
1,33,127,31
1,33,0,29
1,33,127,31
1,33,0,29
1,33,127,1
1,33,0,29
1,33,127,1
1,33,0,29
1,33,127,1
1,33,0,29
1,45,127,1
1,45,0,29
1,33,127,31
1,33,0,29
1,33,127,31
1,33,0,29
1,33,127,1
1,33,0,29
1,33,127,1
1,33,0,29
1,33,127,1
1,33,0,29
1,45,127,1
1,45,0,29
1,33,127,31
1,33,0,29
1,33,127,31
1,33,0,29
1,33,127,1
1,33,0,29
1,33,127,1
1,33,0,29
1,33,127,1
1,33,0,29
1,37,127,1
1,37,0,29
1,33,127,31
1,33,0,29
1,33,127,31
1,33,0,29
1,33,127,1
1,33,0,29
1,33,127,1
1,33,0,29
1,33,127,1
1,33,0,29
1,31,127,1
1,31,0,29
1,38,127,31
1,38,0,29
1,38,127,31
1,38,0,29
1,38,127,1
1,38,0,29
1,38,127,1
1,38,0,29
1,38,127,1
1,38,0,29
1,50,127,1
1,50,0,29
1,38,127,31
1,38,0,29
1,38,127,31
1,38,0,29
1,38,127,1
1,38,0,29
1,38,127,1
1,38,0,29
1,38,127,1
1,38,0,29
1,50,127,1
1,50,0,29
1,38,127,31
1,38,0,29
1,38,127,31
1,38,0,29
1,38,127,1
1,38,0,29
1,38,127,1
1,38,0,29
1,38,127,1
1,38,0,29
1,42,127,1
1,42,0,29
1,38,127,31
1,38,0,29
1,38,127,31
1,38,0,29
1,38,127,1
1,38,0,29
1,38,127,1
1,38,0,29
1,38,127,1
1,38,0,29
1,35,127,1
1,35,0,29
1,33,127,31
1,33,0,29
1,33,127,31
1,33,0,29
1,33,127,1
1,33,0,29
1,33,127,1
1,33,0,29
1,33,127,1
1,33,0,29
1,45,127,1
1,45,0,29
1,33,127,31
1,33,0,29
1,33,127,31
1,33,0,29
1,33,127,1
1,33,0,29
1,33,127,1
1,33,0,29
1,33,127,1
1,33,0,29
1,45,127,1
1,45,0,29
1,33,127,31
1,33,0,29
1,33,127,31
1,33,0,29
1,33,127,1
1,33,0,29
1,33,127,1
1,33,0,29
1,33,127,1
1,33,0,29
1,37,127,1
1,37,0,29
1,33,127,31
1,33,0,29
1,33,127,31
1,33,0,29
1,33,127,1
1,33,0,29
1,33,127,1
1,33,0,29
1,33,127,1
1,33,0,29
1,31,127,1
1,31,0,29
1,40,127,31
1,40,0,29
1,40,127,31
1,40,0,29
1,40,127,1
1,40,0,29
1,40,127,1
1,40,0,29
1,40,127,1
1,40,0,29
1,52,127,1
1,52,0,29
1,40,127,31
1,40,0,29
1,40,127,31
1,40,0,29
1,40,127,1
1,40,0,29
1,40,127,1
1,40,0,29
1,40,127,1
1,40,0,29
1,52,127,1
1,52,0,29
1,38,127,31
1,38,0,29
1,38,127,31
1,38,0,29
1,38,127,1
1,38,0,29
1,38,127,1
1,38,0,29
1,38,127,1
1,38,0,29
1,42,127,1
1,42,0,29
1,38,127,31
1,38,0,29
1,38,127,31
1,38,0,29
1,38,127,1
1,38,0,29
1,38,127,1
1,38,0,29
1,38,127,1
1,38,0,29
1,35,127,1
1,35,0,29
1,38,127,31
1,38,0,29
1,38,127,31
1,38,0,29
1,38,127,1
1,38,0,29
1,38,127,1
1,38,0,29
1,38,127,1
1,38,0,29
1,50,127,1
1,50,0,29
1,38,127,31
1,38,0,29
1,38,127,31
1,38,0,29
1,38,127,1
1,38,0,29
1,38,127,1
1,38,0,29
1,38,127,1
1,38,0,29
1,50,127,1
1,50,0,29
1,38,127,31
1,38,0,29
1,38,127,31
1,38,0,29
1,38,127,1
1,38,0,29
1,38,127,1
1,38,0,29
1,38,127,1
1,38,0,29
1,42,127,1
1,42,0,29
1,38,127,31
1,38,0,29
1,38,127,31
1,38,0,29
1,38,127,1
1,38,0,29
1,38,127,1
1,38,0,29
1,38,127,1
1,38,0,29
1,35,127,1
1,35,0,29
1,33,127,31
1,33,0,29
1,33,127,31
1,33,0,29
1,33,127,1
1,33,0,29
1,33,127,1
1,33,0,29
1,33,127,1
1,33,0,29
1,45,127,1
1,45,0,29
1,33,127,31
1,33,0,29
1,33,127,31
1,33,0,29
1,33,127,1
1,33,0,29
1,33,127,1
1,33,0,29
1,33,127,1
1,33,0,29
1,45,127,1
1,45,0,29
1,31,127,31
1,31,0,29
1,31,127,31
1,31,0,29
1,31,127,1
1,31,0,29
1,31,127,1
1,31,0,29
1,31,127,1
1,31,0,29
1,43,127,1
1,43,0,29
1,31,127,31
1,31,0,29
1,31,127,31
1,31,0,29
1,31,127,1
1,31,0,29
1,31,127,1
1,31,0,29
1,31,127,1
1,31,0,29
1,43,127,1
1,43,0,29
1,38,127,31
1,38,0,29
1,38,127,31
1,38,0,29
1,38,127,1
1,38,0,29
1,38,127,1
1,38,0,29
1,38,127,1
1,38,0,29
1,50,127,1
1,50,0,29
1,38,127,31
1,38,0,29
1,38,127,31
1,38,0,29
1,38,127,1
1,38,0,29
1,38,127,1
1,38,0,29
1,38,127,1
1,38,0,29
1,50,127,1
1,50,0,29
1,38,127,31
1,38,0,29
1,38,127,31
1,38,0,29
1,38,127,1
1,38,0,29
1,38,127,1
1,38,0,29
1,38,127,1
1,38,0,29
1,42,127,1
1,42,0,29
1,38,127,31
1,38,0,29
1,38,127,31
1,38,0,29
1,38,127,1
1,38,0,29
1,38,127,1
1,38,0,29
1,38,127,1
1,38,0,29
1,35,127,1
1,35,0,29
1,33,127,31
1,33,0,29
1,33,127,31
1,33,0,29
1,33,127,1
1,33,0,29
1,33,127,1
1,33,0,29
1,33,127,1
1,33,0,29
1,45,127,1
1,45,0,29
1,33,127,31
1,33,0,29
1,33,127,31
1,33,0,29
1,33,127,1
1,33,0,29
1,33,127,1
1,33,0,29
1,33,127,1
1,33,0,29
1,45,127,1
1,45,0,29
1,31,127,31
1,31,0,29
1,31,127,31
1,31,0,29
1,31,127,1
1,31,0,29
1,31,127,1
1,31,0,29
1,31,127,1
1,31,0,29
1,43,127,1
1,43,0,29
1,31,127,31
1,31,0,29
1,31,127,31
1,31,0,29
1,31,127,1
1,31,0,29
1,31,127,1
1,31,0,29
1,31,127,1
1,31,0,29
1,43,127,1
1,43,0,29
1,38,127,31
1,38,0,29
1,38,127,31
1,38,0,29
1,38,127,1
1,38,0,29
1,38,127,1
1,38,0,29
1,38,127,1
1,38,0,29
1,50,127,1
1,50,0,29
1,38,127,31
1,38,0,29
