track,note,velocity,time
1,29,127,10752
1,29,127,0
1,29,127,0
1,29,127,0
1,29,127,0
1,29,127,0
1,29,127,0
1,29,127,0
1,24,127,0
1,36,127,0
1,24,127,0
1,36,127,0
1,24,127,0
1,36,127,0
1,24,127,0
1,36,127,0
1,31,127,0
1,43,127,0
1,31,127,0
1,43,127,0
1,31,127,0
1,43,127,0
1,31,127,0
1,43,127,0
1,24,127,0
1,36,127,0
1,24,127,0
1,36,127,0
1,24,127,0
1,36,127,0
1,24,127,0
1,36,127,0
1,31,127,0
1,43,127,0
1,31,127,0
1,43,127,0
1,31,127,0
1,43,127,0
1,31,127,0
1,43,127,0
1,24,127,0
1,36,127,0
1,24,127,0
1,36,127,0
1,24,127,0
1,36,127,0
1,24,127,0
1,36,127,0
1,24,127,0
1,36,127,0
1,24,127,0
1,36,127,0
1,31,127,0
1,43,127,0
1,31,127,0
1,43,127,0
1,31,127,0
1,43,127,0
1,31,127,0
1,43,127,0
1,24,127,0
1,36,127,0
1,24,127,0
1,36,127,0
1,24,127,0
1,36,127,0
1,24,127,0
1,36,127,0
1,29,127,0
1,41,127,0
1,29,127,0
1,41,127,0
1,29,127,0
1,41,127,0
1,29,127,0
1,41,127,0
1,29,127,0
1,41,127,0
1,29,127,0
1,41,127,0
1,29,127,0
1,41,127,0
1,29,127,0
1,41,127,0
1,29,127,0
1,41,127,0
1,29,127,0
1,41,127,0
1,29,127,0
1,41,127,0
1,29,127,0
1,41,127,0
1,24,127,0
1,36,127,0
1,24,127,0
1,36,127,0
1,24,127,0
1,36,127,0
1,24,127,0
1,36,127,0
1,31,127,0
1,43,127,0
1,31,127,0
1,43,127,0
1,31,127,0
1,43,127,0
1,31,127,0
1,43,127,0
1,24,127,0
1,36,127,0
1,24,127,0
1,36,127,0
1,24,127,0
1,36,127,0
1,24,127,0
1,36,127,0
1,31,127,0
1,43,127,0
1,31,127,0
1,43,127,0
1,31,127,0
1,43,127,0
1,31,127,0
1,43,127,0
1,29,127,0
1,41,127,0
1,29,127,0
1,41,127,0
1,29,127,0
1,41,127,0
1,29,127,0
1,41,127,0
1,29,127,0
1,41,127,0
1,29,127,0
1,41,127,0
1,29,127,0
1,41,127,0
1,29,127,0
1,41,127,0
1,24,127,0
1,36,127,0
1,24,127,0
1,36,127,0
1,24,127,0
1,36,127,0
1,24,127,0
1,36,127,0
1,33,127,0
1,45,127,0
1,33,127,0
1,45,127,0
1,33,127,0
1,45,127,0
1,33,127,0
1,45,127,0
1,34,127,0
1,46,127,0
1,34,127,0
1,46,127,0
1,34,127,0
1,46,127,0
1,34,127,0
1,46,127,0
1,29,127,0
1,41,127,0
1,29,127,0
1,41,127,0
1,29,127,0
1,41,127,0
1,29,127,0
1,41,127,0
1,24,127,0
1,36,127,0
1,24,127,0
1,36,127,0
1,24,127,0
1,36,127,0
1,24,127,0
1,36,127,0
1,32,127,0
1,44,127,0
1,32,127,0
1,44,127,0
1,32,127,0
1,44,127,0
1,32,127,0
1,44,127,0
1,34,127,0
1,46,127,0
1,34,127,0
1,46,127,0
1,34,127,0
1,46,127,0
1,34,127,0
1,46,127,0
1,29,127,0
1,41,127,0
1,29,127,0
1,41,127,0
1,29,127,0
1,41,127,0
1,29,127,0
1,41,127,0
1,24,127,0
1,36,127,0
1,24,127,0
1,36,127,0
1,24,127,0
1,36,127,0
1,24,127,0
1,36,127,0
1,31,127,0
1,43,127,0
1,31,127,0
1,43,127,0
1,31,127,0
1,43,127,0
1,31,127,0
1,43,127,0
1,24,127,0
1,36,127,0
1,24,127,0
1,36,127,0
1,24,127,0
1,36,127,0
1,24,127,0
1,36,127,0
1,31,127,0
1,43,127,0
1,31,127,0
1,43,127,0
1,31,127,0
1,43,127,0
1,31,127,0
1,43,127,0
1,24,127,0
1,36,127,0
1,24,127,0
1,36,127,0
1,24,127,0
1,36,127,0
1,24,127,0
1,36,127,0
1,24,127,0
1,36,127,0
1,24,127,0
1,36,127,0
1,31,127,0
1,43,127,0
1,31,127,0
1,43,127,0
1,31,127,0
1,43,127,0
1,31,127,0
1,43,127,0
1,24,127,0
1,36,127,0
1,24,127,0
1,36,127,0
1,24,127,0
1,36,127,0
1,24,127,0
1,36,127,0
1,29,127,0
1,41,127,0
1,29,127,0
1,41,127,0
1,29,127,0
1,41,127,0
1,29,127,0
1,41,127,0
1,29,127,0
1,41,127,0
1,29,127,0
1,41,127,0
1,29,127,0
1,41,127,0
1,29,127,0
1,41,127,0
1,29,127,0
1,41,127,0
1,29,127,0
1,41,127,0
1,29,127,0
1,41,127,0
1,29,127,0
1,41,127,0
1,24,127,0
1,36,127,0
1,24,127,0
1,36,127,0
1,24,127,0
1,36,127,0
1,24,127,0
1,36,127,0
1,31,127,0
1,43,127,0
1,31,127,0
1,43,127,0
1,31,127,0
1,43,127,0
1,31,127,0
1,43,127,0
1,24,127,0
1,36,127,0
1,24,127,0
1,36,127,0
1,24,127,0
1,36,127,0
1,24,127,0
1,36,127,0
1,31,127,0
1,43,127,0
1,31,127,0
1,43,127,0
1,31,127,0
1,43,127,0
1,31,127,0
1,43,127,0
1,29,127,0
1,41,127,0
1,29,127,0
1,41,127,0
1,29,127,0
1,41,127,0
1,29,127,0
1,41,127,0
1,29,127,0
1,41,127,0
1,29,127,0
1,41,127,0
1,29,127,0
1,41,127,0
1,29,127,0
1,41,127,0
1,24,127,0
1,36,127,0
1,24,127,0
1,36,127,0
1,24,127,0
1,36,127,0
1,24,127,0
1,36,127,0
1,33,127,0
1,45,127,0
1,33,127,0
1,45,127,0
1,33,127,0
1,45,127,0
1,33,127,0
1,45,127,0
1,34,127,0
1,46,127,0
1,34,127,0
1,46,127,0
1,34,127,0
1,46,127,0
1,34,127,0
1,46,127,0
1,29,127,0
1,41,127,0
1,29,127,0
1,41,127,0
1,29,127,0
1,41,127,0
1,29,127,0
1,41,127,0
1,24,127,0
1,36,127,0
1,24,127,0
1,36,127,0
1,24,127,0
1,36,127,0
1,24,127,0
1,36,127,0
1,32,127,0
1,44,127,0
1,32,127,0
1,44,127,0
1,32,127,0
1,44,127,0
1,32,127,0
1,44,127,0
1,34,127,0
1,46,127,0
1,34,127,0
1,46,127,0
1,34,127,0
1,46,127,0
1,34,127,0
1,46,127,0
1,29,127,0
1,41,127,0
1,29,127,0
1,41,127,0
1,29,127,0
1,41,127,0
1,29,127,0
1,41,127,0
1,24,127,0
1,36,127,0
1,24,127,0
1,36,127,0
1,24,127,0
1,36,127,0
1,24,127,0
1,36,127,0
1,24,127,0
1,36,127,0
1,24,127,0
1,36,127,0
1,24,127,0
1,36,127,0
1,24,127,0
1,36,127,0
1,29,127,0
1,41,127,0
1,29,127,0
1,41,127,0
1,29,127,0
1,41,127,0
1,29,127,0
1,41,127,0
1,29,127,0
1,41,127,0
1,29,127,0
1,41,127,0
1,29,127,0
1,41,127,0
1,29,127,0
1,41,127,0
1,24,127,0
1,36,127,0
1,24,127,0
1,36,127,0
1,24,127,0
1,36,127,0
1,24,127,0
1,36,127,0
1,34,127,0
1,46,127,0
1,34,127,0
1,46,127,0
1,34,127,0
1,46,127,0
1,34,127,0
1,46,127,0
1,29,127,0
1,41,127,0
1,29,127,0
1,41,127,0
1,29,127,0
1,41,127,0
1,29,127,0
1,41,127,0
1,29,127,0
1,41,127,0
1,29,127,0
1,41,127,0
1,29,127,0
1,41,127,0
1,29,127,0
1,41,127,0
1,24,127,0
1,36,127,0
1,24,127,0
1,36,127,0
1,24,127,0
1,36,127,0
1,24,127,0
1,36,127,0
1,31,127,0
1,43,127,0
1,31,127,0
1,43,127,0
1,31,127,0
1,43,127,0
1,31,127,0
1,43,127,0
1,24,127,0
1,36,127,0
1,24,127,0
1,36,127,0
1,24,127,0
1,36,127,0
1,24,127,0
1,36,127,0
1,31,127,0
1,43,127,0
1,31,127,0
1,43,127,0
1,31,127,0
1,43,127,0
1,31,127,0
1,43,127,0
1,24,127,0
1,36,127,0
1,24,127,0
1,36,127,0
1,24,127,0
1,36,127,0
1,24,127,0
1,36,127,0
1,31,127,0
1,43,127,0
1,31,127,0
1,43,127,0
1,31,127,0
1,43,127,0
1,31,127,0
1,43,127,0
1,24,127,0
1,36,127,0
1,24,127,0
1,36,127,0
1,24,127,0
1,36,127,0
1,24,127,0
1,36,127,0
1,29,127,0
1,41,127,0
1,29,127,0
1,41,127,0
1,29,127,0
1,41,127,0
1,29,127,0
1,41,127,0
1,29,127,0
1,41,127,0
1,29,127,0
1,41,127,0
1,29,127,0
1,41,127,0
1,29,127,0
1,41,127,0
1,24,127,0
1,36,127,0
1,24,127,0
1,36,127,0
1,24,127,0
1,36,127,0
1,24,127,0
1,36,127,0
1,31,127,0
1,43,127,0
1,31,127,0
1,43,127,0
1,31,127,0
1,43,127,0
1,31,127,0
1,43,127,0
1,29,127,0
1,41,127,0
1,29,127,0
1,41,127,0
1,29,127,0
1,41,127,0
1,29,127,0
1,41,127,0
1,29,127,0
1,41,127,0
1,29,127,0
1,41,127,0
1,29,127,0
1,41,127,0
1,29,127,0
1,41,127,0
1,24,127,0
1,36,127,0
1,24,127,0
1,36,127,0
1,24,127,0
1,36,127,0
1,24,127,0
1,36,127,0
1,33,127,0
1,45,127,0
1,33,127,0
1,45,127,0
1,33,127,0
1,45,127,0
1,33,127,0
1,45,127,0
1,34,127,0
1,46,127,0
1,34,127,0
1,46,127,0
1,34,127,0
1,46,127,0
1,34,127,0
1,46,127,0
1,29,127,0
1,41,127,0
1,29,127,0
1,41,127,0
1,29,127,0
1,41,127,0
1,29,127,0
1,41,127,0
1,24,127,0
1,36,127,0
1,24,127,0
1,36,127,0
1,24,127,0
1,36,127,0
1,24,127,0
1,36,127,0
1,32,127,0
1,44,127,0
1,32,127,0
1,44,127,0
1,32,127,0
1,44,127,0
1,32,127,0
1,44,127,0
1,34,127,0
1,46,127,0
1,34,127,0
1,46,127,0
1,34,127,0
1,46,127,0
1,34,127,0
1,46,127,0
1,29,127,0
1,41,127,0
1,29,127,0
1,41,127,0
1,29,127,0
1,41,127,0
1,29,127,0
1,41,127,0
1,24,127,0
1,36,127,0
1,24,127,0
1,36,127,0
1,24,127,0
1,36,127,0
1,24,127,0
1,36,127,0
1,33,127,0
1,45,127,0
1,33,127,0
1,45,127,0
1,33,127,0
1,45,127,0
1,33,127,0
1,45,127,0
1,34,127,0
1,46,127,0
1,34,127,0
1,46,127,0
1,34,127,0
1,46,127,0
1,34,127,0
1,46,127,0
1,29,127,0
1,41,127,0
1,29,127,0
1,41,127,0
1,29,127,0
1,41,127,0
1,29,127,0
1,41,127,0
1,24,127,0
1,36,127,0
1,24,127,0
1,36,127,0
1,24,127,0
1,36,127,0
1,24,127,0
1,36,127,0
1,32,127,0
1,44,127,0
1,32,127,0
1,44,127,0
1,32,127,0
1,44,127,0
1,32,127,0
1,44,127,0
1,34,127,0
1,46,127,0
1,34,127,0
1,46,127,0
1,34,127,0
1,46,127,0
1,34,127,0
1,46,127,0
1,29,127,0
1,41,127,0
1,29,127,0
1,41,127,0
1,29,127,0
1,41,127,0
1,29,127,0
1,41,127,0
1,24,127,0
1,36,127,0
1,24,127,0
1,36,127,0
1,24,127,0
1,36,127,0
1,24,127,0
1,36,127,0
1,33,127,0
1,45,127,0
1,33,127,0
1,45,127,0
1,33,127,0
1,45,127,0
1,33,127,0
1,45,127,0
1,34,127,0
1,46,127,0
1,34,127,0
1,46,127,0
1,34,127,0
1,46,127,0
1,34,127,0
1,46,127,0
1,29,127,0
1,41,127,0
1,29,127,0
1,41,127,0
1,29,127,0
1,41,127,0
1,29,127,0
1,41,127,0
1,24,127,0
1,36,127,0
1,24,127,0
1,36,127,0
1,24,127,0
1,36,127,0
1,24,127,0
1,36,127,0
1,32,127,0
1,44,127,0
1,32,127,0
1,44,127,0
1,32,127,0
1,44,127,0
1,32,127,0
1,44,127,0
1,34,127,0
1,46,127,0
1,34,127,0
1,46,127,0
1,34,127,0
1,46,127,0
1,34,127,0
1,46,127,0
1,29,127,0
1,41,127,0
1,29,127,0
1,41,127,0
1,29,127,0
1,41,127,0
1,29,127,0
1,41,127,0
1,24,127,0
1,36,127,0
1,24,127,0
1,36,127,0
1,24,127,0
1,36,127,0
1,24,127,0
1,36,127,0
1,33,127,0
1,45,127,0
1,33,127,0
1,45,127,0
1,33,127,0
1,45,127,0
1,33,127,0
1,45,127,0
1,34,127,0
1,46,127,0
1,34,127,0
1,46,127,0
1,34,127,0
1,46,127,0
1,34,127,0
1,46,127,0
1,29,127,0
1,41,127,0
1,29,127,0
1,41,127,0
1,29,127,0
1,41,127,0
1,29,127,0
1,41,127,0
1,24,127,0
1,36,127,0
1,24,127,0
1,36,127,0
1,24,127,0
1,36,127,0
1,24,127,0
1,36,127,0
1,32,127,0
1,44,127,0
1,32,127,0
1,44,127,0
1,32,127,0
1,44,127,0
1,32,127,0
1,44,127,0
1,34,127,0
1,46,127,0
1,34,127,0
1,46,127,0
1,34,127,0
1,46,127,0
1,34,127,0
1,46,127,0
1,29,127,0
1,41,127,0
1,29,127,0
1,41,127,0
1,29,127,0
1,41,127,0
1,29,127,0
1,41,127,0
1,24,127,0
1,36,127,0
1,24,127,0
1,36,127,0
1,24,127,0
1,36,127,0
1,24,127,0
1,36,127,0
1,33,127,0
1,45,127,0
1,33,127,0
1,45,127,0
1,33,127,0
1,45,127,0
1,33,127,0
1,45,127,0
1,34,127,0
1,46,127,0
1,34,127,0
1,46,127,0
1,34,127,0
1,46,127,0
1,34,127,0
1,46,127,0
1,29,127,0
1,41,127,0
1,29,127,0
1,41,127,0
1,29,127,0
1,41,127,0
1,29,127,0
1,41,127,0
2,70,127,13136
2,72,127,0
2,74,127,0
2,72,127,0
2,70,127,0
2,72,127,0
2,67,127,0
2,67,127,192
2,72,127,0
2,70,127,0
2,70,127,576
2,72,127,0
2,74,127,0
2,72,127,0
2,70,127,0
2,72,127,0
2,67,127,0
2,67,127,192
2,72,127,0
2,70,127,0
2,72,90,0
2,79,90,0
2,84,90,0
2,79,90,0
2,72,90,0
2,79,70,0
2,84,60,0
2,79,55,0
2,72,52,0
2,72,90,5280
2,77,90,0
2,84,90,0
2,77,90,0
2,72,90,0
2,77,70,0
2,84,60,0
2,77,55,0
2,72,52,0
2,72,90,6816
2,79,90,0
2,84,90,0
2,79,90,0
2,72,90,0
2,79,70,0
2,84,60,0
2,79,55,0
2,72,52,0
2,72,127,0
2,67,127,0
2,67,127,192
2,72,127,0
2,70,127,0
2,70,127,576
2,72,127,0
2,74,127,0
2,72,127,0
2,70,127,0
2,72,127,0
2,67,127,0
2,67,127,192
2,72,127,0
2,70,127,0
2,72,90,0
2,79,90,0
2,84,90,0
2,79,90,0
2,72,90,0
2,79,70,0
2,84,60,0
2,79,55,0
2,72,52,0
2,72,90,5280
2,77,90,0
2,84,90,0
2,77,90,0
2,72,90,0
2,77,70,0
2,84,60,0
2,77,55,0
2,72,52,0
2,72,90,6816
2,79,90,0
2,84,90,0
2,79,90,0
2,72,90,0
2,79,70,0
2,84,60,0
2,79,55,0
2,72,52,0
2,70,127,0
2,72,127,0
2,74,127,0
2,72,127,0
2,70,127,0
2,72,127,0
2,67,127,0
2,67,127,192
2,72,127,0
2,70,127,0
2,70,127,192
2,70,127,0
2,72,127,0
2,74,127,0
2,72,127,0
2,65,127,0
2,60,127,192
2,62,127,0
2,65,127,0
2,70,127,16
2,77,127,0
2,84,127,0
2,77,120,0
2,70,110,0
2,77,100,0
2,84,90,0
2,77,80,0
2,70,70,0
2,77,60,0
2,72,127,16
2,77,127,0
2,84,127,0
2,77,120,0
2,72,110,0
2,77,100,0
2,84,90,0
2,77,80,0
2,72,70,0
2,77,60,0
2,84,55,0
2,77,55,0
2,72,55,0
2,77,60,0
2,84,65,0
2,77,70,0
2,72,75,0
2,77,80,0
2,84,85,0
2,77,90,0
2,72,100,0
2,77,110,0
2,84,120,0
2,77,127,0
2,72,127,0
3,72,110,0
