track,note,velocity,time
0,75,127,0
0,67,120,0
0,70,120,0
0,27,127,0
0,75,127,0
0,67,120,0
0,70,120,0
0,74,127,2
0,74,127,0
0,74,0,300
0,72,127,0
0,70,0,0
0,67,0,0
0,62,120,0
0,67,120,0
0,27,0,0
0,31,127,0
0,74,0,0
0,72,127,0
0,70,0,0
0,67,0,0
0,62,120,0
0,67,120,0
0,70,127,180
0,70,127,0
0,72,0,3
0,72,0,0
0,70,0,230
0,70,0,0
0,72,127,7
0,72,127,0
0,72,0,30
0,74,127,0
0,72,0,0
0,74,127,0
0,74,0,30
0,75,127,0
0,67,0,0
0,62,0,0
0,67,120,0
0,70,120,0
0,31,0,0
0,27,127,0
0,74,0,0
0,75,127,0
0,67,0,0
0,62,0,0
0,67,120,0
0,70,120,0
0,75,0,111
0,75,0,0
0,74,127,9
0,74,127,0
0,72,127,120
0,72,127,0
0,74,0,9
0,74,0,0
0,70,127,111
0,70,127,0
0,72,0,9
0,72,0,0
0,74,127,111
0,70,0,0
0,67,0,0
0,62,120,0
0,67,120,0
0,27,0,0
0,31,127,0
0,74,127,0
0,70,0,0
0,67,0,0
0,62,120,0
0,67,120,0
0,70,0,5
0,70,0,0
0,74,0,178
0,74,0,0
0,72,127,237
0,72,127,0
0,74,127,30
0,74,127,0
0,72,0,5
0,72,0,0
0,74,0,25
0,75,127,0
0,67,0,0
0,62,0,0
0,67,120,0
0,70,120,0
0,31,0,0
0,27,127,0
0,74,0,0
0,75,127,0
0,67,0,0
0,62,0,0
0,67,120,0
0,70,120,0
0,75,0,119
0,75,0,0
0,74,127,1
0,74,127,0
0,72,127,120
0,72,127,0
0,74,0,1
0,74,0,0
0,72,0,161
0,72,0,0
0,72,127,18
0,72,127,0
0,72,0,27
0,72,0,0
0,70,127,3
0,70,127,0
0,74,127,30
0,70,0,0
0,67,0,0
0,62,120,0
0,67,120,0
0,27,0,0
0,31,127,0
0,74,127,0
0,70,0,0
0,67,0,0
0,62,120,0
0,67,120,0
0,70,0,3
0,70,0,0
0,74,0,103
0,74,0,0
0,70,127,14
0,70,127,0
0,67,127,120
0,67,127,0
0,70,0,1
0,70,0,0
0,67,0,167
0,67,0,0
0,67,127,12
0,67,127,0
0,69,127,30
0,69,127,0
0,67,0,5
0,67,0,0
0,69,0,25
0,70,127,0
0,67,0,0
0,62,0,0
0,63,120,0
0,67,120,0
0,31,0,0
0,27,127,0
0,69,0,0
0,70,127,0
0,67,0,0
0,62,0,0
0,63,120,0
0,67,120,0
0,70,0,111
0,70,0,0
0,69,127,9
0,69,127,0
0,69,0,114
0,69,0,0
0,67,127,6
0,67,127,0
0,67,0,100
0,67,0,0
0,65,127,20
0,65,127,0
0,65,0,100
0,65,0,0
0,67,127,20
0,67,0,0
0,63,0,0
0,58,120,0
0,62,120,0
0,67,120,0
0,27,0,0
0,31,127,0
0,67,127,0
0,67,0,0
0,63,0,0
0,58,120,0
0,62,120,0
0,67,120,0
0,69,120,0
0,65,120,0
0,62,120,0
0,31,0,0
0,38,127,0
0,62,94,0
0,67,0,0
0,62,0,0
0,58,0,0
0,50,127,0
0,36,120,0
0,62,0,14
0,50,0,0
0,62,94,16
0,50,127,0
0,62,0,14
0,50,0,0
0,38,0,6
0,38,127,10
0,62,94,0
0,50,127,0
0,62,0,14
0,50,0,0
0,38,0,16
0,38,127,0
0,62,94,0
0,62,0,14
0,36,0,15
0,62,94,1
0,36,120,0
0,38,0,14
0,62,0,0
0,38,127,16
0,62,94,0
0,62,0,14
0,38,0,5
0,38,127,11
0,62,94,0
0,62,0,14
0,38,0,5
0,38,127,11
0,62,94,0
0,62,0,14
0,38,0,9
0,36,0,6
0,69,127,0
0,69,0,0
0,69,120,0
0,38,127,0
0,62,94,0
0,36,120,0
0,62,0,14
0,62,94,16
0,69,0,1
0,62,0,13
0,38,0,11
0,69,127,0
0,69,0,3
0,69,120,0
0,38,127,0
0,62,94,0
0,62,0,14
0,62,94,16
0,69,0,6
0,62,0,8
0,38,0,2
0,67,127,0
0,36,0,0
0,69,0,1
0,62,0,0
0,65,0,0
0,60,120,0
0,64,120,0
0,67,120,0
0,36,127,0
0,60,94,0
0,36,120,0
0,60,0,14
0,60,94,16
0,67,0,7
0,36,0,5
0,60,0,2
0,67,0,16
0,72,120,0
0,36,127,0
0,60,94,0
0,72,127,0
0,60,0,12
0,60,94,16
0,36,0,9
0,60,0,5
0,36,0,15
0,64,0,1
0,60,0,0
0,65,120,0
0,69,120,0
0,29,127,0
0,53,94,0
0,36,120,0
0,53,0,14
0,53,94,16
0,70,127,0
0,53,0,13
0,29,0,4
0,69,127,0
0,70,0,6
0,29,127,0
0,53,94,0
0,53,0,14
0,29,0,11
0,29,127,5
0,53,94,0
0,53,0,14
0,36,0,15
0,53,94,1
0,36,120,0
0,29,0,13
0,53,0,1
0,29,127,16
0,53,94,0
0,53,0,14
0,29,0,5
0,29,127,11
0,53,94,0
0,53,0,14
0,29,0,13
0,29,127,3
0,53,94,0
0,53,0,14
0,29,0,9
0,36,0,6
0,72,0,1
0,29,127,0
0,53,94,0
0,36,120,0
0,53,0,14
0,69,0,12
0,53,94,4
0,53,0,14
0,29,0,10
0,69,120,6
0,29,127,0
0,53,94,0
0,69,127,0
0,53,0,12
0,53,94,16
0,29,0,3
0,53,0,11
0,67,127,0
0,36,0,3
0,69,0,1
0,69,0,0
0,65,0,0
0,60,120,0
0,64,120,0
0,67,120,0
0,36,127,0
0,60,94,0
0,36,120,0
0,60,0,14
0,60,94,16
0,60,0,14
0,36,0,6
0,67,0,6
0,65,127,0
0,67,0,4
0,65,120,0
0,36,127,0
0,60,94,0
0,60,0,14
0,60,94,16
0,36,0,8
0,60,0,6
0,36,0,15
0,64,0,1
0,60,0,0
0,57,120,0
0,62,120,0
0,38,127,0
0,62,94,0
0,50,127,0
0,36,120,0
0,65,0,11
0,62,0,3
0,50,0,0
0,62,94,16
0,50,127,0
0,62,0,14
0,50,0,0
0,38,0,6
0,38,127,10
0,62,94,0
0,50,127,0
0,62,0,14
0,50,0,0
0,38,0,16
0,38,127,0
0,62,94,0
0,62,0,14
0,36,0,15
0,62,94,1
0,36,120,0
0,38,0,14
0,62,0,0
0,38,127,16
0,62,94,0
0,62,0,14
0,38,0,5
0,38,127,11
0,62,94,0
0,62,0,14
0,38,0,5
0,38,127,11
0,62,94,0
0,62,0,14
0,38,0,9
0,36,0,6
0,65,0,1
0,65,120,0
0,38,127,0
0,62,94,0
0,36,120,0
0,65,127,0
0,62,0,10
0,62,94,16
0,62,0,14
0,65,0,8
0,38,0,3
0,65,0,5
0,67,120,0
0,38,127,0
0,62,94,0
0,67,127,0
0,62,0,12
0,62,94,16
0,62,0,14
0,38,0,2
0,36,0,13
0,67,0,1
0,67,0,0
0,62,0,0
0,57,0,0
0,60,120,0
0,64,120,0
0,69,120,0
0,36,127,0
0,60,94,0
0,36,120,0
0,69,127,0
0,60,0,10
0,60,94,16
0,36,0,12
0,60,0,2
0,69,0,10
0,69,0,6
0,67,120,0
0,36,127,0
0,60,94,0
0,67,127,0
0,60,0,11
0,60,94,16
0,36,0,9
0,60,0,5
0,67,0,13
0,36,0,2
0,67,0,1
0,64,0,0
0,60,0,0
0,57,120,0
0,60,120,0
0,65,120,0
0,29,127,0
0,53,94,0
0,36,120,0
0,65,127,0
0,53,0,9
0,53,94,16
0,53,0,14
0,29,0,4
0,29,127,12
0,53,94,0
0,53,0,14
0,29,0,11
0,29,127,5
0,53,94,0
0,65,0,7
0,53,0,7
0,36,0,15
0,53,94,1
0,36,120,0
0,29,0,13
0,53,0,1
0,29,127,16
0,53,94,0
0,53,0,14
0,29,0,5
0,29,127,11
0,53,94,0
0,53,0,14
0,29,0,13
0,29,127,3
0,53,94,0
0,53,0,14
0,29,0,9
0,36,0,6
0,29,127,1
0,53,94,0
0,36,120,0
0,53,0,14
0,53,94,16
0,53,0,14
0,29,0,10
0,29,127,6
0,53,94,0
0,53,0,14
0,53,94,16
0,29,0,3
0,53,0,11
0,36,0,15
0,65,0,1
0,60,0,0
0,57,0,0
0,60,120,0
0,64,120,0
0,67,120,0
0,36,127,0
0,60,94,0
0,36,120,0
0,60,0,14
0,60,94,16
0,60,0,14
0,36,0,6
0,36,127,10
0,60,94,0
0,60,0,14
0,60,94,16
0,36,0,8
0,60,0,6
0,36,0,15
0,67,0,1
0,64,0,0
0,60,0,0
0,69,120,0
0,65,120,0
0,62,120,0
0,38,127,0
0,62,94,0
0,50,127,0
0,36,120,0
0,62,0,14
0,50,0,0
0,62,94,16
0,50,127,0
0,62,0,14
0,50,0,0
0,38,0,6
0,38,127,10
0,62,94,0
0,50,127,0
0,62,0,14
0,50,0,0
0,38,0,16
0,38,127,0
0,62,94,0
0,62,0,14
0,36,0,15
0,62,94,1
0,36,120,0
0,38,0,14
0,62,0,0
0,38,127,16
0,62,94,0
0,62,0,14
0,38,0,5
0,38,127,11
0,62,94,0
0,62,0,14
0,38,0,5
0,38,127,11
0,62,94,0
0,62,0,14
0,38,0,9
0,36,0,6
0,69,127,0
0,69,0,0
0,69,120,0
0,38,127,0
0,62,94,0
0,36,120,0
0,62,0,14
0,69,0,15
0,62,94,1
0,62,0,14
0,38,0,11
0,69,0,5
0,69,120,0
0,38,127,0
0,62,94,0
0,69,127,0
0,62,0,13
0,62,94,16
0,62,0,14
0,69,0,1
0,38,0,1
0,36,0,13
0,69,0,1
0,62,0,0
0,65,0,0
0,60,120,0
0,64,120,0
0,67,120,0
0,36,127,0
0,60,94,0
0,36,120,0
0,67,127,0
0,60,0,13
0,60,94,16
0,36,0,12
0,60,0,2
0,67,0,5
0,72,127,0
0,67,0,0
0,72,120,0
0,36,127,0
0,60,94,0
0,60,0,14
0,60,94,16
0,36,0,9
0,60,0,5
0,36,0,15
0,64,0,1
0,60,0,0
0,65,120,0
0,69,120,0
0,29,127,0
0,53,94,0
0,36,120,0
0,53,0,14
0,70,127,0
0,53,94,0
0,72,0,12
0,53,0,2
0,29,0,4
0,70,0,9
0,69,127,0
0,29,127,0
0,53,94,0
0,53,0,14
0,29,0,11
0,29,127,5
0,53,94,0
0,53,0,14
0,36,0,15
0,53,94,1
0,36,120,0
0,29,0,13
0,53,0,1
0,29,127,16
0,53,94,0
0,53,0,14
0,29,0,5
0,29,127,11
0,53,94,0
0,53,0,14
0,29,0,13
0,29,127,3
0,53,94,0
0,53,0,14
0,29,0,9
0,69,0,4
0,36,0,2
0,72,0,1
0,29,127,0
0,53,94,0
0,36,120,0
0,53,0,14
0,53,94,16
0,53,0,14
0,29,0,10
0,69,120,6
0,29,127,0
0,53,94,0
0,69,127,0
0,53,0,8
0,53,94,16
0,29,0,3
0,53,0,11
0,69,0,7
0,36,0,8
0,67,127,0
0,69,0,0
0,69,0,0
0,65,0,0
0,60,120,0
0,64,120,0
0,67,120,0
0,36,127,0
0,60,94,0
0,36,120,0
0,60,0,14
0,60,94,16
0,60,0,14
0,36,0,6
0,67,0,4
0,67,0,6
0,65,120,0
0,36,127,0
0,60,94,0
0,65,127,4
0,60,0,10
0,60,94,16
0,36,0,8
0,60,0,6
0,36,0,15
0,64,0,1
0,60,0,0
0,57,120,0
0,62,120,0
0,38,127,0
0,62,94,0
0,50,127,0
0,36,120,0
0,62,0,14
0,50,0,0
0,62,94,16
0,50,127,0
0,62,0,14
0,50,0,0
0,38,0,6
0,38,127,10
0,62,94,0
0,50,127,0
0,62,0,14
0,50,0,0
0,38,0,16
0,38,127,0
0,62,94,0
0,62,0,14
0,36,0,15
0,62,94,1
0,36,120,0
0,65,0,4
0,38,0,10
0,62,0,0
0,38,127,16
0,62,94,0
0,62,0,14
0,38,0,5
0,65,0,11
0,62,120,0
0,38,127,0
0,62,94,0
0,62,127,0
0,62,0,13
0,38,0,5
0,38,127,11
0,62,94,0
0,62,0,14
0,38,0,9
0,62,0,4
0,36,0,2
0,65,127,0
0,62,0,0
0,65,120,0
0,38,127,0
0,62,94,0
0,36,120,0
0,62,0,14
0,62,94,16
0,62,0,14
0,38,0,11
0,65,0,5
0,67,120,0
0,38,127,0
0,62,94,0
0,67,127,0
0,62,0,8
0,62,94,16
0,62,0,14
0,38,0,2
0,36,0,13
0,67,0,1
0,67,0,0
0,62,0,0
0,57,0,0
0,60,120,0
0,64,120,0
0,69,120,0
0,36,127,0
0,60,94,0
0,36,120,0
0,69,127,0
0,60,0,12
0,60,94,16
0,36,0,12
0,60,0,2
0,69,0,16
0,69,0,0
0,67,120,0
0,36,127,0
0,60,94,0
0,67,127,0
0,60,0,11
0,60,94,16
0,36,0,9
0,60,0,5
0,67,0,6
0,65,127,0
0,36,0,0
0,67,0,1
0,64,0,0
0,60,0,0
0,65,120,0
0,57,120,0
0,60,120,0
0,29,127,0
0,53,94,0
0,36,120,0
0,53,0,14
0,53,94,16
0,53,0,14
0,29,0,4
0,29,127,12
0,53,94,0
0,65,0,9
0,53,0,5
0,29,0,11
0,29,127,5
0,53,94,0
0,53,0,14
0,36,0,15
0,53,94,1
0,36,120,0
0,29,0,13
0,53,0,1
0,29,127,16
0,53,94,0
0,53,0,14
0,29,0,5
0,29,127,11
0,53,94,0
0,53,0,14
0,29,0,13
0,29,127,3
0,53,94,0
0,53,0,14
0,29,0,9
0,36,0,6
0,65,0,1
0,29,127,0
0,53,94,0
0,36,120,0
0,53,0,14
0,53,94,16
0,53,0,14
0,29,0,10
0,69,127,0
0,69,120,0
0,29,127,0
0,53,94,0
0,53,0,14
0,53,94,16
0,29,0,3
0,53,0,11
0,36,0,15
0,69,0,1
0,60,0,0
0,57,0,0
0,67,120,0
0,60,120,0
0,64,120,0
0,36,127,0
0,60,94,0
0,36,120,0
0,67,127,0
0,69,0,6
0,60,0,4
0,60,94,16
0,60,0,14
0,36,0,6
0,67,0,8
0,74,127,0
0,67,0,0
0,74,120,0
0,36,127,0
0,60,94,0
0,60,0,14
0,60,94,16
0,36,0,8
0,60,0,6
0,36,0,15
0,64,0,1
0,60,0,0
0,62,120,0
0,65,120,0
0,69,120,0
0,38,127,0
0,62,94,0
0,36,120,0
0,62,0,14
0,62,94,16
0,62,0,14
0,38,0,2
0,38,127,14
0,62,94,0
0,62,0,14
0,38,0,13
0,38,127,3
0,62,94,0
0,62,0,14
0,36,0,15
0,62,94,1
0,36,120,0
0,38,0,11
0,62,0,3
0,38,127,16
0,62,94,0
0,74,0,1
0,62,0,13
0,38,0,5
0,38,127,11
0,62,94,0
0,62,0,14
0,38,0,7
0,38,127,9
0,62,94,0
0,62,0,14
0,38,0,9
0,36,0,6
0,38,127,1
0,62,94,0
0,36,120,0
0,62,0,14
0,62,94,16
0,62,0,14
0,38,0,2
0,69,127,0
0,74,0,0
0,38,127,0
0,62,94,0
0,62,0,14
0,62,94,16
0,38,0,9
0,62,0,5
0,36,0,15
0,69,120,1
0,38,127,0
0,62,94,0
0,36,120,0
0,62,0,14
0,62,94,16
0,62,0,14
0,38,0,4
0,76,127,0
0,62,0,0
0,69,0,0
0,65,0,0
0,64,120,0
0,69,120,0
0,72,120,0
0,76,120,0
0,38,127,0
0,62,94,0
0,62,0,14
0,62,94,16
0,38,0,2
0,62,0,12
0,36,0,15
0,69,0,1
0,33,127,0
0,57,94,0
0,36,120,0
0,57,0,14
0,57,94,16
0,33,0,13
0,57,0,1
0,33,127,16
0,57,94,0
0,57,0,14
0,33,0,7
0,33,127,9
0,57,94,0
0,57,0,14
0,36,0,15
0,57,94,1
0,36,120,0
0,33,0,14
0,57,0,0
0,33,127,16
0,57,94,0
0,57,0,14
0,33,0,5
0,33,127,11
0,57,94,0
0,57,0,14
0,33,0,13
0,33,127,3
0,57,94,0
0,57,0,14
0,33,0,6
0,36,0,9
0,76,0,1
0,76,0,0
0,33,127,0
0,57,94,0
0,36,120,0
0,57,0,14
0,57,94,16
0,33,0,13
0,57,0,1
0,72,127,0
0,72,120,0
0,33,127,0
0,57,94,0
0,57,0,14
