track,note,velocity,time
1,62,127,0
1,64,127,32
1,66,127,8
1,69,127,192
1,66,127,208
1,74,127,0
1,74,127,128
1,73,127,96
1,71,127,72
1,69,127,172
1,66,127,144
1,62,127,160
1,64,127,96
1,66,127,80
1,69,127,184
1,69,127,152
1,62,127,136
1,64,127,96
1,66,127,76
1,69,127,184
1,69,127,152
1,64,127,184
1,66,127,96
1,67,127,80
1,69,127,164
1,73,127,236
1,73,127,124
1,73,127,96
1,64,127,96
1,66,127,96
1,67,127,16
1,69,127,192
1,69,127,156
1,64,127,148
1,66,127,96
1,67,127,8
1,69,127,36
1,73,127,256
1,73,127,160
1,73,127,104
1,64,127,72
1,66,127,96
1,67,127,16
1,66,127,56
1,66,127,220
1,62,127,528
1,64,127,96
1,66,127,4
1,69,127,8
1,74,127,152
1,74,127,116
1,73,127,96
1,71,127,72
1,69,127,32
1,71,127,164
1,66,127,128
1,69,127,52
1,62,127,104
1,64,127,96
1,66,127,16
1,69,127,8
1,69,127,168
1,62,127,68
1,64,127,96
1,66,127,88
1,69,127,12
1,69,127,172
1,64,127,192
1,66,127,96
1,67,127,68
1,69,127,20
1,73,127,152
1,73,127,132
1,73,127,84
1,64,127,96
1,66,127,96
1,67,127,16
1,69,127,12
1,69,127,168
1,64,127,100
1,66,127,4
1,67,127,96
1,69,127,36
1,73,127,208
1,73,127,216
1,73,127,84
1,64,127,84
1,66,127,96
1,67,127,28
1,66,127,80
1,66,127,184
1,64,127,208
1,66,127,0
1,67,127,12
1,69,127,52
1,69,127,196
1,64,127,1432
1,66,127,96
1,67,127,8
1,69,127,48
1,69,127,224
1,66,127,508
1,64,127,0
1,62,127,20
1,59,127,112
1,64,127,64
1,64,127,36
1,66,127,92
1,64,127,48
1,59,127,192
1,64,127,72
1,64,127,28
1,66,127,132
1,64,127,40
1,64,127,132
1,57,127,20
1,62,127,20
1,62,127,40
1,62,127,120
1,64,127,96
1,62,127,284
1,59,127,1620
1,64,127,76
1,64,127,40
1,64,127,128
1,66,127,20
1,64,127,56
1,59,127,96
1,64,127,72
1,64,127,32
1,66,127,4
1,64,127,24
1,64,127,112
1,57,127,20
1,62,127,8
1,62,127,32
1,62,127,112
1,64,127,12
1,62,127,288
1,62,127,196
1,64,127,96
1,66,127,20
1,69,127,20
1,74,127,104
1,71,127,204
1,71,127,128
1,71,127,108
1,71,127,32
1,71,127,40
1,73,127,24
1,74,127,32
1,71,127,260
1,71,127,40
1,71,127,32
1,71,127,88
1,71,127,40
1,71,127,52
1,73,127,48
1,74,127,28
1,71,127,20
1,71,127,92
1,71,127,144
1,71,127,348
1,71,127,120
1,71,127,108
1,71,127,32
1,71,127,40
1,73,127,44
1,74,127,20
1,71,127,236
1,71,127,52
1,71,127,44
1,71,127,52
1,71,127,32
1,71,127,40
1,73,127,56
1,74,127,24
1,64,127,156
1,66,127,20
1,67,127,32
1,69,127,44
1,69,127,136
1,64,127,1228
1,66,127,96
1,67,127,16
1,69,127,44
1,69,127,156
1,62,127,768
1,64,127,96
1,66,127,8
1,69,127,0
1,74,127,192
1,74,127,604
1,73,127,96
1,71,127,72
1,69,127,172
1,66,127,144
1,62,127,160
1,64,127,96
1,66,127,80
1,69,127,184
1,69,127,152
1,62,127,136
1,64,127,96
1,66,127,76
1,69,127,184
1,69,127,152
1,64,127,184
1,66,127,96
1,67,127,80
1,69,127,164
1,73,127,236
1,73,127,124
1,73,127,96
1,64,127,96
1,66,127,96
1,67,127,16
1,69,127,192
1,69,127,156
1,64,127,148
1,66,127,96
1,67,127,8
1,69,127,36
1,73,127,256
1,73,127,160
1,73,127,104
1,64,127,72
1,66,127,96
1,67,127,16
1,66,127,56
1,66,127,220
1,62,127,528
1,64,127,96
1,66,127,4
1,69,127,8
1,74,127,152
1,74,127,116
1,73,127,96
1,71,127,72
1,69,127,32
1,71,127,164
1,66,127,128
1,69,127,52
1,62,127,104
1,64,127,96
1,66,127,16
1,69,127,8
1,69,127,168
1,62,127,68
1,64,127,96
1,66,127,88
1,69,127,12
1,69,127,172
1,64,127,192
1,66,127,96
1,67,127,68
1,69,127,20
1,73,127,152
1,73,127,132
1,73,127,84
1,64,127,96
1,66,127,96
1,67,127,16
1,69,127,12
1,69,127,168
1,64,127,100
1,66,127,4
1,67,127,96
1,69,127,36
1,73,127,208
1,73,127,216
1,73,127,84
1,64,127,84
1,66,127,96
1,67,127,36
1,66,127,48
1,66,127,244
1,64,127,108
1,66,127,20
1,67,127,20
1,69,127,52
1,69,127,196
1,64,127,1432
1,66,127,96
1,67,127,8
1,69,127,48
1,69,127,224
1,66,127,508
1,64,127,0
1,62,127,20
1,59,127,112
1,64,127,64
1,64,127,36
1,66,127,92
1,64,127,48
1,59,127,192
1,64,127,72
1,64,127,28
1,66,127,132
1,64,127,40
1,64,127,132
1,57,127,20
1,62,127,20
1,62,127,40
1,62,127,120
1,64,127,96
1,62,127,284
1,59,127,1624
1,64,127,20
1,64,127,28
1,64,127,108
1,66,127,8
1,64,127,20
1,59,127,104
1,64,127,72
1,64,127,32
1,66,127,4
1,64,127,24
1,64,127,112
1,57,127,20
1,62,127,8
1,62,127,32
1,62,127,112
1,64,127,12
1,62,127,288
1,62,127,196
1,64,127,96
1,66,127,20
1,69,127,20
1,74,127,104
1,71,127,204
1,71,127,128
1,71,127,108
1,71,127,32
1,71,127,40
1,73,127,24
1,74,127,32
1,71,127,240
1,71,127,40
1,71,127,28
1,71,127,88
1,71,127,36
1,71,127,28
1,73,127,20
1,74,127,20
1,71,127,88
1,71,127,68
1,71,127,144
1,71,127,348
1,71,127,120
1,71,127,108
1,71,127,32
1,71,127,40
1,73,127,44
1,74,127,20
1,71,127,236
1,71,127,52
1,71,127,44
1,71,127,52
1,71,127,32
1,71,127,40
1,73,127,56
1,74,127,24
1,64,127,156
1,66,127,20
1,67,127,32
1,69,127,44
1,69,127,136
1,64,127,1228
1,66,127,96
1,67,127,16
1,69,127,44
1,69,127,156
1,62,127,26880
1,64,127,96
1,66,127,0
1,69,127,192
1,74,127,152
1,74,127,132
1,73,127,96
1,71,127,80
1,69,127,0
1,71,127,152
1,66,127,0
1,69,127,192
1,62,127,128
1,64,127,96
1,66,127,8
1,69,127,192
1,69,127,144
1,62,127,92
1,64,127,0
1,66,127,96
1,69,127,12
1,69,127,144
1,64,127,168
1,66,127,96
1,67,127,84
1,69,127,176
1,73,127,156
1,73,127,128
1,73,127,80
1,64,127,88
1,66,127,0
1,67,127,20
1,69,127,20
1,69,127,112
1,64,127,104
1,66,127,96
1,67,127,20
1,69,127,52
1,73,127,256
1,73,127,232
1,73,127,100
1,64,127,100
1,66,127,20
1,67,127,20
1,66,127,156
1,66,127,204
1,62,127,556
1,64,127,12
1,66,127,12
1,69,127,20
1,74,127,164
1,74,127,640
1,73,127,96
1,71,127,80
1,69,127,0
1,71,127,152
1,66,127,0
1,69,127,192
1,62,127,128
1,64,127,96
1,66,127,8
1,69,127,192
1,69,127,144
1,62,127,92
1,64,127,0
1,66,127,96
1,69,127,12
1,69,127,144
1,64,127,168
1,66,127,96
1,67,127,84
1,69,127,176
1,73,127,156
1,73,127,128
1,73,127,80
1,64,127,88
1,66,127,0
1,67,127,20
1,69,127,20
1,69,127,112
1,64,127,104
1,66,127,96
1,67,127,20
1,69,127,52
1,73,127,256
1,73,127,232
1,73,127,100
1,64,127,100
1,66,127,20
1,67,127,20
1,66,127,156
1,66,127,204
1,62,127,556
1,64,127,12
1,66,127,12
1,69,127,20
1,74,127,164
1,74,127,640
1,73,127,96
1,71,127,80
1,69,127,0
1,71,127,152
1,66,127,0
1,69,127,192
1,62,127,128
1,64,127,96
1,66,127,8
1,69,127,192
1,69,127,144
1,62,127,92
1,64,127,0
1,66,127,96
1,69,127,12
1,69,127,144
1,64,127,168
1,66,127,96
1,67,127,84
1,69,127,176
1,73,127,156
1,73,127,128
1,73,127,80
1,64,127,88
1,66,127,0
1,67,127,20
1,69,127,20
1,69,127,112
1,64,127,104
1,66,127,96
1,67,127,20
1,69,127,52
1,73,127,256
1,73,127,232
1,73,127,100
1,64,127,100
1,66,127,20
1,67,127,20
1,66,127,156
1,66,127,204
1,62,127,556
1,64,127,12
1,66,127,12
1,69,127,20
1,74,127,164
1,74,127,640
1,73,127,96
1,71,127,80
1,69,127,0
1,71,127,152
1,66,127,0
1,69,127,192
1,62,127,128
1,64,127,96
1,66,127,8
1,69,127,192
1,69,127,144
1,62,127,92
1,64,127,0
1,66,127,96
1,69,127,12
1,69,127,144
1,64,127,168
1,66,127,96
1,67,127,84
1,69,127,176
1,73,127,156
1,73,127,128
1,73,127,80
1,64,127,88
1,66,127,0
1,67,127,20
1,69,127,20
1,69,127,112
1,64,127,104
1,66,127,96
1,67,127,20
1,69,127,52
1,73,127,256
1,73,127,232
1,73,127,100
1,64,127,100
1,66,127,20
1,67,127,20
1,66,127,156
1,66,127,204
2,38,127,1536
2,38,127,108
2,38,127,44
2,38,127,40
2,38,127,104
2,38,127,32
2,38,127,40
2,38,127,124
2,38,127,28
2,38,127,40
2,38,127,116
2,38,127,40
2,38,127,40
2,38,127,116
2,38,127,40
2,38,127,32
2,38,127,140
2,38,127,40
2,38,127,32
2,38,127,128
2,38,127,32
2,38,127,32
2,38,127,128
2,38,127,40
2,38,127,40
2,38,127,128
2,38,127,32
2,38,127,32
2,38,127,132
2,38,127,40
2,38,127,44
2,38,127,136
2,38,127,40
2,38,127,40
2,38,127,128
2,38,127,52
2,33,127,32
2,33,127,88
2,33,127,44
2,33,127,28
2,33,127,136
2,33,127,28
2,33,127,44
2,33,127,128
2,33,127,40
2,33,127,32
2,33,127,140
2,33,127,40
2,33,127,20
2,33,127,128
2,33,127,40
2,33,127,32
2,33,127,128
2,33,127,32
2,33,127,28
2,33,127,128
2,33,127,28
2,33,127,32
2,33,127,124
2,33,127,32
2,33,127,28
2,33,127,116
2,33,127,20
2,33,127,40
2,33,127,116
2,33,127,20
2,33,127,28
2,33,127,124
2,33,127,32
2,33,127,32
2,33,127,128
2,33,127,32
2,33,127,40
2,33,127,128
2,33,127,32
2,33,127,40
2,33,127,136
2,33,127,52
2,38,127,44
2,38,127,108
2,38,127,40
2,38,127,40
2,38,127,124
2,38,127,28
2,38,127,40
2,38,127,124
2,38,127,20
2,38,127,32
2,38,127,128
2,38,127,32
2,38,127,44
2,38,127,128
2,38,127,32
2,38,127,32
2,38,127,124
2,38,127,28
2,38,127,28
2,38,127,136
2,38,127,28
2,38,127,36
2,38,127,28
2,38,127,52
2,38,127,40
2,38,127,32
2,38,127,128
2,38,127,28
2,38,127,44
2,38,127,140
2,38,127,44
2,38,127,40
2,38,127,36
2,38,127,64
2,38,127,40
2,38,127,44
2,38,127,140
2,38,127,40
2,38,127,32
2,38,127,136
2,38,127,40
2,38,127,32
2,38,127,128
2,38,127,44
2,38,127,32
2,38,127,136
2,38,127,40
2,38,127,48
2,38,127,40
2,38,127,56
2,38,127,52
2,38,127,44
2,38,127,132
2,38,127,40
2,38,127,44
2,38,127,136
2,38,127,48
2,38,127,44
2,38,127,140
2,38,127,40
2,38,127,44
2,38,127,128
2,38,127,52
2,33,127,32
2,33,127,116
2,33,127,40
2,33,127,44
2,33,127,144
2,33,127,36
2,33,127,36
2,33,127,140
2,33,127,40
2,33,127,44
2,33,127,140
2,33,127,32
2,33,127,32
2,33,127,132
2,33,127,32
2,33,127,36
2,33,127,128
2,33,127,36
2,33,127,44
2,33,127,128
2,33,127,36
2,33,127,44
2,33,127,128
2,33,127,40
2,33,127,44
2,33,127,124
2,33,127,32
2,33,127,36
2,33,127,132
2,33,127,36
2,33,127,40
2,33,127,140
2,33,127,32
2,33,127,44
2,33,127,140
2,33,127,40
2,33,127,44
2,33,127,124
2,33,127,32
2,33,127,44
2,33,127,140
2,33,127,48
2,38,127,44
2,38,127,124
2,38,127,40
2,38,127,48
2,38,127,136
2,38,127,40
2,38,127,36
2,38,127,136
2,38,127,28
2,38,127,44
2,38,127,136
2,38,127,40
2,40,127,56
2,40,127,140
2,40,127,40
2,40,127,36
2,40,127,140
2,40,127,40
2,40,127,44
2,40,127,136
2,40,127,40
2,40,127,56
2,40,127,128
2,40,127,52
2,33,127,44
2,33,127,116
2,33,127,52
2,33,127,32
2,33,127,128
2,33,127,32
2,33,127,44
2,33,127,136
2,33,127,40
2,33,127,44
2,33,127,140
2,33,127,48
2,40,127,44
2,40,127,132
2,40,127,40
2,40,127,44
2,40,127,144
2,40,127,40
2,40,127,44
2,40,127,136
2,40,127,40
2,40,127,44
2,40,127,148
2,40,127,52
2,33,127,48
2,33,127,116
2,33,127,52
2,33,127,44
2,33,127,152
2,33,127,44
2,33,127,56
2,33,127,140
2,33,127,40
2,33,127,44
2,33,127,40
2,33,127,56
2,33,127,36
2,40,127,44
2,40,127,140
2,40,127,44
2,40,127,44
2,40,127,140
2,40,127,40
2,40,127,52
2,40,127,140
2,40,127,40
2,40,127,44
2,40,127,140
2,40,127,40
2,40,127,44
2,40,127,52
2,40,127,64
2,40,127,56
2,40,127,56
2,40,127,152
2,40,127,52
2,40,127,44
2,40,127,140
2,40,127,52
2,40,127,44
2,40,127,140
2,40,127,44
2,38,127,44
2,38,127,140
2,38,127,44
2,38,127,44
2,38,127,140
2,38,127,32
2,38,127,44
2,38,127,140
2,38,127,44
2,38,127,44
2,38,127,136
2,38,127,40
2,38,127,44
2,38,127,136
2,38,127,40
2,38,127,44
2,38,127,136
2,38,127,40
2,38,127,44
2,38,127,148
2,38,127,44
2,38,127,48
2,38,127,44
2,38,127,52
2,38,127,40
2,40,127,44
2,40,127,136
2,40,127,40
2,40,127,44
2,40,127,136
2,40,127,32
2,40,127,44
2,40,127,136
2,40,127,40
2,40,127,36
2,40,127,136
2,40,127,36
2,40,127,32
2,40,127,128
2,40,127,44
2,40,127,44
2,40,127,140
2,40,127,40
2,40,127,32
2,40,127,140
2,40,127,40
2,40,127,44
2,40,127,40
2,40,127,56
2,40,127,36
2,38,127,44
2,38,127,140
2,38,127,44
2,38,127,44
2,38,127,140
2,38,127,44
2,38,127,48
2,38,127,132
2,38,127,40
2,38,127,36
2,38,127,128
2,38,127,40
2,38,127,56
2,38,127,124
2,38,127,44
2,38,127,44
2,38,127,136
2,38,127,44
2,38,127,56
2,38,127,136
2,38,127,40
2,38,127,44
2,38,127,136
2,38,127,32
2,35,127,44
2,35,127,144
2,35,127,44
2,35,127,44
2,35,127,144
2,35,127,44
2,35,127,44
2,35,127,140
2,35,127,44
2,35,127,32
2,35,127,140
2,35,127,40
2,31,127,44
2,31,127,140
2,31,127,40
2,31,127,44
2,31,127,124
2,31,127,40
2,31,127,44
2,31,127,136
2,31,127,40
2,31,127,36
2,31,127,140
2,31,127,32
2,35,127,48
2,35,127,124
2,35,127,44
2,35,127,44
2,35,127,140
2,35,127,28
2,35,127,44
2,35,127,136
2,35,127,40
2,35,127,32
2,35,127,128
2,35,127,40
2,35,127,32
2,35,127,132
2,35,127,32
2,35,127,44
2,35,127,132
2,35,127,32
2,35,127,32
2,35,127,132
2,35,127,44
2,35,127,36
2,35,127,140
2,35,127,32
2,31,127,52
2,31,127,128
2,31,127,48
2,31,127,44
2,31,127,132
2,31,127,44
2,31,127,44
2,31,127,140
2,31,127,44
2,31,127,48
2,31,127,140
2,31,127,48
2,40,127,48
2,40,127,128
2,40,127,28
2,40,127,44
2,40,127,132
2,40,127,40
2,40,127,44
2,40,127,136
2,40,127,44
2,40,127,36
2,40,127,148
2,40,127,40
2,33,127,44
2,33,127,128
2,33,127,44
2,33,127,44
2,33,127,136
2,33,127,40
2,33,127,44
2,33,127,128
2,33,127,40
2,33,127,44
2,33,127,140
2,33,127,44
2,40,127,44
2,40,127,124
2,40,127,40
2,40,127,44
2,40,127,124
2,40,127,32
2,40,127,44
2,40,127,136
2,40,127,44
2,40,127,52
2,33,127,132
2,38,127,1716
2,38,127,44
2,38,127,44
2,38,127,108
2,38,127,36
