track,note,velocity,time
1,31,127,1536
1,31,127,100
1,31,127,4
1,31,127,4
1,31,127,100
1,31,127,100
1,31,127,100
1,31,127,100
1,43,127,100
1,33,127,100
1,33,127,100
1,33,127,4
1,33,127,4
1,33,127,100
1,33,127,100
1,33,127,100
1,33,127,100
1,45,127,100
1,26,127,100
1,26,127,100
1,26,127,4
1,26,127,4
1,26,127,100
1,26,127,100
1,26,127,100
1,26,127,100
1,38,127,100
1,26,127,100
1,26,127,100
1,26,127,4
1,26,127,4
1,26,127,100
1,26,127,100
1,26,127,100
1,26,127,100
1,38,127,100
1,31,127,100
1,31,127,100
1,31,127,4
1,31,127,4
1,31,127,100
1,31,127,100
1,31,127,100
1,31,127,100
1,43,127,100
1,33,127,100
1,33,127,100
1,33,127,4
1,33,127,4
1,33,127,100
1,33,127,100
1,33,127,100
1,33,127,100
1,45,127,100
1,26,127,100
1,26,127,100
1,26,127,4
1,26,127,4
1,26,127,100
1,26,127,100
1,26,127,100
1,26,127,100
1,38,127,100
1,26,127,100
1,26,127,100
1,26,127,4
1,26,127,4
1,26,127,100
1,26,127,100
1,26,127,100
1,26,127,100
1,38,127,100
1,31,127,100
1,31,127,100
1,31,127,4
1,31,127,4
1,31,127,100
1,31,127,100
1,31,127,100
1,31,127,100
1,43,127,100
1,33,127,100
1,33,127,100
1,33,127,4
1,33,127,4
1,33,127,100
1,33,127,100
1,33,127,100
1,33,127,100
1,45,127,100
1,26,127,100
1,26,127,100
1,26,127,4
1,26,127,4
1,26,127,100
1,26,127,100
1,26,127,100
1,26,127,100
1,38,127,100
1,26,127,100
1,26,127,100
1,26,127,4
1,26,127,4
1,26,127,100
1,26,127,100
1,26,127,100
1,26,127,100
1,38,127,100
1,31,127,100
1,31,127,100
1,31,127,4
1,31,127,4
1,31,127,100
1,31,127,100
1,31,127,100
1,31,127,100
1,43,127,100
1,33,127,100
1,33,127,100
1,33,127,4
1,33,127,4
1,33,127,100
1,33,127,100
1,33,127,100
1,33,127,100
1,45,127,100
1,26,127,100
1,26,127,100
1,26,127,4
1,26,127,4
1,26,127,100
1,26,127,100
1,26,127,100
1,26,127,100
1,38,127,100
1,26,127,100
1,26,127,100
1,26,127,4
1,26,127,4
1,26,127,100
1,26,127,100
1,26,127,100
1,26,127,100
1,38,127,100
1,31,127,100
1,31,127,100
1,31,127,4
1,31,127,4
1,31,127,100
1,31,127,100
1,31,127,100
1,31,127,100
1,43,127,100
1,33,127,100
1,33,127,100
1,33,127,4
1,33,127,4
1,33,127,100
1,33,127,100
1,33,127,100
1,33,127,100
1,45,127,100
1,26,127,100
1,26,127,100
1,26,127,4
1,26,127,4
1,26,127,100
1,26,127,100
1,26,127,100
1,26,127,100
1,38,127,100
1,26,127,100
1,26,127,100
1,26,127,4
1,26,127,4
1,26,127,100
1,26,127,100
1,26,127,100
1,26,127,100
1,38,127,100
1,31,127,100
1,31,127,100
1,31,127,4
1,31,127,4
1,31,127,100
1,31,127,100
1,31,127,100
1,31,127,100
1,43,127,100
1,33,127,100
1,33,127,100
1,33,127,4
1,33,127,4
1,33,127,100
1,33,127,100
1,33,127,100
1,33,127,100
1,45,127,100
1,26,127,100
1,26,127,100
1,26,127,4
1,26,127,4
1,26,127,100
1,26,127,100
1,26,127,100
1,26,127,100
1,38,127,100
1,26,127,100
1,26,127,100
1,26,127,4
1,26,127,4
1,26,127,100
1,26,127,100
1,26,127,100
1,26,127,100
1,38,127,100
1,31,127,100
1,31,127,100
1,31,127,4
1,31,127,4
1,31,127,100
1,31,127,100
1,31,127,100
1,31,127,100
1,43,127,100
1,33,127,100
1,33,127,100
1,33,127,4
1,33,127,4
1,33,127,100
1,33,127,100
1,33,127,100
1,33,127,100
1,45,127,100
1,35,127,100
1,35,127,96
1,35,127,36
1,35,127,46
1,35,127,96
1,35,127,96
1,35,127,80
1,35,127,96
1,47,127,72
1,35,127,62
1,35,127,96
1,35,127,36
1,35,127,46
1,35,127,96
1,35,127,96
1,35,127,80
1,35,127,96
1,47,127,72
1,31,127,62
1,31,127,100
1,31,127,4
1,31,127,4
1,31,127,100
1,31,127,100
1,31,127,100
1,31,127,100
1,43,127,100
1,31,127,100
1,31,127,100
1,31,127,4
1,31,127,4
1,31,127,100
1,31,127,100
1,31,127,100
1,31,127,100
1,43,127,100
1,33,127,100
1,33,127,100
1,33,127,4
1,33,127,4
1,33,127,100
1,33,127,100
1,33,127,100
1,33,127,100
1,45,127,100
1,33,127,100
1,33,127,100
1,33,127,4
1,33,127,4
1,33,127,100
1,33,127,100
1,33,127,100
1,33,127,100
1,45,127,100
1,31,127,100
1,31,127,100
1,31,127,4
1,31,127,4
1,31,127,100
1,31,127,100
1,31,127,100
1,31,127,100
1,43,127,100
1,33,127,100
1,33,127,100
1,33,127,4
1,33,127,4
1,33,127,100
1,33,127,100
1,33,127,100
1,33,127,100
1,45,127,100
1,26,127,100
1,26,127,100
1,26,127,4
1,26,127,4
1,26,127,100
1,26,127,100
1,26,127,100
1,26,127,100
1,38,127,100
1,26,127,100
1,26,127,100
1,26,127,4
1,26,127,4
1,26,127,100
1,26,127,100
1,26,127,100
1,26,127,100
1,38,127,100
1,31,127,100
1,31,127,100
1,31,127,4
1,31,127,4
1,31,127,100
1,31,127,100
1,31,127,100
1,31,127,100
1,43,127,100
1,33,127,100
1,33,127,100
1,33,127,4
1,33,127,4
1,33,127,100
1,33,127,100
1,33,127,100
1,33,127,100
1,45,127,100
1,26,127,100
1,26,127,100
1,26,127,4
1,26,127,4
1,26,127,100
1,26,127,100
1,26,127,100
1,26,127,100
1,38,127,100
1,26,127,100
1,26,127,100
1,26,127,4
1,26,127,4
1,26,127,100
1,26,127,100
1,26,127,100
1,26,127,100
1,38,127,100
1,31,127,100
1,31,127,100
1,31,127,4
1,31,127,4
1,31,127,100
1,31,127,100
1,31,127,100
1,31,127,100
1,43,127,100
1,33,127,100
1,33,127,100
1,33,127,4
1,33,127,4
1,33,127,100
1,33,127,100
1,33,127,100
1,33,127,100
1,45,127,100
1,26,127,100
1,26,127,100
1,26,127,4
1,26,127,4
1,26,127,100
1,26,127,100
1,26,127,100
1,26,127,100
1,38,127,100
1,26,127,100
1,26,127,100
1,26,127,4
1,26,127,4
1,26,127,100
1,26,127,100
1,26,127,100
1,26,127,100
1,38,127,100
1,31,127,100
1,31,127,100
1,31,127,4
1,31,127,4
1,31,127,100
1,31,127,100
1,31,127,100
1,31,127,100
1,43,127,100
1,33,127,100
1,33,127,100
1,33,127,4
1,33,127,4
1,33,127,100
1,33,127,100
1,33,127,100
1,33,127,100
1,45,127,100
1,26,127,100
1,26,127,100
1,26,127,4
1,26,127,4
1,26,127,100
1,26,127,100
1,26,127,100
1,26,127,100
1,38,127,100
1,26,127,100
1,26,127,100
1,26,127,4
1,26,127,4
1,26,127,100
1,26,127,100
1,26,127,100
1,26,127,100
1,38,127,100
1,31,127,100
1,31,127,100
1,31,127,4
1,31,127,4
1,31,127,100
1,31,127,100
1,31,127,100
1,31,127,100
1,43,127,100
1,33,127,100
1,33,127,100
1,33,127,4
1,33,127,4
1,33,127,100
1,33,127,100
1,33,127,100
1,33,127,100
1,45,127,100
1,26,127,100
1,26,127,100
1,26,127,4
1,26,127,4
1,26,127,100
1,26,127,100
1,26,127,100
1,26,127,100
1,38,127,100
1,26,127,100
1,26,127,100
1,26,127,4
1,26,127,4
1,26,127,100
1,26,127,100
1,26,127,100
1,26,127,100
1,38,127,100
1,31,127,100
1,31,127,100
1,31,127,4
1,31,127,4
1,31,127,100
1,31,127,100
1,31,127,100
1,31,127,100
1,43,127,100
1,33,127,100
1,33,127,100
1,33,127,4
1,33,127,4
1,33,127,100
1,33,127,100
1,33,127,100
1,33,127,100
1,45,127,100
1,26,127,100
1,26,127,100
1,26,127,4
1,26,127,4
1,26,127,100
1,26,127,100
1,26,127,100
1,26,127,100
1,38,127,100
1,26,127,100
1,26,127,100
1,26,127,4
1,26,127,4
1,26,127,100
1,26,127,100
1,26,127,100
1,26,127,100
1,38,127,100
1,31,127,100
1,31,127,100
1,31,127,4
1,31,127,4
1,31,127,100
1,31,127,100
1,31,127,100
1,31,127,100
1,43,127,100
1,33,127,100
1,33,127,100
1,33,127,4
1,33,127,4
1,33,127,100
1,33,127,100
1,33,127,100
1,33,127,100
1,45,127,100
1,35,127,100
1,35,127,96
1,35,127,36
1,35,127,46
1,35,127,96
1,35,127,96
1,35,127,80
1,35,127,96
1,47,127,72
1,35,127,62
1,35,127,96
1,35,127,36
1,35,127,46
1,35,127,96
1,35,127,96
1,35,127,80
1,35,127,96
1,47,127,72
1,31,127,62
1,31,127,100
1,31,127,4
1,31,127,4
1,31,127,100
1,31,127,100
1,31,127,100
1,31,127,100
1,43,127,100
1,31,127,100
1,31,127,100
1,31,127,4
1,31,127,4
1,31,127,100
1,31,127,100
1,31,127,100
1,31,127,100
1,43,127,100
1,33,127,100
1,33,127,100
1,33,127,4
1,33,127,4
1,33,127,100
1,33,127,100
1,33,127,100
1,33,127,100
1,45,127,100
1,33,127,100
1,33,127,100
1,33,127,4
1,33,127,4
1,33,127,100
1,33,127,100
1,33,127,100
1,33,127,100
1,45,127,100
1,26,127,100
1,26,127,96
1,26,127,36
1,26,127,52
1,26,127,128
1,26,127,122
1,26,127,122
1,36,127,94
1,36,127,84
1,36,127,46
1,31,127,106
1,31,127,42
1,31,127,88
1,26,127,48
1,26,127,84
1,26,127,40
1,26,127,56
1,26,127,106
1,26,127,78
1,26,127,58
1,26,127,90
1,26,127,90
1,26,127,46
1,26,127,46
1,26,127,110
1,26,127,88
1,26,127,94
1,31,127,112
1,31,127,78
1,31,127,46
1,31,127,24
1,31,127,148
1,31,127,64
1,31,127,94
1,31,127,106
1,31,127,68
1,31,127,32
1,31,127,46
1,31,127,90
1,31,127,48
1,31,127,110
1,26,127,68
1,26,127,74
1,26,127,46
1,26,127,46
1,26,127,112
1,26,127,78
1,26,127,84
1,26,127,96
1,26,127,52
1,26,127,46
1,26,127,46
1,26,127,96
1,26,127,64
1,26,127,94
1,24,127,48
1,24,127,78
1,24,127,32
1,24,127,46
1,24,127,120
1,24,127,112
1,24,127,122
1,24,127,90
1,24,127,62
1,24,127,46
1,24,127,32
1,24,127,94
1,24,127,72
1,24,127,88
1,31,127,78
1,31,127,62
1,31,127,46
1,31,127,62
1,31,127,96
1,31,127,110
1,31,127,94
1,31,127,112
1,31,127,40
1,31,127,58
1,31,127,152
1,31,127,90
1,31,127,122
1,24,127,58
1,24,127,106
1,24,127,40
1,24,127,52
1,24,127,112
1,24,127,72
1,24,127,72
1,24,127,94
1,24,127,84
1,24,127,46
1,24,127,46
1,24,127,100
1,24,127,78
1,24,127,100
1,31,127,96
1,31,127,72
1,31,127,46
1,31,127,62
1,31,127,90
1,31,127,64
1,31,127,42
1,31,127,112
1,31,127,56
1,31,127,56
1,31,127,40
1,31,127,100
1,31,127,56
1,31,127,122
1,31,127,74
1,31,127,100
1,31,127,4
1,31,127,4
1,31,127,100
1,31,127,100
1,31,127,100
1,31,127,100
1,43,127,100
1,33,127,100
1,33,127,100
1,33,127,4
1,33,127,4
1,33,127,100
1,33,127,100
1,33,127,100
1,33,127,100
1,45,127,100
1,26,127,100
1,26,127,100
1,26,127,4
1,26,127,4
1,26,127,100
1,26,127,100
1,26,127,100
1,26,127,100
1,38,127,100
1,26,127,100
1,26,127,100
1,26,127,4
1,26,127,4
1,26,127,100
1,26,127,100
1,26,127,100
1,26,127,100
1,38,127,100
1,31,127,100
1,31,127,100
1,31,127,4
1,31,127,4
1,31,127,100
1,31,127,100
1,31,127,100
1,31,127,100
1,43,127,100
1,33,127,100
1,33,127,100
1,33,127,4
1,33,127,4
1,33,127,100
1,33,127,100
1,33,127,100
1,33,127,100
1,45,127,100
1,26,127,100
1,26,127,100
1,26,127,4
1,26,127,4
1,26,127,100
1,26,127,100
1,26,127,100
1,26,127,100
1,38,127,100
1,26,127,100
1,26,127,100
1,26,127,4
1,26,127,4
1,26,127,100
1,26,127,100
1,26,127,100
1,26,127,100
1,38,127,100
1,31,127,100
1,31,127,100
1,31,127,4
1,31,127,4
1,31,127,100
1,31,127,100
1,31,127,100
1,31,127,100
1,43,127,100
1,33,127,100
1,33,127,100
1,33,127,4
1,33,127,4
1,33,127,100
1,33,127,100
1,33,127,100
1,33,127,100
1,45,127,100
1,26,127,100
1,26,127,100
1,26,127,4
1,26,127,4
1,26,127,100
1,26,127,100
1,26,127,100
1,26,127,100
1,38,127,100
1,26,127,100
1,26,127,100
1,26,127,4
1,26,127,4
1,26,127,100
1,26,127,100
1,26,127,100
1,26,127,100
1,38,127,100
1,31,127,100
1,31,127,100
1,31,127,4
1,31,127,4
1,31,127,100
1,31,127,100
1,31,127,100
1,31,127,100
1,43,127,100
1,33,127,100
1,33,127,100
1,33,127,4
1,33,127,4
1,33,127,100
1,33,127,100
1,33,127,100
1,33,127,100
1,45,127,100
1,26,127,100
1,26,127,100
1,26,127,4
1,26,127,4
1,26,127,100
1,26,127,100
1,26,127,100
1,26,127,100
1,38,127,100
1,26,127,100
1,26,127,100
1,26,127,4
1,26,127,4
1,26,127,100
1,26,127,100
1,26,127,100
1,26,127,100
1,38,127,100
1,31,127,100
1,31,127,100
1,31,127,4
1,31,127,4
1,31,127,100
1,31,127,100
1,31,127,100
1,31,127,100
1,43,127,100
1,33,127,100
1,33,127,100
1,33,127,4
1,33,127,4
1,33,127,100
1,33,127,100
1,33,127,100
1,33,127,100
1,45,127,100
1,35,127,100
1,35,127,96
1,35,127,36
1,35,127,46
1,35,127,96
1,35,127,96
1,35,127,80
1,35,127,96
1,47,127,72
1,35,127,62
1,35,127,96
1,35,127,36
1,35,127,46
1,35,127,96
1,35,127,96
1,35,127,80
1,35,127,96
1,47,127,72
1,31,127,62
1,31,127,100
1,31,127,4
1,31,127,4
1,31,127,100
1,31,127,100
1,31,127,100
1,31,127,100
1,43,127,100
1,31,127,100
1,31,127,100
1,31,127,4
1,31,127,4
1,31,127,100
1,31,127,100
1,31,127,100
1,31,127,100
1,43,127,100
1,33,127,100
1,33,127,100
1,33,127,4
1,33,127,4
1,33,127,100
1,33,127,100
1,33,127,100
1,33,127,100
1,45,127,100
1,33,127,100
1,33,127,100
1,33,127,4
1,33,127,4
1,33,127,100
1,33,127,100
1,33,127,100
1,33,127,100
1,45,127,100
1,31,127,100
1,31,127,100
1,31,127,4
1,31,127,4
1,31,127,100
1,31,127,100
1,31,127,100
1,31,127,100
1,43,127,100
1,33,127,100
1,33,127,100
1,33,127,4
1,33,127,4
1,33,127,100
1,33,127,100
1,33,127,100
1,33,127,100
1,45,127,100
1,35,127,100
1,35,127,96
1,35,127,36
1,35,127,46
1,35,127,96
1,35,127,96
1,35,127,80
1,35,127,96
1,47,127,72
1,35,127,62
1,35,127,96
1,35,127,36
1,35,127,46
1,35,127,96
1,35,127,96
1,35,127,80
1,35,127,96
1,47,127,72
1,31,127,62
1,31,127,100
1,31,127,4
1,31,127,4
1,31,127,100
1,31,127,100
1,31,127,100
1,31,127,100
1,43,127,100
1,31,127,100
1,31,127,100
1,31,127,4
1,31,127,4
1,31,127,100
1,31,127,100
1,31,127,100
1,31,127,100
1,43,127,100
1,33,127,100
1,33,127,100
1,33,127,4
1,33,127,4
1,33,127,100
1,33,127,100
1,33,127,100
1,33,127,100
1,45,127,100
1,33,127,100
1,33,127,100
1,33,127,4
1,33,127,4
1,33,127,100
1,33,127,100
1,33,127,100
1,33,127,100
1,45,127,100
1,31,127,100
1,31,127,100
1,31,127,4
1,31,127,4
1,31,127,100
1,31,127,100
1,31,127,100
1,31,127,100
1,43,127,100
1,33,127,100
1,33,127,100
1,33,127,4
1,33,127,4
1,33,127,100
1,33,127,100
1,33,127,100
1,33,127,100
1,45,127,100
1,35,127,100
1,35,127,96
1,35,127,36
1,35,127,46
1,35,127,96
1,35,127,96
1,35,127,80
1,35,127,96
