track,note,velocity,time
1,70,100,0
1,70,0,120
1,74,100,0
1,74,0,60
1,75,100,0
1,75,0,780
1,70,100,0
1,70,0,120
1,74,100,0
1,74,0,60
1,75,100,0
1,75,0,120
1,75,100,0
1,75,0,60
1,75,100,0
1,75,0,60
1,72,100,0
1,72,0,60
1,75,100,0
1,75,0,60
1,77,100,0
1,77,0,60
1,79,100,0
1,79,0,60
1,77,100,0
1,77,0,300
1,70,100,0
1,70,0,120
1,74,100,0
1,74,0,60
1,75,100,0
1,75,0,780
1,70,100,0
1,70,0,120
1,74,100,0
1,74,0,60
1,75,100,0
1,75,0,120
1,75,100,0
1,75,0,60
1,75,100,0
1,75,0,60
1,72,100,0
1,72,0,60
1,75,100,0
1,75,0,60
1,77,100,0
1,77,0,60
1,79,100,0
1,79,0,60
1,77,100,0
1,77,0,540
1,70,127,1680
1,70,0,56
1,68,127,4
1,67,127,60
1,68,0,4
1,67,0,55
1,65,127,1
1,65,0,140
1,65,127,40
1,65,0,37
1,65,127,23
1,65,0,35
1,65,127,25
1,65,0,54
1,63,127,6
1,65,127,60
1,63,0,16
1,67,127,44
1,65,0,1
1,67,0,144
1,70,127,35
1,70,0,30
1,70,127,30
1,70,0,25
1,70,127,35
1,70,0,49
1,68,127,11
1,67,127,60
1,68,0,9
1,67,0,35
1,65,127,16
1,65,0,147
1,65,127,33
1,65,0,32
1,65,127,28
1,65,0,27
1,65,127,33
1,65,0,47
1,63,127,13
1,63,0,59
1,65,127,1
1,65,0,54
1,67,127,6
1,67,0,182
1,67,127,58
1,67,0,24
1,67,127,36
1,67,0,59
1,68,127,1
1,68,0,57
1,70,127,3
1,70,0,47
1,68,127,13
1,68,0,162
1,68,127,78
1,68,0,31
1,68,127,29
1,68,0,46
1,70,127,14
1,72,127,60
1,70,0,1
1,72,0,50
1,70,127,9
1,70,0,201
1,70,127,39
1,70,0,25
1,70,127,35
1,70,0,54
1,68,127,6
1,68,0,59
1,67,127,1
1,67,0,49
1,65,127,11
1,65,0,184
1,70,127,56
1,70,0,29
1,70,127,31
1,70,0,59
1,68,127,1
1,67,127,60
1,68,0,1
1,67,0,51
1,65,127,8
1,65,0,218
1,70,127,82
1,70,0,120
1,74,127,0
1,74,0,59
1,75,127,1
1,75,0,581
1,70,127,199
1,70,0,120
1,74,127,0
1,74,0,59
1,75,127,1
1,75,0,120
1,72,127,0
1,72,0,59
1,75,127,1
1,72,127,60
1,75,0,1
1,72,0,55
1,75,127,4
1,77,127,60
1,75,0,1
1,77,0,58
1,79,127,1
1,79,0,58
1,77,127,2
1,77,0,269
1,70,127,31
1,74,127,120
1,70,0,3
1,75,127,57
1,74,0,4
1,75,0,535
1,70,127,241
1,70,0,118
1,74,127,2
1,75,127,60
1,74,0,3
1,72,127,117
1,75,0,1
1,72,0,58
1,75,127,1
1,72,127,60
1,75,0,4
1,72,0,47
1,75,127,9
1,77,127,60
1,75,0,4
1,77,0,53
1,79,127,3
1,79,0,59
1,77,127,1
1,77,0,537
1,70,127,663
1,70,0,30
1,70,127,30
1,68,127,60
1,70,0,11
1,67,127,49
1,68,0,1
1,65,127,59
1,67,0,9
1,65,0,167
1,65,127,64
1,65,0,30
1,65,127,30
1,65,0,53
1,63,127,7
1,63,0,56
1,65,127,4
1,67,127,60
1,65,0,1
1,67,0,139
1,70,127,40
1,70,0,32
1,70,127,28
1,70,0,26
1,70,127,34
1,70,0,56
1,68,127,4
1,67,127,60
1,68,0,13
1,67,0,29
1,65,127,18
1,65,0,139
1,65,127,41
1,65,0,32
1,65,127,28
1,65,0,27
1,65,127,33
1,65,0,56
1,63,127,4
1,63,0,59
1,65,127,1
1,65,0,58
1,67,127,2
1,67,0,171
1,67,127,69
1,67,0,22
1,67,127,38
1,67,0,44
1,68,127,16
1,68,0,58
1,70,127,2
1,68,127,60
1,70,0,2
1,68,0,147
1,68,127,31
1,68,0,37
1,68,127,23
1,68,0,27
1,68,127,33
1,70,127,60
1,68,0,1
1,72,127,59
1,70,0,13
1,72,0,46
1,70,127,1
1,70,0,91
1,70,127,29
1,70,0,30
1,70,127,30
1,70,0,29
1,70,127,31
1,70,0,27
1,70,127,33
1,70,0,52
1,68,127,8
1,67,127,60
1,68,0,4
1,67,0,50
1,65,127,6
1,65,0,150
1,70,127,30
1,70,0,37
1,70,127,23
1,70,0,29
1,70,127,31
1,70,0,54
1,68,127,6
1,68,0,58
1,67,127,2
1,67,0,56
1,65,127,4
1,65,0,218
1,70,127,82
1,70,0,120
1,74,127,0
1,74,0,59
1,75,127,1
1,75,0,581
1,70,127,199
1,70,0,120
1,74,127,0
1,74,0,59
1,75,127,1
1,75,0,120
1,72,127,0
1,72,0,59
1,75,127,1
1,72,127,60
1,75,0,1
1,72,0,55
1,75,127,4
1,77,127,60
1,75,0,1
1,77,0,58
1,79,127,1
1,79,0,58
1,77,127,2
1,77,0,269
1,70,127,31
1,74,127,120
1,70,0,3
1,75,127,57
1,74,0,4
1,75,0,535
1,70,127,241
1,70,0,118
1,74,127,2
1,75,127,60
1,74,0,3
1,72,127,117
1,75,0,1
1,72,0,58
1,75,127,1
1,72,127,60
1,75,0,4
1,72,0,47
1,75,127,9
1,77,127,60
1,75,0,4
1,77,0,53
1,79,127,3
1,79,0,59
1,77,127,1
1,77,0,537
1,70,127,4443
1,70,0,32
1,70,127,28
1,70,0,27
1,70,127,33
1,70,0,56
1,68,127,4
1,68,0,59
1,67,127,1
1,67,0,59
1,65,127,1
1,65,0,81
1,65,127,39
1,65,0,29
1,65,127,31
1,65,0,32
1,65,127,28
1,65,0,29
1,65,127,31
1,65,0,54
1,63,127,6
1,65,127,60
1,63,0,3
1,65,0,56
1,67,127,1
1,67,0,166
1,70,127,74
1,70,0,22
1,70,127,38
1,70,0,51
1,68,127,9
1,68,0,59
1,67,127,1
1,67,0,51
1,65,127,9
1,65,0,179
1,65,127,61
1,65,0,25
1,65,127,35
1,65,0,54
1,63,127,6
1,63,0,57
1,65,127,3
1,65,0,56
1,67,127,4
1,67,0,169
1,67,127,71
1,67,0,17
1,67,127,43
1,67,0,56
1,68,127,4
1,68,0,59
1,70,127,1
1,70,0,57
1,68,127,3
1,68,0,179
1,68,127,61
1,68,0,32
1,68,127,28
1,68,0,58
1,70,127,2
1,70,0,52
1,72,127,8
1,72,0,56
1,70,127,4
1,70,0,179
1,70,127,61
1,70,0,29
1,70,127,31
1,70,0,54
1,68,127,6
1,67,127,60
1,68,0,14
1,67,0,42
1,65,127,4
1,65,0,171
1,70,127,69
1,70,0,32
1,70,127,28
1,70,0,56
1,68,127,4
1,68,0,59
1,67,127,1
1,65,127,60
1,67,0,1
1,65,0,229
1,70,127,70
1,70,0,120
1,74,127,0
1,74,0,59
1,75,127,1
1,75,0,581
1,70,127,199
1,70,0,120
1,74,127,0
1,74,0,59
1,75,127,1
1,75,0,120
1,72,127,0
1,72,0,59
1,75,127,1
1,72,127,60
1,75,0,1
1,72,0,55
1,75,127,4
1,77,127,60
1,75,0,1
1,77,0,58
1,79,127,1
1,79,0,58
1,77,127,2
1,77,0,269
1,70,127,31
1,74,127,120
1,70,0,3
1,75,127,57
1,74,0,4
1,75,0,535
1,70,127,241
1,70,0,118
1,74,127,2
1,75,127,60
1,74,0,3
1,72,127,117
1,75,0,1
1,72,0,58
1,75,127,1
1,72,127,60
1,75,0,4
1,72,0,47
1,75,127,9
1,77,127,60
1,75,0,4
1,77,0,53
1,79,127,3
1,79,0,59
1,77,127,1
1,77,0,240
1,70,127,60
1,70,0,120
1,74,127,0
1,74,0,59
1,75,127,1
1,75,0,581
1,70,127,199
1,70,0,120
1,74,127,0
1,74,0,59
1,75,127,1
1,75,0,120
1,72,127,0
1,72,0,59
1,75,127,1
1,72,127,60
1,75,0,1
1,72,0,55
1,75,127,4
1,77,127,60
1,75,0,1
1,77,0,58
1,79,127,1
1,79,0,58
1,77,127,2
1,77,0,269
1,70,127,31
1,74,127,120
1,70,0,3
1,75,127,57
1,74,0,4
1,75,0,535
1,70,127,241
1,70,0,118
1,74,127,2
1,75,127,60
1,74,0,3
1,72,127,117
1,75,0,1
1,72,0,58
1,75,127,1
1,72,127,60
1,75,0,4
1,72,0,47
1,75,127,9
1,77,127,60
1,75,0,4
1,77,0,53
1,79,127,3
1,79,0,59
1,77,127,1
1,77,0,240
1,70,127,60
1,70,0,120
1,74,127,0
1,74,0,59
1,75,127,1
1,75,0,10
1,70,127,26
1,70,0,36
1,74,127,0
1,74,0,22
1,75,127,1
1,75,0,33
1,72,127,0
1,72,0,19
1,75,127,1
1,72,127,7
1,75,0,1
1,72,0,27
1,75,127,4
1,77,127,17
1,75,0,1
1,77,0,3
1,79,127,1
1,79,0,26
1,77,127,2
1,77,0,4
1,70,127,31
1,74,127,9
1,70,0,3
1,75,127,32
1,74,0,4
1,75,0,23
1,70,127,8
1,70,0,16
1,74,127,2
1,75,127,5
1,74,0,3
1,72,127,16
1,75,0,1
1,72,0,1
1,75,127,1
1,72,127,26
1,75,0,4
1,72,0,4
1,75,127,9
1,77,127,0
1,75,0,4
1,77,0,20
1,79,127,3
1,79,0,9
1,77,127,1
1,77,0,31
2,75,100,590
2,70,100,0
2,70,0,120
2,75,0,0
2,68,100,0
2,75,100,0
2,75,0,60
2,68,0,0
2,67,100,0
2,75,100,0
2,75,0,120
2,67,0,0
2,70,100,0
2,65,100,0
2,65,0,420
2,70,0,0
2,75,100,240
2,70,100,0
2,70,0,120
2,68,100,0
2,68,0,60
2,67,100,0
2,67,0,180
2,75,0,0
2,70,100,0
2,65,100,0
2,62,100,0
2,62,0,240
2,65,0,0
2,70,0,0
2,70,100,0
2,70,0,120
2,74,100,0
2,74,0,120
2,75,100,0
2,75,0,120
2,70,100,0
2,75,100,0
2,75,0,120
2,70,0,0
2,68,100,0
2,75,100,0
2,75,0,60
2,68,0,0
2,67,100,0
2,75,100,0
2,75,0,120
2,67,0,0
2,65,100,0
2,70,100,0
2,70,0,420
2,65,0,0
2,75,100,240
2,70,100,0
2,70,0,120
2,68,100,0
2,68,0,60
2,67,100,0
2,67,0,180
2,75,0,0
2,70,100,0
2,62,100,0
2,65,100,0
2,65,0,240
2,62,0,0
2,70,0,0
2,72,100,0
2,72,0,120
2,74,100,0
2,74,0,120
2,74,100,0
2,77,100,0
2,77,0,480
2,74,0,0
2,82,119,5400
2,75,119,0
2,82,0,85
2,75,0,3
2,75,119,32
2,80,119,0
2,80,0,41
2,75,0,3
2,75,119,16
2,79,119,0
2,79,0,64
2,75,0,9
2,75,119,47
2,77,119,0
2,75,0,500
2,77,0,2
2,82,121,158
2,75,121,0
2,82,0,69
2,75,0,5
2,80,121,46
2,75,121,0
2,80,0,34
2,75,0,3
2,75,121,23
2,79,121,0
2,79,0,74
2,75,0,2
2,70,120,44
2,74,120,0
2,74,0,84
2,70,0,0
2,74,120,36
2,70,120,0
2,74,0,88
2,70,0,2
2,75,120,30
2,70,120,0
2,70,0,79
2,75,0,4
2,77,119,37
2,70,119,0
2,70,0,176
2,77,0,0
2,82,119,124
2,75,119,0
2,82,0,85
2,75,0,3
2,75,119,32
2,80,119,0
2,80,0,41
2,75,0,3
2,75,119,16
2,79,119,0
2,79,0,64
2,75,0,9
2,75,120,47
2,77,120,0
2,75,0,500
2,77,0,2
2,82,119,158
2,75,119,0
2,82,0,69
2,75,0,5
2,80,120,46
2,75,120,0
2,80,0,34
2,75,0,3
2,75,120,23
2,79,120,0
2,79,0,74
2,75,0,2
2,70,118,44
2,74,118,0
2,74,0,84
2,70,0,0
2,74,119,36
2,70,119,0
2,74,0,88
2,70,0,2
2,75,119,30
2,70,119,0
2,70,0,79
2,75,0,4
2,77,120,37
2,70,120,0
2,70,0,176
2,77,0,0
2,82,121,4924
2,75,121,0
2,82,0,85
2,75,0,3
2,75,121,32
2,80,121,0
2,80,0,41
2,75,0,3
2,75,121,16
2,79,121,0
2,79,0,64
2,75,0,9
2,75,121,47
2,77,121,0
2,75,0,500
2,77,0,2
2,82,119,158
2,75,119,0
2,82,0,69
2,75,0,5
2,80,120,46
2,75,120,0
2,80,0,34
2,75,0,3
2,75,121,23
2,79,121,0
2,79,0,74
2,75,0,2
2,70,121,44
2,74,121,0
2,74,0,84
2,70,0,0
2,74,120,36
2,70,120,0
2,74,0,88
2,70,0,2
2,75,119,30
2,70,119,0
2,70,0,79
2,75,0,4
2,77,119,37
2,70,119,0
2,70,0,176
2,77,0,0
2,82,118,124
2,75,118,0
2,82,0,85
2,75,0,3
2,75,118,32
2,80,118,0
2,80,0,41
2,75,0,3
2,75,118,16
2,79,118,0
2,79,0,64
2,75,0,9
2,75,121,47
2,77,121,0
2,75,0,500
2,77,0,2
2,82,120,158
2,75,120,0
2,82,0,69
2,75,0,5
2,80,120,46
2,75,120,0
2,80,0,34
2,75,0,3
2,75,120,23
2,79,120,0
2,79,0,74
2,75,0,2
2,70,119,44
2,74,119,0
2,74,0,84
2,70,0,0
2,74,119,36
2,70,119,0
2,74,0,88
2,70,0,2
2,75,119,30
2,70,119,0
2,70,0,79
2,75,0,4
2,77,119,37
2,70,119,0
2,70,0,176
2,77,0,0
2,82,127,664
2,82,0,24
2,82,127,36
2,80,127,60
2,82,0,1
2,79,127,59
2,80,0,1
2,79,0,55
2,77,127,4
2,77,0,206
2,77,127,34
2,77,0,22
2,77,127,38
2,77,0,51
2,75,127,9
2,74,127,60
2,75,0,13
2,74,0,26
2,72,127,21
2,72,0,196
2,82,127,44
2,82,0,32
2,82,127,28
2,82,0,49
2,80,127,11
2,80,0,44
2,79,127,16
2,79,0,111
2,75,127,9
2,75,0,174
2,70,127,6
2,75,127,60
2,70,0,2
2,70,127,58
2,75,0,4
2,70,0,55
2,75,127,1
2,75,0,52
2,79,127,8
2,79,0,208
2,82,127,32
2,82,0,31
2,82,127,29
2,82,0,59
2,80,127,1
2,80,0,53
2,79,127,7
2,79,0,52
2,77,127,8
2,77,0,205
2,82,127,35
2,82,0,32
2,82,127,28
2,80,127,60
2,82,0,9
2,80,0,42
2,79,127,9
2,79,0,46
2,75,127,14
2,75,0,201
2,75,127,39
2,75,0,110
2,72,127,10
2,72,0,59
2,75,127,1
2,75,0,89
2,72,127,31
2,72,0,30
2,72,127,30
2,72,0,32
2,75,127,28
2,75,0,37
2,75,127,23
2,75,0,49
2,79,127,11
2,79,0,32
2,79,127,28
2,79,0,34
2,82,127,26
2,82,0,56
2,84,127,4
2,84,0,35
2,82,118,4465
2,75,118,0
2,82,0,85
2,75,0,3
2,75,120,32
2,80,120,0
2,80,0,41
2,75,0,3
2,75,120,16
2,79,120,0
2,79,0,64
2,75,0,9
2,75,120,47
2,77,120,0
2,75,0,500
2,77,0,2
2,82,120,158
2,75,120,0
2,82,0,69
2,75,0,5
2,80,120,46
2,75,120,0
2,80,0,34
2,75,0,3
2,75,120,23
2,79,120,0
2,79,0,74
2,75,0,2
2,70,120,44
2,74,120,0
2,74,0,84
2,70,0,0
2,74,120,36
2,70,120,0
2,74,0,88
2,70,0,2
2,75,120,30
2,70,120,0
2,70,0,79
2,75,0,4
2,77,120,37
2,70,120,0
2,70,0,176
2,77,0,0
2,82,120,124
2,75,120,0
2,82,0,85
2,75,0,3
2,75,120,32
2,80,120,0
2,80,0,41
2,75,0,3
2,75,120,16
2,79,120,0
2,79,0,64
2,75,0,9
2,75,120,47
2,77,120,0
2,75,0,500
2,77,0,2
2,82,119,158
2,75,119,0
2,82,0,69
2,75,0,5
2,80,119,46
2,75,119,0
2,80,0,34
2,75,0,3
2,75,119,23
2,79,119,0
2,79,0,74
2,75,0,2
2,70,119,44
2,74,119,0
2,74,0,84
2,70,0,0
2,74,119,36
2,70,119,0
2,74,0,88
2,70,0,2
2,75,120,30
2,70,120,0
2,70,0,79
2,75,0,4
2,77,120,37
2,70,120,0
2,70,0,176
2,77,0,0
2,82,119,124
2,75,119,0
2,82,0,85
2,75,0,3
2,75,119,32
2,80,119,0
