track,note,velocity,time
1,76,56,2
1,69,44,20
1,62,20,16
1,65,26,0
1,58,33,10
1,57,37,32
1,74,75,412
1,69,46,214
1,72,61,6
1,65,26,10
1,63,29,14
1,61,37,10
1,55,31,18
1,70,74,554
1,69,73,92
1,65,48,394
1,64,38,8
1,50,30,14
1,60,15,6
1,63,37,272
1,65,30,0
1,49,39,16
1,59,16,14
1,67,36,36
1,65,41,44
1,63,43,4
1,58,16,26
1,48,14,8
1,53,26,4
1,74,62,410
1,57,38,38
1,54,38,8
1,51,42,2
1,41,37,0
1,53,22,358
1,52,42,4
1,51,65,40
1,50,72,64
1,41,50,4
1,34,69,2
1,64,93,300
1,57,86,4
1,62,90,182
1,61,98,148
1,57,54,10
1,55,51,6
1,62,87,0
1,65,92,10
1,69,89,118
1,72,94,6
1,45,54,34
1,55,66,22
1,61,84,154
1,63,75,0
1,67,71,10
1,60,71,186
1,58,64,0
1,69,53,24
1,67,38,22
1,64,42,6
1,62,29,16
1,60,11,4
1,50,24,2
1,67,30,64
1,67,46,70
1,50,14,160
1,65,54,26
1,72,88,12
1,52,34,206
1,56,51,160
1,67,69,90
1,62,66,0
1,60,53,6
1,56,2,156
1,58,60,260
1,65,47,6
1,60,46,22
1,62,36,2
1,67,43,8
1,65,38,6
1,58,47,2
1,67,37,38
1,60,25,16
1,68,59,286
1,69,35,42
1,70,60,48
1,71,66,64
1,60,32,324
1,64,44,16
1,45,32,0
1,59,23,0
1,52,31,26
1,69,84,0
1,38,54,224
1,77,97,22
1,45,68,0
1,52,75,128
1,53,85,90
1,60,74,108
1,62,84,72
1,64,86,76
1,73,76,368
1,76,68,682
1,67,42,10
1,69,43,2
1,65,29,6
1,64,30,4
1,58,53,20
1,74,64,188
1,72,51,128
1,69,40,12
1,65,34,6
1,61,27,10
1,60,23,4
1,55,23,2
1,70,58,184
1,63,47,8
1,67,42,0
1,69,72,130
1,64,44,42
1,65,55,0
1,60,23,10
1,50,26,22
1,69,38,64
1,69,56,26
1,69,22,32
1,63,34,182
1,65,35,4
1,59,25,112
1,49,38,6
1,67,42,56
1,65,72,64
1,63,67,2
1,58,34,8
1,62,40,0
1,48,43,68
1,74,91,58
1,58,48,10
1,63,81,136
1,62,44,0
1,67,83,152
1,41,69,104
1,66,99,130
1,62,78,4
1,51,87,4
1,69,83,0
1,66,99,4
1,62,81,0
1,57,81,48
1,66,104,48
1,74,93,6
1,62,68,72
1,69,69,128
1,78,92,6
1,81,81,140
1,74,80,4
1,66,42,2
1,86,93,54
1,78,93,6
1,46,71,46
1,84,93,154
1,76,81,8
1,53,53,48
1,60,69,138
1,81,84,108
1,72,83,10
1,62,49,16
1,76,72,230
1,69,64,0
1,64,40,32
1,62,50,522
1,61,86,14
1,62,77,20
1,65,91,92
1,69,74,114
1,60,51,60
1,72,67,4
1,61,51,0
1,65,56,6
1,63,49,10
1,70,67,18
1,55,24,52
1,63,56,6
1,72,54,6
1,61,43,8
1,69,57,2
1,65,54,0
1,60,25,4
1,55,27,6
1,61,58,0
1,60,45,2
1,69,44,4
1,65,48,6
1,53,25,22
1,60,26,44
1,61,47,4
1,69,36,0
1,65,48,4
1,55,15,0
1,64,44,202
1,65,43,32
1,66,66,44
1,67,61,74
1,53,30,436
1,55,26,2
1,45,27,10
1,38,26,4
1,52,28,26
1,60,77,80
1,45,51,164
1,65,97,134
1,65,87,48
1,52,48,50
1,67,97,0
1,67,90,86
1,40,64,64
1,72,95,130
1,72,75,44
1,77,95,200
1,55,57,6
1,77,81,44
1,56,77,54
1,60,67,10
1,79,98,126
1,79,94,32
1,84,99,26
1,56,75,86
1,84,90,68
1,91,98,188
1,60,69,8
1,91,97,30
1,96,98,160
1,45,76,146
1,95,107,92
1,52,80,92
1,59,69,14
1,93,91,52
1,60,61,18
1,91,101,118
1,64,68,32
1,88,87,130
1,86,92,140
1,59,38,250
1,84,58,134
1,60,26,28
1,83,68,16
1,81,64,122
1,79,73,144
1,81,67,310
1,83,65,12
1,81,64,90
1,77,71,100
1,76,49,22
1,64,18,134
1,50,41,22
1,57,52,0
1,79,63,160
1,77,64,4
1,74,64,30
1,72,46,32
1,74,56,150
1,76,47,60
1,74,61,24
1,69,49,44
1,67,55,12
1,65,44,12
1,64,32,10
1,65,29,320
1,67,39,6
1,69,55,0
1,64,28,232
1,53,32,18
1,46,42,0
1,62,33,0
1,62,23,416
1,64,31,14
1,64,23,288
1,62,24,6
1,76,49,212
1,77,83,58
1,81,90,144
1,61,49,60
1,65,30,14
1,60,31,2
1,84,101,10
1,84,87,68
1,89,108,22
1,61,49,150
1,65,25,12
1,60,27,14
1,89,101,38
1,84,80,234
1,84,81,18
1,82,78,112
1,84,85,112
1,65,27,128
1,61,32,4
1,60,28,4
1,61,32,362
1,65,25,6
1,60,29,10
1,81,79,22
1,76,80,184
1,65,27,188
1,69,16,6
1,64,23,14
1,79,84,62
1,77,82,212
1,77,69,58
1,65,27,198
1,64,27,6
1,69,22,6
1,63,15,26
1,59,30,16
1,58,37,2
1,79,84,78
1,82,103,124
1,63,45,256
1,58,47,4
1,59,46,0
1,87,105,12
1,91,92,0
1,94,103,132
1,63,52,56
1,67,45,6
1,62,50,2
1,98,95,0
1,96,95,144
1,94,93,108
1,91,94,86
1,63,46,156
1,62,30,4
1,67,28,2
1,89,83,14
1,87,88,160
1,86,87,48
1,84,82,112
1,86,84,14
1,63,31,8
1,58,52,8
1,51,27,16
1,84,75,32
1,62,21,78
1,51,23,12
1,84,68,6
1,57,36,4
1,81,66,182
1,81,72,22
1,76,60,10
1,60,21,16
1,57,24,8
1,50,30,6
1,76,43,32
1,77,55,82
1,78,71,8
1,79,54,32
1,77,64,20
1,76,62,36
1,77,67,32
1,69,53,2
1,60,17,272
1,50,28,6
1,57,33,0
1,60,13,188
1,50,29,10
1,57,35,4
1,60,46,50
1,65,91,196
1,61,58,268
1,60,44,10
1,69,87,0
1,72,93,134
1,69,78,140
1,70,100,100
1,61,54,42
1,60,38,2
1,72,92,154
1,73,88,20
1,77,90,48
1,81,99,22
1,61,58,92
1,60,41,4
1,84,102,26
1,81,77,2
1,82,104,6
1,85,104,0
1,89,96,60
1,93,100,120
1,61,70,38
1,60,57,4
1,96,99,38
1,94,96,22
1,99,106,124
1,97,90,36
1,96,95,22
1,94,99,138
1,60,38,12
1,64,41,10
1,53,40,4
1,92,91,50
1,93,85,16
1,88,96,100
1,91,101,108
1,89,100,32
1,86,90,32
1,81,62,40
1,79,70,38
1,79,61,52
1,77,37,22
1,79,54,40
1,60,33,102
1,53,26,4
1,64,21,6
1,60,22,264
1,64,21,12
1,53,27,12
1,77,59,26
1,76,54,0
1,74,61,14
1,40,33,44
1,79,81,16
1,79,72,70
1,77,66,166
1,79,76,48
1,56,49,184
1,60,6,16
1,67,17,2
1,62,22,4
1,60,8,364
1,56,25,4
1,67,6,10
1,62,20,0
1,60,16,332
1,67,16,10
1,62,28,6
1,76,71,130
1,72,66,30
1,59,33,266
1,60,29,0
1,64,21,10
1,71,91,166
1,74,97,278
1,60,32,80
1,64,37,8
1,72,88,74
1,64,65,70
1,60,31,194
1,64,30,10
1,71,101,176
1,72,39,68
1,71,44,112
1,68,55,16
1,69,56,22
1,60,48,38
1,64,44,10
1,71,88,12
1,72,86,48
1,74,84,68
1,76,58,32
1,79,111,28
1,76,64,16
1,64,32,74
1,60,36,4
1,53,31,2
1,77,98,22
1,69,33,26
1,73,78,70
1,76,108,46
1,73,60,26
1,74,94,38
1,77,97,266
1,81,73,28
1,85,86,58
1,88,112,34
1,85,59,20
1,86,99,32
1,60,31,20
1,88,99,42
1,89,94,32
1,91,82,32
1,93,84,32
1,96,86,6
1,53,27,66
1,64,20,0
1,60,51,4
1,98,97,96
1,100,106,18
1,98,103,56
1,60,48,12
1,96,95,22
1,93,85,34
1,91,85,46
1,53,46,58
1,46,49,16
1,89,67,0
1,91,111,78
1,88,80,56
1,67,23,22
1,62,22,20
1,57,28,32
1,88,67,122
1,67,30,34
1,62,32,4
1,57,35,38
1,86,95,22
1,88,108,38
1,86,66,8
1,62,41,12
1,67,33,0
1,91,111,30
1,57,29,8
1,89,117,152
1,84,55,26
1,86,63,78
1,61,57,26
1,65,37,4
1,55,33,18
1,61,38,44
1,55,34,20
1,65,38,0
1,86,104,316
1,87,52,78
1,91,77,48
1,94,112,22
1,91,72,4
1,61,46,40
1,55,28,12
1,93,109,80
1,89,97,60
1,85,89,72
1,84,92,52
1,61,46,8
1,65,36,16
1,55,29,20
1,82,89,110
1,77,81,32
1,73,55,52
1,71,51,26
1,60,30,54
1,53,19,0
1,64,20,10
1,75,57,54
1,76,57,12
1,74,76,36
1,74,66,108
1,73,64,26
1,60,36,22
1,64,20,4
1,53,28,2
1,74,71,10
1,79,99,42
1,77,90,124
1,53,26,8
1,59,27,12
1,63,33,4
1,77,89,0
1,76,69,128
1,77,95,44
1,81,90,24
1,82,102,34
1,63,43,68
1,59,33,18
1,53,33,0
1,81,85,20
1,81,66,48
1,80,98,50
1,81,95,0
1,85,94,62
1,86,92,44
1,51,43,58
1,62,21,12
1,58,46,4
1,84,93,0
1,84,82,44
1,83,72,106
1,84,96,106
1,89,108,118
1,51,37,14
1,58,47,12
1,87,90,4
1,93,96,64
1,91,86,18
1,92,101,46
1,90,103,102
1,89,84,24
1,87,99,18
1,86,85,0
1,61,51,34
1,51,42,4
1,57,50,16
1,85,88,98
1,81,55,26
1,80,87,32
1,78,78,16
1,77,52,0
1,75,84,0
1,74,76,0
1,72,57,26
1,61,37,48
1,51,38,12
1,57,43,6
1,73,82,12
1,69,54,30
1,68,62,14
1,66,79,72
1,65,47,20
1,63,74,18
1,60,49,32
1,61,64,10
1,62,44,48
1,50,32,6
1,57,32,2
1,60,7,10
1,67,86,6
1,65,74,80
1,64,33,36
1,57,13,44
1,65,46,4
1,64,54,16
1,65,65,60
1,57,24,62
1,60,25,6
1,62,26,2
1,57,34,304
1,62,28,26
1,60,26,0
1,69,46,6
1,74,86,48
1,77,91,22
1,81,90,16
1,45,48,16
1,84,111,14
1,82,100,10
1,82,102,74
1,81,87,122
1,65,39,70
1,61,54,4
1,60,42,6
1,82,104,6
1,75,106,28
1,81,103,108
1,79,74,38
1,60,29,20
1,61,44,4
1,65,32,8
1,72,60,22
1,77,71,42
1,61,40,178
1,60,29,10
1,65,33,6
1,75,76,208
1,70,71,6
1,67,61,20
1,50,28,162
1,65,82,58
1,57,64,174
1,64,74,260
1,65,85,70
1,64,28,194
1,62,45,220
1,62,34,246
1,67,49,102
1,69,47,16
1,72,36,48
1,55,50,358
1,56,80,30
1,73,97,18
1,63,91,0
1,68,82,14
1,57,69,2
1,72,92,34
1,72,87,60
1,67,71,6
1,62,68,8
1,56,71,12
1,71,75,12
1,71,82,228
1,62,67,2
1,66,87,0
1,56,52,6
1,67,59,6
1,70,73,218
1,71,40,92
1,66,66,0
1,56,6,4
1,65,43,200
1,55,29,292
1,60,16,4
1,59,11,0
1,64,14,8
1,68,60,12
1,69,18,32
1,70,67,62
1,71,70,48
1,69,81,108
1,68,66,152
1,60,43,6
1,59,17,8
1,64,32,2
1,69,33,44
1,72,82,116
1,76,20,64
1,80,92,34
1,83,108,32
1,80,83,36
1,81,88,80
1,84,79,54
1,88,97,44
1,93,102,54
1,60,47,32
1,57,48,10
1,64,35,0
1,53,44,4
1,96,111,160
1,95,98,48
1,93,98,34
1,89,109,222
1,88,70,70
1,86,77,64
1,84,63,68
1,81,47,74
1,79,54,150
1,77,45,28
1,76,53,48
1,74,46,224
1,76,52,148
1,57,15,6
1,46,33,12
1,62,8,368
1,60,20,2
1,57,6,30
1,62,13,320
1,60,22,4
1,57,19,16
1,60,21,334
1,62,15,6
1,57,27,6
1,64,42,52
1,69,79,74
1,74,92,102
1,45,26,186
1,72,90,0
1,72,63,96
1,61,43,368
1,65,31,10
1,60,39,6
1,61,34,396
1,60,39,6
1,65,33,4
1,61,29,16
1,65,26,12
1,58,49,14
1,67,60,12
1,68,59,242
1,69,64,38
1,70,92,60
1,45,37,102
1,38,31,10
1,69,73,70
1,65,27,496
1,64,34,4
1,60,29,2
1,60,32,484
1,65,34,0
1,64,27,6
1,63,33,6
1,58,30,24
1,59,32,0
1,67,76,6
1,67,71,46
1,69,76,124
1,58,26,42
1,63,30,0
1,62,31,6
1,65,66,80
1,72,57,102
1,77,59,20
1,73,78,18
1,74,62,2
1,74,69,50
1,77,60,4
1,72,52,14
1,77,57,32
1,74,61,2
1,62,33,6
1,63,49,4
1,58,44,10
1,63,34,384
1,58,24,0
1,62,25,16
1,41,29,6
1,63,18,0
1,62,15,14
1,57,36,34
1,72,71,332
1,46,33,304
1,64,55,4
1,62,37,6
1,53,26,16
1,60,25,458
1,62,13,0
1,57,30,28
1,60,27,370
1,57,38,8
1,62,19,6
1,62,82,236
1,60,38,192
1,57,3,56
1,61,76,48
1,62,80,10
1,65,96,10
1,69,85,138
1,55,47,14
1,61,47,10
1,60,43,22
1,68,91,102
1,65,77,4
1,63,75,2
1,72,74,0
1,69,57,2
1,70,46,14
1,61,34,264
1,60,31,4
1,55,28,4
1,61,22,240
1,60,23,6
1,55,29,2
1,69,68,38
1,70,92,128
1,60,21,82
1,64,13,0
1,53,23,4
1,67,64,70
1,67,52,54
1,60,26,368
1,53,20,4
1,64,16,0
1,38,27,496
1,60,22,2
1,53,19,0
1,64,15,20
1,60,30,428
1,64,26,0
1,53,27,12
1,65,92,332
1,40,31,222
1,72,101,36
1,67,11,642
1,56,29,20
1,62,26,6
1,60,14,6
1,56,19,586
1,67,12,10
1,62,30,8
1,60,27,14
1,60,10,492
1,56,21,0
1,67,9,4
1,62,24,6
1,68,59,234
1,71,71,444
1,62,48,0
1,60,53,0
1,45,22,24
1,59,11,8
1,52,35,8
1,59,49,428
1,60,55,0
1,64,56,0
1,59,39,460
1,60,51,8
1,64,62,12
1,60,42,294
1,64,44,0
1,57,52,20
1,69,86,176
1,68,93,136
1,69,93,144
1,77,99,280
1,64,52,0
1,57,59,6
1,50,58,16
1,64,32,388
1,69,36,0
1,65,48,0
1,65,44,422
1,69,32,0
1,64,38,4
1,65,25,404
1,69,23,2
1,62,32,36
1,73,70,0
1,46,37,114
1,53,20,92
1,62,55,46
1,69,51,12
1,76,96,136
1,65,48,548
1,64,32,12
1,64,34,500
1,65,35,10
1,65,32,352
1,62,31,22
1,74,66,6
1,72,69,0
1,45,32,26
1,65,37,640
1,60,20,28
1,61,21,0
1,55,27,6
1,65,39,540
1,60,22,20
1,61,18,10
1,55,15,22
1,65,31,622
1,61,25,12
1,60,19,6
1,55,18,36
1,70,69,380
1,38,42,730
1,45,46,250
1,52,66,64
1,53,62,0
1,59,70,208
1,61,84,30
1,64,64,432
1,57,15,148
1,57,17,148
1,57,33,106
1,57,17,92
1,57,19,116
1,69,48,10
1,59,18,20
1,73,78,6
1,57,24,20
1,71,74,34
1,59,39,10
1,57,46,28
1,59,39,6
1,57,25,96
1,59,31,4
1,81,42,76
1,76,25,0
1,57,18,28
1,85,67,10
1,59,19,10
1,57,28,0
1,77,50,18
1,83,52,16
1,59,27,20
1,88,57,74
1,85,56,8
1,59,14,10
1,57,16,22
1,59,28,12
1,57,18,22
1,59,29,18
1,57,17,0
1,88,28,20
1,93,31,12
1,59,28,4
1,97,57,28
1,57,8,6
1,59,15,28
1,57,13,30
1,89,33,12
1,95,36,10
1,59,30,4
1,57,26,0
1,59,22,0
1,97,28,58
1,100,42,18
1,57,15,8
1,59,24,8
1,57,15,16
1,59,34,16
1,59,17,102
1,57,11,16
1,59,33,2
1,107,34,24
1,100,35,2
1,59,19,94
1,59,17,82
1,59,23,86
1,88,30,12
1,95,34,14
1,59,33,22
1,59,18,92
1,59,20,108
1,59,23,86
1,59,13,100
1,83,29,92
1,59,8,16
1,76,15,22
1,59,18,80
1,59,12,102
1,59,20,84
1,59,13,128
1,59,10,122
1,59,2,188
