track,note,velocity,time
0,46,114,95
0,67,82,4
0,34,86,0
0,46,85,0
0,50,102,0
0,53,102,0
0,58,108,0
0,36,108,10
0,55,112,0
0,70,87,158
0,38,124,208
0,44,78,0
0,38,49,250
0,36,56,122
0,38,87,122
0,46,69,50
0,54,106,12
0,50,102,54
0,53,103,0
0,58,114,0
0,46,67,78
0,45,89,18
0,45,102,4
0,53,102,0
0,57,102,0
0,60,102,0
0,36,58,12
0,45,102,54
0,38,124,12
0,44,78,0
0,72,90,50
0,53,102,30
0,57,102,0
0,60,102,0
0,69,93,112
0,38,49,22
0,44,83,62
0,44,76,4
0,53,102,0
0,56,91,0
0,60,102,0
0,36,56,12
0,65,84,10
0,60,89,82
0,44,85,4
0,54,106,0
0,53,102,82
0,56,84,0
0,60,102,0
0,58,102,6
0,43,95,26
0,50,102,4
0,55,102,0
0,58,63,0
0,36,58,12
0,38,124,378
0,44,78,0
0,62,102,110
0,70,89,14
0,36,38,12
0,38,49,0
0,69,102,94
0,36,56,12
0,50,102,126
0,54,106,12
0,60,102,50
0,38,45,12
0,38,90,106
0,69,101,4
0,38,66,10
0,31,95,106
0,55,72,2
0,67,102,0
0,36,58,10
0,58,72,2
0,38,124,12
0,44,78,0
0,65,83,14
0,65,83,74
0,36,38,0
0,38,49,0
0,62,102,2
0,67,102,0
0,36,56,12
0,69,83,4
0,38,50,122
0,72,87,114
0,38,29,8
0,58,64,110
0,38,55,12
0,54,106,0
0,38,99,62
0,55,102,4
0,38,45,12
0,46,83,0
0,38,66,2
0,39,95,26
0,55,85,4
0,61,81,0
0,63,87,0
0,69,90,0
0,67,84,8
0,36,58,4
0,51,89,354
0,38,124,12
0,44,78,0
0,55,102,110
0,36,38,140
0,38,49,0
0,58,94,110
0,61,110,0
0,67,102,0
0,36,56,12
0,51,91,134
0,38,125,10
0,54,106,0
0,34,101,10
0,55,102,4
0,39,90,14
0,38,51,6
0,38,89,10
0,58,87,4
0,62,84,0
0,65,84,0
0,70,87,0
0,58,87,0
0,62,103,0
0,65,102,0
0,36,58,12
0,62,90,366
0,50,102,0
0,38,124,12
0,44,78,0
0,53,102,110
0,65,90,64
0,36,38,18
0,38,49,0
0,38,89,90
0,69,90,0
0,58,81,4
0,62,102,0
0,65,102,0
0,36,56,12
0,67,83,6
0,50,102,132
0,38,125,10
0,54,106,0
0,65,89,38
0,38,89,60
0,38,51,16
0,36,96,38
0,60,84,4
0,65,84,0
0,69,84,0
0,72,84,0
0,48,102,0
0,53,102,0
0,57,102,0
0,60,102,0
0,65,102,0
0,36,58,12
0,38,124,2
0,44,78,0
0,48,102,110
0,53,102,128
0,36,38,12
0,38,49,0
0,41,102,110
0,36,56,12
0,38,55,122
0,38,100,82
0,38,99,122
0,54,106,0
0,60,93,14
0,65,102,0
0,67,102,0
0,69,102,0
0,38,110,12
0,41,101,42
0,60,50,4
0,65,57,0
0,67,102,0
0,38,77,12
0,41,89,34
0,60,102,4
0,65,103,0
0,36,58,2
0,77,85,62
0,48,102,2
0,38,124,12
0,44,78,0
0,53,102,2
0,48,102,98
0,36,38,12
0,38,49,0
0,43,89,18
0,79,84,2
0,41,102,0
0,57,102,0
0,60,102,0
0,65,102,0
0,36,56,12
0,38,55,26
0,53,102,110
0,38,100,12
0,45,89,22
0,81,84,4
0,38,99,10
0,39,125,0
0,54,106,0
0,57,102,110
0,60,102,0
0,65,102,0
0,38,110,12
0,48,108,110
0,38,77,12
0,67,121,10
0,62,47,22
0,65,47,0
0,46,90,6
0,62,51,4
0,65,73,0
0,34,86,0
0,46,85,0
0,50,102,0
0,53,102,0
0,58,108,0
0,36,58,6
0,55,112,0
0,70,115,34
0,70,38,300
0,38,124,12
0,44,78,0
0,38,49,250
0,41,89,2
0,36,56,16
0,38,87,122
0,34,80,46
0,46,69,2
0,54,106,12
0,50,102,110
0,53,103,0
0,58,114,0
0,46,67,2
0,60,35,10
0,33,89,8
0,69,67,4
0,45,102,0
0,53,102,0
0,57,102,0
0,60,102,0
0,36,58,12
0,45,89,2
0,45,102,4
0,72,96,4
0,38,124,8
0,44,78,0
0,53,102,30
0,57,102,0
0,60,102,0
0,69,105,100
0,38,49,22
0,44,95,34
0,68,54,4
0,44,76,0
0,53,102,0
0,56,91,0
0,60,102,0
0,36,56,12
0,65,87,6
0,60,101,14
0,32,78,4
0,44,85,4
0,54,106,0
0,53,102,82
0,56,84,0
0,60,102,0
0,58,105,10
0,62,31,18
0,31,89,8
0,50,102,4
0,55,102,0
0,58,63,0
0,36,58,2
0,38,124,378
0,44,78,0
0,62,102,110
0,70,89,128
0,36,38,12
0,38,49,0
0,38,89,2
0,67,84,4
0,70,71,0
0,74,84,0
0,77,84,0
0,69,102,0
0,36,56,12
0,34,95,22
0,50,102,4
0,54,106,12
0,60,102,50
0,38,45,12
0,69,101,110
0,38,66,12
0,31,112,78
0,55,72,2
0,67,102,0
0,36,58,12
0,58,72,2
0,38,124,12
0,44,78,0
0,65,87,18
0,65,89,70
0,36,38,8
0,38,49,0
0,62,102,2
0,67,102,0
0,69,96,8
0,36,56,4
0,38,50,122
0,72,95,106
0,38,29,10
0,58,64,110
0,38,55,12
0,54,106,0
0,55,102,70
0,38,45,12
0,46,83,0
0,38,66,2
0,61,41,10
0,65,48,0
0,67,105,4
0,27,86,4
0,55,84,4
0,61,64,0
0,63,71,0
0,69,84,0
0,36,58,12
0,51,89,366
0,38,124,12
0,44,78,0
0,55,102,110
0,36,38,140
0,38,49,0
0,27,76,26
0,67,84,4
0,58,94,0
0,61,110,0
0,67,102,0
0,36,56,12
0,51,91,134
0,38,125,10
0,54,106,0
0,55,102,110
0,38,51,136
0,69,83,14
0,27,73,8
0,55,84,4
0,61,64,0
0,63,71,0
0,69,84,0
0,36,58,12
0,27,80,94
0,51,89,132
0,38,124,12
0,44,78,0
0,65,91,106
0,55,102,4
0,65,83,66
0,36,38,24
0,38,49,0
0,70,66,2
0,27,74,8
0,61,61,4
0,63,61,0
0,67,84,0
0,58,94,0
0,61,110,0
0,67,102,0
0,69,105,8
0,36,56,4
0,51,91,134
0,38,125,10
0,54,106,0
0,26,89,22
0,55,102,4
0,65,83,2
0,27,78,26
0,38,51,14
0,69,91,6
0,28,89,7
0,70,85,4
0,74,84,0
0,79,84,0
0,52,102,0
0,58,83,0
0,62,102,0
0,36,58,12
0,67,91,58
0,55,99,66
0,40,89,34
0,57,87,26
0,38,124,24
0,44,78,0
0,55,63,110
0,58,89,38
0,36,38,62
0,38,49,0
0,62,83,34
0,43,89,8
0,52,106,4
0,36,56,12
0,38,55,114
0,69,95,34
0,38,100,78
0,67,104,50
0,46,88,8
0,38,99,16
0,54,106,0
0,38,110,122
0,62,89,2
0,38,77,88
0,49,97,16
0,69,93,1
0,77,112,12
0,61,48,0
0,67,75,0
0,69,76,0
0,76,66,0
0,52,102,0
0,57,102,0
0,36,58,5
0,76,121,218
0,67,104,14
0,61,89,12
0,38,124,12
0,44,78,0
0,69,112,2
0,36,38,40
0,38,49,0
0,65,121,72
0,33,90,8
0,36,56,16
0,38,55,34
0,38,100,82
0,64,96,34
0,37,92,2
0,61,103,4
0,64,100,0
0,67,116,0
0,71,106,0
0,57,102,0
0,38,99,12
0,39,125,0
0,54,106,0
0,38,110,122
0,38,77,54
0,38,97,30
0,69,95,2
0,74,113,0
0,50,102,0
0,57,106,0
0,62,102,0
0,36,58,10
0,49,100,0
0,77,105,354
0,77,121,4
0,77,91,8
0,69,1,0
0,38,124,12
0,44,78,0
0,76,101,14
0,76,118,0
0,76,84,12
0,67,1,0
0,74,94,162
0,74,109,4
0,74,88,6
0,65,1,0
0,36,56,6
0,72,87,10
0,72,96,12
0,72,84,0
0,64,1,0
0,69,91,154
0,69,90,12
0,60,1,0
0,69,121,4
0,38,122,8
0,54,106,0
0,67,104,2
0,67,90,12
0,67,102,2
0,38,85,22
0,65,112,18
0,65,77,4
0,38,89,6
0,65,100,2
0,50,112,0
0,58,1,0
0,36,58,12
0,50,102,10
0,38,124,12
0,44,78,0
0,53,102,110
0,58,91,0
0,62,102,0
0,74,90,2
0,50,102,0
0,65,1,0
0,74,104,8
0,36,56,4
0,64,1,154
0,72,118,8
0,69,96,134
0,38,122,6
0,54,106,0
0,60,1,2
0,69,101,6
0,50,102,32
0,58,1,2
0,67,101,2
0,67,87,32
0,38,118,4
0,57,1,26
0,65,112,6
0,69,52,10
0,41,118,8
0,48,102,4
0,53,102,0
0,36,58,10
0,65,100,14
0,38,124,364
0,44,78,0
0,60,102,110
0,67,102,128
0,36,35,12
0,67,103,42
0,36,56,12
0,38,50,0
0,69,102,54
0,67,102,2
0,65,103,10
0,38,97,12
0,38,56,122
0,43,97,30
0,60,102,4
0,38,59,12
0,54,106,0
0,65,102,30
0,38,44,12
0,46,96,0
0,38,81,78
0,45,89,46
0,57,102,4
0,60,102,0
0,65,102,0
0,69,101,0
0,36,58,12
0,57,102,114
0,38,124,12
0,44,78,0
0,72,112,90
0,60,102,10
0,65,102,0
0,69,102,0
0,69,112,14
0,36,38,12
0,38,49,0
0,44,82,10
0,56,96,4
0,36,56,12
0,65,104,2
0,38,55,122
0,38,100,122
0,56,93,38
0,38,99,12
0,54,106,0
0,60,105,18
0,60,102,82
0,65,102,0
0,68,83,0
0,38,35,12
0,38,36,6
0,58,105,14
0,43,89,14
0,50,102,4
0,55,102,0
0,36,58,12
0,50,102,114
0,38,124,12
0,44,78,0
0,62,85,110
0,70,85,128
0,36,38,12
0,38,49,0
0,69,102,110
0,36,56,12
0,38,55,34
0,38,100,122
0,50,102,98
0,38,99,12
0,54,106,0
0,38,89,14
0,60,102,4
0,38,35,12
0,62,94,4
0,65,96,54
0,67,102,18
0,38,36,10
0,67,105,18
0,61,47,10
0,65,40,0
0,39,81,6
0,51,51,4
0,57,84,0
0,61,54,0
0,51,88,0
0,55,102,0
0,58,84,0
0,61,101,0
0,36,58,6
0,38,31,0
0,67,112,18
0,38,29,15
0,67,57,30
0,38,26,48
0,38,26,130
0,44,78,0
0,38,28,122
0,36,38,122
0,39,74,106
0,87,81,4
0,36,56,12
0,38,55,122
0,38,100,122
0,82,51,110
0,38,99,12
0,54,106,0
0,38,89,106
0,38,35,16
0,37,85,102
0,38,36,10
0,60,32,18
0,36,89,6
0,62,86,4
0,48,102,0
0,55,102,0
0,60,102,0
0,65,102,0
0,36,58,10
0,38,31,0
0,38,29,122
0,38,26,38
0,48,102,90
0,38,26,12
0,44,78,0
0,55,102,58
0,60,102,0
0,65,102,0
0,38,28,12
0,36,38,122
0,64,32,10
0,60,58,12
0,55,102,0
0,60,102,0
0,64,102,0
0,36,56,0
0,38,55,134
0,38,100,122
0,38,99,122
0,54,106,0
0,38,35,122
0,46,86,0
0,69,83,10
0,38,36,2
0,65,47,6
0,41,89,8
0,53,84,4
0,60,54,0
0,65,81,0
0,48,82,0
0,53,102,0
0,57,102,0
0,60,102,0
0,65,102,0
0,36,32,12
0,39,108,0
0,67,83,50
0,65,83,134
0,38,31,42
0,48,102,6
0,38,125,12
0,59,46,0
0,53,102,110
0,51,41,12
0,57,102,110
0,51,34,12
0,67,83,26
0,39,99,2
0,67,90,2
0,43,103,0
0,46,112,0
0,51,108,0
0,44,110,2
0,65,83,122
0,65,82,2
0,51,66,2
0,65,83,30
0,44,97,8
0,65,86,4
0,44,103,0
0,48,106,0
0,51,121,0
0,44,36,12
0,63,70,162
0,63,89,6
0,59,45,6
0,63,67,18
0,42,99,8
0,63,75,4
0,42,102,0
0,46,106,0
0,49,121,0
0,44,87,12
0,61,70,162
0,61,80,10
0,51,95,2
0,61,72,26
0,41,89,8
0,61,94,4
0,41,102,0
0,44,102,0
0,48,103,0
0,44,39,12
0,60,83,162
0,60,86,12
0,59,73,10
0,60,83,38
0,41,101,8
0,60,86,4
0,41,102,0
0,44,105,0
0,48,103,0
0,59,103,12
0,58,66,6
0,39,85,8
0,58,77,2
0,51,106,12
0,58,65,38
0,39,97,8
0,58,75,4
0,39,105,0
0,43,110,0
0,46,123,0
0,59,106,12
0,38,42,19
0,38,107,34
0,38,108,47
0,38,56,19
0,38,122,22
0,67,121,35
0,46,101,11
0,34,86,2
0,46,85,0
0,50,102,0
0,53,102,0
0,58,108,0
0,36,58,12
0,55,112,0
0,65,83,162
0,70,115,12
0,38,124,11
0,44,78,0
0,38,49,11
0,41,93,15
0,36,56,16
0,38,87,39
0,62,83,34
0,48,90,8
0,46,69,4
0,54,106,3
0,50,102,38
0,53,103,0
0,58,114,0
0,46,67,78
0,60,60,10
0,45,89,8
0,45,102,3
0,53,102,0
0,57,102,0
0,60,102,0
0,36,58,6
0,72,118,54
0,45,102,0
0,38,124,12
0,44,78,0
0,41,89,26
0,53,102,4
0,57,102,0
0,60,102,0
0,69,84,104
0,45,89,6
0,38,49,16
0,44,95,2
0,44,76,4
0,53,102,0
0,56,91,0
0,60,102,0
0,36,56,12
0,65,112,10
0,60,83,18
0,44,85,12
0,54,106,0
0,60,104,22
0,53,102,16
0,56,84,0
0,60,102,0
0,58,68,6
0,43,89,8
0,58,110,4
0,50,102,0
0,55,102,0
0,58,63,0
0,36,58,2
0,38,124,378
0,44,78,0
0,62,102,110
0,38,89,26
0,70,89,4
0,36,38,12
0,38,49,0
0,31,89,90
0,69,102,4
0,60,86,12
0,36,56,0
0,60,60,110
0,58,75,6
0,50,102,4
0,54,106,12
0,41,93,34
0,60,102,4
0,38,45,12
0,42,85,14
0,69,101,4
0,38,66,12
0,58,68,18
0,43,89,8
0,55,72,2
0,67,102,0
0,58,85,8
0,36,58,4
0,38,92,6
0,34,93,14
0,31,89,10
0,58,72,2
0,38,124,12
0,44,78,0
0,65,89,14
0,65,87,74
0,36,38,0
0,38,49,0
0,31,89,82
0,62,102,4
0,67,102,0
0,36,56,6
0,69,112,10
0,38,50,112
0,38,29,122
0,72,105,14
0,58,64,16
0,38,55,12
0,54,106,0
0,38,89,50
0,55,102,4
0,38,45,12
0,46,83,0
0,67,87,14
0,38,66,2
0,39,85,26
0,55,85,4
0,61,81,0
0,63,87,0
0,69,90,0
0,36,58,12
0,55,83,354
0,51,89,12
0,38,124,12
0,44,78,0
0,55,102,110
0,34,90,62
0,36,38,16
0,38,49,0
0,57,83,2
0,39,92,8
0,58,94,4
0,61,110,0
0,67,102,0
0,36,56,12
0,58,72,122
0,51,91,12
0,38,125,10
0,54,106,0
0,55,102,90
0,38,51,30
0,58,72,14
0,38,93,8
0,58,87,4
0,62,84,0
0,65,84,0
0,70,87,0
0,58,87,0
0,62,103,0
0,65,102,0
0,36,58,12
0,50,102,366
0,38,124,12
0,44,78,0
0,65,83,94
0,53,102,16
0,65,83,6
0,36,38,22
0,38,49,0
0,69,115,74
0,38,90,4
0,58,81,4
0,62,102,0
0,65,102,0
0,36,56,12
0,67,101,22
0,50,102,4
0,38,125,10
0,54,106,0
0,60,83,14
0,38,51,58
0,36,89,38
0,60,86,4
0,60,84,0
0,65,84,0
0,69,84,0
0,72,84,0
0,48,102,0
0,53,102,0
0,57,102,0
0,60,102,0
0,65,102,0
0,36,58,12
0,65,94,6
0,38,124,2
0,44,78,0
0,48,102,110
0,53,102,128
0,36,38,12
0,38,49,0
0,41,102,110
0,36,56,12
0,38,55,122
0,38,100,82
0,38,99,122
0,54,106,0
0,60,93,110
0,65,102,0
0,67,102,0
0,69,102,0
0,38,110,12
0,43,89,2
0,60,50,4
0,65,57,0
0,67,102,0
0,38,77,12
0,29,100,6
0,60,102,4
0,65,103,0
0,36,58,2
0,77,85,62
0,48,102,2
0,38,124,12
0,44,78,0
0,53,102,2
0,48,102,98
0,36,38,12
0,38,49,0
0,65,83,10
0,31,89,8
0,79,84,2
0,41,102,0
0,57,102,0
0,60,102,0
0,65,102,0
0,36,56,12
0,38,55,26
0,53,102,110
0,38,100,2
0,63,72,14
0,33,89,8
0,81,84,2
0,38,99,10
0,39,125,0
0,54,106,0
0,57,102,110
