track,note,velocity,time
1,58,34,20
1,60,57,0
1,53,48,0
1,43,28,12
1,69,60,100
1,70,73,20
1,72,43,20
1,57,42,12
1,67,61,0
1,64,46,4
1,48,46,0
1,41,28,12
1,57,36,296
1,72,52,60
1,69,63,72
1,69,53,16
1,72,40,4
1,53,45,8
1,60,46,0
1,65,59,0
1,38,25,32
1,57,52,180
1,65,74,380
1,56,64,12
1,61,58,0
1,46,65,4
1,61,64,32
1,72,62,32
1,72,53,52
1,55,58,64
1,70,64,0
1,65,65,12
1,61,49,0
1,70,73,72
1,72,53,56
1,72,63,0
1,44,50,8
1,60,26,24
1,51,56,0
1,58,49,20
1,67,56,8
1,63,23,4
1,56,44,24
1,67,13,112
1,65,68,92
1,60,48,60
1,51,48,0
1,67,51,0
1,56,25,12
1,63,56,0
1,41,46,0
1,56,35,4
1,60,52,200
1,43,39,192
1,53,40,0
1,59,53,4
1,65,64,40
1,68,64,196
1,61,60,12
1,58,43,0
1,64,54,0
1,36,43,12
1,52,39,0
1,58,50,356
1,67,64,368
1,67,61,20
1,51,45,0
1,63,57,0
1,60,53,0
1,41,43,12
1,56,33,0
1,63,51,132
1,60,53,4
1,67,63,0
1,56,50,148
1,65,68,72
1,67,55,8
1,60,47,0
1,62,64,12
1,56,28,12
1,38,48,0
1,56,50,324
1,53,45,572
1,61,46,0
1,59,46,0
1,43,40,12
1,67,76,400
1,65,65,24
1,68,76,224
1,63,70,0
1,59,63,12
1,53,56,0
1,49,21,20
1,58,53,32
1,61,65,0
1,67,66,12
1,52,48,4
1,60,39,296
1,64,45,0
1,67,46,0
1,48,49,12
1,57,27,0
1,41,40,0
1,57,46,240
1,64,63,80
1,65,69,32
1,72,39,72
1,60,31,8
1,64,53,0
1,55,46,12
1,45,42,0
1,60,28,76
1,62,57,20
1,53,41,12
1,43,42,0
1,58,34,0
1,70,57,464
1,74,57,0
1,55,42,12
1,65,49,0
1,62,53,0
1,58,42,16
1,76,37,424
1,69,53,12
1,58,46,0
1,64,39,0
1,73,57,0
1,48,47,16
1,58,53,204
1,60,74,20
1,72,52,8
1,69,56,12
1,41,52,0
1,67,64,0
1,64,62,0
1,57,48,0
1,64,64,348
1,74,74,120
1,72,53,180
1,67,58,8
1,64,63,20
1,69,69,0
1,60,48,12
1,50,49,12
1,72,36,0
1,57,53,0
1,67,69,16
1,64,37,12
1,60,34,32
1,65,58,32
1,56,49,0
1,61,32,12
1,46,49,0
1,75,68,296
1,84,76,8
1,72,49,4
1,61,56,164
1,84,71,44
1,75,73,0
1,72,48,8
1,55,54,348
1,82,63,0
1,61,46,12
1,65,50,0
1,73,64,4
1,70,42,0
1,72,43,32
1,84,68,0
1,75,64,0
1,61,53,184
1,82,68,112
1,73,65,12
1,70,25,20
1,44,42,316
1,79,57,24
1,53,48,20
1,76,38,12
1,59,40,12
1,74,38,52
1,67,54,0
1,71,47,0
1,59,44,24
1,77,63,12
1,65,46,8
1,79,42,328
1,72,34,0
1,75,51,0
1,67,29,12
1,44,28,0
1,58,18,0
1,51,43,0
1,51,53,32
1,60,76,148
1,53,46,256
1,59,68,0
1,43,40,0
1,53,57,228
1,63,80,0
1,67,76,4
1,65,74,28
1,68,74,112
1,37,45,0
1,65,62,0
1,63,65,0
1,59,50,12
1,61,60,336
1,58,42,0
1,67,63,0
1,52,42,8
1,64,61,0
1,36,46,4
1,67,61,340
1,56,32,12
1,51,49,0
1,63,61,0
1,60,53,0
1,41,41,12
1,65,60,308
1,55,35,12
1,46,48,0
1,61,49,0
1,39,29,0
1,67,54,308
1,60,42,12
1,56,17,0
1,38,52,16
1,62,54,0
1,50,46,116
1,60,59,60
1,62,65,0
1,61,51,332
1,59,54,12
1,43,47,12
1,53,46,0
1,53,53,8
1,67,70,0
1,68,63,184
1,59,44,12
1,49,54,0
1,63,57,0
1,48,46,296
1,58,22,44
1,61,36,0
1,52,47,12
1,67,57,12
1,64,21,24
1,67,48,8
1,60,39,0
1,48,53,0
1,57,28,12
1,41,38,0
1,64,42,0
1,57,40,324
1,64,70,104
1,65,73,12
1,72,38,148
1,50,60,4
1,60,42,8
1,65,63,4
1,57,45,0
1,60,52,328
1,65,74,12
1,69,73,272
1,57,66,8
1,77,71,4
1,79,56,152
1,75,51,12
1,70,46,0
1,67,48,0
1,58,56,12
1,48,61,0
1,70,54,256
1,67,53,12
1,58,56,0
1,63,43,4
1,72,27,480
1,69,45,12
1,41,34,12
1,63,25,0
1,57,40,0
1,66,31,16
1,57,36,200
1,65,79,40
1,65,66,8
1,58,40,0
1,62,68,0
1,67,71,4
1,60,53,0
1,50,48,0
1,67,76,216
1,46,50,192
1,60,46,32
1,55,50,20
1,65,60,12
1,67,65,24
1,58,49,0
1,74,74,20
1,58,34,116
1,55,55,0
1,67,77,12
1,68,80,108
1,59,52,8
1,56,50,4
1,47,54,0
1,62,66,0
1,65,73,12
1,56,38,164
1,44,54,348
1,65,48,40
1,53,56,0
1,59,50,12
1,68,64,4
1,71,68,12
1,76,63,20
1,59,50,272
1,74,60,40
1,72,38,8
1,55,42,12
1,67,54,0
1,64,42,0
1,60,39,0
1,45,35,4
1,69,55,12
1,60,33,232
1,65,65,64
1,57,46,20
1,46,39,12
1,62,64,0
1,65,64,40
1,53,48,180
1,69,61,120
1,69,54,20
1,74,55,0
1,57,29,12
1,67,55,0
1,41,29,4
1,64,39,0
1,48,46,0
1,60,45,368
1,72,47,28
1,58,51,12
1,63,64,0
1,48,55,0
1,67,64,0
1,63,70,536
1,79,80,12
1,67,40,32
1,74,79,32
1,75,84,52
1,57,59,124
1,62,47,0
1,47,62,0
1,76,56,36
1,76,50,60
1,62,61,144
1,76,53,0
1,68,63,52
1,76,46,0
1,73,60,8
1,56,47,0
1,62,48,0
1,52,53,16
1,76,64,20
1,56,50,152
1,76,53,160
1,76,47,300
1,61,56,0
1,73,54,0
1,52,53,0
1,68,53,12
1,45,37,0
1,64,49,0
1,71,58,4
1,76,40,64
1,52,45,92
1,76,47,100
1,46,36,288
1,55,36,20
1,67,46,24
1,70,51,0
1,64,30,0
1,61,28,4
1,76,49,24
1,73,51,0
1,61,45,84
1,64,76,284
1,64,74,140
1,62,56,336
1,47,58,0
1,57,53,12
1,54,40,0
1,60,49,0
1,67,58,4
1,56,24,12
1,62,63,0
1,40,55,0
1,52,41,448
1,65,61,12
1,64,54,288
1,60,46,0
1,55,39,12
1,45,48,12
1,59,53,252
1,44,49,12
1,53,51,12
1,43,43,348
1,58,48,4
1,53,42,0
1,58,51,32
1,60,53,0
1,36,55,0
1,53,54,12
1,50,48,0
1,41,47,352
1,60,53,56
1,57,49,12
1,64,53,12
1,67,55,32
1,69,65,12
1,72,54,12
1,60,55,360
1,72,53,20
1,72,35,228
1,69,54,0
1,60,35,8
1,57,46,4
1,65,53,0
1,50,42,0
1,62,37,16
1,58,25,172
1,63,60,0
1,67,56,0
1,48,53,0
1,56,28,336
1,65,56,0
1,61,47,0
1,46,46,8
1,56,57,352
1,61,46,0
1,68,74,188
1,65,74,12
1,72,71,44
1,55,57,40
1,64,55,0
1,70,63,0
1,61,44,12
1,51,53,20
1,72,35,8
1,70,61,60
1,53,56,80
1,44,48,0
1,67,50,12
1,64,46,16
1,59,43,12
1,53,53,32
1,65,59,32
1,51,57,40
1,67,46,0
1,58,42,4
1,60,49,0
1,63,51,0
1,53,53,4
1,60,62,168
1,63,50,280
1,59,52,0
1,43,46,12
1,53,42,0
1,53,53,348
1,65,60,72
1,68,65,220
1,49,57,0
1,53,44,0
1,59,43,16
1,63,60,0
1,58,42,12
1,67,56,0
1,52,44,0
1,61,53,0
1,64,53,12
1,48,40,0
1,67,63,336
1,60,54,4
1,41,50,12
1,56,35,0
1,63,63,0
1,51,61,12
1,67,68,308
1,63,64,0
1,56,50,12
1,60,62,0
1,51,69,176
1,65,66,52
1,38,59,8
1,65,49,4
1,67,68,0
1,60,58,8
1,56,42,4
1,56,49,360
1,60,61,20
1,53,57,0
1,61,54,272
1,43,40,12
1,59,57,0
1,53,55,0
1,53,46,128
1,67,80,28
1,65,80,20
1,64,64,160
1,52,52,0
1,68,64,0
1,58,49,12
1,61,69,0
1,55,34,324
1,67,70,12
1,41,49,236
1,67,61,12
1,60,58,0
1,64,59,0
1,57,48,0
1,64,61,12
1,58,51,0
1,49,57,0
1,55,47,12
1,60,58,88
1,57,48,12
1,50,62,4
1,65,64,0
1,69,68,8
1,60,53,12
1,62,65,4
1,53,61,0
1,65,65,0
1,57,53,356
1,72,39,0
1,65,57,8
1,69,59,4
1,62,48,0
1,74,64,24
1,70,58,268
1,75,60,0
1,67,51,12
1,48,53,16
1,58,49,0
1,63,47,172
1,74,53,48
1,72,42,88
1,41,35,152
1,57,40,52
1,68,49,0
1,63,40,0
1,71,50,12
1,57,48,20
1,72,46,140
1,73,64,88
1,69,59,180
1,74,63,0
1,57,41,8
1,65,52,4
1,53,47,12
1,46,42,0
1,62,36,28
1,57,49,248
1,62,65,12
1,55,69,140
1,58,63,0
1,62,71,12
1,46,33,468
1,62,64,44
1,64,77,20
1,65,90,84
1,55,60,84
1,69,53,8
1,58,40,4
1,46,53,12
1,61,68,4
1,55,46,84
1,67,66,136
1,70,80,332
1,61,34,4
1,65,54,0
1,51,50,0
1,58,40,12
1,43,45,0
1,51,63,24
1,72,41,24
1,70,53,32
1,69,47,256
1,64,46,12
1,60,34,0
1,41,32,4
1,48,39,12
1,57,20,4
1,57,28,148
1,58,65,404
1,43,52,0
1,53,65,4
1,58,64,204
1,72,69,24
1,69,84,20
1,72,58,20
1,74,70,8
1,60,41,12
1,45,34,4
1,64,47,0
1,55,40,0
1,69,65,0
1,67,61,0
1,60,56,164
1,74,71,28
1,72,53,48
1,74,70,132
1,57,53,60
1,76,60,0
1,69,71,0
1,47,53,12
1,62,56,4
1,76,58,96
1,68,70,216
1,56,63,0
1,62,63,0
1,74,74,64
1,52,62,12
1,72,39,188
1,67,59,8
1,55,40,0
1,64,48,0
1,45,46,12
1,60,42,12
1,67,73,24
1,65,64,80
1,60,37,12
1,54,64,0
1,54,40,416
1,74,46,12
1,70,40,0
1,60,38,0
1,65,28,0
1,77,48,0
1,43,28,464
1,62,29,12
1,58,43,0
1,53,46,0
1,69,47,12
1,65,27,0
1,72,38,0
1,53,50,44
1,72,47,80
1,75,60,340
1,52,53,12
1,58,44,0
1,68,48,0
1,63,17,16
1,72,22,0
1,68,58,64
1,72,38,0
1,61,27,12
1,63,56,0
1,48,42,16
1,70,58,20
1,72,39,8
1,45,35,20
1,69,46,4
1,67,48,0
1,62,39,0
1,64,45,0
1,55,35,0
1,60,29,152
1,38,60,520
1,54,44,348
1,60,49,16
1,58,46,0
1,65,49,0
1,62,50,12
1,43,48,492
1,58,38,0
1,65,53,12
1,62,53,0
1,53,46,4
1,57,38,0
1,58,61,192
1,72,55,324
1,58,56,160
1,76,63,0
1,48,59,8
1,72,55,0
1,68,76,0
1,64,65,16
1,79,73,436
1,76,50,0
1,73,64,12
1,70,53,0
1,46,60,4
1,61,53,0
1,67,62,0
1,55,56,0
1,60,48,20
1,76,44,0
1,55,53,0
1,72,48,0
1,81,60,0
1,84,64,4
1,79,61,8
1,45,41,4
1,64,59,288
1,60,51,0
1,84,86,328
1,81,66,180
1,60,49,0
1,84,73,0
1,65,49,12
1,50,50,0
1,76,54,0
1,57,47,0
1,72,47,4
1,79,69,0
1,60,60,12
1,87,80,12
1,56,56,0
1,61,53,0
1,46,60,12
1,80,79,0
1,75,65,0
1,85,73,84
1,61,56,176
1,84,76,8
1,82,79,340
1,75,63,12
1,65,63,0
1,70,48,0
1,61,53,0
1,55,46,12
1,84,79,40
1,58,64,156
1,82,79,100
1,44,63,288
1,79,57,32
1,53,52,8
1,59,46,16
1,76,35,8
1,67,59,32
1,74,51,12
1,71,56,0
1,59,62,284
1,75,48,276
1,58,36,12
1,72,33,0
1,79,56,0
1,44,43,0
1,51,47,0
1,67,29,20
1,51,42,44
1,43,64,12
1,53,68,0
1,59,77,216
1,59,73,164
1,63,88,212
1,55,74,184
1,67,90,0
1,68,88,124
1,58,74,8
1,61,88,0
1,52,70,12
1,70,80,64
1,55,53,72
1,67,82,196
1,51,43,360
1,60,53,0
1,63,54,0
1,41,47,0
1,67,54,0
1,56,28,16
1,56,48,104
1,67,62,80
1,65,74,0
1,38,66,52
1,67,68,12
1,56,38,416
1,60,46,4
1,62,61,0
1,50,41,120
1,61,42,520
1,59,53,12
1,53,44,0
1,43,46,0
1,53,60,252
1,65,64,304
1,67,80,32
1,68,80,52
1,53,62,0
1,59,63,12
1,63,80,4
1,70,84,116
1,49,69,0
1,61,69,248
1,67,74,0
1,58,60,16
1,64,68,0
1,52,55,0
1,55,56,0
1,67,74,32
1,67,62,8
1,60,59,4
1,41,53,0
1,57,53,0
1,64,61,0
1,48,58,8
1,64,71,24
1,57,53,0
1,60,73,0
1,48,53,52
1,65,76,0
1,38,56,252
1,72,45,8
1,60,47,12
1,64,55,0
1,69,52,4
1,67,60,0
1,53,58,20
1,69,63,280
1,72,53,0
1,57,71,0
1,65,58,12
1,60,82,0
1,76,65,20
1,74,77,32
1,43,69,0
1,65,66,16
1,70,73,0
1,53,54,72
1,72,49,252
1,58,64,8
1,65,70,0
1,62,55,0
1,62,76,248
1,77,70,84
1,74,54,8
1,70,61,0
1,76,50,160
1,58,49,0
1,73,57,0
1,48,56,8
1,69,64,4
1,64,45,12
1,58,70,52
1,77,76,32
1,45,40,248
1,79,64,0
1,76,46,0
1,72,41,4
1,55,44,16
1,60,44,0
1,67,54,0
1,76,36,412
1,69,39,0
1,72,31,4
1,81,56,0
1,64,65,12
1,76,33,536
1,60,46,0
1,72,27,0
1,84,53,0
1,79,52,0
1,50,43,8
1,57,44,0
1,65,42,4
1,79,56,412
1,58,64,4
1,75,54,0
1,48,55,12
1,67,39,0
1,70,40,0
1,63,60,0
1,77,44,324
1,65,38,12
1,61,23,0
1,73,47,4
1,68,33,0
1,46,42,0
1,56,34,0
1,61,60,80
1,65,82,8
1,56,64,156
1,73,84,24
1,64,63,104
1,72,51,0
1,61,40,0
1,69,60,8
1,55,47,16
1,58,51,316
1,70,63,40
1,67,53,88
1,44,53,0
1,53,56,0
1,64,53,12
1,59,46,0
1,68,65,12
1,53,53,0
1,70,80,32
1,51,69,40
1,58,61,0
1,63,65,0
1,67,69,0
1,60,58,0
1,44,56,4
1,68,79,32
1,56,63,240
1,70,74,216
1,51,63,24
1,63,56,268
1,43,46,12
1,67,60,0
1,59,46,0
1,53,51,0
1,63,50,52
1,68,84,12
1,53,64,172
1,72,61,108
1,36,51,268
1,58,48,32
1,52,57,0
1,63,68,24
1,66,73,0
1,67,73,80
1,64,73,12
1,58,63,160
1,68,68,80
1,70,57,8
1,60,39,0
1,63,54,4
1,41,39,12
1,51,40,0
1,67,58,0
1,56,34,4
1,63,63,384
1,75,64,168
1,77,68,52
1,56,47,64
1,60,53,0
1,50,53,0
1,79,71,0
1,72,40,16
1,68,51,0
1,56,42,304
1,43,40,8
1,53,53,0
1,59,54,4
1,59,64,344
1,82,70,356
1,71,49,24
1,76,41,172
1,80,63,0
1,58,58,0
1,61,51,0
1,68,40,4
1,52,49,8
1,73,39,16
1,55,59,0
1,76,50,96
1,72,33,316
1,48,49,0
1,76,34,0
1,57,33,0
1,67,42,4
1,41,40,8
1,79,55,4
1,76,49,360
1,57,52,12
1,67,63,0
1,64,46,0
1,69,69,196
1,65,53,12
1,77,64,0
1,76,46,260
1,81,68,0
1,72,46,0
1,60,50,0
1,65,53,12
1,69,53,0
1,57,46,16
1,50,47,4
1,70,74,24
1,60,54,0
1,72,49,280
1,57,53,0
1,58,49,208
1,74,52,4
1,67,50,0
1,70,53,0
1,63,40,12
1,48,49,0
1,58,60,260
1,41,45,480
1,69,46,0
1,57,38,0
1,66,53,12
1,63,29,0
1,57,40,232
1,65,92,96
1,67,84,32
1,50,70,0
