track,note,velocity,time
1,36,105,1536
1,31,94,256
1,36,105,260
1,31,104,288
1,36,105,260
1,36,84,208
1,35,99,10
1,33,98,110
1,31,105,96
1,38,115,248
1,31,105,254
1,38,107,266
1,31,84,234
1,38,98,232
1,31,98,276
1,38,112,186
1,36,105,238
1,31,101,250
1,36,105,240
1,31,94,244
1,36,99,240
1,31,93,244
1,36,107,240
1,36,104,222
1,31,98,248
1,38,107,244
1,31,90,248
1,38,99,254
1,31,86,222
1,38,104,234
1,31,110,216
1,33,98,46
1,35,104,116
1,36,101,96
1,31,99,106
1,36,119,94
1,29,110,248
1,36,112,256
1,29,104,266
1,36,107,228
1,29,101,260
1,36,110,260
1,36,112,224
1,31,99,260
1,36,117,206
1,31,105,240
1,36,119,238
1,43,99,238
1,36,107,260
1,43,99,244
1,41,99,208
1,36,110,248
1,29,85,196
1,36,105,234
1,29,84,224
1,36,104,228
1,29,89,200
1,36,105,244
1,36,112,184
1,43,93,254
1,36,104,228
1,31,89,224
1,36,105,240
1,31,104,224
1,36,107,212
1,38,110,192
1,40,99,110
1,41,112,106
1,36,115,116
1,29,110,106
1,36,93,216
1,31,93,270
1,36,94,244
1,31,86,270
1,36,105,234
1,35,99,228
1,33,101,110
1,31,110,116
1,38,99,256
1,31,89,250
1,38,94,266
1,31,85,256
1,38,94,244
1,31,93,266
1,33,82,264
1,35,99,122
1,36,110,126
1,31,89,272
1,36,101,244
1,31,95,254
1,36,101,244
1,31,107,260
1,36,117,264
1,36,115,254
1,31,105,228
1,38,95,248
1,31,84,218
1,38,99,244
1,31,84,224
1,38,112,244
1,31,98,206
1,33,101,254
1,35,89,120
1,36,110,126
1,31,105,106
1,36,112,94
2,67,58,1728
2,64,72,0
2,60,61,0
2,64,84,196
2,60,72,0
2,67,82,0
2,64,84,196
2,67,77,0
2,60,76,0
2,64,94,196
2,60,76,0
2,67,89,0
2,64,101,196
2,60,89,0
2,67,98,0
2,60,69,196
2,64,98,0
2,67,101,0
2,67,80,196
2,59,89,0
2,62,95,0
2,62,93,196
2,67,82,0
2,59,85,0
2,62,95,196
2,67,80,0
2,59,86,0
2,67,76,196
2,62,90,0
2,59,81,0
2,67,77,196
2,59,84,0
2,62,94,0
2,62,89,196
2,67,76,0
2,59,84,0
2,62,94,196
2,67,84,0
2,59,95,0
2,62,89,196
2,67,80,0
2,59,80,0
2,67,94,196
2,64,99,0
2,60,90,0
2,64,98,196
2,60,90,0
2,67,99,0
2,64,104,196
2,60,93,0
2,67,95,0
2,64,105,196
2,60,85,0
2,67,99,0
2,64,99,196
2,60,86,0
2,67,95,0
2,64,101,196
2,60,80,0
2,67,90,0
2,64,101,196
2,60,80,0
2,67,94,0
2,60,84,196
2,64,99,0
2,67,99,0
2,62,104,196
2,67,84,0
2,59,89,0
2,59,90,196
2,67,89,0
2,62,99,0
2,59,86,196
2,62,99,0
2,67,82,0
2,67,81,196
2,59,84,0
2,62,93,0
2,67,85,196
2,62,101,0
2,59,89,0
2,59,94,196
2,62,104,0
2,67,90,0
2,59,95,196
2,62,99,0
2,67,95,0
2,59,98,196
2,62,105,0
2,67,90,0
2,64,105,196
2,60,98,0
2,67,105,0
2,64,105,4
2,60,104,0
2,67,107,0
2,60,84,388
2,65,86,0
2,69,76,0
2,60,95,196
2,65,105,0
2,69,93,0
2,65,104,196
2,60,99,0
2,69,84,0
2,60,99,196
2,65,105,0
2,69,85,0
2,60,98,196
2,65,104,0
2,69,89,0
2,60,89,196
2,65,99,0
2,69,80,0
2,60,89,196
2,67,99,0
2,64,101,0
2,60,94,196
2,64,99,0
2,67,90,0
2,60,90,196
2,67,98,0
2,64,99,0
2,64,105,196
2,60,98,0
2,67,110,0
2,64,105,196
2,60,94,0
2,67,105,0
2,60,98,196
2,64,107,0
2,67,105,0
2,60,89,196
2,64,99,0
2,67,99,0
2,60,94,196
2,64,101,0
2,67,99,0
2,60,93,196
2,65,105,0
2,69,85,0
2,60,99,196
2,65,105,0
2,69,94,0
2,65,112,196
2,69,94,0
2,60,105,0
2,60,99,196
2,65,105,0
2,69,86,0
2,60,99,196
2,65,99,0
2,69,86,0
2,69,84,196
2,60,99,0
2,65,99,0
2,69,90,196
2,60,104,0
2,65,105,0
2,60,98,196
2,69,94,0
2,65,105,0
2,60,86,196
2,67,95,0
2,64,104,0
2,64,110,196
2,60,99,0
2,67,101,0
2,64,110,196
2,60,98,0
2,67,110,0
2,64,107,196
2,60,98,0
2,67,104,0
2,60,94,196
2,64,101,0
2,67,104,0
2,60,107,196
2,67,110,0
2,64,115,0
2,60,93,4
2,62,93,4
2,60,76,54
2,59,63,16
2,60,99,26
2,61,62,6
2,62,98,22
2,63,93,90
2,64,101,2
2,65,99,10
2,60,119,98
2,53,89,112
2,64,86,392
2,67,74,0
2,60,89,0
2,60,101,196
2,64,112,0
2,67,107,0
2,64,107,196
2,60,99,0
2,67,105,0
2,64,105,196
2,67,110,0
2,60,99,0
2,64,115,196
2,67,110,0
2,60,104,0
2,60,105,196
2,64,117,0
2,67,110,0
2,62,117,196
2,59,105,0
2,67,99,0
2,59,105,196
2,62,117,0
2,67,105,0
2,67,99,196
2,62,115,0
2,59,107,0
2,62,104,196
2,67,94,0
2,59,94,0
2,62,101,196
2,59,98,0
2,67,94,0
2,62,99,196
2,59,101,0
2,67,84,0
2,59,95,196
2,62,105,0
2,67,99,0
2,59,99,196
2,62,107,0
2,67,90,0
2,60,95,196
2,67,101,0
2,64,110,0
2,60,105,196
2,64,112,0
2,67,105,0
2,60,99,196
2,64,115,0
2,67,105,0
2,64,112,196
2,60,99,0
2,67,107,0
2,64,101,196
2,60,94,0
2,67,105,0
2,60,98,196
2,64,112,0
2,67,105,0
2,60,98,196
2,64,105,0
2,67,110,0
2,60,98,196
2,64,105,0
2,67,105,0
2,62,101,196
2,59,89,0
2,67,90,0
2,59,98,196
2,62,101,0
2,67,94,0
2,62,101,196
2,59,98,0
2,67,90,0
2,59,98,196
2,62,105,0
2,67,93,0
2,62,105,196
2,67,95,0
2,59,101,0
2,67,94,196
2,59,99,0
2,62,107,0
2,59,95,196
2,62,104,0
2,67,90,0
2,59,99,196
2,62,115,0
2,67,101,0
2,64,112,4
2,67,104,0
2,60,104,0
2,64,115,4
2,67,119,0
2,60,110,0
2,64,110,4
2,60,112,0
2,67,112,0
3,36,125,1504
3,31,127,256
3,36,124,260
3,31,124,288
3,36,127,260
3,36,127,240
3,35,127,10
3,33,127,110
3,31,127,64
3,38,122,248
3,31,124,254
3,38,124,266
3,31,125,234
3,38,125,232
3,31,123,276
3,38,127,186
3,36,127,238
3,31,127,250
3,36,127,240
3,31,127,244
3,36,127,240
3,31,127,244
3,36,127,240
3,36,127,222
3,31,127,248
3,38,126,244
3,31,124,248
3,38,127,254
3,31,127,222
3,38,127,234
3,31,127,216
3,33,127,46
3,35,127,116
3,36,127,96
3,31,127,106
3,36,127,94
3,29,127,248
3,36,127,256
3,29,127,266
3,36,127,228
3,29,123,260
3,36,127,260
3,36,127,224
3,31,127,260
3,36,125,206
3,31,126,240
3,36,127,238
3,43,127,238
3,36,127,260
3,43,126,244
3,41,124,208
3,36,126,248
3,29,126,196
3,36,126,234
3,29,126,224
3,36,124,228
3,29,125,200
3,36,127,244
3,36,127,184
3,43,127,254
3,36,127,228
3,31,125,224
3,36,127,240
3,31,127,224
3,36,127,212
3,38,127,192
3,40,127,110
3,41,127,106
3,36,127,116
3,29,125,106
3,36,127,216
3,31,127,270
3,36,127,244
3,31,127,270
3,36,127,234
3,35,127,228
3,33,127,110
3,31,127,116
3,38,127,256
3,31,127,250
3,38,127,266
3,31,127,256
3,38,127,244
3,31,127,266
3,33,127,264
3,35,127,122
3,36,127,126
3,31,127,272
3,36,127,244
3,31,127,254
3,36,127,244
3,31,127,260
3,36,127,264
3,36,125,254
3,31,127,228
3,38,127,248
3,31,127,218
3,38,127,244
3,31,127,224
3,38,126,244
3,31,127,206
3,33,127,254
3,35,127,120
3,36,127,126
3,31,127,106
3,36,124,94
4,67,110,1344
4,65,94,52
4,64,90,26
4,67,94,36
4,72,101,32
4,76,112,42
4,67,105,32
4,72,101,10
4,76,110,40
4,79,105,32
4,76,115,30
4,76,119,122
4,76,112,120
4,76,99,62
4,79,110,46
4,76,101,24
4,76,105,78
4,79,112,40
4,76,101,36
4,79,110,80
4,79,90,40
4,79,104,58
4,77,93,26
4,74,99,24
4,71,101,32
4,67,80,32
4,67,86,68
4,66,67,14
4,65,76,4
4,67,73,8
4,71,78,8
4,74,89,20
4,77,105,20
4,74,94,14
4,77,110,48
4,79,101,96
4,83,99,62
4,83,115,110
4,83,107,116
4,81,115,72
4,79,85,40
4,83,95,36
4,81,101,56
4,79,89,24
4,83,112,26
4,81,94,84
4,79,84,40
4,81,76,40
4,79,98,20
4,76,99,40
4,72,110,10
4,67,90,30
4,67,104,30
4,65,95,26
4,64,105,96
4,67,105,36
4,72,123,42
4,76,105,20
4,67,89,4
4,72,105,26
4,76,104,24
4,79,107,24
4,76,125,8
4,76,112,112
4,76,115,106
4,76,105,58
4,79,112,26
4,76,105,14
4,76,105,64
4,79,104,32
4,76,105,20
4,79,105,30
4,79,98,42
4,79,99,52
4,77,101,16
4,74,85,32
4,71,107,20
4,67,85,24
4,67,99,74
4,66,76,24
4,65,95,8
4,67,68,20
4,71,80,16
4,74,104,30
4,77,104,36
4,74,95,26
4,77,90,16
4,79,94,0
4,83,95,58
4,83,105,96
4,83,101,106
4,81,123,36
4,80,87,52
4,79,107,16
4,83,105,40
4,81,107,26
4,79,98,26
4,77,98,96
4,76,86,14
4,74,104,96
4,72,99,16
4,67,99,112
4,72,119,52
4,84,104,256
4,81,89,8
4,77,110,32
4,74,94,26
4,72,101,8
4,72,98,62
4,70,87,96
4,69,72,8
4,72,104,96
4,77,112,80
4,72,101,14
4,69,94,8
4,72,107,96
4,77,119,4
4,72,99,16
4,70,69,4
4,72,99,96
4,76,125,14
4,72,99,26
4,70,62,8
4,82,85,30
4,82,99,94
4,79,72,26
4,76,94,20
4,74,93,96
4,72,58,16
4,76,101,42
4,74,89,96
4,72,105,26
4,76,104,8
4,74,99,14
4,72,99,26
4,70,77,4
4,69,94,32
4,72,101,192
4,77,99,4
4,81,73,16
4,84,105,68
4,81,99,48
4,77,112,32
4,74,98,48
4,72,95,20
4,72,98,94
4,70,72,96
4,69,105,40
4,72,101,30
4,77,112,42
4,72,95,48
4,69,58,42
4,72,110,16
4,77,110,32
4,72,94,42
4,70,83,26
4,72,101,8
4,76,104,32
4,72,99,24
4,70,63,32
4,82,82,80
4,82,85,94
4,79,90,480
4,76,90,40
4,74,72,96
4,72,105,10
4,76,94,14
4,74,107,96
4,72,80,14
4,74,94,56
4,72,81,54
4,71,94,60
4,72,82,14
4,73,99,22
4,74,99,34
4,75,87,80
4,76,84,6
4,77,104,30
4,72,112,84
4,77,119,122
4,67,105,54
4,65,101,28
4,64,90,4
4,67,94,36
4,72,101,32
4,76,112,42
4,67,105,32
4,72,101,10
4,76,110,40
4,79,105,32
4,76,115,30
4,76,119,122
4,76,112,120
4,76,99,62
4,79,110,46
4,76,101,24
4,76,105,78
4,79,112,40
4,76,101,36
4,79,110,80
4,79,90,40
4,79,104,58
4,77,93,26
4,74,99,24
4,71,101,32
4,67,80,32
4,67,86,68
4,66,67,14
4,65,76,4
4,67,73,8
4,71,78,8
4,74,89,20
4,77,105,20
4,74,94,14
4,77,110,48
4,79,101,96
4,83,99,62
4,83,115,110
4,83,107,116
4,81,115,72
4,79,85,40
4,83,95,36
4,81,101,56
4,79,89,24
4,83,112,26
4,81,94,84
4,79,84,40
4,81,76,40
4,79,98,20
4,76,99,40
4,72,110,10
4,67,90,30
4,67,104,30
4,65,95,26
4,64,105,96
4,67,105,36
4,72,123,42
4,76,105,20
4,67,89,4
4,72,105,26
4,76,104,24
4,79,107,24
4,76,125,8
4,76,112,112
4,76,115,106
4,76,105,58
4,79,112,26
4,76,105,14
4,76,105,64
4,79,104,32
4,76,105,20
4,79,105,30
4,79,98,42
4,79,99,52
4,77,101,16
4,74,85,32
4,71,107,20
4,67,85,24
4,67,99,74
4,66,76,24
4,65,95,8
4,67,68,20
4,71,80,16
4,74,104,30
4,77,104,36
4,74,95,26
4,77,90,16
4,79,94,0
4,83,95,58
4,83,105,96
4,83,101,106
4,81,123,36
4,80,87,52
4,79,107,16
4,83,105,40
4,81,107,26
4,79,98,26
4,77,98,96
4,76,86,14
4,74,104,96
4,72,99,16
4,67,99,112
4,72,119,52
5,36,105,1536
5,31,94,256
5,36,105,260
5,31,104,288
5,36,105,260
5,36,84,208
5,35,99,10
5,33,98,110
5,31,105,96
5,38,115,248
5,31,105,254
5,38,107,266
5,31,84,234
5,38,98,232
5,31,98,276
5,38,112,186
5,36,105,238
5,31,101,250
5,36,105,240
5,31,94,244
5,36,99,240
5,31,93,244
5,36,107,240
5,36,104,222
5,31,98,248
5,38,107,244
5,31,90,248
5,38,99,254
5,31,86,222
5,38,104,234
5,31,110,216
5,33,98,46
5,35,104,116
5,36,101,96
5,31,99,106
5,36,119,94
5,29,110,248
5,36,112,256
5,29,104,266
5,36,107,228
5,29,101,260
5,36,110,260
5,36,112,224
5,31,99,260
5,36,117,206
5,31,105,240
5,36,119,238
5,43,99,238
5,36,107,260
5,43,99,244
5,41,99,208
5,36,110,248
5,29,85,196
5,36,105,234
5,29,84,224
5,36,104,228
5,29,89,200
5,36,105,244
5,36,112,184
5,43,93,254
5,36,104,228
5,31,89,224
5,36,105,240
5,31,104,224
5,36,107,212
5,38,110,192
5,40,99,110
5,41,112,106
5,36,115,116
5,29,110,106
5,36,93,216
5,31,93,270
5,36,94,244
5,31,86,270
5,36,105,234
5,35,99,228
5,33,101,110
5,31,110,116
5,38,99,256
5,31,89,250
5,38,94,266
5,31,85,256
5,38,94,244
5,31,93,266
5,33,82,264
5,35,99,122
5,36,110,126
5,31,89,272
5,36,101,244
5,31,95,254
5,36,101,244
5,31,107,260
5,36,117,264
5,36,115,254
5,31,105,228
5,38,95,248
5,31,84,218
5,38,99,244
5,31,84,224
5,38,112,244
5,31,98,206
5,33,101,254
5,35,89,120
5,36,110,126
5,31,105,106
5,36,112,94
6,67,110,1344
6,65,94,52
6,64,90,26
6,67,94,36
6,72,101,32
6,76,112,42
6,67,105,32
6,72,101,10
6,76,110,40
6,79,105,32
6,76,115,30
6,76,119,122
6,76,112,120
6,76,99,62
6,79,110,46
6,76,101,24
6,76,105,78
6,79,112,40
6,76,101,36
6,79,110,80
6,79,90,40
6,79,104,58
6,77,93,26
6,74,99,24
6,71,101,32
6,67,80,32
6,67,86,68
6,66,67,14
6,65,76,4
6,67,73,8
6,71,78,8
6,74,89,20
6,77,105,20
6,74,94,14
6,77,110,48
6,79,101,96
6,83,99,62
6,83,115,110
6,83,107,116
6,81,115,72
6,79,85,40
6,83,95,36
6,81,101,56
6,79,89,24
6,83,112,26
6,81,94,84
6,79,84,40
6,81,76,40
6,79,98,20
6,76,99,40
6,72,110,10
6,67,90,30
6,67,104,30
6,65,95,26
6,64,105,96
6,67,105,36
6,72,123,42
6,76,105,20
6,67,89,4
6,72,105,26
6,76,104,24
6,79,107,24
6,76,125,8
6,76,112,112
6,76,115,106
6,76,105,58
6,79,112,26
6,76,105,14
6,76,105,64
6,79,104,32
6,76,105,20
6,79,105,30
6,79,98,42
6,79,99,52
6,77,101,16
6,74,85,32
6,71,107,20
6,67,85,24
6,67,99,74
6,66,76,24
6,65,95,8
6,67,68,20
6,71,80,16
6,74,104,30
6,77,104,36
6,74,95,26
6,77,90,16
6,79,94,0
6,83,95,58
6,83,105,96
6,83,101,106
6,81,123,36
6,80,87,52
6,79,107,16
6,83,105,40
6,81,107,26
6,79,98,26
6,77,98,96
6,76,86,14
6,74,104,96
6,72,99,16
6,67,99,112
6,72,119,52
6,84,104,256
6,81,89,8
6,77,110,32
6,74,94,26
6,72,101,8
