track,note,velocity,time
1.0,56.0,81.0,2192.0
1.0,68.0,62.0,2.0
1.0,60.0,74.0,6.0
1.0,63.0,71.0,4.0
1.0,41.0,56.0,154.0
1.0,44.0,56.0,12.0
1.0,48.0,72.0,94.0
1.0,51.0,66.0,10.0
1.0,56.0,87.0,8.0
1.0,60.0,67.0,102.0
1.0,63.0,63.0,0.0
1.0,53.0,49.0,70.0
1.0,61.0,72.0,100.0
1.0,73.0,70.0,2.0
1.0,68.0,72.0,4.0
1.0,65.0,65.0,6.0
1.0,46.0,65.0,44.0
1.0,49.0,51.0,172.0
1.0,53.0,58.0,144.0
1.0,56.0,53.0,134.0
1.0,61.0,30.0,4.0
1.0,53.0,50.0,30.0
1.0,56.0,80.0,216.0
1.0,68.0,74.0,8.0
1.0,46.0,63.0,10.0
1.0,39.0,74.0,132.0
1.0,67.0,68.0,0.0
1.0,46.0,69.0,102.0
1.0,67.0,71.0,80.0
1.0,55.0,76.0,0.0
1.0,63.0,71.0,4.0
1.0,51.0,66.0,14.0
1.0,62.0,75.0,2.0
1.0,67.0,62.0,12.0
1.0,51.0,60.0,36.0
1.0,61.0,63.0,44.0
1.0,67.0,57.0,0.0
1.0,51.0,65.0,150.0
1.0,44.0,56.0,158.0
1.0,67.0,64.0,12.0
1.0,60.0,56.0,6.0
1.0,51.0,67.0,170.0
1.0,72.0,61.0,112.0
1.0,55.0,54.0,170.0
1.0,60.0,32.0,80.0
1.0,51.0,42.0,228.0
1.0,51.0,56.0,204.0
1.0,67.0,49.0,80.0
1.0,37.0,58.0,224.0
1.0,65.0,66.0,30.0
1.0,44.0,60.0,114.0
1.0,56.0,72.0,88.0
1.0,65.0,67.0,4.0
1.0,61.0,54.0,12.0
1.0,49.0,62.0,6.0
1.0,61.0,71.0,48.0
1.0,65.0,77.0,4.0
1.0,56.0,76.0,2.0
1.0,53.0,71.0,4.0
1.0,56.0,88.0,102.0
1.0,65.0,63.0,48.0
1.0,50.0,79.0,6.0
1.0,65.0,98.0,94.0
1.0,59.0,85.0,2.0
1.0,62.0,82.0,8.0
1.0,43.0,75.0,0.0
1.0,50.0,77.0,8.0
1.0,65.0,78.0,54.0
1.0,71.0,72.0,4.0
1.0,59.0,68.0,0.0
1.0,53.0,60.0,54.0
1.0,59.0,47.0,28.0
1.0,50.0,73.0,62.0
1.0,65.0,82.0,52.0
1.0,43.0,39.0,102.0
1.0,45.0,33.0,10.0
1.0,59.0,74.0,92.0
1.0,64.0,72.0,10.0
1.0,36.0,70.0,30.0
1.0,43.0,65.0,104.0
1.0,48.0,42.0,22.0
1.0,55.0,64.0,16.0
1.0,59.0,65.0,26.0
1.0,64.0,62.0,26.0
1.0,67.0,68.0,80.0
1.0,71.0,69.0,20.0
1.0,76.0,48.0,26.0
1.0,79.0,13.0,100.0
1.0,83.0,59.0,14.0
1.0,88.0,53.0,14.0
1.0,91.0,92.0,74.0
1.0,95.0,57.0,20.0
1.0,100.0,50.0,12.0
1.0,103.0,53.0,118.0
1.0,48.0,31.0,176.0
1.0,43.0,42.0,42.0
1.0,48.0,44.0,16.0
1.0,51.0,60.0,156.0
1.0,55.0,47.0,134.0
1.0,51.0,81.0,58.0
1.0,55.0,74.0,2.0
1.0,63.0,76.0,4.0
1.0,58.0,72.0,6.0
1.0,36.0,69.0,30.0
1.0,43.0,66.0,56.0
1.0,48.0,63.0,112.0
1.0,51.0,80.0,8.0
1.0,55.0,66.0,112.0
1.0,58.0,74.0,8.0
1.0,48.0,71.0,90.0
1.0,56.0,89.0,122.0
1.0,60.0,83.0,2.0
1.0,68.0,84.0,0.0
1.0,63.0,81.0,8.0
1.0,41.0,68.0,22.0
1.0,44.0,67.0,90.0
1.0,48.0,74.0,28.0
1.0,56.0,87.0,142.0
1.0,51.0,72.0,70.0
1.0,63.0,81.0,90.0
1.0,46.0,72.0,94.0
1.0,34.0,74.0,10.0
1.0,62.0,77.0,6.0
1.0,46.0,74.0,88.0
1.0,58.0,79.0,64.0
1.0,62.0,74.0,4.0
1.0,46.0,71.0,0.0
1.0,57.0,83.0,12.0
1.0,62.0,73.0,6.0
1.0,46.0,58.0,44.0
1.0,62.0,82.0,48.0
1.0,56.0,88.0,4.0
1.0,46.0,72.0,116.0
1.0,62.0,75.0,134.0
1.0,55.0,71.0,10.0
1.0,39.0,67.0,10.0
1.0,46.0,66.0,32.0
1.0,67.0,60.0,148.0
1.0,51.0,49.0,26.0
1.0,55.0,53.0,26.0
1.0,51.0,49.0,68.0
1.0,62.0,67.0,30.0
1.0,44.0,52.0,54.0
1.0,55.0,67.0,58.0
1.0,60.0,71.0,0.0
1.0,32.0,77.0,0.0
1.0,44.0,76.0,8.0
1.0,55.0,73.0,76.0
1.0,44.0,70.0,74.0
1.0,60.0,83.0,66.0
1.0,51.0,75.0,26.0
1.0,60.0,85.0,54.0
1.0,51.0,71.0,86.0
1.0,60.0,92.0,100.0
1.0,45.0,67.0,74.0
1.0,33.0,83.0,36.0
1.0,60.0,88.0,10.0
1.0,57.0,92.0,2.0
1.0,45.0,74.0,164.0
1.0,62.0,82.0,32.0
1.0,57.0,83.0,0.0
1.0,57.0,79.0,62.0
1.0,63.0,92.0,0.0
1.0,51.0,65.0,38.0
1.0,62.0,84.0,10.0
1.0,57.0,75.0,10.0
1.0,51.0,81.0,0.0
1.0,57.0,88.0,74.0
1.0,60.0,85.0,0.0
1.0,50.0,54.0,130.0
1.0,62.0,79.0,142.0
1.0,57.0,85.0,2.0
1.0,54.0,84.0,0.0
1.0,59.0,69.0,10.0
1.0,43.0,61.0,144.0
1.0,50.0,66.0,0.0
1.0,54.0,66.0,6.0
1.0,57.0,73.0,36.0
1.0,59.0,51.0,58.0
1.0,62.0,74.0,6.0
1.0,66.0,49.0,0.0
1.0,69.0,53.0,110.0
1.0,71.0,56.0,44.0
1.0,74.0,63.0,42.0
1.0,78.0,53.0,100.0
1.0,81.0,60.0,76.0
1.0,83.0,40.0,14.0
1.0,90.0,57.0,102.0
1.0,92.0,62.0,30.0
1.0,93.0,66.0,12.0
1.0,95.0,54.0,10.0
1.0,98.0,86.0,22.0
1.0,62.0,91.0,152.0
1.0,67.0,74.0,218.0
1.0,74.0,78.0,24.0
1.0,52.0,28.0,152.0
1.0,67.0,48.0,0.0
1.0,74.0,66.0,14.0
1.0,45.0,64.0,12.0
1.0,52.0,62.0,22.0
1.0,57.0,44.0,148.0
1.0,60.0,66.0,18.0
1.0,64.0,64.0,58.0
1.0,72.0,79.0,86.0
1.0,72.0,78.0,4.0
1.0,57.0,37.0,4.0
1.0,52.0,50.0,88.0
1.0,60.0,46.0,102.0
1.0,45.0,58.0,78.0
1.0,38.0,73.0,28.0
1.0,45.0,79.0,34.0
1.0,50.0,73.0,64.0
1.0,60.0,77.0,12.0
1.0,65.0,93.0,70.0
1.0,54.0,84.0,70.0
1.0,66.0,84.0,44.0
1.0,60.0,76.0,12.0
1.0,57.0,77.0,0.0
1.0,72.0,73.0,12.0
1.0,57.0,77.0,138.0
1.0,66.0,87.0,86.0
1.0,71.0,81.0,10.0
1.0,43.0,52.0,54.0
1.0,50.0,68.0,100.0
1.0,54.0,71.0,14.0
1.0,62.0,51.0,22.0
1.0,66.0,59.0,36.0
1.0,71.0,55.0,10.0
1.0,74.0,65.0,76.0
1.0,78.0,59.0,58.0
1.0,83.0,64.0,30.0
1.0,86.0,70.0,72.0
1.0,90.0,60.0,72.0
1.0,95.0,50.0,10.0
1.0,98.0,76.0,70.0
1.0,102.0,66.0,36.0
1.0,107.0,84.0,38.0
1.0,62.0,84.0,702.0
1.0,67.0,91.0,44.0
1.0,71.0,82.0,42.0
1.0,42.0,58.0,48.0
1.0,71.0,71.0,30.0
1.0,49.0,57.0,36.0
1.0,69.0,74.0,120.0
1.0,52.0,48.0,44.0
1.0,69.0,70.0,0.0
1.0,52.0,57.0,118.0
1.0,57.0,60.0,28.0
1.0,47.0,63.0,82.0
1.0,35.0,83.0,128.0
1.0,47.0,67.0,6.0
1.0,58.0,90.0,106.0
1.0,47.0,69.0,4.0
1.0,59.0,75.0,64.0
1.0,69.0,79.0,54.0
1.0,47.0,51.0,10.0
1.0,40.0,66.0,16.0
1.0,68.0,76.0,12.0
1.0,47.0,55.0,120.0
1.0,59.0,45.0,116.0
1.0,63.0,61.0,0.0
1.0,51.0,39.0,2.0
1.0,59.0,50.0,38.0
1.0,62.0,58.0,8.0
1.0,61.0,57.0,18.0
1.0,47.0,30.0,30.0
1.0,40.0,60.0,6.0
1.0,60.0,53.0,30.0
1.0,47.0,56.0,166.0
1.0,52.0,44.0,38.0
1.0,47.0,60.0,40.0
1.0,59.0,53.0,160.0
1.0,52.0,48.0,152.0
1.0,59.0,52.0,90.0
1.0,52.0,48.0,100.0
1.0,41.0,52.0,6.0
1.0,56.0,61.0,22.0
1.0,63.0,59.0,16.0
1.0,68.0,56.0,0.0
1.0,60.0,53.0,16.0
1.0,48.0,54.0,140.0
1.0,51.0,60.0,82.0
1.0,56.0,48.0,56.0
1.0,60.0,38.0,44.0
1.0,63.0,50.0,176.0
1.0,53.0,48.0,60.0
1.0,61.0,69.0,190.0
1.0,65.0,66.0,32.0
1.0,68.0,65.0,64.0
1.0,73.0,72.0,28.0
1.0,46.0,66.0,60.0
1.0,49.0,67.0,146.0
1.0,53.0,70.0,122.0
1.0,61.0,69.0,102.0
1.0,56.0,80.0,20.0
1.0,53.0,70.0,52.0
1.0,56.0,87.0,46.0
1.0,68.0,84.0,6.0
1.0,63.0,74.0,10.0
1.0,47.0,54.0,38.0
1.0,63.0,78.0,78.0
1.0,55.0,81.0,0.0
1.0,67.0,67.0,8.0
1.0,39.0,76.0,0.0
1.0,46.0,72.0,122.0
1.0,63.0,79.0,62.0
1.0,67.0,84.0,2.0
1.0,55.0,86.0,0.0
1.0,51.0,66.0,6.0
1.0,62.0,69.0,70.0
1.0,67.0,67.0,4.0
1.0,51.0,62.0,74.0
1.0,61.0,63.0,24.0
1.0,67.0,62.0,2.0
1.0,51.0,70.0,128.0
1.0,67.0,64.0,160.0
1.0,44.0,62.0,10.0
1.0,60.0,54.0,6.0
1.0,51.0,67.0,166.0
1.0,72.0,61.0,102.0
1.0,55.0,48.0,2.0
1.0,60.0,46.0,214.0
1.0,67.0,55.0,126.0
1.0,37.0,69.0,170.0
1.0,65.0,80.0,22.0
1.0,44.0,62.0,80.0
1.0,49.0,70.0,0.0
1.0,56.0,79.0,76.0
1.0,61.0,80.0,140.0
1.0,53.0,65.0,86.0
1.0,65.0,78.0,92.0
1.0,56.0,61.0,112.0
1.0,65.0,34.0,0.0
1.0,68.0,56.0,48.0
1.0,46.0,68.0,16.0
1.0,75.0,70.0,88.0
1.0,49.0,57.0,108.0
1.0,53.0,59.0,106.0
1.0,56.0,53.0,4.0
1.0,75.0,49.0,182.0
1.0,65.0,35.0,10.0
1.0,68.0,54.0,4.0
1.0,58.0,56.0,28.0
1.0,61.0,39.0,212.0
1.0,58.0,39.0,6.0
1.0,73.0,59.0,574.0
1.0,51.0,50.0,134.0
1.0,44.0,57.0,174.0
1.0,63.0,56.0,22.0
1.0,60.0,56.0,6.0
1.0,55.0,48.0,0.0
1.0,51.0,59.0,0.0
1.0,60.0,53.0,166.0
1.0,63.0,33.0,8.0
1.0,55.0,54.0,56.0
1.0,51.0,70.0,56.0
1.0,63.0,84.0,114.0
1.0,65.0,74.0,28.0
1.0,63.0,81.0,38.0
1.0,62.0,88.0,4.0
1.0,63.0,82.0,42.0
1.0,67.0,76.0,54.0
1.0,45.0,62.0,116.0
1.0,54.0,59.0,70.0
1.0,57.0,67.0,144.0
1.0,60.0,53.0,0.0
1.0,63.0,56.0,20.0
1.0,69.0,46.0,98.0
1.0,72.0,55.0,16.0
1.0,75.0,59.0,0.0
1.0,81.0,69.0,92.0
1.0,84.0,74.0,4.0
1.0,87.0,69.0,34.0
1.0,91.0,92.0,0.0
1.0,65.0,77.0,890.0
1.0,64.0,62.0,18.0
1.0,63.0,77.0,0.0
1.0,62.0,71.0,20.0
1.0,61.0,88.0,36.0
1.0,61.0,86.0,42.0
1.0,46.0,72.0,58.0
1.0,53.0,68.0,100.0
1.0,61.0,85.0,20.0
1.0,56.0,70.0,140.0
1.0,65.0,86.0,118.0
1.0,56.0,68.0,80.0
1.0,68.0,68.0,6.0
1.0,56.0,58.0,110.0
1.0,68.0,62.0,26.0
1.0,73.0,57.0,2.0
1.0,77.0,69.0,38.0
1.0,46.0,58.0,16.0
1.0,53.0,55.0,28.0
1.0,68.0,28.0,254.0
1.0,56.0,48.0,154.0
1.0,58.0,45.0,160.0
1.0,67.0,36.0,0.0
1.0,61.0,51.0,4.0
1.0,65.0,38.0,34.0
1.0,51.0,35.0,64.0
1.0,55.0,45.0,80.0
1.0,58.0,33.0,110.0
1.0,51.0,42.0,254.0
1.0,44.0,51.0,188.0
1.0,68.0,45.0,40.0
1.0,63.0,53.0,12.0
1.0,60.0,42.0,12.0
1.0,51.0,48.0,132.0
1.0,55.0,46.0,92.0
1.0,60.0,35.0,0.0
1.0,63.0,42.0,42.0
1.0,67.0,49.0,44.0
1.0,75.0,50.0,246.0
1.0,79.0,41.0,114.0
1.0,84.0,66.0,98.0
1.0,87.0,53.0,80.0
1.0,91.0,51.0,188.0
1.0,84.0,24.0,66.0
1.0,51.0,76.0,128.0
1.0,44.0,63.0,124.0
1.0,68.0,68.0,36.0
1.0,72.0,56.0,22.0
1.0,75.0,70.0,42.0
1.0,80.0,75.0,16.0
1.0,41.0,62.0,58.0
1.0,44.0,57.0,126.0
1.0,48.0,40.0,96.0
1.0,51.0,77.0,6.0
1.0,56.0,70.0,134.0
1.0,60.0,67.0,86.0
1.0,68.0,76.0,32.0
1.0,56.0,58.0,90.0
1.0,54.0,15.0,8.0
1.0,46.0,77.0,42.0
1.0,73.0,85.0,2.0
1.0,85.0,89.0,0.0
1.0,80.0,80.0,4.0
1.0,77.0,74.0,10.0
1.0,53.0,63.0,94.0
1.0,56.0,77.0,6.0
1.0,61.0,58.0,144.0
1.0,65.0,59.0,6.0
1.0,61.0,45.0,62.0
1.0,80.0,68.0,92.0
1.0,68.0,56.0,4.0
1.0,75.0,61.0,16.0
1.0,46.0,59.0,88.0
1.0,39.0,63.0,6.0
1.0,79.0,52.0,24.0
1.0,75.0,59.0,2.0
1.0,67.0,49.0,4.0
1.0,46.0,56.0,32.0
1.0,67.0,65.0,56.0
1.0,79.0,62.0,4.0
1.0,75.0,61.0,4.0
1.0,51.0,66.0,16.0
1.0,79.0,61.0,134.0
1.0,74.0,70.0,2.0
1.0,55.0,49.0,16.0
1.0,58.0,56.0,90.0
1.0,73.0,53.0,54.0
1.0,79.0,49.0,4.0
1.0,51.0,48.0,184.0
1.0,44.0,54.0,18.0
1.0,79.0,55.0,14.0
1.0,72.0,50.0,8.0
1.0,51.0,60.0,48.0
1.0,84.0,53.0,34.0
1.0,79.0,45.0,4.0
1.0,72.0,43.0,4.0
1.0,55.0,36.0,8.0
1.0,72.0,49.0,246.0
1.0,67.0,33.0,108.0
1.0,63.0,30.0,74.0
1.0,79.0,40.0,70.0
1.0,49.0,28.0,22.0
1.0,37.0,56.0,108.0
1.0,68.0,35.0,4.0
1.0,73.0,54.0,2.0
1.0,77.0,48.0,10.0
1.0,49.0,54.0,12.0
1.0,73.0,56.0,82.0
1.0,68.0,50.0,4.0
1.0,77.0,51.0,10.0
1.0,49.0,66.0,92.0
1.0,53.0,60.0,106.0
1.0,68.0,81.0,42.0
1.0,77.0,74.0,0.0
1.0,73.0,76.0,2.0
1.0,56.0,79.0,0.0
1.0,73.0,88.0,84.0
1.0,68.0,90.0,4.0
1.0,77.0,77.0,2.0
1.0,50.0,82.0,38.0
1.0,43.0,82.0,58.0
1.0,74.0,95.0,0.0
1.0,77.0,91.0,4.0
1.0,71.0,85.0,2.0
1.0,50.0,78.0,6.0
1.0,83.0,88.0,42.0
1.0,77.0,86.0,2.0
1.0,71.0,86.0,6.0
1.0,53.0,71.0,160.0
1.0,59.0,74.0,62.0
1.0,77.0,87.0,2.0
1.0,71.0,81.0,4.0
1.0,62.0,73.0,18.0
1.0,59.0,74.0,122.0
1.0,71.0,73.0,26.0
1.0,77.0,67.0,6.0
1.0,36.0,68.0,74.0
1.0,71.0,80.0,118.0
1.0,67.0,76.0,0.0
1.0,64.0,86.0,4.0
1.0,76.0,79.0,2.0
1.0,24.0,81.0,112.0
1.0,48.0,74.0,212.0
1.0,52.0,60.0,112.0
1.0,55.0,75.0,76.0
1.0,59.0,67.0,86.0
1.0,64.0,68.0,4.0
1.0,67.0,63.0,76.0
1.0,71.0,75.0,4.0
1.0,76.0,67.0,94.0
1.0,79.0,57.0,26.0
1.0,83.0,73.0,0.0
1.0,88.0,69.0,80.0
1.0,95.0,61.0,164.0
1.0,100.0,71.0,106.0
1.0,103.0,59.0,6.0
1.0,107.0,55.0,26.0
1.0,55.0,65.0,112.0
1.0,48.0,73.0,92.0
1.0,51.0,67.0,146.0
1.0,55.0,61.0,12.0
1.0,58.0,71.0,116.0
1.0,63.0,72.0,26.0
1.0,67.0,68.0,20.0
1.0,70.0,77.0,64.0
1.0,75.0,79.0,12.0
1.0,60.0,67.0,110.0
1.0,63.0,77.0,36.0
1.0,67.0,74.0,114.0
1.0,70.0,88.0,122.0
1.0,48.0,81.0,72.0
1.0,41.0,64.0,46.0
1.0,75.0,85.0,2.0
1.0,80.0,89.0,4.0
1.0,72.0,81.0,2.0
1.0,68.0,87.0,0.0
1.0,48.0,68.0,80.0
1.0,51.0,82.0,0.0
1.0,56.0,88.0,94.0
1.0,60.0,75.0,44.0
1.0,68.0,81.0,48.0
1.0,75.0,87.0,32.0
1.0,56.0,68.0,0.0
1.0,46.0,79.0,32.0
1.0,74.0,65.0,26.0
1.0,56.0,79.0,60.0
1.0,70.0,82.0,60.0
1.0,74.0,81.0,4.0
1.0,62.0,81.0,6.0
1.0,56.0,76.0,20.0
1.0,74.0,78.0,16.0
1.0,69.0,65.0,4.0
1.0,56.0,78.0,10.0
1.0,74.0,77.0,80.0
1.0,68.0,68.0,6.0
1.0,39.0,61.0,220.0
1.0,74.0,69.0,2.0
1.0,67.0,58.0,0.0
1.0,46.0,56.0,58.0
1.0,51.0,28.0,16.0
1.0,79.0,58.0,32.0
1.0,74.0,59.0,4.0
1.0,67.0,24.0,10.0
1.0,51.0,70.0,150.0
1.0,55.0,67.0,112.0
1.0,58.0,45.0,166.0
1.0,74.0,61.0,50.0
1.0,44.0,54.0,346.0
1.0,72.0,64.0,4.0
1.0,51.0,63.0,10.0
1.0,72.0,58.0,150.0
1.0,60.0,56.0,10.0
1.0,68.0,58.0,10.0
1.0,56.0,59.0,46.0
1.0,68.0,70.0,26.0
1.0,72.0,60.0,6.0
1.0,60.0,65.0,6.0
1.0,56.0,71.0,34.0
1.0,68.0,85.0,112.0
1.0,60.0,88.0,4.0
1.0,72.0,82.0,0.0
1.0,46.0,54.0,90.0
1.0,45.0,82.0,18.0
1.0,68.0,90.0,20.0
1.0,72.0,87.0,4.0
1.0,60.0,94.0,0.0
1.0,54.0,81.0,0.0
1.0,62.0,97.0,6.0
1.0,74.0,91.0,0.0
1.0,54.0,80.0,54.0
1.0,63.0,108.0,56.0
1.0,75.0,104.0,2.0
1.0,54.0,81.0,84.0
1.0,62.0,107.0,48.0
1.0,74.0,100.0,0.0
1.0,54.0,82.0,104.0
1.0,60.0,105.0,144.0
1.0,72.0,82.0,6.0
1.0,50.0,74.0,138.0
1.0,62.0,98.0,160.0
1.0,66.0,90.0,0.0
1.0,71.0,86.0,10.0
1.0,43.0,73.0,10.0
1.0,50.0,74.0,114.0
1.0,54.0,74.0,16.0
1.0,59.0,59.0,0.0
1.0,62.0,55.0,74.0
1.0,66.0,65.0,8.0
1.0,71.0,59.0,88.0
1.0,74.0,61.0,68.0
1.0,78.0,65.0,0.0
1.0,83.0,73.0,94.0
1.0,95.0,77.0,142.0
1.0,98.0,80.0,24.0
1.0,102.0,84.0,8.0
1.0,107.0,59.0,34.0
1.0,62.0,85.0,394.0
1.0,74.0,77.0,6.0
1.0,67.0,97.0,34.0
1.0,79.0,92.0,4.0
1.0,74.0,98.0,374.0
1.0,86.0,93.0,0.0
1.0,52.0,66.0,122.0
1.0,45.0,79.0,16.0
1.0,74.0,95.0,8.0
1.0,86.0,90.0,4.0
1.0,52.0,78.0,8.0
1.0,55.0,66.0,8.0
1.0,79.0,75.0,64.0
1.0,76.0,69.0,4.0
1.0,84.0,78.0,2.0
1.0,72.0,78.0,0.0
1.0,57.0,69.0,148.0
1.0,60.0,70.0,26.0
1.0,84.0,95.0,38.0
1.0,72.0,90.0,4.0
1.0,79.0,75.0,0.0
1.0,76.0,80.0,2.0
1.0,64.0,73.0,62.0
1.0,67.0,66.0,154.0
1.0,64.0,77.0,80.0
1.0,72.0,58.0,116.0
1.0,38.0,61.0,6.0
1.0,26.0,90.0,16.0
1.0,38.0,71.0,10.0
1.0,65.0,88.0,172.0
1.0,77.0,78.0,4.0
1.0,50.0,64.0,62.0
1.0,66.0,101.0,98.0
1.0,78.0,98.0,4.0
1.0,54.0,77.0,68.0
1.0,72.0,91.0,176.0
1.0,84.0,86.0,0.0
1.0,57.0,63.0,114.0
1.0,74.0,93.0,138.0
1.0,78.0,89.0,2.0
1.0,71.0,87.0,4.0
1.0,83.0,91.0,0.0
1.0,43.0,73.0,74.0
1.0,50.0,73.0,112.0
1.0,54.0,75.0,40.0
1.0,59.0,45.0,146.0
1.0,62.0,74.0,84.0
1.0,66.0,74.0,10.0
1.0,71.0,65.0,96.0
1.0,74.0,59.0,44.0
1.0,78.0,68.0,30.0
1.0,83.0,63.0,90.0
1.0,86.0,62.0,28.0
1.0,90.0,65.0,24.0
1.0,95.0,63.0,78.0
1.0,98.0,66.0,8.0
1.0,102.0,82.0,10.0
1.0,103.0,54.0,34.0
1.0,107.0,77.0,32.0
1.0,74.0,79.0,1058.0
1.0,79.0,69.0,192.0
1.0,83.0,72.0,20.0
1.0,42.0,58.0,64.0
1.0,83.0,67.0,24.0
1.0,49.0,60.0,70.0
1.0,81.0,78.0,0.0
1.0,54.0,77.0,158.0
1.0,81.0,81.0,96.0
1.0,61.0,68.0,60.0
1.0,64.0,66.0,112.0
1.0,69.0,60.0,32.0
1.0,57.0,56.0,128.0
1.0,47.0,55.0,40.0
1.0,51.0,53.0,0.0
1.0,54.0,57.0,108.0
1.0,70.0,72.0,14.0
1.0,57.0,69.0,12.0
1.0,71.0,57.0,118.0
1.0,59.0,39.0,76.0
1.0,63.0,52.0,142.0
1.0,66.0,48.0,140.0
1.0,81.0,58.0,6.0
1.0,40.0,58.0,158.0
1.0,80.0,67.0,22.0
1.0,47.0,54.0,4.0
1.0,75.0,50.0,146.0
1.0,74.0,63.0,128.0
1.0,56.0,41.0,42.0
1.0,73.0,62.0,20.0
1.0,72.0,40.0,42.0
1.0,40.0,48.0,12.0
1.0,47.0,52.0,176.0
1.0,52.0,59.0,36.0
1.0,56.0,62.0,142.0
1.0,59.0,58.0,150.0
1.0,56.0,71.0,106.0
1.0,71.0,55.0,134.0
1.0,48.0,82.0,106.0
1.0,41.0,67.0,0.0
1.0,68.0,81.0,4.0
1.0,56.0,94.0,0.0
1.0,63.0,83.0,6.0
1.0,60.0,80.0,2.0
1.0,48.0,69.0,138.0
1.0,51.0,79.0,118.0
1.0,56.0,86.0,106.0
1.0,60.0,71.0,68.0
1.0,63.0,78.0,146.0
1.0,53.0,63.0,0.0
1.0,46.0,74.0,112.0
1.0,61.0,91.0,106.0
1.0,68.0,85.0,0.0
1.0,65.0,87.0,2.0
1.0,73.0,87.0,4.0
1.0,49.0,71.0,110.0
1.0,53.0,63.0,96.0
1.0,56.0,66.0,44.0
1.0,53.0,63.0,4.0
1.0,68.0,69.0,64.0
1.0,56.0,66.0,6.0
1.0,63.0,58.0,6.0
1.0,46.0,63.0,92.0
1.0,39.0,62.0,144.0
1.0,55.0,52.0,4.0
1.0,63.0,59.0,2.0
1.0,67.0,51.0,4.0
1.0,46.0,66.0,4.0
1.0,63.0,72.0,90.0
1.0,55.0,76.0,0.0
1.0,67.0,72.0,4.0
1.0,51.0,61.0,16.0
1.0,62.0,75.0,4.0
1.0,55.0,71.0,0.0
1.0,67.0,62.0,6.0
1.0,51.0,63.0,32.0
1.0,61.0,79.0,40.0
1.0,55.0,77.0,4.0
1.0,67.0,78.0,0.0
1.0,51.0,77.0,82.0
1.0,44.0,74.0,30.0
1.0,67.0,85.0,2.0
1.0,60.0,84.0,4.0
1.0,55.0,88.0,0.0
1.0,63.0,81.0,6.0
1.0,51.0,77.0,26.0
1.0,60.0,86.0,144.0
1.0,72.0,80.0,0.0
1.0,67.0,88.0,6.0
1.0,55.0,73.0,4.0
1.0,51.0,90.0,2.0
1.0,55.0,77.0,10.0
1.0,51.0,79.0,22.0
1.0,67.0,82.0,14.0
1.0,49.0,81.0,116.0
1.0,61.0,88.0,58.0
1.0,56.0,98.0,0.0
1.0,65.0,90.0,2.0
1.0,37.0,87.0,10.0
1.0,49.0,82.0,136.0
1.0,56.0,81.0,50.0
1.0,53.0,66.0,62.0
1.0,56.0,70.0,124.0
1.0,61.0,79.0,16.0
1.0,65.0,67.0,16.0
1.0,56.0,66.0,106.0
1.0,46.0,72.0,42.0
1.0,68.0,69.0,2.0
1.0,75.0,76.0,6.0
1.0,65.0,62.0,4.0
1.0,49.0,54.0,104.0
1.0,53.0,37.0,88.0
1.0,61.0,62.0,66.0
1.0,65.0,51.0,26.0
1.0,73.0,47.0,228.0
1.0,51.0,57.0,120.0
1.0,44.0,59.0,10.0
1.0,55.0,54.0,26.0
1.0,63.0,61.0,0.0
1.0,60.0,57.0,18.0
1.0,51.0,65.0,110.0
1.0,60.0,54.0,104.0
1.0,55.0,41.0,0.0
1.0,63.0,44.0,4.0
1.0,55.0,45.0,74.0
1.0,51.0,69.0,20.0
1.0,55.0,57.0,102.0
1.0,63.0,78.0,48.0
1.0,65.0,74.0,24.0
1.0,63.0,76.0,52.0
1.0,62.0,88.0,68.0
1.0,63.0,84.0,26.0
1.0,67.0,75.0,42.0
1.0,45.0,68.0,64.0
1.0,54.0,69.0,106.0
1.0,57.0,66.0,112.0
1.0,60.0,61.0,44.0
1.0,63.0,72.0,32.0
1.0,69.0,76.0,88.0
1.0,72.0,51.0,64.0
1.0,75.0,68.0,8.0
1.0,81.0,35.0,100.0
1.0,84.0,67.0,26.0
1.0,93.0,85.0,110.0
1.0,96.0,71.0,32.0
1.0,99.0,80.0,10.0
1.0,103.0,80.0,28.0
1.0,54.0,56.0,200.0
1.0,65.0,82.0,146.0
1.0,64.0,68.0,6.0
1.0,63.0,81.0,0.0
1.0,62.0,79.0,10.0
1.0,63.0,52.0,16.0
1.0,61.0,62.0,32.0
1.0,46.0,69.0,42.0
1.0,53.0,60.0,116.0
1.0,61.0,76.0,60.0
1.0,56.0,71.0,142.0
1.0,65.0,77.0,6.0
1.0,56.0,51.0,156.0
1.0,68.0,66.0,4.0
1.0,56.0,51.0,82.0
1.0,68.0,66.0,28.0
1.0,73.0,62.0,64.0
1.0,77.0,62.0,22.0
1.0,46.0,59.0,30.0
1.0,53.0,47.0,26.0
1.0,56.0,30.0,36.0
1.0,56.0,53.0,200.0
1.0,51.0,54.0,104.0
1.0,67.0,42.0,4.0
1.0,63.0,56.0,10.0
1.0,61.0,52.0,6.0
1.0,58.0,51.0,0.0
1.0,44.0,77.0,108.0
1.0,63.0,86.0,8.0
1.0,67.0,83.0,2.0
1.0,55.0,91.0,4.0
1.0,60.0,86.0,2.0
1.0,51.0,69.0,220.0
1.0,55.0,66.0,90.0
1.0,60.0,65.0,16.0
1.0,63.0,72.0,12.0
1.0,67.0,46.0,128.0
1.0,68.0,53.0,10.0
1.0,72.0,69.0,32.0
1.0,75.0,71.0,6.0
1.0,79.0,74.0,90.0
1.0,84.0,74.0,22.0
1.0,55.0,26.0,106.0
1.0,87.0,76.0,12.0
1.0,91.0,91.0,92.0
1.0,96.0,75.0,28.0
1.0,99.0,66.0,2.0
1.0,103.0,69.0,112.0
1.0,106.0,52.0,348.0
1.0,32.0,39.0,658.0
0.0,0.0,0.0,0.0
0.0,0.0,0.0,0.0
0.0,0.0,0.0,0.0
0.0,0.0,0.0,0.0
0.0,0.0,0.0,0.0
0.0,0.0,0.0,0.0
0.0,0.0,0.0,0.0
0.0,0.0,0.0,0.0
0.0,0.0,0.0,0.0
0.0,0.0,0.0,0.0
0.0,0.0,0.0,0.0
0.0,0.0,0.0,0.0
0.0,0.0,0.0,0.0
0.0,0.0,0.0,0.0
0.0,0.0,0.0,0.0
0.0,0.0,0.0,0.0
0.0,0.0,0.0,0.0
0.0,0.0,0.0,0.0
0.0,0.0,0.0,0.0
0.0,0.0,0.0,0.0
0.0,0.0,0.0,0.0
0.0,0.0,0.0,0.0
0.0,0.0,0.0,0.0
0.0,0.0,0.0,0.0
0.0,0.0,0.0,0.0
0.0,0.0,0.0,0.0
0.0,0.0,0.0,0.0
0.0,0.0,0.0,0.0
0.0,0.0,0.0,0.0
0.0,0.0,0.0,0.0
0.0,0.0,0.0,0.0
0.0,0.0,0.0,0.0
0.0,0.0,0.0,0.0
0.0,0.0,0.0,0.0
0.0,0.0,0.0,0.0
0.0,0.0,0.0,0.0
0.0,0.0,0.0,0.0
0.0,0.0,0.0,0.0
0.0,0.0,0.0,0.0
0.0,0.0,0.0,0.0
0.0,0.0,0.0,0.0
0.0,0.0,0.0,0.0
0.0,0.0,0.0,0.0
0.0,0.0,0.0,0.0
0.0,0.0,0.0,0.0
0.0,0.0,0.0,0.0
0.0,0.0,0.0,0.0
0.0,0.0,0.0,0.0
0.0,0.0,0.0,0.0
0.0,0.0,0.0,0.0
0.0,0.0,0.0,0.0
0.0,0.0,0.0,0.0
0.0,0.0,0.0,0.0
0.0,0.0,0.0,0.0
0.0,0.0,0.0,0.0
0.0,0.0,0.0,0.0
0.0,0.0,0.0,0.0
0.0,0.0,0.0,0.0
0.0,0.0,0.0,0.0
0.0,0.0,0.0,0.0
0.0,0.0,0.0,0.0
0.0,0.0,0.0,0.0
0.0,0.0,0.0,0.0
0.0,0.0,0.0,0.0
0.0,0.0,0.0,0.0
0.0,0.0,0.0,0.0
0.0,0.0,0.0,0.0
0.0,0.0,0.0,0.0
0.0,0.0,0.0,0.0
0.0,0.0,0.0,0.0
0.0,0.0,0.0,0.0
0.0,0.0,0.0,0.0
0.0,0.0,0.0,0.0
0.0,0.0,0.0,0.0
0.0,0.0,0.0,0.0
0.0,0.0,0.0,0.0
0.0,0.0,0.0,0.0
0.0,0.0,0.0,0.0
0.0,0.0,0.0,0.0
0.0,0.0,0.0,0.0
0.0,0.0,0.0,0.0
0.0,0.0,0.0,0.0
0.0,0.0,0.0,0.0
0.0,0.0,0.0,0.0
0.0,0.0,0.0,0.0
0.0,0.0,0.0,0.0
0.0,0.0,0.0,0.0
0.0,0.0,0.0,0.0
0.0,0.0,0.0,0.0
0.0,0.0,0.0,0.0
0.0,0.0,0.0,0.0
0.0,0.0,0.0,0.0
0.0,0.0,0.0,0.0
0.0,0.0,0.0,0.0
0.0,0.0,0.0,0.0
0.0,0.0,0.0,0.0
0.0,0.0,0.0,0.0
0.0,0.0,0.0,0.0
0.0,0.0,0.0,0.0
0.0,0.0,0.0,0.0
0.0,0.0,0.0,0.0
0.0,0.0,0.0,0.0
0.0,0.0,0.0,0.0
0.0,0.0,0.0,0.0
0.0,0.0,0.0,0.0
0.0,0.0,0.0,0.0
0.0,0.0,0.0,0.0
0.0,0.0,0.0,0.0
0.0,0.0,0.0,0.0
0.0,0.0,0.0,0.0
0.0,0.0,0.0,0.0
0.0,0.0,0.0,0.0
0.0,0.0,0.0,0.0
0.0,0.0,0.0,0.0
