track,note,velocity,time
1,61,19,384
1,58,33,8
1,56,29,4
1,53,12,8
1,42,26,8
1,61,40,996
1,66,99,48
1,71,84,80
1,61,49,208
1,55,13,16
1,51,30,12
1,70,46,44
1,66,40,16
1,44,30,4
1,54,12,16
1,58,35,8
1,59,39,16
1,56,22,16
1,63,55,4
1,59,35,4
1,49,18,8
1,53,15,4
1,59,21,188
1,62,39,4
1,56,18,0
1,49,30,4
1,61,30,428
1,53,14,4
1,56,25,0
1,58,42,4
1,49,27,8
1,42,27,4
1,61,38,44
1,66,73,156
1,71,89,148
1,67,29,284
1,62,28,8
1,46,36,4
1,56,24,4
1,66,50,224
1,70,40,0
1,55,15,0
1,61,22,0
1,45,24,4
1,60,27,276
1,66,40,4
1,44,31,8
1,54,10,0
1,62,37,8
1,63,24,328
1,68,21,0
1,67,2,16
1,66,36,40
1,37,30,0
1,44,26,4
1,65,27,16
1,76,55,4
1,59,38,8
1,69,17,24
1,65,22,12
1,74,44,36
1,73,50,164
1,42,43,16
1,58,25,4
1,61,106,36
1,66,98,168
1,73,80,8
1,74,71,12
1,47,45,28
1,75,90,8
1,57,55,72
1,68,43,244
1,63,54,4
1,57,15,8
1,56,31,4
1,73,93,8
1,71,63,16
1,67,26,308
1,41,19,4
1,51,32,0
1,62,16,4
1,57,10,12
1,40,50,304
1,70,47,248
1,39,43,8
1,55,28,308
1,61,29,0
1,64,47,8
1,68,83,220
1,66,88,16
1,68,82,0
1,62,21,296
1,54,19,8
1,44,30,4
1,57,34,4
1,59,38,220
1,54,26,4
1,44,44,0
1,64,47,4
1,57,28,212
1,62,32,0
1,66,48,4
1,44,36,0
1,54,19,0
1,45,27,0
1,60,32,0
1,59,28,8
1,38,34,0
1,54,13,12
1,53,20,288
1,59,31,0
1,58,29,4
1,63,17,4
1,37,34,4
1,44,22,4
1,73,36,584
1,85,51,212
1,59,24,152
1,53,20,0
1,73,28,4
1,85,21,28
1,70,98,304
1,71,76,148
1,71,74,20
1,42,67,4
1,73,77,0
1,49,42,52
1,61,51,312
1,58,43,4
1,69,68,296
1,68,75,48
1,67,51,0
1,36,44,60
1,66,78,0
1,52,35,4
1,64,54,104
1,66,52,0
1,58,38,0
1,70,41,360
1,54,25,8
1,47,20,4
1,63,46,0
1,58,31,20
1,68,80,248
1,67,60,8
1,68,78,64
1,61,54,208
1,57,43,0
1,41,37,8
1,51,35,0
1,70,46,476
1,71,29,8
1,46,57,0
1,73,65,8
1,53,46,212
1,56,62,160
1,68,65,136
1,63,63,0
1,60,59,8
1,61,61,176
1,73,100,116
1,47,49,4
1,51,58,196
1,56,60,88
1,61,52,156
1,68,55,0
1,57,45,4
1,70,52,216
1,71,26,4
1,46,47,20
1,73,57,20
1,56,57,148
1,76,83,264
1,64,76,4
1,68,86,4
1,63,78,292
1,78,86,0
1,71,67,8
1,61,61,4
1,67,46,16
1,76,69,0
1,73,77,4
1,69,58,12
1,75,68,16
1,71,47,4
1,66,56,0
1,69,40,184
1,73,56,0
1,64,52,4
1,44,36,168
1,70,43,4
1,54,36,12
1,66,30,4
1,59,37,4
1,75,46,4
1,71,30,4
1,68,106,328
1,68,85,8
1,41,38,4
1,61,56,200
1,57,44,4
1,51,33,8
1,68,31,216
1,69,9,68
1,70,64,24
1,40,44,28
1,71,41,12
1,56,28,0
1,83,42,276
1,78,50,4
1,61,32,0
1,66,15,12
1,62,34,8
1,71,29,0
1,55,29,184
1,70,35,52
1,61,25,8
1,64,30,12
1,73,23,28
1,76,17,36
1,82,55,4
1,71,94,420
1,44,38,40
1,59,42,8
1,54,58,0
1,75,103,12
1,77,82,56
1,78,90,40
1,77,86,68
1,75,77,376
1,63,33,8
1,59,44,8
1,58,54,4
1,61,41,264
1,69,30,0
1,73,52,0
1,55,31,0
1,64,31,4
1,71,30,296
1,70,67,0
1,44,40,20
1,54,6,12
1,71,42,0
1,68,48,12
1,59,20,56
1,61,50,40
1,53,36,4
1,59,22,8
1,62,21,4
1,65,38,0
1,67,45,0
1,71,66,164
1,67,42,132
1,74,48,0
1,79,62,116
1,83,55,152
1,42,42,104
1,82,37,0
1,58,20,0
1,49,73,4
1,61,112,276
1,66,75,4
1,57,58,0
1,62,62,0
1,58,73,0
1,52,52,4
1,48,38,0
1,71,73,204
1,57,53,0
1,67,66,4
1,62,56,0
1,56,41,36
1,46,53,0
1,66,58,172
1,70,54,8
1,61,43,0
1,55,24,0
1,45,25,0
1,65,40,292
1,68,38,192
1,44,46,12
1,60,39,0
1,58,98,80
1,59,57,24
1,63,73,40
1,66,95,20
1,65,67,12
1,49,38,164
1,56,45,36
1,59,36,212
1,63,42,4
1,44,38,12
1,59,31,132
1,62,48,4
1,61,35,232
1,58,39,4
1,49,24,4
1,56,27,8
1,42,28,4
1,61,101,100
1,66,103,40
1,71,83,28
1,39,47,40
1,61,53,172
1,64,64,4
1,55,21,8
1,70,69,44
1,66,69,328
1,64,32,208
1,60,28,0
1,38,32,0
1,57,26,4
1,54,40,348
1,57,91,148
1,45,72,116
1,66,106,36
1,68,99,124
1,37,65,4
1,44,81,108
1,56,68,4
1,59,70,52
1,53,65,0
1,63,84,12
1,49,80,188
1,61,59,236
1,56,47,4
1,53,38,4
1,58,71,0
1,42,45,4
1,49,35,0
1,61,105,340
1,73,107,4
1,49,88,48
1,66,100,112
1,78,109,0
1,87,98,248
1,82,98,12
1,75,98,4
1,47,57,0
1,51,77,132
1,57,57,148
1,61,96,4
1,63,93,156
1,65,76,16
1,68,71,76
1,56,46,4
1,62,52,0
1,59,47,4
1,46,46,4
1,82,108,548
1,70,107,0
1,68,73,116
1,80,84,0
1,39,45,68
1,55,45,8
1,78,62,16
1,66,64,4
1,79,58,8
1,67,51,0
1,70,58,120
1,82,51,4
1,75,64,156
1,87,68,8
1,73,40,124
1,85,62,28
1,75,47,148
1,87,54,20
1,44,33,228
1,59,24,0
1,71,38,8
1,83,32,20
1,82,30,112
1,83,32,8
1,80,61,32
1,63,13,76
1,59,29,0
1,58,47,4
1,75,106,244
1,71,55,136
1,68,70,60
1,63,79,48
1,67,58,8
1,56,42,0
1,68,41,68
1,67,45,72
1,63,52,48
1,66,68,44
1,68,41,4
1,66,53,64
1,63,57,4
1,59,21,32
1,49,40,0
1,65,49,0
1,61,49,196
1,73,43,12
1,53,33,8
1,63,64,192
1,63,38,144
1,59,38,0
1,37,52,12
1,62,47,108
1,53,27,0
1,61,52,16
1,70,94,120
1,71,90,80
1,71,86,0
1,42,73,20
1,73,91,40
1,49,75,84
1,58,69,284
1,61,108,28
1,49,81,128
1,63,95,64
1,65,84,64
1,66,97,88
1,36,64,0
1,43,70,144
1,52,64,8
1,54,66,80
1,58,85,104
1,55,56,4
1,62,73,0
1,66,99,160
1,77,82,4
1,73,93,4
1,47,69,8
1,68,96,0
1,58,73,112
1,66,94,216
1,63,83,0
1,70,93,4
1,75,93,0
1,59,78,0
1,75,93,256
1,67,77,8
1,70,87,0
1,58,91,4
1,63,97,4
1,62,47,240
1,61,72,4
1,60,69,36
1,58,96,56
1,63,106,24
1,59,60,4
1,57,74,4
1,66,68,192
1,69,66,0
1,74,73,4
1,75,67,168
1,68,64,8
1,46,37,4
1,61,59,8
1,53,36,136
1,61,78,224
1,60,39,0
1,68,92,84
1,53,57,124
1,75,103,68
1,64,67,84
1,51,72,4
1,69,63,32
1,73,78,28
1,55,46,80
1,59,57,324
1,78,111,212
1,70,88,16
1,44,34,8
1,54,45,0
1,59,19,4
1,71,82,36
1,61,57,80
1,44,29,100
1,45,18,4
1,46,64,28
1,47,51,4
1,62,46,8
1,66,63,0
1,57,50,4
1,56,44,296
1,40,39,8
1,61,38,396
1,49,27,4
1,56,27,0
1,58,49,0
1,53,14,4
1,42,39,0
1,45,11,144
1,46,73,4
1,66,78,4
1,61,81,0
1,47,57,4
1,57,64,0
1,71,74,8
1,40,48,4
1,66,52,192
1,62,43,8
1,56,49,0
1,70,57,184
1,39,33,4
1,61,43,172
1,55,38,4
1,64,50,0
1,66,75,12
1,38,43,512
1,45,32,44
1,54,46,48
1,64,46,8
1,60,38,4
1,68,47,32
1,37,46,12
1,59,42,32
1,53,38,4
1,64,26,20
1,68,56,32
1,43,30,12
1,70,23,256
1,69,56,28
1,68,59,16
1,67,38,8
1,42,43,32
1,58,20,12
1,66,63,8
1,70,61,148
1,68,70,20
1,66,67,52
1,65,71,16
1,58,54,12
1,61,35,4
1,56,54,0
1,63,24,0
1,66,77,24
1,70,81,64
1,73,86,52
1,77,93,108
1,80,106,180
1,47,48,4
1,78,99,56
1,58,59,8
1,73,104,20
1,54,47,4
1,71,73,132
1,46,57,12
1,70,75,0
1,56,42,4
1,71,65,4
1,73,95,12
1,75,98,16
1,73,87,16
1,55,36,4
1,51,57,4
1,75,58,8
1,73,62,28
1,69,78,36
1,64,53,20
1,62,58,88
1,63,76,4
1,44,42,12
1,54,14,4
1,58,37,24
1,59,40,20
1,63,69,32
1,66,96,28
1,49,49,36
1,53,42,8
1,70,104,4
1,67,39,324
1,68,59,0
1,42,38,4
1,53,23,8
1,58,50,168
1,63,56,0
1,63,40,372
1,58,34,8
1,49,48,40
1,39,36,364
1,46,48,4
1,73,92,316
1,66,56,84
1,55,48,4
1,78,114,4
1,61,67,0
1,76,92,8
1,73,106,12
1,71,86,56
1,70,86,24
1,59,45,0
1,54,37,0
1,63,30,4
1,58,47,4
1,73,90,20
1,73,97,88
1,63,57,164
1,66,53,76
1,66,61,132
1,68,55,136
1,67,34,44
1,66,42,16
1,59,12,4
1,53,30,16
1,49,27,4
1,65,33,4
1,56,48,132
1,61,23,360
1,46,39,4
1,56,36,8
1,63,78,12
1,64,22,88
1,68,78,32
1,73,109,36
1,61,32,8
1,55,47,8
1,51,54,0
1,75,113,0
1,73,56,8
1,75,100,44
1,58,53,184
1,73,60,248
1,44,47,4
1,71,49,0
1,54,19,8
1,51,46,0
1,67,20,148
1,68,56,28
1,69,24,32
1,70,67,16
1,71,50,20
1,59,22,8
1,49,30,8
1,53,33,4
1,68,63,4
1,70,45,284
1,42,40,0
1,58,20,8
1,80,54,0
1,56,20,416
1,61,22,4
1,58,29,4
1,65,8,12
1,78,110,44
1,77,77,40
1,51,41,8
1,41,35,0
1,57,35,8
1,78,96,0
1,80,98,180
1,57,36,496
1,51,43,0
1,78,55,84
1,56,40,172
1,40,22,12
1,74,42,4
1,56,30,232
1,62,25,4
1,61,25,4
1,74,38,152
1,75,38,60
1,76,51,28
1,77,66,8
1,75,73,40
1,46,38,0
1,39,34,4
1,71,106,36
1,61,45,12
1,55,39,0
1,67,71,4
1,64,67,152
1,63,34,0
1,60,35,0
1,54,21,16
1,44,36,4
1,68,56,48
1,60,24,256
1,54,20,4
1,70,48,4
1,72,59,28
1,54,41,148
1,66,57,48
1,60,50,20
1,70,67,0
1,74,60,32
1,66,49,128
1,70,53,28
1,72,55,8
1,62,41,8
1,76,62,8
1,64,49,0
1,78,79,8
1,66,53,236
1,80,61,4
1,71,25,224
1,74,35,12
1,77,41,12
1,65,5,12
1,82,63,12
1,61,2,8
1,37,41,144
1,67,83,156
1,68,99,196
1,62,39,52
1,67,52,24
1,58,57,12
1,70,91,4
1,71,93,184
1,73,72,12
1,69,55,0
1,59,17,8
1,64,57,8
1,53,32,4
1,49,24,4
1,74,53,96
1,73,36,240
1,70,42,0
1,68,24,8
1,58,19,0
1,49,40,4
1,42,11,0
1,65,30,0
1,49,58,12
1,42,75,152
1,70,56,132
1,73,58,48
1,77,61,8
1,80,101,20
1,82,107,36
1,58,56,176
1,48,68,8
1,80,114,88
1,78,110,48
1,74,85,52
1,58,56,4
1,56,61,0
1,52,53,4
1,70,87,88
1,66,84,12
1,68,78,16
1,63,75,0
1,58,45,4
1,47,48,8
1,73,73,164
1,70,85,124
1,61,87,0
1,54,73,36
1,41,36,268
1,57,46,40
1,51,45,20
1,61,61,0
1,68,60,32
1,73,115,128
1,72,103,36
1,73,106,32
1,46,62,12
1,61,44,0
1,71,85,8
1,56,57,0
1,72,93,44
1,68,80,244
1,65,73,176
1,53,64,320
1,47,59,232
1,57,46,56
1,59,55,96
1,61,73,8
1,63,92,12
1,65,77,44
1,66,95,0
1,68,85,20
1,69,72,40
1,73,92,104
1,75,88,0
1,80,92,32
1,76,77,40
1,77,84,4
1,72,49,36
1,75,101,36
1,73,102,20
1,46,75,100
1,56,69,116
1,61,67,12
1,63,66,16
1,64,63,4
1,68,77,28
1,73,87,12
1,75,87,20
1,61,43,24
1,55,57,12
1,51,60,0
1,78,109,16
1,79,95,40
1,78,91,16
1,76,97,24
1,75,95,4
1,73,96,8
1,58,78,32
1,69,77,0
1,64,72,56
1,63,83,36
1,54,44,0
1,44,58,8
1,51,52,24
1,59,26,72
1,61,72,0
1,63,83,80
1,65,85,0
1,66,86,40
1,68,79,52
1,70,81,8
1,72,71,12
1,73,90,80
1,75,86,72
1,77,77,68
1,78,93,64
1,57,42,20
1,41,42,8
1,80,90,24
1,78,94,20
1,77,74,4
1,75,87,20
1,73,80,0
1,69,57,16
1,68,78,4
1,66,81,80
1,65,47,20
1,64,69,8
1,63,76,8
1,61,80,4
1,40,58,8
1,62,64,24
1,66,73,80
1,70,84,0
1,73,103,4
1,56,63,4
1,70,87,80
1,66,85,60
1,62,68,12
1,61,71,16
1,59,52,84
1,62,73,16
1,61,72,68
1,64,85,28
1,62,67,4
1,66,68,76
1,64,31,12
1,67,86,16
1,39,66,0
1,64,50,88
1,69,77,12
1,67,49,0
1,71,91,16
1,46,74,100
1,66,71,56
1,67,47,8
1,71,46,32
1,73,78,8
1,75,47,4
1,78,84,36
1,61,78,12
1,55,30,16
1,75,70,16
1,73,85,12
1,71,58,4
1,67,55,12
1,63,74,36
1,62,68,52
1,54,47,20
1,44,62,4
1,61,77,0
1,59,59,476
1,54,59,0
1,58,76,0
1,63,52,48
1,66,65,48
1,68,76,28
1,70,99,28
1,66,59,8
1,61,63,4
1,73,99,0
1,55,45,12
1,59,54,0
1,78,100,148
1,82,98,12
1,85,105,68
1,73,99,4
1,82,95,36
1,78,81,56
1,73,93,72
1,70,83,108
1,66,76,48
1,63,62,4
1,54,44,4
1,44,58,4
1,54,61,364
1,59,56,4
1,45,34,4
1,38,41,0
1,64,51,0
1,60,30,24
1,59,47,460
1,44,37,0
1,37,52,4
1,53,36,4
1,76,24,336
1,73,69,12
1,69,38,60
1,43,31,24
1,64,43,0
1,53,16,0
1,61,34,308
1,42,38,4
1,56,19,0
1,49,34,4
1,58,34,0
1,53,13,4
1,73,119,296
1,78,112,44
1,49,88,100
1,78,111,56
1,83,87,12
1,39,81,4
1,55,62,108
1,61,75,144
1,64,79,204
1,82,107,180
1,55,68,96
1,82,91,76
1,81,46,108
1,80,80,20
1,54,52,28
1,78,75,8
1,44,66,4
1,51,92,124
1,59,80,288
1,58,82,0
1,63,84,4
1,54,75,0
1,59,79,12
1,58,85,0
1,66,92,0
1,51,81,4
1,59,67,8
1,56,75,0
1,62,76,4
1,65,77,0
1,37,80,8
1,44,96,164
1,71,94,272
1,74,95,0
1,65,100,4
1,59,81,0
1,68,101,0
1,53,82,96
1,73,86,260
1,61,78,0
1,68,77,0
1,70,87,0
1,65,75,4
1,42,75,4
1,58,68,0
1,49,89,56
1,58,99,300
1,90,107,44
1,78,106,4
1,85,107,0
1,95,97,224
1,86,101,0
1,56,97,4
1,46,96,0
1,83,86,4
1,94,95,244
1,85,91,4
1,82,83,0
1,45,72,0
1,55,62,0
1,83,57,280
1,90,75,0
1,44,60,4
1,78,68,0
1,54,39,4
1,38,73,320
1,45,64,36
1,64,76,16
1,54,59,4
1,60,79,0
1,71,81,52
1,37,69,164
1,59,58,12
1,53,40,16
1,63,74,4
1,70,78,20
1,43,35,188
1,53,46,12
1,59,42,0
1,64,51,12
1,69,70,24
1,42,53,4
1,58,63,8
1,53,43,4
1,63,58,8
1,68,66,16
1,73,112,216
1,58,59,248
