track,note,velocity,time
1,39,51,12
1,70,65,412
1,62,53,12
1,65,59,0
1,67,60,0
1,55,63,2
1,72,40,1114
1,70,76,22
1,70,61,10
1,61,51,0
1,56,42,2
1,65,62,0
1,46,46,10
1,63,64,146
1,45,54,18
1,69,64,118
1,63,57,12
1,60,44,0
1,55,59,0
1,68,63,54
1,69,69,32
1,65,68,10
1,70,64,2
1,60,53,0
1,54,58,0
1,69,62,0
1,50,56,12
1,62,54,330
1,53,35,12
1,58,40,2
1,43,44,0
1,64,36,202
1,65,69,200
1,62,66,10
1,67,60,0
1,43,54,12
1,58,50,0
1,62,65,42
1,53,68,10
1,64,63,52
1,65,70,206
1,69,76,10
1,62,74,2
1,58,60,0
1,67,66,2
1,58,49,8
1,70,61,2
1,64,57,0
1,52,56,0
1,42,57,16
1,69,70,12
1,41,49,108
1,72,28,2
1,48,51,0
1,60,42,12
1,67,62,0
1,65,64,230
1,50,56,24
1,64,63,10
1,52,54,0
1,62,63,64
1,53,53,12
1,62,74,20
1,69,59,0
1,58,48,2
1,43,56,10
1,62,79,12
1,53,69,0
1,64,71,92
1,65,79,206
1,58,63,10
1,69,77,2
1,67,79,126
1,70,79,196
1,69,76,32
1,50,64,200
1,74,73,12
1,68,40,426
1,60,32,0
1,56,35,0
1,65,41,14
1,43,73,48
1,53,64,180
1,74,73,2
1,68,74,10
1,65,63,0
1,59,59,0
1,68,60,50
1,73,76,2
1,74,76,40
1,75,84,100
1,74,76,130
1,48,56,188
1,74,63,2
1,63,53,8
1,67,66,0
1,67,73,20
1,58,49,12
1,48,64,40
1,58,64,160
1,72,38,12
1,63,46,0
1,66,65,0
1,71,68,72
1,72,44,60
1,68,65,18
1,73,58,12
1,57,43,0
1,41,40,2
1,63,40,0
1,72,50,80
1,65,60,250
1,61,38,0
1,56,40,10
1,46,35,14
1,46,64,270
1,70,73,212
1,56,68,0
1,65,71,12
1,61,64,2
1,69,77,52
1,70,84,104
1,40,63,18
1,71,71,12
1,66,68,0
1,62,63,0
1,56,57,184
1,70,61,2
1,39,44,38
1,54,49,2
1,70,64,0
1,61,28,12
1,66,53,0
1,58,64,102
1,54,50,12
1,63,65,0
1,73,23,400
1,87,29,12
1,78,48,0
1,61,27,0
1,58,53,2
1,82,42,10
1,51,63,1166
1,63,64,10
1,58,64,196
1,62,65,10
1,63,80,22
1,65,80,32
1,66,80,12
1,61,51,0
1,65,60,22
1,66,68,12
1,68,61,22
1,60,44,200
1,69,53,2
1,64,60,0
1,50,58,10
1,54,53,54
1,64,53,200
1,69,64,40
1,37,33,230
1,59,49,42
1,63,53,22
1,53,44,2
1,67,35,12
1,70,68,64
1,82,27,414
1,94,47,32
1,36,38,0
1,43,38,0
1,52,40,12
1,69,46,0
1,71,46,2
1,74,47,20
1,76,42,8
1,79,64,20
1,45,50,332
1,60,35,16
1,64,47,10
1,55,35,0
1,69,55,20
1,67,52,0
1,72,48,10
1,44,49,324
1,72,36,0
1,70,51,10
1,60,36,0
1,54,36,2
1,66,57,10
1,74,62,236
1,70,57,112
1,66,61,0
1,60,42,0
1,69,54,56
1,60,32,10
1,65,58,0
1,43,38,10
1,53,50,0
1,36,57,324
1,64,59,24
1,55,49,0
1,59,55,2
1,62,65,0
1,43,46,100
1,52,61,126
1,64,74,24
1,45,54,124
1,55,63,0
1,60,64,2
1,64,74,0
1,44,46,132
1,53,50,16
1,59,54,0
1,65,55,2
1,62,56,0
1,65,55,14
1,58,38,0
1,62,56,10
1,55,39,0
1,43,42,0
1,53,44,10
1,58,50,126
1,67,68,110
1,65,56,164
1,58,43,0
1,55,45,0
1,67,51,10
1,48,33,2
1,36,44,0
1,62,53,0
1,69,53,14
1,41,55,2
1,64,56,8
1,60,53,0
1,55,44,12
1,48,41,8
1,57,64,0
1,69,77,124
1,60,55,2
1,72,64,48
1,64,70,2
1,81,82,0
1,69,71,8
1,60,51,126
1,57,60,188
1,74,63,140
1,74,64,140
1,56,42,0
1,67,65,8
1,46,53,0
1,62,56,0
1,76,60,82
1,56,56,152
1,74,40,166
1,67,55,2
1,70,51,0
1,64,50,0
1,58,61,8
1,52,56,0
1,58,51,242
1,64,53,0
1,61,53,0
1,55,45,12
1,45,49,0
1,52,53,0
1,65,55,8
1,62,53,10
1,57,41,0
1,38,48,0
1,60,42,0
1,53,30,10
1,53,56,212
1,77,73,178
1,50,54,78
1,58,57,0
1,61,48,2
1,77,63,0
1,73,61,12
1,70,64,0
1,65,53,0
1,58,53,34
1,79,73,30
1,79,54,148
1,72,39,0
1,74,52,0
1,67,49,14
1,57,37,0
1,50,48,0
1,60,44,0
1,65,36,2
1,60,45,58
1,81,74,32
1,60,39,180
1,81,53,2
1,75,53,0
1,78,58,0
1,72,32,0
1,51,50,0
1,69,44,0
1,57,41,0
1,57,49,64
1,36,46,324
1,71,58,0
1,67,58,10
1,64,46,0
1,52,42,0
1,62,40,0
1,52,44,18
1,72,66,16
1,72,47,140
1,69,53,8
1,60,47,0
1,41,31,10
1,64,56,0
1,48,31,0
1,67,62,0
1,57,16,12
1,57,42,66
1,69,77,46
1,47,59,158
1,57,54,2
1,71,77,6
1,62,70,2
1,65,76,0
1,57,45,76
1,72,61,0
1,72,40,72
1,65,56,10
1,56,51,0
1,62,52,8
1,68,61,224
1,71,58,0
1,59,45,8
1,64,58,0
1,44,42,0
1,52,49,2
1,72,38,218
1,60,34,8
1,67,49,0
1,64,46,0
1,52,43,0
1,45,40,14
1,60,42,18
1,69,56,0
1,64,46,302
1,60,49,0
1,56,35,10
1,53,39,0
1,44,44,2
1,62,66,16
1,60,48,126
1,52,39,8
1,57,51,0
1,43,34,8
1,55,48,2
1,60,38,302
1,42,49,0
1,50,46,0
1,64,47,0
1,57,35,10
1,45,46,276
1,55,64,18
1,60,46,16
1,64,53,8
1,67,71,16
1,72,55,12
1,69,66,0
1,60,51,162
1,74,84,66
1,60,62,168
1,67,65,0
1,74,64,0
1,71,60,0
1,64,52,10
1,55,55,42
1,72,53,0
1,72,40,94
1,68,51,10
1,65,55,0
1,50,44,0
1,54,42,8
1,60,37,0
1,42,17,260
1,57,30,10
1,50,36,10
1,64,29,0
1,66,42,0
1,69,55,12
1,74,64,10
1,57,46,94
1,72,45,0
1,44,46,22
1,70,51,10
1,74,55,0
1,65,53,10
1,60,40,0
1,54,43,0
1,82,47,262
1,77,53,10
1,86,34,0
1,74,40,0
1,60,56,2
1,77,31,328
1,86,43,0
1,65,53,0
1,82,46,0
1,60,53,72
1,70,61,72
1,74,60,0
1,65,53,0
1,72,32,8
1,76,39,8
1,69,47,0
1,60,53,0
1,65,41,10
1,50,53,0
1,79,68,18
1,76,47,8
1,69,46,0
1,72,39,2
1,60,62,108
1,76,48,48
1,72,35,8
1,69,53,2
1,65,43,8
1,75,53,188
1,53,49,8
1,70,57,0
1,67,53,0
1,43,39,12
1,63,27,0
1,53,55,182
1,70,61,32
1,67,57,8
1,63,53,10
1,58,40,2
1,64,44,6
1,36,52,2
1,62,53,8
1,52,46,0
1,67,49,0
1,59,46,0
1,55,21,14
1,55,56,232
1,76,39,342
1,60,50,0
1,74,62,0
1,72,45,2
1,55,53,0
1,79,66,0
1,67,61,0
1,45,44,14
1,55,40,112
1,72,52,152
1,44,50,56
1,70,61,0
1,72,37,0
1,66,53,10
1,54,35,0
1,60,39,0
1,74,53,0
1,69,40,298
1,65,45,8
1,53,44,0
1,60,35,0
1,43,35,0
1,53,54,16
1,36,36,254
1,55,38,8
1,59,43,20
1,52,46,8
1,64,61,8
1,62,51,0
1,52,35,216
1,55,55,202
1,64,63,0
1,60,61,0
1,52,54,0
1,45,52,8
1,65,64,192
1,59,65,8
1,44,58,2
1,62,70,0
1,53,53,0
1,65,68,218
1,58,57,0
1,43,58,10
1,55,56,0
1,62,71,0
1,53,64,10
1,67,74,32
1,67,62,164
1,36,49,0
1,58,50,0
1,55,50,8
1,62,58,2
1,61,61,218
1,58,63,8
1,48,52,10
1,69,54,16
1,64,53,8
1,41,55,0
1,60,49,2
1,57,48,8
1,48,46,10
1,57,63,112
1,69,76,132
1,60,39,10
1,81,74,18
1,72,53,0
1,64,61,8
1,69,68,0
1,60,46,32
1,57,57,222
1,74,69,10
1,53,52,0
1,74,63,132
1,56,34,8
1,62,53,2
1,67,64,0
1,46,47,10
1,76,51,90
1,56,51,0
1,74,37,164
1,52,53,2
1,70,53,10
1,67,56,0
1,64,49,2
1,58,48,0
1,73,49,182
1,61,51,10
1,70,53,0
1,55,54,0
1,67,53,12
1,64,36,0
1,77,60,202
1,69,53,0
1,74,49,2
1,65,44,8
1,72,40,0
1,50,60,0
1,57,51,196
1,65,65,78
1,56,50,172
1,65,65,0
1,61,68,2
1,51,51,8
1,67,62,8
1,67,53,140
1,60,40,8
1,38,45,0
1,64,53,0
1,57,47,0
1,53,35,10
1,69,69,16
1,69,46,138
1,60,33,10
1,66,48,0
1,63,44,0
1,39,38,12
1,57,23,0
1,54,34,0
1,54,27,28
1,71,52,14
1,67,45,0
1,59,40,0
1,52,42,10
1,62,48,0
1,64,47,0
1,36,33,0
1,55,60,102
1,72,61,146
1,72,47,138
1,48,47,8
1,41,36,0
1,60,50,2
1,64,61,0
1,57,34,0
1,69,58,0
1,67,63,2
1,57,62,114
1,71,80,40
1,57,56,124
1,52,59,0
1,71,74,0
1,66,76,10
1,62,65,0
1,72,56,18
1,57,62,0
1,72,40,258
1,56,53,8
1,65,61,0
1,62,49,10
1,59,52,264
1,68,63,0
1,71,64,0
1,64,62,0
1,44,46,2
1,52,51,12
1,72,38,8
1,60,27,8
1,69,44,2
1,64,46,0
1,67,51,0
1,52,46,0
1,45,41,0
1,60,53,24
1,74,63,72
1,71,64,142
1,56,63,8
1,64,54,0
1,68,63,0
1,69,59,180
1,72,40,0
1,55,54,8
1,64,46,0
1,76,41,232
1,72,33,0
1,69,51,2
1,57,33,8
1,42,51,0
1,64,41,0
1,60,55,40
1,60,53,274
1,72,36,0
1,53,46,2
1,65,53,10
1,68,49,0
1,56,42,0
1,48,62,270
1,72,46,0
1,64,62,10
1,67,74,0
1,76,63,48
1,67,80,10
1,55,63,0
1,72,56,0
1,64,76,10
1,69,65,156
1,65,66,10
1,45,56,0
1,61,42,2
1,55,62,0
1,65,71,26
1,43,54,326
1,60,52,10
1,53,49,0
1,57,58,0
1,55,48,150
1,74,74,316
1,69,66,2
1,60,55,8
1,65,71,0
1,57,63,0
1,72,50,114
1,71,69,38
1,72,46,148
1,60,44,18
1,63,56,0
1,51,56,0
1,44,53,2
1,58,40,0
1,56,47,194
1,68,69,0
1,61,63,326
1,65,63,0
1,57,53,0
1,51,53,2
1,41,46,10
1,51,54,48
1,60,70,40
1,61,73,16
1,46,60,0
1,56,61,0
1,72,53,254
1,61,42,306
1,56,61,0
1,70,60,2
1,65,61,8
1,67,65,48
1,68,65,178
1,60,47,8
1,44,43,0
1,58,43,0
1,51,64,106
1,56,57,10
1,63,80,8
1,68,76,26
1,51,69,8
1,51,13,22
1,70,64,8
1,67,64,8
1,41,63,0
1,58,40,0
1,63,65,0
1,72,47,18
1,51,76,0
1,75,74,24
1,56,60,0
1,72,50,10
1,63,70,124
1,79,69,8
1,77,66,8
1,72,44,0
1,50,66,10
1,69,55,2
1,57,57,8
1,65,65,16
1,69,63,2
1,62,49,8
1,60,61,0
1,59,23,186
1,53,50,8
1,43,44,2
1,64,56,10
1,71,74,2
1,68,64,0
1,59,54,122
1,72,46,54
1,74,64,16
1,76,49,26
1,36,57,0
1,71,53,0
1,67,58,0
1,52,48,8
1,64,26,12
1,59,65,262
1,74,53,0
1,79,57,0
1,71,60,2
1,76,28,10
1,67,39,0
1,72,27,328
1,45,45,8
1,67,45,0
1,69,33,0
1,62,28,10
1,55,48,0
1,64,39,10
1,60,53,216
1,82,69,202
1,82,57,6
1,58,53,0
1,65,54,2
1,72,49,0
1,84,64,10
1,78,64,0
1,60,52,0
1,54,51,0
1,60,58,50
1,53,52,16
1,86,50,8
1,59,53,0
1,74,44,0
1,81,56,2
1,77,46,8
1,43,34,2
1,53,53,88
1,36,57,302
1,52,45,8
1,55,55,0
1,59,63,0
1,62,69,0
1,52,66,106
1,60,77,32
1,62,62,16
1,55,76,8
1,64,77,2
1,60,76,0
1,52,57,0
1,45,54,12
1,59,63,180
1,65,61,0
1,44,56,0
1,62,65,10
1,53,54,0
1,65,60,6
1,43,54,10
1,58,53,0
1,62,61,0
1,55,47,0
1,53,53,2
1,67,66,16
1,67,59,302
1,36,53,0
1,58,54,0
1,62,63,10
1,53,50,0
1,48,47,84
1,41,60,8
1,69,65,26
1,64,65,0
1,60,63,0
1,55,51,12
1,48,63,24
1,57,79,0
1,60,64,124
1,69,84,8
1,76,53,26
1,69,74,0
1,81,76,0
1,72,54,2
1,64,70,8
1,60,68,108
1,57,76,174
1,76,59,8
1,75,84,86
1,53,54,10
1,74,65,140
1,69,65,8
1,47,65,10
1,62,56,0
1,66,60,0
1,57,61,10
1,76,59,0
1,62,61,18
1,57,64,32
1,73,53,166
1,70,63,0
1,64,50,10
1,55,63,2
1,67,62,0
1,61,61,108
1,76,50,78
1,73,57,0
1,67,60,12
1,70,58,0
1,64,47,0
1,38,62,102
1,77,66,8
1,72,43,10
1,74,62,0
1,65,47,0
1,69,61,0
1,45,53,90
1,53,74,16
1,65,62,10
1,69,62,0
1,57,76,156
1,77,80,16
1,58,53,38
1,50,55,2
1,61,61,0
1,77,65,10
1,70,69,0
1,73,69,0
1,65,65,12
1,58,65,76
1,79,68,8
1,79,62,142
1,74,57,0
1,72,42,0
1,50,54,0
1,57,51,0
1,60,42,12
1,67,46,0
1,57,56,138
1,81,71,24
1,39,65,124
1,75,63,8
1,78,68,0
1,81,73,2
1,72,45,8
1,69,55,0
1,48,57,10
1,60,49,176
1,63,61,2
1,54,53,0
1,57,39,0
1,69,74,0
1,57,56,8
1,71,74,126
1,36,63,0
1,59,64,10
1,67,65,2
1,64,65,0
1,62,69,0
1,52,63,50
1,72,63,126
1,51,47,162
1,72,40,2
1,57,47,8
1,67,62,0
1,41,44,0
1,60,40,2
1,63,51,0
1,57,48,84
1,69,74,10
1,71,54,40
1,47,53,8
1,65,55,2
1,57,49,0
1,62,52,0
1,72,55,8
1,72,39,266
1,68,56,8
1,56,53,12
1,64,55,0
1,71,55,232
1,52,56,8
1,68,60,0
1,44,53,0
1,59,51,10
1,64,54,0
1,72,39,8
1,67,55,8
1,52,55,0
1,45,43,2
1,60,42,0
1,64,57,0
1,60,59,80
1,74,64,86
1,56,54,170
1,71,64,2
1,68,63,0
1,64,48,10
1,69,57,56
1,72,39,8
1,64,47,0
1,55,61,10
1,76,40,254
1,72,33,0
1,42,65,2
1,69,53,8
1,64,37,2
1,57,51,62
1,69,53,142
1,64,64,8
1,60,46,8
1,72,55,24
1,68,58,174
1,62,63,8
1,65,64,0
1,56,53,10
1,41,56,0
1,60,62,112
1,68,65,112
1,65,60,6
1,62,46,10
1,67,64,8
1,60,53,8
1,64,63,2
1,43,49,0
1,55,58,12
1,55,61,136
1,64,80,78
1,55,74,78
1,76,71,12
1,67,86,8
1,72,60,24
1,60,73,8
1,64,71,0
1,67,79,0
1,64,76,2
1,65,77,26
1,50,66,0
1,57,62,24
1,69,58,192
1,74,56,2
1,65,63,0
1,60,60,12
1,57,53,112
1,69,56,180
1,72,40,0
1,43,64,2
1,65,61,8
1,60,46,0
1,53,61,290
1,71,64,16
1,72,40,132
1,44,50,8
1,51,53,0
1,63,54,2
1,58,51,0
1,60,40,8
1,68,79,0
1,51,60,20
1,61,58,256
1,65,64,0
1,51,50,10
1,57,40,0
1,41,48,2
1,51,63,104
1,60,60,8
1,61,73,8
1,46,56,8
1,56,53,10
1,70,79,278
1,68,64,292
1,51,53,10
1,39,53,0
1,56,33,10
1,65,51,2
1,61,43,0
1,51,44,148
1,67,76,0
1,44,68,156
1,68,79,8
1,60,60,0
1,51,80,144
