track,note,velocity,time
0,42,35,1
0,42,0,30
0,42,35,161
0,42,0,30
0,42,35,162
0,42,0,30
0,42,35,162
0,42,0,30
0,41,100,162
0,42,76,0
0,53,25,2
0,60,25,0
0,65,25,0
0,69,25,0
0,42,0,28
0,42,47,66
0,42,0,30
0,42,76,66
0,42,0,30
0,42,47,66
0,42,0,30
0,42,76,66
0,42,0,30
0,41,0,58
0,35,100,8
0,42,47,0
0,42,0,30
0,65,0,30
0,60,0,0
0,69,0,2
0,53,0,6
0,35,0,20
0,36,100,8
0,42,76,0
0,48,25,2
0,60,25,0
0,64,25,0
0,67,25,0
0,42,0,28
0,60,0,46
0,64,0,4
0,67,0,2
0,36,0,6
0,48,0,2
0,38,100,6
0,57,25,0
0,65,25,0
0,42,47,0
0,50,25,2
0,62,25,0
0,42,0,28
0,42,76,66
0,42,0,30
0,50,0,46
0,42,47,20
0,42,0,30
0,42,76,66
0,50,25,2
0,42,0,28
0,42,47,66
0,50,0,22
0,42,0,8
0,42,76,66
0,50,25,2
0,57,0,28
0,42,0,0
0,62,0,12
0,50,0,36
0,65,0,6
0,38,0,4
0,48,64,2
0,36,100,6
0,48,25,0
0,60,25,0
0,42,47,0
0,42,0,30
0,48,0,32
0,47,64,18
0,60,0,4
0,36,0,4
0,48,0,2
0,35,100,6
0,42,76,0
0,47,25,2
0,59,25,0
0,42,0,28
0,59,0,30
0,47,0,10
0,46,64,2
0,47,0,14
0,35,0,2
0,34,100,8
0,46,25,0
0,42,47,0
0,58,25,2
0,42,0,28
0,42,76,66
0,42,0,30
0,42,47,66
0,42,0,30
0,46,0,48
0,42,76,18
0,58,0,6
0,42,0,24
0,46,0,46
0,47,64,2
0,34,0,10
0,35,100,8
0,47,25,0
0,59,25,0
0,42,47,0
0,42,0,30
0,47,0,40
0,48,64,8
0,47,0,6
0,35,0,4
0,59,0,0
0,36,100,8
0,42,76,0
0,48,25,2
0,60,25,0
0,42,0,28
0,48,0,20
0,45,64,18
0,48,0,2
0,36,0,18
0,60,0,0
0,33,100,8
0,45,25,0
0,57,25,0
0,42,47,0
0,42,0,30
0,45,0,8
0,45,0,28
0,43,64,0
0,57,0,12
0,33,0,10
0,31,100,8
0,42,76,0
0,43,25,2
0,55,25,0
0,42,0,28
0,43,0,10
0,41,64,32
0,55,0,4
0,43,0,10
0,31,0,2
0,29,100,8
0,41,25,0
0,53,25,0
0,42,47,0
0,42,0,30
0,53,0,52
0,42,76,14
0,42,0,30
0,41,0,58
0,42,47,8
0,42,0,30
0,53,64,54
0,42,76,12
0,41,25,2
0,42,0,28
0,42,47,66
0,42,0,30
0,41,0,4
0,53,0,32
0,42,76,30
0,41,25,2
0,42,0,28
0,29,0,58
0,29,100,8
0,36,86,0
0,42,47,0
0,53,64,10
0,41,0,12
0,53,0,4
0,42,0,4
0,36,0,0
0,41,0,42
0,60,64,16
0,64,64,0
0,67,64,2
0,42,76,6
0,41,25,2
0,60,25,0
0,64,25,0
0,67,25,0
0,53,64,8
0,53,0,8
0,60,0,12
0,42,0,0
0,67,0,4
0,64,0,8
0,41,0,2
0,60,0,8
0,64,0,12
0,58,64,8
0,62,64,0
0,65,64,0
0,29,0,16
0,53,64,0
0,29,100,8
0,58,25,0
0,62,25,0
0,65,25,0
0,36,86,0
0,42,47,0
0,41,25,2
0,67,0,2
0,42,0,26
0,36,0,0
0,42,76,66
0,53,0,18
0,42,0,12
0,41,0,2
0,42,47,64
0,53,64,10
0,42,0,20
0,53,0,2
0,53,64,58
0,42,76,6
0,41,25,2
0,42,0,28
0,42,47,66
0,58,0,6
0,41,0,8
0,42,0,16
0,62,0,6
0,65,0,10
0,53,0,14
0,42,76,36
0,41,25,2
0,42,0,28
0,29,0,8
0,29,100,58
0,62,0,0
0,42,47,0
0,65,0,8
0,58,0,16
0,42,0,6
0,53,64,2
0,41,0,2
0,53,0,6
0,29,0,44
0,62,64,4
0,65,64,0
0,70,64,2
0,42,76,6
0,41,25,2
0,65,25,0
0,70,25,0
0,74,25,0
0,53,64,4
0,42,0,24
0,53,0,4
0,65,0,10
0,41,0,14
0,74,0,0
0,62,0,4
0,65,0,4
0,70,0,2
0,70,0,0
0,60,64,18
0,65,64,0
0,69,64,0
0,29,100,10
0,65,25,0
0,69,25,0
0,72,25,0
0,36,86,0
0,42,47,0
0,41,25,2
0,53,64,4
0,42,0,24
0,36,0,0
0,36,86,66
0,42,76,0
0,53,0,16
0,41,0,10
0,42,0,4
0,36,0,0
0,42,47,66
0,42,0,30
0,53,64,60
0,42,76,6
0,41,25,2
0,42,0,28
0,42,47,66
0,41,0,10
0,69,0,14
0,72,0,2
0,42,0,4
0,65,0,6
0,53,0,52
0,42,76,8
0,41,25,2
0,42,0,28
0,60,0,6
0,29,0,6
0,65,0,16
0,69,0,4
0,29,100,34
0,36,86,0
0,42,47,0
0,41,0,10
0,53,64,8
0,42,0,12
0,36,0,0
0,53,0,6
0,29,0,26
0,65,64,22
0,69,64,0
0,72,64,0
0,42,76,12
0,41,25,2
0,60,25,0
0,64,25,0
0,67,25,0
0,53,64,2
0,53,0,22
0,42,0,4
0,60,0,6
0,67,0,2
0,65,0,8
0,64,0,6
0,72,0,2
0,41,0,2
0,69,0,2
0,65,64,22
0,70,64,0
0,74,64,0
0,53,64,14
0,29,100,2
0,58,25,0
0,62,25,0
0,65,25,0
0,36,86,0
0,42,47,0
0,41,25,2
0,42,0,28
0,36,0,0
0,42,76,66
0,53,0,10
0,41,0,12
0,42,0,8
0,42,47,66
0,53,64,4
0,53,0,18
0,42,0,8
0,53,64,56
0,69,88,10
0,42,76,0
0,41,25,2
0,42,0,28
0,69,0,38
0,41,0,8
0,69,88,20
0,42,47,0
0,69,0,14
0,42,0,16
0,69,88,18
0,53,0,42
0,42,76,6
0,41,25,2
0,69,0,10
0,42,0,18
0,69,88,18
0,60,70,0
0,58,90,20
0,69,0,4
0,60,0,6
0,29,0,2
0,58,0,8
0,29,100,8
0,69,88,0
0,42,47,0
0,46,80,0
0,61,80,0
0,53,64,6
0,65,90,4
0,41,0,12
0,38,42,2
0,69,0,4
0,53,0,0
0,61,0,2
0,42,0,0
0,46,0,0
0,58,0,4
0,65,0,10
0,65,0,2
0,62,0,2
0,38,0,6
0,38,58,18
0,38,0,6
0,53,64,2
0,69,88,16
0,38,110,0
0,42,76,0
0,63,80,0
0,41,25,2
0,38,0,4
0,53,0,4
0,67,88,6
0,69,0,14
0,63,0,0
0,42,0,0
0,41,0,8
0,38,26,10
0,67,0,6
0,65,90,8
0,53,64,16
0,38,0,0
0,65,88,2
0,38,110,16
0,42,47,0
0,46,80,0
0,64,90,0
0,65,0,2
0,38,0,4
0,65,0,2
0,29,0,2
0,65,0,0
0,70,0,2
0,74,0,2
0,42,0,16
0,46,0,0
0,64,0,0
0,53,0,2
0,29,100,64
0,36,86,0
0,42,76,0
0,64,90,0
0,65,90,2
0,69,90,0
0,72,90,0
0,64,0,28
0,42,0,0
0,36,0,0
0,42,47,66
0,42,0,30
0,77,100,0
0,38,110,0
0,42,76,0
0,54,86,0
0,60,70,0
0,72,88,6
0,29,0,4
0,77,73,0
0,69,78,2
0,77,0,16
0,60,0,2
0,38,0,0
0,42,0,0
0,54,0,0
0,72,0,4
0,69,0,8
0,77,0,0
0,77,100,0
0,29,100,0
0,42,47,0
0,69,0,28
0,72,0,2
0,65,0,0
0,42,0,0
0,29,0,4
0,77,0,60
0,76,100,0
0,29,100,0
0,36,86,0
0,42,76,0
0,42,0,30
0,36,0,0
0,76,0,60
0,77,100,0
0,42,47,0
0,64,90,0
0,65,90,4
0,64,0,26
0,42,0,0
0,65,0,6
0,77,0,28
0,76,100,0
0,38,110,0
0,42,76,0
0,54,86,0
0,65,90,2
0,69,90,0
0,72,90,0
0,72,85,0
0,77,80,0
0,69,73,2
0,69,0,18
0,76,0,8
0,72,0,0
0,54,0,0
0,42,0,0
0,38,0,0
0,29,0,2
0,65,0,0
0,72,0,2
0,69,0,4
0,77,0,2
0,74,100,0
0,42,47,0
0,64,90,0
0,62,90,4
0,65,90,0
0,70,90,0
0,64,0,26
0,42,0,0
0,29,100,66
0,36,86,0
0,42,76,0
0,64,90,0
0,64,0,30
0,42,0,0
0,36,0,0
0,38,26,66
0,42,47,0
0,42,0,30
0,38,0,0
0,38,26,18
0,38,0,30
0,29,0,18
0,38,110,0
0,42,76,0
0,54,86,0
0,74,87,6
0,70,80,4
0,77,73,0
0,54,0,20
0,42,0,0
0,38,0,0
0,70,0,8
0,74,0,6
0,77,0,8
0,29,100,44
0,42,47,0
0,42,0,30
0,29,0,6
0,65,0,42
0,70,0,2
0,62,0,0
0,29,100,16
0,36,86,0
0,42,76,0
0,70,65,16
0,60,70,8
0,70,0,4
0,42,0,2
0,36,0,0
0,74,78,16
0,77,73,2
0,60,0,6
0,77,0,16
0,74,0,0
0,74,0,8
0,42,47,18
0,64,90,0
0,62,90,10
0,64,0,20
0,42,0,0
0,62,0,6
0,38,110,60
0,42,76,0
0,54,86,0
0,29,0,2
0,62,90,0
0,65,90,0
0,70,90,0
0,70,85,8
0,74,80,0
0,77,78,2
0,74,0,4
0,74,54,0
0,77,0,2
0,77,43,0
0,62,0,10
0,54,0,2
0,42,0,0
0,38,0,0
0,65,0,2
0,70,0,2
0,70,0,2
0,74,0,0
0,77,0,8
0,42,47,52
0,46,80,0
0,64,90,0
0,60,90,4
0,65,90,0
0,69,90,0
0,64,0,26
0,46,0,0
0,42,0,0
0,29,100,66
0,36,86,0
0,42,76,0
0,64,90,0
0,60,0,26
0,64,0,4
0,42,0,0
0,36,0,0
0,65,0,6
0,42,47,0
0,60,90,14
0,42,0,16
0,60,0,32
0,72,87,30
0,77,82,2
0,81,100,0
0,38,110,0
0,42,76,0
0,54,86,0
0,60,70,0
0,69,75,10
0,81,0,14
0,29,0,4
0,60,0,2
0,38,0,0
0,42,0,0
0,54,0,0
0,72,0,4
0,77,0,6
0,69,0,2
0,81,100,0
0,42,47,0
0,60,90,26
0,42,0,4
0,60,0,36
0,81,0,26
0,79,100,0
0,29,100,0
0,36,86,0
0,42,76,0
0,42,0,30
0,36,0,0
0,81,100,66
0,29,0,0
0,31,100,0
0,42,47,0
0,64,90,0
0,79,0,2
0,69,0,10
0,60,90,10
0,64,0,8
0,42,0,0
0,81,0,4
0,60,0,10
0,31,0,42
0,84,100,0
0,33,100,0
0,38,110,0
0,42,76,0
0,54,86,0
0,60,90,6
0,65,90,2
0,69,90,0
0,72,85,2
0,69,80,2
0,77,78,2
0,54,0,16
0,42,0,0
0,38,0,0
0,69,0,2
0,65,0,0
0,60,0,0
0,84,0,2
0,72,0,14
0,69,0,2
0,77,0,2
0,33,0,26
0,77,100,0
0,34,100,0
0,42,47,0
0,46,80,0
0,62,90,10
0,65,90,0
0,58,90,2
0,70,90,0
0,46,0,18
0,42,0,0
0,36,86,66
0,42,76,0
0,64,90,0
0,64,0,30
0,42,0,0
0,36,0,0
0,42,47,66
0,42,0,30
0,34,0,18
0,74,82,44
0,38,110,4
0,42,76,0
0,54,86,0
0,60,70,0
0,70,82,2
0,77,71,0
0,60,0,28
0,38,0,0
0,42,0,0
0,54,0,0
0,74,0,2
0,70,0,2
0,77,0,6
0,34,100,56
0,42,47,0
0,42,0,30
0,34,0,2
0,58,0,58
0,34,100,6
0,36,86,0
0,42,76,0
0,70,48,14
0,70,0,12
0,42,0,4
0,36,0,0
0,74,73,10
0,77,75,4
0,60,70,4
0,74,0,16
0,77,0,2
0,60,0,12
0,38,74,18
0,42,47,0
0,46,80,0
0,64,90,0
0,58,90,6
0,77,0,8
0,62,0,0
0,65,0,2
0,58,0,10
0,64,0,4
0,38,0,0
0,42,0,0
0,46,0,0
0,38,90,18
0,70,0,28
0,38,0,2
0,38,127,18
0,42,76,0
0,54,86,0
0,62,90,2
0,65,90,0
0,70,90,0
0,70,85,8
0,74,85,0
0,74,0,2
0,74,87,0
0,77,78,0
0,77,0,2
0,77,78,0
0,54,0,16
0,42,0,0
0,38,0,0
0,65,0,6
0,62,0,0
0,34,0,2
0,70,0,4
0,70,0,6
0,74,0,4
0,77,0,4
0,42,47,40
0,46,80,0
0,64,90,0
0,69,90,8
0,65,90,2
0,60,90,2
0,64,0,18
0,46,0,0
0,42,0,0
0,29,100,66
0,36,86,0
0,42,76,0
0,64,90,0
0,64,0,30
0,42,0,0
0,36,0,0
0,42,47,66
0,42,0,30
0,60,0,56
0,77,100,10
0,38,110,0
0,42,76,0
0,54,86,0
0,60,70,0
0,72,85,6
0,69,69,4
0,77,80,0
0,77,0,20
0,60,0,0
0,38,0,0
0,42,0,0
0,54,0,0
0,29,0,2
0,72,0,10
0,77,0,4
0,69,0,2
0,65,0,46
0,77,100,2
0,29,100,0
0,42,47,0
0,60,90,6
0,42,0,24
0,60,0,28
0,69,0,0
0,29,0,6
0,77,0,8
0,79,100,0
0,33,100,0
0,36,86,0
0,42,76,0
0,57,90,6
0,42,0,24
0,36,0,0
0,77,100,0
0,42,47,0
0,64,90,0
0,79,0,10
0,61,90,0
0,64,90,0
0,69,90,0
0,64,0,20
0,42,0,0
0,77,0,32
0,57,0,22
0,69,80,10
0,38,110,0
0,42,76,0
0,54,86,0
0,64,73,2
0,73,71,2
0,33,0,4
0,54,0,22
0,42,0,0
0,38,0,0
0,69,0,18
0,64,0,2
0,61,0,2
0,73,0,2
0,77,100,0
0,33,100,0
0,42,47,0
0,46,80,0
0,61,90,6
0,46,0,24
0,42,0,0
0,64,0,32
0,33,0,10
0,61,0,0
0,77,0,6
0,69,0,8
0,34,100,10
0,36,86,0
0,42,76,0
0,64,90,0
0,58,90,2
0,64,0,28
0,42,0,0
0,36,0,0
0,76,100,0
0,42,47,0
0,65,90,6
0,70,90,2
0,62,90,2
0,42,0,20
0,76,0,42
0,38,110,24
0,42,76,0
0,54,86,0
0,60,70,0
0,65,82,2
0,70,85,0
0,74,80,2
0,34,0,14
0,60,0,12
0,38,0,0
0,42,0,0
0,54,0,0
0,65,0,18
0,70,0,2
0,62,0,2
0,74,0,0
0,65,0,8
0,70,0,16
0,74,100,0
0,34,100,0
0,42,47,0
0,58,0,4
0,62,90,8
0,42,0,18
0,34,0,40
0,62,0,20
0,35,100,6
0,36,86,0
0,42,76,0
0,59,90,4
0,74,0,6
0,42,0,20
0,36,0,0
0,77,100,0
0,42,47,0
0,64,90,0
0,67,90,4
0,62,90,6
0,71,90,0
0,59,0,14
0,64,0,6
0,42,0,0
0,38,110,66
0,42,76,0
0,54,86,0
0,71,90,8
0,67,78,2
0,74,82,0
0,35,0,6
0,54,0,14
0,42,0,0
0,38,0,0
0,67,0,18
0,71,0,0
0,74,0,4
0,35,100,44
0,42,47,0
0,46,80,0
0,46,0,30
0,42,0,0
0,67,0,2
0,62,0,4
0,35,0,24
0,71,0,12
0,36,100,24
0,36,86,0
0,42,76,0
0,64,90,0
0,60,90,2
0,77,0,4
0,64,0,24
0,42,0,0
0,36,0,0
0,42,47,66
0,42,0,30
0,60,0,26
0,65,90,34
0,77,67,0
0,77,100,0
0,38,110,0
0,42,76,0
0,54,86,0
0,60,70,0
0,36,0,14
0,60,0,16
0,38,0,0
0,42,0,0
0,54,0,0
0,77,0,4
0,77,0,6
0,77,62,42
0,77,100,0
0,36,100,0
0,42,47,0
0,77,0,30
0,42,0,0
0,77,0,48
0,65,0,6
0,76,80,6
0,76,100,0
0,36,86,0
0,42,76,0
0,64,90,4
0,36,0,22
0,42,0,4
0,36,0,0
0,76,0,48
0,64,0,14
0,77,71,0
0,77,100,0
0,36,100,0
0,42,47,0
0,64,90,0
0,65,90,4
0,76,0,2
0,77,0,20
0,64,0,4
0,42,0,0
0,77,0,18
0,65,0,4
0,69,90,42
0,81,85,0
0,81,100,0
0,38,110,0
0,42,76,0
0,54,86,0
0,36,0,10
0,81,0,10
0,69,0,6
0,81,0,4
0,54,0,0
0,42,0,0
0,38,0,0
