track,note,velocity,time
1,74,108,19622
1,74,102,42
1,74,96,40
1,74,105,46
1,74,109,44
1,76,112,34
1,76,111,84
1,76,112,94
1,78,110,112
1,74,106,20
1,74,110,164
1,74,108,48
1,74,104,96
1,74,77,18
1,76,112,0
1,76,111,80
1,76,112,102
1,74,111,120
1,71,105,2
1,74,112,88
1,74,105,54
1,74,105,50
1,74,105,48
1,74,109,52
1,76,112,20
1,76,112,108
1,76,112,112
1,78,109,108
1,74,106,4
1,74,111,150
1,74,108,42
1,74,111,120
1,76,112,30
1,78,111,126
1,81,109,190
1,80,107,82
1,76,110,288
1,76,106,106
1,76,110,32
1,80,109,98
1,78,104,42
1,76,112,100
1,78,111,84
1,74,108,20
1,78,111,750
1,78,107,44
1,78,104,74
1,81,110,28
1,80,113,92
1,76,111,20
1,76,107,688
1,80,108,94
1,78,110,48
1,76,108,80
1,78,111,28
1,74,109,28
1,71,107,522
1,71,105,32
1,74,110,96
1,76,110,156
1,71,110,190
1,71,109,52
1,76,104,528
1,76,110,32
1,80,109,96
1,78,104,42
1,76,112,96
1,78,111,86
1,74,108,22
1,78,111,750
1,78,107,44
1,78,104,78
1,81,110,26
1,80,113,94
1,76,111,22
1,76,107,682
1,80,108,94
1,78,110,52
1,76,108,78
1,78,111,26
1,74,109,28
1,71,104,522
1,71,105,32
1,74,110,96
1,76,110,154
1,71,110,188
1,71,109,50
1,83,110,528
1,85,106,100
1,86,111,70
1,85,111,68
1,83,109,48
1,83,108,48
1,81,105,194
1,81,111,140
1,81,107,84
1,80,109,98
1,80,110,192
1,78,107,94
1,80,110,64
1,76,108,176
1,76,108,42
1,76,104,58
1,76,109,40
1,76,107,64
1,76,107,68
1,83,110,320
1,85,108,98
1,86,110,70
1,85,108,38
1,83,110,96
1,81,109,90
1,80,105,88
1,81,109,432
1,80,112,86
1,76,109,68
1,76,106,138
1,74,104,88
1,88,111,86
1,76,104,98
1,81,111,490
1,81,108,80
1,80,108,48
1,81,110,72
1,83,109,102
1,81,108,286
1,80,104,204
1,80,109,30
1,76,107,292
1,76,110,124
1,74,105,188
1,78,108,108
1,76,106,286
1,81,108,312
1,81,108,50
1,80,108,22
1,81,109,50
1,83,106,60
1,81,108,284
1,76,104,230
1,76,105,34
1,88,107,32
1,76,107,8
1,76,110,116
1,76,109,110
1,76,108,64
1,80,104,14
1,76,110,16
1,76,104,30
1,76,108,30
1,74,108,6
1,74,102,44
1,74,96,38
1,74,105,48
1,74,109,42
1,76,112,34
1,76,111,82
1,76,112,96
1,78,110,104
1,74,106,20
1,74,110,164
1,74,108,46
1,74,104,94
1,76,112,22
1,74,77,0
1,76,111,82
1,76,112,102
1,74,111,120
1,71,105,0
1,74,112,90
1,74,105,52
1,74,105,48
1,74,105,48
1,74,109,52
1,76,112,18
1,76,112,106
1,76,112,112
1,78,109,110
1,74,106,4
1,74,111,150
1,74,108,42
1,74,111,112
1,76,112,30
1,78,111,124
1,81,109,192
1,80,107,82
1,76,110,290
1,76,104,106
1,76,110,32
1,80,109,94
1,78,104,46
1,76,112,94
1,78,111,84
1,74,108,24
1,78,111,750
1,78,107,44
1,78,104,74
1,81,110,26
1,80,113,94
1,76,111,20
1,76,107,682
1,80,108,96
1,78,110,48
1,76,108,80
1,78,111,26
1,74,109,30
1,71,104,522
1,71,105,32
1,74,110,100
1,76,110,154
1,71,110,190
1,71,109,52
1,76,104,528
1,76,110,32
1,80,109,94
1,78,104,46
1,76,112,94
1,78,111,84
1,74,108,20
1,78,111,750
1,78,107,46
1,78,104,74
1,81,110,28
1,80,113,90
1,76,111,20
1,76,107,682
1,80,108,96
1,78,110,48
1,76,108,82
1,78,111,30
1,74,109,28
1,71,104,522
1,71,105,34
1,74,110,96
1,76,110,152
1,71,110,194
1,71,109,50
1,83,105,624
1,86,108,94
1,86,106,52
1,86,109,46
1,83,108,44
1,81,109,92
1,81,110,88
1,80,107,26
1,76,109,386
1,76,108,42
1,80,108,34
1,76,107,20
1,76,107,128
1,74,103,2
1,76,110,8
1,76,111,80
1,83,106,392
1,86,98,94
1,86,108,50
1,83,105,96
1,83,105,100
1,81,98,0
1,83,108,120
1,80,107,34
1,80,105,384
1,80,105,40
1,80,107,42
1,76,103,8
1,76,109,130
1,74,102,0
1,88,109,152
1,76,108,188
1,81,110,398
1,81,110,48
1,80,104,30
1,81,106,190
1,83,106,22
1,81,107,290
1,80,104,172
1,80,111,30
1,76,108,10
1,76,109,114
1,74,104,194
1,78,102,24
1,76,109,290
1,81,109,284
1,81,107,48
1,81,106,48
1,80,104,56
1,80,102,42
1,81,110,34
1,83,110,34
1,81,110,284
1,80,110,192
1,81,108,10
1,80,102,194
1,83,107,164
1,83,104,64
1,80,107,84
1,78,97,54
1,76,109,98
1,74,108,60
1,74,102,42
1,74,96,40
1,74,105,46
1,74,109,42
1,76,112,32
1,76,111,84
1,76,112,96
1,78,110,102
1,74,106,18
1,74,110,164
1,74,108,46
1,74,104,94
1,74,77,18
1,76,112,0
1,76,111,78
1,76,112,104
1,74,111,118
1,71,105,2
1,74,112,90
1,74,105,54
1,74,105,50
1,74,105,48
1,74,109,50
1,76,112,18
1,76,112,106
1,76,112,108
1,78,109,108
1,74,106,4
1,74,111,150
1,74,108,44
1,74,111,114
1,76,112,32
1,78,111,124
1,81,109,192
1,80,107,80
1,76,110,292
1,76,104,106
1,76,110,34
1,80,109,92
1,78,104,46
1,76,112,98
1,78,111,84
1,74,108,22
1,78,111,746
1,78,107,44
1,78,104,76
1,81,110,28
1,80,113,90
1,76,111,20
1,76,107,682
1,80,108,96
1,78,110,46
1,76,108,78
1,78,111,26
1,74,109,28
1,71,104,524
1,71,105,32
1,74,110,98
1,76,110,154
1,71,110,190
1,71,109,52
1,76,104,530
1,76,110,32
1,80,109,94
1,78,104,44
1,76,112,96
1,78,111,84
1,74,108,22
1,78,111,746
1,78,107,46
1,78,104,76
1,81,110,24
1,80,113,94
1,76,111,24
1,76,107,682
1,80,108,96
1,78,110,48
1,76,108,80
1,78,111,26
1,74,109,28
1,71,104,522
1,71,105,32
1,74,110,100
1,76,110,152
1,71,110,192
1,71,109,48
1,71,106,626
1,71,108,58
1,74,104,60
1,78,104,40
1,74,109,94
1,71,102,904
1,71,106,38
1,74,110,32
1,71,108,4
1,71,111,48
1,69,106,190
1,68,108,6
1,71,105,620
1,71,107,58
1,78,107,46
1,74,107,6
1,69,108,922
1,71,109,14
1,74,109,14
1,71,110,50
1,68,107,6
1,71,105,776
1,71,109,106
1,78,104,56
1,78,108,32
1,74,109,32
1,69,103,836
1,69,107,60
1,71,110,14
1,69,102,198
1,71,110,38
1,68,105,10
1,71,110,446
1,71,110,62
1,78,110,0
1,78,104,2
1,74,107,94
1,71,112,824
1,71,102,46
1,71,110,42
1,71,106,54
1,71,110,64
1,88,94,244
1,83,108,6508
1,85,111,96
1,86,111,78
1,85,102,270
1,83,105,56
1,81,108,96
1,81,110,100
1,80,104,46
1,78,104,308
1,81,110,52
1,80,107,14
1,76,108,192
1,76,109,112
1,74,104,10
1,76,110,12
1,74,110,80
1,83,106,294
1,85,105,96
1,86,110,18
1,85,104,288
1,83,107,122
1,81,110,92
1,81,110,110
1,80,104,46
1,78,107,308
1,81,108,42
1,80,108,12
1,76,109,194
1,76,107,120
1,74,102,32
1,88,111,48
1,76,107,106
1,81,108,380
1,81,108,44
1,80,103,44
1,81,108,36
1,83,108,46
1,81,108,6
1,80,104,138
1,80,112,4
1,76,108,288
1,76,108,98
1,74,102,188
1,78,103,62
1,76,109,286
1,81,109,314
1,81,108,60
1,80,104,20
1,81,109,22
1,83,106,54
1,81,106,286
1,76,108,86
1,76,109,48
1,88,111,96
1,76,107,88
1,76,110,56
1,76,108,150
1,76,108,64
1,76,106,16
1,76,104,188
1,88,108,36
1,76,108,92
1,74,108,48
1,74,102,42
1,74,96,40
1,74,105,46
1,74,109,42
1,76,112,34
1,76,111,82
1,76,112,98
1,78,110,104
1,74,106,18
1,74,110,164
1,74,108,46
1,74,104,96
1,74,77,16
1,76,112,0
1,76,111,82
1,76,112,102
1,74,111,120
1,71,105,0
1,74,112,88
1,74,105,54
1,74,105,48
1,74,105,50
1,74,109,50
1,76,112,18
1,76,112,104
1,76,112,112
1,78,109,108
1,74,106,4
1,74,111,148
1,74,108,40
1,74,111,112
1,76,112,30
1,78,111,126
1,81,109,190
1,80,107,82
1,76,110,286
1,76,104,106
1,76,110,32
1,80,109,94
1,78,104,46
1,76,112,94
1,78,111,84
1,74,108,20
1,78,111,748
1,78,107,46
1,78,104,74
1,81,110,26
1,80,113,92
1,76,111,20
1,76,107,682
1,80,108,96
1,78,110,52
1,76,108,78
1,78,111,28
1,74,109,28
1,71,104,522
1,71,105,34
1,74,110,96
1,76,110,154
1,71,110,190
1,71,109,52
1,76,104,530
1,76,110,32
1,80,109,94
1,78,104,46
1,76,112,96
1,78,111,86
1,74,108,20
1,78,111,746
1,78,107,44
1,78,104,74
1,81,110,24
1,80,113,94
1,76,111,20
1,76,107,684
1,80,108,94
1,78,110,48
1,76,108,76
1,78,111,26
1,74,109,28
1,71,104,522
1,71,105,34
1,74,110,98
1,76,110,152
1,71,110,192
1,71,109,52
1,71,106,624
1,71,108,56
1,74,104,56
1,78,104,188
1,74,109,74
1,71,102,902
1,71,106,38
1,74,110,18
1,71,108,10
1,71,111,48
1,69,106,2
1,68,108,20
1,71,105,620
1,71,107,56
1,78,107,24
1,74,107,286
1,69,108,822
1,71,109,98
1,74,109,80
1,74,105,50
1,71,110,98
1,68,107,178
1,71,105,678
1,71,109,106
1,78,104,40
1,78,108,38
1,74,109,32
1,69,103,836
1,69,107,62
1,71,110,16
1,69,102,196
1,71,110,38
1,68,105,98
1,71,110,446
1,71,110,58
1,78,110,0
1,78,104,196
1,74,107,95
1,71,112,824
1,71,102,48
1,71,110,42
1,71,106,56
1,71,110,64
1,88,97,246
1,83,107,18758
1,85,104,98
1,86,109,64
1,85,107,188
1,83,108,34
1,83,108,48
1,81,102,14
1,81,110,588
1,80,104,2
1,76,108,40
1,74,102,74
1,76,111,30
1,76,110,46
1,83,108,558
1,86,108,86
1,83,108,4
1,83,106,170
1,81,109,194
1,81,109,492
1,81,107,52
1,80,108,96
1,76,110,66
1,76,109,88
1,88,111,98
1,76,108,24
1,80,110,732
1,81,108,296
1,80,102,2
1,81,107,188
1,83,106,24
1,81,107,288
1,80,104,98
1,80,108,28
1,76,108,290
1,76,110,94
1,74,105,190
1,78,104,36
1,76,109,282
1,81,109,286
1,81,109,78
1,80,108,10
1,81,109,192
1,83,105,10
1,81,106,288
1,80,102,126
1,81,110,56
1,80,105,100
1,83,108,90
1,83,108,34
1,80,110,82
1,78,100,0
1,76,109,96
1,74,108,32
1,74,102,44
1,74,96,40
1,74,105,48
1,74,109,42
1,76,112,32
1,76,111,84
1,76,112,96
1,78,110,102
1,74,106,18
1,74,110,164
1,74,108,48
1,74,104,92
1,76,112,16
1,74,77,2
1,76,111,80
1,76,112,102
1,74,111,120
1,71,105,2
1,74,112,88
1,74,105,56
1,74,105,50
1,74,105,48
1,74,109,52
1,76,112,20
1,76,112,106
1,76,112,110
1,78,109,110
1,74,106,4
1,74,111,152
1,74,108,42
1,74,111,114
1,76,112,32
1,78,111,122
1,81,109,0
1,80,107,80
1,76,110,292
1,76,104,106
1,76,110,32
1,80,109,94
1,78,104,46
1,76,112,98
1,78,111,84
1,74,108,22
1,78,111,750
1,78,107,46
1,78,104,74
1,81,110,26
1,80,113,92
1,76,111,20
1,76,107,682
1,80,108,92
1,78,110,48
1,76,108,84
1,78,111,28
1,74,109,28
1,71,104,522
1,71,105,32
1,74,110,98
1,76,110,154
1,71,110,190
1,71,109,50
1,76,104,530
1,76,110,32
1,80,109,98
1,78,104,44
1,76,112,94
1,78,111,84
1,74,108,20
1,78,111,748
1,78,107,44
1,78,104,76
1,81,110,26
1,80,113,92
1,76,111,20
1,76,107,684
1,80,108,94
1,78,110,48
1,76,108,80
1,78,111,26
1,74,109,28
1,71,104,522
1,71,105,34
1,74,110,98
1,76,110,154
1,71,110,192
1,71,109,50
1,80,107,530
1,81,111,100
1,81,107,6
1,81,108,98
1,81,108,2
1,80,103,556
1,81,109,36
1,81,109,28
1,83,108,106
1,83,106,58
1,83,107,38
1,81,104,190
1,80,111,80
1,76,111,258
1,80,109,68
1,81,110,24
1,81,110,42
1,80,108,36
1,81,111,126
1,76,109,690
1,81,109,80
1,81,110,118
1,83,107,96
1,83,108,82
1,83,107,192
1,80,108,376
1,80,105,68
1,80,110,54
1,81,108,90
1,81,107,38
1,81,108,22
1,76,109,528
1,80,109,192
1,81,108,14
1,83,107,50
1,83,108,92
1,81,110,92
1,80,111,72
1,76,110,430
1,80,108,190
1,81,107,166
1,81,109,62
1,81,109,34
1,81,110,84
1,80,108,418
1,81,107,34
1,81,110,6
1,83,107,122
1,83,109,32
1,83,108,64
1,83,106,84
1,80,103,194
1,76,110,44
1,76,112,62
1,78,104,32
1,78,99,54
1,78,81,54
1,78,93,100
1,78,88,58
1,78,91,54
1,78,91,64
1,78,91,44
1,76,93,110
1,76,93,78
1,78,89,176
1,78,89,70
1,78,87,36
1,78,89,114
1,78,87,48
1,78,90,52
1,78,91,104
1,78,91,56
1,76,94,110
1,76,92,42
1,78,91,258
1,78,89,62
1,78,92,56
1,78,91,74
1,78,89,60
1,78,92,56
1,78,91,68
1,78,91,54
1,76,93,104
1,76,93,96
1,78,93,174
1,78,85,52
1,78,91,56
1,78,92,74
1,78,86,52
1,78,93,60
1,78,92,88
1,78,93,50
1,76,94,108
1,76,93,52
1,78,93,262
1,78,83,66
1,78,93,76
1,78,89,74
1,78,88,50
1,78,92,58
1,78,91,74
1,78,91,52
1,76,94,88
1,76,93,102
1,78,92,178
1,78,89,50
1,78,91,62
1,78,93,64
1,78,88,58
1,78,93,54
1,78,92,72
1,78,93,62
1,76,94,128
1,76,92,52
1,78,93,298
1,78,87,56
1,78,91,50
1,78,93,84
1,78,89,56
1,78,92,52
1,78,92,78
1,78,91,54
1,76,93,106
1,76,94,94
1,78,94,188
1,78,85,46
1,78,92,56
1,78,92,72
1,78,87,54
1,78,92,56
1,78,92,80
1,78,92,56
1,76,94,126
1,76,93,56
1,78,92,308
1,78,87,58
1,78,81,54
1,78,93,96
1,78,88,60
1,78,91,56
1,78,91,64
1,78,91,46
1,76,93,110
1,76,93,80
1,78,89,176
1,78,89,70
1,78,87,34
1,78,89,116
1,78,87,48
1,78,90,52
1,78,91,106
1,78,91,58
1,76,94,112
1,76,92,42
1,78,91,260
1,78,89,60
1,78,92,56
1,78,91,72
1,78,89,62
1,78,92,56
1,78,91,66
1,78,91,56
1,76,93,106
1,76,93,94
1,78,93,170
1,78,85,54
1,78,91,58
1,78,92,76
1,78,86,52
1,78,93,62
1,78,92,86
1,78,93,52
1,76,94,110
1,76,93,52
1,78,93,262
1,78,83,64
1,78,93,76
1,78,89,68
1,78,88,48
1,78,92,54
1,78,91,74
1,78,91,52
1,76,94,92
1,76,93,100
1,78,92,180
1,78,89,48
1,78,91,56
1,78,93,58
1,78,88,58
1,78,93,52
1,78,92,70
1,78,93,60
1,76,94,128
1,76,92,52
1,78,93,294
1,78,87,52
1,78,91,52
1,78,93,82
1,78,89,56
1,78,92,46
1,78,92,74
1,78,91,52
1,76,93,104
1,76,94,92
1,78,94,186
1,78,85,46
1,78,92,56
1,78,92,66
1,78,87,52
1,78,92,52
1,78,92,76
1,78,92,54
1,76,94,128
1,76,93,58
1,78,92,306
1,78,87,52
1,78,81,52
1,78,93,96
1,78,88,58
1,78,91,56
1,78,91,66
1,78,91,46
1,76,93,106
1,76,93,76
1,78,89,174
1,78,89,68
1,78,87,30
1,78,89,110
1,78,87,46
1,78,90,52
1,78,91,102
1,78,91,56
1,76,94,110
1,76,92,42
1,78,91,258
1,78,89,62
1,78,92,58
1,78,91,70
1,78,89,60
1,78,92,56
