track,note,velocity,time
0,60,24,750
0,60,0,14
0,36,125,24
0,42,99,0
0,42,0,4
0,36,0,0
0,42,74,92
0,42,0,4
0,40,118,92
0,42,89,0
0,42,0,4
0,40,0,0
0,42,74,92
0,42,0,4
0,36,125,92
0,42,99,0
0,42,0,4
0,36,0,0
0,42,74,92
0,42,0,4
0,40,118,92
0,42,94,0
0,42,0,4
0,40,0,0
0,42,74,92
0,42,0,4
0,36,125,92
0,42,99,0
0,42,0,4
0,36,0,0
0,42,74,92
0,42,0,4
0,40,117,92
0,42,89,0
0,42,0,4
0,40,0,0
0,42,74,92
0,42,0,4
0,36,125,92
0,42,99,0
0,42,0,4
0,36,0,0
0,42,77,92
0,42,0,4
0,40,118,92
0,42,89,0
0,42,0,4
0,40,0,0
0,42,77,92
0,42,0,4
0,42,110,92
0,36,125,0
0,42,99,0
0,82,74,0
0,30,118,0
0,82,0,4
0,42,0,0
0,36,0,0
0,42,0,66
0,30,0,24
0,37,110,2
0,42,74,0
0,82,65,0
0,82,0,4
0,42,0,0
0,37,0,54
0,40,110,38
0,40,118,0
0,42,89,0
0,82,47,0
0,82,0,4
0,42,0,0
0,40,0,0
0,40,0,66
0,42,110,26
0,42,69,0
0,82,67,0
0,30,118,0
0,82,0,4
0,42,0,0
0,42,0,74
0,30,0,16
0,40,110,2
0,36,125,0
0,42,99,0
0,82,76,0
0,82,0,4
0,42,0,0
0,36,0,0
0,40,0,58
0,37,110,34
0,42,70,0
0,82,57,0
0,82,0,4
0,42,0,0
0,37,0,54
0,35,110,38
0,40,118,0
0,42,90,0
0,82,47,0
0,82,0,4
0,42,0,0
0,40,0,0
0,35,0,55
0,37,110,37
0,42,75,0
0,82,64,0
0,82,0,4
0,42,0,0
0,37,0,50
0,42,110,42
0,36,125,0
0,42,99,0
0,82,74,0
0,30,118,0
0,82,0,4
0,42,0,0
0,36,0,0
0,42,0,66
0,30,0,24
0,37,110,2
0,42,75,0
0,82,64,0
0,82,0,4
0,42,0,0
0,37,0,54
0,40,110,38
0,40,117,0
0,42,89,0
0,82,47,0
0,82,0,4
0,42,0,0
0,40,0,0
0,40,0,66
0,42,110,26
0,42,74,0
0,82,65,0
0,30,118,0
0,82,0,4
0,42,0,0
0,42,0,74
0,30,0,16
0,40,110,2
0,36,125,0
0,42,94,0
0,82,76,0
0,82,0,4
0,42,0,0
0,36,0,0
0,40,0,58
0,37,110,34
0,42,77,0
0,82,67,0
0,82,0,4
0,42,0,0
0,37,0,54
0,35,110,38
0,40,118,0
0,42,89,0
0,82,49,0
0,82,0,4
0,42,0,0
0,40,0,0
0,35,0,55
0,37,110,37
0,42,77,0
0,82,69,0
0,82,0,4
0,42,0,0
0,37,0,50
0,42,110,42
0,36,125,0
0,42,99,0
0,82,74,0
0,30,118,0
0,82,0,4
0,42,0,0
0,36,0,0
0,42,0,66
0,30,0,24
0,37,110,2
0,42,74,0
0,82,65,0
0,82,0,4
0,42,0,0
0,37,0,54
0,40,110,38
0,40,118,0
0,42,89,0
0,82,47,0
0,82,0,4
0,42,0,0
0,40,0,0
0,40,0,66
0,42,110,26
0,42,74,0
0,82,67,0
0,30,118,0
0,82,0,4
0,42,0,0
0,42,0,74
0,30,0,16
0,40,110,2
0,36,125,0
0,42,99,0
0,82,76,0
0,82,0,4
0,42,0,0
0,36,0,0
0,40,0,58
0,37,110,34
0,42,74,0
0,82,57,0
0,82,0,4
0,42,0,0
0,37,0,54
0,35,110,38
0,40,118,0
0,42,94,0
0,82,47,0
0,82,0,4
0,42,0,0
0,40,0,0
0,35,0,55
0,37,110,37
0,42,74,0
0,82,64,0
0,82,0,4
0,42,0,0
0,37,0,50
0,42,110,42
0,36,125,0
0,42,99,0
0,82,74,0
0,30,118,0
0,82,0,4
0,42,0,0
0,36,0,0
0,42,0,66
0,30,0,16
0,37,110,10
0,42,74,0
0,82,64,0
0,82,0,4
0,42,0,0
0,37,0,54
0,40,110,38
0,40,117,0
0,42,89,0
0,82,47,0
0,82,0,4
0,42,0,0
0,40,0,0
0,40,0,66
0,42,110,26
0,42,74,0
0,82,65,0
0,30,118,0
0,82,0,4
0,42,0,0
0,42,0,74
0,30,0,16
0,40,110,2
0,36,125,0
0,42,99,0
0,82,76,0
0,82,0,4
0,42,0,0
0,36,0,0
0,40,0,58
0,37,110,34
0,42,77,0
0,82,67,0
0,82,0,4
0,42,0,0
0,37,0,54
0,35,110,38
0,40,118,0
0,42,89,0
0,82,49,0
0,82,0,4
0,42,0,0
0,40,0,0
0,35,0,55
0,37,110,37
0,32,121,0
0,42,121,0
0,82,121,0
0,82,0,4
0,42,0,0
0,32,0,0
0,27,116,44
0,27,0,4
0,37,0,2
0,42,110,42
0,28,110,0
0,36,125,0
0,42,99,0
0,82,74,0
0,30,118,0
0,82,0,4
0,42,0,0
0,36,0,0
0,28,0,0
0,42,0,66
0,30,0,16
0,37,110,10
0,28,100,0
0,42,74,0
0,82,65,0
0,82,0,4
0,42,0,0
0,28,0,0
0,37,0,54
0,40,110,38
0,40,118,0
0,42,89,0
0,82,47,0
0,82,0,4
0,42,0,0
0,40,0,0
0,40,0,66
0,42,110,26
0,42,69,0
0,82,67,0
0,30,118,0
0,82,0,4
0,42,0,0
0,42,0,74
0,30,0,8
0,40,110,10
0,36,125,0
0,42,99,0
0,82,76,0
0,82,0,4
0,42,0,0
0,36,0,0
0,40,0,58
0,37,110,34
0,42,70,0
0,82,57,0
0,82,0,4
0,42,0,0
0,37,0,54
0,35,110,38
0,40,118,0
0,42,90,0
0,82,47,0
0,82,0,4
0,42,0,0
0,40,0,0
0,35,0,55
0,37,110,37
0,42,75,0
0,82,64,0
0,82,0,4
0,42,0,0
0,37,0,50
0,42,110,42
0,36,125,0
0,42,99,0
0,82,74,0
0,30,118,0
0,82,0,4
0,42,0,0
0,36,0,0
0,42,0,66
0,30,0,24
0,37,110,2
0,42,75,0
0,82,64,0
0,82,0,4
0,42,0,0
0,37,0,54
0,40,110,38
0,40,117,0
0,42,89,0
0,82,47,0
0,82,0,4
0,42,0,0
0,40,0,0
0,40,0,66
0,42,110,26
0,42,74,0
0,82,65,0
0,30,118,0
0,82,0,4
0,42,0,0
0,42,0,74
0,30,0,16
0,40,110,2
0,36,125,0
0,42,94,0
0,82,76,0
0,82,0,4
0,42,0,0
0,36,0,0
0,40,0,58
0,37,110,34
0,42,77,0
0,82,67,0
0,82,0,4
0,42,0,0
0,37,0,54
0,35,110,38
0,40,118,0
0,42,89,0
0,82,49,0
0,82,0,4
0,42,0,0
0,40,0,0
0,35,0,55
0,37,110,37
0,42,77,0
0,82,69,0
0,82,0,4
0,42,0,0
0,37,0,50
0,42,110,42
0,36,125,0
0,42,99,0
0,82,74,0
0,30,118,0
0,82,0,4
0,42,0,0
0,36,0,0
0,42,0,66
0,30,0,16
0,37,110,10
0,42,74,0
0,82,65,0
0,82,0,4
0,42,0,0
0,37,0,54
0,40,110,38
0,40,118,0
0,42,89,0
0,82,47,0
0,82,0,4
0,42,0,0
0,40,0,0
0,40,0,66
0,42,110,26
0,42,74,0
0,82,67,0
0,30,118,0
0,82,0,4
0,42,0,0
0,42,0,74
0,30,0,16
0,40,110,2
0,36,125,0
0,42,99,0
0,82,76,0
0,82,0,4
0,42,0,0
0,36,0,0
0,40,0,58
0,37,110,34
0,42,74,0
0,82,57,0
0,82,0,4
0,42,0,0
0,37,0,54
0,35,110,38
0,40,118,0
0,42,94,0
0,82,47,0
0,82,0,4
0,42,0,0
0,40,0,0
0,35,0,55
0,37,110,37
0,42,74,0
0,82,64,0
0,82,0,4
0,42,0,0
0,37,0,50
0,61,89,39
0,57,109,2
0,61,105,0
0,66,105,0
0,42,110,1
0,36,125,0
0,42,99,0
0,82,74,0
0,30,118,0
0,82,0,4
0,42,0,0
0,36,0,0
0,61,0,51
0,66,0,4
0,61,0,2
0,57,0,6
0,42,0,3
0,30,0,24
0,37,110,2
0,42,74,0
0,82,64,0
0,82,0,4
0,42,0,0
0,37,0,54
0,40,110,38
0,40,117,0
0,42,89,0
0,82,47,0
0,82,0,4
0,42,0,0
0,40,0,0
0,40,0,66
0,63,81,23
0,59,109,2
0,63,105,0
0,68,105,0
0,42,110,1
0,42,74,0
0,82,65,0
0,30,118,0
0,82,0,4
0,42,0,0
0,68,0,55
0,63,0,8
0,59,0,2
0,63,0,0
0,42,0,9
0,30,0,16
0,40,110,2
0,36,125,0
0,42,99,0
0,82,76,0
0,82,0,4
0,42,0,0
0,36,0,0
0,40,0,58
0,37,110,34
0,42,77,0
0,82,67,0
0,82,0,4
0,42,0,0
0,37,0,54
0,35,110,38
0,40,118,0
0,42,89,0
0,82,49,0
0,82,0,4
0,42,0,0
0,40,0,0
0,35,0,55
0,37,110,37
0,42,77,0
0,82,69,0
0,82,0,4
0,42,0,0
0,37,0,50
0,66,81,39
0,61,109,2
0,66,109,0
0,69,105,0
0,42,110,1
0,36,125,0
0,42,99,0
0,82,74,0
0,30,118,0
0,82,0,4
0,42,0,0
0,36,0,0
0,69,0,55
0,66,0,6
0,61,0,2
0,66,0,0
0,42,0,3
0,30,0,16
0,37,110,10
0,42,74,0
0,82,65,0
0,82,0,4
0,42,0,0
0,37,0,54
0,40,110,38
0,40,118,0
0,42,89,0
0,82,47,0
0,82,0,4
0,42,0,0
0,40,0,0
0,40,0,66
0,63,81,23
0,59,109,2
0,63,105,0
0,68,105,0
0,42,110,1
0,42,69,0
0,82,67,0
0,30,118,0
0,82,0,4
0,42,0,0
0,63,0,45
0,68,0,10
0,63,0,2
0,59,0,6
0,42,0,11
0,30,0,16
0,40,110,2
0,36,125,0
0,42,99,0
0,82,76,0
0,82,0,4
0,42,0,0
0,36,0,0
0,40,0,58
0,37,110,34
0,42,70,0
0,82,57,0
0,82,0,4
0,42,0,0
0,37,0,54
0,35,110,38
0,40,118,0
0,42,90,0
0,82,47,0
0,82,0,4
0,42,0,0
0,40,0,0
0,35,0,55
0,37,110,37
0,42,75,0
0,82,64,0
0,82,0,4
0,42,0,0
0,37,0,50
0,57,109,41
0,61,105,0
0,66,105,0
0,42,110,1
0,36,125,0
0,42,99,0
0,82,74,0
0,30,118,0
0,61,85,0
0,82,0,4
0,42,0,0
0,36,0,0
0,61,0,53
0,66,0,0
0,61,0,2
0,57,0,8
0,42,0,3
0,30,0,8
0,37,110,18
0,42,75,0
0,82,64,0
0,82,0,4
0,42,0,0
0,37,0,54
0,40,110,38
0,40,117,0
0,42,89,0
0,82,47,0
0,82,0,4
0,42,0,0
0,40,0,0
0,40,0,66
0,59,109,25
0,63,105,0
0,68,105,0
0,42,110,1
0,42,74,0
0,82,65,0
0,30,118,0
0,63,85,0
0,82,0,4
0,42,0,0
0,63,0,53
0,68,0,2
0,63,0,7
0,59,0,1
0,42,0,11
0,30,0,16
0,40,110,2
0,36,125,0
0,42,94,0
0,82,76,0
0,82,0,4
0,42,0,0
0,36,0,0
0,40,0,58
0,37,110,34
0,42,77,0
0,82,67,0
0,82,0,4
0,42,0,0
0,37,0,54
0,35,110,38
0,40,118,0
0,42,89,0
0,82,49,0
0,82,0,4
0,42,0,0
0,40,0,0
0,35,0,55
0,37,110,37
0,42,77,0
0,82,69,0
0,82,0,4
0,42,0,0
0,37,0,50
0,61,109,41
0,66,105,0
0,69,105,0
0,42,110,1
0,36,125,0
0,42,99,0
0,82,74,0
0,30,118,0
0,66,85,0
0,82,0,4
0,42,0,0
0,36,0,0
0,69,0,55
0,66,0,8
0,66,0,0
0,61,0,2
0,42,0,1
0,30,0,24
0,37,110,2
0,42,74,0
0,82,65,0
0,82,0,4
0,42,0,0
0,37,0,54
0,40,110,38
0,40,118,0
0,42,89,0
0,82,47,0
0,85,104,0
0,85,0,4
0,42,0,0
0,82,0,0
0,40,0,0
0,40,0,66
0,59,109,25
0,63,105,0
0,68,105,0
0,42,110,1
0,42,74,0
0,82,67,0
0,30,118,0
0,63,85,0
0,82,0,4
0,42,0,0
0,63,0,47
0,68,0,8
0,63,0,2
0,59,0,6
0,42,0,11
0,30,0,0
0,40,110,18
0,36,125,0
0,42,99,0
0,82,76,0
0,82,0,4
0,42,0,0
0,36,0,0
0,40,0,58
0,37,110,34
0,42,74,0
0,82,57,0
0,82,0,4
0,42,0,0
0,37,0,54
0,35,110,38
0,40,118,0
0,42,94,0
0,82,47,0
0,85,104,0
0,85,0,4
0,42,0,0
0,82,0,0
0,40,0,0
0,35,0,55
0,37,110,37
0,42,74,0
0,82,64,0
0,82,0,4
0,42,0,0
0,37,0,50
0,57,109,41
0,61,105,0
0,66,105,0
0,61,85,0
0,42,110,1
0,36,125,0
0,42,99,0
0,82,74,0
0,30,118,0
0,82,0,4
0,42,0,0
0,36,0,0
0,61,0,53
0,61,0,2
0,57,0,8
0,66,0,0
0,42,0,3
0,30,0,16
0,37,110,10
0,59,88,0
0,42,74,0
0,82,64,0
0,82,0,4
0,42,0,0
0,59,0,6
0,37,0,48
0,40,110,38
0,40,117,0
0,42,89,0
0,82,47,0
0,82,0,4
0,42,0,0
0,40,0,0
0,61,101,1
0,61,0,65
0,40,0,0
0,61,92,21
0,59,109,4
0,63,105,0
0,68,105,0
0,63,85,0
0,42,110,1
0,42,74,0
0,82,65,0
0,30,118,0
0,82,0,4
0,42,0,0
0,63,0,61
0,59,0,2
0,68,0,2
0,63,0,0
0,42,0,9
0,61,0,12
0,30,0,4
0,40,110,2
0,36,125,0
0,42,99,0
0,82,76,0
0,82,0,4
0,42,0,0
0,36,0,0
0,61,101,3
0,40,0,55
0,61,0,12
0,37,110,22
0,42,77,0
0,82,67,0
0,59,97,1
0,82,0,3
0,42,0,0
0,59,0,31
0,37,0,23
0,35,110,38
0,40,118,0
0,42,89,0
0,82,49,0
0,82,0,4
0,42,0,0
0,40,0,0
0,35,0,55
0,59,95,34
0,37,110,3
0,42,77,0
0,82,69,0
0,82,0,4
0,42,0,0
0,37,0,50
0,59,0,25
0,57,92,8
0,61,109,8
0,66,105,0
0,69,105,0
0,66,85,0
0,42,110,1
0,36,125,0
0,42,99,0
0,82,74,0
0,30,118,0
0,82,0,4
0,42,0,0
0,36,0,0
0,57,0,45
0,69,0,10
0,66,0,8
0,66,0,0
0,61,0,2
0,42,0,1
0,30,0,16
0,61,95,5
0,37,110,5
0,42,74,0
0,82,65,0
0,82,0,4
0,42,0,0
0,37,0,54
0,61,0,27
0,40,110,11
0,40,118,0
0,42,89,0
0,82,47,0
0,82,0,4
0,42,0,0
0,40,0,0
0,40,0,66
0,59,97,22
0,59,109,3
0,63,105,0
0,68,105,0
0,63,85,0
0,42,110,1
0,42,69,0
0,82,67,0
0,30,118,0
0,82,0,4
0,42,0,0
0,59,0,14
0,57,79,26
0,63,0,15
0,63,0,0
0,59,0,8
0,68,0,2
0,57,0,5
0,42,0,4
0,30,0,8
0,59,101,9
0,40,110,1
0,36,125,0
0,42,99,0
0,82,76,0
0,82,0,4
0,36,0,0
0,42,0,0
0,59,0,56
0,40,0,2
0,57,90,26
0,37,110,8
0,42,70,0
0,82,57,0
0,82,0,4
0,42,0,0
0,37,0,54
0,57,0,1
0,61,101,30
0,35,110,7
0,40,118,0
0,42,90,0
0,82,47,0
0,82,0,4
0,40,0,0
0,42,0,0
0,61,0,47
0,35,0,8
0,61,79,30
0,37,110,7
0,42,75,0
0,82,64,0
0,82,0,4
0,42,0,0
0,61,0,41
0,37,0,9
0,57,109,41
0,61,105,0
0,66,105,0
0,61,85,0
0,42,110,1
0,36,125,0
0,42,99,0
0,82,74,0
0,30,118,0
0,82,0,4
0,42,0,0
0,36,0,0
0,61,0,47
0,61,0,8
0,57,0,8
0,66,0,2
0,42,0,1
0,30,0,24
0,37,110,2
0,42,75,0
0,82,64,0
0,82,0,4
0,42,0,0
0,61,101,2
0,61,0,38
0,37,0,14
0,40,110,38
0,40,117,0
0,42,89,0
0,82,47,0
0,82,0,4
0,42,0,0
0,40,0,0
0,61,101,1
