track,note,velocity,time
3,71,110,6907
3,76,114,96
3,71,0,19
3,80,111,78
3,76,0,29
3,81,105,67
3,80,0,42
3,80,99,54
3,81,0,15
3,76,119,81
3,80,0,20
3,71,115,76
3,76,0,9
3,71,0,63
3,69,114,25
3,68,91,96
3,69,0,10
3,68,0,83
3,69,103,3
3,69,0,66
3,71,118,29
3,71,0,302
3,71,115,274
3,71,0,32
3,71,116,15
3,76,120,49
3,71,0,22
3,80,113,73
3,76,0,9
3,81,119,87
3,80,0,16
3,80,113,80
3,81,0,34
3,76,113,62
3,80,0,5
3,71,97,91
3,76,0,11
3,69,116,85
3,71,0,33
3,68,111,63
3,69,0,11
3,69,111,86
3,68,0,12
3,71,103,84
3,69,0,4
3,71,0,327
3,71,119,52
3,71,0,90
3,73,108,7
3,73,0,66
3,73,103,30
3,76,119,49
3,73,0,30
3,76,0,23
3,76,111,41
3,78,109,48
3,76,0,20
3,76,113,125
3,78,0,9
3,76,112,39
3,76,0,16
3,76,0,34
3,76,112,143
3,76,0,27
3,76,119,20
3,76,0,42
3,73,115,6
3,73,0,57
3,73,101,39
3,76,111,95
3,73,0,2
3,76,0,66
3,76,108,29
3,78,93,97
3,76,0,24
3,78,0,61
3,76,89,11
3,76,0,86
3,78,115,9
3,80,99,96
3,78,0,10
3,80,0,173
3,71,119,968
3,71,0,117
3,71,114,75
3,71,0,104
3,71,117,88
3,71,0,45
3,78,120,52
3,78,0,25
3,78,119,22
3,78,0,23
3,78,103,25
3,78,0,28
3,78,109,21
3,78,0,100
3,80,103,44
3,78,122,96
3,80,0,7
3,78,0,77
3,76,119,11
3,76,0,53
3,76,108,43
3,76,0,44
3,76,114,52
3,76,0,43
3,73,110,53
3,76,107,96
3,73,0,17
3,76,0,39
3,76,118,41
3,76,0,54
3,76,117,41
3,78,105,96
3,76,0,5
3,78,0,83
3,76,120,8
3,76,0,131
3,76,116,61
3,76,0,229
3,71,117,3036
3,76,110,96
3,71,0,14
3,80,101,81
3,76,0,13
3,81,108,84
3,80,0,30
3,80,111,65
3,81,0,11
3,76,111,85
3,80,0,7
3,71,111,89
3,76,0,11
3,69,119,89
3,71,0,16
3,68,101,76
3,69,0,15
3,69,111,81
3,68,0,2
3,71,108,94
3,69,0,16
3,71,0,251
3,71,113,309
3,76,119,96
3,71,0,27
3,80,107,69
3,76,0,15
3,80,0,45
3,81,97,37
3,80,119,95
3,81,0,5
3,76,117,92
3,80,0,10
3,71,101,85
3,76,0,11
3,69,111,88
3,71,0,21
3,68,99,72
3,69,0,26
3,68,0,64
3,69,101,6
3,71,119,96
3,69,0,15
3,71,0,194
3,71,112,175
3,71,0,29
3,71,108,19
3,71,0,37
3,73,107,12
3,73,0,56
3,76,119,40
3,76,119,47
3,76,0,20
3,76,0,47
3,76,113,30
3,78,109,48
3,76,0,11
3,78,0,123
3,76,107,10
3,76,0,34
3,76,119,14
3,76,0,111
3,76,119,81
3,76,0,29
3,76,119,19
3,76,0,48
3,73,108,0
3,73,0,74
3,73,113,22
3,73,0,80
3,76,119,16
3,76,0,67
3,76,119,29
3,76,0,89
3,78,99,6
3,76,115,96
3,78,0,2
3,76,0,94
3,78,111,0
3,80,119,96
3,78,0,5
3,80,0,206
3,71,115,943
3,71,0,116
3,71,120,75
3,71,0,112
3,71,109,79
3,71,0,68
3,78,124,29
3,78,0,28
3,78,105,19
3,78,0,23
3,78,112,25
3,78,0,49
3,78,115,0
3,78,0,104
3,80,108,40
3,78,112,96
3,80,0,10
3,78,0,83
3,76,108,3
3,76,0,39
3,76,108,56
3,76,0,51
3,76,112,45
3,73,99,96
3,76,0,5
3,76,111,92
3,73,0,13
3,76,0,37
3,76,115,45
3,73,103,96
3,76,0,10
3,73,0,80
3,78,119,6
3,78,0,91
3,76,119,5
3,76,0,163
3,76,119,29
3,76,0,282
3,74,115,5959
3,71,97,47
3,74,0,16
3,71,0,74
3,67,119,6
3,67,0,61
3,67,119,36
3,67,0,23
3,67,117,24
3,67,0,67
3,71,119,29
3,71,0,66
3,71,114,30
3,71,0,58
3,74,109,230
3,71,119,48
3,74,0,21
3,71,0,51
3,67,110,24
3,67,0,61
3,67,119,36
3,67,0,26
3,67,110,22
3,67,0,58
3,71,114,38
3,71,0,66
3,71,108,317
3,71,0,30
3,71,119,18
3,71,0,68
3,67,119,28
3,67,0,51
3,67,119,45
3,67,0,26
3,67,119,22
3,67,0,68
3,71,119,28
3,71,0,66
3,71,114,30
3,71,0,67
3,71,110,126
3,71,0,93
3,69,119,3
3,69,0,52
3,69,108,44
3,67,119,48
3,69,0,7
3,69,110,41
3,67,0,4
3,67,119,43
3,69,0,9
3,64,120,40
3,67,0,4
3,64,0,55
3,64,114,37
3,64,0,123
3,71,118,261
3,71,0,33
3,71,110,15
3,71,0,74
3,67,119,22
3,67,0,46
3,67,119,48
3,67,0,25
3,67,119,23
3,67,0,78
3,71,118,19
3,71,0,61
3,71,114,35
3,71,0,70
3,71,108,218
3,71,0,37
3,71,119,11
3,71,0,65
3,67,110,31
3,67,0,56
3,67,108,40
3,67,0,26
3,67,119,21
3,67,0,74
3,71,116,22
3,71,0,109
3,71,116,276
3,71,0,33
3,71,119,14
3,71,0,86
3,67,116,11
3,67,0,60
3,67,119,36
3,67,0,25
3,67,108,22
3,67,0,68
3,71,114,29
3,71,0,54
3,71,116,42
3,71,0,76
3,71,116,116
3,71,0,85
3,69,119,12
3,69,0,45
3,69,119,50
3,67,117,48
3,69,0,10
3,69,122,38
3,67,0,7
3,67,110,41
3,69,0,4
3,64,120,44
3,67,0,3
3,64,0,64
3,64,116,29
3,64,0,112
3,64,86,993
3,64,0,32
3,64,112,17
3,64,0,91
3,64,112,53
3,64,0,64
3,64,103,79
3,64,0,21
3,64,112,27
3,64,0,73
3,64,101,71
3,64,0,21
3,64,87,26
3,64,0,20
3,64,112,29
3,64,0,60
3,64,112,36
3,64,0,57
3,64,112,134
3,64,0,21
3,64,105,27
3,64,0,22
3,64,112,26
3,64,0,63
3,64,112,34
3,64,0,19
3,64,112,29
3,64,0,56
3,64,112,39
3,64,0,19
3,64,112,29
3,64,0,22
3,64,112,27
3,64,0,59
3,64,112,37
3,64,0,17
3,64,112,31
3,64,0,19
3,64,112,29
3,64,0,22
3,64,112,25
3,64,0,55
3,64,112,42
3,64,0,67
3,64,112,124
3,64,0,16
3,64,107,32
3,64,0,18
3,64,112,30
3,64,0,53
3,64,112,44
3,64,0,40
3,64,112,56
3,64,0,65
3,64,112,174
3,64,0,19
3,64,112,29
3,64,0,22
3,64,111,26
3,64,0,23
3,64,112,25
3,64,0,56
3,64,112,41
3,64,0,49
3,64,112,47
3,64,0,21
3,64,111,26
3,64,0,23
3,64,112,25
3,64,0,25
3,64,112,23
3,64,0,62
3,64,112,35
3,64,0,18
3,64,112,30
3,64,0,21
3,64,112,27
3,64,0,21
3,64,112,27
3,64,0,24
3,64,112,23
3,64,0,23
3,64,112,25
3,64,0,67
3,64,112,30
3,64,0,63
3,64,111,33
3,64,0,47
3,64,112,144
3,64,0,43
3,64,112,53
3,64,0,50
3,64,107,47
3,64,0,50
3,64,112,46
3,64,0,51
3,64,111,45
3,64,0,62
3,64,112,129
3,64,0,25
3,64,105,23
3,64,0,24
3,64,112,24
3,64,0,55
3,64,107,41
3,64,0,51
3,64,112,46
3,64,0,20
3,64,109,27
3,64,0,22
3,64,112,26
3,64,0,23
3,64,107,25
3,64,0,21
3,64,112,27
3,64,0,51
3,64,112,45
3,64,0,56
3,64,86,89
3,64,0,32
3,64,112,16
3,64,0,18
3,64,112,30
3,64,0,21
3,64,112,27
3,64,0,29
3,64,112,66
3,64,0,50
3,64,112,47
3,64,0,21
3,64,112,26
3,64,0,57
3,64,109,40
3,64,0,16
3,64,112,32
3,64,0,20
3,64,112,27
3,64,0,19
3,64,112,29
3,64,0,18
3,64,112,29
3,64,0,17
3,64,112,32
3,64,0,24
3,64,103,24
3,64,0,20
3,64,112,28
3,64,0,16
3,64,112,80
3,64,0,18
3,64,112,30
3,64,0,19
3,64,112,29
3,64,0,21
3,64,112,28
3,64,0,17
3,64,112,31
3,64,0,27
3,71,119,69
3,73,113,96
3,71,0,1
3,73,0,64
3,73,99,30
3,76,119,49
3,73,0,14
3,76,0,43
3,76,107,38
3,76,0,43
3,78,101,5
3,78,0,144
3,76,117,1
3,76,0,22
3,76,108,26
3,76,0,115
3,76,107,76
3,76,0,33
3,76,113,15
3,73,101,49
3,76,0,6
3,73,0,61
3,73,107,28
3,76,119,96
3,73,0,3
3,76,0,58
3,76,119,35
3,78,99,96
3,76,0,2
3,76,119,95
3,78,0,7
3,78,101,88
3,76,0,15
3,80,105,81
3,78,0,8
3,80,0,132
3,71,124,1014
3,71,0,125
3,71,122,66
3,71,0,121
3,71,113,70
3,71,0,80
3,78,112,17
3,78,0,30
3,78,115,17
3,78,0,31
3,78,117,17
3,78,0,33
3,78,120,16
3,78,0,112
3,80,113,31
3,78,108,96
3,80,0,4
3,78,0,92
3,76,109,0
3,76,0,54
3,76,119,42
3,76,0,57
3,76,115,39
3,73,103,96
3,76,0,10
3,76,119,86
3,73,0,13
3,76,0,41
3,76,119,42
3,73,97,96
3,76,0,11
3,78,101,85
3,73,0,11
3,78,0,80
3,76,119,5
3,76,0,155
3,76,119,37
3,76,0,189
3,71,116,965
3,71,0,112
3,71,120,78
3,71,0,51
3,71,110,45
3,71,0,66
3,71,113,30
3,71,0,63
3,78,126,34
3,78,0,24
3,78,112,24
3,78,0,21
3,78,122,26
3,78,0,63
3,78,118,33
3,78,0,24
3,78,108,24
3,78,0,38
3,80,116,10
3,78,108,96
3,80,0,4
3,78,0,85
3,76,119,7
3,76,0,36
3,76,119,60
3,76,0,53
3,76,120,44
3,76,0,93
3,73,97,3
3,76,115,96
3,73,0,14
3,76,0,26
3,76,115,56
3,73,99,96
3,76,0,9
3,73,0,82
3,78,119,4
3,76,119,96
3,78,0,1
3,76,0,145
3,76,120,46
3,76,0,268
3,71,116,886
3,71,0,112
3,71,120,78
3,71,0,51
3,71,110,45
3,71,0,66
3,71,113,30
3,71,0,63
3,78,126,34
3,78,0,24
3,78,112,24
3,78,0,21
3,78,122,26
3,78,0,63
3,78,118,33
3,78,0,24
3,78,108,24
3,78,0,38
3,80,116,10
3,78,108,96
3,80,0,4
3,78,0,85
3,76,119,7
3,76,0,36
3,76,119,60
3,76,0,53
3,76,120,44
3,76,0,93
3,73,97,3
3,76,115,96
3,73,0,14
3,76,0,26
3,76,115,56
3,73,99,96
3,76,0,9
3,73,0,82
3,78,119,4
3,78,0,97
3,76,119,1
3,76,0,146
3,76,120,46
3,76,0,268
3,83,119,2610
3,83,0,128
3,83,119,65
3,80,109,96
3,83,0,8
3,80,0,156
3,81,114,987
3,81,0,47
3,81,108,49
3,81,0,188
3,80,117,5
3,80,0,185
3,76,119,7
3,76,0,106
3,83,119,1045
3,83,0,152
3,83,108,40
3,80,117,96
3,83,0,5
3,80,0,181
3,81,120,966
3,81,0,43
3,81,116,54
3,81,0,170
3,80,119,22
3,80,0,192
3,76,115,0
3,76,0,76
3,76,119,1267
3,80,119,97
3,76,0,15
3,80,0,85
3,76,110,187
3,76,0,53
3,76,120,44
3,76,0,90
3,76,119,197
3,80,109,96
3,76,0,13
3,80,0,62
3,76,108,21
3,76,0,29
3,76,112,19
3,76,0,65
3,76,119,32
3,76,0,20
3,76,120,28
3,76,0,79
3,80,120,16
3,80,0,93
3,76,116,195
3,80,116,97
3,76,0,11
3,80,0,73
3,76,119,204
3,76,0,42
3,76,124,53
3,76,0,173
3,80,112,20
3,80,0,162
3,76,118,701
3,80,112,97
3,76,0,8
3,80,0,83
3,76,118,196
3,76,0,73
3,76,110,23
3,76,0,80
3,76,112,208
3,76,0,92
3,80,113,6
3,80,0,84
3,76,114,10
3,76,0,24
3,76,120,24
3,76,0,67
3,76,115,30
3,76,0,19
3,76,122,29
3,76,0,83
3,80,116,13
3,80,0,96
3,76,112,192
3,76,0,92
3,80,116,4
3,80,0,82
3,76,114,205
3,76,0,72
3,76,108,24
3,76,0,95
3,80,115,98
3,80,0,144
4,56,91,668
4,70,104,0
4,82,87,0
4,42,121,0
4,42,0,1
4,56,0,0
4,70,0,0
4,82,0,0
4,36,111,0
4,36,0,1
4,70,76,46
4,82,67,0
4,42,82,0
4,42,0,1
4,82,0,0
4,70,0,0
4,46,74,47
4,70,57,0
4,82,36,0
4,82,0,1
4,70,0,0
4,46,0,0
4,70,68,47
4,82,43,0
4,82,0,1
4,70,0,0
4,56,54,5
4,56,0,1
4,56,100,41
4,40,117,0
4,70,104,0
4,82,85,0
4,42,112,0
4,42,0,1
4,70,0,0
4,56,0,0
4,40,0,0
4,82,0,0
4,70,82,47
4,82,62,0
4,42,81,0
4,42,0,1
4,82,0,0
4,70,0,0
4,70,62,47
4,82,50,0
4,42,67,0
4,42,0,1
4,82,0,0
4,70,0,0
4,70,69,47
4,82,37,0
4,42,75,0
4,42,0,1
4,82,0,0
4,70,0,0
4,56,50,5
4,56,0,1
4,56,107,41
4,70,93,0
4,82,91,0
4,42,117,0
4,42,0,1
4,56,0,0
4,70,0,0
4,82,0,0
4,70,76,47
4,82,57,0
4,42,74,0
4,42,0,1
4,82,0,0
4,70,0,0
4,69,70,15
4,69,0,1
4,69,54,31
4,56,49,0
4,36,109,0
4,70,72,0
4,82,33,0
4,42,76,0
4,42,0,1
4,56,0,0
4,36,0,0
4,69,0,0
4,82,0,0
4,70,0,0
4,70,68,47
4,82,47,0
4,42,83,0
4,42,0,1
4,82,0,0
4,70,0,0
4,56,94,47
4,69,66,0
4,40,117,0
4,70,90,0
4,82,90,0
4,42,104,0
4,42,0,1
4,69,0,0
4,40,0,0
4,56,0,0
4,82,0,0
4,70,0,0
4,70,59,47
4,82,60,0
4,42,83,0
4,42,0,1
4,82,0,0
4,70,0,0
4,36,103,47
4,70,56,0
4,82,35,0
4,42,83,0
4,42,0,1
4,36,0,0
4,70,0,0
4,82,0,0
4,56,42,47
4,70,79,0
4,82,54,0
4,42,66,0
4,42,0,1
4,56,0,0
4,70,0,0
4,82,0,0
4,56,107,47
4,36,113,0
4,70,104,0
4,82,93,0
4,42,110,0
4,42,0,1
4,70,0,0
4,56,0,0
4,36,0,0
4,82,0,0
4,70,76,47
4,82,49,0
4,42,69,0
4,42,0,1
4,82,0,0
4,70,0,0
4,46,74,47
4,70,48,0
4,82,58,0
4,82,0,1
4,70,0,0
4,46,0,0
4,70,64,47
4,82,40,0
4,82,0,1
4,70,0,0
4,56,60,5
4,56,0,1
4,56,100,41
4,40,117,0
4,70,104,0
4,82,90,0
4,42,101,0
4,42,0,1
4,70,0,0
4,56,0,0
4,40,0,0
4,82,0,0
4,70,69,47
4,82,77,0
4,42,82,0
4,42,0,1
4,82,0,0
4,70,0,0
4,70,68,47
4,82,40,0
4,42,65,0
4,42,0,1
4,82,0,0
4,70,0,0
4,70,79,47
4,82,49,0
4,42,82,0
4,42,0,1
4,82,0,0
4,70,0,0
4,56,50,5
4,56,0,1
4,56,107,41
4,70,103,0
4,82,84,0
4,42,101,0
4,42,0,1
4,56,0,0
4,70,0,0
4,82,0,0
4,70,62,47
4,82,55,0
4,42,77,0
4,42,0,1
4,82,0,0
4,70,0,0
4,69,61,15
4,69,0,1
4,69,63,31
4,56,42,0
4,36,113,0
4,70,60,0
4,82,51,0
4,42,72,0
4,42,0,1
4,56,0,0
4,36,0,0
4,69,0,0
4,82,0,0
4,70,0,0
4,70,70,47
4,82,40,0
4,42,66,0
4,42,0,1
4,82,0,0
4,70,0,0
4,56,106,47
4,69,72,0
4,40,115,0
4,70,104,0
4,82,94,0
4,42,101,0
4,42,0,1
4,69,0,0
4,40,0,0
4,56,0,0
4,82,0,0
4,70,0,0
4,70,71,47
4,82,44,0
4,42,81,0
4,42,0,1
4,82,0,0
4,70,0,0
4,70,62,47
4,82,41,0
4,42,75,0
4,42,0,1
