track,note,velocity,time
1,58,84,1336
1,55,85,0
1,59,78,18
1,56,69,0
1,59,76,52
1,56,79,0
1,61,79,256
1,57,79,0
1,59,84,208
1,56,84,0
1,59,85,632
1,57,88,6
1,59,97,226
1,58,104,6
1,55,104,0
1,59,84,0
1,56,84,0
1,59,72,48
1,56,72,0
1,61,84,266
1,57,84,0
1,59,88,274
1,56,88,0
1,57,85,270
1,54,88,128
1,52,90,276
1,54,92,216
1,58,108,4
1,55,92,0
1,56,74,6
1,59,61,2
1,56,81,52
1,59,78,2
1,57,84,242
1,61,84,2
1,56,84,208
1,59,81,2
1,59,84,640
1,57,81,24
1,59,97,240
1,58,104,10
1,55,104,0
1,56,84,2
1,59,81,2
1,59,79,48
1,56,72,0
1,61,90,264
1,57,84,2
1,59,90,274
1,56,88,0
1,57,87,266
1,54,56,128
1,57,99,274
1,57,77,20
1,54,81,126
1,52,84,224
1,52,67,32
1,52,84,24
1,52,86,26
1,54,90,236
1,52,86,224
1,52,86,636
1,48,94,130
1,49,92,0
1,50,104,256
1,52,90,230
1,52,66,18
1,52,71,30
1,52,84,44
1,54,81,248
1,52,71,272
1,57,99,280
1,54,80,130
1,49,96,256
1,50,98,224
1,52,90,232
1,52,67,52
1,52,69,6
1,52,84,50
1,54,94,234
1,49,88,130
1,52,87,28
1,52,72,624
1,49,91,12
1,50,96,224
1,52,98,224
1,52,73,36
1,52,88,24
1,52,83,44
1,54,95,268
1,66,96,292
1,64,92,2
1,59,90,2
1,58,92,6118
1,55,92,0
1,59,74,18
1,56,74,0
1,59,81,52
1,56,81,0
1,61,84,256
1,57,84,0
1,59,84,208
1,56,84,0
1,59,85,632
1,57,88,6
1,59,97,226
1,58,104,6
1,55,104,0
1,59,84,0
1,56,84,0
1,59,72,48
1,56,72,0
1,61,84,266
1,57,84,0
1,59,88,274
1,56,88,0
1,59,85,270
1,54,88,128
1,52,90,276
1,54,92,216
1,58,108,0
1,55,92,0
1,56,74,6
1,59,61,2
1,56,81,52
1,59,78,2
1,57,84,242
1,61,84,2
1,56,84,208
1,59,81,2
1,59,84,640
1,57,81,24
1,59,97,240
1,58,104,10
1,55,104,0
1,56,84,2
1,59,81,2
1,59,79,48
1,56,72,0
1,61,90,264
1,57,84,2
1,59,90,274
1,56,88,0
1,57,87,266
1,54,56,128
1,57,99,274
1,57,77,20
1,54,81,126
1,52,84,224
1,52,67,32
1,52,84,24
1,52,86,26
1,54,90,236
1,52,86,224
1,52,86,636
1,48,94,130
1,49,92,0
1,50,104,256
1,52,90,230
1,52,66,18
1,52,71,30
1,52,84,44
1,54,81,248
1,52,71,272
1,57,99,280
1,54,80,130
1,49,96,256
1,50,98,224
1,52,90,232
1,52,67,52
1,52,69,6
1,52,84,50
1,54,94,234
1,49,88,130
1,52,87,28
1,52,72,624
1,49,91,12
1,50,96,224
1,52,98,224
1,52,73,36
1,52,88,24
1,52,83,44
1,54,95,268
1,66,96,292
1,64,92,2
1,59,90,2
1,58,92,6118
1,55,92,0
1,59,74,18
1,56,74,0
1,59,81,52
1,56,81,0
1,61,84,256
1,57,84,0
1,59,84,208
1,56,84,0
1,59,85,632
1,57,88,6
1,59,97,226
1,58,104,6
1,55,104,0
1,59,84,0
1,56,84,0
1,59,72,48
1,56,72,0
1,61,84,266
1,57,84,0
1,59,88,274
1,56,88,0
1,59,85,270
1,54,88,128
1,52,90,276
1,54,92,216
1,58,108,0
1,55,92,0
1,56,74,6
1,59,61,2
1,56,81,52
1,59,78,2
1,57,84,242
1,61,84,2
1,56,84,208
1,59,81,2
1,59,84,640
1,57,81,24
1,59,97,240
1,58,104,10
1,55,104,0
1,56,84,2
1,59,81,2
1,59,79,48
1,56,72,0
1,61,90,264
1,57,84,2
1,59,90,274
1,56,88,0
1,57,87,266
1,54,56,128
1,57,99,274
1,57,77,20
1,54,81,126
1,64,83,232
1,68,71,2
1,64,75,98
1,68,77,6
1,69,91,242
1,66,75,4
1,68,65,278
1,64,50,10
1,69,85,416
1,66,69,6
1,66,73,74
1,69,87,0
1,71,91,300
1,68,73,6
1,69,81,286
1,66,65,8
1,71,91,472
1,68,83,4
1,68,73,88
1,71,83,2
1,69,79,302
1,73,81,0
1,71,79,300
1,68,75,8
1,66,79,410
1,69,81,6
1,66,69,90
1,69,79,6
1,68,75,316
1,71,71,4
1,66,77,290
1,69,81,2
1,64,61,654
1,64,77,462
1,67,85,0
1,64,81,220
1,67,85,2
1,67,83,448
1,64,83,0
1,65,89,296
1,69,83,0
1,65,71,438
1,69,73,0
1,65,83,202
1,69,83,0
1,65,61,440
1,69,69,0
1,65,81,84
1,69,81,0
1,66,71,188
1,69,81,0
1,66,71,428
1,69,77,2
1,68,75,208
1,71,77,0
1,68,69,420
1,71,75,0
1,69,81,320
1,66,67,0
1,69,87,422
1,66,77,2
1,71,75,244
1,68,77,8
1,68,34,280
1,71,61,4
1,71,51,0
1,68,51,0
1,71,73,124
1,68,67,0
1,66,83,328
1,69,87,0
1,66,65,376
1,69,67,0
1,69,51,0
1,66,51,0
1,66,69,62
1,69,83,0
1,68,71,10
1,71,75,0
1,71,79,500
1,68,77,0
1,68,69,370
1,71,75,0
1,66,69,276
1,69,85,0
1,66,69,420
1,69,67,0
1,52,84,840
1,52,67,32
1,52,84,24
1,52,86,26
1,54,90,236
1,52,86,224
1,52,86,636
1,48,94,130
1,49,92,0
1,50,104,256
1,52,90,230
1,52,66,18
1,52,71,30
1,52,84,44
1,54,81,248
1,52,71,272
1,57,99,280
1,54,80,130
1,49,96,256
1,50,98,224
1,52,90,232
1,52,67,52
1,52,69,6
1,52,84,50
1,54,94,234
1,49,88,130
1,52,87,28
1,52,72,624
1,49,91,12
1,50,96,224
1,52,98,224
1,52,73,36
1,52,88,24
1,52,83,44
1,54,95,268
1,66,96,292
1,64,92,2
1,59,90,2
1,58,92,6118
1,55,92,0
1,59,74,18
1,56,74,0
1,59,81,52
1,56,81,0
1,61,84,256
1,57,84,0
1,59,84,208
1,56,84,0
1,59,85,632
1,57,88,6
1,59,97,226
1,58,104,6
1,55,104,0
1,59,84,0
1,56,84,0
1,59,72,48
1,56,72,0
1,61,84,266
1,57,84,0
1,59,88,274
1,56,88,0
1,59,85,270
1,54,88,128
1,52,90,276
1,54,92,216
1,58,92,6150
1,55,92,0
1,59,74,18
1,56,74,0
1,59,81,52
1,56,81,0
1,61,84,256
1,57,84,0
1,59,84,208
1,56,84,0
1,59,85,632
1,57,88,6
1,59,97,226
1,58,104,6
1,55,104,0
1,59,84,0
1,56,84,0
1,59,72,48
1,56,72,0
1,61,84,266
1,57,84,0
1,59,88,274
1,56,88,0
1,57,85,270
1,54,88,128
1,52,90,276
1,54,92,216
1,58,108,4
1,55,92,0
1,56,74,6
1,59,61,2
1,56,81,52
1,59,78,2
1,57,84,242
1,61,84,2
1,56,84,208
1,59,81,2
1,59,84,640
1,57,81,24
1,59,97,240
1,58,104,10
1,55,104,0
1,56,84,2
1,59,81,2
1,59,79,48
1,56,72,0
1,61,90,264
1,57,84,2
1,59,90,274
1,56,88,0
1,57,87,266
1,54,56,128
1,57,99,274
1,57,77,20
1,54,81,126
1,58,92,224
1,55,92,0
1,59,74,18
1,56,74,0
1,59,81,52
1,56,81,0
1,61,84,256
1,57,84,0
1,59,84,208
1,56,84,0
1,59,85,632
1,57,88,6
1,59,97,226
1,52,88,24
1,57,82,2
2,33,115,1336
2,40,114,204
2,40,100,220
2,42,104,132
2,40,110,170
2,42,84,182
2,33,112,168
2,40,108,294
2,40,106,178
2,42,86,96
2,40,98,122
2,42,86,182
2,33,106,174
2,40,115,196
2,40,106,216
2,42,88,130
2,40,104,144
2,42,92,180
2,33,108,188
2,40,114,250
2,40,80,190
2,42,90,128
2,45,86,214
2,42,90,180
2,33,96,166
2,40,114,324
2,40,110,242
2,42,88,128
2,40,112,142
2,42,96,204
2,33,90,232
2,40,112,400
2,40,108,220
2,42,82,128
2,40,94,124
2,42,82,216
2,33,100,178
2,40,114,254
2,40,104,236
2,42,82,126
2,40,106,142
2,42,88,216
2,33,117,230
2,33,114,112
2,32,90,128
2,30,112,218
2,30,76,308
2,32,82,130
2,33,96,38
2,35,96,4
2,35,88,100
2,35,117,76
2,37,92,6
2,38,106,514
2,40,98,376
2,28,90,2
2,33,100,114
2,40,114,254
2,40,104,236
2,42,82,126
2,40,106,142
2,42,88,216
2,33,117,230
2,33,114,112
2,32,90,128
2,30,112,218
2,30,76,308
2,32,82,130
2,33,96,38
2,35,96,4
2,35,88,100
2,35,117,76
2,37,92,6
2,38,106,514
2,40,98,376
2,28,90,2
2,33,106,114
2,40,115,196
2,40,106,216
2,42,88,130
2,40,104,144
2,42,92,180
2,33,108,188
2,40,114,250
2,40,80,190
2,42,90,128
2,45,86,214
2,42,90,180
2,33,96,166
2,40,114,324
2,40,110,242
2,42,88,128
2,40,112,142
2,42,96,204
2,33,90,232
2,40,112,400
2,40,108,220
2,42,82,128
2,40,94,124
2,42,82,216
2,33,100,178
2,40,114,254
2,40,104,236
2,42,82,126
2,40,106,142
2,42,88,216
2,33,117,230
2,33,114,112
2,32,90,128
2,30,112,218
2,30,76,308
2,32,82,130
2,33,96,38
2,35,96,4
2,35,88,100
2,35,117,76
2,37,92,6
2,38,106,514
2,40,98,376
2,28,90,2
2,33,100,114
2,40,114,254
2,40,104,236
2,42,82,126
2,40,106,142
2,42,88,216
2,33,117,230
2,33,114,112
2,32,90,128
2,30,112,218
2,30,76,308
2,32,82,130
2,33,96,38
2,35,96,4
2,35,88,100
2,35,117,76
2,37,92,6
2,38,106,514
2,40,98,376
2,28,90,2
2,33,106,114
2,40,115,196
2,40,106,216
2,42,88,130
2,40,104,144
2,42,92,180
2,33,108,188
2,40,114,250
2,40,80,190
2,42,90,128
2,45,86,214
2,42,90,180
2,33,106,166
2,40,104,42
2,45,115,0
2,33,104,386
2,40,102,110
2,33,108,198
2,37,100,56
2,38,110,48
2,40,104,18
2,35,106,160
2,40,104,124
2,28,108,242
2,28,116,232
2,28,110,24
2,40,102,80
2,42,108,0
2,40,104,108
2,38,110,126
2,33,106,96
2,40,104,42
2,45,115,0
2,33,104,386
2,40,102,110
2,33,108,198
2,37,90,56
2,38,120,48
2,40,104,18
2,35,86,160
2,40,104,124
2,28,108,242
2,28,116,232
2,28,110,24
2,40,102,80
2,42,108,0
2,40,104,130
2,36,110,130
2,36,104,200
2,31,106,128
2,36,118,250
2,36,102,244
2,31,102,126
2,36,114,370
2,31,102,0
2,31,110,168
2,30,104,2
2,29,108,0
2,29,108,194
2,36,47,130
2,41,118,122
2,41,104,218
2,36,104,128
2,29,117,342
2,36,80,338
2,28,104,40
2,28,112,108
2,28,116,52
2,28,108,226
2,37,84,126
2,38,94,364
2,39,84,372
2,40,98,378
2,28,108,24
2,28,102,0
2,28,110,58
2,28,102,226
2,37,94,130
2,38,115,34
2,39,92,4
2,40,102,384
2,28,108,22
2,28,108,36
2,28,104,50
2,28,102,248
2,37,86,126
2,38,100,4
2,39,102,384
2,40,114,362
2,28,104,164
2,28,110,100
2,28,110,70
2,28,104,122
2,28,102,146
2,28,102,126
2,28,118,132
2,33,96,90
2,40,114,324
2,40,110,242
2,42,88,128
2,40,112,142
2,42,96,204
2,33,90,232
2,40,112,400
2,40,108,220
2,42,82,128
2,40,94,124
2,42,82,216
2,33,100,178
2,40,114,254
2,40,104,236
2,42,82,126
2,40,106,142
2,42,88,216
2,33,117,230
2,33,114,112
2,32,90,128
2,30,112,218
2,30,76,308
2,32,82,130
2,33,96,38
2,35,96,4
2,35,88,100
2,35,117,76
2,37,92,6
2,38,106,514
2,40,98,376
2,28,90,2
2,33,100,114
2,40,114,254
2,40,104,236
2,42,82,126
2,40,106,142
2,42,88,216
2,33,117,230
2,33,114,112
2,32,90,128
2,30,112,218
2,30,76,308
2,32,82,130
2,33,96,38
2,35,96,4
2,35,88,100
2,35,117,76
2,37,92,6
2,38,106,514
2,40,98,376
2,28,90,2
2,33,115,114
2,40,114,204
2,40,100,220
2,42,104,132
2,40,110,170
2,42,84,182
2,33,112,168
2,40,108,294
2,40,106,178
2,42,86,96
2,40,98,122
2,42,86,182
2,33,106,174
2,40,115,196
2,40,106,216
2,42,88,130
2,40,104,144
2,42,92,180
2,33,108,188
2,40,114,250
2,40,80,190
2,42,90,128
2,45,86,214
2,42,90,180
2,33,108,166
2,40,114,250
2,40,80,190
2,42,90,128
2,45,86,214
2,42,90,180
2,33,108,166
3,64,98,2106
3,56,86,2
3,59,106,0
3,62,94,116
3,57,80,2
3,54,67,0
3,64,94,600
3,56,84,0
3,59,88,2
3,54,74,78
3,62,92,0
3,57,59,2
3,64,102,622
3,56,84,2
3,59,90,2
3,62,92,102
3,54,76,0
3,57,55,2
3,56,86,626
3,64,90,0
3,59,92,0
3,57,69,62
3,54,67,0
3,62,82,2
3,64,98,1024
3,59,104,6
3,56,82,0
3,54,63,0
3,57,55,2
3,62,74,14
3,56,82,670
3,64,100,2
3,59,104,4
3,57,59,628
3,54,65,2
3,62,78,16
3,56,80,748
3,64,96,2
3,59,96,8
3,57,71,602
3,54,78,0
3,62,78,16
3,64,86,992
3,59,106,4
3,56,82,0
3,59,94,136
3,54,84,2
3,61,84,6
3,59,80,12
3,64,84,0
3,57,90,2
3,54,67,2
3,62,78,136
3,57,100,6
3,59,92,4
3,54,74,2
3,57,92,294
3,64,74,0
3,54,74,2
3,59,88,4
3,56,80,904
3,64,96,2
3,59,96,8
3,57,71,602
3,54,78,0
3,62,78,16
3,64,86,992
3,59,106,4
3,56,82,0
3,61,84,154
3,59,94,0
3,54,84,0
3,59,80,18
3,64,84,0
3,57,90,2
3,54,67,0
3,54,74,126
3,57,100,2
3,62,78,4
3,59,92,0
3,57,92,308
3,64,74,0
3,54,74,2
3,59,88,4
3,54,74,132
3,64,102,622
3,56,84,2
3,59,90,2
3,62,92,102
3,54,76,0
3,57,55,2
3,56,86,626
3,64,90,0
3,59,92,0
3,57,69,62
3,54,67,0
3,62,82,2
3,64,98,1024
3,59,104,6
3,56,82,0
3,54,63,0
3,57,55,2
3,62,74,14
3,56,82,670
3,64,100,2
3,59,104,4
3,57,59,628
3,54,65,2
3,62,78,16
3,56,80,748
3,64,96,2
3,59,96,8
3,57,71,602
3,54,78,0
3,62,78,16
3,64,86,992
3,59,106,4
3,56,82,0
3,59,94,136
3,54,84,2
3,61,84,6
3,59,80,12
3,64,84,0
3,57,90,2
3,54,67,2
3,62,78,136
3,57,100,6
3,59,92,4
3,54,74,2
3,57,92,294
3,64,74,0
3,54,74,2
3,59,88,4
3,56,80,904
3,64,96,2
3,59,96,8
3,57,71,602
3,54,78,0
3,62,78,16
3,64,86,992
3,59,106,4
3,56,82,0
3,61,84,154
3,59,94,0
3,54,84,0
3,59,80,18
3,64,84,0
3,57,90,2
3,54,67,0
3,54,74,126
3,57,100,2
3,62,78,4
3,59,92,0
3,57,92,308
3,64,74,0
3,54,74,2
3,59,88,4
3,54,74,132
3,64,102,622
3,56,84,2
3,59,90,2
3,62,92,102
3,54,76,0
3,57,55,2
3,56,86,626
3,64,90,0
3,59,92,0
3,57,69,62
3,54,67,0
3,62,82,2
3,68,74,280
3,64,104,0
3,57,78,0
3,61,84,0
3,64,102,162
3,57,84,0
3,61,73,0
3,68,82,0
3,57,98,38
3,61,90,0
3,64,112,2
3,68,71,0
3,59,71,234
3,69,88,0
3,66,76,0
3,62,108,2
3,59,86,126
3,66,84,0
3,62,104,0
3,69,94,0
3,59,90,48
3,66,86,0
3,62,94,0
3,69,47,2
3,68,84,270
3,57,96,0
3,64,104,2
3,61,82,0
3,61,80,160
3,64,94,0
3,57,92,2
3,68,82,0
3,68,76,82
3,57,96,0
3,61,78,0
3,64,108,0
3,59,55,178
3,66,74,2
3,69,94,0
3,62,86,0
3,59,76,134
3,66,80,0
3,62,96,0
3,69,100,0
3,59,67,22
3,69,88,0
3,66,84,0
3,62,102,0
