track,note,velocity,time
1,66,62,1
1,66,0,360
1,71,50,0
1,69,55,59
1,71,0,1
1,69,0,59
1,61,62,1
1,67,62,0
1,67,0,60
1,61,0,0
1,61,57,300
1,66,57,0
1,66,0,60
1,61,0,0
1,67,60,60
1,61,60,0
1,61,0,240
1,67,0,0
1,61,62,240
1,71,62,0
1,71,0,480
1,61,0,0
1,69,64,0
1,62,64,0
1,62,0,960
1,69,0,0
1,74,64,0
1,69,64,0
1,69,0,480
1,74,0,0
1,73,64,0
1,67,64,0
1,67,0,60
1,73,0,0
1,66,56,300
1,71,56,0
1,71,0,60
1,66,0,0
1,69,60,60
1,64,60,0
1,64,0,240
1,69,0,0
1,79,67,240
1,67,67,0
1,69,67,0
1,69,0,480
1,67,0,0
1,79,0,0
1,66,67,0
1,74,67,0
1,78,67,0
1,78,0,60
1,74,0,0
1,66,0,0
1,67,59,300
1,76,59,0
1,73,59,0
1,73,0,60
1,76,0,0
1,67,0,0
1,69,56,60
1,74,56,0
1,74,0,240
1,69,0,0
1,66,58,240
1,66,0,360
1,71,50,0
1,69,55,59
1,71,0,1
1,69,0,59
1,67,61,1
1,61,61,0
1,61,0,90
1,67,0,0
1,66,57,270
1,61,57,0
1,61,0,60
1,66,0,0
1,67,61,60
1,61,61,0
1,61,0,240
1,67,0,0
1,61,64,240
1,71,64,0
1,71,0,480
1,61,0,0
1,62,64,0
1,69,64,0
1,69,0,960
1,62,0,0
1,74,60,0
1,69,60,0
1,74,0,360
1,73,56,0
1,73,0,120
1,69,0,0
1,73,60,0
1,69,60,0
1,74,54,240
1,73,0,24
1,76,57,216
1,74,0,24
1,78,60,216
1,76,0,24
1,78,0,216
1,69,0,0
1,78,62,0
1,74,45,0
1,78,0,360
1,80,55,0
1,80,0,120
1,80,51,0
1,80,0,480
1,74,0,0
1,81,46,0
1,73,40,0
1,73,0,360
1,81,0,0
1,66,59,0
1,66,0,360
1,71,50,0
1,71,0,60
1,69,55,0
1,69,0,60
1,61,63,0
1,67,63,0
1,67,0,60
1,61,0,0
1,61,56,300
1,66,56,0
1,66,0,60
1,61,0,0
1,61,60,60
1,67,60,0
1,67,0,240
1,61,0,0
1,61,63,240
1,71,63,0
1,71,0,480
1,61,0,0
1,62,63,0
1,69,63,0
1,69,0,960
1,62,0,0
1,69,64,0
1,74,64,0
1,74,0,480
1,69,0,0
1,67,64,0
1,73,64,0
1,73,0,60
1,67,0,0
1,66,57,300
1,71,57,0
1,71,0,60
1,66,0,0
1,64,60,60
1,69,60,0
1,69,0,240
1,64,0,0
1,67,68,240
1,69,68,0
1,79,68,0
1,79,0,480
1,69,0,0
1,67,0,0
1,66,68,0
1,74,68,0
1,78,68,0
1,78,0,60
1,74,0,0
1,66,0,0
1,67,60,300
1,73,60,0
1,76,60,0
1,76,0,60
1,73,0,0
1,67,0,0
1,69,57,60
1,74,57,0
1,74,0,240
1,69,0,0
1,66,59,240
1,66,0,360
1,71,50,0
1,69,55,59
1,71,0,1
1,69,0,59
1,61,65,1
1,67,65,0
1,67,0,90
1,61,0,0
1,61,57,270
1,66,57,0
1,66,0,60
1,61,0,0
1,61,60,60
1,67,60,0
1,67,0,240
1,61,0,0
1,61,63,240
1,71,63,0
1,71,0,480
1,61,0,0
1,62,63,0
1,69,63,0
1,69,0,960
1,62,0,0
1,74,60,0
1,69,60,0
1,74,0,360
1,73,56,0
1,73,0,120
1,69,0,0
1,73,60,0
1,69,60,0
1,74,54,240
1,73,0,24
1,76,57,216
1,74,0,24
1,78,60,216
1,76,0,24
1,78,0,216
1,69,0,0
1,74,45,0
1,78,62,0
1,78,0,360
1,80,55,0
1,80,0,120
1,80,51,0
1,80,0,480
1,74,0,0
1,73,40,0
1,81,46,0
1,81,0,360
1,73,0,0
1,72,41,120
1,76,41,0
1,78,41,240
1,76,0,24
1,72,0,216
1,71,40,0
1,79,45,0
1,78,0,24
1,81,41,216
1,79,0,24
1,79,41,216
1,81,0,24
1,78,41,216
1,79,0,24
1,71,0,216
1,75,40,0
1,79,43,0
1,78,0,24
1,78,45,216
1,79,0,24
1,75,0,216
1,72,47,0
1,76,47,0
1,78,0,24
1,76,0,936
1,72,0,0
1,69,44,0
1,74,44,0
1,72,43,240
1,74,0,24
1,69,0,216
1,67,41,0
1,71,41,0
1,72,0,24
1,71,0,456
1,67,0,0
1,67,44,0
1,72,44,0
1,69,43,240
1,67,0,24
1,72,0,216
1,62,42,0
1,69,42,0
1,71,42,0
1,69,0,24
1,69,0,216
1,67,41,0
1,62,0,24
1,67,0,216
1,71,0,0
1,62,37,0
1,67,37,0
1,69,37,0
1,62,0,240
1,66,35,0
1,67,0,24
1,64,34,216
1,66,0,24
1,62,32,216
1,64,0,24
1,62,0,216
1,69,0,0
1,62,42,0
1,66,42,0
1,62,0,240
1,60,45,0
1,66,0,120
1,71,40,0
1,69,44,59
1,71,0,1
1,60,0,0
1,69,0,59
1,61,49,1
1,67,49,0
1,67,0,60
1,61,0,0
1,61,44,300
1,66,44,0
1,66,0,60
1,61,0,0
1,61,47,60
1,67,47,0
1,67,0,240
1,61,0,0
1,61,49,240
1,71,49,0
1,71,0,480
1,61,0,0
1,62,51,0
1,69,51,0
1,69,0,960
1,62,0,0
1,69,51,0
1,74,51,0
1,74,0,480
1,69,0,0
1,67,51,0
1,73,51,0
1,73,0,60
1,67,0,0
1,66,45,300
1,71,45,0
1,71,0,60
1,66,0,0
1,64,49,60
1,69,49,0
1,69,0,240
1,64,0,0
1,67,53,240
1,69,53,0
1,79,53,0
1,79,0,480
1,69,0,0
1,67,0,0
1,66,53,0
1,74,53,0
1,78,53,0
1,78,0,60
1,74,0,0
1,66,0,0
1,67,48,300
1,73,48,0
1,76,48,0
1,76,0,60
1,73,0,0
1,67,0,0
1,69,45,60
1,74,45,0
1,74,0,240
1,69,0,0
1,66,56,240
1,66,0,360
1,71,50,0
1,69,55,59
1,71,0,1
1,69,0,59
1,61,61,1
1,67,61,0
1,67,0,90
1,61,0,0
1,61,56,270
1,66,56,0
1,66,0,60
1,61,0,0
1,61,59,60
1,67,59,0
1,67,0,240
1,61,0,0
1,71,60,240
1,61,60,0
1,71,0,360
1,69,56,0
1,69,0,120
1,61,0,0
1,69,60,0
1,62,60,0
1,71,52,240
1,69,0,24
1,62,0,216
1,73,54,0
1,71,0,24
1,74,55,216
1,73,0,24
1,74,0,216
1,71,57,0
1,74,57,0
1,76,59,240
1,74,0,24
1,71,0,216
1,69,61,0
1,78,61,0
1,76,0,24
1,69,0,456
1,69,52,0
1,71,51,240
1,69,0,24
1,71,0,216
1,78,0,0
1,71,48,0
1,76,48,0
1,73,48,240
1,71,0,24
1,73,46,216
1,73,0,24
1,73,0,456
1,76,0,0
1,74,38,0
1,74,0,360
1,72,41,120
1,76,41,0
1,78,41,240
1,76,0,24
1,72,0,216
1,71,40,0
1,79,45,0
1,78,0,24
1,81,41,216
1,79,0,24
1,79,41,216
1,81,0,24
1,78,41,216
1,79,0,24
1,71,0,216
1,75,40,0
1,79,43,0
1,78,0,24
1,78,45,216
1,79,0,24
1,75,0,216
1,72,47,0
1,76,47,0
1,78,0,24
1,76,0,936
1,72,0,0
1,69,44,0
1,74,44,0
1,72,43,240
1,74,0,24
1,69,0,216
1,67,41,0
1,71,41,0
1,72,0,24
1,71,0,456
1,67,0,0
1,67,44,0
1,72,44,0
1,69,43,240
1,67,0,24
1,69,0,216
1,72,0,0
1,62,42,0
1,69,42,0
1,71,42,0
1,69,0,240
1,62,0,0
1,67,41,0
1,67,0,240
1,71,0,0
1,62,37,0
1,67,37,0
1,69,37,0
1,62,0,240
1,66,35,0
1,67,0,24
1,64,34,216
1,66,0,24
1,62,32,216
1,64,0,24
1,62,0,216
1,69,0,0
1,62,42,0
1,66,42,0
1,62,0,240
1,60,45,0
1,66,0,120
1,71,40,0
1,69,44,59
1,71,0,1
1,60,0,0
1,69,0,59
1,61,49,1
1,67,49,0
1,67,0,60
1,61,0,0
1,61,47,300
1,66,47,0
1,66,0,60
1,61,0,0
1,61,50,60
1,67,50,0
1,67,0,240
1,61,0,0
1,61,49,240
1,71,49,0
1,71,0,480
1,61,0,0
1,62,51,0
1,69,51,0
1,69,0,960
1,62,0,0
1,69,51,0
1,74,51,0
1,74,0,480
1,69,0,0
1,67,51,0
1,73,51,0
1,73,0,60
1,67,0,0
1,66,47,300
1,71,47,0
1,71,0,60
1,66,0,0
1,64,50,60
1,69,50,0
1,69,0,240
1,64,0,0
1,67,53,240
1,69,53,0
1,79,53,0
1,79,0,480
1,69,0,0
1,67,0,0
1,66,53,0
1,74,53,0
1,78,53,0
1,78,0,60
1,74,0,0
1,66,0,0
1,67,49,300
1,73,49,0
1,76,49,0
1,76,0,60
1,73,0,0
1,67,0,0
1,69,48,60
1,74,48,0
1,74,0,240
1,69,0,0
1,66,56,240
1,66,0,360
1,71,50,0
1,69,55,59
1,71,0,1
1,69,0,59
1,61,61,1
1,67,61,0
1,67,0,90
1,61,0,0
1,61,53,270
1,66,53,0
1,66,0,60
1,61,0,0
1,61,57,60
1,67,57,0
1,67,0,240
1,61,0,0
1,71,60,240
1,61,60,0
1,71,0,360
1,69,56,0
1,69,0,120
1,61,0,0
1,69,60,0
1,62,60,0
1,71,52,240
1,69,0,24
1,62,0,216
1,73,54,0
1,71,0,24
1,74,55,216
1,73,0,24
1,74,0,216
1,71,57,0
1,74,57,0
1,76,59,240
1,74,0,24
1,71,0,216
1,69,61,0
1,78,61,0
1,76,0,24
1,69,0,456
1,69,52,0
1,71,51,240
1,69,0,24
1,71,0,216
1,78,0,0
1,71,48,0
1,76,48,0
1,73,48,240
1,71,0,24
1,73,46,216
1,73,0,24
1,73,0,456
1,76,0,0
1,74,38,0
1,74,0,480
2,50,51,1
2,57,51,0
2,57,0,480
2,50,0,0
2,57,56,0
2,52,56,0
2,52,0,41
2,57,0,0
2,51,47,300
2,57,47,0
2,57,0,60
2,51,0,0
2,52,51,60
2,57,51,0
2,57,0,240
2,52,0,0
2,57,55,240
2,55,55,0
2,55,0,463
2,57,0,0
2,54,55,0
2,57,55,0
2,57,0,40
2,54,0,0
2,57,49,300
2,53,49,0
2,53,0,60
2,57,0,0
2,57,52,60
2,54,52,0
2,54,0,240
2,57,0,0
2,57,55,240
2,54,55,0
2,54,0,463
2,57,0,0
2,52,55,0
2,57,55,0
2,57,0,39
2,52,0,0
2,57,52,300
2,50,52,0
2,50,0,60
2,57,0,0
2,57,56,60
2,49,56,0
2,49,0,240
2,57,0,0
2,45,61,240
2,57,61,0
2,57,0,473
2,45,0,0
2,57,58,0
2,50,58,0
2,50,0,39
2,57,0,0
2,52,56,300
2,57,56,0
2,57,0,60
2,52,0,0
2,57,53,60
2,54,53,0
2,54,0,240
2,57,0,0
2,50,50,240
2,57,50,0
2,57,0,480
2,50,0,0
2,52,56,0
2,57,56,0
2,57,0,71
2,52,0,0
2,57,53,270
2,51,53,0
2,51,0,60
2,57,0,0
2,57,56,60
2,52,56,0
2,52,0,240
2,57,0,0
2,55,58,240
2,57,58,0
2,57,0,457
2,55,0,0
2,57,58,0
2,54,58,0
2,54,0,72
2,57,0,0
2,53,54,270
2,57,54,0
2,57,0,60
2,53,0,0
2,57,58,60
2,54,58,0
2,54,0,240
2,57,0,0
2,57,52,240
2,54,52,0
2,57,0,240
2,59,49,0
2,59,0,240
2,54,0,0
2,52,48,0
2,61,48,0
2,62,50,240
2,61,0,24
2,52,0,216
2,64,51,0
2,62,0,24
2,66,53,216
2,64,0,24
2,66,0,216
2,66,55,0
2,64,45,0
2,66,0,360
2,68,48,0
2,68,0,120
2,68,45,0
2,68,0,480
2,64,0,0
2,57,37,0
2,69,37,0
2,69,0,351
2,57,0,0
2,50,50,0
2,57,50,0
2,57,0,480
2,50,0,0
2,52,58,0
2,57,58,0
2,57,0,40
2,52,0,0
2,51,54,300
2,57,54,0
2,57,0,60
2,51,0,0
2,52,57,60
2,57,57,0
2,57,0,240
2,52,0,0
2,55,57,240
2,57,57,0
2,57,0,451
2,55,0,0
2,54,57,0
2,57,57,0
2,57,0,37
2,54,0,0
2,53,53,300
2,57,53,0
2,57,0,60
2,53,0,0
2,54,57,60
2,57,57,0
2,57,0,240
2,54,0,0
2,54,56,0
2,57,56,0
2,57,0,480
2,54,0,0
2,52,56,0
2,57,56,0
2,57,0,39
2,52,0,0
2,50,53,300
2,57,53,0
2,57,0,60
2,50,0,0
2,49,57,60
2,57,57,0
2,57,0,240
2,49,0,0
2,45,60,240
2,57,60,0
2,57,0,459
2,45,0,0
2,50,57,0
2,57,57,0
2,57,0,40
2,50,0,0
2,52,55,300
2,57,55,0
2,57,0,60
2,52,0,0
2,54,55,60
2,57,55,0
2,57,0,240
2,54,0,0
2,50,52,240
2,57,52,0
2,57,0,452
2,50,0,0
2,52,56,0
2,57,56,0
2,57,0,71
2,52,0,0
2,51,53,270
2,57,53,0
2,57,0,60
2,51,0,0
2,52,55,60
2,57,55,0
2,57,0,240
2,52,0,0
2,55,56,240
2,57,56,0
2,57,0,451
2,55,0,0
2,54,56,0
2,57,56,0
2,57,0,67
2,54,0,0
2,53,54,270
2,57,54,0
2,57,0,60
2,53,0,0
2,54,58,60
2,57,58,0
2,57,0,240
2,54,0,0
2,57,52,240
2,54,52,0
2,57,0,240
2,59,49,0
2,59,0,240
2,54,0,0
2,61,48,0
2,52,48,0
2,62,50,240
2,61,0,24
2,52,0,216
2,64,51,0
2,62,0,24
2,66,53,216
2,64,0,24
2,66,0,216
2,64,45,0
2,66,55,0
2,66,0,360
2,68,48,0
2,68,0,120
2,68,45,0
2,68,0,480
2,64,0,0
2,69,37,0
2,57,37,0
2,57,0,358
2,69,0,0
2,57,41,120
2,64,41,0
2,66,41,240
2,64,0,24
2,57,0,216
2,59,40,0
2,67,44,0
2,66,0,24
2,69,41,216
2,67,0,24
2,67,41,216
2,69,0,24
2,66,39,216
2,67,0,24
2,59,0,216
2,59,40,0
2,67,41,0
2,66,0,24
2,66,44,216
2,67,0,24
2,59,0,216
2,60,46,0
2,64,46,0
2,66,0,24
2,59,43,216
2,60,0,24
2,57,42,216
2,59,0,24
2,55,41,216
2,57,0,24
2,55,0,216
2,64,0,0
2,55,44,0
2,62,44,0
2,54,43,240
2,55,0,24
2,55,43,216
2,54,0,24
2,54,42,216
2,55,0,24
2,62,0,216
2,52,41,0
2,60,41,0
2,54,0,24
2,54,40,216
2,52,0,24
2,60,0,216
2,55,41,0
2,59,41,0
2,54,0,24
2,50,41,216
2,55,0,24
2,50,0,216
2,59,0,0
2,55,36,0
2,50,36,0
2,57,36,0
2,55,0,240
2,54,35,0
2,52,34,240
2,54,0,24
2,50,32,216
2,52,0,24
2,50,0,7
2,50,0,0
2,50,40,0
2,57,40,0
2,57,0,96
2,50,0,144
2,51,43,0
2,51,0,240
2,57,0,0
2,52,44,0
2,57,44,0
2,57,0,47
2,52,0,0
2,51,38,300
2,57,38,0
2,57,0,60
2,51,0,0
2,52,40,60
2,57,40,0
2,57,0,240
2,52,0,0
2,55,44,240
2,57,44,0
2,57,0,457
2,55,0,0
2,54,44,0
2,57,44,0
2,57,0,40
2,54,0,0
2,53,39,300
2,57,39,0
2,57,0,60
2,53,0,0
2,54,43,60
2,57,43,0
2,57,0,240
2,54,0,0
2,54,44,240
2,57,44,0
2,57,0,451
2,54,0,0
2,52,44,0
2,57,44,0
2,57,0,40
2,52,0,0
2,50,40,300
2,57,40,0
2,57,0,60
2,50,0,0
2,49,44,60
2,57,44,0
2,57,0,240
2,49,0,0
2,45,48,0
2,57,48,0
2,45,0,240
2,49,48,0
2,49,0,240
2,57,0,0
2,50,46,0
2,57,46,0
2,57,0,41
2,50,0,0
2,52,41,300
2,57,41,0
2,57,0,60
2,52,0,0
2,54,41,60
2,57,41,0
2,57,0,240
2,54,0,0
2,50,55,240
2,57,55,0
2,57,0,459
2,50,0,0
2,52,56,0
2,57,56,0
