track,note,velocity,time
0,38,98,190
0,45,86,64
0,41,84,31
0,49,80,96
0,35,85,0
0,33,118,0
0,58,84,0
0,55,85,0
0,59,78,5
0,56,69,0
0,42,48,1
0,59,76,12
0,56,79,0
0,38,92,1
0,42,61,1
0,64,103,0
0,68,86,0
0,71,94,0
0,56,91,0
0,59,111,0
0,61,79,57
0,57,79,0
0,42,34,34
0,40,117,1
0,62,99,0
0,66,82,0
0,69,92,0
0,59,89,0
0,56,89,0
0,57,85,1
0,54,72,0
0,35,86,1
0,42,54,27
0,40,103,55
0,52,114,1
0,54,104,30
0,42,107,0
0,42,54,1
0,59,90,12
0,40,113,30
0,57,93,1
0,42,56,1
0,38,88,0
0,52,102,0
0,42,87,46
0,59,102,0
0,46,60,1
0,35,82,0
0,54,96,0
0,33,115,39
0,68,78,0
0,71,90,0
0,58,109,0
0,42,63,1
0,35,83,0
0,55,109,0
0,59,89,0
0,56,89,0
0,42,56,1
0,59,77,12
0,56,77,0
0,38,93,3
0,42,67,0
0,64,99,0
0,56,89,0
0,59,93,0
0,61,89,59
0,57,89,0
0,35,67,2
0,42,56,1
0,69,88,18
0,59,93,0
0,56,93,0
0,54,79,1
0,62,97,0
0,73,88,0
0,57,64,1
0,35,92,1
0,40,111,2
0,42,63,5
0,57,90,36
0,52,114,0
0,40,109,9
0,54,93,23
0,54,125,0
0,42,56,1
0,42,89,0
0,40,101,30
0,52,95,1
0,42,59,1
0,38,99,0
0,52,108,0
0,42,89,30
0,54,97,0
0,46,62,1
0,35,87,9
0,33,109,1
0,58,113,0
0,42,69,1
0,71,86,0
0,68,82,0
0,55,97,0
0,35,86,1
0,64,104,1
0,68,112,0
0,56,79,1
0,42,61,1
0,59,66,0
0,56,86,12
0,66,101,0
0,69,107,0
0,59,83,1
0,42,65,2
0,38,97,0
0,64,107,0
0,56,89,0
0,64,92,0
0,59,95,1
0,68,98,0
0,57,89,57
0,61,89,1
0,49,102,0
0,69,85,0
0,66,82,1
0,42,58,1
0,35,78,0
0,40,118,12
0,62,97,0
0,54,81,0
0,56,89,0
0,68,100,0
0,64,95,0
0,35,85,1
0,57,60,0
0,59,86,0
0,50,98,0
0,69,78,1
0,66,71,0
0,42,59,1
0,40,109,53
0,66,104,0
0,52,116,1
0,62,98,0
0,42,91,0
0,42,50,1
0,35,74,0
0,54,92,0
0,59,89,5
0,40,107,6
0,57,86,0
0,42,59,1
0,38,100,0
0,52,116,0
0,61,90,0
0,57,85,0
0,46,60,46
0,35,68,0
0,42,95,0
0,59,102,0
0,54,88,0
0,59,84,0
0,62,90,0
0,61,91,1
0,64,96,1
0,33,111,31
0,68,78,0
0,71,98,0
0,42,65,1
0,35,72,0
0,58,109,0
0,55,109,0
0,56,89,1
0,59,86,1
0,42,58,1
0,59,84,12
0,56,77,0
0,42,59,3
0,56,91,0
0,64,95,0
0,59,97,0
0,38,100,1
0,61,95,57
0,35,73,1
0,57,89,0
0,42,61,1
0,40,117,5
0,59,95,0
0,56,93,0
0,57,74,1
0,54,72,0
0,73,90,0
0,69,98,0
0,35,87,1
0,62,87,0
0,42,58,4
0,40,83,48
0,57,92,1
0,88,70,0
0,52,98,1
0,42,93,0
0,54,90,0
0,85,72,0
0,54,61,1
0,42,61,1
0,90,70,21
0,45,89,1
0,57,104,0
0,88,68,0
0,42,65,1
0,38,99,1
0,52,100,0
0,35,89,1
0,57,82,5
0,88,74,0
0,42,93,20
0,54,86,0
0,61,114,0
0,85,56,0
0,46,58,0
0,54,86,0
0,62,83,0
0,64,109,0
0,49,82,2
0,33,99,0
0,71,86,0
0,68,82,0
0,52,89,0
0,35,83,1
0,52,72,8
0,52,89,6
0,64,104,0
0,42,38,0
0,52,91,7
0,64,108,0
0,64,103,27
0,59,109,1
0,56,87,0
0,42,56,5
0,38,95,0
0,54,95,3
0,61,109,0
0,35,91,17
0,42,40,1
0,54,68,0
0,57,60,1
0,62,79,3
0,52,91,1
0,40,117,1
0,59,112,0
0,35,90,0
0,69,78,0
0,66,71,0
0,42,61,19
0,52,106,58
0,57,95,0
0,40,113,0
0,54,98,31
0,59,106,0
0,42,61,0
0,42,91,0
0,35,90,3
0,52,91,0
0,42,61,12
0,38,101,0
0,40,115,0
0,49,97,0
0,52,112,0
0,42,99,51
0,61,106,0
0,46,54,0
0,35,89,0
0,50,109,0
0,50,98,0
0,62,101,0
0,64,111,0
0,33,93,1
0,68,78,0
0,71,98,0
0,52,95,0
0,42,71,1
0,35,85,0
0,52,71,5
0,52,76,7
0,64,101,0
0,42,65,0
0,64,109,0
0,52,89,0
0,56,87,32
0,64,105,0
0,59,109,1
0,42,67,1
0,38,103,0
0,61,101,0
0,54,86,0
0,42,52,4
0,35,94,0
0,57,64,3
0,40,115,1
0,54,70,0
0,59,106,0
0,73,90,0
0,69,98,0
0,52,76,1
0,62,83,0
0,42,67,6
0,35,83,56
0,40,111,0
0,57,104,1
0,52,104,0
0,42,85,0
0,54,98,0
0,42,61,2
0,54,85,0
0,35,87,30
0,40,97,1
0,49,101,0
0,42,63,1
0,38,98,0
0,52,102,0
0,50,103,45
0,61,114,0
0,46,60,0
0,42,85,0
0,50,77,1
0,62,81,0
0,33,103,20
0,64,111,0
0,42,67,1
0,35,81,0
0,71,86,0
0,68,82,0
0,52,95,0
0,52,72,12
0,52,74,2
0,64,104,0
0,42,32,0
0,64,106,0
0,52,89,1
0,38,97,31
0,42,69,2
0,56,85,1
0,64,101,0
0,59,101,0
0,54,99,4
0,61,103,0
0,49,93,31
0,42,52,1
0,35,90,0
0,57,76,0
0,54,83,1
0,59,107,0
0,40,117,0
0,52,92,0
0,62,83,1
0,35,87,1
0,69,78,0
0,66,71,0
0,42,59,19
0,52,106,2
0,57,98,0
0,40,107,0
0,35,87,1
0,42,85,0
0,54,94,0
0,59,109,0
0,42,61,0
0,52,77,4
0,42,65,3
0,49,96,0
0,38,99,1
0,35,84,0
0,40,109,0
0,52,104,0
0,61,108,0
0,46,60,0
0,42,91,0
0,50,101,0
0,50,98,0
0,62,98,0
0,64,109,0
0,68,78,0
0,71,98,0
0,52,103,0
0,42,69,1
0,35,81,0
0,33,120,0
0,52,78,9
0,52,93,6
0,64,104,0
0,42,50,0
0,64,109,0
0,52,88,0
0,64,91,2
0,38,97,2
0,42,67,0
0,59,111,0
0,56,87,0
0,52,98,1
0,61,101,0
0,33,117,0
0,54,100,0
0,54,104,9
0,42,48,1
0,35,84,0
0,32,93,0
0,66,101,0
0,30,115,0
0,73,98,0
0,71,90,0
0,64,97,0
0,35,92,1
0,59,95,0
0,64,40,0
0,59,32,0
0,66,63,0
0,59,107,0
0,59,99,1
0,54,89,1
0,61,89,0
0,42,65,27
0,64,108,0
0,42,42,1
0,61,104,0
0,42,59,32
0,38,100,0
0,35,82,0
0,57,101,0
0,46,62,0
0,30,79,0
0,32,85,0
0,59,105,0
0,35,82,0
0,33,99,0
0,42,69,1
0,35,91,0
0,59,85,0
0,64,89,0
0,57,95,0
0,74,86,0
0,71,82,0
0,35,99,1
0,54,72,0
0,76,115,58
0,42,58,2
0,64,66,0
0,42,65,90
0,38,98,1
0,81,100,42
0,62,70,10
0,35,77,29
0,42,61,1
0,35,87,1
0,35,91,0
0,69,78,1
0,66,71,0
0,83,104,6
0,42,56,1
0,35,120,0
0,62,83,2
0,57,64,0
0,57,105,2
0,59,97,1
0,54,79,0
0,42,61,87
0,85,86,35
0,37,95,1
0,35,88,2
0,42,65,26
0,38,101,2
0,86,90,2
0,38,109,0
0,46,64,1
0,35,80,0
0,88,96,8
0,57,97,4
0,64,79,0
0,54,79,0
0,59,93,1
0,40,101,0
0,42,67,1
0,35,87,0
0,69,64,0
0,76,64,0
0,42,42,18
0,42,63,79
0,38,99,0
0,42,56,91
0,57,115,0
0,35,83,1
0,28,93,0
0,62,119,0
0,42,61,0
0,61,114,0
0,42,59,0
0,57,112,0
0,38,102,0
0,42,65,0
0,54,117,0
0,46,62,33
0,52,111,0
0,35,85,28
0,42,67,1
0,33,103,0
0,71,86,0
0,68,82,0
0,58,97,0
0,55,97,0
0,59,79,5
0,56,79,0
0,42,34,1
0,59,86,12
0,56,86,0
0,68,69,27
0,64,84,0
0,42,69,2
0,38,100,0
0,56,85,1
0,64,101,0
0,59,101,2
0,61,89,57
0,57,89,0
0,35,83,33
0,42,46,1
0,62,78,38
0,66,76,0
0,57,76,0
0,54,83,1
0,40,117,3
0,59,89,0
0,56,89,0
0,62,83,1
0,35,81,1
0,69,78,0
0,66,71,0
0,42,63,19
0,40,107,58
0,52,114,0
0,42,85,0
0,54,104,0
0,42,63,2
0,35,86,5
0,59,90,0
0,57,93,1
0,42,61,1
0,38,102,0
0,40,109,0
0,52,102,0
0,59,102,47
0,46,58,1
0,35,87,0
0,42,91,0
0,54,96,0
0,64,43,1
0,68,78,3
0,71,98,0
0,58,109,0
0,42,59,1
0,35,87,0
0,33,120,0
0,55,109,0
0,52,80,0
0,56,82,0
0,59,89,0
0,56,89,0
0,42,48,1
0,54,88,33
0,57,96,0
0,59,77,12
0,56,77,0
0,64,91,1
0,42,71,2
0,38,102,0
0,59,111,0
0,56,87,0
0,56,82,1
0,52,71,0
0,33,117,3
0,61,89,0
0,57,89,0
0,42,56,6
0,35,87,0
0,32,93,0
0,57,92,0
0,54,86,1
0,52,76,21
0,56,76,1
0,59,93,0
0,56,93,0
0,30,115,0
0,73,98,0
0,71,90,0
0,35,87,1
0,64,40,0
0,59,32,0
0,66,63,0
0,61,89,2
0,59,99,0
0,54,89,0
0,66,78,0
0,42,65,5
0,52,88,43
0,54,84,2
0,59,90,8
0,52,114,0
0,54,93,32
0,54,125,0
0,64,111,0
0,42,61,0
0,35,84,14
0,49,84,2
0,61,102,0
0,38,99,1
0,52,95,0
0,42,69,1
0,52,108,0
0,71,73,0
0,57,107,0
0,47,71,29
0,54,97,1
0,59,108,0
0,46,62,0
0,35,78,0
0,30,79,0
0,32,85,0
0,33,99,0
0,42,69,1
0,35,90,0
0,59,85,0
0,64,89,0
0,57,95,0
0,74,86,0
0,71,82,0
0,64,82,0
0,35,99,1
0,54,72,0
0,76,115,58
0,42,44,2
0,64,66,1
0,38,101,89
0,42,65,1
0,81,100,42
0,62,70,10
0,69,67,4
0,42,48,26
0,35,91,1
0,69,78,1
0,66,71,0
0,83,104,6
0,71,86,4
0,42,65,1
0,35,120,0
0,35,95,2
0,54,79,0
0,57,105,0
0,62,83,1
0,59,97,0
0,57,64,0
0,42,48,17
0,85,86,36
0,73,82,0
0,37,95,1
0,42,61,33
0,38,99,1
0,74,86,77
0,86,90,2
0,38,109,0
0,42,58,1
0,35,91,0
0,88,96,8
0,76,80,2
0,57,97,2
0,64,79,0
0,54,79,0
0,59,93,1
0,49,84,1
0,40,101,0
0,35,88,1
0,69,64,0
0,76,64,0
0,54,111,0
0,57,115,0
0,54,94,0
0,62,114,0
0,28,93,0
0,35,85,1
0,61,104,0
0,57,107,0
0,38,100,2
0,52,113,0
0,46,62,1
0,42,69,1
0,57,107,0
0,35,83,28
0,49,90,1
0,33,109,0
0,54,79,0
0,71,86,0
0,68,82,0
0,58,113,0
0,55,97,0
0,42,30,1
0,56,79,0
0,59,66,1
0,56,86,12
0,59,83,1
0,38,99,2
0,42,58,0
0,64,107,0
0,56,89,0
0,59,95,1
0,57,89,57
0,61,89,1
0,49,102,0
0,35,82,1
0,42,36,1
0,40,118,12
0,62,97,0
0,54,81,0
0,56,89,0
0,57,60,1
0,59,86,0
0,50,98,0
0,35,85,1
0,69,78,0
0,66,71,0
0,42,56,1
0,40,109,53
0,52,116,1
0,35,78,1
0,42,91,0
0,42,52,1
0,54,92,0
0,59,89,5
0,38,97,6
0,40,107,0
0,57,86,0
0,42,65,1
0,35,79,0
0,52,116,0
0,46,62,45
0,42,95,1
0,59,102,0
0,54,88,0
0,33,111,47
0,68,78,0
0,71,98,0
0,49,82,1
0,58,109,0
0,55,109,0
0,35,85,1
0,64,86,3
0,68,100,0
0,56,89,1
0,42,36,1
0,59,86,0
0,66,92,0
0,69,104,0
0,59,84,12
0,56,77,0
0,38,97,2
0,42,56,1
0,56,91,0
0,64,95,0
0,59,97,0
0,64,94,1
0,68,102,0
0,61,95,58
0,57,89,1
0,42,36,1
0,35,85,0
0,64,100,0
0,61,93,0
0,40,117,1
0,59,95,0
0,56,93,0
0,62,92,0
0,57,74,1
0,54,72,0
0,73,90,0
0,69,98,0
0,35,90,1
0,62,87,0
0,66,104,0
0,42,48,4
0,40,83,48
0,57,92,1
0,88,70,0
0,35,87,1
0,52,98,0
0,42,93,0
0,54,90,0
0,85,72,0
0,54,61,1
0,42,65,1
0,90,70,21
0,45,89,1
0,57,104,0
0,88,68,0
0,38,88,2
0,35,80,0
0,52,100,0
0,57,82,5
0,88,74,0
0,42,93,31
0,54,86,0
0,61,114,0
0,85,56,0
0,54,86,1
0,38,96,1
0,62,83,0
0,64,109,0
0,49,82,2
0,33,99,0
0,71,86,0
0,68,82,0
0,52,89,0
0,35,83,1
0,52,72,8
0,52,89,6
0,64,104,0
0,42,38,0
0,52,91,7
0,64,108,0
0,64,103,27
0,59,109,1
0,56,87,0
0,42,56,5
0,38,95,0
0,54,95,3
0,61,109,0
0,35,91,17
0,42,40,1
0,54,68,0
0,57,60,1
0,62,79,3
0,52,91,1
0,40,117,1
0,59,112,0
0,35,90,0
0,69,78,0
0,66,71,0
0,42,61,19
0,52,106,58
0,57,95,0
0,40,113,0
0,54,98,31
0,59,106,0
0,42,61,0
0,42,91,0
0,35,90,3
0,52,91,0
0,42,61,12
0,38,101,0
0,40,115,0
0,49,97,0
0,52,112,0
0,42,99,51
0,61,106,0
0,46,54,0
0,35,89,0
0,50,109,0
0,50,98,0
0,62,101,0
0,64,111,0
0,33,93,1
0,68,78,0
0,71,98,0
0,52,95,0
0,42,71,1
0,35,85,0
0,52,71,5
0,52,76,7
0,64,101,0
0,42,65,0
0,64,109,0
0,52,89,0
0,56,87,32
0,64,105,0
0,59,109,1
0,42,67,1
0,38,103,0
0,61,101,0
0,54,86,0
0,42,52,4
0,35,94,0
0,57,64,7
0,40,115,1
0,54,70,0
0,59,106,0
0,73,90,0
0,69,98,0
0,52,76,1
0,62,83,0
0,42,67,6
0,35,83,56
0,40,111,0
0,57,104,1
0,52,104,0
0,42,85,0
0,54,98,0
0,42,61,2
0,54,85,0
0,35,87,30
0,40,97,1
0,49,101,0
0,42,63,1
0,38,98,0
0,52,102,0
0,50,103,45
0,61,114,0
0,46,60,0
0,42,85,0
0,50,77,1
0,62,81,0
0,33,103,20
0,64,111,0
0,42,67,1
0,35,81,0
0,71,86,0
0,68,82,0
0,52,95,0
0,52,72,12
0,52,74,2
0,64,104,0
0,42,32,0
0,64,106,0
0,52,89,1
0,38,97,31
0,42,69,2
0,56,85,1
0,64,101,0
0,59,101,0
0,54,99,4
0,61,103,0
0,49,93,31
0,42,52,1
0,35,90,0
0,57,76,0
0,54,83,1
0,59,107,0
0,40,117,0
0,52,92,0
0,62,83,1
0,35,87,1
0,69,78,0
0,66,71,0
0,42,59,19
0,52,106,2
0,57,98,0
0,40,107,0
0,35,87,1
0,42,85,0
0,54,94,0
0,59,109,0
0,42,61,0
0,52,77,4
0,42,65,3
0,49,96,0
0,38,99,1
0,35,84,0
0,40,109,0
0,52,104,0
0,61,108,0
0,46,60,0
0,42,91,0
0,50,101,0
0,50,98,0
0,62,98,0
0,64,109,0
0,68,78,0
0,71,98,0
0,52,103,0
0,42,69,1
0,35,81,0
0,33,120,0
0,52,78,9
0,52,93,6
0,64,104,0
0,42,50,0
0,64,109,0
0,52,88,0
0,64,91,2
0,38,97,2
0,42,67,0
0,59,111,0
0,56,87,0
0,52,98,1
0,61,101,0
0,33,117,0
0,54,100,0
0,54,104,9
0,42,48,1
0,35,84,0
0,32,93,0
0,66,101,0
0,30,115,0
0,73,98,0
0,71,90,0
0,64,97,0
0,35,92,1
