track,note,velocity,time
1,71,127,6240
1,71,0,96
1,76,127,0
1,76,0,96
1,80,127,0
1,80,0,96
1,81,127,0
1,81,0,96
1,80,127,0
1,80,0,96
1,76,127,0
1,76,0,96
1,71,127,0
1,71,0,96
1,69,127,0
1,69,0,96
1,68,127,0
1,68,0,96
1,69,127,0
1,69,0,96
1,71,127,0
1,71,0,288
1,71,127,288
1,71,0,48
1,71,127,0
1,71,0,48
1,76,127,0
1,76,0,96
1,80,127,0
1,80,0,96
1,81,127,0
1,81,0,96
1,80,127,0
1,80,0,96
1,76,127,0
1,76,0,96
1,71,127,0
1,71,0,96
1,69,127,0
1,69,0,96
1,68,127,0
1,68,0,96
1,69,127,0
1,69,0,96
1,71,127,0
1,71,0,288
1,71,127,96
1,71,0,48
1,71,127,0
1,71,0,48
1,73,127,0
1,73,0,96
1,73,127,0
1,73,0,48
1,76,127,0
1,76,0,96
1,76,127,0
1,76,0,48
1,78,127,0
1,78,0,144
1,76,127,0
1,76,0,48
1,76,127,0
1,76,0,96
1,76,127,96
1,76,0,48
1,76,127,0
1,76,0,48
1,73,127,0
1,73,0,96
1,73,127,0
1,73,0,96
1,76,127,0
1,76,0,96
1,76,127,0
1,76,0,96
1,78,127,0
1,78,0,96
1,76,127,0
1,76,0,96
1,78,127,0
1,78,0,96
1,80,127,0
1,80,0,288
1,71,127,864
1,71,0,192
1,71,127,0
1,71,0,192
1,71,127,0
1,71,0,96
1,78,127,0
1,78,0,48
1,78,127,0
1,78,0,48
1,78,127,0
1,78,0,48
1,78,127,0
1,78,0,144
1,80,127,0
1,80,0,96
1,78,127,0
1,78,0,96
1,76,127,0
1,76,0,96
1,76,127,0
1,76,0,96
1,76,127,0
1,76,0,96
1,73,127,0
1,73,0,96
1,76,127,0
1,76,0,96
1,76,127,0
1,76,0,96
1,73,127,0
1,73,0,96
1,78,127,0
1,78,0,96
1,76,127,0
1,76,0,192
1,76,127,0
1,76,0,288
1,71,127,2976
1,71,0,96
1,76,127,0
1,76,0,96
1,80,127,0
1,80,0,96
1,81,127,0
1,81,0,96
1,80,127,0
1,80,0,96
1,76,127,0
1,76,0,96
1,71,127,0
1,71,0,96
1,69,127,0
1,69,0,96
1,68,127,0
1,68,0,96
1,69,127,0
1,69,0,96
1,71,127,0
1,71,0,288
1,71,127,288
1,71,0,48
1,71,127,0
1,71,0,48
1,76,127,0
1,76,0,96
1,80,127,0
1,80,0,96
1,81,127,0
1,81,0,96
1,80,127,0
1,80,0,96
1,76,127,0
1,76,0,96
1,71,127,0
1,71,0,96
1,69,127,0
1,69,0,96
1,68,127,0
1,68,0,96
1,69,127,0
1,69,0,96
1,71,127,0
1,71,0,288
1,71,127,96
1,71,0,48
1,71,127,0
1,71,0,48
1,73,127,0
1,73,0,96
1,73,127,0
1,73,0,48
1,76,127,0
1,76,0,96
1,76,127,0
1,76,0,48
1,78,127,0
1,78,0,144
1,76,127,0
1,76,0,48
1,76,127,0
1,76,0,96
1,76,127,96
1,76,0,48
1,76,127,0
1,76,0,48
1,73,127,0
1,73,0,96
1,73,127,0
1,73,0,96
1,76,127,0
1,76,0,96
1,76,127,0
1,76,0,96
1,78,127,0
1,78,0,96
1,76,127,0
1,76,0,96
1,78,127,0
1,78,0,96
1,80,127,0
1,80,0,288
1,71,127,864
1,71,0,192
1,71,127,0
1,71,0,192
1,71,127,0
1,71,0,96
1,78,127,0
1,78,0,48
1,78,127,0
1,78,0,48
1,78,127,0
1,78,0,48
1,78,127,0
1,78,0,144
1,80,127,0
1,80,0,96
1,78,127,0
1,78,0,96
1,76,127,0
1,76,0,96
1,76,127,0
1,76,0,96
1,76,127,0
1,76,0,96
1,73,127,0
1,73,0,96
1,76,127,0
1,76,0,96
1,76,127,0
1,76,0,96
1,73,127,0
1,73,0,96
1,78,127,0
1,78,0,96
1,76,127,0
1,76,0,192
1,76,127,0
1,76,0,288
1,74,127,5952
1,74,0,48
1,71,127,0
1,71,0,96
1,67,127,0
1,67,0,48
1,67,127,0
1,67,0,48
1,67,127,0
1,67,0,144
1,71,127,0
1,71,0,96
1,71,127,0
1,71,0,96
1,74,127,192
1,74,0,48
1,71,127,0
1,71,0,96
1,67,127,0
1,67,0,96
1,67,127,0
1,67,0,48
1,67,127,0
1,67,0,96
1,71,127,0
1,71,0,192
1,71,127,192
1,71,0,48
1,71,127,0
1,71,0,96
1,67,127,0
1,67,0,96
1,67,127,0
1,67,0,48
1,67,127,0
1,67,0,96
1,71,127,0
1,71,0,96
1,71,127,0
1,71,0,96
1,71,127,96
1,71,0,96
1,69,127,0
1,69,0,96
1,69,127,0
1,69,0,48
1,67,127,0
1,67,0,48
1,69,127,0
1,69,0,48
1,67,127,0
1,67,0,48
1,64,127,0
1,64,0,96
1,64,127,0
1,64,0,192
1,71,127,192
1,71,0,48
1,71,127,0
1,71,0,96
1,67,127,0
1,67,0,96
1,67,127,0
1,67,0,48
1,67,127,0
1,67,0,96
1,71,127,0
1,71,0,96
1,71,127,0
1,71,0,96
1,67,127,0
1,62,127,0
1,56,127,0
1,56,0,192
1,62,0,0
1,67,0,0
1,71,127,0
1,71,0,48
1,71,127,0
1,71,0,96
1,67,127,0
1,67,0,96
1,67,127,0
1,67,0,48
1,67,127,0
1,67,0,96
1,71,127,0
1,71,0,192
1,71,127,192
1,71,0,48
1,71,127,0
1,71,0,96
1,67,127,0
1,67,0,96
1,67,127,0
1,67,0,48
1,67,127,0
1,67,0,96
1,71,127,0
1,71,0,96
1,71,127,0
1,71,0,96
1,67,127,0
1,62,127,0
1,56,127,0
1,56,0,96
1,62,0,0
1,67,0,0
1,71,127,0
1,71,0,96
1,69,127,0
1,69,0,96
1,69,127,0
1,69,0,48
1,67,127,0
1,67,0,48
1,69,127,0
1,69,0,48
1,67,127,0
1,67,0,48
1,64,127,0
1,64,0,96
1,64,127,0
1,64,0,192
1,72,127,912
1,72,0,48
1,72,127,0
1,72,0,144
1,72,127,0
1,72,0,144
1,72,127,0
1,72,0,48
1,72,127,0
1,72,0,144
1,72,127,0
1,72,0,48
1,72,127,0
1,72,0,48
1,72,127,0
1,72,0,96
1,72,127,0
1,72,0,96
1,72,127,96
1,72,0,48
1,72,127,0
1,72,0,48
1,72,127,0
1,72,0,96
1,72,127,0
1,72,0,48
1,72,127,0
1,72,0,96
1,72,127,0
1,72,0,48
1,72,127,0
1,72,0,48
1,72,127,0
1,72,0,96
1,72,127,0
1,72,0,48
1,72,127,0
1,72,0,48
1,72,127,0
1,72,0,48
2,64,127,96
2,64,0,96
2,69,104,0
2,64,119,0
2,61,76,0
2,61,0,48
2,64,0,0
2,69,0,0
2,69,104,0
2,64,104,0
2,61,81,0
2,61,0,48
2,64,0,0
2,69,0,0
2,70,53,0
2,69,111,0
2,64,127,0
2,61,85,0
2,61,0,48
2,70,0,0
2,69,0,0
2,64,0,0
2,69,119,0
2,64,127,0
2,61,108,0
2,61,0,48
2,64,0,0
2,69,0,0
2,69,104,0
2,64,119,0
2,61,74,0
2,61,0,96
2,64,0,0
2,69,0,0
2,68,74,0
2,64,119,0
2,59,111,0
2,59,0,96
2,64,0,0
2,68,0,0
2,66,69,192
2,64,111,0
2,57,80,0
2,57,0,48
2,64,0,0
2,66,0,0
2,66,74,0
2,64,119,0
2,57,96,0
2,57,0,48
2,64,0,0
2,66,0,0
2,66,79,0
2,64,127,0
2,57,96,0
2,57,0,48
2,64,0,0
2,66,0,0
2,66,85,0
2,64,127,0
2,57,119,0
2,57,0,48
2,64,0,0
2,66,0,0
2,66,69,0
2,64,119,0
2,57,88,0
2,57,0,96
2,64,0,0
2,66,0,0
2,68,65,0
2,64,119,0
2,59,78,0
2,59,0,480
2,64,0,0
2,68,0,0
2,64,127,96
2,64,0,96
2,69,104,0
2,64,119,0
2,61,76,0
2,61,0,48
2,64,0,0
2,69,0,0
2,69,104,0
2,64,104,0
2,61,81,0
2,61,0,48
2,64,0,0
2,69,0,0
2,70,53,0
2,69,111,0
2,64,127,0
2,61,85,0
2,61,0,48
2,70,0,0
2,69,0,0
2,64,0,0
2,69,119,0
2,64,127,0
2,61,108,0
2,61,0,48
2,64,0,0
2,69,0,0
2,69,104,0
2,64,119,0
2,61,74,0
2,61,0,96
2,64,0,0
2,69,0,0
2,68,74,0
2,64,119,0
2,59,111,0
2,59,0,96
2,64,0,0
2,68,0,0
2,66,69,192
2,64,111,0
2,57,80,0
2,57,0,48
2,64,0,0
2,66,0,0
2,66,74,0
2,64,119,0
2,57,96,0
2,57,0,48
2,64,0,0
2,66,0,0
2,66,79,0
2,64,127,0
2,57,96,0
2,57,0,48
2,64,0,0
2,66,0,0
2,66,85,0
2,64,127,0
2,57,119,0
2,57,0,48
2,64,0,0
2,66,0,0
2,66,69,0
2,64,119,0
2,57,88,0
2,57,0,96
2,64,0,0
2,66,0,0
2,68,65,0
2,64,119,0
2,59,78,0
2,59,0,480
2,64,0,0
2,68,0,0
2,64,127,96
2,64,0,96
2,69,104,0
2,64,119,0
2,61,76,0
2,61,0,48
2,64,0,0
2,69,0,0
2,69,104,0
2,64,104,0
2,61,81,0
2,61,0,48
2,64,0,0
2,69,0,0
2,70,53,0
2,69,111,0
2,64,127,0
2,61,85,0
2,61,0,48
2,70,0,0
2,69,0,0
2,64,0,0
2,69,119,0
2,64,127,0
2,61,108,0
2,61,0,48
2,64,0,0
2,69,0,0
2,69,104,0
2,64,119,0
2,61,74,0
2,61,0,96
2,64,0,0
2,69,0,0
2,68,74,0
2,64,119,0
2,59,111,0
2,59,0,96
2,64,0,0
2,68,0,0
2,66,69,192
2,64,111,0
2,57,80,0
2,57,0,48
2,64,0,0
2,66,0,0
2,66,74,0
2,64,119,0
2,57,96,0
2,57,0,48
2,64,0,0
2,66,0,0
2,66,79,0
2,64,127,0
2,57,96,0
2,57,0,48
2,64,0,0
2,66,0,0
2,66,85,0
2,64,127,0
2,57,119,0
2,57,0,48
2,64,0,0
2,66,0,0
2,66,69,0
2,64,119,0
2,57,88,0
2,57,0,96
2,64,0,0
2,66,0,0
2,68,65,0
2,64,119,0
2,59,78,0
2,59,0,480
2,64,0,0
2,68,0,0
2,64,127,96
2,64,0,96
2,69,104,0
2,64,119,0
2,61,76,0
2,61,0,48
2,64,0,0
2,69,0,0
2,69,104,0
2,64,104,0
2,61,81,0
2,61,0,48
2,64,0,0
2,69,0,0
2,70,53,0
2,69,111,0
2,64,127,0
2,61,85,0
2,61,0,48
2,70,0,0
2,69,0,0
2,64,0,0
2,69,119,0
2,64,127,0
2,61,108,0
2,61,0,48
2,64,0,0
2,69,0,0
2,69,104,0
2,64,119,0
2,61,74,0
2,61,0,96
2,64,0,0
2,69,0,0
2,68,74,0
2,64,119,0
2,59,111,0
2,59,0,96
2,64,0,0
2,68,0,0
2,66,69,192
2,64,111,0
2,57,80,0
2,57,0,48
2,64,0,0
2,66,0,0
2,66,74,0
2,64,119,0
2,57,96,0
2,57,0,48
2,64,0,0
2,66,0,0
2,66,79,0
2,64,127,0
2,57,96,0
2,57,0,48
2,64,0,0
2,66,0,0
2,66,85,0
2,64,127,0
2,57,119,0
2,57,0,48
2,64,0,0
2,66,0,0
2,66,69,0
2,64,119,0
2,57,88,0
2,57,0,96
2,64,0,0
2,66,0,0
2,68,65,0
2,64,119,0
2,59,78,0
2,59,0,480
2,64,0,0
2,68,0,0
2,59,119,96
2,59,0,96
2,64,127,0
2,61,83,0
2,61,0,96
2,64,0,0
2,68,117,0
2,68,0,96
2,69,80,0
2,64,111,0
2,61,58,0
2,61,0,96
2,64,0,0
2,69,0,0
2,68,55,0
2,64,119,0
2,59,80,0
2,59,0,96
2,64,0,0
2,68,0,0
2,64,127,0
2,64,0,96
2,59,127,0
2,59,0,96
2,57,80,0
2,54,69,0
2,52,88,0
2,52,0,96
2,54,0,0
2,57,0,0
2,56,127,0
2,56,0,96
2,57,111,0
2,54,85,0
2,52,111,0
2,52,0,96
2,54,0,0
2,57,0,0
2,59,111,0
2,56,83,0
2,52,104,0
2,52,0,480
2,56,0,0
2,59,0,0
2,59,119,96
2,59,0,48
2,59,127,0
2,59,0,48
2,64,127,0
2,61,86,0
2,61,0,96
2,64,0,0
2,68,127,0
2,68,0,96
2,69,119,0
2,64,127,0
2,61,86,0
2,61,0,96
2,64,0,0
2,69,0,0
2,68,81,0
2,64,127,0
2,59,111,0
2,59,0,96
2,64,0,0
2,68,0,0
2,64,127,0
2,64,0,96
2,59,127,0
2,59,0,96
2,57,104,0
2,54,108,0
2,52,127,0
2,52,0,96
2,54,0,0
2,57,0,0
2,56,98,0
2,56,0,96
2,57,119,0
2,54,117,0
2,52,119,0
2,52,0,96
2,54,0,0
2,57,0,0
2,59,119,0
2,56,117,0
2,52,127,0
2,52,0,384
2,56,0,0
2,59,0,0
2,59,127,0
2,59,0,96
2,61,74,0
2,57,119,0
2,52,104,0
2,52,0,96
2,57,0,0
2,61,0,0
2,61,127,0
2,61,0,48
2,64,127,0
2,64,0,96
2,64,127,0
2,64,0,48
2,66,127,0
2,66,0,144
2,64,127,0
2,64,0,48
2,64,127,0
2,64,0,96
2,64,127,96
2,64,0,48
2,64,127,0
2,64,0,48
2,61,67,0
2,57,111,0
2,52,96,0
2,52,0,96
2,57,0,0
2,61,0,0
2,61,108,0
2,61,0,96
2,64,127,0
2,64,0,96
2,64,127,0
2,64,0,96
2,66,127,0
2,66,0,96
2,64,127,0
2,64,0,96
2,66,127,0
2,66,0,96
2,68,81,0
2,64,127,0
2,59,104,0
2,59,0,288
2,64,0,0
2,68,0,0
2,69,111,0
2,64,127,0
2,61,81,0
2,61,0,48
2,64,0,0
2,69,0,0
2,69,119,0
2,64,127,0
2,61,85,0
2,61,0,48
2,64,0,0
2,69,0,0
2,69,127,0
2,64,127,0
2,61,98,0
2,61,0,48
2,64,0,0
2,69,0,0
2,69,127,0
2,64,127,0
2,61,98,0
2,61,0,48
2,64,0,0
2,69,0,0
2,69,119,0
2,64,127,0
2,61,83,0
2,61,0,96
2,64,0,0
2,69,0,0
2,68,83,0
2,64,127,0
2,59,119,0
2,59,0,288
2,64,0,0
2,68,0,0
2,66,71,0
2,64,127,0
2,57,80,0
2,57,0,48
2,64,0,0
2,66,0,0
2,66,78,0
2,64,127,0
2,57,88,0
2,57,0,48
2,64,0,0
2,66,0,0
2,66,78,0
2,64,127,0
2,57,104,0
2,57,0,48
2,64,0,0
2,66,0,0
2,66,81,0
2,64,127,0
2,57,119,0
2,57,0,48
2,64,0,0
2,66,0,0
2,66,76,0
2,64,119,0
2,57,104,0
2,57,0,96
2,64,0,0
2,66,0,0
2,59,127,0
2,56,86,0
2,56,0,192
2,59,0,0
2,59,127,0
2,59,0,192
2,59,127,0
2,59,0,96
2,63,98,0
2,59,119,0
2,66,127,0
2,66,0,48
2,66,108,0
2,66,0,48
2,66,117,0
2,66,0,48
2,66,127,0
2,66,0,144
2,68,117,0
2,68,0,96
2,66,127,0
2,66,0,96
2,64,127,0
2,64,0,96
2,64,127,0
2,64,0,96
2,64,127,0
2,64,0,96
2,59,0,0
2,63,0,0
2,57,119,0
2,61,117,0
2,61,0,96
2,64,127,0
2,64,0,96
2,64,127,0
2,64,0,96
2,61,127,0
2,61,0,96
2,57,0,0
2,66,85,0
2,61,117,0
2,57,127,0
2,57,0,96
2,61,0,0
2,66,0,0
2,64,127,0
2,61,117,0
2,57,111,0
2,57,0,192
2,61,0,0
2,64,0,0
2,64,119,0
2,59,127,0
2,56,72,0
2,56,0,288
2,59,0,0
2,64,0,0
2,69,96,0
2,64,127,0
2,61,83,0
2,61,0,48
2,64,0,0
2,69,0,0
2,69,111,0
2,64,127,0
2,61,81,0
2,61,0,48
2,64,0,0
2,69,0,0
2,69,111,0
2,64,127,0
2,61,86,0
2,61,0,48
2,64,0,0
2,69,0,0
2,69,96,0
2,64,119,0
2,61,69,0
2,61,0,48
2,64,0,0
2,69,0,0
2,69,127,0
2,64,127,0
