track,note,velocity,time
0,47,95,1
0,48,97,0
0,35,115,0
0,45,98,89
0,41,91,100
0,43,85,0
0,47,98,91
0,35,105,2
0,48,102,3
0,45,87,43
0,35,111,47
0,45,99,0
0,35,127,47
0,40,104,0
0,51,75,138
0,35,115,4
0,29,106,0
0,69,60,0
0,42,76,1
0,54,42,3
0,49,77,3
0,69,56,31
0,42,56,1
0,54,29,18
0,69,56,6
0,29,88,1
0,42,70,1
0,36,88,0
0,69,54,0
0,40,111,1
0,42,56,1
0,69,56,0
0,42,56,1
0,39,74,0
0,41,102,0
0,69,52,1
0,42,48,1
0,42,84,43
0,35,105,0
0,29,104,0
0,69,61,0
0,42,50,43
0,69,52,0
0,42,54,33
0,69,56,0
0,35,111,1
0,29,88,0
0,42,54,43
0,36,104,0
0,69,55,0
0,40,111,1
0,42,70,41
0,39,71,0
0,69,56,0
0,42,64,42
0,41,96,0
0,69,54,1
0,54,40,41
0,42,81,1
0,35,97,1
0,29,104,0
0,69,58,0
0,42,56,43
0,69,53,0
0,54,38,31
0,42,54,1
0,69,56,0
0,29,102,1
0,42,54,43
0,40,111,1
0,36,104,0
0,69,54,0
0,42,74,42
0,69,53,0
0,39,86,0
0,42,49,42
0,41,94,0
0,69,52,1
0,42,84,43
0,35,99,0
0,29,102,0
0,69,56,0
0,42,52,43
0,69,51,0
0,42,60,31
0,29,88,0
0,69,54,0
0,35,111,2
0,42,64,42
0,36,100,0
0,69,54,0
0,40,109,1
0,42,80,41
0,69,54,0
0,39,71,1
0,44,76,42
0,41,90,0
0,69,53,1
0,54,42,41
0,42,83,1
0,35,103,1
0,29,104,0
0,69,59,1
0,42,56,42
0,69,50,1
0,54,38,27
0,42,64,1
0,29,94,1
0,69,52,0
0,42,64,43
0,36,110,0
0,69,54,0
0,40,110,1
0,42,74,41
0,69,56,0
0,39,74,1
0,42,81,42
0,41,92,0
0,69,53,1
0,42,88,42
0,35,101,1
0,29,104,0
0,69,56,1
0,42,70,41
0,69,53,1
0,42,64,30
0,35,107,1
0,29,90,0
0,69,56,0
0,42,64,42
0,36,106,0
0,69,51,0
0,40,111,1
0,42,80,42
0,69,54,0
0,39,69,1
0,42,78,42
0,41,90,0
0,69,56,1
0,54,36,39
0,42,84,4
0,35,105,0
0,29,100,0
0,69,58,0
0,69,53,41
0,42,66,1
0,54,40,33
0,69,51,0
0,42,62,1
0,29,96,0
0,36,106,0
0,69,53,0
0,42,62,1
0,40,110,1
0,69,55,0
0,42,78,1
0,39,98,0
0,42,72,42
0,41,94,0
0,69,56,1
0,69,58,42
0,42,87,1
0,35,101,0
0,29,100,0
0,69,53,43
0,42,72,1
0,29,88,34
0,69,56,0
0,42,62,1
0,35,99,1
0,42,68,42
0,36,108,0
0,69,57,0
0,40,111,1
0,42,74,42
0,69,60,0
0,39,86,1
0,44,46,42
0,41,90,0
0,69,56,1
0,54,42,38
0,29,104,0
0,42,87,1
0,35,101,0
0,69,60,1
0,69,53,42
0,42,68,1
0,54,38,33
0,42,58,1
0,29,92,0
0,69,56,0
0,36,100,0
0,69,56,0
0,42,66,1
0,40,110,0
0,39,90,0
0,69,59,0
0,42,81,1
0,41,90,0
0,42,78,1
0,69,56,0
0,48,100,1
0,35,99,41
0,29,96,0
0,42,86,2
0,69,60,0
0,69,41,42
0,42,62,1
0,47,91,0
0,35,101,26
0,45,95,0
0,42,66,1
0,29,100,0
0,69,55,0
0,43,106,43
0,69,55,0
0,42,60,1
0,40,111,0
0,36,108,0
0,42,76,41
0,69,56,1
0,39,80,0
0,42,78,42
0,69,60,1
0,41,92,0
0,42,87,43
0,29,98,0
0,35,97,1
0,54,44,0
0,69,61,0
0,49,77,2
0,42,66,40
0,69,44,1
0,29,88,33
0,42,72,1
0,69,56,0
0,54,38,1
0,36,96,0
0,42,60,1
0,40,111,1
0,69,53,0
0,42,74,1
0,39,71,0
0,69,56,0
0,42,72,42
0,41,92,0
0,69,56,2
0,29,96,0
0,42,90,1
0,35,87,0
0,69,59,1
0,69,55,42
0,42,66,1
0,42,70,27
0,29,90,1
0,69,56,0
0,35,101,1
0,36,110,0
0,42,52,1
0,69,55,0
0,40,111,1
0,42,76,41
0,69,56,0
0,39,90,2
0,44,64,43
0,41,94,0
0,69,56,0
0,54,35,42
0,42,90,1
0,29,102,0
0,69,58,0
0,35,103,1
0,42,70,42
0,69,56,0
0,42,68,28
0,29,90,1
0,69,58,0
0,54,38,3
0,42,64,39
0,40,110,0
0,36,98,0
0,69,53,1
0,42,81,42
0,69,57,0
0,39,78,1
0,41,86,0
0,42,81,1
0,69,56,0
0,35,101,43
0,29,102,0
0,69,57,0
0,42,87,1
0,69,54,42
0,42,68,1
0,42,58,30
0,35,103,1
0,29,94,0
0,69,56,0
0,42,77,42
0,36,106,0
0,69,53,0
0,40,110,1
0,42,81,42
0,69,57,0
0,39,82,1
0,41,92,0
0,42,84,1
0,69,56,0
0,54,42,39
0,35,105,4
0,29,98,0
0,69,60,0
0,42,90,1
0,69,54,42
0,42,56,1
0,42,78,30
0,29,92,0
0,54,40,0
0,69,53,0
0,42,70,43
0,40,110,0
0,69,56,0
0,36,104,0
0,42,83,43
0,69,60,0
0,39,74,0
0,42,78,43
0,69,57,0
0,41,94,0
0,35,107,43
0,29,98,0
0,42,90,1
0,69,60,0
0,69,55,42
0,42,58,1
0,42,66,29
0,35,101,0
0,29,92,0
0,69,58,0
0,42,76,29
0,36,98,0
0,40,111,1
0,69,56,0
0,39,96,0
0,69,58,0
0,42,85,1
0,41,88,0
0,69,56,0
0,44,76,1
0,54,40,37
0,29,102,0
0,69,61,0
0,42,90,1
0,35,123,0
0,69,55,41
0,42,72,2
0,42,66,32
0,29,92,0
0,69,59,0
0,54,36,1
0,42,60,42
0,36,96,0
0,69,60,0
0,40,111,1
0,42,87,42
0,39,82,0
0,69,59,0
0,41,92,0
0,42,76,1
0,69,56,0
0,29,98,0
0,35,99,1
0,48,105,0
0,69,61,0
0,42,90,1
0,42,70,42
0,69,56,0
0,81,121,0
0,47,91,0
0,29,86,0
0,69,60,0
0,42,78,1
0,35,103,0
0,45,104,42
0,36,108,0
0,69,56,0
0,42,74,1
0,40,111,0
0,42,87,42
0,43,105,0
0,39,82,0
0,69,60,0
0,77,118,0
0,42,76,43
0,41,107,0
0,41,90,0
0,69,58,1
0,42,93,42
0,29,96,0
0,35,103,1
0,69,75,0
0,53,96,0
0,69,62,0
0,54,36,0
0,49,71,0
0,69,57,37
0,42,76,1
0,69,108,33
0,60,108,0
0,42,82,1
0,29,92,0
0,65,108,0
0,69,60,0
0,54,36,4
0,36,90,0
0,42,76,1
0,40,111,1
0,69,60,0
0,69,60,1
0,42,86,1
0,39,92,0
0,60,108,41
0,69,108,0
0,42,81,1
0,41,88,0
0,65,108,0
0,69,58,0
0,29,96,0
0,67,67,0
0,51,82,0
0,69,60,0
0,35,103,1
0,42,93,0
0,69,59,42
0,42,66,1
0,63,108,33
0,58,108,0
0,67,108,0
0,29,96,1
0,69,56,0
0,42,81,1
0,35,113,0
0,36,92,0
0,69,55,1
0,40,110,1
0,42,72,0
0,39,92,1
0,69,58,0
0,42,80,1
0,41,96,0
0,67,108,0
0,58,108,0
0,63,108,0
0,69,56,1
0,81,115,0
0,44,78,0
0,29,100,0
0,69,61,0
0,53,96,0
0,35,107,1
0,69,62,0
0,42,93,1
0,54,33,1
0,42,74,21
0,69,60,0
0,29,94,32
0,60,108,0
0,69,108,0
0,65,108,0
0,42,80,1
0,69,60,1
0,54,40,1
0,36,94,0
0,42,64,2
0,40,110,0
0,69,57,0
0,39,82,1
0,42,83,1
0,69,60,0
0,41,90,0
0,60,108,0
0,69,108,0
0,65,108,0
0,42,81,1
0,69,58,1
0,55,84,29
0,29,94,0
0,70,77,0
0,42,92,1
0,35,99,0
0,69,61,0
0,42,70,32
0,69,60,0
0,63,108,28
0,70,108,0
0,62,108,0
0,67,108,0
0,42,74,1
0,29,98,0
0,69,60,0
0,35,105,1
0,42,66,30
0,36,114,0
0,69,58,0
0,40,110,1
0,42,81,42
0,39,78,0
0,69,59,0
0,65,108,0
0,42,78,26
0,63,108,0
0,62,108,0
0,70,108,0
0,67,108,0
0,65,112,0
0,41,94,0
0,69,59,1
0,42,90,23
0,53,88,0
0,65,113,0
0,69,65,0
0,35,109,1
0,29,102,0
0,69,60,0
0,54,38,2
0,42,64,16
0,69,56,0
0,42,74,27
0,69,108,0
0,60,108,0
0,65,108,0
0,69,56,1
0,29,90,1
0,54,42,2
0,42,64,30
0,40,110,0
0,36,98,0
0,69,54,0
0,42,85,43
0,69,56,0
0,39,78,1
0,42,68,42
0,41,86,0
0,69,108,0
0,60,108,0
0,65,108,1
0,69,52,0
0,51,98,4
0,67,57,0
0,42,90,1
0,35,111,0
0,29,102,0
0,69,61,1
0,42,76,42
0,69,52,0
0,42,74,31
0,35,95,0
0,29,94,0
0,67,108,0
0,58,108,0
0,63,108,0
0,69,56,0
0,42,68,29
0,36,106,0
0,40,110,1
0,69,55,0
0,42,82,1
0,39,82,0
0,69,56,0
0,41,92,0
0,67,108,0
0,44,64,1
0,58,108,0
0,63,108,0
0,69,54,1
0,69,85,28
0,53,100,0
0,54,38,0
0,42,89,1
0,35,97,1
0,29,106,0
0,69,58,0
0,42,60,34
0,69,53,0
0,42,78,29
0,60,108,0
0,69,108,0
0,65,108,0
0,69,56,0
0,29,88,1
0,54,38,1
0,36,88,0
0,42,66,1
0,40,111,0
0,69,54,0
0,69,53,0
0,42,83,1
0,39,74,0
0,42,72,41
0,41,102,0
0,60,108,1
0,65,108,0
0,69,108,0
0,69,52,0
0,55,82,28
0,35,111,1
0,70,79,0
0,69,56,0
0,42,89,1
0,29,104,0
0,48,107,3
0,42,66,32
0,69,51,0
0,42,70,32
0,62,108,0
0,63,108,0
0,70,108,0
0,67,108,0
0,69,54,0
0,35,113,2
0,29,88,0
0,45,100,0
0,42,54,30
0,69,54,0
0,84,122,0
0,40,111,0
0,36,104,0
0,41,105,41
0,42,81,0
0,69,54,1
0,39,71,0
0,42,84,42
0,62,108,0
0,70,108,0
0,63,108,0
0,67,108,0
0,41,96,0
0,69,53,0
0,53,86,28
0,69,67,2
0,35,115,1
0,29,104,0
0,65,127,0
0,69,60,0
0,42,76,1
0,54,42,3
0,69,56,32
0,42,56,3
0,54,29,21
0,69,108,6
0,60,108,0
0,65,108,0
0,69,56,0
0,29,102,1
0,42,70,1
0,69,54,29
0,40,111,1
0,36,104,0
0,42,56,1
0,69,56,41
0,42,56,1
0,39,86,0
0,41,94,0
0,60,108,0
0,69,108,0
0,65,108,1
0,69,52,0
0,42,48,1
0,67,63,28
0,29,102,0
0,51,94,0
0,42,84,1
0,35,105,0
0,69,61,0
0,63,127,4
0,42,50,30
0,69,52,0
0,29,88,31
0,67,108,0
0,58,108,0
0,63,108,0
0,42,54,1
0,69,56,0
0,35,111,1
0,36,100,0
0,42,54,1
0,40,110,0
0,69,55,0
0,42,70,42
0,39,71,1
0,69,56,0
0,41,90,0
0,58,108,0
0,67,108,0
0,42,64,1
0,63,108,0
0,69,54,1
0,69,67,28
0,54,40,0
0,42,81,1
0,29,104,0
0,53,100,0
0,35,97,1
0,69,58,0
0,42,56,34
0,69,53,0
0,54,38,28
0,42,54,1
0,29,94,0
0,60,108,0
0,69,108,0
0,69,56,0
0,65,108,1
0,42,54,29
0,40,110,0
0,36,110,0
0,69,54,1
0,42,74,42
0,69,53,0
0,39,74,1
0,42,49,42
0,41,92,0
0,69,108,1
0,60,108,0
0,65,108,0
0,69,52,0
0,55,78,28
0,42,84,1
0,35,99,0
0,29,104,0
0,70,81,0
0,69,56,0
0,42,52,33
0,69,51,0
0,42,60,30
0,63,108,0
0,70,108,0
0,62,108,0
0,67,108,0
0,69,54,0
0,29,90,1
0,35,111,1
0,42,64,30
0,36,106,0
0,69,54,0
0,40,111,1
0,42,80,41
0,69,54,0
0,39,69,1
0,44,76,42
0,41,90,0
0,63,108,0
0,62,108,0
0,70,108,0
0,67,108,0
0,69,53,1
0,54,42,28
0,42,83,1
0,69,67,0
0,53,82,0
0,35,103,1
0,29,100,0
0,53,127,0
0,65,127,0
0,69,59,1
0,42,56,36
0,69,50,1
0,54,38,23
0,42,64,1
0,65,122,0
0,53,122,0
0,29,96,1
0,69,108,0
0,60,108,0
0,69,52,0
0,65,108,1
0,36,106,0
0,42,64,1
0,69,54,0
0,40,110,1
0,42,74,17
0,65,116,0
0,53,116,0
0,39,98,1
0,69,56,0
0,42,81,42
0,41,94,0
0,69,108,0
0,60,108,0
0,65,108,0
0,69,53,1
0,42,88,19
0,67,63,0
0,51,94,0
0,65,111,0
0,53,111,0
0,35,101,1
0,29,100,0
0,69,56,1
0,42,70,36
0,69,53,1
0,42,64,14
0,29,88,0
0,67,108,0
0,58,108,0
0,63,108,0
0,35,107,1
0,65,105,0
0,53,105,0
0,69,56,0
0,42,64,29
0,36,108,0
0,69,51,0
0,40,110,1
0,53,100,25
0,65,100,0
0,42,80,1
0,69,54,0
0,39,86,1
0,42,78,42
0,41,90,0
0,67,108,0
0,58,108,0
0,63,108,0
0,69,56,1
0,54,36,22
0,29,104,0
0,53,92,0
0,69,63,0
0,53,94,0
0,65,94,0
0,42,84,1
0,35,105,0
0,69,58,0
0,69,53,39
0,42,66,1
0,60,108,28
0,69,108,0
0,65,108,0
0,53,89,0
0,65,89,0
0,54,40,0
0,69,51,0
0,42,62,1
0,29,92,0
0,69,53,28
0,42,62,1
0,36,100,0
0,40,110,1
0,53,83,25
0,65,83,0
0,69,55,0
0,42,78,1
0,39,90,0
0,42,72,42
0,41,90,0
0,60,108,0
0,69,108,0
0,65,108,0
0,69,56,1
0,29,96,0
0,55,84,0
0,70,77,0
0,53,77,0
0,65,77,0
0,69,58,0
0,42,87,1
0,35,101,0
0,48,95,34
0,69,53,0
0,42,72,1
0,63,108,26
0,70,108,0
0,62,108,0
0,67,108,0
0,69,56,0
0,42,62,1
0,47,104,0
0,29,100,0
0,35,99,1
0,42,68,30
0,69,57,0
0,45,104,1
0,40,110,0
0,36,108,0
0,42,74,42
0,43,104,0
0,69,60,0
0,39,80,0
0,44,46,42
0,41,102,0
0,63,108,0
0,70,108,0
0,62,108,0
0,67,108,0
0,69,56,1
0,41,92,0
0,54,42,25
0,53,86,4
0,42,87,1
0,35,101,0
0,29,98,0
0,49,85,1
0,69,75,0
0,69,60,0
0,69,53,35
0,42,68,1
0,81,106,0
0,29,88,0
0,69,108,0
0,60,108,0
0,65,108,0
0,54,38,0
0,42,58,1
0,69,56,0
0,36,96,0
0,81,108,0
0,69,56,0
0,42,66,1
0,40,110,0
0,39,71,1
0,69,59,0
0,42,81,1
0,77,96,0
0,41,92,0
0,69,108,0
0,60,108,0
0,42,78,1
0,65,108,0
0,69,56,0
0,35,99,2
0,29,96,0
0,67,67,0
0,79,118,0
0,42,86,1
0,51,90,0
0,69,60,0
0,69,41,28
0,42,62,1
0,35,101,27
0,58,108,0
0,67,108,0
0,63,108,0
0,79,109,0
0,42,66,0
0,29,90,0
0,69,55,0
0,36,110,0
0,69,55,1
0,77,115,0
0,42,60,0
0,40,110,0
0,42,76,41
0,69,56,1
0,39,90,1
0,42,78,42
0,58,108,0
0,67,108,0
0,63,108,0
0,41,94,0
0,69,60,0
0,77,101,0
0,69,61,0
0,53,98,0
0,42,87,1
0,29,102,0
0,35,97,1
0,54,44,0
0,69,61,0
0,81,117,0
0,42,66,42
0,69,44,1
0,69,108,27
0,60,108,0
0,65,108,0
0,42,72,1
0,69,56,0
0,29,90,1
0,54,38,1
0,81,114,0
0,42,60,0
0,36,98,0
0,40,110,1
0,69,53,0
0,77,102,1
0,42,74,1
0,69,56,0
0,39,78,1
0,79,117,0
0,42,72,0
0,41,86,0
0,60,108,0
0,69,108,0
0,65,108,0
0,69,56,2
0,55,82,29
0,42,90,1
0,35,87,0
0,29,102,0
0,70,77,0
