track,note,velocity,time
1,37,36,4380
1,39,40,0
1,37,52,328
1,39,62,192
1,37,31,324
1,39,58,0
1,37,35,328
1,39,44,192
1,42,56,184
1,37,42,264
1,39,50,8
1,37,31,308
1,39,44,192
1,37,40,328
1,39,54,192
1,37,52,352
1,39,54,16
1,42,58,192
1,37,44,280
1,39,48,192
1,37,56,352
1,39,44,60
1,37,50,332
1,39,46,192
1,40,66,4
1,39,62,244
1,44,42,120
1,46,48,16
1,49,60,192
1,53,62,68
1,49,60,4
1,39,60,4
1,44,50,80
1,46,31,24
1,51,60,36
1,49,54,192
1,36,54,44
1,37,56,96
1,38,60,56
1,39,48,76
1,44,54,12
1,46,54,12
1,49,66,192
1,53,64,256
1,49,54,4
1,39,42,4
1,44,52,40
1,46,54,20
1,51,52,192
1,49,44,8
1,36,54,56
1,37,52,96
1,38,64,84
1,39,48,88
1,44,62,84
1,46,54,12
1,49,56,192
1,53,64,232
1,49,64,4
1,39,54,4
1,44,50,76
1,46,52,8
1,51,40,192
1,49,50,56
1,36,44,480
1,37,40,92
1,38,58,32
1,39,36,92
1,44,50,88
1,46,56,4
1,49,64,192
1,53,64,272
1,49,60,4
1,39,54,4
1,44,36,288
1,46,52,8
1,51,62,0
1,49,52,28
1,36,56,4
1,37,39,96
1,38,60,4
1,39,44,96
1,44,50,52
1,46,52,0
1,49,54,192
1,53,68,280
1,49,62,96
1,39,46,4
1,44,37,20
1,46,52,16
1,51,54,192
1,49,46,0
1,36,56,28
1,37,42,96
1,38,56,44
1,39,56,84
1,44,34,48
1,46,56,8
1,49,62,192
1,53,64,284
1,49,58,4
1,39,54,148
1,44,34,288
1,46,42,4
1,51,56,192
1,49,64,172
1,36,60,20
1,37,42,96
1,38,54,44
1,39,46,64
1,44,40,80
1,46,44,0
1,49,60,24
1,53,64,288
1,49,58,4
1,39,46,4
1,44,35,100
1,46,44,4
1,51,46,192
1,49,54,12
1,36,60,4
1,37,37,96
1,38,60,44
1,39,42,72
1,44,36,68
1,46,52,96
1,49,62,8
1,53,64,280
1,49,62,4
1,39,52,4
1,44,37,48
1,46,48,96
1,51,56,20
1,49,40,0
1,32,68,156
1,32,56,92
1,35,66,88
1,39,64,32
1,35,62,28
1,35,40,104
1,35,64,76
1,39,54,192
1,42,62,12
1,34,36,8
1,34,64,176
1,34,84,48
1,37,52,192
1,41,62,40
1,32,62,16
1,32,66,276
1,30,76,288
1,32,52,120
1,29,66,4
1,30,64,12
1,31,56,0
1,32,42,24
1,32,76,148
1,32,50,48
1,35,72,88
1,39,62,28
1,35,60,384
1,35,52,188
1,39,56,248
1,42,58,384
1,34,62,348
1,34,68,140
1,37,44,44
1,41,64,28
1,32,88,4
1,30,76,168
1,28,64,172
1,28,64,92
1,37,58,64
1,44,58,576
1,49,42,160
1,39,62,136
1,44,42,120
1,46,48,16
1,49,60,192
1,53,62,68
1,49,60,4
1,39,60,288
1,44,50,80
1,46,31,24
1,51,60,36
1,49,54,192
1,36,54,44
1,37,56,96
1,38,60,56
1,39,48,76
1,44,54,12
1,46,54,12
1,49,66,192
1,53,64,256
1,49,54,4
1,39,42,4
1,44,52,40
1,46,54,20
1,51,52,192
1,49,44,8
1,36,54,56
1,37,52,96
1,38,64,84
1,39,48,88
1,44,62,84
1,46,54,12
1,49,56,192
1,53,64,232
1,49,64,4
1,39,54,4
1,44,50,76
1,46,52,8
1,51,40,192
1,49,50,56
1,36,44,480
1,37,40,92
1,38,58,32
1,39,36,92
1,44,50,88
1,46,56,4
1,49,64,192
1,53,64,272
1,49,60,4
1,39,54,4
1,44,36,288
1,46,52,8
1,51,62,0
1,49,52,28
1,36,56,4
1,37,39,96
1,38,60,4
1,39,44,96
1,44,50,52
1,46,52,0
1,49,54,192
1,53,68,280
1,49,62,4
1,39,46,4
1,44,37,20
1,46,52,16
1,51,54,192
1,49,46,0
1,36,56,28
1,37,42,96
1,38,56,44
1,39,56,84
1,44,34,48
1,46,56,8
1,49,62,192
1,53,64,284
1,49,58,4
1,39,54,4
1,44,34,288
1,46,42,4
1,51,56,192
1,49,64,172
1,36,60,20
1,37,42,96
1,38,54,44
1,39,46,64
1,44,40,80
1,46,44,0
1,49,60,24
1,53,64,288
1,49,58,4
1,39,46,172
1,44,35,100
1,46,44,4
1,51,46,192
1,49,54,12
1,36,60,4
1,37,37,96
1,38,60,44
1,39,42,72
1,44,36,68
1,46,52,96
1,49,62,8
1,53,64,280
1,49,62,4
1,39,52,4
1,44,37,48
1,46,48,96
1,51,56,20
1,49,40,0
1,32,68,156
1,32,56,92
1,35,66,88
1,39,64,32
1,35,62,28
1,35,40,104
1,35,64,76
1,39,54,192
1,42,62,12
1,34,36,8
1,34,64,176
1,34,84,48
1,37,52,192
1,41,62,40
1,32,62,16
1,32,66,276
1,30,76,288
1,32,52,120
1,29,66,4
1,30,64,12
1,31,56,0
1,32,42,24
1,32,76,148
1,32,50,48
1,35,72,88
1,39,62,28
1,35,60,384
1,35,52,188
1,39,56,248
1,42,58,384
1,34,62,348
1,34,68,140
1,37,44,44
1,41,64,28
1,32,88,4
1,30,76,168
1,28,64,172
1,28,64,92
1,37,58,64
1,44,58,576
1,49,42,160
1,39,62,136
1,44,42,120
1,46,48,16
1,49,60,192
1,53,62,68
1,49,60,4
1,39,60,4
1,44,50,80
1,46,31,24
1,51,60,36
1,49,54,192
1,36,54,44
1,37,56,96
1,38,60,56
1,39,48,76
1,44,54,12
1,46,54,12
1,49,66,192
1,53,64,256
1,49,54,288
1,39,42,4
1,44,52,40
1,46,54,20
1,51,52,192
1,49,44,8
1,35,72,100
1,35,62,56
1,35,54,424
1,35,64,56
1,35,52,32
1,35,68,56
1,35,54,360
1,34,36,24
1,34,72,60
1,34,68,416
1,34,42,52
1,34,66,36
1,34,66,44
1,34,40,380
1,32,52,8
1,32,68,72
1,32,66,412
1,32,76,52
1,32,54,32
1,32,76,64
1,32,66,432
1,37,58,32
1,37,62,64
1,37,64,416
1,37,84,52
1,37,50,36
1,36,64,156
1,36,64,48
1,36,72,56
1,30,68,8
1,35,72,36
1,35,66,68
1,30,76,400
1,35,66,44
1,30,66,0
1,35,66,44
1,30,60,376
1,34,66,32
1,34,52,64
1,29,37,380
1,34,39,32
1,29,66,108
1,34,37,32
1,34,52,312
1,32,92,84
1,32,72,48
1,27,66,388
1,32,80,20
1,27,66,12
1,32,76,36
1,34,80,392
1,46,64,768
1,39,48,192
1,44,62,84
1,46,54,12
1,49,56,192
1,53,64,232
1,49,64,4
1,39,54,4
1,44,50,76
1,46,52,8
1,51,40,192
1,49,50,56
1,36,44,480
1,37,40,92
1,38,58,32
1,39,36,92
1,44,50,88
1,46,56,4
1,49,64,192
1,53,64,272
1,49,60,4
1,39,54,4
1,44,36,288
1,46,52,8
1,51,62,0
1,49,52,28
1,36,56,4
1,37,39,96
1,38,60,4
1,39,44,96
1,44,50,52
1,46,52,0
1,49,54,192
1,53,68,280
1,49,62,4
1,39,46,4
1,44,37,20
1,46,52,16
1,51,54,192
1,49,46,0
1,36,56,28
1,37,42,96
1,38,56,44
1,39,56,84
1,44,34,48
1,46,56,8
1,49,62,192
1,53,64,284
1,49,58,4
1,39,54,4
1,44,34,288
1,46,42,4
1,51,56,192
1,49,64,172
1,36,60,20
1,37,42,96
1,38,54,44
1,39,46,64
1,44,40,80
1,46,44,0
1,49,60,24
1,53,64,288
1,49,58,4
1,39,46,4
1,44,35,100
1,46,44,4
1,51,46,192
1,49,54,12
1,36,60,4
1,37,37,96
1,38,60,44
1,39,42,72
1,44,36,68
1,46,52,96
1,49,62,8
1,53,64,280
1,49,62,4
1,39,52,4
1,44,37,48
1,46,48,96
1,51,56,20
1,49,40,0
1,32,68,156
1,32,56,92
1,35,66,88
1,39,64,32
1,35,62,28
1,35,40,104
1,35,64,76
1,39,54,192
1,42,62,12
1,34,36,8
1,34,64,176
1,34,84,48
1,37,52,192
1,41,62,40
1,32,62,16
1,32,66,276
1,30,76,288
1,32,52,120
1,29,66,4
1,30,64,12
1,31,56,0
1,32,42,24
1,32,76,148
1,32,50,48
1,35,72,88
1,39,62,28
1,35,60,384
1,35,52,188
1,39,56,248
1,42,58,384
1,34,62,348
1,34,68,140
1,37,44,44
1,41,64,28
1,32,88,4
1,30,76,168
1,28,64,172
1,28,64,92
1,37,58,64
1,44,58,576
1,49,42,160
1,37,66,328
1,39,56,36
1,37,80,424
1,39,66,4
1,37,76,424
1,39,64,12
1,37,68,416
1,39,54,8
1,42,68,4
1,37,62,240
1,39,76,192
1,37,64,428
1,39,66,28
1,37,80,384
1,39,66,192
1,32,92,940
1,32,80,496
1,32,84,44
1,32,68,48
1,32,88,44
1,32,60,232
1,35,72,104
1,35,54,564
1,35,76,56
1,35,64,52
1,35,76,44
1,35,68,236
1,34,92,52
1,34,68,552
1,34,60,36
1,34,66,40
1,34,80,24
1,34,66,232
1,32,97,112
1,32,72,144
1,32,68,348
1,32,72,28
1,32,58,44
1,32,58,28
1,27,88,92
1,30,60,52
1,31,68,16
1,32,84,8
1,30,80,516
1,32,64,24
1,32,80,64
1,32,88,32
1,32,36,124
1,30,39,152
1,35,84,56
1,35,56,588
1,35,76,40
1,35,68,44
1,35,76,20
1,35,64,272
1,34,76,0
1,32,76,500
1,34,80,24
1,34,54,36
1,34,80,20
1,34,84,244
1,32,92,68
1,30,97,124
1,29,88,132
1,28,76,0
1,28,66,72
1,37,84,20
1,34,39,164
1,37,66,32
1,25,92,0
1,27,76,32
1,30,68,84
1,32,66,16
1,32,80,40
1,32,80,208
1,32,84,44
1,32,68,48
1,32,88,44
1,32,60,232
1,35,72,104
1,35,54,564
1,35,76,56
1,35,64,52
1,35,76,44
1,35,68,236
1,34,92,52
1,34,68,552
1,34,60,36
1,34,66,40
1,34,80,24
1,34,66,232
1,32,97,112
1,32,72,144
1,32,68,348
1,32,72,28
1,32,58,44
1,32,58,28
1,27,88,92
1,30,60,52
1,31,68,16
1,32,84,8
1,30,80,516
1,32,64,24
1,32,80,64
1,32,88,32
1,32,36,124
1,30,39,152
1,35,84,56
1,35,56,588
1,35,76,40
1,35,68,44
1,35,76,20
1,35,64,272
1,34,76,0
1,32,76,500
1,34,80,24
1,34,54,36
1,34,80,20
1,34,84,244
1,32,92,68
1,30,97,124
1,29,88,132
1,28,76,0
1,28,66,72
1,37,84,20
1,34,39,164
1,37,66,32
1,25,92,0
1,27,76,32
1,30,68,84
1,32,66,16
1,32,68,40
1,32,80,12
1,32,84,44
1,32,68,12
1,32,88,44
1,32,60,96
1,35,72,96
1,35,54,204
1,35,76,56
1,35,64,52
1,35,76,44
1,35,68,192
1,34,92,52
1,34,68,108
1,34,60,36
1,34,66,12
1,34,80,24
1,34,66,96
1,32,97,112
1,32,72,12
1,32,68,12
1,32,72,28
1,32,58,12
1,32,58,28
1,27,88,92
1,30,60,52
1,31,68,12
1,32,84,8
1,30,80,12
1,32,64,24
1,32,80,12
1,32,88,32
1,32,36,96
1,30,39,96
1,35,84,56
1,35,56,12
1,35,76,40
1,35,68,12
1,35,76,20
1,35,64,96
1,34,76,0
1,32,76,12
1,34,80,24
1,34,54,12
1,34,80,20
1,34,84,96
1,32,92,68
1,30,97,12
1,29,88,96
1,28,76,0
1,28,66,72
1,37,84,20
1,34,39,164
1,37,66,12
1,25,92,0
1,27,76,12
1,30,68,84
1,32,66,12
2,53,64,3976
2,58,62,0
2,54,52,0
2,51,44,0
2,54,52,276
2,61,48,0
2,58,48,0
2,56,68,20
2,53,54,0
2,60,66,0
2,51,50,0
2,51,44,20
2,56,58,0
2,49,38,0
2,53,54,0
2,61,72,476
2,58,66,0
2,51,42,0
2,54,46,0
2,61,84,20
2,54,56,0
2,65,56,0
2,58,39,0
2,56,54,40
2,53,58,0
2,63,58,0
2,60,64,0
2,60,62,40
2,56,56,0
2,51,8,80
2,54,58,16
2,61,66,0
2,58,42,0
2,51,46,0
2,61,54,20
2,58,37,0
2,70,58,0
2,66,64,0
2,65,62,0
2,63,60,504
2,68,56,0
2,59,32,0
2,68,64,520
2,59,62,0
2,52,66,0
2,63,64,0
2,71,64,0
2,56,44,0
2,82,64,216
2,73,54,0
2,77,72,0
2,78,46,0
2,82,56,72
2,73,54,0
2,78,42,0
2,77,38,0
2,73,50,1192
2,82,60,0
2,78,58,0
2,77,62,0
2,82,56,96
2,73,44,0
2,78,52,0
2,77,60,0
2,77,72,796
2,73,62,0
2,82,60,0
2,78,29,0
2,82,52,168
2,77,58,0
2,78,40,0
2,73,56,0
2,77,62,48
2,82,54,0
2,73,52,0
2,78,25,0
2,82,54,620
2,78,56,0
2,73,50,0
2,77,64,0
2,82,52,480
2,78,56,0
2,77,62,0
2,73,34,0
2,82,66,80
2,73,56,0
2,77,64,0
2,78,31,0
2,73,50,776
2,82,56,0
2,77,60,0
2,78,48,0
2,73,40,164
2,77,64,0
2,82,54,0
2,78,48,0
2,78,56,68
2,82,56,0
2,77,60,0
2,73,44,0
2,73,52,1192
2,78,38,0
2,77,58,0
2,82,58,0
2,78,23,88
2,73,42,0
2,82,50,0
2,77,56,0
2,82,60,776
2,73,48,0
2,77,56,0
2,78,4,192
2,82,54,68
2,77,54,0
2,73,31,0
2,78,46,0
2,78,37,80
2,73,48,0
2,82,56,0
2,77,44,0
2,82,50,588
2,78,40,0
2,73,30,0
2,77,54,0
2,73,42,468
2,77,62,0
2,82,44,0
2,78,46,0
2,73,46,92
2,82,56,0
2,78,52,0
2,77,64,0
2,78,66,788
2,82,62,0
2,73,52,0
2,77,66,0
2,82,60,104
2,78,52,0
2,73,37,0
2,77,58,0
2,73,52,44
2,82,62,0
2,77,72,0
2,78,46,0
2,73,48,604
2,82,62,0
2,78,35,0
2,77,38,0
2,73,37,492
2,82,42,0
2,78,48,0
2,77,64,0
2,73,56,72
2,78,42,0
2,77,64,0
2,82,50,0
2,82,56,772
2,73,42,0
2,78,62,0
2,77,64,0
2,82,66,96
2,73,39,0
2,77,66,0
2,78,34,0
2,82,66,64
2,73,48,0
2,78,56,0
2,77,66,0
2,82,64,584
2,73,39,0
2,78,46,0
2,73,42,448
2,82,52,0
2,78,42,0
2,77,56,0
2,73,44,76
2,77,56,0
2,82,54,0
2,78,32,0
2,73,52,772
2,82,58,0
2,78,50,0
2,77,68,0
2,82,48,92
2,73,42,0
2,77,62,0
2,78,36,0
2,73,50,68
2,82,62,0
2,78,56,0
2,77,56,0
2,78,52,1168
2,82,54,0
2,73,40,0
2,77,52,0
2,73,54,60
2,82,56,0
2,77,64,0
2,78,46,0
2,73,31,784
2,78,60,0
2,82,52,0
2,77,56,0
2,82,58,96
2,73,46,0
2,77,66,0
2,78,40,0
2,73,42,76
2,82,60,0
2,78,30,0
2,77,56,0
2,78,54,600
2,73,40,0
2,77,66,0
2,82,27,0
2,82,54,456
2,73,42,0
2,78,58,0
2,77,62,0
2,73,44,40
2,82,56,0
2,78,40,0
2,77,39,0
2,73,50,788
2,82,52,0
2,78,48,0
2,77,62,0
2,66,66,228
2,54,54,0
2,63,52,0
2,61,35,0
2,59,62,0
2,58,54,32
2,70,62,0
2,63,60,0
2,66,66,0
2,61,29,0
2,47,18,0
2,68,64,72
2,56,36,0
2,65,64,0
2,61,28,0
2,66,54,212
2,63,56,0
2,59,62,0
2,54,42,0
2,65,68,68
2,61,80,0
2,54,42,0
2,56,20,0
2,63,58,212
2,59,60,0
2,56,54,0
2,54,44,0
2,66,50,132
2,56,48,0
2,63,42,0
2,54,44,0
2,59,52,0
2,61,68,120
2,70,64,0
2,58,54,0
2,66,54,0
2,54,37,0
2,58,54,52
2,61,54,0
2,56,54,0
2,68,60,0
2,65,68,0
2,63,68,60
2,66,66,0
2,65,66,288
2,61,60,0
2,63,68,28
2,59,66,0
2,61,58,28
2,49,33,0
2,56,52,0
2,82,64,268
2,73,54,0
2,77,72,0
2,78,46,0
2,82,56,72
2,73,54,0
2,78,42,0
2,77,38,0
2,73,50,1192
