track,note,velocity,time
0,36,101,2488
0,42,87,0
0,42,87,168
0,42,87,168
0,42,87,168
0,42,87,168
0,36,100,0
0,42,87,168
0,42,87,168
0,42,87,168
0,42,87,168
0,36,100,0
0,42,87,168
0,42,87,168
0,42,87,168
0,87,84,168
0,36,100,0
0,42,87,0
0,87,84,72
0,42,87,80
0,43,72,0
0,43,72,52
0,42,87,36
0,45,63,0
0,87,93,24
0,42,87,80
0,87,80,72
0,36,101,80
0,42,87,0
0,42,87,168
0,42,87,168
0,42,87,168
0,42,87,168
0,36,100,0
0,42,87,168
0,42,87,168
0,42,87,168
0,36,100,168
0,42,87,0
0,42,87,168
0,42,87,168
0,42,87,168
0,36,100,168
0,42,87,0
0,87,84,0
0,87,84,72
0,42,87,80
0,43,72,0
0,43,72,52
0,45,63,36
0,42,87,0
0,87,93,24
0,42,87,80
0,87,80,72
0,36,101,80
0,42,87,0
0,42,87,168
0,42,87,168
0,42,87,168
0,42,87,168
0,36,100,0
0,42,87,168
0,42,87,168
0,42,87,168
0,36,100,168
0,42,87,0
0,42,87,168
0,42,87,168
0,42,87,168
0,36,100,168
0,42,87,0
0,87,84,0
0,87,84,72
0,42,87,80
0,43,72,0
0,43,72,52
0,42,87,36
0,45,63,0
0,38,110,0
0,87,93,24
0,42,87,80
0,87,80,72
0,42,87,80
0,48,82,0
0,51,82,0
0,36,100,0
0,49,72,0
0,36,101,0
0,59,82,4
0,51,64,56
0,59,82,44
0,42,87,28
0,51,56,0
0,59,82,12
0,51,64,0
0,59,82,48
0,65,77,4
0,60,77,0
0,69,77,0
0,62,77,4
0,42,87,4
0,51,61,0
0,59,82,8
0,51,60,4
0,42,87,44
0,59,73,0
0,51,56,40
0,59,75,8
0,51,64,40
0,70,77,20
0,67,77,0
0,62,77,0
0,65,77,0
0,60,77,4
0,36,100,8
0,42,87,0
0,59,73,8
0,51,64,44
0,59,60,16
0,51,52,4
0,42,87,16
0,59,64,8
0,51,64,4
0,59,72,52
0,42,87,48
0,51,64,0
0,59,73,4
0,51,64,28
0,59,60,12
0,42,87,28
0,51,64,16
0,59,64,0
0,51,72,12
0,69,77,48
0,62,77,4
0,60,77,0
0,72,77,0
0,65,77,0
0,59,82,8
0,42,87,0
0,36,100,0
0,51,72,32
0,59,64,52
0,51,82,44
0,42,87,28
0,59,56,0
0,51,82,12
0,59,64,0
0,51,82,48
0,42,87,12
0,59,61,0
0,51,82,8
0,59,60,4
0,42,87,0
0,70,77,0
0,65,77,0
0,62,77,0
0,51,73,0
0,67,77,0
0,60,77,0
0,59,56,40
0,51,75,8
0,59,64,24
0,42,87,32
0,36,100,0
0,87,84,0
0,51,73,8
0,59,64,44
0,87,84,16
0,51,60,12
0,59,52,4
0,42,87,16
0,43,72,0
0,51,64,8
0,59,64,4
0,43,72,12
0,51,72,40
0,42,87,36
0,59,64,0
0,45,63,0
0,51,73,4
0,87,93,24
0,59,64,0
0,51,60,12
0,42,87,28
0,59,52,16
0,51,64,0
0,87,80,24
0,59,64,12
0,36,101,60
0,51,82,0
0,42,87,0
0,59,82,4
0,51,64,56
0,59,82,44
0,42,87,28
0,51,56,0
0,59,82,12
0,51,64,0
0,59,82,48
0,65,77,4
0,60,77,0
0,69,77,0
0,62,77,4
0,42,87,4
0,51,61,0
0,59,82,8
0,51,60,4
0,42,87,44
0,59,73,0
0,51,56,40
0,59,75,8
0,51,64,40
0,70,77,20
0,62,77,0
0,67,77,0
0,65,77,0
0,60,77,4
0,42,87,8
0,36,100,0
0,59,73,8
0,51,64,44
0,59,60,16
0,51,52,4
0,42,87,16
0,59,64,8
0,51,64,4
0,59,72,52
0,51,64,48
0,42,87,0
0,59,73,4
0,51,64,28
0,59,60,12
0,42,87,28
0,51,64,16
0,59,64,0
0,51,72,12
0,69,77,48
0,72,77,4
0,62,77,0
0,65,77,0
0,60,77,0
0,59,82,8
0,36,100,0
0,42,87,0
0,51,72,32
0,59,64,52
0,51,82,44
0,42,87,28
0,59,56,0
0,51,82,12
0,59,64,0
0,51,82,48
0,42,87,12
0,59,61,0
0,51,82,8
0,59,60,4
0,42,87,0
0,67,77,0
0,65,77,0
0,51,73,0
0,60,77,0
0,70,77,0
0,62,77,0
0,59,56,40
0,51,75,8
0,59,64,24
0,87,84,32
0,42,87,0
0,36,100,0
0,51,73,8
0,59,64,44
0,87,84,16
0,51,60,12
0,59,52,4
0,43,72,16
0,42,87,0
0,51,64,8
0,59,64,4
0,43,72,12
0,51,72,40
0,42,87,36
0,38,110,0
0,59,64,0
0,45,63,0
0,51,73,4
0,87,93,24
0,59,64,0
0,51,60,12
0,42,87,28
0,59,52,16
0,51,64,0
0,87,80,24
0,59,64,12
0,48,82,60
0,49,72,0
0,42,87,0
0,36,101,0
0,51,82,0
0,36,100,0
0,59,82,4
0,51,64,56
0,59,82,44
0,42,87,28
0,51,56,0
0,59,82,12
0,51,64,0
0,59,82,48
0,60,77,4
0,65,77,0
0,69,77,0
0,62,77,4
0,42,87,4
0,51,61,0
0,59,82,8
0,51,60,4
0,42,87,44
0,59,73,0
0,51,56,40
0,59,75,8
0,51,64,40
0,67,77,20
0,62,77,0
0,65,77,0
0,70,77,0
0,60,77,4
0,42,87,8
0,36,100,0
0,59,73,8
0,51,64,44
0,59,60,16
0,51,52,4
0,42,87,16
0,59,64,8
0,51,64,4
0,59,72,52
0,51,64,48
0,42,87,0
0,59,73,4
0,51,64,28
0,59,60,12
0,42,87,28
0,51,64,16
0,59,64,0
0,51,72,12
0,69,77,48
0,65,77,4
0,72,77,0
0,62,77,0
0,60,77,0
0,42,87,8
0,59,82,0
0,36,100,0
0,51,72,32
0,59,64,52
0,51,82,44
0,42,87,28
0,59,56,0
0,51,82,12
0,59,64,0
0,51,82,48
0,42,87,12
0,59,61,0
0,51,82,8
0,59,60,4
0,42,87,0
0,67,77,0
0,70,77,0
0,65,77,0
0,51,73,0
0,60,77,0
0,62,77,0
0,59,56,40
0,51,75,8
0,59,64,24
0,87,84,32
0,42,87,0
0,36,100,0
0,51,73,8
0,59,64,44
0,87,84,16
0,51,60,12
0,59,52,4
0,43,72,16
0,42,87,0
0,51,64,8
0,59,64,4
0,43,72,12
0,51,72,40
0,45,63,36
0,42,87,0
0,59,64,0
0,51,73,4
0,87,93,24
0,59,64,0
0,51,60,12
0,42,87,28
0,59,52,16
0,51,64,0
0,87,80,24
0,59,64,12
0,49,72,60
0,51,82,0
0,36,101,0
0,42,87,0
0,59,82,4
0,51,64,56
0,59,82,44
0,42,87,28
0,51,56,0
0,59,82,12
0,51,64,0
0,59,82,48
0,60,77,4
0,69,77,0
0,65,77,0
0,62,77,4
0,42,87,4
0,51,61,0
0,59,82,8
0,51,60,4
0,42,87,44
0,59,73,0
0,51,56,40
0,59,75,8
0,51,64,40
0,67,77,20
0,70,77,0
0,65,77,0
0,62,77,0
0,60,77,4
0,42,87,8
0,36,100,0
0,59,73,8
0,51,64,44
0,59,60,16
0,51,52,4
0,42,87,16
0,59,49,8
0,51,55,4
0,59,43,52
0,53,58,48
0,42,87,0
0,53,78,44
0,42,87,24
0,53,90,44
0,69,77,64
0,72,77,4
0,65,77,0
0,60,77,0
0,62,77,0
0,42,87,8
0,36,100,0
0,53,98,0
0,42,87,132
0,42,87,168
0,42,87,0
0,60,77,4
0,62,77,0
0,70,77,0
0,67,77,0
0,65,77,0
0,42,87,60
0,36,100,0
0,87,84,0
0,87,84,72
0,43,72,80
0,42,87,0
0,43,72,52
0,38,110,36
0,45,63,0
0,42,87,0
0,87,93,24
0,42,87,80
0,87,80,72
0,53,100,20
0,36,101,0
0,29,73,0
0,42,87,0
0,49,72,0
0,29,120,0
0,51,73,40
0,48,52,20
0,42,87,16
0,65,77,108
0,72,112,0
0,60,77,0
0,60,78,0
0,69,77,0
0,62,77,4
0,53,73,0
0,69,121,0
0,58,56,4
0,63,55,0
0,38,110,0
0,42,87,0
0,63,74,4
0,42,87,64
0,58,60,152
0,65,77,4
0,67,77,0
0,62,77,0
0,70,77,0
0,60,77,4
0,63,73,4
0,70,111,0
0,60,115,0
0,36,100,4
0,29,120,0
0,53,92,0
0,75,105,0
0,42,87,0
0,70,83,8
0,63,72,0
0,75,94,0
0,60,78,4
0,60,55,32
0,70,58,0
0,42,87,4
0,63,57,0
0,70,114,60
0,63,95,4
0,75,101,0
0,53,55,4
0,60,78,0
0,53,96,12
0,28,110,12
0,38,110,0
0,42,87,0
0,42,87,48
0,69,77,156
0,65,77,4
0,60,90,0
0,62,77,0
0,72,77,0
0,63,62,4
0,53,81,0
0,72,89,0
0,69,125,0
0,42,87,4
0,36,100,0
0,29,120,0
0,63,64,0
0,58,56,0
0,69,82,8
0,63,104,0
0,60,77,4
0,72,67,0
0,63,59,12
0,69,79,0
0,72,58,0
0,42,87,8
0,63,63,156
0,60,94,4
0,63,92,0
0,58,62,0
0,53,84,0
0,75,112,4
0,42,87,0
0,70,115,0
0,38,110,0
0,75,70,4
0,63,81,0
0,70,90,0
0,60,90,8
0,60,77,4
0,70,77,0
0,65,77,0
0,67,77,0
0,62,77,0
0,75,74,0
0,70,78,4
0,63,66,0
0,42,87,0
0,60,82,0
0,69,112,56
0,72,117,4
0,60,103,4
0,63,98,4
0,29,120,44
0,87,84,0
0,36,100,0
0,42,87,0
0,87,84,72
0,42,87,36
0,43,72,0
0,43,72,52
0,45,63,36
0,42,87,0
0,38,110,0
0,53,61,16
0,87,93,8
0,42,87,40
0,87,80,72
0,53,100,80
0,29,73,0
0,29,120,0
0,42,87,0
0,36,101,0
0,51,73,60
0,48,52,20
0,42,87,16
0,60,78,108
0,72,112,0
0,69,77,0
0,62,77,4
0,65,77,0
0,53,73,0
0,69,121,0
0,60,77,0
0,63,55,4
0,38,110,0
0,58,56,0
0,42,87,0
0,63,74,4
0,42,87,88
0,58,60,152
0,70,77,8
0,67,77,0
0,62,77,0
0,60,115,4
0,70,111,0
0,65,77,0
0,63,73,0
0,63,77,0
0,29,120,4
0,75,105,0
0,36,100,0
0,53,92,0
0,42,87,0
0,75,94,0
0,63,72,8
0,70,89,0
0,60,78,4
0,75,99,0
0,42,87,8
0,70,80,0
0,60,62,0
0,63,60,0
0,70,114,0
0,63,95,0
0,75,81,4
0,53,55,4
0,60,78,4
0,53,96,12
0,28,110,12
0,42,87,0
0,38,110,0
0,42,87,48
0,65,77,156
0,72,77,0
0,62,77,4
0,69,77,0
0,60,90,0
0,53,81,4
0,72,103,0
0,69,125,0
0,63,78,0
0,36,100,4
0,63,64,0
0,42,87,0
0,29,120,0
0,58,56,0
0,63,74,4
0,72,103,4
0,69,103,0
0,60,90,4
0,63,64,8
0,72,81,4
0,60,66,0
0,42,87,8
0,63,63,12
0,70,77,0
0,60,94,4
0,67,77,0
0,62,77,0
0,63,77,0
0,58,62,0
0,65,77,0
0,53,84,0
0,63,92,0
0,42,87,4
0,38,110,0
0,75,112,0
0,70,115,0
0,75,70,12
0,63,81,0
0,70,90,0
0,60,90,8
0,75,74,0
0,70,78,4
0,63,66,0
0,60,82,4
0,42,87,0
0,69,112,0
0,72,117,0
0,60,103,0
0,69,68,0
0,62,77,4
0,63,98,0
0,65,77,0
0,60,77,4
0,36,100,4
0,42,87,0
0,87,84,0
0,29,120,0
0,87,84,72
0,43,72,36
0,42,87,0
0,43,72,52
0,29,93,48
0,36,120,28
0,42,87,8
0,45,63,0
0,38,110,0
0,53,61,16
0,87,93,8
0,38,102,36
0,42,87,0
0,87,80,72
0,36,101,32
0,42,87,0
0,49,72,0
0,29,120,0
0,53,100,0
0,29,73,0
0,51,73,40
0,48,52,20
0,42,87,16
0,65,77,108
0,72,112,0
0,60,78,0
0,60,77,0
0,69,77,0
0,69,121,4
0,53,73,0
0,62,77,0
0,38,110,4
0,63,55,0
0,42,87,0
0,58,56,0
0,63,74,4
0,42,87,64
0,58,60,152
0,65,77,4
0,67,77,0
0,62,77,0
0,70,77,0
0,60,77,4
0,63,73,4
0,70,111,0
0,60,115,0
0,75,105,4
0,42,87,0
0,36,100,0
0,53,92,0
0,29,120,0
0,70,83,8
0,63,72,0
0,75,94,0
0,60,78,4
0,60,55,32
0,70,58,0
0,63,57,4
0,42,87,0
0,70,114,60
0,63,95,4
0,75,101,0
0,60,78,4
0,53,55,0
0,53,96,12
0,38,110,12
0,28,110,0
0,42,87,0
0,42,87,48
0,69,77,156
0,65,77,4
0,72,77,0
0,62,77,0
0,60,90,0
0,53,81,4
0,72,89,0
0,63,62,0
0,69,125,0
0,63,64,4
0,42,87,0
0,29,120,0
0,58,56,0
0,36,100,0
0,63,104,8
0,69,82,0
0,60,77,4
0,72,67,0
0,69,79,12
0,63,59,0
0,72,58,0
0,42,87,8
0,63,63,156
0,63,92,4
0,58,62,0
0,53,84,0
0,60,94,0
0,42,87,4
0,75,112,0
0,70,115,0
0,38,110,0
0,75,70,4
0,63,81,0
0,70,90,0
0,60,90,8
0,65,77,4
0,70,77,0
0,67,77,0
0,75,74,0
0,60,77,0
0,62,77,0
0,63,66,4
0,70,78,0
0,60,82,0
0,42,87,0
0,69,112,56
0,72,117,4
0,60,103,4
0,63,98,4
0,29,120,44
0,87,84,0
0,42,87,0
0,36,100,0
0,87,84,72
0,42,87,36
0,43,72,0
0,43,72,52
0,38,110,36
0,45,63,0
0,42,87,0
0,53,61,16
0,87,93,8
0,42,87,40
0,87,80,72
0,29,120,80
0,42,87,0
0,36,101,0
0,29,73,0
0,53,100,0
0,51,73,60
0,48,52,20
0,42,87,16
0,60,78,108
0,72,112,0
0,69,77,0
0,65,77,4
0,62,77,0
0,60,77,0
0,53,73,0
0,69,121,0
0,38,110,4
0,63,55,0
0,58,56,0
0,42,87,0
0,63,74,4
0,42,87,88
0,58,60,152
0,67,77,8
0,70,77,0
0,62,77,0
0,63,73,4
0,63,77,0
0,65,77,0
0,70,111,0
0,60,115,0
0,75,105,4
0,53,92,0
0,42,87,0
0,36,100,0
0,29,120,0
0,75,94,0
0,70,89,8
0,63,72,0
0,60,78,4
0,75,99,0
0,70,80,8
0,63,60,0
0,60,62,0
0,42,87,0
0,70,114,0
0,63,95,0
0,75,81,4
0,53,55,4
0,60,78,4
0,53,96,12
0,28,110,12
0,42,87,0
0,38,110,0
0,42,87,48
0,72,77,156
0,65,77,0
0,69,77,4
0,60,90,0
0,62,77,0
0,72,103,4
0,63,78,0
0,53,81,0
0,69,125,0
0,63,64,4
0,58,56,0
0,29,120,0
0,42,87,0
0,36,100,0
0,63,74,4
0,69,103,4
0,72,103,0
0,60,90,4
0,63,64,8
0,60,66,4
0,72,81,0
0,42,87,8
0,63,63,12
0,70,77,0
0,53,84,4
0,63,77,0
0,62,77,0
0,63,92,0
0,65,77,0
0,67,77,0
0,60,94,0
0,58,62,0
0,42,87,4
0,70,115,0
0,75,112,0
0,38,110,0
0,75,70,12
0,70,90,0
0,63,81,0
0,60,90,8
0,75,74,0
0,70,78,4
0,63,66,0
0,42,87,4
0,60,82,0
0,69,112,0
0,72,117,0
0,69,68,0
0,60,103,0
0,62,77,4
0,65,77,0
0,63,98,0
0,60,77,4
0,42,87,4
0,87,84,0
0,36,100,0
0,29,120,0
0,87,84,72
0,43,72,36
0,42,87,0
0,43,72,52
0,29,93,48
0,36,120,28
0,60,99,8
0,38,110,0
0,45,63,0
0,42,87,0
0,53,61,16
0,87,93,8
0,60,92,28
0,38,102,8
0,42,87,0
0,87,80,72
0,69,108,12
0,36,101,16
0,29,120,0
0,29,73,0
0,46,124,0
0,44,30,72
0,69,95,20
0,42,87,16
0,69,107,40
0,60,77,16
0,69,77,0
0,65,77,0
0,62,77,4
0,42,87,4
0,38,110,0
0,69,95,24
0,42,87,8
0,70,107,32
0,65,77,4
0,70,77,0
0,67,77,0
0,62,77,0
0,60,77,4
0,42,87,8
0,29,120,0
0,36,100,0
0,70,101,24
0,42,87,12
0,42,87,76
0,38,110,0
0,70,92,108
0,42,87,0
0,69,77,4
