track,note,velocity,time
1,25,95,28594
1,37,95,0
1,28,95,36
1,40,95,0
1,28,95,86
1,40,95,0
1,30,95,32
1,42,95,0
1,25,95,48
1,37,95,0
1,35,86,32
1,37,86,6
1,40,86,6
1,42,86,6
1,37,86,6
1,25,103,214
1,37,86,294
1,35,86,80
1,37,86,6
1,40,86,6
1,42,86,6
1,37,86,6
1,25,103,214
1,37,86,294
1,35,86,80
1,37,86,6
1,40,86,6
1,42,86,6
1,37,86,6
1,25,103,214
1,37,86,294
1,35,86,80
1,37,86,6
1,40,86,6
1,42,86,6
1,37,86,6
1,25,102,214
1,37,86,294
1,35,86,80
1,37,86,6
1,40,86,6
1,42,86,6
1,37,86,6
1,25,103,214
1,37,86,294
1,35,86,80
1,37,86,6
1,40,86,6
1,42,86,6
1,37,86,6
1,25,103,214
1,37,86,294
1,35,86,80
1,37,86,6
1,40,86,6
1,42,86,6
1,37,86,6
1,25,103,214
1,37,86,294
1,35,86,80
1,37,86,6
1,40,86,6
1,42,86,6
1,37,86,6
1,25,102,214
1,37,86,294
1,35,86,80
1,37,86,6
1,40,86,6
1,42,86,6
1,37,86,6
1,25,103,214
1,37,86,294
1,35,86,80
1,37,86,6
1,40,86,6
1,42,86,6
1,37,86,6
1,25,103,214
1,37,86,294
1,35,86,80
1,37,86,6
1,40,86,6
1,42,86,6
1,37,86,6
1,25,103,214
1,37,86,294
1,35,86,80
1,37,86,6
1,40,86,6
1,42,86,6
1,37,86,6
1,25,102,214
1,37,86,294
1,35,86,80
1,37,86,6
1,40,86,6
1,42,86,6
1,37,86,6
1,25,103,214
1,37,86,294
1,35,86,80
1,37,86,6
1,40,86,6
1,42,86,6
1,37,86,6
1,25,103,214
1,37,86,294
1,35,86,80
1,37,86,6
1,40,86,6
1,42,86,6
1,37,86,6
1,25,103,214
1,37,86,294
1,35,86,80
1,37,86,6
1,40,86,6
1,42,86,6
1,37,86,6
1,25,102,214
1,37,86,294
1,35,86,80
1,37,86,6
1,40,86,6
1,42,86,6
1,37,86,6
1,25,103,214
1,37,86,294
1,35,86,80
1,37,86,6
1,40,86,6
1,42,86,6
1,37,86,6
1,25,103,214
1,37,86,294
1,35,86,80
1,37,86,6
1,40,86,6
1,42,86,6
1,37,86,6
1,25,103,214
1,37,86,294
1,35,86,80
1,37,86,6
1,40,86,6
1,42,86,6
1,37,86,6
1,25,102,214
1,37,86,294
1,35,86,80
1,37,86,6
1,40,86,6
1,42,86,6
1,37,86,6
1,25,103,214
1,37,86,294
1,35,86,80
1,37,86,6
1,40,86,6
1,42,86,6
1,37,86,6
1,25,103,214
1,37,86,294
1,35,86,80
1,37,86,6
1,40,86,6
1,42,86,6
1,37,86,6
1,25,103,214
1,37,86,294
1,35,86,80
1,37,86,6
1,40,86,6
1,42,86,6
1,37,86,6
1,25,102,214
1,37,86,294
1,35,86,80
1,37,86,6
1,40,86,6
1,42,86,6
1,37,86,6
1,25,103,214
1,37,86,294
1,35,86,80
1,37,86,6
1,40,86,6
1,42,86,6
1,37,86,6
1,25,103,214
1,37,86,294
1,35,86,80
1,37,86,6
1,40,86,6
1,42,86,6
1,37,86,6
1,25,103,214
1,37,86,294
1,35,86,80
1,37,86,6
1,40,86,6
1,42,86,6
1,37,86,6
1,25,102,214
1,37,86,294
1,35,86,80
1,37,86,6
1,40,86,6
1,42,86,6
1,37,86,6
1,25,103,214
1,37,86,294
1,35,86,80
1,37,86,6
1,40,86,6
1,42,86,6
1,37,86,6
1,25,103,214
1,37,86,294
1,35,86,80
1,37,86,6
1,40,86,6
1,42,86,6
1,37,86,6
1,25,103,214
1,37,86,182
1,35,86,22
1,33,86,80
1,30,86,444
1,35,86,444
1,37,86,172
1,35,86,80
1,37,86,6
1,40,86,6
1,42,86,6
1,37,86,6
1,25,103,214
1,37,86,294
1,35,86,80
1,37,86,6
1,40,86,6
1,42,86,6
1,37,86,6
1,25,103,214
1,37,86,294
1,35,86,80
1,37,86,6
1,40,86,6
1,42,86,6
1,37,86,6
1,25,103,214
1,37,86,294
1,35,86,80
1,37,86,6
1,40,86,6
1,42,86,6
1,37,86,6
1,25,102,214
1,37,86,294
1,35,86,80
1,37,86,6
1,40,86,6
1,42,86,6
1,37,86,6
1,25,103,214
1,37,86,294
1,35,86,80
1,37,86,6
1,40,86,6
1,42,86,6
1,37,86,6
1,25,103,214
1,37,86,294
1,35,86,80
1,37,86,6
1,40,86,6
1,42,86,6
1,37,86,6
1,25,103,214
1,37,86,294
1,35,86,80
1,37,86,6
1,40,86,6
1,42,86,6
1,37,86,6
1,25,102,214
1,37,86,294
1,35,86,80
1,37,86,6
1,40,86,6
1,42,86,6
1,37,86,6
1,25,103,214
1,37,86,294
1,35,86,80
1,37,86,6
1,40,86,6
1,42,86,6
1,37,86,6
1,25,103,214
1,37,86,294
1,35,86,80
1,37,86,6
1,40,86,6
1,42,86,6
1,37,86,6
1,25,103,214
1,37,86,294
1,35,86,80
1,37,86,6
1,40,86,6
1,42,86,6
1,37,86,6
1,25,102,214
1,37,86,294
1,35,86,80
1,37,86,6
1,40,86,6
1,42,86,6
1,37,86,6
1,25,103,214
1,37,86,294
1,35,86,80
1,37,86,6
1,40,86,6
1,42,86,6
1,37,86,6
1,25,103,214
1,37,86,294
1,35,86,80
1,37,86,6
1,40,86,6
1,42,86,6
1,37,86,6
1,25,103,214
1,37,86,294
1,35,86,80
1,37,86,6
1,40,86,6
1,42,86,6
1,37,86,6
1,25,102,214
1,37,86,294
1,35,86,80
1,37,86,6
1,40,86,6
1,42,86,6
1,37,86,6
1,25,103,214
1,37,86,294
1,35,86,80
1,37,86,6
1,40,86,6
1,42,86,6
1,37,86,6
1,25,103,214
1,37,86,294
1,35,86,80
1,37,86,6
1,40,86,6
1,42,86,6
1,37,86,6
1,25,103,214
1,37,86,294
1,35,86,80
1,37,86,6
1,40,86,6
1,42,86,6
1,37,86,22
1,28,86,80
1,30,86,92
1,32,86,98
1,35,86,100
1,37,86,6
1,35,86,80
1,37,86,6
1,40,86,6
1,42,86,6
1,37,86,6
1,25,103,214
1,37,86,294
1,35,86,80
1,37,86,6
1,40,86,6
1,42,86,6
1,37,86,6
1,25,103,214
1,37,86,294
1,35,86,80
1,37,86,6
1,40,86,6
1,42,86,6
1,37,86,6
1,25,103,214
1,37,86,294
1,35,86,80
1,37,86,6
1,40,86,6
1,42,86,6
1,37,86,6
1,25,102,214
1,37,86,294
1,35,86,80
1,37,86,6
1,40,86,6
1,42,86,6
1,37,86,6
1,25,103,214
1,37,86,294
1,35,86,80
1,37,86,6
1,40,86,6
1,42,86,6
1,37,86,6
1,25,103,214
1,37,86,294
1,35,86,80
1,37,86,6
1,40,86,6
1,42,86,6
1,37,86,6
1,25,103,214
1,37,86,182
1,35,86,22
1,33,86,80
1,30,86,444
1,35,86,444
1,37,86,172
1,37,86,182
1,37,86,102
1,35,86,6
1,32,86,6
1,25,86,6
1,28,86,6
1,30,86,6
1,37,86,6
1,42,86,6
1,37,86,54
1,39,86,6
1,30,86,6
1,30,86,54
1,28,86,6
1,33,86,6
1,45,86,54
1,33,86,6
1,42,86,6
1,40,86,6
1,33,86,6
1,33,86,54
1,35,86,54
1,37,86,54
1,37,86,54
1,37,86,6
1,39,86,6
1,40,86,6
1,37,86,6
1,35,86,6
1,35,86,54
1,35,86,6
1,37,86,54
1,35,86,6
1,34,86,6
1,34,86,54
1,34,86,6
1,33,86,6
1,40,86,54
1,45,86,6
1,44,86,6
1,39,86,6
1,32,86,6
1,32,86,54
1,32,86,54
1,32,86,54
1,44,86,6
1,43,86,6
1,42,86,6
1,40,86,6
1,37,86,6
1,35,86,6
1,37,86,6
1,40,86,6
1,42,86,6
1,37,86,6
1,25,103,214
1,37,86,294
1,35,86,80
1,37,86,6
1,40,86,6
1,42,86,6
1,37,86,6
1,25,103,214
1,37,86,294
1,35,86,80
1,37,86,6
1,40,86,6
1,42,86,6
1,37,86,6
1,25,103,214
1,37,86,294
1,35,86,80
1,37,86,6
1,40,86,6
1,42,86,6
1,37,86,6
1,25,102,214
1,37,86,294
1,35,86,80
1,37,86,6
1,40,86,6
1,42,86,6
1,37,86,6
1,25,103,214
1,37,86,294
1,35,86,80
1,37,86,6
1,40,86,6
1,42,86,6
1,37,86,6
1,25,103,214
1,37,86,294
1,35,86,80
1,37,86,6
1,40,86,6
1,42,86,6
1,37,86,6
1,25,103,214
1,37,86,294
1,35,86,80
1,37,86,6
1,40,86,6
1,42,86,118
1,47,86,102
1,42,86,80
1,40,86,22
1,37,86,6
1,37,86,102
1,35,86,80
1,37,86,6
1,40,86,6
1,42,86,6
1,37,86,6
1,25,103,214
1,37,86,294
1,35,86,80
1,37,86,6
1,40,86,6
1,42,86,6
1,37,86,6
1,25,103,214
1,37,86,294
1,35,86,80
1,37,86,6
1,40,86,6
1,42,86,6
1,37,86,6
1,25,103,214
1,37,86,294
1,35,86,80
1,37,86,6
1,40,86,6
1,42,86,6
1,37,86,6
1,25,102,214
1,37,86,294
1,35,86,80
1,37,86,6
1,40,86,6
1,42,86,6
1,37,86,6
1,25,103,214
1,37,86,294
1,35,86,80
1,37,86,6
1,40,86,6
1,42,86,6
1,37,86,6
1,25,103,214
1,37,86,294
1,35,86,80
1,37,86,6
1,40,86,6
1,42,86,6
1,37,86,6
1,25,103,214
1,37,86,294
1,35,86,80
1,37,86,6
1,40,86,6
1,42,86,6
1,37,86,22
1,28,86,80
1,30,86,92
1,32,86,98
1,35,86,100
1,37,86,6
1,35,86,80
1,37,86,6
1,40,86,6
1,42,86,6
1,37,86,6
1,25,103,214
1,37,86,294
1,35,86,80
1,37,86,6
1,40,86,6
1,42,86,6
1,37,86,6
1,25,103,214
1,37,86,294
1,35,86,80
1,37,86,6
1,40,86,6
1,42,86,6
1,37,86,6
1,25,103,214
1,37,86,294
1,35,86,80
1,37,86,6
1,40,86,6
1,42,86,6
1,37,86,6
1,25,102,214
1,37,86,294
1,35,86,80
1,37,86,6
1,40,86,6
1,42,86,6
1,37,86,6
1,25,103,214
1,37,86,294
1,35,86,80
1,37,86,6
1,40,86,6
1,42,86,6
1,37,86,6
1,25,103,214
1,37,86,294
1,35,86,80
1,37,86,6
1,40,86,6
1,42,86,6
1,37,86,6
1,37,86,294
1,36,86,6
1,35,86,6
1,34,86,6
1,33,86,6
1,30,86,390
1,35,86,390
1,39,86,390
1,38,86,390
1,35,86,390
1,47,86,6
1,42,86,6
1,47,86,6
1,42,86,6
1,40,86,6
1,37,86,6
1,35,86,6
1,37,86,6
1,40,86,6
1,42,86,6
1,37,86,6
1,25,103,214
1,37,86,294
1,35,86,80
1,37,86,6
1,40,86,6
1,42,86,6
1,37,86,6
1,25,103,214
1,37,86,294
1,35,86,80
1,37,86,6
1,40,86,6
1,42,86,6
1,37,86,6
1,25,103,214
1,37,86,294
1,35,86,80
1,37,86,6
1,40,86,6
1,42,86,6
1,37,86,6
1,25,102,214
1,37,86,294
1,35,86,80
1,37,86,6
1,40,86,6
1,42,86,6
1,37,86,6
1,25,103,214
1,37,86,294
1,35,86,80
1,37,86,6
1,40,86,6
1,42,86,6
1,37,86,6
1,25,103,214
1,37,86,294
1,35,86,80
1,37,86,6
1,40,86,6
1,42,86,6
1,37,86,6
1,25,103,214
1,37,86,182
1,35,86,22
1,33,86,80
1,30,86,444
1,35,86,444
1,25,76,156
1,37,76,0
1,25,76,94
1,37,76,0
1,25,76,1254
1,37,76,0
1,25,76,102
1,37,76,0
1,25,76,1254
1,37,76,0
1,25,76,102
1,37,76,0
1,25,76,1254
1,37,76,0
1,25,76,102
1,37,76,0
1,25,76,1254
1,37,76,0
1,25,88,102
1,37,88,0
1,25,88,1254
1,37,88,0
1,25,88,102
1,37,88,0
1,25,88,1254
1,37,88,0
1,25,88,102
1,37,88,0
1,25,88,1254
1,37,88,0
1,25,88,102
1,37,88,0
1,25,88,1254
1,37,88,0
1,25,88,102
1,37,88,0
1,25,88,1254
1,37,88,0
1,25,88,102
1,37,88,0
1,25,88,1254
1,37,88,0
1,25,88,102
1,37,88,0
1,25,88,1254
1,37,88,0
1,25,88,102
1,37,88,0
1,25,88,1254
1,37,88,0
1,25,88,102
1,37,88,0
1,25,88,1254
1,37,88,0
1,25,88,102
1,37,88,0
1,25,88,1254
1,37,88,0
1,25,88,102
1,37,88,0
1,25,88,1254
1,37,88,0
1,25,88,102
1,37,88,0
1,25,88,1254
1,37,88,0
1,25,88,102
1,37,88,0
1,25,88,1254
1,37,88,0
1,25,88,102
1,37,88,0
1,25,88,1254
1,37,88,0
1,25,88,102
1,37,88,0
1,25,88,1254
1,37,88,0
1,25,88,102
1,37,88,0
1,25,88,1254
1,37,88,0
1,25,88,102
1,37,88,0
1,25,88,1254
1,37,88,0
1,25,88,102
1,37,88,0
1,25,88,1254
1,37,88,0
1,25,88,102
1,37,88,0
1,25,88,1254
1,37,88,0
1,25,88,102
1,37,88,0
1,25,88,1254
1,37,88,0
1,25,88,102
1,37,88,0
1,25,88,1254
1,37,88,0
1,25,88,102
1,37,88,0
1,25,88,1254
1,37,88,0
1,25,88,102
1,37,88,0
1,25,88,1254
1,37,88,0
1,25,88,102
1,37,88,0
1,25,88,1254
1,37,88,0
1,25,88,102
1,37,88,0
1,25,88,1254
1,37,88,0
1,25,88,102
1,37,88,0
1,25,88,1254
1,37,88,0
1,25,88,102
1,37,88,0
1,25,88,1254
1,37,88,0
1,25,88,102
1,37,88,0
1,25,88,1254
1,37,88,0
1,25,88,102
1,37,88,0
1,25,88,1254
1,37,88,0
1,25,88,102
1,37,88,0
1,25,88,1254
1,37,88,0
1,25,88,102
1,37,88,0
1,25,88,1254
1,37,88,0
1,25,88,102
1,37,88,0
1,25,88,1254
1,37,88,0
1,25,88,102
1,37,88,0
1,25,88,1254
1,37,88,0
1,25,88,102
1,37,88,0
1,25,88,1254
1,37,88,0
1,25,88,102
1,37,88,0
1,25,88,1254
1,37,88,0
1,25,88,102
1,37,88,0
1,25,88,1254
1,37,88,0
1,25,88,102
1,37,88,0
1,25,88,1254
1,37,88,0
1,25,88,102
1,37,88,0
1,25,88,1254
1,37,88,0
1,25,88,102
1,37,88,0
1,25,88,1254
1,37,88,0
1,25,88,102
1,37,88,0
1,25,88,1254
1,37,88,0
2,85,83,28
2,80,73,288
2,73,66,288
2,78,66,0
2,58,39,6
2,61,39,0
2,64,39,0
2,66,39,0
2,59,36,6
2,61,36,0
2,64,36,0
2,68,36,0
2,73,41,6
2,76,60,576
2,80,60,0
2,83,60,0
2,49,86,1076
2,56,114,86
2,54,71,18
2,56,99,2
2,56,114,130
2,54,72,50
2,56,99,20
2,56,114,138
2,54,72,48
2,56,98,12
2,59,91,34
2,61,103,158
2,49,86,154
2,56,114,86
2,54,72,18
2,56,99,2
2,56,114,130
2,54,71,50
2,56,99,20
2,56,114,138
2,54,71,48
2,56,99,12
2,59,93,34
2,61,104,158
2,49,85,154
2,56,114,86
2,54,71,18
2,56,101,2
2,56,114,130
2,54,71,50
2,56,101,20
2,56,114,138
2,54,71,48
2,56,100,12
2,59,94,34
2,61,104,158
2,49,85,154
2,56,114,86
2,54,71,18
2,56,101,2
2,56,114,130
2,54,70,50
2,56,101,20
2,56,114,138
2,54,72,48
2,56,102,12
2,59,96,34
2,61,103,158
2,49,86,154
2,56,114,86
2,54,71,18
2,56,99,2
2,56,114,130
2,54,72,50
2,56,99,20
2,56,114,138
2,54,72,48
2,56,98,12
2,59,91,34
2,61,103,158
2,49,86,154
2,56,114,86
2,54,72,18
2,56,99,2
2,56,114,130
2,54,71,50
2,56,99,20
2,56,114,138
2,54,71,48
2,56,99,12
2,59,93,34
2,61,104,158
2,49,85,154
2,56,114,86
2,54,71,18
2,56,101,2
2,56,114,130
2,54,71,50
2,56,101,20
2,56,114,138
2,54,71,48
2,56,100,12
2,59,94,34
2,61,104,158
2,49,85,154
2,56,114,86
2,54,71,18
2,56,101,2
2,56,114,130
2,54,70,50
2,56,101,20
2,56,114,138
2,54,72,48
2,56,102,12
