track,note,velocity,time
1,33,78,0
1,35,74,0
1,44,100,0
1,42,100,2
1,38,106,0
1,44,100,0
1,42,100,2
1,33,82,0
1,35,82,0
1,44,100,0
1,42,100,2
1,38,103,0
1,44,100,0
1,42,100,2
1,35,66,0
1,33,65,0
1,44,100,0
1,42,100,2
1,38,118,0
1,44,100,0
1,42,100,2
1,33,72,0
1,35,73,0
1,44,100,0
1,42,100,2
1,38,94,0
1,44,100,0
1,42,100,2
1,33,78,0
1,35,74,0
1,44,100,0
1,42,100,2
1,38,106,0
1,44,100,0
1,42,100,2
1,33,82,0
1,35,82,0
1,44,100,0
1,42,100,2
1,38,103,0
1,44,100,0
1,42,100,2
1,35,66,0
1,33,65,0
1,44,100,0
1,42,100,2
1,38,118,0
1,44,100,0
1,42,100,2
1,33,72,0
1,35,73,0
1,44,100,0
1,42,100,2
1,38,94,0
1,44,100,0
1,42,100,2
1,33,78,0
1,35,74,0
1,44,100,0
1,42,100,2
1,38,106,0
1,44,100,0
1,42,100,2
1,33,82,0
1,35,82,0
1,44,100,0
1,42,100,2
1,38,103,0
1,44,100,0
1,42,100,2
1,35,66,0
1,33,65,0
1,44,100,0
1,42,100,2
1,38,118,0
1,44,100,0
1,42,100,2
1,33,72,0
1,35,73,0
1,44,100,0
1,42,100,2
1,38,94,0
1,44,100,0
1,69,100,8
1,42,100,2
1,69,100,3
1,27,100,56
1,33,78,0
1,35,74,0
1,44,100,0
1,69,100,0
1,69,100,56
1,42,100,2
1,28,100,11
1,38,106,0
1,44,100,0
1,42,100,2
1,33,82,0
1,35,82,0
1,44,100,0
1,42,100,2
1,38,103,0
1,44,100,0
1,42,100,2
1,35,66,0
1,33,65,0
1,44,100,0
1,42,100,2
1,38,118,0
1,44,100,0
1,42,100,2
1,33,72,0
1,35,73,0
1,44,100,0
1,42,100,2
1,38,94,0
1,44,100,0
1,42,100,2
1,33,78,0
1,35,74,0
1,44,100,0
1,42,100,2
1,38,106,0
1,44,100,0
1,42,100,2
1,33,82,0
1,35,82,0
1,44,100,0
1,42,100,2
1,38,103,0
1,44,100,0
1,42,100,2
1,35,66,0
1,33,65,0
1,44,100,0
1,42,100,2
1,38,118,0
1,44,100,0
1,42,100,2
1,33,72,0
1,35,73,0
1,44,100,0
1,42,100,2
1,38,94,0
1,44,100,0
1,42,100,2
1,33,78,0
1,35,74,0
1,44,100,0
1,42,100,2
1,38,106,0
1,44,100,0
1,42,100,2
1,33,82,0
1,35,82,0
1,44,100,0
1,42,100,2
1,38,103,0
1,44,100,0
1,42,100,2
1,35,66,0
1,33,65,0
1,44,100,0
1,42,100,2
1,38,118,0
1,44,100,0
1,42,100,2
1,33,72,0
1,35,73,0
1,44,100,0
1,42,100,2
1,38,94,0
1,44,100,0
1,42,100,2
1,33,78,0
1,35,74,0
1,44,100,0
1,42,100,2
1,38,106,0
1,44,100,0
1,42,100,2
1,33,82,0
1,35,82,0
1,44,100,0
1,42,100,2
1,38,103,0
1,44,100,0
1,42,100,2
1,35,66,0
1,33,65,0
1,44,100,0
1,42,100,2
1,38,118,0
1,44,100,0
1,42,100,2
1,33,72,0
1,35,73,0
1,44,100,0
1,42,100,2
1,38,94,0
1,44,100,0
1,42,100,2
1,33,78,0
1,35,74,0
1,44,100,0
1,42,100,2
1,38,106,0
1,44,100,0
1,42,100,2
1,33,82,0
1,35,82,0
1,44,100,0
1,42,100,2
1,38,103,0
1,44,100,0
1,42,100,2
1,35,66,0
1,33,65,0
1,44,100,0
1,42,100,2
1,38,118,0
1,44,100,0
1,42,100,2
1,33,72,0
1,35,73,0
1,44,100,0
1,42,100,2
1,38,94,0
1,44,100,0
1,42,100,2
1,33,78,0
1,35,74,0
1,44,100,0
1,42,100,2
1,38,106,0
1,44,100,0
1,42,100,2
1,33,82,0
1,35,82,0
1,44,100,0
1,42,100,2
1,38,103,0
1,44,100,0
1,42,100,2
1,35,66,0
1,33,65,0
1,44,100,0
1,42,100,2
1,38,118,0
1,44,100,0
1,42,100,2
1,33,72,0
1,35,73,0
1,44,100,0
1,42,100,2
1,38,94,0
1,44,100,0
1,42,100,2
1,33,78,0
1,35,74,0
1,44,100,0
1,42,100,2
1,38,106,0
1,44,100,0
1,42,100,2
1,33,82,0
1,35,82,0
1,44,100,0
1,42,100,2
1,38,103,0
1,44,100,0
1,42,100,2
1,35,66,0
1,33,65,0
1,44,100,0
1,42,100,2
1,38,118,0
1,44,100,0
1,42,100,2
1,33,72,0
1,35,73,0
1,44,100,0
1,42,100,2
1,38,94,0
1,44,100,0
1,42,100,2
1,33,78,0
1,35,74,0
1,44,100,0
1,42,100,2
1,38,106,0
1,44,100,0
1,42,100,2
1,33,82,0
1,35,82,0
1,44,100,0
1,42,100,2
1,38,103,0
1,44,100,0
1,42,100,2
1,35,66,0
1,33,65,0
1,44,100,0
1,42,100,2
1,38,118,0
1,44,100,0
1,42,100,2
1,33,72,0
1,35,73,0
1,44,100,0
1,42,100,2
1,38,94,0
1,44,100,0
1,42,100,2
1,33,78,0
1,35,74,0
1,44,100,0
1,42,100,2
1,38,106,0
1,44,100,0
1,42,100,2
1,33,82,0
1,35,82,0
1,44,100,0
1,42,100,2
1,38,103,0
1,44,100,0
1,42,100,2
1,35,66,0
1,33,65,0
1,44,100,0
1,42,100,2
1,38,118,0
1,44,100,0
1,42,100,2
1,33,72,0
1,35,73,0
1,44,100,0
1,42,100,2
1,38,94,0
1,44,100,0
1,42,100,2
1,33,78,0
1,35,74,0
1,44,100,0
1,42,100,2
1,38,106,0
1,44,100,0
1,42,100,2
1,33,82,0
1,35,82,0
1,44,100,0
1,42,100,2
1,38,103,0
1,44,100,0
1,42,100,2
1,35,66,0
1,33,65,0
1,44,100,0
1,42,100,2
1,38,118,0
1,44,100,0
1,42,100,2
1,33,72,0
1,35,73,0
1,44,100,0
1,42,100,2
1,38,94,0
1,44,100,0
1,42,100,2
1,33,78,0
1,35,74,0
1,44,100,0
1,42,100,2
1,38,106,0
1,44,100,0
1,42,100,2
1,33,82,0
1,35,82,0
1,44,100,0
1,42,100,2
1,38,103,0
1,44,100,0
1,42,100,2
1,35,66,0
1,33,65,0
1,44,100,0
1,42,100,2
1,38,118,0
1,44,100,0
1,42,100,2
1,33,72,0
1,35,73,0
1,44,100,0
1,42,100,2
1,38,94,0
1,44,100,0
1,42,100,2
1,33,78,0
1,35,74,0
1,44,100,0
1,42,100,2
1,38,106,0
1,44,100,0
1,42,100,2
1,33,82,0
1,35,82,0
1,44,100,0
1,42,100,2
1,38,103,0
1,44,100,0
1,42,100,2
1,35,66,0
1,33,65,0
1,44,100,0
1,42,100,2
1,38,118,0
1,44,100,0
1,42,100,2
1,33,72,0
1,35,73,0
1,44,100,0
1,42,100,2
1,38,94,0
1,44,100,0
1,42,100,2
1,33,78,0
1,35,74,0
1,44,100,0
1,42,100,2
1,38,106,0
1,44,100,0
1,42,100,2
1,33,82,0
1,35,82,0
1,44,100,0
1,42,100,2
1,38,103,0
1,44,100,0
1,42,100,2
1,35,66,0
1,33,65,0
1,44,100,0
1,42,100,2
1,38,118,0
1,44,100,0
1,42,100,2
1,33,72,0
1,35,73,0
1,44,100,0
1,42,100,2
1,38,94,0
1,44,100,0
1,42,100,2
1,33,78,0
1,35,74,0
1,44,100,0
1,42,100,2
1,38,106,0
1,44,100,0
1,42,100,2
1,33,82,0
1,35,82,0
1,44,100,0
1,42,100,2
1,38,103,0
1,44,100,0
1,42,100,2
1,35,66,0
1,33,65,0
1,44,100,0
1,42,100,2
1,38,118,0
1,44,100,0
1,42,100,2
1,33,72,0
1,35,73,0
1,44,100,0
1,42,100,2
1,38,94,0
1,44,100,0
1,42,100,2
1,46,127,9
1,38,100,32
1,33,78,0
1,35,74,0
1,44,100,0
1,42,100,2
1,38,106,0
1,44,100,0
1,42,100,2
1,33,82,0
1,35,82,0
1,44,100,0
1,42,100,2
1,38,103,0
1,44,100,0
1,42,100,2
1,35,66,0
1,33,65,0
1,44,100,0
1,42,100,2
1,38,118,0
1,44,100,0
1,42,100,2
1,33,72,0
1,35,73,0
1,44,100,0
1,42,100,2
1,52,100,92
1,38,94,0
1,44,100,0
1,42,100,2
1,46,127,1
1,33,78,0
1,35,74,0
1,44,100,0
1,42,100,2
1,38,106,0
1,44,100,0
1,42,100,2
1,33,82,0
1,35,82,0
1,44,100,0
1,42,100,2
1,38,103,0
1,44,100,0
1,42,100,2
1,35,66,0
1,33,65,0
1,44,100,0
1,42,100,2
1,38,118,0
1,44,100,0
1,42,100,2
1,33,72,0
1,35,73,0
1,44,100,0
1,42,100,2
1,52,100,92
1,38,94,0
1,44,100,0
1,42,100,2
1,46,127,3
1,33,78,0
1,35,74,0
1,44,100,0
1,42,100,2
1,38,106,0
1,44,100,0
1,42,100,2
1,33,82,0
1,35,82,0
1,44,100,0
1,42,100,2
1,38,103,0
1,44,100,0
1,42,100,2
1,35,66,0
1,33,65,0
1,44,100,0
1,42,100,2
1,38,118,0
1,44,100,0
1,42,100,2
1,33,72,0
1,35,73,0
1,44,100,0
1,42,100,2
1,38,94,0
1,44,100,0
1,52,100,0
1,42,100,2
1,46,127,6
1,33,78,0
1,35,74,0
1,44,100,0
1,42,100,2
1,38,106,0
1,44,100,0
1,42,100,2
1,46,127,4
1,33,82,0
1,35,82,0
1,44,100,0
1,42,100,2
1,38,103,0
1,44,100,0
1,46,127,91
1,35,66,0
1,33,65,0
1,44,100,0
1,42,100,2
1,38,118,0
1,44,100,0
1,42,100,2
1,46,127,4
1,33,72,0
1,35,73,0
1,44,100,0
1,42,100,2
1,52,127,91
1,38,94,0
1,44,100,0
1,42,100,2
1,46,127,3
1,33,78,0
1,35,74,0
1,44,100,0
1,42,100,2
1,38,106,0
1,44,100,0
1,39,127,11
1,42,100,2
1,33,82,0
1,35,82,0
1,44,100,0
1,42,100,2
1,38,103,0
1,44,100,0
1,39,127,3
1,42,100,2
1,35,66,0
1,33,65,0
1,44,100,0
1,42,100,2
1,38,118,0
1,44,100,0
1,39,127,8
1,42,100,2
1,33,72,0
1,35,73,0
1,44,100,0
1,42,100,2
1,45,118,60
1,33,87,32
1,38,94,0
1,44,100,0
1,39,127,5
1,42,100,2
1,33,78,0
1,35,74,0
1,44,100,0
1,42,100,2
1,38,106,0
1,44,100,0
1,39,127,1
1,42,100,2
1,33,82,0
1,35,82,0
1,44,100,0
1,42,100,2
1,38,103,0
1,44,100,0
1,39,127,1
1,42,100,2
1,35,66,0
1,33,65,0
1,44,100,0
1,42,100,2
1,38,118,0
1,44,100,0
1,39,122,1
1,42,100,2
1,33,72,0
1,35,73,0
1,44,100,0
1,42,100,2
1,38,94,0
1,44,100,0
1,39,127,3
1,42,100,2
1,33,78,0
1,35,74,0
1,44,100,0
1,42,100,2
1,38,106,0
1,44,100,0
1,39,127,3
1,42,100,2
1,33,82,0
1,35,82,0
1,44,100,0
1,42,100,2
1,38,103,0
1,44,100,0
1,39,118,4
1,42,100,2
1,35,66,0
1,33,65,0
1,44,100,0
1,42,100,2
1,38,118,0
1,44,100,0
1,39,127,3
1,42,100,2
1,33,72,0
1,35,73,0
1,44,100,0
1,42,100,2
1,38,94,0
1,44,100,0
1,39,127,1
1,42,100,2
1,33,78,0
1,35,74,0
1,44,100,0
1,42,100,2
1,39,127,0
1,38,106,0
1,44,100,0
1,42,100,2
1,33,82,0
1,35,82,0
1,44,100,0
1,42,100,2
1,38,103,0
1,44,100,0
1,39,127,12
1,42,100,2
1,35,66,0
1,33,65,0
1,44,100,0
1,42,100,2
1,39,106,0
1,38,118,0
1,44,100,0
1,42,100,2
1,33,72,0
1,35,73,0
1,44,100,0
1,42,100,2
1,39,113,91
1,38,94,0
1,44,100,0
1,42,100,2
1,33,78,0
1,35,74,0
1,44,100,0
1,42,100,2
1,38,106,0
1,44,100,0
1,39,110,0
1,42,100,2
1,33,82,0
1,35,82,0
1,44,100,0
1,42,100,2
1,38,103,0
1,44,100,0
1,39,127,9
1,42,100,2
1,35,66,0
1,33,65,0
1,44,100,0
1,42,100,2
1,38,118,0
1,44,100,0
1,39,122,4
1,42,100,2
1,33,72,0
1,35,73,0
1,44,100,0
1,42,100,2
1,38,94,0
1,44,100,0
1,39,127,3
1,42,100,2
1,33,78,0
1,35,74,0
1,44,100,0
1,42,100,2
1,38,106,0
1,44,100,0
1,39,127,16
1,42,100,2
1,33,82,0
1,35,82,0
1,44,100,0
1,42,100,2
1,38,103,0
1,44,100,0
1,39,118,6
1,42,100,2
1,35,66,0
1,33,65,0
1,44,100,0
1,42,100,2
1,38,118,0
1,44,100,0
1,39,113,3
1,42,100,2
1,33,72,0
1,35,73,0
1,44,100,0
1,42,100,2
1,39,127,0
1,38,94,0
1,44,100,0
1,42,100,2
1,46,113,6
1,33,78,0
1,35,74,0
1,44,100,0
1,42,100,2
1,38,106,0
1,44,100,0
1,42,100,2
1,33,82,0
1,35,82,0
1,44,100,0
1,42,100,2
1,38,103,0
1,44,100,0
1,42,100,2
1,35,66,0
1,33,65,0
1,44,100,0
1,42,100,2
1,38,118,0
1,44,100,0
1,42,100,2
1,33,72,0
1,35,73,0
1,44,100,0
1,42,100,2
1,38,94,0
1,44,100,0
1,42,100,2
1,33,78,0
1,35,74,0
1,44,100,0
1,42,100,2
1,38,106,0
1,44,100,0
1,42,100,2
1,33,82,0
1,35,82,0
1,44,100,0
1,42,100,2
1,38,103,0
1,44,100,0
1,42,100,2
1,35,66,0
1,33,65,0
1,44,100,0
1,42,100,2
1,38,118,0
1,44,100,0
1,42,100,2
1,33,72,0
1,35,73,0
1,44,100,0
1,42,100,2
1,38,94,0
1,44,100,0
1,42,100,2
1,33,78,0
1,35,74,0
1,44,100,0
1,42,100,2
1,38,106,0
1,44,100,0
1,42,100,2
1,33,82,0
1,35,82,0
1,44,100,0
1,42,100,2
1,38,103,0
1,44,100,0
1,42,100,2
1,35,66,0
1,33,65,0
1,44,100,0
1,42,100,2
1,38,118,0
1,44,100,0
1,42,100,2
1,33,72,0
1,35,73,0
1,44,100,0
1,42,100,2
1,38,94,0
1,44,100,0
1,42,100,2
1,33,78,0
1,35,74,0
1,44,100,0
1,42,100,2
1,38,106,0
1,44,100,0
1,42,100,2
1,33,82,0
1,35,82,0
1,44,100,0
1,42,100,2
1,38,103,0
1,44,100,0
1,42,100,2
1,35,66,0
1,33,65,0
1,44,100,0
1,42,100,2
1,38,118,0
1,44,100,0
1,42,100,2
1,33,72,0
1,35,73,0
1,44,100,0
1,42,100,2
1,38,94,0
1,44,100,0
1,42,100,2
1,33,78,0
1,35,74,0
1,44,100,0
1,42,100,2
1,38,106,0
1,44,100,0
1,42,100,2
1,33,82,0
1,35,82,0
1,44,100,0
1,42,100,2
1,38,103,0
1,44,100,0
1,42,100,2
1,35,66,0
1,33,65,0
1,44,100,0
1,42,100,2
1,38,118,0
1,44,100,0
1,42,100,2
1,33,72,0
1,35,73,0
1,44,100,0
1,42,100,2
1,38,94,0
1,44,100,0
1,42,100,2
1,33,78,0
1,35,74,0
1,44,100,0
1,42,100,2
1,38,106,0
1,44,100,0
1,42,100,2
1,33,82,0
1,35,82,0
1,44,100,0
1,42,100,2
1,38,103,0
1,44,100,0
1,42,100,2
1,35,66,0
1,33,65,0
1,44,100,0
1,42,100,2
1,38,118,0
1,44,100,0
1,42,100,2
1,33,72,0
1,35,73,0
1,44,100,0
1,42,100,2
1,38,94,0
1,44,100,0
1,42,100,2
1,33,78,0
1,35,74,0
1,44,100,0
1,42,100,2
1,38,106,0
1,44,100,0
1,42,100,2
1,33,82,0
1,35,82,0
1,44,100,0
1,42,100,2
1,38,103,0
1,44,100,0
1,42,100,2
1,35,66,0
1,33,65,0
1,44,100,0
1,42,100,2
1,38,118,0
1,44,100,0
1,42,100,2
1,33,72,0
1,35,73,0
1,44,100,0
1,42,100,2
1,38,94,0
1,44,100,0
1,42,100,2
1,33,78,0
1,35,74,0
1,44,100,0
