track,note,velocity,time
0,36,101,12
0,35,44,88
0,82,95,88
0,33,74,88
0,37,110,88
0,70,65,0
0,85,100,0
0,82,93,184
0,36,101,184
0,35,44,88
0,82,93,88
0,33,75,88
0,37,110,88
0,39,40,0
0,70,63,0
0,85,99,0
0,39,31,88
0,39,23,88
0,82,92,0
0,39,15,88
0,36,101,88
0,35,44,88
0,82,94,88
0,33,74,88
0,37,110,88
0,70,64,0
0,85,100,0
0,82,94,184
0,36,101,184
0,35,44,88
0,82,94,88
0,33,74,88
0,37,110,88
0,39,40,0
0,70,64,0
0,85,100,0
0,39,31,88
0,39,23,88
0,82,94,0
0,39,15,88
0,36,101,88
0,35,44,88
0,82,95,88
0,33,74,88
0,37,110,88
0,70,65,0
0,85,100,0
0,82,93,184
0,36,101,184
0,35,44,88
0,82,93,88
0,33,75,88
0,37,110,88
0,39,40,0
0,70,63,0
0,85,99,0
0,39,31,88
0,39,23,88
0,82,92,0
0,39,15,88
0,36,101,88
0,63,76,4
0,55,74,2
0,35,44,44
0,55,82,4
0,63,78,0
0,63,80,50
0,82,94,2
0,55,82,2
0,55,82,52
0,63,81,0
0,33,74,2
0,37,110,88
0,70,64,0
0,85,100,0
0,55,82,32
0,63,80,0
0,82,94,98
0,55,82,38
0,63,69,6
0,36,101,54
0,53,82,0
0,63,74,0
0,35,44,46
0,53,82,2
0,63,77,4
0,53,82,44
0,63,78,2
0,82,94,2
0,53,82,50
0,63,80,0
0,33,74,6
0,37,110,88
0,39,40,0
0,70,64,0
0,85,100,0
0,39,31,42
0,53,82,4
0,63,80,0
0,39,23,88
0,82,94,0
0,39,15,40
0,53,82,0
0,63,69,4
0,36,101,40
0,54,76,4
0,63,71,2
0,63,77,44
0,35,44,2
0,54,76,2
0,54,78,44
0,63,80,4
0,82,95,4
0,54,81,46
0,63,79,4
0,33,74,4
0,37,110,88
0,70,65,0
0,85,100,0
0,54,80,52
0,63,81,0
0,82,93,98
0,54,77,44
0,63,68,4
0,36,101,48
0,56,79,0
0,63,76,0
0,56,71,46
0,63,75,0
0,35,44,4
0,63,80,48
0,56,76,2
0,82,93,4
0,33,75,54
0,63,81,0
0,56,75,2
0,37,110,88
0,39,40,0
0,70,63,0
0,85,99,0
0,39,31,44
0,63,82,4
0,56,79,2
0,39,23,88
0,82,92,0
0,39,15,2
0,36,101,88
0,39,70,0
0,55,48,0
0,58,54,0
0,63,54,0
0,63,76,4
0,55,74,2
0,35,44,32
0,55,82,4
0,63,78,0
0,63,80,50
0,82,94,2
0,55,82,2
0,55,82,46
0,63,81,0
0,33,74,2
0,37,110,8
0,70,64,0
0,85,100,0
0,55,82,30
0,63,80,0
0,82,94,56
0,55,82,16
0,63,69,6
0,37,67,32
0,53,49,0
0,56,54,0
0,61,57,0
0,36,101,0
0,53,82,0
0,63,74,0
0,35,44,46
0,53,82,2
0,63,77,4
0,53,82,20
0,63,78,2
0,82,94,2
0,53,82,42
0,63,80,0
0,33,74,6
0,37,110,0
0,39,40,0
0,70,64,0
0,85,100,0
0,39,31,24
0,53,82,4
0,63,80,0
0,39,23,56
0,82,94,0
0,39,15,8
0,53,82,0
0,63,69,4
0,42,69,24
0,54,48,0
0,58,54,0
0,36,101,8
0,54,76,0
0,63,71,2
0,63,77,44
0,35,44,2
0,54,76,2
0,54,78,8
0,63,80,4
0,82,95,4
0,54,81,32
0,63,79,4
0,33,74,4
0,37,110,0
0,70,65,0
0,85,100,0
0,54,80,22
0,63,81,0
0,82,93,48
0,54,77,6
0,63,68,4
0,44,67,24
0,56,51,0
0,60,58,0
0,36,101,8
0,56,79,0
0,63,76,0
0,56,71,46
0,63,75,0
0,35,44,4
0,63,80,48
0,56,76,2
0,82,93,4
0,33,75,54
0,63,81,0
0,56,75,2
0,61,72,0
0,37,110,12
0,39,40,0
0,70,63,0
0,85,99,0
0,39,31,44
0,63,82,4
0,56,79,2
0,60,72,76
0,39,23,0
0,82,92,0
0,39,15,2
0,39,70,4
0,55,48,0
0,58,54,0
0,63,54,0
0,36,101,4
0,63,76,4
0,55,74,2
0,35,44,44
0,55,82,4
0,63,78,0
0,63,80,50
0,82,94,2
0,55,82,2
0,55,82,52
0,63,81,0
0,33,74,2
0,37,110,88
0,70,64,0
0,85,100,0
0,55,82,32
0,63,80,0
0,92,57,2
0,82,94,10
0,55,82,38
0,63,69,6
0,37,67,4
0,53,49,0
0,56,54,0
0,61,57,0
0,36,101,8
0,53,82,0
0,63,74,0
0,35,44,46
0,53,82,2
0,63,77,4
0,53,82,44
0,63,78,2
0,82,94,2
0,53,82,50
0,63,80,0
0,33,74,6
0,37,110,88
0,39,40,0
0,70,64,0
0,85,100,0
0,39,31,42
0,53,82,4
0,63,80,0
0,39,23,88
0,82,94,0
0,39,15,4
0,53,82,0
0,89,56,0
0,63,69,4
0,42,69,28
0,54,48,0
0,58,54,0
0,36,101,8
0,54,76,0
0,63,71,2
0,63,77,44
0,35,44,2
0,54,76,2
0,54,78,44
0,63,80,4
0,82,95,4
0,54,81,46
0,63,79,4
0,33,74,4
0,37,110,88
0,70,65,0
0,85,100,0
0,54,80,52
0,63,81,0
0,82,93,98
0,54,77,44
0,63,68,4
0,44,67,40
0,56,51,0
0,60,58,0
0,36,101,8
0,56,79,0
0,63,76,0
0,56,71,32
0,63,75,0
0,35,44,4
0,63,80,48
0,56,76,2
0,82,93,4
0,33,75,54
0,63,81,0
0,56,75,2
0,61,72,0
0,37,110,12
0,39,40,0
0,70,63,0
0,85,99,0
0,39,31,44
0,63,82,4
0,56,79,2
0,60,72,76
0,39,23,0
0,82,92,0
0,39,15,2
0,39,70,4
0,55,48,0
0,58,54,0
0,63,54,0
0,36,101,16
0,39,102,0
0,51,80,0
0,58,80,0
0,63,76,4
0,55,74,2
0,61,99,36
0,35,44,8
0,55,82,0
0,63,78,0
0,63,105,44
0,61,102,2
0,63,80,4
0,82,95,2
0,55,82,2
0,61,98,46
0,63,118,2
0,55,82,4
0,63,81,0
0,33,74,2
0,63,105,50
0,63,72,4
0,37,110,4
0,70,65,0
0,85,100,0
0,63,107,26
0,55,82,6
0,63,80,0
0,82,93,16
0,61,69,4
0,55,82,38
0,63,77,0
0,63,69,6
0,37,67,4
0,53,49,0
0,56,54,0
0,61,57,0
0,63,103,0
0,49,82,6
0,56,82,0
0,36,101,2
0,37,102,0
0,53,82,0
0,63,74,0
0,35,44,46
0,53,82,2
0,63,77,4
0,53,82,16
0,63,78,2
0,61,79,2
0,82,93,0
0,61,111,2
0,63,105,36
0,53,82,2
0,63,80,0
0,33,75,0
0,63,121,0
0,63,77,2
0,37,110,54
0,39,40,0
0,70,63,0
0,85,99,0
0,39,31,42
0,53,82,4
0,63,80,0
0,39,23,8
0,82,92,0
0,61,82,4
0,63,103,32
0,39,15,0
0,53,82,0
0,63,69,0
0,63,78,0
0,42,69,32
0,54,48,0
0,58,54,0
0,42,101,8
0,54,80,0
0,58,80,0
0,36,101,0
0,54,76,0
0,63,71,2
0,61,90,16
0,63,77,6
0,35,44,2
0,54,76,2
0,54,78,40
0,63,105,0
0,63,80,4
0,61,109,4
0,82,94,0
0,54,81,46
0,61,96,0
0,63,79,4
0,61,120,2
0,33,74,2
0,63,105,24
0,37,110,8
0,61,1,0
0,61,94,0
0,66,1,0
0,66,94,0
0,70,64,0
0,85,100,0
0,63,110,28
0,54,80,6
0,63,81,0
0,61,1,2
0,61,93,0
0,66,1,0
0,66,93,0
0,82,94,0
0,54,77,0
0,63,1,2
0,63,93,0
0,66,1,0
0,66,93,0
0,63,68,0
0,44,67,4
0,56,51,0
0,60,58,0
0,63,105,0
0,36,101,8
0,44,99,0
0,56,79,0
0,56,80,0
0,60,80,0
0,63,76,0
0,56,71,46
0,63,75,0
0,35,44,4
0,63,80,48
0,56,76,2
0,63,1,2
0,63,91,0
0,66,1,0
0,66,91,0
0,82,94,0
0,61,109,6
0,63,102,32
0,33,74,2
0,63,81,0
0,56,75,2
0,63,116,0
0,61,72,0
0,37,110,2
0,39,40,0
0,61,1,0
0,61,77,0
0,66,1,0
0,66,84,0
0,70,64,0
0,85,100,0
0,39,31,2
0,58,1,0
0,58,71,0
0,63,1,0
0,63,78,0
0,63,82,4
0,56,79,2
0,60,72,4
0,39,23,0
0,82,94,0
0,63,102,0
0,39,15,2
0,58,1,0
0,58,78,0
0,63,1,0
0,63,85,0
0,39,70,4
0,55,48,0
0,58,54,0
0,63,54,0
0,36,101,16
0,39,102,0
0,51,80,0
0,58,80,0
0,63,76,4
0,55,74,2
0,61,99,36
0,35,44,8
0,55,82,0
0,63,78,0
0,63,105,44
0,61,102,2
0,63,80,4
0,82,95,2
0,55,82,2
0,61,98,46
0,63,118,2
0,55,82,4
0,63,81,0
0,33,74,2
0,63,67,46
0,63,105,4
0,37,110,8
0,70,65,0
0,85,100,0
0,63,107,26
0,55,82,0
0,63,80,0
0,82,93,92
0,61,70,0
0,55,82,38
0,63,82,0
0,63,69,6
0,37,67,4
0,53,49,0
0,56,54,0
0,61,57,0
0,63,103,0
0,49,82,6
0,56,82,0
0,36,101,2
0,37,102,0
0,53,82,0
0,63,74,0
0,35,44,46
0,53,82,2
0,63,77,4
0,53,82,44
0,61,76,2
0,63,78,0
0,82,93,2
0,61,111,2
0,63,105,36
0,53,82,2
0,63,80,0
0,63,77,0
0,33,75,6
0,63,121,0
0,37,110,54
0,39,40,0
0,70,63,0
0,85,99,0
0,39,31,42
0,53,82,4
0,63,80,0
0,39,23,88
0,82,92,0
0,61,63,0
0,63,103,28
0,39,15,8
0,53,82,0
0,63,69,0
0,63,72,4
0,42,69,32
0,54,48,0
0,58,54,0
0,36,101,8
0,42,101,0
0,54,80,0
0,58,80,0
0,54,76,0
0,63,71,2
0,61,90,38
0,63,77,6
0,35,44,2
0,54,76,2
0,54,78,44
0,63,105,0
0,63,80,4
0,61,109,4
0,82,94,0
0,54,81,46
0,61,96,0
0,63,79,4
0,61,120,2
0,33,74,2
0,63,105,46
0,37,110,8
0,61,1,0
0,61,86,0
0,66,1,0
0,66,86,0
0,70,64,0
0,85,100,0
0,63,110,28
0,54,80,0
0,63,81,0
0,61,1,2
0,61,76,0
0,66,1,0
0,66,76,0
0,82,94,4
0,54,77,0
0,60,1,2
0,60,81,0
0,66,1,0
0,66,88,0
0,63,68,0
0,44,67,4
0,56,51,0
0,60,58,0
0,63,105,0
0,36,101,8
0,44,99,0
0,56,79,0
0,56,80,0
0,60,80,0
0,63,76,0
0,56,71,46
0,63,75,0
0,35,44,4
0,63,80,20
0,56,76,2
0,60,1,2
0,60,84,0
0,66,1,0
0,66,91,0
0,82,94,0
0,61,109,6
0,63,102,32
0,33,74,8
0,63,81,0
0,56,75,2
0,63,116,0
0,61,72,0
0,37,110,2
0,39,40,0
0,61,1,0
0,61,81,0
0,66,1,0
0,66,81,0
0,70,64,0
0,85,100,0
0,39,31,44
0,58,1,0
0,58,79,0
0,63,1,0
0,63,86,0
0,63,82,4
0,56,79,2
0,60,72,8
0,39,23,0
0,82,94,0
0,63,102,0
0,39,15,2
0,58,1,0
0,58,77,0
0,63,1,0
0,63,84,0
0,39,70,4
0,55,48,0
0,58,54,0
0,63,64,0
0,63,66,14
0,36,101,2
0,39,102,0
0,51,85,0
0,58,85,0
0,63,76,4
0,55,74,2
0,46,82,2
0,61,90,36
0,35,44,8
0,55,82,0
0,63,78,0
0,63,105,44
0,61,102,2
0,63,80,4
0,82,95,2
0,55,82,2
0,61,96,46
0,63,118,2
0,55,82,4
0,63,81,0
0,33,74,2
0,63,83,44
0,63,105,6
0,37,110,8
0,70,65,0
0,85,100,0
0,63,110,26
0,55,82,0
0,63,80,0
0,61,78,60
0,82,93,4
0,46,98,2
0,63,82,0
0,55,82,4
0,48,98,2
0,63,69,4
0,37,67,4
0,49,104,0
0,53,49,0
0,56,54,0
0,61,57,0
0,63,105,0
0,49,97,2
0,56,97,0
0,36,101,0
0,37,102,0
0,53,82,0
0,63,74,0
0,65,70,0
0,61,86,2
0,65,86,0
0,63,86,20
0,35,44,4
0,53,82,2
0,63,77,4
0,61,86,0
0,53,82,12
0,63,78,2
0,82,93,2
0,61,111,2
0,63,102,32
0,53,82,2
0,63,80,0
0,33,75,6
0,63,121,0
0,63,89,0
0,37,110,54
0,39,40,0
0,70,63,0
0,85,99,0
0,39,31,26
0,53,82,4
0,63,80,0
0,63,89,2
0,61,81,8
0,39,23,6
0,82,92,0
0,63,102,0
0,63,85,0
0,39,15,6
0,53,82,0
0,63,69,0
0,42,69,32
0,54,48,0
0,58,54,0
0,42,101,8
0,54,95,0
0,58,95,0
0,36,101,0
0,66,70,0
0,61,83,2
0,66,84,0
0,54,76,0
0,63,71,0
0,61,99,16
0,63,77,6
0,35,44,2
0,54,76,2
0,54,78,40
0,63,105,0
0,63,80,4
0,61,109,4
0,82,94,0
0,54,81,4
0,61,98,0
0,63,79,4
0,61,120,2
0,33,74,2
0,63,105,24
0,37,110,8
0,61,1,0
0,61,92,0
0,66,1,0
0,66,92,0
0,70,64,0
0,85,100,0
0,63,107,18
0,54,80,0
0,63,81,0
0,61,1,2
0,61,92,0
0,66,1,0
0,66,92,0
0,82,94,16
0,54,77,0
0,60,1,2
0,60,90,0
0,66,1,0
0,66,90,0
0,63,68,0
0,44,67,4
0,56,51,0
0,60,58,0
0,63,103,0
0,36,101,8
0,44,99,0
0,56,79,0
0,56,85,0
0,60,85,0
0,63,76,0
0,63,66,0
0,68,65,0
0,68,64,0
0,56,71,32
0,63,75,0
0,35,44,2
0,60,1,0
0,60,85,0
0,66,1,0
0,66,92,0
0,63,80,30
0,56,76,2
0,60,1,2
0,60,87,0
0,66,1,0
0,66,94,0
0,82,94,0
0,61,109,6
0,63,105,28
0,33,74,2
0,60,1,0
0,60,83,0
0,63,81,0
0,66,1,0
0,66,90,0
0,56,75,2
0,63,116,0
0,61,72,0
0,37,110,2
0,39,40,0
0,61,1,0
0,61,87,0
0,66,1,0
0,66,94,0
0,70,64,0
0,85,100,0
0,39,31,8
0,63,82,4
0,56,79,2
0,60,72,76
0,39,23,0
0,58,1,0
0,58,70,0
0,63,1,0
0,63,77,0
0,82,94,0
0,63,103,0
0,39,15,2
0,58,1,0
0,58,81,0
0,63,1,0
0,63,88,0
0,39,70,4
0,55,48,0
0,58,54,0
0,63,54,0
0,36,101,16
0,39,102,0
0,51,80,0
0,58,80,0
0,63,76,4
0,55,74,2
0,61,90,36
0,35,44,8
0,55,82,0
0,63,78,0
0,63,105,44
0,61,102,2
0,63,80,4
0,82,95,2
0,55,82,2
0,61,96,46
0,63,118,2
0,55,82,4
0,63,81,0
0,33,74,2
0,63,105,50
0,63,79,4
0,37,110,4
0,70,65,0
0,85,100,0
0,63,110,26
0,55,82,0
0,63,80,0
0,61,83,88
0,82,93,0
0,55,82,38
0,63,82,2
0,63,69,4
0,37,67,4
0,53,49,0
0,56,54,0
0,61,57,0
0,63,105,0
0,49,82,6
0,56,82,0
0,36,101,2
0,37,102,0
0,53,82,0
0,63,74,0
0,35,44,46
0,53,82,2
0,63,77,4
0,53,82,44
0,63,78,0
0,61,85,2
0,82,93,0
0,61,111,2
0,63,102,36
0,53,82,2
0,63,80,0
0,33,75,6
0,63,121,0
0,63,79,8
0,37,110,54
0,39,40,0
0,70,63,0
0,85,99,0
0,39,31,42
0,53,82,4
0,63,80,0
0,39,23,88
0,82,92,0
0,61,79,8
0,63,102,32
0,39,15,8
0,53,82,0
0,63,69,0
0,63,77,0
0,42,69,32
0,54,48,0
0,58,54,0
0,36,101,8
0,42,101,0
0,54,80,0
0,58,80,0
0,54,76,0
0,63,71,2
0,63,77,44
0,35,44,2
0,54,76,2
0,54,78,44
0,63,80,4
0,61,109,4
0,82,94,0
0,54,81,46
0,63,79,4
0,61,120,2
0,33,74,2
0,37,110,54
0,61,1,0
0,61,94,0
0,66,1,0
0,66,94,0
0,70,64,0
0,85,100,0
0,54,80,52
