track,note,velocity,time
0,70,83,651
0,65,75,3
0,60,61,1
0,70,0,8
0,65,0,1
0,60,0,8
0,60,40,16
0,70,69,1
0,60,0,10
0,70,0,0
0,60,51,16
0,65,73,0
0,70,70,1
0,60,0,7
0,65,0,1
0,70,0,1
0,70,72,18
0,65,72,1
0,60,66,1
0,70,0,7
0,65,0,1
0,60,0,3
0,70,94,13
0,65,83,1
0,60,72,1
0,70,0,4
0,65,0,6
0,60,0,4
0,65,117,25
0,69,107,1
0,60,93,3
0,65,0,44
0,69,0,41
0,60,76,0
0,60,0,7
0,60,0,54
0,60,94,9
0,65,95,0
0,67,87,1
0,60,0,38
0,65,0,8
0,67,0,4
0,60,69,30
0,67,68,1
0,64,74,2
0,60,0,8
0,64,36,0
0,67,0,10
0,64,0,9
0,64,0,1
0,65,100,23
0,69,105,1
0,60,97,1
0,65,0,13
0,34,91,36
0,69,0,24
0,35,97,30
0,60,0,19
0,36,84,37
0,41,95,74
0,29,80,2
0,28,36,6
0,34,0,6
0,35,0,3
0,36,0,1
0,41,0,1
0,29,0,27
0,28,0,1
0,29,85,3
0,41,87,1
0,60,65,73
0,65,69,0
0,29,0,8
0,41,0,1
0,60,41,6
0,64,60,1
0,65,54,1
0,60,0,6
0,65,0,2
0,60,0,1
0,70,87,15
0,65,85,1
0,60,63,2
0,64,0,6
0,65,0,2
0,70,0,5
0,65,0,1
0,70,87,13
0,60,63,2
0,65,82,2
0,60,0,2
0,70,0,0
0,60,0,7
0,70,92,13
0,60,75,1
0,65,86,1
0,29,80,2
0,65,0,2
0,70,0,4
0,60,0,9
0,60,91,22
0,65,107,1
0,69,102,1
0,65,0,13
0,29,0,5
0,41,73,28
0,60,0,24
0,65,0,8
0,60,82,5
0,41,82,33
0,69,0,14
0,41,0,15
0,60,0,18
0,29,84,12
0,65,91,1
0,60,94,1
0,67,84,1
0,41,0,18
0,41,78,49
0,29,0,20
0,65,0,6
0,60,0,0
0,67,0,4
0,60,69,6
0,67,71,0
0,65,73,1
0,41,80,2
0,41,0,21
0,60,0,2
0,67,0,5
0,65,0,9
0,41,0,1
0,65,102,4
0,69,100,0
0,60,93,1
0,29,79,3
0,65,0,35
0,33,100,23
0,69,0,2
0,34,96,30
0,60,0,21
0,35,95,37
0,29,0,2
0,36,102,37
0,33,0,6
0,34,0,5
0,35,0,2
0,36,0,7
0,41,92,52
0,29,86,1
0,41,0,1
0,29,0,0
0,29,79,28
0,41,85,2
0,70,92,64
0,65,102,1
0,60,83,1
0,29,0,6
0,41,0,1
0,70,0,1
0,65,0,2
0,60,0,6
0,65,86,1
0,70,82,0
0,60,49,3
0,65,0,5
0,70,0,3
0,60,0,1
0,70,79,17
0,65,80,0
0,60,57,2
0,70,0,7
0,65,0,1
0,60,0,4
0,70,90,16
0,60,59,1
0,65,85,0
0,70,0,1
0,60,0,1
0,65,0,6
0,29,51,13
0,41,78,2
0,70,87,4
0,65,90,2
0,60,77,0
0,29,0,8
0,41,0,1
0,70,0,9
0,69,102,1
0,65,107,1
0,60,97,1
0,65,0,3
0,60,0,36
0,41,84,4
0,69,0,3
0,65,0,0
0,60,91,9
0,60,0,32
0,41,88,3
0,41,0,18
0,60,0,13
0,41,0,1
0,29,88,25
0,67,92,3
0,65,94,1
0,60,88,0
0,41,83,64
0,29,0,10
0,67,0,9
0,65,0,1
0,60,0,3
0,67,87,35
0,65,91,1
0,60,84,1
0,41,87,9
0,41,0,8
0,67,0,3
0,65,0,5
0,60,0,3
0,41,0,6
0,69,100,15
0,65,102,0
0,60,91,1
0,29,95,4
0,69,0,28
0,33,98,27
0,65,0,8
0,34,94,31
0,60,0,20
0,35,100,42
0,29,0,19
0,36,93,24
0,38,69,2
0,33,0,9
0,34,0,7
0,41,94,54
0,29,85,1
0,35,0,9
0,36,0,0
0,38,0,16
0,41,0,2
0,29,0,2
0,41,88,9
0,29,79,0
0,70,86,5
0,60,77,1
0,65,85,1
0,41,0,7
0,29,0,1
0,70,0,3
0,60,42,12
0,65,84,1
0,70,79,1
0,60,0,8
0,65,0,1
0,60,0,2
0,60,70,2
0,70,83,1
0,65,88,1
0,65,0,8
0,70,0,4
0,60,0,4
0,70,0,2
0,65,0,7
0,60,71,2
0,65,77,2
0,70,80,1
0,60,0,7
0,65,0,6
0,70,0,2
0,29,59,13
0,41,77,1
0,60,76,2
0,70,81,0
0,65,84,2
0,29,0,12
0,41,0,10
0,60,0,3
0,65,107,26
0,69,102,0
0,60,88,2
0,70,0,7
0,41,86,4
0,65,0,2
0,65,0,23
0,69,0,31
0,41,83,8
0,60,83,0
0,60,0,19
0,41,0,2
0,41,0,4
0,60,0,19
0,29,84,14
0,60,92,2
0,65,93,1
0,67,84,1
0,41,82,27
0,29,0,18
0,60,0,1
0,65,0,10
0,67,0,6
0,60,82,30
0,41,77,1
0,65,83,0
0,67,82,2
0,41,0,21
0,60,0,1
0,41,0,3
0,65,0,6
0,67,0,7
0,65,100,7
0,69,100,1
0,60,93,1
0,29,93,2
0,65,0,33
0,33,95,24
0,69,0,27
0,34,92,30
0,60,0,21
0,35,102,42
0,29,0,19
0,36,97,15
0,33,0,4
0,34,0,11
0,35,0,1
0,36,0,2
0,29,87,53
0,41,90,1
0,29,0,1
0,41,0,0
0,41,80,26
0,29,76,2
0,70,90,64
0,65,95,2
0,60,77,0
0,41,0,6
0,29,0,1
0,70,0,1
0,70,74,15
0,65,69,1
0,60,55,1
0,65,0,6
0,60,0,1
0,70,0,1
0,70,74,17
0,65,69,1
0,60,60,0
0,65,0,4
0,60,0,3
0,70,0,1
0,65,0,4
0,60,0,4
0,29,79,48
0,70,96,1
0,60,82,2
0,65,87,1
0,29,0,8
0,70,0,3
0,60,0,10
0,65,107,13
0,69,97,1
0,60,87,2
0,65,0,32
0,41,82,26
0,65,0,5
0,69,0,7
0,60,0,5
0,60,87,6
0,41,83,30
0,41,0,16
0,60,0,2
0,41,0,8
0,60,87,33
0,67,87,0
0,29,82,1
0,65,91,0
0,41,71,62
0,60,0,8
0,67,0,9
0,29,0,4
0,65,0,2
0,67,74,41
0,65,78,1
0,60,75,0
0,41,68,1
0,41,0,9
0,67,0,8
0,65,0,4
0,60,0,1
0,41,0,2
0,65,98,29
0,69,97,0
0,60,93,1
0,29,93,5
0,65,0,27
0,33,95,28
0,69,0,7
0,34,94,29
0,60,0,21
0,35,111,43
0,29,0,7
0,33,0,26
0,36,98,4
0,34,0,10
0,35,0,2
0,36,0,7
0,41,85,49
0,29,86,2
0,41,0,4
0,29,0,2
0,29,82,27
0,41,90,0
0,70,91,64
0,65,86,2
0,60,61,1
0,29,0,3
0,62,65,0
0,41,0,2
0,70,0,2
0,65,0,1
0,60,0,2
0,62,0,10
0,70,82,3
0,65,60,2
0,60,42,3
0,70,0,5
0,65,0,1
0,60,0,2
0,65,84,12
0,60,71,1
0,70,87,1
0,65,0,7
0,60,0,1
0,70,0,5
0,70,89,15
0,60,63,1
0,65,82,1
0,70,0,8
0,60,0,0
0,65,0,6
0,29,77,16
0,41,81,1
0,70,84,0
0,65,85,2
0,60,66,0
0,29,0,8
0,41,0,4
0,70,0,9
0,65,0,8
0,60,102,4
0,65,95,0
0,69,95,1
0,60,0,23
0,41,83,2
0,60,0,8
0,65,0,4
0,60,82,3
0,41,86,36
0,69,0,11
0,41,0,4
0,60,0,1
0,41,0,11
0,29,85,34
0,67,90,5
0,65,95,0
0,60,87,1
0,41,65,15
0,29,0,3
0,67,0,12
0,65,0,4
0,60,0,0
0,60,84,41
0,67,82,1
0,65,84,0
0,41,87,4
0,41,0,6
0,60,0,7
0,67,0,2
0,65,0,4
0,41,0,6
0,41,80,24
0,65,102,3
0,69,97,1
0,60,95,1
0,41,0,26
0,29,90,29
0,65,0,15
0,29,95,13
0,69,0,27
0,33,105,35
0,60,0,5
0,29,0,9
0,29,0,2
0,33,0,3
0,34,95,5
0,34,0,20
0,62,84,53
0,58,91,1
0,65,85,1
0,34,97,2
0,62,0,20
0,58,0,3
0,65,0,10
0,34,91,4
0,34,0,1
0,62,90,69
0,65,86,1
0,58,96,1
0,34,0,10
0,62,0,3
0,65,0,9
0,34,87,11
0,58,0,1
0,34,0,21
0,62,77,10
0,58,79,0
0,62,0,9
0,58,0,4
0,34,82,13
0,58,95,26
0,61,49,2
0,53,92,0
0,62,82,1
0,65,82,1
0,34,0,23
0,29,92,43
0,58,0,27
0,32,101,3
0,61,0,13
0,53,0,6
0,62,0,6
0,33,100,7
0,65,0,1
0,29,0,2
0,32,0,16
0,33,0,3
0,34,110,44
0,34,0,6
0,34,96,26
0,65,93,73
0,62,90,0
0,58,97,0
0,34,0,23
0,65,0,1
0,62,0,12
0,58,0,1
0,34,93,16
0,34,0,24
0,62,69,7
0,58,79,0
0,65,61,2
0,62,0,13
0,58,0,3
0,65,0,4
0,34,88,9
0,65,91,66
0,62,91,1
0,58,94,2
0,34,0,18
0,34,103,40
0,65,0,1
0,62,0,8
0,58,0,1
0,34,0,10
0,34,103,3
0,34,0,22
0,29,105,42
0,29,0,6
0,29,98,30
0,29,0,25
0,70,93,42
0,65,98,1
0,60,71,3
0,70,0,4
0,65,0,1
0,60,0,2
0,70,82,15
0,65,85,0
0,60,67,1
0,70,0,1
0,65,0,1
0,60,0,4
0,70,84,15
0,65,67,3
0,60,54,0
0,70,0,8
0,65,0,0
0,60,0,6
0,60,58,12
0,65,68,1
0,70,78,1
0,60,0,7
0,65,0,0
0,70,0,3
0,65,91,20
0,70,86,0
0,60,58,2
0,65,0,8
0,29,70,3
0,70,0,3
0,60,0,8
0,29,0,1
0,65,111,27
0,69,105,1
0,60,95,1
0,41,80,10
0,65,0,13
0,69,0,1
0,60,82,13
0,60,0,28
0,41,84,4
0,41,0,14
0,60,0,7
0,41,0,14
0,67,85,29
0,29,86,0
0,60,91,1
0,65,92,1
0,41,77,20
0,67,0,12
0,29,0,6
0,60,0,2
0,65,0,6
0,67,75,37
0,41,84,1
0,60,65,1
0,65,64,3
0,41,0,5
0,67,0,6
0,41,0,4
0,60,0,8
0,65,0,2
0,69,100,25
0,65,100,1
0,60,93,0
0,29,93,6
0,69,0,25
0,29,95,31
0,65,0,10
0,33,102,34
0,60,0,21
0,34,103,41
0,29,0,21
0,29,0,17
0,33,0,1
0,34,0,1
0,35,105,4
0,35,0,18
0,60,91,47
0,64,87,1
0,55,90,1
0,36,125,2
0,67,80,0
0,60,0,26
0,64,0,1
0,55,0,6
0,55,77,11
0,36,0,10
0,60,91,47
0,55,100,0
0,64,77,2
0,67,0,15
0,55,0,31
0,60,0,0
0,55,0,1
0,36,91,5
0,64,0,12
0,60,73,4
0,55,83,1
0,64,74,2
0,36,0,31
0,36,84,1
0,60,0,2
0,60,80,11
0,55,90,1
0,55,0,13
0,64,0,12
0,36,0,2
0,60,0,1
0,36,95,2
0,55,0,1
0,36,0,29
0,35,91,27
0,35,0,15
0,58,92,31
0,53,90,2
0,62,81,1
0,65,82,1
0,34,92,2
0,61,58,0
0,58,0,25
0,53,0,4
0,62,0,6
0,65,0,2
0,58,93,43
0,53,97,1
0,62,79,0
0,34,0,11
0,61,0,2
0,58,0,3
0,53,0,6
0,34,93,27
0,62,0,23
0,34,91,39
0,58,87,5
0,53,79,1
0,62,67,1
0,34,0,8
0,34,0,1
0,58,0,5
0,53,0,5
0,62,0,1
0,65,48,10
0,34,89,1
0,60,93,1
0,57,93,1
0,62,31,9
0,65,0,6
0,34,0,3
0,60,0,0
0,57,0,7
0,62,0,3
0,29,98,36
0,29,0,1
0,29,100,24
0,29,0,24
0,70,92,36
0,65,100,0
0,60,81,2
0,70,0,7
0,65,0,0
0,60,0,2
0,70,87,3
0,60,57,1
0,65,85,0
0,70,0,9
0,60,0,0
0,65,0,2
0,70,86,12
0,60,66,1
0,65,72,2
0,70,0,7
0,60,0,1
0,65,0,5
0,70,84,15
0,65,72,1
0,60,62,0
0,70,0,8
0,65,0,0
0,60,0,7
0,70,87,15
0,65,71,3
0,29,80,0
0,60,42,3
0,70,0,5
0,65,0,3
0,29,0,4
0,69,100,39
0,65,105,0
0,60,91,1
0,60,0,50
0,41,77,11
0,69,0,3
0,65,0,10
0,60,84,6
0,41,82,25
0,60,0,15
0,41,0,3
0,60,0,2
0,41,0,25
0,29,88,19
0,67,86,2
0,65,87,1
0,60,79,0
0,41,75,33
0,29,0,18
0,67,0,12
0,65,0,0
0,60,0,6
0,41,56,18
0,60,62,12
0,41,0,18
0,41,0,0
0,60,0,1
0,67,90,7
0,60,84,1
0,65,91,1
0,29,92,3
0,67,0,28
0,33,94,25
0,60,0,13
0,34,97,33
0,65,0,22
0,29,0,28
0,33,0,7
0,34,0,4
0,35,120,5
0,60,77,5
0,65,85,1
0,69,94,1
0,35,0,1
0,60,0,5
0,65,0,5
0,69,0,5
0,36,95,14
0,36,0,14
0,29,85,53
0,41,94,1
0,29,0,16
0,41,0,3
0,41,90,32
0,29,82,0
0,70,92,59
0,65,88,2
0,60,76,1
0,41,0,7
0,29,0,2
0,70,0,0
0,65,0,9
0,70,87,4
0,65,73,1
0,60,52,3
0,60,0,2
0,70,0,0
0,65,0,3
0,60,0,15
0,65,82,1
0,70,81,1
0,60,61,2
0,65,0,7
0,70,0,1
0,60,0,6
0,70,88,14
0,65,81,1
0,60,64,0
0,70,0,8
0,65,0,1
0,60,0,6
0,70,81,20
0,65,84,2
0,60,66,1
0,29,91,1
0,70,0,4
0,65,0,0
0,60,0,11
0,69,100,39
0,65,97,1
0,60,94,1
0,29,0,39
0,41,82,2
0,69,0,21
0,65,0,1
0,60,84,6
0,41,82,26
0,60,0,13
0,41,0,7
0,60,0,1
0,41,0,11
0,29,90,36
0,67,86,0
0,60,84,0
0,65,86,2
0,41,75,22
0,29,0,6
0,67,0,5
0,60,0,5
0,67,90,46
0,60,87,0
0,65,85,1
0,65,0,8
0,41,0,6
0,67,0,7
0,60,0,3
0,65,0,3
0,69,100,25
0,65,102,1
0,60,94,1
0,29,94,4
0,69,0,26
0,33,107,29
0,65,0,8
0,34,102,26
0,60,0,22
0,35,111,8
0,29,0,20
0,36,114,44
0,33,0,18
0,41,88,50
0,29,88,2
0,34,0,4
0,35,0,12
0,36,0,1
0,41,0,2
0,29,0,1
0,41,92,36
0,29,84,1
0,70,93,67
0,65,102,0
0,60,80,2
0,41,0,7
0,29,0,1
0,70,0,3
0,70,87,15
0,60,61,1
0,65,74,2
0,65,0,7
0,60,0,1
0,70,0,4
0,60,0,11
0,60,67,3
0,65,77,1
0,70,83,1
0,65,0,9
0,60,0,2
0,65,0,10
0,29,77,41
0,70,97,5
0,65,95,1
0,60,88,0
0,70,0,19
0,29,0,7
0,70,0,6
0,65,90,24
0,60,84,1
0,69,90,0
0,65,0,16
0,60,0,36
0,41,82,15
0,65,0,18
0,60,81,1
0,60,0,23
0,41,86,13
0,69,0,16
0,41,0,4
0,60,0,3
0,41,0,19
0,65,85,23
0,60,83,1
0,29,82,1
0,67,81,0
0,65,0,39
0,60,0,55
0,29,0,5
0,67,76,29
0,60,62,1
0,65,72,1
0,67,0,8
0,67,0,10
0,60,0,8
0,65,0,4
0,69,102,29
0,65,100,0
0,60,93,1
0,29,94,3
0,69,0,26
0,33,100,29
0,65,0,24
0,33,77,39
0,34,59,1
0,60,0,12
0,29,0,1
0,35,97,56
0,33,0,18
0,36,87,35
0,33,0,18
0,34,0,41
0,41,87,5
0,29,90,2
0,35,0,15
0,36,0,1
0,41,0,5
0,29,0,5
0,41,87,32
0,29,75,0
0,70,88,72
0,65,95,0
0,60,83,1
0,41,0,7
0,29,0,0
0,70,0,1
0,65,0,7
0,60,63,9
0,70,74,1
0,65,81,1
0,60,0,8
0,60,0,1
0,70,0,2
0,65,0,12
0,60,64,3
0,70,85,0
0,65,76,2
0,60,0,8
0,70,0,1
0,65,0,5
0,60,56,10
0,65,76,4
0,70,83,1
0,60,0,7
0,65,0,3
0,70,0,0
