track,note,velocity,time
3,72,121,3740
3,67,100,96
3,72,0,9
3,72,115,87
3,67,0,14
3,74,118,81
3,72,0,8
3,76,104,183
3,74,0,4
3,76,0,203
3,72,117,82
3,67,88,97
3,72,0,14
3,72,104,82
3,67,0,15
3,74,108,81
3,72,0,10
3,76,102,182
3,74,0,19
3,76,0,128
3,72,104,285
3,72,0,48
3,74,97,0
3,74,0,96
3,70,76,0
3,70,0,71
3,70,84,24
3,70,0,726
3,72,120,426
3,67,86,96
3,72,0,11
3,72,100,85
3,67,0,18
3,74,106,78
3,72,0,12
3,76,102,180
3,74,0,15
3,76,0,194
3,72,110,79
3,67,67,96
3,72,0,6
3,72,94,90
3,67,0,25
3,74,94,72
3,72,0,17
3,76,104,174
3,74,0,7
3,76,0,186
3,79,103,191
3,79,0,96
3,79,102,0
3,79,0,96
3,79,94,1
3,79,0,133
3,74,82,11
3,74,0,48
3,74,88,0
3,74,0,513
3,72,115,447
3,72,0,93
3,79,112,5
3,77,110,136
3,79,0,11
3,76,117,114
3,77,0,12
3,74,108,110
3,76,0,2
3,74,0,220
3,72,88,60
3,79,108,91
3,72,0,7
3,77,108,135
3,79,0,8
3,76,114,128
3,77,0,13
3,74,102,94
3,76,0,6
3,74,0,210
3,76,122,176
3,77,88,95
3,76,0,11
3,76,106,86
3,77,0,24
3,77,92,72
3,76,0,13
3,76,112,84
3,77,0,20
3,76,0,68
3,72,102,7
3,68,104,97
3,72,0,23
3,68,0,69
3,72,106,4
3,72,0,600
3,72,114,167
3,77,117,94
3,72,0,26
3,77,0,99
3,75,102,5
3,75,0,121
3,74,108,7
3,72,110,130
3,74,0,1
3,72,0,207
3,72,119,77
3,77,114,102
3,72,0,7
3,75,110,128
3,77,0,6
3,74,106,114
3,75,0,7
3,72,112,111
3,74,0,6
3,72,0,281
3,74,120,106
3,75,86,93
3,74,0,13
3,74,115,84
3,75,0,16
3,75,98,79
3,74,0,9
3,75,0,81
3,74,116,6
3,70,82,97
3,74,0,60
3,70,0,97
3,72,106,131
3,69,88,96
3,72,0,11
3,72,104,85
3,69,0,6
3,72,0,30
3,72,112,60
3,74,114,191
3,72,0,7
3,74,0,200
3,72,117,82
3,67,98,96
3,72,0,19
3,72,104,77
3,67,0,24
3,74,104,71
3,72,0,13
3,76,100,179
3,74,0,8
3,76,0,200
3,72,114,80
3,67,73,96
3,72,0,8
3,72,104,88
3,67,0,15
3,74,106,81
3,72,0,20
3,76,96,172
3,74,0,21
3,76,0,127
3,72,119,236
3,74,110,96
3,72,0,11
3,70,96,85
3,74,0,6
3,70,0,27
3,70,94,63
3,70,0,425
3,72,116,727
3,67,92,96
3,72,0,2
3,72,112,94
3,67,0,13
3,72,0,59
3,74,108,24
3,76,104,193
3,74,0,21
3,76,0,141
3,67,104,30
3,67,0,95
3,72,102,0
3,67,90,96
3,72,0,6
3,72,106,90
3,67,0,19
3,74,108,77
3,72,0,16
3,76,110,177
3,74,0,4
3,76,0,207
3,79,117,268
3,79,0,170
3,81,116,22
3,79,117,96
3,81,0,14
3,79,0,121
3,76,110,57
3,74,92,145
3,76,0,11
3,72,96,37
3,74,0,11
3,72,0,85
3,74,87,0
3,74,0,237
3,72,114,242
3,79,112,90
3,72,0,17
3,79,0,118
3,77,114,2
3,76,116,127
3,77,0,12
3,74,104,115
3,76,0,3
3,74,0,192
3,72,114,93
3,79,110,93
3,72,0,8
3,77,110,131
3,79,0,10
3,76,108,126
3,77,0,13
3,74,106,94
3,76,0,7
3,74,0,203
3,76,122,178
3,77,98,96
3,76,0,21
3,76,110,76
3,77,0,18
3,77,102,77
3,76,0,12
3,76,116,85
3,77,0,23
3,76,0,71
3,72,104,1
3,68,106,97
3,72,0,19
3,68,0,72
3,72,106,5
3,72,0,446
3,72,115,320
3,77,115,98
3,72,0,23
3,75,104,109
3,77,0,6
3,75,0,131
3,74,96,2
3,72,92,117
3,74,0,3
3,72,0,61
3,72,120,28
3,72,0,144
3,77,117,33
3,77,0,195
3,75,96,11
3,75,0,193
3,75,111,0
3,75,0,48
3,74,115,0
3,72,90,47
3,74,0,16
3,72,0,209
3,74,122,160
3,75,84,95
3,74,0,6
3,74,100,91
3,75,0,19
3,75,90,76
3,74,0,13
3,75,0,69
3,74,108,14
3,70,76,96
3,74,0,22
3,70,0,83
3,74,116,87
3,74,0,78
3,81,124,21
3,79,115,94
3,81,0,17
3,77,118,78
3,79,0,8
3,79,117,88
3,77,0,22
3,79,0,59
3,81,115,15
3,81,0,199
3,82,116,285
3,82,0,49
3,82,117,47
3,82,0,44
3,82,119,51
3,82,0,84
3,81,115,12
3,79,117,96
3,81,0,13
3,77,117,83
3,79,0,4
3,79,124,93
3,77,0,16
3,79,0,433
3,82,117,511
3,82,0,47
3,82,119,49
3,82,0,44
3,82,117,52
3,82,0,88
3,81,114,7
3,79,118,96
3,81,0,11
3,77,117,85
3,79,0,7
3,79,119,90
3,77,0,21
3,79,0,411
3,82,118,527
3,82,0,47
3,82,110,49
3,82,0,53
3,82,100,42
3,82,0,66
3,81,114,31
3,81,0,74
3,77,108,213
3,77,0,60
3,80,115,38
3,80,0,58
3,80,110,38
3,80,0,63
3,80,112,33
3,80,0,62
3,79,116,33
3,79,0,150
3,79,118,43
3,79,0,84
3,77,116,11
3,79,115,96
3,77,0,2
3,79,0,399
3,67,100,367
3,77,110,96
3,67,0,23
3,76,100,73
3,77,0,35
3,72,98,61
3,76,0,22
3,69,104,74
3,72,0,10
3,69,0,74
3,72,96,108
3,74,94,96
3,72,0,26
3,74,0,15
3,74,75,55
3,74,0,90
3,72,86,5
3,72,0,558
3,67,108,882
3,67,0,97
3,72,104,1
3,67,106,96
3,72,0,8
3,72,106,88
3,67,0,12
3,74,112,83
3,72,0,9
3,76,96,183
3,74,0,4
3,76,0,125
3,67,115,64
3,72,100,95
3,67,0,8
3,67,98,88
3,72,0,15
3,72,92,81
3,67,0,25
3,74,98,72
3,72,0,10
3,76,108,182
3,74,0,2
3,76,0,143
3,72,119,239
3,74,104,95
3,72,0,6
3,70,90,91
3,74,0,9
3,70,0,64
3,70,84,23
3,70,0,322
3,67,115,733
3,72,117,96
3,67,0,15
3,67,114,82
3,72,0,24
3,72,108,71
3,67,0,27
3,72,0,53
3,74,108,16
3,76,90,192
3,74,0,15
3,76,0,127
3,67,114,51
3,67,0,94
3,72,116,1
3,67,115,96
3,72,0,13
3,72,116,84
3,67,0,18
3,74,108,74
3,72,0,18
3,76,110,176
3,74,0,2
3,76,0,208
3,79,122,271
3,79,0,152
3,81,116,40
3,79,120,97
3,81,0,24
3,79,0,94
3,76,119,74
3,76,0,135
3,74,104,9
3,72,100,47
3,74,0,22
3,72,0,47
3,74,86,25
3,74,0,200
3,72,108,283
3,72,0,48
3,79,114,49
3,77,106,131
3,79,0,2
3,76,115,137
3,77,0,14
3,74,106,95
3,76,0,6
3,74,0,194
3,72,121,90
3,79,112,97
3,72,0,15
3,77,104,117
3,79,0,14
3,76,115,134
3,77,0,15
3,74,108,85
3,76,0,7
3,74,0,257
3,76,120,124
3,77,90,96
3,76,0,15
3,76,110,82
3,77,0,18
3,77,98,78
3,76,0,16
3,76,117,80
3,77,0,22
3,76,0,66
3,72,117,7
3,68,110,96
3,72,0,19
3,68,0,75
3,72,104,3
3,72,0,233
3,81,85,151
3,81,0,192
3,79,82,0
3,79,0,96
3,72,118,95
3,77,116,94
3,72,0,26
3,75,98,100
3,77,0,10
3,74,88,128
3,75,0,10
3,72,104,104
3,74,0,9
3,72,0,73
3,72,116,23
3,72,0,132
3,77,104,60
3,77,0,186
3,75,96,6
3,75,0,110
3,75,104,81
3,74,69,48
3,75,0,17
3,72,119,31
3,74,0,15
3,72,0,60
3,75,80,23
3,74,72,95
3,75,0,2
3,74,0,142
3,74,119,47
3,75,82,97
3,74,0,21
3,74,119,74
3,75,0,16
3,75,106,81
3,74,0,21
3,75,0,60
3,74,115,14
3,70,84,96
3,74,0,14
3,70,0,127
3,74,108,51
3,74,0,89
3,81,112,6
3,79,112,97
3,81,0,18
3,77,110,78
3,79,0,3
3,79,110,94
3,77,0,1
3,79,0,86
3,81,110,9
3,81,0,203
3,82,112,277
3,82,0,43
3,82,114,53
3,82,0,44
3,82,112,52
3,82,0,86
3,81,114,9
3,79,104,96
3,81,0,16
3,77,110,80
3,79,0,5
3,79,115,92
3,77,0,18
3,79,0,642
3,82,106,300
3,82,0,41
3,82,106,55
3,82,0,43
3,82,110,53
3,82,0,83
3,81,114,12
3,79,114,96
3,81,0,17
3,77,110,79
3,79,0,6
3,79,119,90
3,77,0,17
3,79,0,586
3,82,110,357
3,82,0,42
3,82,110,54
3,82,0,45
3,82,100,51
3,82,0,79
3,81,110,17
3,81,0,86
3,77,115,203
3,77,0,81
3,80,108,15
3,80,0,62
3,80,118,34
3,80,0,56
3,80,112,39
3,80,0,64
3,79,118,32
3,79,0,123
3,79,118,70
3,77,117,95
3,79,0,9
3,79,119,87
3,77,0,10
3,79,0,452
3,67,115,306
3,77,112,96
3,67,0,11
3,76,100,84
3,77,0,23
3,72,100,73
3,76,0,16
3,69,96,81
3,72,0,20
3,69,0,61
3,72,100,111
3,74,98,96
3,72,0,16
3,72,96,80
3,74,0,12
3,72,0,421
3,77,125,239
3,79,117,96
3,77,0,14
3,80,116,83
3,79,0,1
3,80,0,203
3,80,117,83
3,80,0,279
3,82,110,106
3,75,101,95
3,82,0,60
3,77,108,36
3,75,0,17
3,79,111,80
3,77,0,22
3,79,0,39
3,79,111,35
3,79,0,271
3,75,111,17
3,77,110,96
3,75,0,13
3,78,96,82
3,77,0,9
3,78,0,162
3,78,114,117
3,80,88,192
3,78,0,18
3,73,90,79
3,80,0,4
3,73,0,90
3,75,84,1
3,77,110,48
3,75,0,22
3,77,0,258
3,73,106,344
3,75,86,96
3,73,0,29
3,75,0,68
3,76,106,0
3,76,0,207
3,76,117,80
3,80,90,193
3,76,0,34
3,80,0,49
3,78,112,12
3,78,0,129
3,73,92,14
3,75,76,48
3,73,0,21
3,73,90,76
3,75,0,14
3,73,0,170
3,75,100,8
3,75,0,213
3,71,114,76
3,71,0,29
3,73,110,19
3,73,0,42
3,75,117,54
3,75,0,32
3,75,98,15
3,75,0,104
3,73,104,137
3,73,0,45
3,75,110,2
3,75,0,47
3,82,121,145
3,78,101,0
3,78,0,89
3,82,0,0
3,83,124,8
3,80,104,0
3,80,0,118
3,83,0,0
3,85,118,73
3,82,98,0
3,82,0,122
3,85,0,0
3,83,116,72
3,80,96,0
3,82,104,47
3,78,84,0
3,80,0,4
3,83,0,0
3,83,115,44
3,80,95,0
3,82,0,9
3,78,0,0
3,83,0,127
3,80,0,0
3,83,115,56
3,80,95,0
3,80,0,231
3,83,0,0
3,83,116,153
3,83,0,49
3,83,117,47
3,83,0,44
3,83,119,51
3,83,0,84
3,82,115,12
3,80,117,96
3,82,0,13
3,78,117,83
3,80,0,4
3,80,124,93
3,78,0,16
3,80,0,433
3,83,117,511
3,83,0,47
3,83,119,49
3,83,0,44
3,83,117,52
3,83,0,88
3,82,114,7
3,80,118,96
3,82,0,11
3,78,117,85
3,80,0,7
3,80,119,90
3,78,0,21
3,80,0,411
3,83,118,527
3,83,0,47
3,83,110,49
3,83,0,53
3,83,100,43
3,83,0,66
3,82,114,30
3,82,0,74
3,78,108,214
3,78,0,60
3,81,115,37
3,81,0,58
3,81,110,38
3,81,0,63
3,81,112,33
3,81,0,62
3,80,116,33
3,80,0,150
3,80,118,43
3,80,0,84
3,78,116,11
3,80,115,96
3,78,0,2
3,80,0,399
3,83,116,560
3,83,0,49
3,83,117,47
3,83,0,44
3,83,119,51
3,83,0,84
3,82,115,12
3,80,117,96
3,82,0,13
3,78,117,83
3,80,0,4
3,80,124,93
3,78,0,16
3,80,0,433
3,83,117,511
3,83,0,47
3,83,119,49
3,83,0,44
3,83,117,52
3,83,0,88
3,82,114,7
3,80,118,96
3,82,0,11
3,78,117,85
3,80,0,7
3,80,119,90
3,78,0,21
3,80,0,411
3,83,118,527
3,83,0,47
3,83,110,49
3,83,0,53
3,83,100,43
3,83,0,66
3,82,114,30
3,82,0,74
3,78,108,214
3,78,0,60
3,81,115,37
3,81,0,58
3,81,110,38
3,81,0,63
3,81,112,33
3,81,0,62
3,80,116,33
3,80,0,150
3,80,118,43
3,80,0,84
3,78,116,11
3,80,115,96
3,78,0,2
3,80,0,399
3,68,114,367
3,78,114,96
3,68,0,22
3,77,104,75
3,78,0,36
3,73,100,59
3,77,0,14
3,70,92,82
3,73,0,15
3,70,0,76
3,73,98,101
3,75,102,96
3,73,0,21
3,73,88,75
3,75,0,16
3,73,0,686
4,51,55,572
4,51,0,1
4,51,61,31
4,51,0,1
4,51,75,31
4,51,0,1
4,51,86,31
4,51,0,1
4,44,33,94
4,44,0,1
4,44,48,96
4,44,0,1
4,44,17,287
4,44,0,1
4,44,61,96
4,44,0,1
4,44,33,286
4,44,0,1
4,44,61,95
4,44,0,1
4,44,25,287
4,44,0,1
4,44,63,94
4,44,0,1
4,44,25,287
4,44,0,1
4,44,61,96
4,44,0,1
4,44,17,286
4,44,0,1
4,44,63,95
4,44,0,1
4,44,27,288
4,44,0,1
4,44,63,95
4,44,0,1
4,44,25,287
4,44,0,1
4,44,65,94
4,44,0,1
4,51,55,96
4,51,0,1
4,51,61,31
4,51,0,1
4,51,68,31
4,51,0,1
4,51,76,25
4,51,0,1
4,44,19,100
4,44,0,1
4,44,61,95
4,44,0,1
4,44,29,287
4,44,0,1
4,44,67,96
4,44,0,1
4,44,21,286
4,44,0,1
4,44,65,95
4,44,0,1
4,44,23,287
4,44,0,1
4,44,67,96
4,44,0,1
4,44,25,287
4,44,0,1
4,44,69,95
4,44,0,1
4,44,15,286
4,44,0,1
4,44,67,96
4,44,0,1
4,44,19,287
4,44,0,1
4,44,67,94
4,44,0,1
4,44,17,288
4,44,0,1
4,44,67,94
4,44,0,1
4,44,25,287
4,44,0,1
4,44,65,95
4,44,0,1
4,44,21,287
4,44,0,1
4,44,65,95
4,44,0,1
4,44,25,286
4,44,0,1
4,44,65,96
4,44,0,1
4,44,17,286
4,44,0,1
4,44,65,97
4,44,0,1
4,44,21,286
4,44,0,1
4,44,67,96
4,44,0,1
4,44,13,286
4,44,0,1
4,44,65,95
4,44,0,1
4,44,1,288
4,44,0,1
4,44,67,94
4,44,0,1
4,44,13,287
4,44,0,1
4,44,69,95
4,44,0,1
4,51,78,189
4,51,0,1
4,44,13,97
4,44,0,1
4,44,67,96
4,44,0,1
4,44,19,286
4,44,0,1
4,44,65,94
4,44,0,1
4,44,13,288
4,44,0,1
4,44,65,94
4,44,0,1
4,44,17,288
4,44,0,1
4,44,71,95
4,44,0,1
4,44,15,287
4,44,0,1
4,44,67,96
4,44,0,1
4,44,1,286
4,44,0,1
4,44,61,95
4,44,0,1
4,44,23,287
4,44,0,1
4,44,65,96
4,44,0,1
4,44,19,286
4,44,0,1
4,44,67,95
4,44,0,1
4,44,27,287
4,44,0,1
4,44,63,96
4,44,0,1
4,44,17,286
4,44,0,1
4,44,63,95
4,44,0,1
4,44,19,286
4,44,0,1
4,44,65,96
4,44,0,1
4,44,13,287
4,44,0,1
4,44,65,93
4,44,0,1
4,44,7,289
4,44,0,1
4,44,63,95
4,44,0,1
4,44,7,287
4,44,0,1
4,44,63,94
4,44,0,1
4,44,15,273
4,44,0,1
4,44,67,109
4,44,0,1
4,42,31,289
4,42,0,1
4,42,47,31
4,42,0,1
4,44,58,31
4,44,0,1
4,46,61,26
4,46,0,1
4,51,78,196
4,35,72,0
4,82,27,0
4,82,0,1
4,35,0,0
4,51,0,0
4,82,4,94
4,82,0,1
4,42,48,0
4,42,0,1
4,37,90,94
4,82,1,0
4,82,0,1
4,37,0,0
4,42,54,0
4,42,0,1
4,82,25,93
4,82,0,1
4,42,52,0
4,42,0,1
4,35,66,0
4,35,0,1
4,82,27,94
4,82,0,1
