track,note,velocity,time
1,71,80,19568
1,69,80,4
1,74,80,4
1,67,88,4
1,66,73,4
1,67,80,4
1,64,70,4
1,71,80,1684
1,69,80,4
1,74,80,4
1,67,88,4
1,66,73,4
1,67,80,4
1,64,70,4
1,45,65,1684
1,64,62,0
1,60,47,0
1,67,70,0
1,47,59,4
1,62,63,0
1,59,56,0
1,67,80,0
1,48,80,4
1,64,67,16
1,60,63,68
1,67,88,92
1,47,59,4
1,62,63,0
1,59,56,0
1,67,80,0
1,66,76,192
1,64,71,352
1,45,65,4
1,64,86,0
1,60,86,0
1,67,110,0
1,47,59,4
1,62,86,0
1,59,80,0
1,67,110,0
1,48,80,4
1,64,86,16
1,60,62,68
1,67,95,92
1,62,67,4
1,67,110,0
1,50,67,0
1,57,80,0
1,59,80,4
1,67,82,0
1,62,86,0
1,67,79,104
1,62,80,0
1,59,77,0
1,64,80,196
1,60,82,0
1,55,80,0
1,60,88,464
1,55,80,0
1,64,88,0
1,67,82,48
1,59,80,0
1,62,86,0
1,62,80,4
1,67,79,0
1,59,77,0
1,64,80,4
1,55,80,0
1,60,82,0
1,64,88,464
1,55,80,0
1,60,88,0
1,59,80,48
1,62,86,4
1,67,82,0
1,62,80,108
1,67,79,0
1,59,77,0
1,55,80,196
1,60,82,0
1,64,80,0
1,64,100,8
1,59,86,384
1,57,51,0
1,57,74,0
1,60,76,0
1,65,76,0
1,57,71,4
1,65,73,0
1,60,71,0
1,60,76,4
1,67,85,0
1,57,74,0
1,60,71,8
1,57,70,0
1,65,74,0
1,57,74,8
1,65,82,0
1,60,80,0
1,67,82,8
1,60,76,0
1,57,74,0
1,57,71,8
1,60,74,0
1,65,74,0
1,57,74,8
1,60,76,4
1,67,82,0
1,60,80,8
1,67,85,0
1,57,82,0
1,59,100,8
1,62,82,304
1,57,95,120
1,62,95,304
1,55,95,308
1,62,95,16
1,54,100,304
1,62,110,252
1,52,119,0
1,55,70,4
1,52,59,96
1,62,88,136
1,48,53,4
1,50,71,0
1,52,71,4
1,54,77,4
1,71,86,4
1,69,76,4
1,74,80,4
1,67,73,4
1,66,71,4
1,67,80,4
1,64,71,4
1,71,80,1684
1,69,65,4
1,74,80,4
1,67,73,4
1,66,57,4
1,67,80,4
1,64,54,4
1,45,65,1684
1,64,62,0
1,60,47,0
1,67,70,0
1,47,59,4
1,62,63,0
1,59,56,0
1,67,80,0
1,48,80,4
1,64,67,16
1,60,63,68
1,67,88,92
1,47,59,4
1,62,63,0
1,59,56,0
1,67,80,0
1,45,65,4
1,64,62,0
1,60,47,188
1,67,70,0
1,47,59,4
1,62,63,0
1,59,56,0
1,67,80,0
1,48,80,4
1,64,67,16
1,60,63,68
1,67,88,92
1,62,67,4
1,50,67,0
1,67,110,4
1,57,80,0
1,67,82,4
1,62,86,0
1,59,80,0
1,67,79,108
1,62,80,0
1,59,77,0
1,55,80,196
1,64,80,0
1,60,82,0
1,55,80,464
1,64,88,0
1,60,88,0
1,59,80,48
1,67,82,0
1,62,86,0
1,62,80,4
1,59,77,0
1,67,79,0
1,60,82,4
1,64,80,0
1,55,80,0
1,64,88,464
1,60,88,0
1,55,80,0
1,62,86,48
1,59,80,0
1,67,82,0
1,59,77,108
1,62,80,0
1,67,79,0
1,64,80,196
1,60,82,0
1,55,80,0
1,64,100,8
1,59,86,384
1,57,51,0
1,65,76,0
1,57,74,0
1,60,76,0
1,65,73,4
1,60,71,0
1,57,71,0
1,67,85,4
1,60,76,0
1,57,74,0
1,57,70,8
1,60,71,0
1,65,74,0
1,65,82,8
1,57,74,0
1,60,80,0
1,57,74,8
1,67,82,0
1,60,76,0
1,60,74,8
1,57,71,0
1,65,74,0
1,60,76,8
1,57,74,0
1,67,82,0
1,57,82,8
1,67,85,0
1,60,80,0
1,67,82,8
1,59,80,0
1,62,86,0
1,67,86,108
1,59,86,0
1,62,86,0
1,67,104,96
1,59,86,0
1,62,97,0
1,64,80,192
1,60,82,0
1,55,80,0
1,55,79,80
1,60,97,0
1,64,97,0
1,64,97,52
1,60,97,0
1,55,74,0
1,62,86,208
1,67,82,0
1,59,80,0
1,59,68,0
1,55,76,68
1,67,79,4
1,59,77,0
1,62,80,0
1,59,82,8
1,67,91,0
1,62,86,0
1,64,80,196
1,60,82,0
1,55,80,0
1,55,80,464
1,60,88,0
1,64,88,0
1,62,86,48
1,59,80,0
1,67,82,0
1,62,86,108
1,67,86,0
1,59,86,0
1,59,86,96
1,67,104,0
1,62,97,0
1,60,82,192
1,55,80,0
1,64,80,0
1,64,100,768
1,59,86,384
1,57,51,0
1,60,76,0
1,57,74,0
1,65,76,0
1,60,71,4
1,65,73,0
1,57,71,0
1,67,85,4
1,60,76,0
1,57,74,0
1,65,74,8
1,60,71,0
1,57,70,0
1,60,80,8
1,65,82,0
1,57,74,0
1,67,82,8
1,60,76,0
1,57,74,0
1,60,74,8
1,65,74,0
1,57,71,0
1,67,82,8
1,57,74,0
1,60,76,0
1,63,74,392
1,60,68,0
1,56,70,0
1,63,74,108
1,60,74,0
1,56,74,0
1,60,74,96
1,63,85,0
1,56,92,0
1,56,68,192
1,61,70,0
1,65,68,0
1,61,85,80
1,56,67,0
1,65,85,0
1,65,85,52
1,56,62,0
1,61,85,0
1,63,74,208
1,56,70,0
1,60,68,0
1,60,56,0
1,56,63,0
1,63,68,4
1,60,65,0
1,56,67,0
1,56,79,8
1,60,70,0
1,63,74,0
1,65,68,196
1,56,68,0
1,61,70,0
1,61,76,464
1,65,76,0
1,56,68,0
1,60,68,48
1,63,74,0
1,56,70,0
1,56,74,108
1,60,74,0
1,63,74,0
1,63,85,96
1,60,74,0
1,56,92,0
1,56,68,192
1,61,70,0
1,65,68,0
1,65,88,768
1,59,74,384
1,56,39,192
1,66,76,0
1,61,76,0
1,58,74,0
1,61,71,4
1,66,73,0
1,58,71,0
1,61,76,4
1,58,74,0
1,68,85,0
1,58,70,8
1,66,74,4
1,61,71,0
1,61,80,8
1,58,74,0
1,66,82,0
1,58,74,8
1,68,82,0
1,61,76,0
1,66,74,8
1,61,74,0
1,58,71,0
1,61,76,8
1,58,74,0
1,68,82,0
1,58,82,8
1,61,80,0
1,68,85,0
1,61,76,8
1,58,74,0
1,66,76,0
1,58,71,4
1,66,73,0
1,61,71,0
1,68,85,4
1,61,76,0
1,58,74,0
1,61,71,8
1,58,70,0
1,66,74,0
1,66,82,8
1,61,80,0
1,58,74,0
1,61,76,192
1,68,82,0
1,58,74,0
1,61,74,8
1,66,74,0
1,58,71,0
1,68,82,8
1,61,76,0
1,58,74,0
1,61,80,8
1,58,82,0
1,68,85,0
1,60,68,8
1,56,70,0
1,63,74,0
1,56,74,108
1,63,74,0
1,60,74,0
1,60,74,96
1,63,85,0
1,56,92,0
1,61,70,192
1,65,68,0
1,56,68,0
1,56,67,80
1,65,85,0
1,61,85,0
1,61,85,52
1,65,85,0
1,56,62,0
1,63,74,208
1,60,68,0
1,56,70,0
1,60,56,0
1,56,63,0
1,63,68,4
1,56,67,0
1,60,65,0
1,56,79,8
1,60,70,0
1,63,74,0
1,61,70,196
1,56,68,0
1,65,68,0
1,61,76,464
1,65,76,0
1,56,68,0
1,60,68,48
1,63,74,0
1,56,70,0
1,63,74,108
1,60,74,0
1,56,74,0
1,63,85,96
1,56,92,0
1,60,74,0
1,65,68,192
1,56,68,0
1,61,70,0
1,65,88,768
1,59,74,384
1,56,39,192
1,61,76,0
1,58,74,0
1,66,76,0
1,61,71,4
1,58,71,0
1,66,73,0
1,58,74,4
1,68,85,0
1,61,76,0
1,58,70,8
1,66,74,4
1,61,71,0
1,61,80,8
1,66,82,0
1,58,74,0
1,68,82,8
1,58,74,0
1,61,76,0
1,58,71,8
1,66,74,0
1,61,74,0
1,58,74,8
1,61,76,0
1,68,82,0
1,68,85,8
1,61,80,0
1,58,82,0
1,56,70,8
1,60,68,0
1,63,74,0
1,56,74,108
1,63,74,0
1,60,74,0
1,56,92,96
1,60,74,0
1,63,85,0
1,56,68,192
1,61,70,0
1,65,68,0
1,56,67,80
1,61,85,0
1,65,85,0
1,65,85,52
1,56,62,0
1,61,85,0
1,63,74,208
1,56,70,0
1,60,68,0
1,60,56,0
1,56,63,0
1,56,67,4
1,60,65,0
1,63,68,0
1,56,79,8
1,63,74,0
1,60,70,0
1,56,68,196
1,61,70,0
1,65,68,0
1,65,76,464
1,56,68,0
1,61,76,0
1,60,68,48
1,63,74,0
1,56,70,0
1,60,74,108
1,56,74,0
1,63,74,0
1,63,85,96
1,56,92,0
1,60,74,0
1,56,68,192
1,65,68,0
1,61,70,0
1,65,88,768
1,59,74,384
1,56,39,192
1,58,74,0
1,61,76,0
1,66,76,0
1,66,73,4
1,61,71,0
1,58,71,0
1,68,85,4
1,58,74,0
1,61,76,0
1,58,70,8
1,61,71,4
1,66,74,0
1,58,74,8
1,66,82,0
1,61,80,0
1,61,76,8
1,68,82,0
1,58,74,0
1,66,74,8
1,58,71,0
1,61,74,0
1,68,82,8
1,58,74,0
1,61,76,0
1,61,80,8
1,58,82,0
1,68,85,0
2,38,104,43548
2,40,79,16
2,38,74,4
2,31,68,16
2,33,101,16
2,31,87,0
2,35,87,84
2,36,86,36
2,38,89,52
2,26,92,20
2,31,87,32
2,35,89,60
2,36,86,76
2,38,80,56
2,26,84,24
2,31,94,56
2,35,92,80
2,36,89,48
2,37,86,64
2,38,96,84
2,26,99,96
2,26,73,48
2,26,87,104
2,26,87,16
2,26,89,236
2,31,110,44
2,30,93,100
2,28,92,76
2,28,89,136
2,28,99,52
2,26,94,236
2,26,84,80
2,24,92,124
2,24,86,56
2,36,86,36
2,24,74,20
2,26,99,56
2,28,101,52
2,30,93,56
2,31,104,56
2,30,93,60
2,28,92,52
2,28,101,128
2,28,94,36
2,26,101,232
2,26,96,68
2,24,94,116
2,24,84,64
2,36,87,32
2,24,80,32
2,24,92,76
2,24,76,80
2,31,104,76
2,30,89,60
2,28,74,44
2,28,94,96
2,28,92,52
2,26,99,232
2,26,94,52
2,24,92,112
2,36,89,52
2,45,96,8
2,43,68,12
2,40,89,28
2,38,79,32
2,40,73,36
2,35,62,44
2,31,60,4
2,33,92,40
2,33,99,80
2,33,82,88
2,35,92,68
2,35,99,76
2,35,77,76
2,36,104,96
2,36,101,104
2,35,104,64
2,50,114,132
2,52,79,24
2,50,56,16
2,47,96,32
2,45,68,20
2,43,92,8
2,45,84,0
2,33,114,44
2,33,94,116
2,33,101,96
2,35,101,80
2,35,96,100
2,35,94,68
2,36,104,88
2,36,101,100
2,38,114,56
2,26,96,24
2,26,69,36
2,28,82,56
2,26,61,12
2,31,107,48
2,33,101,28
2,31,84,28
2,31,101,76
2,35,99,120
2,36,99,88
2,38,84,84
2,38,99,112
2,26,79,0
2,31,101,88
2,35,104,84
2,36,107,84
2,38,110,88
2,26,104,24
2,31,117,64
2,35,107,88
2,36,110,104
2,37,107,64
2,38,114,72
2,26,110,160
2,33,117,52
2,38,96,40
2,26,94,20
2,45,114,128
2,43,96,16
2,40,82,12
2,38,92,36
2,40,87,44
2,43,94,36
2,31,117,36
2,35,107,68
2,36,104,72
2,38,101,52
2,26,96,60
2,31,101,64
2,35,101,68
2,36,107,64
2,38,101,80
2,40,94,40
2,38,61,4
2,43,110,56
2,45,96,24
2,31,110,40
2,35,117,100
2,36,107,60
2,37,117,100
2,38,114,88
2,26,117,240
2,33,110,100
2,38,87,40
2,26,99,20
2,38,114,768
2,32,101,440
2,36,99,120
2,37,99,88
2,39,84,84
2,39,99,112
2,27,79,24
2,32,101,88
2,36,104,84
2,37,107,84
2,39,110,88
2,27,104,24
2,32,117,64
2,36,107,88
2,37,110,104
2,38,107,64
2,39,114,72
2,27,110,160
2,34,117,52
2,39,96,40
2,39,114,20
2,27,110,160
2,39,96,0
2,27,110,160
2,34,117,52
2,39,96,40
2,27,94,20
2,46,114,128
2,44,96,16
2,41,82,12
2,39,92,36
2,41,87,44
2,44,94,36
2,32,101,36
2,36,99,120
2,37,99,88
2,39,84,84
2,39,99,112
2,27,79,0
2,32,101,88
2,36,104,84
2,37,107,84
2,39,110,88
2,27,104,24
2,32,117,64
2,36,107,88
2,37,110,104
2,38,107,64
2,39,114,72
2,27,110,160
2,34,117,52
2,39,96,40
2,27,94,20
2,46,114,128
2,44,96,16
2,41,82,12
2,39,92,36
2,41,87,44
2,44,94,36
2,32,117,36
2,36,107,68
2,37,104,72
2,39,101,52
2,27,96,60
2,32,101,64
2,36,101,68
2,37,107,64
2,39,101,80
2,41,94,40
2,39,61,4
2,44,110,56
2,46,96,24
2,32,110,40
2,36,117,100
2,37,107,60
2,38,117,100
2,39,114,88
2,27,117,240
2,34,110,100
2,39,87,40
2,27,99,20
2,39,114,768
2,39,115,56
3,50,48,44296
3,52,39,44
3,55,117,76
3,52,59,20
3,50,55,36
3,55,104,40
3,55,104,100
3,52,65,12
3,50,66,20
3,55,87,32
3,57,94,60
3,50,27,164
3,52,52,96
3,55,106,48
3,52,54,16
3,50,62,8
3,55,111,44
3,50,49,12
3,55,109,68
3,52,68,28
3,50,62,16
3,52,79,36
3,50,68,40
3,50,43,120
3,52,56,12
3,55,109,60
3,52,57,32
3,50,56,28
3,55,106,40
3,55,106,108
3,52,74,16
3,50,62,28
3,55,89,40
3,57,106,80
3,52,32,560
3,50,60,48
3,55,104,40
3,57,86,32
3,55,90,116
3,50,60,288
3,52,49,20
3,55,109,68
3,52,60,28
3,50,63,40
3,55,117,60
3,55,114,120
3,52,63,24
3,50,70,40
3,55,109,36
3,57,104,52
3,50,36,108
3,52,53,96
3,55,109,56
3,52,61,28
3,50,62,24
3,55,104,48
3,55,102,132
3,52,61,28
3,50,62,32
3,55,89,40
3,52,73,36
3,50,70,3224
3,52,77,48
3,55,127,60
3,52,75,36
3,50,54,48
3,55,109,52
3,55,109,132
3,52,75,32
3,50,62,36
3,55,96,40
3,57,97,64
3,50,40,236
3,52,63,0
3,55,104,56
3,52,69,32
3,50,63,44
3,55,109,44
3,55,106,132
3,52,84,32
3,50,57,32
3,55,92,32
3,52,75,24
3,55,83,340
3,52,52,40
3,50,46,12
3,55,111,56
3,55,106,132
3,52,55,24
3,50,55,32
3,55,104,40
3,57,94,40
3,55,70,28
3,50,40,192
3,52,66,4
3,55,114,44
3,55,92,36
3,52,62,28
3,50,62,32
3,55,106,48
3,57,81,36
3,55,104,212
3,57,92,32
3,50,54,228
3,52,57,24
3,55,111,36
3,55,81,32
3,55,114,120
3,55,106,136
3,52,70,20
3,50,66,32
3,55,102,36
3,57,109,72
3,50,48,136
3,52,63,96
3,55,104,48
3,52,66,24
3,50,58,28
3,55,102,28
3,55,111,124
3,52,74,24
3,50,60,36
3,55,92,32
3,52,70,36
3,50,47,144
3,52,62,96
3,55,106,60
3,55,84,40
3,52,54,20
3,50,62,28
3,55,109,36
3,57,99,32
3,55,97,120
3,55,82,120
3,50,49,76
3,52,56,0
3,55,102,60
3,57,86,32
3,50,65,108
3,58,103,44
3,50,63,24
3,57,99,52
3,55,106,32
3,52,86,36
3,50,56,200
3,52,59,16
3,55,99,60
3,52,79,32
3,50,70,36
3,55,102,64
3,55,102,136
3,52,74,20
3,50,63,20
3,55,102,40
3,57,102,52
3,50,48,156
3,52,56,16
3,55,102,60
3,52,70,28
3,50,58,28
3,55,99,48
3,55,99,120
3,52,72,20
3,50,59,32
3,55,96,24
3,52,74,36
3,50,48,124
3,52,59,0
3,55,102,52
3,57,90,32
3,55,96,120
3,55,94,116
3,52,43,16
3,50,55,32
3,55,90,24
3,52,62,44
3,50,59,40
3,58,62,32
3,57,70,116
3,55,70,20
3,50,49,288
3,52,69,92
3,55,104,52
3,57,94,28
3,55,102,120
3,50,57,384
3,52,60,32
3,55,97,64
3,52,55,8
3,50,62,40
3,55,114,48
3,55,111,108
3,52,57,8
3,50,54,24
3,55,106,36
3,57,97,52
3,55,60,16
3,50,60,0
3,52,70,96
3,55,111,64
3,52,71,28
