track,note,velocity,time
0,42,76,178
0,42,0,25
0,42,80,71
0,42,0,22
0,42,80,74
0,42,0,24
0,42,80,72
0,42,0,19
0,64,84,149
0,71,92,0
0,74,88,0
0,62,88,0
0,74,107,0
0,67,88,0
0,43,92,0
0,74,76,0
0,60,66,0
0,86,107,0
0,64,0,19
0,71,0,1
0,67,0,0
0,74,0,2
0,74,0,2
0,86,0,0
0,60,0,5
0,74,0,6
0,62,0,1
0,43,0,1
0,88,92,35
0,73,62,0
0,62,84,0
0,76,92,0
0,76,88,0
0,76,76,0
0,66,64,0
0,64,88,0
0,45,92,0
0,69,62,0
0,76,0,19
0,76,0,5
0,69,0,1
0,66,0,0
0,62,0,2
0,76,0,1
0,64,0,4
0,88,0,0
0,73,0,3
0,45,0,8
0,90,92,29
0,78,88,0
0,68,76,0
0,78,97,0
0,64,92,0
0,75,60,0
0,78,60,0
0,66,88,0
0,47,92,0
0,71,80,0
0,71,0,17
0,68,0,0
0,64,0,4
0,78,0,1
0,75,0,2
0,78,0,3
0,66,0,1
0,90,0,1
0,78,0,0
0,47,0,16
0,91,68,27
0,76,66,0
0,48,97,0
0,65,88,0
0,69,66,0
0,79,76,0
0,79,64,0
0,72,68,0
0,67,97,0
0,79,88,0
0,69,0,23
0,76,0,2
0,65,0,1
0,72,0,1
0,79,0,0
0,79,0,0
0,79,0,8
0,91,0,0
0,67,0,5
0,48,0,10
0,42,75,46
0,36,90,0
0,37,56,0
0,33,104,0
0,21,88,0
0,45,64,0
0,37,0,12
0,42,0,0
0,36,0,0
0,70,36,12
0,42,11,0
0,42,0,12
0,70,0,0
0,42,27,12
0,42,0,12
0,42,35,12
0,70,31,0
0,70,0,12
0,42,0,0
0,45,0,11
0,37,56,1
0,42,75,0
0,55,43,0
0,24,74,0
0,36,88,0
0,48,46,0
0,36,90,0
0,33,0,1
0,21,0,6
0,42,0,5
0,36,0,0
0,37,0,0
0,42,22,12
0,70,30,0
0,70,0,12
0,42,0,0
0,42,32,12
0,42,0,12
0,42,35,12
0,70,35,0
0,70,0,12
0,42,0,0
0,48,0,12
0,38,104,0
0,37,56,0
0,50,34,0
0,36,90,0
0,54,34,0
0,42,75,0
0,26,82,0
0,24,0,5
0,55,0,2
0,36,0,4
0,42,0,1
0,37,0,0
0,36,0,0
0,70,40,12
0,42,13,0
0,42,0,12
0,70,0,0
0,42,22,12
0,42,0,12
0,42,35,12
0,70,31,0
0,70,0,12
0,42,0,0
0,50,0,12
0,37,56,0
0,42,75,0
0,27,86,0
0,53,39,0
0,39,76,0
0,36,90,0
0,51,39,0
0,38,0,2
0,26,0,6
0,54,0,1
0,36,0,3
0,37,0,0
0,42,0,0
0,42,15,12
0,70,48,0
0,70,0,12
0,42,0,0
0,27,0,12
0,52,54,0
0,28,88,0
0,36,90,0
0,37,56,0
0,40,84,0
0,42,29,0
0,51,0,1
0,53,0,4
0,39,0,1
0,37,0,6
0,42,0,0
0,36,0,0
0,70,50,12
0,52,0,3
0,28,0,5
0,40,0,2
0,70,0,2
0,52,25,60
0,37,56,0
0,45,56,0
0,21,80,0
0,33,84,0
0,37,0,12
0,42,29,12
0,70,46,0
0,70,0,12
0,42,0,0
0,48,34,12
0,37,56,0
0,55,34,0
0,42,75,0
0,36,76,0
0,24,66,0
0,36,90,0
0,33,0,3
0,52,0,1
0,21,0,6
0,45,0,1
0,42,0,1
0,36,0,0
0,37,0,0
0,42,15,12
0,70,54,0
0,70,0,12
0,42,0,0
0,42,34,12
0,42,0,12
0,42,40,12
0,70,27,0
0,70,0,12
0,42,0,0
0,24,0,5
0,36,0,4
0,37,56,3
0,38,86,0
0,42,75,0
0,54,39,0
0,26,84,0
0,36,90,0
0,50,39,0
0,55,0,4
0,36,0,8
0,42,0,0
0,48,0,0
0,37,0,0
0,42,40,12
0,42,0,12
0,42,49,12
0,42,0,12
0,70,35,12
0,42,49,0
0,42,0,12
0,70,0,0
0,50,0,5
0,27,88,7
0,42,75,0
0,53,43,0
0,37,56,0
0,39,86,0
0,51,43,0
0,36,90,0
0,54,0,1
0,38,0,6
0,26,0,1
0,42,0,4
0,36,0,0
0,37,0,0
0,70,52,12
0,42,46,0
0,42,0,12
0,70,0,0
0,52,52,12
0,28,76,0
0,42,49,0
0,37,56,0
0,36,90,0
0,40,78,0
0,51,0,3
0,27,0,0
0,53,0,0
0,39,0,6
0,42,0,3
0,37,0,0
0,36,0,0
0,42,47,12
0,70,54,0
0,70,0,12
0,42,0,0
0,52,0,12
0,21,86,0
0,45,46,0
0,42,75,0
0,37,35,0
0,36,90,0
0,33,84,0
0,28,0,2
0,40,0,6
0,37,0,4
0,42,0,0
0,36,0,0
0,70,36,12
0,42,11,0
0,42,0,12
0,70,0,0
0,42,27,12
0,42,0,12
0,42,35,12
0,70,31,0
0,70,0,12
0,42,0,0
0,37,35,12
0,36,86,0
0,55,41,0
0,24,74,0
0,48,37,0
0,42,75,0
0,36,90,0
0,21,0,3
0,45,0,5
0,33,0,3
0,42,0,1
0,37,0,0
0,36,0,0
0,70,30,12
0,42,22,0
0,42,0,12
0,70,0,0
0,42,32,12
0,42,0,12
0,70,35,12
0,42,35,0
0,42,0,12
0,70,0,0
0,48,0,8
0,36,90,4
0,37,35,0
0,54,41,0
0,42,75,0
0,38,86,0
0,50,41,0
0,26,86,0
0,55,0,5
0,36,0,3
0,24,0,1
0,36,0,3
0,37,0,0
0,42,0,0
0,42,13,12
0,70,40,0
0,70,0,12
0,42,0,0
0,42,22,12
0,42,0,12
0,70,31,12
0,42,35,0
0,42,0,12
0,70,0,0
0,50,0,10
0,54,0,1
0,38,0,1
0,39,74,0
0,27,88,0
0,36,90,0
0,42,75,0
0,51,36,0
0,37,35,0
0,53,36,0
0,26,0,1
0,42,0,11
0,36,0,0
0,37,0,0
0,42,15,12
0,70,48,0
0,70,0,12
0,42,0,0
0,37,35,12
0,52,66,0
0,36,90,0
0,40,92,0
0,28,86,0
0,42,29,0
0,27,0,2
0,53,0,5
0,51,0,0
0,39,0,1
0,37,0,4
0,42,0,0
0,36,0,0
0,52,0,9
0,70,50,3
0,40,0,5
0,70,0,7
0,28,0,3
0,37,35,57
0,52,30,0
0,45,58,0
0,21,82,0
0,33,84,0
0,37,0,12
0,70,46,12
0,42,29,0
0,42,0,12
0,70,0,0
0,52,0,7
0,48,36,5
0,36,86,0
0,42,75,0
0,24,74,0
0,37,35,0
0,36,90,0
0,55,36,0
0,33,0,2
0,21,0,1
0,36,0,9
0,37,0,0
0,42,0,0
0,45,0,1
0,42,15,11
0,70,54,0
0,70,0,12
0,42,0,0
0,42,34,12
0,42,0,12
0,70,27,12
0,42,40,0
0,42,0,12
0,70,0,0
0,24,0,5
0,36,0,4
0,55,0,2
0,42,75,1
0,54,31,0
0,38,74,0
0,50,56,0
0,37,35,0
0,36,90,0
0,26,76,0
0,48,0,2
0,42,0,10
0,37,0,0
0,36,0,0
0,42,40,12
0,42,0,12
0,42,49,12
0,42,0,12
0,42,49,12
0,70,35,0
0,70,0,12
0,42,0,0
0,38,0,11
0,50,0,1
0,42,75,0
0,27,86,0
0,53,36,0
0,37,35,0
0,51,36,0
0,39,80,0
0,36,90,0
0,26,0,6
0,36,0,6
0,37,0,0
0,42,0,0
0,54,0,2
0,42,46,10
0,70,52,0
0,70,0,12
0,42,0,0
0,53,0,7
0,52,62,5
0,42,49,0
0,36,90,0
0,28,84,0
0,40,74,0
0,37,35,0
0,27,0,1
0,51,0,1
0,39,0,7
0,37,0,3
0,42,0,0
0,36,0,0
0,70,54,12
0,42,47,0
0,42,0,12
0,70,0,0
0,52,0,2
0,40,0,2
0,28,0,3
0,37,56,5
0,33,104,0
0,42,75,0
0,45,64,0
0,36,90,0
0,21,88,0
0,36,0,12
0,42,0,0
0,37,0,0
0,70,36,12
0,42,11,0
0,42,0,12
0,70,0,0
0,42,27,12
0,42,0,12
0,42,35,12
0,70,31,0
0,70,0,12
0,42,0,0
0,45,0,11
0,42,75,1
0,36,88,0
0,37,56,0
0,55,35,0
0,24,74,0
0,48,46,0
0,36,90,0
0,33,0,1
0,21,0,6
0,36,0,5
0,37,0,0
0,42,0,0
0,70,30,12
0,42,22,0
0,42,0,12
0,70,0,0
0,42,32,12
0,42,0,12
0,70,35,12
0,42,35,0
0,42,0,12
0,70,0,0
0,48,0,12
0,55,0,0
0,38,104,0
0,26,82,0
0,42,75,0
0,50,30,0
0,37,56,0
0,36,90,0
0,54,30,0
0,24,0,5
0,36,0,6
0,36,0,1
0,42,0,0
0,37,0,0
0,42,13,12
0,70,40,0
0,70,0,12
0,42,0,0
0,42,22,12
0,42,0,12
0,70,31,12
0,42,35,0
0,42,0,12
0,70,0,0
0,50,0,12
0,36,90,0
0,42,75,0
0,51,37,0
0,39,76,0
0,27,86,0
0,53,35,0
0,37,56,0
0,38,0,2
0,54,0,5
0,26,0,1
0,42,0,4
0,36,0,0
0,37,0,0
0,70,48,12
0,42,15,0
0,42,0,12
0,70,0,0
0,27,0,12
0,37,56,0
0,42,29,0
0,52,54,0
0,36,90,0
0,28,88,0
0,40,84,0
0,51,0,1
0,39,0,5
0,53,0,0
0,37,0,6
0,42,0,0
0,36,0,0
0,70,50,12
0,52,0,3
0,28,0,5
0,40,0,2
0,70,0,2
0,33,84,60
0,45,56,0
0,52,29,0
0,21,80,0
0,37,56,0
0,37,0,12
0,42,29,12
0,70,46,0
0,70,0,12
0,42,0,0
0,52,0,12
0,42,75,0
0,36,76,0
0,36,90,0
0,37,56,0
0,48,43,0
0,24,66,0
0,55,43,0
0,33,0,3
0,21,0,7
0,45,0,1
0,42,0,1
0,37,0,0
0,36,0,0
0,70,54,12
0,42,15,0
0,42,0,12
0,70,0,0
0,42,34,12
0,42,0,12
0,70,27,12
0,42,40,0
0,42,0,12
0,70,0,0
0,24,0,5
0,36,0,4
0,54,43,3
0,42,75,0
0,50,43,0
0,38,86,0
0,26,84,0
0,36,90,0
0,37,56,0
0,55,0,1
0,42,0,11
0,48,0,0
0,37,0,0
0,36,0,0
0,42,40,12
0,42,0,12
0,42,49,12
0,42,0,12
0,70,35,12
0,42,49,0
0,42,0,12
0,70,0,0
0,50,0,5
0,51,45,7
0,39,86,0
0,37,56,0
0,42,75,0
0,36,90,0
0,27,88,0
0,53,45,0
0,54,0,1
0,38,0,6
0,26,0,1
0,36,0,4
0,42,0,0
0,37,0,0
0,42,46,12
0,70,52,0
0,70,0,12
0,42,0,0
0,37,56,12
0,40,78,0
0,36,90,0
0,42,49,0
0,52,52,0
0,28,76,0
0,53,0,2
0,51,0,1
0,27,0,0
0,39,0,6
0,42,0,3
0,37,0,0
0,36,0,0
0,70,54,12
0,42,47,0
0,42,0,12
0,70,0,0
0,52,0,12
0,45,41,0
0,21,86,0
0,33,84,0
0,36,90,0
0,42,75,0
0,37,35,0
0,28,0,2
0,40,0,6
0,36,0,4
0,37,0,0
0,42,0,0
0,70,36,12
0,42,11,0
0,42,0,12
0,70,0,0
0,42,27,12
0,42,0,12
0,70,31,12
0,42,35,0
0,42,0,12
0,70,0,0
0,36,86,12
0,37,35,0
0,48,36,0
0,55,36,0
0,42,75,0
0,24,74,0
0,36,90,0
0,21,0,3
0,45,0,5
0,33,0,3
0,37,0,1
0,42,0,0
0,36,0,0
0,42,22,12
0,70,30,0
0,70,0,12
0,42,0,0
0,42,32,12
0,42,0,12
0,70,35,12
0,42,35,0
0,42,0,12
0,70,0,0
0,55,0,7
0,48,0,1
0,50,39,4
0,36,90,0
0,42,75,0
0,54,39,0
0,38,86,0
0,26,86,0
0,37,35,0
0,36,0,8
0,24,0,1
0,36,0,3
0,37,0,0
0,42,0,0
0,70,40,12
0,42,13,0
0,42,0,12
0,70,0,0
0,42,22,12
0,42,0,12
0,70,31,12
0,42,35,0
0,42,0,12
0,70,0,0
0,50,0,10
0,38,0,2
0,53,43,0
0,27,88,0
0,36,90,0
0,51,44,0
0,39,74,0
0,37,35,0
0,42,75,0
0,26,0,1
0,54,0,1
0,37,0,10
0,42,0,0
0,36,0,0
0,70,48,12
0,42,15,0
0,42,0,12
0,70,0,0
0,42,29,12
0,36,90,0
0,37,35,0
0,28,86,0
0,40,92,0
0,52,66,0
0,27,0,2
0,53,0,4
0,51,0,1
0,39,0,1
0,37,0,4
0,42,0,0
0,36,0,0
0,52,0,9
0,70,50,3
0,40,0,5
0,70,0,7
0,28,0,3
0,37,35,57
0,52,24,0
0,21,82,0
0,45,58,0
0,33,84,0
0,37,0,12
0,42,29,12
0,70,46,0
0,70,0,12
0,42,0,0
0,55,35,12
0,48,54,0
0,42,75,0
0,37,35,0
0,36,86,0
0,36,90,0
0,24,74,0
0,33,0,2
0,21,0,1
0,52,0,5
0,37,0,4
0,36,0,0
0,42,0,0
0,45,0,1
0,70,54,11
0,42,15,0
0,42,0,12
0,70,0,0
0,42,34,12
0,42,0,12
0,70,27,12
0,42,40,0
0,42,0,12
0,70,0,0
0,24,0,5
0,36,0,4
0,55,0,1
0,42,75,2
0,36,90,0
0,37,35,0
0,38,74,0
0,50,56,0
0,54,33,0
0,26,76,0
0,48,0,2
0,37,0,10
0,42,0,0
0,36,0,0
0,42,40,12
0,42,0,12
0,42,49,12
0,42,0,12
0,70,35,12
0,42,49,0
0,42,0,12
0,70,0,0
0,54,0,9
0,38,0,2
0,50,0,1
0,36,90,0
0,53,39,0
0,37,35,0
0,42,75,0
0,27,86,0
0,39,80,0
0,51,39,0
0,26,0,6
0,42,0,6
0,36,0,0
0,37,0,0
0,70,52,12
0,42,46,0
0,42,0,12
0,70,0,0
0,42,49,12
0,69,58,0
0,40,74,0
0,52,62,0
0,36,90,0
0,37,35,0
0,28,84,0
0,27,0,1
0,51,0,1
0,53,0,2
0,39,0,5
0,42,0,3
0,36,0,0
0,37,0,0
0,69,0,1
0,70,54,11
0,42,47,0
0,42,0,12
0,70,0,0
0,52,0,2
0,40,0,2
0,28,0,3
0,42,75,5
0,33,104,0
0,21,88,0
0,37,56,0
0,36,90,0
0,72,88,0
0,36,0,12
0,37,0,0
0,42,0,0
0,42,11,12
0,70,36,0
0,70,0,12
0,42,0,0
0,72,0,8
0,42,27,4
0,69,50,0
0,42,0,12
0,69,0,4
0,42,35,8
0,70,31,0
0,70,0,12
0,42,0,0
0,24,74,12
0,72,84,0
0,42,75,0
0,36,88,0
0,37,56,0
0,39,75,0
0,55,54,0
0,36,90,0
0,33,0,1
0,21,0,6
0,42,0,5
0,39,0,0
0,36,0,0
0,37,0,0
0,42,22,12
0,70,30,0
0,70,0,12
0,42,0,0
0,42,32,12
0,42,0,12
0,70,35,12
0,42,35,0
0,42,0,12
0,70,0,0
0,26,82,12
0,38,104,0
0,54,46,0
0,36,90,0
0,42,75,0
0,37,56,0
0,55,0,3
0,24,0,2
0,36,0,6
0,42,0,1
0,36,0,0
0,37,0,0
0,42,13,12
0,70,40,0
0,70,0,12
0,42,0,0
0,42,22,0
0,42,0,1
0,42,35,1
0,70,31,0
0,70,0,12
0,42,0,0
0,39,76,12
0,37,56,0
0,42,75,0
0,27,86,0
0,53,58,0
0,36,90,0
0,39,75,0
0,38,0,2
0,26,0,2
0,36,0,2
0,39,0,0
0,42,0,0
0,37,0,0
0,54,0,1
0,70,48,1
0,42,15,0
0,42,0,7
0,70,0,0
0,53,0,12
0,27,0,0
0,67,68,0
0,37,56,0
0,42,29,0
0,36,90,0
0,28,88,0
0,40,84,0
0,52,54,0
0,39,0,6
0,72,0,1
0,37,0,5
0,42,0,0
0,36,0,0
0,52,0,4
0,67,0,4
0,70,50,4
0,69,54,0
0,28,0,8
0,40,0,2
0,70,0,2
0,69,0,3
0,69,62,33
0,33,84,1
0,21,80,0
0,52,48,0
0,37,56,0
0,37,0,1
0,42,29,0
0,70,46,0
0,70,0,2
0,42,0,0
0,52,0,1
0,69,0,1
0,39,75,1
0,24,66,0
0,55,36,0
0,36,90,0
0,36,76,0
0,72,62,0
