track,note,velocity,time
0,69,84,2344
0,67,88,4
0,72,91,22
0,69,90,2
0,67,86,2
0,72,79,2
0,69,91,2
0,67,81,2
0,65,81,12
0,64,88,2
0,62,85,2
0,57,81,6
0,65,102,36
0,69,84,0
0,64,87,4
0,67,88,0
0,69,90,2
0,72,91,0
0,65,95,2
0,69,90,0
0,64,86,2
0,67,86,0
0,69,91,2
0,72,79,0
0,65,87,2
0,69,91,0
0,64,82,2
0,67,81,0
0,62,80,12
0,65,81,0
0,60,93,2
0,64,88,0
0,57,75,2
0,62,85,0
0,57,81,6
0,65,102,36
0,69,84,0
0,77,1,384
0,81,1,0
0,38,100,386
0,36,101,0
0,54,57,192
0,42,90,0
0,38,92,62
0,40,97,0
0,36,113,0
0,83,41,96
0,54,61,42
0,42,90,0
0,83,62,46
0,33,29,2
0,54,58,0
0,33,89,142
0,54,75,0
0,42,95,0
0,36,82,2
0,40,97,0
0,33,80,2
0,42,95,0
0,38,87,2
0,54,55,192
0,42,95,0
0,38,85,80
0,40,97,0
0,83,44,96
0,54,59,36
0,42,95,0
0,83,62,38
0,33,29,2
0,54,63,0
0,33,82,138
0,54,69,0
0,42,97,0
0,36,79,2
0,40,97,0
0,33,79,2
0,42,97,0
0,38,85,2
0,36,98,0
0,54,69,192
0,38,89,102
0,40,97,0
0,36,113,0
0,83,42,96
0,54,71,30
0,83,52,42
0,33,29,2
0,54,69,0
0,33,77,140
0,54,71,0
0,36,79,2
0,40,97,0
0,33,77,0
0,31,82,2
0,54,69,192
0,31,89,122
0,40,97,0
0,83,41,96
0,54,69,26
0,83,48,42
0,33,110,2
0,54,67,0
0,33,80,138
0,54,69,0
0,36,76,2
0,40,97,0
0,33,76,2
0,38,100,20
0,36,101,0
0,54,57,192
0,42,90,0
0,38,92,62
0,40,97,0
0,36,113,0
0,83,41,96
0,54,61,42
0,42,90,0
0,83,62,46
0,33,29,2
0,54,58,0
0,33,89,142
0,54,75,0
0,42,95,0
0,36,82,2
0,40,97,0
0,33,80,2
0,42,95,0
0,38,87,2
0,54,55,192
0,42,95,0
0,38,85,80
0,40,97,0
0,83,44,96
0,54,59,36
0,42,95,0
0,83,62,38
0,33,29,2
0,54,63,0
0,33,82,138
0,54,69,0
0,42,97,0
0,36,79,2
0,40,97,0
0,33,79,2
0,42,97,0
0,38,85,2
0,36,98,0
0,54,69,192
0,38,89,102
0,40,97,0
0,36,113,0
0,83,42,96
0,54,71,30
0,83,52,42
0,33,29,2
0,54,69,0
0,33,77,140
0,54,71,0
0,36,79,2
0,40,97,0
0,33,77,0
0,31,82,2
0,54,69,192
0,31,89,122
0,40,97,0
0,83,41,96
0,54,69,26
0,83,48,42
0,33,110,2
0,54,67,0
0,33,80,138
0,54,69,0
0,36,76,2
0,40,97,0
0,33,76,2
0,53,55,20
0,57,48,0
0,62,70,0
0,38,100,0
0,36,101,0
0,54,57,192
0,42,90,0
0,38,92,62
0,40,97,0
0,36,113,0
0,83,41,96
0,54,61,42
0,42,90,0
0,83,62,46
0,52,51,2
0,60,70,0
0,33,29,0
0,54,58,0
0,33,89,142
0,54,75,0
0,42,95,0
0,36,82,2
0,40,97,0
0,33,80,2
0,42,95,0
0,53,58,2
0,57,42,0
0,62,81,0
0,38,87,0
0,54,55,192
0,42,95,0
0,38,85,80
0,40,97,0
0,83,44,96
0,54,59,36
0,42,95,0
0,83,62,38
0,55,54,2
0,60,53,0
0,64,78,0
0,33,29,0
0,54,63,0
0,33,82,138
0,54,69,0
0,42,97,0
0,36,79,2
0,40,97,0
0,33,79,2
0,42,97,0
0,53,54,2
0,57,53,0
0,62,70,0
0,38,85,0
0,36,98,0
0,54,69,192
0,38,89,102
0,40,97,0
0,36,113,0
0,83,42,96
0,54,71,30
0,83,52,42
0,52,53,2
0,60,67,0
0,33,29,0
0,54,69,0
0,33,77,140
0,54,71,0
0,36,79,2
0,40,97,0
0,33,77,0
0,53,58,2
0,58,49,0
0,62,67,0
0,31,82,0
0,54,69,192
0,31,89,122
0,40,97,0
0,83,41,96
0,54,69,26
0,83,48,42
0,57,63,2
0,62,67,0
0,64,70,0
0,33,110,0
0,54,67,0
0,33,80,138
0,54,69,0
0,36,76,2
0,40,97,0
0,33,76,2
0,57,48,2
0,62,70,0
0,65,55,0
0,38,100,0
0,69,106,0
0,36,101,0
0,54,57,192
0,42,90,0
0,38,92,62
0,40,97,0
0,36,113,0
0,83,41,96
0,54,61,42
0,42,90,0
0,83,62,46
0,60,70,2
0,64,51,0
0,33,29,0
0,54,58,0
0,72,97,0
0,33,89,142
0,54,75,0
0,42,95,0
0,36,82,2
0,40,97,0
0,33,80,2
0,42,95,0
0,57,42,2
0,62,81,0
0,65,58,0
0,38,87,0
0,69,86,0
0,54,55,192
0,42,95,0
0,38,85,80
0,40,97,0
0,83,44,96
0,54,59,36
0,42,95,0
0,83,62,38
0,60,53,2
0,64,78,0
0,67,54,0
0,33,29,0
0,54,63,0
0,72,95,0
0,33,82,138
0,54,69,0
0,42,97,0
0,36,79,2
0,40,97,0
0,33,79,2
0,42,97,0
0,57,53,2
0,62,70,0
0,65,54,0
0,38,85,0
0,69,93,0
0,36,98,0
0,54,69,192
0,38,89,102
0,40,97,0
0,36,113,0
0,83,42,96
0,54,71,30
0,83,52,42
0,60,67,2
0,64,53,0
0,33,29,0
0,54,69,0
0,33,77,140
0,54,71,0
0,36,79,2
0,40,97,0
0,33,77,0
0,58,49,2
0,62,67,0
0,65,58,0
0,31,82,0
0,54,69,192
0,31,89,122
0,40,97,0
0,83,41,96
0,54,69,26
0,83,48,42
0,62,67,2
0,64,70,0
0,69,63,0
0,33,110,0
0,54,67,0
0,33,80,138
0,54,69,0
0,36,76,2
0,40,97,0
0,33,76,2
0,38,100,2
0,36,101,0
0,54,57,192
0,42,90,0
0,69,80,44
0,38,92,18
0,40,97,0
0,36,113,0
0,83,41,96
0,54,61,42
0,42,90,0
0,65,58,4
0,83,62,46
0,67,63,18
0,33,29,2
0,54,58,0
0,67,73,56
0,33,89,16
0,54,75,0
0,42,95,0
0,36,82,2
0,40,97,0
0,33,80,2
0,42,95,0
0,38,87,2
0,54,55,192
0,42,95,0
0,69,77,68
0,38,85,12
0,40,97,0
0,83,44,96
0,54,59,36
0,42,95,0
0,65,51,4
0,83,62,38
0,67,75,20
0,33,29,2
0,54,63,0
0,33,82,138
0,54,69,0
0,42,97,0
0,36,79,2
0,40,97,0
0,33,79,2
0,42,97,0
0,38,85,2
0,36,98,0
0,69,65,172
0,54,69,20
0,69,75,90
0,38,89,12
0,40,97,0
0,36,113,0
0,83,42,96
0,65,63,20
0,54,71,8
0,83,52,42
0,67,73,42
0,33,29,2
0,54,69,0
0,67,75,94
0,33,77,28
0,54,71,0
0,67,75,116
0,36,79,2
0,40,97,0
0,33,77,0
0,64,58,6
0,65,82,60
0,31,82,2
0,65,70,10
0,65,75,2
0,54,69,14
0,65,72,18
0,65,70,88
0,31,89,10
0,40,97,0
0,83,41,96
0,54,69,8
0,62,64,10
0,83,48,42
0,63,88,14
0,64,82,0
0,33,110,2
0,54,67,0
0,33,80,138
0,54,69,0
0,36,76,2
0,40,97,0
0,33,76,2
0,38,100,20
0,36,101,0
0,69,88,192
0,54,57,0
0,42,90,0
0,69,75,62
0,38,92,0
0,40,97,0
0,36,113,0
0,83,41,96
0,65,58,4
0,54,61,0
0,42,90,0
0,83,62,46
0,67,77,2
0,33,29,0
0,54,58,0
0,67,72,46
0,33,89,0
0,54,75,0
0,42,95,0
0,36,82,2
0,40,97,0
0,33,80,2
0,42,95,0
0,38,87,2
0,68,48,192
0,69,63,0
0,54,55,0
0,42,95,0
0,69,72,80
0,38,85,0
0,40,97,0
0,83,44,96
0,65,56,36
0,54,59,0
0,42,95,0
0,83,62,4
0,67,67,2
0,33,29,0
0,54,63,0
0,33,82,138
0,54,69,0
0,42,97,0
0,36,79,2
0,40,97,0
0,33,79,2
0,42,97,0
0,38,85,2
0,36,98,0
0,68,57,192
0,69,72,0
0,54,69,0
0,69,68,62
0,38,89,0
0,40,97,0
0,36,113,0
0,83,42,96
0,65,58,30
0,54,71,0
0,83,52,42
0,67,70,2
0,33,29,0
0,54,69,0
0,67,65,76
0,33,77,0
0,54,71,0
0,67,70,2
0,36,79,0
0,40,97,0
0,64,53,0
0,33,77,0
0,65,77,2
0,31,82,0
0,65,63,78
0,54,69,0
0,65,75,26
0,31,89,96
0,40,97,0
0,62,58,10
0,83,41,0
0,54,69,24
0,63,64,42
0,64,73,0
0,83,48,0
0,33,110,2
0,54,67,0
0,33,80,138
0,54,69,0
0,36,76,2
0,40,97,0
0,69,65,0
0,33,76,2
0,69,63,46
0,70,64,20
0,34,86,0
0,83,71,0
0,62,89,0
0,65,94,0
0,70,89,0
0,36,127,0
0,54,73,46
0,83,55,0
0,70,60,32
0,83,71,2
0,42,118,0
0,70,58,20
0,54,44,20
0,83,50,0
0,83,74,2
0,40,81,0
0,72,68,20
0,83,52,28
0,34,86,2
0,54,44,0
0,83,74,0
0,42,118,0
0,74,73,14
0,83,62,2
0,40,76,0
0,34,91,18
0,83,88,0
0,36,123,0
0,72,82,4
0,54,44,8
0,42,118,2
0,40,78,84
0,70,79,8
0,42,118,44
0,70,76,2
0,69,80,2
0,33,76,0
0,83,71,0
0,62,94,0
0,64,103,0
0,69,103,0
0,36,123,0
0,54,44,46
0,83,55,0
0,83,71,2
0,42,118,0
0,69,68,2
0,69,67,36
0,54,44,2
0,83,50,0
0,83,74,2
0,40,81,0
0,74,75,42
0,83,52,0
0,33,80,26
0,54,44,0
0,83,74,0
0,42,118,0
0,69,77,2
0,83,62,0
0,40,76,0
0,26,79,2
0,83,88,0
0,57,84,0
0,65,93,0
0,36,123,0
0,54,44,12
0,42,118,2
0,54,44,2
0,40,78,2
0,36,123,44
0,65,62,44
0,70,76,46
0,34,84,2
0,83,71,0
0,62,89,0
0,65,94,0
0,70,89,0
0,36,127,0
0,83,55,46
0,70,62,32
0,83,71,16
0,42,118,0
0,70,62,8
0,83,50,32
0,83,74,20
0,40,81,0
0,72,70,10
0,83,52,32
0,34,82,26
0,83,74,0
0,42,118,0
0,74,70,16
0,83,62,8
0,40,76,0
0,34,74,18
0,83,88,0
0,36,123,0
0,72,64,12
0,42,118,4
0,70,81,60
0,40,78,84
0,70,72,82
0,42,118,44
0,69,73,102
0,33,70,0
0,83,71,0
0,62,94,0
0,64,103,0
0,69,103,0
0,36,123,0
0,83,55,46
0,67,64,0
0,83,71,16
0,42,118,0
0,65,73,22
0,83,50,16
0,83,74,38
0,40,81,0
0,67,62,16
0,83,52,16
0,69,80,10
0,33,74,26
0,83,74,0
0,42,118,0
0,83,62,48
0,40,76,0
0,26,77,2
0,83,88,0
0,57,84,0
0,65,93,0
0,36,123,0
0,40,76,12
0,42,118,18
0,40,78,38
0,36,123,44
0,65,53,32
0,65,49,60
0,70,60,48
0,34,82,2
0,83,71,0
0,62,89,0
0,65,94,0
0,70,89,0
0,36,127,0
0,83,55,46
0,70,60,48
0,83,71,0
0,42,118,0
0,70,62,40
0,83,50,0
0,83,74,38
0,40,81,0
0,72,72,16
0,83,52,18
0,34,65,22
0,83,74,0
0,42,118,0
0,74,72,0
0,83,62,14
0,40,76,0
0,34,72,18
0,83,88,0
0,36,123,0
0,72,64,48
0,42,118,4
0,70,66,64
0,40,78,30
0,70,60,80
0,42,118,44
0,33,68,2
0,83,71,0
0,62,94,0
0,64,103,0
0,69,103,0
0,36,123,0
0,69,72,16
0,83,55,46
0,83,71,36
0,42,118,0
0,69,68,8
0,83,50,22
0,69,62,0
0,83,74,38
0,40,81,0
0,83,52,20
0,74,63,16
0,33,70,26
0,83,74,0
0,42,118,0
0,67,45,48
0,68,76,0
0,83,62,0
0,40,76,0
0,69,85,2
0,26,80,2
0,83,88,0
0,57,84,0
0,65,93,0
0,36,123,0
0,42,118,108
0,40,78,54
0,69,75,140
0,70,70,32
0,58,45,2
0,63,54,0
0,67,62,0
0,27,80,0
0,83,71,0
0,58,89,0
0,63,94,0
0,67,89,0
0,36,127,0
0,83,55,46
0,70,64,48
0,83,71,0
0,42,118,0
0,70,64,40
0,83,50,0
0,83,74,38
0,40,81,0
0,72,67,48
0,83,52,0
0,27,76,16
0,83,74,0
0,42,118,0
0,74,68,22
0,83,62,16
0,40,76,0
0,27,82,18
0,83,88,0
0,36,123,0
0,72,75,12
0,40,76,0
0,42,118,4
0,40,78,180
0,42,118,96
0,74,85,16
0,62,43,2
0,64,78,0
0,69,65,0
0,33,76,0
0,83,71,0
0,62,94,0
0,64,89,0
0,69,89,0
0,36,123,0
0,77,98,16
0,83,55,46
0,83,71,48
0,42,118,0
0,76,62,8
0,83,50,2
0,74,82,0
0,76,46,16
0,83,74,38
0,40,81,0
0,83,52,42
0,76,77,16
0,33,84,26
0,83,74,0
0,42,118,0
0,76,85,26
0,83,62,0
0,36,123,0
0,77,68,16
0,81,84,34
0,33,92,0
0,83,88,0
0,36,123,12
0,76,85,8
0,42,118,48
0,65,88,42
0,69,88,0
0,74,75,0
0,40,78,0
0,67,75,4
0,72,75,0
0,76,65,0
0,69,72,2
0,74,59,0
0,53,67,0
0,57,67,0
0,62,72,0
0,38,100,0
0,36,101,0
0,77,58,2
0,77,48,26
0,74,68,2
0,54,57,8
0,42,90,0
0,69,75,8
0,74,77,48
0,77,65,6
0,69,77,8
0,38,92,0
0,40,97,0
0,36,113,0
0,83,41,96
0,72,64,2
0,76,58,2
0,67,67,2
0,54,61,8
0,42,90,0
0,83,62,46
0,72,72,18
0,67,72,6
0,76,62,12
0,52,53,2
0,57,67,0
0,60,70,0
0,33,29,0
0,54,58,0
0,64,61,6
0,69,72,2
0,72,68,22
0,33,89,4
0,54,75,0
0,42,95,0
0,65,63,46
0,69,68,8
0,74,75,2
0,36,82,0
0,40,97,0
0,76,58,10
0,72,75,4
0,67,73,0
0,33,80,2
0,42,95,0
0,69,70,24
0,77,64,2
0,74,73,2
0,53,55,2
0,57,55,0
0,62,63,0
0,38,87,0
0,74,68,46
0,77,72,2
0,69,77,12
0,54,55,14
0,42,95,0
0,74,70,50
0,77,68,4
0,69,77,12
0,38,85,14
0,40,97,0
0,83,44,96
0,72,65,0
0,76,59,0
0,67,70,2
0,54,59,18
0,42,95,0
0,83,62,8
0,72,72,4
0,76,68,12
0,67,77,4
0,52,52,2
0,57,67,0
0,60,72,0
0,33,29,0
0,54,63,0
0,33,82,4
0,54,69,0
0,42,97,0
0,69,73,56
0,74,72,6
0,65,77,2
0,36,79,2
0,40,97,0
0,67,70,2
0,76,57,0
0,72,63,6
0,33,79,2
0,42,97,0
0,77,63,8
0,74,68,4
0,69,72,2
0,53,48,2
0,57,60,0
0,62,70,0
0,38,85,0
0,36,98,0
0,77,61,42
0,74,68,4
0,69,73,10
0,54,69,16
0,74,68,60
0,77,68,0
0,69,75,16
0,38,89,10
0,40,97,0
0,36,113,0
0,83,42,96
0,76,56,2
0,72,72,2
0,67,70,2
0,54,71,8
0,83,52,2
0,72,68,6
0,76,65,4
0,67,70,14
0,52,57,2
0,57,78,0
0,60,88,0
0,33,29,0
0,54,69,0
0,69,68,10
0,72,52,2
0,64,67,8
0,33,77,10
0,54,71,0
0,74,58,24
0,69,70,4
0,65,73,6
0,36,79,2
0,40,97,0
0,76,59,6
0,72,64,2
0,67,72,12
0,33,77,0
0,70,62,2
0,74,72,2
0,65,73,10
0,50,57,2
0,55,72,0
0,58,71,0
0,31,82,0
0,65,70,56
0,74,67,2
0,70,62,4
0,54,69,8
0,65,73,76
0,74,67,0
0,70,66,12
0,31,89,0
0,40,97,0
0,83,41,96
0,76,58,2
0,67,67,2
0,72,72,2
0,54,69,4
0,83,48,42
0,67,75,10
0,76,70,8
0,72,80,2
0,52,57,2
0,57,70,0
0,60,70,0
0,33,110,0
0,54,67,0
0,33,80,32
0,54,69,0
0,74,72,118
0,65,73,4
0,69,73,6
