track,note,velocity,time
1,31,60,7260
1,31,66,96
1,29,76,960
1,31,66,32
1,31,84,52
1,26,88,984
1,24,80,28
1,24,66,68
1,24,66,992
1,26,88,20
1,26,88,84
1,29,66,1004
1,31,76,20
1,31,64,60
1,29,62,996
1,31,72,192
1,31,66,64
1,26,66,984
1,24,58,16
1,24,64,68
1,24,62,976
1,26,88,40
1,26,84,84
1,26,88,992
1,31,60,52
1,31,66,96
1,29,76,960
1,31,66,32
1,31,84,52
1,26,88,984
1,24,80,28
1,24,66,68
1,24,66,992
1,26,88,20
1,26,88,84
1,29,66,1004
1,31,76,20
1,31,64,60
1,29,62,996
1,31,72,192
1,31,66,64
1,26,66,984
1,24,58,16
1,24,64,68
1,24,62,976
1,26,88,40
1,26,84,84
1,26,88,992
1,27,88,52
1,27,80,104
1,26,64,976
1,27,88,32
1,27,88,80
1,29,66,980
1,31,92,40
1,31,80,72
1,29,72,988
1,31,72,40
1,31,80,68
1,31,88,984
1,33,68,44
1,33,84,68
1,31,62,988
1,33,88,44
1,33,84,64
1,33,84,1004
1,26,84,16
1,26,84,104
1,24,62,992
1,26,88,36
1,31,60,1392
1,31,66,96
1,29,76,960
1,31,66,32
1,31,84,52
1,26,88,984
1,24,80,28
1,24,66,68
1,24,66,992
1,26,88,20
1,26,88,84
1,29,66,1004
1,31,76,20
1,31,64,60
1,29,62,996
1,31,72,192
1,31,66,64
1,26,66,984
1,24,58,16
1,24,64,68
1,24,62,976
1,26,88,40
1,26,84,84
1,26,88,992
1,31,60,52
1,31,66,96
1,29,76,960
1,31,66,32
1,31,84,52
1,26,88,984
1,24,80,28
1,24,66,68
1,24,66,992
1,26,88,20
1,26,88,84
1,29,66,1004
1,31,76,20
1,31,64,60
1,29,62,996
1,31,72,192
1,31,66,64
1,26,66,984
1,24,58,16
1,24,64,68
1,24,62,976
1,26,88,40
1,26,84,84
1,26,88,992
1,27,88,52
1,27,80,104
1,26,64,976
1,27,88,32
1,27,88,80
1,29,66,980
1,31,92,40
1,31,80,72
1,29,72,988
1,31,72,40
1,31,80,68
1,31,88,984
1,33,68,44
1,33,84,68
1,31,62,988
1,33,88,44
1,33,84,64
1,33,84,1004
1,26,84,16
1,26,84,104
1,24,62,992
1,26,88,36
1,31,76,1392
1,31,64,60
1,29,62,996
1,31,72,192
1,31,66,64
1,26,66,984
1,24,58,16
1,24,64,68
1,24,62,976
1,26,88,40
1,26,84,84
1,26,88,992
1,31,84,52
1,31,84,108
1,29,80,1000
1,31,54,24
1,31,84,84
1,29,48,1000
1,31,76,4
1,31,80,56
1,29,68,1004
1,31,66,28
1,31,88,68
1,26,84,1008
1,27,88,36
1,27,80,104
1,26,64,976
1,27,88,32
1,27,88,80
1,29,66,980
1,31,92,40
1,31,80,72
1,29,72,988
1,31,72,40
1,31,80,68
1,31,88,984
1,33,68,44
1,33,84,68
1,31,62,988
1,33,88,44
1,33,84,64
1,33,84,1004
1,26,84,16
1,26,84,104
1,24,62,992
1,26,88,36
1,31,60,1392
1,31,66,96
1,29,76,960
1,31,66,32
1,31,84,52
1,26,88,984
1,24,80,28
1,24,66,68
1,24,66,992
1,26,88,20
1,26,88,84
1,29,66,1004
1,31,76,20
1,31,64,60
1,29,62,996
1,31,72,192
1,31,66,64
1,26,66,984
1,24,58,16
1,24,64,68
1,24,62,976
1,26,88,40
1,26,84,84
1,26,88,992
1,31,60,52
1,31,66,96
1,29,76,960
1,31,66,32
1,31,84,52
1,26,88,984
1,24,80,28
1,24,66,68
1,24,66,992
1,26,88,20
1,26,88,84
1,29,66,1004
1,31,76,20
1,31,64,60
1,29,62,192
1,31,72,96
1,31,66,64
1,26,66,96
1,24,58,16
1,24,64,68
1,24,62,192
1,26,88,40
1,26,84,48
1,26,88,96
1,31,60,48
1,31,66,48
1,29,76,96
1,31,66,32
1,31,84,48
1,26,88,96
1,24,80,28
1,24,66,68
1,24,66,48
1,26,88,20
1,26,88,84
1,29,66,48
1,31,76,112
1,31,64,60
1,29,62,996
1,31,72,192
1,31,66,64
1,26,66,984
1,24,58,16
1,24,64,68
1,24,62,976
1,26,88,40
1,26,84,84
2,69,42,2632
2,67,42,0
2,74,42,0
2,43,54,2208
2,36,65,60
2,38,64,1536
2,58,43,316
2,53,43,0
2,57,43,0
2,62,43,0
2,55,43,84
2,58,43,84
2,51,43,0
2,55,43,0
2,62,43,0
2,53,43,8
2,57,43,0
2,60,43,0
2,57,43,4
2,53,43,0
2,58,43,0
2,62,43,0
2,55,43,4
2,55,43,92
2,51,43,0
2,53,43,36
2,57,43,0
2,60,43,0
2,58,44,200
2,63,58,0
2,55,44,0
2,67,58,100
2,58,48,772
2,67,56,0
2,62,60,0
2,63,52,352
2,55,38,0
2,57,35,0
2,60,52,0
2,55,48,144
2,57,42,0
2,62,54,0
2,60,56,172
2,54,59,0
2,58,43,1276
2,53,43,0
2,57,43,0
2,62,43,0
2,55,43,84
2,58,43,84
2,51,43,0
2,55,43,0
2,62,43,0
2,53,43,8
2,57,43,0
2,60,43,0
2,58,43,4
2,53,43,0
2,57,43,0
2,62,43,0
2,55,43,84
2,58,43,84
2,51,43,0
2,55,43,0
2,62,43,0
2,53,43,8
2,57,43,0
2,60,43,0
2,58,43,4
2,53,43,0
2,57,43,0
2,62,43,0
2,55,43,84
2,58,43,84
2,51,43,0
2,55,43,0
2,62,43,0
2,53,43,8
2,57,43,0
2,60,43,0
2,57,43,4
2,53,43,0
2,58,43,0
2,62,43,0
2,55,43,4
2,55,43,92
2,51,43,0
2,53,43,36
2,57,43,0
2,60,43,0
2,58,44,200
2,63,58,0
2,55,44,0
2,67,58,100
2,58,48,772
2,67,56,0
2,62,60,0
2,63,52,352
2,55,38,0
2,57,35,0
2,60,52,0
2,55,48,144
2,57,42,0
2,62,54,0
2,60,56,172
2,54,59,0
2,62,54,1276
2,57,44,0
2,58,33,0
2,55,29,16
2,65,66,768
2,55,50,112
2,58,46,0
2,63,54,0
2,62,56,40
2,57,56,0
2,55,38,0
2,66,52,768
2,63,45,120
2,58,45,0
2,67,45,0
2,60,45,196
2,69,45,0
2,65,45,0
2,67,45,196
2,70,45,0
2,63,45,0
2,69,45,196
2,72,45,0
2,65,45,0
2,58,44,196
2,63,58,0
2,55,44,0
2,67,58,100
2,58,48,772
2,67,56,0
2,62,60,0
2,63,52,352
2,55,38,0
2,57,35,0
2,60,52,0
2,55,48,144
2,57,42,0
2,62,54,0
2,60,56,172
2,54,59,0
3,62,64,18992
3,62,80,144
3,65,52,16
3,67,56,8
3,69,52,20
3,67,46,172
3,70,88,128
3,72,66,56
3,74,66,288
3,72,66,168
3,67,56,4
3,67,44,164
3,69,66,12
3,70,80,192
3,69,56,256
3,69,60,132
3,62,54,40
3,62,76,124
3,65,42,20
3,67,52,96
3,69,52,256
3,67,34,260
3,70,92,156
3,72,72,56
3,74,60,288
3,72,64,4
3,67,58,340
3,67,76,132
3,69,68,52
3,70,76,4
3,69,80,20
3,69,76,108
3,69,58,4
3,74,80,92
3,75,88,20
3,75,72,52
3,75,58,44
3,79,58,288
3,79,68,108
3,82,92,8
3,81,66,80
3,79,66,160
3,82,92,64
3,81,60,84
3,79,56,144
3,81,66,192
3,79,58,336
3,79,62,64
3,77,76,4
3,82,84,192
3,81,66,44
3,79,60,16
3,77,76,192
3,74,60,40
3,70,56,288
3,69,66,156
3,67,39,164
3,69,54,8
3,67,38,192
3,69,56,20
3,67,56,104
3,67,54,52
3,69,68,20
3,67,31,4
3,69,56,32
3,67,44,192
3,69,64,28
3,67,58,148
3,69,80,80
3,67,32,192
3,69,56,44
3,67,46,192
3,69,56,20
3,74,62,152
3,75,84,192
3,74,62,76
3,70,84,288
3,69,76,16
3,67,66,192
3,63,54,260
3,62,64,164
3,62,46,10488
3,62,76,108
3,65,64,4
3,67,52,96
3,69,54,276
3,67,66,188
3,70,76,20
3,72,72,12
3,74,60,288
3,72,76,160
3,67,48,220
3,67,54,144
3,69,72,4
3,70,60,12
3,69,66,288
3,69,46,100
3,69,52,8
3,62,42,4
3,62,64,84
3,65,64,8
3,67,64,96
3,69,62,4
3,67,66,240
3,70,84,8
3,72,64,40
3,74,58,288
3,72,66,132
3,67,52,248
3,67,54,136
3,69,62,132
3,70,64,172
3,69,56,284
3,69,62,60
3,69,64,4
3,74,66,28
3,75,88,192
3,75,64,36
3,75,62,48
3,79,62,288
3,79,62,72
3,82,80,192
3,81,72,32
3,79,62,20
3,82,80,4
3,81,80,32
3,79,62,0
3,81,64,4
3,79,56,48
3,79,52,28
3,77,76,116
3,82,84,0
3,81,66,52
3,79,56,56
3,77,76,192
3,74,56,44
3,70,58,288
3,69,64,160
3,67,42,0
3,69,50,0
3,67,32,16
3,69,54,16
3,67,56,188
3,67,46,48
3,69,72,32
3,67,54,0
3,69,62,20
3,67,48,12
3,69,68,36
3,67,46,112
3,67,44,56
3,69,80,32
3,67,46,192
3,69,56,8
3,67,44,24
3,69,56,12
3,74,64,140
3,75,80,192
3,74,56,48
3,70,66,32
3,69,66,192
3,67,66,48
3,63,52,288
3,62,62,152
3,74,80,10544
3,75,84,12
3,75,62,56
3,75,58,40
3,79,60,288
3,79,56,56
3,82,88,192
3,81,60,48
3,79,56,36
3,82,84,192
3,81,68,12
3,79,58,4
3,81,72,192
3,79,52,8
3,79,56,28
3,77,76,224
3,82,88,192
3,81,64,52
3,79,56,52
3,77,84,192
3,74,52,52
3,70,54,288
3,69,66,152
3,67,42,148
3,69,54,24
3,67,39,4
3,69,62,12
3,67,54,320
3,67,46,48
3,69,66,96
3,67,39,188
3,69,62,28
3,67,42,192
3,69,58,40
3,67,50,376
3,67,46,68
3,69,62,12
3,67,38,192
3,69,64,12
3,67,48,4
3,69,66,32
3,79,66,212
3,78,88,28
3,78,97,96
3,78,92,136
3,79,58,192
3,79,64,84
3,81,84,192
3,81,88,4
3,79,54,284
3,82,84,4
3,81,68,4
3,81,68,76
3,79,54,88
3,79,80,220
3,78,76,4
3,78,80,128
3,78,76,116
3,79,39,192
3,79,58,64
3,81,80,192
3,81,80,4
3,79,42,208
3,82,88,4
3,81,66,488
3,81,66,64
3,79,42,52
3,79,80,284
3,78,80,4
3,78,92,140
3,78,84,120
3,79,44,4
3,79,54,60
3,81,80,192
3,81,88,64
3,81,76,4
3,79,38,116
3,82,88,4
3,81,64,8
3,81,76,76
3,79,38,76
3,79,76,200
3,78,80,4
3,78,80,4
3,78,76,4
3,79,52,152
3,79,52,88
3,81,68,288
3,81,80,40
3,79,46,88
3,86,88,4
3,82,66,96
3,84,66,92
3,82,56,92
3,79,50,0
3,79,64,140
3,78,84,96
3,78,80,48
3,78,72,48
3,79,40,96
3,79,56,68
3,81,80,96
3,81,84,4
3,79,42,0
3,82,68,4
3,81,66,0
3,81,76,96
3,79,37,48
3,79,66,48
3,78,64,96
3,78,66,92
3,78,80,96
3,79,36,48
3,79,58,72
3,81,62,48
3,81,64,96
3,79,44,120
3,82,84,8
3,84,58,48
3,81,56,8
3,79,40,80
3,79,62,224
3,78,68,192
3,78,68,104
3,78,66,180
3,79,29,192
3,79,38,80
3,81,48,192
4,67,65,7844
4,70,69,60
4,74,70,28
4,79,72,32
4,82,75,12
4,67,44,96
4,70,47,60
4,74,49,28
4,79,51,28
4,82,53,8
4,67,21,96
4,70,23,60
4,74,24,28
4,79,25,28
4,82,27,8
4,67,8,132
4,70,11,60
4,74,12,28
4,79,14,28
4,82,16,8
4,74,31,768
4,70,31,0
4,74,58,148
4,70,29,0
4,70,31,124
4,67,50,0
4,70,44,100
4,67,48,0
4,63,32,56
4,67,46,0
4,67,46,104
4,63,28,0
4,72,44,444
4,69,52,0
4,72,54,88
4,69,64,0
4,69,44,56
4,65,44,0
4,69,30,96
4,65,34,0
4,65,39,116
4,60,27,68
4,65,52,0
4,67,65,68
4,70,69,60
4,74,70,28
4,79,72,32
4,82,75,12
4,67,44,96
4,70,47,60
4,74,49,28
4,79,51,28
4,82,53,8
4,67,21,96
4,70,23,60
4,74,24,28
4,79,25,28
4,82,27,8
4,67,8,132
4,70,11,60
4,74,12,28
4,79,14,28
4,82,16,8
4,77,58,768
4,74,40,0
4,74,56,128
4,77,68,0
4,74,39,88
4,70,34,0
4,74,36,100
4,70,32,0
4,67,44,80
4,70,37,0
4,67,44,116
4,70,30,0
4,72,48,452
4,69,38,0
4,72,66,124
4,69,52,0
4,69,52,88
4,69,46,124
4,65,42,0
4,65,30,112
4,60,25,92
4,65,31,0
4,74,31,28120
4,70,31,0
4,74,58,148
4,70,29,0
4,70,31,124
4,67,50,0
4,70,44,100
4,67,48,0
4,63,32,56
4,67,46,0
4,67,46,104
4,63,28,0
4,72,44,444
4,69,52,0
4,72,54,88
4,69,64,0
4,69,44,56
4,65,44,0
4,69,30,96
4,65,34,0
4,65,39,116
4,60,27,68
4,65,52,0
4,67,65,68
4,70,69,60
4,74,70,28
4,79,72,32
4,82,75,12
4,67,44,96
4,70,47,60
4,74,49,28
4,79,51,28
4,82,53,8
4,67,21,96
4,70,23,60
4,74,24,28
4,79,25,28
4,82,27,8
4,67,8,132
4,70,11,60
4,74,12,28
4,79,14,28
4,82,16,8
4,77,58,768
4,74,40,0
4,74,56,128
4,77,68,0
4,74,39,88
4,70,34,0
4,74,36,100
4,70,32,0
4,67,44,80
4,70,37,0
4,67,44,116
4,70,30,0
4,72,48,452
4,69,38,0
4,72,66,124
4,69,52,0
4,69,52,88
4,69,46,124
4,65,42,0
4,65,30,112
4,60,25,92
4,65,31,0
4,67,65,68
4,70,69,60
4,74,70,28
4,79,72,32
4,82,75,12
4,67,44,96
4,70,47,60
4,74,49,28
4,79,51,28
4,82,53,8
4,67,21,96
4,70,23,60
4,74,24,28
4,79,25,28
4,82,27,8
4,67,8,132
4,70,11,60
4,74,12,28
4,79,14,28
4,82,16,8
4,77,58,768
4,74,40,0
4,74,56,128
4,77,68,0
4,74,39,88
4,70,34,0
4,74,36,100
4,70,32,0
4,67,44,80
4,70,37,0
4,67,44,116
4,70,30,0
4,72,48,452
4,69,38,0
4,72,66,124
4,69,52,0
4,69,52,88
4,69,46,124
4,65,42,0
4,65,30,112
4,60,25,92
4,65,31,0
5,74,26,15436
5,79,36,192
5,77,38,44
5,74,34,192
5,72,32,1300
5,70,32,76
5,69,44,60
5,74,52,30876
5,72,52,0
5,77,46,576
5,74,38,156
5,72,40,200
5,70,39,96
5,69,41,92
5,57,37,19240
5,69,62,380
5,75,56,196
5,79,54,196
5,84,52,100
5,81,44,100
5,70,36,8620
5,70,37,52
5,69,52,96
5,65,37,220
5,70,26,220
5,62,38,0
5,70,27,20
5,69,42,96
5,65,27,220
5,70,34,220
5,62,28,0
5,70,42,20
5,69,50,96
5,65,54,140
5,62,37,36
5,65,52,132
5,70,24,16
5,70,32,48
5,69,40,96
5,65,44,140
5,62,27,36
5,65,42,132
5,70,46,16
5,70,46,44
5,69,50,16
5,65,52,224
5,70,26,212
5,62,44,0
5,70,36,44
5,69,40,16
5,60,52,0
5,58,37,108
5,65,42,96
5,60,38,0
5,62,34,200
5,60,42,140
5,58,27,108
5,60,28,96
5,57,37,7112
5,69,62,380
5,75,56,196
5,79,54,196
5,84,52,100
5,81,44,100
5,70,66,15532
5,70,52,36
5,69,58,96
5,65,41,232
5,67,56,172
5,70,58,684
5,70,46,48
5,69,58,96
5,65,45,136
5,62,45,12
5,65,43,132
5,70,49,796
5,70,46,28
5,69,44,96
5,70,50,192
5,70,50,40
5,69,56,96
5,65,36,96
5,67,34,96
5,70,62,96
5,70,46,40
5,69,54,16
5,65,41,124
5,62,54,24
5,67,56,208
5,70,40,192
5,70,36,44
5,72,52,4
5,69,54,48
5,70,34,48
5,62,46,96
5,60,34,32
5,62,44,8
5,70,66,96
5,70,52,36
5,69,58,96
5,65,41,48
5,67,56,48
5,70,58,96
5,70,46,48
5,69,58,96
5,65,45,48
5,62,45,12
5,65,43,48
5,70,49,48
5,70,46,28
5,69,44,96
5,70,50,96
5,70,50,40
