track,note,velocity,time
0,51,105,2344
0,36,104,0
0,91,117,0
0,36,107,22
0,42,100,338
0,42,100,0
0,36,98,28
0,36,111,162
0,36,98,172
0,42,100,356
0,36,92,12
0,84,91,102
0,86,122,24
0,36,105,24
0,42,100,18
0,31,106,2
0,79,57,170
0,36,109,10
0,36,106,12
0,84,117,0
0,42,100,352
0,36,102,160
0,79,111,160
0,36,109,6
0,42,100,18
0,36,111,134
0,77,97,26
0,77,76,12
0,42,100,14
0,77,100,0
0,76,102,96
0,36,113,0
0,74,95,2
0,72,97,24
0,72,70,8
0,36,109,10
0,71,105,18
0,69,96,18
0,67,96,20
0,65,100,30
0,42,100,16
0,64,96,0
0,65,85,4
0,51,100,6
0,51,100,14
0,62,95,0
0,51,100,6
0,79,82,0
0,51,100,2
0,31,104,0
0,60,93,0
0,51,105,28
0,59,91,0
0,51,64,48
0,36,88,2
0,88,88,0
0,84,100,20
0,60,92,6
0,72,118,0
0,55,92,2
0,72,101,0
0,64,83,2
0,79,102,6
0,64,60,8
0,55,54,0
0,76,94,4
0,60,53,2
0,67,94,10
0,67,41,14
0,42,100,146
0,72,120,0
0,72,80,0
0,74,80,6
0,74,120,6
0,76,115,14
0,76,84,0
0,72,105,4
0,42,100,180
0,84,102,22
0,76,77,6
0,79,88,2
0,36,88,22
0,72,71,0
0,55,102,6
0,72,118,2
0,64,84,2
0,60,102,2
0,67,38,20
0,67,92,10
0,72,65,14
0,42,100,0
0,72,120,2
0,74,71,4
0,74,125,10
0,76,75,6
0,72,125,8
0,76,118,0
0,42,100,186
0,53,57,2
0,53,96,0
0,53,102,2
0,62,96,4
0,58,109,2
0,34,69,4
0,62,88,4
0,58,60,4
0,58,82,0
0,62,61,56
0,74,59,296
0,69,109,16
0,70,113,2
0,42,100,2
0,74,109,6
0,74,71,0
0,70,105,6
0,70,107,36
0,42,100,22
0,70,44,6
0,70,56,2
0,65,90,76
0,58,102,2
0,62,80,8
0,74,104,0
0,70,94,2
0,34,68,16
0,42,100,8
0,74,105,0
0,65,88,2
0,70,88,0
0,74,104,30
0,77,98,0
0,70,94,2
0,77,105,20
0,74,94,4
0,65,77,2
0,70,90,2
0,74,90,134
0,77,85,32
0,42,100,22
0,82,122,20
0,60,68,8
0,55,70,0
0,72,127,6
0,60,102,2
0,36,95,2
0,72,90,0
0,64,100,4
0,55,100,4
0,72,111,16
0,76,98,10
0,79,122,14
0,67,80,22
0,67,59,10
0,42,100,18
0,72,125,0
0,72,86,16
0,64,47,124
0,74,122,10
0,74,75,2
0,76,115,8
0,72,115,2
0,67,122,2
0,76,77,16
0,42,100,22
0,84,84,2
0,79,104,8
0,76,98,6
0,72,88,16
0,36,101,12
0,72,80,6
0,72,120,2
0,60,107,4
0,64,90,0
0,55,111,2
0,67,102,10
0,67,53,4
0,42,100,22
0,72,125,2
0,72,80,8
0,74,84,20
0,74,125,0
0,76,75,12
0,76,127,10
0,72,122,2
0,67,118,2
0,42,100,178
0,67,49,2
0,62,63,2
0,58,72,2
0,36,70,12
0,55,105,10
0,58,100,8
0,62,92,2
0,55,96,10
0,58,104,2
0,62,82,4
0,79,82,328
0,42,100,20
0,74,125,14
0,79,118,6
0,79,77,36
0,74,102,32
0,70,83,4
0,79,73,10
0,74,118,34
0,70,118,4
0,79,80,40
0,74,50,26
0,42,100,46
0,74,75,2
0,91,94,0
0,86,109,28
0,82,109,12
0,79,107,4
0,36,91,14
0,55,105,8
0,58,100,6
0,62,84,0
0,42,100,30
0,67,92,20
0,70,102,0
0,74,109,38
0,70,109,4
0,67,98,2
0,42,100,4
0,72,62,0
0,69,96,8
0,60,100,8
0,53,96,2
0,72,107,0
0,41,70,2
0,57,105,4
0,79,127,2
0,79,75,20
0,69,107,8
0,65,98,2
0,72,94,2
0,60,60,2
0,57,34,4
0,65,61,6
0,77,120,24
0,72,111,2
0,77,75,16
0,42,100,80
0,72,105,24
0,76,109,2
0,69,105,2
0,76,71,2
0,74,122,22
0,69,120,2
0,74,80,8
0,42,100,14
0,72,105,24
0,72,80,14
0,69,102,12
0,53,60,14
0,57,57,4
0,60,62,10
0,41,88,8
0,79,86,0
0,60,107,2
0,72,122,0
0,53,94,4
0,72,107,0
0,57,86,2
0,69,120,0
0,65,111,2
0,79,127,4
0,77,107,38
0,77,68,8
0,42,100,104
0,76,118,20
0,76,71,12
0,74,122,14
0,74,59,0
0,69,113,2
0,42,100,8
0,76,125,6
0,53,92,2
0,76,68,6
0,41,91,2
0,56,118,0
0,72,92,0
0,60,94,2
0,68,109,0
0,65,96,2
0,60,64,6
0,56,80,6
0,56,107,2
0,53,60,4
0,77,118,10
0,77,90,16
0,76,120,4
0,76,53,8
0,42,100,2
0,77,109,12
0,77,73,0
0,76,111,30
0,76,59,16
0,72,102,16
0,72,65,4
0,68,125,6
0,68,59,10
0,42,100,6
0,72,118,6
0,72,71,0
0,52,59,32
0,57,62,16
0,69,107,26
0,57,96,4
0,72,90,0
0,64,102,2
0,57,118,16
0,52,107,2
0,60,107,2
0,60,48,8
0,33,86,8
0,42,100,4
0,64,109,6
0,69,107,56
0,42,100,4
0,72,80,2
0,72,105,2
0,56,88,6
0,60,100,4
0,77,94,2
0,72,104,2
0,63,81,2
0,56,84,2
0,51,59,0
0,68,92,0
0,77,111,2
0,60,59,0
0,63,102,2
0,56,60,2
0,75,85,4
0,32,70,2
0,63,58,2
0,75,65,44
0,75,125,6
0,42,100,114
0,74,125,20
0,74,53,20
0,72,107,0
0,72,80,6
0,42,100,154
0,72,115,4
0,72,59,18
0,77,80,16
0,60,105,10
0,63,100,2
0,56,81,2
0,32,72,2
0,77,107,0
0,87,83,8
0,80,80,4
0,84,83,8
0,75,90,44
0,75,127,2
0,42,100,100
0,74,122,20
0,74,68,18
0,72,80,24
0,72,125,16
0,42,100,2
0,55,52,52
0,55,102,4
0,58,98,0
0,62,96,2
0,74,122,2
0,74,65,0
0,58,56,6
0,82,90,4
0,74,84,2
0,31,99,2
0,62,47,2
0,75,44,0
0,74,56,22
0,42,100,22
0,75,68,6
0,74,53,20
0,70,59,28
0,42,100,186
0,72,75,192
0,29,95,2
0,57,61,0
0,60,125,8
0,60,58,0
0,65,122,2
0,57,122,2
0,53,44,0
0,77,115,6
0,72,122,4
0,69,122,2
0,67,59,26
0,42,100,16
0,72,68,6
0,72,94,20
0,62,76,54
0,74,101,4
0,42,100,188
0,72,77,38
0,36,90,2
0,36,111,0
0,88,88,0
0,72,109,18
0,84,100,2
0,76,93,0
0,67,91,2
0,60,92,4
0,72,118,0
0,55,92,2
0,64,83,2
0,79,102,6
0,64,60,2
0,55,54,4
0,76,94,4
0,60,53,2
0,67,77,12
0,72,75,0
0,76,77,0
0,79,80,0
0,67,59,4
0,67,94,10
0,54,105,0
0,69,95,0
0,72,73,8
0,72,120,0
0,36,90,18
0,36,111,0
0,74,77,4
0,74,120,12
0,36,90,136
0,36,111,0
0,76,115,14
0,72,105,0
0,76,75,12
0,69,102,168
0,67,50,0
0,72,75,0
0,76,82,0
0,84,102,10
0,76,77,22
0,79,88,2
0,36,90,8
0,36,113,0
0,79,55,0
0,81,48,0
0,55,102,6
0,72,118,2
0,64,84,2
0,60,102,2
0,72,65,8
0,67,92,4
0,67,50,8
0,54,105,0
0,69,95,0
0,72,120,2
0,72,75,0
0,36,90,6
0,36,111,0
0,74,125,0
0,74,73,2
0,36,90,132
0,36,113,0
0,76,77,0
0,72,125,14
0,76,118,0
0,69,102,8
0,65,67,0
0,70,106,0
0,74,100,0
0,53,57,2
0,53,96,0
0,65,96,0
0,53,102,2
0,62,96,4
0,58,109,2
0,36,90,4
0,31,113,0
0,70,77,0
0,74,77,0
0,77,86,0
0,62,88,4
0,58,60,4
0,58,82,0
0,62,61,6
0,74,68,118
0,69,109,22
0,70,113,2
0,54,105,2
0,69,95,0
0,74,109,6
0,74,59,10
0,36,90,6
0,31,113,0
0,70,105,4
0,70,107,30
0,36,90,36
0,31,116,0
0,70,44,16
0,70,59,44
0,69,102,4
0,65,67,8
0,70,80,0
0,74,90,0
0,65,90,24
0,58,102,2
0,62,80,8
0,74,104,0
0,70,94,2
0,36,90,8
0,31,125,0
0,77,95,0
0,54,105,2
0,69,95,0
0,74,105,2
0,36,90,2
0,31,119,0
0,65,88,0
0,70,88,0
0,74,104,30
0,77,98,0
0,70,94,2
0,36,90,146
0,31,122,0
0,77,105,20
0,74,94,4
0,65,77,2
0,70,90,2
0,74,90,134
0,77,85,32
0,69,102,2
0,82,122,14
0,67,44,4
0,60,68,8
0,55,70,0
0,76,98,0
0,72,98,2
0,67,93,2
0,72,127,6
0,60,102,2
0,36,90,2
0,36,111,0
0,72,90,0
0,72,77,0
0,76,97,0
0,79,80,0
0,64,100,4
0,72,90,2
0,55,100,2
0,76,98,26
0,79,122,14
0,67,80,22
0,67,59,8
0,54,105,2
0,69,95,0
0,72,125,4
0,72,73,12
0,64,47,68
0,36,90,18
0,36,111,0
0,74,122,4
0,74,82,2
0,36,90,146
0,36,113,0
0,76,115,8
0,72,115,2
0,67,122,4
0,76,82,10
0,69,102,168
0,84,84,2
0,67,80,2
0,72,82,0
0,79,104,8
0,76,98,6
0,72,88,16
0,36,90,4
0,36,113,0
0,76,84,0
0,79,63,0
0,72,120,8
0,60,107,4
0,64,90,0
0,55,111,2
0,72,68,8
0,67,102,8
0,67,56,10
0,54,105,4
0,69,95,0
0,72,125,4
0,72,80,10
0,36,90,4
0,36,113,0
0,74,77,18
0,74,125,0
0,36,90,144
0,36,116,0
0,76,127,8
0,72,122,2
0,67,118,2
0,76,80,0
0,69,102,26
0,67,65,0
0,67,49,4
0,62,63,2
0,58,72,2
0,79,100,4
0,36,90,2
0,36,113,0
0,74,93,0
0,70,84,0
0,74,95,0
0,79,90,0
0,70,83,6
0,67,85,2
0,55,105,2
0,58,100,8
0,62,92,2
0,55,96,2
0,58,104,2
0,62,82,4
0,54,105,314
0,69,95,0
0,74,125,14
0,79,118,6
0,79,80,6
0,74,102,12
0,36,90,6
0,36,111,0
0,70,83,2
0,74,118,34
0,70,118,4
0,36,90,6
0,36,116,0
0,81,71,4
0,79,59,6
0,69,102,94
0,76,38,8
0,91,94,0
0,67,65,18
0,70,80,0
0,74,97,0
0,86,109,10
0,82,109,12
0,79,107,4
0,36,90,14
0,36,119,0
0,79,90,0
0,55,105,8
0,58,100,6
0,62,84,0
0,74,65,2
0,54,105,312
0,69,95,0
0,36,90,8
0,36,111,0
0,67,92,2
0,70,102,0
0,36,90,58
0,36,119,0
0,74,109,38
0,70,109,4
0,67,98,2
0,69,102,4
0,72,75,24
0,65,54,80
0,69,96,44
0,60,100,8
0,53,96,0
0,72,107,0
0,36,90,2
0,41,122,0
0,69,82,0
0,72,86,0
0,77,75,0
0,57,105,4
0,79,127,2
0,72,98,4
0,69,102,2
0,79,111,0
0,77,71,2
0,69,107,20
0,65,98,2
0,72,94,2
0,60,60,2
0,57,34,4
0,79,50,4
0,65,61,2
0,77,120,24
0,72,111,2
0,77,68,2
0,54,105,84
0,69,95,0
0,76,75,2
0,72,105,2
0,76,109,2
0,69,105,2
0,36,90,12
0,41,111,0
0,36,90,12
0,41,122,0
0,74,122,6
0,69,120,2
0,74,71,4
0,69,102,4
0,72,105,14
0,72,59,6
0,65,34,2
0,69,88,0
0,69,102,14
0,53,60,14
0,57,57,4
0,60,62,4
0,36,90,8
0,41,122,0
0,72,100,0
0,77,77,0
0,60,107,2
0,72,122,0
0,53,94,4
0,72,107,0
0,57,86,2
0,69,120,0
0,79,86,0
0,65,111,2
0,79,127,4
0,77,107,40
0,77,75,2
0,54,105,10
0,69,95,0
0,76,118,40
0,76,75,0
0,36,90,18
0,41,113,0
0,74,122,14
0,69,113,2
0,36,90,10
0,41,122,0
0,74,75,14
0,69,102,34
0,65,54,2
0,77,98,12
0,72,106,2
0,68,102,2
0,76,125,6
0,53,92,2
0,36,90,8
0,29,125,0
0,56,118,0
0,72,92,0
0,68,86,0
0,72,93,0
0,60,94,2
0,68,109,0
0,65,96,2
0,60,64,6
0,56,80,6
0,56,107,2
0,76,80,0
0,53,60,4
0,77,118,10
0,77,82,12
0,76,120,22
0,76,68,2
0,54,105,4
0,69,95,0
0,77,109,2
0,77,68,10
0,36,90,2
0,29,113,0
0,76,111,0
0,76,56,12
0,36,90,8
0,29,116,0
0,72,102,16
0,72,75,0
0,68,125,8
0,68,71,4
0,69,102,6
0,72,118,18
0,72,113,6
0,69,111,0
0,76,116,0
0,72,65,0
0,64,44,20
0,52,59,12
0,57,62,16
0,69,107,26
0,57,96,4
0,72,90,0
0,64,102,2
0,57,118,16
0,52,107,2
0,60,107,2
0,60,48,8
0,36,90,8
0,33,111,0
0,69,86,0
0,72,102,0
0,54,105,2
0,69,95,0
0,36,90,2
0,33,113,0
0,36,90,2
0,33,119,0
0,64,109,6
0,69,107,18
0,69,102,4
0,72,105,4
0,72,68,2
0,68,84,30
0,72,90,0
0,75,69,0
0,56,88,6
0,60,100,4
0,72,100,2
0,72,104,2
0,80,96,0
0,63,81,2
0,75,85,0
0,56,84,2
0,51,59,0
0,68,92,0
0,77,82,0
0,68,96,0
0,77,111,2
0,60,59,0
0,63,102,2
0,56,60,2
0,75,85,4
0,36,90,2
0,32,113,0
0,63,58,2
0,75,125,54
0,75,71,16
0,54,105,26
0,69,95,0
0,74,125,20
0,74,65,24
0,36,90,18
0,32,111,0
0,72,107,0
0,36,90,10
0,32,113,0
0,72,68,10
0,69,102,54
0,72,73,14
0,72,115,4
0,77,56,34
0,68,80,54
0,72,90,0
0,72,98,0
0,80,96,2
0,75,79,2
0,60,105,22
0,63,100,2
0,56,81,2
0,36,90,2
0,32,113,0
0,77,107,0
0,75,41,0
0,87,83,8
0,80,80,4
0,84,83,8
0,75,127,36
0,54,105,20
0,69,95,0
0,75,53,10
0,74,122,4
0,36,90,18
0,32,108,0
0,74,53,10
0,72,53,22
0,36,90,8
0,32,116,0
0,72,125,8
0,69,102,2
0,55,52,52
0,55,102,4
0,58,98,0
0,62,96,2
0,74,122,2
0,58,56,6
0,82,90,4
0,74,84,2
0,36,90,2
0,31,122,0
0,79,102,0
0,82,96,0
0,67,80,0
0,70,100,0
0,74,86,0
0,62,47,2
0,86,104,0
0,74,77,0
0,74,93,0
0,79,106,2
0,75,50,0
0,74,73,8
0,54,105,20
0,69,95,0
0,75,53,2
0,36,90,10
0,31,116,0
0,74,68,6
0,36,90,18
0,31,125,0
0,70,68,10
0,58,61,6
0,62,57,0
0,67,77,0
0,70,86,0
0,74,80,0
0,69,102,2
0,72,77,6
0,29,127,2
0,57,61,0
0,53,63,0
0,57,65,0
0,60,65,0
0,69,95,0
0,72,93,0
0,60,58,6
0,57,127,4
0,53,44,0
0,65,127,2
0,60,127,2
0,81,106,4
0,81,90,2
0,77,111,0
0,86,111,0
0,57,94,4
0,84,120,0
0,53,94,2
0,69,69,22
0,79,80,8
0,81,96,2
0,54,105,4
0,69,95,0
0,72,105,0
0,84,102,6
0,76,77,0
0,29,119,18
0,72,97,0
0,79,71,8
0,84,98,18
0,84,98,4
0,29,122,4
0,81,94,12
0,62,76,6
0,86,109,0
0,53,69,0
0,57,71,0
0,62,61,0
0,65,82,0
0,69,84,0
0,74,82,0
0,69,102,14
0,42,80,40
0,36,90,0
0,34,125,0
0,74,76,0
0,77,109,0
0,74,93,0
0,77,91,0
0,82,85,0
0,82,127,8
0,53,61,14
0,62,60,4
0,58,58,2
0,86,111,2
0,65,122,134
0,42,80,0
0,62,120,0
0,70,120,0
0,82,105,16
0,70,111,30
0,65,115,2
0,42,80,0
0,62,109,0
0,82,98,6
0,65,115,36
0,70,120,2
0,42,80,2
0,36,90,0
0,34,113,0
0,62,105,0
0,82,107,2
0,62,78,10
0,69,127,8
0,42,80,2
0,42,80,0
0,36,90,0
0,34,119,0
0,81,94,0
0,67,120,12
0,79,86,4
0,65,113,6
0,37,127,0
