track,note,velocity,time
0,42,84,0
0,42,88,85
0,42,88,85
0,42,92,85
0,36,83,85
0,40,52,37
0,40,40,5
0,40,40,5
0,40,75,5
0,36,81,13
0,40,75,61
0,40,46,13
0,40,75,13
0,40,49,13
0,40,75,13
0,36,75,13
0,27,88,61
0,70,44,0
0,66,52,0
0,61,42,0
0,51,48,0
0,58,44,0
0,54,35,0
0,61,48,0
0,65,50,0
0,82,80,0
0,42,75,0
0,36,85,0
0,42,25,11
0,70,50,2
0,66,40,0
0,61,44,0
0,42,40,0
0,42,66,11
0,75,64,3
0,42,46,0
0,40,75,0
0,70,26,3
0,66,44,0
0,61,32,0
0,42,59,0
0,73,48,1
0,42,44,0
0,27,62,13
0,58,23,0
0,42,23,0
0,36,47,0
0,27,76,11
0,70,34,0
0,66,27,0
0,42,75,0
0,36,74,0
0,42,11,2
0,42,51,1
0,42,58,3
0,42,69,5
0,40,75,0
0,42,25,1
0,42,58,4
0,42,18,1
0,34,66,8
0,68,42,0
0,63,40,0
0,60,46,0
0,56,40,0
0,53,54,0
0,63,56,0
0,60,52,0
0,42,75,0
0,36,85,0
0,42,10,1
0,42,40,1
0,42,56,13
0,42,75,12
0,40,75,0
0,42,15,5
0,70,46,13
0,65,62,0
0,62,56,0
0,60,52,0
0,65,40,0
0,62,25,0
0,42,44,0
0,41,60,13
0,42,23,0
0,36,47,0
0,46,68,1
0,42,75,0
0,36,62,0
0,42,13,13
0,68,80,13
0,42,51,0
0,41,64,6
0,42,58,0
0,34,54,9
0,70,64,0
0,42,69,0
0,40,75,0
0,70,32,13
0,65,50,0
0,62,70,0
0,42,25,0
0,73,54,5
0,46,59,0
0,27,66,6
0,70,36,0
0,66,40,0
0,61,36,0
0,51,50,0
0,54,42,0
0,61,50,0
0,58,50,0
0,65,52,0
0,80,66,0
0,42,75,0
0,36,85,0
0,42,6,9
0,70,44,13
0,66,50,0
0,61,44,0
0,42,32,0
0,42,56,8
0,75,76,12
0,42,75,0
0,40,75,0
0,70,56,1
0,66,46,0
0,61,52,0
0,42,13,0
0,42,44,11
0,27,56,2
0,58,14,0
0,42,23,0
0,36,56,0
0,27,66,11
0,70,46,0
0,66,32,0
0,61,44,0
0,73,76,0
0,42,75,0
0,36,68,0
0,42,13,3
0,42,51,13
0,42,58,13
0,68,68,13
0,42,69,0
0,40,75,0
0,42,13,1
0,42,58,13
0,42,18,7
0,34,68,2
0,68,34,0
0,63,36,0
0,60,52,0
0,63,56,0
0,60,58,0
0,56,40,0
0,53,42,0
0,42,75,0
0,36,85,0
0,42,10,1
0,42,40,2
0,42,56,1
0,42,75,2
0,40,75,0
0,42,8,3
0,37,84,1
0,71,58,0
0,66,36,0
0,63,56,0
0,63,54,0
0,66,54,0
0,59,60,0
0,56,42,0
0,49,29,0
0,42,44,0
0,42,23,1
0,36,52,0
0,42,75,13
0,36,66,0
0,42,17,13
0,68,80,13
0,42,51,0
0,42,58,2
0,38,72,8
0,70,68,0
0,42,69,0
0,40,65,0
0,36,69,0
0,71,54,12
0,66,34,0
0,63,56,0
0,42,11,0
0,73,62,6
0,46,51,0
0,27,64,11
0,70,44,0
0,66,44,0
0,61,42,0
0,51,50,0
0,54,44,0
0,58,54,0
0,61,52,0
0,65,27,0
0,82,76,0
0,42,75,0
0,36,85,0
0,42,25,12
0,70,40,13
0,66,48,0
0,61,38,0
0,42,40,0
0,42,66,12
0,58,18,9
0,75,72,0
0,42,46,0
0,40,75,0
0,70,42,1
0,66,27,0
0,61,29,0
0,42,59,0
0,73,72,9
0,42,44,0
0,27,60,13
0,58,32,0
0,42,23,0
0,36,47,0
0,27,80,12
0,70,38,0
0,66,34,0
0,61,23,0
0,42,75,0
0,36,74,0
0,42,11,9
0,42,51,1
0,42,58,2
0,42,69,2
0,40,75,0
0,42,25,2
0,42,58,1
0,42,18,9
0,34,56,13
0,68,46,0
0,63,46,0
0,60,48,0
0,56,52,0
0,60,62,0
0,63,54,0
0,42,75,0
0,36,85,0
0,42,10,13
0,42,40,13
0,42,56,1
0,42,75,1
0,40,75,0
0,42,15,6
0,41,56,3
0,70,44,0
0,65,56,0
0,62,62,0
0,56,31,0
0,53,48,0
0,65,44,0
0,62,50,0
0,42,44,0
0,46,58,8
0,42,23,0
0,36,47,0
0,42,75,13
0,36,62,0
0,41,58,13
0,42,13,0
0,34,44,12
0,85,50,0
0,73,22,0
0,42,51,0
0,87,34,13
0,75,54,0
0,42,58,0
0,29,68,13
0,89,38,0
0,77,26,0
0,42,69,0
0,40,75,0
0,90,50,4
0,78,38,0
0,42,25,0
0,34,52,13
0,92,58,0
0,80,38,0
0,46,59,0
0,94,42,13
0,32,68,2
0,66,52,0
0,61,56,0
0,58,50,0
0,58,58,0
0,68,60,0
0,44,38,0
0,61,62,0
0,92,58,0
0,80,32,0
0,42,75,0
0,36,85,0
0,42,6,13
0,42,32,13
0,42,56,13
0,42,75,13
0,40,75,0
0,56,46,5
0,42,13,0
0,32,58,11
0,68,54,0
0,63,26,0
0,60,46,0
0,63,48,0
0,60,58,0
0,46,55,0
0,36,56,13
0,42,75,13
0,36,68,0
0,42,13,13
0,42,51,13
0,42,58,13
0,89,36,9
0,77,36,0
0,42,69,0
0,40,75,0
0,90,38,13
0,78,24,0
0,42,13,0
0,92,34,2
0,80,30,0
0,42,58,0
0,94,36,13
0,82,24,0
0,42,18,0
0,32,54,6
0,66,40,0
0,61,52,0
0,58,52,0
0,68,52,0
0,44,38,0
0,58,39,0
0,61,58,0
0,92,46,0
0,80,34,0
0,42,75,0
0,36,85,0
0,42,10,13
0,42,40,13
0,42,56,13
0,42,75,13
0,40,75,0
0,54,40,6
0,42,8,0
0,32,64,12
0,68,56,0
0,63,44,0
0,60,56,0
0,63,50,0
0,60,50,0
0,46,75,0
0,36,52,13
0,42,75,8
0,36,66,0
0,32,54,9
0,42,17,0
0,33,66,13
0,42,51,0
0,40,40,1
0,34,68,4
0,40,75,0
0,37,64,4
0,46,51,0
0,39,66,13
0,27,66,5
0,70,44,0
0,66,36,0
0,61,42,0
0,77,56,0
0,66,42,0
0,58,37,0
0,61,30,0
0,70,52,0
0,51,12,0
0,42,75,0
0,36,85,0
0,70,30,34
0,66,40,0
0,61,50,0
0,42,35,0
0,70,84,5
0,42,49,0
0,40,75,0
0,70,30,2
0,66,42,0
0,61,30,0
0,42,37,1
0,61,29,13
0,30,66,15
0,70,38,0
0,66,52,0
0,61,54,0
0,42,75,0
0,36,85,0
0,70,64,21
0,42,44,0
0,31,66,37
0,42,54,0
0,40,75,0
0,71,64,13
0,42,37,21
0,32,66,37
0,66,32,0
0,61,44,0
0,68,56,0
0,73,38,0
0,61,36,0
0,56,40,0
0,58,35,0
0,66,28,0
0,70,26,0
0,42,75,0
0,36,85,0
0,70,52,34
0,66,52,0
0,61,50,0
0,42,44,0
0,42,56,8
0,40,75,0
0,70,28,13
0,66,38,0
0,61,30,0
0,42,39,14
0,32,66,37
0,70,48,0
0,66,50,0
0,61,58,0
0,42,75,0
0,36,85,0
0,68,84,4
0,42,46,0
0,33,68,2
0,42,52,0
0,40,75,0
0,66,48,12
0,42,39,23
0,34,66,6
0,68,50,0
0,63,30,0
0,60,48,0
0,65,52,0
0,68,52,0
0,63,52,0
0,60,38,0
0,56,40,0
0,46,20,0
0,42,75,0
0,36,85,0
0,68,52,33
0,63,42,0
0,60,52,0
0,42,44,0
0,68,72,11
0,42,58,12
0,40,75,0
0,68,52,13
0,63,22,0
0,60,40,0
0,70,44,1
0,42,35,0
0,34,44,2
0,60,27,0
0,34,80,9
0,68,52,0
0,63,36,0
0,60,46,0
0,70,66,0
0,42,75,0
0,36,85,0
0,42,47,16
0,80,66,2
0,42,59,0
0,40,75,0
0,65,54,37
0,77,72,0
0,42,44,0
0,34,68,2
0,68,44,0
0,63,42,0
0,60,40,0
0,42,75,0
0,36,85,0
0,68,48,4
0,63,36,0
0,60,44,0
0,42,37,0
0,42,51,1
0,40,75,0
0,41,58,7
0,68,50,0
0,63,34,0
0,60,46,0
0,46,80,4
0,42,40,0
0,60,24,4
0,34,66,3
0,68,50,0
0,63,36,0
0,60,44,0
0,42,75,0
0,36,85,0
0,42,40,32
0,37,84,3
0,42,54,0
0,40,75,0
0,39,62,3
0,46,70,0
0,27,66,5
0,70,15,0
0,66,30,0
0,61,44,0
0,58,44,0
0,61,37,0
0,51,44,0
0,54,33,0
0,42,75,0
0,36,85,0
0,70,44,32
0,66,50,0
0,61,56,0
0,42,35,0
0,72,84,27
0,42,49,0
0,40,75,0
0,70,40,13
0,66,36,0
0,61,38,0
0,42,37,11
0,27,54,37
0,70,50,0
0,66,38,0
0,61,52,0
0,72,80,0
0,42,75,0
0,36,85,0
0,42,44,9
0,27,58,13
0,29,66,24
0,73,66,0
0,42,54,0
0,40,75,0
0,30,54,31
0,68,84,0
0,42,37,0
0,32,64,3
0,70,30,0
0,66,36,0
0,61,50,0
0,54,46,0
0,58,52,0
0,61,56,0
0,65,62,0
0,42,75,0
0,36,85,0
0,70,44,32
0,66,32,0
0,61,44,0
0,68,54,0
0,42,44,0
0,42,56,1
0,40,75,0
0,70,13,2
0,66,26,0
0,61,40,0
0,42,39,11
0,61,25,1
0,32,62,14
0,70,50,0
0,66,50,0
0,61,48,0
0,68,88,0
0,42,75,0
0,36,85,0
0,42,46,31
0,33,68,6
0,66,64,0
0,42,52,0
0,40,75,0
0,42,39,37
0,34,56,6
0,68,50,0
0,63,36,0
0,60,52,0
0,65,62,0
0,46,32,0
0,60,37,0
0,56,31,0
0,63,36,0
0,42,75,0
0,36,85,0
0,68,42,25
0,63,32,0
0,60,36,0
0,42,44,0
0,68,84,5
0,42,58,4
0,40,75,0
0,68,40,13
0,63,29,0
0,60,38,0
0,70,68,13
0,42,35,0
0,34,76,25
0,68,54,0
0,63,46,0
0,60,44,0
0,70,62,0
0,42,75,0
0,36,85,0
0,42,47,1
0,41,58,13
0,46,56,4
0,70,58,0
0,42,59,0
0,40,75,0
0,65,64,1
0,42,44,0
0,41,64,1
0,34,72,1
0,68,32,0
0,63,42,0
0,60,46,0
0,80,60,0
0,68,38,0
0,42,75,0
0,36,85,0
0,68,44,3
0,63,44,0
0,60,44,0
0,42,37,0
0,78,66,2
0,66,60,0
0,42,51,0
0,40,75,0
0,68,26,4
0,60,36,0
0,42,40,1
0,60,44,13
0,34,84,7
0,68,44,0
0,63,38,0
0,60,48,0
0,77,64,0
0,65,58,0
0,42,75,0
0,36,85,0
0,41,60,8
0,34,80,2
0,42,40,0
0,32,66,33
0,75,68,0
0,63,54,0
0,42,54,0
0,40,54,0
0,36,75,0
0,39,76,2
0,32,54,3
0,46,70,0
0,30,66,1
0,70,46,0
0,65,62,0
0,61,44,0
0,73,44,0
0,61,46,0
0,70,44,0
0,65,36,0
0,42,75,0
0,36,85,0
0,70,40,24
0,65,40,0
0,61,50,0
0,42,35,0
0,73,84,12
0,42,49,0
0,40,75,0
0,70,44,13
0,65,50,0
0,61,42,0
0,73,88,9
0,42,37,0
0,30,54,13
0,30,72,12
0,70,50,0
0,65,46,0
0,61,42,0
0,42,75,0
0,36,85,0
0,75,66,37
0,82,68,0
0,70,36,0
0,42,44,0
0,42,54,10
0,40,75,0
0,68,84,27
0,42,37,0
0,29,66,17
0,68,44,0
0,63,44,0
0,60,52,0
0,68,44,0
0,63,56,0
0,42,75,0
0,36,85,0
0,68,46,35
0,63,46,0
0,60,32,0
0,42,44,0
0,42,56,5
0,40,75,0
0,68,52,1
0,63,32,0
0,60,48,0
0,29,72,1
0,42,39,0
0,60,30,1
0,29,68,2
0,68,62,0
0,63,38,0
0,60,46,0
0,42,75,0
0,36,85,0
0,80,62,12
0,42,46,0
0,42,52,8
0,40,75,0
0,29,62,1
0,42,39,0
0,35,80,2
0,70,15,0
0,66,30,0
0,63,34,0
0,59,52,0
0,63,60,0
0,66,60,0
0,58,31,0
0,42,75,0
0,36,85,0
0,70,22,35
0,66,34,0
0,63,42,0
0,59,54,0
0,42,44,0
0,73,84,34
0,42,58,0
0,40,75,0
0,70,52,13
0,66,20,0
0,63,42,0
0,59,48,0
0,73,80,4
0,42,35,0
0,59,20,13
0,35,68,13
0,70,46,0
0,66,38,0
0,63,38,0
0,59,46,0
0,42,75,0
0,36,85,0
0,75,84,22
0,42,47,0
0,35,60,13
0,30,66,3
0,42,59,0
0,40,75,0
0,32,54,35
0,31,68,0
0,68,84,0
0,42,44,0
0,32,84,5
0,68,50,0
0,65,24,0
0,61,52,0
0,58,46,0
0,44,50,0
0,54,35,0
0,61,56,0
0,58,48,0
0,68,50,0
0,42,75,0
0,36,85,0
0,32,58,1
0,68,54,0
0,65,44,0
0,61,50,0
0,58,42,0
0,68,72,0
0,42,37,0
0,39,64,26
0,73,50,0
0,42,51,0
0,40,75,0
0,68,50,1
0,65,38,0
0,61,56,0
0,58,44,0
0,75,56,0
0,44,64,8
0,70,46,0
0,80,46,0
0,42,40,0
0,58,34,7
0,32,52,14
0,68,46,0
0,65,40,0
0,61,56,0
0,58,44,0
0,42,75,0
0,36,85,0
0,40,75,0
0,32,76,34
0,73,84,0
0,42,40,0
0,32,80,22
0,73,92,0
0,92,62,0
0,89,62,0
0,42,54,0
0,40,75,0
0,87,64,1
0,85,66,0
0,70,60,9
0,78,46,0
0,82,58,0
0,75,62,0
0,46,70,0
0,73,64,6
0,39,84,4
0,61,32,0
0,58,50,0
0,54,54,0
0,73,88,0
0,77,56,0
0,65,62,0
0,58,62,0
0,61,64,0
0,54,56,0
0,36,85,0
0,42,90,2
0,41,66,2
0,63,54,0
0,60,54,0
0,56,34,0
0,75,72,0
0,68,60,0
0,80,64,0
0,56,54,0
0,60,64,0
0,63,54,0
0,40,75,0
0,42,90,27
0,42,64,2
0,65,56,0
0,61,54,0
0,58,52,0
0,75,88,0
0,82,62,0
0,70,52,0
0,65,76,0
0,61,62,0
0,58,64,0
0,36,85,0
0,42,90,7
0,40,75,36
0,73,84,37
0,42,90,0
0,80,92,37
0,36,85,0
0,80,76,29
0,42,90,0
0,80,68,13
0,78,88,5
0,40,75,0
0,42,90,9
0,78,68,13
0,75,84,8
0,36,85,0
0,75,68,1
0,42,90,0
0,40,75,1
0,42,90,9
0,39,80,2
0,61,46,0
0,58,46,0
0,54,36,0
0,73,88,0
0,58,66,0
0,54,48,0
0,61,66,0
0,51,48,0
0,77,76,0
0,65,52,0
0,61,66,0
0,58,64,0
0,54,56,0
0,36,85,0
0,42,75,0
0,42,56,37
0,41,72,1
0,63,46,0
0,60,56,0
0,56,44,0
0,75,76,0
0,63,62,0
0,56,54,0
0,60,56,0
0,80,76,0
0,68,72,0
0,56,50,0
0,63,58,0
0,60,58,0
0,36,69,0
0,40,75,0
0,42,75,0
0,42,56,19
0,42,64,9
0,65,52,0
0,61,54,0
0,58,52,0
0,77,88,0
0,61,64,0
0,65,72,0
0,82,60,0
0,70,50,0
0,65,72,0
0,61,66,0
0,58,62,0
0,36,85,0
0,42,75,0
0,42,54,1
0,43,56,2
0,65,56,0
0,61,52,0
0,58,38,0
0,55,46,0
0,78,72,0
0,72,72,0
0,84,60,0
0,65,66,0
0,55,64,0
0,61,60,0
0,58,44,0
0,36,85,0
0,45,75,0
0,44,64,1
0,63,50,0
0,60,62,0
0,56,54,0
0,78,84,0
0,54,44,0
0,61,56,0
0,63,62,0
0,80,62,0
0,68,64,0
0,60,64,0
0,56,60,0
0,63,58,0
0,36,66,0
0,43,75,0
0,49,65,0
0,60,50,11
0,32,48,10
0,32,66,24
0,36,85,0
0,32,62,10
0,36,85,0
0,68,80,37
0,32,76,15
0,70,84,0
0,80,95,0
0,92,95,0
0,42,75,0
0,36,90,0
0,78,41,1
0,90,41,0
0,89,38,1
0,77,38,0
0,87,35,1
0,75,35,0
0,85,32,1
0,73,32,0
0,84,29,1
0,72,29,0
0,73,62,1
0,82,27,0
0,70,27,0
0,46,75,0
0,68,24,1
