track,note,velocity,time
1,33,74,2652
1,38,86,576
1,38,74,100
1,40,74,4
1,33,76,152
1,38,74,0
1,38,72,140
1,40,74,576
1,28,66,144
1,31,66,8
1,33,68,96
1,33,72,280
1,28,74,236
1,28,74,124
1,28,86,148
1,26,76,152
1,28,74,248
1,28,72,132
1,28,62,148
1,26,78,148
1,28,68,116
1,31,68,16
1,33,74,96
1,28,72,316
1,28,74,144
1,28,72,152
1,26,76,160
1,28,68,192
1,28,68,128
1,28,72,144
1,26,66,16
1,26,64,108
1,29,78,8
1,31,74,0
1,31,70,144
1,31,72,144
1,29,90,768
1,29,64,168
1,29,74,120
1,31,76,768
1,31,66,124
1,31,76,144
1,33,66,672
1,28,78,92
1,28,64,192
1,28,68,124
1,33,68,24
1,33,68,192
1,28,70,96
1,26,72,4
1,26,64,140
1,33,66,96
1,32,52,76
1,31,64,84
1,35,66,124
1,38,72,4
1,36,74,96
1,31,49,124
1,36,62,12
1,28,74,0
1,33,68,12
1,31,68,96
1,29,64,84
1,36,54,4
1,41,76,16
1,33,70,20
1,35,70,192
1,40,90,752
1,33,72,12
1,38,72,384
1,33,74,380
1,40,60,8
1,45,74,16
1,40,66,288
1,38,74,8
1,29,62,480
1,33,64,84
1,32,62,88
1,31,66,80
1,35,64,188
1,38,64,0
1,43,70,4
1,35,72,32
1,35,64,48
1,36,70,0
1,28,68,20
1,31,60,96
1,30,62,88
1,29,68,92
1,41,68,372
1,33,56,112
1,35,70,4
1,40,76,768
1,33,68,4
1,35,62,12
1,38,66,20
1,40,64,20
1,38,62,8
1,35,66,24
1,28,70,32
1,40,74,96
1,28,70,184
1,33,72,4
1,38,76,24
1,38,70,104
1,40,70,4
1,33,66,156
1,36,58,24
1,38,82,96
1,38,60,532
1,38,70,56
1,40,74,388
1,38,78,288
1,38,58,540
1,38,76,64
1,38,70,388
1,28,64,20
1,31,72,96
1,33,78,92
1,33,49,540
1,33,86,52
1,38,74,428
1,40,60,96
1,31,74,16
1,31,54,512
1,31,72,52
1,31,48,376
1,35,72,20
1,36,68,4
1,38,76,4
1,38,56,528
1,38,74,60
1,40,76,352
1,38,74,288
1,38,50,492
1,38,78,56
1,38,74,376
1,28,64,16
1,31,66,28
1,33,72,96
1,33,66,488
1,33,76,64
1,33,45,352
1,33,70,64
1,38,70,16
1,40,72,24
1,28,52,48
1,35,74,96
1,40,72,84
1,28,62,4
1,28,64,36
1,35,70,192
1,40,76,12
1,28,50,32
1,35,66,96
1,33,74,88
1,33,70,180
1,38,74,12
1,29,48,156
1,33,52,8
1,32,60,96
1,31,68,24
1,43,72,72
1,31,47,20
1,35,74,96
1,36,74,184
1,28,62,44
1,31,74,20
1,30,70,96
1,29,66,16
1,36,56,84
1,41,78,96
1,33,62,12
1,36,64,20
1,35,68,96
1,40,78,736
1,33,76,736
1,38,78,4
1,33,66,384
1,45,74,60
1,33,52,108
1,40,74,96
1,38,78,88
1,29,62,108
1,33,68,20
1,31,64,96
1,35,62,100
1,38,72,8
1,36,66,8
1,28,64,0
1,31,70,16
1,30,74,96
1,29,64,8
1,33,68,124
1,36,64,96
1,35,68,92
1,40,70,764
1,33,62,64
1,35,68,8
1,38,62,12
1,40,56,0
1,33,54,4
1,38,70,8
1,38,70,116
1,40,70,576
1,33,72,8
1,38,66,84
1,38,74,140
1,40,72,576
1,28,54,88
1,31,70,20
1,33,62,16
1,28,46,36
1,33,74,96
1,33,70,208
1,38,64,4
1,31,62,36
1,33,56,20
1,36,68,16
1,38,68,0
1,40,72,372
1,28,56,72
1,31,64,96
1,33,60,8
1,28,56,16
1,33,76,0
1,33,46,108
1,33,50,32
1,33,76,60
1,33,38,36
1,38,74,32
1,38,64,72
1,31,50,12
1,33,64,36
1,38,72,192
1,40,74,216
1,28,64,136
1,30,54,96
1,31,52,24
1,28,47,8
1,33,68,24
1,45,72,304
1,43,74,0
1,38,74,132
1,48,76,108
1,50,90,8
1,38,64,140
1,38,70,184
1,33,54,0
1,40,76,96
1,40,74,96
1,28,52,8
1,30,58,96
1,31,72,20
1,28,44,8
1,33,72,20
1,33,32,96
1,45,72,192
1,38,76,0
1,48,86,96
1,50,64,20
1,38,66,124
1,38,68,152
1,33,49,16
1,38,72,8
1,40,72,8
1,28,68,76
1,31,64,72
1,30,31,0
1,28,62,28
1,33,66,28
1,33,62,196
1,43,74,4
1,45,76,16
1,38,90,32
1,50,78,384
1,48,54,240
1,50,78,96
1,38,68,140
1,38,68,256
1,33,54,0
1,40,76,96
1,28,66,140
1,30,52,96
1,31,60,32
1,28,14,40
1,33,78,24
1,33,37,212
1,43,76,16
1,45,74,16
1,38,76,96
1,50,90,256
1,48,64,240
1,50,76,16
1,38,66,140
1,40,64,336
1,28,76,104
1,30,56,96
1,31,56,12
1,28,46,20
1,33,66,12
1,33,47,148
1,43,74,12
1,45,86,20
1,38,66,44
1,50,94,232
1,48,64,244
1,50,76,8
1,38,76,148
1,40,66,280
1,28,56,140
1,30,68,96
1,31,68,24
1,28,50,24
1,33,54,24
1,45,86,0
1,45,78,244
1,38,64,236
1,50,94,24
1,48,74,228
1,50,76,12
1,38,76,156
1,40,62,324
1,52,94,100
1,31,72,8
1,32,62,96
1,33,74,4
1,38,74,300
1,50,62,384
1,48,74,220
1,50,82,16
1,38,66,148
1,40,72,236
1,28,68,172
1,28,78,48
1,28,76,44
1,28,52,48
1,33,74,12
1,40,54,192
1,38,66,192
1,38,68,148
1,40,68,96
1,28,62,96
1,31,66,32
1,28,64,0
1,33,76,8
1,40,66,96
1,38,66,4
1,38,74,96
1,40,72,192
1,28,66,64
1,30,60,96
1,31,50,20
1,28,47,4
1,33,66,4
1,33,49,24
1,38,74,192
1,45,60,192
1,50,54,16
1,52,70,32
1,50,72,32
1,45,74,96
1,33,24,64
1,38,72,72
1,45,66,192
1,38,62,12
1,40,76,36
1,40,26,96
1,28,66,32
1,30,78,96
1,31,64,24
1,28,54,12
1,33,72,20
1,40,72,96
1,38,66,12
1,33,64,96
1,38,68,24
1,40,74,96
1,28,74,96
1,30,64,60
1,31,56,84
1,28,70,4
1,33,74,96
1,33,46,96
1,40,74,96
1,38,72,8
1,45,58,96
1,50,68,28
1,52,78,28
1,50,56,12
1,45,68,0
1,33,45,96
1,38,66,92
1,45,54,96
1,38,72,96
1,40,76,20
1,28,72,28
1,30,62,8
1,31,50,96
1,28,70,20
1,33,66,96
1,40,66,192
1,38,72,8
1,50,82,96
1,48,60,96
1,50,66,24
1,38,78,96
1,40,74,96
1,28,78,68
1,30,68,96
1,31,70,8
1,28,72,8
1,33,78,96
1,40,66,192
1,38,78,0
1,38,86,44
1,50,94,192
1,48,66,192
1,50,86,20
1,38,86,144
1,40,76,192
1,28,76,192
1,30,60,8
1,31,52,0
1,28,72,8
2,64,66,2632
2,61,62,0
2,56,70,0
2,54,50,0
2,52,70,0
2,45,66,0
2,64,68,16
2,60,66,0
2,57,58,0
2,53,60,0
2,52,54,0
2,50,49,0
2,57,64,756
2,72,82,192
2,69,82,0
2,64,78,0
2,60,39,0
2,71,49,4
2,67,64,0
2,62,56,0
2,59,48,0
2,55,54,0
2,52,39,0
2,67,72,196
2,62,64,0
2,59,68,0
2,62,78,136
2,59,76,0
2,55,62,0
2,52,56,96
2,64,68,4
2,61,58,0
2,59,62,0
2,57,68,0
2,45,56,0
2,64,74,236
2,60,66,0
2,57,70,0
2,53,74,0
2,50,72,0
2,50,34,356
2,72,94,192
2,69,94,0
2,68,45,0
2,65,82,0
2,64,76,0
2,60,64,0
2,71,72,0
2,67,68,0
2,62,76,0
2,59,58,0
2,52,70,0
2,62,64,280
2,59,39,0
2,64,66,136
2,57,56,0
2,45,66,0
2,67,76,80
2,72,94,20
2,64,66,8
2,66,64,36
2,57,52,0
2,54,48,0
2,74,70,112
2,69,82,8
2,71,64,0
2,64,70,0
2,55,58,0
2,52,54,0
2,45,50,0
2,67,72,8
2,72,98,4
2,64,58,8
2,66,52,28
2,57,48,0
2,54,49,0
2,74,70,92
2,69,74,0
2,71,72,0
2,64,70,136
2,55,62,0
2,52,56,0
2,45,49,0
2,72,82,108
2,67,54,156
2,64,72,8
2,66,66,20
2,57,50,0
2,54,46,0
2,74,58,112
2,69,64,192
2,71,78,48
2,64,54,12
2,55,45,0
2,52,48,0
2,45,47,0
2,72,70,100
2,67,70,108
2,64,58,0
2,71,68,12
2,67,56,0
2,62,68,0
2,59,58,0
2,52,41,0
2,71,78,60
2,67,82,0
2,62,78,0
2,59,56,0
2,52,66,0
2,71,78,96
2,67,82,0
2,62,78,0
2,59,50,0
2,52,64,0
2,69,72,72
2,65,64,0
2,64,52,0
2,60,52,0
2,57,68,0
2,50,64,0
2,69,46,128
2,65,41,0
2,60,33,0
2,57,44,0
2,71,70,188
2,67,78,192
2,62,68,8
2,67,70,8
2,62,76,0
2,59,64,0
2,52,56,0
2,67,78,40
2,62,82,0
2,59,68,0
2,52,60,0
2,67,76,84
2,62,72,0
2,59,49,0
2,52,60,0
2,65,72,8
2,60,54,0
2,57,66,0
2,50,64,0
2,65,68,176
2,60,68,0
2,57,54,0
2,67,76,172
2,62,78,0
2,59,70,0
2,64,58,8
2,60,56,0
2,59,50,0
2,57,56,0
2,52,48,0
2,45,56,0
2,67,58,212
2,64,72,8
2,66,72,8
2,74,52,152
2,69,64,8
2,71,66,192
2,64,68,4
2,72,68,8
2,67,66,36
2,64,58,8
2,71,64,16
2,67,74,0
2,62,74,0
2,59,58,0
2,52,45,0
2,71,74,60
2,67,78,0
2,62,78,0
2,59,68,0
2,52,68,0
2,71,78,112
2,67,82,0
2,62,74,0
2,59,64,0
2,52,72,0
2,69,70,12
2,65,70,0
2,60,68,0
2,57,66,0
2,50,72,0
2,38,42,148
2,69,62,48
2,65,68,0
2,60,47,0
2,53,41,0
2,60,68,140
2,53,46,0
2,67,70,8
2,62,74,0
2,59,50,0
2,55,52,0
2,40,66,0
2,67,76,48
2,62,78,0
2,59,72,0
2,55,52,0
2,40,82,0
2,67,78,100
2,62,66,0
2,59,68,0
2,55,66,0
2,40,76,0
2,65,82,4
2,60,72,0
2,57,74,0
2,53,64,0
2,38,72,0
2,53,43,108
2,65,78,20
2,60,78,0
2,57,76,0
2,53,56,0
2,67,78,16
2,62,82,0
2,59,76,0
2,55,82,0
2,50,70,0
2,43,70,0
2,50,47,88
2,67,72,148
2,62,68,0
2,59,68,0
2,60,64,196
2,57,66,0
2,55,62,0
2,48,64,0
2,41,50,0
2,64,82,132
2,60,78,0
2,57,90,0
2,55,56,0
2,62,56,0
2,59,68,0
2,57,66,0
2,55,56,0
2,43,62,0
2,57,58,204
2,59,47,96
2,74,82,96
2,67,76,0
2,71,72,4
2,69,70,0
2,64,74,0
2,62,60,0
2,57,52,0
2,52,66,0
2,57,70,0
2,62,64,52
2,64,58,96
2,76,82,96
2,69,90,0
2,71,64,56
2,69,76,0
2,64,70,0
2,62,74,0
2,64,74,208
2,61,66,0
2,59,74,0
2,57,68,0
2,52,68,0
2,64,66,0
2,60,70,0
2,57,68,0
2,53,64,0
2,50,66,0
2,50,47,140
2,69,74,44
2,65,68,0
2,60,45,0
2,53,50,0
2,43,64,0
2,67,70,96
2,62,68,0
2,55,49,0
2,64,66,240
2,59,56,0
2,48,54,0
2,64,78,144
2,60,66,0
2,57,64,0
2,53,62,0
2,62,62,0
2,57,66,0
2,54,60,0
2,47,52,0
2,54,60,16
2,69,70,40
2,66,62,0
2,62,76,0
2,57,68,0
2,54,58,0
2,52,64,0
2,54,64,28
2,54,45,40
2,57,38,8
2,64,82,4
2,61,78,0
2,59,72,0
2,57,48,0
2,54,48,0
2,52,46,0
2,64,78,28
2,60,74,0
2,57,66,0
2,53,72,0
2,50,78,0
2,61,56,24
2,59,64,0
2,57,50,0
2,52,49,0
2,64,64,24
2,60,44,0
2,57,60,0
2,53,68,0
2,67,70,44
2,64,68,0
2,60,70,0
2,57,70,0
2,55,58,0
2,53,56,0
2,62,68,16
2,59,64,0
2,64,58,28
2,62,64,0
2,59,62,0
2,48,54,56
2,55,76,28
2,62,56,88
2,74,72,96
2,71,66,4
2,67,74,76
2,62,78,4
2,55,62,64
2,72,62,68
2,69,70,0
2,64,66,0
2,60,43,0
2,53,70,0
2,69,64,240
2,66,62,0
2,62,60,0
2,57,62,0
2,47,49,0
2,54,70,0
2,61,46,96
2,64,54,96
2,69,72,96
2,76,78,36
2,57,62,72
2,71,72,0
2,69,74,0
2,64,68,0
2,62,70,0
2,52,66,0
2,57,47,116
2,64,44,40
2,62,40,0
2,57,72,32
2,62,56,12
2,76,72,76
2,71,70,0
2,69,74,0
2,64,70,0
2,76,74,172
2,73,70,0
2,68,72,0
2,66,74,0
2,64,74,0
2,57,68,0
2,76,70,272
2,72,72,0
2,69,70,0
2,65,74,0
2,64,68,0
2,57,62,0
2,50,74,0
2,64,76,272
2,60,72,0
2,57,62,0
2,53,64,0
2,45,36,0
2,38,70,168
2,45,68,192
2,62,78,24
2,59,74,0
2,55,74,0
2,52,78,0
2,47,66,44
2,55,33,96
2,47,64,48
2,55,44,96
2,67,94,60
2,62,78,0
2,59,74,0
2,64,82,12
2,60,90,0
2,55,72,0
2,53,94,0
2,52,76,0
2,45,76,0
2,38,76,0
2,50,62,540
2,64,70,96
2,60,66,0
2,57,56,0
2,53,56,0
2,64,76,4
2,60,86,0
2,57,78,0
2,53,82,0
2,62,86,296
2,59,82,0
2,55,94,0
2,52,64,0
2,64,74,48
2,60,70,0
2,57,68,0
2,53,76,0
2,50,72,0
2,50,66,504
2,64,74,96
2,60,72,0
2,57,62,0
2,53,68,0
2,52,76,236
2,62,94,96
2,59,90,0
2,55,94,0
2,64,66,72
2,57,64,0
2,45,60,0
2,60,41,76
2,59,35,60
2,55,37,56
2,55,50,60
2,52,11,172
2,52,37,12
2,64,68,32
2,60,74,0
2,59,48,0
2,57,64,0
2,55,48,0
2,52,41,220
2,52,50,116
2,62,74,28
2,59,76,0
2,57,72,0
2,55,66,0
2,43,68,0
2,50,50,380
2,55,31,40
2,50,64,96
2,57,41,4
2,55,43,4
2,55,54,72
2,67,86,96
2,62,98,0
2,59,98,0
2,57,90,0
2,64,78,36
2,60,68,0
2,55,64,76
2,50,60,20
2,64,78,40
2,60,76,0
2,55,66,0
2,53,72,0
2,50,68,0
2,50,52,592
2,62,86,456
2,59,98,0
2,55,86,0
2,52,74,0
2,64,72,52
2,60,66,0
2,57,64,0
2,53,66,0
2,50,70,0
2,50,68,64
2,62,82,96
2,59,94,0
2,57,86,0
2,55,82,0
2,64,66,16
2,61,66,0
2,59,62,0
2,56,52,0
2,45,68,0
2,52,56,180
2,64,74,192
2,76,82,96
2,69,78,0
2,52,46,68
2,57,64,96
2,64,56,0
2,73,94,8
2,69,90,0
2,64,76,0
2,62,54,20
2,76,78,28
2,69,76,0
2,64,70,0
2,52,72,0
2,54,76,160
2,57,94,44
2,62,94,96
2,64,78,96
2,69,76,96
2,76,76,96
2,69,86,12
2,57,66,96
2,62,39,76
2,64,58,64
2,71,102,20
2,69,82,0
2,64,82,228
2,61,56,0
2,59,66,0
2,57,68,0
2,56,68,0
2,45,48,0
2,64,76,132
2,60,64,0
2,57,66,0
2,53,76,0
2,67,82,48
2,64,78,0
2,60,78,0
2,57,70,0
2,62,68,0
2,59,60,0
2,57,62,0
2,53,64,0
2,43,68,0
2,53,48,84
2,55,70,60
2,67,78,4
2,64,76,0
2,59,66,0
2,57,74,0
2,48,70,0
2,55,66,228
2,71,78,96
2,67,86,0
2,62,78,0
2,69,74,0
2,64,74,0
2,60,66,0
2,53,56,0
2,54,64,124
2,69,78,28
2,66,76,0
2,62,74,0
2,61,66,0
2,47,74,0
2,54,62,136
2,61,64,0
2,64,64,96
2,69,72,12
2,71,86,60
2,69,82,0
2,64,76,0
2,62,78,0
2,52,78,0
2,59,64,56
2,76,86,24
2,69,82,0
2,64,74,0
2,52,66,172
2,64,86,4
