track,note,velocity,time
0,59,113,480
0,62,113,0
0,67,113,0
0,46,127,0
0,36,127,0
0,67,0,40
0,59,0,0
0,62,0,0
0,59,93,0
0,62,107,0
0,67,89,0
0,36,0,20
0,62,0,20
0,67,0,0
0,59,0,0
0,59,93,0
0,67,85,0
0,62,107,0
0,46,0,10
0,59,0,30
0,67,0,0
0,62,0,0
0,62,107,0
0,59,93,0
0,67,89,0
0,39,127,0
0,42,94,0
0,42,0,28
0,39,0,8
0,62,0,4
0,59,0,0
0,67,0,0
0,59,89,0
0,67,72,0
0,62,102,0
0,62,0,40
0,67,0,0
0,59,0,0
0,67,94,0
0,59,93,0
0,62,93,0
0,46,106,0
0,46,0,24
0,67,0,16
0,59,0,0
0,62,0,0
0,59,107,0
0,67,102,0
0,62,102,0
0,46,127,0
0,62,0,40
0,59,0,0
0,67,0,0
0,46,0,29
0,62,127,11
0,62,0,20
0,67,127,20
0,39,127,0
0,42,127,0
0,42,0,26
0,39,0,14
0,67,0,30
0,64,127,10
0,36,127,0
0,46,127,0
0,46,0,16
0,36,0,2
0,64,0,22
0,46,127,0
0,36,127,0
0,36,0,71
0,46,0,3
0,60,107,46
0,64,107,0
0,69,98,0
0,39,127,0
0,42,127,0
0,42,0,25
0,39,0,11
0,60,0,4
0,64,0,0
0,69,0,0
0,64,85,0
0,60,60,0
0,69,72,0
0,69,0,40
0,60,0,0
0,64,0,0
0,69,72,0
0,60,68,0
0,64,72,0
0,46,127,0
0,46,0,18
0,69,0,22
0,60,0,0
0,64,0,0
0,66,89,0
0,62,76,0
0,71,93,0
0,46,127,0
0,71,0,40
0,66,0,0
0,62,0,0
0,71,98,0
0,62,89,0
0,66,85,0
0,46,0,20
0,71,0,20
0,62,0,0
0,66,0,0
0,71,89,0
0,66,80,0
0,62,85,0
0,62,0,40
0,66,0,0
0,71,0,0
0,62,93,0
0,66,89,0
0,71,93,0
0,39,127,0
0,42,127,0
0,42,0,24
0,39,0,10
0,62,0,6
0,66,0,0
0,71,0,0
0,66,93,0
0,62,93,0
0,71,93,0
0,71,0,40
0,62,0,0
0,66,0,0
0,66,85,0
0,62,89,0
0,71,98,0
0,46,127,0
0,36,127,0
0,36,0,16
0,46,0,2
0,66,0,22
0,62,0,0
0,71,0,0
0,62,107,0
0,59,113,0
0,67,80,0
0,36,127,0
0,46,127,0
0,67,0,40
0,62,0,0
0,59,0,0
0,62,89,0
0,59,72,0
0,67,93,0
0,46,0,6
0,36,0,23
0,59,0,11
0,62,0,0
0,67,0,0
0,62,98,0
0,67,89,0
0,59,93,0
0,59,0,40
0,67,0,0
0,62,0,0
0,62,93,0
0,59,85,0
0,67,85,0
0,39,127,0
0,42,127,0
0,42,0,26
0,39,0,12
0,62,0,2
0,59,0,0
0,67,0,0
0,59,98,0
0,62,98,0
0,67,93,0
0,67,0,40
0,62,0,0
0,59,0,0
0,59,89,0
0,62,93,0
0,67,85,0
0,46,127,0
0,46,0,18
0,59,0,22
0,62,0,0
0,67,0,0
0,59,102,0
0,62,107,0
0,67,98,0
0,46,127,0
0,46,0,39
0,59,0,1
0,62,0,0
0,67,0,0
0,62,127,40
0,62,0,20
0,67,127,20
0,39,127,0
0,42,127,0
0,42,0,24
0,39,0,15
0,67,0,32
0,64,127,9
0,36,127,0
0,46,127,0
0,46,0,16
0,36,0,2
0,64,0,22
0,36,127,0
0,46,127,0
0,46,0,58
0,36,0,16
0,69,98,46
0,64,107,0
0,60,102,0
0,39,127,0
0,42,127,0
0,42,0,25
0,39,0,8
0,69,0,7
0,64,0,0
0,60,0,0
0,69,76,0
0,60,72,0
0,64,76,0
0,64,0,40
0,60,0,0
0,69,0,0
0,64,76,0
0,60,47,0
0,69,60,0
0,46,127,0
0,46,0,16
0,64,0,24
0,60,0,0
0,69,0,0
0,66,98,0
0,62,98,0
0,71,98,0
0,46,127,0
0,71,0,40
0,66,0,0
0,62,0,0
0,62,93,0
0,66,93,0
0,71,93,0
0,46,0,1
0,62,0,39
0,66,0,0
0,71,0,0
0,62,93,0
0,66,89,0
0,71,98,0
0,71,0,40
0,66,0,0
0,62,0,0
0,62,89,0
0,71,93,0
0,66,89,0
0,39,127,0
0,42,127,0
0,42,0,25
0,39,0,6
0,62,0,9
0,71,0,0
0,66,0,0
0,66,89,0
0,71,98,0
0,62,93,0
0,62,0,40
0,71,0,0
0,66,0,0
0,66,76,0
0,62,93,0
0,71,93,0
0,46,127,0
0,36,127,0
0,36,0,16
0,46,0,2
0,66,0,22
0,62,0,0
0,71,0,0
0,62,107,0
0,67,98,0
0,59,93,0
0,36,127,0
0,46,127,0
0,59,0,40
0,62,0,0
0,67,0,0
0,67,93,0
0,59,80,0
0,62,93,0
0,46,0,1
0,36,0,38
0,59,0,1
0,67,0,0
0,62,0,0
0,59,93,0
0,67,93,0
0,62,98,0
0,62,0,40
0,67,0,0
0,59,0,0
0,67,80,0
0,59,89,0
0,62,89,0
0,39,127,0
0,42,127,0
0,42,0,25
0,39,0,9
0,67,0,6
0,59,0,0
0,62,0,0
0,62,89,0
0,59,89,0
0,67,89,0
0,67,0,40
0,59,0,0
0,62,0,0
0,59,93,0
0,67,89,0
0,62,93,0
0,46,127,0
0,46,0,18
0,59,0,22
0,67,0,0
0,62,0,0
0,62,107,0
0,67,102,0
0,59,107,0
0,46,127,0
0,59,0,40
0,62,0,0
0,67,0,0
0,46,0,3
0,62,127,37
0,62,0,28
0,67,127,12
0,39,127,0
0,42,127,0
0,42,0,25
0,39,0,10
0,67,0,36
0,64,127,9
0,46,127,0
0,36,127,0
0,36,0,16
0,46,0,2
0,64,0,22
0,36,127,0
0,46,127,0
0,46,0,54
0,36,0,37
0,69,102,29
0,64,113,0
0,60,102,0
0,39,127,0
0,42,127,0
0,42,0,24
0,39,0,10
0,69,0,6
0,64,0,0
0,60,0,0
0,60,93,0
0,64,93,0
0,69,93,0
0,69,0,40
0,64,0,0
0,60,0,0
0,64,93,0
0,69,85,0
0,60,98,0
0,46,127,0
0,46,0,18
0,64,0,22
0,69,0,0
0,60,0,0
0,71,102,0
0,62,98,0
0,66,98,0
0,46,127,0
0,46,0,36
0,71,0,4
0,62,0,0
0,66,0,0
0,71,102,0
0,66,93,0
0,62,102,0
0,62,0,40
0,66,0,0
0,71,0,0
0,71,89,0
0,66,93,0
0,62,93,0
0,62,0,40
0,66,0,0
0,71,0,0
0,66,93,0
0,71,93,0
0,62,98,0
0,39,127,0
0,42,127,0
0,42,0,18
0,39,0,17
0,66,0,5
0,71,0,0
0,62,0,0
0,62,89,0
0,66,76,0
0,71,93,0
0,71,0,40
0,66,0,0
0,62,0,0
0,66,85,0
0,62,85,0
0,71,93,0
0,46,127,0
0,36,127,0
0,36,0,18
0,46,0,1
0,66,0,21
0,62,0,0
0,71,0,0
0,59,107,0
0,62,107,0
0,67,98,0
0,36,127,0
0,46,127,0
0,46,0,26
0,59,0,14
0,67,0,0
0,62,0,0
0,36,0,24
0,73,127,46
0,74,127,10
0,40,127,0
0,39,127,0
0,73,0,16
0,39,0,17
0,74,0,12
0,40,0,14
0,59,119,61
0,62,119,0
0,67,113,0
0,67,0,40
0,62,0,0
0,59,0,40
0,40,124,30
0,73,127,6
0,40,0,4
0,74,127,0
0,39,127,0
0,40,127,0
0,73,0,21
0,40,0,14
0,39,0,0
0,74,0,9
0,73,127,66
0,74,127,10
0,40,127,0
0,73,0,19
0,40,0,15
0,74,0,19
0,67,107,67
0,59,113,0
0,62,119,0
0,39,127,0
0,39,0,38
0,67,0,2
0,59,0,0
0,62,0,0
0,59,107,80
0,62,119,0
0,67,113,0
0,67,0,80
0,62,0,0
0,59,0,0
0,40,124,20
0,40,0,10
0,40,124,0
0,40,0,10
0,39,127,0
0,40,127,0
0,39,0,40
0,40,0,4
0,73,127,36
0,70,127,0
0,54,127,0
0,76,127,11
0,76,0,28
0,73,0,1
0,70,0,0
0,54,0,0
0,74,127,0
0,71,127,0
0,55,127,0
0,36,127,0
0,77,127,13
0,36,0,30
0,77,0,17
0,74,0,20
0,71,0,0
0,55,0,0
0,77,127,7
0,39,127,33
0,37,127,0
0,36,110,0
0,76,127,3
0,77,0,12
0,36,0,14
0,37,0,1
0,39,0,3
0,39,127,47
0,37,127,0
0,36,127,0
0,76,0,18
0,37,0,22
0,39,0,1
0,74,127,4
0,36,0,24
0,74,0,80
0,39,127,11
0,36,127,0
0,37,127,0
0,76,127,5
0,37,0,24
0,36,0,4
0,39,0,1
0,76,0,41
0,36,127,45
0,77,127,8
0,36,0,35
0,77,0,38
0,74,127,6
0,74,0,31
0,39,127,2
0,36,110,0
0,37,127,0
0,76,127,3
0,37,0,26
0,36,0,0
0,39,0,2
0,37,127,49
0,36,127,0
0,39,127,0
0,74,127,7
0,76,0,10
0,37,0,17
0,39,0,6
0,36,0,29
0,74,0,28
0,39,127,63
0,36,127,0
0,37,127,0
0,37,0,31
0,36,0,2
0,39,0,2
0,77,127,43
0,73,127,2
0,70,127,0
0,54,127,0
0,54,0,40
0,77,0,0
0,73,0,0
0,70,0,0
0,74,127,0
0,71,127,0
0,55,127,0
0,36,127,0
0,36,0,34
0,77,127,43
0,74,0,3
0,55,0,0
0,71,0,0
0,36,127,40
0,37,127,0
0,39,127,0
0,77,0,2
0,76,127,3
0,39,0,20
0,37,0,1
0,36,0,5
0,39,123,49
0,36,127,0
0,37,127,0
0,37,0,36
0,74,127,0
0,36,0,3
0,39,0,4
0,76,0,7
0,74,0,26
0,74,127,32
0,74,0,30
0,70,127,19
0,39,127,3
0,37,127,0
0,36,127,0
0,36,0,33
0,37,0,1
0,39,0,4
0,70,0,45
0,36,127,37
0,69,127,1
0,36,0,34
0,69,0,15
0,67,127,31
0,67,0,28
0,36,115,11
0,37,127,0
0,39,127,0
0,67,127,6
0,39,0,24
0,36,0,1
0,37,0,0
0,67,0,44
0,36,127,5
0,39,127,0
0,37,127,0
0,67,127,7
0,37,0,27
0,39,0,4
0,36,0,5
0,67,0,28
0,36,127,89
0,37,127,0
0,39,127,0
0,39,0,36
0,37,0,0
0,36,0,0
0,77,127,36
0,73,127,8
0,70,127,0
0,54,127,0
0,54,0,40
0,70,0,0
0,73,0,0
0,74,127,0
0,71,127,0
0,55,127,0
0,36,127,0
0,36,0,33
0,77,0,12
0,74,0,35
0,71,0,0
0,55,0,0
0,77,127,1
0,36,127,39
0,37,127,0
0,39,127,0
0,76,127,8
0,77,0,11
0,39,0,7
0,36,0,4
0,37,0,0
0,36,127,50
0,39,127,0
0,37,127,0
0,76,0,11
0,37,0,20
0,39,0,8
0,36,0,0
0,74,127,4
0,74,0,88
0,39,127,29
0,37,127,0
0,36,127,0
0,76,127,1
0,36,0,33
0,37,0,4
0,39,0,3
0,76,0,53
0,36,127,26
0,77,127,8
0,36,0,26
0,77,0,68
0,36,127,18
0,37,127,0
0,39,127,0
0,76,127,3
0,39,0,18
0,36,0,7
0,37,0,0
0,37,127,52
0,36,127,0
0,39,127,0
0,76,0,17
0,37,0,18
0,36,0,3
0,39,0,0
0,74,127,2
0,74,0,79
0,39,127,41
0,36,127,0
0,37,127,0
0,37,0,35
0,36,0,3
0,39,0,1
0,77,127,37
0,73,127,4
0,70,127,0
0,54,127,0
0,54,0,40
0,77,0,0
0,73,0,0
0,70,0,0
0,74,127,0
0,71,127,0
0,55,127,0
0,36,127,0
0,36,0,33
0,77,127,39
0,74,0,8
0,55,0,0
0,71,0,0
0,76,127,40
0,36,127,0
0,37,127,0
0,39,127,0
0,77,0,1
0,39,0,24
0,37,0,1
0,36,0,2
0,76,0,18
0,76,127,29
0,39,127,5
0,37,127,0
0,36,127,0
0,37,0,31
0,39,0,7
0,36,0,1
0,74,127,1
0,76,0,20
0,74,0,40
0,74,127,20
0,74,0,40
0,36,127,0
0,39,127,0
0,37,127,0
0,70,127,2
0,37,0,33
0,36,0,1
0,39,0,0
0,70,0,65
0,36,127,19
0,69,127,2
0,36,0,31
0,69,0,49
0,39,127,38
0,40,127,0
0,36,127,0
0,67,127,1
0,40,0,18
0,39,0,5
0,36,0,1
0,40,127,15
0,40,0,26
0,39,127,14
0,40,127,0
0,67,0,1
0,40,0,17
0,39,0,18
0,67,127,4
0,36,127,0
0,40,127,0
0,40,0,23
0,36,0,16
0,40,127,1
0,40,0,11
0,40,127,29
0,40,0,16
0,67,0,24
0,39,127,0
0,36,127,0
0,40,127,0
0,69,127,2
0,40,0,24
0,36,0,8
0,39,0,4
0,40,127,2
0,40,0,19
0,69,0,8
0,70,127,11
0,40,127,2
0,40,0,20
0,36,122,20
0,36,127,0
0,69,127,7
0,70,0,11
0,36,0,17
0,58,127,45
0,52,127,0
0,60,127,0
0,69,0,1
0,67,127,0
0,36,0,22
0,60,0,11
0,52,0,0
0,58,0,1
0,40,118,5
0,39,127,0
0,36,127,0
0,54,127,0
0,40,127,0
0,44,127,0
0,67,0,21
0,54,0,17
0,36,0,2
0,39,0,6
0,44,0,8
0,40,0,14
0,58,107,12
0,60,118,0
0,52,106,0
0,40,0,25
0,52,0,3
0,60,0,2
0,58,0,1
0,60,127,9
0,67,107,0
0,64,107,0
0,43,105,0
0,36,123,0
0,36,0,31
0,60,0,9
0,64,0,0
0,67,0,0
0,52,101,40
0,60,109,0
0,58,105,0
0,58,0,28
0,60,0,0
0,52,0,2
0,43,0,5
0,40,109,5
0,40,127,0
0,44,127,0
0,39,127,0
0,54,127,0
0,36,115,0
0,36,0,33
0,54,0,5
0,39,0,2
0,44,0,1
0,40,0,3
0,58,102,36
0,60,114,0
0,52,106,0
0,60,0,29
0,58,0,1
0,52,0,4
0,40,0,5
0,67,113,1
0,60,127,0
0,64,119,0
0,36,109,0
0,36,119,0
0,36,0,35
0,67,0,5
0,64,0,0
0,60,0,0
0,58,105,40
0,52,112,0
0,60,114,0
0,60,0,21
0,52,0,3
0,58,0,0
0,36,0,1
0,40,113,15
0,40,127,0
0,44,127,0
0,54,127,0
0,39,127,0
0,36,119,0
0,36,0,31
0,54,0,4
0,44,0,3
0,39,0,5
0,40,0,1
0,60,127,36
0,64,107,0
0,67,107,0
0,58,106,0
0,60,114,0
0,52,114,0
0,60,0,19
0,58,0,4
0,52,0,2
0,40,0,9
0,60,0,6
0,64,0,0
0,67,0,0
0,43,109,0
0,36,123,0
0,36,0,24
0,58,102,56
0,60,126,0
0,52,106,0
0,60,0,26
0,58,0,2
0,52,0,2
0,40,113,10
0,54,127,0
0,36,123,0
0,40,127,0
0,39,127,0
0,44,127,0
0,43,0,5
0,69,127,7
0,36,0,13
0,39,0,9
0,54,0,1
0,40,0,3
0,44,0,0
0,58,126,42
0,52,127,0
0,60,122,0
0,69,0,11
0,40,0,0
0,70,127,0
0,60,0,9
0,52,0,1
0,58,0,2
0,31,109,17
0,36,119,0
0,69,127,12
0,70,0,11
0,36,0,3
0,53,107,54
0,62,127,0
0,59,126,0
0,67,127,6
0,69,0,7
0,31,0,3
0,62,0,14
0,53,0,1
0,59,0,2
0,35,122,7
0,36,110,0
0,44,127,0
0,54,127,0
0,39,127,0
0,40,127,0
0,67,0,15
0,36,0,8
0,44,0,11
0,39,0,0
0,54,0,4
0,40,0,3
0,62,112,39
0,59,106,0
0,53,101,0
0,59,0,24
0,35,0,2
0,62,0,2
0,53,0,0
0,67,98,12
0,62,107,0
0,59,119,0
0,38,113,0
0,36,119,0
0,36,0,26
0,67,0,14
0,59,0,0
0,62,0,0
0,53,97,40
0,62,112,0
0,59,106,0
0,59,0,29
0,62,0,1
0,53,0,5
0,35,109,5
0,39,127,0
0,40,127,0
0,36,119,0
0,44,127,0
0,54,127,0
0,38,0,3
0,44,0,25
0,36,0,1
0,39,0,5
0,54,0,1
0,40,0,8
0,62,110,37
0,53,100,0
0,59,107,0
0,59,0,26
0,53,0,3
0,62,0,0
0,35,0,10
0,31,109,1
0,36,110,0
0,36,0,24
0,62,114,56
0,53,102,0
0,59,112,0
0,31,0,15
0,59,0,11
