track,note,velocity,time
0,42,26,0
0,42,39,64
0,42,48,65
0,42,54,72
0,69,42,71
0,67,42,0
0,74,42,0
0,69,42,0
0,67,42,0
0,74,42,0
0,31,60,12
0,63,37,0
0,42,35,0
0,36,75,0
0,44,35,12
0,31,66,12
0,63,20,0
0,36,75,0
0,63,30,12
0,42,35,0
0,64,44,12
0,44,35,0
0,67,65,5
0,70,69,8
0,74,70,3
0,79,72,8
0,62,68,0
0,42,35,0
0,82,75,3
0,69,26,12
0,44,35,0
0,67,44,12
0,70,47,3
0,74,49,7
0,42,35,1
0,37,90,0
0,79,51,6
0,82,53,2
0,29,76,9
0,44,35,0
0,36,75,0
0,67,21,12
0,70,23,3
0,74,24,6
0,31,66,1
0,63,31,0
0,42,35,0
0,36,75,0
0,79,25,6
0,82,27,2
0,44,35,9
0,31,84,12
0,67,8,0
0,63,28,0
0,36,75,0
0,70,11,3
0,74,12,4
0,63,39,1
0,42,35,0
0,79,14,6
0,82,16,2
0,64,22,9
0,44,35,0
0,62,64,12
0,42,35,0
0,69,27,12
0,44,35,0
0,42,35,12
0,37,90,0
0,26,88,12
0,44,35,0
0,36,75,0
0,24,80,1
0,63,36,0
0,42,35,0
0,36,75,0
0,74,31,37
0,70,31,0
0,44,35,0
0,24,66,13
0,63,28,0
0,36,75,0
0,74,58,8
0,70,29,0
0,63,40,0
0,42,35,0
0,70,31,31
0,67,50,0
0,64,28,0
0,44,35,0
0,70,44,25
0,67,48,0
0,62,66,0
0,42,35,0
0,63,32,14
0,67,46,0
0,69,26,0
0,44,35,0
0,67,46,26
0,63,28,0
0,42,35,0
0,37,90,0
0,24,66,15
0,44,35,0
0,36,75,0
0,26,88,5
0,63,28,0
0,42,35,0
0,36,75,0
0,72,44,37
0,69,52,0
0,44,35,0
0,26,88,13
0,63,23,0
0,36,75,0
0,72,54,11
0,69,64,0
0,63,46,0
0,42,35,0
0,69,44,14
0,65,44,0
0,64,29,0
0,44,35,0
0,69,30,24
0,65,34,0
0,62,64,0
0,42,35,0
0,65,39,29
0,69,26,0
0,44,35,0
0,60,27,17
0,65,52,0
0,42,35,0
0,37,90,0
0,29,66,15
0,44,35,0
0,36,75,0
0,31,76,5
0,43,54,0
0,63,37,0
0,42,35,0
0,36,75,0
0,44,35,24
0,31,64,13
0,63,20,0
0,36,75,0
0,63,30,9
0,42,35,0
0,64,44,24
0,44,35,0
0,67,65,6
0,70,69,15
0,74,70,7
0,79,72,8
0,57,26,0
0,55,26,0
0,62,26,0
0,62,68,0
0,42,35,0
0,82,75,3
0,69,26,15
0,44,35,0
0,67,44,13
0,70,47,15
0,74,49,7
0,42,35,1
0,37,90,0
0,79,51,6
0,82,53,2
0,29,62,9
0,44,35,0
0,36,75,0
0,67,21,13
0,70,23,15
0,74,24,7
0,31,72,1
0,63,31,0
0,42,35,0
0,36,75,0
0,79,25,6
0,82,27,2
0,44,35,9
0,31,66,13
0,67,8,0
0,63,28,0
0,36,75,0
0,70,11,4
0,74,12,4
0,63,39,1
0,42,35,0
0,79,14,6
0,82,16,2
0,74,26,9
0,64,22,0
0,44,35,0
0,79,36,37
0,62,64,0
0,42,35,0
0,69,27,37
0,44,35,0
0,42,35,37
0,37,90,0
0,26,66,11
0,77,38,0
0,44,35,0
0,36,75,0
0,24,58,4
0,36,65,0
0,74,34,0
0,51,26,0
0,55,26,0
0,58,26,0
0,62,26,0
0,63,36,0
0,42,35,0
0,36,75,0
0,77,58,37
0,74,40,0
0,44,35,0
0,24,64,8
0,63,28,0
0,36,75,0
0,74,56,4
0,77,68,0
0,63,40,0
0,42,35,0
0,74,39,22
0,70,34,0
0,64,28,0
0,44,35,0
0,74,36,25
0,70,32,0
0,62,66,0
0,42,35,0
0,67,44,20
0,70,37,0
0,69,26,0
0,44,35,0
0,67,44,29
0,70,30,0
0,42,35,0
0,37,90,0
0,24,62,16
0,72,32,0
0,44,35,0
0,36,75,0
0,70,32,13
0,26,88,3
0,38,64,0
0,69,44,0
0,57,26,0
0,60,26,0
0,53,26,0
0,63,28,0
0,42,35,0
0,36,75,0
0,72,48,37
0,69,38,0
0,44,35,0
0,26,84,7
0,63,23,0
0,36,75,0
0,72,66,8
0,69,52,0
0,63,46,0
0,42,35,0
0,69,52,22
0,64,29,0
0,44,35,0
0,69,46,31
0,65,42,0
0,62,64,0
0,42,35,0
0,50,40,4
0,65,30,13
0,69,26,0
0,44,35,0
0,50,31,13
0,60,25,13
0,65,31,0
0,47,48,0
0,42,35,0
0,37,90,0
0,26,88,22
0,62,64,0
0,44,35,0
0,41,60,0
0,36,75,0
0,31,60,12
0,58,43,0
0,53,43,0
0,57,43,0
0,62,43,0
0,62,80,0
0,63,37,0
0,42,35,0
0,36,75,0
0,65,52,4
0,44,35,0
0,31,66,2
0,67,56,0
0,63,20,0
0,36,75,0
0,63,30,13
0,42,35,0
0,69,52,5
0,64,44,0
0,44,35,0
0,62,68,37
0,42,35,0
0,69,26,37
0,44,35,0
0,42,35,1
0,37,90,0
0,29,76,5
0,44,35,0
0,36,75,0
0,31,66,8
0,55,43,0
0,63,31,0
0,42,35,0
0,36,75,0
0,44,35,37
0,31,84,13
0,63,28,0
0,36,75,0
0,63,39,1
0,42,35,0
0,67,46,37
0,64,22,0
0,44,35,0
0,70,88,32
0,62,64,0
0,42,35,0
0,69,27,37
0,44,35,0
0,72,66,13
0,42,35,24
0,37,90,0
0,26,88,37
0,74,66,0
0,44,35,0
0,36,75,0
0,24,80,7
0,58,43,0
0,51,43,0
0,55,43,0
0,62,43,0
0,72,66,0
0,63,36,0
0,42,35,0
0,36,75,0
0,44,35,1
0,24,66,1
0,67,56,0
0,63,28,0
0,36,75,0
0,63,40,8
0,42,35,0
0,67,44,37
0,64,28,0
0,44,35,0
0,62,66,1
0,42,35,0
0,69,26,15
0,44,35,0
0,42,35,1
0,37,90,0
0,24,66,3
0,69,66,0
0,44,35,0
0,36,75,0
0,26,88,2
0,53,43,0
0,57,43,0
0,60,43,0
0,70,80,0
0,63,28,0
0,42,35,0
0,36,75,0
0,44,35,37
0,26,88,13
0,69,56,0
0,63,23,0
0,36,75,0
0,63,46,11
0,42,35,0
0,69,60,33
0,64,29,0
0,44,35,0
0,62,64,37
0,42,35,0
0,69,26,1
0,44,35,0
0,42,35,1
0,37,90,0
0,29,66,10
0,62,54,0
0,44,35,0
0,36,75,0
0,31,76,1
0,57,43,0
0,53,43,0
0,58,43,0
0,62,43,0
0,62,76,0
0,63,37,0
0,42,35,0
0,36,75,0
0,65,42,5
0,44,35,0
0,31,64,13
0,67,52,0
0,63,20,0
0,36,75,0
0,63,30,9
0,42,35,0
0,69,52,37
0,64,44,0
0,44,35,0
0,62,68,11
0,42,35,0
0,69,26,1
0,44,35,0
0,42,35,2
0,37,90,0
0,29,62,16
0,44,35,0
0,36,75,0
0,31,72,1
0,55,43,0
0,63,31,0
0,42,35,0
0,36,75,0
0,44,35,1
0,31,66,1
0,63,28,0
0,36,75,0
0,63,39,6
0,42,35,0
0,67,34,37
0,64,22,0
0,44,35,0
0,70,92,37
0,62,64,0
0,42,35,0
0,69,27,37
0,44,35,0
0,72,72,13
0,42,35,24
0,37,90,0
0,26,66,37
0,74,60,0
0,44,35,0
0,36,75,0
0,24,58,1
0,55,43,0
0,51,43,0
0,72,64,0
0,63,36,0
0,42,35,0
0,36,75,0
0,44,35,37
0,24,64,13
0,63,28,0
0,36,75,0
0,67,58,4
0,63,40,0
0,42,35,0
0,67,76,33
0,64,28,0
0,44,35,0
0,62,66,1
0,42,35,0
0,69,26,14
0,44,35,0
0,42,35,3
0,37,90,0
0,24,62,13
0,69,68,0
0,44,35,0
0,36,75,0
0,26,88,1
0,53,43,0
0,57,43,0
0,60,43,0
0,70,76,0
0,63,28,0
0,42,35,0
0,36,75,0
0,44,35,37
0,26,84,5
0,69,80,0
0,63,23,0
0,36,75,0
0,63,46,8
0,42,35,0
0,69,76,27
0,64,29,0
0,44,35,0
0,69,58,1
0,62,64,0
0,42,35,0
0,50,40,7
0,69,26,13
0,44,35,0
0,50,31,13
0,47,48,13
0,42,35,0
0,37,90,0
0,26,88,2
0,74,80,0
0,58,68,0
0,55,84,0
0,62,64,0
0,44,35,0
0,41,60,0
0,36,75,0
0,27,88,5
0,58,44,0
0,63,58,0
0,55,44,0
0,75,88,0
0,58,72,0
0,63,64,0
0,55,64,0
0,63,37,0
0,42,35,0
0,36,75,0
0,75,72,2
0,44,35,0
0,27,80,11
0,75,58,0
0,63,60,0
0,55,66,0
0,58,68,0
0,63,20,0
0,36,75,0
0,63,30,4
0,42,35,0
0,79,58,22
0,67,76,0
0,63,64,0
0,58,76,0
0,64,44,0
0,44,35,0
0,67,58,1
0,62,68,0
0,42,35,0
0,69,26,7
0,44,35,0
0,42,35,1
0,38,75,0
0,26,64,25
0,79,68,0
0,58,80,0
0,67,68,0
0,63,72,0
0,44,35,0
0,36,75,0
0,27,88,2
0,82,92,0
0,63,76,0
0,67,66,0
0,70,72,0
0,63,31,0
0,42,35,0
0,36,75,0
0,44,35,2
0,27,88,11
0,81,66,0
0,69,64,0
0,60,60,0
0,65,66,0
0,63,28,0
0,36,75,0
0,63,39,5
0,42,35,0
0,79,66,1
0,58,88,0
0,67,64,0
0,63,80,0
0,64,22,0
0,44,35,0
0,82,92,1
0,67,72,0
0,70,64,0
0,63,84,0
0,62,64,0
0,42,35,0
0,69,27,25
0,44,35,0
0,81,60,13
0,69,64,0
0,65,68,0
0,60,66,0
0,42,35,22
0,38,75,0
0,29,66,29
0,79,56,0
0,67,64,0
0,63,56,0
0,58,66,0
0,44,35,0
0,36,75,0
0,31,92,1
0,58,48,0
0,67,56,0
0,62,60,0
0,81,66,0
0,69,84,0
0,60,80,0
0,62,92,0
0,63,36,0
0,42,35,0
0,36,75,0
0,44,35,36
0,31,80,13
0,63,28,0
0,36,75,0
0,79,58,7
0,67,56,0
0,58,42,0
0,63,40,0
0,42,35,0
0,79,62,1
0,67,64,0
0,58,46,0
0,62,68,0
0,64,28,0
0,44,35,0
0,62,66,1
0,42,35,0
0,69,26,3
0,44,35,0
0,42,35,1
0,38,75,0
0,29,72,1
0,77,76,0
0,57,56,0
0,65,64,0
0,44,35,0
0,36,75,0
0,31,72,1
0,82,84,0
0,67,68,0
0,62,84,0
0,70,68,0
0,63,28,0
0,42,35,0
0,36,75,0
0,44,35,37
0,31,80,9
0,81,66,0
0,60,58,0
0,69,64,0
0,63,23,0
0,36,75,0
0,63,46,6
0,42,35,0
0,79,60,1
0,67,54,0
0,58,60,0
0,62,66,0
0,64,29,0
0,44,35,0
0,77,76,1
0,57,54,0
0,60,48,0
0,65,52,0
0,62,64,0
0,42,35,0
0,69,26,34
0,44,35,0
0,37,90,0
0,74,60,1
0,62,60,0
0,58,32,0
0,55,37,0
0,42,35,24
0,38,75,0
0,31,88,29
0,70,56,0
0,44,35,0
0,36,75,0
0,33,68,11
0,63,52,0
0,55,38,0
0,57,35,0
0,60,52,0
0,69,66,0
0,63,37,0
0,42,35,0
0,36,75,0
0,67,39,37
0,44,35,0
0,33,84,2
0,69,54,0
0,63,20,0
0,36,75,0
0,63,30,7
0,42,35,0
0,67,38,13
0,69,56,5
0,64,44,0
0,44,35,0
0,62,68,1
0,42,35,0
0,69,26,1
0,44,35,0
0,42,35,1
0,38,75,0
0,31,62,26
0,67,56,0
0,44,35,0
0,36,75,0
0,67,54,13
0,33,88,5
0,69,68,0
0,63,31,0
0,42,35,0
0,36,75,0
0,67,31,1
0,44,35,0
0,33,84,8
0,69,56,0
0,63,28,0
0,36,75,0
0,63,39,11
0,42,35,0
0,67,44,13
0,69,64,7
0,64,22,0
0,44,35,0
0,62,64,1
0,42,35,0
0,69,27,1
0,44,35,0
0,37,90,0
0,42,35,1
0,38,75,0
0,33,84,1
0,67,58,0
0,44,35,0
0,36,75,0
0,26,84,4
0,55,48,0
0,57,42,0
0,62,54,0
0,69,80,0
0,63,36,0
0,42,35,0
0,36,75,0
0,67,32,2
0,44,35,0
0,26,84,11
0,69,56,0
0,63,28,0
0,36,75,0
0,63,40,8
0,42,35,0
0,67,46,13
0,69,56,5
0,64,28,0
0,44,35,0
0,62,66,1
0,42,35,0
0,69,26,3
0,44,35,0
0,42,35,1
0,38,75,0
0,24,62,37
0,74,62,0
0,74,47,0
0,44,35,0
0,36,75,0
0,26,88,9
0,60,56,0
0,54,59,0
0,75,84,0
0,75,73,0
0,63,28,0
0,42,35,0
0,38,75,0
0,36,75,0
0,44,35,12
0,74,62,7
0,74,33,0
0,42,35,9
0,70,84,37
0,70,45,0
0,44,35,0
0,69,47,33
0,42,35,0
0,69,76,1
0,44,35,19
0,67,66,13
0,67,37,17
0,42,35,0
0,37,75,0
0,63,54,33
0,44,35,0
0,36,75,0
0,31,60,37
0,58,43,0
0,53,43,0
0,57,43,0
0,62,43,0
0,62,64,0
0,62,16,0
0,63,37,0
0,42,35,0
0,36,75,0
0,44,35,23
0,31,66,13
0,63,20,0
0,36,75,0
0,63,30,13
0,42,35,0
0,64,44,1
0,44,35,0
0,62,68,10
0,42,35,0
0,69,26,8
0,44,35,0
0,42,35,36
0,37,90,0
0,29,76,37
0,44,35,0
0,36,75,0
0,31,66,1
0,55,43,0
0,63,31,0
0,42,35,0
0,36,75,0
0,44,35,30
0,31,84,13
0,63,28,0
0,36,75,0
0,63,39,6
0,42,35,0
0,64,22,37
0,44,35,0
0,62,64,37
0,42,35,0
0,69,27,37
0,44,35,0
0,42,35,37
0,37,90,0
0,26,88,37
0,44,35,0
0,36,75,0
0,24,80,7
0,58,43,0
0,51,43,0
0,55,43,0
0,62,43,0
0,63,36,0
0,42,35,0
0,36,75,0
0,74,31,37
0,70,31,0
0,44,35,0
0,24,66,13
0,63,28,0
0,36,75,0
0,74,58,8
0,70,29,0
0,63,40,0
0,42,35,0
0,70,31,31
0,67,50,0
0,64,28,0
0,44,35,0
0,70,44,25
0,67,48,0
0,62,66,0
0,42,35,0
0,63,32,14
0,67,46,0
0,69,26,0
0,44,35,0
0,67,46,26
0,63,28,0
0,42,35,0
0,37,90,0
0,24,66,9
0,44,35,0
0,36,75,0
0,26,88,2
0,53,43,0
0,57,43,0
0,60,43,0
0,63,28,0
0,42,35,0
0,36,75,0
0,72,44,37
0,69,52,0
0,44,35,0
0,26,88,13
0,63,23,0
0,36,75,0
0,72,54,11
0,69,64,0
0,63,46,0
0,42,35,0
0,69,44,14
0,65,44,0
0,64,29,0
0,44,35,0
0,69,30,24
0,65,34,0
0,62,64,0
0,42,35,0
0,65,39,29
0,69,26,0
0,44,35,0
0,60,27,17
0,65,52,0
0,42,35,0
0,37,90,0
0,29,66,15
0,44,35,0
0,36,75,0
0,31,76,1
0,58,43,0
0,53,43,0
0,57,43,0
0,62,43,0
0,74,52,0
0,63,37,0
0,42,35,0
0,36,75,0
0,44,35,24
0,31,64,13
0,63,20,0
0,36,75,0
0,63,30,9
0,42,35,0
0,64,44,24
0,44,35,0
0,67,65,6
0,70,69,15
0,74,70,7
0,79,72,8
0,62,68,0
0,42,35,0
0,82,75,3
0,69,26,15
0,44,35,0
0,67,44,13
0,70,47,15
0,74,49,7
0,42,35,1
0,37,90,0
0,79,51,6
0,82,53,2
0,29,62,9
0,44,35,0
0,36,75,0
0,67,21,13
0,70,23,12
0,74,24,7
0,31,72,1
0,55,43,0
0,63,31,0
0,42,35,0
0,36,75,0
0,79,25,6
0,82,27,2
0,44,35,9
0,31,66,13
0,67,8,0
0,63,28,0
0,36,75,0
0,70,11,4
0,74,12,4
0,63,39,1
0,42,35,0
0,79,14,6
0,82,16,2
0,64,22,9
0,44,35,0
0,72,52,37
0,62,64,0
0,42,35,0
0,69,27,37
0,44,35,0
0,42,35,37
0,37,90,0
0,26,66,37
0,77,46,0
0,44,35,0
0,36,75,0
0,24,58,4
0,58,43,0
0,51,43,0
0,55,43,0
0,62,43,0
0,74,38,0
