track,note,velocity,time
0,76,99,0
0,71,101,12
0,69,96,12
0,68,99,12
0,75,65,12
0,78,64,0
0,83,62,0
0,71,103,0
0,75,66,132
0,78,70,0
0,83,63,0
0,75,65,144
0,78,64,0
0,83,70,0
0,75,69,144
0,78,64,0
0,83,64,0
0,75,70,144
0,78,66,0
0,83,64,0
0,75,70,144
0,78,69,0
0,83,66,0
0,75,71,144
0,78,68,0
0,83,64,0
0,75,70,144
0,78,68,0
0,83,71,0
0,75,66,144
0,78,70,0
0,83,68,0
0,75,71,144
0,78,69,0
0,83,66,0
0,75,65,144
0,78,64,0
0,83,62,0
0,75,64,144
0,78,71,0
0,83,68,0
0,75,64,144
0,78,63,0
0,83,67,0
0,75,70,144
0,78,66,0
0,83,63,0
0,75,68,32
0,78,69,0
0,83,68,0
0,75,67,0
0,78,68,0
0,83,70,0
0,75,62,112
0,78,62,0
0,83,67,0
0,66,58,0
0,28,121,8
0,75,70,16
0,78,70,0
0,83,63,0
0,68,67,0
0,75,66,16
0,78,69,0
0,83,64,0
0,71,59,0
0,75,67,16
0,78,67,0
0,83,69,0
0,66,60,0
0,28,117,8
0,75,67,12
0,78,65,0
0,83,63,0
0,68,66,0
0,28,120,8
0,75,70,16
0,78,71,0
0,83,63,0
0,71,59,0
0,75,70,16
0,78,68,0
0,83,69,0
0,66,60,0
0,75,71,16
0,78,66,0
0,83,62,0
0,68,64,0
0,75,62,16
0,78,67,0
0,83,67,0
0,71,60,0
0,28,121,8
0,75,65,16
0,78,63,0
0,83,63,0
0,66,65,0
0,75,62,16
0,78,62,0
0,83,70,0
0,68,58,0
0,75,67,16
0,78,70,0
0,83,62,0
0,71,67,0
0,28,119,8
0,75,68,12
0,78,64,0
0,83,65,0
0,66,65,0
0,28,122,8
0,75,71,16
0,78,70,0
0,83,70,0
0,68,66,0
0,75,65,16
0,78,62,0
0,83,70,0
0,71,66,0
0,75,62,12
0,78,71,0
0,83,70,0
0,66,62,0
0,75,68,16
0,78,63,0
0,83,65,0
0,68,66,0
0,56,63,0
0,59,70,0
0,64,61,0
0,64,114,0
0,28,122,8
0,75,68,8
0,78,68,0
0,83,67,0
0,71,63,0
0,59,114,0
0,75,70,8
0,78,65,0
0,83,65,0
0,66,65,0
0,57,115,0
0,75,66,8
0,78,67,0
0,83,62,0
0,68,67,0
0,56,119,0
0,28,123,8
0,54,123,8
0,75,69,8
0,78,71,0
0,83,65,0
0,71,59,0
0,56,114,0
0,28,120,8
0,75,70,16
0,78,71,0
0,83,66,0
0,66,60,0
0,75,67,12
0,78,63,0
0,83,70,0
0,68,65,0
0,64,69,0
0,75,71,16
0,78,64,0
0,83,63,0
0,71,64,0
0,28,114,8
0,76,71,12
0,80,64,0
0,83,65,0
0,64,65,0
0,56,65,0
0,59,70,0
0,64,66,0
0,37,118,8
0,76,63,16
0,80,68,0
0,83,66,0
0,68,67,0
0,76,67,16
0,80,71,0
0,83,62,0
0,71,61,0
0,56,120,0
0,76,68,8
0,80,69,0
0,83,69,0
0,64,61,0
0,57,122,0
0,37,120,8
0,76,62,8
0,80,67,0
0,83,69,0
0,68,67,0
0,59,117,0
0,37,122,8
0,76,67,16
0,80,71,0
0,83,71,0
0,71,64,0
0,57,114,8
0,76,71,16
0,80,71,0
0,83,66,0
0,64,58,0
0,76,70,8
0,80,67,0
0,83,62,0
0,68,65,0
0,56,117,0
0,37,118,8
0,75,62,8
0,78,71,0
0,82,71,0
0,66,63,0
0,58,66,0
0,61,63,0
0,66,66,0
0,54,122,0
0,39,116,8
0,75,65,16
0,78,69,0
0,82,63,0
0,70,58,0
0,75,64,16
0,78,70,0
0,82,65,0
0,73,65,0
0,75,71,16
0,78,63,0
0,82,71,0
0,66,62,0
0,39,120,8
0,75,65,12
0,78,65,0
0,82,63,0
0,70,65,0
0,39,116,8
0,75,68,16
0,78,68,0
0,82,62,0
0,73,58,0
0,75,69,16
0,78,71,0
0,82,63,0
0,66,66,0
0,75,62,16
0,78,64,0
0,82,62,0
0,70,61,0
0,39,119,8
0,75,69,8
0,78,67,0
0,82,65,0
0,72,65,0
0,58,67,0
0,63,70,0
0,44,123,8
0,75,63,16
0,78,68,0
0,82,69,0
0,66,62,0
0,75,68,16
0,78,62,0
0,82,69,0
0,70,63,0
0,54,118,0
0,75,67,8
0,78,67,0
0,82,70,0
0,72,60,0
0,56,114,0
0,44,115,8
0,75,66,8
0,78,67,0
0,81,63,0
0,66,62,0
0,57,69,0
0,57,122,0
0,44,114,8
0,75,70,16
0,78,69,0
0,81,66,0
0,69,60,0
0,56,118,8
0,75,62,16
0,78,67,0
0,81,62,0
0,72,60,0
0,75,68,8
0,78,67,0
0,81,66,0
0,66,58,0
0,54,120,0
0,44,115,8
0,75,65,8
0,77,68,0
0,80,68,0
0,65,63,0
0,58,67,0
0,61,70,0
0,65,63,0
0,53,117,0
0,37,117,8
0,75,65,16
0,77,64,0
0,80,68,0
0,68,62,0
0,75,63,16
0,77,67,0
0,80,65,0
0,72,64,0
0,75,67,16
0,77,64,0
0,80,69,0
0,65,65,0
0,37,115,8
0,75,66,12
0,77,65,0
0,80,68,0
0,68,64,0
0,37,116,8
0,75,68,16
0,77,70,0
0,80,66,0
0,72,67,0
0,75,70,16
0,77,67,0
0,80,64,0
0,65,67,0
0,75,62,16
0,77,62,0
0,80,67,0
0,68,65,0
0,37,120,8
0,71,69,8
0,76,62,0
0,80,68,0
0,64,65,0
0,59,62,0
0,61,67,0
0,64,61,0
0,37,118,8
0,71,62,16
0,76,62,0
0,80,63,0
0,68,64,0
0,71,69,16
0,76,63,0
0,80,70,0
0,71,67,0
0,52,123,0
0,71,69,8
0,76,71,0
0,80,63,0
0,64,66,0
0,54,114,0
0,37,120,8
0,71,67,8
0,76,65,0
0,80,67,0
0,68,58,0
0,56,120,0
0,37,121,8
0,71,68,16
0,76,67,0
0,80,64,0
0,71,64,0
0,71,62,16
0,76,69,0
0,80,63,0
0,64,64,0
0,54,116,8
0,71,68,8
0,76,65,0
0,80,64,0
0,68,64,0
0,52,114,0
0,37,121,8
0,73,62,8
0,76,63,0
0,78,64,0
0,66,58,0
0,54,68,0
0,57,66,0
0,61,67,0
0,54,122,0
0,30,120,8
0,73,68,16
0,76,65,0
0,78,68,0
0,69,61,0
0,73,70,16
0,76,68,0
0,78,64,0
0,73,62,0
0,73,62,16
0,76,66,0
0,78,68,0
0,66,62,0
0,30,120,8
0,73,67,8
0,76,68,0
0,78,69,0
0,69,61,0
0,61,120,0
0,30,119,8
0,73,63,16
0,76,69,0
0,78,69,0
0,73,62,0
0,73,63,16
0,76,65,0
0,78,64,0
0,66,67,0
0,73,71,16
0,76,64,0
0,78,70,0
0,69,66,0
0,30,117,8
0,71,62,8
0,76,63,0
0,78,63,0
0,73,65,0
0,59,70,0
0,61,66,0
0,64,65,0
0,59,117,0
0,35,119,8
0,48,121,8
0,71,66,4
0,76,70,0
0,78,66,0
0,64,61,0
0,71,71,16
0,76,68,0
0,78,62,0
0,69,61,0
0,47,118,36
0,47,120,8
0,71,70,4
0,76,65,0
0,78,64,0
0,73,59,0
0,35,119,8
0,71,71,8
0,75,71,0
0,78,68,0
0,63,61,0
0,63,61,0
0,66,63,0
0,66,123,0
0,35,119,8
0,45,123,28
0,45,114,4
0,71,68,4
0,75,70,0
0,78,70,0
0,69,63,0
0,35,119,8
0,43,117,4
0,71,70,4
0,75,65,0
0,78,68,0
0,73,58,0
0,56,76,0
0,37,115,8
0,57,83,8
0,59,79,12
0,61,80,0
0,63,80,4
0,64,74,12
0,43,117,4
0,66,75,8
0,68,81,12
0,69,74,8
0,71,80,12
0,73,79,8
0,43,115,4
0,71,63,4
0,75,67,0
0,78,63,0
0,63,65,0
0,75,77,0
0,35,118,0
0,69,78,8
0,76,82,0
0,71,75,4
0,73,76,0
0,75,82,4
0,76,76,12
0,78,83,8
0,80,79,12
0,81,83,8
0,83,75,12
0,85,75,8
0,51,72,0
0,42,57,0
0,36,118,0
0,70,62,4
0,75,70,0
0,78,62,0
0,83,68,0
0,68,58,0
0,63,66,0
0,66,67,0
0,71,70,0
0,87,83,0
0,64,120,0
0,28,114,0
0,88,77,4
0,42,56,0
0,75,62,4
0,78,67,0
0,83,64,0
0,71,59,0
0,59,122,0
0,42,62,0
0,37,114,0
0,70,61,4
0,75,66,0
0,78,70,0
0,83,66,0
0,66,67,0
0,57,116,0
0,42,54,0
0,36,100,0
0,70,60,4
0,75,66,0
0,78,63,0
0,83,69,0
0,68,66,0
0,56,117,0
0,28,122,4
0,54,117,8
0,42,60,0
0,36,118,0
0,70,62,4
0,75,71,0
0,78,67,0
0,83,63,0
0,71,62,0
0,56,123,0
0,28,118,4
0,42,63,8
0,75,64,4
0,78,68,0
0,83,71,0
0,66,64,0
0,42,60,8
0,37,122,0
0,70,63,4
0,75,66,0
0,78,65,0
0,83,64,0
0,68,63,0
0,66,96,0
0,42,57,4
0,36,97,0
0,70,60,4
0,75,71,0
0,78,63,0
0,83,64,0
0,71,58,0
0,71,101,0
0,28,116,4
0,42,59,4
0,36,123,0
0,70,62,4
0,76,65,0
0,80,69,0
0,83,65,0
0,64,64,0
0,64,61,0
0,68,66,0
0,71,63,0
0,68,103,0
0,37,123,4
0,42,61,8
0,76,65,4
0,80,69,0
0,83,65,0
0,68,64,0
0,42,56,8
0,37,122,0
0,70,62,4
0,76,62,0
0,80,69,0
0,83,70,0
0,71,62,0
0,56,122,0
0,42,58,0
0,36,100,0
0,70,58,4
0,76,70,0
0,80,62,0
0,83,66,0
0,64,67,0
0,57,122,0
0,37,115,4
0,42,54,0
0,36,123,0
0,70,54,4
0,76,69,0
0,80,63,0
0,83,71,0
0,68,62,0
0,59,119,0
0,37,119,4
0,42,63,8
0,76,63,4
0,80,68,0
0,83,66,0
0,71,62,0
0,57,114,8
0,42,63,8
0,37,121,0
0,70,59,4
0,76,66,0
0,80,69,0
0,83,67,0
0,64,60,0
0,42,59,0
0,36,92,0
0,70,62,4
0,76,70,0
0,80,63,0
0,83,68,0
0,68,61,0
0,56,121,0
0,37,115,4
0,42,62,0
0,36,116,0
0,70,56,4
0,73,67,0
0,78,69,0
0,82,63,0
0,66,59,0
0,63,69,0
0,66,69,0
0,70,66,0
0,61,123,0
0,39,122,4
0,42,55,8
0,73,63,4
0,78,67,0
0,82,66,0
0,70,59,0
0,42,63,8
0,37,115,0
0,70,58,4
0,73,68,0
0,78,71,0
0,82,66,0
0,73,64,0
0,73,97,0
0,42,54,8
0,36,91,0
0,70,60,4
0,73,62,0
0,78,65,0
0,82,67,0
0,66,59,0
0,39,117,4
0,42,63,0
0,36,120,0
0,70,54,4
0,73,71,0
0,78,63,0
0,82,64,0
0,70,67,0
0,75,94,0
0,63,117,0
0,39,120,4
0,42,55,8
0,73,67,4
0,78,67,0
0,82,67,0
0,73,62,0
0,42,61,8
0,37,116,0
0,70,61,4
0,73,68,0
0,78,66,0
0,82,71,0
0,66,60,0
0,42,62,8
0,36,96,0
0,70,59,4
0,73,66,0
0,78,69,0
0,82,66,0
0,70,65,0
0,42,114,4
0,43,123,0
0,42,60,0
0,36,119,0
0,70,55,4
0,75,64,0
0,78,68,0
0,80,67,0
0,72,67,0
0,60,67,0
0,68,62,0
0,60,115,0
0,44,119,0
0,42,63,8
0,75,69,4
0,78,70,0
0,80,62,0
0,66,66,0
0,42,60,8
0,37,122,0
0,70,59,4
0,75,70,0
0,78,68,0
0,80,66,0
0,70,65,0
0,72,96,0
0,42,54,8
0,36,97,0
0,70,61,4
0,75,68,0
0,78,71,0
0,80,69,0
0,72,65,0
0,44,118,4
0,42,63,0
0,36,122,0
0,70,58,4
0,75,62,0
0,78,65,0
0,80,70,0
0,66,63,0
0,75,100,0
0,56,117,0
0,44,118,4
0,51,73,8
0,42,59,0
0,75,66,4
0,78,69,0
0,80,63,0
0,69,64,0
0,42,57,8
0,37,119,0
0,70,58,4
0,75,65,0
0,78,63,0
0,80,66,0
0,72,62,0
0,42,55,8
0,36,93,0
0,70,59,4
0,75,65,0
0,78,63,0
0,80,62,0
0,66,59,0
0,44,121,4
0,42,57,0
0,36,123,0
0,70,61,4
0,71,67,0
0,76,67,0
0,80,63,0
0,64,67,0
0,64,63,0
0,71,69,0
0,76,95,0
0,61,117,0
0,37,116,4
0,42,59,8
0,71,65,4
0,76,66,0
0,80,62,0
0,68,59,0
0,42,56,8
0,37,119,0
0,70,59,4
0,71,71,0
0,76,64,0
0,80,62,0
0,71,66,0
0,42,56,8
0,36,93,0
0,70,57,4
0,71,65,0
0,76,70,0
0,80,67,0
0,64,59,0
0,37,115,4
0,42,56,4
0,36,120,0
0,70,59,4
0,71,63,0
0,76,64,0
0,80,63,0
0,68,65,0
0,37,118,4
0,42,62,8
0,71,68,4
0,76,71,0
0,80,62,0
0,71,60,0
0,42,60,0
0,37,119,0
0,70,60,4
0,71,63,0
0,76,63,0
0,80,70,0
0,64,62,0
0,75,95,0
0,63,122,0
0,42,54,8
0,36,100,0
0,70,59,4
0,71,65,0
0,76,70,0
0,80,64,0
0,68,67,0
0,37,120,4
0,42,56,0
0,36,118,0
0,70,57,4
0,76,63,0
0,78,66,0
0,81,70,0
0,64,67,0
0,64,70,0
0,66,62,0
0,69,66,0
0,73,101,0
0,64,114,0
0,35,115,4
0,42,60,8
0,76,65,4
0,78,67,0
0,81,70,0
0,66,61,0
0,42,56,0
0,37,115,0
0,70,56,4
0,76,68,0
0,78,71,0
0,81,67,0
0,69,62,0
0,75,101,0
0,66,114,0
0,42,61,0
0,36,94,0
0,70,56,4
0,76,62,0
0,78,69,0
0,81,62,0
0,64,65,0
0,64,114,0
0,35,122,4
0,42,58,0
0,36,121,0
0,70,58,4
0,76,66,0
0,78,69,0
0,81,64,0
0,66,61,0
0,73,101,0
0,64,119,0
0,35,118,4
0,42,62,8
0,76,63,4
0,78,68,0
0,81,69,0
0,69,58,0
0,42,58,0
0,37,120,0
0,70,57,4
0,76,71,0
0,78,67,0
0,81,68,0
0,64,66,0
0,76,98,0
0,71,119,0
0,42,55,8
0,36,100,0
0,70,55,4
0,76,62,0
0,78,63,0
0,81,64,0
0,66,64,0
0,35,114,4
0,42,54,0
0,36,117,0
0,70,54,4
0,75,71,0
0,78,63,0
0,83,65,0
0,66,64,0
0,64,61,0
0,68,63,0
0,71,70,0
0,75,100,0
0,68,120,0
0,40,123,4
0,66,117,8
0,42,57,0
0,75,67,4
0,78,65,0
0,83,66,0
0,68,66,0
0,68,116,0
0,42,55,8
0,37,123,0
0,70,54,4
0,75,67,0
0,78,71,0
0,83,63,0
0,71,64,0
0,42,56,8
0,36,96,0
0,70,57,4
0,75,64,0
0,78,65,0
0,83,62,0
0,66,65,0
0,40,115,4
0,42,58,4
0,36,115,0
0,70,57,4
0,75,66,0
0,78,66,0
0,83,70,0
0,68,64,0
0,40,120,4
0,42,54,8
0,75,69,4
0,78,66,0
0,83,68,0
0,71,64,0
0,42,56,8
0,37,117,0
0,70,63,4
0,75,62,0
0,78,70,0
0,83,64,0
0,66,58,0
0,42,62,8
0,36,96,0
0,70,56,4
0,75,66,0
0,78,70,0
0,83,70,0
0,68,63,0
0,40,122,4
0,42,61,4
0,36,123,0
0,70,61,4
0,73,70,0
0,76,66,0
0,80,63,0
0,64,67,0
0,61,66,0
0,64,61,0
0,68,69,0
0,73,100,0
0,33,118,4
0,42,57,0
0,73,67,4
0,76,67,0
0,80,66,0
0,68,59,0
0,42,59,8
0,37,122,0
0,70,55,4
0,73,69,0
0,76,63,0
0,80,63,0
0,69,62,0
0,68,123,0
0,42,62,0
0,36,91,0
0,70,60,4
0,73,66,0
0,76,71,0
0,80,71,0
0,64,58,0
0,69,116,0
0,33,118,4
0,42,57,0
0,36,115,0
0,70,63,4
0,73,68,0
0,76,65,0
0,80,62,0
0,68,61,0
0,71,114,0
0,33,118,4
0,51,71,8
0,42,59,0
0,73,63,4
0,76,69,0
