track,note,velocity,time
1,67,52,464
1,72,52,0
1,67,0,4
1,67,26,7
1,72,0,23
1,72,41,28
1,67,0,9
1,72,0,51
1,67,50,2
1,74,52,0
1,74,0,29
1,67,0,0
1,67,29,30
1,76,41,0
1,76,0,25
1,67,0,0
1,72,68,90
1,67,66,0
1,67,0,19
1,67,44,0
1,72,0,30
1,72,55,30
1,72,0,29
1,67,0,1
1,67,45,30
1,74,60,0
1,74,0,49
1,76,59,47
1,67,0,21
1,76,0,30
1,70,42,60
1,65,23,0
1,62,17,0
1,62,0,22
1,65,0,0
1,70,0,30
1,72,56,60
1,74,66,60
1,72,0,18
1,74,0,54
1,70,40,0
1,70,0,29
1,70,50,61
1,70,0,263
1,72,66,210
1,67,43,5
1,72,0,30
1,67,0,30
1,72,61,0
1,72,0,60
1,74,68,0
1,74,0,38
1,76,78,0
1,76,0,120
1,72,69,60
1,72,0,49
1,67,52,0
1,67,0,57
1,72,57,0
1,72,0,29
1,74,61,31
1,76,71,68
1,74,0,20
1,76,0,60
1,79,65,27
1,79,0,29
1,79,60,31
1,79,0,60
1,79,47,0
1,74,62,90
1,79,0,30
1,74,0,30
1,74,62,30
1,74,0,147
1,72,56,210
1,79,89,60
1,72,0,15
1,79,0,60
1,77,78,0
1,76,74,90
1,77,0,30
1,76,0,30
1,74,80,0
1,74,0,180
1,72,74,0
1,72,0,60
1,79,84,0
1,79,0,90
1,77,78,0
1,76,52,90
1,77,0,30
1,76,0,30
1,74,56,0
1,74,0,65
1,76,74,60
1,76,0,6
1,77,56,0
1,77,0,60
1,76,72,0
1,77,71,31
1,76,0,30
1,76,67,30
1,77,0,20
1,72,53,30
1,76,0,30
1,68,53,25
1,72,0,5
1,68,0,55
1,72,68,5
1,72,0,200
1,72,46,210
1,77,92,13
1,72,0,30
1,75,78,60
1,77,0,30
1,75,0,60
1,74,82,0
1,74,0,60
1,72,80,0
1,72,0,150
1,72,85,30
1,77,102,60
1,72,0,30
1,77,0,60
1,75,84,0
1,74,73,90
1,75,0,30
1,74,0,30
1,72,64,0
1,72,0,240
1,74,91,0
1,74,0,60
1,75,65,0
1,75,0,60
1,74,67,0
1,74,0,60
1,75,69,0
1,75,0,60
1,74,77,0
1,74,0,60
1,70,79,0
1,70,0,120
1,72,83,60
1,72,0,60
1,69,65,0
1,69,0,60
1,72,67,0
1,72,0,29
1,72,84,31
1,72,0,120
1,74,82,0
1,74,0,39
1,60,53,60
1,60,0,32
1,55,43,0
1,55,0,46
1,60,59,0
1,60,0,60
1,62,82,0
1,62,0,51
1,64,71,0
1,64,0,57
1,60,64,60
1,60,0,15
1,55,16,0
1,55,0,60
1,60,42,0
1,60,0,60
1,62,64,0
1,62,0,108
1,64,52,0
1,64,0,48
1,60,48,120
1,60,0,60
1,62,62,0
1,62,0,120
1,58,53,0
1,58,0,60
1,58,68,0
1,58,0,32
1,60,61,3
1,60,0,60
1,55,47,0
1,60,48,60
1,55,0,30
1,60,0,30
1,62,67,0
1,62,0,120
1,64,71,0
1,64,0,120
1,55,68,0
1,55,0,60
1,60,90,0
1,60,0,60
1,55,78,0
1,55,0,60
1,60,66,0
1,60,0,60
1,62,84,0
1,62,0,120
1,64,62,0
1,64,0,35
1,67,58,120
1,67,0,7
1,69,66,0
1,69,0,60
1,67,67,0
1,67,0,33
1,64,58,0
1,64,0,120
1,62,36,0
1,62,0,36
1,60,55,0
1,60,0,60
1,62,43,0
1,62,0,44
1,60,67,30
1,60,0,60
1,67,95,0
1,67,0,82
1,65,71,0
1,65,0,90
1,64,69,0
1,64,0,7
1,62,73,0
1,62,0,58
1,60,52,0
1,60,0,52
1,67,78,0
1,67,0,90
1,65,66,0
1,65,0,90
1,64,62,0
1,64,0,60
1,62,69,0
1,62,0,240
1,64,70,0
1,64,0,4
1,65,52,0
1,65,0,8
1,64,63,0
1,64,0,22
1,65,53,0
1,65,0,60
1,64,57,0
1,64,0,60
1,60,63,0
1,60,0,29
1,56,35,31
1,56,0,29
1,60,56,31
1,69,33,51
1,60,0,57
1,67,59,0
1,69,0,60
1,67,0,30
1,60,50,30
1,60,0,60
1,65,97,0
1,65,0,82
1,63,96,0
1,63,0,90
1,62,84,0
1,62,0,60
1,60,80,0
1,60,0,120
1,60,82,60
1,60,0,60
1,65,65,0
1,65,0,90
1,63,77,0
1,63,0,90
1,62,54,0
1,62,0,60
1,60,62,0
1,60,0,180
1,63,52,0
1,63,0,60
1,62,70,0
1,62,0,60
1,63,70,0
1,63,0,60
1,62,46,0
1,62,0,60
1,63,71,0
1,63,0,60
1,62,70,0
1,62,0,60
1,58,71,0
1,58,0,90
1,62,65,30
1,62,0,60
1,69,82,0
1,69,0,60
1,67,69,0
1,67,0,60
1,65,69,0
1,65,0,60
1,67,65,0
1,67,0,60
1,69,89,0
1,69,0,240
1,70,58,60
1,70,0,29
1,70,57,31
1,70,0,29
1,70,70,31
1,70,0,60
1,69,94,0
1,69,0,60
1,67,85,0
1,67,0,60
1,65,67,0
1,67,70,60
1,65,0,30
1,67,0,20
1,70,59,45
1,82,53,0
1,82,0,29
1,82,46,27
1,82,0,29
1,70,0,1
1,70,52,30
1,82,51,0
1,82,0,29
1,70,0,0
1,69,59,31
1,81,63,0
1,81,0,29
1,69,0,0
1,79,59,31
1,67,47,0
1,67,0,29
1,79,0,0
1,65,68,31
1,77,69,0
1,77,0,29
1,65,0,0
1,67,83,31
1,79,88,0
1,79,0,34
1,67,0,0
1,82,77,182
1,70,79,0
1,70,0,29
1,82,0,0
1,82,78,31
1,70,89,0
1,70,0,29
1,82,0,0
1,70,75,31
1,82,63,0
1,82,0,29
1,70,0,0
1,69,88,30
1,81,58,1
1,81,0,60
1,69,0,29
1,77,93,91
1,65,84,0
1,65,0,29
1,77,0,0
1,68,75,31
1,80,85,0
1,80,0,29
1,68,0,0
1,68,44,31
1,80,56,0
1,80,0,10
1,68,0,0
1,68,56,31
1,80,60,0
1,80,0,29
1,68,0,0
1,67,54,31
1,79,54,0
1,79,0,54
1,67,0,0
1,79,45,49
1,67,42,0
1,67,0,29
1,79,0,0
1,65,45,31
1,77,52,0
1,77,0,29
1,65,0,0
1,67,59,31
1,79,60,0
1,79,0,17
1,67,0,30
1,57,73,360
1,57,0,39
1,65,88,0
1,65,0,60
1,64,71,0
1,64,0,60
1,60,78,0
1,60,0,60
1,57,70,0
1,57,0,29
1,60,87,91
1,60,0,60
1,62,72,0
1,62,0,60
1,60,76,0
1,60,0,540
1,60,53,480
1,60,0,32
1,55,43,0
1,55,0,46
1,60,59,0
1,60,0,60
1,62,82,0
1,62,0,51
1,64,71,0
1,64,0,57
1,60,64,60
1,60,0,15
1,55,16,0
1,55,0,60
1,60,42,0
1,60,0,60
1,62,64,0
1,62,0,108
1,64,52,0
1,64,0,48
1,60,48,120
1,60,0,60
1,62,62,0
1,62,0,120
1,58,53,0
1,58,0,60
1,58,68,0
1,58,0,32
1,60,61,3
1,60,0,60
1,55,47,0
1,60,48,60
1,55,0,30
1,60,0,30
1,62,67,0
1,62,0,120
1,64,71,0
1,64,0,120
1,55,68,0
1,55,0,60
1,60,90,0
1,60,0,60
1,55,78,0
1,55,0,60
1,60,66,0
1,60,0,60
1,62,84,0
1,62,0,120
1,64,62,0
1,64,0,35
1,67,58,120
1,67,0,7
1,69,66,0
1,69,0,60
1,67,67,0
1,67,0,33
1,64,58,0
1,64,0,120
1,62,36,0
1,62,0,36
1,60,55,0
1,60,0,60
1,62,43,0
1,62,0,44
1,60,67,30
1,60,0,60
1,67,95,0
1,67,0,82
1,65,71,0
1,65,0,90
1,64,69,0
1,64,0,7
1,62,73,0
1,62,0,58
1,60,52,0
1,60,0,52
1,67,78,0
1,67,0,90
1,65,66,0
1,65,0,90
1,64,62,0
1,64,0,60
1,62,69,0
1,62,0,240
1,64,70,0
1,64,0,4
1,65,52,0
1,65,0,8
1,64,63,0
1,64,0,22
1,65,53,0
1,65,0,60
1,64,57,0
1,64,0,60
1,60,63,0
1,60,0,29
1,56,35,31
1,56,0,29
1,60,56,31
1,69,33,51
1,60,0,57
1,67,59,0
1,69,0,60
1,67,0,30
1,60,50,30
1,60,0,60
1,65,97,0
1,65,0,82
1,63,96,0
1,63,0,90
1,62,84,0
1,62,0,60
1,60,80,0
1,60,0,120
1,60,82,60
1,60,0,60
1,65,65,0
1,65,0,90
1,63,77,0
1,63,0,90
1,62,54,0
1,62,0,60
1,60,62,0
1,60,0,180
1,63,52,0
1,63,0,60
1,62,70,0
1,62,0,60
1,63,70,0
1,63,0,60
1,62,46,0
1,62,0,60
1,63,71,0
1,63,0,60
1,62,70,0
1,62,0,60
1,58,71,0
1,58,0,90
1,62,65,30
1,62,0,60
1,69,82,0
1,69,0,60
1,67,69,0
1,67,0,60
1,65,69,0
1,65,0,60
1,67,65,0
1,67,0,60
1,69,89,0
1,69,0,240
1,70,58,60
1,70,0,29
1,70,57,31
1,70,0,29
1,70,70,31
1,70,0,60
1,69,94,0
1,69,0,60
1,67,85,0
1,67,0,60
1,65,67,0
1,67,70,60
1,65,0,30
1,67,0,20
1,70,59,45
1,82,53,0
1,82,0,29
1,82,46,27
1,82,0,29
1,70,0,1
1,70,52,30
1,82,51,0
1,82,0,29
1,70,0,0
1,69,59,31
1,81,63,0
1,81,0,29
1,69,0,0
1,79,59,31
1,67,47,0
1,67,0,29
1,79,0,0
1,65,68,31
1,77,69,0
1,77,0,29
1,65,0,0
1,67,83,31
1,79,88,0
1,79,0,34
1,67,0,0
1,82,77,182
1,70,79,0
1,70,0,29
1,82,0,0
1,82,78,31
1,70,89,0
1,70,0,29
1,82,0,0
1,70,75,31
1,82,63,0
1,82,0,29
1,70,0,0
1,69,88,30
1,81,58,1
1,81,0,60
1,69,0,29
1,77,93,91
1,65,84,0
1,65,0,29
1,77,0,0
1,68,75,31
1,80,85,0
1,80,0,29
1,68,0,0
1,68,44,31
1,80,56,0
1,80,0,10
1,68,0,0
1,68,56,31
1,80,60,0
1,80,0,29
1,68,0,0
1,67,54,31
1,79,54,0
1,79,0,54
1,67,0,0
1,79,45,49
1,67,42,0
1,67,0,29
1,79,0,0
1,65,45,31
1,77,52,0
1,77,0,29
1,65,0,0
1,67,59,31
1,79,60,0
1,79,0,17
1,67,0,30
1,57,73,360
1,57,0,39
1,65,88,0
1,65,0,60
1,64,71,0
1,64,0,60
1,60,78,0
1,60,0,60
1,57,70,0
1,57,0,29
1,60,87,91
1,60,0,60
1,62,72,0
1,62,0,60
1,60,76,0
1,60,0,361
1,65,88,0
1,65,0,32
1,67,79,0
1,67,0,10
1,68,80,0
1,68,0,34
1,68,80,60
1,68,0,102
1,70,79,0
1,70,0,60
1,63,72,0
1,63,0,43
1,65,69,0
1,65,0,50
1,67,78,0
1,67,0,35
1,67,70,0
1,67,0,22
1,63,65,0
1,63,0,60
1,65,68,0
1,65,0,10
1,66,79,0
1,66,0,21
1,66,96,0
1,66,0,15
1,68,59,0
1,68,0,5
1,61,70,0
1,61,0,9
1,63,62,0
1,63,0,18
1,65,83,1
1,65,0,17
1,61,77,0
1,61,0,29
1,63,68,0
1,63,0,8
1,64,76,0
1,64,0,6
1,64,87,0
1,64,0,104
1,68,79,0
1,68,0,60
1,66,66,0
1,66,0,90
1,61,80,0
1,61,0,29
1,63,80,1
1,63,0,49
1,61,80,0
1,61,0,64
1,63,80,0
1,63,0,180
1,59,80,0
1,59,0,29
1,61,80,1
1,61,0,60
1,63,80,0
1,63,0,2
1,63,80,1
1,63,0,33
1,61,80,21
1,61,0,29
1,64,80,1
1,64,0,23
1,70,80,51
1,66,80,0
1,66,0,60
1,70,0,0
1,71,80,0
1,68,80,0
1,68,0,65
1,71,0,0
1,70,80,0
1,73,80,0
1,73,0,81
1,70,0,0
1,71,80,0
1,68,80,0
1,68,0,15
1,71,0,0
1,66,80,1
1,70,80,0
1,70,0,8
1,66,0,0
1,68,80,1
1,71,80,0
1,71,0,13
1,68,0,0
1,68,80,0
1,71,80,0
1,71,0,24
1,68,0,0
1,71,62,63
1,71,0,42
1,71,65,13
1,71,0,28
1,71,87,24
1,70,90,39
1,71,0,10
1,68,78,47
1,70,0,10
1,66,77,46
1,68,0,8
1,68,94,54
1,66,0,8
1,68,0,424
1,71,70,176
1,71,0,60
1,71,73,0
1,71,0,60
1,71,47,0
1,71,0,60
1,70,103,0
1,70,0,60
1,68,96,0
1,68,0,60
1,66,66,0
1,66,0,60
1,68,84,0
1,68,0,210
1,73,35,0
1,73,0,29
1,73,50,1
1,78,58,90
1,73,0,30
1,78,0,30
1,78,60,30
1,78,0,120
1,71,63,60
1,71,0,60
1,71,84,0
1,71,0,29
1,71,69,31
1,71,0,60
1,70,108,0
1,70,0,60
1,66,46,120
1,66,0,60
1,69,78,0
1,69,0,29
1,69,70,31
1,69,0,60
1,69,77,0
1,69,0,60
1,68,96,0
1,68,0,60
1,68,81,60
1,68,0,60
1,66,68,0
1,66,0,60
1,68,87,0
1,68,0,450
1,71,59,150
1,71,0,29
1,71,43,31
1,71,0,29
1,71,78,31
1,71,0,60
1,70,88,0
1,70,0,60
1,68,74,0
1,68,0,60
1,66,70,0
1,66,0,60
1,68,91,0
1,68,0,330
1,71,69,270
1,71,0,60
1,71,91,0
1,71,0,60
1,71,99,0
1,71,0,60
1,70,106,0
1,70,0,60
1,68,76,0
1,68,0,60
1,66,62,0
1,66,0,60
1,68,78,0
1,68,0,270
1,71,58,330
1,71,0,60
1,71,59,0
1,71,0,60
1,71,84,0
1,71,0,60
1,70,105,0
1,70,0,120
1,66,42,60
1,66,0,60
1,69,84,0
1,69,0,60
1,69,96,0
1,69,0,120
1,68,100,0
1,68,0,60
1,68,94,60
1,66,67,60
1,68,0,30
1,66,0,30
1,68,77,0
1,68,0,420
1,66,88,123
1,65,67,59
1,66,0,15
1,61,74,42
1,65,0,10
1,58,66,51
1,61,0,10
1,61,65,103
1,58,0,9
1,63,71,58
1,61,0,7
1,61,77,54
1,63,0,8
1,25,37,239
1,61,0,139
1,25,0,11
2,36,64,480
2,36,0,960
2,42,77,0
2,43,61,0
2,42,0,29
2,43,0,811
2,31,86,0
2,31,0,120
2,35,45,0
2,36,75,0
2,35,0,29
2,36,0,901
2,36,47,30
2,36,0,900
2,28,82,0
2,28,0,60
2,29,83,0
2,29,0,450
2,29,74,30
2,29,0,360
2,36,80,0
2,36,0,60
2,43,74,0
2,43,0,60
2,29,77,0
2,29,0,420
2,31,71,0
2,31,0,60
2,32,82,0
2,33,64,0
2,32,0,29
2,33,0,451
2,34,106,0
2,34,0,960
2,27,99,0
2,27,0,480
2,31,97,0
2,31,0,390
2,31,80,30
2,31,0,60
2,24,78,0
2,24,0,450
2,24,77,30
2,24,0,150
2,24,78,30
2,24,0,29
2,24,82,31
2,24,0,168
2,29,36,0
2,31,92,0
2,29,0,26
2,31,0,91
2,31,62,60
2,31,0,22
2,31,57,31
2,31,0,27
2,31,59,90
2,31,0,24
2,31,37,60
2,31,0,29
2,31,53,18
2,31,0,29
2,24,50,90
2,24,0,33
2,24,57,60
2,24,0,42
2,24,51,30
2,24,0,29
2,31,73,1
2,31,0,29
2,36,82,1
2,36,0,5
2,36,72,16
2,36,0,39
2,36,62,2
2,36,0,31
2,36,52,30
2,36,0,29
2,36,52,5
2,36,0,52
2,36,61,3
2,36,0,30
2,36,38,60
2,36,0,34
2,38,74,0
2,38,0,120
2,40,77,0
2,40,0,1
2,38,23,0
2,41,105,0
2,38,0,29
2,41,0,11
2,41,82,1
2,41,0,29
2,41,74,31
2,41,0,22
2,41,41,30
2,41,0,29
2,36,68,1
2,36,0,8
2,29,49,1
2,29,0,150
2,41,37,0
2,41,0,29
2,29,70,31
2,29,0,22
2,36,59,30
2,36,0,48
2,29,66,0
2,29,0,150
2,29,55,30
2,29,0,29
2,29,78,31
2,29,0,120
2,31,58,60
2,31,0,60
2,32,64,0
2,33,69,0
2,32,0,29
2,33,0,121
