track,note,velocity,time
3,81,123,11034
3,81,0,102
3,77,117,92
3,77,0,194
3,81,110,1054
3,81,0,151
3,65,96,905
3,65,0,41
3,65,104,54
3,65,0,48
3,65,106,48
3,65,0,62
3,84,125,1955
3,84,0,199
3,81,92,4887
3,81,0,53
3,81,96,44
3,81,0,146
3,77,73,44
3,79,117,98
3,77,0,29
3,79,0,77
3,79,98,86
3,77,110,97
3,79,0,9
3,77,0,183
3,77,82,0
3,77,0,69
3,81,114,29
3,81,0,198
3,81,108,87
3,81,0,92
3,77,84,2
3,79,115,96
3,77,0,32
3,79,0,184
3,77,92,649
3,77,0,86
3,81,117,12
3,81,0,113
3,81,94,78
3,79,108,96
3,81,0,18
3,79,0,76
3,79,86,97
3,77,108,97
3,79,0,8
3,77,0,111
3,77,102,73
3,77,0,85
3,81,110,12
3,81,0,197
3,81,104,90
3,81,0,154
3,82,116,37
3,82,0,178
3,84,112,16
3,84,0,192
3,84,114,2
3,84,0,181
3,77,94,299
3,77,0,82
3,81,119,15
3,81,0,138
3,77,96,51
3,77,0,82
3,79,106,14
3,79,0,144
3,79,86,48
3,77,98,96
3,79,0,27
3,77,0,163
3,81,117,98
3,81,0,205
3,81,116,83
3,81,0,167
3,79,106,23
3,79,0,275
3,81,118,591
3,81,0,54
3,81,115,44
3,81,0,164
3,77,100,26
3,77,0,91
3,79,119,7
3,79,0,75
3,79,110,115
3,77,118,96
3,79,0,5
3,77,0,199
3,81,115,84
3,81,0,159
3,81,115,128
3,81,0,163
3,82,110,29
3,82,0,176
3,84,115,18
3,84,0,128
3,84,108,63
3,84,0,199
3,77,84,280
3,77,0,89
3,82,114,8
3,82,0,132
3,82,104,60
3,82,0,95
3,80,106,2
3,80,0,110
3,80,118,80
3,77,117,97
3,80,0,7
3,77,0,155
3,82,112,126
3,82,0,216
3,82,110,72
3,82,0,175
3,80,114,18
3,80,0,249
3,77,98,613
3,82,112,97
3,77,0,2
3,82,0,141
3,82,104,50
3,82,0,91
3,80,114,5
3,80,0,120
3,80,115,71
3,77,117,97
3,80,0,3
3,77,0,198
3,82,118,87
3,82,0,136
3,82,112,57
3,82,0,42
3,82,119,53
3,82,0,123
3,86,117,68
3,86,0,172
3,84,114,19
3,84,0,154
3,86,119,39
3,86,0,143
3,77,98,336
3,77,0,84
3,81,112,13
3,81,0,189
3,77,102,2
3,79,115,98
3,77,0,28
3,79,0,100
3,79,108,62
3,77,114,97
3,79,0,8
3,77,0,146
3,81,119,135
3,81,0,221
3,81,108,67
3,81,0,91
3,77,112,3
3,79,117,96
3,77,0,13
3,79,0,149
3,77,80,702
3,77,0,63
3,81,117,33
3,77,59,192
3,81,0,10
3,77,0,72
3,79,121,15
3,79,0,288
3,77,117,1
3,77,0,266
3,81,121,23
3,81,0,86
3,72,100,104
3,81,102,97
3,72,0,39
3,81,0,100
3,81,102,53
3,81,0,96
3,82,112,1
3,82,0,259
3,84,92,29
3,84,0,138
3,84,116,53
3,84,0,304
3,72,74,1134
3,81,115,97
3,72,0,1
3,81,0,128
3,81,100,63
3,81,0,86
3,82,110,11
3,82,0,262
3,84,106,26
3,84,0,125
3,84,102,65
3,81,98,97
3,84,0,12
3,81,0,163
3,72,82,1168
3,81,108,97
3,72,0,37
3,81,0,90
3,81,94,64
3,81,0,94
3,82,110,4
3,82,0,102
3,82,96,87
3,84,110,98
3,82,0,1
3,84,0,126
3,84,106,64
3,81,90,97
3,84,0,20
3,81,0,117
3,72,90,1206
3,81,108,97
3,72,0,40
3,81,0,69
3,81,90,82
3,81,0,89
3,82,110,8
3,82,0,266
3,84,108,23
3,84,0,105
3,84,106,85
3,81,92,99
3,84,0,33
3,81,0,153
3,81,92,2306
3,81,0,53
3,81,96,44
3,81,0,146
3,77,73,44
3,79,117,98
3,77,0,29
3,79,0,77
3,79,98,86
3,77,110,97
3,79,0,9
3,77,0,197
3,81,114,84
3,81,0,198
3,81,108,87
3,81,0,92
3,77,84,2
3,79,115,96
3,77,0,32
3,79,0,184
3,77,92,649
3,77,0,86
3,81,117,12
3,81,0,113
3,81,94,78
3,79,108,96
3,81,0,18
3,79,0,76
3,79,86,97
3,77,108,97
3,79,0,8
3,77,0,111
3,81,110,170
3,81,0,197
3,81,104,90
3,81,0,154
3,82,116,37
3,82,0,178
3,84,112,16
3,84,0,192
3,84,114,2
3,84,0,181
3,77,94,299
3,77,0,82
3,81,119,15
3,81,0,138
3,77,96,51
3,77,0,82
3,79,106,14
3,79,0,144
3,79,86,48
3,77,98,96
3,79,0,27
3,77,0,163
3,81,117,98
3,81,0,205
3,81,116,83
3,81,0,167
3,79,106,23
3,79,0,275
3,81,118,591
3,81,0,54
3,81,115,45
3,81,0,164
3,77,100,25
3,77,0,91
3,79,119,7
3,79,0,75
3,79,110,115
3,79,0,101
3,81,115,283
3,81,0,159
3,81,115,128
3,81,0,163
3,82,115,32
3,82,0,163
3,84,115,28
3,84,0,128
3,84,108,63
3,84,0,199
3,77,84,280
3,77,0,89
3,82,114,8
3,82,0,132
3,82,104,60
3,82,0,95
3,80,106,2
3,80,0,110
3,80,118,80
3,77,117,97
3,80,0,7
3,77,0,155
3,82,112,126
3,82,0,216
3,82,110,72
3,82,0,175
3,80,114,18
3,80,0,249
3,77,98,613
3,82,112,97
3,77,0,2
3,82,0,141
3,82,104,50
3,82,0,91
3,80,114,5
3,80,0,120
3,80,115,71
3,77,117,97
3,80,0,3
3,77,0,198
3,82,118,87
3,82,0,136
3,82,112,57
3,82,0,42
3,82,119,53
3,82,0,123
3,86,117,68
3,86,0,172
3,84,114,19
3,84,0,154
3,86,119,39
3,86,0,143
3,77,98,336
3,77,0,84
3,81,112,13
3,81,0,189
3,77,102,2
3,79,115,98
3,77,0,28
3,79,0,100
3,79,108,62
3,77,114,97
3,79,0,8
3,77,0,146
3,81,119,135
3,81,0,221
3,81,108,67
3,81,0,91
3,77,112,3
3,79,117,96
3,77,0,13
3,79,0,149
3,77,80,702
3,77,0,63
3,81,117,33
3,77,59,192
3,81,0,10
3,77,0,72
3,79,121,15
3,79,0,288
3,77,117,1
3,77,0,266
3,81,121,23
3,81,0,86
3,72,100,104
3,81,102,97
3,72,0,39
3,81,0,100
3,81,102,53
3,81,0,96
3,82,112,1
3,82,0,259
3,84,92,29
3,84,0,138
3,84,116,55
3,84,0,304
3,72,74,1132
3,81,115,97
3,72,0,1
3,81,0,128
3,81,100,63
3,81,0,86
3,82,110,11
3,82,0,262
3,84,106,26
3,84,0,125
3,84,102,65
3,81,98,97
3,84,0,12
3,81,0,163
3,72,71,1167
3,81,104,99
3,72,0,54
3,81,0,55
3,81,86,82
3,81,0,80
3,82,106,17
3,82,0,163
3,81,86,27
3,82,116,97
3,81,0,11
3,82,0,173
3,84,108,9
3,84,0,191
3,81,92,0
3,81,0,88
3,77,116,105
3,77,0,136
3,77,112,55
3,77,0,87
3,93,117,201
3,93,0,333
3,72,84,242
3,81,112,96
3,72,0,49
3,81,0,82
3,81,102,62
3,81,0,90
3,82,110,7
3,82,0,255
3,84,106,33
3,84,0,152
3,84,114,39
3,81,114,96
3,84,0,12
3,81,0,180
3,72,118,289
3,72,0,102
3,72,106,90
3,72,0,72
3,72,104,24
3,72,0,58
3,72,102,134
3,72,0,60
3,72,104,36
3,72,0,80
3,72,100,112
3,72,0,21
3,72,106,74
3,72,0,47
3,80,119,49
3,80,0,86
3,81,127,1165
3,77,106,94
3,81,0,6
3,79,110,91
3,77,0,23
3,79,0,113
3,81,126,826
3,77,71,95
3,81,0,5
3,77,0,73
3,81,127,1075
3,81,0,107
3,77,117,182
3,77,0,176
3,81,127,495
3,81,0,141
3,81,125,1106
3,81,0,94
3,77,117,0
3,79,118,97
3,77,0,30
3,79,0,168
3,77,84,3450
3,77,0,89
3,82,114,8
3,82,0,132
3,82,104,60
3,82,0,95
3,80,106,2
3,80,0,110
3,80,118,80
3,77,117,97
3,80,0,7
3,77,0,155
3,82,112,126
3,82,0,216
3,82,110,72
3,82,0,175
3,80,114,18
3,80,0,249
3,77,98,613
3,82,112,97
3,77,0,2
3,82,0,141
3,82,104,50
3,82,0,91
3,80,114,5
3,80,0,120
3,80,115,71
3,77,117,97
3,80,0,3
3,77,0,198
3,82,118,87
3,82,0,136
3,82,112,57
3,82,0,42
3,82,119,53
3,82,0,123
3,86,117,68
3,86,0,172
3,84,114,19
3,84,0,154
3,86,119,39
3,86,0,143
3,77,98,336
3,77,0,84
3,81,112,13
3,81,0,189
3,77,102,2
3,79,115,98
3,77,0,28
3,79,0,100
3,79,108,62
3,77,114,97
3,79,0,8
3,77,0,146
3,81,119,135
3,81,0,221
3,81,108,67
3,81,0,91
3,77,112,3
3,79,117,96
3,77,0,13
3,79,0,149
3,77,80,702
3,77,0,63
3,81,117,33
3,77,59,192
3,81,0,10
3,77,0,72
3,79,121,15
3,79,0,288
3,77,117,1
3,77,0,266
3,81,121,23
3,81,0,86
3,72,100,104
3,81,102,97
3,72,0,39
3,81,0,100
3,81,102,53
3,81,0,96
3,82,112,1
3,82,0,259
3,84,92,29
3,84,0,138
3,84,116,53
3,84,0,304
3,72,74,1134
3,81,115,97
3,72,0,1
3,81,0,128
3,81,100,63
3,81,0,86
3,82,110,11
3,82,0,262
3,84,106,26
3,84,0,125
3,84,102,65
3,81,98,97
3,84,0,12
3,81,0,163
3,72,71,1167
3,81,104,99
3,72,0,54
3,81,0,55
3,81,86,82
3,81,0,80
3,82,106,17
3,82,0,163
3,81,86,27
3,82,116,97
3,81,0,11
3,82,0,173
3,84,108,9
3,84,0,191
3,81,92,0
3,81,0,88
3,77,116,105
3,77,0,136
3,77,112,55
3,77,0,87
3,93,117,201
3,93,0,333
3,72,84,242
3,81,112,96
3,72,0,49
3,81,0,82
3,81,102,62
3,81,0,90
3,82,110,7
3,82,0,255
3,84,106,33
3,84,0,152
3,84,114,39
3,81,114,96
3,84,0,12
3,81,0,180
3,72,90,1150
3,81,115,97
3,72,0,43
3,81,0,73
3,81,88,77
3,82,115,97
3,81,0,12
3,82,0,209
3,84,115,67
3,84,0,106
3,84,112,85
3,89,98,195
3,84,0,11
3,89,0,440
3,72,94,793
3,81,102,96
3,72,0,39
3,81,0,79
3,81,90,75
3,81,0,83
3,82,114,14
3,82,0,187
3,81,84,4
3,82,108,96
3,81,0,22
3,82,0,163
3,84,106,6
3,81,84,98
3,84,0,14
3,81,0,228
3,84,94,1100
3,82,118,97
3,84,0,28
3,81,82,165
3,82,0,20
3,81,0,62
3,82,108,14
3,81,80,192
3,82,0,11
3,82,108,84
3,81,0,16
3,82,0,161
3,84,104,14
3,84,0,191
3,81,117,2
3,81,0,145
3,77,116,48
3,77,0,143
3,77,104,48
3,77,0,96
3,93,92,192
3,93,0,144
3,72,92,430
3,81,110,97
3,72,0,12
3,81,0,112
3,81,86,69
3,81,0,75
3,82,106,21
3,82,0,179
3,82,94,110
3,82,0,96
3,84,76,95
3,81,88,96
3,84,0,13
3,81,0,66
3,82,115,1554
3,82,0,140
3,82,112,143
3,82,0,163
3,80,116,34
3,80,0,93
3,77,114,2
3,77,0,57
3,77,118,40
3,77,0,134
3,77,108,60
3,77,0,147
3,80,115,138
3,80,0,163
3,80,108,122
3,80,0,59
3,80,120,40
3,79,94,95
3,80,0,7
3,77,114,90
3,79,0,24
3,77,0,142
3,77,114,120
3,77,0,141
3,80,119,148
3,80,0,154
3,80,117,133
3,80,0,55
3,80,118,44
3,79,98,94
3,80,0,4
3,77,110,94
3,79,0,25
3,77,0,114
3,77,110,145
3,77,0,130
3,80,118,160
3,80,0,146
3,80,121,141
3,80,0,109
3,80,119,86
3,77,115,95
3,80,0,4
3,77,0,81
3,80,120,12
3,80,0,126
3,80,120,67
3,80,0,110
3,77,116,83
3,77,0,94
3,80,119,95
3,80,0,147
3,77,118,46
3,77,0,131
3,80,119,60
3,80,0,117
3,77,119,75
3,77,0,147
3,77,119,48
3,77,0,133
3,92,110,441
3,92,0,192
3,89,110,95
3,89,0,207
3,92,96,369
3,92,0,194
3,89,118,94
3,89,0,162
3,96,115,127
3,96,0,266
3,84,117,1557
3,82,116,191
3,84,0,12
3,81,102,85
3,82,0,29
3,84,116,162
3,81,0,8
3,84,0,288
3,84,119,377
3,82,114,190
3,84,0,5
3,81,110,93
3,82,0,29
3,84,106,163
3,81,0,11
3,84,0,178
3,84,117,387
3,84,0,218
3,82,119,66
3,82,0,131
3,82,119,65
3,81,76,94
3,82,0,4
3,84,104,94
3,81,0,1
3,84,0,203
3,84,125,276
3,84,0,149
3,82,102,42
3,82,0,85
3,81,76,10
3,82,108,98
3,81,0,24
3,81,67,70
3,82,0,1
3,81,0,94
3,84,115,3
3,84,0,176
3,80,116,402
3,80,0,166
3,80,117,118
3,80,0,57
3,80,110,41
3,79,101,95
3,80,0,6
3,77,108,91
3,79,0,27
3,77,0,158
3,77,111,102
3,77,0,118
3,80,111,170
3,80,0,165
3,80,111,122
3,80,0,117
3,80,119,78
3,77,96,94
3,80,0,10
3,80,115,87
3,77,0,28
3,80,0,130
3,80,118,35
3,80,0,132
3,77,98,152
3,80,120,99
3,77,0,4
3,77,116,187
3,80,0,22
3,77,0,169
3,80,117,1
3,80,0,177
3,77,117,14
3,77,0,154
3,77,116,40
3,77,0,398
3,84,120,371
3,81,104,94
3,84,0,3
3,84,94,94
3,81,0,25
3,84,0,99
3,92,108,2084
3,89,102,192
3,92,0,23
3,89,0,186
3,96,112,559
3,96,0,259
3,77,94,1853
3,77,0,53
3,77,94,42
3,77,0,84
3,77,88,109
3,77,0,60
3,77,96,36
3,77,0,71
3,77,90,1273
3,77,0,48
3,77,90,47
3,77,0,74
3,77,88,120
3,77,0,48
3,77,94,47
3,77,0,72
3,77,92,120
3,77,0,55
3,77,94,41
3,77,0,54
3,80,120,1865
3,77,78,95
3,80,0,17
3,80,94,81
3,77,0,36
3,80,0,71
3,93,108,949
3,93,0,122
3,89,108,71
3,89,0,147
3,94,108,812
3,94,0,118
3,93,90,74
3,93,0,161
3,89,90,31
3,89,0,170
4,35,115,0
4,48,97,0
4,47,95,0
4,47,0,1
4,48,0,0
4,35,0,0
4,45,98,83
4,45,0,1
4,41,91,201
4,41,0,1
4,43,85,0
4,43,0,1
4,47,98,183
4,47,0,1
4,35,105,5
4,35,0,1
4,48,102,7
4,48,0,1
4,45,87,87
4,45,0,1
4,35,111,95
4,45,99,0
4,45,0,1
4,35,0,0
4,35,127,95
4,40,104,0
4,40,0,1
4,35,0,0
4,51,75,278
4,51,0,1
4,35,115,8
4,82,58,0
4,69,60,0
4,69,0,1
4,82,0,0
4,35,0,0
4,42,76,1
4,42,0,1
4,54,42,15
4,54,0,1
4,49,77,5
4,49,0,1
4,82,45,69
4,82,0,1
4,69,56,1
4,69,0,1
4,42,56,1
4,42,0,1
4,54,29,69
4,54,0,1
4,82,41,22
4,69,56,0
4,69,0,1
4,82,0,0
4,42,70,2
4,42,0,1
4,82,37,92
4,69,54,0
4,69,0,1
4,82,0,0
4,40,111,0
4,40,0,1
4,42,56,1
4,42,0,1
4,82,41,92
4,69,56,0
4,69,0,1
4,82,0,0
4,42,56,1
4,42,0,1
4,82,29,93
4,69,52,0
4,69,0,1
4,82,0,0
4,42,48,0
4,42,0,1
4,42,84,95
4,35,105,0
4,82,61,0
4,69,61,0
4,69,0,1
4,42,0,0
4,35,0,0
4,82,0,0
4,42,50,95
4,42,0,1
4,82,29,0
4,69,52,0
4,69,0,1
4,82,0,0
4,42,54,93
4,82,41,0
4,69,56,0
4,69,0,1
4,82,0,0
4,42,0,0
4,35,111,0
4,35,0,1
4,42,54,95
4,82,39,0
4,69,55,0
4,69,0,1
4,82,0,0
4,42,0,0
4,40,111,1
4,40,0,1
4,42,70,92
4,42,0,1
4,82,43,0
4,69,56,0
4,69,0,1
4,82,0,0
4,42,64,94
4,42,0,1
4,82,35,0
4,69,54,0
4,69,0,1
4,82,0,0
4,54,40,93
4,54,0,1
4,42,81,0
4,42,0,1
