track,note,velocity,time
1,71,50,0
1,71,0,960
1,74,50,0
1,72,46,120
1,74,0,24
1,71,46,96
1,72,0,24
1,72,48,96
1,71,0,24
1,74,54,96
1,72,0,24
1,74,0,336
1,71,47,0
1,71,0,120
1,67,47,0
1,67,0,480
1,79,67,480
1,79,0,720
1,81,62,0
1,81,0,120
1,79,55,0
1,79,0,120
1,78,57,0
1,76,46,120
1,78,0,24
1,74,51,96
1,76,0,24
1,73,46,96
1,74,0,24
1,74,53,96
1,73,0,24
1,74,0,336
1,71,47,0
1,71,0,120
1,67,45,0
1,67,0,480
1,72,50,480
1,72,0,360
1,69,47,0
1,69,0,120
1,66,52,0
1,66,0,120
1,69,47,120
1,69,0,120
1,71,51,120
1,71,0,120
1,72,52,120
1,72,0,120
1,74,57,120
1,74,0,360
1,71,61,0
1,71,0,120
1,79,65,0
1,79,0,480
1,81,68,480
1,79,59,120
1,81,0,12
1,78,64,108
1,79,0,12
1,79,58,108
1,78,0,12
1,79,0,108
1,78,64,0
1,76,54,120
1,78,0,12
1,75,59,108
1,76,0,12
1,76,53,108
1,75,0,12
1,76,0,108
1,74,62,0
1,72,53,120
1,74,0,12
1,71,56,108
1,72,0,12
1,72,53,108
1,71,0,12
1,72,0,108
1,71,59,0
1,71,0,360
1,72,50,0
1,72,0,60
1,71,50,0
1,71,0,60
1,69,57,0
1,69,0,240
1,74,54,0
1,73,52,240
1,74,0,10
1,72,50,230
1,73,0,10
1,72,0,230
1,71,50,0
1,71,0,600
1,67,46,0
1,71,48,113
1,67,0,7
1,71,0,113
1,74,46,0
1,74,0,120
1,72,54,7
1,72,0,120
1,69,46,0
1,69,0,120
1,72,54,0
1,72,0,120
1,76,51,0
1,76,0,120
1,74,58,0
1,74,0,360
1,71,47,0
1,71,0,120
1,67,47,0
1,67,0,60
1,67,46,60
1,67,0,60
1,69,47,60
1,69,0,60
1,71,48,60
1,71,0,60
1,72,49,60
1,72,0,60
1,74,50,60
1,74,0,60
1,76,51,60
1,76,0,60
1,78,53,60
1,78,0,60
1,79,57,60
1,78,50,120
1,79,0,24
1,79,56,96
1,78,0,24
1,78,52,96
1,79,0,24
1,81,59,96
1,78,0,24
1,79,57,96
1,81,0,24
1,78,54,96
1,79,0,24
1,79,49,96
1,78,0,24
1,78,52,96
1,79,0,24
1,76,50,96
1,78,0,24
1,74,48,96
1,76,0,24
1,73,46,96
1,74,0,24
1,74,50,96
1,73,0,24
1,74,0,96
1,71,43,0
1,71,0,120
1,74,47,0
1,74,0,120
1,71,43,0
1,71,0,120
1,67,47,0
1,67,0,480
1,72,50,480
1,72,0,120
1,69,46,0
1,69,0,120
1,72,46,0
1,72,0,120
1,69,43,0
1,69,0,120
1,66,50,0
1,66,0,60
1,69,46,60
1,69,0,120
1,68,49,0
1,68,0,120
1,69,51,0
1,69,0,120
1,70,54,0
1,70,0,120
1,71,51,0
1,71,0,120
1,72,54,0
1,72,0,120
1,73,56,0
1,73,0,120
1,74,59,0
1,74,0,120
1,71,51,0
1,71,0,120
1,74,54,0
1,74,0,120
1,71,51,0
1,71,0,120
1,79,63,0
1,79,0,480
1,83,67,120
1,78,62,120
1,83,0,24
1,79,56,96
1,78,0,24
1,79,0,96
1,75,58,0
1,76,49,120
1,75,0,24
1,72,53,96
1,76,0,24
1,69,46,96
1,72,0,24
1,69,0,96
1,67,53,0
1,67,0,360
1,67,44,0
1,67,0,120
1,66,47,0
1,71,55,0
1,69,44,120
1,71,0,24
1,67,49,96
1,69,0,24
1,69,42,96
1,67,0,24
1,69,0,89
1,66,0,7
1,66,42,0
1,69,53,0
1,69,0,480
1,66,0,0
1,67,48,0
1,67,0,480
1,71,50,480
1,71,0,960
1,74,50,0
1,72,46,120
1,74,0,24
1,71,46,96
1,72,0,24
1,72,48,96
1,71,0,24
1,74,54,96
1,72,0,24
1,74,0,336
1,71,47,0
1,71,0,120
1,67,47,0
1,67,0,480
1,79,67,480
1,79,0,720
1,81,62,0
1,81,0,120
1,79,55,0
1,79,0,120
1,78,57,0
1,76,46,120
1,78,0,24
1,74,51,96
1,76,0,24
1,73,46,96
1,74,0,24
1,74,53,96
1,73,0,24
1,74,0,336
1,71,47,0
1,71,0,120
1,67,45,0
1,67,0,480
1,72,50,480
1,72,0,360
1,69,47,0
1,69,0,120
1,66,52,0
1,66,0,120
1,69,47,120
1,69,0,120
1,71,51,120
1,71,0,120
1,72,52,120
1,72,0,120
1,74,57,120
1,74,0,360
1,71,61,0
1,71,0,120
1,79,65,0
1,79,0,480
1,81,68,480
1,79,59,120
1,81,0,12
1,78,64,108
1,79,0,12
1,79,58,108
1,78,0,12
1,79,0,108
1,78,64,0
1,76,54,120
1,78,0,12
1,75,59,108
1,76,0,12
1,76,53,108
1,75,0,12
1,76,0,108
1,74,62,0
1,72,53,120
1,74,0,12
1,71,56,108
1,72,0,12
1,72,53,108
1,71,0,12
1,72,0,108
1,71,59,0
1,71,0,360
1,72,50,0
1,72,0,60
1,71,50,0
1,71,0,60
1,69,57,0
1,69,0,240
1,74,54,0
1,73,52,240
1,74,0,10
1,72,50,230
1,73,0,10
1,72,0,230
1,71,50,0
1,71,0,600
1,67,46,0
1,71,48,113
1,67,0,7
1,71,0,113
1,74,46,0
1,74,0,120
1,72,54,7
1,72,0,120
1,69,46,0
1,69,0,120
1,72,54,0
1,72,0,120
1,76,51,0
1,76,0,120
1,74,58,0
1,74,0,360
1,71,47,0
1,71,0,120
1,67,47,0
1,67,0,60
1,67,46,60
1,67,0,60
1,69,47,60
1,69,0,60
1,71,48,60
1,71,0,60
1,72,49,60
1,72,0,60
1,74,50,60
1,74,0,60
1,76,51,60
1,76,0,60
1,78,53,60
1,78,0,60
1,79,57,60
1,78,50,120
1,79,0,24
1,79,56,96
1,78,0,24
1,78,52,96
1,79,0,24
1,81,59,96
1,78,0,24
1,79,57,96
1,81,0,24
1,78,54,96
1,79,0,24
1,79,49,96
1,78,0,24
1,78,52,96
1,79,0,24
1,76,50,96
1,78,0,24
1,74,48,96
1,76,0,24
1,73,46,96
1,74,0,24
1,74,50,96
1,73,0,24
1,74,0,96
1,71,43,0
1,71,0,120
1,74,47,0
1,74,0,120
1,71,43,0
1,71,0,120
1,67,47,0
1,67,0,480
1,72,50,480
1,72,0,120
1,69,46,0
1,69,0,120
1,72,46,0
1,72,0,120
1,69,43,0
1,69,0,120
1,66,50,0
1,66,0,60
1,69,46,60
1,69,0,120
1,68,49,0
1,68,0,120
1,69,51,0
1,69,0,120
1,70,54,0
1,70,0,120
1,71,51,0
1,71,0,120
1,72,54,0
1,72,0,120
1,73,56,0
1,73,0,120
1,74,59,0
1,74,0,120
1,71,51,0
1,71,0,120
1,74,54,0
1,74,0,120
1,71,51,0
1,71,0,120
1,79,63,0
1,79,0,480
1,83,67,120
1,78,62,120
1,83,0,24
1,79,56,96
1,78,0,24
1,79,0,96
1,75,58,0
1,76,49,120
1,75,0,24
1,72,53,96
1,76,0,24
1,69,46,96
1,72,0,24
1,69,0,96
1,67,53,0
1,67,0,360
1,67,44,0
1,67,0,120
1,66,47,0
1,71,55,0
1,69,44,120
1,71,0,24
1,67,49,96
1,69,0,24
1,69,42,96
1,67,0,24
1,69,0,89
1,66,0,7
1,69,53,0
1,66,42,0
1,66,0,480
1,69,0,0
1,67,48,0
1,67,0,480
1,74,50,480
1,74,0,600
1,73,46,0
1,76,49,120
1,73,0,24
1,74,46,96
1,76,0,24
1,79,52,96
1,74,0,24
1,78,46,96
1,79,0,24
1,76,49,96
1,78,0,24
1,74,46,96
1,76,0,24
1,73,50,96
1,74,0,24
1,73,0,336
1,74,49,0
1,74,0,120
1,76,53,0
1,76,0,480
1,76,54,480
1,76,0,600
1,75,46,0
1,78,50,120
1,75,0,24
1,76,46,96
1,78,0,24
1,81,54,96
1,76,0,24
1,79,46,96
1,81,0,24
1,78,49,96
1,79,0,24
1,76,49,96
1,78,0,24
1,74,54,96
1,76,0,24
1,74,0,336
1,76,52,0
1,76,0,120
1,78,57,0
1,78,0,480
1,78,70,480
1,78,0,600
1,76,57,0
1,79,61,120
1,76,0,24
1,78,55,96
1,79,0,24
1,83,65,96
1,78,0,24
1,81,53,96
1,83,0,24
1,79,59,96
1,81,0,24
1,78,53,96
1,79,0,24
1,76,64,96
1,78,0,24
1,76,0,576
1,75,55,0
1,78,60,120
1,75,0,24
1,76,52,96
1,78,0,24
1,81,62,96
1,76,0,24
1,79,51,96
1,81,0,24
1,78,59,96
1,79,0,24
1,76,53,96
1,78,0,24
1,76,0,91
1,76,63,5
1,76,0,120
1,74,49,0
1,74,0,120
1,74,55,0
1,74,0,360
1,69,44,0
1,69,0,120
1,74,46,0
1,74,0,120
1,78,43,0
1,78,0,120
1,73,49,0
1,78,58,0
1,76,44,120
1,78,0,24
1,74,53,96
1,76,0,24
1,76,45,96
1,74,0,24
1,76,0,91
1,73,0,5
1,73,51,0
1,76,61,0
1,76,0,480
1,73,0,0
1,74,53,0
1,74,0,90
1,75,43,30
1,76,48,120
1,75,0,12
1,75,42,108
1,76,0,12
1,78,51,108
1,75,0,12
1,76,48,108
1,78,0,12
1,74,46,108
1,76,0,12
1,72,44,108
1,74,0,12
1,71,48,108
1,72,0,12
1,71,0,588
1,67,44,0
1,67,0,120
1,71,44,0
1,74,44,113
1,71,0,7
1,74,0,113
1,72,50,7
1,72,0,120
1,69,44,0
1,69,0,120
1,72,44,0
1,72,0,120
1,76,44,0
1,76,0,120
1,74,50,0
1,74,0,360
1,71,47,0
1,71,0,120
1,67,47,0
1,67,0,60
1,67,46,60
1,67,0,60
1,69,47,60
1,69,0,60
1,71,48,60
1,71,0,60
1,72,48,60
1,72,0,60
1,74,51,60
1,74,0,60
1,76,52,60
1,76,0,60
1,78,54,60
1,78,0,60
1,79,56,60
1,78,50,120
1,79,0,24
1,79,56,96
1,78,0,24
1,78,52,96
1,79,0,24
1,81,56,96
1,78,0,24
1,79,54,96
1,81,0,24
1,78,53,96
1,79,0,24
1,79,49,96
1,78,0,24
1,78,52,96
1,79,0,24
1,76,50,96
1,78,0,24
1,74,48,96
1,76,0,24
1,73,46,96
1,74,0,24
1,74,50,96
1,73,0,24
1,74,0,96
1,71,43,0
1,71,0,120
1,74,47,0
1,74,0,120
1,71,43,0
1,71,0,120
1,67,47,0
1,67,0,480
1,72,50,480
1,72,0,120
1,69,46,0
1,69,0,120
1,72,46,0
1,72,0,120
1,69,43,0
1,69,0,120
1,66,50,0
1,66,0,60
1,69,45,60
1,69,0,120
1,68,47,0
1,68,0,120
1,69,49,0
1,69,0,120
1,70,50,0
1,70,0,120
1,71,50,0
1,71,0,120
1,72,53,0
1,72,0,120
1,73,55,0
1,73,0,120
1,74,58,0
1,74,0,120
1,71,51,0
1,71,0,120
1,74,54,0
1,74,0,120
1,71,51,0
1,71,0,120
1,79,61,0
1,79,0,480
1,83,62,120
1,78,59,120
1,83,0,24
1,79,56,96
1,78,0,24
1,79,0,96
1,75,58,0
1,76,49,120
1,75,0,24
1,72,53,96
1,76,0,24
1,69,46,96
1,72,0,24
1,67,53,96
1,69,0,24
1,67,0,336
1,67,44,0
1,67,0,120
1,66,47,0
1,71,55,0
1,69,44,120
1,71,0,24
1,67,49,96
1,69,0,24
1,69,42,96
1,67,0,24
1,69,0,91
1,66,0,5
1,66,42,0
1,69,53,0
1,69,0,480
1,66,0,0
1,67,48,0
1,67,0,480
1,74,50,480
1,74,0,600
1,73,46,0
1,76,49,120
1,73,0,24
1,74,46,96
1,76,0,24
1,79,52,96
1,74,0,24
1,78,46,96
1,79,0,24
1,76,49,96
1,78,0,24
1,74,46,96
1,76,0,24
1,73,50,96
1,74,0,24
1,73,0,336
1,74,49,0
1,74,0,120
1,76,53,0
1,76,0,480
1,76,54,480
1,76,0,600
1,75,46,0
1,78,50,120
1,75,0,24
1,76,46,96
1,78,0,24
1,81,54,96
1,76,0,24
1,79,46,96
1,81,0,24
1,78,49,96
1,79,0,24
1,76,49,96
1,78,0,24
1,74,54,96
1,76,0,24
1,74,0,336
1,76,52,0
1,76,0,120
1,78,57,0
1,78,0,480
1,78,70,480
1,78,0,600
1,76,57,0
1,79,61,120
1,76,0,24
1,78,55,96
1,79,0,24
1,83,65,96
1,78,0,24
1,81,53,96
1,83,0,24
1,79,59,96
1,81,0,24
1,78,53,96
1,79,0,24
1,76,64,96
1,78,0,24
1,76,0,576
1,75,55,0
1,78,60,120
1,75,0,24
1,76,52,96
1,78,0,24
1,81,62,96
1,76,0,24
1,79,51,96
1,81,0,24
1,78,59,96
1,79,0,24
1,76,53,96
1,78,0,24
1,76,0,91
1,76,63,5
1,76,0,120
1,74,49,0
1,74,0,120
1,74,55,0
1,74,0,360
1,69,44,0
1,69,0,120
1,74,46,0
1,74,0,120
1,78,43,0
1,78,0,120
1,73,49,0
1,78,58,0
1,76,44,120
1,78,0,24
1,74,53,96
1,76,0,24
1,76,45,96
1,74,0,24
1,76,0,91
1,73,0,5
1,73,51,0
1,76,61,0
1,76,0,480
1,73,0,0
1,74,53,0
1,74,0,90
1,75,43,30
1,76,48,120
1,75,0,12
1,75,42,108
1,76,0,12
1,78,51,108
1,75,0,12
1,76,48,108
1,78,0,12
1,74,46,108
1,76,0,12
1,72,44,108
1,74,0,12
1,71,48,108
1,72,0,12
1,71,0,588
1,67,44,0
1,67,0,120
1,71,44,0
1,74,44,113
1,71,0,7
1,74,0,113
1,72,50,7
1,72,0,120
1,69,44,0
1,69,0,120
1,72,44,0
1,72,0,120
1,76,44,0
1,76,0,120
1,74,50,0
1,74,0,360
1,71,47,0
1,71,0,120
1,67,47,0
1,67,0,60
1,67,46,60
1,67,0,60
1,69,47,60
1,69,0,60
1,71,48,60
1,71,0,60
1,72,48,60
1,72,0,60
1,74,51,60
1,74,0,60
1,76,52,60
1,76,0,60
1,78,54,60
1,78,0,60
1,79,56,60
1,78,50,120
1,79,0,24
1,79,56,96
1,78,0,24
1,78,52,96
1,79,0,24
1,81,56,96
1,78,0,24
1,79,54,96
1,81,0,24
1,78,53,96
1,79,0,24
1,79,49,96
1,78,0,24
1,78,52,96
1,79,0,24
1,76,50,96
1,78,0,24
1,74,48,96
1,76,0,24
1,73,46,96
1,74,0,24
1,74,50,96
1,73,0,24
1,74,0,96
1,71,43,0
1,71,0,120
1,74,47,0
1,74,0,120
1,71,43,0
1,71,0,120
1,67,47,0
1,67,0,480
1,72,50,480
1,72,0,120
1,69,46,0
1,69,0,120
1,72,46,0
1,72,0,120
1,69,43,0
1,69,0,120
1,66,50,0
1,66,0,60
1,69,45,60
1,69,0,120
1,68,47,0
1,68,0,120
1,69,49,0
1,69,0,120
1,70,50,0
1,70,0,120
1,71,50,0
1,71,0,120
1,72,53,0
1,72,0,120
1,73,55,0
1,73,0,120
1,74,58,0
1,74,0,120
1,71,51,0
1,71,0,120
1,74,54,0
1,74,0,120
1,71,51,0
1,71,0,120
1,79,61,0
1,79,0,480
1,83,62,120
1,78,59,120
1,83,0,24
1,79,56,96
1,78,0,24
1,79,0,96
1,75,58,0
1,76,49,120
1,75,0,24
1,72,53,96
1,76,0,24
1,69,46,96
1,72,0,24
1,67,53,96
1,69,0,24
1,67,0,336
1,67,44,0
1,67,0,120
1,66,47,0
1,71,55,0
1,69,44,120
1,71,0,24
1,67,49,96
1,69,0,24
1,69,42,96
1,67,0,24
1,69,0,91
1,66,0,5
1,66,42,0
1,69,53,0
1,69,0,480
1,66,0,0
1,67,48,0
1,67,0,480
1,70,50,480
1,70,0,600
1,69,46,0
1,72,46,120
1,69,0,24
1,70,46,96
1,72,0,24
1,70,0,91
1,70,50,5
1,69,46,120
1,70,0,24
1,67,46,96
1,69,0,24
1,66,46,96
1,67,0,24
1,67,50,96
1,66,0,24
1,67,0,336
1,70,56,0
1,70,0,120
1,74,62,0
1,74,0,480
1,74,64,480
1,74,0,600
1,73,57,0
1,75,59,120
1,73,0,24
1,74,55,96
