track,note,velocity,time
1,53,127,42278
1,55,127,0
1,58,127,0
1,62,127,0
1,74,127,64
1,82,127,96
1,74,79,32
1,82,123,0
1,81,107,78
1,72,103,0
1,70,103,66
1,79,99,0
1,77,115,86
1,69,91,0
1,69,95,0
1,77,127,0
1,67,103,94
1,75,127,4
1,67,103,50
1,75,127,2
1,72,127,386
1,84,115,94
1,82,127,4
1,72,95,98
1,81,115,2
1,79,99,32
1,70,107,0
1,69,87,50
1,77,127,2
1,67,107,0
1,75,127,0
1,74,107,64
1,65,79,0
1,74,127,46
1,65,127,0
1,69,127,32
1,71,127,2
1,72,127,2
1,75,115,16
1,74,103,18
1,77,127,94
1,78,123,80
1,81,111,46
1,82,127,48
1,74,63,4
1,86,91,0
1,74,63,2
1,86,91,0
1,75,123,110
1,87,103,0
1,74,71,94
1,86,99,0
1,73,99,2
1,85,103,0
1,74,87,0
1,86,103,0
1,79,91,96
1,91,107,4
1,77,115,64
1,89,99,2
1,75,91,66
1,87,107,0
1,74,95,48
1,86,87,2
1,75,123,18
1,87,95,0
1,72,95,30
1,84,107,2
1,72,115,132
1,81,127,2
1,74,95,50
1,82,127,2
1,75,103,52
1,84,127,0
1,75,103,84
1,84,115,0
1,77,87,50
1,86,127,0
1,79,83,48
1,87,127,0
1,81,91,36
1,89,103,0
1,75,87,94
1,84,103,0
1,74,115,50
1,82,91,0
1,86,103,16
1,84,103,14
1,82,123,48
1,81,123,44
1,82,111,46
1,81,115,48
1,79,103,48
1,77,95,62
1,69,123,0
1,70,127,66
1,72,127,68
1,74,127,46
1,53,127,12288
1,55,127,0
1,58,127,0
1,62,127,0
1,74,127,66
1,82,127,96
1,74,79,32
1,82,123,0
1,72,103,96
1,81,107,2
1,70,103,66
1,79,99,2
1,77,115,82
1,69,91,0
1,69,95,2
1,77,127,0
1,75,127,94
1,67,103,0
1,67,103,46
1,75,127,2
1,72,127,384
1,84,115,98
1,82,127,0
1,81,115,96
1,72,95,0
1,70,107,32
1,79,99,2
1,69,87,48
1,77,127,2
1,67,107,2
1,75,127,0
1,74,107,62
1,65,79,0
1,65,127,48
1,74,127,2
1,69,127,34
1,71,127,0
1,72,127,0
1,75,115,18
1,74,103,16
1,77,127,96
1,78,123,82
1,81,111,50
1,82,127,46
1,86,91,0
1,74,63,0
1,74,63,2
1,86,91,0
1,75,123,114
1,87,103,0
1,74,71,96
1,86,99,0
1,85,103,2
1,73,99,0
1,74,87,2
1,86,103,0
1,79,91,96
1,91,107,2
1,77,115,64
1,89,99,0
1,75,91,66
1,87,107,0
1,86,87,46
1,74,95,0
1,75,123,18
1,87,95,0
1,72,95,18
1,84,107,2
1,89,127,4656
1,88,127,770
1,87,127,736
1,86,127,750
1,53,83,1568
1,55,87,4
1,58,107,2
2,74,95,40378
2,82,99,0
2,82,103,2
2,81,95,192
2,79,103,2
2,77,115,192
2,77,83,32
2,75,99,290
2,75,75,32
2,72,127,674
2,84,99,16
2,82,127,96
2,81,103,0
2,79,123,2
2,77,91,192
2,75,127,176
2,74,99,272
2,74,95,34
2,69,99,16
2,71,107,96
2,72,103,2
2,75,91,94
2,74,75,0
2,77,103,96
2,78,95,78
2,81,83,18
2,82,79,96
2,74,75,272
2,74,67,32
2,75,91,0
2,74,123,0
2,73,99,0
2,74,91,0
2,79,103,196
2,77,127,0
2,75,127,192
2,74,99,22
2,75,103,188
2,72,63,16
2,81,103,210
2,72,95,0
2,82,99,0
2,74,7,0
2,75,127,2
2,84,59,0
2,75,75,38
2,84,79,2
2,86,63,0
2,77,31,0
2,87,115,0
2,79,71,0
2,77,75,0
2,86,47,0
2,75,95,82
2,84,83,0
2,74,75,14
2,82,107,2
2,86,87,0
2,84,75,2
2,82,115,64
2,81,99,2
2,82,99,94
2,81,103,78
2,79,79,16
2,77,99,16
2,69,83,16
2,70,103,0
2,72,83,0
2,74,95,0
2,75,83,98
2,74,67,14
2,77,63,768
2,79,31,0
2,75,47,2302
2,74,83,0
2,79,95,2
2,81,91,2
2,75,63,448
2,74,79,382
2,77,79,14
2,79,63,0
2,72,127,13120
2,74,115,0
2,75,127,0
2,75,99,32
2,75,115,16
2,74,127,0
2,79,127,16
2,81,127,0
2,82,127,0
2,82,83,32
2,81,127,198
2,79,115,4
2,82,115,3440
2,79,63,18
2,72,43,190
2,81,63,0
2,74,67,2
2,72,55,0
2,70,11,32
3,43,127,12958
3,36,127,14
3,41,127,0
3,34,127,1534
3,33,127,2
3,38,127,16
3,43,127,0
3,36,127,1536
3,41,127,16
3,41,115,80
3,34,123,16
3,34,127,50
3,33,127,14
3,33,127,98
3,44,127,16
3,43,127,34
3,43,127,32
3,42,127,0
3,42,127,82
3,41,127,30
3,41,127,64
3,40,127,16
3,40,95,48
3,39,127,192
3,39,115,46
3,38,83,198
3,38,103,62
3,43,127,2
3,43,127,82
3,44,115,0
3,45,115,0
3,36,127,2
3,37,127,16
3,38,103,34
3,41,103,288
3,42,115,2
3,43,123,46
3,43,103,48
3,42,127,0
3,42,127,64
3,41,127,16
3,41,99,48
3,40,127,18
3,40,71,32
3,39,127,20
3,39,127,98
3,38,127,16
3,36,127,194
3,36,103,48
3,38,127,194
3,43,127,46
3,43,71,64
3,36,107,34
3,36,87,82
3,48,103,18
3,48,87,32
3,48,95,50
3,46,115,30
3,45,67,0
3,43,91,16
3,41,127,2
3,41,91,80
3,41,107,62
3,29,107,64
3,31,91,18
3,33,103,16
3,34,127,98
3,34,127,64
3,33,127,2
3,33,127,44
3,38,95,16
3,41,103,0
3,42,99,16
3,43,99,0
3,43,75,64
3,31,127,62
3,43,83,32
3,36,107,18
3,36,83,80
3,48,103,16
3,48,95,64
3,46,123,16
3,45,47,2
3,43,103,0
3,41,107,18
3,41,103,64
3,29,127,66
3,29,103,80
3,31,75,16
3,33,103,16
3,34,127,18
3,34,115,80
3,33,127,34
3,33,87,32
3,33,95,32
3,43,127,34
3,43,127,32
3,42,127,4
3,42,127,82
3,41,127,32
3,41,127,64
3,40,127,16
3,40,95,48
3,39,127,194
3,39,115,48
3,38,83,194
3,38,103,66
3,43,127,0
3,43,127,80
3,44,115,0
3,45,115,0
3,36,127,2
3,37,127,16
3,38,103,32
3,41,103,288
3,42,115,0
3,43,123,50
3,43,103,48
3,42,127,0
3,42,127,62
3,41,127,16
3,41,99,50
3,40,127,14
3,40,71,32
3,39,127,16
3,39,127,96
3,38,127,16
3,36,127,192
3,36,103,48
3,38,127,194
3,43,127,48
3,43,71,64
3,36,107,34
3,36,87,80
3,48,103,16
3,48,87,32
3,48,95,50
3,46,115,32
3,45,67,2
3,43,91,18
3,41,127,96
3,41,91,80
3,41,107,64
3,29,107,64
3,31,91,16
3,33,103,16
3,34,127,98
3,34,127,64
3,33,127,0
3,33,127,46
3,38,95,18
3,41,103,4
3,42,99,16
3,43,99,0
3,43,75,64
3,31,127,66
3,43,83,34
3,36,107,20
3,36,83,80
3,48,103,18
3,48,95,64
3,46,123,16
3,45,47,4
3,43,103,0
3,33,127,20
3,33,107,46
3,38,127,16
3,38,127,32
3,41,95,192
3,42,115,34
3,43,127,32
3,43,127,68
3,36,127,190
3,36,127,80
3,34,127,30
3,33,127,36
3,36,127,0
3,37,127,2
3,38,127,18
3,41,123,194
3,40,127,18
3,39,127,2
3,38,127,80
3,36,127,80
3,38,127,160
3,42,127,18
3,43,127,384
4,86,87,46
4,82,123,2790
4,79,75,2
4,67,83,768
4,75,115,2
4,72,103,2
4,48,127,0
4,70,107,0
4,69,87,388
4,55,127,0
4,50,127,744
4,66,51,270
4,67,15,258
4,70,15,0
4,43,99,46
4,62,19,11294
4,55,7,18
4,58,3,30
4,67,23,1104
4,60,19,62
4,63,3,0
4,48,59,0
4,65,27,2
4,57,31,64
4,60,7,30
4,53,3,16
4,63,31,446
4,62,31,32
4,46,3,32
4,58,31,0
4,46,67,46
4,63,51,66
4,55,27,0
4,45,63,0
4,60,59,0
4,62,83,168
4,67,99,0
4,69,87,0
4,70,39,0
4,74,35,142
4,70,35,0
4,67,67,18
4,65,47,0
4,63,7,30
4,67,23,16
4,48,63,352
4,60,35,222
4,65,63,192
4,60,27,48
4,48,39,64
4,57,19,32
4,60,27,0
4,53,11,16
4,63,31,112
4,58,23,2
4,62,71,2
4,46,3,30
4,46,39,64
4,45,63,0
4,53,47,0
4,60,79,0
4,57,55,0
4,58,91,176
4,60,87,160
4,62,91,158
4,43,87,2
4,55,35,16
4,55,83,2
4,54,103,50
4,42,115,0
4,41,103,34
4,53,87,0
4,67,39,400
4,79,35,0
4,52,103,20
4,40,83,0
4,51,79,96
4,50,55,0
4,43,19,748
4,62,27,2
4,58,3,0
4,55,31,12
4,43,79,24
4,60,83,50
4,63,75,2
4,45,87,2
4,62,107,168
4,50,99,34
4,67,127,2
4,57,107,0
4,66,95,0
4,43,83,28
4,55,71,2
4,54,63,50
4,42,115,0
4,53,87,30
4,41,79,18
4,79,11,370
4,67,43,0
4,40,71,34
4,52,79,0
4,79,79,50
4,51,91,0
4,39,83,0
4,51,31,66
4,58,55,48
4,51,95,0
4,63,75,0
4,62,83,2
4,50,91,2
4,63,31,0
4,60,79,0
4,48,87,6
4,55,23,2
4,63,127,48
4,45,123,48
4,63,27,14
4,50,95,16
4,50,75,0
4,67,79,16
4,62,71,0
4,57,75,0
4,66,71,0
4,43,63,2
4,65,127,8432
4,63,127,16
4,62,127,194
4,63,127,176
4,60,127,2
4,57,127,1150
4,58,115,18
4,62,87,0
4,57,83,66
4,60,127,0
4,65,127,0
4,55,35,18
4,55,83,0
4,54,103,48
4,42,115,0
4,41,103,34
4,53,87,0
4,67,39,400
4,79,35,0
4,52,103,0
4,40,83,0
4,51,79,90
4,50,55,0
4,43,19,748
4,62,27,2
4,58,3,2
4,55,31,14
4,43,79,22
4,63,75,50
4,60,83,0
4,45,87,0
4,62,107,170
4,57,107,0
4,67,127,0
4,50,99,0
4,66,95,0
4,43,83,28
4,55,71,2
4,42,115,50
4,54,63,0
4,53,87,32
4,41,79,20
4,67,43,364
4,79,11,2
4,52,79,36
4,40,71,0
4,79,79,32
4,39,83,0
4,51,91,0
4,51,31,66
4,58,55,48
4,51,95,0
4,63,75,0
4,50,91,0
4,62,83,0
4,63,31,0
4,60,79,6
4,48,87,2
4,55,23,0
4,63,127,48
4,45,123,48
4,63,27,12
4,50,95,16
4,50,75,2
4,67,79,12
4,62,71,0
4,57,75,0
4,66,71,0
4,43,63,2
4,62,39,16
4,58,39,0
4,63,39,1522
4,55,51,930
4,58,75,62
4,63,75,0
4,65,59,0
4,67,47,0
4,65,83,86
4,60,63,0
4,57,67,0
4,63,91,34
4,62,47,20
4,58,87,0
4,63,79,34
4,60,83,0
4,55,3,0
4,62,79,52
4,67,59,0
4,79,71,0
4,81,95,178
4,70,115,22
4,81,115,2
4,86,47,2
4,79,91,22
4,77,103,190
4,60,59,0
4,72,67,0
4,75,63,0
4,79,59,0
4,81,59,8
4,75,63,0
4,72,67,0
4,77,79,28
4,70,71,0
4,65,127,0
4,63,127,16
4,72,79,194
4,62,127,0
4,63,127,174
4,63,35,0
4,60,51,0
4,55,51,0
4,67,87,50
4,62,95,0
4,57,95,0
4,66,115,0
4,67,103,0
4,58,127,0
4,60,67,30
4,62,127,2
4,63,127,0
4,57,127,0
4,62,127,16
4,67,99,2
4,66,127,368
4,79,59,64
4,82,123,1922
4,79,103,362
4,72,83,340
4,67,87,0
4,75,103,2
4,74,127,0
4,62,115,384
4,65,87,0
4,67,99,0
4,70,107,0
5,74,79,0
5,70,87,0
5,67,87,0
5,65,83,0
5,74,87,98
5,70,103,0
5,67,87,0
5,65,79,0
5,74,83,34
5,70,75,0
5,67,95,0
5,64,63,0
5,74,87,82
5,70,95,0
5,67,103,0
5,64,95,0
5,74,67,18
5,70,75,0
5,67,99,0
5,63,59,0
5,74,75,18
5,70,79,0
5,67,99,0
5,63,87,0
5,74,79,18
5,70,75,0
5,67,91,0
5,62,63,0
5,82,127,98
5,62,75,0
5,81,95,48
5,79,127,32
5,74,79,32
5,75,127,14
5,60,63,0
5,60,79,112
5,71,127,64
5,72,127,16
5,67,115,0
5,60,91,0
5,63,127,48
5,62,127,0
5,48,103,0
5,60,127,190
5,55,127,0
5,45,91,0
5,67,127,274
5,57,87,0
5,66,127,16
5,67,127,96
5,69,103,16
5,67,127,10
5,50,103,0
5,66,127,0
5,60,127,14
5,50,71,0
5,57,95,32
5,67,103,14
5,62,107,0
5,58,115,0
5,55,91,0
5,43,83,0
5,62,83,160
5,58,91,0
5,67,107,4
5,67,103,160
5,62,83,0
5,58,87,0
5,55,43,0
5,67,127,16
5,62,103,0
5,58,103,0
5,55,95,0
5,53,87,0
5,55,83,2
5,67,115,48
5,63,91,0
5,60,71,0
5,55,87,0
5,48,83,0
5,55,71,80
5,67,123,32
5,63,91,0
5,60,91,0
5,55,91,2
5,48,87,48
5,55,103,18
5,58,123,4
5,65,95,2
5,67,115,2
5,63,123,174
5,62,127,18
5,58,99,0
5,55,91,0
5,48,83,0
5,63,95,2
5,65,83,16
5,60,63,0
5,57,71,0
5,53,71,0
5,41,63,0
5,53,43,0
5,65,99,0
5,60,103,0
5,57,103,0
5,53,79,16
5,65,99,160
5,60,83,0
5,57,87,0
5,53,99,176
5,65,75,80
5,63,91,0
5,60,87,0
5,57,91,0
5,53,63,0
5,41,91,0
5,53,95,0
5,65,91,80
5,62,95,0
5,58,95,0
5,53,59,0
5,46,47,0
5,53,75,0
5,65,103,32
5,62,115,0
5,58,115,0
5,53,103,0
5,63,123,18
5,60,115,0
5,55,91,0
5,45,103,0
5,62,95,0
5,67,115,34
5,62,91,0
5,57,91,0
5,50,43,0
5,38,55,0
5,66,83,32
5,67,79,0
5,62,67,0
5,58,63,0
5,55,35,0
5,43,71,0
5,55,43,0
5,67,127,160
5,62,99,0
5,58,107,0
5,55,87,0
5,67,87,0
5,62,75,0
5,58,83,0
5,55,91,0
5,53,71,0
5,55,43,0
5,67,99,142
5,62,91,0
5,58,87,0
5,55,67,0
5,67,83,32
5,63,59,0
5,60,79,0
5,55,47,0
5,48,67,0
5,55,67,80
5,67,123,34
5,63,123,0
5,60,95,0
5,55,91,0
5,48,79,94
5,65,91,34
5,63,107,0
5,58,99,0
5,36,87,0
5,55,67,18
5,65,91,0
5,63,127,0
5,58,103,0
5,55,35,0
5,55,107,0
5,48,55,2
5,65,95,34
5,60,71,0
5,57,83,0
5,41,91,0
5,53,63,0
5,65,103,16
5,60,87,0
5,57,83,0
5,53,75,2
5,65,99,0
5,60,75,0
5,57,83,0
5,53,95,192
5,63,127,146
5,60,107,0
5,57,95,0
5,53,67,18
5,41,71,0
5,62,79,34
5,58,75,0
5,53,83,0
5,46,83,0
5,53,55,96
5,62,127,160
5,58,123,0
5,53,115,0
5,46,79,0
5,63,107,18
5,60,107,0
5,55,87,0
5,45,103,0
5,62,107,2
5,67,103,48
5,62,75,0
5,57,91,0
5,50,71,0
5,38,75,0
5,66,83,48
5,67,83,16
5,62,71,0
5,58,51,0
5,55,19,0
5,43,83,0
5,55,71,112
5,67,107,0
5,62,103,0
5,58,91,0
5,55,83,0
5,67,99,18
5,62,79,0
5,58,83,0
5,55,83,0
5,53,75,0
5,55,47,96
5,67,123,34
5,62,107,0
5,58,99,0
5,55,91,0
5,53,83,0
5,67,95,32
5,63,67,0
5,60,59,0
5,55,79,0
5,48,83,0
5,55,59,18
5,67,107,110
5,63,115,0
5,60,95,0
5,55,95,16
5,48,103,62
5,65,95,0
5,63,127,0
5,58,107,0
5,55,87,16
5,65,123,176
5,63,127,0
5,58,107,0
5,55,87,178
5,36,79,18
5,41,91,20
5,57,95,2
5,60,91,2
5,65,91,2
5,53,63,18
5,65,103,18
5,60,99,0
5,57,95,0
5,53,79,0
5,65,95,0
5,60,83,0
5,57,87,0
5,53,87,0
5,63,123,140
5,60,123,0
5,57,103,0
5,53,107,0
5,62,91,18
5,58,99,0
5,53,83,0
5,46,115,0
