track,note,velocity,time
0,42,80,0
0,42,80,93
0,42,84,93
0,42,88,93
0,42,62,93
0,42,62,93
0,42,72,93
0,42,76,93
0,36,62,45
0,40,62,0
0,36,72,21
0,62,76,21
0,55,64,0
0,58,60,0
0,51,52,0
0,36,46,0
0,48,52,0
0,36,82,0
0,42,54,0
0,51,54,0
0,42,23,45
0,62,37,0
0,58,30,0
0,51,29,0
0,42,12,2
0,42,56,21
0,51,24,0
0,42,46,45
0,55,56,0
0,62,44,0
0,58,44,0
0,51,44,0
0,46,50,3
0,36,66,21
0,42,42,0
0,51,32,0
0,42,36,45
0,55,23,0
0,58,36,0
0,51,30,0
0,42,25,4
0,42,56,21
0,51,24,0
0,42,25,45
0,62,46,0
0,55,48,0
0,58,44,0
0,51,40,0
0,42,32,4
0,36,66,21
0,42,58,0
0,51,32,0
0,42,40,45
0,55,52,0
0,62,38,0
0,58,52,0
0,51,37,0
0,42,42,6
0,42,44,21
0,51,1,0
0,42,36,45
0,55,46,0
0,62,36,0
0,58,46,0
0,51,37,0
0,46,42,1
0,36,72,21
0,42,40,0
0,51,26,0
0,42,34,45
0,62,54,0
0,55,60,0
0,58,56,0
0,51,54,0
0,42,25,9
0,42,48,21
0,51,7,0
0,42,36,45
0,55,22,0
0,62,38,0
0,58,37,0
0,51,34,0
0,42,21,1
0,36,58,9
0,53,64,0
0,60,58,0
0,48,52,0
0,63,66,0
0,56,64,0
0,36,68,0
0,42,50,0
0,51,36,0
0,42,44,2
0,60,64,0
0,53,52,0
0,63,50,0
0,56,58,0
0,42,30,21
0,42,62,1
0,51,12,0
0,42,52,45
0,60,54,0
0,53,40,0
0,56,56,0
0,63,44,0
0,46,48,1
0,36,66,20
0,42,44,0
0,51,34,0
0,42,50,45
0,60,58,0
0,53,46,0
0,63,44,0
0,56,56,0
0,42,28,2
0,42,58,21
0,51,8,0
0,42,44,45
0,53,42,0
0,60,44,0
0,56,56,0
0,63,44,0
0,42,22,2
0,36,68,21
0,42,54,0
0,51,38,0
0,42,42,45
0,60,56,0
0,63,44,0
0,53,52,0
0,56,56,0
0,42,30,1
0,42,58,21
0,51,6,0
0,42,56,45
0,60,44,0
0,63,46,0
0,53,54,0
0,56,56,0
0,46,46,6
0,36,68,21
0,42,42,0
0,51,38,0
0,42,44,45
0,63,46,0
0,60,56,0
0,56,62,0
0,53,58,0
0,42,30,7
0,42,54,21
0,51,10,0
0,42,50,45
0,63,46,0
0,53,36,0
0,60,50,0
0,56,56,0
0,36,56,5
0,48,60,0
0,60,68,0
0,65,80,0
0,57,80,0
0,36,68,0
0,42,54,0
0,51,36,0
0,42,54,45
0,60,60,0
0,65,60,0
0,57,62,0
0,42,26,19
0,42,70,9
0,51,20,0
0,42,50,40
0,57,54,0
0,60,46,0
0,65,52,0
0,46,56,2
0,36,68,21
0,42,42,0
0,51,32,0
0,42,36,45
0,60,48,0
0,65,46,0
0,57,54,0
0,42,13,5
0,42,70,21
0,51,20,0
0,42,44,45
0,65,28,0
0,60,50,0
0,57,54,0
0,42,19,8
0,36,64,21
0,42,56,0
0,51,34,0
0,42,44,45
0,65,35,0
0,60,60,0
0,57,54,0
0,42,28,8
0,42,30,21
0,51,22,0
0,42,70,45
0,60,60,0
0,65,44,0
0,57,54,0
0,46,40,9
0,36,52,21
0,42,44,0
0,51,32,0
0,42,52,45
0,65,20,0
0,60,52,0
0,57,56,0
0,42,32,9
0,42,58,21
0,51,10,0
0,42,52,45
0,65,60,0
0,60,64,0
0,57,56,0
0,42,10,8
0,57,66,16
0,36,62,0
0,66,64,0
0,63,64,0
0,60,72,0
0,48,64,0
0,36,72,0
0,42,54,0
0,51,36,0
0,42,30,19
0,60,48,0
0,63,50,0
0,66,50,0
0,57,44,0
0,42,40,3
0,42,48,14
0,51,9,0
0,42,46,45
0,60,56,0
0,66,50,0
0,57,44,0
0,63,50,0
0,46,52,4
0,36,62,21
0,42,32,0
0,51,34,0
0,42,54,45
0,60,56,0
0,66,56,0
0,63,54,0
0,57,56,0
0,42,15,4
0,42,48,21
0,51,20,0
0,42,40,45
0,66,58,0
0,60,60,0
0,57,64,0
0,63,52,0
0,42,29,10
0,36,52,21
0,42,66,0
0,51,42,0
0,42,32,45
0,63,58,0
0,57,62,0
0,60,60,0
0,66,60,0
0,42,30,13
0,42,58,21
0,51,12,0
0,42,54,45
0,66,39,0
0,60,56,0
0,57,54,0
0,63,48,0
0,46,60,13
0,36,58,21
0,42,48,0
0,51,36,0
0,42,44,45
0,57,44,0
0,66,46,0
0,60,40,0
0,63,50,0
0,42,20,12
0,42,54,21
0,51,28,0
0,42,42,45
0,60,28,0
0,63,38,0
0,57,28,0
0,66,42,0
0,42,28,1
0,24,108,21
0,63,97,0
0,67,88,0
0,72,97,0
0,79,78,0
0,84,87,0
0,84,88,0
0,72,102,0
0,36,100,0
0,48,108,0
0,72,117,0
0,75,96,0
0,79,82,0
0,84,96,0
0,36,92,0
0,52,92,0
0,27,127,2
0,63,92,0
0,67,88,0
0,70,76,0
0,79,78,0
0,82,66,0
0,82,92,0
0,70,88,0
0,39,112,0
0,70,112,0
0,75,88,0
0,82,104,0
0,49,88,0
0,36,80,0
0,57,92,283
0,27,112,2
0,63,92,0
0,67,97,0
0,70,88,0
0,79,87,0
0,82,78,0
0,82,102,0
0,70,97,0
0,39,100,0
0,70,104,0
0,75,88,0
0,79,80,0
0,82,96,0
0,36,97,0
0,29,117,6
0,60,76,0
0,65,92,0
0,69,80,0
0,77,82,0
0,81,70,0
0,81,92,0
0,69,92,0
0,41,100,0
0,72,92,0
0,77,108,0
0,81,108,0
0,36,92,0
0,49,84,0
0,24,96,3
0,48,88,0
0,60,68,0
0,63,84,0
0,67,88,0
0,75,74,0
0,79,78,0
0,67,88,0
0,79,84,0
0,36,88,0
0,48,92,0
0,72,82,0
0,75,92,0
0,79,76,0
0,36,84,0
0,52,88,0
0,40,84,24
0,40,84,21
0,40,66,24
0,36,117,21
0,40,84,0
0,34,104,2
0,42,68,0
0,36,76,0
0,36,74,5
0,56,58,0
0,42,56,0
0,62,60,21
0,39,86,2
0,42,56,0
0,40,64,0
0,36,76,0
0,56,62,17
0,41,96,4
0,42,56,0
0,62,64,0
0,36,86,2
0,42,56,0
0,36,76,0
0,62,64,21
0,42,56,19
0,24,84,21
0,46,50,0
0,42,56,6
0,36,76,0
0,39,81,0
0,40,64,0
0,64,36,0
0,42,56,45
0,36,74,21
0,34,104,4
0,42,56,0
0,36,76,0
0,36,82,5
0,42,56,0
0,56,56,0
0,62,66,21
0,39,86,21
0,42,56,0
0,40,64,0
0,36,76,0
0,56,56,18
0,41,104,5
0,42,56,0
0,62,62,0
0,36,104,4
0,42,56,0
0,36,76,0
0,62,62,0
0,62,54,21
0,42,56,20
0,24,74,21
0,46,28,0
0,64,52,0
0,36,76,6
0,42,56,0
0,40,64,0
0,39,81,0
0,42,56,45
0,36,96,21
0,46,64,0
0,34,104,2
0,42,56,0
0,36,76,0
0,36,86,2
0,42,56,0
0,56,60,0
0,62,58,21
0,39,84,21
0,42,56,0
0,40,64,0
0,36,76,0
0,56,58,21
0,41,104,5
0,42,56,0
0,62,56,0
0,36,100,3
0,36,76,0
0,42,56,0
0,62,54,0
0,62,54,21
0,42,56,20
0,24,76,21
0,46,27,0
0,64,54,0
0,42,56,6
0,39,81,0
0,40,64,0
0,36,76,0
0,42,56,45
0,36,100,21
0,34,104,24
0,42,56,0
0,36,76,0
0,36,84,2
0,42,56,0
0,56,56,0
0,62,58,21
0,39,82,21
0,42,56,0
0,40,64,0
0,36,76,0
0,56,58,20
0,41,104,2
0,42,56,0
0,62,52,0
0,36,104,9
0,42,56,0
0,36,76,0
0,62,54,21
0,42,56,21
0,84,88,0
0,24,78,16
0,46,28,0
0,64,56,0
0,36,76,11
0,42,56,0
0,40,64,0
0,39,81,0
0,79,72,21
0,42,56,2
0,36,82,2
0,46,37,0
0,34,104,17
0,42,80,0
0,36,76,0
0,77,56,0
0,36,74,5
0,42,56,0
0,56,58,0
0,62,60,21
0,39,86,21
0,42,56,0
0,40,64,0
0,36,76,0
0,56,62,17
0,41,96,4
0,42,56,0
0,62,64,0
0,36,86,2
0,42,56,0
0,36,76,0
0,62,64,21
0,42,56,19
0,24,84,21
0,46,50,0
0,42,56,6
0,36,76,0
0,39,81,0
0,40,64,0
0,64,36,0
0,42,56,45
0,36,74,21
0,34,104,4
0,42,56,0
0,36,76,0
0,36,82,5
0,42,56,0
0,56,56,0
0,62,66,21
0,39,86,21
0,42,56,0
0,40,64,0
0,36,76,0
0,56,56,18
0,41,104,5
0,42,56,0
0,62,62,0
0,36,104,4
0,42,56,0
0,36,76,0
0,62,62,0
0,62,54,21
0,70,58,0
0,42,56,20
0,24,74,21
0,46,28,0
0,64,52,0
0,36,76,6
0,42,56,0
0,40,64,0
0,39,81,0
0,65,28,0
0,63,36,21
0,42,56,24
0,36,96,21
0,46,64,0
0,34,104,2
0,42,56,0
0,36,76,0
0,62,26,0
0,36,86,2
0,42,56,0
0,56,60,0
0,62,58,2
0,39,84,14
0,42,56,0
0,40,64,0
0,36,76,0
0,56,58,13
0,41,104,5
0,42,56,0
0,62,56,0
0,36,100,3
0,36,76,0
0,42,56,0
0,62,54,0
0,55,52,0
0,62,54,3
0,58,52,0
0,42,56,11
0,72,39,0
0,24,76,21
0,46,27,0
0,64,54,0
0,77,64,0
0,42,56,6
0,39,81,0
0,40,64,0
0,36,76,0
0,79,58,0
0,84,62,12
0,42,56,21
0,36,100,21
0,34,104,24
0,42,56,0
0,36,76,0
0,36,84,2
0,42,56,0
0,56,56,0
0,62,58,21
0,39,82,21
0,42,56,0
0,40,64,0
0,36,76,0
0,56,58,20
0,41,104,2
0,42,56,0
0,62,52,0
0,36,104,9
0,42,56,0
0,36,76,0
0,62,54,21
0,58,68,0
0,42,56,5
0,66,102,0
0,70,92,0
0,65,32,0
0,24,78,21
0,46,28,0
0,64,56,0
0,63,32,0
0,36,76,2
0,42,56,0
0,40,64,0
0,39,81,0
0,65,92,0
0,70,88,0
0,42,56,9
0,36,82,21
0,46,37,0
0,34,104,17
0,60,60,0
0,53,66,0
0,57,64,0
0,42,68,0
0,36,76,0
0,36,74,5
0,42,56,0
0,56,58,0
0,62,60,21
0,39,86,21
0,42,56,0
0,40,64,0
0,36,76,0
0,56,62,17
0,41,96,4
0,42,56,0
0,62,64,0
0,36,86,2
0,42,56,0
0,36,76,0
0,62,64,21
0,58,68,1
0,42,56,0
0,24,84,13
0,46,50,0
0,60,60,6
0,42,56,0
0,36,76,0
0,39,81,0
0,40,64,0
0,64,36,0
0,62,44,32
0,42,56,0
0,36,74,8
0,63,46,0
0,34,104,4
0,42,56,0
0,36,76,0
0,36,82,1
0,42,56,0
0,56,56,0
0,62,66,8
0,39,86,1
0,42,56,0
0,40,64,0
0,36,76,0
0,56,56,8
0,41,104,5
0,42,56,0
0,62,62,0
0,36,104,4
0,60,64,0
0,42,56,0
0,36,76,0
0,62,62,0
0,58,60,21
0,62,54,0
0,55,52,8
0,42,56,0
0,24,74,8
0,46,28,0
0,64,52,0
0,36,76,6
0,42,56,0
0,40,64,0
0,39,81,0
0,42,56,45
0,36,96,14
0,55,56,0
0,46,64,0
0,34,104,2
0,55,62,0
0,58,62,0
0,63,62,0
0,58,84,0
0,42,56,0
0,36,76,0
0,36,86,2
0,60,54,0
0,42,56,0
0,56,60,0
0,62,58,13
0,39,84,21
0,60,66,0
0,42,56,0
0,40,64,0
0,36,76,0
0,56,58,11
0,41,104,5
0,58,84,0
0,42,56,0
0,62,56,0
0,36,100,3
0,60,72,0
0,36,76,0
0,42,56,0
0,62,54,0
0,62,54,12
0,58,76,20
0,42,56,0
0,24,76,9
0,46,27,0
0,64,54,0
0,60,46,6
0,42,56,0
0,39,81,0
0,40,64,0
0,36,76,0
0,63,60,24
0,42,56,0
0,36,100,21
0,60,60,0
0,34,104,23
0,42,56,0
0,36,76,0
0,58,56,1
0,36,84,2
0,55,56,0
0,42,56,0
0,56,56,0
0,62,58,21
0,39,82,13
0,42,56,0
0,40,64,0
0,36,76,0
0,56,58,20
0,41,104,2
0,42,56,0
0,62,52,0
0,36,104,9
0,42,56,0
0,36,76,0
0,62,54,21
0,42,56,21
0,24,78,21
0,46,28,0
0,64,56,0
0,36,76,11
0,42,56,0
0,40,64,0
0,39,81,0
0,42,56,45
0,36,82,10
0,46,37,0
0,34,104,7
0,60,56,0
0,53,58,0
0,57,60,0
0,42,68,0
0,36,76,0
0,36,74,5
0,42,56,0
0,56,58,0
0,62,60,21
0,39,86,21
0,42,56,0
0,40,64,0
0,36,76,0
0,56,62,17
0,41,96,4
0,42,56,0
0,62,64,0
0,36,86,2
0,42,56,0
0,36,76,0
0,62,64,21
0,58,68,19
0,42,56,0
0,24,84,11
0,46,50,0
0,60,64,6
0,42,56,0
0,36,76,0
0,39,81,0
0,40,64,0
0,64,36,0
0,62,62,33
0,42,56,0
0,36,74,1
0,63,62,0
0,34,104,4
0,42,56,0
0,36,76,0
0,36,82,1
0,42,56,0
0,56,56,0
0,62,66,13
0,39,86,9
0,42,56,0
0,40,64,0
0,36,76,0
0,56,56,1
0,41,104,1
0,42,56,0
0,62,62,0
0,36,104,1
0,60,62,0
0,42,56,0
0,36,76,0
0,62,62,0
0,58,54,21
0,62,54,0
0,55,60,15
0,42,56,0
0,24,74,10
0,46,28,0
0,64,52,0
0,36,76,6
0,42,56,0
0,40,64,0
0,39,81,0
0,42,56,45
0,36,96,7
0,55,52,0
0,46,64,0
0,34,104,2
0,55,68,0
0,58,58,0
0,63,54,0
0,58,68,0
0,42,56,0
0,36,76,0
0,36,86,2
0,60,58,0
0,42,56,0
0,56,60,0
0,62,58,12
0,39,84,21
0,60,64,0
0,42,56,0
0,40,64,0
0,36,76,0
0,56,58,10
0,41,104,5
0,58,72,0
0,42,56,0
0,62,56,0
0,36,100,3
0,60,64,0
0,36,76,0
0,42,56,0
0,62,54,0
0,62,54,7
0,58,68,20
0,42,56,0
0,24,76,12
0,46,27,0
0,64,54,0
0,60,48,6
0,42,56,0
0,39,81,0
0,40,64,0
0,36,76,0
0,63,54,11
0,42,56,0
0,36,100,21
0,60,58,0
0,34,104,24
0,42,56,0
0,36,76,0
0,58,62,3
0,36,84,2
0,55,66,0
0,42,56,0
0,56,56,0
0,62,58,4
0,39,82,21
0,42,56,0
0,40,64,0
0,36,76,0
0,56,58,20
0,41,104,2
0,42,56,0
0,62,52,0
0,36,104,9
0,42,56,0
0,36,76,0
0,62,54,21
0,60,58,21
0,60,68,0
0,42,56,0
0,24,78,11
0,46,28,0
0,64,56,0
0,63,68,11
0,63,54,0
0,36,76,0
0,42,56,0
0,40,64,0
0,39,81,0
0,67,66,9
0,58,64,0
0,63,64,0
0,67,72,0
0,42,56,0
0,36,82,1
0,65,62,0
0,57,76,0
0,65,76,0
0,60,84,0
0,46,37,0
0,34,104,15
0,60,68,0
0,57,64,0
0,65,76,0
0,42,68,0
0,36,76,0
0,63,54,21
0,36,74,5
0,60,50,0
0,55,60,0
0,42,56,0
0,56,58,0
0,53,54,14
0,62,60,0
0,39,86,13
0,55,62,0
0,42,56,0
0,40,64,0
0,36,76,0
0,56,62,1
0,41,96,1
0,55,52,0
0,42,56,0
0,62,64,0
0,53,48,1
0,36,86,2
0,55,42,0
0,42,56,0
0,36,76,0
0,62,64,1
0,55,62,1
0,42,56,0
0,24,84,1
0,53,40,0
0,46,50,0
0,55,64,2
0,42,56,0
0,36,76,0
0,39,81,0
0,40,64,0
0,64,36,0
0,58,84,3
0,42,56,5
0,36,74,2
0,65,48,0
0,60,84,0
0,34,104,3
0,65,44,0
0,42,56,0
0,36,76,0
0,63,80,2
0,36,82,5
0,55,54,0
0,42,56,0
0,56,56,0
0,63,84,4
0,53,46,0
0,62,66,0
0,39,86,6
0,55,56,0
0,42,56,0
0,40,64,0
0,36,76,0
