track,note,velocity,time
1,60,127,14208
1,60,0,847
1,60,127,113
1,60,0,262
1,61,104,26
1,61,0,112
1,56,94,80
1,56,0,86
1,58,94,10
1,58,0,893
1,56,104,67
1,56,0,65
1,56,86,127
1,56,0,28
1,53,104,68
1,53,0,105
1,53,104,87
1,53,0,169
1,56,104,23
1,56,0,125
1,58,104,67
1,58,0,80
1,60,94,64
1,60,0,631
1,56,94,89
1,58,94,0
1,58,0,57
1,56,0,28
1,53,94,11
1,53,0,74
1,53,104,22
1,53,0,1272
1,60,115,456
1,60,0,157
1,60,115,227
1,60,0,292
1,61,115,92
1,61,0,57
1,56,104,135
1,56,0,83
1,58,86,13
1,56,104,288
1,58,0,50
1,56,0,57
1,56,104,469
1,54,86,192
1,56,0,14
1,54,0,14
1,54,115,164
1,54,0,164
1,53,94,28
1,53,0,69
1,53,115,123
1,53,0,123
1,56,104,165
1,56,0,111
1,58,104,81
1,56,104,96
1,58,0,2
1,56,0,80
1,60,104,110
1,59,73,0
1,58,94,0
1,58,0,31
1,59,0,7
1,60,0,510
1,56,73,220
1,58,104,0
1,56,0,53
1,58,0,5
1,53,104,38
1,53,0,65
1,53,115,31
1,53,0,1020
1,61,104,708
1,61,0,75
1,61,115,117
1,61,0,494
1,63,94,82
1,63,0,87
1,56,104,105
1,56,0,70
1,58,94,26
1,56,104,288
1,58,0,42
1,56,0,1274
1,61,115,412
1,61,0,77
1,61,115,115
1,63,104,576
1,61,0,6
1,63,0,78
1,56,115,108
1,56,0,79
1,58,86,17
1,56,104,288
1,58,0,16
1,56,0,278
1,58,104,90
1,58,0,303
1,60,86,81
1,60,0,79
1,61,115,113
1,61,0,186
1,58,104,6
1,58,0,63
1,61,127,129
1,61,0,331
1,63,115,53
1,63,0,255
1,65,115,129
1,65,0,177
1,61,115,399
1,61,0,91
1,68,115,101
1,68,0,99
1,68,104,93
1,68,0,88
1,66,115,104
1,66,0,213
1,66,94,75
1,66,0,81
1,65,104,15
1,65,0,185
1,63,104,7
1,63,0,492
1,61,115,84
1,61,0,333
1,63,115,51
1,63,0,231
1,65,115,153
1,65,0,303
1,66,115,81
1,66,0,119
1,63,127,73
1,63,0,1016
1,56,104,136
1,56,0,160
1,58,94,32
1,58,0,147
1,61,104,45
1,61,0,70
1,70,115,122
1,70,0,241
1,65,94,143
1,64,104,0
1,64,0,54
1,65,0,90
1,61,115,48
1,61,0,583
1,68,127,1913
1,68,0,238
1,65,115,146
1,65,0,176
1,61,127,208
1,61,0,191
1,58,104,193
1,56,104,0
1,56,0,51
1,58,0,84
1,56,94,57
1,56,0,1077
1,56,104,75
1,56,0,117
1,58,104,75
1,58,0,108
1,61,104,84
1,61,0,67
1,70,104,125
1,70,0,270
1,65,94,114
1,64,115,0
1,64,0,54
1,65,0,101
1,61,115,37
1,61,0,670
1,58,104,1442
1,58,0,138
1,61,104,54
1,61,0,110
1,66,115,82
1,66,0,291
1,65,115,93
1,65,0,116
1,63,104,76
1,63,0,371
1,65,104,13
1,65,0,85
1,65,79,107
1,63,104,0
1,63,0,67
1,65,0,288
1,63,104,29
1,63,0,632
1,63,104,328
1,63,0,176
1,58,94,16
1,58,0,108
1,61,104,84
1,61,0,504
1,68,115,360
1,68,0,167
1,65,115,25
1,65,0,415
1,61,115,65
1,61,0,146
1,58,104,46
1,58,0,145
1,56,104,47
1,56,0,594
1,56,115,174
1,56,0,149
1,54,104,43
1,54,0,58
1,54,104,38
1,53,104,96
1,54,0,2
1,53,0,80
1,53,115,110
1,53,0,219
1,56,104,69
1,56,0,138
1,58,104,54
1,58,0,161
1,60,104,127
1,59,86,0
1,59,0,49
1,56,86,527
1,58,79,0
1,60,0,10
1,58,0,50
1,56,0,25
1,53,115,11
1,53,0,71
1,53,104,121
1,53,0,1165
1,65,127,467
1,65,0,680
1,65,115,88
1,65,0,227
1,66,104,61
1,66,0,171
1,68,115,117
1,68,0,819
1,65,86,141
1,63,115,192
1,65,0,20
1,63,0,52
1,63,115,120
1,63,0,73
1,65,86,119
1,63,104,0
1,63,0,51
1,65,0,152
1,63,115,85
1,63,0,90
1,65,115,390
1,65,0,111
1,70,104,177
1,70,0,141
1,65,104,147
1,63,104,96
1,65,0,42
1,63,0,39
1,65,115,15
1,65,0,473
1,63,104,7
1,63,0,85
1,61,115,11
1,61,0,940
1,65,104,404
1,65,0,90
1,68,104,102
1,68,0,343
1,65,73,41
1,65,0,43
1,65,104,149
1,65,0,65
1,63,104,127
1,63,0,181
1,61,104,11
1,61,0,1191
1,58,94,537
1,58,0,68
1,61,115,124
1,61,0,80
1,61,127,112
1,61,0,460
1,61,104,116
1,61,0,80
1,66,115,112
1,66,0,508
1,65,86,68
1,65,0,113
1,61,115,79
1,61,0,428
1,61,115,148
1,61,0,132
1,58,104,60
1,58,0,70
1,61,115,122
1,61,0,299
1,63,115,85
1,63,0,232
1,65,127,152
1,65,0,166
1,63,104,410
1,63,0,81
1,68,115,111
1,68,0,103
1,68,115,89
1,68,0,90
1,66,115,102
1,66,0,186
1,66,104,102
1,66,0,56
1,64,86,40
1,65,115,0
1,64,0,30
1,65,0,129
1,63,115,33
1,61,127,192
1,63,0,14
1,61,0,54
1,58,104,28
1,58,0,122
1,63,104,550
1,63,0,54
1,63,115,138
1,63,0,101
1,65,115,91
1,65,0,303
1,66,104,81
1,66,0,97
1,68,115,95
1,68,0,966
1,56,94,186
1,56,0,166
1,58,104,26
1,58,0,141
1,61,115,51
1,61,0,68
1,70,104,124
1,68,104,0
1,68,0,64
1,70,0,197
1,65,104,123
1,64,115,0
1,64,0,56
1,65,0,100
1,61,115,36
1,61,0,599
1,68,104,1897
1,68,0,231
1,64,94,153
1,65,115,0
1,64,0,31
1,65,0,190
1,61,127,163
1,61,0,253
1,58,115,131
1,56,94,0
1,56,0,60
1,58,0,97
1,56,115,35
1,56,0,1043
1,56,115,109
1,56,0,139
1,58,104,53
1,58,0,109
1,61,115,83
1,61,0,80
1,70,115,112
1,68,94,0
1,68,0,63
1,70,0,192
1,65,104,129
1,65,0,131
1,61,127,61
1,61,0,749
1,58,104,1363
1,58,0,123
1,61,115,69
1,61,0,117
1,66,115,75
1,66,0,283
1,64,94,101
1,65,104,0
1,64,0,37
1,65,0,95
1,63,127,60
1,63,0,378
1,65,115,6
1,65,0,102
1,65,73,90
1,63,104,0
1,63,0,72
1,65,0,277
1,63,115,35
1,63,0,1008
1,58,127,912
1,58,0,303
1,61,115,81
1,61,0,309
1,63,115,75
1,63,0,127
1,61,115,65
1,61,0,109
1,65,104,83
1,64,104,0
1,64,0,66
1,65,0,287
1,58,115,223
1,58,0,28
1,61,115,164
1,61,0,345
1,63,115,39
1,63,0,155
1,56,104,37
1,56,0,71
1,58,104,25
1,58,0,1231
1,63,115,209
1,63,0,58
1,61,115,38
1,61,0,955
1,61,104,101
1,61,0,91
1,63,104,101
1,63,0,170
1,61,115,22
1,61,0,74
1,70,127,118
1,70,0,983
1,65,104,169
1,64,104,0
1,64,0,60
1,65,0,104
1,61,104,28
1,61,0,1051
1,61,115,101
1,61,0,124
1,63,115,68
1,63,0,156
1,61,104,36
1,61,0,82
1,70,127,110
1,70,0,979
1,65,127,173
1,65,0,110
1,65,115,82
1,65,0,231
1,61,115,153
1,61,0,76
1,63,115,20
1,63,0,1150
1,63,127,98
1,63,0,1933
1,68,115,6613
1,68,0,93
1,70,127,99
1,70,0,170
1,68,115,22
1,68,0,73
1,73,115,119
1,73,0,129
1,70,115,255
1,68,115,0
1,68,0,68
1,70,0,87
1,68,127,37
1,68,0,111
1,68,127,273
1,68,0,77
1,70,127,115
1,70,0,173
1,68,115,19
1,68,0,63
1,73,127,129
1,73,0,328
1,70,104,56
1,68,104,0
1,68,0,72
1,70,0,64
1,68,115,56
1,68,0,413
1,68,115,6484
1,68,0,81
1,71,26,111
1,70,127,0
1,71,0,66
1,70,0,38
1,68,115,88
1,68,0,76
1,73,115,116
1,73,0,137
1,70,94,247
1,68,104,0
1,68,0,64
1,70,0,100
1,68,115,28
1,68,0,120
1,68,115,264
1,68,0,103
1,70,127,89
1,70,0,186
1,68,104,6
1,68,0,71
1,74,127,121
1,74,0,359
1,69,115,25
1,57,79,28
1,69,0,49
1,71,127,19
1,59,104,8
1,57,0,44
1,69,127,44
1,62,115,4
1,59,0,8
1,71,0,23
1,62,0,57
1,69,0,92
1,71,127,8
1,71,0,2439
1,66,104,249
1,64,94,0
1,64,0,82
1,66,0,44
1,62,104,66
1,59,115,96
1,62,0,22
1,59,0,41
1,62,115,33
1,62,0,608
1,66,115,160
1,64,115,0
1,64,0,49
1,66,0,300
1,64,127,35
1,62,127,192
1,64,0,2
1,62,0,682
1,71,127,852
1,69,127,0
1,69,0,54
1,71,0,105
1,69,115,129
1,71,127,0
1,69,0,91
1,71,0,9
1,69,127,92
1,66,115,96
1,69,0,6
1,66,0,91
1,69,115,287
1,71,115,0
1,69,0,27
1,71,0,149
1,69,127,112
1,69,0,65
1,69,115,127
1,66,115,96
1,69,0,26
1,66,0,96
1,64,127,454
1,64,0,163
1,62,127,29
1,62,0,232
1,67,127,728
1,67,0,286
1,67,115,98
1,67,0,84
1,69,127,108
1,69,0,443
1,67,127,133
1,67,0,123
1,66,115,69
1,66,0,60
1,64,127,36
1,64,0,1037
1,57,104,19
1,57,0,153
1,59,115,39
1,59,0,139
1,62,115,53
1,62,0,90
1,71,115,102
1,71,0,229
1,66,104,155
1,64,104,0
1,64,0,57
1,66,0,57
1,62,127,78
1,62,0,433
1,66,104,143
1,64,115,0
1,64,0,59
1,66,0,36
1,64,94,1
1,64,0,85
1,62,115,11
1,62,55,576
1,62,0,9
1,62,0,23
1,69,127,1120
1,69,0,223
1,66,104,161
1,64,94,0
1,64,0,60
1,66,0,124
1,66,41,8
1,66,0,10
1,62,127,182
1,62,0,279
1,59,104,105
1,57,94,0
1,57,0,58
1,59,0,97
1,57,115,37
1,57,0,1046
1,57,115,106
1,57,0,164
1,59,115,28
1,59,0,159
1,62,104,33
1,62,0,101
1,71,127,91
1,71,0,553
1,66,115,119
1,64,79,0
1,64,0,61
1,66,0,44
1,64,104,87
1,62,115,96
1,64,0,12
1,59,104,84
1,62,0,8
1,59,0,68
1,62,127,20
1,62,0,825
1,67,127,1095
1,67,0,296
1,66,115,88
1,66,0,121
1,64,115,71
1,64,0,327
1,66,115,57
1,66,0,101
1,66,104,91
1,64,115,0
1,64,0,72
1,66,0,120
1,64,127,0
1,64,0,762
1,71,127,198
1,69,104,0
1,69,0,56
1,71,0,182
1,71,104,50
1,69,115,0
1,69,0,62
1,71,0,37
1,69,127,189
1,69,0,73
1,66,104,23
1,66,0,128
1,71,115,544
1,69,115,0
1,69,0,71
1,71,0,111
1,69,115,10
1,69,0,45
1,69,104,51
1,69,0,78
1,66,104,18
1,66,0,120
1,69,127,1992
1,69,0,224
1,69,127,160
1,69,0,252
1,69,127,132
1,69,0,327
1,66,115,57
1,66,0,92
1,67,115,100
1,69,94,8
1,67,0,27
1,69,0,1130
1,66,104,179
1,66,0,66
1,69,94,30
1,66,104,96
1,69,0,32
1,66,0,57
1,71,115,295
1,69,115,0
1,69,0,53
1,71,0,718
1,69,104,93
1,67,115,192
1,69,0,62
1,67,0,110
1,66,127,20
1,64,127,96
1,66,0,56
1,64,0,111
1,62,115,25
1,62,0,313
1,64,86,71
1,64,0,83
1,67,127,877
1,67,0,327
1,66,115,57
1,66,0,91
1,64,127,101
1,64,0,348
1,66,104,36
1,66,0,84
1,66,94,108
1,64,127,0
1,64,0,72
1,66,0,55
1,64,115,65
1,64,0,1016
2,58,79,32256
2,61,79,0
2,54,79,0
2,54,0,268
2,61,0,32
2,58,0,9
2,56,73,75
2,63,86,0
2,60,104,0
2,56,0,261
2,60,0,24
2,63,0,1
2,58,79,98
2,65,104,0
2,61,79,0
2,58,0,98
2,65,0,36
2,61,0,22
2,61,86,2148
2,58,79,0
2,54,79,0
2,54,0,271
2,61,0,26
2,58,0,10
2,63,94,77
2,56,63,0
2,60,94,0
2,56,0,282
2,63,0,25
2,60,0,8
2,61,86,69
2,58,86,0
2,65,94,0
2,58,0,327
2,65,0,42
2,61,0,0
2,60,94,207
2,63,104,0
2,68,94,0
2,56,86,0
2,60,0,1518
2,63,0,16
2,68,0,13
2,56,0,9
2,60,94,1708
2,56,79,0
2,63,86,0
2,63,0,469
2,56,0,14
2,60,0,17
2,58,79,76
2,62,84,0
2,65,94,0
2,58,0,896
2,62,0,29
2,65,0,58
2,60,94,1513
2,56,73,0
2,63,86,0
2,56,0,334
2,60,0,42
2,63,0,48
2,59,73,152
2,63,104,0
2,66,86,0
2,59,0,909
2,63,0,22
2,66,0,5
2,56,79,1560
2,60,104,0
2,63,86,0
2,56,0,439
2,63,0,5
2,60,0,36
2,58,73,96
2,62,104,0
2,65,94,0
2,58,0,623
2,62,0,7
2,65,0,21
2,58,79,309
2,54,79,0
2,61,86,0
2,54,0,401
2,61,0,22
2,58,0,14
2,60,94,139
2,56,79,0
2,63,94,0
2,56,0,1028
2,60,0,29
2,63,0,16
2,58,79,19855
2,61,79,0
2,54,79,0
2,54,0,268
2,61,0,32
2,58,0,9
2,56,73,75
2,63,86,0
2,60,104,0
2,56,0,261
2,60,0,24
2,63,0,1
2,58,79,98
2,65,104,0
2,61,79,0
2,58,0,98
2,65,0,36
2,61,0,22
2,61,86,2148
2,58,79,0
2,54,79,0
2,54,0,271
2,61,0,26
2,58,0,10
2,63,94,77
2,56,63,0
2,60,94,0
2,56,0,282
2,63,0,25
2,60,0,8
2,61,86,69
2,58,86,0
2,65,94,0
2,58,0,327
2,65,0,42
2,61,0,0
2,60,94,207
2,63,104,0
2,68,94,0
2,56,86,0
2,60,0,1518
2,63,0,16
2,68,0,13
2,56,0,9
2,60,94,1708
2,56,79,0
2,63,86,0
2,63,0,469
2,56,0,14
2,60,0,17
2,58,79,76
2,62,104,0
2,65,94,0
2,58,0,896
2,62,0,29
2,65,0,58
2,60,94,1513
2,56,73,0
2,63,86,0
2,56,0,334
2,60,0,42
2,63,0,48
2,59,73,152
2,63,104,0
2,66,86,0
2,59,0,909
2,63,0,22
2,66,0,5
2,56,79,1560
2,60,104,0
2,63,86,0
2,56,0,439
2,63,0,5
2,60,0,36
2,58,73,96
2,62,104,0
2,65,94,0
2,58,0,623
2,62,0,7
2,65,0,21
2,58,79,309
2,54,79,0
2,61,86,0
2,54,0,401
2,61,0,22
2,58,0,14
2,60,94,139
2,56,79,0
2,63,94,0
2,56,0,1028
2,60,0,29
2,63,0,16
2,58,104,7567
2,70,79,0
2,65,104,0
2,61,94,0
2,61,0,1012
2,65,0,11
2,70,0,5
2,58,0,0
2,70,79,124
2,58,115,0
2,61,94,0
2,65,94,0
2,65,0,64
2,61,0,7
2,58,0,22
2,70,0,7
2,68,94,92
2,63,104,0
2,68,0,1219
2,63,0,11
2,61,86,114
2,58,86,0
2,66,104,0
2,54,68,0
2,63,115,0
2,61,0,62
2,63,0,11
2,66,0,0
2,58,0,6
2,54,0,0
2,61,86,113
2,54,79,0
2,58,86,0
2,66,94,0
2,63,104,0
2,61,0,1022
2,66,0,22
2,54,0,16
2,58,0,18
2,63,0,230
2,61,104,36
2,58,94,0
2,54,73,0
2,65,86,0
2,58,0,73
2,61,0,7
2,54,0,4
2,65,0,0
2,65,104,108
2,61,115,0
2,54,68,0
2,58,79,0
2,58,0,154
2,65,0,41
2,61,0,2
2,54,0,5
2,61,104,182
2,58,86,0
2,63,94,0
2,54,73,0
2,54,0,995
2,58,0,0
2,61,0,2
2,63,0,36
2,54,79,119
2,61,104,96
2,58,94,0
2,65,104,96
2,61,0,1466
2,54,0,15
2,58,0,9
2,65,0,5
2,68,94,7913
2,68,0,86
2,70,115,106
2,70,0,125
2,68,94,67
2,68,0,57
2,73,115,135
2,73,0,139
2,70,94,245
2,68,104,0
2,68,0,60
2,70,0,75
2,68,104,57
2,68,0,167
2,68,104,217
2,68,0,58
2,70,115,134
2,70,0,92
2,68,104,100
2,68,0,52
