track,note,velocity,time
0,57,104,70
0,72,86,0
0,76,80,0
0,64,100,4
0,71,88,0
0,69,85,428
0,75,83,1250
0,70,86,1308
0,79,81,42
0,71,82,1264
0,78,81,1316
0,72,84,1234
0,38,106,2
0,45,106,0
0,50,105,0
0,53,108,0
0,67,127,28
0,34,127,0
0,38,127,0
0,39,127,0
0,49,83,0
0,42,88,0
0,42,67,52
0,34,124,54
0,42,121,4
0,45,102,0
0,42,68,4
0,47,104,0
0,34,127,50
0,38,127,4
0,39,127,0
0,42,102,0
0,45,111,0
0,45,70,4
0,34,94,2
0,42,64,0
0,32,104,50
0,42,71,0
0,47,79,0
0,45,81,0
0,34,100,4
0,42,71,0
0,36,127,0
0,42,109,4
0,50,114,0
0,36,127,16
0,50,114,0
0,42,109,4
0,42,72,32
0,38,127,52
0,39,127,4
0,34,110,142
0,42,88,4
0,45,90,0
0,50,92,2
0,36,110,4
0,42,73,0
0,37,127,4
0,42,112,0
0,48,111,0
0,42,76,48
0,37,127,16
0,42,105,6
0,48,107,0
0,42,70,32
0,38,127,54
0,39,127,2
0,36,109,146
0,42,86,2
0,50,91,2
0,37,108,2
0,42,72,0
0,48,89,4
0,36,127,46
0,42,98,2
0,50,115,0
0,42,83,52
0,50,90,2
0,32,127,12
0,42,83,4
0,47,105,0
0,44,29,14
0,38,127,58
0,39,127,0
0,42,107,4
0,34,127,142
0,45,115,0
0,46,54,4
0,42,83,94
0,42,72,54
0,34,126,54
0,45,104,0
0,42,121,4
0,42,67,4
0,47,102,0
0,34,127,50
0,38,127,4
0,39,127,0
0,42,98,0
0,45,116,0
0,34,95,4
0,42,68,0
0,45,74,0
0,47,82,2
0,32,102,4
0,42,74,0
0,34,104,0
0,42,73,4
0,45,79,0
0,36,127,4
0,42,109,0
0,50,116,0
0,36,127,16
0,42,109,4
0,50,117,0
0,42,69,28
0,38,127,54
0,39,127,0
0,34,111,144
0,42,86,4
0,45,89,0
0,36,113,0
0,42,70,4
0,50,91,0
0,37,127,2
0,42,112,2
0,48,113,0
0,42,73,56
0,37,127,14
0,48,112,0
0,42,105,4
0,42,74,34
0,38,127,54
0,39,127,4
0,36,110,146
0,50,92,0
0,42,84,4
0,37,111,6
0,42,67,0
0,48,90,0
0,36,127,40
0,42,98,0
0,50,114,0
0,42,88,54
0,50,91,0
0,32,127,16
0,42,89,4
0,47,109,0
0,44,29,10
0,38,127,44
0,39,127,4
0,42,111,0
0,34,127,140
0,45,112,4
0,46,56,0
0,42,83,94
0,42,72,52
0,34,126,54
0,42,120,4
0,45,102,0
0,42,69,4
0,47,101,0
0,34,127,48
0,38,127,6
0,39,127,0
0,42,99,0
0,45,116,0
0,34,91,4
0,42,67,0
0,45,72,0
0,32,103,4
0,42,73,2
0,47,81,0
0,34,104,6
0,42,75,0
0,45,79,0
0,36,127,4
0,42,110,0
0,50,111,0
0,36,127,12
0,50,111,0
0,42,113,4
0,42,69,30
0,38,127,54
0,39,127,0
0,34,111,148
0,42,85,0
0,45,88,0
0,36,113,4
0,42,71,0
0,50,89,0
0,37,127,4
0,42,113,0
0,48,114,0
0,42,75,52
0,37,127,16
0,42,108,4
0,48,109,0
0,42,73,32
0,38,127,44
0,39,127,0
0,36,108,146
0,42,83,4
0,50,91,0
0,37,109,0
0,42,72,4
0,48,89,0
0,36,127,4
0,42,98,0
0,50,118,0
0,42,88,44
0,50,91,2
0,32,126,14
0,42,87,4
0,47,106,0
0,44,28,8
0,38,127,54
0,42,111,0
0,39,127,4
0,34,127,142
0,45,112,0
0,46,59,4
0,42,87,94
0,42,72,58
0,34,124,48
0,45,104,0
0,42,119,4
0,42,69,4
0,47,102,0
0,34,127,52
0,38,127,4
0,39,127,0
0,42,103,0
0,45,111,0
0,34,95,6
0,42,66,0
0,45,75,0
0,32,101,42
0,42,73,0
0,47,80,0
0,45,83,0
0,34,103,4
0,42,72,0
0,50,116,0
0,36,127,4
0,42,109,0
0,36,127,16
0,42,110,4
0,50,113,0
0,42,67,36
0,38,127,52
0,39,127,4
0,34,110,146
0,42,88,4
0,45,90,0
0,36,111,0
0,42,70,4
0,50,91,0
0,37,127,0
0,42,112,4
0,48,115,0
0,42,75,52
0,37,127,12
0,42,104,4
0,48,108,0
0,42,72,32
0,38,127,46
0,39,127,6
0,36,109,146
0,50,89,0
0,42,87,4
0,37,108,4
0,42,68,0
0,48,90,0
0,36,127,4
0,42,100,0
0,50,115,0
0,42,84,52
0,50,92,0
0,32,124,16
0,42,87,4
0,47,104,0
0,44,28,8
0,38,127,44
0,39,127,4
0,42,109,0
0,34,127,146
0,45,111,4
0,49,89,0
0,42,83,0
0,42,69,52
0,34,125,54
0,70,127,4
0,42,122,0
0,45,106,0
0,70,118,4
0,42,71,0
0,47,107,0
0,34,127,38
0,38,127,2
0,39,127,4
0,42,100,0
0,45,112,0
0,70,127,4
0,45,71,4
0,34,96,2
0,42,67,0
0,70,103,4
0,68,113,6
0,32,102,0
0,42,70,0
0,47,84,0
0,34,103,0
0,70,111,4
0,42,74,0
0,45,81,0
0,36,127,2
0,51,127,4
0,55,127,0
0,60,127,0
0,42,113,0
0,50,114,0
0,72,127,4
0,36,127,12
0,50,116,0
0,51,127,4
0,55,127,0
0,60,127,0
0,42,109,0
0,72,127,0
0,42,71,8
0,38,127,54
0,39,127,4
0,34,110,150
0,45,89,0
0,70,121,4
0,42,85,0
0,72,123,4
0,36,112,0
0,42,72,0
0,50,92,0
0,37,127,0
0,53,127,4
0,61,127,0
0,48,111,0
0,56,127,2
0,73,127,2
0,42,113,0
0,42,70,50
0,37,127,14
0,53,127,4
0,56,127,0
0,61,127,0
0,48,109,0
0,73,127,0
0,42,105,0
0,42,75,8
0,38,127,58
0,39,127,0
0,36,113,148
0,72,118,4
0,42,84,0
0,50,88,0
0,37,113,0
0,73,118,4
0,42,69,0
0,48,93,0
0,50,116,0
0,51,127,4
0,55,127,0
0,60,127,0
0,36,127,0
0,72,127,4
0,42,100,0
0,42,89,50
0,50,89,2
0,32,127,14
0,48,127,4
0,51,127,0
0,56,127,0
0,42,83,0
0,47,105,0
0,68,127,4
0,44,27,10
0,38,127,54
0,39,127,2
0,42,106,2
0,34,127,140
0,49,127,4
0,53,127,0
0,58,127,0
0,45,117,0
0,46,59,0
0,70,127,2
0,42,88,92
0,42,70,46
0,34,124,62
0,45,106,0
0,70,127,4
0,42,117,0
0,42,71,4
0,70,120,2
0,47,102,0
0,34,127,52
0,70,127,6
0,38,127,0
0,39,127,0
0,42,100,0
0,45,111,0
0,45,72,4
0,34,92,2
0,42,63,0
0,70,100,4
0,32,99,44
0,68,111,2
0,42,72,0
0,47,80,0
0,70,109,4
0,34,104,0
0,42,74,0
0,45,81,0
0,51,127,4
0,55,127,0
0,60,127,0
0,36,127,0
0,50,113,0
0,72,127,4
0,42,111,0
0,36,127,14
0,51,127,6
0,55,127,0
0,60,127,0
0,42,109,0
0,50,115,0
0,72,127,0
0,42,68,4
0,38,127,58
0,39,127,0
0,34,109,150
0,70,122,4
0,42,84,0
0,45,92,0
0,72,120,0
0,36,111,0
0,42,72,0
0,50,93,0
0,37,127,4
0,48,111,0
0,53,127,2
0,56,127,0
0,61,124,0
0,73,127,2
0,42,113,0
0,42,70,42
0,37,127,20
0,48,112,4
0,53,127,0
0,56,127,0
0,61,127,0
0,42,104,0
0,73,127,2
0,42,73,4
0,38,127,48
0,39,127,0
0,36,113,146
0,50,91,0
0,72,120,4
0,42,83,0
0,73,121,4
0,37,112,0
0,42,70,0
0,48,92,0
0,36,127,38
0,51,127,2
0,55,127,0
0,42,100,0
0,50,118,0
0,60,127,2
0,72,127,2
0,42,87,46
0,50,93,4
0,32,127,20
0,48,127,4
0,51,127,0
0,42,86,0
0,47,105,0
0,56,127,2
0,68,127,2
0,44,29,12
0,38,127,44
0,39,127,4
0,42,109,0
0,34,127,140
0,49,127,4
0,53,127,0
0,58,127,0
0,45,114,0
0,46,54,0
0,70,127,2
0,42,88,98
0,42,67,48
0,34,126,58
0,42,120,0
0,70,127,4
0,45,105,0
0,70,118,4
0,42,72,0
0,47,106,0
0,34,127,44
0,38,127,4
0,39,127,0
0,42,100,0
0,45,111,0
0,70,127,4
0,34,90,4
0,42,67,0
0,45,73,0
0,70,104,4
0,68,113,4
0,32,100,0
0,42,70,0
0,47,83,0
0,34,99,0
0,70,112,4
0,42,72,0
0,45,82,0
0,50,113,4
0,51,127,2
0,55,127,0
0,60,127,0
0,36,127,0
0,72,127,4
0,42,109,0
0,36,127,10
0,50,113,4
0,51,127,2
0,55,127,0
0,60,127,0
0,42,113,0
0,72,127,0
0,42,70,4
0,38,127,56
0,39,127,4
0,34,109,142
0,45,92,0
0,70,118,4
0,42,86,0
0,72,121,6
0,36,108,0
0,42,75,0
0,50,91,0
0,37,127,0
0,53,127,4
0,56,127,0
0,48,111,0
0,61,123,2
0,73,127,2
0,42,108,0
0,42,72,48
0,37,127,12
0,48,112,0
0,53,127,4
0,56,127,0
0,61,127,0
0,42,104,0
0,73,127,0
0,42,75,8
0,38,127,48
0,39,127,0
0,36,111,154
0,72,120,4
0,42,89,0
0,50,93,0
0,37,112,0
0,73,121,4
0,42,67,0
0,48,90,0
0,51,127,6
0,55,127,0
0,60,127,0
0,36,127,0
0,50,114,0
0,72,127,4
0,42,100,0
0,42,88,58
0,50,90,0
0,32,124,16
0,51,127,4
0,56,127,0
0,42,88,0
0,47,106,0
0,48,127,2
0,68,127,2
0,44,27,10
0,38,127,52
0,39,127,2
0,42,109,4
0,34,127,150
0,49,127,4
0,53,127,0
0,58,127,0
0,45,113,0
0,46,56,0
0,70,127,2
0,42,83,94
0,42,71,54
0,34,126,58
0,45,102,0
0,70,127,4
0,42,117,0
0,70,118,6
0,42,72,0
0,47,103,0
0,34,127,44
0,70,127,4
0,38,127,0
0,39,127,0
0,42,100,0
0,45,115,0
0,34,91,4
0,42,66,0
0,45,71,0
0,70,101,4
0,32,103,52
0,68,109,0
0,42,70,0
0,47,80,0
0,70,114,4
0,34,101,0
0,42,74,0
0,45,81,0
0,36,127,2
0,51,127,4
0,55,127,0
0,60,127,0
0,50,111,0
0,72,127,4
0,42,109,0
0,36,127,12
0,51,127,4
0,55,127,0
0,60,127,0
0,42,108,0
0,50,112,0
0,72,127,0
0,42,67,4
0,38,127,58
0,39,127,0
0,34,108,146
0,70,118,4
0,42,85,0
0,45,93,0
0,36,108,0
0,72,120,4
0,42,71,0
0,50,92,0
0,53,127,4
0,37,127,0
0,48,111,0
0,56,127,2
0,61,125,0
0,73,127,2
0,42,109,0
0,42,70,42
0,37,127,16
0,53,127,4
0,56,127,0
0,61,127,0
0,42,109,0
0,48,109,0
0,73,127,0
0,42,70,4
0,38,127,50
0,39,127,2
0,36,111,140
0,72,123,4
0,42,85,0
0,50,92,0
0,73,120,4
0,37,113,0
0,42,67,0
0,48,91,0
0,51,127,4
0,55,127,0
0,60,127,0
0,36,127,0
0,50,115,0
0,72,127,4
0,42,96,0
0,42,88,48
0,50,89,0
0,32,124,20
0,48,127,4
0,51,127,0
0,68,127,0
0,42,88,0
0,47,108,0
0,56,127,4
0,44,24,10
0,38,127,2
0,39,127,2
0,42,106,0
0,41,116,144
0,30,127,2
0,49,97,4
0,54,90,0
0,58,95,0
0,46,54,0
0,70,127,4
0,42,88,0
0,42,72,50
0,70,108,4
0,30,127,52
0,70,103,4
0,42,118,0
0,42,68,50
0,77,107,4
0,75,125,6
0,30,127,0
0,38,127,0
0,39,127,0
0,70,106,0
0,42,70,0
0,42,75,50
0,30,127,48
0,42,112,4
0,68,74,4
0,30,127,0
0,42,108,0
0,42,67,50
0,38,127,0
0,70,127,4
0,39,127,0
0,70,100,50
0,56,62,44
0,30,127,0
0,70,102,4
0,42,88,0
0,56,63,42
0,77,101,6
0,42,70,0
0,30,127,0
0,75,126,4
0,42,108,0
0,58,96,2
0,30,83,0
0,42,76,2
0,56,69,2
0,70,100,0
0,58,81,48
0,42,110,4
0,30,127,0
0,38,127,4
0,39,127,0
0,56,61,46
0,42,85,2
0,58,94,2
0,70,100,0
0,42,70,44
0,70,104,4
0,32,127,14
0,42,109,4
0,48,90,2
0,56,95,0
0,60,90,0
0,72,127,0
0,68,108,0
0,32,89,0
0,42,86,0
0,42,109,50
0,38,127,0
0,39,127,0
0,70,119,16
0,30,127,48
0,46,55,0
0,49,92,0
0,54,94,0
0,58,91,0
0,42,85,2
0,70,127,2
0,70,108,56
0,30,127,52
0,70,103,4
0,42,89,0
0,42,72,48
0,77,108,4
0,75,124,4
0,30,127,0
0,38,127,0
0,39,127,0
0,70,108,0
0,42,73,0
0,42,70,48
0,30,127,52
0,42,109,4
0,30,124,0
0,68,74,4
0,42,112,0
0,42,71,48
0,38,127,0
0,39,127,2
0,70,127,2
0,30,108,0
0,70,103,50
0,56,67,4
0,70,100,0
0,29,107,0
0,42,88,0
0,56,65,48
0,42,74,0
0,77,102,4
0,58,91,4
0,30,127,0
0,42,110,0
0,75,124,2
0,56,68,4
0,70,103,0
0,30,83,0
0,42,106,0
0,58,82,46
0,42,79,4
0,30,127,4
0,38,127,0
0,39,127,0
0,56,61,46
0,58,91,4
0,70,105,0
0,42,85,0
0,59,61,48
0,70,100,6
0,42,72,0
0,48,94,18
0,56,95,0
0,32,127,0
0,60,61,4
0,60,91,0
0,72,127,0
0,42,104,0
0,32,94,0
0,68,110,0
0,42,83,0
0,42,108,46
0,38,127,0
0,39,127,0
0,70,115,8
0,30,127,0
0,49,96,0
0,58,92,0
0,46,55,0
0,54,92,4
0,42,83,2
0,70,127,2
0,70,107,44
0,30,127,44
0,70,108,4
0,42,106,0
0,77,108,48
0,75,124,4
0,30,127,0
0,38,127,0
0,39,127,0
0,70,107,0
0,42,71,0
0,46,21,48
0,30,127,46
0,42,111,4
0,68,72,4
0,29,105,0
0,42,87,0
0,42,70,44
0,30,124,0
0,70,127,4
0,38,127,0
0,39,127,0
0,70,103,50
0,56,63,0
0,70,102,4
0,42,84,0
0,56,67,40
0,77,100,4
0,30,126,46
0,75,126,4
0,42,109,0
0,58,91,2
0,29,101,148
0,56,73,0
0,70,102,0
0,42,76,0
0,58,82,44
0,42,89,4
0,30,127,0
0,38,127,4
0,39,127,0
0,56,61,46
0,58,92,4
0,70,103,0
0,42,86,0
0,42,68,46
0,70,104,4
0,32,127,14
0,48,91,4
0,56,92,0
0,60,95,0
0,72,127,0
0,42,104,0
0,68,108,0
0,32,126,0
0,42,87,0
0,46,29,54
0,38,127,52
0,39,127,0
0,42,66,0
0,70,115,12
0,30,127,0
0,49,97,0
0,54,91,0
0,58,91,0
0,46,56,0
0,70,127,4
0,42,86,0
0,42,69,42
0,70,104,6
0,30,127,48
0,70,108,4
0,42,119,0
0,42,71,44
0,77,103,4
0,30,127,0
0,75,127,4
0,38,127,0
0,39,127,0
0,30,127,0
0,42,72,0
0,70,105,0
0,42,71,42
0,30,127,54
0,42,112,4
0,30,121,0
0,77,75,4
0,42,111,0
0,42,69,46
0,30,127,2
0,77,127,4
0,38,127,0
0,39,127,0
0,77,102,54
0,30,102,2
0,56,63,4
0,77,105,0
0,42,84,0
0,57,68,50
0,77,102,0
0,42,70,0
0,29,127,0
0,58,95,2
0,48,92,0
0,53,97,0
0,57,96,0
0,42,108,0
0,81,126,2
0,42,74,0
0,57,72,0
0,77,102,0
0,58,83,46
0,42,112,2
0,29,127,54
0,38,127,0
0,39,127,4
0,57,61,46
0,58,94,4
0,77,104,0
0,42,88,0
0,42,71,50
0,77,102,4
0,42,107,50
0,29,127,2
0,80,127,2
0,32,127,0
0,77,127,4
0,42,85,0
0,42,112,42
0,33,127,2
0,81,127,4
0,38,127,0
0,39,127,0
0,34,127,0
0,82,127,0
0,49,88,0
0,36,74,0
0,58,95,0
0,61,94,0
0,53,93,6
0,42,106,0
0,42,69,42
0,34,127,44
0,42,122,4
0,36,75,0
0,42,67,4
0,34,127,50
0,89,42,4
