track,note,velocity,time
3,74,119,3453
3,74,0,50
3,76,113,3
3,76,0,54
3,78,110,36
3,78,0,57
3,79,119,36
3,79,0,57
3,78,119,41
3,78,0,56
3,74,122,48
3,74,0,50
3,76,127,45
3,76,0,199
3,84,127,238
3,83,116,47
3,84,0,5
3,83,0,44
3,83,127,50
3,81,122,90
3,83,0,2
3,81,0,36
3,81,122,51
3,79,122,186
3,81,0,42
3,79,0,155
3,79,122,39
3,79,0,95
3,71,119,5
3,74,127,56
3,71,0,1
3,74,0,444
3,83,127,371
3,81,122,133
3,83,0,7
3,81,0,17
3,81,127,32
3,79,119,284
3,81,0,11
3,78,122,42
3,79,0,10
3,78,0,40
3,69,116,43
3,69,0,52
3,72,122,47
3,72,0,208
3,69,97,339
3,69,0,27
3,69,127,18
3,69,0,52
3,71,127,0
3,71,0,50
3,72,127,46
3,72,0,52
3,74,122,38
3,74,0,55
3,72,127,43
3,72,0,54
3,74,127,42
3,74,0,40
3,72,116,53
3,71,127,96
3,72,0,2
3,71,0,54
3,74,127,51
3,74,0,126
3,79,127,396
3,81,122,51
3,79,0,2
3,81,0,56
3,83,127,39
3,83,0,90
3,84,127,0
3,84,0,54
3,83,127,46
3,81,127,92
3,83,0,2
3,81,0,44
3,79,127,48
3,79,0,50
3,84,127,559
3,84,0,70
3,84,122,28
3,84,0,24
3,84,127,26
3,83,127,94
3,84,0,5
3,83,0,90
3,81,122,2
3,81,0,99
3,79,122,2
3,79,0,48
3,79,127,42
3,79,0,102
3,71,122,4
3,71,0,86
3,74,127,4
3,74,0,423
3,83,119,339
3,83,0,21
3,83,127,29
3,81,110,95
3,83,0,8
3,81,0,12
3,81,127,34
3,81,0,96
3,78,122,184
3,78,0,37
3,78,127,63
3,78,0,104
3,69,122,2
3,72,122,93
3,69,0,1
3,72,0,419
3,69,113,333
3,69,0,57
3,69,127,3
3,71,127,94
3,69,0,1
3,72,127,51
3,71,0,4
3,72,0,49
3,74,127,38
3,74,0,53
3,72,127,40
3,74,122,90
3,72,0,3
3,74,0,42
3,72,127,58
3,71,127,99
3,72,0,1
3,71,0,45
3,67,127,44
3,67,0,429
3,79,127,393
3,81,127,53
3,79,0,4
3,81,0,39
3,83,127,54
3,84,122,91
3,83,0,8
3,84,0,42
3,83,127,46
3,83,0,94
3,81,127,2
3,81,0,36
3,81,127,57
3,81,0,100
3,79,122,0
3,79,0,88
3,84,127,1
3,84,0,115
3,84,127,478
3,83,122,54
3,84,0,10
3,83,0,31
3,83,127,49
3,81,122,91
3,83,0,2
3,81,0,42
3,81,122,52
3,79,122,104
3,81,0,1
3,79,0,44
3,83,127,53
3,83,0,416
3,83,127,108
3,83,0,81
3,83,127,15
3,81,127,56
3,83,0,2
3,81,0,44
3,81,127,45
3,79,127,87
3,81,0,5
3,79,0,36
3,79,122,54
3,78,122,100
3,79,0,4
3,78,0,38
3,78,119,53
3,76,122,95
3,78,0,3
3,76,0,38
3,74,119,55
3,81,127,103
3,74,0,1
3,81,0,451
3,79,127,80
3,79,0,156
3,78,127,28
3,78,0,138
3,84,122,150
3,84,0,34
3,84,127,54
3,84,0,116
3,84,127,41
3,84,0,97
3,84,127,39
3,84,0,35
3,84,127,66
3,84,0,133
3,83,127,1
3,83,0,147
3,79,127,2
3,79,0,332
3,79,127,343
3,81,127,53
3,79,0,4
3,81,0,39
3,83,127,54
3,84,122,91
3,83,0,8
3,84,0,42
3,83,127,46
3,83,0,94
3,81,127,2
3,81,0,36
3,81,127,57
3,81,0,100
3,79,122,0
3,79,0,88
3,84,127,1
3,84,0,115
3,84,121,383
3,84,0,79
3,84,127,16
3,83,122,54
3,84,0,10
3,83,0,31
3,83,127,49
3,81,122,91
3,83,0,2
3,81,0,42
3,81,122,52
3,79,122,104
3,81,0,1
3,79,0,44
3,83,127,53
3,83,0,416
3,83,127,204
3,81,127,56
3,83,0,2
3,81,0,44
3,81,127,45
3,79,127,87
3,81,0,5
3,79,0,36
3,79,122,54
3,78,122,100
3,79,0,4
3,78,0,38
3,78,119,53
3,76,122,95
3,78,0,3
3,76,0,38
3,74,119,55
3,74,0,146
3,79,127,489
3,79,0,156
3,81,127,30
3,81,0,138
3,84,122,148
3,84,0,34
3,86,127,54
3,86,0,116
3,84,127,41
3,84,0,97
3,84,127,39
3,84,0,35
3,84,127,66
3,84,0,131
3,83,127,3
3,83,0,147
3,79,127,2
3,79,0,332
3,74,119,2644
3,74,0,50
3,76,113,3
3,76,0,54
3,78,110,36
3,78,0,57
3,79,119,36
3,79,0,57
3,78,119,41
3,78,0,56
3,74,122,48
3,74,0,50
3,76,127,45
3,76,0,199
3,84,127,238
3,83,116,47
3,84,0,5
3,83,0,44
3,83,127,50
3,81,122,90
3,83,0,2
3,81,0,36
3,81,122,51
3,81,0,99
3,79,122,1
3,79,0,38
3,79,122,48
3,79,0,135
3,81,90,8
3,81,0,85
3,79,122,8
3,79,0,95
3,71,119,5
3,74,127,56
3,71,0,1
3,74,0,444
3,83,127,370
3,81,122,134
3,83,0,6
3,81,0,18
3,81,127,32
3,81,0,46
3,79,119,3
3,79,0,63
3,78,122,80
3,78,0,64
3,76,116,32
3,76,0,36
3,74,122,13
3,74,0,16
3,69,117,523
3,69,0,50
3,69,127,3
3,69,0,52
3,71,127,0
3,71,0,50
3,72,127,46
3,72,0,52
3,74,122,38
3,74,0,55
3,72,127,43
3,72,0,54
3,74,127,42
3,74,0,40
3,72,116,53
3,71,127,96
3,72,0,2
3,71,0,54
3,74,103,46
3,74,0,12
3,81,122,573
3,81,0,58
3,83,127,10
3,83,0,90
3,84,127,29
3,84,0,54
3,83,127,46
3,83,0,112
3,81,127,38
3,79,127,36
3,81,0,10
3,79,0,50
3,84,127,559
3,84,0,70
3,84,122,28
3,84,0,24
3,84,127,26
3,83,127,94
3,84,0,5
3,83,0,90
3,81,122,2
3,81,0,99
3,79,122,2
3,79,0,48
3,79,127,42
3,79,0,102
3,71,122,4
3,71,0,86
3,74,127,4
3,74,0,423
3,83,79,247
3,83,0,70
3,83,87,28
3,83,0,70
3,81,98,26
3,81,0,49
3,81,87,45
3,81,0,158
3,79,88,37
3,78,85,50
3,79,0,17
3,78,0,61
3,76,83,12
3,76,0,34
3,74,94,21
3,74,0,428
3,69,105,517
3,69,0,56
3,69,127,4
3,71,127,94
3,69,0,1
3,72,127,51
3,71,0,4
3,72,0,49
3,74,127,38
3,74,0,53
3,72,127,40
3,74,122,90
3,72,0,3
3,74,0,42
3,72,127,58
3,72,0,100
3,71,127,54
3,71,0,46
3,67,127,6
3,67,0,429
3,79,127,376
3,81,127,53
3,79,0,4
3,81,0,39
3,83,127,54
3,84,122,91
3,83,0,8
3,84,0,42
3,83,127,46
3,83,0,94
3,81,127,2
3,81,0,36
3,81,127,57
3,81,0,100
3,79,122,0
3,79,0,88
3,84,127,1
3,84,0,115
3,84,127,478
3,83,122,54
3,84,0,10
3,83,0,31
3,83,127,49
3,81,122,91
3,83,0,2
3,81,0,42
3,81,122,52
3,79,122,104
3,81,0,1
3,79,0,44
3,83,127,53
3,83,0,416
3,83,127,108
3,83,0,81
3,83,127,15
3,81,127,56
3,83,0,2
3,81,0,44
3,81,127,45
3,79,127,87
3,81,0,5
3,79,0,36
3,79,122,54
3,78,122,100
3,79,0,4
3,78,0,38
3,78,119,53
3,76,122,95
3,78,0,3
3,76,0,38
3,74,119,55
3,81,127,103
3,74,0,1
3,81,0,451
3,79,127,80
3,79,0,156
3,78,127,30
3,78,0,138
3,84,122,148
3,84,0,34
3,84,127,54
3,84,0,116
3,84,127,41
3,84,0,97
3,84,127,39
3,84,0,35
3,84,127,66
3,84,0,133
3,83,127,1
3,83,0,147
3,79,127,2
3,79,0,332
3,79,127,343
3,81,127,53
3,79,0,4
3,81,0,39
3,83,127,54
3,84,122,91
3,83,0,8
3,84,0,42
3,83,127,46
3,83,0,94
3,81,127,2
3,81,0,36
3,81,127,57
3,81,0,100
3,79,122,0
3,79,0,88
3,84,127,1
3,84,0,115
3,84,121,383
3,84,0,79
3,84,127,16
3,83,122,54
3,84,0,10
3,83,0,31
3,83,127,49
3,81,122,91
3,83,0,2
3,81,0,42
3,81,122,52
3,79,122,104
3,81,0,1
3,79,0,44
3,83,127,53
3,83,0,416
3,83,127,204
3,81,127,56
3,83,0,2
3,81,0,44
3,81,127,45
3,79,127,87
3,81,0,5
3,79,0,36
3,79,122,54
3,78,122,100
3,79,0,4
3,78,0,38
3,78,119,53
3,76,122,95
3,78,0,3
3,76,0,38
3,74,119,55
3,74,0,133
3,79,127,502
3,79,0,156
3,81,127,30
3,81,0,138
3,84,122,148
3,84,0,34
3,84,127,54
3,84,0,116
3,84,127,41
3,84,0,97
3,84,127,39
3,84,0,35
3,84,127,66
3,84,0,131
3,83,127,3
3,83,0,147
3,79,127,2
3,79,0,332
3,79,127,14168
3,81,127,48
3,79,0,4
3,81,0,44
3,83,127,50
3,84,127,91
3,83,0,1
3,84,0,44
3,83,127,55
3,83,0,66
3,81,127,30
3,81,0,40
3,81,127,55
3,81,0,86
3,79,127,8
3,79,0,47
3,84,127,54
3,84,0,1
3,89,127,202
3,88,122,59
3,89,0,8
3,88,0,31
3,88,127,50
3,88,0,139
3,86,127,50
3,84,127,97
3,86,0,10
3,84,0,25
3,84,127,58
3,84,0,98
3,83,127,0
3,83,0,34
3,83,122,63
3,79,127,97
3,83,0,1
3,79,0,40
3,83,127,55
3,83,0,33
3,91,127,65
3,91,0,37
3,91,127,49
3,91,0,94
3,88,122,2
3,88,0,39
3,88,127,54
3,86,127,96
3,88,0,3
3,86,0,37
3,86,127,53
3,84,127,94
3,86,0,7
3,84,0,32
3,84,127,62
3,84,0,96
3,83,127,2
3,83,0,45
3,91,127,47
3,91,0,54
3,90,127,48
3,90,0,21
3,83,127,579
3,83,0,83
3,84,127,2
3,84,0,94
3,84,127,53
3,84,0,74
3,84,127,64
3,84,0,44
3,84,127,73
3,83,127,114
3,84,0,15
3,83,0,58
3,83,127,75
3,83,0,6
3,79,127,342
3,81,127,53
3,79,0,2
3,81,0,51
3,83,127,45
3,84,127,95
3,83,0,2
3,84,0,70
3,83,127,68
3,81,127,95
3,83,0,3
3,81,0,47
3,89,127,5
3,89,0,117
3,88,81,20
3,88,0,47
3,88,99,15
3,88,0,12
3,91,127,492
3,91,0,41
3,91,127,53
3,91,0,4
3,90,111,5
3,90,0,9
3,90,119,6
3,88,119,138
3,90,0,4
3,88,0,34
3,88,127,60
3,86,113,17
3,88,0,2
3,86,0,78
3,86,127,67
3,86,0,40
3,88,127,214
3,86,127,96
3,88,0,8
3,86,0,17
3,86,127,29
3,84,127,95
3,86,0,7
3,84,0,25
3,84,127,60
3,83,127,97
3,84,0,4
3,83,0,40
3,83,127,53
3,83,0,92
3,81,127,0
3,81,0,43
3,81,127,50
3,81,0,52
3,83,127,405
3,83,0,184
3,84,127,12
3,84,0,1
3,84,122,151
3,84,0,90
3,86,127,2
3,86,0,136
3,84,127,3
3,84,0,101
3,84,127,46
3,84,0,42
3,84,127,60
3,84,0,131
3,83,127,6
3,83,0,148
3,79,122,1
3,79,0,223
3,69,127,390
3,69,0,43
3,71,110,12
3,71,0,39
3,74,119,4
3,74,0,37
3,76,117,11
3,76,0,40
3,79,122,11
3,79,0,41
3,81,127,7
3,81,0,3
3,81,127,22
3,81,0,49
3,79,127,47
3,79,0,90
3,86,127,3
3,86,0,4
3,86,127,0
3,86,0,14
3,83,127,1
3,83,0,4
3,74,119,225
3,74,0,40
3,75,114,7
3,75,0,31
3,79,117,8
3,79,0,26
3,82,90,7
3,82,0,18
3,86,117,18
3,85,112,41
3,86,0,11
3,85,0,31
3,84,117,8
3,84,0,28
3,88,117,21
3,88,0,44
3,83,112,1
3,83,0,39
3,81,114,8
3,81,0,23
3,79,114,24
3,80,114,49
3,79,0,5
3,80,0,25
3,81,99,18
3,79,122,47
3,81,0,6
3,79,0,33
3,78,117,13
3,78,0,42
3,76,122,4
3,78,119,41
3,76,0,8
3,79,117,38
3,78,0,12
3,81,112,36
3,79,0,13
3,81,0,30
3,83,127,7
3,83,0,49
3,86,127,54
3,86,0,50
3,83,127,53
3,83,0,61
3,93,125,32
3,93,0,6
3,93,127,2
3,91,127,4
3,93,0,2
3,91,0,177
3,90,127,165
3,90,0,33
3,91,122,57
3,90,114,42
3,91,0,8
3,90,0,30
3,86,114,7
3,86,0,47
3,81,127,6
3,81,0,31
3,93,127,17
3,93,0,38
3,91,127,95
3,91,0,8
3,90,119,5
3,90,0,30
3,91,114,14
3,90,117,41
3,91,0,7
3,90,0,38
3,86,112,8
3,87,97,48
3,86,0,1
3,87,0,33
3,90,119,15
3,88,122,49
3,90,0,11
3,88,0,32
3,83,117,7
3,83,0,27
3,79,119,16
3,79,0,36
3,78,122,10
3,78,0,39
3,76,127,10
3,76,0,234
3,79,127,18
3,79,0,35
3,76,110,10
3,76,0,46
3,81,127,1
3,81,0,10
3,81,127,2
3,81,0,59
3,79,127,1
3,79,0,58
3,86,127,31
3,86,0,6
3,86,127,1
3,83,127,70
3,86,0,1
3,83,0,10
3,81,127,192
3,81,0,40
3,86,127,6
3,86,0,37
3,81,119,5
3,81,0,44
3,86,127,5
3,86,0,20
3,83,125,28
3,81,114,29
3,83,0,14
3,79,114,11
3,81,0,11
3,76,101,11
3,79,0,2
3,76,0,29
3,81,127,2
3,81,0,39
3,76,117,7
3,76,0,37
3,79,127,5
3,79,0,42
3,76,117,7
3,76,0,36
3,72,119,7
3,72,0,46
3,69,119,7
3,69,0,51
3,74,125,0
3,68,112,40
3,74,0,21
3,68,0,33
3,69,117,1
3,69,0,36
3,71,112,4
3,69,117,49
3,71,0,9
3,69,0,35
3,71,122,3
3,71,0,45
3,74,117,2
3,74,0,45
3,71,112,1
3,71,0,40
3,72,125,8
3,72,0,43
3,76,119,8
3,76,0,41
3,79,117,12
3,84,58,6
3,84,0,9
3,79,0,24
3,83,114,10
3,83,0,35
3,86,117,13
3,86,0,41
3,85,112,5
3,85,0,45
3,84,117,7
3,84,0,34
3,88,127,11
3,83,114,47
3,88,0,3
3,83,0,45
3,81,114,1
3,81,0,26
3,79,114,22
3,79,0,49
3,80,112,0
3,80,0,36
3,81,114,9
3,79,119,53
3,81,0,9
3,79,0,31
3,78,119,11
3,78,0,42
3,76,86,12
3,76,0,17
3,79,127,25
3,76,101,44
3,79,0,1
3,76,0,32
3,78,127,17
3,78,0,40
3,81,127,101
3,81,0,44
3,78,117,9
3,78,0,29
3,79,127,18
3,79,0,58
3,83,127,78
3,83,0,47
3,79,117,5
3,79,0,31
3,81,127,12
3,81,0,59
3,84,127,85
3,84,0,40
3,81,114,13
3,81,0,34
3,83,122,15
3,83,0,38
3,86,127,117
3,86,0,48
3,86,127,48
3,86,0,47
3,88,127,45
3,88,0,11
3,86,127,114
3,86,0,15
3,83,127,5
3,83,0,56
3,88,127,85
3,86,127,50
3,88,0,1
3,86,0,1
3,83,127,137
3,83,0,6
3,81,127,4
3,81,0,57
3,86,127,78
3,86,0,58
3,83,127,0
3,83,0,59
3,81,127,123
3,79,127,24
3,81,0,4
3,79,0,94
3,81,125,2
3,79,122,46
3,81,0,5
3,81,127,45
3,79,0,6
3,81,0,4
3,81,125,2
3,79,105,7
3,81,0,2
3,79,0,19
3,76,101,2
3,76,0,29
3,81,127,4
3,79,127,109
3,81,0,2
3,79,0,80
3,76,127,1
3,76,0,40
3,74,122,23
3,74,0,32
3,75,112,4
3,75,0,33
3,79,105,2
3,79,0,31
3,83,90,3
3,83,0,23
3,86,127,7
3,85,114,54
3,86,0,10
3,84,119,27
3,85,0,7
3,84,0,40
3,83,117,0
3,83,0,38
3,81,125,9
3,79,125,45
3,81,0,2
3,79,0,44
3,78,119,3
3,81,125,53
3,78,0,8
3,79,117,46
3,81,0,1
3,79,0,48
3,74,127,0
3,75,122,45
3,74,0,4
3,78,119,45
3,75,0,7
3,76,122,39
