track,note,velocity,time
1,35,115,952
1,38,87,320
1,35,85,270
1,35,83,28
1,35,103,116
1,38,113,126
1,35,72,126
1,35,103,154
1,38,108,294
1,35,87,230
1,35,84,40
1,35,108,118
1,38,85,124
1,35,84,142
1,35,105,140
1,38,103,288
1,35,83,254
1,35,87,36
1,35,94,118
1,38,110,118
1,35,77,124
1,35,99,132
1,38,108,294
1,35,78,230
1,35,95,30
1,35,103,116
1,38,108,112
1,35,92,126
1,35,110,148
1,52,101,0
1,57,80,0
1,40,96,330
1,40,92,218
1,35,87,54
1,35,99,134
1,40,96,116
1,35,45,136
1,40,85,42
1,35,95,44
1,35,94,146
1,40,101,116
1,35,91,144
1,40,91,42
1,35,96,48
1,35,113,142
1,40,91,124
1,35,101,150
1,40,82,46
1,35,113,70
1,35,95,154
1,40,95,144
1,35,87,144
1,40,89,58
1,35,105,50
1,35,108,152
1,40,103,120
1,35,110,146
1,35,113,152
1,40,51,0
1,40,52,2
1,40,53,18
1,40,54,36
1,40,56,22
1,40,57,34
1,40,58,26
1,40,60,34
1,40,61,26
1,40,62,28
1,40,64,18
1,40,65,36
1,40,66,28
1,40,68,32
1,40,69,22
1,40,70,28
1,40,72,34
1,40,73,30
1,40,74,30
1,40,75,22
1,35,115,20
1,40,77,0
1,40,78,6
1,40,79,18
1,40,81,26
1,35,123,22
1,40,82,0
1,40,83,8
1,40,85,34
1,40,86,20
1,35,113,24
1,40,87,0
1,40,89,8
1,40,90,18
1,40,91,28
1,35,108,24
1,44,116,0
1,52,101,0
1,57,79,0
1,44,69,140
1,44,74,78
1,40,103,36
1,42,99,0
1,35,36,118
1,44,71,0
1,40,103,58
1,44,70,8
1,35,105,44
1,44,111,0
1,35,115,144
1,44,60,0
1,44,69,38
1,40,108,38
1,42,111,0
1,35,92,88
1,44,57,0
1,40,91,44
1,44,71,8
1,35,123,40
1,44,113,0
1,35,68,76
1,44,71,0
1,44,76,72
1,40,113,28
1,42,106,0
1,35,83,116
1,44,74,0
1,40,88,50
1,44,76,8
1,35,88,40
1,44,118,0
1,35,113,128
1,44,69,0
1,44,77,30
1,40,108,32
1,42,111,0
1,40,88,94
1,44,74,0
1,40,89,52
1,44,91,8
1,35,113,36
1,44,116,0
1,35,103,120
1,44,69,0
1,44,74,28
1,40,108,36
1,42,99,0
1,35,85,142
1,44,71,0
1,40,92,58
1,44,70,8
1,35,95,44
1,44,111,0
1,35,108,144
1,44,60,0
1,44,69,34
1,40,110,38
1,42,111,0
1,40,87,138
1,44,57,0
1,40,88,70
1,44,71,8
1,35,110,40
1,44,113,0
1,35,108,120
1,44,71,0
1,44,76,30
1,40,110,36
1,42,106,0
1,35,99,116
1,44,74,0
1,40,92,42
1,44,76,8
1,35,105,40
1,44,118,0
1,35,118,128
1,44,69,0
1,44,77,32
1,40,94,32
1,42,111,0
1,40,90,52
1,40,94,44
1,44,74,0
1,40,91,44
1,44,91,8
1,35,118,36
1,44,116,0
1,35,113,124
1,44,69,0
1,44,74,36
1,40,108,36
1,42,99,0
1,35,88,142
1,44,71,0
1,40,96,38
1,44,70,8
1,35,101,42
1,44,111,0
1,35,115,144
1,44,60,0
1,44,69,40
1,40,105,38
1,42,111,0
1,35,62,138
1,40,87,0
1,44,57,0
1,40,84,66
1,44,71,8
1,35,118,16
1,44,113,0
1,35,99,138
1,44,71,0
1,44,76,46
1,40,113,36
1,42,106,0
1,35,99,116
1,44,74,0
1,40,101,46
1,44,76,8
1,35,99,40
1,44,118,0
1,35,103,128
1,44,69,0
1,44,77,32
1,40,108,32
1,42,111,0
1,40,92,50
1,40,90,50
1,44,74,0
1,40,85,44
1,44,91,8
1,35,108,36
1,38,38,0
1,44,116,0
1,38,39,48
1,35,80,38
1,38,40,0
1,44,69,0
1,38,41,58
1,44,74,8
1,38,43,28
1,40,108,0
1,42,99,0
1,38,44,46
1,35,95,62
1,38,45,0
1,44,71,0
1,38,47,48
1,40,99,0
1,44,70,8
1,35,99,44
1,38,48,0
1,44,111,0
1,38,49,50
1,35,113,62
1,38,51,0
1,44,60,0
1,38,52,20
1,44,69,8
1,38,53,38
1,40,108,0
1,42,111,0
1,38,55,42
1,38,56,66
1,40,90,0
1,44,57,0
1,38,57,58
1,40,92,0
1,44,71,8
1,35,105,40
1,38,59,0
1,49,113,0
1,38,59,10
1,38,60,2
1,38,60,16
1,38,61,2
1,38,62,10
1,38,62,2
1,38,63,20
1,38,64,2
1,38,64,10
1,38,65,2
1,38,66,16
1,38,66,2
1,38,67,10
1,38,68,2
1,38,68,20
1,38,69,2
1,38,70,10
1,38,70,2
1,38,71,16
1,38,72,2
1,38,72,10
1,38,73,2
1,38,74,20
1,38,74,2
1,38,75,10
1,38,76,2
1,38,76,16
1,38,77,2
1,38,77,10
1,38,78,2
1,38,79,20
1,35,108,2
1,44,116,0
1,52,101,0
1,57,79,0
1,44,69,140
1,44,74,78
1,40,103,36
1,42,99,0
1,35,36,118
1,44,71,0
1,40,103,58
1,44,70,8
1,35,105,44
1,44,111,0
1,35,115,144
1,44,60,0
1,44,69,38
1,40,108,38
1,42,111,0
1,35,92,88
1,44,57,0
1,40,91,44
1,44,71,8
1,35,123,40
1,44,113,0
1,35,68,76
1,44,71,0
1,44,76,72
1,40,113,28
1,42,106,0
1,35,83,116
1,44,74,0
1,40,88,50
1,44,76,8
1,35,88,40
1,44,118,0
1,35,113,128
1,44,69,0
1,44,77,30
1,40,108,32
1,42,111,0
1,40,88,94
1,44,74,0
1,40,89,52
1,44,91,8
1,35,113,36
1,44,116,0
1,35,103,120
1,44,69,0
1,44,74,28
1,40,108,36
1,42,99,0
1,35,85,142
1,44,71,0
1,40,92,58
1,44,70,8
1,35,95,44
1,44,111,0
1,35,108,144
1,44,60,0
1,44,69,34
1,40,110,38
1,42,111,0
1,40,87,138
1,44,57,0
1,40,88,70
1,44,71,8
1,35,110,40
1,44,113,0
1,35,108,120
1,44,71,0
1,44,76,30
1,40,110,36
1,42,106,0
1,35,99,116
1,44,74,0
1,40,92,42
1,44,76,8
1,35,105,40
1,44,118,0
1,35,118,128
1,44,69,0
1,44,77,32
1,40,94,32
1,42,111,0
1,40,90,52
1,40,94,44
1,44,74,0
1,40,91,44
1,44,91,8
1,35,118,36
1,44,116,0
1,35,113,124
1,44,69,0
1,44,74,36
1,40,108,36
1,42,99,0
1,35,88,142
1,44,71,0
1,40,96,38
1,44,70,8
1,35,101,42
1,44,111,0
1,35,115,144
1,44,60,0
1,44,69,40
1,40,105,38
1,42,111,0
1,35,62,138
1,40,87,0
1,44,57,0
1,40,84,66
1,44,71,8
1,35,118,16
1,44,113,0
1,35,99,138
1,44,71,0
1,44,76,46
1,40,113,36
1,42,106,0
1,35,99,116
1,44,74,0
1,40,101,46
1,44,76,8
1,35,99,40
1,44,118,0
1,35,103,128
1,44,69,0
1,44,77,32
1,40,108,32
1,42,111,0
1,40,92,50
1,40,90,50
1,44,74,0
1,40,85,44
1,44,91,8
1,35,113,36
1,44,116,0
1,35,103,120
1,44,69,0
1,44,74,28
1,40,108,36
1,42,99,0
1,35,85,142
1,44,71,0
1,40,92,58
1,44,70,8
1,35,95,44
1,44,111,0
1,35,108,144
1,44,60,0
1,44,69,34
1,40,110,38
1,42,111,0
1,40,87,138
1,44,57,0
1,40,88,70
1,44,71,8
1,35,110,40
1,44,113,0
1,35,108,120
1,44,71,0
1,44,76,30
1,40,110,36
1,42,106,0
1,35,99,116
1,44,74,0
1,40,92,42
1,44,76,8
1,35,105,40
1,44,118,0
1,35,118,128
1,44,69,0
1,44,77,32
1,40,94,32
1,42,111,0
1,40,90,52
1,40,94,44
1,44,74,0
1,40,91,44
1,44,91,8
1,35,108,36
1,44,116,0
1,52,101,0
1,57,79,0
1,44,69,140
1,44,74,78
1,28,78,36
1,39,86,0
1,40,103,0
1,42,99,0
1,76,80,0
1,85,73,0
1,35,36,118
1,44,71,0
1,40,103,58
1,44,70,8
1,35,105,44
1,44,111,0
1,35,115,144
1,44,60,0
1,44,69,38
1,28,79,38
1,39,82,0
1,40,108,0
1,42,111,0
1,76,74,0
1,85,72,0
1,35,92,88
1,44,57,0
1,40,91,44
1,44,71,8
1,35,123,40
1,44,113,0
1,35,68,76
1,44,71,0
1,44,76,72
1,40,113,28
1,42,106,0
1,35,83,116
1,44,74,0
1,40,88,50
1,44,76,8
1,35,88,40
1,44,118,0
1,35,113,128
1,44,69,0
1,44,77,30
1,28,83,32
1,39,87,0
1,40,108,0
1,42,111,0
1,76,83,0
1,85,74,0
1,40,88,94
1,44,74,0
1,40,89,52
1,44,91,8
1,35,113,36
1,44,116,0
1,35,103,120
1,44,69,0
1,44,74,28
1,28,77,36
1,39,85,0
1,40,108,0
1,42,99,0
1,76,78,0
1,85,72,0
1,35,85,110
1,44,71,0
1,40,92,58
1,44,70,8
1,35,95,44
1,44,111,0
1,35,108,144
1,44,60,0
1,44,69,34
1,28,80,38
1,39,82,0
1,40,110,0
1,42,111,0
1,76,75,0
1,85,76,0
1,40,87,110
1,44,57,0
1,40,88,70
1,44,71,8
1,35,110,40
1,44,113,0
1,35,108,120
1,44,71,0
1,44,76,30
1,28,79,36
1,39,88,0
1,40,110,0
1,42,106,0
1,76,78,0
1,85,74,0
1,35,99,114
1,44,74,0
1,40,92,42
1,44,76,8
1,35,105,40
1,44,118,0
1,35,118,128
1,44,69,0
1,44,77,32
1,40,94,32
1,42,111,0
1,40,90,52
1,40,94,44
1,44,74,0
1,40,91,44
1,44,91,8
1,35,118,36
1,44,116,0
1,35,113,124
1,44,69,0
1,44,74,36
1,28,75,36
1,39,83,0
1,40,108,0
1,42,99,0
1,76,77,0
1,35,88,140
1,44,71,0
1,40,96,38
1,44,70,8
1,35,101,42
1,44,111,0
1,35,115,144
1,44,60,0
1,44,69,40
1,28,77,38
1,39,80,0
1,40,105,0
1,42,111,0
1,76,81,0
1,35,62,138
1,40,87,0
1,44,57,0
1,40,84,66
1,44,71,8
1,35,118,16
1,44,113,0
1,35,99,138
1,44,71,0
1,44,76,46
1,40,113,36
1,42,106,0
1,35,99,116
1,44,74,0
1,40,101,46
1,44,76,8
1,35,99,40
1,44,118,0
1,35,103,128
1,44,69,0
1,44,77,32
1,28,80,32
1,39,85,0
1,40,108,0
1,42,111,0
1,76,90,0
1,40,92,48
1,40,90,50
1,44,74,0
1,40,85,44
1,44,91,8
1,35,113,36
1,44,116,0
1,35,103,120
1,44,69,0
1,44,74,28
1,28,80,36
1,39,86,0
1,40,108,0
1,42,99,0
1,76,84,0
1,35,85,142
1,44,71,0
1,40,92,58
1,44,70,8
1,35,95,44
1,44,111,0
1,35,108,144
1,44,60,0
1,44,69,34
1,28,77,38
1,39,83,0
1,40,110,0
1,42,111,0
1,76,88,0
1,40,87,138
1,44,57,0
1,40,88,70
1,44,71,8
1,35,110,40
1,37,105,0
1,40,59,0
1,44,113,0
1,51,113,0
1,40,59,10
1,40,60,2
1,40,60,16
1,35,108,2
1,40,61,0
1,44,71,0
1,40,62,10
1,40,62,2
1,44,76,8
1,40,63,20
1,28,82,2
1,39,92,0
1,40,64,0
1,42,106,0
1,76,92,0
1,40,64,0
1,40,65,2
1,40,66,16
1,35,99,2
1,40,66,0
1,44,74,0
1,40,67,6
1,40,68,2
1,44,76,8
1,40,68,20
1,35,105,40
1,40,69,0
1,44,118,0
1,40,70,2
1,40,70,2
1,40,71,16
1,35,118,2
1,40,72,0
1,44,69,0
1,40,72,10
1,40,73,2
1,44,77,8
1,40,74,20
1,40,74,2
1,42,111,0
1,40,75,10
1,40,76,2
1,40,76,16
1,40,77,44
1,44,74,0
1,40,77,4
1,40,78,44
1,44,91,8
1,40,79,20
1,35,108,2
1,44,116,0
1,52,101,0
1,57,79,0
1,44,69,140
1,44,74,78
1,40,103,36
1,42,99,0
1,35,36,118
1,44,71,0
1,40,103,58
1,44,70,8
1,35,105,44
1,44,111,0
1,35,115,144
1,44,60,0
1,44,69,38
1,40,108,38
1,42,111,0
1,35,92,88
1,44,57,0
1,40,91,44
1,44,71,8
1,35,123,40
1,44,113,0
1,35,68,76
1,44,71,0
1,44,76,72
1,40,113,28
1,42,106,0
1,35,83,116
1,44,74,0
1,40,88,50
1,44,76,8
1,35,88,40
1,44,118,0
1,35,113,128
1,44,69,0
1,44,77,30
1,40,108,32
1,42,111,0
1,40,88,94
1,44,74,0
1,40,89,52
1,44,91,8
1,35,113,36
1,44,116,0
1,35,103,120
1,44,69,0
1,44,74,28
1,40,108,36
1,42,99,0
1,35,85,142
1,44,71,0
1,40,92,58
1,44,70,8
1,35,95,44
1,44,111,0
1,35,108,144
1,44,60,0
1,44,69,34
1,40,110,38
1,42,111,0
1,40,87,138
1,44,57,0
1,40,88,70
1,44,71,8
1,35,110,40
1,44,113,0
1,35,108,120
1,44,71,0
1,44,76,30
1,40,110,36
1,42,106,0
1,35,99,116
1,44,74,0
1,40,92,42
1,44,76,8
1,35,105,40
1,44,118,0
1,35,118,128
1,44,69,0
1,44,77,32
1,40,94,32
1,42,111,0
1,40,90,52
1,40,94,44
1,44,74,0
1,40,91,44
1,44,91,8
1,35,118,36
1,44,116,0
1,35,113,124
1,44,69,0
1,44,74,36
1,40,108,36
1,42,99,0
1,35,88,142
1,44,71,0
1,40,96,38
1,44,70,8
1,35,101,42
1,44,111,0
1,35,115,144
1,44,60,0
1,44,69,40
1,40,105,38
1,42,111,0
1,35,62,138
1,40,87,0
1,44,57,0
1,40,84,66
1,44,71,8
1,35,118,16
1,44,113,0
1,35,99,138
1,44,71,0
1,44,76,46
1,40,113,36
1,42,106,0
1,35,99,116
1,44,74,0
1,40,101,46
1,44,76,8
1,35,99,40
1,44,118,0
1,35,103,128
1,44,69,0
1,44,77,32
1,40,108,32
1,42,111,0
1,40,92,50
1,40,90,50
1,44,74,0
1,40,85,44
1,44,91,8
1,35,113,36
1,44,116,0
1,35,103,120
1,44,69,0
1,44,74,28
1,40,108,36
1,42,99,0
1,35,85,142
1,44,71,0
1,40,92,58
1,44,70,8
1,35,95,44
1,44,111,0
1,35,108,144
1,44,60,0
1,44,69,34
1,40,110,38
1,42,111,0
1,40,87,138
1,44,57,0
1,40,88,70
1,44,71,8
1,35,110,40
1,44,113,0
1,35,108,120
1,44,71,0
1,44,76,30
1,40,110,36
1,42,106,0
1,35,99,116
1,44,74,0
1,40,92,42
1,44,76,8
1,35,105,40
1,44,118,0
1,35,118,128
1,44,69,0
1,44,77,32
1,40,94,32
1,42,111,0
1,40,90,52
1,40,94,44
1,44,74,0
1,40,91,44
1,44,91,8
1,35,108,36
1,44,116,0
1,52,101,0
1,57,79,0
1,44,69,140
1,44,74,78
1,40,103,36
1,42,99,0
1,35,36,118
1,44,71,0
1,40,103,58
1,44,70,8
1,35,105,44
1,44,111,0
1,35,115,144
1,44,60,0
1,44,69,38
1,40,108,38
1,42,111,0
1,35,92,88
1,44,57,0
1,40,91,44
1,44,71,8
1,35,123,40
1,44,113,0
1,35,68,76
1,44,71,0
1,44,76,72
1,40,113,28
1,42,106,0
1,35,83,116
1,44,74,0
1,40,88,50
1,44,76,8
1,35,88,40
1,44,118,0
1,35,113,128
1,44,69,0
1,44,77,30
1,40,108,32
1,42,111,0
1,40,88,94
1,44,74,0
1,40,89,52
1,44,91,8
1,35,113,36
1,44,116,0
1,35,103,120
1,44,69,0
1,44,74,28
1,40,108,36
1,42,99,0
1,35,85,142
1,44,71,0
1,40,92,58
1,44,70,8
1,35,95,44
1,44,111,0
1,35,108,144
1,44,60,0
1,44,69,34
1,40,110,38
1,42,111,0
1,40,87,138
1,44,57,0
1,40,88,70
1,44,71,8
1,35,110,40
1,44,113,0
1,35,108,120
1,44,71,0
1,44,76,30
1,40,110,36
1,42,106,0
1,35,99,116
1,44,74,0
1,40,92,42
1,44,76,8
1,35,105,40
1,44,118,0
1,35,118,128
1,44,69,0
1,44,77,32
1,40,94,32
1,42,111,0
1,40,90,52
