track,note,velocity,time
3,58,68,0
3,58,0,11
3,60,60,0
3,60,0,16
3,62,44,0
3,62,0,16
3,63,46,0
3,63,0,2
3,60,64,0
3,58,60,24
3,60,0,3
3,58,0,13
3,55,52,0
3,55,0,16
3,55,56,0
3,55,0,12
3,58,84,0
3,58,0,33
3,60,54,0
3,60,0,11
3,60,66,0
3,60,0,13
3,58,84,0
3,58,0,13
3,60,72,0
3,60,0,12
3,58,76,0
3,58,0,15
3,60,46,0
3,60,0,24
3,63,60,0
3,60,60,0
3,63,0,1
3,60,0,46
3,58,56,1
3,58,0,17
3,55,56,0
3,55,0,35
3,58,68,0
3,58,0,13
3,60,64,0
3,60,0,15
3,62,62,0
3,62,0,23
3,63,62,0
3,63,0,1
3,60,62,0
3,58,54,22
3,60,0,1
3,58,0,8
3,55,60,0
3,55,0,14
3,55,52,0
3,55,0,12
3,58,68,0
3,58,0,37
3,60,58,0
3,60,0,12
3,60,64,0
3,60,0,14
3,58,72,0
3,58,0,13
3,60,64,0
3,60,0,17
3,58,68,0
3,58,0,12
3,60,48,0
3,60,0,37
3,63,54,0
3,63,0,24
3,60,58,0
3,60,0,45
3,58,62,3
3,58,0,18
3,55,66,0
3,55,0,20
3,60,58,0
3,60,0,12
3,63,68,0
3,63,0,17
3,67,66,0
3,65,62,0
3,67,0,1
3,63,54,47
3,65,0,12
3,63,0,5
3,60,50,0
3,60,0,3
3,65,48,0
3,65,0,9
3,65,44,0
3,65,0,22
3,63,80,0
3,63,0,12
3,63,84,0
3,63,0,14
3,62,58,0
3,62,0,12
3,62,68,0
3,62,0,10
3,60,64,0
3,60,0,13
3,60,66,0
3,60,0,12
3,62,66,0
3,62,0,12
3,63,88,0
3,58,60,0
3,63,0,5
3,58,0,12
3,60,35,0
3,60,0,1
3,60,56,0
3,60,0,11
3,63,76,0
3,63,0,16
3,67,66,0
3,65,66,0
3,67,0,4
3,65,0,1
3,65,100,0
3,65,0,24
3,65,68,0
3,63,88,0
3,65,0,7
3,63,0,4
3,63,84,0
3,63,0,14
3,62,80,0
3,62,0,13
3,62,58,0
3,62,0,9
3,60,60,0
3,60,0,13
3,60,54,0
3,60,0,16
3,62,72,0
3,62,0,14
3,63,50,0
3,63,0,7
3,63,72,0
3,63,0,16
3,65,66,0
3,65,0,16
3,63,68,0
3,63,0,18
3,67,66,0
3,63,52,1
3,67,0,5
3,63,0,13
3,65,56,0
3,65,0,1
3,67,62,0
3,67,0,8
3,70,84,0
3,70,0,21
3,67,72,0
3,67,0,13
3,70,80,0
3,70,0,20
3,72,76,0
3,70,84,0
3,72,0,7
3,70,0,1
3,70,76,0
3,70,0,93
3,69,72,0
3,67,64,0
3,69,0,1
3,67,0,8
3,67,68,0
3,67,0,12
3,67,76,0
3,67,0,41
3,65,58,0
3,65,0,12
3,65,66,0
3,65,0,40
3,63,68,0
3,63,0,12
3,63,72,0
3,63,0,21
3,60,52,0
3,60,0,13
3,63,84,0
3,63,0,27
3,65,56,0
3,65,0,16
3,67,80,0
3,65,60,0
3,67,0,1
3,65,0,11
3,65,66,0
3,65,0,45
3,63,64,0
3,63,0,15
3,65,66,0
3,65,0,15
3,67,64,0
3,67,0,21
3,70,84,0
3,70,0,16
3,67,56,0
3,67,0,15
3,72,60,0
3,70,88,0
3,70,0,23
3,72,0,36
3,70,64,0
3,70,0,1
3,70,84,0
3,70,0,89
3,69,76,0
3,67,62,0
3,69,0,6
3,67,100,0
3,67,0,2
3,67,0,1
3,67,68,0
3,67,0,36
3,65,40,0
3,65,0,10
3,65,68,0
3,65,0,39
3,63,60,0
3,63,0,10
3,63,56,0
3,63,0,14
3,60,31,0
3,60,0,22
3,63,88,0
3,63,0,28
3,65,68,0
3,65,0,14
3,63,88,0
3,63,0,39
3,60,36,0
3,60,0,15
3,66,84,0
3,66,0,41
3,63,54,0
3,63,0,15
3,70,54,0
3,72,76,0
3,70,0,13
3,70,58,203
3,72,0,1
3,67,58,23
3,70,0,2
3,67,0,45
3,65,52,1
3,63,42,0
3,65,0,1
3,63,0,342
3,67,54,329
3,67,0,22
3,63,54,2
3,63,0,23
3,65,52,1
3,63,46,24
3,65,0,1
3,63,0,15
3,60,40,0
3,60,0,153
3,58,68,0
3,58,0,11
3,60,48,0
3,60,0,17
3,62,64,0
3,62,0,16
3,63,52,0
3,63,0,192
3,60,60,0
3,58,60,24
3,60,0,1
3,58,0,17
3,55,56,0
3,55,0,18
3,55,52,0
3,55,0,14
3,58,84,0
3,58,0,40
3,60,56,0
3,60,0,13
3,60,66,0
3,60,0,14
3,58,80,0
3,58,0,12
3,60,58,0
3,60,0,13
3,58,66,0
3,58,0,13
3,60,56,0
3,60,0,34
3,63,64,0
3,63,0,19
3,60,66,0
3,60,0,43
3,58,62,5
3,58,0,14
3,55,58,0
3,55,0,25
3,58,76,0
3,58,0,12
3,60,54,0
3,60,0,19
3,62,58,0
3,62,0,21
3,63,52,0
3,63,0,189
3,60,62,0
3,58,68,24
3,60,0,2
3,58,0,14
3,55,62,0
3,55,0,15
3,55,62,0
3,55,0,15
3,58,64,0
3,58,0,46
3,60,56,0
3,60,0,12
3,60,52,0
3,60,0,15
3,58,72,0
3,58,0,12
3,60,58,0
3,60,0,15
3,58,68,0
3,58,0,10
3,60,38,0
3,60,0,21
3,63,58,0
3,63,0,20
3,60,54,0
3,58,66,48
3,60,0,2
3,58,0,14
3,55,56,0
3,55,0,19
3,60,76,0
3,60,0,11
3,63,84,0
3,63,0,18
3,67,76,0
3,65,66,0
3,67,0,1
3,65,0,328
3,65,64,0
3,65,0,13
3,65,80,0
3,63,76,0
3,65,0,1
3,63,0,10
3,63,68,0
3,63,0,11
3,62,66,0
3,62,0,11
3,62,68,0
3,62,0,10
3,60,50,0
3,60,0,11
3,60,64,0
3,60,0,15
3,62,68,0
3,62,0,13
3,63,76,0
3,63,0,18
3,60,54,0
3,58,56,0
3,58,0,19
3,60,0,210
3,67,60,155
3,65,68,24
3,67,0,1
3,63,58,0
3,65,0,4
3,63,0,19
3,60,50,0
3,60,0,11
3,63,80,0
3,63,0,16
3,67,62,0
3,65,68,0
3,67,0,1
3,65,0,337
3,65,56,0
3,65,0,10
3,65,76,0
3,63,80,0
3,65,0,5
3,63,0,8
3,63,80,0
3,63,0,16
3,62,68,0
3,62,0,13
3,62,66,0
3,62,0,14
3,60,56,0
3,60,0,13
3,60,68,0
3,60,0,18
3,62,66,0
3,62,0,12
3,63,66,0
3,63,0,175
3,63,80,0
3,63,0,17
3,65,62,0
3,65,0,25
3,63,62,0
3,63,0,21
3,67,68,0
3,63,56,72
3,67,0,7
3,63,0,14
3,65,58,0
3,65,0,155
3,67,68,0
3,67,0,16
3,70,72,0
3,70,0,22
3,67,72,0
3,67,0,14
3,72,72,0
3,70,48,0
3,72,0,6
3,70,0,1
3,70,56,0
3,69,80,0
3,70,0,3
3,67,64,0
3,69,0,3
3,67,0,1
3,67,64,0
3,67,0,12
3,67,84,0
3,67,0,37
3,65,72,0
3,65,0,13
3,65,68,0
3,63,58,0
3,65,0,3
3,63,0,5
3,63,60,0
3,63,0,11
3,60,56,0
3,60,0,13
3,63,80,0
3,63,0,24
3,65,39,0
3,65,0,10
3,67,72,0
3,65,64,0
3,67,0,4
3,65,0,9
3,65,56,0
3,65,0,20
3,63,62,0
3,63,0,11
3,67,84,0
3,65,62,9
3,67,0,7
3,63,58,17
3,65,0,2
3,63,0,15
3,60,54,0
3,60,0,1
3,75,84,0
3,75,0,44
3,75,60,0
3,75,0,1
3,67,76,0
3,67,0,10
3,67,84,0
3,67,0,39
3,65,64,0
3,65,0,12
3,65,64,0
3,65,0,36
3,63,58,0
3,63,0,9
3,63,62,0
3,63,0,16
3,60,60,0
3,60,0,14
3,63,88,0
3,63,0,43
3,65,66,0
3,65,0,12
3,63,84,0
3,63,0,39
3,60,56,0
3,60,0,13
3,66,84,0
3,66,0,41
3,63,66,0
3,63,0,12
3,70,80,0
3,72,80,0
3,70,0,5
3,72,0,1
3,72,92,0
3,70,60,0
3,70,0,13
3,72,0,53
3,70,52,0
3,70,0,60
3,69,68,0
3,69,0,47
3,67,80,0
3,67,0,72
3,65,66,0
3,65,0,47
3,63,88,0
3,63,0,33
3,62,80,0
3,62,0,61
3,60,68,0
3,60,0,49
3,62,88,0
3,62,0,46
3,65,84,0
3,65,0,53
3,63,88,0
3,63,0,29
3,62,92,0
3,62,0,3
3,62,92,0
3,62,0,8
3,63,76,0
3,63,0,48
3,58,84,0
3,58,0,17
3,60,58,0
3,60,0,9
3,72,80,0
3,72,0,51
3,70,66,0
3,70,0,47
3,69,66,0
3,67,56,0
3,67,0,16
3,69,0,26
3,67,88,0
3,67,0,54
3,65,66,0
3,65,0,53
3,63,92,0
3,62,68,0
3,63,0,5
3,62,0,58
3,60,66,0
3,60,0,65
3,62,84,0
3,63,84,0
3,62,0,1
3,63,0,65
3,65,84,0
3,67,80,0
3,65,0,2
3,65,64,0
3,67,0,17
3,63,68,31
3,65,0,16
3,63,0,5
3,60,52,0
3,60,0,21
3,63,80,0
3,63,0,66
3,65,64,0
3,65,0,62
3,67,88,0
3,70,84,0
3,67,0,8
3,70,0,54
3,68,88,0
3,68,0,55
3,67,68,0
3,67,0,38
3,67,62,0
3,68,62,24
3,67,0,1
3,67,64,23
3,68,0,1
3,65,62,23
3,67,0,3
3,65,0,17
3,67,84,0
3,67,0,2
3,58,76,0
3,58,0,15
3,60,68,0
3,60,0,20
3,62,80,0
3,62,0,16
3,63,60,0
3,63,0,1
3,60,64,0
3,60,0,20
3,58,72,4
3,58,0,16
3,55,66,0
3,55,0,14
3,55,62,0
3,55,0,10
3,58,80,0
3,58,0,40
3,60,40,0
3,60,0,10
3,60,62,0
3,60,0,18
3,58,64,0
3,58,0,12
3,60,66,0
3,60,0,17
3,58,68,0
3,58,0,13
3,60,56,0
3,60,0,41
3,63,66,0
3,63,0,20
3,60,62,0
3,58,64,48
3,60,0,2
3,58,0,15
3,55,62,0
3,55,0,1
3,58,80,0
3,58,0,14
3,60,62,0
3,60,0,19
3,62,64,0
3,62,0,22
3,63,56,0
3,63,0,1
3,60,64,0
3,58,56,24
3,60,0,6
3,58,0,11
3,55,60,0
3,55,0,15
3,55,60,0
3,55,0,12
3,58,68,0
3,58,0,36
3,60,60,0
3,60,0,11
3,60,80,0
3,60,0,17
3,58,80,0
3,58,0,13
3,60,64,0
3,60,0,14
3,58,66,0
3,58,0,11
3,60,52,0
3,60,0,21
3,63,66,0
3,63,0,22
3,60,66,0
3,58,68,48
3,60,0,3
3,58,0,14
3,55,58,0
3,55,0,4
3,60,62,0
3,60,0,9
3,63,88,0
3,63,0,20
3,67,66,0
3,65,66,0
3,67,0,1
3,65,0,14
3,65,56,0
3,65,0,14
3,65,68,0
3,63,66,0
3,65,0,11
3,63,0,1
3,63,68,0
3,63,0,18
3,62,56,0
3,62,0,18
3,62,60,0
3,62,0,18
3,60,62,0
3,60,0,19
3,60,56,0
3,60,0,22
3,62,68,0
3,62,0,16
3,63,66,0
3,63,0,53
3,60,54,0
3,60,0,27
3,54,60,114
3,54,0,20
3,53,32,4
3,51,60,0
3,53,0,3
3,51,0,1
3,60,66,0
3,60,0,10
3,63,72,0
3,63,0,20
3,67,68,0
3,65,72,0
3,67,0,6
3,65,0,3
3,60,52,0
3,60,0,11
3,65,80,0
3,63,80,0
3,65,0,3
3,63,0,11
3,63,68,0
3,63,0,15
3,62,64,0
3,62,0,16
3,62,66,0
3,62,0,16
3,60,62,0
3,60,0,14
3,60,62,0
3,60,0,19
3,62,76,0
3,62,0,18
3,63,66,0
3,63,0,1
3,63,84,0
3,63,0,22
3,65,54,0
3,65,0,20
3,63,66,0
3,63,0,14
3,67,76,0
3,63,58,1
3,67,0,3
3,65,64,0
3,63,0,1
3,65,0,1
3,67,84,0
3,67,0,14
3,70,88,0
3,70,0,37
3,67,64,0
3,67,0,37
3,70,84,0
3,70,0,23
3,72,66,0
3,70,76,0
3,72,0,6
3,70,0,15
3,70,64,0
3,69,80,0
3,70,0,4
3,67,64,0
3,69,0,1
3,67,0,1
3,67,66,0
3,67,0,15
3,67,80,0
3,67,0,31
3,65,62,0
3,65,0,15
3,65,72,0
3,65,0,21
3,63,76,0
3,63,0,12
3,63,72,0
3,63,0,14
3,60,50,0
3,60,0,13
3,63,80,0
3,63,0,18
3,65,54,0
3,65,0,17
3,67,72,0
3,65,60,0
3,67,0,4
3,65,0,7
3,65,68,0
3,65,0,36
3,63,62,0
3,63,0,13
3,67,76,0
3,65,56,1
3,67,0,12
3,65,0,8
3,63,62,3
3,63,0,19
3,60,54,0
3,72,76,0
3,60,0,5
3,72,0,67
3,70,54,0
3,70,0,1
3,70,66,0
3,69,80,0
3,70,0,6
3,67,64,0
3,69,0,9
3,67,0,3
3,67,92,0
3,67,0,24
3,67,84,0
3,67,0,37
3,65,64,0
3,65,0,14
3,65,64,0
3,65,0,36
3,63,66,0
3,63,0,12
3,63,54,0
3,63,0,19
3,60,56,0
3,60,0,19
3,63,88,0
3,63,0,47
3,65,68,0
3,65,0,14
3,63,88,0
3,63,0,30
3,60,52,0
3,60,0,22
3,66,88,0
3,66,0,42
3,63,64,0
3,63,0,17
3,69,88,0
3,69,0,45
3,66,66,0
3,66,0,20
3,72,84,0
3,72,0,42
3,69,64,0
3,69,0,14
3,75,84,0
3,75,0,41
3,72,58,0
3,72,0,24
3,75,68,0
3,75,0,193
3,67,68,0
3,67,0,37
3,70,54,0
3,67,54,0
3,70,0,4
3,67,0,7
3,72,66,0
3,70,72,0
3,72,0,3
3,70,0,1
3,70,68,0
3,70,0,92
3,69,72,0
3,67,68,0
3,69,0,6
3,67,92,0
3,67,0,2
3,67,0,12
3,67,84,0
3,67,0,30
3,65,68,0
3,65,0,14
3,65,64,0
3,65,0,34
3,63,76,0
3,63,0,9
3,63,66,0
3,63,0,33
3,60,56,0
3,60,0,17
3,63,80,0
3,63,0,42
3,65,68,0
3,65,0,24
3,67,84,0
3,65,64,0
3,67,0,6
3,65,0,8
3,65,62,0
3,63,68,0
3,65,0,3
3,63,0,12
3,65,68,0
3,65,0,1
3,67,80,0
3,67,0,46
3,70,72,0
3,70,0,45
3,67,64,0
3,67,0,45
3,70,84,0
3,72,68,0
3,70,0,12
3,70,66,0
3,72,0,13
3,70,0,20
3,70,76,0
3,70,0,94
3,69,80,0
3,67,62,0
3,69,0,5
3,67,0,3
3,67,68,0
3,67,0,12
3,67,80,0
3,67,0,41
3,65,76,0
3,65,0,15
3,65,72,0
3,63,62,0
3,65,0,8
3,63,0,1
3,63,66,0
3,63,0,14
3,60,56,0
3,60,0,16
3,63,76,0
3,65,66,0
3,63,0,1
3,65,0,1
3,63,66,0
3,63,0,40
3,60,58,0
3,60,0,15
3,66,80,0
3,66,0,45
3,63,44,0
3,63,0,11
3,72,80,0
3,72,0,18
3,72,40,0
3,72,0,48
3,58,76,239
3,58,0,16
3,58,52,8
3,58,0,10
3,58,62,14
3,58,0,13
3,58,42,11
3,58,0,13
3,58,68,11
3,58,0,9
3,58,72,15
3,58,0,28
3,58,76,239
3,58,0,16
3,58,52,8
3,58,0,10
3,58,62,14
3,58,0,13
3,58,42,11
3,58,0,13
3,58,68,11
3,58,0,9
3,58,72,15
3,58,0,28
3,58,76,239
3,58,0,16
3,58,52,8
3,58,0,10
3,58,62,14
3,58,0,13
3,58,42,11
3,58,0,13
3,58,68,11
3,58,0,9
3,58,72,15
3,58,0,28
3,58,76,239
3,58,0,16
3,58,52,8
3,58,0,10
3,58,62,14
3,58,0,13
3,58,42,11
3,58,0,13
3,58,68,11
3,58,0,9
3,58,72,15
3,58,0,28
3,60,0,8081
3,60,0,383
4,60,68,10483
4,60,0,13
4,63,54,35
4,63,0,17
4,58,64,31
4,63,64,0
4,67,72,0
4,58,0,13
4,67,0,10
4,57,76,1
4,65,76,0
4,60,84,0
4,63,0,9
4,57,0,2
