track,note,velocity,time
3,69,58,3591
3,69,0,13
3,72,88,35
3,72,0,44
3,69,50,4
3,69,0,16
3,72,84,32
3,67,68,19
3,72,0,7
3,67,0,13
3,69,54,4
3,69,0,15
3,69,62,33
3,69,0,2
3,72,62,1
3,72,0,49
3,69,68,186
3,69,0,47
3,72,68,1
3,72,0,34
3,69,62,14
3,69,0,13
3,72,76,35
3,72,0,25
3,66,64,13
3,66,0,20
3,69,66,4
3,69,0,17
3,69,68,31
3,66,56,1
3,69,0,1
3,66,0,68
3,69,58,170
3,69,0,17
3,72,88,31
3,72,0,44
3,69,62,4
3,69,0,18
3,72,80,30
3,66,52,33
3,72,0,2
3,66,0,19
3,69,58,3
3,69,0,17
3,69,68,31
3,72,64,72
3,69,0,5
3,72,0,38
3,67,56,197
3,67,0,17
3,69,60,7
3,72,92,24
3,69,0,1
3,72,0,36
3,69,64,11
3,69,0,23
3,72,84,25
3,66,68,50
3,72,0,11
3,66,0,9
3,69,60,4
3,69,0,19
3,69,66,29
3,69,0,68
3,66,66,4
3,66,0,1
3,69,58,64
3,69,0,18
3,66,88,30
3,66,0,1
3,69,66,145
3,69,0,42
3,66,54,6
3,66,0,42
3,67,56,102
3,67,0,94
3,69,56,2
3,69,0,57
3,69,64,135
3,69,0,47
3,72,62,1
3,72,0,88
3,67,60,728
3,67,0,23
3,69,62,1
3,69,0,21
3,72,80,3
3,69,56,48
3,72,0,4
3,69,0,20
3,72,84,24
3,72,0,44
3,67,56,196
3,69,68,48
3,67,0,9
3,69,0,22
3,69,68,17
3,72,88,48
3,69,0,8
3,72,0,39
3,67,46,193
3,67,0,18
3,69,64,6
3,72,92,24
3,69,0,2
3,69,54,46
3,72,0,7
3,69,0,18
3,72,84,23
3,72,0,47
3,69,36,73
3,69,0,9
3,67,66,111
3,67,0,18
3,69,66,6
3,69,0,19
3,69,84,29
3,69,0,67
3,66,84,5
3,66,0,31
3,67,39,209
3,67,0,21
3,69,64,3
3,72,76,24
3,69,0,6
3,69,52,42
3,72,0,4
3,69,0,25
3,72,76,19
3,72,0,53
3,67,68,187
3,67,0,19
3,69,58,5
3,69,0,23
3,69,66,25
3,72,60,72
3,69,0,6
3,72,0,50
3,67,50,184
3,69,64,24
3,67,0,12
3,72,84,12
3,69,0,6
3,69,66,42
3,72,0,11
3,69,0,21
3,72,72,16
3,72,0,54
3,67,64,186
3,67,0,18
3,69,68,6
3,69,0,35
3,69,76,13
3,66,76,72
3,69,0,5
3,66,0,32
3,67,48,203
3,67,0,16
3,69,68,8
3,69,0,17
3,71,97,7
3,71,0,52
3,71,64,20
3,71,0,42
3,69,46,6
3,69,0,14
3,71,88,10
3,71,0,23
3,73,50,1
3,73,0,60
3,73,80,12
3,73,0,43
3,71,60,53
3,71,0,24
3,69,64,0
3,69,0,16
3,71,92,8
3,71,0,57
3,71,84,15
3,69,48,48
3,71,0,2
3,69,0,12
3,71,72,10
3,71,0,23
3,73,52,1
3,73,0,98
3,74,62,70
3,74,0,23
3,76,76,1
3,76,0,22
3,79,80,2
3,78,50,48
3,78,0,19
3,79,0,0
3,76,66,5
3,74,66,48
3,76,0,8
3,74,0,6
3,76,80,10
3,76,0,80
3,76,84,16
3,76,0,26
3,74,52,70
3,74,0,21
3,76,76,3
3,76,0,17
3,79,72,7
3,79,0,26
3,76,66,22
3,76,0,18
3,79,76,30
3,79,0,31
3,76,64,17
3,76,0,12
3,79,88,36
3,79,0,35
3,76,68,13
3,76,0,11
3,79,80,37
3,79,0,22
3,81,68,26
3,81,0,17
3,84,76,31
3,84,0,46
3,81,76,98
3,81,0,15
3,79,80,33
3,79,0,41
3,81,62,103
3,81,0,11
3,79,76,37
3,79,0,48
3,81,80,0
3,81,0,17
3,76,72,175
3,76,0,14
3,79,76,34
3,79,0,43
3,81,62,5
3,81,0,14
3,84,88,34
3,84,0,49
3,81,65,95
3,81,0,12
3,79,80,36
3,79,0,41
3,81,66,103
3,81,0,17
3,79,80,7
3,81,69,72
3,79,0,8
3,81,0,4
3,76,66,180
3,76,0,19
3,79,68,29
3,79,0,25
3,81,66,23
3,81,0,17
3,84,66,31
3,84,0,66
3,81,88,78
3,81,0,47
3,79,66,1
3,79,0,51
3,81,58,93
3,81,0,13
3,79,80,35
3,81,76,48
3,79,0,4
3,81,0,22
3,79,54,262
3,79,0,12
3,79,40,12
3,79,0,15
3,81,80,9
3,81,0,29
3,81,84,19
3,81,0,22
3,81,84,26
3,81,0,29
3,81,64,19
3,81,0,14
3,79,84,10
3,81,76,48
3,79,0,12
3,81,0,1
3,81,76,11
3,81,0,21
3,81,84,27
3,81,0,24
3,81,52,24
3,81,0,8
3,81,64,16
3,81,0,18
3,79,84,6
3,79,0,22
3,81,64,2
3,81,0,16
3,81,80,8
3,81,0,26
3,81,88,22
3,81,0,39
3,79,60,9
3,79,0,17
3,81,92,7
3,81,0,21
3,72,64,51
3,72,0,39
3,69,72,9
3,69,0,69
3,69,64,1515
3,69,0,11
3,72,92,37
3,72,0,47
3,69,56,1
3,69,0,11
3,72,76,37
3,72,0,50
3,64,50,190
3,64,0,11
3,67,68,37
3,69,54,24
3,67,0,6
3,69,0,17
3,72,68,49
3,72,0,50
3,76,68,190
3,76,0,29
3,81,88,19
3,81,0,33
3,76,62,15
3,76,0,15
3,75,66,36
3,75,0,11
3,74,76,2
3,72,64,16
3,74,0,6
3,69,66,10
3,72,0,3
3,69,0,50
3,67,52,139
3,67,0,20
3,69,66,4
3,69,0,24
3,69,80,24
3,66,54,72
3,69,0,1
3,66,0,40
3,69,56,199
3,69,0,16
3,72,68,32
3,69,62,48
3,72,0,9
3,69,0,10
3,72,66,29
3,72,0,45
3,67,58,195
3,67,0,22
3,69,64,2
3,69,0,21
3,69,68,27
3,69,0,71
3,72,68,1
3,72,0,40
3,67,58,200
3,67,0,24
3,69,52,0
3,69,0,18
3,72,92,6
3,72,0,45
3,69,62,3
3,69,0,20
3,72,76,28
3,72,0,42
3,66,66,198
3,66,0,35
3,69,62,13
3,69,0,37
3,69,66,11
3,69,0,44
3,66,68,4
3,66,0,37
3,67,56,203
3,67,0,24
3,69,58,0
3,69,0,18
3,72,80,6
3,72,0,43
3,69,52,5
3,69,0,22
3,72,66,26
3,72,0,47
3,66,42,193
3,66,0,13
3,69,64,11
3,69,0,33
3,69,80,15
3,69,0,68
3,72,68,4
3,72,0,40
3,69,60,200
3,67,50,0
3,67,0,21
3,69,0,10
3,72,92,17
3,72,0,47
3,69,52,1
3,69,0,20
3,72,88,28
3,72,0,47
3,67,64,193
3,69,58,24
3,67,0,1
3,69,0,18
3,69,68,29
3,69,0,54
3,66,68,18
3,66,0,39
3,69,66,201
3,69,0,20
3,71,66,28
3,71,0,50
3,71,72,22
3,71,0,28
3,69,66,20
3,69,0,21
3,71,66,3
3,71,0,23
3,73,60,1
3,73,0,52
3,73,84,20
3,73,0,34
3,71,58,62
3,71,0,23
3,71,84,25
3,71,0,54
3,71,88,18
3,69,44,48
3,71,0,2
3,69,0,15
3,71,68,7
3,73,76,24
3,71,0,6
3,73,0,36
3,74,62,126
3,76,64,24
3,74,0,4
3,76,0,17
3,79,80,3
3,79,0,40
3,78,72,8
3,78,0,18
3,76,68,6
3,76,0,24
3,74,80,24
3,74,0,14
3,76,84,10
3,76,0,77
3,76,84,19
3,76,0,20
3,74,44,76
3,74,0,24
3,76,56,0
3,76,0,12
3,79,72,12
3,79,0,34
3,79,62,14
3,79,0,20
3,79,92,28
3,79,0,40
3,76,46,8
3,76,0,18
3,79,84,30
3,79,0,44
3,76,62,4
3,76,0,15
3,79,84,33
3,79,0,47
3,81,68,1
3,81,0,21
3,84,80,27
3,84,0,53
3,81,88,91
3,81,0,42
3,79,52,6
3,79,0,41
3,81,62,103
3,81,0,11
3,79,66,37
3,79,0,48
3,81,64,0
3,81,0,20
3,76,76,172
3,76,0,12
3,79,80,36
3,79,0,44
3,81,64,4
3,81,0,37
3,84,88,11
3,84,0,48
3,81,76,96
3,81,0,24
3,79,80,24
3,79,0,45
3,81,80,99
3,81,0,20
3,79,76,28
3,81,84,48
3,79,0,2
3,81,0,29
3,76,52,161
3,76,0,12
3,79,72,36
3,79,0,46
3,81,66,2
3,84,88,48
3,81,0,1
3,84,0,43
3,81,84,100
3,81,0,38
3,79,72,10
3,79,0,43
3,81,66,101
3,81,0,23
3,79,80,25
3,79,0,33
3,79,32,15
3,79,0,19
3,79,64,29
3,81,68,24
3,79,0,4
3,81,0,19
3,81,80,25
3,81,0,33
3,79,44,135
3,79,0,11
3,79,52,13
3,79,0,17
3,81,84,7
3,81,0,32
3,81,66,16
3,81,0,18
3,81,88,30
3,81,0,42
3,79,48,6
3,79,0,15
3,81,64,9
3,81,0,30
3,81,68,18
3,81,0,11
3,81,84,13
3,81,0,25
3,81,92,23
3,81,0,32
3,79,54,16
3,81,52,24
3,79,0,3
3,81,0,7
3,81,80,14
3,81,0,25
3,81,84,23
3,81,0,20
3,81,84,28
3,81,0,37
3,79,36,11
3,79,0,12
3,81,88,12
3,81,0,30
3,69,44,4746
3,69,0,7
3,69,64,17
3,69,0,16
3,71,88,8
3,71,0,42
3,69,48,6
3,69,0,6
3,71,76,18
3,71,0,43
3,69,62,5
3,69,0,10
3,71,80,14
3,71,0,22
3,73,64,2
3,73,0,72
3,73,92,0
3,73,0,2
3,71,64,94
3,71,0,19
3,71,92,29
3,71,0,57
3,71,88,15
3,71,0,39
3,69,64,9
3,69,0,15
3,71,76,9
3,71,0,16
3,73,84,8
3,73,0,1
3,74,62,62
3,74,0,20
3,76,68,4
3,79,72,24
3,76,0,3
3,79,0,37
3,78,66,8
3,78,0,19
3,76,88,5
3,76,0,22
3,74,80,26
3,74,0,15
3,76,88,9
3,76,0,5
3,76,66,1
3,76,0,2
3,74,60,86
3,74,0,18
3,76,80,6
3,79,80,24
3,76,0,6
3,79,0,22
3,79,60,20
3,79,0,19
3,79,92,29
3,79,0,35
3,76,48,13
3,76,0,16
3,79,92,32
3,79,0,44
3,76,72,4
3,76,0,12
3,79,84,36
3,79,0,45
3,81,68,3
3,81,0,47
3,84,88,1
3,84,0,1
3,81,88,66
3,81,0,39
3,79,68,9
3,79,0,1
3,81,84,64
3,81,0,42
3,79,76,6
3,79,0,46
3,81,72,2
3,81,0,14
3,76,64,178
3,76,0,12
3,79,76,36
3,79,0,44
3,81,72,4
3,84,92,48
3,81,0,4
3,84,0,1
3,81,80,59
3,81,0,38
3,79,64,10
3,79,0,1
3,81,88,61
3,81,0,41
3,79,44,7
3,81,80,1
3,79,0,1
3,81,0,13
3,79,60,78
3,79,0,48
3,81,64,0
3,81,0,14
3,76,80,34
3,76,0,46
3,79,76,2
3,79,0,45
3,81,68,3
3,81,0,47
3,84,92,1
3,84,0,1
3,81,48,56
3,81,0,41
3,79,68,2
3,79,0,1
3,81,88,77
3,79,38,48
3,81,0,2
3,81,80,46
3,79,0,1
3,81,0,1
3,81,80,232
3,81,0,11
3,81,84,37
3,81,0,19
3,81,84,29
3,81,0,17
3,81,84,31
3,81,0,18
3,81,88,30
3,81,0,16
3,79,84,8
3,79,0,38
3,81,84,10
3,81,0,16
3,81,76,8
3,81,0,17
3,81,84,31
3,81,0,29
3,81,60,19
3,81,0,9
3,81,66,15
3,81,0,21
3,79,76,3
3,81,92,24
3,79,0,3
3,81,0,14
3,81,80,7
3,81,0,18
3,81,84,30
3,81,0,34
3,79,62,14
3,79,0,16
3,81,84,8
3,81,0,25
3,81,68,23
3,81,0,19
3,76,80,5
3,76,0,38
3,79,88,10
3,79,0,33
3,81,84,15
3,81,0,1
3,84,88,1
3,84,0,4
3,81,88,55
3,81,0,37
3,79,72,11
3,79,0,1
3,81,92,58
3,81,0,40
3,79,42,8
3,79,0,48
3,81,76,0
3,81,0,17
3,76,72,175
3,76,0,14
3,79,76,34
3,79,0,44
3,81,64,4
3,81,0,43
3,84,88,5
3,84,0,1
3,81,54,58
3,81,0,39
3,79,68,9
3,79,0,2
3,81,80,65
3,81,0,40
3,79,44,8
3,81,80,48
3,79,0,15
3,81,0,7
3,76,66,170
3,76,0,42
3,79,58,6
3,79,0,44
3,81,72,4
3,84,92,48
3,81,0,7
3,84,0,1
3,81,80,50
3,81,0,43
3,79,68,5
3,79,0,46
3,81,64,98
3,81,0,46
3,79,80,2
3,81,66,48
3,79,0,3
3,81,0,19
3,81,62,266
3,81,0,10
3,81,80,14
3,81,0,12
3,81,80,12
3,81,0,23
3,81,80,25
3,81,0,20
3,81,92,28
3,81,0,25
3,81,72,23
3,81,0,16
3,79,72,8
3,79,0,26
3,81,64,22
3,81,0,8
3,81,80,16
3,81,0,19
3,81,84,29
3,81,0,21
3,81,80,27
3,81,0,12
3,81,64,12
3,81,0,22
3,79,88,2
3,81,76,24
3,79,0,2
3,81,0,30
3,81,84,40
3,81,0,34
3,79,66,14
3,79,0,14
3,81,92,10
3,81,0,30
3,81,56,18
3,81,0,14
3,76,60,10
3,76,0,27
3,79,80,21
3,79,0,24
3,81,84,24
3,81,0,41
3,84,84,7
3,84,0,83
3,81,84,61
3,81,0,40
3,79,66,8
3,79,0,66
3,81,72,78
3,81,0,41
3,79,58,7
3,79,0,48
3,81,76,0
3,81,0,15
3,76,66,177
3,76,0,42
3,79,68,6
3,79,0,41
3,81,66,7
3,81,0,20
3,84,84,28
3,84,0,69
3,81,84,75
3,79,60,48
3,81,0,1
3,79,0,48
3,81,76,95
3,81,0,39
3,79,58,9
3,81,84,48
3,79,0,4
3,81,0,19
3,76,64,169
3,76,0,40
3,79,64,8
3,79,0,41
3,81,66,7
3,81,0,27
3,84,92,21
3,84,0,1
3,81,84,60
3,81,0,41
3,79,66,7
3,79,0,49
3,81,76,95
3,81,0,44
3,79,66,4
3,79,0,46
3,81,80,2
3,81,0,16
3,81,62,272
3,81,0,11
3,81,72,13
3,81,0,17
3,79,84,7
3,79,0,21
3,81,64,3
3,81,0,18
3,81,66,6
3,81,0,14
3,81,88,34
3,81,0,25
3,81,80,23
3,81,0,16
3,79,72,8
3,79,0,30
3,81,68,18
3,81,0,10
3,81,72,14
3,81,0,21
3,81,84,27
3,81,0,24
3,81,56,24
3,81,0,8
3,81,76,16
3,81,0,21
3,79,84,3
3,79,0,23
3,81,88,1
3,81,0,15
3,81,66,9
3,81,0,15
3,81,54,33
3,81,0,22
3,79,72,26
3,79,0,16
3,81,92,8
3,81,0,23
3,81,68,25
3,81,0,15
3,76,66,9
3,76,0,26
3,79,80,22
3,79,0,26
3,81,84,22
3,81,0,44
3,84,84,4
3,84,0,66
3,81,84,78
3,81,0,39
3,79,64,9
3,79,0,64
3,81,80,80
3,81,0,38
3,79,40,10
3,81,84,48
3,79,0,8
3,81,0,18
3,76,72,166
3,76,0,23
3,79,68,25
3,79,0,36
3,81,64,12
3,81,0,26
3,84,88,22
3,84,0,1
3,81,84,66
3,81,0,40
3,79,72,8
3,79,0,48
3,81,84,96
3,81,0,41
3,79,60,7
3,79,0,48
3,81,76,0
3,81,0,23
3,79,68,73
3,81,80,48
3,79,0,3
3,81,0,25
3,76,76,20
3,76,0,36
3,79,80,12
3,79,0,45
3,81,76,3
3,84,88,48
3,81,0,1
3,84,0,1
3,81,76,68
3,81,0,48
3,79,76,0
3,79,0,54
3,81,76,90
3,81,0,43
3,79,72,5
3,81,80,48
3,79,0,15
3,81,0,16
3,79,34,257
3,79,0,13
3,81,84,35
3,81,0,26
3,81,56,22
3,81,0,17
3,81,88,31
3,81,0,27
3,81,62,21
3,81,0,14
3,79,72,10
3,79,0,25
3,81,76,23
3,81,0,11
3,81,88,13
3,81,0,24
3,81,88,24
3,81,0,24
3,81,56,24
3,81,0,9
3,81,76,15
3,81,0,16
3,79,66,8
3,79,0,22
3,81,54,2
3,81,0,8
3,81,64,16
3,81,0,17
3,81,88,31
3,81,0,29
3,79,60,19
3,79,0,14
3,81,88,10
3,81,0,24
3,69,100,48
3,69,0,23
