track,note,velocity,time
0.0,45.0,127.0,0.0
0.0,33.0,127.0,0.0
0.0,44.0,95.0,180.0
0.0,33.0,127.0,180.0
0.0,42.0,127.0,0.0
0.0,45.0,127.0,3.0
0.0,40.0,127.0,0.0
0.0,40.0,127.0,0.0
0.0,38.0,127.0,0.0
0.0,44.0,95.0,177.0
0.0,45.0,127.0,180.0
0.0,33.0,127.0,0.0
0.0,44.0,95.0,180.0
0.0,33.0,127.0,180.0
0.0,42.0,127.0,0.0
0.0,45.0,127.0,3.0
0.0,40.0,127.0,0.0
0.0,40.0,127.0,0.0
0.0,38.0,127.0,0.0
0.0,44.0,95.0,177.0
0.0,33.0,127.0,180.0
0.0,36.0,127.0,1.0
0.0,45.0,127.0,2.0
0.0,36.0,127.0,13.0
0.0,44.0,95.0,76.0
0.0,33.0,127.0,180.0
0.0,42.0,127.0,0.0
0.0,39.0,127.0,1.0
0.0,45.0,127.0,2.0
0.0,40.0,127.0,0.0
0.0,40.0,127.0,0.0
0.0,38.0,127.0,0.0
0.0,39.0,127.0,21.0
0.0,44.0,95.0,63.0
0.0,33.0,127.0,180.0
0.0,41.0,127.0,1.0
0.0,45.0,127.0,2.0
0.0,41.0,127.0,18.0
0.0,44.0,95.0,9.0
0.0,40.0,127.0,180.0
0.0,33.0,127.0,0.0
0.0,42.0,127.0,0.0
0.0,40.0,127.0,0.0
0.0,38.0,127.0,0.0
0.0,42.0,127.0,1.0
0.0,45.0,127.0,2.0
0.0,42.0,127.0,8.0
0.0,44.0,95.0,177.0
0.0,43.0,127.0,1.0
0.0,43.0,127.0,0.0
0.0,45.0,127.0,104.0
0.0,33.0,127.0,0.0
0.0,44.0,95.0,180.0
0.0,36.0,127.0,1.0
0.0,36.0,127.0,8.0
0.0,33.0,127.0,98.0
0.0,42.0,127.0,0.0
0.0,39.0,127.0,1.0
0.0,45.0,127.0,2.0
0.0,40.0,127.0,0.0
0.0,40.0,127.0,0.0
0.0,38.0,127.0,0.0
0.0,39.0,127.0,13.0
0.0,44.0,95.0,59.0
0.0,33.0,127.0,180.0
0.0,41.0,127.0,1.0
0.0,45.0,127.0,2.0
0.0,41.0,127.0,8.0
0.0,44.0,95.0,179.0
0.0,33.0,127.0,180.0
0.0,42.0,127.0,0.0
0.0,42.0,127.0,1.0
0.0,45.0,127.0,2.0
0.0,40.0,127.0,0.0
0.0,40.0,127.0,0.0
0.0,38.0,127.0,0.0
0.0,42.0,127.0,18.0
0.0,44.0,95.0,177.0
0.0,43.0,127.0,1.0
0.0,43.0,127.0,3.0
0.0,45.0,127.0,76.0
0.0,33.0,127.0,0.0
0.0,36.0,127.0,1.0
0.0,36.0,127.0,10.0
0.0,44.0,95.0,69.0
0.0,33.0,127.0,180.0
0.0,42.0,127.0,0.0
0.0,39.0,127.0,1.0
0.0,45.0,127.0,2.0
0.0,40.0,127.0,0.0
0.0,40.0,127.0,0.0
0.0,38.0,127.0,0.0
0.0,39.0,127.0,8.0
0.0,44.0,95.0,64.0
0.0,45.0,127.0,180.0
0.0,33.0,127.0,0.0
0.0,41.0,127.0,1.0
0.0,41.0,127.0,10.0
0.0,44.0,95.0,11.0
0.0,33.0,127.0,180.0
0.0,42.0,127.0,0.0
0.0,42.0,127.0,1.0
0.0,45.0,127.0,2.0
0.0,40.0,127.0,0.0
0.0,40.0,127.0,0.0
0.0,38.0,127.0,0.0
0.0,42.0,127.0,6.0
0.0,43.0,127.0,173.0
0.0,44.0,95.0,4.0
0.0,43.0,127.0,1.0
0.0,45.0,127.0,99.0
0.0,33.0,127.0,0.0
0.0,44.0,95.0,180.0
0.0,36.0,127.0,1.0
0.0,36.0,127.0,15.0
0.0,33.0,127.0,104.0
0.0,42.0,127.0,0.0
0.0,39.0,127.0,1.0
0.0,45.0,127.0,2.0
0.0,40.0,127.0,0.0
0.0,40.0,127.0,0.0
0.0,38.0,127.0,0.0
0.0,39.0,127.0,13.0
0.0,44.0,95.0,79.0
0.0,45.0,127.0,180.0
0.0,33.0,127.0,0.0
0.0,41.0,127.0,1.0
0.0,41.0,127.0,10.0
0.0,44.0,95.0,49.0
0.0,33.0,127.0,180.0
0.0,42.0,127.0,0.0
0.0,42.0,127.0,1.0
0.0,45.0,127.0,2.0
0.0,40.0,127.0,0.0
0.0,40.0,127.0,0.0
0.0,38.0,127.0,0.0
0.0,42.0,127.0,1.0
0.0,44.0,95.0,31.0
0.0,43.0,127.0,1.0
0.0,43.0,127.0,3.0
0.0,33.0,127.0,108.0
0.0,36.0,127.0,1.0
0.0,45.0,127.0,2.0
0.0,36.0,127.0,6.0
0.0,60.0,127.0,2.0
0.0,60.0,127.0,19.0
0.0,60.0,127.0,0.0
0.0,72.0,127.0,0.0
0.0,44.0,95.0,16.0
0.0,33.0,127.0,180.0
0.0,42.0,127.0,0.0
0.0,39.0,127.0,1.0
0.0,45.0,127.0,2.0
0.0,40.0,127.0,0.0
0.0,40.0,127.0,0.0
0.0,38.0,127.0,0.0
0.0,58.0,127.0,1.0
0.0,58.0,127.0,4.0
0.0,60.0,127.0,0.0
0.0,58.0,127.0,0.0
0.0,60.0,127.0,0.0
0.0,70.0,127.0,0.0
0.0,72.0,127.0,0.0
0.0,39.0,127.0,1.0
0.0,60.0,127.0,0.0
0.0,44.0,95.0,97.0
0.0,33.0,127.0,76.0
0.0,41.0,127.0,1.0
0.0,41.0,127.0,0.0
0.0,60.0,127.0,0.0
0.0,45.0,127.0,2.0
0.0,57.0,127.0,1.0
0.0,60.0,127.0,36.0
0.0,57.0,127.0,0.0
0.0,60.0,127.0,0.0
0.0,57.0,127.0,0.0
0.0,72.0,127.0,0.0
0.0,69.0,127.0,0.0
0.0,44.0,95.0,90.0
0.0,33.0,127.0,124.0
0.0,42.0,127.0,0.0
0.0,42.0,127.0,1.0
0.0,45.0,127.0,2.0
0.0,40.0,127.0,0.0
0.0,40.0,127.0,0.0
0.0,38.0,127.0,0.0
0.0,56.0,127.0,6.0
0.0,56.0,127.0,1.0
0.0,60.0,127.0,0.0
0.0,56.0,127.0,0.0
0.0,60.0,127.0,0.0
0.0,68.0,127.0,0.0
0.0,72.0,127.0,0.0
0.0,60.0,127.0,1.0
0.0,42.0,127.0,5.0
0.0,44.0,95.0,36.0
0.0,43.0,127.0,1.0
0.0,55.0,127.0,2.0
0.0,55.0,127.0,0.0
0.0,67.0,127.0,0.0
0.0,60.0,127.0,5.0
0.0,60.0,127.0,0.0
0.0,72.0,127.0,0.0
0.0,43.0,127.0,1.0
0.0,55.0,127.0,0.0
0.0,60.0,127.0,7.0
0.0,33.0,127.0,78.0
0.0,45.0,127.0,3.0
0.0,44.0,95.0,179.0
0.0,36.0,127.0,1.0
0.0,60.0,127.0,8.0
0.0,36.0,127.0,2.0
0.0,60.0,127.0,4.0
0.0,60.0,127.0,0.0
0.0,72.0,127.0,0.0
0.0,33.0,127.0,24.0
0.0,42.0,127.0,0.0
0.0,39.0,127.0,1.0
0.0,58.0,127.0,2.0
0.0,60.0,127.0,0.0
0.0,58.0,127.0,0.0
0.0,60.0,127.0,0.0
0.0,70.0,127.0,0.0
0.0,72.0,127.0,0.0
0.0,45.0,127.0,0.0
0.0,40.0,127.0,0.0
0.0,40.0,127.0,0.0
0.0,38.0,127.0,0.0
0.0,39.0,127.0,1.0
0.0,58.0,127.0,5.0
0.0,60.0,127.0,2.0
0.0,44.0,95.0,92.0
0.0,45.0,127.0,158.0
0.0,33.0,127.0,0.0
0.0,41.0,127.0,1.0
0.0,57.0,127.0,3.0
0.0,60.0,127.0,0.0
0.0,41.0,127.0,5.0
0.0,60.0,127.0,6.0
0.0,60.0,127.0,0.0
0.0,72.0,127.0,0.0
0.0,57.0,127.0,5.0
0.0,57.0,127.0,0.0
0.0,69.0,127.0,0.0
0.0,44.0,95.0,92.0
0.0,56.0,127.0,158.0
0.0,56.0,127.0,0.0
0.0,68.0,127.0,0.0
0.0,60.0,127.0,5.0
0.0,60.0,127.0,0.0
0.0,72.0,127.0,0.0
0.0,33.0,127.0,0.0
0.0,42.0,127.0,0.0
0.0,42.0,127.0,1.0
0.0,45.0,127.0,2.0
0.0,40.0,127.0,0.0
0.0,40.0,127.0,0.0
0.0,38.0,127.0,0.0
0.0,56.0,127.0,1.0
0.0,42.0,127.0,7.0
0.0,60.0,127.0,0.0
0.0,43.0,127.0,27.0
0.0,44.0,95.0,4.0
0.0,43.0,127.0,1.0
0.0,55.0,127.0,0.0
0.0,55.0,127.0,2.0
0.0,55.0,127.0,0.0
0.0,67.0,127.0,0.0
0.0,60.0,127.0,1.0
0.0,60.0,127.0,6.0
0.0,60.0,127.0,0.0
0.0,72.0,127.0,0.0
0.0,45.0,127.0,64.0
0.0,33.0,127.0,0.0
0.0,36.0,127.0,1.0
0.0,60.0,127.0,14.0
0.0,60.0,127.0,0.0
0.0,72.0,127.0,0.0
0.0,36.0,127.0,1.0
0.0,60.0,127.0,0.0
0.0,44.0,95.0,4.0
0.0,33.0,127.0,180.0
0.0,42.0,127.0,0.0
0.0,39.0,127.0,1.0
0.0,45.0,127.0,2.0
0.0,40.0,127.0,0.0
0.0,40.0,127.0,0.0
0.0,38.0,127.0,0.0
0.0,39.0,127.0,18.0
0.0,60.0,127.0,0.0
0.0,58.0,127.0,0.0
0.0,58.0,127.0,14.0
0.0,58.0,127.0,0.0
0.0,70.0,127.0,0.0
0.0,60.0,127.0,5.0
0.0,60.0,127.0,0.0
0.0,72.0,127.0,0.0
0.0,44.0,95.0,24.0
0.0,45.0,127.0,171.0
0.0,33.0,127.0,0.0
0.0,41.0,127.0,1.0
0.0,41.0,127.0,3.0
0.0,57.0,127.0,0.0
0.0,60.0,127.0,0.0
0.0,57.0,127.0,31.0
0.0,60.0,127.0,0.0
0.0,57.0,127.0,0.0
0.0,60.0,127.0,0.0
0.0,69.0,127.0,0.0
0.0,72.0,127.0,0.0
0.0,44.0,95.0,68.0
0.0,33.0,127.0,178.0
0.0,42.0,127.0,0.0
0.0,42.0,127.0,1.0
0.0,45.0,127.0,2.0
0.0,40.0,127.0,0.0
0.0,40.0,127.0,0.0
0.0,38.0,127.0,0.0
0.0,42.0,127.0,8.0
0.0,60.0,127.0,0.0
0.0,56.0,127.0,0.0
0.0,56.0,127.0,4.0
0.0,60.0,127.0,0.0
0.0,56.0,127.0,0.0
0.0,60.0,127.0,0.0
0.0,68.0,127.0,0.0
0.0,72.0,127.0,0.0
0.0,44.0,95.0,36.0
0.0,43.0,127.0,1.0
0.0,43.0,127.0,0.0
0.0,55.0,127.0,3.0
0.0,60.0,127.0,5.0
0.0,55.0,127.0,14.0
0.0,55.0,127.0,0.0
0.0,67.0,127.0,0.0
0.0,60.0,127.0,5.0
0.0,60.0,127.0,0.0
0.0,72.0,127.0,0.0
0.0,45.0,127.0,64.0
0.0,33.0,127.0,0.0
0.0,36.0,127.0,176.0
0.0,44.0,95.0,4.0
0.0,36.0,127.0,1.0
0.0,60.0,127.0,3.0
0.0,60.0,127.0,16.0
0.0,60.0,127.0,0.0
0.0,72.0,127.0,0.0
0.0,33.0,127.0,29.0
0.0,42.0,127.0,0.0
0.0,39.0,127.0,1.0
0.0,39.0,127.0,0.0
0.0,58.0,127.0,0.0
0.0,58.0,127.0,2.0
0.0,58.0,127.0,0.0
0.0,70.0,127.0,0.0
0.0,45.0,127.0,0.0
0.0,40.0,127.0,0.0
0.0,40.0,127.0,0.0
0.0,38.0,127.0,0.0
0.0,60.0,127.0,1.0
0.0,60.0,127.0,16.0
0.0,60.0,127.0,0.0
0.0,72.0,127.0,0.0
0.0,44.0,95.0,9.0
0.0,57.0,127.0,176.0
0.0,60.0,127.0,0.0
0.0,33.0,127.0,4.0
0.0,41.0,127.0,1.0
0.0,41.0,127.0,0.0
0.0,45.0,127.0,2.0
0.0,57.0,127.0,20.0
0.0,60.0,127.0,0.0
0.0,57.0,127.0,0.0
0.0,60.0,127.0,0.0
0.0,69.0,127.0,0.0
0.0,72.0,127.0,0.0
0.0,44.0,95.0,59.0
0.0,33.0,127.0,159.0
0.0,42.0,127.0,0.0
0.0,42.0,127.0,1.0
0.0,45.0,127.0,2.0
0.0,40.0,127.0,0.0
0.0,40.0,127.0,0.0
0.0,38.0,127.0,0.0
0.0,56.0,127.0,5.0
0.0,60.0,127.0,0.0
0.0,56.0,127.0,0.0
0.0,60.0,127.0,0.0
0.0,68.0,127.0,0.0
0.0,72.0,127.0,0.0
0.0,42.0,127.0,1.0
0.0,60.0,127.0,0.0
0.0,56.0,127.0,0.0
0.0,44.0,95.0,36.0
0.0,43.0,127.0,1.0
0.0,55.0,127.0,7.0
0.0,60.0,127.0,0.0
0.0,55.0,127.0,0.0
0.0,60.0,127.0,0.0
0.0,67.0,127.0,0.0
0.0,72.0,127.0,0.0
0.0,43.0,127.0,1.0
0.0,72.0,127.0,11.0
0.0,72.0,127.0,0.0
0.0,72.0,127.0,0.0
0.0,63.0,127.0,9.0
0.0,63.0,127.0,1.0
0.0,33.0,127.0,8.0
0.0,36.0,127.0,1.0
0.0,58.0,127.0,0.0
0.0,58.0,127.0,1.0
0.0,45.0,127.0,1.0
0.0,36.0,127.0,1.0
0.0,60.0,127.0,0.0
0.0,60.0,127.0,1.0
0.0,75.0,127.0,10.0
0.0,75.0,127.0,0.0
0.0,75.0,127.0,0.0
0.0,44.0,95.0,60.0
0.0,72.0,127.0,3.0
0.0,72.0,127.0,0.0
0.0,72.0,127.0,0.0
0.0,33.0,127.0,75.0
0.0,42.0,127.0,0.0
0.0,75.0,127.0,0.0
0.0,75.0,127.0,0.0
0.0,75.0,127.0,0.0
0.0,39.0,127.0,1.0
0.0,45.0,127.0,2.0
0.0,40.0,127.0,0.0
0.0,40.0,127.0,0.0
0.0,38.0,127.0,0.0
0.0,39.0,127.0,18.0
0.0,44.0,95.0,177.0
0.0,33.0,127.0,29.0
0.0,41.0,127.0,1.0
0.0,45.0,127.0,2.0
0.0,63.0,127.0,1.0
0.0,63.0,127.0,1.0
0.0,60.0,127.0,6.0
0.0,60.0,127.0,1.0
0.0,57.0,127.0,4.0
0.0,57.0,127.0,1.0
0.0,41.0,127.0,12.0
0.0,44.0,95.0,179.0
0.0,33.0,127.0,177.0
0.0,42.0,127.0,0.0
0.0,42.0,127.0,1.0
0.0,45.0,127.0,2.0
0.0,40.0,127.0,0.0
0.0,40.0,127.0,0.0
0.0,38.0,127.0,0.0
0.0,42.0,127.0,1.0
0.0,44.0,95.0,88.0
0.0,43.0,127.0,1.0
0.0,70.0,127.0,7.0
0.0,70.0,127.0,0.0
0.0,70.0,127.0,0.0
0.0,43.0,127.0,16.0
0.0,70.0,127.0,37.0
0.0,70.0,127.0,0.0
0.0,70.0,127.0,0.0
0.0,45.0,127.0,37.0
0.0,33.0,127.0,0.0
0.0,36.0,127.0,1.0
0.0,36.0,127.0,3.0
0.0,72.0,127.0,4.0
0.0,72.0,127.0,0.0
0.0,72.0,127.0,0.0
0.0,44.0,95.0,69.0
0.0,70.0,127.0,0.0
0.0,70.0,127.0,0.0
0.0,70.0,127.0,0.0
0.0,60.0,127.0,41.0
0.0,58.0,127.0,0.0
0.0,63.0,127.0,0.0
0.0,60.0,127.0,1.0
0.0,58.0,127.0,0.0
0.0,63.0,127.0,0.0
0.0,67.0,127.0,7.0
0.0,67.0,127.0,1.0
0.0,72.0,127.0,5.0
0.0,72.0,127.0,0.0
0.0,72.0,127.0,0.0
0.0,39.0,127.0,71.0
0.0,39.0,127.0,23.0
0.0,33.0,127.0,36.0
0.0,42.0,127.0,0.0
0.0,45.0,127.0,3.0
0.0,40.0,127.0,0.0
0.0,40.0,127.0,0.0
0.0,38.0,127.0,0.0
0.0,63.0,127.0,61.0
0.0,63.0,127.0,1.0
0.0,60.0,127.0,4.0
0.0,60.0,127.0,1.0
0.0,58.0,127.0,1.0
0.0,58.0,127.0,1.0
0.0,67.0,127.0,4.0
0.0,67.0,127.0,1.0
0.0,44.0,95.0,10.0
0.0,75.0,127.0,8.0
0.0,75.0,127.0,0.0
0.0,75.0,127.0,0.0
0.0,41.0,127.0,46.0
0.0,63.0,127.0,2.0
0.0,63.0,127.0,1.0
0.0,33.0,127.0,8.0
0.0,41.0,127.0,1.0
0.0,60.0,127.0,0.0
0.0,60.0,127.0,1.0
0.0,45.0,127.0,1.0
0.0,57.0,127.0,6.0
0.0,57.0,127.0,1.0
0.0,44.0,95.0,179.0
0.0,72.0,127.0,119.0
0.0,72.0,127.0,0.0
0.0,72.0,127.0,0.0
0.0,33.0,127.0,5.0
0.0,42.0,127.0,0.0
0.0,42.0,127.0,1.0
0.0,45.0,127.0,2.0
0.0,40.0,127.0,0.0
0.0,40.0,127.0,0.0
0.0,38.0,127.0,0.0
0.0,42.0,127.0,8.0
0.0,70.0,127.0,13.0
0.0,70.0,127.0,0.0
0.0,70.0,127.0,0.0
0.0,72.0,127.0,4.0
0.0,72.0,127.0,0.0
0.0,72.0,127.0,0.0
0.0,43.0,127.0,19.0
0.0,44.0,95.0,4.0
0.0,43.0,127.0,1.0
0.0,70.0,127.0,0.0
0.0,70.0,127.0,0.0
0.0,70.0,127.0,0.0
0.0,45.0,127.0,19.0
0.0,33.0,127.0,0.0
0.0,36.0,127.0,1.0
0.0,75.0,127.0,2.0
0.0,75.0,127.0,0.0
0.0,75.0,127.0,0.0
0.0,36.0,127.0,1.0
0.0,60.0,127.0,5.0
0.0,63.0,127.0,0.0
0.0,60.0,127.0,1.0
0.0,63.0,127.0,0.0
0.0,58.0,127.0,1.0
0.0,58.0,127.0,1.0
0.0,72.0,127.0,144.0
0.0,72.0,127.0,0.0
0.0,72.0,127.0,0.0
0.0,44.0,95.0,5.0
0.0,33.0,127.0,88.0
0.0,42.0,127.0,0.0
0.0,39.0,127.0,1.0
0.0,45.0,127.0,2.0
0.0,40.0,127.0,0.0
0.0,40.0,127.0,0.0
0.0,38.0,127.0,0.0
0.0,75.0,127.0,5.0
0.0,75.0,127.0,0.0
0.0,75.0,127.0,0.0
0.0,39.0,127.0,3.0
0.0,75.0,118.0,52.0
0.0,75.0,118.0,0.0
0.0,75.0,118.0,0.0
0.0,44.0,95.0,80.0
0.0,33.0,127.0,84.0
0.0,41.0,127.0,1.0
0.0,45.0,127.0,2.0
0.0,63.0,127.0,6.0
0.0,63.0,127.0,1.0
0.0,57.0,127.0,1.0
0.0,60.0,127.0,0.0
0.0,57.0,127.0,1.0
0.0,60.0,127.0,0.0
0.0,41.0,127.0,4.0
0.0,44.0,95.0,179.0
0.0,33.0,127.0,130.0
0.0,42.0,127.0,0.0
0.0,42.0,127.0,1.0
0.0,45.0,127.0,2.0
0.0,40.0,127.0,0.0
0.0,40.0,127.0,0.0
0.0,38.0,127.0,0.0
0.0,42.0,127.0,13.0
0.0,44.0,95.0,29.0
0.0,72.0,127.0,20.0
0.0,72.0,127.0,0.0
0.0,72.0,127.0,0.0
0.0,43.0,127.0,16.0
0.0,43.0,127.0,1.0
0.0,70.0,127.0,25.0
0.0,70.0,127.0,0.0
0.0,70.0,127.0,0.0
0.0,45.0,127.0,19.0
0.0,33.0,127.0,0.0
0.0,36.0,127.0,1.0
0.0,72.0,127.0,7.0
0.0,72.0,127.0,0.0
0.0,72.0,127.0,0.0
0.0,36.0,127.0,3.0
0.0,63.0,127.0,140.0
0.0,60.0,127.0,0.0
0.0,58.0,127.0,0.0
0.0,63.0,127.0,1.0
0.0,60.0,127.0,0.0
0.0,58.0,127.0,0.0
0.0,44.0,95.0,3.0
0.0,70.0,127.0,3.0
0.0,70.0,127.0,0.0
0.0,70.0,127.0,0.0
0.0,72.0,127.0,49.0
0.0,72.0,127.0,0.0
0.0,72.0,127.0,0.0
0.0,39.0,127.0,52.0
0.0,39.0,127.0,15.0
0.0,33.0,127.0,44.0
0.0,42.0,127.0,0.0
0.0,45.0,127.0,3.0
0.0,40.0,127.0,0.0
0.0,40.0,127.0,0.0
0.0,38.0,127.0,0.0
0.0,58.0,127.0,26.0
0.0,58.0,127.0,1.0
0.0,60.0,127.0,1.0
0.0,63.0,127.0,0.0
0.0,60.0,127.0,1.0
0.0,63.0,127.0,0.0
0.0,44.0,95.0,65.0
0.0,70.0,127.0,3.0
0.0,70.0,127.0,0.0
0.0,70.0,127.0,0.0
0.0,41.0,127.0,80.0
0.0,33.0,127.0,4.0
0.0,41.0,127.0,1.0
0.0,63.0,127.0,0.0
0.0,63.0,127.0,1.0
0.0,45.0,127.0,1.0
0.0,57.0,127.0,6.0
0.0,60.0,127.0,0.0
0.0,57.0,127.0,1.0
0.0,60.0,127.0,0.0
0.0,44.0,95.0,179.0
0.0,33.0,127.0,129.0
0.0,42.0,127.0,0.0
0.0,42.0,127.0,1.0
0.0,45.0,127.0,2.0
0.0,40.0,127.0,0.0
0.0,40.0,127.0,0.0
0.0,38.0,127.0,0.0
0.0,42.0,127.0,18.0
0.0,70.0,127.0,2.0
0.0,70.0,127.0,0.0
0.0,70.0,127.0,0.0
0.0,44.0,95.0,15.0
0.0,43.0,127.0,1.0
0.0,72.0,127.0,2.0
0.0,72.0,127.0,0.0
0.0,72.0,127.0,0.0
0.0,43.0,127.0,18.0
0.0,45.0,127.0,29.0
0.0,33.0,127.0,0.0
0.0,36.0,127.0,1.0
0.0,36.0,127.0,8.0
0.0,63.0,127.0,7.0
0.0,60.0,127.0,0.0
0.0,58.0,127.0,0.0
0.0,63.0,127.0,1.0
0.0,60.0,127.0,0.0
0.0,58.0,127.0,0.0
0.0,75.0,127.0,3.0
0.0,75.0,127.0,0.0
0.0,75.0,127.0,0.0
0.0,44.0,95.0,45.0
0.0,72.0,127.0,0.0
0.0,72.0,127.0,0.0
0.0,72.0,127.0,0.0
0.0,33.0,127.0,111.0
0.0,42.0,127.0,0.0
0.0,75.0,127.0,0.0
0.0,75.0,127.0,0.0
0.0,75.0,127.0,0.0
0.0,39.0,127.0,1.0
0.0,45.0,127.0,2.0
0.0,40.0,127.0,0.0
0.0,40.0,127.0,0.0
0.0,38.0,127.0,0.0
0.0,39.0,127.0,8.0
0.0,75.0,103.0,33.0
0.0,75.0,103.0,0.0
0.0,75.0,103.0,0.0
0.0,44.0,95.0,97.0
0.0,45.0,127.0,91.0
0.0,33.0,127.0,0.0
0.0,41.0,127.0,1.0
0.0,63.0,127.0,10.0
0.0,63.0,127.0,1.0
0.0,41.0,127.0,4.0
0.0,57.0,127.0,5.0
0.0,60.0,127.0,0.0
0.0,57.0,127.0,1.0
0.0,60.0,127.0,0.0
0.0,44.0,95.0,180.0
0.0,33.0,127.0,159.0
0.0,42.0,127.0,0.0
0.0,42.0,127.0,1.0
0.0,45.0,127.0,2.0
0.0,40.0,127.0,0.0
0.0,40.0,127.0,0.0
0.0,38.0,127.0,0.0
0.0,42.0,127.0,8.0
0.0,44.0,95.0,104.0
0.0,43.0,127.0,1.0
0.0,43.0,127.0,20.0
0.0,72.0,127.0,2.0
0.0,72.0,127.0,0.0
0.0,72.0,127.0,0.0
0.0,70.0,127.0,4.0
0.0,70.0,127.0,0.0
0.0,70.0,127.0,0.0
0.0,33.0,127.0,32.0
0.0,36.0,127.0,1.0
0.0,45.0,127.0,2.0
0.0,72.0,127.0,0.0
0.0,72.0,127.0,0.0
0.0,72.0,127.0,0.0
0.0,36.0,127.0,6.0
0.0,44.0,95.0,29.0
0.0,70.0,127.0,10.0
0.0,70.0,127.0,0.0
0.0,70.0,127.0,0.0
0.0,60.0,127.0,34.0
0.0,63.0,127.0,0.0
0.0,58.0,127.0,0.0
0.0,60.0,127.0,1.0
0.0,63.0,127.0,0.0
0.0,58.0,127.0,0.0
0.0,72.0,127.0,19.0
0.0,72.0,127.0,0.0
0.0,72.0,127.0,0.0
0.0,39.0,127.0,58.0
0.0,39.0,127.0,28.0
0.0,40.0,127.0,31.0
0.0,33.0,127.0,0.0
0.0,42.0,127.0,0.0
0.0,40.0,127.0,0.0
0.0,38.0,127.0,0.0
0.0,45.0,127.0,3.0
0.0,58.0,127.0,58.0
0.0,58.0,127.0,1.0
0.0,60.0,127.0,2.0
0.0,63.0,127.0,0.0
0.0,60.0,127.0,1.0
0.0,63.0,127.0,0.0
0.0,44.0,95.0,115.0
0.0,75.0,127.0,8.0
0.0,75.0,127.0,0.0
0.0,75.0,127.0,0.0
0.0,33.0,127.0,38.0
0.0,41.0,127.0,1.0
0.0,45.0,127.0,2.0
0.0,41.0,127.0,1.0
0.0,63.0,127.0,5.0
0.0,63.0,127.0,1.0
0.0,57.0,127.0,1.0
0.0,60.0,127.0,0.0
0.0,57.0,127.0,1.0
0.0,60.0,127.0,0.0
0.0,44.0,95.0,117.0
0.0,72.0,127.0,30.0
0.0,72.0,127.0,0.0
0.0,72.0,127.0,0.0
0.0,70.0,127.0,37.0
0.0,70.0,127.0,0.0
0.0,70.0,127.0,0.0
0.0,42.0,127.0,36.0
0.0,33.0,127.0,4.0
0.0,42.0,127.0,0.0
0.0,42.0,127.0,1.0
0.0,45.0,127.0,2.0
0.0,40.0,127.0,0.0
0.0,40.0,127.0,0.0
0.0,38.0,127.0,0.0
0.0,72.0,127.0,17.0
0.0,72.0,127.0,0.0
0.0,72.0,127.0,0.0
0.0,43.0,127.0,11.0
0.0,44.0,95.0,4.0
0.0,70.0,127.0,0.0
0.0,70.0,127.0,0.0
0.0,70.0,127.0,0.0
0.0,43.0,127.0,1.0
0.0,45.0,127.0,56.0
0.0,33.0,127.0,0.0
0.0,36.0,127.0,1.0
0.0,58.0,127.0,8.0
0.0,60.0,127.0,0.0
0.0,75.0,127.0,1.0
0.0,75.0,127.0,0.0
0.0,75.0,127.0,0.0
0.0,58.0,127.0,0.0
0.0,60.0,127.0,0.0
0.0,36.0,127.0,1.0
0.0,63.0,127.0,0.0
0.0,63.0,127.0,1.0
0.0,44.0,95.0,160.0
0.0,72.0,127.0,0.0
0.0,72.0,127.0,0.0
0.0,72.0,127.0,0.0
0.0,33.0,127.0,144.0
0.0,42.0,127.0,0.0
0.0,39.0,127.0,1.0
0.0,45.0,127.0,2.0
0.0,40.0,127.0,0.0
0.0,40.0,127.0,0.0
0.0,38.0,127.0,0.0
0.0,75.0,127.0,0.0
0.0,75.0,127.0,0.0
0.0,75.0,127.0,0.0
0.0,39.0,127.0,8.0
0.0,44.0,95.0,177.0
0.0,63.0,127.0,80.0
0.0,63.0,127.0,1.0
0.0,33.0,127.0,3.0
0.0,41.0,127.0,1.0
0.0,60.0,127.0,0.0
0.0,60.0,127.0,1.0
0.0,45.0,127.0,1.0
0.0,41.0,127.0,1.0
0.0,57.0,127.0,0.0
0.0,57.0,127.0,1.0
0.0,44.0,95.0,179.0
0.0,42.0,127.0,135.0
0.0,33.0,127.0,4.0
0.0,42.0,127.0,0.0
0.0,42.0,127.0,1.0
0.0,45.0,127.0,2.0
0.0,40.0,127.0,0.0
0.0,40.0,127.0,0.0
0.0,38.0,127.0,0.0
0.0,44.0,95.0,89.0
0.0,43.0,127.0,1.0
0.0,43.0,127.0,20.0
0.0,70.0,127.0,9.0
0.0,70.0,127.0,0.0
0.0,70.0,127.0,0.0
0.0,33.0,127.0,69.0
0.0,36.0,127.0,1.0
0.0,45.0,127.0,2.0
0.0,36.0,127.0,8.0
0.0,72.0,127.0,4.0
0.0,72.0,127.0,0.0
0.0,72.0,127.0,0.0
0.0,44.0,95.0,65.0
0.0,70.0,127.0,0.0
0.0,70.0,127.0,0.0
0.0,70.0,127.0,0.0
0.0,58.0,127.0,24.0
0.0,58.0,127.0,1.0
0.0,63.0,127.0,4.0
0.0,60.0,127.0,0.0
0.0,63.0,127.0,1.0
0.0,60.0,127.0,0.0
0.0,72.0,127.0,9.0
0.0,72.0,127.0,0.0
0.0,72.0,127.0,0.0
0.0,39.0,127.0,107.0
0.0,33.0,127.0,29.0
0.0,42.0,127.0,0.0
0.0,39.0,127.0,1.0
0.0,45.0,127.0,2.0
0.0,40.0,127.0,0.0
0.0,40.0,127.0,0.0
0.0,38.0,127.0,0.0
0.0,60.0,127.0,61.0
0.0,63.0,127.0,0.0
0.0,58.0,127.0,0.0
0.0,60.0,127.0,1.0
0.0,63.0,127.0,0.0
0.0,58.0,127.0,0.0
0.0,72.0,127.0,60.0
0.0,72.0,127.0,0.0
0.0,72.0,127.0,0.0
0.0,44.0,95.0,12.0
0.0,33.0,127.0,16.0
0.0,41.0,127.0,1.0
0.0,41.0,127.0,0.0
0.0,63.0,127.0,0.0
0.0,63.0,127.0,1.0
0.0,45.0,127.0,1.0
0.0,60.0,127.0,1.0
0.0,60.0,127.0,1.0
0.0,57.0,127.0,4.0
0.0,57.0,127.0,1.0
0.0,44.0,95.0,179.0
0.0,72.0,127.0,20.0
0.0,72.0,127.0,0.0
0.0,72.0,127.0,0.0
0.0,67.0,127.0,33.0
0.0,67.0,127.0,0.0
0.0,67.0,127.0,0.0
0.0,70.0,127.0,27.0
0.0,70.0,127.0,0.0
0.0,70.0,127.0,0.0
0.0,33.0,127.0,10.0
0.0,42.0,127.0,0.0
0.0,42.0,127.0,1.0
0.0,45.0,127.0,2.0
0.0,40.0,127.0,0.0
0.0,40.0,127.0,0.0
0.0,38.0,127.0,0.0
0.0,42.0,127.0,13.0
0.0,44.0,95.0,27.0
0.0,43.0,127.0,1.0
0.0,43.0,127.0,0.0
0.0,72.0,127.0,7.0
0.0,72.0,127.0,0.0
0.0,72.0,127.0,0.0
0.0,36.0,127.0,47.0
0.0,58.0,127.0,0.0
0.0,58.0,127.0,1.0
0.0,63.0,127.0,4.0
0.0,63.0,127.0,1.0
0.0,33.0,127.0,3.0
0.0,36.0,127.0,1.0
0.0,60.0,127.0,0.0
0.0,60.0,127.0,1.0
0.0,45.0,127.0,1.0
0.0,67.0,127.0,18.0
0.0,67.0,127.0,1.0
0.0,58.0,127.0,6.0
0.0,58.0,127.0,1.0
0.0,63.0,127.0,7.0
0.0,67.0,105.0,0.0
0.0,63.0,127.0,1.0
0.0,67.0,105.0,0.0
0.0,60.0,127.0,6.0
0.0,60.0,127.0,1.0
0.0,44.0,95.0,42.0
0.0,60.0,127.0,75.0
0.0,0.0,0.0,0.0
0.0,0.0,0.0,0.0
0.0,0.0,0.0,0.0
0.0,0.0,0.0,0.0
0.0,0.0,0.0,0.0
0.0,0.0,0.0,0.0
0.0,0.0,0.0,0.0
0.0,0.0,0.0,0.0
0.0,0.0,0.0,0.0
0.0,0.0,0.0,0.0
0.0,0.0,0.0,0.0
0.0,0.0,0.0,0.0
0.0,0.0,0.0,0.0
0.0,0.0,0.0,0.0
0.0,0.0,0.0,0.0
0.0,0.0,0.0,0.0
0.0,0.0,0.0,0.0
0.0,0.0,0.0,0.0
0.0,0.0,0.0,0.0
0.0,0.0,0.0,0.0
0.0,0.0,0.0,0.0
0.0,0.0,0.0,0.0
0.0,0.0,0.0,0.0
0.0,0.0,0.0,0.0
0.0,0.0,0.0,0.0
0.0,0.0,0.0,0.0
0.0,0.0,0.0,0.0
0.0,0.0,0.0,0.0
0.0,0.0,0.0,0.0
0.0,0.0,0.0,0.0
0.0,0.0,0.0,0.0
0.0,0.0,0.0,0.0
0.0,0.0,0.0,0.0
0.0,0.0,0.0,0.0
0.0,0.0,0.0,0.0
0.0,0.0,0.0,0.0
0.0,0.0,0.0,0.0
0.0,0.0,0.0,0.0
0.0,0.0,0.0,0.0
0.0,0.0,0.0,0.0
0.0,0.0,0.0,0.0
0.0,0.0,0.0,0.0
0.0,0.0,0.0,0.0
0.0,0.0,0.0,0.0
0.0,0.0,0.0,0.0
0.0,0.0,0.0,0.0
0.0,0.0,0.0,0.0
0.0,0.0,0.0,0.0
0.0,0.0,0.0,0.0
0.0,0.0,0.0,0.0
0.0,0.0,0.0,0.0
0.0,0.0,0.0,0.0
0.0,0.0,0.0,0.0
0.0,0.0,0.0,0.0
0.0,0.0,0.0,0.0
0.0,0.0,0.0,0.0
