track,note,velocity,time
1,40,59,3026
1,47,66,0
1,55,69,4
1,59,65,6
1,62,70,4
1,64,64,8
1,55,80,278
1,62,56,10
1,64,54,2
1,59,46,4
1,44,58,52
1,43,67,26
1,44,28,26
1,45,61,18
1,62,66,14
1,55,53,0
1,64,61,2
1,59,65,10
1,55,63,6
1,61,66,4
1,64,56,10
1,45,57,178
1,54,62,16
1,38,54,2
1,57,76,8
1,62,50,0
1,57,67,228
1,55,54,2
1,62,48,10
1,45,45,146
1,38,52,12
1,57,71,8
1,54,38,8
1,62,40,2
1,57,101,8
1,59,84,24
1,62,87,38
1,38,75,6
1,54,80,6
1,57,81,8
1,62,60,2
1,38,70,4
1,54,72,6
1,62,65,10
1,57,67,10
1,57,101,2
1,62,87,52
1,38,49,72
1,64,90,48
1,62,74,14
1,55,74,2
1,59,66,6
1,40,72,4
1,40,75,124
1,55,71,4
1,62,64,2
1,59,64,8
1,62,88,16
1,40,55,194
1,64,89,4
1,66,98,44
1,42,81,128
1,57,77,2
1,61,69,0
1,64,63,4
1,67,84,42
1,69,107,74
1,42,71,136
1,61,78,2
1,57,85,4
1,64,69,6
1,66,89,48
1,42,74,60
1,66,76,68
1,64,88,32
1,55,69,52
1,62,61,4
1,59,61,6
1,38,56,2
1,40,55,4
1,40,74,22
1,55,77,10
1,62,69,6
1,59,63,4
1,59,72,10
1,45,64,52
1,57,83,54
1,59,79,10
1,54,74,4
1,62,63,6
1,57,81,4
1,62,94,38
1,38,63,0
1,57,94,16
1,54,77,106
1,50,81,8
1,57,74,0
1,62,54,4
1,62,92,14
1,47,61,22
1,55,72,86
1,62,67,6
1,59,65,4
1,64,108,56
1,40,68,38
1,67,95,40
1,66,96,4
1,55,80,138
1,40,81,0
1,59,66,10
1,62,67,0
1,64,93,80
1,61,74,72
1,57,84,4
1,64,72,2
1,49,74,4
1,42,70,6
1,71,103,32
1,66,80,0
1,69,94,8
1,49,82,196
1,61,78,0
1,57,87,2
1,64,76,6
1,42,71,4
1,42,67,198
1,49,74,6
1,55,63,196
1,59,61,2
1,62,64,0
1,47,65,14
1,40,56,2
1,57,108,134
1,47,65,6
1,55,60,10
1,62,57,6
1,59,42,8
1,59,84,148
1,45,60,50
1,62,98,80
1,54,77,48
1,38,58,0
1,57,81,8
1,62,71,0
1,54,59,50
1,54,91,20
1,50,74,4
1,62,81,0
1,57,86,2
1,57,105,20
1,62,92,40
1,47,66,12
1,64,96,4
1,55,67,0
1,55,81,4
1,62,67,2
1,59,60,4
1,59,79,2
1,64,59,0
1,40,69,0
1,55,75,114
1,64,67,8
1,40,72,0
1,59,60,2
1,62,61,4
1,62,94,2
1,64,87,196
1,66,87,52
1,62,79,10
1,49,79,62
1,42,71,6
1,61,74,6
1,57,81,4
1,64,74,2
1,64,84,18
1,67,73,6
1,61,77,86
1,69,96,2
1,57,86,0
1,49,70,8
1,64,68,6
1,66,77,64
1,62,70,16
1,47,64,32
1,59,71,20
1,64,87,4
1,40,63,2
1,62,58,4
1,55,46,10
1,59,46,2
1,55,51,42
1,47,63,148
1,59,61,8
1,55,61,0
1,62,63,4
1,57,95,22
1,59,79,54
1,45,63,22
1,62,102,60
1,54,58,6
1,57,68,6
1,62,50,10
1,38,58,28
1,57,66,106
1,45,70,144
1,54,81,6
1,57,79,10
1,62,67,2
1,62,95,170
1,47,62,20
1,64,96,24
1,62,66,122
1,59,50,6
1,55,53,8
1,40,66,10
1,67,108,20
1,55,51,54
1,40,81,108
1,66,102,14
1,62,82,0
1,55,83,0
1,59,71,8
1,40,47,176
1,64,87,10
1,71,90,82
1,67,79,6
1,61,77,10
1,57,84,4
1,64,77,2
1,49,77,4
1,42,72,6
1,66,72,18
1,69,60,0
1,57,46,16
1,49,74,182
1,61,81,8
1,57,93,6
1,64,79,6
1,49,78,12
1,59,62,182
1,62,69,0
1,55,68,4
1,40,74,10
1,55,71,32
1,62,102,32
1,47,70,10
1,55,91,0
1,62,90,6
1,59,77,6
1,62,78,160
1,38,69,18
1,67,101,40
1,71,100,2
1,43,83,6
1,31,83,8
1,54,89,2
1,62,83,6
1,59,78,8
1,43,74,102
1,54,77,4
1,59,62,8
1,43,77,156
1,74,93,20
1,73,106,4
1,42,82,22
1,30,81,2
1,54,85,10
1,57,94,0
1,61,81,4
1,69,100,6
1,66,95,4
1,42,77,96
1,54,87,2
1,61,82,4
1,57,86,8
1,69,84,54
1,42,87,0
1,69,86,76
1,28,66,2
1,40,60,4
1,59,70,4
1,52,69,2
1,55,68,4
1,71,112,2
1,62,59,8
1,69,81,16
1,71,108,38
1,52,65,82
1,55,60,0
1,59,51,10
1,62,51,0
1,62,88,16
1,64,90,42
1,66,93,62
1,61,70,34
1,54,70,2
1,57,79,4
1,30,68,6
1,42,62,4
1,69,105,52
1,54,72,138
1,61,70,4
1,57,75,2
1,42,77,0
1,66,98,106
1,35,64,60
1,66,86,62
1,66,93,16
1,52,69,42
1,28,52,0
1,40,57,2
1,55,68,6
1,59,60,2
1,62,55,6
1,59,79,20
1,64,91,2
1,64,97,48
1,59,87,2
1,40,65,208
1,52,73,12
1,55,74,0
1,62,68,8
1,59,62,2
1,40,60,144
1,55,80,54
1,64,71,0
1,62,69,10
1,59,71,0
1,28,64,4
1,40,59,6
1,55,54,10
1,55,69,26
1,59,49,4
1,52,61,10
1,62,62,2
1,40,78,24
1,52,52,18
1,40,79,6
1,59,102,62
1,57,100,4
1,33,69,26
1,59,94,10
1,55,65,2
1,57,75,4
1,45,53,0
1,62,58,6
1,57,101,12
1,57,117,24
1,45,66,164
1,55,56,26
1,57,58,16
1,45,56,228
1,33,60,48
1,61,71,2
1,57,68,10
1,55,49,0
1,57,104,0
1,55,90,6
1,59,94,34
1,67,44,8
1,62,108,28
1,66,50,16
1,54,69,52
1,38,67,6
1,62,61,0
1,57,76,6
1,45,65,6
1,54,72,170
1,57,78,6
1,45,72,10
1,54,74,260
1,62,67,0
1,57,82,0
1,38,67,8
1,61,69,0
1,54,67,16
1,61,101,182
1,66,98,4
1,69,79,6
1,45,78,6
1,61,72,4
1,57,92,6
1,54,91,0
1,62,81,6
1,69,81,44
1,66,88,16
1,61,96,4
1,45,82,0
1,66,96,14
1,61,82,2
1,47,69,6
1,66,97,22
1,61,91,4
1,69,81,6
1,52,77,6
1,55,78,2
1,59,71,4
1,62,71,4
1,40,74,18
1,62,104,6
1,67,101,0
1,71,68,42
1,52,50,10
1,71,71,42
1,59,92,4
1,67,92,0
1,62,93,2
1,40,72,94
1,52,70,6
1,62,70,4
1,55,67,6
1,59,54,6
1,52,65,74
1,40,67,48
1,33,71,68
1,52,71,4
1,57,78,6
1,62,69,0
1,45,53,10
1,52,62,6
1,57,85,170
1,61,79,2
1,52,69,4
1,45,82,0
1,64,92,36
1,69,91,32
1,45,84,38
1,54,76,0
1,66,90,4
1,69,89,0
1,61,71,0
1,57,86,2
1,61,97,4
1,30,76,6
1,42,66,4
1,74,88,2
1,66,94,58
1,61,103,0
1,69,96,6
1,57,81,2
1,54,70,4
1,61,58,0
1,74,79,36
1,42,69,16
1,30,78,0
1,54,81,0
1,61,97,94
1,69,93,0
1,66,76,2
1,30,63,8
1,74,90,2
1,42,84,6
1,69,98,12
1,62,91,0
1,74,93,4
1,59,88,0
1,54,81,10
1,31,72,4
1,59,71,4
1,43,73,2
1,62,70,4
1,59,92,22
1,67,87,0
1,62,89,4
1,71,77,26
1,54,86,144
1,62,79,4
1,59,73,2
1,43,69,6
1,69,87,34
1,74,83,10
1,43,79,0
1,45,74,38
1,67,102,6
1,71,68,2
1,54,72,24
1,57,79,4
1,62,60,2
1,38,73,14
1,61,92,30
1,66,89,2
1,69,77,6
1,54,72,4
1,54,81,156
1,45,74,6
1,62,71,0
1,69,82,6
1,66,94,4
1,61,93,0
1,57,75,0
1,71,71,16
1,67,79,10
1,64,79,6
1,45,67,4
1,69,85,58
1,61,95,0
1,54,81,6
1,66,91,4
1,62,74,2
1,57,82,6
1,50,86,4
1,54,72,6
1,54,89,8
1,50,94,6
1,57,90,0
1,62,80,2
1,38,63,4
1,66,104,28
1,71,86,4
1,49,94,2
1,37,84,4
1,69,93,8
1,74,95,20
1,54,98,44
1,47,79,4
1,62,85,2
1,35,78,4
1,59,78,10
1,71,105,174
1,74,110,0
1,54,85,2
1,35,81,4
1,78,84,4
1,59,69,6
1,71,81,68
1,74,92,4
1,78,76,24
1,69,93,0
1,73,92,8
1,76,70,24
1,61,72,42
1,57,77,4
1,64,70,2
1,42,84,6
1,30,83,8
1,73,78,92
1,69,83,0
1,66,70,6
1,61,71,54
1,57,81,0
1,42,81,4
1,66,80,144
1,69,81,14
1,73,75,16
1,42,85,0
1,69,84,52
1,73,59,12
1,67,91,42
1,71,89,0
1,55,67,16
1,62,69,4
1,31,67,0
1,59,61,2
1,74,86,4
1,43,73,0
1,69,87,82
1,66,79,4
1,73,72,22
1,67,92,4
1,71,90,0
1,74,94,22
1,55,39,2
1,74,72,26
1,62,77,10
1,74,71,4
1,64,87,16
1,43,71,6
1,73,78,48
1,66,87,16
1,54,68,8
1,42,62,2
1,30,69,4
1,61,62,2
1,57,77,8
1,73,68,20
1,69,92,32
1,42,82,124
1,57,71,16
1,54,62,6
1,35,69,40
1,69,62,38
1,66,91,6
1,69,77,88
1,52,65,16
1,55,69,6
1,59,59,0
1,28,67,10
1,66,93,0
1,69,80,28
1,64,84,10
1,59,71,0
1,67,70,12
1,59,83,72
1,64,87,0
1,67,66,14
1,55,75,82
1,52,67,4
1,59,51,6
1,40,61,6
1,66,91,54
1,69,71,22
1,40,55,16
1,57,92,58
1,67,72,0
1,62,78,4
1,71,75,8
1,55,75,68
1,33,65,0
1,59,64,6
1,62,64,4
1,45,67,2
1,64,64,0
1,57,41,6
1,66,91,10
1,69,71,20
1,64,84,14
1,67,71,12
1,45,54,124
1,62,78,24
1,54,75,2
1,66,65,10
1,57,84,4
1,54,67,50
1,62,59,4
1,57,77,2
1,38,63,8
1,57,64,138
1,54,42,6
1,62,39,14
1,50,61,8
1,45,60,32
1,38,65,92
1,57,82,20
1,55,65,2
1,62,61,8
1,62,51,112
1,57,66,0
1,55,49,8
1,50,67,40
1,55,67,96
1,50,51,4
1,38,60,136
1,54,59,20
1,57,65,0
1,57,71,154
1,54,48,2
1,62,31,14
1,50,66,8
1,50,58,70
1,38,62,8
1,57,67,0
1,62,49,10
1,55,41,0
1,57,107,64
1,57,84,96
1,50,78,12
1,59,85,38
1,45,62,4
1,54,58,10
1,62,59,0
1,57,73,4
1,62,101,34
1,38,61,0
1,57,102,106
1,54,74,48
1,62,64,10
1,57,74,0
1,57,100,2
1,45,69,8
1,62,92,26
1,38,79,96
1,55,102,26
1,59,94,0
1,64,104,4
1,59,66,160
1,62,67,2
1,55,66,4
1,40,78,10
1,55,58,6
1,62,77,152
1,55,72,4
1,40,79,4
1,59,71,0
1,62,94,36
1,64,95,16
1,40,41,16
1,41,44,12
1,61,104,48
1,66,98,2
1,49,71,144
1,57,75,8
1,61,70,0
1,64,63,8
1,42,62,0
1,67,85,64
1,69,105,6
1,49,59,156
1,61,62,8
1,57,69,6
1,61,84,44
1,66,82,4
1,49,65,118
1,66,81,32
1,47,45,16
1,59,76,22
1,64,90,18
1,55,62,20
1,59,58,6
1,62,63,0
1,40,69,10
1,55,10,40
1,55,66,138
1,57,98,2
1,59,56,0
1,62,58,6
1,47,60,8
1,59,71,76
1,45,54,58
1,62,97,56
1,54,65,38
1,38,63,6
1,62,61,0
1,57,74,6
1,57,94,10
1,54,76,122
1,50,82,2
1,62,65,6
1,57,80,8
1,57,108,8
1,62,90,20
1,47,68,4
1,59,88,40
1,64,93,8
1,62,75,50
1,55,69,4
1,59,68,2
1,40,78,36
1,67,102,16
1,55,72,10
1,55,82,52
1,62,64,4
1,59,69,0
1,47,66,2
1,64,59,10
1,66,100,12
1,40,73,38
1,64,87,22
1,71,80,78
1,67,71,12
1,61,72,6
1,57,83,4
1,64,73,4
1,49,70,0
1,42,67,2
1,66,82,24
1,69,81,0
1,61,80,150
1,49,84,4
1,57,91,2
1,64,81,0
1,42,79,6
1,49,92,170
1,42,68,16
1,55,82,54
1,59,75,6
1,62,77,4
1,47,71,8
1,40,84,32
1,55,87,166
1,59,77,4
1,62,80,2
1,47,71,10
1,57,110,6
1,45,69,42
1,59,84,8
1,62,103,32
1,54,78,12
1,38,73,4
1,57,81,10
1,62,58,0
1,54,65,20
1,38,82,112
1,54,83,20
1,57,76,10
1,62,66,0
1,57,107,6
1,62,87,80
1,59,89,14
1,64,92,2
1,40,70,8
1,55,62,2
1,28,65,4
1,62,53,6
1,59,61,0
1,55,67,14
1,62,92,86
1,55,72,56
1,40,67,0
1,62,62,2
1,59,71,4
1,40,69,8
1,64,86,4
1,66,89,96
1,62,92,6
1,61,65,20
1,57,75,0
1,42,66,4
1,64,61,8
1,30,71,0
1,67,74,6
1,64,68,2
1,69,94,28
1,66,64,0
1,61,58,22
1,30,67,8
1,57,69,6
1,42,69,2
1,66,84,126
1,62,83,2
1,42,72,26
1,59,71,38
1,64,82,0
1,28,62,6
1,40,61,8
1,55,59,2
1,62,60,4
1,59,56,2
1,59,64,0
1,40,72,4
1,55,66,0
1,57,108,2
1,62,37,10
1,59,75,102
1,45,59,24
1,62,104,56
1,54,62,124
1,57,76,0
1,38,69,6
1,62,58,0
1,38,84,152
1,54,77,22
1,62,76,0
1,57,78,10
1,57,110,16
1,38,81,84
1,62,94,22
1,64,102,54
1,59,83,10
1,52,77,92
1,40,82,4
1,62,72,2
1,55,78,0
1,59,74,4
1,67,92,2
1,59,87,4
1,64,96,4
1,52,69,16
1,66,102,72
1,62,95,10
1,59,60,16
1,52,85,6
1,55,83,0
1,62,83,4
1,59,79,4
1,40,77,6
1,64,91,18
1,40,75,32
1,71,93,68
1,67,81,6
1,42,85,22
1,61,87,6
1,57,95,6
1,54,84,0
1,54,77,26
1,69,94,6
1,66,89,2
1,61,84,114
1,54,97,2
1,57,93,4
1,42,91,2
1,42,86,58
1,59,60,6
1,52,61,4
1,55,70,0
1,40,72,2
1,62,54,4
1,52,60,10
1,40,75,142
1,55,77,6
1,62,67,2
1,59,62,4
1,52,70,4
1,62,98,0
1,62,87,110
1,38,62,54
1,71,104,48
1,67,107,0
1,31,73,22
1,54,85,4
1,43,75,0
1,62,74,2
1,59,78,4
1,54,77,26
1,43,87,156
1,62,84,6
1,54,91,0
1,59,76,10
1,43,80,26
1,74,97,26
1,71,92,4
1,69,105,48
1,73,102,4
1,42,77,58
1,61,78,0
1,57,84,6
1,30,78,0
1,64,76,2
1,69,110,8
1,66,103,4
1,42,77,10
1,61,76,10
1,57,84,2
1,66,86,154
1,69,79,16
1,42,84,10
1,66,80,22
1,69,84,22
1,71,98,38
1,67,101,0
1,64,98,4
1,28,62,32
1,40,64,2
1,62,71,4
1,59,61,2
1,55,71,4
1,69,89,12
1,64,105,26
1,71,101,0
1,67,98,0
1,40,74,150
1,62,71,4
1,55,71,0
1,59,62,6
1,62,85,36
1,64,86,16
1,40,72,60
1,66,97,44
1,61,97,0
1,30,72,16
1,42,74,4
1,54,68,2
1,61,67,4
1,57,80,2
1,69,110,70
1,57,112,0
1,61,94,4
1,42,87,96
1,54,89,6
1,61,77,4
1,57,88,10
1,35,69,34
1,61,86,54
1,57,84,4
1,66,97,2
1,64,81,10
1,28,74,2
1,52,79,4
1,62,77,0
1,55,81,2
1,40,77,4
1,59,74,4
1,66,100,4
1,64,86,22
1,64,95,48
1,59,89,0
1,62,89,2
1,55,82,122
1,52,82,4
1,59,71,2
1,62,69,4
1,40,77,0
1,28,69,72
1,55,78,4
1,52,80,0
1,59,53,6
1,52,67,48
1,52,82,26
1,55,82,2
1,59,62,4
1,40,78,10
1,71,105,160
1,40,69,22
1,69,90,10
1,71,103,14
1,33,70,2
1,55,83,4
1,59,71,4
1,62,72,0
1,45,77,8
1,64,70,0
