track,note,velocity,time
1,72,127,714
1,70,127,124
1,72,0,19
1,70,0,64
1,72,127,9
1,70,127,94
1,72,0,9
1,70,0,42
1,72,127,14
1,72,0,113
1,70,127,0
1,70,0,47
1,72,127,62
1,72,0,89
1,70,127,5
1,70,0,35
1,72,127,5
1,72,0,83
1,70,127,15
1,70,0,41
1,72,127,57
1,70,127,79
1,72,0,15
1,70,0,26
1,72,127,24
1,70,127,105
1,72,0,17
1,70,0,34
1,72,127,201
1,75,127,113
1,72,0,19
1,75,0,72
1,77,127,24
1,77,0,56
1,77,127,72
1,77,0,278
1,65,127,60
1,72,127,111
1,65,0,21
1,72,0,58
1,74,127,34
1,74,0,62
1,74,127,56
1,74,0,250
1,65,127,49
1,65,0,109
1,70,127,3
1,70,0,79
1,70,127,47
1,70,0,194
1,60,127,48
1,60,0,44
1,65,127,178
1,65,0,109
1,63,127,123
1,63,0,120
1,62,127,7
1,63,127,126
1,62,0,2
1,60,127,119
1,63,0,2
1,62,127,109
1,60,0,18
1,63,127,104
1,62,0,9
1,63,0,74
1,65,127,35
1,67,127,122
1,65,0,15
1,70,127,106
1,67,0,11
1,70,0,88
1,67,127,18
1,70,127,80
1,67,0,12
1,72,127,68
1,70,0,2
1,72,0,72
1,70,127,6
1,72,127,80
1,70,0,16
1,75,127,64
1,72,0,23
1,72,127,57
1,75,0,5
1,75,127,75
1,72,0,14
1,77,127,67
1,75,0,7
1,77,0,59
1,75,127,13
1,77,127,80
1,75,0,1
1,79,127,78
1,77,0,36
1,79,0,38
1,77,127,7
1,79,127,80
1,77,0,7
1,82,127,74
1,79,0,26
1,82,0,38
1,79,127,15
1,82,127,80
1,79,0,14
1,84,127,66
1,82,0,8
1,84,0,44
1,85,127,28
1,82,127,1
1,85,0,25
1,84,127,54
1,82,0,4
1,87,127,77
1,84,0,17
1,84,127,63
1,87,0,1
1,87,127,78
1,84,0,5
1,89,127,76
1,87,0,12
1,89,0,44
1,89,127,23
1,89,0,224
1,87,127,41
1,87,0,92
1,84,127,24
1,84,0,83
1,94,127,51
1,94,0,74
1,94,127,33
1,94,0,106
1,89,127,158
1,89,0,49
1,87,127,36
1,87,0,120
1,86,127,6
1,87,127,122
1,86,0,2
1,86,127,109
1,87,0,30
1,82,127,90
1,86,0,25
1,77,127,83
1,82,0,1
1,77,0,188
1,86,127,44
1,82,127,73
1,86,0,17
1,82,0,101
1,77,127,0
1,77,0,162
1,86,127,58
1,82,127,55
1,86,0,17
1,77,127,92
1,82,0,2
1,77,0,107
1,84,127,30
1,84,0,115
1,82,127,47
1,82,0,90
1,77,127,69
1,77,0,79
1,77,127,26
1,75,127,120
1,77,0,15
1,75,0,81
1,72,127,118
1,72,0,13
1,70,127,28
1,70,0,101
1,65,127,38
1,67,127,120
1,65,0,6
1,67,0,98
1,65,127,20
1,65,0,81
1,63,127,45
1,63,0,102
1,60,127,13
1,60,0,2138
1,88,95,121221
1,88,0,240
1,87,79,0
1,87,0,480
1,83,88,0
1,83,0,480
1,80,65,0
1,80,0,720
1,85,88,0
1,83,88,225
1,83,0,240
1,85,0,15
1,76,99,240
1,76,0,480
1,78,78,0
1,78,0,1920
2,67,127,76807
2,70,120,83
2,67,0,2
2,67,100,67
2,70,0,11
2,70,116,63
2,67,0,1
2,67,88,53
2,70,0,23
2,67,0,48
2,70,114,6
2,67,100,57
2,70,0,24
2,67,0,51
2,70,114,5
2,67,103,59
2,70,0,22
2,70,116,53
2,67,0,2
2,67,104,60
2,70,0,22
2,70,120,34
2,67,0,2
2,67,93,53
2,70,0,28
2,70,120,54
2,67,0,2
2,67,100,19
2,70,0,28
2,70,122,5
2,67,0,2
2,67,100,28
2,70,0,27
2,70,110,47
2,67,0,3
2,67,88,13
2,70,0,8
2,70,101,9
2,67,0,6
2,67,92,39
2,70,0,27
2,70,103,30
2,67,0,10
2,67,86,17
2,70,0,24
2,70,108,13
2,67,0,6
2,67,88,13
2,70,0,40
2,70,108,19
2,67,0,4
2,67,93,43
2,70,0,28
2,67,0,9
2,70,127,124
2,70,0,167
2,70,127,46
2,70,0,96
2,65,124,152
2,65,0,58
2,65,114,17
2,63,124,104
2,65,0,17
2,63,0,86
2,60,94,19
2,63,127,126
2,60,0,22
2,63,0,94
2,65,104,12
2,67,94,109
2,65,0,5
2,67,0,117
2,60,112,13
2,62,114,115
2,60,0,5
2,62,0,222
2,65,108,0
2,62,87,115
2,60,78,4
2,60,0,13
2,65,0,9
2,62,0,130
2,63,127,68
2,63,0,124
2,62,122,107
2,62,0,130
2,58,127,122
2,58,0,79
2,53,92,37
2,55,101,123
2,53,0,13
2,55,0,92
2,58,126,22
2,53,78,119
2,58,0,11
2,53,0,105
2,55,94,12
2,58,124,124
2,55,0,13
2,58,0,85
2,60,108,18
2,63,120,117
2,60,0,34
2,63,0,69
2,65,116,21
2,65,0,103
2,60,83,12
2,63,122,124
2,60,0,30
2,63,0,64
2,67,120,24
2,60,89,117
2,67,0,4
2,63,120,110
2,60,0,2
2,63,0,98
2,70,126,28
2,62,86,121
2,70,0,22
2,62,0,77
2,63,120,15
2,63,0,92
2,74,122,36
2,67,62,132
2,69,62,5
2,74,0,23
2,69,0,13
2,70,126,66
2,67,0,9
2,70,0,85
2,77,108,22
2,72,70,125
2,77,0,22
2,72,0,70
2,74,100,26
2,74,0,107
2,81,114,23
2,79,93,122
2,81,0,6
2,77,110,112
2,79,0,21
2,75,126,96
2,77,0,21
2,75,0,90
2,72,89,7
2,74,108,115
2,72,0,2
2,74,0,100
2,77,122,22
2,75,127,120
2,77,0,21
2,72,110,96
2,75,0,19
2,72,0,77
2,67,98,13
2,70,126,115
2,67,0,22
2,70,0,70
2,72,118,26
2,72,0,87
2,70,127,36
2,70,0,70
2,70,127,28
2,70,0,115
2,67,120,124
2,67,0,2
2,65,114,20
2,65,0,111
2,63,127,30
2,63,0,116
2,60,122,123
2,63,126,116
2,60,0,28
2,63,0,83
2,65,118,11
2,65,0,100
2,67,122,24
2,65,108,125
2,67,0,24
2,63,127,88
2,65,0,19
2,63,0,64
2,65,122,41
2,65,0,17
2,70,127,68
2,70,0,15
2,72,127,196
2,72,0,9
2,77,127,183
2,77,0,2
2,82,127,93
2,82,0,2
2,84,127,69
2,84,0,158
2,87,127,92
2,87,0,126
2,89,127,100
2,89,0,120
2,89,127,119
2,89,0,68
2,84,112,41
2,84,0,86
2,87,127,47
2,87,0,108
2,89,127,101
2,89,0,74
2,84,104,55
2,84,0,92
2,87,126,49
2,87,0,94
2,89,110,39
2,88,106,6
2,88,0,9
2,89,0,32
2,84,112,25
2,84,0,84
2,87,127,32
2,87,0,87
2,89,120,45
2,89,0,52
2,84,122,36
2,84,0,85
2,87,127,24
2,87,0,86
2,89,122,47
2,89,0,35
2,84,116,15
2,84,0,83
2,87,127,34
2,87,0,92
2,89,120,40
2,89,0,30
2,84,116,34
2,84,0,86
2,87,127,44
2,87,0,64
2,92,127,67
2,92,0,59
2,91,127,415
2,89,108,126
2,91,0,7
2,89,0,187
2,84,76,50
2,84,0,81
2,86,108,30
2,86,0,83
2,87,126,26
2,86,108,115
2,87,0,30
2,86,0,73
2,84,101,14
2,84,0,79
2,82,127,47
2,82,0,82
2,77,94,32
2,77,0,89
2,79,108,37
2,79,0,102
2,82,127,20
2,77,73,119
2,82,0,24
2,77,0,96
2,75,127,11
2,75,0,102
2,74,91,13
2,74,0,103
2,77,122,19
2,72,87,119
2,77,0,5
2,72,0,81
2,74,112,21
2,74,0,90
2,77,116,28
2,75,122,74
2,77,0,22
2,74,93,40
2,75,0,20
2,72,82,36
2,74,0,4
2,72,0,54
2,75,124,6
2,74,108,58
2,75,0,27
2,74,0,48
2,72,89,2
2,72,0,72
2,74,103,11
2,72,92,85
2,74,0,30
2,67,65,43
2,72,0,2
2,67,0,68
2,72,112,9
2,70,112,77
2,72,0,24
2,70,0,53
2,67,94,10
2,67,0,71
2,70,127,19
2,67,101,88
2,70,0,19
2,67,0,47
2,65,86,4
2,67,114,90
2,65,0,2
2,65,101,83
2,67,0,26
2,65,0,49
2,62,88,3
2,62,0,74
2,65,112,9
2,63,124,75
2,65,0,27
2,60,91,58
2,63,0,2
2,60,0,69
2,63,126,8
2,62,98,68
2,63,0,35
2,62,0,42
2,60,103,9
2,63,127,72
2,60,0,7
2,62,116,252
2,63,0,23
2,62,0,90
2,60,101,4
2,62,118,124
2,60,0,9
2,62,0,107
2,63,127,6
2,67,120,113
2,63,0,2
2,60,93,105
2,67,0,32
2,60,0,81
2,62,118,20
2,63,127,115
2,62,0,13
2,67,96,113
2,63,0,2
2,65,104,5
2,65,0,10
2,67,0,92
2,60,116,4
2,60,0,109
2,70,127,19
2,60,94,116
2,70,0,11
2,60,0,93
2,72,122,16
2,72,0,113
2,60,104,6
2,60,0,107
2,74,126,9
2,74,0,117
2,60,112,0
2,60,0,73
2,75,126,57
2,75,0,99
2,60,100,12
2,60,0,107
2,70,127,22
2,70,0,128
2,72,104,0
2,72,0,100
2,60,112,13
2,60,0,88
2,75,127,45
2,60,98,96
2,75,0,12
2,60,0,71
2,77,122,55
2,76,110,1
2,76,0,16
2,77,0,60
2,60,96,41
2,60,0,68
2,72,103,50
2,71,112,6
2,71,0,8
2,74,118,114
2,72,0,13
2,75,127,91
2,74,0,11
2,77,116,105
2,75,0,6
2,72,93,111
2,77,0,19
2,72,0,60
2,72,124,47
2,70,127,87
2,72,0,15
2,70,0,101
2,65,104,10
2,65,0,163
2,72,127,68
2,72,0,64
2,70,127,21
2,70,0,132
2,65,108,7
2,65,0,81
2,67,126,36
2,70,127,128
2,67,0,1
2,65,92,104
2,70,0,24
2,63,127,96
2,65,0,8
2,63,0,96
2,62,104,18
2,62,0,85
2,65,124,36
2,60,93,116
2,65,0,21
2,60,0,64
2,62,120,24
2,62,0,111
2,65,116,15
2,60,87,121
2,65,0,5
2,60,0,87
2,63,127,26
2,60,103,126
2,63,0,6
2,60,0,92
2,62,118,24
2,62,0,104
2,65,118,20
2,60,103,107
2,65,0,17
2,67,101,107
2,60,0,6
2,70,127,111
2,67,0,34
2,70,0,51
2,72,124,45
2,67,98,122
2,72,0,30
2,70,127,77
2,67,0,23
2,70,0,96
2,63,110,5
2,63,0,79
2,75,127,40
2,70,127,61
2,75,0,20
2,67,100,40
2,70,0,12
2,63,120,48
2,67,0,2
2,63,0,56
2,72,127,2
2,70,127,60
2,72,0,34
2,70,0,28
2,67,104,0
2,63,116,57
2,67,0,10
2,63,0,45
2,75,127,7
2,70,126,58
2,75,0,23
2,67,100,38
2,70,0,10
2,63,116,49
2,67,0,9
2,63,0,43
2,72,122,7
2,70,126,62
2,72,0,28
2,67,96,31
2,63,116,2
2,70,0,4
2,63,0,49
2,67,0,13
2,75,127,53
2,70,127,60
2,75,0,26
2,67,91,35
2,63,118,0
2,70,0,14
2,63,0,55
2,67,0,7
2,72,126,42
2,70,127,60
2,72,0,32
2,63,120,28
2,67,100,1
2,70,0,10
2,63,0,47
2,67,0,20
2,75,127,45
2,70,127,58
2,75,0,26
2,63,114,32
2,67,92,3
2,70,0,16
2,63,0,43
2,67,0,13
2,72,124,46
2,70,127,61
2,72,0,34
2,67,103,24
2,63,116,3
2,70,0,11
2,63,0,53
2,67,0,22
2,77,126,34
2,70,127,58
2,77,0,32
2,67,98,30
2,63,112,1
2,70,0,16
2,63,0,46
2,67,0,14
2,72,127,42
2,70,124,61
2,72,0,37
2,63,112,23
2,67,91,1
2,70,0,15
2,63,0,51
2,67,0,23
2,75,127,30
2,70,127,61
2,75,0,35
2,63,118,24
2,67,96,1
2,70,0,17
2,63,0,42
2,67,0,16
2,72,120,45
2,70,126,59
2,72,0,37
2,67,101,22
2,63,114,1
2,70,0,17
2,63,0,42
2,67,0,23
2,77,124,37
2,70,127,60
2,77,0,30
2,63,112,29
2,67,94,1
2,70,0,19
2,63,0,35
2,67,0,32
2,72,120,33
2,70,126,62
2,72,0,32
2,67,98,27
2,63,116,1
2,70,0,19
2,63,0,40
2,67,0,19
2,75,127,40
2,70,127,61
2,75,0,35
2,63,116,24
2,67,92,2
2,70,0,16
2,63,0,38
2,67,0,35
2,72,120,29
2,70,122,63
2,63,112,0
2,63,0,15
2,72,0,25
2,67,108,19
2,70,0,22
2,67,0,63
2,75,127,34
2,75,0,26
2,75,127,9
2,75,0,19
2,72,114,58
2,72,0,100
2,65,127,133
2,65,0,100
2,70,127,117
2,70,0,26
2,70,127,34
2,67,110,136
2,70,0,18
2,65,97,83
2,67,0,8
2,65,0,86
2,63,127,32
2,63,0,117
2,60,100,3
2,60,0,89
2,62,120,36
2,63,124,122
2,62,0,26
2,64,81,30
2,63,0,15
2,64,0,6
2,65,108,43
2,67,108,115
2,65,0,84
2,70,127,40
2,67,0,15
2,70,0,99
2,67,103,6
2,70,127,117
2,67,0,20
2,70,0,85
2,77,103,21
2,72,98,120
2,77,0,36
2,74,116,84
2,72,0,6
2,74,0,94
2,75,127,22
2,72,104,123
2,75,0,5
2,74,122,104
2,72,0,19
2,75,118,109
2,74,0,16
2,76,80,0
2,75,0,17
2,76,0,30
2,77,108,51
2,79,108,113
2,77,0,45
2,79,0,19
2,82,127,66
2,82,0,62
2,84,110,22
2,82,127,126
2,84,0,11
2,82,0,94
2,84,122,17
2,82,127,119
2,84,0,9
2,82,0,70
2,84,124,12
2,82,127,118
2,84,0,13
2,82,0,67
2,84,126,22
2,82,127,114
2,84,0,17
2,82,0,75
2,84,126,26
2,82,127,107
2,84,0,21
2,82,0,49
2,87,127,39
2,87,0,60
2,87,127,30
2,87,0,128
2,84,127,122
2,84,0,102
2,82,127,115
2,82,0,77
2,82,127,47
2,79,116,129
2,82,0,23
2,79,0,83
2,77,112,13
2,77,0,73
2,75,127,49
2,75,0,105
2,72,108,15
2,72,0,91
2,77,127,28
2,72,104,116
2,77,0,21
2,72,0,41
2,74,127,53
2,74,0,86
2,70,127,0
2,70,0,121
2,65,112,9
2,70,127,111
2,65,0,28
2,70,0,60
2,72,124,30
2,65,96,119
2,72,0,32
2,65,0,41
2,70,127,41
2,65,93,117
2,70,0,17
2,65,0,58
2,67,124,34
2,67,0,103
2,68,127,15
2,65,100,111
2,68,0,6
2,67,106,66
2,65,0,11
2,68,104,51
2,67,0,17
2,70,122,26
2,68,0,17
2,70,0,21
2,72,104,47
2,74,104,69
2,72,0,2
2,75,104,55
2,74,0,3
2,72,96,64
2,75,0,4
2,74,112,68
2,72,0,11
2,75,127,60
2,74,0,2
2,75,0,41
2,77,104,40
2,79,98,66
2,77,0,13
2,80,101,51
2,79,0,7
2,77,114,75
2,80,0,2
2,79,103,59
2,77,0,18
2,80,104,25
2,79,0,28
2,82,122,24
2,80,0,19
2,82,0,13
2,83,70,4
2,83,0,8
2,84,101,30
2,86,106,79
2,84,0,7
2,87,110,47
2,86,0,10
2,84,103,56
2,87,0,13
2,86,106,49
2,84,0,17
2,87,118,36
2,86,0,7
2,87,0,30
2,89,98,44
2,91,103,67
2,89,0,8
2,92,101,56
2,91,0,21
2,89,103,58
2,92,0,2
2,91,100,51
2,89,0,20
2,92,103,21
2,94,118,10
2,91,0,20
2,92,0,45
2,96,108,17
2,94,0,23
2,96,0,273
3,55,80,83
3,87,120,120
3,79,107,0
3,63,95,0
3,77,30,0
3,77,0,8
3,79,0,164
3,87,0,11
3,86,107,34
3,77,106,0
3,86,0,60
3,77,0,22
3,63,0,58
3,82,110,109
3,63,84,0
3,74,120,0
3,55,0,143
3,82,0,16
3,74,0,85
3,63,0,25
3,79,101,211
3,77,115,0
3,72,103,0
3,77,0,116
3,44,95,124
3,51,84,17
3,79,0,122
3,72,0,66
3,84,103,52
3,60,88,0
3,75,115,0
3,84,0,184
3,82,120,56
3,75,0,47
3,60,0,13
3,51,0,11
3,44,0,0
3,82,0,1
3,75,124,408
3,68,101,0
3,48,95,0
3,41,87,0
3,56,65,0
3,41,0,217
3,48,0,4
3,56,0,66
