track,note,velocity,time
0.0,45.0,100.0,0.0
0.0,57.0,100.0,0.0
0.0,45.0,100.0,0.0
0.0,38.0,100.0,0.0
0.0,40.0,100.0,0.0
0.0,57.0,100.0,128.0
0.0,45.0,100.0,0.0
0.0,45.0,100.0,0.0
0.0,36.0,100.0,0.0
0.0,57.0,100.0,64.0
0.0,45.0,100.0,0.0
0.0,45.0,100.0,0.0
0.0,57.0,100.0,64.0
0.0,45.0,100.0,0.0
0.0,45.0,100.0,0.0
0.0,40.0,100.0,0.0
0.0,57.0,100.0,64.0
0.0,45.0,100.0,0.0
0.0,45.0,100.0,0.0
0.0,55.0,100.0,64.0
0.0,43.0,100.0,0.0
0.0,43.0,100.0,0.0
0.0,57.0,100.0,64.0
0.0,45.0,100.0,0.0
0.0,45.0,100.0,0.0
0.0,59.0,100.0,64.0
0.0,47.0,100.0,0.0
0.0,47.0,100.0,0.0
0.0,42.0,100.0,0.0
0.0,59.0,100.0,128.0
0.0,47.0,100.0,0.0
0.0,47.0,100.0,0.0
0.0,40.0,100.0,128.0
0.0,57.0,100.0,288.0
0.0,45.0,100.0,0.0
0.0,45.0,100.0,0.0
0.0,59.0,100.0,64.0
0.0,47.0,100.0,0.0
0.0,47.0,100.0,0.0
0.0,60.0,100.0,64.0
0.0,48.0,100.0,0.0
0.0,48.0,100.0,0.0
0.0,42.0,100.0,0.0
0.0,60.0,100.0,128.0
0.0,48.0,100.0,0.0
0.0,48.0,100.0,0.0
0.0,40.0,100.0,128.0
0.0,59.0,100.0,288.0
0.0,47.0,100.0,0.0
0.0,47.0,100.0,0.0
0.0,60.0,100.0,64.0
0.0,48.0,100.0,0.0
0.0,48.0,100.0,0.0
0.0,59.0,100.0,64.0
0.0,47.0,100.0,0.0
0.0,47.0,100.0,0.0
0.0,42.0,100.0,0.0
0.0,55.0,100.0,128.0
0.0,43.0,100.0,0.0
0.0,43.0,100.0,0.0
0.0,40.0,100.0,0.0
0.0,57.0,100.0,128.0
0.0,45.0,100.0,0.0
0.0,45.0,100.0,0.0
0.0,36.0,100.0,0.0
0.0,57.0,100.0,512.0
0.0,45.0,100.0,0.0
0.0,45.0,100.0,0.0
0.0,36.0,100.0,0.0
0.0,57.0,100.0,64.0
0.0,45.0,100.0,0.0
0.0,45.0,100.0,0.0
0.0,57.0,100.0,64.0
0.0,45.0,100.0,0.0
0.0,45.0,100.0,0.0
0.0,40.0,100.0,0.0
0.0,57.0,100.0,64.0
0.0,45.0,100.0,0.0
0.0,45.0,100.0,0.0
0.0,55.0,100.0,64.0
0.0,43.0,100.0,0.0
0.0,43.0,100.0,0.0
0.0,57.0,100.0,64.0
0.0,45.0,100.0,0.0
0.0,45.0,100.0,0.0
0.0,59.0,100.0,64.0
0.0,47.0,100.0,0.0
0.0,47.0,100.0,0.0
0.0,42.0,100.0,0.0
0.0,59.0,100.0,128.0
0.0,47.0,100.0,0.0
0.0,47.0,100.0,0.0
0.0,40.0,100.0,128.0
0.0,57.0,100.0,288.0
0.0,45.0,100.0,0.0
0.0,45.0,100.0,0.0
0.0,59.0,100.0,64.0
0.0,47.0,100.0,0.0
0.0,47.0,100.0,0.0
0.0,60.0,100.0,64.0
0.0,48.0,100.0,0.0
0.0,48.0,100.0,0.0
0.0,42.0,100.0,0.0
0.0,60.0,100.0,128.0
0.0,48.0,100.0,0.0
0.0,48.0,100.0,0.0
0.0,40.0,100.0,128.0
0.0,59.0,100.0,288.0
0.0,47.0,100.0,0.0
0.0,47.0,100.0,0.0
0.0,60.0,100.0,64.0
0.0,48.0,100.0,0.0
0.0,48.0,100.0,0.0
0.0,59.0,100.0,64.0
0.0,47.0,100.0,0.0
0.0,47.0,100.0,0.0
0.0,42.0,100.0,0.0
0.0,55.0,100.0,128.0
0.0,43.0,100.0,0.0
0.0,43.0,100.0,0.0
0.0,40.0,100.0,0.0
0.0,57.0,100.0,128.0
0.0,45.0,100.0,0.0
0.0,45.0,100.0,0.0
0.0,36.0,100.0,0.0
0.0,57.0,100.0,512.0
0.0,45.0,100.0,0.0
0.0,45.0,100.0,0.0
0.0,36.0,100.0,0.0
0.0,57.0,100.0,64.0
0.0,45.0,100.0,0.0
0.0,45.0,100.0,0.0
0.0,57.0,100.0,64.0
0.0,45.0,100.0,0.0
0.0,45.0,100.0,0.0
0.0,40.0,100.0,0.0
0.0,57.0,100.0,64.0
0.0,45.0,100.0,0.0
0.0,45.0,100.0,0.0
0.0,55.0,100.0,64.0
0.0,43.0,100.0,0.0
0.0,43.0,100.0,0.0
0.0,57.0,100.0,64.0
0.0,45.0,100.0,0.0
0.0,45.0,100.0,0.0
0.0,59.0,100.0,64.0
0.0,47.0,100.0,0.0
0.0,47.0,100.0,0.0
0.0,42.0,100.0,0.0
0.0,59.0,100.0,128.0
0.0,47.0,100.0,0.0
0.0,47.0,100.0,0.0
0.0,40.0,100.0,128.0
0.0,57.0,100.0,288.0
0.0,45.0,100.0,0.0
0.0,45.0,100.0,0.0
0.0,59.0,100.0,64.0
0.0,47.0,100.0,0.0
0.0,47.0,100.0,0.0
0.0,60.0,100.0,64.0
0.0,48.0,100.0,0.0
0.0,48.0,100.0,0.0
0.0,42.0,100.0,0.0
0.0,60.0,100.0,128.0
0.0,48.0,100.0,0.0
0.0,48.0,100.0,0.0
0.0,40.0,100.0,128.0
0.0,59.0,100.0,288.0
0.0,47.0,100.0,0.0
0.0,47.0,100.0,0.0
0.0,60.0,100.0,64.0
0.0,48.0,100.0,0.0
0.0,48.0,100.0,0.0
0.0,59.0,100.0,64.0
0.0,47.0,100.0,0.0
0.0,47.0,100.0,0.0
0.0,42.0,100.0,0.0
0.0,55.0,100.0,128.0
0.0,43.0,100.0,0.0
0.0,43.0,100.0,0.0
0.0,40.0,100.0,0.0
0.0,57.0,100.0,128.0
0.0,45.0,100.0,0.0
0.0,45.0,100.0,0.0
0.0,36.0,100.0,0.0
0.0,57.0,100.0,512.0
0.0,45.0,100.0,0.0
0.0,45.0,100.0,0.0
0.0,36.0,100.0,0.0
0.0,57.0,100.0,64.0
0.0,45.0,100.0,0.0
0.0,45.0,100.0,0.0
0.0,57.0,100.0,64.0
0.0,45.0,100.0,0.0
0.0,45.0,100.0,0.0
0.0,40.0,100.0,0.0
0.0,57.0,100.0,64.0
0.0,45.0,100.0,0.0
0.0,45.0,100.0,0.0
0.0,55.0,100.0,64.0
0.0,43.0,100.0,0.0
0.0,43.0,100.0,0.0
0.0,57.0,100.0,64.0
0.0,45.0,100.0,0.0
0.0,45.0,100.0,0.0
0.0,59.0,100.0,64.0
0.0,47.0,100.0,0.0
0.0,47.0,100.0,0.0
0.0,42.0,100.0,0.0
0.0,59.0,100.0,128.0
0.0,47.0,100.0,0.0
0.0,47.0,100.0,0.0
0.0,40.0,100.0,128.0
0.0,57.0,100.0,288.0
0.0,45.0,100.0,0.0
0.0,45.0,100.0,0.0
0.0,59.0,100.0,64.0
0.0,47.0,100.0,0.0
0.0,47.0,100.0,0.0
0.0,60.0,100.0,64.0
0.0,48.0,100.0,0.0
0.0,48.0,100.0,0.0
0.0,42.0,100.0,0.0
0.0,60.0,100.0,128.0
0.0,48.0,100.0,0.0
0.0,48.0,100.0,0.0
0.0,40.0,100.0,128.0
0.0,59.0,100.0,288.0
0.0,47.0,100.0,0.0
0.0,47.0,100.0,0.0
0.0,60.0,100.0,64.0
0.0,48.0,100.0,0.0
0.0,48.0,100.0,0.0
0.0,59.0,100.0,64.0
0.0,47.0,100.0,0.0
0.0,47.0,100.0,0.0
0.0,42.0,100.0,0.0
0.0,40.0,100.0,64.0
0.0,55.0,100.0,64.0
0.0,43.0,100.0,0.0
0.0,43.0,100.0,0.0
0.0,40.0,100.0,0.0
0.0,40.0,100.0,64.0
0.0,40.0,100.0,0.0
0.0,40.0,100.0,64.0
0.0,57.0,100.0,64.0
0.0,45.0,100.0,0.0
0.0,45.0,100.0,0.0
0.0,42.0,100.0,0.0
0.0,57.0,100.0,512.0
0.0,45.0,100.0,0.0
0.0,45.0,100.0,0.0
0.0,36.0,100.0,0.0
0.0,57.0,100.0,64.0
0.0,45.0,100.0,0.0
0.0,45.0,100.0,0.0
0.0,57.0,100.0,64.0
0.0,45.0,100.0,0.0
0.0,45.0,100.0,0.0
0.0,40.0,100.0,0.0
0.0,57.0,100.0,64.0
0.0,45.0,100.0,0.0
0.0,45.0,100.0,0.0
0.0,55.0,100.0,64.0
0.0,43.0,100.0,0.0
0.0,43.0,100.0,0.0
0.0,57.0,100.0,64.0
0.0,45.0,100.0,0.0
0.0,45.0,100.0,0.0
0.0,59.0,100.0,64.0
0.0,47.0,100.0,0.0
0.0,47.0,100.0,0.0
0.0,42.0,100.0,0.0
0.0,59.0,100.0,128.0
0.0,47.0,100.0,0.0
0.0,47.0,100.0,0.0
0.0,40.0,100.0,128.0
0.0,57.0,100.0,288.0
0.0,45.0,100.0,0.0
0.0,45.0,100.0,0.0
0.0,59.0,100.0,64.0
0.0,47.0,100.0,0.0
0.0,47.0,100.0,0.0
0.0,60.0,100.0,64.0
0.0,48.0,100.0,0.0
0.0,48.0,100.0,0.0
0.0,42.0,100.0,0.0
0.0,60.0,100.0,128.0
0.0,48.0,100.0,0.0
0.0,48.0,100.0,0.0
0.0,40.0,100.0,128.0
0.0,59.0,100.0,288.0
0.0,47.0,100.0,0.0
0.0,47.0,100.0,0.0
0.0,60.0,100.0,64.0
0.0,48.0,100.0,0.0
0.0,48.0,100.0,0.0
0.0,59.0,100.0,64.0
0.0,47.0,100.0,0.0
0.0,47.0,100.0,0.0
0.0,42.0,100.0,0.0
0.0,55.0,100.0,128.0
0.0,43.0,100.0,0.0
0.0,43.0,100.0,0.0
0.0,40.0,100.0,0.0
0.0,57.0,100.0,128.0
0.0,45.0,100.0,0.0
0.0,45.0,100.0,0.0
0.0,36.0,100.0,0.0
0.0,57.0,100.0,512.0
0.0,45.0,100.0,0.0
0.0,45.0,100.0,0.0
0.0,36.0,100.0,0.0
0.0,57.0,100.0,64.0
0.0,45.0,100.0,0.0
0.0,45.0,100.0,0.0
0.0,57.0,100.0,64.0
0.0,45.0,100.0,0.0
0.0,45.0,100.0,0.0
0.0,40.0,100.0,0.0
0.0,57.0,100.0,64.0
0.0,45.0,100.0,0.0
0.0,45.0,100.0,0.0
0.0,55.0,100.0,64.0
0.0,43.0,100.0,0.0
0.0,43.0,100.0,0.0
0.0,57.0,100.0,64.0
0.0,45.0,100.0,0.0
0.0,45.0,100.0,0.0
0.0,59.0,100.0,64.0
0.0,47.0,100.0,0.0
0.0,47.0,100.0,0.0
0.0,42.0,100.0,0.0
0.0,59.0,100.0,128.0
0.0,47.0,100.0,0.0
0.0,47.0,100.0,0.0
0.0,40.0,100.0,128.0
0.0,57.0,100.0,288.0
0.0,45.0,100.0,0.0
0.0,45.0,100.0,0.0
0.0,59.0,100.0,64.0
0.0,47.0,100.0,0.0
0.0,47.0,100.0,0.0
0.0,60.0,100.0,64.0
0.0,48.0,100.0,0.0
0.0,48.0,100.0,0.0
0.0,42.0,100.0,0.0
0.0,60.0,100.0,128.0
0.0,48.0,100.0,0.0
0.0,48.0,100.0,0.0
0.0,40.0,100.0,128.0
0.0,59.0,100.0,288.0
0.0,47.0,100.0,0.0
0.0,47.0,100.0,0.0
0.0,60.0,100.0,64.0
0.0,48.0,100.0,0.0
0.0,48.0,100.0,0.0
0.0,59.0,100.0,64.0
0.0,47.0,100.0,0.0
0.0,47.0,100.0,0.0
0.0,42.0,100.0,0.0
0.0,55.0,100.0,128.0
0.0,43.0,100.0,0.0
0.0,43.0,100.0,0.0
0.0,40.0,100.0,0.0
0.0,57.0,100.0,128.0
0.0,45.0,100.0,0.0
0.0,45.0,100.0,0.0
0.0,36.0,100.0,0.0
0.0,57.0,100.0,512.0
0.0,45.0,100.0,0.0
0.0,45.0,100.0,0.0
0.0,36.0,100.0,0.0
0.0,57.0,100.0,64.0
0.0,45.0,100.0,0.0
0.0,45.0,100.0,0.0
0.0,57.0,100.0,64.0
0.0,45.0,100.0,0.0
0.0,45.0,100.0,0.0
0.0,40.0,100.0,0.0
0.0,57.0,100.0,64.0
0.0,45.0,100.0,0.0
0.0,45.0,100.0,0.0
0.0,55.0,100.0,64.0
0.0,43.0,100.0,0.0
0.0,43.0,100.0,0.0
0.0,57.0,100.0,64.0
0.0,45.0,100.0,0.0
0.0,45.0,100.0,0.0
0.0,59.0,100.0,64.0
0.0,47.0,100.0,0.0
0.0,47.0,100.0,0.0
0.0,42.0,100.0,0.0
0.0,59.0,100.0,128.0
0.0,47.0,100.0,0.0
0.0,47.0,100.0,0.0
0.0,40.0,100.0,128.0
0.0,57.0,100.0,288.0
0.0,45.0,100.0,0.0
0.0,45.0,100.0,0.0
0.0,59.0,100.0,64.0
0.0,47.0,100.0,0.0
0.0,47.0,100.0,0.0
0.0,60.0,100.0,64.0
0.0,48.0,100.0,0.0
0.0,48.0,100.0,0.0
0.0,42.0,100.0,0.0
0.0,60.0,100.0,128.0
0.0,48.0,100.0,0.0
0.0,48.0,100.0,0.0
0.0,40.0,100.0,128.0
0.0,59.0,100.0,288.0
0.0,47.0,100.0,0.0
0.0,47.0,100.0,0.0
0.0,60.0,100.0,64.0
0.0,48.0,100.0,0.0
0.0,48.0,100.0,0.0
0.0,59.0,100.0,64.0
0.0,47.0,100.0,0.0
0.0,47.0,100.0,0.0
0.0,42.0,100.0,0.0
0.0,55.0,100.0,128.0
0.0,43.0,100.0,0.0
0.0,43.0,100.0,0.0
0.0,40.0,100.0,0.0
0.0,57.0,100.0,128.0
0.0,45.0,100.0,0.0
0.0,45.0,100.0,0.0
0.0,36.0,100.0,0.0
0.0,57.0,100.0,512.0
0.0,45.0,100.0,0.0
0.0,45.0,100.0,0.0
0.0,36.0,100.0,0.0
0.0,57.0,100.0,64.0
0.0,45.0,100.0,0.0
0.0,45.0,100.0,0.0
0.0,57.0,100.0,64.0
0.0,45.0,100.0,0.0
0.0,45.0,100.0,0.0
0.0,40.0,100.0,0.0
0.0,57.0,100.0,64.0
0.0,45.0,100.0,0.0
0.0,45.0,100.0,0.0
0.0,55.0,100.0,64.0
0.0,43.0,100.0,0.0
0.0,43.0,100.0,0.0
0.0,57.0,100.0,64.0
0.0,45.0,100.0,0.0
0.0,45.0,100.0,0.0
0.0,59.0,100.0,64.0
0.0,47.0,100.0,0.0
0.0,47.0,100.0,0.0
0.0,42.0,100.0,0.0
0.0,59.0,100.0,128.0
0.0,47.0,100.0,0.0
0.0,47.0,100.0,0.0
0.0,40.0,100.0,128.0
0.0,57.0,100.0,288.0
0.0,45.0,100.0,0.0
0.0,45.0,100.0,0.0
0.0,59.0,100.0,64.0
0.0,47.0,100.0,0.0
0.0,47.0,100.0,0.0
0.0,60.0,100.0,64.0
0.0,48.0,100.0,0.0
0.0,48.0,100.0,0.0
0.0,42.0,100.0,0.0
0.0,60.0,100.0,128.0
0.0,48.0,100.0,0.0
0.0,48.0,100.0,0.0
0.0,40.0,100.0,128.0
0.0,59.0,100.0,288.0
0.0,47.0,100.0,0.0
0.0,47.0,100.0,0.0
0.0,60.0,100.0,64.0
0.0,48.0,100.0,0.0
0.0,48.0,100.0,0.0
0.0,59.0,100.0,64.0
0.0,47.0,100.0,0.0
0.0,47.0,100.0,0.0
0.0,47.0,100.0,0.0
0.0,40.0,100.0,64.0
0.0,55.0,100.0,64.0
0.0,43.0,100.0,0.0
0.0,43.0,100.0,0.0
0.0,40.0,100.0,0.0
0.0,47.0,100.0,64.0
0.0,40.0,100.0,0.0
0.0,40.0,100.0,64.0
0.0,38.0,100.0,64.0
0.0,45.0,100.0,0.0
0.0,57.0,100.0,0.0
0.0,55.0,100.0,0.0
0.0,47.0,100.0,0.0
0.0,55.0,100.0,640.0
0.0,40.0,100.0,288.0
0.0,55.0,100.0,288.0
0.0,55.0,100.0,288.0
0.0,52.0,100.0,128.0
0.0,55.0,100.0,0.0
0.0,40.0,100.0,128.0
0.0,55.0,100.0,288.0
0.0,55.0,100.0,288.0
0.0,52.0,100.0,128.0
0.0,55.0,100.0,0.0
0.0,40.0,100.0,128.0
0.0,55.0,100.0,288.0
0.0,55.0,100.0,288.0
0.0,43.0,100.0,0.0
0.0,43.0,100.0,0.0
0.0,43.0,100.0,128.0
0.0,55.0,100.0,0.0
0.0,43.0,100.0,0.0
0.0,55.0,100.0,0.0
0.0,38.0,100.0,512.0
0.0,45.0,100.0,0.0
0.0,57.0,100.0,0.0
0.0,55.0,100.0,0.0
0.0,55.0,100.0,256.0
0.0,40.0,100.0,288.0
0.0,55.0,100.0,288.0
0.0,55.0,100.0,288.0
0.0,52.0,100.0,128.0
0.0,55.0,100.0,0.0
0.0,40.0,100.0,128.0
0.0,55.0,100.0,288.0
0.0,55.0,100.0,288.0
0.0,52.0,100.0,128.0
0.0,55.0,100.0,0.0
0.0,40.0,100.0,128.0
0.0,55.0,100.0,288.0
0.0,55.0,100.0,288.0
0.0,43.0,100.0,0.0
0.0,43.0,100.0,0.0
0.0,43.0,100.0,128.0
0.0,55.0,100.0,0.0
0.0,43.0,100.0,0.0
0.0,55.0,100.0,0.0
0.0,38.0,100.0,512.0
0.0,45.0,100.0,0.0
0.0,57.0,100.0,0.0
0.0,55.0,100.0,0.0
0.0,55.0,100.0,256.0
0.0,40.0,100.0,288.0
0.0,55.0,100.0,288.0
0.0,55.0,100.0,288.0
0.0,52.0,100.0,128.0
0.0,55.0,100.0,0.0
0.0,40.0,100.0,128.0
0.0,55.0,100.0,288.0
0.0,55.0,100.0,288.0
0.0,52.0,100.0,128.0
0.0,55.0,100.0,0.0
0.0,40.0,100.0,128.0
0.0,55.0,100.0,288.0
0.0,43.0,100.0,288.0
0.0,36.0,100.0,0.0
0.0,55.0,100.0,0.0
0.0,55.0,100.0,232.0
0.0,38.0,100.0,124.0
0.0,45.0,100.0,0.0
0.0,57.0,100.0,0.0
0.0,55.0,100.0,0.0
0.0,55.0,100.0,256.0
0.0,40.0,100.0,288.0
0.0,55.0,100.0,288.0
0.0,55.0,100.0,288.0
0.0,52.0,100.0,128.0
0.0,55.0,100.0,0.0
0.0,40.0,100.0,128.0
0.0,55.0,100.0,288.0
0.0,55.0,100.0,288.0
0.0,52.0,100.0,128.0
0.0,40.0,100.0,0.0
0.0,40.0,100.0,64.0
0.0,55.0,100.0,64.0
0.0,55.0,100.0,128.0
0.0,40.0,100.0,96.0
0.0,43.0,100.0,64.0
0.0,55.0,100.0,0.0
0.0,43.0,100.0,0.0
0.0,40.0,100.0,0.0
0.0,40.0,100.0,40.0
0.0,52.0,100.0,64.0
0.0,40.0,100.0,0.0
0.0,40.0,100.0,0.0
0.0,40.0,100.0,0.0
0.0,40.0,100.0,64.0
0.0,55.0,100.0,64.0
0.0,43.0,100.0,0.0
0.0,43.0,100.0,0.0
0.0,40.0,100.0,0.0
0.0,40.0,100.0,64.0
0.0,57.0,100.0,64.0
0.0,45.0,100.0,0.0
0.0,45.0,100.0,0.0
0.0,40.0,100.0,0.0
0.0,60.0,100.0,512.0
0.0,48.0,100.0,0.0
0.0,48.0,100.0,0.0
0.0,40.0,100.0,0.0
0.0,60.0,100.0,64.0
0.0,48.0,100.0,0.0
0.0,48.0,100.0,0.0
0.0,60.0,100.0,64.0
0.0,48.0,100.0,0.0
0.0,48.0,100.0,0.0
0.0,40.0,100.0,0.0
0.0,60.0,100.0,64.0
0.0,48.0,100.0,0.0
0.0,48.0,100.0,0.0
0.0,60.0,100.0,64.0
0.0,48.0,100.0,0.0
0.0,48.0,100.0,0.0
0.0,60.0,100.0,64.0
0.0,48.0,100.0,0.0
0.0,48.0,100.0,0.0
0.0,59.0,100.0,64.0
0.0,47.0,100.0,0.0
0.0,47.0,100.0,0.0
0.0,53.0,100.0,0.0
0.0,55.0,100.0,128.0
0.0,43.0,100.0,0.0
0.0,43.0,100.0,0.0
0.0,40.0,100.0,128.0
0.0,59.0,100.0,288.0
0.0,47.0,100.0,0.0
0.0,47.0,100.0,0.0
0.0,60.0,100.0,64.0
0.0,48.0,100.0,0.0
0.0,48.0,100.0,0.0
0.0,59.0,100.0,64.0
0.0,47.0,100.0,0.0
0.0,47.0,100.0,0.0
0.0,53.0,100.0,0.0
0.0,43.0,100.0,128.0
0.0,55.0,100.0,0.0
0.0,43.0,100.0,0.0
0.0,53.0,100.0,0.0
0.0,40.0,100.0,128.0
0.0,55.0,100.0,288.0
0.0,43.0,100.0,0.0
0.0,43.0,100.0,0.0
0.0,55.0,100.0,128.0
0.0,43.0,100.0,0.0
0.0,43.0,100.0,0.0
0.0,53.0,100.0,0.0
0.0,52.0,100.0,128.0
0.0,40.0,100.0,0.0
0.0,40.0,100.0,0.0
0.0,53.0,100.0,0.0
0.0,55.0,100.0,128.0
0.0,43.0,100.0,0.0
0.0,43.0,100.0,0.0
0.0,53.0,100.0,0.0
0.0,40.0,100.0,0.0
0.0,57.0,100.0,128.0
0.0,45.0,100.0,0.0
0.0,45.0,100.0,0.0
0.0,53.0,100.0,0.0
0.0,60.0,100.0,512.0
0.0,48.0,100.0,0.0
0.0,48.0,100.0,0.0
0.0,53.0,100.0,0.0
0.0,60.0,100.0,64.0
0.0,48.0,100.0,0.0
0.0,48.0,100.0,0.0
0.0,60.0,100.0,64.0
0.0,48.0,100.0,0.0
0.0,48.0,100.0,0.0
0.0,53.0,100.0,0.0
0.0,60.0,100.0,64.0
0.0,48.0,100.0,0.0
0.0,48.0,100.0,0.0
0.0,60.0,100.0,64.0
0.0,48.0,100.0,0.0
0.0,48.0,100.0,0.0
0.0,60.0,100.0,64.0
0.0,48.0,100.0,0.0
0.0,48.0,100.0,0.0
0.0,59.0,100.0,64.0
0.0,47.0,100.0,0.0
0.0,47.0,100.0,0.0
0.0,53.0,100.0,0.0
0.0,55.0,100.0,128.0
0.0,43.0,100.0,0.0
0.0,43.0,100.0,0.0
0.0,40.0,100.0,128.0
0.0,59.0,100.0,288.0
0.0,47.0,100.0,0.0
0.0,47.0,100.0,0.0
0.0,60.0,100.0,64.0
0.0,48.0,100.0,0.0
0.0,48.0,100.0,0.0
0.0,59.0,100.0,64.0
0.0,47.0,100.0,0.0
0.0,47.0,100.0,0.0
0.0,53.0,100.0,0.0
0.0,43.0,100.0,128.0
0.0,55.0,100.0,0.0
0.0,43.0,100.0,0.0
0.0,53.0,100.0,0.0
0.0,40.0,100.0,128.0
0.0,55.0,100.0,288.0
0.0,43.0,100.0,0.0
0.0,43.0,100.0,0.0
0.0,55.0,100.0,128.0
0.0,43.0,100.0,0.0
0.0,43.0,100.0,0.0
0.0,53.0,100.0,0.0
0.0,52.0,100.0,128.0
0.0,40.0,100.0,0.0
0.0,40.0,100.0,0.0
0.0,53.0,100.0,0.0
0.0,55.0,100.0,128.0
0.0,43.0,100.0,0.0
0.0,43.0,100.0,0.0
0.0,53.0,100.0,0.0
0.0,40.0,100.0,0.0
0.0,57.0,100.0,128.0
0.0,45.0,100.0,0.0
0.0,45.0,100.0,0.0
0.0,53.0,100.0,0.0
0.0,60.0,100.0,512.0
0.0,48.0,100.0,0.0
0.0,48.0,100.0,0.0
0.0,53.0,100.0,0.0
0.0,60.0,100.0,64.0
0.0,48.0,100.0,0.0
0.0,48.0,100.0,0.0
0.0,60.0,100.0,64.0
0.0,48.0,100.0,0.0
0.0,48.0,100.0,0.0
0.0,53.0,100.0,0.0
0.0,60.0,100.0,64.0
0.0,48.0,100.0,0.0
0.0,48.0,100.0,0.0
0.0,60.0,100.0,64.0
0.0,48.0,100.0,0.0
0.0,48.0,100.0,0.0
0.0,60.0,100.0,64.0
0.0,48.0,100.0,0.0
0.0,48.0,100.0,0.0
0.0,59.0,100.0,64.0
0.0,47.0,100.0,0.0
0.0,47.0,100.0,0.0
0.0,53.0,100.0,0.0
0.0,55.0,100.0,128.0
0.0,43.0,100.0,0.0
0.0,43.0,100.0,0.0
0.0,40.0,100.0,128.0
0.0,59.0,100.0,288.0
0.0,47.0,100.0,0.0
0.0,47.0,100.0,0.0
0.0,60.0,100.0,64.0
0.0,48.0,100.0,0.0
0.0,48.0,100.0,0.0
0.0,59.0,100.0,64.0
0.0,47.0,100.0,0.0
0.0,47.0,100.0,0.0
0.0,53.0,100.0,0.0
0.0,43.0,100.0,128.0
0.0,55.0,100.0,0.0
0.0,43.0,100.0,0.0
0.0,53.0,100.0,0.0
0.0,40.0,100.0,128.0
0.0,55.0,100.0,288.0
0.0,43.0,100.0,0.0
0.0,43.0,100.0,0.0
0.0,55.0,100.0,128.0
0.0,43.0,100.0,0.0
0.0,43.0,100.0,0.0
0.0,53.0,100.0,0.0
0.0,52.0,100.0,128.0
0.0,40.0,100.0,0.0
0.0,40.0,100.0,0.0
0.0,53.0,100.0,0.0
0.0,55.0,100.0,128.0
0.0,43.0,100.0,0.0
0.0,43.0,100.0,0.0
0.0,53.0,100.0,0.0
0.0,40.0,100.0,0.0
0.0,57.0,100.0,128.0
0.0,45.0,100.0,0.0
0.0,45.0,100.0,0.0
0.0,53.0,100.0,0.0
0.0,60.0,100.0,512.0
0.0,48.0,100.0,0.0
0.0,48.0,100.0,0.0
0.0,53.0,100.0,0.0
0.0,60.0,100.0,64.0
0.0,48.0,100.0,0.0
0.0,48.0,100.0,0.0
0.0,60.0,100.0,64.0
0.0,48.0,100.0,0.0
0.0,48.0,100.0,0.0
0.0,53.0,100.0,0.0
0.0,60.0,100.0,64.0
0.0,48.0,100.0,0.0
0.0,48.0,100.0,0.0
0.0,60.0,100.0,64.0
0.0,48.0,100.0,0.0
0.0,48.0,100.0,0.0
0.0,60.0,100.0,64.0
0.0,48.0,100.0,0.0
0.0,48.0,100.0,0.0
0.0,59.0,100.0,64.0
0.0,47.0,100.0,0.0
0.0,47.0,100.0,0.0
0.0,53.0,100.0,0.0
0.0,55.0,100.0,128.0
0.0,43.0,100.0,0.0
0.0,43.0,100.0,0.0
0.0,40.0,100.0,128.0
0.0,59.0,100.0,288.0
0.0,47.0,100.0,0.0
0.0,47.0,100.0,0.0
0.0,60.0,100.0,64.0
0.0,48.0,100.0,0.0
0.0,48.0,100.0,0.0
0.0,59.0,100.0,64.0
0.0,47.0,100.0,0.0
0.0,47.0,100.0,0.0
0.0,53.0,100.0,0.0
0.0,43.0,100.0,128.0
0.0,55.0,100.0,0.0
0.0,43.0,100.0,0.0
0.0,53.0,100.0,0.0
0.0,40.0,100.0,128.0
0.0,55.0,100.0,288.0
0.0,43.0,100.0,0.0
0.0,43.0,100.0,0.0
0.0,55.0,100.0,128.0
0.0,43.0,100.0,0.0
0.0,43.0,100.0,0.0
0.0,47.0,100.0,0.0
0.0,40.0,100.0,64.0
0.0,52.0,100.0,64.0
0.0,40.0,100.0,0.0
0.0,40.0,100.0,0.0
0.0,40.0,100.0,0.0
0.0,47.0,100.0,64.0
0.0,55.0,100.0,64.0
0.0,43.0,100.0,0.0
0.0,43.0,100.0,0.0
0.0,40.0,100.0,0.0
0.0,40.0,100.0,64.0
0.0,38.0,100.0,64.0
0.0,45.0,100.0,0.0
0.0,57.0,100.0,0.0
0.0,55.0,100.0,0.0
0.0,47.0,100.0,0.0
0.0,55.0,100.0,640.0
0.0,40.0,100.0,288.0
0.0,55.0,100.0,288.0
0.0,55.0,100.0,288.0
0.0,52.0,100.0,128.0
0.0,55.0,100.0,0.0
0.0,40.0,100.0,128.0
0.0,55.0,100.0,288.0
0.0,55.0,100.0,288.0
0.0,52.0,100.0,128.0
0.0,55.0,100.0,0.0
0.0,40.0,100.0,128.0
0.0,55.0,100.0,288.0
0.0,55.0,100.0,288.0
0.0,43.0,100.0,0.0
0.0,43.0,100.0,0.0
0.0,43.0,100.0,128.0
0.0,55.0,100.0,0.0
0.0,43.0,100.0,0.0
0.0,55.0,100.0,0.0
0.0,38.0,100.0,512.0
0.0,45.0,100.0,0.0
0.0,57.0,100.0,0.0
0.0,55.0,100.0,0.0
0.0,55.0,100.0,256.0
0.0,40.0,100.0,288.0
0.0,55.0,100.0,288.0
0.0,55.0,100.0,288.0
0.0,52.0,100.0,128.0
0.0,55.0,100.0,0.0
0.0,40.0,100.0,128.0
0.0,55.0,100.0,288.0
0.0,55.0,100.0,288.0
0.0,52.0,100.0,128.0
0.0,55.0,100.0,0.0
0.0,0.0,0.0,0.0
0.0,0.0,0.0,0.0
0.0,0.0,0.0,0.0
0.0,0.0,0.0,0.0
0.0,0.0,0.0,0.0
0.0,0.0,0.0,0.0
0.0,0.0,0.0,0.0
0.0,0.0,0.0,0.0
0.0,0.0,0.0,0.0
0.0,0.0,0.0,0.0
0.0,0.0,0.0,0.0
0.0,0.0,0.0,0.0
0.0,0.0,0.0,0.0
0.0,0.0,0.0,0.0
0.0,0.0,0.0,0.0
0.0,0.0,0.0,0.0
0.0,0.0,0.0,0.0
0.0,0.0,0.0,0.0
0.0,0.0,0.0,0.0
0.0,0.0,0.0,0.0
0.0,0.0,0.0,0.0
0.0,0.0,0.0,0.0
0.0,0.0,0.0,0.0
0.0,0.0,0.0,0.0
0.0,0.0,0.0,0.0
0.0,0.0,0.0,0.0
0.0,0.0,0.0,0.0
0.0,0.0,0.0,0.0
0.0,0.0,0.0,0.0
0.0,0.0,0.0,0.0
0.0,0.0,0.0,0.0
0.0,0.0,0.0,0.0
0.0,0.0,0.0,0.0
0.0,0.0,0.0,0.0
0.0,0.0,0.0,0.0
0.0,0.0,0.0,0.0
0.0,0.0,0.0,0.0
0.0,0.0,0.0,0.0
0.0,0.0,0.0,0.0
0.0,0.0,0.0,0.0
0.0,0.0,0.0,0.0
0.0,0.0,0.0,0.0
0.0,0.0,0.0,0.0
0.0,0.0,0.0,0.0
0.0,0.0,0.0,0.0
0.0,0.0,0.0,0.0
0.0,0.0,0.0,0.0
0.0,0.0,0.0,0.0
0.0,0.0,0.0,0.0
0.0,0.0,0.0,0.0
0.0,0.0,0.0,0.0
0.0,0.0,0.0,0.0
0.0,0.0,0.0,0.0
0.0,0.0,0.0,0.0
0.0,0.0,0.0,0.0
0.0,0.0,0.0,0.0
0.0,0.0,0.0,0.0
0.0,0.0,0.0,0.0
0.0,0.0,0.0,0.0
0.0,0.0,0.0,0.0
0.0,0.0,0.0,0.0
0.0,0.0,0.0,0.0
0.0,0.0,0.0,0.0
0.0,0.0,0.0,0.0
0.0,0.0,0.0,0.0
0.0,0.0,0.0,0.0
0.0,0.0,0.0,0.0
0.0,0.0,0.0,0.0
0.0,0.0,0.0,0.0
0.0,0.0,0.0,0.0
0.0,0.0,0.0,0.0
0.0,0.0,0.0,0.0
0.0,0.0,0.0,0.0
0.0,0.0,0.0,0.0
0.0,0.0,0.0,0.0
0.0,0.0,0.0,0.0
0.0,0.0,0.0,0.0
0.0,0.0,0.0,0.0
0.0,0.0,0.0,0.0
0.0,0.0,0.0,0.0
0.0,0.0,0.0,0.0
0.0,0.0,0.0,0.0
0.0,0.0,0.0,0.0
0.0,0.0,0.0,0.0
0.0,0.0,0.0,0.0
0.0,0.0,0.0,0.0
0.0,0.0,0.0,0.0
0.0,0.0,0.0,0.0
0.0,0.0,0.0,0.0
0.0,0.0,0.0,0.0
0.0,0.0,0.0,0.0
0.0,0.0,0.0,0.0
0.0,0.0,0.0,0.0
0.0,0.0,0.0,0.0
0.0,0.0,0.0,0.0
0.0,0.0,0.0,0.0
0.0,0.0,0.0,0.0
0.0,0.0,0.0,0.0
0.0,0.0,0.0,0.0
0.0,0.0,0.0,0.0
0.0,0.0,0.0,0.0
0.0,0.0,0.0,0.0
0.0,0.0,0.0,0.0
0.0,0.0,0.0,0.0
0.0,0.0,0.0,0.0
0.0,0.0,0.0,0.0
0.0,0.0,0.0,0.0
0.0,0.0,0.0,0.0
0.0,0.0,0.0,0.0
0.0,0.0,0.0,0.0
0.0,0.0,0.0,0.0
0.0,0.0,0.0,0.0
0.0,0.0,0.0,0.0
