track,note,velocity,time
1,33,81,2652
1,31,79,1532
1,29,76,1520
1,28,85,1512
1,26,75,1484
1,26,70,160
1,28,90,1544
1,28,102,160
1,28,91,72
1,32,81,192
1,33,79,136
1,31,66,1476
1,29,88,1516
1,28,94,1520
1,26,102,1392
1,26,91,112
1,28,78,1536
1,32,79,1032
1,33,73,300
1,33,70,200
1,33,90,44
1,31,75,384
1,31,73,80
1,29,87,384
1,29,84,116
1,28,85,384
1,28,91,124
1,26,93,388
1,26,90,112
1,26,79,76
1,26,87,124
1,28,85,384
1,28,75,84
1,28,93,120
1,32,82,1152
1,33,90,356
1,33,64,108
1,31,72,388
1,31,85,132
1,29,72,384
1,29,82,68
1,28,79,380
1,28,90,120
1,26,85,388
1,26,88,36
1,26,84,164
1,26,78,72
1,28,79,388
1,28,85,92
1,32,75,196
1,33,67,152
2,57,32,2544
2,60,32,44
2,64,32,4
2,57,33,292
2,60,33,48
2,64,33,28
2,55,34,348
2,59,34,48
2,62,34,28
2,55,35,300
2,59,35,12
2,62,35,48
2,53,31,300
2,57,33,48
2,60,32,16
2,53,35,332
2,57,34,48
2,60,33,24
2,52,33,288
2,57,32,48
2,60,34,24
2,52,30,272
2,57,30,48
2,60,31,40
2,50,33,296
2,53,36,44
2,57,28,40
2,50,28,224
2,53,31,56
2,57,41,40
2,50,29,232
2,53,33,68
2,57,34,24
2,50,23,184
2,53,36,48
2,57,34,48
2,52,23,268
2,56,27,48
2,59,31,48
2,52,29,284
2,56,36,48
2,59,28,16
2,52,30,276
2,56,33,24
2,62,34,36
2,52,22,256
2,56,33,48
2,62,36,24
2,57,29,336
2,60,13,44
2,64,39,48
2,57,29,296
2,60,29,44
2,64,28,48
2,55,22,292
2,59,32,52
2,62,31,36
2,55,29,244
2,59,27,44
2,62,31,44
2,53,30,272
2,57,30,48
2,60,31,12
2,53,30,240
2,57,18,48
2,60,30,4
2,52,28,304
2,57,30,44
2,60,33,52
2,52,37,284
2,57,31,48
2,60,28,4
2,50,36,332
2,53,29,48
2,57,34,8
2,50,15,304
2,53,24,48
2,57,23,8
2,50,20,252
2,53,29,72
2,57,34,40
2,50,22,292
2,53,27,48
2,57,38,36
2,52,29,340
2,56,40,48
2,62,46,40
2,52,31,240
2,56,33,48
2,62,36,20
2,57,35,364
2,60,35,48
2,64,35,44
2,57,29,328
2,60,28,32
2,64,28,48
2,57,32,8
2,60,32,44
2,64,32,12
2,57,33,292
2,60,33,48
2,64,33,28
2,55,34,348
2,59,34,48
2,62,34,36
2,55,35,300
2,59,35,20
2,62,35,48
2,53,31,296
2,57,33,48
2,60,32,20
2,53,35,328
2,57,34,48
2,60,33,28
2,52,33,264
2,57,32,48
2,60,34,8
2,52,29,288
2,57,37,48
2,60,29,40
2,50,33,296
2,53,36,44
2,57,28,40
2,50,28,240
2,53,31,52
2,57,41,8
2,50,29,212
2,53,33,68
2,57,34,28
2,50,23,200
2,53,36,48
2,57,34,48
2,52,23,264
2,56,27,48
2,59,31,48
2,52,29,264
2,56,36,48
2,59,28,12
2,52,30,276
2,56,33,24
2,62,34,32
2,52,22,252
2,56,33,48
2,62,36,16
2,57,29,336
2,60,27,44
2,64,28,48
2,57,24,296
2,60,24,44
2,64,24,48
2,55,22,292
2,59,35,52
2,62,44,28
2,55,29,244
2,59,27,44
2,62,46,36
2,53,34,288
2,57,32,48
2,60,34,20
2,53,30,272
2,57,24,48
2,60,30,28
2,52,31,304
2,57,29,44
2,60,27,4
2,52,37,284
2,57,31,48
2,60,27,28
2,50,36,324
2,53,37,48
2,57,37,24
2,50,38,304
2,53,37,48
2,57,36,24
2,50,37,252
2,53,40,12
2,57,42,44
2,50,21,292
2,53,21,48
2,57,21,52
2,52,22,340
2,56,22,8
2,62,22,48
2,52,23,240
2,56,23,48
2,62,23,36
2,57,23,364
2,60,23,12
2,64,23,48
2,57,24,328
2,60,24,48
2,64,24,48
3,69,39,3008
3,69,55,156
3,72,54,384
3,74,66,324
3,72,58,176
3,72,64,152
3,71,53,188
3,71,59,84
3,71,64,116
3,69,51,156
3,69,56,152
3,71,65,236
3,69,62,364
3,67,61,112
3,64,38,196
3,64,45,204
3,64,40,96
3,65,57,200
3,65,56,144
3,69,47,4
3,69,58,124
3,72,35,4
3,72,40,132
3,72,45,208
3,72,59,80
3,72,58,84
3,71,53,204
3,69,52,4
3,71,54,216
3,72,47,364
3,71,58,88
3,69,49,28
3,71,57,132
3,72,49,220
3,72,63,100
3,72,46,20
3,72,68,112
3,74,65,384
3,72,68,224
3,71,60,8
3,69,49,684
3,69,59,124
3,69,54,160
3,72,64,388
3,69,48,336
3,67,50,44
3,64,31,0
3,64,44,204
3,65,45,380
3,65,49,108
3,69,55,12
3,69,38,84
3,72,42,48
3,72,51,156
3,72,59,228
3,72,55,92
3,72,52,108
3,71,60,204
3,71,61,176
3,69,42,76
3,68,51,116
3,69,42,380
3,69,49,264
3,69,54,168
3,72,52,236
3,74,63,356
3,72,55,596
3,71,48,256
3,71,45,92
3,71,59,76
3,69,44,0
3,69,46,228
3,71,60,236
3,69,48,36
3,67,44,40
3,64,45,204
3,64,34,180
3,65,46,12
3,65,57,144
3,69,31,20
3,69,50,116
3,72,44,4
3,72,44,180
3,72,49,332
3,71,54,236
3,69,48,20
3,71,56,220
3,72,47,24
3,71,58,84
3,69,55,40
3,71,56,124
3,72,47,304
3,72,40,100
3,72,55,20
3,72,65,128
3,74,64,392
3,72,63,244
3,71,58,8
3,71,54,160
3,69,47,0
3,69,45,112
3,69,51,148
3,72,66,16
3,69,51,388
3,67,45,16
3,64,30,12
3,64,42,112
3,65,55,12
3,65,67,140
3,69,54,388
3,69,59,116
3,72,44,24
3,72,46,184
3,72,52,288
3,71,44,272
3,71,57,172
3,69,45,68
3,68,43,168
3,69,41,348
4,64,55,2592
4,57,55,184
4,60,68,144
4,57,55,156
4,64,53,196
4,57,61,176
4,60,71,104
4,57,55,164
4,62,68,180
4,55,63,156
4,59,60,84
4,55,41,20
4,62,58,0
4,55,55,188
4,59,66,76
4,55,50,156
4,60,73,180
4,53,57,172
4,57,71,148
4,53,53,12
4,60,60,188
4,53,56,188
4,57,63,140
4,53,57,172
4,60,63,192
4,52,55,192
4,57,61,112
4,52,41,188
4,60,62,180
4,52,40,196
4,57,56,104
4,52,56,16
4,57,67,188
4,50,66,160
4,53,66,116
4,50,66,140
4,57,66,180
4,50,53,168
4,53,57,132
4,50,53,172
4,57,65,168
4,50,52,196
4,53,58,60
4,50,50,140
4,57,57,184
4,50,56,160
4,53,62,64
4,50,65,4
4,60,76,208
4,52,70,168
4,56,57,60
4,52,60,180
4,59,72,164
4,52,65,164
4,56,53,16
4,52,63,176
4,62,61,0
4,52,52,200
4,56,52,92
4,52,53,164
4,62,70,116
4,52,72,184
4,60,92,0
4,59,65,160
4,60,85,192
4,57,55,36
4,64,62,188
4,57,61,172
4,60,71,92
4,57,62,172
4,64,58,168
4,57,61,168
4,59,60,168
4,55,71,164
4,62,58,168
4,55,45,164
4,59,58,48
4,55,43,8
4,62,67,192
4,55,56,188
4,57,63,180
4,53,56,8
4,60,63,196
4,53,60,176
4,57,66,176
4,53,56,168
4,60,68,180
4,53,65,172
4,57,73,164
4,52,55,4
4,60,55,192
4,52,42,156
4,57,68,172
4,52,53,152
4,60,63,180
4,52,50,176
4,57,71,188
4,50,67,128
4,53,56,16
4,50,48,168
4,57,61,180
4,50,56,180
4,53,63,168
4,50,58,156
4,57,63,176
4,50,53,176
4,53,60,68
4,50,52,128
4,57,60,176
4,50,67,160
4,53,68,28
4,50,75,8
4,62,82,196
4,52,72,124
4,56,53,112
4,52,53,140
4,62,65,132
4,52,65,184
4,56,35,104
4,52,53,176
4,60,75,124
4,57,66,16
4,64,66,192
4,57,56,164
4,60,58,28
4,57,52,8
4,69,73,204
4,64,71,180
4,60,56,184
4,57,53,0
4,64,48,200
4,57,53,180
4,60,63,80
4,57,56,164
4,69,73,164
4,57,56,4
4,59,57,196
4,55,61,156
4,62,62,160
4,55,47,168
4,59,66,120
4,55,50,12
4,67,80,192
4,55,52,180
4,57,61,168
4,53,63,160
4,60,63,184
4,53,47,188
4,57,58,136
4,53,53,148
4,65,68,8
4,53,58,180
4,57,61,140
4,52,75,0
4,60,76,196
4,52,53,144
4,57,67,176
4,52,50,176
4,64,81,4
4,52,66,12
4,53,60,196
4,50,65,168
4,57,60,180
4,50,56,168
4,53,58,12
4,50,48,184
4,62,81,16
4,50,65,192
4,53,57,184
4,50,63,144
4,57,75,156
4,50,56,156
4,53,66,144
4,50,66,176
4,62,72,192
4,50,60,144
4,56,52,36
4,52,60,176
4,59,68,56
4,52,63,0
4,56,82,56
4,52,67,188
4,64,61,160
4,52,61,0
4,56,47,192
4,52,58,176
4,59,75,176
4,52,62,180
4,56,47,0
4,52,71,184
4,62,73,88
4,60,68,0
4,59,55,52
4,60,90,96
4,57,55,12
4,64,53,12
4,57,51,0
4,60,65,28
4,57,52,0
4,64,63,188
4,57,47,24
4,59,66,212
4,55,58,180
4,62,57,168
4,55,56,172
4,59,66,128
4,55,60,180
4,62,61,4
4,55,48,196
4,57,67,0
4,53,58,192
4,60,65,184
4,53,53,184
4,57,67,168
4,53,35,0
4,60,65,16
4,53,55,192
4,57,73,184
4,52,65,168
4,60,63,172
4,52,50,184
4,57,63,36
4,52,60,148
4,60,65,192
4,52,53,188
4,57,58,156
4,50,66,140
4,53,66,48
4,50,51,176
4,57,66,164
4,50,58,184
4,53,62,68
4,50,51,176
4,57,67,188
4,50,61,188
4,53,63,160
4,50,61,164
4,57,75,172
4,50,60,12
4,59,77,180
4,60,70,144
4,56,56,160
4,52,56,156
4,62,61,4
4,52,55,192
4,56,50,16
4,52,70,180
4,62,75,104
4,60,80,136
4,59,82,76
4,60,85,80
4,57,73,40
4,64,77,24
4,57,81,8
4,69,85,192
5,69,38,2572
5,57,64,48
5,71,40,1428
5,59,50,4
5,72,48,1456
5,60,52,36
5,76,36,1504
5,57,63,4
5,77,38,1492
5,53,53,12
5,57,64,816
5,81,40,680
5,60,50,12
5,59,63,1464
5,80,46,12
5,56,67,8
5,83,49,352
5,86,46,332
5,76,43,336
5,57,68,4
5,81,40,8
5,79,43,1452
5,59,61,8
5,77,40,1408
5,57,73,16
5,76,33,1548
5,53,67,12
5,77,35,8
5,57,64,1488
5,81,35,4
5,80,41,16
5,56,64,20
5,81,43,1100
5,83,46,104
5,81,40,124
5,57,58,4
5,88,46,1108
5,84,43,84
5,57,73,36
5,59,63,16
5,83,43,16
5,81,43,1488
5,60,62,0
5,76,53,2556
5,62,67,12
5,64,64,176
5,77,49,164
5,62,67,36
5,81,49,1460
5,65,61,28
5,69,69,0
5,80,46,348
5,68,62,24
5,83,53,660
5,86,59,136
5,72,69,12
5,71,62,80
5,69,64,96
5,71,66,0
5,84,51,680
5,72,69,72
5,83,57,60
5,81,51,148
5,69,66,0
5,84,52,0
5,79,52,4
5,67,58,8
5,83,51,1072
5,77,52,352
5,69,53,20
5,81,50,656
5,76,36,704
5,81,49,1036
5,77,50,68
5,65,67,36
5,81,57,704
5,69,62,12
5,84,53,344
5,72,61,8
5,69,55,12
5,88,43,368
5,68,56,52
5,86,51,872
5,84,46,144
5,80,46,128
5,81,40,56
5,69,53,4
6,81,50,2932
6,81,60,84
6,84,64,380
6,86,62,340
6,84,59,332
6,84,60,92
6,83,59,384
6,83,72,68
6,83,60,76
6,81,53,384
6,81,52,144
6,83,55,388
6,81,62,316
6,79,62,148
6,76,51,168
6,76,58,120
6,76,62,100
6,77,64,200
6,77,60,88
6,81,72,384
6,81,70,72
6,84,62,384
6,84,66,36
6,84,74,136
6,84,72,80
6,84,63,44
6,83,63,388
6,81,61,312
6,83,68,364
6,84,64,364
6,83,74,120
6,81,61,4
6,83,68,24
6,84,57,412
6,84,55,64
6,84,55,76
6,84,60,76
6,86,61,384
6,84,60,368
6,83,64,308
6,81,54,748
6,81,61,68
6,81,68,100
6,84,64,384
6,81,66,364
6,79,56,168
6,76,44,152
6,76,57,104
6,77,57,384
6,77,57,76
6,81,72,384
6,81,62,64
6,84,70,384
6,84,61,28
6,84,64,200
6,84,61,80
6,84,61,40
6,83,60,388
6,83,64,60
6,81,61,184
6,80,55,160
6,81,55,376
6,81,63,536
6,81,59,96
6,76,49,0
6,84,54,0
6,79,38,8
6,86,60,0
6,84,68,388
6,84,59,80
6,79,54,0
6,83,60,388
6,83,57,80
6,83,48,48
6,77,52,0
6,81,61,380
6,83,60,464
6,81,74,348
6,76,46,0
6,79,66,156
6,76,51,108
6,76,66,88
6,74,42,4
6,77,60,0
6,77,63,76
6,77,59,120
6,81,68,4
6,81,70,24
6,81,63,104
6,84,62,0
6,81,61,28
6,84,74,4
6,80,51,4
6,84,54,0
6,83,60,384
6,81,51,108
6,80,57,4
6,83,60,332
6,80,49,80
6,84,64,0
6,83,70,104
6,81,61,116
6,83,70,88
6,81,70,684
6,80,59,8
6,81,66,196
6,84,63,300
6,84,57,60
6,84,72,32
6,81,57,4
6,84,68,116
6,86,60,380
6,79,43,0
6,84,68,368
6,83,58,312
6,83,62,56
6,77,52,88
6,83,70,0
6,81,60,12
6,81,76,48
6,77,55,0
6,84,63,384
6,81,68,132
6,76,53,0
6,79,76,144
6,76,55,96
6,76,70,64
6,74,54,384
6,77,54,0
6,77,49,56
6,77,51,28
6,81,57,4
6,81,52,44
6,84,56,104
6,81,62,4
6,84,56,64
6,80,55,1152
6,84,52,0
6,83,29,376
6,83,29,156
6,81,63,0
6,80,57,156
6,76,42,4
6,81,61,0
7,36,53,2492
7,42,51,0
7,42,38,384
7,44,64,376
7,42,53,372
7,36,71,388
7,42,73,0
7,42,64,376
7,44,71,384
7,42,69,376
7,36,45,188
7,36,73,192
7,42,87,0
7,42,73,376
7,44,82,380
7,42,79,380
7,36,69,380
7,42,79,0
7,42,82,376
7,44,67,380
7,42,82,380
7,36,50,188
7,42,82,188
7,36,67,0
7,42,79,388
7,44,66,380
7,42,79,376
7,36,45,188
7,42,82,188
7,36,66,0
7,42,82,380
7,44,82,380
7,42,87,384
7,36,50,184
7,36,73,188
7,42,96,0
7,42,87,376
7,44,71,380
7,42,73,380
7,42,87,380
7,36,79,0
7,42,82,380
7,46,73,384
7,44,64,380
7,42,61,188
7,36,73,192
7,42,69,0
7,42,69,384
7,36,56,184
7,37,76,184
7,44,63,0
7,42,69,384
7,36,24,184
7,36,67,188
7,42,76,0
7,42,64,376
7,36,60,184
7,37,79,192
7,44,68,0
7,42,76,380
7,36,82,380
7,42,82,0
7,42,67,380
7,36,53,184
7,37,82,188
7,44,64,0
7,42,73,384
7,42,68,380
7,36,73,0
7,42,76,376
7,44,69,380
7,37,87,0
7,42,76,388
7,36,47,180
7,36,69,188
7,46,67,0
7,42,53,384
7,36,29,180
7,44,58,192
7,37,87,0
7,42,73,380
7,36,71,380
7,42,79,0
7,42,82,376
7,36,64,192
7,37,82,184
7,44,61,0
7,42,84,384
7,42,84,380
7,36,82,0
7,42,87,380
7,36,64,188
7,37,87,184
7,44,67,0
7,42,96,384
7,36,87,380
7,42,82,0
7,42,76,372
7,36,66,188
7,42,73,184
7,37,82,0
7,44,58,188
7,44,87,188
7,46,76,188
7,36,79,196
7,42,87,0
7,42,62,184
7,42,53,192
7,36,63,184
7,42,62,0
7,37,79,184
7,46,68,0
7,42,42,188
7,42,56,192
7,42,32,184
7,36,82,192
7,42,69,0
7,42,42,184
7,42,43,192
7,36,62,180
7,42,63,0
7,37,76,184
7,46,64,0
7,42,53,188
7,42,61,192
7,42,41,192
7,42,66,188
7,36,79,0
7,42,51,188
7,42,41,188
7,36,64,184
7,42,58,0
7,37,87,184
7,46,73,0
7,42,42,188
7,42,55,192
7,42,29,180
7,36,84,192
7,42,79,0
7,42,47,188
7,42,58,188
7,36,64,184
7,42,64,0
7,37,87,188
7,46,73,0
7,42,50,188
7,42,62,192
7,42,29,188
7,36,76,188
7,42,64,0
7,42,62,188
7,42,56,188
