track,note,velocity,time
0,42,120,0
0,39,110,225
0,42,120,0
0,42,120,225
0,39,110,225
0,42,80,0
0,42,16,45
0,42,16,59
0,42,16,45
0,35,127,45
0,42,112,0
0,42,64,105
0,38,112,105
0,39,80,0
0,42,112,0
0,42,64,105
0,35,127,105
0,42,112,0
0,42,64,105
0,38,112,105
0,39,80,0
0,42,112,0
0,42,64,105
0,35,127,105
0,42,112,0
0,42,64,105
0,38,112,105
0,39,80,0
0,42,112,0
0,42,64,105
0,35,127,105
0,42,112,0
0,42,64,105
0,38,112,105
0,39,80,0
0,42,112,0
0,42,64,105
0,41,111,105
0,35,127,0
0,42,112,0
0,36,100,59
0,42,64,0
0,39,102,64
0,38,112,0
0,39,80,0
0,42,112,0
0,41,118,77
0,42,64,0
0,39,102,9
0,41,49,0
0,35,127,0
0,42,112,0
0,36,111,55
0,42,64,0
0,34,98,60
0,38,112,0
0,39,80,0
0,42,112,0
0,36,87,29
0,42,64,0
0,41,114,40
0,35,127,0
0,42,112,0
0,36,95,9
0,42,64,0
0,39,89,67
0,38,112,0
0,39,80,0
0,42,112,0
0,41,127,62
0,42,64,0
0,39,98,20
0,35,127,0
0,42,112,0
0,36,93,72
0,42,64,0
0,34,92,69
0,38,112,0
0,39,80,0
0,42,112,0
0,36,89,32
0,42,64,0
0,41,118,47
0,35,127,0
0,42,112,0
0,36,97,7
0,42,64,0
0,39,98,70
0,38,112,0
0,39,80,0
0,42,112,0
0,41,95,62
0,42,64,0
0,39,95,105
0,35,127,0
0,42,112,0
0,36,87,72
0,42,64,0
0,34,98,64
0,38,112,0
0,39,80,0
0,42,112,0
0,36,84,19
0,42,64,0
0,41,111,44
0,35,127,0
0,42,112,0
0,36,95,3
0,42,64,0
0,39,98,70
0,38,112,0
0,39,80,0
0,42,112,0
0,41,108,59
0,42,64,0
0,39,89,105
0,35,127,0
0,42,112,0
0,36,87,68
0,42,64,0
0,34,92,57
0,38,112,0
0,39,80,0
0,42,112,0
0,36,97,29
0,42,64,0
0,46,16,0
0,41,111,50
0,35,127,0
0,42,112,0
0,46,16,0
0,36,100,9
0,42,64,0
0,39,98,74
0,38,112,0
0,39,80,0
0,42,112,0
0,41,127,62
0,42,64,0
0,39,98,20
0,35,127,0
0,42,112,0
0,36,91,68
0,42,64,0
0,34,86,59
0,38,112,0
0,39,80,0
0,42,112,0
0,36,100,27
0,42,64,0
0,41,111,57
0,35,127,0
0,42,112,0
0,36,95,13
0,42,64,0
0,39,98,59
0,38,112,0
0,39,80,0
0,42,112,0
0,41,105,62
0,42,64,0
0,39,92,20
0,35,127,0
0,42,112,0
0,36,86,65
0,42,64,0
0,34,92,60
0,38,112,0
0,39,80,0
0,42,112,0
0,36,89,29
0,42,64,0
0,41,108,54
0,35,127,0
0,42,112,0
0,36,97,9
0,42,64,0
0,39,98,69
0,38,112,0
0,39,80,0
0,42,112,0
0,41,102,63
0,42,64,0
0,39,95,105
0,35,127,0
0,42,112,0
0,36,100,72
0,42,64,0
0,34,92,59
0,38,112,0
0,39,80,0
0,42,112,0
0,36,100,32
0,42,64,0
0,41,114,57
0,35,127,0
0,42,112,0
0,36,100,17
0,42,64,0
0,39,95,70
0,38,112,0
0,39,80,0
0,42,112,0
0,41,102,72
0,42,64,0
0,39,89,20
0,35,127,0
0,42,112,0
0,36,95,60
0,42,64,0
0,34,89,57
0,38,112,0
0,39,80,0
0,42,112,0
0,36,100,23
0,42,64,0
0,41,118,54
0,68,89,0
0,72,80,0
0,77,76,0
0,35,127,0
0,42,112,0
0,36,93,22
0,42,64,0
0,39,86,70
0,38,112,0
0,39,80,0
0,42,112,0
0,41,95,77
0,70,81,0
0,74,84,0
0,79,74,0
0,42,64,0
0,39,92,22
0,35,127,0
0,42,112,0
0,36,95,68
0,42,64,0
0,34,89,54
0,38,112,0
0,39,80,0
0,42,112,0
0,36,97,37
0,42,64,0
0,41,126,57
0,72,82,0
0,75,98,0
0,80,84,0
0,35,127,0
0,42,112,0
0,36,102,27
0,42,64,0
0,39,98,67
0,38,112,0
0,39,80,0
0,42,112,0
0,41,114,72
0,70,84,0
0,74,97,0
0,79,87,0
0,42,64,0
0,39,89,0
0,35,127,0
0,42,112,0
0,36,89,72
0,42,64,0
0,34,86,54
0,38,112,0
0,39,80,0
0,42,112,0
0,36,102,23
0,42,64,0
0,41,118,64
0,68,95,0
0,72,86,0
0,77,76,0
0,35,127,0
0,42,112,0
0,36,102,19
0,42,64,0
0,39,95,77
0,38,112,0
0,39,80,0
0,42,112,0
0,41,105,72
0,70,95,0
0,74,102,0
0,79,86,0
0,42,64,0
0,39,86,30
0,35,127,0
0,42,112,0
0,36,89,78
0,42,64,0
0,34,92,59
0,38,112,0
0,39,80,0
0,42,112,0
0,36,100,19
0,42,64,0
0,41,111,57
0,72,72,0
0,75,77,0
0,80,77,0
0,35,127,0
0,42,112,0
0,36,100,13
0,42,64,0
0,39,95,67
0,38,112,0
0,39,80,0
0,42,112,0
0,41,93,62
0,70,86,0
0,74,93,0
0,79,84,0
0,42,64,0
0,39,86,18
0,35,127,0
0,42,112,0
0,36,89,70
0,42,64,0
0,34,86,69
0,38,112,0
0,39,80,0
0,42,112,0
0,36,91,29
0,42,64,0
0,41,126,10
0,68,89,0
0,72,80,0
0,77,76,0
0,35,127,0
0,42,112,0
0,36,89,3
0,42,64,0
0,39,84,59
0,38,112,0
0,39,80,0
0,42,112,0
0,41,122,73
0,70,81,0
0,74,84,0
0,79,74,0
0,42,64,0
0,39,86,35
0,35,127,0
0,42,112,0
0,36,100,78
0,42,64,0
0,34,102,69
0,38,112,0
0,39,80,0
0,42,112,0
0,36,97,42
0,42,64,0
0,41,126,60
0,72,82,0
0,75,98,0
0,80,84,0
0,35,127,0
0,42,112,0
0,36,86,12
0,42,64,0
0,39,102,67
0,38,112,0
0,39,80,0
0,42,112,0
0,41,127,57
0,70,84,0
0,74,97,0
0,79,87,0
0,42,64,0
0,39,102,38
0,35,127,0
0,42,112,0
0,36,118,52
0,42,64,0
0,34,102,64
0,38,112,0
0,39,80,0
0,42,112,0
0,36,105,37
0,42,64,0
0,41,126,47
0,68,95,0
0,72,86,0
0,77,76,0
0,35,127,0
0,42,112,0
0,36,102,9
0,42,64,0
0,39,98,64
0,38,112,0
0,39,80,0
0,42,112,0
0,41,114,63
0,70,95,0
0,74,102,0
0,79,86,0
0,42,64,0
0,39,95,30
0,35,127,0
0,42,112,0
0,36,97,69
0,42,64,0
0,34,89,59
0,38,112,0
0,39,80,0
0,42,112,0
0,36,108,59
0,42,64,0
0,41,122,47
0,72,72,0
0,75,77,0
0,80,77,0
0,35,127,0
0,42,112,0
0,36,95,9
0,42,64,0
0,39,98,59
0,38,112,0
0,39,80,0
0,42,112,0
0,41,111,59
0,70,86,0
0,74,93,0
0,79,84,0
0,42,64,0
0,39,86,18
0,35,127,0
0,42,112,0
0,36,91,77
0,42,64,0
0,34,86,60
0,38,112,0
0,39,80,0
0,42,112,0
0,36,105,32
0,42,64,0
0,46,127,24
0,70,67,0
0,73,102,0
0,77,93,0
0,35,127,0
0,42,112,0
0,41,102,25
0,42,64,0
0,44,106,70
0,38,112,0
0,39,80,0
0,42,112,0
0,46,102,69
0,70,84,0
0,73,106,0
0,77,91,0
0,42,64,0
0,35,127,18
0,42,112,0
0,41,111,105
0,42,64,0
0,39,102,17
0,38,112,0
0,39,80,0
0,42,112,0
0,41,114,49
0,42,64,0
0,46,106,50
0,70,81,0
0,73,116,0
0,77,95,0
0,35,127,0
0,42,112,0
0,41,84,19
0,42,64,0
0,44,106,59
0,38,112,0
0,39,80,0
0,42,112,0
0,46,116,49
0,70,84,0
0,73,102,0
0,77,91,0
0,42,64,0
0,35,127,22
0,42,112,0
0,41,111,105
0,42,64,0
0,39,95,17
0,38,112,0
0,39,80,0
0,42,112,0
0,41,114,59
0,42,64,0
0,41,122,59
0,68,81,0
0,72,100,0
0,77,89,0
0,35,127,0
0,42,112,0
0,36,84,18
0,42,64,0
0,39,86,79
0,38,112,0
0,39,80,0
0,42,112,0
0,41,126,89
0,70,89,0
0,74,105,0
0,79,97,0
0,42,64,0
0,39,102,25
0,35,127,0
0,42,112,0
0,36,105,72
0,42,64,0
0,34,92,59
0,38,112,0
0,39,80,0
0,42,112,0
0,36,91,53
0,42,64,0
0,41,127,54
0,72,78,0
0,75,98,0
0,80,89,0
0,35,127,0
0,42,112,0
0,36,97,18
0,42,64,0
0,39,95,59
0,38,112,0
0,39,80,0
0,42,112,0
0,41,114,67
0,70,81,0
0,74,81,0
0,79,81,0
0,42,64,0
0,39,89,25
0,35,127,0
0,42,112,0
0,36,114,68
0,42,64,0
0,34,92,54
0,38,112,0
0,39,80,0
0,42,112,0
0,36,93,49
0,42,64,0
0,46,111,24
0,70,79,0
0,73,92,0
0,77,91,0
0,35,127,0
0,42,112,0
0,41,102,14
0,42,64,0
0,44,106,57
0,38,112,0
0,39,80,0
0,42,112,0
0,46,111,49
0,70,79,0
0,73,92,0
0,77,84,0
0,42,64,0
0,41,63,30
0,35,127,0
0,42,112,0
0,41,105,102
0,42,64,0
0,39,92,7
0,38,112,0
0,39,80,0
0,42,112,0
0,41,102,42
0,42,64,0
0,46,95,50
0,70,60,0
0,73,66,0
0,77,67,0
0,35,127,0
0,42,112,0
0,41,89,20
0,42,64,0
0,44,98,70
0,38,112,0
0,39,80,0
0,42,112,0
0,46,122,62
0,42,64,0
0,41,46,39
0,35,127,0
0,42,112,0
0,44,127,105
0,42,64,0
0,41,127,19
0,38,112,0
0,39,80,0
0,42,112,0
0,39,92,12
0,42,64,0
0,41,118,52
0,68,81,0
0,72,80,0
0,77,70,0
0,35,127,0
0,42,112,0
0,36,87,8
0,42,64,0
0,39,95,87
0,38,112,0
0,39,80,0
0,42,112,0
0,41,127,79
0,70,79,0
0,74,81,0
0,79,73,0
0,42,64,0
0,39,92,28
0,35,127,0
0,42,112,0
0,36,118,60
0,42,64,0
0,34,92,64
0,38,112,0
0,39,80,0
0,42,112,0
0,36,105,32
0,42,64,0
0,41,126,47
0,72,73,0
0,75,77,0
0,80,84,0
0,35,127,0
0,42,112,0
0,36,100,10
0,42,64,0
0,39,98,70
0,38,112,0
0,39,80,0
0,42,112,0
0,41,118,72
0,70,72,0
0,74,77,0
0,79,71,0
0,42,64,0
0,39,98,18
0,35,127,0
0,42,112,0
0,36,118,59
0,42,64,0
0,34,102,59
0,38,112,0
0,39,80,0
0,42,112,0
0,36,114,32
0,42,64,0
0,41,122,30
0,68,89,0
0,72,80,0
0,77,76,0
0,35,127,0
0,42,112,0
0,46,16,0
0,36,102,10
0,42,64,0
0,39,102,77
0,38,112,0
0,39,80,0
0,42,112,0
0,41,122,72
0,70,81,0
0,74,84,0
0,79,74,0
0,42,64,0
0,39,98,35
0,35,127,0
0,42,112,0
0,36,114,78
0,42,64,0
0,34,98,70
0,38,112,0
0,39,80,0
0,42,112,0
0,36,95,42
0,42,64,0
0,41,127,59
0,72,82,0
0,75,98,0
0,80,84,0
0,35,127,0
0,42,112,0
0,36,89,13
0,42,64,0
0,39,102,69
0,38,112,0
0,39,80,0
0,42,112,0
0,41,122,67
0,70,84,0
0,74,97,0
0,79,87,0
0,42,64,0
0,39,102,8
0,41,50,0
0,35,127,0
0,42,112,0
0,36,126,58
0,42,64,0
0,34,102,59
0,38,112,0
0,39,80,0
0,42,112,0
0,36,95,29
0,42,64,0
0,41,122,59
0,68,95,0
0,72,86,0
0,77,76,0
0,35,127,0
0,42,112,0
0,36,87,20
0,42,64,0
0,39,95,77
0,38,112,0
0,39,80,0
0,42,112,0
0,41,126,67
0,70,95,0
0,74,102,0
0,79,86,0
0,42,64,0
0,39,98,30
0,35,127,0
0,42,112,0
0,36,118,62
0,42,64,0
0,34,102,59
0,38,112,0
0,39,80,0
0,42,112,0
0,36,95,32
0,42,64,0
0,41,111,54
0,72,72,0
0,75,77,0
0,80,77,0
0,35,127,0
0,42,112,0
0,36,89,19
0,42,64,0
0,39,95,64
0,38,112,0
0,39,80,0
0,42,112,0
0,41,93,57
0,70,86,0
0,74,93,0
0,79,84,0
0,42,64,0
0,39,89,18
0,35,127,0
0,42,112,0
0,36,105,60
0,42,64,0
0,34,92,64
0,38,112,0
0,39,80,0
0,42,112,0
0,36,100,32
0,42,64,0
0,46,127,34
0,70,67,0
0,73,102,0
0,77,93,0
0,35,127,0
0,42,112,0
0,41,105,27
0,42,64,0
0,44,122,64
0,38,112,0
0,39,80,0
0,42,112,0
0,46,127,49
0,70,84,0
0,73,106,0
0,77,91,0
0,42,64,0
0,35,127,30
0,42,112,0
0,41,108,105
0,42,64,0
0,39,98,105
0,38,112,0
0,39,80,0
0,42,112,0
0,41,102,49
0,42,64,0
0,46,106,54
0,70,81,0
0,73,116,0
0,77,95,0
0,35,127,0
0,42,112,0
0,41,93,19
0,42,64,0
0,44,106,74
0,38,112,0
0,39,80,0
0,42,112,0
0,46,116,53
0,70,84,0
0,73,102,0
0,77,91,0
0,42,64,0
0,35,127,28
0,42,112,0
0,44,127,105
0,42,64,0
0,41,108,9
0,38,112,0
0,39,80,0
0,42,112,0
0,39,98,32
0,42,64,0
0,41,122,60
0,68,81,0
0,72,100,0
0,77,89,0
0,35,127,0
0,42,112,0
0,36,77,13
0,42,64,0
0,39,95,77
0,38,112,0
0,39,80,0
0,42,112,0
0,41,122,79
0,70,89,0
0,74,105,0
0,79,97,0
0,42,64,0
0,39,95,25
0,35,127,0
0,42,112,0
0,36,114,72
0,42,64,0
0,34,102,74
0,38,112,0
0,39,80,0
0,42,112,0
0,36,105,9
0,42,64,0
0,41,126,40
0,72,78,0
0,75,98,0
0,80,89,0
0,35,127,0
0,42,112,0
0,36,87,9
0,42,64,0
0,39,92,59
0,38,112,0
0,39,80,0
0,42,112,0
0,41,118,72
0,70,81,0
0,74,81,0
0,79,81,0
0,42,64,0
0,39,102,18
0,35,127,0
0,42,112,0
0,36,111,65
0,42,64,0
0,34,102,64
0,38,112,0
0,39,80,0
0,42,112,0
0,36,91,7
0,42,64,0
0,49,106,47
0,65,43,0
0,68,44,0
0,73,49,0
0,35,127,0
0,42,112,0
0,49,80,0
0,42,64,105
0,38,112,105
0,39,80,0
0,42,112,0
0,42,64,105
0,37,116,105
0,35,127,0
0,42,112,0
0,65,56,27
0,68,55,0
0,75,51,0
0,42,64,0
0,38,112,72
0,39,80,0
0,42,112,0
0,65,50,12
0,68,48,0
0,73,52,0
0,51,95,44
0,42,64,0
0,52,80,7
0,53,111,27
0,65,48,0
0,68,45,0
0,72,58,0
0,35,127,0
0,42,112,0
0,42,64,89
0,38,112,105
0,39,80,0
0,42,112,0
0,77,118,105
0,42,64,0
0,41,114,85
0,80,102,0
0,35,127,0
0,42,112,0
0,77,102,22
0,42,64,0
0,87,127,84
0,37,127,0
0,38,112,0
0,39,127,0
0,42,112,0
0,46,127,0
0,49,32,0
0,51,95,7
0,84,93,0
0,42,64,0
0,53,95,17
0,49,98,55
0,65,48,0
0,68,49,0
0,73,52,0
0,35,127,0
0,42,112,0
0,42,64,97
0,38,112,105
0,39,80,0
0,42,112,0
0,42,64,105
0,37,122,105
0,35,127,0
0,42,112,0
0,65,59,39
0,68,60,0
0,75,58,0
0,42,64,0
0,38,112,7
0,39,80,0
0,42,112,0
0,65,50,34
0,68,51,0
0,73,52,0
0,51,98,59
0,42,64,0
0,52,44,10
0,53,108,37
0,65,49,0
0,68,41,0
0,72,56,0
0,35,127,0
0,42,112,0
0,42,64,97
0,38,112,105
0,39,80,0
0,42,112,0
0,72,100,33
0,80,92,0
0,84,93,0
0,42,64,0
0,41,122,105
0,35,127,0
0,42,112,0
0,79,77,45
0,82,95,0
0,77,80,10
0,80,84,0
0,42,64,0
0,37,127,18
0,38,112,0
0,39,127,0
0,42,112,0
0,46,127,0
0,49,32,0
0,48,118,23
0,42,64,0
0,49,127,105
0,65,55,0
0,68,49,0
