track,note,velocity,time
1,21,88,3824
1,33,104,0
1,24,74,384
1,36,88,0
1,26,82,356
1,38,104,0
1,27,86,340
1,39,76,0
1,28,88,0
1,40,84,0
1,21,80,248
1,33,84,0
1,24,66,192
1,36,76,0
1,26,84,12
1,38,86,0
1,27,88,384
1,39,86,0
1,28,76,160
1,40,78,0
1,21,86,156
1,33,84,0
1,24,74,352
1,36,86,0
1,26,86,340
1,38,86,0
1,27,88,0
1,39,74,0
1,28,86,188
1,40,92,0
1,21,82,228
1,33,84,0
1,24,74,192
1,36,86,0
1,26,76,12
1,38,74,0
1,27,86,4
1,39,80,0
1,28,84,168
1,40,74,0
1,21,88,20
1,33,104,0
1,24,74,384
1,36,88,0
1,26,82,356
1,38,104,0
1,27,86,340
1,39,76,0
1,28,88,0
1,40,84,0
1,21,80,248
1,33,84,0
1,24,66,192
1,36,76,0
1,26,84,12
1,38,86,0
1,27,88,384
1,39,86,0
1,28,76,160
1,40,78,0
1,21,86,156
1,33,84,0
1,24,74,352
1,36,86,0
1,26,86,340
1,38,86,0
1,27,88,0
1,39,74,0
1,28,86,188
1,40,92,0
1,21,82,228
1,33,84,0
1,24,74,192
1,36,86,0
1,26,76,12
1,38,74,0
1,27,86,4
1,39,80,0
1,28,84,168
1,40,74,0
1,21,88,20
1,33,104,0
1,24,74,384
1,36,88,0
1,26,82,356
1,38,104,0
1,27,86,340
1,39,76,0
1,28,88,0
1,40,84,0
1,21,80,248
1,33,84,0
1,24,66,192
1,36,76,0
1,26,84,12
1,38,86,0
1,27,88,384
1,39,86,0
1,28,76,160
1,40,78,0
1,21,86,156
1,33,84,0
1,24,74,352
1,36,86,0
1,26,86,340
1,38,86,0
1,27,88,0
1,39,74,0
1,28,86,188
1,40,92,0
1,21,82,228
1,33,84,0
1,24,74,192
1,36,86,0
1,26,76,12
1,38,74,0
1,27,86,4
1,39,80,0
1,28,84,168
1,40,74,0
1,21,88,20
1,33,104,0
1,24,74,384
1,36,88,0
1,26,82,356
1,38,104,0
1,27,86,340
1,39,76,0
1,28,88,0
1,40,84,0
1,21,80,248
1,33,84,0
1,24,66,192
1,36,76,0
1,26,84,12
1,38,86,0
1,27,88,384
1,39,86,0
1,28,76,160
1,40,78,0
1,21,86,156
1,33,84,0
1,24,74,352
1,36,86,0
1,26,86,340
1,38,86,0
1,27,88,0
1,39,74,0
1,28,86,188
1,40,92,0
1,21,82,228
1,33,84,0
1,24,74,192
1,36,86,0
1,26,76,12
1,38,74,0
1,27,86,4
1,39,80,0
1,28,84,168
1,40,74,0
1,21,88,20
1,33,104,0
1,24,74,384
1,36,88,0
1,26,82,356
1,38,104,0
1,27,86,340
1,39,76,0
1,28,88,0
1,40,84,0
1,21,80,248
1,33,84,0
1,24,66,192
1,36,76,0
1,26,84,12
1,38,86,0
1,27,88,384
1,39,86,0
1,28,76,160
1,40,78,0
1,21,86,156
1,33,84,0
1,24,74,352
1,36,86,0
1,26,86,340
1,38,86,0
1,27,88,0
1,39,74,0
1,28,86,188
1,40,92,0
1,21,82,228
1,33,84,0
1,24,74,192
1,36,86,0
1,26,76,12
1,38,74,0
1,27,86,4
1,39,80,0
1,28,84,168
1,40,74,0
1,21,88,20
1,33,104,0
1,24,74,384
1,36,88,0
1,26,82,356
1,38,104,0
1,27,86,340
1,39,76,0
1,28,88,0
1,40,84,0
1,21,80,248
1,33,84,0
1,24,66,192
1,36,76,0
1,26,84,12
1,38,86,0
1,27,88,384
1,39,86,0
1,28,76,160
1,40,78,0
1,21,86,156
1,33,84,0
1,24,74,352
1,36,86,0
1,26,86,340
1,38,86,0
1,27,88,0
1,39,74,0
1,28,86,188
1,40,92,0
1,21,82,228
1,33,84,0
1,24,74,192
1,36,86,0
1,26,76,12
1,38,74,0
1,27,86,4
1,39,80,0
1,28,84,168
1,40,74,0
1,21,88,20
1,33,104,0
1,24,74,384
1,36,88,0
1,26,82,356
1,38,104,0
1,27,86,340
1,39,76,0
1,28,88,0
1,40,84,0
1,21,80,248
1,33,84,0
1,24,66,192
1,36,76,0
1,26,84,12
1,38,86,0
1,27,88,384
1,39,86,0
1,28,76,160
1,40,78,0
1,21,86,156
1,33,84,0
1,24,74,352
1,36,86,0
1,26,86,340
1,38,86,0
1,27,88,0
1,39,74,0
1,28,86,188
1,40,92,0
1,21,82,228
1,33,84,0
1,24,74,192
1,36,86,0
1,26,76,12
1,38,74,0
1,27,86,4
1,39,80,0
1,28,84,168
1,40,74,0
1,23,76,20
1,35,96,0
1,26,82,64
1,38,84,0
1,25,86,180
1,37,100,0
1,23,84,136
1,35,88,0
1,26,88,76
1,38,82,0
1,25,88,172
1,37,108,0
1,23,78,144
1,35,88,0
1,26,96,100
1,38,84,0
1,25,88,188
1,37,104,0
1,28,112,96
1,40,92,0
1,28,117,216
1,40,96,0
1,28,100,208
1,40,100,0
1,26,92,80
1,38,122,0
1,24,78,32
1,36,108,0
1,21,92,52
1,33,88,0
1,24,82,72
1,36,88,0
1,26,86,36
1,38,100,0
1,27,84,144
1,39,78,0
1,28,88,192
1,40,86,0
1,21,96,56
1,33,86,0
1,24,76,136
1,36,86,0
1,26,104,144
1,38,112,0
1,24,66,4
1,36,74,0
1,26,100,44
1,38,108,0
1,24,70,8
1,36,74,0
1,21,96,0
1,33,88,0
1,24,86,44
1,36,96,0
1,26,96,32
1,38,86,0
1,27,84,356
1,39,100,0
1,28,92,4
1,40,84,0
1,21,96,24
1,33,84,0
1,24,86,32
1,36,86,0
1,26,86,0
1,38,88,0
1,27,82,192
1,39,82,0
1,28,84,4
1,40,88,0
1,26,104,4
1,38,104,0
1,24,76,184
1,36,88,0
1,21,96,0
1,33,88,0
1,24,82,56
1,36,88,0
1,26,84,4
1,38,96,0
1,27,88,44
1,39,88,0
1,28,84,0
1,40,80,0
1,21,100,24
1,33,74,0
1,24,86,48
1,36,92,0
1,26,92,368
1,38,92,0
1,24,74,24
1,36,72,0
1,26,86,0
1,38,84,0
1,24,74,0
1,36,78,0
1,21,92,0
1,33,84,0
1,24,80,380
1,36,92,0
1,26,84,356
1,38,88,0
1,27,84,4
1,39,80,0
1,28,88,28
1,40,84,0
1,21,92,4
1,33,76,0
1,24,100,28
1,36,86,0
1,26,104,0
1,38,100,0
1,21,88,816
1,33,104,0
1,24,74,384
1,36,88,0
1,26,82,356
1,38,104,0
1,27,86,340
1,39,76,0
1,28,88,0
1,40,84,0
1,21,80,248
1,33,84,0
1,24,66,192
1,36,76,0
1,26,84,12
1,38,86,0
1,27,88,384
1,39,86,0
1,28,76,160
1,40,78,0
1,21,86,156
1,33,84,0
1,24,74,352
1,36,86,0
1,26,86,340
1,38,86,0
1,27,88,0
1,39,74,0
1,28,86,188
1,40,92,0
1,21,82,228
1,33,84,0
1,24,74,192
1,36,86,0
1,26,76,12
1,38,74,0
1,27,86,4
1,39,80,0
1,28,84,168
1,40,74,0
1,21,88,20
1,33,104,0
1,24,74,384
1,36,88,0
1,26,82,356
1,38,104,0
1,27,86,340
1,39,76,0
1,28,88,0
1,40,84,0
1,21,80,248
1,33,84,0
1,24,66,192
1,36,76,0
1,26,84,12
1,38,86,0
1,27,88,384
1,39,86,0
1,28,76,160
1,40,78,0
1,21,86,156
1,33,84,0
1,24,74,352
1,36,86,0
1,26,86,340
1,38,86,0
1,27,88,0
1,39,74,0
1,28,86,188
1,40,92,0
1,21,82,228
1,33,84,0
1,24,74,192
1,36,86,0
1,26,76,12
1,38,74,0
1,27,86,4
1,39,80,0
1,28,84,168
1,40,74,0
1,21,88,20
1,33,104,0
1,24,74,384
1,36,88,0
1,26,82,356
1,38,104,0
1,27,86,340
1,39,76,0
1,28,88,0
1,40,84,0
1,21,80,248
1,33,84,0
1,24,66,192
1,36,76,0
1,26,84,12
1,38,86,0
1,27,88,384
1,39,86,0
1,28,76,160
1,40,78,0
1,21,86,156
1,33,84,0
1,24,74,352
1,36,86,0
1,26,86,340
1,38,86,0
1,27,88,0
1,39,74,0
1,28,86,188
1,40,92,0
1,21,82,228
1,33,84,0
1,24,74,192
1,36,86,0
1,26,76,12
1,38,74,0
1,27,86,4
1,39,80,0
1,28,84,168
1,40,74,0
1,21,88,20
1,33,104,0
1,24,74,384
1,36,88,0
1,26,82,356
1,38,104,0
1,27,86,340
1,39,76,0
1,28,88,0
1,40,84,0
1,21,80,248
1,33,84,0
1,24,66,192
1,36,76,0
1,26,84,12
1,38,86,0
1,27,88,384
1,39,86,0
1,28,76,160
1,40,78,0
1,21,86,156
1,33,84,0
1,24,74,352
1,36,86,0
1,26,86,340
1,38,86,0
1,27,88,0
1,39,74,0
1,28,86,188
1,40,92,0
1,21,82,228
1,33,84,0
1,24,74,192
1,36,86,0
1,26,76,12
1,38,74,0
1,27,86,4
1,39,80,0
1,28,84,168
1,40,74,0
1,23,76,20
1,35,96,0
1,26,82,64
1,38,84,0
1,25,86,180
1,37,100,0
1,23,84,136
1,35,88,0
1,26,88,76
1,38,82,0
1,25,88,172
1,37,108,0
1,23,78,144
1,35,88,0
1,26,96,100
1,38,84,0
1,25,88,188
1,37,104,0
1,28,112,96
1,40,92,0
1,28,117,216
1,40,96,0
1,28,100,208
1,40,100,0
1,26,92,80
1,38,122,0
1,24,78,32
1,36,108,0
1,21,92,52
1,33,88,0
1,24,82,72
1,36,88,0
1,26,86,36
1,38,100,0
1,27,84,144
1,39,78,0
1,28,88,192
1,40,86,0
1,21,96,56
1,33,86,0
1,24,76,136
1,36,86,0
1,26,104,144
1,38,112,0
1,24,66,4
1,36,74,0
1,26,100,44
1,38,108,0
1,24,70,8
1,36,74,0
1,21,96,0
1,33,88,0
1,24,86,44
1,36,96,0
1,26,96,32
1,38,86,0
1,27,84,356
1,39,100,0
1,28,92,4
1,40,84,0
1,21,96,24
1,33,84,0
1,24,86,32
1,36,86,0
1,26,86,0
1,38,88,0
1,27,82,192
1,39,82,0
1,28,84,4
1,40,88,0
1,26,104,4
1,38,104,0
1,24,76,184
1,36,88,0
1,21,96,0
1,33,88,0
1,24,82,56
1,36,88,0
1,26,84,4
1,38,96,0
1,27,88,44
1,39,88,0
1,28,84,0
1,40,80,0
1,21,100,24
1,33,74,0
1,24,86,48
1,36,92,0
1,26,92,368
1,38,92,0
1,24,74,24
1,36,72,0
1,26,86,0
1,38,84,0
1,24,74,0
1,36,78,0
1,21,92,0
1,33,84,0
1,24,80,380
1,36,92,0
1,26,84,356
1,38,88,0
1,27,84,4
1,39,80,0
1,28,88,28
1,40,84,0
1,21,92,4
1,33,76,0
1,24,100,28
1,36,86,0
1,26,104,0
1,38,100,0
1,21,88,816
1,33,104,0
1,24,74,384
1,36,88,0
1,26,82,356
1,38,104,0
1,27,86,340
1,39,76,0
1,28,88,0
1,40,84,0
1,21,80,248
1,33,84,0
1,24,66,192
1,36,76,0
1,26,84,12
1,38,86,0
1,27,88,384
1,39,86,0
1,28,76,160
1,40,78,0
1,21,86,156
1,33,84,0
1,24,74,352
1,36,86,0
1,26,86,340
1,38,86,0
1,27,88,0
1,39,74,0
1,28,86,188
1,40,92,0
1,21,82,228
1,33,84,0
1,24,74,192
1,36,86,0
1,26,76,12
1,38,74,0
1,27,86,4
1,39,80,0
1,28,84,168
1,40,74,0
1,21,88,20
1,33,104,0
1,24,74,384
1,36,88,0
1,26,82,356
1,38,104,0
1,27,86,340
1,39,76,0
1,28,88,0
1,40,84,0
1,21,80,248
1,33,84,0
1,24,66,192
1,36,76,0
1,26,84,12
1,38,86,0
1,27,88,384
1,39,86,0
1,28,76,160
1,40,78,0
1,21,86,156
1,33,84,0
1,24,74,352
1,36,86,0
1,26,86,340
1,38,86,0
1,27,88,0
1,39,74,0
1,28,86,188
1,40,92,0
1,21,82,228
1,33,84,0
1,24,74,192
1,36,86,0
1,26,76,12
1,38,74,0
1,27,86,4
1,39,80,0
1,28,84,168
1,40,74,0
1,21,88,20
1,33,104,0
1,24,74,384
1,36,88,0
1,26,82,356
1,38,104,0
1,27,86,340
1,39,76,0
1,28,88,0
1,40,84,0
1,21,80,248
1,33,84,0
1,24,66,192
1,36,76,0
1,26,84,12
1,38,86,0
1,27,88,384
1,39,86,0
1,28,76,160
1,40,78,0
1,21,86,156
1,33,84,0
1,24,74,352
1,36,86,0
1,26,86,340
1,38,86,0
1,27,88,0
1,39,74,0
1,28,86,188
1,40,92,0
1,21,82,228
1,33,84,0
1,24,74,192
1,36,86,0
1,26,76,12
1,38,74,0
1,27,86,4
1,39,80,0
1,28,84,168
1,40,74,0
1,23,76,20
1,35,96,0
1,26,82,64
1,38,84,0
1,25,86,180
1,37,100,0
1,23,84,136
1,35,88,0
1,26,88,76
1,38,82,0
1,25,88,172
1,37,108,0
1,23,78,144
1,35,88,0
1,26,96,100
1,38,84,0
1,25,88,188
1,37,104,0
1,28,112,96
1,40,92,0
1,28,117,216
1,40,96,0
1,28,100,208
1,40,100,0
1,26,92,80
1,38,122,0
1,24,78,32
1,36,108,0
1,21,92,52
1,33,88,0
1,24,82,72
1,36,88,0
1,26,86,36
1,38,100,0
1,27,84,144
1,39,78,0
1,28,88,192
1,40,86,0
1,21,96,56
1,33,86,0
1,24,76,136
1,36,86,0
1,26,104,144
1,38,112,0
1,24,66,4
1,36,74,0
1,26,100,44
1,38,108,0
1,24,70,8
1,36,74,0
1,21,96,0
1,33,88,0
1,24,86,44
1,36,96,0
1,26,96,32
1,38,86,0
1,27,84,356
1,39,100,0
1,28,92,4
1,40,84,0
1,21,96,24
1,33,84,0
1,24,86,32
1,36,86,0
1,26,86,0
1,38,88,0
1,27,82,192
1,39,82,0
1,28,84,4
1,40,88,0
1,26,104,4
1,38,104,0
1,24,76,184
1,36,88,0
1,21,92,0
1,33,88,0
1,24,82,72
1,36,88,0
1,26,86,36
1,38,100,0
1,27,84,144
1,39,78,0
1,28,88,192
1,40,86,0
1,21,96,56
1,33,86,0
1,24,76,136
1,36,86,0
1,26,104,144
1,38,112,0
1,24,66,4
1,36,74,0
1,26,100,44
1,38,108,0
1,24,70,8
1,36,74,0
1,21,96,0
1,33,88,0
1,24,86,44
1,36,96,0
1,26,96,32
1,38,86,0
1,27,84,356
1,39,100,0
1,28,92,4
1,40,84,0
1,21,96,24
1,33,84,0
1,24,86,32
1,36,86,0
1,26,86,0
1,38,88,0
1,27,82,192
1,39,82,0
1,28,84,4
1,40,88,0
1,26,104,4
1,38,104,0
1,24,76,184
1,36,88,0
1,21,92,0
1,33,88,0
1,24,82,72
1,36,88,0
1,26,86,36
1,38,100,0
1,27,84,144
1,39,78,0
1,28,88,192
1,40,86,0
1,21,96,56
1,33,86,0
1,24,76,136
1,36,86,0
1,26,104,144
1,38,112,0
1,24,66,4
1,36,74,0
1,26,100,44
1,38,108,0
1,24,70,8
1,36,74,0
1,21,96,0
1,33,88,0
1,24,86,44
1,36,96,0
1,26,96,32
1,38,86,0
1,27,84,356
1,39,100,0
1,28,92,4
1,40,84,0
1,21,96,24
1,33,84,0
1,24,86,32
1,36,86,0
1,26,86,0
1,38,88,0
1,27,82,192
1,39,82,0
1,28,84,4
1,40,88,0
1,26,104,4
1,38,104,0
1,24,76,184
1,36,88,0
1,21,92,0
1,33,88,0
1,24,82,72
1,36,88,0
1,26,86,36
1,38,100,0
1,27,84,144
1,39,78,0
1,28,88,192
1,40,86,0
1,21,96,56
1,33,86,0
1,24,76,136
1,36,86,0
1,26,104,144
1,38,112,0
1,24,66,4
1,36,74,0
1,26,100,44
1,38,108,0
1,24,70,8
1,36,74,0
1,21,96,0
1,33,88,0
1,24,86,44
1,36,96,0
1,26,96,32
1,38,86,0
1,27,84,356
1,39,100,0
1,28,92,4
1,40,84,0
1,21,96,24
1,33,84,0
1,24,86,32
1,36,86,0
1,26,86,0
1,38,88,0
1,27,82,192
1,39,82,0
1,28,84,4
1,40,88,0
1,26,104,4
1,38,104,0
1,24,76,184
1,36,88,0
1,21,92,0
1,33,88,0
1,24,82,72
1,36,88,0
