track,note,velocity,time
0,40,93,16
0,55,81,384
0,47,55,192
0,52,46,144
0,40,0,237
0,50,35,147
0,52,35,0
0,60,35,0
0,55,0,263
0,47,0,1
0,60,31,72
0,50,0,344
0,52,0,1
0,60,0,0
0,41,86,48
0,41,0,184
0,35,83,48
0,55,25,101
0,55,30,0
0,62,25,37
0,35,0,46
0,67,25,34
0,71,25,25
0,41,91,23
0,41,0,184
0,36,84,48
0,67,0,161
0,62,0,4
0,71,0,0
0,55,0,8
0,36,0,11
0,43,87,48
0,43,0,184
0,35,84,48
0,84,49,149
0,35,0,35
0,41,90,48
0,41,0,184
0,36,80,48
0,75,35,53
0,36,0,39
0,42,88,17
0,42,0,18
0,35,82,8
0,35,0,13
0,43,88,13
0,75,0,2
0,84,0,11
0,43,0,28
0,35,91,35
0,35,0,184
0,41,88,48
0,41,0,32
0,40,66,0
0,40,0,4
0,40,106,1
0,48,106,0
0,40,0,4
0,48,0,22
0,36,87,17
0,35,115,5
0,35,0,4
0,35,115,3
0,37,92,0
0,49,92,0
0,59,54,0
0,35,0,4
0,59,0,0
0,97,1,5
0,97,0,2
0,36,0,2
0,61,57,8
0,59,54,149
0,77,58,0
0,59,0,4
0,77,0,0
0,35,115,188
0,59,54,0
0,35,0,4
0,59,0,0
0,59,54,188
0,77,58,0
0,59,0,4
0,77,0,0
0,35,115,188
0,59,54,0
0,35,0,4
0,59,0,0
0,59,54,188
0,77,58,0
0,59,0,4
0,77,0,0
0,35,115,15
0,59,54,0
0,35,0,4
0,59,0,0
0,59,54,159
0,77,58,0
0,59,0,4
0,77,0,0
0,35,115,0
0,42,62,0
0,52,67,0
0,56,67,0
0,59,87,0
0,59,54,0
0,63,52,0
0,63,87,0
0,35,0,4
0,42,0,0
0,59,0,0
0,63,0,74
0,42,26,9
0,59,52,0
0,42,0,4
0,42,41,44
0,42,0,4
0,59,0,35
0,63,52,9
0,73,69,0
0,42,62,0
0,59,54,0
0,77,58,0
0,42,0,4
0,59,0,0
0,77,0,0
0,63,0,11
0,42,26,4
0,59,52,0
0,42,0,4
0,42,41,32
0,42,0,4
0,59,0,29
0,35,115,9
0,42,62,0
0,59,54,0
0,63,52,0
0,35,0,3
0,42,0,0
0,59,0,0
0,63,0,4
0,42,26,9
0,59,52,0
0,42,0,3
0,42,41,2
0,42,0,4
0,59,0,13
0,42,63,9
0,59,54,0
0,63,52,0
0,77,58,0
0,42,0,4
0,59,0,0
0,77,0,0
0,63,0,22
0,42,42,8
0,59,52,0
0,42,0,4
0,61,0,7
0,46,58,13
0,46,0,4
0,59,0,17
0,35,115,8
0,42,62,0
0,59,54,0
0,63,52,0
0,35,0,4
0,42,0,0
0,59,0,0
0,63,0,24
0,42,26,8
0,59,52,0
0,42,0,4
0,42,41,2
0,42,0,4
0,59,0,23
0,42,62,8
0,59,54,0
0,63,52,0
0,77,58,0
0,42,0,4
0,59,0,0
0,77,0,0
0,63,0,42
0,42,26,2
0,59,52,0
0,42,0,4
0,42,41,8
0,42,0,2
0,59,0,14
0,73,0,6
0,35,115,3
0,42,62,0
0,59,54,0
0,63,52,0
0,35,0,4
0,42,0,0
0,59,0,0
0,63,0,8
0,42,26,9
0,59,52,0
0,42,0,2
0,42,41,4
0,42,0,4
0,59,0,32
0,42,63,9
0,59,54,0
0,63,52,0
0,77,58,0
0,42,0,4
0,59,0,0
0,77,0,0
0,63,0,83
0,42,42,9
0,59,52,0
0,42,0,4
0,46,58,40
0,46,0,4
0,59,0,35
0,52,0,6
0,56,0,0
0,59,0,0
0,63,0,0
0,35,115,3
0,42,62,0
0,54,80,0
0,57,80,0
0,59,54,0
0,61,100,0
0,64,52,0
0,64,100,0
0,35,0,4
0,42,0,0
0,59,0,0
0,64,0,83
0,42,26,9
0,61,52,0
0,42,0,4
0,42,41,44
0,42,0,4
0,61,0,35
0,42,62,9
0,59,54,0
0,64,52,0
0,77,58,0
0,42,0,4
0,59,0,0
0,77,0,0
0,64,0,83
0,42,26,9
0,61,52,0
0,42,0,4
0,42,41,44
0,42,0,4
0,61,0,35
0,35,115,9
0,42,62,0
0,59,54,0
0,64,52,0
0,35,0,4
0,42,0,0
0,59,0,0
0,64,0,83
0,42,26,9
0,61,52,0
0,42,0,4
0,42,41,44
0,42,0,4
0,61,0,35
0,42,63,9
0,59,54,0
0,64,52,0
0,77,58,0
0,42,0,4
0,59,0,0
0,77,0,0
0,64,0,83
0,42,42,9
0,61,52,0
0,42,0,4
0,46,58,44
0,46,0,4
0,61,0,35
0,35,115,9
0,42,62,0
0,59,54,0
0,64,52,0
0,35,0,4
0,42,0,0
0,59,0,0
0,64,0,83
0,42,26,9
0,61,52,0
0,42,0,4
0,42,41,44
0,42,0,4
0,61,0,35
0,42,62,9
0,59,54,0
0,64,52,0
0,77,58,0
0,42,0,4
0,59,0,0
0,77,0,0
0,64,0,83
0,42,26,9
0,61,52,0
0,42,0,4
0,42,41,44
0,42,0,4
0,61,0,35
0,35,115,9
0,42,62,0
0,59,54,0
0,64,52,0
0,35,0,4
0,42,0,0
0,59,0,0
0,64,0,83
0,42,26,9
0,61,52,0
0,42,0,4
0,42,41,44
0,42,0,4
0,61,0,35
0,42,63,9
0,59,54,0
0,64,52,0
0,77,58,0
0,42,0,4
0,59,0,0
0,77,0,0
0,64,0,83
0,42,42,9
0,61,52,0
0,42,0,4
0,46,58,44
0,46,0,4
0,61,0,35
0,54,0,6
0,57,0,0
0,61,0,0
0,64,0,0
0,35,115,3
0,42,62,0
0,54,92,0
0,58,92,0
0,59,54,0
0,61,112,0
0,66,52,0
0,66,112,0
0,35,0,4
0,42,0,0
0,59,0,0
0,66,0,83
0,42,26,9
0,61,52,0
0,42,0,4
0,42,41,44
0,42,0,4
0,61,0,35
0,66,52,9
0,78,48,0
0,42,62,0
0,59,54,0
0,77,58,0
0,42,0,4
0,59,0,0
0,77,0,0
0,66,0,11
0,42,26,4
0,61,52,0
0,42,0,4
0,42,41,44
0,42,0,2
0,61,0,3
0,35,115,9
0,42,62,0
0,59,54,0
0,66,52,0
0,35,0,3
0,42,0,0
0,59,0,0
0,66,0,13
0,42,26,9
0,61,52,0
0,42,0,4
0,42,41,1
0,42,0,4
0,61,0,35
0,42,63,9
0,59,54,0
0,66,52,0
0,77,58,0
0,42,0,3
0,59,0,0
0,77,0,0
0,66,0,19
0,42,42,1
0,61,52,0
0,42,0,4
0,46,58,0
0,46,0,4
0,61,0,35
0,35,115,3
0,42,62,0
0,59,54,0
0,66,52,0
0,35,0,4
0,42,0,0
0,59,0,0
0,66,0,36
0,42,26,4
0,61,52,0
0,42,0,4
0,42,41,10
0,42,0,4
0,61,0,10
0,42,62,9
0,59,54,0
0,66,52,0
0,77,58,0
0,42,0,4
0,59,0,0
0,77,0,0
0,66,0,5
0,42,26,9
0,61,52,0
0,42,0,4
0,42,41,13
0,42,0,4
0,61,0,7
0,78,0,6
0,35,115,3
0,42,62,0
0,59,54,0
0,66,52,0
0,35,0,4
0,42,0,0
0,59,0,0
0,66,0,23
0,42,26,9
0,61,52,0
0,42,0,2
0,42,41,4
0,42,0,4
0,61,0,32
0,42,63,9
0,59,54,0
0,66,52,0
0,77,58,0
0,42,0,4
0,59,0,0
0,77,0,0
0,66,0,83
0,42,42,9
0,61,52,0
0,42,0,4
0,46,58,40
0,46,0,4
0,61,0,35
0,54,0,6
0,58,0,0
0,61,0,0
0,66,0,0
0,35,115,3
0,42,62,0
0,55,105,0
0,58,105,0
0,59,54,0
0,61,125,0
0,64,125,0
0,67,52,0
0,67,125,0
0,35,0,4
0,42,0,0
0,59,0,0
0,67,0,83
0,42,26,9
0,64,52,0
0,42,0,4
0,42,41,44
0,42,0,4
0,64,0,35
0,42,62,9
0,59,54,0
0,67,52,0
0,77,58,0
0,42,0,4
0,59,0,0
0,77,0,0
0,67,0,83
0,42,26,9
0,64,52,0
0,42,0,4
0,42,41,44
0,42,0,4
0,64,0,35
0,35,115,9
0,42,62,0
0,59,54,0
0,67,52,0
0,35,0,4
0,42,0,0
0,59,0,0
0,67,0,83
0,42,26,9
0,64,52,0
0,42,0,4
0,42,41,44
0,42,0,4
0,64,0,35
0,42,63,9
0,59,54,0
0,67,52,0
0,77,58,0
0,42,0,4
0,59,0,0
0,77,0,0
0,67,0,83
0,42,42,9
0,64,52,0
0,42,0,4
0,46,58,44
0,46,0,4
0,64,0,35
0,35,115,9
0,42,62,0
0,59,54,0
0,67,52,0
0,35,0,4
0,42,0,0
0,59,0,0
0,67,0,83
0,42,26,9
0,64,52,0
0,42,0,4
0,42,41,44
0,42,0,4
0,64,0,35
0,42,62,9
0,59,54,0
0,67,52,0
0,77,58,0
0,42,0,4
0,59,0,0
0,77,0,0
0,67,0,83
0,42,26,9
0,64,52,0
0,42,0,4
0,42,41,44
0,42,0,4
0,64,0,35
0,35,115,9
0,42,62,0
0,59,54,0
0,67,52,0
0,35,0,4
0,42,0,0
0,59,0,0
0,67,0,83
0,42,26,9
0,64,52,0
0,42,0,4
0,42,41,44
0,42,0,4
0,64,0,35
0,42,63,9
0,59,54,0
0,67,52,0
0,77,58,0
0,42,0,4
0,59,0,0
0,77,0,0
0,67,0,83
0,42,42,9
0,64,52,0
0,42,0,4
0,46,58,44
0,46,0,4
0,37,0,20
0,49,0,4
0,64,0,11
0,61,120,4
0,64,120,0
0,68,120,0
0,52,0,2
0,55,0,0
0,55,0,0
0,58,0,0
0,60,0,0
0,61,0,0
0,64,0,0
0,67,0,0
0,25,121,3
0,25,95,0
0,35,115,0
0,37,121,0
0,37,95,0
0,57,52,0
0,73,102,0
0,76,110,0
0,80,110,0
0,85,110,0
0,35,0,4
0,57,0,0
0,85,0,8
0,61,0,4
0,64,0,0
0,68,0,0
0,73,0,4
0,76,0,0
0,80,0,1
0,25,0,9
0,25,0,0
0,37,0,5
0,37,0,0
0,64,120,0
0,68,120,0
0,71,120,0
0,28,121,5
0,28,95,0
0,35,115,0
0,40,121,0
0,40,95,0
0,49,52,0
0,71,102,0
0,76,110,0
0,80,110,0
0,83,110,0
0,35,0,4
0,49,0,0
0,83,0,272
0,64,0,5
0,68,0,0
0,71,0,0
0,71,0,1
0,76,0,0
0,28,0,4
0,28,0,0
0,80,0,1
0,40,0,7
0,40,0,0
0,64,120,38
0,68,120,0
0,71,120,0
0,28,121,5
0,28,95,0
0,35,115,0
0,40,121,0
0,40,95,0
0,49,52,0
0,71,102,0
0,76,110,0
0,80,110,0
0,83,110,0
0,35,0,4
0,49,0,0
0,64,0,132
0,68,0,0
0,71,0,0
0,71,0,29
0,76,0,1
0,80,0,0
0,83,0,0
0,40,0,4
0,40,0,0
0,28,0,6
0,28,0,0
0,66,120,11
0,70,120,0
0,73,120,0
0,30,121,5
0,30,95,0
0,35,115,0
0,42,121,0
0,42,95,0
0,57,52,0
0,70,102,0
0,73,110,0
0,78,110,0
0,82,110,0
0,35,0,4
0,57,0,0
0,66,0,132
0,70,0,0
0,73,0,0
0,70,0,1
0,42,0,23
0,42,0,0
0,73,0,6
0,78,0,0
0,82,0,0
0,30,0,2
0,30,0,0
0,49,90,19
0,52,90,0
0,56,120,0
0,59,120,0
0,25,121,5
0,25,95,0
0,35,115,0
0,37,121,0
0,37,95,0
0,49,52,0
0,68,102,0
0,73,110,0
0,76,110,0
0,80,110,0
0,35,0,4
0,49,0,0
0,40,101,148
0,40,0,4
0,40,101,36
0,40,0,4
0,40,101,0
0,40,0,4
0,37,0,4
0,37,0,0
0,25,0,4
0,25,0,0
0,56,0,5
0,59,0,0
0,59,74,0
0,61,74,0
0,64,74,0
0,68,74,0
0,68,0,1
0,73,0,0
0,76,0,0
0,80,0,0
0,25,66,3
0,35,86,0
0,35,115,0
0,37,66,0
0,42,41,0
0,35,0,4
0,42,0,0
0,35,0,87
0,37,86,3
0,42,61,0
0,63,66,0
0,42,0,4
0,63,0,0
0,64,59,44
0,77,57,0
0,64,0,4
0,77,0,0
0,37,0,41
0,35,115,3
0,38,98,0
0,40,86,0
0,42,42,0
0,35,0,4
0,38,0,0
0,42,0,0
0,40,0,89
0,42,86,3
0,42,42,0
0,63,46,0
0,77,56,0
0,42,0,4
0,63,0,0
0,77,0,0
0,42,61,44
0,63,62,0
0,42,0,4
0,63,0,0
0,49,0,36
0,52,0,0
0,42,0,5
0,35,115,3
0,37,86,0
0,42,42,0
0,64,42,0
0,35,0,4
0,42,0,0
0,64,0,0
0,37,0,41
0,63,66,3
0,63,0,4
0,42,42,15
0,42,0,4
0,46,61,44
0,64,60,0
0,46,0,4
0,64,0,0
0,25,103,4
0,35,115,40
0,38,98,0
0,39,102,0
0,42,42,0
0,35,0,4
0,38,0,0
0,39,0,0
0,42,0,0
0,25,0,1
0,42,61,91
0,64,68,0
0,42,0,4
0,64,0,0
0,37,86,52
0,35,86,40
0,35,115,0
0,42,42,0
0,35,0,4
0,42,0,0
0,37,0,1
0,35,0,88
0,37,86,3
0,42,61,0
0,63,66,0
0,42,0,4
0,63,0,0
0,64,59,44
0,77,57,0
0,64,0,4
0,77,0,0
0,37,0,41
0,78,48,3
0,35,115,0
0,38,98,0
0,40,86,0
0,42,42,0
0,35,0,4
0,38,0,0
0,42,0,0
0,40,0,1
0,42,86,3
0,42,42,0
0,63,46,0
0,77,56,0
0,42,0,4
0,63,0,0
0,77,0,0
0,42,61,44
0,63,62,0
0,42,0,2
0,63,0,0
0,42,0,9
0,35,115,3
0,37,86,0
0,42,42,0
0,64,42,0
0,35,0,3
0,42,0,0
0,64,0,0
0,37,0,5
0,63,66,3
0,63,0,4
0,42,42,22
0,42,0,4
0,46,61,1
0,64,60,0
0,46,0,4
0,64,0,0
0,25,103,4
0,35,115,9
0,38,98,0
0,39,102,0
0,42,42,0
0,35,0,3
0,38,0,0
0,39,0,0
0,42,0,0
0,25,0,1
0,42,42,1
0,64,68,0
0,42,0,4
0,64,0,0
0,46,62,0
0,46,0,4
0,37,86,4
0,35,86,3
0,35,115,0
0,42,41,0
0,35,0,4
0,42,0,0
0,37,0,1
0,35,0,1
0,37,86,3
0,42,61,0
0,63,66,0
0,42,0,4
0,63,0,0
0,64,59,10
0,77,57,0
0,64,0,4
0,77,0,0
0,37,0,16
0,35,115,3
0,38,98,0
0,40,86,0
0,42,42,0
0,35,0,4
0,38,0,0
0,42,0,0
0,40,0,11
0,42,86,3
0,42,42,0
0,63,46,0
0,77,56,0
0,42,0,4
0,63,0,0
0,77,0,0
0,42,61,13
0,63,62,0
0,42,0,4
0,63,0,0
0,78,0,13
0,42,0,0
0,35,115,3
0,37,86,0
0,42,42,0
0,64,42,0
0,35,0,4
0,42,0,0
0,64,0,0
0,37,0,11
0,63,66,3
0,63,0,3
0,42,42,5
0,42,0,4
0,46,61,4
0,64,60,0
0,46,0,4
0,64,0,0
0,25,103,1
0,35,115,40
0,38,98,0
0,39,102,0
0,42,42,0
0,35,0,4
0,38,0,0
0,39,0,0
0,42,0,0
0,25,0,1
0,42,61,61
0,64,68,0
0,42,0,4
0,64,0,0
0,37,86,30
0,35,86,40
0,35,115,0
0,42,42,0
0,35,0,4
0,42,0,0
0,37,0,1
0,35,0,83
0,37,86,3
0,42,61,0
0,63,66,0
0,42,0,4
0,63,0,0
0,64,59,43
0,77,57,0
0,64,0,4
0,77,0,0
0,37,0,41
0,35,115,3
0,38,98,0
0,40,86,0
0,42,42,0
0,35,0,4
0,38,0,0
0,42,0,0
0,40,0,74
0,42,86,3
0,42,42,0
0,63,46,0
0,77,56,0
0,42,0,4
0,63,0,0
0,77,0,0
0,42,61,31
0,63,62,0
0,42,0,4
0,63,0,0
0,42,0,41
0,35,115,2
0,37,86,0
0,42,42,0
0,64,42,0
0,35,0,4
0,42,0,0
0,64,0,0
0,37,0,41
0,63,66,3
0,63,0,4
0,42,42,14
0,85,83,0
0,42,0,4
0,46,61,44
0,64,60,0
0,46,0,4
0,64,0,0
0,25,102,4
0,35,115,24
0,38,98,0
