track,note,velocity,time
1,36,61,18240
1,37,69,240
1,36,40,48
1,36,53,28
1,37,82,240
1,36,70,82
1,37,77,240
1,36,56,58
1,36,61,25
1,36,61,118
1,37,69,240
1,36,40,48
1,36,53,28
1,37,82,240
1,36,61,82
1,37,69,240
1,36,40,48
1,36,53,28
1,37,82,240
1,36,61,82
1,37,69,240
1,36,40,48
1,36,53,28
1,37,82,240
1,36,61,82
1,37,69,240
1,36,40,48
1,36,53,28
1,37,82,240
1,36,61,82
1,37,69,240
1,36,40,48
1,36,53,28
1,37,82,240
1,36,61,82
1,37,69,240
1,36,40,48
1,36,53,28
1,37,82,240
1,36,61,82
1,37,69,240
1,36,40,48
1,36,53,28
1,37,82,240
1,36,61,82
1,37,69,240
1,36,40,48
1,36,53,28
1,37,82,240
1,36,61,82
1,37,69,240
1,36,40,48
1,36,53,28
1,37,82,240
1,36,61,82
1,37,69,240
1,36,40,48
1,36,53,28
1,37,82,240
1,36,61,82
1,37,69,240
1,36,40,48
1,36,53,28
1,37,82,240
1,36,61,82
1,37,69,240
1,36,40,48
1,36,53,28
1,37,82,240
1,36,61,82
1,37,69,240
1,36,40,48
1,36,53,28
1,37,82,240
1,36,61,82
1,37,69,240
1,36,40,48
1,36,53,28
1,37,82,240
1,36,61,82
1,37,69,240
1,36,40,48
1,36,53,28
1,37,82,240
1,36,61,82
1,37,69,240
1,36,40,48
1,36,53,28
1,37,82,240
1,36,61,82
1,37,69,240
1,36,40,48
1,36,53,28
1,37,82,240
1,36,61,82
1,37,69,240
1,36,40,48
1,36,53,28
1,37,82,240
1,36,61,82
1,37,69,240
1,36,40,48
1,36,53,28
1,37,82,240
1,36,61,82
1,37,69,240
1,36,40,48
1,36,53,28
1,37,82,240
1,36,61,82
1,37,69,240
1,36,40,48
1,36,53,28
1,37,82,240
1,36,61,82
1,37,69,240
1,36,40,48
1,36,53,28
1,37,82,240
1,36,61,82
1,37,69,240
1,36,40,48
1,36,53,28
1,37,82,240
1,36,61,82
1,37,69,240
1,36,40,48
1,36,53,28
1,37,82,240
1,36,61,82
1,37,69,240
1,36,40,48
1,36,53,28
1,37,82,240
1,36,61,82
1,37,69,240
1,36,40,48
1,36,53,28
1,37,82,240
1,36,61,82
1,37,69,240
1,36,40,48
1,36,53,28
1,37,82,240
1,36,61,82
1,37,69,240
1,36,40,48
1,36,53,28
1,37,82,240
1,36,61,82
1,37,69,240
1,36,40,48
1,36,53,28
1,37,82,240
1,36,61,82
1,37,69,240
1,36,40,48
1,36,53,28
1,37,82,240
1,36,61,82
1,37,69,240
1,36,40,48
1,36,53,28
1,37,82,240
1,36,61,82
1,37,69,240
1,36,40,48
1,36,53,28
1,37,82,240
1,36,61,82
1,37,69,240
1,36,40,48
1,36,53,28
1,37,82,240
1,36,61,82
1,37,69,240
1,36,40,48
1,36,53,28
1,37,82,240
1,36,61,82
1,37,69,240
1,36,40,48
1,36,53,28
1,37,82,240
1,36,61,82
1,37,69,240
1,36,40,48
1,36,53,28
1,37,82,240
1,36,61,82
1,37,69,240
1,36,40,48
1,36,53,28
1,37,82,240
1,36,61,82
1,37,69,240
1,36,40,48
1,36,53,28
1,37,82,240
1,36,61,82
1,37,69,240
1,36,40,48
1,36,53,28
1,37,82,240
1,36,61,82
1,37,69,240
1,36,40,48
1,36,53,28
1,37,82,240
1,36,61,82
1,37,69,240
1,36,40,48
1,36,53,28
1,37,82,240
1,36,83,82
1,37,93,240
1,36,55,48
1,36,73,28
1,37,100,240
1,36,83,82
1,37,93,240
1,36,55,48
1,36,73,28
1,37,100,240
1,36,83,82
1,37,93,240
1,36,55,48
1,36,73,28
1,37,100,240
1,36,83,82
1,37,93,240
1,36,55,48
1,36,73,28
1,37,100,240
1,36,83,82
1,37,93,240
1,36,55,48
1,36,73,28
1,37,100,240
1,36,83,82
1,37,93,240
1,36,55,48
1,36,73,28
1,37,100,240
1,36,83,82
1,37,93,240
1,36,55,48
1,36,73,28
1,37,100,240
1,36,86,82
1,36,80,52
1,37,97,60
1,36,93,16
1,47,40,171
1,47,80,38
1,37,97,60
1,36,61,137
1,37,69,240
1,36,40,48
1,36,53,28
1,37,82,240
1,36,61,82
1,37,69,240
1,36,40,48
1,36,53,28
1,37,82,240
1,36,61,82
1,37,69,240
1,36,40,48
1,36,53,28
1,37,82,240
1,36,61,82
1,37,69,240
1,36,40,48
1,36,53,28
1,37,82,240
1,36,61,82
1,37,69,240
1,36,40,48
1,36,53,28
1,37,82,240
1,36,61,82
1,37,69,240
1,36,40,48
1,36,53,28
1,37,82,240
1,36,61,82
1,37,69,240
1,36,40,48
1,36,53,28
1,37,82,240
1,36,61,82
1,37,69,240
1,36,40,48
1,36,53,28
1,37,82,240
1,36,61,82
1,37,69,240
1,36,40,48
1,36,53,28
1,37,82,240
1,36,61,82
1,37,69,240
1,36,40,48
1,36,53,28
1,37,82,240
1,36,61,82
1,37,69,240
1,36,40,48
1,36,53,28
1,37,82,240
1,36,61,82
1,37,69,240
1,36,40,48
1,36,53,28
1,37,82,240
1,36,61,82
1,37,69,240
1,36,40,48
1,36,53,28
1,37,82,240
1,36,61,82
1,37,69,240
1,36,40,48
1,36,53,28
1,37,82,240
1,36,61,82
1,37,69,240
1,36,40,48
1,36,53,28
1,37,82,240
1,36,61,82
1,37,69,240
1,36,40,48
1,36,53,28
1,37,82,240
1,36,61,82
1,37,69,240
1,36,40,48
1,36,53,28
1,37,82,240
1,36,61,82
1,37,69,240
1,36,40,48
1,36,53,28
1,37,82,240
1,36,61,82
1,37,69,240
1,36,40,48
1,36,53,28
1,37,82,240
1,36,61,82
1,37,69,240
1,36,40,48
1,36,53,28
1,37,82,240
1,36,61,82
1,38,69,240
1,36,40,48
1,36,53,28
1,38,82,240
1,36,61,82
1,38,69,240
1,36,40,48
1,36,53,28
1,38,82,240
1,36,61,82
1,38,69,240
1,36,40,48
1,36,53,28
1,38,82,240
1,36,61,82
1,38,69,240
1,36,40,48
1,36,53,28
1,38,82,240
1,36,61,82
1,38,69,240
1,36,40,48
1,36,53,28
1,38,82,240
1,36,61,82
1,38,69,240
1,36,40,48
1,36,53,28
1,38,82,240
1,36,61,82
1,38,69,240
1,36,40,48
1,36,53,28
1,38,82,240
1,36,61,82
1,38,69,240
1,36,40,48
1,36,53,28
1,38,82,240
1,36,61,82
1,38,69,240
1,36,40,48
1,36,53,28
1,38,82,240
1,36,61,82
1,38,69,240
1,36,40,48
1,36,53,28
1,38,82,240
1,36,61,82
1,38,69,240
1,36,40,48
1,36,53,28
1,38,82,240
1,36,61,82
1,38,69,240
1,36,40,48
1,36,53,28
1,38,82,240
1,36,61,82
1,38,69,240
1,36,40,48
1,36,53,28
1,38,82,240
1,36,61,82
1,38,69,240
1,36,40,48
1,36,53,28
1,38,82,240
1,36,61,82
1,38,69,240
1,36,40,48
1,36,53,28
1,38,82,240
1,36,61,82
1,38,69,240
1,36,40,48
1,36,53,28
1,38,82,240
1,36,61,82
1,38,69,240
1,36,40,48
1,36,53,28
1,38,82,240
1,36,61,82
1,38,69,240
1,36,40,48
1,36,53,28
1,38,82,240
1,36,61,82
1,38,69,240
1,36,40,48
1,36,53,28
1,38,82,240
1,36,61,82
1,38,69,240
1,36,40,48
1,36,53,28
1,38,82,240
1,36,61,82
1,38,69,240
1,36,40,48
1,36,53,28
1,38,82,240
1,36,61,82
1,38,69,240
1,36,40,48
1,36,53,28
1,38,82,240
1,36,61,82
1,38,69,240
1,36,40,48
1,36,53,28
1,38,82,240
1,36,61,82
1,38,69,240
1,36,40,48
1,36,53,28
1,38,82,240
1,36,61,82
1,38,69,240
1,36,40,48
1,36,53,28
1,38,82,240
1,36,61,82
1,38,69,240
1,36,40,48
1,36,53,28
1,38,82,240
1,36,61,82
1,38,69,240
1,36,40,48
1,36,53,28
1,38,82,240
1,36,61,82
1,38,69,240
1,36,40,48
1,36,53,28
1,38,82,240
1,36,61,82
1,38,69,240
1,36,40,48
1,36,53,28
1,38,82,240
1,36,61,82
1,37,69,240
1,36,40,48
1,36,53,28
1,37,82,240
1,36,61,82
1,37,69,240
1,36,40,48
1,36,53,28
1,37,82,240
1,36,61,82
1,37,69,240
1,36,40,48
1,36,53,28
1,37,82,240
1,36,61,82
1,37,69,240
1,36,40,48
1,36,53,28
1,37,82,240
1,36,61,82
1,37,69,240
1,36,40,48
1,36,53,28
1,37,82,240
1,36,72,82
2,42,40,17880
2,42,40,101
2,46,40,9
2,42,40,12
2,42,40,76
2,42,40,89
2,42,40,80
2,42,40,89
2,42,40,81
2,42,40,86
2,42,40,73
2,42,40,80
2,42,40,83
2,42,40,85
2,42,40,65
2,42,40,84
2,42,40,68
2,42,40,80
2,46,40,21
2,42,40,16
2,42,40,54
2,42,40,76
2,42,40,60
2,42,40,84
2,42,40,77
2,42,40,85
2,46,40,94
2,42,40,102
2,42,40,102
2,42,40,101
2,42,40,99
2,42,40,102
2,42,40,98
2,42,40,99
2,46,42,101
2,42,40,112
2,42,40,54
2,42,40,76
2,42,40,60
2,42,40,84
2,42,40,77
2,42,40,85
2,46,40,94
2,42,40,102
2,42,40,102
2,42,40,101
2,42,40,99
2,42,40,102
2,42,40,98
2,42,40,99
2,46,42,101
2,42,40,112
2,42,40,54
2,42,40,76
2,42,40,60
2,42,40,84
2,42,40,77
2,42,40,85
2,46,40,94
2,42,40,102
2,42,40,102
2,42,40,101
2,42,40,99
2,42,40,102
2,42,40,98
2,42,40,99
2,46,42,101
2,42,40,112
2,42,40,54
2,42,40,76
2,42,40,60
2,42,40,84
2,42,40,77
2,42,40,85
2,46,40,94
2,42,40,102
2,42,40,102
2,42,40,101
2,42,40,99
2,42,40,102
2,42,40,98
2,42,40,99
2,46,42,101
2,42,40,112
2,42,40,54
2,42,40,76
2,42,40,60
2,42,40,84
2,42,40,77
2,42,40,85
2,46,40,94
2,42,40,102
2,42,40,102
2,42,40,101
2,42,40,99
2,42,40,102
2,42,40,98
2,42,40,99
2,46,42,101
2,42,40,112
2,42,40,54
2,42,40,76
2,42,40,60
2,42,40,84
2,42,40,77
2,42,40,85
2,46,40,94
2,42,40,102
2,42,40,102
2,42,40,101
2,42,40,99
2,42,40,102
2,42,40,98
2,42,40,99
2,46,42,101
2,42,40,112
2,42,40,54
2,42,40,76
2,42,40,60
2,42,40,84
2,42,40,77
2,42,40,85
2,46,40,94
2,42,40,102
2,42,40,102
2,42,40,101
2,42,40,99
2,42,40,102
2,42,40,98
2,42,40,99
2,46,42,101
2,42,40,112
2,42,40,54
2,42,40,76
2,42,40,60
2,42,40,84
2,42,40,77
2,42,40,85
2,46,40,94
2,42,40,102
2,42,40,102
2,42,40,101
2,42,40,99
2,42,40,102
2,42,40,98
2,42,40,99
2,46,42,101
2,42,40,112
2,42,40,54
2,42,40,76
2,42,40,60
2,42,40,84
2,42,40,77
2,42,40,85
2,46,40,94
2,42,40,102
2,42,40,102
2,42,40,101
2,42,40,99
2,42,40,102
2,42,40,98
2,42,40,99
2,46,42,101
2,42,40,112
2,42,40,54
2,42,40,76
2,42,40,60
2,42,40,84
2,42,40,77
2,42,40,85
2,46,40,94
2,42,40,102
2,42,40,102
2,42,40,101
2,42,40,99
2,42,40,102
2,42,40,98
2,42,40,99
2,46,42,101
2,42,40,112
2,42,40,102
2,42,40,101
2,42,40,99
2,42,40,102
2,42,40,98
2,42,40,99
2,46,42,101
2,42,40,112
2,42,40,54
2,42,40,76
2,42,40,60
2,42,40,84
2,42,40,77
2,42,40,85
2,46,40,94
2,42,40,102
2,42,40,102
2,42,40,101
2,42,40,99
2,42,40,102
2,42,40,98
2,42,40,99
2,46,42,101
2,42,40,112
2,42,40,54
2,42,40,76
2,42,40,60
2,42,40,84
2,42,40,77
2,42,40,85
2,46,40,94
2,42,40,102
2,42,40,102
2,42,40,101
2,42,40,99
2,42,40,102
2,42,40,98
2,42,40,99
2,46,42,101
2,42,40,112
2,42,40,54
2,42,40,76
2,42,40,60
2,42,40,84
2,42,40,77
2,42,40,85
2,46,40,94
2,42,40,102
2,42,40,102
2,42,40,101
2,42,40,99
2,42,40,102
2,42,40,98
2,42,40,99
2,46,42,101
2,42,40,112
2,42,40,54
2,42,40,76
2,42,40,60
2,42,40,84
2,42,40,77
2,42,40,85
2,46,40,94
2,42,40,102
2,42,40,102
2,42,40,101
2,42,40,99
2,42,40,102
2,42,40,98
2,42,40,99
2,46,42,101
2,42,40,112
2,42,40,54
2,42,40,76
2,42,40,60
2,42,40,84
2,42,40,77
2,42,40,85
2,46,40,94
2,42,40,102
2,42,40,102
2,42,40,101
2,42,40,99
2,42,40,102
2,42,40,98
2,42,40,99
2,46,42,101
2,42,40,112
2,42,40,54
2,42,40,76
2,42,40,60
2,42,40,84
2,42,40,77
2,42,40,85
2,46,40,94
2,42,40,102
2,42,40,102
2,42,40,101
2,42,40,99
2,42,40,102
2,42,40,98
2,42,40,99
2,46,42,101
2,42,40,112
2,42,40,54
2,42,40,76
2,42,40,60
2,42,40,84
2,42,40,77
2,42,40,85
2,46,40,94
2,42,40,102
2,42,40,102
2,42,40,101
2,42,40,99
2,42,40,102
2,42,40,98
2,42,40,99
2,46,42,101
2,42,40,112
2,42,40,54
2,42,40,76
2,42,40,60
2,42,40,84
2,42,40,77
2,42,40,85
2,46,40,94
2,42,40,102
2,42,40,102
2,42,40,101
2,42,40,99
2,42,40,102
2,42,40,98
2,42,40,99
2,46,42,101
2,42,40,112
2,42,40,54
2,42,40,76
2,42,40,60
2,42,40,84
2,42,40,77
2,42,40,85
2,46,40,94
2,42,40,102
2,42,40,102
2,42,40,101
2,42,40,99
2,42,40,102
2,42,40,98
2,42,40,99
2,46,42,101
2,42,40,112
2,42,40,54
2,42,40,76
2,42,40,60
2,42,40,84
2,42,40,77
2,42,40,85
2,46,40,94
2,42,40,102
2,42,40,102
2,42,40,101
2,42,40,99
2,42,40,102
2,42,40,98
2,42,40,99
2,46,42,101
2,42,40,112
2,42,40,102
2,42,40,101
2,42,40,99
2,42,40,102
2,42,40,98
2,42,40,99
2,46,42,101
2,42,40,112
2,42,40,102
2,42,40,101
2,42,40,99
2,42,40,102
2,42,40,98
2,42,40,99
2,46,42,101
2,42,40,112
2,42,40,102
2,42,40,101
2,42,40,99
2,42,40,102
2,42,40,98
2,42,40,99
2,46,42,101
2,42,40,112
2,42,40,102
2,42,40,101
2,42,40,99
2,42,40,102
2,42,40,98
2,42,40,99
2,46,42,101
2,42,40,112
2,42,40,102
2,42,40,101
2,42,40,99
2,42,40,102
2,42,40,98
2,42,40,99
2,46,42,101
2,42,40,112
2,42,40,102
2,42,40,101
2,42,40,99
2,42,40,102
2,42,40,98
2,42,40,99
2,46,42,101
2,42,40,112
2,42,40,102
2,42,40,101
2,42,40,99
2,42,40,102
2,42,40,98
2,42,40,99
2,46,42,101
2,42,40,112
2,46,40,26
2,42,40,3
2,46,40,25
2,42,40,13
2,46,40,38
2,42,40,9
2,46,40,304
2,42,40,43
2,42,40,54
2,42,40,76
2,42,40,60
2,42,40,84
2,42,40,77
2,42,40,85
2,46,40,94
2,42,40,102
2,42,40,102
2,42,40,101
2,42,40,99
2,42,40,102
2,42,40,98
2,42,40,99
2,46,42,101
2,42,40,112
2,42,40,54
2,42,40,76
2,42,40,60
2,42,40,84
2,42,40,77
2,42,40,85
2,46,40,94
2,42,40,102
2,42,40,102
2,42,40,101
2,42,40,99
2,42,40,102
2,42,40,98
2,42,40,99
2,46,42,101
2,42,40,112
2,42,40,54
2,42,40,76
2,42,40,60
2,42,40,84
2,42,40,77
2,42,40,85
2,46,40,94
2,42,40,102
2,42,40,102
2,42,40,101
2,42,40,99
2,42,40,102
2,42,40,98
2,42,40,99
2,46,42,101
2,42,40,112
2,42,40,54
2,42,40,76
2,42,40,60
2,42,40,84
2,42,40,77
2,42,40,85
2,46,40,94
2,42,40,102
2,42,40,102
2,42,40,101
2,42,40,99
2,42,40,102
2,42,40,98
