track,note,velocity,time
3,47,30,2823
3,40,31,11
3,35,30,2
3,45,24,192
3,40,27,4
3,47,32,192
3,45,25,185
3,40,48,380
3,43,42,766
3,44,38,2
3,46,31,192
3,47,27,183
3,44,36,92
3,45,31,91
3,33,34,1
3,32,31,192
3,37,31,189
3,42,28,185
3,40,39,159
3,39,48,8
3,44,40,3
3,36,37,3
3,37,26,96
3,49,31,8
3,47,37,48
3,45,32,42
3,44,31,1
3,42,29,7
3,47,30,192
3,40,30,191
3,44,35,8
3,45,42,192
3,40,19,3
3,40,31,58
3,40,34,28
3,43,46,6
3,44,35,2
3,34,42,192
3,35,31,2
3,32,36,96
3,33,54,93
3,45,48,4
3,44,40,192
3,37,37,192
3,42,40,191
3,40,50,1
3,39,54,48
3,44,46,190
3,36,39,92
3,37,38,4
3,49,32,4
3,47,46,1
3,45,40,1
3,44,42,4
3,42,31,96
3,47,30,2
3,35,30,4
3,40,38,96
3,44,35,1
3,38,39,96
3,38,58,12
3,37,46,192
3,37,38,18
3,35,50,2
3,35,56,12
3,37,52,48
3,38,60,2
3,45,46,11
3,50,50,1
3,45,35,19
3,38,50,3
3,33,54,13
3,33,56,35
3,28,60,3
3,28,60,20
3,30,54,48
3,31,64,3
3,43,56,3
3,42,50,96
3,30,52,167
3,42,54,24
3,42,50,8
3,40,56,24
3,39,56,4
3,37,44,48
3,35,52,6
3,33,42,48
3,32,35,7
3,30,36,24
3,35,37,165
3,47,30,186
3,40,42,11
3,35,12,37
3,40,44,2
3,40,56,29
3,43,58,48
3,44,44,189
3,32,56,136
3,34,48,45
3,35,39,187
3,32,58,86
3,33,64,91
3,45,60,2
3,33,52,144
3,32,68,43
3,37,44,185
3,32,22,176
3,31,35,0
3,30,60,17
3,42,80,72
3,40,50,68
3,39,56,24
3,32,54,190
3,36,36,92
3,37,24,93
3,35,46,4
3,33,40,48
3,45,36,0
3,44,44,48
3,42,35,48
3,35,42,188
3,40,25,192
3,32,36,7
3,33,34,192
3,35,40,181
3,40,38,188
4,52,27,2962
4,56,36,0
4,40,19,0
4,64,39,0
4,47,11,0
4,76,58,34
4,75,42,3
4,76,56,2
4,44,25,1
4,52,28,0
4,59,35,0
4,66,44,0
4,64,30,0
4,71,27,0
4,76,68,4
4,75,54,47
4,76,64,2
4,54,31,26
4,66,42,0
4,64,35,0
4,45,28,0
4,61,21,0
4,57,1,0
4,47,31,8
4,52,20,1
4,68,38,0
4,40,28,0
4,64,32,0
4,76,56,30
4,75,52,1
4,76,64,47
4,44,18,1
4,52,37,0
4,59,25,0
4,71,58,0
4,64,46,0
4,76,56,17
4,75,56,10
4,76,60,1
4,45,27,36
4,66,36,0
4,64,35,0
4,57,24,0
4,61,35,0
4,47,22,47
4,59,39,24
4,52,31,0
4,64,54,0
4,40,26,0
4,57,42,0
4,52,27,46
4,56,31,0
4,47,19,18
4,52,25,5
4,64,34,0
4,59,29,0
4,57,23,0
4,52,25,2
4,56,33,0
4,47,23,39
4,59,35,9
4,68,35,0
4,64,50,0
4,56,22,0
4,58,52,29
4,67,56,0
4,64,58,0
4,61,54,0
4,49,24,0
4,68,40,1
4,56,31,0
4,59,31,0
4,52,32,0
4,64,37,0
4,59,48,1
4,64,56,17
4,55,48,0
4,70,60,0
4,67,58,0
4,61,54,0
4,56,46,2
4,64,48,0
4,71,48,0
4,66,37,0
4,59,22,0
4,52,8,44
4,71,50,0
4,76,62,0
4,44,28,48
4,45,44,4
4,64,50,0
4,57,48,0
4,69,52,0
4,73,39,0
4,54,26,11
4,73,52,31
4,57,37,0
4,66,42,0
4,63,29,0
4,69,36,0
4,59,32,2
4,71,37,0
4,54,35,0
4,66,38,0
4,63,32,0
4,44,27,0
4,49,42,4
4,64,46,0
4,56,27,0
4,66,44,41
4,68,44,4
4,42,42,14
4,69,66,0
4,57,52,0
4,66,62,0
4,61,54,0
4,54,29,0
4,40,19,3
4,39,50,3
4,61,52,0
4,71,56,0
4,66,60,0
4,54,1,0
4,44,31,37
4,54,32,0
4,66,37,0
4,60,25,0
4,69,44,0
4,68,42,3
4,60,31,0
4,54,27,0
4,66,39,0
4,56,37,48
4,64,50,0
4,37,22,0
4,52,11,0
4,52,29,4
4,73,54,2
4,75,54,24
4,47,29,0
4,45,44,0
4,64,42,0
4,73,42,0
4,76,62,0
4,69,40,0
4,64,54,40
4,59,39,0
4,44,31,0
4,63,46,0
4,52,1,0
4,54,19,1
4,57,28,0
4,49,29,0
4,42,18,0
4,61,37,0
4,47,17,84
4,54,27,3
4,57,23,0
4,59,35,0
4,63,37,0
4,52,22,61
4,64,29,0
4,47,26,0
4,40,1,0
4,68,34,5
4,76,56,0
4,75,54,8
4,76,56,1
4,44,22,1
4,52,33,0
4,64,31,0
4,59,24,0
4,71,29,0
4,76,54,23
4,75,28,5
4,76,64,1
4,45,18,33
4,66,37,0
4,64,30,0
4,61,36,0
4,57,14,0
4,47,26,47
4,40,19,0
4,52,26,0
4,59,24,0
4,64,44,0
4,57,38,0
4,47,21,6
4,52,30,3
4,56,37,0
4,47,23,4
4,64,44,1
4,59,44,0
4,52,30,0
4,57,38,0
4,40,2,0
4,47,39,61
4,52,31,17
4,59,58,14
4,57,58,0
4,64,56,0
4,52,36,3
4,56,36,0
4,47,28,8
4,64,31,26
4,68,36,0
4,59,26,0
4,61,46,16
4,58,34,0
4,64,60,0
4,67,58,0
4,55,16,0
4,49,28,70
4,68,40,26
4,59,46,0
4,64,58,0
4,52,38,0
4,59,29,3
4,71,44,7
4,68,54,0
4,61,44,3
4,73,50,0
4,64,58,0
4,55,44,0
4,67,46,0
4,70,52,0
4,56,35,33
4,71,54,0
4,64,30,0
4,66,48,0
4,76,58,6
4,64,54,0
4,71,54,0
4,68,46,0
4,44,38,48
4,56,31,0
4,45,33,5
4,64,48,0
4,69,48,0
4,73,38,0
4,57,28,0
4,54,34,3
4,73,52,2
4,57,36,0
4,63,38,0
4,66,40,0
4,69,44,0
4,54,33,45
4,66,44,10
4,68,62,15
4,69,58,18
4,71,62,21
4,59,39,0
4,66,46,0
4,54,26,0
4,44,28,0
4,63,36,69
4,54,23,0
4,44,27,48
4,56,31,21
4,64,46,0
4,59,31,0
4,49,28,0
4,56,29,20
4,49,39,1
4,57,44,2
4,42,40,0
4,66,58,0
4,61,54,0
4,69,58,0
4,54,32,0
4,61,30,16
4,40,31,5
4,51,44,19
4,39,48,0
4,71,64,0
4,63,50,0
4,69,66,8
4,63,62,0
4,51,20,49
4,44,35,6
4,68,48,0
4,66,39,0
4,54,24,0
4,60,34,0
4,48,38,18
4,60,25,0
4,63,38,0
4,66,36,0
4,56,27,21
4,64,39,0
4,61,34,0
4,49,36,0
4,59,32,0
4,56,29,12
4,47,48,20
4,73,50,0
4,75,44,2
4,76,64,0
4,69,48,0
4,73,34,0
4,45,30,0
4,57,19,0
4,64,27,0
4,78,54,5
4,66,29,2
4,75,38,0
4,73,34,1
4,76,50,0
4,64,21,0
4,57,27,0
4,69,32,0
4,61,23,36
4,64,32,0
4,44,20,42
4,52,13,0
4,59,34,0
4,63,39,0
4,52,25,34
4,42,21,0
4,57,35,0
4,61,32,0
4,73,40,20
4,73,38,4
4,47,30,0
4,64,31,0
4,57,22,0
4,69,28,0
4,76,56,9
4,69,54,0
4,75,38,4
4,66,32,0
4,52,28,6
4,40,31,0
4,68,44,0
4,76,38,0
4,47,36,12
4,76,56,0
4,75,42,4
4,76,64,48
4,66,44,5
4,59,25,0
4,71,38,0
4,64,31,0
4,76,62,11
4,52,37,3
4,75,54,0
4,76,56,3
4,59,1,0
4,67,54,19
4,71,54,0
4,50,40,0
4,38,42,0
4,62,52,0
4,59,26,0
4,59,31,16
4,62,42,0
4,50,27,48
4,57,39,7
4,50,29,0
4,62,66,6
4,69,60,0
4,66,66,0
4,50,46,35
4,66,40,14
4,62,56,0
4,57,36,0
4,38,60,0
4,49,42,4
4,37,50,0
4,69,56,0
4,57,60,0
4,61,52,0
4,64,58,0
4,64,34,37
4,61,39,0
4,49,42,0
4,57,37,0
4,47,36,2
4,59,36,0
4,35,42,0
4,68,32,0
4,64,46,0
4,59,38,6
4,68,66,17
4,59,56,0
4,64,60,0
4,47,44,0
4,49,50,5
4,37,52,0
4,64,64,0
4,69,66,0
4,71,56,2
4,67,52,0
4,62,42,0
4,38,54,0
4,50,38,0
4,62,52,5
4,71,58,0
4,67,60,0
4,59,22,48
4,62,37,6
4,57,50,8
4,50,32,0
4,62,44,0
4,69,42,0
4,66,44,0
4,69,48,13
4,66,46,0
4,62,52,0
4,57,28,1
4,52,46,11
4,69,48,0
4,45,54,0
4,57,36,0
4,61,42,0
4,64,36,0
4,69,54,38
4,57,38,0
4,45,40,0
4,61,48,0
4,64,48,0
4,68,42,3
4,52,38,0
4,59,38,0
4,40,39,0
4,64,44,0
4,47,35,68
4,52,35,9
4,52,25,7
4,59,66,0
4,64,64,0
4,68,58,0
4,40,58,0
4,66,52,1
4,69,60,0
4,42,52,0
4,54,44,0
4,67,54,4
4,71,60,0
4,43,37,0
4,55,34,0
4,62,62,0
4,59,42,28
4,67,54,0
4,62,50,0
4,55,37,2
4,50,34,4
4,69,52,2
4,54,38,0
4,57,48,0
4,62,58,0
4,42,38,0
4,66,56,0
4,57,56,22
4,62,62,0
4,66,52,0
4,54,29,7
4,68,46,14
4,56,48,0
4,54,38,0
4,42,38,0
4,60,48,0
4,63,48,0
4,56,40,40
4,54,27,0
4,60,46,0
4,63,48,0
4,40,48,6
4,56,54,0
4,68,56,0
4,64,60,0
4,52,39,0
4,61,58,0
4,51,38,9
4,39,39,0
4,56,37,0
4,66,48,0
4,63,27,0
4,68,1,0
4,56,44,15
4,49,39,0
4,61,54,0
4,64,62,0
4,37,38,0
4,47,60,1
4,35,54,0
4,64,56,30
4,57,46,0
4,59,48,0
4,33,46,0
4,45,44,0
4,61,46,0
4,61,40,27
4,57,36,0
4,44,22,48
4,42,26,18
4,57,30,0
4,52,21,0
4,61,38,0
4,59,39,0
4,61,37,1
4,57,37,0
4,54,26,4
4,54,30,20
4,57,44,3
4,47,31,0
4,59,31,0
4,66,22,0
4,64,27,0
4,54,34,43
4,59,31,48
4,83,46,48
4,78,37,5
4,71,39,2
4,66,52,18
4,57,30,24
4,59,34,0
4,54,22,26
4,59,52,21
4,52,20,0
4,64,56,0
4,57,36,0
4,40,23,0
4,47,32,113
4,54,16,2
4,56,32,0
4,47,25,49
4,59,40,5
4,64,52,0
4,52,31,0
4,69,52,0
4,69,62,23
4,68,44,24
4,66,42,23
4,71,30,21
4,52,31,11
4,68,38,0
4,64,39,0
4,52,37,17
4,56,31,18
4,59,60,7
4,64,52,24
4,67,66,21
4,55,32,0
4,49,38,0
4,61,54,0
4,58,46,0
4,55,36,1
4,52,36,3
4,59,46,0
4,64,54,0
4,68,40,0
4,59,46,4
4,68,42,3
4,64,52,0
4,71,37,24
4,55,48,1
4,73,56,0
4,67,58,0
4,64,39,0
4,70,54,0
4,64,36,35
4,61,33,48
4,56,40,7
4,71,56,0
4,68,54,0
4,64,46,0
4,64,31,13
4,64,17,5
4,64,54,1
4,71,50,0
4,76,62,0
4,59,40,0
4,44,32,0
4,52,34,7
4,45,50,10
4,69,60,0
4,73,56,0
4,64,62,0
4,57,48,0
4,52,46,1
4,59,40,44
4,64,39,0
4,61,40,0
4,66,54,13
4,45,40,0
4,59,48,0
4,57,36,0
4,63,48,0
4,54,40,26
4,57,56,47
4,59,44,8
4,54,46,3
4,71,56,0
4,59,44,0
4,63,60,0
4,44,52,0
4,66,58,0
4,66,48,11
4,63,44,0
4,59,30,0
4,54,38,48
4,59,48,3
4,61,56,1
4,64,64,0
4,49,46,0
4,56,62,6
4,61,50,24
4,64,50,24
4,66,76,6
4,68,64,8
4,49,42,13
4,61,52,1
4,57,38,0
4,69,64,0
4,42,46,0
4,66,40,0
4,54,38,0
4,49,44,2
4,54,34,0
4,61,68,16
4,66,66,0
4,57,68,0
4,46,31,7
4,39,56,3
4,63,66,0
4,71,62,0
4,51,54,0
4,69,68,37
4,63,68,0
4,51,28,24
4,51,33,0
4,44,50,1
4,54,35,0
4,68,62,0
4,61,60,0
4,66,42,0
4,66,54,2
4,56,46,0
4,60,46,0
4,63,52,0
4,48,54,0
4,64,40,3
4,61,39,0
4,49,32,0
4,56,44,0
4,68,38,39
4,61,38,0
4,64,46,0
4,73,52,25
4,47,40,0
4,75,52,9
4,45,44,3
4,76,64,0
4,64,56,0
4,69,62,0
4,73,52,0
4,57,37,0
4,52,31,4
4,78,50,29
4,71,60,0
4,75,34,0
4,75,44,52
4,76,60,2
4,57,26,0
4,69,36,0
4,73,22,0
4,64,17,0
4,52,37,2
4,57,33,43
4,64,22,0
4,61,29,0
4,59,48,5
4,44,35,0
4,63,39,0
4,61,42,36
4,57,28,0
4,42,28,0
4,54,21,0
4,73,36,2
4,69,42,0
4,64,26,0
4,57,1,0
4,47,4,3
4,76,38,48
4,75,42,20
4,66,34,0
4,52,24,21
4,76,46,0
4,40,28,0
4,68,54,0
4,76,64,16
4,75,44,1
4,76,56,3
4,44,28,4
4,66,36,0
4,64,23,0
4,71,31,0
4,59,29,0
4,76,54,26
4,75,46,1
4,76,32,2
4,45,30,40
4,66,48,0
4,64,34,0
4,57,20,0
4,61,31,0
4,57,36,73
4,47,34,16
4,59,27,0
4,64,24,0
4,61,28,0
4,57,27,30
4,59,19,0
4,63,38,0
4,54,7,0
4,59,30,50
4,52,28,0
4,40,31,0
4,64,42,0
4,68,42,0
5,59,40,4565
5,69,64,24
5,68,44,1
5,66,42,26
5,68,33,31
5,64,35,453
5,73,64,3
5,71,58,38
5,70,42,24
5,71,46,28
5,64,40,368
5,73,40,27
5,73,40,7
5,71,56,32
5,73,38,27
5,78,56,49
5,75,40,125
5,71,37,2
5,78,56,134
5,76,54,44
5,69,68,95
5,69,52,12
5,68,40,0
5,69,46,30
5,71,46,0
5,71,52,11
5,81,64,46
5,80,48,73
5,76,36,66
5,73,48,39
5,75,39,24
5,76,56,23
5,78,56,89
5,75,42,69
5,76,40,13
5,71,28,43
5,73,50,49
5,76,54,68
5,75,38,65
5,76,36,47
5,59,19,521
5,69,64,25
5,68,46,3
5,66,52,26
5,68,44,25
5,64,33,448
5,73,58,28
5,71,52,32
5,70,39,0
5,73,42,28
5,71,48,48
5,64,26,375
5,73,52,29
5,73,54,7
5,72,60,27
5,73,50,29
5,78,58,45
5,75,46,120
5,71,42,0
5,78,46,145
5,76,56,44
5,69,56,104
5,69,58,11
5,68,42,29
5,69,56,0
5,71,60,47
5,71,19,8
5,81,66,55
5,80,60,74
5,76,64,0
5,73,46,27
5,75,46,25
5,76,42,1
5,78,60,89
5,75,46,73
5,76,42,18
5,71,42,51
5,73,50,46
5,76,56,67
5,75,35,0
5,76,50,51
5,71,48,111
5,71,62,13
5,69,40,63
5,68,37,32
5,69,56,26
5,68,42,45
5,69,62,2
5,71,48,1
5,68,33,26
5,66,29,22
5,64,31,2
5,71,33,94
5,71,42,14
5,69,52,70
5,69,50,28
5,69,50,13
5,71,39,3
5,68,37,43
5,71,50,82
5,71,44,11
5,72,48,1
5,71,46,10
5,69,36,8
5,69,54,6
5,68,40,53
5,72,64,44
5,75,60,47
5,75,46,10
5,76,44,52
5,73,42,118
5,75,38,26
5,76,42,23
5,73,52,276
5,74,27,28
5,73,39,21
5,71,26,19
5,71,33,8
5,73,42,280
5,71,35,45
5,59,18,89
5,69,62,24
5,68,42,2
5,66,52,30
5,68,52,30
5,64,44,459
5,73,54,25
5,71,48,33
5,70,38,28
5,71,46,29
5,64,42,444
5,73,56,27
5,73,44,8
5,72,58,26
5,73,44,27
5,78,56,42
5,75,58,120
5,71,46,2
5,78,50,0
5,76,30,1
5,69,52,48
5,68,46,2
5,69,52,2
5,68,44,46
5,69,54,3
5,71,62,3
5,73,54,3
5,80,58,65
5,83,64,1
5,85,62,4
5,80,56,46
5,78,50,45
