track,note,velocity,time
0,61,101,1068
0,61,98,46
0,59,106,408
0,59,109,46
0,83,62,16
0,82,56,6
0,64,107,16
0,83,59,2
0,78,59,28
0,83,68,4
0,82,62,4
0,90,55,0
0,83,68,10
0,68,110,12
0,78,68,0
0,83,67,12
0,82,73,8
0,83,73,14
0,78,73,0
0,66,104,8
0,83,73,0
0,54,72,8
0,61,72,0
0,40,78,4
0,82,73,28
0,83,69,8
0,78,61,10
0,83,58,16
0,82,56,12
0,83,65,16
0,78,47,28
0,30,74,0
0,83,58,32
0,82,56,12
0,83,65,16
0,78,47,0
0,54,62,0
0,63,87,4
0,61,83,2
0,59,91,0
0,58,75,2
0,59,85,0
0,35,89,48
0,36,66,0
0,42,82,0
0,47,88,0
0,54,77,0
0,59,88,0
0,61,85,0
0,42,84,184
0,75,66,0
0,81,25,0
0,36,65,88
0,42,95,0
0,64,39,0
0,81,31,0
0,38,75,88
0,42,84,0
0,42,84,184
0,51,91,0
0,81,25,0
0,36,59,54
0,64,39,0
0,81,31,0
0,36,66,88
0,42,84,0
0,63,87,0
0,61,75,2
0,42,80,12
0,81,25,0
0,59,88,14
0,63,50,0
0,81,31,0
0,34,86,4
0,38,75,0
0,42,84,0
0,46,77,0
0,54,82,0
0,42,84,2
0,58,79,0
0,81,25,0
0,81,31,88
0,59,91,2
0,66,82,8
0,63,82,32
0,61,85,18
0,32,89,22
0,36,66,0
0,42,82,0
0,44,83,0
0,42,84,184
0,75,66,0
0,81,25,0
0,36,66,88
0,51,89,0
0,64,39,0
0,81,31,0
0,38,75,88
0,42,84,0
0,42,84,184
0,54,86,0
0,81,25,0
0,36,59,40
0,64,39,0
0,81,31,0
0,63,85,80
0,36,66,8
0,42,84,0
0,42,80,184
0,81,25,0
0,63,81,68
0,63,50,8
0,81,31,0
0,38,75,88
0,42,84,0
0,54,82,0
0,59,85,2
0,42,84,102
0,81,25,0
0,64,88,2
0,81,31,4
0,61,80,4
0,68,80,0
0,64,93,2
0,36,66,6
0,37,88,0
0,42,82,0
0,56,98,0
0,42,84,180
0,75,66,0
0,81,25,0
0,36,65,4
0,52,93,0
0,64,39,0
0,81,31,0
0,38,75,88
0,42,84,0
0,42,84,184
0,56,90,0
0,59,73,0
0,81,25,0
0,36,59,46
0,64,39,0
0,81,31,0
0,63,79,84
0,36,66,4
0,42,84,0
0,63,80,46
0,42,80,6
0,81,25,0
0,63,50,60
0,81,31,0
0,63,77,4
0,38,75,0
0,42,84,0
0,54,82,0
0,64,85,6
0,42,84,88
0,81,25,0
0,64,93,82
0,81,31,6
0,61,79,2
0,61,67,78
0,30,85,0
0,36,66,0
0,42,82,0
0,49,100,0
0,54,99,0
0,68,87,0
0,59,94,0
0,42,84,178
0,75,66,0
0,81,25,0
0,36,66,88
0,64,39,0
0,81,31,0
0,38,75,88
0,42,84,0
0,42,84,4
0,52,94,0
0,59,96,0
0,81,25,0
0,54,80,72
0,36,59,16
0,64,39,0
0,81,31,0
0,63,75,2
0,36,66,8
0,42,84,0
0,61,81,2
0,42,80,24
0,81,25,0
0,59,85,10
0,63,50,8
0,81,31,0
0,38,75,4
0,42,84,0
0,54,82,0
0,66,89,0
0,58,79,2
0,42,84,4
0,81,25,0
0,30,81,62
0,81,31,0
0,59,85,2
0,35,89,4
0,36,66,0
0,42,82,0
0,47,88,0
0,59,88,0
0,61,85,0
0,42,84,180
0,75,66,0
0,81,25,0
0,36,65,88
0,42,95,0
0,64,39,0
0,81,31,0
0,38,75,88
0,42,84,0
0,42,84,184
0,51,91,0
0,81,25,0
0,36,59,88
0,64,39,0
0,81,31,0
0,63,85,66
0,36,66,8
0,42,84,0
0,61,79,2
0,42,80,8
0,81,25,0
0,59,91,2
0,63,50,0
0,81,31,0
0,34,86,4
0,38,75,0
0,42,84,0
0,46,77,0
0,54,82,0
0,42,84,2
0,61,85,0
0,81,25,0
0,81,31,88
0,59,91,0
0,66,82,16
0,63,82,32
0,61,85,18
0,32,89,22
0,36,66,0
0,42,82,0
0,44,83,0
0,42,84,184
0,75,66,0
0,81,25,0
0,36,66,88
0,51,89,0
0,64,39,0
0,81,31,0
0,38,75,88
0,42,84,0
0,42,84,184
0,54,86,0
0,81,25,0
0,36,59,88
0,64,39,0
0,81,31,0
0,63,85,72
0,36,66,8
0,42,84,0
0,63,72,80
0,42,80,76
0,81,25,0
0,63,81,80
0,63,50,8
0,81,31,0
0,38,75,88
0,42,84,0
0,54,82,0
0,59,85,2
0,42,84,102
0,81,25,0
0,64,88,2
0,81,31,4
0,61,72,4
0,68,72,0
0,64,85,2
0,36,66,6
0,37,88,0
0,42,82,0
0,49,90,0
0,42,84,180
0,75,66,0
0,81,25,0
0,36,65,4
0,44,85,0
0,64,39,0
0,81,31,0
0,38,75,88
0,42,84,0
0,42,84,184
0,52,82,0
0,81,25,0
0,63,79,42
0,36,59,4
0,64,39,0
0,81,31,0
0,63,79,48
0,36,66,4
0,42,84,0
0,63,80,66
0,42,80,6
0,81,25,0
0,63,50,60
0,81,31,0
0,63,77,4
0,38,75,0
0,42,84,0
0,54,82,0
0,64,85,6
0,63,83,80
0,42,84,8
0,81,25,0
0,64,83,2
0,81,31,6
0,61,79,2
0,61,80,78
0,59,85,2
0,30,85,0
0,36,66,0
0,42,82,0
0,49,93,0
0,54,93,0
0,42,84,178
0,75,66,0
0,81,25,0
0,36,66,88
0,64,39,0
0,81,31,0
0,38,75,88
0,42,84,0
0,42,84,4
0,52,94,0
0,81,25,0
0,36,59,88
0,64,39,0
0,81,31,0
0,36,66,88
0,42,84,0
0,42,80,184
0,81,25,0
0,63,50,88
0,81,31,0
0,38,75,88
0,42,84,0
0,54,82,0
0,63,81,4
0,42,84,4
0,81,25,0
0,63,98,2
0,64,82,2
0,64,98,6
0,81,31,4
0,66,80,2
0,33,89,4
0,36,66,0
0,42,82,0
0,52,93,0
0,57,94,0
0,61,103,0
0,66,90,0
0,54,46,16
0,61,50,0
0,66,50,0
0,66,80,154
0,42,84,14
0,75,66,0
0,81,25,0
0,66,85,52
0,36,65,14
0,64,39,0
0,81,31,0
0,38,75,88
0,42,84,0
0,66,74,130
0,42,84,12
0,81,25,0
0,66,80,2
0,32,89,0
0,36,59,0
0,57,98,0
0,60,52,0
0,60,102,0
0,64,39,0
0,81,31,0
0,36,66,88
0,42,84,0
0,64,88,6
0,42,80,14
0,81,25,0
0,63,50,88
0,81,31,0
0,64,85,4
0,38,75,88
0,42,84,0
0,54,82,0
0,42,84,184
0,81,25,0
0,81,31,12
0,64,78,4
0,59,93,0
0,28,86,4
0,36,66,0
0,42,82,0
0,56,46,0
0,56,94,0
0,59,52,0
0,64,50,0
0,64,101,0
0,64,91,4
0,64,85,0
0,42,84,14
0,75,66,0
0,81,25,0
0,63,67,2
0,36,66,16
0,54,96,0
0,63,103,0
0,64,39,0
0,81,31,0
0,38,75,88
0,42,84,0
0,63,78,28
0,42,84,54
0,56,99,0
0,59,98,0
0,64,88,0
0,81,25,0
0,56,70,2
0,36,59,10
0,64,39,0
0,81,31,0
0,36,66,88
0,42,84,0
0,42,80,184
0,81,25,0
0,63,50,88
0,81,31,0
0,30,86,4
0,38,75,0
0,42,84,0
0,54,82,0
0,42,84,172
0,81,25,0
0,81,31,66
0,36,66,4
0,37,89,0
0,42,82,0
0,52,46,0
0,52,93,0
0,56,103,0
0,59,99,0
0,64,97,2
0,64,91,50
0,42,84,10
0,75,66,0
0,81,25,0
0,36,65,0
0,64,39,0
0,81,31,0
0,63,79,2
0,38,75,88
0,42,84,0
0,63,77,42
0,42,84,48
0,81,25,0
0,36,59,0
0,64,39,0
0,81,31,0
0,36,66,2
0,42,84,0
0,52,78,0
0,56,88,0
0,59,91,6
0,58,83,2
0,42,80,4
0,81,25,0
0,63,50,48
0,81,31,0
0,59,94,2
0,38,75,16
0,42,84,0
0,54,82,0
0,63,78,2
0,42,84,46
0,81,25,0
0,61,96,0
0,61,85,0
0,63,94,12
0,81,31,0
0,68,80,4
0,30,86,0
0,36,66,0
0,42,82,0
0,54,100,0
0,59,92,0
0,61,103,0
0,42,84,184
0,75,66,0
0,81,25,0
0,36,66,88
0,64,39,0
0,81,31,0
0,38,75,88
0,42,84,0
0,42,84,184
0,81,25,0
0,36,59,10
0,54,58,0
0,64,39,0
0,81,31,0
0,61,76,0
0,63,88,6
0,36,66,10
0,42,84,0
0,63,101,0
0,66,55,0
0,66,92,6
0,61,79,2
0,59,76,6
0,42,80,8
0,61,90,0
0,81,25,0
0,59,92,6
0,59,93,14
0,63,50,0
0,81,31,0
0,38,75,88
0,42,84,0
0,54,82,0
0,58,75,2
0,42,84,4
0,58,90,0
0,81,25,0
0,59,97,2
0,59,86,0
0,81,31,0
0,35,89,48
0,36,66,0
0,42,82,0
0,47,88,0
0,54,77,0
0,63,76,0
0,59,59,8
0,63,56,0
0,63,65,80
0,63,55,16
0,42,84,4
0,66,70,0
0,75,66,0
0,81,25,0
0,66,60,4
0,36,65,80
0,42,95,0
0,61,55,0
0,64,39,0
0,81,31,0
0,61,45,8
0,38,75,80
0,42,84,0
0,63,51,0
0,63,41,8
0,59,55,62
0,59,55,8
0,42,84,88
0,51,91,0
0,81,25,0
0,36,59,10
0,59,55,0
0,64,39,0
0,81,31,0
0,63,81,4
0,63,101,10
0,66,94,0
0,36,66,2
0,42,84,0
0,59,50,0
0,59,50,0
0,61,79,2
0,61,80,0
0,42,80,4
0,59,50,0
0,59,50,0
0,81,25,0
0,59,80,4
0,59,93,8
0,59,47,8
0,63,50,0
0,81,31,0
0,59,47,0
0,34,86,4
0,38,75,0
0,42,84,0
0,46,77,0
0,54,82,0
0,59,47,12
0,59,47,0
0,42,84,2
0,58,79,0
0,61,82,0
0,81,25,0
0,59,93,8
0,81,31,0
0,59,91,2
0,63,82,4
0,66,76,0
0,32,89,8
0,36,66,0
0,42,82,0
0,44,83,0
0,63,65,88
0,63,59,0
0,42,84,4
0,66,70,0
0,66,64,0
0,75,66,0
0,81,25,0
0,36,66,88
0,51,89,0
0,61,55,0
0,61,49,0
0,64,39,0
0,81,31,0
0,38,75,88
0,42,84,0
0,63,51,0
0,63,45,0
0,59,55,78
0,59,35,16
0,42,84,80
0,54,86,0
0,81,25,0
0,36,59,2
0,59,55,0
0,64,39,0
0,81,31,0
0,59,35,0
0,59,30,2
0,66,87,6
0,36,66,6
0,42,84,0
0,59,93,0
0,63,83,0
0,63,86,0
0,59,50,26
0,59,30,8
0,42,80,80
0,81,25,0
0,63,79,2
0,59,47,4
0,59,93,0
0,63,97,0
0,63,50,0
0,81,31,0
0,63,79,2
0,59,54,8
0,38,75,2
0,42,84,0
0,54,82,0
0,59,47,12
0,59,81,0
0,59,54,8
0,42,84,12
0,81,25,0
0,59,93,6
0,64,85,2
0,64,88,0
0,81,31,0
0,61,80,4
0,68,80,0
0,36,66,8
0,37,88,0
0,42,82,0
0,56,98,0
0,64,50,0
0,64,62,84
0,64,50,0
0,42,84,4
0,68,53,0
0,68,41,0
0,75,66,0
0,81,25,0
0,36,65,4
0,52,93,0
0,64,62,0
0,64,50,0
0,64,39,0
0,81,31,0
0,38,75,88
0,42,84,0
0,59,53,88
0,59,41,16
0,56,98,72
0,42,84,8
0,81,25,0
0,36,59,2
0,64,39,0
0,81,31,0
0,59,41,0
0,36,66,4
0,42,84,0
0,56,90,0
0,59,48,0
0,59,98,0
0,63,81,0
0,63,94,0
0,59,36,8
0,63,75,46
0,42,80,6
0,81,25,0
0,59,36,0
0,63,90,10
0,59,53,2
0,63,50,0
0,81,31,0
0,63,80,4
0,59,41,2
0,38,75,4
0,42,84,0
0,54,82,0
0,59,53,0
0,64,88,4
0,59,41,4
0,42,84,20
0,81,25,0
0,64,93,0
0,61,75,2
0,81,31,0
0,61,84,8
0,30,85,0
0,36,66,0
0,42,82,0
0,49,100,0
0,54,99,0
0,61,50,0
0,66,50,0
0,68,78,4
0,59,94,0
0,63,65,82
0,63,53,0
0,42,84,4
0,66,70,0
0,66,58,0
0,75,66,0
0,81,25,0
0,36,66,88
0,61,55,0
0,61,43,0
0,64,39,0
0,81,31,0
0,38,75,88
0,42,84,0
0,63,51,0
0,63,39,0
0,59,55,78
0,59,40,16
0,42,84,4
0,52,94,0
0,81,25,0
0,36,59,2
0,54,65,0
0,64,39,0
0,81,31,0
0,59,40,0
0,61,76,0
0,63,82,2
0,36,66,8
0,42,84,0
0,59,50,0
0,63,101,0
0,66,92,6
0,59,35,2
0,61,79,2
0,59,76,6
0,42,80,4
0,59,50,0
0,61,90,0
0,81,25,0
0,59,35,0
0,59,91,6
0,59,47,12
0,59,93,0
0,63,50,0
0,81,31,0
0,59,32,8
0,38,75,80
0,42,84,0
0,54,82,0
0,59,47,20
0,59,32,8
0,58,75,2
0,42,84,4
0,58,90,0
0,61,59,0
0,81,25,0
0,61,44,4
0,30,81,2
0,59,56,0
0,59,88,0
0,59,86,0
0,81,31,0
0,59,41,8
0,35,89,4
0,36,66,0
0,42,82,0
0,47,88,0
0,54,77,0
0,63,56,0
0,63,76,0
0,63,65,12
0,59,41,8
0,63,55,8
0,42,84,4
0,66,70,0
0,75,66,0
0,81,25,0
0,66,60,4
0,36,65,80
0,42,95,0
0,61,55,0
0,64,39,0
0,81,31,0
0,61,45,8
0,38,75,80
0,42,84,0
0,63,51,0
0,63,41,8
0,59,55,62
0,59,55,8
0,42,84,88
0,51,91,0
0,81,25,0
0,36,59,10
0,59,55,0
0,64,39,0
0,81,31,0
0,63,85,4
0,63,101,6
0,66,94,0
0,36,66,2
0,42,84,0
0,59,50,0
0,59,50,0
0,61,79,2
0,61,80,0
0,42,80,4
0,59,50,0
0,59,50,0
0,81,25,0
0,59,93,12
0,59,47,2
0,59,91,0
0,63,50,0
0,81,31,0
0,59,47,0
0,34,86,4
0,38,75,0
0,42,84,0
0,46,77,0
0,54,82,0
0,59,47,8
0,59,47,0
0,61,85,0
0,61,82,0
0,42,84,96
0,81,25,0
0,61,91,18
0,81,31,0
0,59,93,0
0,63,82,4
0,66,76,0
0,32,89,8
0,36,66,0
0,42,82,0
0,44,83,0
0,63,65,88
0,63,59,0
0,59,81,2
0,42,84,4
0,66,70,0
0,66,64,0
0,75,66,0
0,81,25,0
0,36,66,88
0,51,89,0
0,61,55,0
0,61,49,0
0,64,39,0
0,81,31,0
0,38,75,88
0,42,84,0
0,63,51,0
0,63,45,0
0,59,55,78
0,59,35,16
0,42,84,80
0,54,86,0
0,81,25,0
0,36,59,2
0,59,55,0
0,64,39,0
0,81,31,0
0,59,35,0
0,59,30,2
0,63,85,4
0,66,87,2
0,36,66,6
0,42,84,0
0,59,93,0
0,63,86,0
0,59,50,26
0,59,30,8
0,63,81,72
0,42,80,8
0,81,25,0
0,63,81,12
0,59,47,4
0,59,93,0
0,63,97,0
0,63,50,0
0,81,31,0
0,59,54,8
0,38,75,8
0,42,84,0
0,54,82,0
0,59,85,6
0,59,47,6
0,59,54,8
0,42,84,12
0,81,25,0
0,59,93,6
0,64,88,0
0,64,88,0
0,81,31,0
0,61,80,4
0,68,80,0
0,36,66,8
0,37,88,0
0,42,82,0
0,56,98,0
0,64,50,0
0,64,62,84
0,64,50,0
0,42,84,8
0,68,53,0
0,68,41,0
0,75,66,0
0,81,25,0
0,36,65,4
0,52,93,0
0,64,62,0
0,64,50,0
0,64,39,0
0,81,31,0
0,38,75,88
0,42,84,0
0,59,53,88
0,59,41,16
0,56,98,72
0,42,84,8
0,81,25,0
0,36,59,2
0,64,39,0
0,81,31,0
0,59,41,0
0,63,79,0
0,36,66,4
0,42,84,0
0,56,90,0
0,59,48,0
0,59,98,0
0,63,94,0
0,59,36,8
0,63,80,46
0,42,80,6
0,81,25,0
0,59,36,0
0,63,90,10
0,59,53,2
0,63,50,0
0,81,31,0
0,63,77,4
0,59,41,2
0,38,75,4
0,42,84,0
0,54,82,0
0,59,53,20
0,59,41,6
0,64,85,0
0,42,84,20
