track,note,velocity,time
1,57,47,840
1,57,0,120
1,58,63,0
1,58,0,80
1,52,46,0
1,52,0,80
1,61,46,0
1,61,0,80
1,64,63,0
1,64,0,80
1,55,47,0
1,55,0,80
1,57,47,0
1,57,0,80
1,58,63,0
1,58,0,80
1,53,48,0
1,53,0,80
1,62,48,0
1,62,0,80
1,65,62,0
1,65,0,80
1,57,47,0
1,57,0,80
1,60,47,0
1,60,0,80
1,61,62,0
1,61,0,80
1,55,47,0
1,55,0,80
1,64,47,0
1,64,0,80
1,67,62,0
1,67,0,80
1,58,47,0
1,58,0,80
1,62,47,0
1,62,0,80
1,63,62,0
1,63,0,80
1,57,46,0
1,57,0,80
1,69,47,0
1,69,0,80
1,72,62,0
1,72,0,80
1,60,48,0
1,60,0,80
1,62,49,0
1,62,0,80
1,63,65,0
1,63,0,80
1,58,49,0
1,58,0,80
1,67,49,0
1,67,0,80
1,70,65,0
1,70,0,80
1,62,50,0
1,62,0,80
1,64,50,0
1,64,0,80
1,65,67,0
1,65,0,80
1,59,51,0
1,59,0,80
1,71,51,0
1,71,0,80
1,74,67,0
1,74,0,80
1,65,52,0
1,65,0,80
1,67,52,0
1,67,0,80
1,68,69,0
1,68,0,80
1,62,52,0
1,62,0,80
1,74,56,0
1,74,0,80
1,77,71,0
1,77,0,80
1,65,57,0
1,65,0,80
1,68,59,0
1,68,0,80
1,69,76,0
1,69,0,80
1,64,63,0
1,64,0,80
1,73,63,0
1,73,0,80
1,76,77,0
1,76,0,80
1,67,66,0
1,67,0,80
1,69,67,0
1,69,0,80
1,70,81,0
1,70,0,80
1,64,63,0
1,64,0,80
1,73,59,0
1,73,0,80
1,76,63,0
1,76,0,80
1,67,47,0
1,67,0,80
1,69,47,0
1,69,0,80
1,70,63,0
1,70,0,80
1,65,48,0
1,65,0,80
1,74,48,0
1,74,0,80
1,77,62,0
1,77,0,80
1,69,47,0
1,69,0,80
1,72,47,0
1,72,0,80
1,73,62,0
1,73,0,80
1,67,47,0
1,67,0,80
1,76,47,0
1,76,0,80
1,79,62,0
1,79,0,80
1,70,47,0
1,70,0,80
1,74,47,0
1,74,0,80
1,75,62,0
1,75,0,80
1,69,46,0
1,69,0,80
1,81,47,0
1,81,0,80
1,84,62,0
1,84,0,80
1,72,48,0
1,72,0,80
1,74,49,0
1,74,0,80
1,75,65,0
1,75,0,80
1,70,49,0
1,70,0,80
1,79,49,0
1,79,0,80
1,82,72,0
1,82,0,80
1,74,57,0
1,74,0,80
1,76,57,0
1,76,0,80
1,77,74,0
1,77,0,80
1,71,57,0
1,71,0,80
1,86,57,0
1,86,0,80
1,89,76,0
1,89,0,80
1,77,61,0
1,77,0,80
1,83,61,0
1,83,0,80
1,85,82,0
1,85,0,80
1,76,62,0
1,76,0,80
1,88,65,0
1,88,0,80
1,93,82,0
1,93,0,80
1,81,67,0
1,81,0,80
1,86,80,0
1,86,0,80
1,98,95,0
1,98,0,240
1,57,47,120
1,57,0,120
1,58,63,0
1,58,0,80
1,52,46,0
1,52,0,80
1,61,46,0
1,61,0,80
1,64,63,0
1,64,0,80
1,55,47,0
1,55,0,80
1,57,47,0
1,57,0,80
1,58,63,0
1,58,0,80
1,53,48,0
1,53,0,80
1,62,48,0
1,62,0,80
1,65,62,0
1,65,0,80
1,57,47,0
1,57,0,80
1,60,47,0
1,60,0,80
1,61,62,0
1,61,0,80
1,55,47,0
1,55,0,80
1,64,47,0
1,64,0,80
1,67,62,0
1,67,0,80
1,58,47,0
1,58,0,80
1,62,47,0
1,62,0,80
1,63,62,0
1,63,0,80
1,57,46,0
1,57,0,80
1,69,47,0
1,69,0,80
1,72,62,0
1,72,0,80
1,60,48,0
1,60,0,80
1,62,49,0
1,62,0,80
1,63,65,0
1,63,0,80
1,58,49,0
1,58,0,80
1,67,49,0
1,67,0,80
1,70,65,0
1,70,0,80
1,62,50,0
1,62,0,80
1,64,50,0
1,64,0,80
1,65,67,0
1,65,0,80
1,59,51,0
1,59,0,80
1,71,51,0
1,71,0,80
1,74,67,0
1,74,0,80
1,65,52,0
1,65,0,80
1,67,52,0
1,67,0,80
1,68,69,0
1,68,0,80
1,62,52,0
1,62,0,80
1,74,56,0
1,74,0,80
1,77,71,0
1,77,0,80
1,65,57,0
1,65,0,80
1,68,59,0
1,68,0,80
1,69,76,0
1,69,0,80
1,64,63,0
1,64,0,80
1,73,63,0
1,73,0,80
1,76,77,0
1,76,0,80
1,67,66,0
1,67,0,80
1,69,67,0
1,69,0,80
1,70,81,0
1,70,0,80
1,64,63,0
1,64,0,80
1,73,59,0
1,73,0,80
1,76,63,0
1,76,0,80
1,67,47,0
1,67,0,80
1,69,47,0
1,69,0,80
1,70,63,0
1,70,0,80
1,65,48,0
1,65,0,80
1,74,48,0
1,74,0,80
1,77,62,0
1,77,0,80
1,69,47,0
1,69,0,80
1,72,47,0
1,72,0,80
1,73,62,0
1,73,0,80
1,67,47,0
1,67,0,80
1,76,47,0
1,76,0,80
1,79,62,0
1,79,0,80
1,70,47,0
1,70,0,80
1,74,47,0
1,74,0,80
1,75,62,0
1,75,0,80
1,69,46,0
1,69,0,80
1,81,47,0
1,81,0,80
1,84,62,0
1,84,0,80
1,72,48,0
1,72,0,80
1,74,49,0
1,74,0,80
1,75,65,0
1,75,0,80
1,70,49,0
1,70,0,80
1,79,49,0
1,79,0,80
1,82,72,0
1,82,0,80
1,74,57,0
1,74,0,80
1,76,57,0
1,76,0,80
1,77,74,0
1,77,0,80
1,71,57,0
1,71,0,80
1,86,57,0
1,86,0,80
1,89,76,0
1,89,0,80
1,77,61,0
1,77,0,80
1,83,61,0
1,83,0,80
1,85,82,0
1,85,0,80
1,76,62,0
1,76,0,80
1,88,65,0
1,88,0,80
1,93,82,0
1,93,0,80
1,81,67,0
1,81,0,80
1,86,80,0
1,86,0,80
1,98,95,0
1,98,0,240
1,77,74,80
1,77,0,80
1,81,74,0
1,81,0,80
1,82,82,0
1,82,0,80
1,77,76,0
1,77,0,80
1,86,72,0
1,86,0,80
1,89,87,0
1,89,0,80
1,77,81,0
1,77,0,80
1,81,84,0
1,81,0,80
1,82,93,0
1,82,0,80
1,76,81,0
1,76,0,80
1,80,74,0
1,80,0,80
1,81,82,0
1,81,0,80
1,77,71,0
1,77,0,80
1,81,66,0
1,81,0,80
1,82,82,0
1,82,0,80
1,77,76,0
1,77,0,80
1,86,72,0
1,86,0,80
1,89,87,0
1,89,0,80
1,77,81,0
1,77,0,80
1,81,84,0
1,81,0,80
1,82,93,0
1,82,0,80
1,76,81,0
1,76,0,80
1,80,69,0
1,80,0,80
1,81,82,0
1,81,0,80
1,76,71,0
1,76,0,80
1,81,62,0
1,81,0,80
1,86,82,0
1,86,0,80
1,74,71,0
1,74,0,80
1,79,61,0
1,79,0,80
1,81,80,0
1,81,0,80
1,74,72,0
1,74,0,80
1,79,65,0
1,79,0,80
1,84,77,0
1,84,0,80
1,72,67,0
1,72,0,80
1,77,63,0
1,77,0,80
1,79,67,0
1,79,0,80
1,72,59,0
1,72,0,80
1,77,52,0
1,77,0,80
1,82,72,0
1,82,0,80
1,70,66,0
1,70,0,80
1,76,59,0
1,76,0,80
1,77,69,0
1,77,0,80
1,70,60,0
1,70,0,80
1,76,52,0
1,76,0,80
1,81,68,0
1,81,0,80
1,69,59,0
1,69,0,80
1,74,52,0
1,74,0,80
1,76,65,0
1,76,0,80
1,69,54,0
1,69,0,80
1,74,48,0
1,74,0,80
1,75,73,0
1,75,0,80
1,70,68,0
1,70,0,80
1,79,65,0
1,79,0,80
1,82,77,0
1,82,0,80
1,70,72,0
1,70,0,80
1,74,76,0
1,74,0,80
1,79,83,0
1,79,0,80
1,70,72,0
1,70,0,80
1,74,67,0
1,74,0,80
1,75,73,0
1,75,0,80
1,70,63,0
1,70,0,80
1,74,57,0
1,74,0,80
1,75,73,0
1,75,0,80
1,70,68,0
1,70,0,80
1,79,65,0
1,79,0,80
1,82,77,0
1,82,0,80
1,70,72,0
1,70,0,80
1,74,76,0
1,74,0,80
1,79,83,0
1,79,0,80
1,70,72,0
1,70,0,80
1,74,67,0
1,74,0,80
1,75,73,0
1,75,0,80
1,71,63,0
1,71,0,80
1,75,57,0
1,75,0,80
1,78,76,0
1,78,0,80
1,66,63,0
1,66,0,80
1,71,69,0
1,71,0,80
1,75,76,0
1,75,0,80
1,63,66,0
1,63,0,80
1,66,59,0
1,66,0,80
1,71,73,0
1,71,0,80
1,61,65,0
1,61,0,80
1,67,57,0
1,67,0,80
1,70,69,0
1,70,0,80
1,60,59,0
1,60,0,80
1,63,51,0
1,63,0,80
1,69,67,0
1,69,0,80
1,58,57,0
1,58,0,80
1,62,52,0
1,62,0,80
1,67,74,0
1,67,0,80
1,59,57,0
1,59,0,80
1,62,52,0
1,62,0,80
1,65,76,0
1,65,0,80
1,57,62,0
1,57,0,80
1,61,55,0
1,61,0,80
1,64,76,0
1,64,0,80
1,55,61,0
1,55,0,80
1,57,56,0
1,57,0,80
1,58,77,0
1,58,0,80
1,52,57,0
1,52,0,80
1,61,51,0
1,61,0,80
1,64,63,0
1,64,0,80
1,55,47,0
1,55,0,80
1,57,47,0
1,57,0,80
1,58,63,0
1,58,0,80
1,53,48,0
1,53,0,80
1,62,42,0
1,62,0,80
1,65,62,0
1,65,0,80
1,57,47,0
1,57,0,80
1,60,42,0
1,60,0,80
1,61,62,0
1,61,0,80
1,55,47,0
1,55,0,80
1,64,47,0
1,64,0,80
1,67,62,0
1,67,0,80
1,58,47,0
1,58,0,80
1,62,42,0
1,62,0,80
1,63,62,0
1,63,0,80
1,57,46,0
1,57,0,80
1,69,47,0
1,69,0,80
1,72,62,0
1,72,0,80
1,60,48,0
1,60,0,80
1,62,49,0
1,62,0,80
1,63,65,0
1,63,0,80
1,58,49,0
1,58,0,80
1,67,44,0
1,67,0,80
1,70,65,0
1,70,0,80
1,62,50,0
1,62,0,80
1,64,45,0
1,64,0,80
1,65,67,0
1,65,0,80
1,59,51,0
1,59,0,80
1,71,48,0
1,71,0,80
1,74,67,0
1,74,0,80
1,65,52,0
1,65,0,80
1,67,47,0
1,67,0,80
1,68,69,0
1,68,0,80
1,62,52,0
1,62,0,80
1,74,54,0
1,74,0,80
1,77,71,0
1,77,0,80
1,65,57,0
1,65,0,80
1,68,59,0
1,68,0,80
1,69,76,0
1,69,0,80
1,64,63,0
1,64,0,80
1,73,63,0
1,73,0,80
1,76,77,0
1,76,0,80
1,67,66,0
1,67,0,80
1,69,67,0
1,69,0,80
1,70,81,0
1,70,0,80
1,64,63,0
1,64,0,80
1,73,59,0
1,73,0,80
1,76,72,0
1,76,0,80
1,67,52,0
1,67,0,80
1,69,52,0
1,69,0,80
1,70,73,0
1,70,0,80
1,65,55,0
1,65,0,80
1,74,55,0
1,74,0,80
1,77,70,0
1,77,0,80
1,69,54,0
1,69,0,80
1,72,55,0
1,72,0,80
1,73,74,0
1,73,0,80
1,67,54,0
1,67,0,80
1,76,55,0
1,76,0,80
1,79,72,0
1,79,0,80
1,70,54,0
1,70,0,80
1,74,54,0
1,74,0,80
1,75,73,0
1,75,0,80
1,69,52,0
1,69,0,80
1,81,54,0
1,81,0,80
1,84,71,0
1,84,0,80
1,72,52,0
1,72,0,80
1,74,55,0
1,74,0,80
1,75,72,0
1,75,0,80
1,70,57,0
1,70,0,80
1,79,57,0
1,79,0,80
1,82,74,0
1,82,0,80
1,74,57,0
1,74,0,80
1,76,57,0
1,76,0,80
1,77,79,0
1,77,0,80
1,71,57,0
1,71,0,80
1,86,57,0
1,86,0,80
1,89,79,0
1,89,0,80
1,77,61,0
1,77,0,80
1,83,61,0
1,83,0,80
1,85,82,0
1,85,0,80
1,76,62,0
1,76,0,80
1,88,65,0
1,88,0,80
1,93,82,0
1,93,0,80
1,81,67,0
1,81,0,80
1,86,80,0
1,86,0,80
1,98,95,0
1,98,0,240
1,77,74,80
1,77,0,80
1,81,74,0
1,81,0,80
1,82,82,0
1,82,0,80
1,77,76,0
1,77,0,80
1,86,68,0
1,86,0,80
1,89,87,0
1,89,0,80
1,77,81,0
1,77,0,80
1,81,84,0
1,81,0,80
1,82,93,0
1,82,0,80
1,76,74,0
1,76,0,80
1,80,70,0
1,80,0,80
1,81,82,0
1,81,0,80
1,77,71,0
1,77,0,80
1,81,62,0
1,81,0,80
1,82,82,0
1,82,0,80
1,77,76,0
1,77,0,80
1,86,72,0
1,86,0,80
1,89,87,0
1,89,0,80
1,77,81,0
1,77,0,80
1,81,84,0
1,81,0,80
1,82,93,0
1,82,0,80
1,76,81,0
1,76,0,80
1,80,74,0
1,80,0,80
1,81,82,0
1,81,0,80
1,76,71,0
1,76,0,80
1,81,66,0
1,81,0,80
1,86,82,0
1,86,0,80
1,74,71,0
1,74,0,80
1,79,59,0
1,79,0,80
1,81,80,0
1,81,0,80
1,74,70,0
1,74,0,80
1,79,62,0
1,79,0,80
1,84,77,0
1,84,0,80
1,72,67,0
1,72,0,80
1,77,59,0
1,77,0,80
1,79,73,0
1,79,0,80
1,72,61,0
1,72,0,80
1,77,54,0
1,77,0,80
1,82,72,0
1,82,0,80
1,70,66,0
1,70,0,80
1,76,53,0
1,76,0,80
1,77,69,0
1,77,0,80
1,70,60,0
1,70,0,80
1,76,54,0
1,76,0,80
1,81,68,0
1,81,0,80
1,69,59,0
1,69,0,80
1,74,52,0
1,74,0,80
1,76,65,0
1,76,0,80
1,69,54,0
1,69,0,80
1,74,48,0
1,74,0,80
1,75,73,0
1,75,0,80
1,70,68,0
1,70,0,80
1,79,65,0
1,79,0,80
1,82,77,0
1,82,0,80
1,70,72,0
1,70,0,80
1,74,76,0
1,74,0,80
1,79,83,0
1,79,0,80
1,70,72,0
1,70,0,80
1,74,67,0
1,74,0,80
1,75,73,0
1,75,0,80
1,70,66,0
1,70,0,80
1,74,57,0
1,74,0,80
1,75,73,0
1,75,0,80
1,70,68,0
1,70,0,80
1,79,65,0
1,79,0,80
1,82,77,0
1,82,0,80
1,70,72,0
1,70,0,80
1,74,76,0
1,74,0,80
1,79,83,0
1,79,0,80
1,70,72,0
1,70,0,80
1,74,67,0
1,74,0,80
1,75,73,0
1,75,0,80
1,71,63,0
1,71,0,80
1,75,57,0
1,75,0,80
1,78,76,0
1,78,0,80
1,66,63,0
1,66,0,80
1,71,69,0
1,71,0,80
1,75,76,0
1,75,0,80
1,63,66,0
1,63,0,80
1,66,66,0
1,66,0,80
1,71,73,0
1,71,0,80
1,61,62,0
1,61,0,80
1,67,57,0
1,67,0,80
1,70,69,0
1,70,0,80
1,60,59,0
1,60,0,80
1,63,55,0
1,63,0,80
1,69,67,0
1,69,0,80
1,58,57,0
1,58,0,80
1,62,52,0
1,62,0,80
1,67,74,0
1,67,0,80
1,59,57,0
1,59,0,80
1,62,52,0
1,62,0,80
1,65,76,0
1,65,0,80
1,57,62,0
1,57,0,80
1,61,57,0
1,61,0,80
1,64,76,0
1,64,0,80
1,55,61,0
1,55,0,80
1,57,55,0
1,57,0,80
1,58,77,0
1,58,0,80
1,52,57,0
1,52,0,80
1,61,51,0
1,61,0,80
1,64,63,0
1,64,0,80
1,55,47,0
1,55,0,80
1,57,47,0
1,57,0,80
1,58,63,0
1,58,0,80
1,53,48,0
1,53,0,80
1,62,48,0
1,62,0,80
1,65,62,0
1,65,0,80
1,57,47,0
1,57,0,80
1,60,47,0
1,60,0,80
1,61,62,0
1,61,0,80
1,55,47,0
1,55,0,80
1,64,47,0
1,64,0,80
1,67,62,0
1,67,0,80
1,58,68,0
1,58,0,80
1,62,47,0
1,62,0,80
1,63,62,0
1,63,0,80
1,57,46,0
1,57,0,80
1,69,47,0
1,69,0,80
1,72,62,0
1,72,0,80
1,60,48,0
1,60,0,80
1,62,49,0
1,62,0,80
1,63,65,0
1,63,0,80
1,58,49,0
1,58,0,80
1,67,49,0
1,67,0,80
1,70,65,0
1,70,0,80
1,62,50,0
1,62,0,80
