track,note,velocity,time
1,25,127,0
1,35,127,0
1,35,0,59
1,25,0,0
1,69,127,1
1,69,0,59
1,70,127,1
1,70,0,59
1,73,127,1
1,73,0,59
1,27,127,1
1,27,0,59
1,73,127,1
1,73,0,59
1,82,127,1
1,82,0,29
1,35,127,91
1,25,127,0
1,25,0,59
1,35,0,0
1,69,127,1
1,69,0,59
1,70,127,1
1,70,0,59
1,73,127,1
1,73,0,59
1,27,127,1
1,27,0,59
1,25,127,1
1,25,0,59
1,82,127,1
1,82,0,29
1,25,127,31
1,25,0,59
1,35,127,1
1,25,127,0
1,25,0,59
1,35,0,0
1,69,127,1
1,69,0,59
1,70,127,1
1,70,0,59
1,73,127,1
1,73,0,59
1,27,127,1
1,27,0,59
1,73,127,1
1,73,0,59
1,82,127,1
1,82,0,29
1,35,127,91
1,25,127,0
1,25,0,59
1,35,0,0
1,69,127,1
1,69,0,59
1,70,127,1
1,70,0,59
1,73,127,1
1,73,0,59
1,27,127,1
1,27,0,59
1,25,127,1
1,25,0,59
1,82,127,1
1,82,0,29
1,25,127,31
1,25,0,59
1,25,127,1
1,35,127,0
1,35,0,59
1,25,0,0
1,69,127,1
1,69,0,59
1,70,127,1
1,70,0,59
1,73,127,1
1,73,0,59
1,27,127,1
1,27,0,59
1,73,127,1
1,73,0,59
1,82,127,1
1,82,0,29
1,35,127,91
1,25,127,0
1,25,0,59
1,35,0,0
1,69,127,1
1,69,0,59
1,70,127,1
1,70,0,59
1,73,127,1
1,73,0,59
1,27,127,1
1,27,0,59
1,25,127,1
1,25,0,59
1,82,127,1
1,82,0,29
1,25,127,31
1,25,0,59
1,35,127,1
1,25,127,0
1,25,0,59
1,35,0,0
1,69,127,1
1,69,0,59
1,70,127,1
1,70,0,59
1,73,127,1
1,73,0,59
1,27,127,1
1,27,0,59
1,73,127,1
1,73,0,59
1,82,127,1
1,82,0,29
1,35,127,91
1,25,127,0
1,25,0,59
1,35,0,0
1,69,127,1
1,69,0,59
1,70,127,1
1,70,0,59
1,73,127,1
1,73,0,59
1,27,127,1
1,27,0,59
1,25,127,1
1,25,0,59
1,82,127,1
1,82,0,29
1,25,127,31
1,25,0,59
1,35,127,1
1,25,127,0
1,25,0,59
1,35,0,0
1,69,127,1
1,69,0,59
1,70,127,1
1,70,0,59
1,73,127,1
1,73,0,59
1,27,127,1
1,27,0,59
1,73,127,1
1,73,0,59
1,82,127,1
1,82,0,29
1,35,127,91
1,25,127,0
1,25,0,59
1,35,0,0
1,69,127,1
1,69,0,59
1,70,127,1
1,70,0,59
1,73,127,1
1,73,0,59
1,27,127,1
1,27,0,59
1,25,127,1
1,25,0,59
1,82,127,1
1,82,0,29
1,25,127,31
1,25,0,59
1,35,127,1
1,25,127,0
1,25,0,59
1,35,0,0
1,69,127,1
1,69,0,59
1,70,127,1
1,70,0,59
1,73,127,1
1,73,0,59
1,27,127,1
1,27,0,59
1,73,127,1
1,73,0,59
1,82,127,1
1,82,0,29
1,35,127,91
1,25,127,0
1,25,0,59
1,35,0,0
1,69,127,1
1,69,0,59
1,70,127,1
1,70,0,59
1,73,127,1
1,73,0,59
1,27,127,1
1,27,0,59
1,25,127,1
1,25,0,59
1,82,127,1
1,82,0,29
1,25,127,31
1,25,0,59
1,35,127,1
1,25,127,0
1,25,0,59
1,35,0,0
1,69,127,1
1,69,0,59
1,70,127,1
1,70,0,59
1,73,127,1
1,73,0,59
1,27,127,1
1,27,0,59
1,73,127,1
1,73,0,59
1,82,127,1
1,82,0,29
1,35,127,91
1,25,127,0
1,25,0,59
1,35,0,0
1,69,127,1
1,69,0,59
1,70,127,1
1,70,0,59
1,73,127,1
1,73,0,59
1,27,127,1
1,27,0,59
1,25,127,1
1,25,0,59
1,82,127,1
1,82,0,29
1,25,127,31
1,25,0,59
1,35,127,1
1,25,127,0
1,25,0,59
1,35,0,0
1,69,127,1
1,69,0,59
1,70,127,1
1,70,0,59
1,73,127,1
1,73,0,59
1,27,127,1
1,27,0,59
1,73,127,1
1,73,0,59
1,82,127,1
1,82,0,29
1,35,127,91
1,25,127,0
1,25,0,59
1,35,0,0
1,69,127,1
1,69,0,59
1,70,127,1
1,70,0,59
1,73,127,1
1,73,0,59
1,27,127,1
1,27,0,59
1,25,127,1
1,25,0,59
1,82,127,1
1,82,0,29
1,25,127,31
1,25,0,59
1,25,127,1
1,35,127,0
1,35,0,59
1,25,0,0
1,69,127,1
1,69,0,59
1,70,127,1
1,70,0,59
1,73,127,1
1,73,0,59
1,27,127,1
1,27,0,59
1,73,127,1
1,73,0,59
1,82,127,1
1,82,0,29
1,35,127,91
1,25,127,0
1,25,0,59
1,35,0,0
1,69,127,1
1,69,0,59
1,70,127,1
1,70,0,59
1,73,127,1
1,73,0,59
1,27,127,1
1,27,0,59
1,25,127,1
1,25,0,59
1,82,127,1
1,82,0,29
1,25,127,31
1,25,0,59
1,35,127,0
1,25,127,0
1,25,0,59
1,35,0,0
1,69,127,1
1,69,0,59
1,70,127,1
1,70,0,59
1,73,127,1
1,73,0,59
1,27,127,1
1,27,0,59
1,73,127,1
1,73,0,59
1,82,127,1
1,82,0,29
1,35,127,91
1,25,127,0
1,25,0,59
1,35,0,0
1,69,127,1
1,69,0,59
1,70,127,1
1,70,0,59
1,73,127,1
1,73,0,59
1,27,127,1
1,27,0,59
1,25,127,1
1,25,0,59
1,82,127,1
1,82,0,29
1,25,127,31
1,25,0,59
1,25,127,1
1,35,127,0
1,35,0,59
1,25,0,0
1,69,127,1
1,69,0,59
1,70,127,1
1,70,0,59
1,73,127,1
1,73,0,59
1,27,127,1
1,27,0,59
1,73,127,1
1,73,0,59
1,82,127,1
1,82,0,29
1,35,127,91
1,25,127,0
1,25,0,59
1,35,0,0
1,69,127,1
1,69,0,59
1,70,127,1
1,70,0,59
1,73,127,1
1,73,0,59
1,27,127,1
1,27,0,59
1,25,127,1
1,25,0,59
1,82,127,1
1,82,0,29
1,25,127,31
1,25,0,59
1,35,127,1
1,25,127,0
1,25,0,59
1,35,0,0
1,69,127,1
1,69,0,59
1,70,127,1
1,70,0,59
1,73,127,1
1,73,0,59
1,27,127,1
1,27,0,59
1,73,127,1
1,73,0,59
1,82,127,1
1,82,0,29
1,35,127,91
1,25,127,0
1,25,0,59
1,35,0,0
1,69,127,1
1,69,0,59
1,70,127,1
1,70,0,59
1,73,127,1
1,73,0,59
1,27,127,1
1,27,0,59
1,25,127,1
1,25,0,59
1,82,127,1
1,82,0,29
1,25,127,31
1,25,0,59
1,35,127,1
1,25,127,0
1,25,0,59
1,35,0,0
1,69,127,1
1,69,0,59
1,70,127,1
1,70,0,59
1,73,127,1
1,73,0,59
1,27,127,1
1,27,0,59
1,73,127,1
1,73,0,59
1,82,127,1
1,82,0,29
1,35,127,91
1,25,127,0
1,25,0,59
1,35,0,0
1,69,127,1
1,69,0,59
1,70,127,1
1,70,0,59
1,73,127,1
1,73,0,59
1,27,127,1
1,27,0,59
1,25,127,1
1,25,0,59
1,82,127,1
1,82,0,29
1,25,127,31
1,25,0,59
1,35,127,1
1,25,127,0
1,25,0,59
1,35,0,0
1,69,127,1
1,69,0,59
1,70,127,1
1,70,0,59
1,73,127,1
1,73,0,59
1,27,127,1
1,27,0,59
1,73,127,1
1,73,0,59
1,82,127,1
1,82,0,29
1,35,127,91
1,25,127,0
1,25,0,59
1,35,0,0
1,69,127,1
1,69,0,59
1,70,127,1
1,70,0,59
1,73,127,1
1,73,0,59
1,27,127,1
1,27,0,59
1,25,127,1
1,25,0,59
1,82,127,1
1,82,0,29
1,25,127,31
1,25,0,59
1,25,127,1
1,35,127,0
1,35,0,59
1,25,0,0
1,69,127,1
1,69,0,59
1,70,127,1
1,70,0,59
1,73,127,1
1,73,0,59
1,27,127,1
1,27,0,59
1,73,127,1
1,73,0,59
1,82,127,1
1,82,0,29
1,35,127,91
1,25,127,0
1,25,0,59
1,35,0,0
1,69,127,1
1,69,0,59
1,70,127,1
1,70,0,59
1,73,127,1
1,73,0,59
1,27,127,1
1,27,0,59
1,25,127,1
1,25,0,59
1,82,127,1
1,82,0,29
1,25,127,31
1,25,0,59
1,35,127,1
1,25,127,0
1,25,0,59
1,35,0,0
1,69,127,1
1,69,0,59
1,70,127,1
1,70,0,59
1,73,127,1
1,73,0,59
1,27,127,1
1,27,0,59
1,73,127,1
1,73,0,59
1,82,127,1
1,82,0,29
1,35,127,91
1,25,127,0
1,25,0,59
1,35,0,0
1,69,127,1
1,69,0,59
1,70,127,1
1,70,0,59
1,73,127,1
1,73,0,59
1,27,127,1
1,27,0,59
1,25,127,1
1,25,0,59
1,82,127,1
1,82,0,29
1,25,127,31
1,25,0,59
1,25,127,1
1,35,127,0
1,35,0,59
1,25,0,0
1,69,127,1
1,69,0,59
1,70,127,1
1,70,0,59
1,73,127,1
1,73,0,59
1,27,127,1
1,27,0,59
1,73,127,1
1,73,0,59
1,82,127,1
1,82,0,29
1,35,127,91
1,25,127,0
1,25,0,59
1,35,0,0
1,69,127,1
1,69,0,59
1,70,127,1
1,70,0,59
1,73,127,1
1,73,0,59
1,27,127,1
1,27,0,59
1,25,127,1
1,25,0,59
1,82,127,1
1,82,0,29
1,25,127,31
1,25,0,59
1,35,127,1
1,25,127,0
1,25,0,59
1,35,0,0
1,69,127,1
1,69,0,59
1,70,127,1
1,70,0,59
1,73,127,1
1,73,0,59
1,39,127,1
1,27,127,0
1,27,0,59
1,39,0,0
1,73,127,1
1,73,0,59
1,82,127,1
1,82,0,29
1,35,127,91
1,25,127,0
1,25,0,59
1,35,0,0
1,69,127,1
1,69,0,59
1,70,127,1
1,70,0,59
1,73,127,1
1,73,0,59
1,39,127,1
1,27,127,0
1,27,0,59
1,39,0,0
1,25,127,1
1,25,0,59
1,82,127,1
1,82,0,29
1,25,127,31
1,25,0,59
1,35,127,1
1,25,127,0
1,25,0,59
1,35,0,0
1,69,127,1
1,69,0,59
1,70,127,1
1,70,0,59
1,73,127,1
1,73,0,59
1,39,127,1
1,27,127,0
1,27,0,59
1,39,0,0
1,73,127,1
1,73,0,59
1,82,127,1
1,82,0,29
1,35,127,91
1,25,127,0
1,25,0,59
1,35,0,0
1,69,127,1
1,69,0,59
1,70,127,1
1,70,0,59
1,73,127,1
1,73,0,59
1,39,127,1
1,27,127,0
1,27,0,59
1,39,0,0
1,25,127,1
1,25,0,59
1,82,127,1
1,82,0,29
1,25,127,31
1,25,0,59
1,35,127,1
1,25,127,0
1,25,0,59
1,35,0,0
1,69,127,1
1,69,0,59
1,70,127,1
1,70,0,59
1,73,127,1
1,73,0,59
1,39,127,1
1,27,127,0
1,27,0,59
1,39,0,0
1,73,127,1
1,73,0,59
1,82,127,1
1,82,0,29
1,35,127,91
1,25,127,0
1,25,0,59
1,35,0,0
1,69,127,1
1,69,0,59
1,70,127,1
1,70,0,59
1,73,127,1
1,73,0,59
1,27,127,1
1,39,127,0
1,39,0,59
1,27,0,0
1,25,127,1
1,25,0,59
1,82,127,1
1,82,0,29
1,25,127,31
1,25,0,59
1,35,127,1
1,35,0,59
1,35,127,421
1,35,0,59
1,35,127,421
1,35,0,59
1,35,127,421
1,35,0,59
1,69,127,61
1,62,127,0
1,62,0,59
1,69,0,0
1,70,127,1
1,70,0,59
1,73,127,1
1,73,0,59
1,42,127,1
1,62,127,0
1,62,0,59
1,42,0,0
1,25,127,121
1,35,127,0
1,35,0,59
1,25,0,0
1,69,127,1
1,69,0,59
1,70,127,1
1,70,0,59
1,73,127,1
1,73,0,59
1,27,127,1
1,27,0,59
1,73,127,1
1,73,0,59
1,82,127,1
1,82,0,29
1,35,127,91
1,25,127,0
1,25,0,59
1,35,0,0
1,69,127,1
1,69,0,59
1,70,127,1
1,70,0,59
1,73,127,1
1,73,0,59
1,27,127,1
1,27,0,59
1,25,127,1
1,25,0,59
1,82,127,1
1,82,0,29
1,25,127,31
1,25,0,59
1,35,127,1
1,25,127,0
1,25,0,59
1,35,0,0
1,69,127,1
1,69,0,59
1,70,127,1
1,70,0,59
1,73,127,1
1,73,0,59
1,27,127,1
1,27,0,59
1,73,127,1
1,73,0,59
1,82,127,1
1,82,0,29
1,35,127,91
1,25,127,0
1,25,0,59
1,35,0,0
1,69,127,1
1,69,0,59
1,70,127,1
1,62,127,3
1,62,0,20
1,70,0,36
1,73,127,1
1,73,0,59
1,27,127,1
1,62,127,58
1,27,0,1
1,25,127,1
1,62,0,22
1,25,0,37
1,82,127,1
1,82,0,29
1,25,127,31
1,25,0,59
1,25,127,1
1,35,127,0
1,35,0,59
1,25,0,0
1,69,127,1
1,69,0,59
1,70,127,1
1,70,0,59
1,73,127,1
1,73,0,59
1,27,127,1
1,27,0,59
1,73,127,1
1,73,0,59
1,82,127,1
1,82,0,29
1,35,127,91
1,25,127,0
1,25,0,59
1,35,0,0
1,69,127,1
1,69,0,59
1,70,127,1
1,70,0,59
1,73,127,1
1,73,0,59
1,27,127,1
1,27,0,59
1,25,127,1
1,25,0,59
1,82,127,1
1,82,0,29
1,25,127,31
1,25,0,59
1,35,127,1
1,25,127,0
1,25,0,59
1,35,0,0
1,69,127,1
1,69,0,59
1,70,127,1
1,70,0,59
1,73,127,1
1,73,0,59
1,27,127,1
1,27,0,59
1,73,127,1
1,73,0,59
1,82,127,1
1,82,0,29
1,35,127,91
1,25,127,0
1,25,0,59
1,35,0,0
1,69,127,1
1,69,0,59
1,70,127,1
1,62,127,3
1,62,0,19
1,70,0,37
1,73,127,1
1,73,0,59
1,27,127,1
1,27,0,59
1,25,127,1
1,62,127,6
1,62,0,22
1,25,0,31
1,82,127,1
1,82,0,29
1,25,127,31
1,25,0,59
1,35,127,1
1,25,127,0
1,25,0,59
1,35,0,0
1,69,127,1
1,69,0,59
1,70,127,1
1,70,0,59
1,73,127,1
1,73,0,59
1,27,127,1
1,27,0,59
1,73,127,1
1,73,0,59
1,82,127,1
1,82,0,29
1,35,127,91
1,25,127,0
1,25,0,59
1,35,0,0
1,69,127,1
1,69,0,59
1,70,127,1
1,70,0,59
1,73,127,1
1,73,0,59
1,27,127,1
1,27,0,59
1,25,127,1
1,25,0,59
1,82,127,1
1,82,0,29
1,25,127,31
1,25,0,59
1,35,127,1
1,25,127,0
1,25,0,59
1,35,0,0
1,69,127,1
1,69,0,59
1,70,127,1
1,70,0,59
1,73,127,1
1,73,0,59
1,27,127,1
1,27,0,59
1,73,127,1
1,73,0,59
1,82,127,1
1,82,0,29
1,35,127,91
1,25,127,0
1,25,0,59
1,35,0,0
1,69,127,1
1,69,0,59
1,70,127,1
1,62,127,4
1,62,0,27
1,70,0,28
1,73,127,1
1,73,0,59
1,27,127,1
1,27,0,59
1,25,127,1
1,62,127,0
1,62,0,27
1,25,0,32
1,82,127,1
1,82,0,29
1,25,127,31
1,25,0,59
1,25,127,1
1,35,127,0
1,35,0,59
1,25,0,0
1,69,127,1
1,69,0,59
1,70,127,1
1,70,0,59
1,73,127,1
1,73,0,59
1,27,127,1
1,27,0,59
1,73,127,1
1,73,0,59
1,82,127,1
1,82,0,29
1,35,127,91
1,25,127,0
1,25,0,59
1,35,0,0
1,69,127,1
1,69,0,59
1,70,127,1
1,70,0,59
1,73,127,1
1,73,0,59
1,27,127,1
1,27,0,59
1,25,127,1
1,25,0,59
1,82,127,1
1,82,0,29
1,25,127,31
1,25,0,59
1,35,127,1
1,25,127,0
1,25,0,59
1,35,0,0
1,69,127,1
1,69,0,59
1,70,127,1
1,70,0,59
1,73,127,1
1,73,0,59
1,27,127,1
1,27,0,59
1,73,127,1
1,73,0,59
1,82,127,1
1,82,0,29
1,35,127,91
1,25,127,0
1,25,0,59
1,35,0,0
1,69,127,1
1,69,0,59
1,70,127,1
1,62,127,3
1,62,0,25
1,70,0,31
1,73,127,1
1,73,0,59
1,27,127,1
1,62,127,56
1,27,0,3
1,25,127,1
1,62,0,24
1,25,0,35
1,82,127,1
1,82,0,29
1,25,127,31
1,25,0,59
