track,note,velocity,time
0,42,50,940
0,42,40,372
0,42,40,372
0,42,40,372
0,41,72,372
0,29,74,0
0,57,95,0
0,60,77,192
0,65,86,192
0,42,50,0
0,54,33,4
0,57,76,16
0,58,86,16
0,62,83,192
0,42,50,8
0,54,33,4
0,60,75,4
0,58,86,0
0,41,72,0
0,57,72,0
0,57,95,0
0,60,77,16
0,42,48,188
0,65,86,4
0,54,31,4
0,57,76,16
0,53,72,0
0,58,86,0
0,62,83,192
0,42,52,12
0,60,75,4
0,54,35,4
0,58,86,0
0,41,72,16
0,29,74,0
0,57,95,0
0,60,77,192
0,65,86,192
0,42,52,0
0,54,35,4
0,57,76,16
0,58,86,16
0,62,83,192
0,42,48,12
0,60,75,4
0,54,31,4
0,58,86,16
0,41,72,0
0,57,72,0
0,57,95,0
0,60,77,16
0,65,86,192
0,42,46,0
0,54,29,4
0,57,76,16
0,53,71,0
0,58,86,0
0,62,83,192
0,42,50,12
0,60,75,4
0,54,33,4
0,58,86,0
0,41,71,0
0,60,75,0
0,57,95,0
0,60,77,192
0,42,48,188
0,65,86,4
0,54,31,0
0,62,71,0
0,36,71,0
0,53,76,0
0,60,81,0
0,41,71,0
0,57,95,0
0,59,63,0
0,60,77,12
0,60,75,0
0,65,86,12
0,42,48,0
0,54,31,4
0,62,73,0
0,53,90,12
0,60,73,0
0,40,71,4
0,55,88,0
0,67,67,0
0,58,73,12
0,67,73,0
0,60,79,8
0,42,50,0
0,54,33,4
0,36,71,16
0,48,71,8
0,55,85,16
0,40,71,4
0,58,73,28
0,42,54,188
0,60,71,4
0,54,37,4
0,48,83,32
0,60,71,0
0,41,71,8
0,57,75,0
0,53,81,0
0,60,79,188
0,55,65,8
0,65,77,104
0,42,50,4
0,54,33,4
0,62,69,0
0,36,71,0
0,53,83,0
0,60,69,0
0,41,71,0
0,57,69,0
0,59,61,0
0,55,64,16
0,60,73,0
0,60,75,0
0,65,77,16
0,42,54,4
0,54,37,4
0,62,69,0
0,53,81,12
0,60,69,0
0,40,71,0
0,55,83,0
0,70,67,0
0,58,69,8
0,70,63,0
0,60,85,4
0,42,50,0
0,54,33,4
0,36,71,0
0,53,83,0
0,40,71,0
0,55,77,0
0,58,75,112
0,60,81,192
0,42,54,0
0,54,37,4
0,48,75,16
0,69,59,0
0,41,71,0
0,57,79,0
0,64,83,192
0,69,73,192
0,42,54,0
0,54,37,4
0,70,65,0
0,36,71,0
0,60,83,0
0,69,57,0
0,41,71,0
0,57,69,0
0,68,67,0
0,64,85,12
0,69,59,0
0,69,65,12
0,42,50,4
0,54,33,4
0,70,63,0
0,60,79,8
0,69,63,0
0,40,70,0
0,62,83,0
0,57,75,0
0,64,75,192
0,42,48,188
0,69,80,4
0,54,31,4
0,70,65,0
0,38,70,0
0,58,75,0
0,62,85,0
0,69,57,0
0,37,70,0
0,57,71,0
0,61,79,0
0,68,63,0
0,64,81,8
0,69,57,0
0,42,48,12
0,69,73,4
0,54,31,0
0,70,65,0
0,61,75,12
0,69,61,0
0,39,70,12
0,57,83,0
0,55,83,0
0,61,79,192
0,42,46,184
0,54,29,4
0,67,91,4
0,70,69,0
0,39,70,12
0,61,79,0
0,57,86,0
0,69,65,0
0,38,70,0
0,57,86,16
0,68,71,0
0,54,81,0
0,60,83,0
0,69,65,0
0,42,52,4
0,66,75,4
0,54,35,4
0,60,81,100
0,70,69,0
0,67,69,0
0,37,70,0
0,55,79,0
0,59,81,112
0,42,48,108
0,65,85,4
0,54,31,4
0,69,55,0
0,59,81,4
0,37,70,12
0,55,64,0
0,67,75,0
0,36,70,0
0,52,83,0
0,66,63,0
0,60,83,8
0,67,73,0
0,42,50,12
0,64,79,4
0,54,33,4
0,69,63,0
0,60,60,12
0,55,73,0
0,41,70,12
0,53,85,0
0,57,95,0
0,69,59,0
0,60,77,16
0,67,47,0
0,65,63,4
0,65,86,12
0,42,60,0
0,54,43,4
0,60,92,8
0,57,76,8
0,57,69,0
0,58,69,0
0,62,69,4
0,58,86,4
0,65,68,0
0,62,68,4
0,62,83,8
0,64,68,4
0,60,68,0
0,42,60,0
0,54,43,4
0,60,75,4
0,62,67,4
0,58,67,0
0,58,86,8
0,60,67,0
0,57,67,0
0,41,70,0
0,57,70,0
0,57,95,0
0,60,77,16
0,42,58,188
0,65,86,4
0,54,41,4
0,57,76,16
0,58,86,0
0,62,83,108
0,42,62,188
0,60,75,4
0,54,45,4
0,58,86,16
0,41,71,0
0,60,86,0
0,56,94,0
0,84,74,0
0,79,70,0
0,72,58,0
0,60,88,48
0,77,69,44
0,65,84,4
0,42,62,0
0,54,45,4
0,61,72,0
0,36,71,0
0,56,86,0
0,60,80,0
0,79,69,0
0,41,71,0
0,56,97,0
0,59,70,0
0,60,86,12
0,67,70,0
0,60,80,0
0,77,68,12
0,42,58,4
0,65,82,4
0,54,41,4
0,61,70,0
0,53,86,16
0,60,74,0
0,74,68,8
0,40,71,4
0,55,98,0
0,67,80,0
0,58,83,20
0,76,68,0
0,67,74,0
0,60,89,16
0,42,56,0
0,54,39,4
0,36,71,8
0,48,81,8
0,74,67,0
0,55,95,4
0,40,71,4
0,58,83,28
0,76,67,184
0,42,60,4
0,60,81,4
0,54,43,4
0,48,93,72
0,84,74,60
0,60,80,0
0,41,71,4
0,56,88,0
0,79,70,0
0,72,58,0
0,60,88,48
0,77,69,44
0,42,58,0
0,65,84,4
0,54,41,0
0,61,76,0
0,36,71,0
0,56,86,0
0,60,74,0
0,79,69,0
0,41,71,0
0,56,90,0
0,59,78,0
0,60,86,12
0,67,70,0
0,60,92,0
0,77,68,8
0,65,82,8
0,42,58,0
0,54,41,4
0,61,80,0
0,53,86,4
0,74,68,180
0,60,92,0
0,40,71,0
0,55,98,0
0,70,78,0
0,58,83,8
0,76,68,4
0,70,81,0
0,60,89,0
0,42,60,0
0,54,43,4
0,36,71,0
0,48,81,0
0,74,67,0
0,40,71,0
0,55,95,0
0,74,68,0
0,58,83,16
0,76,67,184
0,42,64,4
0,60,81,4
0,76,46,0
0,54,47,4
0,48,93,24
0,69,75,0
0,41,71,0
0,57,89,0
0,81,92,0
0,57,82,0
0,69,78,0
0,72,64,0
0,69,56,0
0,64,93,192
0,69,83,192
0,42,60,4
0,54,43,4
0,82,92,132
0,70,78,0
0,36,71,0
0,60,93,0
0,84,98,24
0,69,80,0
0,57,72,0
0,41,71,0
0,57,79,0
0,68,74,0
0,64,95,12
0,69,78,0
0,69,75,8
0,42,64,4
0,54,47,4
0,70,92,0
0,60,89,4
0,86,98,168
0,57,80,4
0,74,76,0
0,69,80,0
0,40,70,0
0,62,93,0
0,57,85,0
0,64,85,48
0,69,90,192
0,42,60,0
0,54,43,4
0,91,98,8
0,70,86,0
0,38,70,0
0,58,85,0
0,62,95,0
0,69,80,0
0,57,83,0
0,88,80,0
0,76,80,0
0,37,70,0
0,57,81,0
0,61,89,0
0,68,78,0
0,64,91,8
0,73,58,0
0,69,76,0
0,69,83,12
0,42,64,0
0,54,47,4
0,74,93,0
0,69,66,0
0,61,85,12
0,57,84,0
0,69,72,0
0,39,70,8
0,57,93,0
0,55,93,0
0,89,84,0
0,77,76,0
0,61,89,192
0,67,101,192
0,42,64,0
0,54,47,4
0,70,92,0
0,39,70,0
0,61,89,0
0,57,96,0
0,69,86,0
0,90,84,0
0,54,100,4
0,38,70,0
0,57,91,0
0,78,64,16
0,68,76,0
0,54,91,16
0,60,93,0
0,69,76,0
0,74,66,12
0,66,85,8
0,74,80,0
0,42,60,4
0,54,43,4
0,70,86,0
0,72,72,0
0,60,91,12
0,72,69,0
0,91,90,0
0,79,72,0
0,67,92,0
0,55,86,0
0,67,78,4
0,37,70,0
0,55,95,0
0,71,66,4
0,71,85,8
0,59,91,112
0,42,58,108
0,65,95,4
0,54,41,4
0,69,86,0
0,37,70,8
0,55,74,0
0,59,91,0
0,55,84,0
0,67,92,0
0,70,77,0
0,36,70,0
0,52,93,0
0,70,64,0
0,66,86,0
0,58,93,8
0,67,98,0
0,42,58,4
0,64,89,4
0,54,41,0
0,67,78,16
0,69,72,0
0,58,93,8
0,41,70,4
0,57,105,0
0,84,78,0
0,69,71,0
0,72,53,0
0,89,63,4
0,65,78,12
0,69,72,0
0,60,87,0
0,67,80,88
0,65,78,0
0,42,56,0
0,54,39,4
0,65,96,4
0,60,72,160
0,57,86,16
0,62,80,0
0,67,75,4
0,82,58,4
0,58,96,4
0,62,93,4
0,65,80,0
0,42,62,12
0,60,85,4
0,64,74,4
0,54,45,0
0,62,80,0
0,58,96,16
0,60,86,4
0,65,75,0
0,81,61,8
0,41,70,8
0,57,70,0
0,57,105,0
0,60,87,16
0,42,58,188
0,65,96,4
0,54,41,4
0,57,86,16
0,79,70,4
0,70,67,0
0,58,96,8
0,62,93,192
0,69,54,12
0,77,54,0
0,65,86,0
0,42,60,0
0,60,85,4
0,54,43,4
0,67,73,8
0,65,98,8
0,67,86,0
0,55,88,0
0,43,76,0
0,62,88,0
0,67,67,0
0,70,57,0
0,74,65,0
0,72,68,0
0,62,90,0
0,72,74,0
0,60,86,0
0,42,56,8
0,54,39,4
0,62,92,104
0,41,69,0
0,77,78,0
0,58,86,100
0,40,74,0
0,79,82,0
0,64,98,0
0,62,96,108
0,65,88,0
0,84,70,0
0,60,88,64
0,42,56,0
0,54,39,4
0,84,84,0
0,62,90,8
0,60,93,0
0,64,86,0
0,69,56,0
0,41,85,0
0,53,102,0
0,69,67,0
0,72,61,0
0,69,56,0
0,60,88,12
0,69,58,0
0,57,80,8
0,42,54,0
0,64,90,4
0,54,37,4
0,36,74,0
0,57,80,52
0,29,80,0
0,76,68,4
0,60,86,176
0,81,82,8
0,81,84,12
0,58,80,0
0,42,58,0
0,54,41,8
0,64,79,4
0,60,86,104
0,62,97,0
0,58,93,0
0,67,56,0
0,43,76,8
0,74,76,0
0,62,79,0
0,58,86,0
0,67,67,0
0,70,63,0
0,67,60,0
0,62,86,8
0,79,80,4
0,67,66,0
0,60,84,4
0,42,58,0
0,79,84,4
0,54,41,0
0,67,82,8
0,53,97,160
0,62,80,4
0,41,69,0
0,58,82,8
0,52,89,8
0,40,74,0
0,62,82,180
0,60,86,4
0,42,54,4
0,54,37,8
0,79,80,16
0,62,82,0
0,76,68,40
0,74,51,16
0,65,67,52
0,72,82,4
0,53,89,0
0,60,80,0
0,65,55,0
0,57,68,0
0,41,85,0
0,57,78,0
0,69,62,0
0,65,80,0
0,60,96,4
0,65,72,0
0,57,82,0
0,42,52,4
0,54,35,4
0,60,82,24
0,36,74,0
0,53,86,112
0,57,86,20
0,60,87,40
0,29,80,0
0,65,81,0
0,42,56,0
0,54,39,0
0,67,81,0
0,43,76,8
0,55,96,0
0,86,76,0
0,72,81,184
0,62,90,4
0,62,93,88
0,60,86,20
0,72,81,4
0,42,54,0
0,54,37,4
0,62,84,80
0,84,74,0
0,41,86,0
0,58,86,4
0,82,72,4
0,40,74,0
0,64,94,0
0,62,96,68
0,65,88,0
0,65,80,0
0,60,88,80
0,64,86,0
0,64,88,8
0,42,54,0
0,54,37,0
0,62,90,76
0,62,84,0
0,58,90,8
0,64,80,8
0,60,84,0
0,84,80,4
0,41,85,0
0,53,102,0
0,69,80,32
0,60,88,12
0,69,80,24
0,57,80,4
0,64,90,4
0,42,56,0
0,54,39,4
0,82,72,4
0,36,74,0
0,57,80,52
0,81,78,4
0,29,80,0
0,64,98,104
0,60,86,4
0,62,84,36
0,57,80,32
0,42,60,4
0,54,43,4
0,64,79,4
0,60,84,8
0,60,86,8
0,70,63,8
0,74,64,0
0,82,72,0
0,65,86,0
0,62,79,0
0,62,86,4
0,58,80,0
0,43,76,4
0,62,79,0
0,58,86,0
0,67,79,44
0,62,86,8
0,60,84,24
0,67,79,0
0,42,56,4
0,54,39,4
0,67,82,4
0,53,97,52
0,62,80,4
0,81,78,4
0,41,76,0
0,64,82,0
0,58,82,4
0,79,72,0
0,52,89,8
0,40,74,0
0,62,86,0
0,62,82,72
0,60,86,4
0,42,60,12
0,54,43,4
0,62,82,8
0,60,79,8
0,72,72,0
0,81,78,0
0,69,66,0
0,60,70,0
0,57,81,0
0,41,87,0
0,57,105,0
0,64,70,0
0,65,79,152
0,65,87,8
0,60,87,0
0,65,79,12
0,65,96,4
0,42,56,0
0,54,39,4
0,79,80,4
0,36,74,0
0,57,86,0
0,77,80,0
0,29,80,0
0,58,96,0
0,62,93,96
0,76,75,8
0,36,69,8
0,60,85,0
0,42,60,0
0,54,43,4
0,74,70,8
0,58,96,8
0,41,71,0
0,60,92,0
0,57,105,0
0,60,95,0
0,72,74,4
0,69,67,0
0,60,87,188
0,69,92,8
0,65,96,8
0,42,60,0
0,54,43,4
0,62,88,0
0,36,71,0
0,53,86,0
0,60,98,0
0,41,71,0
0,57,105,0
0,59,80,0
0,60,87,12
0,65,98,68
0,60,92,0
0,65,96,12
0,42,56,4
0,54,39,4
0,62,85,0
0,62,90,0
0,53,86,12
0,60,92,0
0,67,67,0
0,60,90,0
0,40,71,4
0,55,98,0
0,67,84,0
0,58,83,12
0,67,90,0
0,42,54,4
0,60,89,4
0,54,37,4
0,36,71,40
0,48,81,8
0,55,95,16
0,40,71,4
0,58,83,28
0,42,54,188
0,60,81,4
0,54,37,0
0,48,93,56
0,60,95,80
0,69,67,4
0,60,88,0
0,41,71,8
0,57,85,0
0,53,91,0
0,55,85,16
0,60,89,0
0,69,92,172
0,42,52,12
0,54,35,4
0,65,87,4
0,62,86,0
0,36,71,0
0,53,93,0
0,60,86,0
0,41,71,0
0,57,79,0
0,59,78,0
0,55,85,16
0,60,83,0
0,65,98,168
0,60,92,0
0,42,58,12
0,65,87,4
0,54,41,4
0,62,85,0
0,62,86,0
0,53,91,12
0,60,89,0
0,60,86,0
0,40,71,0
0,55,93,0
0,67,76,0
0,70,67,0
0,70,84,0
0,58,79,8
0,70,80,0
0,42,54,0
0,60,95,4
0,54,37,4
0,36,71,0
0,53,93,0
0,40,71,0
0,55,87,0
0,58,85,112
0,42,56,12
0,60,91,4
0,54,39,4
0,48,85,176
0,69,76,0
0,41,71,0
0,72,92,0
0,57,82,0
0,65,78,0
0,69,88,0
0,65,76,0
0,79,63,4
0,84,82,4
0,53,94,96
0,60,86,0
0,64,78,12
0,65,106,8
0,64,80,0
0,42,55,0
0,54,38,4
0,77,59,0
0,74,80,0
0,36,71,0
0,72,93,0
0,62,76,0
0,41,71,0
0,62,78,0
0,57,72,4
0,79,63,4
0,71,66,0
0,60,100,12
0,53,100,4
0,72,92,0
0,60,74,0
0,42,55,0
0,77,53,0
0,54,38,4
0,60,80,0
0,65,87,4
0,74,92,0
0,60,100,4
0,40,70,0
0,67,74,0
0,64,78,0
0,67,87,0
0,72,92,0
0,55,88,16
0,60,84,0
0,76,57,8
0,42,53,4
0,64,106,8
0,54,36,0
0,74,92,0
0,36,70,0
0,72,90,0
0,65,78,0
0,60,88,8
0,40,70,0
0,77,61,4
0,71,68,0
0,60,88,12
0,55,87,0
0,72,92,0
0,64,80,0
0,64,94,8
0,42,57,0
0,76,63,4
0,54,40,0
0,74,81,0
0,75,51,0
0,70,93,0
0,63,58,0
0,85,89,4
0,39,70,4
0,55,94,0
0,63,84,0
0,67,85,0
0,58,105,180
0,63,84,192
0,42,57,4
0,54,40,4
0,72,74,0
0,55,94,0
0,34,70,0
0,70,78,0
0,86,90,4
0,54,94,0
0,62,78,0
0,74,55,0
0,38,70,0
0,62,102,0
0,66,86,0
0,69,81,0
0,57,75,0
0,42,53,196
0,62,82,8
0,54,36,0
0,70,86,0
0,54,94,28
0,72,98,0
0,89,84,8
0,69,68,0
0,37,70,0
0,53,93,0
0,61,76,0
0,65,83,0
0,61,50,8
0,73,43,4
0,56,89,64
0,65,84,0
0,65,99,0
0,61,73,0
0,42,51,0
0,54,34,4
0,37,70,0
0,69,78,0
0,60,71,12
0,67,92,0
0,60,70,0
0,36,70,0
0,88,84,0
