track,note,velocity,time
0,43,110,54
0,31,110,0
0,31,110,0
0,31,110,4
0,43,110,0
0,31,110,0
0,28,110,4
0,40,110,0
0,28,110,0
0,28,110,4
0,40,110,0
0,28,110,0
0,43,110,4
0,31,110,0
0,31,110,0
0,43,110,4
0,31,110,0
0,31,110,0
0,42,115,4
0,36,82,0
0,38,110,0
0,26,110,0
0,26,110,0
0,42,67,47
0,42,109,47
0,38,93,0
0,42,56,47
0,42,101,47
0,36,86,0
0,42,64,47
0,42,109,47
0,38,89,0
0,39,126,0
0,39,127,5
0,42,92,40
0,42,109,1
0,36,90,0
0,83,90,0
0,42,64,47
0,42,117,5
0,36,90,0
0,38,90,0
0,42,70,10
0,42,103,9
0,42,119,9
0,36,90,0
0,42,107,3
0,38,93,0
0,39,126,0
0,39,127,1
0,42,101,3
0,42,115,3
0,36,82,0
0,42,67,12
0,42,109,2
0,38,93,0
0,42,56,1
0,42,101,1
0,36,86,0
0,42,64,5
0,42,109,6
0,38,89,0
0,39,126,0
0,39,127,2
0,42,92,10
0,42,109,4
0,36,90,0
0,42,64,4
0,42,117,4
0,36,90,0
0,38,90,0
0,42,70,4
0,42,103,3
0,42,119,8
0,36,90,0
0,42,107,2
0,38,93,0
0,39,126,0
0,39,127,5
0,42,101,2
0,42,115,1
0,36,82,0
0,42,67,6
0,42,109,1
0,38,93,0
0,42,56,12
0,42,101,12
0,36,86,0
0,42,64,12
0,42,109,12
0,38,89,0
0,39,126,0
0,39,127,5
0,42,92,12
0,42,109,47
0,36,90,0
0,42,64,47
0,42,117,47
0,36,90,0
0,38,90,0
0,42,70,47
0,42,103,47
0,42,119,47
0,36,90,0
0,42,107,47
0,38,93,0
0,39,126,0
0,39,127,5
0,42,101,36
0,42,115,47
0,36,82,0
0,42,67,47
0,69,76,0
0,42,109,47
0,38,93,0
0,69,89,0
0,42,56,47
0,42,101,47
0,36,86,0
0,69,85,0
0,42,64,47
0,42,109,47
0,38,89,0
0,39,126,0
0,39,127,5
0,42,92,40
0,69,81,0
0,42,109,6
0,36,90,0
0,69,90,0
0,42,64,1
0,42,117,47
0,36,90,0
0,38,90,0
0,69,93,0
0,42,70,47
0,42,103,47
0,38,123,47
0,42,119,0
0,36,90,0
0,38,125,47
0,42,107,0
0,38,93,0
0,39,126,0
0,39,127,1
0,39,114,1
0,38,105,1
0,36,107,0
0,49,123,0
0,42,101,0
0,27,127,0
0,39,114,0
0,39,75,0
0,42,110,18
0,36,90,0
0,42,114,0
0,42,50,2
0,30,127,0
0,42,114,0
0,42,92,0
0,46,114,1
0,42,110,1
0,38,115,0
0,34,127,0
0,46,114,0
0,46,92,0
0,54,114,1
0,42,50,1
0,42,127,0
0,54,114,0
0,54,92,0
0,51,114,1
0,42,110,1
0,36,90,0
0,39,127,0
0,51,114,0
0,51,92,0
0,42,50,2
0,42,110,1
0,38,115,0
0,39,127,0
0,39,127,1
0,51,114,0
0,39,127,2
0,51,114,0
0,51,92,0
0,42,50,1
0,42,110,35
0,36,90,0
0,51,114,1
0,42,50,1
0,39,127,0
0,51,114,0
0,51,92,0
0,49,114,1
0,42,110,2
0,38,115,0
0,36,90,0
0,37,127,0
0,49,114,0
0,49,92,0
0,42,50,10
0,49,114,45
0,42,110,2
0,37,127,0
0,49,114,0
0,49,92,0
0,42,50,8
0,36,90,0
0,42,110,47
0,38,115,0
0,39,127,0
0,39,127,5
0,39,114,38
0,42,50,2
0,27,127,0
0,39,114,0
0,39,92,0
0,42,110,47
0,36,90,0
0,42,114,0
0,42,50,2
0,30,127,0
0,42,114,0
0,42,92,0
0,46,114,0
0,42,110,2
0,38,115,0
0,34,127,0
0,46,114,0
0,46,92,0
0,54,114,0
0,42,50,2
0,42,127,0
0,54,114,0
0,54,92,0
0,51,114,0
0,42,110,2
0,36,90,0
0,39,127,0
0,51,114,0
0,51,92,0
0,42,50,2
0,42,110,1
0,38,115,0
0,39,127,0
0,39,127,2
0,51,114,0
0,39,127,2
0,51,114,0
0,51,92,0
0,42,50,1
0,42,110,37
0,36,90,0
0,51,114,0
0,42,50,1
0,39,127,0
0,51,114,0
0,51,92,0
0,49,114,4
0,42,110,2
0,38,115,0
0,36,90,0
0,37,127,0
0,49,114,0
0,49,92,0
0,42,50,7
0,42,110,47
0,42,50,47
0,36,90,0
0,42,110,47
0,38,115,0
0,39,127,0
0,39,127,5
0,39,114,1
0,70,127,0
0,42,50,1
0,27,127,0
0,39,114,0
0,39,92,0
0,75,127,0
0,70,127,21
0,60,127,1
0,42,110,20
0,36,90,0
0,75,127,0
0,60,127,0
0,70,127,20
0,55,127,1
0,42,114,1
0,68,127,0
0,42,50,1
0,30,127,0
0,42,114,0
0,42,92,0
0,60,127,0
0,61,127,20
0,56,127,2
0,46,114,1
0,66,127,0
0,42,110,1
0,38,115,0
0,34,127,0
0,46,114,0
0,46,92,0
0,61,125,0
0,54,114,1
0,42,50,1
0,42,127,0
0,54,114,0
0,54,92,0
0,56,91,0
0,61,101,0
0,61,103,19
0,56,106,1
0,51,114,1
0,66,127,0
0,42,110,1
0,36,90,0
0,39,127,0
0,51,114,0
0,51,92,0
0,61,127,0
0,63,123,1
0,42,50,1
0,58,125,0
0,42,110,1
0,38,115,0
0,39,127,0
0,39,127,1
0,51,114,0
0,39,127,2
0,51,114,0
0,51,92,0
0,63,115,0
0,42,50,1
0,58,115,0
0,63,115,1
0,58,117,1
0,42,110,13
0,36,90,0
0,70,110,0
0,61,127,0
0,51,114,1
0,42,50,1
0,39,127,0
0,51,114,0
0,51,92,0
0,56,106,0
0,61,100,0
0,61,110,19
0,56,117,1
0,49,114,1
0,42,110,2
0,38,115,0
0,36,90,0
0,37,127,0
0,49,114,0
0,49,92,0
0,61,127,0
0,65,103,0
0,61,123,3
0,42,50,1
0,56,127,0
0,49,114,1
0,42,110,2
0,37,127,0
0,49,114,0
0,49,92,0
0,42,50,8
0,36,90,0
0,60,94,1
0,55,94,0
0,54,90,0
0,59,90,0
0,53,86,0
0,58,86,0
0,52,84,0
0,57,84,0
0,42,110,4
0,38,115,0
0,39,127,0
0,51,82,0
0,56,82,0
0,39,127,3
0,50,80,0
0,55,80,0
0,54,79,0
0,49,79,0
0,48,78,0
0,53,78,0
0,52,76,0
0,47,76,0
0,46,75,0
0,51,75,0
0,39,114,2
0,42,50,2
0,27,127,0
0,39,114,0
0,39,92,0
0,45,71,0
0,50,71,0
0,44,71,0
0,49,60,0
0,43,60,0
0,48,50,0
0,42,50,0
0,47,40,0
0,41,40,0
0,46,40,0
0,45,40,0
0,40,40,0
0,42,110,4
0,36,90,0
0,61,113,0
0,56,125,0
0,56,125,21
0,42,114,0
0,61,121,1
0,42,50,1
0,30,127,0
0,42,114,0
0,42,92,0
0,56,121,0
0,61,116,20
0,56,115,2
0,46,114,0
0,66,127,1
0,42,110,1
0,38,115,0
0,34,127,0
0,46,114,0
0,46,92,0
0,61,125,0
0,54,114,0
0,42,50,2
0,42,127,0
0,54,114,0
0,54,92,0
0,56,91,0
0,61,101,0
0,61,103,19
0,56,106,1
0,51,114,0
0,66,127,1
0,42,110,1
0,36,90,0
0,39,127,0
0,51,114,0
0,51,92,0
0,61,127,0
0,63,123,1
0,42,50,1
0,58,125,0
0,42,110,1
0,38,115,0
0,39,127,0
0,39,127,2
0,51,114,0
0,39,127,2
0,51,114,0
0,51,92,0
0,63,115,0
0,42,50,1
0,58,115,0
0,63,115,1
0,58,117,1
0,42,110,13
0,36,90,0
0,70,110,0
0,61,127,0
0,51,114,0
0,42,50,1
0,39,127,0
0,51,114,0
0,51,92,0
0,56,106,0
0,61,100,0
0,61,110,19
0,56,117,1
0,49,114,4
0,42,110,2
0,38,115,0
0,36,90,0
0,37,127,0
0,49,114,0
0,49,92,0
0,61,127,0
0,65,103,0
0,61,123,3
0,42,50,1
0,56,127,0
0,42,110,3
0,42,50,13
0,36,90,0
0,60,94,1
0,55,94,0
0,54,90,0
0,59,90,0
0,53,86,0
0,58,86,0
0,52,84,0
0,57,84,0
0,42,110,4
0,38,115,0
0,39,127,0
0,51,82,0
0,56,82,0
0,39,127,3
0,50,80,0
0,55,80,0
0,54,79,0
0,49,79,0
0,48,78,0
0,53,78,0
0,52,76,0
0,47,76,0
0,46,75,0
0,51,75,0
0,42,50,3
0,45,71,0
0,50,71,0
0,44,71,0
0,49,60,0
0,43,60,0
0,48,50,0
0,42,50,0
0,47,40,0
0,57,80,12
0,36,90,0
0,63,78,0
0,66,79,0
0,58,74,0
0,39,98,0
0,42,50,47
0,39,127,0
0,63,92,0
0,51,98,0
0,58,102,0
0,70,104,1
0,42,110,8
0,38,115,0
0,39,127,0
0,63,78,0
0,58,93,0
0,51,89,0
0,68,105,1
0,42,50,4
0,70,105,1
0,42,110,22
0,36,90,0
0,39,127,0
0,63,97,0
0,58,100,0
0,51,101,0
0,70,102,2
0,42,50,8
0,70,104,2
0,42,110,22
0,38,115,0
0,39,127,0
0,68,101,1
0,39,127,4
0,42,50,7
0,37,127,0
0,61,82,0
0,56,101,0
0,49,98,0
0,70,105,3
0,42,110,4
0,36,90,0
0,37,127,0
0,61,78,0
0,56,78,0
0,65,74,0
0,61,82,0
0,56,97,0
0,49,98,0
0,71,91,1
0,42,50,6
0,70,107,4
0,42,110,15
0,38,115,0
0,36,90,0
0,37,127,0
0,61,100,0
0,56,101,0
0,49,100,0
0,68,105,4
0,42,50,7
0,42,110,47
0,68,108,1
0,42,50,26
0,36,90,0
0,42,110,18
0,38,115,0
0,39,127,0
0,39,127,5
0,42,50,40
0,70,107,3
0,42,110,4
0,36,90,0
0,63,76,0
0,66,76,0
0,58,73,0
0,68,107,1
0,42,50,4
0,39,127,0
0,63,98,0
0,58,102,0
0,51,101,0
0,70,107,3
0,42,110,8
0,38,115,0
0,39,127,0
0,63,86,0
0,51,98,0
0,58,101,0
0,70,95,1
0,42,50,8
0,70,104,2
0,42,110,23
0,36,90,0
0,39,127,0
0,63,98,0
0,58,101,0
0,51,101,0
0,68,107,2
0,42,50,6
0,70,107,3
0,42,110,19
0,38,115,0
0,39,127,0
0,68,107,2
0,39,127,3
0,42,50,9
0,37,127,0
0,61,92,0
0,56,102,0
0,49,101,0
0,66,104,2
0,42,110,4
0,36,90,0
0,37,127,0
0,56,79,0
0,61,78,0
0,65,76,0
0,61,84,0
0,49,97,0
0,56,99,0
0,68,107,3
0,42,50,8
0,66,107,2
0,42,110,23
0,38,115,0
0,36,90,0
0,37,127,0
0,61,98,0
0,56,100,0
0,49,99,0
0,68,108,3
0,42,50,6
0,42,110,13
0,42,50,47
0,36,90,0
0,42,110,47
0,38,115,0
0,39,127,0
0,39,127,5
0,42,50,40
0,70,105,0
0,42,110,4
0,36,90,0
0,54,78,0
0,63,82,0
0,59,77,0
0,68,108,1
0,42,50,7
0,35,127,0
0,59,87,0
0,54,105,0
0,47,96,0
0,66,105,1
0,42,110,8
0,38,115,0
0,35,127,0
0,59,85,0
0,47,92,0
0,54,99,0
0,63,98,1
0,42,50,0
0,61,102,1
0,42,110,37
0,36,90,0
0,35,127,0
0,59,90,0
0,54,104,0
0,47,99,0
0,63,108,1
0,42,50,0
0,42,110,11
0,38,115,0
0,39,127,0
0,61,108,1
0,39,127,4
0,42,50,25
0,37,127,0
0,61,100,0
0,49,102,0
0,56,105,0
0,63,107,2
0,42,110,2
0,36,90,0
0,37,127,0
0,61,82,0
0,56,78,0
0,65,74,0
0,61,86,0
0,49,100,0
0,56,101,0
0,65,100,1
0,42,50,4
0,63,102,2
0,42,110,21
0,38,115,0
0,36,90,0
0,37,127,0
0,61,103,0
0,56,105,0
0,49,105,0
0,61,107,0
0,42,50,8
0,58,104,1
0,42,110,34
0,61,108,2
0,42,50,18
0,36,90,0
0,63,110,17
0,42,110,2
0,38,115,0
0,63,96,0
0,39,127,0
0,63,107,0
0,39,127,5
0,42,50,25
0,63,107,1
0,66,111,1
0,42,110,1
0,36,90,0
0,63,81,0
0,66,81,0
0,58,78,0
0,66,100,0
0,66,107,1
0,42,50,2
0,39,127,0
0,63,102,0
0,58,105,0
0,51,103,0
0,63,110,0
0,63,97,0
0,63,108,1
0,42,110,8
0,38,115,0
0,39,127,0
0,63,95,0
0,58,101,0
0,51,101,0
0,42,50,8
0,42,110,47
0,36,90,0
0,39,127,0
0,63,102,0
0,58,104,0
0,51,104,0
0,42,50,6
0,63,111,46
0,42,110,1
0,38,115,0
0,63,100,0
0,39,127,0
0,63,108,1
0,39,127,4
0,42,50,32
0,37,127,0
0,61,100,0
0,56,105,0
0,49,100,0
0,63,108,1
0,65,108,0
0,65,99,1
0,42,110,0
0,36,90,0
0,37,127,0
0,61,80,0
0,65,73,0
0,56,76,0
0,61,82,0
0,56,97,0
0,49,98,0
0,63,107,1
0,42,50,0
0,61,111,0
0,61,100,1
0,61,108,4
0,42,110,27
0,38,115,0
0,36,90,0
0,37,127,0
0,61,100,0
0,56,101,0
0,49,100,0
0,42,50,6
0,42,110,47
0,42,50,47
0,36,90,0
0,42,110,47
0,38,115,0
0,39,127,0
0,39,127,5
0,42,50,40
0,49,88,4
0,36,90,0
0,63,78,0
0,66,79,0
0,58,74,0
0,39,98,0
0,49,110,0
0,42,50,46
0,39,127,0
0,63,92,0
0,51,98,0
0,58,102,0
0,51,99,0
0,70,102,3
0,42,110,8
0,38,115,0
0,39,127,0
0,63,78,0
0,58,93,0
0,51,89,0
0,49,87,0
0,68,107,1
0,42,50,5
0,51,90,0
0,70,100,2
0,42,110,30
0,36,90,0
0,39,127,0
0,63,97,0
0,58,100,0
0,51,101,0
0,54,95,0
0,70,100,2
0,42,50,8
0,51,89,0
0,70,102,1
0,42,110,23
0,38,115,0
0,49,80,0
0,39,127,0
0,68,88,1
0,39,127,4
0,42,50,3
0,37,127,0
0,61,82,0
0,56,101,0
0,49,98,0
0,51,99,0
0,70,100,1
0,42,110,4
0,36,90,0
0,37,127,0
0,61,78,0
0,56,78,0
0,65,74,0
0,61,82,0
0,56,97,0
0,49,98,0
0,53,87,0
0,71,97,0
0,42,50,7
0,51,74,0
0,70,105,3
0,42,110,23
0,38,115,0
0,36,90,0
0,37,127,0
0,61,100,0
0,56,101,0
0,49,100,0
0,49,82,0
0,68,107,4
0,42,50,8
0,51,99,0
0,42,110,38
0,53,92,0
0,70,108,1
0,42,50,6
0,36,90,0
0,51,92,0
0,42,110,15
0,38,115,0
0,49,85,0
0,39,127,0
0,39,127,5
0,42,50,38
0,51,101,0
0,70,105,4
0,42,110,4
0,36,90,0
0,63,76,0
0,66,76,0
0,58,73,0
0,49,83,0
0,68,105,2
0,42,50,0
0,39,127,0
0,63,98,0
0,58,102,0
0,51,101,0
0,51,89,0
0,70,108,5
0,42,110,8
0,38,115,0
0,39,127,0
0,63,86,0
0,51,98,0
0,58,101,0
0,49,85,0
0,70,102,3
0,42,50,8
0,51,90,0
0,70,102,2
0,42,110,25
0,36,90,0
0,39,127,0
0,63,98,0
0,58,101,0
0,51,101,0
0,54,105,0
0,68,107,3
0,42,50,6
0,51,90,0
0,70,108,3
0,42,110,25
0,38,115,0
0,49,70,0
0,39,127,0
0,68,105,1
0,39,127,4
0,42,50,9
0,37,127,0
0,61,92,0
0,56,102,0
0,49,101,0
0,51,97,0
0,66,101,3
0,42,110,4
0,36,90,0
0,37,127,0
0,56,79,0
0,61,78,0
0,65,76,0
0,61,84,0
0,49,97,0
0,56,99,0
0,53,86,0
0,68,105,1
0,42,50,8
0,51,95,0
0,66,95,2
0,42,110,30
0,38,115,0
0,36,90,0
0,37,127,0
0,61,98,0
0,56,100,0
0,49,99,0
0,49,83,0
0,68,108,6
0,42,50,2
0,51,87,0
0,42,110,29
0,53,78,0
0,42,50,22
0,36,90,0
0,51,95,0
0,42,110,38
0,38,115,0
0,49,78,0
0,39,127,0
0,39,127,5
0,42,50,38
0,51,78,0
0,70,107,2
0,42,110,4
0,36,90,0
0,54,78,0
0,63,82,0
