track,note,velocity,time
1,36,116,952
1,38,112,0
1,42,116,0
1,38,98,271
1,36,106,124
1,38,110,0
1,42,107,0
1,38,90,264
1,36,113,122
1,38,108,0
1,42,113,0
1,36,121,271
1,38,118,0
1,42,125,0
1,38,97,266
1,36,108,121
1,38,110,0
1,42,115,0
1,38,96,264
1,46,107,0
1,36,115,120
1,38,105,0
1,42,118,0
1,36,119,85
1,36,115,120
1,42,111,0
1,69,75,0
1,69,51,44
1,36,113,13
1,42,92,0
1,69,64,0
1,69,54,20
1,38,119,10
1,42,103,0
1,69,72,0
1,69,43,32
1,42,104,13
1,69,62,0
1,40,73,61
1,69,47,0
1,36,113,3
1,42,102,0
1,69,66,0
1,40,66,31
1,69,44,0
1,40,68,5
1,46,103,0
1,69,60,0
1,36,108,54
1,69,48,0
1,38,112,8
1,42,111,0
1,69,73,0
1,69,37,28
1,36,115,3
1,42,87,0
1,69,70,0
1,69,40,45
1,36,119,1
1,42,95,0
1,69,77,0
1,69,47,44
1,36,119,13
1,42,80,0
1,69,61,0
1,69,52,20
1,38,112,10
1,42,96,0
1,69,65,0
1,69,42,20
1,42,97,13
1,69,61,0
1,40,74,61
1,69,46,0
1,36,113,3
1,42,102,0
1,69,68,0
1,40,68,31
1,69,46,0
1,40,68,5
1,46,108,0
1,69,65,0
1,36,114,38
1,69,50,0
1,38,110,8
1,42,105,0
1,69,68,0
1,69,38,37
1,36,116,3
1,42,94,0
1,69,65,0
1,69,47,45
1,36,112,1
1,42,114,0
1,69,74,0
1,69,50,44
1,36,116,13
1,42,92,0
1,69,63,0
1,69,48,20
1,38,114,10
1,42,98,0
1,69,73,0
1,69,45,32
1,42,104,13
1,69,64,0
1,40,73,61
1,69,47,0
1,36,115,3
1,42,105,0
1,69,60,0
1,40,73,31
1,69,50,0
1,40,70,5
1,46,104,0
1,69,63,0
1,36,107,54
1,69,43,0
1,38,117,8
1,42,105,0
1,69,68,0
1,69,39,28
1,36,119,3
1,42,86,0
1,69,66,0
1,69,43,45
1,36,117,1
1,42,93,0
1,69,79,0
1,69,49,44
1,36,116,13
1,42,83,0
1,69,64,0
1,69,48,20
1,38,112,10
1,42,91,0
1,69,73,0
1,69,44,20
1,42,96,13
1,69,60,0
1,40,74,61
1,69,50,0
1,36,115,3
1,42,102,0
1,69,65,0
1,40,70,31
1,69,47,0
1,40,72,5
1,46,105,0
1,69,61,0
1,36,109,38
1,69,46,0
1,38,112,8
1,42,108,0
1,69,71,0
1,69,38,37
1,36,120,3
1,42,91,0
1,69,62,0
1,69,47,45
1,36,113,1
1,42,109,0
1,69,79,0
1,69,54,44
1,36,117,13
1,42,89,0
1,69,62,0
1,69,53,20
1,38,112,10
1,42,100,0
1,69,71,0
1,69,46,32
1,42,103,13
1,69,60,0
1,40,74,61
1,69,47,0
1,36,111,3
1,42,100,0
1,69,60,0
1,40,69,31
1,69,47,0
1,40,75,5
1,46,108,0
1,69,60,0
1,36,109,54
1,69,47,0
1,38,119,8
1,42,107,0
1,69,72,0
1,69,36,28
1,36,116,3
1,42,87,0
1,69,66,0
1,69,39,45
1,36,112,1
1,42,91,0
1,69,79,0
1,69,47,44
1,36,115,13
1,42,81,0
1,69,61,0
1,69,52,20
1,38,118,10
1,42,93,0
1,69,71,0
1,69,42,20
1,42,96,13
1,69,62,0
1,40,69,61
1,69,46,0
1,36,114,3
1,42,100,0
1,69,60,0
1,40,69,31
1,69,48,0
1,40,70,5
1,46,106,0
1,69,57,0
1,36,110,38
1,69,47,0
1,38,114,8
1,42,106,0
1,69,74,0
1,69,40,37
1,36,118,3
1,42,95,0
1,69,65,0
1,69,45,45
1,36,112,1
1,42,107,0
1,69,76,0
1,69,52,44
1,36,113,13
1,42,94,0
1,69,66,0
1,69,47,20
1,38,117,10
1,42,100,0
1,69,70,0
1,69,40,32
1,42,96,13
1,69,65,0
1,40,71,61
1,69,46,0
1,36,113,3
1,42,108,0
1,69,61,0
1,40,68,31
1,69,47,0
1,40,72,5
1,46,107,0
1,69,63,0
1,36,109,54
1,69,47,0
1,38,113,8
1,42,110,0
1,69,68,0
1,69,42,28
1,36,116,3
1,42,86,0
1,69,64,0
1,69,39,45
1,36,117,1
1,42,90,0
1,69,74,0
1,69,53,44
1,36,118,13
1,42,84,0
1,69,65,0
1,69,52,20
1,38,116,10
1,42,97,0
1,69,72,0
1,69,40,20
1,42,93,13
1,69,62,0
1,40,71,61
1,69,46,0
1,36,114,3
1,42,100,0
1,69,68,0
1,40,67,31
1,69,47,0
1,40,74,5
1,46,106,0
1,69,58,0
1,36,111,38
1,69,43,0
1,38,111,8
1,42,104,0
1,69,75,0
1,69,40,37
1,36,116,3
1,42,96,0
1,69,68,0
1,69,46,45
1,36,115,1
1,42,115,0
1,69,78,0
1,69,49,44
1,36,116,13
1,42,95,0
1,69,63,0
1,69,51,20
1,38,117,10
1,42,99,0
1,69,65,0
1,69,41,32
1,42,97,13
1,69,67,0
1,40,71,61
1,69,47,0
1,36,111,3
1,42,107,0
1,69,67,0
1,40,65,31
1,69,45,0
1,40,74,5
1,46,108,0
1,69,60,0
1,36,113,54
1,69,47,0
1,38,112,8
1,42,111,0
1,69,73,0
1,69,44,28
1,36,119,3
1,42,88,0
1,69,65,0
1,69,39,45
1,36,118,1
1,42,96,0
1,69,76,0
1,69,47,44
1,36,114,13
1,42,82,0
1,69,64,0
1,69,53,20
1,38,119,10
1,42,90,0
1,69,72,0
1,69,43,20
1,42,90,13
1,69,64,0
1,40,67,61
1,69,47,0
1,36,110,3
1,42,97,0
1,69,65,0
1,40,69,31
1,69,47,0
1,40,72,5
1,46,100,0
1,69,59,0
1,36,110,38
1,69,46,0
1,38,114,8
1,42,108,0
1,69,76,0
1,69,43,37
1,36,116,3
1,42,89,0
1,69,68,0
1,69,44,45
1,36,116,1
1,42,110,0
1,69,73,0
1,69,47,44
1,36,115,13
1,42,88,0
1,69,65,0
1,69,55,20
1,38,116,10
1,42,102,0
1,69,70,0
1,69,44,32
1,42,101,13
1,69,60,0
1,40,74,61
1,69,46,0
1,36,107,3
1,42,103,0
1,69,65,0
1,40,73,31
1,69,47,0
1,40,67,5
1,46,105,0
1,69,63,0
1,36,107,54
1,69,50,0
1,38,113,8
1,42,106,0
1,69,72,0
1,69,38,28
1,36,118,3
1,42,87,0
1,69,65,0
1,69,43,45
1,36,112,1
1,42,96,0
1,69,73,0
1,69,49,44
1,36,115,13
1,42,86,0
1,69,62,0
1,69,49,20
1,38,115,10
1,42,94,0
1,69,66,0
1,69,45,20
1,42,93,13
1,69,64,0
1,40,71,61
1,69,43,0
1,36,107,3
1,42,97,0
1,69,65,0
1,40,73,31
1,69,51,0
1,40,68,5
1,46,101,0
1,69,64,0
1,36,109,38
1,69,51,0
1,38,111,8
1,42,102,0
1,69,74,0
1,69,44,37
1,36,115,3
1,42,94,0
1,69,69,0
1,69,45,45
1,36,120,1
1,42,113,0
1,69,73,0
1,69,52,44
1,36,120,13
1,42,94,0
1,69,68,0
1,69,51,20
1,38,118,10
1,42,98,0
1,69,72,0
1,69,45,32
1,42,104,13
1,69,66,0
1,40,71,61
1,69,47,0
1,36,115,3
1,42,106,0
1,69,61,0
1,40,69,31
1,69,47,0
1,40,74,5
1,46,103,0
1,69,61,0
1,36,112,54
1,69,46,0
1,38,118,8
1,42,107,0
1,69,70,0
1,69,44,28
1,36,118,3
1,42,89,0
1,69,68,0
1,69,39,45
1,36,119,1
1,42,93,0
1,69,77,0
1,69,47,44
1,36,116,13
1,42,83,0
1,69,63,0
1,69,54,20
1,38,115,10
1,42,96,0
1,69,68,0
1,69,44,20
1,42,97,13
1,69,66,0
1,40,69,61
1,69,48,0
1,36,110,3
1,42,104,0
1,69,64,0
1,40,71,31
1,69,48,0
1,40,75,5
1,46,106,0
1,69,61,0
1,36,113,38
1,69,45,0
1,38,109,8
1,42,101,0
1,69,73,0
1,69,38,37
1,36,116,3
1,42,92,0
1,69,67,0
1,69,43,45
1,36,115,1
1,42,112,0
1,69,74,0
1,69,51,44
1,36,119,13
1,42,91,0
1,69,67,0
1,69,55,20
1,38,119,10
1,42,97,0
1,69,67,0
1,69,40,32
1,42,101,13
1,69,64,0
1,40,72,61
1,69,46,0
1,36,113,3
1,42,106,0
1,69,65,0
1,40,69,31
1,69,50,0
1,40,71,5
1,46,106,0
1,69,64,0
1,36,108,54
1,69,47,0
1,38,116,8
1,42,103,0
1,69,71,0
1,69,42,28
1,36,115,3
1,42,89,0
1,69,70,0
1,69,40,45
1,36,119,1
1,42,93,0
1,69,76,0
1,69,54,44
1,36,116,13
1,42,79,0
1,69,62,0
1,69,54,20
1,38,116,10
1,42,93,0
1,69,73,0
1,69,42,20
1,36,114,13
1,42,96,0
1,69,68,0
1,40,73,31
1,69,49,0
1,36,107,3
1,42,103,0
1,69,65,0
1,40,71,31
1,69,48,0
1,38,108,5
1,40,72,0
1,46,103,0
1,69,64,0
1,69,45,14
1,38,107,8
1,42,101,0
1,69,71,0
1,69,41,37
1,42,92,3
1,69,66,0
1,69,44,45
1,36,112,1
1,42,111,0
1,69,80,0
1,69,48,44
1,36,118,13
1,42,92,0
1,69,68,0
1,69,51,20
1,38,114,10
1,42,97,0
1,69,66,0
1,69,41,32
1,42,97,13
1,69,65,0
1,40,75,61
1,69,47,0
1,36,115,3
1,42,106,0
1,69,66,0
1,40,66,31
1,69,44,0
1,40,74,5
1,46,102,0
1,69,61,0
1,36,107,54
1,69,47,0
1,38,119,8
1,42,105,0
1,69,71,0
1,69,36,28
1,36,112,3
1,42,90,0
1,69,66,0
1,69,40,45
1,36,116,1
1,42,91,0
1,69,73,0
1,69,49,44
1,36,115,13
1,42,86,0
1,69,64,0
1,69,55,20
1,38,115,10
1,42,94,0
1,69,68,0
1,69,45,20
1,42,90,13
1,69,60,0
1,40,75,61
1,69,50,0
1,36,113,3
1,42,103,0
1,69,68,0
1,40,65,31
1,69,45,0
1,40,70,5
1,46,107,0
1,69,63,0
1,36,112,38
1,69,44,0
1,38,107,8
1,42,104,0
1,69,74,0
1,69,42,37
1,36,113,3
1,42,94,0
1,69,70,0
1,69,43,45
1,36,116,1
1,42,107,0
1,69,78,0
1,69,47,44
1,36,119,13
1,42,95,0
1,69,65,0
1,69,55,20
1,38,116,10
1,42,101,0
1,69,66,0
1,69,45,32
1,42,96,13
1,69,68,0
1,40,73,61
1,69,47,0
1,36,115,3
1,42,102,0
1,69,60,0
1,40,66,31
1,69,49,0
1,40,68,5
1,46,103,0
1,69,57,0
1,36,113,54
1,69,51,0
1,38,115,8
1,42,109,0
1,69,74,0
1,69,39,28
1,36,116,3
1,42,90,0
1,69,62,0
1,69,45,45
1,36,112,1
1,42,92,0
1,69,73,0
1,69,51,44
1,36,119,13
1,42,82,0
1,69,66,0
1,69,51,20
1,38,114,10
1,42,91,0
1,69,66,0
1,69,40,20
1,42,96,13
1,69,61,0
1,40,74,61
1,69,47,0
1,36,115,3
1,42,104,0
1,69,64,0
1,40,69,31
1,69,45,0
1,40,75,5
1,46,104,0
1,69,61,0
1,36,115,38
1,69,49,0
1,38,109,8
1,42,108,0
1,69,76,0
1,69,43,37
1,36,116,3
1,42,92,0
1,69,66,0
1,69,44,45
1,36,116,1
1,42,111,0
1,69,73,0
1,69,52,44
1,36,120,13
1,42,92,0
1,69,64,0
1,69,52,20
1,38,113,10
1,42,97,0
1,69,71,0
1,69,47,32
1,42,103,13
1,69,65,0
1,40,73,61
1,69,49,0
1,36,109,3
1,42,106,0
1,69,67,0
1,40,72,31
1,69,45,0
1,40,74,5
1,46,105,0
1,69,64,0
1,36,114,54
1,69,47,0
1,38,116,8
1,42,103,0
1,69,76,0
1,69,37,28
1,36,119,3
1,42,93,0
1,69,69,0
1,69,42,45
1,36,115,1
1,42,89,0
1,69,73,0
1,69,50,44
1,36,116,13
1,42,80,0
1,69,62,0
1,69,48,20
1,38,119,10
1,42,94,0
1,69,71,0
1,69,48,20
1,42,95,13
1,69,64,0
1,40,68,61
1,69,44,0
1,36,112,3
1,42,102,0
1,69,67,0
1,40,68,31
1,69,46,0
1,40,74,5
1,46,104,0
1,69,58,0
1,36,115,38
1,69,44,0
1,38,110,8
1,42,107,0
1,69,70,0
1,69,38,37
1,36,113,3
1,42,89,0
1,69,67,0
1,69,44,45
1,36,115,1
1,42,111,0
1,69,77,0
1,69,52,44
1,36,115,13
1,42,90,0
1,69,67,0
1,69,48,20
1,38,117,10
1,42,97,0
1,69,69,0
1,69,42,32
1,42,104,13
1,69,64,0
1,40,71,61
1,69,48,0
1,36,111,3
1,42,107,0
1,69,67,0
1,40,72,31
1,69,52,0
1,40,73,5
1,46,104,0
1,69,60,0
1,36,113,54
1,69,48,0
1,38,117,8
1,42,107,0
1,69,72,0
1,69,36,28
1,36,120,3
1,42,85,0
1,69,66,0
1,69,43,45
1,36,119,1
1,42,90,0
1,69,75,0
1,69,49,44
1,36,119,13
1,42,85,0
1,69,65,0
1,69,50,20
1,38,116,10
1,42,90,0
1,69,71,0
1,69,47,20
1,42,91,13
1,69,64,0
1,40,69,61
1,69,45,0
1,36,111,3
1,42,103,0
1,69,64,0
1,40,67,31
1,69,52,0
1,40,71,5
1,46,102,0
1,69,60,0
1,36,115,38
1,69,50,0
1,38,113,8
1,42,107,0
1,69,69,0
1,69,40,37
1,36,117,3
1,42,92,0
1,69,70,0
1,69,45,45
1,36,116,1
1,42,111,0
1,69,79,0
1,69,50,44
1,36,116,13
1,42,92,0
1,69,63,0
1,69,54,20
1,38,116,10
1,42,97,0
1,69,73,0
1,69,44,32
1,42,104,13
1,69,66,0
1,40,68,61
1,69,51,0
1,36,108,3
1,42,107,0
1,69,64,0
1,40,70,31
1,69,49,0
1,40,67,5
1,46,103,0
1,69,57,0
1,36,107,54
1,69,48,0
1,38,116,8
1,42,110,0
1,69,75,0
1,69,39,28
1,36,112,3
1,42,88,0
1,69,66,0
1,69,43,45
1,36,119,1
1,42,88,0
1,69,76,0
1,69,52,44
1,36,113,13
1,42,83,0
1,69,63,0
1,69,51,20
1,38,117,10
1,42,93,0
1,69,69,0
1,69,42,20
1,42,96,13
1,69,68,0
1,40,72,61
1,69,47,0
1,36,115,3
1,42,102,0
1,69,61,0
1,40,71,31
1,69,50,0
1,40,70,5
1,46,104,0
1,69,61,0
1,36,112,38
1,69,45,0
1,38,107,8
1,42,103,0
1,69,69,0
1,69,43,37
1,36,116,3
1,42,93,0
1,69,69,0
1,69,45,45
1,36,116,1
1,42,115,0
1,69,72,0
1,69,49,44
1,36,113,13
1,42,95,0
1,69,64,0
1,69,49,20
1,38,114,10
1,42,101,0
1,69,68,0
1,69,48,32
1,42,98,13
1,69,60,0
1,40,71,61
1,69,51,0
1,36,111,3
1,42,104,0
1,69,61,0
1,40,70,31
1,69,50,0
1,40,70,5
1,46,108,0
1,69,62,0
1,36,109,54
1,69,45,0
1,38,115,8
1,42,106,0
1,69,73,0
1,69,42,28
1,36,119,3
1,42,88,0
1,69,66,0
1,69,40,45
1,36,120,1
1,42,89,0
1,69,72,0
1,69,47,44
1,36,113,13
1,42,80,0
1,69,68,0
1,69,48,20
1,38,112,10
1,42,98,0
1,69,72,0
1,69,45,20
1,42,98,13
1,69,60,0
1,40,75,61
1,69,44,0
1,36,111,3
1,42,104,0
1,69,60,0
1,40,67,31
1,69,45,0
1,40,67,5
1,46,104,0
1,69,59,0
1,36,111,38
1,69,50,0
1,38,113,8
1,42,107,0
1,69,75,0
1,69,36,37
1,36,115,3
1,42,92,0
1,69,69,0
1,69,47,45
1,36,119,1
1,42,111,0
1,69,80,0
1,69,46,44
1,36,117,13
1,42,93,0
1,69,65,0
1,69,47,20
1,38,115,10
1,42,98,0
1,69,69,0
1,69,42,32
1,42,100,13
1,69,67,0
1,40,74,61
1,69,44,0
1,36,110,3
1,42,100,0
1,69,64,0
1,40,69,31
1,69,49,0
1,40,69,5
1,46,104,0
1,69,61,0
