track,note,velocity,time
0,42,75,219
0,42,0,3
0,42,75,93
0,42,0,3
0,42,75,93
0,42,0,3
0,42,75,93
0,42,0,3
0,42,75,93
0,42,0,3
0,42,75,93
0,42,0,3
0,43,75,93
0,43,0,3
0,42,32,21
0,42,0,3
0,46,75,21
0,46,0,3
0,42,75,45
0,42,0,3
0,42,32,21
0,42,0,3
0,53,64,1
0,58,62,0
0,54,52,0
0,51,44,0
0,63,44,0
0,46,75,0
0,75,72,0
0,46,0,1
0,42,75,17
0,42,0,3
0,42,23,21
0,42,0,3
0,37,36,21
0,42,34,0
0,42,0,3
0,53,0,13
0,51,0,1
0,54,0,7
0,61,39,0
0,42,46,0
0,42,0,3
0,58,0,0
0,37,0,21
0,39,40,0
0,63,54,0
0,42,75,0
0,36,90,0
0,36,0,3
0,42,0,0
0,61,0,18
0,42,23,3
0,42,0,3
0,75,0,7
0,54,52,1
0,61,48,0
0,58,48,0
0,66,72,0
0,70,42,0
0,42,32,0
0,82,56,0
0,42,0,2
0,63,0,1
0,63,0,1
0,39,0,1
0,42,22,10
0,42,0,3
0,66,0,14
0,42,75,7
0,42,0,3
0,42,34,19
0,42,0,3
0,37,52,21
0,61,50,0
0,42,40,0
0,42,0,3
0,54,0,20
0,42,49,1
0,42,0,3
0,61,0,3
0,58,0,4
0,61,0,11
0,39,62,3
0,63,54,0
0,42,71,0
0,36,90,0
0,37,0,1
0,42,0,2
0,36,0,0
0,42,30,21
0,42,0,3
0,63,0,1
0,56,68,2
0,53,54,0
0,60,66,0
0,51,50,0
0,66,72,0
0,68,66,0
0,42,46,0
0,80,66,0
0,42,0,1
0,82,0,2
0,70,0,0
0,39,0,7
0,42,17,9
0,42,0,3
0,66,0,1
0,42,75,6
0,42,0,3
0,42,35,21
0,42,0,3
0,37,31,21
0,61,36,0
0,42,47,0
0,42,0,3
0,42,29,21
0,53,0,2
0,42,0,1
0,61,0,18
0,37,0,3
0,39,58,0
0,63,48,0
0,42,75,0
0,36,90,0
0,56,0,2
0,36,0,1
0,42,0,0
0,51,0,9
0,42,32,12
0,42,0,3
0,60,0,2
0,51,44,2
0,56,58,0
0,49,38,0
0,53,54,0
0,66,76,0
0,65,44,0
0,42,49,0
0,77,76,0
0,42,0,1
0,80,0,1
0,68,0,2
0,39,0,1
0,63,0,3
0,42,20,6
0,42,0,3
0,66,0,2
0,42,75,17
0,42,0,3
0,51,0,7
0,53,0,5
0,49,0,8
0,42,10,1
0,56,0,1
0,42,0,2
0,37,35,21
0,68,48,0
0,42,39,0
0,42,0,3
0,42,22,21
0,42,0,3
0,68,0,0
0,39,44,21
0,66,66,0
0,42,75,0
0,36,90,0
0,37,0,2
0,42,0,1
0,36,0,0
0,68,60,21
0,42,29,0
0,66,0,2
0,42,0,1
0,42,56,1
0,61,72,0
0,58,66,0
0,51,42,0
0,54,46,0
0,66,50,0
0,63,52,0
0,66,58,0
0,46,75,0
0,78,76,0
0,65,0,1
0,46,0,1
0,68,0,1
0,77,0,1
0,39,0,0
0,42,0,2
0,42,75,0
0,42,0,1
0,42,10,10
0,42,0,3
0,66,0,1
0,61,0,1
0,37,42,1
0,61,60,0
0,42,29,0
0,42,0,3
0,58,0,1
0,51,0,6
0,54,0,1
0,42,11,13
0,42,0,3
0,37,0,19
0,61,0,0
0,39,50,2
0,63,44,0
0,42,75,0
0,36,90,0
0,36,0,3
0,42,0,0
0,42,20,21
0,42,0,3
0,61,84,2
0,54,56,0
0,65,56,0
0,58,39,0
0,66,68,0
0,73,56,0
0,70,50,0
0,42,40,0
0,85,62,0
0,78,0,1
0,42,0,1
0,66,0,2
0,63,0,1
0,63,0,0
0,39,0,7
0,42,34,5
0,42,0,3
0,66,0,6
0,42,75,15
0,42,0,3
0,42,20,21
0,42,0,3
0,37,31,21
0,61,37,0
0,42,35,0
0,42,0,3
0,42,20,21
0,36,71,0
0,36,0,3
0,42,0,0
0,39,44,21
0,63,54,0
0,42,75,0
0,36,90,0
0,36,0,3
0,42,0,0
0,37,0,1
0,61,0,9
0,42,23,11
0,42,0,3
0,58,0,1
0,85,0,2
0,63,0,1
0,56,54,1
0,53,58,0
0,63,58,0
0,60,64,0
0,66,66,0
0,72,60,0
0,68,64,0
0,42,40,0
0,84,66,0
0,70,0,2
0,54,0,0
0,42,0,1
0,65,0,1
0,73,0,1
0,61,0,2
0,39,0,3
0,42,20,10
0,42,0,3
0,66,0,4
0,42,69,17
0,42,0,3
0,42,22,21
0,42,0,3
0,37,40,6
0,61,36,0
0,42,42,0
0,42,0,3
0,42,27,21
0,42,0,3
0,39,54,3
0,63,46,0
0,42,75,0
0,36,90,0
0,36,0,3
0,42,0,0
0,37,0,1
0,61,0,10
0,56,0,2
0,68,0,1
0,42,27,1
0,42,0,3
0,60,0,6
0,53,0,5
0,63,0,7
0,60,62,3
0,56,56,0
0,66,54,0
0,68,64,0
0,65,52,0
0,42,37,0
0,80,68,0
0,72,0,1
0,42,0,2
0,63,0,1
0,39,0,4
0,84,0,2
0,51,8,14
0,42,22,0
0,42,0,3
0,66,0,6
0,42,75,0
0,42,0,3
0,42,32,21
0,42,0,3
0,37,52,21
0,68,42,0
0,42,40,0
0,42,0,3
0,51,0,0
0,68,0,5
0,56,0,8
0,42,29,8
0,42,0,3
0,37,0,17
0,39,54,4
0,66,80,0
0,42,75,0
0,36,90,0
0,36,0,3
0,42,0,0
0,68,76,21
0,42,39,0
0,66,0,1
0,42,0,1
0,80,0,1
0,42,58,1
0,54,58,0
0,61,66,0
0,58,42,0
0,51,46,0
0,66,48,0
0,70,56,0
0,66,36,0
0,63,44,0
0,46,75,0
0,82,80,0
0,68,0,1
0,68,0,1
0,39,0,1
0,46,0,0
0,60,0,4
0,65,0,2
0,42,0,13
0,58,0,10
0,42,75,0
0,42,0,3
0,61,0,4
0,42,17,17
0,66,0,1
0,42,0,2
0,37,44,21
0,61,60,0
0,42,25,0
0,42,0,3
0,42,13,21
0,42,0,3
0,61,0,11
0,39,48,10
0,63,44,0
0,42,64,0
0,36,90,0
0,37,0,1
0,36,0,2
0,42,0,0
0,70,0,20
0,42,32,1
0,42,0,3
0,61,54,1
0,58,37,0
0,70,58,0
0,66,64,0
0,65,62,0
0,66,64,0
0,77,66,0
0,73,58,0
0,70,42,0
0,42,51,0
0,89,92,0
0,42,0,1
0,63,0,1
0,66,0,1
0,82,0,0
0,39,0,1
0,63,0,2
0,42,25,4
0,42,0,3
0,66,0,0
0,42,75,8
0,42,0,3
0,51,0,0
0,58,0,0
0,65,0,1
0,54,0,8
0,70,0,2
0,66,0,3
0,61,0,1
0,42,37,6
0,42,0,3
0,37,56,21
0,61,64,0
0,42,51,0
0,42,0,3
0,42,40,21
0,42,0,3
0,37,0,6
0,39,44,15
0,63,44,0
0,42,75,0
0,36,90,0
0,61,0,1
0,36,0,2
0,42,0,0
0,42,37,21
0,42,0,3
0,63,60,21
0,68,56,0
0,59,32,0
0,66,54,0
0,72,64,0
0,75,58,0
0,68,66,0
0,42,47,0
0,87,88,0
0,42,0,3
0,63,0,0
0,77,0,1
0,70,0,3
0,89,0,2
0,73,0,4
0,39,0,0
0,42,37,11
0,42,0,3
0,66,0,0
0,59,0,21
0,42,75,0
0,42,0,3
0,63,0,11
0,68,0,0
0,42,23,10
0,42,0,3
0,37,50,21
0,61,48,0
0,42,34,0
0,42,0,3
0,42,15,21
0,42,0,3
0,39,46,21
0,63,54,0
0,42,75,0
0,36,90,0
0,37,0,2
0,36,0,1
0,42,0,0
0,61,0,2
0,42,31,19
0,42,0,3
0,39,0,20
0,63,0,0
0,40,66,1
0,68,64,0
0,59,62,0
0,52,66,0
0,63,64,0
0,71,64,0
0,56,44,0
0,66,52,0
0,71,60,0
0,66,44,0
0,49,55,0
0,49,0,3
0,72,0,1
0,56,0,6
0,68,0,2
0,66,0,12
0,46,75,23
0,46,0,3
0,68,72,45
0,42,66,0
0,42,0,3
0,68,0,16
0,42,18,5
0,42,0,3
0,66,84,21
0,46,37,0
0,46,0,3
0,66,0,17
0,68,64,2
0,66,44,24
0,42,61,0
0,42,0,3
0,68,0,0
0,42,31,21
0,42,0,3
0,46,37,9
0,46,0,3
0,42,61,45
0,42,0,3
0,59,0,14
0,42,15,2
0,42,0,3
0,46,38,21
0,46,0,3
0,42,64,45
0,42,0,3
0,68,0,1
0,71,0,1
0,63,0,1
0,52,0,2
0,42,26,11
0,42,0,3
0,46,38,21
0,46,0,3
0,42,66,36
0,42,0,3
0,42,21,21
0,42,0,3
0,46,38,21
0,46,0,3
0,42,74,45
0,42,0,3
0,66,0,13
0,42,31,8
0,42,0,3
0,46,39,21
0,46,0,3
0,42,64,45
0,42,0,3
0,42,26,21
0,42,0,3
0,66,0,2
0,42,75,1
0,40,75,0
0,36,90,0
0,36,0,1
0,42,0,0
0,40,0,0
0,87,0,2
0,75,0,2
0,71,0,1
0,40,0,1
0,39,62,31
0,82,64,0
0,73,54,0
0,77,72,0
0,78,46,0
0,49,55,0
0,42,75,0
0,36,90,0
0,36,0,3
0,42,0,0
0,49,0,0
0,39,0,39
0,66,37,6
0,72,56,0
0,42,47,0
0,42,0,3
0,77,0,1
0,82,0,1
0,73,0,0
0,78,0,1
0,66,0,2
0,72,0,5
0,44,42,11
0,82,56,0
0,73,54,0
0,78,42,0
0,77,38,0
0,77,0,7
0,73,0,5
0,82,0,1
0,78,0,1
0,44,0,6
0,46,48,4
0,66,30,0
0,73,33,0
0,42,53,0
0,40,75,0
0,36,81,0
0,36,0,3
0,42,0,0
0,40,0,0
0,73,0,3
0,73,39,18
0,49,60,24
0,63,66,0
0,72,60,0
0,42,31,0
0,66,0,1
0,73,0,1
0,42,0,1
0,46,0,7
0,63,0,4
0,72,0,2
0,73,66,8
0,66,38,0
0,73,0,10
0,66,0,2
0,61,54,12
0,42,75,0
0,36,90,0
0,36,0,3
0,42,0,0
0,61,0,8
0,61,40,13
0,49,0,7
0,61,0,3
0,53,62,14
0,42,50,0
0,42,0,3
0,61,58,21
0,61,0,11
0,61,46,13
0,42,58,0
0,40,75,0
0,36,76,0
0,36,0,3
0,42,0,0
0,40,0,0
0,61,0,14
0,53,0,6
0,49,60,1
0,61,58,0
0,61,0,13
0,61,50,11
0,72,66,0
0,42,45,0
0,42,0,3
0,72,0,13
0,61,0,0
0,61,64,8
0,61,0,13
0,49,0,10
0,39,60,1
0,73,50,0
0,82,60,0
0,78,58,0
0,77,62,0
0,42,75,0
0,36,90,0
0,36,0,3
0,42,0,0
0,66,1,21
0,73,60,0
0,73,0,20
0,82,0,0
0,77,0,2
0,73,0,0
0,78,0,2
0,65,54,0
0,72,64,0
0,42,50,0
0,66,0,2
0,42,0,1
0,39,0,1
0,65,0,8
0,72,0,9
0,44,50,3
0,82,56,0
0,73,44,0
0,78,52,0
0,77,60,0
0,73,64,0
0,66,44,0
0,73,0,9
0,77,0,4
0,66,0,0
0,73,0,2
0,82,0,1
0,78,0,1
0,44,0,1
0,46,31,6
0,63,88,0
0,42,53,0
0,40,75,0
0,36,86,0
0,36,0,3
0,42,0,0
0,40,0,0
0,63,0,13
0,63,35,8
0,63,0,10
0,46,0,5
0,51,60,9
0,42,34,0
0,42,0,3
0,63,68,21
0,63,0,10
0,49,54,14
0,61,66,0
0,73,76,0
0,66,52,0
0,42,75,0
0,36,90,0
0,36,0,3
0,42,0,0
0,51,0,1
0,66,0,10
0,61,0,3
0,73,0,3
0,61,42,4
0,61,0,11
0,61,64,13
0,42,45,0
0,42,0,3
0,61,0,13
0,62,80,8
0,62,0,16
0,77,72,8
0,73,62,0
0,82,60,0
0,78,29,0
0,63,52,0
0,75,80,0
0,63,54,0
0,39,102,0
0,46,58,0
0,40,75,0
0,36,76,0
0,36,0,3
0,46,0,0
0,39,0,0
0,40,0,0
0,49,0,10
0,63,0,2
0,36,54,9
0,63,0,1
0,75,0,0
0,37,56,1
0,82,0,2
0,73,0,1
0,77,0,1
0,78,0,0
0,36,0,4
0,38,60,5
0,37,0,5
0,39,48,19
0,82,52,0
0,77,58,0
0,78,40,0
0,73,56,0
0,42,75,0
0,36,90,0
0,36,0,3
0,42,0,0
0,38,0,1
0,72,68,44
0,42,47,0
0,42,0,3
0,73,0,4
0,82,0,1
0,77,0,3
0,78,0,1
0,72,0,1
0,39,0,8
0,44,54,3
0,77,62,0
0,82,54,0
0,73,52,0
0,78,25,0
0,78,0,9
0,73,0,2
0,82,0,1
0,77,0,1
0,44,0,8
0,46,54,3
0,66,42,0
0,73,25,0
0,42,55,0
0,40,75,0
0,36,79,0
0,36,0,3
0,42,0,0
0,40,0,0
0,73,0,1
0,66,0,9
0,73,62,11
0,66,20,0
0,73,0,20
0,49,66,4
0,63,72,0
0,72,66,0
0,42,39,0
0,42,0,3
0,66,0,0
0,63,0,7
0,72,0,8
0,46,0,2
0,73,72,4
0,66,46,0
0,49,0,8
0,73,0,1
0,66,0,3
0,61,72,12
0,42,75,0
0,36,90,0
0,36,0,3
0,42,0,0
0,61,0,11
0,61,60,10
0,61,0,13
0,53,64,11
0,82,54,0
0,78,56,0
0,73,50,0
0,77,64,0
0,42,50,0
0,42,0,3
0,73,0,16
0,77,0,1
0,82,0,1
0,78,0,3
0,61,54,0
0,61,0,11
0,61,50,13
0,42,61,0
0,40,75,0
0,36,81,0
0,36,0,3
0,42,0,0
0,40,0,0
0,61,0,16
0,53,0,4
0,49,54,1
0,61,62,24
0,72,66,0
0,42,45,0
0,42,0,3
0,72,0,13
0,61,0,6
0,61,76,2
0,61,0,12
0,49,0,11
0,39,42,1
0,82,52,0
0,78,56,0
0,77,62,0
0,73,34,0
0,66,27,0
0,42,75,0
0,36,90,0
0,36,0,3
0,42,0,0
0,73,56,21
0,73,0,22
0,82,0,1
0,65,46,1
0,72,66,0
0,42,53,0
0,42,0,3
0,77,0,0
0,78,0,1
0,66,0,4
0,73,0,4
0,39,0,2
0,65,0,0
0,44,52,10
0,82,66,0
0,73,56,0
0,77,64,0
0,78,31,0
0,73,64,0
0,66,25,0
0,72,0,6
0,66,0,3
0,73,0,5
0,78,0,2
0,73,0,1
0,77,0,1
0,44,0,1
0,82,0,3
0,46,54,2
0,63,88,0
0,42,61,0
0,40,75,0
0,36,81,0
0,36,0,3
0,42,0,0
0,40,0,0
0,63,0,10
0,63,31,11
0,75,62,0
0,70,30,0
0,70,0,11
0,75,0,0
0,63,0,0
0,51,52,13
0,42,50,0
0,42,0,3
0,46,0,2
0,70,68,19
0,75,56,0
0,36,73,0
0,36,0,3
0,75,0,6
0,70,0,3
0,51,0,10
0,49,44,2
0,61,80,0
0,75,46,0
0,70,28,0
0,42,75,0
0,36,90,0
0,36,0,3
0,42,0,0
0,70,0,7
0,75,0,5
0,61,0,3
0,61,64,6
0,61,0,16
0,75,60,8
0,70,64,0
0,42,61,0
0,36,73,0
0,36,0,3
0,42,0,0
0,70,0,10
0,75,0,0
0,62,76,11
0,70,60,0
0,75,56,0
0,75,0,11
0,70,0,0
0,62,0,6
0,73,50,7
0,82,56,0
0,77,60,0
0,78,48,0
0,63,56,0
0,75,72,0
0,70,88,0
0,39,107,0
0,42,75,0
0,40,75,0
0,36,79,0
0,36,0,3
0,42,0,0
0,39,0,0
0,40,0,0
0,49,0,7
0,63,0,6
0,36,54,8
0,37,52,1
0,75,48,0
0,46,75,0
0,75,0,1
0,46,0,2
0,36,0,0
0,77,0,1
0,70,0,0
0,78,0,0
0,82,0,1
0,73,0,1
0,38,64,6
0,77,72,0
0,37,0,2
0,75,0,8
0,77,0,12
0,39,48,2
0,73,40,0
0,77,64,0
0,82,54,0
0,78,48,0
0,78,76,0
0,42,75,0
0,36,90,0
0,36,0,3
0,42,0,0
0,38,0,4
0,78,0,11
0,77,72,30
0,66,37,0
0,72,56,0
0,42,47,0
0,42,0,3
0,39,0,0
0,77,0,3
0,82,0,0
0,78,0,0
0,73,0,1
0,66,0,1
0,72,0,5
0,77,0,1
