track,note,velocity,time
0,42,90,239
0,42,0,14
0,42,68,82
0,42,0,14
0,42,66,82
0,42,0,15
0,42,76,81
0,42,0,11
0,59,38,0
0,59,0,22
0,61,52,0
0,66,46,24
0,61,0,3
0,71,48,0
0,66,0,7
0,47,18,0
0,54,28,0
0,64,48,0
0,64,0,19
0,61,35,0
0,63,50,24
0,61,0,12
0,71,0,23
0,47,0,14
0,54,0,2
0,52,46,33
0,57,29,0
0,62,54,0
0,66,36,0
0,63,0,6
0,71,47,90
0,66,0,71
0,57,0,3
0,62,0,20
0,56,50,2
0,65,52,0
0,61,50,0
0,71,0,95
0,76,52,1
0,52,0,71
0,55,46,25
0,45,36,0
0,60,39,0
0,64,30,0
0,65,0,4
0,61,0,1
0,56,0,2
0,78,51,89
0,76,0,13
0,74,36,83
0,59,33,0
0,54,30,0
0,60,0,7
0,55,0,2
0,78,0,86
0,64,0,0
0,45,0,0
0,54,0,0
0,59,0,0
0,83,40,1
0,74,0,95
0,76,46,0
0,52,27,24
0,52,0,5
0,47,30,24
0,59,46,1
0,59,0,1
0,66,64,1
0,47,0,1
0,83,0,2
0,76,0,0
0,47,11,1
0,40,31,0
0,64,39,0
0,52,27,0
0,40,19,0
0,56,36,0
0,56,0,6
0,64,0,1
0,76,58,1
0,47,0,2
0,40,0,2
0,76,0,3
0,52,0,2
0,75,42,0
0,75,0,2
0,76,56,0
0,76,0,1
0,40,0,1
0,66,44,1
0,52,28,0
0,59,35,0
0,35,30,0
0,44,25,0
0,71,27,0
0,64,30,0
0,66,0,4
0,66,0,15
0,76,68,4
0,71,0,1
0,76,0,47
0,75,54,0
0,44,0,19
0,59,0,15
0,52,0,4
0,75,0,8
0,76,64,2
0,76,0,9
0,64,0,13
0,54,31,26
0,61,21,0
0,45,28,0
0,57,1,0
0,45,24,0
0,64,35,0
0,66,42,0
0,35,0,3
0,64,38,117
0,64,0,19
0,75,50,5
0,57,0,1
0,54,0,2
0,45,0,3
0,61,0,39
0,64,0,5
0,66,0,5
0,75,0,1
0,73,34,7
0,47,31,0
0,45,0,44
0,47,0,3
0,64,32,1
0,68,38,0
0,52,20,0
0,71,44,0
0,40,28,0
0,40,27,0
0,73,0,7
0,59,30,30
0,76,56,0
0,40,0,40
0,68,0,5
0,76,0,2
0,75,52,1
0,64,30,0
0,52,0,1
0,76,64,47
0,66,30,0
0,75,0,2
0,64,0,3
0,59,0,19
0,52,37,1
0,47,32,0
0,56,23,0
0,59,25,0
0,44,18,0
0,64,46,0
0,71,58,0
0,76,0,3
0,40,0,4
0,66,0,10
0,64,0,0
0,76,56,17
0,59,17,0
0,76,0,38
0,75,56,10
0,64,30,0
0,59,0,17
0,44,0,0
0,52,0,5
0,75,0,25
0,71,0,1
0,76,60,0
0,68,10,0
0,76,0,8
0,64,0,4
0,56,0,33
0,68,0,1
0,59,0,1
0,61,35,1
0,66,36,0
0,57,24,0
0,64,35,0
0,45,25,0
0,66,31,0
0,45,27,0
0,47,0,1
0,71,0,6
0,57,0,86
0,45,0,6
0,59,35,32
0,66,0,4
0,64,0,3
0,68,46,17
0,59,0,3
0,61,0,72
0,66,0,1
0,64,0,1
0,66,33,23
0,68,0,1
0,47,22,23
0,66,0,21
0,64,54,3
0,40,48,0
0,57,42,0
0,59,39,0
0,59,29,0
0,40,26,0
0,52,31,0
0,52,23,0
0,64,44,0
0,57,27,0
0,47,0,1
0,45,0,1
0,59,40,37
0,69,64,24
0,59,0,4
0,52,0,22
0,69,0,7
0,68,44,1
0,57,0,16
0,66,42,10
0,68,0,1
0,68,33,31
0,56,31,4
0,52,27,0
0,56,31,0
0,66,0,1
0,57,0,1
0,52,0,77
0,64,0,35
0,59,0,1
0,56,0,3
0,56,0,9
0,52,0,2
0,47,19,7
0,59,0,3
0,47,0,16
0,64,34,5
0,52,25,0
0,57,23,0
0,59,40,0
0,57,36,0
0,59,29,0
0,52,21,0
0,68,0,2
0,52,0,98
0,57,0,16
0,57,0,15
0,56,33,2
0,52,25,0
0,56,5,0
0,52,0,48
0,56,0,4
0,59,0,3
0,64,0,1
0,47,23,39
0,47,0,15
0,68,35,9
0,56,22,0
0,64,50,0
0,59,35,0
0,40,0,1
0,56,0,6
0,59,0,2
0,56,0,7
0,64,0,3
0,59,0,0
0,68,0,0
0,64,0,14
0,58,52,15
0,64,42,0
0,67,56,0
0,43,42,0
0,61,38,0
0,61,54,0
0,64,58,0
0,58,29,0
0,49,24,0
0,55,17,0
0,52,0,2
0,49,0,1
0,40,0,0
0,64,35,41
0,64,0,24
0,73,64,3
0,61,0,35
0,64,0,1
0,58,0,1
0,71,58,1
0,73,0,3
0,70,42,24
0,71,0,1
0,67,0,2
0,58,0,15
0,55,0,5
0,43,0,4
0,44,38,1
0,71,46,0
0,59,40,0
0,68,40,0
0,64,37,0
0,52,32,0
0,59,31,0
0,56,35,0
0,56,31,0
0,70,0,3
0,61,0,7
0,59,0,32
0,68,0,79
0,59,48,1
0,52,0,1
0,56,0,3
0,59,0,17
0,64,0,10
0,59,0,17
0,64,56,0
0,55,48,0
0,61,48,0
0,67,26,0
0,67,58,0
0,58,33,0
0,61,54,0
0,70,60,0
0,46,31,0
0,56,0,4
0,44,0,1
0,71,0,49
0,61,0,41
0,55,0,5
0,67,0,32
0,64,0,17
0,67,0,7
0,70,0,6
0,58,0,4
0,59,22,2
0,47,27,0
0,71,48,0
0,66,37,0
0,59,1,0
0,56,25,0
0,56,46,0
0,64,48,0
0,46,0,4
0,61,0,1
0,56,0,10
0,66,0,9
0,71,0,13
0,76,62,44
0,52,8,0
0,71,50,0
0,44,36,0
0,68,44,0
0,47,0,5
0,66,52,19
0,68,0,1
0,64,0,4
0,44,28,19
0,64,64,0
0,59,0,1
0,66,0,0
0,44,0,21
0,76,0,2
0,59,30,0
0,59,0,4
0,64,0,5
0,52,0,2
0,71,0,9
0,57,40,4
0,61,35,0
0,64,50,0
0,45,44,0
0,69,52,0
0,57,48,0
0,45,31,0
0,73,39,0
0,44,0,1
0,59,0,6
0,56,0,4
0,64,40,33
0,73,40,27
0,64,0,3
0,69,0,13
0,57,0,5
0,73,0,9
0,73,40,7
0,64,0,7
0,54,26,11
0,73,0,14
0,71,56,0
0,73,0,3
0,61,0,7
0,73,38,17
0,71,0,2
0,45,0,4
0,73,52,1
0,59,17,0
0,33,34,0
0,66,42,0
0,63,39,0
0,57,37,0
0,45,20,0
0,69,36,0
0,63,29,0
0,78,56,21
0,73,0,2
0,57,0,27
0,45,0,3
0,57,15,20
0,59,0,3
0,59,31,21
0,69,0,10
0,66,0,3
0,63,0,2
0,73,0,8
0,66,62,1
0,63,0,1
0,57,0,2
0,54,0,4
0,75,40,20
0,78,0,1
0,59,0,1
0,45,0,12
0,57,0,2
0,66,38,0
0,44,27,0
0,56,30,0
0,54,35,0
0,32,31,0
0,59,32,0
0,59,26,0
0,63,40,0
0,63,32,0
0,71,37,0
0,75,0,1
0,33,0,2
0,64,0,0
0,71,37,0
0,66,0,7
0,44,0,87
0,78,56,14
0,54,0,1
0,71,0,5
0,71,0,13
0,76,54,31
0,78,0,1
0,63,0,0
0,37,31,4
0,64,46,0
0,56,27,0
0,49,26,0
0,64,25,0
0,49,42,0
0,66,0,3
0,32,0,2
0,63,0,5
0,56,0,36
0,59,0,31
0,49,0,5
0,59,31,17
0,56,0,4
0,66,44,20
0,56,39,0
0,49,0,6
0,64,0,7
0,59,0,7
0,49,19,4
0,68,44,0
0,66,0,10
0,76,0,6
0,42,42,8
0,54,29,0
0,61,54,0
0,42,28,0
0,69,66,0
0,57,31,0
0,54,37,0
0,66,62,0
0,57,52,0
0,56,0,4
0,68,0,3
0,37,0,1
0,49,0,10
0,69,68,55
0,57,0,4
0,42,0,18
0,61,0,4
0,69,0,2
0,69,52,12
0,69,0,24
0,68,40,0
0,57,0,2
0,66,0,4
0,54,0,8
0,42,0,3
0,40,19,0
0,40,39,0
0,40,0,4
0,69,46,9
0,68,0,2
0,40,0,1
0,69,0,5
0,54,1,3
0,66,26,0
0,39,50,0
0,39,48,0
0,66,60,0
0,51,20,0
0,71,56,0
0,61,52,0
0,54,0,1
0,64,0,2
0,59,0,3
0,61,40,18
0,69,0,17
0,71,46,0
0,39,0,59
0,71,0,28
0,54,0,2
0,71,52,9
0,71,0,2
0,66,0,10
0,61,0,1
0,66,0,13
0,61,0,5
0,51,0,12
0,39,0,4
0,66,37,3
0,44,31,0
0,44,34,0
0,60,44,0
0,60,25,0
0,54,32,0
0,44,40,0
0,69,44,0
0,54,39,0
0,71,0,3
0,66,56,16
0,69,54,11
0,81,64,1
0,66,0,11
0,60,0,1
0,54,0,8
0,69,0,24
0,44,0,0
0,60,31,3
0,54,27,0
0,48,60,0
0,66,39,0
0,68,52,0
0,36,37,0
0,68,42,0
0,69,0,1
0,54,0,2
0,44,0,1
0,60,0,10
0,66,0,3
0,80,48,4
0,81,0,3
0,44,0,5
0,54,0,3
0,66,0,7
0,60,0,4
0,63,29,0
0,63,0,40
0,76,36,7
0,56,37,1
0,64,50,0
0,37,26,0
0,37,22,0
0,64,38,0
0,56,23,0
0,52,11,0
0,49,29,0
0,80,0,1
0,48,0,3
0,68,0,0
0,36,0,1
0,56,0,16
0,52,0,18
0,64,0,23
0,68,0,5
0,37,0,6
0,37,0,4
0,49,31,4
0,52,29,0
0,76,0,8
0,49,0,35
0,52,0,3
0,73,48,1
0,59,26,1
0,63,46,0
0,47,44,0
0,47,37,0
0,73,54,0
0,49,0,6
0,75,39,17
0,73,0,1
0,47,29,0
0,75,54,0
0,73,0,8
0,59,0,0
0,56,0,1
0,47,0,8
0,76,56,6
0,75,0,1
0,45,32,0
0,69,40,0
0,73,42,0
0,76,62,0
0,45,30,0
0,57,25,0
0,45,44,0
0,64,42,0
0,61,42,0
0,47,0,1
0,75,0,1
0,63,0,2
0,47,0,6
0,78,56,63
0,76,0,3
0,75,42,69
0,78,0,11
0,76,40,13
0,45,0,1
0,75,0,1
0,69,0,42
0,76,0,0
0,73,0,5
0,64,0,7
0,45,0,5
0,61,0,23
0,64,0,13
0,45,0,3
0,57,0,1
0,44,31,0
0,66,42,0
0,44,31,0
0,52,1,0
0,59,39,0
0,63,46,0
0,64,54,0
0,52,0,1
0,44,0,6
0,64,46,13
0,66,0,2
0,64,0,17
0,59,27,5
0,44,0,17
0,63,0,6
0,42,29,1
0,61,37,0
0,42,18,0
0,57,46,0
0,57,28,0
0,54,19,0
0,49,29,0
0,59,0,2
0,59,0,1
0,54,0,54
0,76,0,4
0,42,0,0
0,49,0,3
0,57,0,6
0,71,28,34
0,73,50,49
0,47,17,1
0,47,30,0
0,42,0,1
0,71,0,6
0,76,54,50
0,61,0,4
0,73,0,1
0,64,0,13
0,54,27,3
0,59,35,0
0,63,37,0
0,57,23,0
0,54,0,15
0,47,0,0
0,57,0,15
0,59,0,2
0,63,0,0
0,57,0,13
0,75,38,1
0,76,0,4
0,47,0,43
0,47,26,0
0,40,1,0
0,52,22,0
0,56,39,0
0,40,30,0
0,64,29,0
0,76,36,4
0,75,0,3
0,40,0,11
0,47,0,5
0,68,34,5
0,76,56,0
0,52,0,6
0,76,0,34
0,75,54,8
0,75,0,44
0,64,0,2
0,68,0,1
0,76,56,1
0,40,0,40
0,76,0,4
0,64,31,1
0,44,22,0
0,52,33,0
0,59,24,0
0,71,29,0
0,44,35,0
0,76,54,23
0,76,0,43
0,75,28,5
0,44,0,24
0,59,0,9
0,76,0,3
0,52,0,6
0,75,0,5
0,76,64,1
0,71,0,4
0,76,0,5
0,64,0,6
0,57,14,33
0,61,36,0
0,45,42,0
0,45,18,0
0,66,37,0
0,64,30,0
0,56,0,1
0,44,0,5
0,57,0,110
0,59,11,27
0,68,48,24
0,59,0,2
0,45,0,1
0,66,0,10
0,61,0,2
0,64,0,1
0,47,26,0
0,66,40,10
0,68,0,3
0,45,0,18
0,66,0,2
0,47,0,1
0,57,38,0
0,40,19,0
0,59,24,0
0,52,26,0
0,64,44,0
0,40,19,0
0,59,28,0
0,59,19,42
0,54,21,19
0,69,64,6
0,59,0,2
0,69,0,27
0,68,46,3
0,57,0,4
0,47,21,6
0,66,52,16
0,68,0,4
0,52,0,4
0,68,44,21
0,52,30,3
0,56,19,0
0,56,37,0
0,66,0,1
0,54,0,15
0,47,0,28
0,52,8,27
0,40,0,38
0,64,0,8
0,47,11,2
0,59,0,7
0,40,0,12
0,56,0,1
0,47,23,4
0,52,0,1
0,47,0,12
0,40,31,1
0,64,44,0
0,40,2,0
0,40,36,0
0,59,44,0
0,52,30,0
0,57,38,0
0,47,0,2
0,68,0,1
0,52,0,16
0,47,12,13
0,56,0,1
0,47,39,47
0,57,8,0
0,52,0,7
0,52,31,17
0,57,0,2
0,59,0,6
0,64,0,2
0,57,58,14
0,52,19,0
0,64,56,0
0,59,58,0
0,47,0,6
0,52,0,20
0,57,0,5
0,56,36,3
0,56,36,0
0,52,36,0
0,52,0,13
0,57,0,10
0,47,0,1
0,47,44,10
0,56,0,35
0,59,0,4
0,56,0,1
0,64,0,0
0,47,28,8
0,52,28,0
0,52,0,6
0,40,0,14
0,47,0,1
0,40,0,1
0,56,3,2
0,64,31,24
0,59,26,0
0,64,28,0
0,40,34,0
0,68,36,0
0,59,0,2
0,56,0,2
0,40,0,5
0,68,0,5
0,64,0,2
0,59,0,16
0,47,0,5
0,40,0,5
0,55,16,6
0,43,46,0
0,67,58,0
0,58,34,0
0,64,60,0
0,61,46,0
0,52,0,3
0,64,0,10
0,64,33,41
0,73,58,28
0,49,28,1
0,58,36,0
0,55,31,0
0,64,0,2
0,58,0,4
0,61,0,2
0,64,0,0
0,71,52,26
0,49,0,3
0,73,0,1
0,67,0,25
0,71,0,3
0,70,39,0
0,55,0,4
0,43,0,24
0,73,42,0
0,55,0,1
0,70,0,1
0,52,21,0
0,59,46,0
0,44,35,0
0,68,40,0
0,59,27,0
0,64,58,0
0,52,38,0
0,58,0,2
0,59,0,10
0,71,48,13
0,73,0,5
0,68,0,40
0,64,25,3
0,59,29,0
0,52,0,30
0,59,0,11
0,68,54,7
0,71,44,0
0,68,0,21
0,71,0,1
0,64,0,8
0,59,0,8
0,52,0,0
0,34,42,3
0,70,52,0
0,61,44,0
0,58,29,0
0,55,1,0
0,64,58,0
0,55,44,0
0,67,46,0
0,73,50,0
0,61,35,0
0,64,0,1
0,44,0,2
0,71,0,51
0,64,48,19
0,61,0,37
0,67,0,16
0,55,0,4
0,64,0,1
0,73,0,3
0,70,0,2
0,55,0,23
0,34,0,8
0,59,22,2
0,56,35,0
0,35,31,0
0,56,22,0
0,66,48,0
0,64,30,0
0,71,54,0
0,58,0,3
0,61,0,8
0,71,0,25
0,66,0,7
0,64,0,34
0,56,0,1
0,32,36,6
0,68,34,0
0,76,58,0
0,64,54,0
0,52,24,0
0,68,46,0
0,71,54,0
0,35,0,3
0,66,54,21
0,64,0,7
0,68,0,4
0,64,62,13
0,56,31,0
0,44,38,0
0,66,0,2
0,59,0,2
0,56,0,8
0,44,0,5
0,64,0,6
0,68,0,1
0,59,44,0
0,76,0,19
0,56,0,3
0,69,48,2
0,45,33,0
0,64,48,0
0,33,54,0
0,57,28,0
0,73,38,0
0,61,37,0
0,57,30,0
0,71,0,2
0,32,0,2
0,59,0,0
0,64,26,31
0,69,0,28
0,73,52,1
0,64,0,2
0,57,0,18
0,73,0,10
0,73,54,7
0,64,0,7
0,54,34,3
0,72,60,17
0,73,0,1
0,73,0,5
0,57,0,8
0,33,0,13
0,73,50,1
0,72,0,1
0,63,39,0
0,66,40,0
0,63,38,0
0,57,36,0
0,59,31,0
0,57,36,0
0,73,52,0
0,69,44,0
0,45,48,0
0,64,0,6
0,52,0,3
0,61,0,1
0,78,58,28
0,73,0,1
0,54,0,5
0,66,0,45
0,54,33,0
0,69,0,4
0,63,0,6
0,73,0,4
0,66,44,10
0,57,0,3
0,45,0,2
0,54,0,4
