track,note,velocity,time
1,59,116,13424
1,63,116,0
1,66,110,0
1,57,100,88
1,61,117,0
1,64,102,0
1,57,107,116
1,61,124,0
1,64,107,0
1,59,116,76
1,63,117,0
1,66,110,0
1,59,122,72
1,63,117,0
1,66,107,0
1,57,113,84
1,61,127,0
1,64,110,0
1,57,113,100
1,61,127,0
1,64,110,0
1,59,116,136
1,63,116,0
1,66,106,0
1,59,116,136
1,63,116,0
1,66,110,0
1,57,113,88
1,61,117,0
1,64,114,0
1,57,107,116
1,61,124,0
1,64,107,0
1,59,116,76
1,63,117,0
1,66,110,0
1,59,122,72
1,63,117,0
1,66,107,0
1,57,113,84
1,61,127,0
1,64,110,0
1,57,113,100
1,61,127,0
1,64,110,0
1,59,116,136
1,63,116,0
1,66,106,0
1,59,116,136
1,63,116,0
1,66,110,0
1,57,100,88
1,61,117,0
1,64,102,0
1,57,107,116
1,61,124,0
1,64,107,0
1,59,116,76
1,63,117,0
1,66,110,0
1,59,122,72
1,63,117,0
1,66,107,0
1,57,113,84
1,61,127,0
1,64,110,0
1,57,113,100
1,61,127,0
1,64,110,0
1,59,116,136
1,63,116,0
1,66,106,0
1,59,116,136
1,63,116,0
1,66,110,0
1,57,100,88
1,61,117,0
1,64,102,0
1,57,107,116
1,61,124,0
1,64,107,0
1,59,116,76
1,63,117,0
1,66,110,0
1,59,122,72
1,63,117,0
1,66,107,0
1,57,113,84
1,61,127,0
1,64,110,0
1,57,113,100
1,61,127,0
1,64,110,0
1,59,116,136
1,63,116,0
1,66,106,0
1,54,99,136
1,57,96,0
1,59,106,0
1,61,102,0
1,64,99,0
1,59,104,172
1,61,106,0
1,63,106,0
1,66,102,0
1,54,90,192
1,57,87,0
1,59,97,0
1,61,92,0
1,64,92,0
1,59,92,168
1,61,94,0
1,63,92,0
1,66,97,0
1,59,116,452
1,63,116,0
1,66,110,0
1,57,113,88
1,61,117,0
1,64,114,0
1,57,107,116
1,61,124,0
1,64,107,0
1,59,116,76
1,63,117,0
1,66,110,0
1,59,122,72
1,63,117,0
1,66,107,0
1,57,113,84
1,61,127,0
1,64,110,0
1,57,113,100
1,61,127,0
1,64,110,0
1,59,116,136
1,63,116,0
1,66,106,0
1,59,116,136
1,63,116,0
1,66,110,0
1,57,100,88
1,61,117,0
1,64,102,0
1,57,107,116
1,61,124,0
1,64,107,0
1,59,116,76
1,63,117,0
1,66,110,0
1,59,122,72
1,63,117,0
1,66,107,0
1,57,113,84
1,61,127,0
1,64,110,0
1,57,113,100
1,61,127,0
1,64,110,0
1,59,116,136
1,63,116,0
1,66,106,0
1,59,116,136
1,63,116,0
1,66,110,0
1,57,100,88
1,61,117,0
1,64,102,0
1,57,107,116
1,61,124,0
1,64,107,0
1,59,116,76
1,63,117,0
1,66,110,0
1,59,122,72
1,63,117,0
1,66,107,0
1,57,113,84
1,61,127,0
1,64,110,0
1,57,113,100
1,61,127,0
1,64,110,0
1,59,116,136
1,63,116,0
1,66,106,0
1,54,99,136
1,57,96,0
1,59,106,0
1,61,102,0
1,64,99,0
1,59,104,172
1,61,106,0
1,63,106,0
1,66,102,0
1,54,90,192
1,57,87,0
1,59,97,0
1,61,92,0
1,64,92,0
1,59,92,168
1,61,94,0
1,63,92,0
1,66,97,0
1,59,116,13760
1,63,116,0
1,66,110,0
1,57,100,88
1,61,117,0
1,64,102,0
1,57,107,116
1,61,124,0
1,64,107,0
1,59,116,76
1,63,117,0
1,66,110,0
1,59,122,72
1,63,117,0
1,66,107,0
1,57,113,84
1,61,127,0
1,64,110,0
1,57,113,100
1,61,127,0
1,64,110,0
1,59,116,136
1,63,116,0
1,66,106,0
1,59,116,136
1,63,116,0
1,66,110,0
1,57,113,88
1,61,117,0
1,64,114,0
1,57,107,116
1,61,124,0
1,64,107,0
1,59,116,76
1,63,117,0
1,66,110,0
1,59,122,72
1,63,117,0
1,66,107,0
1,57,113,84
1,61,127,0
1,64,110,0
1,57,113,100
1,61,127,0
1,64,110,0
1,59,116,136
1,63,116,0
1,66,106,0
1,59,116,136
1,63,116,0
1,66,110,0
1,57,100,88
1,61,117,0
1,64,102,0
1,57,107,116
1,61,124,0
1,64,107,0
1,59,116,76
1,63,117,0
1,66,110,0
1,59,122,72
1,63,117,0
1,66,107,0
1,57,113,84
1,61,127,0
1,64,110,0
1,57,113,100
1,61,127,0
1,64,110,0
1,59,116,136
1,63,116,0
1,66,106,0
1,59,116,136
1,63,116,0
1,66,110,0
1,57,100,88
1,61,117,0
1,64,102,0
1,57,107,116
1,61,124,0
1,64,107,0
1,59,116,76
1,63,117,0
1,66,110,0
1,59,122,72
1,63,117,0
1,66,107,0
1,57,113,84
1,61,127,0
1,64,110,0
1,57,113,100
1,61,127,0
1,64,110,0
1,59,116,136
1,63,116,0
1,66,106,0
1,54,99,136
1,57,96,0
1,59,106,0
1,61,102,0
1,64,99,0
1,59,104,172
1,61,106,0
1,63,106,0
1,66,102,0
1,54,90,192
1,57,87,0
1,59,97,0
1,61,92,0
1,64,92,0
1,59,92,168
1,61,94,0
1,63,92,0
1,66,97,0
2,33,110,924
2,21,110,0
2,23,110,156
2,35,110,0
2,23,110,100
2,35,110,0
2,23,110,336
2,35,110,0
2,23,110,60
2,35,110,0
2,21,110,524
2,33,110,0
2,23,110,144
2,35,110,0
2,23,110,88
2,35,110,0
2,23,110,332
2,35,110,0
2,23,94,56
2,35,94,0
2,21,110,508
2,33,110,0
2,23,110,144
2,35,110,0
2,23,110,96
2,35,110,0
2,23,110,332
2,35,110,0
2,23,100,56
2,35,100,0
2,21,106,512
2,33,106,0
2,23,110,136
2,35,110,0
2,23,107,68
2,35,107,0
2,23,110,340
2,35,110,0
2,23,103,56
2,35,103,0
2,26,100,324
2,38,100,0
2,27,87,44
2,39,87,0
2,23,110,44
2,35,110,0
2,23,110,148
2,35,110,0
2,23,110,84
2,35,110,0
2,23,107,336
2,35,107,0
2,23,107,24
2,35,107,0
2,21,100,536
2,33,100,0
2,23,110,144
2,35,110,0
2,23,110,100
2,35,110,0
2,23,110,332
2,35,110,0
2,23,97,56
2,35,97,0
2,33,106,316
2,45,106,0
2,35,92,48
2,47,92,0
2,23,110,40
2,35,110,0
2,23,110,144
2,35,110,0
2,23,110,88
2,35,110,0
2,23,110,328
2,35,110,0
2,23,107,60
2,35,107,0
2,21,106,512
2,33,106,0
2,23,110,140
2,35,110,0
2,23,110,84
2,35,110,0
2,23,110,332
2,35,110,0
2,23,103,56
2,35,103,0
2,23,127,680
2,35,127,0
2,23,127,56
2,35,127,0
2,23,127,336
2,35,127,0
2,23,124,56
2,35,124,0
2,21,117,480
2,33,117,0
2,23,127,140
2,35,127,0
2,23,127,68
2,35,127,0
2,23,127,336
2,35,127,0
2,23,117,56
2,35,117,0
2,21,123,480
2,33,123,0
2,23,127,144
2,35,127,0
2,23,127,56
2,35,127,0
2,23,120,336
2,35,120,0
2,23,117,60
2,35,117,0
2,21,127,480
2,33,127,0
2,23,127,144
2,35,127,0
2,23,127,64
2,35,127,0
2,23,127,336
2,35,127,0
2,23,120,56
2,35,120,0
2,21,112,480
2,33,112,0
2,23,127,144
2,35,127,0
2,23,127,56
2,35,127,0
2,23,127,328
2,35,127,0
2,23,124,56
2,35,124,0
2,21,117,480
2,33,117,0
2,23,127,140
2,35,127,0
2,23,127,68
2,35,127,0
2,23,127,340
2,35,127,0
2,23,117,56
2,35,117,0
2,21,123,480
2,33,123,0
2,23,127,144
2,35,127,0
2,23,127,56
2,35,127,0
2,23,120,336
2,35,120,0
2,23,117,60
2,35,117,0
2,21,127,480
2,33,127,0
2,23,127,144
2,35,127,0
2,23,127,64
2,35,127,0
2,23,127,336
2,35,127,0
2,23,120,56
2,35,120,0
2,21,112,480
2,33,112,0
2,23,127,144
2,35,127,0
2,23,127,56
2,35,127,0
2,23,127,336
2,35,127,0
2,23,124,56
2,35,124,0
2,21,117,480
2,33,117,0
2,23,127,140
2,35,127,0
2,23,127,68
2,35,127,0
2,23,127,336
2,35,127,0
2,23,117,56
2,35,117,0
2,21,123,480
2,33,123,0
2,23,127,144
2,35,127,0
2,23,127,56
2,35,127,0
2,23,120,336
2,35,120,0
2,23,117,60
2,35,117,0
2,21,127,480
2,33,127,0
2,23,127,144
2,35,127,0
2,23,127,64
2,35,127,0
2,23,127,336
2,35,127,0
2,23,120,56
2,35,120,0
2,21,112,480
2,33,112,0
2,23,127,144
2,35,127,0
2,23,127,56
2,35,127,0
2,23,127,328
2,35,127,0
2,23,124,56
2,35,124,0
2,21,117,480
2,33,117,0
2,23,127,140
2,35,127,0
2,23,127,68
2,35,127,0
2,23,127,340
2,35,127,0
2,23,117,56
2,35,117,0
2,21,123,480
2,33,123,0
2,23,127,144
2,35,127,0
2,23,127,56
2,35,127,0
2,23,120,336
2,35,120,0
2,23,117,60
2,35,117,0
2,21,127,480
2,33,127,0
2,23,127,144
2,35,127,0
2,23,127,64
2,35,127,0
2,23,127,336
2,35,127,0
2,23,120,56
2,35,120,0
2,21,112,480
2,33,112,0
2,23,127,144
2,35,127,0
2,23,127,56
2,35,127,0
2,23,127,336
2,35,127,0
2,23,124,56
2,35,124,0
2,21,117,480
2,33,117,0
2,23,127,140
2,35,127,0
2,23,127,68
2,35,127,0
2,23,127,336
2,35,127,0
2,23,117,56
2,35,117,0
2,21,123,480
2,33,123,0
2,23,127,144
2,35,127,0
2,23,127,56
2,35,127,0
2,23,120,336
2,35,120,0
2,23,117,60
2,35,117,0
2,21,127,480
2,33,127,0
2,23,127,144
2,35,127,0
2,23,127,64
2,35,127,0
2,23,127,336
2,35,127,0
2,23,120,56
2,35,120,0
2,21,112,480
2,33,112,0
2,23,127,144
2,35,127,0
2,23,127,56
2,35,127,0
2,23,127,328
2,35,127,0
2,23,124,56
2,35,124,0
2,21,117,480
2,33,117,0
2,23,127,140
2,35,127,0
2,23,127,68
2,35,127,0
2,23,127,340
2,35,127,0
2,23,117,56
2,35,117,0
2,21,123,480
2,33,123,0
2,23,127,144
2,35,127,0
2,23,127,56
2,35,127,0
2,23,120,336
2,35,120,0
2,23,117,60
2,35,117,0
2,21,127,480
2,33,127,0
2,23,127,144
2,35,127,0
2,23,127,64
2,35,127,0
2,23,127,336
2,35,127,0
2,23,120,56
2,35,120,0
2,21,112,480
2,33,112,0
2,23,127,144
2,35,127,0
2,23,127,56
2,35,127,0
2,23,127,336
2,35,127,0
2,23,124,56
2,35,124,0
2,21,117,480
2,33,117,0
2,23,127,140
2,35,127,0
2,23,127,68
2,35,127,0
2,23,127,336
2,35,127,0
2,23,117,56
2,35,117,0
2,21,123,480
2,33,123,0
2,23,127,144
2,35,127,0
2,23,127,56
2,35,127,0
2,23,120,336
2,35,120,0
2,23,117,60
2,35,117,0
2,21,127,480
2,33,127,0
2,23,127,144
2,35,127,0
2,23,127,64
2,35,127,0
2,23,127,336
2,35,127,0
2,23,120,56
2,35,120,0
2,21,112,480
2,33,112,0
2,23,127,144
2,35,127,0
2,23,127,56
2,35,127,0
2,23,127,328
2,35,127,0
2,23,124,56
2,35,124,0
2,21,117,480
2,33,117,0
2,23,127,140
2,35,127,0
2,23,127,68
2,35,127,0
2,23,127,340
2,35,127,0
2,23,117,56
2,35,117,0
2,21,123,480
2,33,123,0
2,23,127,144
2,35,127,0
2,23,127,56
2,35,127,0
2,23,120,336
2,35,120,0
2,23,117,60
2,35,117,0
2,21,127,480
2,33,127,0
2,23,127,144
2,35,127,0
2,23,127,64
2,35,127,0
2,23,127,336
2,35,127,0
2,23,120,56
2,35,120,0
2,21,112,480
2,33,112,0
2,23,127,144
2,35,127,0
2,23,127,56
2,35,127,0
2,23,127,336
2,35,127,0
2,23,124,56
2,35,124,0
2,21,117,480
2,33,117,0
2,23,127,140
2,35,127,0
2,23,127,68
2,35,127,0
2,23,127,336
2,35,127,0
2,23,117,56
2,35,117,0
2,21,123,480
2,33,123,0
2,23,127,144
2,35,127,0
2,23,127,56
2,35,127,0
2,23,120,336
2,35,120,0
2,23,117,60
2,35,117,0
2,21,127,480
2,33,127,0
2,23,127,144
2,35,127,0
2,23,127,64
2,35,127,0
2,23,127,336
2,35,127,0
2,23,120,56
2,35,120,0
2,21,112,480
2,33,112,0
2,23,127,144
2,35,127,0
2,23,127,56
2,35,127,0
2,23,127,328
2,35,127,0
2,23,124,56
2,35,124,0
2,21,117,480
2,33,117,0
2,23,127,140
2,35,127,0
2,23,127,68
2,35,127,0
2,23,127,340
2,35,127,0
2,23,117,56
2,35,117,0
2,21,123,480
2,33,123,0
2,23,127,144
2,35,127,0
2,23,127,56
2,35,127,0
2,23,120,336
2,35,120,0
2,23,117,60
2,35,117,0
2,21,127,480
2,33,127,0
2,23,127,144
2,35,127,0
2,23,127,64
2,35,127,0
2,23,127,336
2,35,127,0
2,23,120,56
2,35,120,0
2,23,127,288
2,35,127,0
2,23,124,40
2,35,120,0
2,23,127,204
2,35,127,0
2,23,127,56
2,35,127,0
2,23,127,336
2,35,127,0
2,23,124,56
2,35,124,0
2,21,117,480
2,33,117,0
2,23,127,140
2,35,127,0
2,23,127,68
2,35,127,0
2,23,127,336
2,35,127,0
2,23,117,56
2,35,117,0
2,21,123,480
2,33,123,0
2,23,127,144
2,35,127,0
2,23,127,56
2,35,127,0
2,23,120,336
2,35,120,0
2,23,117,60
2,35,117,0
2,21,127,480
2,33,127,0
2,23,127,144
2,35,127,0
2,23,127,64
2,35,127,0
2,23,127,336
2,35,127,0
2,23,120,56
2,35,120,0
2,21,112,480
2,33,112,0
2,23,127,144
2,35,127,0
2,23,127,56
2,35,127,0
2,23,127,328
2,35,127,0
2,23,124,56
2,35,124,0
2,21,117,480
2,33,117,0
2,23,127,140
2,35,127,0
2,23,127,68
2,35,127,0
2,23,127,340
2,35,127,0
2,23,117,56
2,35,117,0
2,21,123,480
2,33,123,0
2,23,127,144
2,35,127,0
2,23,127,56
2,35,127,0
2,23,120,336
2,35,120,0
2,23,117,60
2,35,117,0
2,21,127,480
2,33,127,0
2,23,127,144
2,35,127,0
2,23,127,64
2,35,127,0
2,23,127,336
2,35,127,0
2,23,120,56
2,35,120,0
2,21,112,480
2,33,112,0
2,23,127,144
2,35,127,0
2,23,127,56
2,35,127,0
2,23,127,336
2,35,127,0
2,23,124,56
2,35,124,0
2,21,117,480
2,33,117,0
2,23,127,140
2,35,127,0
2,23,127,68
2,35,127,0
2,23,127,336
2,35,127,0
2,23,117,56
2,35,117,0
2,21,123,480
2,33,123,0
2,23,127,144
2,35,127,0
2,23,127,56
2,35,127,0
2,23,120,336
2,35,120,0
2,23,117,60
2,35,117,0
2,21,127,480
2,33,127,0
2,23,127,144
2,35,127,0
2,23,127,64
2,35,127,0
2,23,127,336
2,35,127,0
2,23,120,56
2,35,120,0
2,21,112,480
2,33,112,0
2,23,127,144
2,35,127,0
2,23,127,56
2,35,127,0
2,23,127,328
2,35,127,0
2,23,124,56
2,35,124,0
2,21,117,480
2,33,117,0
2,23,127,140
2,35,127,0
2,23,127,68
2,35,127,0
2,23,127,340
2,35,127,0
2,23,117,56
2,35,117,0
2,21,123,480
2,33,123,0
2,23,127,144
2,35,127,0
2,23,127,56
2,35,127,0
2,23,120,336
2,35,120,0
2,23,117,60
2,35,117,0
2,21,127,480
2,33,127,0
2,23,127,144
2,35,127,0
2,23,127,64
2,35,127,0
2,23,127,336
2,35,127,0
2,23,120,56
2,35,120,0
2,21,112,480
2,33,112,0
2,23,127,144
2,35,127,0
2,23,127,56
2,35,127,0
2,23,127,336
2,35,127,0
2,23,124,56
2,35,124,0
2,21,117,480
2,33,117,0
2,23,127,140
2,35,127,0
2,23,127,68
2,35,127,0
2,23,127,336
2,35,127,0
2,23,117,56
2,35,117,0
2,21,123,480
2,33,123,0
2,23,127,144
2,35,127,0
2,23,127,56
2,35,127,0
2,23,120,336
2,35,120,0
2,23,117,60
2,35,117,0
2,21,127,480
2,33,127,0
2,23,127,144
2,35,127,0
