track,note,velocity,time
0,23,110,0
0,35,110,0
0,70,127,0
0,70,0,1
0,70,61,23
0,70,0,1
0,35,0,22
0,23,0,0
0,70,64,1
0,70,0,1
0,23,110,23
0,35,110,0
0,70,60,0
0,70,0,1
0,35,0,11
0,23,0,0
0,70,127,12
0,70,0,1
0,70,62,23
0,70,0,1
0,70,69,23
0,70,0,1
0,23,110,23
0,35,110,0
0,70,62,0
0,70,0,1
0,35,0,8
0,23,0,0
0,23,110,15
0,35,110,0
0,70,127,0
0,70,0,1
0,35,0,12
0,23,0,0
0,70,66,11
0,70,0,1
0,70,76,23
0,70,0,1
0,70,63,23
0,70,0,1
0,70,127,23
0,70,0,1
0,70,64,23
0,70,0,1
0,21,110,23
0,33,110,0
0,70,56,0
0,70,0,1
0,33,0,11
0,21,0,0
0,70,61,12
0,70,0,1
0,23,110,23
0,35,110,0
0,70,127,0
0,70,0,1
0,70,61,23
0,70,0,1
0,70,64,23
0,70,0,1
0,35,0,1
0,23,0,0
0,23,110,22
0,35,110,0
0,70,60,0
0,70,0,1
0,35,0,12
0,23,0,0
0,70,127,11
0,70,0,1
0,70,62,23
0,70,0,1
0,70,69,23
0,70,0,1
0,23,110,23
0,35,110,0
0,70,62,0
0,70,0,1
0,35,0,9
0,23,0,0
0,23,94,14
0,35,94,0
0,70,127,0
0,70,0,1
0,35,0,16
0,23,0,0
0,70,66,7
0,70,0,1
0,70,76,23
0,70,0,1
0,70,63,23
0,70,0,1
0,70,127,23
0,70,0,1
0,70,64,23
0,70,0,1
0,21,110,23
0,33,110,0
0,70,56,0
0,70,0,1
0,33,0,11
0,21,0,0
0,70,61,12
0,70,0,1
0,23,110,23
0,35,110,0
0,70,127,0
0,70,0,1
0,70,61,23
0,70,0,1
0,35,0,23
0,23,0,0
0,70,64,0
0,70,0,1
0,23,110,23
0,35,110,0
0,70,60,0
0,70,0,1
0,35,0,12
0,23,0,0
0,70,127,11
0,70,0,1
0,70,62,23
0,70,0,1
0,70,69,23
0,70,0,1
0,23,110,23
0,35,110,0
0,70,62,0
0,70,0,1
0,35,0,9
0,23,0,0
0,23,100,14
0,35,100,0
0,70,127,0
0,70,0,1
0,35,0,15
0,23,0,0
0,70,66,8
0,70,0,1
0,70,76,23
0,70,0,1
0,70,63,23
0,70,0,1
0,70,127,23
0,70,0,1
0,70,64,23
0,70,0,1
0,21,106,23
0,33,106,0
0,70,56,0
0,70,0,1
0,33,0,13
0,21,0,0
0,70,61,10
0,70,0,1
0,23,110,23
0,35,110,0
0,70,127,0
0,70,0,1
0,70,61,23
0,70,0,1
0,70,64,23
0,70,0,1
0,35,0,6
0,23,0,0
0,23,107,17
0,35,107,0
0,70,60,0
0,70,0,1
0,35,0,10
0,23,0,0
0,70,127,13
0,70,0,1
0,70,62,23
0,70,0,1
0,70,69,23
0,70,0,1
0,23,110,23
0,35,110,0
0,70,62,0
0,70,0,1
0,35,0,9
0,23,0,0
0,23,103,14
0,35,103,0
0,70,127,0
0,70,0,1
0,35,0,14
0,23,0,0
0,70,66,9
0,70,0,1
0,70,76,23
0,70,0,1
0,70,63,23
0,70,0,1
0,26,100,23
0,38,100,0
0,70,127,0
0,70,0,1
0,38,0,12
0,26,0,0
0,27,87,11
0,39,87,0
0,70,64,0
0,70,0,1
0,39,0,12
0,27,0,0
0,23,110,11
0,35,110,0
0,70,56,0
0,70,0,1
0,35,0,10
0,23,0,0
0,70,61,13
0,70,0,1
0,83,120,19
0,23,110,4
0,35,110,0
0,70,127,0
0,70,0,1
0,83,0,15
0,82,99,4
0,70,61,4
0,70,0,1
0,82,0,15
0,81,103,4
0,70,64,4
0,70,0,1
0,35,0,2
0,23,0,0
0,81,0,13
0,80,92,4
0,23,110,4
0,35,110,0
0,70,60,0
0,70,0,1
0,35,0,11
0,23,0,0
0,80,0,4
0,78,102,4
0,70,127,4
0,70,0,1
0,78,0,15
0,80,114,4
0,70,62,4
0,70,0,1
0,80,0,15
0,81,99,4
0,70,69,4
0,70,0,1
0,81,0,15
0,82,106,4
0,23,107,4
0,35,107,0
0,70,62,0
0,70,0,1
0,82,0,15
0,35,0,2
0,23,0,0
0,83,90,2
0,23,107,4
0,35,107,0
0,70,127,0
0,70,0,1
0,35,0,9
0,23,0,0
0,83,0,6
0,81,117,4
0,70,66,4
0,70,0,1
0,81,0,15
0,80,94,4
0,70,76,4
0,70,0,1
0,80,0,15
0,78,102,4
0,70,63,4
0,70,0,1
0,78,0,15
0,70,127,8
0,70,0,1
0,70,64,23
0,70,0,1
0,54,122,19
0,21,100,4
0,33,100,0
0,70,56,0
0,70,0,1
0,54,0,8
0,33,0,3
0,21,0,0
0,56,127,8
0,70,61,4
0,70,0,1
0,56,0,6
0,57,115,13
0,23,110,4
0,35,110,0
0,70,127,0
0,70,0,1
0,57,0,9
0,56,100,10
0,70,61,4
0,70,0,1
0,56,0,12
0,54,101,7
0,35,0,3
0,23,0,0
0,70,64,1
0,70,0,1
0,54,0,11
0,23,110,12
0,35,110,0
0,70,60,0
0,70,0,1
0,35,0,12
0,23,0,0
0,57,127,7
0,70,127,4
0,70,0,1
0,57,0,7
0,56,100,12
0,70,62,4
0,70,0,1
0,56,0,9
0,54,95,10
0,70,69,4
0,70,0,1
0,54,0,13
0,23,110,10
0,35,110,0
0,70,62,0
0,70,0,1
0,35,0,9
0,23,0,0
0,57,127,10
0,23,97,4
0,35,97,0
0,70,127,0
0,70,0,1
0,57,0,8
0,35,0,8
0,23,0,0
0,56,104,3
0,70,66,4
0,70,0,1
0,56,0,7
0,55,101,12
0,70,76,4
0,70,0,1
0,55,0,7
0,54,100,12
0,70,63,4
0,70,0,1
0,54,0,18
0,33,106,5
0,45,106,0
0,70,127,0
0,70,0,1
0,45,0,11
0,33,0,0
0,35,92,12
0,47,92,0
0,70,64,0
0,70,0,1
0,47,0,13
0,35,0,0
0,23,110,10
0,35,110,0
0,70,56,0
0,70,0,1
0,35,0,11
0,23,0,0
0,70,61,12
0,70,0,1
0,23,110,23
0,35,110,0
0,70,127,0
0,70,0,1
0,70,61,23
0,70,0,1
0,70,64,23
0,70,0,1
0,35,0,1
0,23,0,0
0,23,110,22
0,35,110,0
0,70,60,0
0,70,0,1
0,35,0,13
0,23,0,0
0,70,127,10
0,70,0,1
0,70,62,23
0,70,0,1
0,70,69,23
0,70,0,1
0,23,110,23
0,35,110,0
0,70,62,0
0,70,0,1
0,35,0,8
0,23,0,0
0,23,107,15
0,35,107,0
0,70,127,0
0,70,0,1
0,35,0,15
0,23,0,0
0,70,66,8
0,70,0,1
0,70,76,23
0,70,0,1
0,70,63,23
0,70,0,1
0,70,127,23
0,70,0,1
0,70,64,23
0,70,0,1
0,21,106,23
0,33,106,0
0,70,56,0
0,70,0,1
0,33,0,12
0,21,0,0
0,70,61,11
0,70,0,1
0,23,110,23
0,35,110,0
0,70,127,0
0,70,0,1
0,70,61,23
0,70,0,1
0,70,64,23
0,70,0,1
0,35,0,2
0,23,0,0
0,23,110,21
0,35,110,0
0,70,60,0
0,70,0,1
0,35,0,12
0,23,0,0
0,70,127,11
0,70,0,1
0,70,62,23
0,70,0,1
0,70,69,23
0,70,0,1
0,23,110,23
0,35,110,0
0,70,62,0
0,70,0,1
0,35,0,9
0,23,0,0
0,23,103,14
0,35,103,0
0,70,127,0
0,70,0,1
0,35,0,21
0,23,0,0
0,70,66,2
0,70,0,1
0,36,127,23
0,70,76,0
0,70,0,1
0,36,0,0
0,36,114,23
0,70,63,0
0,70,0,1
0,36,0,0
0,40,90,19
0,40,0,1
0,28,127,3
0,40,127,0
0,70,127,0
0,70,0,1
0,40,0,0
0,28,0,0
0,70,64,23
0,70,0,1
0,70,56,23
0,70,0,1
0,70,61,23
0,70,0,1
0,83,117,19
0,59,116,4
0,63,116,0
0,66,110,0
0,23,127,0
0,35,127,0
0,71,117,0
0,73,124,0
0,75,124,0
0,78,114,0
0,59,127,0
0,35,127,0
0,42,112,0
0,67,104,0
0,67,0,1
0,42,0,0
0,35,0,0
0,59,0,6
0,83,0,1
0,82,102,4
0,59,66,4
0,42,62,0
0,70,56,0
0,70,0,1
0,42,0,0
0,59,0,8
0,82,0,7
0,81,117,4
0,59,0,4
0,59,63,0
0,42,63,0
0,70,117,0
0,66,0,1
0,70,0,0
0,42,0,0
0,63,0,1
0,78,0,6
0,35,0,2
0,23,0,0
0,71,0,0
0,59,0,0
0,73,0,2
0,81,0,4
0,80,87,4
0,57,100,4
0,61,117,0
0,64,102,0
0,23,127,0
0,35,127,0
0,69,96,0
0,73,117,0
0,76,111,0
0,59,114,0
0,35,120,0
0,42,61,0
0,67,99,0
0,70,82,0
0,70,0,1
0,35,0,0
0,42,0,0
0,67,0,0
0,75,0,1
0,35,0,3
0,23,0,0
0,59,0,0
0,80,0,4
0,78,99,3
0,28,127,4
0,39,120,0
0,40,127,0
0,42,112,0
0,42,0,1
0,28,0,0
0,39,0,0
0,40,0,0
0,78,0,15
0,80,124,4
0,59,89,4
0,42,67,0
0,70,64,0
0,70,0,1
0,42,0,0
0,59,0,9
0,80,0,6
0,81,99,4
0,54,104,4
0,42,82,0
0,70,123,0
0,80,127,0
0,80,0,1
0,70,0,0
0,42,0,0
0,81,0,15
0,54,0,1
0,82,109,3
0,23,127,4
0,35,127,0
0,35,127,0
0,42,61,0
0,70,76,0
0,70,0,1
0,42,0,0
0,35,0,0
0,35,0,9
0,23,0,0
0,82,0,6
0,83,96,4
0,23,124,4
0,35,124,0
0,57,112,0
0,35,100,0
0,42,99,0
0,67,107,0
0,67,0,1
0,42,0,0
0,35,0,0
0,57,0,5
0,83,0,4
0,81,123,4
0,35,0,4
0,23,0,0
0,59,102,0
0,42,66,0
0,70,62,0
0,70,0,1
0,42,0,0
0,59,0,14
0,81,0,1
0,80,92,4
0,42,82,4
0,70,127,0
0,70,0,1
0,42,0,0
0,80,0,15
0,78,99,4
0,59,114,4
0,42,66,0
0,67,92,0
0,70,72,0
0,70,0,1
0,67,0,0
0,42,0,0
0,59,0,3
0,78,0,4
0,28,127,8
0,40,127,0
0,42,112,0
0,42,0,1
0,40,0,0
0,28,0,0
0,59,57,23
0,42,62,0
0,70,57,0
0,70,0,1
0,42,0,0
0,59,0,9
0,54,122,10
0,21,117,4
0,33,117,0
0,59,74,0
0,42,78,0
0,70,123,0
0,80,127,0
0,80,0,0
0,70,0,0
0,42,0,0
0,59,0,7
0,54,0,2
0,33,0,3
0,21,0,0
0,56,127,7
0,59,54,4
0,42,69,0
0,70,82,0
0,70,0,1
0,42,0,0
0,59,0,5
0,56,0,1
0,57,122,13
0,23,127,4
0,35,127,0
0,59,102,0
0,35,127,0
0,42,107,0
0,67,104,0
0,67,0,1
0,42,0,0
0,35,0,0
0,57,0,10
0,59,0,7
0,56,114,2
0,59,70,4
0,42,74,0
0,70,69,0
0,70,0,1
0,42,0,0
0,59,0,9
0,56,0,3
0,54,95,5
0,59,63,4
0,42,80,0
0,70,127,0
0,70,0,1
0,42,0,0
0,35,0,6
0,23,0,0
0,59,0,4
0,54,0,3
0,23,127,7
0,35,127,0
0,59,114,0
0,35,120,0
0,42,78,0
0,67,99,0
0,70,80,0
0,70,0,1
0,35,0,0
0,42,0,0
0,67,0,0
0,35,0,11
0,23,0,0
0,59,0,1
0,57,120,7
0,59,58,4
0,28,127,0
0,39,120,0
0,40,127,0
0,42,107,0
0,42,0,1
0,28,0,0
0,39,0,0
0,40,0,0
0,59,0,5
0,57,0,3
0,56,100,11
0,59,84,4
0,42,76,0
0,70,76,0
0,70,0,1
0,42,0,0
0,59,0,9
0,56,0,2
0,54,97,8
0,54,104,4
0,42,76,0
0,70,127,0
0,80,127,0
0,80,0,1
0,70,0,0
0,42,0,0
0,54,0,16
0,54,0,2
0,23,127,5
0,35,127,0
0,35,127,0
0,42,72,0
0,70,78,0
0,70,0,1
0,42,0,0
0,35,0,0
0,35,0,7
0,23,0,0
0,57,127,10
0,23,117,4
0,35,117,0
0,57,107,0
0,35,100,0
0,42,112,0
0,67,89,0
0,67,0,1
0,42,0,0
0,35,0,0
0,57,0,7
0,57,0,4
0,56,104,4
0,35,0,4
0,23,0,0
0,59,96,0
0,42,67,0
0,70,82,0
0,70,0,1
0,42,0,0
0,56,0,7
0,59,0,0
0,55,100,5
0,42,78,4
0,70,127,0
0,70,0,1
0,42,0,0
0,55,0,5
0,54,100,7
0,59,114,3
0,42,82,0
0,67,96,0
0,70,80,0
0,70,0,1
0,67,0,0
0,42,0,0
0,59,0,4
0,59,105,5
0,28,127,0
0,40,127,0
0,42,112,0
0,42,0,1
0,40,0,0
0,28,0,0
0,54,0,0
0,59,0,7
0,59,55,10
0,42,78,0
0,70,78,0
0,70,0,1
0,42,0,0
0,59,0,4
0,81,117,0
0,69,0,1
0,73,0,1
0,76,0,0
0,21,123,1
0,33,123,0
0,59,78,0
0,42,90,0
0,70,123,0
0,80,127,0
0,80,0,1
0,70,0,0
0,42,0,0
0,59,0,3
0,33,0,2
0,21,0,0
0,81,0,4
0,64,0,1
0,61,0,0
0,57,0,2
0,82,124,1
0,59,70,4
0,42,80,0
0,70,80,0
0,70,0,1
0,42,0,0
0,59,0,7
0,82,0,8
0,83,96,4
0,57,107,4
0,61,124,0
0,64,107,0
0,23,127,0
0,35,127,0
0,69,103,0
0,73,124,0
0,76,120,0
0,59,57,0
0,35,127,0
0,42,117,0
0,67,101,0
0,67,0,0
0,42,0,0
0,35,0,0
0,59,0,2
0,83,0,4
0,82,84,4
0,59,66,4
0,42,66,0
0,70,80,0
0,70,0,1
0,42,0,0
0,59,0,10
0,82,0,5
0,81,112,4
0,69,0,2
0,59,81,2
0,42,84,0
0,70,117,0
0,70,0,1
0,42,0,0
0,61,0,3
0,64,0,1
0,57,0,0
0,76,0,4
0,35,0,1
0,23,0,0
0,73,0,1
0,59,0,1
0,81,0,4
0,80,92,4
0,59,116,4
0,63,117,0
0,66,110,0
0,23,127,0
0,35,127,0
0,71,84,0
0,73,86,0
0,75,90,0
0,78,90,0
0,59,111,0
0,35,120,0
0,42,67,0
0,67,87,0
0,70,80,0
0,70,0,1
0,35,0,0
0,42,0,0
0,67,0,0
0,35,0,11
0,23,0,0
0,59,0,1
0,80,0,3
0,78,97,4
0,28,127,4
0,39,120,0
0,40,127,0
0,42,107,0
0,42,0,0
0,28,0,0
0,39,0,0
0,40,0,0
0,78,0,10
0,80,117,4
0,59,87,4
0,42,66,0
0,70,80,0
0,70,0,1
0,42,0,0
0,59,0,6
0,80,0,5
0,81,87,4
0,54,74,4
0,42,78,0
0,70,123,0
0,80,127,0
0,80,0,1
0,70,0,0
0,42,0,0
0,54,0,13
0,81,0,2
0,82,97,4
0,23,120,4
0,35,120,0
0,35,127,0
0,42,67,0
0,70,76,0
0,70,0,1
0,42,0,0
0,35,0,0
0,35,0,8
0,23,0,0
0,82,0,7
0,83,90,4
0,23,117,4
0,35,117,0
0,57,107,0
0,35,100,0
0,42,112,0
0,67,104,0
0,67,0,1
0,42,0,0
0,35,0,0
0,57,0,9
0,83,0,6
0,81,99,4
0,35,0,4
0,23,0,0
0,59,102,0
0,42,72,0
0,70,84,0
0,70,0,1
0,42,0,0
0,59,0,15
0,81,0,0
0,80,99,4
0,42,74,4
0,70,127,0
0,70,0,1
0,42,0,0
0,80,0,15
0,78,102,4
0,59,117,4
0,42,74,0
0,67,101,0
0,70,87,0
0,70,0,1
0,67,0,0
0,42,0,0
0,59,0,11
0,78,0,4
0,28,124,8
0,40,127,0
0,42,112,0
0,42,0,1
0,40,0,0
0,28,0,0
0,59,61,23
0,42,82,0
0,70,80,0
0,70,0,1
0,42,0,0
0,59,0,5
0,21,127,18
0,33,127,0
0,42,80,0
0,70,123,0
0,80,127,0
0,80,0,1
0,70,0,0
0,42,0,0
0,33,0,11
0,21,0,0
0,59,65,12
0,42,84,0
0,70,87,0
0,70,0,1
0,42,0,0
0,59,0,5
0,23,127,18
