track,note,velocity,time
1,36,100,3072
1,36,100,592
1,36,100,592
1,36,100,592
1,36,100,592
1,36,100,588
1,36,100,592
1,36,100,592
1,36,100,592
1,36,100,592
1,36,100,592
1,36,100,592
1,36,100,592
1,36,100,588
1,36,100,592
1,36,100,592
1,36,100,592
1,36,100,592
1,36,100,592
1,36,100,592
1,36,100,592
1,36,100,592
1,36,100,592
1,36,100,592
1,36,100,592
1,36,100,588
1,36,100,592
1,36,100,592
1,36,100,592
1,36,100,592
1,36,100,592
1,36,100,592
1,36,100,592
1,36,100,588
1,36,100,592
1,36,100,592
1,36,100,592
1,36,100,592
1,36,100,592
1,36,100,592
1,36,100,592
1,36,100,588
1,36,100,592
1,36,100,592
1,36,100,592
1,36,100,592
1,36,100,592
1,36,100,592
1,36,100,592
1,36,100,588
1,36,100,592
1,36,100,592
1,36,100,592
1,36,100,592
1,36,100,592
1,36,100,592
1,36,100,592
1,36,100,592
1,36,100,592
1,36,100,592
1,36,100,592
1,36,100,588
1,36,100,592
1,36,100,592
1,36,100,592
1,36,100,592
1,36,100,592
1,36,100,592
1,36,100,592
1,36,100,588
1,36,100,592
1,36,100,592
1,36,100,592
1,36,100,592
1,36,100,592
1,36,100,592
1,36,100,592
1,36,100,588
1,36,100,592
1,36,100,592
1,36,100,592
1,36,100,592
1,36,100,592
1,36,100,592
1,36,100,592
1,36,100,588
1,36,100,592
1,36,100,592
1,36,100,592
1,36,100,592
1,36,100,592
1,36,100,592
1,36,100,592
1,36,100,588
1,36,100,592
1,36,100,592
1,36,114,592
1,36,121,592
1,36,100,592
1,36,100,592
1,36,100,592
1,36,100,592
1,36,100,592
1,36,100,588
1,36,100,592
1,36,100,592
1,36,100,592
1,36,100,592
1,36,100,592
1,36,100,592
1,36,100,592
1,36,100,592
1,36,100,592
1,36,100,592
1,36,100,592
1,36,100,588
1,36,100,592
1,36,100,592
1,36,100,592
1,36,100,592
1,36,100,592
1,36,100,592
1,36,100,592
1,36,100,588
1,36,100,592
1,36,100,592
1,36,100,592
1,36,100,592
1,36,100,592
1,36,100,592
1,36,100,592
1,36,100,588
1,36,100,592
1,36,100,592
1,36,100,592
1,36,100,592
1,36,100,592
1,36,100,592
1,36,100,592
1,36,100,588
1,36,100,592
1,36,100,592
1,36,100,592
1,36,100,592
1,36,100,592
1,36,100,592
1,36,100,592
1,36,100,588
1,36,100,592
1,36,100,592
1,36,100,592
1,36,100,592
1,36,100,592
1,36,100,592
1,36,100,592
1,36,100,588
1,36,100,592
1,36,100,592
1,36,100,592
1,36,100,592
1,36,100,592
1,36,100,592
1,36,100,592
1,36,100,588
1,36,100,592
1,36,100,592
1,36,100,592
1,36,100,592
1,36,100,592
1,36,100,592
1,36,100,592
1,36,100,588
1,36,100,592
1,36,100,592
1,36,100,592
1,36,100,592
1,36,100,592
1,36,100,592
1,36,100,592
1,36,100,588
1,36,100,592
1,36,100,592
1,36,100,592
1,36,100,592
1,36,100,592
1,36,100,592
1,36,100,592
1,36,100,588
1,36,100,592
1,36,100,592
1,36,100,592
1,36,100,592
1,36,100,592
1,36,100,592
1,36,100,592
1,36,100,588
1,36,100,592
1,36,100,592
1,36,100,592
1,36,100,592
1,36,100,592
1,36,100,592
1,36,100,592
1,36,100,588
1,36,100,592
1,36,100,592
2,40,79,2992
2,40,27,128
2,40,42,16
2,40,108,0
2,40,41,16
2,40,39,144
2,40,48,12
2,40,105,80
2,40,39,0
2,40,39,144
2,40,43,16
2,40,44,16
2,40,108,0
2,40,45,16
2,40,39,144
2,40,39,16
2,40,105,80
2,40,39,336
2,40,36,16
2,40,114,0
2,40,36,20
2,40,36,144
2,40,48,16
2,40,58,16
2,40,105,0
2,40,54,16
2,40,45,144
2,40,52,16
2,40,43,16
2,40,108,0
2,40,39,16
2,40,43,144
2,40,39,16
2,40,54,16
2,40,102,0
2,40,48,16
2,40,45,144
2,40,27,124
2,40,42,16
2,40,108,0
2,40,41,16
2,40,39,144
2,40,48,12
2,40,105,80
2,40,39,0
2,40,39,144
2,40,43,16
2,40,44,16
2,40,108,0
2,40,45,16
2,40,39,144
2,40,39,16
2,40,105,80
2,40,39,336
2,40,36,16
2,40,114,0
2,40,36,20
2,40,36,144
2,40,48,16
2,40,58,16
2,40,105,0
2,40,54,16
2,40,45,144
2,40,52,16
2,40,43,16
2,40,108,0
2,40,39,16
2,40,43,144
2,40,39,16
2,40,54,16
2,40,102,0
2,40,48,16
2,40,45,144
2,40,27,124
2,40,42,16
2,40,108,0
2,40,41,16
2,40,39,144
2,40,48,12
2,40,105,80
2,40,39,0
2,40,39,144
2,40,43,16
2,40,44,16
2,40,108,0
2,40,45,16
2,40,39,144
2,40,39,16
2,40,105,80
2,40,27,336
2,40,42,16
2,40,108,0
2,40,41,16
2,40,39,144
2,40,48,12
2,40,105,80
2,40,39,0
2,40,39,144
2,40,43,16
2,40,44,16
2,40,108,0
2,40,45,16
2,40,39,144
2,40,39,16
2,40,105,80
2,40,39,336
2,40,36,16
2,40,114,0
2,40,36,20
2,40,36,144
2,40,48,16
2,40,58,16
2,40,105,0
2,40,54,16
2,40,45,144
2,40,52,16
2,40,43,16
2,40,108,0
2,40,39,16
2,40,43,144
2,40,39,16
2,40,54,16
2,40,102,0
2,40,48,16
2,40,45,144
2,40,27,124
2,40,42,16
2,38,108,64
2,40,41,16
2,40,39,24
2,40,48,12
2,38,105,80
2,40,39,128
2,40,39,16
2,40,43,16
2,40,44,16
2,38,108,64
2,40,45,16
2,40,39,16
2,40,39,16
2,38,105,80
2,40,39,336
2,40,36,16
2,38,114,64
2,40,36,20
2,40,36,16
2,40,48,16
2,40,58,16
2,38,105,64
2,40,54,16
2,40,45,16
2,40,52,16
2,40,43,16
2,38,108,64
2,40,39,16
2,40,43,16
2,40,39,16
2,40,54,16
2,38,102,64
2,40,48,16
2,40,45,16
2,40,27,124
2,40,42,16
2,38,108,64
2,40,41,16
2,40,39,24
2,40,48,12
2,38,105,80
2,40,39,128
2,40,39,16
2,40,43,16
2,40,44,16
2,38,108,64
2,40,45,16
2,40,39,16
2,40,39,16
2,38,105,80
2,40,39,336
2,40,36,16
2,38,114,64
2,40,36,20
2,40,36,16
2,40,48,16
2,40,58,16
2,38,105,64
2,40,54,16
2,40,45,16
2,40,52,16
2,40,43,16
2,38,108,64
2,40,39,16
2,40,43,16
2,40,39,16
2,40,54,16
2,38,102,64
2,40,48,16
2,40,45,16
2,40,27,124
2,40,42,16
2,40,108,0
2,40,41,16
2,40,39,144
2,40,48,12
2,40,105,80
2,40,39,0
2,40,39,144
2,40,43,16
2,40,44,16
2,40,108,0
2,40,45,16
2,40,39,144
2,40,39,16
2,40,105,80
2,40,39,336
2,40,36,16
2,40,114,0
2,40,36,20
2,40,36,144
2,40,48,16
2,40,58,16
2,40,105,0
2,40,54,16
2,40,45,144
2,40,52,16
2,40,43,16
2,40,108,0
2,40,39,16
2,40,43,144
2,40,39,16
2,40,54,16
2,40,102,0
2,40,48,16
2,40,45,144
2,40,27,124
2,40,42,16
2,40,108,0
2,40,41,16
2,40,39,144
2,40,48,12
2,40,105,80
2,40,39,0
2,40,39,144
2,40,43,16
2,40,44,16
2,40,108,0
2,40,45,16
2,40,39,144
2,40,39,16
2,40,105,80
2,40,27,336
2,40,42,16
2,40,108,0
2,40,41,16
2,40,39,144
2,40,48,12
2,40,105,80
2,40,39,0
2,40,39,144
2,40,43,16
2,40,44,16
2,40,108,0
2,40,45,16
2,40,39,144
2,40,39,16
2,40,105,80
2,40,39,336
2,40,36,16
2,40,114,0
2,40,36,20
2,40,36,144
2,40,48,16
2,40,58,16
2,40,105,0
2,40,54,16
2,40,45,144
2,40,52,16
2,40,43,16
2,40,108,0
2,40,39,16
2,40,43,144
2,40,39,16
2,40,54,16
2,40,102,0
2,40,48,16
2,40,45,144
2,40,27,124
2,40,42,16
2,38,108,64
2,40,41,16
2,40,39,24
2,40,48,12
2,38,105,80
2,40,39,128
2,40,39,16
2,40,43,16
2,40,44,16
2,38,108,64
2,40,45,16
2,40,39,16
2,40,39,16
2,38,105,80
2,40,39,336
2,40,36,16
2,38,114,64
2,40,36,20
2,40,36,16
2,40,48,16
2,40,58,16
2,38,105,64
2,40,54,16
2,40,45,16
2,40,52,16
2,40,43,16
2,38,108,64
2,40,39,16
2,40,43,16
2,40,39,16
2,40,54,16
2,38,102,64
2,40,48,16
2,40,45,16
2,40,27,124
2,40,42,16
2,38,108,64
2,40,41,16
2,40,39,24
2,40,48,12
2,38,105,80
2,40,39,128
2,40,39,16
2,40,43,16
2,40,44,16
2,38,108,64
2,40,45,16
2,40,39,16
2,40,39,16
2,38,105,80
2,40,39,336
2,40,36,16
2,38,114,64
2,40,36,20
2,40,36,16
2,40,48,16
2,40,58,16
2,38,105,64
2,40,54,16
2,40,45,16
2,40,52,16
2,40,43,16
2,38,108,64
2,40,39,16
2,40,43,16
2,40,39,16
2,40,54,16
2,38,102,64
2,40,48,16
2,40,45,16
2,40,27,124
2,40,42,16
2,40,108,0
2,40,41,16
2,40,39,144
2,40,48,12
2,40,105,80
2,40,39,0
2,40,39,144
2,40,43,16
2,40,44,16
2,40,108,0
2,40,45,16
2,40,39,144
2,40,39,16
2,40,105,80
2,40,39,336
2,40,36,16
2,40,114,0
2,40,36,20
2,40,36,144
2,40,48,16
2,40,58,16
2,40,105,0
2,40,54,16
2,40,45,144
2,40,52,16
2,40,43,16
2,40,108,0
2,40,39,16
2,40,43,144
2,40,39,16
2,40,54,16
2,40,102,0
2,40,48,16
2,40,45,144
2,40,27,124
2,40,42,16
2,40,108,0
2,40,41,16
2,40,39,144
2,40,48,12
2,40,105,80
2,40,39,0
2,40,39,144
2,40,43,16
2,40,44,16
2,40,108,0
2,40,45,16
2,40,39,144
2,40,39,16
2,40,105,80
2,40,39,336
2,40,36,16
2,40,114,0
2,40,36,20
2,40,36,144
2,40,48,16
2,40,58,16
2,40,105,0
2,40,54,16
2,40,45,144
2,40,52,16
2,40,43,16
2,40,108,0
2,40,39,16
2,40,43,144
2,40,39,16
2,40,54,16
2,40,102,0
2,40,48,16
2,40,45,144
2,40,52,124
2,40,43,16
2,40,108,0
2,40,39,16
2,40,43,144
2,40,39,16
2,40,54,16
2,40,102,0
2,40,48,16
2,40,45,144
2,40,27,124
2,40,42,16
2,40,108,0
2,40,41,16
2,40,39,144
2,40,48,12
2,40,105,80
2,40,39,0
2,40,39,144
2,40,43,16
2,40,44,16
2,40,108,0
2,40,45,16
2,40,39,144
2,40,39,16
2,40,105,80
2,40,39,336
2,40,36,16
2,40,114,0
2,40,36,20
2,40,36,144
2,40,48,16
2,40,58,16
2,40,105,0
2,40,54,16
2,40,45,144
2,40,52,16
2,40,43,16
2,40,108,0
2,40,39,16
2,40,43,144
2,40,39,16
2,40,54,16
2,40,102,0
2,40,48,16
2,40,45,144
2,40,27,124
2,40,42,16
2,40,108,0
2,40,41,16
2,40,39,144
2,40,48,12
2,40,105,80
2,40,39,0
2,40,39,144
2,40,43,16
2,40,44,16
2,40,108,0
2,40,45,16
2,40,39,144
2,40,39,16
2,40,105,80
2,40,27,336
2,40,42,16
2,40,108,0
2,40,41,16
2,40,39,144
2,40,48,12
2,40,105,80
2,40,39,0
2,40,39,144
2,40,43,16
2,40,44,16
2,40,108,0
2,40,45,16
2,40,39,144
2,40,39,16
2,40,105,80
2,40,39,336
2,40,36,16
2,40,114,0
2,40,36,20
2,40,36,144
2,40,48,16
2,40,58,16
2,40,105,0
2,40,54,16
2,40,45,144
2,40,52,16
2,40,43,16
2,40,108,0
2,40,39,16
2,40,43,144
2,40,39,16
2,40,54,16
2,40,102,0
2,40,48,16
2,40,45,144
2,40,27,124
2,40,42,16
2,38,108,64
2,40,41,16
2,40,39,24
2,40,48,12
2,38,105,80
2,40,39,128
2,40,39,16
2,40,43,16
2,40,44,16
2,38,108,64
2,40,45,16
2,40,39,16
2,40,39,16
2,38,105,80
2,40,39,336
2,40,36,16
2,38,114,64
2,40,36,20
2,40,36,16
2,40,48,16
2,40,58,16
2,38,105,64
2,40,54,16
2,40,45,16
2,40,52,16
2,40,43,16
2,38,108,64
2,40,39,16
2,40,43,16
2,40,39,16
2,40,54,16
2,38,102,64
2,40,48,16
2,40,45,16
2,40,27,124
2,40,42,16
2,38,108,64
2,40,41,16
2,40,39,24
2,40,48,12
2,38,105,80
2,40,39,128
2,40,39,16
2,40,43,16
2,40,44,16
2,38,108,64
2,40,45,16
2,40,39,16
2,40,39,16
2,38,105,80
2,40,39,336
2,40,36,16
2,38,114,64
2,40,36,20
2,40,36,16
2,40,48,16
2,40,58,16
2,38,105,64
2,40,54,16
2,40,45,16
2,40,52,16
2,40,43,16
2,38,108,64
2,40,39,16
2,40,43,16
2,40,39,16
2,40,54,16
2,38,102,64
2,40,48,16
2,40,45,16
2,40,27,124
2,40,42,16
2,38,108,64
2,40,41,16
2,40,39,24
2,40,48,12
2,38,105,80
2,40,39,128
2,40,39,16
2,40,43,16
2,40,44,16
2,38,108,64
2,40,45,16
2,40,39,16
2,40,39,16
2,38,105,80
2,40,39,336
2,40,36,16
2,38,114,64
2,40,36,20
2,40,36,16
2,40,48,16
2,40,58,16
2,38,105,64
2,40,54,16
2,40,45,16
2,40,52,16
2,40,43,16
2,38,108,64
2,40,39,16
2,40,43,16
2,40,39,16
2,40,54,16
2,38,102,64
2,40,48,16
2,40,45,16
2,40,27,124
2,40,42,16
2,38,108,64
2,40,41,16
2,40,39,24
2,40,48,12
2,38,105,80
2,40,39,128
2,40,39,16
2,40,43,16
2,40,44,16
2,38,108,64
2,40,45,16
2,40,39,16
2,40,39,16
2,38,105,80
2,40,39,336
2,40,36,16
2,38,114,64
2,40,36,20
2,40,36,16
2,40,48,16
2,40,58,16
2,38,105,64
2,40,54,16
2,40,45,16
2,40,52,16
2,40,43,16
2,38,108,64
2,40,39,16
2,40,43,16
2,40,39,16
2,40,54,16
2,38,102,64
2,40,48,16
2,40,45,16
2,40,27,124
2,40,42,16
2,38,108,64
2,40,41,16
2,40,39,24
2,40,48,12
2,38,105,80
2,40,39,128
2,40,39,16
2,40,43,16
2,40,44,16
2,38,108,64
2,40,45,16
2,40,39,16
2,40,39,16
2,38,105,80
2,40,39,336
2,40,36,16
2,38,114,64
2,40,36,20
2,40,36,16
2,40,48,16
2,40,58,16
2,38,105,64
2,40,54,16
2,40,45,16
2,40,52,16
2,40,43,16
2,38,108,64
2,40,39,16
2,40,43,16
2,40,39,16
2,40,54,16
2,38,102,64
2,40,48,16
2,40,45,16
2,40,27,124
2,40,42,16
2,38,108,64
2,40,41,16
2,40,39,24
2,40,48,12
2,38,105,80
2,40,39,128
2,40,39,16
2,40,43,16
2,40,44,16
2,38,108,64
2,40,45,16
2,40,39,16
2,40,39,16
2,38,105,80
2,40,39,336
2,40,36,16
2,38,114,64
2,40,36,20
2,40,36,16
2,40,48,16
2,40,58,16
2,38,105,64
2,40,54,16
2,40,45,16
2,40,52,16
2,40,43,16
2,38,108,64
2,40,39,16
2,40,43,16
2,40,39,16
2,40,54,16
2,38,102,64
2,40,48,16
2,40,45,16
2,40,27,124
2,40,42,16
2,38,108,64
2,40,41,16
2,40,39,24
2,40,48,12
2,38,105,80
2,40,39,128
2,40,39,16
2,40,43,16
2,40,44,16
2,38,108,64
2,40,45,16
2,40,39,16
2,40,39,16
2,38,105,80
2,40,39,336
2,40,36,16
2,38,114,64
2,40,36,20
2,40,36,16
2,40,48,16
2,40,58,16
2,38,105,64
2,40,54,16
2,40,45,16
2,40,52,16
2,40,43,16
2,38,108,64
2,40,39,16
2,40,43,16
2,40,39,16
2,40,54,16
2,38,102,64
2,40,48,16
2,40,45,16
2,40,27,124
2,40,42,16
2,38,108,64
2,40,41,16
2,40,39,24
2,40,48,12
2,38,105,80
2,40,39,128
2,40,39,16
2,40,43,16
2,40,44,16
2,38,108,64
2,40,45,16
2,40,39,16
2,40,39,16
