track,note,velocity,time
3,64,115,3547
3,64,0,47
3,66,84,1
3,66,0,72
3,69,104,24
3,69,0,229
3,64,110,11
3,64,0,47
3,69,100,1
3,69,0,67
3,71,94,30
3,71,0,165
3,69,115,74
3,69,0,47
3,71,100,1
3,71,0,61
3,73,90,35
3,73,0,92
3,74,108,4
3,74,0,91
3,76,106,5
3,73,88,97
3,76,0,6
3,73,0,43
3,73,96,45
3,71,88,46
3,73,0,11
3,71,0,174
3,64,92,59
3,66,86,48
3,64,0,16
3,69,108,32
3,66,0,5
3,69,0,139
3,64,88,47
3,64,0,20
3,64,106,28
3,69,106,48
3,64,0,22
3,69,0,74
3,71,110,0
3,74,102,96
3,71,0,10
3,73,82,86
3,74,0,9
3,71,98,88
3,73,0,9
3,71,0,35
3,78,114,51
3,78,0,142
3,76,102,3
3,76,0,242
3,64,104,237
3,66,86,49
3,64,0,9
3,66,0,75
3,69,100,12
3,69,0,221
3,64,100,19
3,64,0,48
3,69,100,0
3,69,0,96
3,71,100,0
3,71,0,96
3,69,117,143
3,71,110,49
3,69,0,22
3,71,0,39
3,73,102,35
3,74,98,96
3,73,0,1
3,74,0,92
3,76,98,3
3,73,108,96
3,76,0,8
3,73,0,43
3,73,96,44
3,71,108,49
3,73,0,7
3,71,0,145
3,64,98,88
3,66,82,48
3,64,0,15
3,69,104,33
3,66,0,13
3,69,0,164
3,64,104,62
3,69,110,49
3,64,0,24
3,69,0,45
3,71,110,27
3,71,0,91
3,74,108,5
3,73,100,96
3,74,0,9
3,71,90,87
3,73,0,2
3,71,0,45
3,78,116,48
3,78,0,141
3,76,100,4
3,76,0,276
3,69,115,299
3,69,0,40
3,69,114,9
3,69,0,153
3,78,104,86
3,78,0,89
3,81,98,6
3,80,110,49
3,81,0,17
3,80,0,114
3,76,88,14
3,76,0,139
3,76,108,52
3,76,0,27
3,76,112,21
3,76,0,48
3,78,80,0
3,78,0,90
3,76,98,6
3,78,92,48
3,76,0,8
3,78,0,68
3,69,108,21
3,71,92,48
3,69,0,12
3,73,88,37
3,71,0,19
3,73,0,44
3,76,108,32
3,76,0,190
3,71,114,49
3,73,100,48
3,71,0,6
3,73,0,22
3,73,88,20
3,71,78,48
3,73,0,9
3,71,0,70
3,71,102,18
3,71,0,350
3,66,108,177
3,64,74,48
3,66,0,8
3,66,84,40
3,64,0,5
3,66,0,41
3,64,94,2
3,64,0,62
3,64,98,35
3,64,0,357
3,64,104,75
3,66,84,95
3,64,0,6
3,69,104,43
3,66,0,9
3,69,0,479
3,73,106,135
3,73,0,61
3,73,92,35
3,73,0,28
3,73,82,21
3,73,0,22
3,73,100,26
3,74,106,48
3,73,0,6
3,74,0,36
3,74,86,53
3,74,0,299
3,71,110,229
3,71,0,89
3,76,106,8
3,76,0,105
3,76,112,39
3,76,0,99
3,76,96,44
3,76,0,47
3,76,104,50
3,74,104,48
3,76,0,10
3,74,0,46
3,74,106,40
3,74,0,130
3,76,102,13
3,74,104,48
3,76,0,6
3,74,0,139
3,73,86,0
3,73,0,76
3,73,90,19
3,74,100,49
3,73,0,11
3,74,0,59
3,73,94,27
3,73,0,213
3,73,110,26
3,76,110,95
3,73,0,5
3,76,0,79
3,78,104,205
3,81,102,95
3,78,0,18
3,80,115,31
3,81,0,17
3,80,0,83
3,76,90,44
3,76,0,146
3,76,94,45
3,76,0,27
3,76,96,21
3,78,121,48
3,76,0,3
3,76,104,93
3,78,0,1
3,78,121,47
3,76,0,14
3,78,0,46
3,69,120,37
3,71,94,48
3,69,0,7
3,73,96,41
3,71,0,8
3,73,0,123
3,76,106,13
3,76,0,150
3,71,98,41
3,73,96,48
3,71,0,7
3,73,0,23
3,73,96,18
3,71,74,48
3,73,0,8
3,71,0,51
3,71,100,38
3,73,86,143
3,71,0,53
3,73,0,12
3,74,112,31
3,74,0,141
3,73,102,4
3,73,0,108
3,71,104,35
3,71,0,46
3,69,102,2
3,69,0,32
3,69,98,16
3,69,0,417
3,64,116,928
3,66,86,48
3,64,0,2
3,66,0,94
3,69,104,0
3,69,0,235
3,64,112,5
3,64,0,48
3,69,114,0
3,69,0,80
3,71,92,18
3,71,0,191
3,69,116,47
3,71,106,48
3,69,0,14
3,71,0,66
3,73,94,15
3,74,98,97
3,73,0,13
3,74,0,81
3,76,98,2
3,73,76,96
3,76,0,3
3,73,0,63
3,73,82,30
3,73,0,48
3,71,86,0
3,71,0,189
3,64,106,51
3,66,84,48
3,64,0,4
3,69,98,44
3,66,0,15
3,69,0,144
3,64,108,32
3,64,0,23
3,64,86,25
3,69,104,48
3,64,0,16
3,69,0,78
3,71,96,2
3,71,0,97
3,74,96,0
3,73,86,95
3,74,0,1
3,71,102,95
3,73,0,3
3,78,94,94
3,71,0,21
3,78,0,123
3,76,73,0
3,76,0,273
3,64,106,206
3,64,0,48
3,66,84,1
3,69,94,95
3,66,0,1
3,69,0,187
3,64,110,52
3,69,98,49
3,64,0,17
3,69,0,65
3,71,96,14
3,71,0,161
3,69,117,78
3,69,0,48
3,71,112,1
3,73,94,95
3,71,0,1
3,74,98,95
3,73,0,16
3,76,102,81
3,74,0,1
3,73,88,94
3,76,0,11
3,73,0,44
3,73,100,41
3,71,108,49
3,73,0,8
3,71,0,202
3,64,102,30
3,66,82,48
3,64,0,5
3,69,94,42
3,66,0,8
3,69,0,170
3,64,104,15
3,64,0,32
3,64,108,15
3,64,0,48
3,69,86,1
3,69,0,84
3,71,102,12
3,71,0,72
3,74,112,24
3,74,0,81
3,73,90,14
3,71,98,96
3,73,0,6
3,71,0,81
3,78,90,10
3,78,0,144
3,76,106,0
3,76,0,249
3,69,106,326
3,69,0,33
3,69,104,15
3,69,0,190
3,78,100,51
3,81,106,95
3,78,0,1
3,80,86,48
3,81,0,21
3,80,0,123
3,76,108,0
3,76,0,215
3,78,114,72
3,76,80,96
3,78,0,8
3,78,112,40
3,76,0,11
3,69,90,85
3,78,0,2
3,71,110,47
3,69,0,20
3,73,102,28
3,71,0,10
3,73,0,125
3,76,102,9
3,71,102,143
3,71,0,18
3,76,0,14
3,71,108,17
3,71,0,22
3,71,114,26
3,71,0,36
3,73,110,12
3,71,96,48
3,73,0,3
3,71,0,55
3,71,98,38
3,71,0,206
3,66,121,322
3,64,106,47
3,66,0,2
3,66,110,47
3,64,0,9
3,66,0,38
3,64,90,0
3,64,0,52
3,64,86,44
3,64,0,269
3,64,114,164
3,66,86,96
3,64,0,12
3,69,106,36
3,66,0,12
3,69,0,440
3,73,94,171
3,73,0,65
3,73,84,31
3,73,0,25
3,73,84,23
3,73,0,24
3,73,88,24
3,74,102,49
3,73,0,3
3,74,0,37
3,74,104,56
3,74,0,326
3,71,90,201
3,71,0,76
3,76,110,20
3,76,0,107
3,76,116,38
3,76,0,91
3,76,100,54
3,76,0,35
3,76,100,59
3,74,112,49
3,76,0,14
3,74,0,24
3,74,116,58
3,74,0,141
3,76,98,3
3,76,0,43
3,74,114,5
3,74,0,130
3,73,102,13
3,73,0,66
3,73,90,30
3,74,108,49
3,73,0,3
3,74,0,89
3,73,86,4
3,73,0,147
3,73,90,92
3,76,92,96
3,73,0,19
3,76,0,35
3,78,102,234
3,81,100,96
3,78,0,10
3,80,115,38
3,81,0,13
3,80,0,131
3,76,102,1
3,76,0,162
3,76,104,28
3,76,0,32
3,76,102,17
3,76,0,41
3,78,119,7
3,76,96,96
3,78,0,6
3,78,117,43
3,76,0,13
3,78,0,22
3,69,90,61
3,71,104,48
3,69,0,23
3,71,0,24
3,73,102,3
3,73,0,96
3,76,102,46
3,76,0,146
3,71,96,45
3,73,78,48
3,71,0,5
3,73,0,28
3,73,90,15
3,71,100,49
3,73,0,9
3,71,0,18
3,71,102,69
3,73,106,143
3,71,0,23
3,73,0,63
3,74,108,10
3,74,0,140
3,73,106,5
3,73,0,134
3,71,110,10
3,71,0,43
3,69,86,4
3,69,0,31
3,69,98,18
3,69,0,374
3,76,100,297
3,76,0,24
3,76,104,24
3,76,0,42
3,79,110,8
3,79,0,78
3,79,96,17
3,79,0,29
3,79,114,19
3,79,0,89
3,76,104,7
3,76,0,65
3,76,118,31
3,74,102,48
3,76,0,9
3,74,0,16
3,74,78,23
3,74,0,48
3,74,106,48
3,74,0,71
3,73,108,25
3,73,0,32
3,73,112,15
3,73,0,28
3,74,106,21
3,74,0,30
3,74,114,18
3,74,0,65
3,76,102,31
3,76,0,48
3,76,112,0
3,76,0,199
3,76,108,329
3,76,0,26
3,76,108,21
3,76,0,32
3,79,115,17
3,79,0,66
3,79,104,29
3,79,0,30
3,79,106,19
3,79,0,81
3,76,114,14
3,76,0,39
3,76,106,57
3,74,94,49
3,76,0,6
3,74,0,25
3,74,106,16
3,74,0,57
3,74,116,39
3,74,0,111
3,73,98,33
3,73,0,35
3,74,116,13
3,74,0,29
3,76,114,19
3,76,0,42
3,76,118,8
3,76,0,60
3,76,119,36
3,76,0,299
3,76,106,227
3,76,0,67
3,78,110,30
3,73,104,95
3,78,0,7
3,73,0,23
3,73,117,19
3,73,0,92
3,78,92,3
3,78,0,100
3,76,108,44
3,73,84,49
3,76,0,11
3,73,0,81
3,73,96,51
3,66,82,96
3,73,0,16
3,69,96,32
3,66,0,8
3,71,106,41
3,69,0,13
3,73,86,35
3,71,0,8
3,71,61,40
3,73,0,15
3,69,92,32
3,71,0,7
3,71,108,42
3,69,0,8
3,69,112,40
3,71,0,2
3,69,0,68
3,71,110,26
3,71,0,188
3,66,108,148
3,69,100,48
3,66,0,7
3,73,94,41
3,69,0,72
3,71,98,24
3,73,0,2
3,71,0,22
3,71,114,24
3,69,98,96
3,71,0,1
3,66,86,47
3,69,0,1
3,69,94,46
3,66,0,8
3,73,80,40
3,71,102,48
3,69,0,10
3,73,0,4
3,71,0,21
3,71,112,13
3,71,0,26
3,71,108,22
3,71,0,130
3,78,114,113
3,78,0,124
3,81,119,17
3,81,0,103
3,83,114,40
3,83,0,236
3,64,100,53
3,66,78,48
3,64,0,17
3,66,0,79
3,69,96,1
3,69,0,157
3,64,96,82
3,69,104,49
3,64,0,19
3,71,90,77
3,69,0,8
3,71,0,114
3,69,94,117
3,71,104,48
3,69,0,14
3,71,0,80
3,73,94,3
3,74,104,96
3,73,0,9
3,74,0,82
3,76,104,5
3,73,86,96
3,76,0,10
3,73,0,47
3,73,100,38
3,73,0,48
3,71,61,1
3,71,0,134
3,64,94,106
3,66,82,48
3,64,0,22
3,69,102,25
3,66,0,1
3,69,0,178
3,64,92,60
3,69,106,49
3,64,0,20
3,71,100,76
3,69,0,16
3,74,104,81
3,71,0,2
3,73,92,94
3,74,0,4
3,71,100,92
3,73,0,2
3,78,102,94
3,71,0,16
3,78,0,120
3,76,96,8
3,76,0,246
3,64,88,184
3,64,0,28
3,64,100,20
3,66,86,49
3,64,0,20
3,69,96,76
3,66,0,3
3,69,0,171
3,64,98,67
3,69,102,48
3,64,0,20
3,71,90,76
3,69,0,4
3,71,0,110
3,69,100,77
3,69,0,25
3,69,104,23
3,71,98,48
3,69,0,13
3,73,88,84
3,71,0,10
3,74,104,86
3,73,0,14
3,74,0,77
3,76,100,5
3,73,86,96
3,76,0,15
3,73,0,41
3,73,84,39
3,71,90,49
3,73,0,13
3,71,0,161
3,64,90,66
3,66,84,48
3,64,0,20
3,66,0,28
3,69,100,0
3,69,0,186
3,64,104,53
3,69,106,49
3,64,0,17
3,71,110,78
3,69,0,7
3,74,104,89
3,71,0,5
3,73,88,92
3,74,0,12
3,71,100,83
3,73,0,3
3,78,86,93
3,71,0,8
3,78,0,130
3,76,88,7
3,76,0,316
3,69,106,260
3,69,0,23
3,69,107,27
3,69,0,147
3,78,92,90
3,78,0,94
3,81,110,2
3,80,86,49
3,81,0,13
3,80,0,121
3,76,104,10
3,76,0,163
3,76,104,28
3,76,0,33
3,76,106,15
3,78,94,48
3,76,0,8
3,76,92,89
3,78,0,9
3,78,100,39
3,76,0,19
3,78,0,62
3,69,88,14
3,71,104,48
3,69,0,15
3,73,100,33
3,71,0,10
3,73,0,130
3,76,106,5
3,71,110,191
3,76,0,17
3,73,112,31
3,71,0,7
3,73,0,20
3,73,94,21
3,71,90,48
3,73,0,4
3,71,0,70
3,71,94,23
3,71,0,229
3,64,94,251
3,66,90,49
3,64,0,18
3,66,0,26
3,64,78,3
3,66,86,48
3,64,0,4
3,64,94,44
3,66,0,5
3,64,0,59
3,64,92,32
3,64,0,218
3,64,104,214
3,66,86,95
3,64,0,11
3,69,104,38
3,66,0,11
3,69,0,317
3,73,88,295
3,73,0,64
3,73,88,32
3,73,0,29
3,73,86,19
3,73,0,24
3,73,98,24
3,74,100,48
3,73,0,9
3,74,0,43
3,74,112,45
3,74,0,333
3,71,86,194
3,71,0,90
3,76,110,6
3,76,0,106
3,76,104,38
3,76,0,114
3,76,102,31
3,76,0,42
3,76,90,53
3,74,102,49
3,76,0,9
3,74,0,36
3,74,115,51
3,74,0,129
3,76,94,14
3,74,114,49
3,76,0,8
3,74,0,134
3,73,88,2
3,73,0,59
3,73,90,36
3,74,102,49
3,73,0,13
3,74,0,81
3,73,88,2
3,73,0,175
3,73,90,64
3,76,106,96
3,73,0,13
3,76,0,55
3,78,96,219
3,81,96,97
3,78,0,16
3,80,100,32
3,81,0,9
3,80,0,135
3,76,92,1
3,76,0,127
3,76,112,64
3,76,0,29
3,76,106,19
3,78,102,48
3,76,0,8
3,76,100,88
3,78,0,11
3,78,98,37
3,76,0,14
3,78,0,53
3,69,90,30
3,71,86,48
3,69,0,11
3,73,80,37
3,71,0,18
3,73,0,121
3,76,88,5
3,76,0,157
3,71,92,34
3,73,59,49
3,71,0,10
3,73,0,16
3,73,88,21
3,73,0,48
3,71,96,0
3,71,0,65
3,71,102,31
3,71,0,134
3,73,84,9
3,73,0,94
3,74,108,4
3,74,0,135
3,73,90,9
3,73,0,140
3,71,100,4
3,69,100,47
3,71,0,4
3,69,0,44
3,69,102,1
3,69,0,288
3,71,122,288
3,73,102,95
3,71,0,13
3,75,119,36
3,73,0,13
3,75,0,386
3,75,110,224
3,75,0,63
3,75,86,34
3,75,0,30
3,75,88,17
3,75,0,25
3,75,96,24
3,76,106,48
3,75,0,15
3,76,0,41
3,76,114,40
3,76,0,351
3,73,96,177
3,73,0,94
3,78,96,1
3,78,0,112
3,78,116,33
3,78,0,89
3,78,120,55
3,78,0,45
3,78,112,50
3,76,106,49
3,78,0,12
3,76,0,39
3,76,114,45
3,78,86,143
3,76,0,4
3,76,92,44
3,78,0,11
3,76,0,133
3,75,102,0
3,75,0,64
3,75,94,32
3,76,115,49
3,75,0,14
3,76,0,69
3,75,84,11
3,75,0,152
3,75,108,89
3,78,110,96
3,75,0,3
3,78,0,64
3,80,118,222
3,83,110,96
3,80,0,11
3,82,92,37
3,83,0,14
3,82,0,130
3,78,88,0
3,78,0,156
3,78,108,35
3,78,0,22
3,78,92,26
3,80,117,48
3,78,0,7
3,78,96,89
3,80,0,7
3,80,117,41
3,78,0,10
3,80,0,40
3,71,118,46
3,73,110,48
3,71,0,17
3,75,117,32
3,73,0,20
3,75,0,124
3,78,102,0
3,78,0,155
3,73,106,37
3,73,0,45
3,75,104,3
3,75,0,48
3,75,98,0
3,73,71,47
3,75,0,1
3,73,0,61
3,73,86,34
3,73,0,139
3,75,98,5
3,75,0,72
3,76,114,25
3,76,0,135
3,75,98,8
3,75,0,138
3,73,106,7
3,73,0,46
3,71,104,2
3,71,0,31
3,71,100,17
3,71,0,287
3,73,127,290
3,73,0,94
3,75,112,1
3,75,0,40
3,77,117,8
3,77,0,253
3,77,121,370
3,77,0,70
3,77,120,27
3,77,0,22
3,77,119,26
3,77,0,21
3,77,121,27
3,77,0,41
3,78,90,7
3,78,0,60
3,78,119,36
3,78,0,328
3,75,112,199
3,75,0,89
3,80,106,7
3,80,0,120
3,80,115,24
3,80,0,102
3,80,112,43
3,80,0,43
3,80,118,52
3,78,100,49
3,80,0,13
3,78,0,53
