track,note,velocity,time
1,61,127,10431
1,61,118,19
1,61,127,11
1,59,123,21
1,57,109,24
1,59,127,25
1,57,91,38
1,61,127,32
1,57,119,32
1,57,78,18
1,59,127,19
1,57,127,26
1,61,127,23
1,61,127,168
1,61,127,17
1,61,127,9
1,61,127,15
1,59,127,18
1,57,127,22
1,59,127,22
1,57,127,22
1,61,127,35
1,59,127,21
1,57,127,23
1,56,127,25
1,54,127,26
1,54,127,501
1,56,127,9
1,54,127,17
1,54,127,172
1,56,116,20
1,54,127,24
1,54,127,165
1,56,119,20
1,54,127,25
1,54,127,855
1,57,127,41
1,59,127,23
1,57,127,26
1,56,127,26
1,54,127,29
1,57,127,377
1,56,127,10
1,54,127,11
1,57,127,49
1,56,127,12
1,54,127,21
1,57,127,45
1,56,127,7
1,54,127,6
1,61,127,1663
1,61,118,19
1,61,127,11
1,59,123,21
1,57,109,24
1,59,127,25
1,57,91,38
1,61,127,32
1,57,119,32
1,57,78,18
1,59,127,19
1,57,127,26
1,61,127,23
1,61,127,168
1,61,127,17
1,61,127,9
1,61,127,15
1,59,127,18
1,57,127,22
1,59,127,22
1,57,127,22
1,61,127,35
1,59,127,21
1,57,127,23
1,56,127,25
1,54,127,26
1,54,127,577
1,56,70,9
1,54,127,17
1,54,127,177
1,56,116,15
1,54,127,25
1,54,127,163
1,56,90,21
1,54,127,17
1,66,118,1522
1,64,111,10
1,66,127,14
1,64,64,14
1,66,127,17
1,69,127,19
1,66,127,24
1,69,127,12
1,66,127,9
1,66,127,11
1,64,127,16
1,66,127,13
1,61,126,317
1,66,127,4
1,64,127,9
1,66,127,17
1,66,127,14
1,66,127,12
1,64,127,17
1,66,127,21
1,68,127,24
1,66,127,26
1,64,127,615
1,66,127,19
1,64,127,19
1,66,127,23
1,64,127,20
1,66,127,13
1,66,127,13
1,66,127,190
1,66,127,20
1,69,127,11
1,66,127,10
1,66,127,12
1,64,127,19
1,66,127,14
1,61,127,263
1,66,127,15
1,62,127,13
1,62,127,17
1,62,127,15
1,62,127,10
1,64,127,48
1,66,127,14
1,66,127,70
1,65,127,15
1,65,127,15
1,65,127,14
1,65,127,16
1,66,127,16
1,68,127,13
1,66,127,83
1,68,127,23
1,66,127,221
1,66,127,25
1,64,125,18
1,61,127,6
1,61,127,22
1,66,127,27
1,66,127,40
1,64,120,100
1,61,127,13
1,66,127,193
1,66,127,17
1,66,127,15
1,64,127,24
1,61,127,10
1,61,127,20
1,66,127,89
1,69,127,29
1,71,127,100
1,69,127,28
1,68,127,19
1,66,127,19
1,66,127,421
1,66,127,81
1,73,127,22
1,71,127,24
1,71,127,21
1,66,127,55
1,62,127,34
1,61,127,27
1,66,127,655
1,69,127,19
1,71,127,18
1,69,127,19
1,68,127,22
1,66,127,25
1,66,127,401
1,66,127,100
1,73,127,13
1,71,127,23
1,71,127,25
1,66,127,78
1,62,127,1
1,61,127,28
1,61,127,1519
1,61,118,19
1,61,127,11
1,59,123,21
1,57,109,24
1,59,127,25
1,57,91,38
1,61,127,32
1,57,119,32
1,57,78,18
1,59,127,19
1,57,127,26
1,61,127,23
1,61,127,168
1,61,127,17
1,61,127,9
1,61,127,15
1,59,127,18
1,57,127,22
1,59,127,22
1,57,127,22
1,61,127,35
1,59,127,21
1,57,127,23
1,56,127,25
1,54,127,26
1,54,127,501
1,56,127,9
1,54,127,17
1,54,127,172
1,56,116,20
1,54,127,24
1,54,127,165
1,56,119,20
1,54,127,25
1,54,127,855
1,57,127,41
1,59,127,23
1,57,127,26
1,56,127,26
1,54,127,29
1,57,127,377
1,56,127,10
1,54,127,11
1,57,127,49
1,56,127,12
1,54,127,21
1,57,127,45
1,56,127,7
1,54,127,6
1,61,127,1663
1,61,118,19
1,61,127,11
1,59,123,21
1,57,109,24
1,59,127,25
1,57,91,38
1,61,127,32
1,57,119,32
1,57,78,18
1,59,127,19
1,57,127,26
1,61,127,23
1,61,127,168
1,61,127,17
1,61,127,9
1,61,127,15
1,59,127,18
1,57,127,22
1,59,127,22
1,57,127,22
1,61,127,35
1,59,127,21
1,57,127,23
1,56,127,25
1,54,127,26
1,54,127,577
1,56,70,9
1,54,127,17
1,54,127,177
1,56,116,15
1,54,127,25
1,54,127,163
1,56,90,21
1,54,127,17
1,66,118,1522
1,64,111,10
1,66,127,14
1,64,64,14
1,66,127,17
1,69,127,19
1,66,127,24
1,69,127,12
1,66,127,9
1,66,127,11
1,64,127,16
1,66,127,13
1,61,126,317
1,66,127,4
1,64,127,9
1,66,127,17
1,66,127,14
1,66,127,12
1,64,127,17
1,66,127,21
1,68,127,24
1,66,127,26
1,64,127,615
1,66,127,19
1,64,127,19
1,66,127,23
1,64,127,20
1,66,127,13
1,66,127,13
1,66,127,190
1,66,127,20
1,69,127,11
1,66,127,10
1,66,127,12
1,64,127,19
1,66,127,14
1,61,127,263
1,66,127,15
1,62,127,13
1,62,127,17
1,62,127,15
1,62,127,10
1,64,127,48
1,66,127,14
1,66,127,70
1,65,127,15
1,65,127,15
1,65,127,14
1,65,127,16
1,66,127,16
1,68,127,13
1,66,127,83
1,68,127,23
1,66,127,221
1,66,127,25
1,64,125,18
1,61,127,6
1,61,127,22
1,66,127,27
1,66,127,40
1,64,120,100
1,61,127,13
1,66,127,193
1,66,127,17
1,66,127,15
1,64,127,24
1,61,127,10
1,61,127,20
1,66,127,89
1,69,127,29
1,71,127,100
1,69,127,28
1,68,127,19
1,66,127,19
1,66,127,421
1,66,127,81
1,73,127,22
1,71,127,24
1,71,127,21
1,66,127,55
1,62,127,34
1,61,127,27
1,66,127,1522
1,66,127,25
1,64,125,18
1,61,127,6
1,61,127,22
1,66,127,27
1,66,127,40
1,64,120,100
1,61,127,13
1,66,127,193
1,66,127,17
1,66,127,15
1,64,127,24
1,61,127,10
1,61,127,20
1,66,127,89
1,69,127,29
1,71,127,100
1,69,127,28
1,68,127,19
1,66,127,19
1,66,127,421
1,66,127,81
1,73,127,22
1,71,127,24
1,71,127,21
1,66,127,55
1,62,127,34
1,61,127,27
1,66,127,655
1,69,127,19
1,71,127,18
1,69,127,19
1,68,127,22
1,66,127,25
1,66,127,401
1,66,127,100
1,73,127,13
1,71,127,23
1,71,127,25
1,66,127,78
1,62,127,1
1,61,127,28
1,66,127,6797
1,69,127,19
1,71,127,18
1,69,127,19
1,68,127,22
1,66,127,25
1,66,127,401
1,66,127,100
1,73,127,13
1,71,127,23
1,71,127,25
1,66,127,78
1,62,127,1
1,61,127,28
1,66,127,1520
1,66,127,25
1,64,125,18
1,61,127,6
1,61,127,22
1,66,127,27
1,66,127,40
1,64,120,100
1,61,127,13
1,66,127,193
1,66,127,17
1,66,127,15
1,64,127,24
1,61,127,10
1,61,127,20
1,66,127,89
1,69,127,29
1,71,127,100
1,69,127,28
1,68,127,19
1,66,127,19
1,66,127,421
1,66,127,81
1,73,127,22
1,71,127,24
1,71,127,21
1,66,127,55
1,62,127,34
1,61,127,27
1,66,127,655
1,69,127,19
1,71,127,18
1,69,127,19
1,68,127,22
1,66,127,25
1,66,127,401
1,66,127,100
1,73,127,13
1,71,127,23
1,71,127,25
1,66,127,78
1,62,127,1
1,61,127,28
1,66,127,1520
1,66,127,25
1,64,125,18
1,61,127,6
1,61,127,22
1,66,127,27
1,66,127,40
1,64,120,100
1,61,127,13
1,66,127,297
1,66,127,25
1,64,125,18
1,61,127,6
1,61,127,22
1,66,127,27
1,66,127,40
1,64,120,100
1,61,127,13
1,66,127,297
1,66,127,25
1,64,125,18
1,61,127,6
1,61,127,22
1,66,127,27
1,66,127,40
1,64,120,100
1,61,127,13
1,66,127,297
1,66,127,25
1,64,125,18
1,61,127,6
1,61,127,22
1,66,127,27
1,66,127,40
1,64,120,100
1,61,127,13
1,66,127,22
1,66,127,24
1,64,125,1
1,61,127,6
1,61,127,0
1,66,127,20
1,66,127,25
1,64,120,37
1,61,127,13
1,66,127,6
1,66,127,0
1,64,125,18
1,61,127,6
1,61,127,22
1,66,127,27
1,66,127,9
1,64,120,21
1,61,127,0
1,66,127,30
1,66,127,24
1,64,125,1
1,61,127,6
1,61,127,8
1,66,127,20
1,66,127,33
1,64,120,37
1,61,127,13
2,50,89,25594
2,57,91,0
2,62,81,0
2,52,97,0
2,50,97,0
2,49,86,0
2,54,97,0
2,50,85,0
2,57,76,0
2,62,84,0
2,52,97,16
2,50,97,0
2,54,90,0
2,57,97,0
2,50,85,0
2,57,82,0
2,62,83,0
2,52,97,48
2,50,97,8
2,49,87,0
2,54,93,0
2,49,78,0
2,54,82,0
2,50,88,0
2,57,82,0
2,62,88,0
2,52,97,16
2,50,97,12
2,49,92,5
2,56,97,0
2,59,97,0
2,49,68,24
2,56,95,0
2,59,64,0
2,49,50,0
2,56,71,0
2,59,55,0
2,49,66,7
2,56,90,0
2,59,62,0
2,49,74,27
2,56,98,0
2,59,80,0
2,50,55,24598
2,57,47,0
2,62,39,0
2,52,97,0
2,50,97,0
2,49,83,0
2,54,96,0
2,50,45,0
2,57,52,0
2,62,85,0
2,52,97,16
2,50,97,0
2,54,87,0
2,57,96,0
2,50,64,0
2,57,57,0
2,62,71,0
2,52,97,48
2,50,97,8
2,49,84,0
2,54,90,0
2,49,75,0
2,54,79,0
2,50,97,0
2,57,97,0
2,62,97,0
2,50,37,25
2,57,62,0
2,62,50,0
2,50,72,20
2,57,70,0
2,62,63,0
2,50,81,30
2,57,97,0
2,62,82,0
2,50,74,27
2,57,97,0
2,62,88,0
2,49,97,37
2,56,97,0
2,59,97,0
2,49,97,27
2,56,97,0
2,59,97,0
3,54,107,34810
3,66,127,1
3,54,81,58
3,66,85,7
3,66,85,38
3,54,85,3
3,54,121,45
3,66,127,5
3,54,85,61
3,66,85,6
3,66,85,38
3,54,85,5
3,54,107,41
3,66,127,4
3,54,81,59
3,66,77,7
3,66,77,34
3,54,77,5
3,54,107,44
3,66,127,4
3,54,73,59
3,66,73,1
3,66,73,44
3,54,73,5
3,54,107,41
3,66,127,4
3,54,73,58
3,66,81,5
3,66,81,37
3,54,77,8
3,54,102,43
3,66,127,8
3,54,77,63
3,66,81,4
3,66,81,39
3,54,81,5
3,54,107,40
3,66,127,9
3,54,76,54
3,66,73,10
3,66,73,36
3,54,73,6
3,54,107,43
3,66,127,3
3,54,73,61
3,66,73,9
3,66,77,40
3,54,77,3
3,54,107,42
3,66,127,5
3,54,86,1412
3,66,76,1
3,54,87,45
3,66,76,1
3,54,107,44
3,66,127,1
3,54,81,58
3,66,85,7
3,66,85,38
3,54,85,3
3,54,121,45
3,66,127,5
3,54,85,61
3,66,85,6
3,66,85,38
3,54,85,5
3,54,107,41
3,66,127,4
3,54,81,59
3,66,77,7
3,66,77,34
3,54,77,5
3,54,107,44
3,66,127,4
3,54,73,59
3,66,73,1
3,66,73,44
3,54,73,5
3,54,107,41
3,66,127,4
3,54,73,58
3,66,81,5
3,66,81,37
3,54,77,8
3,54,102,43
3,66,127,8
3,54,77,63
3,66,81,4
3,66,81,39
3,54,81,5
3,54,107,40
3,66,127,9
3,54,76,54
3,66,73,10
3,66,73,36
3,54,73,6
3,54,107,43
3,66,127,3
3,54,73,61
3,66,73,9
3,66,77,40
3,54,77,3
3,54,107,42
3,66,127,5
3,54,86,1412
3,66,76,1
3,54,87,45
3,66,76,1
3,54,102,24620
3,66,127,1
3,54,76,58
3,66,80,7
3,66,80,38
3,54,80,3
3,54,116,45
3,66,127,5
3,54,80,61
3,66,80,6
3,66,80,38
3,54,80,5
3,54,102,41
3,66,127,4
3,54,76,59
3,66,72,7
3,66,72,34
3,54,72,5
3,54,102,44
3,66,127,4
3,54,68,59
3,66,68,1
3,66,68,44
3,54,68,5
3,54,102,41
3,66,127,4
3,54,68,58
3,66,76,5
3,66,76,37
3,54,72,8
3,54,97,43
3,66,127,8
3,54,72,63
3,66,76,4
3,66,76,39
3,54,76,5
3,54,102,40
3,66,127,9
3,54,71,54
3,66,68,10
3,66,68,36
3,54,68,6
3,54,102,43
3,66,127,3
3,54,68,61
3,66,68,9
3,66,72,40
3,54,72,3
3,54,102,42
3,66,127,5
3,54,86,97
3,66,76,1
3,54,87,45
3,66,76,1
3,61,120,54
3,61,120,17
3,61,81,32
3,59,120,28
3,57,95,70
3,60,120,19
3,61,120,0
3,61,120,161
3,61,120,22
3,61,79,23
3,59,120,34
3,57,105,67
3,61,120,22
3,61,120,190
3,61,120,22
3,61,89,19
3,59,120,29
3,57,94,69
3,60,63,12
3,61,120,3
3,61,120,108
3,61,120,19
3,61,82,26
3,59,120,25
3,57,92,71
3,61,120,19
3,54,102,48
3,66,127,1
3,54,76,58
3,66,80,7
3,66,80,38
3,54,80,3
3,54,116,45
3,66,127,5
3,54,80,61
3,66,80,6
3,66,80,38
3,54,80,5
3,54,102,41
3,66,127,4
3,54,76,59
3,66,72,7
3,66,72,34
3,54,72,5
3,54,102,44
3,66,127,4
3,54,68,59
3,66,68,1
3,66,68,44
3,54,68,5
3,54,102,41
3,66,127,4
3,54,68,58
3,66,76,5
3,66,76,37
3,54,72,8
3,54,97,43
3,66,127,8
3,54,72,63
3,66,76,4
3,66,76,39
3,54,76,5
3,54,102,40
3,66,127,9
3,54,71,54
3,66,68,10
3,66,68,36
3,54,68,6
3,54,102,43
3,66,127,3
3,54,68,61
3,66,68,9
3,66,72,40
3,54,72,3
3,54,102,42
3,66,127,5
3,54,86,145
3,66,76,1
3,54,87,45
3,66,76,1
3,54,104,44
3,66,127,1
3,54,78,58
3,66,82,7
3,66,82,38
3,54,82,3
3,54,118,45
3,66,127,5
3,54,82,61
3,66,82,6
3,66,82,38
3,54,82,5
3,54,104,41
3,66,127,4
3,54,78,59
3,66,74,7
3,66,74,34
3,54,74,5
3,54,104,44
3,66,127,4
3,54,70,59
3,66,70,1
3,66,70,44
3,54,70,5
3,54,104,41
3,66,127,4
3,54,70,58
3,66,78,5
3,66,78,37
3,54,74,8
3,54,99,43
3,66,127,8
3,54,74,63
3,66,78,4
3,66,78,39
3,54,78,5
3,54,104,40
3,66,127,9
3,54,73,54
3,66,70,10
3,66,70,36
3,54,70,6
3,54,104,43
3,66,127,3
3,54,70,61
3,66,70,9
3,66,74,40
3,54,74,3
3,54,104,42
3,66,127,5
3,54,127,390
3,54,127,47
3,61,127,48
3,61,127,14
3,50,71,22
3,59,127,39
3,57,127,41
3,60,127,22
3,61,127,8
3,54,121,70
3,54,120,47
3,61,127,47
3,61,127,9
3,50,71,18
3,59,127,31
3,57,127,46
3,59,102,23
3,60,110,10
3,61,127,2
3,54,121,48
3,54,122,36
3,61,127,46
3,61,127,7
3,59,127,63
3,57,102,45
3,61,127,28
3,54,120,35
3,54,121,47
3,61,127,55
3,61,127,9
3,50,35,31
3,59,127,33
3,57,127,46
3,54,120,14
3,54,121,47
3,61,127,55
3,61,127,12
3,59,127,61
3,57,127,57
3,54,120,9
3,54,121,47
3,61,127,54
3,61,127,12
3,59,32,26
3,59,127,13
3,57,127,36
3,60,108,33
3,61,127,7
3,54,120,42
3,54,121,48
3,61,127,53
3,61,127,12
3,49,78,17
3,59,127,47
3,57,127,55
3,54,121,20
3,54,120,34
3,61,127,40
3,61,127,17
3,59,127,65
3,57,127,50
3,54,120,16
3,54,120,44
3,61,127,52
3,61,127,13
3,59,32,26
3,59,127,13
3,57,127,43
3,60,127,33
3,61,127,8
3,54,120,35
3,54,121,45
3,61,127,49
3,61,127,13
3,59,127,45
3,57,127,43
3,60,110,8
3,61,127,10
3,54,102,39
3,66,127,1
3,54,76,58
3,66,80,7
3,66,80,38
3,54,80,3
3,54,116,45
3,66,127,5
3,54,80,61
3,66,80,6
3,66,80,38
3,54,80,5
3,54,102,41
3,66,127,4
3,54,76,59
3,66,72,7
3,66,72,34
3,54,72,5
3,54,102,44
3,66,127,4
3,54,68,59
3,66,68,1
3,66,68,44
3,54,68,5
3,54,102,41
3,66,127,4
3,54,68,58
3,66,76,5
3,66,76,37
3,54,72,8
3,54,97,43
3,66,127,8
