track,note,velocity,time
1,59,116,8390
1,63,116,0
1,66,110,0
1,59,0,83
1,66,0,2
1,63,0,3
1,57,100,55
1,61,117,0
1,64,102,0
1,57,107,73
1,61,124,0
1,64,107,0
1,61,0,130
1,57,0,2
1,64,0,0
1,59,116,48
1,63,117,0
1,66,110,0
1,59,122,45
1,63,117,0
1,66,107,0
1,59,0,95
1,66,0,0
1,63,0,2
1,57,113,53
1,61,127,0
1,64,110,0
1,57,113,63
1,61,127,0
1,64,110,0
1,61,0,25
1,64,0,7
1,57,0,3
1,59,116,85
1,63,116,0
1,66,106,0
1,59,116,85
1,63,116,0
1,66,110,0
1,59,0,83
1,66,0,2
1,63,0,3
1,57,113,55
1,61,117,0
1,64,114,0
1,57,107,73
1,61,124,0
1,64,107,0
1,61,0,130
1,57,0,2
1,64,0,0
1,59,116,48
1,63,117,0
1,66,110,0
1,59,122,45
1,63,117,0
1,66,107,0
1,59,0,95
1,66,0,0
1,63,0,2
1,57,113,53
1,61,127,0
1,64,110,0
1,57,113,63
1,61,127,0
1,64,110,0
1,61,0,25
1,64,0,7
1,57,0,3
1,59,116,85
1,63,116,0
1,66,106,0
1,59,116,85
1,63,116,0
1,66,110,0
1,59,0,83
1,66,0,2
1,63,0,3
1,57,100,55
1,61,117,0
1,64,102,0
1,57,107,73
1,61,124,0
1,64,107,0
1,61,0,130
1,57,0,2
1,64,0,0
1,59,116,48
1,63,117,0
1,66,110,0
1,59,122,45
1,63,117,0
1,66,107,0
1,59,0,95
1,66,0,0
1,63,0,2
1,57,113,53
1,61,127,0
1,64,110,0
1,57,113,63
1,61,127,0
1,64,110,0
1,61,0,25
1,64,0,7
1,57,0,3
1,59,116,85
1,63,116,0
1,66,106,0
1,59,116,85
1,63,116,0
1,66,110,0
1,59,0,83
1,66,0,2
1,63,0,3
1,57,100,55
1,61,117,0
1,64,102,0
1,57,107,73
1,61,124,0
1,64,107,0
1,61,0,130
1,57,0,2
1,64,0,0
1,59,116,48
1,63,117,0
1,66,110,0
1,59,122,45
1,63,117,0
1,66,107,0
1,59,0,95
1,66,0,0
1,63,0,2
1,57,113,53
1,61,127,0
1,64,110,0
1,57,113,63
1,61,127,0
1,64,110,0
1,61,0,25
1,64,0,7
1,57,0,3
1,59,116,85
1,63,116,0
1,66,106,0
1,54,99,85
1,57,96,0
1,59,106,0
1,61,102,0
1,64,99,0
1,59,104,108
1,61,106,0
1,63,106,0
1,66,102,0
1,54,90,120
1,57,87,0
1,59,97,0
1,61,92,0
1,64,92,0
1,59,92,105
1,61,94,0
1,63,92,0
1,66,97,0
1,59,116,283
1,63,116,0
1,66,110,0
1,59,0,83
1,66,0,2
1,63,0,3
1,57,113,55
1,61,117,0
1,64,114,0
1,57,107,73
1,61,124,0
1,64,107,0
1,61,0,130
1,57,0,2
1,64,0,0
1,59,116,48
1,63,117,0
1,66,110,0
1,59,122,45
1,63,117,0
1,66,107,0
1,59,0,95
1,66,0,0
1,63,0,2
1,57,113,53
1,61,127,0
1,64,110,0
1,57,113,63
1,61,127,0
1,64,110,0
1,61,0,25
1,64,0,7
1,57,0,3
1,59,116,85
1,63,116,0
1,66,106,0
1,59,116,85
1,63,116,0
1,66,110,0
1,59,0,83
1,66,0,2
1,63,0,3
1,57,100,55
1,61,117,0
1,64,102,0
1,57,107,73
1,61,124,0
1,64,107,0
1,61,0,130
1,57,0,2
1,64,0,0
1,59,116,48
1,63,117,0
1,66,110,0
1,59,122,45
1,63,117,0
1,66,107,0
1,59,0,95
1,66,0,0
1,63,0,2
1,57,113,53
1,61,127,0
1,64,110,0
1,57,113,63
1,61,127,0
1,64,110,0
1,61,0,25
1,64,0,7
1,57,0,3
1,59,116,85
1,63,116,0
1,66,106,0
1,59,116,85
1,63,116,0
1,66,110,0
1,59,0,83
1,66,0,2
1,63,0,3
1,57,100,55
1,61,117,0
1,64,102,0
1,57,107,73
1,61,124,0
1,64,107,0
1,61,0,130
1,57,0,2
1,64,0,0
1,59,116,48
1,63,117,0
1,66,110,0
1,59,122,45
1,63,117,0
1,66,107,0
1,59,0,95
1,66,0,0
1,63,0,2
1,57,113,53
1,61,127,0
1,64,110,0
1,57,113,63
1,61,127,0
1,64,110,0
1,61,0,25
1,64,0,7
1,57,0,3
1,59,116,85
1,63,116,0
1,66,106,0
1,54,99,85
1,57,96,0
1,59,106,0
1,61,102,0
1,64,99,0
1,59,104,108
1,61,106,0
1,63,106,0
1,66,102,0
1,54,90,120
1,57,87,0
1,59,97,0
1,61,92,0
1,64,92,0
1,59,92,105
1,61,94,0
1,63,92,0
1,66,97,0
1,59,116,8600
1,63,116,0
1,66,110,0
1,59,0,83
1,66,0,2
1,63,0,3
1,57,100,55
1,61,117,0
1,64,102,0
1,57,107,73
1,61,124,0
1,64,107,0
1,61,0,130
1,57,0,2
1,64,0,0
1,59,116,48
1,63,117,0
1,66,110,0
1,59,122,45
1,63,117,0
1,66,107,0
1,59,0,95
1,66,0,0
1,63,0,2
1,57,113,53
1,61,127,0
1,64,110,0
1,57,113,63
1,61,127,0
1,64,110,0
1,61,0,25
1,64,0,7
1,57,0,3
1,59,116,85
1,63,116,0
1,66,106,0
1,59,116,85
1,63,116,0
1,66,110,0
1,59,0,83
1,66,0,2
1,63,0,3
1,57,113,55
1,61,117,0
1,64,114,0
1,57,107,73
1,61,124,0
1,64,107,0
1,61,0,130
1,57,0,2
1,64,0,0
1,59,116,48
1,63,117,0
1,66,110,0
1,59,122,45
1,63,117,0
1,66,107,0
1,59,0,95
1,66,0,0
1,63,0,2
1,57,113,53
1,61,127,0
1,64,110,0
1,57,113,63
1,61,127,0
1,64,110,0
1,61,0,25
1,64,0,7
1,57,0,3
1,59,116,85
1,63,116,0
1,66,106,0
1,59,116,85
1,63,116,0
1,66,110,0
1,59,0,83
1,66,0,2
1,63,0,3
1,57,100,55
1,61,117,0
1,64,102,0
1,57,107,73
1,61,124,0
1,64,107,0
1,61,0,130
1,57,0,2
1,64,0,0
1,59,116,48
1,63,117,0
1,66,110,0
1,59,122,45
1,63,117,0
1,66,107,0
1,59,0,95
1,66,0,0
1,63,0,2
1,57,113,53
1,61,127,0
1,64,110,0
1,57,113,63
1,61,127,0
1,64,110,0
1,61,0,25
1,64,0,7
1,57,0,3
1,59,116,85
1,63,116,0
1,66,106,0
1,59,116,85
1,63,116,0
1,66,110,0
1,59,0,83
1,66,0,2
1,63,0,3
1,57,100,55
1,61,117,0
1,64,102,0
1,57,107,73
1,61,124,0
1,64,107,0
1,61,0,130
1,57,0,2
1,64,0,0
1,59,116,48
1,63,117,0
1,66,110,0
1,59,122,45
1,63,117,0
1,66,107,0
1,59,0,95
1,66,0,0
1,63,0,2
1,57,113,53
1,61,127,0
1,64,110,0
1,57,113,63
1,61,127,0
1,64,110,0
1,61,0,25
1,64,0,7
1,57,0,3
1,59,116,85
1,63,116,0
1,66,106,0
1,54,99,85
1,57,96,0
1,59,106,0
1,61,102,0
1,64,99,0
1,59,104,108
1,61,106,0
1,63,106,0
1,66,102,0
1,54,90,120
1,57,87,0
1,59,97,0
1,61,92,0
1,64,92,0
1,59,92,105
1,61,94,0
1,63,92,0
1,66,97,0
2,23,110,698
2,35,110,0
2,23,0,117
2,35,0,0
2,23,110,63
2,35,110,0
2,23,0,30
2,35,0,0
2,23,110,210
2,35,110,0
2,23,0,22
2,35,0,0
2,23,110,38
2,35,110,0
2,23,0,32
2,35,0,0
2,21,110,328
2,33,110,0
2,21,0,30
2,33,0,0
2,23,110,90
2,35,110,0
2,23,0,125
2,35,0,0
2,23,110,55
2,35,110,0
2,23,0,32
2,35,0,0
2,23,110,208
2,35,110,0
2,23,0,25
2,35,0,0
2,23,94,35
2,35,94,0
2,23,0,42
2,35,0,0
2,21,110,318
2,33,110,0
2,21,0,30
2,33,0,0
2,23,110,90
2,35,110,0
2,23,0,120
2,35,0,0
2,23,110,60
2,35,110,0
2,23,0,32
2,35,0,0
2,23,110,208
2,35,110,0
2,23,0,25
2,35,0,0
2,23,100,35
2,35,100,0
2,23,0,40
2,35,0,0
2,21,106,320
2,33,106,0
2,21,0,35
2,33,0,0
2,23,110,85
2,35,110,0
2,23,0,137
2,35,0,0
2,23,107,43
2,35,107,0
2,23,0,27
2,35,0,0
2,23,110,213
2,35,110,0
2,23,0,25
2,35,0,0
2,23,103,35
2,35,103,0
2,23,0,37
2,35,0,0
2,26,100,203
2,38,100,0
2,26,0,32
2,38,0,0
2,27,87,28
2,39,87,0
2,27,0,32
2,39,0,0
2,23,110,28
2,35,110,0
2,23,0,27
2,35,0,0
2,23,110,93
2,35,110,0
2,23,0,127
2,35,0,0
2,23,110,53
2,35,110,0
2,23,0,30
2,35,0,0
2,23,107,210
2,35,107,0
2,23,0,45
2,35,0,0
2,23,107,15
2,35,107,0
2,23,0,25
2,35,0,0
2,21,100,335
2,33,100,0
2,21,0,30
2,33,0,0
2,23,110,90
2,35,110,0
2,23,0,117
2,35,0,0
2,23,110,63
2,35,110,0
2,23,0,32
2,35,0,0
2,23,110,208
2,35,110,0
2,23,0,25
2,35,0,0
2,23,97,35
2,35,97,0
2,23,0,42
2,35,0,0
2,33,106,198
2,45,106,0
2,33,0,30
2,45,0,0
2,35,92,30
2,47,92,0
2,35,0,35
2,47,0,0
2,23,110,25
2,35,110,0
2,23,0,30
2,35,0,0
2,23,110,90
2,35,110,0
2,23,0,125
2,35,0,0
2,23,110,55
2,35,110,0
2,23,0,35
2,35,0,0
2,23,110,205
2,35,110,0
2,23,0,22
2,35,0,0
2,23,107,38
2,35,107,0
2,23,0,40
2,35,0,0
2,21,106,320
2,33,106,0
2,21,0,32
2,33,0,0
2,23,110,88
2,35,110,0
2,23,0,127
2,35,0,0
2,23,110,53
2,35,110,0
2,23,0,32
2,35,0,0
2,23,110,208
2,35,110,0
2,23,0,25
2,35,0,0
2,23,103,35
2,35,103,0
2,23,0,55
2,35,0,0
2,23,127,425
2,35,127,0
2,23,0,145
2,35,0,0
2,23,127,35
2,35,127,0
2,23,0,30
2,35,0,0
2,23,127,210
2,35,127,0
2,23,0,25
2,35,0,0
2,23,124,35
2,35,124,0
2,23,0,60
2,35,0,0
2,21,117,300
2,33,117,0
2,21,0,32
2,33,0,0
2,23,127,88
2,35,127,0
2,23,0,137
2,35,0,0
2,23,127,43
2,35,127,0
2,23,0,30
2,35,0,0
2,23,127,210
2,35,127,0
2,23,0,25
2,35,0,0
2,23,117,35
2,35,117,0
2,23,0,60
2,35,0,0
2,21,123,300
2,33,123,0
2,21,0,30
2,33,0,0
2,23,127,90
2,35,127,0
2,23,0,145
2,35,0,0
2,23,127,35
2,35,127,0
2,23,0,30
2,35,0,0
2,23,120,210
2,35,120,0
2,23,0,22
2,35,0,0
2,23,117,38
2,35,117,0
2,23,0,60
2,35,0,0
2,21,127,300
2,33,127,0
2,21,0,30
2,33,0,0
2,23,127,90
2,35,127,0
2,23,0,140
2,35,0,0
2,23,127,40
2,35,127,0
2,23,0,30
2,35,0,0
2,23,127,210
2,35,127,0
2,23,0,25
2,35,0,0
2,23,120,35
2,35,120,0
2,23,0,60
2,35,0,0
2,21,112,300
2,33,112,0
2,21,0,30
2,33,0,0
2,23,127,90
2,35,127,0
2,23,0,145
2,35,0,0
2,23,127,35
2,35,127,0
2,23,0,35
2,35,0,0
2,23,127,205
2,35,127,0
2,23,0,25
2,35,0,0
2,23,124,35
2,35,124,0
2,23,0,60
2,35,0,0
2,21,117,300
2,33,117,0
2,21,0,32
2,33,0,0
2,23,127,88
2,35,127,0
2,23,0,137
2,35,0,0
2,23,127,43
2,35,127,0
2,23,0,27
2,35,0,0
2,23,127,213
2,35,127,0
2,23,0,25
2,35,0,0
2,23,117,35
2,35,117,0
2,23,0,60
2,35,0,0
2,21,123,300
2,33,123,0
2,21,0,30
2,33,0,0
2,23,127,90
2,35,127,0
2,23,0,145
2,35,0,0
2,23,127,35
2,35,127,0
2,23,0,30
2,35,0,0
2,23,120,210
2,35,120,0
2,23,0,22
2,35,0,0
2,23,117,38
2,35,117,0
2,23,0,60
2,35,0,0
2,21,127,300
2,33,127,0
2,21,0,30
2,33,0,0
2,23,127,90
2,35,127,0
2,23,0,140
2,35,0,0
2,23,127,40
2,35,127,0
2,23,0,30
2,35,0,0
2,23,127,210
2,35,127,0
2,23,0,25
2,35,0,0
2,23,120,35
2,35,120,0
2,23,0,60
2,35,0,0
2,21,112,300
2,33,112,0
2,21,0,30
2,33,0,0
2,23,127,90
2,35,127,0
2,23,0,145
2,35,0,0
2,23,127,35
2,35,127,0
2,23,0,30
2,35,0,0
2,23,127,210
2,35,127,0
2,23,0,25
2,35,0,0
2,23,124,35
2,35,124,0
2,23,0,60
2,35,0,0
2,21,117,300
2,33,117,0
2,21,0,32
2,33,0,0
2,23,127,88
2,35,127,0
2,23,0,137
2,35,0,0
2,23,127,43
2,35,127,0
2,23,0,30
2,35,0,0
2,23,127,210
2,35,127,0
2,23,0,25
2,35,0,0
2,23,117,35
2,35,117,0
2,23,0,60
2,35,0,0
2,21,123,300
2,33,123,0
2,21,0,30
2,33,0,0
2,23,127,90
2,35,127,0
2,23,0,145
2,35,0,0
2,23,127,35
2,35,127,0
2,23,0,30
2,35,0,0
2,23,120,210
2,35,120,0
2,23,0,22
2,35,0,0
2,23,117,38
2,35,117,0
2,23,0,60
2,35,0,0
2,21,127,300
2,33,127,0
2,21,0,30
2,33,0,0
2,23,127,90
2,35,127,0
2,23,0,140
2,35,0,0
2,23,127,40
2,35,127,0
2,23,0,30
2,35,0,0
2,23,127,210
2,35,127,0
2,23,0,25
2,35,0,0
2,23,120,35
2,35,120,0
2,23,0,60
2,35,0,0
2,21,112,300
2,33,112,0
2,21,0,30
2,33,0,0
2,23,127,90
2,35,127,0
2,23,0,145
2,35,0,0
2,23,127,35
2,35,127,0
2,23,0,35
2,35,0,0
2,23,127,205
2,35,127,0
2,23,0,25
2,35,0,0
2,23,124,35
2,35,124,0
2,23,0,60
2,35,0,0
2,21,117,300
2,33,117,0
2,21,0,32
2,33,0,0
2,23,127,88
2,35,127,0
2,23,0,137
2,35,0,0
2,23,127,43
2,35,127,0
2,23,0,27
2,35,0,0
2,23,127,213
2,35,127,0
2,23,0,25
2,35,0,0
2,23,117,35
2,35,117,0
2,23,0,60
2,35,0,0
2,21,123,300
2,33,123,0
2,21,0,30
2,33,0,0
2,23,127,90
2,35,127,0
2,23,0,145
2,35,0,0
2,23,127,35
2,35,127,0
2,23,0,30
2,35,0,0
2,23,120,210
2,35,120,0
2,23,0,22
2,35,0,0
2,23,117,38
2,35,117,0
2,23,0,60
2,35,0,0
2,21,127,300
2,33,127,0
2,21,0,30
2,33,0,0
2,23,127,90
2,35,127,0
2,23,0,140
2,35,0,0
2,23,127,40
2,35,127,0
2,23,0,30
2,35,0,0
2,23,127,210
2,35,127,0
2,23,0,25
2,35,0,0
2,23,120,35
2,35,120,0
2,23,0,60
2,35,0,0
2,21,112,300
2,33,112,0
2,21,0,30
2,33,0,0
2,23,127,90
2,35,127,0
2,23,0,145
2,35,0,0
2,23,127,35
2,35,127,0
2,23,0,30
2,35,0,0
2,23,127,210
2,35,127,0
2,23,0,25
2,35,0,0
2,23,124,35
2,35,124,0
2,23,0,60
2,35,0,0
2,21,117,300
2,33,117,0
2,21,0,32
2,33,0,0
2,23,127,88
2,35,127,0
2,23,0,137
2,35,0,0
2,23,127,43
2,35,127,0
2,23,0,30
2,35,0,0
2,23,127,210
2,35,127,0
2,23,0,25
2,35,0,0
2,23,117,35
2,35,117,0
2,23,0,60
2,35,0,0
2,21,123,300
2,33,123,0
2,21,0,30
2,33,0,0
2,23,127,90
2,35,127,0
2,23,0,145
2,35,0,0
2,23,127,35
2,35,127,0
2,23,0,30
2,35,0,0
2,23,120,210
2,35,120,0
2,23,0,22
2,35,0,0
2,23,117,38
2,35,117,0
2,23,0,60
2,35,0,0
2,21,127,300
2,33,127,0
