track,note,velocity,time
3,74,108,9740
3,74,0,27
3,74,102,21
3,74,0,28
3,74,96,19
3,74,0,25
3,74,105,23
3,74,0,28
3,74,109,20
3,74,0,33
3,76,112,15
3,76,0,57
3,76,111,40
3,76,0,47
3,76,112,48
3,76,0,46
3,78,110,51
3,78,0,135
3,74,106,9
3,74,0,62
3,74,110,81
3,74,0,25
3,74,108,23
3,74,0,51
3,74,104,46
3,74,0,41
3,76,112,7
3,74,77,0
3,74,0,10
3,76,0,48
3,76,111,38
3,76,0,45
3,76,112,51
3,76,0,37
3,74,111,59
3,74,0,144
3,71,105,0
3,71,0,50
3,74,112,46
3,74,0,22
3,74,105,26
3,74,0,24
3,74,105,24
3,74,0,23
3,74,105,24
3,74,0,24
3,74,109,24
3,74,0,40
3,76,112,8
3,76,0,46
3,76,116,51
3,76,0,40
3,76,117,55
3,76,0,44
3,78,110,53
3,78,0,143
3,74,101,1
3,74,0,69
3,74,108,74
3,74,0,28
3,74,111,20
3,74,0,41
3,74,111,55
3,74,0,34
3,76,111,14
3,76,0,35
3,78,111,61
3,81,109,96
3,78,0,1
3,81,0,55
3,80,107,40
3,76,110,145
3,80,0,7
3,76,0,36
3,76,106,53
3,76,0,32
3,76,110,15
3,80,109,48
3,76,0,20
3,80,0,57
3,78,104,20
3,76,112,48
3,78,0,7
3,78,111,41
3,76,0,10
3,78,0,76
3,74,108,10
3,74,0,58
3,78,111,374
3,78,0,27
3,78,107,21
3,78,0,60
3,78,104,36
3,78,0,37
3,81,110,11
3,80,113,48
3,81,0,12
3,80,0,74
3,76,111,10
3,76,0,90
3,76,107,341
3,80,108,48
3,76,0,8
3,80,0,67
3,78,110,22
3,78,0,57
3,76,108,39
3,76,0,37
3,78,111,11
3,78,0,83
3,74,109,13
3,74,0,75
3,71,107,261
3,71,0,32
3,71,105,15
3,74,110,49
3,71,0,16
3,74,0,54
3,76,110,74
3,71,110,96
3,76,0,14
3,71,0,58
3,71,109,24
3,71,0,71
3,76,104,265
3,76,0,32
3,76,110,15
3,80,109,48
3,76,0,20
3,80,0,57
3,78,104,20
3,76,112,48
3,78,0,7
3,78,111,41
3,76,0,10
3,78,0,76
3,74,108,10
3,74,0,58
3,78,111,374
3,78,0,27
3,78,107,21
3,78,0,60
3,78,104,36
3,78,0,37
3,81,110,11
3,80,113,48
3,81,0,12
3,80,0,74
3,76,111,10
3,76,0,90
3,76,107,341
3,80,108,48
3,76,0,8
3,80,0,67
3,78,110,22
3,78,0,57
3,76,108,39
3,76,0,37
3,78,111,11
3,78,0,83
3,74,109,13
3,74,0,75
3,71,104,261
3,71,0,32
3,71,105,15
3,74,110,49
3,71,0,16
3,74,0,54
3,76,110,74
3,71,110,96
3,76,0,14
3,71,0,58
3,71,109,24
3,71,0,71
3,83,110,265
3,85,106,48
3,83,0,14
3,86,111,34
3,85,0,9
3,86,0,56
3,85,111,31
3,85,0,73
3,83,109,23
3,83,0,23
3,83,108,24
3,81,105,97
3,83,0,3
3,81,0,25
3,81,111,68
3,81,0,53
3,81,107,42
3,80,109,49
3,81,0,17
3,80,0,30
3,80,110,96
3,78,107,48
3,80,0,16
3,80,110,32
3,78,0,10
3,76,108,87
3,80,0,4
3,76,0,22
3,76,108,21
3,76,0,21
3,76,104,27
3,76,0,28
3,76,109,20
3,76,0,65
3,76,107,32
3,76,0,62
3,76,107,34
3,76,0,31
3,83,110,160
3,85,108,48
3,83,0,12
3,86,110,36
3,85,0,2
3,86,0,125
3,85,108,17
3,85,0,50
3,83,110,47
3,81,109,48
3,83,0,6
3,81,0,46
3,80,105,43
3,80,0,72
3,81,109,217
3,81,0,53
3,80,112,43
3,80,0,63
3,76,109,32
3,76,0,77
3,76,106,68
3,76,0,52
3,74,104,43
3,74,0,53
3,88,111,43
3,76,104,49
3,88,0,10
3,76,0,32
3,81,111,246
3,81,0,105
3,81,108,38
3,81,0,72
3,80,108,24
3,80,0,61
3,81,110,35
3,81,0,46
3,83,109,50
3,81,108,145
3,83,0,13
3,81,0,31
3,80,104,100
3,80,0,32
3,80,109,15
3,76,107,145
3,80,0,21
3,76,0,15
3,76,110,60
3,74,105,96
3,76,0,8
3,74,0,36
3,78,108,52
3,76,106,144
3,78,0,7
3,76,0,29
3,81,108,155
3,81,0,121
3,81,108,23
3,81,0,86
3,80,108,10
3,80,0,72
3,81,109,24
3,81,0,69
3,83,106,28
3,81,108,143
3,83,0,4
3,81,0,29
3,76,104,112
3,76,0,32
3,76,105,16
3,76,0,32
3,88,107,16
3,88,0,45
3,76,107,2
3,76,0,39
3,76,110,57
3,76,0,41
3,76,109,55
3,76,0,17
3,76,108,31
3,76,0,41
3,80,104,7
3,80,0,137
3,76,110,7
3,76,0,35
3,76,104,14
3,76,0,32
3,76,108,15
3,76,0,46
3,74,108,3
3,74,0,27
3,74,102,21
3,74,0,28
3,74,96,19
3,74,0,25
3,74,105,23
3,74,0,28
3,74,109,20
3,74,0,33
3,76,112,15
3,76,0,57
3,76,111,40
3,76,0,47
3,76,112,48
3,76,0,46
3,78,110,51
3,78,0,135
3,74,106,9
3,74,0,62
3,74,110,81
3,74,0,25
3,74,108,23
3,74,0,51
3,74,104,46
3,74,0,41
3,76,112,7
3,74,77,0
3,74,0,10
3,76,0,48
3,76,111,38
3,76,0,45
3,76,112,51
3,76,0,37
3,74,111,59
3,74,0,144
3,71,105,0
3,71,0,50
3,74,112,46
3,74,0,22
3,74,105,26
3,74,0,24
3,74,105,24
3,74,0,23
3,74,105,24
3,74,0,24
3,74,109,24
3,74,0,40
3,76,112,8
3,76,0,46
3,76,112,51
3,76,0,40
3,76,112,55
3,76,0,44
3,78,109,53
3,78,0,143
3,74,106,1
3,74,0,69
3,74,111,74
3,74,0,28
3,74,108,20
3,74,0,41
3,74,111,55
3,74,0,34
3,76,112,14
3,76,0,35
3,78,111,61
3,81,109,96
3,78,0,1
3,81,0,55
3,80,107,40
3,76,110,145
3,80,0,7
3,76,0,36
3,76,104,53
3,76,0,32
3,76,110,15
3,80,109,48
3,76,0,20
3,80,0,57
3,78,104,20
3,76,112,48
3,78,0,7
3,78,111,41
3,76,0,10
3,78,0,76
3,74,108,10
3,74,0,58
3,78,111,374
3,78,0,27
3,78,107,21
3,78,0,60
3,78,104,36
3,78,0,37
3,81,110,11
3,80,113,48
3,81,0,12
3,80,0,74
3,76,111,10
3,76,0,90
3,76,107,341
3,80,108,48
3,76,0,8
3,80,0,67
3,78,110,22
3,78,0,57
3,76,108,39
3,76,0,37
3,78,111,11
3,78,0,83
3,74,109,13
3,74,0,75
3,71,104,261
3,71,0,32
3,71,105,15
3,74,110,49
3,71,0,16
3,74,0,54
3,76,110,74
3,71,110,96
3,76,0,14
3,71,0,58
3,71,109,24
3,71,0,71
3,76,104,265
3,76,0,32
3,76,110,15
3,80,109,48
3,76,0,20
3,80,0,57
3,78,104,20
3,76,112,48
3,78,0,7
3,78,111,41
3,76,0,10
3,78,0,76
3,74,108,10
3,74,0,58
3,78,111,374
3,78,0,27
3,78,107,21
3,78,0,60
3,78,104,36
3,78,0,37
3,81,110,11
3,80,113,48
3,81,0,12
3,80,0,74
3,76,111,10
3,76,0,90
3,76,107,341
3,80,108,48
3,76,0,8
3,80,0,67
3,78,110,22
3,78,0,57
3,76,108,39
3,76,0,37
3,78,111,11
3,78,0,83
3,74,109,13
3,74,0,75
3,71,104,261
3,71,0,32
3,71,105,15
3,74,110,49
3,71,0,16
3,74,0,54
3,76,110,74
3,71,110,96
3,76,0,14
3,71,0,58
3,71,109,24
3,71,0,71
3,83,105,312
3,86,108,48
3,83,0,14
3,86,0,58
3,86,106,25
3,86,0,27
3,86,109,21
3,86,0,77
3,83,108,19
3,81,109,49
3,83,0,3
3,81,0,48
3,81,110,44
3,81,0,84
3,80,107,12
3,80,0,48
3,76,109,192
3,76,0,28
3,76,108,20
3,76,0,32
3,80,108,16
3,80,0,89
3,76,107,7
3,76,0,33
3,76,107,62
3,76,0,96
3,74,103,1
3,74,0,44
3,76,110,4
3,76,0,56
3,76,111,40
3,76,0,45
3,83,106,195
3,86,98,48
3,83,0,15
3,86,0,59
3,86,108,22
3,83,105,48
3,86,0,7
3,83,0,41
3,83,105,48
3,83,0,48
3,81,98,0
3,81,0,37
3,83,108,59
3,83,0,80
3,80,107,16
3,80,0,48
3,80,105,191
3,80,0,29
3,80,105,19
3,80,0,28
3,80,107,21
3,80,0,92
3,76,103,3
3,76,0,32
3,76,109,64
3,76,0,96
3,74,102,0
3,74,0,20
3,88,109,76
3,76,108,95
3,88,0,3
3,76,0,39
3,81,110,199
3,81,0,122
3,81,110,22
3,81,0,83
3,80,104,13
3,81,106,96
3,80,0,2
3,81,0,83
3,83,106,11
3,81,107,145
3,83,0,24
3,81,0,34
3,80,104,86
3,80,0,32
3,80,111,15
3,80,0,140
3,76,108,4
3,76,0,39
3,76,109,57
3,74,104,97
3,76,0,10
3,74,0,73
3,78,102,12
3,76,109,145
3,78,0,20
3,76,0,28
3,81,109,144
3,81,0,73
3,81,107,23
3,81,0,25
3,81,106,22
3,81,0,71
3,80,104,26
3,80,0,26
3,80,102,21
3,80,0,32
3,81,110,16
3,81,0,83
3,83,110,14
3,81,110,144
3,83,0,9
3,81,0,38
3,80,110,96
3,80,0,90
3,81,108,6
3,80,102,96
3,81,0,16
3,83,107,81
3,80,0,1
3,83,0,63
3,83,104,32
3,83,0,55
3,80,107,41
3,80,0,117
3,78,97,27
3,76,109,48
3,78,0,8
3,76,0,10
3,74,108,30
3,74,0,27
3,74,102,21
3,74,0,28
3,74,96,19
3,74,0,25
3,74,105,23
3,74,0,28
3,74,109,20
3,74,0,33
3,76,112,15
3,76,0,57
3,76,111,40
3,76,0,47
3,76,112,48
3,76,0,46
3,78,110,51
3,78,0,135
3,74,106,9
3,74,0,62
3,74,110,81
3,74,0,25
3,74,108,23
3,74,0,51
3,74,104,46
3,74,0,41
3,76,112,7
3,74,77,0
3,74,0,10
3,76,0,48
3,76,111,38
3,76,0,45
3,76,112,51
3,76,0,37
3,74,111,59
3,74,0,144
3,71,105,0
3,71,0,50
3,74,112,46
3,74,0,22
3,74,105,26
3,74,0,24
3,74,105,24
3,74,0,23
3,74,105,24
3,74,0,24
3,74,109,24
3,74,0,40
3,76,112,8
3,76,0,46
3,76,112,51
3,76,0,40
3,76,112,55
3,76,0,44
3,78,109,53
3,78,0,143
3,74,106,1
3,74,0,69
3,74,111,74
3,74,0,28
3,74,108,20
3,74,0,41
3,74,111,55
3,74,0,34
3,76,112,14
3,76,0,35
3,78,111,61
3,81,109,96
3,78,0,1
3,81,0,55
3,80,107,40
3,76,110,145
3,80,0,7
3,76,0,36
3,76,104,53
3,76,0,32
3,76,110,15
3,80,109,48
3,76,0,20
3,80,0,57
3,78,104,20
3,76,112,48
3,78,0,7
3,78,111,41
3,76,0,10
3,78,0,76
3,74,108,10
3,74,0,58
3,78,111,374
3,78,0,27
3,78,107,21
3,78,0,60
3,78,104,36
3,78,0,37
3,81,110,11
3,80,113,48
3,81,0,12
3,80,0,74
3,76,111,10
3,76,0,90
3,76,107,341
3,80,108,48
3,76,0,8
3,80,0,67
3,78,110,22
3,78,0,57
3,76,108,39
3,76,0,37
3,78,111,11
3,78,0,83
3,74,109,13
3,74,0,75
3,71,104,261
3,71,0,32
3,71,105,15
3,74,110,49
3,71,0,16
3,74,0,54
3,76,110,74
3,71,110,96
3,76,0,14
3,71,0,58
3,71,109,24
3,71,0,71
3,76,104,265
3,76,0,32
3,76,110,15
3,80,109,48
3,76,0,20
3,80,0,57
3,78,104,20
3,76,112,48
3,78,0,7
3,78,111,41
3,76,0,10
3,78,0,76
3,74,108,10
3,74,0,58
3,78,111,374
3,78,0,27
3,78,107,21
3,78,0,60
3,78,104,36
3,78,0,37
3,81,110,11
3,80,113,48
3,81,0,12
3,80,0,74
3,76,111,10
3,76,0,90
3,76,107,341
3,80,108,48
3,76,0,8
3,80,0,67
3,78,110,22
3,78,0,57
3,76,108,39
3,76,0,37
3,78,111,11
3,78,0,83
3,74,109,13
3,74,0,75
3,71,104,261
3,71,0,32
3,71,105,15
3,74,110,49
3,71,0,16
3,74,0,54
3,76,110,74
3,71,110,96
3,76,0,14
3,71,0,58
3,71,109,24
3,71,0,71
3,71,106,313
3,71,0,19
3,71,108,28
3,71,0,25
3,74,104,26
3,74,0,76
3,78,104,18
3,74,109,48
3,78,0,7
3,74,0,69
3,71,102,451
3,71,0,30
3,71,106,18
3,71,0,42
3,74,110,9
3,74,0,93
3,71,108,1
3,71,0,25
3,71,111,23
3,69,106,96
3,71,0,2
3,69,0,42
3,68,108,3
3,68,0,76
3,71,105,309
3,71,0,20
3,71,107,27
3,71,0,37
3,78,107,15
3,78,0,137
3,74,107,3
3,74,0,68
3,69,108,460
3,69,0,43
3,71,109,6
3,71,0,44
3,74,109,3
3,74,0,73
3,71,110,23
3,71,0,46
3,68,107,2
3,68,0,92
3,71,105,389
3,71,0,42
3,71,109,53
3,71,0,31
3,78,104,19
3,78,0,33
3,78,108,14
3,78,0,79
3,74,109,16
3,74,0,111
3,69,103,418
3,69,0,17
3,69,107,30
3,69,0,43
3,71,110,5
3,69,102,97
3,71,0,10
3,69,0,19
3,71,110,19
3,71,0,140
3,68,105,4
3,68,0,113
3,71,110,223
3,71,0,19
3,71,110,29
3,71,0,47
3,78,110,0
3,78,0,97
3,78,104,0
3,74,107,48
3,78,0,16
3,74,0,99
3,71,112,412
3,71,0,26
3,71,102,22
3,71,0,27
3,71,110,21
3,71,0,72
3,71,106,25
3,71,0,19
3,71,110,29
3,71,0,70
3,88,94,122
3,88,0,144
3,83,108,3264
3,85,111,47
3,83,0,10
3,86,111,38
3,85,0,10
3,85,102,134
3,86,0,11
3,85,0,58
3,83,105,27
3,81,108,49
3,83,0,25
3,81,0,20
3,81,110,50
3,81,0,74
3,80,104,22
3,80,0,87
3,78,104,153
3,78,0,23
3,81,110,25
3,81,0,41
3,80,107,7
3,76,108,96
3,80,0,7
3,76,0,36
3,76,109,54
3,76,0,92
3,74,104,4
3,74,0,42
3,76,110,6
3,76,0,58
3,74,110,39
3,74,0,44
3,83,106,147
3,85,105,47
3,83,0,14
3,85,0,27
3,86,110,8
3,85,104,143
3,86,0,1
3,85,0,37
3,83,107,59
3,81,110,48
3,83,0,2
3,81,0,39
3,81,110,54
3,81,0,74
3,80,104,22
3,80,0,87
3,78,107,153
3,78,0,27
3,81,108,21
3,81,0,42
3,80,108,6
3,76,109,96
3,80,0,1
3,76,0,38
3,76,107,58
3,76,0,81
3,74,102,15
3,74,0,24
3,88,111,24
3,88,0,44
3,76,107,52
3,76,0,96
3,81,108,191
3,81,0,127
3,81,108,18
3,81,0,75
3,80,103,20
3,80,0,78
3,81,108,18
3,81,0,78
3,83,108,19
3,83,0,143
3,81,108,1
3,81,0,76
3,80,104,68
3,80,0,47
3,80,112,0
3,76,108,144
3,80,0,2
3,76,0,49
3,76,108,46
3,74,102,96
3,76,0,4
3,74,0,63
3,78,103,29
3,76,109,145
3,78,0,28
3,76,0,6
3,81,109,157
3,81,0,114
3,81,108,29
3,81,0,86
3,80,104,10
3,80,0,86
3,81,109,10
3,81,0,72
3,83,106,25
3,81,106,144
3,83,0,9
3,81,0,93
3,76,108,42
3,76,0,24
3,76,109,24
3,88,111,48
3,76,0,4
3,76,107,43
3,76,0,54
3,88,0,15
3,76,110,27
3,76,0,21
3,76,108,75
3,76,0,17
3,76,108,31
3,76,0,40
3,76,106,8
3,76,0,49
3,76,104,95
3,76,0,32
3,88,108,17
3,76,108,47
3,76,0,25
3,74,108,24
3,74,0,27
3,74,102,21
3,88,0,8
3,74,0,20
3,74,96,19
3,74,0,25
3,74,105,23
3,74,0,28
3,74,109,20
3,74,0,33
3,76,112,15
3,76,0,57
3,76,111,40
3,76,0,47
3,76,112,48
3,76,0,46
3,78,110,51
3,78,0,135
3,74,106,9
3,74,0,62
