track,note,velocity,time
2,37,121,21120
2,37,116,46
2,37,116,193
2,37,117,212
2,32,119,178
2,37,114,95
2,37,114,44
2,37,119,194
2,37,114,210
2,35,117,172
2,37,121,78
2,37,116,46
2,37,116,193
2,37,117,212
2,32,119,178
2,37,114,95
2,37,114,44
2,37,119,194
2,37,114,210
2,35,117,172
2,40,121,78
2,40,116,46
2,40,116,193
2,40,117,212
2,40,119,178
2,35,121,95
2,35,116,46
2,35,116,193
2,35,117,212
2,35,119,178
2,37,121,95
2,37,116,46
2,37,116,193
2,37,117,212
2,37,119,178
2,32,121,95
2,32,116,46
2,32,116,193
2,32,117,212
2,32,119,178
2,33,121,95
2,33,116,46
2,33,116,193
2,33,117,212
2,33,119,178
2,33,121,95
2,33,116,46
2,33,116,193
2,33,117,212
2,33,119,178
2,37,121,95
2,37,116,46
2,37,116,193
2,37,117,212
2,37,119,178
2,37,121,95
2,37,116,46
2,37,116,193
2,37,117,212
2,37,119,178
2,40,121,95
2,40,116,46
2,40,116,193
2,40,117,212
2,40,119,178
2,35,121,95
2,35,116,46
2,35,116,193
2,35,117,212
2,35,119,178
2,37,121,95
2,37,116,46
2,37,116,193
2,37,117,212
2,37,119,178
2,32,121,95
2,32,116,46
2,32,116,193
2,32,117,212
2,32,119,178
2,33,121,95
2,33,116,46
2,33,116,193
2,33,117,212
2,33,119,178
2,33,121,95
2,33,116,46
2,33,116,193
2,33,117,212
2,33,119,178
2,37,121,95
2,37,116,46
2,37,116,193
2,37,117,212
2,37,119,178
2,37,121,95
2,37,116,46
2,37,116,193
2,37,117,212
2,37,119,178
2,30,127,95
2,30,121,77
2,30,121,102
2,30,125,126
2,42,121,358
2,30,125,480
2,30,121,111
2,30,116,122
2,30,121,134
2,42,121,288
2,35,124,480
2,33,121,298
2,33,116,46
2,33,116,193
2,33,117,212
2,33,119,178
2,35,121,95
2,35,116,46
2,35,116,193
2,35,117,212
2,35,119,178
2,37,121,95
2,37,116,46
2,37,116,193
2,37,117,212
2,37,119,178
2,32,121,95
2,32,116,46
2,32,116,193
2,32,117,212
2,32,119,178
2,33,121,95
2,33,116,46
2,33,116,193
2,33,117,212
2,33,119,178
2,35,121,95
2,35,116,46
2,35,116,193
2,35,117,212
2,35,119,178
2,37,121,95
2,37,116,46
2,37,116,193
2,37,117,212
2,37,119,178
2,32,121,95
2,32,116,46
2,32,116,193
2,32,117,212
2,32,119,178
2,33,121,95
2,33,116,46
2,33,116,193
2,33,117,212
2,33,119,178
2,33,121,95
2,33,116,46
2,33,116,193
2,33,117,212
2,33,119,178
2,37,121,95
2,37,116,46
2,37,116,193
2,37,117,212
2,32,119,178
2,37,114,95
2,37,114,44
2,37,119,194
2,37,114,210
2,35,117,172
2,37,121,78
2,37,116,46
2,37,116,193
2,37,117,212
2,32,119,178
2,37,114,95
2,37,114,44
2,37,119,194
2,37,114,210
2,35,117,172
2,40,121,78
2,40,116,46
2,40,116,193
2,40,117,212
2,40,119,178
2,35,121,95
2,35,116,46
2,35,116,193
2,35,117,212
2,35,119,178
2,37,121,95
2,37,116,46
2,37,116,193
2,37,117,212
2,37,119,178
2,32,121,95
2,32,116,46
2,32,116,193
2,32,117,212
2,32,119,178
2,33,121,95
2,33,116,46
2,33,116,193
2,33,117,212
2,33,119,178
2,33,121,95
2,33,116,46
2,33,116,193
2,33,117,212
2,33,119,178
2,37,121,95
2,37,116,46
2,37,116,193
2,37,117,212
2,37,119,178
2,37,121,95
2,37,116,46
2,37,116,193
2,37,117,212
2,37,119,178
2,30,127,95
2,30,121,77
2,30,121,102
2,30,125,126
2,42,121,358
2,30,125,480
2,30,121,111
2,30,116,122
2,30,121,134
2,42,121,288
2,35,124,480
2,33,121,298
2,33,116,46
2,33,116,193
2,33,117,212
2,33,119,178
2,35,121,95
2,35,116,46
2,35,116,193
2,35,117,212
2,35,119,178
2,37,121,95
2,37,116,46
2,37,116,193
2,37,117,212
2,37,119,178
2,32,121,95
2,32,116,46
2,32,116,193
2,32,117,212
2,32,119,178
2,33,121,95
2,33,116,46
2,33,116,193
2,33,117,212
2,33,119,178
2,35,121,95
2,35,116,46
2,35,116,193
2,35,117,212
2,35,119,178
2,37,121,95
2,37,116,46
2,37,116,193
2,37,117,212
2,37,119,178
2,32,121,95
2,32,116,46
2,32,116,193
2,32,117,212
2,32,119,178
2,33,121,95
2,33,116,46
2,33,116,193
2,33,117,212
2,33,119,178
2,33,121,95
2,33,116,46
2,33,116,193
2,33,117,212
2,33,119,178
2,37,121,95
2,37,116,46
2,37,116,193
2,37,117,212
2,32,119,178
2,37,114,95
2,37,114,44
2,37,119,194
2,37,114,210
2,35,117,172
2,37,121,78
2,37,116,46
2,37,116,193
2,37,117,212
2,32,119,178
2,37,114,95
2,37,114,44
2,37,119,194
2,37,114,210
2,35,117,172
2,35,121,78
2,35,116,46
2,35,116,193
2,35,117,212
2,35,119,178
2,35,121,95
2,35,116,46
2,35,116,193
2,35,117,212
2,35,119,178
2,33,121,95
2,33,116,46
2,33,116,193
2,33,117,212
2,33,119,178
2,33,121,95
2,33,116,46
2,33,116,193
2,33,117,212
2,33,119,178
2,35,121,95
2,35,116,46
2,35,116,193
2,35,117,212
2,35,119,178
2,35,121,95
2,35,116,46
2,35,116,193
2,35,117,212
2,35,119,178
2,33,112,95
2,35,105,1159
2,37,106,1822
2,32,106,6
2,33,95,8
2,35,95,1920
2,37,110,1860
2,32,106,1875
2,33,121,1909
2,33,116,46
2,33,116,193
2,33,117,212
2,33,119,178
2,35,121,95
2,35,116,46
2,35,116,193
2,35,117,212
2,35,119,178
2,37,121,95
2,37,116,46
2,37,116,193
2,37,117,212
2,37,119,178
2,32,121,95
2,32,116,46
2,32,116,193
2,32,117,212
2,32,119,178
2,33,121,95
2,33,116,46
2,33,116,193
2,33,117,212
2,33,119,178
2,35,121,95
2,35,116,46
2,35,116,193
2,35,117,212
2,35,119,178
2,37,121,95
2,37,116,46
2,37,116,193
2,37,117,212
2,37,119,178
2,32,121,95
2,32,116,46
2,32,116,193
2,32,117,212
2,32,119,178
2,33,121,95
2,33,116,46
2,33,116,193
2,33,117,212
2,33,119,178
2,35,121,95
2,35,116,46
2,35,116,193
2,35,117,212
2,35,119,178
2,37,121,95
2,37,116,46
2,37,116,193
2,37,117,212
2,37,119,178
2,32,121,95
2,32,116,46
2,32,116,193
2,32,117,212
2,32,119,178
2,33,121,95
2,33,116,46
2,33,116,193
2,33,117,212
2,33,119,178
2,35,121,95
2,35,116,46
2,35,116,193
2,35,117,212
2,35,119,178
2,37,121,95
2,37,116,46
2,37,116,193
2,37,117,212
2,37,119,178
2,32,121,95
2,32,116,46
2,32,116,193
2,32,117,212
2,32,119,178
2,37,121,95
2,37,116,46
2,37,116,193
2,37,117,212
2,32,119,178
2,37,114,95
2,37,114,44
2,37,119,194
2,37,114,210
2,35,117,172
2,37,121,78
3,59,127,1090
3,71,121,4
3,69,124,4
3,68,118,4
3,69,94,4
3,68,77,83
3,66,100,71
3,66,118,129
3,64,110,4
3,66,118,4
3,68,116,4
3,68,121,8
3,59,124,1154
3,69,121,188
3,69,124,5
3,71,124,19
3,64,97,27
3,64,116,77
3,63,96,4
3,61,102,4
3,68,118,953
3,69,116,4
3,68,116,4
3,64,86,67614
3,61,74,16
3,64,89,120
3,61,69,719
3,68,101,144
3,64,105,1985
3,68,125,25
3,71,124,240
3,73,127,86
3,59,100,2409
3,63,121,480
3,59,89,448
3,66,121,186
3,68,125,3408
3,69,124,480
3,64,105,3232
3,61,101,240
3,64,92,239
3,66,109,187
3,61,61,217
3,64,83,153
3,61,116,210
3,68,121,421
3,66,85,71
3,64,83,171
3,66,85,10
3,68,85,0
3,61,121,8
3,64,96,0
3,59,124,5285
3,63,125,360
3,66,121,318
3,71,115,39
3,66,127,480
3,68,121,11612
3,68,121,134
3,71,115,74
3,68,116,10
3,66,121,240
3,68,121,46
3,71,120,240
3,68,125,91
3,66,125,480
3,64,110,19
3,66,127,240
3,68,125,0
3,64,120,42
3,76,83,3414
3,73,69,240
3,76,78,203
3,80,69,183
3,76,74,417
3,73,69,222
3,73,127,3379
3,73,125,156
3,73,125,150
3,71,124,240
3,71,120,147
3,71,127,141
3,83,124,216
3,83,115,148
3,83,120,132
3,81,120,92
3,80,116,75
3,81,105,84
3,80,116,16
3,76,115,120
3,78,116,1680
3,80,93,11
3,78,121,240
3,76,120,220
3,78,109,5
3,76,115,34
3,78,125,19
3,68,121,12457
3,68,121,134
3,71,115,74
3,68,116,10
3,66,121,240
3,68,121,46
3,71,120,240
3,68,125,91
3,66,125,480
3,64,110,19
3,68,121,11490
3,68,121,134
3,71,115,74
3,68,116,10
3,66,121,240
3,68,121,46
3,71,120,240
3,68,125,91
3,66,125,480
3,64,110,19
3,68,121,11490
3,68,121,134
3,71,115,74
3,68,116,10
3,66,121,240
3,68,121,46
3,71,120,240
3,68,125,91
3,66,125,480
3,64,110,19
4,68,121,29280
4,71,116,48
4,71,116,41
4,68,118,329
4,71,112,74
4,71,116,52
4,73,109,19
4,68,121,1119
4,71,118,44
4,71,118,76
4,68,94,30
4,68,116,291
4,71,118,67
4,71,118,36
4,73,112,13
4,71,116,1198
4,71,116,86
4,64,105,258
4,71,105,56
4,71,105,39
4,71,120,154
4,71,115,73
4,64,110,110
4,66,121,48
4,68,121,3
4,68,121,132
4,68,121,2901
4,71,116,48
4,71,116,41
4,68,118,329
4,71,112,74
4,71,116,52
4,73,109,19
4,68,121,1119
4,71,118,44
4,71,118,76
4,68,94,30
4,68,116,291
4,76,118,67
4,75,118,36
4,73,112,13
4,71,116,1198
4,71,116,86
4,64,105,258
4,71,105,56
4,71,105,39
4,71,120,154
4,71,115,73
4,64,110,110
4,66,121,48
4,68,121,3
4,68,121,132
4,66,64,501
4,68,66,480
4,68,78,77
4,66,116,459
4,66,116,116
4,66,121,165
4,68,125,120
4,68,121,540
4,66,116,68
4,66,121,126
4,66,121,180
4,68,125,61
4,71,110,1402
4,71,120,108
4,71,120,91
4,71,115,106
4,73,121,82
4,73,125,92
4,73,121,95
4,75,127,95
4,71,120,78
4,83,120,148
4,81,110,720
4,80,121,24
4,81,92,240
4,80,121,83
4,78,121,1
4,78,121,60
4,76,110,2
4,78,125,240
4,80,121,207
4,80,125,90
4,71,120,140
4,83,120,480
4,81,110,686
4,80,121,635
4,81,92,219
4,80,121,86
4,78,121,105
4,78,121,58
4,78,101,86
4,76,110,120
4,78,125,105
4,80,121,191
4,80,121,164
4,78,74,720
4,76,92,191
4,78,109,170
4,80,121,194
4,80,116,121
4,78,116,720
4,76,105,188
4,78,121,205
4,76,100,233
4,73,121,402
4,68,121,8304
4,71,116,48
4,71,116,41
4,68,118,329
4,71,112,74
4,71,116,52
4,73,109,19
4,68,121,1119
4,71,118,44
4,71,118,76
4,68,94,30
4,68,116,291
4,76,118,67
4,75,118,36
4,73,112,13
4,71,116,1198
4,71,116,86
4,64,105,258
4,71,105,56
4,71,105,39
4,71,120,154
4,71,115,73
4,64,110,110
4,66,121,48
4,68,121,3
4,68,121,132
4,66,64,501
4,68,66,480
4,68,78,77
4,66,116,459
4,66,116,116
4,66,121,165
4,68,125,120
4,68,121,540
4,66,116,68
4,66,121,126
4,66,121,180
4,68,125,61
4,71,110,1402
4,71,120,108
4,71,120,91
4,71,115,106
4,73,121,82
4,73,125,92
4,73,121,95
4,75,127,95
4,71,120,78
4,83,120,148
4,81,110,720
4,80,121,24
4,81,92,240
4,80,121,83
4,78,121,1
4,78,121,60
4,76,110,2
4,78,125,240
4,80,121,207
4,80,125,90
4,71,120,140
4,83,120,480
4,81,110,686
4,80,121,635
4,81,92,219
4,80,121,86
4,78,121,105
4,78,121,58
4,78,101,86
4,76,110,120
4,78,125,105
4,80,121,191
4,80,121,164
4,78,74,720
4,76,92,191
4,78,109,170
4,80,121,194
4,80,116,121
4,78,116,720
4,76,105,188
4,78,121,205
4,76,100,233
4,73,121,402
4,71,110,16224
4,71,120,108
4,71,120,91
4,71,115,106
4,73,121,82
4,73,125,92
4,73,121,95
4,75,127,95
4,71,120,78
4,83,120,148
4,81,110,720
4,80,121,24
4,81,92,240
4,80,121,83
4,78,121,1
4,78,121,60
4,76,110,2
4,78,125,240
4,80,121,207
4,80,125,90
4,71,120,140
4,83,120,480
4,81,110,686
4,80,121,635
4,81,92,219
4,80,121,86
4,78,121,105
4,78,121,58
4,78,101,86
4,76,110,120
4,78,125,105
4,80,121,191
4,80,121,164
4,78,74,720
4,76,92,191
4,78,109,170
4,80,121,194
4,80,116,121
4,78,116,720
4,76,105,188
4,83,120,205
4,81,110,713
4,80,121,24
4,81,92,240
4,80,121,83
4,78,121,1
4,78,121,60
4,76,110,2
4,78,125,240
4,80,121,207
4,80,125,90
4,71,120,140
4,83,120,480
4,81,110,686
4,80,121,635
4,81,92,219
4,80,121,86
4,78,121,105
4,78,121,58
4,78,101,86
4,76,110,120
4,78,125,105
4,80,121,191
4,80,121,164
4,78,74,720
4,76,92,191
4,78,109,170
4,80,121,194
4,80,116,121
4,78,116,720
4,76,105,188
4,83,120,205
4,81,110,713
4,80,121,24
4,81,92,240
4,80,121,83
4,78,121,1
4,78,121,60
4,76,110,2
4,78,125,240
4,80,121,207
4,80,125,90
4,71,120,140
4,83,120,480
4,81,110,686
4,80,121,635
4,81,92,219
4,80,121,86
4,78,121,105
4,78,121,58
4,78,101,86
4,76,110,120
4,78,125,105
4,80,121,191
4,80,121,164
4,78,74,720
4,76,92,191
4,78,109,170
4,80,121,194
4,80,116,121
4,78,116,720
4,76,105,188
4,78,109,205
4,76,112,0
4,73,113,0
5,66,116,59520
5,66,116,116
5,66,121,165
5,68,125,120
5,68,121,540
5,66,116,68
5,66,121,126
5,66,121,180
5,68,125,61
5,71,110,1402
5,71,120,108
5,71,120,91
5,71,115,106
5,73,121,82
5,73,125,92
5,73,121,95
5,75,127,95
5,71,120,78
5,83,120,148
5,81,110,720
5,80,121,24
5,81,92,240
5,80,121,83
5,78,121,1
5,78,121,60
5,76,110,2
5,78,125,240
5,80,121,207
5,80,125,90
5,71,120,140
5,83,120,480
5,81,110,686
5,80,121,635
5,81,92,219
5,80,121,86
5,78,121,105
5,78,121,58
5,78,101,86
5,76,110,120
5,78,125,105
5,80,121,191
5,80,121,164
5,78,74,720
5,76,92,191
5,78,109,170
5,80,121,194
5,80,116,121
5,78,116,720
5,76,105,188
5,78,121,205
5,76,100,233
5,73,121,402
5,66,116,23184
5,66,116,116
5,66,121,165
5,68,125,120
5,68,121,540
5,66,116,68
5,66,121,126
5,66,121,180
5,68,125,61
5,71,110,1402
5,71,120,108
5,71,120,91
5,71,115,106
5,73,121,82
5,73,125,92
5,73,121,95
5,75,127,95
5,71,120,78
5,83,120,148
5,81,110,720
5,80,121,24
5,81,92,240
5,80,121,83
5,78,121,1
5,78,121,60
5,76,110,2
5,78,125,240
5,80,121,207
5,80,125,90
5,71,120,140
5,83,120,480
5,81,110,686
5,80,121,635
5,81,92,219
5,80,121,86
5,78,121,105
5,78,121,58
5,78,101,86
5,76,110,120
5,78,125,105
5,80,121,191
5,80,121,164
5,78,74,720
5,76,92,191
5,78,109,170
5,80,121,194
5,80,116,121
5,78,116,720
5,76,105,188
5,78,121,205
5,76,100,233
5,73,121,402
5,71,110,16224
5,71,120,108
5,71,120,91
5,71,115,106
5,73,121,82
5,73,125,92
5,73,121,95
5,75,127,95
5,71,120,78
5,83,120,148
5,81,110,720
5,80,121,24
5,81,92,240
5,80,121,83
5,78,121,1
5,78,121,60
5,76,110,2
5,78,125,240
5,80,121,207
5,80,125,90
5,71,120,140
5,83,120,480
5,81,110,686
5,80,121,635
5,81,92,219
5,80,121,86
5,78,121,105
5,78,121,58
5,78,101,86
5,76,110,120
5,78,125,105
5,80,121,191
5,80,121,164
5,78,74,720
5,76,92,191
5,78,109,170
5,80,121,194
5,80,116,121
5,78,116,720
5,76,105,188
5,83,120,205
5,81,110,713
5,80,121,24
5,81,92,240
5,80,121,83
