track,note,velocity,time
1,58,96,45012
1,63,106,0
1,67,97,0
1,67,112,316
1,63,106,0
1,58,100,0
1,57,90,12
1,67,94,0
1,63,96,0
1,67,92,294
1,57,97,0
1,63,100,0
1,67,97,278
1,63,106,0
1,58,96,0
1,67,90,0
1,58,106,0
1,63,106,0
1,67,112,274
1,57,92,0
1,63,106,0
1,67,107,0
1,63,107,0
1,58,107,0
1,67,97,64
1,57,94,0
1,63,112,0
1,58,106,78
1,63,127,0
1,67,97,0
1,67,100,296
1,63,127,0
1,58,100,0
1,57,81,40
1,67,76,0
1,63,93,0
1,67,92,310
1,57,94,0
1,63,100,0
1,67,101,288
1,58,101,0
1,63,101,0
1,67,94,24
1,58,112,0
1,63,112,0
1,67,74,240
1,57,76,0
1,63,77,0
1,67,120,92
1,63,112,0
1,58,106,0
1,65,97,284
1,55,94,0
1,61,127,0
1,65,87,86
1,56,86,0
1,61,96,0
1,65,100,334
1,56,106,0
1,61,106,0
1,55,94,52
1,65,83,0
1,61,100,0
1,55,112,304
1,65,97,0
1,61,106,0
1,65,94,302
1,61,100,0
1,56,96,0
1,65,92,180
1,61,106,0
1,56,96,0
1,65,98,302
1,55,98,0
1,61,98,0
1,65,110,38
1,61,110,0
1,56,110,0
1,55,100,292
1,65,112,0
1,61,106,0
1,65,94,68
1,61,112,0
1,56,93,0
1,65,97,314
1,56,106,0
1,61,112,0
1,55,94,60
1,65,90,0
1,61,100,0
1,55,112,292
1,65,92,0
1,61,106,0
1,65,92,296
1,56,96,0
1,61,112,0
1,65,87,214
1,61,100,0
1,56,93,0
1,55,100,310
1,65,97,0
1,61,106,0
1,65,97,78
1,56,106,0
1,61,106,0
1,65,127,292
1,55,112,0
1,61,112,0
1,58,96,116
1,63,106,0
1,67,97,0
1,67,112,316
1,63,106,0
1,58,100,0
1,57,90,12
1,67,94,0
1,63,96,0
1,67,92,294
1,57,97,0
1,63,100,0
1,67,97,278
1,63,106,0
1,58,96,0
1,67,90,0
1,58,106,0
1,63,106,0
1,67,112,274
1,57,92,0
1,63,106,0
1,67,107,0
1,63,107,0
1,58,107,0
1,67,97,64
1,57,94,0
1,63,112,0
1,58,106,78
1,63,127,0
1,67,97,0
1,67,100,296
1,63,127,0
1,58,100,0
1,57,81,40
1,67,76,0
1,63,93,0
1,67,92,310
1,57,94,0
1,63,100,0
1,67,101,288
1,58,101,0
1,63,101,0
1,67,94,24
1,58,112,0
1,63,112,0
1,67,74,240
1,57,76,0
1,63,77,0
1,67,120,92
1,63,112,0
1,58,106,0
1,65,97,284
1,55,94,0
1,61,127,0
1,65,87,86
1,56,86,0
1,61,96,0
1,65,100,334
1,56,106,0
1,61,106,0
1,55,94,52
1,65,83,0
1,61,100,0
1,55,112,304
1,65,97,0
1,61,106,0
1,65,94,302
1,61,100,0
1,56,96,0
1,65,92,180
1,61,106,0
1,56,96,0
1,65,98,302
1,55,98,0
1,61,98,0
1,65,110,38
1,61,110,0
1,56,110,0
1,55,100,292
1,65,112,0
1,61,106,0
1,65,94,68
1,61,112,0
1,56,93,0
1,65,97,314
1,56,106,0
1,61,112,0
1,55,94,60
1,65,90,0
1,61,100,0
1,55,112,292
1,65,92,0
1,61,106,0
1,65,92,296
1,56,96,0
1,61,112,0
1,65,87,214
1,61,100,0
1,56,93,0
1,55,100,310
1,65,97,0
1,61,106,0
1,65,97,78
1,56,106,0
1,61,106,0
1,65,127,292
1,55,112,0
1,61,112,0
1,58,96,116
1,63,106,0
1,67,97,0
1,67,112,316
1,63,106,0
1,58,100,0
1,57,90,12
1,67,94,0
1,63,96,0
1,67,92,294
1,57,97,0
1,63,100,0
1,67,97,278
1,63,106,0
1,58,96,0
1,67,90,0
1,58,106,0
1,63,106,0
1,67,112,274
1,57,92,0
1,63,106,0
1,67,107,0
1,63,107,0
1,58,107,0
1,67,97,64
1,57,94,0
1,63,112,0
1,58,106,78
1,63,127,0
1,67,97,0
1,67,100,296
1,63,127,0
1,58,100,0
1,57,81,40
1,67,76,0
1,63,93,0
1,67,92,310
1,57,94,0
1,63,100,0
1,67,101,288
1,58,101,0
1,63,101,0
1,67,94,24
1,58,112,0
1,63,112,0
1,67,74,240
1,57,76,0
1,63,77,0
1,67,120,92
1,63,112,0
1,58,106,0
1,65,97,284
1,55,94,0
1,61,127,0
1,65,87,86
1,56,86,0
1,61,96,0
1,65,100,334
1,56,106,0
1,61,106,0
1,55,94,52
1,65,83,0
1,61,100,0
1,55,112,304
1,65,97,0
1,61,106,0
1,65,94,302
1,61,100,0
1,56,96,0
1,65,92,180
1,61,106,0
1,56,96,0
1,65,98,302
1,55,98,0
1,61,98,0
1,65,110,38
1,61,110,0
1,56,110,0
1,55,100,292
1,65,112,0
1,61,106,0
1,65,94,68
1,61,112,0
1,56,93,0
1,65,97,314
1,56,106,0
1,61,112,0
1,55,94,60
1,65,90,0
1,61,100,0
1,55,112,292
1,65,92,0
1,61,106,0
1,65,92,296
1,56,96,0
1,61,112,0
1,65,87,214
1,61,100,0
1,56,93,0
1,55,100,310
1,65,97,0
1,61,106,0
1,65,97,78
1,56,106,0
1,61,106,0
1,65,127,292
1,55,112,0
1,61,112,0
1,58,96,116
1,63,106,0
1,67,97,0
1,67,112,316
1,63,106,0
1,58,100,0
1,57,90,12
1,67,94,0
1,63,96,0
1,67,92,294
1,57,97,0
1,63,100,0
1,67,97,278
1,63,106,0
1,58,96,0
1,67,90,0
1,58,106,0
1,63,106,0
1,67,112,274
1,57,92,0
1,63,106,0
1,67,107,0
1,63,107,0
1,58,107,0
1,67,97,64
1,57,94,0
1,63,112,0
1,58,106,78
1,63,127,0
1,67,97,0
1,67,100,296
1,63,127,0
1,58,100,0
1,57,81,40
1,67,76,0
1,63,93,0
1,67,92,310
1,57,94,0
1,63,100,0
1,67,101,288
1,58,101,0
1,63,101,0
1,67,94,24
1,58,112,0
1,63,112,0
1,67,74,240
1,57,76,0
1,63,77,0
1,67,120,92
1,63,112,0
1,58,106,0
1,65,97,284
1,55,94,0
1,61,127,0
1,65,87,86
1,56,86,0
1,61,96,0
1,65,100,334
1,56,106,0
1,61,106,0
1,55,94,52
1,65,83,0
1,61,100,0
1,55,112,304
1,65,97,0
1,61,106,0
1,65,94,302
1,61,100,0
1,56,96,0
1,65,92,180
1,61,106,0
1,56,96,0
1,65,98,302
1,55,98,0
1,61,98,0
1,65,110,38
1,61,110,0
1,56,110,0
1,55,100,292
1,65,112,0
1,61,106,0
1,65,94,68
1,61,112,0
1,56,93,0
1,65,97,314
1,56,106,0
1,61,112,0
1,55,94,60
1,65,90,0
1,61,100,0
1,55,112,292
1,65,92,0
1,61,106,0
1,65,92,296
1,56,96,0
1,61,112,0
1,65,87,214
1,61,100,0
1,56,93,0
1,55,100,310
1,65,97,0
1,61,106,0
1,65,97,78
1,56,106,0
1,61,106,0
1,65,127,292
1,55,112,0
1,61,112,0
1,58,96,116
1,63,106,0
1,67,97,0
1,67,112,316
1,63,106,0
1,58,100,0
1,57,90,12
1,67,94,0
1,63,96,0
1,67,92,294
1,57,97,0
1,63,100,0
1,67,97,278
1,63,106,0
1,58,96,0
1,67,90,0
1,58,106,0
1,63,106,0
1,67,112,274
1,57,92,0
1,63,106,0
1,67,107,0
1,63,107,0
1,58,107,0
1,67,97,64
1,57,94,0
1,63,112,0
1,58,106,78
1,63,127,0
1,67,97,0
1,67,100,296
1,63,127,0
1,58,100,0
1,57,81,40
1,67,76,0
1,63,93,0
1,67,92,310
1,57,94,0
1,63,100,0
1,67,101,288
1,58,101,0
1,63,101,0
1,67,94,24
1,58,112,0
1,63,112,0
1,67,74,240
1,57,76,0
1,63,77,0
1,67,120,92
1,63,112,0
1,58,106,0
1,65,97,284
1,55,94,0
1,61,127,0
1,65,87,86
1,56,86,0
1,61,96,0
1,65,100,334
1,56,106,0
1,61,106,0
1,55,94,52
1,65,83,0
1,61,100,0
1,55,112,304
1,65,97,0
1,61,106,0
1,65,94,302
1,61,100,0
1,56,96,0
1,65,92,180
1,61,106,0
1,56,96,0
1,65,98,302
1,55,98,0
1,61,98,0
1,65,110,38
1,61,110,0
1,56,110,0
1,55,100,292
1,65,112,0
1,61,106,0
1,65,94,68
1,61,112,0
1,56,93,0
1,65,97,314
1,56,106,0
1,61,112,0
1,55,94,60
1,65,90,0
1,61,100,0
1,55,112,292
1,65,92,0
1,61,106,0
1,65,92,296
1,56,96,0
1,61,112,0
1,65,87,214
1,61,100,0
1,56,93,0
1,55,100,310
1,65,97,0
1,61,106,0
1,65,97,78
1,56,106,0
1,61,106,0
1,65,127,292
1,55,112,0
1,61,112,0
1,58,96,116
1,63,106,0
1,67,97,0
1,67,112,316
1,63,106,0
1,58,100,0
1,57,90,12
1,67,94,0
1,63,96,0
1,67,92,294
1,57,97,0
1,63,100,0
1,67,97,278
1,63,106,0
1,58,96,0
1,67,90,0
1,58,106,0
1,63,106,0
1,67,112,274
1,57,92,0
1,63,106,0
1,67,107,0
1,63,107,0
1,58,107,0
1,67,97,64
1,57,94,0
1,63,112,0
1,58,106,78
1,63,127,0
1,67,97,0
1,67,100,296
1,63,127,0
1,58,100,0
1,57,81,40
1,67,76,0
1,63,93,0
1,67,92,310
1,57,94,0
1,63,100,0
1,67,101,288
1,58,101,0
1,63,101,0
1,67,94,24
1,58,112,0
1,63,112,0
1,67,74,240
1,57,76,0
1,63,77,0
1,67,120,92
1,63,112,0
1,58,106,0
1,65,97,284
1,55,94,0
1,61,127,0
1,65,87,86
1,56,86,0
1,61,96,0
1,65,100,334
1,56,106,0
1,61,106,0
1,55,94,52
1,65,83,0
1,61,100,0
1,55,112,304
1,65,97,0
1,61,106,0
1,65,94,302
1,61,100,0
1,56,96,0
1,65,92,180
1,61,106,0
1,56,96,0
1,65,98,302
1,55,98,0
1,61,98,0
1,65,110,38
1,61,110,0
1,56,110,0
1,55,100,292
1,65,112,0
1,61,106,0
1,65,94,68
1,61,112,0
1,56,93,0
1,65,97,314
1,56,106,0
1,61,112,0
1,55,94,60
1,65,90,0
1,61,100,0
1,55,112,292
1,65,92,0
1,61,106,0
1,65,92,296
1,56,96,0
1,61,112,0
1,65,87,214
1,61,100,0
1,56,93,0
1,55,100,310
1,65,97,0
1,61,106,0
1,65,97,78
1,56,106,0
1,61,106,0
1,65,127,292
1,55,112,0
1,61,112,0
1,48,120,116
1,67,112,0
1,74,127,0
1,70,100,0
1,63,127,0
1,48,100,82
1,74,100,0
1,70,86,0
1,67,112,0
1,63,106,0
1,67,127,80
1,74,112,0
1,48,127,0
1,70,112,0
1,63,127,0
1,48,127,842
1,74,120,0
1,67,127,0
1,70,112,0
1,63,127,0
1,65,120,1590
1,46,127,0
1,72,120,0
1,61,127,0
1,68,93,0
1,72,127,88
1,46,127,0
1,68,93,0
1,61,127,0
1,65,120,0
1,68,96,94
1,72,127,0
1,65,120,0
1,46,127,0
1,61,127,0
1,79,127,782
1,72,127,0
1,75,127,0
1,68,127,0
1,46,106,0
1,79,127,220
1,46,127,0
1,75,127,0
1,72,127,0
1,68,127,0
1,48,112,1142
1,67,120,0
1,70,93,0
1,74,112,0
1,63,127,0
1,67,127,54
1,48,120,0
1,70,96,0
1,74,120,0
1,63,106,0
1,67,127,68
1,74,112,0
1,70,93,0
1,48,127,0
1,63,106,0
1,74,120,802
1,48,120,0
1,67,127,0
1,63,127,0
1,70,100,0
1,46,112,1560
1,65,112,0
1,61,127,0
1,72,127,0
1,68,93,0
1,46,112,78
1,68,80,0
1,65,100,0
1,72,120,0
1,61,127,0
1,72,127,84
1,65,120,0
1,46,127,0
1,68,96,0
1,61,127,0
1,79,112,802
1,72,127,0
1,46,127,0
1,68,127,0
1,75,106,0
1,46,127,212
1,72,127,0
1,79,127,0
1,75,100,0
1,68,112,0
1,70,69,1160
1,48,100,0
1,63,127,0
1,67,120,0
1,74,100,0
1,48,120,88
1,70,77,0
1,74,112,0
1,67,120,0
1,63,112,0
1,74,100,82
1,48,127,0
1,67,127,0
1,70,96,0
1,63,127,0
1,48,120,832
1,74,127,0
1,67,127,0
1,70,96,0
1,63,127,0
1,67,120,1554
1,74,120,0
1,70,86,0
1,48,127,0
1,63,127,0
1,70,72,80
1,74,100,0
1,48,120,0
1,67,120,0
1,63,106,0
1,74,100,80
1,67,127,0
1,70,86,0
1,63,112,0
1,48,100,0
1,74,97,812
1,48,112,0
1,67,112,0
1,70,83,0
1,63,106,0
1,58,96,98
1,63,106,0
1,67,97,0
1,67,112,316
1,63,106,0
1,58,100,0
1,57,90,12
1,67,94,0
1,63,96,0
1,67,92,294
1,57,97,0
1,63,100,0
1,67,97,278
1,63,106,0
1,58,96,0
1,67,90,0
1,58,106,0
1,63,106,0
1,67,112,274
1,57,92,0
1,63,106,0
1,67,107,0
1,63,107,0
1,58,107,0
1,67,97,64
1,57,94,0
1,63,112,0
1,58,106,78
1,63,127,0
1,67,97,0
1,67,100,296
1,63,127,0
1,58,100,0
1,57,81,40
1,67,76,0
1,63,93,0
1,67,92,310
1,57,94,0
1,63,100,0
1,67,101,288
1,58,101,0
1,63,101,0
1,67,94,24
1,58,112,0
1,63,112,0
1,67,74,240
1,57,76,0
1,63,77,0
1,67,120,92
1,63,112,0
1,58,106,0
1,65,97,284
1,55,94,0
1,61,127,0
1,65,87,86
1,56,86,0
1,61,96,0
1,65,100,334
1,56,106,0
1,61,106,0
1,55,94,52
1,65,83,0
1,61,100,0
1,55,112,304
1,65,97,0
1,61,106,0
1,65,94,302
1,61,100,0
1,56,96,0
1,65,92,180
1,61,106,0
1,56,96,0
1,65,98,302
1,55,98,0
1,61,98,0
1,65,110,38
1,61,110,0
1,56,110,0
1,55,100,292
1,65,112,0
1,61,106,0
1,65,94,68
1,61,112,0
1,56,93,0
1,65,97,314
1,56,106,0
1,61,112,0
1,55,94,60
1,65,90,0
1,61,100,0
1,55,112,292
1,65,92,0
1,61,106,0
1,65,92,296
1,56,96,0
1,61,112,0
1,65,87,214
1,61,100,0
1,56,93,0
1,55,100,310
1,65,97,0
1,61,106,0
1,65,97,78
1,56,106,0
1,61,106,0
1,65,127,292
1,55,112,0
1,61,112,0
1,58,96,116
1,63,106,0
1,67,97,0
1,67,112,316
1,63,106,0
1,58,100,0
1,57,90,12
1,67,94,0
1,63,96,0
1,67,92,294
1,57,97,0
1,63,100,0
1,67,97,278
1,63,106,0
1,58,96,0
1,67,90,0
1,58,106,0
1,63,106,0
1,67,112,274
1,57,92,0
1,63,106,0
1,67,107,0
1,63,107,0
1,58,107,0
1,67,97,64
1,57,94,0
1,63,112,0
1,58,106,78
1,63,127,0
1,67,97,0
1,67,100,296
1,63,127,0
1,58,100,0
1,57,81,40
1,67,76,0
1,63,93,0
1,67,92,310
1,57,94,0
1,63,100,0
1,67,101,288
1,58,101,0
1,63,101,0
1,67,94,24
1,58,112,0
1,63,112,0
1,67,74,240
1,57,76,0
1,63,77,0
1,67,120,92
1,63,112,0
1,58,106,0
1,65,97,284
1,55,94,0
1,61,127,0
1,65,87,86
1,56,86,0
1,61,96,0
1,65,100,334
1,56,106,0
1,61,106,0
1,55,94,52
1,65,83,0
1,61,100,0
1,55,112,304
1,65,97,0
1,61,106,0
1,65,94,302
1,61,100,0
1,56,96,0
1,65,92,180
1,61,106,0
1,56,96,0
1,65,98,302
1,55,98,0
1,61,98,0
1,65,110,38
1,61,110,0
1,56,110,0
1,55,100,292
1,65,112,0
1,61,106,0
1,65,94,68
1,61,112,0
1,56,93,0
1,65,97,314
1,56,106,0
1,61,112,0
1,55,94,60
1,65,90,0
1,61,100,0
1,55,112,292
1,65,92,0
1,61,106,0
1,65,92,296
1,56,96,0
1,61,112,0
1,65,87,214
1,61,100,0
1,56,93,0
1,55,100,310
1,65,97,0
1,61,106,0
1,65,97,78
1,56,106,0
1,61,106,0
1,65,127,292
1,55,112,0
1,61,112,0
1,48,120,24692
1,67,112,0
1,74,127,0
1,70,100,0
1,63,127,0
1,48,100,82
