track,note,velocity,time
1,77,103,4628
1,72,102,0
1,69,100,4
1,77,101,192
1,72,102,4
1,69,103,0
1,77,100,188
1,72,96,4
1,69,102,0
1,77,98,188
1,72,97,0
1,68,95,4
1,75,97,92
1,72,100,0
1,68,100,4
1,74,103,192
1,72,96,4
1,68,101,0
1,77,101,200
1,74,101,0
1,71,103,4
1,77,96,196
1,73,100,0
1,70,100,4
1,77,101,196
1,73,100,0
1,70,97,4
1,77,101,200
1,72,97,4
1,69,102,0
1,77,95,184
1,72,95,0
1,69,97,4
1,77,96,188
1,74,102,0
1,70,102,4
1,77,101,776
1,72,95,0
1,69,97,4
1,77,101,200
1,72,99,0
1,69,100,4
1,77,101,184
1,72,95,0
1,69,97,0
1,77,99,196
1,72,102,0
1,68,99,4
1,75,99,96
1,72,102,4
1,68,102,0
1,74,98,184
1,72,97,0
1,68,96,4
1,77,99,196
1,74,97,4
1,71,99,0
1,77,97,196
1,73,103,0
1,70,101,4
1,77,98,192
1,73,103,0
1,70,95,4
1,77,98,212
1,72,99,4
1,69,96,0
1,77,97,184
1,72,96,4
1,69,99,0
1,77,98,184
1,74,97,0
1,70,101,0
1,69,80,776
1,65,78,4
1,62,77,0
1,69,79,204
1,65,83,0
1,62,76,4
1,69,80,192
1,65,77,0
1,62,78,4
1,67,76,212
1,65,80,4
1,62,76,0
1,69,77,392
1,65,83,0
1,62,82,4
1,69,80,372
1,65,76,0
1,62,81,4
1,69,75,188
1,65,79,0
1,62,82,4
1,69,78,192
1,65,79,0
1,62,77,4
1,67,76,196
1,65,76,0
1,62,82,4
1,72,79,392
1,69,77,0
1,65,77,4
1,72,79,92
1,69,79,0
1,65,77,4
1,72,77,192
1,69,80,0
1,65,76,4
1,75,76,388
1,70,81,0
1,67,83,4
1,74,77,100
1,70,83,0
1,67,79,4
1,72,77,96
1,67,79,4
1,63,75,0
1,72,75,196
1,67,75,0
1,63,80,4
1,72,82,400
1,69,78,0
1,65,80,4
1,72,79,100
1,69,79,0
1,65,83,4
1,72,79,180
1,69,75,0
1,65,79,4
1,75,75,396
1,70,76,0
1,67,83,4
1,74,80,100
1,70,82,0
1,67,83,4
1,72,83,196
1,70,82,0
1,67,83,4
1,72,82,192
1,70,78,0
1,67,80,4
1,76,78,196
1,72,76,0
1,69,81,4
1,76,77,100
1,72,80,0
1,69,75,4
1,76,78,196
1,72,83,0
1,69,80,4
1,75,79,404
1,72,79,0
1,70,81,4
1,72,83,100
1,70,79,0
1,67,76,4
1,72,75,96
1,70,75,0
1,67,76,4
1,75,83,200
1,72,81,0
1,70,82,4
1,74,83,376
1,69,79,4
1,65,83,0
1,74,83,388
1,69,75,0
1,65,80,4
1,76,81,68
1,72,77,0
1,69,81,4
1,77,77,196
1,74,81,4
1,70,77,0
1,76,79,380
1,72,78,0
1,65,81,0
1,69,81,1348
1,65,77,0
1,62,83,4
1,69,82,192
1,65,75,0
1,62,80,4
1,69,76,184
1,65,79,0
1,62,77,4
1,67,77,196
1,65,75,4
1,62,82,0
1,69,77,380
1,65,80,0
1,62,81,4
1,69,79,392
1,65,77,0
1,62,75,4
1,69,82,192
1,65,81,0
1,62,80,4
1,69,75,192
1,65,83,0
1,62,80,4
1,67,83,200
1,65,82,4
1,62,77,0
1,72,75,388
1,69,77,4
1,65,80,0
1,72,80,100
1,69,82,0
1,65,81,4
1,72,79,192
1,69,81,0
1,65,83,4
1,75,78,392
1,70,83,0
1,67,79,4
1,74,80,100
1,70,79,0
1,67,79,4
1,72,77,96
1,67,78,4
1,63,79,0
1,72,76,196
1,67,82,0
1,63,80,4
1,72,79,372
1,69,79,0
1,65,76,4
1,72,81,104
1,69,78,0
1,65,81,4
1,72,75,196
1,69,83,0
1,65,83,4
1,75,76,392
1,70,83,0
1,67,80,4
1,74,79,100
1,70,79,0
1,67,79,4
1,72,83,196
1,70,78,0
1,67,75,4
1,72,75,192
1,70,81,0
1,67,76,4
1,76,82,196
1,72,82,0
1,69,78,4
1,76,79,100
1,72,77,0
1,69,80,4
1,76,78,196
1,72,81,0
1,69,77,4
1,75,78,372
1,72,83,0
1,70,76,4
1,72,83,92
1,70,77,0
1,67,75,4
1,72,82,92
1,70,75,0
1,67,78,4
1,75,80,196
1,72,79,0
1,70,82,4
1,74,82,392
1,69,81,4
1,65,76,0
1,74,78,376
1,69,75,0
1,65,76,4
1,76,79,72
1,72,78,0
1,69,81,4
1,77,79,208
1,74,83,4
1,70,79,0
1,72,78,196
1,70,78,0
1,67,79,4
1,74,77,192
1,70,80,4
1,67,80,0
1,77,82,196
1,72,81,0
1,69,77,4
1,77,79,212
1,72,75,0
1,69,79,4
1,77,78,192
1,72,79,0
1,69,76,4
1,77,82,200
1,72,77,0
1,68,78,4
1,75,78,100
1,72,79,0
1,68,76,4
1,74,81,192
1,72,75,4
1,68,82,0
1,77,81,212
1,74,82,0
1,71,78,4
1,77,81,208
1,73,81,4
1,70,83,0
1,77,83,192
1,73,82,0
1,70,83,4
1,77,79,200
1,72,75,0
1,69,75,0
1,77,82,188
1,72,79,4
1,69,79,0
1,77,75,168
1,74,80,4
1,70,80,0
1,77,79,752
1,72,79,4
1,69,80,0
1,77,75,180
1,72,79,0
1,69,76,4
1,77,82,196
1,72,78,0
1,69,83,4
1,77,81,200
1,72,77,0
1,68,75,4
1,75,77,88
1,72,75,0
1,68,82,4
1,74,78,192
1,72,81,4
1,68,75,0
1,77,81,180
1,74,75,4
1,71,77,0
1,77,83,200
1,73,83,4
1,70,76,0
1,77,75,192
1,73,80,0
1,70,83,4
1,77,80,196
1,72,75,0
1,69,76,0
1,77,76,184
1,72,82,4
1,69,77,0
1,77,79,180
1,74,77,4
1,70,77,0
1,69,79,776
1,65,77,4
1,62,81,0
1,69,79,180
1,65,80,4
1,62,75,0
1,69,79,196
1,65,81,0
1,62,79,4
1,67,79,196
1,65,80,0
1,62,79,4
1,69,83,404
1,65,77,0
1,62,78,4
1,69,79,388
1,65,77,0
1,62,81,4
1,69,79,192
1,65,82,0
1,62,79,4
1,69,78,184
1,65,81,0
1,62,80,4
1,67,82,196
1,65,77,0
1,62,75,4
1,72,78,380
1,69,77,4
1,65,82,0
1,72,75,100
1,69,76,0
1,65,83,4
1,72,78,192
1,69,80,0
1,65,75,4
1,75,80,404
1,70,77,0
1,67,79,4
1,74,83,100
1,70,76,0
1,67,81,4
1,72,79,96
1,67,81,0
1,63,82,4
1,72,83,196
1,67,77,0
1,63,81,4
1,72,77,388
1,69,78,0
1,65,76,4
1,72,79,100
1,69,76,0
1,65,79,4
1,72,77,196
1,69,79,0
1,65,75,4
1,75,77,388
1,70,81,0
1,67,79,4
1,74,78,100
1,70,78,0
1,67,83,4
1,72,83,196
1,70,78,0
1,67,75,4
1,72,75,192
1,70,78,0
1,67,76,4
1,76,80,196
1,72,79,0
1,69,82,4
1,76,78,100
1,72,81,0
1,69,81,4
1,76,76,196
1,72,81,0
1,69,77,4
1,75,78,376
1,72,75,0
1,70,77,4
1,72,81,100
1,70,79,0
1,67,79,4
1,72,76,96
1,70,81,0
1,67,83,4
1,75,80,196
1,72,79,0
1,70,83,4
1,74,83,376
1,69,82,4
1,65,79,0
1,74,78,388
1,69,78,0
1,65,76,4
1,76,76,72
1,72,77,0
1,69,82,4
1,77,82,200
1,74,82,4
1,70,83,0
1,76,77,392
1,72,79,0
1,65,82,0
1,69,75,1348
1,65,79,4
1,62,75,0
1,69,76,188
1,65,76,0
1,62,78,4
1,69,81,192
1,65,77,0
1,62,82,4
1,67,81,196
1,65,75,0
1,62,76,4
1,69,79,388
1,65,83,0
1,62,77,4
1,69,82,392
1,65,76,0
1,62,82,4
1,69,81,188
1,65,83,0
1,62,77,4
1,69,79,196
1,65,75,0
1,62,82,4
1,67,79,196
1,65,80,0
1,62,76,4
1,72,76,392
1,69,76,4
1,65,81,0
1,72,75,100
1,69,78,0
1,65,81,4
1,72,80,196
1,69,76,0
1,65,76,4
1,75,79,388
1,70,77,0
1,67,76,4
1,74,80,100
1,70,79,0
1,67,75,4
1,72,79,96
1,67,77,0
1,63,80,4
1,72,83,200
1,67,75,0
1,63,75,4
1,72,83,376
1,69,80,0
1,65,76,4
1,72,78,100
1,69,79,0
1,65,81,4
1,72,78,208
1,69,82,0
1,65,82,4
1,75,78,392
1,70,79,0
1,67,83,4
1,74,82,88
1,70,78,0
1,67,75,4
1,72,75,192
1,70,82,0
1,67,76,4
1,72,82,192
1,70,83,0
1,67,77,4
1,76,80,184
1,72,75,0
1,69,75,4
1,76,82,100
1,72,80,0
1,69,82,4
1,76,77,196
1,72,79,0
1,69,79,4
1,75,80,388
1,72,78,0
1,70,79,4
1,72,77,88
1,70,78,0
1,67,77,4
1,72,81,96
1,70,79,0
1,67,82,4
1,75,81,200
1,72,81,0
1,70,81,4
1,74,79,388
1,69,81,4
1,65,83,0
1,74,79,388
1,69,79,0
1,65,75,4
1,76,83,68
1,72,78,4
1,69,76,0
1,77,76,196
1,74,80,4
1,70,77,0
1,72,83,196
1,70,78,0
1,67,77,4
1,74,83,192
1,70,82,4
1,67,78,0
1,77,81,196
1,72,81,4
1,69,80,0
1,77,75,196
1,72,76,0
1,69,78,4
1,77,78,192
1,72,82,0
1,69,81,4
1,77,81,200
1,72,75,0
1,68,80,4
1,75,79,100
1,72,77,0
1,68,75,4
1,74,78,192
1,72,79,4
1,68,81,0
1,77,79,196
1,74,80,0
1,71,81,4
1,77,77,196
1,73,76,4
1,70,77,0
1,77,77,192
1,73,78,0
1,70,78,4
1,77,83,192
1,72,79,4
1,69,77,0
1,77,76,188
1,72,81,4
1,69,80,0
1,77,76,176
1,74,77,4
1,70,75,0
1,77,82,776
1,72,76,4
1,69,79,0
1,77,78,200
1,72,79,0
1,69,76,4
1,77,76,192
1,72,83,0
1,69,80,4
1,77,82,200
1,72,79,0
1,68,81,4
1,75,81,100
1,72,78,0
1,68,81,4
1,74,82,192
1,72,82,4
1,68,80,0
1,77,83,196
1,74,77,4
1,71,75,0
1,77,79,196
1,73,80,4
1,70,78,0
1,77,75,196
1,73,83,0
1,70,75,4
1,77,81,196
1,72,80,0
1,69,83,4
1,77,81,188
1,72,83,4
1,69,75,0
1,77,83,180
1,74,79,4
1,70,80,0
1,77,78,764
1,72,79,4
1,69,77,0
1,77,78,180
1,72,78,0
1,69,75,4
1,77,77,192
1,72,83,0
1,69,81,4
1,77,76,196
1,72,81,0
1,68,79,4
1,75,83,100
1,72,82,0
1,68,80,4
1,74,81,192
1,72,83,4
1,68,83,0
1,77,83,196
1,74,80,0
1,71,83,4
1,77,79,200
1,73,75,4
1,70,79,0
1,77,78,192
1,73,78,0
1,70,79,4
1,77,76,192
1,72,78,4
1,69,82,0
1,77,78,192
1,72,79,0
1,69,81,4
1,77,79,180
1,74,76,4
1,70,82,0
1,77,81,764
1,72,79,4
1,69,77,0
1,77,75,200
1,72,82,0
1,69,79,4
1,77,79,176
1,72,83,0
1,69,83,4
1,77,76,196
1,72,83,0
1,68,75,4
1,75,80,100
1,72,76,0
1,68,78,0
1,74,75,192
1,72,79,4
1,68,80,0
1,77,78,196
1,74,77,4
1,71,81,0
1,77,77,200
1,73,77,4
1,70,81,0
1,77,79,196
1,73,76,0
1,70,82,4
1,77,82,192
1,72,81,4
1,69,75,0
1,77,79,188
1,72,75,0
1,69,79,0
1,77,80,172
1,74,80,4
1,70,81,0
1,77,77,768
1,72,83,4
1,69,77,0
1,77,81,184
1,72,78,0
1,69,77,4
2,65,88,16912
2,65,91,212
2,65,89,200
2,65,84,204
2,63,87,4
2,63,83,108
2,63,90,200
2,67,89,200
2,66,91,212
2,66,86,204
2,65,85,224
2,65,89,196
2,67,87,204
2,58,63,1556
2,58,68,216
2,58,69,200
2,58,71,224
2,58,63,396
2,58,66,384
2,58,68,196
2,58,69,200
2,58,63,204
2,64,64,400
2,64,68,100
2,64,71,200
2,63,70,396
2,63,66,108
2,60,69,104
2,60,67,204
2,64,63,408
2,64,64,108
2,64,68,188
2,63,68,404
2,63,63,112
2,63,67,212
2,63,70,208
2,65,63,208
2,65,67,112
2,65,65,212
2,67,63,412
2,63,65,108
2,63,70,112
2,67,69,208
2,62,69,384
2,62,71,396
2,64,71,84
2,65,69,208
2,60,71,384
2,58,67,1356
2,58,71,204
2,58,70,200
2,58,63,208
2,58,67,400
2,58,70,404
2,58,63,204
2,58,70,204
2,58,65,212
2,64,67,396
2,64,67,112
2,64,64,204
2,63,67,404
2,63,71,112
2,60,71,108
2,60,64,204
2,64,66,380
2,64,70,116
2,64,71,208
2,63,63,404
2,63,68,108
2,63,66,204
2,63,63,200
2,65,71,204
2,65,70,112
2,65,69,204
2,67,68,384
2,63,67,100
2,63,67,104
2,67,64,204
2,62,69,384
2,62,63,396
2,64,67,84
2,65,66,220
2,64,70,204
2,64,71,208
2,65,71,208
2,65,67,212
2,65,66,204
2,65,64,188
2,63,71,16
2,63,63,100
2,63,64,204
2,67,64,212
2,66,69,224
2,66,67,200
2,65,66,192
2,65,65,208
2,67,66,180
2,65,69,1556
2,65,69,180
2,65,71,188
2,65,67,188
2,63,68,188
2,63,65,104
2,63,67,204
2,67,63,192
2,66,66,212
2,66,64,200
2,65,65,204
2,65,68,196
2,67,68,184
2,58,70,1564
2,58,70,188
2,58,66,200
2,58,71,204
2,58,68,412
2,58,71,396
2,58,64,208
2,58,64,188
2,58,63,204
2,64,68,400
2,64,71,108
2,64,68,200
2,63,63,404
2,63,69,108
2,60,71,104
2,60,69,204
2,64,69,380
2,64,67,112
2,64,67,208
2,63,68,380
2,63,65,104
2,63,69,212
2,63,70,200
2,65,65,208
2,65,69,116
2,65,64,212
2,67,65,376
2,63,63,108
2,63,64,104
2,67,65,212
2,62,65,400
2,62,67,396
2,64,71,84
2,65,71,212
2,60,65,400
2,58,70,1360
2,58,67,196
2,58,67,200
2,58,68,204
2,58,69,396
2,58,71,400
2,58,67,208
2,58,68,208
2,58,63,204
2,64,69,400
2,64,64,116
2,64,66,204
2,63,64,396
2,63,66,116
2,60,67,100
2,60,63,208
2,64,66,404
2,64,67,104
2,64,70,216
2,63,71,404
2,63,63,96
2,63,70,200
2,63,71,204
2,65,70,208
2,65,69,112
2,65,66,212
2,67,65,396
2,63,64,100
2,63,68,112
2,67,63,208
2,62,66,400
2,62,64,396
2,64,70,76
2,65,69,208
2,64,63,204
2,64,70,188
2,65,65,212
2,65,71,204
2,65,63,208
2,65,68,188
2,63,63,16
2,63,65,108
2,63,65,204
2,67,64,204
2,66,69,208
2,66,64,200
2,65,71,204
2,65,70,196
2,67,64,188
2,65,66,1552
2,65,71,208
2,65,63,184
2,65,67,188
2,63,71,16
2,63,63,100
2,63,66,204
2,67,67,208
2,66,67,212
2,66,67,188
2,65,70,204
2,65,64,208
2,67,65,184
2,65,65,1552
2,65,70,188
2,65,63,184
2,65,68,188
2,63,63,8
2,63,66,108
2,63,70,204
2,67,70,204
2,66,65,212
2,66,68,200
2,65,71,204
2,65,64,208
2,67,67,184
2,65,66,1552
2,65,64,208
2,65,69,184
2,65,68,204
2,63,64,20
2,63,63,100
2,63,67,204
2,67,71,216
2,66,71,216
2,66,71,208
2,65,67,204
2,65,70,200
2,67,64,180
2,65,65,1556
2,65,67,204
3,84,111,4632
3,81,113,40
3,77,114,28
3,81,111,32
3,84,107,32
3,81,107,28
3,77,109,36
3,81,113,40
3,84,110,36
3,81,109,32
3,77,112,32
3,81,106,32
3,84,110,44
3,81,110,32
3,77,110,32
3,80,106,40
3,84,113,48
3,80,107,28
3,77,110,48
3,80,113,32
3,84,107,32
3,80,112,32
3,77,114,32
3,80,106,36
3,84,113,52
3,80,113,24
3,77,106,32
3,80,113,36
3,84,106,40
3,80,113,32
3,77,106,32
3,80,110,36
3,86,110,44
3,83,113,40
3,79,110,32
3,83,110,32
3,86,107,32
3,83,112,32
3,79,106,36
3,83,109,40
3,85,109,44
3,82,109,32
3,78,111,32
3,82,106,40
3,85,109,44
