track,note,velocity,time
0,62,99,936
0,55,86,4
0,62,81,0
0,70,88,0
0,63,77,284
0,63,110,96
0,64,91,192
0,62,122,192
0,63,97,288
0,63,106,96
0,64,82,12
0,69,82,4
0,70,77,0
0,62,99,12
0,72,87,4
0,63,77,284
0,63,110,96
0,70,80,4
0,64,91,124
0,62,122,192
0,69,94,4
0,63,97,268
0,63,106,96
0,70,80,0
0,64,82,188
0,62,99,192
0,51,80,0
0,63,85,0
0,67,89,0
0,63,77,252
0,63,110,96
0,64,91,192
0,62,122,192
0,63,97,288
0,63,106,96
0,64,82,192
0,62,99,192
0,63,77,288
0,63,110,96
0,64,91,192
0,62,122,12
0,58,92,0
0,63,97,284
0,63,106,96
0,60,93,4
0,64,82,172
0,62,99,192
0,46,73,4
0,53,88,0
0,62,89,0
0,63,77,252
0,63,110,96
0,64,91,192
0,62,122,12
0,45,81,4
0,53,87,0
0,60,92,0
0,63,97,284
0,63,106,96
0,64,82,192
0,62,99,192
0,43,82,0
0,55,89,0
0,58,80,0
0,63,77,236
0,63,110,96
0,64,91,192
0,62,122,192
0,63,97,288
0,63,106,96
0,62,89,4
0,64,82,188
0,62,99,12
0,41,85,4
0,51,96,0
0,55,89,0
0,58,85,0
0,60,91,0
0,63,77,252
0,63,110,96
0,64,91,192
0,62,122,192
0,63,97,288
0,63,106,96
0,64,82,192
0,62,99,60
0,55,92,4
0,58,71,0
0,63,81,0
0,63,77,284
0,63,110,96
0,64,91,192
0,62,122,0
0,41,98,4
0,63,97,284
0,63,106,96
0,63,88,96
0,64,82,96
0,62,99,0
0,43,81,0
0,58,86,0
0,62,93,0
0,67,88,0
0,70,98,4
0,63,77,156
0,63,110,4
0,64,91,0
0,62,122,108
0,63,97,24
0,63,106,96
0,69,91,68
0,64,82,4
0,70,101,44
0,72,98,72
0,62,99,12
0,55,92,4
0,63,77,4
0,63,110,24
0,70,91,76
0,64,91,16
0,62,122,64
0,65,89,4
0,69,93,12
0,63,97,48
0,70,87,8
0,63,106,88
0,72,89,80
0,64,82,12
0,62,99,0
0,39,68,4
0,58,91,0
0,63,91,0
0,67,92,0
0,67,89,8
0,63,77,20
0,63,110,8
0,64,91,16
0,62,122,80
0,63,97,40
0,63,106,96
0,64,82,172
0,62,99,0
0,51,91,0
0,63,77,272
0,63,110,96
0,64,91,192
0,70,101,56
0,62,122,4
0,55,88,4
0,58,89,0
0,63,97,188
0,63,106,52
0,72,94,16
0,64,82,152
0,62,99,44
0,46,81,4
0,53,93,0
0,62,83,0
0,74,96,8
0,63,77,40
0,63,110,40
0,64,91,20
0,62,122,0
0,45,77,0
0,57,91,0
0,60,87,0
0,72,93,4
0,63,97,168
0,63,106,40
0,74,89,8
0,64,82,8
0,70,86,28
0,62,99,4
0,43,85,4
0,55,83,0
0,58,77,0
0,62,82,0
0,63,77,0
0,63,110,36
0,64,91,192
0,62,122,28
0,67,87,4
0,65,104,16
0,63,97,28
0,63,106,56
0,67,96,40
0,64,82,8
0,62,99,24
0,41,85,4
0,55,88,0
0,58,86,0
0,63,89,0
0,70,89,16
0,72,80,60
0,63,77,0
0,63,110,96
0,72,87,60
0,64,91,20
0,62,122,8
0,63,97,44
0,63,106,96
0,64,82,88
0,62,99,192
0,65,87,4
0,63,77,284
0,63,110,96
0,64,91,8
0,62,122,180
0,53,98,4
0,63,97,284
0,41,122,96
0,63,106,0
0,77,127,4
0,75,127,16
0,63,88,28
0,74,127,8
0,64,82,4
0,72,127,4
0,70,127,12
0,69,127,8
0,31,119,0
0,62,99,0
0,43,81,0
0,58,86,0
0,62,93,0
0,67,88,0
0,62,120,0
0,50,89,0
0,55,87,0
0,58,87,0
0,70,116,8
0,31,106,36
0,63,77,96
0,63,110,8
0,64,91,8
0,31,104,96
0,31,115,8
0,62,122,0
0,31,106,128
0,63,97,96
0,63,106,96
0,69,101,12
0,64,82,4
0,31,101,96
0,31,117,16
0,62,99,0
0,55,92,4
0,72,107,4
0,31,106,72
0,63,77,16
0,63,110,0
0,70,96,112
0,64,91,16
0,31,100,96
0,31,107,72
0,62,122,0
0,65,89,4
0,69,101,0
0,31,119,32
0,63,97,16
0,63,106,28
0,70,107,0
0,34,116,12
0,64,82,0
0,39,122,0
0,62,99,0
0,39,68,4
0,58,91,0
0,63,91,0
0,67,92,0
0,63,109,0
0,51,77,0
0,67,104,4
0,39,119,8
0,74,94,4
0,63,77,4
0,63,110,0
0,64,91,0
0,77,87,28
0,39,113,8
0,39,103,68
0,62,122,0
0,77,86,12
0,39,108,4
0,63,97,4
0,63,106,28
0,64,82,0
0,79,81,4
0,39,108,36
0,39,112,80
0,62,99,0
0,51,91,0
0,67,101,0
0,55,80,0
0,58,82,0
0,63,89,0
0,39,119,128
0,63,77,96
0,63,110,16
0,64,91,44
0,39,119,12
0,70,109,8
0,39,107,8
0,62,122,0
0,55,88,4
0,58,89,0
0,70,116,0
0,58,87,0
0,63,81,0
0,67,89,0
0,74,89,8
0,39,122,20
0,72,73,12
0,63,97,24
0,72,104,40
0,63,106,0
0,70,71,36
0,29,119,16
0,64,82,0
0,74,109,8
0,34,122,4
0,62,99,0
0,46,81,0
0,53,93,0
0,62,83,0
0,74,120,0
0,62,89,0
0,65,81,0
0,70,87,0
0,70,87,4
0,34,113,4
0,63,77,4
0,63,110,12
0,64,91,12
0,34,108,12
0,33,109,8
0,62,122,0
0,45,77,0
0,57,91,0
0,60,87,0
0,72,112,0
0,60,87,0
0,69,91,0
0,72,109,4
0,69,93,4
0,33,119,36
0,63,97,28
0,63,106,12
0,64,82,0
0,70,112,4
0,70,80,0
0,33,102,44
0,69,112,0
0,31,104,68
0,62,99,0
0,43,85,4
0,55,83,0
0,58,77,0
0,62,82,0
0,70,120,0
0,58,70,0
0,62,89,0
0,67,89,0
0,70,109,12
0,67,88,0
0,31,111,24
0,63,77,16
0,63,110,32
0,64,91,44
0,31,95,72
0,31,107,4
0,62,122,0
0,67,87,4
0,74,120,0
0,62,82,0
0,67,89,0
0,70,93,0
0,62,98,8
0,31,116,44
0,63,97,96
0,65,87,8
0,63,106,12
0,74,109,4
0,64,82,8
0,67,80,4
0,31,111,80
0,29,111,28
0,62,99,0
0,41,85,4
0,55,88,0
0,58,86,0
0,63,89,0
0,74,116,0
0,63,80,0
0,72,107,24
0,65,80,0
0,29,111,4
0,63,77,24
0,63,110,8
0,64,91,16
0,29,103,92
0,29,113,80
0,62,122,0
0,29,116,128
0,63,97,32
0,63,106,60
0,62,83,52
0,64,82,12
0,29,103,40
0,29,104,12
0,62,99,0
0,65,87,4
0,60,73,4
0,29,111,12
0,63,77,0
0,63,110,24
0,64,91,0
0,29,107,96
0,29,104,60
0,46,122,0
0,62,122,0
0,53,98,4
0,29,111,128
0,42,102,0
0,63,97,24
0,46,122,56
0,63,106,0
0,72,110,4
0,74,113,16
0,63,88,28
0,75,115,16
0,29,119,12
0,42,101,0
0,64,82,0
0,77,115,4
0,79,117,4
0,81,117,4
0,31,119,0
0,35,116,0
0,42,102,0
0,62,99,0
0,43,81,0
0,58,86,0
0,62,93,0
0,67,88,0
0,82,118,0
0,50,92,0
0,55,89,0
0,58,104,0
0,70,107,8
0,42,102,52
0,42,102,96
0,63,77,0
0,40,116,96
0,63,110,0
0,42,102,16
0,64,91,0
0,31,106,96
0,35,122,0
0,42,102,0
0,31,104,8
0,35,122,0
0,42,102,0
0,62,122,0
0,31,106,128
0,42,102,0
0,42,102,96
0,63,97,0
0,40,118,28
0,63,106,0
0,81,93,4
0,69,104,12
0,42,102,4
0,64,82,0
0,82,109,4
0,31,107,60
0,42,102,0
0,31,101,32
0,35,116,0
0,42,102,0
0,62,99,0
0,55,92,4
0,84,109,0
0,72,109,12
0,31,106,8
0,42,102,0
0,42,102,4
0,63,77,0
0,40,116,16
0,63,110,0
0,82,104,0
0,70,107,8
0,42,102,8
0,64,91,0
0,31,100,96
0,35,122,0
0,42,102,0
0,31,107,32
0,35,122,0
0,42,102,0
0,62,122,0
0,65,89,4
0,81,107,0
0,69,107,36
0,31,119,128
0,42,102,0
0,70,107,64
0,42,102,8
0,63,97,0
0,40,118,96
0,63,106,0
0,82,107,4
0,72,109,8
0,34,116,12
0,42,102,0
0,64,82,0
0,42,102,8
0,74,104,12
0,39,122,0
0,35,116,0
0,42,102,0
0,62,99,0
0,39,68,4
0,58,91,0
0,63,91,0
0,67,92,0
0,79,113,0
0,51,73,0
0,39,119,8
0,42,102,0
0,42,102,36
0,63,77,0
0,82,109,4
0,40,116,0
0,63,110,0
0,42,102,0
0,64,91,0
0,81,93,24
0,67,93,52
0,39,113,4
0,35,122,0
0,42,102,0
0,65,98,36
0,39,103,4
0,35,122,0
0,42,102,0
0,62,122,0
0,67,96,16
0,79,91,16
0,39,108,92
0,42,102,0
0,42,102,0
0,63,97,0
0,82,83,36
0,40,118,20
0,63,106,0
0,42,102,0
0,64,82,0
0,70,120,4
0,77,92,0
0,39,108,44
0,42,102,0
0,70,107,4
0,39,112,16
0,35,116,0
0,42,102,0
0,62,99,0
0,51,91,0
0,70,107,0
0,55,91,0
0,58,89,0
0,63,87,0
0,39,119,20
0,42,102,0
0,75,104,4
0,42,102,44
0,63,77,0
0,75,109,4
0,40,116,0
0,63,110,0
0,75,104,4
0,42,102,20
0,64,91,0
0,79,107,4
0,79,78,0
0,39,119,44
0,35,122,0
0,42,102,0
0,79,104,4
0,39,107,20
0,35,122,0
0,42,102,0
0,62,122,0
0,55,88,4
0,58,89,0
0,79,104,0
0,58,87,0
0,63,91,0
0,67,92,0
0,70,112,8
0,74,89,8
0,39,122,16
0,42,102,0
0,82,109,4
0,42,102,60
0,63,97,0
0,82,112,4
0,72,80,0
0,40,118,20
0,63,106,0
0,82,107,4
0,72,98,16
0,29,119,16
0,42,102,0
0,64,82,0
0,84,98,4
0,70,88,8
0,42,102,4
0,34,122,16
0,35,116,0
0,42,102,0
0,62,99,0
0,46,81,0
0,53,93,0
0,62,83,0
0,86,109,0
0,62,89,0
0,65,89,0
0,70,98,0
0,74,120,8
0,34,113,20
0,42,102,0
0,42,102,40
0,63,77,0
0,40,116,12
0,63,110,0
0,42,102,12
0,64,91,0
0,84,104,4
0,34,108,12
0,35,122,0
0,42,102,0
0,82,89,0
0,33,109,8
0,35,122,0
0,42,102,0
0,62,122,0
0,45,77,0
0,57,91,0
0,60,87,0
0,84,107,0
0,60,93,0
0,69,101,0
0,72,120,8
0,33,119,128
0,42,102,0
0,42,102,36
0,63,97,0
0,74,120,12
0,40,118,84
0,63,106,0
0,77,116,88
0,42,102,0
0,64,82,0
0,33,102,44
0,42,102,0
0,31,104,16
0,35,116,0
0,42,102,0
0,62,99,0
0,43,85,4
0,55,83,0
0,58,77,0
0,62,82,0
0,82,112,0
0,58,87,0
0,62,87,0
0,67,93,0
0,79,112,4
0,31,111,20
0,42,102,0
0,74,109,28
0,42,102,0
0,63,77,0
0,40,116,8
0,63,110,0
0,77,83,28
0,42,102,24
0,64,91,0
0,77,109,0
0,31,95,32
0,35,122,0
0,42,102,0
0,79,104,4
0,31,107,8
0,35,122,0
0,42,102,0
0,62,122,0
0,67,87,4
0,82,109,0
0,62,83,0
0,67,89,0
0,70,104,0
0,79,98,8
0,74,116,8
0,31,116,128
0,42,102,0
0,42,102,28
0,63,97,0
0,72,94,16
0,77,81,44
0,40,118,8
0,63,106,0
0,86,116,0
0,70,101,16
0,42,102,8
0,64,82,0
0,74,80,12
0,31,111,80
0,42,102,0
0,29,111,12
0,35,116,0
0,42,102,0
0,62,99,0
0,41,85,4
0,55,88,0
0,58,86,0
0,63,89,0
0,86,112,0
0,63,96,0
0,70,107,0
0,77,81,0
0,74,112,16
0,29,111,28
0,42,102,0
0,42,102,16
0,63,77,0
0,72,107,24
0,40,116,4
0,63,110,0
0,42,102,0
0,64,91,0
0,29,103,16
0,35,122,0
0,42,102,0
0,29,113,16
0,35,122,0
0,42,102,0
0,62,122,0
0,29,116,4
0,42,102,0
0,42,102,52
0,63,97,0
0,40,118,96
0,63,106,0
0,79,89,116
0,42,102,16
0,64,82,0
0,29,103,80
0,42,102,0
0,29,104,12
0,35,116,0
0,42,102,0
0,62,99,0
0,65,87,4
0,84,104,0
0,74,87,12
0,29,111,16
0,42,102,0
0,42,102,80
0,63,77,0
0,72,83,36
0,40,116,4
0,63,110,0
0,42,102,0
0,64,91,0
0,29,107,32
0,35,122,0
0,42,102,0
0,29,104,24
0,35,122,0
0,42,102,0
0,62,122,0
0,53,98,4
0,29,111,116
0,40,122,0
0,63,97,96
0,40,118,16
0,63,106,0
0,63,88,44
0,29,119,80
0,40,122,0
0,64,82,0
0,40,122,4
0,31,122,0
0,35,116,0
0,46,122,0
0,62,99,0
0,55,70,0
0,62,82,0
0,70,80,0
0,70,109,12
0,42,102,112
0,42,102,96
0,63,77,0
0,40,116,96
0,63,110,0
0,35,122,192
0,42,102,0
0,64,91,0
0,42,102,16
0,36,119,44
0,35,122,0
0,42,102,0
0,62,122,0
0,64,78,4
0,67,61,0
0,72,87,0
0,72,109,8
0,42,102,172
0,42,102,68
0,63,97,0
0,72,104,16
0,40,118,80
0,63,106,0
0,72,101,88
0,46,122,12
0,64,82,0
0,29,108,4
0,35,116,0
0,42,102,0
0,62,99,0
0,53,72,0
0,60,83,0
0,65,29,0
0,69,78,0
0,69,98,28
0,42,102,80
0,42,102,48
0,63,77,0
0,67,88,20
0,40,116,76
0,63,110,0
0,65,91,72
0,29,111,24
0,35,122,0
0,42,102,0
0,64,91,0
0,42,102,0
0,29,113,20
0,35,122,0
0,42,102,0
0,62,122,0
0,42,102,32
0,42,98,96
0,63,97,0
0,40,122,96
0,63,106,0
0,36,104,16
0,46,122,0
0,64,82,0
0,41,104,112
0,35,116,0
0,42,102,0
0,62,99,0
0,51,65,4
0,72,78,0
0,42,102,140
0,42,102,96
0,63,77,0
0,40,116,96
0,63,110,0
0,35,122,192
0,42,102,0
0,64,91,0
0,41,113,4
0,42,102,0
0,41,108,32
0,35,122,0
0,42,102,0
0,62,122,0
0,72,112,8
0,41,111,92
0,42,102,0
0,42,98,40
0,63,97,0
0,74,101,24
0,40,122,72
0,63,106,0
0,74,85,4
0,75,80,56
0,29,104,32
0,46,122,0
0,64,82,0
0,75,71,4
0,74,89,36
0,34,119,12
0,35,116,0
0,42,102,0
0,62,99,0
0,50,75,4
0,70,70,0
0,74,81,0
0,42,102,36
0,42,102,12
0,63,77,0
0,40,116,0
0,63,110,0
0,34,104,80
0,35,122,0
0,42,102,0
0,64,91,0
0,42,102,32
0,34,119,28
0,35,122,0
0,42,102,0
0,62,122,0
0,42,102,140
0,42,98,96
0,63,97,0
0,40,122,96
0,63,106,0
0,72,109,44
0,34,122,68
0,46,122,0
0,64,82,0
0,70,98,28
0,72,109,0
0,29,109,12
0,35,116,0
0,42,102,0
0,62,99,0
0,53,77,0
0,65,78,0
0,69,87,0
0,72,82,0
0,42,102,172
0,74,104,56
0,42,102,4
0,63,77,0
0,40,116,96
0,63,110,0
0,74,104,4
0,29,116,12
0,35,122,0
0,42,102,0
0,64,91,0
0,42,102,4
0,31,106,12
0,35,122,0
0,42,102,0
0,62,122,0
0,55,71,0
0,62,77,0
0,67,80,0
0,70,61,0
0,42,102,24
0,42,98,8
0,63,97,0
0,40,122,12
0,63,106,0
0,31,108,112
0,46,122,0
0,64,82,0
0,70,98,8
0,36,109,4
0,35,116,0
0,42,102,0
0,62,99,0
0,48,76,0
0,63,57,0
0,72,68,0
0,42,102,172
0,72,104,60
0,42,102,36
0,63,77,0
0,40,116,96
0,63,110,0
0,74,104,32
0,36,106,80
0,35,122,0
0,42,102,0
0,64,91,0
0,42,102,0
0,74,98,16
0,36,106,16
0,35,122,0
0,42,102,0
0,62,122,0
0,42,102,12
0,42,98,8
0,63,97,0
0,40,122,0
0,63,106,0
0,36,108,128
0,46,122,0
0,64,82,0
0,41,107,12
0,35,116,0
0,42,102,0
