track,note,velocity,time
0,76,89,1340
0,79,84,0
0,84,77,0
0,60,95,0
0,55,106,708
0,60,91,36
0,55,95,84
0,60,107,108
0,74,82,76
0,77,83,0
0,82,73,0
0,58,102,0
0,72,75,0
0,77,73,0
0,81,88,0
0,67,114,0
0,60,99,384
0,72,87,76
0,77,76,0
0,80,88,0
0,56,105,0
0,72,119,0
0,53,91,0
0,72,90,0
0,76,76,0
0,79,77,0
0,60,95,0
0,48,103,0
0,60,90,8
0,60,104,48
0,60,96,36
0,65,127,0
0,60,99,28
0,63,124,0
0,60,103,28
0,62,127,0
0,60,107,28
0,60,114,0
0,60,90,48
0,60,121,0
0,62,123,16
0,42,108,48
0,60,93,0
0,63,115,0
0,42,121,92
0,42,122,0
0,72,80,0
0,75,87,0
0,79,75,0
0,82,82,0
0,42,121,92
0,46,114,48
0,60,90,0
0,42,119,188
0,42,110,92
0,46,120,48
0,60,103,0
0,42,123,188
0,42,113,92
0,46,124,36
0,60,94,0
0,60,114,0
0,42,107,16
0,62,127,0
0,42,123,92
0,46,119,16
0,60,108,0
0,63,127,0
0,42,123,188
0,42,121,92
0,46,115,48
0,84,98,0
0,60,95,0
0,42,106,76
0,42,123,92
0,46,114,48
0,60,105,0
0,42,114,36
0,65,116,0
0,42,120,92
0,46,116,16
0,60,102,0
0,63,125,92
0,42,114,96
0,42,110,16
0,46,119,48
0,60,92,0
0,67,118,0
0,42,109,76
0,72,83,0
0,77,90,0
0,81,77,0
0,42,120,92
0,46,116,48
0,60,91,0
0,42,112,188
0,42,112,92
0,46,123,48
0,60,109,0
0,42,105,188
0,42,110,92
0,46,107,48
0,60,90,0
0,42,118,188
0,42,124,92
0,46,106,48
0,60,105,0
0,42,123,76
0,72,91,0
0,77,76,0
0,80,78,0
0,72,90,0
0,60,98,0
0,42,122,92
0,46,121,92
0,42,116,188
0,42,121,92
0,46,118,92
0,42,111,36
0,62,89,0
0,74,89,0
0,65,119,0
0,42,119,92
0,46,114,16
0,63,115,0
0,42,120,16
0,65,127,0
0,42,113,92
0,46,118,16
0,63,114,0
0,42,105,44
0,75,101,0
0,63,101,0
0,42,106,92
0,46,121,92
0,42,111,96
0,42,117,92
0,46,115,92
0,42,118,44
0,65,114,0
0,77,114,0
0,42,109,92
0,46,116,92
0,42,109,76
0,42,114,92
0,35,114,24
0,38,94,0
0,49,110,0
0,36,109,0
0,72,82,0
0,76,77,0
0,79,72,0
0,84,86,0
0,84,124,0
0,72,124,0
0,84,124,0
0,72,122,0
0,31,105,204
0,33,109,28
0,36,111,28
0,31,107,220
0,33,110,28
0,36,106,28
0,31,124,220
0,33,122,28
0,36,122,28
0,39,114,28
0,38,87,28
0,40,121,0
0,38,93,28
0,43,107,0
0,38,88,92
0,38,78,28
0,45,121,0
0,35,122,28
0,42,121,0
0,49,119,0
0,29,111,0
0,53,77,0
0,57,82,0
0,60,86,0
0,64,79,0
0,42,108,92
0,46,109,28
0,29,107,0
0,35,106,28
0,38,89,0
0,42,121,0
0,24,119,0
0,42,106,92
0,46,120,28
0,26,105,0
0,64,114,0
0,35,118,28
0,42,124,0
0,29,123,0
0,64,118,0
0,42,114,92
0,46,120,16
0,29,112,0
0,62,115,0
0,35,124,16
0,38,81,0
0,42,119,0
0,24,115,0
0,64,116,0
0,42,114,92
0,46,108,16
0,26,123,0
0,60,127,0
0,35,113,28
0,42,119,0
0,29,114,0
0,42,106,92
0,46,112,28
0,29,115,0
0,35,113,28
0,38,84,0
0,42,112,0
0,24,122,0
0,60,117,0
0,42,110,92
0,46,117,28
0,26,110,0
0,35,124,28
0,42,121,0
0,29,112,0
0,42,115,92
0,46,121,28
0,29,123,0
0,57,121,0
0,35,109,28
0,38,86,0
0,42,110,0
0,24,107,0
0,42,111,92
0,46,109,28
0,26,111,0
0,62,110,0
0,35,122,28
0,42,117,0
0,31,120,0
0,55,83,0
0,59,86,0
0,62,78,0
0,64,90,0
0,42,116,92
0,46,124,28
0,31,109,0
0,35,117,28
0,38,88,0
0,42,122,0
0,26,110,0
0,42,107,92
0,46,105,28
0,28,108,0
0,35,119,28
0,42,108,0
0,31,107,0
0,42,115,92
0,46,105,28
0,31,117,0
0,35,124,28
0,38,86,0
0,42,120,0
0,26,110,0
0,42,123,36
0,46,120,28
0,28,113,0
0,64,127,0
0,35,105,16
0,42,107,0
0,31,105,0
0,42,114,92
0,46,110,28
0,31,111,0
0,64,123,0
0,35,110,28
0,38,94,0
0,42,109,0
0,26,107,0
0,42,124,92
0,46,117,28
0,28,121,0
0,60,119,0
0,35,124,16
0,42,109,0
0,31,118,0
0,62,114,0
0,42,121,92
0,46,109,16
0,31,111,0
0,60,116,0
0,35,112,16
0,38,95,0
0,42,120,0
0,26,113,0
0,57,113,0
0,42,113,92
0,46,123,28
0,28,118,0
0,35,106,28
0,42,121,0
0,29,123,0
0,53,88,0
0,57,86,0
0,60,77,0
0,64,91,0
0,42,111,92
0,46,120,28
0,29,111,0
0,35,124,28
0,38,93,0
0,42,107,0
0,24,113,0
0,42,117,92
0,46,112,28
0,26,124,0
0,64,112,0
0,35,117,28
0,42,115,0
0,29,110,0
0,64,110,0
0,42,118,92
0,46,110,16
0,29,107,0
0,62,120,0
0,35,124,16
0,38,86,0
0,42,106,0
0,24,117,0
0,64,120,0
0,42,110,92
0,46,122,16
0,26,108,0
0,60,120,0
0,35,120,28
0,42,114,0
0,29,115,0
0,42,119,92
0,46,120,28
0,29,121,0
0,35,115,28
0,38,79,0
0,42,108,0
0,24,114,0
0,60,120,0
0,42,105,92
0,46,121,28
0,26,121,0
0,35,108,28
0,42,114,0
0,29,110,0
0,42,121,92
0,46,118,28
0,29,121,0
0,57,110,0
0,35,117,28
0,38,81,0
0,42,118,0
0,24,120,0
0,42,116,92
0,46,115,28
0,26,106,0
0,62,127,0
0,35,124,28
0,42,123,0
0,31,122,0
0,55,77,0
0,60,87,0
0,62,89,0
0,42,119,92
0,46,106,28
0,31,120,0
0,35,117,28
0,38,94,0
0,42,118,0
0,26,113,0
0,42,108,92
0,46,124,28
0,28,115,0
0,35,124,28
0,42,116,0
0,31,118,0
0,42,115,92
0,46,122,28
0,31,116,0
0,35,124,28
0,38,87,0
0,42,116,0
0,26,115,0
0,42,120,92
0,46,120,28
0,28,109,0
0,35,113,28
0,42,114,0
0,31,113,0
0,55,86,0
0,59,74,0
0,62,90,0
0,67,86,0
0,42,120,92
0,46,117,28
0,31,108,0
0,35,115,28
0,38,91,0
0,42,112,0
0,26,118,0
0,42,123,92
0,46,110,28
0,28,112,0
0,35,111,28
0,42,109,0
0,31,119,0
0,64,110,0
0,42,115,92
0,46,109,28
0,31,108,0
0,35,111,28
0,38,77,0
0,42,110,0
0,26,114,0
0,65,110,0
0,42,122,92
0,46,105,28
0,28,115,0
0,35,115,28
0,42,115,0
0,49,109,0
0,36,114,0
0,60,81,0
0,64,89,0
0,67,79,0
0,67,97,0
0,67,124,0
0,63,103,0
0,42,109,88
0,46,120,28
0,63,94,0
0,36,117,0
0,35,121,28
0,38,86,0
0,42,120,0
0,31,113,0
0,67,127,0
0,64,94,2
0,42,123,90
0,46,117,28
0,33,120,0
0,64,94,2
0,64,109,22
0,35,107,28
0,42,118,0
0,36,111,0
0,67,115,0
0,63,99,2
0,42,107,8
0,46,106,28
0,36,117,0
0,67,117,0
0,63,97,2
0,35,124,28
0,38,88,0
0,42,109,0
0,64,90,0
0,31,120,0
0,42,116,24
0,46,114,28
0,33,115,0
0,67,110,0
0,64,102,0
0,64,96,90
0,35,123,28
0,42,110,0
0,63,93,0
0,36,121,0
0,42,115,24
0,63,91,26
0,46,113,2
0,36,114,0
0,67,127,0
0,35,113,28
0,38,79,0
0,42,122,0
0,31,107,0
0,64,105,0
0,42,114,24
0,46,105,28
0,33,110,0
0,67,112,0
0,64,96,0
0,64,103,88
0,35,118,28
0,42,111,0
0,63,109,0
0,36,115,0
0,72,87,0
0,72,92,0
0,42,110,24
0,46,106,28
0,36,118,0
0,67,121,0
0,63,100,2
0,35,124,16
0,38,82,0
0,42,111,0
0,31,117,0
0,69,117,0
0,64,92,2
0,42,117,90
0,46,106,28
0,33,121,0
0,64,101,2
0,64,109,94
0,35,117,28
0,42,110,0
0,36,109,0
0,62,78,0
0,65,85,0
0,67,79,0
0,70,73,0
0,70,91,0
0,70,124,0
0,63,91,2
0,42,107,90
0,46,117,28
0,63,109,0
0,36,119,0
0,35,123,28
0,38,78,0
0,42,112,0
0,31,106,0
0,69,127,0
0,64,108,0
0,42,109,88
0,46,107,28
0,64,104,0
0,33,113,0
0,64,91,94
0,63,104,26
0,35,112,2
0,42,112,0
0,36,105,0
0,67,119,0
0,42,108,92
0,46,122,28
0,36,113,0
0,63,102,0
0,35,108,28
0,38,95,0
0,42,110,0
0,31,120,0
0,65,123,0
0,64,108,0
0,42,116,88
0,46,112,16
0,64,109,0
0,33,118,0
0,67,124,0
0,64,109,96
0,35,113,0
0,42,122,0
0,36,120,0
0,67,90,0
0,63,98,2
0,42,108,90
0,46,106,28
0,36,111,0
0,63,90,2
0,35,112,16
0,38,83,0
0,42,106,0
0,31,123,0
0,69,94,0
0,64,90,2
0,42,120,36
0,46,123,28
0,33,106,0
0,64,92,2
0,64,92,94
0,35,122,16
0,42,111,0
0,63,91,0
0,36,119,0
0,70,94,0
0,64,114,0
0,42,107,92
0,46,109,28
0,36,116,0
0,63,92,0
0,35,110,16
0,38,94,0
0,42,105,0
0,64,99,0
0,31,106,0
0,74,90,0
0,65,113,0
0,42,106,92
0,64,108,26
0,46,112,2
0,33,113,0
0,64,100,94
0,35,113,16
0,42,106,0
0,36,115,0
0,64,84,0
0,67,86,0
0,72,89,0
0,72,104,0
0,67,118,0
0,63,95,0
0,42,119,88
0,46,115,28
0,36,118,0
0,63,102,0
0,35,110,28
0,38,80,0
0,42,107,0
0,64,91,0
0,31,105,0
0,67,117,0
0,42,121,8
0,46,112,28
0,33,123,0
0,67,119,0
0,64,100,2
0,64,91,90
0,35,115,28
0,42,120,0
0,36,109,0
0,63,107,2
0,42,107,24
0,46,108,28
0,36,106,0
0,67,112,0
0,63,109,2
0,35,124,28
0,38,90,0
0,42,108,0
0,31,121,0
0,64,97,2
0,42,124,24
0,46,121,28
0,64,100,0
0,33,105,0
0,67,126,0
0,64,98,92
0,35,118,28
0,42,108,0
0,36,123,0
0,72,88,0
0,72,98,0
0,63,91,0
0,42,110,24
0,46,116,28
0,63,96,0
0,36,109,0
0,67,119,0
0,64,90,26
0,35,115,2
0,38,92,0
0,42,111,0
0,31,106,0
0,42,106,92
0,46,123,0
0,33,105,0
0,76,88,0
0,76,101,0
0,64,92,0
0,64,103,38
0,35,117,28
0,42,124,0
0,36,110,0
0,67,127,0
0,63,102,0
0,42,113,88
0,46,107,28
0,63,106,0
0,36,118,0
0,35,124,0
0,38,78,0
0,42,123,0
0,31,113,0
0,72,80,0
0,72,106,0
0,69,110,0
0,64,91,2
0,42,106,90
0,46,107,28
0,33,116,0
0,64,91,2
0,64,100,88
0,35,107,16
0,42,122,0
0,36,113,0
0,65,72,0
0,67,73,0
0,70,87,0
0,74,80,0
0,70,104,0
0,70,113,0
0,63,95,2
0,42,112,90
0,46,120,28
0,36,121,0
0,63,93,2
0,35,114,28
0,38,85,0
0,42,107,0
0,64,90,0
0,31,116,0
0,69,115,0
0,42,115,92
0,46,120,28
0,33,113,0
0,64,109,0
0,64,90,90
0,35,118,28
0,42,119,0
0,63,109,0
0,36,109,0
0,67,112,0
0,42,119,92
0,63,100,26
0,46,116,2
0,36,111,0
0,35,113,28
0,38,92,0
0,42,108,0
0,31,122,0
0,65,114,0
0,64,95,0
0,42,111,88
0,46,122,16
0,33,119,0
0,67,121,0
0,64,102,0
0,64,104,88
0,35,113,0
0,42,118,0
0,63,99,0
0,36,120,0
0,74,95,0
0,70,97,0
0,65,90,0
0,42,114,92
0,46,108,28
0,36,113,0
0,63,90,2
0,35,123,28
0,38,91,0
0,42,117,0
0,31,109,0
0,64,94,2
0,42,106,90
0,46,117,28
0,33,110,0
0,64,107,2
0,64,92,94
0,35,123,28
0,42,115,0
0,36,119,0
0,63,98,2
0,42,116,90
0,46,118,28
0,63,106,0
0,36,119,0
0,67,120,0
0,35,113,16
0,38,80,0
0,42,106,0
0,31,106,0
0,69,120,0
0,64,100,0
0,42,105,88
0,46,106,28
0,64,95,0
0,33,109,0
0,64,105,94
0,63,96,26
0,35,120,2
0,42,107,0
0,24,119,0
0,64,85,0
0,67,78,0
0,71,77,0
0,71,94,0
0,71,118,0
0,42,112,92
0,46,121,28
0,36,110,0
0,63,98,0
0,35,120,28
0,38,86,0
0,42,122,0
0,24,118,0
0,72,127,0
0,64,93,0
0,42,108,88
0,46,116,16
0,64,92,0
0,36,122,0
0,71,114,0
0,64,96,96
0,35,108,16
0,42,105,0
0,24,105,0
0,63,108,2
0,42,122,90
0,46,116,28
0,36,120,0
0,67,111,0
0,63,94,2
0,35,110,16
0,38,93,0
0,42,121,0
0,24,117,0
0,64,97,2
0,42,121,90
0,46,113,28
0,36,116,0
0,67,118,0
0,64,101,2
0,64,101,94
0,35,117,28
0,42,118,0
0,63,95,0
0,24,113,0
0,42,114,92
0,46,120,28
0,36,121,0
0,63,95,0
0,35,121,28
0,38,87,0
0,42,115,0
0,64,99,0
0,24,120,0
0,42,124,92
0,64,98,26
0,46,114,2
0,36,117,0
0,64,124,0
0,64,109,94
0,35,114,16
0,42,114,0
0,24,115,0
0,67,113,0
0,63,96,0
0,42,115,88
0,46,107,16
0,36,106,0
0,69,114,0
0,63,109,0
0,35,123,28
0,38,89,0
0,42,112,0
0,64,94,0
0,24,107,0
0,42,108,92
0,46,124,28
0,36,109,0
0,70,114,0
0,64,101,2
0,64,109,90
0,35,118,0
0,42,105,0
0,24,124,0
0,65,73,0
0,67,80,0
0,70,76,0
0,72,72,0
0,72,106,0
0,63,97,2
0,42,117,90
0,46,105,28
0,36,121,0
0,72,113,0
0,63,92,2
0,35,116,28
0,38,87,0
0,37,117,0
0,42,112,0
0,24,108,0
0,64,102,2
0,42,108,90
0,46,105,28
0,64,93,0
0,36,123,0
0,74,112,0
0,64,106,92
0,35,121,16
0,42,124,0
0,24,112,0
0,72,121,0
0,63,100,0
0,42,107,88
0,46,122,28
0,63,99,0
0,36,116,0
0,64,91,26
0,35,113,2
0,38,78,0
0,37,105,0
0,42,119,0
0,24,117,0
0,70,123,0
0,42,119,92
0,46,122,16
0,36,111,0
0,74,113,0
0,64,108,0
0,64,93,90
0,35,124,28
0,42,108,0
0,36,123,0
0,64,79,0
0,67,89,0
0,70,81,0
0,72,85,0
0,63,94,0
0,42,119,88
0,46,121,28
0,63,108,0
0,36,108,0
0,72,123,0
0,35,109,28
0,38,86,0
0,42,114,0
0,31,122,0
0,64,95,2
0,42,109,90
0,46,124,28
0,33,116,0
0,64,100,2
0,64,109,34
0,35,113,28
0,42,111,0
0,36,121,0
0,63,101,2
0,42,123,90
0,46,115,28
0,36,122,0
0,72,110,0
0,63,104,2
0,35,121,28
0,38,81,0
0,42,108,0
0,64,98,0
0,31,112,0
0,42,112,24
0,46,122,28
0,33,105,0
0,72,120,0
0,64,93,0
0,64,102,90
0,35,119,16
0,42,123,0
0,63,103,0
0,29,117,0
0,65,84,0
0,69,72,0
0,72,87,0
0,76,73,0
0,76,92,0
0,69,122,0
0,42,107,92
0,63,104,14
0,46,122,2
0,41,107,0
0,67,115,0
0,35,114,16
0,38,89,0
0,42,120,0
0,29,117,0
0,65,127,0
0,64,96,0
0,42,107,88
0,46,118,28
0,41,106,0
0,64,97,0
0,64,98,88
0,35,118,8
0,42,107,0
0,63,104,0
0,29,121,0
0,74,95,0
0,65,112,0
0,42,113,12
0,72,93,0
0,46,111,12
0,41,122,0
0,74,107,0
0,67,113,0
0,63,107,2
0,76,93,12
0,35,113,12
0,38,84,0
0,42,123,0
0,29,106,0
0,77,105,0
