track,note,velocity,time
0,34,127,628
0,35,102,4
0,53,118,4
0,58,118,12
0,62,118,4
0,53,127,8
0,65,118,0
0,58,127,8
0,62,127,12
0,34,125,272
0,35,102,0
0,53,118,16
0,58,118,12
0,62,118,4
0,53,127,8
0,65,118,0
0,58,127,8
0,62,127,4
0,34,127,276
0,35,102,4
0,53,114,12
0,58,114,4
0,62,114,8
0,65,114,8
0,53,127,4
0,58,127,4
0,62,127,12
0,34,125,32
0,35,102,4
0,53,127,72
0,58,127,8
0,62,127,8
0,65,127,12
0,53,127,4
0,58,127,8
0,62,127,12
0,53,127,8
0,65,127,0
0,58,127,4
0,62,127,12
0,34,127,272
0,35,102,4
0,53,114,16
0,58,114,0
0,62,114,8
0,53,127,8
0,65,114,0
0,58,127,8
0,62,127,12
0,74,124,244
0,34,123,8
0,35,102,4
0,74,124,64
0,53,118,16
0,58,118,8
0,62,118,8
0,65,118,8
0,53,127,4
0,58,127,4
0,62,127,8
0,34,123,16
0,75,120,4
0,35,102,0
0,53,116,32
0,58,116,4
0,74,112,8
0,62,116,4
0,65,116,8
0,53,127,4
0,58,127,4
0,62,127,4
0,34,125,20
0,72,120,4
0,35,102,0
0,53,123,20
0,58,123,4
0,62,123,8
0,65,123,8
0,53,127,0
0,58,127,8
0,62,127,0
0,53,127,4
0,65,127,0
0,58,127,8
0,62,127,0
0,70,124,64
0,34,121,4
0,35,102,4
0,74,120,4
0,53,114,20
0,58,114,8
0,62,114,8
0,65,114,4
0,53,127,4
0,58,127,4
0,62,127,4
0,74,127,8
0,34,121,264
0,35,102,4
0,53,114,20
0,58,114,4
0,62,114,8
0,65,114,4
0,53,127,4
0,58,127,4
0,62,127,4
0,34,121,4
0,35,102,4
0,53,116,32
0,58,116,8
0,62,116,4
0,53,125,12
0,65,116,0
0,58,125,4
0,62,125,8
0,34,123,60
0,35,102,4
0,53,118,92
0,58,118,8
0,62,118,8
0,65,118,12
0,53,127,64
0,58,127,12
0,62,127,0
0,53,127,8
0,65,127,0
0,58,127,8
0,62,127,8
0,34,121,8
0,35,102,8
0,53,111,8
0,74,127,8
0,58,111,0
0,62,111,4
0,65,111,4
0,53,127,4
0,58,127,4
0,62,127,4
0,34,118,176
0,35,102,8
0,74,127,4
0,74,122,132
0,53,121,44
0,58,121,8
0,62,121,0
0,53,127,8
0,65,121,0
0,58,127,8
0,62,127,8
0,75,119,20
0,34,118,8
0,35,102,4
0,53,114,28
0,58,114,8
0,62,114,4
0,74,120,4
0,53,127,4
0,65,114,0
0,58,127,8
0,62,127,8
0,34,118,228
0,35,102,0
0,72,122,4
0,53,117,28
0,58,115,8
0,62,115,8
0,65,115,8
0,53,127,44
0,58,127,8
0,62,127,8
0,70,117,4
0,53,127,4
0,65,127,0
0,58,127,4
0,62,127,0
0,72,116,116
0,36,125,20
0,35,102,8
0,52,109,8
0,58,109,8
0,55,109,0
0,60,109,0
0,55,125,8
0,64,109,0
0,60,125,0
0,58,125,4
0,64,125,8
0,36,118,24
0,35,102,4
0,52,116,0
0,58,116,8
0,55,116,0
0,60,116,4
0,55,123,8
0,64,116,0
0,60,123,8
0,58,123,0
0,64,123,0
0,36,118,276
0,35,102,4
0,52,109,52
0,58,109,4
0,55,109,4
0,60,109,4
0,64,109,8
0,55,121,4
0,60,121,4
0,58,121,4
0,64,121,0
0,36,125,48
0,35,102,8
0,52,125,40
0,58,125,12
0,55,125,0
0,60,125,4
0,64,125,8
0,52,127,60
0,58,127,4
0,55,127,4
0,60,127,8
0,64,127,8
0,55,121,4
0,60,121,4
0,58,121,0
0,64,121,8
0,36,123,268
0,35,102,8
0,52,118,28
0,58,118,8
0,55,118,0
0,60,118,8
0,55,123,8
0,64,118,0
0,60,123,8
0,58,123,0
0,64,123,8
0,72,119,16
0,36,127,16
0,35,102,4
0,52,111,36
0,58,111,8
0,55,111,0
0,60,111,8
0,72,126,4
0,55,121,4
0,64,111,0
0,60,121,4
0,58,121,0
0,64,121,0
0,74,120,16
0,36,123,8
0,35,102,8
0,52,111,0
0,58,111,4
0,55,111,4
0,60,111,4
0,72,112,12
0,64,111,4
0,55,123,4
0,60,123,0
0,58,123,0
0,64,123,4
0,74,117,116
0,36,109,32
0,35,102,4
0,52,111,36
0,58,111,12
0,55,111,0
0,60,111,4
0,64,111,12
0,52,127,4
0,58,127,4
0,55,127,0
0,31,102,8
0,60,127,0
0,64,127,8
0,55,127,4
0,60,127,4
0,58,127,0
0,64,127,4
0,77,127,16
0,29,107,4
0,35,102,4
0,74,126,128
0,53,117,28
0,60,117,8
0,57,117,0
0,63,117,8
0,57,119,8
0,65,117,0
0,63,119,8
0,60,119,0
0,65,119,8
0,72,111,92
0,29,109,116
0,35,102,4
0,53,118,16
0,60,118,12
0,57,118,0
0,63,118,4
0,57,117,8
0,65,118,0
0,63,117,4
0,60,117,4
0,65,117,0
0,29,114,12
0,35,102,0
0,53,116,0
0,60,116,8
0,57,116,0
0,63,116,0
0,65,116,4
0,57,114,4
0,63,114,4
0,60,114,0
0,65,114,8
0,29,112,20
0,35,102,4
0,53,109,44
0,60,109,8
0,57,109,4
0,63,109,4
0,65,109,8
0,53,127,0
0,60,127,8
0,57,127,0
0,63,127,8
0,57,117,8
0,65,127,0
0,63,117,4
0,60,117,0
0,65,117,8
0,29,105,276
0,35,102,0
0,53,115,24
0,60,115,4
0,57,115,4
0,63,115,4
0,65,115,8
0,57,117,4
0,63,117,4
0,60,117,4
0,65,117,4
0,29,109,32
0,72,117,8
0,35,102,0
0,53,110,28
0,60,110,4
0,57,110,4
0,63,110,0
0,65,110,4
0,57,117,4
0,63,117,4
0,60,117,4
0,65,117,8
0,72,112,140
0,29,104,4
0,74,117,0
0,35,102,0
0,53,112,20
0,60,112,8
0,57,112,0
0,72,113,4
0,63,112,4
0,57,119,8
0,65,112,0
0,63,119,8
0,60,119,0
0,65,119,12
0,29,112,164
0,69,119,0
0,35,102,4
0,53,117,8
0,60,117,12
0,57,117,0
0,63,117,0
0,65,118,8
0,53,127,8
0,60,127,12
0,57,127,0
0,63,127,4
0,57,119,4
0,65,127,0
0,63,119,8
0,60,119,0
0,65,119,4
0,65,115,88
0,34,112,16
0,74,122,8
0,35,102,0
0,53,118,0
0,58,118,12
0,62,118,0
0,53,125,4
0,65,118,0
0,58,125,0
0,62,125,0
0,34,116,20
0,35,102,4
0,53,121,12
0,58,121,8
0,62,121,4
0,53,123,8
0,65,121,0
0,58,123,8
0,62,123,4
0,34,111,20
0,35,102,4
0,53,118,12
0,58,118,8
0,62,118,8
0,53,123,8
0,65,118,0
0,58,123,8
0,62,123,8
0,34,112,20
0,35,102,4
0,53,118,52
0,58,118,12
0,62,118,4
0,53,127,8
0,65,118,0
0,58,127,8
0,62,127,12
0,53,127,0
0,58,127,4
0,62,127,12
0,35,56,0
0,65,127,4
0,53,127,4
0,58,127,4
0,34,125,8
0,62,127,0
0,65,127,8
0,35,102,0
0,53,127,4
0,58,127,4
0,62,127,8
0,74,127,216
0,74,127,56
0,74,127,32
0,75,127,8
0,29,105,44
0,74,122,16
0,31,97,64
0,72,124,0
0,33,100,72
0,70,126,8
0,46,45,0
0,62,97,36
0,58,97,0
0,65,97,4
0,58,112,0
0,74,98,12
0,34,116,0
0,62,112,0
0,58,127,4
0,35,102,0
0,62,127,4
0,42,76,0
0,65,127,4
0,70,95,4
0,65,112,4
0,58,119,4
0,62,119,4
0,38,77,0
0,74,127,4
0,42,74,0
0,65,119,4
0,53,114,4
0,58,114,4
0,62,114,4
0,58,114,8
0,62,114,4
0,65,114,4
0,42,51,0
0,29,107,8
0,35,102,0
0,74,127,4
0,42,56,0
0,58,110,20
0,62,110,4
0,65,110,4
0,42,41,0
0,58,117,4
0,62,117,4
0,38,77,0
0,65,117,4
0,42,75,0
0,53,123,4
0,58,123,4
0,62,123,0
0,58,101,0
0,62,101,4
0,65,101,8
0,42,33,0
0,70,92,16
0,79,102,4
0,53,121,4
0,58,121,4
0,62,121,4
0,34,112,4
0,62,127,4
0,35,102,0
0,58,127,4
0,42,75,0
0,67,127,4
0,65,121,4
0,53,123,8
0,58,123,0
0,62,123,8
0,38,77,4
0,65,123,4
0,42,73,0
0,53,123,4
0,58,123,4
0,62,123,4
0,58,119,8
0,62,119,0
0,65,119,8
0,42,32,0
0,29,105,4
0,35,102,4
0,42,77,0
0,58,98,8
0,62,98,0
0,65,98,4
0,42,32,0
0,58,114,8
0,62,114,0
0,38,77,0
0,65,114,4
0,42,76,0
0,53,125,4
0,58,125,4
0,62,125,4
0,58,112,32
0,62,112,4
0,65,112,8
0,42,29,0
0,81,99,8
0,70,90,4
0,53,121,0
0,58,121,0
0,62,121,4
0,34,116,4
0,65,121,4
0,35,102,0
0,62,127,4
0,42,76,0
0,69,127,4
0,58,127,4
0,53,125,188
0,58,125,12
0,62,125,0
0,38,77,4
0,65,125,4
0,42,74,0
0,53,125,4
0,58,125,4
0,62,125,4
0,58,122,8
0,62,122,4
0,65,122,4
0,42,51,0
0,74,127,0
0,29,107,8
0,35,102,0
0,42,56,0
0,58,112,0
0,62,112,4
0,65,112,4
0,42,41,0
0,74,124,0
0,58,110,0
0,62,110,4
0,38,77,0
0,65,110,4
0,53,125,4
0,42,75,0
0,58,125,4
0,62,125,8
0,58,110,0
0,62,110,4
0,75,127,4
0,65,110,0
0,42,33,0
0,82,100,4
0,53,118,4
0,70,93,4
0,58,118,4
0,62,118,0
0,34,112,4
0,70,127,4
0,35,102,0
0,62,127,4
0,42,75,0
0,58,127,4
0,65,118,4
0,74,116,76
0,53,121,112
0,58,121,8
0,62,121,0
0,38,77,0
0,53,127,8
0,65,121,0
0,42,73,0
0,58,127,4
0,62,127,8
0,58,125,12
0,62,125,0
0,65,125,4
0,42,32,0
0,72,124,8
0,29,104,0
0,35,102,4
0,42,77,4
0,53,106,8
0,58,106,4
0,62,106,0
0,42,32,8
0,65,106,4
0,53,109,0
0,70,124,4
0,58,109,0
0,34,100,8
0,62,109,0
0,38,77,0
0,65,109,4
0,42,76,0
0,53,127,4
0,58,127,4
0,62,127,4
0,72,122,0
0,42,29,40
0,64,97,4
0,55,125,0
0,67,97,4
0,60,97,4
0,58,97,0
0,58,125,0
0,36,101,4
0,60,125,4
0,35,102,0
0,64,127,4
0,42,76,0
0,60,127,4
0,67,127,4
0,64,125,4
0,55,116,0
0,58,116,12
0,60,116,0
0,64,116,4
0,55,123,4
0,38,77,0
0,42,74,0
0,60,123,4
0,58,123,4
0,64,123,4
0,58,123,12
0,60,123,4
0,64,123,0
0,42,51,0
0,74,122,8
0,31,102,4
0,35,102,4
0,42,56,4
0,58,102,16
0,60,102,0
0,42,41,4
0,64,102,4
0,58,118,4
0,60,118,8
0,38,77,0
0,42,75,0
0,64,118,4
0,55,127,4
0,60,127,0
0,58,127,4
0,64,127,0
0,55,107,56
0,58,107,8
0,60,107,8
0,64,107,4
0,42,33,8
0,55,109,0
0,58,109,4
0,36,112,4
0,60,109,0
0,64,109,4
0,35,102,0
0,42,75,0
0,55,125,208
0,58,125,8
0,60,125,0
0,38,77,0
0,64,125,8
0,42,73,0
0,55,127,4
0,60,127,4
0,58,127,4
0,64,127,4
0,58,123,4
0,60,123,12
0,64,123,0
0,42,32,0
0,31,105,16
0,35,102,4
0,42,77,4
0,58,93,8
0,60,93,4
0,64,93,8
0,42,32,0
0,58,118,12
0,60,118,4
0,38,77,0
0,55,127,4
0,64,118,0
0,42,76,0
0,60,127,8
0,58,127,0
0,64,127,4
0,55,104,0
0,58,104,4
0,60,104,8
0,64,104,4
0,42,29,4
0,55,107,0
0,58,107,4
0,60,107,4
0,36,112,4
0,64,107,4
0,35,102,0
0,42,76,4
0,55,116,88
0,58,116,4
0,60,116,8
0,38,77,4
0,42,74,0
0,64,116,4
0,55,127,4
0,60,127,4
0,58,127,4
0,64,127,4
0,58,125,8
0,60,125,4
0,64,125,4
0,42,51,4
0,72,124,44
0,31,109,16
0,35,102,0
0,42,56,0
0,58,82,28
0,60,82,8
0,64,82,8
0,42,41,4
0,58,118,72
0,60,118,4
0,38,77,0
0,55,125,8
0,64,118,0
0,42,75,0
0,60,125,4
0,58,125,4
0,72,124,4
0,64,125,0
0,55,111,0
0,58,111,4
0,60,111,8
0,64,111,4
0,42,33,0
0,55,97,16
0,58,97,0
0,36,112,4
0,60,97,0
0,64,97,4
0,35,102,0
0,74,122,4
0,42,75,0
0,55,114,4
0,58,114,8
0,60,114,4
0,38,77,0
0,64,114,4
0,55,125,4
0,42,73,0
0,60,125,4
0,58,125,4
0,64,125,0
0,72,117,32
0,58,121,16
0,60,121,4
0,64,121,8
0,42,32,0
0,31,100,20
0,74,120,8
0,35,102,0
0,42,77,0
0,58,102,236
0,60,102,8
0,42,32,8
0,64,102,4
0,58,118,8
0,36,109,8
0,60,118,4
0,38,77,0
0,42,76,0
0,64,118,4
0,55,123,4
0,60,123,4
0,58,123,4
0,77,127,4
0,64,123,0
0,58,107,8
0,60,107,4
0,46,40,4
0,74,127,4
0,64,107,4
0,63,97,8
0,69,97,4
0,60,97,4
0,65,97,4
0,60,114,4
0,29,100,4
0,57,114,0
0,63,114,0
0,35,102,0
0,60,127,4
0,42,76,0
0,69,127,4
0,65,127,4
0,65,114,4
0,60,116,160
0,57,116,0
0,63,116,0
0,38,77,0
0,65,116,8
0,42,74,0
0,57,117,4
0,63,117,4
0,60,117,0
0,72,127,4
0,65,117,4
0,60,119,28
0,63,119,8
0,65,119,4
0,42,51,4
0,65,116,8
0,36,121,32
0,35,102,4
0,42,56,0
0,60,99,224
0,63,99,8
0,65,99,12
0,42,41,0
0,60,114,40
0,38,77,0
0,63,114,0
0,42,75,0
0,65,114,4
0,57,119,4
0,63,119,4
0,60,119,0
0,65,119,4
0,60,112,16
0,63,112,4
0,65,112,4
0,42,33,0
0,69,92,8
0,60,105,12
0,57,105,0
0,29,100,8
0,63,105,0
0,35,102,0
0,65,105,4
0,42,75,0
0,72,77,8
0,60,121,16
0,57,121,4
0,63,121,0
0,38,77,4
0,65,121,4
0,42,73,0
0,57,117,4
0,63,117,4
0,60,117,0
0,65,117,4
0,60,119,60
0,63,119,4
0,65,119,8
0,42,32,0
0,36,112,28
0,35,102,4
0,42,77,0
0,60,106,0
0,63,106,8
0,65,106,4
0,42,32,0
0,60,114,16
0,63,114,8
0,38,77,4
0,42,76,0
0,65,114,4
0,57,119,4
0,63,119,4
0,60,119,0
0,65,119,4
0,60,110,132
0,63,110,12
0,42,29,4
0,65,110,4
0,60,105,28
0,57,105,0
0,29,104,4
0,63,105,0
0,65,105,4
0,35,102,0
0,42,76,4
0,60,121,304
0,57,121,0
0,63,121,8
0,38,77,4
0,65,121,4
0,42,74,0
0,57,117,4
0,63,117,4
0,60,117,0
0,65,117,4
0,60,117,24
0,63,117,0
0,65,117,4
0,42,51,0
0,72,122,48
0,36,114,16
0,35,102,0
0,42,56,0
0,60,103,228
0,63,103,8
0,65,103,12
0,42,41,0
0,60,112,72
0,63,112,8
0,65,112,4
0,38,77,0
0,42,75,0
0,57,119,4
0,63,119,4
0,60,119,4
0,65,119,4
0,60,117,4
0,63,117,8
0,72,124,8
0,65,117,0
0,42,33,0
0,60,107,12
0,57,107,4
0,63,107,0
0,29,107,4
0,35,102,0
0,42,75,0
0,65,107,4
0,74,127,4
0,60,112,104
0,57,112,4
0,63,112,0
0,65,112,8
0,38,77,0
0,42,73,0
0,57,122,4
0,63,122,4
0,60,122,4
0,72,126,4
0,65,122,0
0,60,119,28
0,63,119,8
0,65,119,8
0,42,32,0
0,36,105,4
0,35,102,4
0,42,77,4
0,74,127,8
0,60,108,232
0,63,108,4
0,65,108,0
0,42,32,4
0,60,114,88
0,29,96,8
0,63,114,0
0,38,77,4
0,65,114,4
0,42,76,0
0,57,119,4
0,63,119,4
0,60,119,4
0,65,119,0
0,74,115,8
0,42,29,8
0,62,97,8
0,53,121,0
0,58,97,4
