track,note,velocity,time
0,31,83,2392
0,35,74,0
0,53,88,0
0,81,81,0
0,77,71,0
0,81,58,0
0,65,127,360
0,53,42,4
0,40,52,4
0,69,127,0
0,37,88,8
0,43,113,0
0,65,89,4
0,69,94,4
0,79,48,172
0,76,66,4
0,53,78,4
0,35,76,12
0,33,85,4
0,64,127,0
0,36,63,8
0,67,127,0
0,48,111,8
0,53,53,112
0,64,108,4
0,40,52,0
0,37,88,4
0,33,79,0
0,67,118,0
0,45,127,0
0,74,65,0
0,77,52,0
0,53,92,8
0,31,75,4
0,35,80,4
0,62,111,344
0,65,127,8
0,43,111,4
0,40,62,12
0,53,61,0
0,37,97,8
0,76,57,224
0,53,81,4
0,33,70,12
0,35,78,0
0,79,45,0
0,48,111,160
0,64,93,4
0,67,127,8
0,47,101,4
0,36,63,0
0,33,66,8
0,38,110,8
0,77,71,8
0,31,69,4
0,35,102,0
0,53,86,0
0,81,81,0
0,81,57,4
0,35,78,176
0,43,117,172
0,40,61,4
0,65,127,0
0,53,57,4
0,37,96,4
0,69,127,0
0,33,70,168
0,79,47,0
0,76,70,4
0,53,86,0
0,35,71,8
0,36,63,4
0,64,127,4
0,48,113,4
0,67,127,4
0,64,127,12
0,45,121,4
0,33,63,0
0,67,127,4
0,40,64,4
0,37,99,4
0,53,59,0
0,74,62,12
0,77,46,4
0,35,68,8
0,53,92,0
0,31,70,0
0,43,117,352
0,62,127,0
0,65,127,8
0,35,52,8
0,40,64,0
0,37,99,8
0,53,56,0
0,31,79,64
0,35,70,4
0,53,83,0
0,76,32,4
0,72,60,0
0,36,70,4
0,60,127,0
0,48,113,4
0,45,87,0
0,64,127,4
0,38,89,4
0,38,72,0
0,41,57,0
0,69,39,0
0,35,79,0
0,42,55,0
0,63,73,0
0,48,52,0
0,72,51,0
0,69,93,4
0,65,39,0
0,48,57,8
0,62,57,156
0,64,48,0
0,62,50,48
0,36,51,72
0,62,96,8
0,38,91,8
0,44,83,0
0,53,51,0
0,53,56,4
0,42,62,140
0,64,48,0
0,63,49,0
0,57,50,0
0,43,68,0
0,57,55,0
0,42,17,8
0,63,30,0
0,35,84,16
0,42,80,0
0,63,73,0
0,45,68,0
0,41,55,12
0,35,53,4
0,64,48,0
0,62,57,0
0,42,61,8
0,53,47,0
0,53,51,8
0,62,50,60
0,42,26,8
0,62,96,72
0,36,64,0
0,38,88,8
0,42,85,0
0,70,41,0
0,42,68,4
0,64,46,0
0,63,57,0
0,48,38,0
0,74,50,4
0,48,41,8
0,42,34,52
0,63,52,0
0,69,34,4
0,29,50,0
0,41,61,4
0,35,78,0
0,42,83,0
0,63,77,0
0,70,42,4
0,72,42,8
0,64,46,24
0,62,55,0
0,48,38,4
0,42,60,0
0,69,30,0
0,48,41,4
0,62,34,68
0,42,16,8
0,53,46,60
0,62,86,12
0,36,57,0
0,38,93,8
0,42,79,0
0,53,50,4
0,43,55,160
0,69,80,8
0,42,64,0
0,64,53,0
0,63,52,0
0,57,57,12
0,57,62,16
0,42,18,0
0,63,31,0
0,69,95,16
0,45,60,4
0,35,78,4
0,42,86,0
0,63,81,0
0,70,80,20
0,53,49,0
0,46,72,0
0,35,62,8
0,64,53,0
0,62,63,0
0,42,66,8
0,53,53,0
0,62,46,20
0,42,24,0
0,72,86,28
0,48,76,8
0,62,90,0
0,48,40,4
0,38,85,4
0,42,82,0
0,48,44,4
0,50,65,20
0,42,63,0
0,64,53,0
0,63,50,0
0,44,40,40
0,63,19,0
0,76,92,12
0,65,39,12
0,72,45,0
0,35,88,0
0,42,75,0
0,63,67,0
0,38,71,0
0,76,31,0
0,64,53,88
0,62,63,0
0,42,66,8
0,50,50,0
0,50,55,8
0,62,58,64
0,42,31,8
0,62,96,4
0,57,53,0
0,38,89,8
0,42,85,0
0,72,85,0
0,57,58,0
0,42,50,140
0,64,55,0
0,63,33,0
0,60,52,4
0,72,103,8
0,45,64,4
0,60,57,8
0,42,14,60
0,63,17,0
0,35,67,8
0,42,89,0
0,63,53,0
0,64,54,4
0,64,59,16
0,35,68,132
0,64,55,0
0,62,66,0
0,42,67,8
0,62,48,72
0,42,25,0
0,60,48,20
0,62,92,0
0,38,89,8
0,42,83,0
0,48,44,0
0,60,52,4
0,48,50,12
0,42,70,8
0,64,57,0
0,63,60,0
0,49,56,12
0,57,42,8
0,57,46,0
0,42,22,32
0,63,36,0
0,50,50,8
0,35,88,0
0,42,91,0
0,63,88,0
0,64,57,176
0,62,68,0
0,42,68,8
0,50,45,0
0,50,49,8
0,62,66,64
0,42,36,8
0,57,51,68
0,62,90,4
0,45,60,0
0,38,77,0
0,42,82,0
0,57,56,4
0,42,69,168
0,64,63,0
0,63,58,0
0,60,55,0
0,65,74,4
0,38,60,8
0,60,60,8
0,42,33,28
0,63,50,0
0,69,83,12
0,35,70,4
0,42,74,0
0,63,66,0
0,64,54,0
0,64,59,8
0,70,82,16
0,60,58,0
0,53,50,4
0,35,53,4
0,64,63,0
0,62,75,0
0,42,73,8
0,60,63,0
0,62,52,16
0,42,27,8
0,57,49,60
0,72,81,0
0,55,50,4
0,62,66,8
0,38,77,0
0,42,67,0
0,57,53,4
0,50,44,144
0,42,66,8
0,64,55,0
0,63,53,0
0,52,40,12
0,50,48,0
0,42,44,4
0,63,66,0
0,34,42,4
0,74,92,4
0,46,70,0
0,35,78,0
0,42,74,0
0,63,66,0
0,70,46,0
0,65,30,8
0,77,35,4
0,74,31,0
0,64,55,124
0,62,66,0
0,42,67,8
0,53,46,4
0,53,50,20
0,62,66,52
0,42,36,8
0,62,101,12
0,48,55,0
0,70,86,4
0,38,90,0
0,42,89,0
0,58,61,0
0,58,67,8
0,42,62,12
0,64,29,0
0,63,49,0
0,48,37,8
0,62,60,4
0,70,89,4
0,62,66,16
0,42,34,0
0,63,52,0
0,35,77,0
0,42,83,0
0,63,77,0
0,65,63,4
0,50,50,4
0,65,69,8
0,35,60,148
0,64,29,0
0,62,34,0
0,42,47,8
0,62,69,72
0,42,38,8
0,62,53,4
0,41,46,0
0,62,108,0
0,38,91,4
0,42,93,0
0,62,58,0
0,42,48,168
0,64,48,0
0,63,30,0
0,58,46,4
0,58,50,4
0,42,31,76
0,63,49,0
0,34,48,20
0,46,58,0
0,35,81,0
0,42,80,0
0,63,73,0
0,64,48,168
0,62,57,0
0,42,61,8
0,53,51,0
0,53,56,16
0,62,62,56
0,42,34,8
0,62,105,72
0,58,43,4
0,38,89,4
0,42,91,0
0,48,64,0
0,58,47,4
0,42,60,40
0,64,62,0
0,63,46,0
0,48,61,8
0,62,43,0
0,65,71,4
0,62,47,12
0,42,33,20
0,63,50,0
0,50,60,0
0,35,67,0
0,42,83,0
0,63,77,0
0,62,69,0
0,70,86,4
0,62,75,4
0,58,43,20
0,41,45,4
0,35,64,0
0,64,62,0
0,62,74,0
0,42,72,8
0,58,47,0
0,62,58,72
0,70,87,4
0,42,31,4
0,58,73,8
0,62,72,4
0,46,55,8
0,38,94,0
0,42,70,0
0,58,80,4
0,70,107,120
0,42,67,20
0,64,49,0
0,63,55,0
0,53,41,8
0,53,45,16
0,44,50,44
0,63,33,0
0,72,87,4
0,83,37,0
0,49,63,0
0,35,82,0
0,42,69,0
0,63,58,0
0,37,50,8
0,77,51,0
0,73,31,4
0,84,60,0
0,96,21,0
0,64,49,12
0,62,58,0
0,42,62,4
0,58,66,0
0,58,72,8
0,62,42,20
0,42,22,8
0,62,74,12
0,49,55,4
0,38,89,4
0,42,72,0
0,61,72,8
0,61,79,24
0,42,62,12
0,64,57,0
0,63,49,0
0,49,42,12
0,65,68,4
0,65,74,4
0,42,16,4
0,63,29,0
0,49,61,24
0,35,70,0
0,42,85,0
0,63,80,0
0,70,74,12
0,70,70,4
0,70,81,4
0,35,62,32
0,64,57,0
0,62,68,0
0,42,68,8
0,62,18,72
0,42,23,8
0,46,60,40
0,62,92,16
0,61,58,0
0,38,106,8
0,42,83,0
0,61,63,0
0,42,70,128
0,64,48,0
0,63,60,0
0,49,46,8
0,58,50,4
0,58,55,4
0,42,29,52
0,63,46,0
0,65,40,4
0,49,70,12
0,35,81,0
0,42,85,0
0,63,80,0
0,37,60,8
0,64,48,176
0,62,57,0
0,42,61,8
0,58,58,0
0,58,63,8
0,62,22,24
0,42,9,8
0,49,55,72
0,62,88,0
0,38,93,8
0,42,80,0
0,61,64,0
0,61,70,8
0,64,58,36
0,42,72,4
0,63,62,0
0,49,50,0
0,65,60,4
0,65,66,4
0,42,24,52
0,63,39,0
0,49,61,32
0,35,72,0
0,42,73,0
0,63,63,0
0,70,66,12
0,70,72,16
0,64,58,28
0,62,69,0
0,35,67,4
0,42,69,4
0,62,46,76
0,42,24,8
0,46,42,52
0,62,80,12
0,42,75,8
0,38,95,4
0,61,50,0
0,61,55,8
0,64,51,128
0,49,46,4
0,46,75,4
0,58,42,4
0,58,46,4
0,46,47,4
0,57,40,20
0,60,40,4
0,57,44,4
0,60,44,4
0,64,69,4
0,45,63,4
0,64,65,0
0,35,78,0
0,38,67,0
0,44,38,0
0,63,73,0
0,79,89,4
0,64,75,0
0,35,68,172
0,42,62,0
0,63,48,8
0,42,48,72
0,63,42,8
0,48,61,68
0,38,59,12
0,44,83,0
0,63,80,0
0,45,61,20
0,42,62,0
0,63,49,0
0,42,48,60
0,63,30,0
0,55,31,24
0,58,40,16
0,55,34,8
0,58,44,8
0,43,61,4
0,35,67,12
0,38,68,0
0,42,80,0
0,63,73,0
0,62,51,8
0,62,56,0
0,62,56,20
0,35,56,0
0,42,61,8
0,63,48,0
0,76,90,4
0,48,42,24
0,42,57,8
0,63,42,0
0,48,70,8
0,38,60,8
0,42,85,0
0,63,80,0
0,74,93,80
0,42,68,8
0,63,57,0
0,43,61,0
0,42,64,16
0,63,52,0
0,53,38,0
0,53,41,24
0,57,47,0
0,57,51,24
0,60,65,4
0,72,92,4
0,41,72,4
0,35,70,0
0,38,73,0
0,42,83,0
0,63,77,0
0,60,61,4
0,60,67,24
0,35,50,148
0,42,60,8
0,63,46,0
0,48,36,80
0,42,47,0
0,63,29,0
0,48,80,36
0,38,62,4
0,42,79,0
0,63,72,0
0,42,64,8
0,63,52,0
0,41,64,0
0,42,49,48
0,63,31,0
0,52,38,8
0,52,41,24
0,55,49,12
0,55,53,16
0,69,103,0
0,59,70,0
0,35,72,0
0,38,73,0
0,42,86,0
0,63,81,0
0,59,66,0
0,40,69,12
0,59,72,8
0,68,46,164
0,35,48,4
0,42,66,0
0,63,53,0
0,67,35,32
0,66,46,40
0,42,55,0
0,63,39,0
0,65,64,36
0,48,64,32
0,64,90,0
0,38,63,0
0,42,82,0
0,63,75,0
0,40,63,156
0,42,63,12
0,63,50,0
0,44,40,0
0,63,19,0
0,38,72,0
0,69,70,0
0,35,75,0
0,38,72,0
0,42,75,0
0,63,67,0
0,64,55,0
0,60,37,0
0,69,53,4
0,60,45,0
0,76,99,0
0,60,40,4
0,64,60,0
0,69,58,4
0,35,60,132
0,42,66,8
0,63,53,0
0,48,42,76
0,42,62,4
0,63,49,0
0,38,63,16
0,42,85,0
0,63,80,0
0,48,72,0
0,42,50,80
0,63,33,0
0,38,64,4
0,69,52,8
0,64,49,0
0,60,38,4
0,69,57,16
0,64,53,0
0,60,41,8
0,42,30,44
0,63,17,0
0,35,72,8
0,38,80,0
0,42,89,0
0,63,53,0
0,38,72,4
0,74,72,168
0,35,61,8
0,42,67,8
0,63,55,0
0,72,51,24
0,42,56,24
0,63,40,0
0,48,56,4
0,74,76,32
0,48,66,8
0,38,58,0
0,42,83,0
0,63,77,0
0,64,53,0
0,69,49,12
0,60,44,4
0,64,58,4
0,69,53,12
0,60,48,8
0,76,92,36
0,42,70,8
0,63,60,0
0,38,33,12
0,42,52,88
0,63,36,0
0,64,47,4
0,60,45,4
0,35,72,4
0,38,77,0
0,42,91,0
0,63,88,0
0,38,82,0
0,69,52,0
0,64,51,0
0,60,49,4
0,69,57,4
0,35,67,168
0,42,68,8
0,63,57,0
0,48,55,80
0,42,67,0
0,63,55,0
0,38,57,24
0,42,82,0
0,63,75,0
0,48,73,0
0,42,69,0
0,63,58,0
0,64,50,8
0,38,50,0
0,69,51,4
0,60,51,0
0,64,55,16
0,69,56,4
0,60,56,0
0,42,63,28
0,63,50,0
0,38,74,4
0,35,70,8
0,38,75,0
0,42,74,0
0,63,66,0
0,35,62,176
0,42,73,8
0,63,63,0
0,48,52,64
0,42,58,16
0,63,44,0
0,64,85,0
0,48,73,20
0,38,62,24
0,42,67,0
0,63,55,0
0,38,66,28
0,46,62,4
0,63,53,0
0,46,77,4
0,63,66,0
0,57,44,52
0,60,44,16
0,57,48,8
0,45,63,8
0,64,65,0
0,35,78,0
0,38,79,0
0,44,74,0
0,63,66,0
0,81,86,4
0,60,48,0
0,64,57,16
0,64,62,24
0,35,52,136
0,42,67,8
0,63,55,0
0,48,42,72
0,35,31,0
0,42,67,8
0,63,55,0
0,48,61,44
0,38,60,12
0,42,89,0
0,63,84,0
0,45,61,0
0,42,62,0
0,63,49,0
0,42,64,76
0,63,52,0
0,55,33,8
0,58,47,16
0,55,36,0
0,43,61,8
0,58,51,4
0,35,67,4
0,38,78,0
0,42,83,0
0,63,77,0
0,62,56,0
0,62,58,12
0,62,63,20
0,79,76,48
0,35,50,36
0,42,47,8
0,63,29,0
0,77,77,8
0,48,42,60
0,42,69,8
0,63,58,0
0,48,70,16
0,38,58,8
0,42,93,0
0,63,90,0
0,42,48,0
0,63,30,0
0,43,61,0
0,42,62,80
0,63,49,0
0,53,38,0
0,57,42,16
0,53,41,8
0,60,65,4
0,41,74,8
0,35,70,0
0,38,85,0
0,42,80,0
0,63,73,0
0,57,46,0
0,60,52,4
0,60,57,24
0,35,50,148
0,42,61,8
0,63,48,0
0,72,92,4
0,41,79,32
0,42,64,0
0,63,52,0
0,43,83,24
0,38,58,8
0,42,91,0
0,63,88,0
0,72,102,8
0,42,60,92
0,63,46,0
0,44,80,0
0,42,63,28
0,63,50,0
0,57,38,12
0,60,44,24
0,57,41,0
0,69,99,8
0,60,48,0
0,45,74,4
0,60,70,8
0,35,72,0
0,38,78,0
0,42,83,0
0,63,77,0
0,67,55,4
0,67,60,12
0,33,52,156
0,35,48,4
0,42,72,8
0,63,62,0
0,42,62,80
0,63,49,0
0,67,52,68
0,40,55,4
0,38,51,8
0,42,70,0
0,63,60,0
0,79,90,4
0,39,52,12
0,42,67,4
0,63,55,0
0,44,50,44
0,63,33,0
0,60,37,16
0,64,60,0
0,38,72,4
0,69,51,0
0,35,75,0
0,38,82,0
0,42,69,0
0,63,58,0
0,60,45,4
0,64,66,4
0,60,40,0
0,69,51,4
0,69,56,20
0,76,93,8
0,35,84,144
0,42,62,8
0,63,49,0
0,42,52,80
0,63,36,0
0,48,42,4
0,38,56,12
0,42,72,0
0,63,62,0
0,48,72,0
0,64,43,88
0,60,41,4
0,42,62,4
0,63,49,0
0,69,42,0
0,38,55,12
0,64,47,0
0,60,45,4
0,69,46,4
0,42,47,44
0,63,29,0
0,35,72,44
0,38,73,0
0,42,85,0
0,63,80,0
0,38,72,0
0,74,69,0
0,35,77,24
0,42,68,8
0,63,57,0
0,72,57,12
0,48,56,24
0,42,37,0
0,63,16,0
0,74,76,8
0,64,45,0
0,69,47,4
0,48,66,4
0,38,52,0
0,42,83,0
0,63,77,0
0,60,41,0
0,64,49,0
0,69,51,4
0,60,45,4
0,76,55,20
0,42,70,8
0,63,60,0
0,38,42,12
0,42,60,76
0,63,46,0
0,60,54,0
0,64,64,24
0,60,59,0
0,35,72,20
0,38,78,0
0,42,85,0
0,63,80,0
0,38,82,0
0,64,70,0
0,69,52,24
0,69,57,24
0,35,77,128
0,42,61,8
0,63,48,0
0,48,55,80
0,42,40,0
0,63,19,0
0,38,48,24
0,42,80,0
0,63,73,0
0,48,73,0
0,42,72,104
0,63,62,0
0,64,45,0
0,69,47,8
0,38,50,0
0,60,49,4
