track,note,velocity,time
1,55,40,480
1,55,0,120
1,57,32,0
1,57,0,120
1,55,34,0
1,55,0,120
1,50,34,0
1,50,0,120
1,62,40,0
1,62,0,120
1,50,40,240
1,55,40,0
1,55,0,90
1,50,0,0
1,54,46,30
1,48,46,0
1,48,0,90
1,54,0,0
1,60,43,390
1,60,0,120
1,62,37,0
1,62,0,120
1,60,37,0
1,60,0,120
1,57,37,0
1,57,0,120
1,69,49,0
1,69,0,120
1,50,44,240
1,60,44,0
1,60,0,90
1,50,0,0
1,58,48,30
1,50,48,0
1,50,0,90
1,58,0,0
1,55,40,390
1,55,0,120
1,57,34,0
1,57,0,120
1,55,34,0
1,55,0,120
1,50,34,0
1,50,0,120
1,67,50,0
1,67,0,90
1,55,44,270
1,65,44,0
1,65,0,90
1,55,0,0
1,63,47,30
1,55,47,0
1,55,0,90
1,63,0,0
1,55,40,270
1,62,40,0
1,62,0,90
1,55,0,0
1,60,44,30
1,55,44,0
1,55,0,90
1,60,0,0
1,58,50,270
1,58,0,90
1,57,46,30
1,61,46,0
1,61,0,90
1,57,0,0
1,55,40,270
1,55,0,90
1,54,50,30
1,62,50,0
1,62,0,90
1,54,0,0
1,74,72,390
1,62,61,480
1,74,0,360
1,72,58,0
1,72,0,120
1,70,65,0
1,70,0,90
1,69,55,270
1,69,0,90
1,62,0,30
1,67,64,0
1,70,64,0
1,67,0,90
1,65,56,270
1,65,0,90
1,70,0,30
1,63,64,0
1,63,0,90
1,62,56,270
1,62,0,90
1,60,64,30
1,60,0,90
1,77,68,390
1,65,61,480
1,77,0,360
1,75,58,0
1,75,0,120
1,74,65,0
1,74,0,90
1,72,55,270
1,72,0,90
1,65,0,30
1,70,64,0
1,74,64,0
1,70,0,90
1,69,56,270
1,69,0,90
1,74,0,30
1,67,64,0
1,67,0,90
1,65,56,270
1,65,0,90
1,64,64,30
1,64,0,90
1,81,70,390
1,69,61,480
1,81,0,360
1,79,58,0
1,79,0,120
1,78,65,0
1,78,0,90
1,75,55,270
1,75,0,90
1,69,0,30
1,74,64,0
1,78,64,0
1,74,0,90
1,72,56,270
1,72,0,90
1,78,0,30
1,79,64,0
1,70,64,0
1,70,0,90
1,79,0,0
1,69,56,270
1,69,0,90
1,67,64,30
1,67,0,90
1,70,71,390
1,70,0,480
1,69,52,0
1,73,62,0
1,69,0,360
1,67,58,0
1,67,0,120
1,73,0,0
1,66,56,0
1,74,61,0
1,74,0,90
1,66,0,0
1,63,51,270
1,63,0,90
1,66,59,30
1,62,59,0
1,62,0,90
1,60,50,270
1,60,0,120
1,66,0,0
1,67,57,0
1,58,57,0
1,58,0,90
1,67,0,0
1,57,49,270
1,57,0,90
1,55,57,30
1,55,0,90
1,58,61,390
1,58,0,480
1,61,55,0
1,57,55,0
1,57,0,90
1,55,47,270
1,55,0,90
1,61,0,30
1,54,54,0
1,62,54,0
1,62,0,240
1,54,0,0
1,55,40,240
1,55,0,120
1,57,32,0
1,57,0,120
1,55,34,0
1,55,0,120
1,50,34,0
1,50,0,120
1,62,40,0
1,62,0,90
1,55,40,270
1,50,40,0
1,50,0,90
1,55,0,0
1,48,46,30
1,54,46,0
1,54,0,90
1,48,0,0
1,60,43,390
1,60,0,120
1,62,37,0
1,62,0,120
1,60,37,0
1,60,0,120
1,57,37,0
1,57,0,120
1,69,49,0
1,69,0,90
1,60,44,270
1,50,44,0
1,50,0,90
1,60,0,0
1,50,48,30
1,58,48,0
1,58,0,90
1,50,0,0
1,55,40,390
1,55,0,120
1,57,34,0
1,57,0,120
1,55,34,0
1,55,0,120
1,50,34,0
1,50,0,120
1,67,50,0
1,67,0,90
1,65,44,270
1,55,44,0
1,55,0,90
1,65,0,0
1,63,47,30
1,55,47,0
1,55,0,90
1,63,0,0
1,55,40,270
1,62,40,0
1,62,0,90
1,55,0,0
1,55,44,30
1,60,44,0
1,60,0,90
1,55,0,0
1,58,50,270
1,58,0,90
1,57,46,30
1,61,46,0
1,61,0,90
1,57,0,0
1,55,40,270
1,55,0,90
1,54,50,30
1,62,50,0
1,62,0,120
1,54,0,0
1,74,72,360
1,62,61,480
1,74,0,360
1,72,58,0
1,72,0,120
1,70,65,0
1,70,0,90
1,69,55,270
1,69,0,90
1,62,0,30
1,67,64,0
1,70,64,0
1,67,0,90
1,65,56,270
1,65,0,90
1,70,0,30
1,63,64,0
1,63,0,90
1,62,56,270
1,62,0,90
1,60,64,30
1,60,0,90
1,77,68,390
1,65,61,480
1,77,0,360
1,75,58,0
1,75,0,120
1,74,65,0
1,74,0,90
1,72,55,270
1,72,0,90
1,65,0,30
1,70,64,0
1,74,64,0
1,70,0,90
1,69,56,270
1,69,0,90
1,74,0,30
1,67,64,0
1,67,0,90
1,65,56,270
1,65,0,90
1,64,64,30
1,64,0,90
1,81,70,390
1,69,61,480
1,81,0,360
1,79,58,0
1,79,0,120
1,78,65,0
1,78,0,90
1,75,55,270
1,75,0,90
1,69,0,30
1,74,64,0
1,78,64,0
1,74,0,90
1,72,56,270
1,72,0,90
1,78,0,30
1,79,64,0
1,70,64,0
1,70,0,90
1,79,0,0
1,69,56,270
1,69,0,90
1,67,64,30
1,67,0,90
1,70,71,390
1,70,0,480
1,69,52,0
1,73,62,0
1,69,0,360
1,67,58,0
1,67,0,120
1,73,0,0
1,74,61,0
1,66,56,0
1,66,0,90
1,74,0,0
1,63,51,270
1,63,0,90
1,62,59,30
1,66,59,0
1,62,0,90
1,60,50,270
1,60,0,90
1,66,0,30
1,67,57,0
1,58,57,0
1,58,0,90
1,67,0,0
1,57,49,270
1,57,0,90
1,55,57,30
1,55,0,90
1,58,61,390
1,58,0,480
1,57,55,0
1,61,55,0
1,57,0,90
1,55,47,270
1,55,0,90
1,61,0,30
1,62,54,0
1,54,54,0
1,54,0,240
1,62,0,0
1,70,58,240
1,58,40,480
1,70,0,360
1,66,50,0
1,66,0,120
1,67,56,0
1,67,0,360
1,69,51,0
1,69,0,120
1,58,0,0
1,70,57,0
1,58,40,480
1,70,0,360
1,66,54,0
1,66,0,120
1,67,61,0
1,67,0,360
1,69,52,0
1,69,0,120
1,58,0,0
1,70,57,0
1,70,0,240
1,58,47,0
1,58,0,240
1,74,64,0
1,74,0,240
1,72,57,0
1,72,0,240
1,74,66,0
1,74,0,240
1,72,63,0
1,72,0,240
1,70,59,0
1,70,0,160
1,67,51,0
1,67,0,160
1,63,51,0
1,63,0,160
1,62,57,0
1,57,36,0
1,62,0,360
1,60,47,0
1,60,0,120
1,57,0,0
1,58,54,0
1,58,0,240
1,77,58,240
1,65,40,480
1,77,0,360
1,73,50,0
1,73,0,120
1,74,56,0
1,74,0,360
1,75,51,0
1,75,0,120
1,65,0,0
1,77,57,0
1,65,40,480
1,77,0,360
1,73,54,0
1,73,0,120
1,74,61,0
1,74,0,360
1,75,52,0
1,75,0,120
1,65,0,0
1,77,57,0
1,77,0,240
1,65,47,0
1,65,0,240
1,81,64,0
1,81,0,240
1,79,57,0
1,79,0,240
1,81,66,0
1,81,0,240
1,79,63,0
1,79,0,240
1,77,59,0
1,77,0,160
1,74,51,0
1,74,0,160
1,70,51,0
1,70,0,160
1,64,36,0
1,69,57,0
1,69,0,360
1,67,47,0
1,67,0,120
1,64,0,0
1,65,54,0
1,65,0,240
1,82,58,240
1,70,40,480
1,82,0,360
1,77,50,0
1,77,0,120
1,78,60,0
1,78,0,360
1,80,57,0
1,80,0,120
1,70,0,0
1,82,62,0
1,70,40,480
1,82,0,360
1,77,57,0
1,77,0,120
1,78,63,0
1,78,0,360
1,80,55,0
1,80,0,120
1,70,0,0
1,82,60,0
1,82,0,240
1,73,50,0
1,73,0,240
1,89,65,0
1,89,0,240
1,87,60,0
1,87,0,240
1,89,66,0
1,89,0,240
1,87,63,0
1,87,0,240
1,85,62,0
1,85,0,160
1,82,57,0
1,82,0,160
1,78,51,0
1,78,0,160
1,72,36,0
1,77,57,0
1,77,0,360
1,75,47,0
1,75,0,120
1,72,0,0
1,73,54,0
1,73,0,240
1,80,58,240
1,68,40,480
1,80,0,360
1,75,50,0
1,75,0,120
1,77,56,0
1,77,0,360
1,78,51,0
1,78,0,120
1,68,0,0
1,80,57,0
1,68,40,480
1,80,0,360
1,75,54,0
1,75,0,120
1,77,61,0
1,77,0,360
1,78,52,0
1,78,0,120
1,68,0,0
1,80,57,0
1,80,0,240
1,70,47,0
1,70,0,240
1,84,64,0
1,84,0,240
1,82,57,0
1,82,0,240
1,84,66,0
1,84,0,240
1,82,63,0
1,82,0,240
1,80,59,0
1,80,0,160
1,77,51,0
1,77,0,160
1,73,51,0
1,73,0,160
1,72,57,0
1,67,36,0
1,72,0,360
1,70,47,0
1,70,0,120
1,67,0,0
1,68,54,0
1,68,0,240
1,68,40,720
1,63,34,0
1,60,34,0
1,60,0,960
1,63,0,0
1,68,0,0
1,69,52,0
1,69,0,840
1,62,45,0
1,62,0,120
1,63,50,0
1,63,0,360
1,65,45,0
1,65,0,120
1,60,50,0
1,66,51,0
1,66,0,1440
1,60,0,0
1,66,52,0
1,66,0,840
1,59,45,0
1,59,0,120
1,60,50,0
1,60,0,360
1,61,45,0
1,61,0,120
1,63,51,0
1,53,45,840
1,53,0,120
1,63,0,0
1,63,51,0
1,54,50,0
1,54,0,360
1,56,45,0
1,56,0,120
1,63,0,0
1,57,51,0
1,50,45,840
1,50,0,120
1,51,50,0
1,51,0,360
1,52,45,0
1,52,0,120
1,57,0,0
1,54,51,0
1,49,45,840
1,49,0,120
1,50,50,0
1,50,0,360
1,52,51,0
1,52,0,120
1,54,0,0
1,54,55,0
1,54,0,840
1,55,40,600
1,55,0,120
1,57,32,0
1,57,0,120
1,55,34,0
1,55,0,120
1,50,34,0
1,50,0,120
1,62,40,0
1,62,0,90
1,50,40,270
1,55,40,0
1,55,0,90
1,50,0,0
1,48,46,30
1,54,46,0
1,54,0,90
1,48,0,0
1,60,43,390
1,60,0,120
1,62,37,0
1,62,0,120
1,60,37,0
1,60,0,120
1,57,37,0
1,57,0,120
1,69,49,0
1,69,0,90
1,60,44,270
1,50,44,0
1,50,0,90
1,60,0,0
1,58,48,30
1,50,48,0
1,50,0,90
1,58,0,0
1,55,40,390
1,55,0,120
1,57,34,0
1,57,0,120
1,55,34,0
1,55,0,120
1,50,34,0
1,50,0,120
1,67,50,0
1,67,0,90
1,65,44,270
1,55,44,0
1,55,0,90
1,65,0,0
1,63,47,30
1,55,47,0
1,55,0,90
1,63,0,0
1,62,40,270
1,55,40,0
1,55,0,90
1,62,0,0
1,60,44,30
1,55,44,0
1,55,0,90
1,60,0,0
1,58,50,270
1,58,0,90
1,61,46,30
1,57,46,0
1,57,0,90
1,61,0,0
1,55,40,270
1,55,0,90
1,62,50,30
1,54,50,0
1,54,0,90
1,62,0,0
1,74,72,390
1,62,61,480
1,74,0,360
1,72,58,0
1,72,0,120
1,70,65,0
1,70,0,90
1,69,55,270
1,69,0,90
1,62,0,30
1,70,64,0
1,67,64,0
1,67,0,90
1,65,56,270
1,65,0,90
1,70,0,30
1,63,64,0
1,63,0,90
1,62,56,270
1,62,0,90
1,60,64,30
1,60,0,90
1,77,68,390
1,65,61,480
1,77,0,360
1,75,58,0
1,75,0,120
1,74,65,0
1,74,0,90
1,72,55,270
1,72,0,90
1,65,0,30
1,70,64,0
1,74,64,0
1,70,0,90
1,69,56,270
1,69,0,90
1,74,0,30
1,67,64,0
1,67,0,90
1,65,56,270
1,65,0,90
1,64,64,30
1,64,0,90
1,81,70,390
1,69,61,480
1,81,0,360
1,79,58,0
1,79,0,120
1,78,65,0
1,78,0,90
1,75,55,270
1,75,0,90
1,69,0,30
1,74,64,0
1,78,64,0
1,74,0,90
1,72,56,270
1,72,0,90
1,78,0,30
1,79,64,0
1,70,64,0
1,70,0,90
1,79,0,30
1,69,56,240
1,69,0,90
1,67,64,30
1,67,0,90
1,70,71,390
1,70,0,480
1,69,52,0
1,73,62,0
1,69,0,360
1,67,58,0
1,67,0,120
1,73,0,0
1,66,56,0
1,74,61,0
1,74,0,240
1,66,0,0
1,68,51,120
1,68,0,90
1,67,59,30
1,71,59,0
1,67,0,240
1,65,49,120
1,65,0,90
1,71,0,30
1,63,55,0
1,72,55,0
1,72,0,240
1,63,0,0
1,62,47,120
1,62,0,120
1,60,54,0
1,60,0,480
1,63,56,0
1,63,0,480
1,66,49,0
1,62,49,0
1,62,0,360
1,60,41,0
1,60,0,120
1,66,0,0
1,58,39,0
1,67,47,0
1,67,0,480
1,58,0,0
1,63,38,0
1,60,38,0
1,67,45,0
1,67,0,480
1,60,0,0
1,63,0,0
1,69,48,0
1,66,40,0
1,60,40,0
1,63,40,0
1,63,0,480
1,69,0,0
1,66,0,0
1,60,0,0
1,70,57,0
1,62,48,0
1,62,0,240
1,70,0,0
1,72,47,0
1,72,0,240
1,69,51,0
1,69,0,240
1,70,47,0
1,70,0,240
1,67,58,0
1,67,0,240
1,74,54,0
1,74,0,240
1,74,62,0
1,74,0,480
1,63,40,0
1,67,47,0
1,60,40,0
1,60,0,480
1,67,0,0
1,63,0,0
1,69,50,0
1,63,42,0
1,60,42,0
1,66,42,0
1,66,0,480
1,69,0,0
1,63,0,0
1,60,0,0
1,62,50,0
1,70,59,0
1,70,0,240
1,62,0,0
1,72,49,0
1,72,0,240
1,69,53,0
1,69,0,240
1,70,49,0
1,70,0,240
1,67,63,0
1,67,0,240
1,75,56,0
1,75,0,240
1,75,63,0
1,75,0,480
1,63,47,0
1,67,56,0
1,60,47,0
1,60,0,238
1,67,0,0
1,63,0,0
1,60,49,242
1,63,49,0
1,69,59,0
1,63,0,480
1,60,0,0
1,62,52,0
1,62,0,240
1,69,0,0
1,70,51,0
1,70,0,240
1,67,56,0
1,67,0,240
1,69,51,0
1,69,0,240
1,65,63,0
1,65,0,240
1,74,56,0
1,74,0,240
1,74,67,0
1,74,0,480
1,58,47,0
1,62,47,0
1,65,56,0
1,65,0,238
1,62,0,0
1,58,0,0
1,62,49,242
1,67,59,0
1,58,49,0
1,58,0,480
1,62,0,0
1,60,52,0
1,60,0,240
1,67,0,0
1,69,51,0
1,69,0,240
1,65,56,0
1,65,0,240
1,67,51,0
1,67,0,240
1,63,63,0
1,63,0,240
1,72,56,0
1,72,0,240
1,72,67,0
1,72,0,480
1,60,47,0
1,55,47,0
1,63,56,0
1,55,0,238
1,60,0,0
1,63,0,0
1,57,49,242
1,54,49,0
1,62,58,0
1,54,0,480
1,57,0,0
1,55,52,0
1,55,0,240
1,62,0,0
1,63,50,0
1,63,0,240
1,60,55,0
1,60,0,240
1,62,50,0
1,62,0,240
1,58,64,0
1,58,0,240
1,67,56,0
1,67,0,240
1,67,64,0
1,67,0,480
1,60,51,0
1,55,51,0
1,63,61,0
1,63,0,360
1,55,0,0
1,60,0,0
1,54,54,120
1,62,64,0
1,57,54,0
1,57,0,480
1,54,0,0
1,55,57,0
1,55,0,240
1,62,0,0
1,62,56,0
1,62,0,240
1,64,59,0
1,64,0,240
1,66,63,0
1,66,0,240
1,67,66,0
1,67,0,240
1,69,69,0
1,69,0,240
1,70,75,0
1,70,0,480
1,70,67,0
1,67,67,0
1,74,80,0
1,74,0,480
1,67,0,0
1,70,0,0
1,70,70,0
1,67,70,0
1,76,83,0
1,73,70,0
1,73,0,480
1,70,0,0
1,67,0,0
1,76,0,0
1,77,74,0
1,69,62,0
1,74,62,0
1,74,0,240
1,69,0,0
1,77,0,0
1,79,73,0
1,79,0,240
1,76,80,0
1,76,0,240
1,77,73,0
1,77,0,240
1,74,88,0
1,74,0,240
1,82,80,0
1,82,0,240
1,82,88,0
1,82,0,480
1,70,67,0
1,67,67,0
1,74,80,0
1,74,0,480
1,67,0,0
1,70,0,0
1,70,70,0
1,67,70,0
1,76,83,0
1,73,70,0
1,73,0,480
1,70,0,0
1,67,0,0
1,76,0,0
1,77,74,0
1,69,62,0
1,74,62,0
1,74,0,240
1,69,0,0
1,77,0,0
