track,note,velocity,time
1,47,125,16896
1,52,104,68
1,54,125,52
1,55,90,46
1,54,125,38
1,47,125,826
1,52,125,54
1,55,118,80
1,54,125,24
1,52,118,28
1,45,125,70
1,52,118,80
1,54,118,26
1,55,95,60
1,54,125,22
1,52,125,1172
1,55,125,94
1,54,125,10
1,47,125,90
1,52,118,42
1,54,125,40
1,55,101,22
1,54,125,192
1,47,110,744
1,52,125,34
1,55,90,32
1,54,105,38
1,52,95,384
1,45,125,182
1,52,101,96
1,54,125,14
1,55,95,8
1,54,125,18
1,52,110,1178
1,55,104,44
1,54,125,26
1,52,125,40
1,48,125,936
1,59,69,48
1,55,125,54
1,64,76,48
1,54,118,14
1,62,73,20
1,52,104,62
1,59,73,0
1,47,125,1226
1,52,125,42
1,54,125,40
1,55,104,36
1,54,125,28
1,47,125,778
1,52,125,34
1,55,98,36
1,54,125,40
1,52,104,384
1,45,118,62
1,52,125,86
1,54,125,26
1,55,90,18
1,54,125,6
1,52,104,1186
1,55,118,50
1,54,125,22
1,47,125,100
1,52,110,22
1,54,125,24
1,55,98,6
1,54,110,192
1,47,98,1148
1,55,125,40
1,54,125,384
1,45,118,26
1,52,118,94
1,54,125,26
1,55,98,12
1,54,125,8
1,52,118,1176
1,55,118,78
1,54,125,8
1,52,118,32
1,48,125,1568
1,59,72,48
1,55,125,36
1,64,76,0
1,54,125,14
1,62,72,0
1,52,118,22
1,59,72,0
1,59,125,1510
1,59,101,42
1,59,90,16
1,59,98,68
1,59,104,52
1,83,69,204
1,59,127,32
1,86,69,24
1,62,127,32
1,86,69,64
1,62,120,32
1,84,69,352
1,60,120,32
1,83,69,114
1,59,112,18
1,81,69,16
1,57,127,16
1,84,69,34
1,60,120,32
1,88,69,8
1,64,106,8
1,87,69,24
1,63,112,32
1,88,69,16
1,64,94,32
1,86,69,612
1,62,120,24
1,83,69,4
1,59,106,32
1,86,69,10
1,62,127,10
1,86,69,52
1,62,97,32
1,84,69,592
1,60,90,32
1,83,69,16
1,59,106,26
1,81,69,12
1,57,120,12
1,84,69,2
1,60,106,32
1,88,69,0
1,64,112,32
1,86,69,34
1,88,69,0
1,62,76,18
1,64,97,0
1,86,69,26
1,62,120,32
1,83,69,6
1,59,120,32
1,47,125,6866
1,52,86,48
1,52,104,68
1,55,72,22
1,54,125,14
1,57,58,48
1,55,90,12
1,59,61,48
1,54,125,14
1,57,65,48
1,47,125,720
1,52,61,48
1,52,125,28
1,59,63,48
1,55,118,34
1,59,63,48
1,54,125,24
1,57,67,48
1,52,118,28
1,55,74,48
1,45,125,0
1,52,92,240
1,52,118,80
1,55,58,48
1,54,118,34
1,57,65,48
1,55,95,50
1,59,70,0
1,54,125,22
1,57,72,0
1,52,125,1172
1,52,67,48
1,55,125,96
1,59,77,48
1,54,125,10
1,57,86,6
1,47,125,90
1,52,100,48
1,52,118,42
1,55,65,0
1,54,125,48
1,57,72,0
1,55,101,22
1,59,70,0
1,54,125,46
1,57,63,0
1,47,110,744
1,52,67,48
1,52,125,34
1,59,74,48
1,55,90,32
1,59,65,48
1,54,105,24
1,57,67,48
1,52,95,336
1,55,69,38
1,45,125,134
1,52,80,32
1,52,101,22
1,55,61,0
1,54,125,14
1,57,63,0
1,55,95,8
1,59,63,0
1,54,125,18
1,57,72,0
1,52,110,1178
1,52,77,48
1,55,104,96
1,59,72,48
1,54,125,8
1,57,72,0
1,52,125,40
1,55,69,0
1,48,125,936
1,52,80,0
1,59,69,48
1,55,125,54
1,59,65,0
1,64,76,48
1,54,118,14
1,57,65,0
1,62,73,20
1,52,104,46
1,55,65,0
1,59,73,0
1,47,125,1226
1,52,92,0
1,52,125,42
1,55,65,0
1,54,125,40
1,57,74,0
1,55,104,36
1,59,70,0
1,54,125,28
1,57,67,0
1,47,125,770
1,52,70,0
1,52,125,34
1,59,69,0
1,55,98,36
1,59,67,0
1,54,125,40
1,57,80,0
1,52,104,384
1,55,70,0
1,45,118,62
1,52,86,180
1,52,125,34
1,55,65,0
1,54,125,26
1,57,70,0
1,55,90,18
1,59,63,0
1,54,125,6
1,57,67,0
1,52,69,1168
1,52,104,0
1,55,118,78
1,59,65,0
1,54,125,22
1,57,70,0
1,47,125,80
1,52,72,0
1,52,110,22
1,55,70,0
1,54,125,24
1,57,70,0
1,55,98,6
1,59,67,0
1,54,110,46
1,57,61,0
1,52,63,798
1,59,69,52
1,47,98,78
1,59,60,0
1,55,125,40
1,57,65,0
1,54,125,12
1,55,69,0
1,45,118,26
1,52,80,0
1,52,118,46
1,55,56,0
1,54,125,26
1,57,63,0
1,55,98,12
1,59,65,0
1,54,125,8
1,57,74,48
1,52,118,1106
1,52,63,48
1,55,118,96
1,59,74,48
1,54,125,8
1,57,72,0
1,52,118,32
1,55,72,0
1,48,125,1568
1,52,72,48
1,59,72,0
1,55,125,36
1,59,80,0
1,64,76,0
1,54,125,12
1,57,67,0
1,62,72,0
1,52,118,22
1,55,69,0
1,59,72,0
1,59,125,1510
1,59,101,42
1,59,90,16
1,59,98,68
1,59,104,52
1,59,127,236
1,62,127,56
1,62,120,96
1,60,120,384
1,59,112,146
1,57,127,16
1,60,120,66
1,64,106,8
1,63,112,56
1,64,94,48
1,62,120,644
1,59,106,36
1,62,127,10
1,62,97,84
1,60,90,624
1,59,106,48
1,57,120,12
1,60,106,34
1,64,112,32
1,62,76,66
1,64,97,0
1,62,120,58
1,59,127,15398
1,64,92,56
1,66,120,58
1,67,120,74
1,66,112,54
1,59,106,742
1,67,127,80
1,67,106,136
1,66,112,102
1,64,120,136
1,57,127,64
1,64,112,164
1,66,97,364
1,67,127,384
1,66,107,98
1,64,106,176
1,67,112,86
1,66,112,26
1,62,112,24
1,64,120,720
1,47,125,3822
1,52,92,0
1,52,125,42
1,55,65,0
1,54,125,40
1,57,74,0
1,55,104,36
1,59,70,0
1,54,125,28
1,57,67,0
1,47,125,770
1,52,70,0
1,52,125,34
1,59,69,0
1,55,98,36
1,59,67,0
1,54,125,40
1,57,80,0
1,52,104,384
1,55,70,0
1,45,118,62
1,52,86,180
1,52,125,34
1,55,65,0
1,54,125,26
1,57,70,0
1,55,90,18
1,59,63,0
1,54,125,6
1,57,67,0
1,52,69,1168
1,52,104,0
1,55,118,78
1,59,65,0
1,54,125,22
1,57,70,0
1,47,125,80
1,52,72,0
1,52,110,22
1,55,70,0
1,54,125,24
1,57,70,0
1,55,98,6
1,59,67,0
1,54,110,46
1,57,61,0
1,52,63,798
1,59,69,52
1,47,98,78
1,59,60,0
1,55,125,40
1,57,65,0
1,54,125,12
1,55,69,0
1,45,118,26
1,52,80,0
1,52,118,46
1,55,56,0
1,54,125,26
1,57,63,0
1,55,98,12
1,59,65,0
1,54,125,8
1,57,74,48
1,52,118,1106
1,52,63,48
1,55,118,96
1,59,74,48
1,54,125,8
1,57,72,0
1,52,118,32
1,55,72,0
1,48,125,1568
1,52,72,48
1,59,72,0
1,55,125,36
1,59,80,0
1,64,76,0
1,54,125,12
1,57,67,0
1,62,72,0
1,52,118,22
1,55,69,0
1,59,72,0
1,59,125,1510
1,59,101,42
1,59,90,16
1,59,98,68
1,59,104,52
1,59,127,236
1,62,127,56
1,62,120,96
1,60,120,384
1,59,112,146
1,57,127,16
1,60,120,66
1,64,106,8
1,63,112,56
1,64,94,48
1,62,120,644
1,59,106,36
1,62,127,10
1,62,97,84
1,60,90,624
1,59,106,48
1,57,120,12
1,60,106,34
1,64,112,32
1,62,76,66
1,64,97,0
1,62,120,58
1,59,127,38
1,62,127,56
1,62,120,96
1,60,120,384
1,59,112,146
1,57,127,16
1,60,120,66
1,64,106,8
1,63,112,56
1,64,94,48
1,62,120,644
1,59,106,36
1,62,127,10
1,62,97,84
1,60,90,624
1,59,106,48
1,57,120,12
1,60,106,34
1,64,112,32
1,62,76,66
1,64,97,0
1,62,120,58
1,59,127,38
1,62,127,56
1,62,120,96
1,60,120,384
1,59,112,146
1,57,127,16
1,60,120,66
1,64,106,8
1,63,112,56
1,64,94,48
1,62,120,644
1,59,106,36
1,62,127,10
1,62,97,84
1,60,90,624
1,59,106,48
1,57,120,12
1,60,106,34
1,64,112,32
1,64,125,66
1,64,120,768
1,66,127,370
1,67,127,20
1,66,127,14
1,67,127,384
1,66,127,154
1,64,127,42
1,62,127,6
1,64,127,56
1,62,127,2
1,64,127,8
1,66,127,768
1,67,127,40
1,71,78,0
1,66,127,1536
1,69,66,0
1,71,66,324
1,69,64,182
1,67,127,48
1,66,102,68
1,64,120,20
1,67,86,0
1,66,69,322
1,62,120,46
1,67,75,330
1,64,127,44
1,66,88,1316
1,67,76,130
1,66,127,0
1,69,78,0
1,67,127,34
1,71,80,0
1,66,112,1536
1,69,71,0
1,67,127,314
1,71,73,0
1,66,107,142
1,69,73,0
1,64,127,6
1,67,76,0
1,62,112,384
1,66,74,0
1,64,127,378
1,67,86,0
1,66,127,14
1,69,78,0
1,67,127,766
1,71,80,0
1,66,120,1524
1,69,73,0
1,67,120,332
1,71,67,0
1,66,120,172
1,69,73,0
1,64,112,22
1,67,83,0
1,62,112,384
1,66,83,0
1,64,120,4
1,67,83,0
1,66,127,12
1,69,83,0
1,67,127,30
1,71,78,0
1,66,112,2
1,69,76,0
1,67,112,346
1,71,73,0
1,66,120,176
1,69,78,0
1,64,112,20
1,67,89,0
1,62,106,384
1,66,83,0
1,64,103,2
1,67,80,48
1,62,127,18
1,64,127,96
1,66,127,28
1,69,89,0
1,67,127,2
1,71,80,40
1,66,127,32
1,69,71,0
1,67,127,14
1,71,64,0
1,66,127,144
1,69,83,48
1,64,120,28
1,67,89,18
1,62,106,22
1,66,88,0
1,64,106,8
1,67,86,0
1,64,112,38
1,66,120,768
1,67,127,40
1,71,80,0
1,66,127,1536
1,69,76,0
1,67,127,12
1,71,62,0
1,69,75,124
1,66,120,48
1,67,92,22
1,64,112,26
1,66,93,336
1,62,112,40
1,64,127,42
1,67,80,0
1,62,106,8
1,64,127,96
1,66,127,784
1,67,127,106
1,71,83,0
1,66,127,1458
1,69,80,0
1,67,127,358
1,71,75,0
1,66,127,178
1,69,78,0
1,64,120,20
1,67,86,0
1,66,77,18
1,62,127,20
1,64,103,14
1,67,80,0
1,62,106,2
1,63,127,96
1,64,127,26
1,66,127,52
1,69,80,0
1,67,127,46
1,71,64,0
2,40,79,0
2,40,79,96
2,40,79,96
2,40,79,96
2,40,79,96
2,40,79,96
2,40,79,96
2,40,79,96
2,40,79,96
2,40,79,96
2,40,79,96
2,40,79,96
2,40,79,96
2,40,79,96
2,40,79,96
2,40,79,96
2,40,87,96
2,40,79,0
2,40,79,96
2,52,87,0
2,40,79,46
2,50,87,0
2,40,79,10
2,52,87,0
2,40,79,48
2,45,87,0
2,40,79,96
2,47,87,0
2,40,79,12
2,50,87,0
2,40,79,6
2,52,87,0
2,40,87,16
2,40,79,0
2,40,79,96
2,52,87,0
2,40,79,52
2,50,87,0
2,40,79,96
2,52,87,0
2,40,79,48
2,43,87,0
2,40,79,12
2,52,87,0
2,40,79,26
2,42,87,0
2,40,79,38
2,52,87,0
2,40,87,28
2,40,79,0
2,40,79,96
2,52,87,0
2,40,79,50
2,50,87,0
2,40,79,16
2,52,87,0
2,40,79,14
2,45,87,0
2,40,79,96
2,47,87,0
2,40,79,96
2,50,87,0
2,40,79,4
2,52,87,0
2,40,87,46
2,40,79,0
2,40,79,96
2,52,87,0
2,40,79,42
2,50,87,0
2,40,79,12
2,52,87,0
2,40,79,48
2,43,87,0
2,40,79,10
2,52,87,0
2,40,79,44
2,42,87,0
2,40,79,22
2,52,87,0
2,40,87,44
2,40,79,0
2,40,79,96
2,52,87,0
2,40,79,46
2,50,87,0
2,40,79,96
2,52,87,0
2,40,79,44
2,45,87,0
2,40,79,96
2,47,87,0
2,40,79,96
2,50,87,0
2,40,79,96
2,52,87,0
2,40,87,34
2,40,79,0
2,40,79,96
2,52,87,0
2,40,79,58
2,50,87,0
2,40,79,2
2,52,87,0
2,40,79,56
2,43,87,0
2,40,79,10
2,52,87,0
2,40,79,24
2,42,87,0
2,40,87,96
2,40,79,0
2,45,79,96
2,45,79,96
2,45,79,96
2,45,79,96
2,45,79,96
2,45,79,96
2,45,79,96
2,45,79,96
2,45,79,96
2,45,79,96
2,45,79,96
2,45,79,96
2,45,79,96
2,45,79,96
2,45,79,96
2,45,79,96
2,28,99,55968
2,28,99,0
2,28,93,214
2,28,93,0
2,38,99,80
2,40,84,14
2,28,93,44
2,28,93,0
2,28,99,116
2,28,99,0
2,28,99,206
2,28,99,0
2,38,114,14
2,40,107,30
2,28,107,56
2,28,107,0
2,28,114,98
2,28,114,0
2,28,107,182
2,28,107,0
2,38,114,78
2,40,81,22
2,28,114,54
2,28,114,0
2,28,114,116
2,28,114,0
2,28,114,194
2,28,114,0
2,38,99,78
2,40,93,16
2,45,79,96
2,45,79,96
2,45,79,96
2,45,79,96
2,45,79,96
2,45,79,96
2,45,79,96
2,45,79,96
2,45,79,96
2,45,79,96
2,45,79,96
2,45,79,96
2,45,79,96
2,45,79,96
2,45,79,96
2,45,79,96
2,40,79,67680
2,40,79,96
2,40,79,96
2,40,79,96
2,40,79,96
2,40,79,96
2,40,79,96
2,40,79,96
2,40,79,96
2,40,79,96
2,40,79,96
2,40,79,96
2,40,79,96
2,40,79,96
2,40,79,96
2,40,79,96
2,40,105,96
2,40,105,112
2,40,105,110
2,40,103,110
2,40,104,110
2,40,104,110
2,40,104,110
2,40,105,110
2,40,105,108
2,40,105,104
2,40,107,114
2,40,104,112
2,40,105,112
2,40,105,112
2,40,106,114
2,40,105,112
2,45,108,124
2,45,105,112
2,45,105,110
2,45,106,106
2,45,108,108
2,45,105,110
2,45,107,112
2,45,108,116
2,38,106,104
2,38,105,100
2,38,105,106
2,38,105,98
2,38,105,106
2,38,105,100
2,38,106,112
2,38,107,116
2,40,105,110
2,40,104,102
2,40,105,108
2,40,105,100
2,40,103,102
2,40,104,104
2,40,104,104
2,40,104,104
2,40,106,100
2,40,104,104
2,40,105,104
2,40,105,100
2,40,105,108
2,40,104,104
2,40,105,110
2,40,104,110
2,45,108,104
2,45,105,98
2,45,105,92
2,45,105,94
2,45,105,96
2,45,105,92
2,45,107,98
2,45,106,102
2,38,105,112
2,38,105,96
2,38,105,90
2,38,105,100
2,38,105,96
2,38,104,94
2,38,107,116
2,38,104,98
2,36,108,96
2,36,105,96
2,36,107,112
2,36,105,92
2,36,106,102
2,36,105,98
2,36,106,100
2,36,108,102
2,33,107,106
2,33,105,90
2,33,108,100
2,33,104,96
2,33,104,104
2,33,104,104
2,33,105,104
2,33,108,96
3,28,127,4224
3,28,127,0
3,28,127,368
3,28,127,0
3,28,127,208
3,28,127,0
3,38,127,98
3,40,127,36
3,28,127,66
3,28,127,0
3,28,127,270
3,28,127,0
3,28,127,210
3,28,127,0
3,38,127,86
3,40,124,44
3,28,127,52
3,28,127,0
3,28,127,302
3,28,127,0
3,28,127,196
3,28,127,0
3,38,127,70
3,40,127,46
3,28,124,46
3,28,124,0
3,28,127,254
3,28,127,0
3,28,124,210
3,28,124,0
3,38,127,76
3,40,124,48
3,33,127,84
3,33,127,70
3,33,127,70
3,33,124,60
3,33,124,70
3,33,112,54
3,33,124,64
3,33,106,62
3,33,127,66
3,33,104,48
3,33,115,74
3,33,112,60
3,33,115,70
3,33,115,58
3,33,118,74
3,33,124,56
3,28,127,21940
3,28,127,0
3,31,127,150
3,35,127,148
3,28,127,386
3,28,127,0
3,31,127,54
3,30,127,124
3,30,127,0
3,28,127,200
3,28,127,0
3,33,127,574
3,36,127,158
3,40,127,100
3,38,127,404
3,40,127,14
3,38,127,128
3,33,127,86
3,28,127,484
3,28,127,0
3,31,127,124
3,35,127,134
3,28,127,260
3,28,127,0
3,31,127,48
3,30,127,74
3,30,127,0
3,28,127,258
3,28,127,0
3,33,127,480
3,36,127,124
3,40,127,94
3,38,127,324
3,40,127,62
3,38,127,124
3,33,127,76
3,24,127,508
3,24,127,0
3,28,127,130
