track,note,velocity,time
4,34,80,1776
4,34,0,711
4,38,98,57
4,38,0,243
4,38,96,39
4,38,0,44
4,38,103,54
4,38,0,244
4,38,96,43
4,38,0,33
4,38,103,63
4,38,0,246
4,38,100,46
4,38,0,26
4,38,96,63
4,38,0,188
4,43,90,0
4,43,0,149
4,38,100,27
4,38,0,203
4,38,84,85
4,38,0,33
4,38,84,63
4,38,0,232
4,38,73,56
4,38,0,37
4,38,82,59
4,38,0,245
4,38,79,43
4,38,0,35
4,38,83,61
4,38,0,260
4,38,73,28
4,38,0,49
4,33,78,47
4,33,0,239
4,33,73,49
4,33,0,39
4,33,76,57
4,33,0,258
4,33,70,30
4,33,0,36
4,33,77,60
4,33,0,243
4,33,72,45
4,33,0,33
4,33,76,63
4,33,0,251
4,33,80,37
4,33,0,50
4,38,100,46
4,38,0,203
4,38,84,85
4,38,0,33
4,38,84,63
4,38,0,232
4,38,73,56
4,38,0,37
4,38,82,59
4,38,0,245
4,38,79,43
4,38,0,35
4,38,83,61
4,38,0,260
4,38,73,28
4,38,0,49
4,33,78,47
4,33,0,239
4,33,73,49
4,33,0,39
4,33,76,57
4,33,0,258
4,33,70,30
4,33,0,36
4,33,77,60
4,33,0,243
4,33,72,45
4,33,0,33
4,33,76,63
4,33,0,251
4,33,80,37
4,33,0,50
4,38,101,46
4,38,0,222
4,38,83,66
4,38,0,29
4,38,94,67
4,38,0,260
4,38,70,28
4,38,0,45
4,34,100,51
4,34,0,243
4,34,78,45
4,34,0,38
4,34,88,58
4,34,0,249
4,34,88,39
4,34,0,28
4,33,98,68
4,33,0,238
4,33,85,50
4,33,0,34
4,33,100,62
4,33,0,249
4,33,98,39
4,33,0,42
4,38,113,822
4,38,0,75
4,36,94,309
4,38,42,0
4,38,0,44
4,36,0,36
4,38,80,16
4,38,0,85
4,33,60,11
4,36,98,96
4,33,0,6
4,36,0,87
4,38,91,3
4,38,0,61
4,38,88,275
4,38,0,33
4,36,54,15
4,38,88,96
4,36,0,3
4,38,0,84
4,33,70,9
4,36,80,96
4,33,0,9
4,38,90,87
4,36,0,1
4,38,0,45
4,38,85,290
4,38,0,42
4,36,68,6
4,36,0,88
4,38,86,8
4,38,0,93
4,33,67,3
4,36,74,96
4,33,0,12
4,36,0,84
4,38,113,0
4,38,0,75
4,36,94,309
4,38,42,0
4,38,0,44
4,36,0,36
4,38,80,16
4,38,0,85
4,33,60,11
4,36,98,96
4,33,0,6
4,36,0,87
4,38,91,3
4,38,0,61
4,38,88,275
4,38,0,33
4,36,54,15
4,38,88,96
4,36,0,3
4,38,0,84
4,33,70,9
4,36,80,96
4,33,0,9
4,38,113,87
4,36,0,1
4,38,0,74
4,36,94,309
4,38,42,0
4,38,0,44
4,36,0,36
4,38,80,16
4,38,0,85
4,33,60,11
4,36,98,96
4,33,0,6
4,36,0,87
4,38,91,3
4,38,0,61
4,38,88,275
4,38,0,33
4,36,54,15
4,38,88,96
4,36,0,3
4,38,0,84
4,33,70,9
4,36,80,96
4,33,0,9
4,38,90,87
4,36,0,1
4,38,0,45
4,38,85,290
4,38,0,42
4,36,68,6
4,36,0,88
4,38,86,8
4,38,0,93
4,33,67,3
4,36,74,96
4,33,0,12
4,36,0,84
4,38,113,0
4,38,0,75
4,36,94,309
4,38,42,0
4,38,0,44
4,36,0,36
4,38,80,16
4,38,0,85
4,33,60,11
4,36,98,96
4,33,0,6
4,36,0,87
4,43,101,3
4,43,0,76
4,41,67,308
4,43,98,0
4,43,0,49
4,41,0,29
4,38,69,18
4,41,83,96
4,38,0,18
4,42,78,78
4,41,0,2
4,42,0,91
4,43,91,3
4,43,0,72
4,43,88,264
4,43,0,48
4,41,63,0
4,41,0,87
4,38,67,9
4,38,0,95
4,41,87,1
4,41,0,91
4,38,64,5
4,38,0,96
4,43,88,0
4,43,0,58
4,43,80,278
4,41,61,48
4,43,0,10
4,38,67,86
4,41,0,1
4,41,91,95
4,38,0,21
4,42,82,75
4,41,0,3
4,43,88,93
4,42,0,26
4,43,0,43
4,43,81,267
4,41,74,48
4,43,0,5
4,41,0,80
4,38,70,11
4,41,85,96
4,38,0,13
4,41,0,71
4,43,91,12
4,43,0,66
4,45,110,30
4,45,0,81
4,45,100,207
4,45,0,370
4,45,118,110
4,45,0,83
4,45,110,205
4,45,0,94
4,38,100,388
4,38,0,203
4,38,84,85
4,38,0,33
4,38,84,63
4,38,0,232
4,38,73,56
4,38,0,37
4,38,82,59
4,38,0,245
4,38,79,43
4,38,0,35
4,38,83,61
4,38,0,260
4,38,73,28
4,38,0,49
4,33,78,47
4,33,0,239
4,33,73,49
4,33,0,39
4,33,76,57
4,33,0,258
4,33,70,30
4,33,0,36
4,33,77,60
4,33,0,243
4,33,72,45
4,33,0,33
4,33,76,63
4,33,0,251
4,33,80,37
4,33,0,50
4,38,100,46
4,38,0,203
4,38,84,85
4,38,0,33
4,38,84,63
4,38,0,232
4,38,73,56
4,38,0,37
4,38,82,59
4,38,0,245
4,38,79,43
4,38,0,35
4,38,83,61
4,38,0,260
4,38,73,28
4,38,0,49
4,33,78,47
4,33,0,239
4,33,73,49
4,33,0,39
4,33,76,57
4,33,0,258
4,33,70,30
4,33,0,36
4,33,77,60
4,33,0,243
4,33,72,45
4,33,0,33
4,33,76,63
4,33,0,251
4,33,80,37
4,33,0,50
4,38,101,46
4,38,0,222
4,38,83,66
4,38,0,29
4,38,94,67
4,38,0,260
4,38,70,28
4,38,0,45
4,34,100,51
4,34,0,243
4,34,78,45
4,34,0,38
4,34,88,58
4,34,0,249
4,34,88,39
4,34,0,28
4,33,98,68
4,33,0,238
4,33,85,50
4,33,0,34
4,33,100,62
4,33,0,249
4,33,98,39
4,33,0,42
4,38,113,822
4,38,0,75
4,36,94,309
4,38,42,0
4,38,0,44
4,36,0,36
4,38,80,16
4,38,0,85
4,33,60,11
4,36,98,96
4,33,0,6
4,36,0,87
4,38,91,3
4,38,0,61
4,38,88,275
4,38,0,33
4,36,54,15
4,38,88,96
4,36,0,3
4,38,0,84
4,33,70,9
4,36,80,96
4,33,0,9
4,38,90,87
4,36,0,1
4,38,0,45
4,38,85,290
4,38,0,42
4,36,68,6
4,36,0,88
4,38,86,8
4,38,0,93
4,33,67,3
4,36,74,96
4,33,0,12
4,36,0,84
4,38,113,0
4,38,0,75
4,36,94,309
4,38,42,0
4,38,0,44
4,36,0,36
4,38,80,16
4,38,0,85
4,33,60,11
4,36,98,96
4,33,0,6
4,36,0,87
4,38,91,3
4,38,0,61
4,38,88,275
4,38,0,33
4,36,54,15
4,38,88,96
4,36,0,3
4,38,0,84
4,33,70,9
4,36,80,96
4,33,0,9
4,38,113,87
4,36,0,1
4,38,0,74
4,36,94,309
4,38,42,0
4,38,0,44
4,36,0,36
4,38,80,16
4,38,0,85
4,33,60,11
4,36,98,96
4,33,0,6
4,36,0,87
4,38,91,3
4,38,0,61
4,38,88,275
4,38,0,33
4,36,54,15
4,38,88,96
4,36,0,3
4,38,0,84
4,33,70,9
4,36,80,96
4,33,0,9
4,38,90,87
4,36,0,1
4,38,0,45
4,38,85,290
4,38,0,42
4,36,68,6
4,36,0,88
4,38,86,8
4,38,0,93
4,33,67,3
4,36,74,96
4,33,0,12
4,36,0,84
4,38,113,0
4,38,0,75
4,36,94,309
4,38,42,0
4,38,0,44
4,36,0,36
4,38,80,16
4,38,0,85
4,33,60,11
4,36,98,96
4,33,0,6
4,36,0,87
4,43,101,3
4,43,0,76
4,41,67,308
4,43,98,0
4,43,0,49
4,41,0,29
4,38,69,18
4,41,83,96
4,38,0,18
4,42,78,78
4,41,0,2
4,42,0,91
4,43,91,3
4,43,0,72
4,43,88,264
4,43,0,48
4,41,63,0
4,41,0,87
4,38,67,9
4,38,0,95
4,41,87,1
4,41,0,91
4,38,64,5
4,38,0,96
4,43,88,0
4,43,0,58
4,43,80,278
4,41,61,48
4,43,0,10
4,38,67,86
4,41,0,1
4,41,91,95
4,38,0,21
4,42,82,75
4,41,0,3
4,43,88,93
4,42,0,26
4,43,0,43
4,43,81,267
4,41,74,48
4,43,0,5
4,41,0,80
4,38,70,11
4,41,85,96
4,38,0,13
4,41,0,71
4,43,91,12
4,43,0,66
4,45,110,30
4,45,0,81
4,45,100,207
4,45,0,370
4,45,118,110
4,45,0,83
4,45,110,205
4,45,0,94
4,38,113,390
4,38,0,75
4,36,94,309
4,38,42,0
4,38,0,44
4,36,0,36
4,38,80,16
4,38,0,85
4,33,60,11
4,36,98,96
4,33,0,6
4,36,0,87
4,38,91,3
4,38,0,61
4,38,88,275
4,38,0,33
4,36,54,15
4,38,88,96
4,36,0,3
4,38,0,84
4,33,70,9
4,36,80,96
4,33,0,9
4,38,90,87
4,36,0,1
4,38,0,45
4,38,85,290
4,38,0,42
4,36,68,6
4,36,0,88
4,38,86,8
4,38,0,93
4,33,67,3
4,36,74,96
4,33,0,12
4,36,0,84
4,38,113,0
4,38,0,75
4,36,94,309
4,38,42,0
4,38,0,44
4,36,0,36
4,38,80,16
4,38,0,85
4,33,60,11
4,36,98,96
4,33,0,6
4,36,0,87
4,38,91,3
4,38,0,61
4,38,88,275
4,38,0,33
4,36,54,15
4,38,88,96
4,36,0,3
4,38,0,84
4,33,70,9
4,36,80,96
4,33,0,9
4,38,113,87
4,36,0,1
4,38,0,74
4,36,94,309
4,38,42,0
4,38,0,44
4,36,0,36
4,38,80,16
4,38,0,85
4,33,60,11
4,36,98,96
4,33,0,6
4,36,0,87
4,38,91,3
4,38,0,61
4,38,88,275
4,38,0,33
4,36,54,15
4,38,88,96
4,36,0,3
4,38,0,84
4,33,70,9
4,36,80,96
4,33,0,9
4,38,90,87
4,36,0,1
4,38,0,45
4,38,85,290
4,38,0,42
4,36,68,6
4,36,0,88
4,38,86,8
4,38,0,93
4,33,67,3
4,36,74,96
4,33,0,12
4,36,0,84
4,38,113,0
4,38,0,75
4,36,94,309
4,38,42,0
4,38,0,44
4,36,0,36
4,38,80,16
4,38,0,85
4,33,60,11
4,36,98,96
4,33,0,6
4,36,0,87
4,38,87,93
4,38,0,44
5,57,102,528
5,57,0,15
5,58,64,9
5,58,0,23
5,57,63,1
5,57,0,24
5,56,84,0
5,56,0,339
5,65,102,21
5,64,106,48
5,65,0,46
5,64,0,425
5,55,106,585
5,55,0,22
5,56,63,2
5,55,57,24
5,56,0,1
5,55,0,23
5,53,86,0
5,53,0,208
5,64,102,8
5,64,0,130
5,64,104,62
5,57,73,181
5,62,89,0
5,65,76,1
5,65,0,63
5,57,0,2
5,62,0,1
5,57,77,26
5,62,87,0
5,65,77,0
5,57,0,29
5,62,0,10
5,65,0,3
5,67,42,14
5,67,0,1
5,67,43,14
5,71,39,1
5,71,0,5
5,67,0,1
5,71,34,11
5,71,0,2
5,67,52,9
5,71,49,1
5,71,0,6
5,67,0,1
5,71,41,11
5,71,0,2
5,67,57,5
5,71,56,1
5,71,0,8
5,67,0,1
5,67,48,0
5,71,53,0
5,71,0,9
5,67,0,1
5,67,55,1
5,71,63,1
5,71,0,8
5,67,0,0
5,67,62,6
5,71,60,1
5,71,0,7
5,67,0,1
5,67,70,5
5,71,74,1
5,64,0,5
5,67,0,3
5,71,0,1
5,67,62,8
5,71,63,1
5,71,0,6
5,67,0,2
5,67,75,5
5,71,83,0
5,67,0,10
5,71,0,1
5,67,66,10
5,71,65,1
5,71,0,7
5,67,0,2
5,67,75,4
5,71,74,0
5,67,0,9
5,71,0,1
5,67,62,10
5,71,62,1
5,71,0,7
5,67,0,1
5,67,79,4
5,71,73,1
5,67,0,8
5,71,0,1
5,67,55,4
5,71,52,2
5,71,0,6
5,67,0,1
5,67,56,14
5,71,59,0
5,71,0,9
5,67,0,1
5,62,56,243
5,65,65,1
5,69,63,0
5,65,0,59
5,62,0,1
5,69,0,5
5,62,74,31
5,69,86,0
5,65,89,2
5,62,0,13
5,65,0,5
5,69,0,10
5,72,36,76
5,72,0,5
5,72,40,50
5,76,46,0
5,76,0,7
5,72,0,0
5,72,49,7
5,76,47,1
5,76,0,5
5,72,0,1
5,72,49,15
5,76,53,0
5,76,0,7
5,76,57,4
5,76,0,8
5,72,0,0
5,72,58,14
5,76,56,1
5,76,0,6
5,72,0,1
5,72,72,5
5,76,74,1
5,72,0,7
5,76,0,1
5,72,66,11
5,76,63,1
5,76,0,7
5,72,0,1
5,72,74,5
5,76,82,1
5,72,0,8
5,76,0,2
5,72,66,8
5,76,68,1
5,76,0,7
5,72,0,2
5,72,71,5
5,76,71,0
5,72,0,9
5,76,0,1
5,72,67,9
5,76,67,1
5,76,0,7
5,72,0,2
5,72,76,4
5,76,72,0
5,72,0,9
5,76,0,1
5,72,60,7
5,76,65,1
5,76,0,8
5,72,0,1
5,72,67,7
5,76,70,0
5,72,0,8
5,76,0,1
5,72,57,8
5,76,60,1
5,76,0,7
5,72,0,1
5,67,89,607
5,65,70,23
5,67,0,8
5,65,0,12
5,62,52,5
5,62,0,13
5,65,104,18
5,65,0,5
5,67,69,5
5,67,0,31
5,62,69,19
5,62,0,20
5,65,76,18
5,65,0,35
5,62,59,14
5,62,0,241
5,60,94,234
5,60,0,133
5,55,29,297
5,57,54,19
5,55,0,1
5,57,0,13
5,60,79,10
5,60,0,33
5,60,94,143
5,60,0,19
5,62,97,3
5,62,0,14
5,62,114,29
5,60,66,9
5,62,0,5
5,60,0,8
5,57,60,9
5,57,0,20
5,60,87,2
5,60,0,12
5,62,106,13
5,62,0,21
5,60,82,7
5,55,36,161
5,57,92,7
5,55,0,13
5,55,53,34
5,60,0,312
5,57,0,2
5,55,0,5
5,57,102,43
5,57,0,170
5,55,109,19
5,57,54,1
5,57,0,4
5,55,0,340
5,55,102,35
5,53,71,21
5,55,0,5
5,53,0,17
5,50,52,3
5,50,0,23
5,53,62,2
5,55,60,16
5,53,0,13
5,56,49,9
5,55,0,2
5,56,0,6
5,57,60,9
5,57,0,21
5,60,54,4
5,62,63,8
5,60,0,9
5,62,0,9
5,65,84,4
5,65,0,9
5,68,112,14
5,68,0,29
5,67,66,17
5,67,0,15
5,68,45,3
5,68,0,16
5,67,62,4
5,67,0,10
5,65,60,0
5,65,0,14
5,62,70,11
5,62,0,14
5,65,97,14
5,62,66,15
5,65,0,1
5,62,0,241
5,62,72,123
5,62,0,19
5,65,75,6
5,67,71,25
5,65,0,5
5,67,0,6
5,68,99,21
5,68,0,13
5,69,97,2
5,69,0,219
5,67,65,33
5,68,87,5
5,68,0,7
5,69,90,2
5,67,0,13
5,69,0,18
5,68,103,32
5,70,56,2
5,70,0,3
5,68,0,19
5,67,65,3
5,67,0,21
5,64,49,36
5,62,47,2
5,62,0,25
5,64,0,165
5,64,99,63
5,64,0,23
5,65,83,6
5,65,0,16
5,66,96,18
5,66,0,15
5,67,71,12
5,67,0,19
5,62,57,17
5,63,64,7
5,63,0,11
5,62,0,3
5,64,70,0
5,64,0,27
5,60,55,26
5,60,0,184
5,57,60,8
5,60,51,24
5,57,0,2
5,60,0,4
5,62,96,16
5,62,0,10
5,62,114,27
5,62,0,18
5,60,69,0
5,60,0,13
5,62,102,14
5,62,0,55
5,62,66,3
5,62,0,30
5,67,120,25
5,65,106,20
5,67,0,2
5,65,0,53
5,64,97,12
5,64,0,42
5,65,46,65
5,69,28,3
5,69,0,5
5,65,0,1
5,62,35,29
5,65,48,2
5,69,30,1
5,65,0,3
5,69,0,2
5,62,0,1
5,69,33,13
5,62,21,3
5,65,59,11
5,65,0,7
5,62,0,0
5,69,0,0
5,62,36,8
5,69,42,0
5,69,0,12
5,62,0,1
5,65,60,4
5,62,43,1
5,69,46,1
5,69,0,8
5,62,0,0
5,65,0,1
5,69,52,7
5,62,46,2
5,65,53,1
5,65,0,7
5,62,0,0
5,69,0,1
5,62,59,9
5,65,65,0
5,69,56,1
5,69,0,8
5,65,0,0
5,62,0,0
5,65,53,6
5,62,44,2
5,69,46,0
5,69,0,9
5,62,0,0
5,65,0,2
