track,note,velocity,time
0,35,115,156
0,39,114,0
0,43,109,0
0,46,100,0
0,35,0,4
0,43,0,0
0,46,0,0
0,70,106,90
0,70,92,2
0,67,103,94
0,67,89,2
0,67,0,93
0,65,114,1
0,65,94,2
0,70,0,4
0,67,0,8
0,65,0,74
0,63,103,8
0,68,101,2
0,68,0,42
0,67,82,6
0,67,0,14
0,68,82,34
0,67,87,48
0,68,0,14
0,68,100,34
0,67,0,4
0,63,0,42
0,70,0,12
0,65,0,17
0,39,0,17
0,46,114,2
0,68,0,0
0,34,110,2
0,35,102,0
0,41,105,0
0,45,103,0
0,67,91,0
0,35,0,4
0,41,0,0
0,45,0,0
0,34,0,88
0,51,100,2
0,35,115,2
0,39,115,0
0,43,105,0
0,46,102,0
0,35,0,4
0,43,0,0
0,46,0,0
0,70,108,90
0,70,87,2
0,67,0,12
0,67,108,82
0,67,90,2
0,70,0,4
0,67,0,42
0,65,110,4
0,65,96,2
0,67,0,2
0,65,0,88
0,63,106,4
0,68,100,2
0,67,91,48
0,68,0,2
0,68,84,46
0,67,0,6
0,67,84,42
0,68,0,10
0,67,0,32
0,68,99,6
0,51,0,37
0,39,0,1
0,46,0,16
0,63,0,27
0,65,0,3
0,68,0,8
0,70,0,0
0,51,116,2
0,35,94,2
0,39,111,0
0,41,101,0
0,45,101,0
0,67,109,0
0,35,0,4
0,41,0,0
0,45,0,0
0,51,0,73
0,39,0,15
0,49,81,2
0,32,115,2
0,35,110,0
0,42,84,0
0,44,113,0
0,56,107,0
0,63,114,0
0,49,0,2
0,35,0,2
0,42,0,0
0,67,0,10
0,42,71,82
0,42,0,4
0,56,0,48
0,63,0,4
0,75,110,38
0,40,113,2
0,42,87,0
0,56,104,0
0,60,100,0
0,63,95,0
0,63,111,0
0,72,110,0
0,68,102,1
0,40,0,3
0,42,0,0
0,32,0,6
0,72,0,10
0,44,0,2
0,75,0,5
0,68,0,8
0,63,0,35
0,32,114,26
0,35,107,0
0,42,82,0
0,44,113,0
0,63,106,0
0,35,0,4
0,42,0,0
0,60,0,8
0,63,0,6
0,56,0,2
0,32,0,32
0,44,0,32
0,63,0,8
0,34,118,4
0,35,114,0
0,42,89,0
0,46,110,0
0,65,105,0
0,35,0,4
0,42,0,0
0,42,81,92
0,53,88,0
0,42,0,4
0,53,0,76
0,65,0,2
0,74,94,12
0,40,121,2
0,42,90,0
0,53,99,0
0,58,102,0
0,62,102,0
0,63,101,0
0,70,107,0
0,65,104,1
0,40,0,3
0,42,0,0
0,34,0,6
0,74,0,13
0,46,0,1
0,70,0,0
0,65,0,3
0,63,0,57
0,34,118,12
0,42,85,0
0,46,110,0
0,65,112,0
0,62,0,2
0,42,0,2
0,53,0,4
0,58,0,32
0,34,0,32
0,65,0,12
0,46,0,10
0,35,110,2
0,39,118,0
0,39,117,0
0,42,86,0
0,63,1,0
0,63,107,0
0,67,1,0
0,67,107,0
0,70,1,0
0,70,107,0
0,70,110,0
0,35,0,4
0,42,0,0
0,70,0,16
0,70,0,14
0,67,0,6
0,63,0,6
0,42,70,50
0,55,82,0
0,63,113,0
0,67,112,0
0,70,111,0
0,70,118,0
0,42,0,4
0,70,0,60
0,70,0,2
0,67,0,8
0,63,0,2
0,75,105,18
0,40,115,2
0,42,86,0
0,58,105,0
0,63,107,0
0,63,98,0
0,67,109,0
0,70,104,0
0,70,104,0
0,70,103,0
0,67,100,1
0,40,0,3
0,42,0,0
0,70,0,18
0,75,0,4
0,67,0,8
0,39,0,8
0,39,0,4
0,67,0,26
0,70,0,2
0,63,0,2
0,70,0,4
0,63,0,14
0,67,0,0
0,70,0,0
0,35,110,2
0,39,116,0
0,39,107,0
0,42,83,0
0,62,1,0
0,62,115,0
0,65,1,0
0,65,114,0
0,70,1,0
0,70,107,0
0,70,116,0
0,35,0,4
0,42,0,0
0,39,0,70
0,39,0,0
0,63,0,16
0,55,0,4
0,35,113,2
0,38,114,0
0,38,95,0
0,42,87,0
0,35,0,4
0,42,0,0
0,58,0,48
0,42,78,44
0,53,84,0
0,42,0,4
0,53,0,78
0,74,99,12
0,40,122,2
0,42,88,0
0,53,100,0
0,58,101,0
0,62,98,0
0,70,107,0
0,65,108,1
0,40,0,3
0,42,0,0
0,38,0,28
0,38,0,4
0,70,0,2
0,74,0,6
0,65,0,1
0,53,0,47
0,62,0,0
0,38,118,4
0,38,105,0
0,42,87,0
0,62,0,2
0,62,0,0
0,42,0,2
0,65,0,2
0,65,0,0
0,58,0,16
0,70,0,0
0,70,0,0
0,70,0,34
0,38,0,26
0,38,0,12
0,35,107,2
0,36,114,0
0,36,106,0
0,42,87,0
0,56,90,0
0,60,103,0
0,63,95,0
0,68,111,0
0,35,0,4
0,42,0,0
0,68,0,18
0,70,105,26
0,70,0,20
0,42,70,28
0,68,110,0
0,42,0,4
0,56,0,68
0,75,109,22
0,40,115,2
0,42,86,0
0,56,105,0
0,72,105,0
0,68,104,1
0,40,0,3
0,42,0,0
0,72,0,8
0,36,0,6
0,75,0,3
0,68,0,6
0,36,0,13
0,35,109,56
0,36,111,0
0,36,103,0
0,42,81,0
0,35,0,4
0,42,0,0
0,60,0,42
0,36,0,32
0,56,0,6
0,63,0,0
0,36,0,6
0,68,0,2
0,34,118,4
0,35,117,0
0,42,85,0
0,46,104,0
0,67,117,0
0,35,0,4
0,42,0,0
0,42,79,92
0,53,86,0
0,42,0,4
0,67,0,76
0,34,0,12
0,74,95,2
0,40,123,2
0,42,84,0
0,46,117,0
0,58,102,0
0,62,102,0
0,65,118,0
0,70,112,0
0,65,111,1
0,40,0,3
0,42,0,0
0,70,0,22
0,74,0,4
0,46,0,4
0,65,0,6
0,46,0,30
0,34,114,26
0,42,86,0
0,46,104,0
0,42,0,4
0,53,0,62
0,62,0,12
0,34,0,6
0,65,0,0
0,58,0,2
0,46,0,8
0,27,117,2
0,35,111,0
0,39,106,0
0,42,81,0
0,58,112,0
0,35,0,4
0,42,0,0
0,42,76,92
0,55,90,0
0,42,0,4
0,55,0,62
0,27,0,26
0,75,108,2
0,39,120,2
0,40,120,0
0,42,89,0
0,55,103,0
0,58,106,0
0,63,112,0
0,67,107,0
0,70,115,0
0,67,106,1
0,40,0,3
0,42,0,0
0,70,0,14
0,75,0,1
0,67,0,1
0,55,0,38
0,39,0,26
0,27,115,12
0,35,112,0
0,42,86,0
0,55,87,0
0,65,112,0
0,35,0,4
0,42,0,0
0,27,0,8
0,67,0,20
0,39,0,10
0,27,117,54
0,35,118,0
0,39,106,0
0,42,90,0
0,68,102,0
0,35,0,4
0,42,0,0
0,55,0,50
0,27,0,36
0,34,115,6
0,42,82,0
0,55,91,0
0,67,96,0
0,42,0,4
0,65,0,2
0,63,0,8
0,58,0,4
0,34,0,62
0,58,0,10
0,75,98,4
0,39,107,2
0,40,122,0
0,42,87,0
0,58,97,0
0,63,94,0
0,65,105,0
0,70,113,0
0,67,100,1
0,40,0,3
0,42,0,0
0,67,0,8
0,68,0,2
0,70,0,20
0,39,0,2
0,75,0,0
0,67,0,8
0,39,0,40
0,34,116,12
0,39,105,0
0,42,84,0
0,63,104,0
0,42,0,4
0,65,0,10
0,63,0,12
0,55,0,8
0,58,0,12
0,34,0,10
0,63,0,34
0,39,0,4
0,49,79,0
0,32,114,2
0,35,107,0
0,42,84,0
0,44,112,0
0,56,105,0
0,63,110,0
0,49,0,2
0,35,0,2
0,42,0,0
0,42,71,92
0,42,0,4
0,56,0,48
0,63,0,4
0,75,109,38
0,40,120,2
0,42,89,0
0,56,100,0
0,60,98,0
0,63,94,0
0,63,114,0
0,72,112,0
0,68,105,1
0,40,0,3
0,42,0,0
0,32,0,6
0,72,0,10
0,44,0,2
0,75,0,5
0,68,0,8
0,63,0,35
0,32,113,26
0,35,110,0
0,42,80,0
0,44,111,0
0,63,107,0
0,35,0,4
0,42,0,0
0,60,0,8
0,63,0,6
0,56,0,2
0,32,0,32
0,44,0,32
0,63,0,8
0,34,113,4
0,35,115,0
0,42,90,0
0,46,110,0
0,65,111,0
0,35,0,4
0,42,0,0
0,42,83,92
0,53,89,0
0,42,0,4
0,53,0,76
0,65,0,2
0,74,93,12
0,40,120,2
0,42,86,0
0,53,101,0
0,58,104,0
0,62,102,0
0,63,104,0
0,70,102,0
0,65,109,1
0,40,0,3
0,42,0,0
0,34,0,6
0,74,0,13
0,46,0,1
0,70,0,0
0,65,0,3
0,63,0,57
0,34,118,12
0,42,83,0
0,46,111,0
0,65,107,0
0,62,0,2
0,42,0,2
0,53,0,4
0,58,0,32
0,34,0,32
0,65,0,12
0,46,0,10
0,35,106,2
0,39,112,0
0,39,117,0
0,42,84,0
0,63,1,0
0,63,100,0
0,67,1,0
0,67,104,0
0,70,1,0
0,70,111,0
0,70,111,0
0,35,0,4
0,42,0,0
0,70,0,16
0,70,0,44
0,67,0,4
0,63,0,6
0,42,73,22
0,55,83,0
0,63,105,0
0,67,97,0
0,70,110,0
0,70,120,0
0,42,0,4
0,70,0,60
0,70,0,0
0,67,0,6
0,63,0,6
0,75,105,18
0,40,113,2
0,42,90,0
0,58,108,0
0,63,102,0
0,63,101,0
0,67,107,0
0,70,107,0
0,70,107,0
0,70,109,0
0,67,102,1
0,40,0,3
0,42,0,0
0,70,0,18
0,75,0,4
0,67,0,8
0,39,0,8
0,39,0,4
0,67,0,6
0,63,0,10
0,70,0,0
0,70,0,18
0,63,0,14
0,67,0,0
0,70,0,0
0,35,110,2
0,39,118,0
0,39,111,0
0,42,79,0
0,62,1,0
0,62,110,0
0,65,1,0
0,65,111,0
0,70,1,0
0,70,109,0
0,70,117,0
0,35,0,4
0,42,0,0
0,39,0,70
0,39,0,0
0,63,0,16
0,55,0,4
0,35,112,2
0,38,117,0
0,38,91,0
0,42,89,0
0,35,0,4
0,42,0,0
0,58,0,48
0,42,82,44
0,53,82,0
0,42,0,4
0,53,0,78
0,74,102,12
0,40,124,2
0,42,85,0
0,53,105,0
0,58,100,0
0,62,97,0
0,70,112,0
0,65,105,1
0,40,0,3
0,42,0,0
0,38,0,28
0,38,0,4
0,70,0,2
0,74,0,6
0,65,0,1
0,65,0,33
0,62,0,4
0,70,0,0
0,53,0,10
0,62,0,0
0,38,115,4
0,38,105,0
0,42,86,0
0,62,0,2
0,42,0,2
0,65,0,2
0,58,0,16
0,70,0,0
0,70,0,34
0,38,0,26
0,38,0,12
0,35,113,2
0,36,108,0
0,36,102,0
0,42,85,0
0,56,94,0
0,60,106,0
0,63,93,0
0,68,112,0
0,35,0,4
0,42,0,0
0,68,0,16
0,70,114,28
0,70,0,22
0,42,76,26
0,68,116,0
0,42,0,4
0,56,0,68
0,75,108,22
0,40,119,2
0,42,89,0
0,56,106,0
0,72,108,0
0,68,106,1
0,40,0,3
0,42,0,0
0,72,0,8
0,36,0,6
0,75,0,3
0,68,0,6
0,36,0,13
0,35,109,56
0,36,113,0
0,36,108,0
0,42,79,0
0,35,0,4
0,42,0,0
0,60,0,42
0,36,0,32
0,56,0,6
0,63,0,0
0,36,0,6
0,68,0,2
0,34,117,4
0,35,111,0
0,42,91,0
0,46,106,0
0,67,116,0
0,35,0,4
0,42,0,0
0,42,81,92
0,53,86,0
0,42,0,4
0,67,0,72
0,34,0,16
0,74,101,2
0,40,117,2
0,42,87,0
0,46,117,0
0,58,101,0
0,62,105,0
0,65,111,0
0,70,111,0
0,65,110,1
0,40,0,3
0,42,0,0
0,70,0,22
0,74,0,4
0,46,0,4
0,65,0,6
0,46,0,30
0,34,118,26
0,42,86,0
0,46,102,0
0,42,0,4
0,53,0,62
0,62,0,12
0,34,0,6
0,58,0,2
0,65,0,6
0,46,0,2
0,27,114,2
0,35,107,0
0,39,107,0
0,42,88,0
0,63,117,0
0,35,0,4
0,42,0,0
0,42,74,92
0,55,89,0
0,42,0,4
0,55,0,62
0,27,0,26
0,75,108,2
0,39,121,2
0,40,114,0
0,42,90,0
0,55,103,0
0,58,107,0
0,63,106,0
0,70,113,0
0,67,103,1
0,40,0,3
0,42,0,0
0,70,0,14
0,75,0,1
0,67,0,1
0,55,0,38
0,39,0,26
0,27,116,12
0,35,106,0
0,42,83,0
0,55,89,0
0,35,0,4
0,42,0,0
0,27,0,8
0,39,0,30
0,63,0,46
0,27,111,8
0,35,113,0
0,39,106,0
0,42,89,0
0,58,112,0
0,35,0,4
0,42,0,0
0,55,0,50
0,27,0,36
0,34,112,6
0,42,83,0
0,55,88,0
0,42,0,4
0,63,0,10
0,58,0,4
0,34,0,62
0,75,103,14
0,39,105,2
0,40,123,0
0,42,88,0
0,58,95,0
0,63,98,0
0,70,112,0
0,67,95,1
0,40,0,3
0,42,0,0
0,70,0,30
0,39,0,2
0,75,0,0
0,67,0,8
0,39,0,40
0,34,115,12
0,39,108,0
0,42,86,0
0,42,0,4
0,58,0,12
0,63,0,10
0,55,0,8
0,58,0,12
0,34,0,10
0,39,0,38
0,35,108,2
0,36,112,0
0,36,102,0
0,42,85,0
0,56,94,0
0,60,102,0
0,63,96,0
0,68,1,0
0,68,108,0
0,68,114,0
0,72,1,0
0,72,113,0
0,35,0,4
0,42,0,0
0,68,0,16
0,72,0,4
0,72,0,0
0,68,0,2
0,68,0,0
0,68,1,22
0,68,109,0
0,70,107,0
0,74,1,0
0,74,112,0
0,70,0,22
0,68,0,2
0,68,0,0
0,74,0,4
0,74,0,0
0,42,71,20
0,68,1,0
0,68,99,0
0,68,114,0
0,72,1,0
0,72,113,0
0,42,0,4
0,56,0,68
0,75,111,22
0,40,115,2
0,42,87,0
0,56,106,0
0,72,110,0
0,68,105,1
0,40,0,3
0,42,0,0
0,72,0,8
0,36,0,6
0,75,0,3
0,68,0,6
0,36,0,13
0,35,108,56
0,36,111,0
0,36,103,0
0,42,79,0
0,35,0,4
0,42,0,0
0,60,0,42
0,68,0,30
0,68,0,0
0,36,0,2
0,56,0,6
0,63,0,0
0,36,0,6
0,72,0,0
0,72,0,0
0,68,0,2
0,34,112,4
0,35,116,0
0,42,93,0
0,46,103,0
0,65,1,0
0,65,111,0
0,67,114,0
0,70,1,0
0,70,112,0
0,35,0,4
0,42,0,0
0,42,80,92
0,53,85,0
0,42,0,4
0,65,0,70
0,65,0,0
0,67,0,2
0,70,0,4
0,70,0,0
0,34,0,12
0,74,95,2
0,40,118,2
0,42,85,0
0,46,122,0
0,58,101,0
0,62,103,0
0,63,1,0
0,63,105,0
0,65,113,0
0,68,1,0
0,68,114,0
0,70,110,0
0,65,110,1
0,40,0,3
0,42,0,0
0,70,0,22
0,74,0,4
0,46,0,4
0,65,0,6
0,46,0,30
0,34,116,26
0,42,88,0
0,46,100,0
0,42,0,4
0,53,0,62
0,63,0,10
0,63,0,0
0,62,0,2
0,68,0,4
0,68,0,0
0,34,0,2
0,58,0,2
0,65,0,6
0,46,0,2
0,27,116,2
0,35,104,0
0,39,110,0
0,42,84,0
0,63,1,0
0,63,110,0
0,63,104,0
0,67,1,0
0,67,110,0
0,35,0,4
0,42,0,0
0,42,83,92
0,55,88,0
0,68,105,0
0,42,0,4
0,55,0,62
0,27,0,26
0,75,106,2
0,39,121,2
0,40,115,0
0,42,92,0
0,55,110,0
0,58,107,0
0,63,106,0
0,67,96,0
0,70,116,0
0,67,105,1
0,40,0,3
0,42,0,0
0,68,0,12
0,70,0,2
0,75,0,1
0,67,0,1
0,55,0,38
0,39,0,26
0,27,109,12
0,35,115,0
0,42,83,0
0,55,90,0
0,65,109,0
0,35,0,4
0,42,0,0
0,27,0,8
0,67,0,10
0,39,0,20
0,63,0,36
0,27,113,18
0,39,111,0
0,40,117,0
0,42,91,0
0,63,98,0
0,68,85,0
0,40,0,4
0,42,0,0
0,65,0,26
0,67,88,18
0,55,0,6
0,68,0,14
0,27,0,22
0,67,0,0
0,34,110,6
0,42,87,0
0,55,93,0
0,68,88,0
0,42,0,4
0,63,0,10
0,58,0,4
0,40,121,30
0,67,84,0
0,68,0,2
0,40,0,2
0,34,0,28
