track,note,velocity,time
0,59,127,46
0,36,127,1
0,48,127,0
0,60,127,0
0,59,127,55
0,55,116,1
0,60,127,42
0,62,127,73
0,67,127,0
0,55,127,1
0,60,127,71
0,62,127,66
0,64,127,55
0,59,127,19
0,41,127,0
0,56,127,1
0,59,127,5
0,56,127,1
0,60,127,25
0,62,127,12
0,67,127,6
0,65,127,1
0,65,127,77
0,64,127,134
0,59,127,1
0,48,127,0
0,36,126,0
0,59,127,6
0,55,127,0
0,60,127,6
0,62,127,25
0,67,127,73
0,55,127,0
0,60,127,59
0,62,127,61
0,64,127,56
0,59,127,6
0,41,127,0
0,64,127,1
0,59,127,30
0,56,127,1
0,65,127,43
0,62,127,0
0,60,127,72
0,62,127,0
0,67,108,66
0,36,127,7
0,48,127,0
0,36,127,2
0,55,127,64
0,60,127,72
0,62,127,20
0,67,127,72
0,55,127,2
0,62,127,67
0,60,92,1
0,60,124,2
0,48,127,61
0,36,127,0
0,56,127,71
0,60,127,68
0,62,127,13
0,64,127,72
0,56,127,7
0,62,127,72
0,60,127,1
0,45,127,25
0,57,127,55
0,60,127,13
0,64,127,72
0,69,127,72
0,57,127,49
0,60,127,50
0,57,127,49
0,43,127,73
0,55,127,49
0,58,127,54
0,62,127,73
0,62,127,7
0,48,127,1
0,55,127,31
0,60,127,72
0,57,127,43
0,41,127,72
0,57,127,1
0,60,127,72
0,67,127,72
0,65,127,18
0,57,127,48
0,64,127,55
0,62,127,72
0,40,127,7
0,64,127,1
0,62,96,1
0,57,127,0
0,62,127,42
0,59,127,1
0,56,127,128
0,64,127,143
0,56,118,43
0,45,127,1
0,62,127,0
0,57,127,60
0,60,127,72
0,59,127,72
0,45,127,13
0,60,127,0
0,57,127,13
0,64,127,71
0,57,127,43
0,42,127,71
0,57,94,36
0,66,127,73
0,69,127,0
0,62,114,0
0,66,127,1
0,64,127,71
0,57,127,19
0,62,127,72
0,57,127,49
0,41,127,0
0,56,127,66
0,62,127,72
0,60,127,72
0,64,127,6
0,43,127,0
0,62,92,1
0,56,127,60
0,62,127,67
0,59,127,5
0,36,127,1
0,55,118,0
0,52,110,6
0,48,103,0
0,48,127,0
0,59,127,0
0,55,126,0
0,60,127,49
0,62,127,71
0,64,127,73
0,55,114,19
0,67,127,72
0,24,109,1
0,55,127,1
0,56,127,19
0,37,127,1
0,32,127,0
0,48,127,1
0,52,102,50
0,56,127,5
0,60,127,55
0,56,92,1
0,64,127,20
0,62,98,0
0,60,92,60
0,56,127,1
0,62,127,19
0,60,127,72
0,57,127,9
0,36,127,4
0,59,127,0
0,33,127,0
0,64,127,0
0,36,127,55
0,59,127,0
0,57,127,0
0,59,100,48
0,60,127,36
0,64,127,18
0,52,96,1
0,57,127,42
0,60,126,37
0,57,127,6
0,37,127,6
0,31,127,0
0,50,108,1
0,55,127,0
0,62,122,1
0,53,127,4
0,57,127,0
0,55,120,1
0,58,127,6
0,58,127,1
0,62,127,55
0,60,127,1
0,62,127,0
0,65,122,25
0,60,127,0
0,24,127,1
0,64,127,1
0,55,127,60
0,52,114,6
0,55,127,19
0,62,127,0
0,58,127,1
0,28,127,2
0,60,122,0
0,53,127,0
0,57,127,0
0,59,127,1
0,36,127,0
0,29,127,1
0,53,127,0
0,59,127,13
0,57,127,0
0,60,127,60
0,65,127,72
0,57,112,31
0,57,118,49
0,60,127,60
0,57,127,60
0,57,124,3
0,52,116,1
0,59,127,0
0,37,127,0
0,28,127,1
0,52,127,0
0,59,127,24
0,62,127,66
0,62,127,6
0,64,127,1
0,56,127,57
0,59,112,72
0,56,127,1
0,64,127,1
0,62,127,12
0,57,112,16
0,55,127,0
0,60,108,8
0,36,127,0
0,59,127,1
0,33,127,0
0,57,127,0
0,36,127,1
0,59,127,0
0,60,122,0
0,64,127,54
0,69,127,72
0,60,118,61
0,60,126,6
0,64,127,7
0,57,127,0
0,69,127,24
0,54,104,5
0,37,127,2
0,30,127,0
0,54,127,0
0,57,94,24
0,62,127,72
0,66,127,7
0,57,122,114
0,69,127,78
0,62,127,2
0,56,120,2
0,53,127,1
0,50,114,0
0,36,127,2
0,59,127,0
0,29,127,1
0,53,127,1
0,59,127,48
0,56,122,7
0,62,127,49
0,60,127,72
0,36,127,1
0,36,127,0
0,31,127,0
0,55,127,1
0,60,127,0
0,60,120,4
0,37,127,36
0,98,117,0
0,57,127,0
0,59,120,43
0,48,127,6
0,59,127,0
0,45,127,12
0,40,127,25
0,42,127,1
0,49,127,5
0,36,127,0
0,24,127,0
0,72,126,1
0,42,113,55
0,55,127,1
0,42,127,1
0,38,127,0
0,60,127,0
0,64,127,6
0,42,107,7
0,24,127,0
0,67,127,1
0,42,127,31
0,24,127,0
0,42,111,13
0,55,124,0
0,38,127,13
0,42,127,0
0,60,98,0
0,36,127,37
0,42,121,1
0,24,127,0
0,108,50,13
0,71,126,18
0,36,127,13
0,42,127,0
0,59,127,4
0,35,125,2
0,47,127,1
0,42,121,13
0,54,124,0
0,107,50,25
0,42,127,35
0,38,127,1
0,59,127,0
0,42,121,36
0,35,121,0
0,63,122,1
0,63,127,0
0,66,118,5
0,108,50,26
0,36,127,25
0,42,127,0
0,35,127,1
0,66,127,0
0,42,113,38
0,105,50,2
0,69,127,1
0,38,127,12
0,42,127,0
0,71,126,7
0,36,127,1
0,42,117,0
0,35,123,0
0,108,50,2
0,67,127,1
0,64,127,2
0,67,106,0
0,42,127,1
0,36,127,1
0,28,127,0
0,52,127,0
0,107,50,1
0,42,115,36
0,59,114,1
0,105,50,1
0,42,127,36
0,38,127,1
0,64,127,0
0,107,50,1
0,42,95,36
0,28,127,0
0,67,127,0
0,108,50,0
0,69,127,1
0,42,127,6
0,36,127,0
0,28,127,0
0,69,122,1
0,71,127,0
0,42,107,37
0,103,50,25
0,67,127,7
0,38,127,13
0,42,127,0
0,64,114,0
0,67,127,2
0,36,127,25
0,42,115,0
0,28,125,1
0,59,120,0
0,108,50,18
0,65,127,11
0,42,127,5
0,36,127,1
0,31,127,0
0,43,127,1
0,65,127,1
0,60,112,1
0,42,113,37
0,58,127,0
0,67,127,1
0,62,127,0
0,107,50,25
0,42,127,9
0,38,127,1
0,65,127,0
0,62,104,1
0,42,113,35
0,33,127,1
0,62,127,0
0,108,50,1
0,67,127,1
0,67,127,6
0,36,127,1
0,42,127,0
0,24,127,0
0,48,127,1
0,64,122,0
0,65,127,1
0,67,127,6
0,42,113,1
0,36,127,1
0,58,127,0
0,65,127,5
0,67,127,6
0,69,127,7
0,105,50,1
0,70,127,2
0,65,127,1
0,60,117,0
0,42,127,1
0,38,127,1
0,28,127,0
0,64,127,0
0,72,127,2
0,74,114,6
0,76,112,1
0,76,127,6
0,36,127,1
0,42,107,1
0,36,127,0
0,72,127,0
0,58,92,0
0,62,127,0
0,74,127,1
0,76,127,2
0,101,50,1
0,77,110,8
0,42,127,7
0,36,127,1
0,29,127,0
0,57,127,0
0,41,127,0
0,65,127,0
0,65,127,0
0,81,127,1
0,79,102,1
0,103,50,2
0,42,117,36
0,53,127,0
0,60,127,0
0,105,50,2
0,79,127,11
0,42,127,2
0,38,127,0
0,57,127,0
0,107,50,2
0,42,115,35
0,29,127,1
0,60,126,0
0,108,50,2
0,77,127,5
0,36,127,13
0,42,127,0
0,32,127,0
0,56,127,1
0,42,115,25
0,60,110,0
0,96,50,24
0,42,127,36
0,38,127,0
0,64,127,24
0,42,115,12
0,36,127,1
0,29,125,0
0,64,114,0
0,72,127,1
0,62,127,1
0,74,127,0
0,64,127,19
0,36,127,1
0,42,127,0
0,24,127,1
0,64,127,0
0,48,127,0
0,77,127,1
0,42,121,31
0,55,124,6
0,76,126,37
0,38,127,7
0,42,127,0
0,67,118,1
0,42,117,6
0,24,127,1
0,62,127,0
0,47,127,0
0,74,127,7
0,42,127,0
0,36,127,0
0,33,127,5
0,60,127,1
0,45,126,0
0,42,109,54
0,67,126,0
0,72,127,37
0,42,127,12
0,38,127,1
0,55,104,0
0,38,127,1
0,42,127,0
0,36,127,0
0,31,127,6
0,60,102,1
0,76,124,7
0,62,127,7
0,36,127,1
0,42,127,0
0,26,127,0
0,50,127,0
0,42,115,43
0,36,127,0
0,57,127,1
0,74,118,31
0,42,127,6
0,38,127,1
0,66,127,0
0,60,127,0
0,66,127,1
0,42,121,37
0,26,127,1
0,69,127,5
0,69,127,2
0,64,126,11
0,36,127,6
0,42,127,0
0,26,127,1
0,60,112,0
0,42,107,2
0,57,124,0
0,42,127,31
0,38,127,0
0,62,127,1
0,60,126,0
0,72,114,1
0,36,127,26
0,42,115,0
0,26,119,0
0,76,127,7
0,36,127,6
0,42,127,0
0,31,127,0
0,43,127,1
0,57,127,0
0,65,127,1
0,60,127,0
0,65,127,1
0,60,127,1
0,42,115,48
0,57,124,1
0,38,127,43
0,42,127,0
0,60,127,0
0,36,127,31
0,42,127,0
0,31,127,0
0,74,127,1
0,65,127,0
0,42,127,5
0,36,127,1
0,65,127,0
0,55,127,1
0,59,127,0
0,62,127,1
0,67,127,2
0,62,127,1
0,36,127,24
0,42,127,0
0,48,127,0
0,31,127,1
0,74,127,19
0,42,127,7
0,42,117,1
0,48,127,0
0,76,127,0
0,77,127,5
0,45,127,0
0,79,127,1
0,81,127,11
0,42,127,1
0,36,127,0
0,45,127,0
0,40,127,1
0,35,127,0
0,83,127,0
0,84,127,6
0,57,127,0
0,36,127,0
0,60,127,1
0,48,127,0
0,67,127,0
0,24,127,1
0,86,127,0
0,64,127,0
0,74,127,1
0,59,127,60
0,55,127,0
0,84,127,1
0,72,127,1
0,59,127,7
0,38,127,0
0,67,127,1
0,64,127,0
0,60,127,0
0,36,127,48
0,59,127,1
0,24,127,0
0,48,127,0
0,36,127,37
0,59,127,1
0,48,127,0
0,24,127,5
0,59,127,61
0,55,127,0
0,59,127,43
0,38,127,0
0,60,127,1
0,64,127,0
0,67,127,0
0,59,127,36
0,36,127,0
0,24,123,0
0,26,127,7
0,59,127,1
0,36,127,0
0,28,127,0
0,52,127,1
0,59,127,61
0,59,124,0
0,83,127,43
0,71,127,6
0,59,127,7
0,38,127,0
0,59,127,1
0,64,127,0
0,68,127,0
0,36,125,31
0,59,127,1
0,71,127,0
0,28,121,13
0,86,127,1
0,74,127,0
0,59,125,13
0,36,127,0
0,28,127,0
0,52,127,1
0,59,127,1
0,36,127,0
0,59,120,1
0,28,127,1
0,72,127,31
0,84,127,0
0,38,127,1
0,59,127,0
0,64,127,1
0,68,127,0
0,36,115,31
0,59,125,1
0,28,127,0
0,52,127,0
0,71,127,6
0,83,127,1
0,36,127,6
0,59,127,1
0,33,127,0
0,57,127,0
0,59,127,54
0,60,122,1
0,81,127,36
0,69,127,1
0,59,127,18
0,38,127,1
0,64,127,0
0,69,127,0
0,60,127,1
0,59,127,30
0,36,127,0
0,28,127,1
0,57,127,0
0,36,127,37
0,59,127,1
0,33,127,0
0,57,127,0
0,59,123,2
0,36,127,0
0,60,120,5
0,33,127,1
0,59,127,7
0,38,127,1
0,60,127,5
0,64,127,0
0,69,127,1
0,71,127,1
0,83,127,0
0,36,123,6
0,36,111,6
0,59,127,1
0,33,127,0
0,57,127,0
0,81,127,31
0,69,127,1
0,36,127,2
0,59,127,0
0,52,127,0
0,28,127,2
0,59,127,13
0,36,127,1
0,59,116,0
0,79,127,25
0,67,127,6
0,59,127,7
0,38,127,1
0,64,127,0
0,62,127,0
0,67,127,0
0,59,127,5
0,59,123,32
0,36,127,0
0,52,127,0
0,28,115,12
0,81,127,0
0,69,127,1
0,59,127,6
0,36,127,0
0,33,127,1
0,57,127,0
0,59,127,13
0,36,123,0
0,61,127,6
0,59,127,7
0,38,127,1
0,25,127,0
0,64,127,0
0,67,127,0
0,61,127,0
0,79,127,19
0,67,127,0
0,38,127,13
0,36,127,0
0,59,127,1
0,57,127,1
0,36,127,1
0,57,127,0
0,59,127,1
0,50,127,0
0,26,127,1
0,77,127,29
0,65,127,1
0,59,121,13
0,57,110,0
0,38,127,13
0,59,127,0
0,62,127,0
0,65,127,1
0,57,127,0
0,26,121,25
0,59,111,5
0,59,119,1
0,36,127,0
0,50,127,1
0,28,127,6
0,79,127,31
0,67,127,0
0,31,127,0
0,36,127,1
0,59,127,0
0,55,127,0
0,59,123,48
0,59,127,1
0,77,127,36
0,65,127,1
0,59,127,12
0,38,127,1
0,28,123,0
0,67,127,0
0,62,127,1
0,59,127,0
0,36,127,1
0,59,123,1
0,55,127,0
0,57,127,26
0,59,127,0
0,36,127,0
0,48,127,0
0,64,127,1
0,60,127,0
0,24,127,1
0,59,123,55
0,59,126,1
0,64,127,2
0,76,127,0
0,35,127,1
0,57,127,1
0,59,127,0
0,38,127,0
0,62,127,0
0,47,127,0
0,59,124,1
0,59,127,31
0,36,127,0
0,57,116,0
0,74,127,1
0,86,127,1
0,33,127,1
0,59,127,6
0,36,127,0
0,57,127,1
0,64,127,0
0,60,127,0
0,45,127,1
0,59,127,60
0,36,127,0
0,57,127,1
0,72,127,26
0,84,127,0
0,31,127,7
0,38,127,1
0,59,127,1
0,57,127,0
0,64,127,0
0,60,127,0
0,59,127,2
0,36,127,0
0,45,127,0
0,88,127,30
0,76,127,1
0,30,127,17
0,59,121,2
0,36,127,0
0,60,110,0
0,62,126,0
0,50,127,0
0,66,127,0
0,59,117,49
0,57,110,0
0,86,127,37
0,74,127,1
0,59,127,0
0,38,127,1
0,66,127,0
0,60,127,0
0,57,127,0
0,59,113,1
0,26,127,1
0,50,127,0
0,84,127,42
0,72,127,0
0,31,127,7
0,59,115,6
0,36,127,0
0,59,127,1
0,55,127,0
0,59,127,60
0,36,127,1
0,59,127,0
0,83,127,37
0,71,127,0
0,59,127,13
0,38,127,0
0,59,127,0
0,65,127,0
0,62,127,1
0,36,127,0
0,59,125,1
0,31,127,0
0,55,127,1
0,86,127,6
0,74,127,1
0,59,127,1
0,36,127,0
0,24,127,0
0,48,127,1
0,67,127,0
0,64,127,0
0,59,121,43
0,36,127,0
0,60,108,1
0,84,127,6
0,72,127,6
0,59,127,5
0,38,127,0
0,67,127,1
0,60,127,0
0,64,127,0
0,59,123,25
0,24,123,0
0,48,127,1
0,28,127,1
0,80,127,1
0,68,127,0
0,56,127,1
0,84,127,0
0,32,127,10
0,54,127,0
0,36,127,1
0,56,127,0
0,63,127,1
0,68,127,0
0,60,127,0
0,56,127,0
0,51,127,0
0,49,127,7
0,51,127,1
0,49,126,1
0,59,127,12
0,38,127,0
0,49,127,1
0,32,127,0
0,54,127,0
0,60,127,0
0,56,127,6
0,51,127,1
0,56,127,1
0,51,127,1
0,58,127,8
0,36,81,5
0,59,115,1
0,66,127,0
0,68,127,0
0,63,127,0
0,60,127,0
0,38,127,1
0,56,127,6
0,54,104,1
0,38,127,2
0,56,127,0
0,55,112,3
0,58,127,5
0,59,117,12
0,59,127,2
0,48,127,1
0,32,127,0
0,54,116,0
0,56,127,0
0,54,127,8
0,45,127,1
0,40,105,5
0,56,127,1
0,54,116,1
0,36,127,5
0,57,127,0
0,65,124,1
0,63,127,0
0,49,127,0
0,25,127,1
0,59,121,59
0,56,127,1
0,38,127,1
0,59,127,1
0,61,127,0
0,61,127,0
0,59,127,13
0,36,127,0
0,25,127,0
0,63,126,1
0,36,127,7
0,59,127,1
0,25,127,0
0,68,127,0
0,59,127,7
0,56,127,0
0,38,127,7
0,59,127,0
0,63,127,0
0,60,127,7
0,59,127,5
0,25,119,1
0,61,127,0
0,61,127,1
0,69,127,12
0,59,127,24
0,36,127,0
0,33,121,1
0,45,124,0
0,63,127,1
0,59,127,1
0,57,127,0
0,59,127,7
0,38,127,0
0,61,127,0
0,61,127,5
0,36,127,6
0,33,127,1
0,59,127,5
0,63,127,1
0,60,127,4
0,36,127,48
0,59,127,1
0,61,127,0
0,65,127,0
0,63,127,1
0,59,127,6
0,57,120,0
0,38,127,6
0,59,127,1
0,65,127,0
0,63,127,0
0,61,127,0
0,61,127,8
0,59,127,6
