track,note,velocity,time
3,31,90,9216
3,31,86,30
3,36,84,24
3,36,90,78
3,35,74,96
3,35,70,94
3,33,72,96
3,33,80,78
3,31,80,6
3,31,78,48
3,29,80,14
3,29,66,70
3,30,70,14
3,42,74,14
3,30,74,96
3,31,74,16
3,43,80,192
3,31,66,86
3,31,80,70
3,43,74,192
3,31,64,72
3,36,72,80
3,36,74,94
3,36,74,64
3,36,72,70
3,41,70,6
3,41,72,72
3,41,80,72
3,41,72,56
3,36,74,96
3,36,74,80
3,36,80,70
3,36,72,48
3,31,66,96
3,31,78,78
3,31,78,78
3,43,80,0
3,31,90,6
3,31,86,78
3,43,86,78
3,31,44,46
3,31,90,40
3,31,90,30
3,36,84,16
3,36,90,80
3,35,74,96
3,35,72,86
3,33,80,96
3,33,70,72
3,31,80,96
3,31,78,78
3,41,78,96
3,41,72,46
3,42,74,24
3,42,74,72
3,31,80,96
3,31,80,72
3,31,80,78
3,43,86,0
3,38,72,22
3,31,78,14
3,36,84,30
3,36,90,86
3,36,90,72
3,40,84,8
3,29,72,32
3,29,70,94
3,29,74,72
3,29,72,88
3,36,84,6
3,36,80,80
3,36,72,78
3,36,80,72
3,31,84,96
3,31,90,102
3,31,86,78
3,31,90,88
3,43,90,0
3,31,86,30
3,43,90,0
3,36,84,14
3,36,90,80
3,35,74,96
3,35,72,86
3,33,80,96
3,33,70,72
3,31,80,96
3,31,78,78
3,41,78,96
3,41,72,46
3,42,74,24
3,42,74,72
3,31,80,96
3,31,80,72
3,31,80,78
3,43,86,0
3,38,72,24
3,31,78,14
3,36,84,30
3,36,90,86
3,36,90,72
3,40,84,8
3,29,72,32
3,29,70,94
3,29,74,72
3,29,72,88
3,36,84,6
3,36,80,80
3,36,72,72
3,36,80,72
3,31,84,96
3,31,90,102
3,31,86,78
3,31,90,88
3,43,90,0
3,31,86,30
3,43,90,0
3,36,84,14
3,36,90,78
3,35,74,96
3,35,70,88
3,33,72,96
3,33,80,78
3,31,80,8
3,31,78,48
3,29,80,14
3,29,66,70
3,30,70,14
3,42,74,14
3,30,74,6
3,31,74,16
3,43,80,192
3,31,66,86
3,31,80,64
3,43,74,192
3,31,64,72
3,36,72,86
3,36,74,94
3,36,74,64
3,36,72,70
3,41,70,6
3,41,72,72
3,41,80,72
3,41,72,56
3,36,74,96
3,36,74,80
3,36,80,70
3,36,72,48
3,31,66,96
3,31,78,78
3,31,78,78
3,43,80,0
3,31,86,8
3,31,86,78
3,31,90,70
3,33,90,80
3,45,90,0
3,33,80,24
3,45,86,0
3,38,84,14
3,38,90,86
3,37,74,96
3,37,72,88
3,35,80,96
3,35,70,78
3,33,80,96
3,33,78,80
3,43,78,96
3,43,72,46
3,44,74,24
3,44,74,72
3,33,80,96
3,33,80,78
3,33,80,80
3,45,86,0
3,40,72,24
3,33,78,16
3,38,84,32
3,38,90,86
3,38,90,72
3,42,84,8
3,31,72,32
3,31,70,94
3,31,74,72
3,31,72,88
3,38,84,8
3,38,80,86
3,38,72,72
3,38,80,72
3,33,84,96
3,33,90,102
3,33,86,80
3,33,90,88
3,45,90,0
3,33,86,32
3,45,90,0
3,38,84,16
3,38,90,86
3,37,74,96
3,37,72,88
3,35,80,96
3,35,70,78
3,33,80,96
3,33,78,80
3,43,78,96
3,43,72,46
3,44,74,24
3,44,74,72
3,33,80,96
3,33,80,78
3,33,80,80
3,45,86,0
3,40,72,30
3,33,78,16
3,38,84,32
3,38,90,86
3,38,90,72
3,42,84,8
3,31,72,32
3,31,70,94
3,31,74,72
3,31,72,88
3,38,84,8
3,38,80,86
3,38,72,72
3,38,80,72
3,33,84,96
3,33,90,102
3,33,86,82
3,33,90,88
3,45,90,0
3,33,86,32
3,45,90,0
3,31,80,16
3,31,78,118
3,31,70,72
3,31,72,78
3,33,78,14
3,33,72,72
3,33,74,70
3,50,76,62
3,38,79,576
3,33,78,18
3,31,77,8
3,33,80,2
3,31,52,48
3,43,54,2
3,31,36,2
3,38,60,2
4,67,68,7784
4,74,66,96
4,72,84,96
4,79,74,0
4,67,68,222
4,72,76,96
4,74,72,96
4,79,80,96
5,67,90,3120
5,76,108,2
5,76,102,16
5,74,114,8
5,72,80,96
5,74,108,48
5,76,94,142
5,72,108,44
5,71,90,88
5,69,94,6
5,77,94,582
5,77,94,22
5,77,90,18
5,77,102,18
5,76,90,20
5,74,94,8
5,72,76,8
5,74,90,6
5,79,89,692
5,79,93,22
5,79,97,16
5,79,93,24
5,77,90,96
5,76,102,10
5,74,90,12
5,72,98,4
5,77,94,2
5,79,108,432
5,74,76,20
5,76,76,12
5,79,102,312
5,74,80,8
5,67,94,772
5,76,90,12
5,76,94,14
5,74,108,48
5,72,80,14
5,74,94,2
5,76,90,16
5,72,102,96
5,71,76,8
5,69,76,6
5,77,98,614
5,77,94,20
5,77,94,14
5,77,98,12
5,76,94,12
5,74,98,18
5,72,76,10
5,72,98,12
5,71,68,10
5,79,101,688
5,79,93,24
5,79,101,20
5,79,97,22
5,77,90,2
5,76,108,14
5,74,94,24
5,72,94,6
5,77,90,4
5,79,108,448
5,74,86,6
5,76,90,10
5,81,98,326
5,79,94,22
5,77,108,34
5,76,94,8
5,74,90,8
5,76,102,48
5,74,76,18
5,76,102,6
5,79,108,6
5,72,86,484
5,71,102,16
5,72,98,8
5,74,102,10
5,76,90,8
5,72,98,8
5,81,98,212
5,77,114,10
5,74,108,6
5,72,98,6
5,72,102,26
5,71,94,16
5,69,80,16
5,71,102,12
5,79,108,414
5,76,108,12
5,72,108,12
5,70,102,14
5,69,102,4
5,77,102,6
5,81,102,474
5,79,114,14
5,74,102,4
5,76,94,14
5,81,102,520
5,79,98,96
5,77,102,12
5,76,98,14
5,74,108,20
5,72,98,206
5,71,98,24
5,72,108,8
5,74,102,14
5,76,102,12
5,74,94,14
5,72,94,96
5,71,94,12
5,72,98,10
5,81,102,310
5,77,108,2
5,74,102,8
5,72,98,10
5,72,102,20
5,71,90,10
5,69,94,16
5,71,108,14
5,79,94,116
5,76,108,4
5,72,94,6
5,70,98,12
5,69,94,4
5,77,98,10
5,81,108,60
5,79,108,20
5,74,94,18
5,76,114,14
5,81,98,526
5,79,102,10
5,77,108,14
5,76,98,16
5,74,102,10
5,67,90,324
5,76,108,2
5,76,102,16
5,74,114,8
5,72,80,96
5,74,108,48
5,76,94,142
5,72,108,44
5,71,90,88
5,69,94,6
5,77,94,584
5,77,94,16
5,77,102,20
5,77,102,4
5,76,86,18
5,74,98,10
5,72,94,12
5,74,94,8
5,79,86,684
5,79,90,22
5,79,94,16
5,79,90,24
5,77,90,96
5,76,102,10
5,74,90,12
5,72,98,4
5,77,94,2
5,79,108,432
5,74,94,32
5,76,108,16
5,81,102,422
5,79,114,16
5,77,114,288
5,76,114,48
5,74,114,48
5,76,0,0
5,74,0,192
5,74,110,960
5,74,0,240
5,73,102,144
5,74,94,96
5,76,108,10
5,78,94,2
5,74,94,6
5,83,108,274
5,79,108,2
5,76,102,8
5,74,98,10
5,74,102,20
5,73,90,10
5,71,94,16
5,73,108,14
5,81,94,116
5,78,108,4
5,74,94,6
5,72,98,12
5,71,94,4
5,79,98,10
5,83,108,60
5,81,108,20
5,76,94,18
5,78,114,14
5,83,98,526
5,81,102,10
5,79,108,14
5,78,98,16
5,76,102,10
5,74,108,88
5,73,102,8
5,74,102,4
5,76,108,8
5,78,98,90
5,74,102,4
5,83,102,78
5,79,108,2
5,76,102,8
5,74,98,10
5,74,102,20
5,73,90,10
5,71,94,16
5,73,108,14
5,81,94,116
5,78,108,4
5,74,94,6
5,72,98,12
5,71,94,4
5,79,98,10
5,83,108,60
5,81,108,20
5,76,94,18
5,78,114,14
5,83,98,526
5,81,102,10
5,79,108,14
5,78,98,16
5,76,102,10
5,64,94,88
5,66,52,8
5,64,64,18
5,62,90,4
5,69,86,692
5,78,80,98
5,76,86,10
5,74,76,12
5,76,90,946
5,76,90,22
5,74,62,670
5,76,72,2
5,74,72,52
6,41,60,6922
6,67,70,0
6,57,24,94
6,60,46,30
6,67,10,16
6,57,28,48
6,57,48,22
6,65,60,0
6,41,58,22
6,57,58,62
6,60,76,96
6,48,58,1584
6,55,16,142
6,55,64,24
6,64,70,0
6,48,52,62
6,47,58,30
6,55,44,192
6,62,68,0
6,47,42,70
6,45,58,10
6,57,54,94
6,64,68,96
6,45,56,54
6,43,60,14
6,55,46,192
6,41,92,90
6,60,58,190
6,65,64,0
6,41,64,48
6,42,86,14
6,62,70,96
6,66,80,96
6,42,58,72
6,43,68,26
6,60,66,184
6,65,60,0
6,67,56,0
6,43,66,64
6,59,64,30
6,67,60,0
6,43,70,102
6,48,86,58
6,55,60,94
6,58,64,96
6,62,82,96
6,60,78,16
6,48,60,94
6,58,58,24
6,55,54,72
6,41,74,26
6,57,48,88
6,65,60,96
6,57,42,32
6,60,72,38
6,41,64,40
6,57,58,96
6,60,68,0
6,48,66,18
6,60,56,94
6,62,88,96
6,64,82,96
6,62,64,86
6,60,56,22
6,48,44,88
6,60,42,22
6,43,86,24
6,62,58,86
6,67,80,96
6,62,68,78
6,43,62,70
6,62,58,70
6,62,60,30
6,67,62,40
6,43,66,62
6,62,60,78
6,67,68,94
6,62,60,94
6,55,72,94
6,43,70,48
6,55,62,30
6,62,80,96
6,48,82,16914
6,60,72,94
6,62,104,96
6,64,98,96
6,62,80,86
6,60,72,22
6,48,60,88
6,60,58,22
6,43,102,24
6,62,74,86
6,67,96,96
6,62,84,78
6,43,78,70
6,62,74,70
6,62,76,30
6,67,78,40
6,43,82,64
6,62,76,78
6,67,84,94
6,62,76,94
6,55,88,94
6,43,86,46
6,55,78,30
6,62,96,96
7,36,64,88
7,52,66,0
7,47,76,4
7,55,72,0
7,45,64,2
7,52,62,0
7,60,64,0
7,43,90,2
7,41,82,2
7,53,58,0
7,57,66,0
7,42,100,4
7,62,88,0
7,43,70,4
7,53,60,0
7,55,60,0
7,60,70,0
7,43,78,4
7,53,56,0
7,55,66,0
7,59,72,0
7,43,96,2
7,53,72,0
7,57,88,0
7,36,64,2
7,52,66,0
7,47,76,4
7,55,72,0
7,45,64,2
7,52,62,0
7,60,64,0
7,43,90,2
7,41,82,2
7,53,58,0
7,57,66,0
7,62,88,4
7,42,72,2
7,43,70,4
7,53,60,0
7,55,60,0
7,60,70,0
7,43,78,4
7,53,56,0
7,55,66,0
7,59,72,0
7,43,96,2
7,53,72,0
7,36,96,2
7,58,54,0
7,62,48,0
7,52,50,384
7,41,68,6
7,57,62,0
7,60,50,0
7,36,72,8
7,55,48,0
7,64,50,0
7,48,36,288
7,43,72,2
7,53,50,0
7,59,48,0
7,62,52,0
7,60,74,768
7,69,84,0
7,60,62,80
7,69,72,0
7,60,84,74
7,69,80,0
7,60,80,74
7,69,82,0
7,60,76,68
7,66,76,0
7,60,58,68
7,66,80,0
7,60,60,64
7,66,76,0
7,60,74,68
7,66,88,0
7,60,80,74
7,65,84,0
7,67,82,0
7,60,76,78
7,65,82,0
7,67,80,0
7,60,94,74
7,65,96,0
7,67,96,0
7,60,96,68
7,65,98,0
7,67,98,0
7,59,94,68
7,65,98,0
7,67,98,0
7,59,82,68
7,65,96,0
7,67,94,0
7,59,94,68
7,65,98,0
7,67,104,0
7,59,96,64
7,65,102,0
7,67,98,0
7,58,74,74
7,62,74,0
7,67,84,0
7,58,64,80
7,62,68,0
7,67,86,0
7,58,76,68
7,62,82,0
7,67,98,0
7,58,70,74
7,62,76,0
7,67,86,0
7,58,76,68
7,62,74,0
7,67,86,0
7,58,60,68
7,62,58,0
7,67,76,0
7,58,54,74
7,62,64,0
7,67,80,0
7,58,62,68
7,62,68,0
7,67,80,0
7,60,74,68
7,65,82,0
7,60,48,68
7,65,62,0
7,60,70,74
7,65,80,0
7,60,60,74
7,65,72,0
7,60,62,68
7,65,82,0
7,60,58,64
7,65,76,0
7,60,68,68
7,65,84,0
7,60,80,68
7,65,82,0
7,67,92,164
7,72,106,68
7,74,98,64
7,76,86,78
7,67,84,78
7,72,96,68
7,74,98,74
7,67,84,170
7,72,92,68
7,67,72,74
7,71,102,68
7,60,74,1898
7,69,84,0
7,60,62,80
7,69,72,0
7,60,84,74
7,69,80,0
7,60,80,74
7,69,82,0
7,60,76,68
7,66,76,0
7,60,58,68
7,66,80,0
7,60,60,64
7,66,76,0
7,60,74,68
7,66,88,0
7,60,80,74
7,65,84,0
7,67,82,0
7,60,76,78
7,65,82,0
7,67,80,0
7,60,94,74
7,65,96,0
7,67,96,0
7,60,96,64
7,65,98,0
7,67,98,0
7,59,94,68
7,65,98,0
7,67,98,0
7,59,82,68
7,65,96,0
7,67,94,0
7,59,94,68
7,65,98,0
7,67,104,0
7,59,96,64
7,65,102,0
7,67,98,0
7,58,74,74
7,62,74,0
7,67,84,0
7,58,64,80
7,62,68,0
7,67,86,0
7,58,76,68
7,62,82,0
7,67,98,0
7,58,70,74
7,62,76,0
7,67,86,0
7,58,76,68
7,62,74,0
7,67,86,0
7,58,60,68
7,62,58,0
7,67,76,0
7,58,54,74
7,62,64,0
7,67,80,0
7,58,62,68
7,62,68,0
7,67,80,0
7,60,74,68
7,65,82,0
7,60,48,68
7,65,62,0
7,60,70,74
7,65,80,0
7,60,60,74
7,65,72,0
7,60,62,74
7,65,82,0
7,60,58,64
7,65,76,0
7,60,68,68
7,65,84,0
7,60,80,68
7,65,82,0
7,67,92,164
7,72,106,74
7,74,98,64
7,76,86,78
7,67,84,78
7,72,96,64
7,74,98,74
7,67,84,170
7,72,92,74
7,67,72,74
7,71,102,68
7,62,74,8810
7,71,84,0
7,62,62,80
7,71,72,0
7,62,84,78
7,71,80,0
7,62,80,78
7,71,82,0
7,62,76,68
7,68,76,0
7,62,58,68
7,68,80,0
7,62,60,68
7,68,76,0
7,62,74,68
7,68,88,0
7,62,80,78
7,67,84,0
7,69,82,0
7,62,76,78
7,67,82,0
7,69,80,0
7,62,94,74
7,67,96,0
7,69,96,0
7,62,96,68
7,67,98,0
7,69,98,0
7,61,94,68
7,67,98,0
7,69,98,0
7,61,82,68
7,67,96,0
7,69,94,0
7,61,94,64
7,67,98,0
7,69,104,0
7,61,96,68
7,67,102,0
7,69,98,0
7,60,74,78
7,64,74,0
7,69,84,0
7,60,64,80
7,64,68,0
7,69,86,0
7,60,76,68
7,64,82,0
7,69,98,0
7,60,70,78
7,64,76,0
7,69,86,0
7,60,76,68
7,64,74,0
7,69,86,0
7,60,60,68
7,64,58,0
7,69,76,0
7,60,54,74
7,64,64,0
7,69,80,0
7,60,62,68
7,64,68,0
7,69,80,0
7,62,74,68
7,67,82,0
7,62,48,78
7,67,62,0
7,62,70,78
7,67,80,0
7,62,60,78
7,67,72,0
7,62,62,78
7,67,82,0
7,62,58,68
7,67,76,0
7,62,68,64
7,67,84,0
7,62,80,68
7,67,82,0
7,69,92,164
7,74,106,74
7,76,98,68
7,78,86,78
7,69,84,78
7,74,96,68
7,76,98,78
7,69,84,174
7,74,92,78
7,69,72,78
7,73,102,68
7,62,74,1902
7,71,84,0
7,62,62,80
7,71,72,0
7,62,84,74
7,71,80,0
7,62,80,78
7,71,82,0
7,62,76,68
7,68,76,0
7,62,58,78
7,68,80,0
7,62,60,64
7,68,76,0
7,62,74,68
7,68,88,0
7,62,80,78
7,67,84,0
7,69,82,0
7,62,76,78
7,67,82,0
7,69,80,0
7,62,94,78
7,67,96,0
7,69,96,0
7,62,96,68
7,67,98,0
7,69,98,0
7,61,94,68
7,67,98,0
7,69,98,0
7,61,82,68
7,67,96,0
7,69,94,0
7,61,94,68
7,67,98,0
7,69,104,0
7,61,96,68
7,67,102,0
7,69,98,0
7,60,74,78
7,64,74,0
7,69,84,0
7,60,64,80
7,64,68,0
7,69,86,0
7,60,76,68
7,64,82,0
7,69,98,0
7,60,70,78
7,64,76,0
7,69,86,0
7,60,76,68
7,64,74,0
7,69,86,0
7,60,60,68
7,64,58,0
7,69,76,0
7,60,54,78
7,64,64,0
