track,note,velocity,time
1,62,43,2640
1,62,0,240
1,65,37,0
1,60,50,0
1,60,0,480
1,62,44,0
1,62,0,180
1,60,43,0
1,60,0,30
1,62,43,0
1,62,0,30
1,63,50,0
1,63,0,360
1,62,37,0
1,62,0,120
1,60,42,0
1,60,0,240
1,58,45,0
1,58,0,720
1,53,33,0
1,53,0,480
1,62,43,0
1,62,0,240
1,65,0,0
1,65,37,0
1,60,50,0
1,60,0,360
1,62,37,0
1,62,0,120
1,60,44,0
1,60,0,210
1,62,43,0
1,62,0,30
1,63,50,0
1,63,0,360
1,62,37,0
1,62,0,120
1,60,42,0
1,60,0,240
1,58,45,0
1,65,0,1440
1,70,40,0
1,70,0,1200
1,58,30,0
1,58,0,240
1,70,41,0
1,58,0,720
1,58,34,480
1,58,0,240
1,70,0,0
1,63,43,0
1,63,0,360
1,63,32,0
1,63,0,120
1,63,38,0
1,63,30,180
1,63,0,30
1,65,28,0
1,65,0,30
1,63,0,0
1,67,39,0
1,67,0,360
1,65,30,0
1,65,0,120
1,63,33,0
1,63,0,240
1,62,33,0
1,62,0,1200
1,55,54,2400
1,53,54,0
1,62,54,0
1,59,54,0
1,59,0,720
1,55,0,0
1,53,0,0
1,62,0,0
1,51,59,0
1,55,59,0
1,60,59,0
1,60,0,480
1,55,0,0
1,51,0,0
1,53,55,240
1,59,55,0
1,59,0,480
1,53,0,0
1,55,53,192
1,55,0,48
1,51,63,0
1,60,63,0
1,51,0,480
1,60,0,48
1,62,59,0
1,62,0,48
1,63,61,0
1,63,0,48
1,65,63,0
1,65,0,48
1,67,64,0
1,67,0,48
1,62,66,0
1,68,66,0
1,62,0,480
1,68,0,48
1,67,59,0
1,67,0,48
1,65,60,0
1,65,0,48
1,63,61,0
1,63,0,48
1,62,67,0
1,62,0,48
1,58,59,0
1,67,59,0
1,67,0,480
1,58,0,0
1,60,55,240
1,62,55,0
1,66,55,0
1,66,0,480
1,62,0,0
1,60,0,0
1,62,53,192
1,62,0,48
1,58,63,0
1,67,63,0
1,58,0,480
1,67,0,48
1,69,59,0
1,69,0,48
1,70,61,0
1,70,0,48
1,72,63,0
1,72,0,48
1,74,64,0
1,74,0,48
1,70,66,0
1,75,66,0
1,70,0,480
1,75,0,48
1,74,58,0
1,74,0,48
1,75,60,0
1,75,0,48
1,77,62,0
1,77,0,48
1,78,64,0
1,78,0,48
1,69,56,0
1,78,66,0
1,69,0,480
1,78,0,48
1,69,59,0
1,69,0,48
1,70,60,0
1,70,0,48
1,72,61,0
1,72,0,48
1,74,63,0
1,74,0,48
1,72,66,0
1,75,66,0
1,75,0,480
1,72,0,0
1,70,45,0
1,74,54,0
1,74,0,60
1,75,50,0
1,75,0,60
1,77,48,0
1,77,0,60
1,78,46,0
1,78,0,60
1,70,0,0
1,70,45,0
1,78,45,0
1,78,0,480
1,75,38,0
1,75,0,240
1,70,0,0
1,70,41,0
1,66,31,480
1,66,0,240
1,70,0,0
1,56,35,0
1,64,35,0
1,56,0,480
1,64,0,48
1,55,35,0
1,55,0,48
1,56,37,0
1,56,0,48
1,58,39,0
1,58,0,48
1,59,41,0
1,59,0,48
1,58,35,0
1,64,35,0
1,58,0,480
1,64,0,48
1,63,35,0
1,63,0,48
1,64,37,0
1,64,0,48
1,66,39,0
1,66,0,48
1,68,41,0
1,68,0,48
1,70,45,0
1,66,45,0
1,66,0,480
1,63,31,0
1,63,0,240
1,58,34,0
1,58,0,480
1,54,26,0
1,54,0,240
1,70,0,0
1,56,35,0
1,63,35,0
1,56,0,480
1,63,0,48
1,55,35,0
1,55,0,48
1,56,37,0
1,56,0,48
1,58,39,0
1,58,0,48
1,59,41,0
1,59,0,48
1,58,26,0
1,62,41,0
1,58,0,480
1,62,0,48
1,61,35,0
1,61,0,48
1,62,37,0
1,62,0,48
1,63,39,0
1,63,0,48
1,65,41,0
1,65,0,48
1,66,45,0
1,63,45,0
1,63,0,1200
1,58,26,0
1,58,0,240
1,66,0,0
1,57,26,0
1,63,26,0
1,65,33,0
1,53,26,1440
1,58,26,0
1,65,33,0
1,65,0,1440
1,63,0,0
1,65,0,0
1,57,0,0
1,58,0,0
1,53,0,0
1,57,26,0
1,63,26,0
1,65,33,0
1,65,0,1440
1,63,0,0
1,57,0,0
1,58,26,0
1,53,26,0
1,65,33,0
1,65,0,1440
1,53,0,0
1,70,40,0
1,70,0,1200
1,58,30,0
1,58,0,240
1,70,48,0
1,70,0,360
1,70,50,0
1,70,0,120
1,70,56,0
1,70,52,180
1,70,0,30
1,72,54,0
1,72,0,30
1,70,0,0
1,58,0,0
1,62,49,0
1,74,56,0
1,74,0,360
1,62,0,0
1,60,37,0
1,72,44,0
1,72,0,120
1,60,0,0
1,58,33,0
1,70,39,0
1,70,0,240
1,58,0,0
1,70,40,0
1,70,0,1200
1,58,30,0
1,70,49,240
1,70,0,360
1,70,50,0
1,70,0,120
1,70,56,0
1,70,52,180
1,70,0,30
1,72,54,0
1,72,0,30
1,70,0,0
1,58,0,0
1,62,48,0
1,74,56,0
1,74,0,360
1,62,0,0
1,60,43,0
1,72,51,0
1,72,0,120
1,60,0,0
1,58,42,0
1,70,50,0
1,70,0,240
1,58,0,0
1,75,65,0
1,63,55,0
1,63,0,360
1,75,0,0
1,77,48,0
1,65,40,0
1,65,0,120
1,77,0,0
1,75,58,0
1,63,49,0
1,63,0,150
1,75,0,0
1,65,48,0
1,77,57,0
1,77,0,30
1,65,0,0
1,75,61,0
1,63,51,0
1,63,0,30
1,77,64,0
1,65,54,0
1,65,0,30
1,77,0,0
1,75,0,0
1,79,68,0
1,67,57,0
1,67,0,360
1,79,0,0
1,77,56,0
1,65,47,0
1,65,0,120
1,77,0,0
1,75,65,0
1,63,55,0
1,63,0,240
1,75,0,0
1,60,59,0
1,62,59,0
1,74,70,0
1,74,0,720
1,62,0,0
1,60,0,0
1,65,35,0
1,74,45,0
1,67,50,0
1,67,0,480
1,67,42,0
1,67,0,240
1,74,0,0
1,65,0,0
1,63,41,0
1,72,43,0
1,68,53,0
1,68,0,360
1,68,39,0
1,68,0,120
1,68,47,0
1,68,37,180
1,68,0,30
1,70,35,0
1,70,0,30
1,68,0,0
1,72,0,0
1,72,48,0
1,72,0,360
1,70,35,0
1,70,0,120
1,68,37,0
1,68,0,240
1,63,0,0
1,67,37,0
1,65,37,0
1,65,0,720
1,67,0,0
1,58,37,0
1,67,37,0
1,62,41,480
1,62,0,240
1,67,0,0
1,58,0,0
1,65,37,0
1,60,50,0
1,60,0,480
1,62,44,0
1,62,0,180
1,60,43,0
1,60,0,30
1,62,43,0
1,62,0,30
1,65,0,0
1,63,50,0
1,63,0,360
1,62,37,0
1,62,0,120
1,65,44,0
1,60,42,0
1,60,0,240
1,58,45,0
1,58,0,720
1,53,33,0
1,53,0,480
1,62,43,0
1,62,0,240
1,65,0,0
1,65,37,0
1,60,50,0
1,60,0,360
1,62,35,0
1,62,0,120
1,60,44,0
1,60,0,180
1,62,43,30
1,62,0,30
1,63,50,0
1,63,0,360
1,62,37,0
1,62,0,120
1,65,0,0
1,65,44,0
1,60,42,0
1,60,0,600
1,58,37,0
1,58,0,120
1,65,0,0
1,65,42,0
1,62,37,0
1,62,0,240
1,65,0,0
1,65,50,0
1,65,0,360
1,60,31,0
1,67,49,0
1,67,0,120
1,60,0,0
1,63,37,0
1,69,52,0
1,69,0,240
1,63,0,0
1,70,58,0
1,58,37,360
1,58,0,120
1,70,0,0
1,62,37,0
1,65,44,0
1,65,0,240
1,62,0,0
1,56,55,0
1,56,0,360
1,55,42,0
1,67,49,120
1,62,46,0
1,62,0,240
1,55,0,0
1,60,43,360
1,60,0,120
1,67,0,0
1,67,49,0
1,63,42,0
1,63,0,240
1,67,0,0
1,67,55,0
1,67,0,360
1,62,31,0
1,69,52,0
1,69,0,120
1,62,0,0
1,65,37,0
1,71,55,0
1,71,0,240
1,65,0,0
1,72,58,0
1,60,37,360
1,60,0,120
1,72,0,0
1,63,37,0
1,67,44,0
1,67,0,240
1,63,0,0
1,58,50,0
1,58,0,360
1,57,37,0
1,69,44,120
1,64,44,0
1,64,0,240
1,69,0,0
1,57,0,0
1,69,57,0
1,62,37,360
1,62,0,120
1,69,0,0
1,65,37,0
1,69,48,0
1,69,0,240
1,65,0,0
1,69,55,0
1,69,0,360
1,71,53,0
1,61,37,0
1,61,0,120
1,71,0,0
1,73,52,0
1,64,44,0
1,64,0,240
1,73,0,0
1,74,63,0
1,62,37,360
1,62,0,120
1,65,44,0
1,65,0,240
1,63,54,0
1,63,0,360
1,74,0,0
1,72,54,0
1,62,54,360
1,62,0,360
1,72,0,0
1,70,52,0
1,60,58,360
1,60,0,360
1,70,0,0
1,69,52,0
1,69,0,360
1,67,60,0
1,67,0,360
1,69,51,0
1,69,0,120
1,70,60,0
1,70,0,180
1,70,60,0
1,70,0,60
1,74,68,0
1,74,0,360
1,72,63,0
1,72,0,120
1,65,69,0
1,77,64,240
1,77,0,240
1,65,0,120
1,57,30,0
1,63,37,0
1,63,0,120
1,57,0,0
1,65,42,0
1,65,0,120
1,65,50,120
1,65,0,360
1,60,31,0
1,67,49,0
1,67,0,60
1,60,0,0
1,69,52,60
1,69,0,120
1,69,54,120
1,69,0,240
1,58,37,120
1,65,37,0
1,65,0,120
1,58,0,0
1,70,42,0
1,70,0,600
1,56,31,0
1,65,49,0
1,65,0,60
1,56,0,0
1,68,52,60
1,68,0,120
1,67,60,120
1,67,0,240
1,55,39,120
1,65,47,0
1,65,0,120
1,55,0,0
1,67,54,0
1,67,0,120
1,67,61,120
1,67,0,360
1,59,29,0
1,69,56,0
1,69,0,60
1,59,0,0
1,71,59,60
1,71,0,120
1,71,65,120
1,71,0,360
1,60,43,0
1,67,51,0
1,67,0,120
1,60,0,0
1,72,58,0
1,72,0,600
1,58,48,0
1,67,57,0
1,67,0,60
1,58,0,0
1,70,63,60
1,70,0,600
1,57,39,0
1,67,46,0
1,67,0,120
1,57,0,0
1,69,59,0
1,69,0,120
1,69,66,120
1,69,0,360
1,61,55,0
1,71,65,0
1,71,0,60
1,61,0,0
1,73,71,60
1,73,0,120
1,74,80,120
1,62,54,360
1,62,0,120
1,69,61,0
1,69,0,240
1,63,59,0
1,63,0,360
1,74,0,0
1,72,68,0
1,62,70,360
1,62,0,360
1,72,0,0
1,70,66,0
1,60,70,360
1,60,0,360
1,70,0,0
1,69,65,0
1,69,0,360
1,58,70,0
1,67,76,0
1,67,0,360
1,58,0,0
1,69,64,0
1,69,0,120
1,70,69,0
1,70,0,180
1,65,70,49
1,74,83,11
1,65,0,229
1,74,0,131
1,72,70,0
1,72,0,120
1,65,69,0
1,60,52,180
1,60,0,20
1,63,54,0
1,63,0,20
1,65,58,0
1,65,0,20
1,77,69,0
1,60,50,0
1,77,0,240
1,60,0,240
1,62,44,0
1,62,0,180
1,60,43,0
1,60,0,30
1,62,43,0
1,62,0,30
1,63,50,0
1,63,0,360
1,62,37,0
1,62,0,120
1,60,42,0
1,60,0,240
1,58,45,0
1,58,0,720
1,53,33,0
1,53,0,480
1,62,43,0
1,62,0,240
1,65,0,0
1,65,37,0
1,60,50,0
1,60,0,360
1,62,44,0
1,62,0,120
1,60,44,0
1,60,0,210
1,62,43,0
1,62,0,30
1,63,50,0
1,63,0,360
1,62,37,0
1,62,0,120
1,60,42,0
1,60,0,240
1,58,45,0
1,65,0,1440
1,70,40,0
1,70,0,1200
1,58,30,0
1,58,0,240
1,70,41,0
1,58,0,720
1,58,34,480
1,70,0,240
1,63,43,0
1,63,0,360
1,63,32,0
1,63,0,120
1,63,38,0
1,63,30,180
1,63,0,30
1,65,28,0
1,65,0,30
1,63,0,0
1,58,0,0
1,57,33,0
1,66,39,0
1,66,0,360
1,65,30,0
1,65,0,120
1,63,33,0
1,63,0,240
1,57,0,0
1,62,33,0
1,58,33,0
1,65,33,120
1,65,0,1320
1,58,0,1440
1,62,0,0
2,41,34,2820
2,51,37,60
2,57,37,0
2,57,0,1440
2,51,0,0
2,50,37,0
2,41,28,1380
2,50,0,60
2,41,0,0
2,51,37,0
2,57,37,0
2,57,0,1440
2,51,0,0
2,50,37,0
2,50,0,960
2,46,38,240
2,39,35,180
2,39,0,60
2,41,0,0
2,55,45,0
2,55,0,480
2,55,38,0
2,55,0,240
2,58,42,0
2,58,0,360
2,57,37,0
2,57,0,120
2,55,41,0
2,38,33,180
2,38,0,60
2,55,0,0
2,53,42,0
2,46,42,713
2,53,0,7
2,46,0,0
2,46,0,233
2,46,27,247
2,36,31,180
2,46,0,60
2,51,34,0
2,51,0,360
2,51,25,0
2,51,0,120
2,51,30,0
2,51,24,180
2,51,0,30
2,53,22,0
2,53,0,30
2,51,0,0
2,36,0,0
2,55,31,0
2,55,0,360
2,53,24,0
2,53,0,120
2,51,26,0
2,51,0,240
2,38,23,0
2,50,26,0
2,50,0,1200
2,38,0,0
2,33,27,0
2,33,0,240
2,52,24,0
2,57,24,0
2,62,27,0
2,33,31,0
2,33,0,480
2,33,27,0
2,33,0,240
2,62,0,0
2,61,27,0
2,33,33,0
2,33,0,360
2,33,27,0
2,33,0,120
2,33,31,0
2,33,0,240
2,61,0,0
2,52,0,0
2,54,24,0
2,62,27,0
2,26,31,0
2,62,0,480
2,57,0,0
2,54,0,0
2,26,0,240
2,31,48,0
2,43,48,0
2,43,0,480
2,31,0,0
2,43,56,0
2,43,0,240
2,36,48,0
2,48,48,0
2,36,0,480
2,48,0,48
2,50,47,0
2,50,0,48
2,51,49,0
2,51,0,48
2,53,51,0
2,53,0,48
2,55,53,0
2,55,0,48
2,56,55,0
2,56,0,528
2,55,50,0
2,55,0,48
2,53,52,0
2,53,0,48
2,51,55,0
2,51,0,48
2,50,57,0
2,50,0,48
2,36,63,0
2,48,63,0
2,48,0,480
2,36,0,0
2,34,61,240
2,46,61,0
2,46,0,480
2,34,0,0
2,46,53,192
2,46,0,48
2,39,48,0
2,51,48,0
2,39,0,480
2,51,0,48
2,54,47,0
2,54,0,48
2,55,49,0
2,55,0,48
2,57,51,0
2,57,0,48
2,58,53,0
2,58,0,48
2,50,55,0
2,60,55,0
2,50,0,480
2,60,0,48
2,58,50,0
2,58,0,48
2,57,52,0
2,57,0,48
2,55,55,0
2,55,0,48
2,54,57,0
2,54,0,48
2,43,63,0
2,55,63,0
2,55,0,720
2,43,0,0
2,42,61,0
2,54,61,0
2,54,0,720
2,42,0,0
2,41,61,0
2,53,61,0
2,53,0,480
2,41,0,0
2,42,56,240
2,54,56,0
2,42,0,720
2,39,26,0
2,54,0,1200
2,54,22,0
2,54,0,240
2,39,0,0
2,37,30,0
2,37,0,720
2,42,30,0
2,30,26,720
2,30,0,1440
2,42,0,0
2,29,30,0
2,41,30,0
2,41,0,720
2,29,0,0
2,34,30,0
2,46,30,0
2,46,0,1440
2,34,0,0
2,35,26,0
2,47,34,0
2,47,0,720
2,35,0,0
2,41,37,0
2,36,50,0
2,48,37,7
2,36,0,473
2,38,44,0
2,38,0,180
2,36,43,0
2,36,0,30
2,38,43,0
2,38,0,30
2,39,50,0
2,39,0,360
2,38,37,0
2,38,0,120
2,36,42,0
2,36,0,210
2,34,45,0
2,41,45,30
2,50,37,0
2,50,0,720
2,34,0,0
2,29,33,0
2,29,0,240
2,41,0,0
2,38,43,240
2,38,0,240
2,41,0,0
2,48,37,0
2,41,37,0
2,36,50,0
2,48,0,7
2,36,0,353
2,38,44,0
2,38,0,120
2,36,44,0
2,36,0,180
2,36,43,0
2,36,0,30
2,38,43,0
2,38,0,30
2,39,50,0
2,39,0,360
2,38,37,0
2,38,0,120
2,36,42,0
2,36,0,180
2,34,45,0
2,34,0,60
2,50,45,0
2,41,45,0
2,41,0,1200
2,50,0,0
2,46,38,0
2,39,35,180
2,39,0,60
2,48,0,0
2,41,0,0
2,55,45,0
2,55,0,480
2,55,38,0
2,55,0,240
2,58,42,0
2,58,0,360
2,57,37,0
2,57,0,120
2,55,41,0
2,38,35,180
2,38,0,60
