track,note,velocity,time
0,65,100,96
0,69,100,0
0,72,100,0
0,77,100,0
0,77,94,6
0,72,74,0
0,69,57,0
0,65,71,0
0,60,63,0
0,59,100,4
0,62,100,0
0,65,100,0
0,71,100,0
0,71,75,2
0,62,57,0
0,76,98,0
0,77,90,0
0,65,100,4
0,69,100,0
0,72,100,0
0,77,100,0
0,81,90,0
0,72,85,0
0,60,85,0
0,57,100,4
0,61,100,0
0,64,100,0
0,67,100,0
0,79,72,0
0,73,72,0
0,67,72,0
0,64,72,0
0,61,72,0
0,62,100,4
0,65,100,0
0,69,100,0
0,74,100,0
0,77,76,0
0,74,76,0
0,69,76,0
0,65,76,0
0,62,76,0
0,50,102,1
0,62,98,42
0,65,102,22
0,62,102,18
0,62,100,4
0,65,100,0
0,69,100,0
0,72,100,0
0,48,98,3
0,60,110,43
0,65,94,20
0,60,115,19
0,62,100,4
0,65,100,0
0,69,100,0
0,71,100,0
0,47,94,4
0,59,106,39
0,65,115,24
0,59,102,24
0,46,115,3
0,62,100,1
0,65,100,0
0,69,100,0
0,70,100,0
0,71,94,4
0,58,98,42
0,65,110,24
0,58,102,21
0,74,99,12
0,62,100,3
0,65,100,0
0,69,100,0
0,74,100,0
0,77,82,2
0,74,82,0
0,69,82,0
0,38,119,0
0,65,86,0
0,57,78,0
0,35,123,0
0,74,97,4
0,62,94,2
0,63,109,0
0,42,84,0
0,74,97,4
0,65,103,34
0,60,87,0
0,54,78,0
0,42,106,0
0,37,113,0
0,33,119,7
0,74,108,0
0,63,112,0
0,42,58,0
0,35,123,0
0,38,116,2
0,61,100,0
0,42,60,0
0,35,123,0
0,38,116,6
0,64,80,0
0,63,109,0
0,42,41,0
0,74,86,31
0,65,80,3
0,60,87,0
0,42,127,0
0,37,115,0
0,74,86,9
0,38,119,6
0,67,77,0
0,61,106,0
0,42,42,0
0,76,83,4
0,74,83,3
0,60,100,0
0,64,100,0
0,67,100,0
0,72,100,0
0,76,80,2
0,72,80,0
0,67,80,0
0,36,118,0
0,69,77,0
0,63,112,0
0,42,102,0
0,35,106,0
0,72,85,3
0,60,103,29
0,63,109,0
0,42,51,0
0,72,75,3
0,64,90,27
0,60,87,0
0,54,70,0
0,42,98,0
0,37,113,0
0,31,116,0
0,72,108,0
0,63,112,0
0,42,51,0
0,35,123,0
0,36,116,1
0,61,100,0
0,42,84,0
0,35,123,0
0,63,109,47
0,42,43,0
0,31,116,2
0,60,87,0
0,42,102,0
0,37,113,0
0,36,116,0
0,65,79,0
0,61,106,0
0,46,90,0
0,64,79,0
0,58,100,0
0,62,100,0
0,65,100,0
0,70,100,0
0,74,86,2
0,70,86,0
0,65,86,0
0,34,118,0
0,76,81,0
0,65,75,0
0,63,112,0
0,42,102,0
0,35,123,0
0,58,86,47
0,63,109,0
0,42,48,0
0,62,98,30
0,60,87,0
0,54,68,0
0,42,127,0
0,37,111,0
0,74,78,9
0,34,114,9
0,70,98,0
0,63,112,0
0,42,65,0
0,35,80,0
0,72,81,1
0,34,118,8
0,65,75,0
0,61,100,0
0,42,69,0
0,35,111,0
0,70,78,5
0,64,80,4
0,63,109,0
0,42,48,0
0,35,94,0
0,72,78,3
0,29,119,2
0,65,77,0
0,60,87,0
0,42,110,0
0,37,111,0
0,70,75,3
0,34,116,2
0,67,77,0
0,61,106,0
0,42,63,0
0,69,78,0
0,57,100,0
0,61,100,0
0,64,100,0
0,69,100,0
0,76,82,2
0,73,82,0
0,69,82,0
0,33,119,0
0,64,77,0
0,63,112,0
0,42,69,0
0,35,123,0
0,67,74,3
0,69,79,4
0,57,98,5
0,63,109,0
0,42,44,0
0,61,90,30
0,60,87,0
0,54,78,0
0,42,98,0
0,37,113,0
0,28,119,3
0,69,103,0
0,63,112,0
0,42,57,0
0,35,111,0
0,33,116,7
0,61,100,0
0,42,72,0
0,35,123,0
0,37,118,3
0,61,94,0
0,63,109,0
0,42,48,0
0,35,94,0
0,40,119,2
0,57,78,0
0,60,87,0
0,42,87,0
0,37,110,0
0,44,87,8
0,33,116,23
0,61,82,0
0,61,106,0
0,46,84,0
0,70,79,4
0,58,100,0
0,62,100,0
0,65,100,0
0,70,100,0
0,74,80,2
0,70,80,0
0,65,80,0
0,34,119,0
0,63,112,0
0,42,84,0
0,35,123,0
0,58,82,7
0,63,109,0
0,42,55,0
0,70,83,1
0,62,108,26
0,60,87,0
0,54,75,0
0,42,120,0
0,37,110,0
0,29,119,8
0,70,90,0
0,63,112,0
0,42,58,0
0,35,123,0
0,34,116,2
0,61,100,0
0,42,72,0
0,35,123,0
0,70,85,20
0,34,119,6
0,63,109,0
0,42,48,0
0,70,85,10
0,60,87,11
0,42,102,0
0,37,106,0
0,70,85,1
0,72,83,5
0,34,118,6
0,61,106,0
0,42,57,0
0,70,78,3
0,57,100,0
0,61,100,0
0,64,100,0
0,69,100,0
0,76,82,1
0,73,82,0
0,69,82,0
0,33,118,0
0,63,112,0
0,42,65,0
0,35,123,0
0,69,78,6
0,57,72,5
0,63,109,0
0,42,50,0
0,69,68,7
0,61,86,35
0,60,88,0
0,54,77,0
0,42,110,0
0,37,106,0
0,28,114,36
0,69,103,0
0,63,112,0
0,42,57,0
0,35,123,0
0,33,118,4
0,67,98,0
0,61,100,0
0,42,98,0
0,35,123,0
0,37,118,1
0,64,78,0
0,63,109,0
0,42,51,0
0,40,116,2
0,61,90,0
0,60,88,0
0,42,120,0
0,37,108,0
0,33,119,3
0,57,63,0
0,61,106,0
0,46,87,0
0,58,100,2
0,62,100,0
0,65,100,0
0,70,100,0
0,70,86,0
0,74,80,2
0,70,80,0
0,65,80,0
0,34,118,0
0,63,112,0
0,42,87,0
0,35,123,0
0,58,94,47
0,63,109,0
0,42,58,0
0,62,86,31
0,60,88,0
0,54,70,0
0,42,125,0
0,37,108,0
0,70,86,11
0,29,112,5
0,70,94,0
0,63,112,0
0,42,65,0
0,35,111,0
0,70,83,11
0,70,85,4
0,34,114,1
0,61,100,0
0,42,98,0
0,35,123,0
0,34,112,6
0,63,109,0
0,42,60,0
0,35,94,0
0,72,83,8
0,60,88,38
0,42,125,0
0,37,110,0
0,70,75,7
0,34,114,9
0,61,106,0
0,42,55,0
0,57,100,0
0,61,100,0
0,64,100,0
0,69,100,0
0,69,82,0
0,76,84,2
0,73,84,0
0,69,84,0
0,33,114,0
0,63,112,0
0,42,102,0
0,35,123,0
0,67,65,1
0,69,72,2
0,69,108,5
0,63,109,0
0,42,43,0
0,60,88,33
0,54,79,0
0,42,115,0
0,37,110,0
0,67,103,1
0,64,103,11
0,33,112,2
0,63,112,0
0,42,57,0
0,35,116,0
0,62,98,11
0,33,116,2
0,61,100,0
0,42,98,0
0,35,123,0
0,44,87,6
0,61,94,1
0,37,116,1
0,63,109,0
0,46,87,0
0,62,98,0
0,40,119,3
0,62,127,0
0,42,90,0
0,37,108,0
0,44,94,6
0,67,79,1
0,65,79,10
0,64,77,8
0,64,94,2
0,33,118,1
0,61,106,0
0,46,98,0
0,62,76,3
0,60,75,6
0,59,72,0
0,57,70,0
0,74,110,3
0,62,100,1
0,65,100,0
0,69,100,0
0,74,100,0
0,77,77,4
0,74,77,0
0,69,77,0
0,38,116,0
0,74,88,0
0,65,74,0
0,63,112,0
0,55,82,0
0,35,123,0
0,62,98,47
0,63,109,0
0,42,72,0
0,65,94,31
0,60,88,0
0,54,82,0
0,42,75,0
0,37,106,0
0,74,88,12
0,33,114,6
0,74,103,0
0,63,112,0
0,42,58,0
0,35,123,0
0,74,88,5
0,26,116,0
0,69,82,0
0,61,100,0
0,42,75,0
0,35,123,0
0,74,85,12
0,26,116,4
0,64,79,0
0,65,75,0
0,63,109,0
0,42,55,0
0,76,86,2
0,65,77,2
0,62,60,0
0,60,88,0
0,42,120,0
0,37,111,0
0,74,86,2
0,38,109,2
0,67,77,0
0,65,68,0
0,61,106,0
0,42,53,0
0,26,112,0
0,72,86,2
0,60,100,4
0,64,100,0
0,67,100,0
0,72,100,0
0,72,101,0
0,76,84,2
0,72,84,0
0,67,84,0
0,36,114,0
0,69,79,0
0,63,112,0
0,42,65,0
0,35,123,0
0,60,72,5
0,63,109,0
0,42,51,0
0,72,86,3
0,64,82,33
0,60,88,0
0,54,61,0
0,42,110,0
0,37,106,0
0,31,114,12
0,72,108,0
0,63,112,0
0,42,55,0
0,35,123,0
0,36,114,3
0,67,72,0
0,61,100,0
0,42,75,0
0,35,123,0
0,64,90,15
0,63,109,0
0,42,48,0
0,31,114,8
0,60,88,0
0,42,110,0
0,37,110,0
0,36,114,2
0,65,75,0
0,61,106,0
0,46,55,0
0,64,77,2
0,58,100,0
0,62,100,0
0,65,100,0
0,70,100,0
0,70,106,2
0,74,80,1
0,70,85,0
0,65,85,0
0,34,116,0
0,65,77,0
0,63,112,0
0,42,90,0
0,35,123,0
0,76,85,1
0,58,78,46
0,63,109,0
0,42,65,0
0,62,108,21
0,60,88,0
0,54,79,0
0,42,120,0
0,37,108,0
0,74,85,7
0,31,114,9
0,70,86,0
0,63,112,0
0,42,65,0
0,35,123,0
0,72,86,7
0,34,112,4
0,65,80,0
0,65,90,0
0,61,100,0
0,42,65,0
0,35,123,0
0,70,83,5
0,29,119,2
0,64,80,0
0,62,78,0
0,63,109,0
0,42,75,0
0,72,86,4
0,34,118,4
0,65,79,0
0,58,63,0
0,60,88,0
0,42,106,0
0,37,104,0
0,70,86,2
0,67,80,5
0,62,86,0
0,61,106,0
0,42,65,0
0,57,100,1
0,61,100,0
0,64,100,0
0,69,100,0
0,69,82,3
0,69,108,1
0,76,80,2
0,73,80,0
0,69,80,0
0,33,114,0
0,64,82,0
0,63,112,0
0,42,84,0
0,35,123,0
0,67,81,1
0,44,84,2
0,69,82,3
0,57,39,0
0,63,109,0
0,42,72,0
0,61,86,28
0,60,88,0
0,54,81,0
0,42,98,0
0,37,110,0
0,28,112,22
0,69,94,0
0,63,112,0
0,42,72,0
0,35,123,0
0,33,111,10
0,67,90,0
0,61,100,0
0,42,87,0
0,35,123,0
0,64,94,28
0,63,109,0
0,42,72,0
0,28,109,3
0,62,98,0
0,60,88,0
0,42,94,0
0,37,104,0
0,44,87,7
0,33,109,1
0,64,86,0
0,61,106,0
0,46,77,0
0,70,98,4
0,58,100,0
0,62,100,0
0,65,100,0
0,70,100,0
0,62,116,1
0,74,86,4
0,70,86,0
0,65,86,0
0,34,109,0
0,63,112,0
0,42,90,0
0,35,123,0
0,58,101,33
0,70,68,5
0,62,75,0
0,63,109,0
0,42,75,0
0,62,87,15
0,60,88,3
0,54,78,0
0,42,110,0
0,37,104,0
0,70,88,30
0,65,82,2
0,29,114,4
0,70,60,0
0,62,75,0
0,63,112,0
0,42,67,0
0,35,123,0
0,70,86,3
0,70,69,13
0,34,114,2
0,61,100,0
0,42,75,0
0,35,123,0
0,70,86,11
0,34,118,10
0,70,60,0
0,62,90,0
0,63,109,0
0,42,67,0
0,70,82,8
0,60,88,30
0,42,120,0
0,37,104,0
0,72,83,7
0,29,118,5
0,70,75,0
0,62,90,0
0,61,106,0
0,42,63,0
0,70,82,6
0,69,94,2
0,57,100,0
0,61,100,0
0,64,100,0
0,69,100,0
0,76,87,2
0,73,87,0
0,69,87,0
0,33,111,0
0,64,102,0
0,63,112,0
0,42,67,0
0,35,123,0
0,69,82,1
0,67,83,4
0,61,96,19
0,64,90,1
0,57,90,0
0,63,109,0
0,42,63,0
0,69,83,2
0,61,86,35
0,69,80,1
0,64,80,0
0,60,88,0
0,54,82,0
0,42,102,0
0,37,101,0
0,28,114,5
0,64,94,0
0,57,72,0
0,63,112,0
0,42,67,0
0,35,123,0
0,33,114,3
0,61,100,0
0,42,94,0
0,35,123,0
0,64,108,47
0,57,94,0
0,63,109,0
0,42,72,0
0,28,118,3
0,60,88,0
0,42,98,0
0,37,101,0
0,33,118,4
0,69,103,0
0,64,98,0
0,61,106,0
0,46,94,0
0,76,100,2
0,73,100,0
0,69,100,0
0,33,118,0
0,42,98,0
0,35,123,0
0,57,95,1
0,69,91,0
0,64,91,0
0,67,67,12
0,65,67,7
0,64,67,5
0,62,67,4
0,60,67,1
0,59,67,7
0,57,67,1
0,55,67,1
0,53,64,1
0,52,60,2
0,69,90,3
0,71,88,7
0,73,88,5
0,74,90,1
0,38,94,4
0,76,88,2
0,47,110,3
0,45,75,2
0,77,85,1
0,43,98,22
0,62,100,4
0,65,100,0
0,69,100,0
0,74,100,0
0,62,77,0
0,76,86,1
0,77,72,1
0,74,80,0
0,69,81,0
0,38,112,0
0,63,112,0
0,55,81,0
0,35,123,0
0,74,110,1
0,50,72,8
0,57,98,36
0,69,90,3
0,62,78,0
0,63,109,0
0,42,94,0
0,45,102,1
0,74,85,2
0,65,102,3
0,53,98,2
0,60,88,1
0,54,75,0
0,42,110,0
0,38,101,0
0,45,98,1
0,57,115,1
0,33,116,1
0,69,78,0
0,62,75,0
0,63,112,0
0,42,63,0
0,35,111,0
0,86,64,29
0,55,98,0
0,67,106,1
0,38,116,1
0,61,100,0
0,42,75,0
0,35,123,0
0,57,106,10
0,45,87,3
0,38,116,1
0,69,94,0
0,62,78,0
0,63,109,0
0,42,55,0
0,65,106,32
0,53,67,2
0,60,88,1
0,42,120,0
0,38,97,0
0,33,119,6
0,69,90,0
0,62,86,0
0,61,106,0
0,42,60,0
0,26,119,2
0,63,112,0
0,42,87,0
0,35,123,0
0,57,84,11
0,45,87,3
0,69,98,5
0,62,90,0
0,63,109,0
0,42,67,0
0,65,98,1
0,53,87,2
0,60,88,3
0,54,79,0
0,42,102,0
0,38,97,0
0,57,102,0
0,45,90,1
0,33,118,1
0,69,98,0
0,62,72,0
0,63,112,0
0,42,80,0
0,67,98,0
0,38,116,4
0,61,100,0
0,42,102,0
0,35,121,0
0,55,87,0
0,44,90,23
0,57,90,18
0,33,119,1
0,45,87,0
0,69,94,0
0,62,24,0
0,63,109,0
0,46,106,0
0,38,103,0
0,69,94,15
0,62,72,0
0,65,94,11
0,53,87,0
0,77,95,1
0,26,116,0
0,60,88,0
0,38,103,0
0,36,55,2
0,38,55,2
0,40,54,3
0,41,54,4
0,43,54,4
0,45,54,4
0,43,115,4
0,47,54,1
0,48,54,1
0,50,54,2
0,52,54,2
0,53,54,2
0,57,98,0
0,55,54,2
0,45,87,1
0,69,103,1
0,62,78,0
0,61,106,0
0,45,125,0
0,57,54,1
0,59,56,0
0,60,57,0
0,62,61,0
0,64,61,0
0,65,64,0
0,67,68,1
0,69,68,1
0,71,73,1
0,72,79,1
0,67,100,0
0,70,100,0
0,74,100,0
0,79,100,0
0,79,92,2
0,67,120,0
0,67,106,0
0,82,96,0
0,79,96,0
0,74,96,0
0,31,121,0
0,55,106,0
0,70,93,0
0,63,112,0
0,55,96,0
0,35,123,0
0,62,127,40
0,79,103,3
0,67,103,0
0,63,109,0
0,51,75,0
0,50,125,1
0,67,125,26
0,55,110,1
0,60,88,1
0,54,75,0
0,51,84,0
0,44,110,0
0,38,104,0
0,62,115,1
0,50,106,2
0,26,118,2
0,79,103,0
0,67,82,0
0,63,112,0
0,51,75,0
0,35,121,0
0,66,120,3
0,67,100,1
0,70,100,0
0,74,100,0
0,78,100,0
0,54,90,2
0,66,106,0
0,31,118,1
0,54,84,0
0,61,100,0
0,51,77,0
0,44,102,0
0,35,123,0
0,66,98,1
0,81,100,5
0,69,86,0
0,78,82,0
0,66,78,0
0,63,109,0
0,51,57,0
0,82,91,1
0,70,82,0
0,60,88,0
0,51,84,0
0,44,115,0
0,38,106,0
0,84,91,1
0,34,121,0
0,72,86,0
0,78,94,0
0,66,86,0
0,61,106,0
0,51,53,0
0,65,125,3
0,67,100,1
0,70,100,0
0,74,100,0
0,77,100,0
0,53,72,1
0,65,84,1
0,86,95,1
0,31,121,0
0,74,84,0
0,63,112,0
0,51,75,0
0,44,102,0
0,35,123,0
0,62,125,39
0,50,115,1
0,77,86,2
0,65,82,0
0,63,109,0
0,51,42,0
