track,note,velocity,time
1,65,84,752
1,60,72,0
1,57,73,0
1,41,98,12
1,45,91,36
1,65,87,12
1,57,76,0
1,63,70,0
1,58,90,8
1,46,100,4
1,62,89,8
1,65,80,0
1,65,94,40
1,41,101,28
1,65,81,20
1,57,76,0
1,60,73,0
1,45,90,16
1,65,91,20
1,63,75,12
1,57,76,0
1,46,116,28
1,58,100,8
1,62,87,4
1,65,93,0
1,65,94,36
1,65,84,24
1,60,72,4
1,57,73,0
1,41,98,12
1,45,91,36
1,65,87,12
1,57,76,0
1,63,70,0
1,58,90,8
1,46,100,4
1,62,89,8
1,65,80,0
1,65,94,40
1,41,101,28
1,65,81,20
1,57,76,0
1,60,73,0
1,45,90,16
1,65,91,20
1,63,75,12
1,57,76,0
1,46,116,28
1,58,100,8
1,62,87,4
1,65,93,0
1,65,94,36
1,65,84,24
1,60,72,4
1,57,73,0
1,41,98,12
1,45,91,36
1,65,87,12
1,57,76,0
1,63,70,0
1,58,90,8
1,46,100,4
1,62,89,8
1,65,80,0
1,65,94,40
1,41,101,28
1,65,81,20
1,57,76,0
1,60,73,0
1,45,90,16
1,65,91,20
1,63,75,12
1,57,76,0
1,46,116,28
1,58,100,8
1,62,87,4
1,65,93,0
1,65,94,36
1,65,84,24
1,60,72,4
1,57,73,0
1,41,98,12
1,45,91,36
1,65,87,12
1,57,76,0
1,63,70,0
1,58,90,8
1,46,100,4
1,62,89,8
1,65,80,0
1,65,94,40
1,41,101,28
1,65,81,20
1,57,76,0
1,60,73,0
1,45,90,16
1,65,91,20
1,63,75,12
1,57,76,0
1,46,116,28
1,58,100,8
1,62,87,4
1,65,93,0
1,65,94,36
1,65,84,24
1,60,72,4
1,57,73,0
1,41,98,12
1,45,91,36
1,65,87,12
1,57,76,0
1,63,70,0
1,58,90,8
1,46,100,4
1,62,89,8
1,65,80,0
1,65,94,40
1,41,101,28
1,65,81,20
1,57,76,0
1,60,73,0
1,45,90,16
1,65,91,20
1,63,75,12
1,57,76,0
1,46,116,28
1,58,100,8
1,62,87,4
1,65,93,0
1,65,94,36
1,48,89,24
1,60,84,0
1,55,94,0
1,52,86,0
1,58,100,640
1,43,74,0
1,57,76,128
1,45,91,0
1,60,86,8
1,53,90,0
1,48,89,0
1,60,89,120
1,55,96,0
1,52,84,0
1,48,86,0
1,43,74,4
1,58,96,0
1,60,66,0
1,57,91,28
1,45,89,0
1,60,91,0
1,48,84,0
1,53,54,0
1,65,84,108
1,60,72,4
1,57,73,0
1,41,98,12
1,45,91,36
1,65,87,12
1,57,76,0
1,63,70,0
1,58,90,8
1,46,100,4
1,62,89,8
1,65,80,0
1,65,94,40
1,41,101,28
1,65,81,20
1,57,76,0
1,60,73,0
1,45,90,16
1,65,91,20
1,63,75,12
1,57,76,0
1,46,116,28
1,58,100,8
1,62,87,4
1,65,93,0
1,65,94,36
1,65,84,24
1,60,72,4
1,57,73,0
1,41,98,12
1,45,91,36
1,65,87,12
1,57,76,0
1,63,70,0
1,58,90,8
1,46,100,4
1,62,89,8
1,65,80,0
1,65,94,40
1,41,101,28
1,65,81,20
1,57,76,0
1,60,73,0
1,45,90,16
1,65,91,20
1,63,75,12
1,57,76,0
1,46,116,28
1,58,100,8
1,62,87,4
1,65,93,0
1,65,94,36
1,65,84,24
1,60,72,4
1,57,73,0
1,41,98,12
1,45,91,36
1,65,87,12
1,57,76,0
1,63,70,0
1,58,90,8
1,46,100,4
1,62,89,8
1,65,80,0
1,65,94,40
1,41,101,28
1,65,81,20
1,57,76,0
1,60,73,0
1,45,90,16
1,65,91,20
1,63,75,12
1,57,76,0
1,46,116,28
1,58,100,8
1,62,87,4
1,65,93,0
1,65,94,36
1,48,95,24
1,60,90,0
1,55,100,0
1,52,92,0
1,58,106,16
1,43,80,0
1,57,82,0
1,45,97,0
1,60,92,8
1,53,96,0
1,48,95,0
1,60,95,120
1,55,102,0
1,52,90,0
1,48,92,0
1,43,80,12
1,58,102,0
1,60,72,0
1,57,97,28
1,45,95,0
1,60,97,0
1,48,90,0
1,53,60,0
1,48,89,108
1,60,84,0
1,55,94,0
1,52,86,0
1,58,100,640
1,43,74,0
1,57,76,128
1,45,91,0
1,60,86,8
1,53,90,0
1,48,89,0
1,60,89,120
1,55,96,0
1,52,84,0
1,48,86,0
1,43,74,4
1,58,96,0
1,60,66,0
1,57,91,28
1,45,89,0
1,60,91,0
1,48,84,0
1,53,54,0
1,48,89,108
1,60,84,0
1,55,94,0
1,52,86,0
1,58,100,640
1,43,74,0
1,57,76,128
1,45,91,0
1,60,86,8
1,53,90,0
1,48,89,0
1,60,89,120
1,55,96,0
1,52,84,0
1,48,86,0
1,43,74,4
1,58,96,0
1,60,66,0
1,57,91,28
1,45,89,0
1,60,91,0
1,48,84,0
1,53,54,0
1,65,84,108
1,60,72,4
1,57,73,0
1,41,98,12
1,45,91,36
1,65,87,12
1,57,76,0
1,63,70,0
1,58,90,8
1,46,100,4
1,62,89,8
1,65,80,0
1,65,94,40
1,41,101,28
1,65,81,20
1,57,76,0
1,60,73,0
1,45,90,16
1,65,91,20
1,63,75,12
1,57,76,0
1,46,116,28
1,58,100,8
1,62,87,4
1,65,93,0
1,65,94,36
1,65,84,24
1,60,72,4
1,57,73,0
1,41,98,12
1,45,91,36
1,65,87,12
1,57,76,0
1,63,70,0
1,58,90,8
1,46,100,4
1,62,89,8
1,65,80,0
1,65,94,40
1,36,101,28
1,48,93,20
1,43,81,0
1,65,84,2848
1,60,72,4
1,57,73,0
1,41,98,12
1,45,91,36
1,65,87,12
1,57,76,0
1,63,70,0
1,58,90,8
1,46,100,4
1,62,89,8
1,65,80,0
1,65,94,40
1,41,101,28
1,65,81,20
1,57,76,0
1,60,73,0
1,45,90,16
1,65,91,20
1,63,75,12
1,57,76,0
1,46,116,28
1,58,100,8
1,62,87,4
1,65,93,0
1,65,94,36
1,65,84,24
1,60,72,4
1,57,73,0
1,41,98,12
1,45,91,36
1,65,87,12
1,57,76,0
1,63,70,0
1,58,90,8
1,46,100,4
1,62,89,8
1,65,80,0
1,65,94,40
1,41,101,28
1,65,81,20
1,57,76,0
1,60,73,0
1,45,90,16
1,65,91,20
1,63,75,12
1,57,76,0
1,46,116,28
1,58,100,8
1,62,87,4
1,65,93,0
1,65,94,36
1,65,84,24
1,60,72,4
1,57,73,0
1,41,98,12
1,45,91,36
1,65,87,12
1,57,76,0
1,63,70,0
1,58,90,8
1,46,100,4
1,62,89,8
1,65,80,0
1,65,94,40
1,41,101,28
1,65,81,20
1,57,76,0
1,60,73,0
1,45,90,16
1,65,91,20
1,63,75,12
1,57,76,0
1,46,116,28
1,58,100,8
1,62,87,4
1,65,93,0
1,65,94,36
1,65,84,24
1,60,72,4
1,57,73,0
1,41,98,12
1,45,91,36
1,65,87,12
1,57,76,0
1,63,70,0
1,58,90,8
1,46,100,4
1,62,89,8
1,65,80,0
1,65,94,40
1,41,101,28
1,65,81,20
1,57,76,0
1,60,73,0
1,46,90,16
1,65,91,20
1,57,76,12
1,45,116,28
1,57,100,8
1,60,87,4
1,65,93,0
1,65,94,36
1,48,89,24
1,60,84,0
1,55,94,0
1,52,86,0
1,58,100,640
1,43,74,0
1,57,76,128
1,45,91,0
1,60,86,8
1,53,90,0
1,48,89,0
1,60,89,120
1,55,96,0
1,52,84,0
1,48,86,0
1,43,74,4
1,58,96,0
1,60,66,0
1,57,91,28
1,45,89,0
1,60,91,0
1,48,84,0
1,53,54,0
1,65,84,108
1,60,72,4
1,57,73,0
1,41,98,12
1,45,91,36
1,65,87,12
1,57,76,0
1,63,70,0
1,58,90,8
1,46,100,4
1,62,89,8
1,65,80,0
1,65,94,40
1,41,101,28
1,65,81,20
1,57,76,0
1,60,73,0
1,45,90,16
1,65,91,20
1,63,75,12
1,57,76,0
1,46,116,28
1,58,100,8
1,62,87,4
1,65,93,0
1,65,94,36
1,65,84,24
1,60,72,4
1,57,73,0
1,41,98,12
1,45,91,36
1,65,87,12
1,57,76,0
1,63,70,0
1,58,90,8
1,46,100,4
1,62,89,8
1,65,80,0
1,65,94,40
1,41,101,28
1,65,81,20
1,57,76,0
1,60,73,0
1,45,90,16
1,65,91,20
1,63,75,12
1,57,76,0
1,46,116,28
1,58,100,8
1,62,87,4
1,65,93,0
1,65,94,36
1,65,84,24
1,60,72,4
1,57,73,0
1,41,98,12
1,45,91,36
1,65,87,12
1,57,76,0
1,63,70,0
1,58,90,8
1,46,100,4
1,62,89,8
1,65,80,0
1,65,94,40
1,41,101,28
1,65,81,20
1,57,76,0
1,60,73,0
1,45,90,16
1,65,91,20
1,63,75,12
1,57,76,0
1,46,116,28
1,58,100,8
1,62,87,4
1,65,93,0
1,65,94,36
1,48,95,24
1,60,90,0
1,55,100,0
1,52,92,0
1,58,106,640
1,43,80,0
1,57,82,128
1,45,97,0
1,60,92,8
1,53,96,0
1,48,95,0
1,60,95,120
1,55,102,0
1,52,90,0
1,48,92,0
1,43,80,4
1,58,102,0
1,60,72,0
1,57,97,28
1,45,95,0
1,60,97,0
1,48,90,0
1,53,60,0
1,48,89,108
1,60,84,0
1,55,94,0
1,52,86,0
1,58,100,640
1,43,74,0
1,57,76,128
1,45,91,0
1,60,86,8
1,53,90,0
1,48,89,0
1,60,89,120
1,55,96,0
1,52,84,0
1,48,86,0
1,43,74,4
1,58,96,0
1,60,66,0
1,57,91,28
1,45,89,0
1,60,91,0
1,48,84,0
1,53,54,0
1,48,89,108
1,60,84,0
1,55,94,0
1,52,86,0
1,58,100,640
1,43,74,0
1,57,76,128
1,45,91,0
1,60,86,8
1,53,90,0
1,48,89,0
1,60,89,120
1,55,96,0
1,52,84,0
1,48,86,0
1,43,74,4
1,58,96,0
1,60,66,0
1,57,91,28
1,45,89,0
1,60,91,0
1,48,84,0
1,53,54,0
1,65,84,108
1,60,72,4
1,57,73,0
1,41,98,12
1,45,91,36
1,65,87,12
1,57,76,0
1,63,70,0
1,58,90,8
1,46,100,4
1,62,89,8
1,65,80,0
1,65,94,40
1,41,101,28
1,65,81,20
1,57,76,0
1,60,73,0
1,45,90,16
1,65,91,20
1,63,75,12
1,57,76,0
1,46,116,28
1,58,100,8
1,62,87,4
1,65,93,0
1,65,94,36
1,65,84,24
1,60,72,4
1,57,73,0
1,41,98,12
1,45,91,36
1,65,87,12
1,57,76,0
1,63,70,0
1,58,90,8
1,46,100,4
1,62,89,8
1,65,80,0
1,65,94,40
1,36,101,28
1,48,93,20
1,43,81,0
1,60,89,3224
1,57,89,0
1,53,72,0
1,65,86,0
1,62,91,64
1,58,92,0
1,55,89,0
1,57,96,228
1,53,84,0
1,60,94,0
1,56,94,8
1,57,94,68
1,58,92,248
1,62,94,0
1,65,94,0
1,58,79,92
1,62,89,0
1,65,86,0
1,58,73,72
1,65,89,0
1,62,86,0
1,58,67,232
1,62,89,0
1,65,89,0
1,56,104,388
1,57,104,0
1,65,86,88
1,53,52,128
1,53,14,156
1,57,76,76
1,60,74,0
1,53,66,0
1,65,79,0
1,63,96,328
1,60,30,0
1,64,79,8
1,67,50,64
1,60,82,128
1,60,84,108
1,64,89,0
1,67,84,0
1,67,96,152
1,70,96,0
1,60,104,0
1,64,104,0
1,60,61,48
1,64,74,0
1,70,62,0
1,67,68,0
1,60,72,64
1,64,74,0
1,70,62,0
1,67,72,0
1,60,70,48
1,64,79,0
1,67,56,0
1,70,60,0
1,64,70,56
1,70,57,0
1,60,59,0
1,67,62,0
1,60,72,56
1,64,76,0
1,67,72,0
1,70,60,0
1,60,79,48
1,64,76,0
1,70,73,0
1,67,79,0
1,60,76,52
1,64,79,0
1,70,70,0
1,67,76,0
1,60,74,56
1,64,76,0
1,70,73,0
1,67,79,0
1,60,89,52
1,70,75,0
1,64,89,0
1,67,70,0
1,70,67,36
1,60,61,0
1,64,82,0
1,67,64,0
1,70,67,56
1,60,70,0
1,64,70,0
1,67,74,0
1,60,74,52
1,70,73,0
1,64,79,0
1,67,70,0
1,70,67,40
1,60,66,0
1,64,76,0
1,67,70,0
1,60,66,52
1,64,76,0
1,70,67,0
1,67,61,0
1,60,72,52
1,64,84,0
1,70,70,0
1,67,76,0
1,70,70,48
1,67,59,0
1,60,62,0
1,64,76,0
1,60,59,44
1,67,52,0
1,70,70,0
1,64,76,0
1,58,104,28
1,62,94,0
1,65,96,0
1,62,68,40
1,65,74,0
1,58,43,0
1,58,60,52
1,62,79,0
1,65,82,0
1,62,70,40
1,58,62,0
1,65,89,0
1,62,74,36
1,65,64,0
1,58,67,0
1,62,64,40
1,58,60,0
1,65,84,0
1,62,68,32
1,58,79,0
1,65,86,0
1,62,57,36
1,58,54,0
1,65,89,0
1,62,74,52
1,65,74,0
1,58,52,0
1,63,92,64
1,56,90,0
1,60,91,0
1,56,36,32
1,63,75,0
1,60,86,0
1,56,70,52
1,60,72,0
1,63,75,0
1,56,73,48
1,63,83,0
1,60,96,0
1,60,74,40
1,56,70,0
1,63,75,0
1,56,70,48
1,60,91,0
1,63,79,0
1,63,73,52
1,56,70,0
1,60,94,0
1,60,76,60
1,63,73,0
1,56,54,0
1,63,73,64
1,60,86,0
1,56,34,0
1,60,101,56
1,57,107,0
1,65,94,0
1,53,91,0
1,53,84,32
1,62,101,36
1,53,68,0
1,58,104,0
1,53,15,60
1,56,107,32
1,57,112,0
1,65,91,104
1,53,70,128
1,53,89,8
1,53,57,12
1,62,101,0
1,58,104,0
1,53,84,236
1,57,104,0
1,60,94,0
1,53,86,32
1,53,53,16
1,58,100,0
1,62,94,0
1,53,50,68
1,56,100,192
1,57,107,0
1,65,86,88
1,53,68,128
1,53,89,16
1,62,96,124
1,58,100,0
1,53,82,268
1,57,96,0
1,60,91,0
1,53,79,120
1,62,96,76
1,53,72,0
1,58,100,0
1,53,24,56
1,56,104,56
1,57,107,0
1,65,79,100
1,53,57,128
1,53,86,20
1,62,89,64
1,58,92,0
1,53,57,128
1,57,96,84
1,60,91,0
1,53,76,0
1,53,79,40
1,58,100,24
1,62,94,0
1,53,70,0
1,58,86,140
1,62,84,0
1,53,52,0
1,57,99,16
1,60,91,0
1,53,57,108
1,57,89,180
1,60,89,0
1,65,86,0
1,60,89,248
1,57,84,0
1,53,72,0
1,65,89,0
1,53,70,0
1,62,84,20
1,58,92,0
1,53,47,0
1,53,29,44
1,56,96,40
1,57,104,0
1,65,86,100
1,53,72,128
1,53,86,12
1,62,96,92
1,58,100,0
1,53,39,52
1,53,79,108
1,60,91,0
1,57,96,0
1,53,86,0
1,58,96,16
1,62,94,0
1,53,53,0
1,53,15,120
1,56,100,20
1,57,107,40
1,65,89,64
1,53,70,128
1,53,86,0
1,62,91,64
1,58,96,0
1,53,86,164
1,57,104,0
1,60,96,0
1,53,86,44
1,58,96,128
1,62,89,0
1,53,38,68
1,56,104,192
1,57,107,0
1,65,68,88
1,53,82,128
1,53,86,16
1,62,89,124
1,58,96,0
1,60,94,252
1,57,99,0
1,53,74,0
1,53,84,0
1,58,96,72
1,62,94,0
1,53,38,0
1,53,14,104
1,56,100,36
1,57,101,0
1,65,86,96
1,53,68,128
2,29,91,3036
2,33,84,80
2,34,84,16
2,36,84,44
2,29,81,24
2,41,79,72
2,33,80,36
2,34,90,36
2,36,86,56
2,29,89,36
2,41,81,16
2,33,80,4
2,34,87,12
2,36,83,48
2,29,84,0
2,41,82,8
2,34,79,16
2,35,78,12
2,36,82,24
2,29,85,0
2,34,87,56
2,36,82,36
2,29,83,20
2,41,79,4
2,33,76,12
2,34,87,12
2,36,85,40
2,29,79,0
2,41,81,96
2,34,85,8
2,36,84,32
2,29,85,4
2,41,78,84
2,33,76,12
2,34,81,0
2,35,72,4
2,36,83,36
2,48,84,28
2,46,84,20
2,43,80,32
2,36,81,4
2,36,81,24
2,35,78,28
2,34,92,24
2,31,81,28
2,30,87,16
2,29,79,16
2,41,80,0
2,34,82,24
2,36,81,16
2,29,87,28
2,41,80,8
2,36,81,0
2,34,84,4
