track,note,velocity,time
1,28,83,1910
1,28,0,224
1,26,83,496
1,26,0,217
1,23,83,23
1,23,0,253
1,26,83,467
1,28,83,240
1,26,0,61
1,28,0,57
1,28,83,122
1,28,0,118
1,28,83,122
1,28,0,229
1,26,83,11
1,26,0,226
1,23,83,14
1,23,0,107
1,23,83,133
1,26,83,240
1,23,0,104
1,27,83,136
1,26,0,4
1,28,83,243
1,27,0,48
1,28,0,101
1,26,83,565
1,23,83,241
1,26,0,1
1,23,0,189
1,26,83,531
1,28,83,240
1,26,0,40
1,28,0,78
1,28,83,124
1,28,0,91
1,28,83,149
1,26,83,242
1,28,0,26
1,26,0,200
1,23,83,11
1,23,0,84
1,23,83,153
1,26,83,243
1,23,0,42
1,27,83,195
1,26,0,23
1,28,83,217
1,27,0,59
1,28,0,167
1,26,83,498
1,26,0,216
1,23,83,17
1,23,0,253
1,26,83,466
1,28,83,246
1,26,0,55
1,28,0,61
1,28,83,122
1,28,0,121
1,28,83,123
1,28,0,229
1,26,83,9
1,26,0,227
1,23,83,13
1,23,0,106
1,23,83,132
1,26,83,244
1,23,0,100
1,27,83,137
1,26,0,6
1,28,83,233
1,27,0,53
1,28,0,172
1,26,83,500
1,26,0,212
1,23,83,21
1,23,0,254
1,26,83,464
1,28,83,246
1,26,0,52
1,28,0,64
1,28,83,122
1,28,0,122
1,28,83,120
1,28,0,234
1,26,83,7
1,26,0,224
1,23,83,16
1,23,0,104
1,23,83,133
1,26,83,242
1,23,0,102
1,27,83,136
1,26,0,12
1,28,83,228
1,27,0,60
1,28,0,166
1,26,83,497
1,26,0,219
1,23,83,15
1,23,0,255
1,26,83,464
1,28,83,246
1,26,0,57
1,28,0,59
1,28,83,122
1,28,0,120
1,28,83,122
1,28,0,229
1,26,83,12
1,26,0,220
1,23,83,20
1,23,0,104
1,23,83,133
1,26,83,241
1,23,0,104
1,27,83,136
1,26,0,11
1,28,83,228
1,27,0,56
1,28,0,170
1,26,83,497
1,26,0,219
1,23,83,15
1,23,0,254
1,26,83,465
1,28,83,246
1,26,0,54
1,28,0,63
1,28,83,121
1,28,0,118
1,28,83,124
1,28,0,233
1,26,83,8
1,26,0,220
1,23,83,20
1,23,0,104
1,23,83,133
1,26,83,245
1,23,0,99
1,27,83,137
1,26,0,5
1,28,83,234
1,27,0,58
1,28,0,168
1,26,83,497
1,26,0,220
1,23,83,15
1,23,0,253
1,26,83,465
1,28,83,246
1,26,0,55
1,28,0,62
1,28,83,121
1,28,0,122
1,28,83,120
1,28,0,232
1,26,83,9
1,26,0,222
1,23,83,18
1,23,0,105
1,23,83,132
1,26,83,243
1,23,0,103
1,27,83,135
1,26,0,9
1,28,83,230
1,27,0,63
1,28,0,153
1,26,83,495
1,26,0,230
1,23,83,12
1,23,0,219
1,26,83,502
1,28,83,243
1,26,0,52
1,28,0,37
1,28,83,151
1,28,0,79
1,28,83,161
1,28,0,222
1,26,83,18
1,26,0,193
1,23,83,45
1,23,0,113
1,23,83,129
1,26,83,239
1,23,0,58
1,27,83,182
1,26,0,4
1,27,0,203
1,28,83,37
1,28,0,226
1,26,83,498
1,26,0,216
1,23,83,17
1,23,0,254
1,26,83,465
1,28,83,246
1,26,0,56
1,28,0,62
1,28,83,120
1,28,0,121
1,28,83,122
1,28,0,229
1,26,83,11
1,26,0,226
1,23,83,13
1,23,0,107
1,23,83,131
1,26,83,243
1,23,0,100
1,27,83,140
1,26,0,7
1,28,83,230
1,27,0,49
1,28,0,177
1,26,83,498
1,26,0,216
1,23,83,17
1,23,0,255
1,26,83,464
1,28,83,246
1,26,0,53
1,28,0,64
1,28,83,121
1,28,0,121
1,28,83,123
1,28,0,225
1,26,83,14
1,26,0,225
1,23,83,14
1,23,0,107
1,23,83,131
1,26,83,243
1,23,0,100
1,27,83,138
1,26,0,8
1,28,83,231
1,27,83,2
1,27,0,2
1,27,0,121
1,28,0,9
1,26,83,590
1,26,0,211
1,23,83,27
1,23,0,140
1,26,83,579
1,28,83,239
1,26,0,28
1,28,0,72
1,28,83,143
1,28,0,84
1,28,83,149
1,28,0,240
1,26,83,0
1,26,0,193
1,23,83,51
1,23,0,91
1,23,83,145
1,31,83,238
1,23,0,34
1,32,83,208
1,31,0,45
1,32,0,176
1,33,83,20
1,33,0,162
1,31,83,555
1,31,0,239
1,28,83,3
1,28,0,151
1,31,83,564
1,33,83,246
1,31,0,27
1,33,0,88
1,33,83,131
1,33,0,78
1,33,83,159
1,31,83,237
1,33,0,75
1,31,0,128
1,28,83,37
1,28,0,67
1,28,83,166
1,28,0,191
1,31,83,51
1,32,83,236
1,31,0,19
1,32,0,215
1,33,83,11
1,33,0,166
1,31,83,554
1,31,0,240
1,28,83,3
1,28,0,150
1,31,83,571
1,33,83,239
1,31,0,45
1,33,0,61
1,33,83,141
1,33,0,73
1,33,83,168
1,31,83,236
1,33,0,55
1,31,0,144
1,28,83,56
1,29,83,1
1,29,0,7
1,28,0,6
1,23,83,211
1,26,83,244
1,23,0,61
1,27,83,182
1,26,0,13
1,28,83,226
1,27,0,8
1,28,0,162
1,26,83,544
1,26,0,215
1,23,83,27
1,23,0,128
1,26,83,586
1,28,83,240
1,26,0,17
1,28,0,71
1,28,83,152
1,28,0,62
1,28,83,173
1,26,83,245
1,28,0,6
1,26,0,189
1,23,83,45
1,23,0,76
1,23,83,162
1,26,83,239
1,23,0,55
1,26,0,179
1,27,83,7
1,28,83,242
1,27,0,9
1,28,0,172
1,26,83,534
1,26,0,237
1,23,83,8
1,23,0,151
1,26,83,567
1,28,83,240
1,26,0,50
1,28,0,62
1,28,83,130
1,28,0,107
1,28,83,133
1,28,0,213
1,26,83,25
1,28,83,10
1,28,0,68
1,26,0,150
1,23,83,8
1,23,0,102
1,20,83,141
1,21,83,235
1,20,0,39
1,22,83,207
1,21,0,60
1,22,0,155
1,23,83,29
1,23,0,114
1,23,83,133
1,23,0,65
1,23,83,170
1,23,0,82
1,23,83,161
1,23,0,66
1,23,83,175
1,23,0,72
1,23,83,170
1,23,0,59
1,23,83,178
1,23,0,66
1,23,83,174
1,23,0,60
1,23,83,180
1,23,0,71
1,23,83,168
1,23,0,63
1,23,83,177
1,23,0,63
1,23,83,175
1,23,0,73
1,23,83,167
1,26,83,8
1,26,0,34
1,23,0,79
1,20,83,113
1,21,83,240
1,20,0,42
1,22,83,195
1,21,0,32
1,23,83,213
1,22,0,22
1,23,0,84
1,23,83,136
1,23,0,63
1,23,83,176
1,23,0,78
1,23,83,161
1,23,0,80
1,23,83,164
1,23,0,70
1,23,83,173
1,23,0,66
1,23,83,168
1,23,0,84
1,23,83,159
1,23,0,88
1,23,83,148
1,23,0,86
1,23,83,154
1,23,0,93
1,23,83,151
1,23,0,96
1,23,83,140
1,23,0,119
1,31,83,122
1,31,0,173
1,33,83,303
1,33,0,150
1,28,83,337
1,28,0,94
1,28,83,148
1,28,0,102
1,28,83,139
1,28,0,209
1,26,83,24
1,26,0,224
1,23,83,14
1,23,0,97
1,23,83,143
1,26,83,239
1,23,0,79
1,26,0,161
1,27,83,1
1,27,0,238
1,28,83,4
1,28,0,109
1,28,83,135
1,28,0,81
1,28,83,155
1,26,83,234
1,28,0,57
1,26,0,187
1,23,83,0
1,23,0,92
1,23,83,145
1,23,0,160
1,26,83,81
1,26,0,176
1,27,83,62
1,28,83,245
1,27,0,11
1,28,0,130
1,28,83,101
1,28,0,110
1,28,83,128
1,28,0,219
1,26,83,21
1,28,83,17
1,28,0,10
1,26,0,187
1,23,83,27
1,23,0,79
1,23,83,158
1,26,83,240
1,23,0,72
1,27,83,169
1,26,0,32
1,28,83,207
1,27,0,2
1,28,0,124
1,28,83,121
1,28,0,101
1,28,83,136
1,26,83,241
1,28,0,89
1,26,0,102
1,23,83,45
1,23,0,83
1,23,83,157
1,31,83,240
1,23,0,74
1,32,83,163
1,31,0,13
1,33,83,229
1,32,0,36
1,33,0,76
1,33,83,132
1,33,0,90
1,33,83,153
1,31,83,236
1,33,0,70
1,31,0,144
1,28,83,26
1,28,0,76
1,28,83,163
1,28,0,185
1,31,83,53
1,32,83,247
1,31,0,30
1,33,83,210
1,32,0,9
1,33,0,103
1,33,83,132
1,33,0,96
1,33,83,134
1,31,83,239
1,33,0,48
1,31,0,191
1,28,83,3
1,28,0,56
1,23,83,186
1,26,83,244
1,23,0,78
1,27,83,163
1,26,0,39
1,28,83,201
1,27,0,2
1,28,0,75
1,28,83,163
1,28,0,82
1,28,83,156
1,26,83,243
1,28,0,73
1,26,0,110
1,23,83,57
1,23,0,69
1,23,83,168
1,23,0,183
1,26,83,53
1,23,83,15
1,23,0,6
1,27,83,216
1,26,0,3
1,28,83,241
1,27,0,1
1,28,0,86
1,28,83,149
1,28,0,93
1,28,83,149
1,26,83,238
1,28,0,73
1,26,0,151
1,23,83,17
1,23,0,76
1,20,83,160
1,21,83,240
1,20,0,65
1,21,0,141
1,22,83,34
1,22,0,245
1,23,83,5
1,23,0,53
1,23,83,181
1,23,0,70
1,23,83,169
1,23,0,77
1,23,83,164
1,23,0,81
1,23,83,160
1,23,0,89
1,23,83,152
1,23,0,86
1,23,83,155
1,23,0,72
1,23,83,165
1,23,0,88
1,23,83,154
1,23,0,77
1,23,83,164
1,23,0,82
1,23,83,158
1,23,0,83
1,23,83,156
1,23,0,78
1,23,83,162
1,23,0,79
1,23,83,160
1,23,0,117
1,26,83,121
1,26,0,186
1,27,83,49
1,27,0,222
1,28,83,17
1,28,0,119
1,28,83,119
1,28,0,110
1,28,83,132
1,26,83,238
1,28,0,58
1,26,0,123
1,23,83,58
1,23,0,86
1,23,83,157
1,23,0,222
1,26,83,18
1,26,0,219
1,27,83,17
1,28,83,247
1,27,0,17
1,28,0,104
1,28,83,117
1,28,0,100
1,28,83,142
1,26,83,237
1,28,0,63
1,26,0,161
1,23,83,19
1,23,0,78
1,23,83,162
1,23,0,160
1,26,83,72
1,27,83,152
1,26,0,64
1,27,0,209
1,28,83,60
1,28,0,126
1,28,83,3727
1,28,0,216
1,26,83,495
1,26,0,231
1,23,83,11
1,23,0,223
1,26,83,498
1,28,83,243
1,26,0,50
1,28,0,40
1,28,83,150
1,28,0,83
1,28,83,157
1,28,0,222
1,26,83,18
1,26,0,191
1,23,83,48
1,23,0,111
1,23,83,130
1,26,83,239
1,23,0,55
1,27,83,185
1,26,0,6
1,27,0,201
1,28,83,37
1,28,0,226
1,26,83,495
1,26,0,226
1,23,83,10
1,23,0,254
1,26,83,465
1,28,83,246
1,26,0,53
1,28,0,65
1,28,83,120
1,28,0,121
1,28,83,120
1,28,0,237
1,26,83,5
1,26,0,226
1,23,83,13
1,23,0,106
1,23,83,132
1,26,83,241
1,23,0,103
1,27,83,137
1,26,0,12
1,28,83,227
1,27,0,92
1,28,0,134
1,26,83,495
1,26,0,226
1,23,83,11
1,23,0,252
1,26,83,466
1,28,83,246
1,26,0,56
1,28,0,64
1,28,83,118
1,28,0,120
1,28,83,121
1,28,0,235
1,26,83,7
1,26,0,225
1,23,83,14
1,23,0,108
1,23,83,130
1,26,83,241
1,23,0,103
1,27,83,137
1,26,0,15
1,28,83,224
1,27,83,7
1,27,0,13
1,27,0,95
1,28,0,21
1,26,83,585
1,26,0,221
1,23,83,19
1,23,0,140
1,26,83,580
1,28,83,239
1,26,0,28
1,28,0,72
1,28,83,141
1,28,0,91
1,28,83,144
1,26,83,240
1,28,0,3
1,26,0,191
1,23,83,50
1,23,0,90
1,23,83,146
1,31,83,238
1,23,0,30
1,32,83,212
1,31,0,43
1,32,0,179
1,33,83,19
1,33,0,162
1,31,83,555
1,31,0,241
1,28,83,1
1,28,0,150
1,31,83,565
1,33,83,246
1,31,0,29
1,33,0,86
1,33,83,129
1,33,0,86
1,33,83,153
1,31,83,237
1,33,0,75
1,31,0,131
1,28,83,35
1,28,0,68
1,28,83,164
1,28,0,192
1,31,83,50
1,32,83,236
1,31,0,17
1,32,0,214
1,33,83,14
1,33,0,166
1,31,83,554
1,31,0,242
1,28,83,1
1,28,0,150
1,31,83,571
1,33,83,239
1,31,0,46
1,33,0,60
1,33,83,138
1,33,0,82
1,33,83,160
1,31,83,238
1,33,0,60
1,31,0,139
1,28,83,56
1,29,83,1
1,29,0,6
1,28,0,6
1,23,83,212
1,26,83,242
1,23,0,64
1,27,83,181
1,26,0,17
1,28,83,222
1,27,0,1
1,28,0,169
1,26,83,544
1,26,0,218
1,23,83,23
1,23,0,130
1,26,83,585
1,28,83,240
1,26,0,17
1,28,0,70
1,28,83,153
1,28,0,58
1,28,83,177
1,26,83,245
1,28,0,9
1,26,0,187
1,23,83,43
1,23,0,78
1,23,83,161
1,26,83,239
1,23,0,53
1,26,0,181
1,27,83,7
1,28,83,242
1,27,0,10
1,28,0,171
1,26,83,534
1,26,0,238
1,23,83,7
1,23,0,152
1,26,83,566
1,28,83,240
1,26,0,48
1,28,0,64
1,28,83,130
1,28,0,105
1,28,83,135
1,28,0,212
1,26,83,26
1,28,83,10
1,28,0,69
1,26,0,147
1,23,83,10
1,23,0,103
1,20,83,140
1,21,83,235
1,20,0,33
1,22,83,213
1,21,0,61
1,22,0,155
1,23,83,28
1,23,0,114
1,23,83,130
1,23,0,75
1,23,83,163
1,23,0,82
1,23,83,161
1,23,0,66
1,23,83,175
1,23,0,72
1,23,83,170
1,23,0,56
1,23,83,181
1,23,0,67
1,23,83,173
1,23,0,58
1,23,83,182
1,23,0,70
1,23,83,169
1,23,0,63
1,23,83,177
1,23,0,61
1,23,83,177
1,23,0,73
1,23,83,167
1,26,83,8
1,26,0,33
1,23,0,79
1,20,83,114
1,21,83,240
1,20,0,42
1,22,83,195
1,21,0,31
1,23,83,214
1,22,0,21
1,23,0,84
1,23,83,136
1,23,0,62
1,23,83,179
1,23,0,77
1,23,83,161
1,23,0,81
1,23,83,163
1,23,0,70
1,23,83,173
1,23,0,67
1,23,83,167
1,23,0,82
1,23,83,161
1,23,0,87
1,23,83,149
1,23,0,88
1,23,83,152
1,23,0,94
1,23,83,150
1,23,0,96
1,23,83,140
1,23,0,119
1,31,83,122
1,31,0,173
1,33,83,303
1,33,0,147
1,28,83,340
1,28,0,91
1,28,83,151
1,28,0,102
1,28,83,142
1,28,0,200
1,26,83,30
1,26,0,220
1,23,83,18
1,23,0,96
1,23,83,145
1,26,83,238
1,23,0,75
1,26,0,164
1,27,83,1
1,27,0,238
1,28,83,5
1,28,0,108
1,28,83,136
1,28,0,83
1,28,83,153
1,26,83,235
1,28,0,58
1,26,0,183
1,23,83,2
1,23,0,91
1,23,83,146
1,23,0,161
1,26,83,80
1,26,0,174
1,27,83,64
1,28,83,245
1,27,0,11
1,28,0,130
1,28,83,101
1,28,0,108
1,28,83,130
1,28,0,221
1,26,83,18
1,28,83,18
1,28,0,12
1,26,0,186
1,23,83,26
1,23,0,79
1,23,83,159
1,26,83,239
1,23,0,74
1,27,83,167
1,26,0,32
1,28,83,207
1,27,0,2
1,28,0,124
1,28,83,121
1,28,0,101
1,28,83,136
1,26,83,241
1,28,0,89
1,26,0,103
1,23,83,44
1,23,0,82
1,23,83,158
1,31,83,240
1,23,0,77
1,32,83,160
1,31,0,14
1,33,83,228
1,32,0,36
1,33,0,76
1,33,83,133
1,33,0,88
1,33,83,154
1,31,83,236
1,33,0,70
1,31,0,146
1,28,83,24
1,28,0,76
1,28,83,163
1,28,0,183
1,31,83,55
1,32,83,247
1,31,0,30
1,33,83,210
1,32,0,9
1,33,0,101
1,33,83,134
1,33,0,92
1,33,83,138
1,31,83,239
1,33,0,47
1,31,0,191
1,28,83,4
1,28,0,57
1,23,83,185
1,26,83,244
1,23,0,78
1,27,83,163
1,26,0,37
1,28,83,204
1,27,0,1
1,28,0,75
1,28,83,163
1,28,0,82
1,28,83,156
1,26,83,243
1,28,0,73
1,26,0,109
1,23,83,58
1,23,0,69
1,23,83,168
1,23,0,185
1,26,83,51
1,23,83,15
1,23,0,10
1,27,83,212
