track,note,velocity,time
1,56,91,2540
1,51,93,0
1,44,97,0
1,57,67,0
1,52,70,4
1,45,63,0
1,45,95,60
1,52,86,0
1,52,74,44
1,45,83,0
1,52,80,32
1,45,91,0
1,52,85,48
1,45,87,4
1,44,107,44
1,56,110,0
1,51,97,0
1,57,76,0
1,52,60,4
1,45,51,0
1,52,84,56
1,45,90,0
1,52,88,88
1,45,87,0
1,52,80,64
1,45,84,0
1,52,80,96
1,45,74,0
1,51,87,32
1,56,91,0
1,44,101,0
1,45,69,0
1,52,79,0
1,57,83,0
1,52,86,96
1,45,85,0
1,45,80,48
1,52,68,0
1,52,83,64
1,45,79,0
1,52,74,36
1,45,77,0
1,56,99,60
1,51,87,0
1,44,85,0
1,45,71,0
1,52,76,0
1,57,74,4
1,45,80,64
1,52,84,0
1,52,80,84
1,45,76,4
1,45,83,52
1,52,86,0
1,60,122,8
1,55,95,0
1,54,79,128
1,59,79,0
1,44,89,148
1,56,97,0
1,51,97,0
1,45,64,16
1,57,70,0
1,52,68,0
1,45,92,60
1,52,85,0
1,52,81,56
1,45,80,0
1,52,85,52
1,45,84,0
1,52,69,32
1,45,76,0
1,44,99,56
1,56,113,0
1,51,99,0
1,45,57,0
1,57,68,0
1,52,73,0
1,52,88,48
1,45,87,0
1,52,80,68
1,45,81,0
1,40,100,64
1,47,90,0
1,45,94,80
1,52,102,0
1,60,104,404
1,55,90,0
1,59,86,116
1,54,91,0
1,44,93,140
1,51,89,0
1,56,97,4
1,57,72,12
1,52,80,0
1,45,70,8
1,45,102,40
1,52,91,0
1,52,81,32
1,45,85,4
1,45,80,16
1,52,83,0
1,52,73,32
1,45,85,4
1,44,104,76
1,56,110,0
1,51,97,0
1,45,68,4
1,57,81,0
1,52,80,0
1,45,88,40
1,52,90,0
1,52,87,64
1,45,95,4
1,40,102,56
1,47,95,0
1,45,102,84
1,52,99,0
1,61,123,4
1,56,107,0
1,49,101,0
1,62,79,0
1,57,83,0
1,50,71,0
1,57,84,56
1,50,94,0
1,57,68,40
1,50,73,0
1,61,113,40
1,56,99,0
1,49,97,0
1,50,70,12
1,57,80,0
1,62,80,0
1,50,87,4
1,57,90,0
1,57,65,44
1,50,79,0
1,44,87,108
1,56,99,0
1,51,97,0
1,52,74,16
1,45,68,0
1,57,70,0
1,52,94,32
1,45,90,0
1,52,73,44
1,45,87,0
1,40,108,68
1,47,95,0
1,52,100,40
1,45,87,0
1,49,113,112
1,61,119,0
1,56,97,0
1,57,76,12
1,62,72,0
1,50,70,0
1,57,92,76
1,50,90,0
1,57,77,32
1,50,74,0
1,56,87,68
1,61,113,0
1,49,95,0
1,62,73,0
1,50,67,0
1,57,80,0
1,50,87,40
1,57,83,0
1,50,71,84
1,57,73,0
1,44,85,64
1,56,104,0
1,51,99,0
1,52,80,4
1,45,73,0
1,57,77,0
1,40,104,32
1,47,90,0
1,52,114,72
1,45,100,0
1,60,125,12
1,55,102,0
1,59,88,4
1,54,97,0
1,44,110,88
1,56,113,0
1,51,99,0
1,57,86,4
1,52,91,0
1,45,92,0
1,52,80,36
1,45,95,0
1,52,88,48
1,45,87,0
1,52,84,12
1,45,87,4
1,52,94,68
1,45,77,0
1,56,110,68
1,44,93,0
1,51,104,0
1,52,80,4
1,57,73,0
1,45,71,0
1,52,92,64
1,45,90,0
1,52,88,16
1,45,91,0
1,45,83,16
1,52,95,0
1,60,100,184
1,55,100,0
1,59,85,8
1,54,101,0
1,44,91,124
1,56,107,0
1,51,104,0
1,57,73,0
1,45,74,0
1,52,87,0
1,52,94,68
1,45,84,0
1,45,80,44
1,52,81,0
1,52,95,24
1,45,83,0
1,52,84,44
1,45,84,4
1,56,95,32
1,51,99,0
1,44,95,0
1,45,73,0
1,52,79,0
1,57,72,0
1,52,88,64
1,45,81,0
1,52,81,24
1,45,79,0
1,40,100,32
1,47,88,0
1,45,88,48
1,52,102,0
1,60,98,0
1,55,97,0
1,59,80,0
1,54,78,0
1,56,104,152
1,51,99,0
1,44,77,4
1,45,74,16
1,57,68,0
1,52,78,0
1,52,85,72
1,45,91,0
1,52,95,44
1,45,85,0
1,45,83,36
1,52,92,0
1,52,85,12
1,45,73,0
1,51,99,72
1,44,95,0
1,56,107,0
1,52,78,0
1,45,65,0
1,57,67,0
1,52,87,72
1,45,78,4
1,52,76,32
1,45,75,4
1,40,92,60
1,47,85,0
1,52,108,44
1,45,94,0
1,57,102,188
1,50,117,0
1,50,92,76
1,57,97,0
1,57,104,40
1,50,102,0
1,50,104,12
1,57,104,64
1,50,106,0
1,50,98,88
1,57,97,0
1,59,95,24
1,50,108,0
1,50,127,60
1,57,106,64
1,50,104,0
1,50,120,60
1,50,100,32
1,59,100,0
1,50,127,52
1,57,104,60
1,50,106,0
1,50,117,88
1,57,95,0
1,59,90,32
1,50,114,0
1,50,106,64
1,45,100,60
1,52,102,0
1,45,94,88
1,52,104,0
1,54,113,48
1,45,100,0
1,45,108,64
1,52,108,64
1,45,100,0
1,45,102,88
1,52,108,0
1,54,113,44
1,45,98,0
1,45,95,32
1,47,127,76
1,40,102,0
1,45,102,72
1,52,127,0
1,52,116,12
1,45,117,0
1,54,110,0
1,47,101,0
1,56,108,64
1,49,111,0
1,50,111,4
1,57,111,0
1,57,106,96
1,50,112,0
1,57,97,40
1,50,104,0
1,50,106,32
1,57,112,64
1,50,102,0
1,57,100,80
1,50,102,0
1,59,97,32
1,50,104,0
1,50,97,0
1,57,117,68
1,50,94,0
1,57,104,72
1,50,104,0
1,59,94,12
1,50,100,0
1,50,106,4
1,57,114,60
1,50,102,0
1,50,108,88
1,57,104,0
1,59,84,36
1,50,106,0
1,50,104,16
1,52,127,72
1,45,98,0
1,40,97,76
1,47,106,0
1,45,92,36
1,52,122,0
1,55,114,180
1,60,112,0
1,59,94,0
1,54,101,0
1,44,93,80
1,51,99,0
1,56,107,0
1,52,98,16
1,45,72,0
1,57,81,0
1,45,91,32
1,57,104,0
1,52,112,0
1,57,94,60
1,52,104,0
1,45,81,0
1,57,87,44
1,52,97,0
1,45,85,0
1,52,100,72
1,57,92,0
1,45,81,0
1,51,95,32
1,56,116,0
1,44,95,0
1,45,70,0
1,52,98,0
1,57,97,0
1,45,80,40
1,52,98,0
1,57,97,0
1,52,94,92
1,57,88,0
1,45,75,0
1,52,100,76
1,57,95,0
1,45,86,0
1,52,92,36
1,57,86,0
1,45,70,0
1,56,116,52
1,44,99,0
1,51,107,0
1,45,68,16
1,52,73,0
1,57,75,0
1,45,70,40
1,52,87,0
1,57,85,0
1,57,80,44
1,52,91,0
1,45,79,0
1,57,94,96
1,52,104,0
1,45,86,0
1,55,117,148
1,60,122,0
1,59,110,128
1,54,91,0
1,56,113,112
1,44,82,0
1,51,65,0
1,57,73,4
1,45,74,0
1,52,87,0
1,52,94,68
1,45,84,0
1,45,80,44
1,52,81,0
1,52,95,24
1,45,83,0
1,52,84,44
1,45,84,4
1,56,95,32
1,51,99,0
1,44,95,0
1,45,73,0
1,52,79,0
1,57,72,0
1,52,88,64
1,45,81,0
1,52,81,24
1,45,79,0
1,40,100,32
1,47,88,0
1,45,88,48
1,52,102,0
1,60,98,0
1,55,97,0
1,59,80,132
1,54,78,0
1,56,104,152
1,51,99,0
1,44,77,4
1,45,74,16
1,57,68,0
1,52,78,0
1,52,85,72
1,45,91,0
1,52,95,44
1,45,85,0
1,45,83,36
1,52,92,0
1,52,85,12
1,45,73,0
1,51,99,72
1,44,95,0
1,56,107,0
1,52,78,0
1,45,65,0
1,57,67,0
1,52,87,72
1,45,78,4
1,52,76,32
1,45,75,4
1,40,92,60
1,47,85,0
1,52,108,44
1,45,94,0
1,57,102,188
1,50,117,0
1,50,92,76
1,57,97,0
1,57,104,40
1,50,102,0
1,50,104,12
1,57,104,64
1,50,106,0
1,50,98,88
1,57,97,0
1,59,95,24
1,50,108,0
1,50,127,60
1,57,106,64
1,50,104,0
1,50,120,60
1,50,100,32
1,59,100,0
1,50,127,52
1,57,104,60
1,50,106,0
1,50,117,88
1,57,95,0
1,59,90,32
1,50,114,0
1,50,106,64
1,45,100,60
1,52,102,0
1,45,94,88
1,52,104,0
1,54,113,48
1,45,100,0
1,45,108,64
1,52,108,64
1,45,100,0
1,45,102,88
1,52,108,0
1,54,113,44
1,45,98,0
1,45,95,32
1,47,127,76
1,38,94,0
1,40,102,0
1,45,102,72
1,52,127,0
1,52,110,12
1,45,122,0
1,54,116,12
1,47,95,20
1,56,110,32
1,49,110,0
1,50,104,24
1,57,110,0
1,57,106,96
1,50,112,0
1,57,97,40
1,50,104,0
1,50,106,32
1,57,112,64
1,50,102,0
1,57,100,80
1,50,102,0
1,59,97,32
1,50,104,0
1,50,97,0
1,57,117,68
1,50,94,0
1,57,104,72
1,50,104,0
1,59,94,12
1,50,100,0
1,50,106,4
1,57,114,60
1,50,102,0
1,50,108,88
1,57,104,0
1,59,84,36
1,50,106,0
1,50,104,16
1,52,127,72
1,45,98,0
1,40,97,76
1,47,106,0
1,45,92,36
1,52,122,0
1,44,93,0
1,51,99,0
1,56,107,0
1,52,100,16
1,45,102,0
1,40,85,56
1,47,100,0
1,52,100,92
1,45,95,0
1,51,110,64
1,44,116,0
1,52,66,128
1,45,77,0
1,40,94,60
1,47,100,0
1,52,106,20
1,45,95,0
1,60,127,128
1,55,102,0
1,59,100,0
1,54,99,0
1,44,93,112
1,51,101,0
1,56,99,0
1,52,86,8
1,45,76,0
1,57,68,0
1,52,95,36
1,45,104,0
1,45,90,4
1,52,80,0
1,45,88,44
1,52,88,0
1,52,70,12
1,45,80,0
1,56,113,44
1,44,107,0
1,51,107,0
1,45,71,0
1,52,80,0
1,57,73,0
1,52,90,16
1,45,95,0
1,45,91,72
1,52,92,0
1,52,90,44
1,45,84,0
1,52,68,24
1,45,76,0
1,51,95,56
1,56,116,0
1,44,104,0
1,45,65,4
1,57,73,0
1,52,77,0
1,52,88,60
1,45,88,0
1,52,77,32
1,45,80,0
1,52,95,64
1,45,95,0
1,52,87,4
1,45,84,0
1,56,101,48
1,44,107,0
1,51,97,0
1,52,90,28
1,45,79,0
1,57,78,0
1,45,94,32
1,52,92,0
1,52,87,48
1,45,88,0
1,52,88,44
1,45,87,0
1,52,75,32
1,45,86,0
1,56,119,72
1,51,110,0
1,44,101,0
1,52,75,0
1,57,79,0
1,45,68,0
1,52,83,60
1,45,80,0
1,52,85,16
1,45,85,0
1,45,95,24
1,52,92,0
1,52,85,48
1,56,110,56
1,51,97,0
1,44,104,0
1,57,83,0
1,45,80,0
1,52,90,0
1,45,91,44
1,52,91,88
1,45,94,0
1,52,88,32
1,45,85,0
1,52,83,16
1,45,83,0
1,56,116,48
1,51,104,0
1,44,107,0
1,52,88,0
1,57,84,0
1,45,72,0
1,52,80,64
1,45,86,0
2,36,127,14428
2,35,94,124
2,32,127,92
2,33,122,0
2,45,108,32
2,33,104,1536
2,32,119,76
2,33,120,4
2,45,112,384
2,28,104,80
2,33,102,60
2,36,127,76
2,35,91,4
2,32,116,52
2,33,110,128
2,45,120,44
2,33,100,16
2,32,123,56
2,33,112,16
2,45,108,384
2,28,120,64
2,33,108,32
2,37,123,64
2,38,100,4
2,37,127,148
2,38,92,128
2,32,123,140
2,33,92,128
2,45,92,376
2,28,112,40
2,33,106,52
2,37,127,84
2,38,86,0
2,37,119,144
2,38,85,128
2,32,119,160
2,33,91,8
2,28,112,0
2,33,108,100
2,36,125,4
2,35,80,4
2,32,113,100
2,33,92,4
2,45,97,4
2,43,104,4
2,32,127,112
2,33,86,8
2,45,106,32
2,43,94,1140
2,36,125,180
2,35,83,8
2,32,110,100
2,33,94,0
2,43,87,40
2,32,127,156
2,33,80,144
2,28,100,112
2,33,92,180
2,36,100,24
2,35,86,8
2,32,107,100
2,33,80,0
2,43,97,132
2,32,116,188
2,33,86,128
2,28,90,140
2,33,102,132
2,33,88,8
2,35,95,104
2,37,110,108
2,38,106,4
2,38,100,208
2,38,97,76
2,38,92,200
2,38,98,48
2,38,100,52
2,38,94,216
2,38,98,80
2,40,94,196
2,33,80,16
2,33,100,172
2,33,95,64
2,33,106,136
2,28,97,52
2,33,98,164
2,33,91,92
2,35,95,52
2,37,107,140
2,38,100,76
2,38,98,184
2,38,98,64
2,38,110,176
2,38,102,44
2,38,104,48
2,38,95,256
2,38,98,64
2,40,104,192
2,33,97,32
2,28,106,88
2,33,120,80
2,36,112,96
2,35,95,24
2,32,101,124
2,33,104,0
2,45,83,40
2,32,107,88
2,33,106,4
2,45,94,36
2,32,110,64
2,33,104,0
2,45,97,40
2,36,122,180
2,35,97,16
2,32,113,144
2,33,95,0
2,45,97,36
2,32,127,36
2,33,94,0
2,28,100,60
2,33,100,152
2,36,122,24
2,35,86,16
2,32,123,92
2,33,104,8
2,45,86,24
2,33,104,20
2,28,108,56
2,33,108,28
2,33,108,92
2,35,104,32
2,37,113,84
2,38,106,4
2,38,100,208
2,38,97,76
2,38,92,200
2,38,98,48
2,38,100,52
2,38,94,216
2,38,98,80
2,40,94,196
2,33,80,16
2,33,100,172
2,33,95,64
2,33,106,136
2,28,97,52
2,33,98,164
2,33,91,92
2,35,95,52
2,37,107,140
2,38,100,76
2,38,98,184
2,38,98,64
2,38,110,176
2,38,102,44
2,38,104,48
2,38,95,256
2,38,98,64
2,40,104,192
2,33,97,32
2,28,106,88
2,33,120,80
2,32,101,16
2,33,97,16
2,28,97,52
2,33,98,40
2,32,123,60
2,33,98,52
2,28,98,20
2,33,94,36
2,36,108,64
2,35,102,12
2,32,119,32
2,33,94,12
2,45,100,8
2,33,95,1536
2,32,127,56
2,33,97,128
2,45,95,8
2,33,90,1536
2,32,107,92
2,33,100,128
2,45,95,20
2,33,91,4
2,32,116,92
2,33,102,0
2,45,97,16
2,33,91,0
2,32,101,108
2,33,97,0
2,45,97,16
2,33,95,8
2,32,113,72
2,33,97,128
2,45,91,0
2,33,94,40
2,32,107,68
2,33,100,116
2,45,95,0
3,68,123,57784
3,65,102,0
3,69,112,240
3,66,99,160
3,63,127,36
3,59,120,64
3,57,91,216
3,55,102,16
3,66,113,620
3,63,107,20
3,68,127,21756
3,65,108,8
3,67,127,940
3,66,119,0
3,69,94,8
3,60,108,32
3,63,123,0
3,59,122,44
3,57,112,212
3,55,114,24
3,66,127,248
3,63,123,28
4,57,68,15148
4,67,104,56
4,66,85,24
4,64,70,20
4,67,96,184
4,67,92,116
4,66,83,156
4,64,84,20
4,67,74,616
4,67,70,32
4,66,77,20
4,64,68,28
4,61,88,16
4,57,59,96
4,59,78,64
4,59,74,48
4,57,64,24
4,57,65,52
4,57,65,772
4,67,86,80
4,66,79,20
4,64,71,28
4,64,64,36
4,67,86,176
4,67,79,52
4,66,88,40
4,64,78,32
4,57,59,644
4,67,79,24
4,66,75,28
4,64,71,32
4,61,79,24
4,57,66,36
4,59,90,48
4,56,69,36
4,57,74,56
4,57,78,360
4,62,81,64
4,62,75,32
4,60,78,24
4,62,84,32
4,65,88,504
4,65,88,24
4,65,86,52
4,62,78,24
4,62,64,32
4,64,78,948
4,64,68,48
4,66,83,52
4,61,91,52
4,57,67,40
4,57,79,64
4,59,81,32
4,56,66,56
4,57,74,28
4,62,78,692
4,62,54,32
4,60,63,28
4,62,69,48
4,64,81,540
4,62,67,20
4,60,67,20
4,62,72,48
4,64,82,1020
4,64,60,36
4,66,83,52
4,61,77,32
4,57,59,36
4,57,54,40
4,57,54,32
4,59,67,12
4,56,59,32
4,57,58,32
4,67,79,5516
4,67,64,28
4,66,83,56
4,64,81,28
4,64,57,64
4,67,86,124
4,67,72,36
4,66,91,12
4,64,81,36
4,67,76,908
4,67,58,20
4,66,75,0
4,64,79,28
4,61,97,20
4,57,65,12
4,59,82,48
4,56,73,24
4,57,81,56
4,67,96,744
4,67,64,32
4,66,85,24
4,64,64,24
4,64,81,48
4,66,97,40
4,64,75,20
4,67,82,52
4,66,94,0
4,64,84,28
4,67,86,780
4,67,70,20
