track,note,velocity,time
0,63,115,1632
0,40,27,0
0,63,115,64
0,40,54,0
0,63,115,64
0,40,64,0
0,67,115,0
0,40,66,0
0,70,115,0
0,40,68,0
0,39,110,32
0,75,95,0
0,67,115,0
0,75,115,0
0,67,110,0
0,70,110,0
0,75,110,0
0,39,120,0
0,40,70,0
0,40,72,104
0,40,74,104
0,39,110,0
0,39,120,0
0,55,100,0
0,58,100,0
0,63,100,0
0,67,100,0
0,35,110,0
0,40,76,0
0,57,95,0
0,55,100,0
0,58,100,0
0,63,100,0
0,67,100,0
0,74,95,138
0,67,115,0
0,74,115,0
0,39,110,0
0,73,95,0
0,67,115,0
0,73,115,0
0,63,110,0
0,67,110,0
0,70,110,0
0,39,120,0
0,40,61,0
0,40,67,104
0,40,72,104
0,39,110,0
0,39,120,0
0,55,100,0
0,58,100,0
0,63,100,0
0,67,100,0
0,35,110,0
0,40,78,0
0,57,95,0
0,55,100,0
0,58,100,0
0,63,100,0
0,67,100,0
0,72,95,116
0,67,115,0
0,72,115,0
0,34,110,128
0,70,95,0
0,62,115,0
0,70,115,0
0,62,110,0
0,65,110,0
0,70,110,0
0,34,120,0
0,53,100,0
0,58,100,0
0,62,100,0
0,65,100,0
0,35,110,0
0,40,80,0
0,57,95,0
0,53,100,0
0,58,100,0
0,62,100,0
0,65,100,0
0,68,95,64
0,62,115,0
0,68,115,0
0,34,110,0
0,67,95,0
0,62,115,0
0,67,115,0
0,58,110,0
0,62,110,0
0,67,110,0
0,34,120,0
0,53,100,0
0,58,100,0
0,62,100,0
0,65,100,0
0,35,110,0
0,40,80,0
0,57,95,0
0,53,100,0
0,58,100,0
0,62,100,0
0,65,100,0
0,65,95,64
0,62,115,0
0,65,115,0
0,39,110,0
0,63,95,0
0,63,115,0
0,55,110,0
0,58,110,0
0,63,110,0
0,39,120,0
0,55,100,0
0,58,100,0
0,63,100,0
0,67,100,0
0,35,110,0
0,40,80,0
0,57,95,0
0,55,100,0
0,58,100,0
0,63,100,0
0,67,100,0
0,32,110,144
0,60,95,0
0,63,127,0
0,75,110,0
0,32,120,0
0,40,80,0
0,57,95,0
0,32,110,4
0,56,95,0
0,60,127,0
0,72,100,0
0,32,120,0
0,40,80,0
0,57,95,0
0,40,80,168
0,40,80,0
0,32,110,2
0,61,95,0
0,65,127,0
0,77,95,0
0,32,120,0
0,40,80,192
0,44,110,20
0,60,95,0
0,63,127,0
0,75,99,0
0,44,120,0
0,35,110,0
0,57,95,0
0,60,102,168
0,63,100,0
0,56,100,0
0,60,100,0
0,63,100,0
0,68,100,0
0,40,80,0
0,56,100,0
0,60,100,0
0,63,100,0
0,68,100,0
0,60,84,48
0,63,92,0
0,39,110,24
0,63,109,0
0,68,106,0
0,39,120,0
0,35,110,0
0,53,75,0
0,60,111,24
0,63,112,0
0,63,112,12
0,68,112,0
0,56,100,0
0,60,100,0
0,63,100,0
0,68,100,0
0,40,80,0
0,56,100,0
0,60,100,0
0,63,100,0
0,68,100,0
0,68,89,20
0,72,103,0
0,44,110,32
0,72,103,0
0,75,109,0
0,44,120,0
0,35,110,0
0,53,75,0
0,56,100,4
0,60,100,0
0,63,100,0
0,68,100,0
0,40,80,0
0,56,100,0
0,60,100,0
0,63,100,0
0,68,100,0
0,39,110,100
0,60,95,0
0,68,127,0
0,80,97,0
0,39,120,0
0,35,110,0
0,53,75,0
0,56,100,6
0,60,100,0
0,63,100,0
0,68,100,0
0,40,80,0
0,56,100,0
0,60,100,0
0,63,100,0
0,68,100,0
0,44,110,24
0,63,95,0
0,72,127,0
0,84,81,0
0,44,120,0
0,35,110,0
0,53,75,0
0,56,100,168
0,60,100,0
0,63,100,0
0,66,100,0
0,40,80,0
0,56,100,0
0,60,100,0
0,63,100,0
0,66,100,0
0,39,110,144
0,39,120,0
0,35,110,0
0,53,75,0
0,63,95,48
0,72,127,0
0,84,87,0
0,56,100,0
0,60,100,0
0,63,100,0
0,66,100,0
0,40,80,0
0,56,100,0
0,60,100,0
0,63,100,0
0,66,100,0
0,32,110,20
0,61,95,0
0,70,127,0
0,82,97,0
0,32,120,0
0,35,110,0
0,53,75,0
0,56,100,168
0,60,100,0
0,63,100,0
0,66,100,0
0,40,80,0
0,56,100,0
0,60,100,0
0,63,100,0
0,66,100,0
0,32,110,12
0,60,95,0
0,68,127,0
0,80,97,0
0,32,120,0
0,35,110,0
0,53,75,0
0,56,100,168
0,60,100,0
0,63,100,0
0,66,100,0
0,40,80,0
0,56,100,0
0,60,100,0
0,63,100,0
0,66,100,0
0,37,110,22
0,53,95,0
0,61,127,0
0,73,93,0
0,37,120,0
0,35,110,0
0,53,75,0
0,56,100,168
0,61,100,0
0,65,100,0
0,68,100,0
0,40,80,0
0,56,100,0
0,61,100,0
0,65,100,0
0,68,100,0
0,32,110,0
0,56,95,0
0,65,127,0
0,77,88,0
0,32,120,0
0,35,110,0
0,53,75,0
0,56,100,6
0,61,100,0
0,65,100,0
0,68,100,0
0,40,80,0
0,56,100,0
0,61,100,0
0,65,100,0
0,68,100,0
0,37,110,52
0,56,95,0
0,65,127,0
0,77,80,0
0,37,120,0
0,35,110,0
0,53,75,0
0,65,100,168
0,68,104,0
0,56,100,0
0,61,100,0
0,65,100,0
0,68,100,0
0,40,80,0
0,56,100,0
0,61,100,0
0,65,100,0
0,68,100,0
0,65,75,48
0,68,96,0
0,32,110,32
0,68,104,0
0,73,112,0
0,32,120,0
0,35,110,0
0,53,75,0
0,65,100,14
0,68,118,0
0,68,100,32
0,73,106,0
0,56,100,0
0,61,100,0
0,65,100,0
0,68,100,0
0,40,80,0
0,56,100,0
0,61,100,0
0,65,100,0
0,68,100,0
0,73,87,16
0,77,92,0
0,37,110,16
0,77,91,0
0,80,112,0
0,37,120,0
0,35,110,0
0,53,75,0
0,56,100,108
0,61,100,0
0,65,100,0
0,68,100,0
0,40,80,0
0,56,100,0
0,61,100,0
0,65,100,0
0,68,100,0
0,32,110,144
0,61,95,0
0,65,127,0
0,77,85,0
0,32,120,0
0,35,110,0
0,53,75,0
0,56,100,168
0,61,100,0
0,65,100,0
0,68,100,0
0,40,80,0
0,56,100,0
0,61,100,0
0,65,100,0
0,68,100,0
0,37,110,72
0,61,95,0
0,65,127,0
0,77,91,0
0,37,120,0
0,35,110,0
0,53,75,0
0,56,100,168
0,61,100,0
0,65,100,0
0,68,100,0
0,40,80,0
0,56,100,0
0,61,100,0
0,65,100,0
0,68,100,0
0,37,110,36
0,65,95,0
0,68,127,0
0,80,81,0
0,37,120,0
0,35,110,0
0,53,75,0
0,56,100,168
0,61,100,0
0,65,100,0
0,68,100,0
0,40,80,0
0,56,100,0
0,61,100,0
0,65,100,0
0,68,100,0
0,39,110,8
0,63,95,0
0,67,127,0
0,79,90,0
0,39,120,0
0,35,110,0
0,53,75,0
0,55,100,168
0,58,100,0
0,63,100,0
0,67,100,0
0,40,80,0
0,55,100,0
0,58,100,0
0,63,100,0
0,67,100,0
0,34,110,144
0,63,124,0
0,67,105,0
0,34,120,0
0,35,110,0
0,53,75,0
0,65,97,24
0,68,102,0
0,67,85,24
0,70,89,0
0,55,100,0
0,58,100,0
0,63,100,0
0,67,100,0
0,40,80,0
0,55,100,0
0,58,100,0
0,63,100,0
0,67,100,0
0,68,83,12
0,72,93,0
0,39,110,8
0,70,77,0
0,73,86,0
0,39,120,0
0,35,110,0
0,53,75,0
0,55,100,48
0,58,100,0
0,63,100,0
0,67,100,0
0,40,80,0
0,55,100,0
0,58,100,0
0,63,100,0
0,67,100,0
0,34,110,144
0,63,95,0
0,67,127,0
0,79,90,0
0,34,120,0
0,35,110,0
0,53,75,0
0,55,100,168
0,58,100,0
0,63,100,0
0,67,100,0
0,40,80,0
0,55,100,0
0,58,100,0
0,63,100,0
0,67,100,0
0,39,110,46
0,63,95,0
0,67,127,0
0,79,85,0
0,39,120,0
0,35,110,0
0,53,75,0
0,55,100,168
0,58,100,0
0,63,100,0
0,67,100,0
0,40,80,0
0,55,100,0
0,58,100,0
0,63,100,0
0,67,100,0
0,39,110,76
0,63,95,0
0,67,127,0
0,79,90,0
0,39,120,0
0,35,110,0
0,53,75,0
0,55,100,168
0,58,100,0
0,63,100,0
0,67,100,0
0,40,80,0
0,55,100,0
0,58,100,0
0,63,100,0
0,67,100,0
0,41,110,48
0,61,95,0
0,65,127,0
0,77,84,0
0,41,120,0
0,35,110,0
0,53,75,0
0,55,100,168
0,58,100,0
0,63,100,0
0,67,100,0
0,40,80,0
0,55,100,0
0,58,100,0
0,63,100,0
0,67,100,0
0,43,110,36
0,61,95,0
0,64,127,0
0,76,104,0
0,43,120,0
0,35,110,0
0,53,75,0
0,55,100,168
0,58,100,0
0,63,100,0
0,67,100,0
0,40,80,0
0,55,100,0
0,58,100,0
0,63,100,0
0,67,100,0
0,44,110,14
0,60,95,0
0,63,127,0
0,75,101,0
0,44,120,0
0,56,100,0
0,60,100,0
0,63,100,0
0,68,100,0
0,35,110,0
0,57,95,0
0,56,100,0
0,60,100,0
0,63,100,0
0,68,100,0
0,40,69,0
0,40,80,0
0,40,73,24
0,44,110,6
0,60,95,0
0,68,84,0
0,72,99,0
0,75,86,0
0,68,123,0
0,44,120,0
0,56,100,0
0,60,100,0
0,63,100,0
0,68,100,0
0,35,110,0
0,40,76,0
0,56,100,0
0,60,100,0
0,63,100,0
0,68,100,0
0,60,95,32
0,68,60,0
0,72,95,0
0,75,75,0
0,68,107,0
0,40,80,0
0,60,95,24
0,68,68,0
0,72,105,0
0,75,82,0
0,68,104,0
0,40,80,0
0,45,110,48
0,60,95,0
0,66,102,0
0,72,103,0
0,75,109,0
0,66,89,0
0,45,120,0
0,57,100,0
0,60,100,0
0,65,100,0
0,69,100,0
0,35,110,0
0,40,80,0
0,57,100,0
0,60,100,0
0,65,100,0
0,69,100,0
0,60,95,32
0,66,89,0
0,72,92,0
0,75,92,0
0,66,84,0
0,40,80,0
0,60,95,18
0,66,89,0
0,72,93,0
0,75,90,0
0,66,87,0
0,40,80,0
0,45,110,72
0,60,95,0
0,66,89,0
0,72,99,0
0,75,84,0
0,66,91,0
0,45,120,0
0,57,100,0
0,60,100,0
0,65,100,0
0,69,100,0
0,35,110,0
0,40,80,0
0,57,100,0
0,60,100,0
0,65,100,0
0,69,100,0
0,60,95,32
0,66,89,0
0,72,95,0
0,75,87,0
0,66,82,0
0,40,80,0
0,60,95,76
0,66,102,0
0,72,97,0
0,75,98,0
0,66,95,0
0,40,80,0
0,46,110,52
0,63,95,0
0,67,97,0
0,70,118,0
0,75,100,0
0,67,106,0
0,46,120,0
0,58,100,0
0,62,100,0
0,65,100,0
0,70,100,0
0,35,110,0
0,40,80,0
0,57,95,0
0,58,100,0
0,62,100,0
0,65,100,0
0,70,100,0
0,60,95,172
0,63,127,0
0,75,97,0
0,56,95,4
0,60,127,0
0,72,97,0
0,61,95,0
0,65,127,0
0,77,85,0
0,44,110,4
0,60,95,0
0,63,127,0
0,75,77,0
0,44,120,0
0,35,110,0
0,57,95,0
0,60,102,168
0,63,100,0
0,56,100,0
0,60,100,0
0,63,100,0
0,68,100,0
0,40,80,0
0,56,100,0
0,60,100,0
0,63,100,0
0,68,100,0
0,60,84,48
0,63,92,0
0,39,110,24
0,63,109,0
0,68,106,0
0,39,120,0
0,35,110,0
0,53,75,0
0,60,111,24
0,63,112,0
0,63,112,12
0,68,112,0
0,56,100,0
0,60,100,0
0,63,100,0
0,68,100,0
0,40,80,0
0,56,100,0
0,60,100,0
0,63,100,0
0,68,100,0
0,68,89,20
0,72,103,0
0,44,110,32
0,72,103,0
0,75,109,0
0,44,120,0
0,35,110,0
0,53,75,0
0,56,100,128
0,60,100,0
0,63,100,0
0,68,100,0
0,40,80,0
0,56,100,0
0,60,100,0
0,63,100,0
0,68,100,0
0,39,110,70
0,60,95,0
0,68,127,0
0,80,87,0
0,39,120,0
0,35,110,0
0,53,75,0
0,56,100,6
0,60,100,0
0,63,100,0
0,68,100,0
0,40,80,0
0,56,100,0
0,60,100,0
0,63,100,0
0,68,100,0
0,44,110,24
0,63,95,0
0,72,127,0
0,84,95,0
0,44,120,0
0,35,110,0
0,53,75,0
0,56,100,168
0,60,100,0
0,63,100,0
0,66,100,0
0,40,80,0
0,56,100,0
0,60,100,0
0,63,100,0
0,66,100,0
0,39,110,144
0,39,120,0
0,35,110,0
0,53,75,0
0,63,95,54
0,72,127,0
0,84,91,0
0,56,100,0
0,60,100,0
0,63,100,0
0,66,100,0
0,40,80,0
0,56,100,0
0,60,100,0
0,63,100,0
0,66,100,0
0,32,110,12
0,61,95,0
0,70,127,0
0,82,93,0
0,32,120,0
0,35,110,0
0,53,75,0
0,56,100,168
0,60,100,0
0,63,100,0
0,66,100,0
0,40,80,0
0,56,100,0
0,60,100,0
0,63,100,0
0,66,100,0
0,32,110,12
0,60,95,0
0,68,127,0
0,80,81,0
0,32,120,0
0,35,110,0
0,53,75,0
0,56,100,168
0,60,100,0
0,63,100,0
0,66,100,0
0,40,80,0
0,56,100,0
0,60,100,0
0,63,100,0
0,66,100,0
0,37,110,8
0,53,95,0
0,61,127,0
0,73,93,0
0,37,120,0
0,35,110,0
0,53,75,0
0,56,100,168
0,61,100,0
0,65,100,0
0,68,100,0
0,40,80,0
0,56,100,0
0,61,100,0
0,65,100,0
0,68,100,0
0,32,110,6
0,56,95,0
0,65,127,0
0,77,94,0
0,32,120,0
0,35,110,0
0,53,75,0
0,56,100,6
0,61,100,0
0,65,100,0
0,68,100,0
0,40,80,0
0,56,100,0
0,61,100,0
0,65,100,0
0,68,100,0
0,37,110,52
0,56,95,0
0,65,127,0
0,77,92,0
0,37,120,0
0,35,110,0
0,53,75,0
0,65,100,168
0,68,104,0
0,56,100,0
0,61,100,0
0,65,100,0
0,68,100,0
0,40,80,0
0,56,100,0
0,61,100,0
0,65,100,0
0,68,100,0
0,65,75,48
0,68,96,0
0,32,110,32
0,68,104,0
0,73,112,0
0,32,120,0
0,35,110,0
0,53,75,0
0,65,100,14
0,68,118,0
0,68,100,32
0,73,106,0
0,56,100,0
0,61,100,0
0,65,100,0
0,68,100,0
0,40,80,0
0,56,100,0
0,61,100,0
0,65,100,0
0,68,100,0
0,73,87,16
0,77,92,0
0,37,110,16
0,77,91,0
0,80,112,0
0,37,120,0
0,35,110,0
0,53,75,0
0,56,100,108
0,61,100,0
0,65,100,0
0,68,100,0
0,40,80,0
0,56,100,0
0,61,100,0
0,65,100,0
0,68,100,0
0,32,110,138
0,61,95,0
0,65,127,0
0,77,95,0
0,32,120,0
0,35,110,0
0,53,75,0
0,56,100,168
0,61,100,0
0,65,100,0
0,68,100,0
0,40,80,0
0,56,100,0
0,61,100,0
0,65,100,0
0,68,100,0
0,37,110,74
0,61,95,0
0,65,127,0
0,77,87,0
0,37,120,0
0,35,110,0
0,53,75,0
0,56,100,168
0,61,100,0
0,65,100,0
0,68,100,0
0,40,80,0
0,56,100,0
0,61,100,0
0,65,100,0
0,68,100,0
0,37,110,0
0,65,95,0
0,68,127,0
0,80,93,0
0,37,120,0
0,35,110,0
0,53,75,0
0,56,100,168
0,61,100,0
0,65,100,0
0,68,100,0
0,40,80,0
0,56,100,0
0,61,100,0
0,65,100,0
0,68,100,0
0,39,110,32
0,63,95,0
0,67,127,0
0,79,85,0
0,39,120,0
0,35,110,0
0,53,75,0
0,55,100,168
0,58,100,0
0,63,100,0
0,67,100,0
0,40,80,0
0,55,100,0
0,58,100,0
0,63,100,0
0,67,100,0
0,34,110,144
0,63,124,0
0,67,105,0
0,34,120,0
0,35,110,0
0,53,75,0
0,65,97,24
0,68,102,0
0,67,85,24
0,70,89,0
0,55,100,0
0,58,100,0
0,63,100,0
0,67,100,0
0,40,80,0
0,55,100,0
0,58,100,0
0,63,100,0
0,67,100,0
0,68,83,12
0,72,93,0
0,39,110,8
0,70,77,0
0,73,86,0
0,39,120,0
0,35,110,0
0,53,75,0
0,55,100,24
