track,note,velocity,time
1,67,127,2954
1,67,0,30
1,67,127,30
1,67,0,30
1,67,127,0
1,67,0,60
1,67,127,30
1,64,127,30
1,67,0,30
1,64,0,30
1,67,127,30
1,67,0,30
1,67,127,30
1,67,0,30
1,64,127,0
1,64,0,30
1,67,127,0
1,67,0,90
1,67,127,450
1,67,0,30
1,67,127,0
1,67,0,30
1,67,127,30
1,67,0,30
1,67,127,30
1,67,0,60
1,64,127,30
1,64,0,30
1,67,127,30
1,67,0,30
1,67,127,30
1,67,0,30
1,64,127,0
1,64,0,30
1,64,127,30
1,64,0,60
1,66,127,90
1,66,0,120
1,67,127,0
1,67,0,30
1,66,127,0
1,64,127,30
1,66,0,30
1,64,0,60
1,67,121,150
1,67,0,30
1,67,127,30
1,67,0,30
1,67,127,30
1,67,0,60
1,64,127,0
1,64,0,60
1,67,127,60
1,67,0,120
1,64,127,0
1,64,0,30
1,64,127,0
1,64,0,60
1,64,127,388
1,64,0,30
1,67,127,31
1,67,0,18
1,67,127,39
1,67,0,21
1,67,127,44
1,67,0,26
1,67,127,27
1,67,0,36
1,69,127,21
1,69,0,35
1,64,127,34
1,64,0,30
1,62,127,0
1,62,0,49
1,60,127,11
1,60,0,115
1,62,127,687
1,64,127,57
1,62,0,7
1,64,0,96
1,66,127,11
1,66,0,27
1,66,127,36
1,66,0,137
1,66,127,464
1,66,0,42
1,64,127,47
1,64,0,45
1,62,127,27
1,62,0,33
1,66,127,46
1,66,0,75
1,66,127,555
1,66,0,60
1,64,127,0
1,64,0,60
1,62,127,0
1,64,127,60
1,62,0,1
1,64,0,53
1,69,127,6
1,69,0,60
1,66,127,0
1,66,0,107
1,66,127,179
1,66,0,32
1,64,127,23
1,62,127,100
1,64,0,1
1,59,127,24
1,62,0,12
1,59,0,81
1,59,127,215
1,61,127,63
1,59,0,2
1,61,0,80
1,62,127,640
1,62,0,30
1,65,127,36
1,65,0,25
1,65,127,31
1,65,0,29
1,64,127,30
1,64,0,38
1,62,127,21
1,62,0,17
1,62,127,44
1,62,0,391
1,62,121,268
1,62,0,19
1,65,127,44
1,65,0,17
1,65,127,37
1,65,0,23
1,64,127,33
1,64,0,47
1,62,127,16
1,62,0,30
1,62,127,30
1,62,0,358
1,62,127,307
1,62,0,18
1,65,127,42
1,65,0,30
1,65,127,30
1,65,0,30
1,64,127,29
1,64,0,49
1,62,127,12
1,62,0,31
1,62,127,32
1,62,0,362
1,65,127,359
1,65,0,37
1,67,127,20
1,67,0,52
1,72,127,46
1,72,0,49
1,72,127,31
1,72,0,60
1,65,127,31
1,65,0,23
1,67,127,7
1,67,0,23
1,69,127,7
1,69,0,30
1,67,127,0
1,67,0,30
1,65,127,0
1,65,0,30
1,62,127,0
1,62,0,351
1,67,127,429
1,67,0,30
1,67,127,30
1,67,0,30
1,67,127,0
1,67,0,60
1,67,127,30
1,64,127,30
1,67,0,30
1,64,0,30
1,67,127,30
1,67,0,30
1,67,127,30
1,67,0,30
1,64,127,0
1,64,0,30
1,67,127,0
1,67,0,90
1,67,127,450
1,67,0,30
1,67,127,0
1,67,0,30
1,67,127,30
1,67,0,30
1,67,127,30
1,67,0,60
1,64,127,30
1,64,0,30
1,67,127,30
1,67,0,30
1,67,127,30
1,67,0,30
1,64,127,0
1,64,0,30
1,64,127,30
1,64,0,60
1,66,127,90
1,66,0,120
1,67,127,0
1,67,0,30
1,66,127,0
1,64,127,30
1,66,0,30
1,64,0,60
1,67,127,85
1,67,0,17
1,67,127,41
1,67,0,20
1,67,127,37
1,67,0,22
1,67,127,39
1,64,127,61
1,67,0,5
1,64,0,42
1,67,127,11
1,67,0,40
1,69,127,17
1,69,0,135
1,64,127,4
1,62,127,20
1,64,0,7
1,60,127,13
1,62,0,9
1,60,0,77
1,64,127,331
1,64,0,22
1,67,127,43
1,67,0,19
1,67,127,39
1,67,0,19
1,67,127,48
1,67,0,22
1,67,127,41
1,67,0,25
1,69,127,35
1,69,0,60
1,64,127,1
1,64,0,60
1,62,127,3
1,62,0,30
1,60,127,0
1,60,0,120
1,62,127,682
1,64,127,57
1,62,0,7
1,64,0,96
1,66,127,11
1,66,0,27
1,66,127,36
1,66,0,137
1,66,127,464
1,66,0,42
1,64,127,47
1,64,0,45
1,62,127,27
1,62,0,33
1,66,127,46
1,66,0,75
1,66,127,555
1,66,0,60
1,64,127,0
1,64,0,60
1,62,127,0
1,64,127,60
1,62,0,1
1,64,0,53
1,69,127,6
1,69,0,60
1,66,127,0
1,66,0,107
1,66,127,179
1,66,0,32
1,64,127,23
1,62,127,100
1,64,0,1
1,59,127,24
1,62,0,12
1,59,0,81
1,59,127,215
1,61,127,63
1,59,0,2
1,61,0,58
1,59,127,3
1,59,0,30
1,57,127,0
1,57,0,180
1,62,127,449
1,62,0,30
1,65,127,36
1,65,0,25
1,65,127,31
1,65,0,29
1,64,127,30
1,64,0,38
1,62,127,21
1,62,0,17
1,62,127,44
1,62,0,391
1,62,121,268
1,62,0,19
1,65,127,44
1,65,0,17
1,65,127,37
1,65,0,23
1,64,127,33
1,64,0,47
1,62,127,16
1,62,0,30
1,62,127,30
1,62,0,358
1,62,127,307
1,62,0,18
1,65,127,42
1,65,0,30
1,65,127,30
1,65,0,30
1,64,127,29
1,64,0,49
1,62,127,12
1,62,0,31
1,62,127,32
1,62,0,362
1,65,127,359
1,65,0,37
1,67,127,20
1,67,0,52
1,72,127,46
1,72,0,49
1,72,127,31
1,72,0,60
1,65,127,31
1,65,0,23
1,67,127,7
1,67,0,23
1,69,127,7
1,69,0,30
1,67,127,0
1,67,0,30
1,65,127,0
1,65,0,30
1,62,127,0
1,62,0,351
1,66,127,4921
1,66,0,57
1,67,127,1
1,66,126,57
1,67,0,6
1,66,0,60
1,69,126,1
1,69,0,169
1,66,127,3
1,64,127,24
1,66,0,11
1,66,127,14
1,64,0,8
1,66,0,70
1,66,127,489
1,67,127,49
1,66,0,3
1,66,127,53
1,67,0,8
1,64,127,60
1,66,0,5
1,64,0,25
1,62,127,5
1,62,0,30
1,59,127,0
1,59,0,60
1,62,127,2039
1,62,0,30
1,65,127,36
1,65,0,25
1,65,127,31
1,65,0,29
1,64,127,30
1,64,0,38
1,62,127,21
1,62,0,17
1,62,127,44
1,62,0,391
1,62,121,268
1,62,0,19
1,65,127,44
1,65,0,17
1,65,127,37
1,65,0,23
1,64,127,33
1,64,0,47
1,62,127,16
1,62,0,30
1,62,127,30
1,62,0,358
1,62,127,307
1,62,0,18
1,65,127,42
1,65,0,30
1,65,127,30
1,65,0,30
1,64,127,29
1,64,0,49
1,62,127,12
1,62,0,31
1,62,127,32
1,62,0,362
1,65,127,359
1,65,0,37
1,65,127,20
1,65,0,52
1,67,127,7
1,67,0,52
1,69,127,8
1,69,0,49
1,69,127,10
1,69,0,30
1,72,127,1
1,72,0,30
1,69,127,0
1,69,0,60
1,72,127,0
1,72,0,30
1,69,127,0
1,69,0,60
1,67,127,0
1,67,0,30
1,67,127,0
1,67,0,30
1,65,127,0
1,65,0,30
1,62,127,0
1,62,0,300
1,60,127,30
1,60,0,30
1,62,127,0
1,62,0,60
1,64,127,0
1,64,0,60
1,65,127,0
1,65,0,60
1,64,127,0
1,64,0,60
1,60,127,0
1,60,0,30
1,62,127,30
1,62,0,450
1,62,127,6929
1,62,0,30
1,65,127,36
1,65,0,25
1,65,127,31
1,65,0,29
1,64,127,30
1,64,0,38
1,62,127,21
1,62,0,17
1,62,127,44
1,62,0,391
1,62,121,268
1,62,0,19
1,65,127,44
1,65,0,17
1,65,127,37
1,65,0,23
1,64,127,33
1,64,0,47
1,62,127,16
1,62,0,30
1,62,127,30
1,62,0,358
1,62,127,307
1,62,0,18
1,65,127,42
1,65,0,30
1,65,127,30
1,65,0,30
1,64,127,29
1,64,0,49
1,62,127,12
1,62,0,31
1,62,127,32
1,62,0,362
1,65,127,359
1,65,0,37
1,65,127,20
1,65,0,52
1,67,127,7
1,67,0,52
1,69,127,8
1,69,0,49
1,69,127,10
1,69,0,30
1,72,127,1
1,72,0,30
1,69,127,0
1,69,0,60
1,72,127,0
1,72,0,30
1,69,127,0
1,69,0,60
1,67,127,0
1,67,0,30
1,67,127,0
1,67,0,30
1,65,127,0
1,65,0,30
1,62,127,0
1,62,0,300
1,69,127,3000
1,69,0,30
1,67,127,60
1,67,0,30
1,65,127,30
1,65,0,60
1,64,127,30
1,64,0,60
1,65,127,30
1,65,0,30
1,64,127,0
1,64,0,30
1,62,127,0
1,62,0,240
2,69,124,9
2,72,124,0
2,62,80,0
2,50,127,0
2,62,0,30
2,72,0,30
2,62,80,0
2,62,0,30
2,69,0,30
2,62,80,0
2,69,126,0
2,72,126,0
2,62,0,30
2,72,0,30
2,62,80,0
2,62,0,30
2,69,0,25
2,62,80,0
2,69,126,0
2,72,126,0
2,62,0,24
2,72,0,30
2,62,80,0
2,62,0,30
2,69,0,30
2,62,80,0
2,69,124,0
2,72,124,0
2,62,0,30
2,72,0,30
2,62,80,0
2,62,0,30
2,69,0,30
2,62,80,0
2,69,124,0
2,72,124,0
2,62,0,30
2,72,0,30
2,62,80,0
2,62,0,30
2,69,0,30
2,62,80,0
2,72,119,0
2,69,119,0
2,62,0,30
2,72,0,30
2,62,80,0
2,62,0,30
2,69,0,0
2,62,80,5
2,72,120,0
2,69,120,0
2,69,0,30
2,72,0,0
2,62,0,0
2,62,80,30
2,67,123,0
2,71,123,0
2,62,0,4
2,50,0,14
2,62,80,0
2,62,0,19
2,62,80,9
2,50,117,0
2,62,0,29
2,71,0,0
2,67,0,0
2,50,0,9
2,69,124,0
2,72,124,0
2,62,80,0
2,50,127,0
2,62,0,30
2,72,0,30
2,62,80,0
2,62,0,30
2,69,0,30
2,62,80,0
2,69,126,0
2,72,126,0
2,62,0,30
2,72,0,30
2,62,80,0
2,62,0,30
2,69,0,25
2,62,80,0
2,69,126,0
2,72,126,0
2,62,0,24
2,72,0,30
2,62,80,0
2,62,0,30
2,69,0,30
2,62,80,0
2,69,124,0
2,72,124,0
2,62,0,30
2,72,0,30
2,62,80,0
2,62,0,30
2,69,0,30
2,62,80,0
2,69,124,0
2,72,124,0
2,62,0,30
2,72,0,30
2,62,80,0
2,62,0,30
2,69,0,30
2,62,80,0
2,72,119,0
2,69,119,0
2,62,0,30
2,72,0,30
2,62,80,0
2,62,0,30
2,69,0,0
2,62,80,30
2,72,120,0
2,69,120,0
2,69,0,30
2,72,0,0
2,62,0,0
2,62,80,30
2,67,123,0
2,71,123,0
2,62,0,30
2,50,0,30
2,62,80,0
2,62,0,30
2,62,80,30
2,50,117,0
2,62,0,30
2,71,0,0
2,67,0,0
2,50,0,30
2,69,124,0
2,72,124,0
2,62,80,0
2,50,127,0
2,62,0,30
2,72,0,30
2,62,80,0
2,62,0,30
2,69,0,30
2,62,80,0
2,69,126,0
2,72,126,0
2,62,0,30
2,72,0,30
2,62,80,0
2,62,0,30
2,69,0,30
2,62,80,0
2,69,126,0
2,72,126,0
2,62,0,30
2,72,0,30
2,62,80,0
2,62,0,30
2,69,0,30
2,62,80,0
2,69,124,0
2,72,124,0
2,62,0,30
2,72,0,30
2,62,80,0
2,62,0,30
2,69,0,30
2,62,80,0
2,67,124,0
2,71,124,0
2,62,0,30
2,71,0,30
2,62,80,0
2,62,0,30
2,67,0,0
2,62,80,30
2,71,119,0
2,67,119,0
2,62,0,30
2,71,0,30
2,62,80,0
2,62,0,30
2,67,0,30
2,62,80,0
2,72,120,0
2,69,120,0
2,72,0,30
2,62,0,0
2,69,0,30
2,62,80,0
2,67,123,0
2,71,123,0
2,62,0,30
2,50,0,30
2,62,80,0
2,62,0,30
2,62,80,30
2,50,117,0
2,62,0,30
2,71,0,0
2,67,0,0
2,50,0,30
2,69,124,11040
2,72,124,0
2,62,80,0
2,50,127,0
2,62,0,30
2,72,0,30
2,62,80,0
2,62,0,30
2,69,0,30
2,62,80,0
2,69,126,0
2,72,126,0
2,62,0,30
2,72,0,30
2,62,80,0
2,62,0,30
2,69,0,30
2,62,80,0
2,69,126,0
2,72,126,0
2,62,0,30
2,72,0,30
2,62,80,0
2,62,0,30
2,69,0,30
2,62,80,0
2,69,124,0
2,72,124,0
2,62,0,30
2,72,0,30
2,62,80,0
2,62,0,30
2,69,0,30
2,62,80,0
2,67,124,0
2,71,124,0
2,62,0,30
2,71,0,30
2,62,80,0
2,62,0,30
2,67,0,0
2,62,80,30
2,71,119,0
2,67,119,0
2,62,0,30
2,71,0,30
2,62,80,0
2,62,0,30
2,67,0,30
2,62,80,0
2,72,120,0
2,69,120,0
2,72,0,30
2,62,0,0
2,69,0,30
2,62,80,0
2,67,123,0
2,71,123,0
2,62,0,30
2,50,0,30
2,62,80,0
2,62,0,30
2,62,80,30
2,50,117,0
2,62,0,30
2,71,0,0
2,67,0,0
2,50,0,30
2,69,124,11040
2,72,124,0
2,62,80,0
2,50,127,0
2,62,0,30
2,72,0,30
2,62,80,0
2,62,0,30
2,69,0,30
2,62,80,0
2,69,126,0
2,72,126,0
2,62,0,30
2,72,0,30
2,62,80,0
2,62,0,30
2,69,0,30
2,62,80,0
2,69,126,0
2,72,126,0
2,62,0,30
2,72,0,30
2,62,80,0
2,62,0,30
2,69,0,30
2,62,80,0
2,69,124,0
2,72,124,0
2,62,0,30
2,72,0,30
2,62,80,0
2,62,0,30
2,69,0,30
2,62,80,0
2,67,124,0
2,71,124,0
2,62,0,30
2,71,0,30
2,62,80,0
2,62,0,30
2,67,0,0
2,62,80,30
2,71,119,0
2,67,119,0
2,62,0,30
2,71,0,30
2,62,80,0
2,62,0,30
2,67,0,30
2,62,80,0
2,72,120,0
2,69,120,0
2,72,0,30
2,62,0,0
2,69,0,30
2,62,80,0
2,67,123,0
2,71,123,0
2,62,0,30
2,50,0,30
2,62,80,0
2,62,0,30
2,62,80,30
2,50,117,0
2,62,0,30
2,71,0,0
2,67,0,0
2,50,0,30
2,69,127,4
2,69,0,299
2,67,127,0
2,67,0,90
2,65,127,0
2,65,0,90
2,64,127,0
2,64,0,53
2,62,127,7
2,62,0,26
2,60,127,6
2,60,0,329
2,69,127,29
2,69,0,95
2,67,127,0
2,67,0,90
2,65,127,0
2,65,0,90
2,64,127,0
2,65,127,60
2,64,0,1
2,64,127,59
2,65,0,1
2,64,0,179
2,65,127,0
2,65,0,120
2,67,124,0
2,67,0,47
2,69,127,13
2,69,0,300
2,67,121,0
2,67,0,90
2,65,115,30
2,65,0,54
2,64,92,6
2,64,0,54
2,62,86,6
2,62,0,57
2,60,100,3
2,60,0,329
2,69,127,31
2,69,0,74
2,67,127,16
2,67,0,68
2,65,127,22
2,65,0,45
2,64,127,15
2,64,0,90
2,62,127,0
2,62,0,55
2,60,127,5
2,60,0,90
2,62,127,0
2,64,127,57
2,62,0,18
2,64,0,49
2,65,127,2
2,65,0,94
2,64,127,21
2,64,0,57
2,62,127,3
2,62,0,52
2,60,127,7
2,60,0,75
2,69,127,45
2,69,0,300
2,67,127,0
2,67,0,90
2,65,127,0
2,65,0,90
2,64,127,0
2,64,0,53
2,62,127,7
2,62,0,56
2,60,127,6
2,60,0,329
2,69,127,29
2,69,0,300
2,67,127,0
2,67,0,90
2,65,127,0
2,65,0,90
2,64,127,0
2,65,127,60
2,64,0,1
2,64,127,59
2,65,0,1
2,64,0,179
2,65,127,0
2,65,0,120
2,67,124,0
2,67,0,47
2,69,127,13
2,69,0,300
2,67,121,0
2,67,0,90
2,65,115,30
2,65,0,54
2,64,92,6
2,64,0,54
2,62,86,6
2,62,0,57
2,60,100,3
2,60,0,329
2,65,127,31
2,65,0,74
2,64,127,16
2,64,0,68
2,62,127,22
2,62,0,45
2,60,127,15
2,60,0,90
2,62,127,0
2,62,0,55
2,64,127,5
2,64,0,180
2,50,58,390
2,57,60,0
2,57,0,30
2,50,0,0
2,62,74,0
2,65,70,0
2,69,70,0
2,65,0,30
2,57,54,0
2,50,33,0
2,50,0,30
2,62,0,0
