track,note,velocity,time
1,74,101,192
1,66,104,0
1,69,101,0
1,50,92,0
1,57,86,96
1,74,0,13
1,66,0,6
1,69,0,1
1,66,114,76
1,74,105,0
1,69,112,0
1,57,0,23
1,57,46,73
1,50,0,29
1,57,0,10
1,74,0,24
1,69,0,21
1,66,0,3
1,48,103,9
1,72,103,48
1,67,99,0
1,64,103,0
1,64,0,51
1,72,0,0
1,67,0,4
1,60,97,41
1,67,107,48
1,64,107,0
1,72,107,0
1,60,0,60
1,48,0,35
1,72,0,40
1,64,0,5
1,67,0,10
1,43,89,42
1,67,105,0
1,71,112,0
1,62,105,0
1,55,95,96
1,62,0,14
1,71,0,19
1,67,0,11
1,72,115,52
1,67,109,0
1,62,95,0
1,55,0,18
1,62,0,51
1,72,0,1
1,67,0,5
1,71,105,21
1,67,97,0
1,62,99,0
1,55,112,192
1,62,0,5
1,71,0,5
1,67,0,2
1,71,112,84
1,67,105,0
1,62,105,0
1,55,0,20
1,43,0,64
1,55,91,12
1,62,0,48
1,67,0,3
1,71,0,0
1,55,0,24
1,50,75,21
1,69,105,0
1,66,107,0
1,74,99,0
1,57,97,96
1,74,0,18
1,66,0,2
1,69,0,0
1,66,124,76
1,74,107,0
1,69,117,0
1,57,0,9
1,57,92,87
1,50,0,21
1,57,0,26
1,74,0,36
1,69,0,8
1,66,0,2
1,48,99,3
1,67,115,48
1,72,112,0
1,64,115,0
1,64,0,27
1,67,0,0
1,72,0,2
1,55,91,67
1,67,109,48
1,72,107,0
1,64,112,0
1,55,0,29
1,55,67,67
1,48,0,7
1,55,0,7
1,64,0,12
1,72,0,3
1,67,0,9
1,71,115,58
1,67,103,0
1,43,88,0
1,62,109,0
1,55,105,96
1,62,0,10
1,71,0,5
1,67,0,5
1,71,107,76
1,67,103,0
1,62,103,0
1,55,0,11
1,43,0,15
1,62,0,38
1,67,0,8
1,71,0,2
1,66,121,22
1,69,109,0
1,62,107,0
1,38,95,0
1,50,105,0
1,62,0,367
1,50,0,5
1,69,0,0
1,38,0,5
1,66,0,2
1,66,104,101
1,62,99,0
1,38,91,0
1,57,97,0
1,50,99,384
1,66,0,6
1,57,0,3
1,62,0,3
1,57,105,84
1,57,0,55
1,57,101,41
1,62,105,0
1,66,114,0
1,50,0,4
1,50,92,92
1,38,0,7
1,57,0,40
1,66,0,7
1,62,0,11
1,50,0,28
1,43,72,3
1,67,101,0
1,62,105,0
1,59,105,0
1,59,0,379
1,67,0,2
1,62,0,3
1,55,82,0
1,59,103,96
1,59,0,25
1,67,107,71
1,62,103,0
1,59,109,0
1,55,0,8
1,55,82,88
1,55,0,19
1,43,0,6
1,67,0,24
1,59,0,12
1,62,0,7
1,62,89,28
1,69,99,0
1,66,97,0
1,38,83,0
1,69,0,380
1,50,101,4
1,66,0,2
1,62,0,11
1,59,99,83
1,59,0,19
1,50,0,71
1,69,107,6
1,66,114,0
1,62,109,0
1,38,0,91
1,50,94,5
1,69,0,40
1,66,0,20
1,62,0,3
1,67,88,33
1,62,91,0
1,43,71,0
1,59,97,0
1,50,0,1
1,59,0,382
1,67,0,1
1,55,89,0
1,62,0,3
1,59,109,93
1,59,0,25
1,67,105,71
1,62,105,0
1,59,115,0
1,55,0,10
1,55,94,86
1,55,0,20
1,43,0,8
1,59,0,22
1,67,0,13
1,62,0,4
1,66,111,29
1,38,89,0
1,62,97,0
1,57,99,0
1,50,105,480
1,57,0,21
1,66,0,1
1,62,0,2
1,50,0,68
1,62,105,4
1,66,118,0
1,57,109,0
1,38,0,91
1,50,101,5
1,57,0,48
1,66,0,5
1,62,0,7
1,50,0,27
1,62,103,9
1,67,97,0
1,59,105,0
1,43,75,0
1,55,83,384
1,67,0,1
1,59,0,1
1,62,0,3
1,59,105,91
1,59,0,17
1,55,0,60
1,62,112,19
1,67,95,0
1,59,120,0
1,69,99,0
1,69,0,18
1,55,88,78
1,55,0,17
1,43,0,12
1,67,0,32
1,59,0,4
1,62,0,12
1,38,83,19
1,66,104,0
1,62,94,0
1,69,105,0
1,50,86,480
1,69,0,9
1,66,0,7
1,62,0,4
1,50,0,74
1,66,121,2
1,69,107,0
1,62,115,0
1,38,0,90
1,50,92,6
1,69,0,38
1,66,0,20
1,62,0,3
1,50,0,32
1,62,97,3
1,67,97,0
1,43,82,0
1,59,101,0
1,55,82,384
1,67,0,1
1,59,0,4
1,62,0,7
1,59,109,84
1,59,0,24
1,62,109,72
1,59,117,0
1,67,107,0
1,55,0,6
1,50,94,90
1,59,0,13
1,67,0,4
1,62,0,0
1,50,0,5
1,43,0,11
1,66,104,63
1,62,99,0
1,38,91,0
1,57,97,0
1,50,99,384
1,66,0,6
1,57,0,3
1,62,0,3
1,57,105,84
1,57,0,55
1,57,101,41
1,62,105,0
1,66,114,0
1,50,0,4
1,50,92,92
1,38,0,7
1,57,0,40
1,66,0,7
1,62,0,11
1,50,0,28
1,43,72,3
1,67,101,0
1,62,105,0
1,59,105,0
1,59,0,379
1,67,0,2
1,62,0,3
1,55,82,0
1,59,103,96
1,59,0,25
1,67,107,71
1,62,103,0
1,59,109,0
1,55,0,8
1,55,82,88
1,55,0,19
1,43,0,6
1,67,0,24
1,59,0,12
1,62,0,7
1,62,89,28
1,69,99,0
1,66,97,0
1,38,83,0
1,69,0,380
1,50,101,4
1,66,0,2
1,62,0,11
1,59,99,83
1,59,0,19
1,50,0,71
1,69,107,6
1,66,114,0
1,62,109,0
1,38,0,91
1,50,94,5
1,69,0,40
1,66,0,20
1,62,0,3
1,67,88,33
1,62,91,0
1,43,71,0
1,59,97,0
1,50,0,1
1,59,0,382
1,67,0,1
1,55,89,0
1,62,0,3
1,59,109,93
1,59,0,25
1,67,105,71
1,62,105,0
1,59,115,0
1,55,0,10
1,55,94,86
1,55,0,20
1,43,0,8
1,59,0,22
1,67,0,13
1,62,0,4
1,66,111,29
1,38,89,0
1,62,97,0
1,57,99,0
1,50,105,480
1,57,0,21
1,66,0,1
1,62,0,2
1,50,0,68
1,62,105,4
1,66,118,0
1,57,109,0
1,38,0,91
1,50,101,5
1,57,0,48
1,66,0,5
1,62,0,7
1,50,0,27
1,62,103,9
1,67,97,0
1,59,105,0
1,43,75,0
1,55,83,384
1,67,0,1
1,59,0,1
1,62,0,3
1,59,105,91
1,59,0,17
1,55,0,60
1,62,112,19
1,67,95,0
1,59,120,0
1,69,99,0
1,69,0,18
1,55,88,78
1,55,0,17
1,43,0,12
1,67,0,32
1,59,0,4
1,62,0,12
1,38,83,19
1,66,104,0
1,62,94,0
1,69,105,0
1,50,86,480
1,69,0,9
1,66,0,7
1,62,0,4
1,50,0,74
1,66,121,2
1,69,107,0
1,62,115,0
1,38,0,90
1,50,92,6
1,69,0,38
1,66,0,20
1,62,0,3
1,50,0,32
1,62,97,3
1,67,97,0
1,43,82,0
1,59,101,0
1,55,82,384
1,67,0,1
1,59,0,4
1,62,0,7
1,59,109,84
1,59,0,24
1,62,109,72
1,59,117,0
1,67,107,0
1,55,0,6
1,50,94,90
1,59,0,13
1,67,0,4
1,62,0,0
1,50,0,5
1,43,0,11
1,36,123,63
1,64,125,0
1,60,123,0
1,55,120,0
1,55,0,22
1,60,0,7
1,64,0,4
1,36,0,14
1,38,120,1
1,57,103,0
1,62,120,0
1,66,124,0
1,62,0,34
1,57,0,0
1,66,0,2
1,38,0,14
1,66,127,94
1,38,120,0
1,62,117,0
1,57,112,0
1,57,0,147
1,66,0,3
1,62,0,1
1,38,0,7
1,36,115,34
1,64,117,0
1,60,123,0
1,55,120,0
1,55,0,18
1,60,0,3
1,64,0,1
1,36,0,14
1,66,121,12
1,38,120,0
1,57,109,0
1,62,120,0
1,57,0,23
1,62,0,3
1,66,0,5
1,38,0,7
1,66,124,106
1,62,120,0
1,57,115,0
1,38,117,0
1,57,0,137
1,66,0,3
1,38,0,2
1,62,0,1
1,64,117,49
1,36,120,0
1,60,123,0
1,55,125,0
1,55,0,18
1,60,0,2
1,64,0,3
1,36,0,9
1,38,123,16
1,66,124,0
1,57,112,0
1,62,117,0
1,57,0,27
1,62,0,3
1,66,0,7
1,38,0,8
1,66,124,99
1,57,120,0
1,62,125,0
1,38,125,0
1,66,0,137
1,57,0,1
1,38,0,0
1,62,0,1
1,59,127,53
1,62,120,0
1,55,123,0
1,43,120,0
1,55,0,142
1,62,0,7
1,59,0,3
1,43,0,5
1,60,123,35
1,55,115,0
1,64,120,0
1,36,112,0
1,55,0,133
1,64,0,1
1,60,0,2
1,36,0,0
1,36,117,56
1,60,123,0
1,64,125,0
1,55,123,0
1,55,0,19
1,60,0,5
1,64,0,2
1,36,0,20
1,38,117,2
1,62,120,0
1,66,127,0
1,57,115,0
1,57,0,48
1,62,0,4
1,66,0,1
1,38,0,4
1,66,124,87
1,62,120,0
1,38,123,0
1,57,120,0
1,57,0,130
1,66,0,8
1,62,0,1
1,38,0,3
1,36,123,50
1,64,120,0
1,60,120,0
1,55,115,0
1,55,0,16
1,60,0,6
1,64,0,2
1,36,0,12
1,38,120,12
1,62,112,0
1,57,103,0
1,66,124,0
1,64,92,0
1,65,97,0
1,65,0,8
1,64,0,0
1,57,0,13
1,62,0,4
1,66,0,1
1,38,0,6
1,66,127,112
1,62,125,0
1,57,125,0
1,38,123,0
1,57,0,133
1,38,0,4
1,62,0,1
1,66,0,0
1,64,115,54
1,60,117,0
1,55,112,0
1,36,120,0
1,55,0,15
1,60,0,3
1,64,0,2
1,36,0,13
1,38,117,15
1,62,115,0
1,57,109,0
1,66,124,0
1,57,0,19
1,62,0,4
1,66,0,1
1,38,0,5
1,66,127,115
1,62,125,0
1,57,123,0
1,38,125,0
1,57,0,144
1,62,0,3
1,66,0,3
1,38,0,10
1,55,123,32
1,59,127,0
1,62,117,0
1,43,125,0
1,55,0,147
1,59,0,3
1,62,0,5
1,43,0,13
1,64,117,24
1,60,115,0
1,55,123,0
1,36,117,0
1,36,0,128
1,55,0,7
1,64,0,3
1,60,0,1
1,36,117,53
1,60,123,0
1,64,125,0
1,55,123,0
1,55,0,19
1,60,0,5
1,64,0,2
1,36,0,20
1,38,117,2
1,62,120,0
1,66,127,0
1,57,115,0
1,57,0,48
1,62,0,4
1,66,0,1
1,38,0,4
1,66,124,87
1,62,120,0
1,38,123,0
1,57,120,0
1,57,0,130
1,66,0,8
1,62,0,1
1,38,0,3
1,36,123,50
1,64,120,0
1,60,120,0
1,55,115,0
1,55,0,16
1,60,0,6
1,64,0,2
1,36,0,12
1,38,120,12
1,62,112,0
1,57,103,0
1,66,124,0
1,64,92,0
1,65,97,0
1,65,0,8
1,64,0,0
1,57,0,13
1,62,0,4
1,66,0,1
1,38,0,6
1,66,127,112
1,62,125,0
1,57,125,0
1,38,123,0
1,57,0,133
1,38,0,4
1,62,0,1
1,66,0,0
1,64,115,54
1,60,117,0
1,55,112,0
1,36,120,0
1,55,0,15
1,60,0,3
1,64,0,2
1,36,0,13
1,38,117,15
1,62,115,0
1,57,109,0
1,66,124,0
1,57,0,19
1,62,0,4
1,66,0,1
1,38,0,5
1,66,127,115
1,62,125,0
1,57,123,0
1,38,125,0
1,57,0,144
1,62,0,3
1,66,0,3
1,38,0,10
1,55,123,32
1,59,127,0
1,62,117,0
1,43,125,0
1,55,0,147
1,59,0,3
1,62,0,5
1,43,0,13
1,64,117,24
1,60,115,0
1,55,123,0
1,36,117,0
1,36,0,128
1,55,0,7
1,64,0,3
1,60,0,1
1,60,125,53
1,64,127,0
1,55,115,0
1,36,123,0
1,55,0,18
1,60,0,5
1,64,0,1
1,36,0,18
1,38,127,6
1,57,115,0
1,62,123,0
1,66,124,0
1,66,0,24
1,57,0,1
1,62,0,1
1,38,0,2
1,66,124,116
1,62,125,0
1,57,120,0
1,38,117,0
1,57,0,141
1,66,0,2
1,62,0,2
1,38,0,0
1,64,117,47
1,36,117,0
1,60,125,0
1,55,115,0
1,62,101,0
1,62,0,14
1,55,0,5
1,64,0,1
1,60,0,3
1,36,0,13
1,57,115,12
1,38,117,0
1,62,120,0
1,66,124,0
1,66,0,20
1,62,0,2
1,57,0,2
1,38,0,4
1,66,127,116
1,62,125,0
1,57,123,0
1,38,120,0
1,57,0,134
1,38,0,7
1,66,0,1
1,62,0,1
1,64,127,49
1,48,125,0
1,60,123,0
1,67,123,0
1,60,0,24
1,67,0,12
1,64,0,0
1,48,0,5
1,50,127,7
1,69,109,0
1,66,118,0
1,62,115,0
1,62,0,42
1,66,0,1
1,69,0,4
1,50,0,12
1,62,115,85
1,66,127,0
1,69,120,0
1,50,127,0
1,62,0,149
1,69,0,3
1,66,0,2
1,50,0,4
1,67,127,34
1,60,127,0
1,48,125,0
1,64,127,0
1,60,0,328
1,67,0,0
1,64,0,3
1,48,0,8
1,43,123,45
1,67,117,0
1,62,125,0
1,59,125,0
1,59,0,154
1,67,0,6
1,62,0,11
1,43,0,15
1,48,123,6
1,64,127,0
1,67,115,0
1,60,120,0
1,60,0,147
1,67,0,7
1,64,0,0
1,48,0,23
1,69,117,15
1,66,127,0
1,62,117,0
1,50,125,0
1,50,0,1152
1,69,0,0
1,66,0,0
1,62,0,0
1,66,104,384
1,62,99,0
1,38,91,0
1,57,97,0
1,50,99,384
1,66,0,6
1,57,0,3
1,62,0,3
1,57,105,84
1,57,0,55
1,57,101,41
1,62,105,0
1,66,114,0
1,50,0,4
1,50,92,92
1,38,0,7
1,57,0,40
1,66,0,7
1,62,0,11
1,50,0,28
1,43,72,3
1,67,101,0
1,62,105,0
1,59,105,0
1,59,0,379
1,67,0,2
1,62,0,3
1,55,82,0
1,59,103,96
1,59,0,25
1,67,107,71
1,62,103,0
1,59,109,0
1,55,0,8
1,55,82,88
1,55,0,19
1,43,0,6
1,67,0,24
1,59,0,12
1,62,0,7
1,62,89,28
1,69,99,0
1,66,97,0
1,38,83,0
1,69,0,380
1,50,101,4
1,66,0,2
1,62,0,11
1,59,99,83
1,59,0,19
1,50,0,71
1,69,107,6
1,66,114,0
1,62,109,0
1,38,0,91
1,50,94,5
1,69,0,40
1,66,0,20
1,62,0,3
1,67,88,33
1,62,91,0
1,43,71,0
1,59,97,0
1,50,0,1
1,59,0,382
1,67,0,1
1,55,89,0
1,62,0,3
1,59,109,93
1,59,0,25
1,67,105,71
1,62,105,0
1,59,115,0
1,55,0,10
1,55,94,86
1,55,0,20
1,43,0,8
1,59,0,22
1,67,0,13
1,62,0,4
1,66,111,29
1,38,89,0
1,62,97,0
1,57,99,0
1,50,105,480
1,57,0,21
1,66,0,1
1,62,0,2
1,50,0,68
1,62,105,4
1,66,118,0
1,57,109,0
1,38,0,91
1,50,101,5
1,57,0,48
1,66,0,5
1,62,0,7
1,50,0,27
1,62,103,9
1,67,97,0
1,59,105,0
1,43,75,0
1,55,83,384
1,67,0,1
1,59,0,1
1,62,0,3
1,59,105,91
1,59,0,17
1,55,0,60
1,62,112,19
1,67,95,0
1,59,120,0
1,69,99,0
1,69,0,18
1,55,88,78
1,55,0,17
1,43,0,12
1,67,0,32
1,59,0,4
1,62,0,12
1,38,83,19
1,66,104,0
1,62,94,0
1,69,105,0
1,50,86,480
1,69,0,9
1,66,0,7
1,62,0,4
1,50,0,74
1,66,121,2
1,69,107,0
1,62,115,0
1,38,0,90
1,50,92,6
1,69,0,38
1,66,0,20
1,62,0,3
1,50,0,32
1,62,97,3
1,67,97,0
1,43,82,0
1,59,101,0
1,55,82,384
1,67,0,1
1,59,0,4
1,62,0,7
1,59,109,84
1,59,0,24
1,62,109,72
1,59,117,0
1,67,107,0
1,55,0,6
1,50,94,90
1,59,0,13
1,67,0,4
1,62,0,0
1,50,0,5
1,43,0,11
1,66,104,63
1,62,99,0
1,38,91,0
1,57,97,0
1,50,99,384
1,66,0,6
1,57,0,3
1,62,0,3
1,57,105,84
1,57,0,55
1,57,101,41
1,62,105,0
1,66,114,0
1,50,0,4
1,50,92,92
1,38,0,7
1,57,0,40
1,66,0,7
1,62,0,11
1,50,0,28
