track,note,velocity,time
3,37,36,0
3,37,0,96
3,37,31,96
3,37,0,88
3,37,34,104
3,37,0,85
3,37,36,107
3,37,0,119
3,37,32,73
3,37,0,105
3,37,35,87
3,37,0,105
3,37,29,87
3,37,0,105
3,36,113,27
3,38,122,60
3,36,0,1
3,38,118,5
3,38,0,2
3,38,0,43
3,36,98,141
3,49,91,0
3,36,0,28
3,49,0,33
3,38,112,131
3,42,88,0
3,38,0,36
3,42,0,9
3,36,98,147
3,42,92,0
3,36,0,28
3,42,0,17
3,36,101,87
3,36,0,28
3,42,86,32
3,38,122,0
3,38,0,32
3,42,0,13
3,42,83,147
3,36,89,0
3,42,0,45
3,36,0,6
3,36,96,81
3,36,0,28
3,38,123,32
3,42,87,0
3,42,0,45
3,38,0,1
3,36,84,146
3,42,84,0
3,42,0,45
3,36,0,3
3,36,98,84
3,36,0,39
3,38,112,21
3,42,107,0
3,38,0,42
3,42,0,1
3,42,83,149
3,36,98,0
3,36,0,39
3,42,0,7
3,36,98,86
3,36,0,39
3,42,94,21
3,38,117,0
3,38,0,38
3,42,0,11
3,42,107,143
3,36,107,0
3,36,0,40
3,42,0,8
3,38,91,24
3,38,0,39
3,38,102,21
3,38,0,42
3,38,117,18
3,38,0,42
3,127,77,6
3,127,0,45
3,49,107,3
3,35,107,0
3,35,0,40
3,36,77,152
3,49,0,39
3,36,0,1
3,38,117,248
3,38,0,38
3,38,97,26
3,38,0,35
3,38,107,29
3,38,0,30
3,38,117,34
3,38,0,29
3,38,127,35
3,38,0,29
3,38,127,35
3,38,0,29
3,49,117,35
3,36,107,0
3,36,0,29
3,49,0,44
3,42,82,119
3,38,127,0
3,38,0,32
3,42,0,13
3,36,97,147
3,42,93,0
3,36,0,26
3,42,0,19
3,36,87,87
3,36,0,27
3,38,117,33
3,42,87,0
3,38,0,37
3,42,0,8
3,36,97,147
3,42,107,0
3,42,0,44
3,36,0,2
3,36,92,86
3,36,0,28
3,38,127,32
3,42,117,0
3,42,0,44
3,38,0,9
3,36,94,139
3,42,107,0
3,36,0,48
3,42,0,0
3,36,102,84
3,36,0,39
3,42,110,21
3,38,127,0
3,42,0,43
3,38,0,1
3,42,107,148
3,36,98,0
3,36,0,39
3,42,0,12
3,36,98,81
3,36,0,39
3,38,127,21
3,42,107,0
3,38,0,40
3,42,0,4
3,42,107,148
3,36,117,0
3,36,0,34
3,42,0,8
3,36,117,90
3,36,0,33
3,38,127,27
3,38,0,40
3,57,82,56
3,35,82,12
3,57,0,72
3,35,0,12
3,49,57,96
3,36,82,0
3,49,0,81
3,36,0,3
3,38,107,197
3,38,0,2
3,38,117,5
3,38,117,5
3,38,0,1
3,38,0,5
3,36,102,121
3,36,0,43
3,38,127,17
3,38,0,4
3,38,127,0
3,38,0,40
3,49,81,148
3,36,92,0
3,36,0,28
3,49,0,33
3,38,102,131
3,42,88,0
3,38,0,36
3,42,0,9
3,36,104,147
3,42,94,0
3,36,0,28
3,42,0,17
3,36,98,87
3,36,0,28
3,42,83,32
3,38,106,0
3,38,0,39
3,42,0,6
3,42,87,147
3,36,80,0
3,42,0,45
3,36,0,6
3,36,92,77
3,36,0,28
3,38,92,36
3,42,89,0
3,42,0,45
3,38,0,12
3,36,82,135
3,42,94,0
3,42,0,45
3,36,0,3
3,36,97,80
3,36,0,39
3,42,113,25
3,38,103,0
3,38,0,42
3,42,0,1
3,36,96,149
3,42,83,0
3,36,0,28
3,42,0,33
3,38,110,131
3,42,90,0
3,38,0,36
3,42,0,9
3,36,103,147
3,42,80,0
3,36,0,28
3,42,0,17
3,36,99,83
3,36,0,28
3,38,108,36
3,42,82,0
3,38,0,39
3,42,0,6
3,36,89,147
3,42,91,0
3,42,0,45
3,36,0,6
3,36,100,77
3,36,0,28
3,38,102,36
3,42,90,0
3,42,0,45
3,38,0,12
3,36,88,135
3,42,91,0
3,42,0,45
3,36,0,3
3,36,103,80
3,36,0,39
3,38,102,25
3,42,110,0
3,38,0,42
3,42,0,1
3,42,81,149
3,36,99,0
3,36,0,28
3,42,0,33
3,38,114,131
3,42,86,0
3,38,0,36
3,42,0,9
3,42,80,147
3,36,99,0
3,36,0,28
3,42,0,17
3,36,91,83
3,36,0,28
3,42,93,36
3,38,103,0
3,38,0,39
3,42,0,6
3,36,80,147
3,42,87,0
3,42,0,45
3,36,0,6
3,36,90,77
3,36,0,28
3,42,90,36
3,38,101,0
3,42,0,45
3,38,0,12
3,42,87,135
3,36,87,0
3,42,0,45
3,36,0,3
3,36,91,80
3,36,0,39
3,38,114,25
3,42,113,0
3,38,0,42
3,42,0,1
3,36,96,149
3,42,91,0
3,36,0,28
3,42,0,33
3,38,114,131
3,42,81,0
3,38,0,36
3,42,0,9
3,36,103,147
3,42,84,0
3,36,0,28
3,42,0,17
3,36,97,87
3,36,0,28
3,42,85,32
3,38,102,0
3,38,0,39
3,42,0,6
3,36,92,147
3,42,80,0
3,42,0,45
3,36,0,6
3,36,90,81
3,36,0,28
3,42,81,32
3,38,100,0
3,42,0,45
3,38,0,12
3,36,81,135
3,42,80,0
3,42,0,45
3,36,0,3
3,36,93,84
3,36,0,39
3,38,114,21
3,42,100,0
3,38,0,42
3,42,0,1
3,36,104,149
3,42,94,0
3,36,0,28
3,42,0,33
3,36,100,71
3,36,0,28
3,49,94,32
3,38,107,0
3,38,0,36
3,49,0,25
3,36,97,131
3,42,94,0
3,36,0,28
3,42,0,33
3,36,100,67
3,36,0,28
3,49,80,36
3,38,106,0
3,38,0,39
3,49,0,22
3,42,94,131
3,36,81,0
3,36,0,51
3,42,0,10
3,36,101,67
3,36,0,28
3,38,97,36
3,49,82,0
3,38,0,57
3,49,0,4
3,42,94,131
3,36,94,0
3,36,0,48
3,42,0,13
3,36,97,67
3,36,0,39
3,49,89,25
3,38,114,0
3,38,0,42
3,49,0,19
3,36,97,131
3,42,94,0
3,36,0,39
3,42,0,22
3,36,91,67
3,36,0,39
3,42,94,25
3,38,104,0
3,38,0,39
3,42,0,22
3,42,94,131
3,36,97,0
3,36,0,39
3,42,0,22
3,36,100,67
3,36,0,39
3,42,94,25
3,38,106,0
3,38,0,37
3,42,0,24
3,35,77,131
3,57,109,0
3,35,0,48
3,57,0,13
3,38,115,323
3,38,0,6
3,38,102,0
3,38,90,6
3,38,0,33
3,38,0,6
3,36,80,77
3,36,0,54
3,38,102,10
3,38,0,5
3,38,92,1
3,38,96,6
3,38,0,33
3,38,0,6
3,36,94,141
3,57,103,0
3,36,0,57
3,57,0,62
3,42,108,73
3,38,110,0
3,38,0,37
3,42,0,1
3,36,101,154
3,42,103,0
3,42,0,31
3,36,0,39
3,36,106,58
3,36,0,41
3,38,105,23
3,42,112,0
3,42,0,32
3,38,0,1
3,42,113,159
3,36,103,0
3,42,0,36
3,36,0,21
3,36,100,71
3,36,0,46
3,38,118,18
3,42,111,0
3,38,0,37
3,42,0,1
3,36,106,154
3,42,108,0
3,42,0,31
3,36,0,39
3,36,105,58
3,36,0,41
3,38,110,23
3,42,107,0
3,42,0,32
3,38,0,1
3,42,120,159
3,36,92,0
3,42,0,36
3,36,0,21
3,36,100,71
3,36,0,46
3,42,114,18
3,38,120,0
3,38,0,37
3,42,0,1
3,36,107,154
3,42,113,0
3,42,0,31
3,36,0,39
3,36,105,58
3,36,0,41
3,42,103,23
3,38,108,0
3,42,0,32
3,38,0,1
3,36,95,159
3,42,123,0
3,42,0,36
3,36,0,21
3,36,101,71
3,36,0,46
3,38,121,18
3,42,111,0
3,38,0,37
3,42,0,1
3,36,109,154
3,42,111,0
3,42,0,31
3,36,0,39
3,36,107,58
3,36,0,41
3,42,110,23
3,38,104,0
3,42,0,32
3,38,0,1
3,42,110,159
3,36,93,0
3,42,0,36
3,36,0,21
3,36,95,71
3,36,0,46
3,38,121,18
3,42,109,0
3,38,0,37
3,42,0,1
3,36,100,154
3,42,100,0
3,42,0,31
3,36,0,39
3,36,114,58
3,36,0,41
3,42,106,23
3,38,103,0
3,42,0,32
3,38,0,1
3,36,104,159
3,42,110,0
3,42,0,36
3,36,0,21
3,36,104,61
3,36,0,46
3,42,107,28
3,38,119,0
3,38,0,37
3,42,0,1
3,42,113,154
3,36,113,0
3,42,0,31
3,36,0,39
3,36,111,58
3,36,0,41
3,42,105,23
3,38,113,0
3,42,0,32
3,38,0,1
3,57,117,159
3,36,92,0
3,57,0,36
3,36,0,21
3,38,103,135
3,38,0,4
3,38,108,1
3,38,0,44
3,49,87,79
3,36,113,0
3,49,0,60
3,36,0,10
3,49,71,122
3,36,113,0
3,49,0,52
3,36,0,18
3,38,93,114
3,38,0,26
3,38,87,10
3,38,0,25
3,36,102,11
3,57,102,0
3,36,0,38
3,57,0,0
3,38,103,154
3,38,0,1
3,38,112,5
3,38,0,27
3,38,120,159
3,38,0,3
3,38,111,3
3,38,0,27
3,36,109,95
3,36,0,31
3,38,127,33
3,38,127,6
3,38,0,7
3,38,0,17
3,36,98,162
3,49,91,0
3,36,0,28
3,49,0,33
3,38,112,131
3,42,88,0
3,38,0,36
3,42,0,9
3,36,98,147
3,42,92,0
3,36,0,28
3,42,0,17
3,36,101,83
3,36,0,28
3,42,86,36
3,38,100,0
3,38,0,39
3,42,0,6
3,42,83,147
3,36,89,0
3,42,0,45
3,36,0,6
3,36,96,77
3,36,0,28
3,38,106,36
3,42,87,0
3,42,0,45
3,38,0,12
3,36,84,135
3,42,84,0
3,42,0,45
3,36,0,3
3,36,98,80
3,36,0,39
3,38,112,25
3,42,107,0
3,38,0,42
3,42,0,1
3,42,83,149
3,36,98,0
3,36,0,39
3,42,0,7
3,38,71,18
3,38,0,51
3,38,87,13
3,38,0,36
3,38,111,28
3,38,0,42
3,45,79,22
3,45,0,46
3,45,97,18
3,45,0,44
3,45,107,20
3,45,0,33
3,41,79,31
3,41,0,44
3,41,87,20
3,41,0,45
3,41,103,19
3,41,0,38
3,57,67,58
3,57,0,67
3,49,80,125
3,49,0,84
3,36,117,332
3,36,0,29
3,38,97,35
3,38,117,3
3,38,0,2
3,38,127,1
3,38,0,27
3,38,0,0
3,49,81,159
3,36,92,0
3,36,0,28
3,49,0,33
3,38,102,131
3,42,88,0
3,38,0,36
3,42,0,9
3,36,104,147
3,42,94,0
3,36,0,28
3,42,0,17
3,36,98,83
3,36,0,28
3,42,83,36
3,38,106,0
3,38,0,39
3,42,0,6
3,42,87,147
3,36,80,0
3,42,0,45
3,36,0,6
3,36,92,77
3,36,0,28
3,38,92,36
3,42,89,0
3,42,0,45
3,38,0,12
3,36,82,135
3,42,94,0
3,42,0,45
3,36,0,3
3,36,97,82
3,36,0,39
3,42,113,23
3,38,103,0
3,38,0,42
3,42,0,1
3,36,96,149
3,42,83,0
3,36,0,28
3,42,0,33
3,38,110,131
3,42,90,0
3,38,0,36
3,42,0,9
3,36,103,147
3,42,80,0
3,36,0,28
3,42,0,17
3,36,99,85
3,36,0,28
3,38,108,34
3,42,82,0
3,38,0,39
3,42,0,6
3,36,89,147
3,42,91,0
3,42,0,45
3,36,0,6
3,36,100,78
3,36,0,28
3,38,102,35
3,42,90,0
3,42,0,45
3,38,0,12
3,36,88,135
3,42,91,0
3,42,0,45
3,36,0,3
3,36,103,79
3,36,0,39
3,38,102,26
3,42,110,0
3,38,0,42
3,42,0,1
3,42,81,149
3,36,99,0
3,36,0,28
3,42,0,33
3,38,114,131
3,42,86,0
3,38,0,36
3,42,0,9
3,42,80,147
3,36,99,0
3,36,0,28
3,42,0,17
3,36,91,83
3,36,0,28
3,42,93,36
3,38,103,0
3,38,0,39
3,42,0,6
3,36,80,147
3,42,87,0
3,42,0,45
3,36,0,6
3,36,90,81
3,36,0,28
3,42,90,32
3,38,101,0
3,42,0,45
3,38,0,12
3,42,87,135
3,36,87,0
3,42,0,45
3,36,0,3
3,36,91,80
3,36,0,39
3,38,114,25
3,42,113,0
3,38,0,42
3,42,0,1
3,36,96,149
3,42,91,0
3,36,0,28
3,42,0,33
3,42,81,131
3,38,114,0
3,38,0,36
3,42,0,9
3,36,103,147
3,42,84,0
3,36,0,28
3,42,0,17
3,36,97,83
3,36,0,28
3,42,85,36
3,38,102,0
3,38,0,39
3,42,0,6
3,36,92,147
3,42,80,0
3,42,0,45
3,36,0,6
3,36,90,77
3,36,0,28
3,42,81,36
3,38,100,0
3,42,0,45
3,38,0,12
3,36,81,135
3,42,80,0
3,42,0,45
3,36,0,3
3,36,93,80
3,36,0,39
3,38,114,25
3,42,100,0
3,38,0,42
3,42,0,1
3,36,104,149
3,42,94,0
3,36,0,28
3,42,0,33
3,49,94,131
3,38,107,0
3,38,0,36
3,49,0,25
3,36,97,131
3,42,94,0
3,36,0,28
3,42,0,33
3,36,100,67
3,36,0,28
3,49,80,36
3,38,106,0
3,38,0,39
3,49,0,22
3,42,94,131
3,36,81,0
3,36,0,51
3,42,0,10
3,36,101,71
3,36,0,28
3,38,97,32
3,49,82,0
3,38,0,57
3,49,0,4
3,42,94,131
3,36,94,0
3,36,0,48
3,42,0,13
3,36,97,67
3,36,0,39
3,49,89,25
3,38,114,0
3,38,0,42
3,49,0,19
3,42,94,131
3,36,97,0
3,36,0,39
3,42,0,22
3,36,91,71
3,36,0,39
3,42,94,21
3,38,104,0
3,38,0,39
3,42,0,22
3,36,97,131
3,42,94,0
3,36,0,39
3,42,0,22
3,36,100,67
3,36,0,39
3,42,94,25
3,38,106,0
3,38,0,37
3,42,0,24
3,57,109,131
3,57,0,61
3,38,115,323
3,38,0,6
3,38,90,0
3,38,102,6
3,38,0,33
3,38,0,6
3,36,80,77
3,36,0,54
3,38,88,7
3,38,95,3
3,38,96,2
3,38,0,3
3,38,0,31
3,38,0,5
3,36,94,151
3,57,103,0
3,36,0,57
3,57,0,62
3,36,102,11
3,36,0,46
3,42,108,16
3,38,110,0
3,38,0,37
3,42,0,1
3,36,101,154
3,42,103,0
3,42,0,31
3,36,0,39
3,36,106,62
3,36,0,41
3,38,105,19
3,42,112,0
3,42,0,32
3,38,0,1
3,42,113,159
3,36,103,0
3,42,0,36
3,36,0,21
3,36,100,75
3,36,0,46
3,38,118,14
3,42,111,0
3,38,0,37
3,42,0,1
3,36,106,154
3,42,108,0
3,42,0,31
3,36,0,39
3,36,105,62
3,36,0,41
3,38,110,19
3,42,107,0
3,42,0,32
3,38,0,1
3,46,103,99
3,44,120,60
3,36,92,0
3,46,0,2
3,44,0,34
3,36,0,21
3,36,100,75
3,36,0,46
3,57,114,14
3,38,120,0
3,38,0,37
3,57,0,1
3,36,107,154
3,42,113,0
3,42,0,31
3,36,0,39
3,36,105,62
3,36,0,41
3,42,103,19
3,38,108,0
3,42,0,32
3,38,0,1
3,36,95,159
3,42,123,0
3,42,0,36
3,36,0,21
3,36,101,75
3,36,0,46
3,38,121,14
3,42,111,0
3,38,0,37
3,42,0,1
3,36,109,154
3,42,111,0
3,42,0,31
3,36,0,39
3,36,107,62
3,36,0,41
3,42,110,19
3,38,104,0
3,42,0,32
3,38,0,1
3,46,109,99
3,44,110,60
3,36,93,0
3,46,0,10
3,44,0,26
3,36,0,21
3,36,95,75
3,36,0,46
3,38,121,14
3,57,109,0
3,38,0,37
3,57,0,1
3,36,100,154
3,42,100,0
3,42,0,31
3,36,0,39
3,36,114,62
3,36,0,41
3,42,106,19
3,38,103,0
3,42,0,32
3,38,0,1
3,42,110,159
3,36,104,0
3,42,0,36
3,36,0,21
3,36,104,75
3,36,0,46
3,42,107,14
3,38,119,0
3,38,0,37
3,42,0,1
3,42,113,154
3,36,113,0
3,42,0,31
3,36,0,39
3,36,111,62
3,36,0,41
3,42,105,19
3,38,113,0
3,42,0,32
3,38,0,1
3,57,117,159
3,36,92,0
3,57,0,36
3,36,0,21
3,38,90,135
3,38,111,3
3,38,124,3
3,38,0,6
3,38,0,34
3,38,0,0
3,49,87,86
3,36,113,0
3,49,0,60
3,36,0,10
3,49,71,122
3,36,113,0
3,49,0,52
3,36,0,18
