track,note,velocity,time
1,46,110,1536
1,45,85,76
1,44,79,68
1,43,91,28
1,38,86,1408
1,31,91,120
1,38,95,60
1,39,91,100
1,34,97,8
1,39,86,12
1,38,85,8
1,38,85,88
1,38,85,96
1,36,92,44
1,41,97,136
1,41,85,4
1,41,85,60
1,43,85,176
1,46,86,132
1,41,85,0
1,34,76,384
1,33,85,68
1,45,85,0
1,44,91,32
1,32,74,16
1,31,85,52
1,38,85,4
1,34,91,20
1,31,108,76
1,27,82,764
1,27,72,76
1,27,69,40
1,27,76,104
1,27,70,36
1,26,85,20
1,27,74,24
1,28,85,128
1,40,85,32
1,43,85,40
1,46,84,88
1,49,93,48
1,33,86,60
1,37,88,40
1,38,93,28
1,38,81,52
1,38,85,80
1,41,114,56
1,43,93,84
1,45,85,200
1,44,78,100
1,43,85,144
1,38,85,1280
1,39,77,20
1,39,70,104
1,38,85,512
1,37,81,100
1,36,85,120
1,41,85,112
1,39,95,72
1,44,93,384
1,42,95,24
1,41,85,32
1,41,97,44
1,39,81,192
1,39,93,76
1,46,97,300
1,41,89,768
1,48,86,40
1,45,85,36
1,41,85,44
1,45,85,4
1,44,91,0
1,43,85,96
1,38,85,24
1,31,85,128
1,41,89,60
1,42,81,12
1,43,85,24
1,38,88,4
1,34,89,12
1,31,85,8
1,31,85,80
1,38,85,48
1,39,81,32
1,34,86,60
1,39,88,8
1,38,89,144
1,38,86,132
1,36,85,168
1,43,85,0
1,29,96,32
1,29,85,76
1,31,85,148
1,34,93,132
1,46,85,16
1,41,85,4
1,34,54,4
1,33,96,60
1,45,85,12
1,44,91,36
1,32,93,12
1,31,85,48
1,38,85,92
1,38,85,80
1,43,85,72
1,43,85,220
1,50,85,0
1,39,107,8
1,46,104,640
1,51,97,124
1,46,95,120
1,39,112,120
1,39,91,8
1,34,72,36
1,39,70,128
1,40,86,32
1,28,85,512
1,43,85,124
1,46,91,116
1,45,85,64
1,33,85,48
1,37,91,128
1,40,89,156
1,38,88,120
1,38,85,312
1,38,85,252
1,38,85,284
1,41,85,244
1,36,85,48
1,29,85,32
1,31,89,108
1,33,85,124
1,32,88,396
1,31,85,384
1,38,85,48
1,43,85,128
1,38,85,76
1,39,86,24
1,34,74,92
1,39,85,12
1,39,95,92
1,36,89,4
1,31,85,88
1,36,85,12
1,31,85,0
1,36,88,20
1,38,92,68
1,38,85,296
1,38,85,248
1,38,86,308
1,41,85,316
1,36,85,44
1,41,85,0
1,36,85,128
1,33,85,4
1,32,72,192
1,31,85,248
1,38,89,164
1,39,86,112
1,39,74,44
1,39,78,48
1,39,93,96
1,36,88,4
1,43,85,16
1,36,85,128
1,41,85,0
1,39,95,72
1,44,93,384
1,42,95,24
1,41,85,32
1,41,97,44
1,39,81,24
1,39,93,12
2,67,84,1536
2,70,89,176
2,72,92,760
2,69,95,172
2,65,86,168
2,60,91,348
2,58,104,4
2,65,85,1428
2,65,85,72
2,69,85,16
2,72,89,244
2,67,86,504
2,69,92,888
2,67,85,4
2,67,85,28
2,65,91,28
2,67,123,496
2,70,117,32
2,72,98,316
2,69,107,224
2,65,89,4
2,60,103,352
2,58,107,8
2,65,89,1296
2,65,91,68
2,69,98,12
2,72,97,244
2,67,107,12
2,65,93,348
2,65,85,64
2,69,107,32
2,65,85,0
2,69,93,164
2,67,93,116
2,77,114,444
2,76,123,236
2,69,114,0
2,77,123,544
2,76,120,188
2,74,111,180
2,72,98,196
2,69,123,176
2,67,106,0
2,65,114,16
2,74,106,144
2,72,120,224
2,69,103,8
2,67,103,0
2,65,114,136
2,72,114,776
2,69,114,12
2,65,106,0
2,60,107,404
2,58,107,24
2,62,96,32
2,65,98,72
2,67,107,16
2,67,114,56
2,67,59,28
2,67,111,556
2,69,85,520
2,67,85,276
2,65,85,132
2,67,123,3376
2,70,117,212
2,72,120,456
2,69,86,232
2,65,114,8
2,60,106,20
2,58,112,272
2,65,91,812
2,65,89,72
2,69,114,20
2,72,107,12
2,69,85,244
2,67,89,12
2,65,85,652
2,65,85,80
2,69,117,72
2,67,103,20
2,67,92,32
2,65,96,140
2,67,127,1328
2,70,127,20
2,72,127,708
2,69,93,300
2,65,106,164
2,60,111,344
2,58,122,252
2,65,95,1204
2,65,123,100
2,69,103,12
2,72,103,348
2,69,85,272
2,67,111,8
2,65,92,580
2,65,96,80
2,69,127,92
2,67,107,0
2,69,96,236
2,67,85,32
2,77,127,584
2,76,127,72
2,69,123,8
2,76,85,16
2,77,126,556
2,76,123,192
2,74,123,8
2,72,114,0
2,69,117,196
2,67,106,164
2,65,117,188
2,74,107,756
2,72,114,0
2,69,111,0
2,67,107,136
2,65,107,4
2,72,114,536
2,69,111,132
2,65,106,0
2,60,114,404
2,58,112,16
2,62,106,508
2,65,96,0
2,67,107,24
2,67,120,72
2,62,85,636
2,65,106,32
2,67,117,12
2,67,123,64
2,67,120,172
2,65,120,0
2,67,114,104
2,69,106,108
2,69,127,48
2,77,127,100
2,76,120,16
2,74,120,180
2,72,126,188
2,69,120,176
2,67,95,156
2,65,114,164
2,65,85,108
2,74,111,140
2,72,123,200
2,69,97,236
2,67,89,116
2,65,114,144
2,72,114,544
2,69,123,0
2,65,103,164
2,60,120,56
2,58,99,236
2,65,93,496
2,67,91,16
2,67,117,92
2,62,85,1328
2,65,85,12
2,67,117,76
2,67,114,44
2,65,85,28
2,67,101,28
2,65,101,32
3,62,85,35328
3,60,57,20
3,67,89,68
3,65,81,0
3,65,85,40
3,63,88,192
3,63,74,68
3,61,79,192
3,61,93,60
3,60,85,192
3,60,85,124
3,58,76,0
3,58,74,48
3,60,85,3988
3,58,74,4
3,58,84,100
3,60,85,3184
3,67,85,10700
3,69,85,756
3,70,79,364
3,69,85,376
3,60,85,13648
3,60,85,28
3,65,85,4596
3,64,85,0
3,65,85,36
3,67,103,72
3,65,98,192
3,65,98,72
3,63,91,16
3,63,91,52
3,61,95,192
3,61,95,60
3,60,85,16
3,60,88,76
3,58,93,192
3,58,91,60
4,34,90,0
4,46,86,0
4,46,89,0
4,50,106,0
4,50,106,0
4,53,106,0
4,53,106,0
4,58,112,0
4,58,112,0
4,46,73,48
4,50,106,128
4,53,107,0
4,58,118,0
4,46,71,76
4,45,106,20
4,53,106,0
4,57,106,0
4,60,106,0
4,45,106,52
4,53,106,28
4,57,106,0
4,60,106,0
4,44,80,64
4,53,106,0
4,56,95,0
4,60,106,0
4,44,89,84
4,53,106,80
4,56,88,0
4,60,106,0
4,50,106,28
4,55,106,0
4,58,67,0
4,62,106,512
4,70,93,128
4,69,106,92
4,50,106,124
4,60,106,48
4,69,105,128
4,55,76,0
4,67,106,0
4,58,76,0
4,62,106,260
4,67,106,0
4,58,68,384
4,55,106,128
4,51,93,412
4,55,106,128
4,58,98,256
4,61,114,0
4,67,106,0
4,51,95,132
4,55,106,124
4,58,91,24
4,62,107,0
4,65,106,0
4,50,106,384
4,53,106,128
4,58,85,148
4,62,106,0
4,65,106,0
4,50,106,184
4,48,106,72
4,53,106,0
4,57,106,0
4,60,106,0
4,65,106,0
4,48,106,112
4,53,106,128
4,41,106,128
4,60,97,324
4,65,106,0
4,67,106,0
4,69,106,0
4,60,54,44
4,65,61,0
4,67,106,0
4,60,106,84
4,65,107,0
4,48,106,0
4,53,106,0
4,48,106,96
4,41,106,0
4,57,106,0
4,60,106,0
4,65,106,0
4,53,106,140
4,57,106,124
4,60,106,0
4,65,106,0
4,48,112,128
4,34,90,0
4,46,86,0
4,46,89,0
4,50,106,0
4,50,106,0
4,53,106,0
4,53,106,0
4,58,112,0
4,58,112,0
4,46,73,48
4,50,106,128
4,53,107,0
4,58,118,0
4,46,71,76
4,45,106,20
4,53,106,0
4,57,106,0
4,60,106,0
4,45,106,52
4,53,106,28
4,57,106,0
4,60,106,0
4,44,80,64
4,53,106,0
4,56,95,0
4,60,106,0
4,44,89,84
4,53,106,80
4,56,88,0
4,60,106,0
4,50,106,28
4,55,106,0
4,58,67,0
4,62,106,512
4,70,93,128
4,69,106,92
4,50,106,124
4,60,106,48
4,69,105,128
4,55,76,0
4,67,106,0
4,58,76,0
4,62,106,260
4,67,106,0
4,58,68,384
4,55,106,128
4,51,93,412
4,55,106,128
4,58,98,256
4,61,114,0
4,67,106,0
4,51,95,132
4,55,106,124
4,51,93,408
4,55,106,128
4,58,98,256
4,61,114,0
4,67,106,0
4,51,95,132
4,55,106,124
4,52,106,24
4,58,87,0
4,62,106,0
4,55,67,512
4,52,110,240
4,52,106,76
4,57,106,0
4,61,93,384
4,57,106,72
4,50,106,56
4,57,110,0
4,62,106,0
4,50,116,152
4,50,106,8
4,53,106,128
4,58,95,0
4,62,106,0
4,50,106,116
4,50,106,36
4,48,106,56
4,53,106,0
4,60,106,512
4,67,106,128
4,67,107,68
4,69,106,72
4,67,106,0
4,65,107,8
4,60,106,32
4,65,106,128
4,57,106,56
4,60,106,0
4,65,106,0
4,69,105,0
4,57,106,112
4,60,106,8
4,65,106,0
4,69,106,0
4,56,100,12
4,56,97,36
4,60,106,128
4,65,106,0
4,68,87,0
4,50,106,16
4,55,106,0
4,50,106,112
4,62,89,128
4,70,89,128
4,69,106,128
4,50,106,96
4,60,106,40
4,67,106,128
4,51,92,8
4,55,106,0
4,58,88,0
4,61,105,0
4,48,106,72
4,55,106,0
4,60,106,0
4,65,106,0
4,48,106,88
4,55,106,56
4,60,106,0
4,65,106,0
4,55,106,52
4,60,106,0
4,64,106,0
4,48,86,120
4,53,106,0
4,57,106,0
4,60,106,0
4,65,106,0
4,48,106,4
4,53,106,128
4,57,106,108
4,43,107,0
4,46,116,0
4,51,112,0
4,44,107,172
4,48,110,0
4,51,125,0
4,42,106,172
4,46,110,0
4,49,125,0
4,41,106,164
4,44,106,0
4,48,107,0
4,41,106,128
4,44,109,0
4,48,107,0
4,39,109,208
4,43,114,0
4,46,127,0
4,34,90,0
4,46,86,0
4,46,89,0
4,50,106,0
4,50,106,0
4,53,106,0
4,53,106,0
4,58,112,0
4,58,112,0
4,46,73,48
4,50,106,128
4,53,107,0
4,58,118,0
4,46,71,76
4,45,106,20
4,53,106,0
4,57,106,0
4,60,106,0
4,45,106,52
4,53,106,28
4,57,106,0
4,60,106,0
4,44,80,64
4,53,106,0
4,56,95,0
4,60,106,0
4,44,89,84
4,53,106,80
4,56,88,0
4,60,106,0
4,50,106,28
4,55,106,0
4,58,67,0
4,62,106,512
4,70,93,128
4,69,106,92
4,50,106,124
4,60,106,48
4,69,105,128
4,55,76,0
4,67,106,0
4,58,76,0
4,62,106,260
4,67,106,0
4,58,68,384
4,55,106,128
4,51,93,412
4,55,106,128
4,58,98,256
4,61,114,0
4,67,106,0
4,51,95,132
4,55,106,124
4,58,91,24
4,62,107,0
4,65,106,0
4,50,106,384
4,53,106,128
4,58,85,148
4,62,106,0
4,65,106,0
4,50,106,184
4,48,106,72
4,53,106,0
4,57,106,0
4,60,106,0
4,65,106,0
4,48,106,112
4,53,106,128
4,41,106,128
4,60,97,324
4,65,106,0
4,67,106,0
4,69,106,0
4,60,54,44
4,65,61,0
4,67,106,0
4,60,106,84
4,65,107,0
4,48,106,0
4,53,106,0
4,48,106,96
4,41,106,0
4,57,106,0
4,60,106,0
4,65,106,0
4,53,106,140
4,57,106,124
4,60,106,0
4,65,106,0
4,48,112,128
4,34,90,0
4,46,86,0
4,46,89,0
4,50,106,0
4,50,106,0
4,53,106,0
4,53,106,0
4,58,112,0
4,58,112,0
4,46,73,48
4,50,106,128
4,53,107,0
4,58,118,0
4,46,71,76
4,45,106,20
4,53,106,0
4,57,106,0
4,60,106,0
4,45,106,52
4,53,106,28
4,57,106,0
4,60,106,0
4,44,80,64
4,53,106,0
4,56,95,0
4,60,106,0
4,44,89,84
4,53,106,80
4,56,88,0
4,60,106,0
4,50,106,28
4,55,106,0
4,58,67,0
4,62,106,512
4,70,93,128
4,69,106,92
4,50,106,124
4,60,106,48
4,69,105,128
4,55,76,0
4,67,106,0
4,58,76,0
4,62,106,260
4,67,106,0
4,58,68,384
4,55,106,128
4,51,93,412
4,55,106,128
4,58,98,256
4,61,114,0
4,67,106,0
4,51,95,132
4,55,106,124
4,51,93,408
4,55,106,128
4,58,98,256
4,61,114,0
4,67,106,0
4,51,95,132
4,55,106,124
4,52,106,24
4,58,87,0
4,62,106,0
4,55,67,512
4,52,110,240
4,52,106,76
4,57,106,0
4,61,93,384
4,57,106,72
4,50,106,56
4,57,110,0
4,62,106,0
4,50,116,152
4,50,106,8
4,53,106,128
4,58,95,0
4,62,106,0
4,50,106,116
4,50,106,36
4,48,106,56
4,53,106,0
4,60,106,512
4,67,106,128
4,67,107,68
4,69,106,72
4,67,106,0
4,65,107,8
4,60,106,32
4,65,106,128
4,57,106,56
4,60,106,0
4,65,106,0
4,69,105,0
4,57,106,112
4,60,106,8
4,65,106,0
4,69,106,0
4,56,100,12
4,56,97,36
4,60,106,128
4,65,106,0
4,68,87,0
4,50,106,16
4,55,106,0
4,50,106,112
4,62,89,128
4,70,89,128
4,69,106,128
4,50,106,96
4,60,106,40
4,67,106,128
4,51,92,8
4,55,106,0
4,58,88,0
4,61,105,0
4,48,106,72
4,55,106,0
4,60,106,0
4,65,106,0
4,48,106,88
4,55,106,56
4,60,106,0
4,65,106,0
4,55,106,52
4,60,106,0
4,64,106,0
4,50,106,120
4,57,110,0
4,62,106,0
4,50,116,152
4,50,106,8
4,53,106,128
4,58,95,0
4,62,106,0
4,50,106,116
4,50,106,36
4,48,106,56
4,53,106,0
4,60,106,512
4,67,106,128
4,67,107,68
4,69,106,72
4,67,106,0
4,65,107,8
4,60,106,32
4,65,106,128
4,57,106,56
4,60,106,0
4,65,106,0
4,69,105,0
4,57,106,112
4,60,106,8
4,65,106,0
4,69,106,0
4,56,100,12
4,56,97,36
4,60,106,128
4,65,106,0
4,68,87,0
4,50,106,16
4,55,106,0
4,50,106,112
4,62,89,128
4,70,89,128
4,69,106,128
4,50,106,96
4,60,106,40
4,67,106,128
4,51,92,8
4,55,106,0
4,58,88,0
4,61,105,0
4,48,106,72
4,55,106,0
4,60,106,0
4,65,106,0
4,48,106,88
4,55,106,56
4,60,106,0
4,65,106,0
4,55,106,52
4,60,106,0
4,64,106,0
4,48,86,120
4,53,106,0
4,57,106,0
4,60,106,0
4,65,106,0
4,48,106,4
4,53,106,128
4,57,106,108
4,43,107,0
4,46,116,0
4,51,112,0
4,44,107,172
4,48,110,0
4,51,125,0
4,42,106,172
4,46,110,0
4,49,125,0
4,41,106,164
4,44,106,0
4,48,107,0
4,41,106,128
4,44,109,0
4,48,107,0
4,39,109,208
4,43,114,0
4,46,127,0
5,55,86,7680
5,61,82,0
5,63,88,0
5,69,91,0
5,58,88,92
5,62,85,0
5,65,85,0
5,70,88,0
5,60,85,40
5,65,85,0
5,69,85,0
5,72,85,0
5,77,86,60
5,79,85,20
5,81,85,24
5,62,52,8
5,65,74,0
5,70,39,384
5,69,68,128
5,68,55,704
5,67,85,996
5,70,72,0
5,74,85,0
5,77,85,0
5,55,85,324
5,61,65,0
5,63,72,0
5,69,85,0
5,67,85,28
5,55,85,36
5,61,65,0
5,63,72,0
5,69,85,0
5,61,62,72
5,63,62,0
5,67,85,0
5,70,86,100
5,74,85,0
5,79,85,0
5,61,49,36
5,67,76,0
5,69,77,0
5,76,67,0
5,61,104,196
5,64,101,0
5,67,117,0
5,71,107,0
5,69,96,52
5,74,114,0
5,77,92,384
5,76,85,112
5,74,89,172
5,72,85,148
5,69,91,180
5,67,103,0
5,65,101,8
5,74,91,768
5,69,97,312
5,67,88,248
5,65,101,28
5,51,52,3880
5,57,85,0
5,61,55,0
5,87,82,768
5,82,52,384
5,53,85,1516
5,60,55,0
5,65,82,0
5,55,86,9268
5,61,82,0
5,63,88,0
5,69,91,0
5,58,88,92
5,62,85,0
5,65,85,0
5,70,88,0
5,60,85,40
5,65,85,0
5,69,85,0
5,72,85,0
5,77,86,60
5,79,85,20
5,81,85,24
5,62,52,8
