track,note,velocity,time
3,64,88,60
3,69,88,0
3,73,88,0
3,73,0,59
3,69,0,0
3,64,0,0
3,66,77,1
3,69,64,0
3,74,77,0
3,74,0,59
3,69,0,0
3,66,0,0
3,64,64,1
3,69,55,0
3,73,64,0
3,73,0,119
3,69,0,0
3,64,0,0
3,59,88,241
3,64,88,0
3,68,88,0
3,68,0,59
3,64,0,0
3,59,0,0
3,61,77,1
3,64,64,0
3,69,77,0
3,69,0,59
3,64,0,0
3,61,0,0
3,59,64,1
3,64,55,0
3,68,64,0
3,68,0,119
3,64,0,0
3,59,0,0
3,57,88,241
3,62,88,0
3,66,88,0
3,66,0,29
3,62,0,0
3,57,0,0
3,59,77,1
3,62,77,0
3,67,77,0
3,67,0,89
3,62,0,0
3,59,0,0
3,57,88,1
3,62,88,0
3,66,88,0
3,66,0,60
3,62,0,29
3,57,0,0
3,55,88,31
3,64,88,0
3,67,88,0
3,67,0,90
3,64,0,0
3,55,0,29
3,54,88,1
3,57,88,0
3,62,88,1
3,57,0,450
3,54,0,0
3,62,0,14
3,64,88,135
3,69,88,0
3,73,88,0
3,73,0,59
3,69,0,0
3,64,0,0
3,66,77,1
3,69,64,0
3,74,77,0
3,74,0,59
3,69,0,0
3,66,0,0
3,64,64,1
3,69,55,0
3,73,64,0
3,73,0,119
3,69,0,0
3,64,0,0
3,59,88,241
3,64,88,0
3,68,88,0
3,68,0,59
3,64,0,0
3,59,0,0
3,61,77,1
3,64,64,0
3,69,77,0
3,69,0,59
3,64,0,0
3,61,0,0
3,59,64,1
3,64,55,0
3,68,64,0
3,68,0,119
3,64,0,0
3,59,0,0
3,57,88,241
3,62,88,0
3,66,88,0
3,66,0,29
3,62,0,0
3,57,0,0
3,59,77,1
3,62,77,0
3,67,77,0
3,67,0,89
3,62,0,0
3,59,0,0
3,57,88,1
3,62,88,0
3,66,88,0
3,66,0,60
3,62,0,29
3,57,0,0
3,55,88,31
3,64,88,0
3,67,88,0
3,67,0,90
3,64,0,0
3,55,0,29
3,54,88,1
3,57,88,0
3,62,88,1
3,57,0,450
3,54,0,0
3,62,0,14
3,57,75,1815
3,57,0,59
3,57,75,1
3,57,0,240
3,57,75,1440
3,57,0,60
3,57,75,0
3,57,0,240
3,57,75,1440
3,57,0,60
3,57,75,0
3,57,0,240
3,81,75,5280
3,81,0,60
3,81,75,0
3,81,0,240
3,69,75,1440
3,69,0,60
3,69,75,0
3,68,44,60
3,67,33,30
3,68,0,30
3,66,22,0
3,67,0,30
3,65,11,0
3,65,0,60
3,66,0,0
3,69,0,30
3,57,75,1440
3,57,0,60
3,57,75,0
3,57,0,240
3,43,70,960
3,43,0,40
3,43,80,0
3,43,0,457
3,40,70,11
3,40,0,487
3,57,75,10800
3,57,0,60
3,57,75,0
3,57,0,240
3,57,75,1440
3,57,0,60
3,57,75,0
3,57,0,240
3,57,75,1440
3,57,0,60
3,57,75,0
3,57,0,240
3,43,70,960
3,43,0,40
3,43,80,0
3,43,0,450
3,40,70,16
3,40,0,487
3,83,101,9000
3,83,0,119
3,83,101,1
3,83,0,239
3,83,101,1
3,83,0,239
3,83,101,1
3,83,0,59
3,81,101,1
3,81,0,59
3,78,101,1
3,78,0,59
3,81,101,1
3,81,0,59
3,78,101,1
3,78,0,59
3,76,101,1
3,76,0,59
3,78,101,1
3,78,0,59
3,76,101,1
3,76,0,59
3,78,101,1
3,78,0,59
3,71,101,1
3,71,0,29
3,71,101,1
3,71,0,149
3,71,101,1
3,71,0,119
3,69,101,1
3,69,0,59
3,71,101,1
3,71,0,269
3,63,76,1
3,70,88,0
3,70,0,9
3,62,62,1
3,69,76,0
3,69,0,9
3,62,0,0
3,61,51,0
3,68,68,0
3,68,0,10
3,61,0,1
3,60,36,0
3,67,52,0
3,63,0,10
3,60,0,9
3,67,0,2
3,57,109,39
3,57,0,179
3,57,109,1
3,57,0,119
3,54,109,1
3,54,0,119
3,54,109,1
3,54,0,59
3,54,109,1
3,54,0,59
3,57,109,1
3,57,0,59
3,54,109,1
3,54,0,59
3,57,109,1
3,57,0,59
3,54,109,1
3,54,0,59
3,57,109,1
3,57,0,119
3,57,109,1
3,57,0,59
3,59,109,1
3,59,0,119
3,60,109,1
3,60,0,119
3,59,109,1
3,59,0,59
3,57,109,1
3,57,0,3
3,57,109,1
3,57,0,59
3,57,109,1
3,57,0,119
3,54,109,1
3,54,0,59
3,54,109,1
3,54,0,359
3,57,109,1
3,57,0,179
3,54,109,1
3,54,0,119
3,54,109,1
3,54,0,119
3,54,109,1
3,54,0,59
3,57,109,1
3,57,0,179
3,54,109,1
3,54,0,119
3,54,109,1
3,54,0,119
3,57,109,1
3,57,0,59
3,54,109,1
3,54,0,59
3,59,109,1
3,59,0,119
3,60,109,1
3,60,0,119
3,59,109,1
3,59,0,119
3,57,109,1
3,57,0,35
3,59,109,1
3,59,0,59
3,57,109,1
3,57,0,409
3,62,80,0
3,62,0,10
3,64,82,1
3,64,0,19
3,65,84,0
3,65,0,10
3,67,87,1
3,67,0,19
3,69,91,0
3,69,0,10
3,71,93,1
3,71,0,19
3,72,94,0
3,72,0,10
3,74,96,1
3,74,0,19
3,76,102,0
3,76,0,10
3,78,116,1
3,78,0,239
3,78,109,1
3,78,0,239
3,78,109,1
3,78,0,239
3,78,108,1
3,78,0,179
3,72,88,1
3,72,0,19
3,73,109,0
3,73,0,10
3,74,109,1
3,74,0,21
3,75,109,0
3,75,0,8
3,76,109,1
3,76,0,149
3,74,109,1
3,74,0,19
3,75,109,0
3,75,0,10
3,76,109,1
3,76,0,49
3,77,109,0
3,77,0,10
3,78,109,1
3,80,109,240
3,78,0,67
3,81,85,413
3,80,0,69
3,81,0,367
3,57,75,10433
3,57,0,60
3,57,75,0
3,57,0,240
3,57,75,1440
3,57,0,60
3,57,75,0
3,57,0,240
3,57,75,1440
3,57,0,60
3,57,75,0
3,57,0,240
3,43,70,960
3,43,0,40
3,43,80,0
3,43,0,450
3,40,70,16
3,40,0,487
4,33,111,2640
4,33,0,119
4,40,111,361
4,40,0,119
4,43,111,121
4,43,0,119
4,42,111,1
4,42,0,119
4,40,111,1
4,40,0,119
4,38,111,1
4,38,0,239
4,28,100,1
4,28,0,59
4,33,69,1
4,33,0,479
4,28,69,1
4,28,0,119
4,28,69,1
4,28,0,359
4,31,69,1
4,31,0,479
4,33,69,1
4,33,0,119
4,33,69,1
4,33,0,179
4,28,69,1
4,28,0,59
4,30,69,1
4,30,0,119
4,33,69,1
4,33,0,419
4,33,69,1
4,33,0,59
4,28,69,1
4,28,0,119
4,28,69,1
4,28,0,239
4,28,69,1
4,28,0,119
4,31,69,1
4,31,0,479
4,33,69,1
4,33,0,119
4,33,69,1
4,33,0,239
4,31,69,1
4,31,0,59
4,32,56,1
4,32,0,59
4,33,69,1
4,33,0,419
4,33,69,1
4,33,0,59
4,28,69,1
4,28,0,119
4,28,69,1
4,28,0,239
4,28,69,1
4,28,0,59
4,30,69,1
4,30,0,59
4,31,69,1
4,31,0,419
4,31,69,1
4,31,0,59
4,33,69,1
4,33,0,119
4,33,69,1
4,33,0,239
4,28,69,1
4,28,0,59
4,30,69,1
4,30,0,59
4,33,69,1
4,33,0,419
4,33,69,1
4,33,0,59
4,28,69,1
4,28,0,119
4,28,69,1
4,28,0,239
4,28,69,1
4,28,0,119
4,31,69,1
4,31,0,419
4,31,69,1
4,31,0,59
4,33,69,1
4,33,0,119
4,33,69,1
4,33,0,239
4,38,69,1
4,38,0,119
4,40,69,1
4,40,0,479
4,40,69,1
4,40,0,119
4,40,69,1
4,40,0,239
4,35,69,1
4,35,0,1
4,40,69,1
4,40,0,479
4,40,69,1
4,40,0,59
4,38,69,1
4,38,0,119
4,37,69,1
4,37,0,119
4,31,69,1
4,31,0,59
4,32,69,1
4,32,0,59
4,35,69,1
4,35,0,59
4,33,69,1
4,33,0,119
4,33,69,1
4,33,0,359
4,28,69,1
4,28,0,119
4,28,69,1
4,28,0,359
4,31,69,1
4,31,0,479
4,33,69,1
4,33,0,119
4,33,69,1
4,33,0,179
4,28,69,1
4,28,0,59
4,30,69,1
4,30,0,119
4,33,69,1
4,33,0,419
4,33,69,1
4,33,0,59
4,28,69,1
4,28,0,119
4,28,69,1
4,28,0,239
4,28,69,1
4,28,0,119
4,31,69,1
4,31,0,479
4,33,69,1
4,33,0,119
4,33,69,1
4,33,0,239
4,31,69,1
4,31,0,59
4,32,56,1
4,32,0,59
4,33,69,1
4,33,0,419
4,33,69,1
4,33,0,59
4,28,69,1
4,28,0,119
4,28,69,1
4,28,0,239
4,28,69,1
4,28,0,59
4,30,69,1
4,30,0,59
4,31,69,1
4,31,0,419
4,31,69,1
4,31,0,59
4,33,69,1
4,33,0,119
4,33,69,1
4,33,0,239
4,28,69,1
4,28,0,59
4,30,69,1
4,30,0,59
4,33,69,1
4,33,0,419
4,33,69,1
4,33,0,59
4,28,69,1
4,28,0,119
4,28,69,1
4,28,0,239
4,28,69,1
4,28,0,119
4,31,69,1
4,31,0,419
4,31,69,1
4,31,0,59
4,33,69,1
4,33,0,119
4,33,69,1
4,33,0,239
4,38,69,1
4,38,0,119
4,40,69,1
4,40,0,479
4,40,69,1
4,40,0,119
4,40,69,1
4,40,0,239
4,35,69,1
4,35,0,1
4,40,40,1
4,40,0,119
4,40,45,1
4,40,0,119
4,40,50,1
4,40,0,119
4,40,55,1
4,40,0,119
4,40,60,1
4,40,0,119
4,40,65,1
4,40,0,119
4,40,70,1
4,40,0,119
4,40,75,1
4,40,0,119
4,38,82,1
4,38,0,359
4,38,82,1
4,38,0,119
4,40,82,1
4,40,0,239
4,42,82,1
4,42,0,239
4,33,82,1
4,33,0,119
4,33,82,1
4,33,0,359
4,33,82,1
4,33,0,119
4,33,82,1
4,33,0,239
4,33,82,1
4,33,0,119
4,40,82,1
4,40,0,419
4,35,82,1
4,35,0,59
4,40,82,1
4,40,0,119
4,40,82,1
4,40,0,239
4,35,82,1
4,35,0,119
4,40,82,1
4,40,0,419
4,40,82,1
4,40,0,59
4,40,82,1
4,40,0,119
4,40,82,1
4,40,0,179
4,39,82,1
4,39,0,179
4,38,82,1
4,38,0,359
4,38,82,1
4,38,0,119
4,40,82,1
4,40,0,239
4,42,82,1
4,42,0,239
4,33,82,1
4,33,0,119
4,33,82,1
4,33,0,359
4,33,82,1
4,33,0,119
4,33,82,1
4,33,0,239
4,33,82,1
4,33,0,119
4,43,88,1
4,43,0,599
4,33,88,1
4,33,0,119
4,35,88,1
4,35,0,119
4,33,88,1
4,33,0,119
4,38,88,1
4,38,0,599
4,33,88,1
4,33,0,119
4,35,88,1
4,35,0,119
4,33,88,1
4,33,0,119
4,40,88,1
4,40,0,359
4,40,88,1
4,40,0,119
4,40,88,1
4,40,0,119
4,40,88,1
4,40,0,119
4,38,88,1
4,38,0,239
4,40,88,1
4,40,0,449
4,40,88,1
4,40,0,29
4,40,112,1
4,40,0,59
4,38,112,1
4,38,0,119
4,37,112,1
4,37,0,119
4,31,112,1
4,31,0,59
4,32,112,1
4,32,0,59
4,35,112,1
4,35,0,59
4,33,69,1
4,33,0,479
4,28,69,1
4,28,0,119
4,28,69,1
4,28,0,359
4,31,69,1
4,31,0,479
4,33,69,1
4,33,0,119
4,33,69,1
4,33,0,179
4,28,69,1
4,28,0,59
4,30,69,1
4,30,0,119
4,33,69,1
4,33,0,419
4,33,69,1
4,33,0,59
4,28,69,1
4,28,0,119
4,28,69,1
4,28,0,239
4,28,69,1
4,28,0,119
4,31,69,1
4,31,0,479
4,33,69,1
4,33,0,119
4,33,69,1
4,33,0,239
4,31,69,1
4,31,0,59
4,32,56,1
4,32,0,59
4,33,69,1
4,33,0,419
4,33,69,1
4,33,0,59
4,28,69,1
4,28,0,119
4,28,69,1
4,28,0,239
4,28,69,1
4,28,0,59
4,30,69,1
4,30,0,59
4,31,69,1
4,31,0,419
4,31,69,1
4,31,0,59
4,33,69,1
4,33,0,119
4,33,69,1
4,33,0,239
4,28,69,1
4,28,0,59
4,30,69,1
4,30,0,59
4,33,69,1
4,33,0,419
4,33,69,1
4,33,0,59
4,28,69,1
4,28,0,119
4,28,69,1
4,28,0,239
4,28,69,1
4,28,0,119
4,31,69,1
4,31,0,419
4,31,69,1
4,31,0,59
4,33,69,1
4,33,0,119
4,33,69,1
4,33,0,239
4,38,69,1
4,38,0,119
4,40,69,1
4,40,0,479
4,40,69,1
4,40,0,119
4,40,69,1
4,40,0,239
4,35,69,1
4,35,0,1
4,40,40,1
4,40,0,119
4,40,45,1
4,40,0,119
4,40,50,1
4,40,0,119
4,40,55,1
4,40,0,119
4,40,60,1
4,40,0,119
4,40,65,1
4,40,0,119
4,40,70,1
4,40,0,119
4,40,75,1
4,40,0,119
4,38,82,1
4,38,0,359
4,38,82,1
4,38,0,119
4,40,82,1
4,40,0,239
4,42,82,1
4,42,0,239
4,33,82,1
4,33,0,119
4,33,82,1
4,33,0,359
4,33,82,1
4,33,0,119
4,33,82,1
4,33,0,239
4,33,82,1
4,33,0,119
4,40,82,1
4,40,0,419
4,35,82,1
4,35,0,59
4,40,82,1
4,40,0,119
4,40,82,1
4,40,0,239
4,35,82,1
4,35,0,119
4,40,82,1
4,40,0,419
4,40,82,1
4,40,0,59
4,40,82,1
4,40,0,119
4,40,82,1
4,40,0,179
4,39,82,1
4,39,0,179
4,38,82,1
4,38,0,359
4,38,82,1
4,38,0,119
4,40,82,1
4,40,0,239
4,42,82,1
4,42,0,239
4,33,82,1
4,33,0,119
4,33,82,1
4,33,0,359
4,33,82,1
4,33,0,119
4,33,82,1
4,33,0,239
4,33,82,1
4,33,0,119
4,43,88,1
4,43,0,599
4,33,88,1
4,33,0,119
4,35,88,1
4,35,0,119
4,33,88,1
4,33,0,119
4,38,88,1
4,38,0,599
4,33,88,1
4,33,0,119
4,35,88,1
4,35,0,119
4,33,88,1
4,33,0,119
4,40,88,1
4,40,0,359
4,40,88,1
4,40,0,119
4,40,88,1
4,40,0,119
4,40,88,1
4,40,0,119
4,38,88,1
4,38,0,239
4,40,88,1
4,40,0,449
4,40,88,1
4,40,0,29
4,40,112,1
4,40,0,59
4,40,112,1
4,40,0,119
4,40,112,1
4,40,0,119
4,40,112,1
4,40,0,59
4,40,112,1
4,40,0,59
4,40,112,1
4,40,0,59
4,42,112,1
4,42,0,217
4,42,112,23
4,42,0,207
4,40,112,33
4,40,0,44
4,40,112,76
4,40,0,214
4,40,112,26
4,35,112,120
4,40,0,7
4,35,0,183
4,35,112,50
4,35,0,228
4,40,112,12
4,40,0,116
4,35,112,4
4,40,112,60
4,35,0,20
4,40,0,97
4,35,112,3
4,40,112,60
4,35,0,7
4,40,0,90
4,42,112,23
4,42,0,36
4,42,112,84
4,42,0,209
4,42,112,31
4,42,0,100
4,40,112,20
4,40,0,38
4,40,112,82
4,40,0,210
4,40,112,30
4,35,112,120
4,40,0,14
4,35,0,299
4,35,112,47
4,35,0,87
4,35,112,33
4,35,0,46
4,35,112,74
4,35,0,165
4,33,112,15
4,33,0,180
4,42,112,0
4,42,0,399
4,42,112,21
4,42,0,51
4,40,112,9
4,40,0,36
4,40,112,84
4,40,0,208
4,40,112,32
4,40,0,120
4,35,112,0
4,35,0,213
4,35,112,27
4,35,0,176
4,35,112,64
4,35,0,35
4,35,112,85
4,35,0,196
4,35,112,44
4,35,0,115
4,42,112,5
4,42,0,325
4,42,112,35
4,42,0,91
4,42,112,29
4,42,0,59
4,42,112,61
4,42,0,214
4,42,112,26
4,42,0,119
4,40,112,1
4,40,0,68
4,40,112,52
4,40,0,81
4,40,112,39
4,40,0,69
4,40,112,51
4,40,0,85
4,40,112,35
4,40,0,84
4,40,112,36
4,40,0,83
4,40,112,37
4,40,0,85
4,40,112,35
4,40,0,69
4,38,82,51
4,38,0,359
4,38,82,1
4,38,0,119
4,40,82,1
4,40,0,239
4,42,82,1
4,42,0,239
4,33,82,1
4,33,0,119
4,33,82,1
4,33,0,359
