track,note,velocity,time
1,34,119,3080
1,32,110,156
1,32,110,72
1,39,101,240
1,32,119,106
1,39,110,234
1,32,101,1146
1,34,119,12
1,32,119,102
1,32,119,76
1,27,119,240
1,32,119,176
1,39,119,234
1,32,101,1146
1,34,110,0
1,34,110,220
1,32,110,10
1,39,119,256
1,39,119,154
1,31,110,128
1,32,110,240
1,32,62,32
1,33,110,0
1,34,110,198
1,34,110,224
1,32,110,4
1,39,119,254
1,39,119,150
1,31,110,132
1,32,110,238
1,32,62,30
1,33,110,4
1,34,110,192
1,34,110,218
1,32,110,6
1,39,119,254
1,39,119,154
1,31,110,128
1,32,110,242
1,32,62,36
1,33,110,4
1,34,110,198
1,34,110,224
1,32,110,0
1,39,119,258
1,39,119,4
1,39,119,154
1,31,110,134
1,32,110,238
1,32,62,28
1,33,110,0
1,29,110,196
1,29,119,136
1,29,110,68
1,29,119,124
1,29,119,58
1,29,119,120
1,29,119,70
1,29,110,126
1,29,110,70
1,29,119,136
1,29,110,68
1,29,119,122
1,29,119,64
1,29,119,122
1,29,119,68
1,29,110,122
1,32,119,76
1,32,119,142
1,32,119,62
1,32,119,124
1,32,119,70
1,32,119,126
1,32,110,70
1,32,110,138
1,39,127,86
1,37,119,316
1,37,119,240
1,34,119,200
1,34,119,164
1,34,119,38
1,34,119,160
1,34,119,36
1,34,119,160
1,34,119,38
1,37,119,134
1,39,119,134
1,39,119,160
1,39,119,36
1,39,110,160
1,39,119,38
1,39,110,164
1,39,110,38
1,32,119,166
1,34,115,122
1,34,119,172
1,34,119,42
1,34,110,160
1,34,111,40
1,34,119,146
1,37,119,2
1,37,119,128
1,39,119,58
1,39,110,160
1,39,119,36
1,39,110,160
1,39,110,40
1,39,119,150
1,32,119,2
1,32,110,112
1,34,119,52
1,34,110,164
1,34,110,36
1,34,119,160
1,34,119,40
1,34,110,160
1,37,119,0
1,37,119,118
1,39,119,0
1,39,110,130
1,39,119,38
1,39,110,162
1,39,119,40
1,39,110,158
1,39,119,36
1,39,110,134
1,41,119,6
1,34,119,154
1,34,119,240
1,34,119,196
1,41,119,20
1,34,119,0
1,32,119,102
1,32,119,76
1,27,119,242
1,32,119,176
1,39,119,234
1,32,101,1150
1,34,110,4
1,34,110,222
1,32,110,0
1,39,119,254
1,39,119,154
1,31,110,128
1,32,110,240
1,32,62,32
1,33,110,2
1,34,110,198
1,34,110,222
1,32,110,0
1,39,119,256
1,39,119,150
1,31,110,134
1,32,110,240
1,32,62,26
1,33,110,4
1,34,110,188
1,34,110,218
1,32,110,6
1,39,119,254
1,39,119,154
1,31,110,130
1,32,110,242
1,32,62,36
1,33,110,6
1,34,110,198
1,34,110,222
1,32,110,0
1,39,119,258
1,39,119,150
1,31,110,134
1,32,110,240
1,32,62,28
1,33,110,0
1,29,110,198
1,29,119,136
1,29,110,68
1,29,119,128
1,29,119,58
1,29,119,120
1,29,119,68
1,29,110,126
1,29,110,74
1,29,119,136
1,29,110,68
1,29,119,126
1,29,119,64
1,29,119,122
1,29,119,68
1,29,110,122
1,32,119,76
1,32,119,142
1,32,119,62
1,32,119,124
1,32,119,66
1,32,119,126
1,32,110,70
1,32,110,138
1,39,127,82
1,37,119,316
1,37,119,238
1,34,119,200
1,34,119,164
1,34,119,38
1,34,119,162
1,34,119,36
1,34,119,160
1,34,119,38
1,37,119,128
1,39,119,134
1,39,119,160
1,39,119,36
1,39,110,160
1,39,119,38
1,39,110,158
1,39,110,38
1,32,119,166
1,34,115,122
1,34,119,166
1,34,119,42
1,34,110,160
1,34,111,40
1,34,119,146
1,37,119,0
1,37,119,128
1,39,119,58
1,39,110,160
1,39,119,36
1,39,110,160
1,39,110,40
1,39,119,150
1,32,119,2
1,32,110,112
1,34,119,52
1,34,110,164
1,34,110,36
1,34,119,160
1,34,119,40
1,34,110,160
1,37,119,0
1,37,119,122
1,39,119,0
1,39,110,130
1,39,119,38
1,39,110,160
1,39,119,40
1,39,110,160
1,39,119,38
1,39,110,134
1,41,119,4
1,34,119,154
1,34,119,240
1,34,119,196
1,41,119,20
1,34,110,0
1,34,110,224
1,32,110,0
1,39,119,262
1,39,119,156
1,31,110,126
1,32,110,240
1,32,62,38
1,33,110,0
1,34,110,202
1,34,110,224
1,32,110,0
1,39,119,256
1,39,119,148
1,31,110,134
1,32,110,244
1,32,62,36
1,33,110,0
1,34,110,198
1,34,110,226
1,32,110,0
1,39,119,260
1,39,119,156
1,31,110,126
1,32,110,240
1,32,62,38
1,33,110,4
1,34,110,198
1,34,110,224
1,32,110,0
1,39,119,260
1,39,110,194
1,26,110,0
1,27,119,18
1,28,119,20
1,29,110,36
1,29,101,158
1,33,110,140
1,33,101,160
1,36,119,130
1,36,110,170
1,38,110,130
1,38,101,162
1,41,119,134
1,41,110,170
1,39,101,130
1,39,110,162
1,36,110,132
1,36,119,164
1,33,101,130
1,33,110,160
1,32,101,0
1,32,101,160
1,32,110,134
1,32,110,112
1,32,110,40
1,32,110,136
1,32,119,38
1,32,101,166
1,39,119,44
1,37,119,116
1,37,119,170
1,34,119,170
1,34,110,136
1,36,119,128
1,36,110,134
1,37,101,4
1,37,101,128
1,38,110,136
1,38,110,138
1,39,119,130
1,39,110,130
1,31,110,138
1,31,110,130
1,32,119,0
1,32,110,170
1,33,110,134
1,33,110,128
1,34,119,134
1,34,101,170
1,36,119,122
1,36,110,126
1,37,101,136
1,37,110,160
1,38,110,132
1,38,110,166
1,39,119,134
1,39,110,162
1,31,110,128
1,31,110,128
1,32,110,32
1,32,110,130
1,33,110,134
1,33,110,134
1,34,112,128
1,34,110,184
1,36,119,128
1,36,119,128
1,37,101,0
1,37,111,130
1,38,119,134
1,38,110,168
1,39,119,128
1,39,110,130
1,31,110,138
1,31,110,132
1,32,110,0
1,32,101,160
1,33,110,138
1,33,110,166
1,41,119,38
1,34,119,196
1,34,113,266
1,39,110,0
1,41,119,128
1,34,119,54
1,34,119,134
1,34,119,36
1,34,119,126
1,34,119,40
1,34,119,160
1,34,119,38
1,37,119,132
1,39,119,134
1,39,119,160
1,39,119,38
1,39,110,162
1,39,119,38
1,39,110,160
1,39,110,38
1,32,119,128
1,34,110,128
1,34,119,160
1,34,119,36
1,34,110,160
1,34,101,38
1,34,119,144
1,37,119,38
1,37,119,134
1,39,119,54
1,39,110,134
1,39,119,42
1,39,110,132
1,39,110,40
1,39,119,150
1,32,119,2
1,32,110,114
1,34,119,52
1,34,110,164
1,34,110,36
1,34,119,160
1,34,119,40
1,34,110,160
1,37,119,2
1,37,119,118
1,39,119,68
1,39,110,130
1,39,119,38
1,39,110,126
1,39,119,40
1,39,110,130
1,39,119,38
1,39,110,128
1,41,119,50
1,34,119,156
1,34,119,244
1,34,119,198
1,41,119,22
1,34,119,0
1,34,119,134
1,34,119,42
1,34,119,126
1,34,119,40
1,34,119,130
1,34,119,36
1,37,119,128
1,39,119,138
1,39,119,130
1,39,119,36
1,39,110,126
1,39,119,40
1,39,110,130
1,39,110,36
1,32,119,128
1,34,110,132
1,34,119,164
1,34,119,36
1,34,110,144
1,34,101,40
1,34,119,146
1,37,119,0
1,37,119,132
1,39,119,54
1,39,110,130
1,39,119,38
1,39,110,138
1,39,110,38
1,39,119,148
1,32,119,4
1,32,110,118
1,34,119,46
1,34,110,124
1,34,110,42
1,34,119,136
1,34,119,38
1,34,110,128
1,37,119,4
1,37,119,122
1,39,119,70
1,39,110,134
1,39,119,42
1,39,110,126
1,39,119,40
1,39,110,128
1,39,119,36
1,39,110,126
1,29,119,58
1,29,119,128
1,29,119,36
1,29,119,116
1,29,119,38
1,29,119,130
1,29,119,36
1,29,119,142
1,29,119,40
1,29,119,134
1,29,119,36
1,29,119,128
1,29,119,40
1,29,110,118
1,29,119,36
1,29,110,116
1,34,110,44
1,34,101,142
1,43,110,22
1,43,92,136
1,46,119,0
1,46,119,138
1,43,110,10
1,43,110,138
1,39,110,24
1,39,83,136
1,48,119,14
1,48,110,136
1,46,110,134
1,46,119,170
1,43,110,14
1,43,110,158
1,34,119,20
1,34,101,126
1,43,119,20
1,43,101,126
1,46,101,0
1,46,110,150
1,43,110,26
1,43,110,146
1,39,110,0
1,39,92,164
1,48,110,10
1,48,110,152
1,46,110,136
1,46,119,176
1,43,110,16
1,43,110,156
1,34,110,26
1,34,101,142
1,43,119,10
1,43,101,154
1,46,119,134
1,46,110,140
1,43,110,28
1,43,110,142
1,39,110,22
1,39,92,138
1,48,119,10
1,48,110,142
1,46,110,130
1,46,110,168
1,43,110,134
1,43,110,136
1,41,119,48
1,41,110,64
1,39,110,30
1,39,101,68
1,38,113,40
1,38,101,38
1,36,101,36
1,36,114,70
1,44,110,22
1,44,83,54
1,43,101,32
1,43,92,106
1,44,110,54
1,46,101,126
1,43,92,118
1,41,110,0
1,34,83,42
1,34,110,74
1,31,83,48
1,31,83,74
1,34,110,0
1,34,110,90
1,31,110,36
1,31,101,70
1,27,110,24
1,27,83,86
1,31,110,32
1,31,92,60
1,34,119,134
1,34,101,74
1,36,110,42
1,36,101,62
1,46,119,32
1,46,101,66
1,43,101,26
1,43,83,50
1,46,119,134
1,46,101,90
1,43,110,18
1,43,83,64
1,39,110,32
1,39,101,62
1,31,110,10
1,31,83,48
1,32,110,26
1,32,101,46
1,33,110,34
1,33,92,48
1,34,119,14
1,34,101,84
1,38,101,30
1,38,92,72
1,39,110,136
1,39,92,90
1,40,110,28
1,41,110,254
1,39,110,26
1,39,83,94
1,43,110,16
1,43,101,66
1,46,119,0
1,46,92,80
1,48,119,32
1,46,101,22
1,41,119,36
1,41,110,50
1,41,119,56
1,41,110,82
1,41,119,50
1,41,110,76
1,41,119,50
1,41,119,96
1,41,119,64
1,41,119,84
1,41,119,64
1,41,119,88
1,41,110,64
1,41,119,88
1,41,119,64
1,41,110,88
1,46,119,68
1,46,101,70
1,44,101,36
1,44,92,42
1,43,110,26
1,43,105,66
1,41,111,28
1,41,106,46
1,39,110,28
1,39,105,54
1,37,110,38
1,37,105,30
1,36,110,42
1,36,106,44
1,34,110,26
1,34,106,48
1,46,119,30
1,46,101,70
1,44,101,30
1,44,106,42
1,43,110,26
1,43,105,66
1,41,105,28
1,41,106,46
1,39,110,28
1,39,105,50
1,37,110,42
1,37,105,32
1,36,110,34
1,36,105,40
1,34,110,32
1,34,105,52
1,46,119,22
1,46,105,68
1,44,110,34
1,44,101,36
1,43,110,24
1,43,105,36
1,41,110,42
1,41,106,58
1,39,110,36
1,39,106,52
1,37,110,38
1,37,105,58
1,36,105,36
1,36,105,54
1,34,105,34
1,34,106,64
1,41,119,36
1,34,119,102
1,34,119,212
1,34,110,192
1,41,119,24
1,39,110,64
1,38,110,28
1,36,110,70
1,34,101,80
1,34,119,144
1,34,110,38
1,34,110,138
1,34,119,38
1,34,110,128
1,34,119,38
1,34,110,138
1,39,119,40
1,39,110,132
1,39,119,44
1,39,110,132
1,39,119,38
1,39,110,130
1,39,119,38
1,39,119,148
1,34,110,40
1,34,110,150
1,34,101,42
1,34,110,142
1,34,119,40
1,34,110,144
1,34,119,36
1,34,119,132
1,39,119,44
1,39,101,130
1,39,119,36
1,39,110,136
1,39,119,44
1,39,110,140
1,39,119,36
1,39,119,162
1,34,119,4
1,34,119,164
1,34,119,38
1,34,119,160
1,34,119,44
1,34,119,160
1,34,119,38
1,34,119,154
1,39,119,42
1,39,110,150
1,39,110,38
1,39,110,154
1,39,119,38
1,39,119,148
1,39,119,40
1,39,119,138
1,41,119,0
1,41,119,110
1,41,119,48
1,41,119,132
1,41,119,38
1,41,119,128
1,41,119,38
1,41,119,98
1,41,110,44
1,41,119,28
1,41,119,34
1,41,119,32
1,41,110,98
1,41,119,80
1,41,119,142
1,34,119,58
1,32,110,160
1,32,110,72
1,39,101,242
1,32,119,112
1,39,110,240
1,32,101,1140
1,34,119,20
1,32,119,106
1,32,119,80
1,27,119,240
1,32,119,176
1,27,119,244
2,65,91,0
2,70,91,6
2,58,91,0
2,68,82,42
2,63,82,6
2,56,91,0
2,68,64,26
2,63,73,0
2,56,82,6
2,51,82,226
2,58,82,0
2,63,91,0
2,63,91,202
2,56,100,0
2,68,82,0
2,58,82,220
2,63,100,0
2,51,82,6
2,70,82,132
2,58,100,0
2,65,91,0
2,56,91,138
2,63,91,6
2,68,82,0
2,63,73,42
2,68,73,0
2,56,64,6
2,63,91,224
2,58,91,0
2,51,82,0
2,68,82,192
2,56,91,0
2,63,82,6
2,51,82,204
2,58,91,0
2,63,91,0
2,65,100,106
2,58,91,0
2,63,100,10
2,56,91,0
2,58,91,16
2,63,91,0
2,58,64,2
2,63,82,0
2,58,73,48
2,63,64,0
2,58,82,48
2,63,73,0
2,63,73,20
2,58,64,10
2,58,82,40
2,63,82,0
2,58,82,40
2,65,100,2
2,63,91,12
2,56,82,0
2,63,91,16
2,58,82,0
2,58,82,16
2,63,91,0
2,58,73,42
2,63,64,0
2,58,73,20
2,63,73,0
2,63,82,28
2,58,64,0
2,63,82,30
2,58,73,6
2,65,100,76
2,58,91,0
2,63,100,14
2,56,91,0
2,58,91,16
2,63,91,0
2,63,82,0
2,58,64,6
2,58,73,46
2,63,64,0
2,58,82,50
2,63,73,0
2,58,64,26
2,63,73,0
2,58,82,40
2,63,82,0
2,65,100,44
2,58,82,0
2,56,82,10
2,63,91,10
2,63,91,18
2,58,82,0
2,58,82,12
2,63,91,0
2,58,73,42
2,63,64,0
2,58,73,20
2,63,73,0
2,63,82,28
2,58,64,0
2,58,73,32
2,63,82,0
2,58,91,90
2,63,91,0
2,65,82,124
2,60,82,0
2,65,91,48
2,60,91,0
2,65,60,68
2,60,64,0
2,60,91,24
2,65,82,2
2,65,64,44
2,60,60,0
2,65,82,72
2,60,91,6
2,65,60,42
2,60,64,0
2,65,100,48
2,60,91,0
2,68,64,42
2,63,73,0
2,63,91,62
2,68,91,0
2,68,60,44
2,63,73,0
2,68,82,58
2,63,82,0
2,75,100,66
2,70,100,0
2,63,100,0
2,73,91,346
2,68,91,10
2,61,100,0
2,61,100,160
2,68,91,0
2,73,82,0
2,65,100,134
2,70,91,6
2,70,73,44
2,65,82,0
2,70,82,26
2,67,91,0
2,70,91,188
2,65,100,0
2,70,91,216
2,67,91,0
2,65,91,98
2,70,82,0
2,58,82,6
2,63,100,0
2,60,91,168
2,63,100,0
2,63,91,198
2,58,91,0
2,60,91,212
2,63,100,6
2,65,109,64
2,70,109,2
2,70,82,124
2,65,100,0
2,70,91,14
2,67,100,6
2,70,82,192
2,65,100,0
2,67,100,206
2,70,91,0
2,70,91,104
2,65,100,0
2,63,100,0
2,58,82,6
2,63,100,176
2,60,91,0
2,63,100,186
2,58,91,0
2,60,100,206
2,63,100,0
2,70,110,30
2,65,110,0
2,70,82,124
2,65,91,6
2,67,91,4
2,70,82,0
2,65,100,188
2,70,82,6
2,67,100,198
2,70,91,0
2,70,91,110
2,65,100,0
2,58,91,0
2,63,100,0
2,63,91,176
2,60,82,0
2,63,100,186
2,58,91,0
2,60,82,196
2,63,91,0
2,58,100,80
2,63,91,0
2,60,100,122
2,65,100,0
2,58,91,96
2,65,91,6
2,58,91,172
2,65,91,0
2,58,100,192
2,65,91,6
2,60,100,0
2,65,91,6
2,70,82,42
2,58,100,0
2,65,91,0
2,56,91,138
2,63,91,6
2,68,82,0
2,68,73,42
2,56,64,6
2,63,73,0
2,63,91,224
2,58,91,0
2,51,82,0
2,56,91,192
2,63,82,2
2,68,82,0
2,51,82,204
2,58,91,0
2,63,91,0
2,65,100,112
2,58,91,0
2,63,100,20
2,56,91,0
2,58,91,16
2,63,91,0
2,63,82,0
2,58,64,6
2,58,73,48
2,63,64,0
2,63,73,44
2,58,82,10
2,63,73,20
2,58,64,10
2,58,82,40
2,63,82,0
2,58,82,36
2,65,100,10
2,56,82,12
2,63,91,12
2,63,91,16
2,58,82,0
2,58,82,14
2,63,91,0
2,58,73,46
2,63,64,0
2,58,73,20
2,63,73,0
2,63,82,28
