track,note,velocity,time
1,55,68,840
1,55,0,60
1,62,62,0
1,57,63,58
1,62,0,47
1,57,0,13
1,57,69,2
1,62,69,0
1,62,0,170
1,57,0,0
1,55,57,97
1,62,59,0
1,55,0,2
1,62,0,56
1,62,59,0
1,64,59,0
1,60,67,57
1,64,0,9
1,60,0,455
1,62,0,4
1,57,47,195
1,60,47,60
1,57,0,30
1,64,47,30
1,60,0,30
1,62,47,30
1,64,0,30
1,60,47,30
1,62,0,30
1,60,0,50
1,57,47,20
1,57,0,60
1,55,47,0
1,60,47,60
1,55,0,30
1,64,47,30
1,60,0,15
1,60,47,45
1,64,0,30
1,55,47,30
1,60,0,15
1,55,0,90
1,55,47,15
1,57,47,60
1,55,0,30
1,60,47,30
1,57,0,30
1,64,47,30
1,60,0,30
1,64,0,73
1,60,48,17
1,57,48,60
1,60,0,18
1,57,0,102
1,55,48,0
1,60,48,60
1,55,0,30
1,57,48,30
1,60,0,30
1,64,48,30
1,57,0,30
1,64,0,77
1,60,48,13
1,57,48,60
1,60,0,15
1,60,48,45
1,57,0,30
1,60,0,39
1,57,48,111
1,60,48,60
1,57,0,30
1,60,0,30
1,64,48,0
1,60,48,60
1,64,0,30
1,57,48,30
1,60,0,30
1,57,0,75
1,57,48,138
1,60,48,57
1,57,0,18
1,64,55,42
1,60,0,15
1,60,51,45
1,64,0,15
1,57,47,45
1,60,0,15
1,57,0,95
1,57,43,130
1,60,43,60
1,57,0,15
1,64,54,45
1,60,0,15
1,60,50,45
1,64,0,30
1,57,48,30
1,60,0,30
1,57,0,105
1,57,55,465
1,57,0,465
1,64,50,255
1,64,0,45
1,60,50,0
1,60,0,75
1,57,50,0
1,57,0,115
1,50,50,5
1,50,0,60
1,57,51,0
1,57,0,60
1,60,51,0
1,60,0,60
1,57,51,0
1,57,0,60
1,64,51,0
1,64,0,60
1,60,52,0
1,60,0,60
1,59,52,0
1,59,0,60
1,60,52,0
1,60,0,60
1,38,52,0
1,38,0,60
1,41,52,0
1,41,0,60
1,43,55,0
1,43,0,60
1,45,53,0
1,45,0,60
1,50,53,0
1,50,0,60
1,52,53,0
1,52,0,60
1,55,55,0
1,55,0,60
1,60,56,0
1,60,0,60
1,57,57,0
1,57,0,315
1,57,47,347
1,64,48,61
1,57,0,29
1,60,50,34
1,57,52,54
1,64,0,63
1,57,0,72
1,60,0,96
1,57,48,69
1,64,49,60
1,57,0,30
1,60,51,35
1,57,51,55
1,64,0,15
1,57,0,120
1,60,0,65
1,57,81,100
1,64,82,60
1,60,82,0
1,57,0,4
1,60,0,56
1,64,0,0
1,57,82,0
1,57,0,60
1,60,82,0
1,64,82,0
1,64,0,75
1,60,0,0
1,50,105,43
1,50,0,171
1,50,82,32
1,50,0,22
1,50,105,157
1,50,0,159
1,50,84,38
1,50,0,24
1,55,104,158
1,55,0,142
1,55,82,58
1,55,0,25
1,55,104,169
1,55,0,127
1,55,88,55
1,55,0,23
1,50,104,195
1,50,0,117
1,50,86,62
1,50,0,30
1,50,105,170
1,50,0,136
1,50,87,45
1,50,0,20
1,52,48,8095
1,54,52,51
1,52,0,32
1,55,74,38
1,54,0,33
1,62,84,28
1,55,0,14
1,60,76,44
1,62,0,22
1,57,76,38
1,60,0,30
1,60,76,30
1,57,0,60
1,60,0,300
1,57,49,120
1,60,49,60
1,57,0,30
1,64,49,30
1,60,0,30
1,62,49,30
1,64,0,30
1,60,49,30
1,62,0,30
1,60,0,90
1,57,49,60
1,57,0,60
1,55,49,0
1,60,49,60
1,55,0,30
1,64,49,30
1,60,0,15
1,60,49,45
1,64,0,30
1,55,49,30
1,60,0,15
1,55,0,90
1,55,49,15
1,57,49,60
1,55,0,30
1,60,49,30
1,57,0,30
1,64,49,30
1,60,0,30
1,64,0,73
1,60,49,17
1,57,49,60
1,60,0,18
1,57,0,102
1,55,49,0
1,60,49,60
1,55,0,30
1,57,49,30
1,60,0,30
1,64,44,30
1,57,0,30
1,64,0,77
1,60,47,13
1,57,47,60
1,60,0,15
1,60,47,45
1,57,0,30
1,60,0,39
1,57,47,111
1,60,47,60
1,57,0,30
1,60,0,30
1,64,63,0
1,60,60,60
1,64,0,30
1,57,57,30
1,60,0,30
1,57,0,75
1,57,47,138
1,60,47,57
1,57,0,18
1,64,68,42
1,60,0,15
1,60,66,45
1,64,0,15
1,57,64,45
1,60,0,105
1,57,0,135
1,57,43,0
1,60,43,60
1,57,0,15
1,55,65,45
1,60,0,15
1,60,67,45
1,55,0,60
1,57,66,0
1,60,0,195
1,57,0,165
1,57,42,360
1,60,55,60
1,57,0,30
1,64,55,30
1,60,0,30
1,62,55,30
1,64,0,30
1,60,55,30
1,62,0,30
1,60,0,90
1,57,55,60
1,57,0,60
1,55,55,0
1,60,55,60
1,55,0,30
1,64,55,30
1,60,0,15
1,60,55,45
1,64,0,30
1,55,55,30
1,60,0,15
1,55,0,90
1,55,55,15
1,57,55,60
1,55,0,30
1,60,55,30
1,57,0,30
1,64,55,30
1,60,0,30
1,64,0,73
1,60,55,17
1,57,55,60
1,60,0,18
1,57,0,102
1,55,55,0
1,60,55,60
1,55,0,30
1,57,55,30
1,60,0,30
1,64,55,30
1,57,0,30
1,64,0,77
1,60,55,13
1,57,55,60
1,60,0,15
1,60,55,45
1,57,0,30
1,60,0,39
1,57,55,111
1,60,55,60
1,57,0,30
1,60,0,30
1,64,55,0
1,60,55,60
1,64,0,30
1,57,55,30
1,60,0,30
1,57,0,75
1,57,55,138
1,60,55,57
1,57,0,18
1,64,56,42
1,60,0,15
1,60,56,45
1,64,0,15
1,57,57,45
1,60,0,15
1,57,0,95
1,57,45,130
1,60,67,60
1,57,0,15
1,64,80,45
1,60,0,30
1,60,74,45
1,57,72,105
1,60,0,525
1,50,105,13
1,57,0,2
1,64,0,0
1,50,0,171
1,50,82,32
1,50,0,22
1,50,105,157
1,50,0,159
1,50,84,38
1,50,0,24
1,55,104,158
1,55,0,142
1,55,82,58
1,55,0,25
1,55,104,169
1,55,0,127
1,55,88,55
1,55,0,23
1,50,104,195
1,50,0,117
1,50,86,62
1,50,0,30
1,50,105,170
1,50,0,136
1,50,87,45
1,50,0,20
1,67,57,14095
1,67,0,60
1,66,48,0
1,64,47,60
1,66,0,8
1,64,0,52
1,67,49,0
1,67,0,55
1,66,44,5
1,66,0,62
1,64,40,2
1,64,0,59
1,62,43,2
1,62,0,90
1,55,42,25
1,60,42,60
1,55,0,30
1,57,34,30
1,60,0,30
1,64,60,30
1,57,0,30
1,60,49,90
1,57,46,60
1,64,0,46
1,60,0,44
1,57,0,100
1,57,31,50
1,64,58,60
1,57,0,30
1,60,54,90
1,64,0,56
1,57,48,4
1,60,0,96
1,57,0,80
1,57,32,67
1,64,60,57
1,57,0,18
1,60,56,102
1,64,0,46
1,57,46,14
1,60,0,83
1,57,0,90
1,57,43,67
1,64,45,63
1,57,0,12
1,60,40,105
1,64,0,50
1,57,38,10
1,60,0,96
1,57,0,87
1,50,105,3775
1,50,0,171
1,50,82,32
1,50,0,22
1,50,105,157
1,50,0,159
1,50,84,38
1,50,0,24
1,55,104,158
1,55,0,142
1,55,82,58
1,55,0,25
1,55,104,169
1,55,0,127
1,55,88,55
1,55,0,23
1,50,104,195
1,50,0,117
1,50,86,62
1,50,0,30
1,50,105,170
1,50,0,136
1,50,87,45
1,50,0,20
1,48,109,9775
1,55,109,0
1,72,109,0
1,72,0,420
1,55,0,480
1,48,0,0
1,58,110,963
1,55,110,2
1,48,52,955
1,58,0,3
1,55,0,2
1,53,61,5
1,55,64,10
1,65,71,10
1,60,71,0
1,48,0,930
1,53,0,10
1,55,0,4
1,65,0,10
1,60,0,0
1,55,54,4
1,55,0,17
1,57,54,0
1,62,54,0
1,50,54,10
1,57,0,7
1,62,0,14
1,50,0,10
2,81,74,3969
2,76,47,0
2,69,74,5
2,76,0,955
2,81,0,0
2,86,74,0
2,78,60,0
2,74,62,0
2,69,0,5
2,86,0,955
2,78,0,0
2,74,0,0
2,81,74,0
2,76,43,0
2,69,70,0
2,69,0,960
2,76,0,0
2,81,0,0
2,79,59,0
2,76,59,0
2,72,59,0
2,72,0,480
2,76,0,0
2,79,0,0
2,81,59,0
2,78,59,0
2,74,59,0
2,74,0,480
2,78,0,0
2,81,0,0
2,76,66,360
2,69,66,0
2,81,66,0
2,88,66,0
2,84,66,0
2,84,0,120
2,81,0,0
2,76,0,0
2,69,0,0
2,88,0,0
2,81,62,840
2,74,62,0
2,84,62,0
2,88,62,0
2,78,62,0
2,78,0,120
2,84,0,0
2,81,0,0
2,74,0,0
2,88,0,0
2,76,63,840
2,69,63,0
2,81,63,0
2,88,63,0
2,84,63,0
2,84,0,120
2,81,0,0
2,76,0,0
2,69,0,0
2,88,0,0
2,93,66,840
2,81,66,0
2,74,66,0
2,84,66,0
2,88,66,0
2,78,66,0
2,78,0,120
2,81,0,0
2,74,0,0
2,93,0,0
2,88,0,0
2,84,0,0
2,60,86,480
2,76,76,1
2,60,0,227
2,76,0,3
2,74,66,16
2,59,115,3
2,59,0,212
2,74,0,4
2,76,72,17
2,57,76,3
2,76,0,211
2,57,0,4
2,55,76,19
2,72,66,0
2,72,0,240
2,55,0,0
2,79,60,300
2,72,60,0
2,72,0,60
2,79,0,0
2,74,62,0
2,86,62,0
2,78,62,0
2,78,0,120
2,86,0,0
2,74,0,0
2,72,62,300
2,72,0,60
2,74,62,0
2,78,62,0
2,86,62,0
2,86,0,120
2,78,0,0
2,74,0,0
2,60,86,0
2,76,76,1
2,60,0,227
2,76,0,3
2,74,66,16
2,59,115,3
2,59,0,212
2,74,0,4
2,76,72,17
2,57,76,3
2,76,0,211
2,57,0,4
2,55,76,19
2,72,66,0
2,72,0,240
2,55,0,0
2,79,69,300
2,72,69,0
2,72,0,60
2,79,0,0
2,74,73,0
2,84,73,0
2,88,73,0
2,78,73,0
2,78,0,120
2,74,0,0
2,84,0,0
2,88,0,0
2,79,69,300
2,72,69,0
2,72,0,60
2,79,0,0
2,74,73,0
2,84,73,0
2,88,73,0
2,78,73,0
2,78,0,120
2,74,0,0
2,84,0,0
2,88,0,0
2,60,90,0
2,76,90,1
2,60,0,227
2,76,0,3
2,74,96,16
2,59,96,3
2,59,0,212
2,74,0,4
2,76,95,17
2,57,95,3
2,76,0,211
2,57,0,4
2,55,95,19
2,72,95,0
2,72,0,240
2,55,0,0
2,81,75,0
2,77,75,0
2,69,75,0
2,69,0,480
2,77,0,0
2,81,0,0
2,74,57,0
2,71,57,0
2,79,57,0
2,79,0,480
2,71,0,0
2,74,0,0
2,72,64,1920
2,69,64,0
2,69,0,960
2,72,0,0
2,69,51,0
2,78,51,0
2,78,0,480
2,76,48,0
2,76,0,480
2,69,0,0
2,76,45,0
2,72,45,0
2,69,45,0
2,69,0,480
2,67,45,0
2,67,0,480
2,66,44,0
2,66,0,480
2,72,0,0
2,76,0,0
2,74,51,0
2,66,51,0
2,62,51,0
2,69,51,0
2,69,0,480
2,74,0,0
2,66,0,0
2,62,0,0
2,72,64,0
2,69,64,0
2,69,0,960
2,72,0,0
2,69,51,0
2,78,51,0
2,78,0,480
2,76,48,0
2,76,0,480
2,69,0,0
2,76,45,0
2,72,45,0
2,69,45,0
2,69,0,480
2,67,45,0
2,67,0,480
2,66,44,0
2,66,0,480
2,72,0,0
2,76,0,0
2,74,51,0
2,66,51,0
2,62,51,0
2,69,51,0
2,69,0,480
2,74,0,0
2,66,0,0
2,62,0,0
2,81,74,0
2,76,47,0
2,69,74,5
2,76,0,955
2,81,0,0
2,86,74,0
2,78,60,0
2,74,62,0
2,69,0,5
2,86,0,955
2,78,0,0
2,74,0,0
2,81,74,0
2,76,43,0
2,69,70,0
2,69,0,960
2,76,0,0
2,81,0,0
2,79,59,0
2,76,59,0
2,72,59,0
2,72,0,480
2,76,0,0
2,79,0,0
2,81,59,0
2,78,59,0
2,74,59,0
2,74,0,480
2,78,0,0
2,81,0,0
2,76,66,360
2,69,66,0
2,81,66,0
2,88,66,0
2,84,66,0
2,84,0,120
2,81,0,0
2,76,0,0
2,69,0,0
2,88,0,0
2,81,62,840
2,74,62,0
2,84,62,0
2,88,62,0
2,78,62,0
2,78,0,120
2,84,0,0
2,81,0,0
2,74,0,0
2,88,0,0
2,76,63,840
2,69,63,0
2,81,63,0
2,88,63,0
2,84,63,0
2,84,0,120
2,81,0,0
2,76,0,0
2,69,0,0
2,88,0,0
2,93,66,840
2,81,66,0
2,74,66,0
2,84,66,0
2,88,66,0
2,78,66,0
2,78,0,120
2,81,0,0
2,74,0,0
2,93,0,0
2,88,0,0
2,84,0,0
2,60,86,480
2,76,76,1
2,60,0,227
2,76,0,3
2,74,66,16
2,59,115,3
2,59,0,212
2,74,0,4
2,76,72,17
2,57,76,3
2,76,0,211
2,57,0,4
2,55,76,19
2,72,66,0
2,72,0,240
2,55,0,0
2,60,100,0
2,57,100,0
2,53,100,0
2,53,0,480
2,57,0,0
2,60,0,0
2,62,100,0
2,59,100,0
2,55,100,0
2,55,0,480
2,59,0,0
2,62,0,0
2,69,100,0
2,66,100,0
2,62,100,0
2,62,0,480
2,66,0,0
2,69,0,0
3,33,116,827
3,45,78,475
3,33,0,5
3,45,0,115
3,43,81,10
3,44,82,46
3,43,0,3
3,44,0,71
3,45,100,1
3,33,115,234
3,45,0,6
3,33,0,474
3,45,66,0
3,45,0,60
3,47,64,0
3,47,0,60
3,48,76,0
3,48,0,60
3,52,81,0
3,52,0,227
3,45,60,13
3,45,0,17
3,45,84,43
3,45,0,405
3,45,70,15
3,45,0,30
3,36,74,30
3,36,0,300
3,33,72,0
3,33,0,60
3,36,70,0
3,36,0,45
3,33,71,15
3,33,0,60
3,38,72,2
3,33,74,418
3,38,0,3
3,36,74,54
3,33,0,3
3,36,0,177
3,43,75,3
3,43,0,45
3,43,75,7
3,43,0,80
3,46,73,8
3,46,0,111
3,45,90,4
3,45,0,314
3,45,54,0
3,45,0,60
3,43,87,0
3,43,0,420
3,43,63,0
3,43,0,45
3,42,93,15
3,42,0,420
3,42,57,0
3,42,0,60
3,38,100,0
3,38,0,53
3,38,78,7
3,38,0,60
3,36,75,0
3,36,0,60
3,37,78,0
3,37,0,60
3,38,79,6
3,38,0,225
3,45,91,9
3,45,0,405
3,45,76,15
3,45,0,45
3,36,95,15
3,36,0,420
3,36,75,0
3,36,0,60
3,38,93,0
3,38,0,405
3,38,77,15
3,38,0,60
3,36,77,0
3,36,0,60
3,33,78,0
3,33,0,60
3,30,80,0
3,30,0,60
3,33,81,0
3,33,0,60
3,28,83,0
3,28,0,60
3,29,85,0
3,29,0,60
3,30,90,0
3,30,0,60
3,31,87,0
3,31,0,60
3,33,92,0
3,33,0,405
3,33,83,15
3,33,0,60
3,43,89,0
3,43,0,405
3,43,75,15
3,43,0,60
3,42,92,0
3,42,0,420
3,33,73,0
3,33,0,60
3,38,80,0
3,38,0,45
3,38,86,15
3,38,0,60
3,35,85,0
3,35,0,60
3,36,90,0
3,36,0,60
3,38,95,0
3,38,0,240
3,33,127,0
3,33,0,45
3,33,127,15
3,31,127,60
3,33,0,1
3,31,0,48
3,33,127,11
3,33,0,83
3,33,127,217
3,33,0,45
3,33,127,15
3,33,0,57
3,31,127,6
3,31,0,57
3,33,127,3
3,33,0,62
3,28,95,55
3,28,0,60
3,30,97,0
3,30,0,60
3,28,97,0
3,28,0,60
3,38,127,0
3,38,0,45
3,38,127,15
3,38,0,60
3,36,127,0
3,36,0,60
3,38,127,0
3,38,0,62
3,38,127,238
3,38,0,45
3,38,127,15
3,38,0,60
3,36,127,0
3,36,0,60
3,38,127,0
3,38,0,60
3,28,98,60
3,28,0,60
3,30,99,0
3,30,0,60
3,28,97,0
3,28,0,60
3,33,127,0
3,33,0,45
3,33,127,15
3,31,127,60
3,33,0,1
3,31,0,48
3,33,127,11
3,33,0,83
3,33,127,217
3,33,0,45
3,33,127,15
3,33,0,57
3,31,127,6
3,31,0,57
