track,note,velocity,time
1,33,100,0
1,33,100,4
1,33,100,4
1,33,100,4
1,33,100,4
1,33,100,4
1,33,100,4
1,33,100,4
1,38,100,4
1,38,100,4
1,38,100,4
1,38,100,4
1,38,100,4
1,38,100,4
1,38,100,4
1,31,100,4
1,33,100,4
1,33,100,4
1,33,100,4
1,33,100,4
1,33,100,4
1,33,100,4
1,33,100,4
1,33,100,4
1,38,100,4
1,38,100,4
1,38,100,4
1,38,100,4
1,38,100,4
1,38,100,4
1,38,100,4
1,38,100,4
1,35,100,4
1,35,100,4
1,35,100,4
1,35,100,4
1,35,100,4
1,35,100,4
1,35,100,4
1,35,100,4
1,40,100,4
1,40,100,4
1,40,100,4
1,38,100,4
1,38,100,4
1,38,100,4
1,38,100,4
1,38,100,4
1,31,100,4
1,33,100,2692
1,33,100,4
1,33,100,4
1,33,100,4
1,33,100,4
1,33,100,4
1,33,100,4
1,33,100,4
1,38,100,4
1,38,100,4
1,38,100,4
1,38,100,4
1,38,100,4
1,38,100,4
1,38,100,4
1,31,100,4
1,33,100,4
1,33,100,4
1,33,100,4
1,33,100,4
1,33,100,4
1,33,100,4
1,33,100,4
1,33,100,4
1,38,100,4
1,38,100,4
1,38,100,4
1,38,100,4
1,38,100,4
1,38,100,4
1,38,100,4
1,38,100,4
1,35,100,4
1,35,100,4
1,35,100,4
1,35,100,4
1,35,100,4
1,35,100,4
1,35,100,4
1,35,100,4
1,40,100,4
1,40,100,4
1,40,100,4
1,38,100,4
1,38,100,4
1,38,100,4
1,38,100,4
1,38,100,4
1,31,100,4
1,31,100,4
1,31,100,4
1,31,100,4
1,33,100,4
1,33,100,4
1,33,100,4
1,33,100,4
1,38,100,4
1,38,100,4
1,38,100,4
1,38,100,4
1,38,100,4
1,38,100,4
1,38,100,4
1,38,100,4
1,33,100,4
1,33,100,4
1,33,100,4
1,33,100,4
1,33,100,4
1,33,100,4
1,33,100,4
1,33,100,4
1,38,100,4
1,38,100,4
1,38,100,4
1,38,100,4
1,38,100,4
1,38,100,4
1,38,100,4
1,31,100,4
1,33,100,4
1,33,100,4
1,33,100,4
1,33,100,4
1,33,100,4
1,33,100,4
1,33,100,4
1,33,100,4
1,38,100,4
1,38,100,4
1,38,100,4
1,38,100,4
1,38,100,4
1,38,100,4
1,38,100,4
1,38,100,4
1,35,100,4
1,35,100,4
1,35,100,4
1,35,100,4
1,35,100,4
1,35,100,4
1,35,100,4
1,35,100,4
1,40,100,4
1,40,100,4
1,40,100,4
1,38,100,4
1,38,100,4
1,38,100,4
1,38,100,4
1,38,100,4
1,31,100,4
1,31,100,4
1,31,100,4
1,31,100,4
1,33,100,4
1,33,100,4
1,33,100,4
1,33,100,4
1,38,100,4
1,38,100,4
1,38,100,4
1,38,100,4
1,38,100,4
1,38,100,4
1,38,100,4
1,38,100,4
1,33,100,4
1,33,100,4
1,33,100,4
1,33,100,4
1,33,100,4
1,33,100,4
1,33,100,4
1,33,100,4
1,38,100,4
1,38,100,4
1,38,100,4
1,38,100,4
1,38,100,4
1,38,100,4
1,38,100,4
1,31,100,4
1,33,100,4
1,33,100,4
1,33,100,4
1,33,100,4
1,33,100,4
1,33,100,4
1,33,100,4
1,33,100,4
1,38,100,4
1,38,100,4
1,38,100,4
1,38,100,4
1,38,100,4
1,38,100,4
1,38,100,4
1,38,100,4
1,33,100,4
1,33,100,4
1,33,100,4
1,33,100,4
1,33,100,4
1,33,100,4
1,33,100,4
1,33,100,4
1,38,100,4
1,38,100,4
1,38,100,4
1,38,100,4
1,38,100,4
1,38,100,4
1,38,100,4
1,31,100,4
1,33,100,4
1,33,100,4
1,33,100,4
1,33,100,4
1,33,100,4
1,33,100,4
1,33,100,4
1,33,100,4
1,38,100,4
1,38,100,4
1,38,100,4
1,38,100,4
1,38,100,4
1,38,100,4
1,38,100,4
1,38,100,4
1,35,100,4
1,35,100,4
1,35,100,4
1,35,100,4
1,35,100,4
1,35,100,4
1,35,100,4
1,35,100,4
1,40,100,4
1,40,100,4
1,40,100,4
1,38,100,4
1,38,100,4
1,38,100,4
1,38,100,4
1,38,100,4
1,31,100,4
1,31,100,4
1,31,100,4
1,31,100,4
1,33,100,4
1,33,100,4
1,33,100,4
1,33,100,4
1,38,100,4
1,38,100,4
1,38,100,4
1,38,100,4
1,38,100,4
1,38,100,4
1,38,100,4
1,38,100,4
1,33,100,4
1,33,100,4
1,33,100,4
1,33,100,4
1,33,100,4
1,33,100,4
1,33,100,4
1,33,100,4
1,38,100,4
1,38,100,4
1,38,100,4
1,38,100,4
1,38,100,4
1,38,100,4
1,38,100,4
1,31,100,4
1,33,100,4
1,33,100,4
1,33,100,4
1,33,100,4
1,33,100,4
1,33,100,4
1,33,100,4
1,33,100,4
1,38,100,4
1,38,100,4
1,38,100,4
1,38,100,4
1,38,100,4
1,38,100,4
1,38,100,4
1,38,100,4
1,35,100,4
1,35,100,4
1,35,100,4
1,35,100,4
1,35,100,4
1,35,100,4
1,35,100,4
1,35,100,4
1,40,100,4
1,40,100,4
1,40,100,4
1,38,100,4
1,38,100,4
1,38,100,4
1,38,100,4
1,38,100,4
1,31,100,4
1,31,100,4
1,31,100,4
1,31,100,4
1,33,100,4
1,33,100,4
1,33,100,4
1,33,100,4
1,38,100,4
1,38,100,4
1,38,100,4
1,38,100,4
1,38,100,4
1,38,100,4
1,38,100,4
1,38,100,4
1,35,100,4
1,35,100,4
1,35,100,4
1,35,100,4
1,36,100,4
1,36,100,4
1,36,100,4
1,36,100,4
1,35,100,4
1,35,100,4
1,35,100,4
1,35,100,0
1,35,100,4
1,36,100,4
1,36,100,4
1,36,100,4
1,36,100,4
1,38,100,4
1,26,100,4
1,35,100,4
1,35,100,4
1,35,100,4
1,35,100,4
1,36,100,4
1,36,100,4
1,36,100,4
1,36,100,4
1,35,100,4
1,35,100,4
1,35,100,4
1,35,100,0
1,35,100,4
1,36,100,4
1,36,100,4
1,36,100,4
1,36,100,4
1,38,100,4
1,26,100,0
1,33,100,4
1,33,100,4
1,33,100,4
1,33,100,4
1,33,100,4
1,33,100,4
1,33,100,4
1,33,100,4
1,38,100,4
1,38,100,4
1,38,100,4
1,38,100,4
1,38,100,4
1,38,100,4
1,38,100,4
1,31,100,4
1,33,100,4
1,33,100,4
1,33,100,4
1,33,100,4
1,33,100,4
1,33,100,4
1,33,100,4
1,33,100,4
1,38,100,4
1,38,100,4
1,38,100,4
1,38,100,4
1,38,100,4
1,38,100,4
1,38,100,4
1,38,100,4
1,35,100,4
1,35,100,4
1,35,100,4
1,35,100,4
1,35,100,0
1,35,100,4
1,35,100,4
1,35,100,4
1,35,100,4
1,40,100,4
1,40,100,4
1,40,100,4
1,40,100,4
1,38,100,4
1,38,100,4
1,38,100,4
1,38,100,4
1,31,100,4
1,31,100,4
1,31,100,4
1,31,100,4
1,33,100,4
1,33,100,4
1,33,100,4
1,33,100,4
1,38,100,4
1,38,100,4
1,38,100,4
1,38,100,0
1,38,100,4
1,38,100,4
1,38,100,4
1,38,100,4
1,38,100,4
1,33,100,4
1,33,100,4
1,33,100,4
1,33,100,4
1,33,100,4
1,33,100,4
1,33,100,4
1,33,100,4
1,38,100,4
1,38,100,4
1,38,100,4
1,38,100,4
1,38,100,4
1,38,100,4
1,38,100,4
1,31,100,4
1,33,100,4
1,33,100,4
1,33,100,4
1,33,100,4
1,33,100,4
1,33,100,4
1,33,100,4
1,33,100,4
1,38,100,4
1,38,100,4
1,38,100,4
1,38,100,4
1,38,100,4
1,38,100,4
1,38,100,4
1,38,100,4
1,35,100,4
1,35,100,4
1,35,100,4
1,35,100,4
1,35,100,4
1,35,100,4
1,35,100,4
1,35,100,4
1,40,100,4
1,40,100,4
1,40,100,4
1,38,100,4
1,38,100,4
1,38,100,4
1,38,100,4
1,38,100,4
1,31,100,4
1,31,100,4
1,31,100,4
1,31,100,4
1,33,100,4
1,33,100,4
1,33,100,4
1,33,100,4
1,38,100,4
1,38,100,4
1,38,100,4
1,38,100,4
1,38,100,4
1,38,100,4
1,38,100,4
1,38,100,4
1,33,100,4
1,33,100,4
1,33,100,4
1,33,100,4
1,33,100,4
1,33,100,4
1,33,100,4
1,33,100,4
1,38,100,4
1,38,100,4
1,38,100,4
1,38,100,4
1,38,100,4
1,38,100,4
1,38,100,4
1,31,100,4
1,33,100,4
1,33,100,4
1,33,100,4
1,33,100,4
1,33,100,4
1,33,100,4
1,33,100,4
1,33,100,4
1,38,100,4
1,38,100,4
1,38,100,4
1,38,100,4
1,38,100,4
1,38,100,4
1,38,100,4
1,38,100,4
1,35,100,4
1,35,100,4
1,35,100,4
1,35,100,4
1,35,100,4
1,35,100,4
1,35,100,4
1,35,100,4
1,40,100,4
1,40,100,4
1,40,100,4
1,38,100,4
1,38,100,4
1,38,100,4
1,38,100,4
1,38,100,4
1,31,100,4
1,31,100,4
1,31,100,4
1,31,100,4
1,33,100,4
1,33,100,4
1,33,100,4
1,33,100,4
1,38,100,4
1,38,100,4
1,38,100,4
1,38,100,4
1,38,100,4
1,38,100,4
1,38,100,4
1,38,100,4
1,33,100,4
1,33,100,4
1,33,100,4
1,33,100,4
1,33,100,4
1,33,100,4
1,33,100,4
1,33,100,4
1,38,100,4
1,38,100,4
1,38,100,4
1,38,100,4
1,38,100,4
1,38,100,4
1,38,100,4
1,31,100,4
1,33,100,4
1,33,100,4
1,33,100,4
1,33,100,4
1,33,100,4
1,33,100,4
1,33,100,4
1,33,100,4
1,38,100,4
1,38,100,4
1,38,100,4
1,38,100,4
1,38,100,4
1,38,100,4
1,38,100,4
1,38,100,4
1,35,100,4
1,35,100,4
1,35,100,4
1,35,100,4
1,35,100,4
1,35,100,4
1,35,100,4
1,35,100,4
1,40,100,4
1,40,100,4
1,40,100,4
1,38,100,4
1,38,100,4
1,38,100,4
1,38,100,4
1,38,100,4
1,31,100,4
1,31,100,4
1,31,100,4
1,31,100,4
1,33,100,4
1,33,100,4
1,33,100,4
1,33,100,4
1,38,100,4
2,74,100,192
2,74,100,4
2,74,100,4
2,74,100,4
2,73,100,4
2,71,100,4
2,71,100,4
2,71,100,4
2,69,100,4
2,69,100,4
2,73,100,4
2,74,100,4
2,74,100,4
2,74,100,4
2,76,100,4
2,73,100,4
2,71,100,4
2,71,100,4
2,71,100,4
2,71,100,4
2,69,100,4
2,69,100,4
2,69,100,4
2,75,100,388
2,75,100,4
2,75,100,4
2,76,100,4
2,78,100,4
2,78,100,4
2,78,100,4
2,79,100,4
2,79,100,4
2,78,100,4
2,76,100,4
2,74,100,772
2,74,100,4
2,74,100,4
2,74,100,4
2,73,100,4
2,71,100,4
2,71,100,4
2,69,100,4
2,69,100,4
2,66,100,4
2,71,100,4
2,74,100,196
2,74,100,4
2,74,100,4
2,74,100,4
2,73,100,4
2,71,100,4
2,71,100,4
2,71,100,4
2,69,100,4
2,69,100,4
2,73,100,4
2,74,100,4
2,74,100,4
2,74,100,4
2,76,100,4
2,73,100,4
2,71,100,4
2,71,100,4
2,71,100,4
2,71,100,4
2,69,100,4
2,69,100,4
2,75,100,388
2,75,100,4
2,75,100,4
2,76,100,4
2,78,100,4
2,78,100,4
2,78,100,4
2,79,100,4
2,79,100,4
2,78,100,4
2,76,100,4
2,74,100,772
2,74,100,4
2,74,100,4
2,74,100,4
2,73,100,4
2,71,100,4
2,71,100,4
2,69,100,4
2,71,100,4
2,69,100,4
2,76,100,196
2,81,100,0
2,74,100,4
2,81,100,0
2,74,100,4
2,83,100,0
2,74,100,4
2,86,100,0
2,74,100,4
2,83,100,0
2,74,100,4
2,81,100,0
2,73,100,196
2,78,100,0
2,73,100,4
2,81,100,0
2,73,100,4
2,81,100,0
2,73,100,4
2,78,100,0
2,69,100,4
2,76,100,0
2,69,100,4
2,71,100,0
2,69,100,4
2,71,100,0
2,62,100,4
2,69,100,0
2,75,100,4
2,75,100,4
2,75,100,4
2,76,100,4
2,78,100,4
2,78,100,4
2,78,100,4
2,79,100,4
2,79,100,4
2,78,100,4
2,76,100,4
2,71,100,4
2,71,100,4
2,69,100,4
2,74,100,4
2,73,100,4
2,76,100,4
2,74,100,4
2,74,100,6340
2,74,100,4
2,74,100,4
2,74,100,4
2,73,100,4
2,71,100,4
2,71,100,4
2,71,100,4
2,69,100,4
2,69,100,4
2,73,100,4
2,74,100,4
2,74,100,4
2,74,100,4
2,76,100,4
2,73,100,4
2,71,100,4
2,71,100,4
2,71,100,4
2,71,100,4
2,69,100,4
2,69,100,4
2,75,100,388
2,75,100,4
2,75,100,4
2,76,100,4
2,78,100,4
2,78,100,4
2,78,100,4
2,79,100,4
2,79,100,4
2,78,100,4
2,76,100,4
2,74,100,772
2,74,100,4
2,74,100,4
2,74,100,4
2,73,100,4
2,71,100,4
2,71,100,4
2,69,100,4
2,71,100,4
2,69,100,4
2,76,100,196
2,81,100,0
2,74,100,4
2,81,100,0
2,74,100,4
2,83,100,0
2,74,100,4
2,86,100,0
2,74,100,4
2,83,100,0
2,74,100,4
2,81,100,0
2,73,100,196
2,78,100,0
2,73,100,4
2,81,100,0
2,73,100,4
2,81,100,0
2,73,100,4
2,78,100,0
2,69,100,4
2,76,100,0
2,69,100,4
2,71,100,0
2,69,100,4
2,71,100,0
2,62,100,4
2,69,100,0
2,75,100,4
2,75,100,4
2,75,100,4
2,76,100,4
2,78,100,4
2,78,100,4
2,78,100,4
2,79,100,4
2,79,100,4
2,78,100,4
2,76,100,4
2,71,100,4
2,71,100,4
2,69,100,4
2,74,100,4
2,73,100,4
2,76,100,4
2,74,100,4
2,69,100,1536
2,75,100,4
2,75,100,4
2,75,100,4
2,75,100,4
2,76,100,4
2,69,100,196
2,75,100,4
2,75,100,4
2,75,100,4
2,75,100,4
2,76,100,4
2,69,100,196
2,78,100,4
2,78,100,4
2,76,100,4
2,74,100,4
2,74,100,4
2,74,100,4
2,66,100,4
2,66,100,4
2,64,100,4
2,62,100,4
2,62,100,4
2,69,100,388
2,75,100,4
2,75,100,4
2,75,100,4
2,75,100,4
2,76,100,4
2,69,100,196
2,75,100,4
2,75,100,4
2,75,100,4
2,75,100,4
2,76,100,4
2,76,100,4
2,76,100,4
2,78,100,4
2,74,100,12484
2,74,100,4
2,74,100,4
2,74,100,4
2,73,100,4
2,71,100,4
2,71,100,4
2,71,100,4
2,69,100,4
2,69,100,4
2,69,100,4
2,73,100,4
2,74,100,4
2,74,100,4
2,74,100,4
2,76,100,4
2,73,100,4
2,71,100,4
2,71,100,4
2,71,100,4
2,71,100,4
2,69,100,4
2,69,100,4
2,75,100,388
2,75,100,4
2,75,100,4
2,76,100,4
2,78,100,4
2,78,100,4
2,78,100,4
2,79,100,4
2,79,100,4
2,78,100,4
2,76,100,4
2,74,100,772
2,74,100,4
2,74,100,4
2,74,100,4
2,73,100,4
2,71,100,4
2,71,100,4
2,69,100,4
2,71,100,4
2,69,100,4
2,76,100,196
2,81,100,0
2,74,100,4
2,81,100,0
2,74,100,4
2,83,100,0
2,74,100,4
2,86,100,0
2,74,100,4
2,83,100,0
2,74,100,4
2,81,100,0
2,73,100,196
2,78,100,0
2,73,100,4
2,81,100,0
2,73,100,4
2,81,100,0
2,73,100,4
2,78,100,0
2,69,100,4
2,76,100,0
2,69,100,4
2,71,100,0
2,69,100,4
2,71,100,0
2,62,100,4
2,69,100,0
2,75,100,4
2,75,100,4
2,75,100,4
2,76,100,4
2,78,100,4
2,78,100,4
2,78,100,4
2,79,100,4
2,79,100,4
2,78,100,4
2,76,100,4
2,71,100,4
2,71,100,4
2,69,100,4
2,74,100,4
2,73,100,4
2,76,100,4
2,74,100,4
2,69,100,1536
2,81,100,4
2,81,100,4
2,83,100,4
2,86,100,4
2,83,100,4
2,81,100,4
2,81,100,4
2,78,100,4
2,81,100,4
2,81,100,4
2,78,100,4
2,76,100,4
2,71,100,4
2,71,100,4
2,69,100,4
2,75,100,4
2,75,100,4
2,75,100,4
2,76,100,4
2,78,100,4
2,78,100,4
