track,note,velocity,time
1.0,60.0,34.0,2160.0
1.0,65.0,34.0,0.0
1.0,69.0,41.0,0.0
1.0,69.0,0.0,228.0
1.0,65.0,0.0,0.0
1.0,60.0,0.0,0.0
1.0,60.0,38.0,12.0
1.0,65.0,38.0,0.0
1.0,69.0,45.0,0.0
1.0,69.0,0.0,240.0
1.0,65.0,0.0,0.0
1.0,60.0,0.0,0.0
1.0,65.0,35.0,480.0
1.0,69.0,35.0,0.0
1.0,72.0,42.0,0.0
1.0,72.0,0.0,228.0
1.0,69.0,0.0,0.0
1.0,65.0,0.0,0.0
1.0,65.0,38.0,12.0
1.0,69.0,38.0,0.0
1.0,72.0,45.0,0.0
1.0,72.0,0.0,240.0
1.0,69.0,0.0,0.0
1.0,65.0,0.0,0.0
1.0,65.0,34.0,480.0
1.0,70.0,34.0,0.0
1.0,74.0,41.0,0.0
1.0,74.0,0.0,228.0
1.0,70.0,0.0,0.0
1.0,65.0,0.0,0.0
1.0,70.0,39.0,12.0
1.0,74.0,47.0,0.0
1.0,74.0,0.0,240.0
1.0,70.0,0.0,0.0
1.0,65.0,34.0,480.0
1.0,69.0,34.0,0.0
1.0,72.0,40.0,0.0
1.0,72.0,0.0,228.0
1.0,69.0,0.0,0.0
1.0,65.0,0.0,0.0
1.0,65.0,41.0,12.0
1.0,69.0,41.0,0.0
1.0,72.0,49.0,0.0
1.0,72.0,0.0,240.0
1.0,69.0,0.0,0.0
1.0,65.0,0.0,0.0
1.0,72.0,43.0,480.0
1.0,70.0,36.0,0.0
1.0,64.0,36.0,0.0
1.0,64.0,0.0,228.0
1.0,70.0,0.0,0.0
1.0,72.0,0.0,0.0
1.0,64.0,38.0,12.0
1.0,70.0,38.0,0.0
1.0,72.0,45.0,0.0
1.0,72.0,0.0,480.0
1.0,70.0,0.0,0.0
1.0,64.0,0.0,0.0
1.0,60.0,34.0,240.0
1.0,65.0,34.0,0.0
1.0,69.0,41.0,0.0
1.0,69.0,0.0,228.0
1.0,65.0,0.0,0.0
1.0,60.0,0.0,0.0
1.0,60.0,38.0,12.0
1.0,65.0,38.0,0.0
1.0,69.0,45.0,0.0
1.0,69.0,0.0,480.0
1.0,65.0,0.0,0.0
1.0,60.0,0.0,0.0
1.0,60.0,38.0,240.0
1.0,67.0,45.0,0.0
1.0,67.0,0.0,240.0
1.0,60.0,0.0,0.0
1.0,65.0,40.0,240.0
1.0,67.0,40.0,0.0
1.0,71.0,48.0,0.0
1.0,71.0,0.0,240.0
1.0,67.0,0.0,0.0
1.0,65.0,0.0,0.0
1.0,64.0,42.0,240.0
1.0,67.0,42.0,0.0
1.0,72.0,50.0,0.0
1.0,72.0,0.0,228.0
1.0,67.0,0.0,0.0
1.0,64.0,0.0,0.0
1.0,64.0,46.0,12.0
1.0,67.0,46.0,0.0
1.0,72.0,55.0,0.0
1.0,72.0,0.0,480.0
1.0,67.0,0.0,0.0
1.0,64.0,0.0,0.0
1.0,60.0,34.0,240.0
1.0,65.0,34.0,0.0
1.0,69.0,41.0,0.0
1.0,69.0,0.0,228.0
1.0,65.0,0.0,0.0
1.0,60.0,0.0,0.0
1.0,60.0,38.0,12.0
1.0,65.0,38.0,0.0
1.0,69.0,45.0,0.0
1.0,69.0,0.0,240.0
1.0,65.0,0.0,0.0
1.0,60.0,0.0,0.0
1.0,65.0,35.0,480.0
1.0,69.0,35.0,0.0
1.0,72.0,42.0,0.0
1.0,72.0,0.0,228.0
1.0,69.0,0.0,0.0
1.0,65.0,0.0,0.0
1.0,65.0,38.0,12.0
1.0,69.0,38.0,0.0
1.0,72.0,45.0,0.0
1.0,72.0,0.0,240.0
1.0,69.0,0.0,0.0
1.0,65.0,0.0,0.0
1.0,65.0,34.0,480.0
1.0,70.0,34.0,0.0
1.0,74.0,41.0,0.0
1.0,74.0,0.0,228.0
1.0,70.0,0.0,0.0
1.0,65.0,0.0,0.0
1.0,70.0,39.0,12.0
1.0,74.0,47.0,0.0
1.0,74.0,0.0,240.0
1.0,70.0,0.0,0.0
1.0,65.0,34.0,480.0
1.0,69.0,34.0,0.0
1.0,72.0,40.0,0.0
1.0,72.0,0.0,228.0
1.0,69.0,0.0,0.0
1.0,65.0,0.0,0.0
1.0,65.0,41.0,12.0
1.0,69.0,41.0,0.0
1.0,72.0,49.0,0.0
1.0,72.0,0.0,240.0
1.0,69.0,0.0,0.0
1.0,65.0,0.0,0.0
1.0,72.0,43.0,480.0
1.0,70.0,36.0,0.0
1.0,64.0,36.0,0.0
1.0,64.0,0.0,228.0
1.0,70.0,0.0,0.0
1.0,72.0,0.0,0.0
1.0,64.0,38.0,12.0
1.0,70.0,38.0,0.0
1.0,72.0,45.0,0.0
1.0,72.0,0.0,480.0
1.0,70.0,0.0,0.0
1.0,64.0,0.0,0.0
1.0,60.0,34.0,240.0
1.0,65.0,34.0,0.0
1.0,69.0,41.0,0.0
1.0,69.0,0.0,228.0
1.0,65.0,0.0,0.0
1.0,60.0,0.0,0.0
1.0,60.0,38.0,12.0
1.0,65.0,38.0,0.0
1.0,69.0,45.0,0.0
1.0,69.0,0.0,480.0
1.0,65.0,0.0,0.0
1.0,60.0,0.0,0.0
1.0,60.0,45.0,240.0
1.0,67.0,45.0,0.0
1.0,67.0,0.0,240.0
1.0,60.0,0.0,0.0
1.0,65.0,40.0,240.0
1.0,67.0,40.0,0.0
1.0,71.0,48.0,0.0
1.0,71.0,0.0,240.0
1.0,67.0,0.0,0.0
1.0,65.0,0.0,0.0
1.0,64.0,42.0,240.0
1.0,67.0,42.0,0.0
1.0,72.0,50.0,0.0
1.0,72.0,0.0,228.0
1.0,67.0,0.0,0.0
1.0,64.0,0.0,0.0
1.0,64.0,46.0,12.0
1.0,67.0,46.0,0.0
1.0,72.0,55.0,0.0
1.0,72.0,0.0,240.0
1.0,67.0,0.0,0.0
1.0,64.0,0.0,0.0
1.0,60.0,57.0,0.0
1.0,60.0,0.0,240.0
1.0,70.0,62.0,0.0
1.0,60.0,34.0,240.0
1.0,64.0,41.0,0.0
1.0,64.0,0.0,228.0
1.0,60.0,0.0,0.0
1.0,60.0,38.0,12.0
1.0,64.0,45.0,0.0
1.0,64.0,0.0,240.0
1.0,60.0,0.0,0.0
1.0,70.0,0.0,0.0
1.0,69.0,57.0,0.0
1.0,69.0,0.0,240.0
1.0,67.0,63.0,0.0
1.0,58.0,35.0,240.0
1.0,60.0,42.0,0.0
1.0,60.0,0.0,228.0
1.0,58.0,0.0,0.0
1.0,58.0,38.0,12.0
1.0,60.0,45.0,0.0
1.0,60.0,0.0,228.0
1.0,58.0,0.0,0.0
1.0,67.0,0.0,12.0
1.0,60.0,57.0,0.0
1.0,60.0,0.0,240.0
1.0,70.0,63.0,0.0
1.0,70.0,0.0,240.0
1.0,60.0,48.0,0.0
1.0,69.0,57.0,0.0
1.0,69.0,0.0,240.0
1.0,60.0,0.0,0.0
1.0,60.0,53.0,0.0
1.0,67.0,63.0,0.0
1.0,67.0,0.0,240.0
1.0,60.0,0.0,0.0
1.0,59.0,48.0,0.0
1.0,65.0,57.0,0.0
1.0,65.0,0.0,240.0
1.0,59.0,0.0,0.0
1.0,67.0,70.0,0.0
1.0,60.0,40.0,240.0
1.0,60.0,0.0,228.0
1.0,60.0,49.0,12.0
1.0,60.0,0.0,228.0
1.0,67.0,0.0,12.0
1.0,60.0,57.0,0.0
1.0,60.0,0.0,240.0
1.0,65.0,62.0,0.0
1.0,57.0,34.0,240.0
1.0,60.0,41.0,0.0
1.0,60.0,0.0,228.0
1.0,57.0,0.0,0.0
1.0,57.0,38.0,12.0
1.0,60.0,45.0,0.0
1.0,60.0,0.0,228.0
1.0,57.0,0.0,0.0
1.0,65.0,0.0,12.0
1.0,69.0,57.0,0.0
1.0,69.0,0.0,240.0
1.0,72.0,63.0,0.0
1.0,65.0,35.0,240.0
1.0,69.0,42.0,0.0
1.0,69.0,0.0,228.0
1.0,65.0,0.0,0.0
1.0,65.0,38.0,12.0
1.0,69.0,45.0,0.0
1.0,69.0,0.0,228.0
1.0,65.0,0.0,0.0
1.0,72.0,0.0,12.0
1.0,65.0,57.0,0.0
1.0,65.0,0.0,240.0
1.0,70.0,63.0,0.0
1.0,70.0,0.0,240.0
1.0,74.0,57.0,0.0
1.0,65.0,34.0,0.0
1.0,70.0,34.0,0.0
1.0,70.0,0.0,240.0
1.0,65.0,0.0,0.0
1.0,74.0,0.0,0.0
1.0,77.0,55.0,0.0
1.0,77.0,0.0,240.0
1.0,74.0,57.0,0.0
1.0,70.0,39.0,0.0
1.0,65.0,39.0,0.0
1.0,65.0,0.0,240.0
1.0,70.0,0.0,0.0
1.0,74.0,0.0,0.0
1.0,72.0,70.0,0.0
1.0,65.0,34.0,240.0
1.0,69.0,40.0,0.0
1.0,69.0,0.0,228.0
1.0,65.0,0.0,0.0
1.0,65.0,41.0,12.0
1.0,69.0,49.0,0.0
1.0,69.0,0.0,240.0
1.0,65.0,0.0,0.0
1.0,72.0,0.0,0.0
1.0,72.0,43.0,480.0
1.0,70.0,36.0,0.0
1.0,64.0,36.0,0.0
1.0,64.0,0.0,228.0
1.0,70.0,0.0,0.0
1.0,72.0,0.0,0.0
1.0,64.0,38.0,12.0
1.0,70.0,38.0,0.0
1.0,72.0,45.0,0.0
1.0,72.0,0.0,480.0
1.0,70.0,0.0,0.0
1.0,64.0,0.0,0.0
1.0,60.0,34.0,240.0
1.0,65.0,34.0,0.0
1.0,69.0,41.0,0.0
1.0,69.0,0.0,228.0
1.0,65.0,0.0,0.0
1.0,60.0,0.0,0.0
1.0,60.0,38.0,12.0
1.0,65.0,38.0,0.0
1.0,69.0,45.0,0.0
1.0,69.0,0.0,228.0
1.0,65.0,0.0,0.0
1.0,60.0,0.0,0.0
1.0,60.0,38.0,12.0
1.0,65.0,38.0,0.0
1.0,69.0,45.0,0.0
1.0,69.0,0.0,240.0
1.0,65.0,0.0,0.0
1.0,60.0,0.0,0.0
1.0,62.0,38.0,240.0
1.0,67.0,45.0,0.0
1.0,67.0,0.0,240.0
1.0,62.0,0.0,0.0
1.0,58.0,40.0,240.0
1.0,60.0,48.0,0.0
1.0,60.0,0.0,240.0
1.0,58.0,0.0,0.0
1.0,57.0,42.0,240.0
1.0,60.0,42.0,0.0
1.0,65.0,50.0,0.0
1.0,65.0,0.0,228.0
1.0,60.0,0.0,0.0
1.0,57.0,0.0,0.0
1.0,57.0,46.0,12.0
1.0,60.0,46.0,0.0
1.0,65.0,55.0,0.0
1.0,65.0,0.0,228.0
1.0,60.0,0.0,0.0
1.0,57.0,0.0,0.0
1.0,60.0,57.0,12.0
1.0,60.0,0.0,240.0
1.0,70.0,62.0,0.0
1.0,60.0,34.0,240.0
1.0,64.0,41.0,0.0
1.0,64.0,0.0,228.0
1.0,60.0,0.0,0.0
1.0,60.0,38.0,12.0
1.0,64.0,45.0,0.0
1.0,64.0,0.0,240.0
1.0,60.0,0.0,0.0
1.0,70.0,0.0,0.0
1.0,69.0,57.0,0.0
1.0,69.0,0.0,240.0
1.0,67.0,63.0,0.0
1.0,58.0,35.0,240.0
1.0,60.0,42.0,0.0
1.0,60.0,0.0,228.0
1.0,58.0,0.0,0.0
1.0,58.0,38.0,12.0
1.0,60.0,45.0,0.0
1.0,60.0,0.0,228.0
1.0,58.0,0.0,0.0
1.0,67.0,0.0,12.0
1.0,60.0,57.0,0.0
1.0,60.0,0.0,240.0
1.0,70.0,63.0,0.0
1.0,70.0,0.0,240.0
1.0,60.0,48.0,0.0
1.0,69.0,57.0,0.0
1.0,69.0,0.0,240.0
1.0,60.0,0.0,0.0
1.0,60.0,53.0,0.0
1.0,67.0,63.0,0.0
1.0,67.0,0.0,240.0
1.0,60.0,0.0,0.0
1.0,59.0,48.0,0.0
1.0,65.0,57.0,0.0
1.0,65.0,0.0,240.0
1.0,59.0,0.0,0.0
1.0,67.0,70.0,0.0
1.0,60.0,40.0,240.0
1.0,60.0,0.0,228.0
1.0,60.0,49.0,12.0
1.0,60.0,0.0,228.0
1.0,67.0,0.0,12.0
1.0,60.0,57.0,0.0
1.0,60.0,0.0,240.0
1.0,65.0,62.0,0.0
1.0,57.0,34.0,240.0
1.0,60.0,41.0,0.0
1.0,60.0,0.0,228.0
1.0,57.0,0.0,0.0
1.0,57.0,38.0,12.0
1.0,60.0,45.0,0.0
1.0,60.0,0.0,228.0
1.0,57.0,0.0,0.0
1.0,65.0,0.0,12.0
1.0,69.0,57.0,0.0
1.0,69.0,0.0,240.0
1.0,72.0,63.0,0.0
1.0,65.0,35.0,240.0
1.0,69.0,42.0,0.0
1.0,69.0,0.0,228.0
1.0,65.0,0.0,0.0
1.0,65.0,38.0,12.0
1.0,69.0,45.0,0.0
1.0,69.0,0.0,228.0
1.0,65.0,0.0,0.0
1.0,72.0,0.0,12.0
1.0,65.0,57.0,0.0
1.0,65.0,0.0,240.0
1.0,70.0,63.0,0.0
1.0,70.0,0.0,240.0
1.0,74.0,57.0,0.0
1.0,65.0,34.0,0.0
1.0,70.0,34.0,0.0
1.0,70.0,0.0,240.0
1.0,65.0,0.0,0.0
1.0,74.0,0.0,0.0
1.0,77.0,55.0,0.0
1.0,77.0,0.0,240.0
1.0,74.0,57.0,0.0
1.0,70.0,39.0,0.0
1.0,65.0,39.0,0.0
1.0,65.0,0.0,240.0
1.0,70.0,0.0,0.0
1.0,74.0,0.0,0.0
1.0,72.0,70.0,0.0
1.0,65.0,34.0,240.0
1.0,69.0,40.0,0.0
1.0,69.0,0.0,228.0
1.0,65.0,0.0,0.0
1.0,65.0,41.0,12.0
1.0,69.0,49.0,0.0
1.0,69.0,0.0,240.0
1.0,65.0,0.0,0.0
1.0,72.0,0.0,0.0
1.0,72.0,43.0,480.0
1.0,70.0,36.0,0.0
1.0,64.0,36.0,0.0
1.0,64.0,0.0,228.0
1.0,70.0,0.0,0.0
1.0,72.0,0.0,0.0
1.0,64.0,38.0,12.0
1.0,70.0,38.0,0.0
1.0,72.0,45.0,0.0
1.0,72.0,0.0,480.0
1.0,70.0,0.0,0.0
1.0,64.0,0.0,0.0
1.0,60.0,34.0,240.0
1.0,65.0,34.0,0.0
1.0,69.0,41.0,0.0
1.0,69.0,0.0,228.0
1.0,65.0,0.0,0.0
1.0,60.0,0.0,0.0
1.0,60.0,38.0,12.0
1.0,65.0,38.0,0.0
1.0,69.0,45.0,0.0
1.0,69.0,0.0,228.0
1.0,65.0,0.0,0.0
1.0,60.0,0.0,0.0
1.0,60.0,38.0,12.0
1.0,65.0,38.0,0.0
1.0,69.0,45.0,0.0
1.0,69.0,0.0,240.0
1.0,65.0,0.0,0.0
1.0,60.0,0.0,0.0
1.0,62.0,38.0,240.0
1.0,67.0,45.0,0.0
1.0,67.0,0.0,240.0
1.0,62.0,0.0,0.0
1.0,58.0,40.0,240.0
1.0,60.0,48.0,0.0
1.0,60.0,0.0,240.0
1.0,58.0,0.0,0.0
1.0,57.0,42.0,240.0
1.0,60.0,42.0,0.0
1.0,65.0,50.0,0.0
1.0,65.0,0.0,228.0
1.0,60.0,0.0,0.0
1.0,57.0,0.0,0.0
1.0,57.0,46.0,12.0
1.0,60.0,46.0,0.0
1.0,65.0,55.0,0.0
1.0,65.0,0.0,240.0
1.0,60.0,0.0,0.0
1.0,57.0,0.0,0.0
2.0,48.0,50.0,1680.0
2.0,48.0,0.0,240.0
2.0,53.0,54.0,0.0
2.0,53.0,0.0,720.0
2.0,57.0,50.0,0.0
2.0,57.0,0.0,240.0
2.0,60.0,55.0,0.0
2.0,60.0,0.0,720.0
2.0,53.0,50.0,0.0
2.0,53.0,0.0,240.0
2.0,58.0,55.0,0.0
2.0,58.0,0.0,240.0
2.0,62.0,50.0,0.0
2.0,62.0,0.0,240.0
2.0,65.0,55.0,0.0
2.0,65.0,0.0,240.0
2.0,62.0,50.0,0.0
2.0,62.0,0.0,240.0
2.0,60.0,61.0,0.0
2.0,60.0,0.0,720.0
2.0,57.0,52.0,0.0
2.0,57.0,0.0,240.0
2.0,58.0,59.0,0.0
2.0,58.0,0.0,240.0
2.0,55.0,46.0,0.0
2.0,55.0,0.0,240.0
2.0,48.0,44.0,0.0
2.0,48.0,0.0,240.0
2.0,58.0,50.0,0.0
2.0,58.0,0.0,240.0
2.0,57.0,57.0,0.0
2.0,57.0,0.0,240.0
2.0,53.0,45.0,0.0
2.0,53.0,0.0,240.0
2.0,48.0,45.0,0.0
2.0,48.0,0.0,240.0
2.0,57.0,45.0,0.0
2.0,57.0,0.0,240.0
2.0,52.0,54.0,0.0
2.0,52.0,0.0,480.0
2.0,50.0,55.0,0.0
2.0,50.0,0.0,480.0
2.0,48.0,57.0,0.0
2.0,48.0,0.0,480.0
2.0,48.0,50.0,240.0
2.0,48.0,0.0,240.0
2.0,53.0,54.0,0.0
2.0,53.0,0.0,720.0
2.0,57.0,50.0,0.0
2.0,57.0,0.0,240.0
2.0,60.0,55.0,0.0
2.0,60.0,0.0,720.0
2.0,53.0,50.0,0.0
2.0,53.0,0.0,240.0
2.0,58.0,55.0,0.0
2.0,58.0,0.0,240.0
2.0,62.0,50.0,0.0
2.0,62.0,0.0,240.0
2.0,65.0,55.0,0.0
2.0,65.0,0.0,240.0
2.0,62.0,50.0,0.0
2.0,62.0,0.0,240.0
2.0,60.0,61.0,0.0
2.0,60.0,0.0,720.0
2.0,57.0,52.0,0.0
2.0,57.0,0.0,240.0
2.0,58.0,59.0,0.0
2.0,58.0,0.0,240.0
2.0,55.0,46.0,0.0
2.0,55.0,0.0,240.0
2.0,48.0,44.0,0.0
2.0,48.0,0.0,240.0
2.0,58.0,50.0,0.0
2.0,58.0,0.0,240.0
2.0,57.0,57.0,0.0
2.0,57.0,0.0,240.0
2.0,53.0,45.0,0.0
2.0,53.0,0.0,240.0
2.0,48.0,45.0,0.0
2.0,48.0,0.0,240.0
2.0,57.0,45.0,0.0
2.0,57.0,0.0,240.0
2.0,52.0,54.0,0.0
2.0,52.0,0.0,480.0
2.0,50.0,55.0,0.0
2.0,50.0,0.0,480.0
2.0,48.0,57.0,0.0
2.0,48.0,0.0,480.0
2.0,48.0,50.0,240.0
2.0,48.0,0.0,240.0
2.0,55.0,54.0,0.0
2.0,55.0,0.0,720.0
2.0,53.0,50.0,0.0
2.0,53.0,0.0,240.0
2.0,52.0,55.0,0.0
2.0,52.0,0.0,720.0
2.0,48.0,50.0,0.0
2.0,48.0,0.0,240.0
2.0,55.0,55.0,0.0
2.0,55.0,0.0,240.0
2.0,53.0,42.0,0.0
2.0,53.0,0.0,240.0
2.0,52.0,46.0,0.0
2.0,52.0,0.0,240.0
2.0,50.0,42.0,0.0
2.0,50.0,0.0,240.0
2.0,48.0,61.0,0.0
2.0,48.0,0.0,720.0
2.0,48.0,50.0,0.0
2.0,48.0,0.0,240.0
2.0,53.0,54.0,0.0
2.0,53.0,0.0,720.0
2.0,57.0,50.0,0.0
2.0,57.0,0.0,240.0
2.0,60.0,55.0,0.0
2.0,60.0,0.0,720.0
2.0,53.0,50.0,0.0
2.0,53.0,0.0,240.0
2.0,58.0,55.0,0.0
2.0,58.0,0.0,240.0
2.0,62.0,50.0,0.0
2.0,62.0,0.0,240.0
2.0,65.0,55.0,0.0
2.0,65.0,0.0,240.0
2.0,62.0,50.0,0.0
2.0,62.0,0.0,240.0
2.0,60.0,61.0,0.0
2.0,60.0,0.0,720.0
2.0,57.0,52.0,0.0
2.0,57.0,0.0,240.0
2.0,58.0,59.0,0.0
2.0,58.0,0.0,240.0
2.0,55.0,46.0,0.0
2.0,55.0,0.0,240.0
2.0,48.0,44.0,0.0
2.0,48.0,0.0,240.0
2.0,58.0,50.0,0.0
2.0,58.0,0.0,240.0
2.0,57.0,57.0,0.0
2.0,57.0,0.0,240.0
2.0,53.0,45.0,0.0
2.0,53.0,0.0,240.0
2.0,48.0,45.0,0.0
2.0,48.0,0.0,240.0
2.0,57.0,45.0,0.0
2.0,57.0,0.0,240.0
2.0,46.0,54.0,0.0
2.0,55.0,54.0,0.0
2.0,55.0,0.0,480.0
2.0,46.0,0.0,0.0
2.0,48.0,55.0,0.0
2.0,52.0,55.0,0.0
2.0,52.0,0.0,480.0
2.0,48.0,0.0,0.0
2.0,53.0,57.0,0.0
2.0,53.0,0.0,480.0
2.0,48.0,50.0,240.0
2.0,48.0,0.0,240.0
2.0,55.0,54.0,0.0
2.0,55.0,0.0,720.0
2.0,53.0,50.0,0.0
2.0,53.0,0.0,240.0
2.0,52.0,55.0,0.0
2.0,52.0,0.0,720.0
2.0,48.0,50.0,0.0
2.0,48.0,0.0,240.0
2.0,55.0,55.0,0.0
2.0,55.0,0.0,240.0
2.0,53.0,42.0,0.0
2.0,53.0,0.0,240.0
2.0,52.0,46.0,0.0
2.0,52.0,0.0,240.0
2.0,50.0,42.0,0.0
2.0,50.0,0.0,240.0
2.0,48.0,61.0,0.0
2.0,48.0,0.0,720.0
2.0,48.0,50.0,0.0
2.0,48.0,0.0,240.0
2.0,53.0,54.0,0.0
2.0,53.0,0.0,720.0
2.0,57.0,50.0,0.0
2.0,57.0,0.0,240.0
2.0,60.0,55.0,0.0
2.0,60.0,0.0,720.0
2.0,53.0,50.0,0.0
2.0,53.0,0.0,240.0
2.0,58.0,55.0,0.0
2.0,58.0,0.0,240.0
2.0,62.0,50.0,0.0
2.0,62.0,0.0,240.0
2.0,65.0,55.0,0.0
2.0,65.0,0.0,240.0
2.0,62.0,50.0,0.0
2.0,62.0,0.0,240.0
2.0,60.0,61.0,0.0
2.0,60.0,0.0,720.0
2.0,57.0,52.0,0.0
2.0,57.0,0.0,240.0
2.0,58.0,59.0,0.0
2.0,58.0,0.0,240.0
2.0,55.0,46.0,0.0
2.0,55.0,0.0,240.0
2.0,48.0,44.0,0.0
2.0,48.0,0.0,240.0
2.0,58.0,50.0,0.0
2.0,58.0,0.0,240.0
2.0,57.0,57.0,0.0
2.0,57.0,0.0,240.0
2.0,53.0,45.0,0.0
2.0,53.0,0.0,240.0
2.0,48.0,45.0,0.0
2.0,48.0,0.0,240.0
2.0,57.0,45.0,0.0
2.0,57.0,0.0,240.0
2.0,46.0,54.0,0.0
2.0,55.0,54.0,0.0
2.0,55.0,0.0,480.0
2.0,46.0,0.0,0.0
2.0,48.0,55.0,0.0
2.0,52.0,55.0,0.0
2.0,52.0,0.0,480.0
2.0,48.0,0.0,0.0
2.0,53.0,57.0,0.0
2.0,53.0,0.0,480.0
0.0,0.0,0.0,0.0
0.0,0.0,0.0,0.0
0.0,0.0,0.0,0.0
0.0,0.0,0.0,0.0
0.0,0.0,0.0,0.0
0.0,0.0,0.0,0.0
0.0,0.0,0.0,0.0
0.0,0.0,0.0,0.0
0.0,0.0,0.0,0.0
0.0,0.0,0.0,0.0
0.0,0.0,0.0,0.0
0.0,0.0,0.0,0.0
0.0,0.0,0.0,0.0
0.0,0.0,0.0,0.0
0.0,0.0,0.0,0.0
0.0,0.0,0.0,0.0
0.0,0.0,0.0,0.0
0.0,0.0,0.0,0.0
0.0,0.0,0.0,0.0
0.0,0.0,0.0,0.0
0.0,0.0,0.0,0.0
0.0,0.0,0.0,0.0
0.0,0.0,0.0,0.0
0.0,0.0,0.0,0.0
0.0,0.0,0.0,0.0
0.0,0.0,0.0,0.0
0.0,0.0,0.0,0.0
0.0,0.0,0.0,0.0
0.0,0.0,0.0,0.0
0.0,0.0,0.0,0.0
0.0,0.0,0.0,0.0
0.0,0.0,0.0,0.0
0.0,0.0,0.0,0.0
0.0,0.0,0.0,0.0
0.0,0.0,0.0,0.0
0.0,0.0,0.0,0.0
0.0,0.0,0.0,0.0
0.0,0.0,0.0,0.0
0.0,0.0,0.0,0.0
0.0,0.0,0.0,0.0
0.0,0.0,0.0,0.0
0.0,0.0,0.0,0.0
0.0,0.0,0.0,0.0
0.0,0.0,0.0,0.0
0.0,0.0,0.0,0.0
0.0,0.0,0.0,0.0
0.0,0.0,0.0,0.0
0.0,0.0,0.0,0.0
0.0,0.0,0.0,0.0
0.0,0.0,0.0,0.0
0.0,0.0,0.0,0.0
0.0,0.0,0.0,0.0
0.0,0.0,0.0,0.0
0.0,0.0,0.0,0.0
0.0,0.0,0.0,0.0
0.0,0.0,0.0,0.0
0.0,0.0,0.0,0.0
0.0,0.0,0.0,0.0
0.0,0.0,0.0,0.0
0.0,0.0,0.0,0.0
0.0,0.0,0.0,0.0
0.0,0.0,0.0,0.0
0.0,0.0,0.0,0.0
0.0,0.0,0.0,0.0
0.0,0.0,0.0,0.0
0.0,0.0,0.0,0.0
0.0,0.0,0.0,0.0
0.0,0.0,0.0,0.0
0.0,0.0,0.0,0.0
0.0,0.0,0.0,0.0
0.0,0.0,0.0,0.0
0.0,0.0,0.0,0.0
0.0,0.0,0.0,0.0
0.0,0.0,0.0,0.0
0.0,0.0,0.0,0.0
0.0,0.0,0.0,0.0
0.0,0.0,0.0,0.0
0.0,0.0,0.0,0.0
0.0,0.0,0.0,0.0
0.0,0.0,0.0,0.0
0.0,0.0,0.0,0.0
0.0,0.0,0.0,0.0
0.0,0.0,0.0,0.0
0.0,0.0,0.0,0.0
0.0,0.0,0.0,0.0
0.0,0.0,0.0,0.0
0.0,0.0,0.0,0.0
0.0,0.0,0.0,0.0
0.0,0.0,0.0,0.0
0.0,0.0,0.0,0.0
0.0,0.0,0.0,0.0
0.0,0.0,0.0,0.0
0.0,0.0,0.0,0.0
0.0,0.0,0.0,0.0
0.0,0.0,0.0,0.0
0.0,0.0,0.0,0.0
0.0,0.0,0.0,0.0
0.0,0.0,0.0,0.0
0.0,0.0,0.0,0.0
0.0,0.0,0.0,0.0
0.0,0.0,0.0,0.0
0.0,0.0,0.0,0.0
0.0,0.0,0.0,0.0
0.0,0.0,0.0,0.0
0.0,0.0,0.0,0.0
0.0,0.0,0.0,0.0
0.0,0.0,0.0,0.0
0.0,0.0,0.0,0.0
0.0,0.0,0.0,0.0
0.0,0.0,0.0,0.0
0.0,0.0,0.0,0.0
0.0,0.0,0.0,0.0
0.0,0.0,0.0,0.0
0.0,0.0,0.0,0.0
0.0,0.0,0.0,0.0
0.0,0.0,0.0,0.0
0.0,0.0,0.0,0.0
0.0,0.0,0.0,0.0
0.0,0.0,0.0,0.0
0.0,0.0,0.0,0.0
0.0,0.0,0.0,0.0
0.0,0.0,0.0,0.0
0.0,0.0,0.0,0.0
0.0,0.0,0.0,0.0
0.0,0.0,0.0,0.0
0.0,0.0,0.0,0.0
0.0,0.0,0.0,0.0
0.0,0.0,0.0,0.0
0.0,0.0,0.0,0.0
0.0,0.0,0.0,0.0
0.0,0.0,0.0,0.0
0.0,0.0,0.0,0.0
0.0,0.0,0.0,0.0
0.0,0.0,0.0,0.0
0.0,0.0,0.0,0.0
0.0,0.0,0.0,0.0
0.0,0.0,0.0,0.0
0.0,0.0,0.0,0.0
0.0,0.0,0.0,0.0
0.0,0.0,0.0,0.0
0.0,0.0,0.0,0.0
0.0,0.0,0.0,0.0
0.0,0.0,0.0,0.0
0.0,0.0,0.0,0.0
0.0,0.0,0.0,0.0
0.0,0.0,0.0,0.0
0.0,0.0,0.0,0.0
0.0,0.0,0.0,0.0
0.0,0.0,0.0,0.0
0.0,0.0,0.0,0.0
0.0,0.0,0.0,0.0
0.0,0.0,0.0,0.0
0.0,0.0,0.0,0.0
0.0,0.0,0.0,0.0
0.0,0.0,0.0,0.0
0.0,0.0,0.0,0.0
0.0,0.0,0.0,0.0
0.0,0.0,0.0,0.0
0.0,0.0,0.0,0.0
0.0,0.0,0.0,0.0
0.0,0.0,0.0,0.0
0.0,0.0,0.0,0.0
0.0,0.0,0.0,0.0
0.0,0.0,0.0,0.0
0.0,0.0,0.0,0.0
0.0,0.0,0.0,0.0
0.0,0.0,0.0,0.0
0.0,0.0,0.0,0.0
0.0,0.0,0.0,0.0
0.0,0.0,0.0,0.0
0.0,0.0,0.0,0.0
0.0,0.0,0.0,0.0
0.0,0.0,0.0,0.0
0.0,0.0,0.0,0.0
0.0,0.0,0.0,0.0
0.0,0.0,0.0,0.0
0.0,0.0,0.0,0.0
0.0,0.0,0.0,0.0
0.0,0.0,0.0,0.0
0.0,0.0,0.0,0.0
0.0,0.0,0.0,0.0
0.0,0.0,0.0,0.0
0.0,0.0,0.0,0.0
0.0,0.0,0.0,0.0
0.0,0.0,0.0,0.0
0.0,0.0,0.0,0.0
0.0,0.0,0.0,0.0
0.0,0.0,0.0,0.0
0.0,0.0,0.0,0.0
0.0,0.0,0.0,0.0
0.0,0.0,0.0,0.0
0.0,0.0,0.0,0.0
0.0,0.0,0.0,0.0
0.0,0.0,0.0,0.0
0.0,0.0,0.0,0.0
0.0,0.0,0.0,0.0
0.0,0.0,0.0,0.0
0.0,0.0,0.0,0.0
0.0,0.0,0.0,0.0
0.0,0.0,0.0,0.0
0.0,0.0,0.0,0.0
0.0,0.0,0.0,0.0
0.0,0.0,0.0,0.0
0.0,0.0,0.0,0.0
0.0,0.0,0.0,0.0
0.0,0.0,0.0,0.0
0.0,0.0,0.0,0.0
0.0,0.0,0.0,0.0
0.0,0.0,0.0,0.0
0.0,0.0,0.0,0.0
0.0,0.0,0.0,0.0
0.0,0.0,0.0,0.0
0.0,0.0,0.0,0.0
0.0,0.0,0.0,0.0
0.0,0.0,0.0,0.0
0.0,0.0,0.0,0.0
0.0,0.0,0.0,0.0
0.0,0.0,0.0,0.0
0.0,0.0,0.0,0.0
0.0,0.0,0.0,0.0
0.0,0.0,0.0,0.0
0.0,0.0,0.0,0.0
0.0,0.0,0.0,0.0
0.0,0.0,0.0,0.0
0.0,0.0,0.0,0.0
0.0,0.0,0.0,0.0
0.0,0.0,0.0,0.0
0.0,0.0,0.0,0.0
0.0,0.0,0.0,0.0
0.0,0.0,0.0,0.0
0.0,0.0,0.0,0.0
0.0,0.0,0.0,0.0
0.0,0.0,0.0,0.0
0.0,0.0,0.0,0.0
0.0,0.0,0.0,0.0
0.0,0.0,0.0,0.0
0.0,0.0,0.0,0.0
0.0,0.0,0.0,0.0
0.0,0.0,0.0,0.0
0.0,0.0,0.0,0.0
0.0,0.0,0.0,0.0
0.0,0.0,0.0,0.0
0.0,0.0,0.0,0.0
0.0,0.0,0.0,0.0
0.0,0.0,0.0,0.0
0.0,0.0,0.0,0.0
0.0,0.0,0.0,0.0
0.0,0.0,0.0,0.0
0.0,0.0,0.0,0.0
0.0,0.0,0.0,0.0
0.0,0.0,0.0,0.0
0.0,0.0,0.0,0.0
0.0,0.0,0.0,0.0
0.0,0.0,0.0,0.0
0.0,0.0,0.0,0.0
0.0,0.0,0.0,0.0
0.0,0.0,0.0,0.0
0.0,0.0,0.0,0.0
0.0,0.0,0.0,0.0
0.0,0.0,0.0,0.0
0.0,0.0,0.0,0.0
0.0,0.0,0.0,0.0
0.0,0.0,0.0,0.0
0.0,0.0,0.0,0.0
0.0,0.0,0.0,0.0
0.0,0.0,0.0,0.0
0.0,0.0,0.0,0.0
0.0,0.0,0.0,0.0
0.0,0.0,0.0,0.0
0.0,0.0,0.0,0.0
0.0,0.0,0.0,0.0
0.0,0.0,0.0,0.0
0.0,0.0,0.0,0.0
0.0,0.0,0.0,0.0
0.0,0.0,0.0,0.0
0.0,0.0,0.0,0.0
0.0,0.0,0.0,0.0
0.0,0.0,0.0,0.0
0.0,0.0,0.0,0.0
0.0,0.0,0.0,0.0
0.0,0.0,0.0,0.0
0.0,0.0,0.0,0.0
0.0,0.0,0.0,0.0
0.0,0.0,0.0,0.0
0.0,0.0,0.0,0.0
0.0,0.0,0.0,0.0
0.0,0.0,0.0,0.0
0.0,0.0,0.0,0.0
0.0,0.0,0.0,0.0
0.0,0.0,0.0,0.0
0.0,0.0,0.0,0.0
0.0,0.0,0.0,0.0
0.0,0.0,0.0,0.0
0.0,0.0,0.0,0.0
0.0,0.0,0.0,0.0
0.0,0.0,0.0,0.0
