track,note,velocity,time
0,35,92,0
0,63,106,1
0,63,0,38
0,35,0,21
0,47,71,0
0,63,79,1
0,59,77,1
0,71,81,0
0,71,0,56
0,47,0,2
0,35,73,0
0,59,0,1
0,63,0,1
0,63,63,42
0,69,74,9
0,59,66,0
0,35,0,7
0,47,74,0
0,47,0,60
0,35,79,0
0,35,0,60
0,47,83,1
0,63,0,17
0,69,0,4
0,59,0,7
0,61,91,28
0,47,0,4
0,35,88,0
0,61,0,53
0,62,79,0
0,47,79,6
0,35,0,1
0,63,105,56
0,47,0,3
0,35,89,0
0,62,0,6
0,63,0,30
0,63,72,23
0,59,67,0
0,35,0,1
0,71,75,0
0,47,77,0
0,71,0,55
0,63,0,4
0,59,0,1
0,47,0,0
0,35,89,0
0,63,80,57
0,69,81,1
0,59,79,0
0,35,0,2
0,47,73,1
0,35,78,59
0,47,0,1
0,35,0,59
0,47,82,1
0,63,0,56
0,59,0,1
0,35,88,2
0,69,0,1
0,47,0,0
0,35,0,59
0,47,83,1
0,62,56,30
0,66,60,8
0,71,92,17
0,38,90,4
0,47,0,1
0,66,0,39
0,71,0,5
0,62,0,1
0,66,79,10
0,71,75,0
0,62,74,0
0,38,0,4
0,50,57,0
0,62,0,27
0,71,0,0
0,66,0,2
0,62,85,28
0,66,93,1
0,69,91,0
0,50,0,2
0,38,84,0
0,62,0,30
0,66,0,0
0,69,0,1
0,66,76,25
0,69,76,1
0,62,70,0
0,38,0,3
0,50,75,0
0,62,0,25
0,69,0,0
0,66,0,1
0,66,87,32
0,71,88,1
0,62,81,0
0,50,0,1
0,38,86,0
0,62,0,29
0,66,0,2
0,71,0,1
0,66,77,27
0,71,74,0
0,38,0,1
0,62,73,0
0,50,84,1
0,62,0,27
0,71,0,2
0,66,0,1
0,66,89,29
0,50,0,1
0,69,87,0
0,62,84,0
0,38,83,0
0,69,0,31
0,66,0,2
0,62,0,1
0,50,81,25
0,38,0,1
0,62,81,0
0,50,0,59
0,35,85,0
0,63,102,2
0,62,0,8
0,63,0,49
0,35,0,1
0,59,82,0
0,47,47,0
0,47,0,60
0,58,111,0
0,35,78,0
0,59,0,9
0,57,87,48
0,35,0,3
0,47,72,1
0,58,0,1
0,35,78,58
0,47,0,1
0,35,0,59
0,40,80,0
0,47,74,1
0,57,0,23
0,40,0,6
0,40,82,0
0,40,0,30
0,35,86,0
0,40,83,0
0,47,0,1
0,40,0,29
0,40,85,0
0,35,0,30
0,40,87,0
0,47,83,1
0,40,0,29
0,40,0,0
0,40,89,0
0,40,0,30
0,35,97,0
0,35,97,0
0,49,70,0
0,35,84,0
0,47,0,1
0,63,106,0
0,49,0,13
0,35,0,16
0,63,0,9
0,35,0,21
0,35,0,0
0,47,87,0
0,35,67,0
0,63,79,1
0,59,77,1
0,71,81,0
0,35,0,28
0,71,0,28
0,47,0,2
0,35,88,0
0,35,86,0
0,35,84,0
0,59,0,1
0,63,0,1
0,35,0,28
0,63,63,14
0,69,74,9
0,59,66,0
0,35,0,7
0,35,0,0
0,47,85,0
0,35,76,0
0,35,0,30
0,47,0,30
0,35,96,0
0,35,83,0
0,35,84,0
0,35,0,30
0,35,0,30
0,35,0,0
0,35,79,0
0,47,85,1
0,63,0,17
0,69,0,4
0,59,0,7
0,35,0,1
0,61,91,27
0,35,83,3
0,35,84,0
0,47,0,1
0,35,92,0
0,35,0,29
0,61,0,24
0,62,79,0
0,35,0,6
0,47,86,0
0,35,79,0
0,35,0,1
0,35,0,29
0,63,105,27
0,47,0,3
0,35,100,0
0,35,83,0
0,35,84,0
0,62,0,6
0,35,0,24
0,63,0,6
0,63,72,23
0,59,67,0
0,35,0,1
0,35,0,0
0,47,85,0
0,71,75,0
0,35,80,0
0,35,0,30
0,71,0,25
0,63,0,4
0,47,0,1
0,59,0,0
0,35,93,0
0,35,86,0
0,35,84,0
0,35,0,30
0,63,80,27
0,69,81,1
0,59,79,0
0,35,0,2
0,35,0,0
0,35,85,0
0,47,91,1
0,35,0,29
0,35,90,30
0,35,88,0
0,35,84,0
0,47,0,1
0,35,0,29
0,35,0,30
0,35,0,0
0,35,83,0
0,47,92,1
0,35,0,29
0,63,0,27
0,59,0,1
0,35,101,2
0,37,97,0
0,35,84,0
0,69,0,1
0,47,0,0
0,37,0,29
0,35,0,30
0,35,0,0
0,37,100,0
0,47,92,1
0,37,0,29
0,71,89,28
0,66,96,0
0,62,90,0
0,38,93,2
0,38,86,0
0,35,84,0
0,47,0,1
0,62,0,29
0,66,0,0
0,38,0,0
0,71,0,2
0,66,79,24
0,71,75,0
0,62,74,0
0,38,0,4
0,35,0,0
0,50,83,0
0,38,92,0
0,71,0,27
0,62,0,0
0,66,0,2
0,38,0,1
0,62,85,27
0,66,93,1
0,69,91,0
0,50,0,2
0,38,92,0
0,38,90,0
0,35,84,0
0,38,0,30
0,62,0,0
0,66,0,0
0,69,0,1
0,66,76,25
0,69,76,1
0,62,70,0
0,35,0,3
0,38,0,0
0,50,82,0
0,38,94,0
0,69,0,25
0,62,0,0
0,66,0,1
0,38,0,4
0,66,87,28
0,71,88,1
0,62,81,0
0,50,0,1
0,38,80,0
0,38,92,0
0,35,84,0
0,62,0,29
0,38,0,1
0,66,0,1
0,71,0,1
0,66,77,27
0,71,74,0
0,38,0,1
0,35,0,0
0,62,73,0
0,38,88,0
0,50,81,1
0,62,0,27
0,38,0,2
0,71,0,0
0,66,0,1
0,66,89,29
0,38,92,0
0,35,84,0
0,50,0,1
0,38,88,0
0,69,87,0
0,62,84,0
0,38,0,29
0,69,0,2
0,66,0,2
0,62,0,1
0,35,0,25
0,50,89,0
0,38,94,0
0,38,0,1
0,62,81,0
0,38,0,29
0,50,0,30
0,35,89,0
0,47,103,0
0,38,33,0
0,63,102,2
0,62,0,8
0,38,0,5
0,38,33,0
0,38,0,15
0,47,0,0
0,47,103,0
0,38,33,0
0,38,0,15
0,38,33,0
0,63,0,14
0,35,0,1
0,47,0,0
0,38,0,0
0,47,77,0
0,59,82,0
0,47,104,0
0,40,75,0
0,40,0,15
0,47,0,15
0,47,104,0
0,48,100,0
0,48,0,15
0,47,0,15
0,47,0,0
0,35,82,0
0,58,111,0
0,38,33,0
0,59,0,9
0,38,0,6
0,38,33,0
0,38,0,15
0,40,75,0
0,40,0,15
0,57,87,12
0,35,0,3
0,47,104,0
0,47,104,0
0,48,100,0
0,47,89,1
0,58,0,1
0,48,0,13
0,47,0,15
0,47,0,0
0,47,104,0
0,38,33,0
0,38,0,15
0,38,33,0
0,38,0,15
0,47,0,0
0,35,91,0
0,47,104,0
0,40,75,0
0,47,0,1
0,40,0,14
0,47,0,15
0,47,104,0
0,48,100,0
0,48,0,15
0,47,0,15
0,35,0,0
0,38,33,0
0,59,83,1
0,47,83,0
0,71,83,1
0,38,0,13
0,38,33,0
0,57,0,9
0,38,0,6
0,38,33,0
0,38,0,15
0,38,33,0
0,38,0,15
0,35,107,0
0,40,75,0
0,47,0,1
0,60,107,2
0,72,107,1
0,71,0,2
0,59,0,1
0,40,0,8
0,48,100,5
0,47,93,13
0,47,93,0
0,48,0,2
0,45,100,5
0,45,0,15
0,73,89,4
0,61,89,0
0,35,0,1
0,35,100,0
0,45,93,1
0,45,93,0
0,60,0,4
0,72,0,3
0,47,0,0
0,47,0,0
0,35,0,7
0,42,93,13
0,42,93,0
0,45,0,3
0,45,0,0
0,40,93,14
0,40,93,0
0,42,0,7
0,42,0,0
0,61,0,1
0,73,0,0
0,38,93,0
0,38,93,0
0,35,88,0
0,46,92,0
0,40,0,8
0,40,0,0
0,38,0,22
0,38,0,0
0,46,0,0
0,38,97,27
0,38,93,0
0,35,0,3
0,66,97,0
0,62,97,0
0,69,97,0
0,35,99,0
0,66,109,6
0,69,0,24
0,62,0,0
0,66,0,0
0,66,0,5
0,35,0,25
0,66,97,0
0,62,97,0
0,69,97,0
0,40,117,0
0,42,81,0
0,35,84,0
0,66,104,8
0,42,0,22
0,62,0,0
0,66,0,0
0,69,0,0
0,66,0,7
0,38,0,20
0,38,0,0
0,35,0,3
0,40,0,0
0,66,97,0
0,62,97,0
0,69,97,0
0,42,73,0
0,64,104,6
0,42,0,24
0,69,0,0
0,66,0,0
0,62,0,0
0,37,93,0
0,64,0,2
0,37,0,13
0,38,97,8
0,38,93,0
0,62,97,7
0,66,97,0
0,69,97,0
0,35,107,0
0,42,92,0
0,64,101,4
0,38,0,24
0,38,0,0
0,62,0,2
0,66,0,0
0,69,0,0
0,42,0,0
0,38,97,22
0,38,93,0
0,64,0,4
0,62,73,0
0,35,0,4
0,66,97,0
0,62,97,0
0,69,97,0
0,42,77,0
0,35,99,0
0,42,0,30
0,66,0,0
0,62,0,0
0,69,0,0
0,64,94,28
0,62,0,2
0,35,0,0
0,66,97,0
0,62,97,0
0,69,97,0
0,40,117,0
0,42,89,0
0,42,0,30
0,69,0,0
0,66,0,0
0,62,0,0
0,66,97,30
0,62,97,0
0,69,97,0
0,42,84,0
0,38,0,7
0,38,0,0
0,64,0,9
0,69,0,14
0,66,0,0
0,42,0,0
0,62,0,0
0,31,97,22
0,31,93,0
0,40,0,8
0,66,97,0
0,64,97,0
0,69,97,0
0,35,101,0
0,42,89,0
0,64,104,15
0,31,0,10
0,31,0,0
0,66,0,5
0,64,0,0
0,69,0,0
0,42,0,0
0,31,97,24
0,31,93,0
0,35,0,6
0,64,97,0
0,66,97,0
0,69,97,0
0,35,101,0
0,42,81,0
0,62,82,11
0,64,0,2
0,42,0,17
0,66,0,0
0,64,0,0
0,69,0,0
0,35,0,30
0,66,97,0
0,64,97,0
0,69,97,0
0,40,117,0
0,42,86,0
0,64,80,3
0,62,0,5
0,42,0,22
0,64,0,0
0,66,0,0
0,69,0,0
0,40,0,30
0,66,97,0
0,64,97,0
0,69,97,0
0,42,81,0
0,31,0,9
0,31,0,0
0,62,85,0
0,64,0,5
0,69,0,16
0,64,0,0
0,66,0,0
0,42,0,0
0,30,93,2
0,40,60,5
0,30,0,16
0,31,97,3
0,31,93,0
0,42,89,4
0,35,101,0
0,66,97,1
0,64,90,2
0,64,97,0
0,69,97,0
0,62,0,6
0,42,0,21
0,31,0,1
0,31,0,0
0,40,0,6
0,66,0,9
0,69,0,2
0,64,0,0
0,35,0,12
0,31,97,0
0,31,93,0
0,35,101,0
0,42,79,0
0,62,94,7
0,64,0,4
0,42,0,19
0,35,0,30
0,42,86,0
0,40,117,0
0,66,119,4
0,69,97,0
0,66,97,2
0,64,97,0
0,62,0,8
0,42,0,16
0,66,0,18
0,64,0,1
0,69,0,3
0,40,0,8
0,31,0,0
0,31,0,0
0,42,79,0
0,42,0,30
0,66,0,13
0,64,97,10
0,62,97,1
0,67,97,1
0,40,97,1
0,40,93,0
0,35,104,4
0,42,92,0
0,64,110,12
0,67,0,8
0,64,0,0
0,62,0,0
0,40,0,9
0,40,0,0
0,42,0,1
0,64,0,18
0,64,97,7
0,40,97,2
0,67,97,0
0,40,93,0
0,62,97,1
0,35,0,2
0,42,75,0
0,35,107,0
0,64,107,12
0,42,0,18
0,64,0,8
0,64,0,3
0,67,0,0
0,62,0,1
0,35,0,18
0,40,117,0
0,42,96,0
0,64,110,9
0,42,0,21
0,64,0,6
0,40,0,21
0,40,0,0
0,40,0,3
0,42,86,0
0,64,113,4
0,39,93,24
0,64,0,2
0,42,0,0
0,40,60,6
0,39,0,15
0,64,97,5
0,67,97,1
0,40,97,1
0,62,97,0
0,40,93,0
0,35,110,2
0,42,92,0
0,64,107,6
0,64,0,11
0,62,0,1
0,67,0,3
0,42,0,9
0,40,0,2
0,40,0,0
0,40,0,4
0,64,0,1
0,40,97,20
0,40,93,0
0,64,97,1
0,35,0,2
0,67,97,0
0,62,97,0
0,42,96,0
0,35,110,0
0,64,107,4
0,42,0,26
0,64,0,1
0,35,0,29
0,42,89,0
0,40,107,0
0,62,113,4
0,42,0,26
0,62,0,14
0,67,0,3
0,64,0,5
0,62,0,3
0,40,0,2
0,40,0,0
0,42,86,3
0,62,110,8
0,42,0,22
0,35,97,20
0,35,93,3
0,40,0,0
0,35,110,0
0,42,92,0
0,35,0,26
0,47,97,1
0,42,0,3
0,35,0,2
0,62,0,6
0,35,93,21
0,35,0,1
0,35,101,0
0,42,84,0
0,47,0,12
0,35,97,15
0,42,0,3
0,59,97,26
0,64,97,1
0,35,0,2
0,35,0,0
0,47,97,0
0,35,0,1
0,42,92,0
0,40,113,0
0,42,0,30
0,47,0,24
0,35,97,5
0,40,0,1
0,42,89,0
0,59,0,1
0,62,97,1
0,64,0,7
0,34,93,20
0,42,0,1
0,47,97,4
0,35,0,1
0,62,0,9
0,34,0,7
0,35,52,4
0,62,97,4
0,35,110,1
0,42,92,0
0,47,0,29
0,35,97,0
0,42,0,1
0,35,0,11
0,35,97,14
0,35,95,0
0,35,0,5
0,40,113,0
0,42,92,0
0,35,0,2
0,63,97,0
0,47,97,3
0,62,0,6
0,42,0,19
0,65,97,25
0,47,0,2
0,69,97,2
0,36,97,0
0,36,95,0
0,40,0,1
0,66,97,0
0,40,113,0
0,42,89,0
0,63,0,1
0,64,97,1
0,35,0,3
0,35,0,0
0,65,0,12
0,42,0,13
0,40,113,0
0,36,0,4
0,36,0,0
0,37,97,25
0,37,95,0
0,40,0,1
0,42,86,0
0,64,0,8
0,62,88,0
0,40,0,22
0,69,0,0
0,42,0,0
0,35,60,0
0,66,0,6
0,37,0,14
0,37,0,0
0,62,0,5
0,64,76,4
0,38,97,0
0,38,95,0
0,49,110,1
0,35,110,0
0,42,89,0
0,42,0,30
0,35,0,0
0,38,0,3
0,38,0,0
0,62,80,26
0,35,0,1
0,49,0,0
0,38,97,0
0,38,95,0
0,35,104,0
0,42,89,0
0,64,0,4
0,42,0,26
0,64,76,24
0,62,0,6
0,35,0,0
0,62,97,0
0,66,97,0
0,69,97,0
0,40,117,0
0,42,89,0
0,42,0,30
0,40,0,30
0,66,0,0
0,38,0,0
0,38,0,0
0,62,0,0
0,69,0,0
0,42,84,0
0,62,80,1
0,64,0,3
0,42,0,26
0,66,97,0
0,69,97,0
0,62,97,0
0,50,97,0
0,37,95,4
0,40,60,6
0,37,0,13
0,38,97,3
0,38,95,0
0,62,0,4
0,69,0,0
0,50,0,0
0,66,0,0
0,64,85,0
0,42,86,0
0,35,113,0
0,62,0,6
0,42,0,24
0,38,0,5
0,38,0,0
0,40,0,5
0,35,0,20
0,62,80,0
0,35,104,0
0,42,86,0
0,38,97,2
0,38,95,0
0,64,0,5
0,42,0,23
0,35,0,30
0,62,97,0
0,66,97,0
0,69,97,0
0,40,117,0
0,42,84,0
0,66,109,7
0,62,0,14
0,42,0,9
0,66,0,30
0,62,0,0
0,69,0,0
0,42,86,0
0,38,0,17
0,38,0,0
0,42,0,13
0,66,0,25
0,31,97,0
0,31,95,0
0,40,0,5
0,35,107,0
0,42,89,0
0,64,94,3
0,31,0,25
0,31,0,0
0,42,0,2
0,31,97,24
0,31,95,0
0,35,0,6
0,35,104,0
0,42,86,0
0,62,88,4
0,64,0,1
0,42,0,25
0,64,88,27
0,66,97,0
0,64,97,0
0,69,97,0
0,35,0,3
0,40,117,0
0,42,92,0
0,62,0,3
0,42,0,27
0,69,0,22
0,64,0,2
0,66,0,2
0,40,0,4
0,42,84,0
0,62,86,2
0,64,0,2
0,31,0,5
0,31,0,0
0,42,0,21
0,43,97,0
0,30,95,0
0,40,60,7
0,30,0,20
0,43,0,0
0,64,88,1
0,31,97,0
0,31,95,0
0,35,113,2
0,42,92,0
0,62,0,4
0,31,0,24
0,31,0,0
0,42,0,2
0,40,0,7
0,31,97,21
0,31,95,0
0,35,0,2
0,62,85,0
0,35,97,0
0,42,89,0
0,64,0,5
0,42,0,25
0,35,0,30
0,66,97,0
0,64,97,0
0,69,97,0
0,42,86,0
0,40,117,0
0,66,109,10
0,62,0,9
0,42,0,11
0,40,0,30
0,64,0,0
0,66,0,0
0,69,0,0
0,42,84,0
