track,note,velocity,time
1,40,60,0
1,40,0,14
1,40,60,46
1,40,0,29
1,45,60,91
1,40,60,0
1,43,60,0
1,45,0,29
1,40,0,0
1,43,0,0
1,47,60,91
1,40,60,0
1,48,60,0
1,43,60,0
1,47,0,29
1,40,0,0
1,48,0,0
1,43,0,0
1,45,60,31
1,40,60,0
1,43,60,0
1,45,0,29
1,40,0,0
1,43,0,0
1,57,60,91
1,59,60,0
1,57,60,0
1,52,60,0
1,35,60,0
1,55,60,0
1,53,60,0
1,35,0,29
1,57,0,90
1,59,0,0
1,57,0,0
1,52,0,0
1,55,0,0
1,53,0,0
1,52,60,1
1,52,0,29
1,52,60,91
1,40,60,0
1,52,0,29
1,40,0,0
1,52,60,91
1,52,0,29
1,40,60,31
1,40,0,29
1,35,60,31
1,52,60,0
1,35,0,29
1,52,0,0
1,52,60,91
1,52,0,29
1,40,60,91
1,52,60,0
1,40,0,29
1,52,0,0
1,52,60,91
1,52,0,29
1,40,60,31
1,40,0,29
1,35,60,31
1,52,60,0
1,35,0,29
1,52,0,0
1,52,60,91
1,52,0,29
1,40,60,91
1,52,60,0
1,40,0,29
1,52,0,0
1,52,60,91
1,52,0,29
1,40,60,31
1,40,0,29
1,52,60,31
1,35,60,0
1,52,0,29
1,35,0,0
1,52,60,91
1,52,0,29
1,52,60,91
1,40,60,0
1,52,0,29
1,40,0,0
1,52,60,91
1,52,0,29
1,40,60,31
1,40,0,29
1,52,60,31
1,35,60,0
1,52,0,29
1,35,0,0
1,52,60,91
1,52,0,29
1,52,60,91
1,40,60,0
1,52,0,29
1,40,0,0
1,52,60,91
1,52,0,29
1,40,60,31
1,40,0,29
1,52,60,31
1,35,60,0
1,52,0,29
1,35,0,0
1,52,60,91
1,52,0,29
1,52,60,91
1,40,60,0
1,52,0,29
1,40,0,0
1,52,60,91
1,52,0,29
1,40,60,31
1,40,0,29
1,52,60,31
1,35,60,0
1,52,0,29
1,35,0,0
1,52,60,91
1,52,0,29
1,40,60,91
1,52,60,0
1,40,0,29
1,52,0,0
1,52,60,91
1,52,0,29
1,40,60,1
1,40,0,14
1,40,60,16
1,40,0,14
1,40,60,16
1,40,0,14
1,40,60,16
1,40,0,29
1,40,60,31
1,40,0,29
1,40,60,91
1,40,0,29
1,40,60,91
1,40,0,29
1,40,60,31
1,40,0,29
1,52,60,91
1,57,60,0
1,55,60,0
1,53,60,0
1,35,60,0
1,35,0,29
1,52,0,90
1,57,0,0
1,55,0,0
1,53,0,0
1,52,60,1
1,52,0,29
1,52,60,91
1,40,60,0
1,52,0,29
1,40,0,0
1,52,60,91
1,52,0,29
1,40,60,31
1,40,0,29
1,35,60,31
1,52,60,0
1,35,0,29
1,52,0,0
1,52,60,91
1,52,0,29
1,40,60,91
1,52,60,0
1,40,0,29
1,52,0,0
1,52,60,91
1,52,0,29
1,40,60,31
1,40,0,29
1,35,60,31
1,52,60,0
1,35,0,29
1,52,0,0
1,52,60,91
1,52,0,29
1,40,60,91
1,52,60,0
1,40,0,29
1,52,0,0
1,52,60,91
1,52,0,29
1,40,60,31
1,40,0,29
1,52,60,31
1,35,60,0
1,52,0,29
1,35,0,0
1,52,60,91
1,52,0,29
1,52,60,91
1,40,60,0
1,52,0,29
1,40,0,0
1,52,60,91
1,52,0,29
1,40,60,31
1,40,0,29
1,52,60,31
1,35,60,0
1,52,0,29
1,35,0,0
1,52,60,91
1,52,0,29
1,52,60,91
1,40,60,0
1,52,0,29
1,40,0,0
1,52,60,91
1,52,0,29
1,40,60,31
1,40,0,29
1,52,60,31
1,35,60,0
1,52,0,29
1,35,0,0
1,52,60,91
1,52,0,29
1,52,60,91
1,40,60,0
1,52,0,29
1,40,0,0
1,52,60,91
1,52,0,29
1,40,60,31
1,40,0,29
1,52,60,31
1,35,60,0
1,52,0,29
1,35,0,0
1,52,60,91
1,52,0,29
1,40,60,91
1,52,60,0
1,40,0,29
1,52,0,0
1,52,60,91
1,52,0,29
1,40,60,31
1,40,0,29
1,35,60,31
1,52,60,0
1,35,0,29
1,52,0,0
1,52,60,91
1,52,0,29
1,52,60,91
1,40,60,0
1,52,0,29
1,40,0,0
1,52,60,91
1,52,0,29
1,40,60,31
1,40,0,29
1,52,60,31
1,33,60,0
1,52,0,29
1,33,0,0
1,52,60,91
1,52,0,29
1,52,60,91
1,40,60,0
1,52,0,29
1,40,0,0
1,52,60,91
1,52,0,29
1,40,60,31
1,40,0,29
1,55,60,31
1,53,60,0
1,57,60,0
1,55,0,119
1,53,0,0
1,57,0,0
1,55,60,61
1,59,60,0
1,55,0,119
1,59,0,0
1,52,60,61
1,53,60,0
1,55,60,0
1,57,60,0
1,59,60,0
1,52,0,239
1,53,0,0
1,55,0,0
1,57,0,0
1,59,0,0
1,47,60,1
1,47,0,59
1,41,60,61
1,41,0,59
1,41,60,16
1,41,0,14
1,43,60,31
1,45,60,0
1,43,0,59
1,45,0,0
1,57,60,61
1,55,60,0
1,59,60,0
1,53,60,0
1,52,60,0
1,36,60,0
1,36,0,59
1,52,0,60
1,52,60,1
1,57,0,59
1,55,0,0
1,59,0,0
1,53,0,0
1,52,0,0
1,52,60,61
1,40,60,0
1,52,0,59
1,40,0,0
1,52,60,61
1,52,0,59
1,52,60,61
1,36,60,0
1,52,0,59
1,36,0,0
1,52,60,61
1,52,0,59
1,52,60,61
1,40,60,0
1,52,0,59
1,40,0,0
1,52,60,61
1,52,0,59
1,52,60,61
1,36,60,0
1,52,0,59
1,36,0,0
1,52,60,61
1,52,0,59
1,52,60,61
1,40,60,0
1,52,0,59
1,40,0,0
1,52,60,61
1,52,0,59
1,52,60,61
1,36,60,0
1,52,0,59
1,36,0,0
1,52,60,61
1,52,0,59
1,38,60,1
1,38,0,59
1,52,60,1
1,40,60,0
1,52,0,59
1,40,0,0
1,52,60,61
1,38,60,0
1,52,0,59
1,38,0,0
1,40,60,1
1,40,0,59
1,52,60,1
1,36,60,0
1,52,0,59
1,36,0,0
1,52,60,61
1,52,0,59
1,52,60,61
1,40,60,0
1,52,0,59
1,40,0,0
1,52,60,61
1,52,0,59
1,52,60,61
1,36,60,0
1,52,0,59
1,36,0,0
1,52,60,61
1,52,0,59
1,52,60,61
1,40,60,0
1,52,0,59
1,40,0,0
1,52,60,61
1,52,0,59
1,52,60,61
1,36,60,0
1,52,0,59
1,36,0,0
1,52,60,61
1,52,0,59
1,52,60,61
1,40,60,0
1,52,0,59
1,40,0,0
1,52,60,61
1,52,0,59
1,52,60,61
1,36,60,0
1,52,0,59
1,36,0,0
1,52,60,61
1,52,0,59
1,35,60,1
1,36,60,0
1,48,60,0
1,35,0,29
1,36,0,0
1,48,0,0
1,38,60,31
1,52,60,0
1,40,60,0
1,38,0,59
1,52,0,0
1,40,0,0
1,35,60,1
1,36,60,0
1,48,60,0
1,35,0,59
1,36,0,0
1,48,0,0
1,38,60,1
1,52,60,0
1,40,60,0
1,38,0,59
1,52,0,0
1,40,0,0
1,40,60,1
1,38,60,0
1,40,0,59
1,38,0,0
1,57,60,1
1,59,60,0
1,60,60,0
1,55,60,0
1,53,60,0
1,52,60,0
1,36,60,0
1,36,0,59
1,57,0,60
1,59,0,0
1,60,0,0
1,55,0,0
1,53,0,0
1,52,0,0
1,52,60,1
1,52,0,59
1,40,60,61
1,52,60,0
1,40,0,59
1,52,0,0
1,52,60,61
1,52,0,59
1,36,60,61
1,52,60,0
1,36,0,59
1,52,0,0
1,52,60,61
1,52,0,59
1,52,60,61
1,40,60,0
1,52,0,59
1,40,0,0
1,52,60,61
1,52,0,59
1,36,60,61
1,52,60,0
1,36,0,59
1,52,0,0
1,52,60,61
1,52,0,59
1,52,60,61
1,40,60,0
1,52,0,59
1,40,0,0
1,52,60,61
1,52,0,59
1,52,60,61
1,36,60,0
1,52,0,59
1,36,0,0
1,52,60,61
1,52,0,59
1,52,60,61
1,40,60,0
1,52,0,59
1,40,0,0
1,52,60,61
1,52,0,59
1,52,60,61
1,36,60,0
1,52,0,59
1,36,0,0
1,52,60,61
1,52,0,59
1,52,60,61
1,40,60,0
1,52,0,59
1,40,0,0
1,52,60,61
1,52,0,59
1,52,60,61
1,36,60,0
1,52,0,59
1,36,0,0
1,52,60,61
1,52,0,59
1,52,60,61
1,40,60,0
1,52,0,59
1,40,0,0
1,52,60,61
1,52,0,59
1,52,60,61
1,36,60,0
1,52,0,59
1,36,0,0
1,52,60,61
1,52,0,59
1,52,60,61
1,40,60,0
1,52,0,59
1,40,0,0
1,52,60,61
1,52,0,59
1,52,60,61
1,36,60,0
1,52,0,59
1,36,0,0
1,52,60,61
1,52,0,59
1,52,60,61
1,40,60,0
1,52,0,59
1,40,0,0
1,52,60,61
1,52,0,59
1,57,60,61
1,36,60,0
1,35,60,0
1,59,60,0
1,60,60,0
1,55,60,0
1,53,60,0
1,57,0,89
1,36,0,30
1,35,0,0
1,59,0,0
1,60,0,0
1,55,0,0
1,53,0,0
1,57,60,1
1,57,0,89
1,57,60,31
1,40,60,0
1,38,60,0
1,57,0,89
1,40,0,30
1,38,0,0
1,57,60,1
1,57,0,89
1,57,60,31
1,47,60,0
1,47,0,29
1,45,60,1
1,45,0,29
1,43,60,1
1,43,0,29
1,41,60,1
1,57,0,29
1,41,0,0
1,57,60,1
1,57,0,119
1,57,60,1
1,47,60,0
1,47,0,29
1,45,60,1
1,45,0,29
1,43,60,1
1,43,0,29
1,41,60,1
1,57,0,29
1,41,0,0
1,57,60,1
1,57,0,119
1,57,60,1
1,36,60,0
1,36,0,59
1,57,0,60
1,57,60,1
1,36,60,0
1,36,0,59
1,57,0,60
1,57,60,1
1,40,60,0
1,40,0,59
1,57,0,60
1,57,60,1
1,40,60,60
1,57,0,59
1,40,0,0
1,57,60,1
1,36,60,0
1,36,60,0
1,57,60,0
1,36,0,59
1,36,0,0
1,40,60,1
1,57,0,59
1,57,0,0
1,40,0,0
1,57,60,1
1,36,60,0
1,36,60,0
1,57,60,0
1,36,0,59
1,36,0,0
1,57,0,60
1,57,0,0
1,57,60,1
1,57,60,0
1,40,60,0
1,40,60,0
1,40,0,59
1,40,0,0
1,57,0,60
1,57,0,0
1,57,60,1
1,57,60,0
1,40,60,60
1,57,0,59
1,57,0,0
1,40,0,0
1,57,60,1
1,36,60,0
1,57,60,1
1,36,60,0
1,36,0,58
1,36,0,1
1,57,0,59
1,57,0,1
1,57,60,1
1,36,60,0
1,36,0,59
1,57,0,60
1,57,60,1
1,40,60,0
1,40,0,59
1,57,0,60
1,57,60,1
1,40,60,60
1,57,0,59
1,40,0,0
1,57,60,1
1,36,60,0
1,57,60,1
1,36,60,0
1,36,0,58
1,40,60,0
1,36,0,1
1,40,0,58
1,57,0,1
1,57,0,1
1,57,60,1
1,36,60,0
1,36,0,59
1,57,0,60
1,57,60,1
1,40,60,0
1,40,0,59
1,57,0,60
1,57,60,1
1,40,60,60
1,57,0,59
1,40,0,0
1,57,60,1
1,36,60,0
1,57,60,1
1,36,60,0
1,36,0,58
1,36,0,1
1,57,0,59
1,57,0,1
1,57,60,1
1,36,60,0
1,36,0,59
1,57,0,60
1,57,60,1
1,40,60,0
1,40,0,59
1,57,0,60
1,57,60,1
1,40,60,60
1,57,60,58
1,36,60,0
1,57,0,1
1,40,0,0
1,57,60,0
1,36,60,0
1,36,0,58
1,40,60,0
1,36,0,1
1,40,0,58
1,57,0,1
1,57,0,1
1,57,60,1
1,36,60,0
1,36,0,59
1,57,0,60
1,57,60,1
1,40,60,0
1,40,0,59
1,57,0,60
1,57,60,1
1,40,60,60
1,57,0,59
1,40,0,0
1,57,60,1
1,36,60,0
1,57,60,1
1,36,60,0
1,36,0,58
1,36,0,1
1,57,0,59
1,57,0,1
1,57,60,1
1,36,60,0
1,36,0,59
1,57,0,60
1,57,60,1
1,40,60,0
1,40,0,59
1,57,0,60
1,57,60,1
1,40,60,60
1,57,0,59
1,40,0,0
1,57,60,0
1,36,60,0
1,57,60,1
1,36,60,0
1,40,60,57
1,36,0,1
1,36,0,1
1,40,0,57
1,57,0,2
1,57,0,1
1,57,60,1
1,36,60,0
1,36,0,59
1,57,0,60
1,57,60,1
1,40,60,0
1,40,0,59
1,57,0,60
1,57,60,1
1,40,60,60
1,57,0,59
1,40,0,0
1,57,60,1
1,36,60,0
1,57,60,1
1,36,60,0
1,36,0,58
1,36,0,1
1,57,0,59
1,57,0,1
1,57,60,1
1,36,60,0
1,36,0,59
1,57,0,60
1,57,60,1
1,40,60,0
1,40,0,59
1,57,0,60
1,57,60,1
1,40,60,60
1,57,0,59
1,40,0,0
1,57,60,0
1,36,60,0
1,57,60,1
1,36,60,0
1,36,0,58
1,40,60,0
1,36,0,1
1,40,0,58
1,57,0,1
1,57,0,1
1,57,60,1
1,36,60,0
1,36,0,59
1,57,0,60
1,57,60,1
1,40,60,0
1,40,0,59
1,57,0,60
1,57,60,1
1,40,60,60
1,57,0,59
1,40,0,0
1,57,60,1
1,36,60,0
1,57,60,1
1,36,60,0
1,36,0,58
1,36,0,1
1,57,0,59
1,57,0,1
1,57,60,1
1,36,60,0
1,36,0,59
1,57,0,60
1,57,60,1
1,40,60,0
1,40,0,59
1,57,0,60
1,57,60,1
1,40,60,60
1,57,0,59
1,40,0,0
1,57,60,0
1,36,60,0
1,57,60,1
1,36,60,0
1,36,0,58
1,40,60,0
1,36,0,1
1,40,0,58
1,57,0,1
1,57,0,1
1,57,60,1
1,36,60,0
1,36,0,59
1,57,0,60
1,57,60,1
1,40,60,0
1,40,0,59
1,57,0,60
1,57,60,1
1,40,60,60
1,57,0,59
1,40,0,0
1,57,60,1
1,36,60,0
1,57,60,1
1,36,60,0
1,36,0,58
1,36,0,1
1,57,0,59
1,57,0,1
1,57,60,1
1,36,60,0
1,36,0,59
1,57,0,60
1,57,60,1
1,40,60,0
1,40,0,59
1,57,0,60
1,57,60,1
1,40,60,60
1,57,0,59
1,40,0,0
1,57,60,0
1,36,60,0
1,57,60,1
1,36,60,0
1,36,0,58
1,40,60,0
1,36,0,1
1,40,0,58
1,57,0,1
1,57,0,1
1,57,60,1
1,36,60,0
1,36,0,59
1,57,0,60
1,57,60,1
1,40,60,0
1,40,0,59
1,57,0,60
1,57,60,1
1,40,60,60
1,40,60,54
1,57,0,5
1,40,0,0
1,57,60,1
1,36,60,0
1,57,60,1
1,36,60,0
1,40,0,52
1,36,60,1
1,36,0,5
1,36,0,1
1,36,0,53
1,40,60,1
1,57,0,5
1,57,0,1
1,57,60,1
1,36,60,0
1,40,0,52
1,36,60,1
1,36,0,6
1,36,0,53
1,36,60,1
1,57,0,6
1,57,60,1
1,40,60,0
1,36,0,52
1,36,60,1
1,40,0,6
1,36,0,53
1,36,60,1
1,57,0,6
1,57,60,1
1,36,0,52
1,36,60,1
1,40,60,7
1,36,0,52
1,55,60,1
1,59,60,0
1,53,60,0
1,52,60,0
1,38,60,0
1,40,60,0
1,57,0,6
1,40,0,0
1,57,60,0
1,36,60,0
1,57,60,1
1,36,60,0
1,55,0,52
1,59,0,0
1,53,0,0
1,52,0,0
1,38,0,0
1,40,0,0
1,36,0,6
1,36,0,1
1,57,0,60
1,57,0,353
1,57,60,1
1,59,60,0
1,57,60,0
1,52,60,0
1,35,60,0
1,55,60,0
1,53,60,0
1,35,0,29
1,57,0,90
1,59,0,0
1,57,0,0
1,52,0,0
1,55,0,0
1,53,0,0
1,52,60,1
1,52,0,29
1,52,60,91
1,40,60,0
1,52,0,29
1,40,0,0
1,52,60,91
1,52,0,29
1,40,60,31
1,40,0,29
1,35,60,31
1,52,60,0
1,35,0,29
1,52,0,0
1,52,60,91
1,52,0,29
1,40,60,91
1,52,60,0
1,40,0,29
1,52,0,0
1,52,60,91
1,52,0,29
1,40,60,31
1,40,0,29
1,35,60,31
1,52,60,0
1,35,0,29
1,52,0,0
1,52,60,91
1,52,0,29
1,40,60,91
1,52,60,0
1,40,0,29
1,52,0,0
1,52,60,91
1,52,0,29
