track,note,velocity,time
1,62,100,0
1,65,100,0
1,58,100,4
1,62,100,4
1,65,100,0
1,67,100,4
1,61,100,4
1,65,100,0
1,58,100,4
1,61,100,4
1,65,100,0
1,67,100,4
1,60,100,4
1,65,100,0
1,57,100,4
1,65,100,4
1,60,100,0
1,67,100,4
1,63,100,4
1,60,100,0
1,62,100,4
1,65,100,0
1,58,100,4
1,62,100,4
1,65,100,0
1,67,100,4
1,61,100,4
1,65,100,0
1,58,100,4
1,61,100,4
1,65,100,0
1,67,100,4
1,60,100,4
1,65,100,0
1,57,100,4
1,65,100,4
1,60,100,0
1,67,100,4
1,60,100,4
1,65,100,0
1,57,100,4
1,65,100,4
1,60,100,0
1,67,100,4
1,60,100,4
1,65,100,0
1,57,100,4
1,60,100,4
1,65,100,0
1,57,100,4
1,60,100,4
1,65,100,0
1,57,100,4
1,60,100,4
1,65,100,0
1,57,100,4
1,60,100,4
1,63,100,0
1,57,100,4
1,60,100,4
1,63,100,0
1,57,100,4
1,60,100,4
1,63,100,0
1,57,100,4
1,60,100,4
1,63,100,0
1,57,100,4
1,58,100,4
1,62,100,0
1,55,100,4
1,58,100,4
1,62,100,0
1,55,100,4
1,58,100,4
1,62,100,0
1,55,100,4
1,58,100,4
1,62,100,0
1,55,100,4
1,58,100,4
1,62,100,0
1,55,100,4
1,58,100,4
1,62,100,0
1,55,100,4
1,58,100,4
1,62,100,0
1,55,100,4
1,58,100,4
1,62,100,0
1,55,100,4
1,60,100,388
1,60,100,196
1,60,100,4
1,58,100,4
1,62,100,0
1,58,100,196
1,62,100,0
1,58,100,196
1,62,100,0
1,58,100,196
1,62,100,0
1,60,100,3268
1,65,100,0
1,57,100,4
1,60,100,4
1,65,100,0
1,57,100,4
1,60,100,4
1,65,100,0
1,57,100,4
1,60,100,4
1,65,100,0
1,57,100,4
1,60,100,4
1,63,100,0
1,57,100,4
1,60,100,4
1,63,100,0
1,57,100,4
1,60,100,4
1,63,100,0
1,57,100,4
1,60,100,4
1,63,100,0
1,57,100,4
1,58,100,4
1,62,100,0
1,55,100,4
1,58,100,4
1,62,100,0
1,55,100,4
1,58,100,4
1,62,100,0
1,55,100,4
1,58,100,4
1,62,100,0
1,55,100,4
1,58,100,4
1,62,100,0
1,55,100,4
1,58,100,4
1,62,100,0
1,55,100,4
1,58,100,4
1,62,100,0
1,55,100,4
1,58,100,4
1,62,100,0
1,55,100,4
1,60,100,4
1,65,100,0
1,57,100,4
1,60,100,4
1,65,100,0
1,57,100,4
1,60,100,4
1,64,100,0
1,57,100,4
1,60,100,4
1,64,100,0
1,57,100,4
1,60,100,4
1,63,100,0
1,57,100,4
1,60,100,4
1,63,100,0
1,57,100,4
1,60,100,4
1,64,100,0
1,57,100,4
1,60,100,4
1,64,100,0
1,65,100,4
1,64,100,4
1,60,100,4
1,58,100,4
1,62,100,0
1,58,100,196
1,62,100,0
1,58,100,196
1,62,100,0
1,58,100,196
1,62,100,0
1,60,100,1732
1,65,100,0
1,57,100,4
1,60,100,4
1,65,100,0
1,57,100,4
1,60,100,4
1,65,100,0
1,57,100,4
1,60,100,4
1,65,100,0
1,57,100,4
1,60,100,4
1,65,100,0
1,57,100,4
1,60,100,4
1,65,100,0
1,57,100,4
1,60,100,4
1,65,100,0
1,57,100,4
1,60,100,4
1,65,100,0
1,57,100,4
1,60,100,4
1,63,100,0
1,57,100,4
1,60,100,4
1,63,100,0
1,57,100,4
1,60,100,4
1,63,100,0
1,57,100,4
1,60,100,4
1,63,100,0
1,57,100,4
1,60,100,4
1,63,100,0
1,57,100,4
1,60,100,4
1,63,100,0
1,57,100,4
1,60,100,4
1,63,100,0
1,57,100,4
1,60,100,4
1,63,100,0
1,57,100,4
1,62,100,4
1,62,100,196
1,62,100,196
1,62,100,196
1,65,100,196
1,65,100,196
1,65,100,196
1,65,100,196
1,60,100,196
1,63,100,0
1,57,100,4
1,60,100,4
1,63,100,0
1,57,100,4
1,60,100,4
1,63,100,0
1,57,100,4
1,60,100,4
1,63,100,0
1,57,100,4
1,60,100,4
1,65,100,0
1,62,100,768
1,65,100,0
1,58,100,4
1,62,100,4
1,65,100,0
1,67,100,4
1,61,100,4
1,65,100,0
1,58,100,4
1,61,100,4
1,65,100,0
1,67,100,4
1,60,100,4
1,65,100,0
1,57,100,4
1,65,100,4
1,60,100,0
1,67,100,4
1,63,100,4
1,60,100,0
1,57,100,4
1,63,100,4
1,60,100,0
1,67,100,4
1,62,100,4
1,65,100,0
1,58,100,4
1,62,100,4
1,65,100,0
1,67,100,4
1,61,100,4
1,65,100,0
1,58,100,4
1,61,100,4
1,65,100,0
1,67,100,4
1,60,100,4
1,65,100,0
1,57,100,4
1,60,100,4
1,65,100,0
1,57,100,4
1,60,100,4
1,65,100,0
1,57,100,4
1,60,100,4
1,65,100,0
1,57,100,4
1,60,100,4
1,63,100,0
1,57,100,4
1,60,100,4
1,63,100,0
1,57,100,4
1,60,100,4
1,63,100,0
1,57,100,4
1,60,100,4
1,63,100,0
1,57,100,4
1,58,100,4
1,62,100,0
1,55,100,4
1,58,100,4
1,62,100,0
1,55,100,4
1,58,100,4
1,62,100,0
1,55,100,4
1,58,100,4
1,62,100,0
1,55,100,4
1,58,100,4
1,62,100,0
1,55,100,4
1,58,100,4
1,62,100,0
1,55,100,4
1,58,100,4
1,62,100,0
1,55,100,4
1,58,100,4
1,62,100,0
1,55,100,4
1,60,100,388
1,60,100,196
1,60,100,4
1,58,100,4
1,62,100,0
1,58,100,196
1,62,100,0
1,58,100,196
1,62,100,0
1,58,100,196
1,62,100,0
1,60,100,3268
1,65,100,0
1,57,100,4
1,60,100,4
1,65,100,0
1,57,100,4
1,60,100,4
1,65,100,0
1,57,100,4
1,60,100,4
1,65,100,0
1,57,100,4
1,60,100,4
1,65,100,0
1,57,100,4
1,60,100,4
1,65,100,0
1,57,100,4
1,60,100,4
1,65,100,0
1,57,100,4
1,60,100,4
1,65,100,0
1,57,100,4
1,60,100,4
1,63,100,0
1,57,100,4
1,60,100,4
1,63,100,0
1,57,100,4
1,60,100,4
1,63,100,0
1,57,100,4
1,60,100,4
1,63,100,0
1,57,100,4
1,60,100,4
1,63,100,0
1,57,100,4
1,60,100,4
1,63,100,0
1,57,100,4
1,60,100,4
1,63,100,0
1,57,100,4
1,60,100,4
1,63,100,0
1,57,100,4
1,62,100,4
1,62,100,196
1,62,100,196
1,62,100,196
1,65,100,196
1,65,100,196
1,65,100,196
1,65,100,196
1,60,100,196
1,63,100,0
1,57,100,4
1,60,100,4
1,63,100,0
1,57,100,4
1,60,100,4
1,63,100,0
1,57,100,4
1,60,100,4
1,63,100,0
1,57,100,4
1,60,100,4
1,63,100,0
1,57,100,4
1,60,100,4
1,63,100,0
1,57,100,4
1,60,100,4
1,63,100,0
1,57,100,4
1,60,100,4
1,63,100,0
1,57,100,4
1,60,100,2692
1,65,100,0
1,67,100,4
1,65,100,4
1,60,100,4
1,57,100,1540
1,60,100,0
1,65,100,0
1,65,100,384
1,60,100,4
1,64,100,4
1,65,100,4
1,55,100,4
1,60,100,0
1,63,100,0
1,60,100,288
1,63,100,4
1,65,100,4
1,63,100,4
1,60,100,4
1,60,100,4
1,65,100,0
1,69,100,0
1,69,100,384
1,65,100,4
1,62,100,4
1,60,100,4
1,58,100,4
1,62,100,0
1,67,100,0
1,62,100,288
1,65,100,4
1,67,100,4
1,62,100,4
1,58,100,4
1,57,100,484
1,61,100,100
1,65,100,0
1,58,100,4
1,61,100,4
1,65,100,0
1,67,100,4
1,60,100,8
1,65,100,0
1,57,100,4
1,65,100,4
1,60,100,0
1,67,100,4
1,63,100,4
1,60,100,0
1,57,100,4
1,63,100,4
1,60,100,0
1,67,100,4
1,62,100,0
1,65,100,0
1,58,100,4
1,62,100,4
1,65,100,0
1,67,100,4
1,61,100,4
1,65,100,0
1,58,100,4
1,61,100,4
1,65,100,0
1,67,100,4
1,60,100,4
1,65,100,0
1,57,100,4
1,60,100,4
1,65,100,0
1,57,100,4
1,60,100,4
1,65,100,0
1,57,100,4
1,60,100,4
1,65,100,0
1,57,100,4
1,60,100,4
1,63,100,0
1,57,100,4
1,60,100,4
1,63,100,0
1,57,100,4
1,60,100,4
1,63,100,0
1,57,100,4
1,60,100,4
1,63,100,0
1,57,100,4
1,58,100,4
1,62,100,0
1,55,100,4
1,58,100,4
1,62,100,0
1,55,100,4
1,58,100,4
1,62,100,0
1,55,100,4
1,58,100,4
1,62,100,0
1,55,100,4
1,58,100,4
1,62,100,0
1,55,100,4
1,58,100,4
1,62,100,0
1,55,100,4
1,58,100,4
1,62,100,0
1,55,100,4
1,58,100,4
1,62,100,0
1,55,100,4
1,60,100,388
1,60,100,196
1,60,100,4
1,58,100,4
1,62,100,0
1,58,100,196
1,62,100,0
1,58,100,196
1,62,100,0
1,65,100,196
1,58,100,0
1,62,100,0
1,67,100,4
1,65,100,4
1,62,100,4
1,60,100,3076
1,65,100,0
1,57,100,4
1,60,100,4
1,65,100,0
1,57,100,4
1,60,100,4
1,65,100,0
1,57,100,4
1,60,100,4
1,65,100,0
1,57,100,4
1,60,100,4
1,65,100,0
1,57,100,4
1,60,100,4
1,65,100,0
1,57,100,4
1,60,100,4
1,65,100,0
1,57,100,4
1,60,100,4
1,65,100,0
1,57,100,4
1,60,100,4
1,63,100,0
1,57,100,4
1,60,100,4
1,63,100,0
1,57,100,4
1,60,100,4
1,63,100,0
1,57,100,4
1,60,100,4
1,63,100,0
1,57,100,4
1,60,100,4
1,63,100,0
1,57,100,4
1,60,100,4
1,63,100,0
1,57,100,4
1,60,100,4
1,63,100,0
1,57,100,4
1,60,100,4
1,63,100,0
1,57,100,4
1,62,100,4
1,62,100,196
1,62,100,196
1,62,100,196
1,65,100,196
1,65,100,196
1,65,100,196
1,65,100,196
1,60,100,196
1,63,100,0
1,57,100,4
1,60,100,4
1,63,100,0
1,57,100,4
1,60,100,4
1,63,100,0
1,57,100,4
1,60,100,4
1,63,100,0
1,57,100,4
1,60,100,4
1,63,100,0
1,57,100,4
1,60,100,4
1,63,100,0
1,57,100,4
1,60,100,4
1,63,100,0
1,57,100,4
1,60,100,4
1,63,100,0
1,57,100,4
1,62,100,4
1,65,100,0
1,58,100,4
1,62,100,4
1,65,100,0
1,67,100,4
1,61,100,4
1,65,100,0
1,58,100,4
1,61,100,4
1,65,100,0
1,67,100,4
1,60,100,4
1,65,100,0
1,57,100,4
1,65,100,4
1,60,100,0
1,67,100,4
1,63,100,4
1,60,100,0
1,57,100,4
1,63,100,4
1,60,100,0
1,67,100,4
1,62,100,4
1,65,100,0
1,58,100,4
1,62,100,4
1,65,100,0
1,67,100,4
1,61,100,4
1,65,100,0
1,58,100,4
1,61,100,4
1,65,100,0
1,67,100,4
1,60,100,4
1,65,100,0
1,57,100,4
1,65,100,4
1,60,100,0
1,67,100,4
1,63,100,4
1,60,100,0
1,57,100,4
1,63,100,4
1,60,100,0
1,67,100,4
1,62,100,4
1,65,100,0
1,58,100,4
1,62,100,4
1,65,100,0
1,67,100,4
1,61,100,4
1,65,100,0
1,58,100,4
1,61,100,4
1,65,100,0
1,67,100,4
1,60,100,4
1,65,100,0
1,57,100,4
1,65,100,4
1,60,100,0
1,67,100,4
1,63,100,4
1,60,100,0
1,57,100,4
1,63,100,4
1,60,100,0
1,67,100,4
1,62,100,4
1,65,100,0
1,58,100,4
1,62,100,4
1,65,100,0
1,67,100,4
1,61,100,4
1,65,100,0
1,58,100,4
1,61,100,4
1,65,100,0
1,67,100,4
1,60,100,4
1,65,100,0
1,57,100,4
1,65,100,4
1,60,100,0
1,67,100,4
1,63,100,4
1,60,100,0
1,57,100,4
1,63,100,4
1,60,100,0
1,67,100,4
1,60,100,2692
1,65,100,0
1,67,100,4
1,65,100,4
1,60,100,4
2,46,100,0
2,46,100,4
2,53,100,4
2,53,100,4
2,46,100,4
2,46,100,4
2,53,100,4
2,53,100,4
2,53,100,4
2,53,100,4
2,46,100,4
2,46,100,4
2,55,100,4
2,48,100,4
2,53,100,4
2,57,100,0
2,48,100,4
2,51,100,4
2,57,100,0
2,53,100,4
2,57,100,0
2,55,100,196
2,55,100,196
2,55,100,196
2,55,100,196
2,53,100,4
2,58,100,0
2,50,100,4
2,53,100,4
2,58,100,0
2,50,100,4
2,57,100,4
2,53,100,0
2,50,100,4
2,57,100,4
2,53,100,0
2,50,100,4
2,51,100,4
2,57,100,0
2,48,100,4
2,51,100,4
2,57,100,0
2,48,100,4
2,51,100,4
2,57,100,0
2,48,100,4
2,51,100,4
2,57,100,0
2,48,100,4
2,53,100,4
2,53,100,4
2,46,100,4
2,46,100,4
2,53,100,4
2,53,100,4
2,55,100,196
2,55,100,196
2,55,100,196
2,55,100,196
2,58,100,4
2,53,100,0
2,50,100,4
2,58,100,4
2,53,100,0
2,50,100,4
2,51,100,4
2,57,100,0
2,48,100,4
2,51,100,4
2,57,100,0
2,48,100,4
2,45,100,4
2,48,100,0
2,53,100,0
2,53,100,4
2,53,100,4
2,53,100,4
2,58,100,4
2,55,100,4
2,58,100,4
2,55,100,4
2,58,100,4
2,55,100,4
2,58,100,4
2,55,100,4
2,60,100,4
2,57,100,4
2,60,100,4
2,57,100,4
2,60,100,4
2,57,100,4
2,60,100,4
2,57,100,4
2,53,100,4
2,46,100,1540
2,53,100,4
2,46,100,4
2,53,100,4
2,53,100,4
2,46,100,4
2,46,100,4
2,55,100,4
2,48,100,4
2,53,100,4
2,57,100,0
2,48,100,4
2,51,100,4
2,57,100,0
2,53,100,4
2,57,100,0
2,55,100,196
2,55,100,196
2,55,100,196
2,55,100,196
2,53,100,4
2,58,100,0
2,50,100,4
2,53,100,4
2,58,100,0
2,50,100,4
2,57,100,4
2,53,100,0
2,50,100,4
2,57,100,4
2,53,100,0
2,50,100,4
2,51,100,4
2,57,100,0
2,48,100,4
2,51,100,4
2,57,100,0
2,48,100,4
2,51,100,4
2,57,100,0
2,48,100,4
2,51,100,4
2,57,100,0
2,48,100,4
2,45,100,4
2,48,100,0
2,53,100,0
2,53,100,4
2,53,100,4
2,53,100,4
2,58,100,4
2,55,100,4
2,58,100,4
2,55,100,4
2,58,100,4
2,55,100,4
2,58,100,4
2,55,100,4
2,60,100,4
2,57,100,4
2,60,100,4
2,57,100,4
2,60,100,4
2,57,100,4
2,60,100,4
2,57,100,4
2,53,100,4
2,53,100,1540
2,57,100,0
2,60,100,0
2,53,100,196
2,57,100,0
2,60,100,0
2,53,100,196
2,57,100,0
2,60,100,0
2,48,100,388
2,57,100,0
2,53,100,0
2,50,100,4
2,53,100,0
2,58,100,0
2,60,100,4
2,57,100,0
2,53,100,0
2,41,100,200
2,55,100,4
2,41,100,4
2,55,100,4
2,60,100,4
2,48,100,0
2,53,100,0
2,57,100,0
2,46,100,4
2,53,100,8
2,53,100,4
2,46,100,0
2,46,100,4
2,53,100,4
2,53,100,4
2,46,100,4
2,46,100,4
2,55,100,4
2,48,100,4
2,53,100,4
2,57,100,0
2,48,100,4
2,51,100,4
2,57,100,0
2,53,100,4
2,57,100,0
2,55,100,196
2,55,100,196
2,55,100,196
2,55,100,196
2,53,100,4
2,58,100,0
2,50,100,4
2,53,100,4
2,58,100,0
2,50,100,4
2,57,100,4
2,53,100,0
2,50,100,4
2,57,100,4
2,53,100,0
2,50,100,4
2,51,100,4
2,57,100,0
2,48,100,4
2,51,100,4
2,57,100,0
2,48,100,4
2,51,100,4
2,57,100,0
2,48,100,4
2,51,100,4
2,57,100,0
2,48,100,4
2,45,100,4
2,48,100,0
2,53,100,0
2,53,100,4
2,53,100,4
2,53,100,4
2,58,100,4
2,55,100,4
2,58,100,4
2,55,100,4
2,58,100,4
2,55,100,4
2,58,100,4
2,55,100,4
2,60,100,4
2,57,100,4
2,60,100,4
2,57,100,4
2,60,100,4
2,57,100,4
2,60,100,4
2,57,100,4
2,53,100,4
2,46,100,1540
2,53,100,4
2,46,100,4
2,53,100,4
