track,note,velocity,time
1,66,60,1920
1,38,60,0
1,57,60,240
1,62,60,240
1,38,60,5
1,66,60,0
1,57,60,5
1,64,60,5
1,38,60,5
1,62,60,5
1,64,60,5
1,43,60,0
1,57,60,240
1,62,60,5
1,64,60,5
1,43,60,0
1,62,60,5
1,57,60,5
1,43,60,5
1,62,60,0
1,64,60,5
1,66,60,5
1,38,60,0
1,57,60,240
1,62,60,240
1,38,60,5
1,66,60,0
1,57,60,5
1,64,60,5
1,38,60,5
1,62,60,5
1,64,60,5
1,43,60,0
1,57,60,240
1,62,60,5
1,64,60,5
1,43,60,0
1,62,60,5
1,57,60,5
1,43,60,5
1,62,60,0
1,64,60,5
1,66,60,5
1,38,60,0
1,57,60,240
1,62,60,240
1,38,60,5
1,66,60,0
1,57,60,5
1,64,60,5
1,38,60,5
1,62,60,5
1,64,60,5
1,43,60,0
1,57,60,240
1,62,60,5
1,64,60,5
1,43,60,0
1,62,60,5
1,57,60,5
1,43,60,5
1,62,60,0
1,64,60,5
1,66,60,5
1,47,60,0
1,57,60,240
1,62,60,240
1,47,60,5
1,66,60,0
1,57,60,5
1,64,60,5
1,47,60,5
1,62,60,5
1,57,60,5
1,40,60,0
1,62,60,240
1,64,60,5
1,40,60,5
1,56,60,0
1,62,60,5
1,57,60,5
1,62,60,5
1,40,60,0
1,64,60,240
1,66,60,5
1,38,60,0
1,57,60,240
1,62,60,240
1,38,60,5
1,66,60,0
1,57,60,5
1,64,60,5
1,38,60,5
1,62,60,5
1,64,60,5
1,43,60,0
1,57,60,240
1,62,60,5
1,64,60,5
1,43,60,0
1,62,60,5
1,57,60,5
1,43,60,5
1,62,60,0
1,64,60,5
1,66,60,5
1,38,60,0
1,66,60,0
1,38,60,0
1,57,60,240
1,62,60,240
1,38,60,0
1,66,60,0
1,57,60,0
1,64,60,0
1,38,60,0
1,62,60,0
1,64,60,0
1,43,60,0
1,57,60,240
1,62,60,5
1,64,60,5
1,43,60,0
1,62,60,5
1,57,60,5
1,43,60,5
1,62,60,0
1,64,60,5
1,66,60,5
1,38,60,0
1,66,60,0
1,38,60,0
1,57,60,240
1,62,60,240
1,38,60,0
1,66,60,0
1,57,60,0
1,64,60,0
1,38,60,0
1,62,60,0
1,64,60,0
1,43,60,0
1,57,60,240
1,62,60,0
1,64,60,0
1,43,60,0
1,62,60,0
1,57,60,0
1,43,60,0
1,62,60,0
1,64,60,0
1,66,60,235
1,38,60,0
1,57,60,235
1,62,60,240
1,38,60,5
1,66,60,0
1,57,60,5
1,64,60,5
1,38,60,5
1,62,60,5
1,64,60,5
1,43,60,0
1,57,60,240
1,62,60,5
1,64,60,5
1,43,60,0
1,62,60,5
1,57,60,5
1,43,60,5
1,62,60,0
1,64,60,5
1,66,60,5
1,38,60,0
1,66,60,5
1,38,60,0
1,57,60,240
1,62,60,240
1,38,60,5
1,66,60,0
1,57,60,5
1,64,60,5
1,38,60,5
1,62,60,5
1,64,60,5
1,43,60,0
1,57,60,240
1,62,60,5
1,64,60,5
1,43,60,0
1,62,60,5
1,57,60,5
1,43,60,5
1,62,60,0
1,64,60,5
1,66,60,5
1,38,60,0
1,66,60,0
1,38,60,0
1,57,60,240
1,62,60,240
1,38,60,0
1,66,60,0
1,57,60,0
1,64,60,0
1,38,60,0
1,62,60,0
1,64,60,0
1,43,60,0
1,57,60,240
1,62,60,0
1,64,60,0
1,43,60,0
1,62,60,0
1,57,60,0
1,43,60,0
1,62,60,0
1,64,60,0
1,66,60,0
1,38,60,0
1,66,60,5
1,38,60,0
1,57,60,240
1,62,60,240
1,38,60,5
1,66,60,0
1,57,60,5
1,64,60,5
1,38,60,5
1,62,60,5
1,64,60,5
1,43,60,0
1,57,60,240
1,62,60,5
1,64,60,5
1,43,60,0
1,62,60,5
1,57,60,5
1,43,60,5
1,62,60,0
1,64,60,5
1,66,60,5
1,38,60,0
1,66,60,5
1,38,60,0
1,57,60,240
1,62,60,240
1,38,60,5
1,66,60,0
1,57,60,5
1,64,60,5
1,38,60,5
1,62,60,5
1,64,60,5
1,43,60,0
1,57,60,240
1,62,60,5
1,64,60,5
1,43,60,0
1,62,60,5
1,57,60,5
1,43,60,5
1,62,60,0
1,64,60,5
1,66,60,5
1,38,60,0
1,66,60,5
1,38,60,0
1,57,60,240
1,62,60,240
1,38,60,5
1,66,60,0
1,57,60,5
1,64,60,5
1,38,60,5
1,62,60,5
1,64,60,225
1,43,60,0
1,57,60,230
1,62,60,5
1,64,60,5
1,43,60,0
1,62,60,5
1,57,60,5
1,43,60,5
1,62,60,0
1,64,60,5
1,66,60,5
1,38,60,0
1,66,60,0
1,38,60,0
1,57,60,240
1,62,60,240
1,38,60,0
1,66,60,0
1,57,60,0
1,64,60,0
1,38,60,0
1,62,60,0
1,64,60,0
1,43,60,0
1,57,60,240
1,62,60,0
1,64,60,0
1,43,60,0
1,62,60,0
1,57,60,0
1,43,60,0
1,62,60,0
1,64,60,0
1,47,60,220
1,47,60,5
1,66,60,0
1,66,60,5
1,57,60,240
1,62,60,240
1,47,60,5
1,66,60,5
1,57,60,5
1,64,60,5
1,47,60,5
1,62,60,5
1,64,60,5
1,43,60,0
1,57,60,240
1,62,60,5
1,64,60,5
1,43,60,0
1,62,60,5
1,57,60,5
1,43,60,5
1,62,60,0
1,64,60,5
1,47,60,215
1,47,60,5
1,66,60,5
1,66,60,5
1,57,60,240
1,62,60,240
1,47,60,5
1,66,60,5
1,57,60,5
1,64,60,5
1,47,60,5
1,62,60,5
1,64,60,5
1,43,60,0
1,57,60,240
1,62,60,5
1,64,60,5
1,43,60,0
1,62,60,5
1,57,60,5
1,43,60,5
1,62,60,0
1,64,60,5
1,66,60,5
1,38,60,0
1,66,60,5
1,38,60,0
1,57,60,240
1,62,60,240
1,38,60,5
1,66,60,0
1,57,60,5
1,64,60,5
1,38,60,5
1,62,60,5
1,64,60,225
1,43,60,0
1,57,60,230
1,62,60,5
1,64,60,5
1,43,60,0
1,62,60,5
1,57,60,5
1,43,60,5
1,62,60,0
1,64,60,5
1,66,60,5
1,47,60,0
1,57,60,240
1,62,60,240
1,47,60,5
1,66,60,0
1,57,60,5
1,64,60,5
1,47,60,5
1,62,60,5
1,57,60,5
1,40,60,0
1,62,60,240
1,64,60,5
1,56,60,5
1,40,60,0
1,62,60,5
1,57,60,5
1,40,60,5
1,62,60,0
1,64,60,5
1,55,60,5
1,62,60,0
1,59,60,0
1,57,60,245
1,61,60,0
1,64,60,0
1,61,60,485
1,64,60,0
1,57,60,0
1,61,60,5
1,64,60,0
1,57,60,0
1,62,60,725
1,59,60,0
1,55,60,0
1,57,60,5
1,61,60,0
1,64,60,0
1,57,60,725
1,61,60,0
1,64,60,0
1,57,60,240
1,64,60,0
1,61,60,0
1,57,60,5
1,61,60,0
1,64,60,0
1,61,60,245
1,64,60,0
1,57,60,0
1,62,60,5
1,59,60,0
1,55,60,0
1,57,60,5
1,64,60,0
1,61,60,0
1,61,60,485
1,64,60,0
1,57,60,0
1,57,60,5
1,61,60,0
1,64,60,0
1,55,60,485
1,71,60,0
1,67,60,5
1,62,60,5
1,57,60,5
1,73,60,0
1,69,60,5
1,62,60,5
1,71,60,5
1,57,60,5
1,62,60,180
1,66,60,5
1,57,60,0
1,62,60,0
1,50,60,0
1,66,60,5
1,38,60,0
1,57,60,240
1,62,60,240
1,38,60,5
1,66,60,0
1,57,60,5
1,64,60,5
1,38,60,5
1,62,60,5
1,64,60,5
1,43,60,0
1,57,60,240
1,62,60,5
1,64,60,5
1,43,60,0
1,62,60,5
1,57,60,5
1,43,60,5
1,62,60,0
1,64,60,5
1,66,60,5
1,38,60,0
1,66,60,0
1,38,60,0
1,57,60,240
1,62,60,240
1,38,60,0
1,66,60,0
1,57,60,0
1,64,60,0
1,38,60,0
1,62,60,0
1,64,60,0
1,43,60,0
1,57,60,240
1,62,60,0
1,64,60,0
1,43,60,0
1,62,60,0
1,57,60,0
1,43,60,0
1,62,60,0
1,64,60,0
1,66,60,0
1,38,60,0
1,66,60,5
1,38,60,0
1,57,60,240
1,62,60,240
1,38,60,5
1,66,60,0
1,57,60,5
1,64,60,5
1,38,60,5
1,62,60,5
1,64,60,5
1,43,60,0
1,57,60,240
1,62,60,5
1,64,60,5
1,43,60,0
1,62,60,5
1,57,60,5
1,43,60,5
1,62,60,0
1,64,60,5
1,66,60,5
1,38,60,0
1,66,60,5
1,38,60,0
1,57,60,240
1,62,60,240
1,38,60,5
1,66,60,0
1,57,60,5
1,64,60,5
1,38,60,5
1,62,60,5
1,64,60,5
1,43,60,0
1,57,60,240
1,62,60,5
1,64,60,5
1,43,60,0
1,62,60,5
1,57,60,5
1,43,60,5
1,62,60,0
1,64,60,5
1,66,60,5
1,38,60,0
1,66,60,5
1,38,60,0
1,57,60,240
1,62,60,240
1,38,60,5
1,66,60,0
1,57,60,5
1,64,60,5
1,38,60,5
1,62,60,5
1,64,60,5
1,43,60,0
1,57,60,240
1,62,60,5
1,64,60,5
1,43,60,0
1,62,60,5
1,57,60,5
1,43,60,5
1,62,60,0
1,64,60,5
1,66,60,225
1,38,60,0
1,57,60,230
1,62,60,240
1,38,60,5
1,66,60,0
1,57,60,5
1,64,60,5
1,38,60,5
1,62,60,5
1,64,60,5
1,43,60,0
1,57,60,240
1,62,60,5
1,64,60,5
1,43,60,0
1,62,60,5
1,57,60,5
1,43,60,5
1,62,60,0
1,64,60,5
1,66,60,5
1,38,60,0
1,66,60,0
1,38,60,0
1,57,60,240
1,62,60,240
1,38,60,0
1,66,60,0
1,57,60,0
1,64,60,0
1,38,60,0
1,62,60,0
1,64,60,0
1,43,60,0
1,57,60,240
1,62,60,0
1,64,60,0
1,43,60,0
1,62,60,0
1,57,60,0
1,43,60,0
1,62,60,0
1,64,60,0
1,66,60,0
1,38,60,0
1,66,60,5
1,38,60,0
1,57,60,240
1,62,60,240
1,38,60,5
1,66,60,0
1,57,60,5
1,64,60,5
1,38,60,5
1,62,60,5
1,64,60,5
1,43,60,0
1,57,60,240
1,62,60,5
1,64,60,5
1,43,60,0
1,62,60,5
1,57,60,5
1,43,60,5
1,62,60,0
1,64,60,5
1,66,60,5
1,38,60,0
1,66,60,5
1,38,60,0
1,57,60,240
1,62,60,240
1,38,60,5
1,66,60,0
1,57,60,5
1,64,60,5
1,38,60,5
1,62,60,5
1,64,60,5
1,43,60,0
1,57,60,240
1,62,60,5
1,64,60,5
1,43,60,0
1,62,60,5
1,57,60,5
1,43,60,5
1,62,60,0
1,64,60,5
1,66,60,5
1,38,60,0
1,66,60,5
1,38,60,0
1,57,60,240
1,62,60,240
1,38,60,5
1,66,60,0
1,57,60,5
1,64,60,5
1,38,60,5
1,62,60,5
1,64,60,5
1,43,60,0
1,57,60,240
1,62,60,5
1,64,60,5
1,43,60,0
1,62,60,5
1,57,60,5
1,43,60,5
1,62,60,0
1,64,60,5
1,55,60,225
1,62,60,0
1,59,60,0
1,57,60,245
1,61,60,0
1,64,60,0
1,61,60,485
1,64,60,0
1,57,60,0
1,61,60,5
1,64,60,0
1,57,60,0
1,62,60,725
1,59,60,0
1,55,60,0
1,57,60,5
1,61,60,0
1,64,60,0
1,57,60,725
1,61,60,0
1,64,60,0
1,57,60,240
1,64,60,0
1,61,60,0
1,57,60,5
1,61,60,0
1,64,60,0
1,61,60,245
1,64,60,0
1,57,60,0
1,62,60,5
1,59,60,0
1,55,60,0
1,57,60,5
1,64,60,0
1,61,60,0
1,61,60,485
1,64,60,0
1,57,60,0
1,57,60,5
1,61,60,0
1,64,60,0
1,55,60,485
1,71,60,0
1,67,60,5
1,62,60,5
1,57,60,5
1,73,60,0
1,69,60,5
1,62,60,5
1,71,60,5
1,57,60,5
1,62,60,180
1,66,60,5
1,57,60,0
1,62,60,0
1,50,60,0
2,38,20,32640
2,43,20,5
2,38,20,5
2,43,20,5
2,38,20,5
2,43,20,5
2,38,20,5
2,43,20,5
2,38,20,5
2,43,20,5
2,38,20,5
2,43,20,5
2,47,20,5
2,43,20,5
2,47,20,5
2,43,20,5
2,38,20,5
2,38,20,485
2,38,20,485
2,43,20,245
2,43,20,485
2,43,20,485
2,47,20,245
2,47,20,485
2,47,20,485
2,40,20,245
2,38,20,0
2,43,20,5
2,38,20,5
2,43,20,5
2,38,20,5
2,43,20,5
2,38,20,5
2,43,20,5
2,38,20,5
2,43,20,5
3,57,31,32640
3,57,31,245
3,57,31,725
3,57,31,245
3,57,31,725
3,57,31,245
3,57,31,725
3,57,31,245
3,38,31,725
3,35,31,0
3,57,31,0
3,38,31,5
3,38,31,5
3,38,31,5
3,40,31,0
3,49,31,0
3,36,31,5
3,38,31,0
3,38,31,5
3,38,31,5
3,38,31,125
3,38,31,5
3,38,31,5
3,49,31,0
3,38,31,5
3,38,31,5
3,38,31,5
3,35,31,0
3,38,31,125
3,38,31,5
3,38,31,5
3,49,31,0
3,38,31,5
3,38,31,5
3,38,31,5
3,38,31,125
3,38,31,5
3,38,31,5
3,49,31,0
3,38,31,5
3,38,31,5
3,38,31,5
3,35,31,0
3,38,31,125
3,38,31,5
3,38,31,5
3,40,31,0
3,49,31,0
3,36,31,5
3,38,31,0
3,38,31,5
3,38,31,5
3,38,31,125
3,38,31,5
3,38,31,5
3,49,31,0
3,38,31,5
3,38,31,5
3,38,31,5
3,35,31,0
3,38,31,125
3,38,31,5
3,38,31,5
3,49,31,0
3,38,31,5
3,38,31,5
3,38,31,5
3,38,31,125
3,38,31,5
3,38,31,5
3,49,31,0
3,38,31,5
3,38,31,5
3,38,31,5
3,35,31,0
3,38,31,120
3,38,31,0
3,38,31,0
3,40,31,0
3,49,31,0
3,36,31,0
3,38,31,0
3,38,31,0
3,38,31,0
3,38,31,120
3,38,31,0
3,38,31,0
3,49,31,0
3,38,31,0
3,38,31,0
3,38,31,0
3,35,31,0
3,38,31,120
3,38,31,0
3,38,31,0
3,49,31,0
3,38,31,0
3,38,31,0
3,38,31,0
3,38,31,120
3,38,31,0
3,38,31,0
3,49,31,0
3,38,31,0
3,38,31,0
3,38,31,5
3,35,31,0
3,38,31,125
3,38,31,5
3,38,31,5
3,40,31,0
3,49,31,0
3,36,31,5
3,38,31,0
3,38,31,5
3,38,31,5
3,38,31,125
3,38,31,5
3,38,31,5
3,49,31,0
3,38,31,5
3,38,31,5
3,38,31,5
3,35,31,0
3,38,31,125
3,38,31,5
3,38,31,5
3,49,31,0
3,38,31,5
3,38,31,5
3,38,31,5
3,38,31,125
3,38,31,5
3,38,31,5
3,49,31,0
3,38,31,5
3,38,31,5
3,38,31,10
3,35,31,0
3,38,31,125
3,38,31,5
3,38,31,5
3,40,31,0
3,49,31,0
3,36,31,5
3,38,31,0
3,38,31,5
3,38,31,5
3,38,31,125
3,38,31,5
3,38,31,5
3,49,31,0
3,38,31,5
3,38,31,5
3,38,31,5
3,35,31,0
3,38,31,125
3,38,31,5
3,38,31,5
3,49,31,0
3,38,31,5
3,38,31,5
3,38,31,5
3,38,31,125
3,38,31,5
3,38,31,5
3,49,31,0
3,38,31,5
3,38,31,5
3,38,31,110
3,35,31,0
3,38,31,125
3,38,31,5
3,38,31,5
3,40,31,0
3,49,31,0
3,36,31,5
3,38,31,0
3,38,31,5
3,38,31,5
3,38,31,125
3,38,31,5
3,38,31,5
3,49,31,0
3,38,31,5
3,38,31,5
3,38,31,5
3,35,31,0
3,38,31,125
3,38,31,5
3,38,31,5
3,49,31,0
3,38,31,5
3,38,31,5
3,38,31,5
3,38,31,125
3,38,31,5
3,38,31,5
3,49,31,0
3,38,31,5
3,38,31,5
3,38,31,5
3,35,31,0
3,38,31,120
3,38,31,0
3,38,31,0
3,40,31,0
3,49,31,0
3,36,31,0
3,38,31,0
3,38,31,0
3,38,31,0
3,38,31,120
3,38,31,0
3,38,31,0
3,49,31,0
3,38,31,0
3,38,31,0
3,38,31,0
3,35,31,0
3,38,31,120
3,38,31,0
3,38,31,0
3,49,31,0
