track,note,velocity,time
1,59,90,2877
1,59,0,226
1,60,110,20
1,60,0,211
1,62,85,21
1,62,0,138
1,58,92,54
1,58,0,15
1,57,94,2
1,57,0,174
1,57,85,39
1,57,0,49
1,59,75,4
1,59,0,188
1,60,101,56
1,60,0,136
1,62,97,58
1,62,0,146
1,59,101,388
1,59,0,196
1,60,113,44
1,60,0,175
1,67,66,63
1,67,0,0
1,67,68,0
1,67,0,0
1,64,58,0
1,64,0,0
1,62,107,6
1,62,0,117
1,58,86,49
1,57,97,6
1,58,0,3
1,57,0,211
1,57,92,35
1,59,107,57
1,57,0,3
1,59,0,151
1,60,125,86
1,60,0,111
1,62,120,70
1,62,0,96
1,67,110,183
1,67,0,37
1,67,113,26
1,67,0,47
1,64,113,27
1,64,0,70
1,65,118,50
1,67,118,63
1,65,0,10
1,64,118,48
1,67,0,4
1,67,118,52
1,64,0,4
1,67,0,33
1,67,118,18
1,67,0,58
1,64,118,0
1,64,0,150
1,63,118,42
1,65,118,58
1,63,0,8
1,63,118,49
1,65,0,5
1,63,0,34
1,65,118,19
1,65,0,30
1,65,118,23
1,65,0,48
1,62,118,5
1,62,117,70
1,63,117,11
1,62,0,13
1,62,0,3
1,62,117,51
1,63,0,8
1,60,118,38
1,62,0,13
1,60,0,96
1,63,110,380
1,65,110,59
1,63,0,8
1,63,110,47
1,65,0,6
1,63,0,40
1,65,110,13
1,65,0,27
1,65,110,21
1,65,0,55
1,62,110,5
1,62,0,139
1,62,101,420
1,62,0,50
1,69,101,52
1,70,101,16
1,71,101,6
1,70,0,6
1,69,0,7
1,69,101,49
1,71,0,14
1,67,102,43
1,69,0,5
1,69,102,53
1,67,0,6
1,67,102,56
1,69,0,3
1,67,0,98
1,62,96,976
1,62,0,50
1,69,96,52
1,70,96,16
1,71,96,6
1,70,0,6
1,69,0,7
1,69,96,49
1,71,0,14
1,67,96,43
1,69,0,5
1,69,96,53
1,67,0,6
1,67,96,56
1,69,0,3
1,67,0,98
1,62,97,79
1,60,94,66
1,62,0,2
1,60,0,29
1,60,88,23
1,60,0,26
1,60,90,32
1,60,0,28
1,60,71,25
1,60,0,30
1,65,92,33
1,64,78,1
1,64,0,30
1,65,0,77
1,62,92,0
1,62,0,35
1,60,83,40
1,59,58,40
1,60,0,8
1,59,0,7
1,58,10,0
1,57,61,15
1,58,0,3
1,55,64,3
1,57,0,9
1,55,0,39
1,58,77,2312
1,59,63,21
1,58,0,2
1,59,0,224
1,60,79,7
1,60,0,249
1,62,88,4
1,62,0,180
1,59,85,2
1,58,69,102
1,58,0,12
1,59,0,0
1,57,78,2
1,55,85,55
1,57,0,10
1,55,0,58
1,59,60,73
1,59,0,156
1,60,97,57
1,60,0,178
1,62,99,79
1,62,0,166
1,59,86,4
1,58,71,106
1,58,0,9
1,57,83,2
1,59,0,32
1,55,92,34
1,57,0,14
1,55,0,51
1,59,101,59
1,59,0,225
1,60,90,8
1,60,0,247
1,62,101,0
1,59,92,180
1,62,0,3
1,59,0,118
1,59,104,161
1,59,0,249
1,60,99,0
1,60,0,120
1,62,97,0
1,62,0,30
1,69,85,90
1,70,75,0
1,71,82,0
1,70,0,30
1,69,0,0
1,69,104,30
1,71,0,30
1,69,0,30
1,67,92,0
1,67,0,60
1,69,76,0
1,69,0,60
1,67,117,0
1,67,0,90
1,65,118,151
1,67,118,63
1,65,0,10
1,64,118,48
1,67,0,4
1,67,118,52
1,64,0,4
1,67,0,33
1,67,118,18
1,67,0,58
1,64,118,0
1,64,0,150
1,63,118,42
1,65,118,58
1,63,0,8
1,63,118,49
1,65,0,5
1,63,0,34
1,65,118,19
1,65,0,30
1,65,118,23
1,65,0,48
1,62,118,5
1,62,117,70
1,63,117,11
1,62,0,13
1,62,0,3
1,62,117,51
1,63,0,8
1,60,118,38
1,62,0,13
1,60,0,96
1,63,110,380
1,65,110,59
1,63,0,8
1,63,110,47
1,65,0,6
1,63,0,40
1,65,110,13
1,65,0,27
1,65,110,21
1,65,0,55
1,62,110,5
1,62,0,139
1,62,112,420
1,62,0,50
1,69,112,52
1,70,112,16
1,71,112,6
1,70,0,6
1,69,0,7
1,69,112,49
1,71,0,14
1,67,112,43
1,69,0,5
1,69,112,53
1,67,0,6
1,67,112,56
1,69,0,3
1,67,0,98
1,62,112,976
1,62,0,50
1,69,112,52
1,70,112,16
1,71,112,6
1,70,0,6
1,69,0,7
1,69,112,49
1,71,0,14
1,67,112,43
1,69,0,5
1,69,112,53
1,67,0,6
1,67,112,56
1,69,0,3
1,67,0,98
1,62,97,79
1,60,94,66
1,62,0,2
1,60,0,29
1,60,88,23
1,60,0,26
1,60,90,32
1,60,0,28
1,60,71,25
1,60,0,30
1,65,92,33
1,64,78,1
1,64,0,30
1,65,0,77
1,62,92,0
1,62,0,35
1,60,83,40
1,59,58,40
1,60,0,8
1,59,0,7
1,58,10,0
1,57,61,15
1,58,0,3
1,55,64,3
1,57,0,9
1,55,0,39
1,59,90,13608
1,59,0,226
1,60,110,20
1,60,0,211
1,62,85,21
1,62,0,138
1,58,92,54
1,58,0,15
1,57,94,2
1,57,0,174
1,57,85,39
1,57,0,49
1,59,75,4
1,59,0,188
1,60,101,56
1,60,0,136
1,62,97,58
1,62,0,146
1,59,101,388
1,59,0,196
1,60,113,44
1,60,0,175
1,67,66,63
1,67,0,0
1,67,68,0
1,67,0,0
1,64,58,0
1,64,0,0
1,62,107,6
1,62,0,117
1,58,86,49
1,57,97,6
1,58,0,3
1,57,0,211
1,57,92,35
1,59,107,57
1,57,0,3
1,59,0,151
1,60,125,86
1,60,0,111
1,62,120,70
1,62,0,96
1,65,118,680
1,67,118,63
1,65,0,10
1,64,118,48
1,67,0,4
1,67,118,52
1,64,0,4
1,67,0,33
1,67,118,18
1,67,0,58
1,64,118,0
1,64,0,150
1,63,118,42
1,65,118,58
1,63,0,8
1,63,118,49
1,65,0,5
1,63,0,34
1,65,118,19
1,65,0,30
1,65,118,23
1,65,0,48
1,62,118,5
1,62,0,94
1,62,118,28
1,60,118,69
1,62,0,9
1,60,0,93
1,63,110,390
1,65,110,59
1,63,0,8
1,63,110,47
1,65,0,6
1,63,0,40
1,65,110,13
1,65,0,27
1,65,110,21
1,65,0,55
1,62,110,5
1,62,0,139
1,63,110,540
1,65,110,59
1,63,0,8
1,63,110,47
1,65,0,6
1,63,0,40
1,65,110,13
1,65,0,27
1,65,110,21
1,65,0,55
1,62,110,5
1,62,0,139
1,70,87,715
1,82,87,0
1,82,0,60
1,70,0,0
1,69,86,20
1,81,86,0
1,81,0,60
1,69,0,0
1,67,89,18
1,79,89,0
1,69,76,97
1,81,76,0
1,79,0,5
1,67,0,0
1,67,82,89
1,79,82,0
1,69,0,1
1,81,0,0
1,67,0,119
1,79,0,0
1,65,88,6
1,77,88,0
1,65,0,593
1,77,0,67
4,70,84,960
4,67,74,0
4,74,70,0
4,70,0,19
4,71,90,0
4,71,0,36
4,74,0,1
4,67,0,12
4,77,83,45
4,74,92,0
4,74,0,31
4,77,0,0
4,70,81,30
4,74,79,0
4,67,71,0
4,70,0,28
4,71,99,0
4,74,0,39
4,71,0,1
4,67,0,5
4,67,74,47
4,76,74,0
4,72,104,0
4,72,0,28
4,67,0,1
4,76,0,2
4,72,101,25
4,76,76,0
4,67,73,2
4,65,62,0
4,65,0,20
4,67,0,8
4,72,0,1
4,76,0,1
4,72,110,26
4,76,78,0
4,67,71,2
4,76,0,26
4,72,0,1
4,67,0,1
4,70,96,30
4,74,80,1
4,67,79,0
4,71,92,27
4,70,0,1
4,67,0,14
4,74,0,5
4,71,0,4
4,67,63,4
4,67,0,14
4,74,92,26
4,77,88,1
4,77,0,26
4,74,0,3
4,74,79,60
4,67,71,0
4,70,81,0
4,70,0,28
4,71,99,0
4,74,0,39
4,71,0,1
4,67,0,5
4,76,74,47
4,67,74,0
4,72,104,0
4,72,0,28
4,67,0,1
4,76,0,2
4,72,101,25
4,76,76,0
4,67,73,2
4,67,0,28
4,72,0,1
4,76,0,1
4,72,110,26
4,76,78,0
4,67,71,2
4,76,0,26
4,72,0,1
4,67,0,1
4,70,84,37
4,74,79,1
4,67,67,1
4,74,0,28
4,70,0,0
4,71,99,0
4,74,47,3
4,74,0,16
4,71,0,4
4,67,0,4
4,77,75,60
4,74,78,1
4,67,66,1
4,69,66,0
4,69,0,6
4,74,0,22
4,77,0,1
4,67,0,2
4,74,80,26
4,70,92,1
4,65,62,0
4,67,66,1
4,67,0,18
4,65,0,1
4,70,0,11
4,71,94,0
4,67,62,1
4,74,0,23
4,71,0,3
4,67,0,10
4,72,92,55
4,67,74,0
4,76,74,0
4,67,0,27
4,72,0,0
4,76,0,3
4,72,90,26
4,76,72,1
4,67,67,0
4,72,0,27
4,67,0,1
4,76,0,1
4,72,101,29
4,76,79,1
4,67,72,0
4,67,0,30
4,76,0,1
4,72,0,0
4,73,94,518
4,73,0,0
4,77,94,0
4,74,94,1
4,77,0,29
4,74,0,2
4,74,92,32
4,77,92,3
4,77,0,20
4,74,0,2
4,74,91,35
4,77,91,3
4,77,0,17
4,74,0,2
4,72,92,35
4,76,92,2
4,76,0,22
4,72,0,0
4,72,99,36
4,76,99,2
4,76,0,19
4,72,0,2
4,72,99,33
4,76,99,3
4,76,0,22
4,72,0,0
4,72,97,38
4,76,97,2
4,76,0,20
4,72,0,1
4,70,97,37
4,74,97,3
4,70,0,53
4,71,97,4
4,74,0,31
4,71,0,5
4,71,98,26
4,74,98,2
4,74,0,23
4,71,0,3
4,71,99,34
4,74,99,1
4,74,0,18
4,71,0,3
4,72,97,36
4,76,97,1
4,76,0,25
4,72,0,0
4,72,95,38
4,76,95,2
4,76,0,21
4,72,0,0
4,72,95,34
4,76,95,3
4,76,0,21
4,72,0,0
4,70,95,33
4,74,95,5
4,70,0,7
4,71,95,1
4,74,0,17
4,71,0,1
4,72,95,33
4,76,95,0
4,76,0,20
4,72,0,0
4,73,95,36
4,73,0,0
4,77,95,0
4,74,95,1
4,77,0,29
4,74,0,2
4,74,93,32
4,77,92,3
4,77,0,20
4,74,0,2
4,74,92,35
4,77,92,3
4,77,0,17
4,74,0,2
4,72,93,35
4,76,93,2
4,76,0,22
4,72,0,0
4,72,101,36
4,76,101,2
4,76,0,19
4,72,0,2
4,72,99,33
4,76,99,3
4,76,0,22
4,72,0,0
4,72,97,38
4,76,97,2
4,76,0,20
4,72,0,1
4,70,98,37
4,74,98,3
4,70,0,53
4,71,98,4
4,74,0,31
4,71,0,5
4,71,98,26
4,74,98,2
4,74,0,23
4,71,0,3
4,71,98,34
4,74,98,1
4,74,0,18
4,71,0,3
4,72,100,36
4,76,100,1
4,76,0,25
4,72,0,0
4,72,98,38
4,76,98,2
4,76,0,21
4,72,0,0
4,72,98,34
4,76,98,3
4,76,0,21
4,72,0,0
4,70,98,33
4,74,98,5
4,70,0,7
4,71,98,1
4,74,0,17
4,71,0,1
4,72,98,33
4,76,98,0
4,76,0,20
4,72,0,0
4,73,100,36
4,73,0,0
4,77,100,0
4,74,100,1
4,77,0,29
4,74,0,2
4,74,106,32
4,77,106,3
4,77,0,20
4,74,0,2
4,74,108,35
4,77,108,3
4,77,0,17
4,74,0,2
4,72,107,35
4,76,107,2
4,76,0,22
4,72,0,0
4,72,107,36
4,76,107,2
4,76,0,19
4,72,0,2
4,72,104,33
4,76,104,3
4,76,0,22
4,72,0,0
4,72,102,38
4,76,102,2
4,76,0,20
4,72,0,1
4,70,101,37
4,74,101,3
4,70,0,53
4,71,101,4
4,74,0,31
4,71,0,5
4,71,100,26
4,74,100,2
4,74,0,23
4,71,0,3
4,71,101,34
4,74,101,1
4,74,0,18
4,71,0,3
4,72,100,36
4,76,100,1
4,76,0,25
4,72,0,0
4,72,106,38
4,76,106,2
4,76,0,21
4,72,0,0
4,72,105,34
4,76,105,3
4,76,0,21
4,72,0,0
4,70,105,33
4,74,105,5
4,70,0,7
4,71,105,1
4,74,0,17
4,71,0,1
4,72,106,33
4,76,106,0
4,76,0,20
4,72,0,0
4,73,110,36
4,73,0,0
4,77,110,0
4,74,110,1
4,77,0,29
4,74,0,2
4,74,109,32
4,77,109,3
4,77,0,20
4,74,0,2
4,74,108,35
4,77,108,3
4,77,0,17
4,74,0,2
4,72,108,35
4,76,108,2
4,76,0,22
4,72,0,0
4,72,107,36
4,76,107,2
4,76,0,19
4,72,0,2
4,72,109,33
4,76,109,3
4,76,0,22
4,72,0,0
4,72,111,38
4,76,111,2
4,76,0,20
4,72,0,1
4,70,121,37
4,74,121,3
4,52,94,49
4,70,0,4
4,50,83,0
4,52,0,2
4,48,78,2
4,50,0,2
4,43,97,1
4,47,82,1
4,45,110,0
4,41,85,0
4,48,0,2
4,47,104,0
4,50,85,0
4,48,113,0
4,40,67,0
4,38,65,0
4,45,80,2
4,47,0,2
4,43,80,2
4,45,0,2
4,43,0,5
4,40,68,2
4,38,66,7
4,40,0,3
4,74,0,0
4,38,0,11
4,53,99,3
4,52,101,2
4,50,92,2
4,53,0,2
4,48,85,5
4,52,0,1
4,47,92,4
4,50,0,1
4,38,0,3
4,45,76,0
4,48,0,1
4,41,0,1
4,40,0,0
4,48,0,1
4,43,0,0
4,45,0,0
4,50,0,1
4,47,0,0
4,43,75,1
4,47,0,1
4,45,0,4
4,43,0,4
4,40,52,2
4,38,62,6
4,40,0,3
4,36,54,6
4,38,0,1
4,55,66,2
4,53,80,2
4,36,0,1
4,55,0,1
4,52,66,0
4,50,63,8
4,53,0,1
4,43,101,2
4,45,99,1
4,47,94,1
4,41,90,0
4,50,78,0
4,48,104,0
4,40,73,0
4,52,0,1
4,48,73,0
4,50,0,4
4,47,88,1
4,38,67,0
4,45,71,6
4,48,0,1
4,47,0,6
4,43,66,0
4,45,0,6
4,43,0,6
4,40,73,2
4,40,0,11
4,60,104,1
4,59,99,1
4,57,80,1
4,60,0,6
4,55,85,3
4,59,0,2
4,57,0,3
4,53,90,0
4,38,0,2
4,48,0,0
4,41,0,0
4,50,0,0
4,45,0,1
4,40,0,0
4,47,0,0
4,43,0,0
4,52,86,0
4,55,0,2
4,50,85,4
4,53,0,1
4,48,92,3
4,52,0,2
4,47,101,3
4,50,0,1
4,45,80,3
4,48,0,1
4,43,80,2
4,47,0,2
4,45,0,3
4,43,0,5
4,40,61,1
4,38,71,5
4,40,0,2
4,53,85,1
4,52,79,1
4,38,0,4
4,50,57,2
4,53,0,2
4,45,97,1
4,43,97,0
4,47,97,0
4,41,92,3
4,38,78,0
4,48,99,0
4,50,82,0
4,40,80,0
4,48,66,1
4,52,0,1
4,50,0,5
4,47,83,0
4,48,0,6
4,45,73,0
4,43,69,7
4,47,0,1
4,45,0,7
4,43,0,6
4,40,50,3
4,40,0,11
4,59,86,2
4,57,88,1
4,55,90,0
4,59,0,8
4,48,0,3
4,40,0,0
4,50,0,0
4,38,0,0
4,53,57,0
4,43,0,1
4,47,0,0
4,45,0,0
4,41,0,0
4,57,0,1
4,52,88,3
4,55,0,1
4,50,90,3
4,53,0,1
4,48,74,3
4,52,0,2
4,47,90,4
4,50,0,2
4,48,0,4
4,45,85,0
4,43,86,3
4,47,0,2
4,45,0,4
4,40,74,4
4,43,0,1
4,38,57,5
4,40,0,3
4,36,62,3
4,55,99,1
4,53,99,0
4,38,0,2
4,45,113,2
4,36,0,1
4,47,113,0
4,48,113,0
4,50,88,0
4,38,86,0
4,52,48,1
4,55,0,2
4,41,104,1
4,40,90,0
4,43,97,0
4,50,73,4
4,53,0,1
4,52,0,4
4,48,79,0
4,50,0,4
4,47,70,2
4,48,0,5
4,45,74,0
4,47,0,5
4,43,73,1
4,45,0,5
4,43,0,5
4,40,54,2
4,38,61,7
4,40,0,4
4,36,55,3
4,38,0,3
4,57,113,0
4,55,117,1
4,53,49,3
4,36,0,2
4,57,0,3
4,52,59,1
4,55,0,1
4,48,0,2
4,41,0,0
4,40,0,0
4,50,0,0
4,50,97,0
4,38,0,1
