track,note,velocity,time
1,38,60,960
1,66,60,0
1,57,60,120
1,62,60,120
1,38,60,2
1,66,60,0
1,57,60,2
1,64,60,2
1,38,60,2
1,62,60,2
1,43,60,2
1,64,60,0
1,57,60,120
1,62,60,2
1,43,60,2
1,64,60,0
1,62,60,2
1,57,60,2
1,43,60,2
1,62,60,0
1,64,60,2
1,38,60,2
1,66,60,0
1,57,60,120
1,62,60,120
1,38,60,2
1,66,60,0
1,57,60,2
1,64,60,2
1,38,60,2
1,62,60,2
1,43,60,2
1,64,60,0
1,57,60,120
1,62,60,2
1,43,60,2
1,64,60,0
1,62,60,2
1,57,60,2
1,43,60,2
1,62,60,0
1,64,60,2
1,38,60,2
1,66,60,0
1,57,60,120
1,62,60,120
1,38,60,2
1,66,60,0
1,57,60,2
1,64,60,2
1,38,60,2
1,62,60,2
1,43,60,2
1,64,60,0
1,57,60,120
1,62,60,2
1,43,60,2
1,64,60,0
1,62,60,2
1,57,60,2
1,43,60,2
1,62,60,0
1,64,60,2
1,47,60,2
1,66,60,0
1,57,60,120
1,62,60,120
1,47,60,2
1,66,60,0
1,57,60,2
1,64,60,2
1,47,60,2
1,62,60,2
1,40,60,2
1,57,60,0
1,62,60,120
1,64,60,2
1,40,60,2
1,56,60,0
1,62,60,2
1,57,60,2
1,62,60,2
1,40,60,0
1,64,60,120
1,38,60,2
1,66,60,0
1,57,60,120
1,62,60,120
1,38,60,2
1,66,60,0
1,57,60,2
1,64,60,2
1,38,60,2
1,62,60,2
1,43,60,2
1,64,60,0
1,57,60,120
1,62,60,2
1,43,60,2
1,64,60,0
1,62,60,2
1,57,60,2
1,43,60,2
1,62,60,0
1,64,60,2
1,38,60,2
1,66,60,0
1,38,60,2
1,66,60,0
1,57,60,120
1,62,60,120
1,38,60,2
1,66,60,0
1,57,60,2
1,64,60,2
1,38,60,2
1,62,60,2
1,43,60,0
1,64,60,0
1,57,60,120
1,62,60,2
1,43,60,2
1,64,60,0
1,62,60,2
1,57,60,2
1,43,60,2
1,62,60,0
1,64,60,2
1,38,60,2
1,66,60,0
1,66,60,2
1,38,60,0
1,57,60,120
1,62,60,120
1,38,60,2
1,66,60,0
1,57,60,2
1,64,60,2
1,38,60,2
1,62,60,2
1,64,60,2
1,43,60,0
1,57,60,120
1,62,60,2
1,43,60,2
1,64,60,0
1,62,60,2
1,57,60,2
1,43,60,2
1,62,60,0
1,64,60,2
1,38,60,0
1,66,60,0
1,57,60,118
1,62,60,120
1,38,60,2
1,66,60,0
1,57,60,2
1,64,60,2
1,38,60,2
1,62,60,2
1,43,60,4
1,64,60,0
1,57,60,118
1,62,60,2
1,43,60,2
1,64,60,0
1,62,60,2
1,57,60,2
1,43,60,2
1,62,60,0
1,64,60,2
1,66,60,4
1,38,60,0
1,38,60,0
1,66,60,0
1,57,60,120
1,62,60,120
1,38,60,2
1,66,60,0
1,57,60,2
1,64,60,2
1,38,60,2
1,62,60,2
1,43,60,2
1,64,60,0
1,57,60,120
1,62,60,2
1,43,60,2
1,64,60,0
1,62,60,2
1,57,60,2
1,43,60,2
1,62,60,0
1,64,60,2
1,38,60,2
1,66,60,0
1,38,60,2
1,66,60,0
1,57,60,120
1,62,60,120
1,38,60,2
1,66,60,0
1,57,60,2
1,64,60,2
1,38,60,2
1,62,60,2
1,64,60,2
1,43,60,0
1,57,60,120
1,62,60,2
1,43,60,2
1,64,60,0
1,62,60,2
1,57,60,2
1,43,60,2
1,62,60,0
1,64,60,2
1,66,60,2
1,38,60,0
1,38,60,2
1,66,60,0
1,57,60,120
1,62,60,120
1,38,60,2
1,66,60,0
1,57,60,2
1,64,60,2
1,38,60,2
1,62,60,2
1,64,60,2
1,43,60,0
1,57,60,120
1,62,60,2
1,43,60,2
1,64,60,0
1,62,60,2
1,57,60,2
1,43,60,2
1,62,60,0
1,64,60,2
1,66,60,2
1,38,60,0
1,38,60,2
1,66,60,0
1,57,60,120
1,62,60,120
1,38,60,2
1,66,60,0
1,57,60,2
1,64,60,2
1,38,60,2
1,62,60,2
1,64,60,2
1,43,60,0
1,57,60,120
1,62,60,2
1,43,60,2
1,64,60,0
1,62,60,2
1,57,60,2
1,43,60,2
1,62,60,0
1,64,60,2
1,66,60,2
1,38,60,0
1,38,60,2
1,66,60,0
1,57,60,120
1,62,60,120
1,38,60,2
1,66,60,0
1,57,60,2
1,64,60,2
1,38,60,2
1,62,60,2
1,43,60,112
1,64,60,0
1,57,60,114
1,62,60,2
1,43,60,2
1,64,60,0
1,62,60,2
1,57,60,2
1,43,60,2
1,62,60,0
1,64,60,2
1,38,60,2
1,66,60,0
1,66,60,2
1,38,60,0
1,57,60,120
1,62,60,120
1,66,60,2
1,38,60,0
1,57,60,2
1,64,60,2
1,38,60,2
1,62,60,2
1,64,60,2
1,43,60,0
1,57,60,120
1,62,60,2
1,43,60,2
1,64,60,0
1,62,60,2
1,57,60,2
1,62,60,2
1,43,60,0
1,64,60,2
1,47,60,0
1,47,60,0
1,66,60,2
1,66,60,2
1,57,60,120
1,62,60,120
1,47,60,2
1,66,60,2
1,57,60,2
1,64,60,2
1,47,60,2
1,62,60,2
1,43,60,2
1,64,60,0
1,57,60,120
1,62,60,2
1,43,60,2
1,64,60,0
1,62,60,2
1,57,60,2
1,62,60,2
1,43,60,0
1,64,60,2
1,47,60,116
1,47,60,0
1,66,60,2
1,66,60,2
1,57,60,120
1,62,60,120
1,47,60,2
1,66,60,2
1,57,60,2
1,64,60,2
1,47,60,2
1,62,60,2
1,64,60,2
1,43,60,0
1,57,60,120
1,62,60,2
1,64,60,2
1,43,60,0
1,62,60,2
1,57,60,2
1,43,60,2
1,62,60,0
1,64,60,2
1,66,60,2
1,38,60,0
1,66,60,2
1,38,60,0
1,57,60,120
1,62,60,120
1,66,60,2
1,38,60,0
1,57,60,2
1,64,60,2
1,38,60,2
1,62,60,2
1,43,60,112
1,64,60,0
1,57,60,114
1,62,60,2
1,64,60,2
1,43,60,0
1,62,60,2
1,57,60,2
1,43,60,2
1,62,60,0
1,64,60,2
1,47,60,2
1,66,60,0
1,57,60,120
1,62,60,120
1,47,60,2
1,66,60,0
1,57,60,2
1,64,60,2
1,47,60,2
1,62,60,2
1,40,60,2
1,57,60,0
1,62,60,120
1,64,60,2
1,56,60,2
1,40,60,0
1,62,60,2
1,57,60,2
1,40,60,2
1,62,60,0
1,64,60,2
1,55,60,2
1,59,60,0
1,62,60,0
1,57,60,122
1,61,60,0
1,64,60,0
1,57,60,242
1,64,60,0
1,61,60,0
1,64,60,2
1,57,60,0
1,61,60,0
1,55,60,362
1,59,60,0
1,62,60,0
1,64,60,2
1,61,60,0
1,57,60,0
1,57,60,362
1,64,60,0
1,61,60,0
1,61,60,120
1,57,60,0
1,64,60,0
1,61,60,2
1,64,60,0
1,57,60,0
1,64,60,122
1,57,60,0
1,61,60,0
1,55,60,2
1,59,60,0
1,62,60,0
1,61,60,2
1,64,60,0
1,57,60,0
1,57,60,242
1,64,60,0
1,61,60,0
1,61,60,2
1,64,60,0
1,57,60,0
1,71,60,242
1,55,60,0
1,67,60,2
1,62,60,2
1,57,60,2
1,73,60,0
1,69,60,2
1,62,60,2
1,71,60,2
1,57,60,2
1,62,60,2
1,50,60,0
1,62,60,0
1,57,60,0
1,66,60,0
1,38,60,2
1,66,60,0
1,57,60,120
1,62,60,120
1,38,60,2
1,66,60,0
1,57,60,2
1,64,60,2
1,38,60,2
1,62,60,2
1,43,60,2
1,64,60,0
1,57,60,120
1,62,60,2
1,43,60,2
1,64,60,0
1,62,60,2
1,57,60,2
1,43,60,2
1,62,60,0
1,64,60,2
1,38,60,2
1,66,60,0
1,66,60,2
1,38,60,0
1,57,60,120
1,62,60,120
1,38,60,2
1,66,60,0
1,57,60,2
1,64,60,2
1,38,60,2
1,62,60,2
1,43,60,2
1,64,60,0
1,57,60,120
1,62,60,2
1,43,60,2
1,64,60,0
1,62,60,2
1,57,60,2
1,43,60,2
1,62,60,0
1,64,60,2
1,38,60,2
1,66,60,0
1,66,60,2
1,38,60,0
1,57,60,120
1,62,60,120
1,38,60,2
1,66,60,0
1,57,60,2
1,64,60,2
1,38,60,2
1,62,60,2
1,43,60,2
1,64,60,0
1,57,60,120
1,62,60,2
1,43,60,2
1,64,60,0
1,62,60,2
1,57,60,2
1,43,60,2
1,62,60,0
1,64,60,2
1,66,60,2
1,38,60,0
1,66,60,2
1,38,60,0
1,57,60,120
1,62,60,120
1,38,60,2
1,66,60,0
1,57,60,2
1,64,60,2
1,38,60,2
1,62,60,2
1,43,60,2
1,64,60,0
1,57,60,120
1,62,60,2
1,43,60,2
1,64,60,0
1,62,60,2
1,57,60,2
1,43,60,2
1,62,60,0
1,64,60,2
1,66,60,2
1,38,60,0
1,66,60,2
1,38,60,0
1,57,60,120
1,62,60,120
1,38,60,2
1,66,60,0
1,57,60,2
1,64,60,2
1,38,60,2
1,62,60,2
1,43,60,2
1,64,60,0
1,57,60,120
1,62,60,2
1,43,60,2
1,64,60,0
1,62,60,2
1,57,60,2
1,43,60,2
1,62,60,0
1,64,60,2
1,38,60,112
1,66,60,0
1,57,60,114
1,62,60,120
1,38,60,2
1,66,60,0
1,57,60,2
1,64,60,2
1,38,60,2
1,62,60,2
1,43,60,2
1,64,60,0
1,57,60,120
1,62,60,2
1,43,60,2
1,64,60,0
1,62,60,2
1,57,60,2
1,43,60,2
1,62,60,0
1,64,60,2
1,38,60,2
1,66,60,0
1,38,60,2
1,66,60,0
1,57,60,120
1,62,60,120
1,66,60,2
1,38,60,0
1,57,60,2
1,64,60,2
1,38,60,2
1,62,60,2
1,43,60,2
1,64,60,0
1,57,60,120
1,62,60,2
1,43,60,2
1,64,60,0
1,62,60,2
1,57,60,2
1,43,60,2
1,62,60,0
1,64,60,2
1,38,60,2
1,66,60,0
1,66,60,2
1,38,60,0
1,57,60,120
1,62,60,120
1,38,60,2
1,66,60,0
1,57,60,2
1,64,60,2
1,38,60,2
1,62,60,2
1,43,60,2
1,64,60,0
1,57,60,120
1,62,60,2
1,43,60,2
1,64,60,0
1,62,60,2
1,57,60,2
1,43,60,2
1,62,60,0
1,64,60,2
1,66,60,2
1,38,60,0
1,66,60,2
1,38,60,0
1,57,60,120
1,62,60,120
1,66,60,2
1,38,60,0
1,57,60,2
1,64,60,2
1,38,60,2
1,62,60,2
1,64,60,2
1,43,60,0
1,57,60,120
1,62,60,2
1,64,60,2
1,43,60,0
1,62,60,2
1,57,60,2
1,43,60,2
1,62,60,0
1,64,60,2
1,66,60,2
1,38,60,0
1,38,60,2
1,66,60,0
1,57,60,120
1,62,60,120
1,38,60,2
1,66,60,0
1,57,60,2
1,64,60,2
1,38,60,2
1,62,60,2
1,64,60,2
1,43,60,0
1,57,60,120
1,62,60,2
1,43,60,2
1,64,60,0
1,62,60,2
1,57,60,2
1,43,60,2
1,62,60,0
1,64,60,2
1,66,60,2
1,38,60,0
1,38,60,2
1,66,60,0
1,57,60,120
1,62,60,120
1,38,60,2
1,66,60,0
1,57,60,2
1,64,60,2
1,38,60,2
1,62,60,2
1,64,60,2
1,43,60,0
1,57,60,120
1,62,60,2
1,43,60,2
1,64,60,0
1,62,60,2
1,57,60,2
1,43,60,2
1,62,60,0
1,64,60,2
1,38,60,2
1,66,60,0
2,38,60,16320
2,43,60,2
2,38,60,2
2,43,60,2
2,38,60,2
2,43,60,2
2,38,60,2
2,43,60,2
2,38,60,2
2,43,60,2
2,38,60,2
2,43,60,2
2,47,60,2
2,43,60,2
2,47,60,2
2,43,60,2
2,38,60,2
2,38,60,242
2,38,60,242
2,43,60,122
2,43,60,242
2,43,60,242
2,47,60,122
2,47,60,242
2,47,60,242
2,40,60,122
2,38,60,0
2,43,60,2
2,38,60,2
2,43,60,2
2,38,60,2
2,43,60,2
2,38,60,2
2,43,60,2
2,38,60,2
2,43,60,2
3,57,60,16320
3,57,60,122
3,57,60,362
3,57,60,122
3,57,60,362
3,57,60,122
3,57,60,362
3,57,60,122
3,38,60,362
3,35,60,0
3,57,60,0
3,38,60,2
3,38,60,2
3,38,60,2
3,40,60,0
3,49,60,0
3,36,60,2
3,38,60,0
3,38,60,2
3,38,60,2
3,38,60,62
3,38,60,2
3,38,60,2
3,49,60,0
3,38,60,2
3,38,60,2
3,35,60,2
3,38,60,0
3,38,60,62
3,38,60,2
3,38,60,2
3,49,60,0
3,38,60,2
3,38,60,2
3,38,60,2
3,38,60,62
3,38,60,2
3,38,60,2
3,49,60,0
3,38,60,2
3,38,60,2
3,38,60,2
3,35,60,0
3,38,60,62
3,38,60,2
3,38,60,2
3,40,60,0
3,49,60,0
3,36,60,2
3,38,60,0
3,38,60,2
3,38,60,2
3,38,60,62
3,38,60,2
3,38,60,2
3,49,60,0
3,38,60,2
3,38,60,2
3,35,60,2
3,38,60,0
3,38,60,62
3,38,60,2
3,49,60,2
3,38,60,0
3,38,60,2
3,38,60,2
3,38,60,2
3,38,60,62
3,38,60,2
3,38,60,2
3,49,60,0
3,38,60,2
3,38,60,2
3,38,60,4
3,35,60,0
3,38,60,62
3,38,60,2
3,38,60,2
3,49,60,0
3,40,60,0
3,36,60,2
3,38,60,0
3,38,60,2
3,38,60,2
3,38,60,62
3,38,60,2
3,38,60,2
3,49,60,0
3,38,60,2
3,35,60,62
3,38,60,0
3,38,60,62
3,38,60,2
3,49,60,2
3,38,60,0
3,38,60,2
3,38,60,2
3,38,60,2
3,38,60,62
3,38,60,2
3,38,60,2
3,49,60,0
3,38,60,2
3,38,60,64
3,35,60,0
3,38,60,62
3,38,60,2
3,38,60,2
3,40,60,0
3,49,60,0
3,38,60,2
3,36,60,0
3,38,60,2
3,38,60,2
3,38,60,62
3,38,60,2
3,38,60,2
3,49,60,0
3,38,60,2
3,38,60,58
3,38,60,2
3,35,60,0
3,38,60,62
3,38,60,2
3,38,60,2
3,49,60,0
3,38,60,2
3,38,60,2
3,38,60,2
3,38,60,62
3,38,60,2
3,38,60,2
3,49,60,0
3,38,60,2
3,38,60,58
3,38,60,4
3,35,60,0
3,38,60,62
3,38,60,2
3,49,60,2
3,40,60,0
3,38,60,0
3,36,60,2
3,38,60,0
3,38,60,2
3,38,60,2
3,38,60,62
3,38,60,2
3,49,60,2
3,38,60,0
3,38,60,2
3,38,60,56
3,35,60,2
3,38,60,0
3,38,60,62
3,38,60,2
3,49,60,2
3,38,60,0
3,38,60,2
3,38,60,2
3,38,60,2
3,38,60,62
3,38,60,2
3,38,60,2
3,49,60,0
3,38,60,2
3,35,60,56
3,38,60,0
3,38,60,0
3,38,60,62
3,38,60,2
3,40,60,2
3,49,60,0
3,38,60,0
3,36,60,2
3,38,60,0
3,38,60,2
3,38,60,2
3,38,60,62
3,38,60,2
3,38,60,2
3,49,60,0
3,38,60,2
3,38,60,2
3,35,60,2
3,38,60,0
3,38,60,62
3,38,60,2
3,38,60,2
3,49,60,0
3,38,60,2
3,38,60,2
3,38,60,2
3,38,60,62
3,38,60,2
3,38,60,2
3,49,60,0
3,38,60,2
3,38,60,2
3,38,60,4
3,35,60,0
3,38,60,62
3,38,60,2
3,38,60,2
3,40,60,0
3,49,60,0
3,38,60,2
3,36,60,0
3,38,60,2
3,38,60,2
3,38,60,62
3,38,60,2
3,38,60,2
3,49,60,0
3,38,60,2
3,35,60,62
3,38,60,0
3,38,60,62
3,38,60,2
3,49,60,2
3,38,60,0
3,38,60,2
3,38,60,2
3,38,60,2
3,38,60,62
3,38,60,2
3,38,60,2
3,49,60,0
3,38,60,2
3,35,60,60
3,38,60,0
3,38,60,62
3,38,60,2
3,49,60,2
3,40,60,0
3,38,60,0
3,36,60,2
3,38,60,0
3,38,60,2
3,38,60,2
3,38,60,62
3,38,60,2
3,38,60,2
3,49,60,0
3,38,60,2
3,38,60,2
3,35,60,6
3,38,60,0
3,38,60,62
3,38,60,2
3,49,60,2
3,38,60,0
3,38,60,2
3,38,60,2
3,38,60,2
3,38,60,62
