track,note,velocity,time
3,37,102,348
3,35,95,384
3,37,0,16
3,33,107,368
3,35,0,0
3,35,102,384
3,33,0,4
3,35,0,366
3,37,104,14
3,37,0,380
3,35,99,4
3,33,108,384
3,35,0,8
3,33,0,372
3,35,100,4
3,35,0,336
3,37,100,48
3,35,94,384
3,37,0,16
3,33,103,368
3,35,0,0
3,35,105,384
3,33,0,4
3,35,0,366
3,37,111,14
3,37,0,380
3,35,102,4
3,33,105,384
3,35,0,8
3,33,0,372
3,35,104,4
3,35,0,336
3,37,106,48
3,35,93,384
3,37,0,16
3,33,103,368
3,35,0,0
3,35,98,384
3,33,0,4
3,35,0,366
3,37,105,14
3,37,0,380
3,35,105,4
3,33,105,384
3,35,0,8
3,30,95,280
3,33,0,0
3,30,0,90
3,35,98,6
3,35,0,94
3,32,95,2
3,35,99,96
3,32,0,2
3,35,0,84
3,32,105,10
3,32,0,72
3,37,105,24
3,35,90,384
3,37,0,16
3,33,109,368
3,35,0,0
3,35,101,384
3,33,0,4
3,35,0,366
3,37,106,14
3,37,0,380
3,35,102,4
3,33,106,384
3,35,0,8
3,33,0,372
3,35,101,4
3,35,0,336
3,37,107,48
3,35,93,384
3,37,0,16
3,33,105,368
3,35,0,0
3,35,98,384
3,33,0,4
3,35,0,366
3,37,109,14
3,37,0,380
3,35,99,4
3,33,101,384
3,35,0,8
3,30,90,280
3,33,0,0
3,30,0,90
3,35,103,6
3,35,0,94
3,32,95,2
3,35,103,96
3,32,0,2
3,35,0,84
3,32,104,10
3,32,0,72
3,37,107,24
3,35,96,384
3,37,0,16
3,33,107,368
3,35,0,0
3,35,105,384
3,33,0,4
3,35,0,366
3,37,106,14
3,37,0,380
3,35,103,4
3,28,111,384
3,35,0,8
3,28,0,146
3,28,105,38
3,28,0,78
3,28,100,18
3,28,0,72
3,28,112,24
3,28,0,164
3,28,103,28
3,28,0,164
3,28,113,28
3,28,0,160
3,28,114,32
3,28,0,68
3,28,102,28
3,28,0,82
3,28,107,14
3,28,0,154
3,28,105,38
3,28,0,122
3,37,111,70
3,37,0,200
3,37,102,88
3,37,0,44
3,37,103,52
3,37,0,180
3,32,100,12
3,32,0,172
3,30,109,20
3,30,0,220
3,30,115,68
3,30,0,56
3,30,113,40
3,37,103,192
3,30,0,2
3,37,0,174
3,35,112,16
3,35,0,230
3,35,108,58
3,35,0,34
3,35,109,62
3,35,0,184
3,30,108,8
3,28,110,192
3,30,0,6
3,28,0,200
3,28,114,82
3,28,0,28
3,28,117,68
3,28,0,188
3,39,99,4
3,39,0,176
3,37,101,16
3,37,0,244
3,37,113,44
3,37,0,34
3,37,110,62
3,32,112,192
3,37,0,8
3,32,0,156
3,30,105,28
3,30,0,220
3,30,107,68
3,30,0,26
3,30,111,70
3,37,104,192
3,30,0,4
3,37,0,172
3,35,105,16
3,35,0,210
3,35,101,78
3,35,0,28
3,35,103,68
3,35,0,180
3,30,107,12
3,30,0,178
3,28,108,14
3,28,0,208
3,28,113,80
3,28,0,20
3,28,113,76
3,39,105,192
3,28,0,2
3,39,0,158
3,37,109,32
3,37,0,200
3,37,107,88
3,37,0,44
3,37,100,52
3,37,0,180
3,32,105,12
3,32,0,172
3,30,114,20
3,30,0,220
3,30,116,68
3,30,0,56
3,30,116,40
3,37,99,192
3,30,0,2
3,37,0,174
3,35,114,16
3,35,0,230
3,35,111,58
3,35,0,34
3,35,108,62
3,35,0,184
3,30,109,8
3,28,108,192
3,30,0,6
3,28,0,200
3,28,117,82
3,28,0,28
3,28,119,68
3,28,0,188
3,39,103,4
3,39,0,176
3,37,101,16
3,37,0,244
3,37,106,44
3,37,0,34
3,37,112,62
3,32,109,192
3,37,0,8
3,32,0,156
3,30,104,28
3,30,0,220
3,30,111,68
3,30,0,26
3,30,111,70
3,37,107,192
3,30,0,4
3,37,0,172
3,35,109,16
3,35,0,210
3,35,107,78
3,35,0,28
3,35,100,68
3,35,0,180
3,30,107,12
3,30,0,178
3,28,102,14
3,28,0,206
3,28,113,82
3,28,0,62
3,28,110,34
3,28,0,152
3,28,104,40
3,28,0,134
3,30,111,58
3,30,0,214
3,30,113,74
3,30,0,70
3,30,106,26
3,30,0,172
3,30,101,20
3,30,0,172
3,35,108,20
3,35,0,260
3,35,102,28
3,35,0,82
3,35,108,14
3,35,0,156
3,35,102,36
3,35,0,190
3,28,104,2
3,28,0,250
3,28,89,38
3,28,0,88
3,28,89,8
3,28,0,334
3,37,109,50
3,37,0,258
3,37,96,30
3,37,0,70
3,37,105,26
3,37,0,180
3,32,106,12
3,32,0,182
3,30,108,10
3,30,0,214
3,30,115,74
3,30,0,70
3,30,111,26
3,30,0,172
3,30,102,20
3,30,0,172
3,35,107,20
3,35,0,260
3,35,102,28
3,35,0,82
3,35,107,14
3,35,0,156
3,35,101,36
3,35,0,190
3,28,100,2
3,28,0,250
3,28,92,38
3,28,0,88
3,28,92,8
3,28,0,334
3,37,100,50
3,35,90,384
3,37,0,16
3,33,106,368
3,35,0,0
3,35,100,384
3,33,0,4
3,35,0,366
3,37,110,14
3,37,0,380
3,35,101,4
3,33,109,384
3,35,0,8
3,33,0,372
3,35,104,4
3,35,0,336
3,37,104,48
3,35,96,384
3,37,0,16
3,33,104,368
3,35,0,0
3,35,103,384
3,33,0,4
3,35,0,366
3,37,109,14
3,37,0,380
3,35,105,4
3,33,102,384
3,35,0,8
3,30,89,280
3,33,0,0
3,30,0,90
3,35,102,6
3,35,0,94
3,32,98,2
3,35,100,96
3,32,0,2
3,35,0,84
3,32,101,10
3,32,0,72
3,37,104,24
3,35,91,384
3,37,0,16
3,33,104,368
3,35,0,0
3,35,104,384
3,33,0,4
3,35,0,366
3,37,108,14
3,37,0,380
3,35,105,4
3,28,112,384
3,35,0,8
3,28,0,146
3,28,105,38
3,28,0,78
3,28,101,18
3,28,0,72
3,28,111,24
3,28,0,164
3,28,108,28
3,28,0,164
3,28,106,28
3,28,0,160
3,28,111,32
3,28,0,68
3,28,109,28
3,28,0,82
3,28,107,14
3,28,0,154
3,28,110,38
3,28,0,122
3,37,110,70
3,37,0,200
3,37,104,88
3,37,0,44
3,37,104,52
3,37,0,180
3,32,98,12
3,32,0,172
3,30,110,20
3,30,0,220
3,30,110,68
3,30,0,56
3,30,110,40
3,37,101,192
3,30,0,2
3,37,0,174
3,35,109,16
3,35,0,230
3,35,104,58
3,35,0,34
3,35,102,62
3,35,0,184
3,30,105,8
3,28,115,192
3,30,0,6
3,28,0,200
3,28,112,82
3,28,0,28
3,28,115,68
3,28,0,188
3,39,99,4
3,39,0,176
3,37,104,16
3,37,0,244
3,37,108,44
3,37,0,34
3,37,108,62
3,32,111,192
3,37,0,8
3,32,0,156
3,30,107,28
3,30,0,220
3,30,105,68
3,30,0,26
3,30,106,70
3,37,108,192
3,30,0,4
3,37,0,172
3,35,107,16
3,35,0,210
3,35,102,78
3,35,0,28
3,35,103,68
3,35,0,180
3,30,110,12
3,30,0,178
3,28,107,14
3,28,0,208
3,28,110,80
3,28,0,20
3,28,110,76
3,39,101,192
3,28,0,2
3,39,0,158
3,37,110,32
3,37,0,200
3,37,104,88
3,37,0,44
3,37,105,52
3,37,0,180
3,32,99,12
3,32,0,172
3,30,111,20
3,30,0,220
3,30,111,68
3,30,0,56
3,30,111,40
3,37,98,192
3,30,0,2
3,37,0,174
3,35,108,16
3,35,0,230
3,35,104,58
3,35,0,34
3,35,108,62
3,35,0,184
3,30,104,8
3,28,110,192
3,30,0,6
3,28,0,200
3,28,117,82
3,28,0,28
3,28,117,68
3,28,0,188
3,39,105,4
3,39,0,176
3,37,102,16
3,37,0,244
3,37,108,44
3,37,0,34
3,37,111,62
3,32,108,192
3,37,0,8
3,32,0,156
3,30,105,28
3,30,0,220
3,30,106,68
3,30,0,26
3,30,108,70
3,37,109,192
3,30,0,4
3,37,0,172
3,35,111,16
3,35,0,210
3,35,101,78
3,35,0,28
3,35,103,68
3,35,0,180
3,30,112,12
3,30,0,178
3,37,110,14
3,37,0,200
3,37,107,88
3,37,0,22
3,37,113,74
3,37,0,184
3,32,103,8
3,32,0,186
3,30,115,6
3,30,0,214
3,30,114,74
3,30,0,70
3,30,108,26
3,30,0,172
3,30,99,20
3,30,0,172
3,32,110,20
3,32,0,196
3,32,108,92
3,32,0,70
3,32,113,26
3,32,0,158
3,32,105,34
3,32,0,164
3,33,106,28
3,33,0,220
3,33,109,68
3,33,0,94
3,35,102,2
3,35,0,170
3,35,84,22
3,35,0,166
3,37,100,26
3,35,93,384
3,37,0,16
3,33,104,368
3,35,0,0
3,35,103,384
3,33,0,4
3,35,0,366
3,37,109,14
3,37,0,380
3,35,99,4
3,33,106,384
3,35,0,8
3,33,0,372
3,35,101,4
3,35,0,336
3,37,106,48
3,35,91,384
3,37,0,16
3,33,104,368
3,35,0,0
3,35,104,384
3,33,0,4
3,35,0,366
3,37,111,14
3,37,0,380
3,35,98,4
3,33,104,384
3,35,0,8
3,30,95,280
3,33,0,0
3,30,0,90
3,35,102,6
3,35,0,94
3,32,98,2
3,35,99,96
3,32,0,2
3,35,0,84
3,32,104,10
3,32,0,72
3,37,105,24
3,35,92,384
3,37,0,16
3,33,106,368
3,35,0,0
3,35,98,384
3,33,0,4
3,35,0,366
3,37,109,14
3,37,0,380
3,35,99,4
3,35,0,382
3,37,104,2
3,35,96,384
3,37,0,16
3,33,109,368
3,35,0,0
3,35,103,384
3,33,0,4
3,35,0,366
3,37,104,14
3,35,92,384
3,37,0,16
3,33,104,368
3,35,0,0
3,35,103,384
3,33,0,4
3,35,0,366
3,25,102,14
3,25,0,1458
4,80,100,25450
4,80,0,754
4,85,89,14
4,85,0,474
4,83,99,6
4,83,0,88
4,81,93,8
4,80,104,96
4,81,0,14
4,78,98,82
4,80,0,2
4,78,0,762
4,80,88,4
4,80,0,764
4,76,103,4
4,76,0,764
4,78,96,4
4,78,0,1522
4,76,87,14
4,76,0,732
4,76,68,13864
4,76,0,1494
4,80,102,6182
4,80,0,754
4,85,96,14
4,85,0,474
4,83,97,6
4,83,0,88
4,81,95,8
4,80,103,96
4,81,0,14
4,78,101,82
4,80,0,2
4,78,0,762
4,80,95,4
4,80,0,764
4,76,107,4
4,76,0,764
4,78,99,4
4,78,0,1522
4,76,94,14
4,76,0,764
4,78,93,4
4,78,0,764
4,80,95,4
4,80,0,764
4,81,98,4
4,81,0,476
4,83,100,4
4,83,0,284
4,76,75,4
4,76,0,1532
4,73,82,4
4,73,0,380
4,76,90,4
4,76,0,380
4,80,71,4
4,80,0,764
4,83,86,4
4,83,0,380
4,76,83,4
4,76,0,1148
4,73,78,4
4,73,0,380
4,76,91,4
4,76,0,380
4,80,65,4
4,80,0,764
4,73,77,4
4,73,0,3826
4,73,75,14
4,73,0,1534
5,64,87,2
5,64,94,22
5,64,0,72
5,64,106,20
5,64,0,86
5,66,88,12
5,66,0,196
5,64,88,4
5,64,0,86
5,63,95,6
5,63,0,88
5,64,88,6
5,64,0,282
5,59,95,102
5,59,0,34
5,64,103,6
5,64,0,28
5,66,115,24
5,66,0,82
5,68,100,16
5,68,0,104
5,69,109,2
5,69,0,70
5,68,98,20
5,68,0,148
5,66,97,42
5,66,0,88
5,64,79,6
5,64,0,74
5,66,90,12
5,66,0,200
5,68,91,0
5,68,0,90
5,66,91,8
5,66,0,90
5,64,90,4
5,64,0,258
5,64,93,6
5,64,87,24
5,64,0,64
5,64,96,24
5,64,0,74
5,66,104,12
5,66,0,194
5,64,94,8
5,64,0,88
5,63,85,2
5,63,0,90
5,64,104,4
5,64,0,242
5,64,96,140
5,64,0,24
5,66,112,74
5,66,0,80
5,68,104,16
5,68,0,104
5,69,105,2
5,69,0,78
5,68,111,18
5,68,0,132
5,73,112,54
5,73,0,116
5,68,88,70
5,68,0,32
5,71,102,8
5,69,104,14
5,69,0,78
5,68,109,16
5,68,0,80
5,66,102,12
5,66,0,396
5,68,116,372
5,68,0,30
5,71,98,18
5,71,0,38
5,73,103,10
5,73,0,68
5,73,105,28
5,73,0,180
5,68,97,12
5,68,0,34
5,71,98,14
5,71,0,36
5,73,108,12
5,73,0,58
5,73,102,38
5,73,0,182
5,68,92,10
5,68,0,34
5,71,103,14
5,71,0,42
5,73,111,6
5,73,0,62
5,73,107,34
5,73,0,94
5,71,107,2
5,71,0,94
5,76,102,2
5,76,0,182
5,75,105,10
5,75,0,82
5,73,103,14
5,73,0,84
5,71,100,12
5,71,0,82
5,73,109,14
5,73,0,86
5,68,106,16
5,68,0,54
5,68,75,118
5,68,0,24
5,66,96,4
5,66,0,36
5,68,96,8
5,68,0,36
5,71,109,2
5,71,0,94
5,69,112,2
5,69,0,90
5,68,112,6
5,68,0,76
5,66,100,24
5,66,0,356
5,68,98,370
5,68,0,16
5,68,105,28
5,68,0,30
5,71,101,14
5,71,0,38
5,73,118,8
5,73,0,84
5,71,104,12
5,71,0,36
5,68,102,12
5,68,0,126
5,71,107,18
5,71,0,84
5,73,96,12
5,73,0,86
5,71,108,10
5,71,0,68
5,68,100,124
5,68,0,40
5,71,101,8
5,71,0,46
5,73,110,2
5,71,99,96
5,73,0,0
5,71,0,34
5,73,111,14
5,73,0,122
5,71,109,22
5,71,0,92
5,76,105,4
5,76,0,86
5,75,107,10
5,75,0,90
5,73,108,6
5,73,0,88
5,71,108,8
5,71,0,76
5,73,106,20
5,73,0,180
5,68,66,58
5,68,0,30
5,66,78,14
5,66,0,40
5,68,91,6
5,68,0,36
5,71,111,12
5,71,0,86
5,69,94,22
5,69,0,80
5,68,99,14
5,68,0,88
5,66,103,10
5,66,0,336
5,61,105,4
5,63,111,60
5,61,0,4
5,63,0,94
5,64,104,4
5,64,0,90
5,66,104,2
5,64,92,192
5,66,0,0
5,63,96,88
5,64,0,0
5,63,0,100
5,64,102,4
5,64,0,190
5,56,101,14
5,56,0,34
5,64,89,186
5,64,0,22
5,66,105,26
5,66,0,90
5,68,104,10
5,68,0,104
5,69,113,0
5,69,0,86
5,68,104,14
5,68,0,150
5,66,109,38
5,66,0,90
5,64,104,6
5,64,0,86
5,66,100,10
5,66,0,170
5,63,104,18
5,63,0,180
5,64,106,10
5,64,0,464
5,73,101,6
5,75,96,12
5,75,0,86
5,76,102,8
5,68,105,8
5,68,0,188
5,69,104,2
5,69,0,466
5,76,111,4
5,76,106,20
5,76,0,70
5,76,112,26
5,75,104,188
5,76,0,0
5,75,0,70
5,75,99,18
5,75,0,82
5,75,108,22
5,75,0,196
5,76,100,2
5,76,0,160
5,76,91,28
5,76,0,384
5,73,106,4
5,75,103,12
5,75,0,84
5,76,108,12
5,68,104,14
5,68,0,190
5,69,103,2
5,76,113,16
5,76,102,20
5,76,0,78
5,76,109,22
5,75,102,176
5,76,0,6
5,75,0,72
5,75,100,20
5,75,0,78
5,75,104,22
5,75,0,192
5,76,103,2
5,76,0,166
5,76,99,24
5,76,0,434
5,76,110,150
5,76,0,78
5,78,110,14
5,80,108,2
5,83,102,16
5,83,0,72
5,83,100,28
5,80,98,86
5,80,0,74
5,80,104,18
5,80,0,76
5,80,104,2
5,78,101,12
5,78,0,80
5,78,95,24
5,78,0,286
5,76,105,8
5,76,0,82
5,76,92,12
5,76,0,402
5,73,109,14
5,75,105,4
5,75,0,92
5,76,109,6
5,68,108,572
5,76,0,114
5,68,0,70
5,69,116,4
5,69,0,440
5,76,106,4
5,76,100,24
5,76,0,68
5,76,103,24
5,76,0,68
5,76,106,26
5,75,102,12
5,75,0,70
5,75,106,30
5,75,0,286
5,76,100,4
5,76,0,62
5,76,104,24
5,76,0,824
5,75,99,242
5,75,0,80
5,73,86,16
5,73,0,242
5,71,61,74
5,71,0,60
5,73,71,16
5,73,0,252
5,71,59,22
5,71,0,90
5,73,90,12
5,71,72,2
5,71,0,260
5,68,110,3562
5,68,0,40
5,71,110,8
5,71,0,44
5,73,112,4
5,71,111,96
5,73,0,0
5,71,0,166
5,68,90,26
5,68,0,42
5,71,102,6
5,71,0,48
