track,note,velocity,time
2,26,127,936
2,31,116,240
2,26,107,4
2,26,72,10
2,33,85,10
2,35,105,12
2,36,102,4
2,31,95,384
2,26,95,0
2,26,80,8
2,26,82,52
2,36,100,4
2,31,100,4
2,26,98,384
2,38,62,380
2,33,89,24
2,35,87,24
2,36,100,28
2,31,91,384
2,26,100,22
2,26,76,28
2,38,85,32
2,26,82,32
2,26,93,30
2,30,85,192
2,31,70,34
2,33,89,34
2,31,87,384
2,26,87,40
2,26,98,30
2,26,85,68
2,28,100,16
2,33,100,6
2,38,80,384
2,38,87,28
2,26,70,22
2,26,93,62
2,33,107,2
2,33,64,30
2,36,82,32
2,38,85,28
2,31,85,4
2,31,66,18
2,33,58,30
2,31,82,32
2,31,102,28
2,36,98,16
2,31,89,384
2,26,85,378
2,26,70,16
2,26,85,22
2,26,95,66
2,33,85,32
2,35,89,22
2,36,95,28
2,31,91,384
2,26,87,380
2,26,87,26
2,26,87,30
2,26,78,74
2,33,91,192
2,35,85,28
2,36,100,8
2,31,95,0
2,26,91,0
2,26,89,16
2,26,95,24
2,26,95,62
2,33,87,16
2,35,91,26
2,36,93,24
2,31,98,2
2,26,82,8
2,26,68,38
2,26,89,30
2,26,78,58
2,26,66,32
2,28,74,48
2,33,98,12
2,26,98,2
2,31,98,392
2,31,70,26
2,31,85,30
2,31,100,68
2,28,87,14
2,33,89,4
2,33,80,16
2,35,89,48
2,38,107,40
2,38,85,36
2,26,66,34
2,26,100,66
2,26,64,14
2,28,78,48
2,33,102,8
2,35,82,288
2,36,80,44
2,38,102,46
2,26,95,176
2,31,91,10
2,31,61,22
2,33,82,48
2,31,70,16
2,31,100,24
2,34,100,24
2,29,85,20
2,34,95,48
2,34,95,72
2,26,85,8
2,31,100,4
2,26,78,2
2,31,93,48
2,31,85,60
2,34,80,192
2,36,87,0
2,39,100,48
2,39,52,30
2,27,66,0
2,27,100,62
2,26,72,192
2,27,76,36
2,31,98,0
2,26,54,336
2,31,66,38
2,31,89,54
2,33,74,192
2,35,72,36
2,28,100,44
2,35,82,334
2,40,89,0
2,33,95,28
2,28,72,0
2,33,102,48
2,33,98,48
2,33,95,38
2,26,87,0
2,26,100,0
2,26,85,70
2,26,102,36
2,26,80,44
2,26,102,32
2,26,105,72
2,28,105,96
2,32,78,44
2,33,98,44
2,28,87,34
2,33,80,48
2,33,93,54
2,30,82,0
2,25,82,26
2,30,89,48
2,30,95,50
2,38,102,18
2,26,80,2
2,26,98,24
2,26,95,54
2,28,105,12
2,28,93,44
2,28,102,32
2,28,98,30
2,28,102,30
2,28,113,42
2,33,107,96
2,35,87,40
2,38,105,46
2,33,100,16
2,28,91,384
2,26,61,328
2,28,95,28
2,28,85,52
2,33,98,144
2,35,102,32
2,38,107,14
2,38,98,40
2,33,91,48
2,33,100,42
2,33,89,46
2,28,78,48
2,28,95,42
2,28,89,32
2,28,93,28
2,28,100,36
2,33,98,144
2,35,102,30
2,38,105,92
2,26,87,270
2,31,89,32
2,33,89,42
2,28,82,8
2,28,80,30
2,28,80,72
2,33,87,0
2,35,87,48
2,38,100,36
2,26,85,56
2,31,82,48
2,33,82,42
2,33,66,48
2,28,76,48
2,28,85,56
2,28,70,22
2,28,72,28
2,28,85,54
2,38,113,6
2,33,98,2
2,33,87,34
2,35,82,48
2,28,82,42
2,28,85,28
2,28,91,26
2,28,87,60
2,33,87,144
2,35,87,30
2,38,102,6
2,28,89,28
2,31,89,48
2,33,87,40
2,33,95,34
2,35,89,48
2,40,59,42
2,28,90,0
2,47,68,18
2,56,53,48
2,56,81,2
2,56,65,20
2,56,97,22
2,56,93,24
2,54,67,48
2,52,77,36
2,47,60,0
2,40,35,48
2,28,21,36
2,38,115,48
2,28,85,4
2,30,85,48
2,33,85,36
2,33,85,26
2,35,82,0
2,28,78,48
2,28,91,22
2,28,87,30
2,28,91,30
2,33,87,144
2,35,98,38
2,38,98,10
2,33,91,384
2,28,110,380
3,64,105,758
3,62,105,326
3,59,100,108
3,57,100,64
3,64,98,698
3,64,87,46
3,64,89,44
3,64,98,46
3,62,102,36
3,55,85,42
3,59,100,62
3,57,102,56
3,64,122,680
3,62,107,302
3,67,110,96
3,66,107,56
3,64,100,6
3,62,91,4
3,64,105,562
3,64,82,32
3,64,98,26
3,64,95,44
3,62,100,30
3,55,87,20
3,59,80,38
3,57,85,34
3,57,110,580
3,59,105,96
3,60,102,90
3,60,98,28
3,60,100,34
3,60,89,30
3,59,98,26
3,57,102,8
3,55,89,4
3,57,91,96
3,55,76,94
3,54,82,24
3,55,85,412
3,57,98,96
3,59,89,90
3,57,105,88
3,55,95,0
3,60,107,80
3,59,102,96
3,55,110,6
3,50,107,16
3,62,127,418
3,59,127,110
3,57,119,0
3,64,105,526
3,64,105,34
3,64,107,34
3,64,105,30
3,62,105,30
3,55,102,18
3,59,102,28
3,57,107,30
3,64,119,760
3,62,113,310
3,67,110,106
3,66,113,116
3,64,95,32
3,62,100,14
3,64,100,596
3,64,107,46
3,64,107,44
3,64,107,42
3,62,105,28
3,55,89,20
3,59,102,32
3,57,105,36
3,57,105,574
3,59,105,22
3,60,102,18
3,60,105,28
3,60,105,20
3,60,102,26
3,59,102,20
3,57,105,32
3,55,100,28
3,57,102,28
3,55,100,2
3,54,89,48
3,55,102,366
3,57,105,28
3,59,100,28
3,57,105,30
3,55,102,34
3,55,100,50
3,60,102,26
3,59,102,22
3,55,100,32
3,57,98,32
3,57,93,42
3,57,102,428
3,59,113,18
3,60,102,24
3,60,110,26
3,60,105,30
3,60,102,34
3,59,107,28
3,57,107,34
3,54,100,68
3,55,85,48
3,64,127,620
3,62,122,54
3,67,122,34
3,66,116,36
3,64,100,0
3,62,113,48
3,64,127,460
3,62,113,8
3,67,119,192
3,66,107,2
3,67,102,48
3,69,107,40
3,64,127,172
3,62,116,6
3,67,113,192
3,66,116,186
3,64,105,46
3,62,107,42
3,64,127,410
3,62,107,4
3,67,122,192
3,66,116,180
3,67,105,46
3,69,110,36
3,57,119,156
3,59,107,20
3,60,102,20
3,60,105,26
3,60,102,32
3,60,93,26
3,59,100,24
3,57,102,16
3,54,105,56
3,55,100,48
3,55,105,352
3,57,107,96
3,59,105,94
3,57,102,86
3,55,98,8
3,60,102,98
3,59,100,20
3,55,100,2
3,50,113,114
3,57,113,472
3,59,105,18
3,60,105,12
3,60,107,26
3,60,105,26
3,60,100,36
3,59,110,32
3,57,102,30
3,54,100,48
3,55,98,48
3,65,119,854
3,65,107,26
3,65,107,28
3,65,110,28
3,65,113,28
3,62,105,22
3,72,107,26
3,70,113,28
3,70,107,40
3,65,107,42
3,65,105,32
3,65,107,30
3,65,105,30
3,65,105,30
3,62,105,22
3,65,107,36
3,63,107,40
3,62,98,144
3,58,93,28
3,58,107,108
3,58,105,34
3,58,119,32
3,60,102,10
3,62,102,30
3,62,110,26
3,62,116,20
3,59,100,48
3,62,110,0
3,62,100,8
3,62,102,26
3,62,102,28
3,62,110,28
3,59,107,28
3,69,110,42
3,67,107,20
3,67,110,6
3,59,102,54
3,62,107,48
3,62,102,22
3,62,102,24
3,62,110,28
3,62,110,26
3,59,110,22
3,71,116,36
3,69,116,24
3,67,107,144
3,64,107,44
3,64,113,96
3,64,100,34
3,64,119,30
3,66,107,24
3,67,107,26
3,67,107,18
3,67,110,18
3,67,107,134
3,67,107,28
3,67,105,24
3,66,113,12
3,64,105,30
3,62,107,28
3,64,110,38
3,61,116,96
3,64,116,90
3,64,110,28
3,64,105,28
3,64,116,30
3,64,113,26
3,61,105,42
3,66,122,34
3,64,110,40
3,61,113,44
3,64,105,92
3,64,95,26
3,64,102,32
3,64,105,30
3,64,107,26
3,61,107,44
3,71,119,42
3,69,110,36
3,66,113,144
3,66,100,112
3,66,100,0
3,66,100,0
3,66,110,32
3,66,122,30
3,68,113,20
3,69,105,28
3,69,107,18
3,69,119,54
3,69,116,18
3,69,107,28
3,68,119,46
3,69,46,0
3,66,105,90
3,64,98,0
3,66,116,96
3,66,119,10
3,64,113,58
3,70,74,0
3,69,119,184
3,68,110,4
3,66,105,48
3,64,98,38
3,69,116,142
3,69,105,24
3,68,122,6
3,64,102,6
3,66,110,0
3,61,119,96
3,57,105,2
3,69,107,28
3,69,107,26
3,68,107,8
3,64,98,0
3,66,110,48
3,61,119,92
3,57,102,44
3,69,107,48
3,68,110,2
3,64,105,6
3,65,64,0
3,69,113,238
3,68,119,0
3,64,110,96
3,66,113,262
3,64,119,50
3,70,63,0
3,69,116,26
3,68,127,48
3,66,93,48
3,64,100,42
3,68,110,174
3,66,80,48
3,64,78,46
3,66,127,182
3,66,113,42
3,64,107,38
3,69,119,48
3,68,116,48
3,69,102,4
3,71,105,48
3,69,127,14
3,71,110,22
3,69,113,36
3,71,107,18
3,69,116,40
3,71,113,24
3,66,113,56
3,64,105,2
3,69,110,192
3,68,110,188
3,66,98,42
3,64,110,38
3,66,113,148
3,64,95,0
3,69,127,0
3,68,119,4
3,69,107,2
3,71,105,48
3,66,122,116
3,64,110,4
3,69,113,2
3,68,127,192
3,66,98,36
3,64,95,0
3,68,119,336
3,66,107,22
3,64,107,42
3,66,122,120
3,66,116,60
3,64,110,34
3,69,119,50
3,68,116,64
3,69,102,0
3,71,105,6
3,69,100,64
3,71,102,10
3,69,93,34
3,71,98,22
3,69,89,40
3,71,91,66
3,62,85,112
3,64,80,62
3,62,89,54
3,64,74,0
3,62,74,54
3,64,74,70
3,57,68,128
3,59,78,16
3,57,68,54
3,59,78,66
3,57,68,58
3,59,70,22
4,65,100,914
5,64,78,758
5,52,74,0
5,66,66,132
5,54,64,0
5,56,47,50
5,68,72,0
5,54,60,10
5,66,72,0
5,69,85,4
5,57,59,0
5,71,89,24
5,59,58,0
5,73,68,22
5,62,62,0
5,68,80,0
5,69,78,2
5,64,61,192
5,71,85,0
5,66,78,738
5,57,74,0
5,64,76,358
5,56,70,382
5,59,80,0
5,57,72,4
5,66,70,0
5,64,80,370
5,68,68,6
5,59,64,0
5,66,66,768
5,57,70,0
5,64,68,374
5,59,68,364
5,56,39,0
5,57,70,0
5,66,63,0
5,64,62,374
5,68,64,360
5,59,58,0
5,66,70,2
5,57,72,0
5,64,76,368
5,56,57,372
5,59,66,0
5,57,58,766
5,66,66,0
5,64,76,378
5,68,57,360
5,59,58,0
5,57,66,752
5,66,66,0
5,64,66,352
5,56,58,376
5,59,68,0
5,57,62,0
5,66,63,0
5,64,66,384
5,59,62,358
5,52,68,0
6,47,100,838
6,45,120,12
6,43,127,0
6,36,127,10
6,36,119,342
6,49,110,0
6,36,122,78
6,49,127,0
6,42,63,78
6,42,63,86
6,40,127,78
6,42,62,0
6,42,60,78
6,36,98,0
6,42,60,0
6,42,59,78
6,40,119,80
6,42,62,0
6,42,66,78
6,36,70,78
6,42,64,0
6,36,102,48
6,42,61,0
6,40,116,42
6,42,74,0
6,42,64,80
6,36,89,2
6,42,66,0
6,42,59,78
6,40,119,80
6,42,64,0
6,42,64,78
6,36,102,70
6,42,66,0
6,42,62,78
6,40,127,80
6,42,68,0
6,42,64,56
6,36,102,78
6,42,61,0
6,42,63,78
6,40,127,72
6,42,64,0
6,42,66,68
6,36,102,76
6,42,66,0
6,42,62,78
6,40,127,80
6,42,68,0
6,42,64,56
6,36,102,78
6,42,61,0
6,42,63,78
6,40,127,72
6,42,64,0
6,42,66,68
6,36,102,76
6,42,66,0
6,42,62,78
6,40,127,80
6,42,68,0
6,42,64,56
6,36,102,78
6,42,61,0
6,42,63,78
6,36,102,24
6,40,127,32
6,42,64,0
6,42,66,0
6,36,102,76
6,42,66,0
6,42,62,78
6,40,127,80
6,42,68,0
6,42,64,56
6,36,102,78
6,42,61,0
6,42,63,78
6,40,127,72
6,42,64,0
6,42,66,68
6,36,102,76
6,42,66,0
6,42,62,78
6,40,127,80
6,42,68,0
6,42,64,56
6,36,102,78
6,42,61,0
6,42,63,78
6,40,95,24
6,42,64,36
6,40,127,0
6,45,93,2
6,42,66,32
6,43,85,0
6,41,110,32
6,36,102,32
6,42,66,0
6,49,107,0
6,42,62,78
6,40,127,80
6,42,68,0
6,42,64,52
6,36,102,78
6,42,61,0
6,42,63,78
6,40,127,72
6,42,64,0
6,42,66,68
6,36,102,76
6,42,63,0
6,36,102,84
6,42,60,0
6,40,127,0
6,42,66,0
6,42,64,76
6,36,102,76
6,42,64,0
6,42,68,76
6,40,127,72
6,42,66,0
6,42,80,68
6,36,102,76
6,42,66,0
6,42,62,78
6,40,127,80
6,42,68,0
6,42,64,56
6,36,102,78
6,42,61,0
6,42,63,78
6,40,127,72
6,42,64,0
6,42,66,68
6,36,102,76
6,42,66,0
6,42,62,78
6,40,127,80
6,42,68,0
6,42,64,56
6,36,102,78
6,42,61,0
6,42,63,78
6,40,127,72
6,42,64,0
6,46,72,32
6,42,66,26
6,46,89,8
6,36,102,76
6,42,66,0
6,49,82,0
6,42,62,78
6,40,127,80
6,42,68,0
6,42,64,56
6,36,102,78
6,42,61,0
6,42,63,78
6,40,127,72
6,42,64,0
6,42,66,68
6,36,102,76
6,42,66,0
6,42,62,78
6,40,127,80
6,42,68,0
6,42,64,56
6,36,102,78
6,42,61,0
6,42,63,78
6,40,95,24
6,42,64,36
6,40,127,0
6,45,87,14
6,42,66,32
6,43,89,0
6,41,91,32
6,36,102,36
6,42,66,0
6,49,119,0
6,42,62,78
6,40,127,80
6,42,68,0
6,42,64,28
6,36,102,78
6,42,61,0
6,42,63,78
6,42,64,72
6,40,127,0
6,42,66,16
6,36,102,80
6,42,66,0
6,42,62,78
6,40,127,80
6,42,68,0
6,42,64,56
6,36,102,78
6,42,61,0
6,42,63,78
6,40,127,72
6,42,64,0
6,42,66,68
6,36,102,76
6,42,66,0
6,42,62,78
6,40,127,80
6,42,68,0
6,42,64,56
6,36,102,78
6,42,61,0
6,42,63,78
6,40,127,72
6,42,64,0
6,42,66,68
6,36,102,76
6,42,66,0
6,42,62,78
6,36,100,0
6,40,127,0
6,42,68,0
6,42,64,80
6,36,102,78
6,42,61,0
6,42,63,78
6,36,98,0
6,40,127,0
6,42,64,0
6,45,82,30
6,42,66,34
6,43,91,0
6,41,85,28
6,36,102,28
6,42,66,0
6,49,95,0
6,42,62,78
6,40,127,80
6,42,68,0
6,42,64,56
6,36,102,78
6,42,61,0
6,42,63,78
6,40,127,72
6,42,64,0
6,42,66,68
6,36,102,76
6,42,66,0
6,42,62,78
6,40,127,80
6,42,68,0
6,42,64,56
6,36,102,78
6,42,61,0
6,42,63,78
6,40,127,72
6,42,64,0
6,42,66,68
6,36,102,76
6,42,66,0
6,42,62,78
6,40,127,80
6,42,68,0
6,42,64,56
6,36,102,78
6,42,61,0
6,42,63,78
6,40,127,72
6,42,64,0
6,42,66,68
6,36,102,76
6,42,66,0
6,42,62,78
6,40,127,80
6,42,68,0
6,42,64,56
6,36,102,78
6,42,61,0
6,42,63,78
6,40,74,24
6,42,64,34
6,40,110,0
6,45,72,20
6,42,66,30
6,43,66,0
6,41,64,32
6,36,102,36
6,42,66,0
6,42,62,78
6,40,127,80
6,42,68,0
6,42,64,56
6,36,102,78
6,42,61,0
6,42,63,78
6,40,127,72
6,42,64,0
6,42,66,68
6,36,102,76
6,42,66,0
6,42,62,78
6,40,127,80
6,42,68,0
6,42,64,56
6,36,102,78
6,42,61,0
6,42,63,78
6,40,127,72
6,42,64,0
6,42,66,68
6,36,102,76
6,42,66,0
6,42,62,78
6,40,127,80
6,42,68,0
6,42,64,56
6,36,102,78
6,42,61,0
6,42,63,78
6,40,127,72
6,42,64,0
6,42,66,68
6,36,102,76
6,42,66,0
6,42,62,78
6,40,127,80
6,42,68,0
6,42,64,56
6,36,102,78
6,42,61,0
6,42,63,78
6,40,127,72
6,42,64,0
6,47,60,20
6,42,66,36
6,45,55,0
6,43,66,28
6,36,102,34
6,42,66,0
6,42,62,78
6,40,127,80
6,42,68,0
6,42,64,56
6,36,102,78
