track,note,velocity,time
1,60,125,214
1,62,119,0
1,65,121,0
1,69,119,2
1,81,127,8
1,82,110,24
1,81,118,66
1,77,123,34
1,74,112,0
1,72,120,2
1,77,127,44
1,65,124,134
1,69,121,0
1,60,123,2
1,62,123,24
1,59,114,330
1,62,114,2
1,64,119,0
1,67,117,0
1,74,127,102
1,76,127,14
1,70,122,132
1,71,127,16
1,67,126,0
1,74,127,292
1,58,108,18
1,62,127,2
1,63,113,0
1,67,125,26
1,67,115,0
1,74,127,22
1,67,117,34
1,74,118,118
1,75,98,14
1,74,117,78
1,70,110,46
1,67,119,8
1,65,123,212
1,62,114,0
1,65,121,0
1,57,117,2
1,60,118,0
1,65,127,200
1,62,119,0
1,65,127,2
1,67,125,204
1,62,119,114
1,65,122,0
1,81,127,2
1,60,127,4
1,69,123,2
1,82,110,14
1,81,122,100
1,77,125,54
1,74,110,14
1,72,124,254
1,77,127,56
1,62,113,92
1,69,119,2
1,60,121,2
1,65,116,0
1,59,113,322
1,64,117,0
1,62,119,2
1,67,112,0
1,74,127,238
1,76,124,0
1,70,127,132
1,71,127,16
1,67,127,0
1,74,127,204
1,58,103,6
1,63,105,0
1,62,126,20
1,67,121,2
1,67,116,0
1,74,127,32
1,67,119,34
1,74,124,12
1,75,108,32
1,74,110,90
1,70,105,12
1,67,119,8
1,65,121,12
1,62,113,14
1,57,115,0
1,65,116,0
1,60,115,2
1,50,110,20
1,57,104,0
1,62,106,0
1,65,112,0
1,50,104,108
1,57,101,256
1,62,109,0
1,57,88,50
1,62,101,0
1,65,114,0
1,50,91,26
1,57,99,4
1,60,106,0
1,64,106,0
1,67,106,0
1,50,102,426
1,57,103,82
1,60,100,0
1,64,101,0
1,67,107,0
1,50,104,6
1,46,88,430
1,60,105,0
1,62,103,0
1,65,107,0
1,46,93,108
1,60,114,102
1,65,115,256
1,45,89,18
1,57,102,0
1,61,92,0
1,64,111,0
1,65,116,4
1,69,115,0
1,64,109,338
1,67,111,0
1,69,107,328
1,72,111,0
1,50,106,380
1,57,102,0
1,62,109,0
1,65,115,0
1,50,109,306
1,57,93,74
1,62,103,0
1,65,114,0
1,62,103,182
1,67,102,0
1,72,101,0
1,50,100,184
1,55,103,0
1,60,103,0
1,64,114,0
1,50,94,570
1,57,100,0
1,60,100,0
1,67,103,0
1,64,107,60
1,46,87,112
1,60,109,0
1,62,104,0
1,65,112,0
1,60,115,456
1,45,105,112
1,57,102,0
1,61,89,0
1,64,111,0
1,59,114,572
1,64,120,0
1,57,102,384
1,69,84,88
1,46,96,188
1,53,112,0
1,58,95,0
1,60,113,0
1,62,106,0
1,65,115,0
1,79,115,44
1,45,107,64
1,67,110,0
1,72,114,0
1,76,111,0
1,44,99,136
1,56,92,0
1,68,95,0
1,72,119,0
1,75,100,0
1,63,124,836
1,65,127,168
1,67,127,148
1,43,115,550
1,58,97,0
1,62,107,0
1,65,115,0
1,60,125,24
1,62,119,0
1,65,121,0
1,69,119,2
1,81,127,8
1,82,110,24
1,81,118,66
1,77,123,34
1,74,112,0
1,72,120,2
1,77,127,44
1,65,124,134
1,69,121,0
1,60,123,2
1,62,123,24
1,59,114,330
1,62,114,2
1,64,119,0
1,67,117,0
1,74,127,102
1,76,127,14
1,70,122,132
1,71,127,16
1,67,126,0
1,74,127,292
1,58,108,18
1,62,127,2
1,63,113,0
1,67,125,26
1,67,115,0
1,74,127,22
1,67,117,34
1,74,118,118
1,75,98,14
1,74,117,78
1,70,110,46
1,67,119,8
1,65,123,212
1,62,114,0
1,65,121,0
1,57,117,2
1,60,118,0
1,65,127,200
1,62,119,0
1,65,127,2
1,67,125,204
1,62,119,114
1,65,122,0
1,81,127,2
1,60,127,4
1,69,123,2
1,82,110,14
1,81,122,100
1,77,125,54
1,74,110,14
1,72,124,254
1,77,127,56
1,62,113,92
1,69,119,2
1,60,121,2
1,65,116,0
1,59,113,322
1,64,117,0
1,62,119,2
1,67,112,0
1,74,127,238
1,76,124,0
1,70,127,132
1,71,127,16
1,67,127,0
1,74,127,204
1,58,103,6
1,63,105,0
1,62,126,20
1,67,121,2
1,67,116,0
1,74,127,32
1,67,119,34
1,74,124,12
1,75,108,32
1,74,110,90
1,70,105,12
1,67,119,8
1,65,121,12
1,62,113,14
1,57,115,0
1,65,116,0
1,60,115,2
1,50,125,778
1,72,116,74
1,67,114,2
1,67,118,64
1,72,113,2
1,50,102,100
1,67,123,88
1,72,125,0
1,62,110,0
1,72,96,34
1,50,114,20
1,57,117,0
1,65,122,20
1,62,114,2
1,69,123,516
1,62,105,32
1,50,113,430
1,64,110,0
1,67,114,20
1,57,105,2
1,60,109,2
1,58,102,850
1,57,114,16
1,62,113,0
1,55,112,584
1,46,100,22
1,58,102,18
1,62,109,2
1,65,119,0
1,58,106,96
1,65,120,0
1,58,106,334
1,65,125,14
1,62,115,4
1,45,107,2
1,64,117,0
1,55,127,24
1,61,109,0
1,67,119,62
1,72,117,0
1,62,111,2
1,67,127,222
1,72,125,0
1,62,117,2
1,62,121,46
1,67,125,0
1,72,127,0
1,50,119,224
1,57,112,2
1,62,107,0
1,65,120,2
1,57,101,446
1,50,104,16
1,67,110,2
1,64,102,2
1,60,100,26
1,60,117,92
1,46,96,24
1,58,93,0
1,65,108,0
1,62,106,28
1,60,121,2
1,58,100,22
1,61,108,62
1,64,117,0
1,55,111,20
1,45,113,2
1,59,71,756
1,61,110,82
1,64,117,214
1,58,105,92
1,34,111,2
1,65,127,0
1,46,110,2
1,62,119,2
1,62,114,32
1,72,125,0
1,65,127,2
1,65,125,56
1,72,126,0
1,62,112,2
1,45,119,522
1,64,125,0
1,55,117,2
1,60,125,0
1,57,117,504
1,67,123,20
1,64,119,4
1,74,127,0
1,64,125,56
1,74,127,0
1,67,127,22
1,57,124,350
1,64,125,110
1,72,127,2
1,67,126,2
1,64,124,54
1,72,127,2
1,67,127,2
1,44,110,26
1,56,103,0
1,63,101,0
1,60,126,2
1,65,124,0
1,56,110,590
1,70,127,22
1,72,127,24
1,65,107,214
1,67,124,94
1,65,122,0
1,58,108,366
1,62,119,0
1,43,112,2
1,53,127,0
1,70,108,1046
1,74,124,0
1,65,124,2
1,65,112,26
1,72,125,0
1,69,117,2
1,55,127,78
1,69,121,56
1,72,121,16
1,65,114,2
1,69,125,210
1,72,125,0
1,65,116,2
1,70,108,120
1,67,125,0
1,46,107,116
1,65,125,0
1,58,105,2
1,53,125,2
1,62,119,0
1,58,105,576
1,84,127,108
1,79,123,76
1,77,121,388
1,74,117,160
1,45,119,362
1,64,125,0
1,55,117,2
1,60,124,0
1,45,114,24
1,60,118,0
1,64,114,0
1,55,110,2
1,45,107,416
1,61,105,0
1,64,117,2
1,55,114,2
1,57,117,0
1,55,104,50
1,57,119,42
1,45,114,166
1,61,103,2
1,64,117,2
1,57,117,26
1,65,122,402
1,50,120,16
1,62,112,0
1,57,116,2
1,50,121,374
1,65,117,0
1,57,116,2
1,62,108,0
1,62,99,34
1,43,124,18
1,59,121,0
1,55,117,4
1,61,102,46
1,64,119,0
1,45,117,2
1,55,111,2
1,57,114,2
1,65,123,496
1,50,118,16
1,62,111,0
1,57,114,2
1,65,123,394
1,50,117,2
1,57,117,20
1,62,107,0
1,59,121,2
1,43,117,18
1,55,118,0
1,45,121,102
1,55,114,2
1,57,119,0
1,64,126,2
1,61,108,2
1,65,124,234
1,57,115,16
1,62,116,0
1,50,119,2
1,50,121,1510
1,57,121,0
1,65,122,0
1,62,119,2
1,50,119,314
1,57,95,24
1,62,119,168
1,65,127,36
1,46,107,2
1,58,107,0
1,62,121,2
1,58,127,626
1,65,127,22
1,43,125,16
1,59,127,2
1,62,119,0
1,59,119,546
1,69,127,348
1,65,127,22
1,45,127,4
1,64,125,62
1,67,127,2
1,64,127,128
1,67,127,16
1,62,114,132
1,65,121,2
1,62,125,136
1,65,127,0
1,61,127,22
1,64,125,0
1,61,127,44
1,64,127,0
1,58,122,20
1,61,114,4
1,65,127,196
1,50,121,22
1,57,126,0
1,62,121,2
1,57,127,20
1,46,111,66
1,65,127,0
1,58,111,4
1,62,121,0
1,58,127,518
1,65,122,0
1,62,125,20
1,58,105,10
1,62,91,74
1,43,127,36
1,59,127,0
1,62,122,2
1,65,127,2
1,45,127,54
1,65,127,16
1,69,126,0
1,61,123,2
1,67,127,52
1,64,127,2
1,62,114,20
1,65,126,0
1,61,110,32
1,64,122,0
1,81,127,104
1,69,119,8
1,60,123,2
1,65,122,0
1,62,117,26
1,82,118,10
1,81,125,68
1,77,124,64
1,74,114,12
1,72,125,2
1,77,127,44
1,65,119,204
1,69,117,0
1,60,119,2
1,62,111,24
1,64,123,334
1,67,111,0
1,59,120,2
1,62,121,0
1,74,125,92
1,76,127,30
1,70,113,142
1,71,127,16
1,64,119,6
1,59,113,2
1,67,113,0
1,67,119,0
1,62,114,14
1,58,106,310
1,63,113,0
1,74,112,22
1,62,127,2
1,67,127,0
1,67,119,22
1,74,126,44
1,67,121,24
1,74,127,2
1,75,125,16
1,74,122,108
1,63,110,10
1,58,102,10
1,67,119,0
1,62,123,2
1,70,113,4
1,67,125,0
1,57,116,252
1,65,114,0
1,62,117,2
1,65,126,0
1,60,121,12
1,62,125,124
1,57,117,2
1,60,127,0
1,65,121,2
1,60,127,448
1,65,125,2
1,62,119,2
1,69,121,0
1,81,127,8
1,82,115,2
1,81,126,68
1,77,119,12
1,74,112,14
1,72,124,14
1,74,119,24
1,65,125,142
1,60,125,16
1,69,119,0
1,62,119,2
1,64,125,320
1,67,116,0
1,59,119,2
1,62,119,26
1,79,127,100
1,86,127,122
1,80,111,84
1,81,124,2
1,59,120,124
1,64,121,0
1,62,120,2
1,67,119,0
1,79,91,62
1,63,109,34
1,58,101,16
1,62,122,2
1,67,121,0
1,84,123,52
1,84,127,94
1,82,125,62
1,82,127,72
1,77,125,14
1,63,111,62
1,58,102,2
1,62,124,20
1,77,125,0
1,67,114,2
1,72,109,64
1,57,117,42
1,65,117,0
1,60,125,24
1,62,121,0
1,79,127,16
1,57,121,170
1,60,127,2
1,65,125,0
1,62,122,2
1,60,127,80
1,65,125,0
1,69,122,0
1,62,119,2
1,81,127,14
1,82,110,14
1,81,120,86
1,77,125,76
1,74,110,12
1,72,123,44
1,77,127,66
1,60,119,194
1,65,119,0
1,69,116,0
1,62,117,4
1,59,117,342
1,64,122,0
1,67,111,0
1,62,121,28
1,74,121,172
1,76,127,32
1,70,127,186
1,71,127,14
1,59,121,10
1,64,116,0
1,67,125,14
1,67,111,0
1,62,101,18
1,74,117,326
1,63,106,116
1,67,119,0
1,58,108,2
1,62,123,24
1,63,110,106
1,58,104,18
1,67,113,0
1,62,125,2
1,67,111,0
1,75,122,84
1,79,116,16
1,77,127,196
1,57,118,8
1,65,118,0
1,62,120,4
1,74,111,4
1,60,124,22
1,57,111,82
1,65,124,0
1,60,121,2
1,62,116,2
1,65,125,0
1,74,112,86
1,69,125,2
1,72,125,12
1,60,114,74
1,65,105,0
1,69,113,22
1,62,118,36
1,77,123,186
1,69,113,0
1,72,108,2
1,74,109,0
1,69,116,346
1,72,113,64
1,77,119,0
1,69,121,22
1,74,107,2
1,62,117,172
1,60,127,2
1,65,119,0
1,69,119,2
1,59,118,192
1,64,121,2
1,67,112,0
1,71,118,4
1,76,121,0
1,67,113,0
1,72,119,0
1,62,119,20
1,64,123,162
1,59,120,2
1,67,118,0
1,62,121,2
1,58,103,288
1,62,123,16
1,63,108,2
1,67,119,0
1,70,127,4
1,74,127,0
1,75,90,62
1,74,109,54
1,72,116,64
1,70,127,34
1,67,117,2
1,58,106,16
1,63,108,0
1,70,115,16
1,62,126,6
1,67,116,0
1,70,103,32
1,74,127,16
1,57,116,136
1,62,121,0
1,65,119,2
1,60,123,2
1,69,120,6
1,72,126,0
1,65,116,0
1,57,119,142
1,65,117,0
1,60,122,2
1,62,117,0
1,46,118,148
1,65,125,0
1,58,108,2
1,62,117,0
1,53,127,624
1,57,119,126
1,65,127,132
1,72,127,74
1,53,111,126
1,69,125,132
1,62,110,106
1,65,126,0
1,53,127,22
1,62,124,116
1,46,101,12
1,55,121,34
1,60,125,0
1,64,127,0
1,45,114,2
1,55,109,244
1,60,106,52
1,45,127,56
1,62,117,120
1,55,121,2
1,67,127,0
1,60,116,14
1,55,122,226
1,62,123,0
1,60,127,54
1,55,122,16
1,45,127,86
1,55,125,44
1,45,125,118
1,60,127,76
1,63,127,0
1,44,118,22
1,56,114,526
1,60,121,44
1,60,119,198
1,63,127,2
1,65,127,2
1,56,127,342
1,65,118,76
1,56,125,244
1,65,127,96
1,60,127,2
1,63,127,0
1,44,119,20
1,60,125,2
1,53,127,46
1,43,121,2
1,58,121,0
1,62,125,0
1,62,96,726
1,65,120,94
1,69,127,156
1,62,95,56
1,55,121,126
1,65,127,12
1,55,127,346
1,62,113,32
1,43,125,208
1,62,122,32
1,65,127,18
1,46,127,16
1,58,100,0
1,46,101,38
1,60,117,84
1,60,127,182
1,65,125,0
1,60,127,346
1,65,127,0
1,53,111,352
1,60,125,76
1,65,125,0
1,53,127,288
1,58,127,34
1,46,108,94
1,45,112,34
1,64,127,0
1,55,116,2
1,60,123,2
1,55,99,42
1,60,122,12
1,45,127,166
1,55,127,110
1,60,127,0
1,64,127,64
1,45,119,290
1,64,127,94
1,61,127,2
1,45,127,2
1,55,127,0
1,55,98,102
1,57,109,72
1,55,124,190
1,61,123,0
1,64,127,0
1,45,127,222
1,61,127,378
1,64,127,0
1,55,126,2
1,57,127,0
1,45,125,12
1,55,121,34
1,62,113,56
1,65,127,0
1,57,121,2
1,50,127,252
1,50,125,344
1,57,127,2
1,50,127,12
1,59,127,14
1,62,123,0
1,43,125,2
1,55,127,0
1,55,127,116
1,43,106,2
1,45,122,96
1,64,122,16
1,57,115,2
1,61,118,0
1,57,127,54
1,65,127,124
1,57,125,22
1,62,113,0
1,50,127,42
1,57,113,76
1,57,123,146
1,62,113,96
1,57,127,12
1,62,122,0
1,65,127,2
1,50,127,190
1,62,119,54
1,55,123,2
1,59,122,0
1,43,125,26
1,55,125,170
1,62,103,112
1,45,122,24
1,64,127,26
1,57,120,18
1,61,123,0
1,57,121,12
1,61,110,54
1,50,127,2
1,57,125,238
1,62,115,16
1,65,125,0
1,50,127,168
1,65,127,144
1,57,125,2
1,62,119,0
1,50,127,12
1,57,122,22
1,43,127,14
1,55,126,2
1,62,119,0
1,59,126,2
1,55,126,10
1,62,109,114
1,45,125,66
1,64,127,0
1,57,125,2
1,61,110,28
1,57,119,126
1,57,120,114
1,62,116,0
1,50,127,24
1,62,120,58
1,65,127,0
1,57,94,22
1,50,127,108
1,57,127,124
1,57,125,76
1,62,121,0
1,65,127,0
1,50,125,54
1,59,127,34
1,62,119,0
1,55,121,2
1,43,121,26
1,55,120,22
1,62,112,96
1,45,121,14
1,57,123,14
1,61,118,4
1,64,127,0
1,57,119,106
1,62,117,114
1,50,127,78
1,57,77,42
1,57,116,64
1,65,127,16
1,62,118,2
1,50,127,148
1,57,127,112
1,62,113,74
1,65,127,0
1,57,117,2
1,43,127,88
1,59,127,16
1,55,127,2
1,62,124,0
1,55,119,232
1,62,110,104
1,45,121,14
1,64,125,16
1,57,125,2
1,61,115,0
1,57,125,34
1,53,125,36
1,57,127,0
1,50,127,2
1,62,123,0
1,48,127,440
1,60,127,0
1,50,127,44
1,62,127,0
1,53,127,14
1,65,127,0
1,55,127,46
1,67,127,0
1,57,125,22
1,69,125,0
1,60,127,46
1,72,127,0
1,62,127,102
1,74,127,0
1,65,127,32
1,77,127,0
1,26,127,444
1,38,127,0
2,26,67,270
2,28,67,384
2,29,65,0
2,33,63,24
2,36,63,128
2,28,67,356
2,29,63,376
2,31,65,2
2,36,63,6
2,38,66,128
2,29,63,242
2,27,70,56
2,29,72,4
2,31,71,384
2,34,49,232
2,36,61,80
2,26,81,36
2,28,68,10
2,38,63,6
2,33,58,128
2,31,70,78
