track,note,velocity,time
2,34,111,18605
2,34,0,620
2,34,100,98
2,34,0,133
2,33,123,107
2,33,0,465
2,33,119,15
2,33,0,355
2,31,122,125
2,31,0,622
2,31,123,101
2,31,0,95
2,29,122,145
2,29,0,850
2,27,118,107
2,27,0,612
2,27,111,112
2,27,0,95
2,26,115,144
2,26,0,455
2,26,120,24
2,26,0,427
2,24,116,51
2,24,0,654
2,26,123,71
2,26,0,210
2,29,123,25
2,29,0,45
2,29,122,194
2,29,0,50
2,36,118,190
2,36,0,114
2,29,119,6
2,34,110,364
2,29,0,12
2,34,0,608
2,34,101,97
2,34,0,133
2,33,123,107
2,33,0,465
2,33,118,15
2,33,0,355
2,31,123,125
2,31,0,622
2,31,122,101
2,31,0,95
2,29,122,145
2,29,0,850
2,27,119,107
2,27,0,612
2,27,111,112
2,27,0,95
2,26,114,144
2,26,0,455
2,26,120,24
2,26,0,427
2,24,117,51
2,24,0,654
2,26,123,71
2,26,0,210
2,29,122,25
2,29,0,45
2,29,122,194
2,29,0,50
2,36,119,190
2,36,0,114
2,29,118,6
2,32,105,363
2,29,0,13
2,31,99,820
2,32,0,5
2,32,102,115
2,31,0,13
2,32,0,582
2,34,73,13
2,34,0,104
2,38,76,12
2,38,0,105
2,39,80,13
2,39,0,108
2,41,91,13
2,29,91,43
2,31,86,116
2,29,0,11
2,29,90,109
2,31,0,18
2,29,0,97
2,31,89,6
2,31,0,469
2,29,93,11
2,31,86,120
2,29,0,12
2,32,90,108
2,31,0,5
2,32,0,828
2,31,89,16
2,31,0,98
2,32,92,17
2,32,0,940
2,31,93,19
2,31,0,820
2,29,93,12
2,29,0,109
2,31,104,13
2,31,0,106
2,29,97,12
2,29,0,109
2,31,102,13
2,31,0,725
2,32,94,0
2,32,0,1427
2,34,87,14
2,34,0,462
2,31,87,13
2,31,0,1434
2,29,88,12
2,29,0,223
2,31,88,12
2,31,0,233
2,32,95,12
2,32,0,1424
2,34,95,12
2,34,0,468
2,31,92,12
2,31,0,1429
2,29,94,13
2,29,0,225
2,31,91,12
2,31,0,231
2,32,96,13
2,32,0,1427
2,34,91,13
2,34,0,462
2,31,89,13
2,31,0,1429
2,29,90,12
2,29,0,225
2,31,91,13
2,31,0,237
2,32,94,13
2,32,0,1418
2,34,92,13
2,34,0,474
2,31,91,12
2,31,0,1425
2,27,95,13
2,27,0,226
2,31,94,12
2,31,0,242
2,34,110,0
2,34,0,620
2,34,101,98
2,34,0,133
2,33,123,107
2,33,0,465
2,33,118,15
2,33,0,355
2,31,122,125
2,31,0,622
2,31,123,101
2,31,0,95
2,29,122,145
2,29,0,850
2,27,119,107
2,27,0,612
2,27,111,112
2,27,0,95
2,26,114,144
2,26,0,455
2,26,111,24
2,26,0,427
2,24,108,51
2,24,0,654
2,26,112,71
2,26,0,210
2,29,113,25
2,29,0,45
2,29,123,194
2,29,0,50
2,36,118,190
2,36,0,114
2,29,120,6
2,34,123,364
2,29,0,12
2,34,0,608
2,34,101,97
2,34,0,133
2,33,122,107
2,33,0,465
2,33,118,15
2,33,0,355
2,31,123,125
2,31,0,622
2,31,122,101
2,31,0,95
2,29,123,145
2,29,0,442
2,29,121,37
2,27,120,13
2,27,0,612
2,27,119,112
2,27,0,95
2,26,118,144
2,26,0,455
2,26,120,24
2,26,0,427
2,24,117,51
2,24,0,654
2,24,115,69
2,29,118,12
2,29,0,468
2,29,114,12
2,29,0,467
2,29,117,12
2,29,0,469
2,29,117,12
2,29,0,470
2,29,126,13
2,29,0,47
2,29,122,194
2,29,0,690
2,36,125,26
2,29,124,123
2,36,0,9
2,29,0,403
2,27,119,67
2,27,0,66
2,29,121,52
2,29,0,62
2,31,122,57
2,32,127,123
2,31,0,2
2,32,0,409
2,32,126,70
2,39,126,3
2,39,127,58
2,39,0,464
2,34,127,16
2,34,0,392
2,34,126,88
2,34,0,276
2,29,126,81
2,29,0,34
2,34,127,86
2,34,0,42
2,29,127,78
2,29,0,40
2,34,126,80
2,34,0,337
2,27,120,23
2,27,0,99
2,29,127,21
2,29,0,108
2,31,126,12
2,31,0,109
2,32,127,14
2,32,0,227
2,32,71,13
2,32,0,227
2,32,126,13
2,32,0,227
2,32,71,13
2,32,0,225
2,31,126,12
2,31,0,230
2,31,70,13
2,31,0,227
2,31,127,13
2,31,0,227
2,31,79,13
2,31,0,225
2,29,126,12
2,29,0,228
2,29,78,12
2,29,0,230
2,29,127,13
2,29,0,227
2,29,83,13
2,29,0,227
2,29,126,13
2,29,0,227
2,29,88,13
2,29,0,200
2,29,127,46
2,29,124,39
2,29,0,105
2,31,125,15
2,31,0,102
2,32,127,18
2,32,0,434
2,32,126,46
2,39,127,6
2,32,0,3
2,39,126,39
2,39,0,427
2,34,126,53
2,33,127,477
2,34,0,7
2,33,0,472
2,31,127,1
2,31,0,448
2,31,126,32
2,31,0,427
2,32,126,56
2,32,0,180
2,32,117,57
2,32,0,198
2,32,127,42
2,32,0,194
2,32,108,46
2,32,0,188
2,32,126,52
2,32,0,213
2,32,103,30
2,32,0,191
2,32,126,49
2,32,0,197
2,32,111,43
2,32,0,189
2,39,127,51
2,39,0,192
2,39,108,48
2,39,0,171
2,39,127,66
2,39,0,195
2,39,112,48
2,39,0,182
2,39,126,58
2,39,0,185
2,39,107,54
2,39,0,200
2,39,127,41
2,39,0,194
2,39,126,46
2,34,126,240
2,39,0,20
2,34,0,372
2,34,127,88
2,34,0,276
2,29,127,81
2,29,0,34
2,34,126,86
2,34,0,42
2,29,126,78
2,29,0,40
2,34,127,80
2,34,0,337
2,27,120,23
2,27,0,99
2,29,127,21
2,29,0,108
2,31,127,12
2,31,0,109
2,32,126,14
2,32,0,180
2,32,117,57
2,32,0,198
2,32,126,42
2,32,0,194
2,32,108,46
2,32,0,188
2,32,127,52
2,32,0,213
2,32,103,30
2,32,0,191
2,32,126,49
2,32,0,197
2,32,110,43
2,32,0,189
2,39,127,51
2,39,0,192
2,39,109,48
2,39,0,171
2,39,126,66
2,39,0,195
2,39,112,48
2,39,0,182
2,39,127,58
2,39,0,185
2,39,106,54
2,39,0,200
2,39,127,41
2,39,0,194
2,39,109,46
2,39,0,160
2,34,126,80
2,34,0,392
2,34,127,88
2,34,0,276
2,29,126,81
2,29,0,34
2,34,126,86
2,34,0,42
2,29,127,78
2,29,0,40
2,34,127,80
2,34,0,337
2,27,120,23
2,27,0,99
2,29,126,21
2,29,0,108
2,31,127,12
2,31,0,109
2,32,127,13
2,32,0,180
2,32,116,58
2,32,0,198
2,32,126,42
2,32,0,194
2,32,109,46
2,32,0,188
2,32,126,52
2,32,0,213
2,32,103,30
2,32,0,191
2,32,127,49
2,32,0,197
2,32,110,43
2,32,0,189
2,39,127,51
2,39,0,192
2,39,108,48
2,39,0,171
2,39,126,66
2,39,0,195
2,39,113,48
2,39,0,182
2,39,127,58
2,39,0,185
2,39,106,54
2,39,0,200
2,39,126,41
2,39,0,194
2,39,109,46
2,39,0,160
2,32,127,80
2,32,0,180
2,32,116,57
2,32,0,198
2,32,126,42
2,32,0,194
2,32,109,46
2,32,0,188
2,32,126,52
2,32,0,213
2,32,103,30
2,32,0,191
2,32,127,49
2,32,0,197
2,32,110,43
2,32,0,189
2,39,127,51
2,39,0,192
2,39,108,48
2,39,0,171
2,39,126,66
2,39,0,195
2,39,113,48
2,39,0,182
2,39,127,58
2,39,0,185
2,39,106,54
2,39,0,200
2,39,126,41
2,39,0,194
2,39,109,46
2,39,0,160
2,29,127,79
2,29,0,212
2,29,122,29
2,29,0,175
2,29,122,62
2,29,0,188
2,29,109,52
2,29,0,55
2,29,114,65
2,29,0,68
2,29,123,52
2,29,0,189
2,29,115,51
2,29,0,180
2,29,114,60
2,29,0,73
2,29,105,47
2,29,0,62
2,29,102,58
2,29,0,64
2,29,102,55
2,29,0,75
2,34,111,48
2,34,0,620
2,34,101,98
2,34,0,133
2,33,122,107
2,33,0,465
2,33,118,15
2,33,0,355
2,31,123,125
2,31,0,622
2,31,123,101
2,31,0,95
2,29,122,145
2,29,0,850
2,27,118,107
2,27,0,612
2,27,111,112
2,27,0,95
2,26,114,144
2,26,0,455
2,26,121,24
2,26,0,427
2,24,117,51
2,24,0,654
2,26,122,71
2,26,0,210
2,29,123,25
2,29,0,45
2,29,122,194
2,29,0,50
2,36,118,190
2,36,0,114
2,29,121,6
2,34,123,364
2,29,0,12
2,34,0,608
2,34,100,97
2,34,0,133
2,33,122,107
2,33,0,465
2,33,119,15
2,33,0,355
2,31,123,125
2,31,0,622
2,31,122,101
2,31,0,95
2,29,122,145
2,29,0,442
2,29,121,37
2,27,120,13
2,27,0,612
2,27,119,112
2,27,0,95
2,26,119,144
2,26,0,455
2,26,120,24
2,26,0,427
2,24,117,51
2,24,0,654
2,24,114,69
2,29,118,12
2,29,0,468
2,29,115,12
2,29,0,482
2,34,121,0
2,34,0,620
2,34,100,98
2,34,0,133
2,33,122,107
2,33,0,465
2,33,119,15
2,33,0,355
2,31,123,125
2,31,0,622
2,31,122,101
2,31,0,95
2,29,122,145
2,29,0,850
2,27,119,107
2,27,0,612
2,27,110,112
2,27,0,95
2,26,115,144
2,26,0,455
2,26,121,24
2,26,0,427
2,24,116,51
2,24,0,654
2,26,123,71
2,26,0,210
2,29,122,25
2,29,0,45
2,29,122,194
2,29,0,50
2,36,119,190
2,36,0,114
2,29,121,6
2,34,122,364
2,29,0,12
2,34,0,608
2,34,100,97
2,34,0,133
2,33,123,107
2,33,0,465
2,33,119,15
2,33,0,355
2,31,122,125
2,31,0,622
2,31,122,101
2,31,0,95
2,29,123,145
2,29,0,442
2,29,120,37
2,27,121,13
2,27,0,612
2,27,119,112
2,27,0,95
2,26,118,144
2,26,0,455
2,26,121,24
2,26,0,427
2,24,116,51
2,24,0,654
2,24,114,69
2,29,119,12
2,29,0,468
2,29,121,12
2,29,0,467
2,32,116,15
3,53,97,120
3,62,80,242
3,58,97,236
3,53,0,122
3,53,93,118
3,62,0,210
3,58,0,8
3,53,0,14
3,53,86,7
3,57,93,241
3,60,96,238
3,53,0,206
3,57,0,20
3,60,0,11
3,60,92,8
3,53,79,1
3,50,85,239
3,55,94,0
3,53,0,41
3,60,0,3
3,58,78,196
3,62,99,236
3,50,0,3
3,58,0,42
3,58,87,195
3,62,0,64
3,55,0,164
3,50,70,13
3,53,70,0
3,58,0,2
3,58,85,238
3,50,0,58
3,62,92,181
3,58,0,75
3,58,77,169
3,62,0,50
3,58,99,186
3,58,0,1
3,63,86,0
3,67,81,3
3,53,0,16
3,55,52,147
3,63,0,105
3,67,0,16
3,58,0,15
3,58,90,103
3,63,77,0
3,67,85,1
3,55,0,181
3,55,52,62
3,53,88,15
3,59,99,0
3,67,91,240
3,53,0,222
3,65,90,16
3,67,0,26
3,59,0,121
3,59,90,95
3,51,83,183
3,55,78,26
3,59,0,13
3,60,87,16
3,65,0,4
3,67,91,236
3,51,0,45
3,63,70,196
3,60,0,101
3,60,93,138
3,67,0,184
3,60,0,12
3,63,0,8
3,55,0,20
3,63,94,17
3,58,102,1
3,67,103,0
3,63,0,30
3,58,0,3
3,67,0,2
3,58,103,205
3,63,102,0
3,67,102,0
3,63,0,350
3,67,0,5
3,58,0,5
3,55,85,3
3,60,89,1
3,63,88,0
3,60,0,344
3,63,0,0
3,55,0,14
3,53,82,0
3,58,83,0
3,62,94,241
3,60,83,226
3,62,0,18
3,58,0,23
3,58,85,119
3,60,0,8
3,53,0,97
3,60,84,17
3,53,89,1
3,58,0,35
3,57,80,204
3,60,0,21
3,60,94,220
3,57,0,20
3,57,69,223
3,57,0,219
3,53,0,3
3,60,0,9
3,62,93,6
3,55,94,3
3,58,80,234
3,55,0,16
3,62,0,197
3,62,99,29
3,67,87,1
3,58,0,12
3,58,74,227
3,50,62,170
3,58,0,15
3,53,71,20
3,62,0,5
3,67,0,5
3,58,78,19
3,62,87,30
3,58,0,166
3,50,0,11
3,58,69,48
3,65,88,236
3,58,0,49
3,58,93,180
3,65,0,221
3,58,0,1
3,62,0,14
3,63,76,6
3,67,92,2
3,53,0,26
3,58,85,216
3,63,0,109
3,67,0,21
3,63,81,111
3,67,94,2
3,58,0,76
3,58,88,152
3,50,67,172
3,63,0,30
3,67,0,8
3,55,73,5
3,58,0,2
3,59,88,36
3,67,92,234
3,55,0,37
3,65,85,201
3,67,0,43
3,59,0,66
3,59,84,133
3,59,0,206
3,65,0,11
3,50,0,1
3,55,77,24
3,60,77,0
3,67,98,241
3,63,89,243
3,60,0,82
3,60,98,158
3,67,0,199
3,60,0,2
3,63,0,8
3,55,0,8
3,58,96,24
3,63,89,0
3,67,93,1
3,63,0,30
3,58,0,9
3,67,0,1
3,63,80,194
3,67,88,0
3,58,93,1
3,63,0,260
3,58,0,3
3,67,0,20
3,60,95,77
3,63,84,0
3,55,94,2
3,60,0,337
3,63,0,4
3,65,101,13
3,58,72,241
3,58,0,210
3,58,89,27
3,65,0,197
3,65,105,43
3,65,0,948
3,58,0,37
3,65,94,218
3,58,67,237
3,58,0,225
3,58,102,18
3,65,0,195
3,65,106,42
3,65,0,235
3,63,93,5
3,58,0,765
3,63,0,14
3,65,75,184
3,48,76,236
3,65,0,54
3,48,0,167
3,48,60,20
3,65,95,243
3,48,0,41
3,65,0,155
3,65,103,44
3,65,0,647
3,65,102,310
3,55,82,242
3,58,83,241
3,65,0,56
3,65,98,181
3,63,93,240
3,65,0,9
3,55,0,644
3,58,0,167
3,63,0,20
3,65,119,122
3,53,84,241
3,65,0,106
3,58,91,134
3,65,104,237
3,65,0,184
3,65,80,56
3,65,0,352
3,65,61,128
3,53,0,385
3,58,0,15
3,65,0,12
3,65,103,68
3,53,76,243
3,65,0,14
3,58,88,226
3,65,109,237
3,65,0,224
3,63,89,16
3,63,0,317
3,63,64,166
3,58,0,381
3,53,0,4
3,63,0,6
3,65,106,86
3,53,87,240
3,65,0,15
3,58,70,225
3,65,77,240
3,65,0,225
3,65,87,15
3,53,0,652
3,65,0,0
3,58,0,26
3,65,102,282
3,53,77,240
3,65,0,17
3,58,64,223
3,65,88,240
3,53,0,19
3,63,91,221
3,65,0,8
3,63,0,465
3,63,71,22
3,58,0,292
3,65,118,175
3,63,0,6
3,53,84,235
3,65,0,106
3,58,91,134
3,65,105,237
3,65,0,184
3,65,80,56
3,65,0,352
3,65,60,128
3,53,0,385
3,58,0,15
3,65,0,12
3,65,103,68
3,53,76,243
3,65,0,14
3,58,89,226
3,65,109,237
3,65,0,224
3,63,88,16
3,63,0,317
3,63,65,166
3,58,0,381
3,53,0,4
3,63,0,6
3,65,106,86
3,53,86,240
3,65,0,15
3,58,71,225
3,65,77,240
3,65,0,225
3,65,86,15
3,53,0,652
3,65,0,0
3,58,0,26
3,65,102,282
3,53,77,240
3,65,0,17
3,58,65,223
3,65,88,240
3,53,0,19
3,63,90,221
3,65,0,8
3,63,0,465
3,63,71,22
3,58,0,292
3,46,84,175
3,63,0,6
3,62,99,229
3,63,75,235
3,46,0,47
3,62,0,0
3,62,82,71
3,63,0,49
3,58,75,75
3,58,0,221
3,62,0,7
3,53,86,17
3,57,92,241
3,60,97,238
3,53,0,206
3,57,0,20
3,60,0,11
3,57,93,7
3,53,66,2
3,50,84,239
3,55,95,0
3,53,0,41
3,57,0,1
3,58,79,198
3,62,98,236
3,50,0,3
3,58,0,42
3,58,86,195
3,62,0,64
3,55,0,164
3,50,61,13
3,58,0,2
3,53,88,0
3,58,85,238
3,50,0,58
3,62,93,181
3,58,0,75
3,58,76,169
3,62,0,50
3,58,99,186
3,58,0,1
3,63,86,0
3,67,80,3
3,53,0,17
3,55,53,147
3,63,0,105
3,67,0,16
3,58,0,15
3,58,91,103
3,63,76,0
3,67,84,1
3,55,0,181
3,55,53,62
3,53,89,15
3,59,98,0
3,67,90,240
3,53,0,222
3,65,91,16
3,67,0,26
3,59,0,121
3,62,90,97
3,51,83,181
3,55,79,26
3,62,0,14
3,60,86,15
3,65,0,4
