track,note,velocity,time
1,66,44,914
1,68,63,37
1,73,86,21
1,71,78,279
1,68,57,317
1,77,84,247
1,75,68,231
1,73,58,218
1,71,58,13
1,70,58,152
1,73,46,423
1,89,55,510
1,71,74,28
1,70,46,117
1,71,70,4
1,73,42,4
1,70,70,4
1,73,78,4
1,71,70,4
1,70,50,4
1,71,66,4
1,44,67,4
1,56,63,66
1,66,63,57
1,70,67,64
1,73,90,84
1,77,82,90
1,66,59,134
1,70,43,38
1,75,74,34
1,73,58,4
1,71,74,4
1,70,58,4
1,59,50,834
1,61,52,0
1,64,49,0
1,66,48,0
1,61,59,4
1,64,54,0
1,59,79,4
1,64,76,4
1,66,62,4
1,63,73,4
1,54,79,6
1,59,71,4
1,63,72,4
1,54,51,4
1,61,54,0
1,66,74,92
1,70,73,0
1,58,76,497
1,66,76,4
1,71,76,129
1,70,59,4
1,68,55,4
1,66,46,4
1,54,78,798
1,63,59,946
1,61,67,4
1,58,68,4
1,65,56,9
1,65,71,46
1,66,76,4
1,63,83,624
1,66,83,0
1,70,83,0
1,63,83,39
1,66,82,0
1,71,84,0
1,63,81,64
1,66,81,0
1,71,84,0
1,63,83,7
1,66,83,0
1,71,84,0
1,63,82,31
1,66,82,0
1,70,83,0
1,63,82,52
1,66,82,0
1,70,83,0
1,63,76,16
1,66,76,0
1,68,77,0
1,63,84,39
1,65,84,0
1,70,83,0
1,63,82,29
1,65,80,0
1,70,80,0
1,63,77,4
1,63,83,30
1,66,82,0
1,70,84,0
1,58,63,4
1,58,66,4
1,63,84,227
1,66,82,0
1,70,82,0
1,63,83,8
1,66,82,0
1,71,84,0
1,63,73,720
1,66,72,0
1,68,74,0
1,63,83,4
1,66,83,0
1,70,82,0
1,63,82,4
1,66,81,0
1,71,84,0
1,63,83,111
1,66,83,0
1,70,82,0
1,63,81,39
1,66,82,0
1,70,82,0
1,63,73,4
1,66,72,0
1,68,74,0
1,63,82,4
1,65,84,0
1,70,82,0
1,63,80,20
1,66,82,0
1,70,83,0
1,66,83,145
1,70,81,0
1,75,83,0
1,66,82,4
1,70,81,0
1,75,83,0
1,66,83,88
1,70,82,0
1,75,82,0
1,66,82,35
1,70,82,0
1,75,83,0
1,66,84,69
1,70,83,0
1,75,83,0
1,63,81,4
1,63,65,66
1,66,81,0
1,70,79,0
1,75,83,0
1,63,67,4
1,66,82,66
1,70,80,0
1,75,84,0
1,63,83,114
1,65,84,0
1,70,82,0
1,63,82,49
1,65,82,0
1,70,81,0
1,63,82,43
1,66,83,0
1,70,82,0
1,63,75,58
1,66,82,0
1,70,81,0
1,63,74,26
1,65,83,0
1,70,81,0
1,63,79,32
1,66,78,0
1,70,83,0
1,59,69,7676
1,61,71,0
1,64,68,0
1,66,67,0
1,61,69,4
1,64,64,0
1,59,64,4
1,64,61,4
1,66,83,4
1,63,83,4
1,54,93,4
1,47,73,120
1,63,93,114
1,61,89,4
1,59,97,4
1,56,93,4
1,61,93,0
1,54,61,4
1,61,64,0
1,58,83,92
1,63,84,0
1,59,69,977
1,61,71,0
1,64,68,0
1,66,67,0
1,61,69,4
1,64,64,0
1,59,64,4
1,64,61,4
1,66,83,124
1,78,83,0
1,63,83,4
1,66,83,4
1,59,110,124
1,61,81,0
1,66,110,0
1,58,81,4
1,59,110,41
1,63,94,0
1,65,72,2659
1,66,92,19
1,70,84,1
1,65,88,4
1,63,88,4
1,66,96,55
1,70,92,1
1,66,72,5
1,56,99,656
1,63,99,0
1,66,97,0
1,70,96,0
1,56,99,69
1,63,98,0
1,66,99,0
1,70,99,0
1,59,99,34
1,63,97,0
1,66,97,0
1,70,96,0
1,59,99,68
1,63,97,0
1,66,96,0
1,70,99,0
1,56,99,29
1,63,98,0
1,66,97,0
1,70,98,0
1,56,99,85
1,63,98,0
1,66,97,0
1,70,98,0
1,58,98,62
1,63,99,0
1,65,99,0
1,63,99,92
1,66,98,0
1,70,98,0
1,56,99,98
1,63,98,0
1,66,96,0
1,70,95,0
1,75,97,0
1,56,99,165
1,63,99,0
1,66,97,0
1,70,96,0
1,75,98,0
1,59,99,60
1,63,98,0
1,66,97,0
1,70,96,0
1,75,97,0
1,59,99,102
1,63,98,0
1,66,97,0
1,70,96,0
1,75,97,0
1,56,99,66
1,63,98,0
1,66,97,0
1,70,95,0
1,75,96,0
1,56,99,109
1,63,98,0
1,66,97,0
1,70,96,0
1,75,97,0
1,58,97,92
1,63,96,0
1,65,99,0
1,70,99,0
1,63,99,122
1,66,98,0
1,70,97,0
1,75,97,0
1,63,98,50
1,67,88,0
1,70,99,0
1,75,98,0
1,56,98,32
1,63,98,0
1,66,97,0
1,70,96,0
1,75,97,0
1,56,99,132
1,63,99,0
1,66,97,0
1,70,96,0
1,75,97,0
1,59,99,73
1,63,99,0
1,66,97,0
1,70,94,0
1,75,96,0
1,59,99,130
1,63,99,0
1,66,97,0
1,70,96,0
1,75,97,0
1,56,98,77
1,63,99,0
1,66,97,0
1,70,96,0
1,75,97,0
1,56,99,146
1,63,98,0
1,66,98,0
1,70,97,0
1,75,97,0
1,58,96,89
1,63,97,0
1,65,99,0
1,70,99,0
1,58,99,121
1,63,97,0
1,66,98,0
1,70,97,0
1,56,98,141
1,63,98,0
1,66,97,0
1,70,95,0
1,75,97,0
1,56,99,114
1,63,99,0
1,66,99,0
1,70,97,0
1,59,99,80
1,63,98,0
1,66,97,0
1,70,99,0
1,59,99,167
1,63,99,0
1,66,98,0
1,70,97,0
1,56,99,99
1,63,98,0
1,66,98,0
1,70,96,0
1,56,99,163
1,63,99,0
1,66,99,0
1,70,98,0
1,58,97,153
1,63,94,0
1,65,98,0
1,70,95,0
1,58,98,44
1,63,95,0
1,65,98,0
1,70,95,0
1,58,97,4
1,58,97,34
1,63,97,0
1,66,98,0
1,70,98,0
1,58,99,4
1,58,96,51
1,58,99,63
1,63,98,0
1,66,98,0
1,70,98,0
1,66,96,24
1,70,95,0
1,75,97,0
1,66,97,165
1,70,96,0
1,75,98,0
1,66,97,60
1,70,96,0
1,75,97,0
1,66,97,102
1,70,96,0
1,75,97,0
1,66,97,66
1,70,95,0
1,75,96,0
1,66,97,109
1,70,96,0
1,75,97,0
1,63,96,92
1,66,99,0
1,70,99,0
2,32,87,180
2,32,87,27
2,35,84,4
2,35,87,36
2,32,80,4
2,32,87,52
2,27,80,6
2,27,87,25
2,32,87,74
2,32,87,41
2,35,87,4
2,35,87,33
2,32,80,4
2,32,84,93
2,27,80,4
2,27,87,62
2,32,86,4
2,32,89,62
2,35,89,4
2,35,89,48
2,32,82,4
2,32,89,71
2,27,86,4
2,32,94,302
2,32,94,209
2,35,94,6
2,35,94,214
2,32,94,4
2,32,94,223
2,27,90,4
2,39,94,233
2,37,94,28
2,25,94,4
2,35,94,4
2,35,90,24
2,30,90,4
2,32,94,4
2,25,90,4
2,27,86,4
2,39,94,4
2,39,90,57
2,37,94,4
2,25,90,4
2,35,94,146
2,35,94,7
2,30,90,4
2,32,94,12
2,25,94,4
2,27,86,4
2,39,94,4
2,39,86,35
2,27,94,6
2,39,94,4
2,39,94,47
2,39,86,4
2,37,79,14
2,35,94,26
2,34,83,17
2,32,94,8
2,32,94,27
2,35,90,4
2,35,94,36
2,32,86,4
2,32,94,52
2,30,94,4
2,29,94,4
2,27,86,4
2,39,94,25
2,42,94,4
2,39,94,30
2,34,94,30
2,32,94,30
2,32,94,41
2,35,94,4
2,35,94,33
2,51,94,4
2,32,86,3
2,32,90,93
2,27,86,4
2,34,94,4
2,39,94,30
2,34,94,4
2,39,94,30
2,42,94,4
2,39,94,30
2,34,94,30
2,32,90,30
2,32,94,62
2,35,94,4
2,35,94,48
2,32,94,4
2,32,94,71
2,35,94,26
2,30,94,15
2,29,94,13
2,27,94,4
2,34,94,41
2,39,94,26
2,39,94,53
2,34,94,19
2,27,94,51
2,27,94,41
2,32,94,59
2,34,94,13
2,37,94,22
2,39,94,4
2,32,94,4
2,44,94,209
2,47,94,6
2,49,94,214
2,47,94,3
2,42,90,33
2,35,90,39
2,34,86,28
2,32,94,15
2,32,94,223
2,32,72,23
2,30,90,29
2,29,94,19
2,27,94,4
2,39,90,45
2,34,90,28
2,37,90,23
2,37,94,33
2,32,83,8
2,34,90,14
2,34,90,14
2,32,94,21
2,32,94,41
2,34,94,4
2,35,94,4
2,35,94,33
2,32,86,4
2,32,90,93
2,30,94,4
2,29,94,4
2,27,90,4
2,39,94,62
3,51,90,1680
3,54,95,4
3,61,95,4
3,59,84,4
3,51,94,162
3,54,92,4
3,61,92,4
3,59,84,4
3,51,90,162
3,54,83,4
3,54,89,41
3,56,86,4
3,58,88,4
3,51,92,518
3,54,94,4
3,61,95,4
3,59,84,4
3,51,91,263
3,54,92,4
3,61,92,4
3,59,84,4
3,51,91,263
3,54,83,4
3,54,91,11
3,54,92,29
3,56,91,4
3,58,89,4
3,51,91,560
3,54,94,4
3,61,95,4
3,58,80,4
3,51,91,27
3,54,95,4
3,61,95,4
3,58,79,4
3,51,91,220
3,54,90,4
3,54,82,4
3,51,91,30
3,56,84,4
3,58,88,4
4,70,95,600
4,70,95,14
4,70,95,14
4,70,95,14
4,70,95,14
4,70,95,14
4,70,95,14
4,73,95,14
4,73,95,14
4,73,95,14
4,73,95,14
4,66,95,14
4,59,95,126
4,59,95,39
4,73,95,49
4,71,95,13
4,70,95,97
4,71,95,4
4,71,95,7
4,66,95,1166
4,66,95,25
4,66,95,39
4,66,95,27
4,66,95,35
4,70,95,4
4,70,95,4
4,61,95,166
4,61,95,27
4,70,95,7
4,68,95,4
4,66,95,10
4,66,95,15
4,66,95,15
4,70,95,1832
4,70,95,17
4,70,95,38
4,70,95,32
4,70,95,31
4,70,95,33
4,73,95,30
4,73,95,4
4,73,95,20
4,73,95,19
4,73,95,13
4,73,95,133
4,73,95,26
4,73,95,37
4,73,95,34
4,71,95,4
4,70,95,392
4,71,95,4
4,71,95,16
4,66,95,1122
4,66,95,36
4,66,95,35
4,66,95,43
4,70,95,49
4,61,95,50
4,70,95,49
4,70,95,9
4,68,95,44
4,66,95,26
4,66,95,39
4,66,95,4
4,68,95,1729
4,68,95,5
4,68,95,44
4,68,95,27
4,68,95,38
4,68,95,40
4,71,95,29
4,71,95,9
4,71,95,39
4,71,95,50
4,70,95,16
4,68,95,7
4,66,95,31
4,66,95,13
4,63,95,153
4,66,95,4
4,66,95,4
4,66,95,4
4,66,95,19
4,63,95,1059
4,66,95,9
4,66,95,26
4,66,95,41
4,66,95,36
4,66,95,41
4,70,95,45
4,70,95,67
4,70,95,267
4,68,95,35
4,66,95,50
4,66,95,77
4,68,95,1707
4,68,95,14
4,68,95,34
4,68,95,40
4,68,95,36
4,68,95,38
4,71,95,38
4,71,95,38
4,71,95,36
4,71,95,48
4,70,95,6
4,68,95,4
4,66,95,4
4,66,95,9
4,63,95,270
4,66,95,4
4,66,95,4
4,66,95,4
4,66,95,19
4,63,95,1059
4,66,95,4
4,66,95,32
4,66,95,40
4,66,95,46
4,70,95,47
4,70,95,34
4,70,95,267
4,68,95,17
4,66,95,47
4,68,95,46
4,68,95,31
4,70,95,8
4,70,95,34
4,70,95,38
4,70,95,630
4,70,95,59
4,71,95,29
4,71,95,52
4,73,95,4
4,73,95,39
4,70,95,4
4,78,95,35
4,78,95,4
4,78,95,4
4,77,95,4
4,75,95,4
4,78,95,4
4,71,95,4
4,78,95,4
4,78,95,4
4,78,95,4
4,77,95,4
4,75,95,4
4,78,95,4
4,71,95,4
4,78,95,4
4,78,95,4
4,78,95,4
4,77,95,4
4,75,95,4
4,78,95,4
4,75,95,4
4,77,95,4
4,78,95,4
4,75,95,4
4,77,95,4
4,78,95,4
4,71,95,4
4,78,95,4
4,78,95,4
4,77,95,4
4,75,95,4
4,70,95,4
4,70,95,4
4,78,95,4
4,78,95,4
4,78,95,4
4,77,95,4
4,75,95,4
4,78,95,4
4,75,95,4
4,78,95,4
4,75,95,4
4,78,95,4
4,78,95,4
4,78,95,4
4,77,95,4
4,75,95,4
4,78,95,4
4,75,95,4
4,78,95,4
4,78,95,4
4,78,95,4
4,77,95,4
4,75,95,4
4,78,95,4
4,75,95,4
4,77,95,4
4,78,95,4
4,75,95,4
4,77,95,4
4,78,95,4
4,75,95,4
4,77,95,4
4,78,95,4
4,77,95,4
4,75,95,4
4,70,95,4
4,70,95,4
4,78,95,4
4,78,95,4
4,78,95,4
4,78,95,4
4,78,95,4
4,78,95,4
4,80,95,4
4,77,95,4
4,78,95,4
4,75,95,4
4,78,95,4
4,78,95,4
4,78,95,4
4,78,95,4
4,80,95,4
4,77,95,4
4,78,95,4
4,75,95,4
4,78,95,4
4,78,95,4
4,78,95,4
4,78,95,4
4,77,95,4
4,75,95,4
4,78,95,4
4,75,95,4
4,78,95,4
4,78,95,4
4,78,95,4
4,78,95,4
4,77,95,4
4,75,95,4
4,78,95,4
4,78,95,4
4,77,95,4
4,75,95,4
4,78,95,4
4,78,95,4
4,78,95,4
4,78,95,4
4,77,95,4
4,75,95,4
4,78,95,4
4,80,95,4
4,78,95,4
4,78,95,4
4,77,95,4
4,75,95,4
4,78,95,4
4,78,95,4
4,78,95,4
4,78,95,4
4,77,95,4
4,75,95,4
4,68,95,2235
4,68,95,5
4,68,95,44
4,68,95,27
4,68,95,38
4,68,95,40
4,71,95,29
4,71,95,9
4,71,95,39
4,71,95,50
4,70,95,16
4,68,95,7
4,66,95,31
4,63,95,4
4,63,95,444
4,66,95,4
4,66,95,4
4,66,95,4
4,66,95,19
4,63,95,1059
4,66,95,9
4,66,95,26
4,66,95,41
4,65,95,36
4,66,95,41
4,70,95,45
4,70,95,67
4,70,95,267
4,68,95,35
4,66,95,50
4,66,95,77
4,66,95,1587
4,68,95,14
4,68,95,14
4,68,95,34
4,68,95,40
4,68,95,36
4,68,95,38
4,71,95,38
4,71,95,38
4,71,95,36
4,71,95,48
4,70,95,6
4,68,95,4
4,66,95,4
4,63,95,4
4,63,95,289
4,66,95,4
4,66,95,4
4,66,95,4
4,66,95,19
4,63,95,1059
4,66,95,4
4,66,95,32
4,66,95,40
4,65,95,46
4,66,95,47
4,70,95,4
4,70,95,4
4,70,95,267
4,68,95,17
4,66,95,47
4,68,95,46
4,68,95,31
4,70,95,8
4,70,95,34
4,70,95,38
4,70,95,630
4,70,95,59
4,71,95,29
4,71,95,52
4,73,95,4
4,73,95,39
4,70,95,4
4,78,95,35
4,78,95,4
4,78,95,4
4,77,95,4
4,75,95,4
4,78,95,4
4,71,95,4
4,78,95,4
4,78,95,4
4,78,95,4
4,78,95,4
4,77,95,4
4,75,95,4
4,78,95,4
4,71,95,4
4,78,95,4
4,78,95,4
4,78,95,4
4,77,95,4
4,75,95,4
4,78,95,4
4,75,95,4
4,77,95,4
4,78,95,4
4,75,95,4
4,77,95,4
4,78,95,4
4,71,95,4
4,78,95,4
4,78,95,4
4,77,95,4
4,75,95,4
4,70,95,4
4,70,95,4
4,78,95,4
4,78,95,4
4,78,95,4
4,77,95,4
4,75,95,4
4,78,95,4
4,75,95,4
4,78,95,4
4,75,95,4
4,78,95,4
4,78,95,4
4,78,95,4
4,77,95,4
4,75,95,4
4,78,95,4
4,75,95,4
4,78,95,4
4,78,95,4
4,78,95,4
4,77,95,4
4,75,95,4
4,78,95,4
4,75,95,4
4,77,95,4
4,78,95,4
4,75,95,4
4,77,95,4
4,78,95,4
4,75,95,4
4,77,95,4
4,78,95,4
4,77,95,4
4,75,95,4
4,70,95,4
4,70,95,4
4,78,95,4
4,78,95,4
4,78,95,4
4,78,95,4
4,78,95,4
4,78,95,4
4,80,95,4
4,77,95,4
4,78,95,4
4,75,95,4
4,78,95,4
4,78,95,4
4,78,95,4
4,78,95,4
4,80,95,4
4,77,95,4
4,78,95,4
4,75,95,4
4,78,95,4
4,78,95,4
4,78,95,4
4,78,95,4
4,77,95,4
4,75,95,4
4,78,95,4
4,75,95,4
4,82,95,4
4,82,95,4
4,80,95,4
4,78,95,4
