track,note,velocity,time
1.0,39.0,67.0,2680.0
1.0,58.0,74.0,62.0
1.0,46.0,53.0,12.0
1.0,51.0,57.0,38.0
1.0,63.0,56.0,24.0
1.0,67.0,74.0,24.0
1.0,65.0,74.0,32.0
1.0,65.0,84.0,32.0
1.0,63.0,74.0,40.0
1.0,37.0,65.0,128.0
1.0,44.0,51.0,80.0
1.0,49.0,60.0,42.0
1.0,56.0,79.0,12.0
1.0,53.0,58.0,4.0
1.0,63.0,66.0,6.0
1.0,61.0,71.0,52.0
1.0,61.0,66.0,172.0
1.0,60.0,40.0,14.0
1.0,60.0,48.0,274.0
1.0,58.0,69.0,126.0
1.0,27.0,51.0,300.0
1.0,58.0,50.0,68.0
1.0,51.0,42.0,6.0
1.0,55.0,64.0,2.0
1.0,39.0,36.0,52.0
1.0,51.0,43.0,72.0
1.0,39.0,50.0,206.0
1.0,46.0,51.0,32.0
1.0,51.0,43.0,120.0
1.0,55.0,54.0,58.0
1.0,58.0,59.0,210.0
1.0,65.0,67.0,192.0
1.0,66.0,91.0,30.0
1.0,67.0,80.0,0.0
1.0,70.0,79.0,10.0
1.0,46.0,45.0,160.0
1.0,50.0,50.0,122.0
1.0,53.0,44.0,164.0
1.0,55.0,54.0,2.0
1.0,62.0,48.0,128.0
1.0,65.0,48.0,8.0
1.0,70.0,66.0,26.0
1.0,74.0,67.0,84.0
1.0,77.0,45.0,2.0
1.0,82.0,53.0,68.0
1.0,86.0,56.0,118.0
1.0,89.0,49.0,170.0
1.0,94.0,56.0,32.0
1.0,98.0,61.0,146.0
1.0,101.0,46.0,48.0
1.0,106.0,63.0,288.0
1.0,45.0,56.0,278.0
1.0,53.0,33.0,10.0
1.0,60.0,49.0,12.0
1.0,57.0,69.0,4.0
1.0,60.0,73.0,320.0
1.0,60.0,44.0,48.0
1.0,72.0,85.0,2.0
1.0,69.0,71.0,6.0
1.0,44.0,62.0,32.0
1.0,53.0,52.0,64.0
1.0,56.0,74.0,28.0
1.0,65.0,76.0,6.0
1.0,60.0,74.0,4.0
1.0,60.0,86.0,32.0
1.0,58.0,81.0,30.0
1.0,58.0,82.0,60.0
1.0,31.0,81.0,8.0
1.0,53.0,72.0,2.0
1.0,43.0,69.0,20.0
1.0,43.0,69.0,264.0
1.0,50.0,59.0,80.0
1.0,53.0,62.0,32.0
1.0,55.0,53.0,76.0
1.0,58.0,69.0,50.0
1.0,62.0,66.0,48.0
1.0,65.0,49.0,36.0
1.0,67.0,39.0,42.0
1.0,70.0,67.0,116.0
1.0,74.0,55.0,60.0
1.0,77.0,42.0,80.0
1.0,79.0,41.0,22.0
1.0,82.0,67.0,16.0
1.0,89.0,73.0,100.0
1.0,91.0,48.0,18.0
1.0,94.0,52.0,100.0
1.0,98.0,61.0,198.0
1.0,65.0,95.0,1104.0
1.0,65.0,78.0,60.0
1.0,65.0,75.0,58.0
1.0,69.0,82.0,6.0
1.0,62.0,74.0,0.0
1.0,62.0,67.0,86.0
1.0,72.0,82.0,168.0
1.0,62.0,71.0,4.0
1.0,46.0,66.0,132.0
1.0,61.0,76.0,82.0
1.0,67.0,66.0,10.0
1.0,39.0,66.0,68.0
1.0,46.0,65.0,136.0
1.0,51.0,61.0,22.0
1.0,55.0,56.0,60.0
1.0,58.0,48.0,132.0
1.0,61.0,57.0,16.0
1.0,67.0,73.0,90.0
1.0,70.0,56.0,134.0
1.0,73.0,39.0,46.0
1.0,79.0,58.0,112.0
1.0,82.0,43.0,18.0
1.0,85.0,49.0,38.0
1.0,91.0,70.0,132.0
1.0,94.0,48.0,36.0
1.0,97.0,51.0,246.0
1.0,60.0,71.0,918.0
1.0,61.0,93.0,20.0
1.0,62.0,73.0,8.0
1.0,65.0,49.0,22.0
1.0,69.0,64.0,6.0
1.0,58.0,28.0,218.0
1.0,62.0,44.0,346.0
1.0,67.0,72.0,636.0
1.0,33.0,68.0,214.0
1.0,57.0,73.0,36.0
1.0,65.0,67.0,2.0
1.0,60.0,69.0,4.0
1.0,45.0,61.0,10.0
1.0,57.0,56.0,120.0
1.0,45.0,62.0,128.0
1.0,48.0,58.0,172.0
1.0,53.0,47.0,12.0
1.0,57.0,33.0,70.0
1.0,53.0,24.0,32.0
1.0,57.0,61.0,10.0
1.0,58.0,56.0,44.0
1.0,59.0,39.0,26.0
1.0,45.0,55.0,84.0
1.0,60.0,55.0,8.0
1.0,57.0,49.0,24.0
1.0,53.0,45.0,116.0
1.0,60.0,45.0,56.0
1.0,62.0,44.0,104.0
1.0,63.0,62.0,4.0
1.0,64.0,53.0,32.0
1.0,48.0,50.0,0.0
1.0,41.0,49.0,2.0
1.0,53.0,49.0,6.0
1.0,65.0,69.0,14.0
1.0,57.0,44.0,16.0
1.0,48.0,54.0,14.0
1.0,53.0,55.0,608.0
1.0,65.0,68.0,6.0
1.0,43.0,48.0,4.0
1.0,46.0,45.0,0.0
1.0,50.0,65.0,2.0
1.0,66.0,84.0,14.0
1.0,67.0,76.0,4.0
1.0,70.0,101.0,42.0
1.0,43.0,67.0,96.0
1.0,46.0,59.0,112.0
1.0,50.0,74.0,80.0
1.0,53.0,68.0,128.0
1.0,58.0,91.0,116.0
1.0,62.0,73.0,124.0
1.0,65.0,70.0,164.0
1.0,70.0,77.0,220.0
1.0,58.0,77.0,198.0
1.0,53.0,71.0,62.0
1.0,57.0,98.0,62.0
1.0,60.0,93.0,0.0
1.0,53.0,90.0,10.0
1.0,45.0,91.0,0.0
1.0,60.0,77.0,104.0
1.0,60.0,93.0,112.0
1.0,65.0,105.0,0.0
1.0,72.0,90.0,6.0
1.0,69.0,86.0,46.0
1.0,60.0,58.0,6.0
1.0,65.0,42.0,4.0
1.0,44.0,67.0,124.0
1.0,53.0,72.0,80.0
1.0,56.0,92.0,10.0
1.0,65.0,90.0,0.0
1.0,60.0,81.0,6.0
1.0,56.0,74.0,74.0
1.0,50.0,78.0,108.0
1.0,60.0,82.0,42.0
1.0,58.0,84.0,4.0
1.0,43.0,77.0,58.0
1.0,58.0,91.0,32.0
1.0,53.0,85.0,6.0
1.0,31.0,78.0,4.0
1.0,43.0,65.0,144.0
1.0,50.0,75.0,204.0
1.0,53.0,70.0,4.0
1.0,79.0,78.0,10.0
1.0,82.0,92.0,36.0
1.0,55.0,66.0,48.0
1.0,81.0,93.0,4.0
1.0,58.0,67.0,118.0
1.0,62.0,48.0,246.0
1.0,79.0,69.0,0.0
1.0,65.0,31.0,186.0
1.0,74.0,57.0,202.0
1.0,65.0,45.0,6.0
1.0,62.0,45.0,10.0
1.0,70.0,53.0,0.0
1.0,65.0,57.0,52.0
1.0,58.0,48.0,8.0
1.0,65.0,65.0,876.0
1.0,65.0,59.0,120.0
1.0,65.0,69.0,76.0
1.0,62.0,68.0,4.0
1.0,58.0,77.0,4.0
1.0,69.0,47.0,22.0
1.0,62.0,74.0,122.0
1.0,69.0,83.0,60.0
1.0,62.0,74.0,4.0
1.0,65.0,83.0,0.0
1.0,72.0,74.0,6.0
1.0,62.0,52.0,16.0
1.0,46.0,68.0,48.0
1.0,55.0,80.0,134.0
1.0,67.0,82.0,0.0
1.0,61.0,84.0,2.0
1.0,39.0,74.0,18.0
1.0,46.0,76.0,16.0
1.0,51.0,74.0,6.0
1.0,55.0,65.0,130.0
1.0,58.0,54.0,110.0
1.0,61.0,49.0,16.0
1.0,67.0,69.0,92.0
1.0,70.0,58.0,32.0
1.0,73.0,48.0,22.0
1.0,82.0,56.0,192.0
1.0,91.0,34.0,192.0
1.0,94.0,33.0,92.0
1.0,97.0,44.0,58.0
1.0,51.0,47.0,472.0
1.0,60.0,47.0,166.0
1.0,61.0,81.0,32.0
1.0,62.0,66.0,2.0
1.0,65.0,56.0,4.0
1.0,69.0,74.0,134.0
1.0,39.0,60.0,8.0
1.0,46.0,53.0,36.0
1.0,49.0,42.0,318.0
1.0,53.0,44.0,198.0
1.0,58.0,53.0,164.0
1.0,61.0,52.0,38.0
1.0,65.0,63.0,48.0
1.0,67.0,71.0,66.0
1.0,40.0,70.0,148.0
1.0,46.0,77.0,128.0
1.0,50.0,81.0,86.0
1.0,52.0,69.0,142.0
1.0,55.0,69.0,136.0
1.0,58.0,85.0,18.0
1.0,64.0,61.0,90.0
1.0,67.0,73.0,34.0
1.0,70.0,78.0,0.0
1.0,73.0,60.0,18.0
1.0,76.0,74.0,70.0
1.0,79.0,67.0,90.0
1.0,82.0,74.0,24.0
1.0,88.0,77.0,42.0
1.0,91.0,100.0,84.0
1.0,94.0,93.0,48.0
1.0,45.0,94.0,50.0
1.0,49.0,89.0,104.0
1.0,52.0,75.0,38.0
1.0,55.0,78.0,80.0
1.0,73.0,95.0,32.0
1.0,67.0,94.0,0.0
1.0,77.0,93.0,4.0
1.0,61.0,84.0,134.0
1.0,67.0,92.0,46.0
1.0,76.0,84.0,8.0
1.0,64.0,77.0,80.0
1.0,61.0,84.0,86.0
1.0,64.0,71.0,4.0
1.0,69.0,77.0,2.0
1.0,45.0,82.0,182.0
1.0,49.0,85.0,106.0
1.0,52.0,68.0,84.0
1.0,55.0,80.0,76.0
1.0,57.0,91.0,2.0
1.0,61.0,74.0,112.0
1.0,64.0,63.0,10.0
1.0,33.0,80.0,86.0
1.0,38.0,92.0,32.0
1.0,26.0,87.0,6.0
1.0,62.0,85.0,8.0
1.0,57.0,100.0,0.0
1.0,53.0,94.0,8.0
1.0,69.0,95.0,410.0
1.0,74.0,92.0,4.0
1.0,77.0,83.0,6.0
1.0,65.0,90.0,4.0
1.0,76.0,82.0,0.0
1.0,64.0,90.0,0.0
1.0,62.0,70.0,186.0
1.0,65.0,84.0,10.0
1.0,74.0,71.0,6.0
1.0,69.0,82.0,0.0
1.0,72.0,64.0,242.0
1.0,60.0,69.0,0.0
1.0,65.0,76.0,248.0
1.0,69.0,61.0,10.0
1.0,57.0,55.0,16.0
1.0,67.0,61.0,26.0
1.0,41.0,57.0,224.0
1.0,50.0,56.0,92.0
1.0,53.0,64.0,142.0
1.0,62.0,69.0,2.0
1.0,58.0,76.0,8.0
1.0,65.0,58.0,2.0
1.0,62.0,58.0,332.0
1.0,74.0,63.0,4.0
1.0,65.0,64.0,0.0
1.0,70.0,65.0,4.0
1.0,72.0,57.0,96.0
1.0,60.0,39.0,8.0
1.0,69.0,67.0,868.0
1.0,67.0,67.0,204.0
1.0,45.0,55.0,214.0
1.0,33.0,52.0,6.0
1.0,57.0,74.0,8.0
1.0,60.0,67.0,8.0
1.0,65.0,58.0,10.0
1.0,45.0,41.0,2.0
1.0,45.0,37.0,144.0
1.0,57.0,56.0,138.0
1.0,45.0,45.0,16.0
1.0,58.0,65.0,14.0
1.0,59.0,42.0,26.0
1.0,57.0,16.0,44.0
1.0,60.0,58.0,38.0
1.0,45.0,45.0,16.0
1.0,45.0,41.0,144.0
1.0,61.0,62.0,274.0
1.0,62.0,36.0,48.0
1.0,63.0,59.0,10.0
1.0,64.0,66.0,20.0
1.0,48.0,56.0,22.0
1.0,65.0,74.0,0.0
1.0,41.0,43.0,2.0
1.0,48.0,77.0,170.0
1.0,60.0,85.0,140.0
1.0,65.0,87.0,4.0
1.0,72.0,82.0,0.0
1.0,69.0,82.0,242.0
1.0,39.0,71.0,142.0
1.0,51.0,71.0,96.0
1.0,56.0,92.0,0.0
1.0,60.0,83.0,10.0
1.0,65.0,83.0,0.0
1.0,51.0,88.0,196.0
1.0,60.0,93.0,0.0
1.0,58.0,87.0,156.0
1.0,43.0,64.0,38.0
1.0,58.0,91.0,48.0
1.0,53.0,85.0,6.0
1.0,31.0,88.0,6.0
1.0,43.0,77.0,6.0
1.0,43.0,83.0,218.0
1.0,50.0,81.0,104.0
1.0,55.0,71.0,120.0
1.0,58.0,84.0,194.0
1.0,62.0,88.0,64.0
1.0,55.0,58.0,22.0
1.0,65.0,85.0,14.0
1.0,67.0,79.0,134.0
1.0,39.0,69.0,60.0
1.0,61.0,71.0,100.0
1.0,69.0,77.0,4.0
1.0,67.0,68.0,192.0
1.0,46.0,61.0,22.0
1.0,51.0,53.0,108.0
1.0,58.0,62.0,30.0
1.0,46.0,56.0,172.0
1.0,49.0,44.0,206.0
1.0,55.0,28.0,70.0
1.0,58.0,49.0,2.0
1.0,61.0,45.0,224.0
1.0,36.0,53.0,16.0
1.0,65.0,60.0,10.0
1.0,43.0,49.0,150.0
1.0,48.0,42.0,24.0
1.0,52.0,54.0,20.0
1.0,55.0,51.0,168.0
1.0,58.0,36.0,48.0
1.0,61.0,43.0,10.0
1.0,64.0,48.0,4.0
1.0,58.0,47.0,100.0
1.0,55.0,46.0,246.0
1.0,69.0,78.0,568.0
1.0,57.0,69.0,276.0
1.0,60.0,53.0,66.0
1.0,67.0,56.0,54.0
1.0,65.0,68.0,10.0
1.0,41.0,57.0,202.0
1.0,48.0,62.0,48.0
1.0,53.0,66.0,188.0
1.0,57.0,97.0,30.0
1.0,60.0,80.0,28.0
1.0,65.0,77.0,0.0
1.0,39.0,77.0,34.0
1.0,46.0,62.0,64.0
1.0,51.0,70.0,22.0
1.0,55.0,91.0,20.0
1.0,63.0,87.0,6.0
1.0,67.0,81.0,4.0
1.0,65.0,83.0,196.0
1.0,65.0,85.0,86.0
1.0,63.0,81.0,14.0
1.0,37.0,71.0,66.0
1.0,44.0,56.0,100.0
1.0,56.0,85.0,38.0
1.0,53.0,69.0,4.0
1.0,63.0,77.0,0.0
1.0,49.0,58.0,2.0
1.0,61.0,76.0,204.0
1.0,61.0,76.0,156.0
1.0,60.0,63.0,80.0
1.0,60.0,64.0,74.0
1.0,58.0,71.0,108.0
1.0,39.0,45.0,380.0
1.0,27.0,52.0,10.0
1.0,51.0,42.0,18.0
1.0,58.0,58.0,8.0
1.0,55.0,63.0,12.0
1.0,39.0,52.0,10.0
1.0,39.0,59.0,148.0
1.0,46.0,63.0,156.0
1.0,51.0,76.0,30.0
1.0,55.0,66.0,10.0
1.0,51.0,21.0,54.0
1.0,55.0,61.0,116.0
1.0,63.0,68.0,18.0
1.0,67.0,51.0,26.0
1.0,70.0,62.0,84.0
1.0,53.0,57.0,148.0
1.0,46.0,70.0,22.0
1.0,77.0,62.0,6.0
1.0,78.0,92.0,20.0
1.0,79.0,79.0,6.0
1.0,50.0,69.0,4.0
1.0,82.0,92.0,6.0
1.0,53.0,56.0,26.0
1.0,55.0,66.0,12.0
1.0,58.0,76.0,126.0
1.0,62.0,65.0,22.0
1.0,65.0,63.0,70.0
1.0,67.0,69.0,86.0
1.0,69.0,52.0,12.0
1.0,74.0,69.0,68.0
1.0,77.0,54.0,16.0
1.0,81.0,46.0,80.0
1.0,67.0,49.0,44.0
1.0,86.0,54.0,8.0
1.0,93.0,84.0,56.0
1.0,98.0,80.0,26.0
1.0,101.0,78.0,34.0
1.0,105.0,91.0,44.0
1.0,45.0,84.0,168.0
1.0,53.0,94.0,6.0
1.0,77.0,95.0,76.0
1.0,72.0,94.0,4.0
1.0,84.0,97.0,2.0
1.0,60.0,82.0,44.0
1.0,72.0,91.0,118.0
1.0,81.0,95.0,0.0
1.0,77.0,92.0,4.0
1.0,55.0,60.0,114.0
1.0,53.0,64.0,4.0
1.0,44.0,79.0,34.0
1.0,68.0,90.0,24.0
1.0,77.0,79.0,2.0
1.0,72.0,85.0,0.0
1.0,53.0,66.0,38.0
1.0,65.0,86.0,36.0
1.0,72.0,79.0,4.0
1.0,53.0,76.0,128.0
1.0,70.0,89.0,10.0
1.0,65.0,79.0,10.0
1.0,50.0,75.0,26.0
1.0,43.0,80.0,2.0
1.0,70.0,86.0,10.0
1.0,65.0,87.0,2.0
1.0,46.0,65.0,118.0
1.0,50.0,68.0,42.0
1.0,53.0,69.0,154.0
1.0,55.0,61.0,86.0
1.0,58.0,70.0,80.0
1.0,62.0,55.0,28.0
1.0,65.0,60.0,6.0
1.0,67.0,48.0,84.0
1.0,70.0,59.0,74.0
1.0,77.0,50.0,102.0
1.0,79.0,47.0,2.0
1.0,82.0,62.0,38.0
1.0,89.0,66.0,116.0
1.0,91.0,74.0,128.0
1.0,94.0,48.0,98.0
1.0,58.0,52.0,116.0
1.0,62.0,51.0,290.0
1.0,65.0,67.0,260.0
1.0,77.0,38.0,12.0
1.0,77.0,73.0,106.0
1.0,65.0,61.0,2.0
1.0,81.0,84.0,34.0
1.0,69.0,87.0,0.0
1.0,58.0,74.0,172.0
1.0,84.0,71.0,94.0
1.0,72.0,68.0,0.0
1.0,81.0,77.0,2.0
1.0,39.0,70.0,152.0
1.0,39.0,85.0,72.0
1.0,27.0,81.0,4.0
1.0,67.0,82.0,6.0
1.0,79.0,82.0,0.0
1.0,73.0,89.0,6.0
1.0,39.0,60.0,288.0
1.0,46.0,65.0,186.0
1.0,51.0,72.0,8.0
1.0,51.0,71.0,142.0
1.0,55.0,55.0,150.0
1.0,58.0,69.0,90.0
1.0,61.0,72.0,0.0
1.0,67.0,65.0,124.0
1.0,70.0,68.0,122.0
1.0,73.0,57.0,144.0
1.0,79.0,70.0,88.0
1.0,61.0,65.0,68.0
1.0,73.0,91.0,2.0
1.0,67.0,10.0,10.0
1.0,74.0,87.0,14.0
1.0,77.0,62.0,6.0
1.0,81.0,90.0,54.0
1.0,61.0,51.0,18.0
1.0,58.0,70.0,96.0
1.0,79.0,48.0,10.0
1.0,33.0,77.0,190.0
1.0,77.0,55.0,26.0
1.0,69.0,63.0,2.0
1.0,72.0,65.0,4.0
1.0,45.0,46.0,10.0
1.0,45.0,43.0,178.0
1.0,47.0,45.0,6.0
1.0,48.0,73.0,32.0
1.0,53.0,62.0,104.0
1.0,57.0,74.0,16.0
1.0,60.0,61.0,74.0
1.0,65.0,74.0,172.0
1.0,41.0,69.0,108.0
1.0,57.0,88.0,148.0
1.0,60.0,75.0,4.0
1.0,29.0,82.0,12.0
1.0,41.0,71.0,22.0
1.0,53.0,71.0,74.0
1.0,41.0,70.0,14.0
1.0,48.0,78.0,108.0
1.0,53.0,70.0,28.0
1.0,57.0,85.0,0.0
1.0,58.0,86.0,154.0
1.0,59.0,62.0,16.0
1.0,60.0,77.0,86.0
1.0,33.0,82.0,8.0
1.0,45.0,82.0,0.0
1.0,57.0,74.0,70.0
1.0,45.0,85.0,180.0
1.0,48.0,82.0,138.0
1.0,53.0,45.0,28.0
1.0,53.0,48.0,70.0
1.0,46.0,77.0,42.0
1.0,67.0,83.0,12.0
1.0,79.0,80.0,0.0
1.0,50.0,62.0,14.0
1.0,70.0,84.0,166.0
1.0,77.0,71.0,2.0
1.0,74.0,74.0,8.0
1.0,82.0,63.0,0.0
1.0,53.0,48.0,8.0
1.0,55.0,66.0,0.0
1.0,70.0,51.0,114.0
1.0,58.0,68.0,62.0
1.0,62.0,71.0,98.0
1.0,65.0,67.0,72.0
1.0,67.0,63.0,58.0
1.0,70.0,72.0,0.0
1.0,74.0,69.0,68.0
1.0,82.0,74.0,80.0
1.0,85.0,42.0,48.0
1.0,86.0,61.0,8.0
1.0,67.0,62.0,10.0
1.0,94.0,60.0,4.0
1.0,98.0,69.0,38.0
1.0,101.0,66.0,0.0
1.0,106.0,81.0,32.0
1.0,45.0,83.0,176.0
1.0,53.0,95.0,6.0
1.0,72.0,94.0,126.0
1.0,77.0,98.0,0.0
1.0,84.0,98.0,6.0
1.0,89.0,98.0,166.0
1.0,77.0,95.0,0.0
1.0,72.0,82.0,0.0
1.0,84.0,74.0,6.0
1.0,44.0,76.0,146.0
1.0,53.0,76.0,58.0
1.0,67.0,77.0,42.0
1.0,79.0,77.0,12.0
1.0,65.0,81.0,124.0
1.0,77.0,74.0,4.0
1.0,62.0,78.0,244.0
1.0,74.0,71.0,6.0
1.0,60.0,77.0,260.0
1.0,72.0,71.0,2.0
1.0,58.0,72.0,112.0
1.0,43.0,72.0,4.0
1.0,62.0,61.0,6.0
1.0,65.0,69.0,0.0
1.0,70.0,66.0,6.0
1.0,46.0,59.0,150.0
1.0,50.0,66.0,26.0
1.0,53.0,55.0,224.0
1.0,57.0,53.0,44.0
1.0,69.0,44.0,4.0
1.0,62.0,53.0,2.0
1.0,65.0,51.0,8.0
1.0,50.0,50.0,164.0
1.0,62.0,55.0,12.0
1.0,50.0,57.0,176.0
1.0,58.0,52.0,180.0
1.0,62.0,48.0,12.0
1.0,50.0,60.0,18.0
1.0,65.0,76.0,172.0
1.0,77.0,69.0,4.0
1.0,74.0,67.0,12.0
1.0,74.0,74.0,128.0
1.0,77.0,54.0,2.0
1.0,65.0,41.0,8.0
1.0,69.0,78.0,18.0
1.0,81.0,73.0,2.0
1.0,77.0,69.0,4.0
1.0,53.0,56.0,180.0
1.0,50.0,63.0,70.0
1.0,84.0,68.0,46.0
1.0,72.0,63.0,2.0
1.0,81.0,71.0,8.0
1.0,39.0,35.0,252.0
1.0,67.0,59.0,132.0
1.0,70.0,67.0,44.0
1.0,73.0,62.0,24.0
1.0,39.0,18.0,16.0
1.0,79.0,69.0,28.0
1.0,27.0,70.0,20.0
1.0,39.0,61.0,228.0
1.0,46.0,51.0,188.0
1.0,51.0,50.0,8.0
1.0,51.0,63.0,170.0
1.0,55.0,59.0,198.0
1.0,58.0,75.0,4.0
1.0,61.0,78.0,32.0
1.0,67.0,59.0,116.0
1.0,70.0,66.0,96.0
1.0,73.0,63.0,38.0
1.0,79.0,70.0,66.0
1.0,61.0,47.0,192.0
1.0,61.0,59.0,144.0
1.0,72.0,45.0,134.0
1.0,73.0,100.0,14.0
1.0,74.0,92.0,18.0
1.0,77.0,71.0,90.0
1.0,79.0,71.0,42.0
1.0,81.0,90.0,84.0
1.0,51.0,76.0,32.0
1.0,55.0,69.0,54.0
1.0,58.0,78.0,112.0
1.0,61.0,77.0,48.0
1.0,70.0,91.0,90.0
1.0,74.0,77.0,44.0
1.0,77.0,66.0,124.0
1.0,79.0,62.0,84.0
1.0,40.0,75.0,50.0
1.0,28.0,86.0,20.0
1.0,79.0,91.0,16.0
1.0,40.0,81.0,2.0
1.0,40.0,79.0,140.0
1.0,43.0,71.0,112.0
1.0,44.0,31.0,24.0
1.0,46.0,70.0,24.0
1.0,50.0,82.0,6.0
1.0,52.0,65.0,42.0
1.0,55.0,58.0,54.0
1.0,58.0,83.0,40.0
1.0,59.0,47.0,20.0
1.0,52.0,67.0,4.0
1.0,55.0,64.0,26.0
1.0,58.0,76.0,92.0
1.0,62.0,69.0,32.0
1.0,64.0,59.0,38.0
1.0,67.0,60.0,48.0
1.0,70.0,70.0,30.0
1.0,71.0,73.0,68.0
1.0,74.0,58.0,8.0
1.0,79.0,51.0,32.0
1.0,40.0,75.0,78.0
1.0,45.0,97.0,32.0
1.0,33.0,100.0,8.0
1.0,40.0,52.0,16.0
1.0,73.0,96.0,128.0
1.0,67.0,100.0,4.0
1.0,77.0,92.0,2.0
1.0,67.0,82.0,38.0
1.0,76.0,82.0,4.0
1.0,57.0,82.0,56.0
1.0,61.0,81.0,134.0
1.0,77.0,94.0,48.0
1.0,89.0,95.0,2.0
1.0,85.0,96.0,4.0
1.0,64.0,61.0,10.0
1.0,67.0,62.0,92.0
1.0,88.0,77.0,102.0
1.0,76.0,84.0,6.0
1.0,81.0,40.0,0.0
1.0,64.0,44.0,224.0
1.0,69.0,117.0,12.0
1.0,81.0,93.0,10.0
1.0,64.0,79.0,128.0
1.0,95.0,87.0,58.0
1.0,93.0,98.0,10.0
1.0,91.0,75.0,20.0
1.0,89.0,93.0,16.0
1.0,88.0,95.0,4.0
1.0,86.0,92.0,4.0
1.0,84.0,94.0,0.0
1.0,83.0,98.0,4.0
1.0,81.0,91.0,0.0
1.0,79.0,85.0,0.0
1.0,77.0,84.0,0.0
1.0,76.0,88.0,0.0
1.0,74.0,92.0,8.0
1.0,72.0,90.0,10.0
1.0,71.0,88.0,10.0
1.0,69.0,87.0,0.0
1.0,67.0,85.0,0.0
1.0,65.0,91.0,12.0
1.0,64.0,95.0,6.0
1.0,62.0,84.0,0.0
1.0,60.0,84.0,2.0
1.0,59.0,93.0,10.0
1.0,57.0,98.0,2.0
1.0,55.0,97.0,10.0
1.0,53.0,97.0,10.0
1.0,52.0,94.0,10.0
1.0,50.0,98.0,12.0
1.0,48.0,94.0,2.0
1.0,47.0,94.0,6.0
1.0,45.0,92.0,0.0
1.0,43.0,91.0,6.0
1.0,41.0,86.0,0.0
1.0,40.0,85.0,4.0
1.0,38.0,56.0,0.0
1.0,38.0,107.0,116.0
1.0,26.0,107.0,2.0
1.0,69.0,114.0,320.0
1.0,77.0,93.0,0.0
1.0,65.0,92.0,6.0
1.0,74.0,98.0,0.0
1.0,69.0,61.0,12.0
1.0,64.0,87.0,0.0
1.0,76.0,74.0,6.0
1.0,65.0,95.0,176.0
1.0,69.0,93.0,0.0
1.0,74.0,91.0,4.0
1.0,62.0,79.0,4.0
1.0,72.0,77.0,214.0
1.0,60.0,83.0,0.0
1.0,57.0,87.0,218.0
1.0,69.0,91.0,4.0
1.0,65.0,91.0,2.0
1.0,55.0,78.0,248.0
1.0,67.0,80.0,2.0
1.0,41.0,64.0,186.0
1.0,50.0,92.0,36.0
1.0,62.0,92.0,2.0
1.0,58.0,96.0,4.0
1.0,65.0,87.0,4.0
1.0,53.0,97.0,0.0
1.0,70.0,89.0,560.0
1.0,65.0,92.0,2.0
1.0,74.0,86.0,4.0
1.0,62.0,80.0,0.0
1.0,72.0,74.0,290.0
1.0,60.0,67.0,4.0
1.0,58.0,65.0,20.0
1.0,69.0,71.0,138.0
1.0,67.0,72.0,0.0
1.0,40.0,56.0,56.0
1.0,33.0,69.0,32.0
1.0,45.0,69.0,2.0
1.0,57.0,80.0,8.0
1.0,65.0,78.0,0.0
1.0,60.0,76.0,6.0
1.0,45.0,43.0,56.0
1.0,45.0,39.0,198.0
1.0,57.0,44.0,90.0
1.0,58.0,66.0,30.0
1.0,59.0,64.0,48.0
1.0,45.0,66.0,16.0
1.0,60.0,79.0,6.0
1.0,45.0,46.0,170.0
1.0,45.0,49.0,10.0
1.0,60.0,29.0,138.0
1.0,62.0,36.0,76.0
1.0,63.0,67.0,32.0
1.0,64.0,63.0,26.0
1.0,65.0,73.0,26.0
1.0,41.0,63.0,4.0
1.0,60.0,63.0,6.0
1.0,48.0,66.0,2.0
1.0,53.0,64.0,4.0
1.0,72.0,93.0,544.0
1.0,69.0,76.0,126.0
1.0,39.0,69.0,144.0
1.0,46.0,60.0,74.0
1.0,51.0,68.0,68.0
1.0,65.0,71.0,40.0
1.0,58.0,67.0,4.0
1.0,51.0,74.0,116.0
1.0,60.0,93.0,6.0
1.0,58.0,91.0,104.0
1.0,43.0,79.0,82.0
1.0,58.0,81.0,2.0
1.0,53.0,78.0,4.0
1.0,31.0,87.0,12.0
1.0,43.0,62.0,254.0
1.0,53.0,62.0,192.0
1.0,43.0,65.0,158.0
1.0,50.0,80.0,42.0
1.0,53.0,77.0,54.0
1.0,58.0,95.0,0.0
1.0,61.0,97.0,80.0
1.0,62.0,98.0,16.0
1.0,53.0,58.0,24.0
1.0,65.0,92.0,48.0
1.0,67.0,82.0,32.0
1.0,61.0,76.0,30.0
1.0,39.0,75.0,12.0
1.0,69.0,80.0,4.0
1.0,67.0,74.0,170.0
1.0,46.0,65.0,200.0
1.0,51.0,65.0,30.0
1.0,55.0,62.0,176.0
1.0,58.0,68.0,186.0
1.0,61.0,66.0,110.0
1.0,55.0,58.0,0.0
1.0,65.0,58.0,112.0
1.0,60.0,60.0,0.0
1.0,36.0,47.0,38.0
1.0,43.0,52.0,24.0
1.0,48.0,59.0,272.0
1.0,64.0,63.0,196.0
1.0,52.0,48.0,58.0
1.0,55.0,39.0,304.0
1.0,58.0,51.0,198.0
1.0,61.0,58.0,70.0
1.0,64.0,53.0,48.0
1.0,69.0,64.0,84.0
1.0,67.0,65.0,540.0
1.0,65.0,73.0,12.0
1.0,41.0,53.0,96.0
1.0,48.0,53.0,14.0
1.0,53.0,32.0,268.0
1.0,57.0,67.0,704.0
1.0,60.0,62.0,16.0
1.0,65.0,57.0,12.0
1.0,39.0,66.0,34.0
1.0,46.0,68.0,36.0
1.0,55.0,81.0,10.0
1.0,51.0,67.0,0.0
1.0,67.0,68.0,6.0
1.0,63.0,77.0,0.0
1.0,65.0,77.0,2.0
1.0,65.0,92.0,102.0
1.0,63.0,89.0,0.0
1.0,37.0,70.0,58.0
1.0,44.0,56.0,96.0
1.0,49.0,62.0,48.0
1.0,53.0,81.0,20.0
1.0,56.0,92.0,0.0
1.0,63.0,85.0,2.0
1.0,61.0,76.0,28.0
1.0,61.0,77.0,150.0
1.0,60.0,82.0,170.0
1.0,60.0,88.0,170.0
1.0,58.0,80.0,32.0
1.0,27.0,53.0,278.0
1.0,39.0,50.0,20.0
1.0,58.0,65.0,42.0
1.0,51.0,57.0,2.0
1.0,55.0,60.0,6.0
1.0,38.0,88.0,1068.0
1.0,53.0,97.0,0.0
1.0,26.0,87.0,4.0
1.0,60.0,85.0,2.0
1.0,64.0,88.0,0.0
1.0,57.0,97.0,14.0
1.0,38.0,51.0,282.0
1.0,45.0,54.0,144.0
1.0,50.0,48.0,58.0
1.0,53.0,58.0,10.0
1.0,57.0,40.0,18.0
1.0,60.0,50.0,58.0
1.0,64.0,46.0,12.0
1.0,65.0,38.0,100.0
1.0,69.0,42.0,140.0
1.0,72.0,35.0,180.0
1.0,76.0,51.0,160.0
1.0,77.0,41.0,10.0
1.0,81.0,56.0,182.0
1.0,84.0,46.0,240.0
1.0,88.0,51.0,6.0
1.0,105.0,81.0,538.0
1.0,26.0,30.0,1018.0
0.0,0.0,0.0,0.0
0.0,0.0,0.0,0.0
0.0,0.0,0.0,0.0
0.0,0.0,0.0,0.0
0.0,0.0,0.0,0.0
0.0,0.0,0.0,0.0
0.0,0.0,0.0,0.0
0.0,0.0,0.0,0.0
0.0,0.0,0.0,0.0
0.0,0.0,0.0,0.0
0.0,0.0,0.0,0.0
0.0,0.0,0.0,0.0
0.0,0.0,0.0,0.0
0.0,0.0,0.0,0.0
0.0,0.0,0.0,0.0
0.0,0.0,0.0,0.0
0.0,0.0,0.0,0.0
0.0,0.0,0.0,0.0
0.0,0.0,0.0,0.0
0.0,0.0,0.0,0.0
0.0,0.0,0.0,0.0
0.0,0.0,0.0,0.0
0.0,0.0,0.0,0.0
0.0,0.0,0.0,0.0
0.0,0.0,0.0,0.0
0.0,0.0,0.0,0.0
0.0,0.0,0.0,0.0
0.0,0.0,0.0,0.0
0.0,0.0,0.0,0.0
0.0,0.0,0.0,0.0
0.0,0.0,0.0,0.0
0.0,0.0,0.0,0.0
0.0,0.0,0.0,0.0
0.0,0.0,0.0,0.0
0.0,0.0,0.0,0.0
0.0,0.0,0.0,0.0
0.0,0.0,0.0,0.0
0.0,0.0,0.0,0.0
0.0,0.0,0.0,0.0
0.0,0.0,0.0,0.0
0.0,0.0,0.0,0.0
0.0,0.0,0.0,0.0
0.0,0.0,0.0,0.0
0.0,0.0,0.0,0.0
0.0,0.0,0.0,0.0
0.0,0.0,0.0,0.0
0.0,0.0,0.0,0.0
0.0,0.0,0.0,0.0
0.0,0.0,0.0,0.0
0.0,0.0,0.0,0.0
0.0,0.0,0.0,0.0
0.0,0.0,0.0,0.0
0.0,0.0,0.0,0.0
0.0,0.0,0.0,0.0
0.0,0.0,0.0,0.0
0.0,0.0,0.0,0.0
0.0,0.0,0.0,0.0
0.0,0.0,0.0,0.0
0.0,0.0,0.0,0.0
0.0,0.0,0.0,0.0
0.0,0.0,0.0,0.0
0.0,0.0,0.0,0.0
0.0,0.0,0.0,0.0
0.0,0.0,0.0,0.0
0.0,0.0,0.0,0.0
0.0,0.0,0.0,0.0
0.0,0.0,0.0,0.0
0.0,0.0,0.0,0.0
0.0,0.0,0.0,0.0
0.0,0.0,0.0,0.0
0.0,0.0,0.0,0.0
0.0,0.0,0.0,0.0
0.0,0.0,0.0,0.0
0.0,0.0,0.0,0.0
