track,note,velocity,time
1,28,110,284
1,28,0,62
1,28,106,34
1,28,0,62
1,28,109,34
1,28,0,62
1,28,109,34
1,28,0,82
1,30,111,14
1,30,0,65
1,30,105,31
1,30,0,65
1,30,106,31
1,30,0,87
1,32,101,9
1,32,0,65
1,32,111,31
1,32,0,62
1,32,107,34
1,32,0,62
1,32,108,34
1,32,0,62
1,32,106,34
1,32,0,62
1,32,107,34
1,32,0,62
1,32,104,34
1,32,0,62
1,32,108,34
1,32,0,62
1,32,106,34
1,32,0,62
1,28,110,34
1,28,0,62
1,28,106,34
1,28,0,62
1,28,109,34
1,28,0,62
1,28,109,34
1,28,0,82
1,30,111,14
1,30,0,65
1,30,105,31
1,30,0,65
1,30,106,31
1,30,0,87
1,32,101,9
1,32,0,65
1,32,111,31
1,32,0,62
1,32,107,34
1,32,0,62
1,32,108,34
1,32,0,62
1,32,106,34
1,32,0,62
1,32,107,34
1,32,0,62
1,32,104,34
1,32,0,62
1,32,108,34
1,32,0,62
1,32,106,34
1,32,0,62
1,28,110,34
1,28,0,62
1,28,106,34
1,28,0,62
1,28,109,34
1,28,0,62
1,28,109,34
1,28,0,82
1,30,111,14
1,30,0,65
1,30,105,31
1,30,0,65
1,30,106,31
1,30,0,87
1,32,101,9
1,32,0,65
1,32,111,31
1,32,0,62
1,32,107,34
1,32,0,62
1,32,108,34
1,32,0,62
1,32,106,34
1,32,0,62
1,32,107,34
1,32,0,62
1,32,104,34
1,32,0,62
1,32,108,34
1,32,0,62
1,32,106,34
1,32,0,62
1,28,110,34
1,28,0,62
1,28,106,34
1,28,0,62
1,28,109,34
1,28,0,62
1,28,109,34
1,28,0,82
1,30,111,14
1,30,0,65
1,30,105,31
1,30,0,65
1,30,106,31
1,30,0,87
1,32,101,9
1,32,0,65
1,32,111,31
1,32,0,62
1,32,107,34
1,32,0,62
1,32,108,34
1,32,0,62
1,32,106,34
1,32,0,62
1,32,107,34
1,32,0,62
1,32,104,34
1,32,0,62
1,32,108,34
1,32,0,62
1,32,106,34
1,32,0,62
1,28,110,34
1,28,0,62
1,28,106,34
1,28,0,62
1,28,109,34
1,28,0,62
1,28,109,34
1,28,0,82
1,30,111,14
1,30,0,65
1,30,105,31
1,30,0,65
1,30,106,31
1,30,0,87
1,32,101,9
1,32,0,65
1,32,111,31
1,32,0,62
1,32,107,34
1,32,0,62
1,32,108,34
1,32,0,62
1,32,106,34
1,32,0,62
1,32,107,34
1,32,0,62
1,32,104,34
1,32,0,62
1,32,108,34
1,32,0,62
1,32,106,34
1,32,0,62
1,28,110,34
1,28,0,62
1,28,106,34
1,28,0,62
1,28,109,34
1,28,0,62
1,28,109,34
1,28,0,82
1,30,111,14
1,30,0,65
1,30,105,31
1,30,0,65
1,30,106,31
1,30,0,87
1,32,101,9
1,32,0,65
1,32,111,31
1,32,0,62
1,32,107,34
1,32,0,62
1,32,108,34
1,32,0,62
1,32,106,34
1,32,0,62
1,32,107,34
1,32,0,62
1,32,104,34
1,32,0,62
1,32,108,34
1,32,0,62
1,32,106,34
1,32,0,62
1,28,110,34
1,28,0,62
1,28,106,34
1,28,0,62
1,28,109,34
1,28,0,62
1,28,109,34
1,28,0,82
1,30,111,14
1,30,0,65
1,30,105,31
1,30,0,65
1,30,106,31
1,30,0,87
1,32,101,9
1,32,0,65
1,32,111,31
1,32,0,62
1,32,107,34
1,32,0,62
1,32,108,34
1,32,0,62
1,32,106,34
1,32,0,62
1,32,107,34
1,32,0,62
1,32,104,34
1,32,0,62
1,32,108,34
1,32,0,62
1,32,106,34
1,32,0,62
1,28,110,34
1,28,0,62
1,28,106,34
1,28,0,62
1,28,109,34
1,28,0,62
1,28,109,34
1,28,0,82
1,30,111,14
1,30,0,65
1,30,105,31
1,30,0,65
1,30,106,31
1,30,0,87
1,32,101,9
1,32,0,65
1,32,111,31
1,32,0,62
1,32,107,34
1,32,0,62
1,32,108,34
1,32,0,62
1,32,106,34
1,32,0,62
1,32,107,34
1,32,0,62
1,32,104,34
1,32,0,62
1,32,108,34
1,32,0,62
1,32,106,34
1,32,0,62
1,28,110,34
1,28,0,62
1,28,106,34
1,28,0,62
1,28,109,34
1,28,0,62
1,28,109,34
1,28,0,82
1,30,111,14
1,30,0,65
1,30,105,31
1,30,0,65
1,30,106,31
1,30,0,87
1,32,101,9
1,32,0,65
1,32,111,31
1,32,0,62
1,32,107,34
1,32,0,62
1,32,108,34
1,32,0,62
1,32,106,34
1,32,0,62
1,32,107,34
1,32,0,62
1,32,104,34
1,32,0,62
1,32,108,34
1,32,0,62
1,32,106,34
1,32,0,62
1,28,110,34
1,28,0,62
1,28,106,34
1,28,0,62
1,28,109,34
1,28,0,62
1,28,109,34
1,28,0,82
1,30,111,14
1,30,0,65
1,30,105,31
1,30,0,65
1,30,106,31
1,30,0,87
1,32,101,9
1,32,0,65
1,32,111,31
1,32,0,62
1,32,107,34
1,32,0,62
1,32,108,34
1,32,0,62
1,32,106,34
1,32,0,62
1,32,107,34
1,32,0,62
1,32,104,34
1,32,0,62
1,32,108,34
1,32,0,62
1,32,106,34
1,32,0,62
1,28,110,34
1,28,0,62
1,28,106,34
1,28,0,62
1,28,109,34
1,28,0,62
1,28,109,34
1,28,0,82
1,30,111,14
1,30,0,65
1,30,105,31
1,30,0,65
1,30,106,31
1,30,0,87
1,32,101,9
1,32,0,65
1,32,111,31
1,32,0,62
1,32,107,34
1,32,0,62
1,32,108,34
1,32,0,62
1,32,106,34
1,32,0,62
1,32,107,34
1,32,0,62
1,32,104,34
1,32,0,62
1,32,108,34
1,32,0,62
1,32,106,34
1,32,0,62
1,28,110,34
1,28,0,62
1,28,106,34
1,28,0,62
1,28,109,34
1,28,0,62
1,28,109,34
1,28,0,82
1,30,111,14
1,30,0,65
1,30,105,31
1,30,0,65
1,30,106,31
1,30,0,87
1,32,101,9
1,32,0,65
1,32,111,31
1,32,0,62
1,32,107,34
1,32,0,62
1,32,108,34
1,32,0,62
1,32,106,34
1,32,0,62
1,32,107,34
1,32,0,62
1,32,104,34
1,32,0,62
1,32,108,34
1,32,0,62
1,32,106,34
1,32,0,62
1,28,110,34
1,28,0,62
1,28,106,34
1,28,0,62
1,28,109,34
1,28,0,62
1,28,109,34
1,28,0,82
1,30,111,14
1,30,0,65
1,30,105,31
1,30,0,65
1,30,106,31
1,30,0,87
1,32,101,9
1,32,0,65
1,32,111,31
1,32,0,62
1,32,107,34
1,32,0,62
1,32,108,34
1,32,0,62
1,32,106,34
1,32,0,62
1,32,107,34
1,32,0,62
1,32,104,34
1,32,0,62
1,32,108,34
1,32,0,62
1,32,106,34
1,32,0,62
1,28,110,34
1,28,0,62
1,28,106,34
1,28,0,62
1,28,109,34
1,28,0,62
1,28,109,34
1,28,0,82
1,30,111,14
1,30,0,65
1,30,105,31
1,30,0,65
1,30,106,31
1,30,0,87
1,32,101,9
1,32,0,65
1,32,111,31
1,32,0,62
1,32,107,34
1,32,0,62
1,32,108,34
1,32,0,62
1,32,106,34
1,32,0,62
1,32,107,34
1,32,0,62
1,32,104,34
1,32,0,62
1,32,108,34
1,32,0,62
1,32,106,34
1,32,0,62
1,28,110,34
1,28,0,62
1,28,106,34
1,28,0,62
1,28,109,34
1,28,0,62
1,28,109,34
1,28,0,82
1,30,111,14
1,30,0,65
1,30,105,31
1,30,0,65
1,30,106,31
1,30,0,87
1,32,101,9
1,32,0,65
1,32,111,31
1,32,0,62
1,32,107,34
1,32,0,62
1,32,108,34
1,32,0,62
1,32,106,34
1,32,0,62
1,32,107,34
1,32,0,62
1,32,104,34
1,32,0,62
1,32,108,34
1,32,0,62
1,32,106,34
1,32,0,62
1,28,110,34
1,28,0,62
1,28,106,34
1,28,0,62
1,28,109,34
1,28,0,62
1,28,109,34
1,28,0,82
1,30,111,14
1,30,0,65
1,30,105,31
1,30,0,65
1,30,106,31
1,30,0,87
1,32,101,9
1,32,0,65
1,32,111,31
1,32,0,62
1,32,107,34
1,32,0,62
1,32,108,34
1,32,0,62
1,32,106,34
1,32,0,62
1,32,107,34
1,32,0,62
1,32,104,34
1,32,0,62
1,32,108,34
1,32,0,62
1,32,106,34
1,32,0,62
1,28,110,34
1,28,0,62
1,28,106,34
1,28,0,62
1,28,109,34
1,28,0,62
1,28,109,34
1,28,0,82
1,30,111,14
1,30,0,65
1,30,105,31
1,30,0,65
1,30,106,31
1,30,0,87
1,32,101,9
1,32,0,65
1,32,111,31
1,32,0,62
1,32,107,34
1,32,0,62
1,32,108,34
1,32,0,62
1,32,106,34
1,32,0,62
1,32,107,34
1,32,0,62
1,32,104,34
1,32,0,62
1,32,108,34
1,32,0,62
1,32,106,34
1,32,0,62
1,28,110,34
1,28,0,62
1,28,106,34
1,28,0,62
1,28,109,34
1,28,0,62
1,27,109,34
1,27,0,82
1,27,111,14
1,27,0,65
1,27,105,31
1,27,0,65
1,27,106,31
1,27,0,87
1,25,101,9
1,25,0,65
1,25,111,31
1,25,0,62
1,25,107,34
1,25,0,62
1,25,108,34
1,25,0,62
1,25,106,34
1,25,0,62
1,25,107,34
1,25,0,62
1,25,104,34
1,25,0,62
1,25,108,34
1,25,0,62
1,25,106,34
1,25,0,62
1,28,110,34
1,28,0,62
1,28,106,34
1,28,0,62
1,28,109,34
1,28,0,62
1,27,109,34
1,27,0,82
1,27,111,14
1,27,0,65
1,27,105,31
1,27,0,65
1,27,106,31
1,27,0,87
1,25,101,9
1,25,0,65
1,25,111,31
1,25,0,62
1,25,107,34
1,25,0,62
1,25,108,34
1,25,0,62
1,25,106,34
1,25,0,62
1,25,107,34
1,25,0,62
1,25,104,34
1,25,0,62
1,25,108,34
1,25,0,62
1,25,106,34
1,25,0,62
1,32,111,34
1,32,0,62
1,32,107,34
1,32,0,62
1,32,108,34
1,32,0,62
1,32,106,34
1,32,0,62
1,32,107,34
1,32,0,62
1,32,104,34
1,32,0,62
1,32,108,34
1,32,0,62
1,32,106,34
1,32,0,62
1,32,111,34
1,32,0,62
1,32,107,34
1,32,0,62
1,32,108,34
1,32,0,62
1,32,106,34
1,32,0,62
1,32,107,34
1,32,0,62
1,32,104,34
1,32,0,62
1,32,108,34
1,32,0,62
1,32,106,34
1,32,0,62
1,30,110,34
1,30,0,62
1,30,106,34
1,30,0,62
1,30,109,34
1,30,0,62
1,30,109,34
1,30,0,82
1,32,111,14
1,32,0,65
1,32,105,31
1,32,0,65
1,32,106,31
1,32,0,87
1,34,101,9
1,34,0,65
1,34,111,31
1,34,0,62
1,34,107,34
1,34,0,62
1,34,108,34
1,34,0,62
1,34,106,34
1,34,0,62
1,34,107,34
1,34,0,62
1,34,104,34
1,34,0,62
1,34,108,34
1,34,0,62
1,34,106,34
1,34,0,62
1,30,110,34
1,30,0,62
1,30,106,34
1,30,0,62
1,30,109,34
1,30,0,62
1,30,109,34
1,30,0,82
1,32,111,14
1,32,0,65
1,32,105,31
1,32,0,65
1,32,106,31
1,32,0,87
1,34,101,9
1,34,0,65
1,34,111,31
1,34,0,62
1,34,107,34
1,34,0,62
1,34,108,34
1,34,0,62
1,34,106,34
1,34,0,62
1,34,107,34
1,34,0,62
1,34,104,34
1,34,0,62
1,34,108,34
1,34,0,62
1,34,106,34
1,34,0,62
1,30,110,34
1,30,0,62
1,30,106,34
1,30,0,62
1,30,109,34
1,30,0,62
1,30,109,34
1,30,0,82
1,32,111,14
1,32,0,65
1,32,105,31
1,32,0,65
1,32,106,31
1,32,0,87
1,34,101,9
1,34,0,65
1,34,111,31
1,34,0,62
1,34,107,34
1,34,0,62
1,34,108,34
1,34,0,62
1,34,106,34
1,34,0,62
1,34,107,34
1,34,0,62
1,34,104,34
1,34,0,62
1,34,108,34
1,34,0,62
1,34,106,34
1,34,0,62
1,30,110,34
1,30,0,62
1,30,106,34
1,30,0,62
1,30,109,34
1,30,0,62
1,30,109,34
1,30,0,82
1,32,111,14
1,32,0,65
1,32,105,31
1,32,0,65
1,32,106,31
1,32,0,87
1,34,101,9
1,34,0,65
1,34,111,31
1,34,0,62
1,34,107,34
1,34,0,62
1,34,108,34
1,34,0,62
1,34,106,34
1,34,0,62
1,34,107,34
1,34,0,62
1,34,104,34
1,34,0,62
1,34,108,34
1,34,0,62
1,34,106,34
1,34,0,62
1,30,110,34
1,30,0,62
1,30,106,34
1,30,0,62
1,30,109,34
1,30,0,62
1,30,109,34
1,30,0,82
1,32,111,14
1,32,0,65
1,32,105,31
1,32,0,65
1,32,106,31
1,32,0,87
1,34,101,9
1,34,0,65
1,34,111,31
1,34,0,62
1,34,107,34
1,34,0,62
1,34,108,34
1,34,0,62
1,34,106,34
1,34,0,62
1,34,107,34
1,34,0,62
1,34,104,34
1,34,0,62
1,34,108,34
1,34,0,62
1,34,106,34
1,34,0,62
1,30,110,34
1,30,0,62
1,30,106,34
1,30,0,62
1,30,109,34
1,30,0,62
1,30,109,34
1,30,0,82
1,32,111,14
1,32,0,65
1,32,105,31
1,32,0,65
1,32,106,31
1,32,0,87
1,34,101,9
1,34,0,65
1,34,111,31
1,34,0,62
1,34,107,34
1,34,0,62
1,34,108,34
1,34,0,62
1,34,106,34
1,34,0,62
1,34,107,34
1,34,0,62
1,34,104,34
1,34,0,62
1,34,108,34
1,34,0,62
1,34,106,34
1,34,0,62
1,30,110,34
1,30,0,62
1,30,106,34
1,30,0,62
1,30,109,34
1,30,0,62
1,30,109,34
1,30,0,82
1,32,111,14
1,32,0,65
1,32,105,31
1,32,0,65
1,32,106,31
1,32,0,87
1,34,101,9
1,34,0,65
1,34,111,31
1,34,0,62
1,34,107,34
1,34,0,62
1,34,108,34
1,34,0,62
1,34,106,34
1,34,0,62
1,34,107,34
1,34,0,62
1,34,104,34
1,34,0,62
1,34,108,34
1,34,0,62
1,34,106,34
1,34,0,62
1,30,110,34
1,30,0,62
1,30,106,34
1,30,0,62
1,30,109,34
1,30,0,62
1,29,109,34
1,29,0,82
1,29,111,14
1,29,0,65
1,29,105,31
1,29,0,65
1,29,106,31
1,29,0,87
1,27,101,9
1,27,0,65
1,27,111,31
1,27,0,62
1,27,107,34
1,27,0,62
1,27,108,34
1,27,0,62
1,27,106,34
1,27,0,62
1,27,107,34
1,27,0,62
1,27,104,34
1,27,0,62
1,27,108,34
1,27,0,62
1,27,106,34
1,27,0,62
1,30,110,34
1,30,0,62
1,30,106,34
1,30,0,62
1,30,109,34
1,30,0,62
1,29,109,34
1,29,0,82
1,29,111,14
1,29,0,65
1,29,105,31
1,29,0,65
1,29,106,31
1,29,0,87
1,27,101,9
1,27,0,65
1,27,111,31
1,27,0,62
1,27,107,34
1,27,0,62
1,27,108,34
1,27,0,62
1,27,106,34
1,27,0,62
1,27,107,34
1,27,0,62
1,27,104,34
1,27,0,62
1,27,108,34
1,27,0,62
1,27,106,34
1,27,0,62
1,34,111,34
1,34,0,62
1,34,107,34
1,34,0,62
1,34,108,34
1,34,0,62
1,34,106,34
1,34,0,62
1,34,107,34
1,34,0,62
1,34,104,34
1,34,0,62
1,34,108,34
1,34,0,62
1,34,106,34
1,34,0,62
1,34,111,34
1,34,0,62
1,34,107,34
1,34,0,62
1,34,108,34
1,34,0,62
1,34,106,34
1,34,0,62
1,34,107,34
1,34,0,62
1,34,104,34
1,34,0,62
1,34,108,34
1,34,0,62
1,34,106,34
1,34,0,62
1,29,110,34
1,29,0,65
1,29,106,31
1,29,0,65
1,29,109,31
1,29,0,65
1,29,109,31
1,29,0,68
1,29,111,28
1,29,0,68
1,29,105,28
1,29,0,68
1,29,106,28
1,29,0,70
1,29,101,26
1,29,0,68
1,29,111,28
1,29,0,65
1,29,107,31
1,29,0,65
1,29,108,31
1,29,0,65
1,29,106,31
1,29,0,65
1,29,107,31
1,29,0,65
1,29,104,31
1,29,0,65
1,29,108,31
1,29,0,82
1,32,106,14
1,32,0,87
1,34,110,9
1,34,0,65
1,34,106,31
1,34,0,65
1,34,109,31
1,34,0,65
1,34,109,31
1,34,0,68
