track,note,velocity,time
1,87,103,341
1,83,107,4
1,90,107,0
1,87,86,188
1,83,80,4
1,90,80,0
1,87,32,188
1,83,35,4
1,90,35,0
1,44,104,52
1,48,104,0
1,41,104,0
1,82,108,20
1,78,108,0
1,75,111,2
1,82,68,190
1,78,68,0
1,75,56,2
1,82,32,190
1,78,32,0
1,75,32,2
1,59,84,0
1,55,64,0
1,62,104,0
1,59,71,0
1,55,71,0
1,62,50,0
1,59,47,0
1,55,47,0
1,62,32,0
1,92,108,598
1,87,111,0
1,95,74,10
1,92,89,160
1,87,89,0
1,95,86,10
1,92,41,160
1,87,41,0
1,95,32,10
1,43,110,512
1,36,110,0
1,40,53,4
1,89,101,160
1,86,101,0
1,82,89,2
1,89,77,170
1,86,77,0
1,82,53,2
1,89,44,190
1,86,44,0
1,82,26,2
1,58,89,582
1,54,98,2
1,51,77,8
1,58,77,156
1,54,35,2
1,51,56,8
1,58,53,156
1,54,59,2
1,51,53,8
2,31,104,7751
2,31,113,80
2,29,116,82
2,29,113,82
2,28,122,60
2,28,116,72
2,28,119,82
2,28,113,82
2,29,119,90
2,29,116,84
2,28,119,88
2,28,101,86
2,34,117,96
2,34,117,168
2,34,117,98
2,34,117,102
2,31,110,102
2,31,110,94
2,34,117,92
2,34,117,100
2,36,122,98
2,36,119,84
2,36,116,92
2,36,107,98
2,41,125,60
2,43,116,6
2,43,110,50
2,38,113,96
2,31,119,4
2,41,125,174
2,43,119,4
2,43,119,54
2,38,113,96
2,31,122,4
2,26,113,268
2,26,116,84
2,26,116,80
2,26,116,90
2,26,119,84
2,26,116,88
2,26,119,88
2,26,116,90
2,29,116,88
2,29,110,86
2,29,110,88
2,29,107,88
2,29,113,94
2,29,113,92
2,28,119,92
2,28,119,88
2,26,113,106
2,26,116,84
2,26,116,80
2,26,116,90
2,26,119,84
2,26,116,88
2,26,119,88
2,26,116,90
2,29,116,88
2,29,110,86
2,29,110,88
2,29,107,88
2,29,113,94
2,29,113,92
2,28,119,92
2,28,119,88
2,26,113,106
2,26,116,84
2,26,116,80
2,26,116,90
2,26,119,84
2,26,116,88
2,26,119,88
2,26,116,90
2,29,116,88
2,29,110,86
2,29,110,88
2,29,107,88
2,29,113,94
2,29,113,92
2,28,119,92
2,28,119,88
2,34,109,106
2,34,114,86
2,33,113,86
2,33,101,82
2,31,116,88
2,31,107,86
2,29,119,86
2,29,113,80
2,39,109,90
2,39,114,86
2,38,116,92
2,38,104,70
2,36,116,72
2,36,110,74
2,36,117,72
2,36,114,62
2,26,113,102
2,26,116,84
2,26,116,80
2,26,116,90
2,26,119,84
2,26,116,88
2,26,119,88
2,26,116,90
2,29,116,88
2,29,110,86
2,29,110,88
2,29,107,88
2,29,113,94
2,29,113,92
2,28,119,92
2,28,119,88
2,26,113,106
2,26,116,84
2,26,116,80
2,26,116,90
2,26,119,84
2,26,116,88
2,26,119,88
2,26,116,90
2,29,116,88
2,29,110,86
2,29,110,88
2,29,107,88
2,29,113,94
2,29,113,92
2,28,119,92
2,28,119,88
2,34,109,106
2,34,114,86
2,33,113,86
2,33,101,82
2,83,16,46
2,31,116,42
2,31,107,86
2,29,119,86
2,29,113,80
2,39,109,90
2,39,114,86
2,38,116,92
2,38,104,70
2,36,116,72
2,36,110,74
2,34,117,72
2,34,114,62
2,32,117,102
2,32,109,18
2,32,117,82
2,31,110,92
2,31,113,100
2,29,110,92
2,29,110,104
2,27,114,96
2,27,109,82
2,26,99,80
2,26,104,2
2,26,104,10
2,26,104,62
2,26,113,8
2,26,110,98
2,29,116,2
2,31,122,96
2,26,116,86
2,26,107,110
2,26,110,108
2,29,104,96
2,31,119,86
2,29,122,88
2,29,119,102
2,29,122,98
2,29,122,100
2,29,122,94
2,29,122,96
2,29,122,90
2,31,116,96
2,33,116,86
2,26,104,14
2,26,113,116
2,26,110,112
2,29,116,2
2,31,122,96
2,26,116,86
2,26,107,110
2,26,110,108
2,29,104,96
2,31,119,86
2,29,122,88
2,29,119,102
2,29,122,98
2,29,122,100
2,29,122,94
2,29,122,96
2,29,122,90
2,31,116,96
2,33,116,86
2,26,104,14
2,26,113,116
2,26,110,112
2,29,116,2
2,31,122,96
2,26,116,86
2,26,107,110
2,26,110,108
2,29,104,96
2,31,119,86
2,29,122,88
2,29,119,102
2,29,122,98
2,29,122,100
2,29,122,94
2,29,122,96
2,29,122,90
2,31,116,96
2,33,116,86
2,26,104,14
2,26,113,96
2,26,116,84
2,26,116,80
2,26,116,90
2,26,119,84
2,26,116,88
2,26,119,88
2,26,116,90
2,29,116,88
2,29,110,86
2,29,110,88
2,29,107,88
2,29,113,94
2,29,113,92
2,28,119,92
2,28,119,88
2,26,113,106
2,26,116,84
2,26,116,80
2,26,116,90
2,26,119,84
2,26,116,88
2,26,119,88
2,26,116,90
2,29,116,88
2,29,110,86
2,29,110,88
2,29,107,88
2,29,113,94
2,29,113,92
2,28,119,92
2,28,119,88
2,26,113,106
2,26,116,84
2,26,116,80
2,26,116,90
2,26,119,84
2,26,116,88
2,26,119,88
2,26,116,90
2,29,116,88
2,29,110,86
2,29,110,88
2,29,107,88
2,29,113,94
2,29,113,92
2,28,119,92
2,28,119,88
2,34,109,106
2,34,114,86
2,33,113,86
2,33,101,82
2,83,16,46
2,31,116,42
2,31,107,86
2,29,119,86
2,29,113,80
2,39,109,90
2,39,114,86
2,38,116,92
2,38,104,70
2,36,116,72
2,36,110,74
2,34,117,72
2,34,114,62
2,32,117,102
2,32,109,18
2,32,117,82
2,31,110,92
2,31,113,100
2,29,110,92
2,29,110,104
2,27,114,96
2,27,109,82
2,26,99,80
2,26,104,2
2,26,104,10
2,26,104,62
2,26,113,8
2,26,110,98
2,29,116,2
2,31,122,96
2,26,116,86
2,26,107,110
2,26,110,108
2,29,104,96
2,31,119,86
2,29,122,88
2,29,119,102
2,29,122,98
2,29,122,100
2,29,122,94
2,29,122,96
2,29,122,90
2,31,116,96
2,33,116,86
2,26,104,14
2,26,113,116
2,26,110,112
2,29,116,2
2,31,122,96
2,26,116,86
2,26,107,110
2,26,110,108
2,29,104,96
2,31,119,86
2,29,122,88
2,29,119,102
2,29,122,98
2,29,122,100
2,29,122,94
2,29,122,96
2,29,122,90
2,31,116,96
2,33,116,86
2,26,104,14
2,33,119,116
2,36,96,96
2,38,116,80
2,38,116,54
2,38,119,144
2,38,116,144
2,33,116,46
2,36,96,96
2,38,110,88
2,38,110,52
2,38,116,140
2,34,114,48
2,34,95,48
2,29,113,52
2,31,78,96
2,34,109,8
2,34,109,42
2,34,114,144
2,34,104,148
2,29,110,46
2,34,104,18
2,34,95,50
2,31,113,242
2,31,110,58
2,26,107,52
2,31,116,42
2,31,119,52
2,31,107,1022
2,31,104,48
2,31,104,56
2,31,96,52
2,29,107,50
2,29,101,48
2,29,104,60
2,36,113,54
2,36,110,56
2,36,99,50
2,36,104,54
2,36,101,50
2,36,90,56
2,36,85,52
2,36,104,44
2,36,90,62
2,38,110,62
2,38,99,48
2,38,99,48
2,38,92,46
2,36,116,48
2,36,92,58
2,36,96,64
2,34,91,58
2,34,114,68
2,34,95,58
2,34,91,62
2,34,87,60
2,34,91,60
2,34,91,62
2,34,87,60
2,34,77,60
2,31,107,62
2,31,99,50
2,31,99,60
2,31,99,62
2,34,114,66
2,34,87,60
2,34,95,66
2,34,67,58
2,36,116,52
2,36,96,48
2,36,101,50
2,36,92,56
2,36,92,64
2,36,96,60
2,36,101,62
2,36,101,62
2,38,113,58
2,38,92,50
2,38,92,48
2,38,68,50
2,36,113,44
2,36,87,58
2,36,101,58
2,38,110,48
2,38,101,50
2,38,92,48
2,38,96,52
2,38,85,52
2,38,99,56
2,38,92,52
2,38,101,58
2,31,107,150
2,31,104,48
2,31,104,56
2,31,96,52
2,29,107,50
2,29,101,48
2,29,104,60
2,36,113,54
2,36,110,56
2,36,99,50
2,36,104,54
2,36,101,50
2,36,90,56
2,36,85,52
2,36,104,44
2,36,90,62
2,38,110,62
2,38,99,48
2,38,99,48
2,38,92,46
2,36,116,48
2,36,92,58
2,36,96,64
2,34,91,58
2,34,114,68
2,34,95,58
2,34,91,62
2,34,87,60
2,34,91,60
2,34,91,62
2,34,87,60
2,34,77,60
2,31,107,62
2,31,99,50
2,31,99,60
2,31,99,62
2,34,114,66
2,34,87,60
2,34,95,66
2,34,67,58
2,36,116,52
2,36,96,48
2,36,101,50
2,36,92,56
2,36,92,64
2,36,96,60
2,36,101,62
2,41,125,62
2,43,119,12
2,43,107,52
2,38,113,96
2,31,113,82
2,41,125,194
2,43,104,12
2,43,110,56
2,38,110,96
2,31,122,0
2,26,113,492
2,26,110,112
2,29,116,2
2,31,122,96
2,26,116,86
2,26,107,110
2,26,110,108
2,29,104,96
2,31,119,86
2,29,122,88
2,29,119,102
2,29,122,98
2,29,122,100
2,29,122,94
2,29,122,96
2,29,122,90
2,31,116,96
2,33,116,86
2,26,104,14
2,26,113,116
2,26,110,112
2,29,116,2
2,31,122,96
2,26,116,86
2,26,107,110
2,26,110,108
2,29,104,96
2,31,119,86
2,29,122,88
2,29,119,102
2,29,122,98
2,29,122,100
2,29,122,94
2,29,122,96
2,29,122,90
2,31,116,96
2,33,116,86
2,26,104,14
2,26,113,116
2,26,110,112
2,29,116,2
2,31,122,96
2,26,116,86
2,26,107,110
2,26,110,108
2,29,104,96
2,31,119,86
2,29,122,88
2,29,119,102
2,29,122,98
2,29,122,100
2,29,122,94
2,29,122,96
2,29,122,90
2,31,116,96
2,33,116,86
2,26,104,14
2,26,113,116
2,26,110,112
2,29,116,2
2,31,122,96
2,26,116,86
2,26,107,110
2,26,110,108
2,29,104,96
2,31,119,86
2,29,122,88
2,29,119,102
2,29,122,98
2,29,122,100
2,29,122,94
2,29,122,96
2,29,122,90
2,31,116,96
2,33,116,86
2,26,104,14
2,33,119,116
2,36,96,96
2,38,116,80
2,38,116,54
2,38,119,144
2,38,116,144
2,33,116,46
2,36,96,96
2,38,110,88
2,38,110,52
2,38,116,140
2,34,114,48
2,34,95,48
2,29,113,52
2,31,78,96
2,34,109,8
2,34,109,42
2,34,114,144
2,34,104,148
2,29,110,46
2,34,104,18
2,34,95,50
2,31,113,242
2,31,110,58
2,26,107,52
2,31,116,42
2,31,119,52
2,34,117,254
2,34,95,70
2,34,114,64
2,34,104,62
2,34,109,64
2,34,95,60
2,34,95,66
2,34,104,70
2,27,114,68
2,27,99,54
2,27,114,58
2,27,109,52
2,27,109,54
2,27,117,56
2,27,114,58
2,27,104,58
2,29,116,52
2,29,99,46
2,29,104,54
2,29,101,52
2,29,104,56
2,29,99,54
2,29,96,52
2,29,101,52
2,29,99,52
2,29,99,54
2,29,101,50
2,29,99,50
2,29,104,50
2,29,99,46
2,29,101,52
2,29,104,50
2,34,117,56
2,34,95,70
2,34,114,64
2,34,104,62
2,34,109,64
2,34,95,60
2,34,95,66
2,34,104,70
2,27,114,68
2,27,99,54
2,27,114,58
2,27,109,52
2,27,109,54
2,27,117,56
2,27,114,58
2,27,104,58
2,29,116,52
2,29,99,46
2,29,104,54
2,29,101,52
2,29,104,56
2,29,99,54
2,29,96,52
2,29,101,52
2,29,99,52
2,29,99,54
2,29,101,50
2,29,99,50
2,29,104,50
2,29,99,46
2,29,101,52
2,29,104,50
2,34,117,56
2,34,95,70
2,34,114,64
2,34,104,62
2,34,109,64
2,34,95,60
2,34,95,66
2,34,104,70
2,27,114,68
2,27,99,54
2,27,114,58
2,27,109,52
2,27,109,54
2,27,117,56
2,27,114,58
2,27,104,58
2,29,116,52
2,29,99,46
2,29,104,54
2,29,101,52
2,29,104,56
2,29,99,54
2,29,96,52
2,29,101,52
2,29,99,52
2,29,99,54
2,29,101,50
2,29,99,50
2,29,104,50
2,29,99,46
2,29,101,52
2,29,104,50
2,34,117,56
2,34,95,70
2,34,114,64
2,34,104,62
2,34,109,64
2,34,95,60
2,34,95,66
2,34,104,70
2,27,114,68
2,27,99,54
2,27,114,58
2,27,109,52
2,27,109,54
2,27,117,56
2,27,114,58
2,27,104,58
2,29,116,52
2,29,99,46
2,29,104,54
2,29,101,52
2,29,104,56
2,29,99,54
2,29,96,52
2,29,101,52
2,29,99,52
2,29,99,54
2,29,101,50
2,29,99,50
2,29,104,50
2,29,99,46
2,29,101,52
2,32,104,50
2,34,107,56
2,34,104,48
2,34,104,56
2,34,96,52
2,32,107,50
2,32,101,48
2,32,104,60
2,39,113,54
2,39,110,56
2,39,99,50
2,39,104,54
2,39,101,50
2,39,90,56
2,39,85,52
2,39,104,44
2,39,90,62
2,41,110,62
2,41,99,48
2,41,99,48
2,41,92,46
2,39,116,48
2,39,92,58
2,39,96,64
2,37,91,58
2,37,114,68
2,37,95,58
2,37,91,62
2,37,87,60
2,37,91,60
2,37,91,62
2,37,87,60
2,37,77,60
2,34,107,62
2,34,99,50
2,34,99,60
2,34,99,62
2,37,114,66
2,37,87,60
2,37,95,66
2,37,67,58
3,65,123,13969
3,67,120,0
3,72,126,0
3,67,91,46
3,74,108,0
3,69,96,0
3,67,114,48
3,74,114,0
3,69,120,0
3,53,114,430
3,55,120,0
3,60,126,0
3,62,114,36
3,55,111,0
3,57,111,0
3,55,108,56
3,57,111,0
3,62,117,0
3,65,123,1966
3,67,120,0
3,72,126,0
3,67,91,46
3,74,108,0
3,69,96,0
3,67,114,48
3,74,114,0
3,69,120,0
3,53,114,430
3,55,120,0
3,60,126,0
3,62,114,36
3,55,111,0
3,57,111,0
3,55,108,56
3,57,111,0
3,62,117,0
3,65,123,1966
3,67,120,0
3,72,126,0
3,67,91,46
3,74,108,0
3,69,96,0
3,67,114,48
3,74,114,0
3,69,120,0
3,53,114,430
3,55,120,0
3,60,126,0
3,62,114,36
3,55,111,0
3,57,111,0
3,55,108,56
3,57,111,0
3,62,117,0
3,65,123,5038
3,67,120,0
3,72,126,0
3,67,91,46
3,74,108,0
3,69,96,0
3,67,114,48
3,74,114,0
3,69,120,0
3,53,114,430
3,55,120,0
3,60,126,0
3,62,114,36
3,55,111,0
3,57,111,0
3,55,108,56
3,57,111,0
3,65,123,1970
3,67,120,0
3,72,126,0
3,67,91,46
3,74,108,0
3,69,96,0
3,67,114,48
3,74,114,0
3,69,120,0
3,53,114,430
3,55,120,0
3,60,126,0
3,62,114,36
3,55,111,0
3,57,111,0
3,55,108,56
3,57,111,0
3,62,117,0
3,81,111,6680
3,74,117,0
3,69,114,0
3,81,117,112
3,69,117,0
3,74,120,0
3,81,117,118
3,74,123,0
3,69,117,0
3,81,114,116
3,69,114,0
3,74,120,0
3,69,111,114
3,74,117,0
3,81,111,2
3,74,117,122
3,81,108,0
3,69,114,2
3,69,105,120
3,81,108,2
3,74,111,0
3,74,114,120
3,81,111,0
3,69,111,0
3,69,117,134
3,81,111,0
3,74,120,0
3,81,105,124
3,74,114,2
3,69,111,0
3,69,108,120
3,81,108,0
3,74,114,0
3,74,117,130
3,81,105,0
3,69,111,2
3,81,108,130
3,74,114,4
3,69,114,0
3,81,111,130
3,69,114,2
3,74,117,0
3,81,105,126
3,74,117,2
3,69,114,0
3,74,120,118
3,69,117,0
3,81,111,0
3,81,111,140
3,74,117,0
3,69,114,0
3,81,117,112
3,69,117,0
3,74,120,0
3,81,117,118
3,74,123,0
3,69,117,0
3,81,114,116
3,69,114,0
3,74,120,0
3,69,111,114
3,74,117,0
3,81,111,2
3,74,117,122
3,81,108,0
3,69,114,2
3,69,105,120
3,81,108,2
3,74,111,0
3,74,114,120
3,81,111,0
3,69,111,0
3,69,117,134
3,81,111,0
3,74,120,0
3,81,105,124
3,74,114,2
3,69,111,0
3,69,108,120
3,81,108,0
3,74,114,0
3,74,117,130
3,81,105,0
3,69,111,2
3,81,108,130
3,74,114,4
3,69,114,0
3,81,111,130
3,69,114,2
3,74,117,0
3,81,105,126
3,74,117,2
3,69,114,0
3,74,120,118
3,69,117,0
3,81,111,0
3,81,111,140
3,74,117,0
3,69,114,0
3,81,117,112
