track,note,velocity,time
1,64,102,282
1,40,61,1
1,68,90,0
1,59,73,0
1,40,0,167
1,59,0,1
1,64,0,1
1,68,0,3
1,59,53,19
1,40,53,0
1,69,79,0
1,64,90,0
1,59,0,6
1,69,0,0
1,64,0,1
1,40,0,3
1,64,96,39
1,59,73,1
1,69,96,0
1,40,61,0
1,59,0,73
1,69,0,3
1,64,0,1
1,40,0,0
1,69,79,18
1,40,57,0
1,59,49,0
1,64,79,0
1,64,0,6
1,59,0,1
1,69,0,2
1,40,0,1
1,40,61,37
1,68,90,1
1,64,102,0
1,59,73,0
1,40,0,168
1,59,0,0
1,64,0,2
1,68,0,2
1,59,53,19
1,64,90,0
1,69,79,0
1,40,53,1
1,59,0,5
1,69,0,1
1,64,0,0
1,40,0,4
1,40,61,37
1,69,96,0
1,59,73,1
1,64,96,1
1,59,0,73
1,69,0,3
1,40,0,0
1,64,0,2
1,40,57,16
1,59,49,0
1,64,79,1
1,69,79,1
1,59,0,5
1,64,0,1
1,69,0,4
1,40,0,0
1,40,61,37
1,64,102,0
1,68,90,0
1,59,73,0
1,40,0,168
1,59,0,0
1,64,0,2
1,68,0,3
1,40,53,18
1,69,79,1
1,64,90,0
1,59,53,0
1,59,0,6
1,69,0,0
1,64,0,0
1,40,0,3
1,59,73,38
1,69,96,0
1,40,61,0
1,64,96,1
1,59,0,73
1,69,0,3
1,40,0,1
1,64,0,1
1,69,79,18
1,64,79,0
1,59,49,0
1,40,57,0
1,64,0,6
1,59,0,0
1,69,0,3
1,40,0,1
1,59,73,37
1,40,61,0
1,64,102,1
1,68,90,2
1,59,0,165
1,40,0,1
1,64,0,3
1,68,0,2
1,40,53,19
1,64,90,0
1,69,79,0
1,59,53,0
1,59,0,6
1,69,0,1
1,64,0,0
1,40,0,2
1,40,61,39
1,69,96,0
1,64,96,0
1,59,73,0
1,59,0,74
1,69,0,3
1,40,0,1
1,64,0,0
1,59,49,17
1,69,79,1
1,40,57,0
1,64,79,1
1,59,0,5
1,64,0,0
1,69,0,3
1,40,0,1
1,64,102,37
1,68,90,1
1,59,73,0
1,40,61,1
1,59,0,167
1,40,0,1
1,64,0,0
1,68,0,2
1,69,79,20
1,59,53,1
1,40,53,1
1,64,90,0
1,59,0,5
1,69,0,0
1,64,0,1
1,40,0,3
1,59,73,37
1,69,96,1
1,40,61,1
1,64,96,0
1,59,0,72
1,69,0,3
1,40,0,2
1,64,0,1
1,64,79,17
1,69,79,0
1,40,57,0
1,59,49,0
1,64,0,5
1,59,0,2
1,69,0,1
1,40,0,3
1,64,102,37
1,59,73,0
1,40,61,0
1,68,90,0
1,59,0,167
1,40,0,1
1,64,0,1
1,68,0,4
1,69,79,18
1,59,53,1
1,64,90,1
1,40,53,0
1,59,0,5
1,69,0,0
1,64,0,1
1,40,0,4
1,59,73,36
1,40,61,0
1,69,96,1
1,64,96,1
1,59,0,72
1,69,0,5
1,40,0,0
1,64,0,1
1,40,57,16
1,59,49,0
1,69,79,0
1,64,79,1
1,59,0,6
1,64,0,1
1,69,0,1
1,40,0,2
1,68,90,37
1,40,61,1
1,64,102,0
1,59,73,0
1,40,0,167
1,59,0,1
1,64,0,1
1,68,0,2
1,40,53,20
1,64,90,0
1,59,53,0
1,69,79,0
1,59,0,6
1,69,0,1
1,64,0,0
1,40,0,3
1,59,73,38
1,69,96,0
1,40,61,0
1,64,96,1
1,59,0,73
1,69,0,3
1,40,0,1
1,64,0,1
1,59,49,17
1,40,57,1
1,64,79,1
1,69,79,0
1,64,0,5
1,59,0,0
1,69,0,2
1,40,0,1
1,64,102,39
1,59,73,1
1,68,90,0
1,40,61,0
1,59,0,167
1,40,0,2
1,64,0,1
1,68,0,1
1,69,79,19
1,64,90,0
1,59,53,0
1,40,53,0
1,59,0,6
1,69,0,0
1,64,0,1
1,40,0,4
1,40,61,38
1,64,96,0
1,69,96,0
1,59,73,0
1,59,0,74
1,69,0,3
1,40,0,1
1,64,0,0
1,69,79,17
1,40,57,0
1,64,79,1
1,59,49,1
1,64,0,6
1,59,0,1
1,69,0,0
1,40,0,2
1,64,102,37
1,59,73,0
1,40,61,0
1,68,90,1
1,59,0,167
1,40,0,1
1,64,0,1
1,68,0,2
1,59,53,20
1,40,53,1
1,64,90,0
1,69,79,0
1,59,0,5
1,69,0,2
1,64,0,0
1,40,0,3
1,40,61,37
1,69,96,1
1,64,96,0
1,59,73,0
1,59,0,74
1,69,0,2
1,40,0,1
1,64,0,0
1,69,79,19
1,64,79,0
1,40,57,1
1,59,49,1
1,64,0,4
1,59,0,2
1,69,0,2
1,40,0,1
1,59,73,36
1,40,61,1
1,64,102,0
1,68,90,0
1,59,0,167
1,40,0,0
1,64,0,3
1,68,0,2
1,59,53,20
1,40,53,1
1,64,90,0
1,69,79,0
1,59,0,5
1,69,0,1
1,64,0,0
1,40,0,2
1,69,96,38
1,59,73,0
1,40,61,0
1,64,96,1
1,59,0,73
1,69,0,3
1,40,0,1
1,64,0,1
1,59,49,18
1,69,79,1
1,40,57,0
1,64,79,0
1,59,0,6
1,64,0,0
1,69,0,2
1,40,0,1
1,40,61,37
1,59,73,1
1,64,102,0
1,68,90,0
1,59,0,168
1,40,0,1
1,64,0,1
1,68,0,3
1,69,79,18
1,64,90,1
1,59,53,1
1,40,53,1
1,69,0,4
1,59,0,1
1,64,0,0
1,40,0,3
1,64,96,37
1,40,61,1
1,59,73,0
1,69,96,0
1,59,0,73
1,64,0,4
1,69,0,1
1,40,0,1
1,59,49,18
1,40,57,0
1,69,79,0
1,64,79,0
1,59,0,6
1,64,0,0
1,69,0,1
1,40,0,1
1,64,102,38
1,40,61,0
1,68,90,0
1,59,73,2
1,40,0,167
1,59,0,1
1,64,0,0
1,68,0,3
1,64,90,19
1,69,79,1
1,59,53,1
1,40,53,0
1,64,0,5
1,59,0,1
1,69,0,0
1,40,0,4
1,64,96,36
1,59,73,0
1,69,96,2
1,40,61,0
1,59,0,73
1,64,0,4
1,69,0,0
1,40,0,0
1,69,79,17
1,40,57,0
1,59,49,1
1,64,79,1
1,64,0,6
1,59,0,0
1,69,0,1
1,40,0,2
1,40,61,38
1,59,73,0
1,68,90,0
1,64,127,0
1,64,0,160
1,59,0,7
1,40,0,0
1,68,0,5
1,69,64,20
1,64,127,1
1,59,64,0
1,40,64,0
1,64,0,21
1,63,115,1
1,63,0,21
1,61,127,28
1,61,0,26
1,69,0,20
1,40,0,0
1,59,0,0
1,63,115,1
1,63,0,18
1,59,49,6
1,40,57,0
1,69,79,0
1,64,127,0
1,59,0,7
1,69,0,2
1,40,0,1
1,59,73,38
1,40,61,0
1,68,90,0
1,59,0,168
1,40,0,0
1,68,0,5
1,64,0,5
1,69,64,15
1,64,127,0
1,59,53,0
1,40,64,0
1,64,0,23
1,63,115,0
1,63,0,29
1,61,127,21
1,61,0,25
1,69,0,21
1,40,0,0
1,59,0,0
1,63,121,1
1,63,0,16
1,40,57,7
1,59,49,0
1,69,79,0
1,64,127,1
1,59,0,6
1,69,0,2
1,40,0,1
1,64,0,37
1,59,73,2
1,40,61,0
1,68,90,0
1,64,102,0
1,59,0,168
1,40,0,0
1,64,0,2
1,68,0,3
1,59,53,20
1,40,53,0
1,64,90,0
1,69,79,1
1,59,0,4
1,69,0,1
1,64,0,0
1,40,0,3
1,59,73,38
1,40,61,1
1,69,96,0
1,64,96,1
1,59,0,73
1,69,0,4
1,40,0,0
1,64,0,1
1,59,49,15
1,69,79,0
1,40,57,1
1,64,79,0
1,59,0,6
1,64,0,1
1,69,0,1
1,40,0,3
1,59,73,36
1,68,90,0
1,64,102,1
1,40,61,1
1,59,0,166
1,40,0,1
1,64,0,2
1,68,0,2
1,40,53,19
1,64,90,0
1,69,79,1
1,59,53,0
1,59,0,6
1,69,0,0
1,64,0,0
1,40,0,3
1,64,96,38
1,59,73,0
1,69,96,1
1,40,61,0
1,59,0,73
1,69,0,3
1,64,0,1
1,40,0,1
1,40,57,17
1,69,79,1
1,59,49,0
1,64,79,0
1,59,0,6
1,64,0,1
1,69,0,2
1,40,0,2
1,40,61,37
1,68,90,0
1,59,73,0
1,64,102,0
1,59,0,167
1,40,0,0
1,64,0,3
1,68,0,2
1,40,53,19
1,59,53,0
1,64,90,0
1,69,79,2
1,59,0,5
1,69,0,1
1,64,0,0
1,40,0,2
1,69,96,39
1,64,96,0
1,59,73,1
1,40,61,1
1,59,0,74
1,69,0,1
1,64,0,1
1,40,0,1
1,40,57,16
1,64,79,0
1,69,79,1
1,59,49,0
1,64,0,6
1,59,0,1
1,69,0,2
1,40,0,2
1,68,90,37
1,40,61,0
1,64,102,1
1,59,73,0
1,40,0,167
1,59,0,0
1,64,0,3
1,68,0,1
1,64,90,19
1,59,53,0
1,40,53,0
1,69,79,0
1,59,0,6
1,69,0,1
1,64,0,0
1,40,0,4
1,59,73,37
1,40,61,1
1,64,96,0
1,69,96,0
1,59,0,73
1,69,0,4
1,40,0,1
1,64,0,0
1,64,79,18
1,69,79,1
1,40,57,0
1,59,49,0
1,64,0,4
1,59,0,1
1,69,0,3
1,40,0,1
1,64,102,38
1,59,73,0
1,40,61,0
1,68,90,0
1,40,0,168
1,59,0,0
1,64,0,1
1,68,0,3
1,59,53,19
1,69,79,1
1,64,90,0
1,40,53,0
1,59,0,5
1,69,0,0
1,64,0,1
1,40,0,4
1,69,96,37
1,59,73,1
1,64,96,0
1,40,61,1
1,59,0,73
1,69,0,3
1,64,0,1
1,40,0,1
1,64,79,16
1,59,49,0
1,40,57,0
1,69,79,1
1,64,0,5
1,59,0,1
1,69,0,3
1,40,0,1
1,68,90,37
1,64,102,1
1,59,73,0
1,40,61,0
1,59,0,168
1,40,0,1
1,64,0,2
1,68,0,1
1,69,79,20
1,59,53,0
1,64,90,0
1,40,53,0
1,59,0,5
1,69,0,0
1,64,0,1
1,40,0,5
1,40,61,36
1,64,96,0
1,59,73,0
1,69,96,0
1,59,0,74
1,69,0,4
1,40,0,0
1,64,0,0
1,64,79,18
1,69,79,0
1,59,49,0
1,40,57,0
1,64,0,6
1,59,0,1
1,69,0,2
1,40,0,2
1,59,73,37
1,64,102,0
1,68,90,1
1,40,61,0
1,59,0,167
1,40,0,1
1,64,0,1
1,68,0,3
1,40,53,19
1,69,79,0
1,59,53,1
1,64,90,0
1,59,0,6
1,69,0,0
1,64,0,1
1,40,0,2
1,64,96,38
1,59,73,0
1,40,61,0
1,69,96,1
1,59,0,73
1,40,0,4
1,64,0,0
1,69,0,1
1,59,49,18
1,64,79,0
1,40,57,0
1,69,79,1
1,64,0,5
1,59,0,1
1,69,0,4
1,40,0,0
1,64,102,36
1,40,61,0
1,68,90,0
1,59,73,1
1,59,0,169
1,40,0,0
1,64,0,0
1,68,0,2
1,69,79,20
1,64,90,0
1,40,53,0
1,59,53,1
1,69,0,5
1,64,0,1
1,59,0,0
1,40,0,4
1,40,61,37
1,59,73,0
1,69,96,0
1,64,96,0
1,59,0,74
1,69,0,4
1,40,0,0
1,64,0,0
1,40,57,19
1,59,49,1
1,64,79,0
1,69,79,0
1,59,0,6
1,64,0,0
1,69,0,3
1,40,0,0
1,59,73,38
1,64,102,0
1,68,90,0
1,40,61,0
1,59,0,168
1,40,0,1
1,64,0,1
1,68,0,2
1,64,90,19
1,69,79,1
1,59,53,0
1,40,53,0
1,59,0,5
1,69,0,0
1,64,0,1
1,40,0,5
1,64,96,36
1,40,61,1
1,69,96,0
1,59,73,0
1,59,0,74
1,69,0,3
1,64,0,0
1,40,0,1
1,40,57,19
1,59,49,0
1,69,79,0
1,64,79,1
1,59,0,6
1,64,0,0
1,69,0,1
1,40,0,1
1,59,73,37
1,68,90,1
1,40,61,0
1,64,102,0
1,59,0,167
1,40,0,1
1,64,0,2
1,68,0,1
1,59,53,21
1,69,79,1
1,40,53,1
1,64,90,0
1,59,0,5
1,69,0,0
1,64,0,1
1,40,0,3
1,64,96,36
1,40,61,1
1,69,96,0
1,59,73,0
1,59,0,74
1,69,0,3
1,64,0,0
1,40,0,1
1,64,79,17
1,59,49,1
1,69,79,1
1,40,57,0
1,64,0,5
1,59,0,1
1,69,0,3
1,40,0,1
1,54,109,36
1,61,115,1
1,64,109,2
1,57,121,0
1,54,0,379
1,61,0,1
1,64,0,2
1,57,0,0
1,64,102,0
1,61,102,1
1,57,102,0
1,54,102,0
1,64,0,380
1,57,0,1
1,61,0,1
1,54,0,0
1,40,61,1536
1,64,102,1
1,59,73,0
1,68,90,0
1,40,0,167
1,59,0,1
1,64,0,2
1,68,0,3
1,59,53,20
1,69,79,0
1,64,90,0
1,40,53,0
1,59,0,5
1,69,0,0
1,64,0,1
1,40,0,3
1,64,96,37
1,59,73,0
1,69,96,0
1,40,61,0
1,59,0,74
1,69,0,4
1,64,0,0
1,40,0,0
1,64,79,18
1,40,57,0
1,59,49,1
1,69,79,0
1,64,0,5
1,59,0,2
1,69,0,2
1,40,0,1
1,59,73,37
1,64,102,0
1,68,90,1
1,40,61,0
1,59,0,167
1,40,0,1
1,64,0,1
1,68,0,3
1,40,53,20
1,64,90,1
1,59,53,0
1,69,79,1
1,59,0,4
1,64,0,1
1,69,0,0
1,40,0,3
1,40,61,37
1,69,96,1
1,64,96,0
1,59,73,1
1,59,0,75
1,69,0,1
1,40,0,0
1,64,0,0
1,59,49,18
1,69,79,0
1,40,57,1
1,64,79,1
1,64,0,5
1,59,0,0
1,69,0,2
1,40,0,1
1,64,102,39
1,40,61,1
1,68,90,0
1,59,73,0
1,40,0,166
1,59,0,1
1,64,0,2
1,68,0,2
1,40,53,19
1,64,90,0
1,59,53,1
1,69,79,0
1,59,0,6
1,69,0,0
1,64,0,0
1,40,0,3
1,64,96,39
1,40,61,1
1,69,96,0
1,59,73,0
1,59,0,73
1,69,0,3
1,40,0,1
1,64,0,1
1,40,57,17
1,64,79,0
1,69,79,0
1,59,49,0
1,64,0,6
1,59,0,1
1,69,0,1
1,40,0,1
1,64,102,38
1,68,90,1
1,59,73,0
1,40,61,0
1,59,0,168
1,40,0,0
1,64,0,1
1,68,0,4
1,69,79,18
1,40,53,1
1,64,90,0
1,59,53,0
1,69,0,5
1,59,0,1
1,64,0,0
1,40,0,3
1,59,73,38
1,40,61,1
1,64,96,0
1,69,96,0
1,59,0,73
1,69,0,4
1,40,0,1
1,64,0,0
1,40,57,18
1,64,79,1
1,69,79,0
1,59,49,0
1,64,0,5
1,59,0,1
1,69,0,2
1,40,0,1
1,59,73,38
1,64,102,0
1,68,90,0
1,40,61,1
1,59,0,167
1,40,0,0
1,64,0,2
1,68,0,3
1,69,79,18
1,40,53,0
1,64,90,0
1,59,53,1
1,69,0,5
1,59,0,1
1,64,0,0
1,40,0,4
1,59,73,37
1,69,96,0
1,40,61,0
1,64,96,2
1,59,0,73
1,69,0,3
1,40,0,0
1,64,0,2
1,69,79,18
1,40,57,0
1,64,79,0
1,59,49,0
1,64,0,5
1,59,0,1
1,69,0,2
1,40,0,1
1,40,61,37
1,64,102,1
1,59,73,1
1,68,90,0
1,59,0,167
1,40,0,1
1,64,0,2
1,68,0,1
1,64,90,19
1,40,53,1
1,69,79,1
1,59,53,0
1,59,0,5
1,69,0,0
1,64,0,0
1,40,0,3
1,64,96,39
1,59,73,1
1,69,96,0
1,40,61,0
1,59,0,73
1,69,0,3
1,64,0,1
1,40,0,0
1,64,79,18
1,59,49,1
1,69,79,0
1,40,57,0
1,64,0,4
1,59,0,2
1,69,0,3
1,40,0,0
1,68,90,38
1,59,73,0
1,64,102,1
1,40,61,1
1,59,0,166
1,40,0,1
1,64,0,2
1,68,0,1
1,40,53,19
1,69,79,1
1,64,90,0
1,59,53,0
1,59,0,6
1,69,0,1
1,64,0,0
1,40,0,3
1,69,96,38
1,59,73,0
1,40,61,0
1,64,96,1
1,59,0,73
1,69,0,3
1,40,0,1
1,64,0,1
1,69,79,17
1,40,57,0
1,59,49,0
1,64,79,0
1,64,0,7
1,59,0,0
