track,note,velocity,time
1,60,71,664
1,38,119,192
1,38,121,94
1,38,124,46
1,37,102,0
1,61,104,0
1,59,104,0
1,56,104,0
1,52,104,0
1,66,103,0
1,38,80,0
1,35,106,0
1,55,67,0
1,38,50,46
1,68,94,34
1,38,84,6
1,44,71,0
1,38,76,46
1,66,96,4
1,39,105,12
1,44,114,0
1,38,50,46
1,64,91,34
1,38,86,9
1,35,112,0
1,44,74,0
1,38,93,46
1,61,90,34
1,35,117,8
1,38,102,0
1,44,49,0
1,38,93,46
1,38,53,22
1,38,93,22
1,44,68,0
1,38,88,46
1,39,105,39
1,44,118,0
1,38,59,46
1,38,85,46
1,44,58,0
1,38,91,46
1,66,96,34
1,35,112,12
1,38,97,0
1,44,54,0
1,38,35,46
1,68,89,34
1,38,86,3
1,44,66,0
1,38,87,46
1,66,94,0
1,39,107,12
1,44,108,0
1,38,50,46
1,64,87,34
1,38,86,10
1,35,114,0
1,44,73,0
1,38,88,46
1,61,83,34
1,38,96,10
1,35,127,0
1,44,60,0
1,38,50,46
1,38,89,46
1,44,74,0
1,38,91,0
1,73,101,6
1,39,103,4
1,44,116,0
1,38,90,9
1,38,60,2
1,38,90,8
1,44,68,0
1,38,92,13
1,61,104,8
1,52,104,0
1,59,127,1
1,66,90,3
1,57,104,1
1,66,96,8
1,33,115,1
1,35,111,0
1,38,104,0
1,44,51,0
1,38,50,46
1,68,92,1
1,38,89,12
1,44,67,0
1,38,92,46
1,66,105,2
1,39,106,12
1,44,114,0
1,38,50,46
1,64,86,4
1,38,94,7
1,35,114,0
1,44,77,0
1,38,97,6
1,61,85,34
1,38,103,9
1,35,116,0
1,44,63,0
1,64,96,8
1,38,50,26
1,38,90,46
1,44,54,0
1,38,85,6
1,39,106,46
1,44,118,0
1,38,50,46
1,38,85,46
1,44,70,0
1,38,93,46
1,66,98,11
1,35,116,12
1,44,58,0
1,59,96,3
1,38,50,19
1,68,96,0
1,38,82,12
1,44,65,0
1,38,90,46
1,66,96,7
1,39,109,12
1,44,117,0
1,38,50,46
1,64,90,1
1,35,116,12
1,38,88,0
1,44,73,0
1,38,92,46
1,61,85,34
1,38,102,10
1,35,122,0
1,44,58,0
1,38,50,22
1,38,93,60
1,44,60,0
1,38,95,6
1,54,104,33
1,39,107,13
1,44,118,0
1,38,93,46
1,38,69,22
1,38,87,0
1,44,72,0
1,38,94,46
1,66,93,0
1,61,104,2
1,37,102,0
1,59,104,0
1,38,80,0
1,35,106,0
1,44,67,0
1,52,104,0
1,66,100,2
1,56,104,1
1,38,50,43
1,68,90,0
1,38,84,0
1,44,71,0
1,38,76,12
1,66,96,2
1,39,105,12
1,44,114,0
1,38,50,0
1,64,88,12
1,64,100,0
1,38,86,4
1,35,112,0
1,44,74,0
1,38,93,46
1,61,84,34
1,61,93,0
1,35,117,3
1,38,102,0
1,44,49,0
1,38,50,46
1,38,93,46
1,44,68,0
1,38,88,38
1,39,105,46
1,44,118,0
1,38,50,46
1,38,85,46
1,44,58,0
1,38,91,46
1,66,93,34
1,35,112,9
1,38,97,0
1,44,54,0
1,66,98,1
1,38,50,22
1,68,93,0
1,38,86,4
1,44,66,0
1,38,87,24
1,66,98,0
1,39,107,0
1,44,108,0
1,38,50,22
1,64,94,34
1,64,98,3
1,38,86,5
1,35,114,0
1,44,73,0
1,38,88,46
1,61,85,2
1,38,96,12
1,35,127,0
1,44,60,0
1,61,96,0
1,38,50,44
1,76,88,41
1,38,89,5
1,44,74,0
1,76,104,0
1,38,91,10
1,76,116,6
1,37,98,6
1,39,103,0
1,44,116,0
1,38,50,7
1,38,90,28
1,44,68,0
1,76,96,8
1,38,92,0
1,59,127,4
1,66,90,1
1,61,104,1
1,52,104,0
1,57,104,2
1,33,113,4
1,35,111,0
1,38,104,0
1,44,51,0
1,38,50,18
1,76,112,14
1,68,94,3
1,76,93,2
1,38,89,3
1,44,67,0
1,38,92,2
1,66,92,0
1,39,106,12
1,44,114,0
1,38,50,46
1,64,83,4
1,38,94,12
1,35,114,0
1,44,77,0
1,38,97,46
1,61,77,34
1,38,103,6
1,35,116,0
1,44,63,0
1,38,50,46
1,38,90,4
1,44,54,0
1,61,90,9
1,38,85,37
1,39,106,44
1,44,118,0
1,38,50,46
1,38,85,1
1,44,70,0
1,38,93,0
1,38,104,8
1,35,116,0
1,44,58,0
1,71,85,4
1,38,50,39
1,38,82,46
1,44,65,0
1,38,90,46
1,39,109,36
1,44,117,0
1,38,50,46
1,68,90,27
1,35,116,15
1,38,88,0
1,44,73,0
1,68,90,25
1,38,92,12
1,68,92,31
1,38,102,5
1,35,122,0
1,44,58,0
1,50,93,2
1,38,50,8
1,66,83,9
1,38,93,4
1,44,60,0
1,66,75,27
1,38,95,3
1,39,107,46
1,44,118,0
1,64,92,8
1,38,50,3
1,38,87,15
1,44,72,0
1,64,97,8
1,38,94,38
1,28,113,5
1,59,104,0
1,56,104,0
1,54,104,0
1,52,104,0
1,38,80,0
1,35,106,0
1,55,99,0
1,38,50,21
1,64,90,20
1,38,84,26
1,44,71,0
1,38,76,46
1,39,105,46
1,44,114,0
1,38,50,46
1,38,86,46
1,35,112,0
1,44,74,0
1,38,93,46
1,35,117,46
1,38,102,0
1,44,49,0
1,38,50,46
1,38,93,46
1,44,68,0
1,38,88,46
1,35,92,2
1,39,105,0
1,44,118,0
1,38,50,46
1,37,100,3
1,38,85,0
1,44,58,0
1,38,91,46
1,40,115,15
1,35,112,0
1,38,97,0
1,44,54,0
1,38,50,46
1,38,86,46
1,44,66,0
1,38,87,46
1,39,107,46
1,44,108,0
1,38,50,46
1,68,73,44
1,38,86,2
1,35,114,0
1,44,73,0
1,38,88,28
1,68,85,0
1,38,96,22
1,35,127,0
1,44,60,0
1,68,90,1
1,38,50,45
1,66,93,18
1,38,89,3
1,44,74,0
1,38,91,46
1,39,103,46
1,44,116,0
1,38,93,14
1,66,86,9
1,38,51,13
1,38,90,22
1,44,68,0
1,64,88,10
1,38,92,10
1,61,104,7
1,52,104,2
1,56,104,1
1,37,111,0
1,35,111,0
1,38,104,0
1,44,51,0
1,59,104,0
1,64,85,4
1,38,50,42
1,38,89,46
1,44,67,0
1,64,85,20
1,38,92,12
1,39,106,46
1,44,114,0
1,38,50,46
1,38,94,46
1,35,114,0
1,44,77,0
1,38,97,46
1,38,103,46
1,35,116,0
1,44,63,0
1,38,50,46
1,38,90,14
1,44,54,0
1,38,85,46
1,32,109,3
1,39,106,0
1,44,118,0
1,38,50,46
1,35,109,7
1,38,85,0
1,44,70,0
1,38,93,46
1,37,111,8
1,38,104,0
1,35,116,0
1,44,58,0
1,38,50,46
1,38,82,46
1,44,65,0
1,38,90,46
1,39,109,46
1,44,117,0
1,38,50,46
1,61,85,41
1,35,116,5
1,38,88,0
1,44,73,0
1,38,92,5
1,68,90,2
1,38,102,13
1,35,122,0
1,44,58,0
1,68,92,12
1,38,50,34
1,38,93,3
1,44,60,0
1,66,91,1
1,38,95,24
1,66,89,13
1,37,111,16
1,39,107,0
1,44,118,0
1,38,50,46
1,64,91,37
1,38,87,5
1,44,72,0
1,64,85,19
1,38,94,5
1,63,104,3
1,54,104,0
1,59,104,0
1,35,109,6
1,38,80,0
1,35,106,0
1,44,67,0
1,38,50,46
1,66,79,12
1,38,84,9
1,44,71,0
1,38,76,46
1,66,89,34
1,39,105,9
1,44,114,0
1,38,50,46
1,66,85,41
1,38,86,5
1,35,112,0
1,44,74,0
1,38,93,46
1,35,117,46
1,38,102,0
1,44,49,0
1,38,50,46
1,68,76,0
1,38,93,13
1,44,68,0
1,38,88,46
1,39,105,46
1,44,118,0
1,38,50,46
1,66,83,6
1,38,85,15
1,44,58,0
1,64,55,2
1,38,91,8
1,33,109,4
1,57,104,0
1,35,112,0
1,38,97,0
1,44,54,0
1,61,104,1
1,52,104,0
1,61,81,4
1,38,50,42
1,38,50,22
1,38,86,22
1,44,66,0
1,38,87,46
1,39,107,46
1,44,108,0
1,38,50,9
1,68,63,42
1,38,86,4
1,35,114,0
1,44,73,0
1,68,75,28
1,38,88,1
1,38,96,25
1,35,127,0
1,44,60,0
1,68,85,0
1,38,50,46
1,38,89,6
1,44,74,0
1,66,84,1
1,38,91,22
1,66,90,1
1,39,103,45
1,44,116,0
1,64,85,8
1,38,50,3
1,38,90,46
1,44,68,0
1,38,92,46
1,59,104,10
1,52,104,0
1,56,104,1
1,64,86,3
1,40,107,10
1,35,111,0
1,38,104,0
1,44,51,0
1,38,50,46
1,38,89,46
1,44,67,0
1,38,92,7
1,64,85,8
1,39,106,38
1,44,114,0
1,38,50,46
1,38,94,46
1,35,114,0
1,44,77,0
1,38,97,46
1,38,103,2
1,35,116,0
1,44,63,0
1,38,50,46
1,57,104,43
1,38,90,2
1,44,54,0
1,38,85,46
1,35,102,8
1,39,106,0
1,44,118,0
1,38,50,46
1,37,111,9
1,38,85,0
1,44,70,0
1,38,93,46
1,56,104,30
1,40,104,6
1,38,104,0
1,35,116,0
1,44,58,0
1,38,50,46
1,38,82,46
1,44,65,0
1,38,90,46
1,39,109,46
1,44,117,0
1,38,50,46
1,68,72,37
1,35,116,9
1,38,88,0
1,44,73,0
1,68,83,33
1,38,92,4
1,38,102,30
1,35,122,0
1,44,58,0
1,68,79,0
1,38,50,46
1,66,57,13
1,38,93,5
1,44,60,0
1,66,87,12
1,38,95,5
1,39,107,46
1,44,118,0
1,64,59,3
1,38,50,15
1,38,87,46
1,44,72,0
1,66,83,0
1,38,94,1
1,61,104,0
1,59,104,0
1,56,104,1
1,52,104,0
1,37,109,18
1,38,80,0
1,35,106,0
1,44,67,0
1,38,50,46
1,64,79,4
1,38,84,10
1,44,71,0
1,38,76,46
1,39,105,46
1,44,114,0
1,38,50,6
1,64,79,18
1,38,86,28
1,35,112,0
1,44,74,0
1,38,93,46
1,35,117,46
1,38,102,0
1,44,49,0
1,38,93,46
1,38,69,22
1,38,93,22
1,44,68,0
1,38,88,46
1,32,105,3
1,39,105,0
1,44,118,0
1,38,50,46
1,35,107,6
1,38,85,0
1,44,58,0
1,38,91,46
1,37,111,15
1,35,112,0
1,38,97,0
1,44,54,0
1,38,50,46
1,38,86,46
1,44,66,0
1,38,87,46
1,39,107,46
1,44,108,0
1,38,50,46
1,61,87,39
1,38,86,7
1,35,114,0
1,44,73,0
1,68,87,9
1,38,88,2
1,38,96,21
1,35,127,0
1,44,60,0
1,68,90,2
1,38,50,44
1,66,87,9
1,38,89,10
1,44,74,0
1,66,90,27
1,38,91,2
1,39,103,46
1,44,116,0
1,38,50,46
1,64,93,7
1,38,90,12
1,44,68,0
1,38,92,46
1,63,104,9
1,54,104,0
1,59,104,2
1,64,93,2
1,35,111,7
1,35,111,0
1,38,104,0
1,44,51,0
1,38,50,46
1,66,89,5
1,38,89,2
1,44,67,0
1,38,92,46
1,66,84,34
1,39,106,7
1,44,114,0
1,38,50,46
1,75,87,12
1,71,87,0
1,66,87,0
1,38,94,0
1,35,114,0
1,44,77,0
1,66,94,1
1,38,97,2
1,38,103,15
1,35,116,0
1,44,63,0
1,38,50,32
1,38,90,46
1,44,54,0
1,68,82,2
1,38,85,4
1,35,111,8
1,39,106,0
1,44,118,0
1,38,50,25
1,66,81,1
1,38,85,11
1,44,70,0
1,64,88,8
1,38,93,9
1,33,113,0
1,73,79,0
1,69,79,0
1,64,79,0
1,38,104,0
1,35,116,0
1,44,58,0
1,61,104,1
1,52,104,1
1,57,104,3
1,61,93,6
1,38,50,4
1,38,82,39
1,44,65,0
1,38,90,46
1,39,109,46
1,44,117,0
1,38,50,20
1,61,92,58
1,35,116,12
1,38,88,0
1,44,73,0
1,68,94,13
1,38,92,4
1,38,102,22
1,35,122,0
1,44,58,0
1,68,98,3
1,38,50,43
1,66,94,1
1,38,93,6
1,44,60,0
1,66,87,13
1,38,95,1
1,39,107,46
1,44,118,0
1,64,91,3
1,38,50,15
1,64,83,5
1,38,87,5
1,44,72,0
1,38,94,8
1,56,104,1
1,52,104,0
1,59,104,1
1,40,113,9
1,38,80,0
1,35,106,0
1,44,67,0
1,38,50,46
1,64,83,16
1,69,94,13
1,38,84,0
1,44,71,0
1,38,76,46
1,39,105,46
1,44,114,0
1,38,50,10
1,64,88,4
1,38,86,0
1,35,112,0
1,44,74,0
1,38,93,33
1,59,88,6
1,35,117,0
1,38,102,0
1,44,49,0
1,38,50,32
1,38,93,46
1,44,68,0
1,38,88,46
1,57,104,7
1,35,103,3
1,39,105,0
1,44,118,0
1,38,50,46
1,37,111,17
1,38,85,0
1,44,58,0
1,38,91,46
1,56,104,6
1,40,115,8
1,35,112,0
1,38,97,0
1,44,54,0
1,38,50,39
1,38,86,46
1,44,66,0
1,38,87,31
1,39,107,46
1,44,108,0
1,38,50,29
1,59,90,2
1,38,86,4
1,35,114,0
1,44,73,0
1,59,94,15
1,38,88,1
1,38,96,9
1,35,127,0
1,44,60,0
1,71,92,0
1,48,93,4
1,38,50,14
1,71,92,13
1,38,89,33
1,44,74,0
1,38,91,7
1,71,93,18
1,39,103,28
1,44,116,0
1,38,50,46
1,69,63,5
1,38,90,17
1,44,68,0
1,38,92,46
1,61,104,8
1,52,104,0
1,57,104,2
1,61,119,1
1,57,109,0
1,52,108,0
1,45,109,0
1,33,116,0
1,73,87,0
1,69,73,0
1,64,72,0
1,57,51,0
1,57,84,0
1,35,111,0
1,38,104,0
1,57,88,22
1,38,50,0
1,69,92,0
1,64,84,0
1,38,89,0
1,44,67,0
1,57,98,0
1,38,92,0
1,69,110,0
1,64,96,0
1,39,106,0
1,44,114,0
1,57,93,0
1,38,50,0
1,69,99,0
1,64,91,0
1,38,94,0
1,35,114,0
1,44,77,0
1,57,89,0
1,38,97,0
1,69,113,0
1,64,102,0
1,38,103,0
1,35,116,0
1,44,63,0
1,57,92,0
1,38,50,0
1,57,101,0
1,52,92,0
1,45,92,0
1,69,106,0
1,64,91,0
1,38,90,0
1,44,54,0
1,57,89,0
1,38,85,0
1,63,115,23
1,63,126,0
1,57,96,0
1,52,93,0
1,45,110,0
1,28,109,0
1,69,108,0
1,64,90,0
1,39,106,0
1,44,118,0
1,57,94,0
1,38,50,0
1,30,113,0
1,69,108,0
1,64,95,0
1,38,85,0
1,44,70,0
1,57,91,0
1,38,93,0
1,64,124,15
1,64,107,0
1,57,96,0
1,52,98,0
1,45,109,0
1,33,113,0
1,69,109,0
1,64,97,0
1,38,104,0
1,35,116,0
1,44,58,0
1,57,93,0
1,38,50,0
1,69,101,0
1,64,83,0
1,38,82,0
1,44,65,0
1,57,89,0
1,38,90,0
1,69,113,0
1,64,99,0
1,39,109,0
1,44,117,0
1,57,92,0
1,38,50,0
1,73,80,44
1,69,96,0
1,64,71,0
1,35,116,0
1,38,88,0
1,44,73,0
1,57,91,0
1,38,92,0
1,73,81,1
1,69,100,0
1,64,79,0
1,38,102,0
1,35,122,0
1,44,58,0
1,73,84,4
1,57,93,0
1,38,50,0
1,73,85,24
1,69,103,0
1,64,84,0
1,38,93,0
1,44,60,0
1,57,97,0
1,38,95,0
1,73,84,2
1,69,111,0
1,64,102,0
1,39,107,0
1,44,118,0
1,57,93,0
1,38,50,0
1,75,90,1
1,69,106,0
1,64,85,0
1,38,87,0
1,44,72,0
1,57,91,0
1,38,94,0
1,61,104,5
1,52,104,0
1,59,104,0
1,61,108,0
1,56,114,0
1,52,95,0
1,37,104,0
1,37,116,0
1,68,111,0
1,64,96,0
1,38,80,0
1,35,106,0
1,44,67,0
1,76,82,0
1,56,102,0
1,38,50,0
1,68,110,0
1,64,92,0
1,38,84,0
1,44,71,0
1,56,105,0
1,38,76,0
1,68,110,0
1,64,97,0
1,39,105,0
1,44,114,0
1,56,92,0
1,38,50,0
1,64,93,0
1,61,107,0
1,56,112,0
1,37,106,0
1,68,107,0
1,64,81,0
1,38,86,0
1,35,112,0
1,44,74,0
1,56,100,0
1,38,93,0
1,68,104,0
1,64,95,0
1,35,117,0
