track,note,velocity,time
1,28,84,1054
1,28,0,270
1,28,84,18
1,28,0,354
1,28,84,30
1,28,0,44
1,31,84,4
1,31,0,47
1,33,84,1
1,33,0,277
1,33,84,11
1,33,0,381
1,28,84,3
1,28,0,45
1,33,84,3
1,33,0,47
1,35,84,1
1,35,0,383
1,33,84,1
1,33,0,383
1,31,84,1
1,31,0,1536
1,35,74,3072
1,35,0,767
1,31,74,1
1,31,0,767
1,38,74,1
1,38,0,767
1,33,74,1
1,33,0,767
1,30,74,1
1,30,0,1344
1,35,74,192
1,35,0,192
1,35,74,96
1,35,0,288
1,31,74,192
1,31,0,240
1,31,74,48
1,31,0,288
1,33,74,96
1,33,0,47
1,35,74,1
1,35,0,47
1,38,74,1
1,38,0,192
1,38,74,96
1,38,0,6
1,28,74,1
1,28,0,43
1,33,74,1
1,33,0,240
1,33,74,48
1,33,0,287
1,34,74,1
1,34,0,144
1,35,74,48
1,35,0,192
1,35,74,96
1,35,0,288
1,31,74,192
1,31,0,240
1,31,74,48
1,31,0,288
1,33,74,96
1,33,0,47
1,35,74,1
1,35,0,47
1,38,74,1
1,38,0,192
1,38,74,96
1,38,0,0
1,28,74,1
1,28,0,47
1,33,74,1
1,33,0,240
1,33,74,48
1,33,0,240
1,33,74,48
1,33,0,9
1,30,74,1
1,30,0,1344
1,28,94,192
1,28,0,7
1,40,94,1
1,40,0,265
1,28,94,10
1,28,0,173
1,33,94,19
1,33,0,258
1,33,94,30
1,33,0,7
1,45,94,1
1,45,0,81
1,33,94,3
1,33,0,47
1,35,94,1
1,35,0,47
1,38,94,1
1,38,0,247
1,38,94,41
1,38,0,269
1,38,94,19
1,38,0,7
1,35,94,1
1,35,0,248
1,35,94,40
1,35,0,239
1,30,94,1
1,30,0,47
1,47,94,1
1,47,0,4
1,28,94,1
1,28,0,7
1,40,94,1
1,40,0,265
1,28,94,10
1,28,0,173
1,33,94,19
1,33,0,258
1,33,94,30
1,33,0,7
1,45,94,1
1,45,0,87
1,33,94,3
1,33,0,47
1,35,94,1
1,35,0,47
1,38,94,1
1,38,0,247
1,38,94,41
1,38,0,269
1,38,94,19
1,38,0,7
1,35,94,1
1,35,0,248
1,35,94,40
1,35,0,239
1,30,94,1
1,30,0,47
1,47,94,1
1,47,0,4
1,28,94,1
1,28,0,7
1,40,94,1
1,40,0,265
1,28,94,10
1,28,0,173
1,33,94,19
1,33,0,258
1,33,94,30
1,33,0,13
1,45,94,1
1,45,0,81
1,33,94,3
1,33,0,47
1,35,94,1
1,35,0,47
1,38,94,1
1,38,0,247
1,38,94,41
1,38,0,269
1,38,94,19
1,38,0,7
1,35,94,1
1,35,0,248
1,35,94,40
1,35,0,239
1,30,94,1
1,30,0,47
1,47,94,1
1,47,0,4
1,28,94,1
1,28,0,12
1,40,94,1
1,40,0,269
1,28,94,10
1,28,0,173
1,33,94,19
1,33,0,1535
1,35,74,1
1,35,0,192
1,35,74,96
1,35,0,288
1,31,74,192
1,31,0,240
1,31,74,48
1,31,0,288
1,33,74,96
1,33,0,47
1,35,74,1
1,35,0,47
1,38,74,1
1,38,0,192
1,38,74,96
1,38,0,0
1,28,74,1
1,28,0,47
1,33,74,1
1,33,0,672
1,35,74,96
1,35,0,192
1,35,74,96
1,35,0,288
1,31,74,192
1,31,0,240
1,31,74,48
1,31,0,288
1,33,74,96
1,33,0,47
1,35,74,1
1,35,0,47
1,38,74,1
1,38,0,192
1,38,74,96
1,38,0,0
1,28,74,1
1,28,0,47
1,33,74,1
1,33,0,240
1,33,74,48
1,33,0,287
1,34,74,1
1,34,0,144
1,35,74,48
1,35,0,192
1,35,74,96
1,35,0,288
1,31,74,192
1,31,0,240
1,31,74,48
1,31,0,288
1,33,74,96
1,33,0,47
1,35,74,1
1,35,0,47
1,38,74,1
1,38,0,192
1,38,74,96
1,38,0,6
1,28,74,1
1,28,0,43
1,33,74,1
1,33,0,240
1,33,74,48
1,33,0,240
1,33,74,48
1,33,0,9
1,30,74,1
1,30,0,767
1,28,94,1
1,28,0,7
1,40,94,1
1,40,0,265
1,28,94,10
1,28,0,173
1,33,94,19
1,33,0,258
1,33,94,30
1,33,0,7
1,45,94,1
1,45,0,81
1,33,94,3
1,33,0,47
1,35,94,1
1,35,0,47
1,38,94,1
1,38,0,247
1,38,94,41
1,38,0,269
1,38,94,19
1,38,0,7
1,35,94,1
1,35,0,248
1,35,94,40
1,35,0,239
1,30,94,1
1,30,0,47
1,47,94,1
1,47,0,4
1,28,94,1
1,28,0,7
1,40,94,1
1,40,0,265
1,28,94,10
1,28,0,173
1,33,94,19
1,33,0,258
1,33,94,30
1,33,0,7
1,45,94,1
1,45,0,87
1,33,94,3
1,33,0,47
1,35,94,1
1,35,0,47
1,38,94,1
1,38,0,247
1,38,94,41
1,38,0,269
1,38,94,19
1,38,0,7
1,35,94,1
1,35,0,248
1,35,94,40
1,35,0,239
1,30,94,1
1,30,0,47
1,47,94,1
1,47,0,4
1,28,94,1
1,28,0,7
1,40,94,1
1,40,0,265
1,28,94,10
1,28,0,173
1,33,94,19
1,33,0,258
1,33,94,30
1,33,0,13
1,45,94,1
1,45,0,81
1,33,94,3
1,33,0,47
1,35,94,1
1,35,0,47
1,38,94,1
1,38,0,247
1,38,94,41
1,38,0,269
1,38,94,19
1,38,0,7
1,35,94,1
1,35,0,248
1,35,94,40
1,35,0,239
1,30,94,1
1,30,0,47
1,47,94,1
1,47,0,4
1,28,94,1
1,28,0,12
1,40,94,1
1,40,0,269
1,28,94,10
1,28,0,173
1,33,94,19
1,33,0,432
1,33,94,146
1,33,0,4
1,30,94,1
1,30,0,0
1,42,94,1
1,42,0,265
1,30,94,10
1,30,0,173
1,35,94,19
1,35,0,258
1,35,94,30
1,35,0,7
1,47,94,1
1,47,0,81
1,35,94,3
1,35,0,47
1,37,94,1
1,37,0,47
1,40,94,1
1,40,0,247
1,40,94,41
1,40,0,269
1,40,94,19
1,40,0,7
1,37,94,1
1,37,0,248
1,37,94,40
1,37,0,239
1,32,94,1
1,32,0,47
1,49,94,1
1,49,0,4
1,30,94,1
1,30,0,0
1,42,94,1
1,42,0,265
1,30,94,10
1,30,0,173
1,35,94,19
1,35,0,258
1,35,94,30
1,35,0,7
1,47,94,1
1,47,0,87
1,35,94,3
1,35,0,47
1,37,94,1
1,37,0,47
1,40,94,1
1,40,0,247
1,40,94,41
1,40,0,269
1,40,94,19
1,40,0,7
1,37,94,1
1,37,0,248
1,37,94,40
1,37,0,239
1,32,94,1
1,32,0,47
1,49,94,1
1,49,0,4
1,30,94,1
1,30,0,0
1,42,94,1
1,42,0,265
1,30,94,10
1,30,0,173
1,35,94,19
1,35,0,258
1,35,94,30
1,35,0,13
1,47,94,1
1,47,0,81
1,35,94,3
1,35,0,47
1,37,94,1
1,37,0,47
1,40,94,1
1,40,0,247
1,40,94,41
1,40,0,269
1,40,94,19
1,40,0,7
1,37,94,1
1,37,0,248
1,37,94,40
1,37,0,239
1,32,94,1
1,32,0,47
1,49,94,1
1,49,0,4
1,30,94,1
1,30,0,217
1,30,80,23
1,30,0,13
1,30,94,35
1,30,0,191
1,32,94,1
1,32,0,95
1,33,94,1
1,33,0,95
1,37,94,1
1,37,0,95
1,35,94,1
1,35,0,767
1,33,94,1
1,33,0,129
1,33,94,15
1,33,0,623
1,32,84,1
1,32,0,767
1,31,78,1
1,31,0,5
2,66,127,828
2,64,127,100
2,66,0,7
2,64,0,556
2,59,93,11
2,59,0,91
2,66,127,5
2,64,127,96
2,66,0,12
2,64,0,562
2,55,93,2
2,55,0,88
2,66,127,8
2,64,127,96
2,66,0,9
2,64,0,182
2,62,120,1
2,57,93,384
2,62,0,1
2,57,0,92
2,66,127,3
2,64,127,96
2,66,0,4
2,64,0,764
2,71,69,0
2,67,63,48
2,71,0,10
2,62,55,134
2,67,0,6
2,71,60,186
2,62,0,13
2,35,70,467
2,47,67,0
2,59,72,0
2,62,73,0
2,66,75,0
2,69,76,0
2,71,0,0
2,66,0,120
2,59,0,1
2,57,69,39
2,62,0,21
2,69,0,6
2,64,79,69
2,57,0,23
2,64,0,127
2,35,0,54
2,47,0,4
2,31,69,272
2,43,60,0
2,57,61,0
2,59,69,0
2,62,64,0
2,62,0,59
2,57,0,11
2,59,0,0
2,43,0,8
2,31,0,7
2,55,61,75
2,55,0,17
2,74,70,79
2,74,0,15
2,38,57,465
2,50,58,0
2,57,65,0
2,62,62,0
2,66,61,0
2,69,79,0
2,50,0,114
2,38,0,8
2,69,0,4
2,66,0,5
2,62,0,7
2,57,0,11
2,50,52,11
2,50,0,40
2,57,55,8
2,57,0,30
2,64,84,18
2,64,0,17
2,57,49,169
2,57,0,34
2,54,26,66
2,54,0,16
2,52,54,145
2,57,59,4
2,33,62,9
2,45,53,0
2,59,71,9
2,57,0,19
2,52,0,2
2,59,0,11
2,33,0,26
2,45,0,9
2,57,48,87
2,57,0,22
2,76,70,77
2,76,0,23
2,50,86,449
2,54,86,0
2,57,86,0
2,50,0,764
2,54,0,0
2,57,0,0
2,55,86,4
2,57,86,0
2,62,86,0
2,55,0,764
2,57,0,0
2,62,0,0
2,54,86,4
2,57,86,0
2,62,86,0
2,54,0,764
2,57,0,0
2,62,0,0
2,52,86,4
2,57,86,0
2,61,86,0
2,52,0,764
2,57,0,0
2,61,0,0
2,66,15,9
2,67,22,96
2,66,0,5
2,66,31,91
2,67,0,10
2,67,38,86
2,66,0,6
2,66,41,90
2,67,0,8
2,67,39,88
2,66,0,5
2,66,33,91
2,67,0,17
2,67,27,79
2,66,0,3
2,66,16,93
2,67,0,8
2,66,0,462
2,66,15,74
2,66,0,166
2,35,79,58
2,47,79,0
2,54,79,0
2,57,79,0
2,62,79,0
2,54,0,48
2,62,0,12
2,57,0,6
2,35,0,7
2,47,0,9
2,69,66,110
2,69,0,30
2,76,89,66
2,76,0,57
2,69,65,39
2,69,0,16
2,31,78,368
2,43,78,0
2,55,78,0
2,59,78,0
2,62,78,0
2,31,0,526
2,43,0,0
2,55,0,0
2,59,0,0
2,62,0,0
2,62,73,0
2,70,90,47
2,74,92,2
2,70,0,1
2,71,87,0
2,62,0,3
2,69,73,38
2,71,0,4
2,69,0,47
2,67,66,7
2,74,0,17
2,68,62,24
2,66,62,4
2,69,62,0
2,74,62,0
2,67,0,1
2,68,0,4
2,38,63,43
2,50,63,0
2,62,63,0
2,38,0,96
2,50,0,0
2,62,0,0
2,66,0,0
2,69,0,0
2,74,0,0
2,81,79,193
2,81,0,45
2,33,74,434
2,45,74,0
2,57,74,0
2,61,74,0
2,64,74,0
2,64,0,15
2,61,0,2
2,57,0,9
2,33,0,2
2,45,0,0
2,76,80,201
2,76,0,13
2,34,74,275
2,46,74,0
2,58,74,0
2,61,74,0
2,66,74,0
2,61,0,14
2,58,0,2
2,66,0,0
2,34,0,2
2,46,0,2
2,35,79,121
2,47,79,0
2,54,79,0
2,57,79,0
2,62,79,0
2,54,0,12
2,62,0,12
2,57,0,6
2,35,0,7
2,47,0,9
2,78,73,110
2,78,0,57
2,73,65,39
2,73,0,16
2,78,71,272
2,78,0,57
2,71,64,39
2,71,0,16
2,31,78,80
2,43,78,0
2,55,78,0
2,59,78,0
2,62,78,0
2,31,0,48
2,43,0,0
2,55,0,0
2,59,0,0
2,62,0,0
2,62,70,431
2,62,0,29
2,62,45,66
2,62,0,18
2,62,54,29
2,62,0,33
2,57,69,20
2,57,0,32
2,38,54,14
2,50,54,0
2,62,54,0
2,66,54,0
2,69,54,0
2,74,54,0
2,62,0,48
2,66,0,0
2,69,0,0
2,74,0,0
2,57,84,96
2,62,86,0
2,64,88,0
2,64,0,48
2,66,59,0
2,66,0,35
2,57,0,8
2,62,0,0
2,57,14,5
2,62,43,0
2,64,52,0
2,57,0,96
2,62,0,0
2,64,0,0
2,38,0,379
2,50,0,0
2,33,74,5
2,45,74,0
2,57,74,0
2,61,74,0
2,64,74,0
2,64,0,15
2,61,0,2
2,57,0,9
2,33,0,2
2,45,0,0
2,76,80,201
2,76,0,13
2,52,52,179
2,57,58,0
2,52,0,66
2,57,0,2
2,52,54,28
2,57,66,0
2,64,86,48
2,57,0,7
2,64,0,57
2,54,55,32
2,52,0,13
2,66,48,35
2,54,0,1
2,66,0,95
2,67,57,0
2,66,66,96
2,67,0,0
2,66,0,96
2,67,76,0
2,66,85,96
2,67,0,0
2,66,0,96
2,67,76,0
2,66,66,96
2,67,0,0
2,66,0,96
2,67,57,0
2,66,48,96
2,67,0,0
2,62,83,288
2,67,89,0
2,67,0,58
2,66,0,37
2,30,67,1
2,42,64,0
2,61,87,0
2,66,93,0
2,62,0,10
2,61,0,69
2,61,54,17
2,66,0,0
2,42,0,3
2,61,0,30
2,42,69,15
2,61,96,48
2,66,87,0
2,42,0,77
2,61,0,15
2,42,54,4
2,61,40,0
2,61,0,76
2,30,0,4
2,66,0,1
2,42,0,8
2,40,76,7
2,52,100,0
2,55,105,0
2,59,105,0
2,62,105,0
2,55,0,84
2,55,69,44
2,52,0,13
2,59,0,7
2,55,0,1
2,62,0,7
2,52,81,20
2,64,100,48
2,67,95,0
2,71,100,0
2,74,93,0
2,52,0,62
2,64,0,27
2,67,0,4
2,52,74,3
2,74,0,9
2,71,0,1
2,71,102,86
2,74,100,0
2,79,102,0
2,40,0,72
2,52,0,25
2,71,0,5
2,74,0,0
2,79,0,0
2,45,72,3
2,57,93,0
2,62,100,0
2,67,102,0
2,71,105,0
2,45,0,31
2,45,68,20
2,57,0,4
2,62,0,7
2,67,0,0
2,71,0,1
2,57,76,36
2,62,91,0
2,67,87,0
2,71,100,0
2,62,0,36
2,67,0,8
2,71,0,9
2,57,0,18
2,57,57,25
2,67,97,48
2,71,100,0
2,74,89,0
2,79,91,0
2,57,0,43
2,57,57,53
2,67,0,7
2,79,0,34
2,67,69,7
2,45,0,1
2,74,0,9
2,71,0,27
2,67,0,4
2,45,62,7
2,57,0,2
2,57,100,46
2,67,100,48
2,71,100,0
2,74,95,0
2,79,95,0
2,57,0,39
2,45,0,21
2,67,0,1
2,79,0,24
2,67,65,11
2,74,0,5
2,67,0,5
2,71,0,1
2,38,77,6
2,50,100,0
2,57,100,0
2,64,105,0
2,66,100,0
2,57,0,28
2,57,82,39
2,38,0,1
2,50,0,36
2,66,0,6
2,38,59,5
2,64,0,39
2,50,68,9
2,57,0,4
2,57,100,44
2,62,102,0
2,66,105,0
2,50,0,70
2,50,84,26
2,57,0,26
2,57,89,22
2,66,0,20
2,62,0,9
2,38,0,4
2,50,0,11
2,38,63,4
2,57,0,0
2,50,59,48
2,57,104,48
2,64,104,0
2,66,104,0
2,50,0,26
2,50,77,22
2,62,89,48
2,64,0,7
2,38,0,4
2,50,0,7
2,62,0,15
2,66,0,3
2,57,0,1
2,47,103,2
2,59,103,0
2,62,103,0
2,66,103,0
2,69,103,0
2,62,0,47
2,62,79,26
2,47,0,6
2,66,0,18
2,62,0,7
2,69,0,10
2,59,0,2
2,47,62,5
2,59,61,48
2,78,91,48
2,81,91,0
2,86,91,0
2,59,0,59
2,59,69,37
2,86,0,24
2,81,0,22
2,78,0,6
2,74,80,44
2,78,80,0
2,81,80,0
2,59,0,85
2,59,70,11
2,74,0,49
2,47,0,36
2,59,0,1
2,78,0,5
2,74,59,5
2,81,0,0
2,74,0,13
2,40,88,83
2,52,97,0
2,59,106,0
2,62,109,0
2,67,103,0
2,59,0,48
2,59,74,25
2,40,0,8
2,67,0,3
2,62,0,1
2,52,0,26
2,59,0,8
2,40,52,2
2,40,0,36
2,40,77,60
2,52,103,0
2,59,109,0
2,62,117,0
2,67,100,0
2,59,0,158
2,59,62,37
2,67,0,0
2,62,0,5
2,40,0,1
2,52,0,25
2,40,63,17
2,59,0,9
2,52,97,39
2,59,103,48
2,62,106,0
2,67,97,0
2,52,0,22
2,40,0,23
2,52,86,3
2,67,0,12
2,59,0,4
2,52,0,2
2,62,0,14
2,45,71,16
2,57,103,0
