track,note,velocity,time
1,40,69,24573
1,40,0,548
1,40,84,35
1,33,87,188
1,40,0,8
1,33,0,216
1,33,78,64
1,33,0,36
1,33,87,60
1,33,0,243
1,33,89,46
1,33,0,63
1,30,88,32
1,30,0,223
1,30,58,67
1,30,0,38
1,30,93,57
1,30,0,48
1,30,74,48
1,30,0,145
1,30,72,42
1,30,0,76
1,38,94,25
1,38,0,234
1,38,68,54
1,38,0,42
1,38,94,55
1,38,0,230
1,38,84,56
1,38,0,87
1,33,84,9
1,33,0,246
1,33,66,42
1,33,0,44
1,33,84,52
1,33,0,50
1,33,98,48
1,33,0,147
1,33,82,43
1,33,0,82
1,30,79,15
1,30,0,216
1,30,56,71
1,30,0,32
1,30,90,65
1,30,0,47
1,30,77,49
1,30,0,145
1,30,90,49
1,30,0,82
1,38,73,13
1,38,0,211
1,38,68,77
1,38,0,48
1,38,82,46
1,38,0,49
1,38,89,47
1,38,0,136
1,38,72,56
1,36,72,2
1,36,0,11
1,38,0,57
1,28,89,24
1,28,0,257
1,28,64,32
1,28,0,57
1,28,82,39
1,28,0,51
1,28,87,45
1,28,0,161
1,28,68,31
1,28,0,52
1,28,85,44
1,28,0,54
1,28,89,41
1,28,0,169
1,28,72,25
1,28,0,59
1,28,78,38
1,28,0,51
1,28,84,43
1,28,0,94
1,30,80,1
1,28,82,96
1,30,0,4
1,28,0,87
1,30,90,8
1,30,0,224
1,30,70,62
1,30,0,44
1,30,86,55
1,33,70,95
1,30,0,6
1,33,0,181
1,37,82,6
1,37,0,89
1,38,84,7
1,38,0,232
1,38,85,52
1,38,0,130
1,38,85,63
1,38,0,144
1,38,82,50
1,38,0,83
1,33,89,10
1,33,0,241
1,33,64,49
1,33,0,40
1,33,84,56
1,33,0,40
1,33,91,56
1,33,0,138
1,33,79,54
1,33,0,86
1,28,85,9
1,28,0,240
1,28,79,48
1,28,0,98
1,40,79,0
1,40,0,56
1,40,82,38
1,40,0,190
1,28,84,2
1,28,0,68
1,30,93,30
1,30,0,228
1,30,73,57
1,30,0,43
1,30,100,56
1,30,0,46
1,30,105,49
1,33,71,97
1,30,0,8
1,37,90,86
1,33,0,3
1,37,0,91
1,38,85,2
1,38,0,233
1,38,72,56
1,38,0,51
1,38,87,48
1,38,0,46
1,38,92,48
1,38,0,135
1,38,82,59
1,38,0,56
1,28,94,38
1,40,74,287
1,28,0,140
1,28,78,48
1,40,0,125
1,40,68,68
1,28,0,174
1,28,74,21
1,40,0,92
1,40,67,197
1,28,0,21
1,28,38,73
1,40,0,19
1,28,0,69
1,40,89,6
1,28,71,94
1,40,0,26
1,28,0,64
1,33,92,12
1,33,0,247
1,33,94,39
1,33,0,185
1,33,74,9
1,33,0,137
1,33,82,52
1,33,0,96
1,38,58,1
1,38,0,253
1,38,62,34
1,38,0,60
1,38,79,37
1,38,0,56
1,38,81,40
1,38,0,163
1,38,96,30
1,38,0,53
1,33,85,41
1,33,0,268
1,33,79,23
1,33,0,56
1,33,94,41
1,33,0,48
1,33,94,45
1,33,0,153
1,33,89,41
1,33,0,74
1,28,79,19
1,28,0,256
1,28,55,34
1,28,0,52
1,28,85,45
1,28,0,45
1,28,91,48
1,30,100,99
1,28,0,2
1,30,0,85
1,28,76,6
1,28,0,75
1,33,87,27
1,33,0,224
1,33,60,55
1,33,0,74
1,33,75,25
1,33,0,53
1,33,82,43
1,33,0,187
1,37,105,5
1,37,0,102
1,38,87,0
1,38,0,230
1,38,60,52
1,38,0,50
1,38,85,47
1,38,0,49
1,38,82,47
1,38,0,164
1,38,85,29
1,38,0,62
1,33,74,35
1,33,0,235
1,33,62,55
1,33,0,49
1,33,73,44
1,33,0,55
1,33,81,39
1,33,0,147
1,33,82,47
1,33,0,77
1,28,84,18
1,28,0,259
1,28,73,31
1,40,71,96
1,28,0,45
1,28,71,50
1,40,0,265
1,28,0,2
1,30,93,21
1,30,0,232
1,30,58,54
1,30,0,45
1,30,90,55
1,30,0,46
1,30,82,48
1,32,82,97
1,30,0,2
1,32,0,78
1,33,78,16
1,38,85,98
1,33,0,12
1,38,0,223
1,38,70,50
1,38,0,53
1,38,81,44
1,38,0,46
1,38,91,49
1,38,0,153
1,38,81,41
1,38,0,61
1,33,82,30
1,33,0,270
1,33,70,22
1,33,0,50
1,33,85,45
1,33,0,54
1,33,89,43
1,33,0,164
1,33,84,27
1,33,0,65
1,28,85,32
1,28,0,224
1,28,46,62
1,28,0,51
1,28,96,44
1,28,0,49
1,28,81,47
1,30,90,98
1,28,0,5
1,30,0,78
1,28,87,11
1,28,0,74
1,30,93,24
1,30,0,241
1,30,69,47
1,30,0,40
1,30,88,58
1,30,0,34
1,30,84,60
1,32,82,96
1,30,0,15
1,32,0,65
1,33,73,16
1,38,79,98
1,33,0,9
1,38,0,216
1,38,59,62
1,38,0,28
1,38,91,70
1,38,0,49
1,38,89,45
1,26,56,96
1,38,0,7
1,26,0,80
1,38,79,8
1,38,0,92
1,28,92,7
1,28,0,285
1,40,84,0
1,40,0,183
1,28,79,6
1,40,75,192
1,28,0,118
1,28,69,74
1,40,0,129
1,40,74,65
1,28,0,135
1,28,64,56
1,40,0,14
1,40,68,83
1,28,0,29
1,28,75,68
1,29,47,3
1,29,0,5
1,40,0,16
1,28,0,40
1,33,87,31
1,33,0,246
1,33,85,44
1,33,0,152
1,33,89,39
1,32,97,193
1,33,0,14
1,32,0,72
1,30,64,10
1,30,0,223
1,30,86,62
1,30,0,146
1,30,86,44
1,30,0,171
1,33,85,27
1,33,0,85
1,38,78,10
1,38,0,245
1,38,76,41
1,38,0,65
1,38,85,32
1,38,0,58
1,38,84,36
1,38,0,166
1,38,94,29
1,38,0,64
1,33,85,31
1,33,0,243
1,33,89,45
1,33,0,157
1,33,92,37
1,33,0,89
1,28,75,6
1,28,0,84
1,29,84,12
1,29,0,87
1,30,93,9
1,30,0,228
1,30,79,57
1,30,0,178
1,30,77,19
1,30,0,176
1,33,91,12
1,33,0,81
1,38,82,15
1,38,0,233
1,38,57,56
1,38,0,45
1,38,75,50
1,38,0,54
1,38,79,41
1,38,0,155
1,38,85,38
1,38,0,61
1,28,84,34
1,28,0,256
1,28,59,32
1,40,68,98
1,28,0,8
1,28,74,86
1,28,0,138
1,28,42,53
1,40,0,10
1,28,0,53
1,28,92,36
1,28,0,255
1,28,81,33
1,28,0,89
1,40,70,4
1,28,81,99
1,40,0,3
1,28,0,92
1,30,76,2
1,30,0,94
1,28,81,1
1,28,0,75
1,33,87,22
1,33,0,223
1,33,78,64
1,33,0,36
1,33,87,61
1,33,0,242
1,33,89,45
1,33,0,65
1,30,88,30
1,30,0,225
1,30,58,66
1,30,0,39
1,30,93,56
1,30,0,49
1,30,74,47
1,30,0,144
1,30,72,44
1,30,0,75
1,38,94,25
1,38,0,234
1,38,68,55
1,38,0,43
1,38,94,54
1,38,0,229
1,38,84,56
1,38,0,85
1,33,84,12
1,33,0,245
1,33,66,44
1,33,0,41
1,33,84,53
1,33,0,49
1,33,98,49
1,33,0,88
1,28,84,7
1,28,0,94
1,29,82,1
1,29,0,82
1,30,79,17
1,30,0,213
1,30,56,73
1,30,0,30
1,30,90,65
1,30,0,48
1,30,77,48
1,30,0,145
1,30,90,50
1,30,0,84
1,38,73,11
1,38,0,211
1,38,68,75
1,38,0,50
1,38,82,48
1,38,0,48
1,38,89,46
1,38,0,137
1,38,72,55
1,38,0,69
1,28,89,26
1,28,0,256
1,28,64,33
1,28,0,54
1,28,82,41
1,28,0,51
1,28,87,45
1,28,0,162
1,28,68,29
1,28,0,54
1,28,85,43
1,28,0,53
1,28,89,43
1,28,0,169
1,28,72,26
1,28,0,56
1,28,78,39
1,28,0,51
1,28,84,41
1,28,0,95
1,30,80,3
1,28,82,96
1,30,0,1
1,28,0,88
1,30,90,12
1,30,0,223
1,30,70,61
1,30,0,44
1,30,86,52
1,33,70,96
1,30,0,6
1,33,0,182
1,37,82,5
1,37,0,90
1,38,84,7
1,38,0,231
1,38,85,54
1,38,0,129
1,38,85,63
1,38,0,144
1,38,82,50
1,38,0,84
1,33,89,10
1,33,0,240
1,33,64,49
1,33,0,38
1,33,84,59
1,33,0,39
1,33,91,57
1,33,0,138
1,33,79,54
1,33,0,85
1,28,85,9
1,28,0,240
1,28,79,48
1,28,0,79
1,28,79,18
1,28,0,58
1,28,82,37
1,28,0,84
1,28,84,13
1,28,0,77
1,29,84,19
1,29,0,81
1,30,93,18
1,30,0,225
1,30,73,61
1,30,0,39
1,30,100,56
1,30,0,47
1,30,105,50
1,33,71,96
1,30,0,9
1,37,90,84
1,33,0,5
1,37,0,91
1,38,85,2
1,38,0,232
1,38,72,58
1,38,0,50
1,38,87,47
1,38,0,45
1,38,92,51
1,38,0,133
1,38,82,56
1,38,0,57
1,28,94,41
1,40,74,287
1,28,0,141
1,28,78,49
1,40,0,122
1,40,68,69
1,28,0,173
1,28,74,22
1,40,0,90
1,40,67,200
1,28,0,20
1,28,38,71
1,40,0,19
1,28,0,69
1,40,89,9
1,28,71,93
1,40,0,26
1,28,0,63
1,33,92,13
1,33,0,247
1,33,94,37
1,33,0,187
1,33,74,9
1,33,0,136
1,37,82,55
1,37,0,95
1,38,58,0
1,38,0,252
1,38,62,34
1,38,0,59
1,38,79,38
1,38,0,57
1,38,81,39
1,38,0,162
1,38,96,32
1,38,0,53
1,33,85,38
1,33,0,269
1,33,79,25
1,33,0,56
1,33,94,38
1,33,0,50
1,33,94,45
1,33,0,154
1,33,89,40
1,33,0,73
1,28,79,20
1,28,0,256
1,28,55,35
1,28,0,51
1,28,85,45
1,28,0,48
1,28,91,45
1,30,100,99
1,28,0,2
1,30,0,85
1,28,76,6
1,28,0,76
1,33,87,26
1,33,0,225
1,33,60,53
1,33,0,75
1,33,75,26
1,33,0,53
1,33,82,43
1,33,0,186
1,37,105,4
1,37,0,103
1,38,87,0
1,38,0,231
1,38,60,50
1,38,0,51
1,38,85,47
1,38,0,48
1,38,82,48
1,38,0,163
1,38,85,30
1,38,0,61
1,33,74,36
1,33,0,236
1,33,62,54
1,33,0,51
1,33,73,43
1,33,0,53
1,33,81,40
1,33,0,148
1,33,82,47
1,33,0,77
1,28,84,16
1,28,0,260
1,28,73,31
1,40,71,95
1,28,0,47
1,28,71,49
1,40,0,264
1,28,0,6
1,28,84,18
1,28,0,259
1,28,73,30
1,40,71,98
1,28,0,44
1,28,71,50
1,40,0,264
1,28,0,5
1,38,96,16
1,38,0,253
1,37,80,34
1,35,92,291
1,37,0,9
1,35,0,429
1,35,57,39
1,35,0,48
1,35,62,45
1,35,0,43
1,35,92,55
1,35,0,192
1,33,94,2
1,33,0,100
1,30,90,0
1,30,0,241
1,30,69,46
1,30,0,41
1,30,88,54
1,30,0,45
1,30,93,54
1,30,0,177
1,28,72,13
1,30,82,96
1,28,0,8
1,30,0,239
1,30,66,40
1,30,0,44
1,30,79,51
1,30,0,51
1,30,84,48
1,30,0,79
1,33,91,15
1,33,0,77
1,37,91,19
1,37,0,56
1,38,82,43
1,38,0,255
1,37,97,30
1,37,0,279
1,35,92,12
1,35,0,256
1,35,54,28
1,35,0,64
1,35,68,31
1,35,0,64
1,35,71,33
1,35,0,62
1,35,75,33
1,35,0,61
1,35,81,35
1,35,0,60
1,35,94,39
1,35,0,96
1,33,84,0
1,33,0,76
1,33,82,22
1,33,0,228
1,33,82,56
1,33,0,43
1,33,84,55
1,33,0,276
1,35,82,8
1,35,0,97
1,28,76,3
1,28,0,278
1,33,84,11
1,32,73,188
1,33,0,3
1,32,0,92
1,30,67,4
1,30,0,91
1,28,82,5
1,28,0,84
1,38,80,11
1,38,0,286
1,37,80,3
1,35,92,288
1,37,0,13
1,35,0,426
1,35,57,36
1,35,0,51
1,35,62,44
1,35,0,41
1,35,92,57
1,35,0,192
1,33,94,1
1,30,90,98
1,33,0,3
1,30,0,240
1,30,69,46
1,30,0,40
1,30,88,58
1,30,0,42
1,30,93,53
1,30,0,179
1,28,72,10
1,30,82,99
1,28,0,7
1,30,0,237
1,30,66,43
1,30,0,42
1,30,79,50
1,30,0,52
1,30,84,50
1,30,0,78
1,33,91,15
1,33,0,76
1,37,91,21
1,37,0,55
1,38,82,41
1,38,0,257
1,37,97,31
1,37,0,276
1,35,89,10
1,35,0,353
1,35,82,31
1,35,0,48
1,35,79,46
1,35,0,152
1,35,57,40
1,35,0,49
1,35,94,48
1,33,84,98
1,35,0,2
1,33,0,76
1,28,82,21
1,28,0,228
1,28,67,54
1,28,0,52
1,28,91,47
1,28,0,45
1,28,87,51
1,28,0,164
1,28,58,31
1,28,0,42
1,28,91,56
1,28,0,239
1,28,59,42
1,28,0,53
1,28,78,42
1,28,0,55
1,28,85,43
1,28,0,51
1,28,94,46
1,28,0,45
1,28,98,48
1,28,0,88
1,33,92,12
1,33,0,250
1,33,94,36
1,33,0,187
1,33,74,10
1,33,0,134
1,37,82,54
1,37,0,95
1,38,58,0
1,38,0,254
1,38,62,33
1,38,0,60
1,38,79,37
1,38,0,54
1,38,81,41
1,38,0,165
1,38,96,30
1,38,0,55
1,33,85,34
1,33,0,271
1,33,79,25
1,33,0,53
1,33,94,43
1,33,0,47
1,33,94,46
1,33,0,154
1,33,89,42
1,33,0,73
1,28,79,18
1,28,0,256
1,28,55,35
1,28,0,53
1,28,85,44
1,28,0,46
1,28,91,45
1,28,0,100
1,30,100,0
1,30,0,88
1,28,76,6
1,28,0,75
1,33,81,27
1,33,0,223
1,33,79,54
1,33,0,77
1,33,75,24
1,33,0,51
1,33,82,44
1,33,0,187
1,37,87,6
1,37,0,101
1,38,87,0
1,38,0,231
1,38,60,52
1,38,0,49
1,38,85,47
1,38,0,47
1,38,82,49
1,38,0,165
1,38,85,28
1,38,0,62
1,33,74,35
1,33,0,236
1,33,62,54
1,33,0,50
1,33,73,44
1,33,0,52
1,33,81,42
1,33,0,148
1,33,82,45
1,33,0,79
1,28,84,13
1,28,0,263
1,28,73,29
1,40,71,97
1,28,0,47
1,28,71,49
1,40,0,263
1,28,0,4
1,33,92,20
1,33,0,248
1,33,77,38
1,33,0,187
1,33,74,10
1,33,0,134
1,37,82,56
1,37,0,94
1,38,58,0
1,38,0,253
1,38,83,33
1,38,0,60
1,38,79,36
1,38,0,59
1,38,81,37
1,38,0,165
1,38,96,30
1,38,0,56
1,33,85,35
1,33,0,271
1,33,79,24
1,33,0,55
1,33,94,40
1,33,0,48
1,33,94,46
1,33,0,156
1,33,89,40
1,33,0,72
1,28,79,19
1,28,0,255
1,28,79,36
1,28,0,53
1,28,85,43
1,28,0,47
1,28,91,48
1,30,100,96
1,28,0,3
1,30,0,85
1,28,76,7
1,28,0,74
1,33,87,30
1,33,0,221
1,33,87,53
1,33,0,76
1,33,75,26
1,33,0,52
1,33,82,45
1,33,0,185
1,37,105,4
1,37,0,102
1,38,87,0
1,38,0,229
1,38,81,55
1,38,0,49
1,38,85,47
1,38,0,49
1,38,82,46
1,38,0,166
1,38,85,27
1,38,0,64
1,33,74,34
1,33,0,237
1,33,79,53
1,33,0,50
1,33,73,44
1,33,0,53
1,33,81,39
1,33,0,148
1,33,82,47
1,33,0,79
1,28,84,16
1,28,0,260
1,28,73,30
1,40,71,96
1,28,0,46
1,28,71,50
1,40,0,264
1,28,0,4
1,33,92,20
1,33,0,249
1,33,94,36
1,33,0,187
1,33,74,8
1,33,0,137
1,37,82,55
1,37,0,94
1,38,81,0
1,38,0,254
1,38,62,32
1,38,0,61
1,38,79,36
1,38,0,58
1,38,81,39
1,38,0,163
1,38,96,30
1,38,0,53
1,33,85,40
1,33,0,268
1,33,79,23
1,33,0,57
1,33,94,41
1,33,0,47
1,33,94,46
1,33,0,153
1,33,89,43
1,33,0,72
1,28,79,19
1,28,0,254
1,28,55,36
1,28,0,54
1,28,85,43
1,28,0,47
1,28,91,46
1,30,85,98
1,28,0,3
1,30,0,83
1,28,76,9
1,28,0,73
1,33,87,28
1,33,0,225
