track,note,velocity,time
3,36,117,11808
3,36,0,760
3,28,114,8
3,33,112,768
3,28,0,4
3,33,0,756
3,29,113,8
3,29,0,758
3,36,113,10
3,28,112,768
3,36,0,7
3,28,0,759
3,33,112,2
3,29,111,768
3,33,0,9
3,29,0,747
3,33,111,12
3,33,0,761
3,28,111,7
3,29,112,768
3,28,0,15
3,36,111,753
3,29,0,1
3,36,0,760
3,33,111,7
3,28,111,768
3,33,0,6
3,28,0,758
3,29,111,4
3,29,0,767
3,31,111,1
3,31,0,745
3,31,110,23
3,31,0,710
3,36,114,58
3,36,0,239
3,36,102,49
3,36,0,468
3,33,103,12
3,33,0,254
3,33,98,34
3,33,0,384
3,28,98,0
3,28,0,94
3,29,103,2
3,29,0,255
3,29,96,33
3,29,0,477
3,31,114,3
3,31,0,266
3,31,99,22
3,31,0,468
3,36,112,12
3,36,0,258
3,36,107,30
3,36,0,466
3,33,112,14
3,33,0,279
3,33,110,9
3,33,0,374
3,28,90,10
3,29,108,96
3,28,0,1
3,29,0,253
3,29,104,34
3,29,0,475
3,31,108,5
3,31,0,247
3,31,108,41
3,31,0,366
3,33,43,18
3,36,86,48
3,33,0,1
3,36,0,43
3,38,111,4
3,38,0,262
3,38,99,26
3,38,0,467
3,33,108,13
3,33,0,275
3,33,106,13
3,33,0,336
3,33,83,48
3,33,0,91
3,31,109,5
3,31,0,258
3,31,108,30
3,38,88,432
3,31,0,15
3,38,0,22
3,43,97,11
3,43,0,272
3,43,103,16
3,43,0,468
3,31,107,12
3,31,0,244
3,31,94,44
3,38,90,432
3,31,0,8
3,38,0,34
3,43,106,6
3,43,0,285
3,31,88,3
3,31,0,266
3,31,87,22
3,31,0,149
3,36,110,43
3,36,0,239
3,36,103,49
3,36,0,471
3,33,110,9
3,33,0,255
3,33,103,33
3,33,0,384
3,28,91,0
3,29,108,96
3,28,0,2
3,29,0,263
3,29,93,23
3,29,0,477
3,31,107,3
3,31,0,263
3,31,106,25
3,31,0,412
3,33,111,68
3,33,0,761
3,28,111,7
3,29,112,768
3,28,0,15
3,36,111,753
3,29,0,1
3,36,0,760
3,33,111,7
3,28,111,768
3,33,0,6
3,28,0,758
3,29,111,4
3,29,0,767
3,31,111,1
3,31,0,745
3,31,110,23
3,31,0,710
3,36,114,58
3,36,0,239
3,36,102,49
3,36,0,468
3,33,103,12
3,33,0,254
3,33,98,34
3,33,0,384
3,28,98,0
3,28,0,94
3,29,103,2
3,29,0,255
3,29,96,33
3,29,0,477
3,31,114,3
3,31,0,266
3,31,99,22
3,31,0,468
3,36,112,12
3,36,0,258
3,36,107,30
3,36,0,466
3,33,112,14
3,33,0,279
3,33,110,9
3,33,0,374
3,28,90,10
3,29,108,96
3,28,0,1
3,29,0,253
3,29,104,34
3,29,0,475
3,31,108,5
3,31,0,247
3,31,108,41
3,31,0,366
3,33,43,18
3,36,86,48
3,33,0,1
3,36,0,43
3,38,111,4
3,38,0,262
3,38,99,26
3,38,0,467
3,33,108,13
3,33,0,275
3,33,106,13
3,33,0,336
3,33,83,48
3,33,0,91
3,31,109,5
3,31,0,258
3,31,108,30
3,38,88,432
3,31,0,15
3,38,0,22
3,43,97,11
3,43,0,272
3,43,103,16
3,43,0,468
3,31,107,12
3,31,0,244
3,31,94,44
3,38,90,432
3,31,0,8
3,38,0,34
3,43,106,6
3,43,0,285
3,31,88,3
3,31,0,266
3,31,87,22
3,31,0,149
3,39,114,43
3,39,0,239
3,39,102,49
3,39,0,468
3,36,103,12
3,36,0,254
3,36,98,34
3,36,0,384
3,31,98,0
3,31,0,94
3,32,103,2
3,32,0,255
3,32,96,33
3,32,0,477
3,34,114,3
3,34,0,266
3,34,99,22
3,34,0,468
3,39,112,12
3,39,0,258
3,39,107,30
3,39,0,466
3,36,112,14
3,36,0,279
3,36,110,9
3,36,0,374
3,31,90,10
3,32,108,96
3,31,0,1
3,32,0,253
3,32,104,34
3,32,0,475
3,34,108,5
3,34,0,247
3,34,108,41
3,34,0,366
3,36,43,18
3,39,86,48
3,36,0,1
3,39,0,43
3,36,114,4
3,36,0,239
3,36,102,49
3,36,0,468
3,33,103,12
3,33,0,254
3,33,98,34
3,33,0,384
3,28,98,0
3,28,0,94
3,29,103,2
3,29,0,255
3,29,96,33
3,29,0,477
3,31,114,3
3,31,0,266
3,31,99,22
3,31,0,1246
3,36,101,2
3,36,0,196
3,36,96,92
3,36,0,427
3,36,97,53
3,36,0,202
3,36,97,86
3,36,0,404
3,36,98,76
3,36,0,1534
4,57,101,0
4,57,0,2
4,59,93,784
4,59,0,125
4,53,71,554
4,60,99,0
4,53,0,67
4,52,80,611
4,52,0,157
4,60,0,32
4,60,100,5378
4,59,108,192
4,57,111,192
4,59,0,12
4,55,88,180
4,57,0,11
4,55,0,179
4,52,107,2
4,60,0,574
4,60,113,2
4,52,0,190
4,50,92,2
4,59,100,0
4,60,0,9
4,50,0,566
4,50,108,1
4,50,0,4
4,59,0,186
4,48,107,2
4,57,107,0
4,57,0,575
4,57,112,1
4,57,0,1
4,48,0,189
4,48,98,2
4,55,90,0
4,55,0,382
4,60,109,2
4,59,102,192
4,48,0,94
4,57,109,98
4,59,0,9
4,60,0,565
4,60,109,2
4,57,0,190
4,50,96,2
4,59,106,0
4,60,0,3
4,50,0,571
4,50,109,2
4,59,0,190
4,48,103,2
4,50,0,12
4,57,112,564
4,48,0,190
4,55,98,2
4,60,98,0
4,57,0,14
4,59,102,754
4,60,0,1
4,55,0,189
4,59,0,0
4,55,109,2
4,59,109,0
4,57,108,192
4,60,108,0
4,55,0,9
4,59,0,3
4,57,0,175
4,59,116,5
4,62,116,0
4,60,0,2
4,59,0,178
4,62,0,1
4,55,88,11
4,60,103,0
4,55,0,766
4,57,85,2
4,57,0,766
4,53,83,2
4,53,0,766
4,55,92,2
4,60,0,382
4,62,97,2
4,62,0,382
4,64,106,2
4,55,0,766
4,64,0,0
4,57,93,2
4,60,87,0
4,57,0,766
4,53,87,2
4,53,0,766
4,55,80,2
4,60,0,382
4,59,87,2
4,55,0,382
4,59,0,0
4,53,89,2
4,57,89,0
4,62,89,0
4,53,0,733
4,62,0,15
4,60,91,20
4,64,73,0
4,57,0,671
4,60,0,23
4,64,0,7
4,67,111,67
4,65,111,384
4,67,0,3
4,64,112,381
4,65,0,11
4,62,113,373
4,64,0,5
4,62,0,352
4,62,103,27
4,67,103,0
4,71,103,0
4,62,0,354
4,71,0,20
4,60,103,10
4,65,103,0
4,69,103,0
4,67,0,11
4,60,0,342
4,69,0,20
4,62,101,11
4,67,101,0
4,71,101,0
4,65,0,6
4,62,0,338
4,71,0,36
4,67,0,4
4,65,102,0
4,69,102,0
4,74,102,0
4,74,0,339
4,65,0,4
4,69,0,10
4,52,112,31
4,55,112,0
4,60,112,0
4,72,112,0
4,55,0,766
4,72,0,0
4,57,110,2
4,71,110,0
4,71,0,382
4,64,105,2
4,52,0,382
4,60,0,0
4,53,91,2
4,69,93,0
4,64,0,382
4,62,102,2
4,57,0,382
4,53,0,0
4,69,0,0
4,55,97,2
4,60,96,0
4,67,103,0
4,60,0,382
4,59,90,2
4,62,0,382
4,55,0,0
4,67,0,0
4,59,0,0
4,57,109,3074
4,57,0,574
4,60,102,2
4,60,0,190
4,50,95,2
4,59,106,0
4,50,0,541
4,50,109,35
4,59,0,190
4,48,103,2
4,50,0,12
4,57,112,564
4,48,0,190
4,48,98,2
4,55,98,0
4,57,0,14
4,47,106,754
4,48,0,1
4,55,0,189
4,55,109,2
4,67,89,0
4,71,89,0
4,69,89,192
4,72,89,0
4,67,0,12
4,71,0,0
4,71,89,180
4,74,89,0
4,69,0,12
4,72,0,0
4,47,0,178
4,55,0,0
4,55,88,2
4,60,103,0
4,71,0,12
4,74,0,0
4,55,0,754
4,57,85,2
4,57,0,766
4,53,83,2
4,53,0,766
4,55,92,2
4,60,0,382
4,62,97,2
4,62,0,382
4,64,106,2
4,55,0,766
4,64,0,0
4,57,93,2
4,60,87,0
4,57,0,766
4,53,87,2
4,53,0,766
4,55,80,2
4,60,0,382
4,59,87,2
4,55,0,382
4,59,0,0
4,53,89,2
4,57,89,0
4,62,89,0
4,53,0,733
4,62,0,15
4,60,91,20
4,64,73,0
4,57,0,671
4,60,0,23
4,64,0,7
4,67,111,67
4,65,111,384
4,67,0,3
4,64,112,381
4,65,0,11
4,62,113,373
4,64,0,5
4,62,0,352
4,62,103,27
4,67,103,0
4,71,103,0
4,62,0,354
4,71,0,20
4,60,103,10
4,65,103,0
4,69,103,0
4,67,0,11
4,60,0,342
4,69,0,20
4,62,101,11
4,67,101,0
4,71,101,0
4,65,0,6
4,62,0,338
4,71,0,36
4,67,0,4
4,65,102,0
4,69,102,0
4,74,102,0
4,65,0,382
4,69,0,0
4,74,0,0
4,55,88,2
4,58,88,0
4,75,103,0
4,75,0,766
4,74,103,2
4,74,0,382
4,67,103,2
4,55,0,382
4,58,0,0
4,67,0,0
4,56,83,2
4,63,83,0
4,72,83,0
4,56,0,766
4,63,0,0
4,72,0,0
4,63,103,2
4,70,83,0
4,63,0,382
4,62,103,2
4,70,0,190
4,68,103,2
4,62,0,190
4,68,0,0
4,58,83,2
4,67,83,0
4,58,0,766
4,67,0,0
4,63,83,2
4,63,0,382
4,72,83,2
4,67,83,384
4,72,0,766
4,67,0,0
4,58,83,2
4,63,83,0
4,65,83,0
4,63,0,382
4,62,83,2
4,58,0,382
4,65,0,0
4,62,0,0
4,55,88,2
4,60,103,0
4,55,0,766
4,57,85,2
4,57,0,766
4,53,83,2
4,53,0,766
4,55,92,2
4,59,97,0
4,60,0,14
4,55,0,22
4,59,0,0
5,55,111,1103
5,55,0,36
5,57,111,12
5,57,0,26
5,60,103,12
5,60,0,30
5,62,106,12
5,62,0,36
5,60,116,12
5,60,0,116
5,64,100,1432
5,64,0,63
5,64,112,21
5,64,0,35
5,67,108,13
5,67,0,60
5,64,90,37
5,64,0,33
5,67,116,23
5,67,0,110
5,64,103,71
5,64,0,26
5,64,116,27
5,64,0,77
5,69,98,27
5,69,0,31
5,67,109,17
5,67,0,169
5,69,109,593
5,69,0,24
5,71,103,19
5,71,0,22
5,72,113,25
5,72,0,159
5,71,113,44
5,71,0,126
5,69,111,59
5,69,0,86
5,67,97,16
5,67,0,119
5,69,108,78
5,69,0,180
5,67,113,678
5,67,0,66
5,64,97,29
5,64,0,37
5,67,109,21
5,67,0,44
5,64,91,37
5,64,0,29
5,67,101,28
5,67,0,101
5,64,95,59
5,64,0,25
5,64,105,22
5,64,0,26
5,69,100,15
5,69,0,35
5,67,100,8
5,67,0,170
5,67,97,649
5,67,0,25
5,69,98,15
5,69,0,28
5,71,103,13
5,71,0,29
5,72,109,25
5,72,0,154
5,71,100,36
5,71,0,129
5,69,112,71
5,67,100,95
5,69,0,10
5,67,0,180
5,69,102,2
5,69,0,253
5,64,114,611
5,64,0,78
5,72,109,18
5,72,0,60
5,72,108,25
5,72,0,72
5,72,108,29
5,72,0,91
5,64,109,390
5,64,0,80
5,71,101,22
5,71,0,66
5,71,109,26
5,71,0,61
5,71,103,31
5,71,0,104
5,62,100,325
5,62,0,29
5,60,118,16
5,60,0,86
5,69,103,22
5,69,0,59
5,69,111,33
5,69,0,54
5,69,111,44
5,69,0,92
5,60,103,297
5,60,0,28
5,62,109,14
5,62,0,77
5,64,108,24
5,64,0,136
5,67,107,584
5,67,0,68
5,64,100,15
5,64,0,35
5,67,108,22
5,67,0,56
5,64,91,25
5,64,0,33
5,67,106,23
5,67,0,103
5,64,97,41
5,64,0,37
5,64,102,23
5,64,0,34
5,69,100,10
5,69,0,33
5,67,109,22
5,67,0,138
5,69,100,719
5,69,0,31
5,71,101,17
5,71,0,25
5,72,105,23
5,72,0,152
5,71,105,34
5,71,0,138
5,69,95,55
5,69,0,81
5,67,100,20
5,67,0,182
5,69,95,194
5,69,0,89
5,67,111,595
5,67,0,56
5,64,100,29
5,64,0,31
5,67,103,18
5,67,0,55
5,64,78,46
5,64,0,33
5,67,109,19
5,67,0,98
5,64,88,41
5,64,0,31
5,64,101,24
5,64,0,77
5,69,102,41
5,69,0,87
5,67,106,27
5,67,0,127
5,67,96,547
5,67,0,23
5,69,79,20
5,69,0,26
5,71,97,17
5,71,0,27
5,72,102,24
5,72,0,172
5,71,95,34
5,71,0,144
5,69,81,33
5,69,0,74
5,67,98,24
5,67,0,127
5,67,92,48
5,67,0,116
5,69,91,82
5,69,0,159
5,64,101,536
5,64,0,90
5,72,109,13
5,72,0,62
5,72,107,28
5,72,0,58
5,72,112,30
5,72,0,77
5,64,112,408
5,64,0,83
5,71,102,14
5,71,0,71
5,71,102,23
5,71,0,59
5,71,100,28
5,71,0,83
5,62,101,305
5,62,0,55
5,60,106,39
5,60,0,85
5,69,100,18
5,69,0,73
5,69,92,24
5,69,0,50
5,69,101,42
5,69,0,155
5,60,103,139
5,60,0,66
5,62,102,24
5,62,0,72
5,64,106,16
5,64,0,189
5,64,100,589
5,64,0,72
5,72,106,24
5,72,0,70
5,72,108,32
5,72,0,54
5,72,107,35
5,72,0,133
5,74,109,28
5,74,0,279
5,71,98,35
5,71,0,51
5,69,90,10
5,69,0,51
5,67,102,8
5,67,0,46
5,67,103,23
5,67,0,172
5,60,109,409
5,60,0,84
5,69,101,12
5,69,0,63
5,69,101,31
5,69,0,79
5,69,105,25
5,69,0,176
5,60,109,103
5,60,0,73
5,62,101,29
5,62,0,71
5,62,97,27
5,62,0,184
5,76,121,1360
5,76,0,586
5,77,101,27
5,77,0,60
5,79,112,15
5,79,0,43
5,79,101,19
5,79,0,70
5,77,106,3
5,77,0,33
5,76,98,16
5,76,0,50
5,72,109,13
5,72,0,280
5,76,103,153
5,76,0,30
5,77,105,13
5,77,0,28
5,79,107,18
5,79,0,37
5,79,111,22
5,79,0,77
5,77,100,14
5,77,0,52
5,76,106,15
5,76,0,49
5,72,109,20
5,72,0,262
5,72,103,190
5,72,0,29
5,74,108,16
5,74,0,26
5,76,112,24
5,76,0,123
5,74,112,25
5,74,0,125
5,72,106,15
5,72,0,67
5,76,107,29
5,76,0,128
5,74,108,34
5,74,0,100
5,72,106,29
5,72,0,71
5,76,109,19
5,76,0,502
5,76,111,67
5,76,0,60
5,77,90,15
5,77,0,30
5,79,102,25
5,79,0,48
5,79,111,21
5,79,0,57
5,77,92,8
5,77,0,42
5,76,103,14
5,76,0,47
5,72,106,12
5,72,0,319
5,76,108,74
5,76,0,43
5,77,96,16
5,77,0,35
5,79,105,25
5,79,0,57
5,79,100,22
5,79,0,57
5,77,92,13
5,77,0,41
5,76,103,17
5,76,0,46
5,72,101,24
5,72,0,257
5,72,101,220
5,72,0,25
5,74,97,21
5,74,0,30
5,76,116,26
5,76,0,113
5,74,100,24
5,74,0,131
5,72,101,5
5,72,0,80
5,76,107,24
5,76,0,121
5,74,103,21
5,74,0,144
5,72,97,5
5,72,0,22
5,77,109,28
5,77,0,138
5,81,118,533
5,81,0,46
5,83,113,21
5,83,0,42
5,84,124,26
5,84,0,56
5,83,109,13
5,83,0,40
5,81,108,16
5,81,0,47
5,76,114,11
5,76,0,194
5,79,121,396
5,79,0,66
5,81,109,21
5,81,0,41
5,79,109,18
5,79,0,95
5,81,97,20
5,81,0,95
5,77,108,28
5,77,0,70
5,79,106,22
5,79,0,39
5,77,103,18
5,77,0,85
5,79,107,17
5,79,0,87
5,76,109,41
5,76,0,73
5,77,100,15
5,77,0,40
5,76,108,18
5,76,0,87
5,77,100,13
5,77,0,31
5,74,103,18
5,74,0,188
5,67,85,246
5,67,0,25
5,79,111,17
5,79,0,26
5,81,113,27
5,81,0,33
5,79,109,20
5,81,107,162
5,79,0,2
5,81,0,20
5,77,109,28
5,77,0,118
5,79,113,16
5,79,0,40
5,77,109,19
5,77,0,104
5,79,107,19
5,79,0,97
5,76,109,39
5,76,0,64
5,77,97,22
5,77,0,45
5,76,109,19
5,76,0,79
5,77,103,39
5,76,113,72
