track,note,velocity,time
1,37,102,870
1,35,95,960
1,37,0,40
1,33,107,920
1,35,0,0
1,35,102,960
1,33,0,10
1,35,0,915
1,37,104,35
1,37,0,950
1,35,99,10
1,33,108,960
1,35,0,20
1,33,0,930
1,35,100,10
1,35,0,840
1,37,100,120
1,35,94,960
1,37,0,40
1,33,103,920
1,35,0,0
1,35,105,960
1,33,0,10
1,35,0,915
1,37,111,35
1,37,0,950
1,35,102,10
1,33,105,960
1,35,0,20
1,33,0,930
1,35,104,10
1,35,0,840
1,37,106,120
1,35,93,960
1,37,0,40
1,33,103,920
1,35,0,0
1,35,98,960
1,33,0,10
1,35,0,915
1,37,105,35
1,37,0,950
1,35,105,10
1,33,105,960
1,35,0,20
1,30,95,700
1,33,0,0
1,30,0,225
1,35,98,15
1,35,0,235
1,32,95,5
1,35,99,240
1,32,0,5
1,35,0,210
1,32,105,25
1,32,0,180
1,37,105,60
1,35,90,960
1,37,0,40
1,33,109,920
1,35,0,0
1,35,101,960
1,33,0,10
1,35,0,915
1,37,106,35
1,37,0,950
1,35,102,10
1,33,106,960
1,35,0,20
1,33,0,930
1,35,101,10
1,35,0,840
1,37,107,120
1,35,93,960
1,37,0,40
1,33,105,920
1,35,0,0
1,35,98,960
1,33,0,10
1,35,0,915
1,37,109,35
1,37,0,950
1,35,99,10
1,33,101,960
1,35,0,20
1,30,90,700
1,33,0,0
1,30,0,225
1,35,103,15
1,35,0,235
1,32,95,5
1,35,103,240
1,32,0,5
1,35,0,210
1,32,104,25
1,32,0,180
1,37,107,60
1,35,96,960
1,37,0,40
1,33,107,920
1,35,0,0
1,35,105,960
1,33,0,10
1,35,0,915
1,37,106,35
1,37,0,950
1,35,103,10
1,28,111,960
1,35,0,20
1,28,0,365
1,28,105,95
1,28,0,195
1,28,100,45
1,28,0,180
1,28,112,60
1,28,0,410
1,28,103,70
1,28,0,410
1,28,113,70
1,28,0,400
1,28,114,80
1,28,0,170
1,28,102,70
1,28,0,205
1,28,107,35
1,28,0,385
1,28,105,95
1,28,0,305
1,37,111,175
1,37,0,500
1,37,102,220
1,37,0,110
1,37,103,130
1,37,0,450
1,32,100,30
1,32,0,430
1,30,109,50
1,30,0,550
1,30,115,170
1,30,0,140
1,30,113,100
1,37,103,480
1,30,0,5
1,37,0,435
1,35,112,40
1,35,0,575
1,35,108,145
1,35,0,85
1,35,109,155
1,35,0,460
1,30,108,20
1,28,110,480
1,30,0,15
1,28,0,500
1,28,114,205
1,28,0,70
1,28,117,170
1,28,0,470
1,39,99,10
1,39,0,440
1,37,101,40
1,37,0,610
1,37,113,110
1,37,0,85
1,37,110,155
1,32,112,480
1,37,0,20
1,32,0,390
1,30,105,70
1,30,0,550
1,30,107,170
1,30,0,65
1,30,111,175
1,37,104,480
1,30,0,10
1,37,0,430
1,35,105,40
1,35,0,525
1,35,101,195
1,35,0,70
1,35,103,170
1,35,0,450
1,30,107,30
1,30,0,445
1,28,108,35
1,28,0,520
1,28,113,200
1,28,0,50
1,28,113,190
1,39,105,480
1,28,0,5
1,39,0,395
1,37,109,80
1,37,0,500
1,37,107,220
1,37,0,110
1,37,100,130
1,37,0,450
1,32,105,30
1,32,0,430
1,30,114,50
1,30,0,550
1,30,116,170
1,30,0,140
1,30,116,100
1,37,99,480
1,30,0,5
1,37,0,435
1,35,114,40
1,35,0,575
1,35,111,145
1,35,0,85
1,35,108,155
1,35,0,460
1,30,109,20
1,28,108,480
1,30,0,15
1,28,0,500
1,28,117,205
1,28,0,70
1,28,119,170
1,28,0,470
1,39,103,10
1,39,0,440
1,37,101,40
1,37,0,610
1,37,106,110
1,37,0,85
1,37,112,155
1,32,109,480
1,37,0,20
1,32,0,390
1,30,104,70
1,30,0,550
1,30,111,170
1,30,0,65
1,30,111,175
1,37,107,480
1,30,0,10
1,37,0,430
1,35,109,40
1,35,0,525
1,35,107,195
1,35,0,70
1,35,100,170
1,35,0,450
1,30,107,30
1,30,0,445
1,28,102,35
1,28,0,515
1,28,113,205
1,28,0,155
1,28,110,85
1,28,0,380
1,28,104,100
1,28,0,335
1,30,111,145
1,30,0,535
1,30,113,185
1,30,0,175
1,30,106,65
1,30,0,430
1,30,101,50
1,30,0,430
1,35,108,50
1,35,0,650
1,35,102,70
1,35,0,205
1,35,108,35
1,35,0,390
1,35,102,90
1,35,0,475
1,28,104,5
1,28,0,625
1,28,89,95
1,28,0,220
1,28,89,20
1,28,0,835
1,37,109,125
1,37,0,645
1,37,96,75
1,37,0,175
1,37,105,65
1,37,0,450
1,32,106,30
1,32,0,455
1,30,108,25
1,30,0,535
1,30,115,185
1,30,0,175
1,30,111,65
1,30,0,430
1,30,102,50
1,30,0,430
1,35,107,50
1,35,0,650
1,35,102,70
1,35,0,205
1,35,107,35
1,35,0,390
1,35,101,90
1,35,0,475
1,28,100,5
1,28,0,625
1,28,92,95
1,28,0,220
1,28,92,20
1,28,0,835
1,37,100,125
1,35,90,960
1,37,0,40
1,33,106,920
1,35,0,0
1,35,100,960
1,33,0,10
1,35,0,915
1,37,110,35
1,37,0,950
1,35,101,10
1,33,109,960
1,35,0,20
1,33,0,930
1,35,104,10
1,35,0,840
1,37,104,120
1,35,96,960
1,37,0,40
1,33,104,920
1,35,0,0
1,35,103,960
1,33,0,10
1,35,0,915
1,37,109,35
1,37,0,950
1,35,105,10
1,33,102,960
1,35,0,20
1,30,89,700
1,33,0,0
1,30,0,225
1,35,102,15
1,35,0,235
1,32,98,5
1,35,100,240
1,32,0,5
1,35,0,210
1,32,101,25
1,32,0,180
1,37,104,60
1,35,91,960
1,37,0,40
1,33,104,920
1,35,0,0
1,35,104,960
1,33,0,10
1,35,0,915
1,37,108,35
1,37,0,950
1,35,105,10
1,28,112,960
1,35,0,20
1,28,0,365
1,28,105,95
1,28,0,195
1,28,101,45
1,28,0,180
1,28,111,60
1,28,0,410
1,28,108,70
1,28,0,410
1,28,106,70
1,28,0,400
1,28,111,80
1,28,0,170
1,28,109,70
1,28,0,205
1,28,107,35
1,28,0,385
1,28,110,95
1,28,0,305
1,37,110,175
1,37,0,500
1,37,104,220
1,37,0,110
1,37,104,130
1,37,0,450
1,32,98,30
1,32,0,430
1,30,110,50
1,30,0,550
1,30,110,170
1,30,0,140
1,30,110,100
1,37,101,480
1,30,0,5
1,37,0,435
1,35,109,40
1,35,0,575
1,35,104,145
1,35,0,85
1,35,102,155
1,35,0,460
1,30,105,20
1,28,115,480
1,30,0,15
1,28,0,500
1,28,112,205
1,28,0,70
1,28,115,170
1,28,0,470
1,39,99,10
1,39,0,440
1,37,104,40
1,37,0,610
1,37,108,110
1,37,0,85
1,37,108,155
1,32,111,480
1,37,0,20
1,32,0,390
1,30,107,70
1,30,0,550
1,30,105,170
1,30,0,65
1,30,106,175
1,37,108,480
1,30,0,10
1,37,0,430
1,35,107,40
1,35,0,525
1,35,102,195
1,35,0,70
1,35,103,170
1,35,0,450
1,30,110,30
1,30,0,445
1,28,107,35
1,28,0,520
1,28,110,200
1,28,0,50
1,28,110,190
1,39,101,480
1,28,0,5
1,39,0,395
1,37,110,80
1,37,0,500
1,37,104,220
1,37,0,110
1,37,105,130
1,37,0,450
1,32,99,30
1,32,0,430
1,30,111,50
1,30,0,550
1,30,111,170
1,30,0,140
1,30,111,100
1,37,98,480
1,30,0,5
1,37,0,435
1,35,108,40
1,35,0,575
1,35,104,145
1,35,0,85
1,35,108,155
1,35,0,460
1,30,104,20
1,28,110,480
1,30,0,15
1,28,0,500
1,28,117,205
1,28,0,70
1,28,117,170
1,28,0,470
1,39,105,10
1,39,0,440
1,37,102,40
1,37,0,610
1,37,108,110
1,37,0,85
1,37,111,155
1,32,108,480
1,37,0,20
1,32,0,390
1,30,105,70
1,30,0,550
1,30,106,170
1,30,0,65
1,30,108,175
1,37,109,480
1,30,0,10
1,37,0,430
1,35,111,40
1,35,0,525
1,35,101,195
1,35,0,70
1,35,103,170
1,35,0,450
1,30,112,30
1,30,0,445
1,37,110,35
1,37,0,500
1,37,107,220
1,37,0,55
1,37,113,185
1,37,0,460
1,32,103,20
1,32,0,465
1,30,115,15
1,30,0,535
1,30,114,185
1,30,0,175
1,30,108,65
1,30,0,430
1,30,99,50
1,30,0,430
1,32,110,50
1,32,0,490
1,32,108,230
1,32,0,175
1,32,113,65
1,32,0,395
1,32,105,85
1,32,0,410
1,33,106,70
1,33,0,550
1,33,109,170
1,33,0,235
1,35,102,5
1,35,0,425
1,35,84,55
1,35,0,415
1,37,100,65
1,35,93,960
1,37,0,40
1,33,104,920
1,35,0,0
1,35,103,960
1,33,0,10
1,35,0,915
1,37,109,35
1,37,0,950
1,35,99,10
1,33,106,960
1,35,0,20
1,33,0,930
1,35,101,10
1,35,0,840
1,37,106,120
1,35,91,960
1,37,0,40
1,33,104,920
1,35,0,0
1,35,104,960
1,33,0,10
1,35,0,915
1,37,111,35
1,37,0,950
1,35,98,10
1,33,104,960
1,35,0,20
1,30,95,700
1,33,0,0
1,30,0,225
1,35,102,15
1,35,0,235
1,32,98,5
1,35,99,240
1,32,0,5
1,35,0,210
1,32,104,25
1,32,0,180
1,37,105,60
1,35,92,960
1,37,0,40
1,33,106,920
1,35,0,0
1,35,98,960
1,33,0,10
1,35,0,915
1,37,109,35
1,37,0,950
1,35,99,10
1,35,0,955
1,37,104,5
1,35,96,960
1,37,0,40
1,33,109,920
1,35,0,0
1,35,103,960
1,33,0,10
1,35,0,915
1,37,104,35
1,35,92,960
1,37,0,40
1,33,104,920
1,35,0,0
1,35,103,960
1,33,0,10
1,35,0,915
1,25,102,35
1,25,0,3645
2,80,100,63625
2,80,0,1885
2,85,89,35
2,85,0,1185
2,83,99,15
2,83,0,220
2,81,93,20
2,80,104,240
2,81,0,35
2,78,98,205
2,80,0,5
2,78,0,1905
2,80,88,10
2,80,0,1910
2,76,103,10
2,76,0,1910
2,78,96,10
2,78,0,3805
2,76,87,35
2,76,0,1830
2,76,68,34660
2,76,0,3735
2,80,102,15455
2,80,0,1885
2,85,96,35
2,85,0,1185
2,83,97,15
2,83,0,220
2,81,95,20
2,80,103,240
2,81,0,35
2,78,101,205
2,80,0,5
2,78,0,1905
2,80,95,10
2,80,0,1910
2,76,107,10
2,76,0,1910
2,78,99,10
2,78,0,3805
2,76,94,35
2,76,0,1910
2,78,93,10
2,78,0,1910
2,80,95,10
2,80,0,1910
2,81,98,10
2,81,0,1190
2,83,100,10
2,83,0,710
2,76,75,10
2,76,0,3830
2,73,82,10
2,73,0,950
2,76,90,10
2,76,0,950
2,80,71,10
2,80,0,1910
2,83,86,10
2,83,0,950
2,76,83,10
2,76,0,2870
2,73,78,10
2,73,0,950
2,76,91,10
2,76,0,950
2,80,65,10
2,80,0,1910
2,73,77,10
2,73,0,9565
2,73,75,35
2,73,0,3835
3,64,87,5
3,64,94,55
3,64,0,180
3,64,106,50
3,64,0,215
3,66,88,30
3,66,0,490
3,64,88,10
3,64,0,215
3,63,95,15
3,63,0,220
3,64,88,15
3,64,0,705
3,59,95,255
3,59,0,85
3,64,103,15
3,64,0,70
3,66,115,60
3,66,0,205
3,68,100,40
3,68,0,260
3,69,109,5
3,69,0,175
3,68,98,50
3,68,0,370
3,66,97,105
3,66,0,220
3,64,79,15
3,64,0,185
3,66,90,30
3,66,0,500
3,68,91,0
3,68,0,225
3,66,91,20
3,66,0,225
3,64,90,10
3,64,0,645
3,64,93,15
3,64,87,60
3,64,0,160
3,64,96,60
3,64,0,185
3,66,104,30
3,66,0,485
3,64,94,20
3,64,0,220
3,63,85,5
3,63,0,225
3,64,104,10
3,64,0,605
3,64,96,350
3,64,0,60
3,66,112,185
3,66,0,200
3,68,104,40
3,68,0,260
3,69,105,5
3,69,0,195
3,68,111,45
3,68,0,330
3,73,112,135
3,73,0,290
3,68,88,175
3,68,0,80
3,71,102,20
3,69,104,35
3,69,0,195
3,68,109,40
3,68,0,200
3,66,102,30
3,66,0,990
3,68,116,930
3,68,0,75
3,71,98,45
3,71,0,95
3,73,103,25
3,73,0,170
3,73,105,70
3,73,0,450
3,68,97,30
3,68,0,85
3,71,98,35
3,71,0,90
3,73,108,30
3,73,0,145
3,73,102,95
3,73,0,455
3,68,92,25
3,68,0,85
3,71,103,35
3,71,0,105
3,73,111,15
3,73,0,155
3,73,107,85
3,73,0,235
3,71,107,5
3,71,0,235
3,76,102,5
3,76,0,455
3,75,105,25
3,75,0,205
3,73,103,35
3,73,0,210
3,71,100,30
3,71,0,205
3,73,109,35
3,73,0,215
3,68,106,40
3,68,0,135
3,68,75,295
3,68,0,60
3,66,96,10
3,66,0,90
3,68,96,20
3,68,0,90
3,71,109,5
3,71,0,235
3,69,112,5
3,69,0,225
3,68,112,15
3,68,0,190
3,66,100,60
3,66,0,890
3,68,98,925
3,68,0,40
3,68,105,70
3,68,0,75
3,71,101,35
3,71,0,95
3,73,118,20
3,73,0,210
3,71,104,30
3,71,0,90
3,68,102,30
3,68,0,315
3,71,107,45
3,71,0,210
3,73,96,30
3,73,0,215
3,71,108,25
3,71,0,170
3,68,100,310
3,68,0,100
3,71,101,20
3,71,0,115
3,73,110,5
3,71,99,240
3,73,0,0
3,71,0,85
3,73,111,35
3,73,0,305
3,71,109,55
3,71,0,230
3,76,105,10
3,76,0,215
3,75,107,25
3,75,0,225
3,73,108,15
3,73,0,220
3,71,108,20
3,71,0,190
3,73,106,50
3,73,0,450
3,68,66,145
3,68,0,75
3,66,78,35
3,66,0,100
3,68,91,15
3,68,0,90
3,71,111,30
3,71,0,215
3,69,94,55
3,69,0,200
3,68,99,35
3,68,0,220
3,66,103,25
3,66,0,840
3,61,105,10
3,63,111,150
3,61,0,10
3,63,0,235
3,64,104,10
3,64,0,225
3,66,104,5
3,64,92,480
3,66,0,0
3,63,96,220
3,64,0,0
3,63,0,250
3,64,102,10
3,64,0,475
3,56,101,35
3,56,0,85
3,64,89,465
3,64,0,55
3,66,105,65
3,66,0,225
3,68,104,25
3,68,0,260
3,69,113,0
3,69,0,215
3,68,104,35
3,68,0,375
3,66,109,95
3,66,0,225
3,64,104,15
3,64,0,215
3,66,100,25
3,66,0,425
3,63,104,45
3,63,0,450
3,64,106,25
3,64,0,1160
3,73,101,15
3,75,96,30
3,75,0,215
3,76,102,20
3,68,105,20
3,68,0,470
3,69,104,5
3,69,0,1165
3,76,111,10
3,76,106,50
3,76,0,175
3,76,112,65
3,75,104,470
3,76,0,0
3,75,0,175
3,75,99,45
3,75,0,205
3,75,108,55
3,75,0,490
3,76,100,5
3,76,0,400
3,76,91,70
3,76,0,960
3,73,106,10
3,75,103,30
3,75,0,210
3,76,108,30
3,68,104,35
3,68,0,475
3,69,103,5
3,76,113,40
3,76,102,50
3,76,0,195
3,76,109,55
3,75,102,440
3,76,0,15
3,75,0,180
3,75,100,50
3,75,0,195
3,75,104,55
3,75,0,480
3,76,103,5
3,76,0,415
3,76,99,60
3,76,0,1085
3,76,110,375
3,76,0,195
3,78,110,35
3,80,108,5
3,83,102,40
3,83,0,180
3,83,100,70
3,80,98,215
3,80,0,185
3,80,104,45
3,80,0,190
3,80,104,5
3,78,101,30
3,78,0,200
3,78,95,60
3,78,0,715
3,76,105,20
3,76,0,205
3,76,92,30
3,76,0,1005
3,73,109,35
3,75,105,10
3,75,0,230
3,76,109,15
3,68,108,1430
3,76,0,285
3,68,0,175
3,69,116,10
3,69,0,1100
3,76,106,10
3,76,100,60
3,76,0,170
3,76,103,60
3,76,0,170
3,76,106,65
3,75,102,30
3,75,0,175
3,75,106,75
3,75,0,715
3,76,100,10
3,76,0,155
3,76,104,60
3,76,0,2060
3,75,99,605
3,75,0,200
3,73,86,40
3,73,0,605
3,71,61,185
3,71,0,150
3,73,71,40
3,73,0,630
3,71,59,55
3,71,0,225
3,73,90,30
3,71,72,5
3,71,0,650
3,68,110,8905
3,68,0,100
3,71,110,20
3,71,0,110
3,73,112,10
3,71,111,240
3,73,0,0
3,71,0,415
3,68,90,65
3,68,0,105
3,71,102,15
3,71,0,120
