track,note,velocity,time
2,67,79,26360
2,55,87,0
2,69,101,16
2,57,81,0
2,71,79,8
2,59,99,0
2,74,67,8
2,62,64,0
2,67,79,72
2,55,87,0
2,69,89,8
2,57,71,0
2,71,71,8
2,59,81,0
2,69,81,8
2,57,73,0
2,67,79,8
2,55,77,0
2,67,79,132
2,55,87,0
2,69,101,8
2,57,81,0
2,71,79,8
2,59,99,0
2,74,67,8
2,62,64,0
2,67,79,72
2,55,87,0
2,69,89,8
2,57,71,0
2,71,71,8
2,59,81,0
2,69,67,8
2,57,65,0
2,69,75,13192
2,71,81,8
2,74,69,8
2,62,69,1652
2,57,67,0
2,67,79,128
2,55,87,0
2,69,101,8
2,57,81,0
2,71,79,8
2,59,99,0
2,74,67,8
2,62,64,0
2,67,79,72
2,55,87,0
2,69,89,8
2,57,71,0
2,71,71,8
2,59,81,0
2,69,81,8
2,57,73,0
2,67,79,8
2,55,77,0
2,67,79,132
2,55,87,0
2,69,101,8
2,57,81,0
2,71,79,8
2,59,99,0
2,74,67,8
2,62,64,0
2,67,79,72
2,55,87,0
2,69,89,16
2,57,71,0
2,71,71,384
2,59,81,0
2,69,73,16
2,57,61,0
2,69,75,32
2,57,85,0
2,62,71,8
2,50,66,0
2,67,79,12928
2,55,87,0
2,69,101,8
2,57,81,0
2,71,79,8
2,59,99,0
2,74,67,8
2,62,64,0
2,67,79,72
2,55,87,0
2,69,89,8
2,57,71,0
2,71,71,8
2,59,81,0
2,69,81,8
2,57,73,0
2,67,79,8
2,55,77,0
2,67,79,132
2,55,87,0
2,69,101,8
2,57,81,0
2,71,79,8
2,59,99,0
2,74,67,8
2,62,64,0
2,67,87,72
2,55,85,0
2,69,105,8
2,57,75,0
2,71,81,8
2,59,93,0
2,69,75,8
2,57,61,0
3,36,97,1816
3,31,99,8
3,31,93,40
3,38,99,24
3,28,91,28
3,28,91,108
3,36,97,8
3,31,95,32
3,31,95,124
3,38,107,8
3,26,83,768
3,36,97,80
3,31,99,8
3,31,93,40
3,38,111,24
3,31,101,16
3,31,103,112
3,36,97,56
3,31,95,32
3,31,95,124
3,38,107,8
3,26,83,768
3,36,97,80
3,31,99,8
3,31,93,40
3,38,111,24
3,31,101,16
3,31,103,112
3,36,97,56
3,31,95,32
3,31,95,124
3,38,107,8
3,26,83,768
3,36,97,80
3,31,99,8
3,31,93,40
3,38,111,24
3,31,101,16
3,31,103,112
3,36,97,56
3,31,95,32
3,31,95,124
3,38,107,8
3,26,83,768
3,28,119,80
3,28,113,104
3,36,115,20
3,36,115,132
3,38,107,8
3,38,109,132
3,31,107,28
3,30,105,8
3,28,115,24
3,28,113,80
3,36,111,24
3,36,105,72
3,38,113,44
3,38,105,140
3,31,107,12
3,30,115,20
3,28,119,36
3,28,113,104
3,36,115,20
3,36,115,132
3,38,111,8
3,38,107,84
3,31,109,24
3,30,105,16
3,28,115,20
3,28,113,80
3,36,111,24
3,36,105,72
3,38,117,44
3,33,107,24
3,26,103,8
3,38,58,480
3,38,105,28
3,26,83,8
3,36,97,68
3,31,99,8
3,31,93,40
3,38,99,24
3,28,91,28
3,28,91,108
3,36,97,8
3,31,95,32
3,31,95,124
3,26,117,8
3,26,117,72
3,33,103,64
3,33,101,80
3,33,117,84
3,26,115,24
3,26,111,64
3,30,109,16
3,31,91,36
3,33,107,12
3,26,117,12
3,36,97,8
3,31,99,8
3,31,93,40
3,38,111,24
3,31,101,16
3,31,103,112
3,36,97,56
3,31,95,32
3,31,95,124
3,38,107,8
3,26,83,768
3,48,95,0
3,43,73,8
3,36,83,16
3,31,91,24
3,43,95,8
3,31,85,192
3,38,111,36
3,31,101,16
3,31,103,112
3,36,97,56
3,31,95,32
3,31,95,124
3,38,115,8
3,45,103,8
3,50,107,8
3,45,58,24
3,50,85,8
3,45,59,12
3,50,89,8
3,38,109,8
3,28,119,40
3,28,113,104
3,36,115,20
3,36,115,132
3,38,107,8
3,38,109,132
3,31,107,28
3,30,105,8
3,28,115,24
3,28,113,80
3,36,111,24
3,36,105,72
3,38,113,44
3,38,105,140
3,31,107,12
3,30,115,20
3,28,119,36
3,28,113,104
3,36,115,20
3,36,115,132
3,38,111,8
3,38,107,84
3,31,109,24
3,30,105,16
3,28,115,20
3,28,113,80
3,36,111,24
3,36,105,72
3,38,117,44
3,33,107,24
3,26,103,8
3,38,58,480
3,38,105,28
3,26,83,8
3,38,117,68
3,33,107,24
3,26,103,8
3,38,58,480
3,38,105,28
3,26,83,8
3,38,117,68
3,33,107,24
3,26,103,8
3,38,58,480
3,38,105,28
3,26,83,8
3,38,117,68
3,33,105,8
3,38,109,24
3,26,95,8
3,38,107,496
3,36,97,32
3,31,99,8
3,31,93,40
3,38,99,24
3,28,91,28
3,28,91,108
3,36,97,8
3,31,95,32
3,31,95,124
3,26,117,8
3,26,117,72
3,33,103,64
3,33,101,80
3,33,117,84
3,26,115,24
3,26,111,64
3,30,109,16
3,31,91,36
3,33,107,12
3,26,117,12
3,36,97,8
3,31,99,8
3,31,93,40
3,38,99,24
3,28,91,28
3,28,91,108
3,36,97,8
3,31,95,32
3,31,95,124
3,26,117,8
3,26,117,72
3,33,103,64
3,33,101,80
3,33,117,84
3,26,115,24
3,26,111,64
3,30,109,16
3,31,91,36
3,33,107,12
3,26,117,12
3,28,119,8
3,28,113,104
3,36,115,20
3,36,115,132
3,38,107,8
3,38,109,132
3,31,107,28
3,30,105,8
3,28,115,24
3,28,113,80
3,36,111,24
3,36,105,72
3,38,113,44
3,38,105,140
3,31,107,12
3,30,115,20
3,28,119,36
3,28,113,104
3,36,115,20
3,36,115,132
3,38,111,8
3,38,107,84
3,31,109,24
3,30,105,16
3,28,115,20
3,28,113,80
3,36,111,24
3,36,105,72
3,26,115,44
3,33,101,8
3,38,107,8
3,26,111,36
4,62,116,24
4,67,110,12
4,66,104,20
4,64,94,16
4,67,108,16
4,62,106,16
4,62,88,288
4,69,108,16
4,69,108,32
4,69,106,28
4,67,102,20
4,69,100,52
4,71,112,16
4,72,112,8
4,64,100,8
4,64,102,28
4,72,106,0
4,71,108,20
4,69,106,8
4,69,104,28
4,67,102,16
4,69,94,16
4,62,110,20
4,67,112,12
4,66,108,8
4,64,104,8
4,67,108,56
4,62,106,16
4,62,88,288
4,69,108,16
4,69,108,32
4,69,106,28
4,67,102,20
4,69,100,52
4,71,112,16
4,72,112,8
4,64,100,8
4,64,102,28
4,72,106,0
4,71,108,20
4,69,106,8
4,69,104,28
4,67,102,16
4,69,94,16
4,62,112,0
4,67,104,8
4,66,102,20
4,64,102,8
4,67,108,56
4,62,106,16
4,62,88,288
4,69,108,16
4,69,108,32
4,69,106,28
4,67,102,20
4,69,100,52
4,71,112,16
4,72,112,8
4,64,94,16
4,64,90,52
4,72,102,4
4,71,112,16
4,69,102,12
4,69,98,32
4,67,98,20
4,74,92,8
4,76,110,36
4,78,114,16
4,79,104,4
4,71,104,20
4,74,104,24
4,72,114,24
4,71,106,8
4,69,112,24
4,67,104,8
4,69,106,8
4,69,108,116
4,71,94,24
4,71,98,100
4,71,102,68
4,76,116,20
4,78,112,24
4,79,112,28
4,71,102,20
4,74,100,20
4,72,102,24
4,71,104,8
4,69,106,24
4,67,102,12
4,68,102,8
4,69,110,16
4,69,90,40
4,69,92,28
4,67,90,20
4,71,110,188
4,76,118,20
4,78,108,28
4,79,114,24
4,71,104,36
4,74,110,24
4,72,116,20
4,71,102,12
4,69,110,16
4,67,104,12
4,69,106,36
4,69,108,116
4,71,94,24
4,71,98,100
4,71,102,68
4,76,116,20
4,78,112,24
4,79,112,28
4,71,102,20
4,74,100,20
4,72,102,24
4,71,104,8
4,69,106,24
4,67,102,12
4,68,102,8
4,69,98,16
4,69,102,36
4,69,102,40
4,69,90,12
4,62,112,12
4,67,112,8
4,66,102,8
4,64,100,12
4,67,108,56
4,62,106,16
4,62,88,288
4,69,108,16
4,69,108,32
4,69,106,28
4,67,102,20
4,69,100,52
4,71,112,16
4,72,112,8
4,64,98,32
4,64,100,40
4,72,94,16
4,71,104,16
4,69,106,16
4,69,96,28
4,67,96,8
4,69,88,16
4,62,110,176
4,67,110,12
4,66,112,8
4,64,104,16
4,67,108,56
4,62,106,16
4,62,88,288
4,69,108,16
4,69,108,32
4,69,106,28
4,67,102,20
4,69,100,52
4,71,112,16
4,72,112,8
4,64,104,28
4,64,106,40
4,72,106,12
4,71,114,20
4,69,106,24
4,69,102,32
4,67,104,8
4,74,102,16
4,74,116,0
4,76,112,52
4,78,114,8
4,79,104,4
4,71,104,20
4,74,104,24
4,72,114,24
4,71,106,8
4,69,112,24
4,67,104,8
4,69,106,8
4,69,108,116
4,71,94,24
4,71,98,100
4,71,102,68
4,76,116,20
4,78,112,24
4,79,112,28
4,71,102,20
4,74,100,20
4,72,102,24
4,71,104,8
4,69,106,24
4,67,102,12
4,68,102,8
4,69,110,16
4,69,90,40
4,69,92,28
4,67,90,20
4,71,110,188
4,76,118,20
4,78,108,28
4,79,114,24
4,71,104,36
4,74,110,24
4,72,116,20
4,71,102,12
4,69,110,16
4,67,104,12
4,69,112,36
4,69,108,104
4,71,114,8
4,71,108,92
4,71,100,64
4,76,112,8
4,78,112,8
4,79,108,12
4,78,112,48
4,76,112,12
4,74,100,104
4,72,102,24
4,71,104,8
4,69,106,24
4,67,102,12
4,68,102,8
4,67,100,4
4,66,100,8
4,66,96,28
4,67,104,8
4,69,110,8
4,69,108,100
4,67,102,8
4,69,90,16
4,71,114,132
4,72,112,12
4,74,112,16
4,74,102,20
4,72,102,24
4,74,90,24
4,74,100,48
4,76,98,8
4,78,100,8
4,79,96,24
4,78,100,8
4,79,98,24
4,79,86,40
4,71,114,8
4,76,116,8
4,78,112,16
4,79,104,4
4,71,104,20
4,74,104,24
4,72,114,24
4,71,106,8
4,69,112,24
4,67,104,8
4,69,106,8
4,69,108,116
4,71,94,24
4,71,98,100
4,71,102,68
4,76,116,20
4,78,112,24
4,79,112,28
4,71,102,20
4,74,100,20
4,72,102,24
4,71,104,8
4,69,106,24
4,67,102,12
4,68,102,8
4,69,110,16
4,69,90,40
4,69,92,28
4,67,90,20
4,71,110,480
4,76,118,20
4,78,108,28
4,79,114,24
4,71,104,36
4,74,110,24
4,72,116,20
4,71,102,12
4,69,110,16
4,67,104,12
4,69,106,36
4,69,108,116
4,71,94,24
4,71,98,100
4,71,102,68
4,76,116,20
4,78,112,24
4,79,112,28
4,71,102,20
4,74,100,20
4,72,102,24
4,71,104,8
4,69,106,24
4,67,102,12
4,68,102,8
4,69,110,16
4,62,96,412
4,67,104,12
4,66,104,8
4,64,96,16
4,67,108,8
4,62,106,16
4,62,88,288
4,69,108,16
4,69,108,32
4,69,106,28
4,67,102,20
4,69,100,52
4,71,92,16
4,72,94,44
4,64,63,12
4,64,88,36
4,62,80,8
4,69,74,12
4,69,84,40
4,69,94,36
4,67,64,8
4,67,84,32
5,62,109,1244
5,50,109,0
5,66,112,184
5,54,112,0
5,67,107,0
5,55,107,0
5,66,109,16
5,54,109,0
5,64,114,36
5,52,114,0
5,67,118,16
5,55,118,0
5,62,112,20
5,50,112,0
5,62,105,60
5,50,105,0
5,69,112,8
5,57,112,0
5,69,107,24
5,57,107,0
5,69,114,36
5,57,114,0
5,67,112,32
5,55,112,0
5,70,105,16
5,58,105,0
5,71,99,24
5,59,99,0
5,69,112,16
5,57,112,0
5,71,107,12
5,59,107,0
5,72,112,8
5,60,112,0
5,64,114,44
5,52,114,0
5,72,109,24
5,60,109,0
5,71,114,8
5,59,114,0
5,69,118,16
5,57,118,0
5,69,112,60
5,57,112,0
5,67,112,8
5,55,112,0
5,68,112,8
5,56,112,0
5,69,101,0
5,57,101,0
5,66,112,60
5,54,112,0
5,64,112,12
5,52,112,0
5,66,95,8
5,54,95,0
5,64,80,36
5,52,80,0
5,62,103,20
5,50,103,0
5,57,107,12
5,45,107,0
5,55,99,8
5,43,99,0
5,57,92,4660
5,62,97,24
5,66,101,36
5,43,101,288
5,43,84,64
5,42,92,16
5,50,101,4664
5,57,101,16
5,62,99,20
5,66,99,40
5,57,107,1736
5,59,101,384
5,62,109,4
5,62,103,40
5,66,48,2220
5,62,56,0
5,57,47,0
5,54,73,48
5,50,81,0
5,66,87,4
5,62,94,0
5,57,79,0
5,54,100,48
5,50,98,0
5,55,101,1444
5,57,116,32
5,59,99,8
5,62,103,20
5,55,103,436
5,57,105,24
5,59,105,24
5,57,112,20
5,55,99,16
5,55,107,136
5,57,112,4
5,59,116,28
5,62,107,20
5,57,109,20
5,55,103,36
5,57,112,24
5,59,112,16
5,57,107,8468
5,59,101,384
5,62,109,4
5,62,103,40
5,66,46,2220
5,62,54,0
5,57,45,0
5,54,71,48
5,50,79,0
5,66,85,4
5,62,92,0
5,57,77,0
5,54,98,48
5,50,96,0
5,48,81,1364
5,55,96,44
5,52,94,4
5,60,96,20
5,64,96,28
5,62,109,4
5,62,103,40
5,55,101,3948
5,57,116,32
5,59,99,8
5,62,103,20
5,55,103,436
5,57,105,24
5,59,105,24
5,57,112,20
5,55,99,16
5,55,107,136
5,57,112,4
5,59,116,28
5,62,107,20
5,57,109,20
5,55,103,36
5,57,112,24
5,59,112,16
5,57,109,4
5,57,109,560
5,57,109,560
5,57,109,560
5,62,88,752
5,62,103,20
5,62,103,48
5,55,109,12332
5,57,107,20
5,59,109,36
5,62,103,384
5,57,112,1144
5,55,105,84
5,57,107,20
5,59,109,32
5,57,112,384
5,55,105,8
5,55,114,168
5,57,112,20
5,59,114,20
5,62,105,384
5,57,99,1144
5,54,103,0
5,55,109,12
5,57,107,20
5,59,105,20
5,52,56,5688
5,47,51,0
5,40,59,0
5,50,90,500
5,55,61,32
5,57,67,32
6,57,73,19672
6,57,86,132
6,59,95,20
6,60,95,340
6,64,90,0
6,62,93,0
6,55,88,4
6,57,76,4
6,57,76,372
6,66,76,0
6,62,78,0
6,59,70,12
6,62,84,96
6,67,88,96
6,55,73,412
6,62,88,0
6,60,82,0
6,57,71,76
6,66,60,220
6,62,79,0
6,62,56,80
6,66,76,92
6,62,67,56
6,62,41,40
6,74,72,204
6,66,64,0
6,74,88,16
6,66,88,0
6,60,95,18880
6,64,90,0
6,62,93,0
6,55,88,4
6,57,76,4
6,57,76,372
6,66,76,0
6,62,78,0
6,59,70,12
6,62,84,96
6,67,88,96
6,55,73,412
6,62,88,0
6,60,82,0
6,57,71,76
6,62,84,0
6,69,78,24
6,69,112,100
6,62,112,0
6,60,95,544
6,64,90,0
6,62,93,0
6,55,88,4
6,57,76,4
6,57,76,372
6,66,76,0
6,62,78,0
6,59,70,12
6,62,84,96
6,67,88,96
6,55,73,412
6,62,88,0
6,60,82,0
6,57,71,76
6,66,60,220
6,62,79,0
6,62,56,80
6,66,76,92
6,62,67,56
6,62,41,40
6,74,72,204
6,66,64,0
6,74,88,16
6,66,88,0
6,64,118,13600
6,66,88,4
6,64,76,32
6,62,97,24
6,57,101,0
6,67,84,96
6,62,76,0
6,62,101,64
6,67,97,76
6,66,95,12
6,62,79,0
6,54,80,8
6,62,95,20
6,69,105,96
6,64,90,16
6,60,84,0
6,62,95,16
6,64,82,20
6,60,70,0
6,66,88,28
6,62,99,0
6,62,86,36
7,50,107,38104
7,55,115,40
7,54,109,8
7,52,109,12
7,55,111,24
7,50,107,12
7,50,99,92
7,57,113,8
7,57,107,28
7,57,109,24
7,55,111,28
7,58,109,24
7,59,103,0
7,57,109,0
7,59,113,16
7,60,111,8
7,52,105,24
7,60,101,48
7,59,99,8
7,57,99,12
7,57,97,28
7,55,99,24
7,55,101,32
7,57,67,84
7,50,107,30212
7,55,115,40
7,54,109,8
7,52,109,12
7,55,111,24
7,50,107,12
7,50,99,92
7,57,113,8
7,57,107,28
7,57,109,24
7,55,111,28
7,58,109,24
7,59,103,0
7,57,109,8
7,59,113,16
7,60,111,8
7,52,105,24
7,60,101,48
7,59,99,8
7,57,99,12
7,57,97,28
7,55,99,24
7,55,101,32
7,57,67,8
