track,note,velocity,time
1,42,85,3600
1,35,85,2
1,35,85,2
1,35,85,2
1,37,85,2
1,38,85,2
1,35,85,2
1,33,85,2
1,33,85,2
1,33,85,2
1,42,85,2
1,43,85,2
1,43,85,2
1,43,85,2
1,45,85,2
1,35,85,2
1,35,85,2
1,35,85,2
1,37,85,2
1,38,85,2
1,35,85,2
1,33,85,2
1,33,85,2
1,33,85,2
1,42,85,2
1,43,85,2
1,43,85,2
1,43,85,2
1,45,85,2
1,35,85,2
1,47,85,2
1,35,85,2
1,43,85,2
1,43,85,2
1,43,85,2
1,43,85,2
1,43,85,2
1,42,85,2
1,40,85,2
1,52,85,2
1,40,85,2
1,33,85,2
1,33,85,2
1,42,85,2
1,42,85,2
1,45,85,2
1,42,85,2
1,35,85,2
1,47,85,2
1,35,85,2
1,35,85,2
1,33,85,2
1,43,85,2
1,43,85,2
1,43,85,2
1,43,85,2
1,42,85,2
1,40,85,2
1,40,85,2
1,52,85,2
1,40,85,2
1,42,85,2
1,42,85,2
1,42,85,2
1,35,85,2
1,35,85,2
1,33,85,2
1,43,85,2
1,43,85,2
1,42,85,2
1,43,85,2
1,42,85,2
1,43,85,2
1,40,85,2
1,40,85,2
1,40,85,2
1,42,85,2
1,42,85,2
1,42,85,2
1,42,85,2
1,42,85,2
1,43,85,2
1,43,85,2
1,43,85,2
1,42,85,2
1,42,85,2
1,42,85,2
1,35,85,2
1,35,85,2
1,35,85,2
1,37,85,2
1,38,85,2
1,35,85,2
1,33,85,2
1,33,85,2
1,33,85,2
1,42,85,2
1,43,85,2
1,43,85,2
1,43,85,2
1,45,85,98
1,35,85,98
1,35,85,2
1,35,85,2
1,37,85,2
1,38,85,2
1,35,85,2
1,33,85,2
1,33,85,2
1,33,85,2
1,42,85,2
1,43,85,2
1,43,85,2
1,33,85,2
1,45,85,2
1,33,85,50
1,35,85,2
1,35,85,2
1,47,85,2
1,35,85,2
1,35,85,290
1,33,85,2
1,43,85,2
1,43,85,2
1,55,85,2
1,43,85,2
1,43,85,2
1,33,85,2
1,45,85,2
1,33,85,2
1,33,85,2
1,42,85,2
1,54,85,2
1,43,85,2
1,43,85,2
1,43,85,2
1,42,85,2
1,40,85,2
1,42,85,2
1,43,85,2
1,45,85,2
1,35,85,2
1,47,85,2
1,35,85,2
1,43,85,2
1,55,85,2
1,43,85,2
1,43,85,2
1,43,85,2
1,42,85,2
1,40,85,2
1,52,85,2
1,40,85,2
1,33,85,2
1,33,85,2
1,42,85,2
1,42,85,2
1,45,85,2
1,42,85,2
1,35,85,2
1,47,85,2
1,35,85,2
1,35,85,2
1,33,85,2
1,43,85,2
1,55,85,2
1,43,85,2
1,43,85,2
1,43,85,2
1,42,85,2
1,40,85,2
1,40,85,2
1,52,85,2
1,40,85,2
1,42,85,2
1,42,85,2
1,42,85,2
1,35,85,2
1,35,85,2
1,35,85,2
1,37,85,2
1,38,85,2
1,35,85,2
1,33,85,2
1,33,85,2
1,33,85,2
1,42,85,2
1,43,85,2
1,43,85,2
1,43,85,2
1,45,85,98
1,35,85,98
1,35,85,2
1,35,85,2
1,37,85,2
1,38,85,2
1,35,85,2
1,33,85,2
1,33,85,2
1,33,85,2
1,42,85,2
1,43,85,2
1,43,85,2
1,33,85,2
1,45,85,2
1,33,85,50
1,35,85,2
1,35,85,2
1,47,85,2
1,35,85,2
1,35,85,290
1,33,85,2
1,43,85,2
1,43,85,2
1,55,85,2
1,43,85,2
1,43,85,2
1,33,85,2
1,45,85,2
1,33,85,2
1,33,85,2
1,42,85,2
1,54,85,2
1,43,85,2
1,43,85,2
1,43,85,2
1,42,85,2
1,40,85,2
1,42,85,2
1,43,85,2
1,45,85,2
1,35,85,2
1,35,85,98
1,35,85,2
1,47,85,50
1,42,85,2
1,38,85,2
1,35,85,2
1,33,85,2
1,33,85,2
1,33,85,194
1,33,85,2
1,40,85,98
1,45,85,2
1,47,85,2
1,45,85,2
1,33,85,2
1,43,85,2
1,43,85,98
1,43,85,2
1,43,85,50
1,55,85,2
1,38,85,2
1,43,85,2
1,42,85,2
1,42,85,2
1,42,85,194
1,42,85,2
1,42,85,50
1,42,85,2
1,37,85,2
1,42,85,2
1,35,85,2
1,35,85,2
1,35,85,194
1,35,85,2
1,35,85,50
1,47,85,2
1,42,85,2
1,35,85,2
1,33,85,2
1,33,85,2
1,40,85,146
1,45,85,2
1,47,85,2
1,45,85,2
1,40,85,2
1,33,85,2
1,33,85,2
1,43,85,2
1,43,85,2
1,43,85,194
1,43,85,2
1,43,85,98
1,55,85,2
1,43,85,2
1,42,85,2
1,35,85,2
1,37,85,2
1,42,85,2
1,42,85,2
1,35,85,2
1,35,85,2
1,35,85,2
1,37,85,2
1,38,85,2
1,35,85,2
1,33,85,2
1,33,85,2
1,33,85,2
1,42,85,2
1,43,85,2
1,43,85,2
1,43,85,2
1,45,85,2
1,35,85,2
1,35,85,2
1,35,85,2
1,37,85,2
1,38,85,2
1,35,85,2
1,33,85,2
1,33,85,2
1,33,85,2
1,33,85,2
1,42,85,2
1,43,85,2
1,43,85,2
1,33,85,2
1,45,85,2
1,33,85,50
1,35,85,2
1,35,85,2
1,47,85,2
1,35,85,2
1,47,85,290
1,45,85,2
1,43,85,2
1,43,85,2
1,55,85,2
1,43,85,2
1,43,85,2
1,33,85,2
1,45,85,2
1,33,85,2
1,33,85,2
1,42,85,2
1,54,85,2
1,43,85,2
1,43,85,2
1,43,85,2
1,42,85,2
1,40,85,2
1,42,85,2
1,43,85,2
1,45,85,2
1,47,85,2
1,45,85,2
1,40,85,2
1,42,85,2
1,43,85,2
1,43,85,2
1,43,85,2
1,42,85,2
1,40,85,2
1,42,85,2
1,42,85,2
1,43,85,2
1,45,85,2
1,35,85,2
2,59,110,3312
2,62,110,2
2,61,110,2
2,59,110,2
2,61,110,2
2,62,110,2
2,59,110,2
2,57,110,2
2,54,110,2
2,52,110,2
2,50,110,2
2,52,110,2
2,54,110,2
2,50,110,2
2,47,110,2
2,50,110,2
2,52,110,2
2,54,110,2
2,57,110,2
2,54,110,2
2,59,110,2
2,62,110,2
2,61,110,2
2,59,110,2
2,61,110,2
2,62,110,2
2,59,110,2
2,57,110,2
2,66,110,2
2,64,110,2
2,62,110,2
2,64,110,2
2,66,110,2
2,62,110,2
2,59,110,2
2,62,110,2
2,61,110,2
2,59,110,2
2,57,110,2
2,54,110,2
2,52,110,2
2,50,110,2
2,59,110,10464
2,54,110,11616
2,52,110,2
2,52,110,2
2,62,110,3458
2,61,110,2
2,59,110,2
2,61,110,2
2,59,110,2
2,71,100,15554
2,66,100,96
2,66,100,48
2,62,100,48
2,62,100,2
2,62,100,2
2,64,100,2
2,59,100,2
2,59,100,96
2,59,100,2
2,62,100,2
2,55,100,2
2,57,100,96
2,57,100,2
2,50,100,2
2,47,100,2
2,52,100,2
2,49,100,2
2,45,100,2
2,50,100,2
2,47,100,2
2,43,100,2
2,49,100,2
2,50,100,2
2,54,100,2
2,62,100,2
2,61,100,2
2,62,100,2
2,61,100,2
2,57,100,2
2,57,100,2
2,57,100,2
2,59,100,2
2,54,100,2
2,64,100,146
2,61,100,2
2,57,100,2
2,57,100,2
2,57,100,2
2,59,100,2
2,54,100,2
2,54,100,2
2,54,100,2
2,57,100,2
2,50,100,2
2,69,100,2
2,69,100,96
2,69,100,50
2,74,100,48
2,54,100,146
2,57,100,2
2,57,100,2
2,54,100,2
2,61,100,2
2,59,100,2
2,59,100,96
2,61,100,2
2,62,100,2
2,64,100,48
2,62,100,2
2,64,100,2
2,62,100,2
2,61,100,2
2,54,100,96
2,54,100,48
2,52,100,48
2,54,100,2
2,52,100,2
2,54,100,2
2,59,127,2496
2,61,127,2
2,62,127,2
2,64,127,2
2,66,127,2
2,64,127,2
2,62,127,2
3,71,100,3312
3,74,100,2
3,73,100,2
3,71,100,2
3,73,100,2
3,74,100,2
3,71,100,2
3,69,100,2
3,66,100,2
3,64,100,2
3,62,100,2
3,64,100,2
3,66,100,2
3,62,100,2
3,59,100,2
3,62,100,2
3,64,100,2
3,66,100,2
3,69,100,2
3,66,100,2
3,71,100,2
3,74,100,2
3,73,100,2
3,71,100,2
3,73,100,2
3,74,100,2
3,71,100,2
3,69,100,2
3,78,100,2
3,76,100,2
3,74,100,2
3,76,100,2
3,78,100,2
3,74,100,2
3,71,100,2
3,74,100,2
3,73,100,2
3,71,100,2
3,69,100,2
3,66,100,2
3,64,100,2
3,62,100,2
3,71,100,10464
3,66,100,11568
3,64,100,2
3,64,100,2
3,74,100,3458
3,73,100,2
3,71,100,2
3,73,100,2
3,71,100,2
3,83,100,15554
3,78,100,96
3,78,100,48
3,74,100,96
3,74,100,0
3,74,100,2
3,76,100,2
3,71,100,2
3,71,100,96
3,71,100,2
3,74,100,2
3,67,100,2
3,69,100,96
3,69,100,2
3,62,100,2
3,59,100,2
3,64,100,2
3,61,100,2
3,57,100,2
3,62,100,2
3,59,100,2
3,55,100,2
3,61,100,2
3,62,100,2
3,66,100,2
3,74,100,2
3,73,100,2
3,74,100,2
3,73,100,2
3,69,100,2
3,69,100,2
3,69,100,2
3,71,100,2
3,66,100,2
3,76,100,146
3,73,100,2
3,69,100,2
3,69,100,2
3,69,100,2
3,71,100,2
3,66,100,2
3,66,100,96
3,66,100,2
3,69,100,2
3,62,100,2
3,81,100,2
3,81,100,96
3,81,100,50
3,86,100,48
3,66,100,146
3,69,100,2
3,69,100,2
3,66,100,2
3,73,100,48
3,71,100,48
3,71,100,96
3,73,100,2
3,74,100,2
3,76,100,48
3,74,100,2
3,76,100,2
3,74,100,2
3,73,100,2
3,66,100,96
3,66,100,48
3,64,100,48
3,66,100,2
3,64,100,2
3,66,100,2
3,71,100,2496
3,73,100,2
3,74,100,2
3,76,100,2
3,78,100,2
3,76,100,2
3,74,100,2
4,86,85,2256
4,88,85,2
4,90,85,2
4,69,85,19586
4,71,85,2
4,73,85,2
4,74,85,2
4,76,85,2
4,78,85,2
4,79,85,2
4,81,85,2
4,83,85,2
4,85,85,2
4,83,85,2
4,85,85,2
4,83,85,2
4,69,85,10370
4,71,85,2
4,73,85,2
4,74,85,2
4,76,85,2
4,78,85,2
4,79,85,2
4,81,85,2
4,83,85,2
4,85,85,2
4,83,85,2
4,85,85,2
4,83,85,2
4,83,85,10706
4,85,85,2
4,83,85,2
4,85,85,2
4,83,85,2
4,74,85,2
4,71,85,2
4,73,85,2
4,74,85,2
4,76,85,2
4,73,85,2
4,74,85,2
4,76,85,2
4,78,85,2
4,74,85,2
4,76,85,2
4,78,85,2
4,79,85,2
4,81,85,2
4,83,85,2
4,85,85,2
4,86,85,2
4,86,85,2
4,85,85,2
4,83,85,2
4,85,85,2
4,83,85,2
4,85,85,2
4,87,85,2
5,71,70,3792
5,74,70,0
5,78,70,0
5,69,70,2
5,73,70,0
5,76,70,0
5,67,70,2
5,71,70,0
5,74,70,0
5,78,70,0
5,67,70,2
5,71,70,0
5,74,70,0
5,69,70,2
5,73,70,0
5,76,70,0
5,71,70,2
5,74,70,0
5,78,70,0
5,69,70,2
5,73,70,0
5,76,70,0
5,67,70,2
5,71,70,0
5,74,70,0
5,78,70,0
5,67,70,2
5,71,70,0
5,74,70,0
5,69,70,2
5,73,70,0
5,76,70,0
5,71,70,2
5,74,70,0
5,78,70,0
5,73,70,1826
5,76,70,0
5,78,70,0
5,83,70,0
5,66,70,2306
5,71,70,0
5,73,70,0
5,76,70,0
5,66,70,2
5,70,70,0
5,73,70,0
5,76,70,0
5,67,70,3074
5,71,70,0
5,66,70,2
5,70,70,0
5,73,70,0
5,71,70,2
5,74,70,0
5,78,70,0
5,69,70,2
5,73,70,0
5,76,70,0
5,67,70,2
5,71,70,0
5,74,70,0
5,78,70,0
5,67,70,2
5,71,70,0
5,74,70,0
5,72,70,2
5,76,70,0
5,79,70,0
5,71,70,2
5,74,70,0
5,78,70,0
5,69,70,2
5,73,70,0
5,76,70,0
5,67,70,2
5,71,70,0
5,74,70,0
5,78,70,0
5,71,70,386
5,74,70,0
5,78,70,0
5,67,70,2
5,71,70,0
5,74,70,0
5,69,70,2
5,73,70,0
5,76,70,0
5,66,70,2
5,71,70,0
5,73,70,0
5,76,70,0
5,66,70,2
5,70,70,0
5,73,70,0
5,76,70,0
5,67,70,2
5,71,70,0
5,74,70,0
5,67,70,2
5,71,70,0
5,74,70,0
5,66,70,2
5,69,70,0
5,73,70,0
5,76,70,0
5,64,70,2
5,67,70,0
5,71,70,0
5,74,70,0
5,66,70,2
5,69,70,0
5,73,70,0
5,76,70,0
5,67,70,2
5,71,70,0
5,74,70,0
5,69,70,2
5,71,70,0
5,73,70,0
5,76,70,0
5,71,70,3026
5,78,70,0
5,83,70,0
5,66,70,1538
5,71,70,0
5,73,70,0
5,76,70,0
5,66,70,2
5,70,70,0
5,73,70,0
5,76,70,0
5,71,70,2
5,74,70,0
5,78,70,0
5,69,70,2
5,73,70,0
5,76,70,0
5,67,70,2
5,71,70,0
5,74,70,0
5,78,70,0
5,67,70,2
5,71,70,0
5,74,70,0
5,72,70,2
5,76,70,0
5,79,70,0
5,71,70,2
5,74,70,0
5,78,70,0
5,69,70,2
5,73,70,0
5,76,70,0
5,67,70,2
5,71,70,0
5,74,70,0
5,78,70,0
5,71,70,386
5,74,70,0
5,78,70,0
5,67,70,2
5,71,70,0
5,74,70,0
5,69,70,2
5,73,70,0
5,76,70,0
5,66,70,2
5,71,70,0
5,73,70,0
5,76,70,0
5,66,70,2
5,70,70,0
5,73,70,0
5,76,70,0
5,67,70,2
5,71,70,0
5,74,70,0
5,67,70,2
5,71,70,0
5,74,70,0
5,66,70,2
5,69,70,0
5,73,70,0
5,76,70,0
5,64,70,2
5,67,70,0
5,71,70,0
5,74,70,0
5,66,70,2
5,69,70,0
5,73,70,0
5,76,70,0
5,67,70,2
5,71,70,0
5,74,70,0
5,69,70,2
5,71,70,0
5,73,70,0
5,76,70,0
5,71,70,2
5,74,70,0
5,78,70,0
5,69,70,2
5,73,70,0
5,76,70,0
5,67,70,2
5,71,70,0
5,74,70,0
5,78,70,0
5,66,70,2
5,69,70,0
5,73,70,0
5,66,70,2
5,70,70,0
5,73,70,0
5,76,70,0
5,71,70,2
5,74,70,0
5,78,70,0
5,69,70,2
5,73,70,0
5,76,70,0
5,67,70,2
5,71,70,0
5,74,70,0
5,66,70,2
5,71,70,0
5,73,70,0
5,76,70,0
5,66,70,2
5,70,70,0
5,73,70,0
5,76,70,0
5,71,70,2
5,74,70,0
5,78,70,0
5,69,70,2
5,73,70,0
5,76,70,0
5,67,70,2
5,71,70,0
5,74,70,0
5,78,70,0
5,67,70,2
5,71,70,0
5,74,70,0
5,69,70,2
5,73,70,0
5,76,70,0
5,71,70,2
5,74,70,0
5,78,70,0
5,69,70,2
5,73,70,0
5,76,70,0
5,67,70,2
5,71,70,0
5,74,70,0
5,67,70,2
5,71,70,0
5,74,70,0
5,67,70,2
5,71,70,0
5,74,70,0
5,67,70,50
5,71,70,0
5,74,70,0
5,71,70,2
5,74,70,0
5,78,70,0
5,67,70,2
5,71,70,0
5,74,70,0
5,69,70,2
5,73,70,0
5,76,70,0
5,66,70,2
5,71,70,0
5,73,70,0
5,76,70,0
5,66,70,2
5,70,70,0
5,73,70,0
5,76,70,0
5,67,70,2
5,71,70,0
5,74,70,0
5,67,70,2
5,71,70,0
5,74,70,0
5,66,70,2
5,69,70,0
5,73,70,0
5,76,70,0
5,64,70,2
5,67,70,0
5,71,70,0
5,74,70,0
5,66,70,2
5,69,70,0
5,73,70,0
5,76,70,0
5,67,70,2
5,71,70,0
5,74,70,0
5,69,70,2
5,71,70,0
5,73,70,0
5,76,70,0
5,67,70,770
5,71,70,0
5,74,70,0
5,67,70,2
5,71,70,0
5,74,70,0
5,66,70,2
5,69,70,0
5,73,70,0
5,76,70,0
5,64,70,2
5,67,70,0
5,71,70,0
5,74,70,0
5,66,70,2
5,69,70,0
5,73,70,0
5,76,70,0
5,67,70,2
