track,note,velocity,time
1,59,69,1136
1,68,70,0
1,59,86,76
1,66,80,8
1,64,70,4
1,66,75,0
1,57,83,24
1,61,79,4
1,59,96,20
1,61,85,4
1,61,83,8
1,57,100,8
1,64,73,0
1,57,65,96
1,52,62,0
1,61,74,0
1,59,79,16
1,64,75,0
1,68,78,0
1,54,69,124
1,59,58,0
1,63,60,0
1,66,65,0
1,72,72,372
1,73,95,20
1,71,92,24
1,68,78,16
1,73,85,44
1,57,63,0
1,64,58,0
1,61,73,4
1,71,86,684
1,76,87,4
1,73,75,4
1,69,86,40
1,76,86,0
1,59,66,16
1,64,68,0
1,68,71,0
1,59,72,88
1,63,82,0
1,66,80,0
1,74,115,380
1,78,82,0
1,75,82,8
1,73,78,68
1,71,80,124
1,71,65,40
1,73,78,0
1,76,72,0
1,68,60,0
1,36,109,512
1,37,111,20
1,38,115,16
1,60,75,0
1,57,72,0
1,64,55,8
1,67,86,0
1,79,72,364
1,80,58,4
1,66,71,8
1,72,75,4
1,76,102,8
1,79,69,32
1,64,72,16
1,59,83,0
1,68,81,0
1,80,72,4
1,66,79,52
1,63,79,0
1,54,85,4
1,59,72,0
1,74,96,356
1,78,83,16
1,75,89,4
1,71,89,36
1,73,82,28
1,76,94,8
1,73,97,0
1,56,70,16
1,61,75,0
1,64,73,0
1,59,72,8
1,61,71,0
1,64,75,0
1,56,77,8
1,68,66,240
1,73,100,76
1,76,104,0
1,68,63,16
1,71,82,12
1,57,72,32
1,64,67,0
1,61,78,0
1,54,83,0
1,73,77,16
1,76,68,0
1,63,84,48
1,59,86,0
1,66,73,4
1,54,82,0
1,57,89,44
1,64,87,0
1,61,83,0
1,57,96,32
1,61,95,0
1,64,92,0
1,66,92,80
1,63,97,4
1,59,98,0
1,63,105,48
1,59,112,0
1,66,93,0
1,69,84,148
1,66,84,0
1,73,86,0
1,66,75,32
1,73,91,0
1,69,83,0
1,73,85,36
1,69,76,8
1,64,77,0
1,64,90,80
1,73,96,0
1,69,84,0
1,68,85,88
1,71,96,0
1,76,102,0
1,76,86,40
1,68,81,8
1,71,90,0
1,68,79,68
1,76,92,0
1,71,92,0
1,76,92,116
1,68,81,0
1,71,100,0
1,66,82,72
1,69,98,0
1,73,93,0
1,66,82,68
1,69,98,0
1,73,100,0
1,73,92,92
1,64,92,0
1,69,78,0
1,64,89,100
1,69,83,0
1,73,92,0
1,71,87,80
1,64,96,0
1,68,96,0
1,71,86,64
1,68,85,0
1,64,87,0
1,71,83,72
1,64,75,8
1,68,77,0
1,71,86,124
1,68,91,0
1,64,87,8
1,73,92,112
1,66,78,0
1,69,94,0
1,69,94,92
1,73,96,0
1,66,85,0
1,69,85,136
1,73,96,0
1,76,94,4
1,69,91,64
1,73,100,0
1,76,104,0
1,71,92,16
1,76,92,0
1,80,93,0
1,71,94,84
1,75,96,0
1,78,90,8
1,73,100,100
1,68,85,0
1,76,96,0
1,68,85,64
1,71,94,0
1,75,90,0
1,64,82,108
1,57,84,0
1,61,85,0
1,59,78,448
1,64,69,0
1,56,76,0
1,57,79,552
1,64,79,0
1,61,79,0
1,59,90,480
1,64,75,0
1,56,84,0
1,57,96,460
1,52,104,0
1,61,90,0
1,52,112,40
1,57,109,0
1,61,99,0
1,59,100,80
1,63,95,0
1,54,100,0
1,54,95,48
1,63,96,0
1,59,104,0
1,64,83,68
1,57,89,0
1,61,91,0
1,57,59,116
1,61,75,0
1,64,52,0
1,59,69,68
1,68,70,0
1,59,86,76
1,66,80,8
1,64,70,4
1,66,75,0
1,57,83,24
1,61,79,4
1,59,96,20
1,61,85,4
1,61,83,8
1,57,100,8
1,64,73,0
1,57,65,96
1,52,62,0
1,61,74,0
1,68,78,16
1,59,79,0
1,64,80,0
1,54,78,364
1,59,77,0
1,63,85,0
1,66,78,0
1,63,88,112
1,59,90,0
1,54,78,4
1,57,80,212
1,64,82,0
1,61,85,0
1,57,66,360
1,61,75,0
1,64,67,8
1,54,70,4
1,59,84,32
1,64,78,0
1,68,83,0
1,66,74,4
1,59,75,8
1,63,80,0
1,54,75,0
1,63,92,152
1,59,86,0
1,54,89,4
1,64,89,204
1,57,90,0
1,61,90,0
1,36,86,220
1,37,95,20
1,38,98,8
1,60,68,16
1,64,72,0
1,67,77,0
1,71,84,0
1,64,79,152
1,69,79,0
1,60,84,4
1,66,73,0
1,59,92,128
1,64,82,0
1,68,83,0
1,59,80,4
1,66,78,0
1,63,77,0
1,54,90,0
1,56,78,12
1,59,89,0
1,61,78,0
1,64,77,0
1,56,85,212
1,59,92,0
1,61,81,0
1,64,80,0
1,52,87,8
1,61,93,4
1,57,87,0
1,52,92,52
1,57,79,0
1,61,85,8
1,59,92,304
1,63,85,0
1,54,93,0
1,54,103,116
1,59,104,0
1,63,93,0
1,64,86,4
1,57,96,0
1,61,90,8
1,64,86,160
1,57,92,4
1,61,84,0
1,59,92,320
1,63,92,0
1,66,85,0
1,59,94,128
1,63,91,0
1,66,88,0
1,69,84,4
1,66,84,0
1,73,86,0
1,66,75,32
1,73,91,0
1,69,83,0
1,73,85,36
1,69,76,8
1,64,77,0
1,64,90,80
1,73,96,0
1,69,84,0
1,68,85,88
1,71,96,0
1,76,102,0
1,76,86,40
1,68,81,8
1,71,90,0
1,68,79,68
1,76,92,0
1,71,92,0
1,76,92,116
1,68,81,0
1,71,100,0
1,66,82,72
1,69,98,0
1,73,93,0
1,66,82,68
1,69,98,0
1,73,100,0
1,73,92,92
1,64,92,0
1,69,78,0
1,64,89,100
1,69,83,0
1,73,92,0
1,71,87,80
1,64,96,0
1,68,96,0
1,71,86,64
1,68,85,0
1,64,87,0
1,71,83,72
1,64,75,8
1,68,77,0
1,71,86,124
1,68,91,0
1,64,87,8
1,73,92,112
1,66,78,0
1,69,94,0
1,69,94,92
1,73,96,0
1,66,85,0
1,69,85,136
1,73,96,0
1,76,94,4
1,69,91,64
1,73,100,0
1,76,104,0
1,71,92,16
1,76,92,0
1,80,93,0
1,71,94,84
1,75,96,0
1,78,90,8
1,73,100,100
1,68,85,0
1,76,96,0
1,68,85,64
1,71,94,0
1,75,90,0
1,64,82,108
1,57,89,0
1,61,84,0
1,59,80,448
1,64,72,0
1,56,75,0
1,57,83,552
1,64,77,0
1,61,83,0
1,59,90,480
1,64,75,0
1,56,84,0
1,57,96,460
1,52,104,0
1,61,90,0
1,52,112,40
1,57,109,0
1,61,99,0
1,59,100,80
1,63,95,0
1,54,100,0
1,54,95,48
1,63,96,0
1,59,104,0
1,64,83,68
1,57,89,0
1,61,91,0
1,57,59,116
1,61,75,0
1,64,52,0
1,68,95,68
1,64,100,0
1,73,99,0
1,68,102,120
1,73,109,48
1,68,95,192
1,71,92,16
1,68,93,0
1,66,92,0
1,63,90,0
1,63,102,112
1,66,103,32
1,68,102,112
1,71,104,104
1,69,102,160
1,73,107,0
1,64,106,0
1,64,104,144
1,69,118,208
1,61,93,348
1,64,109,0
1,66,95,0
1,57,98,0
1,69,104,220
1,64,109,0
1,61,97,0
1,66,102,0
1,73,103,244
1,69,100,0
1,66,96,0
1,64,94,0
1,76,109,252
1,69,106,0
1,73,113,0
1,66,109,0
1,59,69,60
1,68,70,0
1,59,86,76
1,66,80,8
1,64,70,4
1,66,75,0
1,57,83,24
1,61,79,4
1,59,96,20
1,61,85,4
1,61,83,8
1,57,100,8
1,64,73,0
1,57,65,96
1,52,62,0
1,61,74,0
1,64,79,16
1,59,84,0
1,68,85,0
1,64,72,120
1,59,78,0
1,68,76,0
1,59,63,12
1,66,74,0
1,63,78,0
1,59,80,160
1,66,80,0
1,63,85,0
1,64,73,32
1,57,67,0
1,61,85,0
1,64,66,160
1,61,73,0
1,57,66,0
1,64,72,32
1,57,71,0
1,61,71,0
1,64,80,0
1,57,90,0
1,66,85,0
1,61,82,0
1,64,83,252
1,59,90,0
1,68,85,0
1,64,80,144
1,59,90,0
1,68,83,0
1,66,75,4
1,63,80,0
1,59,67,0
1,59,66,164
1,63,81,0
1,66,78,0
1,64,71,320
1,57,66,0
1,61,81,0
1,64,78,140
1,57,75,0
1,61,88,0
1,57,68,244
1,64,72,0
1,61,84,0
1,64,83,212
1,57,89,0
1,61,84,0
1,66,85,0
1,64,89,184
1,59,96,0
1,68,90,0
1,64,80,132
1,59,92,0
1,68,85,0
1,59,69,260
1,63,82,0
1,66,78,0
1,59,72,176
1,63,85,0
1,66,78,0
1,64,72,12
1,57,63,0
1,61,81,0
1,64,77,208
1,57,87,0
1,61,84,0
1,64,84,36
1,57,100,0
1,61,78,0
1,64,90,16
1,57,98,0
1,66,90,0
1,61,81,0
1,64,87,156
1,59,98,0
1,68,88,0
1,64,84,60
1,59,89,0
1,68,90,0
1,63,83,140
1,59,74,0
1,66,81,0
1,59,84,108
1,63,84,0
1,64,84,68
1,57,94,0
1,61,88,0
1,64,76,48
1,57,94,0
1,61,85,0
1,57,106,80
1,64,94,0
1,61,93,0
1,64,90,12
1,57,106,0
1,66,93,0
1,61,90,0
1,64,89,40
1,56,89,0
1,59,96,0
2,40,78,1116
2,40,84,52
2,44,77,72
2,44,84,48
2,45,85,36
2,45,78,36
2,47,65,48
2,47,73,48
2,40,89,48
2,40,72,60
2,44,80,32
2,44,77,44
2,45,82,48
2,45,87,48
2,42,84,44
2,42,78,48
2,40,91,48
2,40,91,52
2,44,86,64
2,44,88,80
2,45,91,60
2,45,87,48
2,38,73,48
2,38,79,60
2,40,67,68
2,40,70,64
2,44,73,84
2,44,75,48
2,45,74,64
2,45,79,48
2,44,84,80
2,44,80,32
2,42,90,60
2,42,81,64
2,44,84,44
2,44,77,52
2,45,85,20
2,45,82,96
2,45,82,28
2,47,93,40
2,47,85,48
2,47,95,68
2,47,91,72
2,40,89,20
2,42,90,32
2,42,80,64
2,42,90,32
2,45,87,32
2,45,81,60
2,45,97,60
2,47,73,56
2,40,89,52
2,40,79,56
2,40,85,88
2,40,91,64
2,40,99,64
2,40,89,56
2,42,73,80
2,42,85,80
2,42,80,28
2,45,89,48
2,45,87,28
2,45,89,44
2,47,66,8
2,40,95,20
2,40,89,72
2,40,89,72
2,40,93,60
2,40,84,64
2,40,84,56
2,42,81,48
2,42,90,72
2,42,81,44
2,45,84,48
2,45,85,36
2,45,87,64
2,47,67,32
2,52,79,60
2,51,90,52
2,49,84,64
2,47,97,44
2,45,93,28
2,52,75,476
2,45,75,444
2,52,74,516
2,42,80,444
2,42,83,76
2,42,76,56
2,44,80,52
2,44,88,80
2,44,83,44
2,45,78,52
2,47,77,12
2,40,87,160
2,40,84,80
2,44,78,96
2,44,88,76
2,45,93,64
2,45,82,52
2,47,81,44
2,47,84,72
2,40,95,56
2,40,87,64
2,44,77,68
2,44,76,60
2,45,84,52
2,45,85,80
2,42,84,84
2,42,80,64
2,40,81,68
2,40,84,52
2,44,83,76
2,44,88,48
2,45,89,64
2,45,81,56
2,38,85,72
2,38,84,48
2,40,84,52
2,40,79,56
2,44,77,60
2,44,80,48
2,45,87,64
2,45,87,56
2,44,87,44
2,44,83,80
2,42,86,44
2,42,84,44
2,44,81,48
2,44,86,32
2,45,75,48
2,45,84,76
2,45,82,40
2,47,67,32
2,47,73,48
2,47,87,48
2,47,91,48
2,42,90,80
2,42,80,64
2,42,90,32
2,45,87,32
2,45,81,60
2,45,97,60
2,47,73,56
2,40,89,52
2,40,79,56
2,40,85,88
2,40,91,64
2,40,99,64
2,40,89,56
2,42,73,80
2,42,85,80
2,42,80,28
2,45,89,48
2,45,87,28
2,45,89,44
2,47,66,8
2,40,95,20
2,40,89,72
2,40,89,72
2,40,93,60
2,40,84,64
2,40,84,56
2,42,81,48
2,42,90,72
2,42,81,44
2,45,84,48
2,45,85,36
2,45,87,64
2,47,67,32
2,52,79,60
2,51,90,52
2,49,84,64
2,47,97,44
2,45,93,28
2,52,79,476
2,45,75,448
2,52,75,516
2,42,80,440
2,42,83,76
2,42,76,56
2,44,80,52
2,44,88,80
2,44,83,44
2,45,78,52
2,47,77,8
2,37,84,160
2,37,83,64
2,37,87,64
2,44,83,40
2,44,90,52
2,44,88,64
2,45,101,44
2,45,104,68
2,45,97,72
2,45,107,40
2,47,107,56
2,47,110,64
2,47,107,52
2,47,99,48
2,47,97,48
2,47,87,36
2,40,75,52
2,44,87,48
2,44,73,36
2,45,82,64
2,45,89,76
2,47,87,32
2,35,91,52
2,40,87,100
2,40,91,60
2,44,92,72
2,44,84,52
2,45,82,56
2,45,85,64
2,47,93,52
2,35,84,32
2,40,87,40
2,42,92,56
2,44,85,40
2,44,88,56
2,45,99,20
2,47,101,272
2,47,89,48
2,47,99,64
2,47,95,48
2,40,104,36
2,40,95,32
2,44,92,32
2,44,90,108
2,45,97,44
2,45,93,68
2,47,93,28
2,47,91,52
2,47,81,16
2,47,82,40
2,40,104,32
2,40,84,64
2,44,94,64
2,44,94,64
2,45,107,40
2,45,85,68
2,47,85,48
2,47,87,8
2,47,95,12
2,47,75,48
2,40,99,40
3,56,42,14152
3,44,86,180
3,47,101,0
3,51,110,8
3,52,113,4
3,57,97,8
3,54,97,16
3,61,66,56
3,64,91,28
3,56,100,16
3,57,107,168
3,69,101,0
3,59,99,8
3,69,86,4
3,70,87,12
3,71,97,8
3,72,97,8
3,73,73,8
3,74,95,20
3,75,71,4
3,76,76,8
3,77,80,0
3,78,75,48
3,79,84,4
3,80,84,4
3,81,61,0
3,82,80,12
3,83,79,0
3,84,75,8
3,85,83,0
3,83,82,20
3,92,68,768
3,83,87,16
3,85,81,0
3,83,81,16
3,81,71,16
3,85,76,4
3,88,71,0
3,87,74,376
3,85,74,12
3,83,67,4
3,85,77,0
3,61,70,2932
3,57,67,0
3,64,61,0
3,59,81,0
3,63,88,164
3,66,80,188
3,71,85,176
3,76,63,168
3,73,76,0
3,69,61,4
3,47,60,624
3,52,67,96
3,56,78,4
3,59,77,24
3,52,72,384
3,64,46,32
3,68,56,0
3,59,53,0
3,52,72,0
3,44,73,8
3,66,63,0
3,63,65,0
3,59,63,0
3,45,85,8
3,64,53,0
3,59,66,0
3,61,68,0
3,47,41,4
3,64,57,0
3,59,65,0
3,61,65,0
3,63,64,0
3,66,64,0
3,68,64,0
3,64,60,0
3,59,58,0
3,52,85,0
3,44,80,8
3,66,59,0
3,63,61,0
3,59,58,0
3,45,68,0
3,64,61,0
3,59,67,0
3,61,56,0
3,67,73,4
3,71,62,0
3,60,72,0
3,50,71,0
3,66,70,0
3,69,61,0
3,52,77,0
3,68,71,0
3,64,74,0
3,59,71,0
3,44,75,8
3,66,68,0
3,63,66,0
3,45,66,8
3,64,48,0
3,61,59,0
3,59,58,0
3,56,44,1516
3,44,86,184
3,47,101,0
3,51,110,8
3,52,113,4
3,57,97,8
3,54,97,16
3,61,66,56
3,64,91,28
3,56,100,16
3,57,107,168
3,69,101,0
3,59,99,8
3,69,86,4
3,70,87,12
3,71,97,8
3,72,97,8
3,73,73,8
3,74,95,20
3,75,71,4
3,76,76,8
3,77,80,0
3,78,75,48
3,79,84,4
3,80,84,4
3,81,61,0
3,82,80,12
3,83,79,0
3,84,75,8
3,85,83,12
3,83,82,20
3,92,68,768
3,83,87,4
3,85,81,368
3,83,81,4
3,81,71,16
3,85,76,4
3,88,71,4
3,87,74,0
3,85,74,12
3,83,67,4
3,85,77,0
3,61,70,2932
3,57,67,0
3,64,61,0
3,59,81,0
3,63,88,164
3,66,80,188
3,71,85,176
3,76,63,168
3,73,76,0
3,69,61,4
3,68,62,48
3,76,67,0
3,73,68,0
3,75,69,4
3,71,58,0
3,68,50,0
3,69,75,8
3,71,57,0
3,73,68,0
3,76,72,0
3,78,76,8
3,76,59,0
3,73,64,0
3,71,60,0
3,69,61,0
3,47,71,580
3,52,91,8
3,56,73,0
3,59,82,0
3,52,87,4
3,47,85,4
3,40,85,12
3,44,83,768
3,45,67,0
3,47,73,40
3,71,72,0
3,40,85,0
3,44,84,4
3,45,79,20
3,73,67,12
3,47,104,0
3,71,67,4
