track,note,velocity,time
1,59,84,4154
1,64,65,8
1,64,69,56
1,66,69,208
1,64,69,16
1,64,84,72
1,66,94,44
1,68,75,72
1,69,76,76
1,68,77,8
1,66,63,28
1,69,77,20
1,69,79,54
1,71,71,280
1,68,72,8
1,66,64,360
1,64,72,12
1,64,74,52
1,66,80,192
1,64,71,16
1,64,59,56
1,64,70,44
1,66,79,248
1,68,79,56
1,69,81,56
1,68,73,4
1,66,73,112
1,69,75,16
1,69,77,48
1,71,68,0
1,68,69,216
1,66,62,0
1,76,75,66
1,71,55,44
1,78,83,208
1,76,72,16
1,76,46,44
1,76,69,124
1,78,77,272
1,78,95,220
1,80,73,28
1,80,70,36
1,81,66,48
1,80,83,148
1,78,70,4
1,81,58,480
1,81,65,44
1,83,53,8
1,80,68,216
1,78,68,356
1,76,37,452
1,59,107,3782
1,61,94,200
1,62,79,12
1,61,78,196
1,62,74,44
1,61,70,12
1,62,76,8
1,59,89,152
1,61,85,200
1,62,76,20
1,61,75,196
1,62,77,4
1,61,71,196
1,62,79,90
1,64,77,270
1,61,90,56
1,59,74,292
1,71,82,1180
1,73,81,8
1,74,75,48
1,73,70,16
1,74,66,24
1,73,60,8
1,74,65,18
1,71,67,26
1,73,71,188
1,74,68,16
1,73,69,188
1,74,66,20
1,73,67,208
1,74,74,8
1,78,74,248
1,76,70,20
1,78,71,524
1,80,66,78
1,74,76,364
1,71,76,0
1,76,63,188
1,73,75,0
1,74,72,10
1,78,72,2
1,76,58,8
1,73,72,12
1,74,72,2
1,78,67,0
1,76,59,16
1,73,75,18
1,78,73,8
1,74,74,4
1,74,72,84
1,71,77,12
1,73,74,8
1,76,65,0
1,74,73,20
1,78,70,0
1,76,62,16
1,73,77,2
1,74,72,22
1,78,71,0
1,73,67,4
1,76,57,16
1,74,75,12
1,78,78,16
1,78,61,104
1,81,63,12
1,80,26,8
1,76,53,16
1,74,76,536
1,71,81,0
1,76,66,180
1,73,77,0
1,74,71,26
1,78,71,0
1,76,58,8
1,73,74,14
1,78,68,8
1,74,72,18
1,76,55,0
1,73,74,16
1,78,77,12
1,74,77,0
1,74,75,340
1,71,79,0
1,76,64,8
1,73,79,0
1,74,68,18
1,78,70,0
1,76,54,8
1,73,74,16
1,74,72,22
1,78,71,0
1,73,72,16
1,76,50,0
1,74,72,8
1,78,77,16
1,78,70,136
1,81,71,0
1,80,49,8
1,76,54,0
1,73,87,2068
1,78,66,380
1,76,59,8
1,73,59,624
1,74,75,372
1,74,73,32
1,74,71,44
1,73,81,28
1,71,76,100
1,69,62,64
1,73,83,836
1,73,66,38
1,73,74,60
1,78,70,464
1,76,68,8
1,73,69,8
1,75,102,880
1,75,85,80
1,80,108,84
1,78,90,92
1,76,112,228
1,78,102,100
1,80,85,616
1,80,79,36
1,76,82,448
1,78,98,24
1,80,108,96
1,81,94,60
1,80,80,212
1,78,78,76
1,78,108,348
1,81,74,8
1,81,77,56
1,83,67,204
1,80,81,52
1,78,94,20
1,76,81,16
1,76,74,372
1,78,87,16
1,76,82,52
1,76,91,392
1,78,90,48
1,80,98,104
1,81,84,60
1,80,80,206
1,78,60,16
1,76,48,176
1,81,62,144
1,81,81,46
1,81,73,44
1,83,72,12
1,80,81,48
1,78,79,20
1,76,61,24
1,71,84,5284
1,73,80,180
1,74,76,24
1,73,63,12
1,74,58,32
1,73,56,184
1,74,68,16
1,71,71,16
1,73,71,188
1,74,62,144
1,73,71,198
1,74,64,8
1,73,64,192
1,74,64,74
1,78,73,0
1,76,59,4
1,59,89,1080
1,61,79,192
1,62,79,148
1,61,87,172
1,62,75,168
1,61,85,200
1,62,75,70
1,59,107,28
1,61,98,188
1,62,76,156
1,61,78,186
1,62,74,168
1,61,74,196
1,62,76,68
1,66,90,10
1,64,82,24
1,61,115,884
1,59,63,20
1,74,77,504
1,71,86,0
1,73,85,8
1,76,72,0
1,74,66,26
1,78,74,0
1,76,51,16
1,73,69,12
1,78,72,16
1,74,73,0
1,73,71,28
1,76,52,14
1,74,70,16
1,78,74,0
1,74,75,192
1,71,82,12
1,73,69,8
1,76,62,0
1,74,65,18
1,78,66,0
1,76,54,8
1,73,67,0
1,78,66,18
1,74,71,0
1,76,45,16
1,73,74,4
1,78,69,20
1,74,74,0
1,78,77,128
1,81,66,12
1,80,40,552
1,76,50,0
1,73,80,2376
1,78,78,4
1,76,60,30
1,73,66,544
1,74,59,892
1,74,71,156
1,73,78,52
1,71,67,80
1,69,60,460
1,73,87,1488
1,78,58,256
1,76,57,0
1,73,48,6
1,75,80,924
1,80,65,388
1,78,68,368
1,76,79,196
1,78,81,24
1,80,73,596
1,80,69,44
1,76,89,376
1,78,102,56
1,80,115,56
1,81,77,36
1,80,69,236
1,78,66,80
1,78,85,184
1,81,82,16
1,81,74,48
1,81,72,56
1,83,73,180
1,80,78,8
1,78,78,8
1,76,73,28
1,78,90,504
1,76,74,28
1,76,89,292
1,78,108,64
1,80,115,122
1,81,75,92
1,80,60,212
1,78,62,8
1,81,86,340
1,81,74,60
1,83,71,0
1,80,90,72
1,78,90,272
1,76,74,12
1,80,81,464
1,80,66,38
1,76,82,612
1,78,94,36
1,80,108,72
1,81,89,56
1,80,78,208
1,78,77,88
1,78,62,308
1,81,84,140
1,81,73,64
1,83,72,0
1,80,81,30
1,78,78,8
1,76,76,8
1,76,69,72
1,76,66,284
1,78,87,128
1,76,70,16
1,76,86,292
1,78,98,52
1,80,108,80
1,81,81,96
1,80,77,196
1,78,70,18
1,78,43,256
1,81,72,48
1,81,68,36
1,81,64,38
1,83,68,8
1,80,74,8
1,78,79,20
1,76,69,20
1,64,81,22554
1,66,87,1076
1,64,57,8
1,64,71,82
1,66,85,280
1,68,90,214
1,69,79,8
1,68,77,160
1,66,70,4
1,69,75,8
1,69,71,24
1,71,65,4
1,68,74,224
1,66,58,8
1,64,59,20
1,64,66,80
1,66,78,264
1,64,56,20
1,64,73,88
1,66,94,52
1,68,102,72
1,69,89,112
1,68,77,18
1,66,66,16
1,80,66,1688
1,76,72,18
1,78,90,184
1,76,74,18
1,76,91,126
1,78,98,36
1,80,115,64
1,81,76,40
1,80,64,240
1,78,66,112
1,81,84,272
1,81,82,48
1,83,71,8
1,80,87,0
1,78,87,16
1,76,79,8
1,78,94,296
1,76,60,8
1,76,81,100
1,78,73,268
1,80,78,212
1,81,69,240
1,80,75,222
1,78,65,100
1,81,82,1104
1,81,77,46
1,81,74,36
1,83,68,0
1,80,83,8
1,78,81,10
1,76,76,8
1,78,94,320
1,76,68,8
1,76,81,136
1,78,90,288
1,80,94,28
1,81,72,24
1,80,79,232
1,78,64,136
1,81,71,260
1,81,71,36
1,81,70,52
1,83,69,8
1,80,78,16
1,78,83,28
1,76,64,8
1,76,84,206
1,78,87,928
1,76,60,20
1,76,98,134
1,78,115,120
1,80,108,152
1,81,75,120
1,80,75,184
1,78,64,10
1,64,72,1608
1,66,85,1192
1,64,54,8
1,64,60,80
1,66,94,288
1,68,90,208
1,69,75,244
1,68,66,228
1,66,70,156
1,68,64,2596
2,40,81,23044
2,52,75,80
2,52,71,96
2,49,86,8
2,52,73,46
2,52,70,28
2,49,86,8
2,40,80,58
2,52,74,670
2,52,68,92
2,49,71,28
2,52,69,48
2,52,66,36
2,49,79,8
2,40,88,70
2,52,81,670
2,52,73,64
2,49,82,28
2,52,76,62
2,52,73,44
2,49,82,30
2,40,85,70
2,52,74,670
2,52,67,100
2,49,74,28
2,52,72,78
2,49,79,190
2,40,81,50
2,52,73,10
2,52,68,84
2,49,73,18
2,52,67,50
2,52,64,36
2,49,79,28
2,40,80,42
2,52,73,24
2,52,68,112
2,49,78,38
2,52,64,70
2,52,66,36
2,49,86,24
2,40,78,86
2,52,78,670
2,52,70,100
2,49,78,36
2,52,68,70
2,52,66,36
2,49,82,24
2,40,81,78
2,52,76,670
2,52,74,100
2,49,86,28
2,52,64,70
2,52,66,48
2,49,89,16
2,40,83,78
2,52,72,670
2,52,70,92
2,49,89,20
2,52,72,78
2,49,89,92
2,40,80,94
2,52,67,60
2,52,69,116
2,49,78,28
2,52,71,88
2,52,67,36
2,49,82,32
2,40,81,106
2,52,71,8
2,52,68,100
2,49,72,16
2,52,68,76
2,52,68,36
2,49,79,10
2,40,72,90
2,52,80,670
2,52,72,104
2,49,82,20
2,52,72,88
2,49,89,94
2,40,81,114
2,52,88,670
2,52,71,100
2,49,80,24
2,52,71,86
2,52,68,38
2,49,93,24
2,40,81,80
2,52,81,670
2,52,71,96
2,49,82,16
2,52,71,56
2,52,70,44
2,49,89,16
2,40,81,90
2,52,74,670
2,52,71,104
2,49,89,28
2,52,71,90
2,52,66,28
2,49,86,16
2,40,83,14
2,52,73,670
2,52,69,80
2,49,78,16
2,52,71,62
2,49,82,12
2,40,80,80
2,52,73,670
2,52,71,92
2,49,78,16
2,52,71,86
2,52,66,40
2,49,86,16
2,40,80,86
2,52,74,672
2,52,66,92
2,49,77,20
2,52,71,74
2,49,82,48
2,40,80,78
2,52,75,8
2,52,67,76
2,49,78,16
2,52,68,66
2,52,64,36
2,49,72,16
2,40,78,34
2,52,71,8
2,52,63,76
2,49,68,28
2,52,70,96
2,49,73,12
2,45,88,78
2,54,80,864
2,45,66,92
2,52,74,28
2,45,83,386
2,54,82,6
2,45,71,92
2,52,78,22
2,45,73,190
2,43,71,22
2,52,74,862
2,43,72,72
2,50,75,0
2,43,80,2
2,52,71,862
2,43,75,76
2,50,69,16
2,50,65,36
2,43,76,16
2,45,97,2
2,54,78,864
2,45,71,76
2,52,72,30
2,45,78,384
2,54,78,848
2,45,70,64
2,52,75,10
2,47,72,384
2,56,80,830
2,47,72,92
2,54,80,10
2,47,71,192
2,47,88,22
2,47,88,90
2,47,81,96
2,47,88,66
2,47,68,108
2,52,80,34
2,52,67,146
2,52,70,86
2,64,60,286
2,64,54,112
2,52,75,36
2,49,97,194
2,49,84,150
2,49,78,98
2,61,86,286
2,61,68,128
2,49,79,36
2,50,90,194
2,50,72,142
2,50,81,90
2,50,68,120
2,50,90,90
2,50,67,182
2,50,69,68
2,45,65,194
2,47,67,172
2,52,72,30
2,52,71,136
2,52,71,86
2,64,61,56
2,49,97,16
2,49,86,156
2,49,82,98
2,61,77,286
2,61,69,120
2,49,74,44
2,50,81,66
2,50,76,146
2,50,72,90
2,62,67,286
2,62,64,100
2,50,80,36
2,47,81,70
2,47,76,118
2,47,72,88
2,47,78,84
2,47,71,118
2,40,85,78
2,52,64,154
2,52,71,96
2,49,78,16
2,52,70,194
2,49,86,172
2,40,85,66
2,52,71,670
2,52,65,92
2,49,61,22
2,52,66,86
2,40,75,16
2,52,64,96
2,52,59,104
2,49,63,32
2,52,61,120
2,49,66,4
2,40,85,22
2,52,72,670
2,52,64,76
2,49,71,26
2,52,70,60
2,49,63,190
2,40,83,180
2,52,69,12
2,52,59,96
2,49,61,18
2,52,64,192
2,49,64,184
2,40,83,6
2,52,72,670
2,52,60,84
2,49,71,32
2,52,66,94
2,49,70,190
2,40,93,190
2,52,68,660
2,52,62,100
2,49,73,28
2,52,66,42
2,52,52,38
2,49,66,8
2,40,74,194
2,52,70,40
2,52,66,68
2,49,68,38
2,52,69,78
2,49,65,60
2,40,73,134
2,52,69,4
2,52,61,96
2,49,67,18
2,52,62,34
2,52,52,36
2,49,67,36
2,40,85,194
2,52,69,668
2,52,64,112
2,49,67,38
2,52,71,68
2,49,69,94
2,40,97,192
2,52,73,664
2,52,69,2
2,49,67,18
2,52,73,28
2,49,80,4
2,40,118,14
2,52,78,0
2,52,72,76
2,49,79,18
2,52,72,192
2,52,48,38
2,49,80,16
2,40,101,194
2,52,75,664
2,52,62,92
2,49,74,10
2,52,72,20
2,49,79,0
2,40,93,194
2,52,68,662
2,52,56,84
2,49,79,18
2,52,71,38
2,52,54,56
2,49,86,54
2,40,85,64
2,52,75,30
2,52,62,116
2,49,78,38
2,52,74,106
2,49,86,14
2,40,85,28
2,52,73,670
2,52,62,120
2,49,82,30
2,52,71,86
2,52,48,36
2,49,82,28
2,45,75,108
2,54,84,16
2,45,71,86
2,52,69,30
2,45,76,384
2,54,82,850
2,45,76,72
2,52,75,38
2,43,83,2
2,52,81,6
2,43,75,48
2,50,70,26
2,43,85,6
2,52,81,862
2,43,76,84
2,45,93,414
2,54,89,864
2,45,76,102
2,52,81,18
2,45,85,10
2,54,86,862
2,45,76,64
2,52,78,10
2,47,76,30
2,47,73,150
2,54,89,18
2,47,74,384
2,47,78,14
2,47,67,96
2,47,73,50
2,47,67,52
2,47,64,86
2,40,78,194
2,52,71,172
2,52,73,94
2,64,60,286
2,64,68,104
2,52,74,30
2,49,93,2
2,49,84,170
2,49,73,106
2,44,71,384
2,49,74,14
2,50,61,18
2,50,63,134
2,50,67,86
2,62,59,112
2,50,80,236
2,50,67,128
2,50,71,58
2,45,70,384
2,47,67,4
2,52,76,194
2,52,67,144
2,52,69,98
2,64,67,286
2,64,73,160
2,52,73,64
2,49,97,74
2,61,76,10
2,49,71,162
2,49,80,142
2,49,86,112
2,50,78,194
2,50,62,150
2,50,66,86
2,45,58,190
2,47,64,178
2,50,76,176
2,47,80,10
2,59,64,104
2,59,71,140
2,47,73,52
2,47,70,78
2,47,81,44
2,52,81,12
2,52,70,184
2,52,71,90
2,64,67,286
2,64,65,144
2,52,73,64
2,49,89,122
2,61,86,18
2,49,71,162
2,49,89,142
2,61,80,286
2,61,80,148
2,49,82,56
2,50,73,6
2,50,64,128
2,50,64,86
2,45,59,28
2,47,56,96
2,50,76,8
2,50,66,142
2,50,75,98
2,50,72,36
2,50,80,112
2,52,83,182
2,52,71,158
2,52,74,94
2,64,74,16
2,64,72,152
2,52,71,68
2,49,97,142
2,49,86,178
2,49,89,122
2,61,76,286
2,61,71,154
2,49,78,44
2,50,85,86
2,50,69,160
2,50,71,106
2,50,73,126
2,47,78,62
2,47,60,94
2,47,60,70
2,47,64,86
2,47,58,114
2,40,93,94
2,52,68,0
2,52,64,116
2,49,71,36
2,52,69,78
2,49,74,12
2,40,90,30
2,52,67,670
2,52,58,128
2,49,71,38
2,52,68,58
2,52,53,26
2,49,71,20
2,40,74,2
2,52,67,670
2,52,61,120
2,49,71,26
2,52,67,42
2,52,51,36
2,49,77,16
2,40,83,194
2,52,72,664
2,52,65,104
2,49,79,32
2,52,71,78
2,52,56,24
2,49,84,16
2,47,80,42
2,47,64,26
2,47,71,42
2,47,75,16
2,47,65,84
2,52,90,14
2,52,68,186
2,52,75,126
2,64,72,286
2,64,71,142
2,52,70,56
2,49,89,114
2,49,79,146
2,49,84,114
2,49,86,68
2,49,72,104
2,44,64,8
2,47,55,96
2,50,78,18
2,50,80,194
2,50,71,98
2,50,65,60
2,50,60,164
2,50,46,26
2,50,64,116
2,50,61,134
2,50,60,90
2,62,60,12
2,50,68,44
2,50,69,112
2,45,60,12
2,47,67,96
2,52,78,14
2,52,69,130
2,52,68,102
2,64,60,16
2,64,61,132
2,47,70,38
2,49,79,94
2,49,77,162
2,49,76,114
2,61,84,286
2,61,76,136
2,49,82,42
2,50,78,194
2,45,67,162
2,47,68,94
2,50,74,70
2,50,68,32
2,50,61,92
2,45,63,28
2,54,89,194
2,54,86,100
2,42,93,384
2,54,74,14
2,42,89,384
2,40,88,90
2,40,76,78
2,40,73,96
2,40,68,36
2,40,59,182
2,40,56,454
2,40,49,88
2,38,50,0
2,50,106,11912
2,52,101,70
2,54,97,76
2,56,89,56
2,57,78,48
2,59,70,0
2,52,93,10
2,52,74,158
2,52,71,94
2,64,64,0
2,64,62,150
2,52,76,66
2,49,97,114
2,44,61,126
2,47,56,8
2,49,84,2
2,49,73,88
2,50,78,194
2,50,57,170
2,50,61,82
2,50,69,60
2,45,59,136
2,47,64,96
2,50,73,82
2,50,71,68
2,62,68,26
2,50,78,332
2,62,68,8
2,62,62,112
2,50,83,38
2,52,76,192
2,52,69,154
2,52,72,98
2,52,71,120
2,49,80,22
2,49,79,186
2,49,74,98
