track,note,velocity,time
1,0,1,748
1,0,0,0
5,50,65,1638
5,43,69,60
5,50,0,6
5,43,0,159
5,43,59,15
5,43,0,46
5,43,70,14
5,43,0,224
5,43,74,16
5,43,0,170
5,43,61,10
5,43,0,47
5,43,77,13
5,43,0,217
5,50,65,923
5,43,69,60
5,50,0,6
5,43,0,159
5,43,59,15
5,43,0,46
5,43,70,14
5,43,0,224
5,43,74,16
5,43,0,170
5,43,61,10
5,43,0,47
5,43,77,13
5,43,0,217
5,50,65,923
5,43,69,60
5,50,0,6
5,43,0,159
5,43,59,15
5,43,0,46
5,43,70,14
5,43,0,224
5,43,74,16
5,43,0,170
5,43,61,10
5,43,0,47
5,43,77,13
5,43,0,217
5,52,68,23
5,52,0,281
5,52,55,19
5,52,0,116
5,52,54,4
5,52,0,56
5,50,70,4
5,50,0,170
5,50,64,10
5,50,0,110
5,50,51,10
5,50,0,110
5,50,55,10
5,50,0,53
5,50,69,7
5,50,0,231
5,51,69,9
5,51,0,235
5,52,69,5
5,52,0,228
5,50,66,12
5,43,76,180
5,50,0,7
5,48,68,53
5,43,0,4
5,48,0,172
5,48,69,4
5,48,0,47
5,48,65,12
5,48,0,231
5,43,76,10
5,43,0,164
5,43,71,16
5,43,0,54
5,47,77,4
5,47,0,223
5,48,65,20
5,48,0,163
5,48,54,16
5,48,0,44
5,48,72,16
5,48,0,107
5,48,57,15
5,48,0,64
5,43,67,54
5,43,0,154
5,43,65,26
5,43,0,54
5,47,71,6
5,47,0,113
5,50,67,8
5,50,0,90
5,55,53,32
5,55,0,107
5,55,53,10
5,55,0,328
5,55,53,35
5,55,0,274
5,55,53,23
5,55,0,117
5,50,65,3
5,43,69,60
5,50,0,6
5,43,0,159
5,43,59,15
5,43,0,46
5,43,70,14
5,43,0,224
5,43,74,16
5,43,0,170
5,43,61,10
5,43,0,47
5,43,77,13
5,43,0,217
5,55,53,26
5,55,0,107
5,55,53,10
5,55,0,328
5,55,53,35
5,55,0,274
5,55,53,23
5,55,0,117
5,50,65,3
5,43,69,60
5,50,0,6
5,43,0,159
5,43,59,15
5,43,0,46
5,43,70,14
5,43,0,224
5,43,74,16
5,43,0,170
5,43,61,10
5,43,0,47
5,43,77,13
5,43,0,217
5,52,68,23
5,52,0,281
5,52,55,19
5,52,0,116
5,52,54,4
5,52,0,56
5,50,70,4
5,50,0,170
5,50,64,10
5,50,0,110
5,50,51,10
5,50,0,110
5,50,55,10
5,50,0,53
5,50,69,7
5,50,0,231
5,51,69,9
5,51,0,235
5,52,69,5
5,52,0,228
5,50,66,12
5,43,76,180
5,50,0,7
5,48,68,53
5,43,0,4
5,48,0,172
5,48,69,4
5,48,0,47
5,48,77,12
5,48,0,231
5,43,76,10
5,43,0,164
5,43,71,16
5,43,0,54
5,47,77,4
5,47,0,223
5,48,72,19
5,48,0,163
5,48,54,17
5,48,0,44
5,48,72,16
5,48,0,107
5,48,57,15
5,48,0,83
5,43,67,35
5,43,0,154
5,43,65,26
5,43,0,54
5,47,71,6
5,47,0,157
5,47,67,23
5,47,0,53
5,50,65,5
5,50,0,237
5,51,65,8
5,51,0,237
5,52,65,6
5,52,0,237
5,50,65,0
5,50,0,237
5,48,65,0
5,48,0,237
5,45,59,3
5,45,0,227
5,50,65,13
5,50,0,227
5,48,56,13
5,48,0,227
5,47,59,16
5,47,0,445
5,48,57,35
5,48,0,142
5,48,61,36
5,48,0,149
5,48,54,29
5,48,0,118
5,47,60,1
5,47,0,447
5,55,42,38
5,55,0,107
5,55,47,10
5,55,0,328
5,55,53,35
5,55,0,274
5,55,53,23
5,55,0,117
5,50,65,3
5,43,69,60
5,50,0,6
5,43,0,159
5,43,59,15
5,43,0,46
5,43,70,14
5,43,0,224
5,43,74,16
5,43,0,170
5,43,61,10
5,43,0,47
5,43,77,13
5,43,0,217
5,55,53,26
5,55,0,107
5,55,53,10
5,55,0,328
5,55,53,35
5,55,0,274
5,55,53,23
5,55,0,117
5,50,65,3
5,43,69,60
5,50,0,6
5,43,0,159
5,43,59,15
5,43,0,46
5,43,70,14
5,43,0,224
5,43,74,16
5,43,0,170
5,43,61,10
5,43,0,47
5,43,77,13
5,43,0,217
5,52,68,23
5,52,0,281
5,52,55,19
5,52,0,116
5,52,54,4
5,52,0,56
5,50,70,4
5,50,0,170
5,50,64,10
5,50,0,110
5,50,51,10
5,50,0,110
5,50,55,10
5,50,0,53
5,50,69,7
5,50,0,231
5,51,69,9
5,51,0,235
5,52,69,5
5,52,0,228
5,50,66,12
5,43,76,180
5,50,0,7
5,48,68,53
5,43,0,4
5,48,0,172
5,48,69,4
5,48,0,47
5,48,77,12
5,48,0,231
5,43,76,10
5,43,0,164
5,43,71,16
5,43,0,54
5,47,77,4
5,47,0,223
5,48,72,19
5,48,0,163
5,48,54,17
5,48,0,44
5,48,72,16
5,48,0,107
5,48,57,15
5,48,0,83
5,43,67,35
5,43,0,154
5,43,65,26
5,43,0,54
5,47,71,6
5,47,0,157
5,47,67,23
5,47,0,53
5,50,65,5
5,50,0,237
5,51,65,8
5,52,65,233
5,51,0,4
5,52,0,233
5,50,65,10
5,50,0,237
5,48,65,0
5,48,0,237
5,45,59,3
5,45,0,227
5,50,65,13
5,50,0,227
5,48,56,13
5,48,0,227
5,47,63,16
5,47,0,214
5,47,63,26
5,47,0,214
5,48,63,26
5,48,0,142
5,48,61,36
5,48,0,149
5,48,63,29
5,48,0,118
5,43,60,4
5,43,0,163
5,43,49,16
5,43,0,55
5,47,63,11
5,47,0,215
5,48,63,22
5,48,0,221
5,50,63,19
5,50,0,221
5,43,53,16
5,43,0,486
6,55,57,756
6,59,44,119
6,66,56,1
6,62,62,2
6,55,0,44
6,55,56,14
6,55,0,50
6,55,62,10
6,62,0,99
6,59,0,1
6,66,0,4
6,62,46,16
6,59,51,0
6,66,59,2
6,55,0,103
6,55,60,15
6,66,0,3
6,62,0,3
6,59,0,0
6,60,44,113
6,65,56,1
6,55,0,46
6,55,66,14
6,55,0,50
6,55,58,10
6,60,0,47
6,65,0,3
6,60,51,10
6,65,59,2
6,55,0,39
6,55,48,22
6,65,0,99
6,60,0,0
6,55,0,2
6,55,56,16
6,60,44,119
6,64,56,1
6,55,0,170
6,55,43,10
6,60,0,40
6,64,0,4
6,60,51,16
6,64,59,2
6,55,0,42
6,55,49,16
6,64,0,51
6,60,0,0
6,55,0,5
6,55,46,4
6,59,44,119
6,62,56,1
6,55,0,170
6,55,39,10
6,59,0,40
6,62,0,4
6,59,51,16
6,62,42,2
6,55,0,42
6,55,31,16
6,62,0,51
6,59,0,0
6,55,57,9
6,55,0,2
6,59,44,117
6,66,56,1
6,62,62,2
6,55,0,44
6,55,56,14
6,55,0,50
6,55,62,10
6,62,0,99
6,59,0,1
6,66,0,4
6,62,46,16
6,59,51,0
6,66,59,2
6,55,0,103
6,55,60,15
6,66,0,3
6,62,0,3
6,59,0,0
6,60,44,113
6,65,56,1
6,55,0,46
6,55,66,14
6,55,0,50
6,55,58,10
6,60,0,47
6,65,0,3
6,60,51,10
6,65,59,2
6,55,0,39
6,55,48,22
6,65,0,99
6,60,0,0
6,55,0,2
6,55,56,16
6,60,44,119
6,64,56,1
6,55,0,170
6,55,43,10
6,60,0,40
6,64,0,4
6,60,51,16
6,64,59,2
6,55,0,42
6,55,49,16
6,64,0,51
6,60,0,0
6,55,0,5
6,55,46,4
6,59,44,119
6,62,56,1
6,55,0,170
6,55,39,10
6,59,0,40
6,62,0,4
6,59,51,16
6,62,42,2
6,55,0,42
6,55,31,16
6,55,0,50
6,62,0,1
6,59,0,0
6,55,57,9
6,59,44,119
6,66,56,1
6,62,62,2
6,55,0,44
6,55,56,14
6,55,0,50
6,55,62,10
6,62,0,99
6,59,0,1
6,66,0,4
6,62,46,16
6,59,51,0
6,66,59,2
6,55,0,103
6,55,60,15
6,66,0,3
6,62,0,3
6,59,0,0
6,60,44,113
6,65,56,1
6,55,0,46
6,55,66,14
6,55,0,50
6,55,58,10
6,60,0,47
6,65,0,3
6,60,51,10
6,65,59,2
6,55,0,39
6,55,48,22
6,65,0,99
6,60,0,0
6,55,0,2
6,55,56,16
6,60,44,119
6,64,56,1
6,55,0,170
6,55,43,10
6,60,0,40
6,64,0,4
6,60,51,16
6,64,59,2
6,55,0,42
6,55,49,16
6,64,0,51
6,60,0,0
6,55,0,5
6,55,46,4
6,59,44,119
6,62,56,1
6,55,0,170
6,55,39,10
6,59,0,40
6,62,0,4
6,59,51,16
6,62,42,2
6,55,0,42
6,55,31,16
6,62,0,51
6,59,0,0
6,55,0,11
6,52,44,0
6,61,44,119
6,58,41,1
6,67,58,0
6,52,0,47
6,52,44,11
6,58,0,56
6,67,0,3
6,61,0,1
6,58,44,3
6,61,33,56
6,67,31,2
6,52,0,42
6,58,0,13
6,52,39,5
6,52,0,48
6,52,23,12
6,61,0,36
6,67,0,6
6,52,0,9
6,50,56,8
6,59,44,120
6,67,43,0
6,62,50,2
6,59,0,107
6,59,48,11
6,62,0,24
6,67,0,1
6,50,0,34
6,62,41,0
6,67,49,1
6,50,35,60
6,59,0,104
6,62,0,1
6,67,0,0
6,50,0,4
6,50,52,11
6,57,49,60
6,66,48,61
6,59,35,1
6,62,26,5
6,57,0,46
6,50,0,3
6,57,42,4
6,50,42,0
6,62,0,60
6,51,33,2
6,50,0,1
6,57,0,47
6,57,49,10
6,66,0,18
6,59,0,16
6,66,47,21
6,59,33,8
6,63,26,2
6,57,0,37
6,57,33,17
6,57,0,37
6,51,0,0
6,66,0,8
6,59,0,8
6,52,37,8
6,63,0,1
6,55,47,59
6,59,38,60
6,67,41,3
6,55,0,46
6,55,49,11
6,52,0,34
6,50,29,26
6,59,0,22
6,59,37,38
6,67,0,1
6,65,41,1
6,55,0,8
6,55,51,50
6,50,0,28
6,59,0,26
6,50,41,6
6,65,0,22
6,55,0,25
6,48,50,13
6,50,0,6
6,55,45,54
6,64,39,60
6,67,32,0
6,48,0,111
6,52,29,9
6,55,0,29
6,48,43,31
6,67,0,28
6,64,0,9
6,67,33,23
6,64,44,1
6,55,30,59
6,48,0,13
6,64,0,35
6,52,0,3
6,67,0,2
6,55,0,7
6,50,31,3
6,55,48,57
6,59,46,60
6,62,30,3
6,50,0,69
6,55,0,44
6,55,42,64
6,62,0,12
6,59,0,4
6,67,48,44
6,62,36,3
6,55,0,34
6,55,30,23
6,55,0,53
6,67,0,0
6,62,0,3
6,55,43,6
6,60,24,58
6,55,0,50
6,55,35,11
6,64,42,0
6,67,37,2
6,55,0,50
6,55,34,7
6,60,0,50
6,55,0,3
6,55,38,7
6,60,32,1
6,64,0,36
6,67,0,7
6,64,37,20
6,67,32,1
6,55,0,89
6,55,46,29
6,60,0,19
6,64,0,25
6,67,0,6
6,59,34,67
6,67,49,58
6,62,44,4
6,55,0,35
6,55,45,23
6,55,0,40
6,55,37,23
6,67,0,7
6,62,0,6
6,59,0,18
6,67,33,26
6,62,50,0
6,62,0,107
6,62,30,12
6,67,0,38
6,55,0,3
6,62,0,20
6,55,57,0
6,59,44,119
6,66,56,1
6,62,62,2
6,55,0,44
6,55,56,14
6,55,0,50
6,55,62,10
6,62,0,99
6,59,0,1
6,66,0,4
6,62,46,16
6,59,51,0
6,66,59,2
6,55,0,103
6,55,60,15
6,66,0,3
6,62,0,3
6,59,0,0
6,60,44,113
6,65,56,1
6,55,0,46
6,55,66,14
6,55,0,50
6,55,58,10
6,60,0,47
6,65,0,3
6,60,51,10
6,65,59,2
6,55,0,39
6,55,48,22
6,65,0,99
6,60,0,0
6,55,0,2
6,55,56,16
6,60,44,119
6,64,56,1
6,55,0,170
6,55,43,10
6,60,0,40
6,64,0,4
6,60,51,16
6,64,59,2
6,55,0,42
6,55,49,16
6,64,0,51
6,60,0,0
6,55,0,5
6,55,46,4
6,59,44,119
6,62,56,1
6,55,0,170
6,55,39,10
6,59,0,40
6,62,0,4
6,59,51,16
6,62,42,2
6,55,0,42
6,55,31,16
6,55,0,50
6,62,0,1
6,59,0,0
6,55,57,9
6,59,44,119
6,66,56,1
6,62,62,2
6,55,0,44
6,55,56,14
6,55,0,50
6,55,62,10
6,62,0,99
6,59,0,1
6,66,0,4
6,62,46,16
6,59,51,0
6,66,59,2
6,55,0,103
6,55,60,15
6,66,0,3
6,62,0,3
6,59,0,0
6,60,44,113
6,65,56,1
6,55,0,46
6,55,66,14
6,55,0,50
6,55,58,10
6,60,0,47
6,65,0,3
6,60,51,10
6,65,59,2
6,55,0,39
6,55,48,22
6,65,0,99
6,60,0,0
6,55,0,2
6,55,56,16
6,60,44,119
6,64,56,1
6,55,0,170
6,55,43,10
6,60,0,40
6,64,0,4
6,60,51,16
6,64,59,2
6,55,0,42
6,55,49,16
6,64,0,51
6,60,0,0
6,55,0,5
6,55,46,4
6,59,44,119
6,62,56,1
6,55,0,170
6,55,39,10
6,59,0,40
6,62,0,4
6,59,51,16
6,62,42,2
6,55,0,42
6,55,31,16
6,62,0,51
6,59,0,0
6,55,0,11
6,52,44,0
6,61,44,119
6,58,41,1
6,67,58,0
6,52,0,47
6,52,44,11
6,58,0,56
6,67,0,3
6,61,0,1
6,58,44,3
6,61,33,56
6,67,31,2
6,52,0,42
6,58,0,13
6,52,39,5
6,52,0,48
6,52,23,12
6,61,0,36
6,67,0,6
6,52,0,9
6,50,56,8
6,59,44,120
6,67,43,0
6,62,50,2
6,59,0,107
6,59,48,11
6,62,0,24
6,67,0,1
6,50,0,34
6,62,41,0
6,67,49,1
6,50,35,60
6,59,0,104
6,62,0,1
6,67,0,0
6,50,0,4
6,50,52,11
6,57,49,60
6,66,48,61
6,59,35,1
6,62,26,5
6,57,0,46
6,50,0,3
6,57,42,4
6,50,42,0
6,62,0,60
6,51,33,2
6,50,0,1
6,57,0,47
6,57,49,10
6,66,0,18
6,59,0,16
6,66,47,21
6,59,33,8
6,63,26,2
6,57,0,37
6,57,33,17
6,57,0,37
6,51,0,0
6,66,0,8
6,59,0,8
6,52,37,8
6,63,0,1
6,55,47,59
6,59,38,60
6,67,41,3
6,55,0,46
6,55,49,11
6,52,0,34
6,50,29,26
6,59,0,22
6,59,37,38
6,67,0,1
6,65,41,1
6,55,0,8
6,55,51,50
6,50,0,28
6,59,0,26
6,50,41,6
6,65,0,22
6,55,0,25
6,48,50,13
6,50,0,6
6,55,45,54
6,64,39,60
6,67,32,0
6,48,0,111
6,52,29,9
6,55,0,29
6,48,43,31
6,67,0,28
6,64,0,9
6,67,33,23
6,64,44,1
6,55,30,59
6,48,0,13
6,64,0,35
6,52,0,3
6,67,0,2
6,55,0,7
6,50,31,3
6,55,48,57
6,59,46,60
6,62,30,3
6,50,0,69
6,55,0,44
6,55,42,64
6,62,0,12
6,59,0,4
6,67,42,44
6,62,42,3
6,67,0,25
6,55,0,9
6,55,30,23
6,65,48,2
6,65,0,39
6,55,0,3
6,62,0,12
6,55,43,6
6,60,24,58
6,55,0,50
6,55,35,11
6,64,42,0
6,67,37,2
6,55,0,50
6,55,34,7
6,60,0,50
6,55,0,3
6,55,38,7
6,60,32,1
6,64,0,36
6,67,0,7
6,64,37,20
6,67,32,1
6,55,0,89
6,55,46,29
6,60,0,19
6,64,0,25
6,67,0,6
6,59,34,67
6,67,49,58
6,62,44,4
6,55,0,35
6,55,45,23
6,59,0,31
6,55,0,9
6,55,37,23
6,67,0,7
6,62,0,6
6,67,33,44
6,62,50,0
6,59,36,63
6,62,0,44
6,62,30,12
6,67,0,38
6,55,0,3
6,59,0,10
6,62,0,10
6,54,45,0
6,57,34,60
6,66,55,60
6,62,34,0
6,54,0,31
6,50,31,29
6,57,0,52
6,62,0,8
6,54,46,0
6,66,0,2
6,50,0,3
6,59,30,55
6,66,53,60
6,63,25,1
6,59,0,55
6,59,25,4
6,54,0,44
6,63,0,9
6,59,0,3
6,55,40,4
6,66,0,9
6,59,51,53
6,64,34,57
6,67,49,2
6,55,0,14
6,59,0,16
