track,note,velocity,time
3,74,118,0
3,74,0,26
3,74,123,0
3,74,0,115
3,71,101,0
3,71,0,106
3,72,113,0
3,72,0,102
3,71,101,0
3,71,0,51
3,69,101,0
3,67,106,0
3,69,0,5
3,67,0,100
3,69,106,0
3,69,0,112
3,71,101,0
3,71,0,45
3,69,118,0
3,69,0,645
3,69,118,0
3,69,0,40
3,69,118,0
3,69,0,106
3,71,101,0
3,71,0,105
3,72,118,0
3,72,0,204
3,72,106,0
3,72,0,114
3,71,95,0
3,71,0,36
3,74,113,0
3,74,0,140
3,74,118,0
3,74,0,715
3,74,118,0
3,74,0,26
3,74,123,0
3,74,0,115
3,71,101,0
3,71,0,106
3,72,113,0
3,72,0,102
3,71,101,0
3,71,0,51
3,69,101,0
3,67,106,0
3,69,0,5
3,67,0,100
3,69,106,0
3,69,0,112
3,71,101,0
3,71,0,45
3,69,118,0
3,69,0,645
3,69,118,0
3,69,0,40
3,69,118,0
3,69,0,106
3,71,101,0
3,71,0,105
3,72,118,0
3,72,0,204
3,72,106,0
3,72,0,114
3,71,95,0
3,71,0,36
3,74,113,0
3,74,0,140
3,74,118,0
3,74,0,715
3,70,123,0
3,70,0,210
3,67,123,0
3,67,0,108
3,64,118,0
3,64,0,200
3,62,123,0
3,62,0,203
3,71,106,0
3,71,0,161
3,71,113,0
3,71,0,375
3,71,123,0
3,71,0,87
3,72,123,0
3,72,0,198
3,72,123,0
3,72,0,201
3,71,127,0
3,71,0,100
3,69,113,0
3,69,0,219
3,67,118,0
3,67,0,551
3,72,118,0
3,71,113,0
3,72,0,13
3,71,0,35
3,69,113,0
3,69,0,216
3,71,123,0
3,67,118,0
3,71,0,2
3,67,0,807
3,72,123,0
3,72,0,110
3,71,118,0
3,71,0,107
3,69,101,0
3,69,0,75
3,71,123,0
3,71,0,226
3,67,123,0
3,67,0,735
3,74,118,0
3,74,0,26
3,74,123,0
3,74,0,115
3,71,101,0
3,71,0,106
3,72,113,0
3,72,0,102
3,71,101,0
3,71,0,51
3,69,101,0
3,67,106,0
3,69,0,5
3,67,0,100
3,69,106,0
3,69,0,112
3,71,101,0
3,71,0,45
3,69,118,0
3,69,0,645
3,69,118,0
3,69,0,40
3,69,118,0
3,69,0,106
3,71,101,0
3,71,0,105
3,72,118,0
3,72,0,204
3,72,106,0
3,72,0,114
3,71,95,0
3,71,0,36
3,74,113,0
3,74,0,140
3,74,118,0
3,74,0,715
3,74,118,0
3,74,0,26
3,74,123,0
3,74,0,115
3,71,101,0
3,71,0,106
3,72,113,0
3,72,0,102
3,71,101,0
3,71,0,51
3,69,101,0
3,67,106,0
3,69,0,5
3,67,0,100
3,69,106,0
3,69,0,112
3,71,101,0
3,71,0,45
3,69,118,0
3,69,0,645
3,69,118,0
3,69,0,40
3,69,118,0
3,69,0,106
3,71,101,0
3,71,0,105
3,72,118,0
3,72,0,204
3,72,106,0
3,72,0,114
3,71,95,0
3,71,0,36
3,74,113,0
3,74,0,140
3,74,118,0
3,74,0,715
3,70,123,0
3,70,0,210
3,67,123,0
3,67,0,108
3,64,118,0
3,64,0,200
3,62,123,0
3,62,0,203
3,71,106,0
3,71,0,161
3,71,113,0
3,71,0,375
3,71,123,0
3,71,0,87
3,72,123,0
3,72,0,198
3,72,123,0
3,72,0,201
3,71,127,0
3,71,0,100
3,69,113,0
3,69,0,219
3,67,118,0
3,67,0,551
3,72,118,0
3,71,113,0
3,72,0,13
3,71,0,35
3,69,113,0
3,69,0,216
3,71,123,0
3,67,118,0
3,71,0,2
3,67,0,807
3,72,123,0
3,72,0,110
3,71,118,0
3,71,0,107
3,69,101,0
3,69,0,75
3,71,123,0
3,71,0,226
3,67,123,0
3,67,0,735
3,71,123,0
3,71,0,53
3,71,127,0
3,71,0,20
3,69,106,22
3,69,0,113
3,67,123,0
3,67,0,216
3,67,127,0
3,67,0,85
3,79,127,0
3,79,0,199
3,77,127,0
3,77,0,180
3,76,118,0
3,76,0,461
3,72,127,0
3,72,0,37
3,72,118,0
3,72,0,190
3,69,118,0
3,69,0,207
3,69,123,0
3,69,0,209
3,78,127,0
3,78,0,212
3,76,118,0
3,76,0,199
3,74,123,0
3,74,0,377
3,78,113,0
3,78,0,78
3,78,101,0
3,78,0,210
3,76,118,0
3,76,0,177
3,72,123,0
3,72,0,198
3,67,113,0
3,67,0,204
3,69,123,0
3,69,0,178
3,71,101,0
3,71,0,120
3,71,101,0
3,71,0,724
3,74,118,0
3,74,0,26
3,74,123,0
3,74,0,115
3,71,101,0
3,71,0,106
3,72,113,0
3,72,0,102
3,71,101,0
3,71,0,51
3,69,101,0
3,67,106,0
3,69,0,5
3,67,0,100
3,69,106,0
3,69,0,112
3,71,101,0
3,71,0,45
3,69,118,0
3,69,0,645
3,69,118,0
3,69,0,40
3,69,118,0
3,69,0,106
3,71,101,0
3,71,0,105
3,72,118,0
3,72,0,204
3,72,106,0
3,72,0,114
3,71,95,0
3,71,0,36
3,74,113,0
3,74,0,140
3,74,118,0
3,74,0,715
3,74,118,0
3,74,0,26
3,74,123,0
3,74,0,115
3,71,101,0
3,71,0,106
3,72,113,0
3,72,0,102
3,71,101,0
3,71,0,51
3,69,101,0
3,67,106,0
3,69,0,5
3,67,0,100
3,69,106,0
3,69,0,112
3,71,101,0
3,71,0,45
3,69,118,0
3,69,0,645
3,69,118,0
3,69,0,40
3,69,118,0
3,69,0,106
3,71,101,0
3,71,0,105
3,72,118,0
3,72,0,204
3,72,106,0
3,72,0,114
3,71,95,0
3,71,0,36
3,74,113,0
3,74,0,140
3,74,118,0
3,74,0,715
3,70,123,0
3,70,0,210
3,67,123,0
3,67,0,108
3,64,118,0
3,64,0,200
3,62,123,0
3,62,0,203
3,71,106,0
3,71,0,161
3,71,113,0
3,71,0,375
3,71,123,0
3,71,0,87
3,72,123,0
3,72,0,198
3,72,123,0
3,72,0,201
3,71,127,0
3,71,0,100
3,69,113,0
3,69,0,219
3,67,118,0
3,67,0,551
3,72,118,0
3,71,113,0
3,72,0,13
3,71,0,35
3,69,113,0
3,69,0,216
3,71,123,0
3,67,118,0
3,71,0,2
3,67,0,807
3,72,123,0
3,72,0,110
3,71,118,0
3,71,0,107
3,69,101,0
3,69,0,75
3,71,123,0
3,71,0,226
3,67,123,0
3,67,0,735
3,71,123,0
3,71,0,53
3,71,127,0
3,71,0,20
3,69,106,22
3,69,0,113
3,67,123,0
3,67,0,216
3,67,127,0
3,67,0,85
3,79,127,0
3,79,0,199
3,77,127,0
3,77,0,180
3,76,118,0
3,76,0,461
3,72,127,0
3,72,0,37
3,72,118,0
3,72,0,190
3,69,118,0
3,69,0,207
3,69,123,0
3,69,0,209
3,78,127,0
3,78,0,212
3,76,118,0
3,76,0,199
3,74,123,0
3,74,0,377
3,78,113,0
3,78,0,78
3,78,101,0
3,78,0,210
3,76,118,0
3,76,0,177
3,72,123,0
3,72,0,198
3,67,113,0
3,67,0,204
3,69,123,0
3,69,0,178
3,71,101,0
3,71,0,120
3,71,101,0
3,71,0,120
3,78,113,0
3,78,0,63
3,78,118,0
3,78,0,211
3,76,123,0
3,76,0,230
3,72,118,0
3,72,0,217
3,67,118,0
3,67,0,213
3,69,118,0
3,69,0,222
3,67,106,0
3,67,0,1982
4,52,68,12396
4,52,0,870
4,50,72,90
4,50,0,866
4,50,76,94
4,50,0,413
4,51,72,67
4,51,0,440
4,52,68,40
4,52,0,724
4,36,85,236
4,36,0,942
4,31,89,18
4,31,0,934
4,36,89,26
4,36,0,937
4,31,89,23
4,31,0,844
4,31,76,116
4,31,0,832
4,38,72,8
4,43,80,120
4,38,0,3
4,43,0,669
4,43,72,48
4,43,0,115
4,38,59,5
4,38,0,109
4,43,72,11
4,43,0,758
4,43,57,82
4,38,53,60
4,43,0,9
4,38,0,44
4,31,62,7
4,31,0,356
4,43,68,4
4,43,0,470
4,38,72,10
4,31,72,120
4,38,0,3
4,31,0,707
4,43,72,10
4,43,0,114
4,38,62,6
4,38,0,118
4,43,72,2
4,43,0,651
4,43,80,69
4,43,0,119
4,38,62,1
4,38,0,113
4,43,72,7
4,43,0,644
4,43,76,76
4,43,0,101
4,38,59,19
4,38,0,118
4,31,68,2
4,31,0,354
4,43,72,6
4,31,80,360
4,43,0,6
4,31,0,133
4,52,68,101
4,52,0,870
4,50,72,90
4,50,0,866
4,50,76,94
4,50,0,413
4,51,72,67
4,51,0,440
4,52,68,40
4,52,0,724
4,36,85,236
4,36,0,942
4,31,89,18
4,31,0,934
4,36,89,26
4,36,0,937
4,31,89,23
4,31,0,844
4,38,93,116
4,38,0,470
4,39,62,10
4,39,0,477
4,40,72,3
4,38,60,480
4,40,0,2
4,38,0,474
4,36,76,4
4,33,68,480
4,36,0,5
4,33,0,470
4,38,76,5
4,38,0,470
4,36,64,10
4,36,0,406
4,35,60,74
4,35,0,858
4,36,68,102
4,36,0,801
4,36,68,39
4,36,0,112
4,35,60,8
4,35,0,802
4,31,76,158
4,31,0,832
4,38,72,8
4,43,80,120
4,38,0,3
4,43,0,669
4,43,72,48
4,43,0,115
4,38,59,5
4,38,0,109
4,43,72,11
4,43,0,758
4,43,57,82
4,38,53,60
4,43,0,9
4,38,0,44
4,31,62,7
4,31,0,356
4,43,68,4
4,43,0,470
4,38,72,10
4,31,72,120
4,38,0,3
4,31,0,707
4,43,72,10
4,43,0,114
4,38,62,6
4,38,0,118
4,43,72,2
4,43,0,651
4,43,80,69
4,43,0,119
4,38,62,1
4,38,0,113
4,43,72,7
4,43,0,644
4,43,76,76
4,43,0,101
4,38,59,19
4,38,0,118
4,31,68,2
4,31,0,354
4,43,72,6
4,31,80,360
4,43,0,6
4,31,0,133
4,52,68,101
4,52,0,870
4,50,72,90
4,50,0,866
4,50,76,94
4,50,0,413
4,51,72,67
4,51,0,440
4,52,68,40
4,114,1,0
4,114,0,5
4,52,0,719
4,36,85,236
4,36,0,942
4,31,89,18
4,31,0,934
4,36,89,26
4,36,0,937
4,31,89,23
4,31,0,844
4,38,93,116
4,38,0,470
4,39,62,10
4,39,0,477
4,40,72,3
4,38,60,480
4,40,0,2
4,38,0,474
4,36,76,4
4,33,68,480
4,36,0,5
4,33,0,470
4,38,76,5
4,38,0,470
4,36,64,10
4,36,0,406
4,35,60,74
4,35,0,858
4,36,68,102
4,36,0,801
4,36,68,39
4,36,0,112
4,31,93,8
4,31,0,465
4,35,85,15
4,35,0,475
4,36,62,5
4,36,0,469
4,38,93,11
4,38,0,475
4,31,93,5
4,31,0,1936
5,58,53,12408
5,61,72,0
5,67,89,0
5,61,0,840
5,58,0,2
5,67,0,7
5,50,72,111
5,62,68,0
5,67,72,0
5,59,60,0
5,62,0,72
5,59,0,28
5,67,0,4
5,50,0,36
5,66,59,136
5,50,60,0
5,62,76,0
5,57,60,0
5,66,0,75
5,62,0,8
5,50,0,21
5,57,0,26
5,66,60,5
5,51,57,0
5,57,55,0
5,63,68,0
5,51,0,97
5,57,0,4
5,63,0,2
5,66,0,2
5,59,57,86
5,64,76,0
5,52,49,0
5,55,56,0
5,59,0,13
5,55,0,5
5,52,0,4
5,64,0,2
5,57,57,257
5,65,57,0
5,62,60,0
5,57,0,363
5,62,0,1
5,65,0,9
5,48,85,99
5,55,68,120
5,60,60,120
5,64,56,120
5,55,0,4
5,64,0,15
5,48,0,3
5,60,0,13
5,43,76,16
5,50,64,120
5,50,0,29
5,55,64,16
5,55,0,97
5,59,68,23
5,59,0,100
5,50,85,20
5,50,0,54
5,62,85,66
5,62,0,42
5,67,60,78
5,43,0,4
5,67,0,32
5,48,80,204
5,55,76,113
5,60,76,19
5,60,0,79
5,67,76,41
5,67,0,51
5,55,0,53
5,48,0,25
5,43,80,70
5,50,72,120
5,55,62,120
5,59,62,120
5,62,64,120
5,50,0,340
5,55,0,12
5,59,0,5
5,43,0,6
5,62,0,3
5,58,53,7794
5,61,72,0
5,67,89,0
5,61,0,840
5,58,0,2
5,67,0,7
5,50,72,111
5,62,68,0
5,67,72,0
5,59,60,0
5,62,0,72
5,59,0,28
5,67,0,4
5,50,0,36
5,66,59,136
5,50,60,0
5,62,76,0
5,57,60,0
5,66,0,75
5,62,0,8
5,50,0,21
5,57,0,26
5,66,60,5
5,51,57,0
5,57,55,0
5,63,68,0
5,51,0,97
5,57,0,4
5,63,0,2
5,66,0,2
5,59,57,86
5,64,76,0
5,52,49,0
5,55,56,0
5,59,0,13
5,55,0,5
5,52,0,4
5,64,0,2
5,72,102,137
5,71,68,60
5,72,0,7
5,71,0,52
5,69,76,1
5,57,57,0
5,65,57,0
5,62,60,0
5,69,0,315
5,71,93,37
5,57,0,11
5,62,0,1
5,65,0,9
5,71,0,38
5,69,85,1
5,67,89,60
5,48,85,0
5,69,0,2
5,55,68,118
5,60,60,120
5,64,56,120
5,55,0,4
5,67,0,7
5,64,0,8
5,48,0,3
5,60,0,13
5,43,76,16
5,50,64,120
5,50,0,29
5,74,62,16
5,55,64,0
5,55,0,97
5,79,80,23
5,59,68,0
5,59,0,100
5,50,85,20
5,50,0,54
5,74,0,21
5,74,80,45
5,62,85,0
5,79,0,29
5,62,0,13
5,67,60,78
5,43,0,4
5,67,0,32
5,74,0,150
5,76,85,54
5,48,80,0
5,72,62,113
5,55,76,0
5,60,76,19
5,60,0,79
5,67,76,41
5,67,0,51
5,55,0,53
5,48,0,25
5,76,0,68
5,72,0,5
5,43,80,70
5,50,72,120
5,55,62,120
5,59,62,120
5,62,64,120
5,50,0,340
5,55,0,12
5,59,0,5
5,43,0,6
5,62,0,3
5,58,53,14514
5,61,72,0
5,67,89,0
5,61,0,840
5,58,0,2
5,67,0,7
5,50,72,111
5,62,68,0
5,67,72,0
5,59,60,0
5,62,0,72
5,59,0,28
5,67,0,4
5,50,0,36
5,66,59,136
5,50,60,0
5,62,76,0
5,57,60,0
5,66,0,75
5,62,0,8
5,50,0,21
5,57,0,26
5,66,60,5
5,51,57,0
5,57,55,0
5,63,68,0
5,51,0,97
5,57,0,4
5,63,0,2
5,66,0,2
5,59,57,86
5,64,76,0
5,52,49,0
5,55,56,0
5,59,0,13
5,55,0,5
5,52,0,4
5,64,0,2
5,72,102,137
5,71,68,60
5,72,0,7
5,71,0,52
5,69,76,1
5,57,57,0
5,65,57,0
5,62,60,0
5,69,0,315
5,71,93,37
5,57,0,11
5,62,0,1
5,65,0,9
5,71,0,38
5,69,85,1
5,67,89,60
5,48,85,0
5,69,0,2
5,55,68,118
5,60,60,120
5,64,56,120
5,55,0,4
5,67,0,7
5,64,0,8
5,48,0,3
5,60,0,13
5,43,76,16
5,50,64,120
5,50,0,29
5,74,62,16
5,55,64,0
5,55,0,97
5,79,80,23
5,59,68,0
5,59,0,100
5,50,85,20
5,50,0,54
5,74,0,21
5,74,80,45
5,62,85,0
5,79,0,29
5,62,0,13
5,67,60,78
5,43,0,4
5,67,0,32
5,74,0,150
5,76,85,54
5,48,80,0
5,72,62,113
5,55,76,0
5,60,76,19
5,60,0,79
5,67,76,41
5,67,0,51
5,55,0,53
5,48,0,25
5,76,0,68
5,72,0,5
5,43,80,70
5,50,72,120
5,55,62,120
5,59,62,120
5,62,64,120
5,50,0,340
5,55,0,12
5,59,0,5
5,43,0,6
5,62,0,3
5,50,107,114
5,57,72,120
5,57,0,88
5,62,102,14
5,66,102,120
5,50,0,1
5,62,0,3
5,66,0,64
5,51,113,52
5,57,80,118
5,63,93,99
5,51,0,9
5,57,0,20
5,66,93,91
5,63,0,24
5,66,0,10
5,52,93,15
5,59,89,120
5,64,89,20
5,59,0,17
5,52,0,75
5,64,0,3
5,67,76,25
5,67,0,31
5,50,102,8
5,59,72,120
5,57,68,0
5,59,0,60
5,57,0,3
5,62,89,1
5,65,89,0
5,59,93,58
5,62,0,4
5,65,0,6
5,50,0,14
5,59,0,42
5,48,93,15
5,60,80,120
5,64,85,102
5,60,0,3
5,48,0,62
5,67,72,55
5,67,0,34
5,64,0,4
5,45,107,82
5,52,89,120
