track,note,velocity,time
1,69,127,7604
1,71,117,24
1,69,111,28
1,71,127,20
1,69,127,28
1,71,127,36
1,69,127,28
1,71,127,32
1,69,127,192
1,71,124,28
1,71,127,48
1,69,124,24
1,71,127,20
1,69,127,16
1,69,127,104
1,69,127,140
1,71,117,16
1,69,127,92
1,71,127,32
1,69,124,48
1,71,127,40
1,69,127,32
1,71,127,32
1,69,127,16
1,71,127,32
1,71,127,40
1,69,105,20
1,71,127,32
1,69,127,16
1,69,127,112
1,71,127,24
1,74,127,32
1,76,127,84
1,74,127,72
1,71,127,32
1,69,127,16
1,67,127,20
1,69,100,56
1,64,111,0
1,64,127,44
1,69,127,32
1,71,127,12
1,74,127,92
1,76,127,12
1,74,127,72
1,71,127,16
1,69,127,16
1,67,127,36
1,69,127,8
1,67,111,24
1,64,127,12
1,71,127,496
1,71,124,64
1,71,127,48
1,72,124,8
1,71,127,8
1,67,127,32
1,74,127,232
1,74,117,56
1,74,127,52
1,76,127,16
1,71,127,108
1,69,127,4
1,71,127,0
1,72,124,20
1,71,127,40
1,72,127,4
1,71,127,44
1,67,127,32
1,66,127,8
1,64,127,40
1,62,127,96
1,69,127,212
1,71,117,24
1,69,111,28
1,71,127,20
1,69,127,28
1,71,127,36
1,69,127,28
1,71,127,32
1,69,127,192
1,71,124,28
1,71,127,48
1,69,124,24
1,71,127,20
1,69,127,16
1,69,127,104
1,69,127,140
1,71,117,16
1,69,127,92
1,71,127,32
1,69,124,48
1,71,127,40
1,69,127,32
1,71,127,32
1,69,127,16
1,71,127,32
1,71,127,40
1,69,105,20
1,71,127,32
1,69,127,16
1,69,127,112
1,71,127,24
1,74,127,32
1,76,127,84
1,74,127,72
1,71,127,32
1,69,127,16
1,67,127,20
1,69,127,56
1,64,111,0
1,64,127,44
1,69,127,32
1,71,127,12
1,74,127,92
1,76,127,12
1,74,127,72
1,71,127,16
1,69,127,16
1,67,127,36
1,69,127,8
1,67,111,24
1,64,127,12
1,71,127,496
1,71,124,64
1,71,127,48
1,72,124,8
1,71,127,8
1,67,127,32
1,74,127,232
1,74,117,56
1,74,127,52
1,76,127,16
1,71,127,108
1,71,127,148
1,72,124,20
1,71,127,40
1,72,127,4
1,71,127,44
1,67,127,32
1,66,127,8
1,64,127,40
1,62,127,96
1,69,127,1040
1,71,127,8
1,71,127,84
1,72,111,40
1,72,127,64
1,72,127,48
1,71,127,24
1,72,127,36
1,72,124,56
1,72,127,64
1,71,127,64
1,72,127,32
1,72,127,80
1,72,124,68
1,72,127,44
1,69,127,768
1,69,127,0
1,71,127,12
1,71,127,80
1,71,127,56
1,69,127,48
1,71,127,80
1,71,127,64
1,71,127,64
1,76,127,36
1,74,127,0
1,71,117,4
1,69,117,0
1,71,127,40
1,69,127,16
1,71,127,8
1,71,127,64
1,72,127,28
1,72,127,44
1,72,127,56
1,71,127,24
1,72,127,52
1,72,127,56
1,71,127,16
1,74,127,56
1,72,117,28
1,72,127,40
1,71,127,72
1,71,127,64
1,69,127,0
1,67,127,192
1,69,127,276
1,71,127,8
1,71,127,7564
1,74,127,12
1,76,127,116
1,74,127,72
1,71,127,32
1,69,127,16
1,67,127,20
1,69,127,56
1,64,111,0
1,64,127,44
1,69,127,32
1,71,127,12
1,74,127,92
1,76,127,12
1,74,127,72
1,71,127,16
1,69,127,16
1,67,127,36
1,69,127,8
1,67,111,24
1,64,127,12
1,71,127,496
1,71,124,64
1,71,127,48
1,72,124,8
1,71,127,8
1,67,127,32
1,67,127,40
1,74,127,64
1,74,117,56
1,74,127,52
1,76,127,16
1,71,127,108
1,71,127,148
1,72,124,20
1,71,127,40
1,72,127,4
1,71,127,44
1,67,127,32
1,66,127,8
1,64,127,40
1,62,127,96
1,69,127,1040
1,71,127,8
1,71,127,84
1,72,111,40
1,72,127,64
1,72,127,48
1,71,127,24
1,72,127,36
1,72,124,56
1,72,127,64
1,71,127,64
1,72,127,32
1,72,127,80
1,72,124,68
1,72,127,44
1,69,127,768
1,69,127,0
1,71,127,12
1,71,127,80
1,71,127,56
1,69,127,48
1,71,127,80
1,71,127,64
1,71,127,64
1,76,127,36
1,74,127,0
1,71,117,4
1,69,117,0
1,71,127,40
1,69,127,16
1,71,127,8
1,71,127,64
1,72,127,28
1,72,127,44
1,72,127,56
1,71,127,24
1,72,127,52
1,72,127,56
1,71,127,16
1,74,127,56
1,72,117,28
1,72,127,40
1,71,127,72
1,71,127,64
1,69,127,0
1,67,127,192
1,69,127,276
1,71,127,8
1,67,127,1420
1,69,127,16
1,71,127,28
1,67,127,1152
1,69,127,12
1,71,127,32
1,67,127,68
1,69,127,12
1,71,127,24
1,67,127,52
1,69,127,16
1,71,127,48
1,67,127,16
1,69,127,192
1,71,127,96
2,31,93,1460
2,31,113,116
2,36,98,56
2,36,93,104
2,38,89,36
2,38,93,128
2,38,89,80
2,33,89,192
2,38,93,8
2,31,98,8
2,31,102,132
2,36,85,4
2,36,98,104
2,38,93,8
2,38,93,128
2,38,98,72
2,33,93,192
2,38,89,12
2,31,93,44
2,31,107,120
2,36,98,24
2,36,89,100
2,38,98,60
2,38,93,104
2,33,89,768
2,38,80,0
2,33,76,192
2,38,80,12
2,31,93,20
2,31,93,132
2,36,102,36
2,36,102,60
2,38,93,88
2,38,93,112
2,38,98,64
2,33,80,24
2,38,89,8
2,33,76,192
2,38,85,24
2,40,89,76
2,40,98,120
2,35,76,480
2,28,93,92
2,28,102,120
2,40,89,20
2,36,93,0
2,31,93,672
2,36,85,8
2,36,102,108
2,40,93,72
2,28,93,32
2,28,93,132
2,28,93,24
2,40,89,24
2,33,98,0
2,28,98,672
2,33,93,8
2,33,102,100
2,35,102,52
2,36,93,56
2,31,93,672
2,36,98,84
2,36,102,112
2,31,64,288
2,36,93,16
2,35,102,56
2,30,89,672
2,35,85,12
2,35,102,68
2,30,80,288
2,35,89,16
2,33,107,60
2,28,93,672
2,33,98,20
2,33,102,92
2,28,85,288
2,33,102,0
2,38,107,104
2,31,93,220
2,31,107,120
2,36,98,24
2,36,89,100
2,38,98,60
2,38,93,104
2,33,89,768
2,38,80,0
2,33,76,192
2,38,80,12
2,31,93,20
2,31,93,132
2,36,102,36
2,36,102,60
2,38,93,88
2,38,93,112
2,38,98,64
2,33,80,24
2,38,89,8
2,33,76,192
2,38,85,24
2,40,89,76
2,40,98,120
2,35,76,480
2,28,93,92
2,28,102,120
2,40,89,20
2,36,93,0
2,31,93,672
2,36,85,8
2,36,102,108
2,40,93,72
2,28,93,32
2,28,93,132
2,28,93,24
2,40,89,24
2,33,98,0
2,28,98,672
2,33,93,8
2,33,102,100
2,35,102,52
2,36,93,56
2,31,93,672
2,36,98,84
2,36,102,112
2,31,64,288
2,36,93,16
2,35,102,56
2,30,89,672
2,35,85,12
2,35,102,68
2,30,80,288
2,35,89,16
2,33,107,60
2,28,93,672
2,33,98,20
2,33,102,92
2,28,85,288
2,33,102,0
2,38,107,104
2,33,89,220
2,40,76,8
2,33,76,16
2,38,76,32
2,31,80,8
2,42,62,24
2,40,85,16
2,40,89,36
2,35,89,16
2,28,98,16
2,40,102,192
2,28,93,8
2,33,107,84
2,33,89,56
2,40,98,192
2,40,80,76
2,33,93,96
2,33,89,56
2,38,113,0
2,38,93,64
2,40,102,16
2,28,107,16
2,40,98,4
2,28,98,288
2,40,85,0
2,36,107,28
2,36,102,40
2,31,98,96
2,36,113,68
2,36,98,64
2,35,93,8
2,33,98,16
2,31,93,76
2,31,113,116
2,36,98,56
2,36,93,104
2,38,89,36
2,38,93,128
2,38,89,80
2,33,89,192
2,38,93,8
2,31,98,8
2,31,102,132
2,36,85,4
2,36,98,104
2,38,93,8
2,38,93,128
2,38,98,72
2,33,93,192
2,38,89,12
2,40,89,44
2,40,98,120
2,35,76,480
2,28,93,92
2,28,102,120
2,40,89,20
2,36,93,0
2,31,93,672
2,36,85,8
2,36,102,108
2,40,93,72
2,28,93,32
2,28,93,132
2,28,93,24
2,40,89,24
2,33,98,0
2,28,98,672
2,33,93,8
2,33,102,100
2,35,102,52
2,36,93,56
2,31,93,672
2,36,98,84
2,36,102,112
2,31,64,288
2,36,93,16
2,35,102,56
2,30,89,672
2,35,85,12
2,35,102,68
2,30,80,288
2,35,89,16
2,33,107,60
2,28,93,672
2,33,98,20
2,33,102,92
2,28,85,288
2,33,102,0
2,38,107,104
2,33,89,220
2,40,76,8
2,33,76,16
2,38,76,32
2,31,80,8
2,42,62,24
2,40,85,16
2,40,89,36
2,35,89,16
2,28,98,16
2,40,102,192
2,28,93,8
2,33,107,84
2,33,89,56
2,40,98,192
2,40,80,76
2,33,93,96
2,33,89,56
2,38,113,0
2,38,93,64
2,40,102,16
2,28,107,16
2,40,98,4
2,28,98,288
2,40,85,0
2,36,107,28
2,36,102,40
2,31,98,96
2,36,113,68
2,36,98,64
2,35,93,8
2,33,98,16
2,40,102,76
2,28,107,16
2,40,98,4
2,28,98,288
2,40,85,0
2,36,107,28
2,36,102,40
2,31,98,96
2,36,113,68
2,36,98,64
2,35,93,8
2,33,98,16
2,40,102,76
2,28,107,16
2,40,98,4
2,28,98,288
2,40,85,0
2,36,107,28
2,36,102,40
2,31,98,96
2,36,113,68
2,36,98,64
2,35,93,8
2,33,98,16
2,40,102,76
2,28,107,16
2,40,98,4
2,28,98,288
2,40,85,0
2,36,107,28
2,36,102,40
2,31,98,96
2,36,113,68
2,36,98,64
2,35,93,8
2,33,98,16
2,40,102,76
2,28,107,16
2,40,98,4
2,28,98,288
2,40,85,0
2,36,107,28
2,36,102,40
2,31,98,96
2,36,113,68
2,36,98,64
2,35,93,8
2,33,98,16
2,28,107,76
3,62,98,25232
3,71,102,0
3,66,102,0
3,62,62,36
3,69,76,0
3,66,72,0
3,66,89,44
3,62,80,0
3,69,89,0
3,67,107,52
3,62,98,0
3,62,89,48
3,69,107,0
3,64,76,24680
3,60,85,0
3,45,76,0
3,57,76,0
3,64,93,88
3,60,80,96
3,57,60,8
3,60,89,124
3,64,72,0
3,56,64,0
3,64,89,120
3,60,76,0
3,56,72,0
3,64,80,256
3,60,72,0
3,55,72,0
3,64,89,68
3,55,72,0
3,60,85,0
3,50,80,8
3,69,85,0
3,62,72,0
3,66,72,0
3,57,76,64
3,62,89,0
3,66,93,32
3,69,98,0
3,62,89,0
3,52,89,316
3,59,102,0
3,56,93,0
3,40,93,0
3,52,55,0
3,47,85,4
3,52,85,36
3,40,89,80
3,56,93,0
3,52,93,0
3,59,102,0
3,47,68,324
3,56,72,16
3,56,72,24
3,64,93,0
3,59,93,0
3,48,85,8
3,64,93,0
3,59,89,0
3,67,93,0
3,52,72,0
3,55,72,0
3,55,93,124
3,60,98,20
3,67,107,120
3,64,107,0
3,48,93,0
3,62,107,84
3,67,98,0
3,55,62,108
3,60,98,4
3,55,93,6324
3,52,85,0
3,40,76,0
3,59,89,0
3,64,89,208
3,67,98,0
3,71,93,0
3,64,56,116
3,52,85,96
3,59,93,72
3,64,76,24
3,59,89,60
3,64,93,0
3,67,102,0
3,71,98,0
3,64,89,0
3,48,89,224
3,64,89,0
3,67,93,0
3,60,89,0
3,55,80,88
3,60,85,4
3,55,62,28
3,67,107,160
3,62,119,0
3,55,89,128
3,60,93,56
3,64,98,0
3,67,98,0
3,55,102,128
3,62,107,52
3,67,93,0
3,60,89,24
3,55,93,160
3,40,89,0
3,59,89,0
3,52,89,0
3,55,102,80
3,52,89,0
3,59,98,0
3,52,62,96
3,40,93,12
3,64,102,288
3,67,107,32
3,71,107,4
3,67,98,96
3,64,93,8
3,64,85,148
3,61,76,0
3,45,93,0
3,52,80,0
3,57,80,0
3,57,72,8
3,52,93,16
3,57,93,96
3,61,48,48
3,45,102,80
3,57,68,88
3,64,107,32
3,61,107,0
3,61,93,20
3,64,50,0
3,57,93,24
3,45,102,60
3,57,98,0
3,59,113,32
3,47,113,0
3,52,72,80
3,67,89,0
3,64,93,0
3,48,76,0
3,55,68,0
3,59,93,0
3,48,98,68
3,52,80,96
3,55,93,0
3,59,85,0
3,59,89,44
3,67,102,0
3,64,102,0
3,55,80,192
3,64,107,68
3,67,107,0
3,59,93,0
3,62,93,300
3,47,80,0
3,66,93,0
3,69,98,0
3,62,93,88
3,62,72,44
3,62,55,56
3,69,107,152
3,64,113,0
3,66,107,36
3,69,50,8
3,55,98,284
3,60,102,0
3,64,98,0
3,57,64,160
3,60,85,96
3,64,98,96
3,69,98,8
3,72,102,12
3,76,102,16
3,72,98,8
3,67,89,0
3,69,85,0
3,72,98,24
3,81,93,32
3,62,93,0
3,74,98,0
3,78,93,0
3,69,68,0
3,57,76,6448
3,45,76,0
3,64,76,0
3,60,85,0
3,64,93,88
3,60,80,96
3,57,60,8
3,64,72,124
3,56,64,0
3,60,89,0
3,64,89,120
3,60,76,0
3,56,72,0
3,64,80,256
3,55,72,0
3,60,72,0
3,60,85,68
3,55,72,0
3,64,89,0
3,66,72,8
3,50,80,0
3,62,72,0
3,69,85,0
3,57,76,64
3,62,89,0
3,69,98,32
3,62,89,0
3,66,93,0
3,56,93,316
3,52,89,0
3,59,102,0
3,40,93,0
3,52,55,0
3,47,85,4
3,52,85,36
3,52,93,80
3,59,102,0
3,40,89,0
3,56,93,0
3,47,68,324
3,56,72,16
3,59,93,24
3,56,72,0
3,64,93,0
3,59,89,8
3,64,93,0
3,52,72,0
3,48,85,0
3,67,93,0
3,55,72,0
3,55,93,124
3,60,98,20
3,67,107,120
3,48,93,0
3,64,107,0
3,67,98,84
3,62,107,0
3,55,62,108
3,60,98,4
3,52,89,180
3,56,93,0
3,40,93,0
3,59,102,0
3,52,55,0
3,47,85,4
3,52,85,36
3,56,93,80
3,52,93,0
3,59,102,0
3,40,89,0
3,47,68,324
3,56,72,16
3,56,72,24
3,59,93,0
3,64,93,0
3,52,72,8
3,67,93,0
3,55,72,0
3,48,85,0
3,64,93,0
3,59,89,0
3,55,93,124
3,60,98,20
3,48,93,120
3,64,107,0
3,67,107,0
3,67,98,84
3,62,107,0
3,55,62,108
3,60,98,4
3,52,89,180
3,40,93,0
3,56,93,0
3,59,102,0
3,52,55,0
3,47,85,4
3,52,85,36
3,59,102,80
3,56,93,0
3,52,93,0
3,40,89,0
3,47,68,324
3,56,72,16
3,64,93,24
3,56,72,0
3,59,93,0
3,52,72,8
3,55,72,0
3,67,93,0
3,48,85,0
3,59,89,0
3,64,93,0
3,55,93,124
3,60,98,20
3,64,107,120
3,67,107,0
3,48,93,0
3,62,107,84
3,67,98,0
3,55,62,108
3,60,98,4
3,52,89,180
3,59,102,0
3,56,93,0
3,40,93,0
3,52,55,0
3,47,85,4
3,52,85,36
3,59,102,80
3,40,89,0
3,56,93,0
3,52,93,0
3,47,68,324
3,56,72,16
3,59,93,24
3,56,72,0
3,64,93,0
3,55,72,8
3,52,72,0
3,67,93,0
3,59,89,0
3,48,85,0
3,64,93,0
3,55,93,124
3,60,98,20
3,48,93,120
3,64,107,0
3,67,107,0
3,62,107,84
3,67,98,0
3,55,62,108
3,60,98,4
3,40,93,180
3,52,89,0
3,56,93,0
3,59,102,0
3,52,55,0
3,47,85,4
3,52,85,36
3,59,102,80
3,52,93,0
3,56,93,0
3,40,89,0
3,47,68,324
3,56,72,16
3,56,72,24
3,59,93,0
3,64,93,0
3,48,85,8
3,52,72,0
3,64,93,0
3,59,89,0
3,67,93,0
3,55,72,0
3,55,93,124
3,60,98,20
3,64,107,120
3,48,93,0
3,67,107,0
3,67,98,84
3,62,107,0
3,55,62,108
3,60,98,4
3,59,98,136
3,64,93,0
3,56,89,0
3,40,102,0
4,64,127,3032
4,64,107,24
4,64,113,8
4,64,107,0
4,62,102,64
4,60,72,12
4,59,89,8
4,69,102,12
4,69,107,4
4,67,89,12
4,66,89,4
4,64,93,6720
4,64,93,4
4,69,107,664
4,69,107,36
4,67,93,192
4,69,89,0
4,67,98,96
4,66,72,12
4,64,89,4
4,57,102,4
4,61,98,84
4,64,98,88
4,61,93,92
