track,note,velocity,time
3,69,127,0
3,69,0,47
3,71,117,0
3,71,0,104
3,69,111,0
3,69,0,49
3,71,127,0
3,71,0,103
3,69,127,0
3,69,0,39
3,71,127,0
3,71,0,104
3,69,127,0
3,69,0,41
3,71,127,0
3,69,127,0
3,71,0,10
3,69,0,34
3,71,124,0
3,71,0,32
3,71,127,0
3,71,0,7
3,69,124,0
3,69,0,29
3,71,127,0
3,71,0,52
3,69,127,0
3,69,0,57
3,69,127,0
3,69,0,694
3,69,127,0
3,69,0,52
3,71,117,0
3,71,0,64
3,69,127,0
3,69,0,40
3,71,127,0
3,71,0,92
3,69,124,0
3,69,0,36
3,71,127,0
3,71,0,102
3,69,127,0
3,69,0,40
3,71,127,0
3,71,0,111
3,69,127,0
3,69,0,40
3,71,127,0
3,71,0,35
3,71,127,0
3,71,0,48
3,69,105,0
3,69,0,40
3,71,127,0
3,71,0,52
3,69,127,0
3,69,0,52
3,69,127,0
3,69,0,427
3,71,127,0
3,71,0,41
3,74,127,0
3,74,0,129
3,76,127,0
3,76,0,16
3,74,127,0
3,74,0,30
3,71,127,0
3,71,0,4
3,69,127,0
3,69,0,49
3,67,127,0
3,67,0,41
3,69,100,0
3,69,0,112
3,64,111,0
3,64,0,34
3,64,127,0
3,64,0,432
3,69,127,0
3,69,0,54
3,71,127,0
3,71,0,15
3,74,127,57
3,74,0,34
3,76,127,0
3,76,0,61
3,74,127,0
3,74,0,32
3,71,127,0
3,71,0,4
3,69,127,0
3,69,0,39
3,67,127,0
3,67,0,40
3,69,127,0
3,69,0,105
3,67,111,0
3,67,0,38
3,64,127,0
3,64,0,461
3,71,127,0
3,71,0,80
3,71,124,0
3,71,0,31
3,71,127,0
3,71,0,177
3,72,124,0
3,72,0,14
3,71,127,0
3,71,0,132
3,67,127,0
3,67,0,34
3,74,127,0
3,74,0,13
3,74,117,0
3,74,0,29
3,74,127,0
3,74,0,167
3,76,127,0
3,76,0,17
3,71,127,0
3,69,127,0
3,71,0,29
3,69,0,91
3,71,127,0
3,71,0,108
3,72,124,0
3,72,0,37
3,71,127,0
3,71,0,37
3,72,127,0
3,72,0,93
3,71,127,0
3,71,0,49
3,67,127,0
3,67,0,47
3,66,127,3
3,66,0,36
3,64,127,0
3,62,127,0
3,64,0,10
3,62,0,759
3,69,127,0
3,69,0,47
3,71,117,0
3,71,0,104
3,69,111,0
3,69,0,49
3,71,127,0
3,71,0,103
3,69,127,0
3,69,0,39
3,71,127,0
3,71,0,104
3,69,127,0
3,69,0,41
3,71,127,0
3,69,127,0
3,71,0,10
3,69,0,34
3,71,124,0
3,71,0,32
3,71,127,0
3,71,0,7
3,69,124,0
3,69,0,29
3,71,127,0
3,71,0,52
3,69,127,0
3,69,0,57
3,69,127,0
3,69,0,694
3,69,127,0
3,69,0,52
3,71,117,0
3,71,0,64
3,69,127,0
3,69,0,40
3,71,127,0
3,71,0,92
3,69,124,0
3,69,0,36
3,71,127,0
3,71,0,102
3,69,127,0
3,69,0,40
3,71,127,0
3,71,0,111
3,69,127,0
3,69,0,40
3,71,127,0
3,71,0,35
3,71,127,0
3,71,0,48
3,69,105,0
3,69,0,40
3,71,127,0
3,71,0,52
3,69,127,0
3,69,0,52
3,69,127,0
3,69,0,427
3,71,127,0
3,71,0,41
3,74,127,0
3,74,0,129
3,76,127,0
3,76,0,16
3,74,127,0
3,74,0,30
3,71,127,0
3,71,0,4
3,69,127,0
3,69,0,49
3,67,127,0
3,67,0,41
3,69,127,0
3,69,0,112
3,64,111,0
3,64,0,34
3,64,127,0
3,64,0,432
3,69,127,0
3,69,0,54
3,71,127,0
3,71,0,15
3,74,127,57
3,74,0,34
3,76,127,0
3,76,0,61
3,74,127,0
3,74,0,32
3,71,127,0
3,71,0,4
3,69,127,0
3,69,0,39
3,67,127,0
3,67,0,40
3,69,127,0
3,69,0,105
3,67,111,0
3,67,0,38
3,64,127,0
3,64,0,461
3,71,127,0
3,71,0,80
3,71,124,0
3,71,0,31
3,71,127,0
3,71,0,177
3,72,124,0
3,72,0,14
3,71,127,0
3,71,0,132
3,67,127,0
3,67,0,34
3,74,127,0
3,74,0,13
3,74,117,0
3,74,0,29
3,74,127,0
3,74,0,167
3,76,127,0
3,76,0,17
3,71,127,0
3,71,0,31
3,71,127,0
3,71,0,108
3,72,124,0
3,72,0,37
3,71,127,0
3,71,0,37
3,72,127,0
3,72,0,93
3,71,127,0
3,71,0,49
3,67,127,0
3,67,0,47
3,66,127,3
3,66,0,36
3,64,127,0
3,62,127,0
3,64,0,10
3,69,127,0
3,62,0,109
3,69,0,6
3,71,127,0
3,71,0,69
3,71,127,0
3,71,0,96
3,72,111,0
3,72,0,80
3,72,127,0
3,72,0,91
3,72,127,0
3,72,0,45
3,71,127,0
3,71,0,159
3,72,127,0
3,72,0,85
3,72,124,0
3,72,0,81
3,72,127,0
3,72,0,82
3,71,127,0
3,71,0,102
3,72,127,0
3,72,0,70
3,72,127,0
3,72,0,79
3,72,124,0
3,72,0,33
3,72,127,0
3,69,127,0
3,72,0,53
3,69,0,7
3,69,127,0
3,69,0,114
3,71,127,0
3,71,0,71
3,71,127,0
3,71,0,87
3,71,127,0
3,71,0,30
3,69,127,0
3,69,0,130
3,71,127,0
3,71,0,81
3,71,127,0
3,71,0,82
3,71,127,0
3,71,0,98
3,76,127,0
3,74,127,0
3,76,0,1
3,74,0,118
3,71,117,0
3,69,117,0
3,71,0,2
3,69,0,93
3,71,127,0
3,71,0,351
3,69,127,0
3,69,0,57
3,71,127,0
3,71,0,80
3,71,127,0
3,71,0,103
3,72,127,0
3,72,0,34
3,72,127,0
3,72,0,146
3,72,127,0
3,72,0,47
3,71,127,0
3,71,0,148
3,72,127,0
3,72,0,85
3,72,127,0
3,72,0,111
3,71,127,0
3,71,0,86
3,74,127,0
3,74,0,103
3,72,117,0
3,72,0,35
3,72,127,0
3,72,0,136
3,71,127,0
3,71,0,82
3,71,127,0
3,71,0,120
3,69,127,0
3,67,127,0
3,69,0,8
3,69,127,0
3,67,0,6
3,69,0,50
3,71,127,0
3,71,0,793
3,71,127,0
3,71,0,54
3,74,127,0
3,74,0,109
3,76,127,0
3,76,0,16
3,74,127,0
3,74,0,30
3,71,127,0
3,71,0,4
3,69,127,0
3,69,0,49
3,67,127,0
3,67,0,41
3,69,127,0
3,69,0,112
3,64,111,0
3,64,0,34
3,64,127,0
3,64,0,432
3,69,127,0
3,69,0,54
3,71,127,0
3,71,0,15
3,74,127,57
3,74,0,34
3,76,127,0
3,76,0,61
3,74,127,0
3,74,0,32
3,71,127,0
3,71,0,4
3,69,127,0
3,69,0,39
3,67,127,0
3,67,0,40
3,69,127,0
3,69,0,105
3,67,111,0
3,67,0,38
3,64,127,0
3,64,0,461
3,71,127,0
3,71,0,80
3,71,124,0
3,71,0,31
3,71,127,0
3,71,0,177
3,72,124,0
3,72,0,14
3,71,127,0
3,71,0,132
3,67,127,0
3,67,0,34
3,67,127,0
3,67,0,82
3,74,127,0
3,74,0,13
3,74,117,0
3,74,0,29
3,74,127,0
3,74,0,167
3,76,127,0
3,76,0,17
3,71,127,0
3,71,0,31
3,71,127,0
3,71,0,108
3,72,124,0
3,72,0,37
3,71,127,0
3,71,0,37
3,72,127,0
3,72,0,93
3,71,127,0
3,71,0,49
3,67,127,0
3,67,0,47
3,66,127,3
3,66,0,36
3,64,127,0
3,62,127,0
3,64,0,10
3,69,127,0
3,62,0,109
3,69,0,6
3,71,127,0
3,71,0,69
3,71,127,0
3,71,0,96
3,72,111,0
3,72,0,80
3,72,127,0
3,72,0,91
3,72,127,0
3,72,0,45
3,71,127,0
3,71,0,159
3,72,127,0
3,72,0,85
3,72,124,0
3,72,0,81
3,72,127,0
3,72,0,82
3,71,127,0
3,71,0,102
3,72,127,0
3,72,0,70
3,72,127,0
3,72,0,79
3,72,124,0
3,72,0,33
3,72,127,0
3,69,127,0
3,72,0,53
3,69,0,7
3,69,127,0
3,69,0,114
3,71,127,0
3,71,0,71
3,71,127,0
3,71,0,87
3,71,127,0
3,71,0,30
3,69,127,0
3,69,0,130
3,71,127,0
3,71,0,81
3,71,127,0
3,71,0,82
3,71,127,0
3,71,0,98
3,76,127,0
3,74,127,0
3,76,0,1
3,74,0,118
3,71,117,0
3,69,117,0
3,71,0,2
3,69,0,93
3,71,127,0
3,71,0,351
3,69,127,0
3,69,0,57
3,71,127,0
3,71,0,80
3,71,127,0
3,71,0,103
3,72,127,0
3,72,0,34
3,72,127,0
3,72,0,146
3,72,127,0
3,72,0,47
3,71,127,0
3,71,0,148
3,72,127,0
3,72,0,85
3,72,127,0
3,72,0,111
3,71,127,0
3,71,0,86
3,74,127,0
3,74,0,103
3,72,117,0
3,72,0,35
3,72,127,0
3,72,0,136
3,71,127,0
3,71,0,82
3,71,127,0
3,71,0,120
3,69,127,0
3,67,127,0
3,69,0,8
3,69,127,0
3,67,0,6
3,69,0,50
3,71,127,0
3,71,0,793
3,67,127,0
3,67,0,110
3,69,127,0
3,69,0,43
3,71,127,0
3,71,0,1022
3,67,127,0
3,67,0,114
3,69,127,0
3,69,0,42
3,71,127,0
3,71,0,1698
3,67,127,0
3,67,0,114
3,69,127,0
3,69,0,47
3,71,127,0
3,71,0,1708
3,67,127,0
3,67,0,112
3,69,127,0
3,69,0,30
3,71,127,0
3,71,0,1732
3,67,127,8
3,69,127,120
3,67,0,4
3,69,0,57
3,71,127,59
3,71,0,1101
4,31,93,912
4,31,0,49
4,31,113,71
4,31,0,327
4,36,98,33
4,36,0,57
4,36,93,63
4,36,0,339
4,38,89,21
4,38,0,42
4,38,93,78
4,38,0,492
4,38,89,48
4,33,89,120
4,38,0,13
4,33,0,43
4,38,93,4
4,38,0,116
4,31,98,4
4,31,0,38
4,31,102,82
4,31,0,359
4,36,85,1
4,36,0,56
4,36,98,64
4,36,0,355
4,38,93,5
4,38,0,42
4,38,93,78
4,38,0,497
4,38,98,43
4,33,93,120
4,38,0,11
4,33,0,43
4,38,89,6
4,38,0,93
4,31,93,27
4,31,0,45
4,31,107,75
4,31,0,347
4,36,98,13
4,36,0,59
4,36,89,61
4,36,0,324
4,38,98,36
4,38,0,55
4,38,93,65
4,33,89,480
4,38,0,4
4,33,0,56
4,38,80,0
4,33,76,120
4,38,0,6
4,33,0,47
4,38,80,7
4,38,0,109
4,31,93,11
4,31,0,39
4,31,93,81
4,31,0,338
4,36,102,22
4,36,0,83
4,36,102,37
4,36,0,305
4,38,93,55
4,38,0,51
4,38,93,69
4,38,0,320
4,38,98,40
4,38,0,106
4,33,80,14
4,33,0,56
4,38,89,4
4,33,76,120
4,38,0,10
4,33,0,37
4,38,85,13
4,38,0,74
4,40,89,46
4,40,0,47
4,40,98,73
4,35,76,300
4,40,0,3
4,28,93,57
4,35,0,5
4,28,0,40
4,28,102,75
4,28,0,228
4,40,89,12
4,36,93,120
4,40,0,1
4,31,93,419
4,36,0,18
4,31,0,37
4,36,85,5
4,36,0,53
4,36,102,67
4,36,0,315
4,40,93,45
4,40,0,461
4,28,93,19
4,28,0,39
4,28,93,81
4,28,0,167
4,28,93,13
4,28,0,47
4,40,89,13
4,40,0,120
4,33,98,0
4,28,98,420
4,33,0,19
4,28,0,36
4,33,93,5
4,33,0,59
4,33,102,61
4,33,0,149
4,35,102,31
4,35,0,145
4,36,93,35
4,31,93,420
4,36,0,9
4,36,98,51
4,31,0,4
4,36,0,48
4,36,102,68
4,31,64,180
4,36,0,15
4,31,0,35
4,36,93,10
4,36,0,86
4,35,102,34
4,30,89,420
4,35,0,11
4,30,0,43
4,35,85,6
4,35,0,79
4,35,102,41
4,30,80,180
4,35,0,21
4,30,0,31
4,35,89,8
4,35,0,84
4,33,107,36
4,28,93,420
4,33,0,19
4,28,0,29
4,33,98,12
4,33,0,63
4,33,102,57
4,28,85,180
4,33,0,9
4,28,0,51
4,33,102,0
4,33,0,57
4,38,107,63
4,38,0,824
4,31,93,136
4,31,0,45
4,31,107,75
4,31,0,347
4,36,98,13
4,36,0,59
4,36,89,61
4,36,0,324
4,38,98,36
4,38,0,55
4,38,93,65
4,33,89,480
4,38,0,4
4,33,0,56
4,38,80,0
4,33,76,120
4,38,0,6
4,33,0,47
4,38,80,7
4,38,0,109
4,31,93,11
4,31,0,39
4,31,93,81
4,31,0,338
4,36,102,22
4,36,0,83
4,36,102,37
4,36,0,305
4,38,93,55
4,38,0,51
4,38,93,69
4,38,0,320
4,38,98,40
4,38,0,106
4,33,80,14
4,33,0,56
4,38,89,4
4,33,76,120
4,38,0,10
4,33,0,37
4,38,85,13
4,38,0,74
4,40,89,46
4,40,0,47
4,40,98,73
4,35,76,300
4,40,0,3
4,28,93,57
4,35,0,5
4,28,0,40
4,28,102,75
4,28,0,228
4,40,89,12
4,36,93,120
4,40,0,1
4,31,93,419
4,36,0,18
4,31,0,37
4,36,85,5
4,36,0,53
4,36,102,67
4,36,0,315
4,40,93,45
4,40,0,461
4,28,93,19
4,28,0,39
4,28,93,81
4,28,0,167
4,28,93,13
4,28,0,47
4,40,89,13
4,40,0,120
4,33,98,0
4,28,98,420
4,33,0,19
4,28,0,36
4,33,93,5
4,33,0,59
4,33,102,61
4,33,0,149
4,35,102,31
4,35,0,145
4,36,93,35
4,31,93,420
4,36,0,9
4,36,98,51
4,31,0,4
4,36,0,48
4,36,102,68
4,31,64,180
4,36,0,15
4,31,0,35
4,36,93,10
4,36,0,86
4,35,102,34
4,30,89,420
4,35,0,11
4,30,0,43
4,35,85,6
4,35,0,79
4,35,102,41
4,30,80,180
4,35,0,21
4,30,0,31
4,35,89,8
4,35,0,84
4,33,107,36
4,28,93,420
4,33,0,19
4,28,0,29
4,33,98,12
4,33,0,63
4,33,102,57
4,28,85,180
4,33,0,9
4,28,0,51
4,33,102,0
4,33,0,57
4,38,107,63
4,38,0,824
4,33,89,136
4,33,0,475
4,40,76,5
4,40,0,472
4,33,76,8
4,33,0,460
4,38,76,20
4,38,0,477
4,31,80,3
4,31,0,467
4,42,62,13
4,42,0,471
4,40,85,9
4,40,0,398
4,40,89,22
4,40,0,51
4,35,89,9
4,35,0,112
4,28,98,8
4,40,102,120
4,28,0,12
4,40,0,103
4,28,93,5
4,28,0,68
4,33,107,52
4,33,0,326
4,33,89,34
4,40,98,120
4,33,0,4
4,40,0,369
4,40,80,47
4,33,93,60
4,40,0,14
4,33,0,311
4,33,89,35
4,38,113,120
4,33,0,1
4,38,0,319
4,38,93,40
4,38,0,112
4,40,102,8
4,40,0,350
4,28,107,10
4,28,0,239
4,40,98,1
4,28,98,180
4,40,0,9
4,28,0,51
4,40,85,0
4,40,0,104
4,36,107,16
4,36,0,157
4,36,102,23
4,31,98,60
4,36,0,6
4,31,0,73
4,36,113,41
4,36,0,321
4,36,98,39
4,36,0,56
4,35,93,4
4,35,0,52
4,33,98,8
4,33,0,73
4,31,93,47
4,31,0,49
4,31,113,71
4,31,0,327
4,36,98,33
4,36,0,57
4,36,93,63
4,36,0,339
4,38,89,21
4,38,0,42
4,38,93,78
4,38,0,492
4,38,89,48
4,33,89,120
4,38,0,13
4,33,0,43
4,38,93,4
4,38,0,116
4,31,98,4
4,31,0,38
4,31,102,82
4,31,0,359
4,36,85,1
4,36,0,56
4,36,98,64
4,36,0,355
4,38,93,5
4,38,0,42
4,38,93,78
4,38,0,497
4,38,98,43
4,33,93,120
4,38,0,11
4,33,0,43
4,38,89,6
4,38,0,93
4,40,89,27
4,40,0,47
4,40,98,73
4,35,76,300
4,40,0,3
4,28,93,57
4,35,0,5
4,28,0,40
4,28,102,75
4,28,0,228
4,40,89,12
4,36,93,120
4,40,0,1
4,31,93,419
4,36,0,18
4,31,0,37
4,36,85,5
4,36,0,53
4,36,102,67
4,36,0,315
4,40,93,45
4,40,0,461
4,28,93,19
4,28,0,39
4,28,93,81
4,28,0,167
4,28,93,13
4,28,0,47
4,40,89,13
4,40,0,120
4,33,98,0
4,28,98,420
