track,note,velocity,time
0,42,127,752
0,42,0,16
0,42,100,368
0,42,0,16
0,42,100,368
0,42,0,16
0,42,100,368
0,42,0,16
0,55,57,344
0,58,51,16
0,58,42,8
0,62,63,0
0,55,62,0
0,70,54,0
0,62,54,0
0,36,109,0
0,55,56,4
0,62,52,4
0,36,0,8
0,67,58,8
0,62,0,56
0,58,0,4
0,55,0,28
0,67,64,0
0,70,68,0
0,67,0,4
0,55,59,92
0,58,59,0
0,62,61,4
0,70,0,68
0,62,0,36
0,58,0,4
0,55,0,8
0,67,61,0
0,36,64,8
0,55,0,8
0,36,0,8
0,58,0,64
0,67,0,4
0,70,62,0
0,62,0,0
0,67,0,12
0,53,65,0
0,53,57,16
0,58,55,0
0,58,46,0
0,62,62,0
0,36,113,0
0,53,37,4
0,62,59,4
0,36,0,8
0,67,55,4
0,55,0,24
0,62,0,32
0,58,0,12
0,70,0,8
0,67,58,0
0,53,0,12
0,70,67,0
0,58,49,0
0,67,0,4
0,62,65,0
0,53,47,0
0,62,0,128
0,53,0,16
0,58,0,8
0,53,0,136
0,58,0,16
0,67,0,0
0,62,0,4
0,52,55,0
0,52,59,8
0,53,0,4
0,64,61,4
0,55,56,0
0,36,94,0
0,67,70,0
0,58,32,4
0,60,64,0
0,62,0,0
0,70,0,4
0,52,53,0
0,60,44,0
0,36,0,0
0,67,60,16
0,67,0,96
0,60,0,28
0,58,0,4
0,70,71,0
0,52,0,48
0,72,73,48
0,70,0,4
0,52,46,0
0,58,41,0
0,60,59,0
0,52,0,36
0,60,0,48
0,36,63,8
0,58,0,4
0,36,0,12
0,52,0,32
0,60,0,48
0,55,0,28
0,67,0,20
0,48,71,0
0,72,0,0
0,48,65,0
0,36,109,4
0,36,0,16
0,52,66,20
0,52,58,8
0,48,0,88
0,55,58,0
0,55,75,8
0,52,0,48
0,58,74,36
0,58,72,16
0,55,0,20
0,55,0,4
0,55,50,16
0,55,68,12
0,58,0,4
0,58,0,44
0,60,50,36
0,55,0,4
0,60,73,8
0,48,0,56
0,60,0,8
0,70,0,32
0,52,0,12
0,55,0,8
0,64,0,36
0,52,0,0
0,60,0,0
0,55,57,4
0,55,53,8
0,58,51,8
0,55,56,4
0,58,50,0
0,62,78,0
0,62,60,0
0,70,52,0
0,36,113,4
0,62,52,8
0,36,0,8
0,67,58,8
0,62,0,76
0,58,0,16
0,55,0,16
0,70,73,0
0,70,0,92
0,67,65,0
0,55,49,24
0,58,56,0
0,62,58,0
0,70,71,0
0,67,0,16
0,62,0,40
0,58,0,0
0,55,0,20
0,70,0,24
0,36,79,0
0,67,79,0
0,36,0,12
0,55,0,12
0,58,0,28
0,62,0,44
0,67,0,8
0,53,65,4
0,55,0,16
0,53,61,0
0,58,55,0
0,62,54,4
0,36,127,0
0,53,56,4
0,58,50,0
0,62,59,8
0,36,0,4
0,67,55,8
0,67,0,4
0,62,0,28
0,58,0,16
0,53,0,40
0,70,72,0
0,53,50,4
0,58,52,0
0,62,74,0
0,70,0,84
0,72,65,0
0,62,0,8
0,58,0,4
0,53,0,4
0,70,73,48
0,72,0,4
0,70,0,88
0,72,80,4
0,67,0,20
0,62,0,4
0,53,0,0
0,58,0,4
0,52,55,0
0,64,70,8
0,52,70,4
0,62,0,0
0,55,56,4
0,58,39,0
0,53,0,0
0,36,111,0
0,52,61,4
0,60,65,0
0,60,44,4
0,36,0,8
0,67,60,8
0,60,0,16
0,58,0,4
0,52,0,16
0,52,51,0
0,58,36,0
0,60,59,0
0,52,0,24
0,60,0,12
0,58,0,12
0,36,68,36
0,36,0,16
0,52,0,36
0,60,0,48
0,55,0,24
0,67,0,20
0,48,63,16
0,52,0,4
0,60,73,0
0,36,127,0
0,48,60,0
0,36,0,12
0,72,0,4
0,64,65,68
0,52,74,0
0,48,0,4
0,60,0,80
0,67,73,4
0,55,76,8
0,64,0,16
0,52,0,8
0,67,0,8
0,70,72,56
0,58,73,8
0,55,0,24
0,44,60,68
0,44,0,12
0,69,53,4
0,44,52,4
0,58,0,16
0,57,58,0
0,44,0,0
0,57,0,68
0,46,89,8
0,67,63,4
0,55,59,8
0,46,0,4
0,48,0,4
0,50,91,4
0,70,0,40
0,55,0,8
0,69,0,88
0,67,0,12
0,70,0,4
0,51,55,0
0,67,61,0
0,70,54,4
0,64,0,4
0,58,56,4
0,36,107,4
0,51,53,0
0,55,59,0
0,58,62,4
0,63,44,0
0,50,0,4
0,51,72,0
0,36,0,0
0,67,60,12
0,55,0,76
0,58,0,28
0,51,0,20
0,67,60,0
0,67,0,40
0,67,69,0
0,70,76,0
0,51,51,4
0,55,52,0
0,58,51,0
0,44,110,0
0,44,0,16
0,67,0,4
0,70,0,24
0,70,82,0
0,51,0,8
0,58,0,8
0,55,0,4
0,74,102,0
0,36,80,4
0,36,0,16
0,70,0,16
0,51,0,16
0,63,0,48
0,58,0,24
0,67,0,20
0,67,0,4
0,65,74,8
0,51,0,0
0,50,66,0
0,50,65,8
0,58,63,0
0,53,55,0
0,77,99,0
0,50,50,0
0,53,55,0
0,36,127,4
0,74,0,4
0,58,59,4
0,36,0,8
0,65,55,4
0,53,0,40
0,50,0,4
0,58,0,4
0,50,49,24
0,53,48,0
0,58,59,0
0,44,91,0
0,44,0,16
0,58,0,40
0,50,0,12
0,53,0,4
0,82,96,52
0,77,0,32
0,50,0,68
0,53,0,16
0,65,0,0
0,58,0,4
0,48,55,48
0,63,68,4
0,65,0,4
0,55,56,4
0,48,74,4
0,50,0,4
0,36,127,0
0,48,44,0
0,51,47,0
0,55,47,0
0,60,44,4
0,36,0,8
0,63,60,8
0,55,0,36
0,82,0,60
0,74,83,0
0,51,0,0
0,48,0,0
0,74,0,96
0,72,67,4
0,55,58,0
0,48,52,0
0,51,52,0
0,44,80,4
0,70,60,4
0,72,0,4
0,44,0,8
0,51,0,80
0,48,0,4
0,55,0,16
0,70,0,12
0,72,73,0
0,36,81,0
0,36,0,16
0,48,0,32
0,60,0,48
0,55,0,20
0,63,0,20
0,46,63,28
0,48,0,4
0,46,71,0
0,36,127,8
0,51,46,0
0,55,58,0
0,46,46,0
0,36,0,4
0,72,0,4
0,51,66,72
0,51,0,24
0,55,0,8
0,46,0,16
0,55,58,12
0,67,75,0
0,53,74,80
0,65,74,0
0,67,0,4
0,51,0,12
0,58,68,0
0,70,70,0
0,46,58,0
0,55,69,0
0,44,110,0
0,51,52,4
0,65,0,8
0,44,0,4
0,55,0,56
0,53,0,16
0,46,0,20
0,70,0,4
0,53,66,4
0,51,0,4
0,65,59,0
0,55,0,12
0,46,0,44
0,58,0,12
0,65,0,60
0,53,0,20
0,45,57,20
0,45,70,12
0,53,51,0
0,53,58,8
0,70,0,0
0,36,118,0
0,65,85,0
0,45,49,0
0,48,36,0
0,53,0,0
0,45,0,0
0,46,0,4
0,60,61,0
0,65,72,0
0,60,52,0
0,36,0,8
0,63,0,8
0,65,58,0
0,65,0,28
0,48,0,0
0,53,0,8
0,60,84,4
0,45,0,4
0,60,0,88
0,65,84,0
0,53,57,0
0,44,113,0
0,45,33,4
0,48,42,0
0,44,0,12
0,69,80,24
0,65,0,28
0,72,78,72
0,69,0,4
0,48,0,4
0,45,0,12
0,53,0,4
0,36,80,28
0,36,0,16
0,60,0,84
0,65,0,8
0,72,0,0
0,45,65,4
0,60,67,16
0,45,41,4
0,48,39,0
0,53,62,0
0,45,0,0
0,36,127,0
0,48,61,8
0,65,68,4
0,36,0,0
0,72,75,8
0,69,75,16
0,69,0,24
0,65,68,0
0,48,0,20
0,53,0,20
0,45,0,12
0,65,0,24
0,60,56,4
0,65,83,96
0,69,69,0
0,60,0,28
0,48,43,24
0,53,64,0
0,44,127,0
0,45,45,4
0,44,0,0
0,60,65,120
0,65,0,4
0,48,0,36
0,53,0,16
0,45,0,4
0,64,71,28
0,67,67,0
0,60,0,16
0,69,0,0
0,72,0,56
0,65,0,4
0,45,0,0
0,60,0,4
0,45,55,0
0,53,70,4
0,53,56,12
0,36,127,4
0,53,64,4
0,45,64,0
0,53,64,0
0,45,48,4
0,48,47,0
0,60,44,4
0,48,0,4
0,36,0,0
0,65,60,12
0,64,0,44
0,67,0,4
0,53,0,16
0,48,0,8
0,45,0,32
0,60,61,8
0,65,70,92
0,60,0,4
0,45,50,52
0,48,49,0
0,53,62,0
0,44,116,8
0,44,0,16
0,69,79,16
0,65,0,8
0,72,78,92
0,48,0,8
0,53,0,20
0,69,0,0
0,45,0,24
0,45,0,52
0,45,0,0
0,72,0,24
0,60,0,24
0,53,0,24
0,53,0,0
0,65,0,20
0,69,73,20
0,45,48,4
0,48,46,0
0,53,67,0
0,36,127,0
0,36,0,0
0,69,77,24
0,65,65,44
0,65,73,36
0,69,0,16
0,48,0,8
0,69,0,16
0,60,73,4
0,53,0,12
0,45,0,12
0,65,0,0
0,65,0,20
0,60,65,4
0,60,0,48
0,65,88,0
0,69,77,48
0,65,77,4
0,60,0,20
0,45,49,24
0,53,65,0
0,48,36,4
0,65,0,4
0,67,76,4
0,41,52,16
0,41,0,0
0,45,0,20
0,67,73,0
0,53,0,4
0,65,0,0
0,48,0,4
0,69,0,0
0,65,81,44
0,41,119,8
0,41,0,16
0,67,0,24
0,65,73,0
0,60,0,76
0,67,0,32
0,53,0,4
0,70,70,0
0,62,78,4
0,65,0,4
0,55,70,0
0,55,70,4
0,65,0,12
0,58,62,0
0,55,81,4
0,58,48,0
0,55,56,4
0,62,68,0
0,36,125,0
0,62,56,4
0,36,0,0
0,67,62,0
0,65,0,4
0,62,0,52
0,58,0,20
0,55,0,4
0,67,73,0
0,67,0,76
0,67,0,12
0,70,72,0
0,62,0,4
0,55,0,0
0,36,80,12
0,58,0,4
0,36,0,12
0,55,54,8
0,62,58,16
0,58,43,0
0,55,48,4
0,58,41,0
0,62,44,8
0,44,127,4
0,67,53,8
0,44,0,8
0,70,0,0
0,67,68,0
0,36,80,8
0,55,0,8
0,62,0,0
0,36,0,8
0,58,0,4
0,67,0,4
0,67,0,8
0,70,72,0
0,62,0,4
0,55,0,0
0,58,0,8
0,53,65,4
0,53,60,4
0,74,72,0
0,58,55,4
0,53,47,0
0,58,42,0
0,62,65,0
0,55,0,0
0,62,59,8
0,36,127,0
0,67,55,12
0,36,0,0
0,62,0,4
0,58,0,4
0,67,69,0
0,70,0,4
0,53,0,8
0,53,0,48
0,67,0,12
0,58,0,4
0,67,0,0
0,62,0,4
0,53,54,4
0,58,45,12
0,44,127,4
0,70,75,0
0,53,39,0
0,58,44,0
0,62,66,0
0,62,54,12
0,44,0,0
0,67,42,8
0,55,0,56
0,55,93,16
0,62,0,48
0,58,0,4
0,53,0,16
0,67,100,0
0,50,72,0
0,55,0,16
0,50,0,52
0,43,76,28
0,62,0,0
0,53,0,4
0,58,0,8
0,67,0,0
0,62,0,12
0,52,55,44
0,55,56,12
0,67,0,0
0,67,75,0
0,43,0,0
0,48,87,0
0,58,37,0
0,60,64,0
0,52,46,4
0,72,74,0
0,60,44,0
0,36,127,0
0,70,0,4
0,53,0,4
0,64,60,0
0,52,64,4
0,74,0,4
0,67,60,0
0,36,0,0
0,70,0,52
0,60,0,60
0,58,0,4
0,67,0,0
0,70,72,0
0,52,0,20
0,52,0,28
0,60,0,48
0,72,70,0
0,36,72,0
0,70,0,8
0,36,0,8
0,55,0,4
0,67,0,20
0,52,51,24
0,55,54,8
0,52,50,16
0,58,43,0
0,60,61,0
0,60,51,0
0,44,114,4
0,67,49,12
0,44,0,4
0,52,0,40
0,60,0,52
0,36,85,4
0,36,0,16
0,58,0,4
0,52,0,12
0,60,0,44
0,55,0,24
0,67,0,20
0,48,69,4
0,48,61,20
0,72,0,4
0,36,127,0
0,36,0,16
0,52,72,68
0,52,37,4
0,48,0,24
0,55,54,56
0,55,56,12
0,58,74,88
0,52,0,4
0,58,76,8
0,55,0,16
0,44,127,32
0,44,0,12
0,55,0,32
0,55,42,16
0,58,0,20
0,55,69,0
0,58,0,48
0,60,65,36
0,55,0,8
0,46,87,0
0,60,60,4
0,46,0,12
0,48,0,40
0,60,0,16
0,55,0,40
0,52,0,0
0,48,0,4
0,60,0,0
0,55,54,0
0,62,68,4
0,70,61,0
0,55,63,0
0,52,0,4
0,58,62,0
0,55,87,0
0,62,76,0
0,72,0,0
0,55,52,4
0,58,52,0
0,36,127,0
0,64,0,4
0,62,56,0
0,67,62,12
0,36,0,0
0,62,0,40
0,58,0,16
0,70,72,0
0,55,0,20
0,70,0,56
0,67,0,12
0,67,79,0
0,55,0,4
0,62,0,4
0,36,88,0
0,58,0,8
0,36,0,8
0,55,54,52
0,70,70,0
0,58,47,0
0,62,73,0
0,55,49,0
0,58,43,0
0,44,127,8
0,62,44,4
0,67,0,8
0,67,53,4
0,44,0,0
0,62,0,4
0,70,0,0
0,67,72,0
0,36,70,0
0,36,0,16
0,55,0,0
0,58,0,4
0,67,0,4
0,62,0,12
0,55,0,0
0,58,0,8
0,55,0,28
0,53,65,0
0,74,68,4
0,53,76,0
0,58,55,0
0,58,49,4
0,62,73,0
0,53,57,4
0,36,127,0
0,62,59,8
0,36,0,8
0,67,55,4
0,67,0,4
0,62,0,4
0,53,0,40
0,58,0,0
0,53,0,36
0,58,0,8
0,67,0,4
0,62,0,4
0,55,0,8
0,53,54,0
0,58,45,12
0,44,113,0
0,70,84,0
0,57,72,0
0,62,68,0
0,53,53,4
0,58,50,0
0,44,0,8
0,62,54,4
0,67,42,8
0,55,62,68
0,72,93,0
0,70,0,8
0,57,0,8
0,62,0,36
0,55,0,4
0,70,94,0
0,50,66,0
0,72,0,16
0,58,0,4
0,53,0,8
0,43,74,64
0,72,89,0
0,62,0,4
0,53,0,4
0,50,0,4
0,70,0,4
0,58,0,0
0,67,0,0
0,62,0,12
0,52,55,40
0,53,0,0
0,55,56,8
0,36,127,4
0,48,89,4
0,74,0,4
0,72,74,0
0,52,47,0
0,58,42,0
0,60,69,0
0,52,72,0
0,60,44,0
0,36,0,4
0,43,0,8
0,64,78,0
0,67,60,4
0,70,0,28
0,58,0,40
0,60,0,8
0,52,0,32
0,52,0,24
0,36,58,36
0,60,0,12
0,36,0,4
0,55,0,20
0,67,0,20
0,52,51,24
0,55,54,4
0,44,127,8
0,60,51,8
0,52,34,0
0,58,44,0
0,60,70,0
0,44,0,4
0,67,49,8
0,52,0,44
0,36,88,16
0,60,0,4
0,36,0,12
0,58,0,8
0,52,0,32
0,60,0,44
0,55,0,24
0,67,0,24
0,48,69,36
0,36,127,0
0,48,57,0
0,36,0,8
0,72,0,16
0,52,72,12
0,52,69,4
0,48,0,20
0,55,54,64
0,55,66,12
0,58,76,88
0,36,69,4
0,52,0,4
0,58,77,0
0,36,0,12
0,55,0,0
0,45,95,20
0,45,0,8
0,55,0,32
0,57,50,0
0,43,70,4
0,57,62,4
0,43,0,0
0,58,0,0
0,58,0,4
0,48,0,4
0,57,0,8
0,55,70,4
0,36,91,4
0,41,93,0
0,55,72,4
0,52,0,0
0,48,114,0
0,41,0,12
0,48,0,16
0,55,0,40
0,50,111,0
0,38,101,4
0,48,0,12
0,57,0,0
0,52,0,0
0,36,0,20
0,55,0,32
0,51,81,4
0,72,0,0
0,51,67,4
0,36,118,8
0,58,67,4
0,51,45,0
0,55,53,0
0,58,65,0
0,63,76,0
0,42,107,0
0,38,0,4
0,39,110,0
0,70,76,4
0,67,64,0
0,36,0,0
0,67,91,4
0,64,0,4
0,42,0,0
0,50,0,4
0,58,0,48
0,63,0,4
0,55,0,4
0,67,0,12
0,58,0,4
0,51,0,0
0,58,33,0
0,67,87,0
0,63,64,0
0,67,59,0
0,42,54,4
0,42,0,16
0,67,0,52
0,67,0,4
0,63,0,0
0,58,0,8
0,67,70,8
0,67,87,0
0,63,69,0
0,58,59,4
0,36,88,0
0,36,0,16
0,58,0,60
0,63,0,4
0,67,0,0
0,58,33,0
0,51,52,0
0,70,81,0
0,55,52,0
0,58,60,0
0,63,64,0
