track,note,velocity,time
0,42,127,0
0,42,0,4
0,42,127,39
0,42,0,4
0,42,127,5
0,42,0,4
0,42,127,92
0,42,0,4
0,31,93,91
0,43,102,0
0,59,97,1
0,67,97,0
0,42,127,1
0,36,127,0
0,36,0,3
0,42,0,1
0,31,0,14
0,43,0,24
0,31,113,4
0,55,76,0
0,42,43,1
0,42,0,1
0,55,0,28
0,59,93,15
0,55,89,0
0,62,98,0
0,42,127,1
0,38,127,0
0,38,0,4
0,42,0,0
0,59,0,9
0,55,0,0
0,62,0,2
0,55,56,32
0,42,43,1
0,42,0,4
0,55,0,19
0,59,68,0
0,59,0,11
0,31,0,0
0,67,0,2
0,59,0,5
0,36,98,6
0,48,93,0
0,65,91,1
0,74,97,0
0,36,127,0
0,42,127,0
0,42,0,3
0,36,0,0
0,36,0,2
0,48,0,1
0,36,93,3
0,55,56,0
0,36,127,1
0,42,43,1
0,36,0,3
0,42,0,1
0,55,0,10
0,64,98,32
0,55,93,0
0,60,98,0
0,42,127,1
0,38,127,0
0,38,0,4
0,42,0,0
0,55,0,11
0,64,0,2
0,60,0,0
0,55,72,30
0,42,43,1
0,42,0,4
0,55,0,8
0,36,0,3
0,65,0,1
0,38,89,2
0,50,89,0
0,66,68,1
0,36,127,0
0,42,127,1
0,36,0,2
0,42,0,1
0,38,0,2
0,50,0,15
0,38,93,2
0,64,127,0
0,54,47,0
0,42,43,1
0,42,0,4
0,54,0,1
0,54,93,8
0,62,102,0
0,57,98,0
0,38,127,1
0,42,127,0
0,42,0,4
0,38,0,0
0,57,0,12
0,54,0,0
0,62,0,1
0,64,0,16
0,64,107,6
0,50,64,0
0,42,43,1
0,42,0,4
0,50,0,5
0,62,80,14
0,36,127,1
0,36,0,4
0,64,0,0
0,62,0,7
0,67,102,1
0,62,76,0
0,64,113,1
0,42,127,0
0,36,127,0
0,36,0,2
0,42,0,0
0,62,0,2
0,67,0,1
0,64,0,2
0,66,98,4
0,64,107,0
0,66,0,2
0,62,89,2
0,42,43,1
0,36,127,0
0,36,0,4
0,38,0,0
0,42,0,0
0,64,0,8
0,62,0,0
0,38,89,11
0,50,98,0
0,62,102,5
0,50,0,7
0,38,127,13
0,42,127,1
0,38,0,3
0,42,0,1
0,62,0,18
0,33,89,0
0,64,89,0
0,60,72,3
0,38,0,2
0,64,0,7
0,33,0,10
0,38,93,2
0,46,127,1
0,46,0,4
0,74,0,11
0,66,0,14
0,60,0,15
0,38,0,1
0,59,89,1
0,31,98,1
0,43,102,0
0,55,64,0
0,59,91,1
0,71,91,0
0,74,87,0
0,67,97,0
0,36,127,1
0,42,127,0
0,42,0,4
0,36,0,0
0,55,0,1
0,43,0,3
0,31,0,5
0,31,102,33
0,43,107,0
0,55,89,0
0,42,43,1
0,42,0,4
0,55,0,16
0,43,0,16
0,62,102,0
0,55,85,0
0,59,102,0
0,38,127,1
0,42,127,0
0,42,0,4
0,38,0,0
0,62,0,8
0,59,0,1
0,55,0,2
0,55,62,32
0,42,43,1
0,42,0,4
0,55,0,11
0,48,102,8
0,67,0,9
0,59,0,8
0,48,0,1
0,31,0,6
0,36,85,0
0,55,68,0
0,60,55,0
0,74,0,1
0,77,82,0
0,65,87,0
0,74,97,0
0,81,82,0
0,36,127,0
0,42,127,1
0,71,0,1
0,36,0,2
0,42,0,1
0,36,0,1
0,59,0,1
0,60,0,2
0,55,0,2
0,36,98,1
0,60,93,0
0,55,80,0
0,64,89,0
0,36,127,1
0,42,43,0
0,36,0,1
0,42,0,1
0,64,0,3
0,60,0,1
0,55,0,3
0,55,59,30
0,38,127,1
0,42,127,0
0,42,0,4
0,38,0,0
0,55,0,11
0,48,76,8
0,48,0,13
0,55,62,11
0,60,52,0
0,64,85,0
0,42,43,1
0,60,0,3
0,42,0,1
0,64,0,5
0,55,0,2
0,77,0,14
0,81,0,3
0,36,0,2
0,65,0,0
0,38,93,1
0,50,98,0
0,78,61,1
0,81,71,0
0,66,82,0
0,36,127,0
0,42,127,1
0,36,0,2
0,42,0,1
0,38,0,7
0,38,93,3
0,69,102,0
0,54,53,0
0,42,43,1
0,42,0,2
0,50,0,1
0,54,0,2
0,57,93,7
0,62,93,0
0,54,72,0
0,38,127,1
0,42,127,0
0,42,0,4
0,38,0,0
0,69,0,13
0,57,0,5
0,62,0,1
0,54,0,1
0,69,107,1
0,50,56,6
0,42,43,1
0,42,0,4
0,50,0,3
0,36,127,17
0,36,0,4
0,69,0,17
0,67,102,2
0,67,89,1
0,42,127,0
0,36,127,0
0,36,0,4
0,42,0,0
0,67,0,10
0,66,76,9
0,66,0,12
0,50,85,12
0,42,43,1
0,36,127,0
0,36,0,4
0,42,0,0
0,38,0,2
0,50,0,8
0,38,98,9
0,62,102,0
0,62,0,22
0,62,26,2
0,38,127,1
0,42,127,1
0,38,0,3
0,42,0,1
0,62,0,4
0,33,93,14
0,50,98,0
0,38,0,4
0,50,0,7
0,66,0,0
0,78,0,9
0,74,0,1
0,33,0,1
0,81,0,2
0,38,89,0
0,64,89,0
0,46,127,1
0,67,0,2
0,66,89,0
0,46,0,2
0,64,0,5
0,66,0,15
0,38,0,12
0,31,93,10
0,69,127,0
0,59,93,0
0,43,93,0
0,55,89,0
0,36,127,2
0,42,127,0
0,42,0,4
0,36,0,0
0,59,0,2
0,55,0,3
0,43,0,2
0,31,0,5
0,69,0,1
0,71,117,5
0,31,107,24
0,43,93,0
0,59,80,0
0,55,72,0
0,42,43,1
0,42,0,4
0,71,0,13
0,69,111,6
0,69,0,20
0,71,127,4
0,38,127,1
0,42,127,1
0,38,0,3
0,42,0,1
0,43,0,18
0,55,0,6
0,59,0,1
0,71,0,8
0,69,127,7
0,55,60,0
0,59,72,0
0,42,43,1
0,42,0,4
0,59,0,8
0,55,0,2
0,69,0,1
0,71,127,8
0,31,0,19
0,36,98,5
0,48,93,0
0,36,127,1
0,42,127,0
0,42,0,4
0,36,0,0
0,71,0,13
0,36,0,6
0,69,127,0
0,69,0,10
0,48,0,6
0,36,89,2
0,71,127,0
0,55,56,0
0,42,43,1
0,36,127,0
0,36,0,4
0,42,0,0
0,55,0,15
0,48,60,4
0,48,0,10
0,69,127,14
0,64,98,0
0,60,98,0
0,55,89,0
0,38,127,1
0,42,127,1
0,71,0,2
0,38,0,1
0,42,0,1
0,69,0,12
0,64,0,2
0,60,0,1
0,55,0,0
0,71,124,3
0,71,0,13
0,71,127,11
0,55,60,0
0,42,43,1
0,42,0,4
0,55,0,8
0,71,0,3
0,69,124,6
0,36,0,10
0,69,0,2
0,38,98,5
0,71,127,0
0,54,56,0
0,57,68,0
0,50,85,0
0,42,127,1
0,36,127,0
0,36,0,2
0,42,0,0
0,57,0,7
0,54,0,3
0,50,0,1
0,71,0,5
0,38,0,1
0,69,127,2
0,69,0,23
0,38,93,1
0,57,62,0
0,62,64,0
0,54,55,0
0,50,80,0
0,42,43,1
0,42,0,4
0,69,127,19
0,38,127,25
0,42,127,1
0,38,0,2
0,42,0,1
0,54,0,20
0,62,0,1
0,57,0,10
0,54,48,11
0,42,43,1
0,50,0,2
0,42,0,2
0,54,0,13
0,50,49,6
0,36,127,1
0,36,0,4
0,50,0,3
0,57,93,16
0,54,72,0
0,62,93,0
0,36,127,1
0,42,127,1
0,36,0,3
0,42,0,1
0,54,0,14
0,62,0,0
0,57,0,1
0,33,89,27
0,54,50,0
0,42,43,1
0,36,127,0
0,38,0,1
0,42,0,3
0,36,0,0
0,54,0,9
0,33,0,10
0,38,80,0
0,50,80,0
0,50,0,11
0,54,72,13
0,42,127,1
0,38,127,0
0,38,0,4
0,42,0,0
0,54,0,13
0,33,76,6
0,62,107,0
0,57,102,0
0,54,76,0
0,38,0,2
0,57,0,17
0,62,0,0
0,33,0,2
0,54,0,1
0,38,80,2
0,46,127,1
0,46,0,4
0,69,0,9
0,38,0,30
0,31,93,1
0,69,127,0
0,59,76,0
0,43,89,0
0,55,68,0
0,36,127,2
0,42,127,0
0,42,0,4
0,36,0,0
0,31,0,10
0,59,0,0
0,43,0,1
0,55,0,1
0,69,0,3
0,71,117,3
0,31,93,10
0,43,89,0
0,55,62,0
0,59,76,0
0,42,43,1
0,71,0,1
0,42,0,3
0,69,127,19
0,69,0,16
0,71,127,8
0,38,127,1
0,42,127,0
0,42,0,4
0,38,0,0
0,43,0,18
0,59,0,4
0,55,0,1
0,71,0,3
0,69,124,11
0,42,43,1
0,42,0,4
0,69,0,9
0,71,127,10
0,31,0,15
0,36,102,1
0,48,93,0
0,36,127,1
0,42,127,1
0,36,0,3
0,42,0,1
0,48,0,11
0,71,0,0
0,69,127,7
0,36,0,9
0,69,0,7
0,36,102,8
0,71,127,0
0,48,89,0
0,36,127,1
0,42,43,0
0,42,0,4
0,36,0,0
0,71,0,39
0,48,0,4
0,69,127,0
0,64,85,0
0,60,80,0
0,55,72,0
0,38,127,1
0,42,127,1
0,38,0,3
0,42,0,1
0,69,0,10
0,71,127,8
0,55,0,5
0,64,0,1
0,60,0,1
0,71,0,7
0,71,127,10
0,48,72,0
0,42,43,1
0,42,0,4
0,48,0,9
0,71,0,5
0,69,105,5
0,55,56,0
0,36,0,2
0,55,0,12
0,69,0,2
0,38,93,8
0,71,127,0
0,50,93,0
0,36,127,0
0,42,127,1
0,36,0,3
0,42,0,1
0,38,0,14
0,71,0,1
0,69,127,3
0,69,0,21
0,38,93,3
0,54,59,0
0,42,43,0
0,42,0,4
0,69,127,19
0,54,0,1
0,50,0,15
0,57,89,8
0,54,68,0
0,62,89,0
0,42,127,1
0,38,127,0
0,38,0,4
0,42,0,0
0,62,0,18
0,57,0,3
0,54,0,0
0,54,51,22
0,42,43,1
0,42,0,4
0,54,0,8
0,50,80,11
0,36,127,1
0,36,0,4
0,38,0,3
0,50,0,2
0,38,98,14
0,57,85,0
0,62,89,0
0,54,72,0
0,36,127,1
0,42,127,1
0,36,0,3
0,42,0,1
0,57,0,10
0,62,0,1
0,54,0,1
0,38,0,24
0,33,80,6
0,62,80,0
0,57,76,0
0,54,56,0
0,36,127,1
0,42,43,0
0,69,0,2
0,36,0,2
0,42,0,0
0,62,0,6
0,54,0,4
0,57,0,0
0,33,0,1
0,38,89,2
0,50,93,0
0,50,0,11
0,71,127,6
0,62,89,0
0,54,62,0
0,57,80,0
0,38,127,1
0,42,127,1
0,38,0,3
0,42,0,1
0,54,0,5
0,62,0,1
0,57,0,0
0,71,0,4
0,33,76,8
0,74,127,0
0,62,107,0
0,57,98,0
0,54,85,0
0,38,0,4
0,57,0,9
0,62,0,3
0,54,0,1
0,33,0,2
0,38,85,5
0,46,127,1
0,46,0,4
0,74,0,23
0,38,0,2
0,40,89,1
0,76,127,0
0,40,98,0
0,55,85,0
0,52,85,0
0,59,89,0
0,71,78,1
0,67,82,0
0,64,78,0
0,36,127,1
0,42,127,0
0,42,0,3
0,36,0,0
0,40,0,14
0,52,0,11
0,59,0,0
0,55,0,2
0,40,0,12
0,40,98,1
0,52,49,0
0,42,43,1
0,42,0,4
0,52,0,4
0,40,52,15
0,40,0,9
0,55,107,15
0,59,107,0
0,52,107,0
0,42,127,1
0,38,127,0
0,38,0,4
0,42,0,0
0,59,0,5
0,52,0,0
0,55,0,0
0,64,93,15
0,76,0,2
0,74,127,0
0,42,43,1
0,42,0,4
0,74,0,7
0,64,0,1
0,35,76,2
0,71,127,0
0,40,0,1
0,64,93,0
0,28,93,19
0,52,64,0
0,42,127,1
0,36,127,0
0,35,0,1
0,36,0,3
0,42,0,0
0,52,0,5
0,28,0,8
0,28,102,1
0,55,64,0
0,59,72,0
0,52,62,0
0,36,127,1
0,42,43,0
0,36,0,1
0,42,0,1
0,55,0,5
0,52,0,1
0,59,0,1
0,71,0,1
0,40,93,8
0,40,0,1
0,69,127,1
0,55,89,0
0,52,68,0
0,59,93,0
0,71,0,1
0,42,127,0
0,38,127,0
0,67,0,2
0,38,0,2
0,42,0,0
0,64,0,1
0,55,0,3
0,59,0,1
0,52,0,1
0,69,0,2
0,67,127,3
0,28,0,6
0,40,89,1
0,52,72,0
0,59,72,0
0,55,68,0
0,42,43,1
0,42,0,4
0,55,0,2
0,52,0,1
0,59,0,0
0,64,0,9
0,67,0,7
0,40,0,14
0,36,93,0
0,69,100,0
0,48,98,0
0,67,55,1
0,64,47,0
0,60,49,0
0,36,127,0
0,42,127,1
0,36,0,2
0,42,0,1
0,69,0,24
0,64,111,0
0,55,55,0
0,42,43,1
0,48,0,1
0,42,0,3
0,64,0,9
0,55,0,1
0,64,127,9
0,55,98,24
0,60,102,0
0,38,127,1
0,42,127,1
0,38,0,3
0,42,0,1
0,60,0,4
0,55,0,1
0,55,34,37
0,69,107,1
0,42,43,0
0,42,0,1
0,55,0,1
0,31,93,1
0,48,68,0
0,36,127,0
0,36,0,1
0,36,0,1
0,48,0,1
0,31,0,13
0,36,85,2
0,60,68,0
0,64,80,0
0,55,62,0
0,42,127,1
0,36,127,0
0,36,0,1
0,42,0,0
0,69,0,0
0,64,0,1
0,60,0,0
0,55,0,1
0,64,0,1
0,60,0,1
0,67,0,2
0,36,0,3
0,69,107,4
0,36,102,23
0,55,93,0
0,60,102,0
0,64,93,0
0,42,43,1
0,36,127,0
0,36,0,4
0,42,0,0
0,64,0,0
0,64,0,3
0,60,0,2
0,55,0,1
0,55,60,12
0,67,93,1
0,69,0,9
0,55,0,2
0,69,127,7
0,48,64,0
0,67,0,1
0,69,89,0
0,42,127,0
0,38,127,0
0,38,0,4
0,42,0,0
0,48,0,3
0,69,0,14
0,71,127,2
0,55,89,0
0,60,93,0
0,64,98,0
0,67,98,1
0,69,0,6
0,60,0,2
0,64,0,2
0,55,0,2
0,71,0,4
0,46,127,0
0,46,0,4
0,74,127,19
0,36,0,6
0,74,0,8
0,67,0,8
0,40,93,2
0,76,127,0
0,52,72,0
0,40,85,0
0,59,89,0
0,55,85,0
0,66,72,1
0,67,82,0
0,71,82,0
0,64,78,0
0,42,127,1
0,36,127,0
0,36,0,4
0,42,0,0
0,66,0,18
0,64,89,1
0,42,43,24
0,42,0,4
0,59,0,11
0,55,0,3
0,52,0,1
0,52,89,28
0,55,102,0
0,59,98,0
0,38,127,1
0,42,127,1
0,38,0,3
0,42,0,1
0,59,0,3
0,55,0,0
0,52,0,2
0,40,0,9
0,76,0,5
0,74,127,0
0,52,50,0
0,42,43,1
0,42,0,4
0,52,0,3
0,74,0,2
0,71,127,4
0,40,68,0
0,40,0,1
0,40,0,4
0,71,0,5
0,67,0,1
0,64,0,2
0,28,93,0
0,52,60,0
0,59,76,0
0,36,127,1
0,42,127,1
0,36,0,3
0,42,0,1
0,52,0,4
0,59,0,1
0,28,0,5
0,28,93,32
0,59,102,0
0,52,93,0
0,55,102,0
0,36,127,1
0,42,43,0
0,42,0,4
0,36,0,0
0,55,0,3
0,59,0,2
0,52,0,0
0,64,0,9
0,71,0,1
0,69,127,4
0,38,127,1
0,42,127,1
0,38,0,3
0,42,0,1
0,69,0,10
0,28,0,3
0,28,93,5
0,67,127,0
0,40,80,0
0,40,0,13
0,28,0,6
0,40,89,5
0,55,80,0
0,59,93,0
0,52,85,0
0,42,43,1
0,42,0,4
0,55,0,2
0,52,0,2
0,59,0,2
0,67,0,16
0,40,0,2
0,33,98,0
0,69,127,0
0,45,98,0
0,52,85,0
0,61,46,1
0,69,58,0
0,64,58,0
0,36,127,0
0,42,127,1
0,36,0,3
0,42,0,1
0,69,0,16
0,52,0,5
0,67,111,1
0,57,53,0
0,42,43,1
0,42,0,4
0,45,0,2
0,67,0,15
0,57,0,2
0,64,127,0
0,52,72,0
0,52,0,12
0,64,98,8
0,61,89,0
0,55,85,0
0,38,127,1
0,42,127,0
0,42,0,4
0,38,0,0
0,61,0,6
0,64,0,0
0,55,0,1
0,57,102,1
0,57,52,1
0,42,43,0
0,42,0,1
0,57,0,3
0,28,98,16
0,45,85,0
0,61,98,1
0,36,127,0
0,57,0,2
0,36,0,2
