track,note,velocity,time
6,64,58,738
6,61,63,0
6,45,47,0
6,57,55,0
6,61,0,26
6,61,51,13
6,57,0,2
6,61,0,5
6,64,0,8
6,61,56,15
6,64,56,0
6,57,42,0
6,64,0,8
6,57,0,1
6,61,0,5
6,61,55,16
6,64,55,0
6,57,44,0
6,61,0,40
6,45,0,1
6,64,0,6
6,59,55,10
6,62,59,0
6,47,40,0
6,57,0,1
6,62,0,50
6,62,53,12
6,59,0,10
6,64,51,20
6,59,56,0
6,62,0,32
6,59,0,8
6,64,0,14
6,62,49,6
6,59,55,0
6,64,51,0
6,59,0,41
6,62,0,8
6,64,0,5
6,62,56,6
6,59,46,0
6,64,36,0
6,45,40,0
6,47,0,4
6,62,0,22
6,59,0,4
6,62,49,0
6,64,0,4
6,62,0,14
6,45,0,0
6,45,49,5
6,57,48,0
6,64,58,0
6,61,64,0
6,61,0,26
6,61,51,13
6,57,0,2
6,61,0,5
6,64,0,8
6,57,42,15
6,61,57,0
6,64,56,0
6,64,0,8
6,57,0,1
6,61,0,5
6,57,44,16
6,61,56,0
6,64,55,0
6,61,0,40
6,45,0,1
6,64,0,6
6,47,41,10
6,59,55,0
6,62,59,0
6,57,0,1
6,62,0,50
6,62,53,12
6,59,0,10
6,64,51,20
6,59,57,0
6,62,0,32
6,59,0,8
6,64,0,14
6,62,49,6
6,59,55,0
6,64,51,0
6,59,0,41
6,62,0,8
6,64,0,5
6,45,41,6
6,62,56,0
6,59,46,0
6,64,36,0
6,47,0,4
6,62,0,22
6,59,0,4
6,62,49,0
6,64,0,4
6,62,0,14
6,45,0,0
6,45,56,5
6,57,48,0
6,64,59,0
6,61,65,0
6,61,0,26
6,61,51,13
6,57,0,2
6,61,0,5
6,64,0,8
6,57,42,15
6,61,57,0
6,64,56,0
6,64,0,8
6,57,0,1
6,61,0,5
6,57,44,16
6,61,56,0
6,64,56,0
6,61,0,40
6,45,0,1
6,64,0,6
6,47,46,10
6,59,55,0
6,62,60,0
6,57,0,1
6,62,0,50
6,62,53,12
6,59,0,10
6,64,51,20
6,59,57,0
6,62,0,32
6,59,0,8
6,64,0,14
6,62,49,6
6,59,55,0
6,64,51,0
6,59,0,41
6,62,0,8
6,64,0,5
6,45,45,6
6,62,56,0
6,59,46,0
6,64,36,0
6,47,0,4
6,62,0,22
6,59,0,4
6,62,49,0
6,64,0,4
6,62,0,14
6,45,0,0
6,64,59,5
6,61,65,0
6,57,48,0
6,45,56,0
6,61,0,26
6,61,51,13
6,57,0,2
6,61,0,5
6,64,0,8
6,61,58,15
6,64,56,0
6,57,42,0
6,64,0,8
6,57,0,1
6,61,0,5
6,61,57,16
6,64,56,0
6,57,44,0
6,61,0,40
6,45,0,1
6,64,0,6
6,59,55,10
6,62,60,0
6,47,46,0
6,57,0,1
6,62,0,50
6,62,53,12
6,59,0,10
6,64,51,20
6,59,58,0
6,62,0,32
6,59,0,8
6,64,0,14
6,62,49,6
6,59,55,0
6,64,51,0
6,59,0,41
6,62,0,8
6,64,0,5
6,62,56,6
6,59,46,0
6,64,36,0
6,45,45,0
6,47,0,4
6,62,0,22
6,59,0,4
6,62,49,0
6,64,0,4
6,62,0,14
6,45,0,0
6,64,60,5
6,61,66,0
6,45,56,0
6,57,48,0
6,61,0,26
6,61,51,13
6,57,0,2
6,61,0,5
6,64,0,8
6,61,58,15
6,64,56,0
6,57,42,0
6,64,0,8
6,57,0,1
6,61,0,5
6,61,57,16
6,64,57,0
6,57,44,0
6,61,0,40
6,45,0,1
6,64,0,6
6,59,55,10
6,62,61,0
6,47,46,0
6,57,0,1
6,62,0,50
6,62,53,12
6,59,0,10
6,64,51,20
6,59,59,0
6,62,0,32
6,59,0,8
6,64,0,14
6,62,49,6
6,59,55,0
6,64,51,0
6,59,0,41
6,62,0,8
6,64,0,5
6,62,56,6
6,59,46,0
6,64,36,0
6,45,45,0
6,47,0,4
6,62,0,22
6,59,0,4
6,62,49,0
6,64,0,4
6,62,0,14
6,45,0,0
6,64,60,5
6,61,66,0
6,57,48,0
6,45,56,0
6,61,0,26
6,61,51,13
6,57,0,2
6,61,0,5
6,64,0,8
6,61,59,15
6,64,56,0
6,57,42,0
6,64,0,8
6,57,0,1
6,61,0,5
6,61,58,16
6,64,57,0
6,57,44,0
6,61,0,40
6,45,0,1
6,64,0,6
6,59,55,10
6,62,62,0
6,47,46,0
6,57,0,1
6,62,0,50
6,62,53,12
6,59,0,10
6,64,51,20
6,59,59,0
6,62,0,32
6,59,0,8
6,64,0,14
6,62,49,6
6,59,55,0
6,64,51,0
6,59,0,41
6,62,0,8
6,64,0,5
6,62,56,6
6,59,46,0
6,64,36,0
6,45,45,0
6,47,0,4
6,62,0,22
6,59,0,4
6,62,49,0
6,64,0,4
6,62,0,14
6,45,0,0
6,64,61,5
6,61,67,0
6,45,56,0
6,57,48,0
6,61,0,26
6,61,51,13
6,57,0,2
6,61,0,5
6,64,0,8
6,61,59,15
6,64,56,0
6,57,42,0
6,64,0,8
6,57,0,1
6,61,0,5
6,61,58,16
6,64,58,0
6,57,44,0
6,61,0,40
6,45,0,1
6,64,0,6
6,59,55,10
6,62,62,0
6,47,46,0
6,57,0,1
6,62,0,50
6,62,53,12
6,59,0,10
6,64,51,20
6,59,60,0
6,62,0,32
6,59,0,8
6,64,0,14
6,62,49,6
6,59,55,0
6,64,51,0
6,59,0,41
6,62,0,8
6,64,0,5
6,62,56,6
6,59,46,0
6,64,36,0
6,45,45,0
6,47,0,4
6,62,0,22
6,59,0,4
6,62,49,0
6,64,0,4
6,62,0,14
6,45,0,0
6,57,48,5
6,45,56,0
6,64,59,0
6,61,59,0
6,68,42,3
6,61,0,26
6,61,54,13
6,57,0,2
6,61,0,5
6,64,0,8
6,68,0,3
6,57,41,12
6,61,59,0
6,64,55,0
6,68,42,4
6,64,0,4
6,57,0,1
6,61,0,5
6,57,42,16
6,61,58,0
6,64,54,0
6,61,0,40
6,45,0,1
6,68,0,8
6,57,0,6
6,45,45,4
6,57,28,0
6,61,61,0
6,67,47,5
6,61,0,50
6,61,51,12
6,57,0,10
6,64,0,0
6,67,0,13
6,64,50,7
6,57,36,0
6,67,42,2
6,61,0,30
6,57,0,8
6,67,0,13
6,64,0,1
6,61,52,6
6,57,48,0
6,64,54,0
6,67,51,2
6,45,0,41
6,61,0,6
6,64,0,5
6,45,45,6
6,61,56,0
6,64,36,0
6,61,0,26
6,61,49,4
6,64,0,4
6,45,0,14
6,61,0,0
6,57,0,2
6,67,0,3
6,57,48,5
6,50,56,0
6,66,59,0
6,62,59,0
6,62,0,26
6,62,51,13
6,57,0,2
6,62,0,5
6,66,0,8
6,57,42,15
6,62,61,0
6,66,56,0
6,66,0,8
6,57,0,1
6,62,0,5
6,57,44,16
6,62,56,0
6,66,55,0
6,62,0,40
6,50,0,1
6,66,0,6
6,52,46,10
6,59,55,0
6,64,60,0
6,57,0,1
6,68,34,30
6,64,0,23
6,64,47,9
6,59,0,10
6,64,0,12
6,64,51,8
6,59,47,0
6,59,0,40
6,68,0,10
6,64,0,4
6,68,42,6
6,59,45,0
6,64,51,0
6,59,0,41
6,68,0,8
6,64,0,5
6,52,0,2
6,52,45,4
6,68,46,0
6,59,46,0
6,64,36,0
6,68,0,26
6,59,0,4
6,64,0,4
6,52,0,14
6,57,48,5
6,50,56,0
6,66,59,0
6,62,59,0
6,62,0,26
6,62,51,13
6,57,0,2
6,62,0,5
6,66,0,8
6,57,42,15
6,62,61,0
6,66,56,0
6,66,0,8
6,57,0,1
6,62,0,5
6,57,44,16
6,62,56,0
6,66,55,0
6,62,0,40
6,50,0,1
6,66,0,6
6,52,46,10
6,59,55,0
6,64,60,0
6,57,0,1
6,68,34,30
6,64,0,23
6,64,47,9
6,59,0,10
6,64,0,12
6,64,51,8
6,59,47,0
6,59,0,40
6,68,0,10
6,64,0,4
6,68,42,6
6,59,45,0
6,64,51,0
6,59,0,41
6,68,0,8
6,64,0,5
6,52,0,2
6,52,45,4
6,68,46,0
6,59,46,0
6,64,36,0
6,68,0,26
6,59,0,4
6,64,0,4
6,52,0,14
6,64,60,5
6,61,66,0
6,57,48,0
6,45,56,0
6,61,0,26
6,61,51,13
6,57,0,2
6,61,0,5
6,64,0,8
6,61,59,15
6,64,56,0
6,57,42,0
6,64,0,8
6,57,0,1
6,61,0,5
6,61,58,16
6,64,57,0
6,57,44,0
6,61,0,40
6,45,0,1
6,64,0,6
6,59,55,10
6,62,62,0
6,47,46,0
6,57,0,1
6,62,0,50
6,62,53,12
6,59,0,10
6,64,51,20
6,59,59,0
6,62,0,32
6,59,0,8
6,64,0,14
6,62,49,6
6,59,55,0
6,64,51,0
6,59,0,41
6,62,0,8
6,64,0,5
6,62,56,6
6,59,46,0
6,64,36,0
6,45,45,0
6,47,0,4
6,62,0,22
6,59,0,4
6,62,49,0
6,64,0,4
6,62,0,14
6,45,0,0
6,57,48,5
6,64,61,0
6,61,67,0
6,45,56,0
6,61,0,26
6,61,51,13
6,57,0,2
6,61,0,5
6,64,0,8
6,57,42,15
6,61,59,0
6,64,56,0
6,64,0,8
6,57,0,1
6,61,0,5
6,57,44,16
6,61,58,0
6,64,58,0
6,61,0,40
6,45,0,1
6,64,0,6
6,59,55,10
6,62,62,0
6,47,46,0
6,57,0,1
6,62,0,50
6,62,53,12
6,59,0,10
6,64,51,20
6,59,60,0
6,62,0,32
6,59,0,8
6,64,0,14
6,62,49,6
6,59,55,0
6,64,51,0
6,59,0,41
6,62,0,8
6,64,0,5
6,62,56,6
6,59,46,0
6,64,36,0
6,45,45,0
6,47,0,4
6,62,0,22
6,59,0,4
6,62,49,0
6,64,0,4
6,62,0,14
6,45,0,0
6,57,48,5
6,64,60,0
6,61,66,0
6,45,56,0
6,61,0,26
6,61,51,13
6,57,0,2
6,61,0,5
6,64,0,8
6,57,42,15
6,61,58,0
6,64,56,0
6,64,0,8
6,57,0,1
6,61,0,5
6,57,44,16
6,61,57,0
6,64,57,0
6,61,0,40
6,45,0,1
6,64,0,6
6,59,55,10
6,62,61,0
6,47,46,0
6,57,0,1
6,62,0,50
6,62,53,12
6,59,0,10
6,64,51,20
6,59,59,0
6,62,0,32
6,59,0,8
6,64,0,14
6,62,49,6
6,59,55,0
6,64,51,0
6,59,0,41
6,62,0,8
6,64,0,5
6,62,56,6
6,59,46,0
6,64,36,0
6,45,45,0
6,47,0,4
6,62,0,22
6,59,0,4
6,62,49,0
6,64,0,4
6,62,0,14
6,45,0,0
6,45,56,5
6,64,60,0
6,61,66,0
6,57,48,0
6,61,0,26
6,61,51,13
6,57,0,2
6,61,0,5
6,64,0,8
6,61,59,15
6,64,56,0
6,57,42,0
6,64,0,8
6,57,0,1
6,61,0,5
6,61,58,16
6,64,57,0
6,57,44,0
6,61,0,40
6,45,0,1
6,64,0,6
6,47,46,10
6,59,55,0
6,62,62,0
6,57,0,1
6,62,0,50
6,62,53,12
6,59,0,10
6,64,51,20
6,59,59,0
6,62,0,32
6,59,0,8
6,64,0,14
6,62,49,6
6,59,55,0
6,64,51,0
6,59,0,41
6,62,0,8
6,64,0,5
6,45,45,6
6,62,56,0
6,59,46,0
6,64,36,0
6,47,0,4
6,62,0,22
6,59,0,4
6,62,49,0
6,64,0,4
6,62,0,14
6,45,0,0
6,45,56,5
6,64,61,0
6,61,67,0
6,57,48,0
6,61,0,26
6,61,51,13
6,57,0,2
6,61,0,5
6,64,0,8
6,61,59,15
6,64,56,0
6,57,42,0
6,64,0,8
6,57,0,1
6,61,0,5
6,61,58,16
6,64,58,0
6,57,44,0
6,61,0,40
6,45,0,1
6,64,0,6
6,47,46,10
6,59,55,0
6,62,62,0
6,57,0,1
6,62,0,50
6,62,53,12
6,59,0,10
6,64,51,20
6,59,60,0
6,62,0,32
6,59,0,8
6,64,0,14
6,62,49,6
6,59,55,0
6,64,51,0
6,59,0,41
6,62,0,8
6,64,0,5
6,45,45,6
6,62,56,0
6,59,46,0
6,64,36,0
6,47,0,4
6,62,0,22
6,59,0,4
6,62,49,0
6,64,0,4
6,62,0,14
6,45,0,0
6,57,48,5
6,45,56,0
6,64,59,0
6,61,59,0
6,68,42,3
6,61,0,26
6,61,54,13
6,57,0,2
6,61,0,5
6,64,0,8
6,68,0,3
6,57,41,12
6,61,59,0
6,64,55,0
6,68,42,4
6,64,0,4
6,57,0,1
6,61,0,5
6,57,42,16
6,61,58,0
6,64,54,0
6,61,0,40
6,45,0,1
6,68,0,8
6,57,0,6
6,45,45,4
6,57,28,0
6,61,61,0
6,67,47,5
6,61,0,50
6,61,51,12
6,57,0,10
6,64,0,0
6,67,0,13
6,64,50,7
6,57,36,0
6,67,42,2
6,61,0,30
6,57,0,8
6,67,0,13
6,64,0,1
6,61,52,6
6,57,48,0
6,64,54,0
6,67,51,2
6,45,0,41
6,61,0,6
6,64,0,5
6,45,45,6
6,61,56,0
6,64,36,0
6,61,0,26
6,61,49,4
6,64,0,4
6,45,0,14
6,61,0,0
6,57,0,2
6,67,0,3
6,57,48,5
6,50,56,0
6,66,59,0
6,62,59,0
6,62,0,26
6,62,51,13
6,57,0,2
6,62,0,5
6,66,0,8
6,57,42,15
6,62,61,0
6,66,56,0
6,66,0,8
6,57,0,1
6,62,0,5
6,57,44,16
6,62,56,0
6,66,55,0
6,62,0,40
6,50,0,1
6,66,0,6
6,52,46,10
6,59,55,0
6,64,60,0
6,57,0,1
6,68,34,30
6,64,0,23
6,64,47,9
6,59,0,10
6,64,0,12
6,64,51,8
6,59,47,0
6,59,0,40
6,68,0,10
6,64,0,4
6,68,42,6
6,59,45,0
6,64,51,0
6,59,0,41
6,68,0,8
6,64,0,5
6,52,0,2
6,52,45,4
6,68,46,0
6,59,46,0
6,64,36,0
6,68,0,26
6,59,0,4
6,64,0,4
6,52,0,14
6,57,48,5
6,50,56,0
6,66,59,0
6,62,59,0
6,62,0,26
6,62,51,13
6,57,0,2
6,62,0,5
6,66,0,8
6,57,42,15
6,62,61,0
6,66,56,0
6,66,0,8
6,57,0,1
6,62,0,5
6,57,44,16
6,62,56,0
6,66,55,0
6,62,0,40
6,50,0,1
6,66,0,6
6,52,46,10
6,59,55,0
6,64,60,0
6,57,0,1
6,68,34,30
6,64,0,23
6,64,47,9
6,59,0,10
6,64,0,12
6,64,51,8
6,59,47,0
6,59,0,40
6,68,0,10
6,64,0,4
6,68,42,6
6,59,45,0
6,64,51,0
6,59,0,41
6,68,0,8
6,64,0,5
6,52,0,2
6,52,45,4
6,68,46,0
6,59,46,0
6,64,36,0
6,68,0,26
6,59,0,4
6,64,0,4
6,52,0,14
6,66,61,5
6,57,52,0
6,54,44,0
6,61,63,2
6,57,0,34
6,54,0,3
6,66,0,1
6,61,0,2
6,66,47,17
6,61,60,1
6,54,56,0
6,57,47,1
6,66,0,35
6,57,0,1
6,61,0,1
6,54,0,1
6,66,56,22
6,54,58,0
6,61,58,0
6,57,51,0
6,57,0,32
6,61,0,0
6,66,0,0
6,54,0,8
6,54,35,18
6,66,68,0
6,57,50,1
6,61,64,0
6,57,0,31
6,66,0,0
6,61,0,1
6,54,0,13
6,54,30,12
6,66,60,2
6,57,55,0
6,61,64,0
6,57,0,33
6,61,0,1
6,66,0,0
6,54,0,11
6,54,36,13
6,66,58,1
6,57,47,0
6,61,54,1
6,61,0,29
6,57,0,0
6,66,0,0
6,54,0,8
6,54,53,21
6,66,56,0
6,57,47,1
6,61,53,0
6,61,0,30
6,57,0,0
6,66,0,1
6,54,0,3
6,66,47,25
6,54,49,0
6,57,61,0
6,61,59,0
6,61,0,30
6,57,0,2
6,66,0,3
6,54,0,1
6,54,46,24
6,66,48,0
6,57,53,1
6,61,62,0
6,57,0,27
6,61,0,1
6,66,0,1
6,54,0,3
6,54,37,28
6,66,48,0
6,61,54,0
6,57,46,1
6,57,0,26
6,61,0,3
6,66,0,2
6,54,0,0
6,66,48,28
6,61,52,1
6,54,52,0
6,57,45,0
