track,note,velocity,time
2,73,63,1632
2,73,0,16
2,74,63,8
2,74,0,16
2,76,63,8
2,76,0,48
2,76,63,24
2,76,0,16
2,76,63,8
2,76,0,32
2,76,63,16
2,76,0,16
2,76,63,8
2,76,0,56
2,74,63,16
2,74,0,16
2,73,63,8
2,73,0,56
2,74,63,16
2,74,0,16
2,76,63,8
2,76,0,40
2,76,63,8
2,76,0,40
2,74,63,8
2,74,0,56
2,73,63,16
2,73,0,42
2,69,63,6
2,69,0,63
2,69,63,81
2,69,0,16
2,74,63,8
2,74,0,56
2,74,63,16
2,74,0,32
2,73,63,16
2,73,0,16
2,69,63,8
2,69,0,40
2,64,63,8
2,64,0,87
2,64,63,81
2,64,0,16
2,65,63,8
2,65,0,40
2,65,63,8
2,65,0,40
2,69,63,8
2,69,0,56
2,76,63,16
2,76,0,16
2,71,63,8
2,71,0,87
2,73,63,81
2,73,0,16
2,74,63,8
2,74,0,16
2,76,63,8
2,76,0,47
2,76,63,25
2,76,0,16
2,76,63,8
2,76,0,31
2,76,63,17
2,76,0,16
2,76,63,8
2,76,0,55
2,74,63,17
2,74,0,16
2,73,63,8
2,73,0,56
2,74,63,40
2,74,0,16
2,76,63,8
2,76,0,32
2,76,63,16
2,76,0,16
2,74,63,8
2,74,0,16
2,74,63,8
2,74,0,32
2,73,63,16
2,73,0,16
2,69,63,8
2,69,0,87
2,69,63,81
2,69,0,16
2,74,63,8
2,74,0,40
2,74,63,8
2,74,0,40
2,73,63,8
2,73,0,56
2,69,63,16
2,69,0,16
2,64,63,8
2,64,0,87
2,64,63,81
2,64,0,16
2,65,63,8
2,65,0,56
2,65,63,16
2,65,0,16
2,69,63,8
2,69,0,40
2,76,63,8
2,76,0,56
2,71,63,16
2,71,0,63
2,69,63,81
2,69,0,16
2,73,63,8
2,73,0,136
2,78,63,8
2,78,0,40
2,80,63,8
2,80,0,136
2,81,63,8
2,81,0,40
2,73,63,8
2,73,0,56
2,73,63,16
2,73,0,16
2,71,63,8
2,71,0,40
2,69,63,8
2,69,0,24
2,71,63,0
2,71,0,32
2,71,63,16
2,71,0,63
2,78,63,81
2,78,0,32
2,76,63,16
2,76,0,95
2,71,63,49
2,71,0,16
2,70,63,8
2,70,0,119
2,76,63,49
2,76,0,32
2,74,63,16
2,74,0,95
2,69,63,49
2,69,0,32
2,68,63,16
2,68,0,63
2,73,63,81
2,73,0,16
2,74,63,8
2,74,0,16
2,76,63,8
2,76,0,48
2,76,63,24
2,76,0,16
2,76,63,8
2,76,0,32
2,76,63,16
2,76,0,16
2,76,63,8
2,76,0,56
2,74,63,16
2,74,0,16
2,73,63,8
2,73,0,56
2,74,63,16
2,74,0,16
2,76,63,8
2,76,0,40
2,76,63,8
2,76,0,40
2,74,63,8
2,74,0,56
2,73,63,16
2,73,0,42
2,69,63,6
2,69,0,63
2,69,63,81
2,69,0,16
2,74,63,8
2,74,0,56
2,74,63,16
2,74,0,32
2,73,63,16
2,73,0,16
2,69,63,8
2,69,0,40
2,64,63,8
2,64,0,87
2,64,63,81
2,64,0,16
2,65,63,8
2,65,0,40
2,65,63,8
2,65,0,40
2,69,63,8
2,69,0,56
2,76,63,16
2,76,0,16
2,71,63,8
2,71,0,87
2,73,63,81
2,73,0,16
2,74,63,8
2,74,0,16
2,76,63,8
2,76,0,47
2,76,63,25
2,76,0,16
2,76,63,8
2,76,0,31
2,76,63,17
2,76,0,16
2,76,63,8
2,76,0,55
2,74,63,17
2,74,0,16
2,73,63,8
2,73,0,56
2,74,63,40
2,74,0,16
2,76,63,8
2,76,0,32
2,76,63,16
2,76,0,16
2,74,63,8
2,74,0,16
2,74,63,8
2,74,0,32
2,73,63,16
2,73,0,16
2,69,63,8
2,69,0,87
2,69,63,81
2,69,0,16
2,74,63,8
2,74,0,40
2,74,63,8
2,74,0,40
2,73,63,8
2,73,0,56
2,69,63,16
2,69,0,16
2,64,63,8
2,64,0,87
2,64,63,81
2,64,0,16
2,65,63,8
2,65,0,56
2,65,63,16
2,65,0,16
2,69,63,8
2,69,0,40
2,76,63,8
2,76,0,56
2,71,63,16
2,71,0,63
2,69,63,81
2,69,0,16
2,73,63,8
2,73,0,136
2,78,63,8
2,78,0,40
2,80,63,8
2,80,0,136
2,81,63,8
2,81,0,40
2,73,63,8
2,73,0,56
2,73,63,16
2,73,0,16
2,71,63,8
2,71,0,40
2,69,63,8
2,69,0,24
2,71,63,0
2,71,0,32
2,71,63,16
2,71,0,63
2,78,63,81
2,78,0,32
2,76,63,16
2,76,0,95
2,71,63,49
2,71,0,16
2,70,63,8
2,70,0,119
2,76,63,49
2,76,0,32
2,74,63,16
2,74,0,144
2,76,63,0
2,76,0,48
2,78,63,0
2,78,0,95
2,80,63,49
2,80,0,32
2,81,63,16
2,81,0,703
3,69,63,120
3,69,0,12
3,73,63,0
3,73,0,12
3,76,63,0
3,76,0,127
3,66,63,41
3,66,0,12
3,71,63,0
3,71,0,12
3,76,63,0
3,76,0,127
3,67,63,41
3,67,0,12
3,71,63,0
3,71,0,12
3,76,63,0
3,76,0,127
3,66,63,41
3,66,0,12
3,69,63,0
3,69,0,12
3,74,63,0
3,74,0,127
3,65,63,41
3,65,0,12
3,69,63,0
3,69,0,12
3,76,63,0
3,76,0,95
3,74,63,49
3,74,0,32
3,69,63,4
3,69,0,12
3,73,63,0
3,73,0,127
3,65,63,53
3,65,0,12
3,69,63,0
3,69,0,127
3,68,63,65
3,68,0,95
3,73,63,0
3,73,0,16
3,74,63,8
3,74,0,16
3,76,63,8
3,76,0,48
3,76,63,24
3,76,0,16
3,76,63,8
3,76,0,32
3,76,63,16
3,76,0,16
3,76,63,8
3,76,0,56
3,74,63,16
3,74,0,16
3,73,63,8
3,73,0,56
3,74,63,16
3,74,0,16
3,76,63,8
3,76,0,40
3,76,63,8
3,76,0,40
3,74,63,8
3,74,0,56
3,73,63,16
3,73,0,32
3,69,63,16
3,69,0,95
3,69,63,49
3,69,0,16
3,74,63,8
3,74,0,56
3,74,63,16
3,74,0,32
3,73,63,16
3,73,0,16
3,69,63,8
3,69,0,40
3,64,63,8
3,64,0,40
3,65,63,152
3,65,0,40
3,65,63,8
3,65,0,40
3,69,63,8
3,69,0,56
3,76,63,16
3,76,0,16
3,71,63,8
3,71,0,119
3,73,63,49
3,73,0,16
3,74,63,8
3,74,0,16
3,76,63,8
3,76,0,47
3,76,63,25
3,76,0,16
3,76,63,8
3,76,0,31
3,76,63,17
3,76,0,16
3,76,63,8
3,76,0,55
3,74,63,17
3,74,0,15
3,73,63,9
3,73,0,70
3,74,63,26
3,74,0,15
3,76,63,9
3,76,0,30
3,76,63,18
3,76,0,15
3,74,63,9
3,74,0,15
3,74,63,9
3,74,0,30
3,73,63,18
3,73,0,15
3,69,63,9
3,69,0,119
3,69,63,49
3,69,0,16
3,74,63,8
3,74,0,40
3,74,63,8
3,74,0,40
3,73,63,8
3,73,0,56
3,69,63,16
3,69,0,16
3,64,63,8
3,64,0,40
3,65,63,152
3,65,0,56
3,65,63,16
3,65,0,16
3,69,63,8
3,69,0,40
3,76,63,8
3,76,0,56
3,71,63,16
3,71,0,95
3,69,63,49
3,69,0,16
3,73,63,8
3,73,0,136
3,78,63,8
3,78,0,40
3,80,63,8
3,80,0,136
3,81,63,8
3,81,0,40
3,73,63,8
3,73,0,56
3,73,63,16
3,73,0,16
3,71,63,8
3,71,0,40
3,69,63,8
3,69,0,24
3,71,63,0
3,71,0,32
3,71,63,16
3,71,0,95
3,78,63,49
3,78,0,32
3,76,63,16
3,76,0,95
3,71,63,49
3,71,0,16
3,70,63,8
3,70,0,119
3,76,63,49
3,76,0,31
3,74,63,17
3,74,0,94
3,69,63,50
3,69,0,31
3,68,63,17
3,68,0,94
3,73,63,50
3,73,0,16
3,74,63,8
3,74,0,16
3,76,63,8
3,76,0,48
3,76,63,24
3,76,0,16
3,76,63,8
3,76,0,32
3,76,63,16
3,76,0,16
3,76,63,8
3,76,0,56
3,74,63,16
3,74,0,16
3,73,63,8
3,73,0,56
3,74,63,16
3,74,0,16
3,76,63,8
3,76,0,40
3,76,63,8
3,76,0,40
3,74,63,8
3,74,0,56
3,73,63,16
3,73,0,32
3,69,63,16
3,69,0,95
3,69,63,49
3,69,0,16
3,74,63,8
3,74,0,56
3,74,63,16
3,74,0,32
3,73,63,16
3,73,0,16
3,69,63,8
3,69,0,40
3,64,63,8
3,64,0,40
3,65,63,152
3,65,0,40
3,65,63,8
3,65,0,40
3,69,63,8
3,69,0,56
3,76,63,16
3,76,0,16
3,71,63,8
3,71,0,119
3,73,63,49
3,73,0,16
3,74,63,8
3,74,0,16
3,76,63,8
3,76,0,47
3,76,63,25
3,76,0,16
3,76,63,8
3,76,0,31
3,76,63,17
3,76,0,16
3,76,63,8
3,76,0,55
3,74,63,17
3,74,0,15
3,73,63,9
3,73,0,70
3,74,63,26
3,74,0,15
3,76,63,9
3,76,0,30
3,76,63,18
3,76,0,15
3,74,63,9
3,74,0,15
3,74,63,9
3,74,0,30
3,73,63,18
3,73,0,15
3,69,63,9
3,69,0,119
3,69,63,49
3,69,0,16
3,74,63,8
3,74,0,40
3,74,63,8
3,74,0,40
3,73,63,8
3,73,0,56
3,69,63,16
3,69,0,16
3,64,63,8
3,64,0,40
3,65,63,152
3,65,0,56
3,65,63,16
3,65,0,16
3,69,63,8
3,69,0,40
3,76,63,8
3,76,0,56
3,71,63,16
3,71,0,95
3,69,63,49
3,69,0,16
3,73,63,8
3,73,0,136
3,78,63,8
3,78,0,40
3,80,63,8
3,80,0,136
3,81,63,8
3,81,0,40
3,73,63,8
3,73,0,56
3,73,63,16
3,73,0,16
3,71,63,8
3,71,0,40
3,69,63,8
3,69,0,24
3,71,63,0
3,71,0,32
3,71,63,16
3,71,0,95
3,78,63,49
3,78,0,32
3,76,63,16
3,76,0,95
3,71,63,49
3,71,0,16
3,70,63,8
3,70,0,119
3,76,63,49
3,76,0,31
3,74,63,17
3,74,0,95
3,76,63,49
3,76,0,32
3,78,63,16
3,78,0,95
3,80,63,49
3,80,0,32
3,81,63,16
3,81,0,127
3,81,63,65
3,81,0,127
3,81,63,65
3,81,0,127
3,69,63,17
3,69,0,4
3,71,63,2
3,71,0,4
3,73,63,2
3,73,0,4
3,74,63,2
3,74,0,4
3,76,63,2
3,76,0,4
3,78,63,2
3,78,0,4
3,80,63,2
3,80,0,4
3,81,63,2
3,81,0,4
3,81,95,2
3,81,0,157
4,73,63,192
4,73,0,127
4,71,63,65
4,71,0,127
4,71,63,65
4,71,0,127
4,69,63,65
4,69,0,127
4,69,63,65
4,69,0,127
4,69,63,65
4,69,0,127
4,64,63,257
4,64,0,16
4,73,63,176
4,73,0,144
4,71,63,24
4,71,0,167
4,71,63,25
4,71,0,149
4,66,63,67
4,66,0,95
4,69,63,73
4,69,0,87
4,65,63,33
4,65,0,47
4,61,63,25
4,61,0,40
4,62,63,152
4,62,0,119
4,68,63,73
4,68,0,119
4,73,63,97
4,73,0,143
4,71,63,25
4,71,0,149
4,71,63,67
4,71,0,144
4,66,63,24
4,66,0,119
4,69,63,73
4,69,0,151
4,61,63,41
4,61,0,39
4,62,63,153
4,62,0,72
4,65,63,24
4,65,0,40
4,71,63,8
4,71,0,56
4,68,63,16
4,68,0,95
4,69,63,73
4,69,0,136
4,73,63,8
4,73,0,40
4,73,63,8
4,73,0,136
4,78,63,8
4,78,0,40
4,69,63,8
4,69,0,56
4,69,63,160
4,69,0,16
4,71,63,128
4,71,0,32
4,71,63,16
4,71,0,95
4,64,63,73
4,64,0,71
4,73,63,97
4,73,0,31
4,69,63,17
4,69,0,94
4,66,63,50
4,66,0,31
4,73,63,0
4,73,0,132
4,71,63,24
4,71,0,107
4,71,63,25
4,71,0,59
4,66,63,12
4,66,0,95
4,69,63,66
4,69,0,87
4,65,63,33
4,65,0,11
4,61,63,25
4,61,0,40
4,62,63,6
4,62,0,11
4,68,63,73
4,68,0,89
4,73,63,97
4,73,0,107
4,71,63,24
4,71,0,59
4,71,63,12
4,71,0,42
4,66,63,24
4,66,0,77
4,69,63,36
4,69,0,79
4,61,63,6
4,61,0,39
4,62,63,84
4,62,0,42
4,65,63,24
4,65,0,40
4,71,63,6
4,71,0,56
4,68,63,16
4,68,0,59
4,69,63,60
4,69,0,46
4,73,63,8
4,73,0,22
4,73,63,8
4,73,0,10
4,78,63,8
4,78,0,40
4,69,63,8
4,69,0,50
4,69,63,6
4,69,0,16
4,71,63,42
4,71,0,14
4,71,63,16
4,71,0,11
4,64,63,30
4,64,0,41
4,73,63,30
4,73,0,7
4,69,63,17
4,69,0,19
4,74,63,12
4,74,0,7
4,76,63,12
4,76,0,7
4,78,63,6
4,78,0,19
4,77,63,6
4,77,0,7
4,76,63,0
4,76,0,6
5,69,63,18
5,69,0,37
5,68,63,0
5,68,0,19
5,67,63,18
5,67,0,7
5,66,63,0
5,66,0,25
5,65,63,6
5,65,0,19
5,69,63,6
5,69,0,7
5,69,63,0
5,69,0,1
5,68,63,0
5,68,0,5
5,69,63,0
5,69,0,131
5,68,63,24
5,68,0,166
5,67,63,24
5,67,0,147
5,62,63,48
5,62,0,144
5,65,63,24
5,65,0,120
5,62,63,0
5,62,0,16
5,57,63,8
5,57,0,40
5,59,63,24
5,59,0,119
5,62,63,24
5,64,63,0
5,62,0,72
5,64,0,0
5,62,63,24
5,62,0,16
5,64,63,8
5,64,0,16
5,62,63,8
5,62,0,16
5,69,63,0
5,69,0,30
5,68,63,24
5,68,0,7
5,67,63,42
5,67,0,21
5,67,63,0
5,67,0,18
5,62,63,12
5,62,0,17
5,65,63,6
5,65,0,8
5,57,63,0
5,57,0,10
5,59,63,6
5,59,0,6
5,59,63,0
5,62,63,0
5,59,0,4
5,62,0,0
5,66,63,0
5,69,63,0
5,66,0,6
5,69,0,0
5,62,63,0
5,64,63,0
5,62,0,60
5,64,0,0
5,69,63,108
5,69,0,40
5,69,63,8
5,69,0,136
5,73,63,8
5,73,0,40
5,66,63,8
5,66,0,56
5,69,63,112
5,69,0,32
5,66,63,16
5,66,0,16
5,69,63,128
5,69,0,32
5,67,63,16
5,67,0,95
5,61,63,73
5,61,0,71
5,61,63,25
5,61,0,16
5,64,63,8
5,64,0,16
5,61,63,8
5,61,0,16
5,70,63,8
5,70,0,31
5,66,63,17
5,66,0,94
5,62,63,50
5,62,0,31
5,62,63,17
5,62,0,46
5,62,63,26
5,62,0,15
5,64,63,9
5,64,0,15
5,62,63,9
5,62,0,15
5,69,63,0
5,69,0,156
5,68,63,0
5,68,0,192
5,67,63,0
5,67,0,216
5,62,63,0
5,62,0,168
5,65,63,0
5,65,0,84
5,62,63,0
5,62,0,64
5,57,63,8
5,57,0,180
5,59,63,12
5,59,0,184
5,62,63,8
5,64,63,0
5,64,0,96
5,62,0,24
5,64,79,0
5,64,0,24
5,62,79,0
5,62,0,24
5,69,63,48
5,69,0,144
5,68,63,24
5,68,0,151
5,67,63,65
5,67,0,168
5,62,63,0
5,62,0,148
5,65,63,8
5,65,0,192
5,57,63,0
5,57,0,96
5,59,63,96
5,62,63,96
5,59,0,48
5,62,0,0
5,66,63,0
5,69,63,0
5,66,0,72
5,69,0,0
5,62,63,0
5,64,63,0
5,62,0,72
5,64,0,0
5,69,63,108
5,69,0,40
5,69,63,8
5,69,0,136
5,73,63,8
5,73,0,40
5,66,63,8
5,66,0,360
5,69,63,0
5,69,0,48
5,67,63,0
5,67,0,168
5,61,63,0
5,61,0,84
5,64,79,0
5,64,0,24
5,61,79,0
5,61,0,24
5,70,79,0
5,70,0,48
5,66,63,0
5,66,0,192
5,69,63,0
5,69,0,192
5,73,63,0
5,73,0,192
5,74,63,0
5,74,0,192
5,74,63,0
5,74,0,192
5,73,63,0
5,73,0,159
6,59,63,168
6,59,0,24
6,61,63,0
6,61,0,24
6,64,63,0
6,64,0,24
6,59,63,0
6,59,0,24
6,61,63,0
6,61,0,24
