track,note,velocity,time
3,72,98,0
3,72,0,24
3,72,89,0
3,72,0,4
3,72,93,0
3,72,0,71
3,70,64,0
3,70,0,21
3,70,85,0
3,70,0,543
3,67,76,0
3,67,0,37
3,72,93,0
3,72,0,67
3,74,85,0
3,74,0,50
3,72,89,0
3,72,0,91
3,70,93,0
3,70,0,98
3,69,98,0
3,69,0,43
3,67,80,0
3,67,0,95
3,69,85,0
3,69,0,61
3,69,76,0
3,69,0,21
3,69,85,0
3,69,0,109
3,67,76,0
3,67,0,51
3,69,89,0
3,69,93,0
3,69,0,10
3,69,0,110
3,69,93,0
3,69,0,45
3,69,76,0
3,69,0,35
3,69,89,0
3,69,0,101
3,67,76,0
3,67,0,113
3,65,76,0
3,65,0,106
3,69,93,0
3,69,0,74
3,72,76,0
3,72,0,7
3,72,76,0
3,72,0,36
3,74,85,0
3,74,0,50
3,72,76,0
3,72,0,41
3,70,68,0
3,70,0,370
3,70,89,0
3,70,0,53
3,74,89,0
3,74,0,82
3,74,85,0
3,74,0,49
3,75,72,0
3,74,85,0
3,75,0,2
3,74,0,102
3,72,80,0
3,72,0,115
3,70,68,0
3,70,0,44
3,70,93,0
3,70,93,0
3,70,0,19
3,70,93,0
3,70,0,19
3,70,0,62
3,70,64,0
3,70,0,30
3,70,85,0
3,70,0,172
3,65,76,0
3,65,0,90
3,65,72,0
3,65,0,976
3,65,93,0
3,65,0,72
3,72,98,0
3,72,0,24
3,72,89,0
3,72,0,4
3,72,93,0
3,72,0,71
3,70,64,0
3,70,0,21
3,70,85,0
3,70,0,543
3,72,93,0
3,72,0,67
3,74,85,0
3,74,0,50
3,72,89,0
3,72,0,91
3,70,93,13
3,70,0,98
3,69,98,0
3,69,0,43
3,67,80,0
3,67,0,95
3,69,85,0
3,69,0,61
3,69,76,0
3,69,0,21
3,69,85,0
3,69,0,109
3,67,76,0
3,67,0,51
3,69,89,0
3,69,0,670
3,69,93,0
3,69,0,45
3,69,76,0
3,69,0,35
3,69,89,0
3,69,0,101
3,67,76,9
3,67,0,113
3,65,76,0
3,65,0,106
3,69,93,0
3,69,0,74
3,72,76,0
3,72,0,7
3,72,76,0
3,72,0,36
3,74,85,0
3,74,0,50
3,72,76,0
3,72,0,41
3,70,68,0
3,70,0,370
3,70,89,0
3,70,0,53
3,74,89,0
3,74,0,82
3,74,85,0
3,74,0,49
3,75,72,0
3,74,85,0
3,75,0,2
3,74,0,102
3,72,80,0
3,72,0,115
3,70,68,0
3,70,0,44
3,70,93,0
3,70,0,79
3,70,93,0
3,70,0,81
3,70,64,0
3,70,0,30
3,70,85,0
3,70,0,172
3,65,76,0
3,65,0,90
3,65,72,0
3,65,0,976
3,65,93,0
3,65,0,72
3,65,93,0
3,65,0,72
3,75,102,0
3,75,0,1
3,75,62,0
3,75,0,25
3,75,107,0
3,75,0,166
3,74,98,0
3,74,0,81
3,74,93,0
3,74,0,609
3,75,98,0
3,75,0,106
3,74,93,0
3,74,0,30
3,75,80,0
3,75,0,164
3,74,102,0
3,74,0,110
3,72,102,0
3,72,0,110
3,70,93,0
3,70,0,98
3,74,102,0
3,74,0,87
3,74,102,0
3,74,0,93
3,74,93,0
3,74,0,97
3,72,93,0
3,72,0,31
3,72,102,0
3,72,0,703
3,74,102,0
3,74,0,76
3,74,98,0
3,74,0,32
3,75,102,0
3,75,0,160
3,74,107,0
3,74,0,110
3,72,98,0
3,72,0,102
3,70,98,0
3,70,0,79
3,72,107,0
3,72,0,89
3,72,76,0
3,72,0,27
3,74,89,0
3,74,0,153
3,72,93,0
3,72,0,55
3,70,89,0
3,70,0,364
3,70,98,0
3,70,0,80
3,79,107,0
3,79,0,78
3,77,93,0
3,77,0,24
3,77,93,0
3,77,0,151
3,79,98,0
3,79,0,97
3,74,93,0
3,72,85,60
3,74,0,7
3,72,0,36
3,70,80,0
3,70,0,225
3,74,107,0
3,74,0,79
3,72,98,0
3,72,0,104
3,70,76,0
3,70,0,40
3,72,98,0
3,72,0,174
3,74,107,0
3,74,0,107
3,72,76,0
3,72,0,58
3,70,68,2
3,70,0,52
3,67,76,0
3,67,0,372
3,65,93,0
3,65,0,102
3,72,102,0
3,72,0,91
3,72,89,0
3,72,0,31
3,72,89,0
3,72,0,158
3,70,80,0
3,70,0,36
3,70,85,0
3,70,0,404
3,65,89,0
3,65,0,87
3,74,76,0
3,74,0,75
3,74,89,0
3,74,0,34
3,74,93,0
3,74,0,161
3,75,89,19
3,75,0,87
3,74,98,0
3,74,0,60
3,72,64,0
3,72,0,146
3,74,93,0
3,74,0,88
3,72,80,0
3,72,0,226
3,70,85,0
3,70,0,1077
3,65,102,0
3,65,0,36
3,65,113,0
3,65,0,118
3,75,102,0
3,75,0,1
3,75,62,0
3,75,0,25
3,75,107,0
3,75,0,166
3,74,98,0
3,74,0,81
3,74,93,0
3,74,0,609
3,75,98,0
3,75,0,106
3,74,93,0
3,74,0,30
3,75,80,0
3,75,0,164
3,74,102,0
3,74,0,110
3,72,102,0
3,72,0,110
3,70,93,0
3,70,0,98
3,74,102,0
3,74,0,87
3,74,102,0
3,74,0,93
3,74,93,0
3,74,0,97
3,72,93,0
3,72,0,31
3,72,102,0
3,72,0,703
3,74,102,0
3,74,0,76
3,74,98,0
3,74,0,32
3,75,102,0
3,75,0,160
3,74,107,20
3,74,0,110
3,72,98,0
3,72,0,102
3,70,98,0
3,70,0,79
3,72,107,0
3,72,0,89
3,72,76,0
3,72,0,27
3,74,89,0
3,74,0,153
3,72,93,0
3,72,0,55
3,70,89,0
3,70,0,364
3,70,98,0
3,70,0,80
3,79,107,0
3,79,0,78
3,77,93,0
3,77,0,24
3,77,93,0
3,77,0,151
3,79,98,0
3,79,0,97
3,74,93,0
3,72,85,60
3,74,0,7
3,72,0,36
3,70,80,0
3,70,0,225
3,74,107,0
3,74,0,79
3,72,98,0
3,72,0,104
3,70,76,0
3,70,0,40
3,72,98,0
3,72,0,174
3,74,107,0
3,74,0,107
3,72,76,0
3,72,0,58
3,70,68,2
3,70,0,52
3,67,76,0
3,67,0,372
3,65,93,0
3,65,0,102
3,72,102,0
3,72,0,91
3,72,89,0
3,72,0,31
3,72,89,0
3,72,0,158
3,70,80,0
3,70,0,36
3,70,85,0
3,70,0,404
3,74,93,0
3,74,0,161
3,75,89,0
3,75,0,87
3,74,98,0
3,74,0,60
3,72,64,0
3,72,0,146
3,74,93,0
3,74,0,88
3,72,80,0
3,72,0,226
3,70,85,0
3,70,0,1077
4,46,85,10428
4,46,0,836
4,41,76,4
4,34,80,120
4,41,0,18
4,34,0,688
4,46,72,14
4,45,60,120
4,46,0,17
4,38,62,103
4,45,0,6
4,38,0,704
4,33,56,10
4,33,0,117
4,38,62,3
4,26,72,120
4,38,0,2
4,38,60,478
4,26,0,1
4,38,0,397
4,39,72,82
4,39,0,598
4,27,76,2
4,39,76,120
4,27,0,3
4,38,68,117
4,39,0,4
4,38,0,107
4,36,80,9
4,36,0,692
4,36,76,28
4,36,0,240
4,29,72,0
4,29,0,339
4,29,64,21
4,29,0,87
4,29,72,33
4,29,0,346
4,36,98,14
4,36,0,110
4,41,93,10
4,41,0,331
4,41,80,29
4,41,0,58
4,36,89,2
4,29,89,60
4,36,0,4
4,29,0,160
4,29,93,16
4,41,98,60
4,29,0,6
4,41,0,108
4,29,107,6
4,29,0,69
4,34,98,51
4,34,0,320
4,34,85,40
4,34,0,86
4,34,89,34
4,34,0,30
4,41,93,12
4,46,89,120
4,41,0,4
4,46,0,321
4,46,98,35
4,41,76,60
4,46,0,5
4,46,76,55
4,41,0,1
4,41,72,59
4,46,0,8
4,41,0,48
4,34,89,4
4,46,89,120
4,34,0,13
4,46,0,98
4,34,89,9
4,38,98,120
4,34,0,5
4,38,0,328
4,38,89,27
4,38,0,50
4,33,89,10
4,26,85,60
4,33,0,1
4,26,0,88
4,26,93,31
4,26,0,204
4,26,89,36
4,33,72,60
4,26,0,4
4,38,98,56
4,33,0,1
4,38,0,311
4,38,98,48
4,38,0,54
4,33,85,6
4,33,0,60
4,38,80,0
4,38,0,51
4,38,98,69
4,38,0,196
4,38,89,44
4,38,0,42
4,33,72,18
4,33,0,42
4,31,89,18
4,31,0,326
4,31,80,34
4,38,62,60
4,31,0,2
4,38,0,50
4,43,80,8
4,43,0,81
4,43,89,39
4,43,0,219
4,43,85,21
4,41,68,60
4,43,0,19
4,34,93,41
4,41,0,2
4,34,0,308
4,34,93,50
4,29,93,60
4,34,0,2
4,29,0,58
4,34,93,0
4,34,0,65
4,34,98,55
4,34,0,209
4,34,98,31
4,34,0,58
4,29,89,2
4,29,0,47
4,40,93,13
4,40,0,813
4,40,85,27
4,40,0,115
4,39,93,5
4,114,1,0
4,114,0,5
4,39,0,890
4,46,50,65
4,46,0,832
4,43,62,8
4,43,0,118
4,41,56,2
4,41,0,812
4,46,50,148
4,46,0,832
4,38,93,1088
4,38,0,121
4,38,98,239
4,33,76,60
4,38,0,8
4,33,0,35
4,26,85,17
4,26,0,69
4,26,102,51
4,26,0,112
4,38,98,8
4,38,0,114
4,33,85,6
4,33,0,99
4,31,98,21
4,31,0,135
4,43,98,105
4,43,0,112
4,38,98,128
4,38,0,51
4,43,98,69
4,43,0,194
4,43,93,46
4,38,85,0
4,38,0,33
4,43,0,4
4,31,102,23
4,31,0,35
4,38,102,25
4,38,0,120
4,38,102,120
4,38,0,153
4,33,85,27
4,33,0,43
4,38,89,17
4,38,0,52
4,33,46,8
4,33,0,44
4,26,93,16
4,26,0,222
4,38,102,18
4,38,0,112
4,31,85,8
4,31,0,130
4,43,102,110
4,43,0,162
4,38,85,18
4,38,0,46
4,43,93,14
4,43,0,54
4,43,102,66
4,43,0,233
4,38,102,7
4,38,0,65
4,31,102,55
4,31,0,360
4,38,102,0
4,38,0,107
4,43,93,13
4,43,0,26
4,43,107,94
4,43,0,221
4,38,107,19
4,36,98,120
4,38,0,5
4,31,89,415
4,36,0,13
4,31,0,44
4,36,98,3
4,36,0,48
4,36,107,72
4,36,0,210
4,36,107,30
4,36,0,48
4,39,107,72
4,34,98,360
4,39,0,5
4,27,98,115
4,34,0,9
4,27,0,219
4,39,102,12
4,39,0,239
4,29,107,1
4,36,102,240
4,29,0,1
4,36,0,223
4,41,102,16
4,29,107,240
4,41,0,2
4,29,0,155
4,34,98,83
4,34,0,320
4,34,85,40
4,34,0,86
4,34,89,34
4,34,0,30
4,41,93,12
4,46,89,120
4,41,0,4
4,46,0,321
4,46,98,35
4,41,76,60
4,46,0,5
4,46,76,55
4,41,0,1
4,41,72,59
4,46,0,8
4,41,0,48
4,34,89,4
4,46,89,120
4,34,0,13
4,46,0,98
4,34,89,9
4,38,98,120
4,34,0,5
4,38,0,328
4,38,89,27
4,38,0,50
4,33,89,10
4,26,85,60
4,33,0,1
4,26,0,88
4,26,93,31
4,26,0,204
4,26,89,36
4,33,72,60
4,26,0,4
4,38,98,56
4,33,0,1
4,38,0,311
4,38,98,48
4,38,0,54
4,33,85,6
4,33,0,60
4,38,80,0
4,38,0,51
4,38,98,69
4,38,0,196
4,38,89,44
4,38,0,42
4,33,72,18
4,33,0,42
4,31,89,18
4,31,0,326
4,31,80,34
4,38,62,60
4,31,0,2
4,38,0,50
4,43,80,8
4,43,0,81
4,43,89,39
4,43,0,219
4,43,85,21
4,41,68,60
4,43,0,19
4,34,93,41
4,41,0,2
4,34,0,308
4,34,93,50
4,29,93,60
4,34,0,2
4,29,0,58
4,34,93,0
4,34,0,65
4,34,98,55
4,34,0,209
4,34,98,31
4,34,0,58
4,29,89,2
4,29,0,47
4,40,93,13
4,40,0,813
4,40,85,27
4,40,0,115
4,39,93,5
4,39,0,895
4,46,50,65
4,46,0,832
4,43,62,8
4,43,0,118
4,41,56,2
4,41,0,812
4,46,50,148
4,46,0,832
4,34,72,1088
4,34,0,1706
5,46,62,840
5,58,60,0
5,60,64,0
5,65,68,0
5,65,0,15
5,58,0,0
5,60,0,6
5,58,72,33
5,65,76,0
5,60,80,0
5,46,0,10
5,58,0,67
5,60,0,4
5,65,0,2
5,46,55,37
5,46,0,49
5,46,55,3
5,58,59,0
5,62,51,0
5,65,43,0
5,65,0,44
5,58,0,0
5,62,0,4
5,58,64,66
5,62,72,0
5,65,76,0
5,46,0,26
5,62,0,25
5,65,0,3
5,58,0,1
5,46,72,65
5,46,0,62
5,58,60,58
5,46,60,0
5,60,60,0
5,65,62,0
5,58,0,22
5,65,0,2
5,60,0,26
5,58,62,57
5,65,68,0
5,60,72,0
5,46,0,48
5,65,0,64
5,58,0,6
5,60,0,2
5,46,53,0
5,46,0,29
5,60,38,91
5,58,41,0
5,62,36,0
5,46,50,0
5,65,50,0
5,60,0,27
5,58,0,37
5,62,0,8
5,65,0,3
5,46,0,46
5,65,59,13
5,58,57,0
5,62,57,0
5,62,0,58
5,65,0,0
5,58,0,12
5,34,72,25
5,60,72,0
5,65,68,0
5,58,62,0
5,58,0,28
5,65,0,0
5,60,0,5
5,34,0,38
5,58,59,31
5,65,72,0
5,60,76,0
5,60,0,56
5,65,0,1
5,58,0,0
5,46,64,63
5,46,0,42
5,62,57,78
5,65,56,0
5,58,56,0
5,65,0,81
5,58,0,5
5,62,0,1
5,58,60,74
5,65,72,0
5,62,72,0
5,62,0,59
5,65,0,1
5,58,0,4
5,46,56,56
5,46,0,40
5,58,55,80
5,65,56,0
5,60,62,0
5,46,62,0
5,58,0,22
5,65,0,4
5,60,0,2
5,58,68,85
5,60,89,0
5,65,89,0
5,60,0,40
5,58,0,3
5,65,0,4
5,46,0,7
5,46,76,66
5,46,0,37
5,58,56,5
5,62,59,0
5,65,64,0
5,46,55,0
5,58,0,56
5,65,0,7
5,62,0,1
5,58,57,67
5,62,62,0
5,65,68,0
5,46,0,26
5,62,0,18
5,58,0,5
5,65,0,5
5,67,62,82
5,69,72,0
5,57,62,0
5,50,62,0
5,64,68,0
5,67,0,46
5,64,0,2
5,69,0,3
5,67,76,130
5,69,89,0
5,64,89,0
5,67,0,39
5,69,0,4
5,64,0,1
5,57,0,10
5,57,85,66
5,50,0,15
5,57,0,15
5,62,64,90
5,69,76,0
5,65,72,0
5,50,60,0
5,62,0,51
5,69,0,7
5,65,0,2
5,62,93,71
5,69,102,0
5,65,107,0
5,65,0,48
5,62,0,1
5,69,0,3
5,57,89,68
5,50,0,35
5,57,0,1
5,67,80,84
5,69,98,0
5,64,76,0
5,50,62,0
5,67,0,56
5,69,0,2
5,64,0,1
5,67,85,77
5,69,93,0
5,64,89,0
5,67,0,48
5,64,0,4
5,69,0,5
5,50,0,9
5,50,80,54
5,50,0,41
5,62,64,79
5,65,72,0
5,69,76,0
5,50,62,0
5,62,0,43
5,69,0,3
5,65,0,3
5,62,76,72
5,65,89,0
5,69,93,0
5,65,0,44
5,62,0,1
5,69,0,6
5,50,0,5
5,67,68,83
5,65,64,0
5,63,72,0
5,70,85,0
5,51,72,0
5,63,0,84
5,65,0,2
5,67,0,4
5,70,0,0
5,63,72,83
5,65,76,0
5,70,85,0
5,67,89,0
5,65,0,61
5,63,0,7
5,67,0,4
5,70,0,5
5,51,0,127
5,51,80,36
5,70,72,0
5,67,76,0
5,63,68,0
5,70,0,119
5,63,0,2
5,67,0,5
5,51,0,19
5,70,85,35
5,63,85,0
5,67,85,0
5,63,0,43
5,67,0,2
5,70,0,1
5,55,47,4
5,62,62,0
5,67,80,0
5,70,76,0
5,63,62,0
5,48,72,0
5,62,0,112
5,70,0,1
5,67,0,0
5,63,0,4
5,67,85,56
5,70,89,0
5,62,85,0
5,63,89,0
5,62,0,56
5,67,0,4
5,63,0,2
5,70,0,4
5,55,0,48
5,48,0,37
5,48,62,89
5,67,62,0
5,63,72,0
5,70,89,0
5,60,72,0
5,60,0,47
5,63,0,1
5,67,0,0
5,70,0,6
5,67,76,59
5,63,80,0
5,60,93,0
5,70,89,0
5,67,0,76
5,63,0,3
5,70,0,2
5,60,0,3
5,48,0,12
