track,note,velocity,time
3,73,112,0
3,73,0,97
3,74,112,0
3,74,0,85
3,76,112,0
3,76,0,320
3,76,112,0
3,76,0,65
3,76,112,0
3,76,0,186
3,76,112,0
3,76,0,76
3,76,112,0
3,76,0,322
3,74,112,0
3,73,112,0
3,74,0,13
3,73,0,87
3,74,112,0
3,74,0,198
3,76,112,0
3,76,0,185
3,76,112,0
3,76,0,196
3,74,112,0
3,74,0,202
3,73,112,0
3,73,0,198
3,69,112,0
3,69,0,786
3,69,112,0
3,69,0,106
3,74,112,0
3,74,0,205
3,74,112,0
3,74,0,104
3,73,112,0
3,73,0,206
3,69,112,0
3,69,0,185
3,64,112,0
3,64,0,869
3,64,112,0
3,64,0,68
3,65,112,0
3,65,0,189
3,65,112,0
3,65,0,87
3,69,112,0
3,69,0,193
3,76,112,0
3,76,0,203
3,71,112,0
3,71,0,824
3,73,112,0
3,73,0,112
3,74,112,0
3,74,0,93
3,76,112,0
3,76,0,320
3,76,112,0
3,76,0,65
3,76,112,0
3,76,0,186
3,76,112,0
3,76,0,76
3,76,112,0
3,76,0,322
3,74,112,0
3,73,112,0
3,74,0,13
3,73,0,87
3,74,112,0
3,74,0,198
3,76,112,0
3,76,0,185
3,76,112,0
3,76,0,196
3,74,112,0
3,74,0,202
3,73,112,0
3,73,0,198
3,69,112,0
3,69,0,786
3,69,112,0
3,69,0,106
3,74,112,0
3,74,0,205
3,74,112,0
3,74,0,104
3,73,112,0
3,73,0,206
3,69,112,0
3,69,0,185
3,64,112,0
3,64,0,869
3,64,112,0
3,64,0,68
3,65,112,0
3,65,0,189
3,65,112,0
3,65,0,87
3,69,112,0
3,69,0,193
3,76,112,0
3,76,0,203
3,71,112,0
3,71,0,824
3,69,112,0
3,69,0,199
3,73,112,0
3,73,0,719
3,78,112,0
3,78,0,225
3,80,112,0
3,80,0,690
3,81,112,0
3,81,0,222
3,73,112,0
3,73,0,186
3,73,112,0
3,73,0,94
3,71,112,0
3,71,0,169
3,69,112,0
3,69,0,181
3,71,112,0
3,71,0,644
3,78,112,0
3,78,0,231
3,76,112,0
3,71,112,0
3,76,0,2
3,71,0,108
3,70,112,0
3,70,0,814
3,76,112,0
3,76,0,216
3,74,112,0
3,74,0,607
3,69,112,0
3,69,0,105
3,68,112,0
3,68,0,809
3,73,112,0
3,73,0,107
3,74,112,0
3,74,0,90
3,76,112,0
3,76,0,320
3,76,112,0
3,76,0,65
3,76,112,0
3,76,0,186
3,76,112,0
3,76,0,76
3,76,112,0
3,76,0,322
3,74,112,0
3,73,112,0
3,74,0,13
3,73,0,87
3,74,112,0
3,74,0,198
3,76,112,0
3,76,0,185
3,76,112,0
3,76,0,196
3,74,112,0
3,74,0,202
3,73,112,0
3,73,0,198
3,69,112,0
3,69,0,786
3,69,112,0
3,69,0,106
3,74,112,0
3,74,0,205
3,74,112,0
3,74,0,104
3,73,112,0
3,73,0,206
3,69,112,0
3,69,0,185
3,64,112,0
3,64,0,869
3,64,112,0
3,64,0,68
3,65,112,0
3,65,0,189
3,65,112,0
3,65,0,87
3,69,112,0
3,69,0,193
3,76,112,0
3,76,0,203
3,71,112,0
3,71,0,824
3,73,112,0
3,73,0,112
3,74,112,0
3,74,0,93
3,76,112,0
3,76,0,320
3,76,112,0
3,76,0,65
3,76,112,0
3,76,0,186
3,76,112,0
3,76,0,76
3,76,112,0
3,76,0,322
3,74,112,0
3,73,112,0
3,74,0,13
3,73,0,87
3,74,112,0
3,74,0,198
3,76,112,0
3,76,0,185
3,76,112,0
3,76,0,196
3,74,112,0
3,74,0,202
3,73,112,0
3,73,0,198
3,69,112,0
3,69,0,786
3,69,112,0
3,69,0,106
3,74,112,0
3,74,0,205
3,74,112,0
3,74,0,104
3,73,112,0
3,73,0,206
3,69,112,0
3,69,0,185
3,64,112,0
3,64,0,869
3,64,112,0
3,64,0,68
3,65,112,0
3,65,0,189
3,65,112,0
3,65,0,87
3,69,112,0
3,69,0,193
3,76,112,0
3,76,0,203
3,71,112,0
3,71,0,824
3,69,112,0
3,69,0,199
3,73,112,0
3,73,0,719
3,78,112,0
3,78,0,225
3,80,112,0
3,80,0,690
3,81,112,0
3,81,0,222
3,73,112,0
3,73,0,186
3,73,112,0
3,73,0,94
3,71,112,0
3,71,0,169
3,69,112,0
3,69,0,181
3,71,112,0
3,71,0,644
3,78,112,0
3,78,0,231
3,76,112,0
3,71,112,0
3,76,0,2
3,71,0,108
3,70,112,0
3,70,0,814
3,76,112,0
3,76,0,216
3,74,112,0
3,74,0,607
3,76,112,0
3,76,0,203
3,78,112,0
3,80,112,0
3,78,0,11
3,80,0,214
3,81,112,0
3,81,0,1898
4,45,127,948
4,44,127,960
4,45,0,4
4,44,0,929
4,43,102,27
4,43,0,946
4,42,102,14
4,42,0,913
4,41,93,47
4,41,0,956
4,40,102,4
4,40,0,891
4,38,102,69
4,38,0,951
4,28,108,9
4,28,0,758
4,45,127,202
4,44,127,960
4,45,0,4
4,44,0,929
4,43,102,27
4,43,0,946
4,42,102,14
4,42,0,913
4,41,93,47
4,41,0,956
4,40,102,4
4,40,0,891
4,38,102,69
4,38,0,951
4,28,108,9
4,28,0,758
4,45,127,202
4,44,127,960
4,45,0,4
4,44,0,929
4,43,102,27
4,43,0,946
4,38,102,14
4,38,0,913
4,41,93,47
4,41,0,956
4,40,102,4
4,40,0,891
4,38,102,69
4,38,0,951
4,28,108,9
4,28,0,758
4,42,127,202
4,42,0,950
4,41,102,10
4,41,0,960
4,40,114,0
4,40,0,944
4,38,84,16
4,38,0,823
4,37,127,137
4,37,0,804
4,37,114,36
4,37,0,118
4,30,120,2
4,30,0,947
4,35,127,13
4,35,0,680
4,35,102,40
4,35,0,219
4,28,111,21
4,28,0,797
4,45,127,163
4,44,127,960
4,45,0,4
4,44,0,929
4,43,102,27
4,43,0,946
4,42,102,14
4,42,0,913
4,41,93,47
4,41,0,956
4,40,102,4
4,40,0,891
4,38,102,69
4,38,0,951
4,28,108,9
4,28,0,758
4,45,127,202
4,44,127,960
4,45,0,4
4,44,0,929
4,43,102,27
4,43,0,946
4,38,102,14
4,38,0,913
4,41,93,47
4,41,0,956
4,40,102,4
4,40,0,891
4,38,102,69
4,38,0,951
4,28,108,9
4,28,0,758
4,42,127,202
4,42,0,950
4,41,102,10
4,41,0,960
4,40,114,0
4,40,0,944
4,38,84,16
4,38,0,823
4,37,127,137
4,37,0,804
4,37,114,36
4,37,0,118
4,30,120,2
4,30,0,947
4,35,127,13
4,35,0,680
4,35,102,40
4,35,0,219
4,28,111,21
4,28,0,797
4,33,127,163
4,33,0,599
4,45,127,1
4,33,111,120
4,45,0,18
4,45,123,102
4,33,0,10
4,33,123,110
4,45,0,5
4,45,123,715
4,33,0,20
4,45,0,93
4,33,127,7
4,38,120,120
4,33,0,14
4,38,0,530
4,38,117,56
4,38,0,111
4,40,111,9
4,38,108,120
4,40,0,11
4,38,0,96
4,33,120,13
4,33,0,1900
5,81,95,84
5,69,64,0
5,76,77,59
5,83,95,0
5,81,0,19
5,83,0,90
5,88,85,11
5,88,0,99
5,76,0,448
5,69,0,79
5,80,95,6
5,83,93,63
5,80,0,28
5,88,74,92
5,83,0,24
5,88,0,87
5,79,107,609
5,83,83,56
5,79,0,18
5,83,0,102
5,81,77,2
5,78,67,0
5,88,79,0
5,81,0,507
5,88,0,5
5,78,0,3
5,88,115,145
5,77,90,0
5,81,97,120
5,88,0,14
5,88,127,150
5,81,0,8
5,77,0,11
5,88,0,85
5,81,102,136
5,81,0,54
5,86,124,66
5,86,0,46
5,86,95,71
5,76,62,0
5,73,64,0
5,69,72,0
5,85,104,43
5,86,0,2
5,85,0,74
5,76,0,23
5,81,110,21
5,81,0,99
5,76,74,21
5,76,0,375
5,73,0,1
5,69,0,0
5,62,77,177
5,81,107,0
5,77,93,24
5,81,0,106
5,77,0,6
5,74,93,8
5,74,0,114
5,69,88,6
5,69,0,219
5,62,0,0
5,68,77,122
5,64,102,0
5,74,77,30
5,74,0,114
5,76,95,6
5,71,88,120
5,76,0,12
5,71,0,74
5,68,0,14
5,64,0,12
5,83,79,8
5,83,0,322
5,81,95,7796
5,69,64,0
5,76,77,59
5,83,95,0
5,81,0,19
5,83,0,90
5,88,85,11
5,88,0,99
5,76,0,448
5,69,0,79
5,80,95,6
5,83,93,63
5,80,0,28
5,88,74,92
5,83,0,24
5,88,0,87
5,79,107,609
5,83,83,56
5,79,0,18
5,83,0,102
5,81,77,2
5,78,67,0
5,88,79,0
5,81,0,507
5,88,0,5
5,78,0,3
5,88,115,145
5,77,90,0
5,81,97,120
5,88,0,14
5,88,127,150
5,81,0,8
5,77,0,11
5,88,0,85
5,81,102,136
5,81,0,54
5,86,124,66
5,86,0,46
5,86,95,71
5,76,62,0
5,73,64,0
5,69,72,0
5,85,104,43
5,86,0,2
5,85,0,74
5,76,0,23
5,81,110,21
5,81,0,99
5,76,74,21
5,76,0,375
5,73,0,1
5,69,0,0
5,62,77,177
5,81,107,0
5,77,93,24
5,81,0,106
5,77,0,6
5,74,93,8
5,74,0,114
5,69,88,6
5,69,0,219
5,62,0,0
5,68,77,122
5,64,102,0
5,74,77,30
5,74,0,114
5,76,95,6
5,71,88,120
5,76,0,12
5,71,0,74
5,68,0,14
5,64,0,12
5,83,79,8
5,83,0,322
5,66,63,116
5,73,69,0
5,69,68,0
5,54,57,0
5,61,72,261
5,66,0,55
5,73,0,15
5,61,0,2
5,69,0,0
5,54,0,41
5,66,72,7
5,73,90,0
5,69,95,0
5,66,0,46
5,69,0,11
5,73,0,3
5,65,62,17
5,53,67,0
5,69,79,0
5,69,0,61
5,65,0,0
5,65,60,27
5,73,72,0
5,69,62,0
5,73,0,44
5,69,0,17
5,65,0,0
5,65,58,299
5,73,67,0
5,69,74,0
5,69,0,49
5,65,0,3
5,73,0,2
5,53,0,44
5,76,93,83
5,73,69,120
5,76,0,36
5,73,0,49
5,69,77,8
5,69,0,42
5,81,110,78
5,81,0,42
5,76,67,198
5,76,0,31
5,74,74,92
5,62,60,0
5,69,79,120
5,74,0,31
5,76,100,79
5,76,0,52
5,78,97,68
5,69,0,10
5,62,0,9
5,78,0,65
5,81,95,36
5,81,0,62
5,62,61,58
5,62,0,109
5,67,62,81
5,71,88,0
5,76,93,0
5,67,0,165
5,76,0,38
5,71,0,4
5,67,62,22
5,67,0,93
5,71,79,27
5,79,107,120
5,71,0,5
5,79,0,76
5,76,93,39
5,76,0,106
5,71,62,14
5,71,0,77
5,67,63,43
5,67,0,51
5,54,60,45
5,64,53,0
5,70,58,0
5,73,66,0
5,61,68,34
5,73,0,26
5,64,0,1
5,70,0,10
5,73,97,83
5,73,0,87
5,70,85,33
5,54,0,85
5,61,0,6
5,70,0,14
5,69,79,19
5,59,77,0
5,66,83,120
5,74,77,120
5,69,0,27
5,78,100,93
5,74,0,16
5,66,0,93
5,59,0,27
5,78,0,45
5,52,88,207
5,59,88,120
5,64,81,120
5,66,77,120
5,64,0,64
5,64,81,56
5,66,0,12
5,64,0,327
5,52,0,6
5,59,0,2
5,81,95,7813
5,69,64,0
5,76,77,59
5,83,95,0
5,81,0,19
5,83,0,90
5,88,85,11
5,88,0,99
5,76,0,448
5,69,0,79
5,80,95,6
5,83,93,63
5,80,0,28
5,88,74,92
5,83,0,24
5,88,0,87
5,79,107,609
5,83,83,56
5,79,0,18
5,83,0,102
5,81,77,2
5,78,67,0
5,88,79,0
5,81,0,507
5,88,0,5
5,78,0,3
5,88,115,145
5,77,90,0
5,81,97,120
5,88,0,14
5,88,127,150
5,81,0,8
5,77,0,11
5,88,0,85
5,81,102,136
5,81,0,54
5,86,124,66
5,86,0,46
5,86,95,71
5,76,62,0
5,73,64,0
5,69,72,0
5,85,104,43
5,86,0,2
5,85,0,74
5,76,0,23
5,81,110,21
5,81,0,99
5,76,74,21
5,76,0,375
5,73,0,1
5,69,0,0
5,62,77,177
5,81,107,0
5,77,93,24
5,81,0,106
5,77,0,6
5,74,93,8
5,74,0,114
5,69,88,6
5,69,0,219
5,62,0,0
5,68,77,122
5,64,102,0
5,74,77,30
5,74,0,114
5,76,95,6
5,71,88,120
5,76,0,12
5,71,0,74
5,68,0,14
5,64,0,12
5,83,79,8
5,83,0,322
5,66,63,116
5,73,69,0
5,69,68,0
5,54,57,0
5,61,72,261
5,66,0,55
5,73,0,15
5,61,0,2
5,69,0,0
5,54,0,41
5,66,72,7
5,73,90,0
5,69,95,0
5,66,0,46
5,69,0,11
5,73,0,3
5,65,62,17
5,53,67,0
5,69,79,0
5,69,0,61
5,65,0,0
5,65,60,27
5,73,72,0
5,69,62,0
5,73,0,44
5,69,0,17
5,65,0,0
5,65,58,299
5,73,67,0
5,69,74,0
5,69,0,49
5,65,0,3
5,73,0,2
5,53,0,44
5,76,93,83
5,73,69,120
5,76,0,36
5,73,0,49
5,69,77,8
5,69,0,42
5,81,110,78
5,81,0,42
5,76,67,198
5,76,0,31
5,74,74,92
5,62,60,0
5,69,79,120
5,74,0,31
5,76,100,79
5,76,0,52
5,78,97,68
5,69,0,10
5,62,0,9
5,78,0,65
5,81,95,36
5,81,0,62
5,62,61,58
5,62,0,109
5,67,62,81
5,71,88,0
5,76,93,0
5,67,0,165
5,76,0,38
5,71,0,4
5,67,62,22
5,67,0,93
5,71,79,27
5,79,107,120
5,71,0,5
5,79,0,76
5,76,93,39
5,76,0,106
5,71,62,14
5,71,0,77
5,67,63,43
5,67,0,51
5,54,60,45
5,64,53,0
5,70,58,0
5,73,66,0
5,61,68,34
5,73,0,26
5,64,0,1
5,70,0,10
5,73,97,83
5,73,0,87
5,70,85,33
5,54,0,85
5,61,0,6
5,70,0,14
5,69,79,19
5,59,77,0
5,66,83,120
5,74,77,120
5,69,0,27
5,78,100,93
5,74,0,16
5,66,0,93
5,59,0,27
5,78,0,45
5,52,88,207
5,59,88,120
5,64,81,120
5,66,77,120
5,64,0,64
5,64,81,56
5,66,0,12
5,64,0,327
5,52,0,6
5,59,0,2
5,73,57,133
5,69,110,0
5,76,69,0
5,45,88,0
5,81,90,0
5,71,90,120
5,69,0,96
5,57,74,4
5,76,90,0
5,71,0,15
5,81,0,26
5,76,0,10
5,73,0,6
5,69,59,63
5,71,88,0
5,76,0,18
5,69,88,102
5,71,0,17
5,69,0,48
5,73,115,55
5,76,85,0
5,73,0,93
5,69,0,25
5,76,0,2
5,76,117,0
5,71,90,0
5,57,0,17
5,45,0,4
5,76,0,39
5,69,95,60
5,71,0,16
5,78,90,104
5,74,74,0
5,62,100,0
5,62,62,0
5,81,102,0
5,69,0,9
5,66,74,105
5,69,97,108
5,69,70,120
5,76,93,0
5,74,0,74
5,69,0,87
5,78,0,53
5,81,0,7
5,62,0,11
5,74,85,8
5,74,90,0
5,76,0,13
5,74,0,86
5,74,0,18
5,76,102,3
5,71,95,0
5,69,0,5
5,76,0,58
5,71,0,41
5,81,95,16
5,69,95,0
5,81,0,95
5,69,0,12
5,62,0,3
5,66,0,5
5,65,66,3
5,62,88,0
5,74,72,0
5,77,74,0
5,81,93,0
5,65,79,120
5,69,97,45
5,76,107,120
5,81,0,147
5,74,0,45
5,77,0,7
5,69,0,32
5,76,0,1
5,81,95,8
5,74,104,0
5,65,0,29
5,77,85,91
5,69,102,0
5,65,0,7
5,74,0,7
5,81,0,22
5,77,0,7
5,62,0,50
5,65,97,27
5,69,0,115
5,65,0,1
5,76,83,4
5,73,77,0
5,69,66,0
5,73,83,0
5,57,62,0
5,69,74,0
5,64,62,0
5,69,0,1785
5,73,0,8
5,64,0,94
5,57,0,9
5,73,0,6
5,69,0,3
5,76,0,7
6,57,63,912
6,69,92,0
6,71,92,59
6,64,75,0
6,69,0,19
6,71,0,90
6,76,83,11
6,76,0,99
6,64,0,448
6,57,0,79
6,68,92,6
6,71,91,63
6,68,0,28
6,76,72,92
6,71,0,24
6,76,0,87
6,67,105,609
6,71,81,56
6,67,0,18
6,71,0,102
