track,note,velocity,time
1,57,100,0
1,56,92,1536
1,55,73,44
1,54,73,24
1,53,67,76
1,52,73,8
1,50,73,112
1,40,77,16
1,57,100,324
1,56,92,1536
1,55,73,44
1,54,73,24
1,53,67,76
1,52,73,8
1,50,73,112
1,40,77,16
1,57,100,324
1,56,92,1536
1,55,73,44
1,50,73,24
1,53,67,76
1,52,73,8
1,50,73,112
1,40,77,16
1,54,94,324
1,53,73,16
1,52,81,0
1,50,61,26
1,49,94,220
1,49,81,58
1,42,85,4
1,47,92,22
1,47,73,64
1,40,79,34
1,57,100,262
1,56,92,1536
1,55,73,44
1,54,73,24
1,53,67,76
1,52,73,8
1,50,73,112
1,40,77,16
1,57,100,324
1,56,92,1536
1,55,73,44
1,50,73,24
1,53,67,76
1,52,73,8
1,50,73,112
1,40,77,16
1,54,94,324
1,53,73,16
1,52,81,0
1,50,61,26
1,49,94,220
1,49,81,58
1,42,85,4
1,47,92,22
1,47,73,64
1,40,79,34
1,45,90,262
1,57,90,2
1,45,79,192
1,57,87,164
1,45,87,176
1,57,87,1144
1,45,90,12
1,50,85,192
1,50,83,90
1,52,79,16
1,50,77,192
1,45,85,22
2,81,87,0
2,69,59,0
2,76,70,96
2,83,87,0
2,88,78,18
2,80,87,10
2,83,85,102
2,88,68,148
2,79,98,976
2,83,76,90
2,81,70,4
2,78,61,0
2,88,72,0
2,88,105,232
2,77,82,0
2,81,89,192
2,88,116,240
2,81,93,218
2,86,113,106
2,86,87,114
2,76,57,0
2,73,59,0
2,69,66,0
2,85,95,70
2,81,100,34
2,76,68,34
2,62,70,284
2,81,98,0
2,77,85,40
2,74,85,14
2,69,80,10
2,68,70,196
2,64,93,0
2,74,70,48
2,76,87,10
2,71,80,192
2,83,72,14
2,81,87,12474
2,69,59,0
2,76,70,96
2,83,87,0
2,88,78,18
2,80,87,10
2,83,85,102
2,88,68,148
2,79,98,976
2,83,76,90
2,81,70,4
2,78,61,0
2,88,72,0
2,88,105,232
2,77,82,0
2,81,89,192
2,88,116,240
2,81,93,218
2,86,113,106
2,86,87,114
2,76,57,0
2,73,59,0
2,69,66,0
2,85,95,70
2,81,100,34
2,76,68,34
2,62,70,284
2,81,98,0
2,77,85,40
2,74,85,14
2,69,80,10
2,68,70,196
2,64,93,0
2,74,70,48
2,76,87,10
2,71,80,192
2,83,72,14
2,66,58,186
2,73,63,0
2,69,62,0
2,54,52,0
2,61,66,418
2,66,66,12
2,73,82,0
2,69,87,0
2,65,57,28
2,53,61,0
2,69,72,0
2,65,55,44
2,73,66,0
2,69,57,0
2,65,53,480
2,73,61,0
2,69,68,0
2,76,85,134
2,73,63,192
2,69,70,14
2,81,100,126
2,76,61,318
2,74,68,148
2,62,55,0
2,69,72,192
2,76,91,128
2,78,89,110
2,81,87,58
2,62,56,94
2,67,57,130
2,71,80,0
2,76,85,0
2,67,57,36
2,71,72,44
2,79,98,192
2,76,85,64
2,71,57,24
2,67,58,70
2,54,55,72
2,64,49,0
2,70,53,0
2,73,60,0
2,61,62,56
2,73,89,134
2,70,78,54
2,69,72,32
2,59,70,0
2,66,76,192
2,74,70,192
2,78,91,150
2,52,80,332
2,59,80,192
2,64,74,192
2,66,70,192
2,64,74,90
2,81,87,12502
2,69,59,0
2,76,70,96
2,83,87,0
2,88,78,18
2,80,87,10
2,83,85,102
2,88,68,148
2,79,98,976
2,83,76,90
2,81,70,4
2,78,61,0
2,88,72,0
2,88,105,232
2,77,82,0
2,81,89,192
2,88,116,240
2,81,93,218
2,86,113,106
2,86,87,114
2,76,57,0
2,73,59,0
2,69,66,0
2,85,95,70
2,81,100,34
2,76,68,34
2,62,70,284
2,81,98,0
2,77,85,40
2,74,85,14
2,69,80,10
2,68,70,196
2,64,93,0
2,74,70,48
2,76,87,10
2,71,80,192
2,83,72,14
2,66,58,186
2,73,63,0
2,69,62,0
2,54,52,0
2,61,66,418
2,66,66,12
2,73,82,0
2,69,87,0
2,65,57,28
2,53,61,0
2,69,72,0
2,65,55,44
2,73,66,0
2,69,57,0
2,65,53,480
2,73,61,0
2,69,68,0
2,76,85,134
2,73,63,192
2,69,70,14
2,81,100,126
2,76,61,318
2,74,68,148
2,62,55,0
2,69,72,192
2,76,91,128
2,78,89,110
2,81,87,58
2,62,56,94
2,67,57,130
2,71,80,0
2,76,85,0
2,67,57,36
2,71,72,44
2,79,98,192
2,76,85,64
2,71,57,24
2,67,58,70
2,54,55,72
2,64,49,0
2,70,53,0
2,73,60,0
2,61,62,56
2,73,89,134
2,70,78,54
2,69,72,32
2,59,70,0
2,66,76,192
2,74,70,192
2,78,91,150
2,52,80,332
2,59,80,192
2,64,74,192
2,66,70,192
2,64,74,90
2,73,52,214
2,69,100,0
2,76,63,0
2,45,80,0
2,81,82,0
2,71,82,192
2,57,68,8
2,76,82,0
2,69,54,102
2,71,80,0
2,69,80,0
2,73,105,0
2,76,78,0
2,76,107,44
2,71,82,0
2,69,87,0
2,78,82,168
2,74,68,0
2,62,91,0
2,62,57,0
2,81,93,0
2,66,68,168
2,69,89,174
2,69,64,192
2,76,85,0
2,74,78,14
2,74,82,0
2,76,93,34
2,71,87,0
2,81,87,26
2,69,87,0
2,65,60,6
2,62,80,0
2,74,66,0
2,77,68,0
2,81,85,0
2,65,72,192
2,69,89,0
2,76,98,192
2,81,87,16
2,74,95,0
2,77,78,146
2,69,93,0
2,65,89,44
2,64,57,8
2,69,68,0
2,57,57,0
2,73,76,0
2,69,60,0
2,76,76,0
2,73,70,0
3,57,47,0
3,69,69,0
3,71,69,96
3,64,56,0
3,76,62,18
3,68,69,10
3,71,68,102
3,76,54,148
3,67,78,976
3,71,60,90
3,76,57,4
3,66,48,0
3,69,56,0
3,65,65,232
3,76,84,0
3,69,71,192
3,76,92,240
3,69,74,218
3,74,90,106
3,57,52,114
3,61,47,0
3,64,45,0
3,74,69,0
3,73,76,70
3,69,80,34
3,64,54,34
3,69,78,284
3,50,56,0
3,65,68,40
3,62,68,14
3,57,64,10
3,52,74,196
3,56,56,0
3,62,56,48
3,64,69,10
3,59,64,192
3,71,57,14
3,57,47,12474
3,69,69,0
3,71,69,96
3,64,56,0
3,76,62,18
3,68,69,10
3,71,68,102
3,76,54,148
3,67,78,976
3,71,60,90
3,76,57,4
3,66,48,0
3,69,56,0
3,65,65,232
3,76,84,0
3,69,71,192
3,76,92,240
3,69,74,218
3,74,90,106
3,57,52,114
3,61,47,0
3,64,45,0
3,74,69,0
3,73,76,70
3,69,80,34
3,64,54,34
3,69,78,284
3,50,56,0
3,65,68,40
3,62,68,14
3,57,64,10
3,52,74,196
3,56,56,0
3,62,56,48
3,64,69,10
3,59,64,192
3,71,57,14
3,57,47,24762
3,69,69,0
3,71,69,96
3,64,56,0
3,76,62,18
3,68,69,10
3,71,68,102
3,76,54,148
3,67,78,976
3,71,60,90
3,76,57,4
3,66,48,0
3,69,56,0
3,65,65,232
3,76,84,0
3,69,71,192
3,76,92,240
3,69,74,218
3,74,90,106
3,57,52,114
3,61,47,0
3,64,45,0
3,74,69,0
3,73,76,70
3,69,80,34
3,64,54,34
3,69,78,284
3,50,56,0
3,65,68,40
3,62,68,14
3,57,64,10
3,52,74,196
3,56,56,0
3,62,56,48
3,64,69,10
3,59,64,192
3,71,57,14
3,69,100,12474
3,71,82,192
3,76,82,40
3,71,80,168
3,69,80,164
3,76,78,166
3,71,82,0
3,69,87,192
3,62,91,168
3,66,68,178
3,69,89,192
3,76,85,192
3,74,82,384
3,71,87,6
3,69,87,26
3,62,80,8
3,65,72,192
3,69,89,192
3,76,98,192
3,74,95,16
3,69,93,192
3,65,89,44
3,69,68,8
3,73,76,0
4,57,95,0
4,45,80,0
4,59,68,80
4,52,89,0
4,64,74,0
4,57,82,46
4,59,68,60
4,52,58,0
4,64,72,8
4,59,68,28
4,57,85,20
4,45,72,0
4,56,66,20
4,52,64,0
4,44,59,0
4,59,66,4
4,64,87,44
4,52,60,86
4,56,82,0
4,59,60,80
4,64,70,88
4,52,59,80
4,59,76,0
4,56,59,56
4,47,70,72
4,52,66,0
4,55,70,0
4,59,72,60
4,64,74,52
4,52,64,52
4,55,68,0
4,59,58,34
4,64,72,64
4,59,70,40
4,52,62,0
4,55,56,2
4,50,68,72
4,57,85,0
4,54,62,0
4,59,53,8
4,64,85,40
4,57,64,96
4,50,80,0
4,59,64,96
4,64,70,74
4,59,60,84
4,57,72,110
4,50,42,60
4,53,47,0
4,57,64,0
4,64,76,0
4,62,54,16
4,57,78,48
4,62,70,42
4,53,66,0
4,57,72,16
4,64,89,48
4,62,68,52
4,57,62,64
4,57,70,64
4,64,87,0
4,45,70,0
4,52,60,192
4,61,62,0
4,57,80,40
4,64,89,94
4,61,68,80
4,52,62,68
4,57,72,0
4,61,68,48
4,64,72,40
4,50,42,80
4,53,47,0
4,57,64,0
4,64,76,0
4,62,54,16
4,57,78,48
4,65,78,42
4,62,70,0
4,53,66,0
4,57,72,16
4,64,89,48
4,62,68,52
4,57,62,64
4,40,78,64
4,52,85,192
4,47,68,0
4,57,80,192
4,59,70,22
4,59,59,2
4,56,57,0
4,64,70,0
4,40,19,0
4,57,95,136
4,45,80,0
4,59,68,80
4,52,89,0
4,64,74,0
4,57,82,46
4,59,68,60
4,52,58,0
4,64,72,8
4,59,68,28
4,57,85,20
4,45,72,0
4,56,66,20
4,52,64,0
4,44,59,0
4,59,66,4
4,64,87,44
4,52,60,86
4,56,82,0
4,59,60,80
4,64,70,88
4,52,59,80
4,59,76,0
4,56,59,56
4,47,70,72
4,52,66,0
4,55,70,0
4,59,72,60
4,64,74,52
4,52,64,52
4,55,68,0
4,59,58,34
4,64,72,64
4,59,70,40
4,52,62,0
4,55,56,2
4,50,68,72
4,57,85,0
4,54,62,0
4,59,53,8
4,64,85,40
4,57,64,96
4,50,80,0
4,59,64,96
4,64,70,74
4,59,60,84
4,57,72,110
4,50,42,60
4,53,47,0
4,57,64,0
4,64,76,0
4,62,54,16
4,57,78,48
4,62,70,42
4,53,66,0
4,57,72,16
4,64,89,48
4,62,68,52
4,57,62,64
4,57,70,64
4,64,87,0
4,45,70,0
4,52,60,192
4,61,62,0
4,57,80,40
4,64,89,94
4,61,68,80
4,52,62,68
4,57,72,0
4,61,68,48
4,64,72,40
4,50,42,80
4,53,47,0
4,57,64,0
4,64,76,0
4,62,54,16
4,57,78,48
4,65,78,42
4,62,70,0
4,53,66,0
4,57,72,16
4,64,89,48
4,62,68,52
4,57,62,64
4,40,78,64
4,52,85,192
4,47,68,0
4,57,80,192
4,59,70,22
4,59,59,2
4,56,57,0
4,64,70,0
4,40,19,0
4,57,95,136
4,45,80,0
4,59,68,80
4,52,89,0
4,64,74,0
4,57,82,46
4,59,68,60
4,52,58,0
4,64,72,8
4,59,68,28
4,57,85,20
4,45,72,0
4,56,66,20
4,52,64,0
4,44,59,0
4,59,66,4
4,64,87,44
4,52,60,86
4,56,82,0
4,59,60,80
4,64,70,88
4,52,59,80
4,59,76,0
4,56,59,56
4,47,70,72
4,52,66,0
4,55,70,0
4,59,72,60
4,64,74,52
4,52,64,52
4,55,68,0
4,59,58,34
4,64,72,64
4,59,70,40
4,52,62,0
4,55,56,2
4,50,68,72
4,57,85,0
4,54,62,0
4,59,53,8
4,64,85,40
4,57,64,96
4,50,80,0
4,59,64,96
4,64,70,74
4,59,60,84
4,57,72,110
4,50,42,60
4,53,47,0
4,57,64,0
4,64,76,0
4,62,54,16
4,57,78,48
4,62,70,42
4,53,66,0
4,57,72,16
4,64,89,48
4,62,68,52
4,57,62,64
4,57,70,64
4,64,87,0
4,45,70,0
4,52,60,192
4,61,62,0
4,57,80,40
4,64,89,94
4,61,68,80
4,52,62,68
4,57,72,0
4,61,68,48
4,64,72,40
4,50,42,80
4,53,47,0
4,57,64,0
4,64,76,0
4,62,54,16
4,57,78,48
4,65,78,42
4,62,70,0
4,53,66,0
4,57,72,16
4,64,89,48
4,62,68,52
4,57,62,64
4,40,78,64
4,52,85,192
4,47,68,0
4,57,80,192
4,59,70,22
4,59,59,2
4,56,57,0
4,64,70,0
4,40,19,0
4,54,78,136
4,57,72,0
4,61,59,48
4,66,82,28
4,54,68,72
4,69,74,192
4,54,60,114
4,57,64,192
4,61,52,192
4,57,60,24
4,53,58,0
4,65,70,0
4,61,57,192
4,57,70,36
4,65,95,78
4,53,60,4
4,61,66,192
4,57,70,40
4,57,59,178
4,52,68,0
4,64,64,0
4,59,47,14
4,57,72,74
4,64,80,82
4,52,60,160
4,59,68,116
4,57,72,24
4,52,60,10
4,61,70,32
4,50,68,0
4,57,70,192
4,62,82,8
4,66,95,22
4,62,70,176
4,50,17,94
4,61,66,24
4,57,59,24
4,54,64,192
4,49,70,34
4,55,52,0
4,64,64,0
4,59,72,0
4,52,60,8
4,55,64,120
4,59,87,42
4,64,66,40
4,59,60,192
4,52,62,184
4,55,58,144
4,58,53,58
4,61,66,0
4,66,72,0
4,52,68,0
4,58,60,10
4,52,50,152
4,61,59,100
4,66,72,36
4,61,76,38
4,58,72,192
4,47,46,104
4,57,52,0
4,62,60,0
4,66,61,0
4,54,68,10
4,59,60,90
4,62,70,0
4,47,55,138
4,54,72,18
4,66,64,192
4,40,78,64
4,47,72,30
4,52,66,192
4,56,57,192
4,62,57,6
4,57,95,184
4,45,80,0
4,59,68,80
4,52,89,0
4,64,74,0
4,57,82,46
4,59,68,60
4,52,58,0
4,64,72,8
4,59,68,28
4,57,85,20
4,45,72,0
4,56,66,20
4,52,64,0
4,44,59,0
4,59,66,4
4,64,87,44
4,52,60,86
4,56,82,0
4,59,60,80
4,64,70,88
4,52,59,80
4,59,76,0
4,56,59,56
4,47,70,72
4,52,66,0
4,55,70,0
4,59,72,60
4,64,74,52
4,52,64,52
4,55,68,0
4,59,58,34
4,64,72,64
4,59,70,40
4,52,62,0
4,55,56,2
4,50,68,72
4,57,85,0
4,54,62,0
4,59,53,8
4,64,85,40
4,57,64,96
4,50,80,0
4,59,64,96
4,64,70,74
4,59,60,84
4,57,72,110
4,50,42,60
4,53,47,0
4,57,64,0
4,64,76,0
4,62,54,16
4,57,78,48
4,62,70,42
4,53,66,0
4,57,72,16
4,64,89,48
4,62,68,52
4,57,62,64
4,57,70,64
4,64,87,0
4,45,70,0
4,52,60,192
4,61,62,0
4,57,80,40
4,64,89,94
4,61,68,80
4,52,62,68
4,57,72,0
4,61,68,48
4,64,72,40
4,50,42,80
4,53,47,0
4,57,64,0
4,64,76,0
4,62,54,16
4,57,78,48
4,65,78,42
4,62,70,0
4,53,66,0
4,57,72,16
4,64,89,48
4,62,68,52
4,57,62,64
4,40,78,64
4,52,85,192
4,47,68,0
4,57,80,192
4,59,70,22
4,59,59,2
4,56,57,0
4,64,70,0
4,40,19,0
4,57,95,136
4,45,80,0
4,59,68,80
4,52,89,0
4,64,74,0
4,57,82,46
4,59,68,60
4,52,58,0
4,64,72,8
4,59,68,28
4,57,85,20
4,45,72,0
4,56,66,20
4,52,64,0
4,44,59,0
4,59,66,4
4,64,87,44
4,52,60,86
4,56,82,0
4,59,60,80
4,64,70,88
4,52,59,80
4,59,76,0
4,56,59,56
4,47,70,72
4,52,66,0
4,55,70,0
4,59,72,60
4,64,74,52
4,52,64,52
4,55,68,0
4,59,58,34
4,64,72,64
4,59,70,40
4,52,62,0
4,55,56,2
4,50,68,72
4,57,85,0
4,54,62,0
4,59,53,8
4,64,85,40
4,57,64,96
4,50,80,0
4,59,64,96
4,64,70,74
4,59,60,84
4,57,72,110
4,50,42,60
4,53,47,0
4,57,64,0
4,64,76,0
4,62,54,16
4,57,78,48
4,62,70,42
4,53,66,0
4,57,72,16
4,64,89,48
4,62,68,52
4,57,62,64
4,57,70,64
4,64,87,0
4,45,70,0
4,52,60,192
4,61,62,0
4,57,80,40
4,64,89,94
4,61,68,80
4,52,62,68
4,57,72,0
4,61,68,48
4,64,72,40
4,50,42,80
4,53,47,0
4,57,64,0
4,64,76,0
