track,note,velocity,time
6,64,59,738
6,69,58,0
6,73,61,0
6,57,50,0
6,64,0,108
6,73,0,5
6,69,0,2
6,64,58,5
6,73,55,0
6,69,62,0
6,57,0,43
6,57,45,17
6,64,0,38
6,57,0,6
6,73,0,2
6,69,0,2
6,64,68,12
6,57,59,0
6,74,68,0
6,73,62,30
6,74,0,7
6,69,66,23
6,64,0,25
6,64,55,5
6,71,51,30
6,73,0,9
6,73,51,21
6,71,0,7
6,69,0,7
6,69,63,16
6,64,0,15
6,64,50,15
6,57,0,4
6,69,0,19
6,64,0,0
6,73,0,3
6,69,58,4
6,73,61,0
6,64,59,0
6,57,50,0
6,64,0,108
6,73,0,5
6,69,0,2
6,64,58,5
6,73,55,0
6,69,62,0
6,57,0,43
6,57,45,17
6,64,0,38
6,57,0,6
6,73,0,2
6,69,0,2
6,64,68,12
6,57,59,0
6,74,68,0
6,73,62,30
6,74,0,7
6,69,66,23
6,64,0,25
6,64,55,5
6,64,0,30
6,71,51,0
6,64,37,0
6,73,0,9
6,73,51,21
6,71,0,7
6,69,0,7
6,69,63,16
6,64,0,15
6,64,50,15
6,57,0,4
6,69,0,19
6,73,0,3
6,64,0,0
6,57,50,4
6,69,58,0
6,73,61,0
6,64,59,1
6,64,0,108
6,73,0,4
6,69,0,2
6,64,58,5
6,73,55,0
6,69,62,0
6,57,0,47
6,57,45,13
6,57,0,34
6,73,0,10
6,64,0,3
6,69,0,0
6,64,58,16
6,69,62,0
6,73,55,0
6,56,50,0
6,73,0,104
6,64,0,3
6,69,0,0
6,64,62,10
6,69,62,3
6,73,55,0
6,56,0,47
6,56,45,10
6,56,0,34
6,73,0,13
6,64,0,0
6,69,0,3
6,54,50,10
6,69,58,0
6,73,61,0
6,64,59,1
6,64,0,108
6,73,0,4
6,69,0,2
6,64,58,5
6,73,55,0
6,69,62,0
6,54,0,47
6,54,45,13
6,54,0,34
6,73,0,10
6,64,0,3
6,69,0,0
6,64,58,16
6,69,62,0
6,73,55,0
6,52,45,0
6,73,0,104
6,64,0,3
6,69,0,0
6,64,62,10
6,69,62,3
6,73,55,0
6,52,0,47
6,52,45,10
6,52,0,34
6,73,0,13
6,64,0,0
6,69,0,3
6,50,50,10
6,69,58,0
6,74,61,0
6,66,59,1
6,66,0,108
6,74,0,4
6,69,0,2
6,66,58,5
6,74,55,0
6,69,62,0
6,50,0,47
6,50,45,13
6,50,0,34
6,74,0,10
6,66,0,3
6,69,0,0
6,65,58,16
6,69,62,0
6,74,55,0
6,53,50,0
6,74,0,104
6,65,0,3
6,69,0,0
6,65,62,10
6,69,62,3
6,74,55,0
6,53,0,47
6,53,45,10
6,53,0,34
6,74,0,13
6,65,0,0
6,69,0,3
6,52,50,10
6,69,58,0
6,73,61,0
6,64,59,1
6,64,0,108
6,73,0,4
6,69,0,2
6,64,58,5
6,73,55,0
6,69,62,0
6,52,0,47
6,52,45,13
6,52,0,34
6,73,0,10
6,64,0,3
6,69,0,0
6,64,58,16
6,68,62,0
6,71,55,0
6,52,50,0
6,71,0,104
6,64,0,3
6,68,0,0
6,64,62,10
6,68,62,3
6,71,55,0
6,52,0,47
6,52,45,10
6,52,0,34
6,71,0,13
6,64,0,0
6,68,0,3
6,57,50,10
6,69,58,0
6,73,61,0
6,64,59,1
6,64,0,108
6,73,0,4
6,69,0,2
6,64,58,5
6,73,55,0
6,69,62,0
6,57,0,47
6,57,45,13
6,57,0,34
6,73,0,10
6,64,0,3
6,69,0,0
6,64,58,16
6,69,62,0
6,73,55,0
6,56,50,0
6,73,0,104
6,64,0,3
6,69,0,0
6,64,62,10
6,69,62,3
6,73,55,0
6,56,0,47
6,56,45,10
6,56,0,34
6,73,0,13
6,64,0,0
6,69,0,3
6,54,50,10
6,69,58,0
6,73,61,0
6,64,59,1
6,64,0,108
6,73,0,4
6,69,0,2
6,64,58,5
6,73,55,0
6,69,62,0
6,54,0,47
6,54,45,13
6,54,0,34
6,73,0,10
6,64,0,3
6,69,0,0
6,64,58,16
6,69,62,0
6,73,55,0
6,52,45,0
6,73,0,104
6,64,0,3
6,69,0,0
6,64,62,10
6,69,62,3
6,73,55,0
6,52,0,47
6,52,45,10
6,52,0,34
6,73,0,13
6,64,0,0
6,69,0,3
6,50,50,10
6,69,58,0
6,74,61,0
6,66,59,1
6,66,0,108
6,74,0,4
6,69,0,2
6,66,58,5
6,74,55,0
6,69,62,0
6,50,0,47
6,50,45,13
6,50,0,34
6,74,0,10
6,66,0,3
6,69,0,0
6,65,58,16
6,69,62,0
6,74,55,0
6,53,50,0
6,74,0,104
6,65,0,3
6,69,0,0
6,65,62,10
6,69,62,3
6,74,55,0
6,53,0,47
6,53,45,10
6,53,0,34
6,74,0,13
6,65,0,0
6,69,0,3
6,69,58,10
6,73,61,0
6,52,50,0
6,64,59,1
6,64,0,108
6,73,0,4
6,69,0,2
6,64,58,5
6,73,55,0
6,69,62,0
6,52,0,47
6,52,45,13
6,52,0,34
6,73,0,10
6,64,0,3
6,69,0,0
6,64,58,16
6,68,62,0
6,71,55,0
6,52,50,0
6,71,0,104
6,64,0,3
6,68,0,0
6,64,62,10
6,68,62,3
6,71,55,0
6,52,0,8
6,68,0,38
6,52,45,11
6,68,48,0
6,52,0,34
6,71,0,13
6,64,0,0
6,68,0,5
6,66,64,8
6,74,64,0
6,71,64,0
6,59,44,2
6,71,0,54
6,71,47,4
6,66,0,42
6,59,0,8
6,74,0,3
6,71,0,3
6,71,70,4
6,66,70,0
6,74,70,0
6,59,43,1
6,66,0,51
6,71,0,0
6,74,0,3
6,59,0,0
6,59,43,3
6,66,56,2
6,71,56,0
6,74,56,0
6,66,0,28
6,66,50,2
6,74,0,22
6,71,0,3
6,66,0,3
6,57,41,1
6,66,70,1
6,74,70,0
6,69,70,0
6,59,0,2
6,74,0,51
6,69,0,0
6,69,49,7
6,74,49,3
6,66,0,28
6,69,0,16
6,57,0,5
6,74,0,4
6,57,42,3
6,69,67,1
6,66,67,0
6,74,67,0
6,57,0,52
6,74,0,1
6,69,0,3
6,74,55,4
6,69,55,0
6,57,42,2
6,74,0,20
6,69,0,3
6,66,0,3
6,74,47,2
6,69,47,0
6,66,47,0
6,66,0,16
6,69,0,10
6,56,37,3
6,74,0,1
6,68,68,0
6,76,68,0
6,71,68,0
6,57,0,2
6,71,0,54
6,71,42,4
6,68,0,51
6,56,0,1
6,76,0,1
6,71,0,0
6,68,56,7
6,71,58,0
6,76,65,0
6,56,39,1
6,76,0,55
6,76,47,4
6,71,0,25
6,71,57,5
6,68,0,17
6,56,0,7
6,52,38,5
6,69,51,1
6,52,0,49
6,69,0,4
6,76,0,3
6,71,0,0
6,52,38,2
6,71,62,2
6,76,58,0
6,69,64,0
6,52,0,49
6,69,0,4
6,76,0,0
6,71,0,3
6,71,61,4
6,76,59,0
6,69,53,0
6,52,39,5
6,69,0,48
6,71,0,3
6,76,0,0
6,76,56,4
6,71,56,0
6,69,56,0
6,57,39,0
6,52,0,2
6,76,0,15
6,71,0,1
6,69,0,7
6,76,51,5
6,69,51,0
6,71,51,0
6,57,0,25
6,71,0,1
6,76,0,4
6,66,64,0
6,74,64,0
6,71,64,0
6,54,39,2
6,69,0,1
6,71,0,53
6,71,47,4
6,66,0,42
6,74,0,11
6,54,0,2
6,71,0,1
6,71,70,4
6,66,70,0
6,74,70,0
6,59,35,2
6,66,0,50
6,71,0,0
6,74,0,3
6,59,0,3
6,66,56,2
6,71,56,0
6,74,56,0
6,59,39,2
6,66,0,26
6,66,50,2
6,74,0,22
6,71,0,3
6,66,0,3
6,66,70,2
6,74,70,0
6,69,70,0
6,59,0,2
6,57,39,0
6,69,0,51
6,74,0,0
6,69,49,7
6,74,49,3
6,66,0,28
6,69,0,16
6,57,0,8
6,74,0,1
6,69,67,4
6,66,67,0
6,74,67,0
6,57,39,2
6,74,0,51
6,69,0,3
6,57,0,2
6,74,55,2
6,69,55,0
6,57,39,2
6,74,0,20
6,69,0,3
6,66,0,3
6,74,47,2
6,69,47,0
6,66,47,0
6,66,0,16
6,69,0,10
6,57,0,2
6,59,39,1
6,74,0,1
6,68,68,0
6,76,68,0
6,71,68,0
6,59,0,55
6,71,0,1
6,71,42,4
6,59,35,2
6,68,0,49
6,76,0,2
6,71,0,0
6,59,0,5
6,68,56,2
6,71,58,0
6,76,65,0
6,56,39,2
6,76,0,54
6,76,47,4
6,52,39,2
6,56,0,22
6,71,0,1
6,71,57,5
6,68,0,17
6,76,0,6
6,52,0,2
6,69,51,5
6,57,34,2
6,74,47,1
6,66,62,0
6,71,0,9
6,69,0,41
6,66,0,0
6,74,0,3
6,66,62,4
6,74,58,0
6,69,64,0
6,66,0,50
6,69,0,3
6,74,0,0
6,57,0,2
6,66,61,5
6,74,59,0
6,69,53,0
6,57,39,2
6,69,0,51
6,66,0,3
6,74,0,0
6,74,56,4
6,66,56,0
6,69,56,0
6,66,0,18
6,69,0,7
6,69,51,5
6,66,51,0
6,69,0,20
6,57,0,5
6,74,0,1
6,66,0,0
6,64,64,4
6,73,64,0
6,69,64,0
6,52,39,2
6,69,0,54
6,69,47,4
6,64,0,42
6,73,0,11
6,52,0,2
6,69,0,1
6,69,70,4
6,64,70,0
6,73,70,0
6,57,35,2
6,64,0,50
6,69,0,0
6,73,0,3
6,57,0,3
6,64,56,2
6,69,56,0
6,73,56,0
6,57,39,2
6,64,0,26
6,64,50,2
6,73,0,22
6,69,0,3
6,64,0,3
6,66,70,2
6,74,70,0
6,71,70,0
6,57,0,2
6,54,39,0
6,71,0,51
6,74,0,0
6,71,49,7
6,74,49,3
6,66,0,28
6,71,0,16
6,54,0,8
6,74,0,1
6,71,67,4
6,66,67,0
6,74,67,0
6,59,39,2
6,74,0,51
6,71,0,3
6,59,0,2
6,74,55,2
6,71,55,0
6,59,39,2
6,74,0,20
6,71,0,3
6,66,0,3
6,74,47,2
6,71,47,0
6,66,47,0
6,66,0,26
6,71,0,0
6,59,0,2
6,59,39,1
6,74,0,1
6,68,68,0
6,76,68,0
6,71,68,0
6,59,0,55
6,71,0,1
6,71,42,4
6,59,35,2
6,68,0,49
6,76,0,2
6,71,0,0
6,59,0,5
6,68,56,2
6,71,58,0
6,76,65,0
6,56,39,2
6,76,0,54
6,76,47,4
6,52,39,2
6,56,0,22
6,71,0,1
6,71,57,5
6,68,0,17
6,76,0,6
6,52,0,2
6,69,51,5
6,57,34,2
6,74,47,1
6,66,62,0
6,71,0,9
6,69,0,41
6,66,0,0
6,74,0,3
6,66,62,4
6,74,58,0
6,69,64,0
6,66,0,50
6,69,0,3
6,74,0,0
6,57,0,2
6,66,61,5
6,74,59,0
6,69,53,0
6,57,39,2
6,69,0,51
6,66,0,3
6,74,0,0
6,74,56,4
6,66,56,0
6,69,56,0
6,66,0,18
6,69,0,7
6,69,51,5
6,66,51,0
6,69,0,23
6,57,0,2
6,74,0,1
6,66,0,0
6,64,64,4
6,73,64,0
6,69,64,0
6,52,39,2
6,69,0,54
6,69,47,4
6,64,0,42
6,73,0,11
6,52,0,2
6,69,0,1
6,69,70,4
6,64,70,0
6,73,70,0
6,57,35,2
6,64,0,50
6,69,0,0
6,73,0,3
6,57,0,3
6,64,56,2
6,69,56,0
6,73,56,0
6,57,39,2
6,64,0,26
6,64,50,2
6,73,0,22
6,69,0,3
6,64,0,3
6,66,70,2
6,74,70,0
6,71,70,0
6,57,0,2
6,54,39,0
6,71,0,51
6,74,0,0
6,71,49,7
6,74,49,3
6,66,0,28
6,71,0,16
6,54,0,8
6,74,0,1
6,71,67,4
6,66,67,0
6,74,67,0
6,59,39,2
6,74,0,51
6,71,0,3
6,59,0,2
6,74,55,2
6,71,55,0
6,59,39,2
6,74,0,20
6,71,0,3
6,66,0,3
6,74,47,2
6,71,47,0
6,66,47,0
6,66,0,26
6,71,0,0
6,59,0,2
6,59,39,1
6,74,0,1
6,68,68,0
6,76,68,0
6,71,68,0
6,59,0,55
6,71,0,1
6,71,42,4
6,59,35,2
6,68,0,49
6,76,0,2
6,71,0,0
6,59,0,5
6,68,56,2
6,71,58,0
6,76,65,0
6,56,39,2
6,76,0,54
6,76,47,4
6,52,39,2
6,56,0,22
6,71,0,1
6,71,57,5
6,68,0,17
6,76,0,6
6,52,0,2
6,69,51,5
6,57,34,2
6,74,47,1
6,66,62,0
6,71,0,9
6,69,0,41
6,66,0,0
6,74,0,3
6,66,62,4
6,74,58,0
6,69,64,0
6,66,0,50
6,69,0,3
6,74,0,0
6,57,0,2
6,66,61,5
6,74,59,0
6,69,53,0
6,57,39,2
6,69,0,51
6,66,0,3
6,74,0,0
6,74,56,4
6,66,56,0
6,69,56,0
6,66,0,18
6,69,0,7
6,69,51,5
6,66,51,0
6,69,0,23
6,57,0,2
6,74,0,1
6,66,0,0
6,64,64,4
6,73,64,0
6,69,64,0
6,52,39,2
6,69,0,54
6,69,47,4
6,64,0,42
6,73,0,11
6,52,0,2
6,69,0,1
6,69,70,4
6,64,70,0
6,73,70,0
6,57,35,2
6,64,0,50
6,69,0,0
6,73,0,3
6,57,0,3
6,64,56,2
6,69,56,0
6,73,56,0
6,57,39,2
6,64,0,26
6,64,50,2
6,73,0,22
6,69,0,3
6,64,0,3
6,66,70,2
6,74,70,0
6,71,70,0
6,57,0,2
6,54,39,0
6,71,0,51
6,74,0,0
6,71,49,7
6,74,49,3
6,66,0,28
6,71,0,16
6,54,0,8
6,74,0,1
6,71,67,4
6,66,67,0
6,74,67,0
6,59,39,2
6,74,0,51
6,71,0,3
6,59,0,2
6,74,55,2
6,71,55,0
6,59,39,2
6,74,0,20
6,71,0,3
6,66,0,3
6,74,47,2
6,71,47,0
6,66,47,0
6,66,0,26
6,71,0,0
6,59,0,2
6,59,39,1
6,74,0,1
6,68,68,0
6,76,68,0
6,71,68,0
6,59,0,55
6,71,0,1
6,71,42,4
6,59,35,2
6,68,0,49
6,76,0,2
6,71,0,0
6,59,0,5
6,68,56,2
6,71,58,0
6,76,65,0
6,56,39,2
6,56,0,51
6,76,0,3
6,76,47,4
6,52,39,2
6,71,0,23
6,71,57,5
6,68,0,17
6,76,0,6
6,52,0,2
6,71,0,5
6,71,51,0
6,59,34,2
6,76,47,1
6,68,62,0
6,68,0,50
6,71,0,0
6,76,0,3
6,68,62,4
6,76,58,0
6,71,64,0
6,68,0,50
6,71,0,3
6,76,0,0
6,59,0,2
6,68,61,5
6,76,59,0
6,71,53,0
6,59,39,2
6,71,0,51
6,68,0,3
6,76,0,0
6,76,56,4
6,68,56,0
6,71,56,0
6,68,0,18
6,68,42,12
6,59,0,25
6,71,0,1
6,76,0,0
6,68,0,0
6,66,57,4
6,69,57,0
6,74,57,2
6,66,0,103
6,69,0,3
6,74,0,4
6,69,50,9
6,74,50,1
6,66,50,0
6,66,0,50
6,74,0,0
6,69,0,2
6,69,38,7
6,74,38,0
6,66,38,1
6,69,0,46
6,66,0,1
6,74,0,5
6,74,47,6
6,66,50,1
6,69,47,0
6,66,0,101
6,69,0,1
6,74,0,3
6,69,49,15
6,66,49,1
6,74,49,0
6,74,0,44
6,69,0,8
6,66,0,6
6,74,41,2
6,66,41,1
6,69,41,1
6,66,0,42
6,74,0,3
6,69,0,7
6,57,33,4
6,64,36,2
6,73,57,1
6,76,46,1
6,69,46,0
6,64,0,184
6,57,0,10
6,69,0,2
6,73,0,6
6,76,0,0
6,74,68,34
6,57,33,2
6,64,46,1
6,73,62,27
6,74,0,7
6,69,66,23
6,64,0,28
6,64,55,2
6,71,51,30
6,73,0,9
6,73,51,21
6,71,0,7
6,69,0,7
6,69,63,16
6,64,0,15
6,64,50,15
6,57,0,6
6,69,0,17
6,64,0,0
6,73,0,3
6,69,58,4
6,73,61,0
6,57,50,0
6,64,59,1
6,64,0,108
6,73,0,4
6,69,0,2
6,64,58,5
6,73,55,0
6,69,62,0
6,57,0,47
6,57,45,13
6,57,0,34
6,73,0,10
6,64,0,3
6,69,0,0
