track,note,velocity,time
1,73,54,1136
1,69,61,0
1,64,57,0
1,57,58,0
1,73,54,44
1,69,68,0
1,57,60,60
1,74,77,48
1,57,56,0
1,73,58,84
1,71,68,80
1,64,57,0
1,71,71,92
1,73,64,100
1,71,64,76
1,64,66,56
1,73,61,92
1,69,69,0
1,57,62,0
1,73,53,32
1,69,65,4
1,57,58,80
1,74,77,32
1,57,62,0
1,73,53,84
1,71,64,80
1,64,56,8
1,71,73,96
1,73,67,96
1,71,66,56
1,64,47,76
1,57,59,4
1,69,58,0
1,64,58,0
1,73,43,0
1,64,61,36
1,69,64,0
1,73,53,0
1,57,59,84
1,64,60,32
1,68,58,0
1,73,49,0
1,56,54,0
1,68,54,44
1,64,58,0
1,73,43,0
1,56,58,128
1,69,70,4
1,66,53,0
1,54,52,4
1,73,47,0
1,66,53,60
1,73,48,0
1,69,67,4
1,54,60,184
1,73,66,8
1,64,59,4
1,52,66,0
1,73,47,60
1,64,55,0
1,69,66,0
1,52,63,152
1,74,66,56
1,69,53,0
1,66,59,0
1,50,62,0
1,69,49,44
1,66,45,0
1,74,64,0
1,54,53,160
1,69,55,12
1,65,56,0
1,74,62,0
1,53,70,0
1,74,66,28
1,65,63,0
1,69,64,0
1,53,65,160
1,52,65,16
1,69,51,0
1,64,63,0
1,73,52,0
1,73,67,44
1,64,60,4
1,69,57,0
1,52,58,100
1,71,68,40
1,64,51,0
1,69,57,4
1,52,60,4
1,71,61,32
1,68,58,0
1,64,60,0
1,52,70,100
1,57,60,4
1,64,57,0
1,73,54,0
1,69,65,0
1,64,57,28
1,73,58,0
1,69,68,0
1,57,61,92
1,64,59,16
1,68,54,0
1,73,54,0
1,56,57,0
1,64,39,32
1,68,58,4
1,73,57,0
1,56,61,80
1,66,53,40
1,73,41,0
1,69,70,4
1,54,54,0
1,66,48,64
1,73,54,0
1,69,56,8
1,54,59,68
1,64,65,28
1,73,44,0
1,69,70,0
1,52,68,4
1,73,51,52
1,64,59,4
1,69,68,0
1,52,68,92
1,74,42,20
1,69,60,0
1,66,58,0
1,50,60,0
1,74,62,48
1,66,56,0
1,69,65,0
1,54,69,68
1,69,56,0
1,65,64,0
1,53,77,0
1,74,64,0
1,65,56,28
1,69,64,0
1,74,61,0
1,53,65,72
1,52,65,20
1,73,58,0
1,69,35,0
1,64,70,0
1,73,63,52
1,64,66,0
1,69,64,4
1,52,55,76
1,71,73,36
1,64,66,0
1,69,60,0
1,52,67,4
1,64,58,48
1,71,70,0
1,68,54,0
1,73,52,16960
1,69,58,0
1,64,55,0
1,57,46,4
1,73,60,148
1,69,62,0
1,64,54,0
1,74,94,76
1,73,61,44
1,69,68,36
1,64,68,0
1,71,72,100
1,73,67,8
1,71,63,80
1,64,60,4
1,57,61,92
1,69,65,0
1,73,47,4
1,64,68,0
1,73,49,0
1,69,65,0
1,57,68,140
1,68,39,0
1,73,50,0
1,56,60,0
1,64,52,4
1,68,70,148
1,73,65,0
1,64,71,0
1,56,67,52
1,54,54,4
1,66,53,0
1,73,38,0
1,66,56,152
1,73,49,0
1,69,64,0
1,54,61,40
1,52,67,32
1,69,62,0
1,73,42,0
1,64,51,0
1,73,51,144
1,69,65,0
1,64,51,0
1,52,69,36
1,50,66,4
1,66,45,4
1,69,66,0
1,74,65,0
1,66,74,76
1,74,78,0
1,54,58,48
1,53,66,48
1,74,61,4
1,65,57,0
1,69,66,0
1,69,73,84
1,65,69,0
1,74,67,0
1,53,68,40
1,64,60,0
1,73,40,0
1,69,60,4
1,52,66,0
1,73,68,148
1,69,79,0
1,64,65,0
1,52,59,48
1,64,67,36
1,71,68,0
1,69,68,0
1,52,68,0
1,71,71,120
1,64,61,0
1,68,67,4
1,52,65,48
1,57,51,4
1,73,51,4
1,69,57,0
1,64,46,4
1,69,73,136
1,73,55,0
1,64,62,0
1,57,62,64
1,56,60,4
1,73,52,12
1,68,58,0
1,64,58,0
1,73,66,124
1,68,73,0
1,64,70,0
1,56,67,56
1,54,59,144
1,66,55,4
1,69,64,0
1,73,49,0
1,73,54,148
1,66,54,4
1,69,64,0
1,54,63,28
1,66,53,8
1,69,61,0
1,73,45,0
1,54,61,0
1,66,79,172
1,73,73,0
1,69,80,0
1,54,62,0
1,55,67,8
1,74,65,4
1,71,64,0
1,67,60,0
1,74,73,108
1,71,72,0
1,67,73,4
1,55,70,0
1,50,70,20
1,69,65,4
1,74,67,0
1,66,57,0
1,69,59,4
1,66,62,4
1,74,60,0
1,73,56,12
1,69,66,0
1,57,62,4
1,64,61,0
1,73,67,24
1,64,63,0
1,69,80,8
1,74,81,24
1,73,57,92
1,71,70,72
1,64,64,72
1,71,76,4
1,73,71,92
1,71,66,68
1,64,62,96
1,69,53,18432
1,66,34,0
1,73,36,0
1,66,52,52
1,73,46,0
1,69,70,0
1,73,56,32
1,66,56,0
1,69,74,8
1,66,45,56
1,73,39,0
1,69,62,0
1,64,52,64
1,73,48,4
1,69,55,0
1,73,36,36
1,64,46,0
1,69,64,0
1,73,39,44
1,64,53,0
1,69,68,0
1,64,57,44
1,73,33,0
1,69,61,0
1,73,48,60
1,66,43,0
1,69,60,4
1,62,46,0
1,73,50,44
1,69,59,4
1,66,56,0
1,62,44,0
1,62,41,56
1,66,56,0
1,73,36,0
1,69,60,4
1,66,56,40
1,69,62,0
1,73,53,0
1,62,52,0
1,66,54,44
1,73,42,0
1,69,65,0
1,62,47,4
1,69,57,28
1,73,45,0
1,66,56,4
1,62,49,0
1,73,42,32
1,69,59,0
1,66,48,0
1,62,39,0
1,61,54,32
1,66,52,8
1,73,51,4
1,69,68,0
1,66,45,8
1,71,68,0
1,62,61,0
1,71,65,44
1,66,61,0
1,62,52,0
1,71,60,20
1,66,56,4
1,62,43,0
1,71,73,32
1,66,64,0
1,62,57,0
1,66,54,28
1,62,53,0
1,69,66,0
1,62,55,44
1,66,61,0
1,69,65,0
1,62,52,28
1,69,59,4
1,66,56,0
1,69,62,36
1,62,56,0
1,66,64,0
1,62,48,28
1,71,65,0
1,66,58,0
1,71,59,28
1,62,56,0
1,66,62,4
1,71,58,28
1,66,70,0
1,62,66,0
1,66,73,40
1,62,69,4
1,71,80,0
1,68,62,20
1,71,65,4
1,64,73,0
1,68,65,24
1,64,84,0
1,71,73,0
1,62,66,28
1,66,62,0
1,69,66,0
1,66,52,32
1,62,52,0
1,69,50,4
2,52,81,3992
2,45,74,0
2,44,81,764
2,42,84,764
2,40,78,760
2,38,85,764
2,38,88,56
2,40,84,8
2,28,85,768
2,40,75,0
2,45,79,12
2,44,74,772
2,42,70,756
2,40,88,748
2,38,81,764
2,38,81,64
2,33,78,772
2,40,86,0
2,40,90,64
2,41,81,4
2,42,83,8
2,35,116,0
2,35,117,84
2,37,110,36
2,38,101,28
2,38,108,28
2,38,111,64
2,40,111,40
2,40,111,48
2,35,108,20
2,40,117,28
2,40,117,16
2,44,114,4
2,45,99,92
2,47,106,12
2,50,104,4
2,35,115,96
2,35,114,72
2,37,105,16
2,38,112,40
2,38,101,28
2,38,107,48
2,40,118,32
2,40,115,16
2,40,110,76
2,38,117,28
2,38,111,32
2,37,118,48
2,35,110,36
2,33,115,40
2,33,111,64
2,33,106,40
2,35,112,48
2,35,122,44
2,35,111,56
2,40,118,36
2,40,112,32
2,40,108,44
2,38,111,44
2,38,112,32
2,37,127,20
2,35,117,28
2,33,118,192
2,33,117,40
2,33,107,52
2,35,120,48
2,35,122,36
2,35,111,64
2,40,112,36
2,40,122,40
2,40,114,36
2,38,118,28
2,40,118,24
2,45,107,32
2,40,93,0
2,45,101,0
2,47,115,16
2,33,114,4
2,33,115,80
2,33,110,44
2,35,110,44
2,35,115,24
2,35,108,56
2,40,112,12
2,40,96,20
2,40,104,44
2,40,100,16
2,38,93,20
2,38,94,4
2,45,86,32
2,45,80,48
2,44,81,20
2,42,81,0
2,40,90,768
2,40,88,28
2,38,85,192
2,38,88,64
2,38,86,20
2,40,88,192
2,40,85,80
2,45,82,768
2,45,80,32
2,44,78,0
2,42,79,8
2,42,82,56
2,42,88,28
2,43,95,192
2,38,93,12
2,47,97,12
2,45,90,196
2,45,93,60
2,45,95,40
2,45,96,32
2,33,106,8
2,40,93,0
2,42,90,4
2,35,111,28
2,35,122,44
2,37,105,28
2,38,112,0
2,38,126,32
2,38,111,60
2,40,114,32
2,40,114,76
2,35,101,28
2,40,108,4
2,40,120,72
2,40,106,4
2,44,122,96
2,45,112,80
2,47,103,76
2,50,105,4
2,35,118,0
2,35,117,76
2,37,109,16
2,38,120,36
2,38,111,60
2,38,103,60
2,40,103,16
2,40,111,52
2,40,99,16
2,44,114,96
2,45,110,4
2,47,101,100
2,50,92,84
2,38,111,92
2,38,117,60
2,37,119,16
2,35,100,36
2,33,114,8
2,33,110,36
2,33,103,60
2,33,100,48
2,35,106,16
2,35,101,36
2,35,110,48
2,35,103,56
2,40,114,28
2,40,126,72
2,44,109,12
2,45,101,96
2,47,101,80
2,50,114,16
2,38,118,0
2,38,106,40
2,37,104,20
2,35,106,36
2,33,99,36
2,33,93,44
2,33,103,56
2,33,94,64
2,35,112,92
2,35,90,48
2,35,122,52
2,35,105,60
2,40,112,36
2,40,110,36
2,44,107,96
2,45,99,0
2,47,93,96
2,50,104,16
2,38,114,96
2,38,110,36
2,37,113,16
2,35,114,40
2,33,118,32
2,33,103,32
2,33,104,56
2,33,108,76
2,35,108,52
2,35,100,32
2,35,112,60
2,35,95,64
2,40,97,32
2,43,90,84
2,44,97,32
2,47,104,176
2,52,101,164
2,38,104,16
2,38,98,64
2,38,106,64
2,40,67,0
2,42,97,0
2,44,93,192
2,45,106,0
2,54,80,36
2,54,51,8
2,54,80,52
2,54,73,40
2,52,90,0
2,52,93,48
2,52,90,28
2,52,93,48
2,50,93,8
2,50,77,48
2,50,85,60
2,45,92,12
2,38,96,0
2,38,87,48
2,37,87,12
2,35,98,388
2,35,94,48
2,35,100,36
2,47,92,16
2,45,90,384
2,45,90,72
2,45,89,64
2,38,93,12
2,31,93,0
2,31,92,32
2,31,93,44
2,40,118,28
2,40,106,56
2,40,106,80
2,38,111,16
2,38,112,40
2,45,103,4
2,38,107,4
2,45,101,96
2,47,108,12
2,33,112,12
2,33,104,48
2,33,107,48
2,33,103,84
2,35,107,20
2,35,100,12
2,35,115,40
2,35,105,64
2,40,107,12
2,40,115,44
2,44,101,4
2,45,107,16
2,47,93,0
2,50,105,16
2,38,115,4
2,38,110,36
2,37,109,16
2,35,114,20
2,33,103,44
2,40,100,292
2,45,111,32
2,35,103,44
2,42,94,48
2,47,112,28
2,40,110,68
2,40,103,60
2,40,108,56
2,40,98,92
2,38,101,32
2,38,94,60
2,38,106,52
2,38,98,48
2,37,98,8
2,35,112,96
2,33,111,96
2,40,94,40
2,45,93,20
2,45,91,40
2,47,93,24
2,42,98,44
2,47,108,24
2,47,92,64
2,40,99,20
2,40,97,44
2,40,93,52
2,47,90,0
2,52,86,4
2,52,88,36
2,38,84,0
2,38,88,48
2,38,80,28
2,45,90,4
2,52,88,24
2,57,84,192
2,45,95,8
2,38,90,0
2,38,86,52
2,38,82,64
2,35,84,384
2,33,80,368
3,66,80,96
3,62,79,0
3,71,80,0
3,59,88,20
3,71,102,28
3,66,111,0
3,62,96,0
3,71,94,124
3,66,98,0
3,62,82,0
3,59,73,160
3,69,85,80
3,66,85,0
3,62,86,0
3,57,86,8
3,69,100,20
3,66,111,0
3,62,86,0
3,69,86,124
3,66,115,0
3,62,86,0
3,57,64,160
3,68,85,152
3,64,85,0
3,71,78,0
3,59,82,0
3,59,58,4
3,71,90,80
3,64,92,0
3,68,87,0
3,59,94,0
3,59,61,124
3,68,38,52
3,64,56,0
3,69,69,64
3,64,79,0
3,59,76,0
3,69,88,0
3,59,79,0
3,64,94,0
3,59,67,36
3,68,85,0
3,64,86,0
3,59,58,80
3,68,83,68
3,64,88,8
3,59,100,0
3,66,82,60
3,62,79,4
3,71,81,8
3,59,88,4
3,66,115,44
3,62,96,0
3,71,100,0
3,66,107,72
3,62,90,0
3,71,92,0
3,59,76,152
3,69,87,80
3,66,87,0
3,62,79,0
3,57,79,8
3,66,115,40
3,62,88,0
3,69,96,0
3,69,76,120
3,66,101,0
3,62,73,0
3,57,78,164
3,59,92,132
3,64,86,0
3,68,92,8
3,71,86,8
3,59,49,4
3,59,100,76
3,68,89,0
3,71,96,0
3,64,83,0
3,59,68,104
3,64,61,40
3,66,85,0
3,62,83,0
3,57,90,0
3,69,86,0
3,57,55,8
3,62,85,72
3,57,85,0
3,66,75,0
3,69,85,0
3,57,61,4
3,62,43,8
3,64,74,72
3,61,68,0
3,69,78,4
3,57,60,8
3,69,51,0
3,64,54,0
3,57,61,36
3,69,92,52
3,64,88,0
3,61,61,4
3,57,52,12
3,69,79,104
3,64,80,4
3,61,65,0
3,57,73,12
3,66,71,44
3,62,73,0
3,71,70,0
3,59,73,8
3,66,53,80
3,62,43,0
3,71,48,0
3,59,73,24
3,62,91,52
3,66,95,0
3,71,91,0
3,59,70,36
3,66,84,36
3,62,83,0
3,71,80,0
3,59,68,32
3,68,95,32
3,71,90,0
3,64,80,4
3,59,71,8
3,68,58,20
3,71,66,0
3,64,62,0
3,59,80,72
3,68,101,68
3,64,94,0
3,71,95,0
3,59,70,32
3,71,88,44
3,68,81,0
3,64,84,0
3,59,80,44
3,66,89,44
3,69,84,0
3,62,73,0
3,57,65,12
3,66,82,4
3,69,86,4
3,62,68,0
3,57,67,32
3,66,99,60
3,62,80,0
3,69,90,0
3,57,60,40
3,66,97,72
3,62,77,0
3,69,87,0
3,57,70,64
3,61,84,40
3,69,94,0
3,64,90,0
3,57,60,0
3,69,65,12
3,64,50,0
3,57,83,60
3,69,100,56
3,61,82,0
3,64,85,0
3,57,65,8
3,64,81,20
3,61,68,0
3,69,76,0
3,57,73,24
3,66,89,52
3,62,83,0
3,71,95,0
3,59,67,0
3,62,66,80
3,66,56,0
3,71,34,4
3,59,74,28
3,71,91,68
3,66,84,0
3,62,79,0
3,59,78,48
3,62,80,48
3,66,84,0
3,71,79,4
3,59,74,36
3,71,94,36
3,64,84,0
3,68,81,4
3,59,68,12
3,64,76,40
3,59,73,36
3,71,98,68
3,68,93,0
3,64,87,0
3,59,66,24
3,68,85,48
3,71,91,0
3,64,85,0
3,59,84,24
3,69,94,4
3,62,73,0
3,57,87,12
3,66,74,12
3,62,72,0
3,69,73,0
3,57,70,24
3,66,104,56
3,69,102,0
3,62,85,0
3,57,68,36
3,62,81,44
3,66,99,0
3,69,94,4
3,57,75,36
3,69,91,48
3,61,77,0
3,64,90,4
3,57,73,0
3,61,49,32
3,64,44,0
3,57,84,72
3,69,100,56
3,61,84,4
3,64,88,0
3,57,71,28
3,61,77,32
3,69,80,0
3,64,83,0
3,57,73,36
3,62,85,48
3,66,77,0
3,71,85,0
3,59,80,8
3,62,71,12
3,59,80,12
3,62,88,44
3,71,94,0
3,66,95,0
3,59,70,24
3,62,70,16
3,66,56,0
3,59,76,28
3,71,90,28
3,64,85,0
3,68,75,0
3,59,62,16
3,71,80,24
3,64,73,4
3,68,54,0
3,59,59,24
3,68,93,52
3,64,88,0
3,71,92,0
3,59,71,40
3,64,83,40
3,59,68,28
3,71,85,48
3,68,54,0
3,64,83,0
3,59,72,36
3,64,73,32
3,59,73,0
3,68,71,36
3,64,87,0
3,71,80,4
3,57,46,260
3,62,60,36
3,66,68,8
3,69,92,24
3,57,53,136
3,62,57,4
3,66,52,0
3,69,62,0
3,57,59,156
3,61,47,28
3,64,70,4
3,69,72,24
3,66,80,96
3,62,79,0
3,71,80,4
3,59,88,20
3,71,102,28
3,66,111,0
3,62,96,0
3,71,94,124
3,66,98,0
3,62,82,0
3,59,73,160
3,69,85,80
3,66,85,0
3,62,86,0
3,57,86,8
3,69,100,20
3,66,111,0
3,62,86,0
3,69,86,124
3,66,115,0
3,62,86,0
3,57,64,160
3,68,85,152
3,64,85,0
