track,note,velocity,time
1,60,64,1140
1,56,55,0
1,63,61,0
1,67,57,0
1,56,56,4
1,60,70,4
1,67,63,0
1,56,62,0
1,63,62,0
1,60,68,4
1,56,62,0
1,63,66,0
1,67,60,0
1,56,49,4
1,60,70,0
1,67,62,4
1,63,61,0
1,56,61,0
1,56,61,4
1,67,66,4
1,56,62,0
1,60,64,0
1,63,61,0
1,58,60,8
1,65,61,0
1,61,66,0
1,56,55,4
1,56,59,4
1,56,61,4
1,58,61,0
1,65,63,4
1,58,59,0
1,61,63,0
1,56,57,0
1,56,62,4
1,58,62,0
1,61,60,0
1,65,61,4
1,56,62,4
1,58,62,4
1,61,61,0
1,56,56,0
1,65,61,0
1,63,62,16
1,56,57,0
1,60,69,0
1,67,60,0
1,56,55,4
1,60,63,4
1,63,56,0
1,56,50,0
1,60,68,4
1,67,62,0
1,63,65,0
1,56,61,0
1,56,54,4
1,60,64,0
1,63,54,4
1,56,57,0
1,67,46,0
1,56,50,4
1,60,68,4
1,63,61,0
1,56,62,0
1,56,61,4
1,58,57,0
1,65,62,0
1,61,66,0
1,56,62,4
1,58,66,4
1,61,63,0
1,65,63,0
1,56,63,0
1,56,66,4
1,58,66,0
1,65,71,0
1,61,67,0
1,65,71,0
1,56,66,0
1,61,66,0
1,63,62,88
1,60,66,0
1,56,64,0
1,56,77,4
1,63,67,4
1,60,70,0
1,56,66,0
1,63,62,4
1,60,64,0
1,56,84,4
1,63,75,4
1,60,84,0
1,56,71,4
1,63,71,4
1,60,67,0
1,58,62,0
1,65,71,0
1,61,61,0
1,56,61,0
1,56,61,4
1,58,64,4
1,65,64,0
1,58,63,4
1,65,66,0
1,61,59,0
1,56,66,4
1,58,79,0
1,61,80,0
1,65,70,4
1,56,64,0
1,56,68,4
1,61,98,0
1,58,90,0
1,65,67,4
1,56,61,4
1,63,65,0
1,67,72,0
1,56,64,0
1,60,52,4
1,56,65,4
1,63,61,0
1,60,64,4
1,67,62,0
1,60,68,4
1,67,64,0
1,63,56,0
1,56,67,0
1,56,77,4
1,56,71,4
1,60,66,0
1,63,61,0
1,67,63,0
1,56,66,4
1,63,75,0
1,60,70,0
1,67,65,4
1,56,63,4
1,61,79,4
1,56,68,0
1,65,75,0
1,56,66,4
1,61,77,0
1,65,71,0
1,56,65,4
1,61,93,4
1,65,78,0
1,56,73,0
1,61,70,4
1,56,75,0
1,65,73,0
1,63,69,4
1,60,84,4
1,56,63,0
1,58,66,12
1,61,70,0
1,65,68,0
1,56,64,0
1,56,62,4
1,58,67,0
1,65,65,4
1,61,56,0
1,58,76,4
1,56,75,0
1,61,68,0
1,65,76,0
1,56,67,4
1,61,82,4
1,58,86,0
1,56,77,0
1,65,75,0
1,56,68,4
1,58,76,4
1,61,66,0
1,65,70,0
1,56,53,4
1,61,70,4
1,56,79,0
1,65,73,0
1,56,65,4
1,56,65,4
1,61,63,0
1,65,77,0
1,65,77,4
1,61,64,0
1,56,78,0
1,56,80,4
1,61,90,0
1,56,78,0
1,65,74,4
1,56,86,4
1,61,75,0
1,56,66,0
1,65,69,4
1,56,63,4
1,56,75,0
1,63,79,0
1,60,86,4
1,56,66,168
1,63,75,4
1,60,82,0
1,56,68,0
1,63,72,0
1,60,89,4
1,56,66,0
1,56,78,4
1,60,96,0
1,56,77,0
1,63,82,4
1,56,70,4
1,63,86,4
1,60,98,0
1,56,51,4
1,58,76,4
1,65,82,0
1,56,74,0
1,61,61,0
1,56,66,4
1,65,73,4
1,58,66,0
1,61,63,0
1,56,63,0
1,58,77,4
1,61,67,0
1,56,76,0
1,65,75,0
1,56,66,4
1,58,78,0
1,61,75,0
1,56,69,4
1,65,70,0
1,56,76,4
1,58,98,4
1,61,84,0
1,65,79,0
1,56,59,4
1,63,66,0
1,67,75,4
1,56,61,0
1,60,62,0
1,56,61,4
1,60,62,0
1,56,53,4
1,67,53,0
1,60,74,4
1,56,74,0
1,67,74,0
1,63,62,0
1,56,75,4
1,63,74,0
1,60,77,0
1,67,65,0
1,56,67,4
1,56,74,4
1,60,77,0
1,63,61,4
1,67,70,0
1,56,53,4
1,65,82,4
1,61,79,0
1,56,76,0
1,56,62,4
1,61,66,0
1,65,67,4
1,56,59,0
1,65,78,0
1,61,88,0
1,56,77,4
1,65,77,4
1,61,77,0
1,56,77,0
1,63,66,8
1,60,82,0
1,56,80,0
1,61,68,4
1,58,70,0
1,56,63,0
1,65,72,0
1,56,67,4
1,56,61,4
1,58,61,0
1,58,74,0
1,56,71,4
1,65,78,0
1,61,64,0
1,56,76,4
1,61,75,0
1,56,75,0
1,58,73,4
1,65,71,0
1,56,62,4
1,58,82,0
1,65,82,4
1,56,66,0
1,65,79,4
1,61,77,0
1,56,79,0
1,56,65,4
1,65,69,4
1,56,65,0
1,56,77,4
1,61,75,0
1,65,79,0
1,56,72,4
1,61,77,4
1,56,77,0
1,65,72,0
1,56,76,4
1,61,88,0
1,56,77,4
1,65,74,0
1,63,73,0
1,60,80,0
1,56,74,0
1,56,73,4
1,63,71,4
1,60,78,0
1,56,63,0
1,63,70,4
1,60,86,0
1,56,65,0
1,63,89,4
1,56,86,0
1,60,103,0
1,63,76,4
1,56,86,0
1,60,75,4
1,58,64,0
1,67,75,0
1,63,63,0
1,60,47,0
1,58,71,4
1,60,79,4
1,63,65,0
1,58,70,0
1,67,77,0
1,58,61,4
1,58,70,4
1,60,77,0
1,67,69,0
1,63,62,0
1,60,63,4
1,58,65,0
1,58,71,4
1,60,77,0
1,67,70,0
1,63,62,0
1,68,76,4
1,58,77,0
1,63,76,0
1,67,82,12
1,63,82,0
1,58,78,0
1,68,68,284
1,61,70,4
1,65,68,0
1,61,77,4
1,65,84,0
1,56,68,0
1,60,77,0
1,63,64,0
1,58,68,0
1,67,66,4
1,58,65,4
1,63,67,4
1,60,78,0
1,58,71,0
1,67,71,0
1,58,61,4
1,58,71,0
1,63,66,0
1,60,80,4
1,67,70,0
1,58,64,4
1,60,56,0
1,60,73,4
1,67,69,0
1,63,66,0
1,58,70,0
1,68,74,4
1,58,77,0
1,63,67,0
1,63,77,4
1,67,86,0
1,58,79,0
1,61,77,276
1,68,45,4
1,65,57,4
1,56,70,0
1,65,78,0
1,61,70,0
1,63,64,204
1,56,66,0
1,60,64,0
1,60,73,0
1,63,70,0
1,56,59,4
1,56,54,4
1,60,71,4
1,63,68,0
1,56,57,4
1,63,70,4
1,56,68,0
1,60,68,0
1,56,70,4
1,63,76,4
1,60,78,0
1,65,80,4
1,58,62,0
1,56,56,0
1,61,63,0
1,56,51,4
1,58,76,0
1,65,79,0
1,61,62,0
1,56,67,4
1,56,79,4
1,56,75,4
1,58,79,0
1,65,67,0
1,56,82,4
1,61,76,4
1,58,64,0
1,56,62,4
1,63,63,0
1,56,64,4
1,60,70,0
1,67,72,0
1,56,50,4
1,63,63,4
1,60,65,0
1,56,66,0
1,67,66,0
1,60,75,0
1,56,73,0
1,63,63,0
1,67,75,4
1,56,79,4
1,56,73,4
1,60,73,0
1,63,63,0
1,67,62,4
1,56,78,4
1,63,77,0
1,60,79,0
1,56,79,0
1,67,76,4
1,56,63,4
1,56,71,4
1,61,84,0
1,65,77,0
1,56,79,4
1,61,78,4
1,65,77,0
1,56,76,0
1,61,82,4
1,56,79,0
1,65,76,0
1,56,78,4
1,61,101,4
1,56,88,0
1,65,76,0
1,56,82,4
1,60,84,0
1,63,76,0
1,58,76,4
1,65,82,0
1,61,66,0
1,56,70,0
1,56,61,4
1,58,66,0
1,65,78,0
1,61,62,4
1,56,58,0
1,61,65,0
1,58,66,0
1,65,69,0
1,56,62,4
1,56,76,4
1,65,77,4
1,58,73,0
1,61,65,0
1,56,68,0
1,56,71,4
1,58,89,0
1,56,77,4
1,61,74,0
1,65,75,0
1,61,75,0
1,56,75,0
1,65,82,0
1,56,80,4
1,61,84,4
1,56,78,0
1,65,77,0
1,61,75,4
1,56,78,0
1,65,70,0
1,56,80,4
1,61,103,4
1,56,84,0
1,65,76,0
1,56,63,4
1,56,84,4
1,61,85,0
1,65,78,4
1,63,69,8
1,56,76,0
1,60,79,0
1,56,79,4
1,63,79,4
1,60,93,0
1,56,68,0
1,63,76,4
1,60,90,0
1,56,74,0
1,56,89,4
1,63,70,0
1,60,65,0
1,63,82,4
1,56,89,0
1,60,74,24
1,58,68,0
1,63,67,0
1,67,76,0
1,58,61,4
1,63,68,4
1,60,82,0
1,58,77,0
1,67,75,0
1,58,60,4
1,60,74,0
1,58,71,0
1,63,65,4
1,67,77,0
1,58,66,92
1,67,67,56
1,60,64,0
1,58,62,0
1,63,65,0
1,63,75,0
1,68,68,4
1,58,80,0
1,63,77,16
1,67,79,0
1,58,77,0
1,65,80,4
1,68,70,0
1,61,70,0
1,65,82,8
1,56,78,0
1,61,75,0
1,56,63,4
1,58,70,12
1,67,77,0
1,63,61,4
1,60,68,0
1,58,64,4
1,58,70,4
1,60,75,0
1,63,63,0
1,67,68,0
1,58,61,80
1,60,74,0
1,58,68,0
1,63,62,4
1,67,68,0
1,58,68,72
1,67,74,4
1,60,79,0
1,58,74,0
1,63,64,0
1,63,89,0
1,68,78,4
1,58,84,0
1,67,78,4
1,63,72,0
1,58,78,0
1,68,66,8
1,61,69,0
1,65,73,0
1,56,73,8
1,61,74,0
1,65,82,4
1,63,64,36
1,60,67,0
1,57,63,4
1,63,64,36
1,57,64,0
1,60,70,0
1,58,64,20
1,61,68,0
1,65,62,0
1,61,75,16
1,56,80,0
1,53,67,568
1,56,61,12
1,63,63,0
1,60,68,0
1,63,64,0
1,56,68,4
1,56,64,4
1,63,64,0
1,60,62,0
1,63,82,0
1,60,84,0
1,56,69,4
1,56,70,4
1,60,71,4
1,63,63,4
1,58,75,4
1,65,79,0
1,61,67,0
1,56,72,0
1,56,63,4
1,58,79,0
1,56,76,0
1,65,64,4
1,56,72,4
1,58,88,4
1,61,78,0
1,65,66,0
1,56,86,4
1,61,73,0
1,58,72,0
1,65,66,4
1,56,68,4
1,56,68,4
1,63,78,0
1,60,75,0
1,67,90,0
1,56,69,48
1,60,66,4
1,67,63,0
1,63,61,0
1,56,58,0
1,63,68,4
1,67,82,0
1,60,78,0
1,56,77,0
1,56,70,4
1,63,76,0
1,60,84,4
1,56,78,0
1,67,73,0
1,56,76,4
1,63,61,4
1,56,71,0
1,60,67,0
1,67,72,0
1,56,63,4
1,58,68,4
1,54,67,0
1,65,75,4
1,61,69,0
1,54,62,4
1,58,65,0
1,65,64,0
1,54,67,0
1,61,64,4
1,54,75,4
1,61,66,4
1,58,74,0
1,65,77,0
1,54,88,0
1,54,93,4
1,65,76,0
1,61,62,0
1,58,67,4
1,54,67,4
1,63,64,96
1,67,74,0
1,60,68,0
1,56,77,276
1,60,76,0
1,56,66,4
1,63,61,0
1,67,68,0
1,63,67,4
1,56,73,0
1,60,77,0
1,67,75,0
1,56,90,4
1,63,93,4
1,60,93,0
1,67,75,0
1,56,79,0
1,56,88,4
1,63,88,4
1,60,74,0
1,67,77,0
1,56,80,4
1,58,90,4
1,61,98,0
1,65,89,4
1,56,78,280
1,58,75,4
1,56,68,0
1,65,70,0
1,58,107,4
1,61,89,0
1,56,88,0
1,65,77,0
1,56,75,4
1,58,79,4
1,61,71,0
1,65,72,0
1,56,70,0
1,56,80,4
1,58,93,4
1,61,93,0
1,56,74,0
1,65,84,0
1,56,69,4
1,63,74,4
1,56,82,0
1,67,77,0
1,60,67,4
1,60,15,40
1,56,70,4
1,60,80,0
1,63,73,0
1,56,73,4
1,67,78,0
1,60,82,4
1,63,65,0
1,56,74,0
1,67,76,0
1,56,78,4
1,63,82,0
1,60,98,0
1,56,80,0
1,67,74,4
1,56,86,4
1,56,77,4
1,60,86,0
1,63,71,0
1,67,86,0
1,65,90,4
1,58,84,0
1,54,93,0
1,61,71,0
1,54,68,4
1,58,65,4
1,65,73,0
1,58,101,4
1,54,90,0
1,61,69,0
1,65,88,0
1,54,89,4
1,58,96,0
1,54,84,0
1,61,74,0
1,65,78,4
1,54,75,4
1,65,84,4
1,58,79,0
1,54,77,0
1,61,62,0
1,63,68,20
1,60,77,0
1,58,66,0
1,56,67,0
2,55,59,1116
2,55,64,56
2,56,58,96
2,53,64,92
2,53,65,52
2,51,65,96
2,53,60,72
2,44,83,76
2,44,82,60
2,37,88,1160
2,32,88,72
2,32,90,220
2,32,85,56
2,32,94,104
2,32,91,236
2,32,101,168
2,32,89,56
2,32,92,108
2,32,94,328
2,32,103,280
2,32,93,60
2,32,99,108
2,36,106,20
2,37,101,36
2,37,105,80
2,36,99,8
2,34,94,104
2,34,99,252
2,34,85,52
2,34,94,104
2,39,92,152
2,39,99,320
2,39,92,60
2,39,95,108
2,39,90,52
2,41,93,24
2,32,90,48
2,44,109,124
2,32,96,36
2,32,106,100
2,27,94,92
2,32,94,4
2,32,96,88
2,44,101,12
2,44,105,116
2,39,85,0
2,32,107,44
2,44,109,116
2,32,113,48
2,32,115,92
2,32,94,72
2,34,96,12
2,36,83,0
2,37,107,4
2,32,91,68
2,37,110,36
2,32,94,64
2,36,120,40
2,34,105,144
2,34,103,32
2,34,113,108
2,34,118,116
2,34,99,52
2,39,97,16
2,39,113,60
2,39,97,144
2,39,95,48
2,39,101,60
2,32,99,4
2,32,118,88
2,34,113,32
2,35,127,16
2,36,107,36
2,36,97,48
2,36,105,52
2,39,105,0
2,43,99,12
2,34,106,56
2,36,101,24
2,39,94,36
2,43,111,8
2,37,115,36
2,37,118,60
2,37,118,52
2,37,118,36
2,36,118,80
2,36,110,44
2,36,106,48
2,39,97,4
2,43,94,16
2,34,107,48
2,36,110,36
2,39,107,36
2,43,101,20
2,37,127,4
2,37,124,128
2,37,113,36
2,37,127,40
2,39,107,4
2,32,106,36
2,32,106,88
2,32,94,44
2,32,99,48
2,36,84,96
2,39,88,20
2,41,113,0
2,32,110,16
2,44,115,584
2,44,113,48
2,41,94,0
2,39,107,0
2,36,110,8
2,32,120,20
2,44,96,0
2,32,120,40
2,32,95,60
2,34,118,32
2,36,110,4
2,37,127,20
2,49,109,8
2,37,118,28
2,37,127,72
2,36,107,36
2,36,120,84
2,34,118,16
2,34,101,20
2,34,118,72
2,34,127,76
2,34,113,64
2,36,106,12
2,37,127,96
2,39,118,0
2,39,103,60
2,39,115,64
2,39,127,124
2,39,113,108
2,41,99,8
2,44,109,96
2,32,101,52
2,32,120,60
2,32,127,64
2,34,120,40
2,35,127,288
2,36,115,28
2,36,105,52
2,36,96,44
2,39,92,96
2,43,113,8
2,34,113,48
2,36,110,40
2,39,115,40
2,43,110,52
2,37,127,4
2,37,127,96
2,37,124,44
2,37,127,48
2,36,107,64
2,36,105,44
2,36,118,52
2,39,105,96
2,43,106,4
2,34,118,44
2,36,127,44
2,39,113,28
2,43,110,44
2,37,124,0
2,37,127,160
2,37,106,56
2,37,115,36
2,33,106,144
2,33,110,52
2,34,118,28
2,27,127,292
2,32,124,92
2,44,104,24
2,32,120,32
2,32,127,128
2,32,118,60
2,39,84,96
2,41,113,0
2,44,112,96
2,39,115,16
2,44,106,16
2,44,109,124
2,39,127,16
2,41,113,96
2,41,118,68
2,32,113,20
2,32,120,72
2,44,113,16
2,44,105,112
2,39,99,20
2,41,94,96
2,44,124,0
2,32,115,8
2,32,113,64
2,44,107,24
2,44,106,36
2,44,118,64
2,39,99,96
2,44,110,92
2,32,127,8
2,32,115,68
2,39,115,20
2,44,109,108
2,39,120,32
2,39,127,36
2,41,105,4
2,44,120,0
2,32,115,28
2,32,120,68
2,44,107,16
2,41,124,8
2,39,127,20
2,41,120,100
2,44,127,8
2,32,118,0
2,32,107,92
2,44,105,16
2,44,111,120
2,39,127,16
2,44,124,8
2,32,120,12
2,32,115,88
2,44,127,32
2,44,127,104
2,39,106,16
2,41,79,0
2,44,120,96
2,32,127,12
3,67,55,1100
3,67,46,52
3,68,57,92
3,65,51,0
3,67,85,208
3,67,93,32
3,68,93,12
3,70,97,8
