track,note,velocity,time
1,35,107,17256
1,51,114,0
1,42,126,378
1,35,66,186
1,35,115,186
1,42,127,378
1,35,77,186
1,35,119,186
1,42,127,378
1,35,77,186
1,35,125,186
1,42,127,378
1,35,80,186
1,35,121,186
1,42,127,378
1,35,73,186
1,35,124,186
1,42,127,378
1,35,79,186
1,35,102,186
1,38,112,186
1,46,119,0
1,38,91,282
1,35,110,90
1,38,127,186
1,46,127,0
1,38,96,186
1,38,127,186
1,48,110,90
1,45,107,90
1,35,74,90
1,35,127,90
1,49,111,0
1,46,91,186
1,35,108,0
1,38,127,186
1,42,113,0
1,42,89,186
1,35,91,90
1,35,126,90
1,42,106,0
1,35,86,186
1,42,99,0
1,38,127,186
1,42,127,0
1,42,91,186
1,35,92,90
1,35,124,90
1,42,108,0
1,42,94,186
1,35,106,0
1,42,124,186
1,38,127,0
1,42,96,186
1,35,87,90
1,42,127,90
1,35,127,0
1,42,106,186
1,35,111,0
1,38,127,186
1,42,123,0
1,46,95,186
1,35,106,0
1,42,106,186
1,35,127,0
1,42,101,186
1,35,108,0
1,38,127,186
1,42,127,0
1,42,96,186
1,35,96,90
1,35,127,90
1,42,126,0
1,35,105,186
1,42,104,0
1,38,127,186
1,42,127,0
1,42,101,186
1,35,97,90
1,42,120,90
1,35,127,0
1,35,110,186
1,42,106,0
1,38,127,186
1,42,127,0
1,42,102,186
1,35,93,90
1,35,120,90
1,42,123,0
1,42,91,186
1,35,108,0
1,38,127,186
1,38,93,90
1,38,126,90
1,35,100,90
1,35,125,90
1,49,96,0
1,35,125,186
1,42,96,0
1,38,127,186
1,42,127,0
1,42,106,186
1,35,92,90
1,35,127,90
1,42,121,0
1,42,92,186
1,35,116,0
1,38,127,186
1,42,127,0
1,42,96,186
1,35,95,90
1,35,127,90
1,42,119,0
1,42,98,186
1,38,127,186
1,42,123,0
1,46,97,186
1,35,120,0
1,42,94,186
1,42,91,186
1,42,117,186
1,38,127,0
1,35,102,186
1,42,86,0
1,51,98,186
1,35,127,0
1,35,117,570
1,51,117,0
1,42,107,570
1,35,87,186
1,35,116,186
1,51,103,0
1,42,110,378
1,42,121,762
1,35,115,378
1,51,100,0
1,42,98,186
1,37,120,186
1,42,120,0
1,35,91,186
1,42,90,0
1,42,101,186
1,35,122,0
1,42,94,186
1,42,126,186
1,37,127,0
1,42,91,186
1,35,86,0
1,42,108,186
1,35,120,0
1,42,85,186
1,42,127,186
1,37,127,0
1,42,90,186
1,35,86,0
1,42,99,186
1,35,127,0
1,42,92,186
1,42,127,186
1,37,127,0
1,35,89,186
1,42,85,0
1,42,126,186
1,35,127,0
1,42,96,186
1,37,127,186
1,42,127,0
1,42,94,186
1,35,86,0
1,42,123,186
1,35,124,0
1,42,80,186
1,37,127,186
1,42,123,0
1,42,94,186
1,35,94,0
1,42,120,186
1,35,127,0
1,42,83,186
1,42,127,186
1,37,127,0
1,42,92,186
1,35,95,0
1,35,116,186
1,42,106,0
1,42,78,186
1,37,127,186
1,42,127,0
1,35,85,186
1,42,94,0
1,35,127,186
1,51,107,0
1,42,92,186
1,37,127,186
1,42,124,0
1,35,93,186
1,42,95,0
1,35,127,186
1,42,116,0
1,42,99,186
1,42,126,186
1,37,127,0
1,42,96,186
1,35,92,0
1,42,126,186
1,35,127,0
1,42,99,186
1,37,127,186
1,42,127,0
1,35,87,186
1,42,93,0
1,35,127,186
1,42,117,0
1,42,89,186
1,42,126,186
1,37,127,0
1,35,94,186
1,42,92,0
1,35,127,186
1,42,113,0
1,42,91,186
1,37,127,186
1,42,123,0
1,42,94,186
1,35,88,0
1,42,106,186
1,35,124,0
1,42,91,186
1,37,127,186
1,42,127,0
1,35,93,186
1,42,91,0
1,35,127,186
1,42,119,0
1,42,84,186
1,42,124,186
1,37,126,0
1,35,96,186
1,42,84,0
1,42,96,186
1,35,115,0
1,46,127,186
1,38,127,0
1,35,111,186
1,45,115,90
1,41,127,90
1,38,127,186
1,35,127,0
1,49,111,0
1,46,92,186
1,46,114,186
1,38,126,0
1,46,101,186
1,35,100,90
1,35,127,90
1,46,123,0
1,38,127,0
1,38,127,378
1,46,127,0
1,35,102,186
1,46,89,0
1,38,127,186
1,35,127,0
1,46,127,0
1,46,84,186
1,38,127,186
1,46,127,0
1,35,102,186
1,46,94,0
1,38,127,186
1,46,127,0
1,35,105,186
1,46,93,0
1,38,127,186
1,46,127,0
1,35,110,90
1,46,107,90
1,35,97,90
1,38,127,90
1,35,127,0
1,49,114,0
1,46,96,186
1,38,127,186
1,46,127,0
1,35,102,186
1,46,100,0
1,49,103,186
1,35,127,0
1,38,127,0
1,46,100,186
1,38,127,186
1,46,127,0
1,35,110,186
1,46,94,0
1,49,127,186
1,38,127,0
1,46,60,186
1,46,124,186
1,38,127,0
1,35,108,186
1,46,110,0
1,35,127,186
1,38,127,0
1,46,127,0
1,38,110,186
1,38,126,90
1,38,127,90
1,35,127,0
1,38,119,90
1,38,127,90
1,38,127,90
1,35,127,90
1,49,111,0
1,46,91,186
1,35,108,0
1,38,127,186
1,42,113,0
1,42,89,186
1,35,91,90
1,35,126,90
1,42,106,0
1,35,86,186
1,42,99,0
1,38,127,186
1,42,127,0
1,42,91,186
1,35,92,90
1,35,124,90
1,42,108,0
1,42,94,186
1,35,106,0
1,42,124,186
1,38,127,0
1,42,96,186
1,35,87,90
1,42,127,90
1,35,127,0
1,42,106,186
1,35,111,0
1,38,127,186
1,42,123,0
1,46,95,186
1,35,106,0
1,42,106,186
1,35,127,0
1,42,101,186
1,35,108,0
1,38,127,186
1,42,127,0
1,42,96,186
1,35,96,90
1,35,127,90
1,42,126,0
1,35,105,186
1,42,104,0
1,38,127,186
1,42,127,0
1,42,101,186
1,35,97,90
1,42,120,90
1,35,127,0
1,35,110,186
1,42,106,0
1,38,127,186
1,42,127,0
1,42,102,186
1,35,93,90
1,35,120,90
1,42,123,0
1,42,91,186
1,35,108,0
1,38,127,186
1,38,93,90
1,38,126,90
1,35,100,90
1,35,125,90
1,49,96,0
1,35,125,186
1,42,96,0
1,38,127,186
1,42,127,0
1,42,106,186
1,35,92,90
1,35,127,90
1,42,121,0
1,42,92,186
1,35,116,0
1,38,127,186
1,42,127,0
1,42,96,186
1,35,95,90
1,35,127,90
1,42,119,0
1,42,98,186
1,38,127,186
1,42,123,0
1,46,97,186
1,35,120,0
1,42,94,186
1,42,91,186
1,42,117,186
1,38,127,0
1,35,102,186
1,42,86,0
1,51,98,186
1,35,127,0
1,35,117,570
1,51,117,0
1,42,107,570
1,35,87,186
1,35,116,186
1,51,103,0
1,42,110,378
1,42,121,762
1,51,94,378
1,42,109,378
1,42,105,762
1,51,106,378
1,42,98,378
1,51,70,186
1,42,116,570
1,51,117,378
1,42,115,378
1,42,92,762
1,42,109,762
1,42,106,762
1,51,91,378
1,42,98,378
1,51,110,186
1,42,113,570
1,51,98,186
1,51,123,186
1,42,101,378
1,51,106,186
1,42,106,570
1,35,112,378
1,51,104,0
1,42,107,378
1,42,109,762
1,35,127,378
1,49,101,0
1,38,115,186
1,35,114,186
1,38,104,90
1,38,127,90
1,35,127,186
1,38,127,0
1,48,110,186
1,48,104,90
1,48,107,90
1,35,127,0
1,45,103,90
1,45,127,90
1,35,127,186
1,49,111,0
1,46,91,186
1,35,108,0
1,38,127,186
1,42,113,0
1,42,89,186
1,35,91,90
1,35,126,90
1,42,106,0
1,35,86,186
1,42,99,0
1,38,127,186
1,42,127,0
1,42,91,186
1,35,92,90
1,35,124,90
1,42,108,0
1,42,94,186
1,35,106,0
1,42,124,186
1,38,127,0
1,42,96,186
1,35,87,90
1,42,127,90
1,35,127,0
1,42,106,186
1,35,111,0
1,38,127,186
1,42,123,0
1,46,95,186
1,35,106,0
1,42,106,186
1,35,127,0
1,42,101,186
1,35,108,0
1,38,127,186
1,42,127,0
1,42,96,186
1,35,96,90
1,35,127,90
1,42,126,0
1,35,105,186
1,42,104,0
1,38,127,186
1,42,127,0
1,42,101,186
1,35,97,90
1,42,120,90
1,35,127,0
1,35,110,186
1,42,106,0
1,38,127,186
1,42,127,0
1,42,102,186
1,35,93,90
1,35,120,90
1,42,123,0
1,42,91,186
1,35,108,0
1,38,127,186
1,38,93,90
1,38,126,90
1,35,100,90
1,35,125,90
1,49,96,0
1,35,125,186
1,42,96,0
1,38,127,186
1,42,127,0
1,42,106,186
1,35,92,90
1,35,127,90
1,42,121,0
1,42,92,186
1,35,116,0
1,38,127,186
1,42,127,0
1,42,96,186
1,35,95,90
1,35,127,90
1,42,119,0
1,42,98,186
1,38,127,186
1,42,123,0
1,46,97,186
1,35,120,0
1,42,94,186
1,42,91,186
1,42,117,186
1,38,127,0
1,35,102,186
1,42,86,0
1,51,98,186
1,35,127,0
1,35,117,570
1,51,117,0
1,42,107,570
1,35,87,186
1,35,116,186
1,51,103,0
1,42,110,378
1,42,121,762
1,35,110,378
1,51,101,0
2,54,111,24576
2,54,65,90
2,54,86,90
2,54,79,90
2,54,111,90
2,54,84,90
2,54,80,90
2,54,85,90
2,54,111,90
2,54,79,90
2,54,95,90
2,54,67,90
2,54,111,90
2,54,91,90
2,54,73,90
2,54,87,90
2,54,111,90
2,54,82,90
2,54,80,90
2,54,73,90
2,54,111,90
2,54,86,90
2,54,73,90
2,54,78,90
2,54,111,90
2,54,82,90
2,54,73,90
2,54,89,90
2,54,111,90
2,54,89,90
2,54,70,90
2,54,85,90
2,54,111,90
2,54,90,90
2,54,84,90
2,54,78,90
2,54,111,90
2,54,92,90
2,54,78,90
2,54,82,90
2,54,111,90
2,54,82,90
2,54,85,90
2,54,80,90
2,54,111,90
2,54,77,90
2,54,74,90
2,54,85,90
2,54,111,90
2,54,85,90
2,54,80,90
2,54,89,90
2,54,111,90
2,54,87,90
2,54,74,90
2,54,90,90
2,54,111,90
2,54,91,90
2,54,86,90
2,54,100,90
2,54,111,90
2,54,94,90
2,54,82,90
2,54,86,90
2,54,111,90
2,54,85,90
2,54,82,90
2,54,82,90
2,54,111,90
2,54,83,90
2,54,71,90
2,54,72,90
2,54,111,90
2,54,76,90
2,54,65,90
2,54,73,90
2,54,111,90
2,54,78,90
2,54,66,90
2,54,73,90
2,54,111,90
2,54,90,186
2,54,111,186
2,54,72,186
2,54,111,186
2,54,62,186
2,54,111,186
2,54,62,186
2,54,104,1338
2,54,111,20346
2,54,65,90
2,54,86,90
2,54,79,90
2,54,111,90
2,54,84,90
2,54,80,90
2,54,85,90
2,54,111,90
2,54,79,90
2,54,95,90
2,54,67,90
2,54,111,90
2,54,91,90
2,54,73,90
2,54,87,90
2,54,111,90
2,54,82,90
2,54,80,90
2,54,73,90
2,54,111,90
2,54,86,90
2,54,73,90
2,54,78,90
2,54,111,90
2,54,82,90
2,54,73,90
2,54,89,90
2,54,111,90
2,54,89,90
2,54,70,90
2,54,85,90
2,54,111,90
2,54,90,90
2,54,84,90
2,54,78,90
2,54,111,90
2,54,92,90
2,54,78,90
2,54,82,90
2,54,111,90
2,54,82,90
2,54,85,90
2,54,80,90
2,54,111,90
2,54,77,90
2,54,74,90
2,54,85,90
2,54,111,90
2,54,85,90
2,54,80,90
2,54,89,90
2,54,111,90
2,54,87,90
2,54,74,90
2,54,90,90
2,54,111,90
2,54,91,90
2,54,86,90
2,54,100,90
2,54,111,90
2,54,94,90
2,54,82,90
2,54,86,90
2,54,111,90
2,54,85,90
2,54,82,90
2,54,82,90
2,54,111,90
2,54,83,90
2,54,71,90
2,54,72,90
2,54,111,90
2,54,76,90
2,54,65,90
2,54,73,90
2,54,111,90
2,54,78,90
2,54,66,90
2,54,73,90
2,54,111,90
2,54,90,186
2,54,111,186
2,54,72,186
2,54,111,186
2,54,62,186
2,54,111,186
2,54,62,186
2,54,104,1338
2,54,111,14202
2,54,65,90
2,54,86,90
2,54,79,90
2,54,111,90
2,54,84,90
2,54,80,90
2,54,85,90
2,54,111,90
2,54,79,90
2,54,95,90
2,54,67,90
2,54,111,90
2,54,91,90
2,54,73,90
2,54,87,90
2,54,111,90
2,54,82,90
2,54,80,90
2,54,73,90
2,54,111,90
2,54,86,90
2,54,73,90
2,54,78,90
2,54,111,90
2,54,82,90
2,54,73,90
2,54,89,90
2,54,111,90
2,54,89,90
2,54,70,90
2,54,85,90
2,54,111,90
2,54,90,90
2,54,84,90
2,54,78,90
2,54,111,90
2,54,92,90
2,54,78,90
2,54,82,90
2,54,111,90
2,54,82,90
2,54,85,90
2,54,80,90
2,54,111,90
2,54,77,90
2,54,74,90
2,54,85,90
2,54,111,90
2,54,85,90
2,54,80,90
2,54,89,90
2,54,111,90
2,54,87,90
2,54,74,90
2,54,90,90
2,54,111,90
2,54,91,90
2,54,86,90
2,54,100,90
2,54,111,90
2,54,94,90
2,54,82,90
2,54,86,90
2,54,111,90
2,54,85,90
2,54,82,90
2,54,82,90
2,54,111,90
2,54,83,90
2,54,71,90
2,54,72,90
2,54,111,90
2,54,76,90
2,54,65,90
2,54,73,90
2,54,111,90
2,54,78,90
2,54,66,90
2,54,73,90
2,54,111,90
2,54,90,186
2,54,111,186
2,54,72,186
2,54,111,186
2,54,62,186
2,54,111,186
2,54,62,186
2,54,104,1338
2,54,104,3066
3,88,80,5544
3,88,105,40
3,88,96,20
3,90,96,22
3,92,94,42
3,88,102,28
3,83,114,154
3,85,106,120
3,81,106,4
3,81,30,192
3,83,111,278
3,81,108,114
3,85,98,10
3,83,91,82
3,81,115,4
3,83,105,30
3,88,99,800
3,88,110,42
3,88,102,42
3,90,98,34
3,92,92,44
3,88,103,28
3,83,101,382
3,85,97,14
3,81,127,42
3,83,114,28
3,81,106,118
3,85,114,16
3,83,92,576
3,81,92,4
3,83,104,4
3,86,125,192
3,86,120,30
3,85,110,40
3,83,114,32
3,81,92,18
3,81,118,42
3,78,107,40
3,83,124,24
3,86,121,862
3,86,117,70
3,85,106,6
3,83,127,32
3,81,86,62
3,81,110,54
3,78,94,48
3,83,126,22
3,81,80,32
3,86,110,54
3,90,110,0
3,86,110,44
3,90,114,0
3,90,107,46
3,86,110,0
3,90,119,50
3,86,120,0
3,88,104,86
3,85,105,0
3,81,92,18
3,85,102,0
3,78,113,74
3,86,124,196
3,90,126,0
3,83,118,60
3,90,121,66
3,86,121,0
3,90,114,44
3,86,110,0
3,86,112,50
3,90,111,0
3,90,115,52
3,86,114,0
3,88,110,92
3,85,106,0
3,81,85,26
3,85,101,0
3,78,121,64
3,86,127,192
3,90,123,0
3,88,121,56
3,83,119,0
3,86,119,88
3,90,117,0
3,90,107,48
3,86,109,0
3,90,106,52
3,86,108,0
3,86,119,58
3,90,121,0
3,88,105,34
3,85,106,0
3,85,106,38
3,78,120,88
3,90,116,212
3,86,119,0
3,88,121,60
3,83,110,0
3,83,121,186
3,85,101,46
3,83,119,52
3,81,127,52
3,78,100,16
3,73,92,8
3,76,102,16
3,88,80,850
3,88,105,40
3,88,96,20
3,90,96,22
3,92,94,42
3,88,102,28
3,83,114,154
3,85,106,120
3,81,106,4
3,81,30,192
3,83,111,278
3,81,108,114
3,85,98,10
3,83,91,82
3,81,115,4
3,83,105,30
3,88,98,608
3,88,110,20
3,88,114,50
3,88,104,18
3,90,109,32
3,92,101,66
3,93,116,38
3,92,100,26
3,90,106,48
3,88,97,52
3,85,108,26
3,85,96,50
3,83,108,98
3,85,108,68
3,83,124,40
3,83,118,204
3,81,44,16
3,85,127,86
3,76,92,480
3,64,96,148
3,69,93,8
3,71,84,10
3,73,92,26
3,71,79,16
3,69,97,26
3,86,125,246
3,86,120,30
3,85,110,40
3,83,114,32
3,81,92,18
3,81,118,42
3,78,107,40
3,83,124,24
3,86,121,862
3,86,117,70
3,85,106,6
3,83,127,32
3,81,86,62
3,81,110,54
3,78,94,48
3,83,126,22
3,81,80,32
3,86,110,54
3,90,110,0
3,86,110,44
3,90,114,0
3,90,107,46
3,86,110,0
3,90,119,50
3,86,120,0
3,88,104,86
3,85,105,0
3,81,92,18
3,85,102,0
