track,note,velocity,time
6,57,46,787
6,62,70,21
6,57,0,3
6,62,0,358
6,57,49,96
6,57,0,13
6,57,59,4
6,57,0,326
6,59,44,92
6,60,58,32
6,59,0,4
6,60,0,281
6,60,55,164
6,60,0,329
6,66,50,97
6,57,53,0
6,62,48,0
6,57,0,93
6,66,0,1
6,62,0,1
6,66,58,24
6,62,48,0
6,57,45,0
6,62,0,66
6,57,0,13
6,57,55,10
6,62,60,1
6,66,0,5
6,66,65,23
6,66,0,37
6,57,0,10
6,62,0,9
6,57,62,5
6,66,56,0
6,62,64,0
6,66,0,153
6,62,0,6
6,57,0,4
6,61,60,17
6,57,34,3
6,64,29,1
6,57,0,84
6,61,0,16
6,64,0,2
6,61,50,14
6,57,55,1
6,64,64,0
6,57,0,64
6,61,0,10
6,64,0,2
6,57,58,14
6,64,51,2
6,61,56,0
6,67,51,30
6,57,0,26
6,64,0,3
6,67,0,1
6,61,0,19
6,57,60,10
6,64,59,0
6,67,65,1
6,61,53,0
6,64,0,148
6,61,0,1
6,67,0,0
6,57,0,9
6,66,58,22
6,57,40,1
6,62,51,3
6,69,42,3
6,57,0,349
6,66,0,15
6,62,0,0
6,69,0,4
6,57,45,99
6,69,61,3
6,60,50,0
6,64,51,2
6,64,0,217
6,57,0,13
6,69,0,0
6,60,0,0
6,57,33,8
6,61,31,4
6,69,56,3
6,64,42,4
6,61,0,194
6,57,0,4
6,57,50,14
6,64,0,1
6,69,0,4
6,66,36,14
6,62,66,2
6,57,0,4
6,62,0,372
6,66,0,4
6,57,57,100
6,61,42,1
6,57,0,375
6,61,0,1
6,57,54,39
6,59,57,25
6,57,0,6
6,60,73,16
6,59,0,3
6,60,0,312
6,60,72,159
6,58,62,20
6,60,0,1
6,55,38,3
6,58,0,406
6,55,0,4
6,57,53,67
6,62,48,0
6,66,63,3
6,57,0,90
6,62,0,2
6,66,0,2
6,62,48,22
6,57,45,0
6,66,68,3
6,62,0,63
6,57,0,13
6,57,55,10
6,62,60,1
6,66,0,8
6,66,65,20
6,66,0,37
6,57,0,10
6,62,0,9
6,57,62,5
6,66,56,0
6,62,64,0
6,66,0,153
6,62,0,6
6,57,0,4
6,61,60,17
6,57,34,3
6,64,29,1
6,57,0,84
6,61,0,16
6,64,0,2
6,61,50,14
6,57,55,1
6,64,64,0
6,57,0,64
6,61,0,10
6,64,0,2
6,57,48,14
6,64,51,2
6,61,46,0
6,67,71,30
6,57,0,26
6,64,0,3
6,67,0,1
6,61,0,19
6,57,60,10
6,64,59,0
6,61,53,1
6,67,76,0
6,64,0,148
6,67,0,1
6,61,0,0
6,57,0,9
6,66,58,22
6,57,40,1
6,69,58,2
6,62,51,1
6,57,0,352
6,66,0,15
6,69,0,0
6,62,0,0
6,57,45,103
6,69,61,3
6,60,50,0
6,65,51,2
6,65,0,217
6,57,0,13
6,69,0,0
6,60,0,0
6,57,33,8
6,60,31,4
6,65,42,0
6,69,56,3
6,65,0,101
6,69,0,1
6,57,0,0
6,60,0,3
6,57,33,6
6,60,31,4
6,65,53,2
6,69,56,1
6,69,0,102
6,57,0,0
6,65,0,1
6,60,0,2
6,67,63,12
6,59,34,0
6,64,34,2
6,59,0,80
6,67,0,1
6,64,0,1
6,67,53,6
6,59,51,0
6,67,0,18
6,59,0,2
6,59,39,10
6,67,52,0
6,64,34,2
6,67,0,16
6,59,0,6
6,64,0,10
6,65,47,26
6,69,58,0
6,60,43,4
6,69,0,89
6,65,0,7
6,60,0,4
6,69,46,16
6,60,34,2
6,65,35,28
6,69,0,13
6,60,0,10
6,65,0,6
6,60,34,0
6,69,53,1
6,65,55,0
6,69,0,42
6,65,0,1
6,69,56,17
6,65,49,0
6,60,0,13
6,65,0,5
6,69,0,4
6,67,63,4
6,59,34,0
6,64,34,2
6,59,0,80
6,67,0,1
6,64,0,1
6,67,53,6
6,59,51,0
6,67,0,18
6,59,0,2
6,59,39,10
6,67,52,0
6,64,34,2
6,67,0,16
6,59,0,6
6,64,0,10
6,65,47,26
6,69,58,0
6,60,43,4
6,69,0,89
6,65,0,7
6,60,0,4
6,69,46,16
6,60,34,2
6,65,35,28
6,69,0,13
6,60,0,10
6,65,0,6
6,60,34,0
6,69,53,1
6,65,55,0
6,69,0,42
6,65,0,1
6,69,56,17
6,65,49,0
6,65,0,18
6,69,0,4
6,60,0,3
6,67,63,4
6,59,34,0
6,64,34,2
6,59,0,80
6,67,0,1
6,64,0,1
6,67,53,6
6,59,51,0
6,67,0,18
6,59,0,2
6,59,39,10
6,67,52,0
6,64,34,2
6,67,0,16
6,59,0,6
6,64,0,10
6,65,47,26
6,69,58,0
6,60,43,4
6,69,0,89
6,65,0,7
6,60,0,4
6,69,46,16
6,60,34,2
6,65,35,28
6,69,0,13
6,60,0,10
6,65,0,6
6,60,34,0
6,69,53,1
6,65,55,0
6,69,0,42
6,65,0,1
6,69,56,17
6,65,49,0
6,65,0,18
6,69,0,4
6,60,0,3
6,67,63,4
6,59,34,0
6,64,34,2
6,59,0,80
6,67,0,1
6,64,0,1
6,67,53,6
6,59,51,0
6,67,0,18
6,59,0,2
6,59,39,10
6,67,52,0
6,64,34,2
6,67,0,16
6,59,0,6
6,64,0,10
6,65,47,26
6,69,58,0
6,60,43,4
6,69,0,89
6,65,0,7
6,60,0,4
6,69,46,16
6,60,34,2
6,65,35,28
6,69,0,13
6,60,0,10
6,65,0,6
6,60,34,0
6,69,53,1
6,65,55,0
6,69,0,42
6,65,0,1
6,69,56,17
6,65,49,0
6,65,0,18
6,69,0,4
6,60,0,3
6,69,63,4
6,61,34,0
6,66,34,2
6,61,0,80
6,69,0,1
6,66,0,1
6,69,53,6
6,61,51,0
6,69,0,18
6,61,0,2
6,61,39,10
6,69,52,0
6,66,34,2
6,69,0,16
6,61,0,6
6,66,0,10
6,67,47,26
6,71,58,0
6,62,43,4
6,71,0,89
6,67,0,7
6,62,0,4
6,71,46,16
6,62,34,2
6,67,35,28
6,71,0,13
6,62,0,10
6,67,0,6
6,62,34,0
6,71,53,1
6,67,55,0
6,71,0,42
6,67,0,1
6,71,56,17
6,67,49,0
6,67,0,18
6,71,0,4
6,62,0,3
6,61,52,1
6,69,63,3
6,66,34,2
6,61,0,77
6,69,0,4
6,66,0,1
6,69,53,6
6,61,51,0
6,69,0,18
6,61,0,2
6,69,52,10
6,61,46,1
6,66,34,1
6,69,0,16
6,66,0,16
6,61,0,10
6,71,58,16
6,69,64,30
6,71,0,4
6,66,56,26
6,69,0,2
6,64,62,28
6,66,0,7
6,66,58,23
6,64,0,7
6,66,0,239
6,64,50,470
6,62,54,34
6,64,0,4
6,61,50,26
6,62,0,3
6,69,59,54
6,61,0,151
6,69,0,158
6,67,57,52
6,66,57,25
6,67,0,6
6,67,62,16
6,66,0,3
6,67,0,312
6,64,45,145
6,62,51,12
6,64,0,16
6,60,49,6
6,62,0,10
6,58,59,5
6,60,0,8
6,58,0,391
6,57,53,67
6,62,48,0
6,66,63,3
6,57,0,90
6,62,0,2
6,66,0,2
6,62,48,22
6,57,45,0
6,66,68,3
6,62,0,63
6,57,0,13
6,57,55,10
6,62,60,1
6,66,0,8
6,66,65,20
6,66,0,37
6,57,0,10
6,62,0,9
6,57,62,5
6,66,56,0
6,62,64,0
6,66,0,153
6,62,0,6
6,57,0,4
6,57,34,20
6,64,29,1
6,61,60,3
6,61,0,60
6,62,47,0
6,57,0,21
6,64,0,18
6,62,0,5
6,62,50,9
6,57,55,1
6,64,44,0
6,62,0,60
6,61,46,1
6,57,0,3
6,64,0,12
6,61,0,10
6,57,48,4
6,64,51,2
6,61,46,0
6,67,61,30
6,57,0,26
6,64,0,3
6,67,0,1
6,61,0,19
6,57,60,10
6,64,59,0
6,61,53,1
6,67,58,0
6,64,0,148
6,67,0,1
6,61,0,0
6,57,0,9
6,57,53,21
6,62,48,0
6,66,53,3
6,57,0,90
6,62,0,2
6,66,0,2
6,62,48,22
6,57,45,0
6,66,58,3
6,62,0,63
6,57,0,13
6,57,45,10
6,62,40,1
6,66,0,8
6,66,55,20
6,66,0,44
6,57,0,3
6,62,0,9
6,57,52,5
6,66,56,0
6,62,54,0
6,66,0,153
6,62,0,6
6,57,0,4
6,67,50,17
6,62,34,3
6,69,29,1
6,62,0,84
6,67,0,16
6,69,0,2
6,67,40,14
6,62,50,1
6,69,44,0
6,62,0,64
6,67,0,10
6,69,0,2
6,59,38,14
6,64,51,2
6,64,0,21
6,64,51,6
6,69,29,4
6,59,0,25
6,59,32,33
6,62,46,1
6,64,0,3
6,69,0,40
6,69,29,17
6,62,0,89
6,59,0,9
6,69,0,4
6,57,46,17
6,66,40,0
6,69,46,3
6,62,46,2
6,57,0,300
6,69,0,3
6,62,0,3
6,66,0,3
6,65,46,161
6,60,48,4
6,69,46,5
6,60,0,378
6,65,0,22
6,69,0,8
6,64,37,68
6,61,38,1
6,69,38,4
6,64,0,416
6,61,0,1
6,69,0,9
6,66,36,49
6,62,39,2
6,56,49,216
6,62,0,9
6,66,0,0
6,57,64,9
6,56,0,5
6,66,61,51
6,57,0,83
6,66,0,86
6,57,49,121
6,59,67,21
6,57,0,3
6,59,0,37
6,62,61,2
6,62,0,17
6,64,72,47
6,64,0,1
6,65,68,9
6,64,64,25
6,65,0,9
6,62,69,22
6,64,0,3
6,62,0,25
6,59,68,0
6,62,62,23
6,59,0,14
6,62,0,158
6,58,70,471
6,67,65,3
6,58,0,10
6,67,0,2
6,67,50,14
6,58,65,1
6,67,0,46
6,58,0,7
6,67,55,7
6,60,74,4
6,67,0,20
6,60,0,1
6,58,82,41
6,67,68,1
6,58,0,39
6,67,0,13
6,57,80,25
6,67,53,3
6,57,0,16
6,67,0,3
6,67,75,38
6,55,75,2
6,67,0,30
6,55,0,3
6,57,46,17
6,62,66,11
6,66,74,3
6,57,0,360
6,62,0,13
6,66,0,9
6,57,61,91
6,57,0,24
6,59,72,7
6,59,0,21
6,59,73,33
6,59,0,65
6,61,78,16
6,61,0,22
6,62,78,10
6,62,0,19
6,64,79,44
6,64,0,17
6,66,70,42
6,66,0,21
6,66,82,45
6,66,0,35
6,76,90,15
6,76,0,92
6,74,83,64
6,74,0,21
6,72,71,2
6,72,0,29
6,67,80,27
6,64,60,21
6,67,0,9
6,58,67,35
6,64,0,4
6,58,0,100
6,58,70,15
6,67,65,3
6,58,0,10
6,67,0,2
6,58,65,23
6,67,50,0
6,67,0,29
6,60,74,19
6,67,55,0
6,58,0,5
6,67,0,61
6,60,0,0
6,58,82,13
6,67,68,0
6,58,0,50
6,67,0,2
6,57,80,17
6,67,53,3
6,57,0,16
6,67,0,3
6,67,75,38
6,55,75,2
6,55,0,43
6,67,0,6
6,66,59,14
6,57,59,0
6,62,59,1
6,62,0,61
6,57,0,2
6,66,0,1
6,66,59,51
6,57,59,0
6,62,59,1
6,62,0,62
6,66,0,2
6,57,0,3
6,57,59,53
6,62,59,0
6,66,59,0
6,62,0,72
6,66,0,3
6,57,0,3
6,66,59,44
6,57,59,0
6,62,59,1
6,62,0,66
6,66,0,0
6,57,0,4
6,69,59,50
6,61,59,0
6,64,59,1
6,64,0,63
6,61,0,0
6,69,0,1
6,64,59,53
6,69,59,0
6,61,59,0
6,61,0,70
6,69,0,3
6,64,0,0
6,61,59,46
6,69,59,0
6,64,59,0
6,64,0,87
6,69,0,2
6,61,0,0
6,61,59,35
6,69,59,0
6,64,59,1
6,64,0,69
6,69,0,0
6,61,0,2
6,67,59,44
6,60,59,0
6,64,59,1
6,64,0,71
6,67,0,2
6,60,0,2
6,60,59,44
6,64,59,0
6,67,59,0
6,67,0,81
6,64,0,1
6,60,0,3
6,64,59,36
6,60,59,0
6,67,59,0
6,60,0,79
6,64,0,2
6,67,0,2
6,60,59,37
6,67,59,0
6,64,59,1
6,67,0,66
6,64,0,1
6,60,0,2
6,67,50,50
6,58,50,3
6,62,50,0
6,58,0,60
6,67,0,9
6,62,0,7
6,67,58,41
6,58,61,1
6,62,61,0
6,67,0,14
6,62,0,3
6,58,0,2
6,62,63,15
6,67,50,1
6,58,57,0
6,67,0,49
6,58,0,10
6,62,0,6
6,67,62,22
6,62,62,1
6,58,62,2
6,67,0,24
6,62,0,1
6,58,0,6
6,67,57,24
6,62,57,0
6,58,57,3
6,62,0,16
6,67,0,7
6,58,0,9
6,58,64,22
6,67,64,6
6,62,64,2
6,58,0,14
6,62,0,3
6,67,0,2
6,67,65,38
6,58,65,0
6,62,65,2
6,62,0,14
6,67,0,0
6,58,0,4
6,57,53,38
6,62,48,0
6,66,63,3
6,57,0,90
6,62,0,2
6,66,0,2
6,62,48,22
6,57,45,0
6,66,68,3
6,62,0,63
6,57,0,13
6,57,55,10
6,62,60,1
6,66,0,8
6,66,65,20
6,66,0,37
6,57,0,10
6,62,0,9
6,57,62,5
6,66,56,0
6,62,64,0
6,66,0,153
6,62,0,6
6,57,0,4
6,57,34,20
6,64,29,1
6,61,60,3
6,61,0,60
6,62,47,0
6,57,0,21
6,64,0,18
6,62,0,5
6,62,50,9
6,57,55,1
6,64,44,0
6,62,0,60
6,61,46,1
6,57,0,3
6,64,0,12
6,61,0,10
6,57,48,4
6,64,51,2
6,61,46,0
6,67,61,30
6,57,0,26
6,64,0,3
6,67,0,1
6,61,0,19
6,57,60,10
6,64,59,0
6,61,53,1
6,67,58,0
6,64,0,148
6,67,0,1
6,61,0,0
6,57,0,9
6,57,53,21
6,62,48,0
6,66,53,3
6,57,0,90
6,62,0,2
6,66,0,2
6,62,48,22
6,57,45,0
6,66,58,3
6,62,0,63
6,57,0,13
6,57,45,10
6,62,40,1
6,66,0,8
6,66,55,20
6,66,0,44
6,57,0,3
6,62,0,9
6,57,52,5
6,66,56,0
6,62,54,0
6,66,0,153
6,62,0,6
6,57,0,4
6,67,50,17
6,62,34,3
6,69,29,1
6,62,0,84
6,67,0,16
6,69,0,2
6,67,40,14
6,62,50,1
6,69,44,0
6,62,0,64
6,67,0,10
6,69,0,2
6,59,38,14
6,64,51,2
6,64,0,21
6,64,51,6
6,69,29,4
6,59,0,25
6,59,32,33
6,62,46,1
6,64,0,3
6,69,0,40
6,69,29,17
6,62,0,89
6,59,0,9
6,69,0,4
6,57,46,17
6,66,40,0
6,69,46,3
6,62,46,2
6,57,0,300
6,69,0,3
6,62,0,3
6,66,0,3
6,65,37,167
6,60,34,1
6,69,37,3
6,60,0,380
6,65,0,25
6,69,0,3
6,64,33,67
6,61,34,1
6,69,34,4
6,64,0,416
6,61,0,1
6,69,0,9
6,66,36,49
6,62,39,2
6,66,0,723
6,62,0,6
7,69,43,832
7,62,47,0
7,66,52,0
7,50,38,0
7,57,37,2
7,57,0,102
7,62,0,5
7,69,0,3
7,66,0,1
7,66,48,9
7,69,52,0
7,57,37,1
7,62,50,0
7,50,0,44
7,50,39,12
7,57,0,46
7,62,0,0
7,69,0,7
7,66,0,2
7,66,58,7
7,69,51,1
7,62,59,1
7,57,37,0
7,57,0,102
7,69,0,3
7,62,0,2
7,66,0,0
7,50,0,2
7,66,47,9
7,69,51,1
7,62,50,1
7,57,37,0
7,50,47,56
7,57,0,45
7,62,0,6
7,69,0,2
7,66,0,1
7,49,39,7
7,64,54,1
7,57,48,0
7,69,38,1
7,61,61,1
7,50,0,7
7,61,0,90
7,57,0,3
7,64,0,5
7,69,0,5
7,64,47,9
7,61,49,1
7,69,38,0
7,57,43,1
7,49,0,36
7,49,39,23
7,57,0,49
7,69,0,1
7,61,0,1
7,64,0,6
7,64,44,2
7,57,52,0
7,61,50,1
7,69,48,0
7,57,0,104
7,69,0,1
7,61,0,4
7,64,0,8
7,64,47,1
7,61,50,0
7,57,53,0
7,69,48,0
7,49,0,52
7,69,0,57
7,64,0,4
7,61,0,0
7,64,49,4
7,60,49,1
7,48,38,1
7,57,0,1
7,55,40,0
7,55,0,99
7,64,0,6
7,60,0,3
7,60,50,8
7,64,47,1
7,55,47,1
7,48,0,49
7,48,36,13
