track,note,velocity,time
0,53,54,132
0,57,57,0
0,60,63,0
0,53,99,20
0,57,51,0
0,60,54,0
0,53,51,0
0,57,63,0
0,60,60,0
0,53,60,12
0,57,51,0
0,60,54,0
0,53,87,12
0,57,54,0
0,60,63,0
0,53,57,0
0,57,63,0
0,60,57,0
0,53,57,4
0,57,51,0
0,60,63,0
0,53,57,12
0,57,60,0
0,60,66,0
0,53,87,12
0,60,57,0
0,65,54,4
0,50,91,4
0,53,66,0
0,58,60,0
0,62,60,0
0,53,54,20
0,58,57,0
0,62,63,0
0,53,54,4
0,58,51,0
0,62,63,0
0,50,87,12
0,53,57,0
0,58,51,0
0,62,66,0
0,53,63,12
0,58,60,0
0,62,54,0
0,53,63,4
0,58,54,0
0,62,57,0
0,50,109,0
0,50,83,0
0,53,60,12
0,58,51,0
0,62,66,0
0,53,60,4
0,58,63,0
0,62,63,0
0,48,110,12
0,50,95,0
0,53,60,0
0,58,57,0
0,62,60,0
0,53,54,12
0,57,57,0
0,60,63,0
0,41,111,4
0,53,83,20
0,57,51,0
0,60,54,0
0,72,71,20
0,69,74,32
0,65,70,28
0,51,113,0
0,60,75,0
0,53,51,0
0,57,63,0
0,60,60,0
0,53,60,12
0,57,51,0
0,60,54,0
0,53,79,12
0,57,54,0
0,60,63,0
0,53,57,0
0,57,63,0
0,60,57,0
0,53,57,4
0,57,51,0
0,60,63,0
0,53,57,12
0,57,60,0
0,60,66,0
0,53,83,12
0,60,57,0
0,65,54,4
0,50,91,4
0,53,66,0
0,58,60,0
0,62,60,0
0,53,54,20
0,58,57,0
0,62,63,0
0,70,78,16
0,67,82,28
0,62,86,32
0,51,106,4
0,53,54,0
0,58,51,0
0,62,63,0
0,58,84,11
0,50,83,12
0,53,57,0
0,58,51,0
0,62,66,0
0,53,63,12
0,58,60,0
0,62,54,0
0,53,63,4
0,58,54,0
0,62,57,0
0,38,114,0
0,50,87,0
0,53,60,0
0,58,51,0
0,62,66,0
0,74,77,43
0,70,87,26
0,51,107,4
0,53,60,0
0,58,63,0
0,62,63,0
0,65,70,23
0,62,75,24
0,36,113,12
0,50,83,0
0,53,60,0
0,58,57,0
0,62,60,0
0,69,87,7
0,65,74,17
0,35,114,12
0,42,73,0
0,51,123,0
0,29,107,0
0,57,66,0
0,60,51,0
0,64,54,0
0,60,84,0
0,57,76,49
0,42,39,139
0,64,118,0
0,57,54,4
0,60,66,0
0,64,57,0
0,65,114,0
0,37,57,4
0,42,69,0
0,57,63,0
0,60,57,0
0,64,60,0
0,64,101,0
0,35,99,100
0,42,53,0
0,57,54,0
0,60,54,0
0,64,66,0
0,35,111,188
0,42,73,0
0,57,57,20
0,60,66,0
0,64,66,0
0,37,65,4
0,42,40,0
0,57,66,0
0,60,57,0
0,64,66,0
0,60,102,0
0,37,65,100
0,42,66,0
0,57,63,0
0,60,60,0
0,64,57,0
0,57,112,20
0,35,96,96
0,37,62,0
0,42,37,0
0,35,109,15
0,42,78,0
0,31,113,0
0,58,60,0
0,62,54,0
0,65,66,0
0,55,106,0
0,42,56,12
0,57,101,0
0,58,60,20
0,62,54,0
0,65,54,0
0,37,62,4
0,42,68,0
0,58,66,0
0,62,66,0
0,65,63,0
0,35,95,100
0,42,46,0
0,58,66,0
0,62,66,0
0,65,60,0
0,57,104,0
0,35,107,24
0,42,73,0
0,36,109,0
0,38,111,4
0,58,66,0
0,62,51,0
0,65,57,0
0,37,53,4
0,42,37,0
0,41,105,0
0,58,60,0
0,62,63,0
0,65,66,0
0,38,105,4
0,37,54,4
0,42,73,0
0,41,110,0
0,58,51,0
0,62,54,0
0,65,63,0
0,35,89,12
0,37,66,0
0,42,50,0
0,29,108,0
0,58,51,0
0,62,63,0
0,65,60,0
0,35,119,20
0,42,70,0
0,57,60,0
0,60,66,0
0,64,60,0
0,42,42,188
0,64,117,0
0,57,60,4
0,60,54,0
0,64,57,0
0,65,109,0
0,37,55,4
0,42,69,0
0,57,57,0
0,60,57,0
0,64,54,0
0,64,106,0
0,65,100,4
0,35,97,4
0,42,50,0
0,57,63,0
0,60,66,0
0,64,66,0
0,64,106,0
0,35,124,188
0,42,83,0
0,57,51,20
0,60,54,0
0,64,60,0
0,37,63,4
0,42,50,0
0,57,51,0
0,60,54,0
0,64,66,0
0,60,112,0
0,37,63,100
0,42,65,0
0,57,54,0
0,60,57,0
0,64,51,0
0,57,104,20
0,35,102,96
0,37,63,0
0,42,46,0
0,35,120,20
0,42,83,0
0,31,114,0
0,58,54,0
0,62,63,0
0,65,54,0
0,55,117,0
0,42,42,12
0,57,102,0
0,58,54,20
0,62,60,0
0,65,63,0
0,37,68,4
0,42,81,0
0,58,54,0
0,62,66,0
0,65,63,0
0,35,98,100
0,42,46,0
0,58,51,0
0,62,60,0
0,65,57,0
0,57,100,0
0,55,104,4
0,35,111,4
0,42,66,0
0,36,110,0
0,53,102,0
0,38,107,4
0,58,51,0
0,62,66,0
0,65,66,0
0,37,58,4
0,42,42,0
0,41,108,0
0,58,57,0
0,62,60,0
0,65,63,0
0,38,108,4
0,37,61,4
0,42,79,0
0,41,105,0
0,58,51,0
0,62,63,0
0,65,63,0
0,35,106,12
0,37,66,0
0,42,54,0
0,29,108,0
0,35,123,12
0,42,66,0
0,34,113,0
0,62,51,0
0,65,66,0
0,69,63,0
0,42,56,188
0,62,51,20
0,65,63,0
0,69,54,0
0,53,102,0
0,37,68,4
0,42,70,0
0,62,51,0
0,65,54,0
0,69,54,0
0,65,106,0
0,35,89,12
0,42,46,0
0,62,57,0
0,65,60,0
0,69,54,0
0,65,101,0
0,65,118,4
0,35,116,96
0,42,82,0
0,62,54,20
0,65,66,0
0,69,51,0
0,37,56,4
0,42,51,0
0,62,60,0
0,65,66,0
0,69,54,0
0,64,100,0
0,37,53,12
0,42,67,0
0,62,66,0
0,65,51,0
0,69,66,0
0,62,103,0
0,35,106,12
0,37,61,0
0,42,54,0
0,34,107,0
0,62,63,0
0,65,54,0
0,69,57,0
0,64,105,0
0,35,112,12
0,42,83,0
0,33,111,0
0,60,60,0
0,64,54,0
0,67,66,0
0,42,41,20
0,60,107,0
0,60,63,20
0,64,63,0
0,67,57,0
0,37,57,4
0,42,74,0
0,60,63,0
0,64,54,0
0,67,51,0
0,35,93,100
0,42,40,0
0,60,57,0
0,64,60,0
0,67,51,0
0,35,119,188
0,42,83,0
0,60,60,20
0,64,60,0
0,67,63,0
0,37,71,4
0,42,50,0
0,60,54,0
0,64,54,0
0,67,54,0
0,37,60,100
0,42,76,0
0,60,51,0
0,64,60,0
0,67,66,0
0,35,105,100
0,37,69,0
0,42,44,0
0,60,66,0
0,64,66,0
0,67,51,0
0,60,116,0
0,35,107,12
0,42,72,0
0,31,106,0
0,58,54,0
0,62,54,0
0,65,57,0
0,57,104,0
0,42,48,12
0,55,100,0
0,58,57,20
0,62,57,0
0,65,51,0
0,37,54,4
0,42,68,0
0,58,66,0
0,62,60,0
0,65,51,0
0,55,118,0
0,35,90,12
0,42,52,0
0,58,51,0
0,62,51,0
0,65,54,0
0,55,106,0
0,35,117,188
0,42,78,0
0,58,60,20
0,60,60,0
0,62,54,0
0,65,66,0
0,37,70,4
0,42,46,0
0,58,60,0
0,62,54,0
0,65,66,0
0,37,55,60
0,42,68,0
0,58,63,0
0,62,66,0
0,65,54,0
0,48,114,0
0,35,97,8
0,37,68,0
0,42,53,0
0,58,51,0
0,62,63,0
0,65,66,0
0,48,100,0
0,35,105,8
0,42,66,0
0,36,113,0
0,58,57,0
0,62,63,0
0,65,57,0
0,57,114,0
0,42,40,8
0,60,100,0
0,37,71,8
0,42,82,0
0,57,119,0
0,35,94,8
0,42,41,0
0,58,66,0
0,62,57,0
0,65,60,0
0,55,102,0
0,35,120,188
0,42,70,0
0,58,66,20
0,62,54,0
0,65,63,0
0,37,56,4
0,42,42,0
0,58,60,0
0,62,51,0
0,65,60,0
0,37,70,24
0,42,80,0
0,36,107,0
0,58,63,0
0,62,54,0
0,65,63,0
0,40,110,4
0,35,93,4
0,37,69,0
0,42,50,0
0,43,107,0
0,58,51,0
0,62,57,0
0,65,66,0
0,35,108,12
0,42,74,0
0,51,115,0
0,29,113,0
0,57,66,0
0,60,57,0
0,64,66,0
0,42,53,188
0,64,107,0
0,57,51,4
0,60,51,0
0,64,66,0
0,65,101,0
0,37,56,4
0,42,67,0
0,57,63,0
0,60,54,0
0,64,60,0
0,64,117,0
0,35,101,100
0,42,42,0
0,57,54,0
0,60,57,0
0,64,51,0
0,35,105,188
0,42,75,0
0,57,63,20
0,60,63,0
0,64,66,0
0,37,52,4
0,42,53,0
0,57,51,0
0,60,60,0
0,64,57,0
0,65,102,0
0,69,118,0
0,72,119,0
0,60,105,0
0,37,70,100
0,42,81,0
0,57,63,0
0,60,66,0
0,64,51,0
0,65,100,4
0,69,114,0
0,72,119,0
0,57,108,0
0,35,106,96
0,37,63,0
0,42,45,0
0,57,57,0
0,60,57,0
0,64,63,0
0,35,110,16
0,42,81,0
0,31,111,0
0,58,63,0
0,62,63,0
0,65,54,0
0,58,102,0
0,62,112,0
0,67,114,0
0,55,103,0
0,42,55,12
0,57,107,0
0,58,54,20
0,62,66,0
0,65,51,0
0,37,55,4
0,42,81,0
0,58,63,0
0,62,51,0
0,65,66,0
0,35,97,100
0,42,43,0
0,58,51,0
0,62,63,0
0,65,66,0
0,57,105,0
0,35,109,24
0,42,83,0
0,36,108,0
0,38,107,8
0,58,57,0
0,62,66,0
0,65,66,0
0,37,56,4
0,42,43,0
0,41,112,0
0,58,63,0
0,62,51,0
0,65,57,0
0,38,114,4
0,37,60,4
0,42,84,0
0,41,112,0
0,58,57,0
0,62,63,0
0,65,51,0
0,35,89,12
0,37,61,0
0,42,46,0
0,29,109,0
0,58,60,0
0,62,54,0
0,65,54,0
0,35,105,20
0,42,66,0
0,57,54,0
0,60,57,0
0,64,66,0
0,42,37,188
0,64,108,0
0,57,66,4
0,60,57,0
0,64,60,0
0,65,112,0
0,37,58,4
0,42,81,0
0,57,51,0
0,60,57,0
0,64,63,0
0,64,107,0
0,65,112,4
0,35,91,4
0,42,44,0
0,57,63,0
0,60,63,0
0,64,60,0
0,64,101,0
0,35,113,188
0,42,81,0
0,57,51,20
0,60,63,0
0,64,63,0
0,37,62,4
0,42,40,0
0,57,66,0
0,60,63,0
0,64,66,0
0,65,112,0
0,69,105,0
0,72,109,0
0,60,119,0
0,37,66,100
0,42,84,0
0,57,51,0
0,60,66,0
0,64,51,0
0,65,109,4
0,69,107,0
0,72,103,0
0,57,102,0
0,35,103,96
0,37,65,0
0,42,55,0
0,57,51,0
0,60,60,0
0,64,63,0
0,35,119,8
0,42,84,0
0,31,109,0
0,58,63,0
0,62,60,0
0,65,60,0
0,58,114,0
0,62,102,0
0,67,116,0
0,55,108,0
0,42,47,12
0,57,114,0
0,58,60,20
0,62,63,0
0,65,66,0
0,37,64,4
0,42,80,0
0,58,54,0
0,62,63,0
0,65,51,0
0,35,105,20
0,42,39,0
0,58,51,0
0,62,57,0
0,65,54,0
0,53,103,0
0,35,117,188
0,42,79,0
0,58,51,20
0,62,54,0
0,65,57,0
0,37,67,4
0,42,46,0
0,38,106,0
0,58,60,0
0,62,63,0
0,65,63,0
0,37,55,100
0,42,74,0
0,58,54,0
0,62,51,0
0,65,66,0
0,35,97,24
0,37,68,0
0,42,44,0
0,36,112,0
0,58,63,0
0,62,57,0
0,65,63,0
0,35,112,12
0,42,84,0
0,34,113,0
0,62,66,0
0,65,66,0
0,69,51,0
0,74,101,0
0,42,49,8
0,70,109,0
0,62,60,20
0,65,51,0
0,69,51,0
0,53,113,0
0,37,67,4
0,42,66,0
0,62,51,0
0,65,60,0
0,69,51,0
0,65,116,0
0,65,101,0
0,35,98,8
0,42,38,0
0,34,108,0
0,62,63,0
0,65,63,0
0,69,60,0
0,74,108,0
0,65,117,0
0,65,113,4
0,35,120,8
0,42,83,0
0,29,114,0
0,70,118,0
0,62,66,20
0,65,54,0
0,69,60,0
0,37,62,4
0,42,40,0
0,34,111,0
0,62,63,0
0,65,60,0
0,69,57,0
0,65,118,0
0,64,117,0
0,37,68,8
0,42,77,0
0,34,107,0
0,62,54,0
0,65,63,0
0,69,51,0
0,74,110,0
0,62,118,0
0,35,93,12
0,37,55,0
0,42,39,0
0,62,66,0
0,65,51,0
0,69,51,0
0,65,100,0
0,35,120,12
0,42,73,0
0,33,111,0
0,60,66,0
0,64,63,0
0,67,51,0
0,72,109,0
0,64,106,0
0,42,44,8
0,69,110,0
0,60,63,20
0,64,63,0
0,67,60,0
0,37,55,4
0,42,81,0
0,60,54,0
0,64,63,0
0,67,66,0
0,64,111,0
0,35,103,8
0,42,45,0
0,36,106,0
0,60,51,0
0,64,54,0
0,67,51,0
0,72,104,0
0,62,104,0
0,35,115,8
0,42,75,0
0,33,106,0
0,69,114,0
0,60,103,0
0,60,54,20
0,64,57,0
0,67,60,0
0,37,56,4
0,42,54,0
0,40,105,0
0,60,66,0
0,64,54,0
0,67,51,0
0,64,100,0
0,64,109,0
0,37,63,8
0,42,74,0
0,40,108,0
0,60,60,0
0,64,60,0
0,67,57,0
0,72,103,0
0,35,90,8
0,37,65,0
0,42,42,0
0,60,51,0
0,64,51,0
0,67,63,0
0,69,119,0
0,64,98,0
0,65,94,56
0,64,81,4
0,35,113,8
0,42,70,0
0,38,114,0
0,62,51,0
0,66,60,0
0,69,63,0
0,62,113,0
0,42,47,144
0,57,116,0
0,62,57,20
0,66,54,0
0,69,54,0
0,37,53,4
0,42,83,0
0,62,51,0
0,66,66,0
0,69,66,0
0,62,106,0
0,35,108,8
0,42,39,0
0,62,54,0
0,66,57,0
0,69,57,0
0,66,110,0
0,35,109,8
0,42,71,0
0,66,101,0
0,62,57,16
0,66,63,0
0,69,66,0
0,37,69,4
0,42,38,0
0,62,57,0
0,66,54,0
0,69,63,0
0,37,69,24
0,42,79,0
0,62,63,0
0,66,66,0
0,69,60,0
0,62,113,0
0,35,103,8
0,37,57,0
0,42,51,0
0,38,105,0
0,62,63,0
0,66,57,0
0,69,60,0
0,57,109,0
0,36,105,8
0,58,51,0
0,62,63,0
0,65,66,0
0,67,57,0
0,55,117,0
0,48,117,116
0,48,110,12
0,48,108,100
0,57,117,4
0,60,112,20
0,38,112,168
0,38,117,12
0,57,104,0
0,57,119,100
0,55,109,4
0,35,113,4
0,37,71,0
0,42,74,0
0,41,114,0
0,65,117,0
0,53,101,0
0,42,54,92
0,42,46,8
0,36,112,0
0,60,110,0
0,42,55,92
0,37,68,8
0,42,65,0
0,36,113,0
0,60,106,0
0,42,45,92
0,35,92,8
0,42,55,0
0,41,112,0
0,65,114,0
0,42,56,92
0,37,62,92
0,42,73,0
0,42,39,92
0,42,45,24
0,43,113,0
0,67,117,0
0,42,46,92
0,35,108,92
0,37,70,0
0,42,71,0
0,42,38,92
0,37,67,24
0,42,47,0
0,41,113,0
0,65,118,0
0,42,38,92
0,35,113,8
0,37,56,0
0,42,73,0
0,38,108,0
0,62,114,0
0,42,44,92
0,42,44,8
0,36,111,0
0,60,112,0
0,65,114,0
0,42,51,92
0,37,62,4
0,42,81,0
0,36,112,0
0,60,117,0
0,65,113,0
0,42,47,92
0,35,108,8
0,42,40,0
0,36,111,0
0,60,102,0
0,65,105,0
0,42,41,4
0,65,116,0
0,37,57,92
0,42,74,0
0,42,41,92
0,42,45,20
0,50,110,0
0,74,102,0
0,64,101,0
0,42,41,48
0,35,106,12
0,37,63,0
0,42,79,0
0,62,114,0
0,42,42,92
0,42,41,12
0,48,105,0
0,72,113,0
0,65,113,0
0,42,47,92
0,35,112,8
0,42,75,0
0,38,110,0
0,62,114,0
0,64,106,0
0,42,42,92
0,42,52,8
0,36,106,0
0,60,116,0
0,60,101,0
0,42,37,92
0,37,70,8
0,42,66,0
0,36,109,0
0,60,113,0
0,42,49,92
0,35,108,8
0,42,44,0
0,41,111,0
0,65,116,0
