track,note,velocity,time
3,69,89,0
3,69,0,55
3,67,89,0
3,67,0,170
3,69,80,0
3,69,0,107
3,67,85,0
3,67,0,102
3,74,89,0
3,74,0,111
3,71,93,0
3,71,0,486
3,69,89,0
3,69,0,97
3,67,93,0
3,67,0,120
3,66,93,0
3,66,0,120
3,69,72,0
3,69,0,108
3,67,72,0
3,67,0,30
3,67,85,0
3,67,0,60
3,66,89,0
3,66,0,108
3,64,76,0
3,64,0,85
3,66,64,0
3,66,0,21
3,67,80,0
3,67,0,45
3,69,89,0
3,64,85,0
3,69,0,4
3,64,0,439
3,69,85,0
3,69,0,106
3,67,80,0
3,67,0,119
3,64,85,0
3,64,0,86
3,62,89,0
3,62,0,792
3,71,113,0
3,71,0,98
3,76,85,0
3,76,0,43
3,78,85,0
3,78,0,617
3,79,93,0
3,79,0,110
3,78,72,0
3,76,72,0
3,78,0,1
3,76,0,52
3,71,72,0
3,71,0,425
3,71,98,0
3,71,0,38
3,72,76,0
3,72,0,25
3,71,85,0
3,71,0,165
3,69,85,0
3,67,89,0
3,69,0,9
3,67,0,100
3,69,80,0
3,69,0,117
3,71,85,0
3,71,0,118
3,74,80,0
3,74,0,115
3,71,89,0
3,71,0,623
3,64,62,0
3,64,0,7
3,64,76,0
3,64,0,26
3,64,98,0
3,64,0,159
3,69,89,0
3,69,0,5
3,66,80,0
3,66,0,14
3,66,68,0
3,66,0,30
3,66,89,0
3,66,0,156
3,66,72,0
3,66,0,90
3,64,89,0
3,64,0,85
3,64,89,0
3,64,0,32
3,64,93,0
3,64,0,91
3,69,89,0
3,69,0,102
3,66,72,0
3,66,0,260
3,64,62,0
3,64,0,7
3,64,76,0
3,64,0,26
3,64,98,0
3,64,0,159
3,69,89,0
3,69,0,5
3,66,80,0
3,66,0,14
3,66,68,0
3,66,0,30
3,66,89,0
3,66,0,156
3,66,72,0
3,66,0,90
3,64,76,0
3,64,0,92
3,64,80,0
3,64,0,27
3,64,89,0
3,64,0,162
3,69,85,0
3,69,0,103
3,66,89,0
3,66,0,239
3,64,80,1
3,64,0,223
3,62,93,0
3,62,0,518
3,69,89,0
3,69,0,55
3,67,89,0
3,67,0,170
3,69,80,0
3,69,0,107
3,67,85,0
3,67,0,102
3,74,89,0
3,74,0,111
3,71,93,0
3,71,0,486
3,69,89,0
3,69,0,97
3,67,93,0
3,67,0,120
3,66,93,0
3,66,0,120
3,69,72,0
3,69,0,108
3,67,72,0
3,67,0,30
3,67,85,0
3,67,0,60
3,66,89,0
3,66,0,108
3,64,76,0
3,64,0,85
3,66,64,0
3,66,0,21
3,67,80,0
3,67,0,45
3,69,89,0
3,64,85,0
3,69,0,4
3,64,0,439
3,69,85,0
3,69,0,106
3,67,80,0
3,67,0,119
3,64,85,0
3,64,0,86
3,62,89,0
3,62,0,792
3,71,113,0
3,71,0,98
3,76,85,0
3,76,0,43
3,78,85,0
3,78,0,617
3,79,93,0
3,79,0,110
3,78,72,0
3,76,72,0
3,78,0,1
3,76,0,52
3,71,72,0
3,71,0,425
3,71,98,0
3,71,0,38
3,72,76,0
3,72,0,25
3,71,85,0
3,71,0,165
3,69,85,0
3,67,89,0
3,69,0,9
3,67,0,100
3,69,80,0
3,69,0,117
3,71,85,0
3,71,0,118
3,74,80,0
3,74,0,115
3,71,89,0
3,71,0,623
3,64,62,0
3,64,0,7
3,64,76,0
3,64,0,26
3,64,98,0
3,64,0,159
3,69,89,0
3,69,0,5
3,66,80,0
3,66,0,14
3,66,68,0
3,66,0,30
3,66,89,0
3,66,0,156
3,66,72,0
3,66,0,90
3,64,89,0
3,64,0,85
3,64,89,0
3,64,0,32
3,64,93,0
3,64,0,91
3,69,89,0
3,69,0,102
3,66,72,0
3,66,0,260
3,64,62,0
3,64,0,7
3,64,76,0
3,64,0,26
3,64,98,0
3,64,0,159
3,69,89,0
3,69,0,5
3,66,80,0
3,66,0,14
3,66,68,0
3,66,0,30
3,66,89,0
3,66,0,156
3,66,72,0
3,66,0,90
3,64,76,0
3,64,0,92
3,64,80,0
3,64,0,27
3,64,89,0
3,64,0,162
3,69,85,0
3,69,0,103
3,66,89,0
3,66,0,239
3,64,80,1
3,64,0,223
3,62,93,0
3,62,0,518
3,71,93,0
3,71,0,25
3,71,93,0
3,71,0,162
3,72,93,0
3,72,0,98
3,71,98,0
3,71,0,105
3,69,80,0
3,69,0,55
3,67,93,0
3,67,0,711
3,67,107,0
3,67,0,50
3,69,93,0
3,69,0,88
3,71,98,0
3,71,0,145
3,71,98,0
3,71,0,80
3,71,93,0
3,71,0,73
3,71,93,0
3,71,0,28
3,76,98,0
3,76,0,166
3,74,98,0
3,74,0,106
3,71,85,0
3,71,0,111
3,69,85,0
3,69,0,64
3,67,98,0
3,67,0,117
3,69,76,0
3,69,0,91
3,71,89,0
3,71,0,93
3,67,93,0
3,67,0,435
3,67,98,0
3,67,0,48
3,67,102,0
3,67,0,120
3,69,85,0
3,69,0,102
3,71,89,0
3,71,0,106
3,67,89,0
3,67,0,344
3,69,93,0
3,69,0,84
3,71,93,0
3,71,0,110
3,79,89,0
3,79,0,820
3,69,89,0
3,69,0,55
3,67,89,0
3,67,0,170
3,69,80,0
3,69,0,107
3,67,85,0
3,67,0,102
3,74,89,0
3,74,0,111
3,71,93,0
3,71,0,486
3,69,93,0
3,69,0,120
3,67,93,0
3,67,0,117
3,66,72,0
3,66,0,85
3,64,72,0
3,64,0,108
3,66,72,0
3,66,0,30
3,67,85,0
3,67,0,60
3,66,89,0
3,66,0,108
3,64,76,0
3,64,0,85
3,66,64,0
3,66,0,21
3,67,80,0
3,67,0,45
3,69,89,0
3,64,85,0
3,69,0,4
3,64,0,439
3,69,85,0
3,69,0,106
3,66,80,0
3,66,0,119
3,64,85,0
3,64,0,86
3,62,89,0
3,62,0,792
3,71,113,0
3,71,0,98
3,76,85,0
3,76,0,43
3,78,85,0
3,78,0,617
3,79,93,0
3,79,0,110
3,78,72,0
3,76,72,0
3,78,0,1
3,76,0,52
3,71,72,0
3,71,0,425
3,71,98,0
3,71,0,38
3,72,76,0
3,72,0,25
3,71,85,0
3,71,0,165
3,69,85,0
3,67,89,0
3,69,0,9
3,67,0,100
3,69,80,0
3,69,0,117
3,71,85,0
3,71,0,118
3,74,80,0
3,74,0,115
3,71,89,0
3,71,0,623
3,64,62,0
3,64,0,7
3,64,76,0
3,64,0,26
3,64,98,0
3,64,0,159
3,69,89,0
3,69,0,5
3,66,80,0
3,66,0,14
3,66,68,0
3,66,0,30
3,66,89,0
3,66,0,156
3,66,72,0
3,66,0,90
3,64,89,0
3,64,0,85
3,64,89,0
3,64,0,32
3,64,93,0
3,64,0,91
3,69,89,0
3,69,0,102
3,66,72,0
3,66,0,260
3,62,93,0
3,62,0,120
3,64,62,0
3,64,0,7
3,64,76,0
3,64,0,26
3,64,98,0
3,64,0,159
3,69,89,0
3,69,0,5
3,66,80,0
3,66,0,14
3,66,68,0
3,66,0,30
3,66,89,0
3,66,0,156
3,66,72,0
3,66,0,90
3,64,76,0
3,64,0,92
3,64,80,0
3,64,0,27
3,64,89,0
3,64,0,162
3,69,85,0
3,69,0,103
3,66,89,0
3,66,0,239
3,64,80,0
3,64,0,223
3,62,93,0
3,62,0,518
3,71,93,0
3,71,0,25
3,71,93,0
3,71,0,162
3,72,93,18
3,72,0,98
3,71,98,22
3,71,0,105
3,69,80,0
3,69,0,55
3,67,93,0
3,67,0,711
3,67,107,0
3,67,0,50
3,69,93,0
3,69,0,88
3,71,98,0
3,71,0,145
3,71,98,0
3,71,0,80
3,71,93,0
3,71,0,73
3,71,93,0
3,71,0,28
3,76,98,0
3,76,0,166
3,74,98,0
3,74,0,106
3,71,85,0
3,71,0,111
3,69,85,0
3,69,0,64
3,67,98,0
3,67,0,117
3,69,76,0
3,69,0,91
3,71,89,0
3,71,0,93
3,67,93,0
3,67,0,435
3,67,98,0
3,67,0,48
3,67,102,0
3,67,0,120
3,69,85,0
3,69,0,102
3,71,89,0
3,71,0,106
3,67,89,0
3,67,0,344
3,69,93,0
3,69,0,84
3,79,93,0
3,79,0,830
4,43,33,912
4,42,26,480
4,43,0,3
4,42,0,455
4,40,31,22
4,38,41,480
4,40,0,7
4,38,0,469
4,36,27,4
4,35,44,480
4,36,0,14
4,35,0,454
4,33,42,12
4,38,40,480
4,33,0,3
4,38,0,429
4,57,28,8688
4,57,0,471
4,47,22,9
4,47,0,470
4,48,24,10
4,48,0,473
4,35,33,7
4,35,0,408
4,57,28,72
4,57,0,471
4,47,22,9
4,47,0,470
4,36,49,10
4,36,0,472
4,37,31,8
4,37,0,362
4,38,42,118
4,38,0,872
4,57,28,8728
4,57,0,471
4,47,22,9
4,47,0,470
4,48,24,10
4,48,0,473
4,35,33,7
4,35,0,408
4,57,28,72
4,57,0,471
4,47,22,9
4,47,0,470
4,36,49,10
4,36,0,472
4,37,31,8
4,37,0,362
4,38,56,118
4,38,0,855
4,39,50,105
4,115,1,0
4,115,0,5
4,39,0,803
4,40,46,152
4,40,0,941
4,41,49,19
4,41,0,852
4,36,44,108
4,36,0,924
4,39,28,36
4,39,0,810
4,43,62,150
4,43,0,479
4,42,44,1
4,40,60,480
4,42,0,2
4,40,0,462
4,38,76,16
4,38,0,479
4,36,55,1
4,35,62,480
4,36,0,5
4,33,62,475
4,35,0,1
4,33,0,470
4,38,49,9
4,38,0,438
4,57,28,8682
4,57,0,471
4,47,22,9
4,47,0,470
4,48,24,10
4,48,0,473
4,35,33,7
4,35,0,408
4,57,28,72
4,57,0,471
4,47,22,9
4,47,0,470
4,36,49,10
4,36,0,472
4,37,31,8
4,37,0,362
4,38,56,118
4,38,0,855
4,39,50,105
4,39,0,808
4,40,46,152
4,40,0,941
4,41,49,19
4,41,0,852
4,36,44,108
4,36,0,924
4,39,28,36
4,39,0,810
4,31,72,150
4,31,0,1897
5,52,60,9636
5,59,76,120
5,59,0,60
5,52,0,40
5,64,57,2
5,64,0,41
5,51,62,79
5,63,57,0
5,51,0,36
5,63,0,11
5,62,55,150
5,50,56,0
5,62,0,88
5,50,0,1
5,49,56,120
5,61,45,0
5,49,0,14
5,61,0,5
5,36,50,2
5,60,53,33
5,36,0,17
5,60,0,88
5,64,19,15
5,67,62,0
5,64,0,85
5,67,0,14
5,60,34,21
5,60,0,57
5,64,34,303
5,67,39,0
5,64,0,110
5,67,0,10
5,60,44,0
5,60,0,47
5,59,56,14
5,59,0,109
5,62,56,11
5,62,0,117
5,67,57,3
5,67,0,50
5,66,64,70
5,62,60,19
5,66,0,3
5,62,0,94
5,59,56,23
5,59,0,92
5,55,51,28
5,55,0,42
5,57,46,16
5,64,56,0
5,60,51,0
5,45,59,0
5,57,0,175
5,60,0,7
5,45,0,5
5,64,0,6
5,66,53,218
5,59,47,0
5,47,60,0
5,62,52,0
5,47,0,29
5,62,0,6
5,59,0,1
5,66,0,6
5,64,50,6
5,60,46,0
5,48,53,0
5,67,50,0
5,64,0,49
5,60,0,6
5,67,0,6
5,48,0,15
5,66,57,159
5,59,56,0
5,47,50,0
5,62,56,0
5,59,0,356
5,47,0,2
5,66,0,3
5,62,0,2
5,57,46,113
5,64,56,0
5,60,51,0
5,45,59,0
5,57,0,175
5,60,0,7
5,45,0,5
5,64,0,6
5,66,53,218
5,59,47,0
5,47,60,0
5,62,52,0
5,47,0,29
5,62,0,6
5,59,0,1
5,66,0,6
5,48,56,6
5,55,55,100
5,48,0,4
5,55,0,42
5,59,57,74
5,64,53,0
5,64,0,67
5,59,0,13
5,49,51,51
5,55,50,0
5,61,72,0
5,64,49,0
5,55,0,370
5,61,0,12
5,49,0,9
5,64,0,13
5,62,60,76
5,69,59,120
5,69,0,95
5,78,72,142
5,78,0,50
5,62,0,6
5,79,62,64
5,62,64,120
5,79,0,74
5,78,59,15
5,74,56,120
5,78,0,22
5,74,0,50
5,62,0,5
5,52,60,4963
5,59,76,120
5,59,0,60
5,52,0,40
5,64,57,2
5,64,0,41
5,51,62,79
5,63,57,0
5,51,0,36
5,63,0,11
5,62,55,150
5,50,56,0
5,62,0,88
5,50,0,1
5,49,56,120
5,61,45,0
5,49,0,14
5,61,0,5
5,36,50,2
5,60,53,33
5,36,0,17
5,60,0,88
5,64,19,15
5,67,62,0
5,64,0,85
5,67,0,14
5,60,34,21
5,60,0,57
5,64,34,303
5,67,39,0
5,64,0,110
5,67,0,10
5,60,44,0
5,60,0,47
5,59,56,14
5,59,0,109
5,62,56,11
5,62,0,117
5,67,57,3
5,67,0,50
5,66,64,70
5,62,60,19
5,66,0,3
5,62,0,94
5,59,56,23
5,59,0,92
5,55,51,28
5,55,0,42
5,57,46,16
5,64,56,0
5,60,51,0
5,45,59,0
5,57,0,175
5,60,0,7
5,45,0,5
5,64,0,6
5,66,53,218
5,59,47,0
5,47,60,0
5,62,52,0
5,47,0,29
5,62,0,6
5,59,0,1
5,66,0,6
5,64,50,6
5,60,46,0
5,48,53,0
5,67,50,0
5,64,0,49
5,60,0,6
5,67,0,6
5,48,0,15
5,66,57,159
5,59,56,0
5,47,50,0
5,62,56,0
5,59,0,356
5,47,0,2
5,66,0,3
5,62,0,2
5,57,46,113
5,64,56,0
5,60,51,0
5,45,59,0
5,57,0,175
5,60,0,7
5,45,0,5
5,64,0,6
5,66,53,218
5,59,47,0
5,47,60,0
5,62,52,0
5,47,0,29
5,62,0,6
5,59,0,1
5,66,0,6
5,48,56,6
5,55,55,100
5,48,0,4
5,55,0,42
5,59,57,74
5,64,53,0
5,64,0,67
5,59,0,13
5,49,51,51
5,55,50,0
5,61,72,0
5,64,49,0
5,55,0,370
5,61,0,12
5,49,0,9
5,64,0,13
5,50,56,76
5,55,57,48
5,55,0,88
5,62,76,32
5,50,0,21
5,62,0,90
5,59,62,9
5,59,0,64
5,50,42,56
5,50,0,109
5,67,52,11
5,67,0,51
5,50,42,69
5,50,0,94
5,62,51,26
5,62,0,40
5,51,60,42
5,66,64,80
5,66,0,56
5,63,68,64
5,51,0,10
5,63,0,36
5,57,72,74
5,57,0,53
5,51,76,67
5,51,0,76
5,52,62,4
5,55,76,120
5,59,62,78
5,59,0,67
5,64,72,53
5,64,0,109
5,67,62,11
5,55,0,181
5,64,68,59
5,67,0,9
5,52,0,56
5,64,0,9
5,53,62,64
5,59,62,120
5,53,0,9
5,59,0,63
5,65,57,46
5,62,64,0
5,62,0,43
5,65,0,6
5,62,80,431
5,65,72,0
5,62,0,32
5,65,0,6
5,48,64,29
5,55,46,120
5,60,41,117
5,60,0,148
5,55,0,230
5,48,0,107
5,51,56,235
5,63,55,0
5,51,0,7
5,60,46,21
5,63,0,2
5,60,0,85
5,58,46,33
5,58,0,41
5,59,96,121
5,71,72,0
5,79,86,0
5,67,86,0
5,71,0,27
5,59,0,72
5,79,0,1
5,67,0,0
5,74,86,8
5,69,83,0
5,86,86,0
5,57,72,0
5,66,61,0
5,57,0,236
5,62,90,0
5,62,0,118
5,60,72,2
5,66,0,69
5,59,75,51
5,67,79,0
5,69,0,2
5,60,0,9
5,59,0,107
5,57,83,2
5,55,79,120
5,84,83,0
5,72,83,0
5,74,0,3
5,86,0,0
5,57,0,8
5,83,79,109
5,71,79,0
5,84,0,3
5,72,0,0
5,67,0,87
5,79,86,30
5,67,86,0
5,83,0,7
5,71,0,0
5,55,0,105
5,57,83,8
5,67,0,114
5,79,0,0
5,57,0,6
5,59,90,0
5,74,90,0
5,62,90,0
5,62,0,189
5,74,0,0
5,59,0,38
5,62,90,13
5,76,79,0
5,64,79,0
5,62,0,221
5,64,90,19
5,69,83,240
5,64,0,3
5,76,0,115
5,64,0,0
5,78,90,2
5,66,90,0
5,69,0,101
5,71,75,19
5,79,83,0
5,67,83,0
5,66,0,8
5,78,0,0
5,79,0,104
5,67,0,0
5,69,75,8
5,81,75,0
5,71,0,120
5,72,75,0
5,76,61,0
5,64,61,0
5,81,0,9
5,69,0,0
5,76,0,467
5,64,0,0
5,72,0,25
