track,note,velocity,time
0,42,127,3
0,42,0,8
0,42,127,110
0,42,0,9
0,42,127,231
0,42,0,9
0,42,127,231
0,42,0,10
0,46,62,228
0,58,60,0
0,60,64,0
0,65,68,0
0,65,0,15
0,58,0,0
0,60,0,6
0,58,72,33
0,65,76,0
0,60,80,0
0,42,127,2
0,46,0,8
0,42,0,2
0,58,0,65
0,60,0,4
0,65,0,2
0,46,55,37
0,46,0,49
0,46,55,3
0,58,59,0
0,62,51,0
0,65,43,0
0,65,0,44
0,58,0,0
0,62,0,4
0,58,64,66
0,62,72,0
0,65,76,0
0,42,127,2
0,42,0,10
0,46,0,14
0,62,0,25
0,65,0,3
0,58,0,1
0,46,72,65
0,46,0,62
0,58,60,58
0,46,60,0
0,60,60,0
0,65,62,0
0,58,0,22
0,65,0,2
0,60,0,26
0,58,62,57
0,65,68,0
0,60,72,0
0,42,127,2
0,42,0,9
0,46,0,37
0,65,0,64
0,58,0,6
0,60,0,2
0,46,53,0
0,46,0,29
0,60,38,91
0,58,41,0
0,62,36,0
0,46,50,0
0,65,50,0
0,60,0,27
0,58,0,37
0,62,0,8
0,65,0,3
0,46,0,46
0,65,59,13
0,58,57,0
0,62,57,0
0,42,127,2
0,42,0,9
0,62,0,47
0,65,0,0
0,58,0,12
0,72,98,0
0,34,72,0
0,60,72,0
0,65,68,0
0,58,62,0
0,72,0,24
0,72,89,0
0,72,0,4
0,58,0,22
0,65,0,0
0,60,0,5
0,72,93,0
0,34,0,29
0,58,59,31
0,65,72,0
0,60,76,0
0,42,127,2
0,42,0,10
0,60,0,43
0,65,0,1
0,58,0,0
0,72,0,27
0,70,64,0
0,46,64,0
0,70,0,21
0,46,0,17
0,70,85,0
0,62,57,60
0,65,56,0
0,58,56,0
0,65,0,81
0,58,0,5
0,62,0,1
0,58,60,74
0,65,72,0
0,62,72,0
0,42,127,2
0,42,0,9
0,62,0,48
0,65,0,1
0,58,0,4
0,46,56,56
0,46,0,40
0,58,55,80
0,65,56,0
0,60,62,0
0,46,62,0
0,70,0,1
0,58,0,22
0,65,0,4
0,60,0,2
0,67,76,0
0,67,0,37
0,72,93,0
0,58,68,0
0,60,89,0
0,65,89,0
0,42,127,2
0,42,0,9
0,60,0,22
0,58,0,3
0,65,0,4
0,46,0,7
0,72,0,31
0,74,85,0
0,46,76,0
0,46,0,37
0,74,0,13
0,72,89,0
0,58,56,5
0,62,59,0
0,65,64,0
0,46,55,0
0,72,0,91
0,70,93,0
0,58,0,45
0,65,0,7
0,62,0,1
0,70,0,45
0,69,98,0
0,58,57,0
0,62,62,0
0,65,68,0
0,42,127,2
0,42,0,9
0,46,0,15
0,62,0,18
0,58,0,5
0,65,0,5
0,69,0,43
0,67,80,0
0,67,0,57
0,69,85,0
0,67,62,0
0,69,72,0
0,57,62,0
0,50,62,0
0,64,68,0
0,69,0,26
0,67,0,20
0,64,0,2
0,69,0,3
0,69,76,0
0,69,0,21
0,69,85,0
0,67,76,0
0,69,89,0
0,64,89,0
0,42,127,2
0,42,0,9
0,67,0,28
0,69,0,4
0,64,0,1
0,57,0,10
0,69,0,55
0,67,76,0
0,57,85,0
0,50,0,15
0,57,0,15
0,67,0,21
0,69,89,0
0,62,64,60
0,69,76,0
0,65,72,0
0,50,60,0
0,62,0,51
0,69,0,7
0,65,0,2
0,62,93,71
0,69,102,0
0,65,107,0
0,42,127,2
0,42,0,9
0,65,0,37
0,62,0,1
0,69,0,3
0,57,89,68
0,50,0,35
0,57,0,1
0,67,80,84
0,69,98,0
0,64,76,0
0,50,62,0
0,69,93,0
0,69,0,10
0,67,0,30
0,69,0,2
0,64,0,1
0,69,0,0
0,69,93,0
0,67,85,0
0,69,93,0
0,64,89,0
0,42,127,2
0,42,0,2
0,67,0,36
0,64,0,4
0,69,0,3
0,69,0,2
0,50,0,9
0,69,76,0
0,50,80,0
0,69,0,35
0,50,0,6
0,69,89,0
0,62,64,2
0,65,72,0
0,69,76,0
0,50,62,0
0,69,0,91
0,67,76,0
0,62,0,42
0,69,0,3
0,65,0,3
0,67,0,65
0,65,76,0
0,62,76,0
0,65,89,0
0,69,93,0
0,42,127,2
0,42,0,10
0,65,0,32
0,62,0,1
0,69,0,6
0,50,0,5
0,65,0,50
0,69,93,0
0,69,0,37
0,72,76,0
0,67,68,0
0,65,64,0
0,63,72,0
0,70,85,0
0,51,72,0
0,72,0,7
0,72,76,0
0,63,0,31
0,65,0,2
0,72,0,3
0,67,0,1
0,70,0,0
0,74,85,0
0,63,72,60
0,65,76,0
0,70,85,0
0,67,89,0
0,42,127,2
0,42,0,9
0,65,0,30
0,63,0,7
0,67,0,4
0,70,0,5
0,74,0,4
0,72,76,0
0,72,0,41
0,70,68,0
0,51,0,24
0,51,80,36
0,70,72,0
0,67,76,0
0,63,68,0
0,70,0,119
0,63,0,2
0,67,0,5
0,51,0,19
0,70,85,35
0,63,85,0
0,67,85,0
0,42,127,2
0,42,0,9
0,63,0,32
0,67,0,2
0,70,0,1
0,70,0,24
0,70,89,0
0,70,0,53
0,74,89,0
0,55,47,0
0,62,62,0
0,67,80,0
0,70,76,0
0,63,62,0
0,48,72,0
0,74,0,15
0,74,85,0
0,74,0,49
0,62,0,10
0,75,72,0
0,70,0,0
0,67,0,0
0,63,0,4
0,67,85,56
0,70,89,0
0,62,85,0
0,63,89,0
0,42,127,2
0,42,0,9
0,62,0,45
0,67,0,4
0,63,0,2
0,70,0,4
0,55,0,48
0,74,85,0
0,75,0,2
0,48,0,29
0,74,0,73
0,72,80,0
0,48,62,0
0,67,62,0
0,63,72,0
0,70,89,0
0,60,72,0
0,72,0,104
0,70,68,5
0,60,0,47
0,63,0,1
0,67,0,0
0,70,0,6
0,67,76,59
0,63,80,0
0,60,93,0
0,70,89,0
0,42,127,2
0,42,0,9
0,67,0,43
0,70,0,1
0,63,0,2
0,70,0,2
0,60,0,3
0,48,0,12
0,70,93,0
0,70,93,0
0,70,0,14
0,70,93,0
0,58,64,0
0,41,68,0
0,60,80,0
0,65,76,0
0,70,0,19
0,70,0,62
0,70,64,0
0,70,0,30
0,58,0,4
0,60,0,9
0,65,0,1
0,70,85,0
0,58,76,60
0,60,89,0
0,65,85,0
0,42,127,2
0,42,0,10
0,60,0,28
0,65,0,2
0,58,0,2
0,41,0,65
0,70,0,3
0,65,76,0
0,65,0,90
0,65,72,0
0,60,76,0
0,57,72,0
0,41,62,0
0,65,76,0
0,57,0,67
0,60,0,6
0,65,0,1
0,60,89,62
0,65,89,0
0,57,85,0
0,42,127,2
0,42,0,10
0,41,0,51
0,60,0,3
0,57,0,3
0,65,0,6
0,41,64,79
0,58,60,0
0,60,60,0
0,63,64,0
0,55,62,0
0,79,51,0
0,82,64,0
0,48,72,60
0,58,0,31
0,63,0,2
0,48,0,1
0,60,0,1
0,55,0,2
0,55,85,83
0,60,93,0
0,58,93,0
0,63,89,0
0,42,127,2
0,42,0,9
0,55,0,29
0,58,0,2
0,60,0,7
0,63,0,1
0,48,93,67
0,79,0,1
0,82,0,12
0,48,0,24
0,41,0,9
0,57,62,3
0,41,68,0
0,60,76,0
0,65,72,0
0,84,64,0
0,81,57,0
0,65,0,16
0,57,0,61
0,65,0,3
0,60,0,4
0,57,72,65
0,60,80,0
0,65,76,0
0,42,127,2
0,42,0,9
0,41,0,42
0,57,0,5
0,60,0,0
0,65,0,7
0,65,93,0
0,65,0,72
0,81,0,11
0,84,0,0
0,72,98,0
0,46,85,0
0,34,72,0
0,60,72,0
0,65,68,0
0,58,62,0
0,77,61,0
0,89,68,0
0,72,0,24
0,72,89,0
0,72,0,4
0,58,0,22
0,65,0,0
0,60,0,5
0,72,93,0
0,34,0,29
0,58,59,31
0,65,72,0
0,60,76,0
0,42,127,2
0,42,0,10
0,60,0,43
0,65,0,1
0,58,0,0
0,72,0,27
0,70,64,0
0,46,64,0
0,70,0,21
0,46,0,17
0,70,85,0
0,62,57,60
0,65,56,0
0,58,56,0
0,89,0,31
0,86,64,16
0,65,0,40
0,58,0,5
0,62,0,1
0,58,60,74
0,65,72,0
0,62,72,0
0,42,127,2
0,42,0,10
0,62,0,36
0,65,0,1
0,58,0,4
0,46,0,44
0,41,76,4
0,46,56,0
0,87,61,0
0,86,0,4
0,46,0,36
0,87,0,18
0,86,61,2
0,34,80,60
0,58,55,0
0,65,56,0
0,60,62,0
0,46,62,0
0,87,51,0
0,86,0,0
0,70,0,1
0,41,0,15
0,86,61,42
0,87,0,11
0,86,0,49
0,84,61,0
0,58,0,22
0,65,0,4
0,60,0,2
0,84,0,82
0,72,93,0
0,58,68,0
0,60,89,0
0,65,89,0
0,82,64,0
0,42,127,2
0,42,0,9
0,60,0,22
0,58,0,3
0,65,0,4
0,46,0,7
0,72,0,31
0,74,85,0
0,46,76,0
0,46,0,37
0,74,0,13
0,72,89,0
0,58,56,5
0,62,59,0
0,65,64,0
0,46,55,0
0,72,0,91
0,70,93,11
0,58,0,45
0,65,0,7
0,62,0,1
0,77,0,13
0,70,0,32
0,34,0,8
0,69,98,0
0,46,72,0
0,58,57,0
0,62,62,0
0,65,68,0
0,42,127,2
0,42,0,10
0,82,0,3
0,46,0,11
0,62,0,18
0,58,0,5
0,65,0,5
0,69,0,43
0,67,80,0
0,45,60,0
0,46,0,17
0,67,0,57
0,69,85,0
0,38,62,0
0,67,62,0
0,69,72,0
0,57,62,0
0,50,62,0
0,64,68,0
0,74,41,0
0,81,51,0
0,45,0,6
0,69,0,26
0,67,0,20
0,64,0,2
0,69,0,3
0,69,76,0
0,81,0,9
0,74,0,2
0,69,0,10
0,69,85,0
0,67,76,0
0,69,89,0
0,64,89,0
0,74,51,0
0,84,51,0
0,42,127,2
0,42,0,9
0,67,0,28
0,69,0,4
0,64,0,1
0,57,0,10
0,69,0,55
0,67,76,0
0,57,85,0
0,50,0,2
0,57,0,15
0,67,0,21
0,69,89,0
0,74,0,6
0,84,0,26
0,62,64,9
0,69,76,0
0,65,72,0
0,50,60,0
0,86,52,0
0,74,45,0
0,62,0,51
0,69,0,7
0,65,0,2
0,38,0,61
0,33,56,10
0,62,93,0
0,69,102,0
0,65,107,0
0,42,127,2
0,42,0,10
0,65,0,36
0,62,0,1
0,69,0,3
0,33,0,65
0,38,62,3
0,57,89,0
0,50,0,23
0,57,0,1
0,26,72,8
0,67,80,0
0,69,98,0
0,64,76,0
0,50,62,0
0,38,0,2
0,69,0,26
0,67,0,30
0,69,0,2
0,64,0,1
0,69,93,0
0,67,85,0
0,69,93,0
0,64,89,0
0,42,127,2
0,42,0,1
0,67,0,37
0,64,0,4
0,69,0,3
0,69,0,2
0,50,0,9
0,69,76,0
0,50,80,0
0,69,0,35
0,74,0,4
0,50,0,2
0,86,0,9
0,69,89,0
0,38,60,2
0,62,64,0
0,65,72,0
0,69,76,0
0,50,62,0
0,74,45,0
0,81,57,0
0,26,0,1
0,69,0,91
0,67,76,1
0,62,0,42
0,69,0,3
0,65,0,3
0,67,0,65
0,65,76,0
0,62,76,0
0,65,89,0
0,69,93,0
0,42,127,2
0,42,0,9
0,65,0,28
0,62,0,1
0,69,0,6
0,50,0,5
0,81,0,14
0,74,0,4
0,65,0,32
0,69,93,0
0,38,0,1
0,69,0,36
0,72,76,0
0,39,72,0
0,67,68,0
0,65,64,0
0,63,72,0
0,70,85,0
0,51,72,0
0,75,50,0
0,72,0,2
0,72,76,0
0,63,0,31
0,65,0,2
0,72,0,3
0,67,0,1
0,70,0,0
0,74,85,0
0,75,0,3
0,63,72,7
0,65,76,0
0,70,85,0
0,67,89,0
0,75,44,0
0,86,51,0
0,42,127,2
0,42,0,9
0,65,0,30
0,63,0,7
0,67,0,3
0,70,0,5
0,74,0,4
0,72,76,0
0,72,0,41
0,70,68,0
0,75,0,1
0,86,0,6
0,51,0,17
0,51,80,9
0,70,72,0
0,67,76,0
0,63,68,0
0,87,52,0
0,75,51,0
0,39,0,58
0,27,76,2
0,70,0,50
0,63,0,2
0,67,0,5
0,51,0,19
0,75,0,5
0,87,0,6
0,39,76,4
0,70,85,0
0,63,85,0
0,67,85,0
0,75,51,0
0,86,61,0
0,42,127,2
0,27,0,1
0,42,0,8
0,63,0,32
0,67,0,2
0,70,0,1
0,70,0,24
0,70,89,0
0,38,68,0
0,39,0,4
0,75,0,22
0,70,0,27
0,86,0,15
0,38,0,14
0,74,89,0
0,36,80,0
0,55,47,0
0,62,62,0
0,67,80,0
0,70,76,0
0,63,62,0
0,48,72,0
0,72,52,0
0,84,61,0
0,74,0,15
0,74,85,0
0,74,0,49
0,62,0,10
0,75,72,0
0,70,0,0
0,67,0,0
0,63,0,4
0,67,85,5
0,70,89,0
0,62,85,0
0,63,89,0
0,42,127,2
0,42,0,10
0,72,0,35
0,62,0,9
0,67,0,4
0,63,0,2
0,70,0,4
0,55,0,48
0,74,85,0
0,75,0,2
0,48,0,29
0,84,0,42
0,74,0,31
0,72,80,0
0,48,62,0
0,67,62,0
0,63,72,0
0,70,89,0
0,60,72,0
0,84,61,0
0,67,48,0
0,72,0,104
0,70,68,5
0,60,0,30
0,63,0,1
0,67,0,0
0,70,0,6
0,36,0,31
0,36,76,28
0,67,76,0
0,63,80,0
0,60,93,0
0,70,89,0
0,42,127,2
0,42,0,9
0,67,0,43
0,70,0,1
0,63,0,2
0,70,0,2
0,60,0,3
0,48,0,12
0,70,93,0
0,67,0,18
0,84,0,19
0,70,0,14
0,70,93,0
0,36,0,0
0,29,72,0
0,58,64,0
0,41,68,0
0,60,80,0
0,65,76,0
0,72,75,0
0,70,0,76
0,70,64,0
0,70,0,30
0,58,0,4
0,60,0,9
0,65,0,1
0,70,85,0
0,72,0,53
0,58,76,7
0,60,89,0
0,65,85,0
0,77,64,0
0,42,127,2
0,42,0,9
0,60,0,29
0,65,0,2
0,58,0,2
0,29,0,55
0,41,0,10
0,70,0,3
0,65,76,0
0,29,64,0
0,29,0,87
0,65,0,3
0,77,0,3
0,65,72,0
0,29,72,0
0,60,76,0
0,57,72,0
0,41,62,0
0,65,76,0
0,81,51,0
0,57,0,67
0,60,0,6
0,65,0,1
0,81,0,32
0,60,89,9
0,65,89,0
0,57,85,0
0,84,75,0
0,42,127,2
0,42,0,10
0,41,0,51
0,60,0,3
0,57,0,3
0,65,0,6
0,29,0,3
0,36,98,14
0,84,0,31
0,36,0,18
0,41,93,10
0,41,64,0
0,58,60,0
0,60,60,0
0,63,64,0
0,55,62,0
0,79,51,0
0,82,64,0
0,48,72,60
0,38,127,2
0,38,0,9
0,58,0,20
0,63,0,2
0,48,0,1
0,60,0,1
0,55,0,2
0,55,85,83
0,60,93,0
0,58,93,0
0,63,89,0
0,42,127,2
0,48,127,1
0,42,0,8
0,48,0,1
0,55,0,29
0,58,0,2
0,60,0,7
0,63,0,1
0,41,0,38
0,41,80,29
0,48,93,0
0,79,0,1
0,36,127,1
0,36,0,10
0,82,0,1
0,48,0,24
0,41,0,9
0,41,0,12
0,36,89,2
0,38,43,2
0,46,127,0
0,46,0,9
0,38,0,0
0,29,89,3
0,57,62,0
0,41,68,0
0,60,76,0
0,65,72,0
0,84,64,0
0,81,57,0
0,41,127,2
0,36,0,2
0,41,0,7
0,65,0,5
0,36,127,44
0,36,0,10
0,45,127,15
0,45,0,9
0,29,0,33
0,57,0,4
0,65,0,3
0,60,0,4
0,29,93,5
0,38,127,2
0,51,127,0
0,51,0,10
0,38,0,0
0,65,93,0
0,41,98,0
0,57,72,0
0,60,80,0
0,65,76,0
0,42,127,2
0,29,0,4
0,42,0,6
0,41,0,41
0,57,0,5
0,60,0,0
0,36,127,4
0,38,25,0
0,65,0,3
0,38,0,6
0,36,0,0
0,65,0,1
0,41,0,42
0,65,93,0
0,29,107,0
0,38,127,2
0,38,0,9
0,36,127,51
0,38,127,0
0,46,127,1
0,29,0,6
0,38,0,2
0,36,0,0
0,65,0,1
0,46,0,0
0,81,0,11
0,84,0,0
0,75,102,0
0,34,98,0
