track,note,velocity,time
3,33,93,9574
3,33,0,70
3,33,93,4
3,33,0,358
3,33,93,122
3,33,0,44
3,33,98,196
3,33,0,394
3,33,93,86
3,33,0,64
3,33,98,176
3,33,0,102
3,33,93,18
3,33,0,430
3,43,85,50
3,43,0,64
3,43,93,176
3,43,0,406
3,43,98,18
3,43,0,78
3,42,93,102
3,42,0,1696
3,41,89,224
3,41,0,174
3,33,102,2
3,33,0,180
3,45,98,6
3,45,0,212
3,33,98,18
3,33,0,176
3,38,107,64
3,38,0,432
3,38,107,48
3,38,0,360
3,33,93,0
3,33,0,106
3,38,89,14
3,38,0,78
3,38,113,162
3,38,0,84
3,38,102,116
3,33,89,94
3,38,0,8
3,33,0,112
3,37,102,0
3,37,0,378
3,37,113,102
3,37,0,144
3,37,89,72
3,37,0,34
3,37,107,206
3,37,0,400
3,37,102,80
3,37,0,222
3,36,98,18
3,36,0,116
3,36,107,58
3,31,89,360
3,36,0,20
3,31,0,80
3,36,93,20
3,36,0,76
3,36,107,164
3,36,0,88
3,36,107,22
3,36,0,180
3,34,102,60
3,34,0,134
3,34,107,20
3,34,0,340
3,29,89,20
3,29,0,120
3,34,93,0
3,34,0,74
3,34,113,166
3,34,0,318
3,29,98,42
3,29,0,108
3,34,102,12
3,34,0,116
3,33,93,124
3,33,0,70
3,33,93,4
3,33,0,358
3,33,93,122
3,33,0,44
3,33,98,196
3,33,0,394
3,33,93,86
3,33,0,64
3,33,98,176
3,33,0,102
3,33,93,18
3,33,0,430
3,43,85,50
3,43,0,64
3,43,93,176
3,43,0,406
3,43,98,18
3,43,0,40
3,42,93,102
3,42,0,74
3,42,89,2
3,42,0,342
3,30,89,18
3,42,85,120
3,30,0,2
3,42,0,84
3,42,93,154
3,42,0,82
3,42,80,70
3,42,0,154
3,41,93,86
3,41,0,138
3,41,89,26
3,36,80,120
3,41,0,6
3,36,0,110
3,29,98,4
3,29,0,78
3,41,93,38
3,41,0,254
3,36,107,226
3,36,0,282
3,36,102,78
3,36,0,72
3,29,107,288
3,29,0,10
3,41,93,28
3,41,0,18
3,40,93,28
3,40,0,94
3,38,89,26
3,38,0,174
3,36,102,66
3,36,0,338
3,31,98,22
3,36,93,120
3,31,0,8
3,36,0,52
3,29,107,76
3,29,0,456
3,41,102,24
3,41,0,116
3,29,93,4
3,29,0,116
3,41,93,4
3,40,85,120
3,41,0,18
3,40,0,88
3,38,93,14
3,38,0,142
3,36,93,98
3,36,0,340
3,31,113,20
3,36,107,120
3,31,0,2
3,36,0,142
3,29,119,96
3,29,0,472
3,41,102,8
3,41,0,88
3,41,107,152
3,40,98,120
3,41,0,28
3,40,0,82
3,38,93,10
3,38,0,178
3,36,102,62
3,36,0,344
3,31,102,16
3,36,93,120
3,31,0,6
3,36,0,138
3,29,107,96
3,29,0,24
3,41,93,12
3,41,0,102
3,29,98,18
3,29,0,118
3,41,98,2
3,40,89,120
3,41,0,20
3,40,0,84
3,38,89,16
3,36,98,120
3,38,0,6
3,36,0,68
3,38,107,46
3,38,0,282
3,38,102,78
3,38,0,72
3,31,107,288
3,31,0,10
3,43,93,28
3,43,0,18
3,42,93,28
3,42,0,94
3,40,89,26
3,40,0,174
3,38,102,66
3,38,0,338
3,33,98,22
3,38,93,120
3,33,0,8
3,38,0,52
3,31,107,76
3,31,0,456
3,50,59,4344
3,50,0,98
3,49,50,4
3,49,0,102
3,48,72,18
3,48,0,82
3,43,80,18
3,36,93,240
3,43,0,12
3,48,102,228
3,36,0,8
3,48,0,72
3,46,102,12
3,46,0,168
3,34,72,20
3,34,0,36
3,34,107,84
3,34,0,146
3,34,107,94
3,34,0,100
3,46,102,20
3,34,113,120
3,46,0,16
3,34,0,144
3,34,107,80
3,34,0,118
3,46,113,2
3,46,0,128
3,33,93,112
3,33,0,70
3,33,93,4
3,33,0,358
3,33,93,122
3,33,0,44
3,33,98,196
3,33,0,394
3,33,93,86
3,33,0,64
3,33,98,176
3,33,0,102
3,33,93,18
3,33,0,430
3,43,85,50
3,43,0,64
3,43,93,176
3,43,0,406
3,43,98,18
3,43,0,78
3,33,93,102
3,33,0,70
3,33,93,4
3,33,0,358
3,33,93,122
3,33,0,44
3,33,98,196
3,33,0,394
3,33,93,86
3,33,0,64
3,33,98,176
3,33,0,102
3,33,93,18
3,33,0,430
3,43,85,50
3,43,0,64
3,43,93,176
3,43,0,406
3,43,98,18
3,43,0,78
3,42,93,102
3,42,0,74
3,42,89,2
3,42,0,342
3,30,89,18
3,42,85,120
3,30,0,2
3,42,0,84
3,42,93,154
3,42,0,82
3,42,80,70
3,42,0,154
3,41,93,86
3,115,1,0
3,115,0,10
3,41,0,138
3,41,89,26
3,36,80,120
3,41,0,6
3,36,0,110
3,29,98,4
3,29,0,78
3,41,93,38
3,41,0,254
3,33,93,226
3,45,76,720
3,33,0,22
3,40,72,98
3,45,0,4
3,33,93,116
3,40,0,10
3,33,0,874
3,38,93,76
3,38,0,92
3,33,85,422
3,38,98,88
3,33,0,8
3,38,0,62
3,38,98,170
3,38,0,58
3,38,68,68
3,38,0,220
3,37,72,20
3,37,0,248
3,37,93,46
3,37,0,48
3,37,85,192
3,37,0,692
3,36,93,28
3,36,0,246
3,31,80,4
3,31,0,32
3,36,98,4
3,36,0,60
3,36,93,180
3,36,0,148
3,34,89,50
3,34,0,882
3,34,93,78
3,34,0,62
3,34,113,178
3,34,0,398
3,34,107,82
3,34,0,80
3,38,93,160
3,38,0,92
3,33,85,422
3,38,98,88
3,33,0,8
3,38,0,62
3,38,98,170
3,38,0,58
3,38,68,68
3,38,0,220
3,37,72,20
3,37,0,248
3,37,93,46
3,37,0,48
3,37,85,192
3,37,0,692
3,36,93,28
3,36,0,246
3,31,80,4
3,31,0,32
3,36,98,4
3,36,0,60
3,36,93,180
3,36,0,148
3,34,89,50
3,34,0,882
3,34,93,78
3,34,0,62
3,34,113,178
3,34,0,398
3,34,107,82
3,34,0,80
3,38,93,160
3,38,0,92
3,33,85,422
3,38,98,88
3,33,0,8
3,38,0,62
3,38,98,170
3,38,0,58
3,38,68,68
3,38,0,220
3,37,72,20
3,37,0,248
3,37,93,46
3,37,0,48
3,37,85,192
3,37,0,692
3,36,93,28
3,36,0,246
3,31,80,4
3,31,0,32
3,36,98,4
3,36,0,60
3,36,93,180
3,36,0,148
3,34,89,50
3,34,0,882
3,34,93,78
3,34,0,62
3,34,113,178
3,34,0,398
3,34,107,82
3,34,0,80
3,33,93,160
3,33,0,70
3,33,93,4
3,33,0,358
3,33,93,122
3,33,0,44
3,33,98,196
3,33,0,394
3,33,93,86
3,33,0,64
3,33,98,176
3,33,0,102
3,33,93,18
3,33,0,430
3,43,85,50
3,43,0,64
3,43,93,176
3,43,0,406
3,43,98,18
3,43,0,78
3,33,93,102
3,33,0,70
3,33,93,4
3,33,0,358
3,33,93,122
3,33,0,44
3,33,98,196
3,33,0,394
3,33,93,86
3,33,0,64
3,33,98,176
3,33,0,102
3,33,93,18
3,33,0,430
3,43,85,50
3,43,0,64
3,43,93,176
3,43,0,406
3,43,98,18
3,43,0,78
3,42,93,102
3,42,0,74
3,42,89,2
3,42,0,342
3,30,89,18
3,42,85,120
3,30,0,2
3,42,0,84
3,42,93,154
3,42,0,82
3,42,80,70
3,42,0,154
3,41,93,86
3,41,0,138
3,41,89,26
3,36,80,120
3,41,0,6
3,36,0,110
3,29,98,4
3,29,0,78
3,41,93,38
3,41,0,254
3,33,93,226
3,45,76,720
3,33,0,22
3,40,72,98
3,45,0,4
3,33,93,116
3,40,0,10
3,33,0,72
3,38,93,76
3,38,0,3708
4,50,89,1894
4,66,60,0
4,57,76,0
4,62,93,0
4,62,0,36
4,50,0,8
4,66,0,14
4,57,0,36
4,49,64,346
4,64,89,0
4,61,89,0
4,57,76,0
4,61,0,178
4,64,0,2
4,57,0,22
4,49,0,28
4,48,76,736
4,55,62,0
4,64,72,0
4,60,76,0
4,55,0,1700
4,48,0,6
4,60,0,10
4,64,0,6
4,53,60,192
4,67,80,0
4,62,85,0
4,58,68,0
4,53,0,1588
4,58,0,14
4,62,0,0
4,67,0,24
4,66,59,294
4,50,76,0
4,57,64,0
4,62,93,0
4,50,0,112
4,66,0,10
4,57,0,0
4,62,0,8
4,57,57,122
4,62,76,0
4,66,76,0
4,50,80,0
4,57,0,44
4,50,0,8
4,62,0,2
4,66,0,12
4,62,89,414
4,50,72,0
4,64,89,0
4,57,85,0
4,57,0,78
4,62,0,4
4,64,0,2
4,50,0,12
4,57,85,324
4,67,93,0
4,62,93,0
4,57,0,758
4,62,0,6
4,67,0,14
4,66,76,170
4,62,93,0
4,57,85,0
4,62,0,92
4,66,0,4
4,57,0,40
4,53,62,610
4,64,85,0
4,57,68,0
4,60,80,0
4,53,0,24
4,64,0,26
4,60,0,8
4,57,0,8
4,64,85,394
4,61,80,0
4,57,76,0
4,61,0,634
4,57,0,8
4,64,0,14
4,50,89,262
4,66,60,0
4,57,76,0
4,62,93,0
4,62,0,36
4,50,0,8
4,66,0,14
4,57,0,36
4,49,64,346
4,64,89,0
4,61,89,0
4,57,76,0
4,61,0,178
4,64,0,2
4,57,0,22
4,49,0,28
4,48,76,736
4,55,62,0
4,64,72,0
4,60,76,0
4,55,0,1700
4,48,0,6
4,60,0,10
4,64,0,6
4,53,60,192
4,67,80,0
4,62,85,0
4,58,68,0
4,53,0,1588
4,58,0,14
4,62,0,0
4,67,0,24
4,66,59,294
4,50,76,0
4,57,64,0
4,62,93,0
4,50,0,112
4,66,0,10
4,57,0,0
4,62,0,8
4,57,57,122
4,62,76,0
4,66,76,0
4,50,80,0
4,57,0,44
4,50,0,8
4,62,0,2
4,66,0,12
4,62,89,414
4,50,72,0
4,64,89,0
4,57,85,0
4,57,0,78
4,62,0,4
4,64,0,2
4,50,0,12
4,57,85,324
4,67,93,0
4,62,93,0
4,57,0,758
4,62,0,6
4,67,0,14
4,66,76,170
4,62,93,0
4,57,85,0
4,62,0,92
4,66,0,4
4,57,0,40
4,53,76,142
4,60,80,0
4,64,102,0
4,57,89,0
4,64,0,46
4,60,0,218
4,67,76,158
4,67,0,44
4,60,93,196
4,60,0,178
4,53,0,6
4,57,0,2
4,48,102,264
4,64,89,0
4,67,93,0
4,59,89,0
4,48,0,34
4,64,0,134
4,59,0,0
4,67,0,22
4,67,89,260
4,53,64,0
4,64,89,0
4,60,68,0
4,57,76,0
4,67,0,98
4,64,0,28
4,60,0,64
4,53,0,4
4,57,0,2
4,57,76,174
4,53,76,0
4,60,80,0
4,69,85,0
4,64,93,0
4,57,0,50
4,60,0,2
4,64,0,8
4,53,0,0
4,69,0,4
4,48,85,270
4,64,76,0
4,67,76,0
4,59,76,0
4,48,0,76
4,64,0,44
4,59,0,0
4,67,0,34
4,60,68,266
4,53,72,0
4,57,68,0
4,64,93,0
4,64,0,140
4,69,102,132
4,69,0,86
4,67,93,34
4,67,0,86
4,64,93,34
4,60,0,10
4,64,0,76
4,60,93,2
4,60,0,48
4,57,0,14
4,53,0,2
4,55,64,32
4,52,72,0
4,48,89,0
4,59,80,0
4,67,80,0
4,64,89,0
4,55,0,50
4,48,0,2
4,52,0,2
4,59,0,12
4,64,0,4
4,67,0,22
4,60,68,216
4,57,62,0
4,53,72,0
4,64,80,0
4,67,89,0
4,64,0,78
4,60,0,30
4,67,0,6
4,53,0,0
4,57,0,2
4,69,89,60
4,64,76,0
4,53,68,0
4,57,64,0
4,60,64,0
4,69,0,70
4,57,0,4
4,60,0,4
4,53,0,0
4,64,0,8
4,52,72,90
4,55,72,0
4,59,89,0
4,48,80,0
4,64,89,0
4,67,89,0
4,67,0,172
4,59,0,0
4,64,0,6
4,55,0,38
4,52,0,2
4,67,85,2
4,64,89,0
4,59,89,0
4,48,0,2
4,64,0,32
4,59,0,10
4,67,0,6
4,60,89,190
4,57,85,0
4,53,98,0
4,60,0,214
4,57,0,20
4,53,0,8
4,64,98,16
4,64,0,72
4,57,76,48
4,53,85,0
4,60,93,0
4,64,89,120
4,57,0,10
4,53,0,12
4,60,0,0
4,64,0,62
4,53,93,36
4,53,0,54
4,61,89,268
4,69,93,0
4,66,89,0
4,50,102,0
4,50,0,34
4,66,0,134
4,61,0,0
4,69,0,22
4,59,76,260
4,62,68,0
4,66,89,0
4,55,64,0
4,69,89,0
4,69,0,98
4,66,0,28
4,62,0,64
4,55,0,4
4,59,0,2
4,66,93,174
4,71,85,0
4,62,80,0
4,55,76,0
4,59,76,0
4,59,0,50
4,62,0,2
4,55,0,8
4,66,0,0
4,71,0,4
4,61,76,270
4,69,76,0
4,66,76,0
4,50,85,0
4,50,0,76
4,66,0,44
4,61,0,0
4,69,0,34
4,66,93,266
4,59,68,0
4,55,72,0
4,62,68,0
4,66,0,140
4,62,0,382
4,59,0,140
4,55,0,2
4,50,89,32
4,66,60,0
4,57,76,0
4,62,93,0
4,62,0,36
4,50,0,8
4,66,0,14
4,57,0,36
4,49,64,346
4,64,89,0
4,61,89,0
4,57,76,0
4,61,0,178
4,64,0,2
4,57,0,22
4,49,0,28
4,48,76,736
4,55,62,0
4,64,72,0
4,60,76,0
4,55,0,1700
4,48,0,6
4,60,0,10
4,64,0,6
4,53,60,192
4,67,80,0
4,62,85,0
4,58,68,0
4,53,0,1588
4,58,0,14
4,62,0,0
4,67,0,24
4,66,59,294
4,50,76,0
4,57,64,0
4,62,93,0
4,50,0,112
4,66,0,10
4,57,0,0
4,62,0,8
4,57,57,122
4,62,76,0
4,66,76,0
4,50,80,0
4,57,0,44
4,50,0,8
4,62,0,2
4,66,0,12
4,62,89,414
4,50,72,0
4,64,89,0
4,57,85,0
4,57,0,78
4,62,0,4
4,64,0,2
4,50,0,12
4,57,85,324
4,67,93,0
4,62,93,0
4,57,0,758
4,62,0,6
4,67,0,14
4,66,59,170
4,50,76,0
4,57,64,0
4,62,93,0
4,50,0,112
4,66,0,10
4,57,0,0
4,62,0,8
4,57,57,122
4,62,76,0
4,66,76,0
4,50,80,0
4,57,0,44
4,50,0,8
4,62,0,2
4,66,0,12
4,62,89,414
4,50,72,0
4,64,89,0
4,57,85,0
4,57,0,78
4,62,0,4
4,64,0,2
4,50,0,12
4,57,85,324
4,67,93,0
4,62,93,0
4,57,0,758
4,62,0,6
4,67,0,14
4,66,76,170
4,62,93,0
4,57,85,0
4,62,0,92
4,66,0,4
4,57,0,40
4,53,76,142
4,60,80,0
4,64,102,0
4,57,89,0
4,64,0,46
4,60,0,218
4,67,76,158
4,67,0,44
4,60,93,196
4,60,0,178
4,53,0,6
4,57,0,2
4,69,72,264
4,64,72,0
4,61,68,0
4,45,93,0
4,52,68,0
4,52,0,182
4,61,0,392
4,64,0,12
4,69,0,12
4,52,98,62
4,52,0,116
4,45,0,2
4,66,85,200
4,62,102,0
4,57,89,0
4,38,76,0
4,38,0,84
4,50,80,146
4,50,0,60
4,57,0,54
4,62,0,112
4,66,0,4
4,57,51,10
4,57,0,174
4,62,102,306
4,66,89,0
4,57,76,0
4,62,0,44
4,66,0,22
4,57,0,10
4,49,76,404
4,61,85,0
4,64,89,0
4,57,76,0
4,49,0,458
4,64,0,66
4,61,0,10
4,57,0,0
4,61,89,78
4,64,102,0
4,57,93,0
4,61,0,70
4,64,0,4
4,57,0,22
4,60,80,384
4,55,72,0
4,64,80,0
4,48,76,0
4,48,0,360
4,48,107,224
4,55,0,24
4,64,0,6
4,60,0,4
4,48,0,38
4,58,89,10
4,62,98,0
4,46,93,0
4,58,0,46
4,62,0,10
4,46,0,70
4,46,93,204
4,67,102,0
4,67,0,50
4,46,0,0
4,62,98,670
4,62,0,56
4,58,89,184
4,58,0,64
4,46,98,56
4,46,0,70
4,66,85,170
4,62,102,0
4,57,89,0
4,38,76,0
4,38,0,84
4,50,80,146
4,50,0,60
4,57,0,54
4,62,0,112
4,66,0,4
4,57,51,10
4,57,0,174
4,62,102,306
4,66,89,0
4,57,76,0
4,62,0,44
4,66,0,22
4,57,0,10
