track,note,velocity,time
1,79,53,8404
1,79,65,52
1,81,42,32
1,79,42,28
1,86,59,4
1,83,68,0
1,81,56,36
1,79,53,12
1,78,24,20
1,79,42,228
1,78,42,4
1,76,42,0
1,74,42,252
1,76,65,236
1,78,62,224
1,79,56,420
1,81,59,140
1,76,56,168
1,80,53,68
1,81,59,4
1,78,53,360
1,76,59,8
1,74,59,12
1,83,59,508
1,88,59,216
1,90,50,232
1,91,50,0
1,90,42,328
1,88,74,132
1,83,42,140
1,83,46,280
1,84,56,0
1,83,56,212
1,81,42,0
1,79,42,500
1,81,46,104
1,83,56,112
1,86,65,8
1,83,59,248
1,76,42,156
1,76,65,44
1,76,59,80
1,81,53,40
1,78,83,240
1,78,68,56
1,78,62,56
1,74,59,20
1,76,59,124
1,76,59,44
1,76,59,48
1,81,74,12
1,78,74,0
1,76,42,168
1,76,38,72
1,76,53,92
1,81,68,4
1,78,62,216
1,78,59,52
1,78,65,16
1,74,74,12
1,76,65,140
1,76,59,64
1,76,59,72
1,81,59,16
1,78,56,20
1,76,42,36
1,74,38,36
1,79,59,760
1,79,62,104
1,81,59,32
1,79,56,24
1,86,77,124
1,83,92,108
1,81,59,64
1,79,53,228
1,78,53,220
1,79,59,220
1,78,42,224
1,76,59,216
1,74,50,12
1,76,50,8
1,78,56,0
1,79,68,4
1,81,74,140
1,76,74,8
1,80,59,52
1,81,68,4
1,78,62,408
1,76,68,0
1,74,68,4
1,83,65,512
1,88,101,8
1,90,74,248
1,91,65,0
1,90,53,364
1,88,59,140
1,83,50,16
1,83,42,220
1,84,50,8
1,83,56,228
1,81,56,248
1,79,46,464
1,81,56,108
1,83,46,116
1,86,53,236
1,83,42,4
1,76,42,44
1,76,65,60
1,76,59,76
1,81,59,8
1,78,42,0
1,78,56,44
1,78,42,16
1,74,46,60
1,76,59,0
1,76,42,52
1,76,46,84
1,81,42,216
1,78,59,0
1,76,50,136
1,76,50,96
1,76,42,76
1,81,38,24
1,78,59,168
1,78,50,44
1,78,29,60
1,74,65,116
1,76,59,120
1,76,53,84
1,76,38,80
1,81,42,12
1,78,59,232
1,76,59,4
1,74,59,36
1,83,89,764
1,83,80,76
1,84,74,0
1,83,68,4
1,81,65,136
1,79,59,4
1,79,77,120
1,81,59,136
1,83,71,296
1,83,74,28
1,83,77,56
1,83,68,60
1,88,65,20
1,86,83,256
1,83,68,32
1,81,68,228
1,79,59,208
1,81,62,0
1,82,77,240
1,83,92,0
1,79,77,8
1,79,80,224
1,81,68,32
1,81,68,32
1,82,101,32
1,79,83,228
1,79,98,104
1,79,74,120
1,91,60,536
1,79,53,6400
1,79,59,76
1,81,68,40
1,79,46,4
1,86,65,16
1,83,74,0
1,81,59,8
1,79,53,0
1,78,50,252
1,79,53,236
1,78,50,208
1,76,53,4
1,74,74,128
1,76,42,108
1,78,62,220
1,79,59,208
1,80,68,228
1,81,74,28
1,76,46,4
1,80,71,16
1,81,83,4
1,78,50,16
1,76,59,8
1,74,59,168
1,83,65,636
1,88,89,8
1,90,71,252
1,91,68,1196
1,90,65,404
1,88,65,0
1,83,46,0
1,83,71,104
1,84,59,220
1,83,56,208
1,81,59,252
1,79,56,4
1,81,56,116
1,83,59,128
1,86,59,8
1,83,50,228
1,76,42,96
1,76,59,44
1,76,74,52
1,81,68,236
1,78,77,228
1,78,53,52
1,78,42,32
1,74,59,4
1,76,77,144
1,76,56,52
1,76,42,44
1,81,65,28
1,78,53,16
1,76,65,76
1,76,46,68
1,76,74,76
1,81,50,20
1,78,68,232
1,78,68,92
1,78,46,60
1,74,68,24
1,76,74,116
1,76,56,72
1,76,59,72
1,81,42,20
1,78,50,236
1,76,46,4
1,74,68,8
1,83,68,1060
1,83,68,124
1,84,65,212
1,83,50,0
1,81,65,128
1,79,65,132
1,79,59,232
1,81,46,128
1,83,56,16
1,83,74,44
1,83,83,80
1,83,77,60
1,88,74,28
1,86,68,236
1,83,46,0
1,81,56,244
1,79,46,228
1,81,56,0
1,82,68,236
1,83,59,4
1,79,56,20
1,79,83,200
1,81,65,20
1,81,62,20
1,82,77,4
1,79,68,16
1,79,59,168
1,79,68,136
1,91,40,408
2,67,60,0
2,71,40,240
2,74,40,4
2,79,40,0
2,71,40,240
2,66,60,4
2,71,40,240
2,81,40,4
2,74,40,0
2,71,40,240
2,64,60,4
2,67,40,240
2,79,40,4
2,74,40,0
2,71,40,240
2,62,60,4
2,67,40,240
2,71,40,4
2,78,40,0
2,67,40,240
2,60,60,4
2,64,40,240
2,67,40,4
2,76,40,0
2,72,40,0
2,64,40,240
2,59,60,4
2,64,40,240
2,67,40,4
2,76,40,0
2,72,40,0
2,64,40,240
2,57,60,4
2,69,40,240
2,72,40,4
2,76,40,0
2,69,40,240
2,62,60,4
2,69,40,240
2,76,40,4
2,72,40,0
2,69,40,240
2,67,60,4
2,71,40,240
2,74,40,4
2,79,40,0
2,71,40,240
2,66,60,4
2,71,40,240
2,74,40,4
2,81,40,0
2,71,40,240
2,64,60,4
2,71,40,240
2,76,40,4
2,79,40,0
2,71,40,240
2,62,60,4
2,71,40,240
2,74,40,4
2,78,40,0
2,71,40,240
2,60,60,4
2,67,40,240
2,76,40,4
2,72,40,0
2,67,40,240
2,59,60,4
2,67,40,240
2,71,40,4
2,76,40,0
2,67,40,240
2,57,60,4
2,69,40,240
2,72,40,4
2,76,40,0
2,69,40,240
2,62,60,4
2,69,40,240
2,72,40,4
2,76,40,0
2,69,40,240
2,55,60,4
2,71,40,240
2,74,40,4
2,79,40,0
2,71,40,240
2,54,60,4
2,71,40,240
2,74,40,4
2,81,40,0
2,71,40,240
2,52,60,4
2,71,40,240
2,76,40,4
2,79,40,0
2,71,40,240
2,63,60,4
2,71,40,240
2,75,40,4
2,78,40,0
2,71,40,240
2,62,60,4
2,71,40,240
2,74,40,4
2,78,40,0
2,71,40,240
2,61,60,4
2,67,40,240
2,71,40,4
2,76,40,0
2,67,40,240
2,60,60,4
2,67,40,240
2,71,40,4
2,76,40,0
2,67,40,240
2,60,60,4
2,67,40,240
2,71,40,4
2,76,40,0
2,67,40,240
2,59,60,4
2,67,40,240
2,71,40,4
2,74,40,0
2,67,40,240
2,59,60,4
2,71,40,240
2,74,40,4
2,78,40,0
2,71,40,240
2,57,60,4
2,69,40,240
2,72,40,4
2,76,40,0
2,69,40,240
2,59,60,4
2,71,40,240
2,74,40,4
2,78,40,0
2,71,40,240
2,60,60,4
2,67,40,240
2,72,40,4
2,76,40,0
2,67,40,240
2,59,60,4
2,71,40,240
2,74,40,4
2,78,40,0
2,71,40,240
2,57,60,4
2,69,40,240
2,72,40,4
2,76,40,0
2,69,40,240
2,59,60,4
2,71,40,240
2,74,40,4
2,78,40,0
2,71,40,240
2,60,60,4
2,67,40,240
2,72,40,4
2,76,40,0
2,67,40,240
2,61,60,4
2,67,40,240
2,73,40,4
2,76,40,0
2,67,40,240
2,62,60,4
2,69,40,240
2,72,40,4
2,76,40,0
2,69,40,240
2,79,40,4
2,72,40,0
2,78,40,4
2,72,40,0
2,69,40,0
2,67,60,4
2,71,40,240
2,74,40,4
2,79,40,0
2,71,40,240
2,66,60,4
2,71,40,240
2,74,40,4
2,81,40,0
2,71,40,240
2,64,60,4
2,71,40,240
2,76,40,4
2,79,40,0
2,71,40,240
2,62,60,4
2,71,40,240
2,74,40,4
2,78,40,0
2,71,40,240
2,60,60,4
2,67,40,240
2,76,40,4
2,72,40,0
2,67,40,240
2,59,60,4
2,67,40,240
2,71,40,4
2,76,40,0
2,67,40,240
2,57,60,4
2,69,40,240
2,72,40,4
2,76,40,0
2,69,40,240
2,62,60,4
2,69,40,240
2,72,40,4
2,76,40,0
2,69,40,240
2,55,60,4
2,71,40,240
2,74,40,4
2,79,40,0
2,71,40,240
2,54,60,4
2,71,40,240
2,74,40,4
2,81,40,0
2,71,40,240
2,52,60,4
2,71,40,240
2,76,40,4
2,79,40,0
2,71,40,240
2,63,60,4
2,71,40,240
2,75,40,4
2,78,40,0
2,71,40,240
2,62,60,4
2,71,40,240
2,74,40,4
2,78,40,0
2,71,40,240
2,61,60,4
2,67,40,240
2,71,40,4
2,76,40,0
2,67,40,240
2,60,60,4
2,67,40,240
2,71,40,4
2,76,40,0
2,67,40,240
2,60,60,4
2,67,40,240
2,71,40,4
2,76,40,0
2,67,40,240
2,59,60,4
2,67,40,240
2,71,40,4
2,74,40,0
2,67,40,240
2,59,60,4
2,71,40,240
2,74,40,4
2,78,40,0
2,71,40,240
2,57,60,4
2,69,40,240
2,72,40,4
2,76,40,0
2,69,40,240
2,59,60,4
2,71,40,240
2,74,40,4
2,78,40,0
2,71,40,240
2,60,60,4
2,67,40,240
2,72,40,4
2,76,40,0
2,67,40,240
2,59,60,4
2,71,40,240
2,74,40,4
2,78,40,0
2,71,40,240
2,57,60,4
2,69,40,240
2,72,40,4
2,76,40,0
2,69,40,240
2,59,60,4
2,71,40,240
2,74,40,4
2,78,40,0
2,71,40,240
2,60,60,4
2,67,40,240
2,72,40,4
2,76,40,0
2,67,40,240
2,61,60,4
2,67,40,240
2,73,40,4
2,76,40,0
2,67,40,240
2,62,100,4
2,67,70,240
2,74,70,4
2,71,70,0
2,62,100,4
2,67,70,240
2,74,70,4
2,71,70,0
2,62,100,4
2,71,70,240
2,74,70,0
2,67,70,0
2,63,100,4
2,71,70,4
2,75,70,240
2,78,70,0
2,63,100,4
2,71,70,4
2,75,70,240
2,78,70,0
2,63,100,4
2,75,70,4
2,71,70,0
2,78,70,0
2,64,100,4
2,71,70,4
2,76,70,240
2,79,70,0
2,64,100,4
2,52,100,4
2,71,70,240
2,76,70,240
2,79,70,0
2,52,100,4
2,65,100,4
2,71,70,240
2,74,70,240
2,55,70,4
2,71,70,0
2,77,70,240
2,74,70,4
2,71,70,4
2,74,70,240
2,60,100,4
2,67,70,240
2,72,70,240
2,67,70,4
2,76,70,4
2,72,70,240
2,67,70,4
2,72,70,4
2,60,100,4
2,67,70,4
2,72,70,240
2,67,70,4
2,75,70,4
2,60,70,0
2,72,70,240
2,67,70,4
2,72,70,4
2,67,60,4
2,71,40,4
2,74,40,4
2,79,40,0
2,71,40,240
2,66,60,4
2,71,40,240
2,81,40,4
2,74,40,0
2,71,40,240
2,64,60,4
2,67,40,240
2,79,40,4
2,74,40,0
2,71,40,240
2,62,60,4
2,67,40,240
2,71,40,4
2,78,40,0
2,67,40,240
2,60,60,4
2,64,40,240
2,67,40,4
2,76,40,0
2,72,40,0
2,64,40,240
2,59,60,4
2,64,40,240
2,67,40,4
2,76,40,0
2,72,40,0
2,64,40,240
2,57,60,4
2,69,40,240
2,72,40,4
2,76,40,0
2,69,40,240
2,62,60,4
2,69,40,240
2,76,40,4
2,72,40,0
2,69,40,240
2,67,60,4
2,71,40,240
2,74,40,4
2,79,40,0
2,71,40,240
2,66,60,4
2,71,40,240
2,74,40,4
2,81,40,0
2,71,40,240
2,64,60,4
2,71,40,240
2,76,40,4
2,79,40,0
2,71,40,240
2,62,60,4
2,71,40,240
2,74,40,4
2,78,40,0
2,71,40,240
2,60,60,4
2,67,40,240
2,76,40,4
2,72,40,0
2,67,40,240
2,59,60,4
2,67,40,240
2,71,40,4
2,76,40,0
2,67,40,240
2,57,60,4
2,69,40,240
2,72,40,4
2,76,40,0
2,69,40,240
2,62,60,4
2,69,40,240
2,72,40,4
2,76,40,0
2,69,40,240
2,55,60,4
2,71,40,240
2,74,40,4
2,79,40,0
2,71,40,240
2,54,60,4
2,71,40,240
2,74,40,4
2,81,40,0
2,71,40,240
2,52,60,4
2,71,40,240
2,76,40,4
2,79,40,0
2,71,40,240
2,63,60,4
2,71,40,240
2,75,40,4
2,78,40,0
2,71,40,240
2,62,60,4
2,71,40,240
2,74,40,4
2,78,40,0
2,71,40,240
2,61,60,4
2,67,40,240
2,71,40,4
2,76,40,0
2,67,40,240
2,60,60,4
2,67,40,240
2,71,40,4
2,76,40,0
2,67,40,240
2,60,60,4
2,67,40,240
2,71,40,4
2,76,40,0
2,67,40,240
2,59,60,4
2,67,40,240
2,71,40,4
2,74,40,0
2,67,40,240
2,59,60,4
2,71,40,240
2,74,40,4
2,78,40,0
2,71,40,240
2,57,60,4
2,69,40,240
2,72,40,4
2,76,40,0
2,69,40,240
2,59,60,4
2,71,40,240
2,74,40,4
2,78,40,0
2,71,40,240
2,60,60,4
2,67,40,240
2,72,40,4
2,76,40,0
2,67,40,240
2,59,60,4
2,71,40,240
2,74,40,4
2,78,40,0
2,71,40,240
2,57,60,4
2,69,40,240
2,72,40,4
2,76,40,0
2,69,40,240
2,59,60,4
2,71,40,240
2,74,40,4
2,78,40,0
2,71,40,240
2,60,60,4
2,67,40,240
2,72,40,4
2,76,40,0
2,67,40,240
2,61,60,4
2,67,40,240
2,73,40,4
2,76,40,0
2,67,40,240
2,62,100,4
2,67,70,240
2,74,70,240
2,71,70,0
2,62,100,4
2,67,70,4
2,74,70,240
2,71,70,0
2,62,100,4
2,71,70,4
2,74,70,0
2,67,70,0
2,63,100,4
2,71,70,4
2,75,70,240
2,78,70,0
2,63,100,4
2,71,70,4
2,75,70,240
2,78,70,0
2,63,100,4
2,75,70,4
2,71,70,0
2,78,70,0
2,64,100,4
2,71,70,4
2,76,70,240
2,79,70,0
2,64,100,4
2,52,100,4
2,71,70,240
2,76,70,240
2,79,70,0
2,52,100,4
2,65,100,4
2,71,70,240
2,74,70,240
2,55,70,4
2,71,70,0
2,77,70,240
2,74,70,4
2,71,70,4
2,74,70,240
2,60,100,4
2,67,70,240
2,72,70,240
2,67,70,4
2,76,70,4
2,72,70,4
2,67,70,4
2,72,70,4
2,60,100,4
2,67,70,4
2,72,70,240
2,67,70,4
2,75,70,4
2,60,70,0
2,72,70,4
2,67,70,4
2,72,70,4
2,55,30,208
2,62,30,16
2,67,40,4
2,71,40,16
2,74,40,16
2,79,45,32
3,90,60,4
3,91,60,124
3,93,60,124
3,88,60,124
3,88,60,8
3,90,60,844
3,88,60,844
3,90,60,4
3,91,60,124
3,90,60,124
3,86,60,124
3,79,60,4
3,83,60,32
3,88,60,24
3,83,60,4
3,86,60,32
3,90,60,24
3,84,60,4
3,88,60,32
3,91,60,24
3,85,60,4
3,88,60,32
3,91,60,24
3,81,60,4
3,84,60,32
3,88,60,24
3,91,60,820
3,90,60,364
3,91,60,364
3,74,60,4
3,75,60,1804
3,76,60,1804
3,77,60,1804
3,79,60,2524
3,79,60,1804
3,79,60,4
3,86,60,1804
3,79,60,1804
3,84,60,2764
3,83,60,844
3,88,60,8
3,90,60,844
3,88,60,844
3,90,60,4
3,91,60,124
3,90,60,124
3,86,60,124
3,79,60,4
3,83,60,32
3,88,60,24
3,83,60,4
3,86,60,32
3,90,60,24
3,84,60,4
3,88,60,32
3,91,60,24
3,85,60,4
3,88,60,32
3,91,60,24
3,83,60,4
3,86,60,32
3,91,60,24
3,83,60,4
3,87,60,32
3,90,60,24
3,83,60,4
3,88,60,32
3,91,60,24
3,83,60,4
3,86,60,32
3,89,60,24
3,79,60,4
3,84,60,32
3,88,60,24
3,79,80,580
3,79,60,4
3,84,60,32
3,87,60,24
3,79,80,580
3,79,60,4
3,83,60,32
3,86,60,24
4,79,5,0
4,86,10,712
4,84,20,1432
4,83,15,200
4,79,15,192
4,74,20,720
4,76,10,232
4,78,15,1160
4,79,10,188
4,81,5,232
4,76,5,196
4,67,5,52
4,69,5,948
4,67,5,936
4,66,5,904
4,67,5,896
4,64,5,1880
4,62,5,152
4,67,5,24
4,66,5,8
4,67,5,940
4,64,5,24
4,64,5,12
4,67,5,1896
4,60,10,144
4,62,10,60
4,64,10,944
4,62,10,28
4,60,10,940
4,62,10,964
4,64,10,920
4,62,10,1876
4,79,5,0
4,81,10,248
4,86,15,152
4,83,15,140
4,79,15,1880
4,74,15,1904
4,60,15,24
4,79,15,20
4,86,15,952
4,84,10,1400
4,83,10,188
4,79,15,176
4,74,10,700
4,76,10,244
4,78,10,1132
4,79,10,8
