track,note,velocity,time
3,40,127,1325
3,52,104,0
3,56,104,0
3,59,127,0
3,63,117,0
3,64,65,0
3,68,104,0
3,52,100,400
3,56,104,0
3,59,127,0
3,63,113,0
3,68,110,0
3,56,100,240
3,59,104,0
3,63,117,0
3,68,104,0
3,52,95,110
3,40,104,85
3,52,100,0
3,57,127,0
3,61,95,0
3,64,100,0
3,52,104,160
3,57,127,0
3,61,110,0
3,64,104,0
3,52,47,78
3,52,100,73
3,57,127,0
3,61,110,0
3,64,104,0
3,56,59,10
3,40,110,145
3,52,104,0
3,56,100,0
3,59,110,0
3,63,117,0
3,64,87,0
3,68,110,0
3,56,110,140
3,59,127,0
3,63,127,0
3,68,104,0
3,52,100,70
3,56,38,0
3,56,100,193
3,59,104,0
3,63,108,0
3,68,100,0
3,52,65,45
3,52,100,73
3,40,127,93
3,52,100,0
3,57,127,0
3,61,104,0
3,64,100,0
3,52,104,150
3,57,127,0
3,61,110,0
3,64,100,0
3,52,49,30
3,52,104,160
3,57,127,0
3,61,110,0
3,64,100,0
3,52,110,5
3,56,110,0
3,59,104,0
3,63,117,0
3,52,110,25
3,56,104,0
3,59,100,0
3,63,101,0
3,52,110,38
3,56,110,0
3,59,104,0
3,63,104,0
3,52,110,73
3,57,117,0
3,61,110,0
3,64,95,0
3,52,110,18
3,57,127,0
3,61,100,0
3,64,95,0
3,52,110,45
3,57,127,0
3,61,104,0
3,64,100,0
3,52,110,70
3,56,104,0
3,59,104,0
3,63,101,0
3,52,110,20
3,56,110,0
3,59,110,0
3,63,113,0
3,52,110,18
3,56,110,0
3,59,110,0
3,63,113,0
3,52,110,33
3,57,127,0
3,61,104,0
3,64,91,0
3,52,127,25
3,57,127,0
3,61,104,0
3,64,100,0
3,57,57,153
3,52,110,78
3,57,122,0
3,61,110,0
3,64,104,0
3,45,127,40
3,52,87,0
3,57,117,0
3,61,91,0
3,45,117,20
3,52,87,0
3,57,104,0
3,61,87,0
3,45,122,320
3,52,100,0
3,57,127,0
3,61,100,0
3,44,104,50
3,56,104,0
3,59,104,0
3,63,101,0
3,44,104,40
3,56,100,0
3,59,100,0
3,63,108,0
3,44,91,138
3,56,95,0
3,59,100,0
3,63,97,0
3,44,104,25
3,56,100,0
3,59,104,0
3,63,113,0
3,42,104,18
3,54,100,0
3,57,108,0
3,61,83,0
3,42,95,85
3,54,95,0
3,57,113,0
3,61,91,0
3,42,104,173
3,54,100,0
3,57,108,0
3,61,91,0
3,42,110,25
3,54,95,0
3,57,108,0
3,61,87,0
3,42,104,33
3,54,95,0
3,57,97,0
3,61,76,0
3,42,110,10
3,54,95,0
3,57,97,0
3,61,76,0
3,52,74,160
3,56,74,0
3,59,72,0
3,63,80,0
3,52,78,25
3,56,72,0
3,59,70,0
3,63,70,0
3,52,79,38
3,56,79,0
3,59,75,0
3,63,75,0
3,52,83,73
3,57,87,0
3,61,83,0
3,64,69,0
3,52,83,18
3,57,96,0
3,61,75,0
3,64,72,0
3,52,86,45
3,57,100,0
3,61,82,0
3,64,79,0
3,52,89,70
3,56,84,0
3,59,84,0
3,63,81,0
3,52,91,20
3,56,91,0
3,59,91,0
3,63,93,0
3,52,92,18
3,56,92,0
3,59,92,0
3,63,96,0
3,52,95,33
3,57,111,0
3,61,90,0
3,64,79,0
3,52,113,25
3,57,113,0
3,61,92,0
3,64,88,0
3,57,51,153
3,52,100,78
3,57,111,0
3,61,100,0
3,64,94,0
3,85,120,40
3,83,99,0
3,85,84,0
3,88,111,0
3,87,105,0
3,83,78,0
3,85,98,0
3,68,116,720
3,73,111,0
3,77,115,0
3,78,100,0
3,77,111,0
3,73,113,0
3,68,103,0
3,71,118,0
3,76,112,0
3,56,91,1320
3,59,100,0
3,63,101,0
3,57,101,405
3,61,91,0
3,64,80,0
3,56,87,30
3,59,91,0
3,63,91,0
3,64,100,118
3,63,70,50
3,61,70,300
3,59,70,340
3,40,73,105
3,56,63,0
3,59,63,0
3,63,55,0
3,40,84,153
3,56,67,0
3,59,67,0
3,63,57,0
3,40,75,20
3,57,63,0
3,61,55,0
3,64,44,0
3,40,65,18
3,57,70,0
3,61,56,0
3,40,79,13
3,56,65,0
3,59,63,0
3,63,61,0
3,40,82,33
3,56,67,0
3,59,67,0
3,63,62,0
3,40,75,20
3,57,70,0
3,61,61,0
3,64,47,0
3,40,72,13
3,57,75,0
3,61,70,0
3,64,57,0
3,45,89,210
3,57,82,0
3,61,73,0
3,64,73,0
3,45,97,33
3,44,86,18
3,56,78,0
3,59,81,0
3,63,84,0
3,42,92,5
3,54,73,0
3,57,95,0
3,61,84,0
3,42,82,50
3,42,93,130
3,54,77,40
3,57,75,98
3,61,85,120
3,57,61,73
3,54,77,78
3,52,74,5
3,56,74,0
3,59,72,0
3,63,80,0
3,52,78,25
3,56,72,0
3,59,70,0
3,63,70,0
3,52,79,38
3,56,79,0
3,59,75,0
3,63,75,0
3,52,83,73
3,57,87,0
3,61,83,0
3,64,69,0
3,52,83,18
3,57,96,0
3,61,75,0
3,64,72,0
3,52,86,45
3,57,100,0
3,61,82,0
3,64,79,0
3,52,89,70
3,56,84,0
3,59,84,0
3,63,81,0
3,52,91,20
3,56,91,0
3,59,91,0
3,63,93,0
3,52,92,18
3,56,92,0
3,59,92,0
3,63,96,0
3,52,95,33
3,57,111,0
3,61,90,0
3,64,79,0
3,52,113,25
3,57,113,0
3,61,92,0
3,64,88,0
3,57,51,153
3,52,100,78
3,57,111,0
3,61,100,0
3,64,94,0
3,85,120,40
3,83,99,0
3,85,84,0
3,88,111,0
3,87,105,0
3,83,78,0
3,85,98,0
3,68,116,720
3,73,111,0
3,77,115,0
3,78,100,0
3,77,111,0
3,73,113,0
3,68,103,0
3,71,118,0
3,76,112,0
3,56,91,1320
3,59,100,0
3,63,101,0
3,80,127,2
3,81,86,10
3,83,100,103
3,81,83,98
3,80,95,83
3,76,87,12
3,88,87,138
3,80,110,317
3,83,100,2
3,83,91,53
3,57,101,35
3,61,91,0
3,64,80,0
3,80,83,25
3,56,87,5
3,59,91,0
3,63,91,0
3,81,79,10
3,83,68,8
3,81,67,13
3,80,76,130
3,76,65,7
3,88,91,148
3,80,83,330
3,83,73,358
3,83,76,40
3,64,100,40
3,63,70,50
3,61,70,300
3,59,70,340
3,88,104,105
3,83,104,5
3,81,104,360
3,83,100,13
3,80,95,360
3,83,91,10
3,80,80,360
3,83,91,333
3,88,91,165
3,88,83,25
3,83,95,13
3,81,94,360
3,83,80,320
3,73,100,338
3,80,95,0
3,85,80,0
3,75,86,30
3,87,73,0
3,76,95,90
3,88,71,0
3,78,100,90
3,90,76,0
3,80,80,100
3,92,71,0
3,81,73,118
3,93,77,0
3,83,91,90
3,85,91,110
3,87,75,130
3,88,45,230
3,88,100,43
3,76,76,250
3,83,83,75
3,76,61,13
3,81,77,120
3,80,91,0
3,78,73,5
3,80,71,240
3,88,83,0
3,76,80,240
3,83,76,50
3,76,68,30
3,81,71,120
3,80,76,338
3,78,59,13
3,80,80,240
3,88,76,218
3,76,63,218
3,83,91,38
3,76,65,220
3,81,73,118
3,80,83,340
3,78,73,20
3,80,76,240
3,78,87,25
3,80,83,240
3,80,76,373
3,52,74,2530
3,56,74,0
3,59,72,0
3,63,80,0
3,52,78,25
3,56,72,0
3,59,70,0
3,63,70,0
3,52,79,38
3,56,79,0
3,59,75,0
3,63,75,0
3,52,83,73
3,57,87,0
3,61,83,0
3,64,69,0
3,52,83,18
3,57,96,0
3,61,75,0
3,64,72,0
3,52,86,45
3,57,100,0
3,61,82,0
3,64,79,0
3,52,89,70
3,56,84,0
3,59,84,0
3,63,81,0
3,52,91,20
3,56,91,0
3,59,91,0
3,63,93,0
3,52,92,18
3,56,92,0
3,59,92,0
3,63,96,0
3,52,95,33
3,57,111,0
3,61,90,0
3,64,79,0
3,52,113,25
3,57,113,0
3,61,92,0
3,64,88,0
3,57,51,153
3,52,100,78
3,57,111,0
3,61,100,0
3,64,94,0
3,85,120,40
3,83,99,0
3,85,84,0
3,88,111,0
3,87,105,0
3,83,78,0
3,85,98,0
3,68,116,720
3,73,111,0
3,77,115,0
3,78,100,0
3,77,111,0
3,73,113,0
3,68,103,0
3,71,118,0
3,76,112,0
3,80,110,1322
3,88,110,263
3,83,110,307
3,80,104,312
3,81,88,83
3,83,95,58
3,81,104,180
3,88,91,142
3,85,104,333
3,81,88,320
3,83,104,310
3,81,108,180
3,80,110,92
3,88,110,263
3,83,110,307
3,80,104,312
3,81,88,83
3,83,95,58
3,81,104,180
3,88,91,142
3,85,104,333
3,81,88,320
3,83,104,310
3,81,108,180
3,80,110,92
3,88,110,263
3,83,110,307
3,80,104,312
3,81,88,83
3,83,95,58
3,81,104,180
3,88,91,142
3,85,104,333
3,81,88,320
3,83,104,310
3,81,108,180
3,80,110,92
3,88,110,263
3,83,110,307
3,80,104,312
3,81,88,83
3,83,95,58
3,81,104,180
3,88,91,142
3,85,104,333
3,81,88,320
3,83,104,310
3,81,108,180
3,56,104,70
3,59,110,7
3,63,122,0
3,56,104,13
3,40,127,7
3,63,122,0
3,59,110,3
4,47,127,11885
4,49,115,5
4,52,109,5
4,49,115,5
4,52,127,5
4,40,115,0
4,47,127,960
4,49,96,5
4,52,100,5
4,49,109,5
4,52,100,5
4,40,127,125
4,33,127,0
4,32,127,0
4,32,115,120
4,30,127,125
4,30,115,120
4,30,127,125
4,28,127,240
4,40,127,0
4,47,95,960
4,49,95,5
4,52,95,5
4,49,95,5
4,52,95,5
4,40,95,0
4,28,127,0
4,40,127,0
4,47,95,960
4,49,95,5
4,52,95,5
4,49,95,5
4,52,95,5
4,40,95,125
4,45,127,0
4,44,115,0
4,37,115,0
4,47,85,0
4,40,127,1320
4,35,127,120
4,40,127,125
4,35,127,120
4,35,127,120
4,40,127,0
4,33,127,0
4,32,127,40
4,30,127,298
4,35,127,333
4,37,109,600
4,40,127,33
4,40,115,73
4,40,109,30
4,47,127,960
4,49,115,5
4,52,109,5
4,49,115,5
4,52,127,5
4,40,115,0
4,40,115,73
4,40,127,80
4,40,109,80
4,47,127,960
4,49,96,5
4,52,100,5
4,49,109,5
4,52,100,5
4,40,127,30
4,33,127,0
4,32,127,0
4,32,115,120
4,30,127,125
4,30,115,120
4,30,127,125
4,28,127,240
4,40,127,0
4,47,95,960
4,49,95,5
4,52,95,5
4,49,95,5
4,52,95,5
4,40,95,0
4,28,127,0
4,40,127,0
4,47,95,960
4,49,95,5
4,52,95,5
4,49,95,5
4,52,95,5
4,40,95,125
4,45,127,0
4,44,115,0
4,37,115,0
4,47,85,0
4,40,127,1320
4,35,127,120
4,40,127,125
4,35,127,120
4,35,127,120
4,40,127,0
4,33,127,0
4,32,127,40
4,30,127,298
4,35,127,333
4,37,109,600
4,28,127,33
4,40,127,0
4,35,115,33
4,33,127,40
4,35,115,20
4,35,109,53
4,28,127,20
4,40,127,0
4,35,115,33
4,33,127,40
4,35,115,20
4,35,109,53
4,28,127,20
4,40,127,0
4,35,115,33
4,33,127,40
4,35,115,20
4,35,109,53
4,28,127,20
4,40,127,0
4,35,115,33
4,33,127,40
4,35,115,20
4,35,109,53
4,28,127,20
4,40,127,0
4,35,115,33
4,33,127,40
4,35,115,20
4,35,109,53
4,28,127,20
4,40,127,0
4,35,115,33
4,33,127,40
4,35,115,20
4,35,109,53
4,28,127,20
4,40,127,0
4,35,115,33
4,33,127,40
4,35,115,20
4,35,109,53
4,28,127,20
4,40,127,0
4,35,115,33
4,33,127,40
4,35,115,20
4,35,109,53
4,28,127,20
4,28,127,480
4,40,127,0
4,47,95,960
4,49,95,5
4,52,95,5
4,49,95,5
4,52,95,5
4,40,95,0
4,28,127,0
4,40,127,0
4,47,95,960
4,49,95,5
4,52,95,5
4,49,95,5
4,52,95,5
4,40,95,125
4,45,127,0
4,44,115,0
4,37,115,0
4,47,85,0
4,28,115,1322
4,28,127,110
4,40,115,53
4,40,109,65
4,30,96,367
4,32,115,0
4,35,92,228
4,28,115,13
4,28,115,70
4,40,109,18
4,40,109,45
4,33,118,18
4,35,105,240
4,28,115,230
4,28,115,60
4,40,109,15
4,40,115,55
4,32,115,25
4,35,96,10
4,28,115,10
4,28,115,60
4,40,115,20
4,40,109,60
4,33,109,18
4,35,115,245
4,28,109,218
4,28,115,65
4,40,115,38
4,40,105,45
4,32,127,35
4,35,105,10
4,28,115,3
4,28,115,73
4,40,115,25
4,40,115,72
4,33,122,360
4,35,109,5
4,28,105,0
4,28,109,67
4,40,115,13
4,40,115,62
4,32,109,12
4,35,81,25
4,28,115,5
4,28,115,72
4,40,115,13
4,40,109,98
4,33,113,367
4,35,109,200
4,28,127,50
5,63,75,2285
5,64,73,5
5,68,63,5
5,71,80,5
5,76,61,120
5,78,80,0
5,80,76,5
5,83,71,5
5,88,73,5
5,88,73,5
5,83,76,480
5,78,59,7
5,76,73,238
5,83,65,8
5,78,65,245
5,78,83,13
5,76,61,235
5,71,61,253
5,88,40,7085
5,87,40,0
5,85,40,0
5,56,61,1920
5,59,71,0
5,63,91,0
5,57,58,0
5,61,61,0
5,64,51,0
5,56,68,0
5,59,68,0
5,63,81,0
5,57,62,0
5,61,71,0
5,64,35,0
5,45,55,120
5,57,68,0
5,61,76,0
5,64,63,0
5,44,61,0
5,56,65,0
5,59,65,0
5,63,73,0
5,37,76,0
5,49,65,0
5,56,80,0
5,68,65,240
5,73,63,0
5,77,62,0
5,78,71,0
5,77,70,0
5,73,59,0
5,68,46,0
5,71,63,0
5,80,63,1560
5,83,53,58
5,85,55,30
5,80,61,218
5,83,53,18
5,85,61,50
5,56,61,1650
5,59,71,0
5,63,91,0
5,57,58,0
5,61,61,0
5,64,51,0
5,56,68,0
5,59,68,0
5,63,81,0
5,57,62,0
5,61,71,0
5,64,35,0
5,45,55,120
5,57,68,0
5,61,76,0
5,64,63,0
5,44,61,0
5,56,65,0
5,59,65,0
5,63,73,0
5,56,61,3840
5,59,71,0
5,63,91,0
5,57,58,0
5,61,61,0
5,64,51,0
5,56,68,0
5,59,68,0
5,63,81,0
5,57,62,0
5,61,71,0
5,64,35,0
5,45,55,120
5,57,68,0
5,61,76,0
5,64,63,0
5,44,61,0
5,56,65,0
5,59,65,0
5,63,73,0
5,37,76,0
5,49,65,0
5,56,80,0
5,68,65,240
5,73,63,0
5,77,62,0
5,78,71,0
5,77,70,0
5,73,59,0
5,68,46,0
5,71,63,0
5,80,63,1560
5,83,53,58
5,85,55,30
5,80,61,218
5,83,53,18
5,85,61,50
5,71,104,1170
5,73,110,67
5,75,94,5
5,76,73,73
5,78,87,15
5,80,63,10
5,81,86,10
5,83,87,63
5,80,83,1692
5,78,57,242
5,76,63,1137
5,78,80,255
5,80,68,230
5,83,110,43
5,85,104,5
5,87,81,20
5,88,104,235
5,87,108,17
5,88,104,233
5,90,100,213
5,92,100,5
5,90,104,227
5,92,100,240
5,93,94,10
5,95,127,5
5,92,87,10
5,90,91,487
5,88,95,915
5,83,83,218
5,81,81,8
5,80,76,245
5,83,83,50
5,90,100,205
5,92,100,240
5,88,110,363
5,56,61,2645
5,59,71,0
5,63,91,0
5,57,58,0
5,61,61,0
5,64,51,0
5,56,68,0
5,59,68,0
5,63,81,0
5,57,62,0
5,61,71,0
5,64,35,0
5,45,55,120
5,57,68,0
5,61,76,0
5,64,63,0
5,44,61,0
5,56,65,0
5,59,65,0
5,63,73,0
5,37,76,0
5,49,65,0
5,56,80,0
5,68,65,240
5,73,63,0
5,77,62,0
5,78,71,0
5,77,70,0
5,73,59,0
5,68,46,0
5,71,63,0
5,95,100,1560
5,93,117,475
5,92,100,100
5,93,104,85
5,92,95,68
5,90,91,78
5,88,80,75
5,88,87,130
5,88,91,42
5,90,110,45
5,92,110,37
5,93,113,8
5,95,100,70
5,93,113,520
5,92,95,115
5,93,97,103
5,92,91,98
5,90,76,98
5,88,87,105
5,88,95,90
5,88,87,97
5,90,110,45
5,92,110,28
5,93,108,13
5,95,95,3
5,93,113,520
