track,note,velocity,time
0,42,120,0
0,42,0,4
0,42,70,92
0,42,0,4
0,42,70,92
0,42,0,4
0,42,70,92
0,42,0,4
0,54,99,0
0,84,18,0
0,54,78,0
0,84,0,4
0,57,76,20
0,57,0,21
0,61,81,3
0,64,76,24
0,61,0,4
0,64,0,20
0,84,18,0
0,68,76,0
0,84,0,4
0,64,77,20
0,68,0,3
0,54,0,8
0,57,95,13
0,57,73,1
0,64,0,1
0,57,0,17
0,61,77,4
0,57,0,7
0,54,0,4
0,61,0,5
0,84,23,8
0,54,95,1
0,54,73,0
0,84,0,3
0,69,81,21
0,54,0,4
0,57,95,20
0,57,74,0
0,69,0,1
0,57,0,17
0,64,73,6
0,84,20,23
0,61,77,1
0,57,76,0
0,64,0,1
0,84,0,2
0,57,0,16
0,57,79,5
0,61,0,1
0,57,0,21
0,61,74,2
0,57,73,0
0,57,0,5
0,54,0,11
0,57,0,1
0,54,99,7
0,54,76,0
0,61,0,1
0,54,0,20
0,54,0,3
0,54,99,0
0,66,73,0
0,57,79,23
0,57,0,19
0,61,80,5
0,57,72,24
0,57,0,20
0,61,0,1
0,57,72,3
0,64,79,0
0,57,0,14
0,64,0,5
0,66,0,0
0,68,75,6
0,54,0,13
0,68,0,8
0,57,97,2
0,57,78,1
0,57,0,16
0,57,0,3
0,69,75,4
0,69,0,19
0,57,96,5
0,57,80,1
0,57,0,19
0,57,0,0
0,64,78,5
0,64,0,18
0,57,95,5
0,57,77,0
0,57,0,18
0,57,0,1
0,61,80,6
0,61,0,20
0,54,98,3
0,54,78,0
0,61,75,24
0,61,0,23
0,64,79,0
0,54,0,1
0,64,0,24
0,68,75,0
0,54,0,13
0,68,0,4
0,84,22,0
0,49,75,0
0,84,0,4
0,56,80,19
0,56,99,1
0,56,0,14
0,56,0,6
0,59,75,3
0,56,72,24
0,56,100,1
0,59,0,3
0,56,0,14
0,56,0,3
0,63,72,3
0,84,23,1
0,84,0,4
0,63,0,17
0,56,95,2
0,56,80,0
0,56,0,18
0,56,0,3
0,59,80,3
0,59,0,24
0,56,96,0
0,56,72,0
0,56,0,19
0,84,20,5
0,63,73,0
0,56,0,1
0,84,0,3
0,63,0,15
0,56,103,5
0,56,77,0
0,56,0,14
0,56,0,5
0,56,79,5
0,61,79,0
0,61,0,11
0,56,0,3
0,56,75,10
0,64,78,0
0,56,98,1
0,56,0,13
0,64,0,2
0,56,100,9
0,84,16,0
0,49,0,3
0,84,0,1
0,56,0,11
0,66,73,8
0,56,0,3
0,56,99,21
0,56,79,0
0,66,0,2
0,56,0,21
0,56,0,2
0,59,77,24
0,64,77,23
0,64,101,1
0,59,0,9
0,64,0,8
0,64,0,7
0,59,81,0
0,61,80,23
0,63,99,1
0,59,0,10
0,63,0,7
0,61,0,1
0,64,81,6
0,68,75,23
0,63,97,1
0,64,0,10
0,63,0,7
0,63,79,6
0,64,74,24
0,64,102,1
0,64,0,15
0,63,0,0
0,68,0,5
0,64,0,1
0,71,77,2
0,64,101,24
0,64,76,0
0,64,0,20
0,68,74,4
0,64,0,3
0,71,0,0
0,75,76,21
0,71,75,1
0,68,0,1
0,71,0,19
0,71,77,3
0,80,79,24
0,71,0,17
0,75,0,3
0,61,81,4
0,71,81,0
0,80,0,7
0,83,76,17
0,56,78,0
0,61,0,2
0,71,0,10
0,56,0,9
0,54,101,3
0,42,79,0
0,84,19,0
0,54,75,0
0,83,0,3
0,84,0,1
0,42,0,0
0,57,80,20
0,57,0,21
0,54,82,0
0,42,76,1
0,61,74,0
0,42,0,4
0,54,0,7
0,64,76,13
0,61,0,4
0,64,0,20
0,42,94,0
0,36,95,0
0,69,93,0
0,84,16,0
0,42,58,0
0,42,62,0
0,68,73,0
0,84,0,4
0,36,0,0
0,69,0,0
0,42,77,20
0,69,100,0
0,64,77,0
0,68,0,3
0,69,0,1
0,42,0,0
0,54,0,7
0,42,0,8
0,42,0,0
0,42,0,0
0,56,85,4
0,57,103,1
0,69,92,0
0,57,72,1
0,64,0,1
0,69,0,2
0,56,0,9
0,57,0,6
0,61,73,4
0,69,97,1
0,69,0,4
0,57,0,2
0,54,0,4
0,61,0,5
0,84,18,8
0,54,96,1
0,42,84,0
0,69,93,0
0,54,74,0
0,84,0,3
0,69,0,1
0,42,0,0
0,42,52,20
0,69,72,0
0,42,0,4
0,54,0,0
0,57,79,19
0,57,97,1
0,57,80,0
0,69,0,1
0,57,0,13
0,57,0,4
0,42,79,6
0,64,80,0
0,42,0,4
0,42,91,19
0,36,102,0
0,84,23,0
0,42,60,0
0,42,64,0
0,61,72,1
0,57,74,0
0,64,0,1
0,36,0,2
0,84,0,0
0,57,0,16
0,57,74,5
0,61,0,1
0,42,0,12
0,42,0,0
0,42,0,0
0,57,0,9
0,56,76,1
0,42,78,1
0,61,74,0
0,57,78,0
0,42,0,4
0,57,0,1
0,56,0,10
0,54,0,1
0,57,0,1
0,54,95,7
0,54,80,0
0,61,0,1
0,54,0,20
0,54,0,0
0,42,85,0
0,54,99,0
0,66,74,0
0,57,73,23
0,57,0,19
0,54,80,5
0,61,72,0
0,54,0,13
0,57,79,11
0,42,0,1
0,42,72,0
0,42,82,0
0,42,0,4
0,57,0,15
0,61,0,1
0,42,0,3
0,42,75,0
0,69,92,0
0,57,76,0
0,64,78,0
0,42,94,1
0,36,103,0
0,42,65,0
0,42,53,1
0,69,0,2
0,42,0,0
0,36,0,1
0,57,0,9
0,64,0,5
0,66,0,0
0,68,80,6
0,54,0,13
0,42,0,6
0,42,0,0
0,42,0,0
0,68,0,2
0,57,103,2
0,69,101,0
0,42,76,0
0,56,79,0
0,42,70,1
0,57,79,0
0,42,0,3
0,69,0,0
0,56,0,12
0,57,0,1
0,57,0,3
0,42,0,2
0,69,81,2
0,69,0,19
0,57,102,5
0,42,76,0
0,57,79,1
0,42,0,3
0,57,0,16
0,57,0,0
0,42,55,5
0,64,80,0
0,42,0,4
0,64,0,14
0,57,98,5
0,69,94,0
0,57,85,0
0,57,75,0
0,42,69,1
0,69,0,3
0,42,0,12
0,57,0,0
0,57,0,2
0,57,0,1
0,61,73,6
0,39,81,5
0,39,0,4
0,61,0,11
0,54,102,3
0,54,80,0
0,45,85,1
0,36,103,0
0,45,61,0
0,45,59,1
0,36,0,3
0,61,72,19
0,61,0,23
0,64,72,0
0,54,0,1
0,56,82,0
0,42,75,2
0,42,0,4
0,56,0,7
0,45,0,1
0,45,0,0
0,45,0,1
0,64,0,9
0,68,74,0
0,39,80,5
0,39,0,4
0,54,0,4
0,68,0,4
0,42,81,8
0,84,20,0
0,49,76,0
0,84,0,4
0,42,0,0
0,56,80,19
0,56,98,1
0,56,0,14
0,56,0,6
0,49,84,3
0,59,73,0
0,42,84,1
0,42,0,4
0,49,0,11
0,56,81,8
0,56,95,1
0,59,0,3
0,56,0,14
0,56,0,3
0,63,73,3
0,37,85,1
0,36,96,0
0,69,95,0
0,84,14,0
0,37,67,0
0,84,0,4
0,36,0,0
0,69,0,0
0,37,53,1
0,63,0,16
0,56,97,2
0,56,75,0
0,42,81,1
0,69,97,0
0,69,0,4
0,42,0,0
0,37,0,9
0,37,0,0
0,56,0,4
0,37,0,1
0,56,0,2
0,51,83,3
0,59,80,0
0,69,92,1
0,69,0,4
0,51,0,17
0,59,0,2
0,56,101,0
0,56,76,0
0,69,101,1
0,69,0,4
0,56,0,14
0,84,16,5
0,63,76,0
0,56,0,1
0,42,84,0
0,69,93,0
0,84,0,3
0,42,0,1
0,69,0,0
0,63,0,14
0,56,97,5
0,56,76,0
0,42,57,1
0,42,0,4
0,56,0,9
0,56,0,5
0,52,81,5
0,56,78,0
0,61,79,0
0,61,0,11
0,56,0,3
0,52,0,7
0,56,75,3
0,64,77,0
0,56,103,1
0,42,76,0
0,42,0,4
0,56,0,9
0,64,0,2
0,37,88,9
0,56,101,0
0,36,95,0
0,84,18,0
0,37,66,0
0,37,59,2
0,49,0,1
0,36,0,1
0,84,0,0
0,56,0,11
0,66,81,8
0,56,0,3
0,37,0,13
0,37,0,0
0,37,0,2
0,56,100,6
0,51,83,0
0,56,81,0
0,42,75,1
0,66,0,1
0,42,0,3
0,51,0,14
0,56,0,4
0,56,0,2
0,37,91,0
0,80,82,0
0,68,81,0
0,59,72,0
0,64,72,23
0,64,96,1
0,59,0,9
0,64,0,8
0,49,79,6
0,64,0,1
0,59,78,0
0,49,0,17
0,37,0,1
0,61,81,5
0,37,73,1
0,63,98,0
0,42,80,0
0,42,0,4
0,59,0,6
0,63,0,7
0,61,0,1
0,42,77,5
0,69,92,0
0,85,84,0
0,73,84,0
0,80,0,1
0,68,0,0
0,37,94,0
0,36,96,0
0,37,62,0
0,64,77,0
0,37,57,2
0,69,0,1
0,42,0,0
0,36,0,1
0,37,0,2
0,68,73,17
0,63,102,1
0,64,0,10
0,63,0,7
0,69,98,6
0,42,79,0
0,87,83,0
0,75,77,0
0,51,84,0
0,63,77,0
0,85,0,1
0,73,0,0
0,37,0,1
0,37,0,0
0,42,0,2
0,37,0,0
0,69,0,0
0,51,0,18
0,64,77,2
0,64,96,1
0,64,0,15
0,63,0,0
0,68,0,5
0,64,0,1
0,42,79,2
0,88,85,0
0,76,81,0
0,71,78,0
0,37,94,1
0,36,104,0
0,37,67,0
0,87,0,1
0,75,0,0
0,37,59,0
0,42,0,2
0,36,0,1
0,64,100,19
0,38,52,0
0,64,73,0
0,42,61,1
0,38,0,3
0,42,0,1
0,64,0,15
0,69,96,4
0,52,85,0
0,68,79,0
0,37,68,1
0,38,55,0
0,39,74,0
0,87,81,0
0,75,80,0
0,76,0,1
0,88,0,0
0,64,0,1
0,71,0,0
0,69,0,1
0,38,0,1
0,39,0,0
0,37,0,7
0,37,0,0
0,37,0,0
0,37,0,6
0,52,0,5
0,75,80,1
0,38,52,1
0,71,80,0
0,68,0,1
0,38,0,3
0,71,0,16
0,71,76,3
0,40,94,1
0,36,98,0
0,38,56,0
0,40,67,0
0,85,76,0
0,73,77,0
0,75,0,1
0,87,0,0
0,36,0,3
0,38,0,0
0,40,58,0
0,37,70,20
0,80,78,0
0,39,79,8
0,39,0,4
0,37,0,5
0,71,0,0
0,75,0,3
0,40,0,2
0,40,0,0
0,51,79,1
0,44,92,1
0,36,102,0
0,44,61,0
0,44,64,0
0,80,83,0
0,68,83,0
0,61,72,0
0,71,80,0
0,85,0,1
0,73,0,0
0,42,77,0
0,40,0,1
0,36,0,2
0,42,0,1
0,80,0,2
0,51,0,12
0,83,74,5
0,56,72,0
0,61,0,2
0,71,0,10
0,44,0,2
0,44,0,0
0,44,0,0
0,56,0,7
0,42,85,3
0,54,99,0
0,36,97,0
0,49,35,0
0,81,30,0
0,42,84,0
0,84,15,0
0,42,58,0
0,42,68,0
0,81,82,0
0,69,81,0
0,54,81,0
0,80,0,2
0,68,0,0
0,83,0,1
0,42,0,1
0,81,0,0
0,84,0,0
0,36,0,0
0,49,0,0
0,57,72,20
0,42,0,14
0,42,0,0
0,42,0,0
0,57,0,7
0,81,24,2
0,42,75,1
0,61,74,0
0,81,0,3
0,42,0,1
0,64,78,20
0,61,0,4
0,49,76,0
0,81,27,0
0,64,0,0
0,42,85,0
0,36,98,0
0,37,72,0
0,40,97,0
0,69,93,0
0,84,16,0
0,42,54,0
0,42,63,0
0,68,80,0
0,39,53,1
0,81,0,2
0,69,0,1
0,36,0,0
0,40,0,0
0,37,0,0
0,84,0,0
0,39,0,1
0,49,0,18
0,81,23,0
0,42,83,1
0,69,94,0
0,64,77,0
0,81,0,3
0,68,0,0
0,69,0,1
0,42,0,0
0,42,0,4
0,42,0,0
0,42,0,0
0,54,0,3
0,59,48,0
0,81,29,0
0,90,97,0
0,47,73,0
0,57,103,0
0,39,23,0
0,69,96,0
0,59,72,0
0,57,78,0
0,64,0,1
0,81,0,1
0,69,0,1
0,39,0,0
0,90,0,13
0,57,0,2
0,61,72,4
0,47,0,1
0,69,97,0
0,69,0,4
0,57,0,2
0,92,93,1
0,54,0,3
0,61,0,5
0,59,0,5
0,59,0,2
0,64,51,1
0,84,19,0
0,42,93,1
0,93,91,0
0,49,78,0
0,54,96,0
0,36,99,0
0,42,84,0
0,69,98,0
0,81,27,0
0,42,58,0
0,42,66,0
0,64,73,0
0,54,75,0
0,84,0,3
0,42,0,1
0,36,0,0
0,92,0,0
0,81,0,0
0,69,0,0
0,93,0,15
0,42,60,5
0,81,23,0
0,69,78,0
0,81,0,4
0,54,0,0
0,42,0,0
0,49,0,2
0,42,0,0
0,42,0,0
0,42,0,0
0,64,0,13
0,64,0,5
0,63,54,0
0,90,86,0
0,57,101,0
0,81,26,0
0,63,70,0
0,57,81,0
0,69,0,1
0,81,0,3
0,57,0,14
0,90,0,1
0,42,80,5
0,81,22,0
0,64,73,0
0,81,0,4
0,42,0,0
0,92,83,3
0,63,0,14
0,63,0,2
0,84,17,0
0,61,51,1
0,42,90,0
0,93,81,0
0,36,99,0
0,37,78,0
0,40,103,0
0,39,58,0
0,42,59,0
0,42,68,0
0,61,76,0
0,57,74,0
0,64,0,1
0,64,68,0
0,84,0,2
0,36,0,1
0,92,0,0
0,40,0,0
0,37,0,0
0,39,0,0
0,57,0,15
0,93,0,0
0,57,74,5
0,61,0,1
0,42,0,9
0,42,0,0
0,42,0,0
0,64,0,10
0,57,0,2
0,39,27,1
0,59,56,1
0,90,75,0
0,42,79,0
0,81,28,0
0,61,75,0
0,57,74,0
0,64,67,1
0,39,0,2
0,61,0,0
0,81,0,1
0,42,0,0
0,57,0,1
0,54,0,11
0,57,0,1
0,90,0,2
0,54,103,5
0,54,76,0
0,61,0,1
0,92,72,6
0,54,0,14
0,64,0,1
0,61,55,1
0,54,0,1
0,42,91,0
0,93,70,0
0,42,84,0
0,54,95,0
0,36,98,0
0,81,31,0
0,42,57,0
0,42,64,0
0,66,72,0
0,66,70,1
0,81,0,3
0,36,0,0
0,59,0,1
0,92,0,3
0,57,80,15
0,93,0,6
0,42,0,9
0,42,0,0
0,42,0,0
0,57,0,4
0,81,30,5
0,61,79,0
0,81,0,4
0,42,0,20
0,57,76,0
0,42,67,1
0,42,81,0
0,42,0,4
0,69,0,11
0,81,0,0
0,57,0,4
0,61,0,1
0,42,0,3
0,49,81,0
0,42,83,0
0,69,95,0
0,81,28,0
0,83,77,0
0,71,85,0
0,57,76,0
0,64,76,0
0,42,92,1
0,36,95,0
0,37,72,0
0,40,99,0
0,42,55,0
0,42,59,0
0,39,49,1
0,81,0,2
0,69,0,0
0,42,0,0
0,40,0,1
0,37,0,0
0,36,0,0
0,39,0,1
0,57,0,8
0,64,0,5
0,66,0,0
0,81,30,5
0,49,0,1
0,68,74,0
0,81,0,3
0,42,0,5
0,42,0,0
0,42,0,0
0,54,0,5
0,66,0,2
0,68,0,6
0,57,95,2
0,69,96,0
0,81,27,0
0,42,82,0
0,85,80,0
0,73,82,0
0,47,79,1
0,42,74,0
0,39,21,0
0,57,73,0
0,71,0,2
0,83,0,0
0,69,0,1
0,81,0,0
0,42,0,0
0,39,0,1
0,61,0,11
0,57,0,1
0,57,0,3
0,42,0,2
0,47,0,1
0,69,80,1
0,40,77,9
0,40,0,4
0,69,0,6
0,85,0,4
0,73,0,0
0,66,53,1
0,57,96,0
0,42,81,0
0,87,77,0
0,75,78,0
0,42,91,1
0,49,76,0
0,36,95,0
0,81,29,0
0,42,55,0
0,42,68,0
0,57,78,0
0,66,71,1
0,42,0,2
0,81,0,1
0,36,0,0
0,57,0,15
0,57,0,0
0,42,56,5
0,81,30,0
0,64,79,0
0,81,0,4
0,42,0,0
0,49,0,1
0,42,0,1
0,42,0,0
0,42,0,0
0,64,0,12
0,75,0,5
0,87,0,0
0,57,97,0
0,69,98,0
0,85,81,0
0,73,82,0
0,57,79,0
0,64,50,1
0,42,69,0
0,81,22,0
0,64,67,2
0,69,0,1
0,66,0,0
0,66,0,1
0,81,0,0
0,42,0,7
0,57,0,6
0,57,0,1
