track,note,velocity,time
1,30,127,364
1,30,0,65
1,26,127,377
1,26,0,19
1,28,127,4
1,28,0,30
1,30,127,42
1,30,0,54
1,28,127,409
1,28,0,34
1,30,127,34
1,30,0,62
1,26,127,382
1,26,0,18
1,28,127,1
1,28,0,23
1,30,127,44
1,30,0,58
1,33,127,141
1,33,0,50
1,32,127,23
1,32,0,93
1,37,127,40
1,37,0,77
1,30,127,58
1,30,0,74
1,26,127,360
1,26,0,18
1,28,127,6
1,28,0,30
1,30,127,43
1,30,0,17
1,28,127,358
1,28,0,35
1,30,127,36
1,30,0,61
1,26,127,376
1,26,0,21
1,28,127,7
1,28,0,29
1,30,127,40
1,30,0,55
1,33,127,138
1,33,0,45
1,32,127,24
1,32,0,81
1,37,127,54
1,37,0,78
1,30,127,54
1,30,0,55
1,26,127,383
1,26,0,19
1,28,127,8
1,28,0,26
1,30,127,45
1,30,0,56
1,28,127,409
1,28,0,33
1,30,127,35
1,30,0,70
1,26,127,368
1,26,0,20
1,28,127,4
1,28,0,26
1,30,127,43
1,30,0,65
1,33,127,131
1,33,0,48
1,32,127,26
1,32,0,82
1,37,127,48
1,37,0,75
1,30,127,59
1,30,0,67
1,26,127,369
1,26,0,26
1,28,127,1
1,28,0,27
1,30,127,45
1,30,0,67
1,28,127,403
1,28,0,30
1,30,127,37
1,30,0,72
1,26,127,364
1,26,0,20
1,28,127,4
1,28,0,28
1,30,127,43
1,30,0,77
1,33,127,121
1,33,0,43
1,32,127,24
1,32,0,94
1,37,127,39
1,37,0,89
1,30,127,46
1,30,0,63
1,26,127,369
1,26,0,22
1,28,127,6
1,28,0,27
1,30,127,45
1,30,0,74
1,28,127,391
1,28,0,26
1,30,127,45
1,30,0,72
1,26,127,365
1,26,0,22
1,28,127,3
1,28,0,25
1,30,127,42
1,30,0,69
1,33,127,126
1,33,0,44
1,32,127,27
1,32,0,99
1,37,127,37
1,37,0,90
1,30,127,44
1,30,0,59
1,26,127,377
1,26,0,22
1,28,127,5
1,28,0,26
1,30,127,43
1,30,0,60
1,28,127,401
1,28,0,39
1,30,127,32
1,30,0,70
1,26,127,370
1,26,0,18
1,28,127,6
1,28,0,25
1,30,127,44
1,30,0,73
1,33,127,124
1,33,0,43
1,32,127,28
1,32,0,91
1,37,127,41
1,37,0,83
1,30,127,50
1,30,0,64
1,26,127,374
1,26,0,26
1,28,127,4
1,28,0,26
1,30,127,41
1,30,0,71
1,28,127,391
1,28,0,31
1,30,127,40
1,30,0,81
1,26,127,356
1,26,0,23
1,28,127,3
1,28,0,28
1,30,127,43
1,30,0,76
1,33,127,121
1,33,0,45
1,32,127,24
1,32,0,89
1,37,127,44
1,36,127,31
1,36,0,38
1,37,0,7
1,30,127,59
1,30,0,69
1,26,127,370
1,26,0,23
1,28,127,5
1,28,0,23
1,30,127,45
1,30,0,69
1,26,127,364
1,26,0,22
1,28,127,6
1,28,0,24
1,30,127,47
1,30,0,68
1,26,127,370
1,26,0,18
1,28,127,8
1,28,0,24
1,30,127,46
1,30,0,65
1,33,127,129
1,33,0,45
1,32,127,25
1,32,0,89
1,37,127,49
1,37,0,78
1,30,127,51
1,30,0,65
1,26,127,377
1,26,0,24
1,28,127,2
1,28,0,28
1,30,127,40
1,30,0,59
1,28,127,408
1,28,0,37
1,30,127,31
1,30,0,76
1,26,127,361
1,26,0,26
1,28,127,1
1,28,0,25
1,30,127,42
1,30,0,63
1,33,127,132
1,33,0,47
1,32,127,26
1,32,0,94
1,37,127,38
1,37,0,89
1,30,127,46
1,30,0,55
1,26,127,372
1,28,127,31
1,26,0,2
1,28,0,27
1,30,127,38
1,30,0,68
1,28,127,407
1,28,0,31
1,30,127,37
1,30,0,70
1,26,127,368
1,26,0,21
1,28,127,5
1,28,0,25
1,30,127,43
1,30,0,75
1,33,127,121
1,33,0,41
1,32,127,28
1,32,0,88
1,37,127,46
1,37,0,84
1,30,127,50
1,30,0,72
1,26,127,364
1,26,0,22
1,28,127,3
1,28,0,27
1,30,127,44
1,30,0,86
1,28,127,374
1,28,0,32
1,30,127,42
1,30,0,82
1,26,127,351
1,26,0,26
1,28,127,1
1,28,0,27
1,30,127,43
1,30,0,63
1,33,127,139
1,33,0,50
1,32,127,19
1,32,0,90
1,37,127,45
1,37,0,84
1,30,127,50
1,30,0,67
1,26,127,366
1,26,0,21
1,28,127,5
1,28,0,24
1,30,127,44
1,30,0,75
1,26,127,364
1,26,0,20
1,28,127,4
1,28,0,24
1,30,127,47
1,30,0,71
1,28,127,390
1,28,0,26
1,30,127,44
1,30,0,66
1,33,127,133
1,33,0,45
1,32,127,27
1,32,0,81
1,37,127,51
1,37,0,86
1,30,127,46
1,30,0,73
1,26,127,362
1,26,0,19
1,28,127,4
1,28,0,24
1,30,127,45
1,30,0,77
1,28,127,392
1,28,0,25
1,30,127,46
1,30,0,80
1,26,127,362
1,26,0,20
1,28,127,1
1,28,0,22
1,30,127,43
1,30,0,73
1,33,127,131
1,33,0,44
1,32,127,25
1,32,0,93
1,37,127,41
1,37,0,93
1,30,127,46
1,30,0,50
1,26,127,381
1,26,0,24
1,28,127,1
1,28,0,30
1,30,127,40
1,30,0,71
1,28,127,395
1,28,0,26
1,30,127,40
1,30,0,78
1,26,127,360
1,26,0,20
1,28,127,7
1,28,0,25
1,30,127,44
1,30,0,76
1,33,127,121
1,33,0,42
1,32,127,28
1,32,0,83
1,37,127,50
1,37,0,94
1,30,127,41
1,30,0,79
1,26,127,353
1,26,0,22
1,28,127,3
1,28,0,32
1,30,127,43
1,30,0,71
1,28,127,395
1,28,0,35
1,30,127,36
1,30,0,77
1,26,127,354
1,26,0,21
1,28,127,6
1,28,0,27
1,30,127,43
1,30,0,83
1,33,127,114
1,33,0,39
1,32,127,30
1,32,0,88
1,37,127,51
1,37,0,83
1,30,127,50
1,30,0,68
1,26,127,366
1,26,0,28
1,28,127,1
1,28,0,29
1,30,127,38
1,30,0,76
1,28,127,384
1,28,0,34
1,30,127,39
1,30,0,77
1,26,127,362
1,26,0,19
1,28,127,6
1,28,0,25
1,30,127,44
1,30,0,81
1,33,127,115
1,33,0,42
1,32,127,29
1,32,0,83
1,37,127,54
1,37,0,86
1,30,127,43
1,30,0,80
1,26,127,360
1,26,0,25
1,28,127,1
1,28,0,27
1,30,127,42
1,30,0,61
1,28,127,401
1,28,0,32
1,30,127,41
1,30,0,51
1,26,127,385
1,26,0,21
1,28,127,8
1,28,0,22
1,30,127,48
1,30,0,43
1,28,127,2279
1,28,0,49
1,30,127,26
1,30,0,29
1,33,127,36
1,33,0,22
1,32,127,47
1,32,0,21
1,37,127,45
1,38,127,6
1,38,0,8
1,37,0,2
1,30,127,51
1,30,0,35
1,30,127,98
1,30,0,27
1,30,127,108
1,30,0,44
1,30,127,86
1,30,0,42
1,28,127,19
1,28,0,32
1,25,127,40
1,25,0,45
1,25,127,88
1,25,0,59
1,25,127,76
1,25,0,73
1,25,127,60
1,25,0,35
1,26,127,27
1,26,0,24
1,37,127,122
1,37,0,20
1,37,127,41
1,37,0,39
1,37,127,92
1,37,0,55
1,37,127,81
1,37,0,43
1,37,127,91
1,37,0,27
1,38,127,37
1,38,0,33
1,38,127,34
1,38,0,29
1,37,127,34
1,37,0,24
1,35,127,45
1,35,0,26
1,33,127,40
1,33,0,23
1,32,127,44
1,32,0,47
1,30,127,87
1,30,0,43
1,30,127,92
1,30,0,51
1,30,127,82
1,30,0,53
1,30,127,80
1,30,0,29
1,28,127,38
1,28,0,29
1,25,127,44
1,25,0,48
1,25,127,80
1,25,0,60
1,25,127,69
1,25,0,81
1,25,127,51
1,25,0,39
1,26,127,28
1,26,0,22
1,37,127,48
1,37,0,70
1,37,127,62
1,37,0,70
1,37,127,67
1,37,0,74
1,37,127,60
1,37,0,73
1,37,127,59
1,37,0,37
1,37,127,97
1,37,0,77
1,37,127,46
1,37,0,23
1,38,127,15
1,37,127,28
1,38,0,5
1,37,0,17
1,37,127,49
1,36,127,2
1,36,0,27
1,37,0,0
1,35,127,37
1,35,0,28
1,32,127,44
1,32,0,45
1,30,127,14
1,30,0,27
1,30,127,44
1,30,0,39
1,26,127,264
1,26,0,21
1,28,127,5
1,28,0,25
1,30,127,45
1,30,0,59
1,28,127,410
1,28,0,37
1,30,127,34
1,30,0,68
1,26,127,369
1,26,0,21
1,28,127,8
1,28,0,26
1,30,127,41
1,30,0,68
1,33,127,126
1,33,0,45
1,32,127,25
1,32,0,88
1,37,127,48
1,37,0,89
1,30,127,43
1,30,0,80
1,26,127,355
1,26,0,28
1,28,127,1
1,28,0,28
1,30,127,42
1,30,0,74
1,28,127,391
1,28,0,28
1,30,127,40
1,30,0,76
1,26,127,361
1,26,0,21
1,28,127,2
1,28,0,27
1,30,127,40
1,30,0,83
1,33,127,121
1,33,0,41
1,32,127,27
1,32,0,83
1,37,127,49
1,37,0,92
1,30,127,39
1,30,0,80
1,26,127,364
1,26,0,23
1,28,127,1
1,28,0,28
1,30,127,41
1,30,0,88
1,28,127,375
1,28,0,33
1,30,127,39
1,30,0,79
1,26,127,345
1,26,0,21
1,28,127,5
1,28,0,25
1,30,127,46
1,30,0,82
1,33,127,117
1,33,0,38
1,32,127,31
1,32,0,81
1,37,127,56
1,37,0,78
1,30,127,69
1,30,0,57
1,26,127,365
1,26,0,25
1,28,127,3
1,28,0,19
1,30,127,41
1,30,0,74
1,28,127,392
1,28,0,38
1,30,127,36
1,30,0,79
1,26,127,352
1,26,0,27
1,28,127,2
1,28,0,27
1,30,127,44
1,30,0,78
1,33,127,121
1,33,0,45
1,32,127,26
1,32,0,85
1,37,127,46
1,37,0,90
1,30,127,46
1,30,0,67
1,26,127,372
1,24,127,1
1,24,0,20
1,28,127,4
1,26,0,1
1,28,0,27
1,30,127,40
1,30,0,58
1,28,127,411
1,28,0,42
1,30,127,25
1,30,0,62
1,26,127,372
1,28,127,27
1,26,0,1
1,28,0,27
1,30,127,40
1,30,0,70
1,33,127,129
1,33,0,45
1,32,127,30
1,32,0,85
1,37,127,44
1,37,0,88
1,30,127,44
1,30,0,76
1,26,127,38
1,26,0,22
1,28,127,6
1,28,0,23
1,30,127,45
1,30,0,74
1,26,127,27
1,26,0,20
1,30,127,22
1,30,0,16
1,26,127,14
1,26,0,9
1,28,127,4
1,28,0,5
1,30,127,14
1,30,0,19
1,33,127,21
1,33,0,11
1,32,127,11
1,32,0,34
1,37,127,5
1,37,0,36
1,30,127,45
1,30,0,4
1,26,127,7
1,26,0,20
1,28,127,0
1,28,0,23
1,30,127,0
1,30,0,39
1,28,127,103
1,28,0,16
1,30,127,35
1,30,0,62
2,70,78,905
2,81,85,0
2,68,76,0
2,70,0,15
2,70,41,5
2,70,0,1
2,40,100,26
2,44,100,1
2,70,45,3
2,44,0,10
2,40,0,1
2,70,0,1
2,70,49,49
2,44,100,4
2,70,0,12
2,44,0,2
2,70,53,47
2,70,0,8
2,70,55,1
2,70,0,1
2,68,0,20
2,81,0,2
2,70,80,9
2,40,100,9
2,44,100,0
2,70,0,9
2,44,0,7
2,40,0,1
2,69,45,22
2,69,0,16
2,70,69,5
2,44,100,5
2,70,0,13
2,44,0,3
2,69,44,25
2,69,0,11
2,70,90,13
2,70,0,15
2,44,127,47
2,70,77,3
2,44,0,10
2,70,0,7
2,70,80,50
2,40,100,2
2,44,100,1
2,70,0,14
2,44,0,1
2,40,0,0
2,69,59,27
2,69,0,13
2,70,90,10
2,44,100,1
2,70,0,14
2,44,0,4
2,70,73,48
2,70,0,16
2,44,127,47
2,70,74,5
2,44,0,9
2,70,0,5
2,70,78,51
2,40,100,2
2,44,100,0
2,70,0,16
2,44,0,2
2,40,0,1
2,69,55,27
2,69,0,15
2,44,100,0
2,35,100,5
2,70,80,0
2,44,0,13
2,70,0,3
2,35,0,1
2,69,48,27
2,69,0,12
2,70,82,10
2,35,100,3
2,70,0,14
2,35,0,2
2,44,127,44
2,70,74,1
2,44,0,13
2,70,0,3
2,70,82,50
2,40,100,6
2,44,100,1
2,70,0,10
2,44,0,6
2,40,0,0
2,69,60,23
2,69,0,14
2,44,100,9
2,70,100,1
2,70,0,14
2,44,0,2
2,70,85,49
2,70,0,14
2,44,127,48
2,70,69,3
2,44,0,9
2,70,0,4
2,70,94,52
2,40,100,3
2,44,100,1
2,70,0,13
2,44,0,4
2,40,0,1
2,69,57,25
2,69,0,15
2,44,100,2
2,35,100,2
2,70,87,2
2,70,0,15
2,35,0,1
2,44,0,0
2,69,50,33
2,69,0,11
2,35,100,8
2,70,85,1
2,70,0,17
2,35,0,1
2,70,74,46
2,44,127,2
2,44,0,12
2,70,0,1
2,70,72,51
2,40,100,2
2,44,100,1
2,70,0,12
2,44,0,3
2,40,0,0
2,69,56,26
2,69,0,17
2,44,100,5
2,70,78,2
2,70,0,13
2,44,0,3
2,70,67,48
2,70,0,15
2,44,127,51
2,70,67,3
2,44,0,11
2,70,0,3
2,70,80,51
2,40,100,4
2,44,100,1
2,70,0,12
2,40,0,4
2,44,0,1
2,69,56,22
2,69,0,16
2,44,100,5
2,70,80,3
2,35,100,1
2,70,0,12
2,44,0,1
2,35,0,3
2,69,52,22
2,69,0,15
2,70,82,10
2,35,100,4
2,70,0,12
2,35,0,4
2,70,77,47
2,44,127,0
2,44,0,15
2,70,0,1
2,40,100,52
2,70,78,0
2,44,100,1
2,70,0,16
2,40,0,0
2,44,0,1
2,69,60,25
2,69,0,14
2,70,97,9
2,44,100,1
2,70,0,15
2,44,0,3
2,70,74,49
2,70,0,14
2,44,127,51
2,70,73,1
2,44,0,11
2,70,0,3
2,70,74,53
2,40,100,1
2,44,100,0
2,70,0,16
2,40,0,1
2,44,0,1
2,69,48,24
2,69,0,17
2,35,100,4
2,44,100,0
2,70,74,4
2,35,0,14
2,70,0,1
2,44,0,2
2,69,50,24
2,69,0,15
2,35,100,7
2,70,78,1
2,70,0,14
2,35,0,2
2,70,70,47
2,44,127,5
2,70,0,12
2,44,0,3
2,70,76,48
2,40,100,2
2,44,100,0
2,70,0,13
2,44,0,3
2,40,0,2
2,69,47,22
2,69,0,20
2,44,100,4
2,70,87,0
2,70,0,14
2,44,0,5
2,70,76,47
2,70,0,16
2,70,64,51
2,44,127,0
2,44,0,15
2,70,0,1
2,70,73,50
2,40,100,6
2,44,100,0
2,70,0,13
2,44,0,4
2,40,0,1
2,69,52,19
2,69,0,16
2,44,100,9
2,70,70,1
2,35,100,2
2,70,0,14
2,44,0,1
2,35,0,3
2,69,51,22
2,69,0,14
2,70,69,11
2,35,100,3
2,70,0,13
2,35,0,5
2,70,64,45
2,44,127,2
2,70,0,13
2,44,0,2
2,70,76,50
2,40,100,4
2,44,100,0
2,70,0,12
2,40,0,4
2,44,0,1
2,69,53,23
2,69,0,17
2,44,100,3
2,70,78,3
2,70,0,14
2,44,0,1
2,70,76,50
2,70,0,16
2,70,67,52
2,44,127,2
2,44,0,11
2,70,0,2
2,40,100,53
2,44,100,1
2,70,76,0
2,70,0,15
2,40,0,2
2,44,0,1
2,69,53,26
2,69,0,16
2,44,100,1
2,35,100,4
2,70,76,2
2,44,0,13
2,35,0,1
2,70,0,1
2,35,100,50
2,70,76,2
2,70,0,15
2,35,0,1
2,70,72,50
2,44,127,0
2,44,0,13
2,70,0,1
2,40,100,51
2,44,100,1
2,70,77,2
2,40,0,13
2,44,0,1
2,70,0,2
2,69,56,25
2,69,0,16
2,44,100,6
2,70,87,2
2,70,0,13
2,44,0,1
2,70,77,52
2,70,0,14
2,70,69,51
2,44,127,1
2,70,0,13
2,44,0,1
2,70,78,49
2,40,100,3
2,44,100,2
2,70,0,12
2,40,0,3
2,44,0,1
2,69,49,26
2,69,0,13
2,44,100,8
2,70,82,2
2,35,100,1
2,70,0,13
2,35,0,2
2,44,0,0
2,69,56,22
2,69,0,13
2,35,100,14
2,70,90,1
2,70,0,15
2,35,0,1
2,70,69,47
2,44,127,2
2,44,0,14
2,70,0,0
