track,note,velocity,time
1,56,100,16128
1,56,100,40
1,56,100,40
1,58,100,40
1,58,100,40
1,56,100,464
1,56,100,40
1,56,100,40
1,56,100,40
1,55,100,40
1,56,100,464
1,56,100,40
1,56,100,40
1,58,100,40
1,58,100,40
1,63,100,232
1,61,100,232
1,58,100,40
1,56,100,40
1,54,100,40
1,56,100,40
1,56,100,464
1,56,100,40
1,56,100,40
1,58,100,40
1,58,100,40
1,51,100,272
1,56,100,40
1,56,100,40
1,56,100,40
1,56,100,40
1,55,100,40
1,56,100,464
1,56,100,40
1,56,100,40
1,58,100,40
1,58,100,40
1,63,100,232
1,61,100,232
1,58,100,40
1,56,100,40
1,54,100,40
1,58,100,40
1,56,100,20
1,54,100,20
1,63,100,424
1,61,100,40
1,58,100,40
1,61,100,40
1,61,100,40
1,58,100,464
1,58,100,40
1,59,100,40
1,61,100,40
1,66,100,40
1,66,100,272
1,68,100,40
1,68,100,40
1,68,100,40
1,70,100,40
1,63,100,40
1,70,100,232
1,71,100,0
1,70,100,40
1,71,100,40
1,61,100,0
1,63,100,0
1,68,100,0
1,70,100,40
1,66,100,0
1,68,100,40
1,63,100,0
1,61,100,0
1,66,100,0
1,66,100,40
1,66,100,0
1,68,100,40
1,66,100,20
1,63,100,20
1,54,100,232
1,66,100,40
1,65,100,40
1,63,100,40
1,65,100,40
1,61,100,40
1,54,100,272
1,58,100,40
1,58,100,40
1,59,100,40
1,61,100,40
1,66,100,40
1,71,100,80
1,70,100,40
1,68,100,40
1,66,100,80
1,71,100,232
1,70,100,80
1,68,100,272
1,66,100,20
1,66,100,60
1,63,100,20
1,61,100,20
1,58,100,80
1,58,100,20
1,58,100,20
1,59,100,40
1,61,100,40
1,66,100,40
1,58,100,464
1,58,100,40
1,59,100,40
1,59,100,20
1,61,100,20
1,66,100,40
1,66,100,656
1,66,100,40
1,70,100,40
1,70,100,40
1,71,100,232
1,70,100,40
1,68,100,40
1,66,100,232
1,66,100,80
1,68,100,20
1,66,100,20
1,63,100,20
1,61,100,20
1,58,100,80
1,58,100,20
1,58,100,20
1,59,100,40
1,61,100,40
1,66,100,40
1,58,100,464
1,58,100,40
1,59,100,40
1,59,100,20
1,61,100,20
1,70,100,40
1,68,100,40
1,70,100,20
1,66,100,596
1,66,100,40
1,70,100,40
1,70,100,40
1,71,100,232
1,70,100,40
1,68,100,40
1,66,100,80
1,63,100,80
1,61,100,20
1,58,100,20
1,56,100,424
1,56,100,40
1,56,100,40
1,58,100,40
1,58,100,40
1,56,100,464
1,56,100,40
1,56,100,40
1,56,100,40
1,55,100,40
1,56,100,464
1,56,100,40
1,56,100,40
1,58,100,40
1,58,100,40
1,63,100,232
1,61,100,232
1,58,100,40
1,56,100,40
1,54,100,40
1,56,100,40
1,56,100,464
1,56,100,40
1,56,100,40
1,58,100,40
1,58,100,40
1,51,100,272
1,56,100,40
1,56,100,40
1,56,100,40
1,56,100,40
1,55,100,40
1,56,100,464
1,56,100,40
1,56,100,40
1,58,100,40
1,58,100,40
1,63,100,232
1,61,100,232
1,58,100,40
1,56,100,40
1,54,100,40
1,58,100,40
1,56,100,20
1,54,100,20
1,63,100,424
1,61,100,40
1,58,100,40
1,61,100,40
1,61,100,40
1,58,100,464
1,58,100,40
1,59,100,40
1,61,100,40
1,66,100,40
1,66,100,272
1,68,100,40
1,68,100,40
1,68,100,40
1,70,100,40
1,63,100,40
1,71,100,232
1,70,100,0
1,70,100,40
1,68,100,40
1,63,100,0
1,61,100,0
1,71,100,0
1,66,100,40
1,70,100,0
1,66,100,40
1,61,100,0
1,63,100,0
1,68,100,0
1,66,100,40
1,66,100,0
1,68,100,40
1,66,100,20
1,63,100,20
1,54,100,232
1,66,100,40
1,65,100,40
1,63,100,40
1,65,100,40
1,61,100,40
1,54,100,272
1,58,100,40
1,58,100,40
1,59,100,40
1,61,100,40
1,66,100,40
1,71,100,80
1,70,100,40
1,68,100,40
1,66,100,80
1,71,100,232
1,70,100,80
1,68,100,272
1,66,100,20
1,66,100,60
1,63,100,20
1,61,100,20
1,58,100,80
1,58,100,20
1,58,100,20
1,59,100,40
1,61,100,40
1,66,100,40
1,58,100,464
1,58,100,40
1,59,100,40
1,59,100,20
1,61,100,20
1,66,100,40
1,66,100,656
1,66,100,40
1,70,100,40
1,70,100,40
1,71,100,232
1,70,100,40
1,68,100,40
1,66,100,232
1,66,100,80
1,68,100,20
1,66,100,20
1,63,100,20
1,61,100,20
1,58,100,80
1,58,100,20
1,58,100,20
1,59,100,40
1,61,100,40
1,66,100,40
1,58,100,464
1,58,100,40
1,59,100,40
1,59,100,20
1,61,100,20
1,70,100,40
1,68,100,40
1,70,100,20
1,66,100,596
1,66,100,40
1,70,100,40
1,70,100,40
1,71,100,232
1,70,100,40
1,68,100,40
1,66,100,80
1,63,100,80
1,70,100,12752
1,68,100,40
1,66,100,40
1,68,100,40
1,68,100,40
1,71,100,464
1,70,100,40
1,68,100,40
1,65,100,40
1,68,100,40
1,66,100,20
1,63,100,20
1,66,100,232
1,70,100,40
1,70,100,40
1,70,100,40
1,70,100,40
1,68,100,40
1,71,100,80
1,70,100,40
1,68,100,40
1,66,100,40
1,66,100,40
1,66,100,40
1,68,100,40
1,66,100,20
1,63,100,20
1,63,100,328
1,66,100,20
1,66,100,40
1,66,100,40
1,66,100,40
1,68,100,40
1,68,100,272
1,66,100,40
1,66,100,40
1,73,100,40
1,73,100,40
1,70,100,40
1,68,100,40
1,68,100,40
1,66,100,40
1,68,100,40
1,66,100,80
1,75,100,272
1,73,100,20
1,71,100,60
1,70,100,80
1,75,100,40
1,68,100,40
1,66,100,20
1,63,100,20
1,66,100,20
1,58,100,80
1,58,100,20
1,58,100,20
1,59,100,40
1,61,100,40
1,66,100,40
1,58,100,464
1,58,100,40
1,59,100,40
1,59,100,20
1,61,100,20
1,66,100,40
1,66,100,656
1,66,100,40
1,70,100,40
1,70,100,40
1,71,100,232
1,70,100,40
1,68,100,40
1,66,100,232
1,66,100,80
1,68,100,20
1,66,100,20
1,63,100,20
1,61,100,20
1,58,100,80
1,58,100,20
1,58,100,20
1,59,100,40
1,61,100,40
1,66,100,40
1,58,100,464
1,58,100,40
1,59,100,40
1,59,100,20
1,61,100,20
1,70,100,40
1,68,100,40
1,70,100,20
1,66,100,596
1,66,100,40
1,70,100,40
1,70,100,40
1,71,100,232
1,70,100,40
1,68,100,40
1,66,100,80
1,63,100,80
1,58,100,464
1,58,100,20
1,58,100,20
1,59,100,40
1,61,100,40
1,66,100,40
1,58,100,464
1,58,100,40
1,59,100,40
1,59,100,20
1,61,100,20
1,66,100,40
1,66,100,656
1,66,100,40
1,70,100,40
1,70,100,40
1,71,100,232
1,70,100,40
1,68,100,40
1,66,100,232
1,66,100,80
1,68,100,20
1,66,100,20
1,63,100,20
1,61,100,20
1,58,100,80
1,58,100,20
1,58,100,20
1,59,100,40
1,61,100,40
1,66,100,40
1,58,92,464
1,58,90,40
1,59,88,40
1,59,87,20
1,61,86,20
1,70,83,40
1,68,81,40
1,70,80,20
1,66,73,596
1,66,71,40
1,70,69,40
1,70,67,40
1,71,63,232
1,70,61,40
1,68,59,40
1,66,55,80
1,63,50,80
1,58,42,464
1,58,41,20
1,58,40,20
1,59,38,40
1,61,36,40
1,66,34,40
1,58,26,464
1,58,24,40
1,59,22,40
1,59,21,20
1,61,20,20
1,70,17,40
1,68,15,40
1,70,14,20
1,66,7,596
1,66,5,40
1,70,3,40
2,70,100,1536
2,75,100,0
2,63,100,156
2,70,100,0
2,65,70,156
2,61,70,0
2,58,70,0
2,63,70,0
2,68,70,40
2,65,70,0
2,61,70,0
2,63,70,0
2,70,70,40
2,66,70,0
2,63,70,0
2,65,70,0
2,68,70,232
2,66,70,80
2,61,70,40
2,58,70,0
2,63,70,0
2,65,70,40
2,61,70,0
2,58,70,0
2,63,70,0
2,68,70,40
2,65,70,0
2,61,70,0
2,63,70,0
2,70,70,40
2,66,70,0
2,63,70,0
2,65,70,0
2,68,70,232
2,66,70,80
2,65,70,232
2,61,70,0
2,58,70,0
2,63,70,0
2,68,70,40
2,65,70,0
2,61,70,0
2,63,70,0
2,70,70,40
2,66,70,0
2,63,70,0
2,65,70,0
2,68,70,232
2,66,70,80
2,61,70,40
2,58,70,0
2,63,70,0
2,63,70,40
2,58,70,0
2,61,70,0
2,65,70,0
2,63,70,40
2,61,70,0
2,65,70,0
2,68,70,0
2,65,70,40
2,63,70,0
2,66,70,0
2,70,70,0
2,68,70,232
2,66,70,80
2,63,70,232
2,58,70,0
2,61,70,0
2,65,70,0
2,63,70,40
2,61,70,0
2,65,70,0
2,68,70,0
2,65,70,40
2,63,70,0
2,66,70,0
2,70,70,0
2,68,70,232
2,66,70,80
2,63,70,40
2,58,70,0
2,61,70,0
2,65,70,40
2,61,70,0
2,58,70,0
2,63,70,0
2,68,70,40
2,65,70,0
2,61,70,0
2,63,70,0
2,70,70,40
2,66,70,0
2,63,70,0
2,65,70,0
2,68,70,232
2,66,70,80
2,63,70,232
2,58,70,0
2,61,70,0
2,65,70,0
2,63,70,40
2,61,70,0
2,65,70,0
2,68,70,0
2,65,70,40
2,63,70,0
2,66,70,0
2,70,70,0
2,68,70,232
2,66,70,80
2,63,70,40
2,58,70,0
2,61,70,0
2,65,70,40
2,61,70,0
2,58,70,0
2,63,70,0
2,68,70,40
2,65,70,0
2,61,70,0
2,63,70,0
2,70,70,40
2,66,70,0
2,63,70,0
2,65,70,0
2,68,70,232
2,66,70,80
2,56,90,1000
2,56,90,40
2,56,90,40
2,58,90,40
2,58,90,40
2,56,90,464
2,56,90,40
2,56,90,40
2,56,90,40
2,55,90,40
2,56,90,464
2,56,90,40
2,56,90,40
2,58,90,40
2,58,90,40
2,63,90,232
2,61,90,232
2,58,90,40
2,56,90,40
2,54,90,40
2,58,90,40
2,70,90,232
2,63,90,0
2,63,90,232
2,68,90,0
2,56,90,0
2,56,90,40
2,56,90,40
2,58,90,40
2,58,90,40
2,70,90,232
2,63,90,0
2,68,90,232
2,61,90,0
2,56,90,0
2,56,90,40
2,56,90,40
2,56,90,40
2,55,90,40
2,63,90,232
2,70,90,0
2,56,90,232
2,61,90,0
2,68,90,0
2,56,90,40
2,56,90,40
2,58,90,40
2,58,90,40
2,63,90,232
2,63,90,0
2,70,90,0
2,63,90,40
2,61,90,40
2,68,90,0
2,58,90,40
2,63,90,0
2,56,90,40
2,54,90,40
2,58,90,0
2,58,90,40
2,56,90,20
2,54,90,20
2,54,90,424
2,58,90,0
2,63,90,0
2,61,90,40
2,54,90,40
2,58,90,0
2,61,90,40
2,53,90,40
2,56,90,0
2,61,90,0
2,54,90,212
2,58,90,20
2,58,90,40
2,59,90,40
2,61,90,40
2,58,90,40
2,59,90,0
2,66,90,0
2,63,90,0
2,66,90,272
2,68,90,40
2,66,90,0
2,63,90,0
2,59,90,0
2,68,90,40
2,68,90,40
2,59,90,0
2,63,90,0
2,66,90,0
2,70,90,40
2,56,90,40
2,63,90,0
2,61,90,0
2,71,90,80
2,70,90,40
2,68,90,40
2,66,90,40
2,66,90,40
2,66,90,40
2,59,90,40
2,63,90,0
2,68,90,0
2,66,90,20
2,63,90,20
2,54,90,232
2,59,90,40
2,63,90,0
2,66,90,0
2,65,90,40
2,59,90,40
2,63,90,0
2,65,90,40
2,61,90,40
2,56,90,0
2,53,90,0
2,54,90,272
2,58,90,40
2,58,90,40
2,58,90,40
2,59,90,0
2,61,90,40
2,61,90,40
2,63,90,0
2,66,90,0
2,71,90,80
2,70,90,40
2,61,90,40
2,63,90,0
2,68,90,0
2,66,90,80
2,59,90,232
2,63,90,0
2,66,90,0
2,71,90,0
2,59,90,80
2,63,90,0
2,66,90,0
2,70,90,0
2,68,90,272
2,59,90,0
2,63,90,0
2,66,90,0
2,59,90,20
2,63,90,0
2,66,90,0
2,58,90,60
2,61,90,0
2,66,90,0
2,63,90,20
2,58,90,596
2,58,90,40
2,59,90,40
2,61,90,40
2,58,90,40
2,61,90,0
2,63,90,0
2,66,90,0
2,58,90,464
2,58,90,40
2,59,90,40
2,61,90,40
2,59,90,40
2,63,90,0
2,66,90,0
2,70,90,0
2,66,90,656
2,59,90,40
2,63,90,0
2,66,90,0
2,70,90,40
2,59,90,40
2,63,90,0
2,66,90,0
2,70,90,0
2,71,90,232
2,70,90,40
2,59,90,40
2,63,90,0
2,68,90,0
2,59,90,232
2,63,90,0
2,66,90,0
2,58,90,80
2,61,90,0
2,66,90,0
2,63,90,20
2,61,90,20
2,54,90,80
2,58,90,0
2,58,90,40
2,54,90,40
2,59,90,0
2,61,90,40
2,66,90,40
2,63,90,0
2,61,90,0
2,58,90,0
2,58,90,464
2,58,90,40
2,59,90,40
2,61,90,40
2,61,90,40
2,66,90,0
2,70,90,0
2,63,90,40
2,68,90,0
2,61,90,20
2,66,90,0
2,70,90,0
2,66,90,596
2,59,90,40
2,63,90,0
2,66,90,0
2,70,90,40
2,62,90,40
2,66,90,0
2,70,90,0
2,71,90,232
2,70,90,40
2,59,90,40
2,62,90,0
2,68,90,0
2,66,90,80
2,58,90,0
2,62,90,0
2,63,90,80
2,61,90,20
2,58,90,20
2,56,90,424
2,56,90,40
2,56,90,40
2,58,90,40
2,58,90,40
2,56,90,464
2,56,90,40
2,56,90,40
2,56,90,40
2,55,90,40
2,56,90,464
2,56,90,40
2,56,90,40
2,58,90,40
2,58,90,40
2,63,90,232
2,61,90,232
2,58,90,40
2,56,90,40
2,54,90,40
2,58,90,40
2,63,90,232
2,70,90,0
2,56,90,232
2,68,90,0
2,63,90,0
2,56,90,40
2,56,90,40
2,58,90,40
2,58,90,40
2,63,90,232
2,70,90,0
2,56,90,232
2,61,90,0
2,68,90,0
2,56,90,40
2,56,90,40
2,56,90,40
2,55,90,40
2,70,90,232
2,63,90,0
2,68,90,232
2,61,90,0
2,56,90,0
2,56,90,40
2,56,90,40
2,58,90,40
2,58,90,40
2,70,90,232
2,63,90,0
2,63,90,0
2,63,90,40
2,68,90,40
2,61,90,0
2,63,90,40
2,58,90,0
2,56,90,40
2,58,90,40
2,54,90,0
2,58,90,40
2,56,90,20
2,54,90,20
2,63,90,424
2,58,90,0
2,54,90,0
2,61,90,40
2,58,90,40
2,54,90,0
2,61,90,40
2,61,90,40
2,56,90,0
2,53,90,0
2,54,90,212
2,58,90,20
2,58,90,40
2,59,90,40
2,61,90,40
2,63,90,40
2,66,90,0
2,59,90,0
2,58,90,0
2,66,90,272
2,59,90,40
2,63,90,0
2,66,90,0
2,68,90,0
2,68,90,40
2,66,90,40
2,63,90,0
2,59,90,0
2,68,90,0
2,70,90,40
2,61,90,40
2,63,90,0
2,56,90,0
2,71,90,80
2,70,90,40
2,68,90,40
2,66,90,40
2,66,90,40
2,66,90,40
2,68,90,40
2,63,90,0
2,59,90,0
2,66,90,20
2,63,90,20
2,54,90,232
2,66,90,40
2,63,90,0
2,59,90,0
2,65,90,40
2,63,90,40
2,59,90,0
2,65,90,40
2,53,90,40
2,56,90,0
2,61,90,0
2,54,90,272
2,58,90,40
2,58,90,40
2,59,90,40
2,58,90,0
2,61,90,40
2,66,90,40
2,63,90,0
2,61,90,0
2,71,90,80
2,70,90,40
2,68,90,40
2,63,90,0
2,61,90,0
2,66,90,80
2,71,90,232
2,66,90,0
2,63,90,0
2,59,90,0
2,70,90,80
2,66,90,0
2,63,90,0
2,59,90,0
2,66,90,272
2,63,90,0
2,59,90,0
2,68,90,0
2,66,90,20
2,63,90,0
2,59,90,0
2,66,90,60
2,61,90,0
2,58,90,0
2,63,90,20
2,58,90,596
2,58,90,40
2,59,90,40
2,61,90,40
2,66,90,40
2,63,90,0
2,61,90,0
2,58,90,0
2,58,90,464
2,58,90,40
2,59,90,40
2,61,90,40
2,70,90,40
2,66,90,0
2,63,90,0
2,59,90,0
2,66,90,656
2,66,90,40
2,63,90,0
2,59,90,0
2,70,90,40
2,70,90,40
2,66,90,0
