track,note,velocity,time
1,31,95,384
1,31,0,91
1,38,98,5
1,38,0,14
1,36,102,34
1,36,0,199
1,31,86,41
1,36,98,144
1,31,0,1
1,36,0,220
1,36,106,19
1,36,0,192
1,41,102,0
1,41,0,140
1,34,98,4
1,34,0,285
1,31,86,531
1,36,98,144
1,31,0,1
1,36,0,220
1,36,106,19
1,36,0,192
1,41,102,0
1,41,0,140
1,34,98,4
1,34,0,285
1,31,95,147
1,31,0,91
1,38,98,5
1,38,0,14
1,36,102,34
1,36,0,199
1,31,86,41
1,36,98,144
1,31,0,1
1,36,0,220
1,36,106,19
1,36,0,192
1,41,102,0
1,41,0,140
1,34,98,4
1,34,0,285
1,31,86,531
1,36,98,144
1,31,0,1
1,36,0,220
1,36,106,19
1,36,0,192
1,41,102,0
1,41,0,140
1,34,98,4
1,34,0,285
1,31,95,147
1,31,0,91
1,38,98,5
1,38,0,14
1,36,102,34
1,36,0,199
1,31,86,41
1,36,98,144
1,31,0,1
1,36,0,220
1,36,106,19
1,36,0,192
1,41,102,0
1,41,0,140
1,34,98,4
1,34,0,285
1,31,114,149
1,31,0,19
1,31,114,53
1,31,0,21
1,31,114,53
1,31,0,201
1,31,110,36
1,31,0,23
1,31,102,54
1,31,0,19
1,31,106,50
1,31,0,207
1,27,118,36
1,27,0,19
1,27,103,53
1,27,0,25
1,27,103,48
1,27,0,204
1,27,110,32
1,27,0,32
1,27,98,41
1,27,0,27
1,27,98,45
1,27,0,201
1,31,114,37
1,31,0,19
1,31,114,53
1,31,0,21
1,31,114,53
1,31,0,201
1,31,110,36
1,31,0,23
1,31,102,54
1,31,0,19
1,31,106,50
1,31,0,207
1,27,118,36
1,27,0,19
1,27,103,53
1,27,0,25
1,27,103,48
1,27,0,204
1,27,110,32
1,27,0,32
1,27,98,41
1,27,0,100
1,29,93,21
1,29,0,36
1,29,102,30
1,29,0,106
1,31,86,399
1,36,98,144
1,31,0,1
1,36,0,220
1,36,106,19
1,36,0,192
1,41,102,0
1,41,0,140
1,34,98,4
1,34,0,285
1,31,95,147
1,31,0,91
1,38,98,5
1,38,0,14
1,36,102,34
1,36,0,199
1,31,86,41
1,36,98,144
1,31,0,1
1,36,0,220
1,36,106,19
1,36,0,192
1,41,102,0
1,41,0,140
1,34,98,4
1,34,0,285
1,31,86,147
1,31,0,139
1,33,98,5
1,33,0,182
1,33,82,10
1,33,0,34
1,33,95,14
1,33,0,132
1,36,95,12
1,36,0,130
1,38,88,14
1,38,0,80
1,31,95,16
1,31,0,142
1,33,93,2
1,33,0,217
1,38,88,23
1,38,0,140
1,36,61,4
1,36,0,142
1,34,74,2
1,34,0,77
1,31,86,19
1,31,0,139
1,33,98,5
1,33,0,182
1,33,82,10
1,33,0,34
1,33,95,14
1,33,0,132
1,36,95,12
1,36,0,130
1,38,88,14
1,38,0,80
1,36,106,16
1,36,0,192
1,41,102,0
1,41,0,140
1,34,98,4
1,34,0,285
1,31,114,149
1,31,0,19
1,31,114,53
1,31,0,21
1,31,114,53
1,31,0,201
1,31,110,36
1,31,0,23
1,31,102,54
1,31,0,19
1,31,106,50
1,31,0,207
1,27,118,36
1,27,0,19
1,27,103,53
1,27,0,25
1,27,103,48
1,27,0,204
1,27,110,32
1,27,0,32
1,27,98,41
1,27,0,27
1,27,98,45
1,27,0,201
1,31,114,37
1,31,0,19
1,31,114,53
1,31,0,21
1,31,114,53
1,31,0,201
1,31,110,36
1,31,0,23
1,31,102,54
1,31,0,19
1,31,106,50
1,31,0,207
1,27,118,36
1,27,0,19
1,27,103,53
1,27,0,25
1,27,103,48
1,27,0,204
1,27,110,32
1,27,0,32
1,27,98,41
1,27,0,100
1,29,93,21
1,29,0,36
1,29,102,30
1,29,0,106
1,31,86,399
1,36,98,144
1,31,0,1
1,36,0,220
1,36,106,19
1,36,0,192
1,41,102,0
1,41,0,140
1,34,98,4
1,34,0,285
1,31,95,147
1,31,0,91
1,38,98,5
1,38,0,14
1,36,102,34
1,36,0,199
1,31,86,41
1,36,98,144
1,31,0,1
1,36,0,220
1,36,106,19
1,36,0,192
1,41,102,0
1,41,0,140
1,34,98,4
1,34,0,285
1,31,95,147
1,31,0,91
1,38,98,5
1,38,0,14
1,36,102,34
1,36,0,199
1,31,86,41
1,36,98,144
1,31,0,1
1,36,0,220
1,36,106,19
1,36,0,192
1,41,102,0
1,41,0,140
1,34,98,4
1,34,0,285
2,43,102,384
2,58,64,6
2,62,83,1
2,55,68,1
2,45,106,16
2,43,0,10
2,46,110,14
2,45,0,10
2,46,0,14
2,67,110,0
2,50,110,24
2,62,0,11
2,58,0,1
2,55,0,3
2,67,0,9
2,50,0,24
2,51,118,0
2,63,82,2
2,60,82,2
2,55,62,0
2,48,98,2
2,67,90,63
2,67,0,6
2,68,90,0
2,68,0,5
2,67,82,2
2,51,0,1
2,67,0,9
2,65,86,2
2,65,0,21
2,62,88,3
2,58,94,2
2,48,0,23
2,70,98,0
2,63,94,1
2,70,0,22
2,67,95,1
2,62,0,1
2,55,0,20
2,60,0,0
2,63,0,1
2,58,0,1
2,63,0,2
2,63,98,0
2,67,0,37
2,63,0,11
2,43,90,0
2,62,80,9
2,58,70,0
2,55,76,1
2,45,74,14
2,43,0,7
2,46,110,17
2,45,0,8
2,67,119,16
2,46,0,2
2,50,114,22
2,62,0,9
2,58,0,2
2,55,0,3
2,67,0,10
2,50,0,24
2,51,110,0
2,63,86,4
2,60,76,0
2,55,68,0
2,48,102,5
2,65,95,88
2,65,0,21
2,62,80,2
2,58,67,0
2,51,0,17
2,48,0,2
2,70,98,5
2,62,0,24
2,63,94,0
2,70,0,1
2,67,98,0
2,55,0,37
2,60,0,0
2,63,0,2
2,67,0,4
2,63,0,4
2,63,70,0
2,58,0,22
2,63,94,7
2,60,102,0
2,55,80,1
2,63,0,14
2,63,0,172
2,60,0,0
2,55,0,0
2,60,65,0
2,67,90,0
2,70,86,0
2,55,54,0
2,63,37,0
2,63,79,72
2,70,94,0
2,70,0,9
2,63,0,2
2,60,0,39
2,67,0,10
2,63,0,0
2,70,0,1
2,55,0,3
2,62,83,8
2,55,78,0
2,58,66,0
2,58,90,72
2,60,80,24
2,58,0,4
2,62,88,19
2,60,0,9
2,62,0,55
2,55,0,2
2,58,0,0
2,62,0,96
2,62,110,0
2,65,90,6
2,62,0,1
2,60,102,23
2,65,0,4
2,60,0,11
2,58,90,9
2,58,0,21
2,60,88,3
2,60,0,20
2,62,119,4
2,62,0,22
2,62,83,50
2,62,0,23
2,67,106,1
2,67,0,56
2,62,88,16
2,62,0,20
2,67,119,4
2,67,0,57
2,62,93,15
2,62,0,20
2,67,119,4
2,67,0,55
2,62,90,17
2,62,0,18
2,67,106,6
2,67,0,62
2,62,90,10
2,62,0,17
2,67,106,7
2,67,0,65
2,62,88,7
2,62,0,19
2,67,114,5
2,67,0,48
2,62,93,24
2,62,0,16
2,65,102,8
2,69,127,24
2,65,0,2
2,69,0,13
2,70,127,13
2,70,0,34
2,72,127,4
2,72,0,27
2,74,127,9
2,62,90,48
2,62,0,22
2,67,111,3
2,74,0,9
2,67,0,53
2,62,90,6
2,62,0,22
2,67,102,2
2,67,0,65
2,62,90,4
2,62,0,22
2,67,102,4
2,67,0,68
2,62,90,4
2,62,0,23
2,67,101,3
2,67,0,82
2,62,90,84
2,62,0,20
2,67,102,4
2,67,0,43
2,62,110,0
2,65,90,6
2,62,0,1
2,60,102,23
2,72,119,2
2,65,0,2
2,60,0,11
2,58,90,9
2,69,114,3
2,72,0,5
2,69,0,9
2,58,0,4
2,60,88,3
2,65,114,4
2,60,0,16
2,62,119,4
2,62,0,22
2,65,0,25
2,62,83,25
2,62,0,23
2,67,106,1
2,67,0,56
2,62,88,16
2,62,0,20
2,67,119,4
2,67,0,57
2,62,93,15
2,62,0,20
2,67,119,4
2,67,0,55
2,62,90,17
2,62,0,18
2,67,106,6
2,67,0,62
2,62,90,10
2,62,0,17
2,67,106,7
2,67,0,65
2,62,88,7
2,62,0,19
2,67,114,5
2,67,0,48
2,62,93,24
2,62,0,16
2,65,102,8
2,69,127,24
2,65,0,2
2,69,0,13
2,70,127,13
2,70,0,34
2,72,127,4
2,72,0,27
2,74,127,9
2,62,90,48
2,62,0,22
2,67,111,3
2,74,0,9
2,67,0,53
2,62,90,6
2,62,0,22
2,67,102,2
2,67,0,65
2,62,90,4
2,62,0,22
2,67,102,4
2,67,0,68
2,62,90,4
2,62,0,23
2,67,101,3
2,67,0,82
2,62,90,84
2,62,0,20
2,67,102,4
2,67,0,43
2,72,119,77
2,69,114,25
2,72,0,5
2,69,0,9
2,65,114,11
2,65,0,67
2,58,127,2877
2,62,127,26
2,58,0,5
2,65,127,20
2,62,0,2
2,60,127,21
2,65,0,5
2,60,0,17
2,62,127,0
2,62,0,26
2,62,100,253
2,62,0,17
2,66,110,9
2,66,0,29
2,67,127,1
2,67,0,23
2,70,119,6
2,70,0,122
2,60,100,307
2,60,0,6
2,62,101,4
2,62,0,14
2,67,99,0
2,67,0,34
2,69,101,2
2,69,0,31
2,70,103,2
2,70,0,23
2,69,101,3
2,65,94,52
2,69,0,11
2,65,0,10
2,67,87,6
2,67,0,67
2,65,76,3
2,65,0,20
2,62,72,9
2,62,0,142
2,66,74,331
2,66,0,27
2,67,76,0
2,67,0,24
2,69,90,1
2,70,94,22
2,69,0,2
2,70,0,16
2,74,93,0
2,72,86,58
2,74,0,8
2,69,93,39
2,72,0,1
2,72,93,23
2,69,0,2
2,72,0,24
2,70,98,1
2,70,0,47
2,69,88,24
2,67,93,26
2,69,0,3
2,67,0,43
2,62,74,5
2,64,86,10
2,62,0,5
2,65,106,10
2,64,0,3
2,65,0,24
2,64,106,1
2,64,0,91
2,62,110,0
2,65,90,6
2,62,0,1
2,60,102,23
2,65,0,4
2,60,0,11
2,58,90,9
2,58,0,21
2,60,88,3
2,60,0,20
2,62,119,4
2,62,0,22
2,62,83,50
2,62,0,23
2,67,106,1
2,67,0,56
2,62,88,16
2,62,0,20
2,67,119,4
2,67,0,57
2,62,93,15
2,62,0,20
2,67,119,4
2,67,0,55
2,62,90,17
2,62,0,18
2,67,106,6
2,67,0,62
2,62,90,10
2,62,0,17
2,67,106,7
2,67,0,65
2,62,88,7
2,62,0,19
2,67,114,5
2,67,0,48
2,62,93,24
2,62,0,16
2,65,102,8
2,69,127,24
2,65,0,2
2,69,0,13
2,70,127,13
2,70,0,34
2,72,127,4
2,72,0,27
2,74,127,9
2,62,90,48
2,62,0,22
2,67,111,3
2,74,0,9
2,67,0,53
2,62,90,6
2,62,0,22
2,67,102,2
2,67,0,65
2,62,90,4
2,62,0,22
2,67,102,4
2,67,0,68
2,62,90,4
2,62,0,23
2,67,101,3
2,67,0,82
2,62,90,84
2,62,0,20
2,67,102,4
2,67,0,43
2,62,110,0
2,65,90,6
2,62,0,1
2,60,102,23
2,72,119,2
2,65,0,2
2,60,0,11
2,58,90,9
2,69,114,3
2,72,0,5
2,69,0,9
2,58,0,4
2,60,88,3
2,65,114,4
2,60,0,16
2,62,119,4
2,62,0,22
2,65,0,25
2,62,83,25
2,62,0,23
2,67,106,1
2,67,0,56
2,62,88,16
2,62,0,20
2,67,119,4
2,67,0,57
2,62,93,15
2,62,0,20
2,67,119,4
2,67,0,55
2,62,90,17
2,62,0,18
2,67,106,6
2,67,0,62
2,62,90,10
2,62,0,17
2,67,106,7
2,67,0,65
2,62,88,7
2,62,0,19
2,67,114,5
2,67,0,48
2,62,93,24
2,62,0,16
2,65,102,8
2,69,127,24
2,65,0,2
2,69,0,13
2,70,127,13
2,70,0,34
2,72,127,4
2,72,0,27
2,74,127,9
2,62,90,48
2,62,0,22
2,67,111,3
2,74,0,9
2,67,0,53
2,62,90,6
2,62,0,22
2,67,102,2
2,67,0,65
2,62,90,4
2,62,0,22
2,67,102,4
2,67,0,68
2,62,90,4
2,62,0,23
2,67,101,3
2,67,0,82
2,62,90,84
2,62,0,20
2,67,102,4
2,67,0,43
2,72,119,77
2,69,114,25
2,72,0,5
2,69,0,9
2,65,114,11
2,65,0,67
2,70,79,270
2,67,86,25
2,70,0,6
2,67,0,18
2,63,86,6
2,63,0,78
2,69,110,60
2,69,0,28
2,70,103,1
2,69,86,29
2,70,0,2
2,69,0,22
2,67,78,10
2,69,61,1
2,69,0,2
2,67,0,87
2,58,127,2232
2,62,127,26
2,58,0,5
2,65,127,20
2,62,0,2
2,60,127,21
2,65,0,5
2,60,0,17
2,62,127,0
2,62,0,26
2,62,95,65
2,62,0,20
2,67,106,4
2,67,0,21
2,69,110,27
2,69,0,18
2,70,103,6
2,70,0,22
2,69,95,2
2,69,0,21
2,67,98,27
2,67,0,73
2,72,110,167
2,70,94,48
2,72,0,5
2,70,0,32
2,67,102,11
2,67,0,123
3,62,106,1080
3,62,0,12
3,62,110,6
3,62,0,46
3,58,106,2
3,58,0,127
3,60,113,128
3,60,0,71
3,55,115,1
3,55,0,18
3,58,102,2
3,58,0,165
3,55,108,11
3,55,0,10
3,55,103,14
3,58,102,24
3,55,0,7
3,58,0,40
3,60,108,1
3,60,0,16
3,62,103,8
3,62,0,26
3,62,113,22
3,62,0,147
3,55,106,69
3,55,0,12
3,55,96,12
3,55,0,23
3,58,97,1
3,60,103,48
3,58,0,2
3,60,0,14
3,62,115,8
3,62,0,243
3,55,102,21
3,55,0,10
3,55,94,14
3,55,0,22
3,58,106,2
3,60,102,48
3,58,0,2
3,62,108,22
3,60,0,9
3,62,0,16
3,62,113,23
3,62,0,75
3,62,110,10
3,62,0,12
3,62,100,12
3,62,0,21
3,60,118,3
3,60,0,35
3,60,122,13
3,60,0,3
3,60,115,8
3,60,0,169
3,55,106,53
3,55,0,12
3,55,106,12
3,58,97,24
3,55,0,1
3,60,113,47
3,58,0,2
3,62,106,22
3,60,0,7
3,62,0,7
3,62,118,34
3,62,0,173
3,55,100,19
3,55,0,12
3,55,110,12
3,55,0,12
3,55,115,12
3,58,118,24
3,55,0,1
3,60,115,47
3,58,0,3
3,60,0,21
3,62,100,0
3,62,0,235
3,53,115,5
3,53,0,17
3,62,127,7
3,62,0,15
3,62,126,9
3,60,115,24
3,62,0,6
3,60,0,10
3,58,118,8
3,58,0,11
3,58,118,13
3,58,0,183
3,58,118,33
3,58,0,20
3,62,108,4
3,62,0,39
3,62,118,9
3,60,113,48
3,62,0,6
3,60,0,14
3,58,123,4
3,58,0,10
3,58,123,14
3,55,122,264
3,58,0,5
3,55,0,7
3,55,126,12
3,55,0,12
3,55,108,12
3,58,102,24
3,55,0,6
3,60,100,18
3,58,0,9
3,62,103,15
3,60,0,4
3,62,0,12
3,62,127,8
3,62,0,19
3,62,122,29
3,62,0,157
3,55,115,59
3,55,0,12
3,55,108,12
3,58,114,24
3,55,0,1
3,60,102,23
3,58,0,7
3,62,108,17
3,60,0,2
3,62,0,13
3,62,126,9
3,60,103,28
3,62,0,2
3,60,106,46
3,60,0,2
3,60,0,1
3,55,110,71
3,55,0,13
3,55,102,11
3,58,92,24
3,55,0,3
3,60,106,21
3,58,0,9
3,62,102,15
3,60,0,1
3,62,0,14
3,62,118,9
3,62,0,29
3,62,122,19
3,60,113,35
3,62,0,5
3,60,0,52
3,62,127,40
3,62,0,46
3,60,108,2
3,60,0,13
3,60,118,11
3,60,0,18
3,58,114,6
3,58,0,27
3,58,127,21
3,58,0,149
3,67,127,91
3,67,0,21
3,67,127,27
3,65,122,48
3,67,0,8
3,65,0,11
3,62,115,5
3,62,0,22
3,65,126,2
3,65,0,47
3,62,122,1
3,62,0,15
3,60,100,1
3,60,0,110
3,53,106,18
3,53,0,14
3,53,113,10
3,53,0,24
3,58,99,0
3,60,98,24
3,58,0,7
3,62,91,17
3,60,0,5
3,62,0,10
3,62,126,9
3,62,0,184
3,53,115,56
3,53,0,17
3,62,127,7
3,62,0,15
3,62,126,9
3,60,115,24
3,62,0,6
3,60,0,10
3,58,118,8
3,58,0,11
