track,note,velocity,time
2,33,95,14372
2,33,104,140
2,33,98,139
2,33,104,129
2,30,91,64
2,30,104,20
2,30,91,134
2,30,95,135
2,26,88,2
2,26,98,72
2,26,91,127
2,26,91,127
2,38,88,576
2,38,88,80
2,38,95,135
2,35,85,384
2,33,104,80
2,33,91,44
2,33,98,140
2,33,104,134
2,28,80,384
2,30,95,178
2,30,95,61
2,30,95,141
2,30,104,150
2,26,91,576
2,26,104,70
2,26,98,141
2,26,104,140
2,38,95,576
2,38,85,67
2,38,109,132
2,37,82,576
2,35,88,9
2,35,98,71
2,35,98,109
2,35,98,121
2,37,109,5
2,28,91,1
2,30,95,18
2,30,104,55
2,31,104,18
2,31,114,37
2,31,109,138
2,30,88,26
2,28,104,9
2,35,98,576
2,40,98,15
2,38,95,15
2,40,91,96
2,35,95,87
2,33,120,53
2,33,114,120
2,33,109,14
2,33,120,83
2,28,98,15
2,33,104,13
2,30,104,1
2,30,124,132
2,30,124,61
2,30,114,77
2,30,114,48
2,30,114,45
2,28,91,19
2,26,109,19
2,26,120,52
2,26,120,118
2,26,109,41
2,26,120,92
2,28,95,1
2,30,109,1
2,26,120,84
2,26,114,72
2,26,124,59
2,38,109,7
2,37,104,1
2,35,104,1
2,35,120,95
2,35,120,70
2,30,95,54
2,35,120,23
2,35,120,99
2,35,114,48
2,33,114,17
2,33,124,62
2,30,104,7
2,33,114,1
2,33,120,115
2,30,104,8
2,31,109,6
2,31,120,91
2,31,124,116
2,31,124,111
2,30,109,1
2,28,109,6
2,35,91,27
2,38,95,1
2,40,124,37
2,28,109,1
2,33,95,147
2,33,104,140
2,33,98,139
2,33,104,129
2,30,91,64
2,30,104,20
2,30,91,134
2,30,95,135
2,26,88,2
2,26,98,72
2,26,91,127
2,26,91,127
2,26,120,1
2,38,88,97
2,38,95,135
2,35,85,1
2,33,104,80
2,33,91,44
2,33,98,140
2,33,104,134
2,28,80,1
2,30,95,1
2,30,95,61
2,30,95,141
2,30,104,150
2,28,94,1
2,26,91,1
2,26,104,70
2,26,98,141
2,26,104,140
2,38,95,1
2,38,85,67
2,38,109,132
2,37,82,1
2,35,88,9
2,35,98,71
2,35,98,109
2,35,98,121
2,37,109,5
2,28,91,1
2,30,95,18
2,30,104,55
2,31,104,18
2,31,114,37
2,31,109,138
2,30,88,26
2,28,104,9
2,35,98,1
2,40,98,15
2,38,95,15
2,40,91,1
2,35,95,1
2,33,120,53
2,33,114,120
2,33,109,14
2,33,120,83
2,28,98,15
2,33,104,13
2,30,104,1
2,30,124,132
2,30,124,61
2,30,114,77
2,30,114,48
2,30,114,45
2,28,91,19
2,26,109,19
2,26,120,52
2,26,120,118
2,26,109,41
2,26,120,92
2,28,95,1
2,30,109,1
2,26,120,84
2,26,114,72
2,26,124,59
2,38,109,7
2,37,104,1
2,35,104,1
2,35,120,95
2,35,120,70
2,30,95,54
2,35,120,23
2,35,120,99
2,35,114,48
2,33,114,17
2,33,124,62
2,30,104,7
2,33,114,1
2,33,120,115
2,30,104,8
2,31,109,6
2,31,120,91
2,31,124,116
2,31,124,111
2,30,109,1
2,28,109,6
2,35,91,27
2,38,95,1
2,40,124,37
2,28,109,1
2,37,109,147
2,32,104,13
2,35,91,96
2,37,104,14
2,37,114,115
2,28,98,384
2,30,114,139
2,40,109,24
2,42,127,54
2,40,98,96
2,40,109,44
2,38,109,4
2,38,124,47
2,40,120,71
2,40,120,58
2,42,109,96
2,37,109,5
2,32,109,37
2,35,95,96
2,37,124,3
2,28,114,7
2,30,124,15
2,37,114,12
2,40,80,96
2,42,127,95
2,42,114,37
2,45,120,26
2,45,109,42
2,42,109,7
2,42,109,38
2,40,114,15
2,42,109,13
2,35,124,26
2,35,120,25
2,30,114,20
2,33,109,96
2,35,114,19
2,33,124,22
2,45,120,768
2,42,95,15
2,40,98,96
2,38,104,11
2,33,120,96
2,38,114,90
2,31,120,27
2,31,120,76
2,31,120,42
2,40,120,192
2,38,95,83
2,35,104,95
2,31,109,31
2,30,109,54
2,28,120,14
2,35,120,960
2,38,104,29
2,42,124,10
2,38,104,68
2,40,124,5
2,33,120,1323
2,33,114,120
2,33,109,14
2,33,120,83
2,28,98,15
2,33,104,13
2,30,104,1
2,30,124,132
2,30,124,61
2,30,114,77
2,30,114,48
2,30,114,45
2,28,91,19
2,26,109,19
2,26,120,52
2,26,120,118
2,26,109,41
2,26,120,92
2,28,95,1
2,30,109,1
2,26,120,84
2,26,114,72
2,26,124,59
2,38,109,7
2,37,104,1
2,35,104,1
2,35,120,95
2,35,120,70
2,30,95,54
2,35,120,23
2,35,120,99
2,35,114,48
2,33,114,17
2,33,124,62
2,30,104,7
2,33,114,1
2,33,120,115
2,30,104,8
2,31,109,6
2,31,120,91
2,31,124,116
2,31,124,111
2,30,109,1
2,28,109,6
2,35,91,27
2,38,95,1
2,40,124,37
2,28,109,1
2,28,80,147
2,33,80,1536
3,57,85,10516
3,62,71,192
3,69,73,192
3,78,74,192
3,55,68,15
3,76,91,192
3,81,91,192
3,79,78,3
3,76,74,57
3,74,78,172
3,59,66,309
3,64,65,0
3,71,78,0
3,76,82,0
3,83,95,192
3,81,88,192
3,80,74,82
3,78,80,44
3,76,85,37
3,45,82,171
3,52,74,0
3,57,78,0
3,59,74,0
3,61,63,0
3,64,71,0
3,59,85,108
3,61,80,96
3,52,80,96
3,64,80,0
3,69,95,0
3,57,76,28
3,61,78,0
3,64,58,0
3,52,78,65
3,57,76,0
3,61,68,0
3,66,74,0
3,52,91,44
3,59,98,29
3,61,82,72
3,66,88,96
3,69,85,96
3,50,78,80
3,54,74,0
3,57,85,0
3,61,74,0
3,66,80,0
3,50,63,13
3,54,62,0
3,57,80,0
3,61,73,0
3,50,80,150
3,54,67,0
3,57,85,0
3,61,78,0
3,50,95,28
3,54,82,166
3,66,91,192
3,61,95,184
3,59,98,384
3,45,85,234
3,52,85,154
3,59,76,192
3,61,74,0
3,64,80,0
3,57,91,19
3,59,104,57
3,61,80,96
3,64,91,41
3,54,88,18
3,61,62,0
3,66,80,0
3,57,67,71
3,49,88,3
3,54,91,11
3,69,95,68
3,50,82,50
3,54,74,0
3,57,76,0
3,61,82,0
3,66,88,0
3,64,91,150
3,66,88,96
3,69,73,96
3,73,88,96
3,57,76,72
3,69,78,0
3,66,78,171
3,69,82,0
3,47,71,86
3,54,59,0
3,57,65,0
3,62,66,0
3,66,64,0
3,69,73,0
3,64,91,250
3,66,82,96
3,69,80,4
3,74,85,92
3,49,67,83
3,56,66,0
3,59,76,0
3,68,78,0
3,73,73,0
3,54,73,63
3,64,78,0
3,69,78,0
3,73,74,0
3,57,68,96
3,43,91,202
3,59,80,0
3,50,78,96
3,55,70,96
3,64,91,0
3,71,91,96
3,66,80,96
3,62,78,100
3,66,71,0
3,52,91,24
3,54,78,96
3,57,76,96
3,64,104,0
3,66,88,39
3,74,95,96
3,71,85,192
3,69,88,171
3,68,78,54
3,66,88,192
3,64,76,176
3,45,91,42
3,59,95,0
3,61,88,0
3,64,95,0
3,52,80,384
3,57,82,0
3,59,76,130
3,61,80,96
3,64,85,192
3,69,88,0
3,49,91,32
3,54,88,192
3,57,85,13
3,59,95,96
3,61,64,96
3,64,91,96
3,50,82,86
3,61,91,0
3,66,91,0
3,57,82,192
3,61,68,27
3,64,78,0
3,66,50,0
3,69,88,0
3,61,71,76
3,64,74,0
3,66,80,0
3,54,95,6
3,57,88,191
3,64,85,192
3,73,91,0
3,66,80,192
3,69,80,0
3,54,91,185
3,59,88,154
3,62,85,192
3,66,74,192
3,69,82,0
3,62,74,48
3,64,85,0
3,69,85,0
3,66,74,28
3,45,82,68
3,54,74,0
3,62,85,0
3,66,88,0
3,57,91,192
3,64,98,170
3,69,91,192
3,54,68,528
3,59,71,0
3,62,65,0
3,71,91,0
3,81,85,192
3,79,80,192
3,76,82,5
3,74,73,1
3,59,78,101
3,64,78,0
3,71,78,192
3,76,82,0
3,83,85,192
3,81,82,192
3,80,78,90
3,78,71,45
3,76,73,79
3,45,82,263
3,52,74,0
3,57,78,0
3,59,74,0
3,61,63,0
3,64,71,0
3,59,85,108
3,61,80,96
3,52,80,96
3,64,80,0
3,69,95,0
3,57,76,28
3,61,78,0
3,64,58,0
3,52,78,65
3,57,76,0
3,61,68,0
3,66,74,0
3,52,91,44
3,59,98,29
3,61,82,72
3,66,88,96
3,69,85,96
3,50,78,80
3,54,74,0
3,57,85,0
3,61,74,0
3,66,80,0
3,50,63,13
3,54,62,0
3,57,80,0
3,61,73,0
3,50,80,150
3,54,67,0
3,57,85,0
3,61,78,0
3,50,95,28
3,54,82,166
3,66,91,192
3,61,95,184
3,59,98,384
3,45,85,234
3,52,85,154
3,59,76,192
3,61,74,0
3,64,80,0
3,57,91,19
3,59,104,57
3,61,80,96
3,64,91,41
3,54,88,18
3,61,62,0
3,66,80,0
3,57,67,71
3,49,88,3
3,54,91,11
3,69,95,68
3,50,82,50
3,54,74,0
3,57,76,0
3,61,82,0
3,66,88,0
3,64,91,150
3,66,88,96
3,69,73,96
3,73,88,96
3,57,76,72
3,69,78,0
3,66,78,171
3,69,82,0
3,47,71,86
3,54,59,0
3,57,65,0
3,62,66,0
3,66,64,0
3,69,73,0
3,64,91,250
3,66,82,96
3,69,80,4
3,74,85,92
3,49,67,83
3,56,66,0
3,59,76,0
3,68,78,0
3,73,73,0
3,54,73,63
3,64,78,0
3,69,78,0
3,73,74,0
3,57,68,96
3,43,91,202
3,59,80,0
3,50,78,96
3,55,70,96
3,64,91,0
3,71,91,96
3,66,80,96
3,62,78,100
3,66,71,0
3,52,91,24
3,54,78,96
3,57,76,96
3,64,104,0
3,66,88,39
3,74,95,96
3,71,85,192
3,69,88,171
3,68,78,54
3,66,88,192
3,64,76,176
3,45,91,42
3,59,95,0
3,61,88,0
3,64,95,0
3,52,80,384
3,57,82,0
3,59,76,130
3,61,80,96
3,64,85,192
3,69,88,0
3,49,91,32
3,54,88,192
3,57,85,13
3,59,95,96
3,61,64,96
3,64,91,96
3,50,82,86
3,61,91,0
3,66,91,0
3,57,82,192
3,61,68,27
3,64,78,0
3,66,50,0
3,69,88,0
3,61,71,76
3,64,74,0
3,66,80,0
3,54,95,6
3,57,88,191
3,64,85,192
3,73,91,0
3,66,80,192
3,69,80,0
3,54,91,185
3,59,88,154
3,62,85,192
3,66,74,192
3,69,82,0
3,62,74,48
3,64,85,0
3,69,85,0
3,66,74,28
3,45,82,68
3,54,74,0
3,62,85,0
3,66,88,0
3,57,91,192
3,64,98,170
3,69,91,192
3,54,68,528
3,59,71,0
3,62,65,0
3,71,91,0
3,81,85,192
3,79,80,192
3,76,82,5
3,74,73,1
3,59,78,101
3,64,78,0
3,71,78,192
3,76,82,0
3,83,85,192
3,81,82,192
3,80,78,90
3,78,71,45
3,76,73,79
3,45,91,14087
3,59,95,0
3,61,88,0
3,64,95,0
3,52,80,384
3,57,82,0
3,59,76,130
3,61,80,96
3,64,85,192
3,69,88,0
3,49,91,32
3,54,88,192
3,57,85,13
3,59,95,96
3,61,64,96
3,64,91,96
3,50,82,86
3,61,91,0
3,66,91,0
3,57,82,192
3,61,68,27
3,64,78,0
3,66,50,0
3,69,88,0
3,61,71,76
3,64,74,0
3,66,80,0
3,54,95,6
3,57,88,191
3,64,85,192
3,73,91,0
3,66,80,192
3,69,80,0
3,54,91,185
3,59,88,154
3,62,85,192
3,66,74,192
3,69,82,0
3,62,74,48
3,64,85,0
3,69,85,0
3,66,74,28
3,45,82,68
3,54,74,0
3,62,85,0
3,66,88,0
3,57,91,192
3,64,98,170
3,69,91,192
3,54,68,528
3,59,71,0
3,62,65,0
3,71,91,0
3,81,85,192
3,79,80,192
3,76,82,5
3,74,73,1
3,59,78,101
3,64,78,0
3,71,78,192
3,76,82,0
3,83,85,192
3,81,82,192
3,80,78,90
3,78,71,45
3,76,73,79
4,69,74,1476
4,69,74,59
4,69,80,61
4,71,76,15
4,73,74,6
4,73,78,85
4,73,74,122
4,73,71,106
4,73,73,115
4,73,74,124
4,73,78,123
4,71,80,112
4,69,78,124
4,76,76,77
4,73,71,80
4,69,85,30
4,69,76,54
4,69,80,48
4,71,78,28
4,73,78,28
4,73,78,87
4,73,73,101
4,73,73,110
4,73,73,115
4,73,73,111
4,73,74,107
4,73,74,115
4,73,78,113
4,78,82,260
4,69,74,18
4,73,74,17
4,69,88,142
4,69,73,47
4,69,91,51
4,71,74,20
4,73,78,18
4,74,76,71
4,74,76,95
4,74,74,84
4,74,73,78
4,74,80,81
4,73,71,71
4,73,78,59
4,71,78,38
4,73,80,241
4,71,85,70
4,74,80,67
4,73,88,103
4,74,74,1
4,73,80,45
4,71,80,4
4,71,91,54
4,81,95,222
4,73,80,4
4,73,88,46
4,71,82,1
4,71,91,44
4,71,95,189
4,69,91,53
4,71,88,9
4,73,82,1
4,71,80,15
4,69,82,1
4,66,78,1
4,69,109,398
4,69,95,56
4,69,98,52
4,69,95,55
4,69,98,48
4,69,85,59
4,71,95,31
4,68,95,197
4,68,82,40
4,68,95,51
4,71,88,9
4,69,95,36
4,71,95,188
4,73,95,8
4,73,88,39
4,71,88,1
4,69,91,9
4,66,73,1
4,64,91,841
4,71,91,18
4,71,82,34
4,71,98,47
4,73,88,36
4,73,88,49
4,71,78,10
4,69,82,7
4,66,91,647
4,69,104,12
4,69,104,42
4,69,104,48
4,66,91,1
4,71,98,63
4,69,88,86
4,71,104,16
4,73,82,1
4,76,95,197
4,73,80,1
4,76,98,69
4,73,82,6
4,73,82,62
4,71,91,1
4,69,91,9
4,71,109,89
4,73,95,104
4,73,104,83
4,66,95,1
4,69,95,22
4,71,98,19
4,69,98,1
4,66,95,4
4,73,91,256
4,78,109,87
4,76,95,9
4,73,88,1
4,76,95,8
4,73,104,1
4,71,91,1
4,73,109,58
4,71,88,1
4,69,95,5
4,66,88,1
4,78,104,408
4,78,91,46
4,78,95,51
4,78,104,49
4,78,104,50
4,74,88,1
4,76,98,13
4,78,95,35
4,78,104,54
4,80,95,42
4,78,88,1
4,76,91,34
4,73,91,2
4,76,91,63
4,78,104,1
4,81,109,52
4,78,109,43
4,76,104,56
4,69,91,2
4,69,109,50
4,69,104,50
4,69,109,54
4,81,114,98
4,78,109,32
4,76,109,38
4,69,95,30
4,69,114,59
4,71,104,16
4,73,95,48
4,69,109,186
4,69,114,64
4,69,114,58
4,71,95,23
4,73,91,43
4,73,91,88
4,71,82,96
4,69,80,21
4,81,88,1620
4,81,91,58
4,80,95,96
4,78,95,181
4,78,91,133
4,76,82,192
4,74,98,206
4,76,95,8
4,69,114,1114
4,69,104,64
4,69,120,59
4,71,98,13
4,73,95,11
4,73,104,112
4,71,91,96
4,69,88,12
4,78,109,2517
4,76,98,4
4,73,88,192
4,73,95,62
4,71,95,11
4,78,124,458
4,76,104,14
4,73,91,11
4,71,98,96
4,76,104,670
4,74,88,28
4,73,95,14
4,71,88,8
4,69,95,2
4,69,95,73
4,71,95,8
4,69,104,74
4,68,104,2
4,68,95,51
4,68,95,52
4,64,95,2
4,71,95,18
4,69,98,1
4,69,120,145
4,69,120,111
4,71,98,8
4,73,95,12
4,73,104,109
4,71,91,1
4,71,104,66
4,69,104,11
4,76,109,339
4,78,109,111
4,76,91,1
4,76,109,62
4,73,95,1
4,73,104,57
4,71,98,1
4,69,98,4
4,71,104,1
4,73,95,1
4,76,114,551
4,76,98,55
4,76,109,57
4,73,91,1
4,76,104,24
4,76,114,49
4,78,104,1
4,81,114,59
4,80,104,39
4,80,114,69
4,80,95,53
4,81,104,57
4,81,109,30
4,76,114,24
4,78,104,1
4,81,98,25
4,83,109,32
4,78,104,1
4,78,109,65
4,83,114,208
4,81,114,3
4,78,104,1
4,78,109,56
4,76,95,1
4,78,104,43
4,76,104,1
4,73,95,1
4,71,95,1
4,69,98,9
4,71,104,1
4,73,91,1
4,78,109,460
4,78,109,34
4,78,91,49
4,78,104,45
4,78,109,47
4,74,104,49
