track,note,velocity,time
1,67,56,2160
1,67,0,60
1,67,52,60
1,67,0,40
1,69,49,0
1,69,0,40
1,67,48,0
1,67,0,40
1,66,57,0
1,66,0,360
1,69,44,0
1,69,0,120
1,67,52,0
1,67,0,120
1,70,57,0
1,70,0,120
1,74,64,0
1,74,0,120
1,78,69,0
1,78,0,120
1,79,68,0
1,79,0,360
1,78,60,0
1,78,0,120
1,74,61,0
1,74,0,240
1,55,37,0
1,58,37,0
1,62,41,0
1,62,0,240
1,58,0,0
1,55,0,0
1,62,42,240
1,60,42,0
1,57,38,0
1,57,0,240
1,60,0,0
1,62,0,0
1,62,49,240
1,58,42,0
1,58,0,240
1,62,0,0
1,62,42,240
1,57,38,0
1,60,38,0
1,60,0,240
1,57,0,0
1,62,0,0
1,67,56,240
1,67,0,60
1,67,52,60
1,67,0,40
1,69,48,0
1,69,0,40
1,67,48,0
1,67,0,40
1,66,61,0
1,66,0,360
1,69,53,0
1,69,0,120
1,67,58,0
1,67,0,120
1,70,62,0
1,70,0,120
1,74,66,0
1,74,0,120
1,78,69,0
1,78,0,120
1,79,73,0
1,79,0,360
1,77,67,0
1,77,0,120
1,77,67,0
1,77,0,240
1,67,44,0
1,75,58,0
1,72,52,0
1,72,0,240
1,75,0,0
1,67,0,0
1,74,62,0
1,74,0,240
1,72,46,0
1,67,46,0
1,67,0,240
1,72,0,0
1,72,68,0
1,72,0,90
1,66,57,30
1,66,0,90
1,67,62,30
1,67,0,90
1,69,58,30
1,69,0,90
1,60,46,30
1,70,58,0
1,66,46,6
1,70,0,354
1,69,46,0
1,69,0,120
1,60,0,0
1,67,42,0
1,62,37,0
1,58,37,0
1,66,0,6
1,67,0,234
1,62,0,0
1,58,0,0
1,74,64,0
1,74,0,190
1,74,63,0
1,74,0,25
1,75,63,0
1,75,0,25
1,74,69,0
1,74,0,360
1,69,55,0
1,69,0,120
1,70,56,0
1,70,0,60
1,73,58,60
1,73,0,60
1,74,62,60
1,74,0,60
1,75,66,60
1,75,0,60
1,77,67,60
1,77,0,60
1,78,68,60
1,78,0,60
1,82,70,60
1,82,0,60
1,81,68,60
1,81,0,60
1,81,64,40
1,81,0,20
1,84,77,0
1,84,0,360
1,82,67,0
1,82,0,90
1,82,68,10
1,82,0,20
1,86,75,0
1,86,0,60
1,81,70,60
1,81,0,60
1,82,67,40
1,82,0,20
1,86,75,0
1,86,0,60
1,81,69,60
1,81,0,60
1,81,68,40
1,81,0,20
1,86,75,0
1,86,0,120
1,79,68,0
1,79,0,240
1,82,70,0
1,82,0,240
1,78,64,0
1,78,0,240
1,81,68,0
1,81,0,240
1,74,64,0
1,74,0,240
1,79,67,0
1,79,0,70
1,74,55,0
1,74,0,25
1,75,58,0
1,75,0,25
1,74,67,0
1,74,0,360
1,69,55,0
1,69,0,120
1,70,56,0
1,70,0,60
1,73,58,60
1,73,0,60
1,74,62,60
1,74,0,60
1,75,64,60
1,75,0,60
1,77,67,60
1,77,0,60
1,78,68,60
1,78,0,60
1,82,70,60
1,82,0,60
1,81,68,60
1,81,0,60
1,81,64,40
1,81,0,20
1,84,75,0
1,84,0,360
1,82,67,0
1,82,0,90
1,78,63,10
1,78,0,20
1,82,73,0
1,82,0,60
1,78,67,60
1,78,0,60
1,78,63,40
1,78,0,20
1,82,73,0
1,82,0,60
1,78,64,60
1,78,0,60
1,78,62,40
1,78,0,20
1,81,70,0
1,81,0,120
1,74,60,0
1,74,0,240
1,79,61,0
1,79,0,90
1,74,57,10
1,74,0,20
1,70,66,0
1,70,0,60
1,69,58,60
1,69,0,60
1,74,57,40
1,74,0,20
1,70,64,0
1,70,0,60
1,69,55,60
1,69,0,60
1,74,56,40
1,74,0,20
1,69,68,0
1,67,64,120
1,69,0,120
1,67,0,120
1,62,58,0
1,62,0,70
1,62,50,0
1,62,0,25
1,63,50,0
1,63,0,25
1,62,62,0
1,62,0,360
1,57,60,0
1,57,0,120
1,58,62,0
1,58,0,60
1,61,63,60
1,61,0,60
1,62,64,60
1,62,0,60
1,63,66,60
1,63,0,60
1,65,67,60
1,65,0,60
1,66,68,60
1,66,0,60
1,70,70,60
1,70,0,60
1,69,68,60
1,69,0,60
1,69,64,40
1,69,0,20
1,72,72,0
1,72,0,360
1,70,67,0
1,70,0,90
1,70,61,10
1,70,0,20
1,74,72,0
1,74,0,60
1,69,64,60
1,69,0,60
1,70,60,40
1,70,0,20
1,74,73,0
1,74,0,60
1,69,62,60
1,69,0,60
1,69,59,40
1,69,0,20
1,74,70,0
1,74,0,120
1,62,64,0
1,62,0,240
1,67,61,0
1,67,0,90
1,62,61,10
1,62,0,20
1,67,70,0
1,67,0,60
1,61,63,60
1,61,0,60
1,62,57,40
1,62,0,20
1,67,68,0
1,67,0,60
1,61,62,60
1,61,0,60
1,62,58,40
1,62,0,20
1,67,68,0
1,57,52,120
1,67,0,240
1,66,54,0
1,66,0,120
1,57,0,0
1,62,49,120
1,62,0,40
1,63,49,0
1,63,0,40
1,62,49,0
1,62,0,40
1,61,57,0
1,61,0,180
1,62,55,0
1,62,0,60
1,66,66,0
1,66,0,30
1,68,62,30
1,68,0,30
1,69,64,30
1,69,0,30
1,73,67,30
1,73,0,30
1,74,69,30
1,74,0,240
1,79,66,120
1,79,0,60
1,79,58,0
1,79,0,20
1,81,58,0
1,81,0,20
1,79,58,0
1,79,0,20
1,78,67,0
1,78,0,180
1,79,63,0
1,79,0,60
1,86,74,0
1,86,0,120
1,74,64,0
1,74,0,240
1,62,40,0
1,62,0,120
1,62,52,120
1,62,0,40
1,63,52,0
1,63,0,40
1,62,52,0
1,62,0,40
1,61,61,0
1,61,0,180
1,62,57,0
1,62,0,60
1,66,64,0
1,66,0,30
1,68,61,30
1,68,0,30
1,69,64,30
1,69,0,30
1,73,68,30
1,73,0,30
1,74,73,30
1,74,0,240
1,79,64,120
1,79,0,60
1,79,59,0
1,79,0,20
1,81,59,0
1,81,0,20
1,79,59,0
1,79,0,20
1,78,65,0
1,78,0,180
1,79,64,0
1,79,0,60
1,86,76,0
1,86,0,120
1,74,54,0
1,74,0,240
1,62,35,0
1,62,0,120
1,79,64,120
1,79,0,60
1,79,59,0
1,79,0,20
1,81,59,0
1,81,0,20
1,79,60,0
1,79,0,20
1,78,65,0
1,78,0,180
1,79,65,0
1,79,0,60
1,86,77,0
1,86,0,120
1,74,64,0
1,74,0,240
1,62,41,0
1,62,0,120
1,73,63,120
1,73,0,240
1,61,41,0
1,61,0,120
1,74,64,120
1,74,0,240
1,62,41,0
1,62,0,120
1,73,59,120
1,73,0,240
1,61,41,0
1,61,0,120
1,74,57,120
1,74,0,240
1,62,39,0
1,62,0,120
1,74,55,120
1,74,0,240
1,62,38,0
1,62,0,118
1,67,56,242
1,67,0,60
1,67,49,60
1,67,0,40
1,69,49,0
1,69,0,40
1,67,48,0
1,67,0,40
1,66,61,0
1,66,0,360
1,69,53,0
1,69,0,120
1,67,58,0
1,67,0,120
1,70,62,0
1,70,0,120
1,74,66,0
1,74,0,120
1,78,68,0
1,78,0,120
1,79,68,0
1,79,0,360
1,78,64,0
1,78,0,120
1,74,62,0
1,74,0,240
1,58,37,0
1,55,37,0
1,62,41,0
1,62,0,240
1,55,0,0
1,58,0,0
1,57,38,240
1,60,42,0
1,62,42,0
1,62,0,240
1,60,0,0
1,57,0,0
1,58,42,240
1,62,49,0
1,62,0,240
1,58,0,0
1,57,38,240
1,60,38,0
1,62,42,0
1,62,0,240
1,60,0,0
1,57,0,0
1,67,56,240
1,67,0,60
1,67,52,60
1,67,0,40
1,69,52,0
1,69,0,40
1,67,52,0
1,67,0,40
1,66,61,0
1,66,0,360
1,69,53,0
1,69,0,120
1,67,54,0
1,67,0,120
1,70,57,0
1,70,0,120
1,74,60,0
1,74,0,120
1,78,63,0
1,78,0,120
1,79,66,0
1,79,0,360
1,77,57,0
1,77,0,120
1,77,56,0
1,77,0,240
1,75,52,0
1,72,46,0
1,67,40,0
1,67,0,240
1,72,0,0
1,75,0,0
1,74,60,0
1,74,0,240
1,67,41,0
1,72,41,0
1,72,0,240
1,67,0,0
1,72,56,0
1,72,0,90
1,66,49,30
1,66,0,90
1,67,54,30
1,67,0,90
1,69,50,30
1,69,0,90
1,60,37,30
1,70,46,0
1,66,37,6
1,70,0,354
1,69,48,0
1,69,0,120
1,60,0,0
1,62,36,0
1,67,42,0
1,58,35,0
1,66,0,6
1,62,0,234
1,67,0,0
1,58,0,0
1,67,46,0
1,67,0,60
1,67,41,60
1,67,0,40
1,69,41,0
1,69,0,40
1,67,41,0
1,67,0,40
1,66,48,0
1,66,0,360
1,69,40,0
1,69,0,120
1,67,42,0
1,67,0,120
1,70,46,0
1,70,0,120
1,74,49,0
1,74,0,120
1,78,50,0
1,78,0,120
1,79,55,0
1,79,0,360
1,78,50,0
1,78,0,120
1,74,45,0
1,74,0,240
1,62,36,0
1,55,29,0
1,58,29,0
1,58,0,120
1,55,0,0
1,62,0,0
1,60,33,360
1,57,28,0
1,62,33,0
1,62,0,120
1,57,0,0
1,60,0,0
1,55,30,360
1,58,33,0
1,62,36,0
1,62,0,120
1,58,0,0
1,55,0,0
1,62,33,360
1,57,28,0
1,60,28,0
1,60,0,120
1,57,0,0
1,62,0,0
1,62,33,360
1,58,28,0
1,58,0,120
1,62,0,0
1,57,25,360
1,62,28,0
1,60,25,0
1,60,0,120
1,62,0,0
1,57,0,0
1,58,28,360
1,62,33,0
1,62,0,120
1,58,0,0
1,62,28,360
1,57,25,0
1,60,25,0
1,60,0,120
1,57,0,0
1,62,0,0
1,62,29,360
1,58,24,0
1,55,24,0
1,55,0,480
1,58,0,0
1,62,0,0
1,62,26,0
1,55,22,0
1,58,22,0
1,58,0,480
1,55,0,0
1,62,0,0
1,58,20,0
1,55,20,0
1,62,25,0
1,62,0,480
1,55,0,0
1,58,0,0
1,58,18,0
1,62,23,0
1,55,18,0
1,55,0,240
1,62,0,0
1,58,0,0
2,62,45,1
2,58,40,0
2,55,38,226
2,58,0,240
2,62,0,0
2,63,45,0
2,60,40,0
2,55,0,141
2,55,33,0
2,60,0,240
2,63,0,0
2,62,45,0
2,58,40,0
2,55,0,141
2,55,36,0
2,58,0,240
2,62,0,0
2,62,45,0
2,57,40,0
2,60,45,0
2,55,0,113
2,55,33,0
2,62,0,240
2,60,0,0
2,57,0,0
2,62,45,0
2,58,40,0
2,55,0,202
2,55,38,0
2,58,0,240
2,62,0,0
2,60,38,0
2,63,42,0
2,55,0,167
2,55,33,0
2,63,0,240
2,60,0,0
2,62,49,0
2,58,42,0
2,55,0,183
2,55,40,0
2,58,0,240
2,62,0,0
2,60,39,0
2,57,33,0
2,62,45,0
2,55,0,120
2,55,34,0
2,60,0,240
2,62,0,0
2,57,0,0
2,58,34,0
2,62,38,0
2,62,0,200
2,58,0,0
2,55,0,2
2,43,46,0
2,43,0,60
2,43,39,60
2,43,0,40
2,45,39,0
2,45,0,40
2,43,39,0
2,43,0,40
2,42,49,0
2,42,0,275
2,45,47,0
2,45,0,120
2,43,46,0
2,46,49,69
2,43,0,20
2,50,51,100
2,46,0,20
2,54,54,100
2,50,0,20
2,55,57,100
2,54,0,9
2,55,0,240
2,54,44,0
2,54,0,120
2,50,40,0
2,62,38,161
2,55,33,0
2,58,33,0
2,58,0,240
2,50,0,0
2,62,0,0
2,55,0,0
2,48,45,0
2,54,33,167
2,62,38,0
2,57,33,0
2,57,0,240
2,48,0,0
2,54,0,0
2,62,0,0
2,46,49,0
2,46,0,177
2,62,40,0
2,58,36,0
2,55,36,0
2,55,0,240
2,58,0,0
2,62,0,0
2,47,53,0
2,47,0,166
2,59,34,0
2,55,34,0
2,62,39,0
2,62,0,240
2,55,0,0
2,59,0,0
2,48,52,0
2,54,52,117
2,48,0,120
2,55,51,0
2,54,0,20
2,60,54,52
2,55,0,20
2,65,57,100
2,60,0,9
2,55,36,137
2,60,40,0
2,65,0,120
2,63,51,0
2,63,0,120
2,60,0,0
2,55,0,0
2,58,36,0
2,55,36,0
2,62,40,0
2,50,45,240
2,62,0,195
2,58,0,0
2,55,0,0
2,62,35,160
2,62,0,240
2,50,0,0
2,43,28,0
2,50,36,0
2,50,0,196
2,43,0,0
2,66,43,232
2,63,37,0
2,58,35,202
2,63,0,240
2,66,0,0
2,65,43,0
2,62,37,0
2,58,0,240
2,58,36,0
2,62,0,240
2,65,0,0
2,63,43,0
2,60,37,0
2,58,0,240
2,58,34,0
2,60,0,240
2,63,0,0
2,65,47,0
2,62,43,0
2,58,0,194
2,58,39,0
2,62,0,240
2,65,0,0
2,62,47,0
2,72,54,0
2,66,47,0
2,58,0,226
2,58,49,0
2,62,0,240
2,66,0,0
2,72,0,0
2,62,39,0
2,70,47,0
2,67,43,0
2,58,0,240
2,58,37,0
2,62,0,208
2,67,0,0
2,70,0,0
2,60,42,0
2,63,47,0
2,58,0,166
2,58,34,0
2,63,0,240
2,60,0,0
2,62,49,0
2,58,0,183
2,58,32,0
2,62,0,240
2,66,50,0
2,63,45,0
2,58,0,171
2,58,36,0
2,63,0,240
2,66,0,0
2,62,37,0
2,65,43,0
2,58,0,240
2,58,36,0
2,65,0,240
2,62,0,0
2,60,37,0
2,63,43,0
2,58,0,240
2,58,34,0
2,63,0,240
2,60,0,0
2,62,43,0
2,65,47,0
2,58,0,194
2,58,39,0
2,65,0,240
2,62,0,0
2,66,45,0
2,72,51,0
2,62,45,0
2,58,0,231
2,58,49,0
2,66,0,240
2,62,0,0
2,72,0,0
2,62,43,0
2,67,43,0
2,70,47,0
2,58,0,194
2,58,39,0
2,70,0,238
2,62,0,2
2,67,0,0
2,50,41,0
2,54,41,0
2,60,46,0
2,58,0,235
2,46,37,0
2,50,0,240
2,60,0,0
2,54,0,0
2,58,46,0
2,50,41,0
2,55,41,0
2,46,0,218
2,46,37,0
2,58,0,240
2,55,0,0
2,50,0,0
2,51,39,0
2,54,45,0
2,46,0,158
2,46,39,0
2,54,0,76
2,51,0,0
2,53,43,0
2,50,37,0
2,46,0,240
2,46,36,0
2,50,0,240
2,53,0,0
2,51,43,0
2,48,37,0
2,46,0,240
2,46,36,0
2,48,0,240
2,51,0,0
2,53,47,0
2,50,43,0
2,46,0,194
2,46,39,0
2,50,0,240
2,53,0,0
2,54,45,0
2,60,51,0
2,50,45,0
2,46,0,237
2,46,49,0
2,54,0,240
2,50,0,0
2,60,0,0
2,50,43,0
2,55,43,0
2,58,47,0
2,46,0,194
2,46,39,0
2,50,0,240
2,58,0,0
2,55,0,0
2,52,41,0
2,57,46,0
2,46,0,229
2,45,37,0
2,45,0,240
2,57,0,0
2,52,0,0
2,50,45,0
2,38,34,237
2,38,0,240
2,50,0,0
2,58,41,0
2,55,37,0
2,50,41,180
2,50,0,19
2,55,0,0
2,58,0,0
2,60,41,0
2,57,41,0
2,50,41,240
2,50,0,209
2,57,0,0
2,60,0,0
2,58,43,0
2,62,43,0
2,50,37,191
2,50,0,211
2,62,0,0
2,58,0,0
2,57,52,0
2,60,52,0
2,50,40,187
2,50,0,240
2,60,0,0
2,57,0,0
2,55,37,0
2,58,41,0
2,50,41,180
2,50,0,19
2,58,0,0
2,55,0,0
2,57,41,0
2,60,41,0
2,50,41,240
2,50,0,209
2,60,0,0
2,57,0,0
2,62,43,0
2,58,43,0
2,50,38,169
2,50,0,211
2,58,0,0
2,62,0,0
2,60,43,0
2,57,43,0
2,50,35,164
2,50,0,240
2,57,0,0
2,60,0,0
2,55,35,0
2,58,38,0
2,50,38,180
2,50,0,183
2,58,0,0
2,55,0,0
2,57,53,0
2,60,53,0
2,50,41,126
2,50,0,240
2,60,0,0
2,57,0,0
2,55,46,0
2,58,46,0
2,50,38,149
2,50,0,240
2,58,0,0
2,55,0,0
2,54,45,0
2,57,45,0
2,50,38,154
2,50,0,240
2,57,0,0
2,54,0,0
2,55,47,0
2,58,47,0
2,50,38,166
2,50,0,240
2,58,0,0
2,55,0,0
