track,note,velocity,time
1,74,40,0
1,76,40,0
1,79,40,0
1,72,40,0
1,79,40,0
1,83,40,0
1,81,40,0
1,67,40,0
1,69,40,0
1,72,40,0
1,72,40,0
1,65,40,0
1,76,40,0
1,74,40,0
1,60,40,0
1,62,40,0
1,65,50,0
1,60,60,0
1,62,50,0
1,66,60,0
1,71,60,0
1,74,60,0
1,60,60,0
1,65,60,0
1,69,60,0
1,67,40,0
1,64,40,0
1,57,40,0
1,59,40,0
1,60,40,0
1,64,40,0
1,67,50,0
1,60,60,0
1,64,60,0
1,71,55,0
1,69,60,0
1,67,60,0
1,53,60,0
1,60,60,0
1,64,60,0
1,60,50,0
1,57,50,0
1,53,40,0
1,60,40,0
1,57,40,0
1,62,40,0
1,59,40,0
1,60,40,0
1,64,40,0
1,67,50,0
1,60,60,0
1,64,60,0
1,71,55,0
1,72,60,0
1,69,60,0
1,60,60,0
1,67,60,0
1,62,50,0
1,62,40,0
1,59,40,0
1,53,40,0
1,60,40,0
1,64,40,0
1,67,50,0
1,60,60,0
1,64,60,0
1,69,55,0
1,72,55,0
1,71,60,0
1,74,60,0
1,72,60,0
1,76,60,0
1,69,60,0
1,64,60,0
1,74,60,0
1,71,60,0
1,72,60,0
1,69,60,0
1,71,55,0
1,68,55,0
1,63,55,0
1,64,50,0
1,69,50,0
1,67,45,0
1,66,40,0
1,72,40,0
1,65,40,0
1,60,40,0
1,59,40,0
1,60,40,0
1,57,40,0
1,59,40,0
1,62,40,0
1,60,40,0
1,64,40,0
1,67,50,0
1,60,60,0
1,64,60,0
1,71,55,0
1,69,60,0
1,67,60,0
1,53,60,0
1,60,60,0
1,64,60,0
1,60,50,0
1,57,50,0
1,53,40,0
1,60,40,0
1,57,40,0
1,62,40,0
1,59,40,0
1,60,40,0
1,64,40,0
1,67,50,0
1,60,60,0
1,64,60,0
1,71,55,0
1,72,60,0
1,69,60,0
1,60,60,0
1,67,60,0
1,62,50,0
1,62,40,0
1,59,40,0
1,53,40,0
1,60,40,0
1,64,40,0
1,67,50,0
1,60,60,0
1,64,60,0
1,69,55,0
1,72,55,0
1,71,60,0
1,74,60,0
1,72,60,0
1,76,60,0
1,69,60,0
1,64,60,0
1,74,60,0
1,71,60,0
1,72,60,0
1,69,60,0
1,71,55,0
1,68,55,0
1,63,55,0
1,64,50,0
1,69,50,0
1,67,45,0
1,64,40,0
1,62,40,0
1,60,40,0
1,57,40,0
1,65,40,0
1,69,40,0
1,74,40,0
1,64,40,0
1,67,40,0
1,72,40,0
1,74,40,0
1,62,50,0
1,75,60,0
1,63,60,0
1,64,60,0
1,69,60,24
1,74,60,24
1,76,60,24
1,74,60,24
1,62,60,0
1,60,60,0
1,62,60,24
1,67,60,24
1,72,60,24
1,71,50,504
1,59,50,0
1,68,50,0
1,56,50,0
1,60,50,0
1,64,50,0
1,66,40,0
1,54,40,0
1,64,40,0
1,60,40,0
1,64,40,0
1,60,40,0
1,66,40,0
1,62,40,0
1,68,40,0
1,69,40,0
1,62,40,0
1,66,40,0
1,67,45,0
1,69,50,0
1,71,55,0
1,72,60,0
1,69,60,0
1,64,60,0
1,60,60,0
1,72,40,0
1,60,40,0
1,61,40,0
1,73,60,0
1,62,60,0
1,64,60,24
1,67,60,24
1,74,60,24
1,60,60,24
1,72,60,0
1,58,60,0
1,60,60,24
1,66,60,24
1,70,60,24
1,57,50,504
1,69,50,0
1,58,50,0
1,62,50,0
1,66,50,0
1,58,40,0
1,62,40,0
1,64,40,0
1,58,40,0
1,62,40,0
1,60,40,0
1,64,40,0
1,66,40,0
1,67,40,0
1,60,40,0
1,55,50,0
1,64,50,0
1,60,60,0
1,54,60,0
1,62,60,0
1,66,60,0
1,67,60,0
1,65,50,384
1,60,50,0
1,60,40,0
1,57,40,0
1,59,40,0
1,62,40,0
1,60,40,0
1,64,40,0
1,67,50,0
1,60,60,0
1,64,60,0
1,71,55,0
1,69,60,0
1,67,60,0
1,53,60,0
1,60,60,0
1,64,60,0
1,60,50,0
1,57,50,0
1,53,40,0
1,60,40,0
1,57,40,0
1,62,40,0
1,59,40,0
1,60,40,0
1,64,40,0
1,67,50,0
1,60,60,0
1,64,60,0
1,71,55,0
1,72,60,0
1,69,60,0
1,60,60,0
1,67,60,0
1,62,50,0
1,62,40,0
1,59,40,0
1,53,40,0
1,60,40,0
1,64,40,0
1,67,50,0
1,60,60,0
1,64,60,0
1,69,55,0
1,72,55,0
1,71,60,0
1,74,60,0
1,72,60,0
1,76,60,0
1,69,60,0
1,64,60,0
1,74,60,0
1,71,60,0
1,72,60,0
1,69,60,0
1,71,55,0
1,68,55,0
1,63,55,0
1,64,50,0
1,69,50,0
1,67,40,0
1,64,40,0
1,62,40,0
1,64,40,0
1,60,40,0
1,64,50,0
1,59,50,0
1,64,60,0
1,58,60,0
1,65,70,0
1,69,70,0
1,74,70,0
1,62,60,384
1,60,50,0
1,59,40,0
1,60,40,0
1,64,40,0
1,67,40,0
1,72,40,0
1,79,50,0
1,83,60,0
1,72,70,0
1,76,70,0
1,81,70,0
1,79,70,0
1,64,70,0
1,69,70,0
1,76,70,0
1,72,60,0
1,67,40,0
1,64,40,0
1,57,40,0
1,62,40,0
1,59,40,0
1,60,40,0
1,64,40,0
1,67,50,0
1,60,60,0
1,64,60,0
1,71,55,0
1,69,60,0
1,67,60,0
1,53,60,0
1,60,60,0
1,64,60,0
1,60,50,0
1,57,50,0
1,53,40,0
1,60,40,0
1,57,40,0
1,62,40,0
1,59,40,0
1,60,40,0
1,64,40,0
1,67,50,0
1,60,60,0
1,64,60,0
1,71,55,0
1,72,60,0
1,69,60,0
1,60,60,0
1,67,60,0
1,62,50,0
1,62,40,0
1,59,40,0
1,53,40,0
1,60,40,0
1,64,40,0
1,67,50,0
1,60,60,0
1,64,60,0
1,69,55,0
1,72,55,0
1,71,60,0
1,74,60,0
1,72,60,0
1,76,60,0
1,69,60,0
1,64,60,0
1,74,60,0
1,71,60,0
1,72,60,0
1,69,60,0
1,71,55,0
1,68,55,0
1,63,55,0
1,64,50,0
1,69,50,0
1,67,45,0
1,66,40,0
1,72,40,0
1,65,40,0
1,60,40,0
1,59,40,0
1,60,40,0
1,57,40,0
1,59,40,0
1,62,40,0
1,60,40,0
1,64,40,0
1,67,50,0
1,60,60,0
1,64,60,0
1,71,55,0
1,69,60,0
1,67,60,0
1,53,60,0
1,60,60,0
1,64,60,0
1,60,50,0
1,57,50,0
1,53,40,0
1,60,40,0
1,57,40,0
1,62,40,0
1,59,40,0
1,60,40,0
1,64,40,0
1,67,50,0
1,60,60,0
1,64,60,0
1,71,55,0
1,72,60,0
1,69,60,0
1,60,60,0
1,67,60,0
1,62,50,0
1,62,40,0
1,59,40,0
1,53,40,0
1,60,40,0
1,64,40,0
1,67,50,0
1,60,60,0
1,64,60,0
1,69,55,0
1,72,55,0
1,71,60,0
1,74,60,0
1,72,60,0
1,76,60,0
1,69,60,0
1,64,60,0
1,74,60,0
1,71,60,0
1,72,60,0
1,69,60,0
1,71,55,0
1,68,55,0
1,63,55,0
1,64,50,0
1,69,50,0
1,67,45,0
1,64,40,0
1,62,40,0
1,60,40,0
1,57,40,0
1,65,40,0
1,69,40,0
1,74,40,0
1,64,40,0
1,67,40,0
1,72,40,0
1,74,40,0
1,62,50,0
1,75,60,0
1,63,60,0
1,64,60,0
1,69,60,24
1,74,60,24
1,76,60,24
1,74,60,24
1,62,60,0
1,60,60,0
1,62,60,24
1,67,60,24
1,72,60,24
1,71,50,504
1,59,50,0
1,68,50,0
1,56,50,0
1,60,50,0
1,64,50,0
1,66,40,0
1,54,40,0
1,64,40,0
1,60,40,0
1,64,40,0
1,60,40,0
1,66,40,0
1,62,40,0
1,68,40,0
1,69,40,0
1,62,40,0
1,66,40,0
1,67,45,0
1,69,50,0
1,71,55,0
1,72,60,0
1,69,60,0
1,64,60,0
1,60,60,0
1,72,40,0
1,60,40,0
1,61,40,0
1,73,60,0
1,62,60,0
1,64,60,24
1,67,60,24
1,74,60,24
1,60,60,24
1,72,60,0
1,58,60,0
1,60,60,24
1,66,60,24
1,70,60,24
1,57,50,504
1,69,50,0
1,58,50,0
1,62,50,0
1,66,50,0
1,58,40,0
1,62,40,0
1,64,40,0
1,58,40,0
1,62,40,0
1,60,40,0
1,64,40,0
1,66,40,0
1,67,40,0
1,60,40,0
1,55,50,0
1,64,50,0
1,60,60,0
1,54,60,0
1,62,60,0
1,66,60,0
1,67,60,0
1,65,50,384
1,60,50,0
1,60,40,0
1,57,40,0
1,59,40,0
1,62,40,0
1,60,40,0
1,64,40,0
1,67,50,0
1,60,60,0
1,64,60,0
1,71,55,0
1,69,60,0
1,67,60,0
1,53,60,0
1,60,60,0
1,64,60,0
1,60,50,0
1,57,50,0
1,53,40,0
1,60,40,0
1,57,40,0
1,62,40,0
1,59,40,0
1,60,40,0
1,64,40,0
1,67,50,0
1,60,60,0
1,64,60,0
1,71,55,0
1,72,60,0
1,69,60,0
1,60,60,0
1,67,60,0
1,62,50,0
1,62,40,0
1,59,40,0
1,53,40,0
1,60,40,0
1,64,40,0
1,67,50,0
1,60,60,0
1,64,60,0
1,69,55,0
1,72,55,0
1,71,60,0
1,74,60,0
1,72,60,0
1,76,60,0
1,69,60,0
1,64,60,0
1,74,60,0
1,71,60,0
1,72,60,0
1,69,60,0
1,71,55,0
1,68,55,0
1,63,55,0
1,64,50,0
1,69,50,0
1,67,40,0
1,64,40,0
1,62,40,0
1,64,40,0
1,60,40,0
1,64,50,0
1,59,50,0
1,64,60,0
1,58,60,0
1,65,70,0
1,69,70,0
1,74,70,0
1,62,60,384
1,60,50,0
1,59,40,0
1,60,40,0
1,64,40,0
1,67,40,0
1,72,40,0
1,79,50,0
1,83,60,0
1,72,70,0
1,76,70,0
1,81,70,0
1,79,70,0
1,64,70,0
1,69,70,0
1,76,70,0
1,72,60,0
1,67,40,0
1,72,40,24
1,79,40,24
2,60,40,0
2,67,40,0
2,59,40,0
2,57,40,0
2,64,40,0
2,53,40,0
2,60,40,0
2,52,40,0
2,50,40,0
2,57,40,0
2,46,40,0
2,53,40,0
2,45,50,0
2,44,60,0
2,54,60,0
2,43,50,0
2,50,60,0
2,52,50,0
2,53,40,0
2,55,40,0
2,48,40,0
2,55,50,0
2,45,50,0
2,45,60,0
2,38,60,0
2,43,40,0
2,31,40,0
2,55,50,0
2,48,50,0
2,55,60,0
2,45,60,0
2,53,60,0
2,45,60,0
2,38,60,0
2,43,40,0
2,31,40,0
2,55,40,0
2,48,40,0
2,47,40,0
2,55,50,0
2,45,50,0
2,43,60,0
2,38,60,0
2,42,60,0
2,52,60,192
2,60,60,0
2,60,50,0
2,54,50,0
2,50,50,0
2,31,40,384
2,52,50,0
2,62,40,0
2,60,45,0
2,59,53,0
2,51,60,0
2,57,60,0
2,38,60,0
2,50,60,0
2,55,60,0
2,53,40,0
2,41,40,0
2,31,40,384
2,55,40,0
2,48,40,0
2,55,50,0
2,45,50,0
2,45,60,0
2,38,60,0
2,43,40,0
2,31,40,0
2,55,50,0
2,48,50,0
2,55,60,0
2,45,60,0
2,53,60,0
2,45,60,0
2,38,60,0
2,43,40,0
2,31,40,0
2,55,40,0
2,48,40,0
2,47,40,0
2,55,50,0
2,45,50,0
2,43,60,0
2,38,60,0
2,42,60,0
2,52,60,192
2,60,60,0
2,60,50,0
2,54,50,0
2,50,50,0
2,31,40,384
2,55,40,0
2,43,50,0
2,53,53,0
2,59,60,0
2,38,60,0
2,48,60,0
2,60,60,0
2,55,50,0
2,41,40,0
2,60,40,0
2,31,40,0
2,47,60,0
2,54,60,0
2,52,60,0
2,40,60,0
2,45,60,0
2,40,40,0
2,47,40,0
2,56,40,0
2,54,40,0
2,52,50,0
2,40,60,0
2,45,60,0
2,52,60,192
2,56,50,0
2,59,45,0
2,57,40,0
2,45,60,384
2,52,60,0
2,50,60,0
2,38,60,0
2,43,50,0
2,54,55,0
2,52,40,0
2,43,40,0
2,45,40,0
2,54,40,0
2,55,40,0
2,38,50,0
2,52,40,0
2,50,50,0
2,43,60,0
2,50,60,384
2,53,45,0
2,55,40,0
2,48,40,0
2,55,50,0
2,45,50,0
2,45,60,0
2,38,60,0
2,43,40,0
2,31,40,0
2,55,50,0
2,48,50,0
2,55,60,0
2,45,60,0
2,53,60,0
2,45,60,0
2,38,60,0
2,43,40,0
2,31,40,0
2,55,40,0
2,48,40,0
2,47,40,0
2,55,50,0
2,45,50,0
2,43,60,0
2,38,60,0
2,42,60,0
2,52,60,192
2,60,60,0
2,60,50,0
2,54,50,0
2,50,50,0
2,31,40,384
2,55,40,0
2,55,50,0
2,49,50,0
2,50,70,0
2,57,70,0
2,53,40,0
2,43,40,0
2,48,40,0
2,57,50,0
2,67,50,0
2,54,80,0
2,60,80,0
2,53,40,0
2,41,40,0
2,55,40,0
2,48,40,0
2,55,50,0
2,45,50,0
2,45,60,0
2,38,60,0
2,43,40,0
2,31,40,0
2,55,50,0
2,48,50,0
2,55,60,0
2,45,60,0
2,53,60,0
2,45,60,0
2,38,60,0
2,43,40,0
2,31,40,0
2,55,40,0
2,48,40,0
2,47,40,0
2,55,50,0
2,45,50,0
2,43,60,0
2,38,60,0
2,42,60,0
2,52,60,192
2,60,60,0
2,60,50,0
2,54,50,0
2,50,50,0
2,31,40,384
2,52,50,0
2,62,40,0
2,60,45,0
2,59,53,0
2,51,60,0
2,57,60,0
2,38,60,0
2,50,60,0
2,55,60,0
2,53,40,0
2,41,40,0
2,31,40,384
2,55,40,0
2,48,40,0
2,55,50,0
2,45,50,0
2,45,60,0
2,38,60,0
2,43,40,0
2,31,40,0
2,55,50,0
2,48,50,0
2,55,60,0
2,45,60,0
2,53,60,0
2,45,60,0
2,38,60,0
2,43,40,0
2,31,40,0
2,55,40,0
2,48,40,0
2,47,40,0
2,55,50,0
2,45,50,0
2,43,60,0
2,38,60,0
2,42,60,0
2,52,60,192
2,60,60,0
2,60,50,0
2,54,50,0
2,50,50,0
2,31,40,384
2,55,40,0
2,43,50,0
2,53,53,0
2,59,60,0
2,38,60,0
2,48,60,0
2,60,60,0
2,55,50,0
2,41,40,0
2,60,40,0
2,31,40,0
2,47,60,0
2,54,60,0
2,52,60,0
2,40,60,0
2,45,60,0
2,40,40,0
2,47,40,0
2,56,40,0
2,54,40,0
2,52,50,0
2,40,60,0
2,45,60,0
2,52,60,192
2,56,50,0
2,59,45,0
2,57,40,0
2,45,60,384
2,52,60,0
2,50,60,0
2,38,60,0
2,43,50,0
2,54,55,0
2,52,40,0
2,43,40,0
2,45,40,0
2,54,40,0
2,55,40,0
2,38,50,0
2,52,40,0
2,50,50,0
2,43,60,0
2,50,60,384
2,53,45,0
2,55,40,0
2,48,40,0
2,55,50,0
2,45,50,0
2,45,60,0
2,38,60,0
2,43,40,0
2,31,40,0
2,55,50,0
2,48,50,0
2,55,60,0
2,45,60,0
2,53,60,0
2,45,60,0
2,38,60,0
2,43,40,0
2,31,40,0
2,55,40,0
2,48,40,0
2,47,40,0
2,55,50,0
2,45,50,0
2,43,60,0
2,38,60,0
2,42,60,0
2,52,60,192
2,60,60,0
2,60,50,0
2,54,50,0
2,50,50,0
2,31,40,384
2,55,40,0
2,55,50,0
2,49,50,0
2,50,70,0
2,57,70,0
2,53,40,0
2,43,40,0
2,48,40,0
2,57,50,0
2,67,50,0
2,60,80,0
2,53,80,0
2,62,40,0
2,48,40,0
2,55,40,24
2,64,40,24
2,36,40,0
2,24,40,0
3,64,40,6144
3,67,50,0
3,71,55,0
3,69,60,0
3,67,60,0
3,64,60,0
3,60,50,0
3,60,40,0
3,62,40,0
3,64,40,0
3,67,50,0
3,71,55,0
3,72,60,0
3,69,60,0
3,67,60,0
3,62,50,0
3,62,40,0
3,64,40,0
3,67,50,0
3,72,55,0
3,74,60,0
3,76,60,0
3,74,60,0
3,72,60,0
3,71,55,0
3,69,50,0
3,67,45,0
3,72,40,0
