track,note,velocity,time
1,52,80,1140
1,56,79,0
1,59,80,0
1,52,55,288
1,61,68,108
1,56,71,0
1,52,63,0
1,56,67,136
1,61,68,0
1,52,60,4
1,59,76,16
1,52,50,492
1,61,79,100
1,56,83,0
1,52,71,0
1,61,81,120
1,56,79,0
1,52,71,0
1,56,57,12
1,52,63,4
1,59,82,0
1,52,57,452
1,61,85,120
1,52,73,0
1,56,87,0
1,61,75,132
1,56,75,0
1,52,66,0
1,56,62,32
1,52,65,0
1,59,88,0
1,61,77,172
1,57,82,0
1,52,71,0
1,64,80,0
1,61,72,72
1,57,81,0
1,64,81,0
1,52,73,0
1,56,75,80
1,59,77,0
1,52,74,0
1,52,63,152
1,56,81,84
1,61,77,0
1,52,65,0
1,61,72,132
1,56,77,0
1,52,66,0
1,56,62,20
1,52,43,0
1,59,87,0
1,52,54,384
1,61,79,108
1,56,79,0
1,52,66,0
1,61,68,104
1,56,67,0
1,52,55,0
1,59,73,48
1,52,65,452
1,56,85,112
1,61,87,0
1,52,66,0
1,61,69,120
1,56,68,0
1,52,60,0
1,59,82,28
1,56,64,4
1,52,50,0
1,52,74,464
1,61,83,100
1,56,85,4
1,52,70,0
1,61,72,104
1,56,69,0
1,52,59,0
1,56,51,52
1,59,78,0
1,52,61,292
1,59,58,0
1,56,48,0
1,56,69,96
1,52,58,0
1,61,77,0
1,61,77,96
1,56,79,0
1,52,61,0
1,59,76,12
1,61,83,80
1,56,94,0
1,52,81,0
1,59,82,56
1,56,62,0
1,52,62,0
1,61,69,52
1,57,81,0
1,54,71,0
1,57,80,112
1,64,85,0
1,61,68,0
1,54,67,0
1,57,70,52
1,54,68,0
1,61,64,0
1,64,63,0
1,61,75,272
1,57,90,0
1,54,85,0
1,64,84,0
1,57,74,88
1,61,55,0
1,54,61,0
1,64,55,0
1,59,77,96
1,56,71,0
1,52,80,0
1,52,61,48
1,61,84,100
1,56,85,0
1,52,78,0
1,61,69,120
1,56,76,0
1,52,79,0
1,56,79,4
1,50,79,0
1,59,87,0
1,59,78,92
1,56,79,0
1,62,94,0
1,56,72,32
1,62,84,0
1,59,73,0
1,56,81,64
1,61,83,0
1,52,75,0
1,64,98,0
1,56,79,92
1,61,77,0
1,52,80,0
1,64,81,4
1,61,60,52
1,64,62,0
1,57,87,0
1,54,77,0
1,54,50,132
1,61,81,100
1,57,92,0
1,54,63,0
1,64,85,0
1,61,62,76
1,54,51,0
1,64,65,0
1,57,70,0
1,59,87,76
1,56,83,0
1,52,84,0
1,56,85,44
1,61,89,0
1,64,92,0
1,61,83,60
1,57,96,0
1,64,88,0
1,61,71,56
1,57,81,4
1,64,76,0
1,52,81,0
1,59,84,88
1,56,85,0
1,52,71,0
1,52,63,144
1,57,83,88
1,61,83,0
1,52,70,0
1,57,81,100
1,61,79,0
1,52,69,8
1,56,52,32
1,59,85,0
1,52,55,0
1,52,98,348
1,57,88,0
1,61,72,0
1,64,84,0
1,61,67,140
1,57,76,0
1,64,74,0
1,52,80,4
1,56,75,104
1,59,77,0
1,52,74,0
1,52,63,152
1,56,81,84
1,61,77,0
1,52,65,0
1,61,72,132
1,56,77,0
1,52,66,0
1,56,62,20
1,52,43,0
1,59,87,0
1,52,54,384
1,61,79,108
1,56,79,0
1,52,66,0
1,61,68,104
1,56,67,0
1,52,55,0
1,59,73,48
1,52,65,452
1,56,85,112
1,61,87,0
1,52,66,0
1,61,69,120
1,56,68,0
1,52,60,0
1,59,82,28
1,56,64,4
1,52,50,0
1,52,74,464
1,61,83,100
1,56,85,4
1,52,70,0
1,61,72,104
1,56,69,0
1,52,59,0
1,56,51,52
1,59,78,0
1,52,61,292
1,59,58,0
1,56,48,0
1,56,69,96
1,52,58,0
1,61,77,0
1,61,77,96
1,56,79,0
1,52,61,0
1,59,76,12
1,61,83,80
1,56,94,0
1,52,81,0
1,59,82,56
1,56,62,0
1,52,62,0
1,61,69,52
1,57,81,0
1,54,71,0
1,57,80,112
1,64,85,0
1,61,68,0
1,54,67,0
1,57,70,52
1,54,68,0
1,61,64,0
1,64,63,0
1,61,75,272
1,57,90,0
1,54,85,0
1,64,84,0
1,57,74,88
1,61,55,0
1,54,61,0
1,64,55,0
1,59,77,96
1,56,71,0
1,52,80,0
1,52,61,48
1,61,85,100
1,56,85,0
1,52,75,0
1,61,71,120
1,56,71,0
1,52,78,0
1,56,81,4
1,50,79,0
1,59,87,0
1,59,78,92
1,56,79,0
1,62,94,0
1,56,72,32
1,62,84,0
1,59,73,0
1,56,81,64
1,61,83,0
1,52,75,0
1,64,98,0
1,56,79,92
1,61,77,0
1,52,80,0
1,64,81,4
1,61,60,52
1,64,62,0
1,57,87,0
1,54,77,0
1,54,50,132
1,61,81,100
1,57,92,0
1,54,63,0
1,64,85,0
1,61,62,76
1,54,51,0
1,64,65,0
1,57,70,0
1,59,87,76
1,56,83,0
1,52,84,0
1,56,85,44
1,61,89,0
1,64,92,0
1,61,83,60
1,57,96,0
1,64,88,0
1,61,71,56
1,57,81,4
1,64,76,0
1,52,81,0
1,59,84,88
1,56,85,0
1,52,71,0
1,52,63,144
1,57,83,88
1,61,83,0
1,52,70,0
1,57,81,100
1,61,79,0
1,52,69,8
1,56,52,32
1,59,85,0
1,52,55,0
1,52,98,348
1,57,88,0
1,61,72,0
1,64,84,0
1,61,67,140
1,57,76,0
1,64,74,0
1,52,80,4
1,56,75,104
1,59,77,0
1,52,74,0
1,52,63,152
1,56,81,84
1,61,77,0
1,52,65,0
1,61,72,132
1,56,77,0
1,52,66,0
1,56,62,20
1,52,43,0
1,59,87,0
1,52,54,384
1,61,79,108
1,56,79,0
1,52,66,0
1,61,68,104
1,56,67,0
1,52,55,0
1,59,73,48
1,52,65,452
1,56,85,112
1,61,87,0
1,52,66,0
1,61,69,120
1,56,68,0
1,52,60,0
1,59,82,28
1,56,64,4
1,52,50,0
1,52,74,464
1,61,83,100
1,56,85,4
1,52,70,0
1,61,72,104
1,56,69,0
1,52,59,0
1,56,51,52
1,59,78,0
1,52,61,292
1,59,58,0
1,56,48,0
1,56,69,96
1,52,58,0
1,61,77,0
1,61,77,96
1,56,79,0
1,52,61,0
1,59,76,12
1,61,83,80
1,56,94,0
1,52,81,0
1,59,82,56
1,56,62,0
1,52,62,0
1,61,69,52
1,57,81,0
1,54,71,0
1,57,80,112
1,64,85,0
1,61,68,0
1,54,67,0
1,57,70,52
1,54,68,0
1,61,64,0
1,64,63,0
1,61,75,272
1,57,90,0
1,54,85,0
1,64,84,0
1,57,74,88
1,61,55,0
1,54,61,0
1,64,55,0
1,59,77,96
1,56,71,0
1,52,80,0
1,52,61,48
1,61,85,100
1,56,85,0
1,52,75,0
1,61,71,120
1,56,71,0
1,52,78,0
1,56,81,4
1,50,79,0
1,59,87,0
1,59,78,92
1,56,79,0
1,62,94,0
1,56,72,32
1,62,84,0
1,59,73,0
1,56,81,64
1,61,83,0
1,52,75,0
1,64,98,0
1,56,79,92
1,61,77,0
1,52,80,0
1,64,81,4
1,61,60,52
1,64,62,0
1,57,87,0
1,54,77,0
1,54,50,132
1,61,81,100
1,57,92,0
1,54,63,0
1,64,85,0
1,61,62,76
1,54,51,0
1,64,65,0
1,57,70,0
1,59,87,76
1,56,83,0
1,52,84,0
1,56,85,44
1,61,89,0
1,64,92,0
1,61,83,60
1,57,96,0
1,64,88,0
1,61,71,56
1,57,81,4
1,64,76,0
1,52,81,0
1,59,84,88
1,56,85,0
1,52,71,0
1,52,63,144
1,57,83,88
1,61,83,0
1,52,70,0
1,57,81,100
1,61,79,0
1,52,69,8
1,56,52,32
1,59,85,0
1,52,55,0
1,52,98,348
1,57,88,0
1,61,72,0
1,64,84,0
1,61,67,140
1,57,76,0
1,64,74,0
1,52,80,4
1,56,75,104
1,59,77,0
1,52,74,0
1,52,63,152
1,56,81,84
1,61,77,0
1,52,65,0
1,61,72,132
1,56,77,0
1,52,66,0
1,56,62,20
1,52,43,0
1,59,87,0
1,52,54,384
1,61,79,108
1,56,79,0
1,52,66,0
1,61,68,104
1,56,67,0
1,52,55,0
1,59,73,48
1,52,65,452
1,56,85,112
1,61,87,0
1,52,66,0
1,61,69,120
1,56,68,0
1,52,60,0
1,59,82,28
1,56,64,4
1,52,50,0
1,52,74,464
1,61,83,100
1,56,85,4
1,52,70,0
1,61,72,104
1,56,69,0
1,52,59,0
1,56,51,52
1,59,78,0
1,52,61,292
1,59,58,0
1,56,48,0
1,56,69,96
1,52,58,0
1,61,77,0
1,61,77,96
1,56,79,0
1,52,61,0
1,59,76,12
1,61,83,80
1,56,94,0
1,52,81,0
1,59,82,56
1,56,62,0
1,52,62,0
1,61,69,52
1,57,81,0
1,54,71,0
1,57,80,112
1,64,85,0
1,61,68,0
1,54,67,0
1,57,70,52
1,54,68,0
1,61,64,0
1,64,63,0
1,61,75,272
1,57,90,0
1,54,85,0
1,64,84,0
1,57,74,88
1,61,55,0
1,54,61,0
1,64,55,0
1,59,77,96
1,56,71,0
1,52,80,0
1,52,61,48
1,61,85,100
1,56,85,0
1,52,75,0
1,61,71,120
1,56,71,0
1,52,78,0
1,56,81,4
1,50,79,0
1,59,87,0
1,59,78,92
1,56,79,0
1,62,94,0
1,56,72,32
1,62,84,0
1,59,73,0
1,56,81,64
1,61,83,0
1,52,75,0
1,64,98,0
1,56,79,92
1,61,77,0
1,52,80,0
1,64,81,4
1,61,60,52
1,64,62,0
1,57,87,0
1,54,77,0
1,54,50,132
1,61,81,100
1,57,92,0
1,54,63,0
1,64,85,0
1,61,62,76
1,54,51,0
1,64,65,0
1,57,70,0
1,59,87,76
1,56,83,0
1,52,84,0
1,56,85,44
1,61,89,0
1,64,92,0
1,61,83,60
1,57,96,0
1,64,88,0
1,61,71,56
1,57,81,4
1,64,76,0
1,52,81,0
1,59,84,88
1,56,85,0
1,52,71,0
1,52,63,144
1,57,83,88
1,61,83,0
1,52,70,0
1,57,81,100
1,61,79,0
1,52,69,8
1,56,52,32
1,59,85,0
1,52,55,0
1,52,98,348
1,57,88,0
1,61,72,0
1,64,84,0
1,61,67,140
1,57,76,0
1,64,74,0
1,52,80,4
1,56,75,104
1,59,77,0
1,52,74,0
1,52,63,152
1,56,81,84
1,61,77,0
1,52,65,0
1,61,72,132
1,56,77,0
1,52,66,0
1,56,62,20
1,52,43,0
1,59,87,0
1,52,54,384
1,61,79,108
1,56,79,0
1,52,66,0
1,61,68,104
1,56,67,0
1,52,55,0
1,59,73,48
1,52,65,452
1,56,85,112
1,61,87,0
1,52,66,0
1,61,69,120
1,56,68,0
1,52,60,0
1,59,82,28
1,56,64,4
1,52,50,0
1,52,74,464
1,61,83,100
1,56,85,4
1,52,70,0
1,61,72,104
1,56,69,0
1,52,59,0
1,56,51,52
1,59,78,0
1,52,61,292
1,59,58,0
1,56,48,0
1,56,69,96
1,52,58,0
1,61,77,0
1,61,77,96
1,56,79,0
1,52,61,0
1,59,76,12
1,61,83,80
1,56,94,0
1,52,81,0
1,59,82,56
1,56,62,0
1,52,62,0
1,61,69,52
1,57,81,0
1,54,71,0
1,57,80,112
1,64,85,0
1,61,68,0
1,54,67,0
1,57,70,52
1,54,68,0
1,61,64,0
1,64,63,0
1,61,75,272
1,57,90,0
1,54,85,0
1,64,84,0
1,57,74,88
1,61,55,0
1,54,61,0
1,64,55,0
1,59,77,96
1,56,71,0
1,52,80,0
1,52,61,48
1,61,85,100
1,56,85,0
1,52,75,0
1,61,71,120
1,56,71,0
1,52,78,0
1,56,81,4
1,50,79,0
1,59,87,0
1,59,78,92
1,56,79,0
1,62,94,0
1,56,72,32
1,62,84,0
1,59,73,0
1,56,81,64
1,61,83,0
1,52,75,0
1,64,98,0
1,56,79,92
1,61,77,0
1,52,80,0
1,64,81,4
1,61,60,52
1,64,62,0
1,57,87,0
1,54,77,0
1,54,50,132
1,61,81,100
1,57,92,0
1,54,63,0
1,64,85,0
1,61,62,76
1,54,51,0
1,64,65,0
1,57,70,0
1,59,87,76
1,56,83,0
1,52,84,0
1,56,85,44
1,61,89,0
1,64,92,0
1,61,83,60
1,57,96,0
1,64,88,0
1,61,71,56
1,57,81,4
1,64,76,0
1,52,81,0
1,59,84,88
1,56,85,0
1,52,71,0
1,52,63,144
1,57,83,88
1,61,83,0
1,52,70,0
1,57,81,100
1,61,79,0
1,52,69,8
1,56,52,32
1,59,85,0
1,52,55,0
1,52,98,348
1,57,88,0
1,61,72,0
1,64,84,0
1,61,67,140
1,57,76,0
1,64,74,0
1,52,80,4
1,56,75,104
1,59,77,0
1,52,74,0
1,52,63,152
1,56,81,84
1,61,77,0
1,52,65,0
1,61,72,132
1,56,77,0
1,52,66,0
1,56,62,20
1,52,43,0
1,59,87,0
1,52,54,384
1,61,79,108
1,56,79,0
1,52,66,0
1,61,68,104
1,56,67,0
1,52,55,0
1,59,73,48
1,52,65,452
1,56,85,112
1,61,87,0
1,52,66,0
1,61,69,120
1,56,68,0
1,52,60,0
1,59,82,28
1,56,64,4
1,52,50,0
1,52,74,464
1,61,83,100
1,56,85,4
1,52,70,0
1,61,72,104
1,56,69,0
1,52,59,0
1,56,51,52
1,59,78,0
1,52,61,292
1,59,58,0
1,56,48,0
1,56,69,96
1,52,58,0
1,61,77,0
1,61,77,96
1,56,79,0
1,52,61,0
1,59,76,12
1,61,83,80
1,56,94,0
1,52,81,0
1,59,82,56
1,56,62,0
1,52,62,0
1,61,69,52
1,57,81,0
1,54,71,0
1,57,80,112
1,64,85,0
1,61,68,0
1,54,67,0
1,57,70,52
1,54,68,0
1,61,64,0
1,64,63,0
1,61,75,272
1,57,90,0
1,54,85,0
1,64,84,0
1,57,74,88
1,61,55,0
1,54,61,0
1,64,55,0
1,59,77,96
1,56,71,0
1,52,80,0
1,52,61,48
1,61,85,100
1,56,85,0
1,52,75,0
1,61,71,120
1,56,71,0
1,52,78,0
1,56,81,4
1,50,79,0
1,59,87,0
1,59,78,92
1,56,79,0
1,62,94,0
1,56,72,32
1,62,84,0
1,59,73,0
1,56,81,64
1,61,83,0
1,52,75,0
1,64,98,0
1,56,79,92
1,61,77,0
1,52,80,0
1,64,81,4
1,61,60,52
1,64,62,0
1,57,87,0
1,54,77,0
1,54,50,132
1,61,81,100
1,57,92,0
1,54,63,0
1,64,85,0
1,61,62,76
1,54,51,0
1,64,65,0
1,57,70,0
1,59,87,76
1,56,83,0
1,52,84,0
1,56,85,44
1,61,89,0
1,64,92,0
1,61,83,60
1,57,96,0
1,64,88,0
1,61,71,56
1,57,81,4
1,64,76,0
1,52,81,0
1,59,80,88
1,56,74,0
1,52,83,8
1,61,65,132
1,52,71,0
1,64,74,0
1,57,73,4
1,61,71,140
1,57,77,0
1,64,80,0
1,52,70,0
1,64,69,36
1,59,90,0
1,56,89,0
1,52,77,0
1,64,96,188
1,61,81,0
1,56,94,0
1,52,92,0
2,28,62,1120
2,37,65,312
2,35,55,76
2,28,59,200
2,37,65,472
2,35,48,384
2,28,51,228
2,37,63,460
2,35,52,24
2,28,56,244
2,35,66,48
2,28,59,96
2,37,61,324
2,35,49,28
2,28,58,244
2,37,57,424
2,35,44,0
2,28,51,196
2,37,59,400
2,35,56,16
2,28,56,200
2,37,55,484
2,35,54,20
2,28,54,200
2,37,57,440
2,35,54,44
2,28,52,200
2,35,64,112
2,30,59,68
2,30,55,124
2,30,46,104
2,35,66,200
2,23,62,44
2,35,54,40
2,28,47,0
2,37,51,260
2,35,50,48
2,28,44,192
2,32,61,0
2,32,65,108
2,33,50,20
2,33,66,92
2,30,65,584
2,30,63,112
2,28,62,120
2,37,63,84
2,33,52,768
2,35,55,40
2,28,62,16
2,33,56,184
2,33,59,84
2,28,62,188
2,35,72,52
2,35,70,80
2,28,59,60
2,37,61,324
2,35,49,28
2,28,58,244
2,37,57,424
2,35,44,0
2,28,51,196
2,37,59,400
2,35,56,16
2,28,56,200
2,37,55,484
2,35,54,20
2,28,54,200
2,37,57,440
2,35,54,44
