track,note,velocity,time
1,67,127,5744
1,70,127,56
1,70,124,140
1,70,127,116
1,73,127,96
1,70,127,1468
1,73,127,108
1,70,127,112
1,73,127,120
1,70,127,44
1,73,127,860
1,73,127,32
1,73,122,96
1,73,127,144
1,73,127,112
1,70,127,104
1,73,127,60
1,67,127,1320
1,70,127,88
1,67,127,80
1,73,127,144
1,73,127,184
1,70,127,84
1,73,127,1092
1,73,127,68
1,73,127,176
1,73,127,140
1,72,127,140
1,67,127,820
1,70,127,108
1,67,127,48
1,73,127,128
1,73,127,92
1,70,127,36
1,67,127,748
1,70,127,72
1,67,127,80
1,70,127,108
1,70,127,220
1,73,127,140
1,70,127,928
1,73,127,92
1,70,122,60
1,73,127,120
1,73,127,220
1,70,127,96
1,70,127,372
1,73,127,32
1,70,127,60
1,73,127,132
1,73,127,152
1,67,127,28
1,70,127,16
1,67,127,700
1,70,127,12
1,73,127,84
1,73,127,128
1,70,127,48
1,73,127,552
1,73,110,140
1,73,127,140
1,73,98,60
1,73,127,128
1,72,127,104
1,67,127,1044
1,70,127,120
1,67,115,60
1,73,127,140
1,73,127,208
1,70,119,388
1,67,127,520
1,70,127,144
1,67,119,40
1,70,127,144
1,70,127,164
1,67,127,24
1,73,127,128
1,73,127,104
1,67,127,1280
1,70,127,132
1,73,127,248
1,73,127,144
1,70,127,128
1,73,127,1420
1,72,127,36
1,73,127,116
1,72,127,36
1,70,127,12
1,67,127,24
1,70,127,200
1,67,127,480
1,70,127,72
1,67,124,44
1,73,127,112
1,73,127,128
1,73,127,92
1,70,127,20
1,73,127,772
1,73,127,116
1,73,127,140
1,73,127,152
1,72,127,96
1,72,127,60
1,67,127,884
1,70,127,132
1,67,82,72
1,73,127,128
1,73,127,176
1,70,127,12
1,67,127,960
1,70,127,36
1,70,127,188
1,67,127,24
1,73,127,48
1,67,127,1260
1,70,127,76
1,73,127,232
1,73,127,116
1,70,127,48
1,73,127,560
1,73,110,60
1,73,127,152
1,72,127,12
1,70,127,8
1,67,127,24
1,70,127,36
1,67,127,464
1,70,127,152
1,73,127,248
1,73,127,144
1,70,127,24
1,73,127,388
1,73,75,108
1,73,127,152
1,73,127,148
1,70,127,48
1,72,127,48
1,72,127,72
1,67,127,636
1,70,127,132
1,67,119,60
1,73,127,140
1,73,127,84
1,70,127,72
2,46,97,6916
2,46,88,116
2,46,91,144
2,41,86,36
2,41,89,116
2,41,78,156
2,46,87,96
2,46,94,120
2,46,77,144
2,41,77,56
2,41,79,112
2,41,65,132
2,46,87,104
2,46,88,120
2,46,75,132
2,41,77,92
2,41,83,112
2,41,70,140
2,46,85,100
2,46,96,132
2,46,83,132
2,41,77,92
2,41,79,100
2,46,80,144
2,51,89,20
2,51,89,104
2,51,83,144
2,46,79,56
2,46,89,128
2,46,79,152
2,51,82,108
2,51,92,112
2,51,81,132
2,46,88,104
2,46,90,120
2,46,79,168
2,46,84,128
2,46,94,136
2,46,87,144
2,41,86,76
2,41,93,120
2,41,82,156
2,46,90,104
2,46,96,124
2,46,89,168
2,41,78,120
2,41,89,120
2,41,79,132
2,53,88,72
2,53,90,108
2,53,88,156
2,48,80,80
2,48,91,100
2,48,82,136
2,51,88,72
2,51,96,128
2,51,87,136
2,46,89,72
2,46,89,128
2,46,77,156
2,46,84,132
2,46,90,140
2,46,83,168
2,41,72,92
2,41,89,116
2,41,77,140
2,46,84,104
2,46,89,132
2,46,79,136
2,41,77,116
2,41,82,116
2,41,75,140
2,46,84,12
2,46,89,108
2,46,86,132
2,41,76,12
2,41,82,104
2,41,80,156
2,46,83,84
2,46,85,128
2,46,87,132
2,41,76,84
2,41,80,116
2,41,78,144
2,46,81,36
2,46,85,140
2,46,80,168
2,41,74,104
2,41,82,104
2,41,75,132
2,46,82,32
2,46,90,112
2,46,84,156
2,41,74,108
2,41,80,104
2,41,75,148
2,51,90,96
2,51,89,100
2,51,86,144
2,46,76,68
2,46,90,124
2,46,87,156
2,51,85,80
2,51,95,128
2,51,84,136
2,46,92,120
2,46,92,128
2,46,86,168
2,46,90,132
2,46,96,128
2,46,92,148
2,41,89,20
2,41,90,124
2,41,88,128
2,46,90,80
2,46,95,144
2,46,94,168
2,41,79,116
2,41,89,116
2,41,86,140
2,53,96,72
2,53,94,92
2,53,93,164
2,48,96,96
2,48,94,112
2,48,91,128
2,51,89,60
2,51,92,112
2,51,92,148
2,46,88,48
2,46,92,128
2,46,83,152
2,46,90,140
2,46,90,128
2,46,89,132
2,41,84,92
2,41,89,104
2,41,89,140
2,46,95,104
2,46,96,124
2,46,96,144
2,41,82,80
2,41,88,116
2,41,89,132
2,46,98,32
2,46,98,116
2,46,98,156
2,41,88,120
2,41,99,132
2,41,87,152
2,46,97,84
2,46,107,128
2,46,94,144
2,41,89,104
2,41,92,112
2,41,85,140
2,46,95,120
2,46,98,132
2,46,91,156
2,41,84,120
2,41,98,100
2,41,83,132
2,46,96,120
2,46,102,128
2,46,97,156
2,41,92,104
2,41,93,116
2,46,95,128
2,51,92,36
2,51,98,116
2,51,95,168
2,46,98,116
2,46,104,128
2,46,83,168
2,51,92,116
2,51,102,116
2,51,91,136
2,46,95,116
2,46,100,128
2,46,95,140
2,46,100,140
2,46,107,124
2,46,98,156
2,41,96,120
2,41,98,128
2,41,93,172
2,46,97,128
2,46,107,124
2,46,100,176
2,41,88,124
2,41,98,120
2,41,89,140
2,53,106,60
2,53,108,100
2,53,101,128
2,48,93,48
2,48,99,116
2,48,96,156
2,51,97,92
2,51,102,124
2,51,98,156
2,46,100,96
2,46,100,112
2,46,94,180
2,46,100,140
2,46,104,128
2,46,104,156
2,41,91,116
2,41,99,116
2,41,86,148
2,46,102,116
2,46,104,116
2,46,102,152
2,41,91,104
2,41,98,116
2,41,93,160
2,46,104,108
2,46,102,132
2,46,102,144
2,41,86,120
2,41,99,116
2,41,90,148
2,46,98,104
2,46,107,128
2,46,107,144
2,41,90,132
2,41,98,132
2,41,92,152
2,46,100,104
2,46,107,116
2,46,98,144
2,41,90,116
2,41,93,120
2,41,91,164
2,46,97,120
2,46,107,124
2,46,100,144
2,41,92,132
2,41,94,116
2,46,100,112
2,51,95,36
2,51,102,116
2,51,95,148
2,46,97,108
2,46,98,128
2,46,100,156
2,51,94,116
2,51,102,112
2,51,97,144
2,46,95,104
2,46,104,128
2,46,91,184
2,46,97,132
2,46,102,124
2,46,102,156
2,41,91,80
2,41,101,112
2,41,96,144
2,46,94,116
2,46,107,140
2,46,98,156
2,41,92,120
2,41,101,124
2,41,91,164
2,53,99,72
2,53,106,108
2,53,101,168
2,48,93,80
2,48,101,116
2,48,96,128
2,51,104,108
2,51,102,132
2,51,102,168
2,46,100,104
2,46,104,128
2,46,107,176
2,46,104,124
2,46,104,140
2,46,104,168
2,41,89,128
2,41,106,128
2,41,94,156
2,46,102,116
2,46,119,136
2,46,111,248
2,41,99,60
2,41,103,116
2,41,103,220
2,46,98,24
2,46,100,88
2,46,104,144
2,41,93,128
2,41,99,128
2,41,94,144
2,46,97,116
2,46,104,136
2,46,102,140
2,41,89,124
2,41,99,116
2,41,92,152
2,46,97,116
2,46,100,124
2,46,98,176
2,41,99,132
2,41,98,116
2,41,101,176
2,46,104,120
2,46,102,128
2,46,107,180
2,41,94,100
2,41,93,132
2,46,98,164
2,51,92,52
2,51,100,116
2,51,100,144
2,46,95,104
2,46,102,128
2,46,100,164
2,51,102,112
2,51,111,116
2,51,102,120
2,46,92,116
2,46,107,128
2,46,98,180
2,46,96,144
2,46,104,140
2,46,115,144
2,41,91,128
2,41,99,120
2,41,99,164
2,46,100,120
2,46,107,124
2,46,100,168
2,41,91,120
2,41,96,120
2,41,94,136
2,53,101,84
2,53,119,100
2,53,103,128
2,48,94,76
2,48,103,108
2,48,93,128
2,51,104,116
2,51,100,116
2,51,98,160
2,46,96,100
2,46,107,116
2,46,97,168
2,46,111,144
2,46,111,124
2,46,102,152
2,41,94,140
2,41,101,116
2,41,89,152
2,46,102,120
2,46,111,128
2,46,102,156
2,41,101,128
2,41,103,112
2,43,99,64
2,41,94,20
2,46,98,68
2,46,100,92
2,46,104,144
2,41,93,128
2,41,99,124
2,41,94,144
2,46,97,116
2,46,104,140
2,46,102,140
2,41,89,128
2,41,99,112
2,41,92,152
2,46,97,116
2,46,100,128
2,46,98,176
2,41,99,132
2,41,98,112
2,41,101,172
2,46,104,120
2,46,102,128
2,46,107,180
2,41,94,104
2,41,93,132
2,46,98,164
2,51,92,52
2,51,100,112
2,51,100,144
2,46,95,104
2,46,102,132
2,46,100,164
2,51,102,116
2,51,111,112
2,51,102,120
2,46,92,116
2,46,107,132
2,46,98,180
2,46,96,144
2,46,104,136
2,46,115,144
2,41,91,124
2,41,99,120
2,41,99,168
2,46,100,120
2,46,107,124
2,46,100,168
2,41,91,116
2,41,96,120
2,41,94,140
2,53,101,84
2,53,119,104
2,53,103,128
2,48,94,76
2,48,103,108
2,48,93,132
2,51,104,116
2,51,100,116
2,51,98,160
2,46,96,104
2,46,107,112
2,46,97,168
2,46,111,140
2,46,111,128
2,46,102,152
2,41,94,140
2,41,101,116
2,41,89,148
2,46,102,120
2,46,111,128
2,46,102,156
2,41,101,128
2,41,103,112
2,43,99,64
2,41,94,20
2,46,94,64
3,62,122,0
3,65,101,0
3,62,96,60
3,58,89,4
3,62,92,464
3,58,85,0
3,65,91,8
3,62,94,0
3,62,99,44
3,58,91,12
3,62,108,408
3,58,95,0
3,53,117,260
3,55,112,12
3,58,112,76
3,65,108,4
3,61,108,0
3,58,97,72
3,61,112,0
3,65,87,4
3,62,94,0
3,58,93,112
3,62,108,4
3,58,97,444
3,62,108,4
3,53,112,280
3,55,104,16
3,60,99,12
3,65,101,92
3,57,122,4
3,55,112,84
3,63,93,20
3,55,101,408
3,63,97,4
3,53,99,224
3,55,112,8
3,53,96,0
3,58,100,104
3,62,96,0
3,58,58,64
3,58,108,164
3,53,96,0
3,58,104,440
3,53,94,0
3,65,99,4
3,62,101,0
3,58,100,48
3,53,104,4
3,62,101,472
3,58,93,4
3,62,108,4
3,65,99,0
3,62,104,68
3,58,93,0
3,62,112,456
3,58,97,4
3,53,117,268
3,55,112,96
3,58,104,84
3,65,104,4
3,61,108,4
3,58,97,56
3,61,112,0
3,61,118,464
3,58,100,8
3,53,122,264
3,55,112,88
3,58,104,80
3,62,108,4
3,65,92,0
3,62,91,36
3,58,97,0
3,58,104,396
3,62,112,0
3,53,117,260
3,55,104,96
3,58,100,84
3,65,101,8
3,57,112,0
3,55,104,48
3,63,90,0
3,58,118,496
3,53,104,0
3,58,125,416
3,53,108,0
3,55,112,36
3,53,104,52
3,53,108,172
3,58,127,0
3,58,108,256
3,53,96,0
3,55,112,88
3,53,99,20
3,46,112,44
4,58,71,7296
4,53,67,0
4,62,67,0
4,58,59,72
4,62,59,0
4,53,59,0
4,58,71,476
4,62,70,0
4,53,74,0
4,58,72,632
4,53,67,0
4,62,58,4
4,58,65,92
4,62,64,0
4,53,57,0
4,58,77,464
4,62,69,0
4,53,72,0
4,62,52,76
4,58,51,0
4,58,72,512
4,62,70,0
4,53,71,4
4,58,66,88
4,62,68,0
4,53,63,4
4,58,78,464
4,53,74,0
4,62,70,0
4,58,77,612
4,62,71,0
4,53,76,4
4,58,65,68
4,53,63,0
4,62,67,4
4,58,69,464
4,53,74,0
4,62,68,4
4,53,60,48
4,62,65,0
4,58,63,0
4,61,72,476
4,51,71,0
4,55,75,0
4,51,68,104
4,61,73,0
4,55,75,4
4,61,77,456
4,51,78,0
4,55,85,4
4,51,72,620
4,61,77,0
4,55,80,0
4,51,64,88
4,55,75,0
4,61,72,4
4,61,74,448
4,55,81,0
4,51,67,4
4,51,63,96
4,55,73,0
4,61,69,0
4,58,68,452
4,62,69,0
4,53,72,0
4,58,65,72
4,53,63,0
4,62,65,0
4,58,71,452
4,53,71,0
4,62,70,4
4,58,72,600
4,53,69,0
4,62,64,0
4,53,60,92
4,58,61,0
4,62,65,0
4,58,73,452
4,53,73,0
4,62,70,4
4,57,73,632
4,63,72,0
4,53,67,0
4,63,66,52
4,57,68,0
4,53,62,0
4,63,73,428
4,57,74,0
4,53,75,0
4,51,76,624
4,61,78,0
4,55,85,4
4,61,71,64
4,51,62,0
4,55,76,0
4,51,78,416
4,55,93,0
4,61,80,0
4,58,72,612
4,53,71,0
4,62,69,4
4,62,66,64
4,58,66,0
4,53,61,4
4,58,76,436
4,53,76,0
4,62,71,0
4,58,73,644
4,53,70,0
4,62,64,4
4,53,67,88
4,58,71,0
4,62,70,4
4,58,73,452
4,62,71,0
4,53,74,0
4,58,84,624
4,62,69,0
4,53,75,0
4,62,66,92
4,58,66,0
4,53,63,4
4,58,82,452
4,62,71,0
4,53,75,0
4,58,80,652
4,53,74,0
4,62,71,0
4,58,68,92
4,53,68,0
4,62,70,0
4,58,79,428
4,62,74,0
4,53,74,4
4,58,76,648
4,53,72,0
4,62,71,0
4,58,64,80
4,53,63,0
4,62,68,0
4,58,82,440
4,62,74,0
4,53,78,0
4,58,65,68
4,62,54,0
4,53,53,4
4,58,82,456
4,62,74,0
4,53,81,0
4,53,65,64
4,58,66,0
4,62,70,0
4,58,79,436
4,62,76,0
4,53,76,4
4,61,73,628
4,55,78,0
4,51,69,0
4,61,68,64
4,51,61,0
4,55,73,0
4,61,77,388
4,51,73,0
4,55,88,0
4,51,70,604
4,55,83,0
4,61,77,0
4,61,59,56
4,51,56,0
4,55,68,0
4,61,74,424
4,55,83,0
4,51,71,0
4,61,65,48
4,51,61,4
4,55,71,0
4,58,78,416
4,53,71,0
4,62,69,4
4,58,65,88
4,53,65,0
4,62,66,0
4,58,74,416
4,62,74,0
4,53,72,4
4,58,84,612
4,62,61,0
4,53,71,4
4,53,62,104
4,58,65,0
4,62,63,4
4,58,74,448
4,53,74,0
4,62,74,4
4,57,73,616
4,63,70,0
4,53,71,4
4,63,70,76
4,57,68,0
4,53,65,4
4,63,76,416
4,57,73,0
4,53,78,0
4,61,74,604
4,55,80,0
4,51,74,0
4,61,70,64
4,51,72,0
4,55,76,4
4,51,77,408
4,55,93,0
4,61,80,0
4,58,69,576
4,53,72,0
4,62,71,0
4,58,65,64
4,62,67,4
4,53,62,0
4,58,82,416
4,53,75,0
4,62,72,4
4,58,77,616
4,53,74,0
4,62,70,0
4,58,69,92
4,62,67,0
4,53,64,0
4,58,80,456
4,53,78,0
4,62,75,4
4,58,66,84
4,62,69,0
4,53,66,4
4,58,76,440
4,53,74,0
4,62,70,0
4,58,65,92
4,53,61,0
4,62,65,0
4,58,78,452
4,62,71,0
4,53,74,0
4,58,73,640
4,62,68,0
4,53,69,0
4,58,69,92
4,53,66,0
4,62,70,0
4,58,78,452
4,62,71,0
4,53,75,0
4,58,82,624
4,53,70,0
4,62,73,4
4,62,68,76
4,58,68,0
4,53,65,0
4,53,73,456
4,58,79,0
4,62,71,0
4,58,79,636
4,62,74,0
4,53,71,4
4,58,74,88
4,53,71,0
4,62,72,4
4,53,71,428
4,62,75,0
4,58,76,0
4,51,77,616
4,55,83,0
4,61,79,4
4,61,67,56
4,51,64,0
4,55,73,4
4,61,78,412
4,55,83,0
4,51,72,0
4,51,76,612
4,61,79,0
4,55,85,0
4,61,66,76
4,51,58,0
4,55,73,4
4,55,76,416
4,61,79,0
4,51,73,0
4,53,69,588
4,58,79,0
4,62,69,0
4,53,65,64
4,58,66,0
4,62,64,4
4,58,79,444
4,53,74,0
4,62,73,4
4,58,79,616
4,53,71,0
4,62,70,0
4,58,65,88
4,53,60,0
4,62,58,0
4,58,79,444
4,62,72,0
4,53,74,0
4,53,72,636
4,57,73,0
4,63,74,0
4,53,66,48
4,63,61,0
4,57,71,0
4,57,71,416
4,63,71,0
4,53,73,4
4,55,64,588
4,51,52,0
4,61,62,0
4,61,65,108
4,51,72,0
4,55,78,0
4,51,74,408
4,55,81,0
4,61,79,0
4,58,74,568
4,62,68,0
4,53,67,0
4,58,69,64
