track,note,velocity,time
2,36,127,3072
2,36,127,336
2,36,127,336
2,36,127,336
2,36,127,336
2,36,127,336
2,36,127,336
2,36,127,336
2,36,127,336
2,36,127,336
2,36,127,336
2,36,127,336
2,36,127,336
2,36,127,336
2,36,127,336
2,36,127,336
2,36,127,336
2,36,127,336
2,36,127,336
2,36,127,336
2,36,127,336
2,36,127,336
2,36,127,336
2,36,127,336
2,36,127,336
2,36,127,336
2,36,127,336
2,36,127,336
2,36,127,336
2,36,127,336
2,36,127,336
2,36,127,336
2,36,127,336
2,36,127,336
2,36,127,336
2,36,127,336
2,36,127,336
2,36,127,336
2,36,127,336
2,36,127,336
2,36,127,336
2,36,127,336
2,36,127,336
2,36,127,336
2,36,127,336
2,36,127,336
2,36,127,336
2,36,127,336
2,36,127,336
2,36,127,336
2,36,127,336
2,36,127,336
2,36,127,336
2,36,127,336
2,36,127,336
2,36,127,336
2,36,127,336
2,36,127,336
2,36,127,336
2,36,127,336
2,36,127,336
2,36,127,336
2,36,127,336
2,36,127,336
2,36,127,336
2,36,127,336
2,36,127,336
2,36,127,336
2,36,127,336
2,36,127,336
2,36,127,336
2,36,127,336
2,36,127,336
2,36,127,336
2,36,127,336
2,36,127,336
2,36,127,336
2,36,127,336
2,36,127,336
2,36,127,336
2,36,127,336
2,36,127,336
2,36,127,336
2,36,127,336
2,36,127,336
2,36,127,336
2,36,127,336
2,36,127,336
2,36,127,336
2,36,127,336
2,36,127,336
2,36,127,336
2,36,127,336
2,36,127,336
2,36,127,336
2,36,127,336
2,36,127,336
2,36,127,336
2,36,127,336
2,36,127,336
2,36,127,336
2,36,127,336
2,36,127,336
2,36,127,336
2,36,127,336
2,36,127,336
2,36,127,336
2,36,127,336
2,36,127,336
2,36,127,336
2,36,127,336
2,36,127,336
2,36,127,336
2,36,127,336
2,36,127,336
2,36,127,336
2,36,127,336
2,36,127,336
2,36,127,336
2,36,127,336
2,36,127,336
2,36,127,336
2,36,127,336
2,36,127,336
2,36,127,336
2,36,127,336
2,36,127,336
2,36,127,336
2,36,127,336
2,36,127,336
2,36,127,336
2,36,127,336
2,36,127,336
2,36,127,336
2,36,127,336
2,36,127,336
2,36,127,336
2,36,127,336
2,36,127,336
2,36,127,336
2,36,127,336
2,36,127,336
2,36,127,336
2,36,127,336
2,36,127,336
2,36,127,336
2,36,127,336
2,36,127,336
2,36,127,336
2,36,127,336
2,36,127,336
2,36,127,336
2,36,127,336
2,36,127,336
2,36,127,336
2,36,127,336
2,36,127,336
2,36,127,336
2,36,127,336
2,36,127,336
2,36,127,336
2,36,127,336
2,36,127,336
2,36,127,336
2,36,127,336
2,36,127,336
2,36,127,336
2,36,127,336
2,36,127,336
2,36,127,336
2,36,127,336
2,36,127,336
2,36,127,336
2,36,127,336
2,36,127,336
2,36,127,336
2,36,127,336
2,36,127,336
2,36,127,336
2,36,127,336
2,36,127,336
2,36,127,336
2,36,127,336
2,36,127,336
2,36,127,336
2,36,127,336
2,36,127,336
2,36,127,336
2,36,127,336
2,36,127,336
2,36,127,336
2,36,127,336
2,36,127,336
2,36,127,336
2,36,127,336
2,36,127,336
2,36,127,336
2,36,127,336
2,36,127,336
2,36,127,336
2,36,127,336
2,36,127,336
2,36,127,336
2,36,127,336
2,36,127,336
2,36,127,336
2,36,127,336
2,36,127,336
2,36,127,336
2,36,127,336
2,36,127,336
2,36,127,336
2,36,127,336
2,36,127,336
2,36,127,336
2,36,127,336
2,36,127,336
2,36,127,336
2,36,127,336
2,36,127,336
2,36,127,336
2,36,127,336
2,36,127,336
2,36,127,336
2,36,127,336
2,36,127,336
2,36,127,336
2,36,127,336
2,36,127,336
2,36,127,336
2,36,127,336
2,36,127,336
2,36,127,336
2,36,127,336
2,36,127,336
2,36,127,336
2,36,127,336
2,36,127,336
2,36,127,336
2,36,127,336
2,36,127,336
2,36,127,336
2,36,127,336
2,36,127,336
2,36,127,336
2,36,127,336
2,36,127,336
2,36,127,336
2,36,127,336
2,36,127,336
2,36,127,336
2,36,127,336
2,36,127,336
2,36,127,336
2,36,127,336
2,36,127,336
2,36,127,336
2,36,127,336
2,36,127,336
2,36,127,336
2,36,127,336
2,36,127,336
2,36,127,336
2,36,127,336
2,36,127,336
2,36,127,336
2,36,127,336
2,36,127,336
2,36,127,336
2,36,127,336
2,36,127,336
2,36,127,336
2,36,127,336
2,36,127,336
2,36,127,336
2,36,127,336
2,36,127,336
2,36,127,336
2,36,127,336
2,36,127,336
2,36,127,336
2,36,127,336
2,36,127,336
2,36,127,336
2,36,127,336
2,36,127,336
2,36,127,336
2,36,127,336
2,36,127,336
2,36,127,336
2,36,127,336
2,36,127,336
2,36,127,336
2,36,127,336
2,36,127,336
2,36,127,336
2,36,127,336
2,36,127,336
2,36,127,336
2,36,127,336
2,36,127,336
2,36,127,336
2,36,127,336
2,36,127,336
2,36,127,336
2,36,127,336
2,36,127,336
2,36,127,336
2,36,127,336
2,36,127,336
2,36,127,336
2,36,127,336
2,36,127,336
2,36,127,336
2,36,127,336
2,36,127,336
2,36,127,336
2,36,127,528
2,36,127,144
2,36,127,720
2,36,127,528
2,36,127,144
2,36,127,720
2,36,127,528
2,36,127,144
2,36,127,720
2,36,127,528
2,36,127,144
2,36,127,720
2,36,127,528
2,36,127,144
2,36,127,720
2,36,127,528
2,36,127,144
2,36,127,720
2,36,127,528
2,36,127,144
2,36,127,720
2,36,127,528
2,36,127,144
2,36,127,720
2,36,127,528
2,36,127,144
2,36,127,720
2,36,127,528
2,36,127,144
2,36,127,720
2,36,127,336
2,36,127,336
2,36,127,336
2,36,127,336
2,36,127,336
2,36,127,336
2,36,127,336
2,36,127,336
2,36,127,336
2,36,127,336
2,36,127,336
2,36,127,336
2,36,127,336
2,36,127,336
2,36,127,336
2,36,127,336
2,36,127,336
2,36,127,336
2,36,127,336
2,36,127,336
2,36,127,336
2,36,127,336
2,36,127,336
2,36,127,336
2,36,127,336
2,36,127,336
2,36,127,336
2,36,127,336
2,36,127,336
2,36,127,336
2,36,127,336
2,36,127,336
2,36,127,336
2,36,127,336
2,36,127,336
2,36,127,336
2,36,127,336
2,36,127,336
2,36,127,336
2,36,127,336
2,36,127,336
2,36,127,336
2,36,127,336
2,36,127,336
2,36,127,336
2,36,127,336
2,36,127,336
2,36,127,336
2,36,127,336
2,36,127,336
2,36,127,336
3,41,80,11904
3,41,80,48
3,41,80,48
3,41,80,48
3,41,80,18096
3,41,80,48
3,41,80,48
3,41,80,48
3,41,80,18096
3,41,80,48
3,41,80,48
3,41,80,48
3,41,80,18096
3,41,80,48
3,41,80,48
3,41,80,48
3,41,80,18096
3,41,80,48
3,41,80,48
3,41,80,48
3,41,80,18096
3,41,80,48
3,41,80,48
3,41,80,48
3,41,80,18096
3,41,80,48
3,41,80,48
3,41,80,48
3,41,80,18096
3,41,80,48
3,41,80,48
3,41,80,48
3,41,80,18096
3,41,80,48
3,41,80,48
3,41,80,48
4,45,80,11520
4,45,80,48
4,45,80,48
4,45,80,48
4,45,80,18096
4,45,80,48
4,45,80,48
4,45,80,48
4,45,80,18096
4,45,80,48
4,45,80,48
4,45,80,48
4,45,80,18096
4,45,80,48
4,45,80,48
4,45,80,48
4,45,80,18096
4,45,80,48
4,45,80,48
4,45,80,48
4,45,80,18096
4,45,80,48
4,45,80,48
4,45,80,48
4,45,80,18096
4,45,80,48
4,45,80,48
4,45,80,48
4,45,80,18096
4,45,80,48
4,45,80,48
4,45,80,48
4,45,80,18096
4,45,80,48
4,45,80,48
4,45,80,48
5,48,80,11136
5,48,80,56
5,48,80,86
5,48,80,56
5,48,80,18088
5,48,80,56
5,48,80,86
5,48,80,56
5,48,80,18088
5,48,80,56
5,48,80,86
5,48,80,56
5,48,80,18088
5,48,80,56
5,48,80,86
5,48,80,56
5,48,80,18088
5,48,80,56
5,48,80,86
5,48,80,56
5,48,80,18088
5,48,80,56
5,48,80,86
5,48,80,56
5,48,80,18088
5,48,80,56
5,48,80,86
5,48,80,56
5,48,80,18088
5,48,80,56
5,48,80,86
5,48,80,56
5,48,80,18088
5,48,80,56
5,48,80,86
5,48,80,56
6,38,80,3072
6,38,80,144
6,38,112,144
6,38,80,144
6,38,80,144
6,38,80,144
6,38,112,144
6,38,80,144
6,38,80,144
6,38,80,144
6,38,112,144
6,38,80,144
6,38,80,144
6,38,80,144
6,38,112,144
6,38,80,144
6,38,80,48
6,38,80,48
6,38,80,144
6,38,112,144
6,38,80,144
6,38,80,144
6,38,80,144
6,38,112,144
6,38,80,144
6,38,80,144
6,38,80,144
6,38,112,144
6,38,80,144
6,38,80,144
6,38,80,144
6,38,112,144
6,38,80,144
6,38,80,48
6,38,80,48
6,38,80,144
6,38,112,144
6,38,80,144
6,38,80,144
6,38,80,144
6,38,112,144
6,38,80,144
6,38,96,144
6,38,96,48
6,38,96,48
6,38,96,48
6,38,80,2736
6,38,80,144
6,38,112,144
6,38,80,144
6,38,80,144
6,38,80,144
6,38,112,144
6,38,80,144
6,38,80,144
6,38,80,144
6,38,112,144
6,38,80,144
6,38,80,144
6,38,80,144
6,38,112,144
6,38,80,144
6,38,80,48
6,38,80,48
6,38,80,144
6,38,112,144
6,38,80,144
6,38,80,144
6,38,80,144
6,38,112,144
6,38,80,144
6,38,80,144
6,38,80,144
6,38,112,144
6,38,80,144
6,38,80,144
6,38,80,144
6,38,112,144
6,38,80,144
6,38,80,48
6,38,80,48
6,38,80,144
6,38,112,144
6,38,80,144
6,38,80,144
6,38,80,144
6,38,112,144
6,38,80,144
6,38,80,144
6,38,80,144
6,38,112,144
6,38,80,144
6,38,80,144
6,38,80,144
6,38,112,144
6,38,80,144
6,38,80,48
6,38,80,48
6,38,80,144
6,38,112,144
6,38,80,144
6,38,80,144
6,38,80,144
6,38,112,144
6,38,80,144
6,38,80,144
6,38,80,144
6,38,112,144
6,38,80,144
6,38,80,144
6,38,80,144
6,38,112,144
6,38,80,144
6,38,80,48
6,38,80,48
6,38,80,144
6,38,112,144
6,38,80,144
6,38,80,144
6,38,80,144
6,38,112,144
6,38,80,144
6,38,80,144
6,38,80,144
6,38,112,144
6,38,80,144
6,38,80,144
6,38,80,144
6,38,112,144
6,38,80,144
6,38,80,48
6,38,96,48
6,38,96,48
6,38,96,48
6,38,96,48
6,38,80,2736
6,38,80,144
6,38,112,144
6,38,80,144
6,38,80,144
6,38,80,144
6,38,112,144
6,38,80,144
6,38,80,144
6,38,80,144
6,38,112,144
6,38,80,144
6,38,80,144
6,38,80,144
6,38,112,144
6,38,80,144
6,38,80,144
6,38,80,144
6,38,112,144
6,38,80,144
6,38,80,144
6,38,80,144
6,38,112,144
6,38,80,144
6,38,80,144
6,38,80,144
6,38,112,144
6,38,80,144
6,38,80,144
6,38,80,144
6,38,112,144
6,38,80,144
6,38,80,144
6,38,80,144
6,38,112,144
6,38,80,144
6,38,80,144
6,38,80,144
6,38,112,144
6,38,80,144
6,38,80,144
6,38,80,144
6,38,112,144
6,38,80,144
6,38,80,144
6,38,80,144
6,38,112,144
6,38,80,144
6,38,80,144
6,38,80,144
6,38,112,144
6,38,80,144
6,38,80,144
6,38,80,144
6,38,112,144
6,38,80,144
6,38,80,144
6,38,80,144
6,38,112,144
6,38,80,144
6,38,80,144
6,38,80,144
6,38,112,144
6,38,80,144
6,38,80,144
6,38,80,144
6,38,112,144
6,38,80,144
6,38,80,144
6,38,80,144
6,38,112,144
6,38,80,144
6,38,80,144
6,38,80,144
6,38,112,144
6,38,80,144
6,38,80,144
6,38,80,144
6,38,112,144
6,38,80,144
6,38,96,144
6,38,96,48
6,38,96,48
6,38,96,48
6,38,80,2736
6,38,80,144
6,38,112,144
6,38,80,144
6,38,80,144
6,38,80,144
6,38,112,144
6,38,80,144
6,38,80,144
6,38,80,144
6,38,112,144
6,38,80,144
6,38,80,144
6,38,80,144
6,38,112,144
6,38,80,144
6,38,80,144
6,38,80,144
6,38,112,144
6,38,80,144
6,38,80,144
6,38,80,144
6,38,112,144
6,38,80,144
6,38,80,144
6,38,80,144
6,38,112,144
6,38,80,144
6,38,80,144
6,38,80,144
6,38,112,144
6,38,80,144
6,38,80,144
6,38,80,144
6,38,112,144
6,38,80,144
6,38,80,144
6,38,80,144
6,38,112,144
6,38,80,144
6,38,80,144
6,38,80,144
6,38,112,144
6,38,80,144
6,38,80,144
6,38,80,144
6,38,112,144
6,38,80,144
6,38,80,144
6,38,80,144
6,38,112,144
6,38,80,144
6,38,80,144
6,38,80,144
6,38,112,144
6,38,80,144
6,38,80,144
6,38,80,144
6,38,112,144
6,38,80,144
6,38,80,144
6,38,80,144
6,38,112,144
6,38,80,144
6,38,80,144
6,38,80,144
6,38,112,144
6,38,80,144
6,38,80,144
6,38,80,144
6,38,112,144
6,38,80,144
6,38,80,144
6,38,80,144
6,38,112,144
6,38,80,144
6,38,80,144
6,38,80,144
6,38,112,144
6,38,80,144
6,38,96,144
6,38,96,48
6,38,96,48
6,38,96,48
6,38,80,2736
6,38,80,144
6,38,112,144
6,38,80,144
6,38,80,144
6,38,80,144
6,38,112,144
6,38,80,144
6,38,80,144
6,38,80,144
6,38,112,144
6,38,80,144
6,38,80,144
6,38,80,144
6,38,112,144
6,38,80,144
6,38,80,144
6,38,80,144
6,38,112,144
6,38,80,144
6,38,80,144
6,38,80,144
6,38,112,144
6,38,80,144
6,38,80,144
6,38,80,144
6,38,112,144
6,38,80,144
6,38,80,144
6,38,80,144
6,38,112,144
6,38,80,144
6,38,80,144
6,38,80,144
6,38,112,144
6,38,80,144
6,38,80,144
6,38,80,144
6,38,112,144
6,38,80,144
6,38,80,144
6,38,80,144
6,38,112,144
6,38,80,144
6,38,80,144
6,38,80,144
6,38,112,144
6,38,80,144
6,38,80,144
6,38,80,144
6,38,112,144
6,38,80,144
6,38,80,144
6,38,80,144
6,38,112,144
6,38,80,144
6,38,80,144
6,38,80,144
6,38,112,144
6,38,80,144
6,38,80,144
6,38,80,144
6,38,112,144
6,38,80,144
6,38,80,144
6,38,80,144
6,38,112,144
6,38,80,144
6,38,80,144
6,38,80,144
6,38,112,144
6,38,80,144
6,38,80,144
6,38,80,144
6,38,112,144
6,38,80,144
6,38,80,144
6,38,80,144
6,38,112,144
6,38,80,144
6,38,96,144
6,38,96,48
6,38,96,48
6,38,96,48
6,38,80,2736
6,38,80,144
6,38,112,144
6,38,80,144
6,38,80,144
6,38,80,144
6,38,112,144
6,38,80,144
6,38,80,144
6,38,80,144
6,38,112,144
6,38,80,144
6,38,80,144
6,38,80,144
6,38,112,144
6,38,80,144
6,38,80,144
6,38,80,144
6,38,112,144
6,38,80,144
6,38,80,144
6,38,80,144
6,38,112,144
6,38,80,144
6,38,80,144
6,38,80,144
6,38,112,144
6,38,80,144
6,38,80,144
6,38,80,144
6,38,112,144
6,38,80,144
6,38,80,144
6,38,80,144
6,38,112,144
6,38,80,144
6,38,80,144
6,38,80,144
6,38,112,144
6,38,80,144
6,38,81,144
6,38,81,144
6,38,113,144
6,38,81,144
6,38,81,144
6,38,81,144
6,38,113,144
6,38,81,144
6,38,80,144
6,38,80,144
6,38,112,144
6,38,80,144
6,38,80,144
6,38,80,144
6,38,112,144
6,38,80,144
6,38,80,144
6,38,80,144
6,38,112,144
6,38,80,144
6,38,80,144
6,38,80,144
6,38,112,144
6,38,80,144
6,38,80,144
6,38,80,144
6,38,112,144
6,38,80,144
6,38,80,144
6,38,80,144
6,38,112,144
6,38,80,144
6,38,80,144
6,38,80,144
6,38,112,144
6,38,80,144
6,38,80,144
6,38,80,144
6,38,112,144
6,38,80,144
6,38,96,144
6,38,96,48
6,38,96,48
6,38,96,48
6,38,80,2736
6,38,80,144
6,38,112,144
6,38,80,144
6,38,80,144
6,38,80,144
6,38,112,144
6,38,80,144
6,38,80,144
6,38,80,144
6,38,112,144
6,38,80,144
6,38,80,144
6,38,80,144
6,38,112,144
6,38,80,144
6,38,80,144
6,38,80,144
6,38,112,144
6,38,80,144
6,38,80,144
6,38,80,144
6,38,112,144
