track,note,velocity,time
3,33,127,1704
3,37,127,248
3,40,127,25
3,42,127,22
3,40,127,120
3,37,127,46
3,38,127,29
3,42,127,11
3,45,127,39
3,47,127,21
3,45,127,109
3,42,127,42
3,33,127,68
3,37,127,21
3,40,127,6
3,28,127,46
3,32,127,237
3,35,127,1
3,33,127,44
3,37,127,235
3,40,127,25
3,42,127,25
3,40,116,6
3,37,127,45
3,33,127,27
3,37,127,235
3,40,127,23
3,42,127,31
3,40,106,116
3,37,127,46
3,38,127,54
3,42,127,1
3,45,127,21
3,47,127,24
3,45,127,122
3,42,127,50
3,33,127,67
3,37,127,21
3,40,127,11
3,28,127,37
3,32,127,8
3,35,127,15
3,33,127,40
3,37,127,10
3,40,127,31
3,42,127,30
3,40,127,19
3,37,127,43
3,38,127,50
3,42,127,27
3,45,127,116
3,33,127,38
3,37,127,4
3,40,127,116
3,38,127,23
3,42,127,35
3,45,127,124
3,33,127,69
3,37,127,24
3,40,127,115
3,38,127,25
3,42,127,27
3,45,127,119
3,33,127,58
3,37,127,25
3,40,127,113
3,40,127,60
3,40,127,46
3,40,127,36
3,40,127,57
3,38,127,51
3,37,127,30
3,35,127,18
3,33,127,38
3,37,127,248
3,40,127,25
3,42,127,22
3,40,127,120
3,37,127,46
3,38,127,29
3,114,1,0
3,42,127,11
3,45,127,39
3,47,127,21
3,45,127,109
3,42,127,42
3,33,127,68
3,37,127,21
3,40,127,6
3,28,127,46
3,32,127,237
3,35,127,1
3,33,127,44
3,37,127,235
3,40,127,25
3,42,127,25
3,40,116,6
3,37,127,45
3,33,127,27
3,37,127,235
3,40,127,23
3,42,127,31
3,40,106,116
3,37,127,46
3,38,127,54
3,42,127,1
3,45,127,21
3,47,127,24
3,45,127,122
3,42,127,50
3,33,127,67
3,37,127,21
3,40,127,11
3,28,127,37
3,32,127,8
3,35,127,15
3,33,127,40
3,37,127,10
3,40,127,31
3,42,127,30
3,40,127,19
3,37,127,43
3,33,127,39
3,37,127,248
3,40,127,25
3,42,127,22
3,40,127,120
3,37,127,46
3,38,127,29
3,42,127,11
3,45,127,39
3,47,127,21
3,45,127,109
3,42,127,42
3,33,127,68
3,37,127,21
3,40,127,6
3,28,127,46
3,32,127,237
3,35,127,1
3,33,127,44
3,37,127,235
3,40,127,25
3,42,127,25
3,40,116,6
3,37,127,45
3,33,127,27
3,37,127,235
3,40,127,23
3,42,127,31
3,40,106,116
3,37,127,46
3,38,127,54
3,42,127,1
3,45,127,21
3,47,127,24
3,45,127,122
3,42,127,50
3,33,127,67
3,37,127,21
3,40,127,11
3,28,127,37
3,32,127,8
3,35,127,15
3,33,127,40
3,37,127,10
3,40,127,31
3,42,127,30
3,40,127,19
3,37,127,43
3,38,127,50
3,42,127,27
3,45,127,116
3,33,127,38
3,37,127,4
3,40,127,116
3,38,127,23
3,42,127,35
3,45,127,124
3,33,127,69
3,37,127,24
3,40,127,115
3,38,127,25
3,42,127,27
3,45,127,119
3,33,127,58
3,37,127,25
3,40,127,113
3,40,127,60
3,40,127,46
3,40,127,36
3,40,127,57
3,38,127,51
3,37,127,30
3,35,127,18
3,33,127,38
3,37,127,248
3,40,127,25
3,42,127,22
3,40,127,120
3,37,127,46
3,38,127,29
3,42,127,11
3,45,127,39
3,47,127,21
3,45,127,109
3,42,127,42
3,33,127,68
3,37,127,21
3,40,127,6
3,28,127,46
3,32,127,237
3,35,127,1
3,33,127,44
3,37,127,235
3,40,127,25
3,42,127,25
3,40,116,6
3,37,127,45
3,33,127,19
3,37,127,248
3,40,127,25
3,42,127,22
3,40,127,120
3,37,127,46
3,38,127,29
3,42,127,11
3,45,127,39
3,47,127,21
3,45,127,109
3,42,127,42
3,33,127,68
3,37,127,21
3,40,127,6
3,28,127,46
3,32,127,237
3,35,127,1
3,33,127,44
3,37,127,235
3,40,127,25
3,42,127,25
3,40,116,6
3,37,127,45
3,33,127,27
3,37,127,235
3,40,127,23
3,42,127,31
3,40,106,116
3,37,127,46
3,38,127,54
3,42,127,1
3,45,127,21
3,47,127,24
3,45,127,122
3,42,127,50
3,33,127,67
3,37,127,21
3,40,127,11
3,28,127,37
3,32,127,8
3,35,127,15
3,33,127,40
3,37,127,10
3,40,127,31
3,42,127,30
3,40,127,19
3,37,127,43
3,38,127,50
3,42,127,27
3,45,127,116
3,33,127,38
3,37,127,4
3,40,127,116
3,38,127,23
3,42,127,35
3,45,127,124
3,33,127,69
3,37,127,24
3,40,127,115
3,38,127,25
3,42,127,27
3,45,127,119
3,33,127,58
3,37,127,25
3,40,127,113
3,40,127,60
3,40,127,46
3,40,127,36
3,40,127,57
3,38,127,51
3,37,127,30
3,35,127,18
3,33,127,38
3,37,127,248
3,40,127,25
3,42,127,22
3,40,127,120
3,37,127,46
3,38,127,29
3,42,127,11
3,45,127,39
3,47,127,21
3,45,127,109
3,42,127,42
3,33,127,68
3,37,127,21
3,40,127,6
3,28,127,46
3,32,127,237
3,35,127,1
3,33,127,44
3,37,127,235
3,40,127,25
3,42,127,25
3,40,116,6
3,37,127,45
3,33,127,27
3,37,127,235
3,40,127,23
3,42,127,31
3,40,106,116
3,37,127,46
3,38,127,54
3,42,127,1
3,45,127,21
3,47,127,24
3,45,127,122
3,42,127,50
3,33,127,67
3,37,127,21
3,40,127,11
3,28,127,37
3,32,127,8
3,35,127,15
3,33,127,40
4,57,82,1787
4,61,90,0
4,45,95,0
4,64,95,1
4,55,86,47
4,64,99,1
4,61,95,0
4,45,99,0
4,45,95,219
4,57,95,1
4,64,101,0
4,61,95,1
4,45,99,206
4,57,82,1
4,64,101,0
4,61,86,2
4,62,95,202
4,66,90,1
4,69,95,1
4,50,99,1
4,57,90,1
4,60,86,43
4,69,99,0
4,66,95,0
4,50,90,4
4,62,90,211
4,66,86,1
4,69,99,1
4,50,95,0
4,62,90,216
4,69,90,1
4,66,86,0
4,57,86,191
4,64,95,1
4,45,86,2
4,61,82,0
4,57,77,196
4,61,90,1
4,64,90,2
4,45,86,1
4,56,82,212
4,59,95,0
4,64,90,1
4,52,99,0
4,59,99,39
4,56,73,3
4,64,101,0
4,52,86,4
4,57,82,201
4,61,86,1
4,64,86,2
4,45,69,2
4,57,90,209
4,45,90,1
4,61,95,0
4,64,99,0
4,61,90,202
4,57,90,1
4,64,90,0
4,45,95,1
4,45,95,42
4,57,86,11
4,61,86,0
4,64,95,1
4,61,90,189
4,57,86,0
4,64,95,0
4,45,95,2
4,57,86,197
4,61,90,0
4,64,99,0
4,45,90,4
4,57,90,203
4,61,90,0
4,64,95,2
4,45,99,0
4,45,101,162
4,64,95,45
4,55,82,1
4,61,90,1
4,62,90,125
4,66,73,2
4,69,86,0
4,57,77,4
4,50,73,3
4,62,86,193
4,66,86,1
4,69,95,1
4,50,90,1
4,57,77,2
4,62,86,203
4,66,86,1
4,69,90,0
4,50,99,0
4,57,77,2
4,50,101,152
4,69,90,39
4,60,86,2
4,66,82,0
4,45,90,31
4,57,86,63
4,61,90,1
4,64,90,0
4,57,86,195
4,61,95,0
4,64,99,1
4,59,95,204
4,52,95,1
4,56,86,0
4,64,90,0
4,52,101,161
4,59,95,31
4,64,95,1
4,56,69,0
4,45,95,11
4,64,101,121
4,57,86,0
4,61,95,3
4,45,90,209
4,57,86,3
4,61,90,0
4,64,99,1
4,57,86,201
4,61,95,0
4,64,90,1
4,45,90,0
4,45,101,147
4,64,95,38
4,57,86,0
4,61,95,1
4,66,90,205
4,62,101,1
4,57,86,0
4,66,95,210
4,57,90,1
4,62,101,0
4,64,101,203
4,57,86,1
4,61,90,1
4,61,90,223
4,64,101,0
4,57,90,2
4,57,86,184
4,62,99,0
4,66,90,0
4,57,86,218
4,66,95,1
4,62,99,0
4,64,101,191
4,61,95,1
4,57,86,0
4,64,99,209
4,61,90,1
4,57,90,0
4,66,95,205
4,62,101,0
4,57,77,1
4,66,99,204
4,62,101,2
4,57,95,0
4,64,101,207
4,57,95,1
4,61,95,0
4,61,95,200
4,64,99,0
4,57,86,2
4,64,95,197
4,59,95,1
4,56,86,0
4,59,99,208
4,64,90,1
4,56,73,2
4,64,95,199
4,59,101,0
4,56,77,1
4,64,95,200
4,59,101,0
4,56,82,2
4,57,82,199
4,61,90,0
4,45,95,0
4,64,95,1
4,55,86,47
4,64,99,1
4,61,95,0
4,45,99,0
4,45,95,219
4,57,95,1
4,64,101,0
4,61,95,1
4,45,99,206
4,57,82,1
4,64,101,0
4,61,86,2
4,62,95,202
4,66,90,1
4,69,95,1
4,50,99,1
4,57,90,1
4,60,86,43
4,69,99,0
4,66,95,0
4,50,90,4
4,62,90,211
4,66,86,1
4,69,99,1
4,50,95,0
4,62,90,216
4,69,90,1
4,66,86,0
4,57,86,191
4,64,95,1
4,45,86,2
4,61,82,0
4,57,77,196
4,61,90,1
4,64,90,2
4,45,86,1
4,56,82,212
4,59,95,0
4,64,90,1
4,52,99,0
4,59,99,39
4,56,73,3
4,64,101,0
4,52,86,4
4,57,82,201
4,61,86,1
4,64,86,2
4,45,69,2
4,57,90,209
4,45,90,1
4,61,95,0
4,64,99,0
4,61,90,202
4,57,90,1
4,64,90,0
4,45,95,1
4,45,95,42
4,57,86,11
4,61,86,0
4,64,95,1
4,61,90,189
4,57,86,0
4,64,95,0
4,45,95,2
4,57,86,197
4,61,90,0
4,64,99,0
4,45,90,4
4,57,90,203
4,61,90,0
4,64,95,2
4,45,99,0
4,45,101,162
4,64,95,45
4,55,82,1
4,61,90,1
4,62,90,125
4,66,73,2
4,69,86,0
4,57,77,4
4,50,73,3
4,62,86,193
4,66,86,1
4,69,95,1
4,50,90,1
4,57,77,2
4,62,86,203
4,66,86,1
4,69,90,0
4,50,99,0
4,57,77,2
4,50,101,152
4,69,90,39
4,60,86,2
4,66,82,0
4,45,90,31
4,57,86,63
4,61,90,1
4,64,90,0
4,57,86,195
4,61,95,0
4,64,99,1
4,59,95,204
4,52,95,1
4,56,86,0
4,64,90,0
4,52,101,161
4,59,95,31
4,64,95,1
4,56,69,0
4,45,95,11
4,64,101,121
4,57,86,0
4,61,95,3
4,45,90,209
4,57,86,3
4,61,90,0
4,64,99,1
4,57,86,201
4,61,95,0
4,64,90,1
4,45,90,0
4,45,101,147
4,64,95,38
4,57,86,0
4,61,95,1
4,57,82,202
4,61,90,0
4,45,95,0
4,64,95,1
4,55,86,47
4,64,99,1
4,61,95,0
4,45,99,0
4,45,95,219
4,57,95,1
4,64,101,0
4,61,95,1
4,45,99,206
4,57,82,1
4,64,101,0
4,61,86,2
4,62,95,202
4,66,90,1
4,69,95,1
4,50,99,1
4,57,90,1
4,60,86,43
4,69,99,0
4,66,95,0
4,50,90,4
4,62,90,211
4,66,86,1
4,69,99,1
4,50,95,0
4,62,90,216
4,69,90,1
4,66,86,0
4,57,86,191
4,64,95,1
4,45,86,2
4,61,82,0
4,57,77,196
4,61,90,1
4,64,90,2
4,45,86,1
4,56,82,212
4,59,95,0
4,64,90,1
4,52,99,0
4,59,99,39
4,56,73,3
4,64,101,0
4,52,86,4
4,57,82,201
4,61,86,1
4,64,86,2
4,45,69,2
4,57,90,209
4,45,90,1
4,61,95,0
4,64,99,0
4,61,90,202
4,57,90,1
4,64,90,0
4,45,95,1
4,45,95,42
4,57,86,11
4,61,86,0
4,64,95,1
4,61,90,189
4,57,86,0
4,64,95,0
4,45,95,2
4,57,86,197
4,61,90,0
4,64,99,0
4,45,90,4
4,57,90,203
4,61,90,0
4,64,95,2
4,45,99,0
4,45,101,162
4,64,95,45
4,55,82,1
4,61,90,1
4,62,90,125
4,66,73,2
4,69,86,0
4,57,77,4
4,50,73,3
4,62,86,193
4,66,86,1
4,69,95,1
4,50,90,1
4,57,77,2
4,62,86,203
4,66,86,1
4,69,90,0
4,50,99,0
4,57,77,2
4,50,101,152
4,69,90,39
4,60,86,2
4,66,82,0
4,45,90,31
4,57,86,63
4,61,90,1
4,64,90,0
4,57,86,195
4,61,95,0
4,64,99,1
4,59,95,204
4,52,95,1
4,56,86,0
4,64,90,0
4,52,101,161
4,59,95,31
4,64,95,1
4,56,69,0
4,45,95,11
4,64,101,121
4,57,86,0
4,61,95,3
4,45,90,209
4,57,86,3
4,61,90,0
4,64,99,1
4,57,86,201
4,61,95,0
4,64,90,1
4,45,90,0
4,45,101,147
4,64,95,38
4,57,86,0
4,61,95,1
4,66,90,205
4,62,101,1
4,57,86,0
4,66,95,210
4,57,90,1
4,62,101,0
4,64,101,203
4,57,86,1
4,61,90,1
4,61,90,223
4,64,101,0
4,57,90,2
4,57,86,184
4,62,99,0
4,66,90,0
4,57,86,218
4,66,95,1
4,62,99,0
4,64,101,191
4,61,95,1
4,57,86,0
4,64,99,209
4,61,90,1
4,57,90,0
4,66,95,205
4,62,101,0
4,57,77,1
4,66,99,204
4,62,101,2
4,57,95,0
4,64,101,207
4,57,95,1
4,61,95,0
4,61,95,200
4,64,99,0
4,57,86,2
4,64,95,197
4,59,95,1
4,56,86,0
4,59,99,208
4,64,90,1
4,56,73,2
4,64,95,199
4,59,101,0
4,56,77,1
4,64,95,200
4,59,101,0
4,56,82,2
4,57,82,199
4,61,90,0
4,45,95,0
4,64,95,1
4,55,86,47
4,64,99,1
4,61,95,0
4,45,99,0
4,45,95,219
4,57,95,1
4,64,101,0
4,61,95,1
4,45,99,206
4,57,82,1
4,64,101,0
4,61,86,2
4,62,95,202
4,66,90,1
4,69,95,1
4,50,99,1
4,57,90,1
4,60,86,43
4,69,99,0
4,66,95,0
4,50,90,4
4,62,90,211
4,66,86,1
4,69,99,1
4,50,95,0
4,62,90,216
4,69,90,1
4,66,86,0
4,57,86,191
4,64,95,1
4,45,86,2
4,61,82,0
4,57,77,196
4,61,90,1
4,64,90,2
4,45,86,1
4,56,82,212
4,59,95,0
4,64,90,1
4,52,99,0
4,59,99,39
4,56,73,3
4,64,101,0
4,52,86,4
4,57,82,201
4,61,86,1
4,64,86,2
4,45,69,2
4,57,90,209
4,45,90,1
4,61,95,0
4,64,99,0
4,61,90,202
4,57,90,1
4,64,90,0
4,45,95,1
4,45,95,42
4,57,86,11
4,61,86,0
4,64,95,1
4,57,82,188
4,61,90,0
4,45,95,0
4,64,95,1
4,55,86,47
4,64,99,1
4,61,95,0
4,45,99,0
4,45,95,219
4,57,95,1
4,64,101,0
4,61,95,1
4,45,99,206
4,57,82,1
4,64,101,0
4,61,86,2
4,62,95,202
4,66,90,1
4,69,95,1
4,50,99,1
4,57,90,1
4,60,86,43
4,69,99,0
4,66,95,0
4,50,90,4
4,62,90,211
4,66,86,1
4,69,99,1
4,50,95,0
4,62,90,216
4,69,90,1
4,66,86,0
4,57,86,191
4,64,95,1
4,45,86,2
4,61,82,0
4,57,77,196
4,61,90,1
4,64,90,2
4,45,86,1
4,56,82,212
4,59,95,0
4,64,90,1
4,52,99,0
4,59,99,39
4,56,73,3
4,64,101,0
4,52,86,4
4,57,82,201
4,61,86,1
4,64,86,2
4,45,69,2
4,57,90,209
4,45,90,1
4,61,95,0
4,64,99,0
4,61,90,202
4,57,90,1
4,64,90,0
4,45,95,1
4,45,95,42
4,57,86,11
4,61,86,0
4,64,95,1
4,61,90,189
4,57,86,0
4,64,95,0
4,45,95,2
4,57,86,197
4,61,90,0
4,64,99,0
4,45,90,4
4,57,90,203
4,61,90,0
4,64,95,2
4,45,99,0
4,45,101,162
4,64,95,45
4,55,82,1
4,61,90,1
4,62,90,125
4,66,73,2
4,69,86,0
4,57,77,4
4,50,73,3
4,62,86,193
4,66,86,1
4,69,95,1
4,50,90,1
4,57,77,2
4,62,86,203
4,66,86,1
4,69,90,0
4,50,99,0
4,57,77,2
4,50,101,152
4,69,90,39
4,60,86,2
4,66,82,0
4,45,90,31
4,57,86,63
4,61,90,1
4,64,90,0
4,57,86,195
4,61,95,0
4,64,99,1
4,59,95,204
4,52,95,1
4,56,86,0
4,64,90,0
4,52,101,161
4,59,95,31
4,64,95,1
4,56,69,0
4,45,95,11
