track,note,velocity,time
1,65,98,1524
1,62,95,0
1,58,80,12
1,65,92,96
1,62,87,4
1,58,73,8
1,62,106,276
1,67,98,4
1,58,82,8
1,62,92,64
1,58,61,8
1,65,98,12
1,63,87,608
1,70,84,4
1,67,85,4
1,70,78,44
1,63,69,12
1,67,76,4
1,72,79,228
1,63,79,4
1,67,79,4
1,63,24,28
1,67,73,4
1,70,95,12
1,65,98,580
1,62,103,4
1,58,87,4
1,65,98,88
1,62,92,4
1,58,70,8
1,67,103,264
1,62,95,4
1,58,82,4
1,62,85,64
1,58,70,4
1,65,95,12
1,60,95,572
1,57,98,4
1,53,87,8
1,57,87,88
1,60,92,4
1,53,63,8
1,57,98,268
1,62,98,4
1,53,87,4
1,57,87,60
1,53,48,16
1,60,95,12
1,65,103,616
1,62,98,4
1,58,82,4
1,62,95,112
1,65,92,4
1,58,80,4
1,67,98,296
1,62,98,0
1,58,87,4
1,58,73,60
1,62,80,0
1,65,95,12
1,70,92,600
1,63,87,4
1,67,90,4
1,67,80,84
1,70,95,4
1,63,61,4
1,63,70,204
1,67,73,4
1,72,90,4
1,67,75,60
1,70,95,12
1,57,106,304
1,65,95,4
1,60,95,4
1,53,98,0
1,57,87,84
1,60,85,4
1,65,98,4
1,53,80,4
1,57,95,216
1,60,90,4
1,53,85,4
1,65,85,4
1,57,90,96
1,65,90,4
1,60,85,4
1,53,82,4
1,57,98,280
1,60,98,4
1,65,98,4
1,53,95,4
1,53,98,248
1,58,103,4
1,62,98,4
1,57,109,592
1,60,98,4
1,53,106,4
1,65,106,860
1,58,95,4
1,62,109,4
1,62,106,632
1,65,98,4
1,58,95,4
1,63,109,536
1,67,103,4
1,58,92,4
1,58,92,560
1,63,109,4
1,67,98,4
1,58,92,464
1,62,98,4
1,65,95,0
1,58,92,596
1,62,106,4
1,65,98,4
1,63,104,584
1,67,98,4
1,70,92,4
1,63,83,516
1,70,87,4
1,67,85,4
1,62,109,616
1,65,103,4
1,58,92,4
1,69,98,592
1,65,95,4
1,60,82,4
1,62,106,644
1,65,98,4
1,58,92,4
1,62,106,596
1,65,103,4
1,58,90,4
1,62,98,532
1,65,98,4
1,58,87,4
1,58,92,548
1,62,109,4
1,65,98,4
1,67,92,584
1,70,90,4
1,63,91,4
1,63,87,528
1,67,85,4
1,70,90,4
1,58,90,604
1,62,98,4
1,65,98,4
1,62,103,520
1,58,95,0
1,65,98,4
1,63,95,592
1,67,92,4
1,70,90,4
1,67,90,520
1,70,87,4
1,63,83,4
1,62,109,592
1,65,103,4
1,58,95,4
1,65,98,624
1,69,103,4
1,60,95,4
1,62,103,604
1,65,103,4
1,58,87,4
1,62,109,580
1,65,98,4
1,58,92,4
1,62,106,520
1,65,98,4
1,58,92,4
1,62,109,628
1,65,98,4
1,58,95,4
1,67,92,592
1,63,95,4
1,70,90,4
1,67,92,556
1,70,92,4
1,63,98,4
1,62,106,600
1,65,98,4
1,58,92,4
1,62,106,516
1,58,92,4
1,65,98,4
1,67,92,608
1,63,91,4
1,70,92,4
1,63,91,544
1,67,98,4
1,70,95,4
1,62,109,560
1,65,103,4
1,58,95,4
1,65,98,612
1,69,98,4
1,60,95,4
1,62,106,580
1,65,103,4
1,58,95,4
1,58,98,412
1,62,106,0
1,65,109,0
1,62,103,332
1,65,95,4
1,58,90,4
1,65,98,88
1,62,103,4
1,58,82,4
1,62,106,224
1,67,98,4
1,58,82,8
1,62,80,28
1,58,77,4
1,65,98,20
1,67,92,588
1,70,92,4
1,63,91,4
1,63,83,60
1,67,67,4
1,70,75,4
1,67,87,224
1,63,87,4
1,72,90,4
1,63,61,44
1,67,77,4
1,70,95,24
1,62,98,584
1,65,103,4
1,58,80,8
1,65,98,80
1,62,77,4
1,58,75,4
1,67,103,268
1,58,92,8
1,62,98,4
1,58,65,36
1,62,92,4
1,65,98,20
1,57,98,564
1,53,95,4
1,60,92,4
1,57,92,104
1,53,82,8
1,60,82,0
1,62,103,268
1,57,98,0
1,53,87,4
1,53,70,44
1,57,92,8
1,60,95,24
1,62,98,592
1,65,103,4
1,58,80,4
1,62,98,104
1,65,95,4
1,58,82,4
1,62,98,288
1,67,95,4
1,58,87,4
1,58,70,32
1,62,87,8
1,65,98,16
1,67,24,32
1,63,87,596
1,70,92,4
1,67,82,4
1,63,83,80
1,67,90,4
1,70,90,4
1,72,92,152
1,63,81,4
1,67,80,4
1,67,59,72
1,70,92,4
1,57,106,276
1,60,98,8
1,53,95,4
1,57,92,84
1,60,92,4
1,53,65,4
1,57,92,248
1,60,90,4
1,53,80,8
1,60,92,88
1,57,98,4
1,53,80,4
1,57,106,260
1,60,98,4
1,53,98,8
1,53,106,180
1,58,98,4
1,62,106,0
1,57,111,536
1,53,106,8
1,60,111,4
1,65,103,4
1,82,92,324
1,70,95,12
1,79,87,0
1,67,95,4
1,75,77,24
1,63,95,4
1,68,91,120
1,80,87,4
1,72,87,4
1,84,87,4
1,63,83,180
1,75,70,20
1,79,73,92
1,82,90,4
1,67,85,4
1,70,90,4
1,75,83,0
1,63,91,12
1,80,91,124
1,68,95,12
1,84,82,4
1,72,95,12
1,63,87,12
1,75,81,0
1,67,90,112
1,82,87,4
1,79,87,4
1,70,98,4
1,63,95,8
1,75,81,8
1,68,95,108
1,72,85,12
1,80,95,0
1,84,87,4
1,63,87,8
1,75,81,24
1,70,92,128
1,67,95,28
1,82,40,12
1,79,85,20
1,63,111,168
1,75,95,8
1,62,109,280
1,65,111,4
1,58,98,0
1,58,87,4
1,63,104,140
1,67,92,4
1,58,82,12
1,65,87,144
1,62,87,4
1,58,90,4
1,63,104,136
1,67,80,8
1,58,82,4
1,65,98,148
1,62,98,36
1,58,92,188
1,62,109,248
1,65,111,4
1,70,106,8
1,62,106,128
1,58,95,4
1,65,92,4
1,70,95,4
1,60,95,28
1,72,95,136
1,48,85,20
1,67,85,96
1,64,90,68
1,72,90,32
1,48,80,16
1,67,85,76
1,64,85,28
1,60,63,12
1,72,85,20
1,48,85,36
1,67,87,72
1,64,82,76
1,60,85,48
1,72,92,36
1,48,82,16
1,67,87,76
1,64,87,12
1,60,75,80
1,72,92,12
1,48,92,12
1,67,15,4
1,64,59,4
1,48,90,124
1,62,95,208
1,64,98,4
1,67,98,0
1,72,106,4
1,48,85,12
1,64,98,160
1,60,98,4
1,67,106,4
1,72,98,4
1,48,82,48
1,65,103,136
1,53,90,76
1,65,90,200
1,72,106,4
1,69,106,0
1,53,90,36
1,72,95,8
1,69,103,4
1,65,95,4
1,53,92,128
1,65,103,188
1,53,98,120
1,69,63,32
1,65,103,12
1,72,20,4
1,77,90,24
1,75,104,48
1,69,73,16
1,87,98,0
1,72,63,12
1,74,95,76
1,86,98,12
1,73,101,40
1,85,97,16
1,72,92,52
1,84,97,4
1,53,103,32
1,58,92,228
1,65,95,300
1,58,85,8
1,62,98,4
1,58,90,128
1,62,106,4
1,65,109,4
1,67,106,184
1,58,95,4
1,62,95,4
1,65,98,100
1,63,95,488
1,70,92,4
1,67,92,4
1,70,80,56
1,67,85,8
1,63,83,4
1,63,91,164
1,72,92,4
1,70,95,168
1,67,80,4
1,62,103,460
1,65,98,4
1,58,92,4
1,62,95,96
1,65,95,4
1,58,82,4
1,58,92,240
1,67,98,4
1,62,98,4
1,62,80,56
1,65,103,8
1,53,95,492
1,57,103,4
1,60,95,4
1,57,95,96
1,60,90,4
1,53,85,4
1,53,103,284
1,62,98,4
1,57,95,4
1,53,61,76
1,57,82,4
1,60,95,12
1,62,80,4
1,65,98,524
1,62,106,4
1,58,92,4
1,62,98,100
1,65,98,4
1,58,80,4
1,58,95,252
1,62,106,4
1,67,98,4
1,58,73,40
1,62,87,12
1,65,98,8
1,51,98,200
1,70,95,356
1,67,92,4
1,63,98,4
1,70,82,80
1,67,92,0
1,63,81,4
1,63,87,156
1,67,77,4
1,72,92,0
1,57,98,120
1,60,98,0
1,53,98,4
1,65,82,4
1,41,95,4
1,53,67,28
1,57,82,4
1,60,87,4
1,65,87,16
1,41,92,20
1,60,95,196
1,65,95,4
1,41,98,4
1,57,98,4
1,53,87,4
1,53,85,52
1,57,95,4
1,60,85,4
1,65,87,0
1,41,95,12
1,65,103,224
1,57,109,4
1,60,98,0
1,41,95,8
1,53,92,4
1,46,90,148
1,65,106,4
1,58,103,4
1,62,109,4
1,70,95,4
1,41,103,500
1,65,106,8
1,53,109,4
1,57,111,4
1,60,109,4
1,65,106,676
1,58,95,4
1,62,109,4
1,62,106,632
1,65,98,4
1,58,95,4
1,63,109,536
1,67,103,4
1,58,92,4
1,58,92,560
1,63,109,4
1,67,98,4
1,58,92,464
1,62,98,4
1,65,95,0
1,58,92,596
1,62,106,4
1,65,98,4
1,63,104,584
1,67,98,4
1,70,92,4
1,63,83,516
1,70,87,4
1,67,85,4
1,62,109,616
1,65,103,4
1,58,92,4
1,69,98,592
1,65,95,4
1,60,82,4
1,62,106,644
1,65,98,4
1,58,92,4
1,62,106,596
1,65,103,4
1,58,90,4
1,62,98,532
1,65,98,4
1,58,87,4
1,58,92,548
1,62,109,4
1,65,98,4
1,67,92,584
1,70,90,4
1,63,91,4
1,63,87,528
1,67,85,4
1,70,90,4
1,58,90,604
1,62,98,4
1,65,98,4
1,62,103,520
1,58,95,0
1,65,98,4
1,63,95,592
1,67,92,4
1,70,90,4
1,67,90,520
1,70,87,4
1,63,83,4
1,62,109,592
1,65,103,4
1,58,95,4
1,65,98,624
1,69,103,4
1,60,95,4
1,62,103,604
1,65,103,4
1,58,87,4
1,62,109,580
1,65,98,4
1,58,92,4
1,62,106,520
1,65,98,4
1,58,92,4
1,62,109,628
1,65,98,4
1,58,95,4
1,67,92,592
1,63,95,4
1,70,90,4
1,67,92,556
1,70,92,4
1,63,98,4
1,62,106,600
1,65,98,4
1,58,92,4
1,62,106,516
1,58,92,4
1,65,98,4
1,67,92,608
1,63,91,4
1,70,92,4
1,63,91,544
1,67,98,4
1,70,95,4
1,62,109,560
1,65,103,4
1,58,95,4
1,65,98,612
1,69,98,4
1,60,95,4
1,62,106,580
1,65,103,4
1,58,95,4
1,62,106,376
1,65,109,4
1,58,98,4
1,65,98,400
1,62,95,4
1,58,80,12
1,65,92,96
1,62,87,4
1,58,73,8
1,62,106,276
1,67,98,4
1,58,82,8
1,62,92,64
1,58,61,8
1,65,98,12
1,63,87,608
1,70,90,4
1,67,87,4
1,70,77,44
1,63,64,12
1,67,67,4
1,72,87,228
1,63,77,4
1,67,82,4
1,63,24,28
1,67,73,4
1,70,95,12
1,65,98,580
1,62,103,4
1,58,87,4
1,65,98,88
1,62,92,4
1,58,70,8
1,67,103,264
1,62,95,4
1,58,82,4
1,62,85,64
1,58,70,4
1,65,95,12
1,60,95,572
1,57,98,4
1,53,87,8
1,57,87,88
1,60,92,4
1,53,63,8
1,57,98,268
1,62,98,4
1,53,87,4
1,57,87,60
1,53,48,16
1,60,95,12
1,65,103,616
1,62,98,4
1,58,82,4
1,62,95,112
1,65,92,4
1,58,80,4
1,67,98,296
1,62,98,0
1,58,87,4
1,58,73,60
1,62,80,0
1,65,95,12
1,70,92,600
1,63,87,4
1,67,90,4
1,67,80,84
1,70,95,4
1,63,61,4
1,63,70,204
1,67,73,4
1,72,90,4
1,67,75,60
1,70,95,12
1,69,82,272
1,72,77,4
1,57,106,28
1,65,95,4
1,60,95,4
1,53,98,0
1,57,87,84
1,60,85,4
1,65,70,4
1,53,80,4
1,57,95,216
1,60,90,4
1,53,85,4
1,65,85,4
1,69,57,76
1,72,26,8
1,57,90,12
1,65,90,4
1,60,85,4
1,53,82,4
1,57,98,280
1,60,98,4
1,65,98,4
1,53,95,4
1,53,98,256
1,65,98,0
1,58,103,4
1,62,98,4
1,101,93,12
1,100,85,12
1,98,70,4
1,96,65,12
1,94,65,12
1,93,63,20
1,91,67,16
1,89,65,8
1,88,57,16
1,86,55,20
1,84,49,20
1,82,45,28
1,81,42,24
1,79,43,32
1,77,47,28
1,76,40,28
1,70,93,132
1,60,96,4
1,65,102,4
1,62,102,4
2,34,88,1116
2,39,91,168
2,34,83,200
2,29,91,244
2,34,86,252
2,39,94,196
2,29,86,372
2,29,86,128
2,29,99,228
2,29,88,44
2,29,94,260
2,34,91,224
2,29,102,556
2,34,91,240
2,39,105,156
2,34,99,220
2,39,105,164
2,34,105,220
2,41,94,176
2,34,88,196
2,34,94,248
2,39,105,148
2,34,99,124
2,39,94,156
2,34,99,92
2,41,91,176
2,34,88,168
2,34,99,268
2,39,94,124
2,34,99,144
2,39,94,160
2,34,94,108
2,41,91,180
2,34,88,188
2,34,94,232
2,39,100,172
2,34,99,112
2,29,99,40
2,34,94,80
2,39,100,96
2,29,99,316
2,29,91,128
2,29,94,216
2,29,83,52
2,29,102,240
2,34,102,212
2,29,99,460
2,34,76,192
2,27,105,132
2,31,86,88
2,34,88,52
2,36,94,64
2,37,100,132
2,36,86,96
2,34,76,92
2,31,81,388
2,34,99,112
2,38,86,68
2,41,81,64
2,43,83,92
2,44,87,132
2,43,88,136
2,41,88,108
2,38,83,384
2,36,94,76
2,40,86,72
2,43,88,76
2,45,83,96
2,48,78,68
2,45,88,120
2,43,88,100
2,40,91,28
2,29,86,124
2,33,86,52
2,36,86,72
2,29,32,260
2,38,91,16
2,29,37,256
2,39,100,16
2,29,46,4
2,38,91,132
2,36,91,120
2,33,88,52
2,36,63,8
2,34,86,40
2,41,83,96
2,34,71,52
2,41,78,84
2,39,87,108
2,46,73,92
2,39,87,96
2,46,73,96
2,34,71,132
2,38,78,76
2,41,76,88
2,43,78,88
2,38,36,12
2,29,81,88
2,36,76,24
2,29,66,392
2,36,76,12
2,34,78,64
2,41,86,52
2,39,87,124
2,46,76,100
2,29,99,192
2,29,94,116
2,29,88,204
2,29,94,52
2,29,105,224
2,34,99,196
2,29,102,388
2,29,99,56
2,29,102,244
2,34,91,180
2,39,105,156
2,34,99,220
2,39,105,164
2,34,105,220
2,41,94,176
2,34,88,196
2,34,94,248
2,39,105,148
2,34,99,124
2,39,94,156
2,34,99,92
2,41,91,176
2,34,88,168
2,34,99,268
2,39,94,124
2,34,99,144
2,39,94,160
2,34,94,108
2,41,91,180
2,34,88,188
2,34,88,232
2,39,91,168
2,34,83,200
2,29,91,244
2,34,86,252
2,39,94,196
2,29,86,372
2,29,86,128
2,29,99,228
2,29,88,44
2,29,94,260
2,34,91,260
2,34,95,472
3,65,71,1520
3,62,69,0
3,62,71,60
3,67,79,4
3,65,82,160
3,70,76,580
3,67,69,4
3,67,66,44
3,72,87,8
3,72,36,48
3,70,79,24
3,65,82,720
3,62,76,4
3,62,57,56
3,67,79,8
3,62,57,48
3,65,82,20
3,60,87,592
3,57,76,0
3,62,71,84
3,57,45,20
3,60,71,20
3,65,87,616
3,62,79,4
3,62,61,88
3,67,76,0
3,65,79,164
3,70,87,632
3,67,76,4
3,67,22,56
3,72,66,4
3,70,66,164
3,69,82,264
3,65,74,0
3,65,64,92
3,69,76,4
3,65,64,232
3,69,69,0
3,65,54,88
3,69,74,4
3,65,69,276
3,69,76,4
3,65,79,276
3,70,82,4
3,69,90,632
3,65,79,4
3,58,74,28200
3,62,90,4
3,65,82,4
3,67,82,52
3,65,87,16
3,62,87,56
3,58,76,192
3,63,79,472
3,70,66,4
3,67,76,4
3,67,51,44
3,63,65,4
3,72,79,8
3,63,29,52
3,70,74,8
3,67,66,184
3,62,93,520
3,58,76,4
3,65,82,4
3,58,49,48
3,67,82,8
3,65,87,384
3,62,79,48
3,65,69,500
3,69,74,4
3,72,69,4
3,65,39,52
3,74,79,12
3,69,59,8
3,65,66,116
3,72,79,4
3,69,82,188
3,58,76,488
3,62,90,4
3,65,82,4
3,62,25,28
3,67,76,16
3,58,34,72
3,65,76,4
3,62,79,40
3,63,79,504
3,67,79,4
3,70,79,4
3,63,19,40
3,72,66,28
3,70,64,124
3,67,57,180
3,69,87,284
3,72,79,4
3,65,82,4
3,58,79,1044
