track,note,velocity,time
0,35,83,2676
0,40,56,0
0,33,100,2
0,45,97,2
0,57,104,0
0,40,56,98
0,40,100,32
0,42,79,2
0,69,87,0
0,40,63,120
0,57,85,2
0,35,72,84
0,40,66,2
0,33,95,2
0,40,59,106
0,40,96,44
0,42,79,0
0,69,95,2
0,40,47,90
0,57,91,2
0,35,106,76
0,40,68,2
0,45,84,0
0,40,53,140
0,57,104,2
0,40,106,24
0,42,100,0
0,69,91,2
0,40,48,104
0,57,90,2
0,35,106,6
0,40,72,0
0,33,91,2
0,40,63,114
0,40,106,62
0,42,100,2
0,69,95,0
0,40,53,124
0,35,106,36
0,40,66,2
0,33,88,0
0,45,93,2
0,40,65,104
0,57,91,2
0,40,106,54
0,42,96,2
0,69,93,0
0,40,50,116
0,57,85,0
0,35,79,82
0,40,68,2
0,33,91,0
0,40,60,134
0,57,67,2
0,40,96,54
0,42,100,2
0,69,95,0
0,40,54,66
0,57,85,2
0,35,106,70
0,40,60,2
0,45,85,0
0,40,60,154
0,57,104,2
0,40,100,8
0,42,100,2
0,69,91,2
0,40,57,98
0,57,88,2
0,35,106,54
0,40,70,0
0,33,93,2
0,40,65,136
0,81,127,0
0,40,100,14
0,42,96,0
0,69,108,2
0,40,57,28
0,35,83,70
0,40,56,2
0,33,72,0
0,45,72,2
0,57,65,0
0,78,127,2
0,40,56,10
0,81,127,2
0,40,100,34
0,42,79,2
0,64,66,0
0,61,65,2
0,69,56,0
0,69,70,2
0,73,70,2
0,76,56,0
0,40,63,82
0,57,55,0
0,35,72,10
0,40,66,2
0,37,79,0
0,49,79,2
0,61,57,0
0,64,79,2
0,69,57,0
0,40,59,106
0,64,53,0
0,69,52,2
0,61,47,2
0,69,57,0
0,73,68,2
0,76,53,0
0,40,96,8
0,42,79,2
0,81,127,0
0,40,47,106
0,69,63,2
0,64,68,0
0,61,72,2
0,35,106,76
0,40,68,2
0,40,70,0
0,52,70,2
0,69,63,2
0,73,70,0
0,76,57,2
0,84,127,0
0,57,66,12
0,40,53,32
0,40,106,50
0,42,100,2
0,61,66,0
0,64,83,2
0,69,51,2
0,83,127,0
0,40,48,110
0,42,72,0
0,54,72,2
0,69,54,2
0,61,57,0
0,64,54,2
0,73,88,0
0,69,65,2
0,76,65,0
0,81,127,2
0,35,106,4
0,40,72,2
0,40,63,114
0,40,66,2
0,52,66,0
0,57,59,2
0,40,106,60
0,42,100,0
0,37,72,2
0,49,72,2
0,69,53,0
0,61,66,2
0,64,65,0
0,69,60,2
0,73,70,0
0,76,65,2
0,81,127,0
0,40,53,30
0,64,54,2
0,61,52,0
0,35,106,36
0,40,66,2
0,38,79,2
0,50,79,0
0,57,63,2
0,78,127,0
0,40,65,50
0,81,127,2
0,40,106,54
0,42,96,0
0,66,68,2
0,62,70,0
0,69,60,2
0,69,65,0
0,74,70,2
0,78,57,0
0,40,50,38
0,57,56,2
0,35,79,26
0,40,68,0
0,42,88,2
0,54,88,2
0,62,65,0
0,69,55,2
0,66,65,0
0,40,60,122
0,62,62,0
0,69,56,2
0,66,63,0
0,69,65,2
0,74,68,2
0,78,63,0
0,40,96,18
0,42,100,2
0,81,127,0
0,40,54,86
0,69,63,2
0,62,68,0
0,66,68,0
0,35,106,70
0,40,60,2
0,45,72,0
0,57,72,2
0,69,65,0
0,74,66,2
0,78,62,2
0,84,127,0
0,40,60,148
0,57,60,0
0,40,100,10
0,42,100,2
0,69,62,0
0,66,66,2
0,62,63,2
0,83,127,0
0,40,57,38
0,47,66,0
0,59,66,2
0,62,50,2
0,69,52,0
0,66,56,2
0,74,68,0
0,69,68,2
0,78,66,0
0,81,127,2
0,35,106,56
0,40,70,2
0,40,65,116
0,45,66,2
0,57,66,0
0,57,66,0
0,40,100,2
0,42,96,2
0,40,33,0
0,52,33,2
0,62,66,2
0,69,60,0
0,66,66,2
0,69,45,0
0,74,56,2
0,78,68,0
0,81,127,2
0,40,57,28
0,35,83,70
0,40,56,2
0,33,70,0
0,45,70,2
0,57,68,2
0,78,127,0
0,40,56,76
0,81,127,2
0,40,100,32
0,42,79,2
0,64,66,2
0,69,54,0
0,61,63,2
0,76,68,0
0,69,68,2
0,73,96,0
0,40,63,82
0,57,68,2
0,35,72,84
0,40,66,2
0,37,79,2
0,49,79,0
0,61,60,2
0,64,45,0
0,69,47,2
0,40,59,106
0,61,52,2
0,64,59,0
0,69,54,2
0,73,100,0
0,76,68,2
0,69,68,2
0,81,127,0
0,40,96,18
0,42,79,0
0,40,47,100
0,64,66,2
0,59,54,2
0,62,66,0
0,68,65,2
0,35,106,76
0,40,68,2
0,40,68,0
0,52,68,2
0,71,60,2
0,74,65,0
0,76,72,2
0,80,59,0
0,84,127,2
0,40,53,140
0,59,70,2
0,40,106,24
0,42,100,0
0,62,65,2
0,64,72,2
0,68,62,0
0,83,127,0
0,40,48,56
0,42,68,2
0,54,68,2
0,64,28,2
0,62,34,0
0,74,72,2
0,71,70,0
0,76,66,2
0,80,65,0
0,35,106,6
0,40,72,0
0,68,40,2
0,62,18,2
0,81,127,0
0,40,63,68
0,59,65,0
0,40,106,38
0,42,100,2
0,40,68,0
0,52,68,2
0,62,59,2
0,64,79,0
0,68,56,2
0,76,72,0
0,80,66,2
0,71,65,0
0,74,68,2
0,78,127,0
0,40,53,60
0,35,106,36
0,40,66,2
0,33,70,0
0,45,70,2
0,57,72,2
0,81,127,0
0,40,65,106
0,40,106,54
0,42,96,2
0,61,56,2
0,64,88,0
0,69,55,2
0,69,56,0
0,73,66,2
0,76,55,0
0,40,50,72
0,57,52,2
0,35,79,8
0,40,68,0
0,37,83,2
0,49,83,0
0,61,56,2
0,64,62,2
0,69,56,0
0,40,60,132
0,64,56,2
0,69,53,0
0,61,59,2
0,69,65,0
0,73,72,2
0,76,68,0
0,78,127,2
0,40,96,14
0,42,100,2
0,40,54,140
0,64,66,2
0,62,66,0
0,59,54,2
0,68,57,0
0,35,106,70
0,40,60,2
0,40,70,2
0,52,70,0
0,68,70,2
0,71,79,2
0,76,62,0
0,76,127,2
0,40,60,152
0,59,66,2
0,40,100,2
0,42,100,2
0,62,66,2
0,64,83,0
0,68,72,2
0,40,57,152
0,42,70,0
0,54,70,2
0,62,63,2
0,64,68,0
0,68,52,2
0,68,70,0
0,71,68,2
0,76,68,0
0,35,106,54
0,40,70,0
0,40,65,136
0,42,55,0
0,54,55,2
0,59,57,2
0,78,127,0
0,40,100,10
0,42,96,2
0,40,70,0
0,52,70,2
0,64,79,0
0,62,72,2
0,68,72,0
0,68,46,2
0,71,65,0
0,76,65,2
0,40,57,4
0,35,83,70
0,40,56,2
0,33,79,0
0,45,79,2
0,57,70,2
0,78,127,0
0,40,56,2
0,81,127,0
0,40,100,36
0,42,79,2
0,61,65,0
0,64,70,2
0,69,56,0
0,76,72,2
0,81,63,0
0,73,96,0
0,40,63,76
0,57,53,0
0,35,72,86
0,40,66,2
0,37,72,0
0,49,72,2
0,61,53,0
0,64,63,2
0,69,38,0
0,40,59,106
0,69,47,0
0,61,40,2
0,64,46,2
0,73,88,0
0,76,66,2
0,81,65,0
0,40,96,20
0,42,79,2
0,81,127,0
0,40,47,84
0,61,70,2
0,64,66,0
0,69,66,2
0,35,106,76
0,40,68,2
0,40,70,0
0,52,70,2
0,73,70,2
0,76,65,0
0,81,57,2
0,84,127,0
0,40,53,140
0,57,65,2
0,40,106,10
0,42,100,2
0,64,70,2
0,69,54,0
0,61,65,2
0,83,127,0
0,40,48,68
0,42,70,2
0,54,70,0
0,57,57,2
0,73,72,2
0,76,66,0
0,81,59,2
0,81,127,0
0,35,106,6
0,40,72,0
0,40,63,2
0,40,72,2
0,52,72,2
0,57,57,0
0,69,47,2
0,40,106,26
0,42,100,2
0,37,68,0
0,49,68,2
0,61,70,0
0,64,68,2
0,69,59,0
0,81,56,2
0,73,59,0
0,76,65,2
0,81,127,0
0,40,53,16
0,35,106,36
0,40,66,2
0,38,83,2
0,50,83,0
0,57,72,2
0,69,63,2
0,78,127,0
0,40,65,40
0,81,127,2
0,40,106,54
0,42,96,0
0,66,66,2
0,69,56,0
0,62,65,2
0,69,63,0
0,78,68,2
0,74,68,2
0,40,50,78
0,57,57,0
0,35,79,2
0,40,68,2
0,42,88,0
0,54,88,2
0,62,62,0
0,66,57,2
0,69,32,0
0,40,60,134
0,62,60,2
0,69,54,0
0,66,57,2
0,69,66,0
0,74,68,2
0,78,65,0
0,40,96,4
0,42,100,2
0,81,127,0
0,40,54,74
0,62,83,2
0,69,68,2
0,66,79,0
0,35,106,70
0,40,60,2
0,45,72,0
0,57,72,2
0,74,66,2
0,78,68,0
0,69,66,2
0,84,127,0
0,40,60,156
0,57,66,0
0,40,100,38
0,42,100,2
0,69,55,2
0,62,66,0
0,66,56,2
0,83,127,0
0,40,57,42
0,47,65,0
0,59,65,2
0,57,65,2
0,78,66,0
0,69,65,2
0,74,68,2
0,81,127,0
0,35,106,54
0,40,70,2
0,40,65,70
0,45,70,2
0,57,70,0
0,57,65,2
0,69,28,0
0,40,100,54
0,42,96,2
0,42,70,0
0,54,70,2
0,62,70,2
0,69,55,0
0,66,59,2
0,74,54,0
0,78,70,2
0,81,127,0
0,40,57,28
0,35,83,70
0,40,56,2
0,33,79,2
0,45,79,0
0,57,72,2
0,78,127,0
0,40,56,74
0,81,127,2
0,40,100,34
0,42,79,0
0,64,60,2
0,61,52,0
0,69,49,2
0,69,66,0
0,81,59,2
0,73,83,0
0,76,68,0
0,40,63,76
0,57,55,2
0,35,72,86
0,40,66,0
0,37,96,2
0,49,96,2
0,64,60,0
0,69,49,2
0,61,54,0
0,40,59,106
0,69,54,2
0,61,50,2
0,64,55,0
0,69,63,2
0,73,72,0
0,76,70,2
0,81,59,0
0,81,127,2
0,40,96,24
0,42,79,2
0,40,47,88
0,64,68,2
0,59,56,2
0,62,68,0
0,68,65,2
0,35,106,78
0,40,68,0
0,40,68,2
0,52,68,2
0,74,66,0
0,76,66,2
0,71,59,0
0,80,59,2
0,84,127,0
0,40,53,104
0,59,62,2
0,40,106,4
0,42,100,0
0,62,68,2
0,64,68,2
0,68,68,0
0,83,127,0
0,40,48,56
0,42,70,0
0,54,70,2
0,68,49,2
0,62,53,0
0,64,54,2
0,71,72,0
0,74,83,2
0,76,66,0
0,80,66,2
0,35,106,6
0,40,72,2
0,81,127,0
0,40,63,4
0,59,65,0
0,71,56,2
0,40,106,56
0,42,100,2
0,40,68,0
0,52,68,2
0,62,65,2
0,64,70,0
0,68,55,2
0,74,60,0
0,76,66,2
0,80,66,0
0,78,127,2
0,40,53,22
0,35,106,36
0,40,66,2
0,33,72,0
0,45,72,2
0,57,79,2
0,81,127,0
0,40,65,106
0,40,106,54
0,42,96,2
0,69,55,2
0,61,63,0
0,64,66,2
0,76,70,0
0,73,79,2
0,69,72,0
0,81,43,2
0,40,50,106
0,57,46,2
0,35,79,82
0,40,68,0
0,37,79,2
0,49,79,0
0,64,44,2
0,69,55,0
0,40,60,134
0,64,53,2
0,61,46,0
0,69,46,2
0,76,72,0
0,69,72,2
0,73,70,0
0,81,56,2
0,40,96,16
0,42,100,2
0,40,54,158
0,40,68,2
0,52,68,2
0,61,70,0
0,64,70,2
0,69,47,0
0,35,106,70
0,40,60,2
0,69,66,2
0,73,72,0
0,76,70,2
0,81,60,0
0,40,60,128
0,37,68,2
0,49,68,2
0,57,70,2
0,40,100,44
0,42,100,0
0,33,56,2
0,45,56,0
0,69,54,2
0,64,66,2
0,61,62,0
0,40,57,152
0,64,42,0
0,61,37,2
0,73,79,0
0,81,60,2
0,69,70,2
0,76,70,0
0,35,106,4
0,40,70,0
0,35,70,2
0,47,70,2
0,40,65,68
0,57,62,2
0,69,41,0
0,40,100,54
0,42,96,2
0,37,100,0
0,49,100,2
0,64,66,2
0,61,68,0
0,69,63,0
0,73,63,2
0,76,70,2
0,81,68,0
0,40,57,6
0,35,83,70
0,40,56,2
0,38,88,0
0,50,88,2
0,69,68,2
0,66,68,0
0,74,62,2
0,86,127,0
0,40,56,10
0,62,46,0
0,86,127,2
0,40,100,34
0,42,79,2
0,42,79,0
0,54,79,2
0,66,57,2
0,69,66,0
0,74,62,0
0,69,70,2
0,74,96,2
0,78,66,0
0,86,127,0
0,40,63,102
0,35,72,50
0,40,66,2
0,45,72,0
0,57,72,2
0,66,83,2
0,69,70,0
0,74,68,2
0,86,127,0
0,40,59,78
0,40,96,34
0,42,79,2
0,47,79,0
0,59,79,2
0,74,68,2
0,66,72,0
0,69,72,2
0,69,72,0
0,74,88,2
0,78,70,0
0,86,127,2
0,40,47,28
0,35,106,76
0,40,68,2
0,33,72,0
0,45,72,2
0,85,127,2
0,40,53,140
0,69,70,2
0,64,66,2
0,73,70,0
0,66,55,2
0,40,106,4
0,42,100,2
0,37,79,2
0,49,79,0
0,69,70,2
0,76,70,2
0,73,100,0
0,81,127,2
0,40,48,104
0,81,127,2
0,35,106,6
0,40,72,2
0,40,70,0
0,52,70,2
0,69,72,0
0,64,68,2
0,73,68,0
0,40,63,18
0,40,106,54
0,42,100,2
0,42,70,2
0,54,70,0
0,69,72,2
0,73,68,0
0,64,66,2
0,76,70,0
0,69,68,2
0,73,100,2
0,40,53,2
0,35,106,38
0,40,66,0
0,38,70,2
0,50,70,0
0,62,59,2
0,86,127,2
0,40,65,80
0,66,68,2
0,69,65,2
0,74,59,0
0,40,106,54
0,42,96,0
0,42,88,2
0,54,88,2
0,78,68,0
0,69,79,2
0,74,96,0
0,86,127,2
0,40,50,86
0,62,68,0
0,35,79,4
0,40,68,0
0,45,72,2
0,57,72,0
0,66,66,2
0,69,72,2
0,74,72,0
0,86,127,2
0,40,60,40
0,40,96,50
0,42,100,2
0,47,79,0
0,59,79,2
0,66,96,2
0,69,72,0
0,74,66,0
0,74,100,2
0,69,83,2
0,78,66,0
0,86,127,2
0,40,54,22
0,35,106,70
0,40,60,2
0,33,79,0
0,45,79,2
0,69,68,2
0,73,70,0
0,85,127,2
0,40,60,22
0,64,66,0
0,40,100,48
0,42,100,2
0,37,96,2
0,49,96,0
0,69,50,2
0,73,68,0
0,76,68,2
0,69,70,2
0,73,88,0
0,81,127,2
0,81,127,14
0,40,57,90
0,35,106,54
0,40,70,2
0,40,72,0
0,52,72,2
0,69,70,2
0,73,72,0
0,40,65,88
0,40,100,54
0,42,96,2
0,42,83,0
0,54,83,2
0,69,96,2
0,73,88,0
0,76,72,2
0,69,70,2
0,73,96,0
0,40,57,28
0,35,83,70
0,40,56,2
0,38,83,2
0,50,83,0
0,62,83,2
0,86,127,0
0,40,56,96
0,66,68,2
0,69,72,2
0,74,70,0
0,81,127,2
0,40,100,34
0,42,79,0
0,42,88,2
0,54,88,0
0,69,79,2
0,74,96,2
0,78,68,0
0,86,127,2
0,40,63,64
0,62,63,2
0,35,72,42
0,40,66,0
0,45,79,2
0,57,79,2
0,66,68,0
0,69,70,2
0,74,48,0
0,86,127,2
0,40,59,60
0,40,96,44
0,42,79,2
0,47,79,0
0,59,79,2
0,66,88,2
0,69,72,0
0,74,68,2
0,69,79,0
0,74,83,2
0,78,70,0
0,86,127,2
0,40,47,26
0,35,106,78
0,40,68,0
0,33,79,2
0,45,79,2
0,69,70,0
0,73,79,2
0,85,127,0
0,40,53,0
0,64,66,2
0,40,106,22
0,42,100,2
0,37,88,0
0,49,88,2
0,69,68,0
0,73,70,2
0,69,72,0
0,76,70,2
0,73,106,2
0,81,127,0
0,40,48,120
0,81,127,0
0,35,106,6
0,40,72,2
0,40,72,0
0,52,72,2
0,69,72,2
0,73,83,0
0,40,63,92
0,40,106,60
0,42,100,2
0,42,70,0
0,54,70,2
0,69,83,2
0,73,83,0
0,69,83,2
0,73,100,0
0,76,72,2
0,40,53,106
0,81,127,2
0,35,106,16
0,40,66,2
0,40,79,0
0,52,79,2
0,68,88,2
0,71,72,0
0,76,68,2
0,83,127,0
0,40,65,18
0,56,83,2
0,40,106,38
