track,note,velocity,time
1,46,93,1136
1,65,86,188
1,62,73,4
1,58,29,0
1,41,83,8
1,57,91,192
1,60,88,0
1,53,63,0
1,46,98,28
1,46,104,596
1,62,91,188
1,65,91,0
1,58,73,0
1,41,101,20
1,57,91,188
1,60,86,0
1,53,76,0
1,46,98,52
1,41,98,32
1,43,98,192
1,45,98,68
1,65,91,244
1,60,86,0
1,62,94,0
1,62,95,224
1,65,88,0
1,58,79,0
1,62,86,104
1,65,89,0
1,60,89,4
1,62,89,136
1,65,83,0
1,58,71,0
1,62,93,88
1,65,88,0
1,60,86,0
1,62,86,96
1,65,86,0
1,58,71,0
1,62,93,96
1,60,86,4
1,65,88,0
1,65,86,48
1,62,88,0
1,58,83,0
1,60,88,136
1,62,88,4
1,65,88,0
1,62,96,104
1,65,93,0
1,58,86,0
1,62,93,80
1,58,79,0
1,65,93,0
1,62,83,108
1,65,81,4
1,58,69,0
1,57,88,232
1,60,83,0
1,53,67,4
1,57,96,108
1,60,88,4
1,53,49,4
1,65,91,228
1,62,98,0
1,58,79,0
1,62,101,48
1,58,86,0
1,65,98,0
1,58,79,256
1,62,86,4
1,65,86,0
1,62,96,100
1,65,88,0
1,60,86,4
1,62,83,108
1,65,83,4
1,58,69,0
1,62,96,108
1,65,91,0
1,60,81,0
1,62,91,120
1,65,91,0
1,58,81,4
1,62,91,120
1,65,91,0
1,60,81,0
1,62,88,128
1,65,86,0
1,58,69,0
1,62,101,44
1,60,93,0
1,65,101,0
1,62,81,304
1,65,76,0
1,58,65,4
1,62,93,80
1,65,91,0
1,60,83,0
1,62,93,100
1,65,91,0
1,58,86,0
1,62,91,84
1,65,91,0
1,58,79,0
1,57,93,216
1,60,88,4
1,53,81,0
1,57,93,132
1,60,91,0
1,65,91,212
1,62,98,4
1,58,86,0
1,62,109,48
1,58,86,0
1,65,104,0
1,58,81,204
1,67,88,4
1,63,87,0
1,67,88,132
1,58,79,0
1,63,87,0
1,63,93,108
1,67,91,0
1,58,86,4
1,67,98,40
1,63,101,0
1,58,88,0
1,62,93,192
1,65,86,0
1,58,81,4
1,65,88,128
1,62,91,0
1,58,71,4
1,62,93,104
1,65,88,0
1,58,81,0
1,62,98,48
1,65,93,0
1,58,86,0
1,64,91,180
1,67,86,0
1,60,86,4
1,67,88,104
1,64,93,0
1,60,83,0
1,64,98,64
1,67,91,0
1,60,86,0
1,64,98,28
1,60,93,0
1,67,98,0
1,57,88,276
1,60,86,0
1,53,50,4
1,57,98,24
1,60,88,0
1,53,88,0
1,57,93,164
1,60,91,0
1,53,81,4
1,57,96,32
1,53,79,0
1,60,91,4
1,62,93,300
1,65,88,0
1,58,73,0
1,62,96,104
1,65,91,0
1,58,79,4
1,62,98,120
1,65,91,0
1,58,83,0
1,62,101,100
1,65,96,0
1,58,86,0
1,65,79,60
1,62,91,0
1,58,79,4
1,62,96,120
1,65,93,0
1,58,86,4
1,58,71,128
1,60,101,56
1,62,109,0
1,65,104,0
1,62,91,76
1,65,91,0
1,58,83,0
1,62,96,112
1,65,91,4
1,58,79,0
1,62,91,100
1,65,91,0
1,58,81,0
1,62,96,116
1,65,96,0
1,58,67,0
1,57,96,240
1,60,93,0
1,53,83,0
1,57,101,124
1,60,98,0
1,53,67,4
1,65,91,204
1,62,96,0
1,58,83,0
1,62,104,40
1,65,98,0
1,58,88,0
1,65,91,184
1,60,86,0
1,62,93,0
1,62,93,224
1,65,88,0
1,58,81,0
1,62,91,104
1,65,91,0
1,60,86,4
1,62,83,136
1,65,83,0
1,58,71,0
1,62,93,88
1,65,88,0
1,60,86,0
1,62,86,96
1,65,86,0
1,58,71,0
1,62,93,96
1,60,86,4
1,65,88,0
1,65,86,48
1,62,88,0
1,58,83,0
1,60,88,136
1,62,88,4
1,65,88,0
1,62,96,104
1,65,93,0
1,58,86,0
1,62,93,80
1,58,79,0
1,65,93,0
1,62,83,108
1,65,81,4
1,58,69,0
1,57,88,232
1,60,83,0
1,53,67,4
1,57,96,108
1,60,88,4
1,53,49,4
1,65,91,228
1,62,98,0
1,58,79,0
1,62,101,48
1,58,86,0
1,65,98,0
1,58,79,256
1,62,86,4
1,65,86,0
1,62,96,100
1,65,88,0
1,60,86,4
1,62,83,108
1,65,83,4
1,58,69,0
1,62,96,108
1,65,91,0
1,60,81,0
1,62,91,120
1,65,91,0
1,58,81,4
1,62,91,120
1,65,91,0
1,60,81,0
1,62,88,128
1,65,86,0
1,58,69,0
1,62,101,44
1,60,93,0
1,65,101,0
1,62,81,304
1,65,76,0
1,58,65,4
1,62,93,80
1,65,91,0
1,60,83,0
1,62,93,100
1,65,91,0
1,58,86,0
1,62,91,84
1,65,91,0
1,58,79,0
1,57,93,216
1,60,88,4
1,53,81,0
1,57,93,132
1,60,91,0
1,65,91,212
1,62,98,4
1,58,86,0
1,62,109,48
1,58,86,0
1,65,104,0
1,58,81,204
1,67,88,4
1,63,87,0
1,67,88,132
1,58,79,0
1,63,87,0
1,63,93,108
1,67,91,0
1,58,86,4
1,67,98,40
1,63,101,0
1,58,88,0
1,62,93,192
1,65,86,0
1,58,81,4
1,65,88,128
1,62,91,0
1,58,71,4
1,62,93,104
1,65,88,0
1,58,81,0
1,62,98,48
1,65,93,0
1,58,86,0
1,58,42,48
1,64,91,180
1,67,86,0
1,60,86,4
1,67,88,104
1,64,93,0
1,60,83,0
1,64,98,64
1,67,91,0
1,60,86,0
1,64,98,28
1,60,93,0
1,67,98,0
1,57,88,276
1,60,86,0
1,53,48,4
1,57,98,24
1,60,88,0
1,53,88,0
1,57,93,164
1,60,91,0
1,53,81,4
1,57,96,32
1,53,79,0
1,60,91,4
1,62,93,300
1,65,88,0
1,58,73,0
1,62,96,104
1,65,91,0
1,58,79,4
1,62,98,120
1,65,91,0
1,58,83,0
1,62,101,100
1,65,96,0
1,58,86,0
1,65,79,60
1,62,91,0
1,58,79,4
1,62,96,120
1,65,93,0
1,58,86,4
1,58,71,128
1,60,101,56
1,62,109,0
1,65,104,0
1,62,91,76
1,65,91,0
1,58,83,0
1,62,96,112
1,65,91,4
1,58,79,0
1,62,91,100
1,65,91,0
1,58,81,0
1,62,96,116
1,65,96,0
1,58,67,0
1,57,96,240
1,60,93,0
1,53,83,0
1,57,101,124
1,60,98,0
1,53,67,4
1,65,91,204
1,62,96,0
1,58,83,0
1,62,104,40
1,65,98,0
1,58,88,0
1,65,86,184
1,62,73,4
1,58,29,0
1,57,91,248
1,60,88,0
1,53,63,0
1,62,91,1008
1,65,91,0
1,58,73,0
1,57,91,232
1,60,86,0
1,53,76,0
1,65,91,1016
1,60,86,0
1,62,93,0
1,62,93,224
1,65,88,0
1,58,81,0
1,62,91,104
1,65,91,0
1,60,86,4
1,62,83,136
1,65,83,0
1,58,71,0
1,62,93,88
1,65,88,0
1,60,86,0
1,62,86,96
1,65,86,0
1,58,71,0
1,62,93,96
1,60,86,4
1,65,88,0
1,65,86,48
1,62,88,0
1,58,83,0
1,60,88,136
1,62,88,4
1,65,88,0
1,62,96,104
1,65,93,0
1,58,86,0
1,62,93,80
1,58,79,0
1,65,93,0
1,62,83,108
1,65,81,4
1,58,69,0
1,57,88,232
1,60,83,0
1,53,67,4
1,57,96,108
1,60,88,4
1,53,49,4
1,65,91,228
1,62,98,0
1,58,79,0
1,62,101,48
1,58,86,0
1,65,98,0
1,58,79,256
1,62,86,4
1,65,86,0
1,62,96,100
1,65,88,0
1,60,86,4
1,62,83,108
1,65,83,4
1,58,69,0
1,62,96,108
1,65,91,0
1,60,81,0
1,62,91,120
1,65,91,0
1,58,81,4
1,62,91,120
1,65,91,0
1,60,81,0
1,62,88,128
1,65,86,0
1,58,69,0
1,62,101,44
1,60,93,0
1,65,101,0
1,62,81,304
1,65,76,0
1,58,65,4
1,62,93,80
1,65,91,0
1,60,83,0
1,62,93,100
1,65,91,0
1,58,86,0
1,62,91,84
1,65,91,0
1,58,79,0
1,57,93,216
1,60,88,4
1,53,81,0
1,57,93,132
1,60,91,0
1,65,91,212
1,62,98,4
1,58,86,0
1,62,109,48
1,58,86,0
1,65,104,0
1,58,81,204
1,67,88,4
1,63,87,0
1,67,88,132
1,58,79,0
1,63,87,0
1,63,93,108
1,67,91,0
1,58,86,4
1,67,98,40
1,63,101,0
1,58,88,0
1,62,93,192
1,65,86,0
1,58,81,4
1,65,88,128
1,62,91,0
1,58,71,4
1,62,93,104
1,65,88,0
1,58,81,0
1,62,98,48
1,65,93,0
1,58,86,0
1,58,42,48
1,64,91,180
1,67,86,0
1,60,86,4
1,67,88,104
1,64,93,0
1,60,83,0
1,64,98,64
1,67,91,0
1,60,86,0
1,64,98,28
1,60,93,0
1,67,98,0
1,57,88,276
1,60,86,0
1,53,46,4
1,57,98,24
1,60,88,0
1,53,88,0
1,57,93,164
1,60,91,0
1,53,81,4
1,57,96,32
1,53,79,0
1,60,91,4
1,62,93,300
1,65,88,0
1,58,73,0
1,62,96,104
1,65,91,0
1,58,79,4
1,62,98,120
1,65,91,0
1,58,83,0
1,62,101,100
1,65,96,0
1,58,86,0
1,65,79,60
1,62,91,0
1,58,79,4
1,62,96,120
1,65,93,0
1,58,86,4
1,58,71,128
1,60,101,56
1,62,109,0
1,65,104,0
1,62,91,76
1,65,91,0
1,58,83,0
1,62,96,112
1,65,91,4
1,58,79,0
1,62,91,100
1,65,91,0
1,58,81,0
1,62,96,116
1,65,96,0
1,58,67,0
1,57,96,240
1,60,93,0
1,53,83,0
1,57,101,124
1,60,98,0
1,53,67,4
1,65,91,204
1,62,96,0
1,58,83,0
1,62,104,40
1,65,98,0
1,58,88,0
1,65,91,184
1,60,86,0
1,62,93,0
1,62,93,224
1,65,88,0
1,58,81,0
1,62,91,104
1,65,91,0
1,60,86,4
1,62,83,136
1,65,83,0
1,58,71,0
1,62,93,88
1,65,88,0
1,60,86,0
1,62,86,96
1,65,86,0
1,58,71,0
1,62,93,96
1,60,86,4
1,65,88,0
1,65,86,48
1,62,88,0
1,58,83,0
1,60,88,136
1,62,88,4
1,65,88,0
1,62,96,104
1,65,93,0
1,58,86,0
1,62,93,80
1,58,79,0
1,65,93,0
1,62,83,108
1,65,81,4
1,58,69,0
1,57,88,232
1,60,83,0
1,53,67,4
1,57,96,108
1,60,88,4
1,53,49,4
1,65,91,228
1,62,98,0
1,58,79,0
1,62,101,48
1,58,86,0
1,65,98,0
1,58,79,256
1,62,86,4
1,65,86,0
1,62,96,100
1,65,88,0
1,60,86,4
1,62,83,108
1,65,83,4
1,58,69,0
1,62,96,108
1,65,91,0
1,60,81,0
1,62,91,120
1,65,91,0
1,58,81,4
1,62,91,120
1,65,91,0
1,60,81,0
1,62,88,128
1,65,86,0
1,58,69,0
1,62,101,44
1,60,93,0
1,65,101,0
1,62,81,304
1,65,76,0
1,58,65,4
1,62,93,80
1,65,91,0
1,60,83,0
1,62,93,100
1,65,91,0
1,58,86,0
1,62,91,84
1,65,91,0
1,58,79,0
1,57,93,216
1,60,88,4
1,53,81,0
1,57,93,132
1,60,91,0
1,65,91,212
1,62,98,4
1,58,86,0
1,62,109,48
1,58,86,0
1,65,104,0
1,58,81,204
1,67,88,4
1,63,87,0
1,67,88,132
1,58,79,0
1,63,87,0
1,63,93,108
1,67,91,0
1,58,86,4
1,67,98,40
1,63,101,0
1,58,88,0
1,62,93,192
1,65,86,0
1,58,81,4
1,65,88,128
1,62,91,0
1,58,71,4
1,62,93,104
1,65,88,0
1,58,81,0
1,62,98,48
1,65,93,0
1,58,86,0
1,58,42,48
1,64,91,180
1,67,86,0
1,60,86,4
1,67,88,104
1,64,93,0
1,60,83,0
1,64,98,64
1,67,91,0
1,60,86,0
1,64,98,28
1,60,93,0
1,67,98,0
1,57,88,276
1,60,86,0
1,53,44,4
1,57,98,24
1,60,88,0
1,53,88,0
1,57,93,164
1,60,91,0
1,53,81,4
1,57,96,32
1,53,79,0
1,60,91,4
1,62,93,300
1,65,88,0
1,58,73,0
1,62,96,104
1,65,91,0
1,58,79,4
1,62,98,120
1,65,91,0
1,58,83,0
1,62,101,100
1,65,96,0
1,58,86,0
1,65,79,60
1,62,91,0
1,58,79,4
1,62,96,120
1,65,93,0
1,58,86,4
1,58,71,128
1,60,101,56
1,62,109,0
1,65,104,0
1,62,91,76
1,65,91,0
1,58,83,0
1,62,96,112
1,65,91,4
1,58,79,0
1,62,91,100
1,65,91,0
1,58,81,0
1,62,96,116
1,65,96,0
1,58,67,0
1,57,112,44
1,53,101,4
1,60,104,0
1,60,98,4
1,65,109,0
1,57,86,0
1,58,88,8
1,62,109,4
1,65,93,0
1,70,104,4
1,74,36,1456
1,77,42,20
1,82,31,8
1,74,48,56
1,77,56,12
2,34,101,1116
2,29,96,80
2,34,96,84
2,34,98,636
2,29,98,120
2,34,91,100
2,29,98,88
2,31,96,44
2,33,91,20
2,34,91,112
2,41,93,128
2,34,81,104
2,41,96,104
2,43,86,32
2,34,79,72
2,41,86,96
2,34,93,72
2,38,101,92
2,41,88,44
2,34,88,36
2,38,96,92
2,41,96,92
2,34,91,60
2,29,96,148
2,36,86,64
2,29,83,180
2,34,88,84
2,41,88,104
2,34,96,104
2,38,93,88
2,41,96,96
2,34,93,72
2,41,98,80
2,34,88,60
2,38,98,116
2,41,93,124
2,34,88,48
2,46,93,52
2,34,76,76
2,38,96,60
2,41,88,88
2,34,88,72
2,29,93,80
2,29,86,88
2,34,76,72
2,38,104,60
2,39,76,128
2,43,86,40
2,46,91,60
2,43,91,84
2,39,87,88
2,34,81,60
2,38,96,96
2,41,96,104
2,34,91,84
2,38,88,0
2,36,93,68
2,40,86,84
2,43,88,84
2,36,96,60
2,36,90,52
2,29,91,132
2,36,93,88
2,29,98,100
2,31,98,64
2,33,98,72
2,34,67,64
2,34,98,104
2,41,96,68
2,34,86,52
2,38,101,96
2,34,101,112
2,38,96,112
2,41,93,72
2,46,91,92
2,34,83,56
2,38,96,80
2,41,93,108
2,38,96,84
2,34,86,20
2,29,96,88
2,29,88,120
2,34,91,136
2,29,104,64
2,31,96,56
2,33,98,56
2,34,96,108
2,41,93,96
2,34,83,76
2,38,98,104
2,34,91,100
2,38,93,108
2,41,91,96
2,43,96,104
2,41,93,68
2,34,83,84
2,38,91,100
2,41,88,88
2,34,88,100
2,29,98,108
2,29,69,100
2,34,81,108
2,41,93,104
2,34,88,72
2,38,101,104
2,41,93,120
2,41,91,120
2,43,91,44
2,34,76,48
2,38,96,96
2,41,91,92
2,46,98,40
2,41,81,32
2,34,83,36
2,38,93,92
2,41,88,96
2,43,96,96
2,41,86,16
2,29,93,120
2,36,91,96
2,34,88,64
2,41,91,52
2,46,86,188
2,39,89,40
2,43,86,80
2,46,91,84
2,43,96,104
2,39,80,84
2,34,93,52
2,38,96,72
2,41,88,96
2,34,86,68
2,36,93,152
2,40,93,60
2,43,91,104
2,36,96,60
2,36,107,40
2,29,96,140
2,41,91,72
2,29,109,140
2,31,93,32
2,33,101,36
2,34,101,112
2,41,93,84
2,34,86,92
2,41,93,104
2,34,93,104
2,38,101,88
2,41,88,52
2,34,83,56
2,38,88,60
2,34,86,92
2,38,91,80
2,41,88,72
2,38,93,68
2,34,67,196
2,29,93,116
2,36,88,64
2,34,96,116
2,34,93,136
2,29,98,44
2,34,112,76
2,34,101,668
2,29,104,44
2,34,98,92
2,29,93,100
2,31,98,48
2,33,91,16
2,34,96,116
2,41,96,100
2,34,86,52
2,38,91,92
2,34,93,44
2,41,88,56
2,34,86,36
2,38,104,68
2,41,88,60
2,34,81,36
2,41,93,80
2,43,98,92
2,41,93,84
2,34,65,188
2,29,96,84
2,36,98,84
2,29,53,184
2,34,86,88
2,41,88,104
2,34,93,84
2,41,83,68
2,34,83,36
2,38,96,96
2,41,91,40
2,34,96,28
2,38,101,104
2,41,104,92
2,34,81,104
2,38,91,76
2,34,91,104
2,38,101,88
2,41,101,104
2,43,93,96
2,41,86,48
2,29,91,148
2,36,98,72
2,34,91,116
