track,note,velocity,time
1,63,85,8074
1,67,64,356
1,70,66,80
1,75,68,362
1,72,74,64
1,68,85,148
1,63,106,8
1,72,69,132
1,70,70,68
1,67,74,184
1,63,81,96
1,58,81,240
1,68,77,24
1,65,69,4
1,65,90,284
1,63,91,124
1,65,62,8
1,67,62,84
1,63,106,340
1,67,69,96
1,70,81,180
1,75,64,312
1,72,74,72
1,68,77,112
1,63,98,18
1,72,72,2
1,70,62,52
1,67,77,196
1,63,81,80
1,58,85,4
1,68,77,24
1,65,85,2
1,65,85,104
1,63,98,74
1,62,72,4
1,63,70,4
1,70,91,460
1,65,77,8
1,67,77,300
1,68,68,196
1,70,85,60
1,70,106,72
1,70,85,48
1,70,85,80
1,65,85,248
1,67,74,60
1,68,77,80
1,70,64,36
1,70,106,248
1,69,102,20
1,70,85,124
1,72,69,44
1,74,65,28
1,74,69,36
1,74,72,80
1,69,108,108
1,70,85,58
1,72,85,0
1,74,69,4
1,63,91,292
1,67,74,56
1,70,73,52
1,75,63,4
1,72,69,84
1,68,81,68
1,63,81,232
1,72,65,176
1,70,68,72
1,67,77,120
1,63,91,68
1,58,81,232
1,68,77,100
1,65,65,176
1,65,95,112
1,65,90,80
1,63,91,116
1,62,90,156
1,63,70,8
1,70,91,372
1,65,81,100
1,67,74,188
1,68,77,72
1,70,73,64
1,70,106,48
1,70,57,44
1,70,70,120
1,65,72,6
1,67,67,292
1,68,85,88
1,70,63,4
1,70,91,264
1,69,85,8
1,70,85,34
1,72,67,16
1,74,81,36
1,74,62,32
1,74,85,96
1,69,108,0
1,70,90,82
1,72,90,0
1,74,59,4
1,63,81,284
1,67,58,12
1,70,81,32
1,75,70,18
1,72,77,12
1,68,70,72
1,63,85,0
1,72,69,108
1,70,70,86
1,67,95,96
1,63,91,116
1,58,85,180
1,68,73,144
1,65,65,52
1,65,69,264
1,65,69,76
1,63,85,88
1,62,67,0
1,63,70,80
2,44,80,3076
2,48,80,160
2,51,80,130
2,51,80,112
2,47,80,128
2,48,80,8
2,51,80,128
2,44,80,114
2,48,80,208
2,51,80,2
2,51,80,96
2,47,80,0
2,48,80,128
2,51,80,20
2,39,80,130
2,43,80,196
2,46,80,10
2,46,80,112
2,42,80,4
2,43,80,22
2,46,80,128
2,39,80,6
2,44,80,1212
2,48,80,160
2,51,80,4
2,51,80,112
2,47,80,128
2,48,80,8
2,51,80,0
2,44,80,128
2,48,80,196
2,51,80,2
2,51,80,96
2,47,80,0
2,48,80,8
2,51,80,4
2,39,80,2
2,43,80,192
2,46,80,8
2,46,80,88
2,42,80,0
2,43,80,12
2,46,80,8
2,39,80,130
2,43,80,212
2,46,80,14
2,46,80,112
2,42,80,4
2,43,80,0
2,46,80,128
2,46,80,54
2,50,80,150
2,53,80,2
2,53,80,88
2,49,80,128
2,50,80,120
2,53,80,124
2,46,80,2
2,50,80,182
2,53,80,2
2,53,80,120
2,49,80,128
2,50,80,12
2,53,80,4
2,39,80,62
2,43,80,100
2,46,80,20
2,46,80,96
2,42,80,0
2,43,80,128
2,46,80,16
2,39,80,10
2,44,80,1022
2,48,80,248
2,51,80,130
2,51,80,92
2,47,80,128
2,48,80,12
2,51,80,0
2,44,80,130
2,48,80,236
2,51,80,130
2,51,80,100
2,47,80,128
2,48,80,12
2,51,80,12
2,39,80,130
2,43,80,256
2,46,80,12
2,46,80,104
2,42,80,0
2,43,80,10
2,46,80,4
2,39,80,2
2,43,80,204
2,46,80,6
2,46,80,96
2,42,80,0
2,43,80,128
2,46,80,8
2,46,80,42
2,50,80,182
2,53,80,128
2,53,80,96
2,49,80,128
2,50,80,108
2,53,80,4
2,46,80,130
2,50,80,204
2,53,80,14
2,53,80,92
2,49,80,128
2,50,80,4
2,53,80,6
2,39,80,66
2,43,80,112
2,44,80,14
2,46,80,510
2,48,80,6
2,51,80,128
2,39,80,930
2,43,80,158
2,46,80,0
2,46,80,92
2,39,80,10
2,39,80,170
2,44,80,128
2,44,80,130
2,39,80,20
2,43,80,184
2,46,80,10
2,43,80,382
2,46,80,12
2,39,80,18
2,39,80,152
2,38,80,20
2,38,80,100
2,43,80,78
2,43,80,160
2,38,80,8
2,38,80,90
2,43,80,18
2,43,80,164
2,38,80,8
2,38,80,144
2,43,80,126
2,43,80,106
2,43,80,110
2,43,80,44
2,43,80,28
2,43,80,38
2,43,80,32
2,43,80,52
2,46,80,8
2,44,80,1310
2,48,80,168
2,51,80,130
2,51,80,80
2,47,80,128
2,48,80,0
2,51,80,128
2,44,80,126
2,48,80,200
2,51,80,130
2,51,80,92
2,47,80,128
2,48,80,6
2,51,80,12
2,39,80,130
2,43,80,198
2,46,80,128
2,46,80,104
2,42,80,128
2,43,80,4
2,46,80,6
2,39,80,130
2,43,80,208
2,46,80,2
2,46,80,100
2,42,80,128
2,43,80,102
2,46,80,124
2,46,80,32
2,50,80,248
2,53,80,2
2,53,80,92
2,49,80,128
2,50,80,0
2,53,80,128
2,46,80,126
2,50,80,216
2,53,80,4
2,53,80,96
2,49,80,128
2,50,80,10
2,53,80,0
2,39,80,58
2,43,80,136
2,46,80,8
2,46,80,96
2,42,80,128
2,43,80,0
2,46,80,16
2,39,80,130
2,39,80,1106
2,39,80,156
2,43,80,6
2,46,80,8
2,39,80,2
2,39,80,174
2,44,80,2
2,44,80,164
2,39,80,30
2,39,80,188
2,43,80,2
2,46,80,382
2,39,80,18
2,39,80,216
2,38,80,22
2,38,80,108
2,43,80,24
2,43,80,176
2,38,80,40
2,38,80,144
2,43,80,10
2,43,80,148
2,38,80,10
2,38,80,140
2,43,80,30
2,43,80,0
2,43,80,132
2,43,80,148
2,43,80,36
2,43,80,32
2,43,80,42
2,43,80,48
2,43,80,22
2,46,80,14
2,44,80,1298
2,48,80,188
2,51,80,2
2,47,80,382
2,48,80,12
2,51,80,128
2,44,80,110
2,48,80,236
2,51,80,130
2,47,80,372
2,48,80,124
2,51,80,126
2,39,80,126
2,43,80,196
2,46,80,128
2,42,80,376
2,43,80,118
2,46,80,124
2,39,80,118
2,43,80,208
2,46,80,128
2,42,80,368
2,43,80,124
2,46,80,124
2,46,80,44
2,50,80,140
2,53,80,130
2,49,80,376
2,50,80,116
2,53,80,120
2,46,80,124
2,46,80,206
2,53,80,130
2,49,80,356
2,50,80,8
2,53,80,128
2,39,80,78
2,43,80,60
2,48,80,128
2,46,80,6
2,43,80,126
2,46,80,10
2,39,80,6
3,68,81,3076
3,72,72,46
3,75,70,128
3,71,72,362
3,72,67,2
3,75,61,20
3,68,62,130
3,72,58,10
3,75,56,128
3,71,56,362
3,72,60,4
3,75,60,130
3,63,61,122
3,67,52,18
3,70,77,128
3,66,56,370
3,67,49,4
3,70,52,2
3,63,61,128
3,68,68,1178
3,72,56,34
3,75,57,130
3,71,53,376
3,72,55,2
3,75,53,0
3,68,70,130
3,72,54,26
3,75,57,130
3,71,50,370
3,72,53,6
3,75,54,128
3,63,61,116
3,67,54,70
3,70,66,4
3,66,56,384
3,67,51,0
3,70,47,130
3,63,54,116
3,67,51,30
3,70,58,130
3,66,55,368
3,67,50,2
3,70,57,2
3,70,64,36
3,74,54,4
3,77,54,128
3,73,58,376
3,74,55,18
3,77,49,6
3,70,66,130
3,74,55,18
3,77,55,0
3,73,53,382
3,74,44,6
3,77,52,6
3,63,58,130
3,67,49,16
3,70,63,128
3,66,61,372
3,67,53,2
3,70,56,128
3,63,62,0
3,68,63,1292
3,72,55,638
3,75,60,120
3,71,55,12
3,72,55,126
3,75,58,114
3,68,51,116
3,72,55,638
3,75,60,116
3,71,51,10
3,72,55,8
3,75,61,10
3,63,77,130
3,67,64,0
3,70,70,128
3,66,98,356
3,67,67,14
3,70,63,128
3,63,81,120
3,67,65,6
3,70,63,0
3,66,73,382
3,67,62,24
3,70,60,128
3,70,73,52
3,74,54,28
3,77,58,128
3,73,58,378
3,74,55,110
3,77,58,126
3,70,64,120
3,74,54,4
3,77,60,128
3,73,52,378
3,74,52,14
3,77,54,6
3,63,63,130
3,67,52,14
3,68,66,8
3,67,60,14
3,65,49,0
3,63,70,128
3,68,73,13400
3,72,62,638
3,75,70,16
3,71,85,384
3,72,69,6
3,75,66,6
3,68,73,130
3,72,72,12
3,75,68,0
3,71,77,384
3,72,62,18
3,75,68,128
3,63,77,8
3,67,74,22
3,70,77,130
3,66,98,372
3,67,69,118
3,70,70,122
3,63,77,116
3,67,65,618
3,70,70,4
3,66,98,384
3,67,62,26
3,70,77,128
3,70,73,68
3,74,81,10
3,77,60,128
3,73,58,370
3,74,56,94
3,77,52,122
3,70,85,128
3,74,55,632
3,77,64,8
3,73,62,382
3,74,55,6
3,77,64,128
3,63,77,0
3,67,56,6
3,68,63,130
3,68,68,92
3,67,64,22
3,65,57,14
3,63,70,130
3,68,85,13484
3,72,77,0
3,75,81,0
3,71,74,0
3,72,69,126
3,75,70,6
3,68,77,4
3,72,81,24
3,75,73,128
3,71,74,370
3,72,67,122
3,75,66,10
3,63,81,130
3,67,72,8
3,70,73,128
3,66,81,366
3,67,74,14
3,70,70,128
3,63,81,104
3,67,72,36
3,70,77,128
3,66,91,366
3,67,74,18
3,70,73,6
3,70,85,44
3,74,72,26
3,77,65,130
3,73,77,372
3,74,60,6
3,77,69,6
3,70,81,130
3,74,62,604
3,77,69,44
3,73,66,376
3,74,55,22
3,77,65,128
3,63,77,126
3,67,69,16
3,72,62,128
3,70,73,46
3,67,64,10
3,70,70,256
3,63,77,128
4,56,47,3062
4,63,52,0
4,60,48,0
4,58,56,88
4,55,56,0
4,63,58,0
4,63,56,1432
4,60,56,0
4,68,57,0
4,58,61,84
4,63,61,0
4,67,57,0
4,68,51,56
4,58,54,0
4,62,53,0
4,65,43,272
4,58,58,46
4,67,55,0
4,63,55,0
4,60,55,1396
4,68,51,0
4,63,50,0
4,67,51,116
4,58,56,0
4,63,56,16
4,68,50,212
4,58,53,0
4,65,51,16
4,62,52,0
4,67,49,70
4,58,57,0
4,63,56,0
4,66,49,72
4,63,55,0
4,60,52,0
4,56,56,2
4,63,52,68
4,67,51,0
4,58,53,0
4,58,50,1108
4,63,49,0
4,67,57,4
4,63,53,76
4,60,58,12
4,68,53,0
4,67,57,60
4,58,66,0
4,63,57,0
4,66,52,86
4,60,55,0
4,62,55,0
4,67,58,58
4,62,55,0
4,58,64,0
4,66,51,66
4,60,58,0
4,62,55,20
4,58,62,16
4,62,57,0
4,67,58,0
4,66,58,88
4,60,64,0
4,62,58,0
4,67,55,40
4,59,65,0
4,62,57,0
4,58,61,80
4,56,57,12
4,62,59,0
4,65,57,0
4,63,58,1036
4,68,53,0
4,60,54,4
4,67,55,28
4,58,66,0
4,63,61,4
4,68,50,60
4,58,54,12
4,62,55,0
4,65,55,0
4,58,63,52
4,67,57,0
4,63,53,20
4,63,56,72
4,56,61,0
4,60,54,0
4,66,58,0
4,67,56,100
4,58,68,4
4,63,61,0
4,58,58,1248
4,63,50,0
4,67,58,0
4,68,52,128
4,63,58,4
4,60,60,0
4,67,50,84
4,58,63,0
4,63,58,20
4,66,55,60
4,60,62,4
4,62,56,16
4,67,62,36
4,62,57,0
4,58,73,0
4,60,57,56
4,66,55,4
4,62,55,0
4,67,57,54
4,62,54,0
4,58,63,0
4,66,57,80
4,62,55,0
4,60,65,0
4,59,60,120
4,67,64,0
4,62,62,0
4,56,61,48
4,58,66,0
4,62,59,2
4,65,56,0
4,63,57,1152
4,60,55,0
4,68,53,0
4,63,53,132
4,58,52,0
4,67,28,32
4,58,64,84
4,68,54,0
4,62,54,0
4,65,55,24
4,67,58,80
4,58,64,0
4,63,56,0
4,55,59,188
4,60,55,12
4,65,62,0
5,63,70,1930
5,63,68,90
5,67,64,124
5,63,64,102
5,67,59,114
5,70,68,128
5,67,55,88
5,70,56,126
5,75,60,90
5,68,64,0
5,72,60,0
5,68,70,572
5,66,81,0
5,75,64,0
5,72,67,4
5,75,68,84
5,68,64,0
5,72,60,16
5,66,49,0
5,68,64,42
5,72,65,0
5,66,64,0
5,63,77,2
5,68,55,72
5,63,70,0
5,72,52,0
5,66,62,20
5,60,49,68
5,63,66,8
5,66,60,4
5,68,51,0
5,60,44,72
5,66,51,0
5,68,48,0
5,63,57,4
5,58,68,68
5,67,69,8
5,63,68,4
5,70,66,128
5,65,77,0
5,67,58,68
5,65,55,110
5,67,62,0
5,63,66,4
5,39,62,0
5,51,57,4
5,72,67,1410
5,68,58,2
5,63,66,0
5,63,55,40
5,72,66,0
5,68,60,2
5,63,46,68
5,68,42,0
5,72,53,2
5,72,69,74
5,68,65,2
5,63,65,0
5,68,45,56
5,63,41,0
5,72,52,2
5,68,42,78
5,63,39,0
5,72,50,0
5,68,60,78
5,63,58,0
5,72,62,0
5,68,49,64
5,72,51,0
5,63,49,0
5,68,39,70
5,63,48,2
5,72,48,0
5,68,63,74
5,72,64,0
5,63,66,0
5,72,56,46
5,63,49,0
5,68,56,0
5,72,41,70
5,68,49,0
5,63,46,0
5,68,61,66
5,63,65,0
5,72,61,0
5,68,44,56
5,72,51,0
5,63,51,2
5,68,46,70
5,63,49,0
5,72,53,2
5,72,70,72
5,68,69,2
5,63,72,0
5,72,53,48
5,63,53,0
5,68,62,2
5,68,50,70
5,63,54,0
5,72,54,0
5,68,67,82
5,72,68,0
5,63,68,0
5,63,51,48
5,68,59,0
5,72,60,2
5,68,53,58
5,63,50,0
5,72,49,0
5,63,62,66
5,68,65,0
5,72,73,0
5,68,60,48
5,63,52,2
5,72,61,0
5,68,51,54
5,63,51,2
5,72,50,0
5,67,66,58
5,63,57,0
5,75,66,0
5,67,64,56
5,63,48,0
5,75,54,0
5,75,41,56
5,67,62,0
5,63,51,0
5,75,68,44
5,63,64,2
5,67,75,0
5,63,48,42
5,67,66,0
5,75,49,0
5,75,55,56
5,67,66,0
5,63,52,0
5,75,67,62
5,63,63,0
5,67,71,0
5,75,43,44
5,67,60,0
5,63,47,2
5,70,64,52
5,75,44,2
5,67,59,0
5,63,47,0
5,75,55,46
5,63,60,0
5,67,66,0
5,70,68,0
5,75,35,38
5,70,54,2
5,67,54,0
5,63,45,0
5,75,38,50
5,67,56,0
5,63,46,0
5,70,60,0
5,75,46,58
5,63,61,0
5,67,66,0
5,70,62,2
5,75,28,30
5,67,58,0
5,63,41,2
5,75,26,32
5,67,47,0
5,63,40,2
5,75,53,60
5,67,67,2
5,63,63,0
5,75,39,28
5,67,59,0
5,63,48,0
5,75,43,52
5,67,52,2
5,63,51,0
5,75,54,56
5,67,68,0
5,63,62,0
5,75,42,40
5,67,61,0
5,63,47,0
5,75,39,48
5,67,61,0
5,63,52,0
5,63,60,54
5,75,62,0
5,67,70,0
5,75,52,38
5,63,46,0
5,67,61,0
5,67,59,64
5,75,60,0
5,63,52,0
5,70,56,54
5,65,63,0
5,74,65,0
5,74,51,62
5,65,52,0
5,70,56,2
5,74,43,64
5,65,44,0
5,70,54,0
5,70,68,80
5,74,71,2
5,65,69,0
5,74,45,60
5,65,49,0
5,70,56,2
5,74,45,60
5,65,53,0
5,70,62,0
5,74,55,54
5,65,57,0
5,70,65,0
5,68,48,52
5,74,45,0
5,70,48,2
5,65,42,0
5,74,36,64
5,68,38,2
5,70,48,0
5,65,39,0
5,74,49,66
5,70,61,0
5,65,55,0
5,65,51,32
5,74,42,2
5,70,60,0
5,65,50,38
5,74,51,0
5,70,57,0
5,74,55,58
5,70,60,0
5,65,57,0
5,74,39,28
5,70,56,0
5,65,46,0
5,70,49,56
5,74,46,0
5,65,41,2
5,74,55,68
5,65,55,0
5,70,60,2
5,70,55,44
5,74,46,0
5,65,53,0
5,74,46,66
5,65,50,0
5,70,54,0
5,74,52,66
5,65,58,0
5,70,60,0
5,74,43,52
5,70,50,0
5,65,50,2
5,74,55,68
5,65,51,2
5,70,57,0
5,74,63,70
5,65,59,0
5,70,62,0
5,74,52,50
5,65,50,0
5,70,56,0
5,65,49,60
5,74,51,2
5,70,48,0
5,67,60,76
5,63,66,0
5,75,65,0
