track,note,velocity,time
3,57,121,8116
3,57,0,108
3,57,121,144
3,57,0,100
3,61,121,36
3,61,0,88
3,61,121,156
3,61,0,100
3,64,121,36
3,64,0,108
3,64,118,128
3,64,0,88
3,69,121,40
3,62,99,0
3,66,121,216
3,57,109,0
3,69,0,12
3,62,0,28
3,57,0,0
3,66,0,4
3,66,121,348
3,62,121,8
3,57,120,0
3,62,0,44
3,66,0,16
3,57,0,20
3,57,109,288
3,62,121,4
3,57,0,64
3,62,0,12
3,57,121,208
3,57,0,64
3,66,121,24
3,61,121,0
3,61,0,96
3,66,0,8
3,64,109,12
3,57,101,4
3,61,110,0
3,61,0,112
3,57,0,0
3,64,0,28
3,66,121,276
3,69,121,4
3,69,0,40
3,66,0,12
3,69,109,52
3,64,104,4
3,69,0,12
3,64,0,8
3,69,121,64
3,66,121,0
3,69,0,144
3,66,0,20
3,69,120,16
3,64,118,0
3,69,0,72
3,64,0,24
3,64,115,32
3,59,120,0
3,61,121,12
3,59,0,48
3,64,0,116
3,61,0,16
3,64,110,28
3,59,110,0
3,59,0,64
3,64,0,4
3,66,121,328
3,69,121,0
3,69,0,140
3,66,0,52
3,66,121,128
3,69,120,4
3,69,0,60
3,66,0,16
3,69,112,0
3,64,115,4
3,69,0,120
3,64,0,12
3,66,121,56
3,69,121,8
3,69,0,116
3,66,0,12
3,69,120,64
3,64,121,4
3,64,0,280
3,69,0,28
3,57,121,1100
3,57,0,84
3,57,121,196
3,57,0,88
3,61,121,40
3,61,0,84
3,61,121,176
3,61,0,92
3,64,121,52
3,64,0,84
3,64,120,148
3,64,0,80
3,69,115,32
3,62,113,8
3,57,112,216
3,66,121,0
3,69,0,16
3,57,0,160
3,66,0,12
3,62,0,16
3,66,121,848
3,69,121,8
3,69,0,128
3,66,0,20
3,69,121,64
3,62,121,8
3,69,0,96
3,62,0,12
3,69,106,84
3,57,121,8
3,69,0,164
3,57,0,12
3,66,100,112
3,69,120,0
3,69,0,144
3,66,0,40
3,69,113,8
3,64,96,0
3,64,0,1528
3,69,0,0
3,66,121,384
3,69,121,0
3,69,0,96
3,66,0,4
3,69,112,96
3,64,116,4
3,69,0,64
3,64,0,16
3,69,121,16
3,66,121,0
3,69,0,68
3,66,0,24
3,64,118,56
3,69,116,0
3,69,0,16
3,64,0,12
3,61,121,52
3,69,121,8
3,69,0,224
3,61,0,8
3,59,110,32
3,68,121,0
3,68,0,1556
3,59,0,4
3,66,121,356
3,69,121,0
3,69,0,312
3,66,0,20
3,69,121,44
3,66,120,0
3,69,0,180
3,66,0,16
3,64,116,52
3,69,121,0
3,69,0,28
3,64,0,36
3,64,113,44
3,59,118,4
3,61,121,12
3,59,0,32
3,59,112,56
3,61,0,24
3,64,0,64
3,59,0,4
3,57,116,40
3,64,121,4
3,64,0,212
3,57,0,32
3,57,108,116
3,62,101,0
3,54,108,0
3,54,0,160
3,62,0,32
3,57,0,24
3,61,101,208
3,57,99,4
3,52,95,0
3,52,0,24
3,57,0,4
3,61,0,4
3,64,121,104
3,64,0,204
3,59,121,32
3,59,0,164
3,61,121,240
3,61,0,80
3,62,121,44
3,62,0,68
3,63,115,60
3,64,109,16
3,63,0,32
3,64,0,152
3,63,116,36
3,64,109,16
3,63,0,28
3,64,0,140
3,63,113,36
3,64,98,24
3,63,0,24
3,64,0,872
3,64,121,68
3,64,0,48
3,59,121,44
3,59,0,48
3,61,121,36
3,61,0,48
3,62,121,8
3,62,0,44
3,63,121,28
3,64,101,24
3,63,0,24
3,64,0,1972
3,64,121,96
3,64,0,120
3,63,121,36
3,63,0,108
3,64,121,4
3,64,0,32
3,66,121,56
3,66,0,80
3,68,121,32
3,68,0,304
3,68,121,80
3,68,0,156
3,68,121,68
3,68,0,1400
3,68,121,60
3,68,0,196
3,63,121,32
3,63,0,204
3,64,121,64
3,64,0,188
3,66,121,48
3,66,0,172
3,68,121,64
3,68,0,1504
3,57,121,456
3,57,0,88
3,57,121,160
3,57,0,84
3,61,121,48
3,61,0,76
3,61,121,180
3,61,0,80
3,64,118,48
3,64,0,92
3,64,112,164
3,64,0,96
3,69,121,32
3,62,121,0
3,66,121,20
3,57,106,4
3,69,0,20
3,57,0,1124
3,66,0,20
3,62,0,12
3,66,121,332
3,57,115,0
3,57,0,268
3,66,0,20
3,62,121,84
3,62,0,196
3,57,121,72
3,57,0,224
3,66,121,28
3,62,121,4
3,62,0,64
3,66,0,12
3,64,118,16
3,61,121,8
3,64,0,1612
3,61,0,8
3,66,121,316
3,69,121,0
3,69,0,144
3,66,0,24
3,66,121,104
3,69,121,4
3,69,0,180
3,66,0,20
3,64,118,56
3,69,120,0
3,69,0,188
3,64,0,20
3,61,118,28
3,69,115,0
3,61,0,120
3,69,0,40
3,68,121,44
3,59,105,0
3,59,0,1796
3,68,0,40
3,66,121,32
3,69,113,8
3,69,0,164
3,66,0,0
3,69,113,44
3,66,121,4
3,69,0,120
3,66,0,32
3,69,112,44
3,64,115,0
3,64,0,44
3,69,0,0
3,59,115,12
3,64,108,0
3,61,121,16
3,59,0,32
3,61,0,36
3,64,0,12
3,59,113,16
3,64,75,0
3,59,0,68
3,64,0,4
3,64,115,48
3,57,116,0
3,64,0,148
3,57,0,16
3,57,121,0
3,57,0,76
3,57,121,88
3,57,0,88
3,61,121,44
3,61,0,104
3,61,121,140
3,61,0,80
3,64,121,56
3,64,0,96
3,64,121,148
3,64,0,76
3,62,121,16
3,69,121,8
3,62,0,128
3,69,0,4
3,62,94,20
3,66,121,0
3,57,113,8
3,62,0,1152
3,57,0,4
3,66,0,0
3,66,121,436
3,57,121,4
3,62,121,0
3,62,0,108
3,57,0,20
3,66,0,28
3,62,121,160
3,62,0,140
3,57,121,136
3,57,0,144
3,66,121,12
3,60,121,0
3,60,0,72
3,66,0,24
3,64,116,16
3,57,105,4
3,61,121,0
3,57,0,16
3,61,0,40
3,61,121,92
3,64,0,40
3,66,121,96
3,69,121,0
3,61,0,28
3,64,112,128
3,69,0,8
3,66,0,12
3,64,0,4
3,69,121,48
3,66,121,0
3,69,0,128
3,66,0,20
3,64,113,40
3,69,120,4
3,69,0,100
3,61,121,40
3,69,48,8
3,69,0,72
3,61,0,116
3,57,116,28
3,57,0,76
3,64,0,24
3,59,115,44
3,64,116,0
3,59,0,864
3,64,0,136
3,69,120,96
3,66,121,0
3,69,0,160
3,66,0,20
3,66,121,16
3,69,121,0
3,69,0,124
3,66,0,8
3,69,120,44
3,64,120,0
3,69,0,80
3,64,0,36
3,64,110,112
3,59,112,0
3,61,121,4
3,59,0,4
3,64,0,36
3,61,0,8
3,59,110,20
3,64,96,4
3,64,0,56
3,59,0,12
3,61,121,64
3,64,116,0
3,64,0,144
3,61,0,8
3,64,121,104
3,64,0,204
3,59,121,32
3,59,0,164
3,61,121,240
3,61,0,80
3,62,121,44
3,62,0,68
3,63,115,60
3,64,109,16
3,63,0,32
3,64,0,152
3,63,116,36
3,64,109,16
3,63,0,28
3,64,0,140
3,63,113,36
3,64,98,24
3,63,0,24
3,64,0,872
3,64,121,68
3,64,0,48
3,59,121,44
3,59,0,48
3,61,121,36
3,61,0,48
3,62,121,8
3,62,0,44
3,63,121,28
3,64,101,24
3,63,0,24
3,64,0,1972
3,64,121,96
3,64,0,120
3,63,121,36
3,63,0,108
3,64,121,4
3,64,0,32
3,66,121,56
3,66,0,80
3,68,121,32
3,68,0,304
3,68,121,80
3,68,0,156
3,68,121,68
3,68,0,1400
3,68,121,60
3,68,0,196
3,63,121,32
3,63,0,204
3,64,121,64
3,64,0,188
3,66,121,48
3,66,0,172
3,68,121,64
3,68,0,1504
3,57,121,12
3,57,0,68
3,57,118,32
3,57,0,48
3,57,121,68
3,57,0,64
3,57,121,60
3,61,121,4
3,57,0,60
3,61,0,4
3,57,113,56
3,61,121,0
3,57,0,44
3,61,0,8
3,57,115,52
3,61,121,8
3,57,0,52
3,61,0,4
3,64,121,72
3,61,121,4
3,61,0,52
3,64,0,12
3,64,109,52
3,61,110,4
3,61,0,40
3,64,0,16
3,64,110,64
3,61,112,12
3,61,0,40
3,64,0,12
3,69,121,72
3,61,121,8
3,61,0,56
3,69,0,8
3,69,115,52
3,61,121,0
3,61,0,48
3,69,0,8
3,61,121,56
3,69,115,0
3,69,0,60
3,61,0,4
3,69,121,60
3,62,121,8
3,62,0,96
3,69,0,4
3,66,121,20
3,57,118,0
3,62,89,0
3,62,0,1132
3,57,0,8
3,66,0,0
3,66,121,8
3,62,121,0
3,57,120,4
3,62,0,36
3,57,0,12
3,66,0,12
3,62,121,224
3,62,0,212
3,57,121,60
3,57,0,164
3,66,121,88
3,60,121,4
3,60,0,32
3,66,0,28
3,64,109,56
3,61,118,4
3,57,81,8
3,61,0,1640
3,64,0,0
3,66,121,204
3,69,121,8
3,69,0,44
3,66,0,24
3,69,99,32
3,64,104,8
3,64,0,72
3,69,0,0
3,66,121,0
3,69,121,0
3,57,0,48
3,69,0,96
3,66,0,24
3,69,121,52
3,64,113,4
3,69,0,80
3,64,0,28
3,69,113,36
3,61,121,0
3,61,0,196
3,69,0,12
3,57,115,24
3,57,0,84
3,68,118,64
3,59,113,0
3,68,0,268
3,59,0,12
3,66,121,216
3,69,121,0
3,69,0,28
3,66,0,8
3,69,115,40
3,66,120,0
3,69,0,112
3,66,0,16
3,69,112,64
3,64,115,4
3,64,0,68
3,69,0,0
3,69,121,72
3,66,121,0
3,69,0,108
3,66,0,20
3,69,115,64
3,64,118,8
3,69,0,28
3,64,0,24
3,64,116,24
3,59,121,0
3,61,108,16
3,59,0,52
3,64,0,40
3,61,0,88
3,64,109,16
3,59,115,0
3,64,0,88
3,59,0,24
3,57,116,40
3,64,113,4
3,64,0,72
3,57,0,0
3,57,121,12
3,57,0,68
3,57,118,32
3,57,0,48
3,57,121,68
3,57,0,64
3,57,121,60
3,61,121,4
3,57,0,60
3,61,0,4
3,57,113,56
3,61,121,0
3,57,0,44
3,61,0,8
3,57,115,52
3,61,121,8
3,57,0,52
3,61,0,4
3,64,121,72
3,61,121,4
3,61,0,52
3,64,0,12
3,64,109,52
3,61,110,4
3,61,0,40
3,64,0,16
3,64,110,64
3,61,112,12
3,61,0,40
3,64,0,12
3,69,121,72
3,61,121,8
3,61,0,56
3,69,0,8
3,69,115,52
3,61,121,0
3,61,0,48
3,69,0,8
3,61,121,56
3,69,115,0
3,69,0,60
3,61,0,4
3,69,121,60
3,62,121,8
3,69,121,36
3,62,121,8
3,62,0,164
3,69,0,4
3,57,115,56
3,66,121,0
3,69,0,32
3,57,0,1016
3,62,0,20
3,66,0,8
3,66,121,348
3,69,121,0
3,69,0,300
3,66,0,16
3,62,121,76
3,69,121,4
3,62,0,208
3,69,0,40
3,57,121,12
3,57,0,172
3,66,121,48
3,60,121,4
3,60,0,72
3,66,0,44
3,57,71,40
3,64,109,0
3,61,121,4
3,64,0,1432
3,61,0,92
3,66,121,140
3,69,121,4
3,69,0,28
3,66,0,28
3,69,89,44
3,64,113,16
3,69,0,52
3,64,0,28
3,66,121,48
3,69,121,0
3,69,0,16
3,66,0,24
3,57,0,48
3,64,108,0
3,69,120,0
3,69,0,88
3,69,100,52
3,61,121,4
3,61,0,220
3,69,0,4
3,57,108,16
3,64,0,52
3,57,0,28
3,59,116,64
3,64,105,0
3,59,0,104
3,64,0,32
3,66,121,240
3,69,121,0
3,69,0,180
3,66,0,32
3,66,120,20
3,69,118,0
3,69,0,132
3,66,0,32
3,69,115,0
3,64,113,4
3,69,0,72
3,64,0,24
3,64,108,56
3,59,110,4
3,61,121,4
3,59,0,44
3,61,0,32
3,64,0,0
3,64,76,20
3,61,74,0
3,59,110,0
3,61,0,24
3,59,0,52
3,64,0,0
3,57,110,60
3,64,120,0
3,64,0,772
3,57,0,4
4,81,127,3084
4,78,127,4
4,74,127,0
4,81,0,348
4,74,0,4
4,78,0,4
4,74,127,40
4,78,127,0
4,81,127,0
4,78,0,44
4,81,0,4
4,74,0,4
4,81,127,196
4,78,127,4
4,74,127,0
4,74,0,40
4,78,0,0
4,81,0,0
4,81,127,80
4,78,127,0
4,74,127,0
4,81,0,328
4,74,0,8
4,78,0,12
4,74,127,36
4,78,127,8
4,81,127,0
4,69,127,0
4,81,0,24
4,69,0,16
4,78,0,8
4,74,0,4
4,69,127,200
4,78,127,8
4,74,127,4
4,74,0,32
4,78,0,4
4,69,0,0
4,78,127,76
4,69,127,0
4,74,127,0
4,69,0,352
4,74,0,4
4,78,0,12
4,69,127,32
4,74,127,0
4,78,127,4
4,78,0,40
4,74,0,0
4,69,0,0
4,69,127,184
4,69,0,44
4,69,127,80
4,78,127,0
4,74,127,0
4,74,0,352
4,69,0,0
4,78,0,16
4,69,127,28
4,78,127,0
4,74,127,0
4,74,0,48
4,78,0,0
4,69,0,4
4,69,127,192
4,69,0,52
4,76,127,92
4,73,127,0
4,69,127,0
4,73,0,352
4,76,0,0
4,76,127,40
4,73,127,0
4,73,0,56
4,76,0,0
4,69,0,4
4,66,127,204
4,74,127,148
4,69,127,0
4,74,0,316
4,69,0,16
4,66,0,0
4,66,127,32
4,69,127,0
4,74,127,4
4,74,0,56
4,69,0,0
4,66,0,0
4,64,127,196
4,73,127,140
4,69,127,0
4,73,0,68
4,69,0,4
4,64,0,0
4,69,127,1404
4,66,127,8
4,74,127,0
4,74,0,316
4,66,0,16
4,69,0,8
4,66,127,28
4,69,127,0
4,74,127,0
4,66,0,44
4,74,0,4
4,69,0,4
4,66,127,216
4,66,0,32
4,69,127,88
4,66,127,8
4,74,127,0
4,74,0,348
4,66,0,4
4,69,0,12
4,74,127,32
4,69,127,0
4,66,127,0
4,66,0,32
4,69,0,12
4,74,0,4
4,69,127,204
4,74,127,0
4,66,127,8
4,66,0,28
4,74,0,4
4,69,0,0
4,69,127,60
4,74,127,0
4,66,127,32
4,74,0,356
4,69,0,8
4,66,0,20
4,66,127,16
4,69,127,4
4,74,127,4
4,66,0,32
4,74,0,4
4,69,0,4
4,69,127,208
4,66,127,0
4,74,127,0
4,74,0,36
4,66,0,0
4,69,0,0
4,69,127,88
4,66,127,4
4,74,127,4
4,74,0,328
4,66,0,16
4,69,0,4
4,66,127,36
4,69,127,0
4,74,127,0
4,69,0,44
4,66,0,4
4,74,0,8
4,74,127,200
4,66,127,0
4,69,127,12
4,74,0,36
4,69,0,16
4,66,0,8
4,69,127,52
4,73,127,12
4,64,127,0
4,73,0,308
4,64,0,4
4,69,0,4
4,64,127,52
4,69,127,4
4,73,127,0
4,73,0,44
4,69,0,4
4,64,0,0
4,69,127,208
4,76,127,0
4,73,127,12
4,73,0,20
4,76,0,16
4,69,0,0
4,76,127,84
4,69,127,0
4,73,127,8
4,76,0,340
4,73,0,4
4,69,0,0
4,76,127,44
4,69,127,0
4,73,127,8
4,73,0,40
4,69,0,0
4,76,0,0
4,76,127,192
4,73,127,0
4,69,127,0
4,76,0,36
4,69,0,4
4,73,0,0
4,69,127,92
4,76,127,0
4,73,127,4
4,69,0,312
4,76,0,4
4,73,0,4
4,76,127,44
4,69,127,0
4,73,127,0
4,73,0,44
4,69,0,0
4,76,0,0
4,73,127,204
4,76,127,0
4,69,127,0
4,76,0,36
4,73,0,0
4,69,0,4
4,73,127,92
4,69,127,0
4,76,127,4
4,76,0,336
4,69,0,0
4,73,0,12
4,76,127,16
4,73,127,12
4,69,127,0
4,69,0,48
4,73,0,0
4,76,0,0
4,69,127,188
4,73,127,8
4,73,0,32
4,69,0,12
4,76,127,80
4,71,127,0
4,68,127,12
4,68,0,320
4,76,0,0
4,71,0,12
4,71,127,44
4,76,127,0
4,68,127,0
4,68,0,48
4,76,0,0
4,71,0,0
4,68,127,212
4,68,0,32
4,71,127,96
4,76,127,4
4,68,127,8
4,76,0,316
4,68,0,20
4,71,0,12
4,76,127,28
4,71,127,8
4,68,127,0
4,68,0,40
4,76,0,4
4,71,0,4
4,68,127,216
4,68,0,40
4,71,127,92
4,74,127,0
4,68,127,0
4,76,127,0
