track,note,velocity,time
1,81,102,964
1,78,112,1
1,74,96,1
1,81,0,108
1,74,0,2
1,78,0,1
1,74,108,12
1,78,114,0
1,81,105,0
1,78,0,14
1,81,0,1
1,74,0,1
1,81,84,62
1,78,83,1
1,74,87,0
1,81,0,12
1,74,0,1
1,78,0,0
1,81,112,24
1,78,120,0
1,74,114,1
1,81,0,102
1,74,0,3
1,78,0,3
1,74,101,12
1,78,95,2
1,81,82,0
1,69,83,0
1,81,0,7
1,69,0,5
1,78,0,3
1,74,0,1
1,69,96,63
1,78,95,2
1,74,87,1
1,74,0,11
1,78,0,1
1,69,0,0
1,78,102,24
1,69,102,0
1,74,104,0
1,69,0,109
1,74,0,2
1,78,0,3
1,69,95,11
1,74,98,0
1,78,97,1
1,78,0,12
1,74,0,0
1,69,0,0
1,69,84,58
1,69,0,13
1,69,92,26
1,78,92,0
1,74,93,0
1,74,0,110
1,69,0,0
1,78,0,5
1,69,83,8
1,78,92,0
1,74,91,0
1,74,0,15
1,78,0,0
1,69,0,1
1,69,98,60
1,69,0,17
1,76,82,29
1,73,100,0
1,69,86,0
1,73,0,110
1,76,0,0
1,76,90,12
1,73,100,0
1,73,0,18
1,76,0,0
1,69,0,1
1,66,81,64
1,74,104,46
1,69,98,0
1,74,0,99
1,69,0,4
1,66,0,0
1,66,107,11
1,69,97,0
1,74,97,1
1,74,0,17
1,69,0,0
1,66,0,0
1,64,92,62
1,73,114,43
1,69,107,0
1,73,0,22
1,69,0,1
1,64,0,0
1,69,70,438
1,66,88,3
1,74,80,0
1,74,0,99
1,66,0,5
1,69,0,2
1,66,102,9
1,69,102,0
1,74,96,0
1,66,0,14
1,74,0,1
1,69,0,1
1,66,86,68
1,66,0,10
1,69,89,27
1,66,93,3
1,74,82,0
1,74,0,108
1,66,0,2
1,69,0,3
1,74,90,10
1,69,101,0
1,66,104,1
1,66,0,10
1,69,0,3
1,74,0,1
1,69,83,64
1,74,86,0
1,66,91,3
1,66,0,8
1,74,0,2
1,69,0,0
1,69,93,18
1,74,92,0
1,66,101,2
1,66,0,120
1,74,0,0
1,69,0,2
1,66,110,11
1,69,101,2
1,74,97,1
1,66,0,10
1,74,0,1
1,69,0,1
1,69,76,66
1,66,83,0
1,74,77,0
1,74,0,11
1,66,0,0
1,69,0,0
1,69,93,27
1,66,100,1
1,74,95,2
1,74,0,102
1,66,0,5
1,69,0,2
1,66,110,11
1,69,102,0
1,74,95,0
1,69,0,14
1,66,0,1
1,74,0,2
1,74,73,63
1,66,82,0
1,69,75,4
1,74,0,11
1,69,0,5
1,66,0,2
1,69,86,16
1,73,96,4
1,64,81,0
1,73,0,97
1,64,0,1
1,69,0,1
1,64,91,16
1,69,100,2
1,73,105,0
1,73,0,13
1,69,0,2
1,64,0,0
1,69,83,64
1,76,85,0
1,73,73,4
1,73,0,6
1,76,0,5
1,69,0,0
1,76,88,27
1,69,91,0
1,73,100,2
1,76,0,106
1,73,0,2
1,69,0,0
1,76,93,14
1,69,102,0
1,73,102,2
1,73,0,12
1,69,0,1
1,76,0,0
1,76,81,59
1,73,78,0
1,69,81,1
1,76,0,11
1,69,0,1
1,73,0,0
1,69,101,29
1,76,104,0
1,73,107,1
1,69,0,98
1,76,0,1
1,73,0,1
1,76,93,14
1,69,95,0
1,73,97,0
1,73,0,13
1,69,0,0
1,76,0,0
1,73,93,64
1,76,88,0
1,69,92,0
1,76,0,11
1,73,0,1
1,69,0,1
1,73,110,28
1,69,104,0
1,76,100,2
1,76,0,105
1,69,0,0
1,73,0,4
1,76,88,5
1,73,98,3
1,69,100,0
1,69,0,15
1,73,0,0
1,76,0,0
1,69,83,59
1,73,70,2
1,73,0,11
1,69,0,3
1,76,84,25
1,71,86,0
1,68,102,4
1,68,0,100
1,76,0,0
1,71,0,4
1,71,101,13
1,76,98,0
1,68,116,1
1,71,0,14
1,68,0,1
1,76,0,0
1,68,87,66
1,68,0,10
1,71,92,30
1,76,91,1
1,68,105,2
1,76,0,99
1,68,0,7
1,71,0,3
1,76,78,9
1,71,97,3
1,68,105,0
1,68,0,12
1,76,0,1
1,71,0,2
1,68,107,67
1,68,0,13
1,71,80,28
1,74,82,0
1,68,93,0
1,76,77,0
1,76,0,95
1,68,0,6
1,74,0,1
1,71,0,2
1,68,108,16
1,71,88,0
1,76,84,0
1,74,92,1
1,74,0,10
1,71,0,0
1,76,0,2
1,68,0,1
1,68,92,62
1,68,0,12
1,71,88,30
1,74,85,0
1,76,66,3
1,68,107,0
1,76,0,99
1,74,0,2
1,68,0,2
1,71,0,4
1,76,90,8
1,68,104,1
1,71,87,0
1,74,97,3
1,74,0,12
1,76,0,0
1,71,0,1
1,68,0,0
1,69,102,103
1,76,100,0
1,73,107,0
1,76,0,106
1,73,0,3
1,69,0,2
1,69,104,11
1,76,98,0
1,73,101,4
1,69,0,11
1,73,0,1
1,76,0,1
1,69,89,72
1,73,86,0
1,76,82,0
1,76,0,9
1,73,0,2
1,69,0,0
1,74,97,30
1,69,100,2
1,66,110,0
1,74,0,82
1,66,0,6
1,69,0,6
1,74,90,10
1,69,96,0
1,66,104,2
1,66,0,15
1,69,0,0
1,74,0,0
1,74,91,64
1,66,89,4
1,69,86,3
1,66,0,13
1,74,0,1
1,69,0,4
1,64,87,18
1,69,110,1
1,73,118,2
1,73,0,17
1,64,0,0
1,69,0,3
1,69,92,454
1,74,90,0
1,66,93,1
1,74,0,96
1,66,0,4
1,69,0,2
1,74,93,10
1,69,101,0
1,66,105,2
1,66,0,12
1,69,0,0
1,74,0,0
1,66,90,71
1,66,0,19
1,66,78,13
1,69,75,6
1,74,88,3
1,74,0,92
1,66,0,16
1,69,0,2
1,74,97,12
1,69,102,0
1,66,112,0
1,66,0,15
1,69,0,1
1,74,0,0
1,66,84,60
1,66,0,9
1,74,91,31
1,69,89,0
1,66,89,0
1,66,0,102
1,74,0,0
1,69,0,4
1,74,97,13
1,69,96,0
1,66,108,0
1,66,0,14
1,69,0,1
1,74,0,1
1,66,78,63
1,66,0,14
1,66,98,23
1,69,90,3
1,74,91,0
1,74,0,100
1,66,0,3
1,69,0,3
1,74,92,11
1,69,105,0
1,66,110,0
1,66,0,15
1,74,0,1
1,69,0,1
1,66,86,62
1,66,0,18
1,64,86,24
1,69,87,3
1,73,93,0
1,64,0,105
1,73,0,3
1,69,0,2
1,64,88,11
1,69,93,1
1,73,102,2
1,73,0,11
1,64,0,2
1,69,0,1
1,64,81,65
1,64,0,25
1,76,86,23
1,73,83,0
1,69,89,1
1,64,76,0
1,64,0,86
1,76,0,3
1,69,0,8
1,73,0,0
1,69,91,19
1,73,92,1
1,76,85,0
1,64,84,2
1,76,0,10
1,73,0,0
1,64,0,1
1,69,0,1
1,64,67,67
1,64,0,6
1,64,91,35
1,69,84,0
1,76,82,0
1,73,81,2
1,76,0,87
1,64,0,2
1,69,0,11
1,73,0,3
1,76,86,7
1,73,75,1
1,69,89,0
1,64,86,3
1,64,0,8
1,76,0,2
1,73,0,1
1,69,0,1
1,64,78,63
1,64,0,12
1,64,96,29
1,76,87,4
1,69,90,0
1,73,89,0
1,76,0,101
1,64,0,1
1,69,0,2
1,73,0,3
1,76,79,10
1,73,101,1
1,64,86,2
1,69,93,0
1,69,0,13
1,76,0,0
1,73,0,0
1,64,0,0
1,64,86,59
1,64,0,21
1,68,97,23
1,76,86,0
1,71,86,5
1,76,0,89
1,68,0,14
1,71,0,2
1,76,81,7
1,68,104,4
1,71,96,0
1,71,0,16
1,68,0,0
1,76,0,0
1,68,101,106
1,71,86,0
1,76,86,1
1,76,0,100
1,68,0,2
1,71,0,3
1,68,101,14
1,76,86,1
1,71,86,2
1,71,0,13
1,76,0,0
1,68,0,3
1,68,84,56
1,68,0,19
1,68,102,22
1,71,86,0
1,76,84,0
1,76,0,107
1,68,0,4
1,71,0,4
1,76,78,8
1,68,102,0
1,71,74,0
1,71,0,13
1,76,0,0
1,68,0,2
1,68,90,66
1,68,0,16
1,74,81,28
1,76,81,0
1,68,97,0
1,71,73,0
1,76,0,92
1,74,0,6
1,68,0,0
1,71,0,2
1,68,107,14
1,71,86,3
1,76,82,0
1,74,86,0
1,74,0,12
1,71,0,1
1,76,0,1
1,68,0,0
1,68,82,61
1,68,0,15
1,69,98,25
1,76,98,0
1,73,98,1
1,76,0,93
1,73,0,7
1,69,0,1
1,69,93,14
1,76,91,1
1,73,101,1
1,64,66,5
1,64,0,8
1,76,0,3
1,69,0,2
1,73,0,1
1,64,96,22
1,64,0,11
1,64,101,30
1,64,0,9
1,69,96,33
1,66,116,0
1,74,73,3
1,74,0,82
1,66,0,15
1,69,0,1
1,74,88,12
1,69,96,1
1,66,101,2
1,74,0,13
1,66,0,2
1,69,0,2
1,66,98,66
1,66,0,23
1,69,100,19
1,64,100,0
1,73,102,5
1,64,0,113
1,69,0,6
1,73,0,1
1,64,91,5
1,64,0,13
1,64,87,56
1,64,0,5
1,71,78,37
1,68,95,1
1,76,86,0
1,76,0,91
1,68,0,5
1,71,0,2
1,76,82,17
1,74,77,2
1,68,101,0
1,76,0,14
1,74,0,2
1,68,0,4
1,73,93,78
1,76,89,1
1,69,81,1
1,76,0,121
1,69,0,2
1,73,0,5
1,73,91,8
1,76,88,0
1,69,97,0
1,76,0,14
1,69,0,1
1,73,0,0
1,64,93,71
1,64,0,5
1,76,90,34
1,73,92,0
1,69,96,0
1,76,0,105
1,69,0,6
1,73,0,1
1,64,78,13
1,73,85,0
1,69,92,3
1,76,86,0
1,69,0,12
1,64,0,0
1,73,0,1
1,76,0,0
1,64,83,62
1,68,95,48
1,76,79,1
1,71,86,0
1,76,0,98
1,64,0,3
1,68,0,3
1,71,0,1
1,64,82,13
1,68,107,0
1,71,96,0
1,76,81,2
1,76,0,11
1,64,0,1
1,68,0,0
1,71,0,0
1,64,92,64
1,68,102,45
1,71,92,0
1,76,91,0
1,76,0,102
1,68,0,1
1,71,0,2
1,76,77,7
1,68,108,3
1,71,91,0
1,64,0,9
1,71,0,6
1,68,0,1
1,76,0,0
1,64,81,52
1,76,91,44
1,69,98,0
1,73,92,0
1,76,0,104
1,69,0,7
1,64,0,1
1,73,0,2
1,76,89,11
1,73,100,1
1,69,95,0
1,64,86,2
1,69,0,10
1,73,0,1
1,76,0,1
1,64,0,0
1,64,67,60
1,73,90,44
1,69,93,0
1,76,88,0
1,76,0,106
1,64,0,5
1,69,0,2
1,73,0,1
1,76,97,12
1,73,91,1
1,64,89,2
1,69,96,0
1,76,0,12
1,73,0,1
1,69,0,0
1,64,0,1
1,64,83,62
1,76,87,40
1,73,81,0
1,69,84,5
1,76,0,97
1,64,0,1
1,69,0,3
1,73,0,2
1,64,87,13
1,76,87,0
1,69,93,0
1,73,95,0
1,76,0,15
1,73,0,2
1,69,0,0
1,64,0,3
1,64,79,54
1,73,84,48
1,76,86,0
1,69,84,0
1,76,0,90
1,69,0,10
1,73,0,0
1,64,0,2
1,76,92,11
1,69,98,0
1,73,93,0
1,76,0,17
1,73,0,1
1,69,0,1
1,64,83,54
1,64,0,21
1,68,101,23
1,76,84,4
1,73,84,0
1,76,0,92
1,73,0,12
1,68,0,1
1,68,112,10
1,76,98,1
1,73,104,2
1,73,0,15
1,68,0,0
1,76,0,1
1,64,90,57
1,64,0,37
1,68,112,7
1,73,100,0
1,76,97,0
1,76,0,99
1,73,0,4
1,68,0,2
1,68,102,13
1,76,93,0
1,73,97,2
1,76,0,16
1,73,0,2
1,68,0,4
1,68,84,55
1,68,0,14
1,68,104,28
1,80,104,123
1,72,102,0
1,75,102,4
1,68,0,6
1,80,0,2
1,72,0,4
1,75,0,0
1,68,116,62
1,72,98,43
1,75,104,1
1,72,0,94
1,68,0,0
1,75,0,5
1,68,98,16
1,75,112,0
1,72,95,3
1,72,0,11
1,68,0,0
1,75,0,3
1,64,45,66
1,76,73,45
1,76,0,69
1,64,0,12
1,68,108,29
1,73,95,0
1,76,88,1
1,76,0,12
1,73,0,1
1,68,0,1
1,64,98,65
1,68,104,41
1,76,90,2
1,73,85,0
1,76,0,103
1,73,0,6
1,64,0,0
1,68,0,6
1,76,91,11
1,68,101,0
1,73,101,4
1,76,0,14
1,73,0,2
1,68,0,4
1,64,86,53
1,64,0,17
1,74,89,32
1,68,96,0
1,74,0,10
1,68,0,1
1,66,98,457
1,74,92,0
1,69,87,0
1,74,0,84
1,66,0,10
1,69,0,2
1,69,97,12
1,66,107,0
1,74,90,1
1,66,0,10
1,69,0,0
1,74,0,1
1,66,93,113
1,69,85,3
1,74,87,0
1,74,0,90
1,66,0,7
1,69,0,4
1,74,96,13
1,66,105,0
1,69,96,0
1,66,0,16
1,74,0,0
1,69,0,1
1,66,100,63
1,66,0,17
1,66,95,22
1,69,82,2
1,74,76,0
1,74,0,108
1,66,0,1
1,69,0,3
1,74,95,12
1,69,102,0
1,66,112,0
1,66,0,12
1,69,0,0
1,74,0,2
1,66,80,69
1,66,0,31
1,66,65,5
1,74,95,3
1,69,93,1
1,74,0,84
1,66,0,17
1,69,0,4
1,69,98,12
1,74,95,0
1,66,112,0
1,66,0,15
1,69,0,0
1,74,0,2
1,64,96,56
1,76,87,45
1,73,100,4
1,69,98,0
1,76,0,98
1,69,0,2
1,73,0,0
1,76,92,16
1,73,101,0
1,69,104,0
1,69,0,13
1,73,0,0
1,76,0,0
1,64,0,3
1,64,85,68
1,76,85,40
1,73,88,0
1,69,87,4
1,76,0,90
1,69,0,14
1,73,0,1
1,69,102,20
1,73,107,1
1,76,93,0
1,76,0,15
1,64,0,0
1,69,0,0
1,73,0,0
1,64,82,56
1,69,96,46
1,73,91,0
1,76,89,0
1,76,0,81
1,69,0,20
1,73,0,2
1,73,90,12
1,69,92,2
1,76,89,0
1,76,0,13
1,69,0,1
1,73,0,0
1,64,0,6
1,64,91,53
1,73,90,52
1,69,91,0
1,76,91,0
1,76,0,88
1,69,0,6
1,73,0,0
1,76,93,15
1,69,95,1
1,73,100,2
1,76,0,13
1,73,0,3
1,69,0,0
1,64,0,9
1,64,86,49
1,76,79,52
1,68,95,0
1,74,89,5
1,71,89,0
1,76,0,93
1,74,0,4
1,71,0,0
1,68,0,0
1,68,104,14
1,74,91,3
1,71,83,0
1,76,77,0
1,76,0,11
1,74,0,1
1,71,0,0
1,68,0,2
1,64,0,8
1,64,74,53
1,64,0,27
1,74,81,17
1,64,59,1
1,71,81,3
1,68,89,1
1,76,69,0
1,74,0,80
1,76,0,11
1,68,0,7
1,71,0,0
1,76,85,13
1,68,110,6
1,71,97,0
1,76,0,11
1,64,0,2
1,71,0,0
1,68,0,1
1,64,81,60
1,76,84,43
1,71,91,0
1,68,100,0
1,76,0,92
1,68,0,5
1,71,0,3
1,76,86,9
1,71,100,3
1,68,110,0
1,64,0,13
1,76,0,1
1,71,0,4
1,68,0,1
1,64,74,59
1,64,0,19
1,68,102,31
1,64,75,0
1,76,86,1
1,71,87,0
1,76,0,100
1,68,0,3
1,71,0,2
1,76,86,11
1,68,110,1
1,71,97,0
1,64,0,12
1,76,0,3
1,71,0,0
1,68,0,1
1,64,70,59
1,73,90,46
1,76,87,0
1,69,95,0
1,76,0,97
1,73,0,4
1,69,0,1
1,76,92,13
1,73,102,3
1,69,95,0
1,64,0,13
1,76,0,4
1,69,0,1
1,73,0,3
1,64,81,17
1,64,0,15
1,64,105,28
1,64,0,10
1,66,107,31
1,69,98,1
1,74,93,2
1,74,0,97
1,66,0,8
1,74,90,10
1,66,100,3
1,74,0,21
1,69,0,1
1,66,0,3
1,62,97,17
1,62,0,14
1,62,89,21
1,62,0,14
1,64,100,27
1,69,107,1
1,73,107,2
1,64,0,98
1,69,0,3
1,73,0,2
1,64,89,13
1,73,100,0
1,69,90,1
1,69,0,12
1,73,0,1
1,64,0,1
1,64,71,65
1,64,0,21
1,64,93,19
1,73,89,0
1,69,92,0
1,73,0,85
1,69,0,9
1,64,0,3
1,64,89,18
1,73,98,1
