track,note,velocity,time
1,40,127,1317
1,45,127,0
1,57,127,2
1,59,127,1
1,61,127,28
1,59,0,2
1,45,0,57
1,40,0,4
1,57,0,4
1,61,0,2
1,57,127,20
1,45,127,0
1,57,0,2
1,45,0,8
1,45,127,20
1,57,127,2
1,57,0,2
1,45,0,8
1,50,127,18
1,55,127,0
1,62,127,0
1,62,0,50
1,50,0,0
1,55,0,2
1,52,127,8
1,57,127,0
1,45,127,0
1,59,127,0
1,59,0,30
1,61,127,0
1,61,0,30
1,45,0,0
1,57,0,0
1,52,0,0
1,45,127,120
1,52,127,0
1,57,127,0
1,66,127,0
1,66,0,30
1,67,127,0
1,67,0,30
1,57,0,0
1,52,0,0
1,45,0,0
1,62,127,0
1,50,127,0
1,57,127,0
1,66,127,0
1,57,0,120
1,62,0,0
1,50,0,0
1,50,127,30
1,57,127,0
1,62,127,0
1,66,0,13
1,62,0,17
1,62,127,0
1,66,127,0
1,57,0,30
1,50,0,0
1,62,0,30
1,66,0,0
1,52,127,0
1,57,127,0
1,45,127,0
1,59,127,0
1,59,0,30
1,61,127,0
1,61,0,30
1,45,0,0
1,57,0,0
1,52,0,0
1,45,116,60
1,45,0,105
1,52,127,15
1,45,127,0
1,57,127,2
1,59,127,1
1,61,127,28
1,59,0,2
1,45,0,22
1,52,0,0
1,57,0,7
1,61,0,0
1,52,127,88
1,45,127,0
1,57,127,0
1,57,0,30
1,55,127,0
1,62,127,0
1,52,0,25
1,45,0,5
1,55,0,0
1,62,0,0
1,52,127,30
1,57,127,0
1,45,127,0
1,59,127,0
1,59,0,30
1,61,127,0
1,61,0,30
1,45,0,0
1,57,0,0
1,52,0,0
1,45,60,30
1,45,0,90
1,45,127,0
1,52,127,0
1,57,127,0
1,66,127,0
1,66,0,30
1,67,127,0
1,67,0,30
1,57,0,0
1,52,0,0
1,45,0,0
1,62,127,0
1,50,127,0
1,57,127,0
1,66,127,0
1,50,0,90
1,62,0,20
1,57,0,3
1,66,0,20
1,50,127,17
1,57,127,0
1,62,127,0
1,62,0,30
1,62,127,0
1,66,127,0
1,57,0,30
1,50,0,0
1,62,0,30
1,66,0,0
1,52,127,0
1,57,127,0
1,45,127,0
1,59,127,0
1,59,0,30
1,61,127,0
1,61,0,30
1,45,0,0
1,57,0,0
1,52,0,0
1,45,110,60
1,45,0,105
1,52,127,15
1,45,127,0
1,57,127,2
1,59,127,1
1,61,127,28
1,59,0,2
1,45,0,22
1,52,0,0
1,57,0,7
1,61,0,0
1,52,127,88
1,45,127,0
1,57,127,0
1,57,0,30
1,55,127,0
1,62,127,0
1,52,0,25
1,45,0,5
1,55,0,0
1,62,0,0
1,52,127,30
1,57,127,0
1,45,127,0
1,59,127,0
1,59,0,30
1,61,127,0
1,61,0,30
1,45,0,0
1,57,0,0
1,52,0,0
1,45,127,120
1,52,127,0
1,57,127,0
1,66,127,0
1,66,0,30
1,67,127,0
1,67,0,30
1,57,0,0
1,52,0,0
1,45,0,0
1,62,127,0
1,50,127,0
1,57,127,0
1,66,127,0
1,57,0,120
1,50,0,0
1,62,0,20
1,66,0,6
1,50,127,4
1,57,127,0
1,62,127,0
1,62,0,30
1,62,127,0
1,66,127,0
1,57,0,30
1,50,0,0
1,62,0,30
1,66,0,0
1,52,127,0
1,57,127,0
1,45,127,0
1,59,127,0
1,59,0,30
1,61,127,0
1,61,0,30
1,45,0,0
1,57,0,0
1,52,0,0
1,45,127,60
1,45,0,105
1,52,127,15
1,45,127,0
1,57,127,2
1,59,127,1
1,61,127,28
1,59,0,2
1,45,0,22
1,52,0,0
1,57,0,7
1,61,0,0
1,52,127,88
1,45,127,0
1,57,127,0
1,57,0,30
1,55,127,0
1,62,127,0
1,52,0,25
1,45,0,5
1,55,0,0
1,62,0,0
1,52,127,30
1,57,127,0
1,45,127,0
1,59,127,0
1,59,0,30
1,61,127,0
1,61,0,30
1,45,0,0
1,57,0,0
1,52,0,0
1,45,127,120
1,52,127,0
1,57,127,0
1,66,127,0
1,66,0,30
1,67,127,0
1,67,0,30
1,57,0,0
1,52,0,0
1,45,0,0
1,62,127,0
1,50,127,0
1,57,127,0
1,66,127,0
1,57,0,120
1,50,0,0
1,62,0,6
1,66,0,17
1,50,127,7
1,57,127,0
1,62,127,0
1,62,0,30
1,62,127,0
1,66,127,0
1,57,0,30
1,50,0,0
1,62,0,30
1,66,0,0
1,52,127,0
1,57,127,0
1,45,127,0
1,59,127,0
1,59,0,30
1,61,127,0
1,61,0,30
1,45,0,0
1,57,0,0
1,52,0,0
1,45,115,60
1,45,0,105
1,57,127,12
1,57,0,29
1,55,127,1
1,55,0,25
1,52,127,4
1,52,0,26
1,50,127,8
1,50,0,43
1,48,127,17
1,48,0,30
1,43,127,30
1,45,127,28
1,43,0,2
1,45,0,66
1,45,127,50
1,40,127,4
1,57,127,2
1,57,0,86
1,40,0,0
1,45,0,3
1,57,127,25
1,55,127,30
1,57,0,4
1,52,127,25
1,55,0,7
1,52,0,23
1,50,127,0
1,50,0,43
1,48,127,18
1,48,0,30
1,43,127,34
1,43,0,30
1,45,127,0
1,45,0,150
1,57,127,86
1,55,127,30
1,57,0,4
1,52,127,25
1,55,0,7
1,52,0,23
1,50,127,0
1,50,0,43
1,48,127,18
1,48,0,30
1,43,127,34
1,43,0,22
1,45,127,5
1,45,0,68
1,45,127,50
1,40,127,1
1,57,127,2
1,40,0,84
1,45,0,8
1,57,0,3
1,57,127,22
1,55,127,30
1,57,0,4
1,52,127,25
1,55,0,7
1,52,0,23
1,50,127,0
1,50,0,43
1,48,127,18
1,48,0,45
1,43,127,20
1,43,0,22
1,45,127,4
1,45,0,150
1,59,127,90
1,57,127,30
1,59,0,4
1,54,127,25
1,57,0,7
1,54,0,23
1,52,127,0
1,52,0,43
1,50,127,18
1,50,0,30
1,45,127,34
1,47,127,27
1,45,0,3
1,47,0,65
1,54,119,49
1,47,119,1
1,42,119,1
1,35,119,2
1,54,0,91
1,47,0,1
1,42,0,1
1,35,0,2
1,59,127,22
1,57,127,30
1,59,0,4
1,54,127,25
1,57,0,7
1,54,0,23
1,52,127,0
1,52,0,43
1,50,127,18
1,50,0,30
1,45,127,35
1,47,127,26
1,45,0,4
1,47,0,176
1,59,127,60
1,57,127,30
1,59,0,4
1,54,127,25
1,57,0,7
1,54,0,23
1,52,127,0
1,52,0,43
1,50,127,18
1,50,0,30
1,45,127,34
1,45,0,22
1,47,127,5
1,47,0,68
1,35,115,49
1,47,115,1
1,54,115,1
1,42,115,0
1,35,0,93
1,47,0,1
1,54,0,1
1,42,0,0
1,59,127,24
1,57,127,30
1,59,0,4
1,54,127,25
1,57,0,7
1,54,0,23
1,52,127,0
1,52,0,43
1,50,127,18
1,50,0,45
1,45,127,20
1,45,0,22
1,47,127,4
1,47,0,45
1,68,102,19
1,47,102,0
1,52,102,0
1,56,102,0
1,59,102,0
1,62,102,0
1,62,0,120
1,47,0,0
1,52,0,0
1,68,0,0
1,59,0,0
1,56,0,0
1,52,127,60
1,45,127,0
1,57,127,2
1,59,127,1
1,61,127,28
1,59,0,2
1,45,0,22
1,52,0,0
1,57,0,7
1,61,0,0
1,52,127,88
1,45,127,0
1,57,127,0
1,57,0,30
1,55,127,0
1,62,127,0
1,52,0,25
1,45,0,5
1,55,0,0
1,62,0,0
1,52,127,30
1,57,127,0
1,45,127,0
1,59,127,0
1,59,0,30
1,61,127,0
1,61,0,30
1,45,0,0
1,57,0,0
1,52,0,0
1,45,127,120
1,52,127,0
1,57,127,0
1,66,127,0
1,66,0,30
1,67,127,0
1,67,0,30
1,57,0,0
1,52,0,0
1,45,0,0
1,62,127,0
1,50,127,0
1,57,127,0
1,66,127,0
1,50,0,90
1,57,0,20
1,62,0,13
1,66,0,10
1,50,127,17
1,57,127,0
1,62,127,0
1,62,0,30
1,62,127,0
1,66,127,0
1,57,0,30
1,50,0,0
1,62,0,30
1,66,0,0
1,52,127,0
1,57,127,0
1,45,127,0
1,59,127,0
1,59,0,30
1,61,127,0
1,61,0,30
1,45,0,0
1,57,0,0
1,52,0,0
1,45,127,60
1,45,0,105
1,52,127,15
1,45,127,0
1,57,127,2
1,59,127,1
1,61,127,28
1,59,0,2
1,45,0,22
1,52,0,0
1,57,0,7
1,61,0,0
1,52,127,88
1,45,127,0
1,57,127,0
1,57,0,30
1,55,127,0
1,62,127,0
1,52,0,25
1,45,0,5
1,55,0,0
1,62,0,0
1,52,127,30
1,57,127,0
1,45,127,0
1,59,127,0
1,59,0,30
1,61,127,0
1,61,0,30
1,45,0,0
1,57,0,0
1,52,0,0
1,45,127,120
1,52,127,0
1,57,127,0
1,66,127,0
1,66,0,30
1,67,127,0
1,67,0,30
1,57,0,0
1,52,0,0
1,45,0,0
1,62,127,0
1,50,127,0
1,57,127,0
1,66,127,0
1,50,0,120
1,62,0,16
1,57,0,4
1,66,0,6
1,50,127,4
1,57,127,0
1,62,127,0
1,62,0,30
1,62,127,0
1,66,127,0
1,57,0,30
1,50,0,0
1,62,0,30
1,66,0,0
1,52,127,0
1,57,127,0
1,45,127,0
1,59,127,0
1,59,0,30
1,61,127,0
1,61,0,30
1,45,0,0
1,57,0,0
1,52,0,0
1,45,127,60
1,45,0,105
1,52,127,15
1,45,127,0
1,57,127,2
1,59,127,1
1,61,127,28
1,59,0,2
1,45,0,22
1,52,0,0
1,57,0,7
1,61,0,0
1,52,127,88
1,45,127,0
1,57,127,0
1,57,0,30
1,55,127,0
1,62,127,0
1,52,0,25
1,45,0,5
1,55,0,0
1,62,0,0
1,52,127,30
1,57,127,0
1,45,127,0
1,59,127,0
1,59,0,30
1,61,127,0
1,61,0,30
1,45,0,0
1,57,0,0
1,52,0,0
1,45,127,120
1,52,127,0
1,57,127,0
1,66,127,0
1,66,0,30
1,67,127,0
1,67,0,30
1,57,0,0
1,52,0,0
1,45,0,0
1,62,127,0
1,50,127,0
1,57,127,0
1,66,127,0
1,57,0,136
1,62,0,0
1,50,0,0
1,66,0,10
1,50,127,4
1,57,127,0
1,62,127,0
1,62,0,30
1,62,127,0
1,66,127,0
1,57,0,30
1,50,0,0
1,62,0,30
1,66,0,0
1,52,127,0
1,57,127,0
1,45,127,0
1,59,127,0
1,59,0,30
1,61,127,0
1,61,0,30
1,45,0,0
1,57,0,0
1,52,0,0
1,45,127,60
1,45,0,105
1,57,127,12
1,57,0,29
1,55,127,1
1,55,0,25
1,52,127,4
1,52,0,26
1,50,127,8
1,50,0,43
1,48,127,17
1,48,0,30
1,43,127,30
1,45,127,28
1,43,0,2
1,45,0,66
1,45,127,50
1,40,127,4
1,57,127,2
1,57,0,86
1,40,0,0
1,45,0,3
1,57,127,25
1,55,127,30
1,57,0,4
1,52,127,25
1,55,0,7
1,52,0,23
1,50,127,0
1,50,0,43
1,48,127,18
1,48,0,30
1,43,127,34
1,43,0,30
1,45,127,0
1,45,0,150
1,57,127,86
1,55,127,30
1,57,0,4
1,52,127,25
1,55,0,7
1,52,0,23
1,50,127,0
1,50,0,43
1,48,127,18
1,48,0,30
1,43,127,34
1,43,0,22
1,45,127,5
1,45,0,68
1,45,127,50
1,40,127,1
1,57,127,2
1,40,0,84
1,45,0,8
1,57,0,3
1,57,127,22
1,55,127,30
1,57,0,4
1,52,127,25
1,55,0,7
1,52,0,23
1,50,127,0
1,50,0,43
1,48,127,18
1,48,0,45
1,43,127,20
1,43,0,22
1,45,127,4
1,45,0,150
1,59,127,90
1,57,127,30
1,59,0,4
1,54,127,25
1,57,0,7
1,54,0,23
1,52,127,0
1,52,0,43
1,50,127,18
1,50,0,30
1,45,127,34
1,47,127,27
1,45,0,3
1,47,0,65
1,54,119,49
1,47,119,1
1,42,119,1
1,35,119,2
1,54,0,91
1,47,0,1
1,42,0,1
1,35,0,2
1,59,127,22
1,57,127,30
1,59,0,4
1,54,127,25
1,57,0,7
1,54,0,23
1,52,127,0
1,52,0,43
1,50,127,18
1,50,0,30
1,45,127,35
1,47,127,26
1,45,0,4
1,47,0,176
1,59,127,60
1,57,127,30
1,59,0,4
1,54,127,25
1,57,0,7
1,54,0,23
1,52,127,0
1,52,0,43
1,50,127,18
1,50,0,30
1,45,127,34
1,45,0,22
1,47,127,5
1,47,0,68
1,35,115,49
1,47,115,1
1,54,115,1
1,42,115,0
1,35,0,93
1,47,0,1
1,54,0,1
1,42,0,0
1,59,127,24
1,57,127,30
1,59,0,4
1,54,127,25
1,57,0,7
1,54,0,23
1,52,127,0
1,52,0,43
1,50,127,18
1,50,0,45
1,45,127,20
1,45,0,22
1,47,127,4
1,47,0,45
1,68,106,19
1,47,106,0
1,52,106,0
1,56,106,0
1,59,106,0
1,62,106,0
1,62,0,120
1,47,0,0
1,52,0,0
1,68,0,0
1,59,0,0
1,56,0,0
1,52,127,60
1,45,127,0
1,57,127,2
1,59,127,1
1,61,127,28
1,59,0,2
1,45,0,22
1,52,0,0
1,57,0,7
1,61,0,0
1,52,127,88
1,45,127,0
1,57,127,0
1,57,0,30
1,55,127,0
1,62,127,0
1,52,0,25
1,45,0,5
1,55,0,0
1,62,0,0
1,52,127,30
1,57,127,0
1,45,127,0
1,59,127,0
1,59,0,30
1,61,127,0
1,61,0,30
1,45,0,0
1,57,0,0
1,52,0,0
1,45,127,120
1,52,127,0
1,57,127,0
1,66,127,0
1,66,0,30
1,67,127,0
1,67,0,30
1,57,0,0
1,52,0,0
1,45,0,0
1,62,127,0
1,50,127,0
1,57,127,0
1,66,127,0
1,50,0,90
1,57,0,20
1,62,0,13
1,66,0,10
1,50,127,17
1,57,127,0
1,62,127,0
1,62,0,30
1,62,127,0
1,66,127,0
1,57,0,30
1,50,0,0
1,62,0,30
1,66,0,0
1,52,127,0
1,57,127,0
1,45,127,0
1,59,127,0
1,59,0,30
1,61,127,0
1,61,0,30
1,45,0,0
1,57,0,0
1,52,0,0
1,45,127,60
1,45,0,105
1,52,127,8655
1,45,127,0
1,57,127,2
1,59,127,1
1,61,127,28
1,59,0,2
1,45,0,22
1,52,0,0
1,57,0,7
1,61,0,0
1,52,127,88
1,45,127,0
1,57,127,0
1,57,0,30
1,55,127,0
1,62,127,0
1,52,0,25
1,45,0,5
1,55,0,0
1,62,0,0
1,52,127,30
1,57,127,0
1,45,127,0
1,59,127,0
1,59,0,30
1,61,127,0
1,61,0,30
1,45,0,0
1,57,0,0
1,52,0,0
1,45,60,30
1,45,0,90
1,45,127,0
1,52,127,0
1,57,127,0
1,66,127,0
1,66,0,30
1,67,127,0
1,67,0,30
1,57,0,0
1,52,0,0
1,45,0,0
1,62,127,0
1,50,127,0
1,57,127,0
1,66,127,0
1,50,0,90
1,62,0,20
1,57,0,3
1,66,0,20
1,50,127,17
1,57,127,0
1,62,127,0
1,62,0,30
1,62,127,0
1,66,127,0
1,57,0,30
1,50,0,0
1,62,0,30
1,66,0,0
1,52,127,0
1,57,127,0
1,45,127,0
1,59,127,0
1,59,0,30
1,61,127,0
1,61,0,30
1,45,0,0
1,57,0,0
1,52,0,0
1,45,110,60
1,45,0,105
1,52,127,15
1,45,127,0
1,57,127,2
1,59,127,1
1,61,127,28
1,59,0,2
1,45,0,22
1,52,0,0
1,57,0,7
1,61,0,0
1,52,127,88
1,45,127,0
1,57,127,0
1,57,0,30
1,55,127,0
1,62,127,0
1,52,0,25
1,45,0,5
1,55,0,0
1,62,0,0
1,52,127,30
1,57,127,0
1,45,127,0
1,59,127,0
1,59,0,30
1,61,127,0
1,61,0,30
1,45,0,0
1,57,0,0
1,52,0,0
1,45,127,120
1,52,127,0
1,57,127,0
1,66,127,0
1,66,0,30
1,67,127,0
1,67,0,30
1,57,0,0
1,52,0,0
1,45,0,0
1,62,127,0
1,50,127,0
1,57,127,0
1,66,127,0
1,57,0,120
1,50,0,0
1,62,0,20
1,66,0,6
1,50,127,4
1,57,127,0
1,62,127,0
1,62,0,30
1,62,127,0
1,66,127,0
1,57,0,30
1,50,0,0
1,62,0,30
1,66,0,0
