track,note,velocity,time
1,36,110,0
1,36,0,96
1,36,110,96
1,36,0,96
1,36,110,0
1,36,0,96
1,38,110,96
1,38,0,96
1,36,110,192
1,36,0,96
1,36,110,96
1,36,0,96
1,36,110,0
1,36,0,96
1,38,110,96
1,42,110,0
1,42,0,96
1,38,0,0
1,36,110,192
1,36,0,96
1,36,110,96
1,36,0,96
1,36,110,0
1,36,0,96
1,38,110,96
1,38,0,96
1,36,110,192
1,36,0,96
1,36,110,96
1,36,0,96
1,36,110,0
1,36,0,96
1,38,110,96
1,38,0,96
1,36,110,192
1,36,0,96
1,36,110,96
1,36,0,96
1,36,110,0
1,36,0,96
1,38,110,96
1,38,0,96
1,38,110,96
1,38,0,96
1,36,110,192
1,36,0,96
1,36,110,0
1,36,0,96
1,38,110,96
1,38,0,96
1,36,110,192
1,36,0,96
1,36,110,96
1,36,0,96
1,36,110,0
1,36,0,96
1,36,110,96
1,36,0,48
1,36,110,0
1,36,0,48
1,38,110,0
1,57,110,0
1,57,0,96
1,38,0,0
1,36,110,0
1,36,0,48
1,36,110,0
1,36,0,48
1,36,110,0
1,36,0,96
1,36,110,96
1,36,0,96
1,36,110,0
1,36,0,96
1,38,110,96
1,38,0,96
1,38,110,96
1,38,0,96
1,36,110,0
1,36,0,96
1,36,110,96
1,36,0,96
1,36,110,0
1,36,0,96
1,38,110,96
1,38,0,96
1,38,110,96
1,38,0,96
1,36,110,0
1,36,0,96
1,36,110,96
1,36,0,96
1,36,110,0
1,36,0,96
1,38,110,96
1,38,0,96
1,36,110,192
1,36,0,96
1,36,110,96
1,36,0,96
1,36,110,0
1,36,0,96
1,36,110,96
1,36,0,48
1,36,110,0
1,36,0,48
1,38,110,0
1,57,110,0
1,57,0,96
1,38,0,0
1,36,110,0
1,36,0,48
1,36,110,0
1,36,0,48
1,36,110,0
1,42,110,0
1,57,110,0
1,57,0,96
1,42,0,0
1,36,0,0
1,42,110,0
1,42,0,96
1,38,110,0
1,42,110,0
1,42,0,96
1,38,0,0
1,36,110,0
1,42,110,0
1,42,0,96
1,36,0,0
1,42,110,0
1,42,0,96
1,36,110,0
1,42,110,0
1,42,0,96
1,36,0,0
1,38,110,0
1,42,110,0
1,42,0,96
1,38,0,0
1,42,110,0
1,42,0,96
1,36,110,0
1,42,110,0
1,42,0,96
1,36,0,0
1,42,110,0
1,42,0,96
1,38,110,0
1,42,110,0
1,42,0,96
1,38,0,0
1,36,110,0
1,42,110,0
1,42,0,96
1,36,0,0
1,42,110,0
1,42,0,96
1,36,110,0
1,42,110,0
1,42,0,96
1,36,0,0
1,38,110,0
1,42,110,0
1,42,0,96
1,38,0,0
1,42,110,0
1,42,0,96
1,36,110,0
1,42,110,0
1,42,0,96
1,36,0,0
1,42,110,0
1,42,0,96
1,38,110,0
1,42,110,0
1,42,0,96
1,38,0,0
1,36,110,0
1,42,110,0
1,42,0,96
1,36,0,0
1,42,110,0
1,42,0,96
1,36,110,0
1,42,110,0
1,42,0,96
1,36,0,0
1,38,110,0
1,42,110,0
1,42,0,96
1,38,0,0
1,42,110,0
1,42,0,96
1,36,110,0
1,42,110,0
1,42,0,96
1,36,0,0
1,42,110,0
1,42,0,96
1,38,110,0
1,42,110,0
1,42,0,96
1,38,0,0
1,36,110,0
1,42,110,0
1,42,0,96
1,36,0,0
1,42,110,0
1,42,0,96
1,36,110,0
1,42,110,0
1,42,0,96
1,36,0,0
1,38,110,0
1,42,110,0
1,42,0,96
1,38,0,0
1,42,110,0
1,42,0,96
1,36,110,0
1,42,110,0
1,57,110,0
1,57,0,96
1,42,0,0
1,36,0,0
1,42,110,0
1,42,0,96
1,38,110,0
1,42,110,0
1,42,0,96
1,38,0,0
1,36,110,0
1,42,110,0
1,42,0,96
1,36,0,0
1,42,110,0
1,42,0,96
1,36,110,0
1,42,110,0
1,42,0,96
1,36,0,0
1,38,110,0
1,42,110,0
1,42,0,96
1,38,0,0
1,42,110,0
1,42,0,96
1,36,110,0
1,42,110,0
1,42,0,96
1,36,0,0
1,42,110,0
1,42,0,96
1,38,110,0
1,42,110,0
1,42,0,96
1,38,0,0
1,36,110,0
1,42,110,0
1,42,0,96
1,36,0,0
1,42,110,0
1,42,0,96
1,36,110,0
1,42,110,0
1,57,110,0
1,57,0,96
1,42,0,0
1,36,0,0
1,38,110,0
1,42,110,0
1,42,0,96
1,38,0,0
1,42,110,0
1,57,110,0
1,57,0,96
1,42,0,0
1,36,110,0
1,42,110,0
1,42,0,96
1,36,0,0
1,42,110,0
1,42,0,96
1,38,110,0
1,42,110,0
1,42,0,96
1,38,0,0
1,36,110,0
1,42,110,0
1,42,0,96
1,36,0,0
1,42,110,0
1,42,0,96
1,36,110,0
1,42,110,0
1,42,0,96
1,36,0,0
1,38,110,0
1,42,110,0
1,42,0,96
1,38,0,0
1,42,110,0
1,42,0,96
1,36,110,0
1,42,110,0
1,42,0,96
1,36,0,0
1,42,110,0
1,42,0,96
1,38,110,0
1,42,110,0
1,42,0,96
1,38,0,0
1,36,110,0
1,42,110,0
1,42,0,96
1,36,0,0
1,42,110,0
1,42,0,96
1,36,110,0
1,42,110,0
1,42,0,96
1,36,0,0
1,38,110,0
1,42,110,0
1,42,0,96
1,38,0,0
1,42,110,0
1,42,0,96
1,36,110,0
1,42,110,0
1,57,110,0
1,57,0,96
1,42,0,0
1,36,0,0
1,42,110,0
1,42,0,96
1,38,110,0
1,42,110,0
1,42,0,96
1,38,0,0
1,36,110,0
1,42,110,0
1,42,0,96
1,36,0,0
1,42,110,0
1,42,0,96
1,36,110,0
1,42,110,0
1,42,0,96
1,36,0,0
1,38,110,0
1,42,110,0
1,42,0,96
1,38,0,0
1,42,110,0
1,42,0,96
1,36,110,0
1,42,110,0
1,42,0,96
1,36,0,0
1,42,110,0
1,42,0,96
1,38,110,0
1,42,110,0
1,42,0,96
1,38,0,0
1,36,110,0
1,42,110,0
1,42,0,96
1,36,0,0
1,42,110,0
1,42,0,96
1,36,110,0
1,42,110,0
1,42,0,96
1,36,0,0
1,38,110,0
1,42,110,0
1,42,0,96
1,38,0,0
1,46,110,0
1,46,0,96
1,36,110,0
1,42,110,0
1,57,110,0
1,57,0,672
1,42,0,0
1,36,0,0
1,36,110,0
1,46,110,0
1,46,0,96
1,36,0,0
1,36,110,0
1,42,110,0
1,57,110,0
1,57,0,672
1,42,0,0
1,36,0,0
1,36,110,0
1,46,110,0
1,46,0,96
1,36,0,0
1,36,110,0
1,57,110,0
1,57,0,768
1,36,0,0
1,38,110,384
1,38,0,96
1,36,110,192
1,46,110,0
1,46,0,96
1,36,0,0
1,36,110,0
1,42,110,0
1,57,110,0
1,57,0,672
1,42,0,0
1,36,0,0
1,36,110,0
1,46,110,0
1,46,0,96
1,36,0,0
1,36,110,0
1,42,110,0
1,57,110,0
1,57,0,672
1,42,0,0
1,36,0,0
1,36,110,0
1,46,110,0
1,46,0,96
1,36,0,0
1,36,110,0
1,57,110,0
1,57,0,768
1,36,0,0
1,46,110,336
1,46,0,48
1,36,110,0
1,38,110,0
1,42,110,0
1,42,0,96
1,38,0,0
1,36,0,0
1,42,110,480
1,42,0,192
1,42,110,192
1,42,0,192
1,42,110,192
1,42,0,192
1,42,110,192
1,42,0,192
1,42,110,192
1,42,0,192
1,42,110,192
1,42,0,192
1,42,110,192
1,42,0,192
1,57,110,192
1,57,0,192
1,42,110,192
1,42,0,192
1,42,110,192
1,42,0,192
1,42,110,192
1,42,0,192
1,42,110,192
1,42,0,192
1,42,110,192
1,42,0,192
1,42,110,192
1,42,0,192
1,42,110,192
1,42,0,192
1,42,110,192
1,42,0,192
1,36,110,0
1,57,110,0
1,57,0,96
1,36,0,0
1,42,110,0
1,42,0,96
1,38,110,0
1,38,0,96
1,36,110,0
1,42,110,0
1,42,0,96
1,36,0,0
1,36,110,0
1,36,0,96
1,42,110,0
1,42,0,96
1,38,110,0
1,38,0,96
1,42,110,0
1,42,0,96
1,36,110,0
1,36,0,96
1,42,110,0
1,42,0,96
1,38,110,0
1,38,0,96
1,36,110,0
1,42,110,0
1,42,0,96
1,36,0,0
1,36,110,0
1,36,0,96
1,42,110,0
1,42,0,96
1,38,110,0
1,38,0,48
1,46,110,0
1,46,0,144
1,36,110,0
1,57,110,0
1,57,0,96
1,36,0,0
1,42,110,0
1,42,0,96
1,38,110,0
1,38,0,96
1,36,110,0
1,42,110,0
1,57,110,0
1,57,0,96
1,42,0,0
1,36,0,0
1,36,110,0
1,36,0,96
1,46,110,0
1,46,0,96
1,38,110,0
1,42,110,0
1,42,0,96
1,38,0,0
1,46,110,0
1,46,0,96
1,36,110,0
1,57,110,0
1,57,0,96
1,36,0,0
1,42,110,0
1,42,0,96
1,38,110,0
1,38,0,96
1,36,110,0
1,42,110,0
1,57,110,0
1,57,0,96
1,42,0,0
1,36,0,0
1,36,110,0
1,36,0,96
1,46,110,0
1,46,0,96
1,38,110,0
1,42,110,0
1,38,0,48
1,38,110,0
1,38,0,48
1,42,0,0
1,38,110,0
1,38,0,96
1,36,110,0
1,57,110,0
1,57,0,96
1,36,0,0
1,42,110,0
1,42,0,96
1,38,110,0
1,38,0,96
1,36,110,0
1,42,110,0
1,42,0,96
1,36,0,0
1,36,110,0
1,36,0,96
1,42,110,0
1,42,0,96
1,38,110,0
1,38,0,96
1,42,110,0
1,42,0,96
1,36,110,0
1,36,0,96
1,42,110,0
1,42,0,96
1,38,110,0
1,38,0,96
1,36,110,0
1,42,110,0
1,42,0,96
1,36,0,0
1,36,110,0
1,36,0,96
1,42,110,0
1,42,0,96
1,38,110,0
1,38,0,96
1,42,110,0
1,42,0,96
1,36,110,0
1,57,110,0
1,57,0,96
1,36,0,0
1,42,110,0
1,42,0,96
1,38,110,0
1,38,0,96
1,36,110,0
1,42,110,0
1,57,110,0
1,57,0,96
1,42,0,0
1,36,0,0
1,36,110,0
1,36,0,96
1,46,110,0
1,46,0,96
1,38,110,0
1,42,110,0
1,42,0,96
1,38,0,0
1,46,110,0
1,46,0,96
1,42,110,0
1,57,110,0
1,42,0,192
1,42,110,0
1,42,0,192
1,42,110,0
1,42,0,192
1,42,110,0
1,42,0,192
1,57,0,0
1,42,110,0
1,42,0,192
1,42,110,0
1,42,0,144
1,38,110,0
1,38,0,48
1,38,110,0
1,38,0,192
1,42,110,384
1,42,0,192
1,42,110,192
1,42,0,192
1,42,110,192
1,42,0,192
1,42,110,192
1,42,0,192
1,42,110,192
1,42,0,192
1,42,110,192
1,42,0,192
1,42,110,192
1,42,0,192
1,50,110,96
1,50,0,48
1,47,110,0
1,48,110,0
1,48,0,48
1,47,0,0
1,57,110,0
1,57,0,192
1,42,110,192
1,42,0,192
1,42,110,192
1,42,0,192
1,42,110,192
1,42,0,192
1,42,110,192
1,42,0,192
1,42,110,192
1,42,0,192
1,42,110,192
1,42,0,192
1,42,110,192
1,42,0,192
1,48,110,96
1,50,110,0
1,50,0,96
1,48,0,0
1,45,110,0
1,48,110,0
1,48,0,96
1,45,0,0
1,43,110,0
1,47,110,0
1,47,0,96
1,43,0,0
1,36,110,0
1,57,110,0
1,57,0,96
1,36,0,0
1,42,110,0
1,42,0,96
1,38,110,0
1,38,0,96
1,36,110,0
1,42,110,0
1,42,0,96
1,36,0,0
1,36,110,0
1,36,0,96
1,42,110,0
1,42,0,96
1,38,110,0
1,38,0,96
1,42,110,0
1,42,0,96
1,36,110,0
1,36,0,96
1,42,110,0
1,42,0,96
1,38,110,0
1,38,0,96
1,36,110,0
1,42,110,0
1,42,0,96
1,36,0,0
1,36,110,0
1,36,0,96
1,42,110,0
1,42,0,96
1,38,110,0
1,38,0,48
1,57,110,0
1,57,0,96
1,36,110,48
1,57,110,0
1,57,0,96
1,36,0,0
1,42,110,0
1,42,0,96
1,38,110,0
1,38,0,96
1,36,110,0
1,42,110,0
1,57,110,0
1,57,0,96
1,42,0,0
1,36,0,0
1,36,110,0
1,36,0,96
1,46,110,0
1,46,0,96
1,38,110,0
1,42,110,0
1,42,0,96
1,38,0,0
1,46,110,0
1,46,0,96
1,36,110,0
1,57,110,0
1,57,0,96
1,36,0,0
1,42,110,0
1,42,0,96
1,38,110,0
1,38,0,96
1,36,110,0
1,42,110,0
1,57,110,0
1,57,0,96
1,42,0,0
1,36,0,0
1,36,110,0
1,36,0,96
1,46,110,0
1,46,0,96
1,38,110,0
1,42,110,0
1,38,0,48
1,38,110,0
1,38,0,48
1,42,0,0
1,38,110,0
1,38,0,96
1,36,110,0
1,57,110,0
1,57,0,96
1,36,0,0
1,42,110,0
1,42,0,96
1,38,110,0
1,38,0,96
1,36,110,0
1,42,110,0
1,42,0,96
1,36,0,0
1,36,110,0
1,36,0,96
1,42,110,0
1,42,0,96
1,38,110,0
1,38,0,96
1,42,110,0
1,42,0,96
1,36,110,0
1,36,0,96
1,42,110,0
1,42,0,96
1,38,110,0
1,38,0,96
1,36,110,0
1,42,110,0
1,42,0,96
1,36,0,0
1,36,110,0
1,36,0,96
1,42,110,0
1,42,0,96
1,38,110,0
1,38,0,96
1,42,110,0
1,42,0,96
1,36,110,0
1,57,110,0
1,57,0,96
1,36,0,0
1,42,110,0
1,42,0,96
1,38,110,0
1,38,0,96
1,36,110,0
1,42,110,0
1,57,110,0
1,57,0,96
1,42,0,0
1,36,0,0
1,36,110,0
1,36,0,96
1,46,110,0
1,46,0,96
1,38,110,0
1,42,110,0
1,42,0,96
1,38,0,0
1,46,110,0
1,46,0,96
1,57,110,0
1,57,0,768
1,42,110,2304
1,42,0,96
1,38,110,96
1,38,0,96
1,42,110,96
1,42,0,96
1,42,110,96
1,42,0,96
1,42,110,96
1,42,0,96
1,38,110,96
1,38,0,96
1,42,110,96
1,42,0,96
1,42,110,96
1,42,0,96
1,42,110,96
1,42,0,96
1,38,110,96
1,38,0,96
1,42,110,96
1,42,0,96
1,42,110,96
1,42,0,96
1,42,110,96
1,42,0,96
1,42,110,96
1,42,0,96
1,38,110,96
1,42,110,0
1,42,0,96
1,38,0,0
1,38,110,96
1,42,110,0
1,42,0,96
1,38,0,0
1,36,110,96
1,42,110,0
1,57,110,0
1,57,0,96
1,42,0,0
1,36,0,0
1,38,110,96
1,38,0,96
1,36,110,96
1,42,110,0
1,42,0,96
1,36,0,0
1,38,110,96
1,42,110,0
1,42,0,96
1,38,0,0
1,42,110,96
1,42,0,96
1,38,110,96
1,38,0,96
1,42,110,96
1,42,0,96
1,38,110,96
1,38,0,96
1,36,110,96
1,42,110,0
1,42,0,96
1,36,0,0
1,38,110,96
1,38,0,96
1,36,110,0
1,36,0,96
1,36,110,0
1,42,110,0
1,42,0,96
1,36,0,0
1,38,110,96
1,42,110,0
1,42,0,96
1,38,0,0
1,42,110,96
1,42,0,96
1,38,110,96
1,38,0,96
1,42,110,96
1,42,0,96
1,38,110,96
1,38,0,96
1,46,110,0
1,46,0,96
1,36,110,0
1,42,110,0
1,57,110,0
1,57,0,96
1,42,0,0
1,36,0,0
1,38,110,96
1,38,0,96
1,36,110,0
1,36,0,96
1,42,110,0
1,42,0,96
1,36,110,0
1,36,0,96
1,38,110,0
1,38,0,96
1,36,110,96
1,42,110,0
1,42,0,96
1,36,0,0
1,38,110,96
1,38,0,96
1,42,110,96
1,42,0,96
1,36,110,0
1,36,0,96
1,38,110,0
1,38,0,96
1,36,110,0
1,36,0,96
1,36,110,0
1,42,110,0
1,57,110,0
1,57,0,96
1,42,0,0
1,36,0,0
1,38,110,96
1,38,0,96
1,36,110,96
1,42,110,0
1,42,0,96
1,36,0,0
1,38,110,96
1,42,110,0
1,42,0,96
1,38,0,0
1,36,110,0
1,36,0,96
1,36,110,0
1,42,110,0
1,42,0,96
1,36,0,0
1,38,110,96
1,38,0,96
1,36,110,96
1,42,110,0
1,42,0,96
1,36,0,0
1,38,110,96
1,38,0,96
1,46,110,0
1,46,0,96
1,36,110,0
1,42,110,0
1,57,110,0
1,57,0,96
1,42,0,0
1,36,0,0
