track,note,velocity,time
0,35,125,94
0,41,80,0
0,42,32,0
0,52,94,0
0,69,47,0
0,35,0,4
0,41,0,0
0,42,0,0
0,69,0,0
0,69,35,55
0,69,0,4
0,46,73,33
0,82,48,0
0,46,0,4
0,82,0,0
0,52,0,34
0,35,125,58
0,39,73,0
0,41,80,0
0,42,32,0
0,35,0,4
0,39,0,0
0,41,0,0
0,42,0,0
0,46,73,92
0,82,48,0
0,46,0,4
0,59,86,0
0,82,0,0
0,82,62,55
0,82,0,4
0,59,0,24
0,35,125,9
0,41,80,0
0,42,32,0
0,35,0,4
0,41,0,0
0,42,0,0
0,59,90,0
0,59,0,88
0,46,73,4
0,59,90,0
0,82,48,0
0,46,0,4
0,82,0,0
0,59,0,84
0,35,125,8
0,39,73,0
0,41,80,0
0,42,32,0
0,35,0,4
0,39,0,0
0,41,0,0
0,42,0,0
0,60,86,1
0,60,0,88
0,35,125,3
0,41,80,0
0,46,73,0
0,82,48,0
0,59,94,2
0,35,0,2
0,41,0,0
0,46,0,0
0,82,0,0
0,82,62,55
0,82,0,4
0,59,0,23
0,52,94,9
0,35,125,1
0,41,80,0
0,42,32,0
0,69,47,0
0,35,0,4
0,41,0,0
0,42,0,0
0,69,0,0
0,69,35,55
0,69,0,4
0,46,73,33
0,82,48,0
0,46,0,4
0,82,0,0
0,52,0,37
0,35,125,55
0,39,73,0
0,41,80,0
0,42,32,0
0,69,47,0
0,35,0,4
0,39,0,0
0,41,0,0
0,42,0,0
0,69,0,0
0,69,35,55
0,69,0,4
0,59,94,28
0,46,73,5
0,67,42,0
0,82,48,0
0,62,91,2
0,46,0,2
0,82,0,0
0,82,62,55
0,82,0,4
0,59,0,26
0,59,94,0
0,35,125,3
0,41,80,0
0,42,32,0
0,35,0,4
0,41,0,0
0,42,0,0
0,59,0,64
0,59,86,6
0,46,73,5
0,82,48,0
0,46,0,4
0,82,0,0
0,59,0,87
0,35,125,5
0,39,73,0
0,41,80,0
0,42,32,0
0,60,94,1
0,35,0,3
0,39,0,0
0,41,0,0
0,42,0,0
0,67,0,42
0,62,0,3
0,60,0,42
0,35,125,5
0,41,80,0
0,46,73,0
0,59,85,0
0,82,48,0
0,35,0,4
0,41,0,0
0,46,0,0
0,82,0,0
0,82,62,8
0,82,0,4
0,59,0,19
0,35,125,14
0,41,80,0
0,42,32,0
0,69,47,0
0,52,94,1
0,35,0,3
0,41,0,0
0,42,0,0
0,69,0,0
0,69,35,55
0,69,0,4
0,46,73,33
0,82,48,0
0,46,0,4
0,82,0,0
0,52,0,28
0,35,125,64
0,39,73,0
0,41,80,0
0,42,32,0
0,35,0,4
0,39,0,0
0,41,0,0
0,42,0,0
0,46,73,92
0,59,94,0
0,82,48,0
0,46,0,4
0,82,0,0
0,82,62,55
0,82,0,4
0,59,0,28
0,35,125,5
0,41,80,0
0,42,32,0
0,59,94,1
0,35,0,3
0,41,0,0
0,42,0,0
0,59,0,86
0,46,73,6
0,82,48,0
0,59,90,1
0,46,0,3
0,82,0,0
0,59,0,83
0,35,125,9
0,39,73,0
0,41,80,0
0,42,32,0
0,35,0,4
0,39,0,0
0,41,0,0
0,42,0,0
0,60,94,0
0,60,0,88
0,35,125,4
0,41,80,0
0,46,73,0
0,82,48,0
0,59,86,1
0,35,0,3
0,41,0,0
0,46,0,0
0,82,0,0
0,82,62,55
0,82,0,4
0,59,0,19
0,52,94,12
0,35,125,2
0,41,80,0
0,42,32,0
0,69,47,0
0,35,0,4
0,41,0,0
0,42,0,0
0,69,0,0
0,69,35,55
0,69,0,4
0,46,73,33
0,82,48,0
0,46,0,4
0,82,0,0
0,52,0,38
0,35,125,54
0,39,73,0
0,41,80,0
0,42,32,0
0,69,47,0
0,35,0,4
0,39,0,0
0,41,0,0
0,42,0,0
0,69,0,0
0,69,35,55
0,69,0,4
0,59,85,32
0,46,73,1
0,67,41,0
0,82,48,0
0,62,91,2
0,46,0,2
0,82,0,0
0,82,62,55
0,82,0,4
0,59,0,25
0,59,94,0
0,35,125,3
0,41,80,0
0,42,32,0
0,35,0,4
0,41,0,0
0,42,0,0
0,59,0,68
0,59,90,4
0,46,73,3
0,82,48,0
0,46,0,4
0,82,0,0
0,59,0,86
0,35,125,6
0,39,73,0
0,41,80,0
0,42,32,0
0,60,90,3
0,35,0,1
0,39,0,0
0,41,0,0
0,42,0,0
0,62,0,39
0,67,0,3
0,60,0,41
0,35,125,9
0,41,80,0
0,46,73,0
0,82,48,0
0,59,94,1
0,35,0,3
0,41,0,0
0,46,0,0
0,82,0,0
0,82,62,8
0,82,0,4
0,59,0,30
0,35,125,3
0,41,80,0
0,42,32,0
0,69,47,0
0,52,94,3
0,35,0,1
0,41,0,0
0,42,0,0
0,69,0,0
0,69,35,55
0,69,0,4
0,46,73,33
0,82,48,0
0,46,0,4
0,82,0,0
0,52,0,33
0,35,125,59
0,39,73,0
0,41,80,0
0,42,32,0
0,35,0,4
0,39,0,0
0,41,0,0
0,42,0,0
0,46,73,92
0,59,94,0
0,82,48,0
0,46,0,4
0,82,0,0
0,82,62,55
0,82,0,4
0,59,0,27
0,35,125,6
0,41,80,0
0,42,32,0
0,59,90,0
0,35,0,4
0,41,0,0
0,42,0,0
0,59,0,85
0,59,90,6
0,46,73,1
0,82,48,0
0,46,0,4
0,82,0,0
0,59,0,85
0,35,125,7
0,39,73,0
0,41,80,0
0,42,32,0
0,60,94,0
0,35,0,4
0,39,0,0
0,41,0,0
0,42,0,0
0,60,0,86
0,35,125,6
0,41,80,0
0,46,73,0
0,82,48,0
0,59,90,2
0,35,0,2
0,41,0,0
0,46,0,0
0,82,0,0
0,82,62,55
0,82,0,4
0,59,0,26
0,52,94,6
0,35,125,1
0,41,80,0
0,42,32,0
0,69,47,0
0,35,0,4
0,41,0,0
0,42,0,0
0,69,0,0
0,69,35,55
0,69,0,4
0,46,73,33
0,82,48,0
0,46,0,4
0,82,0,0
0,52,0,42
0,35,125,50
0,39,73,0
0,41,80,0
0,42,32,0
0,69,47,0
0,35,0,4
0,39,0,0
0,41,0,0
0,42,0,0
0,69,0,0
0,69,35,55
0,69,0,4
0,59,94,26
0,46,73,7
0,67,42,0
0,82,48,0
0,62,91,2
0,46,0,2
0,82,0,0
0,82,62,55
0,82,0,4
0,59,0,19
0,59,94,8
0,35,125,3
0,41,80,0
0,42,32,0
0,35,0,4
0,41,0,0
0,42,0,0
0,59,0,62
0,59,90,8
0,46,73,5
0,82,48,0
0,46,0,4
0,82,0,0
0,59,0,85
0,60,94,4
0,35,125,3
0,39,73,0
0,41,80,0
0,42,32,0
0,35,0,4
0,39,0,0
0,41,0,0
0,42,0,0
0,67,0,42
0,62,0,3
0,60,0,39
0,59,94,7
0,35,125,1
0,41,80,0
0,46,73,0
0,82,48,0
0,35,0,4
0,41,0,0
0,46,0,0
0,82,0,0
0,82,62,8
0,82,0,4
0,59,0,23
0,52,94,9
0,35,125,1
0,41,80,0
0,42,32,0
0,69,47,0
0,35,0,4
0,41,0,0
0,42,0,0
0,69,0,0
0,69,35,55
0,69,0,4
0,46,73,33
0,82,48,0
0,46,0,4
0,82,0,0
0,52,0,39
0,35,125,53
0,39,73,0
0,41,80,0
0,42,32,0
0,35,0,4
0,39,0,0
0,41,0,0
0,42,0,0
0,59,89,89
0,46,73,3
0,82,48,0
0,46,0,4
0,82,0,0
0,82,62,55
0,82,0,4
0,59,0,22
0,59,92,10
0,35,125,1
0,41,80,0
0,42,32,0
0,35,0,4
0,41,0,0
0,42,0,0
0,59,0,84
0,46,73,8
0,59,90,0
0,82,48,0
0,46,0,4
0,82,0,0
0,59,0,89
0,35,125,3
0,39,73,0
0,41,80,0
0,42,32,0
0,60,94,1
0,35,0,3
0,39,0,0
0,41,0,0
0,42,0,0
0,60,0,86
0,35,125,6
0,41,80,0
0,46,73,0
0,59,94,0
0,82,48,0
0,35,0,4
0,41,0,0
0,46,0,0
0,82,0,0
0,82,62,55
0,82,0,4
0,59,0,29
0,35,125,4
0,41,80,0
0,42,32,0
0,69,47,0
0,35,0,4
0,41,0,0
0,42,0,0
0,69,0,0
0,69,35,55
0,69,0,4
0,41,80,33
0,46,73,0
0,82,48,0
0,41,0,4
0,46,0,0
0,82,0,0
0,39,73,92
0,41,80,0
0,42,32,0
0,39,0,4
0,41,0,0
0,42,0,0
0,41,80,44
0,41,0,4
0,35,125,44
0,41,80,0
0,67,41,0
0,62,91,2
0,35,0,2
0,41,0,0
0,35,125,3
0,41,80,0
0,35,0,4
0,41,0,0
0,41,80,27
0,41,0,4
0,35,125,44
0,41,80,0
0,35,0,4
0,41,0,0
0,41,80,44
0,41,0,4
0,35,125,44
0,39,73,0
0,41,80,0
0,35,0,4
0,39,0,0
0,41,0,0
0,62,0,39
0,67,0,3
0,41,80,2
0,41,0,4
0,35,125,44
0,41,80,0
0,35,0,4
0,41,0,0
0,35,125,45
0,41,80,0
0,43,79,0
0,49,71,0
0,35,0,4
0,41,0,0
0,49,0,0
0,43,0,135
0,43,79,53
0,43,0,143
0,50,79,49
0,50,0,91
0,50,78,101
0,50,0,91
0,46,79,101
0,46,0,139
0,46,79,53
0,46,0,137
0,51,79,55
0,51,0,88
0,46,70,8
0,46,0,80
0,51,79,16
0,51,0,91
0,46,70,5
0,46,0,79
0,43,78,17
0,43,0,151
0,43,79,41
0,43,0,142
0,50,79,50
0,50,0,91
0,50,78,101
0,50,0,94
0,46,79,98
0,46,0,139
0,46,78,53
0,46,0,139
0,51,79,53
0,51,0,88
0,46,78,8
0,46,0,90
0,51,78,6
0,51,0,91
0,46,70,5
0,49,62,0
0,49,0,4
0,46,0,81
0,31,94,11
0,43,79,0
0,49,50,0
0,49,0,4
0,43,0,135
0,31,0,2
0,31,94,51
0,39,73,0
0,43,79,0
0,39,0,4
0,43,0,139
0,31,0,2
0,38,94,47
0,50,79,0
0,50,0,91
0,38,0,42
0,38,93,59
0,39,73,0
0,50,78,0
0,39,0,4
0,50,0,87
0,38,0,55
0,34,94,46
0,46,79,0
0,46,0,139
0,34,0,2
0,34,94,51
0,39,73,0
0,46,79,0
0,39,0,4
0,46,0,133
0,34,0,2
0,39,94,53
0,51,79,0
0,51,0,88
0,39,0,2
0,34,85,6
0,46,70,0
0,46,0,80
0,34,0,2
0,39,94,14
0,39,73,0
0,51,79,0
0,39,0,4
0,51,0,87
0,39,0,2
0,34,85,3
0,46,70,0
0,46,0,79
0,34,0,2
0,31,93,15
0,43,78,0
0,43,0,151
0,31,0,2
0,31,94,39
0,39,73,0
0,43,79,0
0,39,0,4
0,43,0,138
0,31,0,15
0,38,94,35
0,50,79,0
0,50,0,91
0,38,0,63
0,38,93,38
0,39,73,0
0,50,78,0
0,39,0,4
0,50,0,90
0,38,0,70
0,34,94,28
0,46,79,0
0,46,0,139
0,34,0,14
0,34,93,39
0,39,73,0
0,46,78,0
0,39,0,4
0,46,0,135
0,34,0,23
0,39,94,30
0,42,81,0
0,51,79,0
0,42,0,4
0,42,81,28
0,42,0,4
0,42,81,28
0,42,0,4
0,51,0,20
0,39,0,2
0,34,93,6
0,42,81,0
0,46,78,0
0,42,0,4
0,42,81,28
0,42,0,4
0,42,81,28
0,42,0,4
0,46,0,22
0,34,0,2
0,39,93,4
0,42,81,0
0,51,78,0
0,42,0,4
0,42,81,28
0,42,0,4
0,42,81,28
0,42,0,4
0,51,0,23
0,58,94,1
0,39,0,1
0,34,85,3
0,42,81,0
0,46,70,0
0,42,0,4
0,42,81,28
0,42,0,4
0,58,0,3
0,57,86,8
0,42,81,17
0,42,0,4
0,46,0,17
0,34,0,2
0,57,0,6
0,31,94,3
0,35,125,0
0,41,80,0
0,42,32,0
0,43,79,0
0,49,71,0
0,69,47,0
0,35,0,4
0,41,0,0
0,42,0,0
0,49,0,0
0,55,90,0
0,69,0,0
0,69,35,55
0,69,0,4
0,55,0,17
0,46,73,16
0,82,48,0
0,85,89,0
0,46,0,4
0,82,0,0
0,85,0,0
0,62,90,1
0,43,0,38
0,31,0,2
0,62,0,35
0,31,94,16
0,35,125,0
0,39,73,0
0,41,80,0
0,42,32,0
0,43,79,0
0,69,47,0
0,35,0,4
0,39,0,0
0,41,0,0
0,42,0,0
0,69,0,0
0,62,94,2
0,69,35,53
0,69,0,4
0,46,73,33
0,82,48,0
0,85,89,0
0,46,0,4
0,82,0,0
0,85,0,0
0,43,0,43
0,31,0,2
0,82,62,10
0,82,0,4
0,35,125,33
0,38,94,0
0,41,80,0
0,42,32,0
0,50,79,0
0,69,47,0
0,35,0,4
0,41,0,0
0,42,0,0
0,69,0,0
0,62,0,29
0,69,35,26
0,69,0,4
0,50,0,28
0,46,73,5
0,82,48,0
0,85,89,0
0,60,90,3
0,46,0,1
0,82,0,0
0,85,0,0
0,38,0,33
0,60,0,3
0,60,85,13
0,60,0,40
0,35,125,3
0,38,93,0
0,39,73,0
0,41,80,0
0,42,32,0
0,50,78,0
0,69,47,0
0,60,90,3
0,35,0,1
0,39,0,0
0,41,0,0
0,42,0,0
0,69,0,0
0,60,0,38
0,58,89,11
0,69,35,6
0,69,0,4
0,50,0,28
0,46,73,5
0,58,0,0
0,82,48,0
0,85,89,0
0,60,94,1
0,46,0,3
0,82,0,0
0,85,0,0
0,38,0,46
0,82,62,9
0,82,0,4
0,60,0,30
0,34,94,3
0,35,125,0
0,41,80,0
0,42,32,0
0,46,79,0
0,69,47,0
0,62,94,1
0,35,0,3
0,41,0,0
0,42,0,0
0,69,0,0
0,69,35,55
0,69,0,4
0,62,0,20
0,58,94,12
0,46,73,1
0,82,48,0
0,85,89,0
0,46,0,4
0,82,0,0
0,85,0,0
0,46,0,39
0,34,0,2
0,34,94,51
0,35,125,0
0,39,73,0
0,41,80,0
0,42,32,0
0,46,79,0
0,69,47,0
0,35,0,4
0,39,0,0
0,41,0,0
0,42,0,0
0,69,0,0
0,69,35,55
0,69,0,4
0,58,0,10
0,46,73,23
0,67,42,0
0,82,48,0
0,85,89,0
0,62,91,2
0,46,0,2
0,82,0,0
0,85,0,0
0,46,0,37
0,34,0,2
0,82,62,16
0,82,0,4
0,35,125,3
0,39,94,0
0,41,80,0
0,42,32,0
0,51,79,0
0,69,47,0
0,35,0,4
0,41,0,0
0,42,0,0
0,69,0,0
0,69,35,38
0,69,0,4
0,51,0,25
0,39,0,2
0,34,85,6
0,46,70,0
0,46,73,0
0,82,48,0
0,85,89,0
0,46,0,4
0,82,0,0
0,85,0,0
0,46,0,76
0,34,0,2
0,35,125,14
0,39,94,0
0,39,73,0
0,41,80,0
0,42,32,0
0,51,79,0
0,69,47,0
0,35,0,4
0,39,0,0
0,41,0,0
0,42,0,0
0,69,0,0
0,67,0,42
0,62,0,3
0,69,35,10
0,69,0,4
0,58,86,27
0,51,0,1
0,39,0,2
0,34,85,3
0,35,125,0
0,41,80,0
0,46,70,0
0,46,73,0
0,82,48,0
0,85,89,0
0,35,0,4
0,41,0,0
0,46,0,0
0,82,0,0
0,85,0,0
0,58,0,37
0,57,78,3
0,82,62,8
0,82,0,4
0,46,0,16
0,34,0,2
0,57,0,8
0,31,93,7
0,35,125,0
0,41,80,0
0,42,32,0
0,43,78,0
0,69,47,0
0,35,0,4
0,41,0,0
0,42,0,0
0,69,0,0
0,55,94,3
0,69,35,52
0,69,0,4
0,55,0,24
0,62,94,1
0,46,73,8
0,82,48,0
0,85,89,0
0,46,0,4
0,82,0,0
0,85,0,0
0,43,0,51
0,31,0,2
0,62,0,23
0,62,94,14
0,31,94,2
0,35,125,0
0,39,73,0
0,41,80,0
0,42,32,0
0,43,79,0
0,69,47,0
0,35,0,4
0,39,0,0
0,41,0,0
0,42,0,0
0,69,0,0
0,69,35,55
0,69,0,4
0,46,73,33
0,82,48,0
0,85,89,0
0,46,0,4
0,82,0,0
0,85,0,0
0,43,0,42
0,82,62,13
0,31,0,2
0,82,0,2
0,35,125,33
0,38,94,0
0,41,80,0
0,42,32,0
0,50,79,0
