track,note,velocity,time
1,52,80,374
1,55,80,0
1,36,80,0
1,48,92,48
1,52,100,0
1,55,104,0
1,48,93,0
1,52,98,96
1,55,100,0
1,48,98,4
1,59,91,96
1,52,92,0
1,55,95,0
1,48,101,0
1,60,97,96
1,41,96,0
1,53,95,0
1,57,98,0
1,48,95,0
1,57,96,4
1,53,93,0
1,60,93,0
1,48,93,0
1,60,91,96
1,57,94,0
1,53,89,0
1,48,93,4
1,53,92,96
1,57,93,0
1,58,89,24
1,59,96,16
1,52,80,80
1,62,100,0
1,36,98,0
1,55,87,0
1,48,92,0
1,52,96,96
1,55,96,0
1,48,92,4
1,55,95,0
1,52,95,0
1,48,96,0
1,59,91,0
1,52,90,0
1,55,88,0
1,48,91,0
1,57,90,92
1,60,93,0
1,53,93,0
1,41,96,0
1,48,93,4
1,60,97,0
1,53,93,0
1,57,93,0
1,48,91,0
1,57,92,96
1,60,94,0
1,53,91,0
1,48,93,0
1,57,94,88
1,53,93,0
1,58,92,48
1,59,100,12
1,36,99,48
1,62,96,0
1,55,93,0
1,52,85,0
1,48,92,8
1,52,100,96
1,55,100,0
1,48,95,0
1,52,93,0
1,55,95,0
1,48,94,4
1,55,93,96
1,52,92,0
1,59,93,0
1,48,92,0
1,41,96,96
1,60,94,0
1,57,99,0
1,53,98,0
1,48,94,4
1,53,95,96
1,57,97,0
1,60,95,0
1,48,93,92
1,57,95,92
1,53,92,0
1,60,96,0
1,48,98,0
1,57,100,88
1,53,98,0
1,58,91,48
1,59,98,4
1,52,79,0
1,55,88,0
1,36,100,0
1,62,96,0
1,48,99,0
1,55,93,96
1,52,95,0
1,48,95,0
1,55,95,96
1,52,95,0
1,48,93,0
1,59,95,92
1,55,98,0
1,52,95,0
1,48,93,0
1,41,100,92
1,60,91,0
1,57,90,0
1,53,93,0
1,48,96,4
1,53,93,96
1,57,92,0
1,60,95,0
1,48,93,0
1,57,89,92
1,60,96,0
1,53,90,0
1,48,95,4
1,53,103,88
1,57,103,0
1,58,95,48
1,59,99,32
1,36,104,48
1,52,91,0
1,62,98,0
1,55,95,0
1,48,98,0
1,55,92,92
1,52,94,0
1,48,98,4
1,55,96,96
1,52,93,0
1,48,91,88
1,52,94,88
1,55,92,0
1,59,101,0
1,48,91,4
1,60,94,92
1,57,88,0
1,53,92,0
1,41,101,0
1,48,95,0
1,53,93,96
1,60,93,0
1,57,89,0
1,48,98,4
1,57,95,96
1,60,96,0
1,53,96,0
1,48,100,0
1,57,95,96
1,53,96,0
1,58,100,0
1,59,95,12
1,36,99,76
1,55,93,0
1,62,97,0
1,52,81,0
1,48,100,0
1,52,93,92
1,55,93,0
1,48,92,0
1,55,95,92
1,52,92,0
1,48,96,0
1,52,93,92
1,55,87,0
1,59,92,0
1,48,94,0
1,60,85,0
1,53,91,0
1,57,83,0
1,41,100,0
1,48,96,4
1,57,86,96
1,60,91,0
1,53,92,0
1,48,95,4
1,53,93,96
1,57,86,0
1,60,93,0
1,48,93,0
1,60,85,96
1,57,89,0
1,53,92,0
1,48,94,0
1,41,100,92
1,57,91,0
1,60,92,0
1,53,92,0
1,53,98,8
1,60,96,96
1,57,96,0
1,53,100,4
1,60,95,88
1,40,97,0
1,57,98,0
1,52,100,0
1,60,93,0
1,57,95,0
1,52,99,4
1,53,100,0
1,38,94,0
1,57,93,0
1,60,104,0
1,50,90,0
1,53,94,0
1,57,93,0
1,60,97,0
1,50,93,0
1,57,98,8
1,36,106,0
1,53,96,0
1,48,94,0
1,53,93,84
1,57,93,0
1,60,92,0
1,48,90,0
1,62,99,96
1,59,88,0
1,43,96,0
1,55,98,0
1,62,94,0
1,59,87,0
1,55,98,0
1,59,96,0
1,62,94,0
1,55,88,96
1,60,94,88
1,64,98,0
1,55,96,4
1,50,98,72
1,65,97,0
1,55,93,0
1,43,95,0
1,62,98,0
1,55,99,96
1,52,98,0
1,36,104,0
1,48,93,0
1,52,96,96
1,55,99,0
1,48,99,0
1,55,96,92
1,52,93,0
1,48,95,4
1,52,89,96
1,55,90,0
1,59,91,0
1,48,94,0
1,53,93,0
1,41,97,0
1,57,88,0
1,60,93,0
1,48,95,0
1,53,93,96
1,57,90,0
1,60,95,0
1,48,93,4
1,60,95,96
1,53,93,0
1,57,89,0
1,48,92,0
1,53,103,88
1,57,106,0
1,58,94,48
1,59,100,8
1,55,100,48
1,36,100,0
1,52,87,0
1,62,106,0
1,48,95,4
1,55,96,88
1,52,96,0
1,48,96,12
1,52,95,96
1,55,98,0
1,48,97,0
1,59,91,96
1,52,89,0
1,55,89,0
1,48,93,0
1,41,101,92
1,60,88,0
1,57,83,0
1,53,91,0
1,48,98,0
1,53,89,0
1,60,88,0
1,57,87,0
1,48,99,0
1,53,89,96
1,57,85,0
1,60,92,0
1,48,93,4
1,57,95,88
1,53,104,0
1,58,89,48
1,59,99,20
1,55,93,48
1,52,83,0
1,62,98,0
1,36,104,0
1,48,100,0
1,55,93,0
1,52,95,0
1,48,91,4
1,55,98,96
1,52,98,0
1,48,95,0
1,55,90,92
1,59,90,0
1,52,90,0
1,48,92,0
1,60,104,0
1,57,87,0
1,41,95,0
1,53,100,0
1,48,90,0
1,60,93,8
1,57,88,0
1,53,89,0
1,48,102,4
1,53,91,96
1,60,95,0
1,57,91,0
1,48,93,4
1,53,102,92
1,57,98,0
1,58,98,0
1,59,100,0
1,55,95,80
1,62,104,0
1,36,104,0
1,52,86,0
1,48,96,0
1,52,95,96
1,55,94,0
1,48,100,0
1,52,95,96
1,55,94,0
1,48,95,92
1,52,91,88
1,55,87,0
1,59,88,0
1,48,92,0
1,57,87,88
1,53,93,0
1,60,89,0
1,41,101,0
1,48,98,0
1,53,92,0
1,57,87,0
1,60,88,0
1,48,95,96
1,57,87,92
1,60,90,0
1,53,93,0
1,48,96,0
1,53,93,96
1,57,86,0
1,60,91,0
1,48,96,0
1,57,89,84
1,41,103,0
1,53,85,0
1,60,95,0
1,53,95,16
1,57,93,8
1,60,99,0
1,53,96,0
1,40,104,0
1,57,95,0
1,60,94,0
1,52,91,96
1,60,99,84
1,57,90,0
1,52,98,0
1,53,96,92
1,38,96,0
1,60,97,0
1,57,95,0
1,50,93,92
1,57,90,92
1,53,92,0
1,60,99,0
1,50,92,4
1,36,99,0
1,53,91,0
1,57,91,0
1,60,98,0
1,48,100,0
1,57,94,88
1,53,92,0
1,60,95,0
1,48,94,92
1,62,95,0
1,59,92,0
1,43,91,0
1,55,95,0
1,62,97,0
1,59,92,0
1,55,96,0
1,62,99,84
1,59,98,0
1,55,93,92
1,60,98,84
1,64,98,0
1,55,88,8
1,55,96,72
1,62,103,0
1,43,96,0
1,65,100,0
1,50,100,0
1,41,107,48
1,57,95,0
1,60,96,0
1,53,106,0
1,53,98,40
1,57,100,56
1,60,99,0
1,53,104,52
1,59,104,68
1,55,96,0
1,62,100,0
1,43,98,0
1,55,100,32
1,59,98,60
1,62,102,0
1,55,92,56
1,43,94,76
1,36,86,0
1,55,97,0
1,52,100,0
1,48,100,4
1,59,107,52
1,55,100,0
1,60,98,56
1,48,100,0
1,64,106,72
1,40,94,0
1,47,97,0
1,56,93,0
1,52,98,4
1,56,91,60
1,62,108,0
1,52,98,48
1,41,103,72
1,60,103,0
1,57,105,0
1,53,104,0
1,53,104,40
1,57,98,52
1,60,110,0
1,53,105,56
1,59,100,72
1,55,99,0
1,43,104,0
1,62,96,0
1,55,96,36
1,62,97,56
1,59,96,0
1,55,99,60
1,55,99,72
1,52,98,0
1,36,93,0
1,43,95,0
1,48,104,36
1,59,99,60
1,55,96,0
1,48,93,60
1,60,98,0
1,56,92,0
1,47,103,0
1,40,97,0
1,64,104,0
1,52,100,32
1,56,93,44
1,62,96,0
1,52,100,56
1,60,104,64
1,57,98,0
1,53,108,0
1,41,106,0
1,53,100,28
1,60,104,52
1,57,100,0
1,53,98,56
1,55,96,68
1,43,95,0
1,59,98,0
1,62,104,0
1,55,96,32
1,62,100,52
1,59,100,0
1,55,98,56
1,43,107,68
1,52,98,0
1,36,101,0
1,55,100,0
1,48,96,28
1,59,107,64
1,55,98,0
1,60,100,56
1,48,92,0
1,56,86,60
1,40,100,0
1,47,97,0
1,64,98,0
1,52,95,20
1,56,89,56
1,62,96,0
1,52,99,48
1,48,104,60
1,57,97,0
1,60,107,0
1,41,106,0
1,53,98,28
1,57,98,52
1,60,99,0
1,53,98,56
1,59,100,64
1,50,100,0
1,43,100,0
1,62,93,0
1,55,92,36
1,59,98,64
1,62,96,0
1,55,93,60
1,52,95,72
1,55,95,0
1,43,98,0
1,36,96,0
1,48,91,0
1,31,104,0
1,48,97,96
1,33,95,0
1,48,93,96
1,35,92,80
1,48,90,92
1,55,99,8
1,52,98,0
1,36,104,0
1,48,93,0
1,52,96,96
1,55,99,0
1,48,99,0
1,55,96,92
1,52,93,0
1,48,95,4
1,55,90,96
1,52,89,0
1,59,91,0
1,48,94,0
1,60,93,96
1,41,97,0
1,57,88,0
1,53,93,0
1,48,95,0
1,53,93,96
1,57,90,0
1,60,95,0
1,48,93,4
1,53,93,96
1,57,89,0
1,60,95,0
1,48,92,0
1,53,103,88
1,57,106,0
1,58,94,48
1,59,100,8
1,36,100,48
1,62,106,0
1,52,87,0
1,55,100,0
1,48,95,4
1,52,96,88
1,55,96,0
1,48,96,12
1,55,98,96
1,52,95,0
1,48,97,0
1,59,91,96
1,52,89,0
1,55,89,0
1,48,93,0
1,57,83,92
1,41,101,0
1,60,88,0
1,53,91,0
1,48,98,92
1,53,89,0
1,57,87,0
1,60,88,0
1,48,99,0
1,57,85,96
1,60,92,0
1,53,89,0
1,48,93,4
1,57,95,88
1,53,104,0
1,58,89,48
1,59,99,20
1,62,98,48
1,36,104,0
1,55,93,0
1,52,83,0
1,48,100,0
1,52,95,0
1,55,93,0
1,48,91,4
1,55,98,96
1,52,98,0
1,48,95,0
1,55,90,92
1,59,90,0
1,52,90,0
1,48,92,0
1,53,100,92
1,60,104,0
1,57,87,0
1,41,95,0
1,48,90,0
1,53,89,8
1,57,88,0
1,60,93,0
1,48,102,4
1,53,91,96
1,57,91,0
1,60,95,0
1,48,93,4
1,57,98,92
1,53,102,0
1,58,98,0
1,59,100,36
1,55,95,80
1,36,104,0
1,52,86,0
1,62,104,0
1,48,96,0
1,55,94,96
1,52,95,0
1,48,100,0
1,52,95,96
1,55,94,0
1,48,95,92
1,55,87,88
1,52,91,0
1,59,88,0
1,48,92,0
1,53,93,88
1,60,89,0
1,57,87,0
1,41,101,0
1,48,98,0
1,57,87,0
1,53,92,0
1,60,88,0
1,48,95,96
1,57,87,92
1,53,93,0
1,60,90,0
1,48,96,0
1,60,91,96
1,57,86,0
1,53,93,0
1,48,96,0
1,57,89,84
1,41,103,0
1,60,95,0
1,53,85,0
1,53,95,16
1,60,99,8
1,57,93,0
1,53,96,0
1,60,94,0
1,40,104,0
1,57,95,0
1,52,91,0
1,57,90,84
1,60,99,0
1,52,98,0
1,38,96,92
1,57,95,0
1,60,97,0
1,53,96,0
1,50,93,0
1,53,92,92
1,60,99,0
1,57,90,0
1,50,92,4
1,60,98,0
1,36,99,0
1,57,91,0
1,53,91,0
1,48,100,96
1,53,92,88
1,60,95,0
1,57,94,0
1,48,94,92
1,43,91,0
1,59,92,0
1,62,95,0
1,55,95,0
1,62,97,0
1,59,92,0
1,55,96,0
1,62,99,84
1,59,98,0
1,55,93,92
1,60,98,84
1,64,98,0
1,55,88,8
1,65,100,72
1,62,103,0
1,50,100,0
1,55,96,0
1,43,96,0
1,53,106,48
1,41,107,0
1,57,95,0
1,60,96,0
1,53,98,40
1,57,100,56
1,60,99,0
1,53,104,52
1,43,98,68
1,62,100,0
1,59,104,0
1,55,96,0
1,55,100,32
1,59,98,60
1,62,102,0
1,55,92,56
1,52,100,76
1,55,97,0
1,43,94,0
1,36,86,0
1,48,100,4
1,55,100,52
1,59,107,0
1,60,98,56
1,48,100,0
1,40,94,72
1,47,97,0
1,64,106,0
1,56,93,0
1,52,98,4
1,62,108,60
1,56,91,0
1,52,98,48
1,53,104,72
1,60,103,0
1,57,105,0
1,41,103,0
1,53,104,40
1,57,98,52
1,60,110,0
1,53,105,56
1,43,104,72
1,55,99,0
1,59,100,0
1,62,96,0
1,55,96,36
1,59,96,56
1,62,97,0
1,55,99,60
1,43,95,72
1,52,98,0
1,36,93,0
1,55,99,0
1,48,104,36
1,55,96,60
1,59,99,0
1,60,98,60
1,48,93,0
1,47,103,0
1,40,97,0
1,64,104,0
1,56,92,0
1,52,100,32
1,56,93,44
1,62,96,0
1,52,100,56
1,60,104,64
1,41,106,0
1,53,108,0
1,57,98,0
1,53,100,28
1,57,100,52
1,60,104,0
1,53,98,56
1,55,96,68
1,59,98,0
1,62,104,0
1,43,95,0
1,55,96,32
1,59,100,52
1,62,100,0
1,55,98,56
1,52,98,0
1,55,100,0
1,43,107,0
1,36,101,0
1,48,96,28
1,55,98,64
1,59,107,0
1,60,100,56
1,48,92,0
1,47,97,60
1,40,100,0
1,64,98,0
1,56,86,0
1,52,95,20
1,56,89,56
1,62,96,0
1,52,99,48
1,57,97,60
1,60,107,0
1,41,106,0
1,48,104,0
1,53,98,28
1,57,98,52
1,60,99,0
1,53,98,56
1,43,100,64
1,59,100,0
1,62,93,0
1,50,100,0
1,55,92,36
1,59,98,64
1,62,96,0
1,55,93,60
1,36,96,72
1,55,95,0
1,52,95,0
1,43,98,0
2,41,110,9574
2,40,100,24
2,38,110,24
2,36,100,24
2,31,100,24
2,43,100,0
2,36,110,72
2,41,100,48
2,36,110,48
2,41,100,48
2,36,110,48
2,41,100,48
2,36,110,48
2,41,100,48
2,41,110,48
2,40,100,24
2,38,110,24
2,36,100,24
2,31,100,24
2,43,100,0
2,41,110,72
2,43,100,24
2,36,110,24
2,40,100,24
2,41,110,24
2,43,100,24
2,36,110,24
2,40,100,24
2,41,110,24
2,43,100,24
2,36,110,24
2,40,100,24
2,41,110,24
2,43,100,24
2,36,110,24
2,36,110,384
2,41,100,48
2,36,110,48
2,41,100,48
2,36,110,48
2,41,100,48
2,36,110,48
2,41,100,48
2,41,110,48
2,40,100,24
2,38,110,24
2,36,100,24
2,31,100,24
2,43,100,0
2,41,110,72
2,43,100,24
2,36,110,24
2,40,100,24
2,41,110,24
2,43,100,24
2,36,110,24
2,40,100,24
2,41,110,24
2,43,100,24
2,36,110,24
2,40,100,24
2,41,110,24
2,43,100,24
2,36,110,24
3,64,70,12836
3,67,70,0
3,69,70,0
3,65,70,0
3,67,70,0
3,64,70,0
3,69,70,0
3,65,70,0
3,67,70,0
3,64,70,0
3,69,70,0
3,65,70,0
3,64,70,0
3,67,70,0
3,65,70,768
3,69,70,0
3,65,80,96
3,69,80,0
3,69,75,16
3,72,75,0
3,72,70,0
3,69,70,0
3,77,70,0
3,77,70,0
3,74,70,0
3,69,70,0
3,74,70,0
3,71,70,0
3,62,70,0
3,76,70,0
3,64,70,0
3,72,70,0
3,77,70,0
3,65,70,0
3,74,70,0
3,81,75,400
3,77,75,0
3,79,73,4
3,83,75,0
3,86,81,288
3,76,78,36
3,84,74,0
3,79,75,0
3,83,81,64
3,80,76,0
3,76,80,0
3,77,83,0
3,81,80,0
3,72,83,0
3,84,83,0
3,81,85,0
3,79,74,8
3,83,90,0
3,74,74,0
3,86,78,12
3,83,77,0
3,76,77,0
3,84,88,0
3,79,72,0
3,80,75,4
3,76,80,0
3,83,84,0
3,72,74,24
3,77,79,0
3,81,81,0
3,84,80,32
3,81,80,0
3,79,80,12
3,83,89,0
3,74,77,0
3,86,81,4
3,83,81,0
3,76,81,4
3,84,85,0
3,79,75,0
3,83,83,8
3,88,78,0
3,80,73,0
3,72,80,24
3,81,81,0
3,84,80,0
3,74,89,4
3,83,85,0
3,79,89,0
3,76,72,4
3,79,70,0
3,84,84,0
3,64,75,0
3,60,75,0
3,55,75,0
3,67,75,0
3,60,75,0
3,65,75,0
3,57,75,0
