track,note,velocity,time
1,33,127,3804
1,33,0,656
1,33,127,112
1,33,0,444
1,33,127,68
1,33,0,60
1,33,127,68
1,33,0,104
1,30,127,24
1,30,0,496
1,42,127,144
1,30,127,128
1,42,0,16
1,30,0,408
1,30,127,88
1,30,0,120
1,32,127,8
1,32,0,88
1,33,127,40
1,33,0,472
1,28,127,168
1,28,0,116
1,33,127,12
1,33,0,724
1,30,127,44
1,30,0,644
1,30,127,124
1,30,0,416
1,30,127,96
1,30,0,120
1,32,127,8
1,32,0,108
1,33,127,20
1,33,0,600
1,28,127,40
1,33,127,128
1,28,0,4
1,33,0,716
1,30,127,48
1,30,0,648
1,30,127,120
1,30,0,540
1,29,127,228
1,29,0,464
1,29,127,176
1,29,0,72
1,31,127,56
1,31,0,580
1,33,127,188
1,33,0,616
1,33,127,152
1,33,0,648
1,38,127,120
1,38,0,696
1,37,127,72
1,37,0,732
1,35,127,36
1,35,0,720
1,33,127,48
1,33,0,672
1,38,127,96
1,38,0,708
1,37,127,60
1,37,0,732
1,35,127,36
1,35,0,744
1,33,127,24
1,33,0,704
1,36,127,64
1,36,0,736
1,35,127,32
1,35,0,736
1,33,127,32
1,31,127,768
1,33,0,8
1,31,0,720
1,38,127,40
1,38,0,680
1,38,127,88
1,33,127,512
1,38,0,8
1,33,0,72
1,38,127,48
1,38,0,96
1,40,127,32
1,40,0,680
1,40,127,88
1,40,0,324
1,40,127,60
1,40,0,116
1,35,127,12
1,35,0,104
1,33,127,152
1,33,0,656
1,33,127,112
1,33,0,444
1,33,127,68
1,33,0,60
1,33,127,68
1,33,0,104
1,30,127,24
1,30,0,496
1,42,127,144
1,30,127,128
1,42,0,16
1,30,0,408
1,30,127,88
1,30,0,120
1,32,127,8
1,32,0,88
1,33,127,40
1,33,0,472
1,28,127,168
1,28,0,116
1,33,127,12
1,33,0,724
1,30,127,44
1,30,0,644
1,30,127,124
1,30,0,416
1,30,127,96
1,30,0,120
1,32,127,8
1,32,0,108
1,33,127,20
1,33,0,600
1,28,127,40
1,33,127,128
1,28,0,4
1,33,0,716
1,30,127,48
1,30,0,648
1,30,127,120
1,30,0,540
1,29,127,228
1,29,0,464
1,29,127,176
1,29,0,72
1,31,127,56
1,31,0,580
1,33,127,188
1,33,0,616
1,33,127,152
1,33,0,648
1,38,127,120
1,38,0,696
1,37,127,72
1,37,0,732
1,35,127,36
1,35,0,1388
1,38,127,148
1,38,0,708
1,37,127,60
1,37,0,732
1,35,127,36
1,35,0,744
1,33,127,24
1,33,0,704
1,36,127,64
1,36,0,736
1,35,127,32
1,35,0,736
1,33,127,32
1,31,127,768
1,33,0,8
1,31,0,720
1,38,127,40
1,38,0,680
1,38,127,88
1,33,127,512
1,38,0,8
1,33,0,72
1,38,127,48
1,38,0,96
1,40,127,32
1,40,0,680
1,40,127,88
1,40,0,324
1,40,127,60
1,40,0,116
1,35,127,12
1,35,0,104
1,31,127,152
1,31,0,472
1,31,127,168
1,35,127,128
1,31,0,12
1,35,0,516
1,35,127,112
1,40,127,128
1,35,0,8
1,40,0,448
1,40,127,184
1,38,127,128
1,40,0,8
1,38,0,472
1,40,111,32
1,38,127,128
1,40,0,48
1,38,0,64
1,31,127,16
1,31,0,508
1,31,127,132
1,35,127,128
1,31,0,8
1,35,0,472
1,35,127,160
1,35,0,116
1,40,127,12
1,40,0,508
1,40,127,132
1,38,127,128
1,40,0,12
1,38,0,444
1,40,127,56
1,38,127,128
1,40,0,20
1,38,0,88
1,31,127,20
1,31,0,432
1,31,127,208
1,35,127,128
1,31,0,16
1,35,0,464
1,35,127,160
1,35,0,124
1,40,127,4
1,40,0,472
1,40,127,168
1,40,0,104
1,38,127,24
1,38,0,672
1,38,127,96
1,38,0,440
1,38,127,200
1,38,0,636
1,33,127,4
1,33,0,100
1,38,127,28
1,38,0,100
1,40,127,28
1,40,0,432
1,40,127,80
1,35,127,128
1,40,0,8
1,35,0,112
1,28,127,8
1,28,0,448
1,40,127,64
1,40,0,112
1,28,127,16
1,28,0,112
1,33,127,16
1,33,0,656
1,33,127,112
1,33,0,444
1,33,127,68
1,33,0,60
1,33,127,68
1,33,0,104
1,30,127,24
1,30,0,496
1,42,127,144
1,30,127,128
1,42,0,16
1,30,0,408
1,30,127,88
1,30,0,120
1,32,127,8
1,32,0,88
1,33,127,40
1,33,0,472
1,28,127,168
1,28,0,116
1,33,127,12
1,33,0,724
1,30,127,44
1,30,0,644
1,30,127,124
1,30,0,416
1,30,127,96
1,30,0,120
1,32,127,8
1,32,0,108
1,33,127,20
1,33,0,600
1,28,127,40
1,33,127,128
1,28,0,4
1,33,0,716
1,30,127,48
1,30,0,648
1,30,127,120
1,30,0,540
1,29,127,228
1,29,0,464
1,29,127,176
1,29,0,72
1,31,127,56
1,31,0,580
1,33,127,188
1,33,0,616
1,33,127,152
1,33,0,648
1,38,127,120
1,38,0,696
1,37,127,72
1,37,0,732
1,35,127,36
1,35,0,1388
1,38,127,148
1,38,0,708
1,37,127,60
1,37,0,732
1,35,127,36
1,35,0,744
1,33,127,24
1,33,0,704
1,36,127,64
1,36,0,736
1,35,127,32
1,35,0,736
1,33,127,32
1,31,127,768
1,33,0,8
1,31,0,720
1,38,127,40
1,38,0,680
1,38,127,88
1,33,127,512
1,38,0,8
1,33,0,72
1,38,127,48
1,38,0,96
1,40,127,32
1,40,0,680
1,40,127,88
1,40,0,324
1,40,127,60
1,40,0,116
1,35,127,12
1,35,0,104
1,31,127,152
1,31,0,472
1,31,127,168
1,35,127,128
1,31,0,12
1,35,0,516
1,35,127,112
1,40,127,128
1,35,0,8
1,40,0,448
1,40,127,184
1,38,127,128
1,40,0,8
1,38,0,472
1,40,111,32
1,38,127,128
1,40,0,48
1,38,0,64
1,31,127,16
1,31,0,508
1,31,127,132
1,35,127,128
1,31,0,8
1,35,0,472
1,35,127,160
1,35,0,116
1,40,127,12
1,40,0,508
1,40,127,132
1,38,127,128
1,40,0,12
1,38,0,444
1,40,127,56
1,38,127,128
1,40,0,20
1,38,0,88
1,31,127,20
1,31,0,432
1,31,127,208
1,35,127,128
1,31,0,16
1,35,0,464
1,35,127,160
1,35,0,124
1,40,127,4
1,40,0,472
1,40,127,168
1,40,0,104
1,38,127,24
1,38,0,672
1,38,127,96
1,38,0,440
1,38,127,200
1,38,0,636
1,33,127,4
1,33,0,100
1,38,127,28
1,38,0,100
1,40,127,28
1,40,0,432
1,40,127,80
1,35,127,128
1,40,0,8
1,35,0,112
1,28,127,8
1,28,0,448
1,40,127,64
1,40,0,112
1,28,127,16
1,28,0,112
1,31,127,16
1,31,0,472
1,31,127,168
1,35,127,128
1,31,0,12
1,35,0,516
1,35,127,112
1,40,127,128
1,35,0,8
1,40,0,448
1,40,127,184
1,38,127,128
1,40,0,8
1,38,0,472
1,40,111,32
1,38,127,128
1,40,0,48
1,38,0,64
1,31,127,16
1,31,0,508
1,31,127,132
1,35,127,128
1,31,0,8
1,35,0,472
1,35,127,160
1,35,0,116
1,40,127,12
1,40,0,508
1,40,127,132
1,38,127,128
1,40,0,12
1,38,0,444
1,40,127,56
1,38,127,128
1,40,0,20
1,38,0,88
1,31,127,20
1,31,0,432
1,31,127,208
1,35,127,128
1,31,0,16
1,35,0,464
1,35,127,160
1,35,0,124
1,40,127,4
1,40,0,472
1,40,127,168
1,40,0,104
1,38,127,24
1,38,0,672
1,38,120,96
1,38,0,440
1,38,116,200
1,38,0,636
1,33,111,4
1,33,0,100
1,38,110,28
1,38,0,100
1,40,110,28
1,40,0,432
1,40,106,80
1,35,105,128
1,40,0,8
1,35,0,112
1,28,104,8
1,28,0,448
1,40,100,64
1,40,0,112
1,28,100,16
1,28,0,112
1,31,99,16
1,31,0,472
1,31,94,168
1,35,93,128
1,31,0,12
1,35,0,516
1,35,89,112
1,40,88,128
1,35,0,8
1,40,0,448
1,40,83,184
1,38,82,128
1,40,0,8
1,38,0,472
1,40,79,32
1,38,78,128
1,40,0,48
1,38,0,64
1,31,77,16
1,31,0,508
1,31,72,132
1,35,71,128
1,31,0,8
1,35,0,472
1,35,67,160
1,35,0,116
1,40,66,12
1,40,0,508
1,40,61,132
1,38,60,128
1,40,0,12
1,38,0,444
1,40,57,56
1,38,56,128
1,40,0,20
1,38,0,88
1,31,55,20
1,31,0,472
1,31,50,168
1,35,50,128
1,31,0,12
1,35,0,516
1,35,45,112
1,40,44,128
1,35,0,8
1,40,0,448
1,40,40,184
1,38,39,128
1,40,0,8
1,38,0,472
1,40,35,32
1,38,34,128
1,40,0,48
1,38,0,64
1,31,33,16
1,31,0,508
1,31,29,132
1,35,28,128
1,31,0,8
1,35,0,472
1,35,23,160
1,35,0,116
1,40,22,12
1,40,0,508
1,40,18,132
1,38,17,128
1,40,0,12
1,38,0,444
1,40,13,56
1,38,12,128
1,40,0,20
1,38,0,88
1,31,11,20
1,31,0,472
1,31,7,168
1,35,6,128
1,31,0,12
1,35,0,516
1,35,1,112
1,35,0,128
2,52,113,636
2,40,113,0
2,52,0,180
2,40,0,24
2,55,113,16
2,43,113,0
2,43,0,1216
2,55,0,4
2,45,113,316
2,52,113,0
2,64,113,0
2,61,113,0
2,57,113,0
2,64,0,16
2,61,0,8
2,57,0,4
2,45,0,48
2,52,0,4
2,61,113,32
2,57,113,0
2,64,113,0
2,57,0,224
2,61,0,8
2,64,0,4
2,45,106,20
2,52,113,0
2,45,0,48
2,52,0,16
2,64,113,64
2,61,113,0
2,57,113,0
2,57,0,236
2,64,0,4
2,61,0,8
2,45,113,8
2,52,113,0
2,45,0,52
2,52,0,16
2,64,113,60
2,61,113,0
2,57,113,0
2,64,0,52
2,61,0,16
2,57,0,8
2,61,113,308
2,42,113,0
2,54,113,0
2,57,113,0
2,54,0,96
2,61,0,0
2,57,0,12
2,42,0,92
2,61,113,16
2,54,109,0
2,57,113,0
2,42,113,256
2,61,0,20
2,54,0,8
2,57,0,4
2,42,0,48
2,61,109,48
2,54,85,0
2,57,113,0
2,42,113,256
2,61,0,16
2,54,0,16
2,57,0,12
2,42,0,36
2,61,113,48
2,54,90,0
2,57,113,0
2,61,0,88
2,57,0,4
2,54,0,0
2,52,113,292
2,64,113,0
2,57,113,0
2,45,113,0
2,61,113,0
2,64,0,52
2,57,0,4
2,61,0,24
2,57,113,60
2,61,113,0
2,64,113,0
2,52,0,44
2,45,0,16
2,64,0,172
2,57,0,8
2,61,0,8
2,52,98,8
2,45,113,0
2,52,0,48
2,45,0,20
2,57,113,60
2,64,113,0
2,61,113,0
2,57,0,252
2,64,0,4
2,45,113,0
2,52,113,0
2,61,0,12
2,52,0,44
2,45,0,12
2,57,113,60
2,61,113,0
2,64,113,0
2,57,0,68
2,61,0,8
2,64,0,4
2,42,113,304
2,54,113,0
2,61,113,0
2,57,113,0
2,54,0,84
2,61,0,4
2,57,0,8
2,42,0,88
2,61,113,8
2,57,113,0
2,54,93,0
2,42,113,256
2,61,0,12
2,57,0,4
2,54,0,12
2,42,0,52
2,61,106,48
2,54,83,0
2,57,113,0
2,42,113,256
2,61,0,28
2,54,0,8
2,57,0,0
2,42,0,40
2,61,113,52
2,57,113,0
2,54,113,0
2,57,0,80
2,54,0,12
2,61,0,0
2,57,113,292
2,52,113,0
2,61,113,0
2,64,113,0
2,45,113,0
2,57,0,96
2,64,0,16
2,61,0,0
2,57,113,96
2,61,113,0
2,64,113,0
2,52,0,72
2,45,0,0
2,57,0,160
2,64,0,4
2,61,0,4
2,45,113,16
2,52,109,0
2,52,0,68
2,45,0,4
2,61,104,56
2,57,113,0
2,64,113,0
2,57,0,248
2,61,0,0
2,64,0,8
2,64,113,128
2,57,113,0
2,61,113,0
2,64,0,76
2,57,0,8
2,61,0,12
2,42,113,288
2,57,113,0
2,54,113,0
2,61,113,0
2,57,0,124
2,54,0,4
2,61,0,12
2,61,113,88
2,54,101,0
2,57,113,0
2,42,0,8
2,61,0,240
2,57,0,4
2,42,113,4
2,54,0,8
2,42,0,88
2,61,113,32
2,54,96,0
2,57,113,0
2,42,113,256
2,61,0,8
2,54,0,12
2,57,0,0
2,42,0,72
2,61,113,36
2,54,106,0
2,57,113,0
2,57,0,92
2,61,0,0
2,54,0,16
2,53,113,20
2,48,113,0
2,57,113,0
2,60,113,0
2,41,113,0
2,53,0,92
2,60,0,8
2,57,0,8
2,48,0,44
2,41,0,28
2,60,113,16
2,53,113,0
2,57,113,0
2,53,0,80
2,60,0,12
2,57,0,8
2,55,113,4
2,43,113,0
2,62,113,0
2,59,113,0
2,43,0,148
2,55,0,20
2,62,0,4
2,59,0,20
2,62,113,100
2,59,113,0
2,55,113,0
2,55,0,84
2,62,0,4
2,59,0,4
2,61,113,8
2,64,113,0
2,57,113,0
2,45,113,0
2,52,113,0
2,64,0,104
2,61,0,12
2,57,0,8
2,57,113,92
2,64,113,0
2,61,113,0
2,45,0,20
2,52,0,8
2,57,0,184
2,64,0,4
2,61,0,16
2,45,113,24
2,52,109,0
2,45,0,64
2,52,0,4
2,64,113,60
2,61,113,0
2,57,113,0
2,64,0,208
2,57,0,8
2,61,0,0
2,45,113,40
2,52,106,0
2,45,0,60
2,52,0,4
2,61,113,64
2,64,113,0
2,57,113,0
2,61,0,56
2,57,0,8
2,64,0,12
2,50,113,72
2,66,113,0
2,62,113,0
2,57,113,0
2,69,113,0
2,50,0,176
2,57,0,8
2,66,0,56
2,69,0,4
2,62,0,8
2,62,113,96
2,66,113,0
2,69,113,0
2,62,0,104
2,66,0,16
2,69,0,4
2,49,113,260
2,61,113,0
2,66,113,0
2,69,113,0
2,49,0,116
2,61,0,44
2,69,0,16
2,66,0,4
2,66,113,92
2,61,113,0
2,69,113,0
2,66,0,72
2,61,0,28
2,69,0,4
2,66,113,280
2,47,113,0
2,62,113,0
2,59,113,0
2,66,0,128
2,62,0,4
2,59,0,4
2,47,0,88
2,62,113,16
2,59,113,0
2,66,113,0
2,62,0,200
2,59,0,24
2,66,0,40
2,66,113,120
2,57,113,0
2,62,113,0
2,57,0,164
2,66,0,0
2,62,0,4
2,66,113,76
2,62,113,0
2,57,113,0
2,62,0,76
2,57,0,4
2,66,0,16
2,69,113,288
2,66,113,0
2,62,113,0
2,57,113,0
2,50,113,0
2,69,0,124
2,62,0,32
2,66,0,4
2,57,0,20
2,50,0,8
2,66,113,76
2,62,113,0
2,69,113,0
2,62,0,84
2,66,0,4
2,69,0,12
2,61,113,284
2,49,113,0
2,66,113,0
2,69,113,0
2,49,0,80
2,61,0,44
2,69,0,16
2,66,0,12
2,61,113,116
2,66,113,0
2,69,113,0
2,66,0,88
2,69,0,16
2,61,0,0
2,66,113,280
2,62,113,0
2,59,109,0
2,47,113,0
2,62,0,140
2,66,0,0
2,59,0,8
2,47,0,56
2,59,113,52
2,62,113,0
2,66,113,0
2,62,0,204
2,59,0,0
2,66,0,24
2,57,113,156
2,66,109,0
2,62,113,0
2,57,0,168
2,62,0,16
2,66,0,0
2,66,113,88
2,57,113,0
2,62,113,0
2,57,0,116
2,62,0,4
2,66,0,4
2,55,113,112
2,64,113,0
2,67,113,0
2,60,113,0
2,48,113,0
2,67,0,304
2,64,0,0
2,60,0,8
2,67,113,44
2,60,113,0
2,64,113,0
2,55,0,48
2,48,0,36
2,48,113,172
2,60,0,4
2,67,0,8
2,64,0,20
2,48,0,36
2,47,113,60
2,59,113,0
2,67,113,0
2,64,113,0
2,59,0,96
2,67,0,12
2,64,0,20
2,59,113,72
2,67,113,0
2,64,113,0
2,47,0,32
2,59,0,216
2,67,0,28
2,64,0,16
2,45,113,92
2,60,113,0
2,67,113,0
2,64,113,0
2,60,0,180
2,67,0,4
2,64,0,12
2,64,113,60
2,60,113,0
2,67,113,0
2,45,0,72
2,64,0,176
2,60,0,0
2,67,0,8
2,45,113,0
2,45,0,72
2,59,113,56
2,64,113,0
2,67,113,0
2,59,0,180
2,64,0,16
2,67,0,8
2,64,113,88
2,67,113,0
2,59,113,0
2,64,0,92
