track,note,velocity,time
2,32,76,2288
2,32,0,484
2,32,81,96
2,32,0,56
2,32,83,136
2,32,0,440
2,32,70,132
2,32,0,76
2,37,83,112
2,37,0,564
2,32,83,16
2,32,0,400
2,30,83,172
2,30,0,504
2,32,83,72
2,32,0,636
2,32,79,132
2,32,0,60
2,32,83,132
2,32,0,504
2,32,83,264
2,32,0,460
2,32,79,116
2,32,0,68
2,30,83,128
2,30,0,488
2,30,83,84
2,32,83,196
2,30,0,4
2,32,0,436
2,32,83,136
2,32,0,48
2,32,83,140
2,32,0,440
2,32,83,136
2,32,0,68
2,37,83,128
2,37,0,460
2,32,83,116
2,32,0,428
2,30,83,148
2,30,0,448
2,28,83,124
2,28,0,680
2,28,83,92
2,28,0,76
2,28,83,116
2,28,0,660
2,28,83,104
2,28,0,504
2,28,83,72
2,28,0,84
2,28,83,108
2,28,0,644
2,28,83,124
2,28,0,564
2,35,83,12
2,28,83,196
2,35,0,12
2,28,0,448
2,28,83,112
2,28,0,84
2,28,81,108
2,28,0,644
2,28,83,124
2,28,0,460
2,28,79,116
2,28,0,64
2,28,83,132
2,28,0,544
2,35,72,32
2,37,83,192
2,35,0,4
2,37,0,428
2,37,77,140
2,37,0,60
2,37,83,136
2,37,0,472
2,32,72,104
2,32,0,176
2,37,81,12
2,37,0,452
2,37,83,128
2,37,0,56
2,37,83,136
2,37,0,380
2,32,77,4
2,32,0,384
2,30,79,0
2,30,0,440
2,30,77,132
2,30,0,156
2,30,79,40
2,30,0,536
2,30,81,228
2,30,0,460
2,30,74,116
2,30,0,84
2,37,81,112
2,37,0,356
2,42,68,24
2,30,83,384
2,42,0,4
2,30,0,456
2,30,79,120
2,30,0,64
2,30,81,128
2,30,0,708
2,35,81,56
2,35,0,472
2,35,83,108
2,35,0,56
2,35,83,136
2,35,0,592
2,28,83,172
2,28,0,448
2,28,83,128
2,28,0,68
2,28,83,128
2,28,0,572
2,28,83,196
2,28,0,468
2,28,82,108
2,28,0,56
2,28,83,136
2,28,0,696
2,37,83,68
2,37,0,460
2,37,77,120
2,37,0,108
2,37,77,84
2,37,0,572
2,37,83,192
2,37,0,432
2,37,83,148
2,37,0,188
2,32,71,4
2,32,0,356
2,37,83,28
2,37,0,344
2,30,77,36
2,30,0,456
2,30,72,120
2,30,0,56
2,30,77,136
2,37,64,580
2,30,0,36
2,37,0,136
2,42,83,20
2,42,0,464
2,42,81,108
2,42,0,68
2,42,83,124
2,37,79,384
2,42,0,16
2,37,0,340
2,30,79,28
2,30,0,440
2,30,76,136
2,30,0,68
2,30,83,128
2,30,0,736
2,35,83,28
2,35,0,468
2,35,82,108
2,35,0,76
2,35,83,120
2,35,0,484
2,35,82,88
2,32,72,196
2,35,0,4
2,32,0,468
2,32,81,104
2,32,0,164
2,37,83,28
2,37,0,484
2,37,76,88
2,37,0,172
2,32,79,20
2,32,0,460
2,32,76,116
2,32,0,184
2,37,81,12
2,37,0,472
2,37,70,100
2,32,81,196
2,37,0,4
2,32,0,480
2,32,71,92
2,32,0,64
2,32,76,124
2,32,0,528
2,32,66,52
2,32,0,192
2,30,83,0
2,30,0,468
2,30,77,104
2,30,0,188
2,35,83,8
2,35,0,444
2,35,81,128
2,35,0,180
2,32,79,12
2,32,0,460
2,32,79,120
2,32,0,56
2,32,81,136
2,32,0,556
2,39,72,20
2,39,0,188
2,32,83,4
2,32,0,496
2,32,81,80
2,32,0,188
2,37,78,4
2,37,0,460
2,37,71,112
2,32,67,192
2,37,0,16
2,32,0,444
2,32,70,116
2,32,0,180
2,37,68,16
2,37,0,460
2,37,70,112
2,37,0,160
2,32,81,32
2,32,0,476
2,32,77,100
2,32,0,68
2,32,83,124
2,32,0,608
2,33,83,160
2,33,0,492
2,33,82,84
2,33,0,84
2,33,83,112
2,33,0,616
2,33,83,152
2,33,0,448
2,33,82,124
2,33,0,60
2,33,83,132
2,40,76,576
2,33,0,28
2,45,83,164
2,40,0,20
2,45,0,476
2,45,78,80
2,45,0,80
2,45,83,116
2,40,74,576
2,45,0,32
2,40,0,156
2,33,83,4
2,33,0,448
2,33,83,124
2,33,0,68
2,33,83,128
2,35,70,576
2,33,0,8
2,35,0,172
2,28,83,8
2,28,0,484
2,28,83,92
2,28,0,72
2,28,83,120
2,28,0,520
2,28,70,56
2,28,0,196
2,30,83,0
2,30,0,492
2,30,83,88
2,30,0,136
2,35,83,52
2,35,0,512
2,35,74,60
2,35,0,160
2,32,83,32
2,32,0,456
2,32,83,120
2,32,0,64
2,32,83,128
2,32,0,468
2,32,81,112
2,32,0,120
2,33,83,72
2,33,0,440
2,33,81,132
2,33,0,152
2,35,82,40
2,35,0,480
2,35,83,96
2,35,0,56
2,32,83,140
2,32,0,460
2,32,76,112
2,32,0,172
2,37,83,20
2,37,0,468
2,37,76,108
2,37,0,188
2,32,77,4
2,32,0,452
2,32,66,124
2,32,0,180
2,37,81,12
2,37,0,496
2,37,59,80
2,37,0,172
2,33,74,20
2,33,0,460
2,33,74,116
2,33,0,60
2,33,82,136
2,33,0,628
2,32,83,140
2,32,0,512
2,32,72,64
2,32,0,68
2,32,83,124
2,32,0,484
2,32,65,92
2,32,0,180
2,35,79,12
2,35,0,464
2,35,83,108
2,35,0,60
2,35,83,136
2,37,71,384
2,35,0,12
2,37,0,172
2,35,72,8
2,35,0,192
2,28,83,0
2,28,0,476
2,28,83,96
2,28,0,68
2,28,83,124
2,28,0,484
2,28,78,92
2,28,0,196
2,30,83,0
2,30,0,444
2,30,83,132
2,30,0,100
2,35,83,92
2,35,0,756
2,32,83,12
2,32,0,460
2,32,76,112
2,32,0,68
2,32,83,128
2,32,0,440
2,32,83,132
2,32,0,100
2,33,83,96
2,33,0,476
2,33,78,100
2,33,0,76
2,35,83,116
2,35,0,476
2,35,67,100
2,35,0,192
2,32,83,0
2,32,0,452
2,32,71,124
2,32,0,152
2,37,83,40
2,37,0,432
2,37,77,140
2,37,0,180
2,32,81,16
2,32,0,432
2,32,72,140
2,32,0,196
2,37,79,0
2,37,0,484
2,37,64,88
2,37,0,192
2,33,73,0
2,33,0,472
2,33,77,104
2,33,0,76
2,33,82,120
2,33,0,476
2,33,64,96
2,33,0,72
2,32,83,124
2,32,0,460
2,32,66,112
2,32,0,68
2,32,83,124
2,32,0,480
2,39,72,96
2,39,0,180
2,32,65,16
2,32,0,464
2,32,65,108
2,32,0,64
2,32,83,132
2,32,0,608
2,30,79,156
2,30,0,468
2,30,77,108
2,30,0,64
2,30,79,132
2,37,71,576
2,30,0,20
2,37,0,172
2,42,83,0
2,42,0,456
2,42,83,116
2,42,0,60
2,42,83,136
2,42,0,372
2,30,83,12
2,30,0,384
2,28,83,0
2,28,0,484
2,28,78,88
2,28,0,52
2,28,81,140
2,28,0,580
2,35,73,0
2,35,0,180
2,28,78,12
2,28,0,424
2,28,79,148
2,28,0,56
2,28,77,140
2,28,0,384
2,35,80,0
2,35,0,372
2,28,82,12
2,28,0,432
2,28,74,144
2,28,0,72
2,28,80,120
2,28,0,668
2,28,83,104
2,28,0,464
2,28,80,104
2,28,0,68
2,28,83,128
2,35,70,384
2,28,0,20
2,35,0,344
2,37,83,16
2,37,0,496
2,37,76,84
2,37,0,84
2,37,83,112
2,37,0,380
2,32,63,0
2,32,0,356
2,37,83,24
2,37,0,424
2,37,83,152
2,37,0,48
2,37,83,148
2,37,0,380
2,32,83,4
2,32,0,344
2,30,76,40
2,30,0,440
2,30,77,132
2,30,0,60
2,30,81,132
2,30,0,580
2,37,70,0
2,37,0,188
2,42,83,4
2,42,0,424
2,42,83,148
2,42,0,48
2,42,83,144
2,42,0,364
2,37,83,20
2,37,0,368
2,30,79,16
2,30,0,432
2,30,76,144
2,30,0,56
2,30,71,140
2,30,0,476
2,30,71,100
2,30,0,176
2,35,83,12
2,35,0,460
2,35,78,116
2,35,0,60
2,35,83,136
2,35,0,736
2,32,83,28
2,32,0,476
2,32,83,104
2,32,0,152
2,37,83,36
2,37,0,476
2,37,79,100
2,37,0,172
2,32,71,20
2,32,0,472
2,32,79,104
2,32,0,76
2,37,83,120
2,37,0,456
2,37,77,116
2,32,76,192
2,37,0,4
2,32,0,472
2,32,81,100
2,32,0,48
2,32,83,144
2,32,0,644
2,33,82,128
2,33,0,476
2,33,81,96
2,33,0,60
2,33,83,132
2,33,0,660
2,33,83,112
2,33,0,420
2,33,83,152
2,33,0,64
2,33,83,132
2,40,83,384
2,33,0,4
2,40,0,376
2,45,74,4
2,45,0,460
2,45,83,112
2,45,0,64
2,45,83,132
2,40,79,576
2,45,0,24
2,40,0,140
2,33,82,28
2,33,0,448
2,33,83,124
2,33,0,60
2,33,83,136
2,35,77,572
2,33,0,4
2,28,83,192
2,35,0,12
2,28,0,460
2,28,83,104
2,28,0,56
2,28,83,136
2,28,0,716
2,30,83,52
2,30,0,440
2,30,83,136
2,30,0,188
2,35,79,4
2,35,0,484
2,35,79,92
2,35,0,180
2,32,81,12
2,32,0,416
2,32,77,156
2,32,0,60
2,32,83,136
2,32,0,460
2,32,77,112
2,32,0,196
2,33,79,0
2,33,0,468
2,33,78,108
2,33,0,180
2,35,74,8
2,35,0,468
2,35,74,108
2,32,83,196
2,35,0,24
2,32,0,456
2,32,67,92
2,32,0,180
2,37,83,16
2,37,0,468
2,37,77,104
2,32,77,196
2,37,0,8
2,32,0,444
2,32,66,124
2,32,0,176
2,37,65,12
2,37,0,464
2,37,79,112
2,33,75,192
2,37,0,16
2,33,0,496
2,33,75,64
2,33,0,76
2,33,82,120
2,33,0,660
2,32,76,108
2,32,0,504
2,32,63,72
2,32,0,72
2,32,83,116
2,32,0,708
2,32,83,64
2,32,0,484
2,32,76,92
2,32,0,80
2,32,83,112
2,32,0,476
2,32,83,100
2,32,0,180
2,37,83,8
2,37,0,540
2,32,83,40
2,32,0,460
2,30,83,116
2,30,0,500
2,28,83,72
2,28,0,692
2,28,83,80
2,28,0,76
2,28,83,120
2,28,0,352
2,37,83,32
2,37,0,476
2,37,81,96
2,37,0,76
2,37,83,116
2,37,0,320
2,37,71,60
2,37,0,76
2,37,83,116
2,37,0,340
2,37,83,48
2,37,0,168
2,37,81,24
2,37,0,424
2,37,83,152
2,37,0,192
2,30,83,0
2,30,0,468
2,30,83,108
2,30,0,56
2,30,83,136
2,30,0,460
2,30,81,112
2,32,83,192
2,30,0,4
2,32,0,440
2,32,74,132
2,32,0,188
2,37,81,8
2,37,0,452
2,37,77,120
2,37,0,192
2,34,77,0
2,34,0,424
2,34,83,152
2,34,0,76
2,34,83,120
2,34,0,456
2,34,83,116
2,34,0,196
2,35,83,0
2,35,0,460
2,35,81,112
2,37,81,192
2,35,0,12
2,37,0,476
2,37,70,88
2,34,79,196
2,37,0,16
2,34,0,436
2,34,76,124
2,34,0,192
2,39,83,0
2,39,0,468
2,39,83,104
2,34,76,196
2,39,0,12
2,34,0,456
2,34,70,104
2,34,0,188
2,39,83,4
2,39,0,464
2,39,77,112
2,39,0,188
2,35,79,4
2,35,0,476
2,35,79,100
2,35,0,68
2,35,83,128
2,35,0,696
2,34,83,72
2,34,0,492
2,34,70,84
2,34,0,64
2,34,83,124
2,34,0,504
2,34,77,72
2,37,79,196
2,34,0,4
2,37,0,48
2,37,83,136
2,37,0,288
2,37,83,96
2,37,0,60
2,37,83,136
2,39,77,380
2,37,0,4
2,37,67,188
2,39,0,20
2,37,0,168
2,30,81,4
2,30,0,504
2,30,83,76
2,30,0,64
2,30,83,128
2,30,0,464
2,30,81,112
2,30,0,192
2,32,83,0
2,32,0,452
2,32,79,120
2,32,0,188
2,37,83,4
2,37,0,380
2,35,79,4
2,35,0,356
2,34,83,28
2,34,0,468
2,34,83,108
2,34,0,76
2,34,83,116
2,34,0,444
2,34,83,132
2,35,83,192
2,34,0,4
2,35,0,432
2,35,82,140
2,37,71,192
2,35,0,8
2,37,0,480
2,37,83,88
2,34,76,196
2,37,0,4
2,34,0,456
2,34,76,112
2,39,72,192
2,34,0,16
2,39,0,480
2,39,74,80
2,34,70,192
2,39,0,24
2,34,0,456
2,34,74,96
2,39,72,192
2,34,0,8
2,39,0,484
2,39,71,84
2,35,79,196
2,39,0,12
2,35,0,464
2,35,83,96
2,35,0,56
2,35,83,140
2,35,0,624
2,34,83,144
2,34,0,504
2,34,74,68
2,34,0,68
2,34,83,128
2,34,0,464
2,34,81,108
2,34,0,196
2,37,74,0
2,37,0,52
2,37,83,140
2,37,0,272
2,37,83,108
2,37,0,48
2,37,83,152
2,34,71,384
2,37,0,12
2,34,0,380
2,30,83,76
2,30,0,2888
3,59,79,2268
3,63,78,0
3,56,79,0
3,63,0,1064
3,59,0,16
3,56,0,8
3,63,76,64
3,59,79,0
3,56,79,0
3,59,0,236
3,63,0,12
3,56,0,20
3,64,79,116
3,56,79,0
3,61,79,0
3,61,0,444
3,56,0,20
3,64,0,20
3,59,79,92
3,63,76,0
3,56,79,0
3,56,0,456
3,59,0,16
3,63,0,12
3,58,79,92
3,61,79,0
3,54,79,0
3,58,0,464
3,54,0,8
3,61,0,0
3,63,79,104
3,59,79,0
3,56,79,0
3,56,0,660
3,63,0,8
3,59,0,8
3,56,79,92
3,63,79,0
3,59,79,0
3,63,0,864
3,56,0,20
3,59,0,4
3,63,79,72
3,56,79,0
3,59,79,0
3,59,0,472
3,56,0,8
3,54,79,96
3,58,79,0
3,61,72,0
3,63,0,4
3,54,0,304
3,54,74,76
3,61,0,28
3,58,0,8
3,61,79,156
3,58,79,0
3,54,0,136
3,54,78,56
3,58,0,116
3,54,0,12
3,61,0,36
3,63,55,28
3,59,79,0
3,56,79,0
3,63,0,488
3,56,0,20
3,59,0,0
3,63,79,68
3,56,79,0
3,59,79,0
3,56,0,308
3,56,60,76
3,63,0,88
3,59,0,20
3,56,0,64
3,63,79,20
3,59,79,0
3,56,78,0
3,59,0,172
3,63,0,12
3,56,0,16
3,61,79,184
3,56,79,0
3,64,79,0
3,61,0,420
3,56,0,72
3,64,0,12
3,59,79,72
3,56,79,0
3,63,79,0
3,59,0,364
3,56,0,12
3,63,0,88
3,58,79,112
3,61,79,0
3,54,79,0
3,61,0,412
3,58,0,8
3,54,0,28
3,59,79,128
3,52,79,0
3,56,79,0
3,56,0,648
3,52,0,12
3,59,0,0
3,56,79,108
3,52,79,0
3,59,79,0
3,52,0,476
3,56,0,0
3,59,0,12
3,56,79,88
3,59,79,0
3,52,79,0
3,64,79,0
3,64,0,2592
3,59,0,8
3,56,0,4
3,52,0,4
3,52,79,12368
3,59,79,0
3,56,79,0
3,56,0,2996
3,59,0,0
3,52,0,0
3,56,79,76
3,59,79,0
3,64,79,0
3,59,0,2844
3,64,0,12
3,56,0,20
3,64,76,196
3,61,79,0
3,57,72,0
3,64,0,2968
3,61,0,4
3,57,0,36
3,64,75,64
3,57,76,0
3,61,78,0
3,64,0,1048
3,61,0,12
3,57,0,44
3,64,79,48
3,61,78,0
3,57,71,0
3,64,0,268
3,61,0,12
3,57,0,20
3,59,79,84
3,63,79,0
3,66,79,0
3,66,0,1012
3,63,0,36
3,59,0,48
3,63,79,56
3,59,79,0
3,66,79,0
3,66,0,264
3,63,0,12
3,59,0,12
3,66,79,96
3,59,79,0
3,63,79,0
3,66,0,320
3,63,0,20
3,59,0,20
3,63,79,24
3,59,79,0
3,66,79,0
3,66,0,228
3,63,0,28
3,59,0,48
3,64,79,80
3,59,79,0
3,68,74,0
3,68,0,296
3,64,0,28
3,64,79,60
3,68,79,0
3,59,0,148
3,59,59,44
3,64,0,64
3,59,0,88
3,68,0,8
3,63,79,32
3,66,76,0
3,59,68,0
3,66,0,292
3,63,0,12
3,59,0,20
3,59,76,60
3,66,78,0
3,63,78,0
3,66,0,288
3,63,0,4
3,59,0,60
3,59,66,32
3,64,79,0
3,68,72,0
3,68,0,308
3,64,0,16
3,59,0,12
3,59,79,48
3,68,78,0
3,64,79,0
3,59,0,136
3,59,66,56
3,64,0,36
3,68,0,28
3,59,0,92
