track,note,velocity,time
1,38,83,832
1,38,0,154
1,38,80,29
1,38,0,20
1,35,74,42
1,35,0,160
1,33,71,17
1,33,0,27
1,34,75,0
1,34,0,25
1,31,70,8
1,31,0,190
1,40,64,22
1,40,0,16
1,28,84,17
1,28,0,10
1,28,86,45
1,28,0,92
1,35,84,25
1,35,0,40
1,35,78,21
1,35,0,154
1,35,80,29
1,35,0,20
1,35,74,37
1,35,0,160
1,40,71,22
1,40,0,27
1,35,70,33
1,35,0,190
1,35,64,18
1,35,0,16
1,33,84,21
1,33,0,10
1,33,86,43
1,33,0,92
1,33,83,28
1,33,0,40
1,38,88,22
1,38,0,160
1,38,76,21
1,38,0,26
1,35,71,37
1,35,0,16
1,35,71,40
1,35,0,89
1,35,76,31
1,35,0,39
1,43,88,21
1,43,0,160
1,43,76,21
1,43,0,26
1,42,84,34
1,42,0,97
1,42,84,23
1,42,0,97
1,43,88,22
1,43,0,160
1,43,76,21
1,43,0,26
1,33,84,34
1,33,0,97
1,43,84,23
1,43,0,97
1,42,88,22
1,42,0,160
1,42,76,21
1,42,0,26
1,35,88,33
1,35,0,160
1,35,76,21
1,35,0,26
1,40,71,37
1,40,0,16
1,40,71,40
1,40,0,89
1,40,76,31
1,40,0,39
1,42,71,25
1,42,0,16
1,42,71,40
1,42,0,89
1,42,76,31
1,42,0,39
1,43,88,21
1,43,0,160
1,43,76,21
1,43,0,26
1,43,71,37
1,43,0,16
1,43,71,40
1,43,0,89
1,43,76,31
1,43,0,39
1,33,78,22
1,33,0,149
1,33,65,30
1,33,0,27
1,33,72,34
1,33,0,152
1,33,76,25
1,33,0,30
1,26,78,33
1,26,0,149
1,26,65,30
1,26,0,27
1,30,72,34
1,30,0,152
1,33,76,25
1,33,0,30
1,38,88,32
1,38,0,160
1,38,76,21
1,38,0,26
1,35,88,33
1,35,0,160
1,35,76,21
1,35,0,26
1,40,88,33
1,40,0,160
1,40,76,21
1,40,0,26
1,33,84,34
1,33,0,97
1,34,84,23
1,34,0,97
1,35,88,22
1,35,0,160
1,35,76,21
1,35,0,26
1,40,84,34
1,40,0,97
1,40,84,23
1,40,0,97
1,33,76,25
1,33,0,163
1,28,66,15
1,28,0,13
1,31,90,14
1,31,0,20
1,30,86,12
1,30,0,143
1,28,65,32
1,28,0,22
1,38,88,43
1,38,0,160
1,38,76,21
1,38,0,26
1,35,88,33
1,35,0,160
1,35,76,21
1,35,0,26
1,40,88,33
1,40,0,160
1,40,76,21
1,40,0,26
1,33,84,34
1,33,0,97
1,34,84,23
1,34,0,97
1,35,88,22
1,35,0,160
1,35,76,21
1,35,0,26
1,40,84,34
1,40,0,97
1,40,84,23
1,40,0,97
1,33,76,25
1,33,0,163
1,28,66,15
1,28,0,13
1,30,90,11
1,30,0,20
1,33,86,15
1,33,0,143
1,33,65,32
1,33,0,22
1,38,88,43
1,38,0,160
1,38,76,21
1,38,0,26
1,35,88,33
1,35,0,160
1,35,76,21
1,35,0,26
1,43,88,33
1,43,0,160
1,43,76,21
1,43,0,26
1,40,84,34
1,40,0,97
1,35,65,80
1,35,70,69
1,35,0,28
1,35,0,154
1,35,90,24
1,35,0,24
1,33,88,3
1,33,0,160
1,33,76,21
1,33,0,26
1,38,88,33
1,38,0,160
1,38,76,21
1,38,0,26
1,35,88,33
1,35,0,160
1,35,76,21
1,35,0,26
1,43,88,33
1,43,0,160
1,43,76,21
1,43,0,26
1,38,84,34
1,38,0,97
1,42,84,23
1,42,0,97
1,43,88,22
1,43,0,160
1,43,76,21
1,43,0,26
1,33,84,34
1,33,0,97
1,43,84,23
1,43,0,97
1,42,70,29
1,42,0,182
1,42,90,24
1,42,0,24
1,35,88,3
1,35,0,160
1,35,76,21
1,35,0,26
1,40,88,33
1,40,0,160
1,40,76,21
1,40,0,26
1,42,88,33
1,42,0,160
1,42,76,21
1,42,0,26
1,43,71,37
1,43,0,16
1,43,71,40
1,43,0,89
1,43,76,31
1,43,0,39
1,43,88,21
1,43,0,160
1,43,76,21
1,43,0,26
1,33,76,36
1,33,0,163
1,28,66,15
1,28,0,13
1,30,90,11
1,30,0,20
1,33,86,15
1,33,0,143
1,33,65,32
1,33,0,22
1,26,80,41
1,26,0,150
1,33,70,29
1,33,0,19
1,33,59,41
1,33,0,21
1,33,68,40
1,33,0,96
1,33,76,28
1,33,0,36
1,38,88,22
1,38,0,160
1,38,76,21
1,38,0,26
1,35,88,33
1,35,0,160
1,35,76,21
1,35,0,26
1,40,71,37
1,40,0,16
1,40,71,40
1,40,0,89
1,40,76,31
1,40,0,39
1,33,84,22
1,33,0,97
1,34,84,23
1,34,0,97
1,35,70,29
1,35,0,182
1,35,90,24
1,35,0,24
1,40,84,4
1,40,0,97
1,40,84,23
1,40,0,97
1,33,80,20
1,33,0,150
1,33,70,29
1,33,0,19
1,33,59,41
1,33,0,21
1,33,68,40
1,33,0,96
1,33,76,28
1,33,0,36
1,38,88,22
1,38,0,160
1,38,76,21
1,38,0,26
1,35,88,33
1,35,0,160
1,35,76,21
1,35,0,26
1,40,88,33
1,40,0,160
1,40,76,21
1,40,0,26
1,33,84,34
1,33,0,97
1,34,84,23
1,34,0,97
1,35,88,22
1,35,0,160
1,35,76,21
1,35,0,26
1,40,84,34
1,40,0,97
1,40,84,23
1,40,0,97
1,33,80,20
1,33,0,150
1,33,70,29
1,33,0,19
1,33,59,41
1,33,0,21
1,33,68,40
1,33,0,96
1,33,76,28
1,33,0,36
1,44,78,23
1,44,0,149
1,44,65,30
1,44,0,27
1,44,72,34
1,44,0,152
1,44,76,25
1,44,0,30
1,34,76,35
1,34,0,163
1,29,66,15
1,29,0,13
1,31,90,11
1,31,0,20
1,34,86,15
1,34,0,143
1,34,65,32
1,34,0,22
1,39,88,43
1,39,0,160
1,39,76,21
1,39,0,26
1,36,71,37
1,36,0,16
1,36,71,40
1,36,0,89
1,36,76,31
1,36,0,39
1,41,71,25
1,41,0,16
1,41,71,40
1,41,0,89
1,41,76,31
1,41,0,39
1,34,84,22
1,34,0,97
1,35,84,23
1,35,0,97
1,36,88,22
1,36,0,160
1,36,76,21
1,36,0,26
1,41,84,34
1,41,0,97
1,41,84,23
1,41,0,97
1,34,78,23
1,34,0,149
1,32,65,30
1,32,0,27
1,31,72,34
1,31,0,152
1,29,76,25
1,29,0,30
1,39,88,32
1,39,0,160
1,39,76,21
1,39,0,26
1,36,88,33
1,36,0,160
1,36,76,21
1,36,0,26
1,41,71,37
1,41,0,16
1,41,71,40
1,41,0,89
1,41,76,31
1,41,0,39
1,34,84,22
1,34,0,97
1,35,84,23
1,35,0,97
1,36,70,29
1,36,0,182
1,36,90,24
1,36,0,24
1,41,84,4
1,41,0,97
1,41,84,23
1,41,0,97
1,34,71,26
1,34,0,16
1,34,71,40
1,34,0,89
1,34,76,31
1,34,0,39
1,34,88,21
1,34,0,160
1,34,76,21
1,34,0,26
1,39,88,33
1,39,0,160
1,39,76,21
1,39,0,26
1,36,88,33
1,36,0,160
1,36,76,21
1,36,0,26
1,41,88,33
1,41,0,160
1,41,76,21
1,41,0,26
1,34,84,34
1,34,0,97
1,35,84,23
1,35,0,97
1,36,88,22
1,36,0,160
1,36,76,21
1,36,0,26
1,41,84,34
1,41,0,97
1,41,84,23
1,41,0,97
1,34,76,25
1,34,0,163
1,32,66,15
1,32,0,13
1,32,90,11
1,32,0,20
1,31,86,15
1,31,0,143
1,29,65,32
1,29,0,22
1,39,88,43
1,39,0,160
1,39,76,21
1,39,0,26
1,36,70,31
1,36,0,182
1,36,90,33
1,36,0,24
1,41,88,3
1,41,0,160
1,41,76,21
1,41,0,26
1,34,84,34
1,34,0,97
1,35,84,23
1,35,0,97
1,36,70,24
1,36,0,182
1,36,90,29
1,36,0,24
1,41,84,4
1,41,0,97
1,41,84,23
1,41,0,97
1,34,88,22
1,34,0,160
1,34,76,21
1,34,0,26
1,34,88,33
1,34,0,160
1,34,76,21
1,34,0,26
1,39,88,33
1,39,0,4
1,39,76,5
1,39,0,1
1,36,88,14
1,36,0,4
1,36,76,5
1,36,0,11
1,41,71,8
1,41,0,4
1,41,71,4
1,41,0,3
1,41,76,14
1,41,0,13
1,34,84,15
1,34,0,2
1,35,84,5
1,35,0,22
1,36,71,18
1,36,0,14
1,36,71,14
1,36,0,3
1,36,76,4
1,36,0,3
1,41,84,5
1,41,0,2
1,41,84,23
1,41,0,12
1,34,80,12
1,34,0,12
1,32,70,1
1,32,0,19
1,31,59,22
1,31,0,13
1,34,68,12
1,34,0,8
1,34,76,16
1,34,0,2
2,52,62,827
2,76,57,0
2,69,59,3
2,66,52,0
2,62,33,57
2,66,0,47
2,69,0,6
2,76,0,10
2,66,59,4
2,74,10,16
2,74,0,17
2,66,0,14
2,74,57,9
2,66,37,0
2,69,68,3
2,74,0,107
2,69,0,8
2,66,0,4
2,59,61,52
2,74,28,0
2,52,0,19
2,69,59,4
2,59,0,10
2,50,63,3
2,66,78,4
2,74,0,34
2,55,62,21
2,69,0,2
2,62,0,5
2,66,0,20
2,67,43,33
2,67,0,21
2,66,62,39
2,55,0,1
2,62,58,1
2,62,0,109
2,66,0,1
2,54,68,8
2,64,72,60
2,69,78,2
2,62,60,1
2,54,0,6
2,50,0,2
2,64,0,11
2,62,0,2
2,69,0,1
2,52,62,61
2,76,57,0
2,69,59,3
2,66,52,0
2,62,33,62
2,66,0,42
2,69,0,6
2,76,0,10
2,66,59,4
2,76,10,23
2,76,0,17
2,66,0,7
2,76,57,6
2,66,37,3
2,69,68,3
2,76,0,104
2,69,0,11
2,66,0,4
2,54,61,52
2,74,28,0
2,52,0,19
2,62,59,3
2,54,0,11
2,49,63,4
2,66,78,3
2,74,0,34
2,62,0,22
2,57,62,1
2,62,0,10
2,66,0,15
2,61,43,33
2,61,0,21
2,61,58,39
2,66,62,0
2,57,0,3
2,61,0,106
2,66,0,3
2,55,68,8
2,67,67,60
2,62,60,0
2,69,78,2
2,55,0,7
2,49,0,3
2,62,0,10
2,67,0,1
2,69,0,3
2,50,47,61
2,62,68,0
2,57,57,0
2,38,47,0
2,66,55,0
2,50,0,36
2,50,61,20
2,57,0,27
2,66,0,5
2,62,0,0
2,57,85,24
2,38,0,57
2,62,74,1
2,66,66,1
2,50,0,3
2,57,0,20
2,66,0,3
2,62,0,1
2,47,53,23
2,59,53,80
2,66,55,31
2,71,58,1
2,69,59,2
2,62,46,1
2,59,0,2
2,62,0,50
2,59,37,10
2,69,0,3
2,71,0,1
2,66,0,0
2,59,0,7
2,47,0,20
2,43,47,16
2,67,68,0
2,62,57,0
2,71,55,0
2,43,0,36
2,43,61,20
2,62,0,27
2,71,0,5
2,67,0,0
2,62,85,24
2,43,0,57
2,67,74,1
2,71,66,1
2,62,0,20
2,71,0,3
2,67,0,1
2,62,76,31
2,66,74,0
2,38,53,1
2,50,50,0
2,57,70,1
2,66,0,82
2,62,0,4
2,57,0,1
2,50,0,2
2,38,0,4
2,62,76,25
2,66,74,0
2,42,53,1
2,54,50,0
2,57,70,1
2,66,0,82
2,62,0,4
2,57,0,1
2,54,0,2
2,42,0,4
2,43,66,3
2,55,68,0
2,54,52,1
2,62,56,0
2,59,62,1
2,59,0,56
2,54,0,2
2,55,0,1
2,62,0,1
2,50,51,3
2,62,58,54
2,54,46,1
2,55,68,2
2,59,62,0
2,59,0,75
2,62,0,3
2,55,0,0
2,43,0,2
2,54,0,1
2,50,0,0
2,62,76,8
2,66,74,0
2,45,53,1
2,57,70,1
2,66,0,82
2,62,0,4
2,57,0,1
2,45,0,2
2,64,76,29
2,67,74,0
2,43,53,1
2,59,70,1
2,67,0,82
2,64,0,4
2,59,0,1
2,43,0,2
2,42,42,21
2,54,46,2
2,66,60,0
2,69,56,1
2,61,60,1
2,64,60,0
2,69,0,119
2,61,0,2
2,54,0,2
2,42,0,0
2,64,0,1
2,66,0,0
2,71,60,8
2,66,66,2
2,62,51,0
2,57,37,1
2,50,50,0
2,47,30,1
2,57,0,28
2,57,52,21
2,62,0,4
2,66,0,17
2,71,0,1
2,62,57,11
2,66,76,30
2,50,0,27
2,57,0,28
2,71,59,9
2,47,0,1
2,66,0,11
2,62,0,3
2,71,0,3
2,52,66,3
2,64,68,0
2,62,52,1
2,71,56,0
2,67,62,1
2,67,0,56
2,62,0,2
2,64,0,1
2,71,0,1
2,59,51,3
2,71,58,54
2,62,46,1
2,64,68,2
2,67,62,0
2,67,0,75
2,71,0,3
2,64,0,0
2,52,0,2
2,62,0,1
2,59,0,0
2,78,60,0
2,73,66,2
2,69,51,0
2,64,37,1
2,57,50,0
2,54,30,1
2,64,0,28
2,64,52,21
2,69,0,4
2,73,0,17
2,78,0,1
2,69,57,11
2,73,76,30
2,57,0,27
2,64,0,28
2,78,59,9
2,54,0,1
2,73,0,11
2,69,0,3
2,78,0,3
2,43,53,36
2,55,53,80
2,62,55,31
2,69,58,1
2,66,59,2
2,59,46,1
2,55,0,2
2,59,0,50
2,55,37,10
2,66,0,3
2,69,0,1
2,62,0,0
2,55,0,7
2,43,0,20
2,79,60,16
2,74,66,2
2,71,51,0
2,64,37,1
2,59,50,0
2,43,30,1
2,64,0,28
2,64,52,21
2,71,0,4
2,74,0,17
2,79,0,1
2,71,57,11
2,74,76,30
2,59,0,27
2,64,0,28
2,79,59,9
2,43,0,1
2,74,0,11
2,71,0,3
2,79,0,3
2,64,47,36
2,71,51,0
2,45,37,0
2,67,58,0
2,62,43,0
2,45,0,150
2,67,0,15
2,64,0,7
2,71,0,3
2,45,55,3
2,62,0,2
2,71,60,54
2,62,52,0
2,64,68,2
2,67,60,1
2,45,0,34
2,71,0,22
2,67,0,0
2,64,0,2
2,62,0,2
2,45,41,36
2,45,0,10
2,71,80,8
2,67,82,1
2,64,82,1
2,62,68,0
2,71,0,49
2,67,0,1
2,64,0,3
2,62,0,0
2,62,39,52
2,69,62,0
2,66,47,0
2,74,58,1
2,54,52,1
2,45,50,4
2,62,0,27
2,62,26,23
2,66,0,7
2,69,0,8
2,74,0,2
2,66,47,41
2,66,0,50
2,69,25,15
2,62,0,20
2,69,0,1
2,74,54,32
2,74,0,17
2,78,60,48
2,62,44,42
2,78,0,12
2,81,85,2
2,62,0,18
2,81,0,6
2,78,70,5
2,54,0,1
2,78,0,27
2,74,58,4
2,45,0,5
2,74,0,19
2,69,36,9
2,69,0,7
2,64,60,18
2,52,60,0
2,38,42,0
2,50,46,2
2,62,60,0
2,66,56,1
2,57,60,1
2,66,0,119
2,57,0,2
2,64,0,1
2,52,0,0
2,50,0,1
2,38,0,0
2,62,0,1
2,35,42,8
2,47,46,2
2,59,60,0
2,62,56,1
2,54,60,1
2,57,60,0
2,62,0,119
2,54,0,2
2,47,0,2
2,35,0,0
2,57,0,1
2,59,0,0
2,40,42,8
2,52,46,2
2,64,60,0
2,67,56,1
2,59,60,1
2,62,60,0
2,67,0,119
2,59,0,2
2,52,0,2
2,40,0,0
2,62,0,1
2,64,0,0
2,64,76,16
2,67,74,0
2,45,53,1
2,62,59,1
2,59,70,0
2,67,0,82
2,64,0,4
2,59,0,1
2,62,0,1
2,45,0,1
2,66,76,29
2,70,74,0
2,34,53,1
2,46,50,0
2,64,59,1
2,61,70,0
2,70,0,82
2,66,0,4
2,61,0,1
2,64,0,1
2,46,0,1
2,34,0,4
2,47,53,17
2,59,53,80
2,66,55,31
2,71,58,1
2,69,59,2
2,62,46,1
2,59,0,2
2,62,0,50
2,59,37,10
2,69,0,3
2,71,0,1
2,66,0,0
2,59,0,7
2,47,0,20
2,59,76,24
2,62,74,0
2,40,53,1
2,52,50,0
2,57,59,1
2,54,70,0
2,62,0,82
2,59,0,4
2,54,0,1
2,57,0,1
2,52,0,1
2,40,0,4
2,64,76,25
2,68,74,0
2,40,53,1
2,52,50,0
2,62,59,1
2,59,70,0
2,68,0,82
2,64,0,4
2,59,0,1
2,62,0,1
2,52,0,1
2,40,0,4
2,69,48,22
2,64,61,1
