track,note,velocity,time
0,67,72,0
0,51,55,0
0,65,32,0
0,70,81,0
0,63,103,0
0,67,44,0
0,65,79,0
0,51,0,1
0,70,90,0
0,59,80,0
0,59,0,1
0,70,0,12
0,70,80,0
0,51,66,5
0,51,0,1
0,74,95,1
0,70,0,1
0,74,0,14
0,51,49,0
0,59,50,0
0,59,0,1
0,51,0,0
0,75,87,2
0,74,85,1
0,67,0,8
0,70,0,0
0,67,0,1
0,65,0,0
0,65,0,1
0,51,89,0
0,70,79,0
0,44,77,0
0,65,63,0
0,67,52,0
0,44,0,1
0,51,0,0
0,65,41,0
0,59,74,1
0,59,0,1
0,74,0,4
0,75,77,3
0,51,42,5
0,51,0,1
0,75,0,2
0,59,69,8
0,59,0,1
0,75,0,10
0,65,0,2
0,70,0,0
0,63,0,0
0,67,0,1
0,65,0,1
0,62,100,0
0,51,63,0
0,60,1,0
0,67,74,0
0,70,84,0
0,60,0,1
0,51,0,0
0,59,64,0
0,70,90,0
0,67,54,0
0,65,44,0
0,59,0,1
0,70,0,2
0,60,1,0
0,60,0,1
0,70,80,0
0,74,93,1
0,51,68,0
0,51,0,1
0,70,0,7
0,74,0,2
0,60,1,0
0,59,51,0
0,51,66,0
0,51,0,1
0,59,0,0
0,60,0,0
0,75,89,0
0,74,83,0
0,67,0,13
0,70,0,0
0,67,0,2
0,65,0,0
0,44,83,0
0,70,86,0
0,65,70,0
0,51,95,0
0,51,0,1
0,44,0,0
0,67,63,1
0,59,76,0
0,59,0,1
0,65,50,0
0,74,0,4
0,60,1,0
0,60,0,1
0,75,79,0
0,51,52,1
0,51,0,1
0,75,0,3
0,51,56,1
0,51,0,1
0,75,0,5
0,62,0,1
0,70,0,0
0,65,0,0
0,70,62,1
0,68,56,0
0,63,67,1
0,68,72,0
0,70,74,0
0,46,105,0
0,51,55,0
0,51,0,1
0,67,0,0
0,70,89,0
0,59,80,0
0,59,0,1
0,65,0,0
0,70,0,1
0,70,79,1
0,74,99,2
0,51,66,0
0,51,0,1
0,70,0,1
0,51,49,1
0,59,50,0
0,59,0,1
0,51,0,0
0,74,0,0
0,75,69,0
0,74,89,1
0,70,0,7
0,68,0,0
0,63,0,0
0,70,0,0
0,68,0,0
0,70,75,2
0,63,71,0
0,44,77,0
0,51,89,0
0,68,52,0
0,68,61,0
0,51,0,1
0,44,0,0
0,70,56,0
0,59,74,1
0,59,0,1
0,74,0,5
0,75,59,1
0,75,0,30
0,51,42,1
0,79,107,0
0,51,0,1
0,79,0,14
0,75,0,1
0,59,69,0
0,59,0,1
0,79,97,0
0,80,95,0
0,70,0,6
0,63,0,0
0,68,0,0
0,68,0,1
0,70,0,1
0,68,64,0
0,70,55,0
0,51,63,0
0,63,72,0
0,70,77,0
0,51,0,1
0,68,49,0
0,59,64,0
0,59,0,1
0,79,0,1
0,80,85,0
0,78,97,1
0,80,0,1
0,51,68,2
0,51,0,1
0,79,80,0
0,78,0,1
0,79,0,1
0,51,66,2
0,59,51,0
0,59,0,1
0,51,0,0
0,75,95,1
0,78,87,1
0,80,0,1
0,79,70,4
0,78,0,1
0,70,0,2
0,68,0,0
0,63,0,0
0,70,0,1
0,46,0,0
0,68,0,1
0,58,105,0
0,51,95,0
0,70,70,0
0,68,61,0
0,75,79,0
0,44,83,0
0,57,40,0
0,57,0,1
0,44,0,0
0,51,0,0
0,68,50,0
0,70,49,1
0,59,76,0
0,59,0,1
0,79,0,0
0,75,0,3
0,75,85,1
0,58,0,5
0,70,80,0
0,70,0,1
0,72,82,1
0,75,0,4
0,55,85,1
0,51,52,0
0,51,0,1
0,70,70,0
0,70,0,4
0,72,72,2
0,55,0,5
0,72,0,3
0,51,56,1
0,56,103,0
0,51,0,1
0,70,82,0
0,56,0,2
0,70,0,3
0,68,0,0
0,75,0,0
0,62,86,1
0,58,86,0
0,51,64,0
0,51,0,1
0,68,0,0
0,55,74,0
0,65,74,0
0,58,92,0
0,62,86,0
0,58,79,0
0,43,86,0
0,70,0,1
0,74,64,0
0,59,80,0
0,59,0,1
0,67,48,1
0,72,0,2
0,70,72,0
0,51,66,2
0,51,0,1
0,59,50,1
0,51,49,0
0,51,0,1
0,59,0,0
0,70,0,1
0,74,0,2
0,51,89,0
0,44,77,0
0,62,84,0
0,44,0,1
0,51,0,0
0,67,0,1
0,59,74,0
0,59,0,1
0,67,58,0
0,70,0,1
0,60,1,0
0,60,0,1
0,51,42,0
0,51,0,1
0,74,110,0
0,74,0,18
0,59,69,2
0,59,0,1
0,75,97,0
0,60,1,3
0,60,0,1
0,74,100,0
0,62,0,4
0,62,0,1
0,43,0,0
0,58,0,5
0,58,0,0
0,55,0,0
0,65,0,0
0,63,86,0
0,58,77,1
0,55,69,0
0,63,91,0
0,51,63,0
0,63,86,0
0,60,100,0
0,48,86,0
0,51,0,1
0,59,64,0
0,70,56,0
0,59,0,1
0,62,0,0
0,67,0,0
0,74,0,0
0,67,44,1
0,75,87,1
0,51,68,4
0,51,0,1
0,59,51,6
0,51,66,0
0,51,0,1
0,59,0,0
0,75,0,4
0,63,0,2
0,70,0,2
0,44,83,0
0,51,95,0
0,63,98,0
0,51,0,1
0,44,0,0
0,70,60,0
0,67,0,1
0,67,32,0
0,59,76,0
0,59,0,1
0,75,0,2
0,69,89,1
0,51,52,1
0,51,0,1
0,69,0,1
0,70,92,0
0,70,0,2
0,51,56,0
0,51,0,1
0,68,87,0
0,69,79,0
0,69,0,2
0,70,82,0
0,58,0,8
0,48,0,1
0,63,0,4
0,55,0,1
0,58,0,0
0,60,0,0
0,68,86,0
0,70,0,1
0,53,86,0
0,51,55,0
0,56,86,0
0,68,82,0
0,58,72,0
0,63,82,0
0,51,0,1
0,67,0,0
0,59,80,0
0,59,0,1
0,68,62,1
0,65,32,1
0,70,0,3
0,68,77,1
0,51,66,5
0,51,0,1
0,51,49,5
0,59,50,0
0,59,0,1
0,51,0,0
0,68,0,2
0,68,0,1
0,51,89,0
0,68,56,0
0,44,77,0
0,44,0,1
0,65,0,0
0,51,0,0
0,65,32,0
0,59,74,0
0,59,0,1
0,68,0,1
0,70,89,3
0,51,42,7
0,51,0,1
0,70,0,0
0,72,109,1
0,70,79,1
0,72,0,6
0,59,69,1
0,59,0,1
0,70,0,7
0,75,111,2
0,72,99,4
0,75,0,6
0,58,0,2
0,68,0,0
0,63,0,0
0,68,0,1
0,53,0,0
0,58,86,0
0,65,0,1
0,58,73,0
0,68,80,0
0,63,79,0
0,51,63,0
0,58,93,0
0,51,0,1
0,68,64,0
0,59,64,0
0,59,0,1
0,72,0,2
0,80,123,3
0,75,101,2
0,75,0,5
0,80,0,3
0,80,113,1
0,78,99,1
0,79,89,1
0,51,68,0
0,51,0,1
0,78,0,3
0,79,0,6
0,80,0,3
0,51,66,2
0,59,51,0
0,59,0,1
0,51,0,0
0,78,89,2
0,79,79,3
0,75,90,1
0,78,0,5
0,58,0,4
0,63,0,1
0,68,0,0
0,58,0,0
0,58,0,1
0,60,86,0
0,68,0,1
0,46,90,0
0,63,79,0
0,67,73,0
0,60,74,0
0,44,83,0
0,51,95,0
0,51,0,1
0,44,0,0
0,72,54,0
0,79,0,1
0,59,76,0
0,59,0,1
0,75,80,0
0,75,0,2
0,42,45,2
0,42,0,1
0,71,80,3
0,72,85,0
0,71,0,2
0,59,78,2
0,75,0,2
0,42,15,0
0,42,0,1
0,59,0,1
0,60,98,0
0,71,70,1
0,72,0,1
0,72,75,1
0,71,0,3
0,60,0,1
0,42,65,1
0,51,56,0
0,51,0,1
0,42,0,0
0,55,94,1
0,70,70,1
0,55,0,1
0,68,0,2
0,63,0,0
0,63,0,1
0,60,0,1
0,56,0,1
0,67,0,1
0,63,0,0
0,72,0,0
0,60,0,0
0,46,0,1
0,58,86,0
0,55,86,0
0,72,0,1
0,70,77,0
0,39,98,0
0,44,71,0
0,46,65,0
0,65,70,0
0,58,86,0
0,46,0,1
0,44,0,0
0,58,102,0
0,67,69,3
0,70,60,2
0,51,76,0
0,51,0,3
0,51,97,1
0,51,0,2
0,51,117,1
0,51,0,1
0,44,64,1
0,51,21,0
0,44,0,1
0,51,0,1
0,51,47,2
0,51,0,1
0,58,0,1
0,70,0,2
0,55,78,2
0,65,0,3
0,65,76,0
0,51,82,0
0,51,0,1
0,55,0,2
0,56,85,0
0,51,53,4
0,51,0,1
0,70,0,1
0,56,0,2
0,58,92,0
0,67,0,1
0,39,0,1
0,70,0,0
0,65,0,1
0,62,75,0
0,70,81,0
0,31,98,0
0,58,0,3
0,65,93,2
0,65,0,11
0,63,93,0
0,70,0,7
0,62,0,0
0,31,0,5
0,70,75,1
0,67,71,0
0,46,41,0
0,36,99,0
0,44,75,0
0,63,86,0
0,44,0,1
0,46,0,0
0,55,0,1
0,58,0,0
0,58,0,1
0,63,0,6
0,46,64,1
0,46,0,1
0,67,102,2
0,51,60,2
0,51,0,5
0,67,0,4
0,51,107,0
0,68,97,2
0,51,0,1
0,63,0,10
0,67,0,0
0,70,0,0
0,36,0,0
0,60,62,1
0,63,74,0
0,68,69,0
0,29,99,0
0,68,0,94
0,63,0,0
0,60,0,0
0,63,70,2
0,60,61,0
0,68,65,0
0,65,65,0
0,44,69,0
0,44,0,1
0,68,0,42
0,65,81,4
0,65,0,19
0,67,98,3
0,67,0,20
0,67,76,3
0,63,0,2
0,68,0,0
0,60,0,0
0,65,0,0
0,29,0,1
0,29,103,1
0,60,61,0
0,65,61,0
0,63,61,0
0,68,61,0
0,68,87,1
0,67,0,3
0,68,0,40
0,67,88,4
0,67,0,22
0,67,95,7
0,68,0,17
0,63,0,0
0,65,0,0
0,60,0,0
0,68,61,2
0,44,67,0
0,63,95,0
0,65,61,0
0,60,61,0
0,63,61,0
0,44,0,1
0,63,0,4
0,67,0,2
0,65,87,3
0,60,78,23
0,60,0,10
0,65,0,6
0,56,64,8
0,65,87,0
0,56,0,20
0,65,0,2
0,68,0,0
0,63,0,0
0,60,0,0
0,29,0,1
0,60,77,1
0,65,80,0
0,38,99,0
0,55,77,0
0,60,80,1
0,62,60,1
0,65,0,84
0,60,0,8
0,65,0,0
0,44,64,2
0,65,76,0
0,60,77,0
0,44,0,1
0,70,98,0
0,70,0,38
0,68,95,9
0,68,0,23
0,67,95,2
0,62,0,8
0,60,0,3
0,55,0,2
0,60,0,8
0,65,0,0
0,38,0,1
0,65,79,1
0,60,77,0
0,31,100,0
0,62,80,0
0,55,71,2
0,60,81,1
0,62,68,1
0,67,0,43
0,65,82,1
0,65,0,20
0,65,95,6
0,62,0,8
0,55,0,2
0,60,0,3
0,62,0,7
0,65,0,0
0,60,0,0
0,55,70,2
0,44,65,0
0,59,73,0
0,62,64,0
0,44,0,1
0,62,77,1
0,59,82,1
0,55,70,1
0,65,0,20
0,63,97,3
0,63,0,36
0,66,78,10
0,67,88,3
0,66,0,4
0,55,0,7
0,59,0,0
0,62,0,6
0,59,0,1
0,55,0,0
0,31,0,1
0,62,0,1
0,58,75,0
0,36,101,0
0,63,79,0
0,55,68,0
0,58,80,1
0,55,60,1
0,55,0,72
0,58,0,1
0,44,68,21
0,58,117,0
0,44,0,1
0,67,0,14
0,58,0,4
0,63,0,13
0,58,0,0
0,55,77,5
0,58,79,0
0,63,112,1
0,63,0,17
0,58,0,1
0,55,0,4
0,36,0,0
0,63,91,1
0,34,110,0
0,56,103,0
0,62,91,0
0,62,0,19
0,63,0,0
0,55,0,4
0,56,0,0
0,34,0,1
0,55,59,0
0,32,115,0
0,55,69,0
0,58,82,0
0,63,82,0
0,60,76,0
0,60,82,1
0,60,0,44
0,62,83,4
0,55,0,1
0,62,0,19
0,63,95,4
0,58,0,18
0,44,60,5
0,67,103,0
0,44,0,1
0,63,0,15
0,65,97,6
0,63,111,2
0,55,0,19
0,63,0,0
0,60,0,0
0,68,97,5
0,60,72,0
0,68,0,19
0,65,0,1
0,56,59,4
0,70,102,0
0,62,90,1
0,70,0,18
0,56,0,0
0,63,0,3
0,67,0,1
0,32,0,0
0,60,0,0
0,58,84,0
0,72,77,0
0,34,102,0
0,68,82,0
0,44,73,72
0,44,0,1
0,34,0,23
0,46,112,0
0,37,113,0
0,37,0,1
0,68,0,22
0,72,0,0
0,82,99,1
0,62,0,3
0,82,0,16
0,77,80,5
0,70,95,0
0,46,42,0
0,60,95,0
0,46,0,1
0,77,0,3
0,79,89,2
0,70,0,3
0,60,0,1
0,55,87,2
0,75,80,0
0,79,0,1
0,75,0,1
0,55,0,1
0,58,0,0
0,58,86,0
0,53,86,0
0,46,0,0
0,79,87,0
0,70,84,0
0,42,54,0
0,46,63,0
0,51,86,0
0,35,61,0
0,55,86,0
0,58,98,0
0,79,84,0
0,39,103,0
0,70,91,0
0,79,0,1
0,35,0,0
0,70,0,0
0,46,0,0
0,42,0,0
0,51,95,23
0,51,0,5
0,51,95,0
0,42,42,0
0,42,0,1
0,51,0,4
0,51,111,0
0,51,0,6
0,79,0,11
0,70,0,0
0,39,0,4
0,67,70,1
0,65,73,0
0,51,99,0
0,37,110,0
0,42,82,0
0,70,84,0
0,42,0,1
0,37,0,0
0,69,54,23
0,69,0,1
0,58,0,20
0,69,44,3
0,55,84,0
0,42,40,0
0,42,0,1
0,69,0,0
0,70,0,18
0,65,0,0
0,67,0,0
0,55,0,2
0,51,0,2
0,67,88,1
0,56,82,0
0,69,55,0
0,30,111,0
0,58,91,0
0,35,35,0
0,35,0,1
0,69,0,0
0,30,0,9
0,58,0,1
0,67,0,0
0,51,0,2
0,35,84,3
0,58,82,0
0,58,80,0
0,55,77,0
0,42,68,0
0,62,65,0
0,50,86,0
0,31,103,0
0,65,72,0
0,42,0,1
0,35,0,0
0,56,0,0
0,58,0,2
0,46,66,4
0,46,0,1
0,65,104,1
0,42,44,17
0,69,27,0
0,48,60,0
0,48,0,1
0,69,0,0
0,42,0,0
0,65,0,23
0,69,51,0
0,51,111,0
0,69,0,1
0,63,92,1
0,51,0,1
0,55,0,2
0,62,0,0
0,65,0,0
0,58,0,0
0,53,0,1
0,50,0,1
0,31,0,2
0,55,86,0
0,58,74,1
0,63,87,0
0,55,65,0
0,51,86,0
0,42,65,0
0,36,114,0
0,37,110,0
0,37,0,1
0,42,0,0
0,63,0,16
0,67,97,4
0,42,48,22
0,69,43,0
0,69,0,1
0,42,0,0
0,67,0,17
0,69,51,1
0,69,0,1
0,68,97,2
0,58,0,16
0,55,0,0
0,63,0,0
0,55,0,1
0,58,0,0
0,51,0,1
0,55,0,0
0,36,0,2
0,56,86,0
0,63,86,0
0,58,86,1
0,60,65,0
0,60,86,0
0,35,61,0
0,68,77,0
0,29,110,0
0,46,58,0
0,42,54,0
0,63,79,0
0,42,0,1
0,35,0,0
0,46,0,4
0,51,67,19
0,51,0,5
0,51,87,19
0,42,42,0
0,42,0,1
0,51,0,4
0,51,117,19
0,51,0,5
0,68,0,17
0,63,0,0
0,60,0,0
0,60,76,2
0,42,82,0
0,37,110,0
0,63,76,0
0,68,77,0
0,37,0,1
0,42,0,0
0,68,0,11
0,69,54,12
0,69,0,1
0,65,88,16
0,42,40,2
0,69,44,0
0,69,0,1
0,42,0,0
0,65,0,17
0,29,0,3
0,69,55,2
0,29,108,0
0,51,78,0
0,35,35,0
0,67,100,0
0,35,0,1
0,69,0,0
0,51,0,1
0,29,0,3
0,67,0,14
0,63,0,3
0,68,0,0
0,60,0,0
0,68,67,2
0,29,115,0
0,42,68,0
0,35,84,0
0,63,65,0
0,60,59,0
0,35,0,1
0,42,0,0
0,67,68,3
0,68,98,3
0,67,0,2
0,68,0,34
0,42,44,5
0,67,98,0
0,69,27,0
0,69,0,1
0,42,0,0
0,67,0,4
0,69,51,4
0,46,82,0
0,69,0,1
0,67,93,3
0,46,0,3
0,60,0,15
0,63,0,0
0,68,0,0
0,42,65,2
0,51,90,0
0,60,67,0
0,63,77,0
0,68,82,0
0,37,110,0
0,37,0,1
0,42,0,0
0,51,0,15
0,67,0,4
