track,note,velocity,time
1,62,102,1144
1,55,113,0
1,53,113,0
1,58,115,0
1,43,100,0
1,53,90,4
1,62,94,4
1,55,91,0
1,58,89,0
1,50,88,176
1,53,89,4
1,50,87,4
1,53,127,28
1,55,127,4
1,62,127,0
1,58,127,0
1,50,93,104
1,48,111,96
1,55,124,32
1,52,124,0
1,36,124,4
1,58,125,0
1,62,125,0
1,62,102,20
1,58,102,4
1,52,102,0
1,55,107,0
1,52,118,4
1,55,95,4
1,58,99,4
1,62,100,8
1,55,109,4
1,52,113,0
1,58,105,0
1,50,113,192
1,55,113,24
1,62,103,0
1,58,114,4
1,53,107,0
1,43,113,4
1,55,123,8
1,62,103,0
1,53,111,0
1,58,127,0
1,43,115,8
1,53,127,4
1,55,88,4
1,50,92,108
1,55,118,8
1,62,104,0
1,53,114,0
1,58,126,0
1,50,107,104
1,48,99,96
1,62,107,16
1,52,113,0
1,58,111,0
1,55,115,0
1,36,105,4
1,52,104,4
1,55,102,4
1,55,118,8
1,52,121,0
1,58,123,0
1,62,103,0
1,36,109,0
1,55,105,4
1,52,102,4
1,55,95,4
1,53,121,32
1,58,127,0
1,62,107,0
1,38,115,0
1,34,92,200
1,63,105,0
1,55,113,0
1,58,126,4
1,39,109,0
1,55,101,4
1,58,127,4
1,55,126,0
1,63,127,0
1,55,114,4
1,58,121,0
1,63,105,0
1,46,93,180
1,55,101,4
1,58,103,0
1,65,113,0
1,60,123,4
1,38,113,4
1,62,93,20
1,50,121,4
1,53,127,0
1,58,126,0
1,50,91,4
1,53,87,4
1,58,103,4
1,50,103,0
1,46,105,96
1,63,102,20
1,60,115,0
1,55,109,0
1,58,105,0
1,36,114,8
1,55,86,4
1,43,96,8
1,63,107,0
1,55,114,0
1,58,107,0
1,48,102,4
1,60,118,0
1,55,87,4
1,65,111,0
1,55,94,0
1,58,98,0
1,63,91,0
1,46,97,0
1,60,107,4
1,65,102,4
1,55,105,0
1,63,101,0
1,58,101,0
1,60,111,4
1,46,127,8
1,55,87,4
1,65,107,0
1,55,109,0
1,58,111,0
1,63,103,4
1,60,114,0
1,46,102,4
1,55,92,4
1,65,107,4
1,55,113,0
1,60,111,0
1,58,105,0
1,63,102,0
1,41,100,108
1,65,115,4
1,60,115,4
1,63,104,0
1,57,115,0
1,45,111,0
1,53,101,188
1,57,93,4
1,60,114,4
1,45,102,4
1,65,94,4
1,57,115,0
1,60,114,0
1,45,88,4
1,57,89,4
1,45,96,0
1,57,114,4
1,65,100,0
1,60,92,4
1,57,93,4
1,57,107,0
1,65,118,4
1,60,113,0
1,45,105,4
1,57,93,4
1,67,104,16
1,57,118,0
1,60,123,4
1,69,103,20
1,60,103,0
1,57,100,0
1,65,114,0
1,45,102,12
1,57,104,4
1,60,98,4
1,45,99,4
1,65,114,4
1,57,109,0
1,60,91,4
1,57,90,4
1,60,114,0
1,69,111,0
1,57,109,0
1,45,105,4
1,65,82,4
1,57,87,4
1,60,114,4
1,57,105,0
1,65,118,0
1,69,114,0
1,45,98,4
1,60,107,4
1,67,109,0
1,65,105,4
1,60,101,4
1,43,115,32
1,58,123,4
1,65,109,0
1,55,109,0
1,62,121,0
1,55,81,4
1,58,118,4
1,55,81,4
1,58,121,4
1,62,111,0
1,55,102,0
1,65,98,0
1,55,126,4
1,58,88,4
1,60,99,96
1,58,96,16
1,65,102,0
1,62,113,0
1,55,99,0
1,58,87,4
1,55,87,4
1,48,115,24
1,55,107,0
1,58,127,0
1,65,107,0
1,62,114,0
1,55,89,4
1,58,127,4
1,48,123,20
1,55,113,0
1,58,127,0
1,65,115,0
1,62,127,0
1,55,109,4
1,58,120,4
1,48,111,4
1,57,127,84
1,65,118,0
1,60,127,0
1,55,115,0
1,38,123,176
1,65,113,12
1,55,113,0
1,58,113,0
1,62,113,0
1,31,113,8
1,55,89,4
1,58,126,4
1,31,104,0
1,55,104,4
1,53,104,0
1,58,104,0
1,62,104,0
1,55,127,4
1,58,113,4
1,60,127,96
1,62,114,4
1,58,127,4
1,55,110,4
1,36,123,84
1,58,118,8
1,65,107,0
1,55,105,0
1,62,118,0
1,60,114,4
1,55,91,4
1,58,127,4
1,55,111,20
1,58,126,0
1,62,115,0
1,65,107,0
1,36,127,4
1,55,115,4
1,58,127,4
1,60,126,100
1,62,109,32
1,58,127,0
1,53,127,0
1,38,92,0
1,50,111,100
1,38,102,4
1,63,114,0
1,58,127,0
1,55,114,0
1,39,127,12
1,51,88,276
1,58,127,4
1,63,127,0
1,55,114,0
1,55,92,4
1,58,88,0
1,63,96,0
1,51,118,4
1,58,92,4
1,63,89,0
1,46,113,8
1,58,97,12
1,65,111,0
1,60,126,0
1,38,114,4
1,62,99,12
1,53,86,172
1,58,127,4
1,50,104,32
1,53,89,96
1,62,114,28
1,53,107,0
1,58,109,0
1,46,91,92
1,63,107,16
1,58,103,0
1,55,102,0
1,60,114,0
1,36,118,8
1,43,102,180
1,63,104,4
1,55,103,0
1,58,105,0
1,60,111,0
1,48,101,92
1,55,86,4
1,65,99,4
1,55,90,0
1,60,95,0
1,58,92,0
1,46,88,0
1,55,114,16
1,58,127,0
1,65,118,0
1,60,127,0
1,46,123,8
1,55,87,4
1,55,109,4
1,58,127,0
1,65,105,0
1,60,126,0
1,46,118,4
1,55,87,4
1,55,111,4
1,58,127,0
1,65,99,0
1,60,113,0
1,41,101,108
1,57,127,4
1,65,121,0
1,55,121,0
1,60,126,0
1,45,111,8
1,60,123,4
1,57,113,0
1,65,105,0
1,33,103,0
1,45,101,4
1,57,91,4
1,65,113,4
1,60,127,0
1,57,121,0
1,65,121,20
1,57,127,0
1,60,127,0
1,31,104,4
1,43,102,0
1,57,80,4
1,65,107,4
1,60,127,0
1,57,126,0
1,31,103,4
1,43,104,0
1,57,93,4
1,65,118,4
1,57,121,0
1,60,127,0
1,65,107,8
1,63,127,4
1,60,127,0
1,57,127,0
1,29,105,0
1,41,111,0
1,57,92,4
1,60,118,4
1,63,114,0
1,57,118,0
1,65,104,0
1,41,114,4
1,29,115,0
1,57,102,4
1,60,99,4
1,63,126,4
1,57,123,0
1,60,127,0
1,65,107,0
1,29,115,4
1,41,127,0
1,55,87,96
1,58,123,36
1,65,103,0
1,63,121,0
1,55,107,0
1,58,115,4
1,63,102,0
1,65,102,0
1,55,111,0
1,29,121,4
1,41,127,0
1,55,86,4
1,58,127,20
1,55,115,0
1,65,115,0
1,63,127,0
1,65,125,24
1,58,125,0
1,60,125,0
1,62,125,4
1,46,125,0
1,65,121,0
1,60,127,4
1,58,121,0
1,62,107,4
1,53,87,96
1,65,123,4
1,58,100,0
1,62,126,0
1,65,109,0
1,58,95,0
1,62,115,4
1,46,89,4
1,53,93,4
1,65,126,4
1,60,126,4
1,58,126,0
1,62,113,4
1,53,103,4
1,58,92,4
1,65,88,0
1,51,111,4
1,65,109,0
1,63,102,0
1,58,114,0
1,55,109,0
1,55,91,4
1,63,127,4
1,58,127,0
1,55,127,0
1,63,109,0
1,58,109,4
1,51,94,4
1,55,113,4
1,58,102,4
1,51,91,4
1,55,97,4
1,70,107,0
1,58,127,4
1,67,127,96
1,55,107,0
1,63,105,4
1,58,95,4
1,65,124,8
1,58,124,0
1,60,124,0
1,46,124,8
1,62,111,8
1,58,88,4
1,53,113,184
1,65,121,4
1,58,127,0
1,62,126,0
1,65,118,4
1,58,113,0
1,62,127,0
1,46,109,4
1,53,111,4
1,58,91,4
1,53,99,4
1,65,113,0
1,58,127,4
1,60,118,0
1,62,115,4
1,53,109,4
1,58,88,4
1,51,127,4
1,63,104,4
1,58,107,0
1,65,100,0
1,55,115,0
1,55,89,4
1,51,121,4
1,63,127,4
1,55,127,0
1,58,127,4
1,51,90,4
1,55,109,0
1,38,111,36
1,65,102,0
1,62,123,0
1,50,127,0
1,58,98,0
1,58,121,4
1,70,127,4
1,58,127,0
1,62,127,0
1,50,125,4
1,70,111,4
1,62,121,0
1,58,109,0
1,50,103,4
1,65,97,0
1,58,87,4
1,60,123,16
1,64,126,0
1,70,105,4
1,48,115,0
1,60,87,4
1,64,42,4
1,58,127,0
1,48,114,4
1,64,127,4
1,60,127,0
1,70,127,0
1,55,92,92
1,64,126,4
1,60,105,0
1,70,98,0
1,58,114,4
1,48,103,0
1,65,121,4
1,70,105,0
1,60,113,0
1,55,100,4
1,60,91,4
1,58,127,36
1,48,107,0
1,60,126,0
1,70,100,0
1,67,115,0
1,60,97,4
1,55,102,4
1,67,100,20
1,58,127,0
1,63,104,0
1,39,111,0
1,51,127,0
1,63,93,4
1,67,113,0
1,58,105,4
1,51,127,0
1,63,102,0
1,39,98,4
1,65,107,4
1,62,107,0
1,67,121,84
1,51,127,0
1,58,126,0
1,63,121,0
1,67,114,4
1,63,111,4
1,58,103,0
1,51,113,4
1,39,109,4
1,67,107,0
1,58,126,0
1,63,118,0
1,58,104,4
1,51,121,4
1,63,89,4
1,65,114,4
1,60,123,4
1,46,127,0
1,58,104,0
1,62,111,12
1,58,87,4
1,53,121,192
1,58,111,4
1,58,91,4
1,65,107,0
1,62,107,0
1,66,115,72
1,63,127,4
1,67,127,0
1,58,127,0
1,46,103,0
1,58,127,4
1,67,123,0
1,63,127,0
1,53,95,4
1,67,115,4
1,58,127,0
1,63,123,0
1,46,94,0
1,53,107,4
1,58,126,0
1,62,126,0
1,65,123,0
1,53,123,0
1,46,114,0
1,62,127,20
1,65,109,0
1,58,98,0
1,53,104,4
1,63,113,4
1,58,127,0
1,51,126,0
1,55,76,92
1,58,90,4
1,65,118,4
1,63,127,0
1,58,127,0
1,55,127,0
1,65,109,4
1,58,127,0
1,63,127,0
1,55,105,0
1,51,103,56
1,65,102,4
1,63,118,0
1,58,126,0
1,55,105,0
1,51,127,0
1,63,127,4
1,55,105,0
1,58,86,4
1,55,88,4
1,65,114,4
1,55,126,0
1,58,127,0
1,63,100,4
1,51,111,4
1,55,115,0
1,58,104,4
1,60,127,4
1,46,104,0
1,65,115,0
1,53,113,0
1,62,109,4
1,58,83,4
1,53,118,4
1,65,111,4
1,58,109,0
1,60,126,4
1,62,86,4
1,53,89,0
1,58,82,4
1,58,127,0
1,70,115,0
1,62,127,0
1,46,99,0
1,53,98,4
1,65,80,4
1,58,88,4
1,62,127,8
1,46,98,0
1,53,114,0
1,58,127,0
1,58,127,0
1,65,123,0
1,62,101,4
1,53,103,4
1,58,107,4
1,66,84,8
1,51,109,12
1,67,121,0
1,58,127,0
1,63,126,4
1,58,95,4
1,39,115,4
1,51,107,0
1,63,127,4
1,70,127,4
1,63,89,4
1,63,127,4
1,70,123,0
1,58,94,0
1,51,94,4
1,63,115,0
1,70,102,4
1,67,98,4
1,63,104,4
1,55,105,96
1,58,121,0
1,63,88,4
1,58,101,0
1,51,93,4
1,55,83,4
1,53,109,8
1,65,114,0
1,60,109,0
1,62,127,0
1,46,100,4
1,58,121,0
1,58,88,172
1,53,115,4
1,60,127,4
1,58,127,0
1,65,126,0
1,62,95,4
1,58,86,0
1,53,101,4
1,65,111,20
1,62,127,0
1,46,104,0
1,58,118,0
1,58,81,4
1,58,93,32
1,65,121,0
1,60,123,0
1,53,107,0
1,62,109,20
1,58,107,32
1,65,104,0
1,46,123,4
1,62,92,8
1,62,113,4
1,53,111,0
1,58,86,4
1,46,92,0
1,51,127,20
1,63,118,4
1,58,127,0
1,55,121,0
1,55,91,4
1,39,114,188
1,55,118,4
1,63,127,0
1,58,93,4
1,51,90,4
1,38,107,4
1,50,127,0
1,70,126,0
1,58,127,0
1,62,93,8
1,58,91,4
1,70,107,4
1,58,127,0
1,65,103,0
1,65,121,0
1,70,114,0
1,58,126,4
1,50,115,4
1,58,107,4
1,70,98,12
1,60,127,0
1,58,127,0
1,64,127,0
1,48,121,4
1,60,103,4
1,58,98,4
1,55,102,4
1,70,127,4
1,64,127,0
1,60,127,0
1,55,89,4
1,60,121,4
1,70,102,0
1,64,127,0
1,58,121,0
1,48,118,4
1,70,109,4
1,60,115,0
1,65,127,0
1,55,105,4
1,60,100,4
1,48,118,36
1,58,127,0
1,70,102,0
1,67,118,0
1,60,126,0
1,60,127,4
1,67,104,0
1,70,81,0
1,55,111,0
1,39,107,12
1,51,127,0
1,67,114,4
1,63,115,0
1,58,127,0
1,58,91,4
1,51,127,4
1,39,92,4
1,67,114,0
1,58,127,4
1,63,92,0
1,39,97,4
1,51,80,0
1,39,93,4
1,39,121,0
1,51,127,0
1,58,126,4
1,62,127,0
1,65,121,0
1,63,105,12
1,58,78,0
1,67,100,0
1,67,121,4
1,58,127,0
1,63,127,0
1,51,114,4
1,67,113,4
1,58,98,0
1,63,105,0
1,39,109,4
1,58,101,4
1,65,127,16
1,60,121,0
1,58,107,4
1,62,104,4
1,58,114,0
1,62,96,4
1,53,111,92
1,46,99,0
1,58,104,4
1,67,118,0
1,58,127,0
1,46,100,0
1,63,94,0
1,53,103,4
1,53,123,16
1,46,113,0
1,67,114,0
1,63,111,0
1,58,126,0
1,58,123,0
1,67,121,0
1,63,102,4
1,53,109,4
1,58,88,4
1,65,121,20
1,58,113,0
1,60,127,0
1,46,103,0
1,62,111,92
1,58,102,4
1,53,101,4
1,51,127,20
1,55,127,0
1,63,126,0
1,58,87,100
1,55,88,4
1,58,127,4
1,63,127,4
1,55,113,0
1,51,88,4
1,58,127,4
1,55,104,0
1,63,127,0
1,51,95,4
1,55,88,4
1,55,109,36
1,58,127,0
1,65,113,4
1,63,127,0
1,58,127,4
1,65,127,0
1,63,127,0
1,55,127,0
1,55,109,4
1,51,109,4
1,55,98,4
1,58,127,0
1,65,105,0
1,63,127,0
1,51,89,4
1,55,88,4
1,62,102,36
1,55,113,0
1,53,113,0
1,58,115,0
1,43,100,0
1,53,90,4
1,62,94,4
1,55,91,0
1,58,89,0
1,50,88,176
1,53,89,4
1,50,87,4
1,53,127,28
1,55,127,4
1,62,127,0
1,58,127,0
1,50,93,104
1,48,111,96
1,55,124,32
1,52,124,0
1,36,124,4
1,58,125,0
1,62,125,0
1,62,102,20
1,58,102,4
1,52,102,0
1,55,107,0
1,52,118,4
1,55,95,4
1,58,99,4
1,62,100,8
1,55,109,4
1,52,113,0
1,58,105,0
1,50,113,192
1,55,113,24
1,62,103,0
1,58,114,4
1,53,107,0
1,43,113,4
1,55,123,8
1,62,103,0
1,53,111,0
1,58,127,0
1,43,115,8
1,53,127,4
1,55,88,4
1,50,92,108
1,55,118,8
1,62,104,0
1,53,114,0
1,58,126,0
1,50,107,104
1,48,99,96
1,62,107,16
1,52,113,0
1,58,111,0
1,55,115,0
1,36,105,4
1,52,104,4
1,55,102,4
1,55,118,8
1,52,121,0
1,58,123,0
1,62,103,0
1,36,109,0
1,55,105,4
1,52,102,4
1,55,95,4
1,53,121,32
1,58,127,0
1,62,107,0
1,38,115,0
1,34,92,200
1,63,105,0
1,55,113,0
1,58,126,4
1,39,109,0
1,55,101,4
1,58,127,4
1,55,126,0
1,63,127,0
1,55,114,4
1,58,121,0
1,63,105,0
1,46,93,180
1,55,101,4
1,58,103,0
1,65,113,0
1,60,123,4
1,38,113,4
1,62,93,20
1,50,121,4
1,53,127,0
1,58,126,0
1,50,91,4
1,53,87,4
1,58,103,4
1,50,103,0
1,46,105,96
1,63,102,20
1,60,115,0
1,55,109,0
1,58,105,0
1,36,114,8
1,55,86,4
1,43,96,8
1,63,107,0
1,55,114,0
1,58,107,0
1,48,102,4
1,60,118,0
1,55,87,4
1,65,111,0
1,55,94,0
1,58,98,0
1,63,91,0
1,46,97,0
1,60,107,4
1,65,102,4
1,55,105,0
1,63,101,0
1,58,101,0
1,60,111,4
1,46,127,8
1,55,87,4
1,65,107,0
1,55,109,0
1,58,111,0
1,63,103,4
1,60,114,0
1,46,102,4
1,55,92,4
1,65,107,4
1,55,113,0
1,60,111,0
1,58,105,0
1,63,102,0
1,41,100,108
1,65,115,4
1,60,115,4
1,63,104,0
1,57,115,0
1,45,111,0
1,53,101,188
1,57,93,4
