track,note,velocity,time
2,31,79,24960
2,31,64,70
2,31,64,40
2,31,66,80
2,31,77,50
2,31,75,30
2,35,73,66
2,35,63,50
2,28,70,50
2,28,67,46
2,28,70,16
2,28,73,56
2,28,73,46
2,28,70,46
2,26,79,66
2,26,71,40
2,31,79,26
2,31,59,46
2,31,75,60
2,31,57,50
2,31,73,70
2,31,63,30
2,35,79,60
2,35,66,60
2,28,77,40
2,28,66,66
2,28,75,70
2,28,62,86
2,28,71,46
2,28,63,80
2,26,71,56
2,26,68,40
2,31,75,20
2,31,61,46
2,31,73,46
2,31,75,40
2,31,71,60
2,31,61,50
2,35,75,70
2,35,63,66
2,28,68,50
2,28,59,60
2,28,73,40
2,28,68,56
2,28,73,40
2,28,60,46
2,26,71,50
2,26,75,60
2,31,79,16
2,31,63,66
2,31,75,40
2,31,62,50
2,31,73,26
2,31,71,56
2,35,81,46
2,35,64,66
2,28,75,30
2,31,63,16
2,31,59,120
2,31,61,26
2,31,62,70
2,31,68,16
2,31,55,70
2,31,68,30
2,31,59,70
2,28,79,40
2,28,59,86
2,28,67,10
2,28,59,80
2,28,71,10
2,28,56,30
2,28,66,40
2,28,68,56
2,31,71,30
2,31,59,50
2,31,59,30
2,31,58,66
2,31,61,36
2,31,58,66
2,31,67,40
2,31,59,70
2,28,71,36
2,28,64,60
2,28,60,46
2,28,67,56
2,28,68,40
2,28,61,86
2,31,67,46
2,31,55,70
2,31,57,36
2,31,59,70
2,31,66,56
2,31,57,46
2,31,70,40
2,31,57,50
2,28,63,30
2,28,57,80
2,28,71,30
2,28,67,50
2,28,71,46
2,28,58,40
2,28,68,46
2,28,59,36
2,33,60,40
2,33,54,60
2,33,59,26
2,33,62,56
2,33,66,40
2,33,56,56
2,33,63,50
2,33,62,50
2,36,66,40
2,36,52,36
2,36,67,46
2,36,59,70
2,36,63,46
2,36,53,80
2,36,68,40
2,36,60,50
2,31,63,100
2,31,59,120
2,31,61,26
2,31,62,70
2,31,68,16
2,31,55,70
2,31,68,30
2,31,59,70
2,28,79,40
2,28,59,86
2,28,67,10
2,28,59,80
2,28,71,10
2,28,56,30
2,28,66,40
2,28,68,56
2,31,71,30
2,31,59,50
2,31,59,30
2,31,58,66
2,31,61,36
2,31,58,66
2,31,67,40
2,31,59,70
2,28,71,36
2,28,64,60
2,28,60,46
2,28,67,56
2,28,68,40
2,28,61,86
2,31,67,46
2,31,55,70
2,31,57,36
2,31,59,70
2,31,66,56
2,31,57,46
2,31,70,40
2,31,57,50
2,28,63,30
2,28,57,80
2,28,71,30
2,28,67,50
2,28,71,46
2,28,58,40
2,28,68,46
2,28,59,36
2,33,60,40
2,33,54,60
2,33,59,26
2,33,62,56
2,33,66,40
2,33,56,56
2,33,63,50
2,33,62,50
2,36,66,40
2,36,52,36
2,36,67,46
2,36,59,70
2,36,63,46
2,36,53,80
2,36,68,40
2,36,60,50
2,31,79,100
2,31,64,70
2,31,64,40
2,31,66,80
2,31,77,50
2,31,75,30
2,35,73,66
2,35,63,50
2,28,70,50
2,28,67,46
2,28,70,16
2,28,73,56
2,28,73,46
2,28,70,46
2,33,79,66
2,33,71,40
2,31,79,26
2,31,64,70
2,31,64,40
2,31,66,80
2,31,77,50
2,31,75,30
2,35,73,66
2,35,63,50
2,28,70,50
2,28,67,46
2,28,70,16
2,28,73,56
2,28,73,46
2,28,70,46
2,33,79,66
2,33,71,40
2,31,79,26
2,31,64,70
2,31,64,40
2,31,66,80
2,31,77,50
2,31,75,30
2,35,73,66
2,35,63,50
2,28,70,50
2,28,67,46
2,28,70,16
2,28,73,56
2,28,73,46
2,28,70,46
2,33,79,66
2,33,71,40
2,31,79,26
2,31,64,70
2,31,64,40
2,31,66,80
2,31,77,50
2,31,75,30
2,35,73,66
2,35,63,50
2,28,70,50
2,28,67,46
2,28,70,16
2,28,73,56
2,28,73,46
2,28,70,46
2,35,79,66
2,35,71,40
2,38,97,26
2,38,68,50
2,38,83,50
2,38,73,50
2,38,81,70
2,38,77,60
2,38,79,26
2,37,80,16
2,36,88,60
2,36,79,46
2,36,75,30
2,36,68,50
2,36,77,50
2,36,77,40
2,36,73,76
2,36,68,50
2,36,91,30
2,31,79,1626
2,31,64,70
2,31,64,40
2,31,66,80
2,31,77,50
2,31,75,30
2,35,73,66
2,35,63,50
2,28,70,50
2,28,67,46
2,28,70,16
2,28,73,56
2,28,73,46
2,28,70,46
2,26,79,66
2,26,71,40
2,31,79,26
2,31,59,46
2,31,75,60
2,31,57,50
2,31,73,70
2,31,63,30
2,35,79,60
2,35,66,60
2,28,77,40
2,28,66,66
2,28,75,70
2,28,62,86
2,28,71,46
2,28,63,80
2,26,71,56
2,26,68,40
2,31,75,20
2,31,61,46
2,31,73,46
2,31,75,40
2,31,71,60
2,31,61,50
2,35,75,70
2,35,63,66
2,28,68,50
2,28,59,60
2,28,73,40
2,28,68,56
2,28,73,40
2,28,60,46
2,26,71,50
2,26,75,60
2,31,79,16
2,31,63,66
2,31,75,40
2,31,62,50
2,31,73,26
2,31,71,56
2,35,81,46
2,35,64,66
2,28,108,60
2,40,90,1100
2,38,90,0
2,35,90,0
2,31,63,0
2,31,59,120
2,31,61,26
2,31,62,70
2,31,68,16
2,31,55,70
2,31,68,30
2,31,59,70
2,28,79,40
2,28,59,86
2,28,67,10
2,28,59,80
2,28,71,10
2,28,56,30
2,28,66,40
2,28,68,56
2,31,71,30
2,31,59,50
2,31,59,30
2,31,58,66
2,31,61,36
2,31,58,66
2,31,67,40
2,31,59,70
2,28,71,36
2,28,64,60
2,28,60,46
2,28,67,56
2,28,68,40
2,28,61,86
2,31,67,46
2,31,55,70
2,31,57,36
2,31,59,70
2,31,66,56
2,31,57,46
2,31,70,40
2,31,57,50
2,28,63,30
2,28,57,80
2,28,71,30
2,28,67,50
2,28,71,46
2,28,58,40
2,28,68,46
2,30,59,36
2,31,91,40
2,30,87,1424
2,28,101,460
2,31,63,30
2,31,59,120
2,31,61,26
2,31,62,70
2,31,68,16
2,31,55,70
2,31,68,30
2,31,59,70
2,28,79,40
2,28,59,86
2,28,67,10
2,28,59,80
2,28,71,10
2,28,56,30
2,28,66,40
2,28,68,56
2,31,71,30
2,31,59,50
2,31,59,30
2,31,58,66
2,31,61,36
2,31,58,66
2,31,67,40
2,31,59,70
2,28,71,36
2,28,64,60
2,28,60,46
2,28,67,56
2,28,68,40
2,28,61,86
2,31,67,46
2,31,55,70
2,31,57,36
2,31,59,70
2,31,66,56
2,31,57,46
2,31,70,40
2,31,57,50
2,28,63,30
2,28,57,80
2,28,71,30
2,28,67,50
2,28,71,46
2,28,58,40
2,28,68,46
2,28,59,36
2,33,60,40
2,33,54,60
2,33,59,26
2,33,62,56
2,33,66,40
2,33,56,56
2,33,63,50
2,33,62,50
2,36,66,40
2,36,52,36
2,36,67,46
2,36,59,70
2,36,63,46
2,36,53,80
2,36,68,40
2,36,60,50
2,31,79,100
2,31,64,70
2,31,64,40
2,31,66,80
2,31,77,50
2,31,75,30
2,35,73,66
2,35,63,50
2,28,70,50
2,28,67,46
2,28,70,16
2,28,73,56
2,28,73,46
2,28,70,46
2,33,79,66
2,33,71,40
2,31,79,26
2,31,64,70
2,31,64,40
2,31,66,80
2,31,77,50
2,31,75,30
2,35,73,66
2,35,63,50
2,28,70,50
2,28,67,46
2,28,70,16
2,28,73,56
2,28,73,46
2,28,70,46
2,33,79,66
2,33,71,40
2,31,79,26
2,31,64,70
2,31,64,40
2,31,66,80
2,31,77,50
2,31,75,30
2,35,73,66
2,35,63,50
2,28,70,50
2,28,67,46
2,28,70,16
2,28,73,56
2,28,73,46
2,28,70,46
2,33,79,66
2,33,71,40
2,31,79,26
2,31,64,70
2,31,64,40
2,31,66,80
2,31,77,50
2,31,75,30
2,35,73,66
2,35,63,50
2,28,70,50
2,28,67,46
2,28,70,16
2,28,73,56
2,28,73,46
2,28,70,46
2,35,79,66
2,35,71,40
2,38,97,26
2,38,68,50
2,38,83,50
2,38,73,50
2,38,81,70
2,38,77,60
2,38,79,26
2,37,80,16
2,36,88,60
2,36,79,46
2,36,75,30
2,36,68,50
2,36,77,50
2,36,77,40
2,36,73,76
2,36,68,50
2,36,91,30
2,31,79,1626
2,31,64,70
2,31,64,40
2,31,66,80
2,31,77,50
2,31,75,30
2,35,73,66
2,35,63,50
2,28,70,50
2,28,67,46
2,28,70,16
2,28,73,56
2,28,73,46
2,28,70,46
2,26,79,66
2,26,71,40
2,31,79,26
2,31,59,46
2,31,75,60
2,31,57,50
2,31,73,70
2,31,63,30
2,35,79,60
2,35,66,60
2,28,77,40
2,28,66,66
2,28,75,70
2,28,62,86
2,28,71,46
2,28,63,80
2,26,71,56
2,26,68,40
2,31,75,20
2,31,61,46
2,31,73,46
2,31,75,40
2,31,71,60
2,31,61,50
2,35,75,70
2,35,63,66
2,28,68,50
2,28,59,60
2,28,73,40
2,28,68,56
2,28,73,40
2,28,60,46
2,26,71,50
2,26,75,60
2,31,79,16
2,31,63,66
2,31,75,40
2,31,62,50
2,31,73,26
2,31,71,56
2,35,81,46
2,35,64,66
2,28,75,30
2,31,79,16
2,31,64,70
2,31,64,40
2,31,66,80
2,31,77,50
2,31,75,30
2,35,73,66
2,35,63,50
2,28,70,50
2,28,67,46
2,28,70,16
2,28,73,56
2,28,73,46
2,28,70,46
2,26,79,66
2,26,71,40
2,31,79,26
2,31,64,70
2,31,64,40
2,31,66,80
2,31,77,50
2,31,75,30
2,35,73,66
2,35,63,50
2,28,70,50
2,28,67,46
2,28,70,16
2,28,73,56
2,28,73,46
2,28,70,46
2,26,79,66
2,26,71,40
2,31,79,26
2,31,64,70
2,31,64,40
2,31,66,80
2,31,77,50
2,31,75,30
2,35,73,66
2,35,63,50
2,28,70,50
2,28,67,46
2,28,70,16
2,28,73,56
2,28,73,46
2,28,70,46
2,26,79,66
2,26,71,40
2,31,79,26
2,31,64,70
2,31,64,40
2,31,66,80
2,31,77,50
2,31,75,30
2,35,73,66
2,35,63,50
2,28,70,50
2,28,67,46
2,28,70,16
2,28,73,56
2,28,73,46
2,28,70,46
2,26,79,66
2,26,71,40
2,31,79,26
2,31,64,70
2,31,64,40
2,31,66,80
2,31,77,50
2,31,75,30
2,35,73,66
2,35,63,50
2,28,70,50
2,28,67,46
2,28,70,16
2,28,73,56
2,28,73,46
2,28,70,46
2,26,79,66
2,26,71,40
2,31,79,26
2,31,64,70
2,31,64,40
2,31,66,80
2,31,77,50
2,31,75,30
2,35,73,66
2,35,63,50
2,28,70,50
2,28,67,46
2,28,70,16
2,28,73,56
2,28,73,46
2,28,70,46
2,26,79,66
2,26,71,40
2,31,79,26
2,31,64,70
2,31,64,40
2,31,66,80
2,31,77,50
2,31,75,30
2,35,73,66
2,35,63,50
2,28,70,50
2,28,67,46
2,28,70,16
2,28,73,56
2,28,73,46
2,28,70,46
2,26,79,66
2,26,71,40
2,31,79,26
2,31,64,70
2,31,64,40
2,31,66,80
2,31,77,50
2,31,75,30
2,35,73,66
2,35,63,50
2,28,97,50
3,55,70,0
3,50,70,0
3,47,60,0
3,43,52,0
3,55,59,160
3,50,48,0
3,47,53,0
3,43,51,0
3,55,67,116
3,43,52,0
3,50,68,0
3,47,59,0
3,55,67,166
3,50,51,0
3,47,53,0
3,43,51,0
3,55,64,136
3,50,51,0
3,47,53,0
3,43,47,0
3,55,64,156
3,50,52,0
3,55,71,136
3,52,77,0
3,47,73,0
3,40,61,0
3,55,57,116
3,47,62,0
3,40,54,0
3,52,61,0
3,55,59,126
3,52,62,0
3,40,56,0
3,47,62,0
3,55,64,220
3,47,64,0
3,40,59,0
3,52,61,0
3,55,64,146
3,47,59,0
3,40,53,0
3,52,61,0
3,55,66,150
3,52,64,0
3,40,54,0
3,47,66,0
3,55,70,50
3,50,70,0
3,47,60,0
3,43,52,0
3,55,59,160
3,50,48,0
3,47,53,0
3,43,51,0
3,55,67,116
3,43,52,0
3,50,68,0
3,47,59,0
3,55,67,166
3,50,51,0
3,47,53,0
3,43,51,0
3,55,64,136
3,50,51,0
3,47,53,0
3,43,47,0
3,55,64,156
3,50,52,0
3,55,71,136
3,52,77,0
3,47,73,0
3,40,61,0
3,55,57,116
3,47,62,0
3,40,54,0
3,52,61,0
3,55,59,126
3,52,62,0
3,40,56,0
3,47,62,0
3,55,64,220
3,47,64,0
3,40,59,0
3,52,61,0
3,55,64,146
3,47,59,0
3,40,53,0
3,52,61,0
3,55,66,150
3,52,64,0
3,40,54,0
3,47,66,0
3,55,70,50
3,50,70,0
3,47,60,0
3,43,52,0
3,55,59,160
3,50,48,0
3,47,53,0
3,43,51,0
3,55,67,116
3,43,52,0
3,50,68,0
3,47,59,0
3,55,67,166
3,50,51,0
3,47,53,0
3,43,51,0
3,55,64,136
3,50,51,0
3,47,53,0
3,43,47,0
3,55,64,156
3,50,52,0
3,55,71,136
3,52,77,0
3,47,73,0
3,40,61,0
3,55,57,116
3,47,62,0
3,40,54,0
3,52,61,0
3,55,59,126
3,52,62,0
3,40,56,0
3,47,62,0
3,55,64,220
3,47,64,0
3,40,59,0
3,52,61,0
3,55,64,146
3,47,59,0
3,40,53,0
3,52,61,0
3,55,66,150
3,52,64,0
3,40,54,0
3,47,66,0
3,55,70,50
3,50,70,0
3,47,60,0
3,43,52,0
3,55,59,160
3,50,48,0
3,47,53,0
3,43,51,0
3,55,67,116
3,43,52,0
3,50,68,0
3,47,59,0
3,55,67,166
3,50,51,0
3,47,53,0
3,43,51,0
3,55,64,136
3,50,51,0
3,47,53,0
3,43,47,0
3,55,64,156
3,50,52,0
3,55,71,136
3,52,77,0
3,47,73,0
3,40,61,0
3,55,57,116
3,47,62,0
3,40,54,0
3,52,61,0
3,55,59,126
3,52,62,0
3,40,56,0
3,47,62,0
3,55,64,220
3,47,64,0
3,40,59,0
3,52,61,0
3,55,64,146
3,47,59,0
3,40,53,0
3,52,61,0
3,55,66,150
3,52,64,0
3,40,54,0
3,47,66,0
3,55,70,50
3,50,70,0
3,47,60,0
3,43,52,0
3,55,59,160
3,50,48,0
3,47,53,0
3,43,51,0
3,55,67,116
3,43,52,0
3,50,68,0
3,47,59,0
3,55,67,166
3,50,51,0
3,47,53,0
3,43,51,0
3,55,64,136
3,50,51,0
3,47,53,0
3,43,47,0
3,55,64,156
3,50,52,0
3,55,71,136
3,52,77,0
3,47,73,0
3,40,61,0
3,55,57,116
3,47,62,0
3,40,54,0
3,52,61,0
3,55,59,126
3,52,62,0
3,40,56,0
3,47,62,0
3,55,64,220
3,47,64,0
3,40,59,0
3,52,61,0
3,55,64,146
3,47,59,0
3,40,53,0
3,52,61,0
3,55,66,150
3,52,64,0
3,40,54,0
3,47,66,0
3,57,68,50
3,50,83,0
3,50,71,130
3,57,62,0
3,57,64,136
3,50,79,0
3,57,70,396
3,50,77,0
3,57,61,170
3,50,70,0
3,57,62,170
3,50,70,0
3,55,71,176
3,48,77,0
3,52,66,0
3,55,62,166
3,48,70,0
3,52,55,0
3,55,71,136
3,48,73,0
3,52,59,0
3,55,67,396
3,48,71,0
3,52,49,0
3,55,68,166
3,48,61,0
3,52,55,0
3,55,60,170
3,48,59,0
3,52,50,0
3,55,79,190
3,48,94,0
3,52,70,0
3,55,70,1780
3,50,70,0
3,47,60,0
3,43,52,0
3,55,59,160
3,50,48,0
3,47,53,0
3,43,51,0
3,55,67,116
3,43,52,0
3,50,68,0
3,47,59,0
3,55,67,166
3,50,51,0
3,47,53,0
3,43,51,0
3,55,64,136
3,50,51,0
3,47,53,0
3,43,47,0
3,55,64,156
3,50,52,0
3,55,71,136
3,52,77,0
3,47,73,0
3,40,61,0
3,55,57,116
3,47,62,0
3,40,54,0
3,52,61,0
3,55,59,126
3,52,62,0
3,40,56,0
3,47,62,0
3,55,64,220
3,47,64,0
3,40,59,0
3,52,61,0
3,55,64,146
3,47,59,0
3,40,53,0
3,52,61,0
3,55,66,150
3,52,64,0
3,40,54,0
