track,note,velocity,time
1,35,105,12630
1,35,105,96
1,35,104,76
1,35,104,48
1,35,104,192
1,31,104,36
1,31,104,136
1,31,104,104
1,31,104,74
1,31,103,186
1,33,103,56
1,33,103,192
1,33,103,110
1,33,103,106
1,33,103,186
1,33,103,44
1,33,102,160
1,33,102,118
1,33,102,74
1,33,102,220
1,35,105,68
1,35,105,96
1,35,104,76
1,35,104,48
1,35,104,192
1,31,104,36
1,31,104,136
1,31,104,104
1,31,104,74
1,31,103,186
1,33,103,56
1,33,103,192
1,33,103,110
1,33,103,106
1,33,103,186
1,33,103,44
1,33,102,160
1,33,102,118
1,33,102,74
1,33,102,220
1,23,117,68
1,23,113,156
1,26,117,140
1,26,106,20
1,26,117,170
1,30,115,42
1,30,115,182
1,36,105,150
1,36,91,40
1,36,105,46
1,23,117,26
1,23,113,156
1,26,117,140
1,26,106,20
1,26,117,170
1,30,115,42
1,30,115,182
1,36,105,150
1,36,91,30
1,36,105,46
1,23,117,34
1,23,113,156
1,26,117,140
1,26,106,20
1,26,117,170
1,30,115,42
1,30,115,182
1,36,105,150
1,36,91,40
1,36,105,46
1,23,117,26
1,23,113,156
1,26,117,140
1,26,106,20
1,26,117,170
1,30,115,42
1,30,115,182
1,36,105,150
1,36,91,30
1,36,105,46
1,23,117,34
1,23,113,156
1,26,117,140
1,26,106,20
1,26,117,170
1,30,115,42
1,30,115,182
1,36,105,150
1,36,91,40
1,36,105,46
1,23,117,26
1,23,113,156
1,26,117,140
1,26,106,20
1,26,117,170
1,30,115,42
1,30,115,182
1,36,105,150
1,36,91,30
1,36,105,46
1,35,105,34
1,35,105,96
1,35,104,76
1,35,104,48
1,35,104,192
1,31,104,36
1,31,104,136
1,31,104,104
1,31,104,74
1,31,103,186
1,33,103,56
1,33,103,192
1,33,103,110
1,33,103,106
1,33,103,186
1,33,103,44
1,33,102,160
1,33,102,118
1,33,102,74
1,33,102,220
1,35,105,68
1,35,105,96
1,35,104,76
1,35,104,48
1,35,104,192
1,31,104,36
1,31,104,136
1,31,104,104
1,31,104,74
1,31,103,186
1,33,103,56
1,33,103,192
1,33,103,110
1,33,103,106
1,33,103,186
1,33,103,44
1,33,102,160
1,33,102,118
1,33,102,74
1,33,102,220
1,30,105,68
1,30,105,96
1,30,104,76
1,30,104,42
1,30,96,30
1,30,104,46
1,29,105,36
1,29,105,96
1,29,104,76
1,29,104,42
1,29,96,30
1,29,104,46
1,28,105,36
1,28,105,96
1,28,104,76
1,28,104,42
1,28,96,30
1,28,104,46
1,27,105,36
1,27,105,96
1,27,104,76
1,27,104,42
1,27,96,30
1,27,104,46
1,26,105,36
1,26,105,96
1,26,104,76
1,26,104,42
1,26,96,30
1,26,104,46
1,33,105,36
1,33,105,96
1,33,104,76
1,33,104,42
1,33,96,30
1,33,104,46
1,23,109,36
1,23,109,96
1,23,108,76
1,23,108,42
1,23,100,30
1,23,108,46
1,33,105,36
1,33,105,96
1,33,104,76
1,33,104,42
1,33,96,30
1,33,104,46
1,23,117,36
1,23,113,156
1,26,117,140
1,26,106,20
1,26,117,170
1,30,115,42
1,30,115,182
1,36,105,150
1,36,91,40
1,36,105,46
1,23,117,26
1,23,113,156
1,26,117,140
1,26,106,20
1,26,117,170
1,30,115,42
1,30,115,182
1,36,105,150
1,36,91,30
1,36,105,46
1,23,117,34
1,23,113,156
1,26,117,140
1,26,106,20
1,26,117,170
1,30,115,42
1,30,115,182
1,36,105,150
1,36,91,40
1,36,105,46
1,23,117,26
1,23,113,156
1,26,117,140
1,26,106,20
1,26,117,170
1,30,115,42
1,30,115,182
1,36,105,150
1,36,91,30
1,36,105,46
1,35,105,34
1,35,105,96
1,35,104,76
1,35,104,48
1,35,104,192
1,31,104,36
1,31,104,136
1,31,104,104
1,31,104,74
1,31,103,186
1,33,103,56
1,33,103,192
1,33,103,110
1,33,103,106
1,33,103,186
1,33,103,44
1,33,102,160
1,33,102,118
1,33,102,74
1,33,102,220
1,35,105,68
1,35,105,96
1,35,104,76
1,35,104,48
1,35,104,192
1,31,104,36
1,31,104,136
1,31,104,104
1,31,104,74
1,31,103,186
1,33,103,56
1,33,103,192
1,33,103,110
1,33,103,106
1,33,103,186
1,33,103,44
1,33,102,160
1,33,102,118
1,33,102,74
1,33,102,220
1,30,105,68
1,30,105,96
1,30,104,76
1,30,104,42
1,30,96,30
1,30,104,46
1,29,105,36
1,29,105,96
1,29,104,76
1,29,104,42
1,29,96,30
1,29,104,46
1,28,105,36
1,28,105,96
1,28,104,76
1,28,104,42
1,28,96,30
1,28,104,46
1,27,105,36
1,27,105,96
1,27,104,76
1,27,104,42
1,27,96,30
1,27,104,46
1,26,105,36
1,26,105,96
1,26,104,76
1,26,104,42
1,26,96,30
1,26,104,46
1,33,105,36
1,33,105,96
1,33,104,76
1,33,104,42
1,33,96,30
1,33,104,46
1,23,109,36
1,23,109,96
1,23,108,76
1,23,108,42
1,23,100,30
1,23,108,46
1,33,105,36
1,33,105,96
1,33,104,76
1,33,104,42
1,33,96,30
1,33,104,46
1,23,117,36
1,23,113,156
1,26,117,140
1,26,106,20
1,26,117,170
1,30,115,42
1,30,115,182
1,36,105,150
1,36,91,40
1,36,105,46
1,23,117,26
1,23,113,156
1,26,117,140
1,26,106,20
1,26,117,170
1,30,115,42
1,30,115,182
1,36,105,150
1,36,91,30
1,36,105,46
1,23,117,34
1,23,113,156
1,26,117,140
1,26,106,20
1,26,117,170
1,30,115,42
1,30,115,182
1,36,105,150
1,36,91,40
1,36,105,46
1,23,117,26
1,23,113,156
1,26,117,140
1,26,106,20
1,26,117,170
1,30,115,42
1,30,115,182
1,36,105,150
1,36,91,30
1,36,105,46
1,23,117,34
1,23,113,156
1,26,117,140
1,26,106,20
1,26,117,170
1,30,115,42
1,30,115,182
1,36,105,150
1,36,91,40
1,36,105,46
1,23,117,26
1,23,113,156
1,26,117,140
1,26,106,20
1,26,117,170
1,30,115,42
1,30,115,182
1,36,105,150
1,36,91,30
1,36,105,46
1,23,117,34
1,23,113,156
1,26,117,140
1,26,106,20
1,26,117,170
1,30,115,42
1,30,115,182
1,36,105,150
1,36,91,40
1,36,105,46
1,23,117,26
1,23,113,156
1,26,117,140
1,26,106,20
1,26,117,170
1,30,115,42
1,30,115,182
1,36,105,150
1,36,91,30
1,36,105,46
1,23,117,34
1,23,113,156
1,26,117,140
1,26,106,20
1,26,117,170
1,30,115,42
1,30,115,182
1,36,105,150
1,36,91,40
1,36,105,46
1,23,117,26
1,23,113,156
1,26,117,140
1,26,106,20
1,26,117,170
1,30,115,42
1,30,115,182
1,36,105,150
1,36,91,30
1,36,105,46
1,23,117,34
1,23,113,156
1,26,117,140
1,26,106,20
1,26,117,170
1,30,115,42
1,30,115,182
1,36,105,150
1,36,91,40
1,36,105,46
1,23,117,26
1,23,113,156
1,26,117,140
1,26,106,20
1,26,117,170
1,30,115,42
1,30,115,182
1,36,105,150
1,36,91,30
1,36,105,46
1,23,117,34
1,23,113,156
1,26,117,140
1,26,106,20
1,26,117,170
1,30,115,42
1,30,115,182
1,36,105,150
1,36,91,40
1,36,105,46
1,23,117,26
1,23,113,156
1,26,117,140
1,26,106,20
1,26,117,170
1,30,115,42
1,30,115,182
1,36,105,150
1,36,91,30
1,36,105,46
1,23,117,34
1,23,113,156
1,26,117,140
1,26,106,20
1,26,117,170
1,30,115,42
1,30,115,182
1,36,105,150
1,36,91,40
1,36,105,46
1,23,117,26
1,23,113,156
1,26,117,140
1,26,106,20
1,26,117,170
1,30,115,42
1,30,115,182
1,36,105,150
1,36,91,30
1,36,105,46
1,23,117,34
1,23,113,48
1,26,117,48
1,26,106,20
1,26,117,48
1,30,115,42
1,30,115,48
1,36,105,48
1,36,91,40
1,36,105,46
1,23,117,26
1,23,113,48
1,26,117,48
1,26,106,20
1,26,117,48
1,30,115,42
1,30,115,48
1,36,105,48
1,36,91,30
1,36,105,46
2,59,66,312
2,62,76,0
2,66,54,0
2,55,77,1536
2,57,77,6
2,62,77,0
2,64,77,0
2,64,77,6
2,61,77,0
2,59,78,6
2,62,78,0
2,66,78,0
2,55,78,94
2,59,78,0
2,57,79,6
2,64,79,0
2,64,79,6
2,61,79,768
2,59,66,6
2,62,76,0
2,66,54,0
2,55,77,1536
2,57,77,6
2,62,77,0
2,64,77,0
2,64,77,6
2,61,77,0
2,59,78,6
2,62,78,0
2,66,78,0
2,55,78,94
2,59,78,0
2,57,79,6
2,64,79,0
2,64,79,6
2,61,79,768
2,71,47,18438
2,74,57,0
2,78,35,0
2,67,58,1536
2,69,58,6
2,74,58,0
2,76,58,0
2,76,58,6
2,73,58,0
2,71,59,6
2,74,59,0
2,78,59,0
2,71,59,2
2,67,59,94
2,69,60,6
2,76,60,0
2,76,60,6
2,73,60,768
2,71,47,24582
2,74,57,0
2,78,35,0
2,67,58,1536
2,69,58,6
2,74,58,0
2,76,58,0
2,76,58,6
2,73,58,0
2,71,59,6
2,74,59,0
2,78,59,0
2,71,59,2
2,67,59,94
2,69,60,6
2,76,60,0
2,76,60,6
2,73,60,768
3,66,82,576
3,66,82,2
3,66,76,2
3,66,71,2
3,66,81,2
3,66,81,2
3,66,80,2
3,66,71,2
3,66,80,2
3,66,73,2
3,66,71,2
3,66,71,2
3,66,82,2
3,66,65,2
3,66,68,2
3,66,85,2
3,66,68,2
3,66,76,2
3,66,71,2
3,66,88,2
3,66,73,2
3,64,78,2
3,62,78,2
3,66,88,2
3,64,85,2
3,64,77,2
3,66,82,2400
3,66,64,2
3,66,82,2
3,66,59,2
3,66,71,2
3,66,64,2
3,66,64,2
3,66,81,2
3,66,64,2
3,66,80,2
3,66,80,2
3,66,73,2
3,66,71,2
3,66,82,2
3,64,59,2
3,66,85,2
3,66,76,96
3,66,71,2
3,66,79,2
3,64,71,2
3,62,68,2
3,66,88,2
3,64,85,2
3,64,77,24
3,66,82,2472
3,66,64,2
3,66,82,2
3,66,76,2
3,66,71,2
3,66,81,2
3,66,64,2
3,66,81,2
3,66,80,2
3,66,71,2
3,66,80,2
3,66,73,2
3,66,71,2
3,66,71,2
3,66,82,2
3,66,65,2
3,66,68,2
3,66,68,2
3,66,76,2
3,66,88,2
3,62,68,2
3,62,51,2
3,64,88,2
3,66,85,2
3,64,77,2
3,64,64,2112
3,66,64,2
3,66,82,2
3,66,64,2
3,66,82,2
3,66,76,2
3,66,73,2
3,66,71,2
3,66,71,2
3,66,65,2
3,66,73,2
3,66,73,2
3,66,71,2
3,66,82,2
3,64,59,2
3,66,85,2
3,66,76,96
3,66,71,2
3,64,71,2
3,62,68,2
3,64,88,2
3,66,85,2
3,64,77,2
3,64,90,1054
3,64,80,46
3,76,82,2
3,74,80,20
3,73,76,20
3,71,74,2
3,66,82,18624
3,66,82,2
3,66,76,2
3,66,71,2
3,66,81,2
3,66,81,2
3,66,80,2
3,66,71,2
3,66,80,2
3,66,73,2
3,66,71,2
3,66,71,2
3,66,82,2
3,66,65,2
3,66,68,2
3,66,85,2
3,66,68,2
3,66,76,2
3,66,71,2
3,66,88,2
3,66,73,2
3,64,78,2
3,62,78,2
3,66,88,2
3,64,85,2
3,64,77,2
3,66,82,2400
3,66,64,2
3,66,82,2
3,66,59,2
3,66,71,2
3,66,64,2
3,66,64,2
3,66,81,2
3,66,64,2
3,66,80,2
3,66,80,2
3,66,73,2
3,66,71,2
3,66,82,2
3,64,59,2
3,66,85,2
3,66,76,96
3,66,71,2
3,66,79,2
3,64,71,2
3,62,68,2
3,66,88,2
3,64,85,2
3,64,77,24
3,73,113,2280
3,66,85,402
3,69,96,2
3,71,88,2
3,71,85,34
3,69,90,2
3,73,99,2
3,66,67,364
3,69,85,52
3,66,90,2
3,69,89,2
3,76,89,16
3,73,93,2
3,74,96,32
3,73,89,2
3,74,91,2
3,73,91,2
3,74,88,2
3,73,93,2
3,74,93,22
3,73,93,2
3,74,93,2
3,73,88,2
3,74,82,10
3,78,98,2
3,73,90,20
3,71,84,54
3,69,84,2
3,73,107,6
3,66,85,358
3,69,96,2
3,71,88,2
3,71,85,34
3,69,90,2
3,73,99,2
3,66,67,364
3,69,85,52
3,66,90,2
3,69,89,2
3,76,89,26
3,73,93,2
3,76,93,118
3,76,96,96
3,73,88,10
3,73,91,2
3,69,85,14
3,69,88,42
3,66,88,14
3,66,88,48
3,76,88,50
3,76,93,70
3,74,88,2
3,73,85,2
3,71,88,2
3,66,82,12662
3,66,82,2
3,66,76,2
3,66,71,2
3,66,81,2
3,66,81,2
3,66,80,2
3,66,71,2
3,66,80,2
3,66,73,2
3,66,71,2
3,66,71,2
3,66,82,2
3,66,65,2
3,66,68,2
3,66,85,2
3,66,68,2
3,66,76,2
3,66,71,2
3,66,88,2
3,66,73,2
3,64,78,2
3,62,78,2
3,66,88,2
3,64,85,2
3,64,77,2
3,66,82,2400
3,66,64,2
3,66,82,2
3,66,59,2
3,66,71,2
3,66,64,2
3,66,64,2
3,66,81,2
3,66,64,2
3,66,80,2
3,66,80,2
3,66,73,2
3,66,71,2
3,66,82,2
3,64,59,2
3,66,85,2
3,66,76,96
3,66,71,2
3,66,79,2
3,64,71,2
3,62,68,2
3,66,88,2
3,64,85,2
3,64,77,24
3,73,113,2280
3,66,85,402
3,69,96,2
3,71,88,2
3,71,85,34
3,69,90,2
3,73,99,2
3,66,67,364
3,69,85,52
3,66,90,2
3,69,89,2
3,76,89,16
3,73,93,2
3,74,96,32
3,73,89,2
3,74,91,2
3,73,91,2
3,74,88,2
3,73,93,2
3,74,93,22
3,73,93,2
3,74,93,2
3,73,88,2
3,74,82,10
3,78,98,2
3,73,90,20
3,71,84,54
3,69,84,2
3,73,107,6
3,66,85,358
3,69,96,2
3,71,88,2
3,71,85,34
3,69,90,2
3,73,99,2
3,66,67,364
3,69,85,52
3,66,90,2
3,69,89,2
3,76,89,26
3,73,93,2
3,76,93,118
3,76,96,96
3,73,88,10
3,73,91,2
3,69,85,14
3,69,88,42
3,66,88,14
3,66,88,48
3,76,88,50
3,76,93,70
3,74,88,2
3,73,85,2
3,71,88,2
3,66,82,37238
3,66,82,2
3,66,76,2
3,66,71,2
3,66,81,2
3,66,81,2
3,66,80,2
3,66,71,2
3,66,80,2
3,66,73,2
3,66,71,2
3,66,71,2
3,66,82,2
3,66,65,2
3,66,68,2
3,66,85,2
3,66,68,2
3,66,76,2
3,66,71,2
3,66,88,2
3,66,73,2
3,64,78,2
3,62,78,2
3,66,88,2
3,64,85,2
3,64,77,2
3,66,82,2400
3,66,64,2
3,66,82,2
3,66,59,2
3,66,71,2
3,66,64,2
3,66,64,2
3,66,81,2
3,66,64,2
3,66,80,2
3,66,80,2
3,66,73,2
3,66,71,2
3,66,82,2
3,64,59,2
3,66,85,2
3,66,76,96
3,66,71,2
3,66,79,2
3,64,71,2
3,62,68,2
3,66,88,2
3,64,85,2
3,64,77,24
4,59,77,226
4,62,79,0
4,66,59,0
4,55,81,1522
4,64,63,68
4,57,72,2
4,61,78,48
4,62,89,120
4,66,49,0
4,59,70,4
4,55,84,1506
4,64,86,84
4,57,75,4
4,61,80,14
4,59,77,46
4,62,79,0
4,66,59,0
4,55,81,1532
4,57,72,82
4,64,63,0
4,61,78,48
4,62,89,4
4,66,49,0
4,59,70,2
4,55,84,1528
4,57,75,88
4,64,86,2
4,61,80,1524
4,71,66,42
4,74,66,0
4,78,66,0
4,78,66,10
4,81,66,0
4,74,66,2
4,69,66,58
4,76,66,0
4,73,66,2
4,72,67,84
4,76,67,0
4,79,67,0
4,71,67,94
4,74,67,0
4,78,67,0
4,78,67,58
4,81,67,0
4,74,67,2
4,69,68,68
4,76,68,0
4,73,68,4
4,76,68,98
4,79,68,0
4,72,68,2
4,71,66,164
4,74,66,0
4,78,66,0
4,78,66,10
4,81,66,0
4,74,66,2
4,69,66,58
4,76,66,0
4,73,66,2
4,72,67,84
4,76,67,0
4,79,67,0
4,71,67,94
4,74,67,0
4,78,67,0
4,78,67,58
4,81,67,0
4,74,67,2
