track,note,velocity,time
0,56,70,2208
0,59,70,0
0,64,70,0
0,35,110,20
0,42,74,0
0,49,79,0
0,40,100,6
0,64,87,0
0,68,79,0
0,52,101,2
0,59,101,0
0,64,101,0
0,42,34,76
0,56,70,8
0,59,70,0
0,64,70,0
0,42,47,14
0,64,87,2
0,68,80,0
0,52,93,2
0,59,93,0
0,64,93,0
0,42,29,76
0,54,70,8
0,57,70,0
0,62,70,0
0,38,100,20
0,42,74,0
0,62,85,2
0,66,87,0
0,50,97,2
0,57,97,0
0,62,97,0
0,42,31,76
0,56,70,0
0,59,70,0
0,64,70,0
0,42,54,20
0,64,87,2
0,68,87,0
0,52,93,2
0,59,93,0
0,64,93,0
0,35,81,76
0,42,40,0
0,35,110,18
0,42,74,0
0,35,97,2
0,42,33,76
0,42,59,76
0,57,82,2
0,42,40,76
0,38,100,6
0,42,74,0
0,64,79,4
0,42,32,76
0,54,70,8
0,57,70,0
0,62,70,0
0,46,56,20
0,57,75,6
0,62,92,0
0,66,82,0
0,50,101,2
0,57,101,0
0,62,101,0
0,35,110,172
0,42,72,0
0,38,100,6
0,42,30,76
0,42,44,76
0,42,42,76
0,38,100,76
0,42,73,0
0,42,34,64
0,42,43,76
0,38,91,6
0,35,81,76
0,42,37,0
0,35,110,76
0,42,74,0
0,33,97,2
0,45,111,2
0,45,99,36
0,47,106,4
0,42,32,20
0,47,94,4
0,45,104,6
0,45,92,6
0,42,44,0
0,47,103,4
0,47,91,0
0,45,100,4
0,42,35,40
0,45,88,4
0,47,94,4
0,47,82,2
0,45,89,12
0,38,100,8
0,42,74,0
0,50,106,0
0,38,94,6
0,45,77,16
0,50,94,8
0,42,32,48
0,35,104,8
0,46,54,0
0,56,70,2
0,59,70,0
0,64,70,0
0,35,110,6
0,42,69,0
0,40,100,2
0,64,87,0
0,68,79,0
0,52,101,2
0,59,101,0
0,64,101,0
0,62,119,0
0,62,107,0
0,42,25,6
0,56,70,8
0,59,70,0
0,64,70,0
0,42,54,14
0,64,87,2
0,68,80,0
0,52,93,2
0,59,93,0
0,64,93,0
0,42,32,76
0,54,70,8
0,57,70,0
0,62,70,0
0,38,100,20
0,42,72,0
0,62,85,2
0,66,87,0
0,50,97,2
0,57,97,0
0,62,97,0
0,42,37,76
0,56,70,0
0,59,70,0
0,64,70,0
0,42,56,20
0,40,91,2
0,64,87,0
0,68,87,0
0,52,93,2
0,59,93,0
0,64,93,0
0,42,43,76
0,35,110,18
0,42,69,0
0,35,97,2
0,42,24,76
0,42,43,10
0,42,21,76
0,38,100,0
0,42,74,0
0,64,79,6
0,62,109,2
0,62,97,8
0,42,31,20
0,54,70,8
0,57,70,0
0,62,70,0
0,46,61,20
0,57,75,6
0,62,92,0
0,66,82,0
0,50,101,2
0,57,101,0
0,62,101,0
0,35,91,6
0,35,110,68
0,42,73,0
0,38,100,6
0,42,30,76
0,42,54,76
0,42,39,76
0,38,100,76
0,42,74,0
0,42,31,16
0,45,99,8
0,45,87,36
0,42,59,40
0,47,90,2
0,47,78,2
0,42,34,40
0,35,110,42
0,46,58,0
0,33,97,6
0,50,100,2
0,50,88,36
0,38,64,8
0,38,60,8
0,38,61,24
0,45,100,8
0,45,88,36
0,38,78,8
0,38,73,44
0,38,100,20
0,42,72,0
0,38,94,4
0,43,113,2
0,43,101,32
0,38,47,8
0,42,41,12
0,38,42,12
0,38,81,8
0,42,47,0
0,40,103,4
0,40,91,4
0,38,62,8
0,42,53,12
0,38,52,12
0,56,70,8
0,59,70,0
0,64,70,0
0,35,110,20
0,42,72,0
0,49,79,0
0,40,100,2
0,64,87,0
0,68,79,0
0,47,70,2
0,52,101,0
0,52,91,0
0,59,101,0
0,64,101,0
0,47,58,36
0,52,79,0
0,42,28,30
0,56,70,8
0,59,70,0
0,64,70,0
0,42,61,14
0,64,87,2
0,68,80,0
0,52,93,2
0,59,93,0
0,64,93,0
0,71,98,2
0,76,89,0
0,42,38,22
0,54,70,8
0,57,70,0
0,62,70,0
0,38,100,20
0,42,74,0
0,62,85,2
0,66,87,0
0,50,97,2
0,57,97,0
0,62,97,0
0,42,31,66
0,71,85,10
0,76,88,0
0,56,70,0
0,59,70,0
0,64,70,0
0,42,67,20
0,40,91,2
0,64,87,0
0,68,87,0
0,52,93,2
0,59,93,0
0,64,93,0
0,35,81,76
0,42,32,0
0,35,110,18
0,42,72,0
0,35,97,2
0,71,91,4
0,76,90,0
0,42,32,34
0,42,46,76
0,57,82,2
0,42,49,44
0,71,83,22
0,76,84,0
0,42,34,22
0,38,100,0
0,42,63,0
0,64,79,4
0,42,32,76
0,54,70,8
0,57,70,0
0,62,70,0
0,46,51,20
0,57,75,6
0,62,92,0
0,66,82,0
0,50,101,2
0,57,101,0
0,62,101,0
0,71,84,2
0,76,81,0
0,35,110,146
0,42,72,0
0,38,100,2
0,62,117,2
0,62,105,4
0,42,34,40
0,59,103,4
0,59,91,4
0,42,34,0
0,71,98,10
0,76,89,0
0,42,34,22
0,38,100,76
0,42,73,0
0,57,109,8
0,57,97,28
0,42,31,40
0,71,85,10
0,76,88,0
0,42,47,26
0,35,91,76
0,42,47,0
0,35,110,24
0,42,59,0
0,33,97,6
0,55,120,2
0,71,92,2
0,76,91,0
0,55,108,32
0,42,33,34
0,46,71,76
0,56,102,4
0,56,90,4
0,71,80,50
0,76,81,0
0,38,100,16
0,42,73,0
0,38,94,2
0,52,113,2
0,52,101,4
0,42,32,40
0,46,59,8
0,50,106,8
0,71,84,2
0,76,81,0
0,50,94,10
0,56,70,6
0,59,70,0
0,64,70,0
0,35,110,20
0,42,73,0
0,40,100,2
0,64,87,0
0,68,79,0
0,52,101,2
0,52,114,0
0,59,101,0
0,64,101,0
0,52,102,36
0,42,39,40
0,56,70,8
0,59,70,0
0,64,70,0
0,42,47,14
0,64,87,2
0,68,80,0
0,52,93,2
0,59,93,0
0,64,93,0
0,71,98,2
0,76,89,0
0,42,42,22
0,54,70,8
0,57,70,0
0,62,70,0
0,38,100,20
0,42,64,0
0,62,85,2
0,66,87,0
0,50,97,2
0,57,97,0
0,62,97,0
0,42,34,64
0,71,85,10
0,76,88,0
0,56,70,0
0,59,70,0
0,64,70,0
0,42,64,20
0,40,91,2
0,64,87,0
0,68,87,0
0,52,93,2
0,59,93,0
0,64,93,0
0,35,81,76
0,42,40,0
0,35,110,18
0,42,67,0
0,35,97,2
0,71,92,4
0,76,91,0
0,42,32,34
0,42,42,76
0,57,82,2
0,42,37,76
0,71,80,10
0,76,81,0
0,38,100,0
0,42,72,0
0,64,79,4
0,42,32,76
0,54,70,8
0,57,70,0
0,62,70,0
0,42,57,20
0,57,75,6
0,62,92,0
0,66,82,0
0,50,101,2
0,57,101,0
0,62,101,0
0,71,84,2
0,76,81,0
0,42,42,50
0,35,110,8
0,42,72,0
0,38,100,6
0,45,111,2
0,45,99,36
0,42,31,40
0,47,99,2
0,47,87,2
0,42,43,40
0,50,104,4
0,71,98,2
0,76,89,0
0,50,92,4
0,42,38,22
0,38,100,76
0,42,73,0
0,45,113,4
0,45,101,4
0,42,37,40
0,71,85,10
0,76,88,0
0,42,54,26
0,38,91,6
0,35,91,76
0,42,44,0
0,35,110,76
0,46,71,0
0,33,97,2
0,43,120,2
0,71,92,2
0,76,91,0
0,43,108,4
0,38,54,2
0,38,53,44
0,38,61,44
0,38,78,4
0,33,88,2
0,71,81,4
0,76,82,0
0,38,73,8
0,38,100,4
0,35,94,2
0,76,112,0
0,40,115,2
0,40,103,4
0,38,99,8
0,38,91,4
0,74,109,0
0,47,78,2
0,52,78,0
0,71,84,2
0,76,81,0
0,47,66,10
0,52,66,0
0,38,95,40
0,56,70,8
0,59,70,0
0,64,70,0
0,35,110,20
0,42,74,0
0,49,79,0
0,40,100,2
0,64,87,0
0,68,79,0
0,76,118,0
0,52,101,2
0,59,101,0
0,64,101,0
0,42,34,76
0,56,70,8
0,59,70,0
0,64,70,0
0,42,47,14
0,64,87,2
0,68,80,0
0,76,109,0
0,52,93,2
0,59,93,0
0,64,93,0
0,42,29,76
0,54,70,0
0,57,70,0
0,62,70,0
0,38,100,18
0,42,74,0
0,62,87,2
0,66,87,0
0,74,112,0
0,50,97,2
0,57,97,0
0,62,97,0
0,42,31,68
0,56,70,0
0,59,70,0
0,64,70,0
0,42,54,20
0,40,91,2
0,64,87,0
0,68,87,0
0,76,109,0
0,52,93,2
0,59,93,0
0,64,93,0
0,35,81,76
0,42,40,0
0,35,110,16
0,42,74,0
0,35,97,2
0,42,33,76
0,42,59,76
0,57,82,2
0,69,109,0
0,42,40,10
0,38,100,6
0,42,74,0
0,40,94,2
0,64,79,0
0,69,112,0
0,42,32,44
0,54,70,8
0,57,70,0
0,62,70,0
0,46,56,14
0,38,91,4
0,57,78,0
0,62,95,0
0,66,82,0
0,67,109,0
0,50,101,2
0,57,101,0
0,62,101,0
0,40,88,4
0,35,110,4
0,42,72,0
0,38,100,4
0,42,30,76
0,42,44,76
0,69,109,6
0,71,98,4
0,76,89,0
0,42,42,22
0,38,100,18
0,42,73,0
0,67,112,6
0,42,34,64
0,71,85,10
0,76,88,0
0,42,43,26
0,38,91,6
0,64,109,0
0,35,81,76
0,42,37,0
0,35,110,76
0,42,74,0
0,33,97,2
0,71,90,4
0,76,89,0
0,42,32,34
0,42,44,76
0,42,35,76
0,71,82,10
0,76,83,0
0,38,100,2
0,42,74,0
0,38,94,6
0,63,112,0
0,42,32,22
0,35,104,2
0,46,54,0
0,64,109,4
0,71,84,4
0,76,81,0
0,56,70,2
0,59,70,0
0,64,70,0
0,35,110,20
0,42,69,0
0,40,100,2
0,64,87,0
0,68,79,0
0,52,100,2
0,59,101,0
0,64,101,0
0,42,25,76
0,56,70,8
0,59,70,0
0,64,70,0
0,42,54,14
0,64,87,2
0,68,80,0
0,52,93,2
0,59,93,0
0,64,93,0
0,42,32,76
0,54,70,8
0,57,70,0
0,62,70,0
0,38,100,20
0,42,72,0
0,62,87,2
0,66,87,0
0,50,97,2
0,57,97,0
0,62,97,0
0,42,37,76
0,56,70,0
0,59,70,0
0,64,70,0
0,42,56,20
0,40,91,2
0,64,87,0
0,68,87,0
0,52,93,2
0,59,93,0
0,64,93,0
0,42,43,76
0,35,110,18
0,42,69,0
0,35,97,2
0,42,24,76
0,42,43,76
0,42,21,76
0,38,100,0
0,42,74,0
0,64,79,2
0,62,105,2
0,62,93,4
0,42,31,6
0,54,70,2
0,57,70,0
0,62,70,0
0,46,61,20
0,57,78,6
0,62,95,0
0,66,82,0
0,50,101,2
0,57,101,0
0,62,101,0
0,35,91,14
0,35,110,62
0,42,73,0
0,38,100,6
0,42,30,76
0,42,54,76
0,42,39,76
0,38,100,76
0,42,74,0
0,42,31,74
0,42,59,76
0,38,91,6
0,42,34,76
0,35,110,0
0,42,59,0
0,33,97,6
0,42,27,76
0,42,61,76
0,42,63,76
0,38,100,20
0,42,72,0
0,38,94,6
0,76,112,0
0,42,41,76
0,42,47,2
0,74,109,6
0,42,53,76
0,56,70,8
0,59,70,0
0,64,70,0
0,35,110,16
0,42,72,0
0,40,100,2
0,64,87,0
0,68,79,0
0,76,118,0
0,52,101,2
0,59,101,0
0,64,101,0
0,42,28,64
0,56,70,8
0,59,70,0
0,64,70,0
0,42,61,14
0,64,87,2
0,68,80,0
0,76,109,0
0,52,93,2
0,59,93,0
0,64,93,0
0,71,98,2
0,76,89,0
0,42,38,22
0,54,70,8
0,57,70,0
0,62,70,0
0,38,100,10
0,42,74,0
0,62,87,2
0,66,87,0
0,74,112,0
0,50,97,2
0,57,97,0
0,62,97,0
0,42,31,76
0,71,85,10
0,76,88,0
0,56,70,0
0,59,70,0
0,64,70,0
0,42,67,10
0,40,91,2
0,64,87,0
0,68,87,0
0,76,109,0
0,52,93,2
0,59,93,0
0,64,93,0
0,35,81,76
0,42,32,0
0,35,110,16
0,42,72,0
0,35,97,2
0,71,93,4
0,76,92,0
0,42,32,34
0,42,46,76
0,57,82,2
0,70,109,0
0,42,49,44
0,71,77,22
0,76,78,0
0,42,34,14
0,38,100,6
0,42,63,0
0,40,94,4
0,64,79,0
0,69,112,0
0,42,32,76
0,54,70,8
0,57,70,0
0,62,70,0
0,46,51,18
0,38,91,6
0,57,78,0
0,62,95,0
0,66,82,0
0,67,109,0
0,50,101,2
0,57,101,0
0,62,101,0
0,71,84,2
0,76,81,0
0,40,88,4
0,35,110,28
0,42,72,0
0,38,100,4
0,42,34,76
0,42,34,76
0,67,109,6
0,71,98,4
0,76,89,0
0,42,34,22
0,38,100,18
0,42,73,0
0,69,112,6
0,42,31,68
0,71,85,10
0,76,88,0
0,42,47,26
0,38,91,4
0,67,109,0
0,35,91,76
0,42,47,0
0,35,110,76
0,42,59,0
0,33,97,2
0,71,88,4
0,76,87,0
0,42,33,34
0,46,71,76
0,71,79,6
0,76,80,0
0,38,100,16
0,42,73,0
0,38,94,4
0,64,112,0
0,42,32,76
0,46,59,8
0,64,109,6
0,71,84,4
0,76,81,0
0,56,70,6
0,59,70,0
0,64,70,0
0,35,110,20
0,42,73,0
0,40,100,2
0,64,87,0
0,68,79,0
0,52,101,2
0,59,101,0
0,64,101,0
0,42,39,76
0,56,70,8
0,59,70,0
0,64,70,0
0,42,47,14
0,64,87,2
0,68,80,0
0,52,93,2
0,59,93,0
0,64,93,0
0,42,42,76
0,54,70,8
0,57,70,0
0,62,70,0
0,38,100,20
0,42,64,0
0,62,87,2
0,66,87,0
0,50,97,2
0,57,97,0
0,62,97,0
0,42,34,76
0,56,70,0
0,59,70,0
0,64,70,0
0,42,64,20
0,40,91,2
0,64,87,0
0,68,87,0
0,52,93,2
0,59,93,0
0,64,93,0
0,35,81,76
0,42,40,0
0,35,110,18
0,42,67,0
0,35,97,2
0,42,32,76
0,42,42,76
0,57,101,8
0,57,89,36
0,42,37,40
0,59,80,4
0,59,68,4
0,38,100,0
0,42,72,0
0,64,79,2
0,62,102,2
0,62,90,4
0,42,32,40
0,54,70,4
0,57,70,0
0,62,70,0
0,42,57,4
0,57,78,6
0,62,95,0
0,66,82,0
0,50,101,0
0,57,101,0
0,62,101,0
0,42,42,16
0,35,110,76
0,42,72,0
0,38,100,4
0,42,31,46
0,42,43,76
0,42,38,76
0,38,100,76
0,42,73,0
0,42,37,60
0,42,54,76
0,38,91,6
0,35,91,76
0,42,44,0
0,35,110,76
0,46,71,0
0,33,97,2
0,38,46,44
0,38,40,44
0,38,75,8
0,64,109,6
0,38,49,24
0,38,41,44
0,38,100,28
0,38,94,6
0,64,112,0
0,38,99,76
0,56,70,8
0,59,70,0
0,64,70,0
0,35,110,8
0,49,79,0
0,40,91,2
0,64,86,0
0,67,109,0
0,68,86,0
0,52,93,2
0,59,93,0
0,64,93,0
0,44,74,172
0,38,55,44
0,38,44,2
0,38,79,32
0,44,64,0
0,64,109,4
0,38,50,44
0,38,43,44
0,38,99,28
0,44,73,0
0,64,112,6
0,38,95,76
0,54,70,8
0,57,70,0
0,62,70,0
0,35,110,20
0,44,56,0
0,49,79,0
0,38,91,2
0,62,86,0
0,66,86,0
0,67,109,0
0,50,93,2
0,57,93,0
0,62,93,0
0,44,79,172
0,38,50,44
0,38,43,2
0,38,73,32
0,44,61,0
0,64,109,4
0,38,49,44
0,38,43,44
0,38,100,28
0,44,59,0
0,64,112,6
0,38,97,76
0,52,70,8
0,55,70,0
0,60,70,0
0,35,110,20
0,44,57,0
0,49,79,0
0,36,91,2
0,60,86,0
0,64,86,0
0,67,109,0
0,48,93,2
0,55,93,0
0,60,93,0
0,44,81,172
0,38,49,44
0,38,44,44
0,38,80,44
0,44,59,0
0,38,55,44
0,38,48,44
0,38,100,44
0,44,65,0
0,38,97,76
0,44,71,36
0,47,99,0
0,47,89,76
0,51,70,8
0,54,70,0
0,59,70,0
0,43,99,20
0,44,81,0
0,35,97,2
0,59,86,0
0,63,86,0
0,47,93,2
0,54,93,0
0,59,93,0
0,64,112,194
