track,note,velocity,time
1,67,90,24572
1,69,90,192
1,71,74,20
1,71,72,176
1,71,77,204
1,69,72,12
1,67,58,176
1,69,60,180
1,67,56,20
1,71,72,352
1,72,67,48
1,74,62,20
1,74,65,176
1,71,67,12
1,69,60,8
1,67,54,4
1,67,81,524
1,69,67,20
1,71,65,12
1,71,60,188
1,71,72,236
1,69,67,12
1,67,60,12
1,69,62,0
1,67,52,0
1,67,74,120
1,71,62,20
1,72,62,192
1,74,74,52
1,74,67,176
1,71,57,384
1,69,67,12
1,67,59,8
1,69,59,184
1,67,51,372
1,77,85,1064
1,77,102,92
1,77,55,100
1,77,95,132
1,79,81,28
1,79,46,72
1,79,77,116
1,76,69,40
1,72,54,32
1,79,65,188
1,79,74,104
1,76,85,28
1,74,65,12
1,67,108,592
1,76,77,60
1,76,90,96
1,76,90,120
1,74,74,68
1,74,81,124
1,67,77,32
1,67,81,116
1,67,90,132
1,67,85,100
1,69,60,8
1,67,59,12
1,67,95,192
1,76,90,44
1,76,85,104
1,77,90,12
1,76,74,52
1,74,95,104
1,67,85,20
1,67,81,116
1,67,95,112
1,67,85,112
1,69,69,84
1,67,81,112
1,76,108,124
1,76,95,112
1,77,95,20
1,76,95,60
1,74,102,100
1,72,81,20
1,69,81,8
1,72,74,20
1,69,74,0
1,72,74,72
1,74,95,88
1,72,77,8
1,76,90,104
1,74,77,52
1,67,67,60
1,67,72,112
1,67,90,120
1,67,95,664
1,76,81,92
1,76,67,100
1,76,81,124
1,74,77,56
1,74,85,132
1,67,67,20
1,67,77,124
1,67,90,132
1,67,85,92
1,69,69,8
1,67,74,8
1,67,85,120
1,76,74,60
1,76,85,92
1,77,81,12
1,76,65,32
1,74,77,40
1,67,69,32
1,67,72,124
1,67,77,112
1,67,85,116
1,69,69,8
1,67,77,8
1,76,81,232
1,76,90,100
1,77,72,24
1,76,81,64
1,74,74,104
1,72,72,28
1,69,81,8
1,72,69,40
1,69,67,12
1,72,62,92
1,74,65,80
1,72,65,16
1,74,72,396
1,79,69,12
1,81,60,16
1,74,74,48
1,67,90,1456
1,69,69,172
1,71,57,8
1,71,55,116
1,71,74,160
1,69,62,184
1,67,58,0
1,69,52,8
1,67,41,8
1,71,72,316
1,72,60,20
1,74,60,20
1,74,60,160
1,71,55,376
1,69,43,8
1,67,44,192
1,69,45,192
1,67,59,652
1,67,64,100
1,69,59,12
1,71,59,28
1,71,58,156
1,71,64,176
1,69,49,20
1,67,37,8
1,69,56,0
1,67,48,360
1,67,55,144
1,71,51,8
1,72,52,192
1,74,51,0
1,79,56,4
1,71,59,84
1,69,52,192
1,67,56,180
1,69,69,72
1,69,60,148
1,67,54,8
1,77,74,920
1,77,85,100
1,77,77,92
1,79,69,20
1,79,60,80
1,79,72,108
1,76,64,52
1,72,58,32
1,79,69,140
1,79,64,108
1,76,67,80
1,74,65,64
1,67,77,744
1,76,62,68
1,76,74,100
1,76,85,112
1,74,62,52
1,74,72,120
1,67,62,72
1,67,72,120
1,67,85,132
1,67,69,136
1,69,69,12
1,67,72,24
1,67,72,140
1,76,72,40
1,76,74,92
1,77,69,32
1,76,64,64
1,74,72,100
1,67,62,16
1,67,69,104
1,67,72,112
1,67,69,160
1,69,69,32
1,67,69,24
1,76,90,252
1,76,77,100
1,77,81,32
1,76,72,84
1,74,64,104
1,72,67,12
1,69,54,0
1,72,72,52
1,69,72,12
1,72,67,72
1,74,72,100
1,72,72,20
1,76,74,116
1,74,69,72
1,67,62,16
1,67,60,116
1,67,81,112
1,67,81,916
1,76,62,40
1,76,65,108
1,76,74,112
1,74,60,64
1,74,74,124
1,67,67,8
1,67,62,124
1,67,69,120
1,67,72,144
1,69,67,12
1,67,58,12
1,67,69,176
1,76,69,32
1,76,67,104
1,77,67,16
1,76,55,40
1,74,72,100
1,67,62,20
1,67,64,116
1,67,74,120
1,67,65,120
1,69,62,76
1,67,67,104
1,76,72,152
1,76,74,112
1,77,62,192
1,76,58,28
1,74,62,100
1,72,65,12
1,69,77,4
1,72,57,40
1,69,62,8
1,72,64,32
1,74,64,92
1,72,67,384
1,74,64,352
1,79,65,76
1,81,56,8
1,74,69,8
1,67,81,13012
1,76,62,52
1,76,67,112
1,76,74,120
1,74,67,60
1,74,67,120
1,67,60,8
1,67,62,108
1,67,64,120
1,67,72,128
1,69,60,200
1,67,55,8
1,67,64,156
1,76,65,20
1,76,65,88
1,77,72,8
1,76,55,32
1,74,54,32
1,67,52,20
1,67,50,128
1,67,55,120
1,67,56,136
1,69,44,12
1,67,45,80
1,76,56,232
1,76,64,108
1,77,62,196
1,76,54,8
1,74,48,12
1,72,53,8
1,69,59,8
1,72,60,8
1,69,55,8
1,72,46,180
1,74,46,8
1,72,47,8
1,76,58,324
1,74,54,100
1,67,47,188
1,67,42,108
1,67,54,116
1,67,69,616
1,76,55,32
1,76,55,80
1,76,69,112
1,74,48,40
1,74,62,140
1,67,47,32
1,67,59,116
1,67,65,124
1,67,64,152
1,69,48,24
1,67,44,24
1,67,64,176
1,76,60,8
1,76,65,76
1,77,67,16
1,76,55,32
1,74,55,44
1,67,45,20
1,67,53,120
1,67,57,120
1,67,58,128
1,69,55,24
1,67,56,12
1,76,58,252
1,76,57,108
1,77,55,12
1,76,54,40
1,74,58,92
1,72,57,8
1,69,46,0
1,72,55,192
1,69,44,164
1,72,54,8
1,74,54,8
1,72,49,8
1,76,60,292
1,74,56,24
1,67,48,20
1,67,48,104
1,67,58,116
1,67,72,620
1,76,58,20
1,76,69,116
1,76,72,116
1,74,59,52
1,74,69,132
1,67,56,28
1,67,59,104
1,67,60,120
1,67,67,148
1,69,55,200
1,67,51,12
1,67,64,160
1,76,59,32
1,76,64,84
1,77,69,8
1,76,46,36
1,74,65,64
1,67,58,8
1,67,58,112
1,67,59,112
1,67,58,124
1,69,47,200
1,67,52,8
1,76,77,248
1,76,72,112
1,77,72,12
1,76,72,48
1,74,72,92
1,72,62,128
1,69,54,392
1,72,65,32
1,69,64,0
1,72,65,64
1,74,59,92
1,72,55,8
1,76,60,480
1,74,60,8
1,67,59,208
1,67,59,112
1,67,69,744
1,76,51,20
1,76,58,104
1,76,64,124
1,74,50,8
1,74,60,124
1,67,48,28
1,67,53,112
1,67,59,124
1,67,56,132
1,69,47,4
1,67,42,24
1,67,64,148
1,76,62,20
1,76,62,84
1,77,67,8
1,76,57,36
1,74,57,64
1,67,54,32
1,67,55,112
1,67,62,108
1,67,49,144
1,69,46,36
1,67,42,32
1,76,55,204
1,76,60,100
1,77,53,12
1,76,47,28
1,74,50,12
1,72,45,8
1,69,48,384
1,72,53,192
1,69,44,176
1,72,51,12
1,74,53,0
1,72,49,0
1,76,48,160
1,74,58,52
1,81,44,296
1,79,53,0
1,67,67,956
1,76,54,12
1,76,60,144
1,76,69,144
1,74,48,188
1,74,65,132
1,67,49,12
1,67,46,124
1,67,65,124
1,67,51,136
1,69,46,8
1,67,46,12
1,67,52,164
1,76,54,192
1,76,55,104
1,77,57,8
1,76,45,188
1,74,48,8
1,67,55,184
1,67,52,112
1,67,59,120
1,67,55,116
1,69,47,32
1,67,43,20
1,76,45,176
1,76,62,120
1,77,62,12
1,76,55,24
1,74,49,12
1,72,43,8
1,69,50,8
1,72,55,196
1,69,39,172
1,72,41,24
1,74,48,8
1,72,44,20
1,76,67,108
1,76,62,100
1,77,48,196
1,76,45,12
1,74,62,120
1,67,59,152
1,67,50,116
1,67,62,132
2,43,77,7676
2,43,77,268
2,43,77,200
2,43,77,112
2,43,77,44
2,43,77,52
2,41,77,12
2,40,77,196
2,40,77,240
2,40,77,168
2,40,77,104
2,40,77,40
2,40,77,60
2,41,77,192
2,43,77,12
2,43,77,236
2,43,77,188
2,43,77,108
2,43,77,44
2,43,77,60
2,41,77,4
2,40,77,0
2,40,77,236
2,40,77,188
2,40,77,104
2,40,77,44
2,40,77,68
2,41,77,16
2,43,77,12
2,43,77,240
2,43,77,176
2,43,77,116
2,43,77,48
2,43,77,84
2,41,77,16
2,40,77,20
2,40,77,240
2,40,77,172
2,40,77,92
2,40,77,32
2,40,77,76
2,41,77,28
2,43,77,24
2,43,77,240
2,43,77,180
2,43,77,112
2,43,77,48
2,43,77,68
2,41,77,8
2,40,77,4
2,40,77,248
2,40,77,172
2,40,77,100
2,40,77,56
2,40,77,84
2,40,77,64
2,41,77,40
2,41,77,240
2,41,77,168
2,41,77,112
2,41,77,48
2,41,77,96
2,38,77,20
2,45,77,16
2,45,77,244
2,45,77,176
2,45,77,104
2,45,77,44
2,45,77,88
2,45,77,52
2,43,77,28
2,43,77,248
2,43,77,180
2,43,77,128
2,43,77,48
2,43,77,96
2,41,77,188
2,43,77,24
2,43,77,248
2,43,77,176
2,43,77,92
2,43,77,36
2,43,77,96
2,41,77,4
2,43,77,32
2,43,77,256
2,43,77,188
2,43,77,120
2,43,77,48
2,43,77,96
2,41,77,20
2,40,77,4
2,40,77,240
2,40,77,156
2,40,77,112
2,40,77,40
2,40,77,96
2,41,77,188
2,43,77,184
2,43,77,240
2,43,77,180
2,43,77,120
2,43,77,44
2,43,77,76
2,41,77,16
2,40,77,4
2,40,77,236
2,40,77,168
2,40,77,100
2,40,77,44
2,40,77,76
2,40,77,84
2,43,77,44
2,43,77,244
2,43,77,176
2,43,77,92
2,43,77,44
2,43,77,68
2,41,77,12
2,40,77,8
2,40,77,236
2,40,77,168
2,40,77,112
2,40,77,44
2,40,77,96
2,41,77,0
2,43,77,16
2,43,77,240
2,43,77,180
2,43,77,120
2,43,77,44
2,43,77,96
2,41,77,4
2,40,77,4
2,40,77,228
2,40,77,172
2,40,77,92
2,40,77,44
2,40,77,76
2,40,77,68
2,41,77,36
2,41,77,252
2,41,77,168
2,41,77,104
2,41,77,40
2,41,77,76
2,41,77,92
2,40,77,16
2,40,77,256
2,40,77,148
2,40,77,92
2,40,77,52
2,40,77,88
2,41,77,32
2,43,77,36
2,43,77,260
2,43,77,168
2,43,77,88
2,43,77,44
2,43,77,96
2,41,77,24
2,43,77,4
2,43,77,236
2,43,77,176
2,43,77,124
2,43,77,44
2,43,77,76
2,41,77,4
2,43,77,24
2,43,77,240
2,43,77,192
2,43,77,108
2,43,77,44
2,43,77,100
2,41,77,16
2,40,77,4
2,40,77,208
2,40,77,180
2,40,77,92
2,40,77,40
2,40,77,96
2,41,77,20
2,43,77,32
2,43,77,236
2,43,77,168
2,43,77,124
2,43,77,36
2,43,77,92
2,41,77,8
2,40,77,4
2,40,77,228
2,40,77,160
2,40,77,116
2,40,77,36
2,40,77,76
2,40,77,72
2,41,77,12
2,41,77,228
2,41,77,184
2,41,77,104
2,41,77,48
2,41,77,76
2,38,77,12
2,45,77,24
2,45,77,256
2,45,77,180
2,45,77,104
2,45,77,44
2,45,77,76
2,45,77,68
2,43,77,16
2,43,77,248
2,43,77,168
2,43,77,100
2,43,77,48
2,43,77,84
2,41,77,4
2,43,77,192
2,43,77,268
2,43,77,176
2,43,77,104
2,43,77,48
2,43,77,96
2,41,77,16
2,43,77,24
2,43,77,236
2,43,77,164
2,43,77,116
2,43,77,44
2,43,77,96
2,41,77,24
2,40,77,12
2,40,77,220
2,40,77,160
2,40,77,92
2,40,77,60
2,40,77,88
2,41,77,4
2,43,77,8
2,43,77,248
2,43,77,180
2,43,77,108
2,43,77,44
2,43,77,104
2,41,77,16
2,40,77,192
2,40,77,244
2,40,77,172
2,40,77,100
2,40,77,44
2,40,77,96
2,40,77,60
2,41,77,192
2,41,77,220
2,41,77,168
2,41,77,92
2,41,77,44
2,41,77,76
2,38,77,28
2,45,77,24
2,45,77,248
2,45,77,188
2,45,77,108
2,45,77,48
2,45,77,84
2,45,77,76
2,43,77,24
2,43,77,248
2,43,77,184
2,43,77,100
2,43,77,48
2,43,77,88
2,41,77,192
2,43,77,184
2,43,77,244
2,43,77,180
2,43,77,116
2,43,77,48
2,43,77,92
2,41,77,16
2,43,77,56
2,43,77,248
2,43,77,180
2,43,77,100
2,43,77,32
2,43,77,108
2,41,77,4
2,40,77,8
2,40,77,244
2,40,77,168
2,40,77,92
2,40,77,44
2,40,77,84
2,41,77,12
2,43,77,16
2,43,77,248
2,43,77,168
2,43,77,100
2,43,77,44
2,43,77,84
2,41,77,4
2,40,77,16
2,40,77,228
2,40,77,160
2,40,77,92
2,40,77,44
2,40,77,68
2,40,77,68
2,43,77,48
2,43,77,248
2,43,77,160
2,43,77,84
2,43,77,44
2,43,77,76
2,41,77,4
2,40,77,12
2,40,77,236
2,40,77,168
2,40,77,100
2,40,77,44
2,40,77,76
2,41,77,16
2,43,77,24
2,43,77,228
2,43,77,160
2,43,77,104
2,43,77,44
2,43,77,84
2,41,77,12
2,40,77,20
2,40,77,220
2,40,77,156
2,40,77,104
2,40,77,44
2,40,77,76
2,40,77,52
2,41,77,40
2,41,77,232
2,41,77,140
2,41,77,80
2,41,77,56
2,41,77,56
2,41,77,56
2,40,77,28
2,40,77,220
2,40,77,120
2,40,77,92
2,40,77,44
2,40,77,68
2,41,77,0
2,43,77,4
2,43,77,228
2,43,77,148
2,43,77,100
2,43,77,52
2,43,77,76
2,41,77,12
2,43,77,196
2,43,77,232
2,43,77,176
2,43,77,104
2,43,77,48
2,43,77,76
2,41,77,20
2,43,77,20
2,43,77,228
2,43,77,172
2,43,77,108
2,43,77,44
2,43,77,96
2,41,77,12
2,40,77,196
2,40,77,220
2,40,77,148
2,40,77,100
2,40,77,48
2,40,77,92
2,41,77,12
2,43,77,16
2,43,77,224
2,43,77,168
2,43,77,100
2,43,77,44
2,43,77,72
2,41,77,28
2,40,77,4
2,40,77,236
2,40,77,148
2,40,77,88
2,40,77,48
2,40,77,76
2,40,77,68
2,41,77,32
2,41,77,240
2,41,77,172
2,41,77,104
2,41,77,56
2,41,77,84
2,38,77,24
2,45,77,36
2,45,77,240
2,45,77,172
2,45,77,96
2,45,77,56
2,45,77,84
2,45,77,56
2,43,77,16
2,43,77,252
2,43,77,148
2,43,77,96
2,43,77,44
2,43,77,84
2,41,77,12
2,43,77,8
2,43,77,260
2,43,77,156
2,43,77,84
2,43,77,32
2,43,77,76
2,41,77,12
2,43,77,28
2,43,77,244
2,43,77,172
2,43,77,92
2,43,77,44
2,43,77,84
2,41,77,192
2,40,77,4
2,40,77,224
2,40,77,156
2,40,77,112
2,40,77,48
2,40,77,76
2,41,77,192
2,43,77,184
2,43,77,236
2,43,77,164
2,43,77,88
2,43,77,56
2,43,77,84
2,41,77,16
2,40,77,4
2,40,77,240
2,40,77,172
2,40,77,104
2,40,77,48
2,40,77,76
2,40,77,56
2,41,77,20
2,41,77,220
2,41,77,160
2,41,77,84
2,41,77,56
2,41,77,76
2,38,77,12
2,45,77,32
2,45,77,248
2,45,77,176
2,45,77,92
2,45,77,52
2,45,77,76
2,45,77,72
2,43,77,52
2,43,77,208
2,43,77,156
2,43,77,88
2,43,77,48
2,43,77,76
2,41,77,16
2,43,77,12
2,43,77,236
2,43,77,148
2,43,77,60
2,43,77,48
2,43,77,76
2,41,77,4
2,43,77,8
2,43,77,236
2,43,77,136
2,43,77,88
2,43,77,48
2,43,77,68
2,41,77,24
2,40,77,4
2,40,77,224
2,40,77,156
2,40,77,96
2,40,77,52
2,40,77,88
2,41,77,4
2,43,77,12
2,43,77,208
2,43,77,180
2,43,77,92
2,43,77,44
2,43,77,76
2,41,77,12
2,40,77,192
2,40,77,236
2,40,77,176
2,40,77,100
2,40,77,64
2,40,77,76
2,40,77,64
2,41,77,20
2,41,77,228
2,41,77,164
2,41,77,92
2,41,77,48
2,41,77,76
2,38,77,24
2,45,77,16
2,45,77,236
2,45,77,168
2,45,77,100
2,45,77,56
2,45,77,76
2,45,77,52
2,43,77,32
2,43,77,244
2,43,77,148
2,43,77,96
2,43,77,52
2,43,77,80
2,41,77,32
2,43,77,44
2,43,77,236
2,43,77,132
2,43,77,92
2,43,77,48
2,43,77,84
2,41,77,64
2,43,77,12352
2,43,77,268
