track,note,velocity,time
2,36,102,7768
2,36,126,56
2,36,122,256
2,42,127,0
2,42,91,172
2,36,122,176
2,37,119,0
2,42,127,6
2,42,90,176
2,36,127,170
2,42,127,6
2,42,83,170
2,36,121,176
2,42,127,0
2,42,98,176
2,36,122,176
2,42,127,0
2,42,95,176
2,36,127,176
2,37,120,0
2,42,127,0
2,42,96,176
2,36,120,176
2,42,127,0
2,42,81,176
2,36,121,176
2,42,127,0
2,42,93,176
2,36,120,180
2,42,127,0
2,42,93,172
2,36,126,176
2,37,121,0
2,42,127,6
2,42,92,176
2,36,126,170
2,42,127,6
2,42,82,170
2,36,127,176
2,42,127,0
2,42,89,176
2,36,126,176
2,42,127,0
2,42,98,176
2,36,126,176
2,37,125,0
2,42,127,0
2,42,92,176
2,36,125,176
2,42,127,0
2,42,82,176
2,36,125,176
2,42,127,0
2,42,94,176
2,36,127,180
2,42,127,0
2,42,95,172
2,36,127,176
2,37,117,0
2,42,127,6
2,42,97,176
2,36,127,170
2,42,127,6
2,42,77,170
2,36,121,176
2,42,127,0
2,42,95,176
2,36,126,176
2,42,127,0
2,42,93,176
2,36,121,176
2,37,119,0
2,42,127,0
2,42,97,176
2,36,123,176
2,42,127,0
2,42,74,176
2,36,125,176
2,42,127,0
2,42,96,176
2,36,120,180
2,42,127,0
2,42,97,172
2,36,121,176
2,37,119,0
2,42,127,6
2,42,95,176
2,36,120,170
2,42,127,6
2,42,76,170
2,36,123,176
2,42,127,0
2,42,92,176
2,36,127,176
2,42,127,0
2,42,95,176
2,36,127,176
2,37,119,0
2,42,127,0
2,42,92,176
2,36,127,176
2,42,127,0
2,42,75,176
2,36,127,176
2,42,127,0
2,46,105,176
2,36,126,180
2,42,127,0
2,42,92,172
2,36,124,176
2,37,120,0
2,42,127,6
2,42,95,176
2,36,121,170
2,42,127,6
2,42,74,170
2,36,126,176
2,42,127,0
2,42,94,176
2,36,126,176
2,42,127,0
2,42,98,176
2,36,125,176
2,37,116,0
2,42,127,0
2,42,93,176
2,36,127,176
2,42,127,0
2,42,75,176
2,36,127,176
2,42,127,0
2,42,92,176
2,36,125,180
2,42,127,0
2,42,96,172
2,36,124,176
2,37,121,0
2,42,127,6
2,42,91,176
2,36,125,170
2,42,127,6
2,42,75,170
2,36,126,176
2,42,127,0
2,42,91,176
2,36,127,176
2,42,127,0
2,42,89,176
2,36,127,176
2,37,122,0
2,42,127,0
2,42,92,176
2,36,124,176
2,42,127,0
2,42,77,176
2,36,124,176
2,42,127,0
2,42,91,176
2,36,124,180
2,42,127,0
2,42,91,172
2,36,125,176
2,37,120,0
2,42,127,6
2,42,94,176
2,36,120,170
2,42,127,6
2,42,77,170
2,36,121,176
2,42,127,0
2,42,93,176
2,36,127,176
2,42,127,0
2,42,89,176
2,36,127,176
2,37,118,0
2,42,127,0
2,42,91,176
2,36,122,176
2,42,127,0
2,42,82,176
2,36,120,176
2,42,127,0
2,42,98,176
2,36,122,180
2,42,127,0
2,42,94,172
2,36,127,176
2,37,118,0
2,42,127,6
2,42,96,176
2,36,123,170
2,42,127,6
2,42,77,170
2,36,122,176
2,42,127,0
2,42,97,176
2,36,120,176
2,42,127,0
2,42,91,176
2,36,126,176
2,37,116,0
2,42,127,0
2,42,97,176
2,36,124,176
2,42,127,0
2,42,81,176
2,36,126,176
2,42,127,0
2,46,110,176
2,36,124,180
2,42,127,0
2,42,96,172
2,36,127,176
2,37,118,0
2,42,127,6
2,42,97,176
2,36,126,170
2,42,127,6
2,42,77,170
2,36,123,176
2,42,127,0
2,42,91,176
2,36,122,176
2,42,127,0
2,42,94,176
2,36,122,176
2,37,116,0
2,42,127,0
2,42,96,176
2,36,127,176
2,42,127,0
2,42,75,176
2,36,127,176
2,42,127,0
2,46,107,176
2,36,127,180
2,42,127,0
2,42,96,172
2,36,120,176
2,37,117,0
2,42,127,6
2,42,97,176
2,36,124,170
2,42,127,6
2,42,82,170
2,36,127,176
2,42,127,0
2,42,97,176
2,36,124,176
2,42,127,0
2,42,98,176
2,36,127,176
2,37,124,0
2,42,127,0
2,42,93,176
2,36,127,176
2,42,127,0
2,42,83,176
2,36,126,176
2,42,127,0
2,46,105,176
2,36,121,180
2,42,127,0
2,42,98,172
2,36,127,176
2,37,121,0
2,42,127,6
2,42,92,176
2,36,124,170
2,42,127,6
2,42,80,170
2,36,121,176
2,42,127,0
2,42,97,176
2,36,122,176
2,42,127,0
2,42,95,176
2,36,127,176
2,37,119,0
2,42,127,0
2,42,92,176
2,36,127,176
2,42,127,0
2,42,77,176
2,36,127,176
2,42,127,0
2,46,107,176
2,36,123,180
2,42,127,0
2,42,92,172
2,36,123,176
2,37,125,0
2,42,127,6
2,42,90,176
2,36,120,170
2,42,127,6
2,42,80,170
2,36,125,176
2,42,127,0
2,42,98,176
2,36,125,176
2,42,127,0
2,42,95,176
2,36,127,176
2,37,120,0
2,42,127,0
2,42,96,176
2,36,127,176
2,42,127,0
2,42,74,176
2,36,124,176
2,42,127,0
2,46,105,176
2,42,127,180
2,49,103,0
2,36,120,2
2,42,91,170
2,42,95,80
2,40,127,80
2,42,127,0
2,36,126,6
2,42,96,170
2,42,95,80
2,36,122,80
2,42,127,0
2,42,75,176
2,42,78,80
2,40,127,80
2,42,127,0
2,36,125,6
2,40,108,166
2,42,91,4
2,42,96,88
2,42,127,72
2,36,127,2
2,42,89,174
2,42,91,80
2,40,125,80
2,42,127,0
2,36,127,6
2,42,94,170
2,46,103,80
2,42,127,80
2,36,126,6
2,42,76,170
2,42,75,80
2,40,126,80
2,42,127,0
2,36,124,6
2,40,100,170
2,42,95,0
2,42,89,92
2,42,127,72
2,36,122,2
2,42,92,170
2,42,93,80
2,40,125,80
2,42,127,0
2,36,121,6
2,42,91,170
2,42,95,80
2,36,123,80
2,42,127,0
2,42,79,176
2,42,78,80
2,36,99,12
2,40,127,68
2,42,127,0
2,36,122,6
2,40,108,170
2,42,92,0
2,42,90,80
2,42,127,80
2,36,121,2
2,42,89,174
2,42,93,80
2,40,127,80
2,42,127,0
2,36,120,6
2,42,96,170
2,42,97,80
2,40,109,6
2,40,126,74
2,42,127,0
2,36,121,6
2,40,109,170
2,42,74,0
2,42,77,80
2,40,127,80
2,42,127,0
2,36,121,6
2,40,101,170
2,42,92,0
2,42,93,80
2,36,126,84
2,42,127,0
2,42,97,172
2,42,93,80
2,40,127,64
2,36,127,12
2,42,127,0
2,42,89,176
2,42,95,80
2,36,123,80
2,42,127,0
2,42,81,176
2,42,78,80
2,36,127,76
2,40,125,0
2,42,127,4
2,42,96,176
2,42,92,80
2,42,127,80
2,36,126,4
2,42,92,172
2,42,89,80
2,40,127,64
2,36,124,8
2,42,127,0
2,42,92,176
2,46,103,80
2,36,124,74
2,42,127,6
2,42,76,176
2,42,77,80
2,40,127,62
2,36,120,0
2,42,127,2
2,42,96,176
2,42,93,80
2,36,127,84
2,42,127,0
2,42,89,172
2,42,93,80
2,36,122,80
2,42,127,0
2,40,127,4
2,42,89,172
2,42,91,80
2,36,125,80
2,42,127,0
2,42,77,176
2,42,80,80
2,36,126,80
2,40,127,0
2,42,127,0
2,42,91,176
2,42,92,80
2,36,127,80
2,42,127,0
2,42,96,176
2,42,89,80
2,36,123,80
2,40,127,0
2,42,127,0
2,42,90,176
2,42,95,80
2,36,127,80
2,42,127,0
2,42,83,176
2,42,74,80
2,36,124,80
2,40,127,0
2,42,127,0
2,46,104,176
2,36,127,180
2,42,127,0
2,42,95,172
2,36,122,176
2,42,127,6
2,40,126,2
2,42,94,174
2,36,127,170
2,42,127,6
2,42,83,170
2,36,122,176
2,42,127,0
2,40,127,8
2,42,98,168
2,36,126,176
2,42,127,0
2,42,90,176
2,36,121,176
2,42,127,0
2,40,127,8
2,42,92,168
2,36,127,176
2,42,127,0
2,42,74,176
2,36,122,176
2,42,127,0
2,40,126,6
2,42,95,170
2,36,127,180
2,42,127,0
2,42,93,172
2,36,120,176
2,42,127,6
2,40,127,2
2,42,98,174
2,36,124,170
2,42,127,6
2,42,78,170
2,36,127,176
2,42,127,0
2,40,127,8
2,42,92,168
2,36,122,176
2,42,127,0
2,42,96,176
2,36,124,176
2,42,127,0
2,40,127,8
2,42,95,168
2,36,127,176
2,42,127,0
2,42,82,176
2,36,127,176
2,42,127,0
2,40,126,6
2,42,96,170
2,36,121,180
2,42,127,0
2,42,96,172
2,36,127,176
2,42,127,6
2,40,125,2
2,42,96,174
2,36,121,170
2,42,127,6
2,42,75,170
2,36,127,176
2,42,127,0
2,40,126,8
2,42,92,168
2,36,127,176
2,42,127,0
2,42,92,176
2,36,127,176
2,42,127,0
2,40,127,8
2,42,93,168
2,36,127,176
2,42,127,0
2,42,82,176
2,36,126,176
2,42,127,0
2,40,125,6
2,42,90,170
2,36,126,180
2,42,127,0
2,42,96,172
2,36,122,176
2,42,127,6
2,40,125,2
2,42,92,174
2,36,126,170
2,42,127,6
2,42,76,170
2,36,120,176
2,42,127,0
2,40,127,8
2,42,92,168
2,36,127,176
2,42,127,0
2,42,92,176
2,36,121,176
2,42,127,0
2,40,127,8
2,42,91,168
2,36,127,176
2,42,127,0
2,42,74,176
2,36,122,176
2,42,127,0
2,40,127,6
2,46,101,170
2,36,125,180
2,42,127,0
2,42,91,172
2,36,127,176
2,42,127,6
2,40,127,2
2,42,95,174
2,36,120,170
2,42,127,6
2,42,83,170
2,36,127,176
2,42,127,0
2,40,127,8
2,42,96,168
2,36,122,176
2,42,127,0
2,42,96,176
2,36,120,176
2,42,127,0
2,40,127,8
2,42,94,168
2,36,121,176
2,42,127,0
2,42,76,176
2,36,120,176
2,42,127,0
2,40,127,6
2,42,89,170
2,36,121,180
2,42,127,0
2,42,91,172
2,36,124,176
2,42,127,6
2,40,126,2
2,42,96,174
2,36,123,170
2,42,127,6
2,42,79,170
2,36,126,176
2,42,127,0
2,40,127,8
2,42,95,168
2,36,122,176
2,42,127,0
2,42,90,176
2,36,126,176
2,42,127,0
2,40,127,8
2,42,92,168
2,36,127,176
2,42,127,0
2,42,78,176
2,36,124,176
2,42,127,0
2,40,127,6
2,46,103,170
2,36,127,180
2,42,127,0
2,42,95,172
2,36,122,176
2,42,127,6
2,40,127,2
2,42,94,174
2,36,127,170
2,42,127,6
2,42,76,170
2,36,127,176
2,42,127,0
2,40,125,8
2,42,92,168
2,36,121,176
2,42,127,0
2,42,95,176
2,36,127,176
2,42,127,0
2,40,125,8
2,42,98,168
2,36,124,176
2,42,127,0
2,42,82,176
2,36,127,176
2,42,127,0
2,40,127,6
2,46,102,170
2,36,120,180
2,42,127,0
2,42,89,172
2,36,127,176
2,42,127,6
2,40,127,2
2,42,89,174
2,36,126,170
2,42,127,6
2,42,79,170
2,36,127,176
2,42,127,0
2,40,126,8
2,42,98,168
2,36,120,176
2,42,127,0
2,42,97,176
2,36,124,176
2,42,127,0
2,40,127,8
2,42,95,168
2,36,127,176
2,42,127,0
2,42,81,176
2,36,120,176
2,42,127,0
2,40,127,6
2,46,107,170
2,36,126,180
2,42,127,0
2,36,123,364
2,42,127,0
2,36,127,368
2,42,127,0
2,36,120,368
2,42,127,0
2,36,121,368
2,42,127,0
2,36,127,368
2,42,127,0
2,36,121,368
2,42,127,0
2,36,123,368
2,42,127,6
2,36,121,366
2,42,127,0
2,36,121,364
2,42,127,0
2,36,122,368
2,42,127,0
2,36,125,368
2,42,127,0
2,36,127,368
2,42,127,0
2,36,126,368
2,42,127,0
2,36,123,368
2,42,127,0
2,36,121,368
2,42,127,0
2,36,122,372
2,42,127,0
2,36,125,364
2,42,127,0
2,36,124,368
2,42,127,0
2,36,122,368
2,42,127,0
2,36,121,368
2,42,127,0
2,36,121,368
2,42,127,0
2,36,125,368
2,42,127,0
2,36,127,368
2,42,127,6
2,36,127,366
2,42,127,0
2,36,124,364
2,42,127,0
2,36,120,368
2,42,127,0
2,36,124,368
2,42,127,0
2,36,121,374
2,42,127,0
2,42,95,182
2,36,121,170
2,42,127,6
2,46,105,170
2,40,127,172
2,36,122,4
2,42,127,0
2,40,106,78
2,36,126,274
2,40,127,0
2,40,105,176
2,40,107,74
2,42,127,84
2,49,112,0
2,36,123,2
2,42,96,170
2,42,93,80
2,40,127,80
2,42,127,0
2,36,127,6
2,42,92,170
2,42,91,80
2,36,127,80
2,42,127,0
2,42,74,176
2,42,76,80
2,40,126,80
2,42,127,0
2,36,125,6
2,40,101,160
2,42,89,10
2,42,92,80
2,42,127,78
2,36,123,4
2,42,92,174
2,42,92,80
2,40,127,80
2,42,127,0
2,36,125,6
2,42,98,170
2,46,104,80
2,42,127,80
2,36,126,6
2,42,78,170
2,42,78,80
2,40,127,80
2,42,127,0
2,36,122,6
2,40,108,170
2,42,91,0
2,42,97,80
2,42,127,84
2,36,127,2
2,42,94,170
2,42,89,80
2,40,127,80
2,42,127,0
2,36,126,6
2,42,97,170
2,42,93,80
2,36,127,80
2,42,127,0
2,42,80,176
2,42,74,80
2,36,107,12
2,40,127,68
2,42,127,0
2,36,120,6
2,40,102,170
2,42,89,0
2,42,96,80
2,42,127,80
2,36,121,2
2,42,97,174
2,42,94,80
2,40,127,80
2,42,127,0
2,36,127,6
2,42,98,170
2,42,91,80
2,40,103,6
2,40,127,74
2,42,127,0
2,36,123,6
2,40,107,170
2,42,80,0
2,42,83,80
2,40,127,80
2,42,127,0
2,36,126,6
2,40,104,170
2,42,97,0
2,42,98,80
2,36,127,84
2,42,127,0
2,42,90,172
2,42,89,80
2,40,127,64
2,36,127,12
2,42,127,0
2,42,96,176
2,42,97,80
2,36,122,80
2,42,127,0
2,42,79,176
2,42,76,80
2,36,122,76
2,40,127,0
2,42,127,4
2,42,93,176
2,42,96,80
2,42,127,80
2,36,127,4
2,42,97,172
2,42,96,80
2,40,127,64
2,36,122,8
2,42,127,0
2,42,98,176
2,46,106,80
2,36,127,74
2,42,127,6
2,42,83,176
2,42,82,80
2,40,127,62
2,36,123,0
2,42,127,2
2,42,91,176
2,42,92,80
2,36,123,84
2,49,110,0
2,42,95,172
2,42,94,80
2,36,121,80
2,42,127,0
2,40,127,4
2,42,95,172
2,42,95,80
2,36,121,80
2,42,127,0
2,42,78,176
2,42,81,80
2,36,126,80
2,40,126,0
2,42,127,0
2,42,92,176
2,42,91,80
2,36,125,80
2,42,127,0
2,42,97,176
2,42,91,80
2,36,127,80
2,40,127,0
2,42,127,0
2,42,95,176
2,42,93,80
2,40,100,6
2,36,127,74
2,42,127,0
2,40,127,6
2,42,81,170
2,40,106,6
2,42,80,74
2,36,120,80
2,40,127,0
2,42,127,0
2,40,106,86
2,46,104,74
2,50,116,6
2,42,127,174
2,49,112,0
2,36,122,2
2,42,97,170
2,42,97,80
2,40,125,80
2,42,127,0
2,36,123,6
2,42,91,170
2,42,96,80
2,36,125,80
2,42,127,0
2,42,75,176
2,42,83,80
2,40,126,80
2,42,127,0
2,36,122,6
2,40,101,162
2,42,95,8
2,42,90,80
2,42,127,80
2,36,127,2
2,42,97,174
2,42,93,80
2,40,127,80
2,42,127,0
2,36,123,6
2,42,89,170
2,46,106,80
2,42,127,80
2,36,121,6
2,42,80,170
2,42,77,80
2,40,127,80
2,42,127,0
2,36,127,6
2,40,105,170
2,42,94,0
2,42,89,80
2,42,127,84
2,36,127,2
2,42,94,170
2,42,94,80
2,40,127,80
2,42,127,0
2,36,120,6
2,42,93,170
2,42,91,80
2,36,120,80
2,42,127,0
2,42,76,176
2,42,83,80
2,36,105,12
2,40,127,68
2,42,127,0
2,36,127,6
2,40,104,170
2,42,98,0
2,42,94,80
2,42,127,80
2,36,127,2
2,42,96,174
2,42,92,80
2,40,127,80
2,42,127,0
2,36,122,6
2,42,98,170
2,42,93,80
2,40,102,6
2,40,127,74
2,42,127,0
2,36,122,6
2,40,109,170
2,42,78,0
2,42,79,80
2,40,127,80
2,42,127,0
2,36,126,6
2,40,109,170
2,42,92,0
2,42,98,80
2,36,127,84
2,42,127,0
