track,note,velocity,time
0,47,92,312
0,47,0,94
0,45,92,2
0,45,0,166
0,48,92,2
0,48,0,160
0,65,60,32
0,70,60,0
0,74,60,0
0,65,108,0
0,70,108,0
0,74,108,0
0,65,75,0
0,70,75,0
0,74,75,0
0,34,92,0
0,42,60,0
0,36,92,0
0,65,0,94
0,70,0,0
0,74,0,0
0,65,60,2
0,70,60,0
0,74,60,0
0,42,0,64
0,65,0,30
0,70,0,0
0,74,0,0
0,65,60,2
0,70,60,0
0,74,60,0
0,42,60,0
0,34,0,64
0,34,92,32
0,65,0,48
0,70,0,0
0,74,0,0
0,65,0,0
0,70,0,0
0,74,0,0
0,36,0,0
0,65,0,16
0,70,0,0
0,74,0,0
0,42,0,0
0,34,0,30
0,65,84,2
0,70,84,0
0,74,84,0
0,65,108,0
0,70,108,0
0,74,108,0
0,65,75,0
0,70,75,0
0,74,75,0
0,34,92,0
0,42,60,0
0,40,127,0
0,65,0,94
0,70,0,0
0,74,0,0
0,65,60,2
0,70,60,0
0,74,60,0
0,42,0,64
0,65,0,30
0,70,0,0
0,74,0,0
0,65,60,2
0,70,60,0
0,74,60,0
0,42,60,0
0,65,0,94
0,70,0,0
0,74,0,0
0,65,60,2
0,70,60,0
0,74,60,0
0,65,0,48
0,70,0,0
0,74,0,0
0,65,0,0
0,70,0,0
0,74,0,0
0,34,0,0
0,40,0,0
0,42,0,16
0,65,0,30
0,70,0,0
0,74,0,0
0,65,60,2
0,70,60,0
0,74,60,0
0,65,108,0
0,70,108,0
0,74,108,0
0,65,75,0
0,70,75,0
0,74,75,0
0,34,92,0
0,42,60,0
0,36,92,0
0,65,0,94
0,70,0,0
0,74,0,0
0,65,0,0
0,70,0,0
0,74,0,0
0,65,0,0
0,70,0,0
0,74,0,0
0,65,60,2
0,70,60,0
0,74,60,0
0,75,108,0
0,75,75,0
0,42,0,64
0,65,0,30
0,70,0,0
0,74,0,0
0,75,0,0
0,75,0,0
0,65,60,2
0,70,60,0
0,74,60,0
0,77,108,0
0,77,75,0
0,42,60,0
0,34,0,64
0,77,0,30
0,77,0,0
0,65,108,2
0,70,108,0
0,77,108,0
0,65,75,0
0,70,75,0
0,77,75,0
0,34,92,0
0,36,0,48
0,65,0,16
0,70,0,0
0,74,0,0
0,42,0,0
0,34,0,30
0,65,84,2
0,70,84,0
0,74,84,0
0,34,92,0
0,42,60,0
0,40,127,0
0,65,0,94
0,70,0,0
0,74,0,0
0,65,0,0
0,70,0,0
0,77,0,0
0,65,0,0
0,70,0,0
0,77,0,0
0,65,60,2
0,70,60,0
0,74,60,0
0,75,108,0
0,75,75,0
0,42,0,64
0,65,0,30
0,70,0,0
0,74,0,0
0,75,0,0
0,75,0,0
0,65,60,2
0,70,60,0
0,74,60,0
0,74,108,0
0,74,75,0
0,42,60,0
0,65,0,94
0,70,0,0
0,74,0,0
0,65,60,2
0,70,60,0
0,74,60,0
0,34,0,48
0,40,0,0
0,74,0,16
0,74,0,0
0,42,0,0
0,65,0,30
0,70,0,0
0,74,0,0
0,65,60,2
0,69,60,0
0,72,60,0
0,60,108,0
0,65,108,0
0,72,108,0
0,60,75,0
0,65,75,0
0,72,75,0
0,33,92,0
0,42,60,0
0,36,92,0
0,65,0,94
0,69,0,0
0,72,0,0
0,65,60,2
0,69,60,0
0,72,60,0
0,42,0,64
0,65,0,30
0,69,0,0
0,72,0,0
0,65,60,2
0,69,60,0
0,72,60,0
0,42,60,0
0,33,0,64
0,33,92,32
0,60,0,48
0,65,0,0
0,72,0,0
0,60,0,0
0,65,0,0
0,72,0,0
0,36,0,0
0,65,0,16
0,69,0,0
0,72,0,0
0,42,0,0
0,33,0,30
0,65,84,2
0,69,84,0
0,72,84,0
0,60,108,0
0,65,108,0
0,72,108,0
0,60,75,0
0,65,75,0
0,72,75,0
0,33,92,0
0,42,60,0
0,40,127,0
0,65,0,94
0,69,0,0
0,72,0,0
0,65,60,2
0,69,60,0
0,72,60,0
0,42,0,64
0,65,0,30
0,69,0,0
0,72,0,0
0,65,60,2
0,69,60,0
0,72,60,0
0,42,60,0
0,33,0,64
0,65,0,30
0,69,0,0
0,72,0,0
0,65,60,2
0,69,60,0
0,72,60,0
0,33,92,0
0,60,0,48
0,65,0,0
0,72,0,0
0,60,0,0
0,65,0,0
0,72,0,0
0,40,0,0
0,42,0,16
0,65,0,30
0,69,0,0
0,72,0,0
0,33,0,0
0,65,60,2
0,69,60,0
0,72,60,0
0,60,108,0
0,65,108,0
0,72,108,0
0,60,75,0
0,65,75,0
0,72,75,0
0,33,92,0
0,42,60,0
0,36,92,0
0,65,0,94
0,69,0,0
0,72,0,0
0,60,0,0
0,65,0,0
0,72,0,0
0,60,0,0
0,65,0,0
0,72,0,0
0,65,60,2
0,69,60,0
0,72,60,0
0,74,108,0
0,74,75,0
0,42,0,64
0,65,0,30
0,69,0,0
0,72,0,0
0,74,0,0
0,74,0,0
0,65,60,2
0,69,60,0
0,72,60,0
0,75,108,0
0,75,75,0
0,42,60,0
0,33,0,64
0,36,0,0
0,75,0,30
0,75,0,0
0,65,108,2
0,72,108,0
0,75,108,0
0,65,75,0
0,72,75,0
0,75,75,0
0,33,92,0
0,36,92,0
0,65,0,64
0,69,0,0
0,72,0,0
0,42,0,0
0,33,0,30
0,36,0,0
0,65,84,2
0,69,84,0
0,72,84,0
0,33,92,0
0,42,60,0
0,40,127,0
0,65,0,94
0,69,0,0
0,72,0,0
0,65,0,0
0,72,0,0
0,75,0,0
0,65,0,0
0,72,0,0
0,75,0,0
0,65,60,2
0,69,60,0
0,72,60,0
0,74,108,0
0,74,75,0
0,42,0,64
0,40,0,0
0,65,0,30
0,69,0,0
0,72,0,0
0,74,0,0
0,74,0,0
0,65,60,2
0,69,60,0
0,72,60,0
0,72,108,0
0,72,75,0
0,42,60,0
0,40,92,0
0,65,0,94
0,69,0,0
0,72,0,0
0,42,0,0
0,40,0,0
0,65,60,2
0,69,60,0
0,72,60,0
0,42,60,0
0,40,92,0
0,33,0,48
0,72,0,16
0,72,0,0
0,65,0,30
0,69,0,0
0,72,0,0
0,42,0,0
0,40,0,0
0,67,60,2
0,70,60,0
0,74,60,0
0,62,108,0
0,67,108,0
0,70,108,0
0,62,75,0
0,67,75,0
0,70,75,0
0,31,92,0
0,42,60,0
0,36,92,0
0,67,0,94
0,70,0,0
0,74,0,0
0,67,60,2
0,70,60,0
0,74,60,0
0,42,0,64
0,67,0,30
0,70,0,0
0,74,0,0
0,67,60,2
0,70,60,0
0,74,60,0
0,42,60,0
0,31,0,64
0,31,92,32
0,62,0,48
0,67,0,0
0,70,0,0
0,62,0,0
0,67,0,0
0,70,0,0
0,36,0,0
0,67,0,16
0,70,0,0
0,74,0,0
0,42,0,0
0,31,0,30
0,67,84,2
0,70,84,0
0,74,84,0
0,62,108,0
0,67,108,0
0,70,108,0
0,62,75,0
0,67,75,0
0,70,75,0
0,31,92,0
0,42,60,0
0,40,127,0
0,67,0,94
0,70,0,0
0,74,0,0
0,67,60,2
0,70,60,0
0,74,60,0
0,31,0,64
0,42,0,0
0,67,0,30
0,70,0,0
0,74,0,0
0,67,60,2
0,70,60,0
0,74,60,0
0,38,92,0
0,42,60,0
0,67,0,94
0,70,0,0
0,74,0,0
0,67,60,2
0,70,60,0
0,74,60,0
0,62,0,48
0,67,0,0
0,70,0,0
0,62,0,0
0,67,0,0
0,70,0,0
0,40,0,0
0,38,0,16
0,42,0,0
0,67,0,30
0,70,0,0
0,74,0,0
0,67,60,2
0,70,60,0
0,74,60,0
0,67,108,0
0,70,108,0
0,67,75,0
0,70,75,0
0,31,92,0
0,42,60,0
0,36,92,0
0,67,0,94
0,70,0,0
0,74,0,0
0,67,0,0
0,70,0,0
0,67,0,0
0,70,0,0
0,67,60,2
0,70,60,0
0,74,60,0
0,69,108,0
0,72,108,0
0,69,75,0
0,72,75,0
0,42,0,64
0,67,0,30
0,70,0,0
0,74,0,0
0,69,0,0
0,72,0,0
0,69,0,0
0,72,0,0
0,67,60,2
0,70,60,0
0,74,60,0
0,70,108,0
0,74,108,0
0,70,75,0
0,74,75,0
0,42,60,0
0,31,0,64
0,70,0,30
0,74,0,0
0,70,0,0
0,74,0,0
0,70,108,2
0,74,108,0
0,70,75,0
0,74,75,0
0,38,92,0
0,36,0,48
0,67,0,16
0,70,0,0
0,74,0,0
0,42,0,0
0,38,0,30
0,67,84,2
0,70,84,0
0,74,84,0
0,43,92,0
0,42,60,0
0,40,127,0
0,67,0,94
0,70,0,0
0,74,0,0
0,70,0,0
0,74,0,0
0,70,0,0
0,74,0,0
0,67,60,2
0,70,60,0
0,74,60,0
0,69,108,0
0,72,108,0
0,69,75,0
0,72,75,0
0,43,0,64
0,42,0,0
0,67,0,30
0,70,0,0
0,74,0,0
0,69,0,0
0,72,0,0
0,69,0,0
0,72,0,0
0,67,60,2
0,70,60,0
0,74,60,0
0,67,108,0
0,70,108,0
0,67,75,0
0,70,75,0
0,31,92,0
0,42,60,0
0,67,0,94
0,70,0,0
0,74,0,0
0,67,60,2
0,70,60,0
0,74,60,0
0,40,0,48
0,67,0,16
0,70,0,0
0,67,0,0
0,70,0,0
0,31,0,0
0,42,0,0
0,67,0,30
0,70,0,0
0,74,0,0
0,62,60,2
0,65,60,0
0,69,60,0
0,72,60,0
0,60,108,0
0,65,108,0
0,69,108,0
0,72,108,0
0,60,75,0
0,65,75,0
0,69,75,0
0,72,75,0
0,26,92,0
0,42,60,0
0,36,92,0
0,62,0,94
0,65,0,0
0,69,0,0
0,72,0,0
0,62,60,2
0,65,60,0
0,69,60,0
0,72,60,0
0,42,0,64
0,62,0,30
0,65,0,0
0,69,0,0
0,72,0,0
0,62,60,2
0,65,60,0
0,69,60,0
0,72,60,0
0,42,60,0
0,60,0,64
0,65,0,0
0,69,0,0
0,72,0,0
0,60,0,0
0,65,0,0
0,69,0,0
0,72,0,0
0,67,108,32
0,72,108,0
0,67,75,0
0,72,75,0
0,36,0,48
0,62,0,16
0,65,0,0
0,69,0,0
0,72,0,0
0,42,0,0
0,67,0,30
0,67,0,0
0,62,84,2
0,65,84,0
0,69,84,0
0,72,84,0
0,69,108,0
0,69,75,0
0,42,60,0
0,40,127,0
0,62,0,94
0,65,0,0
0,69,0,0
0,72,0,0
0,69,0,0
0,69,0,0
0,62,60,2
0,65,60,0
0,69,60,0
0,72,60,0
0,60,108,0
0,65,108,0
0,60,75,0
0,65,75,0
0,26,0,48
0,42,0,16
0,62,0,30
0,65,0,0
0,69,0,0
0,72,0,0
0,62,60,2
0,65,60,0
0,69,60,0
0,72,60,0
0,33,92,0
0,42,60,0
0,62,0,94
0,65,0,0
0,69,0,0
0,72,0,0
0,62,60,2
0,65,60,0
0,69,60,0
0,72,60,0
0,40,0,48
0,33,0,16
0,42,0,0
0,62,0,30
0,65,0,0
0,69,0,0
0,72,0,0
0,62,60,2
0,65,60,0
0,69,60,0
0,72,60,0
0,38,92,0
0,42,60,0
0,36,92,0
0,62,0,94
0,65,0,0
0,69,0,0
0,72,0,0
0,62,60,2
0,65,60,0
0,69,60,0
0,72,60,0
0,42,0,64
0,62,0,30
0,65,0,0
0,69,0,0
0,72,0,0
0,62,60,2
0,65,60,0
0,69,60,0
0,72,60,0
0,42,60,0
0,38,0,64
0,36,0,0
0,33,92,32
0,36,92,0
0,62,0,64
0,65,0,0
0,69,0,0
0,72,0,0
0,42,0,0
0,33,0,30
0,36,0,0
0,62,84,2
0,65,84,0
0,69,84,0
0,72,84,0
0,26,92,0
0,42,60,0
0,40,127,0
0,62,0,94
0,65,0,0
0,69,0,0
0,72,0,0
0,72,0,0
0,60,0,0
0,65,0,0
0,72,0,0
0,60,0,0
0,65,0,0
0,62,60,2
0,65,60,0
0,69,60,0
0,72,60,0
0,65,108,0
0,65,75,0
0,42,0,64
0,40,0,0
0,62,0,30
0,65,0,0
0,69,0,0
0,72,0,0
0,65,0,0
0,65,0,0
0,62,60,2
0,65,60,0
0,69,60,0
0,72,60,0
0,67,108,0
0,67,75,0
0,42,60,0
0,40,92,0
0,62,0,94
0,65,0,0
0,69,0,0
0,72,0,0
0,67,0,0
0,67,0,0
0,42,0,0
0,40,0,0
0,62,60,2
0,65,60,0
0,69,60,0
0,72,60,0
0,69,108,0
0,69,75,0
0,42,60,0
0,40,92,0
0,26,0,48
0,62,0,46
0,65,0,0
0,69,0,0
0,72,0,0
0,69,0,0
0,69,0,0
0,42,0,0
0,40,0,0
0,63,60,2
0,67,60,0
0,70,60,0
0,63,108,0
0,67,108,0
0,63,75,0
0,67,75,0
0,27,92,0
0,42,60,0
0,36,92,0
0,63,0,94
0,67,0,0
0,70,0,0
0,63,60,2
0,67,60,0
0,70,60,0
0,63,0,64
0,67,0,0
0,63,0,0
0,67,0,0
0,42,0,0
0,63,0,30
0,67,0,0
0,70,0,0
0,63,60,2
0,67,60,0
0,70,60,0
0,70,108,0
0,70,75,0
0,42,60,0
0,27,0,64
0,70,0,30
0,70,0,0
0,69,108,2
0,72,108,0
0,69,75,0
0,72,75,0
0,27,92,0
0,36,0,48
0,63,0,16
0,67,0,0
0,70,0,0
0,42,0,0
0,27,0,30
0,63,84,2
0,67,84,0
0,70,84,0
0,27,92,0
0,42,60,0
0,40,127,0
0,63,0,94
0,67,0,0
0,70,0,0
0,69,0,0
0,72,0,0
0,69,0,0
0,72,0,0
0,63,60,2
0,67,60,0
0,70,60,0
0,70,108,0
0,74,108,0
0,70,75,0
0,74,75,0
0,42,0,64
0,63,0,30
0,67,0,0
0,70,0,0
0,63,60,2
0,67,60,0
0,70,60,0
0,42,60,0
0,70,0,64
0,74,0,0
0,70,0,0
0,74,0,0
0,63,0,30
0,67,0,0
0,70,0,0
0,63,60,2
0,67,60,0
0,70,60,0
0,72,108,0
0,75,108,0
0,72,75,0
0,75,75,0
0,27,0,48
0,40,0,0
0,42,0,16
0,63,0,30
0,67,0,0
0,70,0,0
0,63,60,2
0,67,60,0
0,70,60,0
0,27,92,0
0,42,60,0
0,36,92,0
0,63,0,94
0,67,0,0
0,70,0,0
0,72,0,0
0,75,0,0
0,72,0,0
0,75,0,0
0,63,60,2
0,67,60,0
0,70,60,0
0,74,108,0
0,77,108,0
0,74,75,0
0,77,75,0
0,42,0,64
0,63,0,30
0,67,0,0
0,70,0,0
0,63,60,2
0,67,60,0
0,70,60,0
0,42,60,0
0,74,0,64
0,77,0,0
0,74,0,0
0,77,0,0
0,27,0,0
0,75,108,32
0,79,108,0
0,75,75,0
0,79,75,0
0,27,92,0
0,36,0,48
0,63,0,16
0,67,0,0
0,70,0,0
0,42,0,0
0,27,0,30
0,63,84,2
0,67,84,0
0,70,84,0
0,27,92,0
0,42,60,0
0,40,127,0
0,63,0,94
0,67,0,0
0,70,0,0
0,75,0,0
0,79,0,0
0,75,0,0
0,79,0,0
0,63,60,2
0,67,60,0
0,70,60,0
0,70,108,0
0,70,75,0
0,42,0,64
0,63,0,30
0,67,0,0
0,70,0,0
0,70,0,0
0,70,0,0
0,63,60,2
0,67,60,0
0,70,60,0
0,67,108,0
0,67,75,0
0,42,60,0
0,63,0,94
0,67,0,0
0,70,0,0
0,67,0,0
0,67,0,0
0,63,60,2
0,67,60,0
0,70,60,0
0,63,108,0
0,63,75,0
0,27,0,48
0,40,0,0
0,42,0,16
0,63,0,30
0,67,0,0
0,70,0,0
0,63,0,0
0,63,0,0
0,63,60,2
0,67,60,0
0,70,60,0
0,63,108,0
0,67,108,0
0,70,108,0
0,63,75,0
0,67,75,0
0,70,75,0
0,29,92,0
0,42,60,0
0,36,92,0
0,63,0,94
0,67,0,0
0,70,0,0
0,63,60,2
0,67,60,0
0,70,60,0
0,42,0,64
0,63,0,30
0,67,0,0
0,70,0,0
0,63,60,2
0,67,60,0
0,70,60,0
0,42,60,0
0,36,0,144
0,63,0,16
0,67,0,0
0,70,0,0
0,42,0,0
0,63,84,32
0,67,84,0
0,70,84,0
