track,note,velocity,time
1,42,28,1144
1,42,28,890
1,42,28,506
1,42,28,890
1,42,28,506
1,42,24,1466
1,42,28,890
1,87,74,0
1,42,28,506
1,87,74,0
1,87,50,698
1,42,28,122
1,87,74,0
1,42,28,218
1,42,28,218
1,87,74,0
1,87,74,698
1,42,28,122
1,87,74,0
1,42,28,218
1,42,28,218
1,87,74,0
1,42,18,698
1,42,28,122
1,87,78,0
1,36,100,1852
1,42,85,0
1,49,75,0
1,42,55,24
1,36,105,26
1,42,49,0
1,62,71,0
1,46,55,26
1,61,48,0
1,39,69,26
1,40,99,0
1,42,85,0
1,42,55,26
1,36,98,26
1,42,49,0
1,63,51,0
1,42,68,26
1,42,85,26
1,36,81,26
1,42,55,0
1,36,98,26
1,46,64,0
1,60,57,0
1,42,68,26
1,39,69,26
1,40,99,0
1,42,85,0
1,62,49,0
1,36,58,26
1,46,68,0
1,42,49,26
1,62,44,0
1,36,61,26
1,42,68,0
1,36,100,26
1,42,85,0
1,42,55,26
1,36,105,26
1,42,49,0
1,62,71,0
1,46,55,26
1,61,48,0
1,39,69,26
1,40,99,0
1,42,85,0
1,42,55,26
1,36,98,26
1,42,49,0
1,63,51,0
1,42,68,26
1,42,85,26
1,36,81,26
1,42,55,0
1,36,98,26
1,46,64,0
1,60,57,0
1,42,68,26
1,39,69,26
1,40,99,0
1,42,85,0
1,62,49,0
1,36,58,26
1,46,68,0
1,42,49,26
1,62,44,0
1,36,61,26
1,42,68,0
1,36,100,26
1,42,85,0
1,42,55,26
1,36,105,26
1,42,49,0
1,62,71,0
1,46,55,26
1,61,48,0
1,39,69,26
1,40,99,0
1,42,85,0
1,42,55,26
1,36,98,26
1,42,49,0
1,63,51,0
1,42,68,26
1,42,85,26
1,36,81,26
1,42,55,0
1,36,98,26
1,46,64,0
1,60,57,0
1,42,68,26
1,39,69,26
1,40,99,0
1,42,85,0
1,62,49,0
1,36,58,26
1,46,68,0
1,42,49,26
1,62,44,0
1,36,61,26
1,42,68,0
1,36,100,26
1,42,85,0
1,42,55,26
1,36,105,26
1,42,49,0
1,62,71,0
1,46,55,26
1,61,48,0
1,39,69,26
1,40,99,0
1,42,85,0
1,42,55,26
1,36,98,26
1,42,49,0
1,63,51,0
1,42,68,26
1,42,85,26
1,36,81,26
1,42,55,0
1,36,98,26
1,46,64,0
1,60,57,0
1,42,68,26
1,39,69,26
1,40,99,0
1,42,85,0
1,62,49,0
1,36,58,26
1,46,68,0
1,42,49,26
1,62,44,0
1,36,61,26
1,42,68,0
1,36,100,26
1,42,85,0
1,49,75,0
1,42,55,26
1,36,105,26
1,42,49,0
1,62,71,0
1,46,55,26
1,61,48,0
1,39,69,26
1,40,99,0
1,42,85,0
1,42,55,26
1,36,98,26
1,42,49,0
1,63,51,0
1,42,68,26
1,42,85,26
1,36,81,26
1,42,55,0
1,36,98,26
1,46,64,0
1,60,57,0
1,42,68,26
1,39,69,26
1,40,99,0
1,42,85,0
1,62,49,0
1,36,58,26
1,46,68,0
1,42,49,26
1,62,44,0
1,36,61,26
1,42,68,0
1,36,100,26
1,42,85,0
1,42,55,26
1,36,105,26
1,42,49,0
1,62,71,0
1,46,55,26
1,61,48,0
1,39,69,26
1,40,99,0
1,42,85,0
1,42,55,26
1,36,98,26
1,42,49,0
1,63,51,0
1,42,68,26
1,42,85,26
1,36,81,26
1,42,55,0
1,36,98,26
1,46,64,0
1,60,57,0
1,42,68,26
1,39,69,26
1,40,99,0
1,42,85,0
1,62,49,0
1,36,58,26
1,46,68,0
1,42,49,26
1,62,44,0
1,36,61,26
1,42,68,0
1,36,100,26
1,42,85,0
1,42,55,26
1,36,105,26
1,42,49,0
1,62,71,0
1,46,55,26
1,61,48,0
1,39,69,26
1,40,99,0
1,42,85,0
1,42,55,26
1,36,98,26
1,42,49,0
1,63,51,0
1,42,68,26
1,42,85,26
1,36,81,26
1,42,55,0
1,36,98,26
1,46,64,0
1,60,57,0
1,42,68,26
1,39,69,26
1,40,99,0
1,42,85,0
1,62,49,0
1,36,58,26
1,46,68,0
1,42,49,26
1,62,44,0
1,36,61,26
1,42,68,0
1,36,100,26
1,42,85,0
1,42,55,26
1,36,105,26
1,42,49,0
1,62,71,0
1,46,55,26
1,61,48,0
1,39,69,26
1,40,99,0
1,42,85,0
1,42,55,26
1,36,98,26
1,42,49,0
1,63,51,0
1,42,68,26
1,42,85,26
1,36,81,26
1,42,55,0
1,36,98,26
1,46,64,0
1,60,57,0
1,42,68,26
1,39,69,26
1,40,99,0
1,42,85,0
1,62,49,0
1,36,58,26
1,46,68,0
1,42,49,26
1,62,44,0
1,36,61,26
1,42,68,0
1,36,100,26
1,42,85,0
1,49,75,0
1,42,55,26
1,36,105,26
1,42,49,0
1,62,71,0
1,46,55,26
1,61,48,0
1,39,69,26
1,40,99,0
1,42,85,0
1,42,55,26
1,36,98,26
1,42,49,0
1,63,51,0
1,42,68,26
1,42,85,26
1,36,81,26
1,42,55,0
1,36,98,26
1,46,64,0
1,60,57,0
1,42,68,26
1,39,69,26
1,40,99,0
1,42,85,0
1,62,49,0
1,36,58,26
1,46,68,0
1,42,49,26
1,62,44,0
1,36,61,26
1,42,68,0
1,36,100,26
1,42,85,0
1,42,55,26
1,36,105,26
1,42,49,0
1,62,71,0
1,46,55,26
1,61,48,0
1,39,69,26
1,40,99,0
1,42,85,0
1,42,55,26
1,36,98,26
1,42,49,0
1,63,51,0
1,42,68,26
1,42,85,26
1,36,81,26
1,42,55,0
1,36,98,26
1,46,64,0
1,60,57,0
1,42,68,26
1,39,69,26
1,40,99,0
1,42,85,0
1,62,49,0
1,36,58,26
1,46,68,0
1,42,49,26
1,62,44,0
1,36,61,26
1,42,68,0
1,36,100,26
1,42,85,0
1,42,55,26
1,36,105,26
1,42,49,0
1,62,71,0
1,46,55,26
1,61,48,0
1,39,69,26
1,40,99,0
1,42,85,0
1,42,55,26
1,36,98,26
1,42,49,0
1,63,51,0
1,42,68,26
1,42,85,26
1,36,81,26
1,42,55,0
1,36,98,26
1,46,64,0
1,60,57,0
1,42,68,26
1,39,69,26
1,40,99,0
1,42,85,0
1,62,49,0
1,36,58,26
1,46,68,0
1,42,49,26
1,62,44,0
1,36,61,26
1,42,68,0
1,36,100,26
1,42,85,0
1,42,55,26
1,36,105,26
1,42,49,0
1,62,71,0
1,46,55,26
1,61,48,0
1,39,69,26
1,40,99,0
1,42,85,0
1,42,55,26
1,36,98,26
1,42,49,0
1,63,51,0
1,42,68,26
1,42,85,26
1,36,81,26
1,42,55,0
1,36,98,26
1,46,64,0
1,60,57,0
1,42,68,26
1,39,69,26
1,40,99,0
1,42,85,0
1,62,49,0
1,36,58,26
1,46,68,0
1,42,49,26
1,62,44,0
1,36,61,26
1,42,68,0
1,36,100,26
1,42,85,0
1,49,75,0
1,42,55,26
1,36,105,26
1,42,49,0
1,62,71,0
1,46,55,26
1,61,48,0
1,39,69,26
1,40,99,0
1,42,85,0
1,42,55,26
1,36,98,26
1,42,49,0
1,63,51,0
1,42,68,26
1,42,85,26
1,36,81,26
1,42,55,0
1,36,98,26
1,46,64,0
1,60,57,0
1,42,68,26
1,39,69,26
1,40,99,0
1,42,85,0
1,62,49,0
1,36,58,26
1,46,68,0
1,42,49,26
1,62,44,0
1,36,61,26
1,42,68,0
1,36,100,26
1,42,85,0
1,42,55,26
1,36,105,26
1,42,49,0
1,62,71,0
1,46,55,26
1,61,48,0
1,39,69,26
1,40,99,0
1,42,85,0
1,42,55,26
1,36,98,26
1,42,49,0
1,63,51,0
1,42,68,26
1,42,85,26
1,36,81,26
1,42,55,0
1,36,98,26
1,46,64,0
1,60,57,0
1,42,68,26
1,39,69,26
1,40,99,0
1,42,85,0
1,62,49,0
1,36,58,26
1,46,68,0
1,42,49,26
1,62,44,0
1,36,61,26
1,42,68,0
1,36,100,26
1,42,85,0
1,42,55,26
1,36,105,26
1,42,49,0
1,62,71,0
1,46,55,26
1,61,48,0
1,39,69,26
1,40,99,0
1,42,85,0
1,42,55,26
1,36,98,26
1,42,49,0
1,63,51,0
1,42,68,26
1,42,85,26
1,36,81,26
1,42,55,0
1,36,98,26
1,46,64,0
1,60,57,0
1,42,68,26
1,39,69,26
1,40,99,0
1,42,85,0
1,62,49,0
1,36,58,26
1,46,68,0
1,42,49,26
1,62,44,0
1,36,61,26
1,42,68,0
1,36,100,26
1,42,85,0
1,42,55,26
1,36,105,26
1,42,49,0
1,62,71,0
1,46,55,26
1,61,48,0
1,39,69,26
1,40,99,0
1,42,85,0
1,42,55,26
1,36,98,26
1,42,49,0
1,63,51,0
1,42,68,26
1,42,85,26
1,36,81,26
1,42,55,0
1,36,98,26
1,46,64,0
1,60,57,0
1,42,68,26
1,39,69,26
1,40,99,0
1,42,85,0
1,62,49,0
1,36,58,26
1,46,68,0
1,42,49,26
1,62,44,0
1,36,61,26
1,42,68,0
1,36,94,26
1,44,85,0
1,49,75,0
1,42,55,122
1,62,127,0
1,42,49,26
1,61,80,0
1,44,85,26
1,85,97,0
1,36,99,122
1,42,55,0
1,63,87,0
1,42,49,26
1,44,85,26
1,42,55,122
1,60,99,0
1,42,49,26
1,44,85,26
1,62,83,0
1,85,97,0
1,42,55,122
1,62,73,0
1,42,49,26
1,36,94,26
1,44,85,0
1,42,55,122
1,62,127,0
1,42,49,26
1,61,80,0
1,44,85,26
1,85,97,0
1,36,99,122
1,42,55,0
1,63,98,0
1,42,49,26
1,44,85,26
1,42,55,122
1,60,109,0
1,42,49,26
1,44,85,26
1,85,97,0
1,36,31,122
1,42,55,0
1,46,60,26
1,36,94,26
1,44,85,0
1,42,55,122
1,62,127,0
1,42,49,26
1,61,80,0
1,44,85,26
1,85,97,0
1,36,99,122
1,42,55,0
1,63,87,0
1,42,49,26
1,44,85,26
1,42,55,122
1,60,99,0
1,42,49,26
1,44,85,26
1,62,83,0
1,85,97,0
1,42,55,122
1,62,73,0
1,42,49,26
1,36,94,26
1,44,85,0
1,42,55,122
1,62,127,0
1,42,49,26
1,61,80,0
1,44,85,26
1,85,97,0
1,36,99,122
1,42,55,0
1,54,36,0
1,63,98,0
1,54,38,2
1,42,49,26
1,54,41,0
1,54,43,26
1,44,85,26
1,54,46,0
1,54,48,26
1,38,89,26
1,50,65,0
1,54,51,0
1,54,53,26
1,42,55,26
1,47,104,0
1,54,56,0
1,60,109,0
1,54,58,26
1,42,49,26
1,45,99,0
1,54,61,0
1,54,63,26
1,43,100,26
1,44,85,0
1,54,66,0
1,85,97,0
1,54,68,26
1,38,96,26
1,47,72,0
1,54,71,0
1,54,73,26
1,36,31,26
1,42,55,0
1,43,103,0
1,54,76,0
1,54,78,26
1,41,91,26
1,46,60,0
1,54,81,0
1,54,83,26
1,36,100,26
1,42,85,0
1,49,75,0
1,42,55,26
1,36,105,26
1,42,49,0
1,62,127,0
1,46,55,26
1,61,80,2
1,39,69,24
1,40,99,0
1,42,85,0
1,42,55,26
1,36,98,26
1,42,49,0
1,63,87,2
1,42,68,24
1,42,85,26
1,36,81,26
1,42,55,0
1,36,98,26
1,46,64,0
1,60,99,0
1,42,68,26
1,39,69,26
1,40,99,0
1,42,85,0
1,62,83,0
1,36,58,26
1,46,68,0
1,42,49,26
1,62,73,0
1,36,61,26
1,42,68,0
1,36,100,26
1,42,85,0
1,42,55,26
1,36,105,26
1,42,49,0
1,62,127,0
1,46,55,26
1,61,80,2
1,39,69,24
1,40,99,0
1,42,85,0
1,42,55,26
1,36,98,26
1,42,49,0
1,63,87,2
1,42,68,24
1,42,85,26
1,36,81,26
1,42,55,0
1,36,98,26
1,46,64,0
1,60,99,0
1,42,68,26
1,39,69,26
1,40,99,0
1,42,85,0
1,62,83,2
1,36,58,24
1,46,68,0
1,42,49,26
1,62,73,2
1,36,61,24
1,42,68,0
1,36,100,26
1,42,85,0
1,49,75,0
1,42,55,26
1,36,105,26
1,42,49,0
1,62,127,0
1,46,55,26
1,61,80,0
1,39,69,26
1,40,99,0
1,42,85,0
1,42,55,26
1,36,98,26
1,42,49,0
1,63,87,2
1,42,68,24
1,42,85,26
1,36,81,26
1,42,55,0
1,36,98,26
1,46,64,0
1,60,99,0
1,42,68,26
1,39,69,26
1,40,99,0
1,42,85,0
1,62,83,0
1,36,58,26
1,46,68,0
1,42,49,26
1,62,73,0
1,36,61,26
1,42,68,0
1,36,100,26
1,42,85,0
1,42,55,26
1,36,105,26
1,42,49,0
1,62,127,0
1,46,55,26
1,61,80,2
1,39,69,24
1,40,99,0
1,42,85,0
1,42,55,26
1,36,98,26
1,42,49,0
1,63,87,2
1,42,68,24
1,42,85,26
1,36,81,26
1,42,55,0
1,36,98,26
1,46,64,0
1,60,99,0
1,42,68,26
1,39,69,26
1,40,99,0
1,42,85,0
1,62,83,0
1,36,58,26
1,46,68,0
1,42,49,26
1,62,73,2
1,36,61,24
1,42,68,0
1,36,100,26
1,42,85,0
1,49,75,0
1,42,55,26
1,36,105,26
1,42,49,0
1,62,127,0
1,46,55,26
1,61,80,2
1,39,69,24
1,40,99,0
1,42,85,0
1,42,55,26
1,36,98,26
1,42,49,0
1,63,87,2
1,42,68,24
1,42,85,26
1,36,81,26
1,42,55,0
1,36,98,26
1,46,64,0
1,60,99,0
1,42,68,26
1,39,69,26
1,40,99,0
1,42,85,0
1,62,83,0
1,36,58,26
1,46,68,0
1,42,49,26
1,62,73,0
1,36,61,26
1,42,68,0
1,36,100,26
1,42,85,0
1,49,75,0
1,42,55,26
1,36,105,26
1,42,49,0
1,62,127,0
1,46,55,26
1,61,80,2
1,39,69,24
1,40,99,0
1,42,85,0
1,42,55,26
1,36,98,26
1,42,49,0
1,49,75,0
1,54,36,0
1,84,57,0
1,63,87,2
1,54,38,2
1,54,41,24
1,54,43,26
1,54,46,26
1,54,48,26
1,54,51,26
1,54,53,26
1,54,56,26
1,54,58,26
1,54,61,26
1,54,63,26
1,54,66,26
1,54,68,26
1,54,71,26
1,54,73,26
1,54,76,26
1,54,78,26
1,54,81,26
1,54,83,26
1,36,100,26
1,42,85,0
1,49,75,0
1,42,55,26
1,36,105,26
1,42,49,0
1,62,71,0
1,46,55,26
1,61,48,0
1,39,69,26
1,40,99,0
1,42,85,0
1,42,55,26
1,36,98,26
1,42,49,0
1,57,108,0
1,63,51,0
1,42,68,26
1,42,85,26
1,63,107,0
1,36,81,26
1,42,55,0
1,36,98,26
1,46,64,0
1,60,57,0
1,42,68,26
1,39,69,26
1,40,99,0
1,42,85,0
1,62,49,0
1,36,58,26
1,46,68,0
1,63,110,0
1,42,49,26
1,62,44,0
1,36,61,26
1,42,68,0
1,36,100,26
1,42,85,0
1,42,55,26
1,36,105,26
1,42,49,0
1,62,71,0
1,46,55,26
1,61,48,0
1,39,69,26
1,40,99,0
1,42,85,0
1,42,55,26
1,36,98,26
1,42,49,0
1,63,51,0
1,42,68,26
1,42,85,26
1,63,107,0
1,36,81,26
1,42,55,0
1,36,98,26
1,46,64,0
1,60,57,0
1,42,68,26
1,39,69,26
1,40,99,0
1,42,85,0
1,62,49,0
1,36,58,26
1,46,68,0
1,63,110,0
1,42,49,26
1,62,44,0
1,36,61,26
1,42,68,0
1,36,100,26
1,42,85,0
1,42,55,26
1,36,105,26
1,42,49,0
1,62,71,0
1,46,55,26
1,61,48,0
1,39,69,26
1,40,99,0
1,42,85,0
1,42,55,26
1,36,98,26
1,42,49,0
1,63,51,0
1,42,68,26
1,42,85,26
1,63,107,0
1,36,81,26
1,42,55,0
1,36,98,26
1,46,64,0
1,60,57,0
1,42,68,26
1,39,69,26
1,40,99,0
1,42,85,0
1,62,49,0
1,36,58,26
1,46,68,0
1,63,110,0
1,42,49,26
1,62,44,0
1,36,61,26
1,42,68,0
1,36,100,26
1,42,85,0
1,42,55,26
1,36,105,26
1,42,49,0
1,62,71,0
1,46,55,26
1,61,48,0
1,39,69,26
1,40,99,0
1,42,85,0
1,42,55,26
1,36,98,26
1,42,49,0
