track,note,velocity,time
1,65,110,2672
1,58,106,2
1,60,110,2
1,61,103,80
1,59,103,4
1,66,103,4
1,61,103,104
1,68,103,0
1,63,103,4
1,61,99,92
1,66,99,0
1,59,99,4
1,60,102,42
1,63,106,0
1,65,107,0
1,68,106,0
1,60,107,80
1,63,122,0
1,65,110,0
1,68,106,0
1,56,82,308
1,58,68,0
1,61,110,0
1,65,104,0
1,56,96,120
1,58,96,0
1,61,122,0
1,65,127,0
1,60,97,322
1,63,106,0
1,65,102,0
1,68,96,0
1,60,110,134
1,63,116,0
1,65,110,0
1,68,110,0
1,56,82,334
1,58,90,0
1,61,93,0
1,65,86,0
1,63,116,126
1,68,122,0
1,72,110,0
1,62,97,222
1,67,97,0
1,70,116,0
1,60,100,204
1,63,103,0
1,65,104,0
1,68,103,0
1,60,97,110
1,63,122,0
1,65,107,0
1,68,116,0
1,56,103,316
1,61,87,0
1,65,104,0
1,58,11,288
1,58,109,192
1,61,122,32
1,65,102,0
1,68,116,0
1,56,110,76
1,61,106,0
1,65,100,0
1,58,106,122
1,60,100,0
1,63,110,0
1,67,104,0
1,58,106,104
1,60,102,0
1,63,122,0
1,67,110,0
1,56,79,328
1,60,97,0
1,63,79,0
1,65,102,0
1,63,116,212
1,68,116,0
1,72,110,0
1,62,102,254
1,67,110,0
1,70,122,0
1,60,97,220
1,63,103,0
1,65,102,0
1,68,110,0
1,58,82,176
1,60,104,0
1,63,90,0
1,65,97,0
1,56,106,252
1,60,100,0
1,63,93,0
1,65,104,0
1,56,103,202
1,61,96,0
1,65,107,0
1,58,106,232
1,61,105,4
1,65,105,0
1,68,105,0
1,61,105,24
1,65,105,0
1,68,105,0
1,58,106,208
1,60,122,0
1,63,96,0
1,67,97,0
1,60,107,160
1,63,82,0
1,67,104,0
1,60,122,204
1,63,103,0
1,67,122,0
1,56,90,196
1,60,104,0
1,63,103,0
1,65,100,0
1,58,85,48
1,61,85,0
1,65,93,0
1,68,96,0
1,72,97,0
1,51,77,44
1,61,77,0
1,65,104,0
1,68,85,0
1,72,86,0
1,61,90,56
1,65,110,0
1,68,96,0
1,72,91,0
1,60,102,92
1,63,87,8
1,67,86,12
1,70,90,16
1,53,95,62
1,63,93,0
1,65,100,0
1,68,93,0
1,72,97,0
1,75,104,564
1,58,98,4
1,61,98,0
1,65,98,0
1,68,98,0
1,72,98,0
1,51,74,94
1,61,94,92
1,65,94,0
1,68,94,0
1,56,98,0
1,67,98,0
1,72,98,0
1,77,98,0
1,67,84,160
1,70,93,0
1,72,104,0
1,75,93,0
1,67,93,276
1,70,74,0
1,72,91,0
1,75,85,0
1,56,98,8
1,63,98,0
1,66,98,0
1,68,98,0
1,71,98,0
1,49,94,32
1,63,94,0
1,66,94,0
1,71,94,0
1,70,102,384
1,54,93,4
1,58,93,0
1,61,90,0
1,65,100,0
1,68,90,0
1,55,94,36
1,61,94,0
1,65,94,0
1,70,94,0
1,75,100,576
1,58,102,0
1,61,102,0
1,65,102,0
1,68,102,0
1,72,102,0
1,61,96,18
1,65,96,0
1,68,96,0
1,73,96,0
1,51,110,0
1,68,104,192
1,73,104,0
1,77,104,0
1,56,77,52
1,67,77,0
1,72,77,0
1,77,77,0
1,67,105,112
1,72,105,0
1,77,105,0
1,67,94,18
1,72,94,0
1,77,94,0
1,56,92,136
1,67,102,28
1,72,102,0
1,77,102,0
1,63,107,324
1,67,107,0
1,70,107,0
1,60,100,0
1,63,103,0
1,65,104,0
1,68,103,0
1,60,97,110
1,63,122,0
1,65,107,0
1,68,116,0
1,56,103,316
1,61,87,0
1,65,104,0
1,58,11,288
1,58,109,192
1,61,122,32
1,65,102,0
1,68,116,0
1,56,110,76
1,61,106,0
1,65,100,0
1,58,106,122
1,60,100,0
1,63,110,0
1,67,104,0
1,58,106,104
1,60,102,0
1,63,122,0
1,67,110,0
1,56,79,328
1,60,97,0
1,63,79,0
1,65,102,0
1,63,116,212
1,68,116,0
1,72,110,0
1,62,102,254
1,67,110,0
1,70,122,0
1,60,97,220
1,63,103,0
1,65,102,0
1,68,110,0
1,58,82,176
1,60,104,0
1,63,90,0
1,65,97,0
1,56,106,252
1,60,100,0
1,63,93,0
1,65,104,0
1,56,103,202
1,61,96,0
1,65,107,0
1,58,106,232
1,61,105,4
1,65,105,0
1,68,105,0
1,61,105,24
1,65,105,0
1,68,105,0
1,58,106,208
1,60,122,0
1,63,96,0
1,67,97,0
1,60,107,160
1,63,82,0
1,67,104,0
1,60,122,204
1,63,103,0
1,67,122,0
1,56,90,196
1,60,104,0
1,63,103,0
1,65,100,0
1,58,85,48
1,61,85,0
1,65,93,0
1,68,96,0
1,72,97,0
1,51,77,44
1,61,77,0
1,65,104,0
1,68,85,0
1,72,86,0
1,61,90,56
1,65,110,0
1,68,96,0
1,72,91,0
1,60,102,92
1,63,87,8
1,67,86,12
1,70,90,16
1,53,95,62
1,63,93,0
1,65,100,0
1,68,93,0
1,72,97,0
1,75,104,564
1,58,98,4
1,61,98,0
1,65,98,0
1,68,98,0
1,72,98,0
1,51,74,94
1,61,94,92
1,65,94,0
1,68,94,0
1,56,98,0
1,67,98,0
1,72,98,0
1,77,98,0
1,67,84,160
1,70,93,0
1,72,104,0
1,75,93,0
1,67,93,276
1,70,74,0
1,72,91,0
1,75,85,0
1,61,106,8
1,64,93,0
1,68,96,0
1,71,97,0
1,54,110,66
1,64,100,0
1,68,106,0
1,71,100,0
1,59,97,108
1,63,106,0
1,66,110,0
1,70,106,0
1,59,86,30
1,62,93,0
1,66,116,0
1,69,107,0
1,52,95,60
1,62,84,0
1,66,103,0
1,69,102,0
1,57,95,108
1,61,85,0
1,64,97,0
1,68,87,0
1,58,102,44
1,61,102,0
1,65,102,0
1,68,102,0
1,72,102,0
1,61,96,18
1,65,96,0
1,68,96,0
1,73,96,0
1,51,110,22
1,68,104,192
1,73,104,0
1,77,104,0
1,56,77,52
1,67,77,0
1,72,77,0
1,77,77,0
1,67,105,112
1,72,105,0
1,77,105,0
1,67,94,18
1,72,94,0
1,77,94,0
1,56,92,136
1,67,91,28
1,72,91,0
1,77,91,0
1,52,97,386
1,59,97,0
1,64,102,0
1,66,93,0
1,68,103,0
1,51,86,20
1,59,86,0
1,61,86,0
1,63,86,0
1,66,86,0
1,49,86,32
1,56,86,0
1,59,86,0
1,63,86,0
1,64,86,0
1,47,86,20
1,54,86,0
1,59,86,0
1,61,86,0
1,63,86,0
1,52,86,36
1,59,86,0
1,60,86,0
1,64,86,0
1,66,86,0
1,68,86,0
1,51,86,32
1,59,86,0
1,63,86,0
1,66,86,0
1,49,86,26
1,56,86,0
1,59,86,0
1,64,86,0
1,56,86,0
1,49,86,96
1,47,86,28
1,54,86,0
1,59,86,0
1,63,86,0
1,54,86,88
1,47,86,12
1,53,86,14
1,60,86,0
1,65,86,0
1,67,86,0
1,69,86,0
1,53,86,76
1,52,86,26
1,60,86,0
1,64,86,0
1,67,86,0
1,52,86,0
1,50,86,4
1,57,86,0
1,60,86,0
1,62,86,0
1,65,86,0
1,50,86,108
1,48,86,8
1,55,86,0
1,60,86,0
1,62,86,0
1,64,86,0
1,55,86,80
1,60,86,100
1,48,86,24
1,53,86,24
1,57,86,0
1,60,86,0
1,65,86,0
1,53,86,30
1,52,86,60
1,60,86,0
1,64,86,0
1,67,86,0
1,52,86,40
1,50,86,50
1,57,86,0
1,60,86,0
1,62,86,0
1,65,86,0
1,65,110,10872
1,58,106,2
1,60,110,2
1,61,103,80
1,59,103,4
1,66,103,4
1,61,103,104
1,68,103,0
1,63,103,4
1,61,99,92
1,66,99,0
1,59,99,4
1,60,100,42
1,63,103,0
1,65,104,0
1,68,103,0
1,60,97,110
1,63,122,0
1,65,107,0
1,68,116,0
1,56,103,316
1,61,87,0
1,65,104,0
1,58,11,288
1,58,109,192
1,61,122,32
1,65,102,0
1,68,116,0
1,56,110,76
1,61,106,0
1,65,100,0
1,58,106,122
1,60,100,0
1,63,110,0
1,67,104,0
1,58,106,104
1,60,102,0
1,63,122,0
1,67,110,0
1,56,79,328
1,60,97,0
1,63,79,0
1,65,102,0
1,63,116,212
1,68,116,0
1,72,110,0
1,62,102,254
1,67,110,0
1,70,122,0
1,60,97,220
1,63,103,0
1,65,102,0
1,68,110,0
1,58,82,176
1,60,104,0
1,63,90,0
1,65,97,0
1,56,106,252
1,60,100,0
1,63,93,0
1,65,104,0
1,56,103,202
1,61,96,0
1,65,107,0
1,58,106,232
1,61,105,4
1,65,105,0
1,68,105,0
1,61,105,24
1,65,105,0
1,68,105,0
1,58,106,208
1,60,122,0
1,63,96,0
1,67,97,0
1,60,107,160
1,63,82,0
1,67,104,0
1,60,122,204
1,63,103,0
1,67,122,0
1,56,90,196
1,60,104,0
1,63,103,0
1,65,100,0
1,60,100,48
1,63,103,0
1,65,104,0
1,68,103,0
1,72,122,500
1,77,102,24
1,79,122,140
1,80,127,140
1,60,97,110
1,63,122,0
1,65,107,0
1,68,116,0
1,79,127,8
1,77,100,6
1,75,102,102
1,71,127,70
1,70,127,6
1,56,103,80
1,61,87,0
1,65,104,0
1,68,122,20
1,58,11,52
1,70,74,192
1,72,127,60
1,70,104,172
1,58,109,20
1,61,122,32
1,65,102,0
1,68,116,0
1,72,107,0
1,56,110,76
1,61,106,0
1,65,100,0
1,75,127,0
1,58,106,122
1,60,100,0
1,63,110,0
1,67,104,0
1,77,127,0
1,79,110,26
1,77,107,96
1,75,97,16
1,72,110,48
1,70,102,14
1,68,95,20
1,65,95,48
1,72,127,56
1,70,122,110
1,72,127,102
1,58,106,2
1,60,102,0
1,63,122,0
1,67,110,0
1,75,127,136
1,72,104,20
1,56,79,92
1,60,97,0
1,63,79,0
1,65,102,0
1,72,122,48
1,72,107,402
1,80,110,50
1,72,100,10
1,84,127,10
1,75,104,132
1,63,116,8
1,68,116,0
1,72,110,0
1,87,100,0
1,77,122,134
1,89,110,4
1,62,102,68
1,67,110,0
1,70,122,0
1,80,127,28
1,92,104,0
1,89,102,52
1,77,127,4
1,60,97,38
1,63,103,0
1,65,102,0
1,68,110,0
1,84,124,480
1,82,124,26
1,89,124,44
1,87,114,80
1,58,109,32
1,60,109,0
1,63,109,0
1,65,109,0
1,83,109,0
1,82,109,40
1,80,109,26
1,56,109,74
1,60,109,0
1,63,109,0
1,65,109,0
1,77,107,18
1,56,103,132
1,61,96,0
1,65,107,0
1,80,122,0
1,77,110,146
1,82,102,46
1,80,110,104
1,72,95,48
1,71,106,32
1,70,122,16
1,58,106,232
1,61,105,4
1,65,105,0
1,68,105,0
1,61,105,24
1,65,105,0
1,68,105,0
1,58,106,208
1,60,122,0
1,63,96,0
1,67,97,0
1,72,121,96
1,68,121,48
1,70,121,48
1,72,121,48
1,73,121,48
1,75,121,48
1,77,121,48
1,78,121,48
1,79,121,48
1,60,107,48
1,63,82,0
1,67,104,0
1,80,121,0
1,81,121,44
1,82,121,48
1,60,122,68
1,63,103,0
1,67,122,0
1,80,127,4
1,56,90,128
1,60,104,0
1,63,103,0
1,65,100,0
1,84,127,0
1,80,127,128
1,82,127,44
1,80,127,132
1,79,127,68
1,80,110,16
1,79,127,10
1,77,122,10
1,58,85,48
1,61,85,0
1,65,93,0
1,68,96,0
1,72,97,0
1,84,122,192
1,80,127,112
1,77,122,108
1,51,77,44
1,61,77,0
1,65,104,0
1,68,85,0
1,72,86,0
1,84,127,0
1,80,127,112
1,77,127,16
1,61,90,18
1,65,110,0
1,68,96,0
1,72,91,0
1,84,127,96
1,80,127,16
1,60,102,10
1,63,87,8
1,67,86,12
1,79,127,0
1,70,90,16
1,72,127,204
1,84,127,40
1,80,127,90
1,77,107,4
1,53,95,62
1,63,93,0
1,65,100,0
1,68,93,0
1,72,127,0
1,84,127,196
1,80,127,96
1,79,127,52
1,77,127,8
1,73,127,96
1,58,98,8
1,61,98,0
1,72,127,0
1,70,127,16
1,68,127,132
1,70,127,140
1,72,127,20
1,75,127,16
1,87,127,32
1,51,74,2
1,85,116,100
1,84,127,128
1,61,94,16
1,65,94,0
1,68,94,0
1,87,127,44
1,75,127,0
1,56,98,38
1,67,98,0
1,72,98,0
1,77,98,0
1,84,127,126
1,79,127,112
1,75,110,20
1,72,116,10
1,70,93,12
1,68,102,28
1,70,127,12
1,68,122,16
1,67,84,22
1,70,93,0
1,72,104,0
1,75,93,0
1,68,121,92
1,72,127,38
1,75,127,10
1,82,127,44
1,79,127,56
1,75,127,32
1,72,127,18
1,68,127,26
1,61,106,8
1,64,93,0
1,68,96,0
1,71,97,0
1,71,127,292
1,83,122,2
1,76,127,30
1,54,110,36
1,64,100,0
1,68,106,0
1,71,100,0
1,73,127,84
1,59,97,24
1,63,106,0
1,66,110,0
1,70,106,0
1,75,119,54
1,76,119,4
1,78,119,4
1,80,124,44
1,82,124,44
1,80,124,96
1,78,124,72
1,76,127,92
1,59,86,30
1,62,93,0
1,66,116,0
1,69,107,0
1,85,127,96
1,78,127,112
1,76,127,36
1,52,95,24
1,62,84,0
1,66,103,0
1,69,102,0
1,83,127,84
1,57,95,24
1,61,85,0
1,64,97,0
1,68,87,0
1,80,122,72
1,76,127,80
1,73,127,4
1,69,127,48
1,68,111,0
1,69,119,96
1,68,116,28
1,66,111,96
1,58,102,26
1,61,102,0
1,65,102,0
1,68,102,0
1,72,102,0
1,76,104,196
1,77,127,28
1,79,127,182
1,80,127,0
1,85,112,24
1,61,96,18
1,65,96,0
1,68,96,0
1,73,96,0
1,51,110,12
1,87,122,0
1,68,104,138
1,73,104,0
1,77,104,0
1,85,122,0
1,84,127,28
1,82,122,122
1,80,127,136
1,56,77,20
1,67,77,0
1,72,77,0
1,77,77,0
1,82,116,96
1,83,111,4
1,84,125,22
1,67,105,24
1,72,105,0
1,77,105,0
1,80,122,20
1,77,107,10
1,73,122,24
1,67,94,18
1,72,94,0
1,77,94,0
1,72,127,10
1,70,96,14
1,56,92,34
1,67,91,22
1,77,91,0
1,72,127,0
1,73,110,8
1,72,127,20
1,73,103,4
1,72,86,10
1,52,97,386
1,59,97,0
1,64,102,0
1,66,93,0
1,68,103,0
1,51,86,20
1,59,86,0
1,61,86,0
1,63,86,0
1,66,86,0
1,49,86,32
1,56,86,0
1,59,86,0
1,63,86,0
1,64,86,0
1,47,86,20
1,54,86,0
1,59,86,0
1,61,86,0
1,63,86,0
1,52,86,36
1,59,86,0
1,60,86,0
1,64,86,0
1,66,86,0
1,68,86,0
1,51,86,32
1,59,86,0
1,63,86,0
1,66,86,0
1,49,86,26
1,56,86,0
1,59,86,0
1,64,86,0
1,56,86,0
1,49,86,96
1,47,86,28
1,54,86,0
1,59,86,0
1,63,86,0
1,54,86,88
1,47,86,12
1,53,86,14
1,60,86,0
1,65,86,0
1,67,86,0
1,69,86,0
1,53,86,76
1,52,86,26
1,60,86,0
1,64,86,0
1,67,86,0
1,52,86,0
1,50,86,4
1,57,86,0
1,60,86,0
1,62,86,0
1,65,86,0
1,50,86,108
1,48,86,8
1,55,86,0
1,60,86,0
1,62,86,0
1,64,86,0
1,55,86,80
1,60,86,100
1,48,86,24
1,53,86,24
1,57,86,0
1,60,86,0
1,65,86,0
1,53,86,30
1,52,86,60
1,60,86,0
1,64,86,0
1,67,86,0
1,52,86,40
1,50,86,50
1,57,86,0
1,60,86,0
1,62,86,0
1,65,86,0
1,65,110,10872
1,58,106,2
1,60,110,2
1,61,103,80
1,59,103,4
1,66,103,4
1,61,103,104
1,68,103,0
1,63,103,4
1,61,99,92
1,66,99,0
1,59,99,4
1,60,100,24618
1,63,103,0
1,65,104,0
1,68,103,0
1,60,97,110
1,63,122,0
1,65,107,0
1,68,116,0
1,56,103,316
1,61,87,0
1,65,104,0
1,58,11,288
1,58,109,192
1,61,122,32
1,65,102,0
1,68,116,0
1,56,110,76
1,61,106,0
1,65,100,0
1,58,106,122
1,60,100,0
1,63,110,0
1,67,104,0
1,58,106,104
1,60,102,0
1,63,122,0
1,67,110,0
