track,note,velocity,time
3,60,100,3072
3,60,0,96
3,60,100,0
3,60,0,96
3,60,100,0
3,60,0,192
3,67,100,0
3,67,0,192
3,65,100,0
3,65,0,192
3,67,100,0
3,67,0,384
3,63,100,0
3,63,0,576
3,65,100,0
3,65,0,96
3,65,100,0
3,65,0,96
3,65,100,0
3,65,0,128
3,67,100,0
3,67,0,128
3,65,100,0
3,65,0,128
3,60,100,0
3,60,0,768
3,67,100,192
3,67,0,96
3,67,100,0
3,67,0,96
3,67,100,0
3,67,0,128
3,63,100,0
3,63,0,128
3,67,100,0
3,67,0,128
3,72,100,0
3,72,0,384
3,70,100,0
3,70,0,576
3,70,100,0
3,70,0,96
3,70,100,0
3,70,0,96
3,70,100,0
3,70,0,128
3,72,100,0
3,72,0,128
3,70,100,0
3,70,0,128
3,70,100,0
3,70,0,768
3,74,100,192
3,74,0,96
3,74,100,0
3,74,0,96
3,74,100,0
3,74,0,128
3,75,100,0
3,75,0,128
3,74,100,0
3,74,0,128
3,74,100,0
3,74,0,384
3,72,100,0
3,72,0,576
3,70,100,0
3,70,0,96
3,70,100,0
3,70,0,96
3,70,100,0
3,70,0,128
3,65,100,0
3,65,0,128
3,68,100,0
3,68,0,128
3,70,100,0
3,70,0,768
3,65,100,0
3,65,0,192
3,65,100,0
3,65,0,96
3,65,100,0
3,65,0,96
3,65,100,0
3,65,0,128
3,67,100,0
3,67,0,128
3,65,100,0
3,65,0,128
3,60,100,0
3,60,0,384
3,67,100,0
3,67,0,576
3,65,100,0
3,65,0,96
3,65,100,0
3,65,0,96
3,65,100,0
3,65,0,128
3,67,100,0
3,67,0,128
3,65,100,0
3,65,0,128
3,60,100,0
3,60,0,768
3,60,100,192
3,60,0,96
3,60,100,0
3,60,0,96
3,60,100,0
3,60,0,128
3,67,100,0
3,67,0,128
3,65,100,0
3,65,0,128
3,67,100,0
3,67,0,384
3,63,100,0
3,63,0,576
3,65,100,0
3,65,0,96
3,65,100,0
3,65,0,96
3,65,100,0
3,65,0,128
3,67,100,0
3,67,0,128
3,65,100,0
3,65,0,128
3,60,100,0
3,60,0,768
3,67,100,192
3,67,0,96
3,67,100,0
3,67,0,96
3,67,100,0
3,67,0,128
3,63,100,0
3,63,0,128
3,67,100,0
3,67,0,128
3,72,100,0
3,72,0,384
3,70,100,0
3,70,0,576
3,70,100,0
3,70,0,96
3,70,100,0
3,70,0,96
3,70,100,0
3,70,0,128
3,72,100,0
3,72,0,128
3,70,100,0
3,70,0,128
3,70,100,0
3,70,0,768
3,74,100,192
3,74,0,96
3,74,100,0
3,74,0,96
3,74,100,0
3,74,0,128
3,75,100,0
3,75,0,128
3,74,100,0
3,74,0,128
3,74,100,0
3,74,0,384
3,72,100,0
3,72,0,576
3,70,100,0
3,70,0,96
3,70,100,0
3,70,0,96
3,70,100,0
3,70,0,128
3,65,100,0
3,65,0,128
3,68,100,0
3,68,0,128
3,70,100,0
3,70,0,768
3,65,100,192
3,65,0,96
3,65,100,0
3,65,0,96
3,65,100,0
3,65,0,128
3,67,100,0
3,67,0,128
3,65,100,0
3,65,0,128
3,60,100,0
3,60,0,384
3,67,100,0
3,67,0,576
3,65,100,0
3,65,0,96
3,65,100,0
3,65,0,96
3,65,100,0
3,65,0,128
3,67,100,0
3,67,0,128
3,65,100,0
3,65,0,128
3,60,100,0
3,60,0,768
3,60,100,192
3,60,0,96
3,60,100,0
3,60,0,96
3,60,100,0
3,60,0,128
3,67,100,0
3,67,0,128
3,65,100,0
3,65,0,128
3,67,100,0
3,67,0,384
3,63,100,0
3,63,0,576
3,65,100,0
3,65,0,96
3,65,100,0
3,65,0,96
3,65,100,0
3,65,0,128
3,67,100,0
3,67,0,128
3,65,100,0
3,65,0,128
3,60,100,0
3,60,0,768
3,67,100,192
3,67,0,96
3,67,100,0
3,67,0,96
3,67,100,0
3,67,0,128
3,63,100,0
3,63,0,128
3,67,100,0
3,67,0,128
3,72,100,0
3,72,0,384
3,70,100,0
3,70,0,576
3,70,100,0
3,70,0,96
3,70,100,0
3,70,0,96
3,70,100,0
3,70,0,128
3,72,100,0
3,72,0,128
3,70,100,0
3,70,0,128
3,70,100,0
3,70,0,768
3,74,100,192
3,74,0,96
3,74,100,0
3,74,0,96
3,74,100,0
3,74,0,128
3,75,100,0
3,75,0,128
3,74,100,0
3,74,0,128
3,74,100,0
3,74,0,384
3,72,100,0
3,72,0,576
3,70,100,0
3,70,0,96
3,70,100,0
3,70,0,96
3,70,100,0
3,70,0,128
3,65,100,0
3,65,0,128
3,68,100,0
3,68,0,128
3,70,100,0
3,70,0,768
3,65,100,192
3,65,0,96
3,65,100,0
3,65,0,96
3,65,100,0
3,65,0,128
3,67,100,0
3,67,0,128
3,65,100,0
3,65,0,128
3,60,100,0
3,60,0,384
3,67,100,0
3,67,0,576
3,65,100,0
3,65,0,96
3,65,100,0
3,65,0,96
3,65,100,0
3,65,0,128
3,67,100,0
3,67,0,128
3,65,100,0
3,65,0,128
3,60,100,0
3,60,0,768
3,60,100,192
3,60,0,96
3,60,100,0
3,60,0,96
3,60,100,0
3,60,0,128
3,67,100,0
3,67,0,128
3,65,100,0
3,65,0,128
3,67,100,0
3,67,0,384
3,63,100,0
3,63,0,576
3,65,100,0
3,65,0,96
3,65,100,0
3,65,0,96
3,65,100,0
3,65,0,128
3,67,100,0
3,67,0,128
3,65,100,0
3,65,0,128
3,60,100,0
3,60,0,768
3,67,100,192
3,67,0,96
3,67,100,0
3,67,0,96
3,67,100,0
3,67,0,128
3,63,100,0
3,63,0,128
3,67,100,0
3,67,0,128
3,72,100,0
3,72,0,384
3,70,100,0
3,70,0,576
3,70,100,0
3,70,0,96
3,70,100,0
3,70,0,96
3,70,100,0
3,70,0,128
3,72,100,0
3,72,0,128
3,70,100,0
3,70,0,128
3,70,100,0
3,70,0,768
3,74,100,192
3,74,0,96
3,74,100,0
3,74,0,96
3,74,100,0
3,74,0,128
3,75,100,0
3,75,0,128
3,74,100,0
3,74,0,128
3,74,100,0
3,74,0,384
3,72,100,0
3,72,0,576
3,70,100,0
3,70,0,96
3,70,100,0
3,70,0,96
3,70,100,0
3,70,0,128
3,65,100,0
3,65,0,128
3,68,100,0
3,68,0,128
3,70,100,0
3,70,0,768
3,65,100,0
3,65,0,192
3,65,100,0
3,65,0,96
3,65,100,0
3,65,0,96
3,65,100,0
3,65,0,128
3,67,100,0
3,67,0,128
3,65,100,0
3,65,0,128
3,60,100,0
3,60,0,384
3,67,100,0
3,67,0,576
3,65,100,0
3,65,0,96
3,65,100,0
3,65,0,96
3,65,100,0
3,65,0,128
3,67,100,0
3,67,0,128
3,65,100,0
3,65,0,128
3,60,100,0
3,60,0,768
3,60,100,192
3,60,0,96
3,60,100,0
3,60,0,96
3,60,100,0
3,60,0,128
3,67,100,0
3,67,0,128
3,65,100,0
3,65,0,128
3,60,100,0
3,60,0,384
3,67,100,0
3,67,0,576
3,65,100,0
3,65,0,96
3,65,100,0
3,65,0,96
3,65,100,0
3,65,0,128
3,67,100,0
3,67,0,128
3,65,100,0
3,65,0,128
3,60,100,0
3,60,0,768
3,60,100,0
3,60,0,768
3,60,100,0
3,60,0,768
4,58,95,0
4,58,0,96
4,63,95,0
4,63,0,96
4,67,95,0
4,67,0,96
4,70,95,0
4,70,0,96
4,58,95,0
4,58,0,96
4,63,95,0
4,63,0,96
4,67,95,0
4,67,0,96
4,70,95,0
4,70,0,96
4,59,95,0
4,59,0,96
4,65,95,0
4,65,0,96
4,67,95,0
4,67,0,96
4,71,95,0
4,71,0,96
4,59,95,0
4,59,0,96
4,65,95,0
4,65,0,96
4,67,95,0
4,67,0,96
4,71,95,0
4,71,0,96
4,60,95,0
4,60,0,96
4,63,95,0
4,63,0,96
4,67,95,0
4,67,0,96
4,72,95,0
4,72,0,96
4,60,95,0
4,60,0,96
4,63,95,0
4,63,0,96
4,67,95,0
4,67,0,96
4,72,95,0
4,72,0,96
4,62,95,0
4,62,0,96
4,65,95,0
4,65,0,96
4,67,95,0
4,67,0,96
4,74,95,0
4,74,0,96
4,62,95,0
4,62,0,96
4,65,95,0
4,65,0,96
4,67,95,0
4,67,0,576
4,55,95,384
4,55,0,96
4,58,95,0
4,58,0,96
4,63,95,0
4,63,0,96
4,67,95,0
4,67,0,96
4,55,95,0
4,55,0,96
4,58,95,0
4,58,0,96
4,63,95,0
4,63,0,96
4,67,95,0
4,67,0,96
4,55,95,0
4,55,0,96
4,59,95,0
4,59,0,96
4,65,95,0
4,65,0,96
4,67,95,0
4,67,0,96
4,55,95,0
4,55,0,96
4,59,95,0
4,59,0,96
4,65,95,0
4,65,0,96
4,67,95,0
4,67,0,96
4,55,95,0
4,55,0,96
4,60,95,0
4,60,0,96
4,63,95,0
4,63,0,96
4,67,95,0
4,67,0,96
4,55,95,0
4,55,0,96
4,60,95,0
4,60,0,96
4,63,95,0
4,63,0,96
4,67,95,0
4,67,0,96
4,53,95,0
4,53,0,96
4,60,95,0
4,60,0,96
4,65,95,0
4,65,0,96
4,67,95,0
4,67,0,96
4,55,95,0
4,55,0,96
4,60,95,0
4,60,0,96
4,63,95,0
4,63,0,96
4,67,95,0
4,67,0,96
4,60,95,0
4,60,0,96
4,63,95,0
4,63,0,96
4,68,95,0
4,68,0,96
4,72,95,0
4,72,0,96
4,58,95,0
4,58,0,96
4,63,95,0
4,63,0,96
4,68,95,0
4,68,0,96
4,70,95,0
4,70,0,96
4,58,95,0
4,58,0,96
4,63,95,0
4,63,0,96
4,68,95,0
4,68,0,96
4,70,95,0
4,70,0,96
4,58,95,0
4,58,0,96
4,62,95,0
4,62,0,96
4,68,95,0
4,68,0,96
4,70,95,0
4,70,0,96
4,58,95,0
4,58,0,96
4,63,95,0
4,63,0,96
4,67,95,0
4,67,0,96
4,70,95,0
4,70,0,96
4,58,95,0
4,58,0,96
4,63,95,0
4,63,0,96
4,67,95,0
4,67,0,96
4,70,95,0
4,70,0,96
4,59,95,0
4,59,0,96
4,65,95,0
4,65,0,96
4,67,95,0
4,67,0,96
4,71,95,0
4,71,0,96
4,58,95,0
4,58,0,96
4,65,95,0
4,65,0,96
4,67,95,0
4,67,0,96
4,70,95,0
4,70,0,96
4,55,95,0
4,55,0,96
4,62,95,0
4,62,0,96
4,65,95,0
4,65,0,96
4,67,95,0
4,67,0,96
4,55,95,0
4,55,0,96
4,62,95,0
4,62,0,96
4,63,95,0
4,63,0,96
4,67,95,0
4,67,0,96
4,56,95,0
4,56,0,96
4,60,95,0
4,60,0,96
4,63,95,0
4,63,0,96
4,70,95,0
4,70,0,96
4,56,95,0
4,56,0,96
4,60,95,0
4,60,0,96
4,62,95,0
4,62,0,96
4,68,95,0
4,68,0,96
4,55,95,0
4,55,0,96
4,58,95,0
4,58,0,96
4,63,95,0
4,63,0,96
4,67,95,0
4,67,0,96
4,55,95,0
4,55,0,96
4,58,95,0
4,58,0,96
4,63,95,0
4,63,0,96
4,67,95,0
4,67,0,96
4,55,95,0
4,55,0,96
4,62,95,0
4,62,0,96
4,65,95,0
4,65,0,96
4,67,95,0
4,67,0,96
4,55,95,0
4,55,0,96
4,62,95,0
4,62,0,96
4,65,95,0
4,65,0,96
4,67,95,0
4,67,0,96
4,55,95,0
4,55,0,96
4,60,95,0
4,60,0,96
4,63,95,0
4,63,0,96
4,67,95,0
4,67,0,96
4,55,95,0
4,55,0,96
4,60,95,0
4,60,0,96
4,63,95,0
4,63,0,96
4,67,95,0
4,67,0,96
4,53,95,0
4,53,0,96
4,60,95,0
4,60,0,96
4,62,95,0
4,62,0,96
4,65,95,0
4,65,0,96
4,53,95,0
4,53,0,96
4,60,95,0
4,60,0,96
4,65,95,0
4,65,0,96
4,67,95,0
4,67,0,96
4,55,95,0
4,55,0,96
4,60,95,0
4,60,0,96
4,63,95,0
4,63,0,96
4,67,95,0
4,67,0,96
4,56,95,0
4,56,0,96
4,60,95,0
4,60,0,96
4,62,95,0
4,62,0,96
4,65,95,0
4,65,0,96
4,60,95,0
4,63,95,0
4,67,95,0
4,72,95,0
4,72,0,192
4,60,0,0
4,63,0,0
4,67,0,0
4,91,95,576
4,87,95,0
4,82,95,0
4,79,95,0
4,79,0,192
4,91,0,0
4,87,0,0
4,82,0,0
4,72,95,0
4,75,95,0
4,79,95,0
4,84,95,0
4,84,0,192
4,72,0,0
4,75,0,0
4,79,0,0
4,67,95,0
4,70,95,0
4,75,95,0
4,79,95,0
4,79,0,192
4,67,0,0
4,70,0,0
4,75,0,0
4,67,95,0
4,63,95,0
4,70,95,0
4,75,95,0
4,75,0,192
4,67,0,0
4,63,0,0
4,70,0,0
4,68,95,0
4,60,95,0
4,65,95,0
4,72,95,0
4,72,0,384
4,68,0,0
4,60,0,0
4,65,0,0
4,59,95,0
4,67,95,0
4,65,95,0
4,71,95,0
4,71,0,384
4,59,0,0
4,67,0,0
4,65,0,0
4,86,95,0
4,79,95,0
4,77,95,0
4,74,95,0
4,74,0,192
4,86,0,0
4,79,0,0
4,77,0,0
4,75,95,0
4,84,95,0
4,79,95,0
4,72,95,0
4,72,0,192
4,75,0,0
4,84,0,0
4,79,0,0
4,75,95,0
4,79,95,0
4,72,95,0
4,67,95,0
4,67,0,192
4,75,0,0
4,79,0,0
4,72,0,0
4,67,95,0
4,72,95,0
4,63,95,0
4,75,95,0
4,75,0,192
4,67,0,0
4,72,0,0
4,63,0,0
4,62,95,0
4,67,95,0
4,65,95,0
4,74,95,0
4,74,0,384
4,62,0,0
4,67,0,0
4,65,0,0
4,63,95,0
4,60,95,0
4,67,95,0
4,74,95,0
4,74,0,384
4,63,0,0
4,60,0,0
4,67,0,0
4,72,95,0
4,84,95,0
4,80,95,0
4,75,95,0
4,75,0,192
4,72,0,0
4,84,0,0
4,80,0,0
4,80,95,0
4,75,95,0
4,68,95,0
4,72,95,0
4,72,0,192
4,80,0,0
4,75,0,0
4,68,0,0
4,72,95,0
4,63,95,0
4,68,95,0
4,75,95,0
4,75,0,192
4,72,0,0
4,63,0,0
4,68,0,0
4,63,95,0
4,68,95,0
4,72,95,0
4,60,95,0
4,60,0,192
4,63,0,0
4,68,0,0
4,72,0,0
4,62,95,0
4,67,95,0
4,74,95,0
4,70,95,0
4,70,0,384
4,62,0,0
4,67,0,0
4,74,0,0
4,66,95,0
4,70,95,0
4,62,95,0
4,74,95,0
4,74,0,384
4,66,0,0
4,70,0,0
4,62,0,0
4,86,95,0
4,82,95,0
4,79,95,0
4,74,95,0
4,74,0,192
4,86,0,0
4,82,0,0
4,79,0,0
4,70,95,0
4,82,95,0
4,79,95,0
4,74,95,0
4,74,0,192
4,70,0,0
4,82,0,0
4,79,0,0
4,67,95,0
4,79,95,0
4,74,95,0
4,70,95,0
4,70,0,128
4,67,0,0
4,79,0,0
4,74,0,0
4,70,95,0
4,74,95,0
4,67,95,0
4,62,95,0
4,62,0,128
4,70,0,0
4,74,0,0
4,67,0,0
4,67,95,0
4,62,95,0
4,58,95,0
4,70,95,0
4,70,0,128
4,67,0,0
4,62,0,0
4,58,0,0
4,59,95,0
4,67,95,0
4,65,95,0
4,71,95,0
4,71,0,768
4,59,0,0
4,67,0,0
4,65,0,0
4,74,95,0
4,74,0,64
4,77,95,0
4,77,0,64
4,79,95,0
4,79,0,64
4,86,95,0
4,86,0,64
4,79,95,0
4,79,0,64
4,77,95,0
4,77,0,64
4,72,95,0
4,72,0,64
4,75,95,0
4,75,0,64
4,79,95,0
4,79,0,64
4,84,95,0
4,84,0,64
4,79,95,0
4,79,0,64
4,75,95,0
4,75,0,64
4,72,95,0
4,72,0,64
4,75,95,0
4,75,0,64
4,80,95,0
4,80,0,64
4,82,95,0
4,82,0,64
4,80,95,0
4,80,0,64
4,75,95,0
4,75,0,64
4,70,95,0
4,70,0,64
4,74,95,0
4,74,0,64
4,80,95,0
4,80,0,64
4,82,95,0
4,82,0,64
4,80,95,0
4,80,0,64
4,74,95,0
4,74,0,64
