track,note,velocity,time
1,31,107,1536
1,31,0,16
1,36,107,0
1,36,0,432
1,35,98,128
1,35,0,176
1,36,89,16
1,36,0,176
1,38,89,16
1,38,0,176
1,36,93,16
1,36,0,176
1,35,93,16
1,35,0,176
1,33,93,16
1,33,0,320
1,31,102,256
1,31,0,176
1,33,93,16
1,33,0,176
1,31,89,16
1,31,0,176
1,33,89,16
1,33,0,176
1,35,93,16
1,35,0,176
1,36,93,16
1,36,0,320
1,35,98,256
1,35,0,176
1,36,89,16
1,36,0,160
1,38,89,32
1,38,0,176
1,36,89,16
1,36,0,176
1,35,93,16
1,35,0,176
1,33,93,16
1,33,0,256
1,33,107,128
1,33,0,160
1,35,89,32
1,35,0,144
1,36,85,0
1,36,0,336
1,36,102,240
1,36,0,496
1,31,107,272
1,31,0,144
1,36,107,48
1,36,0,416
1,36,113,160
1,36,0,80
1,36,98,496
1,36,0,176
1,36,85,788
1,36,0,336
1,36,102,240
1,36,0,496
1,31,107,272
1,31,0,144
1,36,98,48
1,36,0,352
1,36,89,224
1,36,0,560
1,38,85,400
1,38,0,336
1,38,102,240
1,38,0,496
1,33,107,272
1,33,0,144
1,38,98,48
1,38,0,352
1,38,89,224
1,38,0,560
1,31,85,400
1,31,0,336
1,31,102,240
1,31,0,496
1,38,107,272
1,38,0,144
1,31,98,48
1,31,0,352
1,31,89,224
1,31,0,560
1,36,85,400
1,36,0,336
1,36,102,240
1,36,0,496
1,31,107,272
1,31,0,144
1,36,98,48
1,36,0,352
1,36,89,224
1,36,0,560
1,36,85,400
1,36,0,336
1,36,102,240
1,36,0,496
1,31,107,272
1,31,0,144
1,36,98,48
1,36,0,352
1,36,89,224
1,36,0,560
1,38,85,400
1,38,0,336
1,38,102,240
1,38,0,496
1,33,107,272
1,33,0,144
1,38,98,48
1,38,0,352
1,38,89,224
1,38,0,560
1,31,85,400
1,31,0,336
1,31,102,240
1,31,0,496
1,38,107,272
1,38,0,144
1,31,98,48
1,31,0,352
1,31,89,224
1,31,0,560
1,36,85,400
1,36,0,336
1,36,102,240
1,36,0,496
1,31,107,272
1,31,0,144
1,36,98,48
1,36,0,352
1,36,93,224
1,36,0,64
1,36,102,896
1,36,0,416
1,28,107,160
1,28,0,496
1,31,102,80
1,31,0,320
1,36,119,64
1,36,0,304
1,28,107,272
1,28,0,320
1,31,89,64
1,31,0,160
1,33,89,32
1,33,0,176
1,31,98,16
1,31,0,144
1,38,98,0
1,38,0,16
1,38,102,32
1,38,0,416
1,29,107,160
1,29,0,496
1,33,102,80
1,33,0,320
1,38,119,64
1,38,0,304
1,29,107,272
1,29,0,320
1,33,89,64
1,33,0,160
1,34,89,32
1,34,0,176
1,33,98,16
1,33,0,160
1,31,98,0
1,31,0,3
1,31,102,29
1,31,0,416
1,35,107,160
1,35,0,496
1,38,102,80
1,38,0,320
1,31,119,64
1,31,0,304
1,35,107,272
1,35,0,320
1,38,89,64
1,38,0,160
1,28,89,32
1,28,0,176
1,38,98,16
1,38,0,160
1,36,102,32
1,36,0,416
1,28,107,160
1,28,0,496
1,31,102,80
1,31,0,320
1,36,119,64
1,36,0,304
1,28,107,272
1,28,0,320
1,31,89,64
1,31,0,160
1,33,89,32
1,33,0,176
1,31,98,16
1,31,0,160
1,36,102,32
1,36,0,416
1,28,107,160
1,28,0,496
1,31,102,80
1,31,0,320
1,36,119,64
1,36,0,304
1,28,107,272
1,28,0,320
1,31,89,64
1,31,0,160
1,33,89,32
1,33,0,176
1,31,98,16
1,31,0,160
1,38,102,32
1,38,0,416
1,29,107,160
1,29,0,496
1,33,102,80
1,33,0,320
1,38,119,64
1,38,0,304
1,29,107,272
1,29,0,320
1,33,89,64
1,33,0,160
1,34,89,32
1,34,0,176
1,33,98,16
1,33,0,160
1,31,102,32
1,31,0,416
1,35,107,160
1,35,0,496
1,38,102,80
1,38,0,320
1,31,119,64
1,31,0,304
1,35,107,272
1,35,0,320
1,38,89,64
1,38,0,160
1,28,89,32
1,28,0,176
1,38,98,16
1,38,0,160
1,36,102,32
1,36,0,416
1,28,107,160
1,28,0,496
1,31,102,80
1,31,0,320
1,36,119,64
1,36,0,304
1,36,85,1232
1,36,0,336
1,36,102,240
1,36,0,496
1,31,107,272
1,31,0,144
1,36,98,48
1,36,0,352
1,36,89,224
1,36,0,560
1,38,85,400
1,38,0,336
1,38,102,240
1,38,0,496
1,33,107,272
1,33,0,144
1,38,98,48
1,38,0,352
1,38,89,224
1,38,0,560
1,31,85,400
1,31,0,336
1,31,102,240
1,31,0,496
1,38,107,272
1,38,0,144
1,31,98,48
1,31,0,352
1,31,89,224
1,31,0,560
1,36,85,400
1,36,0,336
1,36,102,240
1,36,0,496
1,31,107,272
1,31,0,144
1,36,98,48
1,36,0,352
1,36,89,224
1,36,0,560
1,36,85,400
1,36,0,336
1,36,102,240
1,36,0,496
1,31,107,272
1,31,0,144
1,36,98,48
1,36,0,352
1,36,89,224
1,36,0,560
1,38,85,400
1,38,0,336
1,38,102,240
1,38,0,496
1,33,107,272
1,33,0,144
1,38,98,48
1,38,0,352
1,38,89,224
1,38,0,560
1,31,85,400
1,31,0,336
1,31,102,240
1,31,0,496
1,38,107,272
1,38,0,144
1,31,98,48
1,31,0,352
1,31,89,224
1,31,0,560
1,36,85,400
1,36,0,336
1,36,102,240
1,36,0,496
1,31,107,272
1,31,0,144
1,36,98,48
1,36,0,352
1,36,93,224
1,36,0,64
1,36,102,896
1,36,0,416
1,28,107,160
1,28,0,496
1,31,102,80
1,31,0,320
1,36,119,64
1,36,0,304
1,28,107,272
1,28,0,320
1,31,89,64
1,31,0,160
1,33,89,32
1,33,0,176
1,31,98,16
1,31,0,160
1,38,98,0
1,38,0,3
1,38,102,29
1,38,0,416
1,29,107,160
1,29,0,496
1,33,102,80
1,33,0,320
1,38,119,64
1,38,0,304
1,29,107,272
1,29,0,320
1,33,89,64
1,33,0,160
1,34,89,32
1,34,0,176
1,33,98,16
1,33,0,160
1,31,98,0
1,31,0,3
1,31,102,29
1,31,0,416
1,35,107,160
1,35,0,496
1,38,102,80
1,38,0,320
1,31,119,64
1,31,0,304
1,35,107,272
1,35,0,320
1,38,89,64
1,38,0,160
1,28,89,32
1,28,0,176
1,38,98,16
1,38,0,160
1,36,102,32
1,36,0,416
1,28,107,160
1,28,0,496
1,31,102,80
1,31,0,320
1,36,119,64
1,36,0,304
1,28,107,272
1,28,0,320
1,31,89,64
1,31,0,160
1,33,89,32
1,33,0,176
1,31,98,16
1,31,0,160
1,36,102,32
1,36,0,416
1,28,107,160
1,28,0,496
1,31,102,80
1,31,0,320
1,36,119,64
1,36,0,304
1,28,107,272
1,28,0,320
1,31,89,64
1,31,0,160
1,33,89,32
1,33,0,176
1,31,98,16
1,31,0,160
1,38,98,0
1,38,0,3
1,38,102,29
1,38,0,416
1,29,107,160
1,29,0,496
1,33,102,80
1,33,0,320
1,38,119,64
1,38,0,304
1,29,107,272
1,29,0,320
1,33,89,64
1,33,0,160
1,34,89,32
1,34,0,176
1,33,98,16
1,33,0,160
1,31,98,0
1,31,0,3
1,31,102,29
1,31,0,416
1,35,107,160
1,35,0,496
1,38,102,80
1,38,0,320
1,31,119,64
1,31,0,304
1,35,107,272
1,35,0,320
1,38,89,64
1,38,0,160
1,28,89,32
1,28,0,176
1,38,98,16
1,38,0,160
1,36,102,32
1,36,0,416
1,28,107,160
1,28,0,496
1,31,102,80
1,31,0,320
1,36,119,64
1,36,0,304
1,28,107,272
1,28,0,320
1,31,89,64
1,31,0,160
1,33,89,32
1,33,0,176
1,31,98,16
1,31,0,160
1,36,102,32
1,36,0,416
1,28,107,160
1,28,0,496
1,31,102,80
1,31,0,320
1,36,119,64
1,36,0,304
1,28,107,272
1,28,0,320
1,31,89,64
1,31,0,160
1,33,89,32
1,33,0,176
1,31,98,16
1,31,0,160
1,38,98,0
1,38,0,3
1,38,102,29
1,38,0,416
1,29,107,160
1,29,0,496
1,33,102,80
1,33,0,320
1,38,119,64
1,38,0,304
1,29,107,272
1,29,0,320
1,33,89,64
1,33,0,160
1,34,89,32
1,34,0,176
1,33,98,16
1,33,0,160
1,31,98,0
1,31,0,3
1,31,102,29
1,31,0,416
1,35,107,160
1,35,0,496
1,38,102,80
1,38,0,320
1,31,119,64
1,31,0,304
1,35,107,272
1,35,0,320
1,38,89,64
1,38,0,160
1,28,89,32
1,28,0,176
1,38,98,16
1,38,0,160
1,36,102,32
1,36,0,416
1,28,107,160
1,28,0,496
1,31,102,80
1,31,0,320
1,36,119,64
1,36,0,304
1,28,107,272
1,28,0,320
1,31,89,64
1,31,0,160
1,33,89,32
1,33,0,176
1,31,98,16
1,31,0,160
1,36,102,32
1,36,0,416
1,28,107,160
1,28,0,496
1,31,102,80
1,31,0,320
1,36,119,64
1,36,0,304
1,28,107,272
1,28,0,320
1,31,89,64
1,31,0,160
1,33,89,32
1,33,0,176
1,31,98,16
1,31,0,160
1,38,98,0
1,38,0,3
1,38,102,29
1,38,0,416
1,29,107,160
1,29,0,496
1,33,102,80
1,33,0,320
1,38,119,64
1,38,0,304
1,29,107,272
1,29,0,320
1,33,89,64
1,33,0,160
1,34,89,32
1,34,0,176
1,33,98,16
1,33,0,160
1,31,98,0
1,31,0,3
1,31,102,29
1,31,0,416
1,35,107,160
1,35,0,496
1,38,102,80
1,38,0,320
1,31,119,64
1,31,0,304
1,35,107,272
1,35,0,320
1,38,89,64
1,38,0,160
1,28,89,32
1,28,0,176
1,38,98,16
1,38,0,160
1,36,102,32
1,36,0,416
1,28,107,160
1,28,0,496
1,31,102,80
1,31,0,320
1,36,119,64
1,36,0,304
1,28,107,272
1,28,0,320
1,31,89,64
1,31,0,160
1,33,89,32
1,33,0,176
1,31,98,16
1,31,0,160
1,36,102,32
1,36,0,416
1,28,107,160
1,28,0,496
1,31,102,80
1,31,0,320
1,36,119,64
1,36,0,304
1,28,107,272
1,28,0,320
1,31,89,64
1,31,0,160
1,33,89,32
1,33,0,176
1,31,98,16
1,31,0,160
1,38,98,0
1,38,0,3
1,38,102,29
1,38,0,416
1,29,107,160
1,29,0,496
1,33,102,80
1,33,0,320
1,38,119,64
1,38,0,304
1,29,107,272
1,29,0,320
1,33,89,64
1,33,0,160
1,34,89,32
1,34,0,176
1,33,98,16
1,33,0,160
1,31,102,32
1,31,0,416
1,35,107,160
1,35,0,496
1,38,102,80
1,38,0,320
1,31,119,64
1,31,0,304
1,35,107,272
1,35,0,320
1,38,89,64
1,38,0,160
1,28,89,32
1,28,0,176
1,38,98,16
1,38,0,160
1,36,102,32
1,36,0,416
1,28,107,160
1,28,0,496
1,31,102,80
1,31,0,320
1,36,119,64
1,36,0,304
1,28,107,272
1,28,0,320
1,31,89,64
1,31,0,160
1,33,89,32
1,33,0,176
1,31,98,16
1,31,0,160
1,36,107,32
1,36,0,416
1,36,113,160
1,36,0,80
1,36,98,496
1,36,0,176
2,64,85,10431
2,64,0,106
2,64,78,78
2,64,0,158
2,67,87,41
2,67,0,173
2,64,80,2
2,60,89,202
2,64,0,9
2,60,0,99
2,60,80,279
2,60,0,90
2,60,82,303
2,60,0,100
2,60,78,86
2,60,0,248
2,60,85,149
2,60,0,559
2,64,80,358
2,64,0,134
2,67,68,35
2,67,0,195
2,65,64,12
2,65,0,165
2,64,70,27
2,64,0,179
2,62,80,18
2,62,0,151
2,62,89,250
2,62,0,141
2,62,89,242
2,62,0,148
2,64,76,58
2,64,0,358
2,57,82,71
2,57,0,447
2,62,89,427
2,64,72,169
2,62,0,5
2,64,0,166
2,62,82,31
2,62,0,131
2,60,70,46
2,60,0,183
2,62,85,38
2,62,0,148
2,62,91,254
2,62,0,180
2,62,89,197
2,62,0,152
2,64,74,52
2,64,0,295
2,55,80,61
2,55,0,602
2,55,85,350
2,55,0,173
2,57,70,24
2,57,0,150
2,59,82,46
2,59,0,117
2,59,87,74
2,59,0,143
2,60,87,83
2,60,0,196
2,60,85,188
2,60,0,179
2,60,66,186
2,60,0,118
2,64,85,68
2,64,0,327
2,55,70,35
2,55,0,572
2,64,87,302
2,64,0,183
2,64,85,111
2,64,0,187
2,67,76,25
2,67,0,150
2,64,72,32
2,60,80,195
2,64,0,36
2,60,0,97
2,60,85,252
2,60,0,113
2,60,85,291
2,60,0,103
2,60,61,81
2,60,0,252
2,60,87,131
2,60,0,449
2,64,85,311
2,64,0,246
2,67,72,98
2,65,74,199
2,67,0,15
2,65,0,145
2,64,66,31
2,64,0,185
2,62,76,18
2,62,0,236
2,62,87,165
2,62,0,102
2,62,76,85
2,62,0,103
2,62,76,87
2,62,0,123
2,64,68,92
2,64,0,329
2,57,74,50
2,57,0,673
2,62,89,134
2,64,89,342
2,62,0,23
2,64,0,147
2,62,80,14
2,62,0,177
2,60,68,2
2,60,0,176
2,62,85,32
2,62,0,198
2,62,87,199
2,62,0,75
2,62,93,102
2,62,0,99
2,62,78,80
2,62,0,199
2,64,82,6
2,64,0,345
2,55,85,28
2,55,0,539
2,57,80,277
2,59,85,324
2,57,0,51
2,60,82,150
2,59,0,45
2,57,85,153
2,60,0,34
2,57,0,163
2,60,82,10
2,60,0,98
2,60,89,294
2,60,0,89
2,60,91,103
2,60,0,72
2,60,91,122
2,60,0,80
2,60,93,110
2,60,0,240
2,60,98,126
2,60,0,305
2,67,91,493
2,67,0,242
2,67,89,55
2,67,0,140
2,67,58,73
2,69,107,16
2,67,0,22
2,67,98,188
2,69,0,35
2,67,0,143
2,69,82,11
2,67,85,252
2,69,0,35
2,67,0,75
2,69,93,591
2,69,0,383
2,67,85,14
2,69,78,188
2,67,0,29
2,67,91,173
2,69,0,35
2,67,0,67
2,67,82,322
2,69,82,324
2,67,0,42
2,69,0,132
2,69,70,50
2,69,0,49
2,71,85,90
2,69,98,226
2,71,0,37
2,69,0,86
2,69,98,230
2,69,0,91
2,69,89,90
2,69,0,80
2,69,93,119
2,69,0,167
2,71,87,23
2,71,0,343
2,69,87,11
2,69,0,377
2,69,89,410
2,69,0,285
2,69,80,63
2,71,91,213
2,69,0,39
2,72,82,151
2,71,0,66
2,72,0,80
2,72,91,61
2,71,64,313
2,72,0,51
2,71,0,129
2,71,89,474
2,71,0,59
2,69,62,60
2,69,0,51
2,69,85,64
2,67,72,153
2,69,0,31
2,67,0,177
2,67,87,181
2,67,0,254
2,67,82,79
2,67,0,180
2,69,91,34
2,69,0,157
2,71,91,22
2,71,0,166
2,72,95,34
2,72,0,255
2,72,98,115
2,72,0,98
2,72,98,85
2,72,0,112
2,72,89,100
2,67,87,202
2,72,0,36
2,67,0,230
2,69,76,69
2,67,76,376
2,69,0,27
2,67,0,224
2,67,91,169
2,67,0,242
2,67,89,55
2,67,0,140
2,67,58,73
2,69,107,16
2,67,0,22
2,67,98,188
2,69,0,35
2,67,0,143
2,69,82,11
2,67,85,252
2,69,0,35
2,67,0,75
2,69,93,591
2,69,0,383
2,67,85,14
2,69,78,188
2,67,0,29
2,67,91,173
2,69,0,35
2,67,0,67
2,67,82,322
2,69,82,324
2,67,0,42
2,69,0,132
2,69,70,50
2,69,0,49
2,71,85,90
2,69,98,226
2,71,0,37
2,69,0,86
2,69,98,230
2,69,0,91
2,69,89,90
2,69,0,80
2,69,93,119
2,69,0,167
2,71,87,23
2,71,0,343
2,69,87,11
2,69,0,377
2,69,89,410
2,69,0,285
2,69,80,63
2,71,91,213
2,69,0,39
2,72,82,151
2,71,0,66
2,72,0,80
2,72,91,61
2,71,64,313
2,72,0,51
2,71,0,129
2,71,89,474
2,71,0,59
2,69,62,60
2,69,0,51
2,69,85,64
2,67,72,153
2,69,0,31
2,67,0,177
2,67,87,181
2,67,0,254
2,67,82,79
2,67,0,180
2,69,91,34
2,69,0,157
2,71,91,22
2,71,0,166
2,72,95,34
2,72,0,255
2,72,98,115
2,72,0,98
2,72,98,94
2,72,0,112
2,72,89,80
2,72,0,192
2,72,87,0
2,72,0,266
2,72,76,118
2,72,0,403
