track,note,velocity,time
1,60,73,384
1,60,60,46
1,60,103,42
1,60,82,56
1,62,109,48
1,62,89,154
1,60,97,150
1,60,95,40
1,60,94,46
1,60,99,50
1,58,108,64
1,58,94,156
1,60,105,146
1,60,81,48
1,60,98,46
1,60,91,52
1,62,109,56
1,60,97,162
1,58,105,136
1,60,105,150
1,55,111,160
1,55,90,122
1,55,87,38
1,55,80,56
1,55,97,44
1,56,97,66
1,58,103,154
1,56,100,122
1,55,99,144
1,55,101,142
1,53,92,148
1,53,90,152
1,53,87,38
1,53,80,56
1,53,97,44
1,55,111,64
1,53,101,146
1,55,101,140
1,50,103,138
1,36,108,150
1,48,107,6
1,62,92,2
1,63,75,4
1,65,81,20
1,67,92,10
1,68,81,30
1,70,98,36
1,59,59,2
1,72,97,2
1,68,70,34
1,72,107,2
1,72,103,34
1,65,67,18
1,72,100,4
1,68,73,18
1,74,110,36
1,58,97,12
1,67,80,66
1,74,111,42
1,64,63,20
1,67,82,2
1,72,108,28
1,57,89,2
1,66,83,46
1,72,92,2
1,72,111,26
1,63,75,22
1,72,89,10
1,66,68,14
1,70,107,4
1,56,95,0
1,65,95,80
1,70,98,28
1,62,80,24
1,65,84,2
1,72,111,4
1,55,101,0
1,72,108,44
1,64,94,18
1,72,88,10
1,58,98,10
1,72,92,50
1,64,73,8
1,74,110,4
1,54,87,10
1,63,81,74
1,72,108,70
1,57,80,4
1,63,71,46
1,70,109,16
1,53,87,18
1,62,84,48
1,72,111,12
1,56,83,2
1,62,68,34
1,67,115,30
1,52,81,14
1,61,83,0
1,58,90,16
1,61,69,34
1,51,81,18
1,67,108,8
1,61,73,42
1,67,95,4
1,67,104,8
1,58,87,12
1,61,75,24
1,67,92,6
1,68,98,6
1,50,92,6
1,60,76,32
1,56,77,26
1,70,101,18
1,60,59,6
1,49,79,34
1,68,90,10
1,59,62,24
1,55,70,60
1,67,96,0
1,59,55,40
1,67,100,30
1,50,83,14
1,60,83,66
1,56,75,26
1,65,90,12
1,60,66,30
1,56,69,48
1,65,95,8
1,61,70,34
1,65,59,8
1,59,57,24
1,65,59,6
1,65,88,24
1,61,78,0
1,67,95,42
1,55,65,14
1,60,76,28
1,65,106,40
1,56,82,4
1,60,75,30
1,67,95,54
1,43,69,10
1,59,81,36
1,55,88,52
1,62,99,10
1,59,69,14
1,60,105,80
1,48,93,4
1,63,96,188
1,63,75,46
1,63,77,48
1,63,84,48
1,65,106,66
1,65,86,160
1,63,88,132
1,63,75,46
1,63,65,48
1,63,50,30
1,61,83,38
1,66,72,74
1,68,77,32
1,63,64,12
1,67,67,48
1,70,88,38
1,69,79,20
1,67,68,54
1,72,74,0
1,70,86,16
1,63,56,8
1,73,80,26
1,72,74,48
1,70,68,10
1,75,73,14
1,67,41,16
1,73,73,18
1,61,71,2
1,77,61,12
1,75,61,38
1,70,62,26
1,79,74,4
1,67,53,28
1,82,89,0
1,60,52,42
1,82,76,22
1,68,43,170
1,75,54,6
1,63,43,0
1,74,73,96
1,63,46,0
1,79,63,8
1,72,52,34
1,71,50,26
1,80,70,4
1,75,49,14
1,72,53,12
1,84,98,28
1,63,55,16
1,74,61,4
1,82,79,8
1,72,66,10
1,71,40,58
1,75,64,4
1,80,47,10
1,72,64,20
1,63,52,44
1,79,70,12
1,74,54,6
1,72,54,16
1,80,70,52
1,75,56,4
1,71,45,0
1,72,47,54
1,86,105,18
1,74,92,4
1,63,61,4
1,79,71,4
1,73,54,64
1,87,83,0
1,75,59,10
1,79,56,6
1,73,45,52
1,86,105,48
1,74,92,4
1,79,69,6
1,63,53,12
1,73,48,28
1,87,83,4
1,75,57,8
1,79,60,2
1,67,15,0
1,73,45,32
1,86,107,16
1,74,94,4
1,63,60,6
1,79,83,4
1,73,49,20
1,79,89,36
1,87,99,0
1,75,83,2
1,67,34,18
1,73,65,0
1,63,67,16
1,79,92,10
1,73,58,14
1,82,103,4
1,67,34,18
1,85,78,6
1,89,85,6
1,73,57,4
1,89,89,4
1,80,106,4
1,63,71,12
1,72,76,24
1,68,70,46
1,87,85,12
1,80,75,6
1,72,75,38
1,62,101,70
1,62,108,34
1,62,52,30
1,62,52,48
1,63,107,64
1,63,89,46
1,63,89,36
1,63,60,22
1,62,106,32
1,62,95,40
1,62,91,48
1,62,100,40
1,60,105,90
1,77,82,124
1,69,57,44
1,62,58,4
1,66,49,0
1,79,72,2
1,78,77,38
1,81,80,36
1,80,73,48
1,69,55,20
1,66,35,2
1,62,42,8
1,83,69,4
1,81,82,38
1,62,97,48
1,84,72,12
1,83,65,34
1,86,76,34
1,69,54,14
1,66,48,2
1,84,92,34
1,88,92,46
1,60,78,6
1,86,89,56
1,90,83,6
1,66,66,32
1,69,63,8
1,93,100,34
1,93,94,76
1,59,73,4
1,62,58,80
1,86,78,2
1,71,48,2
1,73,78,58
1,62,63,0
1,78,73,4
1,71,60,36
1,70,75,40
1,79,69,6
1,74,44,12
1,71,48,28
1,83,70,20
1,73,75,10
1,62,69,4
1,81,79,14
1,71,61,26
1,70,68,46
1,74,56,12
1,79,63,4
1,71,46,38
1,73,67,36
1,62,59,6
1,78,56,0
1,71,52,46
1,70,71,40
1,79,65,0
1,74,30,16
1,71,48,26
1,78,80,20
1,73,71,4
1,85,79,2
1,62,51,26
1,72,81,28
1,78,72,24
1,74,73,2
1,86,92,0
1,66,23,2
1,72,74,6
1,73,90,28
1,85,91,2
1,78,80,0
1,62,59,14
1,72,74,28
1,74,94,34
1,86,97,2
1,78,73,4
1,66,40,12
1,72,61,4
1,73,97,24
1,85,102,0
1,78,80,12
1,62,59,6
1,72,73,28
1,86,100,34
1,78,79,2
1,74,80,0
1,66,53,4
1,72,66,38
1,90,105,18
1,62,74,24
1,72,64,8
1,88,78,16
1,66,54,42
1,84,80,4
1,72,69,24
1,81,63,10
1,71,81,46
1,79,103,2
1,67,92,2
1,74,50,12
1,55,109,156
1,55,110,52
1,55,90,58
1,55,84,56
1,56,111,46
1,55,97,164
1,53,109,138
1,55,98,148
1,50,98,118
1,55,101,34
1,55,77,56
1,55,105,42
1,53,105,44
1,55,97,152
1,51,97,130
1,48,95,136
1,50,91,132
1,51,92,132
1,53,104,134
1,46,97,92
1,70,100,14
1,52,88,16
1,70,105,34
1,53,67,0
1,70,93,50
1,54,83,16
1,70,101,16
1,55,88,10
1,72,108,24
1,56,94,2
1,58,104,92
1,70,96,8
1,68,81,116
1,60,76,10
1,70,91,112
1,61,80,4
1,65,87,110
1,62,66,8
1,70,83,38
1,68,95,24
1,58,100,8
1,70,110,2
1,70,109,38
1,60,91,10
1,68,92,10
1,62,90,126
1,70,96,2
1,63,80,136
1,67,76,4
1,60,93,108
1,64,94,10
1,72,110,92
1,65,105,10
1,62,94,2
1,72,95,10
1,72,100,48
1,67,81,18
1,64,47,8
1,72,97,10
1,73,106,34
1,68,101,2
1,65,94,2
1,72,100,6
1,71,81,44
1,67,92,2
1,70,91,4
1,72,102,34
1,72,111,56
1,62,98,4
1,80,103,2
1,68,90,6
1,65,95,0
1,80,95,34
1,65,95,28
1,72,105,4
1,80,85,0
1,62,86,4
1,68,76,6
1,80,93,26
1,84,110,40
1,82,115,12
1,63,102,6
1,72,113,6
1,66,95,2
1,68,90,0
1,80,105,74
1,63,81,6
1,72,104,4
1,68,83,4
1,66,82,0
1,79,114,106
1,74,106,8
1,68,87,0
1,65,91,4
1,70,91,2
1,84,113,92
1,82,116,4
1,74,100,12
1,65,98,2
1,68,86,2
1,70,84,4
1,80,112,78
1,75,86,8
1,72,68,4
1,68,64,6
1,66,64,20
1,66,31,128
1,50,94,16
1,68,69,14
1,53,69,18
1,51,85,18
1,66,44,4
1,68,69,10
1,54,72,10
1,53,75,58
1,66,59,8
1,68,66,2
1,56,73,16
1,54,69,56
1,66,50,12
1,68,56,6
1,58,84,10
1,57,58,62
1,66,44,2
1,68,52,4
1,60,64,14
1,58,87,26
1,66,54,4
1,68,58,4
1,61,67,34
1,66,54,48
1,60,67,6
1,68,58,14
1,63,70,4
1,63,58,62
1,65,64,12
1,68,51,0
1,56,59,30
1,68,63,12
1,65,63,2
1,61,78,134
1,71,62,4
1,73,96,2
1,63,58,6
1,73,78,4
1,73,94,38
1,71,70,12
1,61,70,2
1,64,83,0
1,73,98,8
1,77,76,34
1,61,79,20
1,75,101,0
1,65,87,4
1,71,70,4
1,73,83,100
1,71,65,2
1,61,76,4
1,66,67,0
1,76,95,112
1,73,86,2
1,61,78,10
1,71,65,2
1,67,45,16
1,73,84,88
1,61,83,0
1,77,100,2
1,68,17,18
1,86,119,118
1,79,108,8
1,43,104,2
1,76,102,0
1,84,99,68
1,60,85,2
1,64,77,4
1,55,76,2
1,76,63,8
1,79,64,0
1,78,96,122
1,76,88,0
1,55,88,4
1,72,83,0
1,67,76,76
1,81,97,4
1,72,92,10
1,79,94,8
1,66,81,0
1,76,22,0
1,67,47,44
1,77,100,4
1,78,91,6
1,71,76,4
1,55,91,10
1,67,63,50
1,81,102,24
1,71,74,14
1,79,95,4
1,66,69,2
1,77,74,2
1,67,62,38
1,55,89,52
1,83,103,0
1,71,74,4
1,67,77,2
1,81,79,14
1,77,92,38
1,66,64,4
1,74,89,32
1,67,58,12
1,72,106,34
1,64,88,6
1,60,86,0
1,67,95,2
1,60,110,222
1,48,108,4
1,60,102,38
1,63,84,38
1,67,74,12
1,60,93,6
1,62,119,76
1,50,111,6
1,62,99,154
1,67,89,4
1,63,85,2
1,60,105,136
1,48,105,4
1,60,42,66
1,63,76,24
1,67,80,2
1,60,81,30
1,58,116,58
1,46,113,4
1,58,92,140
1,67,82,10
1,63,61,12
1,60,90,142
1,48,80,2
1,60,95,38
1,63,72,36
1,67,45,12
1,60,77,10
1,62,104,52
1,50,94,8
1,60,92,146
1,63,85,2
1,67,83,4
1,58,105,138
1,46,103,4
1,63,92,144
1,60,97,4
1,67,97,0
1,55,111,166
1,43,111,0
1,55,101,50
1,43,95,0
1,55,80,44
1,63,79,10
1,60,80,8
1,55,81,24
1,56,100,58
1,44,97,2
1,58,97,158
1,63,65,4
1,60,66,8
1,56,95,128
1,44,89,2
1,63,79,140
1,55,95,0
1,60,85,4
1,55,103,134
1,43,105,2
1,62,87,138
1,53,87,2
1,60,89,2
1,53,102,128
1,41,97,6
1,53,80,40
1,60,86,0
1,62,76,18
1,53,75,14
1,55,108,42
1,43,101,6
1,53,83,142
1,62,85,6
1,59,77,2
1,55,107,116
1,43,100,2
1,50,100,138
1,36,113,164
1,48,117,0
1,74,100,4
1,75,76,46
1,77,87,34
1,79,89,16
1,80,79,38
1,82,95,24
1,71,60,20
1,84,87,0
1,80,88,22
1,84,110,8
1,84,101,50
1,77,81,6
1,80,80,22
1,84,99,6
1,86,98,14
1,70,87,10
1,79,57,18
1,86,106,46
1,76,70,18
1,98,115,12
1,79,74,10
1,69,83,56
1,84,111,8
1,78,79,66
1,84,87,42
1,75,68,4
1,78,74,30
1,84,103,20
1,82,116,6
1,68,83,16
1,77,66,70
1,82,112,2
1,74,81,32
1,94,113,4
1,77,93,48
1,84,108,52
1,67,93,0
1,84,108,40
1,76,88,8
1,84,92,36
1,70,87,4
1,84,97,34
1,76,85,10
1,86,109,20
1,66,94,2
1,75,85,50
1,84,112,18
1,69,83,6
1,75,81,16
1,82,118,78
1,65,94,6
1,74,94,30
1,84,118,4
1,68,86,4
1,74,74,32
1,79,111,34
1,64,84,14
1,79,95,54
1,73,89,4
1,70,86,22
1,91,110,6
1,73,79,8
1,79,91,0
1,63,95,38
1,79,95,4
1,73,83,14
1,79,101,20
1,70,85,14
1,91,92,8
1,73,83,22
1,79,88,6
1,80,107,30
1,62,89,10
1,72,100,68
1,84,105,16
1,82,110,2
1,79,108,2
1,68,75,2
1,72,91,0
1,80,101,42
1,77,104,0
1,63,83,10
1,72,89,22
1,68,78,50
1,79,104,2
1,75,92,6
1,72,83,38
1,80,83,22
1,65,111,0
1,75,90,14
1,79,93,6
1,72,93,12
1,68,94,38
1,74,84,10
1,77,94,2
1,72,96,24
1,77,108,52
1,68,95,2
1,74,95,20
1,77,105,6
1,77,100,48
1,72,99,6
1,74,94,18
1,77,88,10
1,79,106,38
1,67,92,4
1,74,95,2
1,71,43,12
1,67,100,96
1,62,95,2
1,71,84,4
1,77,105,2
1,74,91,0
1,55,92,0
1,79,100,16
1,43,87,138
1,71,56,10
1,74,79,0
1,65,89,8
1,67,59,0
1,36,112,108
1,72,112,6
1,63,95,6
1,67,92,4
1,48,103,10
1,47,91,28
1,48,101,4
1,72,97,8
1,36,111,2
1,72,109,38
1,72,95,58
1,84,99,16
1,82,119,70
1,62,117,0
1,53,109,0
1,56,101,4
1,58,111,0
1,80,87,0
1,53,69,8
1,58,92,2
1,56,75,2
1,74,97,2
1,62,81,4
1,70,108,120
1,68,99,0
1,65,92,12
1,72,96,54
1,70,83,58
1,74,97,48
1,74,106,64
1,36,107,4
1,64,108,0
1,67,106,4
1,48,100,14
1,47,84,26
1,72,97,22
1,48,99,22
1,36,108,34
1,72,111,4
1,72,108,44
1,72,97,50
1,84,107,34
1,62,116,56
1,53,108,0
1,82,118,0
1,58,113,0
1,56,100,0
1,80,94,28
1,53,79,58
1,62,86,0
1,56,70,0
1,58,74,4
1,74,100,6
1,68,92,22
1,70,96,8
1,65,87,4
1,72,103,12
1,70,92,44
1,74,95,56
1,74,105,66
1,36,115,2
1,67,108,2
1,64,107,2
1,48,105,20
1,47,88,30
1,72,100,6
1,48,100,30
1,72,79,26
1,72,93,42
1,72,99,46
1,84,77,24
1,60,111,48
1,71,94,246
1,72,101,64
1,84,101,14
1,60,108,24
1,70,115,328
1,72,94,10
1,84,87,8
1,60,96,34
1,69,111,140
1,72,91,64
1,84,90,48
1,60,98,24
1,68,103,130
1,72,101,62
1,84,94,18
1,60,103,24
1,67,108,158
1,72,100,60
1,84,106,2
1,60,104,16
1,66,98,86
1,58,45,412
1,72,26,230
1,70,27,6
1,72,42,218
1,70,37,6
1,70,34,158
1,72,35,0
1,70,33,152
1,72,37,12
1,70,32,20
1,72,30,6
1,67,51,112
1,72,48,12
1,70,39,0
1,70,19,188
1,72,35,12
1,70,28,182
1,72,26,4
1,70,15,172
1,72,27,4
1,72,28,172
1,70,25,2
1,60,43,88
1,70,35,168
1,72,28,6
1,70,27,190
1,72,27,14
1,70,32,248
1,72,35,2
1,72,32,246
1,70,29,4
1,68,47,232
1,72,26,18
1,70,44,6
1,61,76,10
1,69,81,76
1,72,34,10
1,70,50,4
1,62,83,0
1,63,79,2
1,72,44,22
1,70,45,2
1,64,56,44
1,67,50,2
1,72,43,16
1,69,30,10
1,65,70,4
1,76,91,130
1,72,57,20
1,69,40,10
1,74,100,4
1,79,103,104
1,72,74,16
1,69,55,4
1,77,98,108
1,88,94,152
1,72,56,10
1,69,46,6
1,86,79,40
1,72,45,36
1,69,27,4
1,84,69,6
1,60,25,18
1,76,86,98
1,72,59,30
1,69,48,18
1,74,84,128
1,60,42,106
1,57,31,8
1,72,61,116
1,48,54,10
1,65,92,122
1,57,48,12
1,60,47,4
1,55,54,134
1,64,91,2
1,60,38,186
1,72,65,12
1,70,47,4
1,48,62,18
1,72,50,204
1,70,51,2
1,60,25,20
1,62,53,46
1,53,32,14
1,64,66,20
1,55,53,8
1,65,81,76
1,57,64,6
1,48,49,0
1,58,69,26
1,67,86,4
1,65,74,104
1,57,36,8
1,72,68,196
1,60,38,14
1,69,39,12
1,48,72,2
1,72,62,232
1,60,40,4
1,69,45,12
1,64,73,106
1,55,46,24
1,65,87,4
1,57,74,16
1,48,80,60
1,67,91,8
1,58,74,10
1,60,81,58
1,69,92,4
1,72,94,116
1,64,79,8
1,48,29,140
1,65,63,12
1,70,89,180
1,62,50,2
1,48,55,46
1,65,69,8
1,69,84,8
1,60,52,4
1,65,62,10
1,48,37,10
1,67,77,32
1,69,72,18
1,58,54,44
1,67,71,6
1,48,23,6
1,60,48,0
