track,note,velocity,time
1,56,80,37608
1,64,93,0
1,40,83,0
1,59,97,4
1,47,93,0
1,57,93,32
1,61,90,0
1,45,93,0
1,52,97,4
1,52,97,44
1,45,95,0
1,57,91,96
1,64,105,96
1,50,97,8
1,57,80,0
1,62,97,0
1,65,104,0
1,65,93,68
1,48,87,0
1,62,88,0
1,57,86,0
1,53,103,0
1,57,95,28
1,65,112,100
1,47,95,4
1,67,85,0
1,55,83,0
1,62,96,0
1,50,98,32
1,55,107,40
1,62,107,92
1,59,119,32
1,55,107,96
1,65,97,8
1,56,83,4
1,44,88,0
1,59,103,0
1,62,100,0
1,64,104,252
1,56,93,12
1,64,103,0
1,40,88,0
1,59,102,0
1,52,96,0
1,52,90,44
1,62,92,4
1,44,88,0
1,59,93,0
1,52,91,12
1,48,88,0
1,60,97,0
1,45,88,0
1,57,95,0
1,59,107,56
1,60,107,4
1,64,107,4
1,60,99,0
1,57,84,0
1,67,107,192
1,58,86,8
1,62,95,0
1,46,94,4
1,67,101,0
1,65,101,212
1,62,104,388
1,57,114,152
1,56,97,276
1,40,102,4
1,47,75,0
1,52,122,12
1,56,94,52
1,65,115,96
1,53,102,4
1,64,92,4
1,56,76,4
1,52,81,0
1,52,97,48
1,56,95,68
1,62,100,96
1,52,98,160
1,61,94,8
1,57,102,0
1,52,100,0
1,45,94,4
1,57,100,368
1,61,102,32
1,64,124,52
1,61,118,96
1,57,108,20
1,57,99,144
1,62,107,0
1,65,110,0
1,50,92,0
1,53,98,420
1,48,87,0
1,60,124,148
1,65,112,4
1,53,106,100
1,67,105,40
1,62,107,0
1,55,103,0
1,47,97,0
1,50,101,308
1,55,97,20
1,57,122,68
1,59,107,20
1,42,108,40
1,62,118,8
1,43,97,4
1,65,95,28
1,56,80,0
1,44,124,0
1,59,100,0
1,62,101,0
1,64,98,240
1,56,81,0
1,59,103,0
1,56,93,12
1,52,99,0
1,64,107,0
1,40,107,0
1,59,103,4
1,32,102,16
1,44,108,4
1,62,106,4
1,56,90,0
1,52,100,0
1,59,103,0
1,52,107,12
1,60,112,0
1,57,104,0
1,45,104,0
1,33,99,0
1,59,105,60
1,60,104,12
1,57,102,0
1,64,110,84
1,67,117,96
1,67,107,0
1,58,99,0
1,62,107,0
1,65,103,204
1,62,100,384
1,57,107,384
1,56,83,0
1,47,100,0
1,52,100,0
1,40,111,8
1,50,98,188
1,56,98,104
1,57,91,4
1,40,108,8
1,50,107,0
1,59,117,12
1,57,91,92
1,56,102,8
1,52,100,0
1,60,106,0
1,57,100,0
1,33,93,0
1,45,93,0
1,60,124,20
1,57,112,0
1,62,105,4
1,59,115,0
1,57,112,40
1,64,118,0
1,60,124,0
1,59,124,8
1,55,113,0
1,59,119,68
1,55,113,0
1,60,105,20
1,57,107,0
1,62,113,44
1,59,115,0
1,55,102,64
1,60,124,0
1,65,97,0
1,64,115,40
1,60,124,0
1,55,114,0
1,65,94,68
1,57,108,0
1,60,124,0
1,64,121,4
1,55,113,4
1,60,113,0
1,62,111,0
1,60,118,12
1,62,104,4
1,53,95,8
1,58,120,0
1,62,115,104
1,58,116,0
1,53,112,0
1,62,119,40
1,65,115,0
1,53,122,4
1,58,116,0
1,63,120,8
1,68,106,0
1,60,114,0
1,67,111,56
1,63,106,0
1,58,118,0
1,58,111,84
1,63,116,0
1,67,122,0
1,53,121,12
1,58,111,96
1,65,108,0
1,62,112,0
1,55,114,0
1,64,111,0
1,60,124,0
1,55,112,72
1,64,118,4
1,60,100,0
1,65,107,0
1,60,112,0
1,67,124,0
1,64,124,4
1,62,106,4
1,65,112,0
1,70,112,0
1,65,112,4
1,68,109,0
1,60,122,12
1,67,113,4
1,70,116,0
1,72,115,0
1,63,112,0
1,62,102,40
1,66,118,0
1,69,119,0
1,72,113,0
1,72,99,48
1,62,91,4
1,66,90,0
1,69,97,0
1,72,100,36
1,66,94,0
1,62,93,0
1,69,95,0
1,69,118,76
1,72,118,0
1,66,118,0
1,62,97,0
1,67,114,40
1,72,121,0
1,64,112,12
1,71,107,48
1,67,113,0
1,62,110,0
1,71,83,52
1,62,88,0
1,67,97,4
1,71,121,52
1,67,124,0
1,62,111,0
1,71,124,64
1,67,124,0
1,62,124,0
1,71,114,28
1,74,111,0
1,64,114,0
1,68,114,0
1,64,122,396
1,68,124,0
1,71,122,0
1,64,121,116
1,68,124,0
1,62,110,8
1,71,112,8
1,65,110,0
1,69,101,0
1,62,107,0
1,72,124,140
1,69,119,0
1,64,114,0
1,60,100,4
1,74,108,0
1,69,107,0
1,66,102,0
1,62,103,0
1,69,107,356
1,66,112,0
1,72,108,0
1,62,107,0
1,59,107,12
1,64,115,0
1,66,102,0
1,67,100,20
1,64,118,4
1,59,114,0
1,67,118,0
1,67,115,36
1,59,107,52
1,64,110,0
1,66,109,0
1,67,119,8
1,59,97,8
1,64,122,0
1,68,124,0
1,68,91,44
1,64,96,0
1,59,89,0
1,69,108,48
1,59,105,0
1,64,111,0
1,66,111,0
1,62,107,196
1,64,117,0
1,68,112,0
1,71,124,0
1,69,104,16
1,72,105,0
1,64,113,0
1,60,107,0
1,33,87,3064
1,45,70,0
1,33,83,84
1,45,72,0
1,33,91,100
1,45,92,0
1,33,93,80
1,45,88,0
1,33,95,80
1,45,92,0
1,33,88,80
1,45,87,0
1,33,104,92
1,45,97,0
1,45,98,80
1,33,93,0
1,33,107,100
1,45,106,0
1,33,107,84
1,45,107,0
1,33,114,100
1,45,108,0
1,33,119,92
1,45,112,0
1,33,119,100
1,45,113,0
1,33,121,96
1,45,115,0
1,33,124,84
1,45,119,0
1,33,124,88
1,45,124,0
1,64,95,8
1,60,95,0
1,67,97,0
1,72,100,0
1,45,114,0
1,33,107,4
1,33,96,36
1,45,89,8
1,60,98,4
1,64,92,0
1,67,92,4
1,72,89,0
1,72,93,48
1,60,92,0
1,33,97,0
1,45,100,0
1,64,86,0
1,67,84,0
1,33,93,32
1,45,96,0
1,62,102,8
1,74,114,0
1,71,110,0
1,67,107,0
1,33,105,68
1,45,100,0
1,69,100,64
1,64,100,0
1,76,97,0
1,45,100,0
1,33,100,0
1,72,106,0
1,45,94,88
1,33,102,0
1,33,97,72
1,45,91,0
1,45,107,84
1,33,101,0
1,64,118,8
1,72,112,0
1,67,111,0
1,60,117,0
1,33,98,40
1,45,104,0
1,64,107,0
1,67,103,0
1,72,103,0
1,60,93,4
1,60,92,52
1,64,106,0
1,72,105,0
1,67,101,0
1,33,108,0
1,45,107,0
1,45,107,4
1,33,104,0
1,59,114,8
1,71,109,0
1,67,109,0
1,64,107,0
1,45,101,20
1,33,101,0
1,67,110,24
1,59,105,0
1,64,111,0
1,55,107,0
1,33,95,0
1,45,100,0
1,33,105,84
1,45,103,0
1,45,101,84
1,33,99,0
1,33,107,4
1,45,108,0
1,64,95,4
1,60,95,0
1,67,97,0
1,72,100,0
1,33,100,72
1,45,107,0
1,60,98,0
1,64,92,0
1,67,92,4
1,72,89,0
1,33,107,48
1,45,102,0
1,72,93,0
1,60,92,0
1,64,86,0
1,67,84,0
1,45,106,32
1,33,103,0
1,62,102,8
1,74,114,0
1,71,110,0
1,67,107,0
1,33,100,80
1,45,99,4
1,33,97,44
1,45,100,4
1,69,100,0
1,64,100,0
1,72,106,0
1,76,97,0
1,33,105,72
1,45,103,4
1,45,98,12
1,33,100,0
1,72,107,0
1,64,97,0
1,69,100,0
1,40,106,40
1,28,99,0
1,69,107,12
1,72,113,0
1,64,96,0
1,28,121,100
1,40,100,0
1,62,97,60
1,71,107,0
1,68,114,0
1,68,106,36
1,71,104,0
1,62,94,0
1,28,108,0
1,40,100,0
1,33,112,24
1,45,113,4
1,72,112,4
1,69,106,0
1,64,95,0
1,33,100,56
1,45,92,0
1,45,99,100
1,33,107,0
1,33,98,88
1,45,102,0
1,33,113,80
1,45,107,0
1,64,95,88
1,60,95,0
1,67,97,0
1,72,100,0
1,45,114,0
1,33,107,4
1,33,96,36
1,45,89,8
1,60,98,4
1,64,92,0
1,67,92,4
1,72,89,0
1,72,93,48
1,60,92,0
1,33,97,0
1,45,100,0
1,64,86,0
1,67,84,0
1,33,93,32
1,45,96,0
1,62,102,8
1,74,114,0
1,71,110,0
1,67,107,0
1,33,105,68
1,45,100,0
1,69,100,64
1,64,100,0
1,76,97,0
1,45,100,0
1,33,100,0
1,72,106,0
1,45,94,88
1,33,102,0
1,33,97,72
1,45,91,0
1,45,107,84
1,33,101,0
1,64,118,8
1,72,112,0
1,67,111,0
1,60,117,0
1,33,98,40
1,45,104,0
1,64,107,0
1,67,103,0
1,72,103,0
1,60,93,4
1,60,92,52
1,64,106,0
1,72,105,0
1,67,101,0
1,33,108,0
1,45,107,0
1,45,107,4
1,33,104,0
1,59,114,8
1,71,109,0
1,67,109,0
1,64,107,0
1,45,101,20
1,33,101,0
1,67,110,24
1,59,105,0
1,64,111,0
1,55,107,0
1,33,95,0
1,45,100,0
1,33,105,84
1,45,103,0
1,45,101,84
1,33,99,0
1,33,107,4
1,45,108,0
1,64,95,4
1,60,95,0
1,67,97,0
1,72,100,0
1,33,100,72
1,45,107,0
1,60,98,0
1,64,92,0
1,67,92,4
1,72,89,0
1,33,107,48
1,45,102,0
1,72,93,0
1,60,92,0
1,64,86,0
1,67,84,0
1,45,106,32
1,33,103,0
1,62,102,8
1,74,114,0
1,71,110,0
1,67,107,0
1,33,100,80
1,45,99,4
1,33,97,44
1,45,100,4
1,69,100,0
1,64,100,0
1,72,106,0
1,76,97,0
1,33,105,72
1,45,103,4
1,45,98,12
1,33,100,0
1,72,107,0
1,64,97,0
1,69,100,0
1,40,106,40
1,28,99,0
1,69,107,12
1,72,113,0
1,64,96,0
1,28,121,100
1,40,100,0
1,62,97,60
1,71,107,0
1,68,114,0
1,68,106,36
1,71,104,0
1,62,94,0
1,28,108,0
1,40,100,0
1,33,112,24
1,45,113,4
1,72,112,4
1,69,106,0
1,64,95,0
1,33,100,56
1,45,92,0
1,45,99,100
1,33,107,0
1,33,98,88
1,45,102,0
1,33,113,80
1,45,107,0
1,45,93,88
1,64,95,0
1,60,95,0
1,67,97,0
1,72,100,0
1,45,78,60
1,60,98,4
1,64,92,0
1,67,92,4
1,72,89,0
1,45,79,48
1,72,93,0
1,60,92,0
1,64,86,0
1,67,84,0
1,45,75,32
1,62,102,8
1,74,114,0
1,71,110,0
1,67,107,0
1,45,86,68
1,69,100,68
1,64,100,0
1,76,97,0
1,72,106,0
1,40,80,4
1,40,77,88
1,43,76,84
1,45,107,84
1,64,118,8
1,72,112,0
1,67,111,0
1,60,117,0
1,45,104,40
1,64,107,96
1,67,103,0
1,72,103,0
1,60,93,4
1,60,92,52
1,64,106,0
1,72,105,0
1,67,101,0
1,45,107,0
1,45,107,4
1,59,114,8
1,71,109,0
1,67,109,0
1,64,107,0
1,45,101,20
1,67,110,24
1,59,105,0
1,64,111,0
1,55,107,0
1,40,100,4
1,40,103,84
1,45,101,88
1,45,108,4
1,64,95,4
1,60,95,0
1,67,97,0
1,72,100,0
1,45,107,72
1,60,98,4
1,64,92,0
1,67,92,4
1,72,89,0
1,45,102,48
1,72,93,0
1,60,92,0
1,64,86,0
1,67,84,0
1,45,106,32
1,62,102,8
1,74,114,0
1,71,110,0
1,67,107,0
1,45,99,84
1,69,100,48
1,64,100,0
1,72,106,0
1,76,97,0
1,43,100,4
1,43,103,76
1,72,107,12
1,64,97,0
1,69,100,0
1,41,98,8
1,40,106,40
1,69,107,12
1,72,113,0
1,64,96,0
1,43,100,100
1,62,97,60
1,71,107,0
1,68,114,0
1,68,106,36
1,71,104,0
1,62,94,0
1,44,100,4
1,45,113,28
1,72,112,4
1,69,106,0
1,64,95,0
1,45,92,56
1,45,99,100
1,45,102,88
1,40,107,84
1,72,95,96
1,76,95,0
1,79,97,0
1,84,100,0
1,45,114,0
1,45,89,60
1,72,98,4
1,76,92,0
1,79,92,4
1,84,89,0
1,84,93,48
1,72,92,0
1,45,100,0
1,76,86,0
1,79,84,0
1,45,96,32
1,74,102,8
1,86,114,0
1,83,110,0
1,79,107,0
1,45,100,68
1,76,100,68
1,81,100,0
1,88,97,0
1,45,100,0
1,84,106,0
1,45,94,88
1,40,91,88
1,45,107,84
1,76,118,8
1,84,112,0
1,79,111,0
1,45,104,84
1,76,107,20
1,79,103,0
1,84,103,0
1,76,106,52
1,84,105,0
1,79,101,0
1,45,107,0
1,45,107,4
1,71,114,8
1,83,109,0
1,79,109,0
1,76,107,0
1,45,101,20
1,67,105,24
1,79,110,0
1,76,111,0
1,40,100,4
1,40,103,84
1,43,101,92
1,45,108,4
1,72,95,4
1,76,95,0
1,79,97,0
1,84,100,0
1,45,107,72
1,72,98,4
1,76,92,0
1,79,92,4
1,84,89,0
1,72,92,48
1,45,102,0
1,84,93,0
1,76,86,0
1,79,84,0
1,45,106,32
1,74,102,8
1,86,114,0
1,83,110,0
1,79,107,0
1,45,99,84
1,45,100,48
1,81,100,0
1,76,100,0
1,84,106,0
1,88,97,0
1,45,103,76
1,45,98,12
1,84,107,0
1,76,97,0
1,81,100,0
1,40,106,40
1,81,107,12
1,84,113,0
1,76,96,0
1,40,100,100
1,74,97,60
1,83,107,0
1,80,114,0
1,74,94,36
1,80,106,0
1,83,104,0
1,40,100,0
1,45,113,28
1,76,95,4
1,84,112,0
1,81,106,0
1,45,92,56
1,45,99,100
1,45,102,88
1,44,107,84
1,62,107,96
1,71,119,0
1,67,113,0
1,71,115,72
1,67,110,0
1,62,104,4
1,72,118,96
1,69,107,0
1,62,112,0
1,71,102,88
1,74,111,0
1,62,93,0
1,67,98,0
1,77,114,44
1,72,118,0
1,69,112,0
1,76,107,52
1,72,107,0
1,67,104,4
1,71,115,48
1,74,113,0
1,67,107,0
1,64,106,88
1,67,113,0
1,72,114,0
1,62,107,24
1,71,119,0
1,67,113,0
1,71,115,72
1,67,110,0
1,62,104,4
1,72,118,96
1,69,107,0
1,62,112,0
1,71,102,88
1,74,111,0
1,62,93,0
1,67,98,0
1,77,114,44
1,72,118,0
1,69,112,0
1,76,107,52
1,72,107,0
1,67,104,4
1,71,116,48
1,74,117,0
1,67,110,0
1,64,101,88
1,67,108,0
1,72,111,0
1,64,111,24
1,69,111,0
1,73,119,0
1,69,110,72
1,73,115,0
1,64,104,4
1,67,112,96
1,71,107,0
1,74,118,0
1,73,102,88
1,69,98,0
1,64,93,0
1,76,111,0
1,67,107,36
1,74,114,0
1,69,113,4
1,79,114,4
1,74,108,48
1,65,107,4
1,77,107,0
1,69,114,4
1,64,110,48
1,76,113,0
1,74,124,0
1,69,117,0
1,62,106,80
1,74,114,0
1,69,114,12
1,65,105,0
1,64,107,40
1,69,113,0
1,73,119,0
1,69,110,72
1,73,115,0
1,64,104,4
1,67,112,96
1,71,107,0
1,74,118,0
1,73,102,88
1,69,98,0
1,64,93,0
1,76,111,0
1,67,107,36
1,74,114,0
1,69,113,4
1,79,114,4
1,74,108,48
1,65,107,4
1,77,107,0
1,69,114,4
1,64,110,48
1,76,113,0
1,74,124,0
1,69,117,0
1,62,106,80
1,74,114,0
1,69,114,12
1,65,105,0
1,80,118,32
1,83,117,0
1,89,121,0
1,53,119,4
1,77,118,0
1,71,115,0
1,68,116,0
1,88,124,48
1,68,109,4
1,71,111,0
1,76,124,0
1,83,107,0
1,80,108,0
1,52,118,4
1,71,117,96
1,74,124,0
1,68,102,0
1,86,124,0
1,50,113,0
1,83,119,8
1,80,124,4
1,74,113,56
1,71,124,4
1,68,112,0
1,80,124,0
1,47,111,4
1,83,124,0
1,71,117,72
1,83,114,0
1,80,114,0
1,53,124,8
1,89,124,0
1,68,112,4
1,77,118,0
1,88,122,40
1,68,109,0
1,71,114,0
1,76,124,0
1,80,122,0
1,83,124,0
1,52,121,4
1,86,124,88
1,50,121,4
1,68,114,4
1,83,124,0
1,80,122,0
1,71,122,4
1,74,124,0
1,71,124,100
1,83,124,4
1,80,124,0
1,74,112,0
