track,note,velocity,time
1,69,60,388
1,74,99,92
1,38,84,2
1,45,87,8
1,50,73,136
1,62,80,4
1,69,95,26
1,57,80,2
1,71,69,6
1,67,92,68
1,45,84,0
1,38,58,12
1,64,76,22
1,61,74,18
1,38,81,40
1,45,82,0
1,62,91,4
1,62,57,140
1,50,79,20
1,57,89,26
1,69,91,6
1,69,43,162
1,38,71,36
1,45,84,6
1,74,97,10
1,74,97,140
1,45,73,62
1,38,68,2
1,81,103,6
1,62,80,138
1,50,61,36
1,69,97,12
1,57,79,6
1,71,78,32
1,38,71,66
1,67,95,6
1,45,64,6
1,64,52,42
1,61,81,62
1,62,100,54
1,45,85,6
1,38,62,6
1,69,81,184
1,66,67,2
1,45,83,4
1,38,67,4
1,57,78,38
1,38,70,12
1,45,79,0
1,69,94,120
1,74,105,82
1,38,92,16
1,45,101,0
1,62,84,90
1,50,61,30
1,69,98,38
1,57,88,10
1,71,80,20
1,45,91,64
1,38,52,8
1,67,96,2
1,64,78,36
1,61,81,78
1,62,100,30
1,38,93,6
1,45,98,0
1,62,61,110
1,50,88,20
1,69,100,26
1,57,72,10
1,69,74,138
1,38,69,52
1,45,89,2
1,74,104,14
1,74,97,132
1,45,90,60
1,38,89,4
1,81,107,0
1,62,70,126
1,50,63,22
1,69,94,28
1,57,89,6
1,71,77,20
1,67,92,64
1,45,55,4
1,38,22,0
1,64,77,18
1,61,82,66
1,62,100,52
1,38,63,10
1,45,75,4
1,66,65,186
1,69,85,2
1,45,75,6
1,38,63,10
1,57,85,10
1,38,62,14
1,45,73,0
1,57,56,78
1,42,72,8
1,62,70,4
1,57,68,8
1,54,78,22
1,57,79,52
1,38,60,6
1,62,80,8
1,66,73,20
1,50,86,84
1,69,81,12
1,66,76,54
1,62,74,30
1,67,87,34
1,47,78,4
1,62,59,34
1,59,62,30
1,43,68,42
1,62,70,0
1,67,88,42
1,71,57,54
1,74,74,32
1,55,71,6
1,71,44,22
1,67,86,18
1,69,85,62
1,54,79,4
1,74,78,28
1,69,68,28
1,50,79,46
1,66,59,6
1,69,70,26
1,66,44,20
1,47,79,18
1,62,63,0
1,64,61,36
1,66,60,16
1,64,65,26
1,44,57,10
1,66,56,34
1,64,59,18
1,40,59,28
1,62,53,16
1,61,61,6
1,59,53,90
1,45,75,24
1,57,80,8
1,57,64,122
1,54,65,24
1,62,61,16
1,64,54,52
1,62,51,16
1,60,62,22
1,50,73,8
1,59,46,16
1,57,69,4
1,59,59,26
1,55,83,14
1,61,81,2
1,62,78,36
1,61,87,22
1,64,91,0
1,66,85,48
1,67,88,80
1,57,81,26
1,69,90,8
1,71,70,54
1,67,74,24
1,62,87,14
1,66,86,0
1,67,74,2
1,69,78,14
1,60,93,70
1,71,81,4
1,72,93,12
1,74,88,18
1,76,90,70
1,50,78,0
1,78,83,18
1,74,87,10
1,59,79,32
1,79,91,12
1,76,91,24
1,58,95,18
1,74,89,8
1,73,86,40
1,57,106,2
1,76,97,70
1,81,87,56
1,67,83,48
1,73,82,10
1,69,67,0
1,76,86,74
1,81,94,18
1,66,84,26
1,74,107,4
1,62,83,4
1,81,111,22
1,66,95,58
1,69,101,6
1,62,92,0
1,86,113,8
1,74,91,58
1,62,82,34
1,69,88,6
1,66,75,0
1,81,105,8
1,83,89,114
1,69,85,62
1,67,82,0
1,62,67,4
1,79,95,8
1,76,81,32
1,73,83,84
1,69,104,16
1,62,87,8
1,66,92,0
1,74,105,4
1,50,91,138
1,74,89,0
1,57,81,0
1,81,107,12
1,81,105,120
1,69,83,50
1,66,70,8
1,62,60,0
1,86,104,10
1,86,102,108
1,93,105,52
1,69,84,8
1,66,76,0
1,62,61,6
1,74,91,76
1,66,78,44
1,62,67,6
1,69,82,4
1,81,98,6
1,83,86,116
1,67,66,76
1,69,75,0
1,79,85,2
1,62,52,6
1,76,68,20
1,73,80,10
1,74,103,58
1,69,87,4
1,62,60,12
1,66,68,2
1,50,92,148
1,57,105,0
1,78,80,12
1,81,97,2
1,66,73,82
1,69,80,8
1,62,72,2
1,81,106,96
1,86,107,78
1,69,87,0
1,66,77,8
1,62,68,2
1,74,95,112
1,81,97,72
1,69,72,10
1,66,71,4
1,62,63,0
1,83,79,110
1,69,66,64
1,62,64,6
1,67,63,0
1,79,87,2
1,76,79,30
1,73,86,78
1,69,92,68
1,66,79,6
1,74,98,0
1,62,59,14
1,74,88,108
1,50,89,6
1,57,93,12
1,81,106,14
1,81,100,100
1,69,87,62
1,86,106,0
1,62,70,6
1,66,68,0
1,86,107,110
1,93,111,68
1,69,91,2
1,66,78,2
1,62,67,6
1,74,95,46
1,69,84,56
1,66,76,4
1,62,70,2
1,81,100,2
1,83,85,102
1,67,72,68
1,62,54,0
1,69,69,0
1,79,93,8
1,76,63,38
1,73,85,16
1,69,83,42
1,74,103,8
1,66,67,0
1,62,51,8
1,50,88,124
1,57,76,28
1,78,72,10
1,81,91,0
1,66,70,50
1,69,51,8
1,62,42,6
1,69,62,40
1,74,84,2
1,62,67,10
1,54,55,4
1,57,39,16
1,69,69,4
1,66,75,22
1,69,80,46
1,50,72,8
1,74,70,8
1,78,71,18
1,54,63,90
1,81,80,0
1,62,51,6
1,57,44,6
1,78,62,16
1,74,79,10
1,50,54,50
1,79,90,4
1,74,55,38
1,71,72,18
1,74,59,54
1,55,40,10
1,59,40,4
1,62,45,4
1,79,91,10
1,83,68,62
1,50,78,22
1,86,78,18
1,83,72,14
1,79,83,38
1,62,77,16
1,54,65,6
1,57,73,2
1,81,93,4
1,86,77,44
1,81,77,72
1,50,76,36
1,78,81,2
1,81,85,22
1,78,75,56
1,62,78,64
1,54,68,6
1,74,83,8
1,57,64,4
1,76,80,22
1,78,79,20
1,56,60,38
1,62,45,2
1,64,60,6
1,76,87,2
1,78,79,24
1,76,47,106
1,74,73,8
1,52,55,2
1,73,57,24
1,71,39,22
1,69,76,28
1,64,57,4
1,57,52,6
1,61,40,4
1,69,71,132
1,66,84,8
1,74,72,32
1,76,68,38
1,74,60,12
1,62,74,14
1,72,76,6
1,71,48,30
1,69,74,2
1,71,60,20
1,67,89,14
1,73,83,20
1,74,85,30
1,76,98,42
1,73,95,10
1,78,89,14
1,79,90,10
1,81,91,24
1,69,91,4
1,83,73,24
1,79,80,22
1,78,88,24
1,74,100,8
1,79,93,44
1,81,86,40
1,72,110,72
1,83,88,8
1,84,94,12
1,86,89,80
1,88,91,54
1,62,79,6
1,90,83,40
1,86,88,42
1,71,88,40
1,91,95,4
1,88,89,56
1,70,97,28
1,86,93,14
1,85,90,22
1,69,111,6
1,88,92,56
1,93,88,54
1,85,88,62
1,79,94,6
1,81,64,8
1,88,88,56
1,93,86,0
1,78,89,12
1,86,107,2
1,74,92,6
1,69,86,148
1,81,103,26
1,54,49,12
1,57,54,18
1,62,53,36
1,78,74,8
1,54,64,14
1,76,86,0
1,57,46,8
1,78,75,4
1,62,59,18
1,74,79,10
1,73,84,22
1,54,50,8
1,74,80,6
1,57,48,12
1,71,70,14
1,62,54,16
1,73,63,28
1,71,83,28
1,54,52,10
1,57,46,2
1,62,48,50
1,69,77,8
1,54,41,30
1,57,55,18
1,62,54,18
1,74,88,32
1,54,58,6
1,57,54,14
1,62,51,2
1,69,87,18
1,71,73,14
1,69,104,24
1,52,57,20
1,55,36,32
1,62,52,8
1,67,80,6
1,52,51,16
1,55,57,8
1,62,49,22
1,74,89,42
1,52,51,0
1,55,52,4
1,62,49,32
1,67,66,10
1,69,79,8
1,54,46,24
1,67,78,8
1,57,43,96
1,62,41,2
1,54,53,26
1,69,75,10
1,57,56,26
1,62,49,12
1,74,82,10
1,54,69,4
1,57,49,20
1,62,46,10
1,69,75,32
1,59,76,42
1,67,73,10
1,69,70,38
1,67,63,10
1,62,67,26
1,45,63,10
1,67,64,4
1,69,75,22
1,74,81,30
1,59,75,20
1,69,66,52
1,67,75,12
1,57,84,4
1,74,81,0
1,69,71,16
1,66,68,22
1,45,70,48
1,62,76,16
1,69,62,8
1,66,69,26
1,57,82,26
1,62,69,76
1,55,78,36
1,62,51,8
1,64,71,24
1,62,46,74
1,57,62,30
1,45,50,14
1,62,58,62
1,64,74,12
1,69,70,16
1,55,69,32
1,64,61,10
1,62,55,26
1,69,58,56
1,54,55,16
1,64,48,26
1,62,63,14
1,57,69,26
1,45,60,8
1,62,63,40
1,54,58,4
1,66,69,10
1,69,45,10
1,69,52,88
1,66,55,2
1,74,50,12
1,76,56,48
1,74,57,14
1,73,54,18
1,59,40,22
1,71,48,26
1,73,48,26
1,68,48,4
1,74,72,0
1,64,38,32
1,76,65,48
1,78,75,16
1,76,84,56
1,71,79,0
1,68,59,16
1,78,77,12
1,76,82,82
1,74,90,28
1,61,50,0
1,73,86,18
1,74,92,8
1,69,81,38
1,66,67,2
1,76,98,6
1,78,93,0
1,80,95,36
1,73,94,48
1,81,111,2
1,63,85,12
1,78,87,0
1,73,86,0
1,69,88,12
1,66,81,52
1,61,89,84
1,57,81,42
1,54,84,22
1,51,95,42
1,61,76,196
1,52,76,2
1,57,61,4
1,56,59,216
1,59,57,4
1,50,65,2
1,40,61,14
1,57,67,236
1,49,49,0
1,45,57,16
1,40,66,230
1,33,81,26
1,69,89,178
1,54,80,70
1,81,110,0
1,57,72,10
1,78,86,38
1,62,57,28
1,76,95,2
1,54,62,0
1,78,79,12
1,57,55,10
1,74,84,38
1,62,69,10
1,73,84,20
1,54,44,2
1,57,54,20
1,74,68,2
1,71,46,32
1,62,50,4
1,73,82,0
1,54,48,8
1,71,88,8
1,57,47,42
1,62,48,28
1,69,69,4
1,54,24,12
1,57,44,32
1,62,40,22
1,74,82,18
1,54,42,10
1,57,43,18
1,62,45,22
1,69,67,20
1,71,68,2
1,69,71,34
1,52,37,6
1,55,40,20
1,62,48,12
1,67,62,20
1,52,34,26
1,55,44,4
1,62,41,6
1,74,79,32
1,52,39,24
1,55,36,22
1,62,50,16
1,67,52,18
1,69,65,42
1,54,52,10
1,57,41,40
1,62,44,22
1,54,38,30
1,69,64,4
1,57,51,24
1,62,48,34
1,74,85,16
1,54,59,4
1,57,48,26
1,62,63,18
1,69,74,0
1,67,71,48
1,59,61,4
1,69,69,34
1,67,59,36
1,62,62,34
1,45,37,12
1,67,64,34
1,69,68,22
1,59,64,16
1,74,51,16
1,69,63,12
1,67,62,10
1,57,87,12
1,74,73,6
1,69,67,24
1,66,72,18
1,62,67,46
1,45,69,2
1,69,63,2
1,66,63,50
1,57,81,20
1,62,61,20
1,62,53,78
1,55,83,4
1,64,72,8
1,62,67,0
1,57,77,16
1,45,55,10
1,62,49,12
1,64,72,2
1,69,60,30
1,55,62,26
1,64,49,16
1,62,59,18
1,69,59,18
1,54,52,10
1,64,66,22
1,62,47,24
1,57,60,18
1,45,49,4
1,62,57,34
1,66,72,70
1,54,50,4
1,69,48,106
1,69,41,4
1,66,48,8
1,74,51,10
1,76,54,42
1,74,63,18
1,73,50,24
1,59,37,8
1,71,52,4
1,73,50,20
1,68,60,16
1,74,75,10
1,64,44,28
1,76,67,2
1,78,52,30
1,71,79,18
1,76,85,6
1,68,57,10
1,78,78,40
1,76,93,78
1,74,91,18
1,61,59,12
1,73,85,0
1,74,92,80
1,76,100,2
1,69,85,6
1,66,69,4
1,78,95,70
1,80,96,36
1,73,95,52
1,81,114,2
1,63,90,10
1,78,86,14
1,73,83,2
1,69,89,22
1,66,76,54
1,61,84,86
1,57,81,40
1,54,66,48
1,51,88,36
1,52,61,232
1,61,57,4
1,57,46,10
1,56,40,228
1,59,40,4
1,50,39,4
1,40,38,10
1,57,46,230
1,49,44,6
1,45,51,14
1,40,55,232
1,33,70,28
1,71,63,176
1,83,87,26
1,57,52,20
1,62,39,8
1,79,83,10
1,67,38,28
1,78,83,2
1,57,44,20
1,79,87,20
1,62,38,14
1,76,91,18
1,67,56,6
1,57,50,0
1,74,88,12
1,76,84,30
1,62,36,14
1,73,81,12
1,67,46,12
1,74,91,26
1,73,68,16
1,57,49,6
1,62,38,34
1,67,48,42
1,71,47,4
1,57,30,16
1,62,37,24
1,67,45,20
1,79,77,22
1,57,28,36
1,62,28,4
1,67,47,8
1,71,32,32
1,73,59,16
1,62,31,66
1,67,50,28
1,57,33,2
1,69,49,12
1,61,52,10
1,67,49,18
1,79,73,58
1,57,44,2
1,61,53,24
1,71,40,32
1,67,29,4
1,73,60,10
1,57,53,16
1,71,38,10
1,62,47,44
1,67,18,58
1,73,49,0
1,57,51,16
1,64,51,40
1,67,45,34
1,74,79,14
1,57,62,12
1,66,54,40
1,73,70,10
1,67,56,14
1,74,78,12
1,73,78,14
1,55,69,4
1,57,18,62
1,64,63,2
1,71,55,26
1,55,47,0
1,57,54,42
1,62,50,30
1,76,84,10
1,55,52,62
1,57,35,8
1,71,62,18
1,61,59,14
1,73,74,10
1,71,76,8
1,54,48,26
1,57,46,22
1,62,48,16
1,54,43,0
1,69,72,4
1,57,47,44
1,61,55,10
1,74,83,42
1,54,49,2
1,57,41,24
1,59,48,8
1,69,72,10
1,71,68,4
1,51,55,8
1,69,91,2
1,57,40,80
1,60,58,4
1,50,67,58
1,57,63,88
1,60,54,8
1,67,79,0
1,51,60,12
1,57,38,46
1,60,46,2
1,66,59,40
1,52,44,38
1,58,51,62
1,61,57,50
1,50,60,52
1,54,48,90
1,58,78,4
1,66,67,6
1,49,53,38
1,54,44,92
1,58,74,2
1,64,76,2
1,66,73,18
1,64,85,48
1,47,52,4
1,54,53,42
1,55,45,2
1,62,72,32
1,47,31,12
1,54,51,10
1,55,43,22
1,67,80,28
1,47,23,48
1,54,33,20
1,62,72,2
1,55,35,8
1,64,72,2
1,62,72,22
1,46,50,14
1,54,34,66
1,55,37,0
1,61,55,24
1,46,39,10
1,54,37,58
1,55,36,8
1,66,83,16
1,46,60,16
1,54,21,24
1,64,80,6
1,55,35,8
1,66,70,8
1,64,78,16
1,47,30,28
1,54,36,38
1,55,45,12
1,62,52,48
1,47,16,10
1,54,35,52
1,55,40,14
1,67,72,30
1,47,29,8
1,54,32,74
1,55,45,24
1,62,58,16
1,64,74,10
1,46,48,2
1,62,68,4
1,54,36,84
1,55,46,22
1,46,45,52
1,61,46,14
1,54,38,10
1,55,43,8
1,66,78,40
1,46,57,4
1,54,24,6
1,55,44,46
1,64,69,0
1,66,60,18
1,64,82,16
1,47,41,16
1,50,51,74
1,55,34,34
1,62,81,14
1,47,43,8
1,50,58,14
1,61,71,36
1,55,48,24
1,62,68,2
1,61,83,0
1,47,44,8
1,50,31,38
1,55,64,0
1,59,72,82
1,41,69,2
1,47,44,48
1,50,67,4
1,57,72,4
1,59,75,28
1,57,84,38
1,41,62,12
1,47,50,72
1,50,61,6
1,55,87,18
1,41,63,34
1,47,43,78
1,54,73,4
1,50,49,8
1,55,84,22
1,54,86,24
1,42,41,14
1,47,42,82
1,50,70,10
1,42,73,12
1,48,74,82
1,51,84,54
1,58,91,70
1,42,75,20
1,49,81,64
1,52,85,28
1,59,84,16
1,54,81,44
1,50,81,70
1,47,83,56
1,42,87,68
1,38,93,8
1,35,100,60
1,62,88,170
1,42,97,58
1,43,98,44
1,45,101,32
1,74,111,10
1,47,101,20
1,71,72,72
1,59,64,12
1,55,63,0
1,69,83,22
1,71,68,28
1,67,73,38
1,55,69,28
1,66,58,2
1,59,52,0
1,67,70,12
1,64,54,26
1,66,72,0
1,64,78,48
1,59,52,8
1,55,64,4
1,62,71,234
1,59,29,16
1,55,50,0
1,71,61,222
1,59,29,10
1,55,34,4
1,62,62,118
1,64,67,32
1,62,55,0
1,59,41,24
1,55,53,0
1,59,44,222
1,64,72,8
1,55,45,4
1,71,61,220
1,55,51,6
1,59,37,4
1,64,60,140
1,66,77,20
1,59,52,6
1,54,52,4
1,64,74,2
1,66,70,216
1,59,46,6
1,54,46,2
1,62,79,200
1,54,64,6
1,59,48,4
1,62,75,142
1,42,5,2
1,67,85,44
1,43,88,4
1,45,95,34
