track,note,velocity,time
5,75,9,4
5,63,9,0
5,77,9,15
5,65,9,0
5,80,9,0
5,68,9,0
5,72,35,48
5,68,35,0
5,64,35,0
5,73,35,0
5,65,35,0
5,70,35,0
5,75,9,0
5,67,9,0
5,71,9,0
5,82,9,0
5,77,9,0
5,73,9,0
5,70,9,0
5,79,35,0
5,74,35,0
5,71,35,0
5,67,35,0
5,80,40,0
5,75,40,0
5,72,40,0
5,68,40,0
6,53,9,59
6,57,9,0
6,43,9,48
6,45,35,0
6,46,9,0
6,39,45,0
6,43,40,0
6,44,40,0
6,58,9,48
6,57,9,0
6,56,9,0
6,55,9,0
6,54,9,0
6,53,9,0
6,52,9,0
6,51,9,0
6,50,9,0
6,49,9,25
6,48,9,0
6,47,9,0
6,34,9,0
6,46,9,0
6,46,9,31
6,36,9,0
6,48,9,0
6,48,9,31
6,38,9,0
6,50,9,0
6,50,9,31
6,39,9,0
6,51,9,0
6,51,9,31
6,40,9,0
6,52,9,0
6,52,9,31
6,41,9,0
6,53,9,0
6,41,9,32
6,29,9,0
7,63,35,0
7,65,9,15
7,69,9,0
7,55,9,48
7,57,35,0
7,58,9,0
7,51,45,0
7,55,40,0
7,56,40,0
7,46,9,81
7,58,9,63
7,48,9,1
7,60,9,63
7,50,9,1
7,62,9,63
7,51,9,1
7,63,9,63
7,52,9,1
7,64,9,63
7,53,9,1
7,53,9,32
10,65,24,1699
10,72,24,0
10,77,24,0
10,79,24,1
10,72,24,0
10,67,25,0
10,68,24,0
10,72,24,0
10,80,24,0
10,69,24,64
10,73,24,0
10,81,24,0
10,70,24,64
10,73,24,0
10,82,24,0
10,77,24,0
10,72,24,1
10,77,24,0
10,84,24,0
10,85,24,64
10,77,24,0
10,73,24,0
10,75,24,64
10,82,24,0
10,87,24,0
10,75,24,63
10,82,24,0
10,87,24,0
10,77,24,1
10,82,24,0
10,89,24,0
10,87,24,0
10,82,24,0
10,75,24,0
10,78,24,64
10,81,24,0
10,90,24,0
10,87,24,160
10,75,24,0
10,81,24,1
10,89,24,0
10,77,25,0
10,81,24,0
10,88,24,0
10,76,24,0
10,81,24,1
10,87,24,0
10,75,24,0
10,81,24,0
10,86,24,0
10,74,24,0
10,85,24,1
10,73,24,0
10,80,24,0
10,80,24,63
10,85,24,0
10,73,24,0
10,80,24,1
10,86,24,0
10,74,24,0
10,80,24,0
10,85,24,0
10,73,24,0
10,79,24,64
10,76,24,0
10,88,24,0
10,84,24,160
10,72,24,0
10,75,24,1
10,79,24,0
10,87,24,0
10,74,24,0
10,79,24,0
10,86,24,0
10,73,24,1
10,79,24,0
10,85,24,0
10,71,24,63
10,83,24,0
10,84,25,1
10,75,25,0
10,72,25,0
10,75,31,63
10,80,31,0
10,87,31,0
10,75,50,160
10,79,50,0
10,82,50,0
10,87,50,0
10,78,55,0
10,81,55,0
10,84,55,0
10,87,55,33
10,90,55,0
10,89,60,12
10,84,60,0
10,80,60,0
10,77,60,0
11,56,24,1532
11,60,24,0
11,62,24,0
11,56,24,0
11,60,24,0
11,62,24,0
11,56,24,0
11,60,24,0
11,62,24,0
11,56,24,0
11,60,24,0
11,62,24,0
11,61,24,0
11,58,24,0
11,55,24,0
11,61,24,0
11,58,24,0
11,55,24,0
11,61,24,0
11,58,24,0
11,55,24,0
11,61,24,0
11,58,24,0
11,55,24,0
11,58,24,0
11,60,24,0
11,63,24,0
11,58,24,0
11,60,24,0
11,63,24,0
11,58,24,0
11,60,24,0
11,63,24,0
11,58,24,0
11,60,24,0
11,63,24,0
11,63,24,0
11,60,24,0
11,57,24,0
11,63,24,0
11,60,24,0
11,57,24,0
11,63,24,0
11,60,24,0
11,57,24,0
11,63,24,0
11,60,24,0
11,57,24,0
11,56,24,0
11,58,24,0
11,61,24,0
11,56,24,0
11,58,24,0
11,61,24,0
11,56,24,0
11,58,24,0
11,61,24,0
11,56,24,0
11,58,24,0
11,61,24,0
11,55,24,0
11,58,24,0
11,61,24,0
11,55,24,0
11,58,24,0
11,61,24,0
11,55,24,0
11,58,24,0
11,61,24,0
11,55,24,0
11,58,24,0
11,61,24,0
11,63,25,0
11,60,25,0
11,56,25,0
11,63,28,0
11,60,28,0
11,56,28,0
11,63,32,0
11,60,32,0
11,56,32,0
11,63,36,0
11,60,36,0
11,56,36,0
11,58,40,0
11,60,40,0
11,63,40,0
11,63,40,0
11,60,40,0
11,58,40,0
11,63,40,0
11,60,40,0
11,58,40,0
11,63,40,0
11,60,40,0
11,58,40,0
12,46,79,1536
12,50,79,0
12,53,79,0
12,62,79,63
12,58,79,0
12,51,79,1
12,55,79,0
12,58,79,0
12,61,79,0
12,60,79,31
12,58,79,0
12,60,79,1
12,51,79,0
12,55,79,0
12,58,79,0
12,60,40,0
12,57,40,0
12,53,40,0
12,51,40,0
12,58,40,0
12,53,40,0
12,49,40,0
12,56,40,0
12,39,40,0
12,43,40,0
12,46,40,0
12,49,40,0
12,44,40,0
12,39,40,0
12,48,40,0
12,44,40,0
12,36,40,0
12,39,40,31
12,43,40,0
12,46,40,1
12,41,40,0
12,29,40,31
12,33,40,33
12,43,40,32
13,51,90,1536
13,36,29,0
13,51,90,0
13,69,100,0
13,69,100,0
13,51,90,0
13,36,29,0
13,51,90,0
13,51,90,0
13,36,29,0
13,51,90,0
13,69,100,0
13,69,100,0
13,51,90,0
13,51,90,0
13,36,29,0
13,51,90,1
13,36,29,0
13,51,90,0
13,69,100,0
13,69,100,0
13,51,90,0
13,36,29,0
13,51,90,0
13,51,90,0
13,36,29,0
13,51,90,0
13,69,100,0
13,69,100,0
13,51,90,0
13,51,90,0
13,36,29,0
13,51,90,1
13,36,29,0
13,51,90,0
13,69,100,0
13,69,100,0
13,51,90,0
13,36,29,0
13,51,90,0
13,51,90,0
13,36,29,0
13,51,90,0
13,69,100,0
13,69,100,0
13,51,90,0
13,51,90,0
13,36,29,0
13,51,90,1
13,36,29,0
13,51,90,0
13,40,64,0
13,51,90,0
13,36,29,0
13,40,80,0
13,51,90,0
13,51,90,0
13,36,29,0
13,51,90,0
13,40,64,0
13,51,90,0
13,36,29,0
13,40,80,0
13,51,90,0
13,51,90,0
13,36,29,0
13,51,90,0
13,69,100,0
13,69,100,0
13,51,90,0
13,36,29,0
13,51,90,0
13,51,90,0
13,36,29,0
13,51,90,0
13,69,100,0
13,69,100,0
13,51,90,0
13,51,90,0
13,36,29,0
13,51,90,1
13,36,29,0
13,51,90,0
13,69,100,0
13,69,100,0
13,51,90,0
13,36,29,0
13,51,90,0
13,51,90,0
13,36,29,0
13,51,90,0
13,69,100,0
13,69,100,0
13,51,90,0
13,51,90,0
13,36,29,0
13,51,90,1
13,36,29,0
13,51,90,0
13,69,100,0
13,69,100,0
13,51,90,0
13,36,29,0
13,51,90,0
13,51,90,0
13,36,29,0
13,51,90,0
13,69,100,0
13,69,100,0
13,51,90,0
13,51,90,0
13,36,29,0
13,51,90,1
13,36,29,0
13,51,90,0
13,40,64,0
13,51,90,0
13,36,29,0
13,40,80,0
13,51,90,0
13,51,90,0
13,36,29,0
13,51,90,0
13,40,64,0
13,51,90,0
13,36,29,0
13,40,80,0
13,51,90,0
15,77,34,4770
15,72,34,0
15,65,34,0
15,67,35,1
15,72,34,0
15,79,34,0
15,80,34,0
15,72,34,0
15,68,34,0
15,81,34,64
15,73,34,0
15,69,34,0
15,82,34,64
15,73,34,0
15,70,34,0
15,77,34,0
15,84,34,1
15,77,34,0
15,72,34,0
15,73,34,64
15,77,34,0
15,85,34,0
15,87,34,64
15,82,34,0
15,75,34,0
15,87,34,63
15,82,34,0
15,75,34,0
15,89,34,1
15,82,34,0
15,77,34,0
15,75,34,0
15,82,34,0
15,87,34,0
15,90,34,64
15,81,34,0
15,78,34,0
15,75,34,160
15,87,34,0
15,77,35,1
15,89,34,0
15,81,34,0
15,76,34,0
15,88,34,0
15,81,34,0
15,75,34,1
15,87,34,0
15,81,34,0
15,74,34,0
15,86,34,0
15,81,34,0
15,80,34,1
15,73,34,0
15,85,34,0
15,73,34,63
15,85,34,0
15,80,34,0
15,74,34,1
15,86,34,0
15,80,34,0
15,73,34,0
15,85,34,0
15,80,34,0
15,88,34,64
15,76,34,0
15,79,34,0
15,72,34,160
15,84,34,0
15,87,34,1
15,79,34,0
15,75,34,0
15,86,34,0
15,79,34,0
15,74,34,0
15,85,34,1
15,79,34,0
15,73,34,0
15,84,42,63
15,80,42,0
15,75,42,0
15,72,42,0
15,75,60,0
15,80,60,0
15,84,60,0
15,87,60,0
15,77,75,0
15,82,75,0
15,85,75,0
15,89,75,0
15,80,85,0
15,84,85,0
15,89,85,0
15,92,85,0
16,62,34,4605
16,60,34,0
16,56,34,0
16,62,34,0
16,60,34,0
16,56,34,0
16,62,34,0
16,60,34,0
16,56,34,0
16,62,34,0
16,60,34,0
16,56,34,0
16,55,34,0
16,58,34,0
16,61,34,0
16,55,34,0
16,58,34,0
16,61,34,0
16,55,34,0
16,58,34,0
16,61,34,0
16,55,34,0
16,58,34,0
16,61,34,0
16,63,34,0
16,60,34,0
16,58,34,0
16,63,34,0
16,60,34,0
16,58,34,0
16,63,34,0
16,60,34,0
16,58,34,0
16,63,34,0
16,60,34,0
16,58,34,0
16,57,34,0
16,60,34,0
16,63,34,0
16,57,34,0
16,60,34,0
16,63,34,0
16,57,34,0
16,60,34,0
16,63,34,0
16,57,34,0
16,60,34,0
16,63,34,0
16,61,34,0
16,58,34,0
16,56,34,0
16,61,34,0
16,58,34,0
16,56,34,0
16,61,34,0
16,58,34,0
16,56,34,0
16,61,34,0
16,58,34,0
16,56,34,0
16,61,34,0
16,58,34,0
16,55,34,0
16,61,34,0
16,58,34,0
16,55,34,0
16,61,34,0
16,58,34,0
16,55,34,0
16,61,45,0
16,58,45,0
16,55,45,0
16,60,50,0
16,58,50,0
16,54,50,0
16,54,55,0
16,58,55,0
16,60,55,0
16,54,60,0
16,58,60,0
16,60,60,0
16,54,70,0
16,58,70,0
16,60,70,0
16,61,75,0
16,58,75,0
16,54,75,0
16,61,80,0
16,54,80,0
16,58,80,0
16,60,80,0
16,54,80,0
16,57,80,0
16,60,85,0
16,54,85,0
16,57,85,0
17,46,89,4608
17,50,89,0
17,53,89,0
17,62,89,63
17,58,89,0
17,51,89,1
17,55,89,0
17,58,89,0
17,61,89,0
17,60,89,31
17,58,89,0
17,60,89,1
17,51,89,0
17,55,89,0
17,58,89,0
17,60,50,0
17,57,50,0
17,53,50,0
17,51,50,0
17,58,50,0
17,53,50,0
17,49,50,0
17,56,50,0
17,39,50,0
17,43,50,0
17,46,50,0
17,49,50,0
17,43,80,0
17,39,80,0
17,48,80,0
17,46,80,0
17,39,80,0
17,42,85,0
17,36,90,0
17,44,95,0
18,51,90,4608
18,36,29,0
18,51,90,0
18,69,100,0
18,69,100,0
18,51,90,0
18,36,29,0
18,51,90,0
18,51,90,0
18,36,29,0
18,51,90,0
18,69,100,0
18,69,100,0
18,51,90,0
18,51,90,0
18,36,29,0
18,51,90,1
18,36,29,0
18,51,90,0
18,51,90,0
18,36,29,0
18,40,80,0
18,51,90,0
18,51,90,0
18,36,29,0
18,51,90,0
18,51,90,0
18,36,29,0
18,40,80,0
18,51,90,0
18,51,90,0
18,36,29,0
18,51,90,0
18,69,100,0
18,69,100,0
18,51,90,0
18,36,29,0
18,51,90,0
18,51,90,0
18,36,29,0
18,51,90,0
18,69,100,0
18,69,100,0
18,51,90,0
18,51,90,0
18,36,29,0
18,51,90,1
18,36,29,0
18,51,90,0
18,69,100,0
18,69,100,0
18,51,90,0
18,36,29,0
18,51,90,0
18,51,90,0
18,36,29,0
18,51,90,0
18,69,100,0
18,69,100,0
18,51,90,0
18,51,90,0
18,36,29,0
18,51,90,1
18,36,29,0
18,51,90,0
18,69,100,0
18,69,100,0
18,51,90,0
18,36,29,0
18,51,90,0
18,51,90,0
18,36,29,0
18,51,90,0
18,69,100,0
18,69,100,0
18,51,90,0
18,51,90,0
18,36,29,0
18,51,90,1
18,36,29,0
18,51,90,0
18,69,100,0
18,69,100,0
18,51,90,0
18,36,29,0
18,51,90,0
18,51,90,0
18,36,29,0
18,51,90,0
18,69,100,0
18,69,100,0
18,51,90,0
18,51,90,0
18,36,29,0
18,51,90,1
18,36,29,0
18,51,90,0
18,69,100,0
18,69,100,0
18,51,90,0
18,36,29,0
18,51,90,0
18,51,90,0
18,36,29,0
18,51,90,0
18,69,100,0
18,69,100,0
18,51,90,0
18,51,90,0
18,36,29,0
18,51,90,1
18,36,29,0
18,40,40,0
18,51,90,0
18,51,90,0
18,36,29,0
18,40,40,0
18,51,90,0
18,51,90,0
18,36,29,0
18,40,40,0
18,51,90,0
18,47,100,0
18,51,90,0
18,36,29,0
18,50,100,0
18,43,100,0
18,51,90,0
20,65,4,7687
20,68,4,0
20,73,4,0
20,77,4,0
20,68,4,48
20,73,4,0
20,77,4,0
20,80,4,0
20,70,4,48
20,73,4,0
20,77,4,0
20,82,4,0
20,84,4,0
20,80,4,0
20,77,4,0
20,72,4,0
20,72,20,80
20,76,20,0
20,80,20,0
20,84,20,0
20,82,25,0
20,80,25,0
20,70,25,0
20,68,15,1
20,73,15,0
20,80,15,0
20,77,30,0
20,73,30,0
20,70,30,0
20,64,30,0
20,70,21,1
20,75,21,0
20,82,21,0
20,68,21,32
20,75,21,0
20,80,21,0
20,70,21,32
20,75,21,0
20,82,21,0
20,75,21,0
20,72,21,0
20,84,21,0
20,73,35,80
20,78,35,0
20,85,35,0
20,83,40,0
20,78,40,0
20,71,40,0
20,74,30,1
20,69,30,0
20,81,30,0
20,66,45,0
20,71,45,0
20,74,45,0
20,78,45,0
20,68,45,1
20,73,45,0
20,76,45,0
20,80,50,0
20,76,50,0
20,73,45,0
20,68,45,0
20,65,45,0
20,68,45,0
20,73,45,0
20,76,45,0
20,80,45,0
20,80,45,0
20,76,45,0
20,72,45,0
20,84,45,0
20,86,58,64
20,82,58,0
20,74,58,0
20,79,58,0
20,74,65,19
20,79,65,0
20,82,65,0
20,86,65,0
20,70,50,0
20,75,50,0
20,79,50,0
20,82,50,0
20,67,50,0
20,72,50,0
20,75,50,0
20,79,50,0
20,77,65,0
20,72,65,0
20,65,65,0
20,69,70,97
20,74,70,0
20,78,70,0
20,81,70,0
20,81,71,15
20,78,71,0
20,74,71,0
20,69,71,0
20,69,60,0
20,74,60,0
20,78,60,0
20,80,60,33
20,76,60,0
20,71,60,0
20,68,60,0
20,68,60,0
20,71,60,0
20,76,60,0
20,80,85,0
20,77,85,0
20,73,85,0
20,68,85,0
20,82,64,15
20,77,64,0
20,73,64,0
20,70,64,0
20,68,85,0
20,73,85,0
20,77,85,0
20,80,85,0
20,77,45,15
20,73,45,0
20,68,45,0
20,67,45,33
20,70,45,0
20,75,45,0
20,79,45,0
20,75,45,0
20,70,45,0
20,67,45,0
21,53,5,7687
21,56,5,0
21,58,5,0
21,56,5,0
21,53,5,0
21,58,5,0
21,53,5,0
21,56,5,0
21,58,4,0
21,56,5,0
21,53,5,0
21,58,5,0
21,53,25,64
21,56,25,0
21,58,25,0
21,53,10,0
21,56,10,0
21,58,10,0
21,58,10,1
21,56,10,0
21,53,10,0
21,58,10,0
21,56,10,0
21,53,11,0
21,53,38,0
21,56,10,33
21,58,10,0
21,60,25,0
21,56,25,0
21,51,25,0
21,51,25,0
21,56,25,0
21,60,25,0
21,60,24,0
21,56,24,0
21,51,24,0
21,51,24,0
21,56,24,0
21,60,24,0
21,57,24,64
21,62,24,0
21,66,24,0
21,57,24,0
21,66,24,0
21,62,24,0
21,57,24,1
21,66,25,0
21,62,24,0
21,56,24,0
21,62,24,0
21,56,45,0
21,59,24,33
21,62,24,0
21,61,60,0
21,58,60,0
21,56,60,0
21,56,60,0
21,58,60,0
21,61,60,0
21,61,59,0
21,58,59,0
21,56,59,0
21,56,59,0
21,58,59,0
21,61,59,0
21,58,59,64
21,63,59,0
21,67,59,0
21,67,59,16
21,63,59,0
