track,note,velocity,time
1,31,105,1152
1,31,100,128
1,31,105,126
1,31,100,122
1,31,105,96
1,43,91,16
1,43,91,114
1,43,98,48
1,38,95,30
1,38,95,108
1,38,100,138
1,38,102,112
1,38,102,126
1,38,105,90
1,38,107,130
1,40,89,10
1,38,110,96
1,35,85,32
1,33,105,96
1,31,105,12
1,43,100,46
1,43,102,108
1,43,102,74
1,31,105,8
1,31,105,66
1,43,95,16
1,43,98,132
1,43,89,68
1,38,91,12
1,38,98,72
1,38,102,120
1,38,93,80
1,38,98,122
1,38,95,72
1,38,107,134
1,38,105,106
1,38,110,72
1,31,102,104
1,31,87,96
1,31,102,144
1,31,100,80
1,31,98,40
1,31,105,136
1,31,100,80
1,31,102,114
1,33,105,132
1,35,102,114
1,38,110,84
1,38,105,158
1,38,110,140
1,38,89,94
1,38,105,140
1,33,102,4
1,38,102,10
1,38,110,142
1,38,105,56
1,31,102,10
1,31,87,96
1,31,102,144
1,31,100,80
1,31,98,40
1,31,105,136
1,31,100,80
1,31,102,114
1,33,105,132
1,35,102,114
1,38,110,84
1,38,105,158
1,38,110,140
1,38,89,94
1,38,105,140
1,33,102,4
1,38,102,10
1,38,110,142
1,38,105,56
1,35,102,10
1,35,102,118
1,35,100,130
1,35,102,136
1,35,102,56
1,40,102,16
1,38,110,16
1,36,102,128
1,35,102,106
1,35,91,66
1,33,95,26
1,33,98,92
1,33,95,142
1,33,98,146
1,33,102,88
1,38,93,24
1,38,100,64
1,35,93,34
1,35,102,76
1,40,107,152
1,40,98,120
1,35,98,12
1,35,105,80
1,33,100,6
1,38,110,50
1,38,100,50
1,38,98,72
1,31,100,192
1,43,100,42
1,43,98,126
1,31,87,4
1,31,100,72
1,35,87,6
1,35,98,104
1,35,102,152
1,35,98,60
1,40,100,24
1,40,100,104
1,35,100,18
1,35,95,88
1,33,93,16
1,38,113,48
1,38,102,58
1,40,91,96
1,38,100,0
1,31,105,44
1,43,98,128
1,43,102,112
1,43,105,108
1,31,102,30
1,31,85,134
1,31,100,130
1,31,102,40
1,31,102,112
1,31,87,96
1,31,102,144
1,31,100,80
1,31,98,40
1,31,105,136
1,31,100,80
1,31,102,114
1,33,105,132
1,35,102,114
1,38,110,84
1,38,105,158
1,38,110,140
1,38,89,94
1,38,105,140
1,33,102,4
1,38,102,10
1,38,110,142
1,38,105,56
1,31,102,10
1,31,87,96
1,31,102,144
1,31,100,80
1,31,98,40
1,31,105,136
1,31,100,80
1,31,102,114
1,33,105,132
1,35,102,114
1,38,110,84
1,38,105,158
1,38,110,140
1,38,89,94
1,38,105,140
1,33,102,4
1,38,102,10
1,38,110,142
1,38,105,56
1,35,102,10
1,35,102,118
1,35,100,130
1,35,102,136
1,35,102,56
1,40,102,16
1,38,110,16
1,36,102,128
1,35,102,106
1,35,91,66
1,33,95,26
1,33,98,92
1,33,95,142
1,33,98,146
1,33,102,88
1,38,93,24
1,38,100,64
1,35,93,34
1,35,102,76
1,40,107,152
1,40,98,120
1,35,98,12
1,35,105,80
1,33,100,6
1,38,110,50
1,38,100,50
1,38,98,72
1,31,100,192
1,43,100,42
1,43,98,126
1,31,87,4
1,31,100,72
1,35,87,6
1,35,98,104
1,35,102,152
1,35,98,60
1,40,100,24
1,40,100,104
1,35,100,18
1,35,95,88
1,33,93,16
1,38,113,48
1,38,102,58
1,40,91,96
1,38,100,0
1,31,105,44
1,43,98,128
1,43,102,112
1,43,105,108
1,31,102,30
1,31,85,134
1,31,100,130
1,31,102,40
1,32,113,112
1,44,100,32
1,44,85,68
1,44,82,54
1,39,85,96
1,32,102,0
1,32,107,128
1,44,95,48
1,39,105,24
1,33,110,14
1,33,102,100
1,45,102,0
1,33,98,384
1,32,105,170
1,44,102,30
1,44,98,58
1,44,85,62
1,39,95,16
1,32,110,16
1,44,89,48
1,44,102,152
1,32,95,192
1,33,107,38
1,33,105,98
1,33,105,104
1,33,107,90
1,33,89,106
1,33,105,48
1,33,105,102
1,37,102,78
1,37,102,118
1,37,100,130
1,37,102,136
1,37,102,56
1,42,102,16
1,40,110,16
1,38,102,128
1,37,102,106
1,37,91,66
1,35,95,26
1,35,98,92
1,35,95,142
1,35,98,146
1,35,102,88
1,40,91,24
1,35,91,0
1,28,102,2
1,28,100,66
1,40,72,0
1,35,89,192
1,40,93,46
1,40,100,64
1,37,93,34
1,37,102,76
1,42,107,152
1,42,98,120
1,37,98,12
1,37,105,80
1,35,100,6
1,40,110,50
1,40,100,50
1,40,98,72
1,33,100,192
1,45,100,42
1,45,98,126
1,33,87,4
1,33,100,72
1,37,87,6
1,37,98,104
1,37,102,152
1,37,98,60
1,42,100,24
1,42,100,104
1,37,100,18
1,37,95,88
1,35,93,16
1,40,113,48
1,40,102,58
1,42,91,96
1,40,100,0
1,33,105,44
1,45,98,128
1,45,102,112
1,45,105,108
1,37,87,30
1,37,98,104
1,37,102,152
1,37,98,60
1,42,107,24
1,42,98,120
1,37,98,12
1,37,105,80
1,35,100,6
1,40,110,50
1,40,100,50
1,40,98,72
1,33,100,192
1,45,100,42
1,45,98,126
1,33,87,4
1,33,100,72
1,37,87,6
1,37,98,104
1,37,102,152
1,37,98,60
1,42,100,24
1,42,100,104
1,37,100,18
1,37,95,88
1,35,93,16
1,40,113,48
1,40,102,58
1,42,91,96
1,40,100,0
1,33,116,44
2,43,102,1152
2,62,110,0
2,59,105,0
2,55,89,0
2,66,102,0
2,59,39,56
2,66,113,120
2,62,116,0
2,59,105,0
2,69,113,318
2,66,110,0
2,62,107,0
2,71,102,908
2,78,100,0
2,74,110,0
2,50,105,402
2,60,95,0
2,64,100,0
2,67,102,0
2,64,107,82
2,60,98,0
2,67,100,0
2,50,91,130
2,72,119,576
2,67,110,0
2,72,93,342
2,76,113,0
2,79,110,342
2,76,100,0
2,83,107,340
2,79,98,0
2,66,105,52
2,59,100,0
2,62,110,0
2,43,98,212
2,55,91,192
2,62,113,80
2,66,107,0
2,59,107,0
2,66,10,102
2,62,34,0
2,43,52,0
2,62,110,132
2,55,76,0
2,59,98,0
2,43,89,0
2,66,102,0
2,55,85,28
2,43,89,0
2,62,102,0
2,59,87,0
2,66,91,0
2,59,91,96
2,66,100,74
2,62,105,0
2,59,89,0
2,62,110,106
2,59,100,0
2,66,107,0
2,50,91,8
2,60,100,0
2,64,105,0
2,67,100,0
2,50,89,14
2,67,122,192
2,50,89,72
2,72,122,192
2,79,105,322
2,76,102,0
2,72,93,0
2,74,102,336
2,67,91,0
2,71,102,0
2,64,98,72
2,60,89,0
2,67,98,0
2,50,87,312
2,55,66,160
2,62,91,0
2,59,91,0
2,43,74,0
2,66,80,0
2,55,82,56
2,59,91,94
2,62,66,8
2,66,82,46
2,62,110,68
2,55,105,0
2,59,116,0
2,64,105,176
2,57,102,0
2,60,107,0
2,66,102,160
2,62,107,0
2,59,98,0
2,64,91,112
2,67,85,0
2,60,85,0
2,50,89,0
2,50,52,116
2,62,105,24
2,67,98,0
2,60,74,296
2,64,82,0
2,67,82,0
2,55,66,214
2,62,91,0
2,59,91,0
2,43,74,0
2,66,80,0
2,55,82,56
2,59,91,94
2,62,66,8
2,66,82,46
2,62,110,68
2,55,105,0
2,59,116,0
2,64,105,176
2,57,102,0
2,60,107,0
2,66,102,160
2,62,107,0
2,59,98,0
2,64,91,112
2,67,85,0
2,60,85,0
2,50,89,0
2,50,52,116
2,62,105,24
2,67,98,0
2,60,74,296
2,64,82,0
2,67,82,0
2,57,102,214
2,62,110,0
2,66,102,0
2,47,102,0
2,47,105,88
2,57,91,106
2,57,105,82
2,66,110,0
2,62,113,0
2,52,57,296
2,40,100,22
2,52,91,0
2,55,105,0
2,59,98,0
2,62,100,92
2,66,102,0
2,64,107,312
2,60,102,0
2,62,110,312
2,57,105,0
2,45,93,180
2,64,98,0
2,55,87,0
2,60,102,0
2,55,105,8
2,60,95,12
2,64,105,26
2,60,98,30
2,64,102,0
2,67,100,0
2,50,100,0
2,66,85,6
2,63,89,0
2,57,87,0
2,47,87,200
2,59,100,116
2,67,105,0
2,64,98,0
2,64,100,144
2,74,107,0
2,71,107,0
2,67,110,0
2,64,105,136
2,67,113,0
2,45,89,140
2,55,98,0
2,64,98,0
2,60,105,0
2,60,98,6
2,64,107,0
2,67,100,0
2,50,89,0
2,50,110,96
2,60,105,62
2,64,113,0
2,67,107,0
2,55,68,320
2,66,98,0
2,62,107,0
2,59,95,0
2,55,113,196
2,59,102,24
2,62,100,106
2,66,105,112
2,66,89,88
2,57,95,0
2,62,102,0
2,47,102,0
2,66,95,34
2,57,93,0
2,62,105,0
2,47,89,48
2,57,100,136
2,66,74,48
2,62,93,0
2,57,82,0
2,59,100,158
2,67,105,0
2,64,98,0
2,64,100,144
2,74,107,0
2,71,107,0
2,67,110,0
2,64,105,136
2,67,113,0
2,45,89,140
2,55,98,0
2,64,98,0
2,60,105,0
2,60,98,6
2,64,107,0
2,67,100,0
2,50,89,0
2,50,110,96
2,60,105,62
2,64,113,0
2,67,107,0
2,55,68,320
2,66,98,0
2,62,107,0
2,59,95,0
2,55,113,196
2,59,102,24
2,62,100,106
2,66,105,112
2,66,95,88
2,62,87,0
2,69,105,260
2,74,76,320
2,55,66,178
2,62,91,0
2,59,91,0
2,43,74,0
2,66,80,0
2,55,82,56
2,59,91,94
2,62,66,8
2,66,82,46
2,62,110,68
2,55,105,0
2,59,116,0
2,64,105,176
2,57,102,0
2,60,107,0
2,66,102,160
2,62,107,0
2,59,98,0
2,64,91,112
2,67,85,0
2,60,85,0
2,50,89,0
2,50,52,116
2,62,105,24
2,67,98,0
2,60,74,296
2,64,82,0
2,67,82,0
2,55,66,214
2,62,91,0
2,59,91,0
2,43,74,0
2,66,80,0
2,55,82,56
2,59,91,94
2,62,66,8
2,66,82,46
2,62,110,68
2,55,105,0
2,59,116,0
2,64,105,176
2,57,102,0
2,60,107,0
2,66,102,160
2,62,107,0
2,59,98,0
2,64,91,112
2,67,85,0
2,60,85,0
2,50,89,0
2,50,52,116
2,62,105,24
2,67,98,0
2,60,74,296
2,64,82,0
2,67,82,0
2,57,102,214
2,62,110,0
2,66,102,0
2,47,102,0
2,47,105,88
2,57,91,106
2,57,105,82
2,66,110,0
2,62,113,0
2,52,57,296
2,40,100,22
2,52,91,0
2,55,105,0
2,59,98,0
2,62,100,92
2,66,102,0
2,64,107,312
2,60,102,0
2,62,110,312
2,57,105,0
2,45,93,180
2,64,98,0
2,55,87,0
2,60,102,0
2,55,105,8
2,60,95,12
2,64,105,26
2,60,98,30
2,64,102,0
2,67,100,0
2,50,100,0
2,66,85,6
2,63,89,0
2,57,87,0
2,47,87,200
2,59,100,116
2,67,105,0
2,64,98,0
2,64,100,144
2,74,107,0
2,71,107,0
2,67,110,0
2,64,105,136
2,67,113,0
2,45,89,140
2,55,98,0
2,64,98,0
2,60,105,0
2,60,98,6
2,64,107,0
2,67,100,0
2,50,89,0
2,50,110,96
2,60,105,62
2,64,113,0
2,67,107,0
2,55,68,320
2,66,98,0
2,62,107,0
2,59,95,0
2,55,113,196
2,59,102,24
2,62,100,106
2,66,105,112
2,66,89,88
2,57,95,0
2,62,102,0
2,47,102,0
2,66,95,34
2,57,93,0
2,62,105,0
2,47,89,48
2,57,100,136
2,66,74,48
2,62,93,0
2,57,82,0
2,59,100,158
2,67,105,0
2,64,98,0
2,64,100,144
2,74,107,0
2,71,107,0
2,67,110,0
2,64,105,136
2,67,113,0
2,45,89,140
2,55,98,0
2,64,98,0
2,60,105,0
2,60,98,6
2,64,107,0
2,67,100,0
2,50,89,0
2,50,110,96
2,60,105,62
2,64,113,0
2,67,107,0
2,55,68,320
2,66,98,0
2,62,107,0
2,59,95,0
2,55,113,196
2,59,102,24
2,62,100,106
2,66,105,112
2,66,95,88
2,62,87,0
2,69,105,260
2,74,76,320
2,59,87,178
2,66,85,0
2,63,89,0
2,59,34,294
2,59,87,168
2,63,89,0
2,66,93,0
2,59,60,326
2,66,63,0
2,63,66,0
2,54,80,34
2,59,70,40
2,51,68,84
2,51,60,4
2,66,68,0
2,59,80,0
2,63,74,0
2,59,95,12
2,66,89,0
2,54,95,0
2,63,91,0
2,59,82,62
2,66,91,0
2,63,93,0
2,64,82,466
2,59,76,0
2,68,87,0
2,52,82,0
2,64,64,136
2,68,80,0
2,68,110,128
2,64,100,0
2,66,113,340
2,64,100,272
2,66,64,34
2,63,72,0
2,59,64,0
2,54,52,320
2,59,78,0
2,66,98,0
2,63,87,0
2,59,85,336
2,66,100,0
2,63,91,0
2,54,47,340
2,59,87,0
2,51,45,120
2,59,91,0
2,63,87,0
2,54,64,0
2,66,102,368
2,59,95,0
2,63,100,0
2,66,98,50
2,63,89,0
2,59,91,0
2,59,70,6
2,68,85,0
2,64,93,0
2,52,87,0
2,64,58,88
2,64,102,136
2,68,100,0
2,68,91,334
2,68,91,120
2,66,91,40
2,64,87,48
2,64,98,106
2,52,82,0
2,59,58,0
2,64,53,112
2,68,74,128
2,64,70,0
2,52,82,0
2,59,62,0
2,64,100,320
2,68,98,0
2,71,105,0
2,49,102,154
2,68,102,0
2,64,110,0
2,59,102,0
2,49,105,88
2,59,91,106
2,64,113,82
2,68,110,0
2,59,105,0
2,54,57,296
2,61,98,22
2,57,105,0
2,54,91,0
2,42,100,0
2,68,102,92
2,64,100,0
2,62,102,312
2,66,107,0
2,59,105,312
2,64,110,0
2,62,102,180
2,57,87,0
2,66,98,0
2,47,93,0
2,57,105,8
2,62,95,12
2,66,105,26
2,57,91,30
2,62,100,0
2,66,82,0
2,52,98,0
2,59,87,32
2,68,95,0
2,64,102,0
2,52,107,0
2,59,100,30
2,68,95,66
2,64,102,0
2,59,89,0
2,52,100,78
2,69,100,0
2,66,102,0
2,62,98,0
2,59,87,6
2,65,89,0
2,68,85,0
2,49,87,200
2,66,98,116
2,69,105,0
2,61,100,0
2,69,110,144
2,73,107,0
2,76,107,0
2,66,100,0
2,69,113,136
2,66,105,0
2,62,105,140
2,66,98,0
2,57,98,0
2,47,89,0
2,52,89,6
2,69,100,0
2,66,107,0
2,62,98,0
2,52,110,96
2,69,107,62
2,66,113,0
2,62,105,0
2,61,95,320
2,64,107,0
2,68,98,0
2,57,68,0
2,57,113,196
2,61,102,24
2,64,100,106
2,68,105,112
2,49,102,88
2,64,102,0
2,59,95,0
2,68,89,0
2,64,105,34
2,59,93,0
2,68,95,0
2,49,89,48
2,59,100,136
2,59,82,48
2,64,93,0
2,68,74,0
2,66,98,158
2,69,105,0
2,61,100,0
2,69,110,144
2,73,107,0
2,76,107,0
2,66,100,0
2,69,113,136
2,66,105,0
2,62,105,140
2,66,98,0
2,57,98,0
2,47,89,0
2,52,89,6
2,69,100,0
2,66,107,0
2,62,98,0
2,52,110,96
2,69,107,62
2,66,113,0
2,62,105,0
2,61,95,320
2,64,107,0
2,68,98,0
2,57,68,0
2,57,113,196
2,61,102,24
2,64,100,106
2,68,105,112
2,49,102,88
2,64,102,0
2,59,95,0
2,68,89,0
2,64,105,34
2,59,93,0
2,68,95,0
2,49,89,48
2,59,100,136
2,59,82,48
2,64,93,0
2,68,74,0
2,66,98,158
2,69,105,0
2,61,100,0
2,69,110,144
2,73,107,0
2,76,107,0
2,66,100,0
2,69,113,136
2,66,105,0
2,62,105,56
2,66,98,0
2,57,98,0
2,47,89,0
2,52,89,0
2,69,100,0
2,66,107,0
2,62,98,0
2,52,110,96
2,69,107,62
2,66,113,0
2,62,105,0
2,61,95,68
2,64,107,0
2,68,98,0
2,57,68,0
2,57,113,196
2,61,102,24
2,64,100,106
2,68,105,112
2,49,102,10
2,64,102,0
2,59,95,0
2,68,89,0
2,64,105,120
2,59,93,0
2,68,95,0
2,49,89,62
2,59,100,136
2,59,82,48
2,64,93,0
2,68,74,0
2,66,98,72
2,69,105,0
2,61,100,0
2,69,110,144
2,73,107,0
2,76,107,0
2,66,100,0
2,69,113,136
2,66,105,0
2,62,105,12
2,66,98,0
