track,note,velocity,time
1,38,120,6432
1,38,104,48
1,38,100,144
1,38,122,48
1,38,106,144
1,38,110,48
1,38,104,144
1,38,117,48
1,38,108,144
1,38,114,144
1,38,122,144
1,38,108,48
1,38,102,144
1,38,104,48
1,38,110,144
1,38,110,48
1,38,104,144
1,38,106,48
1,38,114,144
1,38,110,144
1,34,104,144
1,34,95,48
1,34,81,144
1,34,119,48
1,34,110,144
1,34,110,48
1,34,93,144
1,34,116,48
1,34,110,144
1,34,110,144
1,34,113,144
1,34,97,48
1,34,93,144
1,34,116,48
1,34,113,144
1,34,101,48
1,34,95,144
1,34,113,48
1,34,110,144
1,34,119,144
1,38,120,144
1,38,104,48
1,38,100,144
1,38,122,48
1,38,106,144
1,38,110,48
1,38,104,144
1,38,117,48
1,38,108,144
1,38,114,144
1,38,122,144
1,38,108,48
1,38,102,144
1,38,104,48
1,38,110,144
1,38,110,48
1,38,104,144
1,38,106,48
1,38,114,144
1,38,110,144
1,34,104,144
1,34,95,48
1,34,81,144
1,34,119,48
1,34,110,144
1,34,110,48
1,34,93,144
1,34,116,48
1,34,110,144
1,34,110,144
1,34,113,144
1,34,97,48
1,34,93,144
1,34,116,48
1,34,113,144
1,34,101,48
1,34,95,144
1,34,113,48
1,34,110,144
1,34,119,144
1,38,120,144
1,38,104,48
1,38,100,144
1,38,122,48
1,38,106,144
1,38,110,48
1,38,104,144
1,38,117,48
1,38,108,144
1,38,114,144
1,38,122,144
1,38,108,48
1,38,102,144
1,38,104,48
1,38,110,144
1,38,110,48
1,38,104,144
1,38,106,48
1,38,114,144
1,38,110,144
1,34,104,144
1,34,95,48
1,34,81,144
1,34,119,48
1,34,110,144
1,34,110,48
1,34,93,144
1,34,116,48
1,34,110,144
1,34,110,144
1,34,113,144
1,34,97,48
1,34,93,144
1,34,116,48
1,34,113,144
1,34,101,48
1,34,95,144
1,34,113,48
1,34,110,144
1,34,119,144
1,38,120,144
1,38,104,48
1,38,100,144
1,38,122,48
1,38,106,144
1,38,110,48
1,38,104,144
1,38,117,48
1,38,108,144
1,38,114,144
1,38,122,144
1,38,108,48
1,38,102,144
1,38,104,48
1,38,110,144
1,38,110,48
1,38,104,144
1,38,106,48
1,38,114,144
1,38,110,144
1,34,104,144
1,34,95,48
1,34,81,144
1,34,119,48
1,34,110,144
1,34,110,48
1,34,93,144
1,34,116,48
1,34,110,144
1,34,110,144
1,34,113,144
1,34,97,48
1,34,93,144
1,34,116,48
1,34,113,144
1,34,101,48
1,34,95,144
1,34,113,48
1,34,110,144
1,34,119,144
1,38,120,144
1,38,104,48
1,38,100,144
1,38,122,48
1,38,106,144
1,38,110,48
1,38,104,144
1,38,117,48
1,38,108,144
1,38,114,144
1,38,122,144
1,38,108,48
1,38,102,144
1,38,104,48
1,38,110,144
1,38,110,48
1,38,104,144
1,38,106,48
1,38,114,144
1,38,110,144
1,31,104,144
1,31,95,48
1,31,81,144
1,31,119,48
1,31,110,144
1,31,110,48
1,31,93,144
1,31,116,48
1,31,110,144
1,31,110,144
1,31,113,144
1,38,120,1488
1,38,104,48
1,38,100,144
1,38,122,48
1,38,106,144
1,38,110,48
1,38,104,144
1,38,117,48
1,38,108,144
1,38,114,144
1,38,122,144
1,38,108,48
1,38,102,144
1,38,104,48
1,38,110,144
1,38,110,48
1,38,104,144
1,38,106,48
1,38,114,144
1,38,110,144
1,34,104,144
1,34,95,48
1,34,81,144
1,34,119,48
1,34,110,144
1,34,110,48
1,34,93,144
1,34,116,48
1,34,110,144
1,34,110,144
1,31,113,144
1,31,97,48
1,31,93,144
1,31,116,48
1,31,113,144
1,31,101,48
1,31,95,144
1,31,113,48
1,31,110,144
1,31,119,144
1,38,120,144
1,38,104,48
1,38,100,144
1,38,122,48
1,38,106,144
1,38,110,48
1,38,104,144
1,38,117,48
1,38,108,144
1,38,114,144
1,38,122,144
1,38,108,48
1,38,102,144
1,38,104,48
1,38,110,144
1,38,110,48
1,38,104,144
1,38,106,48
1,38,114,144
1,38,110,144
1,34,104,144
1,34,95,48
1,34,81,144
1,34,119,48
1,34,110,144
1,34,110,48
1,34,93,144
1,34,116,48
1,34,110,144
1,34,110,144
1,31,113,144
1,31,97,48
1,31,93,144
1,31,116,48
1,31,113,144
1,31,101,48
1,31,95,144
1,31,113,48
1,31,110,144
1,31,119,144
1,38,120,144
1,38,104,48
1,38,100,144
1,38,122,48
1,38,106,144
1,38,110,48
1,38,104,144
1,38,117,48
1,38,108,144
1,38,114,144
1,38,122,144
1,38,108,48
1,38,102,144
1,38,104,48
1,38,110,144
1,38,110,48
1,38,104,144
1,38,106,48
1,38,114,144
1,38,110,144
1,34,104,144
1,34,95,48
1,34,81,144
1,34,119,48
1,34,110,144
1,34,110,48
1,34,93,144
1,34,116,48
1,34,110,144
1,34,110,144
1,31,113,144
1,31,97,48
1,31,93,144
1,31,116,48
1,31,113,144
1,31,101,48
1,31,95,144
1,31,113,48
1,31,110,144
1,31,119,144
1,38,120,144
1,38,104,48
1,38,100,144
1,38,122,48
1,38,106,144
1,38,110,48
1,38,104,144
1,38,117,48
1,38,108,144
1,38,114,144
1,38,122,144
1,38,108,48
1,38,102,144
1,38,104,48
1,38,110,144
1,38,110,48
1,38,104,144
1,38,106,48
1,38,114,144
1,38,110,144
1,34,104,144
1,34,95,48
1,34,81,144
1,34,119,48
1,34,110,144
1,34,110,48
1,34,93,144
1,34,116,48
1,34,110,144
1,34,110,144
1,31,113,144
1,31,97,48
1,31,93,144
1,31,116,48
1,31,113,144
1,31,101,48
1,31,95,144
1,31,113,48
1,31,110,144
1,31,119,144
1,38,120,144
1,38,104,48
1,38,100,144
1,38,122,48
1,38,106,144
1,38,110,48
1,38,104,144
1,38,117,48
1,38,108,144
1,38,114,144
1,38,122,144
1,38,108,48
1,38,102,144
1,38,104,48
1,38,110,144
1,38,110,48
1,38,104,144
1,38,106,48
1,38,114,144
1,38,110,144
1,34,104,144
1,34,95,48
1,34,81,144
1,34,119,48
1,34,110,144
1,34,110,48
1,34,93,144
1,34,116,48
1,34,110,144
1,34,110,144
1,34,113,144
1,34,97,48
1,34,93,144
1,34,116,48
1,34,113,144
1,34,101,48
1,34,95,144
1,34,113,48
1,34,110,144
1,34,119,144
1,38,120,144
1,38,104,48
1,38,100,144
1,38,122,48
1,38,106,144
1,38,110,48
1,38,104,144
1,38,117,48
1,38,108,144
1,38,114,144
1,38,122,144
1,38,108,48
1,38,102,144
1,38,104,48
1,38,110,144
1,38,110,48
1,38,104,144
1,38,106,48
1,38,114,144
1,38,110,144
1,34,104,144
1,34,95,48
1,34,81,144
1,34,119,48
1,34,110,144
1,34,110,48
1,34,93,144
1,34,116,48
1,34,110,144
1,34,110,144
1,34,113,144
1,38,120,1488
1,38,104,48
1,38,100,144
1,38,122,48
1,38,106,144
1,38,110,48
1,38,104,144
1,38,117,48
1,38,108,144
1,38,114,144
1,38,122,144
1,38,108,48
1,38,102,144
1,38,104,48
1,38,110,144
1,38,110,48
1,38,104,144
1,38,106,48
1,38,114,144
1,38,110,144
1,34,104,144
1,34,95,48
1,34,81,144
1,34,119,48
1,34,110,144
1,34,110,48
1,34,93,144
1,34,116,48
1,34,110,144
1,34,110,144
1,34,113,144
1,34,97,48
1,34,93,144
1,34,116,48
1,34,113,144
1,34,101,48
1,34,95,144
1,34,113,48
1,34,110,144
1,34,119,144
1,38,120,144
1,38,104,48
1,38,100,144
1,38,122,48
1,38,106,144
1,38,110,48
1,38,104,144
1,38,117,48
1,38,108,144
1,38,114,144
1,38,122,144
1,38,108,48
1,38,102,144
1,38,104,48
1,38,110,144
1,38,110,48
1,38,104,144
1,38,106,48
1,38,114,144
1,38,110,144
1,34,104,144
1,34,95,48
1,34,81,144
1,34,119,48
1,34,110,144
1,34,110,48
1,34,93,144
1,34,116,48
1,34,110,144
1,34,110,144
1,34,113,144
1,34,97,48
1,34,93,144
1,34,116,48
1,34,113,144
1,34,101,48
1,34,95,144
1,34,113,48
1,34,110,144
1,34,119,144
1,38,120,144
1,38,104,48
1,38,100,144
1,38,122,48
1,38,106,144
1,38,110,48
1,38,104,144
1,38,117,48
1,38,108,144
1,38,114,144
1,38,122,144
1,38,108,48
1,38,102,144
1,38,104,48
1,38,110,144
1,38,110,48
1,38,104,144
1,38,106,48
1,38,114,144
1,38,110,144
1,34,104,144
1,34,95,48
1,34,81,144
1,34,119,48
1,34,110,144
1,34,110,48
1,34,93,144
1,34,116,48
1,34,110,144
1,34,110,144
1,34,113,144
1,34,97,48
1,34,93,144
1,34,116,48
1,34,113,144
1,34,101,48
1,34,95,144
1,34,113,48
1,34,110,144
1,34,119,144
1,38,120,144
1,38,104,48
1,38,100,144
1,38,122,48
1,38,106,144
1,38,110,48
1,38,104,144
1,38,117,48
1,38,108,144
1,38,114,144
1,38,122,144
1,38,108,48
1,38,102,144
1,38,104,48
1,38,110,144
1,38,110,48
1,38,104,144
1,38,106,48
1,38,114,144
1,38,110,144
1,31,104,144
1,31,95,48
1,31,81,144
1,31,119,48
1,31,110,144
1,31,110,48
1,31,93,144
1,31,116,48
1,31,110,144
1,31,110,144
1,31,113,144
1,38,120,1488
1,38,104,48
1,38,100,144
1,38,122,48
1,38,106,144
1,38,110,48
1,38,104,144
1,38,117,48
1,38,108,144
1,38,114,144
1,38,122,144
1,38,108,48
1,38,102,144
1,38,104,48
1,38,110,144
1,38,110,48
1,38,104,144
1,38,106,48
1,38,114,144
1,38,110,144
1,34,104,144
1,34,95,48
1,34,81,144
1,34,119,48
1,34,110,144
1,34,110,48
1,34,93,144
1,34,116,48
1,34,110,144
1,34,110,144
1,31,113,144
1,31,97,48
1,31,93,144
1,31,116,48
1,31,113,144
1,31,101,48
1,31,95,144
1,31,113,48
1,31,110,144
1,31,119,144
1,38,120,144
1,38,104,48
1,38,100,144
1,38,122,48
1,38,106,144
1,38,110,48
1,38,104,144
1,38,117,48
1,38,108,144
1,38,114,144
1,38,122,144
1,38,108,48
1,38,102,144
1,38,104,48
1,38,110,144
1,38,110,48
1,38,104,144
1,38,106,48
1,38,114,144
1,38,110,144
1,34,104,144
1,34,95,48
1,34,81,144
1,34,119,48
1,34,110,144
1,34,110,48
1,34,93,144
1,34,116,48
1,34,110,144
1,34,110,144
1,31,113,144
1,31,97,48
1,31,93,144
1,31,116,48
1,31,113,144
1,31,101,48
1,31,95,144
1,31,113,48
1,31,110,144
1,31,119,144
1,38,120,144
1,38,104,48
1,38,100,144
1,38,122,48
1,38,106,144
1,38,110,48
1,38,104,144
1,38,117,48
1,38,108,144
1,38,114,144
1,38,122,144
1,38,108,48
1,38,102,144
1,38,104,48
1,38,110,144
1,38,110,48
1,38,104,144
1,38,106,48
1,38,114,144
1,38,110,144
1,34,104,144
1,34,95,48
1,34,81,144
1,34,119,48
1,34,110,144
1,34,110,48
1,34,93,144
1,34,116,48
1,34,110,144
1,34,110,144
1,31,113,144
1,31,97,48
1,31,93,144
1,31,116,48
1,31,113,144
1,31,101,48
1,31,95,144
1,31,113,48
1,31,110,144
1,31,119,144
1,38,120,144
1,38,104,48
1,38,100,144
1,38,122,48
1,38,106,144
1,38,110,48
1,38,104,144
1,38,117,48
1,38,108,144
1,38,114,144
1,38,122,144
1,38,108,48
1,38,102,144
1,38,104,48
1,38,110,144
1,38,110,48
1,38,104,144
1,38,106,48
1,38,114,144
1,38,110,144
1,34,104,144
1,34,95,48
1,34,81,144
1,34,119,48
1,34,110,144
1,34,110,48
1,34,93,144
1,34,116,48
1,34,110,144
1,34,110,144
1,31,113,144
1,31,97,48
1,31,93,144
1,31,116,48
1,31,113,144
1,31,101,48
1,31,95,144
1,31,113,48
1,31,110,144
1,31,119,144
1,38,120,144
1,38,104,48
1,38,100,144
1,38,122,48
1,38,106,144
1,38,110,48
1,38,104,144
1,38,117,48
1,38,108,144
1,38,114,144
1,38,122,144
1,38,108,48
1,38,102,144
1,38,104,48
1,38,110,144
1,38,110,48
1,38,104,144
1,38,106,48
1,38,114,144
1,38,110,144
1,38,120,144
1,38,104,48
1,38,100,144
1,38,122,48
1,38,106,144
1,38,110,48
1,38,104,144
1,38,117,48
1,38,108,144
1,38,114,144
1,38,122,144
1,38,108,48
1,38,102,144
1,38,104,48
1,38,110,144
1,38,110,48
1,38,104,144
1,38,106,48
1,38,114,144
1,38,110,144
1,38,120,144
1,38,104,48
1,38,100,144
1,38,122,48
1,38,106,144
1,38,110,48
1,38,104,144
1,38,117,48
1,38,108,144
1,38,114,144
1,38,122,144
1,38,108,48
1,38,102,144
1,38,104,48
1,38,110,144
1,38,110,48
1,38,104,144
1,38,106,48
1,38,114,144
1,38,110,144
1,34,104,144
1,34,95,48
1,34,81,144
1,34,119,48
1,34,110,144
1,34,110,48
1,34,93,144
1,34,116,48
1,34,110,144
1,34,110,144
1,31,113,144
1,38,120,384
1,38,104,48
1,38,100,144
1,38,122,48
1,38,106,144
1,38,110,48
1,38,104,144
1,38,117,48
1,38,108,144
1,38,114,144
1,38,122,144
1,38,108,48
1,38,102,144
1,38,104,48
1,38,110,144
1,38,110,48
1,38,104,144
1,38,106,48
1,38,114,144
1,38,110,144
1,34,104,144
1,34,95,48
1,34,81,144
1,34,119,48
1,34,110,144
1,34,110,48
1,34,93,144
1,34,116,48
1,34,110,144
1,34,110,144
1,31,113,144
1,31,97,48
1,31,93,144
1,31,116,48
1,31,113,144
1,31,101,48
1,31,95,144
1,31,113,48
1,31,110,144
1,31,119,144
1,38,120,144
1,38,104,48
1,38,100,144
1,38,122,48
1,38,106,144
1,38,110,48
1,38,104,144
1,38,117,48
1,38,108,144
1,38,114,144
1,38,122,144
1,38,108,48
1,38,102,144
1,38,104,48
1,38,110,144
1,38,110,48
1,38,104,144
1,38,106,48
1,38,114,144
1,38,110,144
1,34,104,144
1,34,95,48
1,34,81,144
1,34,119,48
1,34,110,144
1,34,110,48
1,34,93,144
1,34,116,48
1,34,110,144
1,34,110,144
1,31,113,144
1,31,97,48
1,31,93,144
1,31,116,48
1,31,113,144
1,31,101,48
1,31,95,144
1,31,113,48
1,31,110,144
1,31,119,144
2,62,97,12800
2,65,97,0
2,69,97,0
2,72,97,0
2,70,97,0
2,62,97,0
2,65,97,0
2,69,97,0
2,72,97,0
2,62,97,0
2,65,97,0
2,70,97,0
2,62,97,0
2,65,97,0
2,69,97,0
2,72,97,0
2,70,97,0
2,62,97,0
2,65,97,0
2,69,97,0
2,72,97,0
2,55,96,0
2,58,97,0
2,62,97,0
2,65,97,0
2,62,89,24576
2,65,89,0
2,69,89,0
2,72,89,0
2,62,89,0
2,65,89,0
2,70,89,0
2,62,89,72
2,65,89,0
2,69,89,0
2,72,89,0
2,62,89,0
2,65,89,0
2,70,89,0
2,62,89,12360
2,65,89,0
2,69,89,0
2,72,89,0
2,62,89,0
2,65,89,0
2,70,89,0
2,62,89,72
2,65,89,0
2,69,89,0
2,72,89,0
2,62,89,0
2,65,89,0
2,70,89,0
2,62,97,72
2,65,97,0
2,69,97,0
2,72,97,0
2,70,97,0
2,62,97,0
2,65,97,0
2,69,97,0
2,72,97,0
2,55,96,0
2,58,97,0
2,62,97,0
2,65,97,0
2,38,123,2
2,50,123,0
2,46,115,3100
2,34,119,6
2,31,119,42
2,43,123,8
2,65,119,24192
2,69,119,0
2,65,91,26
2,70,115,8
2,62,123,2
2,67,95,106
2,62,111,10
2,58,115,4
2,65,103,72
2,69,119,4
2,74,123,2
2,70,111,4
2,62,115,2
2,67,87,108
2,58,111,16
2,62,115,2
2,38,127,0
2,62,127,0
2,66,123,0
2,69,123,0
2,74,127,0
3,53,107,13380
3,50,107,94
3,53,107,22
3,50,107,90
3,53,107,114
3,50,107,108
3,50,107,128
3,50,107,22
3,50,107,112
3,50,107,120
3,50,107,32
3,50,107,34
3,50,107,42
3,50,107,28
3,50,107,106
3,50,107,40
3,53,107,94
3,50,107,24
3,50,107,110
3,50,107,118
3,50,107,214
3,50,107,36
3,50,107,126
