track,note,velocity,time
1,36,127,8632
1,36,127,100
1,36,127,100
1,36,127,100
1,39,127,4
1,39,127,100
1,39,127,100
1,39,127,4
1,39,127,100
1,34,127,100
1,34,127,100
1,34,127,100
1,34,127,100
1,36,127,4
1,36,127,100
1,36,127,100
1,36,127,4
1,36,127,100
1,36,127,100
1,36,127,100
1,36,127,100
1,36,127,100
1,32,127,4
1,32,127,100
1,32,127,100
1,32,127,4
1,32,127,100
1,38,127,100
1,38,127,100
1,38,127,100
1,38,127,100
1,36,127,4
1,36,127,100
1,36,127,100
1,36,127,4
1,36,127,100
1,36,127,100
1,36,127,100
1,36,127,100
1,36,127,100
1,39,127,4
1,39,127,100
1,39,127,100
1,39,127,4
1,39,127,100
1,34,127,100
1,34,127,100
1,34,127,100
1,34,127,100
1,36,127,4
1,36,127,100
1,36,127,100
1,36,127,4
1,36,127,100
1,36,127,100
1,36,127,100
1,36,127,100
1,36,127,100
1,32,127,4
1,32,127,100
1,32,127,100
1,32,127,4
1,32,127,100
1,38,127,100
1,38,127,100
1,38,127,100
1,38,127,100
1,36,127,4
1,36,127,100
1,36,127,100
1,36,127,4
1,36,127,100
1,36,127,100
1,36,127,100
1,36,127,100
1,36,127,100
1,39,127,4
1,39,127,100
1,39,127,100
1,39,127,4
1,39,127,100
1,34,127,100
1,34,127,100
1,34,127,100
1,34,127,100
1,36,127,4
1,36,127,100
1,36,127,100
1,36,127,4
1,36,127,100
1,36,127,100
1,36,127,100
1,36,127,100
1,36,127,100
1,32,127,4
1,32,127,100
1,32,127,100
1,32,127,4
1,32,127,100
1,36,107,1636
1,36,107,116
1,36,107,116
1,36,107,26
1,36,107,20
1,36,107,116
1,36,107,116
1,36,107,4
1,36,107,116
1,36,107,116
1,36,107,116
1,36,107,116
1,36,107,26
1,36,107,20
1,36,107,116
1,36,107,116
1,36,107,4
1,36,107,116
1,36,107,116
1,36,107,116
1,36,107,116
1,36,107,26
1,36,107,20
1,36,107,116
1,36,107,116
1,36,107,4
1,36,107,116
1,36,107,116
1,36,107,116
1,36,107,116
1,36,107,26
1,36,107,20
1,39,107,116
1,39,107,116
1,38,107,4
1,38,107,116
1,32,107,116
1,32,107,116
1,32,107,116
1,32,107,26
1,32,107,20
1,32,107,116
1,32,107,116
1,32,107,4
1,32,107,116
1,32,107,116
1,32,107,116
1,32,107,116
1,32,107,26
1,32,107,20
1,32,107,116
1,32,107,116
1,32,107,4
1,32,107,116
1,32,107,116
1,32,107,116
1,32,107,116
1,32,107,26
1,32,107,20
1,32,107,116
1,32,107,116
1,32,107,4
1,32,107,116
1,32,107,116
1,32,107,116
1,32,107,116
1,32,107,22
1,32,107,40
1,32,107,116
1,32,107,116
1,34,107,4
1,34,107,116
1,36,107,116
1,36,107,116
1,36,107,116
1,36,107,26
1,36,107,20
1,36,107,116
1,36,107,116
1,36,107,4
1,36,107,116
1,36,107,116
1,36,107,116
1,36,107,116
1,36,107,26
1,36,107,20
1,36,107,116
1,36,107,116
1,36,107,4
1,36,107,116
1,36,107,116
1,36,107,116
1,36,107,116
1,36,107,26
1,36,107,20
1,36,107,116
1,36,107,116
1,36,107,4
1,36,107,116
1,36,107,116
1,36,107,116
1,36,107,116
1,36,107,26
1,36,107,20
1,39,107,116
1,39,107,116
1,38,107,4
1,38,107,116
1,32,107,116
1,32,107,116
1,32,107,116
1,32,107,26
1,32,107,20
1,32,107,116
1,32,107,116
1,32,107,4
1,32,107,116
1,32,107,116
1,32,107,116
1,32,107,116
1,32,107,26
1,32,107,20
1,32,107,116
1,32,107,116
1,32,107,4
1,32,107,116
1,32,107,116
1,32,107,116
1,32,107,116
1,32,107,26
1,32,107,20
1,32,107,116
1,32,107,116
1,32,107,4
1,32,107,116
1,32,107,116
1,32,107,116
1,32,107,116
1,32,107,22
1,32,107,40
1,32,107,116
1,32,107,116
1,34,107,4
1,34,107,116
1,36,127,116
1,36,127,100
1,36,127,100
1,36,127,100
1,39,127,4
1,39,127,100
1,39,127,100
1,39,127,4
1,39,127,100
1,34,127,100
1,34,127,100
1,34,127,100
1,34,127,100
1,36,127,4
1,36,127,100
1,36,127,100
1,36,127,4
1,36,127,100
1,36,127,100
1,36,127,100
1,36,127,100
1,36,127,100
1,32,127,4
1,32,127,100
1,32,127,100
1,32,127,4
1,32,127,100
1,38,127,100
1,38,127,100
1,38,127,100
1,38,127,100
1,36,127,4
1,36,127,100
1,36,127,100
1,36,127,4
1,36,127,100
1,36,127,100
1,36,127,100
1,36,127,100
1,36,127,100
1,39,127,4
1,39,127,100
1,39,127,100
1,39,127,4
1,39,127,100
1,34,127,100
1,34,127,100
1,34,127,100
1,34,127,100
1,36,127,4
1,36,127,100
1,36,127,100
1,36,127,4
1,36,127,100
1,36,127,100
1,36,127,100
1,36,127,100
1,36,127,100
1,32,127,4
1,32,127,100
1,32,127,100
1,32,127,4
1,32,127,100
1,38,127,100
1,38,127,100
1,38,127,100
1,38,127,100
1,36,127,4
1,36,127,100
1,36,127,100
1,36,127,4
1,36,127,100
1,36,127,100
1,36,127,100
1,36,127,100
1,36,127,100
1,39,127,4
1,39,127,100
1,39,127,100
1,39,127,4
1,39,127,100
1,34,127,100
1,34,127,100
1,34,127,100
1,34,127,100
1,36,127,4
1,36,127,100
1,36,127,100
1,36,127,4
1,36,127,100
1,36,127,100
1,36,127,100
1,36,127,100
1,36,127,100
1,32,127,4
1,32,127,100
1,32,127,100
1,32,127,4
1,32,127,100
1,38,127,100
1,38,127,100
1,38,127,100
1,38,127,100
1,36,127,4
1,36,127,100
1,36,127,100
1,36,127,4
1,36,127,100
1,36,127,100
1,36,127,100
1,36,127,100
1,36,127,100
1,39,127,4
1,39,127,100
1,39,127,100
1,39,127,4
1,39,127,100
1,34,127,100
1,34,127,100
1,34,127,100
1,34,127,100
1,36,127,4
1,36,127,100
1,36,127,100
1,36,127,4
1,36,127,100
1,36,127,100
1,36,127,100
1,36,127,100
1,36,127,100
1,32,127,4
1,32,127,100
1,32,127,100
1,32,127,4
1,32,127,100
1,36,107,1636
1,36,107,116
1,36,107,116
1,36,107,26
1,36,107,20
1,36,107,116
1,36,107,116
1,36,107,4
1,36,107,116
1,36,107,116
1,36,107,116
1,36,107,116
1,36,107,26
1,36,107,20
1,36,107,116
1,36,107,116
1,36,107,4
1,36,107,116
1,36,107,116
1,36,107,116
1,36,107,116
1,36,107,26
1,36,107,20
1,36,107,116
1,36,107,116
1,36,107,4
1,36,107,116
1,36,107,116
1,36,107,116
1,36,107,116
1,36,107,26
1,36,107,20
1,39,107,116
1,39,107,116
1,38,107,4
1,38,107,116
1,32,107,116
1,32,107,116
1,32,107,116
1,32,107,26
1,32,107,20
1,32,107,116
1,32,107,116
1,32,107,4
1,32,107,116
1,32,107,116
1,32,107,116
1,32,107,116
1,32,107,26
1,32,107,20
1,32,107,116
1,32,107,116
1,32,107,4
1,32,107,116
1,32,107,116
1,32,107,116
1,32,107,116
1,32,107,26
1,32,107,20
1,32,107,116
1,32,107,116
1,32,107,4
1,32,107,116
1,32,107,116
1,32,107,116
1,32,107,116
1,32,107,22
1,32,107,40
1,32,107,116
1,32,107,116
1,34,107,4
1,34,107,116
1,36,107,116
1,36,107,116
1,36,107,116
1,36,107,26
1,36,107,20
1,36,107,116
1,36,107,116
1,36,107,4
1,36,107,116
1,36,107,116
1,36,107,116
1,36,107,116
1,36,107,26
1,36,107,20
1,36,107,116
1,36,107,116
1,36,107,4
1,36,107,116
1,36,107,116
1,36,107,116
1,36,107,116
1,36,107,26
1,36,107,20
1,36,107,116
1,36,107,116
1,36,107,4
1,36,107,116
1,36,107,116
1,36,107,116
1,36,107,116
1,36,107,26
1,36,107,20
1,39,107,116
1,39,107,116
1,38,107,4
1,38,107,116
1,32,107,116
1,32,107,116
1,32,107,116
1,32,107,26
1,32,107,20
1,32,107,116
1,32,107,116
1,32,107,4
1,32,107,116
1,32,107,116
1,32,107,116
1,32,107,116
1,32,107,26
1,32,107,20
1,32,107,116
1,32,107,116
1,32,107,4
1,32,107,116
1,32,107,116
1,32,107,116
1,32,107,116
1,32,107,26
1,32,107,20
1,32,107,116
1,32,107,116
1,32,107,4
1,32,107,116
1,32,107,116
1,32,107,116
1,32,107,116
1,32,107,22
1,32,107,40
1,32,107,116
1,32,107,116
1,34,107,4
1,34,107,116
1,36,127,116
1,36,127,100
1,36,127,100
1,36,127,100
1,39,127,4
1,39,127,100
1,39,127,100
1,39,127,4
1,39,127,100
1,34,127,100
1,34,127,100
1,34,127,100
1,34,127,100
1,36,127,4
1,36,127,100
1,36,127,100
1,36,127,4
1,36,127,100
1,36,127,100
1,36,127,100
1,36,127,100
1,36,127,100
1,32,127,4
1,32,127,100
1,32,127,100
1,32,127,4
1,32,127,100
1,38,127,100
1,38,127,100
1,38,127,100
1,38,127,100
1,36,127,4
1,36,127,100
1,36,127,100
1,36,127,4
1,36,127,100
1,36,127,100
1,36,127,100
1,36,127,100
1,36,127,100
1,39,127,4
1,39,127,100
1,39,127,100
1,39,127,4
1,39,127,100
1,34,127,100
1,34,127,100
1,34,127,100
1,34,127,100
1,36,127,4
1,36,127,100
1,36,127,100
1,36,127,4
1,36,127,100
1,36,127,100
1,36,127,100
1,36,127,100
1,36,127,100
1,32,127,4
1,32,127,100
1,32,127,100
1,32,127,4
1,32,127,100
1,38,127,100
1,38,127,100
1,38,127,100
1,38,127,100
1,36,127,4
1,36,127,100
1,36,127,100
1,36,127,4
1,36,127,100
1,36,127,100
1,36,127,100
1,36,127,100
1,36,127,100
1,39,127,4
1,39,127,100
1,39,127,100
1,39,127,4
1,39,127,100
1,34,127,100
1,34,127,100
1,34,127,100
1,34,127,100
1,36,127,4
1,36,127,100
1,36,127,100
1,36,127,4
1,36,127,100
1,36,127,100
1,36,127,100
1,36,127,100
1,36,127,100
1,32,127,4
1,32,127,100
1,32,127,100
1,32,127,4
1,32,127,100
1,38,127,100
1,38,127,100
1,38,127,100
1,38,127,100
1,36,127,4
1,36,127,100
1,36,127,100
1,36,127,4
1,36,127,100
1,36,127,100
1,36,127,100
1,36,127,100
1,36,127,100
1,39,127,4
1,39,127,100
1,39,127,100
1,39,127,4
1,39,127,100
1,34,127,100
1,34,127,100
1,34,127,100
1,34,127,100
1,36,127,4
1,36,127,100
1,36,127,100
1,36,127,4
1,36,127,100
1,36,127,100
1,36,127,100
1,36,127,100
1,36,127,100
1,32,127,4
1,32,127,100
1,32,127,100
1,32,127,4
1,32,127,100
1,36,127,13924
1,36,127,100
1,36,127,100
1,36,127,100
1,39,127,4
1,39,127,100
1,39,127,100
1,39,127,4
1,39,127,100
1,34,127,100
1,34,127,100
1,34,127,100
1,34,127,100
1,36,127,4
1,36,127,100
1,36,127,100
1,36,127,4
1,36,127,100
1,36,127,100
1,36,127,100
1,36,127,100
1,36,127,100
1,32,127,4
1,32,127,100
1,32,127,100
1,32,127,4
1,32,127,100
1,38,127,100
1,38,127,100
1,38,127,100
1,38,127,100
1,36,127,4
1,36,127,100
1,36,127,100
1,36,127,4
1,36,127,100
1,36,127,100
1,36,127,100
1,36,127,100
1,36,127,100
1,39,127,4
1,39,127,100
1,39,127,100
1,39,127,4
1,39,127,100
1,34,127,100
1,34,127,100
1,34,127,100
1,34,127,100
1,36,127,4
1,36,127,100
1,36,127,100
1,36,127,4
1,36,127,100
1,36,127,100
1,36,127,100
1,36,127,100
1,36,127,100
1,32,127,4
1,32,127,100
1,32,127,100
1,32,127,4
1,32,127,100
1,38,127,100
1,38,127,100
1,38,127,100
1,38,127,100
1,36,127,4
1,36,127,100
1,36,127,100
1,36,127,4
1,36,127,100
1,36,127,100
1,36,127,100
1,36,127,100
1,36,127,100
1,39,127,4
1,39,127,100
1,39,127,100
1,39,127,4
1,39,127,100
1,34,127,100
1,34,127,100
1,34,127,100
1,34,127,100
1,36,127,4
1,36,127,100
1,36,127,100
1,36,127,4
1,36,127,100
1,36,127,100
1,36,127,100
1,36,127,100
1,36,127,100
1,32,127,4
1,32,127,100
1,32,127,100
1,32,127,4
1,32,127,100
1,38,127,100
1,38,127,100
1,38,127,100
1,38,127,100
1,36,127,4
1,36,127,100
1,36,127,100
1,36,127,4
1,36,127,100
2,60,127,2614
2,72,127,0
2,67,127,118
2,79,127,0
2,63,127,118
2,75,127,0
2,56,127,32
2,68,127,0
2,56,127,112
2,68,127,0
2,56,127,118
2,68,127,0
2,63,127,32
2,75,127,0
2,56,127,112
2,68,127,0
2,58,127,310
2,70,127,0
2,62,127,118
2,74,127,0
2,58,127,118
2,70,127,0
2,60,127,32
2,72,127,0
2,60,127,112
2,72,127,0
2,60,127,118
2,72,127,0
2,67,127,32
2,79,127,0
2,60,127,112
2,72,127,0
2,60,127,310
2,72,127,0
2,67,127,118
2,79,127,0
2,63,127,118
2,75,127,0
2,56,127,32
2,68,127,0
2,56,127,112
2,68,127,0
2,56,127,118
2,68,127,0
2,63,127,32
2,75,127,0
2,56,127,112
2,68,127,0
2,62,127,310
2,74,127,0
2,65,127,118
2,77,127,0
2,62,127,118
2,74,127,0
2,63,127,32
2,75,127,0
2,63,127,112
2,75,127,0
2,63,127,118
2,75,127,0
2,62,127,32
2,74,127,0
2,60,127,112
2,72,127,0
2,60,127,310
2,72,127,0
2,67,127,118
2,79,127,0
2,63,127,118
2,75,127,0
2,56,127,32
2,68,127,0
2,56,127,112
2,68,127,0
2,56,127,118
2,68,127,0
2,63,127,32
2,75,127,0
2,56,127,112
2,68,127,0
2,58,127,310
2,70,127,0
2,62,127,118
2,74,127,0
2,58,127,118
2,70,127,0
2,60,127,32
2,72,127,0
2,60,127,112
2,72,127,0
2,60,127,118
2,72,127,0
2,67,127,32
2,79,127,0
2,60,127,112
2,72,127,0
2,60,127,310
2,72,127,0
2,67,127,118
2,79,127,0
2,63,127,118
2,75,127,0
2,56,127,32
2,68,127,0
2,56,127,112
2,68,127,0
2,56,127,118
2,68,127,0
2,63,127,32
2,75,127,0
2,56,127,112
2,68,127,0
2,62,127,310
2,74,127,0
2,65,127,118
2,77,127,0
2,62,127,118
2,74,127,0
2,63,127,32
2,75,127,0
2,63,127,112
2,75,127,0
2,63,127,118
2,75,127,0
2,62,127,32
2,74,127,0
2,60,127,112
2,72,127,0
2,72,125,96
2,79,125,118
2,75,125,118
2,68,125,32
2,68,125,112
2,68,125,118
2,75,125,32
2,68,125,112
2,70,125,310
2,74,125,118
2,70,125,118
2,72,125,32
2,72,125,112
2,72,125,118
2,79,125,32
2,72,125,112
2,72,125,310
2,79,125,118
2,75,125,118
2,68,125,32
2,68,125,112
2,68,125,118
2,75,125,32
2,68,125,112
2,74,125,310
2,77,125,118
2,74,125,118
2,75,125,32
2,75,125,112
2,75,125,118
2,74,125,32
2,72,125,112
2,72,125,96
2,79,125,118
2,75,125,118
2,68,125,32
2,68,125,112
2,68,125,118
2,75,125,32
2,68,125,112
2,70,125,310
2,74,125,118
2,70,125,118
2,72,125,32
2,72,125,112
2,72,125,118
2,79,125,32
2,72,125,112
2,72,125,310
2,79,125,118
2,75,125,118
2,68,125,32
2,68,125,112
2,68,125,118
2,75,125,32
2,68,125,112
2,74,125,310
2,77,125,118
2,74,125,118
2,75,125,32
2,75,125,112
2,75,125,118
2,74,125,32
2,72,125,112
2,60,127,24778
2,72,127,0
2,67,127,118
2,79,127,0
2,63,127,118
2,75,127,0
2,56,127,32
2,68,127,0
2,56,127,112
2,68,127,0
2,56,127,118
2,68,127,0
2,63,127,32
2,75,127,0
2,56,127,112
2,68,127,0
2,58,127,310
2,70,127,0
2,62,127,118
2,74,127,0
2,58,127,118
2,70,127,0
2,60,127,32
2,72,127,0
2,60,127,112
2,72,127,0
2,60,127,118
2,72,127,0
2,67,127,32
2,79,127,0
2,60,127,112
2,72,127,0
2,60,127,310
2,72,127,0
2,67,127,118
2,79,127,0
2,63,127,118
2,75,127,0
2,56,127,32
2,68,127,0
2,56,127,112
2,68,127,0
2,56,127,118
