track,note,velocity,time
0,42,74,0
0,42,0,3
0,42,84,126
0,42,0,3
0,40,127,0
0,40,0,3
0,40,127,93
0,40,0,3
0,40,127,45
0,40,0,3
0,40,127,48
0,40,0,3
0,40,127,45
0,40,0,3
0,60,99,93
0,48,123,0
0,60,120,0
0,79,127,0
0,36,127,0
0,63,100,0
0,84,127,0
0,63,127,0
0,67,94,0
0,35,127,0
0,36,109,0
0,49,76,0
0,67,120,0
0,72,127,0
0,49,0,3
0,35,0,0
0,42,97,93
0,42,0,3
0,63,0,3
0,60,0,2
0,48,0,1
0,67,0,1
0,36,0,1
0,36,0,17
0,60,112,20
0,63,127,0
0,67,120,0
0,42,97,0
0,42,0,3
0,35,127,6
0,36,117,0
0,48,123,0
0,36,123,0
0,35,0,3
0,84,0,1
0,79,0,3
0,72,0,1
0,63,0,6
0,60,0,1
0,67,0,6
0,42,97,6
0,60,117,0
0,63,124,0
0,65,123,0
0,42,0,2
0,48,0,2
0,36,0,1
0,36,0,16
0,60,0,3
0,63,0,3
0,65,0,3
0,42,94,14
0,42,0,3
0,36,117,45
0,48,123,0
0,60,120,0
0,35,127,0
0,63,127,0
0,36,123,0
0,65,127,0
0,35,0,3
0,42,97,93
0,42,0,3
0,63,0,1
0,65,0,4
0,60,0,1
0,48,0,6
0,36,0,1
0,36,0,12
0,60,120,20
0,42,94,0
0,63,127,0
0,67,127,0
0,42,0,3
0,35,127,45
0,36,120,0
0,36,120,0
0,48,123,0
0,35,0,3
0,63,0,18
0,67,0,0
0,60,0,5
0,60,66,22
0,67,115,0
0,60,0,10
0,72,127,38
0,79,127,0
0,84,127,0
0,42,97,0
0,65,125,0
0,42,0,3
0,48,0,7
0,67,0,8
0,36,0,5
0,36,0,2
0,84,0,15
0,63,127,0
0,42,91,0
0,65,0,1
0,79,0,1
0,42,0,1
0,72,0,6
0,63,0,25
0,63,127,14
0,35,127,0
0,44,114,0
0,32,121,0
0,60,125,0
0,67,125,0
0,32,114,0
0,35,0,3
0,60,0,86
0,63,0,1
0,42,97,6
0,67,0,1
0,42,0,2
0,32,0,6
0,44,0,3
0,32,0,13
0,60,120,23
0,63,127,0
0,67,127,0
0,42,97,0
0,42,0,3
0,32,124,45
0,32,107,0
0,35,127,0
0,44,111,0
0,35,0,3
0,60,0,37
0,63,0,0
0,67,0,3
0,60,115,53
0,42,97,0
0,63,127,0
0,65,125,0
0,42,0,3
0,32,0,18
0,44,0,3
0,32,0,6
0,60,0,2
0,63,0,6
0,65,0,7
0,42,97,3
0,42,0,3
0,60,125,45
0,32,111,0
0,63,127,0
0,35,127,0
0,65,127,0
0,32,124,0
0,44,118,0
0,35,0,3
0,63,0,89
0,60,0,1
0,42,97,3
0,65,0,2
0,42,0,1
0,32,0,5
0,44,0,3
0,32,0,2
0,60,127,35
0,42,94,0
0,63,127,0
0,67,127,0
0,42,0,3
0,32,124,45
0,32,118,0
0,35,127,0
0,44,114,0
0,35,0,3
0,63,0,14
0,67,0,4
0,60,0,1
0,65,127,26
0,77,123,0
0,67,115,0
0,65,0,31
0,77,0,2
0,67,115,15
0,42,97,0
0,65,127,0
0,79,127,0
0,42,0,3
0,32,0,3
0,44,0,9
0,32,0,1
0,67,0,6
0,79,0,5
0,67,0,1
0,65,0,19
0,68,118,1
0,63,124,0
0,80,127,0
0,42,91,0
0,42,0,3
0,60,0,5
0,67,0,19
0,68,0,4
0,63,0,4
0,80,0,1
0,63,0,2
0,82,121,10
0,75,79,0
0,34,114,0
0,65,85,0
0,70,118,0
0,46,124,0
0,58,95,0
0,58,114,0
0,35,127,0
0,63,107,0
0,77,92,0
0,65,120,0
0,34,127,0
0,63,68,0
0,35,0,3
0,58,0,86
0,42,97,7
0,42,0,3
0,46,0,0
0,63,0,2
0,34,0,0
0,65,0,4
0,34,0,18
0,42,97,21
0,58,121,0
0,63,114,0
0,65,120,0
0,42,0,3
0,34,118,45
0,34,111,0
0,35,127,0
0,46,118,0
0,35,0,3
0,58,0,34
0,63,0,4
0,65,0,17
0,65,117,38
0,42,97,0
0,58,118,0
0,63,121,0
0,42,0,3
0,34,0,11
0,46,0,0
0,34,0,2
0,42,97,32
0,42,0,3
0,58,0,1
0,63,0,3
0,65,0,15
0,63,107,26
0,46,124,0
0,34,111,0
0,58,118,0
0,65,105,0
0,34,114,0
0,35,127,0
0,35,0,3
0,58,0,89
0,63,0,3
0,42,97,1
0,42,0,3
0,34,0,3
0,46,0,1
0,65,0,3
0,34,0,10
0,42,94,28
0,58,121,0
0,63,114,0
0,65,117,0
0,42,0,3
0,35,127,45
0,34,121,0
0,34,111,0
0,46,121,0
0,35,0,3
0,58,0,33
0,63,0,11
0,65,0,9
0,58,124,40
0,42,97,0
0,63,114,0
0,65,109,0
0,42,0,3
0,34,0,11
0,46,0,3
0,34,0,3
0,42,97,28
0,42,0,3
0,58,0,19
0,63,0,6
0,65,0,6
0,65,103,14
0,63,100,0
0,35,127,0
0,34,114,0
0,34,121,0
0,58,118,0
0,46,124,0
0,35,0,3
0,58,0,79
0,63,0,11
0,42,91,3
0,42,0,3
0,65,0,1
0,46,0,0
0,34,0,2
0,34,0,18
0,42,91,24
0,58,124,0
0,63,104,0
0,65,105,0
0,42,0,3
0,35,127,45
0,34,121,0
0,34,118,0
0,46,127,0
0,35,0,3
0,58,0,22
0,63,0,12
0,65,0,11
0,58,114,48
0,63,104,0
0,42,81,0
0,65,105,0
0,42,0,3
0,34,0,5
0,46,0,6
0,34,0,18
0,63,0,3
0,58,0,4
0,58,0,5
0,42,94,4
0,63,0,2
0,42,0,1
0,65,0,8
0,70,0,7
0,75,0,14
0,35,127,16
0,59,125,0
0,71,103,0
0,31,112,0
0,31,117,0
0,65,117,0
0,59,68,0
0,62,74,0
0,43,107,0
0,62,120,0
0,74,94,0
0,35,0,3
0,59,0,47
0,62,0,7
0,65,0,5
0,31,0,33
0,65,125,1
0,59,117,0
0,42,97,0
0,62,123,0
0,42,0,3
0,59,0,30
0,62,0,7
0,65,0,4
0,31,125,4
0,42,91,0
0,42,0,3
0,31,0,8
0,43,0,2
0,31,0,34
0,31,120,1
0,62,127,0
0,35,127,0
0,31,125,0
0,43,123,0
0,59,120,0
0,65,125,0
0,35,0,3
0,31,0,1
0,59,0,35
0,62,0,9
0,31,0,0
0,43,0,0
0,65,0,2
0,31,117,46
0,31,125,0
0,43,117,0
0,59,112,0
0,62,117,0
0,42,88,0
0,65,117,0
0,42,0,3
0,82,0,18
0,71,0,3
0,43,0,10
0,31,0,1
0,59,0,1
0,77,0,3
0,62,0,0
0,62,0,3
0,65,0,3
0,59,0,0
0,65,0,2
0,42,88,1
0,74,0,1
0,42,0,2
0,31,0,2
0,67,85,43
0,72,92,0
0,72,127,0
0,79,127,0
0,35,127,0
0,36,123,0
0,36,127,0
0,49,70,0
0,82,92,0
0,60,120,0
0,60,92,0
0,67,120,0
0,84,127,0
0,63,127,0
0,63,87,0
0,48,127,0
0,49,0,3
0,35,0,0
0,82,0,3
0,72,0,20
0,84,120,22
0,48,0,44
0,60,0,2
0,36,0,0
0,63,0,2
0,42,97,0
0,42,0,3
0,67,0,0
0,84,0,4
0,36,0,33
0,60,125,8
0,72,112,0
0,63,127,0
0,67,125,0
0,42,97,0
0,42,0,3
0,72,0,6
0,84,0,3
0,72,0,0
0,84,125,1
0,35,127,0
0,36,115,0
0,36,123,0
0,48,117,0
0,35,0,3
0,79,0,1
0,67,0,17
0,63,0,2
0,60,0,2
0,84,0,10
0,42,91,6
0,65,123,0
0,60,112,0
0,72,101,0
0,63,127,0
0,42,0,3
0,72,0,12
0,48,0,1
0,36,0,1
0,60,0,8
0,63,0,5
0,65,0,5
0,36,0,10
0,84,120,3
0,42,91,0
0,42,0,3
0,35,127,45
0,36,109,0
0,48,115,0
0,36,105,0
0,63,127,0
0,65,127,0
0,60,127,0
0,35,0,3
0,84,0,29
0,72,99,16
0,72,0,13
0,48,0,32
0,60,0,1
0,36,0,2
0,67,127,0
0,84,123,0
0,42,91,0
0,79,127,0
0,63,0,2
0,42,0,1
0,65,0,4
0,79,0,40
0,67,0,0
0,42,91,1
0,63,127,0
0,60,125,0
0,67,127,0
0,66,87,0
0,36,0,2
0,42,0,1
0,66,0,4
0,84,0,2
0,35,127,39
0,36,112,0
0,72,112,0
0,36,101,0
0,48,105,0
0,70,127,0
0,82,127,0
0,35,0,3
0,72,0,21
0,67,0,1
0,60,0,4
0,70,0,3
0,82,0,0
0,63,0,2
0,72,125,14
0,84,117,0
0,84,125,0
0,67,105,0
0,48,0,37
0,36,0,8
0,65,117,3
0,42,94,0
0,84,0,1
0,72,0,0
0,42,0,2
0,67,0,9
0,84,0,8
0,36,0,28
0,71,125,0
0,72,127,0
0,72,109,0
0,42,91,0
0,83,125,0
0,84,127,0
0,63,127,0
0,42,0,3
0,83,0,4
0,71,0,0
0,65,0,5
0,72,0,8
0,63,0,15
0,84,117,13
0,32,118,0
0,44,104,0
0,60,125,0
0,63,127,0
0,35,127,0
0,32,121,0
0,67,127,0
0,35,0,3
0,84,0,31
0,72,0,0
0,84,0,48
0,60,0,10
0,32,0,4
0,42,97,0
0,72,117,0
0,44,0,2
0,42,0,1
0,63,0,0
0,67,0,2
0,72,0,21
0,84,117,22
0,42,88,0
0,67,127,0
0,60,125,0
0,63,127,0
0,32,0,1
0,42,0,2
0,32,111,45
0,35,127,0
0,32,118,0
0,44,104,0
0,35,0,3
0,84,0,35
0,60,0,7
0,72,112,3
0,63,0,1
0,67,0,0
0,72,0,17
0,60,117,30
0,84,120,0
0,63,127,0
0,65,127,0
0,42,91,0
0,42,0,3
0,32,0,3
0,44,0,6
0,60,0,18
0,32,0,10
0,63,0,3
0,65,0,3
0,42,94,2
0,42,0,3
0,84,0,28
0,35,127,17
0,65,127,0
0,44,121,0
0,32,114,0
0,32,114,0
0,63,127,0
0,72,120,0
0,60,125,0
0,35,0,3
0,72,0,26
0,60,127,19
0,84,120,0
0,72,127,0
0,72,0,36
0,60,0,0
0,60,0,7
0,63,0,3
0,32,0,0
0,44,0,0
0,42,97,2
0,65,0,1
0,42,0,2
0,84,0,3
0,32,0,22
0,62,117,20
0,60,127,0
0,63,127,0
0,72,107,0
0,42,88,0
0,74,117,0
0,67,127,0
0,42,0,3
0,72,0,17
0,74,0,8
0,62,0,0
0,35,127,20
0,63,124,0
0,32,114,0
0,32,118,0
0,75,124,0
0,44,118,0
0,84,123,0
0,35,0,3
0,60,0,21
0,67,0,1
0,63,0,3
0,63,0,5
0,75,0,0
0,65,109,15
0,77,109,0
0,67,115,0
0,84,0,23
0,77,0,14
0,65,0,0
0,67,123,11
0,42,97,0
0,65,120,0
0,72,112,0
0,79,123,0
0,32,0,2
0,42,0,1
0,44,0,9
0,67,0,10
0,67,0,8
0,79,0,0
0,72,0,5
0,60,0,5
0,65,0,6
0,63,127,2
0,68,124,0
0,80,124,0
0,42,97,0
0,84,125,0
0,32,0,1
0,42,0,2
0,67,0,5
0,63,0,9
0,84,0,21
0,68,0,2
0,80,0,0
0,63,0,1
0,34,111,7
0,46,121,0
0,65,74,0
0,58,92,0
0,63,55,0
0,65,117,0
0,58,114,0
0,70,127,0
0,35,127,0
0,70,107,0
0,75,89,0
0,63,100,0
0,77,86,0
0,34,111,0
0,82,107,0
0,35,0,3
0,70,0,34
0,82,121,11
0,58,0,47
0,42,91,1
0,42,0,3
0,34,0,4
0,46,0,2
0,63,0,0
0,65,0,10
0,82,0,5
0,34,0,19
0,70,124,5
0,58,121,0
0,63,118,0
0,42,88,0
0,65,120,0
0,42,0,3
0,70,0,31
0,82,118,14
0,34,104,0
0,34,121,0
0,35,127,0
0,46,107,0
0,35,0,3
0,58,0,34
0,63,0,12
0,65,0,10
0,82,0,19
0,46,0,18
0,70,127,0
0,63,118,0
0,65,123,0
0,58,124,0
0,42,97,0
0,34,0,1
0,42,0,2
0,34,0,14
0,70,0,7
0,42,91,24
0,82,118,0
0,42,0,3
0,58,0,6
0,63,0,7
0,65,0,12
0,34,111,20
0,46,121,0
0,35,127,0
0,58,118,0
0,63,111,0
0,34,118,0
0,65,107,0
0,35,0,3
0,82,0,26
0,70,107,19
0,70,0,13
0,58,0,27
0,46,0,6
0,34,0,0
0,42,94,2
0,82,114,0
0,42,0,3
0,63,0,0
0,65,0,10
0,34,0,29
0,63,104,6
0,65,109,0
0,42,94,0
0,58,121,0
0,42,0,3
0,82,0,28
0,34,107,17
0,34,121,0
0,70,127,0
0,35,127,0
0,46,118,0
0,35,0,3
0,70,0,18
0,58,0,25
0,82,114,2
0,63,0,11
0,65,0,7
0,58,118,30
0,63,100,0
0,42,97,0
0,65,105,0
0,42,0,3
0,46,0,4
0,34,0,3
0,82,0,22
0,34,0,1
0,70,127,15
0,42,88,0
0,42,0,3
0,58,0,9
0,70,0,4
0,63,0,9
0,65,0,0
0,58,121,23
0,35,127,0
0,63,97,0
0,46,121,0
0,65,101,0
0,34,111,0
0,34,124,0
0,82,118,0
0,35,0,3
0,82,0,82
0,58,0,3
0,70,127,8
0,42,97,0
0,63,0,2
0,42,0,1
0,46,0,3
0,34,0,1
0,65,0,3
0,70,0,13
0,34,0,4
0,63,111,21
0,82,114,0
0,65,115,0
0,58,124,0
0,42,91,0
0,42,0,3
0,34,121,45
0,34,124,0
0,35,127,0
0,46,127,0
0,35,0,3
0,58,0,24
0,63,0,11
0,82,0,1
0,70,124,9
0,65,0,1
0,70,0,21
0,34,0,25
0,63,97,1
0,65,105,0
0,82,118,0
0,58,107,0
0,42,94,0
0,46,0,2
0,42,0,1
0,77,0,29
0,75,0,8
0,63,0,6
0,42,91,2
0,63,0,2
0,42,0,1
0,58,0,0
0,58,0,0
0,65,0,15
0,34,0,3
0,82,0,3
0,70,0,15
0,82,0,0
0,31,120,9
0,59,80,0
0,35,127,0
0,74,112,0
0,62,74,0
0,31,115,0
0,70,127,0
0,82,118,0
0,59,123,0
0,49,53,0
0,62,120,0
0,71,107,0
0,43,115,0
0,65,117,0
0,49,0,3
0,35,0,0
0,70,0,19
0,82,118,26
0,42,94,48
0,42,0,3
0,31,0,10
0,43,0,2
0,82,0,16
0,31,0,4
0,42,91,13
0,70,127,0
0,42,0,3
0,70,0,24
0,31,117,21
0,31,112,0
0,35,127,0
0,43,112,0
0,82,114,0
0,35,0,3
0,82,0,86
0,70,124,7
0,42,94,0
0,42,0,3
0,31,0,3
0,43,0,3
0,70,0,6
0,31,0,33
0,82,107,0
0,42,94,0
0,42,0,3
0,35,127,45
0,31,115,0
0,43,105,0
0,31,117,0
0,35,0,3
0,70,92,45
0,82,0,5
0,70,0,7
0,42,94,36
0,82,111,0
0,42,0,3
0,31,0,1
0,43,0,2
0,31,0,32
0,42,91,10
0,42,0,3
0,82,0,29
0,31,117,16
0,70,124,0
0,43,115,0
0,35,127,0
0,31,115,0
0,35,0,3
0,70,0,27
0,82,114,18
0,82,0,47
0,42,97,1
0,42,0,3
0,31,0,9
0,43,0,3
0,31,0,29
0,42,91,4
0,70,124,0
0,42,0,3
0,70,0,16
0,31,112,29
0,35,127,0
0,43,109,0
0,31,115,0
0,82,104,0
0,35,0,3
0,82,0,79
0,70,124,14
0,42,94,0
0,42,0,3
0,31,0,2
0,43,0,2
0,70,0,13
0,31,0,24
0,42,94,4
0,82,111,0
0,42,0,3
0,31,115,45
0,31,115,0
0,43,115,0
0,35,127,0
0,35,0,3
0,82,0,31
0,70,111,14
0,70,0,15
0,82,107,33
0,42,97,0
0,42,0,3
0,31,0,11
0,43,0,1
0,31,0,22
0,42,84,11
0,42,0,3
0,82,0,30
0,82,0,12
0,31,115,3
0,31,120,0
0,43,123,0
0,70,124,0
0,35,127,0
0,71,0,2
0,35,0,1
0,74,0,0
0,70,0,16
0,31,0,12
0,43,0,1
0,59,0,9
0,62,0,7
0,82,107,0
0,65,0,10
0,43,127,38
0,31,125,0
0,59,123,0
0,62,123,0
0,65,117,0
