track,note,velocity,time
1,33,76,14940
1,33,66,248
1,33,84,248
1,33,76,464
1,33,84,236
1,33,64,252
1,33,84,60
1,33,72,552
1,33,54,236
1,33,68,212
1,33,66,384
1,33,72,248
1,33,56,276
1,33,76,52
1,33,68,488
1,33,64,236
1,33,72,228
1,33,76,384
1,33,64,208
1,33,58,236
1,33,68,52
1,33,66,476
1,33,66,216
1,33,66,240
1,33,68,376
1,33,66,252
1,33,60,272
1,33,68,80
1,40,76,208
1,33,66,64
1,33,64,212
1,33,72,244
1,33,62,416
1,33,62,220
1,33,42,256
1,33,72,68
1,33,66,480
1,33,84,228
1,33,88,244
1,33,88,288
1,33,68,232
1,33,62,248
1,33,66,40
1,37,84,100
1,38,66,384
1,38,60,248
1,38,68,256
1,33,66,428
1,33,88,256
1,33,62,232
1,33,68,40
1,35,66,64
1,37,66,12
1,37,84,228
1,37,84,232
1,42,84,88
1,42,76,200
1,42,80,232
1,42,66,32
1,33,62,44
1,35,60,64
1,35,80,196
1,35,84,232
1,40,72,36
1,40,80,196
1,40,72,228
1,40,68,44
1,28,66,132
1,33,64,36
1,33,62,220
1,33,68,240
1,33,68,236
1,33,80,252
1,33,64,220
1,33,72,56
1,37,80,116
1,38,62,20
1,38,66,176
1,38,66,184
1,33,68,196
1,33,52,240
1,33,62,220
1,33,76,44
1,35,66,76
1,37,66,32
1,37,80,176
1,37,76,200
1,42,80,84
1,42,68,200
1,42,60,216
1,42,68,84
1,33,66,24
1,35,60,64
1,35,66,144
1,35,76,192
1,40,68,92
1,40,72,204
1,40,68,216
1,40,68,64
1,40,72,184
1,33,54,0
1,33,60,216
1,33,76,240
1,33,76,236
1,33,84,224
1,33,56,216
1,33,72,56
1,37,80,120
1,38,64,12
1,38,66,208
1,38,66,200
1,33,68,228
1,33,76,240
1,33,60,256
1,33,68,32
1,35,68,88
1,37,68,28
1,37,76,168
1,37,68,192
1,30,64,152
1,30,84,212
1,30,68,240
1,30,64,68
1,33,72,52
1,35,64,384
1,35,68,176
1,35,68,168
1,40,84,244
1,40,76,220
1,40,64,208
1,40,76,64
1,38,80,384
1,37,66,16
1,37,84,228
1,37,84,252
1,37,84,248
1,37,92,204
1,32,68,0
1,35,66,28
1,36,52,32
1,37,68,4
1,37,76,192
1,37,76,208
1,37,68,176
1,37,76,292
1,39,68,128
1,40,60,8
1,41,66,0
1,42,64,384
1,42,64,172
1,42,64,216
1,42,76,288
1,42,72,204
1,37,84,8
1,40,64,8
1,41,60,52
1,42,62,16
1,42,80,156
1,42,84,204
1,42,72,216
1,42,80,204
1,30,72,128
1,32,62,348
1,32,56,80
1,33,58,128
1,35,66,28
1,35,56,164
1,35,72,220
1,35,64,196
1,35,56,180
1,35,54,276
1,30,80,128
1,33,66,344
1,35,62,40
1,35,62,208
1,35,66,232
1,35,68,360
1,35,68,208
1,37,84,16
1,38,64,32
1,39,72,0
1,40,66,20
1,40,66,156
1,40,72,212
1,40,80,260
1,40,66,204
1,40,76,212
1,35,60,128
1,37,66,8
1,40,76,12
1,40,66,192
1,40,80,156
1,35,44,28
1,37,80,8
1,40,80,68
1,40,68,204
1,38,64,4
1,37,62,96
1,35,46,128
1,33,62,8
1,33,64,184
1,33,64,188
1,33,72,228
1,33,62,212
1,33,52,240
1,33,68,52
1,37,66,108
1,38,64,384
1,38,68,188
1,38,66,208
1,33,56,224
1,33,66,220
1,33,46,240
1,33,72,52
1,35,64,80
1,37,66,24
1,37,66,220
1,37,64,216
1,30,72,132
1,30,80,224
1,30,66,228
1,30,66,68
1,33,68,56
1,35,62,24
1,35,58,136
1,35,80,176
1,40,72,44
1,40,80,188
1,40,62,212
1,40,84,56
1,28,54,64
1,33,66,384
1,33,62,204
1,33,72,188
1,33,72,252
1,33,76,232
1,33,58,256
1,33,68,44
1,37,64,108
1,38,66,32
1,38,64,204
1,38,68,232
1,33,64,236
1,33,76,208
1,33,44,240
1,33,60,12
1,35,66,76
1,37,64,8
1,37,62,184
1,37,72,204
1,30,66,68
1,30,80,204
1,30,60,256
1,30,72,92
1,33,68,52
1,35,54,36
1,35,58,188
1,35,60,192
1,40,68,92
1,40,76,220
1,40,64,200
1,40,68,60
1,38,80,384
1,37,68,4
1,37,62,124
1,37,66,132
1,37,76,364
1,37,62,232
1,32,72,128
1,35,64,364
1,36,64,52
1,37,66,28
1,37,64,192
1,37,64,228
1,37,66,340
1,37,76,204
1,39,76,20
1,40,60,52
1,41,62,0
1,42,58,36
1,42,64,164
1,42,66,196
1,42,72,332
1,42,60,196
1,37,72,28
1,40,64,16
1,41,62,40
1,42,68,32
1,42,72,160
1,42,68,164
1,42,68,252
1,42,54,188
1,30,56,4
1,30,56,116
1,32,52,4
1,33,54,8
1,35,72,12
1,35,80,140
1,35,52,168
1,35,64,224
1,35,58,164
1,35,31,180
1,30,84,128
1,33,66,364
1,35,58,36
1,35,58,140
1,35,64,192
1,35,66,196
1,35,56,204
1,37,88,0
1,38,56,32
1,39,80,28
1,40,68,16
1,40,66,164
1,40,64,212
1,40,72,204
1,40,66,184
1,40,62,216
1,35,68,60
1,37,66,384
1,40,72,336
1,40,76,148
1,40,68,188
1,35,48,256
1,37,80,80
1,40,84,124
1,40,54,188
1,38,64,128
1,37,72,380
1,35,58,364
1,33,62,344
1,33,66,204
1,33,64,216
1,33,76,248
1,33,72,212
1,33,54,256
1,33,62,40
1,37,60,116
1,38,64,384
1,38,64,156
1,38,68,212
1,33,64,284
1,33,72,208
1,33,52,248
1,33,72,48
1,35,62,56
1,37,68,12
1,37,72,148
1,37,64,216
1,30,66,100
1,30,80,172
1,30,66,384
1,33,64,88
1,35,56,52
1,35,64,176
1,35,56,120
1,38,58,0
1,40,66,116
1,40,54,220
1,40,68,132
1,40,68,36
1,28,64,64
1,33,66,384
1,33,52,184
1,33,72,196
1,33,72,240
1,33,68,224
1,33,58,256
1,33,68,44
1,37,76,88
1,38,58,384
1,38,68,168
1,38,66,196
1,33,66,200
1,33,72,200
1,33,54,248
1,33,64,52
1,35,66,40
1,37,64,8
1,37,64,192
1,37,72,188
1,30,68,92
1,30,80,192
1,30,64,236
1,30,62,72
1,33,66,36
1,35,52,24
1,35,60,148
1,35,72,152
1,40,66,56
1,40,64,180
1,40,54,208
1,40,66,84
1,28,52,52
1,33,68,384
1,33,64,184
1,33,68,224
1,33,58,368
1,33,66,224
1,33,52,236
1,33,68,32
1,33,58,444
1,33,52,208
1,33,64,212
1,33,64,308
1,33,66,228
1,33,54,256
1,33,60,44
1,40,80,52
1,33,56,52
1,33,56,220
1,33,68,232
1,33,64,272
1,33,64,240
1,33,58,248
1,33,46,32
1,37,64,40
1,38,68,68
1,38,56,156
1,38,68,200
1,33,66,100
1,33,62,228
1,33,64,260
1,33,52,48
1,35,62,44
1,37,64,36
1,37,64,180
1,37,62,188
1,30,68,84
1,30,72,192
1,30,54,264
1,30,66,96
1,33,64,60
1,35,64,0
1,35,56,132
1,35,72,180
1,40,66,56
1,40,66,188
1,38,80,128
1,37,68,380
1,35,56,8
1,33,56,384
1,33,58,168
1,33,66,184
1,33,68,256
1,33,66,200
1,33,52,244
1,33,66,40
1,37,62,88
1,38,66,384
1,38,68,144
1,38,68,196
1,33,64,220
1,33,64,200
1,33,66,252
1,33,72,40
1,35,68,76
1,37,64,20
1,37,64,164
1,37,66,172
1,30,66,100
1,30,76,196
1,30,64,260
1,30,72,76
1,33,72,60
1,35,60,384
1,35,58,136
1,35,80,148
1,40,68,44
1,40,66,196
1,38,64,128
1,37,84,40
1,35,58,12
1,33,56,12
1,33,76,180
1,33,66,204
1,33,68,228
1,33,64,228
1,33,58,276
1,33,62,40
1,37,66,84
1,38,64,24
1,38,76,136
1,38,68,192
1,33,64,180
1,33,66,204
1,33,60,244
1,33,72,16
1,33,72,132
1,37,62,76
1,37,68,184
1,37,72,180
1,30,68,152
1,30,76,192
1,30,62,240
1,30,62,68
1,33,68,72
1,35,66,72
1,35,68,148
1,35,80,148
1,40,76,52
1,35,64,172
1,38,58,4
1,40,68,76
1,40,76,196
1,28,81,20
1,33,64,40
1,33,62,176
1,33,76,180
1,33,68,204
1,33,76,228
1,33,54,244
1,33,68,44
1,37,62,156
1,38,66,384
1,38,76,184
1,38,72,176
1,33,68,172
1,33,80,232
1,33,62,248
1,33,76,40
1,35,72,68
1,37,66,44
1,37,68,168
1,37,76,192
1,30,80,72
1,30,76,220
1,30,68,256
1,30,66,88
1,33,64,52
1,35,64,384
1,35,62,136
1,35,64,152
1,40,66,28
1,40,66,184
1,40,62,204
1,40,80,56
1,40,80,132
1,33,64,0
1,33,56,200
1,33,72,212
1,33,68,240
1,33,68,216
1,33,62,248
1,33,64,20
1,37,66,76
1,38,66,12
1,38,66,172
1,38,68,228
1,33,66,208
1,33,68,216
1,33,54,252
1,33,64,32
1,35,68,92
1,37,64,4
1,37,64,172
1,37,64,188
1,30,68,108
1,30,80,228
1,30,64,252
1,30,68,68
1,33,72,52
1,35,62,384
1,35,64,152
1,35,84,200
1,40,66,28
1,40,56,184
1,38,66,128
1,38,62,88
1,37,66,128
1,37,66,108
1,35,62,128
1,35,52,92
1,33,56,128
1,33,66,176
1,33,66,184
1,33,64,212
1,33,66,232
1,33,58,276
1,33,64,44
1,37,62,40
1,38,68,384
1,38,66,168
1,38,68,164
1,33,60,128
1,33,80,220
1,33,58,264
1,33,68,52
1,35,62,88
1,37,62,12
1,37,64,148
1,37,60,156
1,30,80,28
1,30,76,212
1,30,46,244
1,30,72,100
1,33,66,48
1,35,58,12
1,35,62,140
1,35,58,188
1,40,72,16
1,40,66,160
1,40,66,204
1,40,72,68
1,28,64,52
1,33,68,384
1,33,60,128
1,33,72,128
1,33,68,128
1,33,68,128
1,33,48,64
1,33,68,44
1,37,64,64
1,38,60,36
1,38,68,128
1,38,64,64
1,33,60,64
1,33,72,64
1,33,56,64
1,33,76,32
1,35,66,20
1,37,64,12
1,37,66,64
1,37,76,64
1,30,64,64
1,30,66,64
1,30,52,64
1,30,64,84
1,33,64,12
1,35,58,12
1,35,60,64
1,35,64,64
1,28,62,64
1,28,66,64
1,28,62,128
1,28,62,52
1,28,66,64
2,64,88,27208
2,57,88,0
2,69,97,0
2,76,107,0
2,81,92,0
2,73,97,0
2,74,72,5288
2,86,66,0
2,85,88,256
2,73,76,0
2,83,84,256
2,71,84,0
2,73,88,260
2,85,88,0
2,90,84,1784
2,78,72,0
2,88,84,240
2,76,54,0
2,74,36,204
2,86,84,0
2,88,76,208
2,76,88,0
2,88,84,1784
2,76,72,0
2,90,88,248
2,78,68,0
2,92,80,240
2,80,66,0
2,93,68,156
2,81,66,0
2,83,66,1776
2,71,68,0
2,73,80,284
2,85,80,0
2,74,84,232
2,86,64,0
2,85,92,240
2,73,66,0
2,83,88,264
2,71,66,0
2,85,84,120
2,73,60,0
2,86,80,276
2,74,66,0
2,76,58,356
2,88,68,0
2,86,76,244
2,74,66,0
2,85,92,240
2,73,66,0
2,71,42,248
2,83,64,0
2,85,64,300
2,73,64,0
2,78,64,1796
2,90,84,0
2,88,72,252
2,76,62,0
2,74,52,228
2,86,68,0
2,88,84,228
2,76,88,0
2,88,64,1792
2,76,62,0
2,90,88,256
2,78,68,0
2,92,68,216
2,80,64,0
2,81,66,216
2,93,64,0
2,71,68,1764
2,83,80,0
2,73,62,208
2,85,80,0
2,74,60,204
2,86,66,0
2,78,66,532
2,90,68,0
2,88,56,104
2,76,52,0
2,88,66,264
2,76,68,0
2,64,62,1080
2,68,66,0
2,59,66,0
2,68,66,592
2,64,68,0
2,59,68,0
2,64,66,604
2,68,64,0
2,59,54,0
2,64,64,584
2,59,58,0
2,68,64,0
2,59,66,604
2,68,62,0
2,64,66,0
2,59,54,624
2,68,64,0
2,64,60,0
2,68,72,608
2,64,66,0
2,59,62,0
2,59,68,604
2,68,66,0
2,64,68,0
2,69,72,588
2,61,62,0
2,64,66,0
2,69,64,600
2,64,66,0
2,61,64,0
2,69,64,628
2,61,60,0
2,64,60,0
2,69,66,636
2,61,68,0
2,64,72,0
2,61,60,636
2,69,62,0
2,64,66,0
2,64,68,640
2,61,72,0
2,69,66,0
2,64,68,656
2,61,80,0
2,69,64,0
2,69,64,624
2,64,66,0
2,61,80,0
2,69,66,604
2,62,68,0
2,59,60,0
2,59,64,632
2,62,60,0
2,69,68,0
2,59,56,636
2,69,66,0
2,62,56,0
2,59,66,632
2,62,58,0
2,69,64,0
2,59,68,628
2,62,62,0
2,69,66,0
2,69,72,656
2,62,64,0
2,59,62,0
2,69,68,652
2,59,66,0
2,62,66,0
2,69,68,644
2,62,68,0
2,59,66,0
2,62,68,628
2,68,66,0
2,59,66,0
2,62,76,628
2,68,64,0
2,59,66,0
2,62,68,624
2,59,68,0
2,69,68,0
2,62,68,632
2,69,62,0
2,59,66,0
2,68,58,620
2,71,58,0
2,62,62,0
2,62,64,628
2,71,50,0
2,68,52,0
2,62,64,656
2,64,60,0
2,56,50,0
2,56,60,668
2,64,62,0
2,62,66,0
2,74,64,272
2,86,80,0
2,85,60,272
2,73,72,0
2,83,80,268
2,71,50,0
2,73,64,280
2,85,62,0
2,78,68,1804
2,90,68,0
2,88,68,256
2,76,36,0
2,74,68,248
2,86,84,0
2,88,80,260
2,76,64,0
2,76,60,1784
2,88,76,0
2,78,72,252
2,90,84,0
2,92,80,200
2,80,64,0
2,93,80,244
2,81,64,0
2,71,62,1808
2,83,72,0
2,73,60,284
2,85,60,0
2,86,68,204
2,74,50,0
2,85,60,280
2,73,58,0
2,83,66,272
2,71,58,0
2,73,52,160
2,85,66,0
2,86,80,276
2,74,58,0
2,88,72,408
2,76,68,0
2,74,62,276
2,86,76,0
2,85,64,292
2,73,66,0
2,71,50,292
2,83,80,0
2,73,68,296
2,85,66,0
2,78,60,1824
2,90,72,0
2,88,66,248
2,76,56,0
2,86,76,248
2,74,60,0
2,76,66,252
2,88,88,0
2,76,64,1780
2,88,72,0
2,78,58,264
2,90,68,0
2,80,72,268
2,92,84,0
2,85,72,68
2,73,52,0
2,83,84,1832
2,71,66,0
2,85,56,272
2,73,64,0
2,74,60,216
2,86,66,0
2,71,68,644
2,83,72,0
2,73,72,168
2,85,84,0
2,74,62,228
2,86,76,0
2,88,66,408
2,76,64,0
2,59,66,640
2,68,66,0
2,64,72,0
2,59,64,644
2,64,66,0
2,68,64,0
2,68,72,644
2,59,62,0
2,64,76,0
2,64,62,644
2,68,64,0
2,59,60,0
2,59,38,640
2,68,68,0
2,64,68,0
2,59,62,644
2,64,68,0
2,68,66,0
2,59,56,636
2,64,66,0
2,68,62,0
2,68,66,648
2,64,66,0
2,59,68,0
2,69,64,628
2,61,72,0
2,64,66,0
2,69,64,652
2,61,80,0
2,64,72,0
2,61,76,656
2,64,68,0
2,69,62,0
2,61,80,668
2,64,80,0
2,69,64,0
2,69,68,664
2,61,84,0
2,64,88,0
2,64,80,664
2,61,80,0
2,69,64,0
2,64,68,664
2,61,76,0
2,69,60,0
2,69,46,656
2,61,76,0
2,64,68,0
2,69,58,648
2,62,54,0
2,59,56,0
2,62,72,640
2,59,50,0
2,69,62,0
2,59,64,668
2,62,80,0
2,69,62,0
2,69,58,656
2,62,72,0
2,59,44,0
2,59,60,680
2,62,72,0
2,69,54,0
2,69,48,684
2,59,58,0
2,62,66,0
2,62,64,680
2,69,56,0
2,59,58,0
2,62,64,664
2,69,52,0
2,59,58,0
2,68,66,664
2,62,80,0
2,59,72,0
2,62,64,636
2,59,66,0
2,68,56,0
2,62,72,632
2,59,68,0
2,69,66,0
2,69,64,652
2,62,72,0
2,59,68,0
2,68,60,656
2,62,62,0
2,71,50,0
2,68,52,648
2,71,52,0
2,62,64,0
2,62,64,640
2,56,35,0
2,62,66,688
2,64,68,0
2,56,60,0
2,74,66,256
2,86,76,0
2,85,60,272
2,83,68,288
2,71,60,0
2,73,64,276
2,85,64,0
2,90,64,1840
2,78,52,0
2,88,76,276
2,76,54,0
2,74,64,232
