track,note,velocity,time
1,73,74,480
1,73,0,30
1,77,74,0
1,77,0,30
1,80,74,0
1,80,0,30
1,84,74,0
1,84,0,30
1,82,74,0
1,82,0,30
1,80,74,0
1,80,0,30
1,77,74,0
1,77,0,30
1,73,74,0
1,73,0,30
1,70,74,0
1,70,0,30
1,73,74,0
1,73,0,30
1,77,74,0
1,77,0,30
1,80,74,0
1,80,0,30
1,77,74,0
1,77,0,30
1,73,74,0
1,73,0,30
1,70,74,0
1,70,0,30
1,68,74,0
1,68,0,30
1,70,74,0
1,70,0,30
1,70,74,0
1,70,0,30
1,68,74,0
1,68,0,30
1,70,74,0
1,70,0,30
1,73,74,0
1,73,0,30
1,73,74,0
1,73,0,30
1,70,74,0
1,70,0,30
1,73,74,0
1,73,0,30
1,75,74,0
1,75,0,30
1,75,74,0
1,75,0,30
1,73,74,0
1,73,0,30
1,75,74,0
1,75,0,30
1,77,74,0
1,77,0,30
1,80,74,0
1,80,0,30
1,81,74,0
1,81,0,30
1,82,74,0
1,82,0,30
1,80,74,60
1,80,0,60
1,80,74,0
1,80,0,30
1,82,74,0
1,82,0,90
1,77,74,0
1,77,0,30
1,75,74,0
1,75,0,30
1,73,74,0
1,73,0,60
1,70,74,0
1,70,0,120
1,75,74,240
1,75,0,30
1,75,74,0
1,75,0,30
1,75,74,0
1,75,0,30
1,75,74,0
1,75,0,30
1,75,74,0
1,75,0,30
1,75,74,0
1,75,0,30
1,78,74,0
1,78,0,60
1,75,74,0
1,75,0,30
1,75,74,0
1,75,0,30
1,75,74,0
1,75,0,30
1,75,74,0
1,75,0,60
1,72,74,0
1,72,0,60
1,75,74,0
1,75,0,60
1,75,74,0
1,75,0,30
1,77,74,0
1,77,0,30
1,79,74,0
1,79,0,30
1,75,74,0
1,75,0,30
1,77,74,0
1,77,0,30
1,75,74,0
1,75,0,60
1,75,74,0
1,75,0,60
1,75,74,0
1,75,0,30
1,75,74,0
1,75,0,60
1,72,74,0
1,72,0,60
1,75,74,0
1,75,0,60
1,80,74,0
1,80,0,30
1,79,74,0
1,79,0,30
1,77,74,0
1,77,0,30
1,75,74,0
1,75,0,30
1,75,74,0
1,75,0,30
1,77,74,0
1,77,0,30
1,79,74,0
1,79,0,30
1,75,74,0
1,75,0,30
1,72,74,0
1,72,0,30
1,75,74,0
1,75,0,30
1,75,74,0
1,75,0,60
1,72,74,0
1,72,0,60
1,75,74,0
1,82,74,0
1,82,0,30
1,83,74,0
1,83,0,30
1,75,0,0
1,84,74,0
1,84,0,30
1,80,74,0
1,80,0,30
1,75,74,0
1,75,0,30
1,75,74,0
1,75,0,60
1,77,74,0
1,77,0,30
1,79,74,0
1,79,0,30
1,75,74,0
1,75,0,60
1,75,74,0
1,75,0,30
1,75,74,0
1,75,0,60
1,72,74,0
1,72,0,60
1,75,74,0
1,75,0,150
1,75,74,0
1,75,0,60
1,75,74,0
1,75,0,30
1,72,74,0
1,72,0,30
1,75,74,0
1,75,0,60
1,75,74,0
1,75,0,30
1,75,74,0
1,75,0,60
1,72,74,0
1,72,0,60
1,75,74,0
1,75,0,60
1,75,74,0
1,75,0,30
1,77,74,0
1,77,0,30
1,79,74,0
1,79,0,30
1,75,74,0
1,75,0,60
1,75,74,0
1,75,0,30
1,75,74,0
1,75,0,30
1,75,74,0
1,75,0,60
1,75,74,0
1,75,0,30
1,75,74,0
1,75,0,60
1,72,74,0
1,72,0,60
1,75,74,0
1,75,0,60
1,80,74,0
1,80,0,30
1,79,74,0
1,79,0,30
1,77,74,0
1,77,0,30
1,75,74,0
1,75,0,30
1,75,74,0
1,75,0,30
1,77,74,0
1,77,0,30
1,79,74,0
1,79,0,30
1,75,74,0
1,75,0,60
1,75,74,0
1,75,0,30
1,75,74,0
1,75,0,60
1,72,74,0
1,72,0,60
1,75,74,0
1,82,74,0
1,82,0,30
1,83,74,0
1,83,0,30
1,75,0,0
1,84,74,0
1,84,0,30
1,80,74,0
1,80,0,30
1,75,74,0
1,75,0,30
1,75,74,0
1,75,0,30
1,75,74,0
1,75,0,30
1,75,74,0
1,75,0,30
1,75,74,0
1,75,0,30
1,75,74,0
1,75,0,60
1,75,74,0
1,75,0,30
1,75,74,0
1,75,0,30
1,82,74,0
1,82,0,30
1,79,74,0
1,79,0,30
1,80,74,0
1,80,0,30
1,82,74,0
1,82,0,30
1,83,74,0
1,83,0,30
1,85,74,0
1,85,0,30
1,87,74,0
1,87,0,30
1,85,74,0
1,85,0,30
1,75,74,0
1,83,74,0
1,83,0,30
1,75,0,0
1,82,74,0
1,82,0,30
1,78,74,0
1,78,0,30
1,79,74,0
1,79,0,30
1,75,74,0
1,75,0,60
1,75,74,0
1,84,74,0
1,84,0,30
1,75,0,0
1,75,74,0
1,79,74,0
1,79,0,30
1,75,0,0
1,75,74,0
1,82,74,0
1,82,0,30
1,75,0,0
1,75,74,0
1,84,74,0
1,84,0,60
1,75,0,0
1,75,74,0
1,87,74,0
1,87,0,150
1,75,0,0
1,75,74,0
1,75,0,60
1,77,74,0
1,77,0,30
1,79,74,0
1,79,0,30
1,75,74,0
1,75,0,60
1,75,74,0
1,75,0,30
1,75,74,0
1,75,0,60
1,72,74,0
1,72,0,60
1,75,74,0
1,75,0,60
1,75,74,0
1,80,74,0
1,80,0,30
1,75,0,0
1,75,74,0
1,79,74,0
1,79,0,30
1,75,0,0
1,75,74,0
1,77,74,0
1,77,0,30
1,75,0,0
1,75,74,30
1,75,0,30
1,77,74,0
1,77,0,30
1,79,74,0
1,79,0,30
1,75,74,0
1,75,0,60
1,75,74,0
1,75,0,30
1,75,74,0
1,75,0,60
1,72,74,0
1,72,0,60
1,75,74,0
1,82,74,0
1,82,0,30
1,83,74,0
1,83,0,30
1,75,0,0
1,84,74,0
1,84,0,30
1,80,74,0
1,80,0,30
1,75,74,0
1,75,0,30
1,75,74,0
1,75,0,60
1,75,74,0
1,75,0,30
1,75,74,0
1,75,0,30
1,75,74,0
1,75,0,60
1,75,74,0
1,75,0,30
1,75,74,0
1,75,0,60
1,72,74,0
1,72,0,60
1,75,74,0
1,75,0,150
1,75,74,0
1,75,0,60
1,75,74,0
1,75,0,30
1,75,74,0
1,75,0,30
1,75,74,0
1,75,0,60
1,75,74,0
1,75,0,30
1,75,74,0
1,75,0,60
1,72,74,0
1,72,0,60
1,75,74,0
1,75,0,60
1,75,74,0
1,75,0,30
1,77,74,0
1,77,0,30
1,79,74,0
1,79,0,30
1,75,74,0
1,75,0,30
1,75,74,0
1,75,0,30
1,77,74,0
1,77,0,30
1,79,74,0
1,79,0,30
1,75,74,0
1,75,0,60
1,75,74,0
1,75,0,30
1,75,74,0
1,75,0,60
1,72,74,0
1,72,0,60
1,75,74,0
1,75,0,60
1,80,74,0
1,80,0,30
1,79,74,0
1,79,0,30
1,77,74,0
1,77,0,30
1,75,74,0
1,75,0,30
1,75,74,0
1,75,0,30
1,77,74,0
1,77,0,30
1,79,74,0
1,79,0,30
1,75,74,0
1,75,0,60
1,75,74,0
1,75,0,30
1,75,74,0
1,75,0,60
1,72,74,0
1,72,0,60
1,75,74,0
1,82,74,0
1,82,0,30
1,83,74,0
1,83,0,30
1,75,0,0
1,84,74,0
1,84,0,30
1,80,74,0
1,80,0,30
1,74,74,0
1,74,0,30
1,75,74,30
1,75,0,30
1,77,74,0
1,77,0,30
1,79,74,0
1,79,0,30
1,80,74,0
1,80,0,60
1,75,74,0
1,75,0,30
1,82,74,0
1,82,0,60
1,80,74,0
1,80,0,60
1,75,74,0
1,75,0,90
1,87,74,0
1,87,0,60
1,87,74,0
1,87,0,60
1,87,74,0
1,87,0,30
1,87,74,0
1,87,0,30
1,70,74,0
1,73,74,0
1,77,74,0
1,51,74,0
1,77,0,120
1,70,0,0
1,73,0,0
1,72,74,0
1,75,74,0
1,79,74,0
1,79,0,120
1,75,0,0
1,72,0,0
1,75,74,0
1,78,74,0
1,82,74,0
1,82,0,120
1,78,0,0
1,75,0,0
1,77,74,0
1,80,74,0
1,84,74,0
1,51,0,80
1,51,74,0
1,51,0,39
1,84,0,1
1,80,0,0
1,77,0,0
1,78,74,0
1,82,74,0
1,85,74,0
1,48,74,0
1,85,0,120
1,78,0,0
1,82,0,0
1,77,74,0
1,80,74,0
1,84,74,0
1,84,0,80
1,80,0,0
1,77,0,0
1,78,74,0
1,82,74,0
1,85,74,0
1,85,0,39
1,82,0,0
1,78,0,0
1,48,0,1
1,77,74,0
1,80,74,0
1,84,74,0
1,49,74,0
1,84,0,80
1,77,0,0
1,80,0,0
1,75,74,0
1,79,74,0
1,82,74,0
1,82,0,39
1,79,0,0
1,75,0,0
1,72,74,1
1,75,74,0
1,79,74,0
1,79,0,80
1,75,0,0
1,72,0,0
1,70,74,0
1,73,74,0
1,77,74,0
1,49,0,40
1,51,74,0
1,70,0,120
1,77,0,0
1,73,0,0
1,72,74,0
1,75,74,0
1,79,74,0
1,79,0,120
1,75,0,0
1,72,0,0
1,51,0,200
1,51,74,0
1,51,0,39
1,48,74,1
1,48,0,240
1,72,74,0
1,49,74,0
1,72,0,120
1,72,74,80
1,75,74,0
1,79,74,0
1,79,0,39
1,75,0,0
1,72,0,0
1,49,0,1
1,70,74,0
1,73,74,0
1,77,74,0
1,51,74,0
1,77,0,120
1,70,0,0
1,73,0,0
1,72,74,0
1,75,74,0
1,79,74,0
1,79,0,120
1,75,0,0
1,72,0,0
1,75,74,0
1,78,74,0
1,82,74,0
1,82,0,120
1,78,0,0
1,75,0,0
1,77,74,0
1,80,74,0
1,84,74,0
1,51,0,80
1,51,74,0
1,51,0,39
1,84,0,1
1,80,0,0
1,77,0,0
1,78,74,0
1,82,74,0
1,85,74,0
1,48,74,0
1,85,0,120
1,78,0,0
1,82,0,0
1,77,74,0
1,80,74,0
1,84,74,0
1,84,0,80
1,80,0,0
1,77,0,0
1,78,74,0
1,82,74,0
1,85,74,0
1,85,0,39
1,82,0,0
1,78,0,0
1,48,0,1
1,77,74,0
1,80,74,0
1,84,74,0
1,49,74,0
1,84,0,80
1,77,0,0
1,80,0,0
1,75,74,0
1,79,74,0
1,82,74,0
1,82,0,39
1,79,0,0
1,75,0,0
1,72,74,1
1,75,74,0
1,79,74,0
1,79,0,80
1,75,0,0
1,72,0,0
1,75,74,0
1,79,74,0
1,82,74,0
1,49,0,40
1,51,74,0
1,75,0,240
1,82,0,0
1,79,0,0
1,75,74,0
1,87,74,0
1,87,0,120
1,75,0,0
1,51,0,80
1,51,74,0
1,51,0,39
1,48,74,1
1,48,0,240
1,75,74,0
1,87,74,0
1,49,74,0
1,87,0,120
1,75,0,0
1,72,74,80
1,75,74,0
1,79,74,0
1,79,0,39
1,75,0,0
1,72,0,0
1,49,0,1
1,70,74,0
1,73,74,0
1,77,74,0
1,51,74,0
1,77,0,120
1,70,0,0
1,73,0,0
1,72,74,0
1,75,74,0
1,79,74,0
1,79,0,120
1,75,0,0
1,72,0,0
1,75,74,0
1,78,74,0
1,82,74,0
1,82,0,120
1,78,0,0
1,75,0,0
1,77,74,0
1,80,74,0
1,84,74,0
1,51,0,80
1,51,74,0
1,51,0,39
1,84,0,1
1,80,0,0
1,77,0,0
1,78,74,0
1,82,74,0
1,85,74,0
1,48,74,0
1,85,0,120
1,78,0,0
1,82,0,0
1,77,74,0
1,80,74,0
1,84,74,0
1,84,0,80
1,80,0,0
1,77,0,0
1,78,74,0
1,82,74,0
1,85,74,0
1,85,0,39
1,82,0,0
1,78,0,0
1,48,0,1
1,77,74,0
1,80,74,0
1,84,74,0
1,49,74,0
1,84,0,80
1,77,0,0
1,80,0,0
1,75,74,0
1,79,74,0
1,82,74,0
1,82,0,39
1,79,0,0
1,75,0,0
1,72,74,1
1,75,74,0
1,79,74,0
1,79,0,80
1,75,0,0
1,72,0,0
1,70,74,0
1,73,74,0
1,77,74,0
1,49,0,40
1,51,74,0
1,70,0,120
1,77,0,0
1,73,0,0
1,72,74,0
1,75,74,0
1,79,74,0
1,79,0,120
1,75,0,0
1,72,0,0
1,51,0,200
1,51,74,0
1,51,0,39
1,48,74,1
1,48,0,240
1,72,74,0
1,49,74,0
1,72,0,120
1,72,74,80
1,75,74,0
1,79,74,0
1,79,0,39
1,75,0,0
1,72,0,0
1,49,0,1
1,70,74,0
1,73,74,0
1,77,74,0
1,51,74,0
1,77,0,120
1,70,0,0
1,73,0,0
1,72,74,0
1,75,74,0
1,79,74,0
1,79,0,120
1,75,0,0
1,72,0,0
1,75,74,0
1,78,74,0
1,82,74,0
1,82,0,120
1,78,0,0
1,75,0,0
1,77,74,0
1,80,74,0
1,84,74,0
1,51,0,80
1,51,74,0
1,51,0,39
1,84,0,1
1,80,0,0
1,77,0,0
1,78,74,0
1,82,74,0
1,85,74,0
1,48,74,0
1,85,0,120
1,78,0,0
1,82,0,0
1,77,74,0
1,80,74,0
1,84,74,0
1,84,0,80
1,80,0,0
1,77,0,0
1,78,74,0
1,82,74,0
1,85,74,0
1,85,0,39
1,82,0,0
1,78,0,0
1,48,0,1
1,77,74,0
1,80,74,0
1,84,74,0
1,49,74,0
1,84,0,80
1,77,0,0
1,80,0,0
1,75,74,0
1,79,74,0
1,82,74,0
1,82,0,39
1,79,0,0
1,75,0,0
1,72,74,1
1,75,74,0
1,79,74,0
1,79,0,80
1,75,0,0
1,72,0,0
1,75,74,0
1,79,74,0
1,82,74,0
1,49,0,40
1,75,74,0
1,79,74,0
1,82,74,0
1,51,74,0
1,82,0,80
1,75,0,0
1,79,0,0
1,75,74,0
1,87,74,0
1,87,0,80
1,75,0,0
1,77,74,0
1,87,74,0
1,87,0,80
1,79,0,0
1,75,0,0
1,82,0,0
1,77,0,0
1,75,74,0
1,87,74,0
1,87,0,120
1,75,0,0
1,51,0,80
1,51,74,0
1,51,0,39
1,48,74,1
1,75,74,200
1,87,74,0
1,48,0,40
1,49,74,0
1,87,0,120
1,75,0,0
1,72,74,80
1,75,74,0
1,79,74,0
1,79,0,39
1,75,0,0
1,72,0,0
1,49,0,1
1,70,74,0
1,73,74,0
1,77,74,0
1,51,74,0
1,77,0,120
1,70,0,0
1,73,0,0
1,72,74,0
1,75,74,0
1,79,74,0
1,79,0,120
1,75,0,0
1,72,0,0
1,75,74,0
1,78,74,0
1,82,74,0
1,82,0,120
1,78,0,0
1,75,0,0
1,77,74,0
1,80,74,0
1,84,74,0
1,51,0,80
1,51,74,0
1,51,0,39
1,84,0,1
1,80,0,0
1,77,0,0
1,78,74,0
1,82,74,0
1,85,74,0
1,48,74,0
1,85,0,120
1,78,0,0
1,82,0,0
1,77,74,0
1,80,74,0
1,84,74,0
1,84,0,80
1,80,0,0
1,77,0,0
1,78,74,0
1,82,74,0
1,85,74,0
1,85,0,39
1,82,0,0
1,78,0,0
1,48,0,1
1,77,74,0
1,80,74,0
1,84,74,0
1,49,74,0
1,84,0,80
1,77,0,0
1,80,0,0
1,75,74,0
1,79,74,0
1,82,74,0
1,82,0,39
1,79,0,0
1,75,0,0
1,72,74,1
1,75,74,0
1,79,74,0
1,79,0,80
1,75,0,0
1,72,0,0
1,70,74,0
1,73,74,0
1,77,74,0
1,49,0,40
1,51,74,0
1,70,0,120
1,77,0,0
1,73,0,0
1,72,74,0
1,75,74,0
1,79,74,0
1,79,0,120
1,75,0,0
1,72,0,0
1,51,0,200
1,51,74,0
1,51,0,39
1,48,74,1
1,48,0,240
1,72,74,0
1,49,74,0
1,72,0,120
1,72,74,80
1,75,74,0
1,79,74,0
1,79,0,39
1,75,0,0
1,72,0,0
1,49,0,1
1,70,74,0
1,73,74,0
1,77,74,0
1,51,74,0
1,77,0,120
1,70,0,0
1,73,0,0
1,72,74,0
1,75,74,0
1,79,74,0
1,79,0,120
1,75,0,0
1,72,0,0
1,75,74,0
1,78,74,0
1,82,74,0
1,82,0,120
1,78,0,0
1,75,0,0
1,77,74,0
1,80,74,0
1,84,74,0
1,51,0,80
1,51,74,0
1,51,0,39
1,84,0,1
