track,note,velocity,time
3,72,103,0
3,72,0,140
3,72,99,0
3,72,0,136
3,76,93,0
3,76,0,300
3,76,92,0
3,76,0,128
3,76,89,0
3,76,0,116
3,77,92,0
3,77,0,348
3,79,93,0
3,79,0,264
3,79,86,0
3,79,0,416
3,82,111,0
3,82,0,324
3,79,109,0
3,79,0,220
3,77,101,0
3,77,0,220
3,76,69,16
3,76,0,84
3,72,86,4
3,72,0,168
3,77,111,0
3,77,0,136
3,77,107,0
3,77,0,136
3,77,111,0
3,77,0,208
3,76,82,0
3,76,0,64
3,72,85,0
3,72,0,184
3,74,65,0
3,76,64,0
3,74,0,4
3,76,0,12
3,72,99,0
3,72,0,184
3,76,92,0
3,76,0,140
3,76,92,0
3,76,0,100
3,76,93,0
3,72,63,0
3,76,0,64
3,72,0,72
3,77,87,0
3,77,0,336
3,79,95,0
3,79,0,260
3,79,99,0
3,79,0,64
3,72,95,0
3,72,0,40
3,72,73,0
3,72,0,64
3,82,99,0
3,82,0,112
3,82,97,0
3,82,0,96
3,82,105,0
3,79,78,0
3,82,0,84
3,79,0,32
3,82,97,0
3,82,0,232
3,79,95,0
3,79,0,248
3,77,99,0
3,77,0,196
3,76,71,0
3,72,87,0
3,76,0,12
3,72,0,124
3,77,95,0
3,77,0,92
3,77,101,0
3,77,0,116
3,77,93,0
3,77,0,136
3,77,74,0
3,79,55,0
3,77,0,40
3,79,0,88
3,79,57,0
3,79,0,152
3,74,65,0
3,76,54,0
3,74,0,16
3,76,0,420
3,76,107,0
3,76,0,60
3,74,105,0
3,74,0,284
3,76,95,0
3,76,0,184
3,74,101,0
3,74,0,276
3,72,93,0
3,72,0,164
3,72,103,0
3,72,0,232
3,74,90,0
3,74,0,272
3,76,86,0
3,76,0,244
3,74,89,0
3,74,0,296
3,79,93,0
3,79,0,248
3,76,90,0
3,76,0,256
3,69,74,0
3,69,0,240
3,72,83,0
3,72,0,316
3,74,83,0
3,74,0,224
3,72,82,0
3,72,0,196
3,71,51,0
3,71,0,84
3,69,59,0
3,69,0,156
3,74,92,0
3,74,0,180
3,74,86,0
3,74,0,184
3,74,95,0
3,74,0,200
3,76,76,0
3,76,0,40
3,72,87,0
3,72,0,124
3,72,52,0
3,72,0,164
3,79,86,0
3,79,0,332
3,76,83,0
3,76,0,288
3,69,83,0
3,69,0,168
3,74,87,0
3,74,0,344
3,76,86,0
3,76,0,272
3,72,77,0
3,72,0,188
3,72,82,0
3,72,0,72
3,72,85,0
3,72,0,68
3,72,86,0
3,72,0,76
3,72,92,0
3,72,0,168
3,79,71,0
3,79,0,156
3,79,97,0
3,79,0,2016
3,77,95,0
3,77,0,236
3,77,95,0
3,77,0,196
3,77,97,0
3,77,0,192
3,76,64,0
3,76,0,72
3,72,69,0
3,72,0,112
3,76,90,0
3,76,0,76
3,74,85,0
3,74,0,136
3,72,77,0
3,72,0,44
3,72,101,0
3,72,0,12
3,79,90,0
3,79,0,1944
3,77,92,0
3,77,0,108
3,77,99,0
3,77,0,172
3,77,101,0
3,77,0,96
3,77,83,0
3,79,95,0
3,77,0,8
3,79,0,140
3,79,93,0
3,77,81,0
3,79,0,28
3,76,77,0
3,77,0,4
3,76,0,144
3,76,95,0
3,76,0,44
3,76,63,0
3,76,0,56
3,76,90,0
3,76,0,164
3,72,82,0
3,72,0,92
3,77,90,0
3,77,0,384
3,79,86,0
3,79,0,308
3,79,99,0
3,79,0,256
3,82,90,0
3,82,0,88
3,82,86,0
3,82,0,192
3,79,63,0
3,79,0,52
3,82,92,0
3,82,0,324
3,79,87,0
3,79,0,240
3,77,78,0
3,77,0,180
3,76,66,0
3,76,0,84
3,72,70,0
3,72,0,124
3,77,90,0
3,77,0,152
3,77,90,0
3,77,0,136
3,77,92,0
3,77,0,176
3,76,69,0
3,76,0,76
3,72,71,0
3,72,0,80
3,74,73,0
3,76,74,0
3,74,0,4
3,76,0,352
3,72,71,0
3,72,0,148
3,76,89,0
3,76,0,52
3,76,59,0
3,76,0,40
3,76,73,0
3,76,0,48
3,76,92,0
3,76,0,188
3,77,76,0
3,77,0,112
3,77,87,0
3,77,0,180
3,79,90,0
3,79,0,252
3,79,89,0
3,79,0,240
3,82,87,0
3,82,0,76
3,82,95,0
3,79,69,0
3,82,0,4
3,79,0,52
3,82,103,0
3,82,0,88
3,79,85,0
3,79,0,12
3,77,78,0
3,77,0,180
3,76,67,0
3,76,0,72
3,72,83,0
3,72,0,100
3,77,87,0
3,77,0,76
3,77,89,0
3,77,0,192
3,77,76,0
3,77,0,64
3,77,90,0
3,77,0,80
3,77,73,0
3,79,64,0
3,77,0,28
3,79,0,156
3,79,70,0
3,79,0,92
3,77,65,0
3,76,72,0
3,77,0,4
3,76,0,164
3,74,92,0
3,74,0,364
3,76,60,0
3,76,0,324
3,76,103,0
3,76,0,8
3,69,86,0
3,69,0,164
3,74,89,0
3,74,0,216
3,74,83,0
3,76,83,0
3,74,0,88
3,76,0,8
3,76,93,0
3,76,83,0
3,76,0,40
3,76,0,236
3,72,87,0
3,72,0,304
3,74,97,0
3,74,0,288
3,76,86,0
3,76,0,320
3,69,83,0
3,74,86,0
3,69,0,12
3,74,0,128
3,74,92,0
3,74,0,180
3,79,87,0
3,76,93,0
3,79,0,4
3,69,78,0
3,76,0,12
3,69,0,116
3,69,83,0
3,69,0,112
3,69,76,0
3,69,0,120
3,72,89,0
3,72,0,348
3,74,89,0
3,74,0,240
3,72,95,0
3,72,0,188
3,71,74,0
3,71,0,68
3,69,65,0
3,69,0,148
3,74,90,0
3,74,0,160
3,74,89,0
3,74,0,232
3,72,78,0
3,72,0,156
3,76,87,0
3,76,0,204
3,69,78,0
3,69,0,120
3,69,65,0
3,69,0,152
3,72,85,0
3,72,0,268
3,79,89,0
3,76,83,0
3,79,0,4
3,76,0,80
3,69,89,0
3,69,0,164
3,74,87,0
3,74,0,212
3,74,89,0
3,74,0,264
3,76,97,0
3,76,0,176
3,72,81,0
3,72,0,136
3,72,89,0
3,72,0,100
3,72,87,0
3,72,0,92
3,72,85,0
3,72,0,80
3,72,85,0
3,72,83,0
3,72,0,96
3,72,0,8
3,72,99,0
3,72,0,4
3,77,99,0
3,77,0,196
3,77,97,0
3,77,0,172
3,77,103,0
3,77,0,192
3,76,73,0
3,76,0,68
3,72,83,0
3,72,0,124
3,76,97,0
3,76,0,188
3,74,81,0
3,74,0,148
3,72,82,0
3,72,0,108
3,72,82,0
3,72,0,1592
3,77,78,0
3,77,0,40
3,77,57,0
3,77,0,52
3,77,84,0
3,77,0,40
3,77,98,0
3,77,0,184
3,77,57,0
3,77,0,40
3,77,97,0
3,77,0,168
3,77,32,0
3,77,0,48
3,77,57,0
3,77,0,72
3,77,89,0
3,77,0,88
3,77,68,0
3,77,0,48
3,79,97,0
3,79,0,172
3,79,97,0
3,77,68,0
3,79,0,20
3,77,0,80
3,76,64,0
3,76,0,136
3,79,90,0
3,77,71,0
3,79,0,8
3,77,0,92
3,76,75,0
3,76,0,76
3,76,103,0
3,76,0,364
3,74,105,0
3,74,0,176
3,74,103,0
3,74,0,240
3,76,105,0
3,76,0,176
3,74,101,0
3,74,0,168
3,72,86,0
3,72,0,304
3,72,107,0
3,72,0,112
3,72,87,0
3,72,0,168
3,79,101,0
3,79,0,272
3,76,97,0
3,76,0,332
3,69,107,0
3,69,0,180
3,74,93,0
3,74,0,288
3,76,92,0
3,76,0,272
3,72,101,0
3,72,0,172
3,72,107,0
3,72,0,76
3,72,109,0
3,72,0,80
3,72,76,0
3,72,0,72
3,79,97,0
3,79,83,0
3,79,0,48
3,79,0,32
3,79,103,0
3,79,0,812
3,77,111,0
3,77,0,180
3,77,111,0
3,77,0,160
3,77,113,0
3,77,0,188
3,76,93,0
3,76,0,76
3,72,103,0
3,72,0,168
3,76,107,0
3,76,0,108
3,76,109,0
3,76,0,120
3,74,101,0
3,74,0,148
3,72,82,0
3,72,0,100
3,72,111,0
3,72,0,383
3,72,83,0
3,72,0,1323
3,77,103,0
3,77,0,56
3,77,111,0
3,77,0,128
3,77,117,0
3,77,0,60
3,77,115,0
3,77,0,60
3,77,103,0
3,77,0,80
3,79,101,0
3,79,0,128
3,79,99,0
3,77,71,0
3,79,0,32
3,77,0,84
3,76,105,4
3,76,0,152
3,76,107,0
3,76,0,116
3,76,113,0
3,76,0,112
3,74,101,0
3,74,0,164
3,72,111,0
3,72,0,96
3,72,101,0
3,72,0,15
3,72,101,0
3,72,0,1455
3,77,101,0
3,77,0,236
3,77,109,0
3,77,0,200
3,77,109,0
3,77,0,108
3,77,105,0
3,77,0,88
3,79,97,0
3,79,0,160
3,79,101,0
3,77,76,0
3,79,0,20
3,77,0,72
3,76,93,8
3,76,0,176
3,76,113,0
3,76,0,180
3,74,111,0
3,74,0,156
3,72,107,0
3,72,0,148
3,72,96,0
3,72,0,380
3,79,83,0
3,79,0,1520
3,77,80,0
3,77,0,40
3,77,96,0
3,77,0,60
3,77,80,0
3,77,0,40
3,77,96,0
3,77,0,156
3,77,98,0
3,77,0,40
3,77,86,0
3,77,0,280
3,77,96,0
3,77,0,136
3,77,96,0
3,77,0,64
3,79,80,0
3,79,0,116
3,79,80,0
3,77,74,0
3,79,0,12
3,77,0,84
3,76,88,0
3,76,0,92
3,79,74,0
3,79,0,120
3,79,76,0
3,77,62,0
3,79,0,12
3,77,0,84
3,74,45,0
3,74,0,176
3,79,84,0
3,79,0,76
3,79,100,0
3,79,0,84
3,76,85,0
3,76,0,320
3,74,92,0
3,74,0,192
3,72,83,0
3,72,0,116
3,72,87,0
3,72,0,560
3,77,93,0
3,76,71,0
3,77,0,4
3,76,0,232
3,76,90,0
3,76,0,124
3,76,108,0
3,76,0,320
3,74,92,0
3,74,0,192
3,72,83,0
3,72,0,116
3,72,87,0
3,72,0,560
3,79,95,0
3,79,0,508
3,84,83,0
3,84,0,280
3,76,95,0
3,76,0,184
3,74,80,0
3,74,0,192
3,72,95,0
3,72,0,136
3,72,85,0
3,72,0,520
3,77,99,0
3,77,0,68
3,77,103,0
3,77,0,220
3,77,107,0
3,77,0,136
3,77,105,0
3,77,0,112
3,77,103,0
3,77,0,68
3,79,95,0
3,79,0,192
3,77,105,0
3,77,0,276
3,77,103,0
3,77,0,184
3,77,103,0
3,77,0,148
3,77,97,0
3,77,0,72
3,79,95,0
3,79,0,140
3,77,99,0
3,77,0,172
3,77,107,0
3,77,0,244
3,79,113,0
3,79,0,100
3,79,92,0
3,79,0,44
3,79,109,0
3,79,0,100
3,77,97,0
3,77,0,244
3,77,107,0
3,77,0,172
3,77,113,0
3,77,0,80
3,77,97,0
3,77,0,68
3,79,99,0
3,79,0,100
3,77,101,0
3,77,0,16
3,77,88,0
3,77,0,80
3,79,108,0
3,79,0,72
3,77,107,0
3,77,0,224
3,77,105,0
3,77,0,248
3,77,103,0
3,77,0,108
3,77,100,0
3,77,0,60
3,79,81,0
3,79,0,160
3,79,107,0
3,79,0,100
3,79,97,0
3,79,0,96
3,79,105,0
3,79,0,84
3,79,103,0
3,79,0,708
3,77,103,0
3,77,0,256
3,77,101,0
3,77,0,200
3,77,99,0
3,77,0,172
3,77,97,0
3,77,0,56
3,79,111,0
3,79,0,160
3,76,78,0
3,76,0,152
3,72,76,0
3,72,0,104
3,72,74,0
3,72,0,92
3,72,72,0
3,72,0,332
3,79,61,0
3,79,0,712
3,76,52,0
3,76,0,364
3,74,45,0
3,74,0,176
3,72,42,0
3,72,0,148
3,72,38,0
3,72,0,364
3,77,8,0
3,77,0,160
3,77,4,0
3,77,0,228
4,65,53,4
4,62,90,4
4,65,0,296
4,62,0,8
4,65,53,12
4,62,90,4
4,65,0,296
4,62,0,8
4,69,117,1880
4,64,107,0
4,64,0,8
4,69,0,4
4,60,90,1560
4,64,81,4
4,64,0,284
4,60,0,8
4,65,73,60
4,62,89,12
4,62,0,276
4,65,0,0
4,67,71,24
4,64,92,4
4,67,0,160
4,64,0,32
4,64,67,2208
4,60,81,4
4,60,0,320
4,64,0,0
4,65,59,60
4,62,87,8
4,65,0,244
4,62,0,24
4,64,50,4
4,60,82,4
4,60,0,172
4,64,0,8
4,59,63,8
4,62,42,4
4,60,52,80
4,59,0,4
4,62,0,4
4,57,77,4
4,60,0,76
4,57,0,16
4,67,59,2008
4,60,81,12
4,67,0,80
4,60,0,12
4,67,52,92
4,60,74,12
4,67,0,104
4,60,0,44
4,67,62,16
4,71,46,12
4,69,35,308
4,67,0,4
4,71,0,4
4,64,57,8
4,69,0,200
4,64,0,12
4,65,53,12
4,62,90,4
4,65,0,296
4,62,0,8
4,65,53,12
4,62,90,4
4,65,0,296
4,62,0,8
4,69,117,1880
4,64,107,0
4,64,0,8
4,69,0,4
4,60,90,1560
4,64,81,4
4,64,0,284
4,60,0,8
4,65,73,60
4,62,89,12
4,62,0,276
4,65,0,0
4,67,71,24
4,64,92,4
4,67,0,160
4,64,0,32
4,64,67,2208
4,60,81,4
4,60,0,320
4,64,0,0
4,65,59,60
4,62,87,8
4,65,0,244
4,62,0,24
4,64,50,4
4,60,82,4
4,60,0,172
4,64,0,8
4,59,63,8
4,62,42,4
4,60,52,80
4,59,0,4
4,62,0,4
4,57,77,4
4,60,0,76
4,57,0,16
4,67,59,2008
4,60,81,12
4,67,0,80
4,60,0,12
4,67,52,92
4,60,74,12
4,67,0,104
4,60,0,44
4,67,62,16
4,71,46,12
4,69,35,308
4,67,0,4
4,71,0,4
4,64,57,8
4,69,0,200
4,64,0,12
4,79,90,14628
4,77,71,268
4,79,0,4
4,77,0,92
4,76,75,8
4,76,0,72
4,69,117,12444
4,64,107,0
4,64,0,8
4,69,0,4
4,67,73,1540
4,60,95,12
4,67,0,80
4,60,0,12
4,67,66,92
4,60,88,12
4,67,0,104
4,60,0,44
4,67,76,16
4,71,60,12
4,69,49,308
4,67,0,4
4,71,0,4
4,64,71,8
4,69,0,200
4,64,0,12
5,72,126,5528
5,71,87,92
5,72,0,24
5,69,87,4
5,71,0,8
5,67,76,12
5,69,0,8
5,65,70,12
5,67,0,4
5,65,0,12
5,64,59,0
5,64,0,12
5,62,49,12
5,62,0,12
5,72,127,2852
5,72,0,96
5,72,126,2688
5,72,0,52
5,74,127,148
5,74,0,72
5,72,123,16
5,72,0,56
5,72,126,1192
5,71,87,92
5,72,0,24
5,69,87,4
5,71,0,8
5,67,76,12
5,69,0,8
5,65,70,12
5,67,0,4
5,65,0,12
5,64,59,0
5,64,0,12
5,62,49,12
5,62,0,12
5,72,126,1132
5,72,0,60
5,69,111,36
5,69,0,56
5,72,113,36
5,72,0,40
5,72,119,72
5,72,0,52
5,69,113,36
5,69,0,44
5,72,121,40
5,74,115,192
5,72,0,16
5,74,0,40
5,76,117,36
5,76,0,104
5,74,76,4
5,74,0,12
5,72,64,4
5,72,0,24
5,71,59,12
5,71,0,32
5,69,43,4
5,69,0,24
5,67,38,4
5,67,0,12
5,65,32,16
5,65,0,12
5,72,126,1464
5,72,0,60
5,72,126,140
5,72,0,52
5,72,125,136
5,72,0,60
5,74,127,132
5,74,0,80
5,72,126,16
5,72,0,52
5,72,126,16
5,72,0,88
5,69,126,24640
5,69,0,116
5,68,87,0
5,66,87,28
5,68,0,8
5,64,76,12
5,66,0,8
5,62,70,12
5,64,0,4
5,62,0,12
5,61,59,0
5,61,0,12
5,59,49,12
5,59,0,12
5,67,111,4296
5,67,0,72
5,69,117,20
5,69,0,72
5,64,97,112
5,64,0,76
5,67,123,112
5,67,0,68
5,69,97,40
5,69,0,48
5,69,125,124
5,69,0,64
5,67,117,440
5,67,0,64
5,69,107,40
5,69,0,52
5,69,123,124
5,69,0,48
5,69,127,4556
5,69,0,52
5,64,93,164
5,64,0,40
5,67,109,44
5,67,0,44
5,67,117,44
5,67,0,48
5,67,123,140
5,67,0,48
5,69,126,160
5,69,0,76
5,70,127,372
5,70,0,56
5,71,111,48
5,71,0,60
5,72,97,116
5,71,63,124
5,72,0,36
5,69,56,0
5,71,0,12
5,67,49,20
