track,note,velocity,time
0,42,127,732
0,42,0,8
0,42,49,376
0,42,0,80
0,42,97,304
0,42,0,124
0,42,48,260
0,42,0,100
0,36,123,284
0,44,85,8
0,44,0,48
0,36,0,108
0,40,121,220
0,44,99,0
0,44,0,64
0,40,0,132
0,36,121,188
0,44,89,8
0,44,0,56
0,36,0,136
0,40,121,184
0,44,89,16
0,44,0,52
0,60,96,36
0,60,0,24
0,40,0,56
0,53,88,116
0,53,0,20
0,36,119,64
0,44,93,8
0,44,0,52
0,36,0,140
0,40,117,184
0,44,89,8
0,44,0,56
0,40,0,88
0,44,93,224
0,36,125,16
0,44,0,40
0,36,0,48
0,36,103,104
0,36,0,152
0,40,113,32
0,44,93,8
0,44,0,52
0,61,106,44
0,61,0,20
0,40,0,60
0,36,84,108
0,84,127,4
0,72,126,8
0,55,89,4
0,55,0,20
0,36,123,56
0,84,0,8
0,44,85,0
0,71,87,4
0,72,0,24
0,69,87,4
0,71,0,8
0,44,0,8
0,67,76,4
0,69,0,8
0,65,70,12
0,67,0,4
0,65,0,12
0,64,59,0
0,64,0,12
0,62,49,12
0,62,0,8
0,36,0,8
0,36,0,12
0,36,77,20
0,76,89,40
0,72,77,0
0,36,0,0
0,79,81,4
0,40,121,4
0,44,99,0
0,64,105,20
0,60,93,4
0,67,85,0
0,67,0,24
0,64,0,0
0,60,0,4
0,72,0,8
0,76,0,0
0,44,0,4
0,79,0,4
0,36,64,28
0,36,0,80
0,72,64,8
0,76,75,4
0,79,69,0
0,33,60,4
0,40,0,4
0,64,97,8
0,60,92,4
0,67,90,0
0,76,0,24
0,64,0,0
0,79,0,4
0,67,0,0
0,60,0,0
0,72,0,4
0,33,0,44
0,31,73,4
0,31,0,80
0,81,85,4
0,72,85,4
0,77,87,4
0,36,74,4
0,36,121,0
0,44,89,8
0,64,109,4
0,67,101,4
0,60,101,4
0,64,0,32
0,36,0,8
0,44,0,4
0,36,85,40
0,60,0,36
0,67,0,52
0,36,0,8
0,36,0,0
0,81,0,44
0,72,0,8
0,77,0,8
0,69,97,28
0,65,95,4
0,60,99,0
0,65,0,20
0,60,0,8
0,69,0,20
0,81,85,24
0,77,93,0
0,72,87,4
0,40,121,16
0,44,89,16
0,44,0,52
0,60,96,36
0,60,0,0
0,77,0,16
0,40,0,0
0,81,0,12
0,72,0,4
0,74,78,52
0,77,79,12
0,36,89,0
0,70,79,8
0,53,88,8
0,53,0,20
0,36,0,48
0,36,119,16
0,44,93,8
0,44,0,52
0,36,95,44
0,36,0,80
0,33,78,16
0,36,0,0
0,33,0,84
0,31,69,12
0,67,81,72
0,62,87,0
0,58,85,4
0,31,0,0
0,36,86,12
0,40,117,0
0,62,0,8
0,44,89,0
0,58,0,4
0,67,0,28
0,36,0,12
0,44,0,12
0,36,72,32
0,40,0,56
0,36,0,24
0,62,99,16
0,33,67,0
0,58,97,4
0,67,81,0
0,58,0,12
0,62,0,4
0,67,0,4
0,33,0,68
0,31,65,4
0,31,0,76
0,67,101,12
0,44,93,0
0,58,105,4
0,62,97,4
0,36,83,0
0,36,125,8
0,44,0,40
0,62,0,20
0,58,0,12
0,36,0,4
0,36,0,12
0,31,74,8
0,31,0,80
0,67,0,8
0,33,69,8
0,36,103,0
0,33,0,92
0,36,65,4
0,36,0,56
0,36,0,24
0,69,99,4
0,62,111,0
0,58,111,4
0,40,113,0
0,44,93,8
0,44,0,52
0,36,81,36
0,61,106,8
0,61,0,20
0,62,0,36
0,58,0,16
0,36,0,8
0,40,0,0
0,69,0,16
0,60,85,84
0,67,99,4
0,64,95,4
0,36,84,0
0,36,10,0
0,72,127,4
0,84,126,8
0,64,0,0
0,60,0,0
0,70,0,4
0,55,89,0
0,74,0,8
0,77,0,8
0,55,0,4
0,67,0,16
0,36,123,40
0,36,0,4
0,72,0,4
0,44,85,0
0,83,69,4
0,84,0,24
0,81,63,4
0,83,0,8
0,44,0,8
0,79,58,4
0,81,0,8
0,77,54,12
0,79,0,4
0,77,0,12
0,76,50,0
0,76,0,12
0,74,45,12
0,74,0,8
0,36,0,8
0,36,0,12
0,36,77,20
0,79,81,36
0,72,81,4
0,76,91,0
0,36,0,0
0,40,121,8
0,44,99,0
0,64,105,8
0,60,95,0
0,67,93,4
0,67,0,24
0,64,0,0
0,60,0,4
0,72,0,12
0,76,0,8
0,44,0,4
0,79,0,4
0,36,64,28
0,72,73,76
0,79,77,4
0,76,87,0
0,36,0,0
0,33,60,16
0,40,0,4
0,64,93,12
0,67,89,0
0,60,81,4
0,60,0,24
0,64,0,0
0,72,0,4
0,76,0,4
0,67,0,0
0,79,0,20
0,33,0,20
0,31,73,4
0,31,0,80
0,81,87,4
0,72,85,4
0,77,87,4
0,69,101,4
0,36,74,0
0,36,121,0
0,65,93,4
0,60,85,4
0,44,89,0
0,36,0,52
0,44,0,4
0,36,85,40
0,36,0,96
0,36,0,0
0,69,0,52
0,60,0,8
0,65,0,4
0,81,0,12
0,72,0,4
0,77,0,12
0,69,101,24
0,65,99,4
0,60,105,4
0,65,0,16
0,60,0,4
0,69,0,4
0,72,87,24
0,77,91,4
0,81,89,0
0,40,121,8
0,44,89,16
0,44,0,52
0,60,96,36
0,60,0,0
0,77,0,4
0,40,0,0
0,81,0,4
0,72,0,0
0,74,69,64
0,36,89,0
0,70,73,4
0,77,57,4
0,53,88,8
0,53,0,20
0,36,0,48
0,36,119,16
0,44,93,8
0,44,0,52
0,36,95,44
0,36,0,80
0,33,78,16
0,36,0,0
0,33,0,84
0,31,69,12
0,31,0,4
0,58,97,8
0,62,97,0
0,67,85,0
0,36,86,0
0,40,117,0
0,44,89,8
0,67,0,12
0,62,0,0
0,58,0,0
0,36,0,4
0,44,0,4
0,36,72,4
0,70,0,12
0,77,0,4
0,74,0,0
0,40,0,12
0,36,0,24
0,33,67,16
0,62,92,8
0,58,76,8
0,67,67,4
0,58,0,28
0,62,0,0
0,67,0,12
0,33,0,32
0,31,65,4
0,31,0,76
0,82,85,12
0,77,79,0
0,44,93,0
0,74,62,4
0,36,83,4
0,36,125,8
0,62,97,8
0,67,81,4
0,58,90,0
0,44,0,28
0,36,0,36
0,58,0,12
0,62,0,0
0,36,0,0
0,67,0,4
0,31,74,4
0,31,0,80
0,33,69,16
0,36,103,0
0,33,0,92
0,74,0,4
0,82,0,0
0,36,65,0
0,77,0,12
0,36,0,44
0,36,0,24
0,69,92,4
0,84,111,4
0,81,85,0
0,58,103,0
0,62,103,0
0,40,113,0
0,77,87,4
0,72,83,0
0,72,126,4
0,44,93,0
0,84,0,44
0,72,0,8
0,44,0,0
0,36,81,36
0,61,106,8
0,61,0,20
0,36,0,60
0,40,0,0
0,86,108,16
0,74,127,8
0,77,0,8
0,58,0,0
0,69,0,4
0,72,0,16
0,62,0,24
0,81,0,8
0,79,62,0
0,86,0,4
0,72,73,4
0,74,0,4
0,76,85,0
0,84,122,8
0,36,65,4
0,72,123,4
0,64,113,12
0,67,86,0
0,55,89,0
0,60,113,4
0,55,0,16
0,64,0,8
0,60,0,4
0,84,0,4
0,79,0,0
0,72,0,8
0,72,0,4
0,76,0,4
0,67,0,8
0,64,113,16
0,60,101,0
0,67,103,0
0,36,123,0
0,36,0,4
0,44,85,4
0,64,0,32
0,60,0,4
0,44,0,12
0,60,66,48
0,60,0,40
0,36,0,20
0,67,0,12
0,67,32,8
0,64,61,16
0,67,0,24
0,64,0,20
0,60,72,52
0,36,77,0
0,60,0,44
0,72,79,32
0,79,81,4
0,76,85,0
0,36,0,0
0,40,121,8
0,44,99,0
0,64,109,8
0,60,109,0
0,67,99,0
0,64,105,12
0,60,93,4
0,67,85,0
0,64,0,20
0,67,0,4
0,64,0,0
0,67,0,4
0,60,0,0
0,60,0,0
0,44,0,12
0,76,0,16
0,79,0,4
0,72,0,0
0,36,64,12
0,36,0,80
0,72,73,16
0,79,75,0
0,33,60,0
0,76,79,4
0,40,0,0
0,64,97,8
0,60,92,4
0,67,90,0
0,64,0,24
0,76,0,4
0,67,0,0
0,60,0,0
0,72,0,4
0,79,0,4
0,33,0,40
0,31,73,4
0,31,0,80
0,72,85,16
0,79,87,0
0,36,74,0
0,36,121,0
0,76,95,4
0,44,89,4
0,64,109,4
0,67,101,4
0,60,101,4
0,64,0,32
0,36,0,8
0,44,0,4
0,36,85,40
0,60,0,36
0,67,0,52
0,67,99,8
0,64,105,0
0,60,105,0
0,36,0,0
0,36,0,0
0,64,0,28
0,60,0,12
0,67,0,4
0,72,0,40
0,69,97,4
0,65,95,4
0,60,99,0
0,76,0,4
0,79,0,8
0,65,0,8
0,60,0,8
0,69,0,20
0,81,83,20
0,77,89,4
0,72,81,4
0,40,121,16
0,84,127,4
0,72,126,4
0,44,89,8
0,44,0,52
0,71,87,32
0,84,0,0
0,60,96,4
0,72,0,20
0,69,87,4
0,60,0,0
0,71,0,8
0,67,76,12
0,69,0,8
0,65,70,12
0,67,0,4
0,65,0,12
0,64,59,0
0,40,0,0
0,64,0,12
0,72,0,4
0,62,49,8
0,77,0,0
0,62,0,12
0,81,0,4
0,36,89,60
0,74,71,8
0,77,58,4
0,70,79,4
0,53,88,0
0,53,0,20
0,36,0,48
0,67,83,16
0,62,93,0
0,65,64,0
0,58,92,0
0,36,119,0
0,44,93,8
0,65,0,16
0,62,0,16
0,58,0,4
0,44,0,16
0,58,46,44
0,36,95,0
0,58,0,28
0,67,0,52
0,36,0,0
0,62,65,16
0,58,65,0
0,67,65,0
0,33,78,0
0,36,0,0
0,67,0,16
0,62,0,12
0,58,0,8
0,33,0,48
0,58,51,12
0,31,69,0
0,58,0,36
0,67,81,36
0,62,87,0
0,58,85,4
0,31,0,0
0,36,86,12
0,40,117,0
0,67,86,8
0,62,93,0
0,65,76,0
0,58,109,0
0,62,0,0
0,44,89,0
0,58,0,4
0,67,0,28
0,62,0,12
0,36,0,0
0,67,0,4
0,65,0,4
0,58,0,4
0,44,0,0
0,36,72,32
0,40,0,56
0,36,0,24
0,62,99,16
0,33,67,0
0,58,97,4
0,67,81,0
0,58,0,12
0,62,0,4
0,67,0,4
0,33,0,68
0,31,65,4
0,31,0,76
0,67,101,12
0,44,93,0
0,58,105,4
0,62,97,4
0,36,83,0
0,36,125,8
0,44,0,40
0,62,0,20
0,58,0,12
0,36,0,4
0,36,0,12
0,31,74,8
0,31,0,80
0,67,0,8
0,72,126,8
0,84,126,0
0,65,65,0
0,62,90,0
0,58,103,0
0,33,69,0
0,36,103,0
0,58,0,56
0,62,0,0
0,72,0,4
0,84,0,0
0,33,0,32
0,69,111,4
0,36,65,0
0,81,111,8
0,65,0,0
0,69,0,48
0,36,0,0
0,81,0,8
0,36,0,16
0,69,99,4
0,62,111,0
0,58,111,4
0,40,113,0
0,72,113,4
0,44,93,4
0,84,113,4
0,72,0,12
0,84,0,4
0,44,0,8
0,65,83,12
0,58,105,0
0,62,90,0
0,36,81,0
0,61,106,4
0,84,119,4
0,62,0,0
0,72,119,8
0,58,0,8
0,61,0,0
0,84,0,16
0,62,0,0
0,72,0,8
0,58,0,0
0,36,0,8
0,40,0,0
0,65,0,8
0,69,0,0
0,69,113,4
0,81,113,4
0,69,0,36
0,81,0,8
0,70,0,8
0,74,0,4
0,60,85,8
0,72,121,4
0,67,99,0
0,64,95,4
0,36,84,0
0,36,10,0
0,84,121,4
0,77,0,0
0,64,0,8
0,60,0,0
0,55,89,4
0,55,0,20
0,67,0,16
0,64,105,40
0,60,93,0
0,67,89,0
0,36,123,0
0,36,0,4
0,44,85,4
0,60,0,20
0,64,0,4
0,44,0,24
0,74,115,40
0,86,115,8
0,60,60,0
0,72,0,8
0,84,0,8
0,60,0,8
0,74,0,4
0,86,0,4
0,67,0,0
0,36,0,4
0,76,117,12
0,88,117,4
0,64,61,4
0,67,57,0
0,67,0,16
0,64,0,0
0,36,0,12
0,76,0,16
0,74,76,4
0,60,63,0
0,36,77,0
0,88,0,4
0,74,0,8
0,72,64,4
0,60,0,16
0,72,0,4
0,71,59,12
0,79,77,20
0,76,81,0
0,72,79,4
0,36,0,4
0,71,0,4
0,69,43,4
0,40,121,0
0,44,99,0
0,60,99,8
0,67,95,0
0,64,111,0
0,64,105,0
0,60,95,0
0,67,93,4
0,69,0,12
0,67,38,4
0,67,0,8
0,64,0,0
0,67,0,4
0,60,0,0
0,64,0,4
0,60,0,0
0,67,0,4
0,65,32,8
0,76,0,8
0,44,0,0
0,65,0,4
0,79,0,4
0,72,0,4
0,36,64,20
0,72,81,76
0,79,81,4
0,76,89,0
0,36,0,0
0,33,60,16
0,40,0,4
0,64,93,12
0,67,89,0
0,60,81,4
0,76,0,16
0,72,0,4
0,60,0,4
0,64,0,0
0,67,0,8
0,79,0,4
0,33,0,36
0,31,73,4
0,81,85,80
0,72,83,0
0,31,0,0
0,77,85,4
0,69,101,12
0,36,74,0
0,36,121,0
0,65,93,4
0,60,85,4
0,44,89,0
0,36,0,52
0,44,0,4
0,36,85,40
0,67,89,96
0,64,97,0
0,60,82,0
0,36,0,0
0,36,0,0
0,64,0,20
0,60,0,8
0,67,0,0
0,81,0,20
0,69,0,4
0,72,0,4
0,60,0,4
0,77,0,4
0,65,0,0
0,69,101,52
0,65,99,4
0,60,105,4
0,65,0,16
0,60,0,4
0,69,0,4
0,77,91,20
0,72,87,0
0,81,89,4
0,40,121,12
0,44,89,16
0,44,0,52
0,60,96,36
0,60,0,0
0,77,0,4
0,72,0,12
0,40,0,0
0,81,0,20
0,70,79,60
0,77,64,4
0,74,69,0
0,36,89,0
0,53,88,16
0,53,0,20
0,36,0,48
0,62,93,16
0,65,83,0
0,58,97,0
0,67,80,0
0,36,119,0
0,44,93,8
0,62,0,24
0,65,0,8
0,44,0,20
0,58,0,12
0,67,0,16
0,58,69,16
0,36,95,0
0,58,0,40
0,36,0,40
0,58,59,16
0,62,57,0
0,33,78,0
0,36,0,0
0,62,0,20
0,58,0,4
0,33,0,60
0,58,62,12
0,31,69,0
0,58,0,44
0,31,0,32
0,84,126,4
0,72,126,4
0,58,97,0
0,62,97,0
0,67,85,4
0,36,86,0
0,40,117,0
0,65,74,8
0,58,97,0
0,67,70,0
0,62,99,0
0,44,89,0
0,67,0,20
0,62,0,0
0,58,0,0
0,84,0,16
0,58,0,8
0,36,0,0
0,72,0,4
0,65,0,0
0,62,0,4
0,44,0,4
0,67,0,8
0,36,72,24
0,40,0,16
0,36,0,8
0,70,0,4
0,84,125,4
0,74,0,0
0,33,67,0
0,72,126,4
0,77,0,4
0,62,92,0
0,58,76,8
0,67,67,4
0,58,0,8
0,62,0,0
0,84,0,4
0,72,0,4
0,67,0,4
0,33,0,32
0,31,65,4
0,31,0,76
0,44,93,12
0,72,125,8
0,36,83,0
0,84,125,4
0,82,79,0
0,77,73,4
0,74,73,0
0,36,125,0
0,62,97,8
0,67,81,4
0,58,90,0
0,44,0,28
0,72,0,12
0,84,0,4
0,36,0,20
0,58,0,12
0,62,0,0
0,36,0,0
0,67,0,4
0,65,78,4
0,62,99,0
0,58,109,0
0,31,74,0
0,62,0,24
0,58,0,24
0,65,0,32
0,31,0,0
0,86,127,4
0,74,127,4
0,33,69,8
0,36,103,0
0,74,0,72
0,86,0,8
0,72,126,8
0,84,125,4
0,33,0,0
0,58,38,4
0,36,65,0
0,74,0,20
0,82,0,8
0,84,0,12
0,77,0,0
0,72,0,4
0,36,0,12
0,72,103,0
0,58,0,0
0,36,0,0
0,69,92,4
0,58,103,4
0,62,103,0
0,40,113,0
0,81,87,4
0,72,85,4
0,77,87,0
0,44,93,0
0,44,0,52
0,72,126,16
0,36,81,0
0,86,127,8
0,58,113,0
0,62,103,0
0,65,92,0
0,61,106,0
0,61,0,20
0,62,0,4
0,72,0,4
0,58,0,44
0,84,123,8
0,36,0,0
0,40,0,0
0,86,0,4
0,72,99,0
0,77,0,12
0,58,0,0
0,69,0,4
0,72,0,4
0,81,0,12
0,65,0,0
0,62,0,20
0,84,0,16
