track,note,velocity,time
1,36,76,8796
1,31,66,56
1,36,72,40
1,31,64,756
1,31,66,228
1,36,76,44
1,36,64,912
1,31,66,40
1,36,76,28
1,48,72,708
1,43,64,272
1,36,60,48
1,36,66,828
1,31,54,36
1,36,80,192
1,31,72,752
1,31,66,200
1,36,66,192
1,36,64,996
1,31,64,28
1,36,72,192
1,48,52,716
1,43,72,288
1,36,68,20
1,36,58,884
1,31,64,16
1,36,66,36
1,31,64,728
1,31,64,208
1,36,62,12
1,36,66,880
1,31,66,40
1,36,76,4
1,48,68,732
1,43,80,260
1,36,64,44
1,36,80,896
1,31,62,64
1,36,68,20
1,31,68,756
1,31,66,200
1,36,76,0
1,36,68,912
1,31,66,28
1,36,84,44
1,31,64,764
1,31,68,240
1,36,76,32
1,36,80,944
1,31,64,36
1,36,72,24
1,31,66,760
1,31,66,232
1,36,80,4
1,29,66,892
1,29,76,80
1,29,84,112
1,32,92,812
1,32,64,176
1,32,80,112
1,34,60,192
1,34,56,80
1,34,68,84
1,39,88,248
1,34,68,4
1,39,80,4
1,34,68,388
1,36,66,192
1,39,80,0
1,39,71,208
1,41,97,196
1,41,76,140
1,37,76,116
1,37,80,152
1,32,58,404
1,34,42,192
1,37,84,32
1,37,64,240
1,36,62,192
1,34,66,88
1,32,52,24
1,32,56,176
1,34,64,192
1,36,62,4
1,31,60,28
1,36,84,192
1,31,64,396
1,34,68,0
1,36,80,0
1,31,64,136
1,36,84,28
1,36,62,808
1,34,72,236
1,34,75,384
1,37,92,100
1,39,68,216
1,34,80,24
1,39,88,192
1,39,84,732
1,39,76,172
1,41,80,24
1,41,80,144
1,37,84,160
1,32,56,60
1,37,84,192
1,29,64,392
1,32,44,192
1,37,76,184
1,37,60,216
1,36,60,44
1,34,39,192
1,32,62,172
1,32,52,196
1,34,54,192
1,36,62,20
1,31,62,8
1,36,68,192
1,31,66,584
1,36,76,192
1,31,66,228
1,36,80,192
1,36,62,796
1,34,84,228
1,34,68,212
1,37,84,436
1,36,80,268
1,31,62,36
1,36,76,16
1,31,66,744
1,31,64,220
1,36,64,28
1,36,64,944
1,31,66,16
1,36,76,0
1,48,68,764
1,43,68,204
1,36,64,24
1,36,72,868
1,31,62,32
1,36,68,12
1,31,66,756
1,31,66,184
1,36,68,16
1,36,76,896
1,31,68,12
1,36,80,192
1,48,72,736
1,43,60,252
1,36,66,4
1,36,66,892
1,31,64,28
1,36,76,20
1,31,66,764
1,31,66,220
1,36,66,32
1,36,68,932
1,31,66,32
1,36,84,16
1,48,84,764
1,43,64,220
1,36,66,192
1,36,66,868
1,31,58,40
1,36,68,192
1,31,76,772
1,31,66,200
1,36,66,24
1,36,64,956
1,31,64,8
1,36,72,192
1,48,66,792
1,43,64,216
1,36,66,12
1,36,62,852
1,31,66,0
1,36,72,192
1,31,66,720
1,31,66,216
1,36,84,192
1,29,62,932
1,29,72,76
1,29,76,88
1,32,92,768
1,32,66,192
1,32,72,108
1,34,66,224
1,34,76,84
1,34,76,92
1,39,84,244
1,34,62,64
1,39,80,192
1,34,52,344
1,36,68,192
1,39,88,4
1,39,76,244
1,39,80,240
1,41,76,28
1,41,68,184
1,37,88,80
1,32,88,20
1,37,84,20
1,32,58,404
1,34,66,192
1,37,84,28
1,37,66,208
1,36,56,28
1,34,60,4
1,32,76,28
1,32,64,176
1,34,56,192
1,36,66,20
1,31,62,192
1,36,80,32
1,31,62,420
1,34,64,32
1,36,84,32
1,31,60,260
1,36,76,20
1,31,56,676
1,36,80,40
1,34,88,256
1,34,64,452
1,37,84,448
1,39,84,288
1,34,60,20
1,39,80,28
1,39,84,812
1,39,71,196
1,41,80,144
1,41,72,172
1,37,76,384
1,32,62,16
1,37,84,4
1,29,54,436
1,32,52,192
1,37,76,148
1,37,48,204
1,36,64,56
1,34,62,192
1,32,64,16
1,32,60,244
1,34,76,192
1,36,68,12
1,31,64,12
1,36,64,192
1,31,62,636
1,36,80,192
1,31,62,248
1,36,80,28
1,36,68,316
1,34,80,244
1,34,80,204
1,37,80,424
1,31,64,224
1,31,66,88
1,31,66,84
1,31,56,204
1,38,68,24
1,41,60,16
1,43,62,192
1,43,64,248
1,41,50,8
1,38,54,36
1,36,62,0
1,38,64,192
1,36,52,4
1,34,52,192
1,31,62,32
1,31,66,76
1,31,72,96
1,38,68,136
1,41,62,48
1,38,68,52
1,43,68,28
1,46,72,228
1,45,56,12
1,43,64,20
1,41,64,20
1,38,60,32
1,36,46,32
1,34,72,8
1,31,66,20
1,31,72,92
1,31,66,92
1,31,58,276
1,38,64,44
1,41,52,192
1,43,64,44
1,43,64,188
1,41,58,192
1,38,56,36
1,36,38,192
1,34,62,8
1,36,54,192
1,38,56,168
1,31,66,32
1,31,72,104
1,31,72,120
1,31,62,244
1,38,76,28
1,41,54,0
1,43,72,40
1,55,80,260
1,53,60,192
1,50,56,24
1,48,62,16
1,46,88,76
1,43,35,192
1,29,66,44
1,31,62,192
1,31,62,108
1,31,58,100
1,31,56,272
1,38,58,28
1,41,50,16
1,43,72,44
1,43,64,236
1,46,80,272
1,45,62,192
1,43,64,16
1,41,52,52
1,38,56,44
1,31,64,20
1,31,68,128
1,31,62,212
1,38,66,20
1,41,56,28
1,43,66,44
1,43,66,252
1,43,62,260
1,41,44,40
1,36,64,68
1,34,64,4
1,29,66,84
1,31,64,100
1,31,54,100
1,31,72,128
1,31,60,204
1,38,54,12
1,41,54,44
1,43,66,32
1,43,66,196
1,43,66,100
1,43,58,408
1,41,52,40
1,38,64,60
1,31,58,20
1,31,64,96
1,31,72,108
1,43,54,212
1,41,46,44
1,38,60,68
1,31,76,8
1,31,62,168
1,31,76,108
1,31,76,808
1,31,64,152
1,31,64,116
1,31,76,800
1,31,76,220
1,31,76,220
1,31,66,232
1,31,66,224
1,31,66,252
1,43,64,52
1,31,66,32
1,34,56,192
1,35,64,148
1,36,66,72
1,31,35,8
1,36,54,192
1,31,66,828
1,31,48,228
1,36,60,24
1,36,68,944
1,31,64,28
1,36,66,20
1,48,66,756
1,43,80,264
1,36,64,24
1,36,64,900
1,31,64,28
1,36,80,0
1,31,64,760
1,31,64,208
1,36,64,28
1,36,66,948
1,31,64,8
1,36,66,4
1,48,72,780
1,43,92,268
1,36,62,36
1,31,62,376
1,34,68,192
1,35,60,160
1,36,64,40
1,31,64,20
1,36,76,8
1,31,80,820
1,31,64,236
1,36,72,4
1,36,64,952
1,31,66,40
1,36,68,28
1,48,76,800
1,43,84,256
1,36,80,16
1,36,66,952
1,31,64,32
1,36,68,16
1,31,66,772
1,31,64,216
1,36,68,4
1,36,62,928
1,31,64,40
1,36,88,32
1,48,66,748
1,43,66,292
1,51,88,96
1,50,60,36
1,46,62,48
1,43,60,4
1,48,68,36
1,41,54,12
1,36,72,40
1,31,66,24
1,36,80,192
1,31,68,744
1,31,68,224
1,36,66,28
1,36,62,972
1,31,72,28
1,36,76,32
1,48,68,764
1,43,66,244
1,36,68,48
1,31,66,768
1,36,80,192
1,31,64,28
1,36,76,28
1,31,64,804
1,31,66,224
1,36,80,20
1,29,72,968
1,29,72,80
1,29,84,92
1,32,84,764
1,32,84,228
1,32,64,256
1,34,68,4
1,34,62,76
1,34,80,92
1,39,68,192
1,34,52,44
1,39,80,40
1,34,60,440
1,36,64,4
1,39,64,4
1,39,68,260
1,39,72,212
1,41,60,20
1,41,64,140
1,37,64,72
1,32,58,56
1,37,84,192
1,29,64,424
1,32,58,12
1,37,60,0
1,37,48,180
1,36,62,8
1,34,64,192
1,32,76,44
1,32,66,236
1,34,72,192
1,36,64,32
1,31,64,8
1,36,68,28
1,31,60,412
1,34,68,4
1,36,66,192
1,31,62,280
1,36,66,20
1,31,66,156
1,36,76,192
1,34,80,256
1,34,68,212
1,37,88,472
1,39,72,232
1,34,66,32
1,39,64,192
1,34,62,620
1,39,76,0
1,39,72,236
1,41,66,204
1,41,60,244
1,37,68,148
1,32,60,16
1,37,84,192
1,29,64,368
1,32,64,192
1,37,76,12
1,37,64,236
1,36,54,40
1,34,64,32
1,32,66,40
1,32,46,152
1,34,56,192
1,36,66,32
1,31,68,12
1,36,60,4
1,31,66,412
1,34,50,16
1,36,68,36
1,31,56,252
1,36,66,32
1,36,66,184
1,34,72,260
1,34,72,144
1,37,88,476
1,27,92,280
1,27,84,84
2,67,87,8776
2,63,103,0
2,60,75,0
2,65,87,20
2,62,95,0
2,58,107,0
2,67,91,856
2,63,107,0
2,60,71,0
2,65,99,572
2,62,99,0
2,58,103,0
2,67,83,144
2,63,107,0
2,60,91,0
2,65,95,60
2,62,87,0
2,58,99,0
2,62,95,360
2,58,83,0
2,53,95,0
2,63,83,168
2,60,87,0
2,56,87,0
2,67,87,60
2,63,95,0
2,60,87,0
2,65,99,76
2,62,87,0
2,58,95,0
2,62,99,28
2,58,81,0
2,53,91,0
2,63,87,12
2,60,83,0
2,56,79,0
2,67,95,288
2,63,103,0
2,60,87,0
2,65,95,64
2,62,91,0
2,58,103,0
2,62,95,336
2,58,79,0
2,53,87,0
2,63,81,0
2,60,87,0
2,56,95,0
2,67,99,380
2,63,83,0
2,60,81,0
2,65,95,112
2,62,87,0
2,58,95,0
2,60,95,404
2,56,83,0
2,53,87,0
2,63,87,92
2,60,95,0
2,56,99,0
2,65,103,268
2,62,99,0
2,58,95,0
2,82,83,116
2,79,77,0
2,75,95,0
2,70,79,0
2,82,95,108
2,79,81,0
2,75,103,0
2,70,91,0
2,82,91,832
2,79,83,0
2,77,73,0
2,75,107,0
2,70,83,0
2,82,107,292
2,79,95,0
2,75,103,0
2,70,83,0
2,84,83,68
2,80,103,0
2,75,107,0
2,72,87,0
2,84,83,168
2,80,103,0
2,75,107,0
2,72,95,0
2,80,83,88
2,77,95,0
2,73,95,0
2,68,91,0
2,80,91,164
2,77,107,0
2,73,99,0
2,68,99,0
2,80,91,800
2,77,99,0
2,73,95,0
2,68,79,0
2,80,87,272
2,77,112,0
2,73,107,0
2,68,91,0
2,84,87,172
2,80,83,0
2,75,81,0
2,72,87,0
2,68,91,0
2,84,79,200
2,80,95,0
2,75,99,0
2,72,91,0
2,68,87,0
2,79,81,188
2,75,99,0
2,72,99,0
2,67,95,0
2,79,79,196
2,75,99,0
2,72,91,0
2,67,81,0
2,79,81,784
2,75,103,0
2,72,103,0
2,67,103,0
2,65,69,0
2,79,87,284
2,75,99,0
2,72,99,0
2,67,83,0
2,79,81,136
2,75,107,0
2,72,95,0
2,67,95,0
2,77,99,204
2,74,83,0
2,70,87,0
2,65,99,0
2,77,103,124
2,74,83,0
2,70,107,0
2,65,103,0
2,80,83,460
2,77,95,0
2,73,91,0
2,68,83,0
2,65,99,0
2,82,107,12
2,79,81,0
2,75,83,0
2,70,81,0
2,67,95,0
2,82,99,48
2,79,73,0
2,75,103,0
2,70,87,0
2,67,99,0
2,82,79,836
2,79,71,0
2,75,95,0
2,70,91,0
2,67,99,0
2,82,87,292
2,79,75,0
2,75,99,0
2,70,95,0
2,67,91,0
2,84,83,28
2,80,103,0
2,75,91,0
2,72,87,0
2,68,81,0
2,84,79,220
2,80,87,0
2,75,91,0
2,72,99,0
2,68,87,0
2,80,87,148
2,77,95,0
2,73,99,0
2,68,87,0
2,65,99,0
2,80,95,120
2,77,107,0
2,73,103,0
2,68,91,0
2,65,91,0
2,80,87,780
2,77,107,0
2,73,99,0
2,68,91,0
2,65,99,0
2,80,91,216
2,77,107,0
2,73,107,0
2,68,81,0
2,65,99,0
2,84,77,236
2,80,95,0
2,75,83,0
2,72,91,0
2,68,87,0
2,84,81,232
2,80,87,0
2,75,91,0
2,72,91,0
2,68,83,0
2,79,77,168
2,75,83,0
2,72,87,0
2,67,83,0
2,79,81,212
2,75,107,0
2,72,91,0
2,67,83,0
2,79,77,808
2,75,99,0
2,72,95,0
2,67,87,0
2,79,75,488
2,75,95,0
2,72,83,0
2,67,87,0
2,79,87,200
2,75,103,0
2,72,91,0
2,67,81,0
2,77,99,268
2,74,79,0
2,70,87,0
2,65,81,0
2,77,99,24
2,74,71,0
2,70,95,0
2,65,103,0
2,80,81,476
2,77,103,0
2,73,99,0
2,68,95,0
2,65,107,0
2,67,81,32
2,63,95,0
2,60,95,0
2,65,91,100
2,62,91,0
2,58,95,0
2,67,87,256
2,63,91,0
2,60,91,0
2,65,99,100
2,62,95,0
2,58,91,0
2,67,95,300
2,63,99,0
2,60,87,0
2,65,91,100
2,62,91,0
2,58,91,0
2,62,95,800
2,58,81,0
2,53,87,0
2,63,81,80
2,60,95,0
2,56,99,0
2,67,95,164
2,63,91,0
2,60,99,0
2,65,99,48
2,62,99,0
2,58,99,0
2,62,95,552
2,58,81,0
2,53,99,0
2,63,83,20
2,60,95,0
2,56,95,0
2,67,95,36
2,63,107,0
2,60,79,0
2,65,99,76
2,62,91,0
2,58,87,0
2,62,99,480
2,58,77,0
2,53,103,0
2,63,83,100
2,60,91,0
2,56,95,0
2,67,91,308
2,63,107,0
2,60,99,0
2,65,99,68
2,62,95,0
2,58,81,0
2,60,91,296
2,56,95,0
2,53,95,0
2,63,87,104
2,60,87,0
2,56,99,0
2,65,87,84
2,62,95,0
2,58,99,0
2,82,103,44
2,79,79,0
2,75,95,0
2,70,83,0
2,82,99,36
2,79,63,0
2,75,83,0
2,70,95,0
2,82,79,796
2,79,79,0
2,75,87,0
2,70,83,0
2,82,99,264
2,79,77,0
2,75,103,0
2,70,87,0
2,84,81,96
2,80,95,0
2,75,87,0
2,72,99,0
2,84,83,232
2,80,87,0
2,75,87,0
2,72,107,0
2,80,87,0
2,77,95,0
2,73,91,0
2,68,87,0
2,80,87,172
2,77,95,0
2,73,91,0
2,68,95,0
2,80,81,808
2,77,103,0
2,73,95,0
2,68,83,0
2,80,83,268
2,77,107,0
2,73,107,0
2,68,83,0
2,84,79,132
2,80,91,0
2,75,83,0
2,72,95,0
2,84,83,212
2,80,81,0
2,75,99,0
2,72,91,0
2,79,79,120
2,75,83,0
2,72,87,0
2,67,99,0
2,79,75,212
2,75,95,0
2,72,95,0
2,67,83,0
2,79,73,776
2,75,91,0
2,72,91,0
2,67,103,0
2,79,95,276
2,75,107,0
2,72,91,0
2,67,81,0
2,79,87,172
2,75,103,0
2,72,87,0
2,67,95,0
2,77,95,144
2,74,81,0
2,70,83,0
2,65,103,0
2,77,99,40
2,74,87,0
2,70,103,0
2,65,91,0
2,80,91,464
2,77,99,0
2,73,91,0
2,68,83,0
2,82,91,148
2,79,77,0
2,75,79,0
2,70,81,0
2,82,87,208
2,79,69,0
2,75,87,0
2,70,79,0
2,82,79,672
2,79,75,0
2,75,95,0
2,70,83,0
2,82,91,272
2,79,81,0
2,75,99,0
2,70,79,0
2,84,87,68
2,80,95,0
2,75,91,0
2,72,99,0
2,84,83,236
2,80,91,0
2,75,87,0
2,72,95,0
2,80,83,64
2,77,95,0
2,73,87,0
2,68,83,0
2,80,87,244
2,77,99,0
2,73,99,0
2,68,99,0
2,80,83,808
2,77,91,0
2,73,95,0
2,68,83,0
2,80,87,280
2,77,103,0
2,73,107,0
2,68,81,0
2,84,81,164
2,80,83,0
2,75,91,0
2,72,99,0
2,68,91,0
2,84,79,220
2,80,81,0
2,75,79,0
2,72,91,0
2,68,83,0
2,79,79,212
2,75,87,0
2,72,81,0
2,67,91,0
2,79,73,200
2,75,103,0
2,72,91,0
2,67,87,0
2,79,83,804
2,75,103,0
2,72,87,0
2,67,87,0
2,79,87,276
2,75,103,0
2,72,91,0
2,67,83,0
2,79,79,116
2,75,103,0
2,72,95,0
2,67,91,0
2,77,87,260
2,74,81,0
2,70,87,0
2,65,95,0
2,77,99,36
2,74,83,0
2,70,103,0
2,65,95,0
2,80,83,468
2,77,95,0
2,73,95,0
2,68,81,0
2,81,99,22980
2,77,99,0
2,72,103,0
2,69,103,0
2,81,99,72
2,77,99,0
2,72,83,0
2,69,99,0
2,81,117,80
2,77,112,0
2,72,87,0
2,69,107,0
2,81,107,844
