track,note,velocity,time
0,35,55,1536
0,70,20,0
0,70,20,80
0,70,20,80
0,70,20,80
0,40,52,80
0,70,20,0
0,70,20,80
0,70,20,80
0,35,29,80
0,70,20,0
0,35,55,80
0,70,20,0
0,70,20,80
0,70,20,80
0,70,20,80
0,40,52,80
0,70,20,0
0,70,20,80
0,70,20,80
0,35,32,80
0,70,20,0
0,35,55,80
0,70,20,0
0,70,20,80
0,70,20,80
0,70,20,80
0,40,52,80
0,70,20,0
0,70,20,80
0,70,20,80
0,35,32,80
0,70,20,0
0,35,55,80
0,70,20,0
0,70,20,80
0,70,20,80
0,70,20,80
0,40,52,80
0,70,20,0
0,70,20,80
0,70,20,80
0,35,31,80
0,70,20,0
0,35,55,80
0,70,20,0
0,70,20,80
0,70,20,80
0,70,20,80
0,40,52,80
0,70,20,0
0,70,20,80
0,70,20,80
0,35,32,80
0,70,20,0
0,35,55,80
0,70,20,0
0,70,20,80
0,70,20,80
0,70,20,80
0,40,52,80
0,70,20,0
0,70,20,80
0,70,20,80
0,35,32,80
0,70,20,0
0,35,55,80
0,70,20,0
0,70,20,80
0,70,20,80
0,70,20,80
0,40,52,80
0,70,20,0
0,70,20,80
0,70,20,80
0,35,31,80
0,70,20,0
0,35,55,80
0,70,20,0
0,70,20,80
0,70,20,80
0,70,20,80
0,40,52,80
0,70,20,0
0,70,20,80
0,70,20,80
0,35,29,80
0,70,20,0
0,34,72,80
0,58,60,0
0,62,74,0
0,65,82,0
0,65,68,0
0,35,55,0
0,70,20,0
0,70,20,80
0,70,20,72
0,70,20,32
0,58,62,48
0,62,72,0
0,65,76,0
0,65,64,0
0,40,52,0
0,70,20,0
0,70,20,80
0,70,20,12
0,58,52,12
0,63,68,0
0,67,78,0
0,67,56,0
0,35,29,0
0,70,20,0
0,39,54,76
0,35,55,0
0,70,20,0
0,70,20,80
0,70,20,80
0,70,20,80
0,40,52,80
0,70,20,0
0,70,20,80
0,70,20,80
0,35,32,16
0,70,20,0
0,34,62,68
0,58,66,0
0,62,82,0
0,65,90,0
0,65,68,0
0,35,55,0
0,70,20,0
0,70,20,80
0,70,20,80
0,70,20,80
0,38,68,80
0,70,74,0
0,70,62,0
0,40,52,0
0,70,20,0
0,70,20,8
0,70,20,0
0,39,60,8
0,58,56,0
0,63,72,0
0,67,70,0
0,67,62,0
0,35,32,0
0,70,20,0
0,35,55,80
0,70,20,0
0,70,20,80
0,70,20,36
0,70,20,80
0,40,52,80
0,70,20,0
0,70,20,8
0,70,20,80
0,35,31,80
0,70,20,0
0,34,62,24
0,58,56,0
0,62,78,0
0,65,74,0
0,65,60,0
0,35,55,0
0,70,20,0
0,70,20,68
0,70,20,36
0,70,20,16
0,65,76,4
0,65,62,0
0,40,52,0
0,70,20,0
0,70,20,80
0,70,20,72
0,58,56,16
0,63,68,0
0,67,78,0
0,67,62,0
0,35,32,0
0,70,20,0
0,39,64,80
0,35,55,0
0,70,20,0
0,70,20,80
0,70,20,80
0,70,20,80
0,40,52,32
0,70,20,0
0,70,20,0
0,58,52,80
0,70,20,0
0,35,32,24
0,70,20,0
0,41,68,0
0,60,76,0
0,63,74,0
0,68,76,0
0,66,58,0
0,35,55,0
0,70,20,0
0,70,20,4
0,70,20,12
0,70,20,80
0,36,58,24
0,58,64,0
0,63,74,0
0,67,78,0
0,65,62,0
0,40,52,0
0,70,20,0
0,70,20,20
0,70,20,44
0,34,46,80
0,58,54,0
0,62,64,0
0,65,72,0
0,63,52,0
0,35,31,0
0,70,20,0
0,35,55,76
0,70,20,0
0,70,20,0
0,70,20,80
0,68,52,80
0,70,20,0
0,40,52,80
0,70,20,0
0,70,20,80
0,51,54,4
0,70,20,0
0,35,29,4
0,70,20,0
0,59,38,0
0,51,21,12
0,56,52,16
0,56,64,0
0,63,54,0
0,68,68,0
0,72,82,0
0,75,68,0
0,35,55,0
0,70,20,0
0,59,39,0
0,70,20,80
0,70,20,56
0,70,20,80
0,72,68,12
0,40,52,0
0,70,20,0
0,75,76,20
0,70,20,0
0,70,20,0
0,75,60,8
0,35,29,0
0,70,20,0
0,55,62,12
0,55,64,0
0,63,52,0
0,70,62,0
0,35,55,0
0,70,20,0
0,75,36,16
0,70,20,0
0,70,20,12
0,74,76,4
0,74,60,0
0,70,20,0
0,40,52,8
0,70,20,0
0,75,98,8
0,75,66,0
0,70,20,0
0,70,20,20
0,53,28,16
0,70,58,0
0,35,32,0
0,70,20,0
0,53,54,28
0,53,62,0
0,63,60,0
0,68,66,0
0,72,76,0
0,35,55,0
0,70,20,0
0,70,20,8
0,70,20,44
0,70,20,12
0,40,52,0
0,70,20,0
0,70,20,4
0,70,20,8
0,65,35,80
0,35,32,0
0,70,20,0
0,51,44,4
0,51,40,0
0,63,40,0
0,65,56,0
0,67,56,0
0,70,64,0
0,67,56,0
0,35,55,0
0,70,20,0
0,70,20,64
0,70,66,48
0,70,20,0
0,70,20,0
0,67,62,4
0,40,52,0
0,70,20,0
0,65,56,4
0,70,20,0
0,63,44,76
0,70,20,0
0,35,31,8
0,70,20,0
0,56,56,36
0,56,64,0
0,63,38,0
0,68,70,0
0,72,82,0
0,75,62,0
0,35,55,0
0,70,20,0
0,70,20,48
0,70,20,32
0,70,20,80
0,40,52,80
0,70,20,0
0,75,64,80
0,70,20,0
0,70,20,0
0,75,62,64
0,35,32,0
0,70,20,0
0,55,58,60
0,55,70,0
0,63,56,0
0,70,76,0
0,75,58,0
0,35,55,0
0,70,20,0
0,70,20,0
0,70,20,8
0,74,74,80
0,70,20,0
0,70,56,0
0,40,52,0
0,70,20,0
0,75,68,4
0,70,20,0
0,67,54,0
0,70,20,0
0,35,32,80
0,70,20,0
0,53,54,0
0,53,50,0
0,63,56,0
0,68,70,0
0,72,72,0
0,70,48,0
0,35,55,0
0,70,20,0
0,70,20,28
0,70,20,32
0,70,20,80
0,40,52,80
0,70,20,0
0,70,20,80
0,70,20,4
0,35,31,44
0,70,20,0
0,35,55,16
0,70,20,0
0,70,20,4
0,70,20,12
0,70,20,12
0,40,52,4
0,70,20,0
0,70,20,4
0,70,20,16
0,35,29,80
0,70,20,0
0,56,56,80
0,56,66,0
0,63,49,0
0,68,72,0
0,72,74,0
0,75,54,0
0,35,55,0
0,70,20,0
0,70,20,72
0,70,20,56
0,70,33,80
0,70,20,0
0,72,68,24
0,40,52,0
0,70,20,0
0,75,62,80
0,70,20,0
0,70,20,56
0,75,52,8
0,35,29,0
0,70,20,0
0,55,52,4
0,55,74,0
0,63,72,0
0,70,76,0
0,35,55,0
0,70,20,0
0,75,44,80
0,70,20,0
0,70,20,80
0,74,78,4
0,74,60,0
0,70,20,0
0,40,52,8
0,70,20,0
0,75,82,0
0,75,58,0
0,70,20,0
0,70,20,4
0,51,42,4
0,70,46,0
0,35,32,0
0,70,20,0
0,53,54,8
0,53,49,0
0,63,58,0
0,68,76,0
0,72,78,0
0,72,54,0
0,35,55,0
0,70,20,0
0,70,27,80
0,70,20,0
0,70,20,48
0,70,20,80
0,40,52,40
0,70,20,0
0,70,20,40
0,70,20,12
0,50,48,8
0,65,46,0
0,35,32,0
0,70,20,0
0,51,50,4
0,51,41,0
0,65,64,0
0,67,66,0
0,70,64,0
0,67,64,0
0,35,55,0
0,70,20,0
0,70,20,76
0,70,54,32
0,70,20,0
0,70,20,80
0,67,54,80
0,40,52,0
0,70,20,0
0,65,37,16
0,70,20,0
0,63,36,4
0,70,20,0
0,35,31,76
0,70,20,0
0,56,48,16
0,56,64,0
0,63,68,0
0,68,78,0
0,72,86,0
0,35,55,0
0,70,20,0
0,70,20,8
0,70,20,80
0,70,31,80
0,70,20,0
0,72,76,0
0,40,52,0
0,70,20,0
0,70,20,80
0,75,66,28
0,70,20,0
0,35,32,12
0,70,20,0
0,55,44,72
0,55,72,0
0,63,66,0
0,70,76,0
0,77,64,0
0,35,55,0
0,70,20,0
0,70,20,80
0,70,20,80
0,70,20,80
0,75,74,80
0,79,54,0
0,40,52,0
0,70,20,0
0,77,52,48
0,70,20,0
0,75,54,8
0,70,20,0
0,35,32,32
0,70,20,0
0,53,44,12
0,41,50,0
0,53,52,0
0,60,32,0
0,63,60,0
0,68,74,0
0,77,64,0
0,35,55,0
0,70,20,0
0,75,52,4
0,70,20,0
0,70,20,40
0,70,20,12
0,40,52,20
0,70,20,0
0,70,20,4
0,70,20,12
0,35,31,64
0,70,20,0
0,35,55,4
0,70,20,0
0,70,20,12
0,70,20,44
0,70,20,80
0,65,50,8
0,40,52,0
0,70,20,0
0,70,20,4
0,65,56,8
0,46,45,4
0,70,20,0
0,63,58,12
0,35,29,16
0,70,20,0
0,65,52,32
0,70,56,0
0,62,38,0
0,34,52,0
0,58,66,0
0,62,76,0
0,65,78,0
0,65,62,0
0,65,64,0
0,70,48,0
0,65,60,0
0,62,46,0
0,42,35,0
0,35,55,0
0,70,20,0
0,70,20,80
0,70,20,8
0,70,20,0
0,58,54,0
0,62,60,0
0,65,52,0
0,65,54,0
0,65,66,0
0,62,60,0
0,70,56,0
0,65,31,0
0,40,52,0
0,70,20,0
0,70,20,80
0,70,20,72
0,67,46,4
0,63,56,0
0,58,56,0
0,63,66,0
0,67,78,0
0,67,64,0
0,67,66,0
0,67,56,0
0,63,62,0
0,35,29,0
0,70,20,0
0,39,58,80
0,35,55,0
0,70,20,0
0,70,20,44
0,70,20,80
0,70,20,80
0,70,72,28
0,40,52,0
0,70,20,0
0,70,50,44
0,70,20,0
0,70,64,20
0,70,20,0
0,35,32,0
0,70,20,0
0,62,48,32
0,70,50,0
0,65,62,0
0,34,56,0
0,58,66,0
0,62,74,0
0,65,76,0
0,65,68,0
0,65,66,0
0,65,66,0
0,62,46,0
0,70,52,0
0,35,55,0
0,70,20,0
0,70,20,4
0,70,20,80
0,70,20,0
0,38,76,24
0,70,74,0
0,70,56,0
0,70,60,0
0,40,52,0
0,70,20,0
0,70,20,80
0,70,20,80
0,39,54,0
0,58,54,0
0,63,66,0
0,67,74,0
0,67,62,0
0,67,64,0
0,63,64,0
0,67,64,0
0,35,32,0
0,70,20,0
0,70,52,8
0,67,60,0
0,63,62,0
0,35,55,8
0,70,20,0
0,70,20,8
0,70,20,80
0,70,20,24
0,40,52,4
0,70,20,0
0,70,20,4
0,67,66,12
0,70,20,0
0,65,54,0
0,46,25,0
0,35,31,0
0,70,20,0
0,62,42,0
0,65,66,0
0,34,56,4
0,60,54,0
0,62,74,0
0,65,70,0
0,65,54,0
0,65,68,0
0,65,66,0
0,62,62,0
0,70,58,0
0,35,55,0
0,70,20,0
0,70,20,80
0,70,20,4
0,70,20,52
0,58,56,0
0,62,72,0
0,65,68,0
0,65,62,0
0,65,66,0
0,65,60,0
0,70,58,0
0,62,62,0
0,40,52,0
0,70,20,0
0,70,20,80
0,70,20,20
0,58,62,0
0,63,74,0
0,67,86,0
0,67,66,0
0,67,68,0
0,67,56,0
0,63,60,0
0,35,32,0
0,70,20,0
0,67,54,16
0,63,54,0
0,39,54,12
0,35,55,0
0,70,20,0
0,70,20,24
0,70,20,60
0,58,60,16
0,70,20,0
0,67,72,20
0,40,52,0
0,70,20,0
0,70,20,80
0,65,66,16
0,58,40,0
0,70,20,0
0,35,32,0
0,70,20,0
0,68,60,0
0,60,56,0
0,41,68,48
0,53,70,0
0,60,64,0
0,63,74,0
0,68,76,0
0,63,62,0
0,66,54,0
0,60,60,0
0,63,72,0
0,68,64,0
0,35,55,0
0,70,20,0
0,70,20,72
0,60,46,44
0,70,20,0
0,67,62,4
0,70,20,0
0,67,62,32
0,58,62,0
0,36,54,0
0,58,60,0
0,63,78,0
0,67,86,0
0,65,64,0
0,67,72,0
0,63,68,0
0,58,64,0
0,40,52,0
0,70,20,0
0,70,20,80
0,65,60,0
0,70,20,0
0,34,50,0
0,58,62,0
0,62,74,0
0,65,74,0
0,63,54,0
0,62,68,0
0,65,76,0
0,58,40,0
0,35,31,0
0,70,20,0
0,62,54,32
0,65,66,0
0,35,55,12
0,70,20,0
0,70,20,16
0,70,20,20
0,70,20,48
0,70,54,0
0,40,52,0
0,70,20,0
0,70,74,56
0,70,20,0
0,70,54,4
0,68,66,0
0,46,19,0
0,70,20,0
0,70,56,0
0,46,19,0
0,35,29,0
0,70,20,0
0,70,58,20
0,34,58,4
0,58,68,0
0,62,76,0
0,65,76,0
0,65,46,0
0,63,58,0
0,65,66,0
0,70,62,0
0,62,64,0
0,42,25,0
0,35,55,0
0,70,20,0
0,70,20,80
0,70,20,80
0,70,20,40
0,58,72,0
0,62,76,0
0,65,76,0
0,65,66,0
0,63,56,0
0,65,72,0
0,70,56,0
0,62,62,0
0,40,52,0
0,70,20,0
0,70,20,80
0,70,20,16
0,58,58,0
0,63,76,0
0,67,70,0
0,67,66,0
0,65,62,0
0,67,66,0
0,63,58,0
0,70,64,0
0,35,29,0
0,70,20,0
0,67,52,32
0,63,52,0
0,39,56,48
0,35,55,0
0,70,20,0
0,70,20,76
0,70,20,80
0,70,20,80
0,70,66,80
0,40,52,0
0,70,20,0
0,70,50,52
0,70,20,0
0,70,76,12
0,70,20,0
0,35,32,0
0,70,20,0
0,65,56,8
0,62,52,0
0,34,54,4
0,58,64,0
0,62,76,0
0,65,74,0
0,65,62,0
0,65,64,0
0,62,64,0
0,65,62,0
0,70,56,0
0,35,55,0
0,70,20,0
0,70,20,60
0,70,20,80
0,70,20,80
0,38,60,0
0,70,68,0
0,70,58,0
0,70,62,0
0,65,60,0
0,70,44,0
0,62,54,0
0,40,52,0
0,70,20,0
0,70,20,8
0,70,20,76
0,39,52,0
0,58,54,0
0,63,74,0
0,67,76,0
0,67,64,0
0,67,58,0
0,67,62,0
0,63,64,0
0,70,56,0
0,35,32,0
0,70,20,0
0,67,54,16
0,63,56,0
0,35,55,0
0,70,20,0
0,70,20,80
0,70,20,72
0,70,20,80
0,40,52,80
0,70,20,0
0,70,20,80
0,67,64,52
0,70,20,0
0,65,56,0
0,46,23,0
0,35,31,0
0,70,20,0
0,62,52,0
0,65,52,0
0,34,52,36
0,58,54,0
0,62,78,0
0,65,76,0
0,65,66,0
0,65,56,0
0,62,54,0
0,65,66,0
0,70,52,0
0,35,55,0
0,70,20,0
0,70,20,32
0,70,20,0
0,70,20,0
0,58,62,0
0,62,74,0
0,65,78,0
0,65,62,0
0,65,66,0
0,65,66,0
0,62,64,0
0,70,56,0
0,40,52,0
0,70,20,0
0,70,20,80
0,70,20,56
0,58,48,0
0,63,74,0
0,67,76,0
0,67,64,0
0,67,56,0
0,67,68,0
0,63,66,0
0,70,54,0
0,35,32,0
0,70,20,0
0,67,38,20
0,63,50,0
0,39,52,16
0,35,55,0
0,70,20,0
0,70,20,80
0,70,20,80
0,58,46,24
0,70,20,0
0,67,68,44
0,40,52,0
0,70,20,0
0,70,20,24
0,65,66,0
0,58,52,0
0,70,20,0
0,35,32,0
0,70,20,0
0,68,64,24
0,63,56,0
0,60,58,0
0,41,66,48
0,53,74,0
0,60,72,0
0,63,68,0
0,68,78,0
0,63,60,0
0,66,64,0
0,60,64,0
0,63,58,0
0,68,60,0
0,35,55,0
0,70,20,0
0,70,20,8
0,60,28,12
0,70,20,0
0,67,66,12
0,70,20,0
0,67,58,8
0,58,56,0
0,36,54,0
0,58,60,0
0,63,68,0
0,67,76,0
0,65,66,0
0,58,66,0
0,63,68,0
0,67,66,0
0,40,52,0
0,70,20,0
0,70,20,0
0,65,48,4
0,70,20,0
0,34,46,0
0,58,52,0
0,62,66,0
0,65,74,0
0,63,39,0
0,62,80,0
0,65,76,0
0,58,56,0
0,35,31,0
0,70,20,0
0,62,44,32
0,65,58,0
0,35,55,40
0,70,20,0
0,70,20,36
0,70,20,8
0,68,52,8
0,70,20,0
0,40,52,8
0,70,20,0
0,54,92,0
0,70,20,20
0,51,50,52
0,70,20,0
0,35,29,0
0,70,20,0
0,56,58,8
0,56,68,0
0,63,43,0
0,68,68,0
0,72,74,0
0,75,70,0
