track,note,velocity,time
1,34,94,614
1,39,102,12
1,34,97,16
1,38,99,26
1,39,99,10
1,34,99,16
1,39,99,40
1,34,101,16
1,38,95,8
1,39,101,6
1,44,46,16
1,46,54,12
1,41,49,16
1,39,51,26
1,44,46,16
1,46,54,12
1,41,49,16
1,44,46,24
1,46,54,12
1,41,49,16
1,34,51,26
1,39,60,6
1,44,46,16
1,46,54,12
1,41,74,16
1,34,97,2
1,39,105,12
1,34,100,16
1,38,102,26
1,39,102,10
1,34,102,16
1,39,102,40
1,41,97,16
1,34,105,12
1,34,97,16
1,39,105,12
1,34,100,16
1,38,102,26
1,39,102,10
1,34,102,16
1,39,102,40
1,41,97,16
1,34,105,12
1,44,62,0
1,46,70,12
1,41,65,16
1,39,67,26
1,41,66,16
1,43,74,10
1,44,62,28
1,46,70,12
1,41,65,16
1,44,62,24
1,46,70,12
1,41,65,16
1,34,67,26
1,36,67,6
1,39,76,28
1,41,67,16
1,43,67,6
1,44,62,28
1,46,70,12
1,41,90,16
1,34,97,2
1,39,105,12
1,34,100,16
1,38,102,26
1,39,102,10
1,34,102,16
1,39,102,40
1,41,97,16
1,34,105,12
1,34,97,16
1,39,105,12
1,34,100,16
1,38,102,26
1,39,102,10
1,34,102,16
1,39,102,40
1,41,97,16
1,34,105,12
1,34,98,16
1,39,106,12
1,34,101,16
1,38,103,26
1,39,103,10
1,34,103,16
1,39,103,40
1,41,98,16
1,44,80,34
1,48,96,2
1,46,106,6
1,36,109,0
1,36,97,12
1,37,98,28
1,44,109,8
1,37,96,26
1,36,104,30
1,36,100,26
1,37,79,52
1,41,93,12
1,39,94,12
1,46,94,4
1,51,86,12
1,39,76,12
1,36,109,12
1,36,96,28
1,36,85,48
1,37,97,6
1,34,91,34
1,36,104,24
1,36,100,26
1,37,89,48
1,39,109,12
1,46,94,4
1,51,86,28
1,34,100,16
1,39,108,12
1,34,103,16
1,38,105,26
1,39,105,10
1,34,105,16
1,39,105,40
1,41,100,16
1,34,108,12
1,44,79,0
1,46,87,12
1,39,80,16
1,41,82,24
1,41,80,24
1,39,84,26
1,43,82,16
1,39,82,24
1,44,81,6
1,44,75,12
1,46,87,6
1,41,82,16
1,43,82,24
1,39,82,14
1,44,79,6
1,46,87,12
1,41,82,16
1,36,84,26
1,39,93,28
1,43,84,16
1,44,79,6
1,46,87,12
1,41,107,16
1,34,103,2
1,39,111,12
1,34,106,16
1,38,108,26
1,39,108,10
1,34,108,16
1,39,108,40
1,41,103,16
1,34,111,12
1,34,103,16
1,39,111,12
1,34,106,16
1,38,108,26
1,39,108,10
1,34,108,16
1,39,108,40
1,41,103,16
1,34,111,12
1,34,104,16
1,39,112,12
1,34,107,16
1,38,109,26
1,39,109,10
1,34,109,16
1,39,109,40
1,41,104,16
1,34,112,12
1,34,104,16
1,39,112,12
1,34,107,16
1,38,109,26
1,39,109,10
1,34,109,16
1,39,109,40
1,41,104,16
1,34,112,12
1,39,104,16
2,46,88,578
2,53,85,2
2,58,89,2
2,62,93,2
2,65,96,2
2,51,84,14
2,58,92,4
2,63,98,4
2,67,87,2
2,46,84,18
2,58,92,2
2,62,82,2
2,65,96,2
2,70,95,380
2,62,70,164
2,67,92,0
2,51,88,4
2,58,89,0
2,63,88,0
2,51,65,18
2,46,88,6
2,53,85,2
2,58,89,2
2,62,93,2
2,65,96,2
2,53,73,34
2,58,79,2
2,62,85,2
2,65,91,2
2,51,84,18
2,58,92,4
2,63,98,4
2,67,87,2
2,46,84,18
2,58,92,2
2,62,82,2
2,65,96,2
2,70,95,380
2,62,70,164
2,67,91,0
2,51,86,4
2,58,88,0
2,63,88,0
2,56,77,38
2,68,94,2
2,72,93,2
2,75,91,2
2,58,74,44
2,67,90,2
2,70,91,2
2,75,93,2
2,70,83,50
2,74,89,0
2,70,79,40
2,75,86,4
2,53,72,26
2,63,73,0
2,65,79,0
2,68,81,14
2,72,91,4
2,51,78,40
2,63,84,6
2,67,84,4
2,70,91,4
2,56,77,36
2,68,94,2
2,72,93,2
2,75,91,2
2,58,74,44
2,67,90,2
2,70,91,2
2,75,87,2
2,74,79,6
2,53,71,20
2,63,75,2
2,65,77,0
2,68,82,2
2,72,88,2
2,56,77,44
2,68,94,2
2,72,93,2
2,75,91,2
2,58,74,44
2,67,90,2
2,70,91,2
2,75,93,2
2,70,83,50
2,74,89,0
2,70,79,40
2,75,86,4
2,53,72,26
2,63,73,0
2,65,79,0
2,68,81,14
2,72,91,4
2,51,78,40
2,63,84,6
2,67,84,4
2,70,91,4
2,67,66,6
2,65,73,8
2,56,77,28
2,63,75,2
2,68,94,0
2,72,93,2
2,75,91,2
2,72,74,6
2,75,77,6
2,58,74,6
2,63,73,2
2,67,90,0
2,70,91,2
2,75,87,2
2,74,79,6
2,53,71,20
2,63,75,2
2,65,94,0
2,68,78,2
2,72,82,2
2,46,91,44
2,53,88,2
2,58,92,2
2,62,96,2
2,65,99,2
2,53,76,34
2,58,82,2
2,62,88,2
2,65,94,2
2,51,87,18
2,58,95,4
2,63,101,4
2,67,90,2
2,46,87,18
2,58,95,2
2,62,85,2
2,65,93,2
2,65,81,20
2,70,98,0
2,62,73,176
2,67,95,0
2,51,91,4
2,58,92,0
2,63,91,0
2,51,68,18
2,46,91,6
2,53,88,2
2,58,92,2
2,62,96,2
2,65,99,2
2,53,76,34
2,58,82,2
2,62,88,2
2,65,94,2
2,51,87,18
2,58,95,4
2,63,101,4
2,67,90,2
2,41,87,18
2,56,95,2
2,60,82,2
2,63,86,2
2,68,96,0
2,63,74,10
2,67,89,0
2,65,94,0
2,46,89,4
2,58,91,0
2,62,91,0
2,70,102,204
2,46,91,38
2,53,88,2
2,58,92,0
2,62,96,2
2,65,99,2
2,51,87,14
2,58,95,4
2,63,101,4
2,67,90,2
2,46,87,18
2,58,95,2
2,62,85,2
2,65,99,2
2,70,98,380
2,62,73,164
2,67,95,0
2,51,91,4
2,58,92,0
2,63,91,0
2,51,68,18
2,46,91,6
2,53,88,2
2,58,92,2
2,62,96,2
2,65,99,2
2,53,76,34
2,58,82,2
2,62,88,2
2,65,94,2
2,51,87,18
2,58,95,4
2,63,101,4
2,67,90,2
2,41,87,18
2,56,95,2
2,60,82,2
2,63,86,2
2,68,96,0
2,63,74,10
2,67,89,0
2,65,94,0
2,46,89,4
2,58,91,0
2,62,91,0
2,70,102,204
2,56,79,38
2,63,85,2
2,68,96,0
2,72,95,0
2,75,93,2
2,58,76,44
2,63,83,2
2,67,92,0
2,70,93,2
2,75,95,2
2,70,85,50
2,74,91,0
2,70,81,40
2,75,88,4
2,53,74,26
2,63,75,0
2,65,81,0
2,68,83,14
2,72,93,4
2,51,80,40
2,63,86,6
2,67,86,4
2,70,93,4
2,67,83,18
2,63,61,6
2,56,79,6
2,63,85,2
2,68,96,0
2,72,95,2
2,75,93,2
2,58,76,44
2,63,81,2
2,67,92,0
2,70,93,2
2,75,89,2
2,74,81,6
2,53,73,20
2,63,77,2
2,65,79,0
2,68,84,2
2,72,90,2
2,63,80,26
2,68,95,26
2,72,102,26
2,56,79,12
2,63,78,2
2,68,96,0
2,72,95,2
2,75,93,2
2,58,76,44
2,63,78,2
2,67,92,0
2,70,93,2
2,75,95,2
2,70,85,50
2,74,91,0
2,70,81,40
2,75,88,4
2,53,74,26
2,63,75,0
2,65,81,0
2,68,83,14
2,72,93,4
2,51,80,40
2,63,86,6
2,67,86,4
2,70,93,4
2,62,69,4
2,65,78,0
2,58,66,70
2,63,80,0
2,56,79,28
2,63,77,2
2,68,96,0
2,72,95,2
2,75,93,2
2,72,76,6
2,75,79,6
2,58,76,6
2,63,75,2
2,67,92,0
2,70,93,2
2,75,89,2
2,74,81,6
2,53,73,20
2,63,77,2
2,65,96,0
2,68,80,2
2,72,84,2
2,67,81,470
2,68,88,0
2,75,97,104
2,46,91,36
2,53,88,2
2,58,92,2
2,62,96,2
2,65,99,2
2,53,76,34
2,58,82,2
2,62,88,2
2,65,94,2
2,51,87,18
2,58,95,4
2,63,101,4
2,67,90,2
2,46,87,18
2,58,95,2
2,62,85,2
2,65,93,2
2,65,81,20
2,70,98,0
2,62,73,176
2,67,95,0
2,51,91,4
2,58,92,0
2,63,91,0
2,51,68,18
2,46,91,6
2,53,88,2
2,58,92,2
2,62,96,2
2,65,99,2
2,53,76,34
2,58,82,2
2,62,88,2
2,65,94,2
2,51,87,18
2,58,95,4
2,63,101,4
2,67,90,2
2,41,87,18
2,56,95,2
2,60,82,2
2,63,86,2
2,68,96,0
2,63,74,10
2,67,89,0
2,65,94,0
2,46,89,4
2,58,91,0
2,62,91,0
2,70,102,204
2,46,91,38
2,58,92,0
2,62,96,2
2,65,99,2
2,51,87,14
2,58,95,4
2,63,101,4
2,67,90,2
2,46,87,18
2,58,95,2
2,62,85,2
2,65,99,2
2,70,98,380
2,62,73,164
2,67,95,0
2,51,91,4
2,58,92,0
2,63,91,0
2,51,68,18
2,46,91,6
2,53,88,2
2,58,92,2
2,62,96,2
2,65,99,2
2,53,76,34
2,58,82,2
2,62,88,2
2,65,94,2
2,51,87,18
2,58,95,4
2,63,101,4
2,67,90,2
2,41,87,18
2,56,95,2
2,60,82,2
2,63,86,2
2,68,96,0
2,63,74,10
2,67,89,0
2,65,94,0
2,46,89,4
2,58,91,0
2,62,91,0
2,70,109,204
2,65,78,110
2,70,110,8
2,46,96,18
2,58,97,0
2,62,101,2
2,65,104,2
2,74,104,0
2,58,87,36
2,62,93,2
2,65,99,2
2,74,102,0
2,51,92,18
2,58,100,4
2,63,106,4
2,67,95,2
2,75,95,0
2,75,100,20
2,75,95,8
2,75,89,6
2,75,98,26
2,75,93,6
2,75,79,42
2,46,92,0
2,58,100,2
2,62,90,2
2,65,98,2
2,74,98,0
2,65,86,20
2,70,103,0
2,77,103,0
2,62,78,104
2,67,100,0
2,51,96,4
2,58,97,0
2,63,96,0
2,75,95,4
2,75,100,20
2,75,95,8
2,75,89,6
2,75,96,26
2,75,93,6
2,75,79,42
2,51,73,18
2,46,96,2
2,58,97,4
2,62,101,2
2,65,104,2
2,74,104,0
2,58,87,36
2,62,93,2
2,65,99,2
2,74,102,0
2,51,92,18
2,58,100,4
2,63,106,4
2,67,95,2
2,75,95,0
2,75,100,20
2,75,95,8
2,75,89,6
2,75,96,26
2,75,92,6
2,75,84,42
2,41,92,0
2,60,87,4
2,63,91,2
2,68,101,0
2,80,92,0
2,63,79,10
2,67,100,0
2,79,95,0
2,65,99,8
2,77,99,0
2,46,94,4
2,58,96,0
2,62,96,0
2,70,106,204
2,48,78,18
2,63,95,2
2,67,94,2
2,58,80,2
2,60,80,0
2,63,85,30
2,67,85,0
2,49,81,50
2,63,89,2
2,67,90,2
2,70,95,2
2,48,78,42
2,63,95,2
2,67,94,2
2,58,80,2
2,60,80,0
2,63,85,30
2,67,85,0
2,51,81,50
2,61,86,2
2,65,88,2
2,68,96,2
2,48,78,42
2,63,95,2
2,67,94,2
2,58,80,2
2,60,80,0
2,63,74,30
2,67,75,0
2,49,81,50
2,63,88,2
2,67,93,2
2,70,95,2
2,48,78,42
2,63,95,2
2,67,94,2
2,58,80,2
2,60,80,0
2,63,77,30
2,67,85,0
2,51,83,50
2,61,89,2
2,65,94,2
2,68,96,2
2,75,107,768
2,46,94,42
2,53,91,2
2,58,95,2
2,62,99,2
2,65,102,2
2,53,79,34
2,58,85,2
2,62,91,2
2,65,97,2
2,51,90,18
2,58,98,4
2,63,104,4
2,67,93,2
2,67,103,24
2,46,90,18
2,58,98,2
2,62,88,2
2,65,102,2
2,70,101,380
2,62,76,164
2,67,98,0
2,51,94,4
2,58,95,0
2,63,94,0
2,67,103,44
2,51,71,18
2,46,94,6
2,53,91,2
2,58,95,2
2,62,99,2
2,65,102,2
2,53,79,34
2,58,85,2
2,62,91,2
2,65,97,2
2,51,90,18
2,58,98,4
2,63,104,4
2,67,93,2
2,63,88,22
2,67,93,2
2,41,90,18
2,56,98,2
2,60,85,2
2,63,89,2
2,68,99,0
2,63,77,10
2,67,92,0
2,65,97,0
2,46,92,4
2,58,94,0
2,62,94,0
2,70,112,204
2,65,81,110
2,70,113,8
2,56,90,18
2,63,96,2
2,68,107,0
2,72,106,0
2,58,87,46
2,63,94,2
2,67,103,0
2,70,104,2
2,70,96,52
2,74,106,0
2,70,92,40
2,75,104,4
2,63,83,24
2,53,85,6
2,63,86,0
2,65,92,0
2,68,94,14
2,72,104,4
2,51,91,40
2,63,97,6
2,67,97,4
2,70,104,4
2,67,94,18
2,63,72,6
2,56,90,6
2,63,96,2
2,68,107,0
2,72,106,2
2,58,87,46
2,63,92,2
2,67,103,0
2,70,104,2
2,75,100,2
2,74,92,6
2,53,84,20
2,63,88,2
2,65,90,0
2,68,95,2
2,72,104,2
2,65,90,48
2,68,106,2
2,56,90,34
2,63,89,2
2,68,107,0
2,72,106,2
2,58,87,46
2,63,89,2
2,67,103,0
2,70,104,2
2,70,96,52
2,74,102,0
2,70,92,40
2,75,99,4
2,53,85,26
2,63,86,0
2,65,92,0
2,68,94,14
2,72,104,4
2,51,91,40
2,63,97,6
2,67,97,4
2,70,104,4
2,62,80,4
2,65,89,0
2,58,77,70
2,63,91,0
2,56,90,28
2,63,88,2
2,68,107,0
2,72,106,2
2,72,87,6
2,75,90,6
2,58,87,6
2,63,86,2
2,67,103,0
2,70,104,2
2,75,100,2
2,74,92,6
2,53,84,20
2,63,88,2
2,65,107,0
2,68,91,2
2,72,95,2
2,67,102,470
2,68,109,0
2,75,115,104
2,46,97,36
2,53,94,2
2,58,98,2
2,62,102,2
2,65,105,2
2,53,82,34
2,58,88,2
2,62,94,2
2,65,100,2
2,51,93,18
2,58,101,4
2,63,107,4
2,67,96,2
2,46,93,18
2,58,101,2
2,62,91,2
2,65,99,2
2,65,87,20
2,70,104,0
2,62,79,176
2,67,101,0
2,51,97,4
2,58,98,0
2,63,97,0
2,51,74,18
2,46,97,6
2,53,94,2
2,58,98,2
2,62,102,2
2,65,105,2
2,53,82,34
2,58,88,2
2,62,94,2
2,65,100,2
2,51,93,18
2,58,101,4
2,63,107,4
2,67,96,2
2,41,93,18
2,56,101,2
2,60,88,2
2,63,92,2
2,68,102,0
2,63,80,10
2,67,95,0
2,65,100,0
2,46,95,4
2,58,97,0
2,62,97,0
2,77,109,206
2,70,91,88
2,65,88,20
2,70,105,86
2,46,97,32
2,58,98,4
2,62,102,2
2,65,105,2
2,51,93,14
2,58,101,4
2,63,107,4
2,67,96,2
2,75,106,188
2,70,99,6
2,70,83,16
2,75,101,16
2,75,86,16
2,70,99,6
2,70,87,16
2,46,93,18
2,58,101,2
2,62,91,2
2,65,105,2
2,70,104,370
2,62,79,164
2,67,101,0
2,51,97,4
2,58,98,0
2,63,97,0
2,75,103,192
2,70,98,6
2,70,83,16
2,75,104,14
2,75,90,16
2,70,93,6
2,51,74,16
2,70,82,0
2,46,97,6
2,53,94,2
2,58,98,2
2,62,102,2
2,65,105,2
2,53,82,34
2,58,88,2
2,62,94,2
2,65,100,2
2,51,93,18
2,58,101,4
2,63,107,4
2,67,96,2
2,75,106,188
2,70,103,6
2,70,90,16
2,75,104,6
2,75,89,16
2,70,89,6
2,70,106,16
2,41,93,18
2,56,101,2
2,60,88,0
2,63,92,2
2,68,102,0
2,63,80,10
2,67,95,0
2,65,100,0
2,46,95,4
2,58,97,0
2,62,97,0
2,77,103,192
2,70,101,6
2,70,84,16
2,82,112,16
2,82,101,16
2,82,90,16
2,82,79,16
2,46,98,16
2,53,95,2
2,58,99,2
2,62,103,2
2,65,106,2
2,53,83,34
2,58,89,2
2,62,95,2
2,65,101,2
2,51,94,18
2,58,102,4
2,63,108,4
2,67,97,2
2,75,107,188
2,70,100,6
2,70,84,16
2,75,102,16
2,75,87,16
2,70,100,6
2,70,88,16
2,46,94,18
2,58,102,2
2,62,92,2
2,65,100,2
2,65,88,20
2,70,105,0
2,62,80,176
2,67,102,0
