track,note,velocity,time
2,39,91,13922
2,44,79,14
2,43,81,23
2,41,84,6
2,39,91,24
2,34,89,25
2,39,89,24
2,34,89,31
2,32,89,12
2,34,89,21
2,39,97,25
2,44,89,19
2,43,76,22
2,41,88,17
2,39,83,19
2,34,91,16
2,39,91,36
2,34,98,19
2,32,84,17
2,34,82,18
2,39,85,12
2,41,81,23
2,46,81,7
2,39,81,9
2,46,67,11
2,51,73,19
2,48,50,10
2,53,66,11
2,46,75,14
2,41,74,14
2,46,76,1
2,39,84,14
2,53,68,18
2,46,78,11
2,51,81,21
2,51,70,13
2,46,67,11
2,46,65,10
2,41,81,14
2,46,74,30
2,46,73,22
2,46,62,52
2,53,66,4
2,41,81,9
2,43,83,14
2,44,83,8
2,41,83,47
2,43,83,7
2,44,83,10
2,41,83,17
2,43,83,24
2,44,71,2
2,46,75,21
2,55,64,14
2,48,75,4
2,44,83,7
2,46,83,3
2,39,85,10
2,44,89,11
2,43,83,18
2,41,87,10
2,39,85,41
2,34,89,22
2,39,83,33
2,39,56,16
2,32,89,56
2,32,80,37
2,34,89,2
2,39,89,24
2,44,91,18
2,43,90,20
2,41,91,14
2,39,85,30
2,34,89,21
2,39,87,19
2,39,58,13
2,32,88,69
2,32,68,15
2,34,83,9
2,39,74,16
2,41,76,33
2,46,79,32
2,39,80,15
2,39,83,7
2,46,75,8
2,41,75,11
2,46,83,16
2,60,66,22
2,62,66,7
2,58,66,12
2,58,66,15
2,39,76,21
2,41,76,28
2,53,46,27
2,46,80,14
2,39,84,35
2,46,69,17
2,41,76,19
2,46,78,23
2,41,81,22
2,43,83,14
2,44,83,8
2,51,85,11
2,41,83,14
2,43,83,7
2,44,83,10
2,51,78,4
2,58,69,34
2,56,66,0
2,41,83,19
2,43,83,24
2,44,71,2
2,51,63,380
2,46,75,15
2,55,64,14
2,48,75,10
2,44,83,13
2,46,83,19
2,39,85,10
2,44,89,11
2,43,83,18
2,41,87,10
2,39,85,41
2,34,89,22
2,39,83,33
2,39,56,16
2,32,89,56
2,34,89,22
2,39,89,24
2,44,91,18
2,43,90,20
2,41,91,14
2,39,85,30
2,34,89,21
2,39,87,19
2,39,58,13
2,32,88,69
2,32,68,15
2,34,83,9
2,46,81,20
2,46,66,52
2,41,62,4
2,36,81,25
2,41,78,25
2,46,81,46
2,46,74,16
2,41,74,5
2,36,78,8
2,41,73,39
2,46,81,23
2,46,75,36
2,41,75,7
2,36,82,8
2,41,75,33
2,46,83,21
2,46,75,26
2,41,75,9
2,36,58,2
2,32,77,92
2,39,77,3
2,46,80,10
2,44,75,0
2,39,85,18
2,44,89,11
2,43,83,18
2,41,87,10
2,39,85,41
2,34,89,22
2,39,83,33
2,46,75,16
2,44,89,3
2,46,72,22
2,39,89,24
2,44,91,18
2,43,90,20
2,41,91,14
2,39,85,30
2,46,75,12
2,34,89,18
2,39,87,19
2,34,82,13
2,32,88,6
2,32,68,15
2,34,83,9
2,39,83,18
2,41,86,12
2,46,79,12
2,51,79,9
2,46,75,26
2,51,83,12
2,51,79,16
2,46,75,13
2,53,79,15
2,46,79,21
2,48,79,21
2,50,81,11
2,46,81,20
2,51,71,23
2,39,72,18
2,41,92,31
2,46,89,28
2,51,78,11
2,46,71,15
2,51,74,3
2,46,76,9
2,46,75,2
2,46,74,3
2,48,74,32
2,48,70,44
2,48,75,43
2,50,77,2
2,46,76,3
2,41,81,15
2,43,83,14
2,44,83,8
2,41,83,47
2,43,83,7
2,44,83,10
2,58,63,5
2,60,49,0
2,56,74,11
2,41,83,11
2,43,83,24
2,44,71,2
2,46,75,21
2,55,64,14
2,48,75,4
2,44,83,7
2,46,83,3
2,39,85,10
2,44,89,11
2,43,83,18
2,41,87,10
2,39,85,41
2,34,89,22
2,39,83,33
2,39,56,16
2,44,85,56
2,44,74,7
2,44,74,37
2,46,84,5
2,39,89,6
2,44,91,18
2,43,90,20
2,41,91,14
2,39,85,30
2,34,89,21
2,39,87,19
2,39,58,13
2,32,88,69
2,32,68,15
2,34,83,9
2,39,85,18
2,44,89,11
2,43,83,18
2,41,87,10
2,39,85,41
2,34,89,22
2,39,83,33
2,46,75,16
2,44,89,3
2,46,72,22
2,51,89,24
2,56,91,18
2,55,90,20
2,53,91,14
2,51,85,30
2,46,89,11
2,51,87,19
2,46,82,13
2,44,88,6
2,44,68,15
2,46,83,9
2,39,85,18
2,44,89,11
2,43,83,18
2,41,87,10
2,39,85,41
2,34,89,22
2,39,83,33
2,46,75,16
2,44,89,3
2,44,72,3
2,46,72,8
2,51,89,24
2,56,91,18
2,55,90,20
2,53,91,14
2,51,85,30
2,46,89,11
2,51,87,19
2,46,82,13
2,44,88,5
2,44,68,15
2,46,83,9
2,51,89,17
2,56,91,18
2,55,90,20
2,53,91,6
2,58,74,0
2,51,85,5
2,46,89,11
2,51,87,19
2,46,82,1
2,44,88,6
2,44,68,15
2,46,83,9
3,60,93,240
3,67,83,0
3,74,102,0
3,69,93,378
3,55,79,3
3,62,91,0
3,53,87,334
3,60,73,1
3,67,95,3
3,55,73,336
3,62,91,1
3,48,84,1
3,43,73,354
3,50,60,1
3,55,73,5
3,57,82,10
3,59,64,81
3,55,48,8
3,62,56,129
3,55,40,2
3,50,40,9
3,43,45,0
3,46,52,5
3,65,73,0
3,62,73,1
3,53,60,1
3,55,60,184
3,63,68,0
3,67,73,1
3,56,60,1
3,63,60,0
3,68,73,1
3,63,73,4
3,67,73,1
3,55,60,1
3,68,64,0
3,63,56,2
3,63,60,7
3,67,73,3
3,62,73,130
3,53,60,2
3,65,73,5
3,77,44,415
3,72,48,1
3,70,48,1
3,77,44,6
3,65,40,1
3,46,52,4
3,65,73,0
3,62,73,1
3,53,60,1
3,55,60,133
3,63,68,0
3,67,68,1
3,56,53,4
3,63,58,2
3,68,65,5
3,53,55,6
3,58,68,2
3,63,65,1
3,68,64,5
3,63,56,2
3,63,60,7
3,67,73,3
3,44,64,128
3,51,59,9
3,58,68,11
3,63,73,12
3,61,66,943
3,75,91,2
3,82,108,1
3,80,56,3
3,75,48,3
3,79,60,27
3,70,48,200
3,56,44,2
3,75,48,3
3,61,64,740
3,75,91,2
3,82,97,0
3,80,52,267
3,75,36,1
3,79,52,125
3,55,41,132
3,63,59,3
3,65,63,4
3,67,51,4
3,41,71,812
3,56,71,0
3,63,79,1
3,65,63,4
3,43,75,403
3,58,79,2
3,63,66,3
3,63,95,6
3,44,79,195
3,56,75,13
3,58,83,5
3,63,88,2
3,58,73,1
3,44,56,2
3,60,91,1
3,63,82,2
3,56,73,48
3,44,64,12
3,46,88,283
3,58,87,1
3,62,97,0
3,65,101,4
3,63,82,4
3,67,82,1
3,58,64,2
3,63,64,0
3,58,56,1
3,68,73,2
3,58,52,5
3,63,56,0
3,67,73,0
3,58,52,0
3,62,82,5
3,65,73,0
3,63,73,4
3,58,52,1
3,67,73,0
3,58,64,4
3,65,73,0
3,62,73,1
3,63,64,5
3,58,64,1
3,67,64,1
3,56,61,7
3,63,68,0
3,60,64,1
3,58,56,2
3,62,73,0
3,65,64,0
3,63,82,1
3,67,82,1
3,58,64,0
3,63,64,1
3,58,56,4
3,68,73,2
3,58,52,5
3,63,56,0
3,67,73,0
3,58,52,0
3,62,82,5
3,65,73,0
3,63,73,4
3,58,52,1
3,67,73,0
3,58,64,4
3,65,73,0
3,62,73,1
3,63,64,5
3,58,64,1
3,67,64,1
3,56,61,7
3,63,68,0
3,60,64,1
3,58,56,2
3,62,73,0
3,65,64,0
3,63,74,2
3,67,73,1
3,58,64,0
3,63,82,11608
3,67,82,1
3,58,64,2
3,63,64,0
3,58,56,1
3,68,73,2
3,58,52,5
3,63,56,0
3,67,73,0
3,58,52,0
3,62,82,5
3,65,73,0
3,63,73,4
3,58,52,1
3,67,73,0
3,58,64,4
3,65,73,0
3,62,73,1
3,63,64,5
3,58,64,1
3,67,64,1
3,63,73,2
3,58,56,3
3,70,64,0
3,56,61,4
3,63,68,0
3,60,64,1
3,58,56,2
3,62,73,0
3,65,64,0
3,63,82,1
3,67,82,1
3,58,64,0
3,63,64,3
3,58,56,2
3,68,73,2
3,58,52,5
3,63,56,0
3,67,73,0
3,58,52,0
3,62,82,5
3,65,73,0
3,63,73,4
3,58,52,1
3,67,73,0
3,58,64,4
3,65,73,0
3,62,73,1
3,63,64,5
3,58,64,1
3,67,64,1
3,70,72,0
3,63,64,2
3,58,61,1
3,56,61,4
3,63,68,0
3,60,64,1
3,58,56,2
3,62,73,0
3,65,64,0
3,63,74,2
3,67,73,1
3,58,64,0
3,63,82,11896
3,67,82,1
3,58,64,2
3,63,64,0
3,58,56,1
3,68,73,2
3,58,52,5
3,63,56,0
3,67,73,0
3,58,52,0
3,62,82,5
3,65,73,0
3,63,73,4
3,58,52,1
3,67,73,0
3,58,64,4
3,65,73,0
3,62,73,1
3,63,64,5
3,58,64,1
3,67,64,1
3,63,73,2
3,58,56,3
3,70,64,0
3,56,61,4
3,63,68,0
3,60,64,1
3,58,56,2
3,62,73,0
3,65,64,0
3,63,82,1
3,67,82,1
3,58,64,0
3,63,64,3
3,58,56,2
3,68,73,2
3,58,52,5
3,63,56,0
3,67,73,0
3,58,52,0
3,62,82,5
3,65,73,0
3,63,73,4
3,58,52,1
3,67,73,0
3,58,64,4
3,65,73,0
3,62,73,1
3,63,64,5
3,58,64,1
3,67,64,1
3,70,72,0
3,63,64,2
3,58,61,1
3,56,61,4
3,63,68,0
3,60,64,1
3,58,56,6
3,62,73,0
3,65,64,0
3,58,64,4
3,62,73,0
3,65,60,0
3,60,56,100
3,64,64,0
3,67,60,0
3,57,64,68
3,60,56,0
3,65,52,0
3,58,56,11
3,62,60,3
3,65,44,0
3,64,64,47
3,67,48,0
3,60,56,1
3,57,60,71
3,60,73,0
3,65,64,0
3,58,64,60
3,62,73,1
3,65,56,0
3,60,64,100
3,64,64,0
3,67,64,0
3,57,64,87
3,60,73,0
3,65,56,1
3,62,64,11
3,58,56,1
3,65,48,0
3,77,60,576
3,68,27,2
3,72,60,93
3,75,56,3
3,68,60,4
3,63,82,18453
3,67,82,1
3,58,64,2
3,63,64,0
3,58,56,1
3,68,73,2
3,58,52,5
3,63,56,0
3,67,73,0
3,58,52,0
3,62,82,5
3,65,73,0
3,63,73,4
3,58,52,1
3,67,73,0
3,58,64,4
3,65,73,0
3,62,73,1
3,63,64,5
3,58,64,1
3,67,64,1
3,63,73,2
3,58,56,3
3,70,64,0
3,56,61,4
3,63,68,0
3,60,64,1
3,58,56,2
3,62,73,0
3,65,64,0
3,63,82,1
3,67,82,1
3,58,64,0
3,63,64,3
3,58,56,2
3,68,73,2
3,58,52,5
3,63,56,0
3,67,73,0
3,58,52,0
3,62,82,5
3,65,73,0
3,63,73,4
3,58,52,1
3,67,73,0
3,58,64,4
3,65,73,0
3,62,73,1
3,63,64,5
3,58,64,1
3,67,64,1
3,70,72,0
3,63,64,2
3,58,61,1
3,56,61,4
3,63,68,0
3,60,64,1
3,58,56,6
3,62,73,0
3,65,64,0
3,63,82,1
3,67,82,1
3,58,64,2
3,63,64,0
3,58,56,1
3,68,73,2
3,58,52,5
3,63,56,0
3,67,73,0
3,58,52,0
3,62,82,5
3,65,73,0
3,63,73,4
3,58,52,1
3,67,73,0
3,58,64,4
3,65,73,0
3,62,73,1
3,63,64,5
3,58,64,1
3,67,64,1
3,63,73,2
3,58,56,3
3,70,64,0
3,56,61,4
3,63,68,0
3,60,64,1
3,58,56,2
3,62,73,0
3,65,64,0
3,63,82,1
3,67,82,1
3,58,64,0
3,63,64,3
3,58,56,2
3,68,73,2
3,58,52,5
3,63,56,0
3,67,73,0
3,58,52,0
3,62,82,5
3,65,73,0
3,63,73,4
3,58,52,1
3,67,73,0
3,58,64,4
3,65,73,0
3,62,73,1
3,63,64,5
3,58,64,1
3,67,64,1
3,70,72,0
3,63,64,2
3,58,61,1
3,56,61,4
3,63,68,0
3,60,64,1
3,58,56,6
3,62,73,0
3,65,64,0
3,63,82,1
3,67,82,1
3,58,64,2
3,63,64,0
3,58,56,1
3,68,73,2
3,58,52,5
3,63,56,0
3,67,73,0
3,58,52,0
3,62,82,5
3,65,73,0
3,63,73,4
3,58,52,1
3,67,73,0
3,58,64,4
3,65,73,0
3,62,73,1
3,63,64,5
3,58,64,1
3,67,64,1
3,63,73,2
3,58,56,3
3,70,64,0
3,56,61,4
3,63,68,0
3,60,64,1
3,58,56,2
3,62,73,0
3,65,64,0
3,63,82,1
3,67,82,1
3,58,64,0
3,63,64,3
3,58,56,2
3,68,73,2
3,58,52,5
3,63,56,0
3,67,73,0
3,58,52,0
3,62,82,5
3,65,73,0
3,63,73,4
3,58,52,1
3,67,73,0
3,58,64,4
3,65,73,0
3,62,73,1
3,63,64,5
3,58,64,1
3,67,64,1
3,70,72,0
3,63,64,2
3,58,61,1
3,56,61,4
3,63,68,0
3,60,64,1
3,58,56,6
3,62,73,0
3,65,64,0
3,63,82,1
3,67,82,1
3,58,64,2
3,63,64,0
3,58,56,1
3,68,73,2
3,58,52,5
3,63,56,0
3,67,73,0
3,58,52,0
3,62,82,2
3,65,73,0
3,63,73,4
3,58,52,1
3,67,73,0
3,58,64,1
3,65,73,0
3,62,73,1
3,63,64,5
3,58,64,1
3,67,64,1
3,63,73,2
3,58,56,3
3,70,64,0
3,56,61,4
3,63,68,0
3,60,64,1
3,58,56,2
3,62,73,0
3,65,64,0
4,58,100,20403
4,58,83,14
4,58,100,13
4,58,95,19
4,60,100,5
4,58,100,1
4,55,91,16
4,55,89,17
4,56,86,11
4,58,91,20
4,58,86,16
4,58,89,8
4,58,94,8
4,56,98,14
4,55,94,58
4,53,109,0
4,63,92,295
4,63,83,18
4,60,96,1
4,55,79,43
4,58,95,34
4,58,105,20
4,55,80,24
4,60,92,107
4,55,88,7
4,51,90,16
4,53,90,53
4,55,83,11
4,58,92,30
4,56,96,200
4,56,90,12
4,55,96,5
4,53,100,16
4,63,96,69
4,63,86,13
4,63,96,8
4,60,96,5
4,58,93,7
4,60,104,6
4,51,104,9
4,63,96,322
4,63,85,18
4,63,81,12
4,60,82,2
4,58,98,15
4,60,98,13
4,51,98,14
4,63,92,629
4,63,89,18
4,62,90,16
4,58,100,35
4,58,106,22
4,58,112,17
4,60,72,17
4,58,106,11
4,53,98,387
4,55,102,17
4,58,100,15
4,56,102,219
4,55,99,14
4,53,102,22
4,51,100,29
4,51,100,11
4,51,100,14
4,55,98,101
4,55,97,7
4,56,89,13
4,58,93,38
4,56,97,28
4,55,91,50
4,53,100,61
4,58,102,70
4,55,102,45
4,51,99,156
4,53,102,24
4,58,102,103
4,55,102,27
4,58,102,114
4,48,102,1
4,55,98,613
4,55,97,7
4,56,89,13
4,58,93,38
4,56,97,28
4,55,91,50
4,53,100,61
4,60,102,70
4,58,92,8
4,55,102,5
4,51,99,156
4,53,102,24
4,58,102,103
4,55,102,27
4,58,102,114
4,48,102,1
4,63,109,818
4,63,108,14
4,63,106,11
4,62,106,12
4,58,106,39
4,55,103,21
4,58,106,23
4,58,106,9
4,60,81,0
4,58,106,17
4,58,98,229
4,58,98,14
4,58,104,6
4,56,99,26
4,55,97,9
4,53,106,4
4,58,94,282
4,58,94,9
4,63,102,2
4,63,94,13
4,62,99,2
4,62,98,2
4,58,102,18
4,58,102,7
4,55,94,159
4,58,102,42
4,60,102,8
4,55,102,38
4,51,105,11
4,55,92,120
4,58,98,5
4,58,99,10
4,58,102,70
4,55,100,22
4,60,102,12
4,55,102,12
4,53,94,3
4,63,93,562
4,63,93,8
4,63,94,8
4,63,98,7
4,60,92,194
4,58,104,8
4,56,93,27
4,63,97,184
4,63,99,14
4,63,94,10
4,60,102,6
4,58,94,18
4,60,102,23
4,51,102,185
4,63,92,673
4,63,89,18
4,62,90,16
4,58,100,35
4,58,106,22
4,58,112,17
4,60,72,17
4,58,106,11
4,53,98,387
4,55,102,17
4,58,100,15
4,56,102,219
4,55,99,14
