track,note,velocity,time
1,69,115,1140
1,41,115,0
1,57,115,0
1,65,115,0
1,60,115,0
1,53,115,0
1,40,102,328
1,52,100,0
1,67,105,0
1,57,100,0
1,64,101,0
1,60,103,4
1,65,105,380
1,38,103,0
1,50,101,0
1,62,100,4
1,57,99,0
1,60,102,4
1,36,103,8
1,65,104,4
1,48,100,0
1,60,104,0
1,57,101,0
1,62,103,4
1,65,93,12
1,62,100,0
1,46,99,0
1,53,96,0
1,60,102,0
1,58,98,0
1,34,103,4
1,53,88,20
1,53,112,52
1,65,112,0
1,62,117,0
1,60,114,0
1,58,110,0
1,36,98,64
1,55,99,0
1,64,109,0
1,48,98,0
1,60,106,0
1,58,100,0
1,55,80,32
1,57,109,88
1,65,108,0
1,29,99,0
1,60,112,0
1,41,100,0
1,65,117,128
1,53,113,4
1,57,116,0
1,41,107,0
1,60,107,48
1,57,105,8
1,31,94,8
1,55,98,4
1,43,98,0
1,62,98,0
1,58,94,4
1,53,98,4
1,62,110,240
1,58,104,0
1,55,105,0
1,53,99,0
1,43,81,4
1,36,92,368
1,55,99,0
1,48,97,4
1,58,100,0
1,60,103,0
1,64,100,0
1,48,100,12
1,60,127,128
1,64,119,24
1,48,98,0
1,55,100,128
1,60,101,148
1,57,99,0
1,41,101,4
1,55,100,0
1,53,91,284
1,60,98,64
1,41,96,0
1,57,100,4
1,55,98,0
1,53,90,184
1,41,98,152
1,53,100,28
1,46,94,0
1,58,101,0
1,62,103,0
1,34,97,4
1,46,95,72
1,53,93,0
1,46,75,16
1,53,74,56
1,46,73,4
1,53,110,60
1,46,126,0
1,58,115,0
1,62,106,4
1,65,117,64
1,53,113,0
1,46,127,0
1,53,103,84
1,46,102,20
1,63,119,24
1,58,112,0
1,55,114,4
1,39,100,0
1,46,112,0
1,55,93,168
1,51,110,264
1,58,114,4
1,67,126,0
1,63,127,0
1,58,100,204
1,55,100,0
1,64,111,4
1,60,113,0
1,58,106,4
1,55,105,0
1,48,111,0
1,55,113,76
1,36,99,0
1,64,127,0
1,60,113,0
1,58,103,0
1,52,107,0
1,48,103,0
1,65,124,0
1,53,124,0
1,55,103,16
1,60,103,0
1,64,103,0
1,67,127,4
1,36,103,0
1,48,103,0
1,57,109,32
1,65,105,0
1,55,105,0
1,60,116,0
1,41,105,4
1,53,109,0
1,53,89,52
1,55,101,24
1,65,105,0
1,57,109,0
1,60,112,4
1,53,102,72
1,57,100,16
1,65,104,0
1,55,101,0
1,60,107,0
1,41,104,0
1,53,105,4
1,60,87,20
1,60,121,88
1,72,127,0
1,67,127,0
1,69,115,28
1,65,110,140
1,60,99,24
1,53,101,24
1,43,98,32
1,53,103,8
1,55,107,0
1,58,101,0
1,62,106,0
1,65,114,12
1,55,111,4
1,62,115,0
1,58,109,0
1,55,92,64
1,36,95,44
1,58,97,4
1,64,94,0
1,48,97,4
1,60,105,0
1,48,100,228
1,60,114,44
1,64,103,0
1,58,99,0
1,55,106,4
1,52,103,0
1,48,93,72
1,65,99,8
1,53,95,0
1,48,100,24
1,55,116,0
1,67,121,0
1,41,100,24
1,55,103,8
1,60,98,0
1,57,91,8
1,53,85,376
1,60,107,60
1,57,107,0
1,53,100,4
1,55,107,0
1,41,86,0
1,53,87,256
1,41,99,232
1,62,107,20
1,58,99,4
1,46,103,0
1,53,100,0
1,60,114,4
1,53,98,40
1,53,103,80
1,62,114,0
1,46,104,0
1,65,106,0
1,53,106,96
1,58,99,304
1,63,98,0
1,39,108,0
1,51,104,0
1,53,100,0
1,55,104,0
1,51,109,8
1,67,121,4
1,55,111,0
1,58,114,0
1,63,113,0
1,55,92,0
1,36,112,0
1,48,105,4
1,64,112,0
1,60,117,0
1,55,107,4
1,58,107,0
1,48,103,24
1,64,102,48
1,60,114,0
1,52,112,0
1,48,98,28
1,65,98,4
1,53,102,0
1,48,102,0
1,67,107,0
1,55,116,0
1,41,111,32
1,65,115,0
1,57,114,0
1,60,125,0
1,53,110,640
1,65,105,36
1,57,110,0
1,60,113,0
1,67,121,80
1,64,116,0
1,53,96,0
1,65,125,44
1,41,114,4
1,53,115,0
1,60,103,100
1,65,103,4
1,72,127,36
1,67,127,4
1,60,116,0
1,53,104,8
1,60,96,76
1,69,127,132
1,46,109,12
1,56,110,4
1,58,115,0
1,61,119,0
1,65,123,0
1,65,126,36
1,56,119,0
1,58,121,4
1,61,117,0
1,56,97,20
1,46,100,24
1,55,107,0
1,65,117,4
1,51,107,0
1,39,102,8
1,58,113,0
1,61,113,0
1,51,108,36
1,58,114,0
1,55,113,4
1,61,114,0
1,63,112,0
1,39,100,0
1,55,100,8
1,58,100,128
1,58,91,20
1,63,103,4
1,60,125,0
1,44,126,0
1,56,103,0
1,32,98,648
1,63,125,12
1,56,127,0
1,58,127,0
1,60,101,40
1,44,106,132
1,56,99,4
1,65,121,136
1,61,114,0
1,56,107,44
1,65,127,0
1,61,115,4
1,48,103,4
1,36,108,0
1,46,105,76
1,61,116,0
1,65,111,0
1,34,108,0
1,56,116,4
1,58,111,0
1,56,54,28
1,46,99,160
1,65,116,48
1,58,127,0
1,56,127,0
1,61,103,248
1,46,92,0
1,55,101,60
1,48,110,8
1,64,119,4
1,58,113,4
1,48,111,16
1,64,114,60
1,60,119,4
1,55,112,0
1,58,105,0
1,48,104,12
1,58,109,4
1,67,127,0
1,55,98,4
1,65,114,48
1,41,111,8
1,57,127,0
1,60,127,0
1,57,54,60
1,41,108,0
1,65,117,48
1,57,127,0
1,60,105,200
1,41,100,128
1,53,99,220
1,45,114,28
1,61,127,8
1,57,127,0
1,33,114,0
1,55,87,388
1,45,108,128
1,61,127,32
1,55,116,0
1,57,125,0
1,62,105,16
1,55,93,12
1,64,117,68
1,45,103,0
1,55,107,0
1,57,107,4
1,46,121,16
1,34,116,0
1,60,117,8
1,62,116,0
1,65,117,0
1,53,78,300
1,46,110,60
1,60,127,64
1,53,121,0
1,58,100,88
1,53,100,108
1,46,95,220
1,60,114,4
1,57,112,8
1,53,107,0
1,41,114,4
1,57,127,64
1,41,114,0
1,53,93,20
1,57,113,0
1,41,105,0
1,60,110,76
1,60,107,296
1,38,111,12
1,66,109,0
1,62,111,0
1,69,113,0
1,50,116,0
1,60,90,4
1,62,101,0
1,50,111,164
1,60,119,64
1,66,119,0
1,69,119,0
1,62,119,4
1,60,101,60
1,62,114,20
1,43,112,0
1,53,106,0
1,55,103,0
1,58,100,0
1,55,107,216
1,62,110,0
1,58,107,0
1,53,94,0
1,43,99,8
1,53,91,20
1,43,105,132
1,58,104,0
1,62,111,0
1,55,104,8
1,36,104,28
1,58,108,4
1,60,114,0
1,48,101,8
1,55,114,0
1,52,111,0
1,62,110,4
1,58,104,12
1,52,106,0
1,48,100,4
1,55,107,0
1,64,114,8
1,52,104,4
1,48,109,0
1,55,107,0
1,58,101,0
1,65,114,8
1,48,107,0
1,48,113,0
1,67,126,16
1,57,125,8
1,60,123,0
1,65,107,0
1,57,81,44
1,67,103,28
1,60,103,4
1,57,103,0
1,40,102,128
1,57,98,36
1,60,114,0
1,62,114,0
1,65,114,0
1,50,116,644
1,65,125,52
1,57,125,0
1,60,125,4
1,62,104,88
1,50,114,56
1,55,98,12
1,64,114,8
1,55,112,4
1,61,114,0
1,45,115,0
1,57,115,0
1,64,104,52
1,57,114,4
1,55,105,0
1,61,103,0
1,45,98,148
1,55,91,68
1,64,112,4
1,57,109,0
1,61,103,0
1,45,127,0
1,46,119,64
1,34,113,0
1,65,106,0
1,60,111,0
1,62,116,0
1,58,106,0
1,53,109,0
1,46,108,64
1,65,116,60
1,53,112,0
1,58,126,0
1,60,95,160
1,46,99,60
1,53,98,0
1,65,99,292
1,37,111,8
1,49,107,0
1,56,99,4
1,58,103,0
1,65,111,368
1,61,111,8
1,56,100,0
1,58,107,0
1,65,115,364
1,61,114,0
1,56,107,0
1,58,112,4
1,65,126,48
1,56,111,4
1,49,110,0
1,61,117,0
1,58,115,0
1,51,127,20
1,39,104,0
1,65,101,0
1,58,108,4
1,55,116,0
1,63,116,8
1,55,98,60
1,65,110,8
1,60,116,0
1,57,127,8
1,40,119,32
1,67,115,0
1,57,125,0
1,52,127,0
1,60,127,0
1,64,121,0
1,38,111,40
1,50,121,0
1,65,115,4
1,60,126,0
1,57,117,0
1,62,127,0
1,57,94,196
1,50,101,48
1,36,117,44
1,57,117,0
1,65,115,0
1,60,127,4
1,62,127,0
1,48,99,140
1,65,110,16
1,46,127,0
1,53,113,0
1,60,116,0
1,58,108,0
1,62,117,0
1,53,98,44
1,46,117,24
1,65,103,0
1,53,99,8
1,62,114,0
1,60,107,0
1,58,101,4
1,48,127,44
1,58,127,0
1,64,117,0
1,60,127,0
1,55,126,0
1,56,110,36
1,58,115,0
1,61,119,0
1,65,123,0
1,65,126,252
1,56,119,0
1,58,121,4
1,61,117,0
1,56,97,16
1,46,100,24
1,65,117,4
1,56,107,0
1,51,107,0
1,39,102,8
1,58,113,0
1,61,113,0
1,51,108,36
1,58,114,0
1,55,113,4
1,61,114,0
1,63,112,0
1,39,100,0
1,55,100,8
1,58,100,128
1,58,91,20
1,63,103,4
1,60,125,0
1,44,126,0
1,56,103,0
1,32,98,124
1,63,125,32
1,56,127,0
1,58,127,0
1,60,101,28
1,44,106,84
1,56,99,188
1,65,121,28
1,37,114,0
1,61,114,0
1,49,111,0
1,56,107,32
1,65,127,0
1,61,115,4
1,48,103,4
1,36,108,0
1,46,105,480
1,61,116,0
1,65,111,0
1,56,116,4
1,58,111,0
1,56,54,36
1,46,99,108
1,65,116,44
1,58,127,0
1,56,127,0
1,61,103,24
1,46,92,136
1,55,101,76
1,48,110,44
1,64,119,0
1,58,113,4
1,60,123,0
1,48,111,212
1,64,114,44
1,60,119,4
1,55,112,0
1,58,105,0
1,48,104,12
1,58,109,4
1,67,127,0
1,55,98,4
1,53,105,44
1,69,113,0
1,60,104,0
1,41,108,0
1,65,127,0
1,60,91,56
1,65,114,56
1,67,112,144
1,53,103,0
1,69,114,244
1,60,93,64
1,65,108,212
1,67,125,92
1,60,98,24
1,65,99,104
1,41,103,48
1,67,112,16
1,60,101,0
1,72,110,0
1,60,107,132
1,55,98,20
1,43,98,0
1,62,98,0
1,58,94,4
1,53,98,4
1,62,110,240
1,58,104,0
1,55,105,0
1,53,99,0
1,43,81,4
1,36,92,368
1,55,99,0
1,48,97,4
1,58,100,0
1,60,103,0
1,64,100,0
1,48,100,12
1,60,127,128
1,64,119,24
1,48,98,0
1,55,100,128
1,60,101,148
1,57,99,0
1,41,101,4
1,55,100,0
1,53,91,284
1,60,98,64
1,41,96,0
1,57,100,4
1,55,98,0
1,53,90,184
1,41,98,152
1,62,103,28
1,53,100,0
1,46,94,0
1,58,101,0
1,34,97,4
1,46,95,72
1,53,93,0
1,46,75,16
1,53,74,56
1,46,73,4
1,53,110,60
1,46,126,0
1,58,115,0
1,62,106,4
1,65,117,64
1,53,113,0
1,46,127,0
1,53,103,84
1,46,102,20
1,63,119,24
1,58,112,0
1,55,114,4
1,39,100,0
1,46,112,0
1,55,93,168
1,51,110,264
1,58,114,4
1,67,126,0
1,63,127,0
1,58,100,204
1,55,100,0
1,64,111,152
1,60,113,0
1,58,106,4
1,55,105,0
1,48,111,0
1,36,99,40
1,64,127,0
1,60,113,0
1,58,103,0
1,55,113,0
1,52,107,0
1,48,103,0
1,53,124,140
1,65,124,0
1,55,103,52
1,60,103,0
1,64,103,0
1,67,127,4
1,36,103,0
1,48,103,0
1,57,109,12
1,65,105,0
1,55,105,0
1,60,116,0
1,53,109,4
1,53,89,56
1,55,101,88
1,65,105,0
1,57,109,0
1,60,112,4
1,53,102,40
1,55,101,312
1,57,100,0
1,65,104,0
1,60,107,0
1,41,104,0
1,53,105,4
1,60,87,52
1,60,121,24
1,72,127,0
1,67,127,0
1,69,115,28
1,65,110,140
1,60,99,24
1,53,101,136
1,55,107,0
1,58,101,0
1,62,106,0
1,53,103,16
1,65,114,28
1,55,111,0
1,62,115,0
1,58,109,0
1,55,92,48
1,58,97,36
1,64,94,0
1,48,97,4
1,60,105,0
1,48,100,52
1,58,99,28
1,60,114,0
1,64,103,0
1,55,106,4
1,52,103,0
1,48,93,0
1,65,99,8
1,53,95,8
1,48,100,0
1,67,121,4
1,55,116,0
1,41,100,24
1,55,103,8
1,60,98,0
1,57,91,8
1,53,85,376
1,60,107,60
1,57,107,0
1,53,100,4
1,55,107,0
1,41,86,0
1,53,87,256
1,41,99,52
1,62,107,20
1,58,99,4
1,46,103,0
1,53,100,0
1,60,114,4
1,53,98,40
1,53,103,80
1,62,114,0
1,46,104,0
1,65,106,0
1,53,106,96
1,58,99,304
1,63,98,0
1,39,108,0
1,51,104,0
1,53,100,0
1,55,104,0
1,51,109,8
1,67,121,4
1,55,111,0
1,58,114,0
1,63,113,0
1,55,92,36
1,36,112,36
1,48,105,4
1,64,112,0
1,60,117,0
1,55,107,4
1,58,107,0
1,48,103,56
1,64,102,16
1,52,112,0
1,60,114,0
1,48,98,28
1,53,102,0
1,65,98,0
1,48,102,56
1,67,107,0
1,55,116,0
1,41,111,32
1,55,105,0
1,65,115,0
1,57,114,0
1,60,125,0
1,53,114,0
1,53,110,0
1,65,105,132
1,57,110,0
1,60,113,0
1,67,121,12
1,64,116,32
1,53,96,0
1,65,125,32
1,53,115,4
1,60,103,52
1,65,103,48
1,72,127,8
1,67,127,8
1,60,116,0
1,53,104,12
1,60,96,24
1,69,127,72
1,56,110,4
1,58,115,0
1,61,119,0
1,65,123,0
1,65,126,20
1,56,119,0
1,58,121,4
1,61,117,0
1,56,97,180
1,46,100,24
1,65,117,4
1,56,107,0
1,51,107,0
1,39,102,8
1,58,113,0
1,61,113,0
1,51,108,36
1,58,114,0
1,55,113,4
1,61,114,0
1,63,112,0
1,39,100,0
1,55,100,8
1,58,100,128
1,58,91,20
1,63,103,4
1,60,125,0
1,44,126,0
1,56,103,0
1,63,125,256
1,56,127,0
1,58,127,0
1,60,101,28
1,44,106,84
1,56,99,188
1,65,121,28
1,61,114,0
1,49,111,0
1,56,107,28
1,65,127,0
1,61,115,4
1,48,103,4
1,46,105,12
1,61,116,0
1,65,111,0
1,56,116,4
1,58,111,0
1,56,54,36
1,46,99,160
1,65,116,8
1,58,127,0
1,56,127,0
1,61,103,100
1,55,101,28
1,64,119,60
1,58,113,4
1,60,123,0
1,64,114,32
1,60,119,4
1,55,112,0
1,58,105,0
1,58,109,0
1,67,127,0
1,55,98,4
1,65,114,12
1,41,111,8
1,57,127,0
1,60,127,0
1,57,54,60
1,41,108,0
1,65,117,48
1,57,127,0
1,60,105,248
1,41,100,128
1,53,99,220
1,45,114,12
1,61,127,8
1,57,127,0
1,55,87,388
1,45,108,64
1,61,127,12
1,55,116,0
1,57,125,0
1,62,105,4
1,55,93,12
1,45,103,52
1,64,117,0
1,55,107,0
1,57,107,4
1,46,121,32
1,65,117,0
1,62,116,0
1,60,117,0
1,53,78,412
1,46,110,64
1,60,127,64
1,53,121,0
1,58,100,88
1,53,100,108
1,46,95,220
1,60,114,36
1,57,112,8
1,53,107,0
1,41,114,4
1,57,127,20
1,41,114,0
1,53,93,132
1,57,113,48
1,41,105,0
1,60,110,96
1,60,107,52
1,66,109,12
1,62,111,0
1,69,113,0
1,50,116,0
1,62,101,4
1,50,111,164
1,60,119,20
1,66,119,0
1,69,119,0
1,62,119,4
1,60,101,44
1,62,114,28
1,43,112,0
1,53,106,0
1,55,103,0
1,58,100,0
1,55,107,56
1,62,110,0
1,58,107,0
1,53,94,0
1,43,99,136
1,53,91,4
1,43,105,132
1,58,104,0
1,62,111,0
1,55,104,8
1,58,108,36
1,60,114,0
1,52,111,0
1,48,101,0
1,62,110,12
1,58,104,12
1,52,106,0
1,48,100,4
1,64,114,8
1,52,104,4
1,48,109,0
1,58,101,0
1,65,114,8
1,48,107,0
1,48,113,32
1,67,126,16
1,57,125,44
1,60,123,16
1,65,107,0
