track,note,velocity,time
0,42,123,0
0,42,39,184
0,42,87,184
0,42,17,184
0,77,70,184
0,65,53,0
0,62,48,0
0,58,54,0
0,62,75,0
0,65,82,0
0,65,93,0
0,58,93,0
0,62,86,0
0,36,72,0
0,42,71,0
0,34,73,2
0,44,43,88
0,42,39,88
0,58,54,4
0,65,53,0
0,62,48,0
0,44,37,88
0,58,54,8
0,62,48,0
0,65,53,0
0,38,67,24
0,62,71,4
0,65,76,0
0,42,70,0
0,77,70,2
0,65,37,2
0,62,38,2
0,58,38,2
0,44,37,88
0,42,52,84
0,65,37,8
0,62,38,2
0,58,38,2
0,63,49,10
0,39,74,0
0,67,50,2
0,63,72,2
0,67,64,0
0,36,45,0
0,44,38,0
0,63,78,4
0,79,73,2
0,67,76,2
0,65,37,2
0,62,38,2
0,58,38,2
0,36,73,80
0,42,55,0
0,63,49,0
0,67,55,2
0,44,38,2
0,63,49,16
0,42,51,0
0,67,50,2
0,44,35,44
0,63,32,8
0,67,34,2
0,38,70,78
0,42,54,4
0,44,32,78
0,42,46,44
0,36,36,6
0,44,27,0
0,58,86,42
0,58,64,2
0,62,51,0
0,65,61,2
0,65,82,2
0,34,74,2
0,62,74,2
0,36,72,0
0,42,71,0
0,44,40,88
0,58,43,84
0,62,43,0
0,65,43,2
0,42,50,2
0,58,64,88
0,62,51,0
0,44,29,0
0,65,61,2
0,38,78,28
0,38,70,6
0,42,54,2
0,70,70,6
0,44,35,86
0,65,83,52
0,62,35,4
0,42,49,4
0,65,35,4
0,70,70,2
0,67,73,0
0,63,92,2
0,39,77,0
0,63,51,4
0,70,56,0
0,36,45,0
0,44,29,0
0,67,52,8
0,70,70,6
0,62,35,78
0,36,67,0
0,42,62,0
0,65,35,8
0,44,24,2
0,63,51,4
0,62,35,0
0,67,52,4
0,65,35,0
0,42,46,2
0,63,51,4
0,67,52,8
0,44,27,8
0,63,27,8
0,67,26,6
0,42,54,4
0,38,65,0
0,44,24,0
0,63,34,2
0,67,27,2
0,42,51,86
0,36,36,4
0,44,32,0
0,34,69,56
0,77,90,2
0,62,55,2
0,65,57,2
0,58,54,2
0,62,82,0
0,65,85,0
0,36,72,0
0,42,71,0
0,58,91,2
0,62,78,2
0,65,84,2
0,44,43,88
0,62,11,88
0,42,39,0
0,65,57,2
0,58,54,2
0,44,37,88
0,62,30,4
0,65,30,2
0,58,30,2
0,38,67,6
0,82,66,2
0,65,77,2
0,70,78,0
0,42,70,0
0,62,59,2
0,65,53,2
0,70,57,2
0,44,37,84
0,42,52,88
0,62,59,2
0,65,53,4
0,70,57,2
0,63,51,2
0,39,74,0
0,67,52,2
0,79,67,4
0,58,17,0
0,63,74,0
0,67,68,0
0,63,71,0
0,36,45,0
0,44,38,0
0,67,74,4
0,62,59,6
0,65,53,4
0,70,57,2
0,36,73,8
0,42,55,0
0,63,51,8
0,67,52,4
0,44,38,0
0,58,36,4
0,63,46,8
0,42,51,0
0,67,47,4
0,58,47,4
0,44,35,2
0,63,27,4
0,67,26,2
0,58,26,4
0,38,70,24
0,42,54,4
0,44,32,20
0,63,31,4
0,67,30,4
0,58,30,4
0,42,46,14
0,36,36,24
0,44,27,0
0,34,72,56
0,65,62,2
0,58,46,2
0,58,94,2
0,62,33,2
0,36,72,4
0,42,71,0
0,65,74,2
0,62,78,2
0,44,40,88
0,65,39,82
0,58,46,2
0,62,33,4
0,42,50,0
0,65,62,86
0,58,46,2
0,44,29,0
0,62,33,4
0,38,72,8
0,38,70,4
0,70,65,2
0,42,54,0
0,44,35,44
0,62,21,4
0,65,77,6
0,62,47,2
0,42,49,4
0,70,65,2
0,58,34,52
0,67,72,2
0,39,68,0
0,63,69,2
0,63,61,2
0,36,45,0
0,44,29,0
0,67,54,2
0,70,65,0
0,70,60,6
0,62,24,2
0,62,47,8
0,36,67,0
0,42,62,0
0,62,21,12
0,58,34,72
0,63,69,2
0,44,24,0
0,62,47,4
0,67,54,4
0,58,34,6
0,42,46,0
0,63,69,0
0,67,54,8
0,44,27,0
0,58,32,4
0,63,32,4
0,67,31,4
0,42,54,28
0,38,65,0
0,58,41,4
0,63,41,4
0,67,40,12
0,44,24,68
0,42,51,88
0,36,36,8
0,44,32,0
0,68,67,2
0,56,80,0
0,36,72,0
0,42,71,0
0,68,78,8
0,75,82,2
0,72,76,2
0,44,43,84
0,42,39,88
0,44,37,88
0,72,74,78
0,38,67,4
0,42,70,6
0,44,37,0
0,75,68,8
0,42,52,68
0,75,75,72
0,36,45,2
0,44,38,0
0,58,71,14
0,67,52,2
0,70,71,0
0,36,73,0
0,42,55,0
0,70,71,0
0,44,38,88
0,75,80,2
0,42,51,88
0,74,68,4
0,44,35,14
0,74,71,6
0,38,70,6
0,42,54,0
0,75,78,8
0,75,78,0
0,44,32,6
0,42,46,46
0,72,70,8
0,36,36,8
0,44,27,0
0,63,66,0
0,68,54,10
0,53,66,2
0,72,76,4
0,65,64,4
0,36,72,4
0,42,71,0
0,70,66,12
0,44,40,16
0,42,50,88
0,44,29,24
0,38,70,86
0,42,54,2
0,44,35,88
0,42,49,6
0,63,61,54
0,36,45,4
0,44,29,0
0,63,74,0
0,67,64,2
0,70,73,0
0,67,63,4
0,36,67,4
0,42,62,0
0,63,66,8
0,51,65,4
0,44,24,84
0,70,68,30
0,42,46,22
0,44,27,88
0,42,54,88
0,38,65,0
0,44,24,88
0,67,38,6
0,65,59,20
0,63,33,8
0,42,51,0
0,36,36,88
0,44,32,0
0,56,60,6
0,36,72,4
0,42,71,0
0,68,55,6
0,68,68,2
0,72,61,6
0,75,74,6
0,44,43,66
0,42,39,88
0,44,37,88
0,38,67,82
0,42,70,6
0,75,76,86
0,44,37,2
0,42,52,6
0,75,81,10
0,36,45,48
0,44,38,0
0,70,59,24
0,75,63,6
0,67,57,0
0,58,75,2
0,75,82,10
0,70,76,2
0,36,73,0
0,42,55,0
0,44,38,88
0,70,44,0
0,42,51,12
0,44,35,48
0,70,85,6
0,74,68,2
0,38,70,6
0,42,54,2
0,67,74,54
0,44,32,8
0,42,46,30
0,72,71,56
0,36,36,10
0,44,27,0
0,65,66,16
0,68,56,0
0,53,73,0
0,72,64,2
0,63,70,0
0,36,72,0
0,42,71,0
0,44,40,82
0,42,50,88
0,44,29,88
0,38,70,4
0,42,54,2
0,44,35,2
0,42,49,0
0,36,45,88
0,44,29,0
0,36,67,88
0,42,62,0
0,44,24,24
0,42,46,2
0,44,27,8
0,42,54,22
0,38,65,0
0,44,24,44
0,42,51,88
0,36,36,88
0,44,32,0
0,68,68,40
0,75,77,6
0,72,68,2
0,36,72,0
0,42,71,0
0,68,67,2
0,56,70,2
0,44,43,88
0,42,39,88
0,68,76,74
0,44,37,14
0,38,67,8
0,72,68,2
0,42,70,4
0,44,37,4
0,75,74,2
0,42,52,2
0,75,73,6
0,36,45,4
0,44,38,0
0,58,60,4
0,70,71,2
0,36,73,6
0,42,55,0
0,75,74,2
0,70,71,4
0,67,66,2
0,75,74,76
0,44,38,12
0,42,51,88
0,74,72,0
0,44,35,0
0,74,67,12
0,38,70,12
0,42,54,4
0,75,76,6
0,44,32,4
0,75,70,2
0,42,46,86
0,72,76,70
0,36,36,10
0,44,27,0
0,53,64,12
0,65,71,2
0,68,57,0
0,72,66,2
0,63,69,0
0,36,72,4
0,42,71,0
0,70,60,6
0,44,40,4
0,42,50,88
0,44,29,88
0,38,70,28
0,42,54,2
0,44,35,88
0,46,62,82
0,42,49,6
0,63,71,58
0,36,45,20
0,44,29,0
0,70,72,10
0,67,60,2
0,67,71,2
0,63,67,0
0,36,67,8
0,42,62,0
0,63,69,8
0,51,49,0
0,44,24,70
0,70,74,8
0,42,46,16
0,44,27,88
0,65,50,82
0,42,54,0
0,38,65,0
0,67,28,34
0,44,24,0
0,65,56,18
0,63,72,2
0,63,64,10
0,42,51,0
0,36,36,4
0,44,32,0
0,68,67,20
0,72,42,4
0,68,70,2
0,75,57,4
0,56,59,2
0,36,72,0
0,42,71,0
0,44,43,68
0,42,39,88
0,44,37,12
0,70,83,2
0,38,67,4
0,72,83,6
0,42,70,0
0,44,37,88
0,75,82,22
0,42,52,6
0,36,45,88
0,44,38,0
0,77,80,4
0,70,71,12
0,70,61,2
0,75,71,0
0,67,57,4
0,58,54,0
0,36,73,2
0,42,55,0
0,44,38,86
0,42,51,88
0,44,35,88
0,79,73,2
0,38,70,8
0,74,55,4
0,42,54,0
0,44,32,18
0,42,46,88
0,36,36,88
0,44,27,0
0,77,65,0
0,72,46,6
0,68,71,6
0,65,73,4
0,36,72,0
0,42,71,0
0,63,66,2
0,41,69,0
0,53,52,4
0,44,40,88
0,42,50,2
0,44,29,88
0,38,70,6
0,42,54,2
0,44,35,88
0,42,49,2
0,36,45,8
0,44,29,0
0,36,67,4
0,42,62,0
0,51,29,6
0,44,24,2
0,50,26,8
0,48,23,20
0,42,46,18
0,51,29,8
0,46,21,6
0,50,26,26
0,44,19,2
0,43,18,26
0,67,75,6
0,48,23,2
0,51,29,8
0,44,27,0
0,40,54,8
0,41,16,4
0,46,21,10
0,39,14,8
0,50,26,0
0,44,19,16
0,38,13,2
0,48,23,12
0,43,18,8
0,36,11,2
0,42,54,0
0,38,65,0
0,41,35,8
0,46,21,6
0,34,10,4
0,41,16,0
0,39,14,24
0,32,8,2
0,44,19,0
0,38,13,20
0,43,18,4
0,31,6,4
0,65,55,6
0,44,24,4
0,36,11,4
0,41,16,6
0,29,4,6
0,34,10,6
0,39,14,8
0,27,3,8
0,32,8,6
0,38,13,2
0,26,1,0
0,36,11,0
0,31,6,0
0,42,51,0
0,34,10,14
0,29,4,8
0,32,8,18
0,27,3,4
0,31,6,22
0,63,68,2
0,26,1,0
0,36,36,2
0,44,32,0
0,29,4,16
0,27,3,22
0,26,1,0
0,58,77,2
0,77,69,0
0,58,80,0
0,34,71,0
0,36,72,0
0,42,71,0
0,74,66,2
0,62,77,0
0,65,85,0
0,65,65,2
0,65,74,0
0,62,71,0
0,44,43,88
0,58,62,88
0,42,39,0
0,65,59,4
0,62,56,2
0,44,37,88
0,58,63,8
0,65,60,4
0,62,57,2
0,65,69,10
0,38,67,4
0,42,70,6
0,74,69,2
0,65,43,2
0,77,67,2
0,44,37,20
0,65,57,8
0,62,48,16
0,42,52,0
0,65,38,6
0,67,66,0
0,39,69,0
0,63,73,2
0,67,55,2
0,58,78,2
0,58,71,0
0,36,45,0
0,44,38,0
0,75,57,6
0,65,42,2
0,79,57,2
0,63,70,2
0,65,29,2
0,67,66,2
0,62,49,8
0,36,73,4
0,42,55,0
0,65,43,8
0,63,58,6
0,67,40,2
0,58,63,6
0,44,38,2
0,62,34,4
0,63,59,6
0,67,41,2
0,42,51,0
0,58,64,6
0,44,35,12
0,38,70,84
0,42,54,4
0,44,32,88
0,70,73,80
0,42,46,8
0,70,67,26
0,36,36,6
0,44,27,0
0,77,71,36
0,74,58,0
0,65,72,8
0,58,72,2
0,62,71,2
0,65,83,0
0,34,71,0
0,65,68,2
0,62,74,0
0,36,72,0
0,42,71,0
0,58,71,2
0,44,40,88
0,65,57,80
0,58,57,2
0,62,56,2
0,42,50,4
0,65,58,88
0,44,29,0
0,58,58,2
0,62,57,2
0,70,86,6
0,38,67,0
0,77,57,2
0,38,70,0
0,70,71,2
0,42,54,0
0,82,49,2
0,44,35,64
0,62,24,6
0,62,60,0
0,70,56,4
0,42,49,0
0,67,60,4
0,63,60,0
0,39,63,0
0,67,60,0
0,63,80,0
0,58,58,2
0,67,74,2
0,36,45,0
0,44,29,0
0,58,71,2
0,70,72,2
0,62,9,2
0,75,54,2
0,79,44,4
0,62,45,0
0,36,67,16
0,42,62,0
0,62,11,6
0,67,45,4
0,63,45,2
0,62,46,0
0,58,43,6
0,44,24,2
0,67,46,38
0,63,46,0
0,42,46,2
0,58,44,6
0,44,27,44
0,42,54,38
0,38,65,0
0,44,24,88
0,42,51,8
0,36,36,18
0,44,32,0
0,77,66,0
0,74,63,4
0,65,75,0
0,58,69,0
0,62,70,2
0,65,70,2
0,65,66,0
0,36,72,0
0,42,71,0
0,62,59,4
0,58,74,2
0,34,82,4
0,44,43,84
0,65,51,88
0,42,39,0
0,62,44,4
0,58,59,2
0,44,37,88
0,65,52,8
0,62,45,4
0,58,60,2
0,38,67,20
0,62,75,2
0,65,71,0
0,58,75,2
0,77,72,2
0,42,70,0
0,65,73,2
0,74,67,2
0,44,37,88
0,62,60,2
0,65,56,0
0,58,60,2
0,42,52,2
0,62,49,8
0,58,71,4
0,63,90,2
0,67,64,4
0,39,62,0
0,36,45,0
0,44,38,0
0,62,61,4
0,65,57,0
0,75,60,0
0,67,45,2
0,58,61,0
0,67,66,2
0,63,68,2
0,79,57,0
0,36,73,6
0,42,55,0
0,62,38,0
0,44,38,80
0,67,30,4
0,63,53,2
0,62,35,14
0,42,51,26
0,67,31,6
0,63,54,2
0,58,64,66
0,44,35,12
0,38,70,10
0,67,71,2
0,42,54,2
0,44,32,88
0,42,46,40
0,65,70,2
0,63,46,14
0,36,36,0
0,44,27,0
0,75,63,6
0,80,56,6
0,68,81,0
0,63,73,2
0,63,86,0
0,60,70,0
0,60,59,4
0,68,73,2
0,41,74,0
0,36,72,0
0,42,71,0
0,63,89,8
0,44,40,88
0,60,71,14
0,63,58,10
0,60,44,4
0,68,58,2
0,42,50,0
0,67,71,32
0,44,29,6
0,63,59,2
0,60,45,4
0,68,59,2
0,58,51,0
0,67,68,6
0,79,67,2
0,38,70,6
0,42,54,2
0,67,69,2
0,44,35,78
0,65,70,4
0,58,36,0
0,67,53,6
0,42,49,10
0,58,37,0
0,34,66,2
0,77,59,0
0,65,62,2
0,67,54,0
0,58,62,2
0,36,45,0
0,44,29,0
0,62,58,2
0,74,62,0
0,62,57,4
0,65,57,0
0,58,56,0
0,36,67,82
0,42,62,0
0,65,47,6
0,58,47,2
0,44,24,0
0,62,43,2
0,70,27,6
0,42,46,0
0,65,48,6
0,58,48,2
0,62,44,2
0,70,51,6
0,44,27,16
0,62,44,6
0,70,19,2
0,42,54,36
0,38,65,0
0,70,63,4
0,70,21,4
0,70,29,0
0,44,24,8
0,70,62,6
0,62,29,0
0,65,26,2
0,70,37,16
0,70,60,18
0,42,51,8
0,58,49,6
0,62,30,6
0,36,36,82
0,44,32,0
0,65,35,8
0,77,66,20
0,74,63,0
0,58,77,0
0,58,80,0
0,36,72,0
0,42,71,0
0,62,77,2
0,65,85,0
0,65,74,2
0,34,76,0
0,62,71,2
0,65,71,2
0,65,27,8
0,44,43,80
0,58,35,6
0,58,62,72
0,42,39,0
0,65,59,4
0,62,56,2
0,44,37,88
0,58,63,0
0,65,60,4
0,62,57,2
0,38,67,14
0,77,69,2
0,65,63,2
0,42,70,2
0,74,59,2
0,65,43,4
0,44,37,20
0,65,57,8
0,62,48,16
0,42,52,4
0,65,28,6
0,67,60,4
0,63,73,2
0,75,57,0
0,67,55,2
0,79,72,2
0,39,68,0
0,58,78,2
0,58,71,2
0,36,45,0
0,44,38,0
0,65,42,8
0,63,70,4
0,65,29,2
0,67,66,2
0,62,33,8
0,36,73,4
0,42,55,0
0,65,43,8
0,63,58,6
0,67,40,2
0,58,63,6
0,44,38,2
0,62,34,4
0,63,59,6
0,67,41,2
0,42,51,0
0,58,64,6
0,44,35,70
0,70,68,34
0,38,70,4
0,42,54,4
0,44,32,88
0,70,77,38
0,42,46,12
0,36,36,32
0,44,27,0
0,65,75,36
0,74,63,0
0,77,52,2
0,34,71,2
0,65,72,2
0,58,72,2
0,62,71,2
0,65,83,0
0,62,74,0
0,36,72,0
0,42,71,0
0,58,71,2
0,44,40,88
0,65,57,80
0,58,57,2
0,62,56,2
0,42,50,4
0,65,58,88
0,44,29,0
0,58,58,2
0,62,57,2
0,38,69,14
0,70,65,4
0,70,86,2
0,77,81,0
0,38,70,2
0,42,54,0
0,82,64,0
0,44,35,64
0,62,24,6
0,62,60,0
0,70,56,12
