track,note,velocity,time
0,60,93,34
0,67,83,0
0,74,102,0
0,60,34,0
0,67,30,0
0,74,34,0
0,69,93,378
0,69,32,0
0,55,79,3
0,62,91,0
0,55,27,0
0,62,30,0
0,53,87,4
0,53,34,0
0,60,73,1
0,60,29,0
0,67,95,2
0,67,32,0
0,55,73,336
0,55,29,0
0,62,91,1
0,62,32,0
0,48,84,1
0,48,31,0
0,43,73,354
0,50,60,1
0,43,30,1
0,50,28,1
0,55,73,2
0,59,32,0
0,57,82,9
0,59,64,75
0,55,48,8
0,62,56,129
0,55,40,2
0,50,40,9
0,43,45,0
0,46,52,5
0,65,73,0
0,46,20,0
0,65,41,0
0,62,73,1
0,62,41,0
0,53,60,1
0,53,28,0
0,55,60,6
0,63,68,0
0,55,28,0
0,63,36,0
0,67,73,1
0,67,41,0
0,56,60,1
0,63,60,0
0,56,28,0
0,68,73,1
0,68,41,0
0,63,73,4
0,67,73,1
0,67,41,0
0,55,60,1
0,55,28,0
0,68,64,0
0,68,32,0
0,63,56,2
0,63,60,7
0,67,73,3
0,67,41,0
0,62,73,130
0,62,41,0
0,53,60,2
0,53,28,0
0,65,73,5
0,65,41,0
0,77,44,2
0,72,48,1
0,70,48,1
0,77,44,6
0,65,40,1
0,46,52,0
0,65,73,0
0,46,20,0
0,65,41,0
0,62,73,1
0,62,41,0
0,53,60,1
0,53,28,0
0,55,60,6
0,63,68,0
0,55,28,0
0,63,36,0
0,67,68,1
0,67,36,0
0,56,53,4
0,56,21,0
0,63,58,2
0,68,65,4
0,68,33,0
0,53,55,6
0,53,23,0
0,58,68,2
0,58,36,0
0,63,65,1
0,68,64,5
0,68,32,0
0,63,56,2
0,63,60,7
0,67,73,3
0,67,41,0
0,44,64,16
0,44,32,0
0,51,59,9
0,51,27,0
0,58,68,9
0,58,36,0
0,63,73,12
0,63,41,0
0,61,66,7
0,61,34,0
0,75,91,2
0,75,37,0
0,82,108,1
0,70,41,0
0,80,56,3
0,75,48,3
0,79,60,27
0,70,48,200
0,68,28,0
0,56,44,2
0,56,27,0
0,72,32,1
0,75,48,3
0,61,64,1
0,61,32,0
0,75,91,2
0,82,97,0
0,70,33,0
0,75,33,0
0,80,52,267
0,75,36,1
0,79,52,125
0,55,41,3
0,63,59,3
0,63,33,0
0,67,26,2
0,65,63,2
0,67,51,4
0,41,71,8
0,56,71,0
0,56,28,0
0,63,79,1
0,63,32,0
0,65,63,4
0,65,31,0
0,43,75,3
0,58,79,2
0,58,32,0
0,63,66,3
0,63,95,6
0,44,79,195
0,56,75,7
0,56,31,3
0,58,83,2
0,58,32,0
0,63,35,1
0,63,88,2
0,36,97,0
0,44,72,0
0,49,79,0
0,44,56,91
0,51,49,0
0,37,112,0
0,39,115,0
0,44,43,0
0,51,82,0
0,44,71,0
0,51,53,0
0,44,79,0
0,51,82,2
0,51,51,0
0,58,73,1
0,44,46,1
0,44,56,1
0,60,91,1
0,63,82,2
0,37,112,0
0,39,115,0
0,51,82,0
0,44,31,0
0,56,73,48
0,44,71,0
0,36,79,0
0,51,55,0
0,44,64,12
0,44,79,7
0,51,82,0
0,36,92,0
0,44,47,0
0,36,79,0
0,51,55,0
0,51,82,0
0,37,112,0
0,39,115,0
0,46,88,33
0,58,87,1
0,62,97,0
0,65,101,4
0,58,28,1
0,62,29,0
0,44,67,0
0,65,33,1
0,51,46,0
0,51,80,0
0,44,79,0
0,41,85,0
0,44,43,0
0,51,55,0
0,41,89,34
0,37,112,0
0,39,115,0
0,51,69,0
0,44,31,0
0,41,72,38
0,36,79,0
0,44,79,0
0,51,55,0
0,63,82,4
0,67,82,1
0,58,64,2
0,58,67,0
0,63,68,0
0,67,68,0
0,67,56,1
0,63,93,1
0,36,97,0
0,44,72,0
0,49,79,0
0,39,91,2
0,67,80,0
0,68,56,6
0,44,56,2
0,63,71,4
0,51,49,0
0,63,76,2
0,70,93,0
0,70,56,3
0,70,47,1
0,37,112,0
0,39,115,0
0,44,43,0
0,51,82,0
0,68,65,1
0,63,64,0
0,44,71,0
0,63,75,1
0,63,80,0
0,68,93,0
0,58,56,1
0,68,56,0
0,68,73,2
0,51,53,0
0,44,79,1
0,44,79,0
0,70,67,1
0,51,82,1
0,51,51,0
0,44,46,3
0,58,52,1
0,63,56,0
0,67,73,0
0,67,64,0
0,63,75,1
0,67,64,2
0,67,93,3
0,63,93,1
0,43,81,23
0,37,112,0
0,39,115,0
0,51,82,0
0,44,31,0
0,58,52,0
0,44,71,0
0,62,82,1
0,65,73,0
0,62,69,1
0,65,56,0
0,65,68,1
0,62,93,0
0,36,79,0
0,51,55,0
0,41,84,1
0,63,67,0
0,65,93,0
0,44,79,78
0,51,82,0
0,36,92,0
0,44,47,0
0,63,71,3
0,36,79,0
0,51,55,0
0,51,82,0
0,70,93,2
0,70,75,1
0,70,56,4
0,37,112,0
0,39,115,0
0,63,73,3
0,67,66,0
0,63,51,0
0,58,52,1
0,67,73,0
0,44,67,0
0,39,91,2
0,63,102,0
0,67,93,0
0,63,68,1
0,51,46,0
0,67,60,1
0,51,80,0
0,70,79,2
0,44,79,0
0,63,63,14
0,44,43,0
0,51,55,0
0,37,112,0
0,39,115,0
0,51,69,0
0,44,31,0
0,63,74,38
0,63,75,9
0,36,79,0
0,44,79,0
0,51,55,0
0,65,67,2
0,58,64,2
0,65,73,0
0,62,69,0
0,62,73,1
0,62,93,0
0,65,93,1
0,34,89,4
0,65,58,0
0,36,97,0
0,44,72,0
0,51,79,0
0,44,56,36
0,51,49,0
0,63,47,2
0,70,84,7
0,70,63,5
0,70,56,1
0,37,112,0
0,39,115,0
0,44,43,0
0,51,82,0
0,67,70,1
0,63,64,1
0,44,71,0
0,58,64,1
0,63,68,0
0,67,56,0
0,67,64,1
0,63,42,2
0,63,102,0
0,67,93,0
0,51,53,0
0,39,89,6
0,44,79,0
0,70,63,2
0,51,82,0
0,51,51,0
0,44,46,2
0,70,56,3
0,70,93,0
0,63,75,1
0,37,112,0
0,39,115,0
0,51,82,0
0,44,31,0
0,34,89,3
0,56,61,7
0,63,68,0
0,60,64,1
0,60,89,1
0,44,71,0
0,63,88,1
0,60,60,5
0,63,79,1
0,36,79,0
0,51,55,0
0,32,89,3
0,60,67,0
0,56,68,4
0,44,79,65
0,51,82,0
0,36,92,0
0,44,47,0
0,63,63,4
0,36,79,0
0,51,55,0
0,51,82,0
0,70,67,3
0,37,112,0
0,39,115,0
0,44,67,0
0,51,46,0
0,63,43,2
0,51,80,0
0,70,75,2
0,44,79,0
0,63,71,12
0,44,43,0
0,51,55,0
0,62,88,1
0,58,56,1
0,62,73,0
0,65,64,0
0,58,69,0
0,65,66,0
0,65,90,0
0,62,65,1
0,34,89,1
0,37,112,0
0,39,115,0
0,51,69,0
0,44,31,0
0,63,67,65
0,36,79,0
0,44,79,0
0,51,55,0
0,63,82,1
0,67,82,1
0,58,64,0
0,63,68,1
0,67,68,1
0,67,56,1
0,63,93,1
0,36,97,0
0,44,72,0
0,51,79,0
0,39,97,1
0,67,80,1
0,68,56,6
0,44,56,2
0,63,67,1
0,51,49,0
0,63,76,2
0,70,93,0
0,70,56,3
0,70,63,2
0,37,112,0
0,39,115,0
0,44,43,0
0,51,82,0
0,63,64,1
0,68,66,0
0,44,71,0
0,63,80,1
0,63,63,1
0,68,93,1
0,58,56,1
0,68,56,0
0,44,89,1
0,68,73,1
0,51,53,0
0,44,79,0
0,51,82,2
0,70,75,1
0,51,51,0
0,44,46,3
0,67,65,1
0,58,52,1
0,63,56,0
0,67,73,0
0,67,64,3
0,63,75,2
0,67,93,1
0,63,93,1
0,43,76,22
0,37,112,0
0,39,115,0
0,51,82,0
0,44,31,0
0,58,52,0
0,44,71,0
0,62,82,1
0,65,73,0
0,65,67,1
0,62,67,3
0,65,56,0
0,41,88,2
0,62,93,0
0,36,79,0
0,51,55,0
0,63,63,1
0,65,93,0
0,44,79,78
0,51,82,0
0,36,92,0
0,44,47,0
0,36,79,0
0,51,55,0
0,63,51,1
0,51,82,0
0,70,93,2
0,70,63,1
0,70,56,4
0,37,112,0
0,39,115,0
0,63,73,4
0,63,68,0
0,67,69,0
0,58,52,1
0,67,73,0
0,44,67,0
0,63,102,2
0,67,93,0
0,51,46,0
0,39,83,1
0,67,60,0
0,70,63,84
0,51,80,0
0,44,79,0
0,63,71,2
0,44,43,0
0,51,55,0
0,37,112,0
0,39,115,0
0,51,69,0
0,44,31,0
0,63,74,38
0,63,67,6
0,36,79,0
0,44,79,0
0,51,55,0
0,62,68,0
0,65,66,1
0,58,64,2
0,65,73,0
0,62,73,1
0,62,93,0
0,65,93,1
0,65,58,4
0,36,97,0
0,44,72,0
0,51,79,0
0,34,91,1
0,44,56,61
0,63,63,1
0,51,49,0
0,70,84,7
0,70,46,4
0,70,56,2
0,37,112,0
0,39,115,0
0,44,43,0
0,51,82,0
0,63,64,1
0,67,67,0
0,63,67,0
0,44,71,0
0,58,64,1
0,67,56,0
0,67,64,1
0,63,66,0
0,63,102,0
0,67,93,0
0,51,53,0
0,39,91,2
0,44,79,0
0,51,82,2
0,70,75,1
0,51,51,0
0,44,46,3
0,70,56,3
0,70,93,0
0,63,75,2
0,37,112,0
0,39,115,0
0,51,82,0
0,44,31,0
0,34,98,5
0,56,61,1
0,63,68,0
0,60,64,1
0,60,89,0
0,44,71,0
0,56,68,1
0,60,65,0
0,63,88,0
0,60,60,5
0,63,75,1
0,36,79,0
0,51,55,0
0,32,84,5
0,44,79,65
0,51,82,0
0,36,92,0
0,44,47,0
0,36,79,0
0,51,55,0
0,63,55,1
0,51,82,0
0,70,75,5
0,37,112,0
0,39,115,0
0,44,67,0
0,63,71,2
0,51,46,0
0,51,80,0
0,44,79,0
0,70,75,2
0,63,79,12
0,44,43,0
0,51,55,0
0,62,88,0
0,58,56,1
0,62,73,0
0,65,64,0
0,65,90,0
0,65,67,0
0,58,68,1
0,62,66,0
0,34,82,2
0,37,112,0
0,39,115,0
0,51,69,0
0,44,31,0
0,63,79,77
0,36,79,0
0,44,79,0
0,51,55,0
0,63,63,0
0,63,74,1
0,67,73,1
0,58,64,0
0,67,62,0
0,36,97,0
0,44,72,0
0,49,79,0
0,39,85,4
0,44,56,86
0,63,63,4
0,51,49,0
0,70,39,17
0,37,112,0
0,39,115,0
0,44,43,0
0,58,100,1
0,51,82,0
0,44,71,0
0,63,67,0
0,60,60,3
0,65,58,0
0,68,61,0
0,41,81,1
0,51,53,0
0,58,83,1
0,44,79,0
0,70,59,1
0,51,82,1
0,58,100,1
0,51,51,0
0,44,46,3
0,63,67,3
0,58,95,19
0,37,112,0
0,39,115,0
0,51,82,0
0,44,31,0
0,44,71,0
0,36,79,0
0,51,55,0
0,63,59,1
0,60,100,5
0,58,60,1
0,46,81,1
0,62,60,1
0,44,79,0
0,51,82,0
0,36,92,0
0,44,47,0
0,58,100,1
0,63,63,1
0,36,79,0
0,51,55,0
0,51,82,0
0,70,67,3
0,37,112,0
0,39,115,0
0,63,62,0
0,67,61,0
0,63,43,2
0,44,67,0
0,39,81,3
0,51,46,0
0,55,91,4
0,51,80,0
0,70,71,2
0,44,79,0
0,63,55,14
0,44,43,0
0,51,55,0
0,55,89,17
0,37,112,0
0,39,115,0
0,51,69,0
0,44,31,0
0,56,86,11
0,63,67,2
0,36,79,0
0,44,79,0
0,51,55,0
0,46,67,11
0,36,97,0
0,44,72,0
0,51,79,0
0,58,91,1
0,44,56,13
0,58,86,2
0,51,49,0
0,63,39,2
0,58,89,8
0,70,55,3
0,37,112,0
0,39,115,0
0,44,43,0
0,51,82,0
0,60,61,0
0,68,64,0
0,44,71,0
0,58,94,4
0,63,34,0
0,51,73,1
0,51,53,0
0,44,79,0
0,70,55,2
0,51,82,0
0,56,98,5
0,51,51,0
0,44,46,2
0,63,67,4
0,55,94,8
0,48,50,2
0,37,112,0
0,39,115,0
0,51,82,0
0,44,31,0
0,44,71,0
0,58,58,0
0,65,62,2
0,62,62,1
0,53,109,0
0,63,71,1
0,36,79,0
0,51,55,0
0,53,66,2
0,44,79,91
0,51,82,0
0,36,92,0
0,44,47,0
0,63,55,4
0,36,79,0
0,51,55,0
0,51,82,0
0,70,59,3
0,37,112,0
0,39,115,0
0,44,67,0
0,51,46,0
0,63,35,2
0,51,80,0
0,70,67,2
0,44,79,0
0,63,63,12
0,46,75,2
0,44,43,0
0,51,55,0
0,41,74,14
0,37,112,0
0,39,115,0
0,51,69,0
0,44,31,0
0,46,76,1
0,63,59,0
0,36,79,0
0,44,79,0
0,51,55,0
0,63,63,0
0,67,62,3
0,36,97,0
0,44,72,0
0,51,79,0
0,39,84,3
0,63,93,3
0,67,84,0
0,63,92,1
0,44,56,12
0,63,59,1
0,51,49,0
0,63,83,1
0,70,55,38
0,37,112,0
0,39,115,0
0,60,96,1
0,44,43,0
0,51,82,0
0,44,71,0
0,63,55,1
0,68,102,0
0,60,60,2
0,65,58,0
0,68,61,0
0,55,79,2
0,51,53,0
0,53,68,1
0,65,80,2
0,44,79,0
0,51,82,2
0,70,67,1
0,58,95,8
0,51,51,0
0,44,46,3
0,63,67,7
0,58,105,20
0,37,112,0
0,39,115,0
0,51,82,0
0,44,31,0
0,44,71,0
0,55,80,7
0,36,79,0
0,51,55,0
0,63,55,1
0,62,84,6
0,65,80,0
0,46,78,1
0,58,60,0
0,62,60,2
0,44,79,0
0,51,82,0
0,36,92,0
0,44,47,0
0,60,92,2
0,36,79,0
0,51,55,0
0,63,43,1
0,51,82,0
0,70,55,3
0,37,112,0
0,39,115,0
0,55,88,7
0,63,62,0
0,67,61,0
0,63,93,0
0,44,67,0
0,51,81,2
0,67,84,0
0,51,46,0
0,70,55,15
0,51,90,1
0,51,80,0
0,44,79,0
0,63,63,2
0,44,43,0
0,51,55,0
0,53,90,53
0,37,112,0
0,39,115,0
0,51,69,0
0,44,31,0
0,63,59,2
0,55,83,3
0,36,79,0
0,44,79,0
0,51,55,0
0,63,84,16
0,67,80,2
0,36,97,0
0,44,72,0
0,51,79,0
0,58,92,2
0,44,56,9
0,63,55,1
0,51,70,2
0,51,49,0
0,46,67,5
0,70,38,1
0,37,112,0
0,39,115,0
0,44,43,0
0,51,82,0
0,60,61,0
0,68,64,0
0,63,59,0
0,44,71,0
0,46,65,3
0,63,102,1
0,68,111,0
0,51,53,0
0,44,79,0
0,51,82,2
0,70,67,1
0,56,96,3
0,41,81,2
0,51,51,0
0,63,88,1
0,68,92,2
0,44,46,0
0,56,90,4
0,63,67,1
0,55,96,2
0,37,112,0
0,39,115,0
0,51,82,0
0,44,31,0
0,44,71,0
0,58,58,0
0,65,62,2
0,62,84,0
0,62,62,1
0,46,74,1
0,65,80,0
0,63,67,1
0,36,79,0
0,51,55,0
0,53,100,5
0,44,79,88
0,51,82,0
0,36,92,0
0,44,47,0
0,36,79,0
0,51,55,0
0,63,47,1
0,51,82,0
0,70,67,5
0,37,112,0
0,39,115,0
0,44,67,0
0,63,63,2
0,51,46,0
0,51,80,0
0,46,73,1
0,44,79,0
0,70,67,2
0,46,62,11
0,63,71,1
0,44,43,0
0,51,55,0
0,53,66,4
0,37,112,0
0,39,115,0
0,51,69,0
0,44,31,0
0,63,71,63
0,36,79,0
0,44,79,0
0,63,96,3
0,51,55,0
0,56,60,1
0,63,61,0
0,60,60,2
0,63,86,1
0,36,97,0
0,44,72,0
0,49,79,0
0,41,81,3
0,53,102,3
0,56,102,1
0,44,56,6
0,63,96,1
0,63,63,3
0,51,49,0
0,70,39,2
0,60,96,3
0,37,112,0
0,39,115,0
0,44,43,0
0,51,82,0
0,58,102,0
0,63,102,0
0,58,62,1
0,44,71,0
0,55,60,0
0,63,67,0
0,58,93,1
0,43,83,2
0,51,53,0
0,44,79,0
0,70,59,1
0,51,82,1
0,51,51,0
0,44,46,0
0,63,67,3
0,60,104,2
0,37,112,0
0,39,115,0
0,51,82,0
0,44,31,0
0,56,102,0
0,60,84,0
