track,note,velocity,time
0,35,100,0
0,69,70,0
0,69,70,60
0,69,0,60
0,70,100,60
0,69,70,0
0,69,0,60
0,70,0,0
0,35,100,60
0,69,70,0
0,69,0,60
0,35,0,0
0,69,70,60
0,35,100,0
0,35,0,60
0,69,0,0
0,64,72,60
0,69,70,0
0,64,0,58
0,69,0,2
0,70,100,60
0,75,85,0
0,69,70,0
0,75,0,58
0,69,0,2
0,70,0,0
0,35,100,60
0,69,70,0
0,69,0,60
0,35,0,0
0,69,70,60
0,35,100,0
0,35,0,60
0,69,0,0
0,69,70,60
0,69,0,60
0,70,100,60
0,69,70,0
0,69,0,60
0,70,0,0
0,69,70,60
0,35,100,0
0,35,0,60
0,69,0,0
0,69,70,60
0,35,100,0
0,35,0,60
0,69,0,0
0,69,70,60
0,69,0,60
0,69,70,60
0,57,48,0
0,70,100,0
0,57,48,0
0,75,91,0
0,57,0,12
0,57,0,0
0,57,49,3
0,57,0,12
0,57,49,3
0,57,0,12
0,57,50,3
0,57,0,12
0,75,0,1
0,57,51,2
0,63,57,0
0,70,0,0
0,69,0,0
0,57,0,12
0,57,52,3
0,57,0,12
0,57,53,3
0,57,0,12
0,57,54,3
0,57,0,12
0,63,0,1
0,69,70,2
0,57,55,0
0,63,63,0
0,57,0,12
0,57,56,3
0,57,0,12
0,57,57,3
0,57,0,12
0,57,58,3
0,57,0,12
0,63,0,1
0,63,63,2
0,57,58,0
0,69,0,0
0,57,0,12
0,57,59,3
0,57,0,12
0,57,60,3
0,57,0,12
0,57,61,3
0,57,0,12
0,63,0,1
0,41,83,2
0,57,62,0
0,35,100,0
0,42,90,0
0,48,69,2
0,41,82,0
0,57,0,10
0,57,63,3
0,57,0,12
0,57,64,3
0,57,0,12
0,57,65,3
0,57,0,12
0,57,66,3
0,70,41,0
0,42,0,0
0,35,0,0
0,57,0,12
0,57,67,3
0,57,0,12
0,57,67,3
0,57,67,0
0,57,0,12
0,42,90,18
0,70,0,0
0,70,41,60
0,42,0,0
0,41,0,58
0,38,101,2
0,42,90,0
0,70,100,0
0,70,0,0
0,38,0,58
0,70,41,2
0,70,0,0
0,42,0,0
0,67,80,58
0,64,78,2
0,41,80,0
0,35,100,0
0,42,90,0
0,70,0,0
0,70,41,60
0,42,0,0
0,35,0,0
0,42,70,60
0,35,100,0
0,70,0,0
0,70,41,60
0,35,0,0
0,42,0,0
0,67,67,58
0,64,0,2
0,67,0,0
0,72,96,0
0,36,73,0
0,41,0,0
0,42,90,0
0,64,72,0
0,70,0,0
0,69,88,6
0,65,80,6
0,72,67,4
0,70,41,2
0,42,0,0
0,69,92,2
0,41,73,0
0,42,90,0
0,75,85,0
0,38,101,0
0,70,100,0
0,70,0,0
0,69,64,4
0,41,0,2
0,70,41,2
0,42,0,0
0,70,0,0
0,69,0,24
0,72,89,31
0,41,80,3
0,41,0,0
0,43,73,2
0,67,67,0
0,42,90,0
0,35,100,0
0,70,0,0
0,48,69,2
0,72,62,3
0,41,0,1
0,70,41,7
0,35,0,0
0,42,0,0
0,43,0,58
0,45,83,2
0,35,100,0
0,42,90,0
0,70,0,0
0,52,80,6
0,45,94,2
0,57,0,40
0,70,41,12
0,35,0,0
0,42,0,0
0,42,90,60
0,70,0,0
0,70,41,60
0,42,0,0
0,45,0,58
0,38,101,2
0,70,100,0
0,42,90,0
0,70,0,0
0,65,0,28
0,69,0,12
0,38,0,18
0,70,41,2
0,70,0,0
0,42,0,0
0,45,89,60
0,42,90,0
0,35,100,0
0,70,0,0
0,67,80,4
0,64,78,2
0,70,41,54
0,35,0,0
0,42,0,0
0,67,0,53
0,42,90,7
0,35,100,0
0,70,0,0
0,72,0,4
0,72,0,46
0,70,41,10
0,35,0,0
0,42,0,0
0,67,86,3
0,45,80,0
0,45,0,0
0,42,90,0
0,70,0,0
0,64,58,1
0,69,82,1
0,65,82,2
0,67,60,3
0,70,41,4
0,42,0,0
0,75,91,0
0,42,90,0
0,38,101,0
0,70,100,0
0,70,0,0
0,63,57,2
0,70,41,0
0,42,0,0
0,70,0,0
0,67,0,4
0,45,82,40
0,52,66,2
0,65,86,7
0,45,0,5
0,63,0,0
0,40,71,2
0,63,63,0
0,42,90,0
0,70,0,0
0,62,60,10
0,45,0,16
0,52,0,10
0,65,60,3
0,40,0,19
0,63,0,0
0,41,92,2
0,63,63,0
0,70,41,0
0,42,0,0
0,41,0,58
0,63,0,0
0,46,80,2
0,53,73,0
0,38,75,0
0,42,90,0
0,35,100,0
0,70,0,0
0,70,41,60
0,35,0,0
0,42,0,0
0,42,90,60
0,70,0,0
0,70,41,60
0,42,0,0
0,69,0,54
0,65,0,0
0,38,0,4
0,38,101,2
0,70,100,0
0,42,90,0
0,70,0,0
0,38,0,58
0,70,41,2
0,70,0,0
0,42,0,0
0,69,84,54
0,65,71,0
0,38,83,6
0,35,100,0
0,42,90,0
0,70,0,0
0,70,41,60
0,42,0,0
0,35,0,0
0,42,70,60
0,35,100,0
0,70,0,0
0,62,0,43
0,70,41,17
0,35,0,0
0,42,0,0
0,65,0,34
0,62,60,23
0,67,75,1
0,64,75,2
0,65,0,0
0,69,0,0
0,34,67,0
0,38,0,0
0,42,90,0
0,64,72,0
0,70,0,0
0,62,86,2
0,65,0,18
0,62,0,12
0,62,0,3
0,62,60,13
0,64,0,10
0,70,41,2
0,42,0,0
0,62,0,18
0,64,60,34
0,67,86,2
0,34,0,4
0,38,80,2
0,42,90,0
0,75,85,0
0,38,101,0
0,70,100,0
0,70,0,0
0,67,60,4
0,70,41,0
0,42,0,0
0,70,0,0
0,46,66,12
0,53,71,4
0,36,77,0
0,42,90,0
0,35,100,0
0,70,0,0
0,70,41,2
0,35,0,0
0,42,0,0
0,48,84,60
0,55,73,0
0,36,83,0
0,35,100,0
0,42,90,0
0,70,0,0
0,70,41,60
0,42,0,0
0,35,0,0
0,42,90,60
0,70,0,0
0,70,41,60
0,42,0,0
0,67,0,60
0,42,90,0
0,38,101,0
0,70,100,0
0,70,0,0
0,64,0,4
0,36,0,54
0,38,0,0
0,70,41,2
0,42,0,0
0,70,0,0
0,36,89,60
0,35,100,0
0,42,90,0
0,70,0,0
0,62,66,8
0,65,73,0
0,70,41,52
0,42,0,0
0,35,0,0
0,64,0,33
0,42,90,27
0,35,100,0
0,70,0,0
0,70,41,60
0,35,0,0
0,42,0,0
0,67,0,20
0,64,84,40
0,67,94,0
0,65,0,0
0,62,0,0
0,65,92,0
0,31,75,0
0,36,0,0
0,42,90,0
0,70,0,0
0,67,0,6
0,65,0,26
0,65,64,14
0,70,41,14
0,42,0,0
0,65,0,18
0,31,0,40
0,36,71,2
0,70,100,0
0,75,91,0
0,38,101,0
0,42,90,0
0,70,0,0
0,60,80,6
0,60,56,16
0,38,0,6
0,75,0,0
0,63,57,2
0,70,41,0
0,70,0,0
0,42,0,0
0,55,66,32
0,48,82,2
0,31,83,0
0,63,63,0
0,42,90,0
0,70,0,0
0,63,63,2
0,70,41,0
0,42,0,0
0,31,0,58
0,63,0,0
0,41,77,2
0,42,90,0
0,35,100,0
0,70,0,0
0,45,80,4
0,48,66,2
0,41,80,4
0,70,41,50
0,35,0,0
0,42,0,0
0,42,90,60
0,70,0,0
0,70,41,60
0,42,0,0
0,70,100,60
0,38,101,0
0,42,90,0
0,70,0,0
0,67,0,10
0,64,0,2
0,41,0,46
0,38,0,0
0,70,41,2
0,70,0,0
0,42,0,0
0,67,75,58
0,64,75,0
0,41,83,2
0,35,100,0
0,42,90,0
0,70,0,0
0,70,41,60
0,42,0,0
0,35,0,0
0,60,0,55
0,42,70,5
0,35,100,0
0,70,0,0
0,60,0,41
0,70,41,19
0,35,0,0
0,42,0,0
0,72,86,47
0,65,78,13
0,69,88,0
0,64,0,0
0,67,0,0
0,36,77,0
0,41,0,0
0,64,72,0
0,42,90,0
0,70,0,0
0,67,64,7
0,72,60,3
0,70,41,1
0,42,0,0
0,69,83,3
0,41,73,2
0,38,101,0
0,42,90,0
0,70,100,0
0,75,85,0
0,70,0,0
0,69,58,3
0,72,0,6
0,41,0,14
0,38,0,0
0,75,0,0
0,70,41,2
0,42,0,0
0,70,0,0
0,69,0,15
0,72,83,36
0,41,80,5
0,67,67,1
0,48,69,1
0,41,73,2
0,35,100,0
0,42,90,0
0,70,0,0
0,72,58,2
0,43,80,2
0,70,41,0
0,42,0,0
0,35,0,0
0,43,0,58
0,45,86,2
0,42,90,0
0,35,100,0
0,70,0,0
0,45,94,4
0,52,75,4
0,70,41,52
0,35,0,0
0,42,0,0
0,42,90,60
0,70,0,0
0,70,41,60
0,42,0,0
0,65,0,48
0,45,0,10
0,38,101,2
0,70,100,0
0,42,90,0
0,70,0,0
0,69,0,2
0,38,0,56
0,70,41,2
0,70,0,0
0,42,0,0
0,67,80,58
0,64,73,2
0,45,89,0
0,35,100,0
0,42,90,0
0,70,0,0
0,70,41,60
0,42,0,0
0,35,0,0
0,35,100,60
0,42,90,0
0,70,0,0
0,72,0,7
0,67,0,25
0,72,0,21
0,70,41,7
0,42,0,0
0,35,0,0
0,67,83,50
0,45,80,0
0,45,0,0
0,42,90,0
0,70,0,0
0,65,78,2
0,69,80,0
0,64,58,5
0,67,58,0
0,70,41,10
0,42,0,0
0,38,101,0
0,75,91,0
0,70,100,0
0,42,90,0
0,70,0,0
0,70,41,2
0,63,57,0
0,70,0,0
0,42,0,0
0,65,80,50
0,45,0,8
0,63,0,0
0,52,70,2
0,40,75,0
0,63,63,0
0,42,90,0
0,70,0,0
0,45,88,4
0,62,60,11
0,65,56,21
0,45,0,6
0,52,0,4
0,40,0,12
0,63,0,0
0,41,75,2
0,70,41,0
0,63,63,0
0,42,0,0
0,41,0,58
0,63,0,0
0,38,89,2
0,35,100,0
0,42,90,0
0,70,0,0
0,46,75,8
0,53,67,0
0,50,66,4
0,70,41,48
0,42,0,0
0,35,0,0
0,42,90,60
0,70,0,0
0,70,41,60
0,42,0,0
0,65,0,50
0,69,0,2
0,38,0,6
0,42,90,2
0,70,100,0
0,38,101,0
0,70,0,0
0,38,0,58
0,70,41,2
0,70,0,0
0,42,0,0
0,65,71,56
0,69,75,2
0,38,73,2
0,42,90,0
0,35,100,0
0,70,0,0
0,70,41,60
0,35,0,0
0,42,0,0
0,35,100,60
0,42,70,0
0,70,0,0
0,65,0,15
0,62,0,27
0,70,41,18
0,42,0,0
0,35,0,0
0,65,0,1
0,62,86,52
0,69,0,7
0,65,0,0
0,34,69,0
0,38,0,0
0,64,72,0
0,42,90,0
0,70,0,0
0,67,78,2
0,64,75,0
0,62,62,6
0,62,0,14
0,62,60,17
0,62,0,13
0,64,0,6
0,70,41,2
0,42,0,0
0,62,0,8
0,67,83,40
0,34,0,10
0,38,77,2
0,64,56,0
0,38,101,0
0,75,85,0
0,70,100,0
0,42,90,0
0,70,0,0
0,53,0,8
0,67,58,1
0,70,41,0
0,70,0,0
0,42,0,0
0,46,64,2
0,36,89,0
0,35,100,0
0,42,90,0
0,70,0,0
0,50,84,2
0,53,70,2
0,70,41,2
0,42,0,0
0,35,0,0
0,36,80,60
0,42,90,0
0,35,100,0
0,70,0,0
0,55,69,4
0,48,84,2
0,70,41,54
0,35,0,0
0,42,0,0
0,42,90,60
0,70,0,0
0,70,41,60
0,42,0,0
0,67,0,40
0,64,0,10
0,42,90,10
0,70,100,0
0,38,101,0
0,70,0,0
0,38,0,58
0,70,41,2
0,70,0,0
0,42,0,0
0,36,0,58
0,31,80,2
0,42,90,0
0,35,100,0
0,70,0,0
0,62,75,4
0,65,80,0
0,70,41,56
0,35,0,0
0,42,0,0
0,64,0,16
0,35,100,44
0,42,90,0
0,70,0,0
0,67,0,23
0,70,41,37
0,42,0,0
0,35,0,0
0,67,0,9
0,65,96,46
0,67,97,1
0,64,88,0
0,65,0,4
0,62,0,0
0,31,73,0
0,31,0,0
0,42,90,0
0,70,0,0
0,65,0,23
0,65,67,18
0,70,41,19
0,42,0,0
0,65,0,9
0,60,89,40
0,31,0,9
0,36,86,2
0,75,91,0
0,70,100,0
0,42,90,0
0,38,101,0
0,70,0,0
0,60,62,11
0,70,41,1
0,63,57,0
0,70,0,0
0,42,0,0
0,55,67,2
0,31,80,0
0,42,90,0
0,63,63,0
0,70,0,0
0,48,80,2
0,63,63,2
0,70,41,0
0,42,0,0
0,31,0,58
0,63,0,0
0,65,63,2
0,69,77,0
0,41,80,0
0,48,60,0
0,41,69,0
0,72,63,0
0,48,69,0
0,41,110,0
0,35,100,0
0,42,90,0
0,49,69,0
0,70,0,0
0,70,41,60
0,35,0,0
0,42,0,0
0,42,90,60
0,70,0,0
0,65,77,2
0,65,0,43
0,70,41,15
0,42,0,0
0,65,80,57
0,41,0,1
0,37,101,2
0,42,90,0
0,70,100,0
0,70,0,0
0,72,0,58
0,69,0,0
0,65,0,0
0,37,0,0
0,70,41,2
0,70,0,0
0,42,0,0
0,67,69,57
0,65,0,1
0,72,61,2
0,65,61,0
0,69,65,0
0,41,106,0
0,42,90,0
0,35,100,0
0,70,0,0
0,70,41,60
0,35,0,0
0,42,0,0
0,49,0,54
0,67,0,6
0,42,70,0
0,35,100,0
0,70,0,0
0,69,75,2
0,70,41,58
0,35,0,0
0,42,0,0
0,64,72,60
0,42,90,0
0,70,0,0
0,64,0,58
0,70,41,2
0,42,0,0
0,72,67,56
0,69,75,4
0,65,62,0
0,72,60,0
0,69,0,0
0,65,0,0
0,72,0,0
0,41,0,0
0,41,0,0
0,42,90,0
0,70,100,0
0,75,85,0
0,70,0,0
0,67,0,10
0,69,0,0
0,74,71,1
0,64,0,3
0,48,0,2
0,72,0,8
0,75,0,34
0,70,41,2
0,70,0,0
0,42,0,0
0,74,0,52
0,60,0,1
0,41,0,5
0,48,0,0
0,41,87,2
0,35,100,0
0,42,90,0
0,70,0,0
0,72,67,1
0,60,0,38
0,70,41,21
0,42,0,0
0,35,0,0
0,65,0,58
0,69,0,0
0,72,0,0
0,41,0,0
0,52,60,2
0,45,75,0
0,45,99,0
0,42,90,0
0,35,100,0
0,70,0,0
0,70,41,60
0,35,0,0
0,42,0,0
0,74,69,59
0,42,90,1
0,70,0,0
0,72,0,2
0,74,0,32
0,70,41,26
0,42,0,0
0,37,101,60
0,70,100,0
0,42,90,0
0,70,0,0
0,45,0,58
0,37,0,0
0,70,41,2
0,70,0,0
0,42,0,0
0,64,69,60
0,60,65,0
0,40,92,0
0,42,90,0
0,35,100,0
0,70,0,0
0,70,41,60
0,35,0,0
0,42,0,0
0,35,100,60
0,42,90,0
0,70,0,0
0,70,41,60
0,42,0,0
0,35,0,0
0,42,90,60
0,70,0,0
0,70,41,60
0,42,0,0
0,64,77,60
0,60,64,0
0,60,0,0
0,64,0,0
0,40,0,0
0,75,91,0
0,42,90,0
0,70,100,0
0,70,0,0
0,52,0,58
0,45,0,0
0,75,0,0
0,70,41,2
0,63,57,0
0,42,0,0
0,70,0,0
0,72,69,48
0,60,0,10
0,64,0,0
0,63,0,0
0,40,96,2
0,42,90,0
0,63,63,0
0,70,0,0
0,72,0,21
0,72,65,25
0,63,0,12
0,63,63,2
0,70,41,0
0,42,0,0
0,40,0,58
0,63,0,0
0,76,71,1
0,62,67,1
0,46,69,0
0,65,80,0
0,38,99,0
0,35,100,0
0,42,90,0
0,70,0,0
0,72,0,8
0,70,41,52
0,42,0,0
0,35,0,0
0,42,90,60
0,70,0,0
0,70,41,3
0,42,0,0
0,53,65,2
0,42,90,0
0,70,100,0
0,37,101,0
0,70,0,0
0,72,67,3
0,70,41,2
0,70,0,0
0,42,0,0
0,62,63,60
0,70,63,0
0,41,99,0
0,35,100,0
0,42,90,0
0,70,0,0
0,72,67,16
0,70,41,44
0,42,0,0
0,35,0,0
0,42,70,60
0,35,100,0
0,70,0,0
0,70,41,60
0,35,0,0
0,42,0,0
0,64,72,60
0,42,90,0
0,70,0,0
0,64,0,58
0,70,41,2
0,42,0,0
0,72,0,25
0,69,67,7
