track,note,velocity,time
0,34,72,768
0,46,72,0
0,62,72,0
0,65,76,0
0,65,68,0
0,69,20,0
0,35,55,0
0,69,20,84
0,69,20,84
0,69,20,84
0,46,76,12
0,62,68,0
0,65,84,0
0,65,64,0
0,69,20,0
0,40,52,0
0,69,20,84
0,69,20,44
0,51,68,0
0,58,76,0
0,63,80,0
0,67,72,0
0,67,56,0
0,69,20,0
0,35,29,0
0,39,54,76
0,69,20,0
0,35,55,0
0,69,20,84
0,69,20,84
0,69,20,84
0,51,60,0
0,69,20,0
0,40,52,0
0,69,20,84
0,69,20,84
0,69,20,84
0,35,32,0
0,34,62,0
0,46,80,0
0,62,66,0
0,65,84,0
0,65,68,0
0,69,20,0
0,35,55,0
0,69,20,84
0,69,20,84
0,69,20,84
0,38,68,0
0,50,76,0
0,65,80,0
0,70,64,0
0,70,62,0
0,69,20,0
0,40,52,0
0,69,20,80
0,69,20,84
0,39,60,0
0,58,64,0
0,51,64,0
0,63,58,0
0,67,72,0
0,67,62,0
0,69,20,0
0,35,32,0
0,69,20,84
0,35,55,0
0,69,20,84
0,69,20,84
0,69,20,84
0,51,62,0
0,69,20,0
0,40,52,0
0,69,20,84
0,69,20,84
0,69,20,84
0,35,31,0
0,34,62,0
0,46,76,0
0,62,76,0
0,65,84,0
0,65,68,0
0,69,20,0
0,35,55,0
0,69,20,68
0,69,20,84
0,69,20,84
0,38,68,0
0,50,80,0
0,65,76,0
0,70,66,0
0,70,62,0
0,69,20,0
0,40,52,0
0,69,20,80
0,69,20,84
0,39,60,0
0,58,72,0
0,51,62,0
0,63,62,0
0,67,68,0
0,67,62,0
0,69,20,0
0,35,32,0
0,69,20,84
0,35,55,0
0,69,20,84
0,69,20,84
0,69,20,84
0,51,68,0
0,69,20,0
0,40,52,0
0,69,20,84
0,69,20,84
0,69,20,84
0,35,31,0
0,34,62,0
0,46,66,0
0,62,62,0
0,65,80,0
0,65,68,0
0,69,20,0
0,35,55,0
0,69,20,68
0,69,20,84
0,69,20,84
0,38,68,0
0,50,76,0
0,65,76,0
0,70,60,0
0,70,62,0
0,69,20,0
0,40,52,0
0,69,20,80
0,69,20,84
0,39,60,0
0,58,64,0
0,51,62,0
0,63,66,0
0,67,58,0
0,67,62,0
0,69,20,0
0,35,32,0
0,69,20,84
0,35,55,0
0,69,20,84
0,69,20,84
0,69,20,84
0,51,68,0
0,69,20,0
0,40,52,0
0,69,20,84
0,69,20,84
0,69,20,84
0,35,31,0
0,56,52,0
0,60,62,0
0,56,64,0
0,63,66,0
0,69,20,0
0,35,55,0
0,59,39,0
0,69,20,68
0,69,20,84
0,69,20,84
0,72,84,84
0,69,20,0
0,40,52,0
0,75,84,84
0,69,20,0
0,69,20,84
0,75,66,12
0,69,20,0
0,35,29,0
0,55,62,0
0,58,68,0
0,63,66,0
0,67,60,0
0,69,20,0
0,35,55,0
0,75,80,8
0,69,20,0
0,69,20,4
0,74,64,0
0,69,20,0
0,69,20,84
0,40,52,0
0,75,84,4
0,69,20,0
0,69,20,84
0,53,28,16
0,72,76,0
0,69,20,0
0,35,32,0
0,53,54,0
0,60,72,0
0,56,64,0
0,53,80,0
0,69,20,0
0,35,55,0
0,70,62,0
0,69,20,0
0,69,20,84
0,69,20,84
0,69,20,84
0,40,52,0
0,69,20,84
0,69,20,0
0,63,72,84
0,69,20,0
0,35,32,0
0,51,44,0
0,58,64,0
0,51,56,0
0,55,72,0
0,67,80,0
0,69,20,0
0,35,55,0
0,69,20,64
0,70,62,4
0,69,20,0
0,69,20,84
0,69,20,84
0,40,52,0
0,67,66,20
0,69,20,0
0,65,76,0
0,63,68,4
0,69,20,0
0,69,20,84
0,35,31,0
0,56,56,0
0,60,76,0
0,56,66,0
0,63,64,0
0,69,20,0
0,35,55,0
0,69,20,84
0,69,20,84
0,69,20,84
0,69,20,84
0,40,52,0
0,69,20,84
0,75,64,84
0,69,20,0
0,75,62,4
0,69,20,0
0,35,32,0
0,55,58,0
0,63,68,0
0,58,66,0
0,67,80,0
0,75,80,0
0,69,20,0
0,35,55,0
0,70,69,8
0,69,20,0
0,69,20,84
0,70,88,8
0,69,20,0
0,69,20,84
0,40,52,0
0,67,72,4
0,69,20,0
0,69,20,84
0,72,68,8
0,69,20,0
0,35,32,0
0,53,54,0
0,56,68,0
0,53,72,0
0,63,58,0
0,69,20,0
0,35,55,0
0,69,20,84
0,69,20,84
0,69,20,84
0,69,20,84
0,40,52,0
0,69,20,84
0,69,20,84
0,69,20,84
0,35,31,0
0,53,62,0
0,69,20,0
0,35,55,0
0,63,54,84
0,69,20,0
0,68,66,0
0,69,20,0
0,72,68,0
0,69,20,0
0,69,20,84
0,40,52,0
0,69,20,84
0,69,20,84
0,69,20,84
0,35,29,0
0,56,56,0
0,56,64,0
0,60,76,0
0,63,66,0
0,69,20,0
0,35,55,0
0,69,20,72
0,69,20,84
0,68,68,84
0,69,20,0
0,72,72,0
0,69,20,0
0,40,52,0
0,75,68,0
0,69,20,0
0,69,20,84
0,75,64,12
0,69,20,0
0,35,29,0
0,55,52,0
0,58,66,0
0,63,64,0
0,67,58,0
0,69,20,0
0,35,55,0
0,75,64,84
0,69,20,0
0,69,20,84
0,75,60,12
0,69,20,0
0,74,50,4
0,69,20,0
0,40,52,0
0,75,84,8
0,69,20,0
0,69,20,84
0,51,42,0
0,72,76,0
0,69,20,0
0,35,32,0
0,53,54,0
0,56,62,0
0,53,66,0
0,60,68,0
0,69,20,0
0,35,55,0
0,70,62,4
0,69,20,0
0,69,20,84
0,69,20,84
0,69,20,84
0,40,52,0
0,69,20,84
0,69,20,84
0,50,48,8
0,63,62,0
0,69,20,0
0,35,32,0
0,51,50,0
0,55,68,0
0,51,62,0
0,58,68,0
0,67,76,0
0,69,20,0
0,35,55,0
0,69,20,76
0,70,64,0
0,69,20,0
0,69,20,84
0,69,20,84
0,40,52,0
0,67,66,52
0,69,20,0
0,65,76,0
0,63,76,0
0,69,20,0
0,69,20,84
0,35,31,0
0,56,48,0
0,60,72,0
0,56,62,0
0,63,66,0
0,69,20,0
0,35,55,0
0,69,20,68
0,69,20,84
0,70,52,8
0,69,20,0
0,72,80,4
0,69,20,0
0,40,52,0
0,69,20,84
0,75,76,8
0,69,20,0
0,69,20,84
0,35,32,0
0,55,44,0
0,58,68,0
0,63,66,0
0,67,68,0
0,77,84,0
0,69,20,0
0,35,55,0
0,69,20,84
0,69,20,84
0,69,20,84
0,79,68,4
0,69,20,0
0,40,52,0
0,69,20,84
0,69,20,84
0,69,20,84
0,35,32,0
0,53,44,0
0,41,50,0
0,56,72,0
0,53,84,0
0,63,72,0
0,77,92,0
0,69,20,0
0,35,55,0
0,69,20,84
0,75,72,12
0,69,20,0
0,69,20,84
0,69,20,84
0,40,52,0
0,67,56,12
0,69,20,0
0,68,68,12
0,69,20,0
0,75,72,12
0,69,20,0
0,35,31,0
0,69,20,84
0,35,55,0
0,69,20,84
0,69,20,84
0,67,66,12
0,69,20,0
0,69,20,12
0,40,52,0
0,65,68,0
0,69,20,0
0,69,20,0
0,46,45,0
0,63,76,4
0,69,20,0
0,35,29,0
0,65,52,36
0,70,56,0
0,62,38,0
0,34,52,4
0,46,72,0
0,62,72,0
0,65,68,0
0,65,64,0
0,70,48,0
0,65,60,0
0,62,46,0
0,69,20,0
0,42,35,0
0,35,55,0
0,69,20,84
0,69,20,84
0,69,20,84
0,46,72,0
0,62,64,0
0,65,64,0
0,65,66,0
0,62,60,0
0,70,56,0
0,65,31,0
0,69,20,0
0,40,52,0
0,69,20,84
0,69,20,72
0,67,46,4
0,63,56,0
0,51,68,0
0,58,66,0
0,63,72,0
0,67,68,0
0,67,66,0
0,67,56,0
0,63,62,0
0,69,20,0
0,35,29,0
0,39,58,80
0,69,20,0
0,35,55,0
0,69,20,44
0,69,20,84
0,69,20,84
0,51,80,0
0,69,20,0
0,40,52,0
0,69,20,84
0,70,76,12
0,69,20,0
0,70,68,12
0,69,20,0
0,35,32,0
0,62,48,36
0,70,50,0
0,65,62,0
0,34,56,0
0,46,80,0
0,62,66,0
0,65,76,0
0,65,66,0
0,65,66,0
0,62,46,0
0,70,52,0
0,69,20,0
0,35,55,0
0,69,20,84
0,69,20,84
0,69,20,84
0,38,76,0
0,50,84,0
0,65,72,0
0,70,68,0
0,70,60,0
0,69,20,0
0,40,52,0
0,69,20,84
0,69,20,84
0,39,54,0
0,58,72,0
0,51,62,0
0,63,62,0
0,67,72,0
0,67,64,0
0,63,64,0
0,67,64,0
0,69,20,0
0,35,32,0
0,70,52,0
0,67,60,0
0,63,62,0
0,69,20,8
0,35,55,0
0,69,20,52
0,69,20,84
0,69,20,84
0,51,64,0
0,69,20,0
0,40,52,0
0,69,20,16
0,69,20,84
0,69,20,12
0,46,25,0
0,35,31,0
0,62,42,0
0,65,66,0
0,34,56,0
0,46,80,0
0,62,68,0
0,65,84,0
0,65,68,0
0,65,66,0
0,62,62,0
0,70,58,0
0,69,20,0
0,35,55,0
0,69,20,84
0,69,20,84
0,69,20,52
0,46,84,12
0,62,64,0
0,65,76,0
0,65,66,0
0,65,60,0
0,70,58,0
0,62,62,0
0,69,20,0
0,40,52,0
0,69,20,84
0,69,20,84
0,58,84,0
0,51,60,0
0,63,64,0
0,67,68,0
0,67,68,0
0,67,56,0
0,63,60,0
0,69,20,0
0,35,32,0
0,67,54,16
0,63,54,0
0,39,54,12
0,69,20,0
0,35,55,0
0,69,20,24
0,69,20,84
0,58,62,12
0,69,20,0
0,51,88,0
0,67,80,0
0,69,20,0
0,40,52,0
0,69,20,84
0,65,72,12
0,58,40,0
0,69,20,0
0,63,76,4
0,69,20,0
0,35,32,0
0,68,60,0
0,60,56,0
0,41,68,0
0,53,76,0
0,56,66,0
0,63,76,0
0,66,54,0
0,60,60,0
0,63,72,0
0,68,64,0
0,69,20,0
0,35,55,0
0,69,20,72
0,60,66,12
0,69,20,0
0,67,84,12
0,69,20,0
0,67,62,36
0,58,62,0
0,36,54,0
0,53,66,0
0,56,68,0
0,63,64,0
0,65,64,0
0,67,72,0
0,63,68,0
0,58,64,0
0,69,20,0
0,40,52,0
0,65,72,12
0,69,20,0
0,69,20,84
0,34,50,0
0,62,80,0
0,58,66,0
0,63,54,0
0,62,68,0
0,65,76,0
0,58,40,0
0,69,20,0
0,35,31,0
0,62,54,36
0,65,66,0
0,69,20,36
0,35,55,0
0,69,20,84
0,69,20,84
0,69,20,84
0,70,67,84
0,69,20,0
0,40,52,0
0,70,64,8
0,69,20,0
0,70,67,8
0,68,66,0
0,69,20,0
0,46,19,0
0,69,20,12
0,46,19,0
0,35,29,0
0,70,58,20
0,34,58,0
0,46,72,0
0,62,86,0
0,65,86,0
0,63,58,0
0,65,66,0
0,70,62,0
0,62,64,0
0,69,20,0
0,42,25,0
0,35,55,0
0,69,20,84
0,69,20,84
0,69,20,84
0,46,76,8
0,62,70,0
0,65,70,0
0,63,56,0
0,65,72,0
0,70,56,0
0,62,62,0
0,69,20,0
0,40,52,0
0,69,20,84
0,69,20,84
0,58,68,0
0,51,64,0
0,63,70,0
0,67,70,0
0,65,62,0
0,67,66,0
0,63,58,0
0,70,64,0
0,69,20,0
0,35,29,0
0,67,52,36
0,63,52,0
0,39,56,48
0,69,20,0
0,35,55,0
0,69,20,76
0,69,20,84
0,69,20,84
0,51,76,0
0,69,20,0
0,40,52,0
0,69,20,84
0,70,84,8
0,69,20,0
0,69,20,12
0,35,32,0
0,65,56,12
0,62,52,0
0,34,54,0
0,46,80,0
0,62,80,0
0,65,76,0
0,65,64,0
0,62,64,0
0,65,62,0
0,70,56,0
0,69,20,0
0,35,55,0
0,69,20,60
0,69,20,84
0,69,20,84
0,38,60,0
0,50,84,0
0,65,76,0
0,70,64,0
0,70,62,0
0,65,60,0
0,70,44,0
0,62,54,0
0,69,20,0
0,40,52,0
0,69,20,84
0,69,20,84
0,39,52,0
0,58,64,0
0,51,66,0
0,63,66,0
0,67,66,0
0,67,58,0
0,67,62,0
0,63,64,0
0,70,56,0
0,69,20,0
0,35,32,0
0,67,54,36
0,63,56,0
0,69,20,0
0,35,55,0
0,69,20,84
0,69,20,84
0,69,20,84
0,51,76,0
0,69,20,0
0,40,52,0
0,69,20,84
0,67,68,8
0,69,20,0
0,65,68,8
0,69,20,0
0,46,23,0
0,35,31,0
0,62,52,36
0,65,52,0
0,34,52,0
0,46,76,0
0,62,72,0
0,65,68,0
0,65,56,0
0,62,54,0
0,65,66,0
0,70,52,0
0,69,20,0
0,35,55,0
0,69,20,32
0,69,20,84
0,69,20,84
0,46,76,8
0,62,72,0
0,65,76,0
0,65,66,0
0,65,66,0
0,62,64,0
0,70,56,0
0,69,20,0
0,40,52,0
0,69,20,84
0,69,20,84
0,58,80,0
0,51,68,0
0,63,80,0
0,67,72,0
0,67,56,0
0,67,68,0
0,63,66,0
0,70,54,0
0,69,20,0
0,35,32,0
0,67,38,20
0,63,50,0
0,39,52,16
0,69,20,0
0,35,55,0
0,69,20,84
0,69,20,84
0,58,78,8
0,69,20,0
0,51,66,0
0,67,84,0
0,69,20,0
0,40,52,0
0,69,20,24
0,65,80,8
0,58,52,0
0,69,20,0
0,63,44,4
0,69,20,0
0,35,32,0
0,68,64,24
0,63,56,0
0,60,58,0
0,41,66,0
0,53,62,0
0,56,68,0
0,63,80,0
0,66,64,0
0,60,64,0
0,63,58,0
0,68,60,0
0,69,20,0
0,35,55,0
0,69,20,48
0,60,52,8
0,69,20,0
0,67,84,8
0,69,20,0
0,67,58,8
0,58,56,0
0,36,54,8
0,53,80,0
0,63,76,0
0,56,72,0
0,65,66,0
0,58,66,0
0,63,68,0
0,67,66,0
0,69,20,0
0,40,52,0
0,65,76,8
0,69,20,0
0,69,20,84
0,34,46,0
0,62,54,0
0,58,66,0
0,63,39,0
0,62,80,0
0,65,76,0
0,58,56,0
0,69,20,0
0,35,31,0
0,62,44,36
0,65,58,0
0,69,20,40
0,35,55,0
0,70,66,84
0,69,20,0
0,69,20,84
0,68,52,84
0,69,20,0
0,69,20,84
0,40,52,0
0,54,92,0
0,69,20,20
0,51,50,84
0,69,20,0
0,69,20,4
0,35,29,0
0,56,58,0
0,56,64,0
0,60,72,0
0,63,68,0
0,72,66,0
0,69,20,0
0,35,55,0
0,69,20,84
0,69,20,84
0,69,20,84
0,72,84,84
0,69,20,0
0,40,52,0
0,75,84,84
0,69,20,0
0,69,20,84
0,75,66,12
0,69,20,0
0,35,29,0
0,55,56,0
0,63,72,0
0,58,66,0
0,67,60,0
0,70,52,0
0,69,20,0
0,35,55,0
0,75,80,8
0,69,20,0
0,69,20,84
0,74,64,0
0,69,20,0
0,69,20,84
0,40,52,0
0,75,84,4
0,69,20,0
0,46,54,16
0,69,20,0
0,51,52,16
0,72,76,0
0,69,20,0
0,35,32,0
0,53,39,0
0,53,84,0
0,60,88,0
0,56,72,0
0,68,56,0
0,69,20,0
0,35,55,0
0,70,62,0
0,69,20,0
0,69,20,84
0,69,20,84
0,69,20,84
0,40,52,0
0,69,20,84
0,60,50,84
0,69,20,0
0,50,31,0
0,63,72,0
0,58,40,0
0,69,20,0
0,35,32,0
0,51,60,0
0,58,64,0
0,51,58,0
0,55,80,0
0,67,80,0
0,67,64,0
0,69,20,0
0,35,55,0
0,69,20,68
0,70,62,4
0,69,20,0
0,69,20,52
0,69,20,84
0,40,52,0
0,67,66,20
0,69,20,0
0,65,76,0
0,63,68,4
0,69,20,0
0,55,56,20
0,69,20,0
0,35,31,0
0,56,56,0
0,56,62,0
0,60,72,0
0,63,64,0
0,72,68,0
0,69,20,0
0,35,55,0
0,69,20,72
0,69,20,84
0,69,20,84
0,69,20,84
0,40,52,0
0,69,20,84
0,75,64,84
0,69,20,0
0,57,46,4
0,75,62,0
0,69,20,0
0,35,32,0
0,58,40,0
0,58,56,0
0,63,66,0
0,67,64,0
0,75,76,0
0,70,56,0
0,69,20,0
0,35,55,0
