track,note,velocity,time
1.0,68.0,95.0,768.0
1.0,63.0,95.0,0.0
1.0,72.0,95.0,0.0
1.0,75.0,95.0,2.0
1.0,72.0,95.0,0.0
1.0,68.0,95.0,0.0
1.0,70.0,95.0,2.0
1.0,67.0,95.0,0.0
1.0,63.0,95.0,0.0
1.0,75.0,95.0,2.0
1.0,67.0,95.0,0.0
1.0,70.0,95.0,0.0
1.0,75.0,95.0,2.0
1.0,72.0,95.0,0.0
1.0,68.0,95.0,0.0
1.0,65.0,95.0,0.0
1.0,75.0,95.0,2.0
1.0,72.0,95.0,0.0
1.0,68.0,95.0,0.0
1.0,65.0,95.0,0.0
1.0,75.0,95.0,2.0
1.0,72.0,95.0,0.0
1.0,68.0,95.0,0.0
1.0,65.0,95.0,0.0
1.0,67.0,95.0,2.0
1.0,70.0,95.0,0.0
1.0,75.0,95.0,0.0
1.0,72.0,95.0,2.0
1.0,68.0,95.0,0.0
1.0,63.0,95.0,0.0
1.0,75.0,95.0,480.0
1.0,75.0,95.0,2.0
1.0,75.0,95.0,2.0
1.0,75.0,95.0,2.0
1.0,75.0,95.0,2.0
1.0,75.0,95.0,2.0
1.0,75.0,95.0,2.0
1.0,75.0,95.0,0.0
1.0,63.0,95.0,0.0
1.0,68.0,95.0,0.0
1.0,72.0,95.0,0.0
1.0,68.0,95.0,0.0
1.0,72.0,95.0,0.0
1.0,67.0,95.0,2.0
1.0,63.0,95.0,0.0
1.0,70.0,95.0,672.0
1.0,72.0,95.0,48.0
1.0,68.0,95.0,0.0
1.0,75.0,95.0,2.0
1.0,75.0,95.0,2.0
1.0,75.0,95.0,2.0
1.0,70.0,95.0,2.0
1.0,68.0,95.0,2.0
1.0,65.0,95.0,2.0
1.0,70.0,95.0,2.0
1.0,75.0,95.0,2.0
1.0,68.0,95.0,0.0
1.0,65.0,95.0,0.0
1.0,75.0,95.0,2.0
1.0,68.0,95.0,0.0
1.0,65.0,95.0,0.0
1.0,75.0,95.0,2.0
1.0,70.0,95.0,0.0
1.0,67.0,95.0,0.0
1.0,63.0,95.0,2.0
1.0,68.0,95.0,0.0
1.0,72.0,95.0,0.0
1.0,75.0,95.0,576.0
1.0,75.0,95.0,2.0
1.0,75.0,95.0,2.0
1.0,75.0,95.0,2.0
1.0,75.0,95.0,2.0
1.0,63.0,95.0,0.0
1.0,68.0,95.0,0.0
1.0,72.0,95.0,2.0
1.0,68.0,95.0,2.0
1.0,72.0,95.0,2.0
1.0,63.0,95.0,2.0
1.0,67.0,95.0,0.0
1.0,70.0,95.0,0.0
1.0,70.0,95.0,0.0
1.0,75.0,95.0,96.0
1.0,75.0,95.0,2.0
1.0,70.0,95.0,2.0
1.0,68.0,95.0,2.0
1.0,65.0,95.0,2.0
1.0,70.0,95.0,2.0
1.0,65.0,95.0,2.0
1.0,68.0,95.0,0.0
1.0,75.0,95.0,0.0
1.0,65.0,95.0,2.0
1.0,68.0,95.0,0.0
1.0,75.0,95.0,0.0
1.0,68.0,95.0,2.0
1.0,70.0,95.0,2.0
1.0,65.0,95.0,2.0
1.0,68.0,95.0,0.0
1.0,73.0,95.0,0.0
1.0,73.0,95.0,2.0
1.0,65.0,95.0,0.0
1.0,68.0,95.0,0.0
1.0,73.0,95.0,2.0
1.0,72.0,95.0,2.0
1.0,73.0,95.0,2.0
1.0,72.0,95.0,2.0
1.0,68.0,95.0,0.0
1.0,70.0,95.0,96.0
1.0,63.0,95.0,2.0
1.0,68.0,95.0,0.0
1.0,63.0,95.0,2.0
1.0,63.0,95.0,2.0
1.0,67.0,95.0,0.0
1.0,70.0,95.0,0.0
1.0,65.0,95.0,2.0
1.0,68.0,95.0,2.0
1.0,68.0,95.0,2.0
1.0,65.0,95.0,96.0
1.0,73.0,95.0,0.0
1.0,73.0,95.0,2.0
1.0,73.0,95.0,2.0
1.0,72.0,95.0,2.0
1.0,73.0,95.0,2.0
1.0,72.0,95.0,2.0
1.0,68.0,95.0,0.0
1.0,72.0,95.0,96.0
1.0,70.0,95.0,2.0
1.0,63.0,95.0,0.0
1.0,68.0,95.0,0.0
1.0,72.0,95.0,2.0
1.0,75.0,95.0,2.0
1.0,70.0,95.0,2.0
1.0,68.0,95.0,0.0
1.0,63.0,95.0,0.0
1.0,68.0,95.0,0.0
1.0,70.0,95.0,2.0
1.0,68.0,95.0,2.0
1.0,73.0,95.0,96.0
1.0,65.0,95.0,0.0
1.0,73.0,95.0,2.0
1.0,73.0,95.0,2.0
1.0,72.0,95.0,2.0
1.0,73.0,95.0,2.0
1.0,72.0,95.0,2.0
1.0,68.0,95.0,0.0
1.0,70.0,95.0,96.0
1.0,63.0,95.0,2.0
1.0,65.0,95.0,2.0
1.0,68.0,95.0,2.0
1.0,73.0,95.0,2.0
1.0,72.0,95.0,2.0
1.0,68.0,95.0,0.0
1.0,63.0,95.0,0.0
1.0,75.0,95.0,480.0
1.0,75.0,95.0,2.0
1.0,75.0,95.0,2.0
1.0,75.0,95.0,2.0
1.0,75.0,95.0,2.0
1.0,75.0,95.0,2.0
1.0,75.0,95.0,2.0
1.0,75.0,95.0,0.0
1.0,63.0,95.0,0.0
1.0,68.0,95.0,0.0
1.0,72.0,95.0,0.0
1.0,68.0,95.0,96.0
1.0,72.0,95.0,0.0
1.0,67.0,95.0,2.0
1.0,63.0,95.0,0.0
1.0,70.0,95.0,672.0
1.0,72.0,95.0,48.0
1.0,68.0,95.0,0.0
1.0,75.0,95.0,2.0
1.0,75.0,95.0,2.0
1.0,75.0,95.0,2.0
1.0,70.0,95.0,2.0
1.0,68.0,95.0,2.0
1.0,65.0,95.0,2.0
1.0,70.0,95.0,2.0
1.0,75.0,95.0,2.0
1.0,68.0,95.0,0.0
1.0,65.0,95.0,0.0
1.0,75.0,95.0,2.0
1.0,68.0,95.0,0.0
1.0,65.0,95.0,0.0
1.0,75.0,95.0,2.0
1.0,70.0,95.0,0.0
1.0,67.0,95.0,0.0
1.0,63.0,95.0,2.0
1.0,68.0,95.0,0.0
1.0,72.0,95.0,0.0
1.0,75.0,95.0,576.0
1.0,75.0,95.0,2.0
1.0,75.0,95.0,2.0
1.0,75.0,95.0,2.0
1.0,75.0,95.0,2.0
1.0,63.0,95.0,0.0
1.0,68.0,95.0,0.0
1.0,72.0,95.0,2.0
1.0,68.0,95.0,2.0
1.0,72.0,95.0,2.0
1.0,63.0,95.0,2.0
1.0,67.0,95.0,0.0
1.0,70.0,95.0,0.0
1.0,70.0,95.0,0.0
1.0,75.0,95.0,96.0
1.0,75.0,95.0,2.0
1.0,70.0,95.0,2.0
1.0,68.0,95.0,2.0
1.0,65.0,95.0,2.0
1.0,70.0,95.0,2.0
1.0,65.0,95.0,2.0
1.0,68.0,95.0,0.0
1.0,75.0,95.0,0.0
1.0,65.0,95.0,2.0
1.0,68.0,95.0,0.0
1.0,75.0,95.0,0.0
1.0,68.0,95.0,2.0
1.0,70.0,95.0,2.0
1.0,65.0,95.0,2.0
1.0,68.0,95.0,0.0
1.0,73.0,95.0,0.0
1.0,73.0,95.0,2.0
1.0,65.0,95.0,0.0
1.0,68.0,95.0,0.0
1.0,73.0,95.0,2.0
1.0,72.0,95.0,2.0
1.0,73.0,95.0,2.0
1.0,72.0,95.0,2.0
1.0,68.0,95.0,0.0
1.0,70.0,95.0,96.0
1.0,63.0,95.0,2.0
1.0,68.0,95.0,0.0
1.0,63.0,95.0,2.0
1.0,63.0,95.0,2.0
1.0,67.0,95.0,0.0
1.0,70.0,95.0,0.0
1.0,65.0,95.0,2.0
1.0,68.0,95.0,2.0
1.0,68.0,95.0,2.0
1.0,65.0,95.0,96.0
1.0,73.0,95.0,0.0
1.0,73.0,95.0,2.0
1.0,73.0,95.0,2.0
1.0,72.0,95.0,2.0
1.0,73.0,95.0,2.0
1.0,72.0,95.0,2.0
1.0,68.0,95.0,0.0
1.0,72.0,95.0,96.0
1.0,70.0,95.0,2.0
1.0,63.0,95.0,0.0
1.0,68.0,95.0,0.0
1.0,72.0,95.0,2.0
1.0,75.0,95.0,2.0
1.0,70.0,95.0,2.0
1.0,68.0,95.0,0.0
1.0,63.0,95.0,0.0
1.0,68.0,95.0,0.0
1.0,70.0,95.0,2.0
1.0,68.0,95.0,2.0
1.0,73.0,95.0,96.0
1.0,65.0,95.0,0.0
1.0,73.0,95.0,2.0
1.0,73.0,95.0,2.0
1.0,72.0,95.0,2.0
1.0,73.0,95.0,2.0
1.0,72.0,95.0,2.0
1.0,68.0,95.0,0.0
1.0,70.0,95.0,96.0
1.0,63.0,95.0,2.0
1.0,68.0,95.0,0.0
1.0,63.0,95.0,2.0
1.0,63.0,95.0,2.0
1.0,67.0,95.0,0.0
1.0,70.0,95.0,0.0
1.0,65.0,95.0,2.0
1.0,68.0,95.0,2.0
1.0,68.0,95.0,2.0
1.0,65.0,95.0,96.0
1.0,73.0,95.0,0.0
1.0,73.0,95.0,2.0
1.0,73.0,95.0,2.0
1.0,72.0,95.0,2.0
1.0,73.0,95.0,2.0
1.0,72.0,95.0,2.0
1.0,68.0,95.0,0.0
1.0,72.0,95.0,96.0
1.0,63.0,95.0,2.0
1.0,68.0,95.0,0.0
1.0,70.0,95.0,0.0
1.0,72.0,95.0,2.0
1.0,61.0,95.0,0.0
1.0,65.0,95.0,0.0
1.0,68.0,95.0,0.0
1.0,72.0,95.0,2.0
1.0,75.0,95.0,2.0
1.0,70.0,95.0,0.0
1.0,63.0,95.0,0.0
1.0,68.0,95.0,2.0
1.0,63.0,95.0,0.0
1.0,60.0,95.0,0.0
1.0,63.0,95.0,2.0
1.0,56.0,95.0,0.0
1.0,60.0,95.0,2.0
1.0,63.0,95.0,0.0
1.0,68.0,95.0,0.0
1.0,56.0,95.0,2.0
1.0,60.0,95.0,2.0
1.0,63.0,95.0,0.0
1.0,68.0,95.0,0.0
1.0,56.0,95.0,2.0
1.0,63.0,95.0,0.0
1.0,60.0,95.0,2.0
1.0,63.0,95.0,0.0
1.0,68.0,95.0,0.0
1.0,68.0,95.0,2.0
1.0,68.0,95.0,2.0
1.0,56.0,95.0,0.0
1.0,70.0,95.0,2.0
1.0,65.0,95.0,2.0
1.0,62.0,95.0,0.0
1.0,77.0,95.0,2.0
1.0,77.0,95.0,2.0
1.0,65.0,95.0,2.0
1.0,70.0,95.0,0.0
1.0,62.0,95.0,0.0
1.0,77.0,95.0,0.0
1.0,56.0,95.0,2.0
1.0,70.0,95.0,2.0
1.0,65.0,95.0,0.0
1.0,62.0,95.0,0.0
1.0,60.0,95.0,2.0
1.0,65.0,95.0,2.0
1.0,70.0,95.0,0.0
1.0,62.0,95.0,0.0
1.0,56.0,95.0,2.0
1.0,68.0,95.0,0.0
1.0,68.0,95.0,2.0
1.0,73.0,95.0,0.0
1.0,65.0,95.0,0.0
1.0,80.0,95.0,2.0
1.0,61.0,95.0,0.0
1.0,80.0,95.0,2.0
1.0,65.0,95.0,2.0
1.0,68.0,95.0,0.0
1.0,73.0,95.0,0.0
1.0,61.0,95.0,2.0
1.0,77.0,95.0,2.0
1.0,75.0,95.0,2.0
1.0,73.0,95.0,2.0
1.0,68.0,95.0,0.0
1.0,65.0,95.0,0.0
1.0,61.0,95.0,2.0
1.0,77.0,95.0,2.0
1.0,73.0,95.0,0.0
1.0,68.0,95.0,0.0
1.0,65.0,95.0,0.0
1.0,75.0,95.0,2.0
1.0,61.0,95.0,0.0
1.0,63.0,95.0,2.0
1.0,68.0,95.0,0.0
1.0,72.0,95.0,0.0
1.0,60.0,95.0,2.0
1.0,77.0,95.0,2.0
1.0,63.0,95.0,0.0
1.0,68.0,95.0,0.0
1.0,72.0,95.0,0.0
1.0,72.0,95.0,0.0
1.0,60.0,95.0,2.0
1.0,63.0,95.0,2.0
1.0,68.0,95.0,0.0
1.0,72.0,95.0,0.0
1.0,60.0,95.0,2.0
1.0,72.0,95.0,2.0
1.0,60.0,95.0,0.0
1.0,68.0,95.0,0.0
1.0,70.0,95.0,2.0
1.0,68.0,95.0,2.0
1.0,70.0,95.0,95.0
1.0,68.0,95.0,2.0
1.0,63.0,95.0,0.0
1.0,60.0,95.0,0.0
1.0,56.0,95.0,2.0
1.0,80.0,95.0,2.0
1.0,68.0,95.0,0.0
1.0,63.0,95.0,0.0
1.0,60.0,95.0,0.0
1.0,80.0,95.0,2.0
1.0,82.0,95.0,2.0
1.0,56.0,95.0,0.0
1.0,82.0,95.0,2.0
1.0,60.0,95.0,0.0
1.0,63.0,95.0,0.0
1.0,68.0,95.0,0.0
1.0,80.0,95.0,2.0
1.0,80.0,95.0,2.0
1.0,56.0,95.0,0.0
1.0,82.0,95.0,2.0
1.0,63.0,95.0,2.0
1.0,68.0,95.0,0.0
1.0,60.0,95.0,0.0
1.0,82.0,95.0,2.0
1.0,82.0,95.0,2.0
1.0,80.0,95.0,2.0
1.0,56.0,95.0,0.0
1.0,80.0,95.0,2.0
1.0,80.0,95.0,2.0
1.0,80.0,95.0,2.0
1.0,65.0,95.0,2.0
1.0,70.0,95.0,0.0
1.0,62.0,95.0,0.0
1.0,56.0,95.0,2.0
1.0,65.0,95.0,2.0
1.0,70.0,95.0,0.0
1.0,62.0,95.0,0.0
1.0,80.0,95.0,2.0
1.0,72.0,95.0,2.0
1.0,56.0,95.0,0.0
1.0,70.0,95.0,2.0
1.0,62.0,95.0,2.0
1.0,65.0,95.0,0.0
1.0,70.0,95.0,0.0
1.0,56.0,95.0,2.0
1.0,61.0,95.0,2.0
1.0,65.0,95.0,0.0
1.0,70.0,95.0,0.0
1.0,68.0,95.0,2.0
1.0,56.0,95.0,0.0
1.0,68.0,95.0,2.0
1.0,68.0,95.0,2.0
1.0,65.0,95.0,0.0
1.0,73.0,95.0,0.0
1.0,61.0,95.0,2.0
1.0,80.0,95.0,0.0
1.0,65.0,95.0,2.0
1.0,68.0,95.0,0.0
1.0,73.0,95.0,0.0
1.0,80.0,95.0,0.0
1.0,61.0,95.0,2.0
1.0,77.0,95.0,2.0
1.0,65.0,95.0,0.0
1.0,68.0,95.0,0.0
1.0,73.0,95.0,0.0
1.0,75.0,95.0,2.0
1.0,73.0,95.0,0.0
1.0,61.0,95.0,2.0
1.0,65.0,95.0,2.0
1.0,68.0,95.0,0.0
1.0,73.0,95.0,0.0
1.0,77.0,95.0,0.0
1.0,61.0,95.0,2.0
1.0,75.0,95.0,0.0
1.0,63.0,95.0,2.0
1.0,68.0,95.0,0.0
1.0,72.0,95.0,0.0
1.0,60.0,95.0,2.0
1.0,63.0,95.0,2.0
1.0,68.0,95.0,0.0
1.0,72.0,95.0,0.0
1.0,60.0,95.0,2.0
1.0,63.0,95.0,2.0
1.0,68.0,95.0,0.0
1.0,72.0,95.0,0.0
1.0,56.0,95.0,2.0
1.0,58.0,95.0,2.0
1.0,56.0,95.0,2.0
1.0,60.0,95.0,2.0
1.0,63.0,95.0,2.0
1.0,65.0,95.0,2.0
1.0,63.0,95.0,2.0
1.0,75.0,95.0,2.0
1.0,72.0,95.0,0.0
1.0,68.0,95.0,0.0
1.0,63.0,95.0,2.0
1.0,75.0,95.0,2.0
1.0,72.0,95.0,0.0
1.0,68.0,95.0,0.0
1.0,65.0,95.0,2.0
1.0,75.0,95.0,2.0
1.0,72.0,95.0,0.0
1.0,68.0,95.0,0.0
1.0,63.0,95.0,2.0
1.0,75.0,95.0,2.0
1.0,72.0,95.0,0.0
1.0,68.0,95.0,0.0
1.0,65.0,95.0,2.0
1.0,75.0,95.0,2.0
1.0,70.0,95.0,0.0
1.0,67.0,95.0,0.0
1.0,63.0,95.0,2.0
1.0,75.0,95.0,2.0
1.0,70.0,95.0,0.0
1.0,67.0,95.0,0.0
1.0,63.0,95.0,2.0
1.0,75.0,95.0,2.0
1.0,70.0,95.0,0.0
1.0,67.0,95.0,0.0
1.0,63.0,95.0,2.0
1.0,75.0,95.0,2.0
1.0,70.0,95.0,0.0
1.0,67.0,95.0,0.0
1.0,65.0,95.0,2.0
1.0,68.0,95.0,0.0
1.0,72.0,95.0,0.0
1.0,60.0,95.0,2.0
1.0,65.0,95.0,2.0
1.0,68.0,95.0,0.0
1.0,72.0,95.0,0.0
1.0,60.0,95.0,2.0
1.0,65.0,95.0,2.0
1.0,68.0,95.0,0.0
1.0,72.0,95.0,0.0
1.0,60.0,95.0,2.0
1.0,65.0,95.0,2.0
1.0,68.0,95.0,0.0
1.0,72.0,95.0,0.0
1.0,65.0,95.0,2.0
1.0,68.0,95.0,0.0
1.0,72.0,95.0,0.0
1.0,60.0,95.0,2.0
1.0,65.0,95.0,2.0
1.0,68.0,95.0,0.0
1.0,72.0,95.0,0.0
1.0,60.0,95.0,2.0
1.0,65.0,95.0,2.0
1.0,68.0,95.0,0.0
1.0,72.0,95.0,0.0
1.0,60.0,95.0,2.0
1.0,67.0,95.0,2.0
1.0,70.0,95.0,0.0
1.0,75.0,95.0,0.0
1.0,67.0,95.0,2.0
1.0,70.0,95.0,0.0
1.0,75.0,95.0,0.0
1.0,75.0,95.0,2.0
1.0,72.0,95.0,0.0
1.0,68.0,95.0,0.0
1.0,63.0,95.0,2.0
1.0,75.0,95.0,2.0
1.0,72.0,95.0,0.0
1.0,68.0,95.0,0.0
1.0,65.0,95.0,2.0
1.0,75.0,95.0,2.0
1.0,72.0,95.0,0.0
1.0,68.0,95.0,0.0
1.0,63.0,95.0,2.0
1.0,75.0,95.0,2.0
1.0,72.0,95.0,0.0
1.0,68.0,95.0,0.0
1.0,65.0,95.0,2.0
1.0,75.0,95.0,2.0
1.0,70.0,95.0,0.0
1.0,67.0,95.0,0.0
1.0,63.0,95.0,2.0
1.0,75.0,95.0,2.0
1.0,70.0,95.0,0.0
1.0,67.0,95.0,0.0
1.0,63.0,95.0,2.0
1.0,75.0,95.0,2.0
1.0,70.0,95.0,0.0
1.0,67.0,95.0,0.0
1.0,63.0,95.0,2.0
1.0,75.0,95.0,2.0
1.0,70.0,95.0,0.0
1.0,67.0,95.0,0.0
1.0,65.0,95.0,2.0
1.0,68.0,95.0,0.0
1.0,72.0,95.0,0.0
1.0,60.0,95.0,2.0
1.0,65.0,95.0,2.0
1.0,68.0,95.0,0.0
1.0,72.0,95.0,0.0
1.0,60.0,95.0,2.0
1.0,65.0,95.0,2.0
1.0,68.0,95.0,0.0
1.0,72.0,95.0,0.0
1.0,60.0,95.0,2.0
1.0,65.0,95.0,2.0
1.0,68.0,95.0,0.0
1.0,72.0,95.0,0.0
1.0,65.0,95.0,2.0
1.0,68.0,95.0,0.0
1.0,72.0,95.0,0.0
1.0,60.0,95.0,2.0
1.0,65.0,95.0,2.0
1.0,68.0,95.0,0.0
1.0,72.0,95.0,0.0
1.0,60.0,95.0,2.0
1.0,65.0,95.0,2.0
1.0,68.0,95.0,0.0
1.0,72.0,95.0,0.0
1.0,60.0,95.0,2.0
1.0,67.0,95.0,2.0
1.0,70.0,95.0,0.0
1.0,75.0,95.0,0.0
1.0,67.0,95.0,2.0
1.0,70.0,95.0,0.0
1.0,75.0,95.0,0.0
1.0,65.0,95.0,2.0
1.0,68.0,95.0,0.0
1.0,72.0,95.0,0.0
1.0,60.0,95.0,2.0
1.0,60.0,95.0,2.0
1.0,65.0,95.0,0.0
1.0,68.0,95.0,0.0
1.0,72.0,95.0,0.0
1.0,63.0,95.0,192.0
1.0,65.0,95.0,2.0
1.0,68.0,95.0,2.0
1.0,63.0,95.0,2.0
1.0,68.0,95.0,0.0
1.0,72.0,95.0,0.0
1.0,77.0,95.0,0.0
2.0,44.0,95.0,768.0
2.0,56.0,95.0,2.0
2.0,44.0,95.0,2.0
2.0,44.0,95.0,2.0
2.0,56.0,95.0,2.0
2.0,43.0,95.0,2.0
2.0,55.0,95.0,2.0
2.0,43.0,95.0,2.0
2.0,43.0,95.0,2.0
2.0,36.0,95.0,2.0
2.0,37.0,95.0,2.0
2.0,36.0,95.0,2.0
2.0,41.0,95.0,2.0
2.0,53.0,95.0,2.0
2.0,41.0,95.0,2.0
2.0,41.0,95.0,2.0
2.0,36.0,95.0,98.0
2.0,39.0,95.0,2.0
2.0,44.0,95.0,2.0
2.0,41.0,95.0,2.0
2.0,41.0,95.0,2.0
2.0,41.0,95.0,2.0
2.0,41.0,95.0,2.0
2.0,41.0,95.0,2.0
2.0,43.0,95.0,2.0
2.0,44.0,95.0,2.0
2.0,56.0,95.0,384.0
2.0,39.0,95.0,2.0
2.0,43.0,95.0,2.0
2.0,55.0,95.0,384.0
2.0,43.0,95.0,2.0
2.0,41.0,95.0,2.0
2.0,53.0,95.0,384.0
2.0,36.0,95.0,2.0
2.0,39.0,95.0,2.0
2.0,36.0,95.0,2.0
2.0,41.0,95.0,2.0
2.0,41.0,95.0,2.0
2.0,41.0,95.0,2.0
2.0,41.0,95.0,2.0
2.0,41.0,95.0,2.0
2.0,43.0,95.0,2.0
2.0,44.0,95.0,2.0
2.0,56.0,95.0,384.0
2.0,39.0,95.0,2.0
2.0,43.0,95.0,2.0
2.0,55.0,95.0,384.0
2.0,48.0,95.0,2.0
2.0,41.0,95.0,2.0
2.0,53.0,95.0,384.0
2.0,48.0,95.0,2.0
2.0,44.0,95.0,2.0
2.0,48.0,95.0,2.0
2.0,46.0,95.0,2.0
2.0,44.0,95.0,2.0
2.0,41.0,95.0,2.0
2.0,39.0,95.0,2.0
2.0,44.0,95.0,2.0
2.0,41.0,95.0,2.0
2.0,36.0,95.0,2.0
2.0,37.0,95.0,2.0
2.0,49.0,95.0,384.0
2.0,37.0,95.0,2.0
2.0,41.0,95.0,2.0
2.0,39.0,95.0,2.0
2.0,51.0,95.0,384.0
2.0,39.0,95.0,2.0
2.0,46.0,95.0,2.0
2.0,39.0,95.0,2.0
2.0,37.0,95.0,2.0
2.0,49.0,95.0,384.0
2.0,37.0,95.0,2.0
2.0,41.0,95.0,2.0
2.0,39.0,95.0,2.0
2.0,51.0,95.0,384.0
2.0,46.0,95.0,2.0
2.0,44.0,95.0,2.0
2.0,51.0,95.0,2.0
2.0,37.0,95.0,2.0
2.0,49.0,95.0,384.0
2.0,37.0,95.0,2.0
2.0,41.0,95.0,2.0
2.0,39.0,95.0,2.0
2.0,44.0,95.0,194.0
2.0,56.0,95.0,384.0
2.0,39.0,95.0,2.0
2.0,43.0,95.0,2.0
2.0,55.0,95.0,384.0
2.0,43.0,95.0,2.0
2.0,41.0,95.0,2.0
2.0,53.0,95.0,384.0
2.0,36.0,95.0,2.0
2.0,39.0,95.0,2.0
2.0,36.0,95.0,2.0
2.0,41.0,95.0,2.0
2.0,41.0,95.0,2.0
2.0,41.0,95.0,2.0
2.0,41.0,95.0,2.0
2.0,41.0,95.0,2.0
2.0,43.0,95.0,2.0
2.0,44.0,95.0,2.0
2.0,56.0,95.0,384.0
2.0,39.0,95.0,2.0
2.0,43.0,95.0,2.0
2.0,55.0,95.0,384.0
2.0,48.0,95.0,2.0
2.0,41.0,95.0,2.0
2.0,53.0,95.0,384.0
2.0,48.0,95.0,2.0
2.0,44.0,95.0,2.0
2.0,48.0,95.0,2.0
2.0,46.0,95.0,2.0
2.0,44.0,95.0,2.0
2.0,41.0,95.0,2.0
2.0,39.0,95.0,2.0
2.0,44.0,95.0,2.0
2.0,41.0,95.0,2.0
2.0,36.0,95.0,2.0
2.0,37.0,95.0,2.0
2.0,49.0,95.0,384.0
2.0,37.0,95.0,2.0
2.0,41.0,95.0,2.0
2.0,39.0,95.0,2.0
2.0,51.0,95.0,384.0
2.0,39.0,95.0,2.0
2.0,46.0,95.0,2.0
2.0,39.0,95.0,2.0
2.0,37.0,95.0,2.0
2.0,49.0,95.0,384.0
2.0,37.0,95.0,2.0
2.0,41.0,95.0,2.0
2.0,39.0,95.0,2.0
2.0,51.0,95.0,384.0
2.0,46.0,95.0,2.0
2.0,44.0,95.0,2.0
2.0,51.0,95.0,2.0
2.0,37.0,95.0,2.0
2.0,49.0,95.0,384.0
2.0,37.0,95.0,2.0
2.0,41.0,95.0,2.0
2.0,39.0,95.0,2.0
2.0,51.0,95.0,384.0
2.0,39.0,95.0,2.0
2.0,46.0,95.0,2.0
2.0,39.0,95.0,2.0
2.0,37.0,95.0,2.0
2.0,49.0,95.0,384.0
2.0,37.0,95.0,2.0
2.0,39.0,95.0,2.0
2.0,41.0,95.0,2.0
2.0,43.0,95.0,2.0
2.0,44.0,95.0,2.0
2.0,46.0,95.0,2.0
2.0,44.0,95.0,2.0
2.0,39.0,95.0,2.0
2.0,39.0,95.0,2.0
2.0,39.0,95.0,2.0
2.0,44.0,95.0,98.0
2.0,50.0,95.0,2.0
2.0,41.0,95.0,2.0
2.0,44.0,95.0,2.0
2.0,44.0,95.0,98.0
2.0,39.0,95.0,2.0
2.0,44.0,95.0,2.0
2.0,39.0,95.0,2.0
2.0,44.0,95.0,2.0
2.0,48.0,95.0,2.0
2.0,46.0,95.0,2.0
2.0,44.0,95.0,2.0
2.0,39.0,95.0,2.0
2.0,44.0,95.0,2.0
2.0,39.0,95.0,528.0
2.0,39.0,95.0,2.0
2.0,39.0,95.0,2.0
2.0,44.0,95.0,2.0
2.0,50.0,95.0,2.0
2.0,41.0,95.0,2.0
2.0,44.0,95.0,2.0
2.0,44.0,95.0,2.0
2.0,44.0,95.0,2.0
2.0,39.0,95.0,2.0
2.0,44.0,95.0,2.0
2.0,44.0,95.0,2.0
2.0,46.0,95.0,2.0
2.0,44.0,95.0,2.0
2.0,48.0,95.0,2.0
2.0,51.0,95.0,2.0
2.0,53.0,95.0,2.0
2.0,51.0,95.0,2.0
2.0,44.0,95.0,2.0
2.0,56.0,95.0,384.0
2.0,39.0,95.0,2.0
2.0,43.0,95.0,2.0
2.0,55.0,95.0,384.0
2.0,36.0,95.0,2.0
2.0,39.0,95.0,2.0
2.0,36.0,95.0,2.0
2.0,41.0,95.0,2.0
2.0,53.0,95.0,384.0
2.0,43.0,95.0,2.0
2.0,39.0,95.0,2.0
2.0,36.0,95.0,2.0
2.0,41.0,95.0,2.0
2.0,41.0,95.0,98.0
2.0,41.0,95.0,98.0
2.0,43.0,95.0,2.0
2.0,44.0,95.0,2.0
2.0,56.0,95.0,384.0
2.0,39.0,95.0,2.0
2.0,43.0,95.0,2.0
2.0,55.0,95.0,384.0
2.0,36.0,95.0,2.0
2.0,39.0,95.0,2.0
2.0,36.0,95.0,2.0
2.0,41.0,95.0,2.0
2.0,53.0,95.0,384.0
2.0,43.0,95.0,2.0
2.0,39.0,95.0,2.0
2.0,36.0,95.0,2.0
2.0,41.0,95.0,2.0
2.0,41.0,95.0,98.0
2.0,41.0,95.0,98.0
2.0,43.0,95.0,2.0
2.0,41.0,95.0,2.0
2.0,41.0,95.0,0.0
2.0,41.0,95.0,194.0
2.0,39.0,95.0,2.0
2.0,44.0,95.0,2.0
0.0,0.0,0.0,0.0
0.0,0.0,0.0,0.0
0.0,0.0,0.0,0.0
0.0,0.0,0.0,0.0
0.0,0.0,0.0,0.0
0.0,0.0,0.0,0.0
0.0,0.0,0.0,0.0
0.0,0.0,0.0,0.0
0.0,0.0,0.0,0.0
0.0,0.0,0.0,0.0
0.0,0.0,0.0,0.0
0.0,0.0,0.0,0.0
0.0,0.0,0.0,0.0
0.0,0.0,0.0,0.0
0.0,0.0,0.0,0.0
0.0,0.0,0.0,0.0
0.0,0.0,0.0,0.0
0.0,0.0,0.0,0.0
0.0,0.0,0.0,0.0
0.0,0.0,0.0,0.0
0.0,0.0,0.0,0.0
0.0,0.0,0.0,0.0
0.0,0.0,0.0,0.0
0.0,0.0,0.0,0.0
0.0,0.0,0.0,0.0
0.0,0.0,0.0,0.0
0.0,0.0,0.0,0.0
0.0,0.0,0.0,0.0
0.0,0.0,0.0,0.0
0.0,0.0,0.0,0.0
0.0,0.0,0.0,0.0
0.0,0.0,0.0,0.0
0.0,0.0,0.0,0.0
0.0,0.0,0.0,0.0
0.0,0.0,0.0,0.0
0.0,0.0,0.0,0.0
0.0,0.0,0.0,0.0
0.0,0.0,0.0,0.0
0.0,0.0,0.0,0.0
0.0,0.0,0.0,0.0
0.0,0.0,0.0,0.0
0.0,0.0,0.0,0.0
0.0,0.0,0.0,0.0
0.0,0.0,0.0,0.0
0.0,0.0,0.0,0.0
0.0,0.0,0.0,0.0
0.0,0.0,0.0,0.0
0.0,0.0,0.0,0.0
0.0,0.0,0.0,0.0
0.0,0.0,0.0,0.0
0.0,0.0,0.0,0.0
0.0,0.0,0.0,0.0
0.0,0.0,0.0,0.0
0.0,0.0,0.0,0.0
0.0,0.0,0.0,0.0
0.0,0.0,0.0,0.0
0.0,0.0,0.0,0.0
0.0,0.0,0.0,0.0
0.0,0.0,0.0,0.0
0.0,0.0,0.0,0.0
0.0,0.0,0.0,0.0
0.0,0.0,0.0,0.0
0.0,0.0,0.0,0.0
0.0,0.0,0.0,0.0
0.0,0.0,0.0,0.0
0.0,0.0,0.0,0.0
0.0,0.0,0.0,0.0
0.0,0.0,0.0,0.0
0.0,0.0,0.0,0.0
0.0,0.0,0.0,0.0
0.0,0.0,0.0,0.0
0.0,0.0,0.0,0.0
0.0,0.0,0.0,0.0
0.0,0.0,0.0,0.0
0.0,0.0,0.0,0.0
0.0,0.0,0.0,0.0
0.0,0.0,0.0,0.0
0.0,0.0,0.0,0.0
0.0,0.0,0.0,0.0
0.0,0.0,0.0,0.0
0.0,0.0,0.0,0.0
0.0,0.0,0.0,0.0
0.0,0.0,0.0,0.0
0.0,0.0,0.0,0.0
0.0,0.0,0.0,0.0
0.0,0.0,0.0,0.0
0.0,0.0,0.0,0.0
0.0,0.0,0.0,0.0
0.0,0.0,0.0,0.0
0.0,0.0,0.0,0.0
0.0,0.0,0.0,0.0
0.0,0.0,0.0,0.0
0.0,0.0,0.0,0.0
0.0,0.0,0.0,0.0
0.0,0.0,0.0,0.0
0.0,0.0,0.0,0.0
0.0,0.0,0.0,0.0
0.0,0.0,0.0,0.0
0.0,0.0,0.0,0.0
0.0,0.0,0.0,0.0
0.0,0.0,0.0,0.0
0.0,0.0,0.0,0.0
0.0,0.0,0.0,0.0
0.0,0.0,0.0,0.0
0.0,0.0,0.0,0.0
0.0,0.0,0.0,0.0
0.0,0.0,0.0,0.0
0.0,0.0,0.0,0.0
0.0,0.0,0.0,0.0
0.0,0.0,0.0,0.0
0.0,0.0,0.0,0.0
0.0,0.0,0.0,0.0
0.0,0.0,0.0,0.0
0.0,0.0,0.0,0.0
0.0,0.0,0.0,0.0
0.0,0.0,0.0,0.0
0.0,0.0,0.0,0.0
0.0,0.0,0.0,0.0
0.0,0.0,0.0,0.0
0.0,0.0,0.0,0.0
0.0,0.0,0.0,0.0
0.0,0.0,0.0,0.0
0.0,0.0,0.0,0.0
0.0,0.0,0.0,0.0
0.0,0.0,0.0,0.0
0.0,0.0,0.0,0.0
0.0,0.0,0.0,0.0
0.0,0.0,0.0,0.0
0.0,0.0,0.0,0.0
0.0,0.0,0.0,0.0
0.0,0.0,0.0,0.0
0.0,0.0,0.0,0.0
0.0,0.0,0.0,0.0
0.0,0.0,0.0,0.0
0.0,0.0,0.0,0.0
0.0,0.0,0.0,0.0
0.0,0.0,0.0,0.0
0.0,0.0,0.0,0.0
0.0,0.0,0.0,0.0
0.0,0.0,0.0,0.0
0.0,0.0,0.0,0.0
0.0,0.0,0.0,0.0
0.0,0.0,0.0,0.0
0.0,0.0,0.0,0.0
0.0,0.0,0.0,0.0
0.0,0.0,0.0,0.0
0.0,0.0,0.0,0.0
0.0,0.0,0.0,0.0
0.0,0.0,0.0,0.0
0.0,0.0,0.0,0.0
0.0,0.0,0.0,0.0
0.0,0.0,0.0,0.0
0.0,0.0,0.0,0.0
0.0,0.0,0.0,0.0
0.0,0.0,0.0,0.0
0.0,0.0,0.0,0.0
0.0,0.0,0.0,0.0
0.0,0.0,0.0,0.0
0.0,0.0,0.0,0.0
0.0,0.0,0.0,0.0
0.0,0.0,0.0,0.0
