track,note,velocity,time
0,30,123,102
0,36,122,0
0,49,119,0
0,57,119,0
0,57,0,1
0,49,0,0
0,36,0,0
0,96,120,0
0,58,119,0
0,61,119,0
0,63,119,0
0,68,119,0
0,96,106,0
0,96,109,0
0,42,126,1
0,54,122,2
0,42,119,7
0,54,119,4
0,96,0,6
0,96,0,1
0,96,0,7
0,89,108,20
0,89,94,0
0,89,102,0
0,89,0,15
0,89,0,5
0,89,0,1
0,101,121,27
0,101,106,0
0,101,109,0
0,92,100,0
0,92,0,14
0,101,0,3
0,101,0,8
0,101,0,3
0,89,108,20
0,89,94,0
0,94,100,0
0,94,0,15
0,89,0,6
0,89,0,0
0,99,121,27
0,99,106,0
0,99,109,0
0,96,100,0
0,96,0,17
0,99,0,1
0,99,0,5
0,99,0,5
0,89,108,20
0,89,94,0
0,89,0,23
0,89,0,0
0,96,105,25
0,96,120,0
0,96,106,0
0,96,0,16
0,96,0,7
0,96,0,5
0,89,108,20
0,89,94,0
0,89,0,24
0,89,0,0
0,101,108,24
0,92,100,0
0,101,121,0
0,101,106,0
0,92,0,16
0,101,0,7
0,101,0,2
0,101,0,3
0,94,100,20
0,89,108,0
0,89,94,0
0,94,0,14
0,89,0,9
0,89,0,0
0,99,108,25
0,96,100,0
0,99,120,0
0,99,106,0
0,96,0,18
0,99,0,1
0,99,0,5
0,99,0,4
0,45,125,19
0,47,125,0
0,47,0,1
0,45,0,0
0,89,108,0
0,89,94,0
0,89,0,23
0,89,0,0
0,40,124,24
0,40,0,1
0,96,103,0
0,96,120,0
0,96,106,0
0,40,124,3
0,40,0,2
0,96,0,12
0,96,0,6
0,96,0,5
0,89,108,20
0,89,94,0
0,30,0,18
0,89,0,2
0,89,0,0
0,42,0,7
0,54,0,4
0,42,0,7
0,54,0,2
0,30,121,7
0,36,122,0
0,57,121,0
0,57,0,1
0,36,0,0
0,42,126,0
0,101,108,0
0,92,100,0
0,101,121,0
0,101,106,0
0,54,122,3
0,42,119,7
0,54,119,4
0,92,0,1
0,101,0,5
0,101,0,8
0,101,0,0
0,63,0,11
0,61,0,0
0,68,0,0
0,58,0,0
0,30,0,2
0,29,123,6
0,36,120,0
0,49,121,0
0,49,0,1
0,42,0,0
0,36,0,0
0,60,119,0
0,63,119,0
0,68,119,0
0,94,100,0
0,89,108,0
0,89,94,0
0,41,126,0
0,54,0,3
0,53,122,0
0,42,0,7
0,41,119,0
0,94,0,2
0,54,0,2
0,53,119,0
0,89,0,9
0,89,0,0
0,99,108,25
0,96,100,0
0,99,121,0
0,99,106,0
0,99,0,15
0,96,0,2
0,99,0,6
0,99,0,5
0,89,108,20
0,89,94,0
0,89,0,20
0,89,0,1
0,96,103,27
0,96,120,0
0,96,106,0
0,96,0,16
0,96,0,6
0,96,0,6
0,89,102,20
0,89,108,0
0,89,94,0
0,89,0,14
0,89,0,9
0,89,0,0
0,101,107,25
0,92,100,0
0,101,121,0
0,101,106,0
0,92,0,15
0,101,0,0
0,101,0,10
0,101,0,3
0,94,100,20
0,89,108,0
0,89,94,0
0,94,0,14
0,89,0,9
0,89,0,0
0,99,108,25
0,96,100,0
0,99,121,0
0,99,106,0
0,96,0,18
0,99,0,2
0,99,0,3
0,99,0,5
0,45,125,19
0,47,125,0
0,47,0,1
0,45,0,0
0,89,108,0
0,89,94,0
0,89,0,19
0,89,0,0
0,40,121,28
0,40,0,1
0,96,108,0
0,96,120,0
0,96,106,0
0,40,121,3
0,40,0,2
0,96,0,15
0,96,0,3
0,96,0,5
0,89,100,20
0,89,108,0
0,89,94,0
0,89,0,16
0,89,0,8
0,89,0,0
0,45,125,23
0,47,125,0
0,47,0,1
0,45,0,0
0,101,108,0
0,92,100,0
0,101,122,0
0,101,106,0
0,92,0,15
0,101,0,5
0,101,0,8
0,101,0,1
0,40,121,18
0,40,0,1
0,94,100,0
0,89,108,0
0,89,94,0
0,40,121,3
0,40,0,2
0,94,0,8
0,89,0,9
0,89,0,0
0,99,108,26
0,96,100,0
0,99,121,0
0,99,106,0
0,99,0,17
0,96,0,1
0,99,0,5
0,99,0,5
0,45,126,19
0,47,125,0
0,47,0,1
0,45,0,0
0,89,108,0
0,89,94,0
0,89,0,18
0,89,0,0
0,40,121,29
0,40,0,1
0,96,103,0
0,96,120,0
0,96,106,0
0,40,121,3
0,40,0,2
0,96,0,12
0,96,0,3
0,29,0,7
0,96,0,1
0,89,108,20
0,89,94,0
0,41,0,26
0,89,0,2
0,89,0,1
0,53,0,1
0,41,0,6
0,53,0,3
0,68,0,3
0,60,0,0
0,63,0,0
0,30,123,5
0,36,122,0
0,49,121,0
0,49,0,1
0,36,0,0
0,61,119,0
0,65,119,0
0,70,119,0
0,72,119,0
0,101,108,0
0,92,100,0
0,101,122,0
0,101,106,0
0,57,121,0
0,57,0,1
0,42,126,0
0,54,122,2
0,42,119,7
0,54,119,4
0,92,0,2
0,101,0,2
0,101,0,8
0,101,0,2
0,94,100,20
0,89,108,0
0,89,94,0
0,94,0,16
0,89,0,6
0,89,0,0
0,99,108,26
0,96,100,0
0,99,121,0
0,99,106,0
0,99,0,15
0,96,0,3
0,99,0,5
0,99,0,5
0,89,108,20
0,89,94,0
0,89,0,23
0,89,0,0
0,96,103,25
0,96,121,0
0,96,106,0
0,96,0,18
0,96,0,5
0,96,0,5
0,89,90,20
0,89,108,0
0,89,94,0
0,89,0,11
0,89,0,16
0,89,0,0
0,101,108,21
0,92,100,0
0,101,121,0
0,101,106,0
0,101,0,16
0,92,0,1
0,101,0,8
0,101,0,3
0,94,100,20
0,89,108,0
0,89,94,0
0,94,0,13
0,89,0,10
0,89,0,0
0,99,108,25
0,96,100,0
0,99,121,0
0,99,106,0
0,96,0,18
0,99,0,0
0,99,0,5
0,99,0,5
0,89,108,20
0,89,94,0
0,89,0,23
0,89,0,3
0,96,103,22
0,96,121,0
0,96,106,0
0,96,0,16
0,96,0,7
0,96,0,5
0,45,124,19
0,47,125,0
0,47,0,1
0,45,0,0
0,89,90,0
0,89,108,0
0,89,94,0
0,89,0,16
0,89,0,9
0,89,0,0
0,40,121,22
0,40,0,1
0,101,108,0
0,92,100,0
0,101,122,0
0,101,106,0
0,40,122,3
0,40,0,2
0,92,0,11
0,101,0,2
0,101,0,9
0,101,0,1
0,30,0,19
0,94,100,1
0,89,108,0
0,89,94,0
0,94,0,14
0,42,0,9
0,54,0,2
0,89,0,1
0,89,0,0
0,42,0,6
0,54,0,3
0,30,121,12
0,36,122,0
0,57,121,0
0,57,0,1
0,36,0,0
0,42,126,0
0,99,108,0
0,96,100,0
0,99,121,0
0,99,106,0
0,54,122,3
0,42,119,7
0,54,119,4
0,96,0,3
0,99,0,0
0,99,0,5
0,99,0,6
0,72,0,10
0,61,0,0
0,70,0,0
0,65,0,0
0,30,0,3
0,29,123,6
0,36,120,0
0,49,121,0
0,49,0,1
0,42,0,0
0,36,0,0
0,63,119,0
0,68,119,0
0,70,117,0
0,72,119,0
0,89,102,0
0,89,108,0
0,89,94,0
0,41,126,0
0,54,0,3
0,53,122,0
0,42,0,7
0,41,119,0
0,54,0,4
0,53,119,0
0,89,0,1
0,89,0,8
0,89,0,0
0,96,108,25
0,96,121,0
0,96,106,0
0,96,0,18
0,96,0,5
0,96,0,5
0,89,100,20
0,89,108,0
0,89,94,0
0,89,0,14
0,89,0,11
0,89,0,0
0,40,115,22
0,47,122,0
0,47,0,1
0,40,0,0
0,101,108,0
0,92,100,0
0,101,121,0
0,101,106,0
0,92,0,16
0,101,0,1
0,101,0,9
0,101,0,2
0,40,115,19
0,47,122,0
0,47,0,1
0,40,0,0
0,94,100,0
0,89,108,0
0,89,94,0
0,94,0,15
0,89,0,13
0,89,0,1
0,40,117,18
0,45,122,0
0,45,0,1
0,40,0,0
0,99,108,0
0,96,100,0
0,99,121,0
0,99,106,0
0,99,0,15
0,96,0,3
0,99,0,7
0,99,0,3
0,40,121,19
0,45,122,0
0,45,0,1
0,40,0,0
0,89,108,0
0,89,94,0
0,89,0,22
0,89,0,0
0,40,121,25
0,43,122,0
0,43,0,1
0,40,0,0
0,96,104,0
0,96,112,0
0,96,97,0
0,29,0,6
0,96,0,10
0,96,0,6
0,96,0,6
0,72,0,6
0,63,0,0
0,70,0,0
0,68,0,0
0,41,0,2
0,53,0,3
0,49,121,5
0,41,0,3
0,37,123,0
0,36,122,0
0,49,121,0
0,56,121,0
0,49,0,1
0,36,0,0
0,56,123,0
0,61,123,0
0,65,123,0
0,89,108,0
0,89,80,0
0,53,0,1
0,61,122,1
0,49,118,5
0,56,118,2
0,61,118,3
0,89,0,12
0,89,0,0
0,40,117,71
0,40,0,1
0,40,119,47
0,40,0,1
0,49,0,40
0,37,0,3
0,56,0,0
0,56,0,2
0,61,0,0
0,51,121,0
0,61,0,2
0,65,0,0
0,39,123,0
0,36,120,0
0,57,123,0
0,58,121,0
0,57,0,1
0,36,0,0
0,58,121,0
0,63,121,0
0,67,121,0
0,49,0,2
0,63,122,0
0,56,0,4
0,51,118,1
0,61,0,1
0,58,118,1
0,63,118,3
0,40,117,83
0,40,0,1
0,40,119,47
0,40,0,1
0,58,0,28
0,63,0,1
0,51,0,11
0,39,0,3
0,58,0,0
0,53,121,1
0,63,0,2
0,67,0,1
0,41,121,0
0,36,120,0
0,49,121,0
0,60,121,0
0,49,0,1
0,36,0,0
0,92,114,0
0,60,117,0
0,63,117,0
0,68,117,0
0,51,0,2
0,65,122,0
0,58,0,4
0,53,118,1
0,63,0,1
0,60,118,1
0,65,118,3
0,92,0,11
0,41,0,63
0,41,120,9
0,36,115,0
0,42,90,0
0,42,0,1
0,36,0,0
0,92,112,0
0,92,0,26
0,53,0,18
0,59,114,1
0,41,0,1
0,60,0,1
0,39,120,0
0,40,121,0
0,42,110,0
0,64,114,0
0,42,0,1
0,40,0,0
0,91,113,0
0,65,0,2
0,53,0,5
0,59,114,0
0,60,0,2
0,64,114,0
0,59,0,1
0,58,112,0
0,65,0,2
0,64,0,2
0,63,112,0
0,59,0,6
0,58,112,1
0,64,0,2
0,63,112,0
0,58,0,1
0,57,111,0
0,63,0,3
0,62,111,0
0,58,0,7
0,57,111,0
0,63,0,4
0,91,0,0
0,62,111,0
0,57,0,1
0,56,109,0
0,62,0,2
0,61,109,0
0,39,0,5
0,36,119,1
0,36,115,0
0,42,98,0
0,42,0,1
0,36,0,0
0,57,0,0
0,56,109,0
0,62,0,3
0,61,109,0
0,56,0,1
0,55,108,1
0,61,0,2
0,60,108,0
0,56,0,8
0,55,108,0
0,61,0,2
0,60,108,0
0,55,0,1
0,54,106,0
0,60,0,4
0,59,106,0
0,55,0,6
0,54,106,1
0,60,0,2
0,59,106,0
0,54,0,1
0,59,0,3
0,36,0,5
0,54,0,2
0,59,0,4
0,41,120,1
0,36,121,0
0,42,110,0
0,42,0,1
0,36,0,0
0,92,114,0
0,92,0,25
0,41,0,16
0,68,116,3
0,42,96,3
0,72,118,0
0,42,0,1
0,68,114,7
0,72,116,2
0,68,0,3
0,72,0,3
0,68,0,8
0,72,0,2
0,68,116,19
0,36,119,3
0,40,121,0
0,42,110,0
0,72,117,0
0,42,0,1
0,40,0,0
0,91,113,0
0,68,114,7
0,72,116,2
0,68,0,3
0,72,0,3
0,68,0,8
0,72,0,2
0,91,0,3
0,68,120,16
0,36,0,1
0,35,119,2
0,36,115,0
0,42,98,0
0,72,120,0
0,42,0,1
0,36,0,0
0,68,119,6
0,72,119,3
0,60,0,27
0,63,0,1
0,68,0,0
0,35,0,8
0,34,118,2
0,36,121,0
0,42,110,0
0,42,0,1
0,36,0,0
0,58,117,0
0,61,117,0
0,68,118,0
0,89,113,0
0,89,0,31
0,42,90,16
0,42,0,1
0,68,0,44
0,72,0,3
0,40,121,0
0,42,110,0
0,42,0,1
0,40,0,0
0,67,116,0
0,94,114,0
0,71,116,3
0,68,0,4
0,72,0,2
0,67,116,1
0,34,0,4
0,71,116,0
0,67,0,1
0,66,112,0
0,71,0,2
0,70,112,0
0,67,0,7
0,66,112,0
0,71,0,3
0,70,112,0
0,66,0,1
0,65,111,1
0,70,0,2
0,94,0,0
0,69,111,0
0,66,0,8
0,65,111,0
0,70,0,2
0,69,111,0
0,65,0,1
0,64,109,0
0,61,0,2
0,69,0,1
0,58,0,0
0,68,109,0
0,68,0,2
0,36,120,0
0,36,115,0
0,42,98,0
0,42,0,1
0,36,0,0
0,60,117,0
0,63,117,0
0,67,118,0
0,91,113,0
0,65,0,4
0,64,109,1
0,69,0,2
0,68,109,0
0,64,0,1
0,63,108,0
0,68,0,3
0,67,108,0
0,64,0,7
0,63,108,0
0,68,0,4
0,67,108,0
0,63,0,1
0,62,106,0
0,67,0,2
0,66,106,0
0,91,0,5
0,63,0,2
0,62,106,0
0,67,0,3
0,66,106,0
0,62,0,1
0,61,104,1
0,66,0,2
0,65,104,0
0,62,0,8
0,36,121,0
0,42,110,0
0,61,104,0
0,42,0,1
0,36,0,0
0,66,0,1
0,65,104,0
0,61,0,1
0,60,104,0
0,65,0,4
0,64,104,0
0,61,0,6
0,60,104,1
0,65,0,2
0,64,104,0
0,60,0,1
0,64,0,3
0,60,0,7
0,64,0,4
0,42,96,17
0,42,0,1
0,87,114,0
0,87,0,27
0,40,121,20
0,42,110,0
0,42,0,1
0,40,0,0
0,36,0,17
0,41,121,0
0,36,115,0
0,42,98,0
0,42,0,1
0,36,0,0
0,60,117,0
0,63,117,0
0,68,118,0
0,51,121,0
0,51,121,0
0,36,121,6
0,42,110,0
0,42,0,1
0,36,0,0
0,41,0,39
0,41,120,0
0,42,90,0
0,42,0,1
0,51,0,0
0,53,123,0
0,53,123,0
0,41,0,36
0,39,119,1
0,40,121,0
0,42,110,0
0,42,0,1
0,40,0,0
0,53,0,0
0,51,121,0
0,53,0,10
0,51,121,0
0,39,0,36
0,36,119,1
0,36,115,0
0,42,98,0
0,42,0,1
0,36,0,0
0,51,0,0
0,48,119,0
0,51,0,10
0,48,119,0
0,36,0,29
0,41,121,8
0,36,121,0
0,42,110,0
0,42,0,1
0,36,0,0
0,48,0,0
0,53,122,0
0,48,0,10
0,53,122,0
0,41,0,37
0,42,96,0
0,42,0,1
0,53,0,4
0,53,0,10
0,40,121,33
0,42,110,0
0,42,0,1
0,40,0,0
0,60,0,27
0,63,0,7
0,68,0,0
0,49,118,10
0,37,121,3
0,36,115,0
0,42,98,0
0,56,118,0
0,42,0,1
0,36,0,0
0,56,118,0
0,61,117,0
0,65,117,0
0,61,118,2
0,49,118,5
0,56,118,2
0,61,118,3
0,36,121,35
0,42,110,0
0,42,0,1
0,36,0,0
0,42,90,47
0,42,0,1
0,40,121,47
0,42,110,0
0,42,0,1
0,40,0,0
0,37,0,32
0,49,0,8
0,56,0,3
0,65,0,1
0,51,118,0
0,56,0,1
0,61,0,0
0,61,0,2
0,39,121,0
0,36,115,0
0,42,98,0
0,58,118,0
0,42,0,1
0,36,0,0
0,58,117,0
0,63,117,0
0,67,118,0
0,49,0,2
0,63,118,0
0,56,0,4
0,51,118,1
0,61,0,1
0,58,118,1
0,63,118,3
0,36,121,35
0,42,110,0
0,42,0,1
0,36,0,0
0,42,96,47
0,42,0,1
0,40,121,47
0,42,110,0
0,42,0,1
0,40,0,0
0,39,0,22
0,51,0,18
0,58,0,3
0,67,0,1
0,53,118,0
0,63,0,1
0,58,0,0
0,63,0,2
0,41,120,0
0,36,115,0
0,42,98,0
0,60,118,0
0,42,0,1
0,36,0,0
0,92,113,0
0,60,117,0
0,63,117,0
0,68,118,0
0,51,0,2
0,65,118,0
0,58,0,4
0,53,118,1
0,63,0,1
0,60,118,1
0,65,118,3
0,92,0,18
0,36,121,17
0,42,110,0
0,42,0,1
0,36,0,0
0,41,0,41
0,41,120,6
0,42,90,0
0,42,0,1
0,92,113,0
0,92,0,25
0,53,0,19
0,59,114,1
0,41,0,1
0,60,0,1
0,39,119,0
0,40,121,0
0,42,110,0
0,64,114,0
