track,note,velocity,time
1,42,69,502
1,54,127,96
1,56,127,94
1,64,127,98
1,63,127,192
1,42,112,6
1,54,116,0
1,58,127,0
1,61,127,0
1,66,127,98
1,61,127,22
1,49,110,12
1,54,110,0
1,58,110,0
1,42,124,0
1,54,127,94
1,56,127,92
1,64,127,100
1,63,127,12
1,61,127,0
1,54,124,96
1,58,127,0
1,42,120,2
1,49,127,0
1,54,127,0
1,58,127,0
1,42,127,0
1,56,127,6
1,59,127,0
1,63,127,0
1,44,127,2
1,56,89,18
1,59,127,0
1,63,127,0
1,58,91,20
1,61,127,0
1,65,88,0
1,46,127,2
1,58,80,22
1,61,127,0
1,65,127,0
1,59,127,18
1,63,127,0
1,47,127,2
1,54,112,0
1,54,100,28
1,59,127,0
1,63,127,0
1,49,127,34
1,56,77,0
1,61,127,0
1,64,127,0
1,56,108,24
1,61,125,0
1,64,127,2
1,64,120,20
1,66,124,96
1,59,114,4
1,64,127,0
1,68,127,0
1,40,127,2
1,71,127,32
1,68,127,8
1,64,124,62
1,61,127,6
1,66,127,0
1,70,127,0
1,40,127,4
1,73,127,24
1,70,127,10
1,66,127,188
1,58,104,8
1,63,127,0
1,51,127,2
1,58,86,24
1,63,127,0
1,66,103,0
1,56,87,18
1,59,85,0
1,63,127,0
1,44,115,6
1,56,68,18
1,59,127,0
1,63,127,2
1,64,127,8
1,66,127,8
1,64,127,8
1,49,127,2
1,61,127,0
1,68,127,0
1,61,127,30
1,64,53,0
1,68,127,0
1,59,127,14
1,64,127,0
1,71,106,0
1,49,127,2
1,59,107,24
1,64,110,0
1,71,96,2
1,54,113,18
1,59,127,0
1,61,125,0
1,42,127,2
1,54,127,14
1,59,114,98
1,61,91,96
1,66,127,92
1,61,120,12
1,42,120,2
1,54,116,0
1,58,120,0
1,58,127,22
1,42,127,2
1,54,127,0
1,61,127,0
1,56,127,2
1,59,127,0
1,63,127,0
1,44,127,2
1,56,89,18
1,59,127,0
1,63,127,0
1,58,91,20
1,61,127,0
1,65,88,0
1,46,127,2
1,58,80,22
1,61,127,0
1,65,127,0
1,59,127,18
1,63,127,0
1,47,127,2
1,54,112,0
1,54,100,28
1,59,127,0
1,63,127,0
1,49,127,34
1,56,77,0
1,61,127,0
1,64,127,0
1,56,108,24
1,61,125,0
1,64,127,2
1,64,120,20
1,66,124,96
1,59,114,4
1,64,127,0
1,68,127,0
1,40,127,2
1,71,127,32
1,68,127,8
1,64,124,62
1,61,127,6
1,66,127,0
1,70,127,0
1,40,127,4
1,73,127,24
1,70,127,10
1,66,127,188
1,58,104,8
1,63,127,0
1,51,127,2
1,58,86,24
1,63,127,0
1,66,103,0
1,73,127,190
1,56,87,18
1,59,85,0
1,63,127,0
1,44,115,6
1,71,127,8
1,63,124,0
1,70,127,20
1,71,117,2
1,56,68,12
1,59,127,0
1,63,127,2
1,68,127,0
1,66,127,8
1,68,127,6
1,64,127,4
1,49,127,2
1,61,127,0
1,68,127,0
1,61,127,30
1,64,53,0
1,68,127,0
1,59,127,14
1,64,127,0
1,71,106,0
1,49,127,2
1,59,107,24
1,64,110,0
1,71,96,2
1,54,113,18
1,59,127,0
1,61,125,0
1,42,127,2
1,54,127,14
1,59,114,98
1,61,91,96
1,66,127,92
1,61,120,12
1,42,120,2
1,54,116,0
1,58,120,0
1,58,127,22
1,42,127,2
1,54,127,0
1,61,127,0
1,47,127,0
1,59,114,0
1,63,103,0
1,66,90,0
1,63,127,8
1,59,93,2
1,66,83,0
1,63,113,38
1,59,100,2
1,66,106,0
1,59,113,18
1,63,127,0
1,66,87,0
1,56,117,44
1,61,127,0
1,65,113,0
1,47,127,4
1,56,98,16
1,61,116,0
1,65,108,0
1,56,127,16
1,61,90,0
1,65,102,0
1,56,119,30
1,61,127,2
1,65,127,0
1,44,127,38
1,56,101,0
1,59,127,0
1,63,112,0
1,56,111,20
1,59,125,0
1,63,85,0
1,64,127,22
1,40,127,2
1,59,127,0
1,68,124,0
1,59,120,12
1,64,99,0
1,68,120,0
1,49,123,24
1,56,125,0
1,61,127,0
1,64,127,0
1,56,119,16
1,61,119,0
1,64,115,0
1,54,123,28
1,59,127,0
1,61,127,0
1,42,127,2
1,54,112,16
1,59,127,24
1,61,104,22
1,42,127,18
1,54,119,0
1,58,127,0
1,61,127,0
1,59,119,8
1,63,127,0
1,47,127,2
1,66,85,0
1,59,127,30
1,63,127,0
1,66,127,0
1,59,119,22
1,63,127,0
1,66,112,2
1,59,118,22
1,63,101,0
1,66,103,4
1,47,127,4
1,56,123,0
1,61,127,0
1,65,127,0
1,56,127,22
1,61,115,2
1,65,108,0
1,56,119,26
1,61,127,0
1,65,127,0
1,56,120,18
1,61,127,0
1,65,99,0
1,44,127,14
1,56,105,0
1,59,127,0
1,63,127,0
1,56,76,10
1,59,127,22
1,63,127,0
1,56,123,16
1,40,127,14
1,59,108,96
1,64,127,96
1,59,99,20
1,68,127,92
1,64,94,18
1,59,104,36
1,49,127,8
1,61,127,0
1,64,81,0
1,56,76,100
1,64,74,10
1,61,113,8
1,56,104,32
1,68,127,96
1,64,74,34
1,61,127,26
1,56,127,6
1,54,127,8
1,59,127,0
1,61,127,0
1,42,127,2
1,54,125,16
1,59,127,0
1,61,127,0
1,59,106,30
1,61,127,2
1,54,123,98
1,59,127,24
1,54,120,28
1,66,119,100
1,61,94,96
1,59,111,30
1,61,111,22
1,58,111,22
1,56,67,1194
1,59,125,0
1,63,62,0
1,56,118,10
1,68,118,194
1,63,62,20
1,59,84,16
1,58,83,18
1,61,125,0
1,65,125,0
1,58,60,0
1,70,125,186
1,61,62,182
1,59,100,2
1,63,111,0
1,66,55,2
1,59,93,22
1,63,77,30
1,59,87,26
1,66,125,36
1,63,108,32
1,61,114,18
1,56,101,2
1,64,78,0
1,56,81,10
1,68,121,192
1,64,50,22
1,61,121,20
1,59,98,8
1,64,104,0
1,68,104,0
1,59,95,24
1,64,77,24
1,68,95,0
1,59,91,20
1,61,94,10
1,66,125,0
1,70,125,0
1,61,84,36
1,66,81,36
1,61,76,30
1,70,125,32
1,66,85,20
1,61,87,36
1,58,86,10
1,63,125,0
1,66,125,0
1,58,88,26
1,70,125,192
1,66,79,52
1,63,95,44
1,56,100,16
1,59,125,0
1,63,125,0
1,56,75,22
1,68,116,96
1,63,76,38
1,59,115,32
1,56,125,24
1,56,106,18
1,61,111,0
1,68,111,0
1,61,113,26
1,68,125,32
1,64,57,96
1,61,79,30
1,64,81,8
1,71,75,24
1,64,89,22
1,71,125,36
1,61,85,34
1,64,73,8
1,61,59,8
1,49,62,8
1,54,125,2
1,59,69,96
1,61,51,98
1,66,125,40
1,61,75,28
1,59,63,20
1,61,73,24
1,58,125,46
1,47,90,218
1,63,97,192
1,59,52,96
1,71,84,96
1,66,61,96
1,63,104,0
1,59,80,0
1,63,75,0
1,63,84,0
1,66,76,0
1,59,51,0
1,47,106,0
1,56,53,96
1,61,91,96
1,56,54,0
1,65,90,96
1,61,52,0
1,56,62,0
1,61,66,0
1,56,48,192
1,61,71,0
1,65,79,0
1,61,55,192
1,44,111,0
1,56,62,96
1,59,108,96
1,56,48,0
1,63,84,96
1,59,95,0
1,56,65,0
1,44,49,0
1,59,91,0
1,64,66,96
1,68,101,96
1,64,60,0
1,59,59,0
1,59,91,0
1,64,66,0
1,49,116,0
1,61,69,96
1,56,54,96
1,68,100,96
1,64,54,96
1,61,73,0
1,54,69,0
1,59,58,96
1,61,66,96
1,59,65,0
1,66,92,0
1,61,57,0
1,59,54,0
1,47,101,0
1,63,97,192
1,59,52,96
1,71,84,96
1,66,61,96
1,63,104,0
1,59,80,0
1,63,75,0
1,63,84,0
1,66,76,0
1,59,51,0
1,47,106,0
1,56,53,96
1,61,91,96
1,56,54,0
1,65,90,96
1,61,52,0
1,56,62,0
1,61,66,0
1,56,48,192
1,61,71,0
1,65,79,0
1,61,55,192
1,44,109,0
1,56,62,96
1,59,108,96
1,56,48,0
1,63,84,96
1,59,95,0
1,56,65,0
1,44,49,0
1,59,91,0
1,64,66,96
1,68,101,96
1,64,60,0
1,59,59,0
1,59,91,0
1,64,66,0
1,49,127,0
1,61,69,96
1,56,54,96
1,68,100,96
1,64,54,96
1,61,73,0
1,54,69,0
1,59,58,96
1,61,66,96
1,59,65,0
1,66,92,0
1,61,57,0
1,59,54,0
1,47,127,0
1,59,43,96
1,63,75,96
1,59,51,0
1,71,70,96
1,66,53,0
1,63,58,0
1,66,71,0
1,63,54,0
1,63,97,0
1,54,97,96
1,59,57,0
1,63,84,96
1,66,67,0
1,47,127,0
1,61,88,192
1,56,57,96
1,65,79,96
1,61,57,0
1,56,45,0
1,61,96,0
1,56,73,112
1,61,54,0
1,56,43,0
1,65,91,96
1,61,70,96
1,56,52,0
1,44,127,0
1,59,89,192
1,56,55,96
1,63,71,96
1,59,65,0
1,56,46,0
1,59,66,0
1,52,113,0
1,64,86,96
1,59,69,96
1,68,95,96
1,64,59,0
1,59,50,0
1,64,59,0
1,49,127,0
1,64,84,0
1,68,124,96
1,64,67,0
1,61,63,96
1,64,61,0
1,61,86,0
1,56,58,0
1,47,50,0
1,54,120,0
1,59,72,0
1,61,73,0
1,59,57,0
1,66,127,96
1,61,73,0
1,59,67,0
1,54,66,0
1,59,121,0
1,54,55,96
1,59,77,0
1,61,83,96
1,66,107,0
1,61,57,0
1,59,59,0
1,54,51,0
1,58,99,0
1,42,127,962
1,54,127,96
1,56,127,94
1,64,127,98
1,63,127,192
1,42,112,6
1,54,116,0
1,58,127,0
1,61,127,0
1,66,127,98
1,61,127,22
1,49,108,12
1,54,107,0
1,58,107,0
1,42,127,0
1,54,127,94
1,56,127,92
1,64,127,100
1,63,127,12
1,61,127,0
1,54,124,96
1,58,127,0
1,42,120,2
1,49,127,0
1,54,127,0
1,58,127,0
1,42,127,2
1,42,127,10
1,54,127,102
1,56,127,100
1,64,127,108
1,63,127,8
1,47,115,16
1,54,115,24
1,59,105,44
1,61,105,28
1,66,105,18
1,46,105,34
1,56,105,40
1,61,105,38
1,66,105,22
1,40,105,18
1,56,105,54
1,59,105,20
1,64,105,28
1,42,105,70
1,49,105,22
1,54,105,24
1,58,105,38
1,61,105,16
1,66,105,18
2,37,127,172
2,44,127,8
2,42,127,20
2,37,113,44
2,42,115,32
2,44,127,28
2,44,99,32
2,46,109,24
2,46,102,40
2,47,83,34
2,47,103,24
2,49,85,36
2,49,69,50
2,51,68,28
2,52,119,14
2,52,127,28
2,51,127,46
2,51,68,30
2,44,127,26
2,51,63,0
2,49,108,34
2,44,87,36
2,49,95,12
2,49,127,26
2,44,93,48
2,42,104,30
2,42,127,44
2,37,127,22
2,30,127,78
2,44,127,4
2,44,127,18
2,46,127,26
2,46,76,22
2,47,127,26
2,47,127,24
2,48,74,24
2,49,103,24
2,49,121,36
2,51,78,26
2,52,127,24
2,47,106,16
2,52,127,22
2,54,127,28
2,52,94,8
2,51,84,30
2,46,73,46
2,44,127,22
2,46,127,26
2,47,114,24
2,49,127,20
2,44,127,16
2,49,127,10
2,44,97,14
2,42,113,80
2,42,115,22
2,42,109,20
2,37,127,16
2,30,118,18
2,39,127,22
2,42,127,26
2,37,127,26
2,30,118,0
2,30,118,44
2,30,118,32
2,30,118,10
2,30,118,28
2,30,118,36
2,30,118,22
2,30,118,24
2,44,127,26
2,44,127,12
2,42,127,28
2,40,127,6
2,39,127,50
2,37,127,60
2,32,118,22
2,30,118,18
2,39,127,8
2,37,127,28
2,42,127,96
2,39,127,22
2,37,127,24
2,30,118,12
2,30,118,40
2,30,118,26
2,30,118,30
2,30,118,28
2,30,118,36
2,30,118,24
2,30,118,24
2,56,127,98
2,51,127,16
2,44,127,36
2,44,87,26
2,42,127,32
2,40,127,24
2,39,127,28
2,37,127,42
2,32,118,26
2,30,118,32
2,49,127,4
2,50,127,0
2,51,127,0
2,52,127,0
2,53,127,0
2,54,127,0
2,54,127,48
2,54,115,42
2,49,89,20
2,49,127,40
2,50,127,0
2,51,127,0
2,52,127,0
2,53,127,0
2,54,127,26
2,42,119,110
2,44,127,0
2,44,88,20
2,46,127,22
2,46,127,24
2,47,127,30
2,47,107,24
2,49,127,24
2,49,59,14
2,51,56,24
2,52,127,26
2,47,125,14
2,52,92,88
2,54,127,32
2,52,63,28
2,51,127,24
2,47,125,22
2,46,92,30
2,44,106,22
2,46,127,28
2,47,113,26
2,49,127,58
2,44,96,16
2,48,127,12
2,47,72,0
2,44,127,10
2,42,127,22
2,37,127,8
2,42,127,32
2,51,102,18
2,53,127,54
2,51,127,26
2,49,114,12
2,47,127,26
2,42,96,10
2,42,123,10
2,42,127,24
2,42,79,24
2,42,121,24
2,42,114,14
2,42,77,24
2,42,77,18
2,42,102,16
2,42,95,10
2,42,97,34
2,42,92,20
2,42,93,28
2,42,87,20
2,42,75,20
2,42,90,22
2,42,97,18
2,44,127,10
2,44,127,78
2,42,108,28
2,40,127,24
2,39,127,36
2,37,127,24
2,44,100,4
2,42,113,106
2,49,106,0
2,50,127,28
2,54,106,40
2,51,127,34
2,49,75,18
2,47,127,22
2,42,127,8
2,42,73,8
2,42,127,26
2,30,127,8
2,42,127,18
2,42,82,20
2,42,123,26
2,42,77,16
2,42,66,22
2,42,97,10
2,42,102,22
2,42,123,22
2,44,127,10
2,44,127,82
2,42,122,22
2,40,127,10
2,39,127,10
2,37,127,30
2,44,127,20
2,42,127,74
2,42,127,8
2,42,127,20
2,42,127,20
2,42,105,16
2,42,103,18
2,42,127,10
2,42,112,12
2,42,126,16
2,42,111,14
2,39,125,14
2,37,127,6
2,42,127,66
2,42,98,18
2,42,106,18
2,42,73,24
2,42,118,18
2,42,103,12
2,42,104,18
2,42,114,26
2,39,104,18
2,44,127,8
2,44,127,74
2,42,113,18
2,40,127,22
2,40,116,88
2,39,114,18
2,37,127,20
2,44,127,24
2,42,127,28
2,37,127,22
2,42,127,6
2,48,127,36
2,49,127,26
2,54,127,24
2,37,127,116
2,42,127,0
2,37,127,8
2,42,127,4
2,42,127,0
2,37,127,8
2,47,127,46
2,46,127,42
2,40,125,82
2,30,111,18
2,42,103,0
3,54,61,3192
3,59,58,0
3,63,65,0
3,56,60,0
3,61,61,0
3,65,59,0
3,59,70,0
3,63,61,0
3,66,64,0
3,56,63,0
3,61,63,0
3,64,59,0
3,56,67,0
3,59,75,0
3,64,57,0
3,58,62,0
3,61,72,0
3,66,58,0
3,58,58,0
3,63,76,0
3,66,59,0
3,54,66,0
3,59,85,0
3,63,66,0
3,56,68,0
3,59,67,0
3,64,61,0
3,54,57,0
3,59,69,0
3,61,59,0
3,58,61,30
3,54,75,8
3,59,104,0
3,63,73,0
3,56,72,0
3,61,108,0
3,65,74,0
3,59,79,0
3,63,88,0
3,66,68,0
3,56,86,0
3,64,71,0
3,56,72,0
3,64,79,0
3,58,89,0
3,61,103,0
3,66,75,0
3,58,71,0
3,63,111,0
3,66,80,0
3,56,97,0
3,59,106,0
3,63,82,0
3,56,89,0
3,59,124,0
3,64,100,0
3,54,85,0
3,61,127,0
3,58,110,24
3,54,98,24
3,59,104,0
3,63,80,0
3,53,91,0
3,56,93,0
3,61,109,0
3,54,100,0
3,59,106,0
3,63,86,0
3,56,75,0
3,64,105,0
3,56,91,0
3,64,81,0
3,54,97,0
3,61,98,0
3,58,123,8
3,54,76,16
3,59,127,0
3,63,97,0
3,56,77,0
3,61,120,0
3,65,74,0
3,56,88,0
3,59,101,0
3,63,107,0
3,56,86,0
3,59,127,0
3,64,82,0
3,56,85,0
3,59,126,0
3,64,110,0
3,54,91,0
3,59,119,0
3,61,94,0
3,58,114,48
3,54,76,24
3,59,73,0
3,63,80,0
3,56,75,0
3,61,76,0
3,65,74,0
3,59,85,0
3,63,76,0
3,66,79,0
3,56,78,0
3,61,78,0
3,64,74,0
3,56,82,0
3,59,90,0
3,64,72,0
3,58,77,0
3,61,87,0
3,66,73,0
3,58,73,0
3,63,91,0
3,66,74,0
