track,note,velocity,time
3,30,123,102
3,36,122,0
3,49,119,0
3,57,119,0
3,57,0,1
3,49,0,0
3,36,0,0
3,96,120,0
3,58,119,0
3,61,119,0
3,63,119,0
3,68,119,0
3,96,106,0
3,96,109,0
3,42,126,1
3,54,122,2
3,42,119,7
3,54,119,4
3,96,0,6
3,96,0,1
3,96,0,7
3,89,108,20
3,89,94,0
3,89,102,0
3,89,0,15
3,89,0,5
3,89,0,1
3,101,121,27
3,101,106,0
3,101,109,0
3,92,100,0
3,92,0,14
3,101,0,3
3,101,0,8
3,101,0,3
3,89,108,20
3,89,94,0
3,94,100,0
3,94,0,15
3,89,0,6
3,89,0,0
3,99,121,27
3,99,106,0
3,99,109,0
3,96,100,0
3,96,0,17
3,99,0,1
3,99,0,5
3,99,0,5
3,89,108,20
3,89,94,0
3,89,0,23
3,89,0,0
3,96,105,25
3,96,120,0
3,96,106,0
3,96,0,16
3,96,0,7
3,96,0,5
3,89,108,20
3,89,94,0
3,89,0,24
3,89,0,0
3,101,108,24
3,92,100,0
3,101,121,0
3,101,106,0
3,92,0,16
3,101,0,7
3,101,0,2
3,101,0,3
3,94,100,20
3,89,108,0
3,89,94,0
3,94,0,14
3,89,0,9
3,89,0,0
3,99,108,25
3,96,100,0
3,99,120,0
3,99,106,0
3,96,0,18
3,99,0,1
3,99,0,5
3,99,0,4
3,45,125,19
3,47,125,0
3,47,0,1
3,45,0,0
3,89,108,0
3,89,94,0
3,89,0,23
3,89,0,0
3,40,124,24
3,40,0,1
3,96,103,0
3,96,120,0
3,96,106,0
3,40,124,3
3,40,0,2
3,96,0,12
3,96,0,6
3,96,0,5
3,89,108,20
3,89,94,0
3,30,0,18
3,89,0,2
3,89,0,0
3,42,0,7
3,54,0,4
3,42,0,7
3,54,0,2
3,30,121,7
3,36,122,0
3,57,121,0
3,57,0,1
3,36,0,0
3,42,126,0
3,101,108,0
3,92,100,0
3,101,121,0
3,101,106,0
3,54,122,3
3,42,119,7
3,54,119,4
3,92,0,1
3,101,0,5
3,101,0,8
3,101,0,0
3,63,0,11
3,61,0,0
3,68,0,0
3,58,0,0
3,30,0,2
3,29,123,6
3,36,120,0
3,49,121,0
3,49,0,1
3,42,0,0
3,36,0,0
3,60,119,0
3,63,119,0
3,68,119,0
3,94,100,0
3,89,108,0
3,89,94,0
3,41,126,0
3,54,0,3
3,53,122,0
3,42,0,7
3,41,119,0
3,94,0,2
3,54,0,2
3,53,119,0
3,89,0,9
3,89,0,0
3,99,108,25
3,96,100,0
3,99,121,0
3,99,106,0
3,99,0,15
3,96,0,2
3,99,0,6
3,99,0,5
3,89,108,20
3,89,94,0
3,89,0,20
3,89,0,1
3,96,103,27
3,96,120,0
3,96,106,0
3,96,0,16
3,96,0,6
3,96,0,6
3,89,102,20
3,89,108,0
3,89,94,0
3,89,0,14
3,89,0,9
3,89,0,0
3,101,107,25
3,92,100,0
3,101,121,0
3,101,106,0
3,92,0,15
3,101,0,0
3,101,0,10
3,101,0,3
3,94,100,20
3,89,108,0
3,89,94,0
3,94,0,14
3,89,0,9
3,89,0,0
3,99,108,25
3,96,100,0
3,99,121,0
3,99,106,0
3,96,0,18
3,99,0,2
3,99,0,3
3,99,0,5
3,45,125,19
3,47,125,0
3,47,0,1
3,45,0,0
3,89,108,0
3,89,94,0
3,89,0,19
3,89,0,0
3,40,121,28
3,40,0,1
3,96,108,0
3,96,120,0
3,96,106,0
3,40,121,3
3,40,0,2
3,96,0,15
3,96,0,3
3,96,0,5
3,89,100,20
3,89,108,0
3,89,94,0
3,89,0,16
3,89,0,8
3,89,0,0
3,45,125,23
3,47,125,0
3,47,0,1
3,45,0,0
3,101,108,0
3,92,100,0
3,101,122,0
3,101,106,0
3,92,0,15
3,101,0,5
3,101,0,8
3,101,0,1
3,40,121,18
3,40,0,1
3,94,100,0
3,89,108,0
3,89,94,0
3,40,121,3
3,40,0,2
3,94,0,8
3,89,0,9
3,89,0,0
3,99,108,26
3,96,100,0
3,99,121,0
3,99,106,0
3,99,0,17
3,96,0,1
3,99,0,5
3,99,0,5
3,45,126,19
3,47,125,0
3,47,0,1
3,45,0,0
3,89,108,0
3,89,94,0
3,89,0,18
3,89,0,0
3,40,121,29
3,40,0,1
3,96,103,0
3,96,120,0
3,96,106,0
3,40,121,3
3,40,0,2
3,96,0,12
3,96,0,3
3,29,0,7
3,96,0,1
3,89,108,20
3,89,94,0
3,41,0,26
3,89,0,2
3,89,0,1
3,53,0,1
3,41,0,6
3,53,0,3
3,68,0,3
3,60,0,0
3,63,0,0
3,30,123,5
3,36,122,0
3,49,121,0
3,49,0,1
3,36,0,0
3,61,119,0
3,65,119,0
3,70,119,0
3,72,119,0
3,101,108,0
3,92,100,0
3,101,122,0
3,101,106,0
3,57,121,0
3,57,0,1
3,42,126,0
3,54,122,2
3,42,119,7
3,54,119,4
3,92,0,2
3,101,0,2
3,101,0,8
3,101,0,2
3,94,100,20
3,89,108,0
3,89,94,0
3,94,0,16
3,89,0,6
3,89,0,0
3,99,108,26
3,96,100,0
3,99,121,0
3,99,106,0
3,99,0,15
3,96,0,3
3,99,0,5
3,99,0,5
3,89,108,20
3,89,94,0
3,89,0,23
3,89,0,0
3,96,103,25
3,96,121,0
3,96,106,0
3,96,0,18
3,96,0,5
3,96,0,5
3,89,90,20
3,89,108,0
3,89,94,0
3,89,0,11
3,89,0,16
3,89,0,0
3,101,108,21
3,92,100,0
3,101,121,0
3,101,106,0
3,101,0,16
3,92,0,1
3,101,0,8
3,101,0,3
3,94,100,20
3,89,108,0
3,89,94,0
3,94,0,13
3,89,0,10
3,89,0,0
3,99,108,25
3,96,100,0
3,99,121,0
3,99,106,0
3,96,0,18
3,99,0,0
3,99,0,5
3,99,0,5
3,89,108,20
3,89,94,0
3,89,0,23
3,89,0,3
3,96,103,22
3,96,121,0
3,96,106,0
3,96,0,16
3,96,0,7
3,96,0,5
3,45,124,19
3,47,125,0
3,47,0,1
3,45,0,0
3,89,90,0
3,89,108,0
3,89,94,0
3,89,0,16
3,89,0,9
3,89,0,0
3,40,121,22
3,40,0,1
3,101,108,0
3,92,100,0
3,101,122,0
3,101,106,0
3,40,122,3
3,40,0,2
3,92,0,11
3,101,0,2
3,101,0,9
3,101,0,1
3,30,0,19
3,94,100,1
3,89,108,0
3,89,94,0
3,94,0,14
3,42,0,9
3,54,0,2
3,89,0,1
3,89,0,0
3,42,0,6
3,54,0,3
3,30,121,12
3,36,122,0
3,57,121,0
3,57,0,1
3,36,0,0
3,42,126,0
3,99,108,0
3,96,100,0
3,99,121,0
3,99,106,0
3,54,122,3
3,42,119,7
3,54,119,4
3,96,0,3
3,99,0,0
3,99,0,5
3,99,0,6
3,72,0,10
3,61,0,0
3,70,0,0
3,65,0,0
3,30,0,3
3,29,123,6
3,36,120,0
3,49,121,0
3,49,0,1
3,42,0,0
3,36,0,0
3,63,119,0
3,68,119,0
3,70,117,0
3,72,119,0
3,89,102,0
3,89,108,0
3,89,94,0
3,41,126,0
3,54,0,3
3,53,122,0
3,42,0,7
3,41,119,0
3,54,0,4
3,53,119,0
3,89,0,1
3,89,0,8
3,89,0,0
3,96,108,25
3,96,121,0
3,96,106,0
3,96,0,18
3,96,0,5
3,96,0,5
3,89,100,20
3,89,108,0
3,89,94,0
3,89,0,14
3,89,0,11
3,89,0,0
3,40,115,22
3,47,122,0
3,47,0,1
3,40,0,0
3,101,108,0
3,92,100,0
3,101,121,0
3,101,106,0
3,92,0,16
3,101,0,1
3,101,0,9
3,101,0,2
3,40,115,19
3,47,122,0
3,47,0,1
3,40,0,0
3,94,100,0
3,89,108,0
3,89,94,0
3,94,0,15
3,89,0,13
3,89,0,1
3,40,117,18
3,45,122,0
3,45,0,1
3,40,0,0
3,99,108,0
3,96,100,0
3,99,121,0
3,99,106,0
3,99,0,15
3,96,0,3
3,99,0,7
3,99,0,3
3,40,121,19
3,45,122,0
3,45,0,1
3,40,0,0
3,89,108,0
3,89,94,0
3,89,0,22
3,89,0,0
3,40,121,25
3,43,122,0
3,43,0,1
3,40,0,0
3,96,104,0
3,96,112,0
3,96,97,0
3,29,0,6
3,96,0,10
3,96,0,6
3,96,0,6
3,72,0,6
3,63,0,0
3,70,0,0
3,68,0,0
3,41,0,2
3,53,0,3
3,49,121,5
3,41,0,3
3,37,123,0
3,36,122,0
3,49,121,0
3,56,121,0
3,49,0,1
3,36,0,0
3,56,123,0
3,61,123,0
3,65,123,0
3,89,108,0
3,89,80,0
3,53,0,1
3,61,122,1
3,49,118,5
3,56,118,2
3,61,118,3
3,89,0,12
3,89,0,0
3,40,117,71
3,40,0,1
3,40,119,47
3,40,0,1
3,49,0,40
3,37,0,3
3,56,0,0
3,56,0,2
3,61,0,0
3,51,121,0
3,61,0,2
3,65,0,0
3,39,123,0
3,36,120,0
3,57,123,0
3,58,121,0
3,57,0,1
3,36,0,0
3,58,121,0
3,63,121,0
3,67,121,0
3,49,0,2
3,63,122,0
3,56,0,4
3,51,118,1
3,61,0,1
3,58,118,1
3,63,118,3
3,40,117,83
3,40,0,1
3,40,119,47
3,40,0,1
3,58,0,28
3,63,0,1
3,51,0,11
3,39,0,3
3,58,0,0
3,53,121,1
3,63,0,2
3,67,0,1
3,41,121,0
3,36,120,0
3,49,121,0
3,60,121,0
3,49,0,1
3,36,0,0
3,92,114,0
3,60,117,0
3,63,117,0
3,68,117,0
3,51,0,2
3,65,122,0
3,58,0,4
3,53,118,1
3,63,0,1
3,60,118,1
3,65,118,3
3,92,0,11
3,41,0,63
3,41,120,9
3,36,115,0
3,42,90,0
3,42,0,1
3,36,0,0
3,92,112,0
3,92,0,26
3,53,0,18
3,59,114,1
3,41,0,1
3,60,0,1
3,39,120,0
3,40,121,0
3,42,110,0
3,64,114,0
3,42,0,1
3,40,0,0
3,91,113,0
3,65,0,2
3,53,0,5
3,59,114,0
3,60,0,2
3,64,114,0
3,59,0,1
3,58,112,0
3,65,0,2
3,64,0,2
3,63,112,0
3,59,0,6
3,58,112,1
3,64,0,2
3,63,112,0
3,58,0,1
3,57,111,0
3,63,0,3
3,62,111,0
3,58,0,7
3,57,111,0
3,63,0,4
3,91,0,0
3,62,111,0
3,57,0,1
3,56,109,0
3,62,0,2
3,61,109,0
3,39,0,5
3,36,119,1
3,36,115,0
3,42,98,0
3,42,0,1
3,36,0,0
3,57,0,0
3,56,109,0
3,62,0,3
3,61,109,0
3,56,0,1
3,55,108,1
3,61,0,2
3,60,108,0
3,56,0,8
3,55,108,0
3,61,0,2
3,60,108,0
3,55,0,1
3,54,106,0
3,60,0,4
3,59,106,0
3,55,0,6
3,54,106,1
3,60,0,2
3,59,106,0
3,54,0,1
3,59,0,3
3,36,0,5
3,54,0,2
3,59,0,4
3,41,120,1
3,36,121,0
3,42,110,0
3,42,0,1
3,36,0,0
3,92,114,0
3,92,0,25
3,41,0,16
3,68,116,3
3,42,96,3
3,72,118,0
3,42,0,1
3,68,114,7
3,72,116,2
3,68,0,3
3,72,0,3
3,68,0,8
3,72,0,2
3,68,116,19
3,36,119,3
3,40,121,0
3,42,110,0
3,72,117,0
3,42,0,1
3,40,0,0
3,91,113,0
3,68,114,7
3,72,116,2
3,68,0,3
3,72,0,3
3,68,0,8
3,72,0,2
3,91,0,3
3,68,120,16
3,36,0,1
3,35,119,2
3,36,115,0
3,42,98,0
3,72,120,0
3,42,0,1
3,36,0,0
3,68,119,6
3,72,119,3
3,60,0,27
3,63,0,1
3,68,0,0
3,35,0,8
3,34,118,2
3,36,121,0
3,42,110,0
3,42,0,1
3,36,0,0
3,58,117,0
3,61,117,0
3,68,118,0
3,89,113,0
3,89,0,31
3,42,90,16
3,42,0,1
3,68,0,44
3,72,0,3
3,40,121,0
3,42,110,0
3,42,0,1
3,40,0,0
3,67,116,0
3,94,114,0
3,71,116,3
3,68,0,4
3,72,0,2
3,67,116,1
3,34,0,4
3,71,116,0
3,67,0,1
3,66,112,0
3,71,0,2
3,70,112,0
3,67,0,7
3,66,112,0
3,71,0,3
3,70,112,0
3,66,0,1
3,65,111,1
3,70,0,2
3,94,0,0
3,69,111,0
3,66,0,8
3,65,111,0
3,70,0,2
3,69,111,0
3,65,0,1
3,64,109,0
3,61,0,2
3,69,0,1
3,58,0,0
3,68,109,0
3,68,0,2
3,36,120,0
3,36,115,0
3,42,98,0
3,42,0,1
3,36,0,0
3,60,117,0
3,63,117,0
3,67,118,0
3,91,113,0
3,65,0,4
3,64,109,1
3,69,0,2
3,68,109,0
3,64,0,1
3,63,108,0
3,68,0,3
3,67,108,0
3,64,0,7
3,63,108,0
3,68,0,4
3,67,108,0
3,63,0,1
3,62,106,0
3,67,0,2
3,66,106,0
3,91,0,5
3,63,0,2
3,62,106,0
3,67,0,3
3,66,106,0
3,62,0,1
3,61,104,1
3,66,0,2
3,65,104,0
3,62,0,8
3,36,121,0
3,42,110,0
3,61,104,0
3,42,0,1
3,36,0,0
3,66,0,1
3,65,104,0
3,61,0,1
3,60,104,0
3,65,0,4
3,64,104,0
3,61,0,6
3,60,104,1
3,65,0,2
3,64,104,0
3,60,0,1
3,64,0,3
3,60,0,7
3,64,0,4
3,42,96,17
3,42,0,1
3,87,114,0
3,87,0,27
3,40,121,20
3,42,110,0
3,42,0,1
3,40,0,0
3,36,0,17
3,67,0,1
3,63,0,1
3,60,0,0
3,41,121,0
3,36,115,0
3,42,98,0
3,42,0,1
3,36,0,0
3,60,117,0
3,63,117,0
3,68,118,0
3,51,121,0
3,51,121,0
3,36,121,6
3,42,110,0
3,42,0,1
3,36,0,0
3,41,0,39
3,41,120,0
3,42,90,0
3,42,0,1
3,51,0,0
3,53,123,0
3,51,0,1
3,53,123,0
3,41,0,36
3,39,119,1
3,40,121,0
3,42,110,0
3,42,0,1
3,40,0,0
3,53,0,0
3,51,121,0
3,53,0,10
3,51,121,0
3,39,0,36
3,36,119,1
3,36,115,0
3,42,98,0
3,42,0,1
3,36,0,0
3,51,0,0
3,48,119,0
3,51,0,10
3,48,119,0
3,36,0,29
3,41,121,8
3,36,121,0
3,42,110,0
3,42,0,1
3,36,0,0
3,48,0,0
3,53,122,0
3,48,0,10
3,53,122,0
3,41,0,37
3,42,96,0
3,42,0,1
3,53,0,4
3,53,0,10
3,40,121,33
3,42,110,0
3,42,0,1
3,40,0,0
3,60,0,27
3,63,0,7
3,68,0,0
3,49,118,10
3,37,121,3
3,36,115,0
3,42,98,0
3,56,118,0
3,42,0,1
3,36,0,0
3,56,118,0
3,61,117,0
3,65,117,0
3,61,118,2
3,49,118,5
3,56,118,2
3,61,118,3
3,36,121,35
3,42,110,0
3,42,0,1
3,36,0,0
3,42,90,47
3,42,0,1
3,40,121,47
3,42,110,0
3,42,0,1
3,40,0,0
3,37,0,32
3,49,0,8
3,56,0,3
3,65,0,1
3,51,118,0
3,56,0,1
3,61,0,0
3,61,0,2
3,39,121,0
3,36,115,0
3,42,98,0
3,58,118,0
3,42,0,1
3,36,0,0
3,58,117,0
3,63,117,0
3,67,118,0
3,49,0,2
3,63,118,0
3,56,0,4
3,51,118,1
3,61,0,1
3,58,118,1
3,63,118,3
3,36,121,35
3,42,110,0
3,42,0,1
3,36,0,0
3,42,96,47
3,42,0,1
3,40,121,47
3,42,110,0
3,42,0,1
3,40,0,0
3,39,0,22
3,51,0,18
3,58,0,3
3,67,0,1
3,53,118,0
3,63,0,1
3,58,0,0
3,63,0,2
3,41,120,0
3,36,115,0
3,42,98,0
3,60,118,0
3,42,0,1
3,36,0,0
3,92,113,0
3,60,117,0
3,63,117,0
3,68,118,0
3,51,0,2
3,65,118,0
3,58,0,4
3,53,118,1
3,63,0,1
3,60,118,1
3,65,118,3
3,92,0,18
3,36,121,17
3,42,110,0
3,42,0,1
3,36,0,0
3,41,0,41
3,41,120,6
3,42,90,0
3,42,0,1
3,92,113,0
3,92,0,25
3,53,0,19
3,59,114,1
3,41,0,1
3,60,0,1
