track,note,velocity,time
1,57,70,1536
1,45,70,0
1,52,70,0
1,45,70,64
1,57,70,0
1,52,70,0
1,57,70,256
1,52,70,0
1,45,70,0
1,57,70,64
1,52,70,0
1,45,70,0
1,45,70,640
1,57,70,0
1,52,70,0
1,57,70,64
1,45,70,0
1,52,70,0
1,57,70,256
1,45,70,0
1,52,70,0
1,57,70,64
1,52,70,0
1,45,70,0
1,57,70,640
1,52,70,0
1,45,70,0
1,57,70,64
1,52,70,0
1,45,70,0
1,57,70,256
1,52,70,0
1,45,70,0
1,57,70,64
1,52,70,0
1,45,70,0
1,45,70,640
1,57,70,0
1,52,70,0
1,45,70,64
1,57,70,0
1,52,70,0
1,45,70,256
1,57,70,0
1,52,70,0
1,57,70,64
1,52,70,0
1,45,70,0
1,52,70,640
1,45,70,0
1,57,70,0
1,45,70,64
1,57,70,0
1,52,70,0
1,57,70,256
1,45,70,0
1,52,70,0
1,52,70,64
1,45,70,0
1,57,70,0
1,57,70,640
1,52,70,0
1,45,70,0
1,45,70,64
1,57,70,0
1,52,70,0
1,45,70,256
1,57,70,0
1,52,70,0
1,57,70,64
1,52,70,0
1,45,70,0
1,57,70,640
1,45,70,0
1,52,70,0
1,45,70,64
1,57,70,0
1,52,70,0
1,57,70,256
1,52,70,0
1,45,70,0
1,57,70,64
1,45,70,0
1,52,70,0
1,57,70,640
1,45,70,0
1,52,70,0
1,45,70,64
1,57,70,0
1,52,70,0
1,45,70,256
1,57,70,0
1,54,70,0
1,57,70,64
1,52,70,0
1,45,70,0
1,57,70,640
1,50,70,0
1,50,70,64
1,57,70,0
1,57,70,256
1,50,70,0
1,57,70,64
1,50,70,0
1,57,70,640
1,50,70,0
1,50,70,64
1,57,70,0
1,50,70,256
1,57,70,0
1,57,70,64
1,50,70,0
1,54,70,640
1,47,70,0
1,54,70,64
1,47,70,0
1,54,70,256
1,47,70,0
1,54,70,64
1,47,70,0
1,40,70,640
1,52,70,0
1,47,70,0
1,52,70,64
1,47,70,0
1,40,70,0
1,40,70,256
1,52,70,0
1,47,70,0
1,52,70,64
1,47,70,0
1,40,70,0
1,57,70,640
1,45,70,0
1,52,70,0
1,57,70,64
1,52,70,0
1,45,70,0
1,57,70,256
1,52,70,0
1,45,70,0
1,45,70,64
1,57,70,0
1,52,70,0
1,57,70,26112
1,45,70,0
1,52,70,0
1,57,70,64
1,52,70,0
1,45,70,0
1,57,70,256
1,52,70,0
1,45,70,0
1,45,70,64
1,57,70,0
1,52,70,0
2,76,127,1536
2,69,127,0
2,64,127,0
2,71,127,700
2,64,127,0
2,71,127,64
2,64,127,0
2,64,127,64
2,73,127,0
2,71,127,64
2,64,127,0
2,69,127,64
2,66,127,64
2,64,127,64
2,69,127,64
2,64,127,0
2,64,127,700
2,71,127,0
2,71,127,64
2,64,127,0
2,73,127,64
2,64,127,0
2,64,127,64
2,71,127,0
2,69,127,64
2,64,127,0
2,66,127,64
2,64,127,64
2,76,127,256
2,76,127,64
2,73,127,64
2,73,127,64
2,69,127,64
2,71,127,64
2,69,127,64
2,71,127,64
2,71,127,64
2,73,127,128
2,76,127,1024
2,76,127,64
2,73,127,64
2,73,127,64
2,71,127,512
2,76,127,128
2,73,127,64
2,71,127,32
2,69,127,32
2,69,127,96
2,66,127,32
2,64,127,32
2,71,127,448
2,71,127,64
2,73,127,64
2,71,127,64
2,69,127,64
2,66,127,128
2,71,127,256
2,71,127,64
2,71,127,64
2,73,127,128
2,71,127,640
2,71,127,64
2,73,127,64
2,71,127,64
2,78,127,128
2,73,127,96
2,73,127,0
2,71,127,64
2,76,127,1152
2,76,127,64
2,73,127,64
2,73,127,64
2,69,127,320
2,71,127,64
2,71,127,96
2,71,127,32
2,73,127,64
2,73,127,64
2,76,127,832
2,76,127,64
2,73,127,64
2,73,127,64
2,71,127,64
2,69,127,32
2,69,127,32
2,69,127,64
2,71,127,64
2,76,127,96
2,73,127,96
2,71,127,32
2,69,127,32
2,71,127,832
2,71,127,64
2,73,127,64
2,71,127,64
2,69,127,64
2,71,127,448
2,71,127,128
2,71,127,64
2,73,127,256
2,71,127,384
2,71,127,64
2,73,127,64
2,71,127,64
2,78,127,128
2,73,127,96
2,71,127,224
2,73,127,768
2,73,127,0
2,78,127,128
2,78,127,128
2,73,127,64
2,73,127,64
2,71,127,64
2,71,127,64
2,73,127,1088
2,73,127,64
2,80,127,128
2,80,127,128
2,71,127,128
2,70,127,64
2,70,127,64
2,73,127,1088
2,73,127,64
2,78,127,64
2,78,127,128
2,73,127,640
2,71,127,256
2,80,127,128
2,80,127,64
2,70,127,192
2,68,127,64
2,73,127,2816
2,78,127,128
2,78,127,64
2,73,127,128
2,73,127,64
2,71,127,64
2,71,127,64
2,73,127,1088
2,73,127,64
2,80,127,64
2,80,127,128
2,71,127,192
2,70,127,64
2,70,127,64
2,73,127,832
2,73,127,64
2,78,127,64
2,78,127,128
2,73,127,128
2,73,127,64
2,71,127,64
2,71,127,64
2,70,127,832
2,68,127,256
2,76,127,4224
2,76,127,64
2,73,127,64
2,73,127,64
2,69,127,320
2,71,127,64
2,71,127,96
2,71,127,32
2,73,127,64
2,73,127,64
2,76,127,832
2,76,127,64
2,73,127,64
2,73,127,64
2,71,127,64
2,69,127,32
2,69,127,32
2,69,127,64
2,71,127,64
2,76,127,96
2,73,127,96
2,71,127,32
2,69,127,32
2,71,127,832
2,71,127,64
2,73,127,64
2,71,127,64
2,69,127,64
2,71,127,448
2,71,127,128
2,71,127,64
2,73,127,256
2,71,127,384
2,71,127,64
2,73,127,64
2,71,127,64
2,69,127,32
2,66,127,32
2,69,127,64
2,71,127,64
2,73,127,1152
2,73,127,64
2,78,127,128
2,78,127,128
2,73,127,64
2,73,127,64
2,71,127,64
2,71,127,64
2,73,127,1088
2,73,127,64
2,80,127,128
2,80,127,128
2,71,127,128
2,70,127,64
2,70,127,64
2,73,127,1088
2,73,127,64
2,78,127,64
2,78,127,128
2,73,127,640
2,71,127,256
2,80,127,128
2,80,127,64
2,70,127,192
2,68,127,64
2,73,127,2816
2,78,127,128
2,78,127,64
2,73,127,128
2,73,127,64
2,71,127,64
2,71,127,64
2,73,127,1088
2,73,127,64
2,80,127,64
2,80,127,128
2,71,127,192
2,70,127,64
2,70,127,64
2,73,127,832
2,73,127,64
2,78,127,64
2,78,127,128
2,73,127,128
2,73,127,64
2,71,127,64
2,71,127,64
2,70,127,832
2,68,127,256
2,76,127,5376
2,76,127,0
2,76,127,0
2,76,127,64
2,76,127,0
2,76,127,64
2,75,127,64
2,73,127,32
2,71,127,32
2,71,127,544
2,73,127,32
2,73,127,64
2,73,127,32
2,75,127,96
2,76,127,384
2,76,127,64
2,76,127,64
2,76,127,64
2,75,127,64
2,71,127,64
2,71,127,320
2,73,127,64
2,78,127,96
2,78,127,32
2,75,127,64
2,78,127,640
2,78,127,256
2,75,127,160
2,75,127,96
2,78,127,1664
2,78,127,128
2,75,127,64
2,73,127,32
2,71,127,32
2,76,127,2368
2,76,127,64
2,76,127,64
2,76,127,64
2,75,127,64
2,73,127,32
2,71,127,32
2,71,127,544
2,73,127,32
2,73,127,64
2,73,127,32
2,75,127,128
2,76,127,384
2,76,127,64
2,76,127,64
2,76,127,64
2,75,127,64
2,71,127,64
2,71,127,320
2,71,127,32
2,73,127,32
2,73,127,64
2,78,127,32
2,75,127,224
2,78,127,640
2,78,127,256
2,75,127,96
2,75,127,96
2,78,127,1632
2,75,127,224
2,73,127,32
2,71,127,32
2,71,127,832
2,80,127,64
2,78,127,96
2,75,127,96
2,80,127,64
2,78,127,96
2,80,127,64
2,75,127,224
2,80,127,96
2,80,127,96
2,75,127,64
2,75,127,64
2,73,127,64
2,73,127,64
2,75,127,704
2,77,127,64
2,75,127,64
2,75,127,64
2,82,127,128
2,82,127,64
2,73,127,192
2,72,127,64
2,72,127,32
2,79,127,512
2,79,127,64
2,77,127,64
2,75,127,64
2,75,127,64
2,80,127,64
2,80,127,128
2,84,127,512
2,82,127,32
2,80,127,32
2,80,127,64
2,80,127,128
2,84,127,64
2,82,127,32
2,80,127,32
2,80,127,64
2,84,127,64
2,82,127,64
2,75,127,2044
2,80,127,128
2,80,127,64
2,75,127,128
2,75,127,64
2,73,127,64
2,73,127,64
2,75,127,1088
2,75,127,64
2,82,127,64
2,82,127,128
2,73,127,192
2,72,127,64
2,72,127,64
2,75,127,1092
2,75,127,64
2,80,127,64
2,80,127,128
2,75,127,128
2,75,127,64
2,73,127,64
2,73,127,64
2,75,127,128
2,75,127,64
2,75,127,64
2,72,127,320
2,70,127,256
2,77,127,2108
2,75,127,64
2,75,127,64
2,72,127,384
2,70,127,32
2,68,127,32
2,68,127,64
3,57,127,21120
3,57,127,128
3,52,127,0
3,45,127,0
3,52,127,64
3,57,127,256
3,52,127,0
3,45,127,0
3,52,127,448
3,57,127,128
3,52,127,0
3,45,127,0
3,57,127,64
3,52,127,0
3,45,127,0
3,45,127,256
3,57,127,0
3,52,127,0
3,57,127,64
3,52,127,0
3,45,127,0
3,57,127,256
3,57,127,64
3,57,127,64
3,52,127,0
3,45,127,0
3,57,127,64
3,52,127,0
3,45,127,0
3,57,127,256
3,52,127,0
3,45,127,0
3,57,127,448
3,57,127,0
3,57,127,128
3,50,127,0
3,57,127,64
3,50,127,0
3,57,127,256
3,50,127,0
3,57,127,64
3,50,127,0
3,57,127,640
3,50,127,0
3,57,127,64
3,50,127,0
3,57,127,256
3,50,127,0
3,57,127,448
3,49,127,0
3,49,127,64
3,47,127,32
3,54,127,32
3,47,127,0
3,47,127,64
3,54,127,0
3,54,127,256
3,47,127,0
3,54,127,64
3,47,127,0
3,47,127,256
3,40,127,128
3,52,127,64
3,40,127,128
3,37,127,64
3,49,127,128
3,49,127,32
3,37,127,32
3,42,127,0
3,54,127,128
3,42,127,64
3,42,127,64
3,42,127,64
3,54,127,64
3,42,127,64
3,42,127,64
3,54,127,128
3,42,127,64
3,49,127,64
3,42,127,0
3,51,127,64
3,54,127,64
3,42,127,0
3,51,127,64
3,49,127,64
3,49,127,128
3,37,127,64
3,35,127,64
3,35,127,64
3,47,127,64
3,35,127,64
3,34,127,64
3,46,127,128
3,46,127,64
3,34,127,128
3,46,127,256
3,39,127,64
3,51,127,256
3,39,127,64
3,39,127,64
3,51,127,256
3,39,127,64
3,35,127,64
3,35,127,0
3,47,127,256
3,47,127,0
3,35,127,64
3,35,127,0
3,35,127,64
3,35,127,64
3,47,127,64
3,47,127,96
3,40,127,32
3,52,127,256
3,40,127,64
3,40,127,64
3,40,127,64
3,52,127,64
3,40,127,64
3,37,127,64
3,49,127,256
3,37,127,64
3,37,127,64
3,49,127,256
3,42,127,256
3,54,127,256
3,42,127,64
3,42,127,64
3,42,127,64
3,54,127,64
3,42,127,64
3,42,127,64
3,42,127,64
3,44,127,64
3,46,127,64
3,47,127,64
3,49,127,64
3,42,127,64
3,44,127,64
3,37,127,64
3,49,127,256
3,37,127,64
3,35,127,64
3,35,127,64
3,47,127,64
3,35,127,64
3,34,127,64
3,34,127,64
3,46,127,64
3,34,127,64
3,34,127,256
3,41,127,64
3,46,127,64
3,39,127,64
3,39,127,64
3,51,127,64
3,39,127,64
3,39,127,256
3,42,127,64
3,44,127,64
3,35,127,64
3,35,127,64
3,47,127,64
3,35,127,64
3,35,127,64
3,35,127,64
3,47,127,64
3,35,127,64
3,40,127,64
3,40,127,64
3,52,127,64
3,40,127,64
3,40,127,64
3,40,127,64
3,44,127,64
3,47,127,64
3,37,127,64
3,37,127,64
3,49,127,64
3,37,127,64
3,35,127,64
3,35,127,64
3,47,127,64
3,35,127,64
3,37,127,64
3,49,127,64
3,49,127,32
3,37,127,32
3,37,127,32
3,49,127,32
3,49,127,32
3,37,127,32
3,37,127,32
3,49,127,32
3,49,127,32
3,37,127,32
3,37,127,32
3,49,127,32
3,57,127,1216
3,57,127,128
3,52,127,0
3,45,127,0
3,52,127,64
3,57,127,256
3,52,127,0
3,45,127,0
3,52,127,448
3,57,127,128
3,52,127,0
3,45,127,0
3,57,127,64
3,52,127,0
3,45,127,0
3,45,127,256
3,57,127,0
3,52,127,0
3,57,127,64
3,52,127,0
3,45,127,0
3,57,127,256
3,57,127,64
3,57,127,64
3,52,127,0
3,45,127,0
3,57,127,64
3,52,127,0
3,45,127,0
3,57,127,256
3,52,127,0
3,45,127,0
3,57,127,448
3,57,127,0
3,57,127,128
3,50,127,0
3,57,127,64
3,50,127,0
3,57,127,256
3,50,127,0
3,57,127,64
3,50,127,0
3,57,127,640
3,50,127,0
3,57,127,64
3,50,127,0
3,57,127,256
3,50,127,0
3,57,127,448
3,49,127,0
3,49,127,64
3,47,127,32
3,54,127,32
3,47,127,0
3,47,127,64
3,54,127,0
3,54,127,256
3,47,127,0
3,54,127,64
3,47,127,0
3,47,127,256
3,40,127,128
3,52,127,64
3,40,127,128
3,37,127,64
3,49,127,128
3,49,127,32
3,37,127,32
3,42,127,64
3,54,127,128
3,42,127,64
3,42,127,64
3,42,127,64
3,54,127,64
3,42,127,64
3,42,127,64
3,54,127,128
3,42,127,64
3,49,127,64
3,42,127,0
3,51,127,64
3,54,127,64
3,42,127,0
3,51,127,64
3,49,127,64
3,49,127,128
3,37,127,64
3,35,127,64
3,35,127,64
3,47,127,64
3,35,127,64
3,34,127,64
3,46,127,128
3,46,127,64
3,34,127,128
3,46,127,256
3,39,127,64
3,51,127,256
3,39,127,64
3,39,127,64
3,51,127,256
3,39,127,64
3,35,127,64
3,35,127,0
3,47,127,256
3,47,127,0
3,35,127,64
3,35,127,0
3,35,127,64
3,35,127,64
3,47,127,64
3,47,127,96
3,40,127,32
3,52,127,256
3,40,127,64
3,40,127,64
3,40,127,64
3,52,127,64
3,40,127,64
3,37,127,64
3,49,127,256
3,37,127,64
3,37,127,64
3,49,127,256
3,42,127,256
3,54,127,256
3,42,127,64
3,42,127,64
3,42,127,64
3,54,127,64
3,42,127,64
3,42,127,64
3,42,127,64
3,44,127,64
3,46,127,64
3,47,127,64
3,49,127,64
3,42,127,64
3,44,127,64
3,37,127,64
3,49,127,256
3,37,127,64
3,35,127,64
3,35,127,64
3,47,127,64
3,35,127,64
3,34,127,64
3,34,127,64
3,46,127,64
3,34,127,64
3,34,127,256
3,41,127,64
3,46,127,64
3,39,127,64
3,39,127,64
3,51,127,64
3,39,127,64
3,39,127,256
3,42,127,64
3,44,127,64
3,35,127,64
3,35,127,64
3,47,127,64
3,35,127,64
3,35,127,64
3,35,127,64
3,47,127,64
3,35,127,64
3,40,127,64
3,40,127,64
3,52,127,64
3,40,127,64
3,40,127,64
3,40,127,64
3,44,127,64
3,47,127,64
3,37,127,64
3,37,127,64
3,49,127,64
3,37,127,64
3,35,127,64
3,35,127,64
3,47,127,64
3,35,127,64
3,37,127,64
3,49,127,64
3,49,127,32
3,37,127,32
3,37,127,32
3,49,127,32
3,49,127,32
3,37,127,32
3,37,127,32
3,49,127,32
3,49,127,32
3,37,127,32
3,37,127,32
3,49,127,32
3,37,127,64
3,37,127,64
3,49,127,64
3,37,127,64
3,49,127,64
3,37,127,64
3,49,127,64
3,37,127,64
3,47,127,0
3,35,127,64
3,42,127,64
3,47,127,64
3,47,127,320
3,42,127,64
3,47,127,64
3,35,127,64
3,42,127,64
3,47,127,64
3,47,127,64
3,46,127,64
3,47,127,64
3,42,127,64
3,44,127,64
3,44,127,64
3,56,127,64
3,44,127,64
3,44,127,64
3,44,127,64
3,56,127,64
3,44,127,64
3,44,127,64
3,44,127,64
3,56,127,64
3,44,127,64
3,44,127,64
3,44,127,64
3,42,127,64
3,44,127,64
3,39,127,64
3,39,127,64
3,51,127,64
3,39,127,64
3,39,127,64
3,39,127,32
3,51,127,32
3,46,127,64
3,49,127,64
3,39,127,64
3,39,127,64
3,51,127,64
3,51,127,64
3,46,127,32
3,42,127,32
3,42,127,64
3,51,127,64
3,47,127,64
3,40,127,64
3,40,127,64
3,52,127,64
3,40,127,64
3,40,127,64
3,40,127,64
