track,note,velocity,time
1,72,103,8790
1,72,0,70
1,72,99,36
1,72,0,68
1,76,93,20
1,76,0,150
1,76,92,42
1,76,0,64
1,76,89,42
1,76,0,58
1,77,92,38
1,77,0,174
1,79,93,12
1,79,0,132
1,79,86,6
1,79,0,208
1,82,111,4
1,82,0,162
1,79,109,8
1,79,0,110
1,77,101,40
1,77,0,110
1,76,69,8
1,76,0,42
1,72,86,2
1,72,0,84
1,77,111,0
1,77,0,68
1,77,107,126
1,77,0,68
1,77,111,4
1,77,0,104
1,76,82,4
1,76,0,32
1,72,85,8
1,72,0,92
1,74,65,1160
1,76,64,182
1,74,0,2
1,76,0,6
1,72,99,1180
1,72,0,92
1,76,92,6
1,76,0,70
1,76,92,38
1,76,0,50
1,76,93,48
1,72,63,88
1,76,0,32
1,72,0,36
1,77,87,32
1,77,0,168
1,79,95,28
1,79,0,130
1,79,99,40
1,79,0,32
1,72,95,140
1,72,0,20
1,72,73,22
1,72,0,32
1,82,99,8
1,82,0,56
1,82,97,42
1,82,0,48
1,82,105,48
1,79,78,100
1,82,0,42
1,79,0,16
1,82,97,42
1,82,0,116
1,79,95,62
1,79,0,124
1,77,99,22
1,77,0,98
1,76,71,6
1,72,87,34
1,76,0,6
1,72,0,62
1,77,95,222
1,77,0,46
1,77,101,150
1,77,0,58
1,77,93,86
1,77,0,68
1,77,74,26
1,79,55,46
1,77,0,20
1,79,0,44
1,79,57,44
1,79,0,76
1,74,65,876
1,76,54,188
1,74,0,8
1,76,0,210
1,76,107,1316
1,76,0,30
1,74,105,26
1,74,0,142
1,76,95,44
1,76,0,92
1,74,101,50
1,74,0,138
1,72,93,8
1,72,0,82
1,72,103,202
1,72,0,116
1,74,90,78
1,74,0,136
1,76,86,14
1,76,0,122
1,74,89,302
1,74,0,148
1,79,93,42
1,79,0,124
1,76,90,20
1,76,0,128
1,69,74,10
1,69,0,120
1,72,83,174
1,72,0,158
1,74,83,34
1,74,0,112
1,72,82,26
1,72,0,98
1,71,51,4
1,71,0,42
1,69,59,6
1,69,0,78
1,74,92,202
1,74,0,90
1,74,86,54
1,74,0,92
1,74,95,52
1,74,0,100
1,76,76,4
1,76,0,20
1,72,87,210
1,72,0,62
1,72,52,38
1,72,0,82
1,79,86,12
1,79,0,166
1,76,83,6
1,76,0,144
1,69,83,174
1,69,0,84
1,74,87,6
1,74,0,172
1,76,86,20
1,76,0,136
1,72,77,6
1,72,0,94
1,72,82,58
1,72,0,36
1,72,85,58
1,72,0,34
1,72,86,60
1,72,0,38
1,72,92,54
1,72,0,84
1,79,71,4
1,79,0,78
1,79,97,28
1,79,0,1008
1,77,95,38
1,77,0,118
1,77,95,70
1,77,0,98
1,77,97,54
1,77,0,96
1,76,64,2
1,76,0,36
1,72,69,12
1,72,0,56
1,76,90,10
1,76,0,38
1,74,85,28
1,74,0,68
1,72,77,4
1,72,0,22
1,72,101,32
1,72,0,6
1,79,90,10
1,79,0,972
1,77,92,100
1,77,0,54
1,77,99,144
1,77,0,86
1,77,101,46
1,77,0,48
1,77,83,48
1,79,95,42
1,77,0,4
1,79,0,70
1,79,93,30
1,77,81,42
1,79,0,14
1,76,77,40
1,77,0,2
1,76,0,72
1,76,95,1276
1,76,0,22
1,76,63,18
1,76,0,28
1,76,90,22
1,76,0,82
1,72,82,10
1,72,0,46
1,77,90,46
1,77,0,192
1,79,86,6
1,79,0,154
1,79,99,34
1,79,0,128
1,82,90,206
1,82,0,44
1,82,86,50
1,82,0,96
1,79,63,4
1,79,0,26
1,82,92,68
1,82,0,162
1,79,87,22
1,79,0,120
1,77,78,34
1,77,0,90
1,76,66,4
1,76,0,42
1,72,70,2
1,72,0,62
1,77,90,214
1,77,0,76
1,77,90,120
1,77,0,68
1,77,92,88
1,77,0,88
1,76,69,8
1,76,0,38
1,72,71,8
1,72,0,40
1,74,73,1208
1,76,74,182
1,74,0,2
1,76,0,176
1,72,71,1280
1,72,0,74
1,76,89,14
1,76,0,26
1,76,59,20
1,76,0,20
1,76,73,14
1,76,0,24
1,76,92,28
1,76,0,94
1,77,76,150
1,77,0,56
1,77,87,50
1,77,0,90
1,79,90,2
1,79,0,126
1,79,89,58
1,79,0,120
1,82,87,184
1,82,0,38
1,82,95,58
1,79,69,86
1,82,0,2
1,79,0,26
1,82,103,70
1,82,0,44
1,79,85,42
1,79,0,6
1,77,78,40
1,77,0,90
1,76,67,6
1,76,0,36
1,72,83,10
1,72,0,50
1,77,87,228
1,77,0,38
1,77,89,68
1,77,0,96
1,77,76,42
1,77,0,32
1,77,90,66
1,77,0,40
1,77,73,52
1,79,64,48
1,77,0,14
1,79,0,78
1,79,70,8
1,79,0,46
1,77,65,2
1,76,72,52
1,77,0,2
1,76,0,82
1,74,92,972
1,74,0,182
1,76,60,0
1,76,0,162
1,76,103,1380
1,76,0,4
1,69,86,32
1,69,0,82
1,74,89,8
1,74,0,108
1,74,83,88
1,74,0,96
1,76,93,4
1,76,0,138
1,72,87,52
1,72,0,152
1,74,97,34
1,74,0,144
1,76,86,2
1,76,0,160
1,69,83,184
1,74,86,88
1,69,0,6
1,74,0,64
1,74,92,30
1,74,0,90
1,79,87,0
1,76,93,156
1,79,0,2
1,69,78,140
1,76,0,6
1,69,0,58
1,69,83,32
1,69,0,56
1,69,76,34
1,69,0,60
1,72,89,36
1,72,0,174
1,74,89,20
1,74,0,120
1,72,95,24
1,72,0,94
1,71,74,6
1,71,0,34
1,69,65,2
1,69,0,74
1,74,90,206
1,74,0,80
1,74,89,74
1,74,0,116
1,72,78,28
1,72,0,78
1,76,87,18
1,76,0,102
1,69,78,4
1,69,0,60
1,69,65,136
1,69,0,76
1,72,85,20
1,72,0,134
1,79,89,34
1,76,83,26
1,79,0,2
1,76,0,40
1,69,89,296
1,69,0,82
1,74,87,10
1,74,0,106
1,74,89,28
1,74,0,132
1,76,97,18
1,76,0,88
1,72,81,12
1,72,0,68
1,72,89,28
1,72,0,50
1,72,87,44
1,72,0,46
1,72,85,52
1,72,0,40
1,72,85,52
1,72,0,64
1,72,99,36
1,72,0,2
1,77,99,222
1,77,0,98
1,77,97,98
1,77,0,86
1,77,103,52
1,77,0,96
1,76,73,8
1,76,0,34
1,72,83,12
1,72,0,62
1,76,97,1088
1,76,0,94
1,74,81,8
1,74,0,74
1,72,82,10
1,72,0,54
1,72,82,40
1,72,0,796
1,77,78,28
1,77,0,20
1,77,57,26
1,77,0,26
1,77,84,20
1,77,0,20
1,77,98,26
1,77,0,92
1,77,57,6
1,77,0,20
1,77,97,32
1,77,0,84
1,77,32,4
1,77,0,24
1,77,57,24
1,77,0,36
1,77,89,16
1,77,0,44
1,77,68,4
1,77,0,24
1,79,97,26
1,79,0,86
1,79,97,10
1,77,68,48
1,79,0,10
1,77,0,40
1,76,64,8
1,76,0,68
1,79,90,864
1,77,71,134
1,79,0,4
1,77,0,46
1,76,75,2
1,76,0,38
1,76,103,6220
1,76,0,182
1,74,105,204
1,74,0,88
1,74,103,50
1,74,0,120
1,76,105,16
1,76,0,88
1,74,101,16
1,74,0,84
1,72,86,12
1,72,0,152
1,72,107,152
1,72,0,56
1,72,87,26
1,72,0,84
1,79,101,10
1,79,0,136
1,76,97,4
1,76,0,166
1,69,107,176
1,69,0,90
1,74,93,6
1,74,0,144
1,76,92,46
1,76,0,136
1,72,101,4
1,72,0,86
1,72,107,62
1,72,0,38
1,72,109,62
1,72,0,40
1,72,76,38
1,72,0,36
1,79,97,12
1,79,0,62
1,79,103,34
1,79,0,406
1,77,111,42
1,77,0,90
1,77,111,98
1,77,0,80
1,77,113,66
1,77,0,94
1,76,93,6
1,76,0,38
1,72,103,10
1,72,0,84
1,76,107,984
1,76,0,54
1,76,109,38
1,76,0,60
1,74,101,40
1,74,0,74
1,72,82,8
1,72,0,50
1,72,111,40
1,72,0,36
1,77,103,28
1,77,0,28
1,77,111,70
1,77,0,64
1,77,117,76
1,77,0,30
1,77,115,74
1,77,0,30
1,77,103,62
1,77,0,40
1,79,101,8
1,79,0,64
1,79,99,30
1,77,71,40
1,79,0,16
1,77,0,42
1,76,105,2
1,76,0,76
1,76,107,776
1,76,0,58
1,76,113,52
1,76,0,56
1,74,101,36
1,74,0,82
1,72,111,12
1,72,0,48
1,72,101,48
1,72,0,4
1,77,101,16
1,77,0,118
1,77,109,74
1,77,0,100
1,77,109,34
1,77,0,54
1,77,105,44
1,77,0,44
1,79,97,0
1,79,0,80
1,79,101,28
1,77,76,46
1,79,0,10
1,77,0,36
1,76,93,4
1,76,0,88
1,76,113,876
1,76,0,90
1,74,111,2
1,74,0,78
1,72,107,8
1,72,0,74
1,72,96,22
1,72,0,190
1,79,83,4
1,79,0,760
1,77,80,122
1,77,0,20
1,77,96,22
1,77,0,30
1,77,80,16
1,77,0,20
1,77,96,32
1,77,0,78
1,77,98,14
1,77,0,20
1,77,86,18
1,77,0,140
1,77,96,12
1,77,0,68
1,77,96,28
1,77,0,32
1,79,80,6
1,79,0,58
1,79,80,38
1,77,74,52
1,79,0,6
1,77,0,42
1,76,88,4
1,76,0,46
1,79,74,138
1,79,0,60
1,79,76,32
1,77,62,64
1,79,0,6
1,77,0,42
1,74,45,4
1,74,0,88
1,79,84,442
1,79,0,38
1,79,100,46
1,79,0,42
1,76,85,1734
1,76,0,160
1,74,92,34
1,74,0,96
1,72,83,4
1,72,0,58
1,72,87,42
1,72,0,280
1,77,93,476
1,76,71,104
1,77,0,2
1,76,0,116
1,76,90,76
1,76,0,62
1,76,108,26
1,76,0,160
1,74,92,34
1,74,0,96
1,72,83,4
1,72,0,58
1,72,87,42
1,72,0,280
1,79,95,466
1,79,0,254
1,84,83,0
1,84,0,140
1,76,95,100
1,76,0,92
1,74,80,2
1,74,0,96
1,72,95,6
1,72,0,68
1,72,85,30
1,72,0,260
1,77,99,502
1,77,0,34
1,77,103,64
1,77,0,110
1,77,107,32
1,77,0,68
1,77,105,34
1,77,0,56
1,77,103,38
1,77,0,34
1,79,95,12
1,79,0,96
1,77,105,946
1,77,0,138
1,77,103,70
1,77,0,92
1,77,103,38
1,77,0,74
1,77,97,28
1,77,0,36
1,79,95,10
1,79,0,70
1,77,99,1092
1,77,0,86
1,77,107,54
1,77,0,122
1,79,113,18
1,79,0,50
1,79,92,48
1,79,0,22
1,79,109,22
1,79,0,50
1,77,97,958
1,77,0,122
1,77,107,74
1,77,0,86
1,77,113,62
1,77,0,40
1,77,97,52
1,77,0,34
1,79,99,10
1,79,0,50
1,77,101,586
1,77,0,8
1,77,88,40
1,77,0,40
1,79,108,8
1,79,0,36
1,77,107,292
1,77,0,112
1,77,105,80
1,77,0,124
1,77,103,16
1,77,0,54
1,77,100,46
1,77,0,30
1,79,81,20
1,79,0,80
1,79,107,2604
1,79,0,50
1,79,97,48
1,79,0,48
1,79,105,52
1,79,0,42
1,79,103,50
1,79,0,354
1,77,103,86
1,77,0,16
1,77,101,6
1,77,0,68
1,77,99,40
1,77,0,86
1,77,97,12
1,77,0,28
1,79,111,14
1,79,0,24
1,76,78,18
1,76,0,72
1,72,76,6
1,72,0,24
1,72,74,0
1,72,0,46
1,72,72,18
1,72,0,18
1,79,61,32
1,79,0,26
1,76,52,30
1,76,0,22
1,74,45,16
1,74,0,34
1,72,42,4
1,72,0,72
2,76,89,3010
2,72,77,0
2,79,81,2
2,72,0,32
2,76,0,0
2,79,0,4
2,72,64,58
2,76,75,2
2,79,69,0
2,76,0,22
2,79,0,2
2,72,0,2
2,81,85,66
2,72,85,2
2,77,87,2
2,81,0,124
2,72,0,4
2,77,0,4
2,81,85,52
2,77,93,0
2,72,87,2
2,77,0,90
2,81,0,16
2,72,0,2
2,74,78,36
2,77,79,6
2,70,79,4
2,70,0,776
2,74,0,4
2,77,0,4
2,79,81,216
2,72,81,2
2,76,91,0
2,72,0,30
2,76,0,4
2,79,0,4
2,72,73,52
2,79,77,2
2,76,87,0
2,72,0,32
2,76,0,2
2,79,0,10
2,81,87,54
2,72,85,2
2,77,87,2
2,81,0,140
2,72,0,2
2,77,0,6
2,72,87,40
2,77,91,2
2,81,89,0
2,77,0,88
2,81,0,20
2,72,0,0
2,74,69,38
2,70,73,2
2,77,57,2
2,70,0,6
2,77,0,2
2,74,0,0
2,82,85,118
2,77,79,0
2,74,62,2
2,74,0,150
2,82,0,0
2,77,0,6
2,81,85,38
2,77,87,2
2,72,83,0
2,77,0,106
2,72,0,10
2,81,0,16
2,79,62,0
2,72,73,4
2,76,85,2
2,79,0,32
2,72,0,6
2,76,0,2
2,72,79,198
2,79,81,2
2,76,85,0
2,76,0,44
2,79,0,2
2,72,0,0
2,72,73,54
2,79,75,0
2,76,79,2
2,76,0,20
2,72,0,2
2,79,0,2
2,72,85,70
2,79,87,0
2,76,95,2
2,72,0,140
2,76,0,6
2,79,0,4
2,81,83,28
2,77,89,2
2,72,81,2
2,72,0,108
2,77,0,4
2,81,0,8
2,74,71,34
2,77,58,2
2,70,79,2
2,70,0,28
2,74,0,2
2,77,0,4
2,79,77,228
2,76,81,0
2,72,79,2
2,76,0,38
2,79,0,4
2,72,0,2
2,72,81,48
2,79,81,2
2,76,89,0
2,76,0,26
2,72,0,2
2,79,0,8
2,81,85,60
2,72,83,0
2,77,85,2
2,81,0,130
2,72,0,4
2,77,0,4
2,77,91,52
2,72,87,0
2,81,89,2
2,77,0,72
2,72,0,22
2,81,0,14
2,70,79,38
2,77,64,2
2,74,69,0
2,70,0,2
2,74,0,2
2,77,0,4
2,82,79,78
2,77,73,2
2,74,73,0
2,74,0,154
2,82,0,4
2,77,0,6
2,81,87,26
2,72,85,2
2,77,87,0
2,77,0,104
2,72,0,6
2,81,0,6
2,79,67,18
2,72,73,2
2,76,89,2
2,76,0,40
2,72,0,0
2,79,0,8
2,64,73,382
2,60,73,0
2,67,73,2
2,67,0,70
2,60,0,2
2,64,0,2
2,69,78,220
2,65,76,0
2,60,74,2
2,60,0,24
2,65,0,6
2,69,0,2
2,70,74,428
2,67,74,0
2,62,74,2
2,67,0,78
2,70,0,0
2,62,0,4
2,69,85,206
2,60,77,0
2,65,80,2
2,60,0,6
2,65,0,2
2,69,0,0
2,67,77,430
2,60,77,0
2,64,77,2
2,64,0,76
2,60,0,2
2,67,0,0
2,65,85,200
2,60,75,0
2,69,83,2
2,60,0,4
2,65,0,8
2,69,0,2
2,70,95,376
2,67,89,2
2,62,80,2
2,67,0,74
2,70,0,2
2,62,0,6
2,65,76,212
2,60,74,2
2,69,83,0
2,60,0,2
2,69,0,6
2,65,0,2
2,64,73,438
2,60,73,0
2,67,73,2
2,67,0,70
2,60,0,2
2,64,0,2
2,69,78,220
2,65,76,0
2,60,74,2
2,60,0,24
2,65,0,6
2,69,0,2
2,70,74,428
2,67,74,0
2,62,74,2
2,67,0,78
2,70,0,0
2,62,0,4
2,69,85,206
2,60,77,0
2,65,80,2
2,60,0,6
2,65,0,2
2,69,0,0
2,67,77,430
2,60,77,0
2,64,77,2
2,64,0,76
2,60,0,2
2,67,0,0
2,65,85,200
2,60,75,0
2,69,83,2
2,60,0,4
2,65,0,8
2,69,0,2
2,70,95,376
2,67,89,2
2,62,80,2
2,67,0,74
2,70,0,2
2,62,0,6
2,65,76,212
2,60,74,2
2,69,83,0
2,60,0,2
2,69,0,6
2,65,0,2
2,76,69,58
2,72,69,0
2,69,74,0
2,69,0,356
2,76,0,0
2,72,0,12
2,71,64,10
2,74,58,4
2,67,58,0
2,67,0,294
2,71,0,2
2,74,0,16
2,76,60,18
2,72,61,2
2,65,57,2
2,69,67,2
2,76,0,762
2,72,0,2
2,65,0,0
2,69,0,2
2,76,69,52
2,72,69,0
2,69,74,0
2,69,0,356
2,76,0,0
2,72,0,12
2,71,64,10
2,74,58,4
2,67,58,0
2,67,0,294
2,71,0,2
2,74,0,16
2,76,60,18
2,72,61,2
2,65,57,2
2,69,67,2
2,76,0,762
2,72,0,2
2,65,0,0
2,69,0,2
2,76,69,52
2,72,69,0
