track,note,velocity,time
0,39,127,60
0,44,69,1
0,44,114,0
0,56,127,48
0,56,127,0
0,58,127,47
0,58,120,0
0,66,127,46
0,66,127,0
0,65,127,95
0,65,127,0
0,46,127,4
0,44,0,37
0,44,0,0
0,46,0,1
0,65,0,5
0,65,0,0
0,44,112,3
0,56,116,0
0,60,127,0
0,63,127,0
0,44,101,0
0,56,105,0
0,60,117,0
0,63,127,0
0,44,127,2
0,68,127,47
0,68,127,0
0,56,0,11
0,56,0,0
0,63,0,26
0,63,0,0
0,63,127,11
0,63,127,0
0,60,0,90
0,60,0,0
0,51,110,6
0,56,110,0
0,60,110,0
0,51,90,0
0,56,90,0
0,60,89,0
0,44,0,2
0,44,0,0
0,44,0,169
0,63,0,21
0,68,0,0
0,44,124,0
0,63,0,0
0,68,0,0
0,44,113,0
0,60,0,1
0,39,113,0
0,60,0,0
0,51,0,2
0,56,0,0
0,51,0,0
0,56,0,0
0,56,127,47
0,56,121,0
0,58,127,46
0,58,112,0
0,66,127,50
0,66,127,0
0,56,0,88
0,56,0,0
0,65,127,6
0,65,127,0
0,58,0,23
0,58,0,0
0,66,0,27
0,66,0,0
0,44,0,26
0,44,0,0
0,65,0,20
0,63,127,0
0,65,0,0
0,63,125,0
0,39,0,33
0,56,124,15
0,60,127,0
0,56,109,0
0,60,113,0
0,44,120,1
0,44,115,0
0,44,105,0
0,51,127,191
0,56,127,0
0,60,127,0
0,51,125,0
0,56,127,0
0,60,125,0
0,60,0,1
0,44,0,0
0,56,0,0
0,44,127,0
0,60,0,0
0,44,0,0
0,56,0,0
0,44,124,0
0,44,0,178
0,44,0,6
0,44,0,0
0,56,0,1
0,56,0,0
0,51,0,1
0,51,0,0
0,60,0,1
0,60,0,0
0,63,0,3
0,63,0,0
0,46,127,0
0,56,61,0
0,61,58,0
0,65,65,0
0,58,127,1
0,61,127,0
0,65,127,0
0,58,114,0
0,61,125,0
0,65,125,0
0,56,127,1
0,46,127,0
0,46,125,0
0,56,0,41
0,58,127,3
0,58,0,37
0,58,127,6
0,58,0,36
0,56,127,5
0,65,0,34
0,58,0,0
0,65,0,0
0,58,0,0
0,61,0,2
0,61,0,0
0,58,89,1
0,61,127,0
0,65,127,0
0,58,74,0
0,61,125,0
0,65,125,0
0,58,127,7
0,46,0,71
0,58,0,6
0,56,86,0
0,46,99,0
0,56,0,37
0,58,127,9
0,60,91,0
0,63,127,0
0,67,88,0
0,48,109,0
0,65,0,0
0,61,0,0
0,56,0,0
0,58,60,0
0,63,61,0
0,67,59,0
0,60,76,0
0,63,125,0
0,67,73,0
0,48,127,1
0,48,125,0
0,58,0,26
0,60,93,12
0,60,84,9
0,60,0,59
0,67,0,29
0,67,0,0
0,60,0,6
0,63,0,0
0,60,0,0
0,63,0,0
0,60,80,11
0,63,127,0
0,67,127,0
0,60,65,0
0,63,125,0
0,67,125,0
0,56,67,0
0,48,0,28
0,56,0,10
0,60,127,9
0,48,102,0
0,60,0,34
0,61,115,3
0,62,115,9
0,63,115,0
0,62,0,10
0,48,0,21
0,60,0,1
0,60,0,0
0,67,0,4
0,67,0,0
0,48,0,1
0,48,0,0
0,63,0,2
0,63,0,1
0,63,0,0
0,49,83,0
0,67,0,0
0,63,0,0
0,58,0,0
0,61,70,0
0,65,61,0
0,68,64,0
0,61,127,1
0,65,127,0
0,61,125,0
0,65,123,0
0,49,127,1
0,56,112,0
0,49,125,0
0,56,97,0
0,65,127,2
0,65,0,81
0,63,125,1
0,63,127,6
0,65,0,27
0,61,0,0
0,65,0,0
0,61,0,0
0,56,0,1
0,56,0,0
0,56,100,14
0,61,127,0
0,65,127,0
0,56,85,0
0,61,125,0
0,65,125,0
0,63,0,43
0,61,99,8
0,49,0,28
0,61,0,4
0,49,103,0
0,63,127,5
0,49,0,51
0,49,0,0
0,61,0,20
0,61,0,0
0,49,0,2
0,56,0,2
0,65,0,0
0,56,0,0
0,65,0,0
0,51,85,16
0,68,0,0
0,65,0,0
0,61,0,0
0,58,63,0
0,63,63,0
0,66,59,0
0,51,127,1
0,58,77,0
0,63,127,0
0,66,127,0
0,51,125,0
0,58,62,0
0,63,125,0
0,66,125,0
0,63,0,2
0,66,0,175
0,66,0,0
0,63,0,2
0,58,0,0
0,63,0,0
0,58,0,0
0,58,108,12
0,63,125,0
0,58,93,0
0,63,110,0
0,66,127,1
0,66,125,0
0,51,0,70
0,66,0,14
0,66,0,0
0,63,127,6
0,66,120,4
0,66,105,0
0,51,69,0
0,63,0,30
0,51,0,4
0,65,127,7
0,68,124,6
0,68,109,0
0,53,68,0
0,66,0,11
0,66,0,0
0,65,0,24
0,63,0,1
0,58,0,0
0,63,0,0
0,58,0,0
0,51,0,5
0,53,0,0
0,51,0,0
0,66,127,6
0,68,0,0
0,68,0,0
0,54,119,0
0,66,0,0
0,63,0,0
0,58,0,0
0,58,67,0
0,61,75,0
0,66,57,0
0,61,114,1
0,66,127,0
0,70,127,0
0,61,99,0
0,66,125,0
0,70,125,0
0,42,127,1
0,42,125,0
0,66,0,78
0,65,127,12
0,73,127,7
0,73,125,0
0,63,127,4
0,73,0,89
0,73,0,0
0,70,127,1
0,70,125,0
0,63,0,34
0,61,93,12
0,66,0,16
0,66,0,0
0,61,0,27
0,66,124,4
0,66,109,0
0,70,0,1
0,70,0,0
0,63,127,2
0,61,0,28
0,61,0,0
0,54,0,4
0,42,0,2
0,42,0,0
0,66,0,8
0,66,0,0
0,63,127,3
0,68,127,0
0,72,127,0
0,63,123,0
0,68,125,0
0,72,125,0
0,54,127,0
0,66,0,0
0,61,0,0
0,58,0,0
0,60,62,0
0,63,72,0
0,68,58,0
0,42,127,1
0,42,125,0
0,63,0,40
0,65,103,9
0,65,0,70
0,72,0,6
0,72,0,0
0,56,94,4
0,75,127,8
0,75,125,0
0,68,0,86
0,68,0,0
0,75,0,5
0,75,0,0
0,72,127,5
0,72,125,0
0,56,0,33
0,53,79,12
0,56,127,5
0,68,127,1
0,68,125,0
0,53,127,3
0,68,0,0
0,63,0,0
0,60,0,0
0,60,58,0
0,65,76,0
0,68,59,0
0,60,104,1
0,65,127,0
0,60,89,0
0,65,125,0
0,53,127,1
0,53,125,0
0,56,0,34
0,60,0,145
0,60,0,0
0,65,0,1
0,65,0,0
0,60,86,12
0,65,127,0
0,68,103,0
0,60,71,0
0,65,118,0
0,68,88,0
0,53,0,79
0,62,127,12
0,53,68,0
0,62,0,14
0,63,127,0
0,62,108,0
0,62,0,2
0,61,108,0
0,65,0,28
0,60,0,0
0,65,0,0
0,60,0,0
0,53,0,1
0,53,0,3
0,68,0,0
0,53,0,0
0,68,0,0
0,58,87,9
0,61,85,0
0,65,127,0
0,58,72,0
0,61,70,0
0,65,116,0
0,46,127,1
0,68,0,0
0,65,0,0
0,60,0,0
0,56,66,0
0,61,85,0
0,65,66,0
0,46,115,2
0,46,100,0
0,61,0,93
0,61,0,85
0,61,0,0
0,65,0,1
0,65,0,0
0,58,0,3
0,58,0,0
0,58,68,9
0,61,127,0
0,58,53,0
0,61,125,0
0,65,127,1
0,65,125,0
0,58,0,54
0,58,0,0
0,65,0,37
0,65,0,0
0,53,63,0
0,63,127,1
0,66,127,0
0,66,125,0
0,63,0,33
0,65,127,10
0,66,0,2
0,66,0,0
0,68,127,2
0,68,125,0
0,46,0,17
0,46,0,0
0,61,0,8
0,61,0,0
0,53,0,4
0,65,0,6
0,66,127,8
0,68,0,2
0,68,0,0
0,51,108,0
0,65,0,0
0,61,0,0
0,56,0,0
0,58,68,0
0,61,67,0
0,66,61,0
0,66,127,3
0,66,125,0
0,51,127,1
0,63,127,0
0,70,127,0
0,51,125,0
0,63,125,0
0,70,125,0
0,66,0,32
0,66,127,10
0,63,127,1
0,70,0,81
0,70,0,0
0,63,0,2
0,66,0,0
0,63,0,0
0,66,0,0
0,63,0,15
0,63,127,0
0,66,53,0
0,70,127,0
0,63,118,0
0,66,38,0
0,70,125,0
0,51,0,75
0,46,87,0
0,58,127,8
0,46,0,34
0,58,0,3
0,51,95,0
0,61,127,8
0,66,0,27
0,63,0,0
0,51,0,0
0,66,0,0
0,63,0,0
0,51,0,1
0,51,0,0
0,70,0,7
0,70,0,0
0,61,0,3
0,51,127,2
0,61,127,2
0,66,127,0
0,73,106,0
0,61,125,0
0,66,125,0
0,73,91,0
0,51,127,1
0,51,125,0
0,61,127,4
0,61,0,39
0,61,127,8
0,58,127,6
0,51,0,18
0,73,0,14
0,61,0,0
0,66,0,0
0,73,0,0
0,61,0,0
0,66,0,0
0,46,93,10
0,61,107,2
0,66,110,0
0,61,92,0
0,66,95,0
0,73,96,1
0,73,81,0
0,58,0,43
0,54,127,7
0,54,0,35
0,57,127,7
0,57,0,14
0,58,127,0
0,57,127,0
0,57,0,7
0,56,127,0
0,61,0,13
0,61,0,0
0,51,0,1
0,51,0,0
0,46,0,2
0,66,0,5
0,66,0,0
0,73,0,1
0,73,0,0
0,56,113,9
0,61,127,0
0,63,125,0
0,44,104,0
0,66,0,0
0,61,0,0
0,58,0,0
0,56,57,0
0,61,69,0
0,63,59,0
0,56,98,0
0,61,118,0
0,63,110,0
0,44,127,1
0,44,125,0
0,56,0,101
0,44,0,25
0,44,127,22
0,56,0,30
0,56,0,0
0,61,0,5
0,61,0,0
0,63,0,2
0,63,0,0
0,56,127,7
0,56,125,0
0,61,114,49
0,61,99,0
0,63,91,5
0,63,76,0
0,39,127,6
0,68,127,40
0,68,125,0
0,39,0,8
0,61,0,12
0,61,0,0
0,56,0,6
0,56,0,0
0,61,0,7
0,63,0,4
0,63,0,0
0,44,0,6
0,44,0,0
0,32,127,4
0,60,61,1
0,63,120,1
0,63,105,0
0,44,120,1
0,56,116,0
0,60,120,0
0,44,105,0
0,56,101,0
0,60,105,0
0,44,0,176
0,44,0,0
0,60,0,2
0,60,0,0
0,63,0,1
0,63,0,0
0,56,0,1
0,56,0,0
0,60,127,11
0,60,125,0
0,44,127,1
0,56,127,0
0,63,127,0
0,44,125,0
0,56,125,0
0,63,125,0
0,60,0,184
0,44,0,2
0,63,0,0
0,56,0,0
0,44,0,0
0,56,0,1
0,63,0,0
0,56,0,0
0,63,0,0
0,60,0,1
0,60,0,0
0,56,75,0
0,61,104,0
0,65,73,0
0,68,0,0
0,56,67,0
0,61,67,0
0,65,67,0
0,58,127,1
0,61,127,0
0,65,127,0
0,32,0,0
0,58,114,0
0,61,125,0
0,65,125,0
0,56,127,1
0,46,127,0
0,46,125,0
0,46,127,1
0,56,0,36
0,58,127,5
0,58,127,10
0,56,127,8
0,58,89,2
0,61,127,0
0,65,127,0
0,58,74,0
0,61,125,0
0,65,125,0
0,58,127,5
0,58,0,76
0,46,0,7
0,46,127,3
0,56,127,1
0,56,0,37
0,58,127,1
0,65,0,37
0,46,0,0
0,58,0,0
0,61,0,0
0,46,0,0
0,65,0,0
0,46,0,0
0,58,0,0
0,61,0,0
0,60,91,10
0,63,127,0
0,67,88,0
0,65,0,0
0,61,0,0
0,56,0,0
0,58,72,0
0,63,108,0
0,67,74,0
0,60,76,0
0,63,125,0
0,67,73,0
0,65,0,0
0,61,0,0
0,56,0,0
0,58,67,0
0,63,67,0
0,67,67,0
0,48,127,1
0,48,125,0
0,48,127,2
0,58,0,31
0,60,127,11
0,60,127,10
0,58,91,2
0,60,0,60
0,67,0,17
0,67,0,0
0,60,0,6
0,63,0,0
0,60,0,0
0,63,0,0
0,60,80,11
0,63,127,0
0,67,127,0
0,60,65,0
0,63,125,0
0,67,125,0
0,63,91,1
0,48,0,83
0,48,76,11
0,67,91,0
0,60,127,4
0,60,0,42
0,63,127,0
0,49,127,5
0,61,79,0
0,65,88,0
0,68,68,0
0,67,0,0
0,63,0,0
0,58,0,0
0,61,67,0
0,65,67,0
0,68,67,0
0,61,127,1
0,65,127,0
0,58,0,0
0,68,91,0
0,61,125,0
0,65,123,0
0,49,127,1
0,56,112,0
0,49,125,0
0,56,97,0
0,65,127,3
0,63,0,0
0,65,0,40
0,63,127,4
0,63,0,36
0,63,127,1
0,61,91,0
0,63,0,35
0,63,127,9
0,56,100,0
0,61,127,0
0,65,127,0
0,56,85,0
0,61,125,0
0,65,125,0
0,62,127,1
0,65,76,0
0,62,0,9
0,63,127,0
0,63,127,3
0,68,77,8
0,49,127,1
0,63,0,31
0,63,127,10
0,50,74,8
0,68,0,0
0,65,0,3
0,61,0,0
0,68,0,5
0,65,0,0
0,58,86,0
0,66,71,0
0,68,0,0
0,65,0,0
0,58,67,0
0,66,67,0
0,51,127,1
0,58,77,0
0,63,127,0
0,66,127,0
0,51,125,0
0,58,62,0
0,63,125,0
0,66,125,0
0,51,103,3
0,50,0,5
0,63,0,11
0,61,91,78
0,66,0,80
0,66,0,0
0,63,0,2
0,58,0,0
0,63,0,0
0,58,0,0
0,58,108,12
0,63,125,0
0,58,93,0
0,63,110,0
0,66,127,1
0,66,125,0
0,66,80,2
0,51,0,75
0,66,0,7
0,66,0,0
0,63,127,8
0,66,120,2
0,66,105,0
0,51,121,0
0,70,73,2
0,63,0,31
0,65,127,4
0,51,0,1
0,68,124,9
0,68,109,0
0,53,78,3
0,66,0,8
0,66,0,0
0,61,0,14
0,63,0,11
0,58,0,0
0,53,0,0
0,63,0,0
0,58,0,0
0,65,0,5
0,51,0,0
0,66,0,0
0,51,0,0
0,68,0,6
0,68,0,0
0,54,127,0
0,66,0,0
0,58,0,0
0,58,72,0
0,66,79,0
0,66,0,0
0,58,0,0
0,58,67,0
0,66,67,0
0,66,127,1
0,61,114,0
0,66,127,0
0,70,127,0
0,61,99,0
0,66,125,0
0,70,125,0
0,42,127,1
0,42,125,0
0,70,0,2
0,61,80,43
0,66,0,34
0,65,127,9
0,66,78,1
0,70,0,30
0,70,0,0
0,65,0,4
0,63,127,12
0,73,127,0
0,73,125,0
0,73,91,2
0,66,0,73
0,63,0,12
0,61,123,5
0,73,0,1
0,73,0,0
0,66,78,2
0,70,127,1
0,70,125,0
0,73,0,30
0,61,0,2
0,61,69,15
0,66,0,15
0,66,0,0
0,61,0,14
0,66,0,6
0,63,127,6
0,54,0,1
0,66,124,4
0,66,109,0
0,70,0,1
0,70,0,0
0,66,78,1
0,49,106,1
0,61,0,28
0,61,0,0
0,42,0,6
0,42,0,0
0,49,0,3
0,61,0,0
0,66,0,5
0,61,0,0
0,66,0,0
0,61,0,0
0,63,127,3
0,68,127,0
0,72,127,0
0,63,123,0
0,68,125,0
0,72,125,0
0,66,0,1
0,58,0,0
0,60,89,0
0,63,103,0
0,68,75,0
0,66,0,0
0,58,0,0
0,60,67,0
0,63,67,0
0,68,67,0
0,42,127,1
0,63,71,0
0,42,125,0
0,54,127,1
0,63,0,26
0,65,127,13
0,66,0,0
0,68,81,1
0,63,0,25
0,63,78,20
0,65,0,32
0,72,0,7
0,72,0,0
0,56,127,2
0,75,76,7
0,75,127,1
0,75,125,0
0,68,0,30
0,68,72,15
0,68,0,41
0,63,0,0
0,68,0,0
0,75,0,5
0,75,0,0
0,63,70,3
0,72,127,2
0,72,125,0
0,54,0,31
0,68,0,0
0,75,0,3
0,56,127,11
0,68,74,1
0,56,0,37
0,63,0,2
0,56,0,5
0,68,127,4
0,54,94,0
0,68,125,0
0,53,92,0
0,72,0,0
0,72,0,0
0,63,0,15
0,63,0,0
0,42,0,18
0,42,0,0
0,54,0,1
0,68,0,2
0,53,0,8
0,68,0,1
0,68,0,0
0,60,71,0
0,65,111,0
0,68,80,0
0,68,0,0
0,63,0,0
0,60,0,0
0,60,67,0
0,65,67,0
0,68,67,0
0,60,104,1
0,65,127,0
0,53,84,0
0,58,72,0
0,60,89,0
0,65,125,0
0,53,127,1
0,53,125,0
0,56,127,1
0,56,0,38
0,65,76,0
0,56,127,4
0,58,0,35
0,68,68,9
0,65,0,30
0,56,0,1
0,56,127,11
0,65,60,5
0,72,83,10
0,60,86,2
0,65,127,0
0,68,103,0
0,60,71,0
0,65,118,0
