track,note,velocity,time
1,58,95,744
1,61,95,0
1,63,95,0
1,68,95,0
1,60,95,36
1,63,95,0
1,68,95,0
1,61,95,24
1,65,95,0
1,70,95,0
1,72,95,0
1,63,95,40
1,68,95,0
1,70,88,0
1,72,95,0
1,56,107,56
1,61,107,0
1,65,107,0
1,58,100,4
1,63,100,0
1,67,100,0
1,60,87,4
1,63,87,0
1,68,87,0
1,58,87,44
1,61,87,0
1,68,89,0
1,60,87,4
1,63,87,0
1,67,89,0
1,60,87,12
1,63,87,0
1,68,89,0
1,56,89,56
1,61,86,0
1,65,87,0
1,58,87,12
1,63,87,0
1,67,89,0
1,60,87,12
1,63,88,0
1,68,89,0
1,56,87,56
1,61,87,0
1,65,87,0
1,58,88,12
1,63,87,0
1,67,88,0
1,60,88,12
1,63,87,0
1,68,88,0
1,56,87,20
1,61,87,0
1,65,89,0
1,58,87,12
1,63,87,0
1,67,88,0
1,60,86,16
1,63,87,0
1,68,87,0
1,58,87,136
1,61,87,0
1,68,88,0
1,58,87,8
1,63,86,0
1,67,87,0
1,60,87,12
1,63,87,0
1,68,87,0
1,56,87,20
1,61,87,0
1,65,87,0
1,58,87,12
1,63,87,0
1,67,87,0
1,60,87,12
1,63,87,0
1,68,87,0
1,58,87,44
1,61,87,0
1,68,89,0
1,58,87,12
1,63,87,0
1,67,89,0
1,60,87,12
1,63,87,0
1,68,87,0
1,56,87,20
1,61,87,0
1,65,88,0
1,58,87,12
1,63,87,0
1,67,87,0
1,60,87,12
1,63,87,0
1,68,87,0
1,58,87,88
1,61,86,0
1,68,89,0
1,58,87,12
1,63,86,0
1,67,89,0
1,60,87,12
1,63,87,0
1,68,89,0
1,56,87,20
1,61,86,0
1,65,87,0
1,58,87,12
1,63,87,0
1,67,88,0
1,60,87,12
1,63,87,0
1,68,87,0
1,58,87,68
1,61,87,0
1,68,88,0
1,58,87,16
1,63,87,0
1,67,89,0
1,60,100,12
1,63,100,0
1,68,100,0
1,56,84,24732
1,61,80,0
1,65,81,0
1,58,80,60
1,63,80,0
1,67,82,0
1,60,80,12
1,65,80,0
1,68,81,0
1,56,80,36
1,61,79,0
1,65,80,0
1,58,80,20
1,63,80,0
1,67,81,0
1,60,81,12
1,65,80,0
1,68,81,0
1,56,80,36
1,61,79,0
1,65,80,0
1,58,80,20
1,63,80,0
1,67,81,0
1,60,90,12
1,65,90,0
1,68,90,0
1,61,107,36
1,65,107,0
1,70,107,0
1,56,80,128
1,61,80,0
1,65,81,0
1,58,80,12
1,63,79,0
1,67,82,0
1,60,89,12
1,63,89,0
1,68,89,0
1,58,87,128
1,61,87,0
1,68,88,0
1,58,87,12
1,63,86,0
1,67,87,0
1,60,87,12
1,63,87,0
1,68,87,0
1,56,87,20
1,61,86,0
1,65,87,0
1,58,87,12
1,63,87,0
1,67,87,0
1,60,87,12
1,63,87,0
1,68,87,0
1,58,87,68
1,61,87,0
1,68,89,0
1,58,87,12
1,63,87,0
1,67,89,0
1,60,87,12
1,63,87,0
1,68,87,0
1,56,87,20
1,61,87,0
1,65,88,0
1,58,87,12
1,63,87,0
1,67,87,0
1,60,87,12
1,63,87,0
1,68,87,0
1,58,87,88
1,61,86,0
1,68,89,0
1,58,87,12
1,63,86,0
1,67,89,0
1,60,87,12
1,63,87,0
1,68,89,0
1,56,87,20
1,61,86,0
1,65,87,0
1,58,87,12
1,63,87,0
1,67,88,0
1,60,87,12
1,63,87,0
1,68,87,0
1,58,87,68
1,61,87,0
1,68,88,0
1,58,87,12
1,63,87,0
1,67,89,0
1,60,87,12
1,63,88,0
1,68,90,0
1,56,84,24732
1,61,80,0
1,65,81,0
1,58,80,60
1,63,80,0
1,67,82,0
1,60,80,12
1,65,80,0
1,68,81,0
1,56,80,36
1,61,79,0
1,65,80,0
1,58,80,20
1,63,80,0
1,67,81,0
1,60,81,16
1,65,80,0
1,68,81,0
1,56,80,36
1,61,79,0
1,65,80,0
1,58,80,20
1,63,80,0
1,67,81,0
1,60,81,16
1,65,80,0
1,68,81,0
1,61,85,36
1,65,85,0
1,68,85,0
1,70,85,0
1,60,85,36
1,63,85,0
1,65,85,0
1,68,85,0
1,61,85,64
1,65,85,0
1,70,85,0
1,72,85,0
1,63,85,36
1,65,85,0
1,68,85,0
1,70,85,0
1,72,85,0
1,56,84,20
1,61,81,0
1,65,82,0
1,58,83,12
1,63,82,0
1,67,84,0
1,60,94,12
1,63,94,0
1,68,94,0
1,56,94,80
1,61,93,0
1,65,94,0
1,58,96,12
1,63,94,0
1,67,96,0
1,60,94,12
1,63,94,0
1,68,95,0
1,56,96,36
1,61,93,0
1,65,95,0
1,58,94,12
1,63,94,0
1,67,94,0
1,60,94,36
1,63,94,0
1,68,94,0
1,56,96,28
1,61,93,0
1,65,94,0
1,58,94,16
1,63,94,0
1,67,96,0
1,60,94,12
1,63,94,0
1,68,94,0
1,56,94,68
1,61,93,0
1,65,95,0
1,58,94,48
1,63,94,0
1,67,95,0
1,60,94,64
1,63,94,0
1,68,94,0
1,56,96,80
1,61,93,0
1,65,94,0
1,58,95,52
1,63,94,0
1,67,96,0
1,60,94,56
1,63,94,0
1,68,94,0
1,56,96,20
1,61,93,0
1,65,95,0
1,58,94,116
1,63,94,0
1,67,95,0
1,60,94,40
1,63,94,0
1,68,94,0
1,56,96,100
1,61,92,0
1,65,94,0
1,58,94,8
1,63,94,0
1,67,95,0
1,60,94,60
1,63,94,0
1,68,96,0
1,56,96,68
1,61,93,0
1,65,95,0
1,58,83,68
1,63,82,0
1,67,84,0
1,56,84,36
1,61,81,0
1,65,83,0
1,58,82,100
1,63,82,0
1,67,84,0
1,60,82,16
1,65,84,0
1,68,84,0
1,56,84,36
1,61,81,0
1,65,84,0
1,58,82,48
1,63,82,0
1,67,84,0
1,60,83,12
1,65,82,0
1,68,82,0
1,56,82,36
1,61,81,0
1,65,82,0
1,58,82,64
1,63,82,0
1,67,83,0
1,60,82,12
1,65,82,0
1,68,83,0
1,61,89,36
1,65,89,0
1,68,89,0
1,70,89,0
1,56,82,36
1,61,81,0
1,65,82,0
1,58,82,12
1,63,81,0
1,67,84,0
1,60,82,12
1,63,82,0
1,68,84,0
1,58,87,128
1,61,87,0
1,68,88,0
1,58,87,12
1,63,86,0
1,67,87,0
1,60,87,16
1,63,87,4
1,68,87,0
1,56,87,20
1,61,86,0
1,65,87,0
1,58,87,12
1,63,87,0
1,67,87,0
1,60,87,16
1,63,87,0
1,68,87,0
1,58,87,68
1,61,87,0
1,68,89,0
1,58,87,12
1,63,87,0
1,67,89,0
1,60,87,12
1,63,87,0
1,68,87,0
1,56,87,20
1,61,87,0
1,65,88,0
1,58,87,12
1,63,87,0
1,67,87,0
1,60,87,12
1,63,87,0
1,68,87,0
1,58,87,128
1,61,87,0
1,68,88,0
1,58,87,12
1,63,86,0
1,67,87,0
1,60,87,12
1,63,87,0
1,68,87,0
1,56,87,20
1,61,86,0
1,65,87,0
1,58,87,12
1,63,87,0
1,67,87,0
1,60,87,16
1,63,87,0
1,68,87,0
1,58,87,8
1,61,87,0
1,68,89,0
1,58,87,12
1,63,87,0
1,67,89,0
1,60,72,12
1,63,72,0
1,68,72,0
1,56,65,20
1,61,65,0
1,65,65,0
1,58,56,12
1,63,56,0
1,67,56,0
1,60,48,12
1,63,48,0
1,68,48,0
2,30,108,696
2,30,102,116
2,29,108,24
2,30,108,272
2,30,102,192
2,29,108,24
2,37,109,164
2,39,109,16
2,41,101,16
2,41,97,36
2,39,97,4
2,36,94,4
2,41,98,28
2,36,95,216
2,35,94,8
2,34,90,8
2,36,97,132
2,41,99,120
2,41,97,32
2,39,95,4
2,36,94,4
2,41,99,32
2,37,99,384
2,39,99,60
2,41,97,100
2,41,97,24
2,39,95,4
2,36,95,4
2,41,97,8
2,36,95,156
2,35,94,16
2,34,90,4
2,36,99,88
2,41,99,52
2,41,96,24
2,39,97,4
2,36,94,16
2,41,97,28
2,37,99,352
2,39,99,96
2,41,97,120
2,41,96,24
2,39,95,4
2,36,95,4
2,41,97,24
2,36,97,176
2,35,94,8
2,34,89,24
2,36,96,64
2,39,97,20
2,36,94,24
2,41,97,24
2,41,97,48
2,39,94,8
2,36,94,20
2,41,97,16
2,37,97,340
2,39,98,16
2,41,97,16
2,41,96,16
2,39,95,8
2,36,94,16
2,41,97,12
2,36,95,156
2,35,94,16
2,34,88,20
2,36,95,56
2,41,97,16
2,41,95,16
2,39,94,12
2,36,94,20
2,41,97,8
2,37,97,348
2,39,96,64
2,41,95,100
2,41,95,36
2,39,94,8
2,36,94,20
2,41,95,28
2,32,87,208
2,33,87,24
2,34,88,20
2,36,95,56
2,41,95,60
2,41,94,36
2,39,94,4
2,36,94,8
2,41,95,24
2,37,97,340
2,39,94,64
2,41,95,128
2,41,97,48
2,39,95,4
2,36,94,28
2,41,95,32
2,32,87,208
2,33,87,24
2,34,88,28
2,36,97,16
2,29,103,96
2,41,110,16
2,29,103,16
2,41,110,16
2,37,101,4
2,36,95,356
2,37,96,32
2,37,99,572
2,37,97,404
2,36,96,212
2,37,99,200
2,36,97,572
2,37,97,32
2,37,97,572
2,37,96,376
2,39,97,212
2,41,99,232
2,41,96,56
2,39,97,20
2,36,94,32
2,41,97,36
2,39,96,380
2,41,97,36
2,41,96,388
2,39,99,200
2,41,97,196
2,41,97,72
2,39,95,4
2,36,94,16
2,41,99,36
2,41,97,580
2,41,97,376
2,36,95,220
2,37,97,180
2,36,97,560
2,37,99,20
2,37,99,580
2,37,97,388
2,36,97,196
2,37,98,164
2,36,96,528
2,37,97,28
2,37,98,584
2,37,97,384
2,39,97,212
2,41,99,228
2,41,96,52
2,39,96,20
2,36,95,28
2,41,98,36
2,39,97,356
2,41,96,36
2,41,97,372
2,36,95,180
2,41,97,192
2,41,96,36
2,39,97,24
2,36,94,32
2,41,97,32
2,41,97,572
2,41,97,380
2,36,97,164
2,35,97,16
2,34,90,32
2,34,88,32
2,34,89,40
2,34,89,20
2,34,90,36
2,34,88,20
2,34,89,32
2,34,90,24
2,36,95,36
2,41,96,64
2,36,94,8
2,35,96,8
2,34,89,40
2,34,88,52
2,34,89,24
2,34,88,32
2,34,88,36
2,34,87,32
2,34,87,4
2,34,88,28
2,36,94,32
2,36,94,32
2,36,94,40
2,41,95,36
2,36,94,40
2,35,94,28
2,34,88,40
2,34,88,44
2,34,88,16
2,34,87,36
2,34,88,28
2,34,87,28
2,34,88,24
2,34,87,24
2,36,94,24
2,36,94,56
2,36,94,40
2,41,97,28
2,41,97,64
2,42,115,68
2,37,97,196
2,39,100,16
2,41,98,120
2,41,96,8
2,39,95,4
2,36,95,4
2,41,97,24
2,32,90,176
2,33,87,8
2,34,89,24
2,36,96,64
2,39,97,20
2,36,94,24
2,41,97,24
2,41,97,48
2,39,94,4
2,36,94,20
2,41,97,16
2,37,97,340
2,39,98,16
2,41,97,16
2,41,96,16
2,39,95,8
2,36,94,16
2,41,97,8
2,36,95,156
2,35,94,16
2,34,88,20
2,36,95,56
2,41,97,16
2,41,95,16
2,39,94,8
2,36,94,20
2,41,97,8
2,37,97,348
2,39,96,64
2,41,95,100
2,41,95,36
2,39,94,12
2,36,94,20
2,41,95,28
2,36,94,208
2,35,94,24
2,34,88,20
2,34,90,160
2,36,95,36
2,39,100,16
2,36,95,4
2,41,95,4
2,41,94,36
2,39,94,4
2,36,94,8
2,41,95,24
2,37,97,340
2,49,96,4
2,37,97,4
2,39,94,20
2,51,97,4
2,39,99,4
2,41,95,36
2,41,97,48
2,39,95,4
2,36,94,28
2,41,95,32
2,36,94,208
2,35,94,24
2,34,88,28
2,36,97,16
2,41,115,16
2,41,115,16
2,29,108,16
2,41,115,16
2,37,101,4
2,36,95,356
2,37,96,32
2,37,99,572
2,37,97,404
2,36,96,212
2,37,99,200
2,36,97,572
2,37,97,32
2,37,97,572
2,37,96,376
2,39,97,212
2,41,99,232
2,41,96,56
2,39,97,20
2,36,94,32
2,41,97,36
2,39,96,380
2,41,97,36
2,41,96,388
2,39,99,200
2,41,97,196
2,41,97,72
2,39,95,4
2,36,94,16
2,41,99,36
2,41,97,580
2,41,97,376
2,36,95,220
2,37,97,180
2,36,97,560
2,37,99,20
2,37,99,580
2,37,97,388
2,36,97,200
2,37,98,164
2,36,96,528
2,37,97,28
2,37,98,584
2,37,97,384
2,39,97,208
2,41,99,228
2,41,96,52
2,39,96,20
2,36,95,28
2,41,98,36
2,39,97,356
2,41,96,36
2,41,97,372
2,39,95,180
2,41,97,192
2,41,96,36
2,39,97,24
2,36,94,32
2,41,97,32
2,41,97,572
2,41,97,372
2,36,97,164
2,35,97,16
2,34,90,32
2,34,88,24
2,34,89,40
2,34,89,20
2,34,90,36
2,34,88,20
2,34,89,32
2,34,90,24
2,36,95,36
2,36,96,16
2,36,95,24
2,41,96,20
2,36,94,8
2,35,96,8
2,34,89,40
2,34,88,52
2,34,89,24
2,34,88,32
2,34,88,36
2,34,87,32
2,34,87,4
2,46,95,28
2,29,87,32
2,29,87,32
2,29,87,40
2,29,88,36
2,29,92,24
2,36,94,24
2,35,94,28
2,34,88,40
2,34,88,40
2,34,88,16
2,34,87,36
2,34,88,28
2,34,87,28
2,34,88,24
2,34,87,24
2,36,94,24
2,36,94,56
2,36,94,40
2,41,97,28
2,41,95,16
2,41,97,16
2,41,96,16
2,42,115,16
2,42,98,120
2,41,115,16
2,42,115,112
2,42,98,132
2,41,115,24
2,48,99,40
2,37,98,4
2,39,102,84
2,41,97,152
2,41,94,36
2,39,95,24
2,36,94,28
2,29,88,20
2,36,94,4
2,34,88,36
2,34,92,36
2,36,95,40
2,39,95,32
2,36,94,0
2,41,97,32
2,41,95,36
2,39,94,32
2,36,94,4
2,41,95,24
2,37,95,8
2,39,95,48
2,39,95,28
2,41,95,32
2,41,94,36
2,39,94,20
2,36,94,16
2,29,87,16
2,32,87,36
2,33,87,36
2,34,88,16
2,35,94,52
2,36,95,32
2,39,95,20
2,40,97,36
2,41,95,8
2,41,95,52
2,39,94,24
2,36,94,8
2,41,95,20
2,37,95,8
2,49,95,16
2,37,94,32
2,39,95,44
2,51,95,28
2,39,94,28
2,41,94,8
2,41,94,48
2,39,94,20
2,36,94,16
2,29,87,8
2,32,87,32
2,33,87,36
2,34,88,28
2,36,94,40
2,39,95,28
2,36,94,8
2,41,95,36
2,41,94,36
2,39,94,32
2,36,94,4
2,41,97,24
2,37,97,8
2,39,97,32
2,41,96,48
2,41,94,32
2,39,94,16
2,36,94,20
2,29,87,20
2,32,87,36
2,33,87,28
2,34,88,20
2,35,94,28
2,36,94,28
2,39,94,20
2,40,95,16
2,41,97,16
2,41,95,64
2,39,95,16
2,36,94,4
2,41,95,20
2,37,95,8
2,39,97,32
2,36,95,28
2,35,95,16
2,34,90,36
2,34,90,32
2,34,88,52
2,34,87,32
2,34,88,36
2,34,87,28
2,34,88,28
2,34,88,20
2,36,94,40
2,36,94,44
2,36,94,36
2,41,97,28
2,36,94,48
2,35,94,28
2,34,87,20
2,34,88,24
2,34,88,28
2,34,87,40
2,34,87,32
2,34,87,24
2,34,87,28
2,34,87,28
2,36,94,36
2,36,94,40
2,36,94,28
2,41,94,24
2,36,94,56
2,35,94,4
2,34,87,20
2,34,87,28
2,34,87,36
2,34,87,20
2,34,86,24
2,34,87,20
2,34,87,24
2,34,87,24
2,36,94,28
2,36,94,36
2,36,93,36
2,41,94,28
2,41,94,36
2,42,97,36
2,37,94,188
2,39,98,20
2,41,100,60
2,41,96,36
2,39,95,4
2,36,95,4
2,29,90,24
2,32,90,176
2,33,87,8
2,34,89,24
2,36,96,64
2,39,97,20
2,36,94,24
2,41,97,24
2,41,97,48
2,39,94,4
2,36,94,20
2,41,97,16
2,37,97,340
2,39,98,16
2,41,97,16
2,41,96,16
2,39,95,8
2,36,94,16
2,29,90,8
2,36,95,156
2,35,94,16
2,34,88,20
2,36,95,56
2,41,97,16
2,41,95,16
2,39,94,12
