track,note,velocity,time
1,69,127,4418
1,81,127,4
1,81,0,34
1,69,0,0
1,72,127,10
1,84,127,0
1,84,0,46
1,72,0,0
1,74,127,0
1,86,127,0
1,74,0,40
1,86,0,6
1,77,127,4
1,89,127,0
1,77,0,38
1,89,0,6
1,89,127,52
1,77,127,0
1,86,127,48
1,77,0,2
1,89,0,0
1,74,127,0
1,74,0,76
1,86,0,0
1,84,127,1170
1,72,127,2
1,86,127,94
1,72,0,2
1,84,0,0
1,74,127,0
1,86,0,84
1,74,0,9
1,69,127,1345
1,81,127,2
1,81,0,28
1,69,0,8
1,72,127,10
1,84,127,2
1,84,0,28
1,72,0,6
1,74,127,14
1,86,127,2
1,86,0,42
1,74,0,0
1,89,127,0
1,77,127,0
1,77,0,40
1,89,0,0
1,89,127,58
1,77,127,2
1,86,127,48
1,74,127,2
1,77,0,2
1,89,0,4
1,74,0,40
1,86,0,4
1,72,127,1197
1,84,127,0
1,86,127,95
1,74,127,0
1,72,0,10
1,84,0,2
1,86,0,72
1,74,0,9
1,69,127,13633
1,81,127,2
1,81,0,36
1,69,0,0
1,72,127,13
1,84,127,3
1,84,0,40
1,72,0,0
1,74,127,0
1,86,127,0
1,74,0,40
1,86,0,4
1,77,127,7
1,89,127,5
1,77,0,32
1,89,0,9
1,89,127,51
1,77,127,0
1,86,127,48
1,74,127,2
1,77,0,2
1,89,0,0
1,86,0,72
1,74,0,0
1,84,127,1170
1,72,127,0
1,84,0,96
1,86,127,0
1,74,127,0
1,72,0,4
1,86,0,82
1,74,0,9
1,69,127,1348
1,81,127,0
1,81,0,27
1,69,0,8
1,72,127,2
1,84,127,2
1,84,0,36
1,72,0,6
1,74,127,12
1,86,127,2
1,86,0,44
1,74,0,0
1,77,127,0
1,89,127,0
1,89,0,40
1,77,0,0
1,89,127,58
1,77,127,0
1,77,0,48
1,86,127,0
1,74,127,0
1,89,0,12
1,74,0,38
1,86,0,4
1,72,127,1192
1,84,127,0
1,86,127,98
1,74,127,0
1,72,0,12
1,84,0,2
1,86,0,70
1,74,0,11
1,81,127,19777
1,93,127,0
1,93,0,36
1,81,0,2
1,79,127,56
1,91,127,0
1,79,0,40
1,91,0,6
1,77,127,2
1,89,127,0
1,77,0,40
1,89,0,9
1,89,127,49
1,77,127,0
1,77,0,50
1,89,0,0
1,86,127,0
1,74,127,0
1,74,0,76
1,86,0,0
1,84,127,1170
1,72,127,0
1,86,127,96
1,84,0,2
1,74,127,0
1,72,0,4
1,86,0,80
1,74,0,9
1,69,127,1345
1,81,127,2
1,81,0,28
1,69,0,8
1,72,127,10
1,84,127,0
1,84,0,30
1,72,0,8
1,74,127,10
1,86,127,2
1,86,0,44
1,74,0,0
1,77,127,0
1,89,127,0
1,89,0,40
1,77,0,2
1,89,127,57
1,77,127,0
1,86,127,47
1,74,127,0
1,77,0,6
1,89,0,6
1,74,0,36
1,86,0,6
1,72,127,1192
1,84,127,0
1,86,127,96
1,74,127,8
1,84,0,8
1,72,0,0
1,86,0,70
1,74,0,11
1,69,127,1343
1,81,127,0
1,81,0,38
1,69,0,2
1,72,127,8
1,84,127,0
1,84,0,48
1,72,0,0
1,74,127,0
1,86,127,0
1,74,0,40
1,86,0,8
1,77,127,0
1,89,127,0
1,89,0,40
1,77,0,0
1,89,127,56
1,77,127,0
1,77,0,52
1,89,0,0
1,86,127,0
1,74,127,0
1,74,0,76
1,86,0,0
1,84,127,1170
1,72,127,0
1,86,127,98
1,84,0,2
1,74,127,0
1,72,0,2
1,86,0,80
1,74,0,9
1,69,127,1345
1,81,127,2
1,81,0,28
1,69,0,6
1,72,127,10
1,84,127,0
1,84,0,32
1,72,0,8
1,74,127,10
1,86,127,1
1,86,0,45
1,74,0,0
1,89,127,0
1,77,127,0
1,77,0,40
1,89,0,0
1,89,127,58
1,77,127,2
1,86,127,46
1,74,127,2
1,77,0,4
1,89,0,6
1,74,0,40
1,86,0,2
1,72,127,1194
1,84,127,0
1,86,127,96
1,74,127,0
1,72,0,10
1,84,0,4
1,86,0,70
1,74,0,11
1,69,127,7487
1,81,127,6
1,81,0,32
1,69,0,2
1,72,127,10
1,84,127,0
1,84,0,46
1,72,0,2
1,74,127,0
1,86,127,0
1,74,0,38
1,86,0,6
1,77,127,2
1,89,127,4
1,77,0,36
1,89,0,9
1,89,127,49
1,77,127,0
1,86,127,50
1,77,0,2
1,74,127,0
1,89,0,2
1,74,0,72
1,86,0,0
1,84,127,1170
1,72,127,0
1,72,0,94
1,84,0,0
1,86,127,0
1,74,127,0
1,86,0,88
1,74,0,9
1,69,127,1343
1,81,127,0
1,81,0,32
1,69,0,4
1,74,127,62
1,86,127,0
1,86,0,46
1,74,0,0
1,77,127,0
1,89,127,0
1,89,0,40
1,77,0,0
1,89,127,58
1,77,127,0
1,86,127,46
1,74,127,0
1,77,0,8
1,89,0,4
1,74,0,40
1,86,0,4
1,72,127,1192
1,84,127,0
1,86,127,96
1,74,127,0
1,84,0,16
1,72,0,2
1,86,0,68
1,74,0,11
1,69,127,5951
1,81,127,0
1,81,0,40
1,69,0,0
1,69,127,10
1,81,127,2
1,81,0,36
1,69,0,0
1,79,127,11
1,67,127,5
1,67,0,32
1,79,0,0
1,77,127,8
1,65,127,0
1,65,0,40
1,77,0,0
1,77,127,54
1,65,127,2
1,74,127,46
1,65,0,2
1,77,0,0
1,62,127,0
1,74,0,32
1,62,0,16
1,84,127,1202
1,72,127,2
1,84,0,92
1,86,127,0
1,74,127,0
1,72,0,8
1,86,0,80
1,74,0,9
1,69,127,1345
1,81,127,2
1,81,0,28
1,69,0,8
1,72,127,8
1,84,127,2
1,84,0,30
1,72,0,8
1,74,127,10
1,86,127,2
1,86,0,44
1,74,0,0
1,77,127,0
1,89,127,0
1,89,0,40
1,77,0,0
1,89,127,58
1,77,127,0
1,86,127,48
1,74,127,0
1,77,0,6
1,89,0,6
1,74,0,36
1,86,0,6
1,72,127,1194
1,84,127,2
1,86,127,94
1,74,127,0
1,84,0,14
1,72,0,0
1,86,0,70
1,74,0,8
1,69,127,1350
1,81,127,0
1,81,0,36
1,69,0,0
1,72,127,10
1,84,127,0
1,84,0,46
1,72,0,0
1,74,127,0
1,86,127,0
1,74,0,40
1,86,0,8
1,77,127,0
1,89,127,0
1,77,0,40
1,89,0,9
1,89,127,49
1,77,127,0
1,86,127,48
1,77,0,2
1,89,0,0
1,74,127,0
1,74,0,76
1,86,0,0
1,84,127,1170
1,72,127,0
1,72,0,94
1,84,0,0
1,86,127,0
1,74,127,0
1,86,0,88
1,74,0,9
1,69,127,1345
1,81,127,0
1,81,0,28
1,69,0,10
1,72,127,12
1,84,127,0
1,84,0,28
1,72,0,6
1,74,127,12
1,86,127,0
1,86,0,46
1,74,0,0
1,77,127,0
1,89,127,0
1,89,0,40
1,77,0,0
1,89,127,58
1,77,127,2
1,86,127,46
1,74,127,2
1,77,0,4
1,89,0,6
1,74,0,36
1,86,0,6
1,69,127,1196
1,81,127,0
1,81,0,36
1,69,0,0
1,67,127,8
1,79,127,0
1,79,0,40
1,67,0,0
1,77,127,10
1,65,127,0
1,65,0,38
1,77,0,0
1,74,127,10
1,62,127,0
1,62,0,38
1,74,0,0
1,89,127,58
1,77,127,0
1,86,127,48
1,77,0,2
1,74,127,0
1,89,0,10
1,74,0,36
1,86,0,6
1,69,127,1194
1,81,127,0
1,81,0,36
1,69,0,2
1,67,127,10
1,79,127,0
1,79,0,36
1,67,0,0
1,77,127,10
1,65,127,0
1,65,0,32
1,77,0,6
1,74,127,10
1,62,127,8
1,62,0,30
1,74,0,2
2,72,100,2307
2,72,0,29
2,69,100,0
2,69,0,32
2,72,100,0
2,72,0,32
2,74,100,0
2,74,0,32
2,72,92,0
2,72,0,32
2,74,92,0
2,74,0,32
2,77,100,0
2,77,0,32
2,74,100,0
2,74,0,32
2,77,100,0
2,77,0,32
2,79,84,0
2,79,0,32
2,77,91,0
2,77,0,32
2,79,92,0
2,79,0,32
2,81,111,0
2,81,0,64
2,86,91,320
2,74,100,8
2,74,0,1752
2,86,0,0
2,84,92,214
2,72,99,2
2,83,98,46
2,71,84,2
2,84,0,8
2,72,0,8
2,83,0,24
2,71,0,0
2,81,91,0
2,69,96,0
2,81,0,36
2,69,0,4
2,71,100,8
2,83,108,0
2,71,0,44
2,83,0,4
2,83,111,50
2,71,127,2
2,83,0,42
2,71,0,2
2,81,92,0
2,69,89,0
2,81,0,36
2,69,0,2
2,71,92,10
2,83,96,8
2,84,110,40
2,72,124,0
2,83,0,8
2,71,0,8
2,72,0,24
2,84,0,6
2,83,127,98
2,71,124,8
2,83,0,40
2,71,0,2
2,69,92,0
2,81,124,0
2,81,0,36
2,69,0,6
2,71,100,4
2,83,104,0
2,84,112,48
2,72,127,0
2,83,0,8
2,71,0,0
2,72,0,38
2,84,0,2
2,86,127,960
2,74,127,0
2,74,0,56
2,86,0,12
2,86,127,460
2,74,124,0
2,74,0,24
2,86,0,14
2,84,108,830
2,72,108,2
2,83,100,48
2,71,100,2
2,72,0,6
2,84,0,0
2,83,0,34
2,81,100,6
2,71,0,2
2,69,92,0
2,81,0,26
2,69,0,4
2,83,111,12
2,71,84,2
2,71,0,34
2,83,0,6
2,71,127,54
2,83,108,0
2,83,0,42
2,71,0,4
2,81,114,0
2,69,100,0
2,81,0,36
2,69,0,4
2,83,96,18
2,71,84,0
2,83,0,38
2,84,100,0
2,72,111,0
2,71,0,8
2,72,0,32
2,84,0,8
2,71,99,104
2,83,104,0
2,83,0,38
2,71,0,6
2,81,100,0
2,69,112,0
2,81,0,38
2,69,0,6
2,71,88,0
2,83,112,0
2,84,111,48
2,72,112,8
2,83,0,8
2,71,0,0
2,84,0,32
2,72,0,0
2,81,112,12432
2,69,112,6
2,81,0,36
2,72,98,8
2,69,0,6
2,84,127,0
2,81,100,42
2,84,0,4
2,69,100,2
2,72,0,8
2,81,0,24
2,84,92,4
2,72,92,6
2,69,0,4
2,84,0,44
2,89,114,0
2,77,100,0
2,72,0,6
2,86,127,40
2,74,112,0
2,77,0,19
2,89,0,0
2,86,0,8
2,74,0,0
2,74,127,402
2,86,127,0
2,74,0,62
2,86,0,6
2,84,100,1330
2,72,100,2
2,71,100,42
2,83,100,4
2,72,0,8
2,84,0,8
2,71,0,32
2,83,0,0
2,81,100,0
2,69,100,0
2,69,0,40
2,81,0,0
2,71,100,0
2,83,100,0
2,83,0,46
2,71,0,0
2,81,100,2
2,69,112,0
2,69,0,40
2,81,0,0
2,83,112,8
2,71,96,0
2,71,0,40
2,83,0,4
2,83,127,52
2,71,100,8
2,83,0,40
2,84,112,0
2,72,100,0
2,71,0,8
2,72,0,48
2,84,0,0
2,72,111,46
2,84,100,4
2,84,0,46
2,83,100,0
2,71,112,0
2,72,0,8
2,69,100,36
2,83,0,2
2,81,92,0
2,71,0,10
2,81,0,24
2,69,0,2
2,71,100,4
2,83,112,2
2,83,0,32
2,71,0,0
2,72,127,24
2,84,127,0
2,72,0,48
2,84,0,8
2,86,127,368
2,74,127,0
2,74,0,8
2,86,0,8
2,74,127,362
2,86,127,0
2,74,0,54
2,86,0,4
2,86,127,464
2,74,115,0
2,74,0,28
2,86,0,10
2,86,127,590
2,74,127,8
2,74,0,72
2,86,0,8
2,84,100,155
2,72,112,5
2,83,100,46
2,71,100,2
2,72,0,24
2,84,0,0
2,81,110,20
2,83,0,4
2,69,100,2
2,71,0,3
2,81,0,27
2,69,0,4
2,83,112,6
2,71,111,0
2,71,0,46
2,83,0,0
2,81,100,0
2,69,100,8
2,81,0,22
2,69,0,10
2,83,111,8
2,71,114,0
2,83,0,40
2,71,0,6
2,83,111,46
2,83,0,12
2,71,127,0
2,83,124,0
2,71,0,1
2,84,110,39
2,72,124,0
2,83,0,16
2,72,0,32
2,84,0,16
2,84,110,36
2,72,124,0
2,72,0,52
2,83,108,0
2,71,104,0
2,84,0,16
2,69,110,28
2,81,104,2
2,71,0,10
2,83,0,0
2,81,0,22
2,69,0,10
2,71,88,0
2,83,104,0
2,83,0,36
2,72,127,12
2,71,0,8
2,84,127,0
2,84,0,56
2,72,0,0
2,86,127,176
2,74,127,0
2,74,0,160
2,86,0,0
2,77,127,2524
2,65,124,0
2,65,0,140
2,77,0,0
2,74,127,16
2,62,127,0
2,74,0,46
2,62,0,2
2,77,127,2872
2,65,104,5
2,65,0,129
2,77,0,0
2,74,127,10
2,62,127,5
2,62,0,39
2,74,0,0
2,77,127,2890
2,65,96,10
2,65,0,112
2,77,0,4
2,74,110,20
2,62,124,0
2,62,0,40
2,74,0,0
2,77,127,2888
2,65,100,0
2,65,0,124
2,77,0,8
2,74,111,12
2,62,127,0
2,62,0,40
2,74,0,16
2,74,127,1618
2,74,0,62
2,72,127,134
2,72,0,74
2,84,127,1268
2,72,115,2
2,72,0,8
2,84,0,8
2,72,127,588
2,72,0,268
2,74,127,498
2,86,127,2
2,86,0,68
2,74,0,8
2,72,127,112
2,84,115,0
2,84,0,88
2,72,0,0
2,72,127,392
2,62,96,392
2,74,98,0
2,72,0,11
2,74,0,21
2,62,0,0
2,69,100,8
2,57,75,4
2,57,0,36
2,69,0,0
2,60,71,10
2,72,100,0
2,72,0,38
2,60,0,0
2,74,84,10
2,62,81,0
2,62,0,38
2,74,0,0
2,65,100,16
2,77,92,0
2,77,0,32
2,65,0,0
2,72,82,8
2,60,80,4
2,60,0,36
2,72,0,0
2,74,90,10
2,62,88,0
2,62,0,38
2,74,0,0
2,65,84,10
2,77,74,0
2,77,0,38
2,65,0,0
2,81,91,16
2,69,74,8
2,69,0,24
2,81,0,0
2,77,100,10
2,65,79,0
2,65,0,38
2,77,0,0
2,67,78,10
2,79,90,2
2,79,0,36
2,67,0,0
2,69,84,16
2,81,88,0
2,81,0,32
2,69,0,0
2,72,92,16
2,84,89,8
2,84,0,24
2,72,0,0
2,69,92,8
2,81,89,3
2,81,0,37
2,69,0,0
2,84,99,10
2,72,96,0
2,72,0,38
2,84,0,0
2,89,119,10
2,77,117,0
2,77,0,38
2,89,0,0
2,67,108,44
2,79,124,0
2,79,0,48
2,67,0,0
2,77,127,136
2,65,124,0
2,77,0,340
2,65,0,12
2,74,127,30
2,62,111,2
2,74,0,48
2,62,0,10
2,64,112,128
2,76,112,4
2,76,0,122
2,77,127,14
2,65,110,7
2,64,0,3
2,77,0,32
2,65,0,2
2,67,127,598
2,79,127,0
2,67,0,40
2,79,0,6
2,77,127,146
2,65,111,0
2,65,0,342
2,77,0,2
2,62,124,40
2,74,127,0
2,74,0,46
2,62,0,0
2,77,127,146
2,65,108,0
2,74,127,140
2,65,0,4
2,62,110,0
2,77,0,8
2,74,0,16
2,62,0,8
2,67,127,592
2,79,127,0
2,79,0,38
2,67,0,0
2,77,127,154
2,65,110,0
2,65,0,338
2,77,0,12
2,74,127,22
2,62,124,2
2,62,0,58
2,74,0,0
2,76,127,136
2,64,111,0
2,76,0,120
2,64,0,10
2,77,127,10
2,65,124,2
2,65,0,34
2,77,0,4
2,67,127,590
2,79,112,6
2,79,0,44
2,67,0,12
2,77,112,128
2,65,127,8
2,65,0,192
2,77,0,4
2,65,100,36
2,77,127,0
2,65,0,30
2,77,0,18
2,74,111,0
2,62,111,0
2,74,0,28
2,62,0,4
2,72,111,12
2,60,127,4
2,72,0,26
2,60,0,4
2,62,112,71
2,74,100,0
2,74,0,27
2,62,0,0
2,60,112,16
2,72,100,0
2,72,0,36
2,60,0,2
2,74,127,12
2,62,112,3
2,62,0,25
2,74,0,2
2,65,92,24
2,77,100,0
2,65,0,8
2,77,0,3
2,65,100,31
2,77,111,0
2,77,0,28
2,65,0,0
2,62,111,20
2,74,100,0
2,62,0,30
2,74,0,4
2,65,112,20
2,77,112,0
2,65,0,22
2,77,0,2
2,67,111,16
2,79,111,0
2,67,0,19
2,79,0,13
2,67,100,14
2,79,112,2
2,67,0,24
2,79,0,8
2,65,111,12
2,77,111,4
2,65,0,28
2,77,0,4
2,67,112,13
2,79,111,3
2,67,0,24
2,79,0,8
