track,note,velocity,time
0,55,90,538
0,58,90,0
0,63,90,0
0,36,127,46
0,39,127,0
0,57,120,0
0,58,122,0
0,59,117,0
0,63,119,0
0,67,127,0
0,69,108,0
0,79,127,0
0,68,103,4
0,69,60,0
0,80,92,0
0,37,127,4
0,40,94,0
0,59,98,0
0,69,62,0
0,70,104,0
0,70,126,0
0,82,115,0
0,56,90,2
0,60,90,0
0,44,127,4
0,60,106,0
0,63,99,0
0,63,127,0
0,68,127,0
0,69,57,0
0,80,119,0
0,59,98,54
0,69,108,0
0,70,104,0
0,55,90,2
0,58,90,0
0,58,119,4
0,63,102,0
0,63,111,0
0,67,127,0
0,69,57,0
0,79,127,0
0,37,127,4
0,40,94,0
0,43,127,0
0,59,100,0
0,69,58,0
0,53,90,2
0,58,90,0
0,62,90,0
0,36,106,4
0,41,127,0
0,58,104,0
0,59,65,0
0,62,120,0
0,63,104,0
0,65,119,0
0,69,60,0
0,77,108,0
0,36,126,96
0,59,127,0
0,69,113,0
0,36,127,100
0,63,71,0
0,69,59,0
0,37,127,4
0,40,94,0
0,59,108,0
0,69,55,0
0,70,104,0
0,70,127,0
0,82,122,0
0,55,90,2
0,63,90,0
0,39,127,4
0,58,107,0
0,63,92,0
0,63,115,0
0,67,127,0
0,69,59,0
0,79,117,0
0,59,82,90
0,69,120,0
0,70,96,0
0,59,48,102
0,63,104,0
0,69,58,0
0,37,127,98
0,40,94,0
0,59,89,0
0,69,60,0
0,36,83,122
0,59,71,0
0,63,104,0
0,69,60,0
0,53,90,2
0,62,90,0
0,34,127,4
0,36,127,0
0,58,102,0
0,59,113,0
0,62,120,0
0,65,127,0
0,69,120,0
0,77,120,0
0,69,54,76
0,37,127,4
0,40,94,0
0,59,83,0
0,69,55,0
0,70,104,0
0,70,127,0
0,82,122,0
0,55,90,2
0,63,90,0
0,39,127,4
0,58,104,0
0,63,99,0
0,63,104,0
0,67,127,0
0,69,63,0
0,79,126,0
0,59,80,58
0,69,117,0
0,70,81,0
0,63,102,4
0,69,58,0
0,70,120,0
0,82,90,0
0,37,127,64
0,40,94,0
0,59,89,0
0,69,62,0
0,56,90,2
0,60,90,0
0,32,125,4
0,36,108,0
0,59,70,0
0,60,127,0
0,63,102,0
0,63,122,0
0,68,111,0
0,69,61,0
0,72,100,0
0,36,127,94
0,59,123,0
0,69,113,0
0,36,127,118
0,69,53,0
0,37,127,122
0,40,94,0
0,59,83,0
0,69,53,0
0,70,102,0
0,63,96,126
0,69,60,0
0,59,80,36
0,69,120,0
0,70,96,0
0,59,52,116
0,63,102,0
0,69,53,0
0,53,90,2
0,58,90,0
0,62,90,0
0,34,127,4
0,37,127,0
0,40,94,0
0,58,127,0
0,59,85,0
0,62,127,0
0,65,127,0
0,69,58,0
0,36,127,130
0,59,82,0
0,63,102,0
0,69,68,0
0,55,90,0
0,58,90,0
0,63,90,0
0,36,127,2
0,39,127,0
0,58,122,0
0,59,117,0
0,63,119,0
0,67,127,0
0,69,108,0
0,79,127,0
0,68,103,4
0,69,60,0
0,80,92,0
0,37,127,4
0,40,94,0
0,59,98,0
0,69,62,0
0,70,104,0
0,70,126,0
0,82,115,0
0,56,90,2
0,60,90,0
0,44,127,4
0,60,106,0
0,63,99,0
0,63,127,0
0,68,127,0
0,69,57,0
0,80,119,0
0,59,98,54
0,69,108,0
0,70,104,0
0,55,90,2
0,58,90,0
0,58,119,4
0,63,102,0
0,63,111,0
0,67,127,0
0,69,57,0
0,79,127,0
0,37,127,4
0,40,94,0
0,43,127,0
0,59,100,0
0,69,58,0
0,53,90,2
0,58,90,0
0,62,90,0
0,36,106,4
0,41,127,0
0,58,104,0
0,59,65,0
0,62,120,0
0,63,104,0
0,65,119,0
0,69,60,0
0,77,108,0
0,36,126,96
0,59,127,0
0,69,113,0
0,36,127,100
0,63,71,0
0,69,59,0
0,37,127,4
0,40,94,0
0,59,108,0
0,69,55,0
0,70,104,0
0,70,127,0
0,82,122,0
0,55,90,2
0,63,90,0
0,39,127,4
0,58,107,0
0,63,92,0
0,63,115,0
0,67,127,0
0,69,59,0
0,79,117,0
0,59,82,90
0,69,120,0
0,70,96,0
0,59,48,102
0,63,104,0
0,69,58,0
0,37,127,98
0,40,94,0
0,59,89,0
0,69,60,0
0,36,83,122
0,59,71,0
0,63,104,0
0,69,60,0
0,53,90,2
0,62,90,0
0,34,127,4
0,36,127,0
0,58,102,0
0,59,113,0
0,62,120,0
0,65,127,0
0,69,120,0
0,77,120,0
0,69,54,76
0,37,127,4
0,40,94,0
0,59,83,0
0,69,55,0
0,70,104,0
0,70,127,0
0,82,122,0
0,55,90,2
0,63,90,0
0,39,127,4
0,58,104,0
0,63,99,0
0,63,104,0
0,67,127,0
0,69,63,0
0,79,126,0
0,59,80,58
0,69,117,0
0,70,81,0
0,63,102,4
0,69,58,0
0,70,120,0
0,82,90,0
0,34,127,4
0,37,127,0
0,40,94,0
0,59,89,0
0,69,62,0
0,56,90,2
0,60,90,0
0,32,125,4
0,36,108,0
0,59,70,0
0,60,127,0
0,63,102,0
0,63,122,0
0,68,111,0
0,69,61,0
0,72,100,0
0,36,127,94
0,59,123,0
0,69,113,0
0,36,127,118
0,69,53,0
0,37,127,122
0,40,94,0
0,59,83,0
0,69,53,0
0,70,102,0
0,63,96,126
0,69,60,0
0,59,80,36
0,69,120,0
0,70,96,0
0,59,52,116
0,63,102,0
0,69,53,0
0,53,90,2
0,58,90,0
0,62,90,0
0,34,127,4
0,37,127,0
0,40,94,0
0,58,127,0
0,59,85,0
0,62,127,0
0,65,127,0
0,69,58,0
0,36,127,130
0,59,82,0
0,63,102,0
0,69,68,0
0,58,92,0
0,63,92,0
0,67,92,0
0,36,127,2
0,39,127,0
0,57,120,0
0,58,89,0
0,59,117,0
0,63,107,0
0,67,85,0
0,69,108,0
0,59,65,98
0,69,60,0
0,37,127,68
0,40,94,0
0,59,98,0
0,69,62,0
0,70,127,0
0,70,104,0
0,60,92,2
0,68,92,0
0,41,127,4
0,59,61,0
0,63,99,0
0,69,57,0
0,70,127,0
0,59,98,54
0,69,108,0
0,70,127,0
0,70,104,0
0,59,56,100
0,63,102,0
0,69,57,0
0,37,127,96
0,40,94,0
0,59,100,0
0,69,58,0
0,70,127,0
0,36,106,88
0,59,65,0
0,63,104,0
0,69,60,0
0,70,127,0
0,58,92,2
0,62,92,0
0,65,92,0
0,34,125,4
0,36,126,0
0,59,127,0
0,69,113,0
0,72,127,0
0,36,127,100
0,59,61,0
0,63,71,0
0,69,59,0
0,70,127,0
0,37,127,96
0,40,94,0
0,59,108,0
0,69,55,0
0,70,104,0
0,58,92,2
0,63,92,0
0,67,92,0
0,39,123,4
0,59,65,0
0,63,92,0
0,67,127,0
0,69,59,0
0,59,82,96
0,69,120,0
0,70,96,0
0,59,48,102
0,63,104,0
0,69,58,0
0,37,127,94
0,40,94,0
0,59,89,0
0,67,127,0
0,69,60,0
0,36,83,20
0,59,71,0
0,63,104,0
0,68,127,0
0,69,60,0
0,58,92,2
0,63,92,0
0,67,92,0
0,36,127,4
0,46,117,0
0,59,113,0
0,69,120,0
0,70,127,0
0,59,61,70
0,69,54,0
0,70,127,0
0,37,127,72
0,40,94,0
0,59,83,0
0,69,55,0
0,70,127,0
0,70,104,0
0,60,92,2
0,68,92,0
0,51,112,4
0,59,51,0
0,63,99,0
0,69,63,0
0,70,127,0
0,59,80,48
0,68,127,0
0,69,117,0
0,70,81,0
0,59,61,110
0,63,102,0
0,69,58,0
0,67,127,0
0,37,127,96
0,40,94,0
0,59,89,0
0,69,62,0
0,58,92,2
0,62,92,0
0,65,92,0
0,36,108,4
0,41,127,0
0,59,70,0
0,63,102,0
0,65,127,0
0,69,61,0
0,36,127,94
0,59,123,0
0,69,113,0
0,36,127,118
0,59,70,0
0,69,53,0
0,37,127,96
0,40,94,0
0,59,83,0
0,69,53,0
0,70,102,0
0,59,61,0
0,63,96,0
0,69,60,0
0,59,80,36
0,69,120,0
0,70,96,0
0,34,122,4
0,59,52,0
0,63,102,0
0,69,53,0
0,37,127,4
0,40,94,0
0,41,120,0
0,59,85,0
0,69,58,0
0,34,122,4
0,36,127,0
0,59,82,0
0,63,102,0
0,69,68,0
0,58,92,2
0,63,92,0
0,67,92,0
0,36,127,4
0,51,110,0
0,59,117,0
0,69,108,0
0,75,127,0
0,59,65,64
0,69,60,0
0,75,127,0
0,37,127,50
0,40,94,0
0,59,98,0
0,69,62,0
0,70,104,0
0,74,127,0
0,60,92,2
0,68,92,0
0,53,107,4
0,59,61,0
0,63,99,0
0,68,127,0
0,69,57,0
0,59,98,20
0,69,108,0
0,70,127,0
0,70,104,0
0,59,56,100
0,63,102,0
0,69,57,0
0,37,127,80
0,40,94,0
0,59,100,0
0,69,58,0
0,70,127,0
0,36,106,72
0,59,65,0
0,63,104,0
0,69,60,0
0,70,127,0
0,58,92,2
0,62,92,0
0,65,92,0
0,36,126,4
0,46,111,0
0,59,127,0
0,69,113,0
0,36,127,100
0,59,61,0
0,63,71,0
0,69,59,0
0,72,127,0
0,37,127,96
0,40,94,0
0,59,108,0
0,69,55,0
0,70,104,0
0,67,127,16
0,58,92,2
0,63,92,0
0,67,92,0
0,51,108,4
0,59,65,0
0,63,92,0
0,69,59,0
0,59,82,26
0,63,127,0
0,69,120,0
0,70,96,0
0,59,48,4
0,63,104,0
0,67,127,0
0,69,58,0
0,37,127,48
0,40,94,0
0,59,89,0
0,68,127,0
0,69,60,0
0,36,83,44
0,59,71,0
0,63,104,0
0,69,60,0
0,70,127,0
0,58,92,2
0,63,92,0
0,67,92,0
0,36,127,46
0,59,113,0
0,69,120,0
0,39,127,4
0,59,61,0
0,69,54,0
0,34,120,4
0,37,127,0
0,40,94,0
0,59,83,0
0,69,55,0
0,70,104,0
0,60,92,2
0,68,92,0
0,58,102,44
0,59,51,2
0,63,127,0
0,63,99,0
0,63,101,0
0,69,63,0
0,68,91,6
0,41,127,4
0,59,80,0
0,69,117,0
0,70,127,0
0,70,81,0
0,68,101,6
0,59,61,2
0,63,102,0
0,68,127,0
0,69,58,0
0,63,115,0
0,58,102,0
0,37,127,10
0,40,94,0
0,59,89,0
0,67,127,0
0,69,62,0
0,58,92,2
0,62,92,0
0,65,92,0
0,34,127,4
0,36,108,0
0,59,70,0
0,63,102,0
0,65,127,0
0,69,61,0
0,58,96,6
0,36,127,2
0,59,123,0
0,69,113,0
0,62,123,2
0,65,100,0
0,36,127,118
0,59,70,0
0,69,53,0
0,37,127,96
0,40,94,0
0,59,83,0
0,69,53,0
0,70,102,0
0,59,61,92
0,63,96,0
0,69,60,0
0,59,80,36
0,69,120,0
0,70,96,0
0,46,108,4
0,59,52,0
0,63,102,0
0,69,53,0
0,37,127,4
0,40,94,0
0,53,107,0
0,59,85,0
0,69,58,0
0,36,127,130
0,59,82,0
0,63,102,0
0,69,68,0
0,75,127,0
0,53,98,2
0,56,98,0
0,63,101,0
0,48,100,22
0,51,107,2
0,36,127,2
0,41,127,0
0,57,120,0
0,59,117,0
0,69,108,0
0,75,127,0
0,56,100,2
0,59,65,72
0,69,60,0
0,75,127,0
0,37,127,36
0,40,94,0
0,59,98,0
0,69,62,0
0,70,104,0
0,72,127,0
0,55,98,2
0,58,98,0
0,51,94,2
0,43,127,2
0,53,111,0
0,59,61,0
0,63,99,0
0,69,57,0
0,70,127,0
0,58,100,4
0,59,98,54
0,69,108,0
0,70,104,0
0,59,56,80
0,63,102,0
0,69,57,0
0,72,127,0
0,63,100,4
0,37,127,2
0,40,94,0
0,59,100,0
0,69,58,0
0,56,98,2
0,60,98,0
0,51,100,2
0,36,106,2
0,44,127,0
0,59,65,0
0,63,127,0
0,63,104,0
0,69,60,0
0,56,119,2
0,60,96,4
0,36,126,96
0,59,127,0
0,69,113,0
0,36,127,100
0,59,61,0
0,63,71,0
0,69,59,0
0,37,127,18
0,40,94,0
0,59,108,0
0,69,55,0
0,70,104,0
0,59,65,116
0,63,92,0
0,68,118,0
0,69,59,0
0,72,125,0
0,59,82,18
0,67,109,0
0,69,120,0
0,70,111,0
0,70,96,0
0,59,48,28
0,63,104,0
0,69,58,0
0,70,114,0
0,75,114,0
0,37,127,98
0,40,94,0
0,59,89,0
0,69,60,0
0,36,83,122
0,59,71,0
0,63,104,0
0,69,60,0
0,75,127,0
0,53,98,2
0,56,98,0
0,48,117,2
0,36,127,2
0,41,127,0
0,51,122,0
0,59,113,0
0,69,120,0
0,75,127,0
0,56,115,4
0,59,61,76
0,69,54,0
0,75,127,0
0,37,127,14
0,40,94,0
0,59,83,0
0,69,55,0
0,70,104,0
0,72,127,0
0,55,98,2
0,58,98,0
0,51,92,2
0,43,126,2
0,53,111,0
0,59,51,0
0,63,99,0
0,69,63,0
0,70,127,0
0,58,100,4
0,59,80,58
0,69,117,0
0,70,81,0
0,59,61,42
0,63,102,0
0,69,58,0
0,72,127,0
0,63,125,6
0,37,127,2
0,40,94,0
0,59,89,0
0,69,62,0
0,56,98,2
0,60,98,0
0,51,96,2
0,36,108,2
0,44,127,0
0,59,70,0
0,63,127,0
0,63,102,0
0,69,61,0
0,56,115,2
0,60,111,2
0,36,127,94
0,59,123,0
0,69,113,0
0,36,127,118
0,59,70,0
0,69,53,0
0,37,127,32
0,40,94,0
0,59,83,0
0,69,53,0
0,70,102,0
0,59,61,126
0,63,96,0
0,68,113,0
0,69,60,0
0,72,124,0
0,59,80,16
0,67,111,0
0,69,120,0
0,70,113,0
0,70,96,0
0,59,52,44
0,63,102,0
0,69,53,0
0,70,122,0
0,75,120,0
0,37,127,112
0,40,94,0
0,59,85,0
0,69,58,0
0,36,127,130
0,59,82,0
0,63,102,0
0,69,68,0
0,53,98,2
0,56,98,0
0,48,100,2
0,36,127,0
0,41,127,0
0,59,117,0
0,69,108,0
0,51,94,2
0,56,111,4
0,59,65,14
0,69,60,0
0,75,127,0
0,37,127,68
0,40,94,0
0,59,98,0
0,69,62,0
0,70,104,0
0,75,127,0
0,55,98,2
0,58,98,0
0,51,111,2
0,43,127,2
0,53,106,0
0,59,61,0
0,63,99,0
0,69,57,0
0,74,127,0
0,58,104,4
0,59,98,42
0,69,108,0
0,70,127,0
0,70,104,0
0,59,56,100
0,63,102,0
0,69,57,0
0,37,127,8
0,40,94,0
0,59,100,0
0,67,127,0
0,69,58,0
0,56,98,2
0,60,98,0
0,51,92,2
0,36,106,2
0,44,125,0
0,59,65,0
0,63,104,0
0,69,60,0
0,72,127,0
0,60,98,2
0,56,104,4
0,36,126,96
0,59,127,0
0,69,113,0
0,70,127,0
0,36,127,100
0,59,61,0
0,63,71,0
0,69,59,0
0,37,127,96
0,40,94,0
0,59,108,0
0,69,55,0
0,70,104,0
0,59,65,116
0,63,92,0
0,68,118,0
0,69,59,0
0,72,125,0
0,59,82,18
0,67,109,0
0,69,120,0
0,70,111,0
0,70,96,0
0,59,48,28
0,63,104,0
0,69,58,0
0,70,114,0
0,75,114,0
0,37,127,98
0,40,94,0
0,59,89,0
0,69,60,0
0,36,83,122
0,59,71,0
0,63,104,0
0,69,60,0
0,58,98,2
0,62,98,0
0,65,98,0
0,58,96,2
0,36,127,2
0,46,127,0
0,59,113,0
0,69,120,0
0,62,113,0
0,65,103,4
0,59,61,76
0,65,127,0
0,69,54,0
0,37,127,84
0,40,94,0
0,59,83,0
0,65,127,0
0,69,55,0
0,70,104,0
0,70,98,2
0,55,113,4
0,59,51,0
0,63,99,0
0,69,63,0
0,70,127,0
0,59,80,58
0,69,117,0
0,70,81,0
0,59,61,110
0,63,102,0
0,69,58,0
0,37,127,96
0,40,94,0
0,59,89,0
0,69,62,0
0,36,108,126
0,59,70,0
0,63,102,0
0,68,127,0
0,69,61,0
0,60,98,2
0,63,98,0
0,67,98,0
0,67,91,2
0,36,127,2
0,48,126,0
0,59,123,0
0,67,127,0
0,69,113,0
0,63,119,2
0,58,100,4
0,36,91,34
0,43,46,0
0,59,70,0
