track,note,velocity,time
1,43,80,624
1,55,80,0
1,62,80,0
1,71,80,0
1,67,80,0
1,67,80,84
1,69,80,0
1,62,80,0
1,71,80,0
1,62,80,10
1,69,80,0
1,43,80,0
1,55,80,1
1,66,80,0
1,62,80,0
1,67,80,0
1,69,80,0
1,55,80,24
1,62,80,36
1,67,80,48
1,71,80,36
1,62,80,0
1,43,80,1
1,55,80,0
1,69,80,72
1,67,80,0
1,62,80,0
1,71,80,0
1,55,80,48
1,62,80,72
1,62,80,36
1,55,80,1
1,69,80,0
1,66,80,0
1,43,80,0
1,67,80,180
1,69,80,96
1,71,80,0
1,72,80,0
1,55,80,97
1,43,80,0
1,71,80,0
1,67,80,0
1,74,80,0
1,55,80,48
1,67,80,60
1,72,80,60
1,71,80,96
1,69,80,0
1,67,80,12
1,55,80,61
1,66,80,0
1,57,80,0
1,43,80,0
1,62,80,0
1,55,80,36
1,66,80,60
1,57,80,0
1,55,80,48
1,43,80,0
1,59,80,1
1,67,80,0
1,62,80,0
1,66,80,24
1,64,80,84
1,66,80,0
1,59,80,96
1,43,80,0
1,62,80,0
1,67,80,0
1,67,80,72
1,59,80,0
1,62,80,0
1,55,80,0
1,59,80,60
1,62,80,12
1,67,80,0
1,55,80,0
1,59,80,12
1,60,80,25
1,64,80,0
1,69,80,1
1,43,80,0
1,55,80,0
1,64,80,72
1,69,80,0
1,60,80,0
1,55,80,84
1,60,80,36
1,69,80,60
1,64,80,0
1,60,80,0
1,55,80,0
1,67,80,1
1,45,80,0
1,76,80,0
1,72,80,0
1,52,80,48
1,57,80,96
1,76,80,72
1,67,80,0
1,72,80,0
1,64,80,36
1,67,80,1
1,74,80,0
1,72,80,0
1,57,80,72
1,71,80,0
1,57,80,0
1,66,80,10
1,47,80,0
1,69,80,1
1,74,80,0
1,54,80,60
1,59,80,48
1,66,80,96
1,74,80,0
1,69,80,0
1,72,80,12
1,67,80,0
1,71,80,0
1,69,80,12
1,71,80,48
1,48,80,2
1,64,80,1
1,67,80,0
1,74,80,0
1,55,80,48
1,60,80,0
1,74,80,72
1,67,80,0
1,64,80,1
1,72,80,0
1,67,80,0
1,64,80,0
1,60,80,96
1,71,80,0
1,60,80,24
1,62,80,72
1,66,80,1
1,50,80,0
1,69,80,0
1,57,80,32
1,62,80,60
1,64,80,96
1,67,80,72
1,69,80,0
1,71,80,12
1,72,80,12
1,43,80,2
1,74,80,0
1,50,80,51
1,55,80,84
1,69,80,12
1,67,80,0
1,62,80,0
1,71,80,0
1,62,80,0
1,55,80,96
1,62,80,36
1,67,80,36
1,66,80,24
1,43,80,0
1,57,80,1
1,59,80,0
1,55,80,0
1,57,80,12
1,66,80,0
1,62,80,0
1,55,80,12
1,57,80,48
1,62,80,12
1,66,80,0
1,57,80,0
1,55,80,0
1,71,80,1
1,62,80,0
1,43,80,0
1,67,80,0
1,55,80,1
1,69,80,24
1,67,80,0
1,62,80,0
1,55,80,96
1,71,80,0
1,67,80,0
1,55,80,60
1,38,80,9
1,62,80,0
1,55,80,0
1,43,80,1
1,66,80,0
1,69,80,0
1,55,80,60
1,62,80,24
1,38,80,0
1,67,80,72
1,69,80,96
1,71,80,72
1,72,80,60
1,43,80,25
1,67,80,1
1,71,80,0
1,74,80,0
1,55,80,139
1,67,80,48
1,72,80,48
1,71,80,0
1,69,80,96
1,67,80,48
1,57,80,61
1,55,80,1
1,62,80,0
1,43,80,0
1,66,80,0
1,55,80,143
1,57,80,36
1,59,80,36
1,55,80,0
1,67,80,1
1,62,80,0
1,43,80,0
1,66,80,0
1,64,80,12
1,66,80,24
1,43,80,85
1,59,80,0
1,62,80,0
1,67,80,0
1,55,80,31
1,59,80,12
1,67,80,0
1,62,80,0
1,55,80,96
1,59,80,24
1,62,80,96
1,67,80,0
1,55,80,60
1,64,80,25
1,60,80,0
1,69,80,0
1,43,80,0
1,55,80,1
1,69,80,72
1,64,80,0
1,60,80,0
1,55,80,72
1,60,80,48
1,69,80,60
1,60,80,0
1,64,80,0
1,55,80,12
1,67,80,5
1,76,80,0
1,45,80,0
1,72,80,1
1,52,80,52
1,57,80,0
1,76,80,60
1,67,80,1
1,72,80,0
1,74,80,60
1,72,80,96
1,71,80,72
1,71,80,12
1,66,80,16
1,47,80,0
1,69,80,0
1,74,80,0
1,54,80,52
1,59,80,36
1,69,80,0
1,74,80,0
1,66,80,0
1,59,80,36
1,64,80,96
1,72,80,0
1,71,80,96
1,69,80,36
1,66,80,0
1,71,80,0
1,64,80,60
1,48,80,1
1,67,80,0
1,74,80,5
1,55,80,90
1,60,80,96
1,64,80,60
1,72,80,60
1,64,80,0
1,67,80,1
1,60,80,84
1,71,80,12
1,69,80,0
1,66,80,60
1,69,80,1
1,50,80,0
1,57,80,95
1,62,80,96
1,64,80,0
1,67,80,0
1,69,80,24
1,71,80,72
1,72,80,60
1,43,80,73
1,67,80,0
1,71,80,0
1,74,80,1
1,50,80,0
1,55,80,84
1,62,80,96
1,67,80,0
1,69,80,0
1,55,80,95
1,71,80,0
1,67,80,48
1,55,80,0
1,57,80,12
1,43,80,1
1,66,80,0
1,62,80,0
1,50,80,95
1,55,80,12
1,66,80,72
1,57,80,0
1,57,80,36
1,62,80,0
1,67,80,0
1,66,80,96
1,64,80,96
1,66,80,0
1,43,80,13
1,71,80,0
1,62,80,0
1,55,80,0
1,43,80,0
1,67,80,0
1,55,80,96
1,69,80,48
1,67,80,0
1,62,80,0
1,55,80,84
1,71,80,96
1,67,80,24
1,55,80,24
1,62,80,97
1,69,80,0
1,66,80,0
1,43,80,0
1,55,80,180
1,69,80,48
1,66,80,0
1,62,80,0
1,55,80,72
1,62,80,12
1,69,80,36
1,66,80,1
1,62,80,0
1,55,80,48
1,64,80,36
1,45,80,13
1,69,80,1
1,73,80,0
1,64,80,0
1,52,80,94
1,57,80,96
1,71,80,12
1,69,80,0
1,64,80,0
1,57,80,96
1,73,80,0
1,69,80,12
1,57,80,12
1,64,80,12
1,71,80,0
1,68,80,0
1,45,80,1
1,52,80,95
1,57,80,96
1,71,80,36
1,64,80,0
1,68,80,0
1,57,80,84
1,64,80,36
1,64,80,24
1,68,80,0
1,71,80,0
1,57,80,60
1,45,80,24
1,69,80,1
1,76,80,0
1,73,80,0
1,52,80,95
1,57,80,96
1,76,80,72
1,69,80,0
1,73,80,0
1,74,80,0
1,73,80,96
1,71,80,84
1,69,80,11
1,59,80,84
1,64,80,1
1,45,80,0
1,68,80,0
1,52,80,95
1,57,80,0
1,64,80,60
1,68,80,0
1,59,80,1
1,59,80,48
1,64,80,1
1,69,80,0
1,68,80,95
1,66,80,0
1,64,80,0
1,61,80,24
1,45,80,0
1,69,80,1
1,52,80,95
1,57,80,0
1,61,80,84
1,69,80,0
1,71,80,72
1,69,80,0
1,68,80,96
1,69,80,0
1,62,80,37
1,45,80,0
1,71,80,0
1,66,80,0
1,52,80,95
1,57,80,96
1,71,80,60
1,66,80,1
1,62,80,0
1,57,80,60
1,62,80,12
1,66,80,12
1,71,80,0
1,47,80,132
1,54,80,96
1,59,80,96
1,69,80,12
1,62,80,0
1,66,80,96
1,59,80,0
1,69,80,96
1,64,80,0
1,59,80,12
1,37,80,73
1,61,80,1
1,64,80,0
1,71,80,0
1,68,80,0
1,44,80,94
1,49,80,96
1,71,80,60
1,64,80,0
1,61,80,1
1,68,80,0
1,49,80,24
1,61,80,24
1,71,80,96
1,64,80,0
1,68,80,0
1,50,80,97
1,66,80,0
1,57,80,95
1,62,80,48
1,69,80,0
1,76,80,84
1,66,80,0
1,81,80,10
1,62,80,2
1,73,80,96
1,57,80,0
1,69,80,48
1,50,80,97
1,57,80,71
1,81,80,5
1,62,80,24
1,69,80,0
1,66,80,0
1,71,80,96
1,57,80,95
1,62,80,0
1,73,80,12
1,66,80,0
1,45,80,26
1,69,80,0
1,73,80,0
1,76,80,1
1,52,80,95
1,57,80,96
1,69,80,60
1,69,80,72
1,74,80,1
1,76,80,0
1,73,80,94
1,71,80,0
1,69,80,0
1,59,80,84
1,45,80,0
1,64,80,1
1,68,80,0
1,52,80,95
1,57,80,12
1,68,80,60
1,59,80,0
1,69,80,48
1,64,80,0
1,59,80,1
1,68,80,95
1,66,80,36
1,68,80,48
1,45,80,13
1,61,80,0
1,64,80,0
1,69,80,0
1,52,80,94
1,57,80,0
1,69,80,72
1,61,80,0
1,71,80,60
1,61,80,0
1,69,80,36
1,68,80,0
1,69,80,12
1,45,80,73
1,62,80,0
1,66,80,0
1,71,80,0
1,52,80,95
1,57,80,96
1,62,80,60
1,62,80,48
1,71,80,0
1,66,80,0
1,71,80,36
1,73,80,60
1,74,80,24
1,69,80,12
1,47,80,0
1,74,80,0
1,78,80,0
1,54,80,95
1,59,80,96
1,69,80,60
1,78,80,0
1,74,80,1
1,76,80,0
1,74,80,96
1,73,80,84
1,74,80,0
1,76,80,73
1,68,80,0
1,71,80,1
1,49,80,0
1,56,80,94
1,61,80,0
1,76,80,84
1,71,80,0
1,68,80,0
1,74,80,96
1,73,80,72
1,71,80,84
1,73,80,12
1,50,80,61
1,66,80,0
1,69,80,1
1,76,80,0
1,57,80,94
1,62,80,12
1,69,80,72
1,76,80,0
1,66,80,0
1,66,80,48
1,74,80,0
1,69,80,0
1,62,80,72
1,73,80,12
1,62,80,0
1,52,80,73
1,71,80,0
1,51,80,0
1,59,80,84
1,64,80,36
1,68,80,96
1,69,80,156
1,64,80,0
1,68,80,12
1,45,80,73
1,68,80,1
1,71,80,0
1,76,80,0
1,52,80,94
1,57,80,96
1,68,80,60
1,76,80,0
1,71,80,0
1,74,80,0
1,73,80,96
1,71,80,84
1,69,80,72
1,64,80,60
1,45,80,0
1,59,80,1
1,52,80,95
1,57,80,0
1,66,80,72
1,59,80,0
1,59,80,24
1,69,80,0
1,68,80,96
1,66,80,72
1,68,80,0
1,45,80,48
1,61,80,1
1,64,80,0
1,69,80,0
1,52,80,95
1,57,80,0
1,69,80,60
1,61,80,0
1,57,80,0
1,61,80,96
1,69,80,60
1,61,80,0
1,57,80,0
1,61,80,48
1,64,80,12
1,59,80,1
1,45,80,0
1,52,80,95
1,57,80,96
1,64,80,48
1,59,80,0
1,57,80,84
1,59,80,12
1,64,80,96
1,52,80,0
1,45,80,61
1,64,80,0
1,61,80,0
1,69,80,0
1,52,80,84
1,57,80,0
1,69,80,84
1,64,80,0
1,61,80,1
1,57,80,72
1,71,80,48
1,69,80,72
1,61,80,0
1,57,80,12
1,45,80,72
1,64,80,0
1,59,80,0
1,52,80,95
1,57,80,96
1,64,80,48
1,59,80,0
1,57,80,60
1,59,80,36
1,64,80,0
1,59,80,0
1,57,80,36
1,64,80,73
1,69,80,0
1,62,80,1
1,66,80,0
1,42,80,0
1,54,80,190
1,66,80,61
1,69,80,0
1,62,80,0
1,64,80,0
1,69,80,47
1,66,80,0
1,62,80,0
1,54,80,12
1,62,80,12
1,64,80,24
1,66,80,36
1,64,80,13
1,40,80,1
1,62,80,0
1,69,80,0
1,52,80,190
1,64,80,72
1,69,80,1
1,62,80,0
1,52,80,0
1,62,80,96
1,64,80,12
1,66,80,24
1,66,80,62
1,42,80,0
1,69,80,0
1,64,80,0
1,54,80,0
1,69,80,72
1,66,80,0
1,64,80,0
1,54,80,0
1,69,80,84
1,66,80,0
1,64,80,0
1,54,80,84
1,64,80,49
1,69,80,1
1,40,80,0
1,62,80,0
1,52,80,0
1,69,80,72
1,64,80,0
1,62,80,0
1,52,80,168
1,69,80,60
1,64,80,1
1,62,80,0
1,52,80,0
1,69,80,38
1,66,80,0
1,62,80,0
1,54,80,0
1,64,80,0
1,42,80,0
1,69,80,72
1,66,80,0
1,64,80,1
1,62,80,0
1,54,80,156
1,66,80,73
1,62,80,0
1,69,80,0
1,64,80,1
1,54,80,60
1,69,80,49
1,64,80,0
1,62,80,0
1,40,80,1
1,52,80,0
1,64,80,84
1,69,80,0
1,62,80,0
1,52,80,72
1,62,80,0
1,59,80,72
1,62,80,0
1,52,80,24
1,64,80,96
1,57,80,0
1,61,80,0
1,45,80,1
1,33,80,0
2,31,84,12912
2,31,71,45
2,31,72,58
2,31,73,38
2,31,71,63
2,31,70,62
2,31,76,60
2,31,75,21
2,31,67,65
2,33,76,95
2,33,75,28
2,33,45,19
2,35,80,5
2,35,68,48
2,35,66,56
2,38,65,2
2,36,70,8
2,36,59,14
2,36,69,57
2,38,80,11
2,40,59,5
2,36,61,0
2,31,75,6
2,31,74,17
2,31,69,45
2,31,72,20
2,31,71,46
2,31,67,21
2,31,79,38
2,31,84,32
2,31,57,59
2,31,80,75
2,31,79,62
2,33,93,10
2,33,72,27
2,33,84,21
2,33,88,26
2,33,101,31
2,33,93,54
2,33,89,45
2,33,86,20
2,33,91,28
2,33,91,36
2,33,89,29
2,33,89,32
2,35,101,14
2,35,86,39
2,35,73,57
2,37,84,96
2,37,92,60
2,35,65,7
2,37,79,0
2,38,89,12
2,38,76,56
2,38,81,60
2,38,82,54
2,40,68,4
2,37,50,96
2,33,76,80
2,33,84,52
2,33,66,86
2,33,68,70
2,33,73,56
2,33,61,84
2,33,71,75
2,33,71,68
2,33,56,68
2,33,73,95
2,33,69,56
2,33,64,81
2,35,71,10
2,35,72,45
2,35,68,51
2,37,65,96
2,37,76,52
2,37,72,69
2,38,79,96
2,38,79,71
2,38,68,59
2,40,76,96
2,40,75,63
2,40,68,53
2,38,67,96
2,37,63,8
2,33,79,96
2,33,75,62
2,33,80,52
2,33,86,60
2,33,84,62
2,33,76,85
2,33,76,52
2,33,82,80
2,33,84,41
2,33,75,92
2,33,84,77
2,33,88,85
2,33,89,48
2,33,82,76
2,33,60,105
2,33,99,74
2,35,68,4
2,33,68,0
2,30,96,1
2,30,99,60
2,30,89,70
2,28,95,8
2,28,101,52
2,28,91,61
2,28,80,79
2,30,80,95
2,30,96,66
2,30,99,49
2,30,96,64
2,28,82,10
2,28,88,64
2,28,86,47
2,28,71,103
2,30,99,17
2,30,101,47
2,30,87,54
2,28,81,5
2,28,84,72
2,33,95,2
3,81,50,23280
3,83,50,96
3,85,50,4
3,86,50,2
3,88,50,12
3,86,50,10
3,85,50,8
3,83,50,12
3,81,50,0
3,80,50,8
3,81,50,8
3,80,50,4
3,78,50,4
3,80,50,96
3,81,50,0
3,80,50,0
3,83,50,6
3,81,50,8
3,80,50,8
3,81,50,0
3,83,50,0
3,83,50,48
3,71,50,0
3,73,50,0
3,85,50,0
3,74,50,6
3,86,50,0
3,88,50,0
3,76,50,0
3,78,50,8
3,90,50,0
3,80,50,11
3,88,50,0
3,78,50,3
3,86,50,0
3,76,50,12
3,85,50,0
3,74,50,8
3,83,50,0
3,80,50,4
3,88,50,0
3,86,50,384
3,78,50,0
3,76,50,4
3,85,50,0
3,83,50,8
3,74,50,0
3,76,50,16
3,85,50,0
3,88,50,12
3,78,50,0
3,74,50,7
3,86,50,0
3,73,50,5
3,85,50,0
3,71,50,4
3,83,50,0
4,37,60,13488
4,37,60,759
4,37,60,759
4,37,60,761
4,37,60,759
4,37,60,760
4,37,60,760
4,37,60,760
4,37,60,760
4,37,60,760
4,37,60,760
4,37,60,760
4,51,60,183
4,51,60,181
4,51,60,184
4,51,60,184
4,51,60,185
4,51,60,181
4,51,60,184
4,51,60,184
4,51,60,182
4,51,60,181
4,51,60,184
4,51,60,184
4,51,60,185
4,51,60,180
4,51,60,184
4,51,60,180
4,51,60,184
4,51,60,191
4,51,60,0
4,51,60,0
4,51,60,190
4,51,60,0
4,51,60,0
4,51,60,190
4,51,60,0
4,51,60,0
4,51,60,0
4,51,60,0
4,51,60,0
4,51,60,0
4,51,60,0
4,51,60,0
4,51,60,0
4,51,60,0
4,51,60,0
4,51,60,0
4,51,60,0
4,51,60,0
4,51,60,0
4,51,60,0
4,51,60,0
4,51,60,0
4,51,60,0
4,51,60,183
4,51,60,184
4,51,60,183
4,51,60,184
4,51,60,180
4,51,60,184
4,51,60,184
4,51,60,184
