track,note,velocity,time
2,38,102,25239
2,38,0,34
2,38,98,14
2,38,0,26
2,38,98,6070
2,41,94,48
2,38,0,3
2,41,0,11
2,38,98,34
2,38,0,41
2,41,98,7
2,41,0,28
2,45,98,116
2,43,82,24
2,45,0,2
2,41,76,22
2,43,0,4
2,41,0,14
2,45,78,6
2,43,74,0
2,43,0,5
2,45,0,10
2,43,94,9
2,43,0,36
2,40,102,12
2,40,0,41
2,36,90,7
2,36,0,43
2,38,98,245
2,38,0,44
2,40,102,4
2,40,0,44
2,41,112,4
2,41,0,42
2,33,94,294
2,33,0,40
2,36,102,8
2,36,0,44
2,31,94,100
2,33,90,24
2,31,0,2
2,33,0,22
2,36,98,0
2,36,0,41
2,38,98,55
2,41,94,48
2,38,0,3
2,41,0,11
2,38,98,34
2,38,0,41
2,41,98,7
2,41,0,28
2,45,98,116
2,43,82,24
2,45,0,2
2,41,76,22
2,43,0,4
2,41,0,14
2,43,74,6
2,45,78,0
2,43,0,5
2,45,0,10
2,43,94,9
2,43,0,36
2,40,102,12
2,40,0,41
2,36,90,7
2,36,0,43
2,38,98,245
2,38,0,44
2,40,102,4
2,40,0,44
2,41,112,4
2,41,0,42
2,33,94,294
2,33,0,40
2,36,102,8
2,36,0,44
2,31,94,100
2,33,90,24
2,31,0,2
2,33,0,22
2,36,98,0
2,36,0,41
2,38,98,55
2,41,94,48
2,38,0,3
2,41,0,11
2,38,98,34
2,38,0,41
2,41,98,7
2,41,0,28
2,45,98,116
2,43,82,24
2,45,0,2
2,41,76,22
2,43,0,4
2,41,0,14
2,45,78,6
2,43,74,0
2,43,0,5
2,45,0,10
2,43,94,9
2,43,0,36
2,40,102,12
2,40,0,41
2,36,90,7
2,36,0,43
2,38,98,245
2,38,0,44
2,40,102,4
2,40,0,44
2,41,112,4
2,41,0,42
2,33,94,294
2,33,0,40
2,36,102,8
2,36,0,44
2,31,94,100
2,33,90,24
2,31,0,2
2,33,0,22
2,36,98,0
2,36,0,41
2,38,98,55
2,41,94,48
2,38,0,3
2,41,0,11
2,38,98,34
2,38,0,41
2,41,98,7
2,41,0,28
2,45,98,116
2,43,82,24
2,45,0,2
2,41,76,22
2,43,0,4
2,41,0,14
2,45,78,6
2,43,74,0
2,43,0,5
2,45,0,10
2,43,94,9
2,43,0,36
2,40,102,12
2,40,0,41
2,36,90,7
2,36,0,43
2,38,98,245
2,38,0,44
2,40,102,4
2,40,0,44
2,41,112,4
2,41,0,42
2,33,94,294
2,33,0,40
2,36,102,8
2,36,0,44
2,31,94,100
2,33,90,24
2,31,0,2
2,33,0,22
2,36,98,0
2,36,0,41
2,38,98,55
2,41,94,48
2,38,0,3
2,41,0,11
2,38,98,34
2,38,0,41
2,41,98,7
2,41,0,28
2,45,98,116
2,43,82,24
2,45,0,2
2,41,76,22
2,43,0,4
2,41,0,14
2,45,78,6
2,43,74,0
2,43,0,5
2,45,0,10
2,43,94,9
2,43,0,36
2,40,102,12
2,40,0,41
2,36,90,7
2,36,0,43
2,38,98,245
2,38,0,44
2,40,102,4
2,40,0,44
2,41,112,4
2,41,0,42
2,33,94,294
2,33,0,40
2,36,102,8
2,36,0,44
2,31,94,100
2,33,90,24
2,31,0,2
2,33,0,22
2,36,98,0
2,36,0,41
2,38,98,55
2,41,94,24
2,38,0,3
2,41,0,11
2,38,98,24
2,38,0,17
2,41,98,7
2,41,0,4
2,45,98,0
2,43,82,24
2,45,0,2
2,41,76,22
2,43,0,4
2,41,0,14
2,43,74,6
2,45,78,0
2,43,0,5
2,45,0,10
2,43,94,9
2,43,0,12
2,40,102,0
2,40,0,17
2,36,90,7
2,36,0,19
2,38,98,0
2,38,0,20
2,40,102,0
2,40,0,20
2,41,112,0
2,41,0,18
2,33,94,0
2,33,0,16
2,36,102,8
2,36,0,20
2,31,94,24
2,33,90,0
2,31,0,2
2,33,0,22
2,36,98,0
2,36,0,17
2,38,98,24
2,41,94,24
2,38,0,3
2,41,0,11
2,38,98,24
2,38,0,17
2,41,98,0
2,41,0,4
2,45,98,24
2,43,82,0
2,45,0,2
2,41,76,22
2,43,0,4
2,41,0,14
2,43,74,6
2,45,78,0
2,43,0,5
2,45,0,10
2,43,94,9
2,43,0,12
2,40,102,12
2,40,0,17
2,36,90,7
2,36,0,19
2,38,98,24
2,38,0,20
2,40,102,0
2,40,0,20
2,41,112,4
2,41,0,18
2,33,94,24
2,33,0,16
2,36,102,8
2,36,0,20
2,31,94,24
2,33,90,0
2,31,0,2
2,33,0,22
2,36,98,0
2,36,0,17
3,26,95,2194
3,65,38,0
3,38,75,0
3,62,33,0
3,69,56,0
3,62,0,359
3,69,0,25
3,67,54,0
3,64,52,0
3,60,37,0
3,65,0,8
3,60,0,342
3,67,0,20
3,62,62,14
3,58,46,0
3,65,64,0
3,64,0,3
3,58,0,362
3,67,37,19
3,64,48,0
3,60,46,0
3,65,0,10
3,62,0,3
3,60,0,329
3,62,44,42
3,69,39,0
3,65,54,0
3,67,0,4
3,64,0,2
3,62,0,355
3,60,42,23
3,64,56,0
3,67,56,0
3,69,0,8
3,65,0,7
3,60,0,326
3,67,0,31
3,58,48,12
3,62,54,0
3,65,60,0
3,64,0,6
3,58,0,363
3,60,52,15
3,67,42,0
3,64,44,0
3,65,0,6
3,62,0,13
3,60,0,329
3,67,0,4
3,64,0,1
3,69,70,31
3,62,66,0
3,65,76,0
3,62,0,353
3,69,0,24
3,60,70,7
3,67,66,0
3,64,78,0
3,65,0,2
3,60,0,332
3,67,0,42
3,62,78,8
3,58,52,0
3,65,74,0
3,64,0,8
3,58,0,359
3,60,66,17
3,64,68,0
3,67,60,0
3,65,0,11
3,62,0,6
3,60,0,315
3,62,66,52
3,65,72,0
3,69,60,0
3,67,0,3
3,64,0,3
3,62,0,345
3,67,68,33
3,64,76,0
3,60,70,0
3,69,0,4
3,65,0,6
3,60,0,331
3,67,0,35
3,65,78,8
3,62,76,0
3,58,45,0
3,64,0,14
3,58,0,352
3,64,60,18
3,67,56,0
3,60,60,0
3,65,0,9
3,62,0,7
3,60,0,321
3,69,58,47
3,62,62,0
3,65,76,0
3,64,0,6
3,67,0,5
3,62,0,355
3,60,68,18
3,64,74,0
3,67,70,0
3,69,0,12
3,65,0,4
3,60,0,318
3,67,0,33
3,58,68,17
3,62,76,0
3,65,64,0
3,64,0,1
3,58,0,365
3,60,62,18
3,64,74,0
3,67,64,0
3,65,0,16
3,62,0,3
3,60,0,339
3,65,74,26
3,62,64,0
3,69,68,0
3,64,0,8
3,67,0,2
3,69,0,1507
3,62,0,1
3,65,0,1
3,62,74,17
3,69,74,0
3,65,70,0
3,62,0,741
3,38,0,2
3,26,0,0
3,64,76,25
3,67,76,0
3,26,95,0
3,38,75,0
3,60,70,0
3,69,0,1
3,65,0,0
3,60,0,730
3,67,0,33
3,62,78,4
3,58,64,0
3,65,76,0
3,64,0,10
3,58,0,732
3,65,0,6
3,60,78,20
3,69,74,0
3,65,82,0
3,62,0,5
3,60,0,742
3,62,64,21
3,62,0,748
3,60,66,20
3,64,68,0
3,67,70,0
3,65,0,7
3,69,0,1
3,60,0,739
3,65,82,21
3,58,66,0
3,62,86,0
3,67,0,4
3,64,0,10
3,58,0,747
3,69,72,7
3,62,0,1130
3,67,82,22
3,60,68,0
3,64,76,0
3,65,0,10
3,69,0,1
3,60,0,343
3,67,0,26
3,58,66,4
3,62,86,0
3,65,82,0
3,64,0,8
3,58,0,350
3,67,70,26
3,60,66,0
3,64,74,0
3,62,0,3
3,65,0,0
3,60,0,352
3,65,74,29
3,62,70,0
3,69,66,0
3,67,0,12
3,64,0,1
3,62,0,349
3,64,74,22
3,67,70,0
3,60,64,0
3,65,0,9
3,69,0,4
3,60,0,335
3,67,0,33
3,58,66,3
3,62,76,0
3,65,76,0
3,64,0,4
3,58,0,361
3,67,66,19
3,64,62,0
3,60,64,0
3,65,0,16
3,62,0,1
3,60,0,332
3,65,74,35
3,62,72,0
3,69,72,0
3,64,0,3
3,67,0,1
3,62,0,364
3,64,78,16
3,60,68,0
3,67,72,0
3,69,0,3
3,65,0,8
3,60,0,311
3,67,0,51
3,64,0,3
3,62,78,8
3,65,78,0
3,58,66,0
3,58,0,365
3,67,70,19
3,64,78,0
3,60,72,0
3,62,0,21
3,65,0,5
3,60,0,329
3,65,70,29
3,62,66,0
3,69,72,0
3,64,0,4
3,67,0,5
3,62,0,348
3,60,64,27
3,64,78,0
3,67,68,0
3,65,0,6
3,69,0,1
3,60,0,344
3,67,0,30
3,62,74,3
3,58,62,0
3,65,76,0
3,64,0,13
3,58,0,353
3,64,66,18
3,67,56,0
3,60,68,0
3,65,0,14
3,62,0,1
3,60,0,325
3,65,76,44
3,62,74,0
3,69,72,0
3,64,0,1
3,67,0,3
3,69,0,1620
3,62,0,1
3,65,0,3
3,60,62,676
3,64,70,0
3,67,68,0
3,60,0,746
3,58,66,22
3,62,90,0
3,65,76,0
3,67,0,4
3,64,0,17
3,58,0,716
3,65,0,12
3,69,76,19
3,60,66,0
3,65,74,0
3,62,0,9
3,60,0,732
3,26,0,26
3,38,0,0
3,26,95,1
3,38,75,0
3,62,58,0
3,69,0,735
3,65,0,33
3,64,74,0
3,60,74,0
3,67,66,0
3,62,0,2
3,60,0,724
3,67,0,27
3,62,82,15
3,58,60,0
3,65,76,0
3,64,0,5
3,58,0,741
3,65,0,3
3,62,0,6
3,26,0,12
3,38,0,0
3,26,101,1
3,38,100,0
3,69,68,0
3,62,86,0
3,65,66,0
3,65,0,767
3,69,0,0
3,62,0,0
3,38,0,2863
3,26,0,0
4,74,68,5357
4,74,0,9
4,74,76,39
4,74,0,9
4,74,60,39
4,74,0,7
4,74,72,41
4,74,0,11
4,74,80,85
4,72,58,7
4,74,0,3
4,72,0,10
4,72,62,35
4,72,0,42
4,69,50,6
4,69,0,15
4,72,66,33
4,72,0,21
4,74,52,75
4,74,0,42
4,67,66,6
4,65,64,72
4,67,0,7
4,65,0,11
4,62,44,6
4,62,0,3
4,67,62,98
4,67,0,27
4,72,35,357
4,72,0,12
4,74,84,12
4,74,0,22
4,74,46,26
4,74,0,20
4,74,56,28
4,74,0,23
4,74,50,25
4,74,0,18
4,74,80,30
4,74,0,14
4,74,54,34
4,74,0,19
4,74,72,29
4,72,56,5
4,74,0,3
4,72,0,1
4,69,54,46
4,69,0,35
4,72,72,13
4,74,37,96
4,72,0,3
4,74,0,45
4,67,66,0
4,65,60,9
4,67,0,1
4,65,0,19
4,62,48,4
4,62,0,58
4,67,62,182
4,69,66,16
4,67,0,4
4,69,0,9
4,74,58,419
4,74,0,14
4,74,60,34
4,74,0,13
4,74,62,35
4,74,0,14
4,74,68,34
4,74,0,18
4,74,60,78
4,72,62,1
4,74,0,1
4,72,0,16
4,72,76,31
4,72,0,40
4,69,42,8
4,72,64,48
4,69,0,3
4,74,46,8
4,72,0,6
4,74,0,37
4,67,62,5
4,65,50,72
4,67,0,1
4,65,0,18
4,62,46,5
4,62,0,32
4,67,58,58
4,69,50,9
4,67,0,7
4,69,0,13
4,67,62,220
4,65,54,66
4,67,0,2
4,62,35,22
4,65,0,4
4,62,0,618
4,69,80,770
4,69,0,42
4,72,66,6
4,72,0,48
4,74,50,0
4,74,0,23
4,74,62,25
4,74,0,24
4,74,76,72
4,74,0,5
4,74,60,9
4,74,0,45
4,72,58,3
4,74,48,48
4,72,0,3
4,74,0,34
4,74,64,11
4,74,0,22
4,67,80,266
4,67,0,10
4,67,56,39
4,67,0,36
4,67,80,60
4,67,0,95
4,65,52,1
4,65,0,45
4,67,54,3
4,67,0,38
4,62,56,344
4,62,0,33
4,69,80,15
4,69,0,36
4,67,56,12
4,67,0,12
4,67,66,84
4,67,0,16
4,65,54,80
4,65,0,16
4,69,68,32
4,69,0,90
4,67,48,54
4,67,0,8
4,67,64,5
4,67,0,3
4,65,48,72
4,65,0,10
4,65,66,38
4,65,0,16
4,65,62,32
4,65,0,17
4,67,84,31
4,67,0,26
4,72,64,1
4,72,0,30
4,72,68,18
4,72,0,16
4,72,72,32
4,72,0,10
4,69,62,1
4,72,58,48
4,69,0,5
4,72,0,34
4,72,62,9
4,72,0,44
4,69,60,340
4,74,64,48
4,69,0,2
4,74,0,24
4,74,84,22
4,74,0,20
4,74,84,76
4,74,0,47
4,74,76,49
4,72,60,48
4,74,0,2
4,72,0,44
4,74,62,2
4,74,0,77
4,72,88,19
4,72,0,44
4,69,40,4
4,69,0,45
4,72,66,3
4,69,56,48
4,72,0,6
4,69,0,2
4,65,54,34
4,65,0,12
4,69,80,36
4,69,0,29
4,69,46,19
4,69,0,16
4,69,58,32
4,69,0,14
4,69,76,34
4,69,0,7
4,67,64,5
4,67,0,44
4,65,48,4
4,67,52,48
4,65,0,1
4,67,0,34
4,60,64,194
4,60,0,41
4,62,72,7
4,62,0,42
4,65,76,6
4,65,0,20
4,67,76,28
4,67,0,4
4,67,58,1
4,67,0,39
4,65,52,3
4,65,0,48
4,67,56,0
4,67,0,4
4,65,52,140
4,65,0,10
4,67,80,14
4,67,0,8
4,67,62,2
4,67,0,44
4,65,52,4
4,65,0,20
4,67,84,28
4,67,0,21
4,65,58,3
4,65,0,24
4,62,42,0
4,62,0,12
4,62,64,33
4,62,0,16
4,69,76,5
4,69,0,30
4,72,68,2
4,72,0,23
4,72,84,25
4,72,0,19
4,72,92,29
4,69,54,2
4,72,0,2
4,69,0,39
4,72,72,6
4,72,0,19
4,74,54,5
4,74,0,3
4,74,76,489
4,74,0,16
4,74,68,32
4,74,0,15
4,74,76,33
4,74,0,16
4,74,72,32
4,74,0,17
4,74,68,79
4,72,80,1
4,74,0,4
4,72,0,12
4,72,62,32
4,72,0,34
4,69,60,14
4,69,0,45
4,72,76,3
4,74,48,3
4,72,0,8
4,74,0,38
4,67,62,1
4,65,52,2
4,67,0,9
4,65,0,15
4,62,46,0
4,62,0,2
4,67,80,157
4,67,0,8
4,67,66,1
4,69,64,5
4,67,0,4
4,69,0,3
4,72,46,246
4,72,0,9
4,74,97,15
4,74,0,22
4,74,52,26
4,74,0,20
4,74,88,28
4,74,0,22
4,74,54,26
4,74,0,18
4,74,80,30
4,74,0,16
4,74,54,32
4,74,0,18
4,74,84,30
4,72,52,48
4,74,0,2
4,72,0,1
4,69,52,17
4,69,0,12
4,72,84,2
4,74,44,13
4,72,0,1
4,74,0,46
4,67,62,1
4,65,60,3
4,67,0,10
4,65,0,13
4,62,40,1
4,62,0,11
4,67,58,146
4,67,0,7
4,67,64,4
4,69,64,1
4,67,0,4
4,69,0,3
4,74,80,262
4,74,0,13
4,74,64,35
4,74,0,17
4,74,72,31
4,74,0,33
4,74,62,15
4,74,0,28
4,74,80,68
4,74,0,15
4,74,55,9
4,74,0,12
4,74,76,12
4,74,0,47
4,72,56,1
4,72,0,25
4,72,56,23
4,72,0,14
4,72,68,34
4,72,0,3
4,74,51,3
4,74,0,40
4,67,66,8
4,65,54,72
4,67,0,10
4,65,0,9
4,62,52,5
4,62,0,2
4,67,62,116
4,67,0,13
4,67,62,0
4,69,64,3
4,67,0,2
4,69,0,27
4,72,43,379
4,72,0,9
4,74,84,15
4,74,0,20
4,74,64,28
4,74,0,16
4,74,88,32
4,74,0,16
4,74,72,32
4,74,0,15
4,74,88,33
4,74,0,11
4,74,72,37
4,74,0,13
4,74,88,2
4,74,0,1
4,72,56,1
4,72,0,35
4,69,60,58
4,69,0,11
4,72,84,1
4,72,0,9
4,74,54,21
4,74,0,29
4,67,68,19
4,65,62,1
4,67,0,15
4,65,0,2
4,62,42,7
4,62,0,72
4,67,76,168
4,67,0,13
4,67,66,3
4,69,56,0
4,67,0,5
4,69,0,1
4,67,80,92
4,67,0,13
4,67,66,11
4,65,54,4
4,67,0,1
4,62,60,23
4,65,0,3
4,62,0,7
4,67,92,686
4,67,0,36
4,69,102,12
4,69,0,46
4,72,92,2
4,72,0,47
4,74,97,1
4,74,0,42
4,74,102,6
4,74,0,27
