track,note,velocity,time
0,38,95,1724
0,38,91,156
0,38,100,164
0,36,67,348
0,44,50,0
0,70,64,0
0,44,91,0
0,56,100,0
0,75,73,0
0,56,100,0
0,38,100,0
0,67,100,0
0,51,91,4
0,63,91,0
0,32,64,12
0,38,91,200
0,44,50,0
0,45,30,40
0,36,67,20
0,43,39,0
0,38,100,0
0,67,100,0
0,38,64,8
0,67,64,0
0,45,56,16
0,36,67,44
0,47,51,0
0,44,50,0
0,52,91,0
0,81,91,0
0,52,61,180
0,81,61,0
0,38,91,4
0,44,50,0
0,52,82,28
0,81,82,0
0,45,59,8
0,32,64,0
0,56,82,0
0,84,82,0
0,51,84,4
0,56,80,0
0,36,67,8
0,43,30,0
0,44,90,4
0,45,54,4
0,56,91,4
0,51,102,4
0,44,82,0
0,32,60,0
0,70,60,0
0,38,100,0
0,67,100,0
0,51,93,4
0,36,67,4
0,43,51,0
0,44,50,0
0,56,100,0
0,63,91,0
0,63,82,4
0,75,73,0
0,44,91,0
0,38,91,108
0,44,50,0
0,63,77,4
0,58,96,12
0,70,60,4
0,51,91,0
0,46,100,0
0,44,50,8
0,75,70,0
0,43,30,12
0,45,54,4
0,38,64,0
0,67,64,0
0,38,91,20
0,44,50,0
0,52,87,0
0,81,87,0
0,52,82,36
0,81,82,0
0,45,65,8
0,38,69,0
0,67,69,0
0,36,55,16
0,43,36,0
0,68,73,8
0,36,67,8
0,44,50,0
0,73,82,0
0,44,91,0
0,56,100,0
0,63,76,0
0,56,100,0
0,38,100,0
0,67,100,0
0,49,91,4
0,32,64,0
0,38,91,200
0,44,50,0
0,45,30,40
0,36,67,20
0,43,39,0
0,38,100,0
0,67,100,0
0,38,64,8
0,67,64,0
0,45,56,16
0,36,67,44
0,47,51,0
0,44,50,0
0,52,91,0
0,81,91,0
0,52,61,4
0,81,61,0
0,38,91,4
0,44,50,0
0,52,82,28
0,81,82,0
0,45,59,8
0,56,82,4
0,84,82,0
0,32,73,0
0,49,84,4
0,56,80,0
0,36,67,8
0,43,30,0
0,44,90,4
0,45,54,4
0,56,91,4
0,49,102,4
0,44,82,0
0,68,63,4
0,32,64,0
0,38,100,0
0,67,100,0
0,49,93,4
0,36,67,4
0,43,51,0
0,44,50,0
0,56,100,0
0,63,71,4
0,44,91,0
0,73,91,4
0,38,91,108
0,44,50,0
0,56,80,12
0,44,50,192
0,63,91,0
0,43,30,12
0,45,54,4
0,38,64,0
0,67,64,0
0,38,91,20
0,44,50,0
0,55,64,0
0,58,91,0
0,52,87,0
0,81,87,0
0,52,82,36
0,81,82,0
0,45,65,8
0,38,69,0
0,67,69,0
0,36,55,16
0,43,36,0
0,36,67,8
0,44,50,0
0,70,64,0
0,44,91,0
0,56,100,0
0,75,73,0
0,63,64,0
0,56,100,0
0,38,100,0
0,67,100,0
0,51,91,0
0,63,91,0
0,32,73,4
0,38,91,200
0,44,50,0
0,45,30,40
0,36,67,20
0,43,39,0
0,38,100,0
0,67,100,0
0,38,64,8
0,67,64,0
0,45,56,16
0,51,100,0
0,36,67,8
0,47,51,0
0,44,50,0
0,52,91,0
0,81,91,0
0,52,61,8
0,81,61,0
0,38,91,4
0,44,50,0
0,56,82,8
0,52,82,24
0,81,82,0
0,45,59,8
0,56,82,0
0,84,82,0
0,32,64,0
0,51,84,4
0,56,80,0
0,36,67,8
0,43,30,0
0,44,90,4
0,45,54,4
0,56,91,4
0,51,102,4
0,44,82,0
0,70,60,0
0,38,100,0
0,67,100,0
0,51,93,4
0,36,67,4
0,43,51,0
0,44,50,0
0,56,100,0
0,63,82,4
0,75,73,0
0,44,91,0
0,32,73,0
0,38,91,108
0,44,50,0
0,63,77,4
0,58,96,12
0,70,60,4
0,51,91,0
0,46,100,0
0,44,50,8
0,75,70,0
0,43,30,12
0,45,54,4
0,38,64,0
0,67,64,0
0,38,91,20
0,44,50,0
0,44,107,0
0,52,87,0
0,81,87,0
0,52,82,36
0,81,82,0
0,45,65,8
0,38,69,0
0,67,69,0
0,36,55,16
0,43,36,0
0,68,73,8
0,36,67,8
0,44,50,0
0,73,82,0
0,44,91,0
0,56,100,0
0,63,76,0
0,44,100,0
0,38,100,0
0,67,100,0
0,49,91,4
0,32,73,8
0,38,91,200
0,44,50,0
0,45,30,40
0,36,67,20
0,43,39,0
0,38,100,0
0,67,100,0
0,38,64,8
0,67,64,0
0,45,56,16
0,36,67,44
0,47,51,0
0,44,50,0
0,52,91,0
0,81,91,0
0,52,61,180
0,81,61,0
0,38,91,4
0,44,50,0
0,52,82,16
0,81,82,0
0,45,59,8
0,56,82,4
0,84,82,0
0,32,64,8
0,49,84,4
0,56,80,0
0,36,67,8
0,43,30,0
0,44,90,4
0,45,54,4
0,56,91,4
0,49,102,4
0,44,82,0
0,68,63,4
0,38,100,0
0,67,100,0
0,49,93,4
0,32,60,0
0,36,67,4
0,43,51,0
0,44,50,0
0,56,100,0
0,63,71,4
0,44,91,0
0,73,91,4
0,38,91,108
0,44,50,0
0,58,75,12
0,44,50,192
0,63,91,0
0,43,30,12
0,45,54,4
0,38,64,0
0,67,64,0
0,38,91,20
0,44,50,0
0,58,100,0
0,52,87,0
0,81,87,0
0,52,82,36
0,81,82,0
0,45,65,8
0,38,69,0
0,67,69,0
0,36,55,16
0,43,36,0
0,32,64,0
0,36,67,12
0,44,50,0
0,70,64,0
0,44,91,0
0,56,100,0
0,75,73,0
0,56,81,0
0,63,75,0
0,38,100,0
0,67,100,0
0,51,91,4
0,63,91,0
0,44,73,0
0,38,91,200
0,44,50,0
0,45,30,40
0,36,67,20
0,43,39,0
0,38,100,0
0,67,100,0
0,38,64,8
0,67,64,0
0,45,56,16
0,36,67,44
0,47,51,0
0,44,50,0
0,52,91,0
0,81,91,0
0,52,61,180
0,81,61,0
0,38,91,4
0,44,50,0
0,52,82,28
0,81,82,0
0,45,59,8
0,56,82,0
0,84,82,0
0,51,84,4
0,56,80,0
0,36,67,8
0,43,30,0
0,44,90,4
0,32,64,4
0,45,54,4
0,56,91,4
0,51,102,4
0,44,82,0
0,70,60,0
0,38,100,0
0,67,100,0
0,51,93,4
0,36,67,4
0,43,51,0
0,44,50,0
0,56,100,0
0,63,82,4
0,75,73,0
0,44,91,0
0,32,73,12
0,38,91,108
0,44,50,0
0,63,77,4
0,56,82,0
0,58,96,12
0,51,64,0
0,70,60,4
0,51,91,0
0,46,100,0
0,44,56,0
0,44,50,8
0,75,70,0
0,43,30,12
0,45,54,4
0,38,64,0
0,67,64,0
0,38,91,20
0,44,50,0
0,52,87,0
0,81,87,0
0,63,95,8
0,52,82,36
0,81,82,0
0,45,65,8
0,38,69,0
0,67,69,0
0,36,55,16
0,43,36,0
0,68,73,8
0,32,73,4
0,36,67,4
0,44,50,0
0,73,82,0
0,44,91,0
0,56,100,0
0,63,76,0
0,38,100,0
0,67,100,0
0,49,91,4
0,44,68,0
0,51,73,0
0,56,91,4
0,38,91,200
0,44,50,0
0,45,30,40
0,36,67,20
0,43,39,0
0,38,100,0
0,67,100,0
0,38,64,8
0,67,64,0
0,45,56,16
0,36,67,44
0,47,51,0
0,44,50,0
0,52,91,0
0,81,91,0
0,52,61,180
0,81,61,0
0,38,91,4
0,44,50,0
0,52,82,28
0,81,82,0
0,45,59,8
0,56,82,4
0,84,82,0
0,32,64,0
0,49,84,4
0,56,80,0
0,36,67,8
0,43,30,0
0,44,90,4
0,45,54,4
0,56,91,4
0,49,102,4
0,44,82,0
0,68,63,4
0,38,100,0
0,67,100,0
0,49,93,4
0,56,60,0
0,36,67,4
0,43,51,0
0,44,50,0
0,56,100,0
0,44,82,0
0,32,73,0
0,63,71,4
0,44,91,0
0,63,60,0
0,73,91,4
0,38,91,108
0,44,50,0
0,44,50,204
0,43,30,12
0,45,54,4
0,38,64,0
0,67,64,0
0,38,91,20
0,44,50,0
0,52,87,0
0,81,87,0
0,52,82,36
0,81,82,0
0,45,65,8
0,38,69,0
0,67,69,0
0,36,55,8
0,43,36,0
0,36,67,12
0,44,50,0
0,70,64,0
0,46,91,0
0,58,100,0
0,75,73,0
0,38,100,0
0,67,100,0
0,51,91,4
0,63,91,0
0,58,92,4
0,51,96,8
0,39,91,0
0,38,91,200
0,44,50,0
0,45,30,40
0,36,67,20
0,43,39,0
0,38,100,0
0,67,100,0
0,38,64,8
0,67,64,0
0,45,56,16
0,36,67,44
0,47,51,0
0,44,50,0
0,52,91,0
0,81,91,0
0,52,61,180
0,81,61,0
0,38,91,4
0,44,50,0
0,52,82,28
0,81,82,0
0,45,59,8
0,56,82,4
0,84,82,0
0,36,67,12
0,43,30,0
0,45,54,0
0,44,91,0
0,68,59,8
0,38,100,0
0,67,100,0
0,49,93,4
0,36,67,4
0,43,51,0
0,44,50,0
0,56,100,0
0,49,96,0
0,63,82,4
0,73,73,0
0,56,92,8
0,37,91,4
0,38,91,108
0,44,50,0
0,44,50,204
0,43,30,12
0,45,54,4
0,38,64,0
0,67,64,0
0,38,91,20
0,44,50,0
0,52,87,0
0,81,87,0
0,52,82,36
0,81,82,0
0,45,65,8
0,38,69,0
0,67,69,0
0,36,55,16
0,43,36,0
0,44,93,12
0,36,67,12
0,44,50,0
0,63,83,0
0,63,82,0
0,56,91,0
0,38,100,0
0,67,100,0
0,51,91,4
0,56,102,4
0,44,100,0
0,75,93,0
0,68,60,4
0,38,91,200
0,44,50,0
0,45,30,40
0,36,67,20
0,43,39,0
0,38,100,0
0,67,100,0
0,38,64,8
0,67,64,0
0,45,56,16
0,36,67,44
0,47,51,0
0,44,50,0
0,52,91,0
0,81,91,0
0,52,61,180
0,81,61,0
0,38,91,4
0,44,50,0
0,52,82,28
0,81,82,0
0,45,59,8
0,56,82,20
0,84,82,0
0,36,67,12
0,43,30,0
0,45,54,4
0,63,60,72
0,70,74,4
0,75,74,0
0,63,74,0
0,72,74,0
0,38,100,8
0,67,100,0
0,36,67,8
0,43,51,0
0,44,50,0
0,38,91,108
0,44,50,0
0,58,75,188
0,44,50,16
0,43,30,12
0,45,54,4
0,38,64,0
0,67,64,0
0,38,91,20
0,44,50,0
0,52,87,0
0,81,87,0
0,52,82,36
0,81,82,0
0,45,65,8
0,38,69,0
0,67,69,0
0,36,55,16
0,43,36,0
0,63,127,16
0,36,67,4
0,44,50,0
0,32,91,0
0,38,100,0
0,67,100,0
0,38,91,24
0,44,50,0
0,63,127,4
0,45,30,40
0,63,127,16
0,36,67,4
0,43,39,0
0,38,100,0
0,67,100,0
0,38,64,8
0,67,64,0
0,45,56,16
0,36,67,44
0,47,51,0
0,44,50,0
0,52,91,0
0,81,91,0
0,52,61,16
0,81,61,0
0,38,91,4
0,44,50,0
0,63,122,0
0,52,82,28
0,81,82,0
0,45,59,8
0,32,84,4
0,56,82,0
0,84,82,0
0,63,127,4
0,36,67,8
0,43,30,0
0,45,54,4
0,38,100,12
0,67,100,0
0,32,95,4
0,36,67,4
0,43,51,0
0,44,50,0
0,63,127,0
0,38,91,108
0,44,50,0
0,67,91,188
0,44,50,4
0,60,127,4
0,43,30,8
0,45,54,4
0,38,64,0
0,67,64,0
0,38,91,20
0,44,50,0
0,52,87,0
0,81,87,0
0,52,82,8
0,81,82,0
0,45,65,8
0,63,127,4
0,38,69,0
0,67,69,0
0,36,55,16
0,43,36,0
0,68,74,8
0,65,74,0
0,61,74,0
0,73,74,0
0,36,67,4
0,44,50,0
0,32,91,0
0,38,100,0
0,67,100,0
0,61,127,8
0,60,122,56
0,38,91,8
0,44,50,0
0,45,30,40
0,58,127,4
0,36,67,8
0,43,39,0
0,38,100,0
0,67,100,0
0,38,64,8
0,67,64,0
0,45,56,16
0,36,67,44
0,47,51,0
0,44,50,0
0,52,91,0
0,81,91,0
0,56,127,12
0,52,61,4
0,81,61,0
0,38,91,4
0,44,50,0
0,52,82,28
0,81,82,0
0,45,59,8
0,32,84,20
0,56,82,0
0,84,82,0
0,56,127,4
0,36,67,8
0,43,30,0
0,45,54,4
0,38,100,12
0,67,100,0
0,32,95,4
0,36,67,4
0,43,51,0
0,44,50,0
0,38,91,108
0,44,50,0
0,44,50,204
0,43,30,12
0,45,54,4
0,38,64,0
0,67,64,0
0,65,127,16
0,38,91,4
0,44,50,0
0,52,87,0
0,81,87,0
0,52,82,36
0,81,82,0
0,45,65,8
0,38,69,0
0,67,69,0
0,36,55,16
0,43,36,0
0,72,74,0
0,63,74,0
0,75,74,0
0,70,74,0
0,36,67,8
0,44,50,0
0,32,91,0
0,38,100,0
0,67,100,0
0,63,127,4
0,63,122,72
0,38,91,8
0,44,50,0
0,45,30,40
0,36,67,16
0,43,39,0
0,63,127,0
0,38,100,0
0,67,100,0
0,38,64,8
0,67,64,0
0,45,56,16
0,36,67,44
0,47,51,0
0,44,50,0
0,52,91,0
0,81,91,0
0,63,127,76
0,52,61,16
0,81,61,0
0,38,91,4
0,44,50,0
0,52,82,28
0,81,82,0
0,45,59,8
0,32,84,4
0,56,82,0
0,84,82,0
0,60,113,4
0,36,67,8
0,43,30,0
0,45,54,4
0,61,127,0
0,38,100,12
0,67,100,0
0,32,95,4
0,63,127,0
0,36,67,4
0,43,51,0
0,44,50,0
0,63,127,12
0,38,91,108
0,44,50,0
0,67,91,12
0,44,50,16
0,60,125,0
0,43,30,12
0,45,54,4
0,38,64,0
0,67,64,0
0,38,91,20
0,44,50,0
0,52,87,0
0,81,87,0
0,52,82,36
0,81,82,0
0,63,127,4
0,45,65,4
0,38,69,0
0,67,69,0
0,36,55,16
0,43,36,0
0,68,74,20
0,65,74,0
0,61,74,0
0,73,74,0
0,36,67,8
0,44,50,0
0,32,91,0
0,61,127,0
0,38,100,0
0,67,100,0
0,60,122,56
0,38,91,12
0,44,50,0
0,45,30,40
0,58,127,16
0,36,67,4
0,43,39,0
0,38,100,0
0,67,100,0
0,38,64,8
0,67,64,0
0,45,56,16
0,36,67,44
0,47,51,0
0,44,50,0
0,52,91,0
0,81,91,0
0,52,61,16
0,81,61,0
0,38,91,4
0,44,50,0
0,56,127,0
0,52,82,28
0,81,82,0
0,45,59,8
0,32,84,20
0,56,82,0
0,84,82,0
0,56,127,8
0,36,67,4
0,43,30,0
0,45,54,4
0,38,100,12
0,67,100,0
0,32,95,4
0,36,67,4
0,43,51,0
0,44,50,0
0,38,91,108
0,44,50,0
0,44,50,64
0,44,91,4
0,43,30,8
0,45,54,4
0,38,64,0
0,67,64,0
0,38,91,20
0,44,50,0
0,52,87,0
0,81,87,0
0,52,82,36
0,81,82,0
0,45,65,8
0,38,69,0
0,67,69,0
0,36,55,16
0,43,36,0
0,72,74,8
0,63,74,0
0,75,74,0
0,70,74,0
0,63,127,0
0,36,67,8
0,44,50,0
0,32,91,0
0,38,100,0
0,67,100,0
0,63,127,20
0,38,91,172
0,44,50,0
0,45,30,4
0,63,122,4
0,36,67,16
0,43,39,0
0,38,100,0
0,67,100,0
0,38,64,8
0,67,64,0
0,63,122,8
0,45,56,8
0,60,127,36
0,36,67,8
0,47,51,0
0,44,50,0
0,52,91,0
0,81,91,0
0,61,127,12
0,52,61,4
0,81,61,0
0,38,91,4
0,44,50,0
0,52,82,28
0,81,82,0
0,45,59,8
0,32,84,16
0,56,82,0
0,84,82,0
0,63,127,0
0,36,67,12
0,43,30,0
0,45,54,4
0,38,100,12
0,67,100,0
0,32,95,4
0,36,67,4
0,43,51,0
0,44,50,0
0,63,127,64
0,38,91,108
0,44,50,0
0,60,113,16
0,61,127,32
0,67,91,12
0,44,50,16
0,63,127,16
0,43,30,12
0,45,54,4
0,38,64,0
0,67,64,0
0,38,91,20
0,44,50,0
0,52,87,0
0,81,87,0
0,52,82,36
0,81,82,0
0,45,65,4
0,61,127,0
0,38,69,0
0,67,69,0
0,36,55,16
0,43,36,0
0,60,122,36
0,68,74,4
0,65,74,0
0,61,74,0
0,73,74,0
0,36,67,8
0,44,50,0
0,32,91,0
0,38,100,0
0,67,100,0
0,61,127,0
0,60,122,40
0,38,91,8
