track,note,velocity,time
1,55,92,7680
1,57,92,192
1,59,94,152
1,60,103,176
1,62,98,172
1,60,103,192
1,59,92,192
1,57,109,172
1,55,96,4
1,54,117,192
1,54,103,28
1,55,103,0
1,54,123,192
1,52,88,4
1,54,103,192
1,55,106,184
1,57,103,732
1,55,109,168
1,54,99,140
1,55,106,180
1,57,98,172
1,57,98,48
1,59,106,192
1,60,103,176
1,62,88,172
1,64,92,188
1,62,103,12
1,60,109,192
1,59,103,148
1,57,88,0
1,62,112,12
1,62,66,0
1,60,98,384
1,59,88,148
1,57,96,160
1,59,92,176
1,62,101,156
1,62,83,4
1,60,101,384
1,59,103,360
1,57,106,0
1,55,115,52
1,57,106,12
1,59,109,192
1,60,106,168
1,62,98,0
1,60,103,768
1,59,106,152
1,57,106,160
1,55,106,16
1,54,127,192
1,54,99,20
1,54,99,40
1,55,101,192
1,54,127,176
1,52,109,180
1,54,96,188
1,55,106,160
1,55,119,1344
1,57,106,192
1,59,109,172
1,60,103,176
1,62,98,168
1,62,82,32
1,60,101,28
1,59,94,192
1,57,109,160
1,55,101,8
1,54,112,192
1,54,80,20
1,55,96,384
1,54,127,172
1,52,92,8
1,54,107,192
1,55,103,172
1,55,96,20
1,57,112,384
1,55,106,184
1,54,99,16
1,55,101,8
1,57,101,192
1,57,81,36
1,57,109,52
1,59,101,4
1,60,127,192
1,62,109,168
1,64,101,12
1,64,65,0
1,62,98,20
1,60,92,192
1,59,106,140
1,57,85,160
1,62,106,4
1,60,103,768
1,59,103,176
1,57,109,144
1,59,96,172
1,62,96,160
1,62,74,28
1,60,101,384
1,59,109,372
1,57,106,360
1,55,106,72
1,57,98,192
1,59,109,156
1,60,106,164
1,62,92,168
1,60,112,104
1,59,103,192
1,57,109,156
1,55,103,160
1,54,112,188
1,54,90,44
1,54,87,36
1,55,109,192
1,54,99,172
1,52,109,8
1,54,90,192
1,55,112,168
1,57,112,16544
1,59,127,8
1,61,112,192
1,62,106,0
1,64,103,192
1,62,115,736
1,61,103,168
1,59,119,188
1,57,112,0
1,56,107,192
1,57,127,20
1,56,99,192
1,54,107,176
1,56,99,172
1,57,127,180
1,59,112,20
1,57,127,192
1,56,103,156
1,57,106,8
1,59,112,0
1,59,119,76
1,61,93,192
1,62,109,168
1,64,109,188
1,66,107,168
1,64,94,32
1,62,127,192
1,61,103,160
1,59,106,4
1,64,119,4
1,64,112,24
1,62,123,44
1,61,96,192
1,59,127,184
1,61,99,180
1,64,112,0
1,62,123,768
1,61,103,344
1,59,119,380
1,57,127,108
1,59,127,192
1,61,103,176
1,62,123,176
1,64,112,180
1,64,106,64
1,62,106,16
1,61,93,192
1,59,127,164
1,57,112,184
1,56,103,184
1,56,112,44
1,56,87,28
1,57,127,192
1,56,90,184
1,54,103,164
1,56,99,172
1,57,119,188
1,57,109,1008
1,57,106,52
1,57,88,40
1,57,88,28
1,56,127,24
1,54,103,192
1,59,103,160
1,57,92,376
1,57,103,772
1,57,92,60
1,57,94,52
1,57,103,64
1,56,87,192
1,54,127,160
1,56,96,172
1,57,115,172
1,57,96,7192
1,57,98,48
1,57,90,48
1,57,103,44
1,56,123,24
1,54,96,16
1,56,123,24
1,52,73,192
2,33,87,45312
2,33,82,0
2,33,82,0
2,33,82,0
2,33,87,0
2,33,87,0
2,35,87,0
2,37,96,0
2,38,87,0
2,33,82,384
2,33,82,0
2,33,87,0
2,33,87,0
2,35,87,0
2,37,96,0
2,38,87,0
2,40,95,0
2,45,93,0
2,45,95,0
2,45,94,0
2,45,92,0
2,45,95,0
2,45,95,0
2,42,98,0
2,40,81,0
2,42,91,0
2,40,81,0
2,42,94,0
2,40,90,0
2,45,90,0
3,55,87,1536
3,43,79,0
3,67,100,0
3,62,84,0
3,71,96,0
3,69,106,20
3,71,105,16
3,43,87,236
3,43,80,48
3,43,75,48
3,55,89,0
3,62,71,0
3,69,84,0
3,66,113,0
3,67,100,320
3,69,110,44
3,62,70,152
3,43,74,0
3,67,92,0
3,71,92,0
3,55,92,0
3,69,106,48
3,71,116,32
3,62,63,156
3,66,96,0
3,69,96,0
3,43,79,0
3,55,92,0
3,67,110,12
3,31,77,0
3,62,87,0
3,43,105,0
3,71,96,0
3,62,73,0
3,67,100,0
3,71,87,0
3,43,96,120
3,43,89,92
3,31,75,0
3,66,106,8
3,69,89,0
3,62,82,0
3,66,100,60
3,62,70,0
3,69,92,0
3,69,89,124
3,66,106,0
3,62,69,0
3,43,94,140
3,43,96,88
3,67,96,0
3,31,77,0
3,71,96,0
3,62,73,0
3,67,84,48
3,71,80,0
3,62,70,8
3,62,75,104
3,67,96,0
3,71,84,0
3,43,92,116
3,43,87,116
3,31,73,8
3,64,87,0
3,60,82,0
3,69,84,0
3,64,89,52
3,60,80,0
3,69,87,0
3,64,92,96
3,60,75,0
3,69,89,0
3,31,79,40
3,43,96,4
3,45,89,136
3,67,96,12
3,33,63,0
3,76,84,0
3,72,89,0
3,64,77,0
3,67,70,36
3,64,74,0
3,74,100,8
3,64,50,20
3,67,72,0
3,76,110,8
3,47,100,0
3,78,100,0
3,69,80,0
3,35,74,0
3,66,96,0
3,76,77,768
3,78,113,36
3,48,92,228
3,67,79,0
3,36,74,8
3,72,100,0
3,79,87,0
3,76,92,0
3,79,96,44
3,76,87,364
3,50,82,240
3,38,74,0
3,69,63,0
3,74,80,0
3,78,96,8
3,81,82,0
3,74,63,28
3,78,69,0
3,81,77,0
3,71,105,0
3,43,75,0
3,67,105,0
3,55,96,0
3,62,92,0
3,69,109,12
3,71,109,384
3,62,79,0
3,69,92,0
3,66,106,0
3,55,89,0
3,43,73,0
3,67,113,4
3,62,51,52
3,69,109,192
3,62,64,164
3,71,105,32
3,67,105,0
3,62,84,0
3,55,82,0
3,43,75,0
3,69,110,72
3,71,92,192
3,43,75,152
3,69,89,0
3,55,87,0
3,66,106,0
3,62,74,0
3,55,80,0
3,67,105,0
3,43,68,0
3,71,100,0
3,62,82,0
3,69,87,12
3,71,110,52
3,55,77,88
3,69,92,0
3,66,106,0
3,43,70,0
3,62,77,0
3,69,64,36
3,62,58,0
3,66,77,0
3,55,84,180
3,67,105,112
3,71,92,0
3,55,82,0
3,43,70,0
3,62,79,0
3,67,79,4
3,71,77,0
3,62,58,0
3,67,100,184
3,62,75,0
3,71,92,0
3,69,84,128
3,64,87,0
3,57,80,0
3,60,77,0
3,45,66,0
3,64,79,92
3,69,82,0
3,60,74,0
3,69,89,36
3,60,82,0
3,64,100,0
3,76,82,244
3,67,105,0
3,48,72,0
3,60,87,0
3,64,89,0
3,72,87,0
3,67,75,8
3,72,74,0
3,64,69,0
3,76,71,0
3,67,105,120
3,72,89,0
3,76,79,0
3,64,84,0
3,59,71,180
3,47,74,0
3,78,113,0
3,74,117,0
3,69,100,0
3,78,83,32
3,74,79,0
3,69,74,0
3,76,123,64
3,78,121,8
3,67,79,132
3,72,92,0
3,76,87,0
3,79,77,0
3,48,79,0
3,60,73,0
3,79,105,12
3,76,96,384
3,50,72,144
3,78,113,0
3,69,80,0
3,74,110,0
3,62,82,0
3,81,84,0
3,71,100,0
3,67,110,0
3,62,89,0
3,55,82,0
3,43,75,0
3,69,118,92
3,71,123,48
3,69,110,132
3,55,84,0
3,66,113,0
3,62,92,0
3,43,79,0
3,67,123,732
3,69,117,372
3,55,82,92
3,67,110,0
3,71,105,0
3,43,82,0
3,62,100,0
3,69,110,88
3,71,110,28
3,50,75,88
3,66,106,0
3,69,96,0
3,38,72,0
3,62,89,0
3,50,70,64
3,69,79,12
3,66,83,0
3,62,69,0
3,50,79,56
3,69,105,28
3,66,103,0
3,62,92,0
3,50,79,116
3,57,80,0
3,69,105,0
3,45,68,0
3,73,100,0
3,64,82,0
3,71,87,12
3,73,110,52
3,57,77,88
3,71,92,0
3,68,106,0
3,45,70,0
3,64,77,0
3,71,64,36
3,64,58,0
3,68,77,0
3,57,84,180
3,57,80,0
3,69,105,0
3,45,68,0
3,73,100,0
3,64,82,0
3,71,87,12
3,73,110,52
3,57,77,88
3,71,92,0
3,68,106,0
3,45,70,0
3,64,77,0
3,71,64,36
3,64,58,0
3,68,77,0
3,57,84,180
3,69,105,112
3,73,92,0
3,57,82,0
3,45,70,0
3,64,79,0
3,69,79,4
3,73,77,0
3,64,58,0
3,69,100,184
3,64,75,0
3,73,92,0
3,71,84,128
3,66,87,0
3,59,80,0
3,62,77,0
3,47,66,0
3,66,79,92
3,71,82,0
3,62,74,0
3,71,89,36
3,62,82,0
3,66,100,0
3,78,82,244
3,69,105,0
3,47,72,0
3,59,87,0
3,66,89,0
3,74,87,0
3,69,75,8
3,74,74,0
3,66,69,0
3,78,71,0
3,69,105,120
3,74,89,0
3,78,79,0
3,66,84,0
3,64,71,180
3,52,74,0
3,80,113,0
3,76,117,0
3,71,100,0
3,80,83,32
3,76,79,0
3,71,74,0
3,78,123,64
3,80,121,8
3,50,74,0
3,81,89,0
3,76,100,0
3,62,89,0
3,78,113,0
3,69,92,0
3,81,92,56
3,78,121,192
3,81,100,52
3,78,121,160
3,69,114,12
3,33,81,0
3,64,91,0
3,45,109,0
3,73,100,0
3,64,77,0
3,69,104,0
3,73,91,0
3,45,100,120
3,45,93,92
3,33,79,0
3,68,110,8
3,71,93,0
3,64,86,0
3,68,104,60
3,64,74,0
3,71,96,0
3,71,93,124
3,68,110,0
3,64,73,0
3,45,98,140
3,45,100,88
3,69,100,0
3,33,81,0
3,73,100,0
3,64,77,0
3,69,88,48
3,73,84,0
3,64,74,8
3,64,79,104
3,69,100,0
3,73,88,0
3,45,96,116
3,45,91,116
3,33,77,8
3,66,91,0
3,62,86,0
3,71,88,0
3,66,93,52
3,62,84,0
3,71,91,0
3,66,96,96
3,62,79,0
3,71,93,0
3,33,83,40
3,45,100,4
3,47,93,136
3,69,100,12
3,35,67,0
3,78,88,0
3,74,93,0
3,66,81,0
3,69,74,36
3,66,78,0
3,76,104,8
3,66,54,20
3,69,76,0
3,78,114,8
3,49,104,0
3,80,104,0
3,71,84,0
3,37,78,0
3,68,100,0
3,78,81,768
3,80,117,36
3,50,96,228
3,69,83,0
3,38,78,8
3,74,104,0
3,81,91,0
3,78,96,0
3,81,100,44
3,78,91,364
3,52,86,240
3,40,78,0
3,71,67,0
3,76,84,0
3,80,100,8
3,83,86,0
3,76,67,28
3,80,73,0
3,83,81,0
3,45,73,4
3,64,84,0
3,69,105,0
3,57,105,0
3,73,96,0
3,69,96,68
3,64,80,0
3,73,92,0
3,69,96,168
3,64,80,0
3,73,96,0
3,45,87,12
3,57,117,0
3,71,96,0
3,68,106,0
3,64,70,0
3,71,79,96
3,64,73,0
3,68,92,0
3,71,96,136
3,68,106,0
3,64,82,0
3,57,87,24
3,45,74,0
3,69,105,0
3,73,113,0
3,64,84,0
3,69,92,76
3,73,96,0
3,64,77,0
3,69,110,148
3,73,96,0
3,64,87,0
3,45,87,44
3,57,117,0
3,71,89,0
3,64,69,0
3,68,106,0
3,64,77,108
3,68,113,0
3,71,96,0
3,71,96,136
3,68,121,0
3,64,79,0
3,45,87,28
3,57,105,0
3,69,96,0
3,73,106,0
3,64,82,0
3,73,96,112
3,69,96,0
3,64,84,0
3,64,87,120
3,73,100,0
3,69,105,0
3,45,92,0
3,57,100,40
3,64,65,0
3,68,106,0
3,71,89,0
3,68,106,120
3,64,80,0
3,71,80,0
3,64,110,116
3,68,127,0
3,71,84,0
3,66,92,0
3,54,81,0
3,78,92,0
3,74,105,0
3,69,96,0
3,74,100,112
3,69,96,0
3,78,96,0
3,74,110,140
3,69,105,0
3,78,113,0
3,52,77,172
3,68,113,0
3,71,105,0
3,76,79,0
3,64,87,0
3,71,80,52
3,68,88,0
3,76,80,0
3,71,92,100
3,68,106,0
3,76,80,0
3,52,84,72
3,64,110,0
3,69,79,108
3,74,92,0
3,78,92,0
3,54,85,0
3,66,100,0
3,74,100,108
3,78,92,0
3,69,100,0
3,74,110,176
3,78,106,0
3,69,100,0
3,52,79,204
3,64,77,0
3,68,100,0
3,71,92,0
3,76,80,0
3,71,96,96
3,68,113,0
3,76,79,0
3,68,96,20
3,71,105,0
3,54,83,148
3,66,92,0
3,74,110,0
3,78,100,0
3,69,100,0
3,74,87,48
3,78,92,0
3,69,82,0
3,78,106,144
3,69,100,0
3,74,117,0
3,54,79,92
3,66,106,0
3,68,100,32
3,64,84,0
3,52,87,0
3,71,100,0
3,76,74,0
3,71,89,88
3,68,92,0
3,76,72,0
3,71,105,96
3,76,87,0
3,68,106,0
3,52,92,128
3,57,100,0
3,76,72,0
3,69,96,0
3,73,96,0
4,69,75,47604
4,71,81,192
4,73,78,180
4,74,81,4
4,76,71,192
4,74,72,740
4,73,78,176
4,71,77,152
4,69,84,168
4,68,73,172
4,69,82,12
4,68,84,192
4,66,78,160
4,68,94,180
4,69,81,160
4,71,83,728
4,69,86,180
4,68,76,172
4,69,91,168
4,71,76,188
4,83,60,748
4,71,55,0
4,85,63,12
4,73,50,0
4,86,58,188
4,74,53,0
4,88,44,168
4,76,38,0
4,90,52,0
4,78,54,0
4,88,52,0
4,76,38,0
4,80,66,0
4,74,44,0
4,86,53,0
4,78,73,0
4,73,49,0
4,85,66,0
4,76,58,0
4,71,37,168
4,83,46,0
4,74,55,0
4,76,44,148
4,88,45,0
4,80,57,0
4,74,54,16
4,86,56,0
4,78,70,0
4,73,44,164
4,85,70,0
4,76,54,0
4,83,56,144
4,71,52,0
4,74,44,0
4,85,62,168
4,73,62,0
4,76,45,0
4,88,50,152
4,76,43,0
4,81,45,0
4,64,52,0
4,69,72,0
4,73,73,0
4,71,58,0
4,68,64,0
4,73,61,0
4,69,65,0
4,71,55,0
4,74,62,0
4,73,63,0
4,76,58,0
4,68,62,0
4,71,56,0
4,66,62,0
4,69,59,0
4,68,57,0
4,71,61,0
4,69,51,0
4,66,73,0
4,68,73,0
4,71,55,0
4,73,73,0
4,69,67,0
4,64,51,0
4,71,61,0
4,68,66,0
4,73,59,0
4,69,58,0
4,71,66,0
4,74,59,0
4,73,63,0
4,76,64,0
4,81,63,384
4,66,71,0
4,71,47,0
4,78,47,0
4,74,49,0
4,69,67,0
4,74,74,0
4,78,66,0
4,81,69,1152
4,80,49,4
4,71,65,0
4,76,64,0
4,80,73,56
4,83,77,384
4,81,48,92
4,78,64,0
4,74,54,0
4,78,77,32
4,81,72,60
4,83,13,44
4,80,56,0
4,71,77,0
4,76,48,0
4,69,72,0
4,64,54,0
4,73,77,0
4,71,52,0
4,68,53,0
4,73,56,0
4,69,57,0
4,71,49,0
4,74,49,0
4,76,52,0
4,73,57,0
4,81,38,0
4,71,44,0
4,80,56,0
4,64,43,0
4,73,62,0
4,81,73,0
4,76,53,0
4,69,44,0
4,81,76,112
4,81,82,88
4,81,82,104
4,81,87,96
4,81,90,104
4,64,51,24
4,68,41,0
4,76,70,0
4,71,41,0
4,61,43,0
4,64,46,0
4,69,43,0
4,85,63,576
4,81,57,0
4,93,57,0
4,85,64,64
4,81,60,0
4,93,64,0
4,85,73,72
4,81,64,0
4,93,64,0
4,81,59,76
4,85,77,0
4,93,64,0
4,85,77,84
4,81,72,0
4,93,64,0
4,59,32,40
4,68,43,0
4,88,43,0
4,76,48,0
4,80,56,0
4,69,55,0
4,66,62,0
4,81,65,0
4,64,53,0
4,74,58,0
4,74,102,160
4,83,69,0
4,81,49,88
4,76,71,0
4,71,82,0
4,68,85,0
4,64,105,0
4,69,50,0
4,66,56,0
4,78,66,0
4,81,55,0
4,74,35,0
4,76,38,0
4,88,39,1152
4,71,37,0
4,88,42,0
4,83,55,0
4,81,53,0
4,76,56,0
4,68,35,0
4,69,71,192
4,81,73,0
4,68,75,192
4,80,75,0
4,64,74,180
4,76,69,0
4,69,66,172
4,81,70,0
4,80,66,148
4,68,76,0
4,64,65,172
4,76,64,0
4,76,54,0
4,64,60,0
4,76,34,16
4,64,43,0
4,69,43,0
4,71,40,0
4,64,45,52
4,73,45,0
