track,note,velocity,time
1,77,70,1306
1,77,0,336
1,77,70,50
1,77,0,284
1,79,73,10
1,79,0,322
1,77,90,2064
1,77,0,352
1,82,66,34
1,82,0,286
1,79,67,6
1,79,0,370
1,72,74,2404
1,75,68,122
1,72,0,2
1,75,0,100
1,75,75,72
1,75,0,102
1,75,80,94
1,75,0,100
1,74,71,96
1,74,0,116
1,75,78,64
1,75,0,120
1,72,70,70
1,72,0,172
1,70,66,12
1,70,0,184
1,63,61,404
1,67,64,88
1,63,0,8
1,67,0,144
1,70,68,30
1,67,38,316
1,70,0,14
1,65,59,20
1,67,0,6
1,65,0,42
1,63,33,8
1,63,0,222
1,75,76,448
1,75,0,90
1,75,81,56
1,75,0,94
1,75,82,48
1,75,0,182
1,70,44,0
1,70,0,60
1,70,85,54
1,70,0,110
1,67,74,68
1,67,0,134
1,72,71,56
1,72,0,12
1,68,76,1234
1,68,0,96
1,72,68,10
1,72,0,96
1,75,74,14
1,75,0,84
1,75,73,92
1,75,0,90
1,75,74,96
1,75,0,196
1,74,67,88
1,74,0,102
1,75,76,6
1,75,0,106
1,72,76,72
1,72,0,200
1,70,60,6
1,70,0,262
1,63,71,298
1,63,0,92
1,67,71,16
1,67,0,176
1,70,74,8
1,67,28,304
1,70,0,20
1,65,56,18
1,67,0,14
1,63,64,44
1,65,0,8
1,63,0,212
1,70,83,262
1,70,0,84
1,72,83,10
1,72,0,164
1,75,82,22
1,75,0,174
1,77,80,4
1,77,0,390
1,79,73,2
1,79,0,376
1,77,65,0
1,77,0,4
1,67,75,124
1,67,0,118
1,65,55,82
1,65,0,106
1,63,68,82
1,65,65,108
1,63,0,2
1,65,0,330
1,65,69,38
1,65,0,286
1,67,66,0
1,67,0,402
1,70,73,274
1,70,0,44
1,70,67,54
1,70,0,84
1,65,68,16
1,65,0,336
1,70,71,50
1,70,0,282
1,67,60,0
1,67,0,346
1,65,70,524
1,65,0,342
1,65,73,44
1,65,0,272
1,67,66,22
1,67,0,254
1,58,64,110
1,58,0,88
1,67,71,18
1,67,0,154
1,65,70,42
1,63,46,94
1,65,0,34
1,63,0,36
1,63,89,34
1,63,0,154
1,60,71,14
1,60,0,74
1,67,71,32
1,67,0,120
1,65,70,82
1,65,0,542
1,70,63,138
1,70,0,62
1,70,62,28
1,70,0,62
1,70,60,18
1,70,0,192
1,65,71,18
1,65,0,320
1,65,63,54
1,67,60,270
1,65,0,4
1,67,0,330
1,70,68,158
1,70,0,150
1,70,77,38
1,65,75,184
1,70,0,2
1,70,65,396
1,65,0,8
1,67,55,276
1,70,0,16
1,65,52,98
1,67,0,2
1,63,50,80
1,65,0,2
1,63,0,284
1,67,73,196
1,65,54,84
1,67,0,10
1,65,0,74
1,65,67,24
1,65,0,324
1,65,72,56
1,65,0,272
1,67,62,16
1,67,0,336
1,63,68,56
1,63,0,66
1,67,62,20
1,67,0,162
1,65,62,38
1,63,52,96
1,65,0,24
1,63,0,26
1,63,71,38
1,60,64,172
1,63,0,12
1,60,0,88
1,67,71,12
1,67,0,202
1,65,60,4
1,65,0,510
1,72,70,920
1,72,0,92
1,75,71,26
1,75,0,108
1,75,67,74
1,75,0,120
1,75,76,72
1,75,0,130
1,74,72,62
1,74,0,124
1,75,77,56
1,75,0,138
1,72,62,40
1,70,44,198
1,72,0,10
1,70,0,230
1,67,71,440
1,67,0,156
1,70,70,26
1,70,0,362
1,67,35,4
1,65,54,52
1,67,0,16
1,63,49,42
1,65,0,2
1,63,0,168
1,75,68,422
1,75,0,80
1,75,82,114
1,75,0,94
1,75,82,102
1,75,0,156
1,70,73,24
1,70,0,126
1,67,69,82
1,67,0,126
1,72,77,60
1,72,0,6
1,68,72,1032
1,68,0,68
1,72,73,36
1,72,0,82
1,75,77,30
1,75,0,106
1,75,76,76
1,75,0,88
1,75,81,98
1,75,0,104
1,74,66,76
1,74,0,130
1,75,78,60
1,75,0,102
1,72,77,80
1,72,0,36
1,72,54,50
1,72,0,294
1,67,78,298
1,67,0,94
1,65,64,2
1,65,0,52
1,65,47,58
1,65,0,36
1,72,75,122
1,72,0,122
1,72,64,68
1,72,0,168
1,75,73,24
1,75,0,132
1,77,76,48
1,77,0,386
1,79,74,10
1,79,0,294
1,75,40,8
1,75,0,92
1,77,70,4
1,77,0,84
1,75,49,4
1,75,0,184
1,72,29,6
1,72,0,458
1,67,74,386
1,67,0,96
1,65,61,48
1,65,0,82
1,63,71,50
1,63,0,74
1,65,71,52
1,65,0,368
1,65,82,24
1,65,0,260
1,67,64,16
1,67,0,350
1,70,81,132
1,70,0,56
1,70,55,48
1,70,0,56
1,70,72,34
1,70,0,170
1,65,76,30
1,65,0,382
1,70,74,4
1,70,0,262
1,67,64,10
1,67,0,246
1,67,60,430
1,67,0,94
1,65,49,6
1,65,0,70
1,65,73,30
1,65,0,344
1,65,71,50
1,65,0,270
1,67,67,4
1,67,0,322
1,63,66,82
1,63,0,88
1,67,71,2
1,67,0,128
1,65,64,54
1,65,0,32
1,65,69,22
1,65,0,128
1,62,59,60
1,62,0,82
1,69,63,12
1,69,0,138
1,67,68,30
1,67,0,246
1,70,73,294
1,70,0,146
1,70,78,42
1,70,0,44
1,70,85,50
1,70,0,82
1,65,77,16
1,65,0,312
1,65,75,76
1,65,0,270
1,67,69,12
1,67,0,300
1,70,78,188
1,70,0,134
1,70,81,42
1,70,0,168
1,65,73,28
1,65,0,386
1,70,77,10
1,67,68,272
1,70,0,2
1,67,0,360
1,65,81,2
1,65,0,64
1,65,80,24
1,65,0,48
1,65,83,48
1,65,0,300
1,67,72,0
1,67,0,310
1,63,81,86
1,63,0,66
1,67,80,26
1,67,0,118
1,65,76,50
1,63,72,292
1,65,0,4
1,63,0,130
1,63,82,46
1,63,0,170
1,65,72,30
1,65,0,92
1,67,77,0
1,67,0,196
1,65,65,10
1,65,0,204
1,70,72,378
1,70,0,48
1,70,77,42
1,70,0,62
1,72,83,28
1,72,0,194
1,70,60,4
1,70,0,114
1,74,77,62
1,74,0,284
1,75,63,8
1,75,0,244
1,70,71,248
1,70,0,54
1,70,65,38
1,70,0,52
1,70,85,36
1,70,0,150
1,74,85,56
1,74,0,356
1,77,70,16
1,77,0,274
1,75,68,12
1,75,0,318
1,70,72,380
1,70,0,176
1,74,72,2
1,74,0,332
1,74,80,34
1,75,63,298
1,74,0,4
1,75,0,288
1,70,71,100
1,70,0,92
1,79,73,4
1,77,71,186
1,79,0,4
1,77,0,294
1,75,66,4
1,75,0,132
1,75,80,52
1,75,0,198
1,77,59,4
1,79,57,82
1,77,0,2
1,77,57,180
1,79,0,4
1,77,0,398
1,67,71,860
1,67,0,44
1,67,64,40
1,65,68,110
1,67,0,4
1,65,0,176
1,63,73,16
1,63,0,134
1,65,72,48
1,65,0,162
1,67,66,34
1,67,0,172
1,63,65,20
1,63,0,262
1,65,68,304
1,67,75,98
1,65,0,2
1,67,0,64
1,65,64,38
1,65,0,114
1,63,75,66
1,63,0,170
1,72,73,24
1,72,0,292
1,63,68,0
1,65,54,218
1,63,0,6
1,63,36,90
1,65,0,6
1,63,0,158
1,67,72,274
1,67,0,106
1,65,68,4
1,65,0,152
1,63,81,42
1,63,0,142
1,65,78,62
1,65,0,150
1,65,73,46
1,65,0,184
1,63,67,4
1,63,0,302
1,65,71,284
1,65,0,82
1,67,67,0
1,67,0,96
1,65,69,4
1,65,0,178
1,63,71,10
1,72,47,208
1,63,0,2
1,72,0,438
1,65,65,596
1,65,0,88
1,63,60,4
1,63,0,74
1,65,77,28
1,65,0,338
1,65,75,36
1,65,0,276
1,67,71,18
1,67,0,336
1,70,83,150
1,70,0,58
1,70,57,36
1,70,0,64
1,70,70,32
1,70,0,190
1,65,76,4
1,65,0,362
1,70,80,16
1,70,0,276
1,67,64,4
1,67,0,342
1,67,76,344
1,65,62,96
1,67,0,10
1,65,0,56
1,65,74,32
1,65,0,312
1,65,72,52
1,67,71,294
1,65,0,2
1,67,0,306
1,63,76,74
1,67,66,110
1,63,0,6
1,67,0,154
1,65,69,38
1,63,63,88
1,65,0,12
1,63,0,40
1,63,77,36
1,63,0,144
1,60,52,40
1,60,0,110
1,67,74,10
1,67,0,180
1,65,64,8
1,65,0,320
1,72,75,1016
1,72,0,54
1,72,69,42
1,72,0,110
1,75,82,0
1,75,0,110
1,75,78,64
1,75,0,126
1,75,83,72
1,75,0,150
1,74,77,38
1,74,0,146
1,75,82,34
1,75,0,152
1,72,72,38
1,70,56,202
1,72,0,12
1,70,0,162
1,65,74,216
1,65,0,98
1,67,72,0
1,67,0,92
1,65,69,0
1,65,0,78
1,67,72,16
1,67,0,190
1,70,72,6
1,70,0,88
1,67,59,14
1,67,0,52
1,65,40,2
1,65,0,48
1,63,54,18
1,63,0,276
1,75,83,560
1,75,0,84
1,75,82,50
1,75,0,90
1,75,81,54
1,75,0,152
1,75,82,42
1,75,0,110
1,70,75,10
1,70,0,148
1,67,66,22
1,67,0,186
1,72,77,20
1,72,0,88
1,68,64,1162
1,68,0,94
1,72,77,2
1,75,82,120
1,72,0,4
1,75,0,110
1,75,76,62
1,75,0,118
1,75,85,74
1,74,64,272
1,75,0,16
1,74,0,38
1,72,57,0
1,70,56,62
1,72,0,6
1,70,0,230
1,70,101,348
1,72,76,90
1,70,0,2
1,72,0,160
1,70,86,24
1,70,0,90
1,79,82,12
1,79,0,132
1,77,77,40
1,77,0,112
1,75,74,80
1,75,0,6
1,70,86,232
1,70,0,76
1,72,85,24
1,72,0,86
1,72,72,58
1,72,0,66
1,75,90,50
1,75,0,76
1,77,80,46
1,77,0,354
1,79,77,40
1,77,66,90
1,79,0,6
1,77,0,78
1,75,72,8
1,75,0,166
1,77,81,18
1,77,0,190
1,75,81,0
1,72,40,360
1,75,0,2
1,72,0,270
1,75,81,230
1,75,0,110
1,75,107,96
1,75,0,84
1,72,56,14
1,72,0,76
1,70,71,4
1,70,0,78
1,77,106,26
1,77,0,338
1,77,81,50
1,77,0,274
1,75,76,12
1,75,0,348
1,70,75,128
1,70,0,62
1,70,80,34
1,70,0,46
1,70,74,38
1,70,0,154
1,74,80,46
1,74,0,352
1,77,72,34
1,77,0,278
1,75,65,6
1,75,0,288
1,74,86,574
1,74,0,342
1,74,89,42
1,74,0,280
1,75,78,12
1,75,0,270
1,70,77,116
1,70,0,80
1,79,80,12
1,79,0,174
1,77,71,24
1,75,68,96
1,77,0,8
1,75,0,42
1,75,85,36
1,75,0,180
1,72,72,18
1,72,0,110
1,79,70,0
1,79,0,150
1,77,64,30
1,77,0,296
1,70,77,368
1,70,0,54
1,70,68,44
1,70,0,50
1,70,81,50
1,70,0,98
1,74,78,90
1,70,49,184
1,74,0,22
1,70,0,112
1,74,76,62
1,74,0,276
1,75,81,22
1,75,0,370
1,70,80,112
1,70,0,48
1,70,65,42
1,70,0,50
1,70,85,48
1,70,0,108
1,74,83,96
1,74,0,242
1,77,73,122
1,77,0,280
1,79,52,22
1,79,0,46
1,77,40,8
1,77,0,46
1,75,57,10
1,75,0,316
1,70,81,232
1,70,0,172
1,74,73,20
1,74,0,362
1,74,81,38
1,74,0,288
1,75,73,0
1,75,0,302
1,70,66,68
1,79,73,102
1,70,0,2
1,79,0,184
1,77,74,8
1,75,76,298
1,77,0,6
1,75,0,122
1,75,82,46
1,75,0,180
1,77,66,16
1,77,0,92
1,79,59,0
1,77,65,206
1,79,0,10
1,74,60,112
1,77,0,2
1,74,0,38
1,72,42,10
1,70,47,38
1,72,0,2
1,70,0,232
2,67,87,2
2,67,0,50
2,70,87,12
2,70,0,74
2,70,97,32
2,70,0,68
2,67,81,0
2,67,0,86
2,65,77,28
2,63,62,28
2,65,0,6
2,63,0,70
2,63,64,34
2,63,0,82
2,67,92,10
2,67,0,44
2,70,89,24
2,70,0,68
2,72,90,32
2,75,80,128
2,72,0,4
2,72,78,18
2,75,0,10
2,72,0,92
2,70,89,10
2,70,0,66
2,72,72,10
2,67,62,8
2,72,0,2
2,67,0,4
2,67,83,8
2,70,71,62
2,67,0,2
2,70,0,72
2,70,87,42
2,67,78,48
2,70,0,10
2,67,0,80
2,65,75,32
2,65,0,32
2,63,75,0
2,63,0,74
2,63,83,30
2,63,0,194
2,63,89,64
2,63,0,74
2,65,80,30
2,65,0,64
2,67,77,22
2,67,0,66
2,70,83,30
2,70,0,22
2,68,82,4
2,68,0,46
2,67,72,30
2,67,0,50
2,65,81,46
2,65,0,58
2,62,76,42
2,62,0,92
2,65,85,26
2,65,0,54
2,60,70,54
2,60,0,58
2,62,77,6
2,62,0,54
2,65,68,4
2,65,0,44
2,62,78,14
2,62,0,56
2,60,75,0
2,60,0,62
2,58,60,28
2,58,0,32
2,67,93,8
2,67,0,84
2,70,89,2
2,70,0,76
2,70,103,34
2,72,93,28
2,70,0,4
2,72,0,66
2,70,93,62
2,70,0,112
2,72,87,0
2,72,0,44
2,67,76,8
2,67,0,4
2,67,85,8
2,67,0,38
2,70,92,36
2,70,0,52
2,72,85,28
2,72,0,174
2,75,78,6
2,75,0,50
2,72,67,0
2,72,0,60
2,70,82,20
2,70,0,112
2,72,87,2
2,72,0,38
2,66,74,38
2,66,0,42
2,67,60,0
2,67,0,4
2,65,64,20
2,63,66,8
2,65,0,10
2,60,32,28
2,63,0,2
2,63,77,42
2,60,0,4
2,63,0,178
2,67,78,8
2,67,0,66
2,70,92,10
2,70,0,66
2,70,95,34
2,70,0,36
2,67,76,4
2,67,0,90
2,66,65,36
2,66,0,40
2,65,46,4
2,65,0,48
2,63,76,6
2,63,0,290
2,65,80,130
2,65,0,84
2,67,86,40
2,67,0,82
2,70,89,8
2,70,0,74
2,68,93,10
2,68,0,66
2,67,86,26
2,67,0,92
2,65,90,12
2,65,0,136
2,72,85,4
2,72,0,88
2,70,82,16
2,70,0,80
2,74,85,2
2,74,0,94
2,72,78,6
2,72,0,66
2,70,75,52
2,70,0,72
2,67,66,12
2,67,0,56
2,62,52,44
2,63,32,26
2,62,0,16
2,62,64,14
2,63,0,6
2,62,0,74
2,58,67,8
2,58,0,76
2,60,55,20
2,60,0,104
2,65,73,16
2,65,0,18
2,72,85,8
2,72,0,120
2,70,81,22
2,70,0,54
2,74,81,10
2,74,0,70
2,77,64,14
2,77,0,76
2,75,76,0
2,75,0,216
2,74,73,2
2,72,75,74
2,74,0,4
2,72,0,52
2,70,66,0
2,70,0,60
2,67,67,14
2,67,0,402
2,74,87,2
2,74,0,48
2,72,60,12
2,72,0,44
2,71,71,8
2,71,0,32
2,72,86,16
2,72,0,38
2,74,74,6
2,74,0,36
2,72,60,4
2,72,0,20
2,72,78,28
2,72,0,42
2,68,72,0
2,68,0,40
2,67,60,4
2,67,0,36
2,65,65,8
2,65,0,48
2,64,87,6
2,64,0,36
2,60,36,20
2,60,0,14
2,63,93,16
2,63,0,28
2,60,72,20
2,60,0,4
2,63,85,4
2,63,0,30
2,62,70,0
2,60,32,30
2,62,0,14
2,60,0,20
2,56,24,24
2,60,19,26
2,56,0,8
2,62,19,12
2,60,0,12
2,62,0,16
2,67,58,8
2,65,76,82
2,67,0,6
2,67,86,58
2,65,0,2
2,67,0,26
2,68,107,2
2,68,0,26
2,70,80,10
2,70,0,34
2,67,78,34
2,67,0,50
2,63,57,2
2,63,0,58
2,65,71,2
2,65,0,90
2,72,90,608
2,72,0,72
2,75,107,26
2,75,0,72
2,79,101,10
2,78,76,80
2,79,0,16
2,77,56,28
2,78,0,14
2,75,80,20
2,77,0,16
2,75,0,14
2,72,76,10
2,72,0,30
2,75,73,20
2,77,78,100
2,75,0,12
2,77,0,2
2,77,101,6
2,77,0,64
2,75,107,30
2,72,77,152
2,75,0,2
2,72,0,50
2,77,92,6
2,77,0,68
2,75,109,26
2,75,0,86
2,72,72,6
2,72,0,60
2,77,89,6
2,75,103,140
2,77,0,32
2,75,0,54
2,72,86,8
2,72,0,72
2,70,85,22
2,70,0,70
2,72,71,4
2,67,55,8
2,72,0,10
2,70,43,82
