track,note,velocity,time
1,38,102,25239
1,38,0,34
1,38,98,14
1,38,0,26
1,38,98,6070
1,41,94,48
1,38,0,3
1,41,0,11
1,38,98,34
1,38,0,41
1,41,98,7
1,41,0,28
1,45,98,116
1,43,82,24
1,45,0,2
1,41,76,22
1,43,0,4
1,41,0,14
1,45,78,6
1,43,74,0
1,43,0,5
1,45,0,10
1,43,94,9
1,43,0,36
1,40,102,12
1,40,0,41
1,36,90,7
1,36,0,43
1,38,98,245
1,38,0,44
1,40,102,4
1,40,0,44
1,41,112,4
1,41,0,42
1,33,94,294
1,33,0,40
1,36,102,8
1,36,0,44
1,31,94,100
1,33,90,24
1,31,0,2
1,33,0,22
1,36,98,0
1,36,0,41
1,38,98,55
1,41,94,48
1,38,0,3
1,41,0,11
1,38,98,34
1,38,0,41
1,41,98,7
1,41,0,28
1,45,98,116
1,43,82,24
1,45,0,2
1,41,76,22
1,43,0,4
1,41,0,14
1,43,74,6
1,45,78,0
1,43,0,5
1,45,0,10
1,43,94,9
1,43,0,36
1,40,102,12
1,40,0,41
1,36,90,7
1,36,0,43
1,38,98,245
1,38,0,44
1,40,102,4
1,40,0,44
1,41,112,4
1,41,0,42
1,33,94,294
1,33,0,40
1,36,102,8
1,36,0,44
1,31,94,100
1,33,90,24
1,31,0,2
1,33,0,22
1,36,98,0
1,36,0,41
1,38,98,55
1,41,94,48
1,38,0,3
1,41,0,11
1,38,98,34
1,38,0,41
1,41,98,7
1,41,0,28
1,45,98,116
1,43,82,24
1,45,0,2
1,41,76,22
1,43,0,4
1,41,0,14
1,45,78,6
1,43,74,0
1,43,0,5
1,45,0,10
1,43,94,9
1,43,0,36
1,40,102,12
1,40,0,41
1,36,90,7
1,36,0,43
1,38,98,245
1,38,0,44
1,40,102,4
1,40,0,44
1,41,112,4
1,41,0,42
1,33,94,294
1,33,0,40
1,36,102,8
1,36,0,44
1,31,94,100
1,33,90,24
1,31,0,2
1,33,0,22
1,36,98,0
1,36,0,41
1,38,98,55
1,41,94,48
1,38,0,3
1,41,0,11
1,38,98,34
1,38,0,41
1,41,98,7
1,41,0,28
1,45,98,116
1,43,82,24
1,45,0,2
1,41,76,22
1,43,0,4
1,41,0,14
1,45,78,6
1,43,74,0
1,43,0,5
1,45,0,10
1,43,94,9
1,43,0,36
1,40,102,12
1,40,0,41
1,36,90,7
1,36,0,43
1,38,98,245
1,38,0,44
1,40,102,4
1,40,0,44
1,41,112,4
1,41,0,42
1,33,94,294
1,33,0,40
1,36,102,8
1,36,0,44
1,31,94,100
1,33,90,24
1,31,0,2
1,33,0,22
1,36,98,0
1,36,0,41
1,38,98,55
1,41,94,48
1,38,0,3
1,41,0,11
1,38,98,34
1,38,0,41
1,41,98,7
1,41,0,28
1,45,98,116
1,43,82,24
1,45,0,2
1,41,76,22
1,43,0,4
1,41,0,14
1,45,78,6
1,43,74,0
1,43,0,5
1,45,0,10
1,43,94,9
1,43,0,36
1,40,102,12
1,40,0,41
1,36,90,7
1,36,0,43
1,38,98,245
1,38,0,44
1,40,102,4
1,40,0,44
1,41,112,4
1,41,0,42
1,33,94,294
1,33,0,40
1,36,102,8
1,36,0,44
1,31,94,100
1,33,90,24
1,31,0,2
1,33,0,22
1,36,98,0
1,36,0,41
1,38,98,55
1,41,94,24
1,38,0,3
1,41,0,11
1,38,98,24
1,38,0,17
1,41,98,7
1,41,0,4
1,45,98,0
1,43,82,24
1,45,0,2
1,41,76,22
1,43,0,4
1,41,0,14
1,43,74,6
1,45,78,0
1,43,0,5
1,45,0,10
1,43,94,9
1,43,0,12
1,40,102,0
1,40,0,17
1,36,90,7
1,36,0,19
1,38,98,0
1,38,0,20
1,40,102,0
1,40,0,20
1,41,112,0
1,41,0,18
1,33,94,0
1,33,0,16
1,36,102,8
1,36,0,20
1,31,94,24
1,33,90,0
1,31,0,2
1,33,0,22
1,36,98,0
1,36,0,17
1,38,98,24
1,41,94,24
1,38,0,3
1,41,0,11
1,38,98,24
1,38,0,17
1,41,98,0
1,41,0,4
1,45,98,24
1,43,82,0
1,45,0,2
1,41,76,22
1,43,0,4
1,41,0,14
1,43,74,6
1,45,78,0
1,43,0,5
1,45,0,10
1,43,94,9
1,43,0,12
1,40,102,12
1,40,0,17
1,36,90,7
1,36,0,19
1,38,98,24
1,38,0,20
1,40,102,0
1,40,0,20
1,41,112,4
1,41,0,18
1,33,94,24
1,33,0,16
1,36,102,8
1,36,0,20
1,31,94,24
1,33,90,0
1,31,0,2
1,33,0,22
1,36,98,0
1,36,0,17
2,26,95,2194
2,65,38,0
2,38,75,0
2,62,33,0
2,69,56,0
2,62,0,359
2,69,0,25
2,67,54,0
2,64,52,0
2,60,37,0
2,65,0,8
2,60,0,342
2,67,0,20
2,62,62,14
2,58,46,0
2,65,64,0
2,64,0,3
2,58,0,362
2,67,37,19
2,64,48,0
2,60,46,0
2,65,0,10
2,62,0,3
2,60,0,329
2,62,44,42
2,69,39,0
2,65,54,0
2,67,0,4
2,64,0,2
2,62,0,355
2,60,42,23
2,64,56,0
2,67,56,0
2,69,0,8
2,65,0,7
2,60,0,326
2,67,0,31
2,58,48,12
2,62,54,0
2,65,60,0
2,64,0,6
2,58,0,363
2,60,52,15
2,67,42,0
2,64,44,0
2,65,0,6
2,62,0,13
2,60,0,329
2,67,0,4
2,64,0,1
2,69,70,31
2,62,66,0
2,65,76,0
2,62,0,353
2,69,0,24
2,60,70,7
2,67,66,0
2,64,78,0
2,65,0,2
2,60,0,332
2,67,0,42
2,62,78,8
2,58,52,0
2,65,74,0
2,64,0,8
2,58,0,359
2,60,66,17
2,64,68,0
2,67,60,0
2,65,0,11
2,62,0,6
2,60,0,315
2,62,66,52
2,65,72,0
2,69,60,0
2,67,0,3
2,64,0,3
2,62,0,345
2,67,68,33
2,64,76,0
2,60,70,0
2,69,0,4
2,65,0,6
2,60,0,331
2,67,0,35
2,65,78,8
2,62,76,0
2,58,45,0
2,64,0,14
2,58,0,352
2,64,60,18
2,67,56,0
2,60,60,0
2,65,0,9
2,62,0,7
2,60,0,321
2,69,58,47
2,62,62,0
2,65,76,0
2,64,0,6
2,67,0,5
2,62,0,355
2,60,68,18
2,64,74,0
2,67,70,0
2,69,0,12
2,65,0,4
2,60,0,318
2,67,0,33
2,58,68,17
2,62,76,0
2,65,64,0
2,64,0,1
2,58,0,365
2,60,62,18
2,64,74,0
2,67,64,0
2,65,0,16
2,62,0,3
2,60,0,339
2,65,74,26
2,62,64,0
2,69,68,0
2,64,0,8
2,67,0,2
2,69,0,1507
2,62,0,1
2,65,0,1
2,62,74,17
2,69,74,0
2,65,70,0
2,62,0,741
2,38,0,2
2,26,0,0
2,64,76,25
2,67,76,0
2,26,95,0
2,38,75,0
2,60,70,0
2,69,0,1
2,65,0,0
2,60,0,730
2,67,0,33
2,62,78,4
2,58,64,0
2,65,76,0
2,64,0,10
2,58,0,732
2,65,0,6
2,60,78,20
2,69,74,0
2,65,82,0
2,62,0,5
2,60,0,742
2,62,64,21
2,62,0,748
2,60,66,20
2,64,68,0
2,67,70,0
2,65,0,7
2,69,0,1
2,60,0,739
2,65,82,21
2,58,66,0
2,62,86,0
2,67,0,4
2,64,0,10
2,58,0,747
2,69,72,7
2,62,0,1130
2,67,82,22
2,60,68,0
2,64,76,0
2,65,0,10
2,69,0,1
2,60,0,343
2,67,0,26
2,58,66,4
2,62,86,0
2,65,82,0
2,64,0,8
2,58,0,350
2,67,70,26
2,60,66,0
2,64,74,0
2,62,0,3
2,65,0,0
2,60,0,352
2,65,74,29
2,62,70,0
2,69,66,0
2,67,0,12
2,64,0,1
2,62,0,349
2,64,74,22
2,67,70,0
2,60,64,0
2,65,0,9
2,69,0,4
2,60,0,335
2,67,0,33
2,58,66,3
2,62,76,0
2,65,76,0
2,64,0,4
2,58,0,361
2,67,66,19
2,64,62,0
2,60,64,0
2,65,0,16
2,62,0,1
2,60,0,332
2,65,74,35
2,62,72,0
2,69,72,0
2,64,0,3
2,67,0,1
2,62,0,364
2,64,78,16
2,60,68,0
2,67,72,0
2,69,0,3
2,65,0,8
2,60,0,311
2,67,0,51
2,64,0,3
2,62,78,8
2,65,78,0
2,58,66,0
2,58,0,365
2,67,70,19
2,64,78,0
2,60,72,0
2,62,0,21
2,65,0,5
2,60,0,329
2,65,70,29
2,62,66,0
2,69,72,0
2,64,0,4
2,67,0,5
2,62,0,348
2,60,64,27
2,64,78,0
2,67,68,0
2,65,0,6
2,69,0,1
2,60,0,344
2,67,0,30
2,62,74,3
2,58,62,0
2,65,76,0
2,64,0,13
2,58,0,353
2,64,66,18
2,67,56,0
2,60,68,0
2,65,0,14
2,62,0,1
2,60,0,325
2,65,76,44
2,62,74,0
2,69,72,0
2,64,0,1
2,67,0,3
2,69,0,1620
2,62,0,1
2,65,0,3
2,60,62,676
2,64,70,0
2,67,68,0
2,60,0,746
2,58,66,22
2,62,90,0
2,65,76,0
2,67,0,4
2,64,0,17
2,58,0,716
2,65,0,12
2,69,76,19
2,60,66,0
2,65,74,0
2,62,0,9
2,60,0,732
2,26,0,26
2,38,0,0
2,26,95,1
2,38,75,0
2,62,58,0
2,69,0,735
2,65,0,33
2,64,74,0
2,60,74,0
2,67,66,0
2,62,0,2
2,60,0,724
2,67,0,27
2,62,82,15
2,58,60,0
2,65,76,0
2,64,0,5
2,58,0,741
2,65,0,3
2,62,0,6
2,26,0,12
2,38,0,0
2,26,101,1
2,38,100,0
2,69,68,0
2,62,86,0
2,65,66,0
2,65,0,767
2,69,0,0
2,62,0,0
2,38,0,2863
2,26,0,0
3,74,68,5357
3,74,0,9
3,74,76,39
3,74,0,9
3,74,60,39
3,74,0,7
3,74,72,41
3,74,0,11
3,74,80,85
3,72,58,7
3,74,0,3
3,72,0,10
3,72,62,35
3,72,0,42
3,69,50,6
3,69,0,15
3,72,66,33
3,72,0,21
3,74,52,75
3,74,0,42
3,67,66,6
3,65,64,72
3,67,0,7
3,65,0,11
3,62,44,6
3,62,0,3
3,67,62,98
3,67,0,27
3,72,35,357
3,72,0,12
3,74,84,12
3,74,0,22
3,74,46,26
3,74,0,20
3,74,56,28
3,74,0,23
3,74,50,25
3,74,0,18
3,74,80,30
3,74,0,14
3,74,54,34
3,74,0,19
3,74,72,29
3,72,56,5
3,74,0,3
3,72,0,1
3,69,54,46
3,69,0,35
3,72,72,13
3,74,37,96
3,72,0,3
3,74,0,45
3,67,66,0
3,65,60,9
3,67,0,1
3,65,0,19
3,62,48,4
3,62,0,58
3,67,62,182
3,69,66,16
3,67,0,4
3,69,0,9
3,74,58,419
3,74,0,14
3,74,60,34
3,74,0,13
3,74,62,35
3,74,0,14
3,74,68,34
3,74,0,18
3,74,60,78
3,72,62,1
3,74,0,1
3,72,0,16
3,72,76,31
3,72,0,40
3,69,42,8
3,72,64,48
3,69,0,3
3,74,46,8
3,72,0,6
3,74,0,37
3,67,62,5
3,65,50,72
3,67,0,1
3,65,0,18
3,62,46,5
3,62,0,32
3,67,58,58
3,69,50,9
3,67,0,7
3,69,0,13
3,67,62,220
3,65,54,66
3,67,0,2
3,62,35,22
3,65,0,4
3,62,0,618
3,69,80,770
3,69,0,42
3,72,66,6
3,72,0,48
3,74,50,0
3,74,0,23
3,74,62,25
3,74,0,24
3,74,76,72
3,74,0,5
3,74,60,9
3,74,0,45
3,72,58,3
3,74,48,48
3,72,0,3
3,74,0,34
3,74,64,11
3,74,0,22
3,67,80,266
3,67,0,10
3,67,56,39
3,67,0,36
3,67,80,60
3,67,0,95
3,65,52,1
3,65,0,45
3,67,54,3
3,67,0,38
3,62,56,344
3,62,0,33
3,69,80,15
3,69,0,36
3,67,56,12
3,67,0,12
3,67,66,84
3,67,0,16
3,65,54,80
3,65,0,16
3,69,68,32
3,69,0,90
3,67,48,54
3,67,0,8
3,67,64,5
3,67,0,3
3,65,48,72
3,65,0,10
3,65,66,38
3,65,0,16
3,65,62,32
3,65,0,17
3,67,84,31
3,67,0,26
3,72,64,1
3,72,0,30
3,72,68,18
3,72,0,16
3,72,72,32
3,72,0,10
3,69,62,1
3,72,58,48
3,69,0,5
3,72,0,34
3,72,62,9
3,72,0,44
3,69,60,340
3,74,64,48
3,69,0,2
3,74,0,24
3,74,84,22
3,74,0,20
3,74,84,76
3,74,0,47
3,74,76,49
3,72,60,48
3,74,0,2
3,72,0,44
3,74,62,2
3,74,0,77
3,72,88,19
3,72,0,44
3,69,40,4
3,69,0,45
3,72,66,3
3,69,56,48
3,72,0,6
3,69,0,2
3,65,54,34
3,65,0,12
3,69,80,36
3,69,0,29
3,69,46,19
3,69,0,16
3,69,58,32
3,69,0,14
3,69,76,34
3,69,0,7
3,67,64,5
3,67,0,44
3,65,48,4
3,67,52,48
3,65,0,1
3,67,0,34
3,60,64,194
3,60,0,41
3,62,72,7
3,62,0,42
3,65,76,6
3,65,0,20
3,67,76,28
3,67,0,4
3,67,58,1
3,67,0,39
3,65,52,3
3,65,0,48
3,67,56,0
3,67,0,4
3,65,52,140
3,65,0,10
3,67,80,14
3,67,0,8
3,67,62,2
3,67,0,44
3,65,52,4
3,65,0,20
3,67,84,28
3,67,0,21
3,65,58,3
3,65,0,24
3,62,42,0
3,62,0,12
3,62,64,33
3,62,0,16
3,69,76,5
3,69,0,30
3,72,68,2
3,72,0,23
3,72,84,25
3,72,0,19
3,72,92,29
3,69,54,2
3,72,0,2
3,69,0,39
3,72,72,6
3,72,0,19
3,74,54,5
3,74,0,3
3,74,76,489
3,74,0,16
3,74,68,32
3,74,0,15
3,74,76,33
3,74,0,16
3,74,72,32
3,74,0,17
3,74,68,79
3,72,80,1
3,74,0,4
3,72,0,12
3,72,62,32
3,72,0,34
3,69,60,14
3,69,0,45
3,72,76,3
3,74,48,3
3,72,0,8
3,74,0,38
3,67,62,1
3,65,52,2
3,67,0,9
3,65,0,15
3,62,46,0
3,62,0,2
3,67,80,157
3,67,0,8
3,67,66,1
3,69,64,5
3,67,0,4
3,69,0,3
3,72,46,246
3,72,0,9
3,74,97,15
3,74,0,22
3,74,52,26
3,74,0,20
3,74,88,28
3,74,0,22
3,74,54,26
3,74,0,18
3,74,80,30
3,74,0,16
3,74,54,32
3,74,0,18
3,74,84,30
3,72,52,48
3,74,0,2
3,72,0,1
3,69,52,17
3,69,0,12
3,72,84,2
3,74,44,13
3,72,0,1
3,74,0,46
3,67,62,1
3,65,60,3
3,67,0,10
3,65,0,13
3,62,40,1
3,62,0,11
3,67,58,146
3,67,0,7
3,67,64,4
3,69,64,1
3,67,0,4
3,69,0,3
3,74,80,262
3,74,0,13
3,74,64,35
3,74,0,17
3,74,72,31
3,74,0,33
3,74,62,15
3,74,0,28
3,74,80,68
3,74,0,15
3,74,55,9
3,74,0,12
3,74,76,12
3,74,0,47
3,72,56,1
3,72,0,25
3,72,56,23
3,72,0,14
3,72,68,34
3,72,0,3
3,74,51,3
3,74,0,40
3,67,66,8
3,65,54,72
3,67,0,10
3,65,0,9
3,62,52,5
3,62,0,2
3,67,62,116
3,67,0,13
3,67,62,0
3,69,64,3
3,67,0,2
3,69,0,27
3,72,43,379
3,72,0,9
3,74,84,15
3,74,0,20
3,74,64,28
3,74,0,16
3,74,88,32
3,74,0,16
3,74,72,32
3,74,0,15
3,74,88,33
3,74,0,11
3,74,72,37
3,74,0,13
3,74,88,2
3,74,0,1
3,72,56,1
3,72,0,35
3,69,60,58
3,69,0,11
3,72,84,1
3,72,0,9
3,74,54,21
3,74,0,29
3,67,68,19
3,65,62,1
3,67,0,15
3,65,0,2
3,62,42,7
3,62,0,72
3,67,76,168
3,67,0,13
3,67,66,3
3,69,56,0
3,67,0,5
3,69,0,1
3,67,80,92
3,67,0,13
3,67,66,11
3,65,54,4
3,67,0,1
3,62,60,23
3,65,0,3
3,62,0,7
3,67,92,686
3,67,0,36
3,69,102,12
3,69,0,46
3,72,92,2
3,72,0,47
3,74,97,1
3,74,0,42
3,74,102,6
3,74,0,27
