track,note,velocity,time
1,43,80,480
1,55,80,0
1,62,80,0
1,71,80,0
1,67,80,0
1,71,0,58
1,62,0,8
1,67,0,0
1,67,80,52
1,69,80,0
1,62,80,0
1,55,0,1
1,69,0,119
1,67,0,0
1,71,80,0
1,71,0,45
1,62,0,38
1,43,0,15
1,62,80,7
1,69,80,0
1,43,80,0
1,55,80,0
1,66,80,0
1,62,0,127
1,69,0,7
1,66,0,14
1,62,80,1
1,67,80,0
1,67,0,120
1,69,80,0
1,55,0,44
1,55,80,16
1,62,0,15
1,69,0,23
1,62,80,22
1,67,80,30
1,62,0,8
1,55,0,0
1,43,0,0
1,71,80,22
1,62,80,0
1,43,80,0
1,55,80,0
1,71,0,86
1,67,0,0
1,62,0,7
1,69,80,45
1,67,80,0
1,62,80,0
1,67,0,105
1,69,0,15
1,71,80,0
1,55,0,29
1,55,80,31
1,62,0,15
1,71,0,0
1,62,80,45
1,43,0,7
1,62,0,31
1,55,0,0
1,62,80,22
1,55,80,0
1,69,80,0
1,66,80,0
1,43,80,0
1,66,0,67
1,62,0,1
1,69,0,7
1,67,80,113
1,69,80,60
1,67,0,8
1,43,0,51
1,69,0,1
1,71,80,0
1,55,0,29
1,71,0,31
1,72,80,0
1,55,80,60
1,43,80,0
1,71,80,0
1,72,0,1
1,67,80,0
1,74,80,0
1,55,0,49
1,55,80,31
1,67,0,15
1,74,0,0
1,71,0,7
1,67,80,38
1,67,0,23
1,72,80,37
1,71,80,60
1,72,0,23
1,71,0,37
1,69,80,0
1,69,0,53
1,67,80,7
1,67,0,8
1,43,0,14
1,55,0,1
1,55,80,37
1,66,80,0
1,57,80,0
1,43,80,0
1,62,80,0
1,55,0,61
1,55,80,23
1,66,0,14
1,57,0,0
1,62,0,8
1,66,80,38
1,57,80,0
1,43,0,22
1,57,0,1
1,66,0,7
1,55,0,0
1,55,80,30
1,43,80,0
1,59,80,0
1,67,80,0
1,62,80,0
1,59,0,44
1,66,80,16
1,67,0,7
1,64,80,53
1,62,0,7
1,66,0,1
1,43,0,45
1,64,0,7
1,66,80,0
1,59,80,60
1,43,80,0
1,62,80,0
1,67,80,0
1,66,0,1
1,55,0,61
1,62,0,21
1,67,0,0
1,59,0,16
1,67,80,45
1,59,80,0
1,62,80,0
1,59,0,60
1,55,80,0
1,67,0,8
1,62,0,15
1,59,80,37
1,59,0,53
1,62,80,7
1,67,80,0
1,55,0,15
1,67,0,45
1,55,80,0
1,62,0,15
1,43,0,7
1,59,80,8
1,55,0,8
1,59,0,7
1,60,80,15
1,64,80,0
1,69,80,1
1,43,80,0
1,55,80,0
1,64,0,103
1,60,0,0
1,69,0,1
1,64,80,45
1,69,80,0
1,60,80,0
1,55,0,7
1,55,80,53
1,60,0,15
1,69,0,23
1,64,0,0
1,60,80,22
1,60,0,23
1,69,80,37
1,64,80,0
1,60,80,0
1,60,0,15
1,55,0,0
1,64,0,0
1,69,0,15
1,43,0,30
1,55,80,0
1,55,0,23
1,67,80,0
1,45,80,0
1,76,80,0
1,72,80,0
1,52,80,30
1,57,80,60
1,72,0,7
1,76,0,0
1,67,0,7
1,76,80,46
1,67,80,0
1,72,80,0
1,72,0,8
1,76,0,0
1,67,0,0
1,57,0,30
1,64,80,22
1,67,80,0
1,74,80,0
1,72,80,0
1,74,0,14
1,57,80,46
1,67,0,59
1,71,80,1
1,72,0,7
1,57,0,8
1,52,0,30
1,45,0,7
1,64,0,8
1,57,80,0
1,57,0,8
1,71,0,0
1,66,80,7
1,47,80,0
1,69,80,0
1,74,80,0
1,54,80,38
1,74,0,22
1,69,0,7
1,66,0,1
1,59,80,30
1,66,80,60
1,74,80,0
1,69,80,0
1,66,0,30
1,74,0,8
1,69,0,15
1,72,80,7
1,67,80,0
1,67,0,60
1,71,80,0
1,72,0,8
1,59,0,45
1,69,80,7
1,71,0,8
1,54,0,15
1,47,0,7
1,71,80,30
1,69,0,8
1,71,0,7
1,48,80,2
1,64,80,0
1,67,80,0
1,74,80,0
1,55,80,30
1,74,0,59
1,67,0,0
1,60,80,1
1,64,0,14
1,74,80,46
1,67,80,0
1,64,80,0
1,74,0,15
1,64,0,7
1,67,0,1
1,60,0,37
1,72,80,0
1,67,80,0
1,64,80,0
1,60,80,60
1,72,0,53
1,60,0,7
1,71,80,0
1,67,0,15
1,71,0,15
1,55,0,15
1,48,0,0
1,64,0,0
1,60,80,15
1,60,0,15
1,62,80,45
1,66,80,0
1,50,80,0
1,69,80,0
1,57,80,20
1,62,0,23
1,62,80,37
1,64,80,60
1,69,0,7
1,66,0,7
1,64,0,1
1,67,80,45
1,67,0,60
1,62,0,0
1,69,80,0
1,50,0,14
1,57,0,39
1,71,80,7
1,69,0,15
1,71,0,38
1,72,80,7
1,72,0,15
1,43,80,2
1,74,80,0
1,50,80,32
1,74,0,8
1,55,80,52
1,55,0,53
1,69,80,7
1,67,80,0
1,62,80,0
1,67,0,105
1,62,0,8
1,69,0,7
1,71,80,0
1,62,80,0
1,55,80,60
1,62,0,8
1,50,0,0
1,43,0,15
1,71,0,15
1,62,80,22
1,55,0,8
1,67,80,22
1,62,0,8
1,67,0,7
1,66,80,15
1,43,80,0
1,57,80,0
1,59,80,0
1,55,80,0
1,59,0,7
1,57,0,96
1,66,0,9
1,55,0,29
1,57,80,8
1,66,80,0
1,62,80,0
1,62,0,83
1,57,0,0
1,55,80,7
1,57,80,30
1,66,0,8
1,57,0,45
1,62,80,7
1,66,80,0
1,57,80,0
1,57,0,15
1,62,0,8
1,55,0,15
1,66,0,7
1,43,0,15
1,55,80,0
1,55,0,23
1,71,80,0
1,62,80,0
1,43,80,0
1,67,80,0
1,55,80,1
1,71,0,82
1,67,0,7
1,62,0,0
1,55,0,46
1,69,80,15
1,67,80,0
1,62,80,0
1,55,80,60
1,67,0,60
1,71,80,0
1,69,0,8
1,62,0,52
1,71,0,0
1,67,80,0
1,43,0,22
1,67,0,1
1,55,0,0
1,55,80,37
1,55,0,30
1,38,80,5
1,62,80,0
1,55,80,0
1,43,80,1
1,66,80,0
1,69,80,0
1,55,0,59
1,55,80,38
1,66,0,15
1,62,0,14
1,38,0,8
1,69,0,8
1,62,80,15
1,38,80,0
1,62,0,15
1,67,80,45
1,69,80,60
1,67,0,8
1,43,0,7
1,71,80,45
1,69,0,15
1,55,0,8
1,72,80,37
1,71,0,8
1,72,0,7
1,38,0,30
1,43,80,15
1,67,80,1
1,71,80,0
1,74,80,0
1,55,80,87
1,74,0,15
1,71,0,7
1,67,0,8
1,67,80,30
1,67,0,30
1,72,80,30
1,72,0,60
1,71,80,0
1,69,80,60
1,71,0,15
1,55,0,8
1,69,0,7
1,67,80,30
1,67,0,15
1,43,0,7
1,57,80,38
1,55,80,1
1,62,80,0
1,43,80,0
1,66,80,0
1,55,0,21
1,55,80,90
1,66,0,7
1,57,0,7
1,62,0,23
1,57,80,23
1,43,0,22
1,57,0,1
1,55,0,15
1,59,80,22
1,55,80,0
1,67,80,0
1,62,80,0
1,43,80,0
1,67,0,59
1,59,0,1
1,66,80,0
1,66,0,53
1,64,80,7
1,43,0,29
1,62,0,15
1,66,80,16
1,55,0,8
1,64,0,0
1,43,80,52
1,59,80,0
1,62,80,0
1,67,80,0
1,66,0,1
1,55,80,20
1,59,0,37
1,67,0,7
1,62,0,0
1,55,0,69
1,59,80,7
1,67,80,0
1,62,80,0
1,55,80,60
1,59,0,8
1,67,0,22
1,62,0,15
1,59,80,15
1,62,80,60
1,67,80,0
1,55,0,15
1,59,0,8
1,55,80,37
1,67,0,8
1,62,0,7
1,43,0,7
1,55,0,23
1,64,80,15
1,60,80,0
1,69,80,0
1,43,80,0
1,55,80,1
1,69,0,84
1,64,0,0
1,60,0,15
1,69,80,46
1,64,80,0
1,60,80,0
1,55,0,15
1,55,80,45
1,60,0,15
1,64,0,15
1,69,0,0
1,60,80,30
1,60,0,23
1,69,80,37
1,60,80,0
1,64,80,0
1,64,0,8
1,55,0,0
1,60,0,0
1,69,0,7
1,43,0,37
1,55,80,8
1,55,0,15
1,67,80,3
1,76,80,0
1,45,80,0
1,72,80,1
1,52,80,33
1,76,0,59
1,57,80,1
1,72,0,7
1,67,0,15
1,76,80,38
1,67,80,0
1,72,80,0
1,72,0,1
1,76,0,7
1,67,0,14
1,74,80,38
1,72,80,60
1,74,0,15
1,71,80,45
1,72,0,8
1,71,0,37
1,57,0,8
1,71,80,7
1,45,0,14
1,71,0,1
1,52,0,0
1,66,80,10
1,47,80,0
1,69,80,0
1,74,80,0
1,54,80,33
1,74,0,22
1,69,0,7
1,66,0,8
1,59,80,23
1,69,80,0
1,74,80,0
1,66,80,0
1,69,0,23
1,59,0,0
1,74,0,7
1,66,0,8
1,59,80,22
1,64,80,60
1,72,80,0
1,71,80,60
1,72,0,8
1,64,0,30
1,71,0,0
1,69,80,22
1,66,80,0
1,66,0,38
1,54,0,22
1,69,0,0
1,71,80,0
1,59,0,8
1,47,0,6
1,71,0,9
1,64,80,37
1,48,80,0
1,67,80,0
1,74,80,3
1,55,80,57
1,60,80,60
1,74,0,3
1,67,0,4
1,64,0,16
1,64,80,37
1,64,0,23
1,72,80,37
1,64,80,0
1,67,80,0
1,60,0,8
1,60,80,52
1,72,0,53
1,71,80,7
1,67,0,14
1,55,0,9
1,48,0,6
1,60,0,31
1,69,80,0
1,69,0,8
1,71,0,0
1,64,0,15
1,66,80,37
1,69,80,0
1,50,80,0
1,57,80,60
1,62,80,60
1,62,0,15
1,66,0,38
1,69,0,6
1,64,80,1
1,64,0,60
1,67,80,0
1,50,0,44
1,57,0,1
1,69,80,15
1,67,0,15
1,71,80,45
1,69,0,23
1,72,80,37
1,71,0,8
1,72,0,7
1,43,80,45
1,67,80,0
1,71,80,0
1,74,80,1
1,74,0,51
1,71,0,7
1,50,80,1
1,67,0,7
1,55,80,53
1,62,80,60
1,67,80,0
1,69,80,0
1,55,0,1
1,55,80,59
1,67,0,59
1,71,80,1
1,69,0,7
1,55,0,23
1,67,80,30
1,71,0,23
1,67,0,7
1,43,0,7
1,62,0,1
1,50,0,22
1,55,80,0
1,55,0,53
1,57,80,7
1,43,80,0
1,66,80,0
1,62,80,0
1,50,80,60
1,66,0,52
1,55,80,8
1,62,0,7
1,57,0,8
1,66,80,45
1,57,80,0
1,57,0,38
1,66,0,0
1,57,80,22
1,62,80,0
1,67,80,0
1,66,80,60
1,64,80,60
1,66,0,15
1,67,0,0
1,43,0,29
1,62,0,16
1,66,80,0
1,57,0,8
1,64,0,0
1,66,0,15
1,55,0,15
1,50,0,15
1,43,80,7
1,71,80,0
1,62,80,0
1,43,0,1
1,55,80,0
1,43,80,0
1,67,80,0
1,55,0,59
1,55,80,60
1,67,0,7
1,71,0,15
1,62,0,7
1,69,80,31
1,67,80,0
1,62,80,0
1,55,0,8
1,55,80,52
1,71,80,60
1,67,0,8
1,69,0,0
1,55,0,37
1,67,80,15
1,71,0,8
1,62,0,7
1,43,0,22
1,67,0,8
1,55,80,15
1,62,80,60
1,69,80,0
1,66,80,0
1,43,80,0
1,55,0,8
1,55,80,112
1,66,0,14
1,69,0,0
1,62,0,15
1,69,80,31
1,66,80,0
1,62,80,0
1,55,0,15
1,55,80,45
1,62,0,23
1,69,0,22
1,66,0,8
1,62,80,7
1,62,0,38
1,69,80,22
1,66,80,0
1,62,80,0
1,62,0,14
1,55,0,1
1,66,0,14
1,69,0,1
1,55,80,30
1,43,0,7
1,64,80,23
1,55,0,8
1,64,0,15
1,45,80,7
1,69,80,1
1,73,80,0
1,64,80,0
1,52,80,59
1,57,80,60
1,64,0,22
1,73,0,8
1,69,0,0
1,57,0,23
1,71,80,7
1,69,80,0
1,64,80,0
1,57,80,60
1,69,0,60
1,73,80,0
1,57,0,38
1,71,0,15
1,69,80,7
1,73,0,8
1,64,0,7
1,69,0,15
1,45,0,7
1,52,0,16
1,57,80,7
1,57,0,53
1,64,80,7
1,71,80,0
1,68,80,0
1,45,80,0
1,52,80,60
1,57,80,60
1,68,0,15
1,71,0,8
1,64,0,15
1,71,80,22
1,64,80,0
1,68,80,0
1,57,0,8
1,57,80,52
1,64,0,15
1,71,0,23
1,68,0,0
1,64,80,22
1,64,0,45
1,64,80,15
1,68,80,0
1,71,80,0
1,64,0,8
1,57,0,0
1,68,0,7
1,52,0,0
1,45,0,7
1,71,0,1
1,57,80,37
1,57,0,45
1,45,80,15
1,69,80,0
1,76,80,0
1,73,80,0
1,52,80,60
1,57,80,60
1,73,0,7
1,76,0,0
1,69,0,7
1,76,80,46
1,69,80,0
1,73,80,0
1,76,0,45
1,73,0,15
1,74,80,0
1,73,80,60
1,74,0,8
1,69,0,0
1,71,80,52
1,73,0,8
1,57,0,7
1,45,0,38
1,52,0,0
1,71,0,0
1,69,80,7
1,69,0,8
1,59,80,52
1,64,80,0
1,45,80,0
1,68,80,0
1,52,80,60
1,68,0,59
1,57,80,1
1,64,0,22
1,59,0,1
1,64,80,37
1,68,80,0
1,59,80,0
1,64,0,8
1,59,0,6
1,68,0,16
1,59,80,30
1,64,80,0
1,69,80,0
1,68,80,60
1,69,0,14
1,64,0,8
1,45,0,37
1,66,80,1
1,59,0,23
1,68,0,0
1,57,0,15
1,66,0,22
1,64,80,0
1,52,0,45
1,61,80,15
1,45,80,0
1,69,80,0
1,52,80,60
1,69,0,44
1,61,0,16
1,57,80,0
1,64,0,8
1,61,80,52
1,69,80,0
1,61,0,8
1,69,0,7
1,71,80,45
1,71,0,60
1,69,80,0
1,68,80,60
1,69,0,8
1,68,0,52
1,69,80,0
1,52,0,8
1,69,0,7
1,45,0,0
1,57,0,23
1,62,80,22
1,45,80,0
1,71,80,0
1,66,80,0
1,52,80,60
1,57,80,60
1,71,0,7
1,66,0,7
1,62,0,8
1,71,80,38
1,66,80,0
1,62,80,0
1,57,0,23
1,57,80,37
1,62,0,14
1,71,0,31
1,66,0,7
1,62,80,8
1,62,0,38
1,52,0,7
1,57,0,0
1,45,0,7
1,66,80,8
1,71,80,0
1,71,0,30
1,66,0,8
1,47,80,82
1,54,80,60
1,59,80,60
1,59,0,53
1,69,80,7
1,62,80,0
1,66,80,60
1,59,80,0
1,62,0,15
1,69,0,0
1,66,0,45
1,69,80,60
1,64,80,0
1,59,0,30
1,64,0,15
1,69,0,8
1,59,80,7
1,59,0,8
1,54,0,0
1,47,0,7
1,37,80,45
1,61,80,1
1,64,80,0
1,71,80,0
1,68,80,0
1,44,80,59
1,49,80,60
1,68,0,15
1,71,0,0
1,64,0,0
1,61,0,7
1,71,80,38
1,64,80,0
1,61,80,0
1,68,80,0
1,49,0,15
1,61,0,29
1,49,80,16
1,71,0,15
1,68,0,7
1,64,0,23
1,61,80,15
1,71,80,60
1,64,80,0
1,68,80,0
1,61,0,1
1,49,0,7
1,44,0,45
1,64,0,0
1,37,0,6
1,71,0,1
1,68,0,0
1,50,80,60
1,66,80,0
1,57,80,60
1,66,0,29
1,62,80,31
1,69,80,0
1,69,0,8
1,76,80,52
1,66,80,0
1,62,0,8
1,66,0,7
1,57,0,38
1,81,80,5
1,62,80,2
1,73,80,60
1,76,0,53
1,50,0,6
1,57,80,1
1,73,0,15
1,62,0,15
1,69,80,30
1,50,80,60
1,57,0,8
1,81,0,7
1,57,80,45
1,81,80,3
1,69,0,42
1,62,80,15
1,62,0,60
1,69,80,0
1,66,80,0
1,71,80,60
1,66,0,1
1,57,0,0
1,57,80,59
1,62,80,0
1,69,0,45
1,71,0,0
1,57,0,8
1,62,0,0
1,73,80,7
1,66,80,0
1,50,0,7
1,66,0,16
1,73,0,15
1,81,0,66
1,45,80,16
1,69,80,0
1,73,80,0
1,76,80,0
1,52,80,60
1,57,80,60
1,76,0,7
1,69,0,8
1,73,0,8
1,69,80,37
1,69,0,15
1,69,80,45
1,74,80,0
1,76,80,0
1,76,0,1
1,73,80,59
1,74,0,7
1,69,0,38
1,73,0,15
1,71,80,0
1,57,0,23
1,71,0,22
