track,note,velocity,time
2,81,116,8046
2,81,0,44
2,81,113,244
2,81,0,44
2,83,112,52
2,83,0,44
2,81,113,148
2,81,0,44
2,80,114,148
2,80,0,44
2,78,108,52
2,78,0,44
2,76,108,52
2,76,0,44
2,78,108,148
2,78,0,44
2,81,112,340
2,81,0,44
2,81,112,244
2,81,0,44
2,83,113,52
2,83,0,44
2,81,114,148
2,81,0,44
2,80,114,148
2,80,0,44
2,78,110,52
2,78,0,44
2,76,108,52
2,76,0,44
2,74,108,148
2,74,0,44
2,81,114,342
2,81,0,42
2,81,113,244
2,81,0,44
2,83,112,52
2,83,0,44
2,81,113,148
2,81,0,44
2,80,114,150
2,80,0,40
2,78,108,54
2,78,0,44
2,76,108,52
2,76,0,44
2,78,110,150
2,78,0,42
2,81,112,342
2,81,0,42
2,81,112,244
2,81,0,44
2,83,113,52
2,83,0,44
2,81,114,148
2,81,0,44
2,80,114,150
2,80,0,42
2,78,110,52
2,78,0,44
2,76,108,52
2,76,0,44
2,74,110,150
2,74,0,42
2,73,102,12630
2,78,104,0
2,81,104,0
2,81,0,562
2,78,0,0
2,73,0,0
2,76,103,206
2,80,103,0
2,83,103,0
2,83,0,562
2,80,0,0
2,76,0,0
2,74,104,206
2,78,102,0
2,81,103,0
2,81,0,562
2,78,0,0
2,74,0,0
2,76,103,206
2,80,103,0
2,83,103,0
2,83,0,562
2,80,0,0
2,76,0,0
2,73,104,206
2,78,104,0
2,81,104,0
2,81,0,562
2,78,0,0
2,73,0,0
2,76,103,206
2,80,103,0
2,83,104,0
2,83,0,562
2,80,0,0
2,76,0,0
2,74,105,206
2,78,104,0
2,81,104,0
2,81,0,562
2,78,0,0
2,74,0,0
2,76,106,206
2,80,106,0
2,76,0,150
2,80,0,4
2,78,105,38
2,81,106,0
2,81,0,144
2,78,0,6
2,76,104,42
2,80,105,0
2,80,0,140
2,76,0,2
2,74,107,50
2,78,105,0
2,78,0,124
2,74,0,0
2,81,114,68
2,81,0,42
2,81,113,244
2,81,0,44
2,83,112,52
2,83,0,44
2,81,113,148
2,81,0,44
2,80,114,148
2,80,0,42
2,78,108,54
2,78,0,44
2,76,108,52
2,76,0,42
2,78,108,150
2,78,0,44
2,81,112,340
2,81,0,44
2,81,112,244
2,81,0,44
2,83,113,52
2,83,0,44
2,81,114,148
2,81,0,44
2,80,114,148
2,80,0,42
2,78,110,52
2,78,0,44
2,76,108,52
2,76,0,46
2,74,108,148
2,74,0,44
2,81,114,342
2,81,0,42
2,81,113,244
2,81,0,44
2,83,112,52
2,83,0,44
2,81,113,148
2,81,0,44
2,80,114,148
2,80,0,44
2,78,108,52
2,78,0,44
2,76,108,52
2,76,0,44
2,78,108,148
2,78,0,44
2,81,112,340
2,81,0,44
2,81,112,244
2,81,0,44
2,83,113,52
2,83,0,44
2,81,114,148
2,81,0,42
2,80,114,150
2,80,0,44
2,78,110,52
2,78,0,44
2,76,108,52
2,76,0,44
2,74,108,148
2,74,0,44
2,73,102,6484
2,78,104,2
2,81,104,0
2,81,0,562
2,78,0,0
2,73,0,0
2,76,103,204
2,80,103,0
2,83,103,2
2,83,0,562
2,80,0,0
2,76,0,0
2,74,104,204
2,78,102,2
2,81,103,0
2,81,0,562
2,78,0,0
2,74,0,0
2,76,103,204
2,80,103,0
2,83,103,2
2,83,0,562
2,80,0,0
2,76,0,0
2,73,104,204
2,78,104,0
2,81,104,2
2,81,0,562
2,78,0,0
2,73,0,0
2,76,103,204
2,80,103,0
2,83,104,2
2,83,0,562
2,80,0,0
2,76,0,0
2,74,105,204
2,78,104,2
2,81,104,0
2,81,0,562
2,78,0,0
2,74,0,0
2,76,106,204
2,80,106,0
2,76,0,152
2,80,0,2
2,78,105,38
2,81,106,0
2,81,0,146
2,78,0,6
2,76,104,40
2,80,105,0
2,80,0,142
2,76,0,2
2,74,107,48
2,78,105,0
2,78,0,126
2,74,0,0
2,81,114,68
2,81,0,42
2,81,113,244
2,81,0,44
2,83,112,52
2,83,0,42
2,81,113,150
2,81,0,44
2,80,114,150
2,80,0,42
2,78,108,52
2,78,0,44
2,76,108,52
2,76,0,44
2,78,108,150
2,78,0,42
2,81,112,342
2,81,0,42
2,81,112,244
2,81,0,44
2,83,113,52
2,83,0,42
2,81,114,150
2,81,0,44
2,80,114,150
2,80,0,40
2,78,110,54
2,78,0,44
2,76,108,52
2,76,0,44
2,74,108,150
2,74,0,42
2,81,114,342
2,81,0,42
2,81,113,244
2,81,0,44
2,83,112,52
2,83,0,44
2,81,113,148
2,81,0,44
2,80,114,150
2,80,0,40
2,78,108,54
2,78,0,44
2,76,108,52
2,76,0,44
2,78,108,150
2,78,0,42
2,81,112,342
2,81,0,42
2,81,112,244
2,81,0,44
2,83,113,52
2,83,0,44
2,81,114,148
2,81,0,44
2,80,114,148
2,80,0,44
2,78,110,52
2,78,0,44
2,76,108,52
2,76,0,44
2,74,108,148
2,74,0,44
2,73,102,13396
2,78,104,0
2,81,104,2
2,81,0,562
2,78,0,0
2,73,0,0
2,76,103,204
2,80,103,0
2,83,103,2
2,83,0,562
2,80,0,0
2,76,0,0
2,74,104,206
2,78,102,0
2,81,103,0
2,81,0,562
2,78,0,0
2,74,0,0
2,76,103,204
2,80,103,2
2,83,103,0
2,83,0,562
2,80,0,0
2,76,0,0
2,73,104,204
2,78,104,0
2,81,104,2
2,81,0,562
2,78,0,0
2,73,0,0
2,76,103,204
2,80,103,0
2,83,104,2
2,83,0,562
2,80,0,0
2,76,0,0
2,74,105,206
2,78,104,0
2,81,104,0
2,81,0,562
2,78,0,0
2,74,0,0
2,76,106,204
2,80,106,2
2,76,0,150
2,80,0,4
2,78,105,36
2,81,106,0
2,81,0,146
2,78,0,6
2,76,104,40
2,80,105,0
2,80,0,142
2,76,0,2
2,74,107,48
2,78,105,0
2,78,0,126
2,74,0,0
2,81,114,70
2,81,0,40
2,81,113,244
2,81,0,44
2,83,112,52
2,83,0,44
2,81,113,148
2,81,0,44
2,80,114,150
2,80,0,42
2,78,108,52
2,78,0,44
2,76,108,52
2,76,0,44
2,78,108,150
2,78,0,42
2,81,112,342
2,81,0,40
2,81,112,246
2,81,0,44
2,83,113,52
2,83,0,44
2,81,114,148
2,81,0,42
2,80,114,152
2,80,0,42
2,78,110,52
2,78,0,44
2,76,108,52
2,76,0,44
2,74,108,150
2,74,0,42
2,81,114,342
2,81,0,42
2,81,113,244
2,81,0,44
2,83,112,52
2,83,0,42
2,81,113,150
2,81,0,44
2,80,114,150
2,80,0,42
2,78,108,52
2,78,0,42
2,76,108,54
2,76,0,44
2,78,108,150
2,78,0,40
2,81,112,344
2,81,0,42
2,81,112,244
2,81,0,42
2,83,113,54
2,83,0,44
2,81,114,148
2,81,0,44
2,80,114,150
2,80,0,42
2,78,110,52
2,78,0,44
2,76,108,52
2,76,0,42
2,74,108,152
2,74,0,42
2,81,114,342
2,81,0,42
2,81,113,244
2,81,0,42
2,83,112,54
2,83,0,44
2,81,113,148
2,81,0,44
2,80,114,150
2,80,0,42
2,78,108,52
2,78,0,44
2,76,108,52
2,76,0,44
2,78,108,150
2,78,0,42
2,81,112,342
2,81,0,42
2,81,112,92
2,81,0,44
2,83,113,52
2,83,0,36
2,81,114,150
2,81,0,38
2,80,114,150
2,80,0,38
2,78,110,52
2,78,0,44
2,76,108,52
2,76,0,40
2,74,108,150
2,74,0,38
2,81,114,188
2,81,0,32
2,81,113,92
2,81,0,42
2,83,112,54
2,83,0,40
2,81,113,148
2,81,0,38
2,80,114,150
2,80,0,34
2,78,108,54
2,78,0,44
2,76,108,52
2,76,0,36
2,78,108,152
2,78,0,36
2,81,112,188
2,81,0,34
2,81,112,92
2,81,0,44
2,83,113,52
2,83,0,36
2,81,114,150
2,81,0,38
2,80,114,150
2,80,0,38
2,78,110,52
2,78,0,44
2,76,108,52
2,76,0,38
2,74,108,152
2,74,0,38
2,81,114,186
2,81,0,34
2,81,113,92
2,81,0,44
2,83,112,52
2,83,0,40
2,81,113,148
2,81,0,36
2,80,114,150
2,80,0,36
2,78,108,52
2,78,0,44
2,76,108,52
2,76,0,36
2,78,108,150
2,78,0,36
2,81,112,186
2,81,0,34
2,81,112,92
2,81,0,44
2,83,113,52
2,83,0,40
2,81,114,148
2,81,0,38
2,80,114,148
2,80,0,38
2,78,106,52
2,78,0,44
2,76,97,52
2,76,0,42
3,81,114,8058
3,81,0,42
3,81,113,246
3,81,0,42
3,83,113,54
3,83,0,42
3,81,113,150
3,81,0,42
3,80,113,150
3,80,0,42
3,78,104,54
3,78,0,42
3,76,104,54
3,76,0,42
3,78,108,150
3,78,0,42
3,81,113,342
3,81,0,42
3,81,110,246
3,81,0,42
3,83,110,54
3,83,0,42
3,81,109,150
3,81,0,42
3,80,114,150
3,80,0,42
3,78,107,54
3,78,0,42
3,76,104,54
3,76,0,42
3,74,109,150
3,74,0,42
3,81,114,342
3,81,0,42
3,81,113,246
3,81,0,42
3,83,113,54
3,83,0,42
3,81,113,150
3,81,0,42
3,80,113,150
3,80,0,42
3,78,104,54
3,78,0,42
3,76,104,54
3,76,0,42
3,78,108,150
3,78,0,42
3,81,113,342
3,81,0,42
3,81,110,246
3,81,0,42
3,83,110,54
3,83,0,42
3,81,109,150
3,81,0,42
3,80,114,150
3,80,0,42
3,78,107,54
3,78,0,42
3,76,104,54
3,76,0,42
3,74,109,150
3,74,0,42
3,81,114,18774
3,81,0,42
3,81,113,246
3,81,0,42
3,83,113,54
3,83,0,42
3,81,113,150
3,81,0,42
3,80,113,150
3,80,0,42
3,78,104,54
3,78,0,42
3,76,104,54
3,76,0,42
3,78,108,150
3,78,0,42
3,81,113,342
3,81,0,42
3,81,110,246
3,81,0,42
3,83,110,54
3,83,0,42
3,81,109,150
3,81,0,40
3,80,114,148
3,80,0,44
3,78,107,52
3,78,0,46
3,76,104,54
3,76,0,42
3,74,109,150
3,74,0,42
3,81,114,342
3,81,0,42
3,81,113,246
3,81,0,42
3,83,113,54
3,83,0,42
3,81,113,150
3,81,0,42
3,80,113,150
3,80,0,42
3,78,104,54
3,78,0,42
3,76,104,54
3,76,0,42
3,78,108,150
3,78,0,42
3,81,113,342
3,81,0,42
3,81,110,246
3,81,0,42
3,83,110,54
3,83,0,42
3,81,109,150
3,81,0,42
3,80,114,150
3,80,0,42
3,78,107,54
3,78,0,42
3,76,104,54
3,76,0,42
3,74,109,150
3,74,0,42
3,81,114,12630
3,81,0,42
3,81,113,246
3,81,0,42
3,83,113,54
3,83,0,42
3,81,113,150
3,81,0,42
3,80,113,150
3,80,0,42
3,78,104,54
3,78,0,42
3,76,104,54
3,76,0,42
3,78,108,150
3,78,0,42
3,81,113,342
3,81,0,42
3,81,110,246
3,81,0,42
3,83,110,54
3,83,0,42
3,81,109,150
3,81,0,42
3,80,114,150
3,80,0,42
3,78,107,54
3,78,0,42
3,76,104,54
3,76,0,42
3,74,109,150
3,74,0,42
3,81,114,342
3,81,0,42
3,81,113,246
3,81,0,42
3,83,113,54
3,83,0,42
3,81,113,150
3,81,0,42
3,80,113,150
3,80,0,42
3,78,104,54
3,78,0,42
3,76,104,54
3,76,0,42
3,78,108,150
3,78,0,42
3,81,113,342
3,81,0,42
3,81,110,246
3,81,0,42
3,83,110,54
3,83,0,42
3,81,109,150
3,81,0,42
3,80,114,150
3,80,0,42
3,78,107,54
3,78,0,42
3,76,104,54
3,76,0,42
3,74,109,150
3,74,0,42
3,81,114,19542
3,81,0,42
3,81,113,246
3,81,0,42
3,83,113,54
3,83,0,42
3,81,113,150
3,81,0,42
3,80,113,150
3,80,0,42
3,78,104,54
3,78,0,42
3,76,104,54
3,76,0,42
3,78,108,150
3,78,0,42
3,81,113,342
3,81,0,42
3,81,110,246
3,81,0,42
3,83,110,54
3,83,0,42
3,81,109,150
3,81,0,42
3,80,114,150
3,80,0,42
3,78,107,54
3,78,0,42
3,76,104,54
3,76,0,42
3,74,109,150
3,74,0,42
3,81,114,342
3,81,0,42
3,81,113,246
3,81,0,42
3,83,113,54
3,83,0,42
3,81,113,150
3,81,0,42
3,80,113,150
3,80,0,42
3,78,104,54
3,78,0,42
3,76,104,54
3,76,0,42
3,78,108,150
3,78,0,42
3,81,113,342
3,81,0,42
3,81,110,246
3,81,0,42
3,83,110,54
3,83,0,42
3,81,109,150
3,81,0,42
3,80,114,150
3,80,0,42
3,78,107,54
3,78,0,42
3,76,104,54
3,76,0,42
3,74,109,150
3,74,0,42
3,81,114,340
3,81,0,44
3,81,113,246
3,81,0,42
3,83,113,54
3,83,0,42
3,81,113,150
3,81,0,42
3,80,113,150
3,80,0,42
3,78,104,54
3,78,0,42
3,76,104,54
3,76,0,42
3,78,108,150
3,78,0,42
3,81,114,342
3,81,0,42
3,81,113,6
3,81,0,42
3,83,113,54
3,83,0,42
3,81,113,102
3,81,0,42
3,80,113,100
3,80,0,42
3,78,104,6
3,78,0,42
3,76,104,54
3,76,0,42
3,78,108,100
3,78,0,42
3,81,113,100
3,81,0,42
3,81,110,6
3,81,0,42
3,83,110,54
3,83,0,42
3,81,109,102
3,81,0,42
3,80,114,100
3,80,0,42
3,78,107,6
3,78,0,42
3,76,104,54
3,76,0,42
3,74,109,100
3,74,0,42
3,81,114,100
3,81,0,42
3,81,113,6
3,81,0,42
3,83,113,54
3,83,0,42
3,81,113,102
3,81,0,42
3,80,113,100
3,80,0,42
3,78,104,6
3,78,0,42
3,76,104,54
3,76,0,42
3,78,108,100
3,78,0,42
3,81,113,100
3,81,0,42
3,81,110,8
3,81,0,40
3,83,110,54
3,83,0,42
3,81,109,102
3,81,0,42
3,80,114,98
3,80,0,44
3,78,107,6
3,78,0,42
3,76,104,54
3,76,0,42
3,74,109,100
3,74,0,42
3,81,114,100
3,81,0,42
3,81,113,6
3,81,0,42
3,83,113,54
3,83,0,42
3,81,113,102
3,81,0,42
3,80,113,100
3,80,0,42
3,78,104,54
3,78,0,42
3,76,104,8
3,76,0,42
3,78,108,8
3,78,0,42
4,42,118,8028
4,42,0,230
4,42,117,58
4,42,0,86
4,42,117,10
4,42,0,184
4,37,117,8
4,37,0,46
4,40,117,2
4,40,0,48
4,42,116,0
4,42,0,92
4,40,118,4
4,40,0,236
4,40,117,52
4,47,117,96
4,40,0,14
4,47,0,178
4,45,117,0
4,45,0,92
4,44,117,4
4,44,0,92
4,42,118,4
4,42,0,230
4,42,117,58
4,42,0,86
4,42,117,10
4,42,0,184
4,37,117,8
4,37,0,46
4,40,117,2
4,40,0,48
4,42,116,0
4,42,0,92
4,40,118,4
4,40,0,244
4,40,117,44
4,47,118,96
4,40,0,8
4,47,0,182
4,47,117,2
4,47,0,182
4,42,118,12
4,42,0,228
4,42,117,58
4,42,0,86
4,42,117,10
4,42,0,184
4,37,117,8
4,37,0,46
4,40,117,2
4,40,0,48
4,42,116,0
4,42,0,92
4,40,118,6
4,40,0,234
4,40,117,52
4,47,117,98
4,40,0,12
4,47,0,178
4,45,117,0
4,45,0,92
4,44,117,4
4,44,0,92
4,42,118,6
4,42,0,228
4,42,117,58
4,42,0,86
4,42,117,10
4,42,0,184
4,37,117,8
4,37,0,46
4,40,117,2
4,40,0,48
4,42,116,0
4,42,0,92
4,40,118,6
4,40,0,242
4,40,117,44
4,47,118,98
4,40,0,6
4,47,0,182
4,47,117,2
4,47,0,182
4,42,118,10
4,42,0,240
4,42,117,48
4,42,0,72
4,42,117,24
4,42,0,344
4,40,117,40
4,40,0,246
4,40,117,42
4,40,0,64
4,47,117,32
4,47,0,354
4,42,118,30
4,42,0,260
4,42,117,28
4,42,0,52
4,42,117,44
4,42,0,350
4,40,118,34
4,40,0,456
4,45,118,24
4,44,116,96
4,45,0,2
4,44,0,86
4,40,117,8
4,40,0,84
4,42,117,12
4,42,0,240
4,42,117,48
4,42,0,64
4,42,117,32
4,42,0,328
4,40,117,56
4,40,0,222
4,40,117,66
4,40,0,84
4,47,116,12
4,47,0,376
4,42,116,8
4,42,0,226
