track,note,velocity,time
1,33,117,190
1,36,124,0
1,42,102,0
1,49,105,0
1,64,124,0
1,57,113,1
1,60,114,0
1,57,117,0
1,72,119,0
1,84,119,0
1,64,0,0
1,42,0,0
1,36,0,0
1,42,102,47
1,60,107,1
1,42,0,0
1,38,124,47
1,42,102,0
1,64,113,1
1,42,0,0
1,38,0,0
1,60,0,0
1,49,0,18
1,72,0,6
1,84,0,0
1,33,0,19
1,33,116,4
1,36,124,0
1,42,102,0
1,51,105,0
1,63,124,0
1,60,112,1
1,72,119,0
1,84,119,0
1,63,0,0
1,42,0,0
1,36,0,0
1,64,0,0
1,33,0,35
1,33,115,12
1,36,124,0
1,42,102,0
1,64,124,0
1,69,115,1
1,74,119,0
1,86,119,0
1,64,0,0
1,42,0,0
1,36,0,0
1,72,0,0
1,84,0,0
1,60,0,4
1,42,102,43
1,64,111,1
1,42,0,0
1,69,0,0
1,57,0,39
1,38,124,8
1,42,102,0
1,60,112,1
1,72,119,0
1,84,119,0
1,42,0,0
1,38,0,0
1,74,0,4
1,86,0,0
1,51,0,11
1,33,0,20
1,64,0,9
1,33,117,3
1,42,102,0
1,51,105,0
1,57,111,1
1,42,0,0
1,60,0,0
1,33,0,31
1,31,120,16
1,36,124,0
1,42,102,0
1,64,124,0
1,55,112,1
1,59,114,0
1,55,110,0
1,71,119,0
1,83,119,0
1,64,0,0
1,42,0,0
1,60,0,0
1,36,0,0
1,57,0,0
1,57,0,4
1,72,0,0
1,84,0,0
1,71,0,36
1,83,0,0
1,42,102,7
1,62,111,1
1,69,119,0
1,81,119,0
1,42,0,0
1,62,0,44
1,38,124,3
1,42,102,0
1,67,114,1
1,67,119,0
1,79,119,0
1,42,0,0
1,38,0,0
1,81,0,8
1,69,0,0
1,51,0,14
1,31,0,1
1,31,121,24
1,36,124,0
1,42,102,0
1,51,105,0
1,63,124,0
1,63,0,1
1,42,0,0
1,36,0,0
1,31,0,39
1,55,0,5
1,59,0,0
1,38,121,3
1,36,124,0
1,42,102,0
1,64,124,0
1,53,113,1
1,57,115,0
1,50,117,0
1,69,119,0
1,81,119,0
1,64,0,0
1,42,0,0
1,36,0,0
1,55,0,4
1,67,0,0
1,79,0,0
1,67,0,36
1,42,102,7
1,64,124,0
1,69,114,1
1,64,0,0
1,42,0,0
1,38,0,31
1,36,120,16
1,38,124,0
1,42,102,0
1,63,124,0
1,65,112,1
1,63,0,0
1,42,0,0
1,38,0,0
1,69,0,4
1,51,0,7
1,36,0,24
1,35,117,12
1,46,102,0
1,51,105,0
1,75,124,0
1,62,115,1
1,75,0,0
1,46,0,0
1,65,0,8
1,35,0,31
1,33,120,8
1,36,124,0
1,42,102,0
1,64,124,0
1,60,112,1
1,57,115,0
1,72,119,0
1,84,119,0
1,64,0,0
1,42,0,0
1,36,0,0
1,53,0,4
1,69,0,0
1,81,0,0
1,62,0,4
1,50,0,0
1,42,102,39
1,60,110,1
1,42,0,0
1,60,0,44
1,38,124,3
1,42,102,0
1,64,112,1
1,42,0,0
1,38,0,0
1,51,0,19
1,33,0,8
1,72,0,1
1,84,0,0
1,33,120,19
1,36,124,0
1,42,102,0
1,51,105,0
1,63,124,0
1,60,105,1
1,72,119,0
1,84,119,0
1,63,0,0
1,42,0,0
1,36,0,0
1,64,0,0
1,33,0,31
1,33,122,16
1,36,124,0
1,42,102,0
1,64,124,0
1,69,112,1
1,74,119,0
1,86,119,0
1,64,0,0
1,42,0,0
1,36,0,0
1,60,0,0
1,84,0,4
1,72,0,0
1,42,102,43
1,64,112,1
1,42,0,0
1,69,0,0
1,57,0,44
1,38,124,3
1,42,102,0
1,60,112,1
1,72,119,0
1,84,119,0
1,42,0,0
1,38,0,0
1,74,0,0
1,86,0,0
1,64,0,12
1,51,0,4
1,33,0,15
1,33,122,16
1,42,102,0
1,51,105,0
1,57,112,1
1,42,0,0
1,60,0,0
1,33,0,39
1,31,121,8
1,36,124,0
1,42,102,0
1,64,124,0
1,55,114,1
1,59,114,0
1,55,114,0
1,71,119,0
1,83,119,0
1,64,0,0
1,42,0,0
1,36,0,0
1,57,0,4
1,60,0,0
1,84,0,0
1,72,0,0
1,57,0,8
1,71,0,32
1,83,0,0
1,42,102,3
1,62,114,1
1,69,119,0
1,81,119,0
1,42,0,0
1,38,124,47
1,42,102,0
1,67,111,1
1,67,119,0
1,79,119,0
1,42,0,0
1,38,0,0
1,62,0,0
1,81,0,4
1,69,0,0
1,51,0,8
1,31,0,11
1,31,119,24
1,36,124,0
1,42,102,0
1,51,105,0
1,63,124,0
1,63,0,1
1,42,0,0
1,36,0,0
1,31,0,39
1,38,121,8
1,36,124,0
1,42,102,0
1,64,124,0
1,53,116,1
1,57,116,0
1,50,117,0
1,65,119,0
1,77,119,0
1,64,0,0
1,42,0,0
1,36,0,0
1,55,0,4
1,79,0,0
1,55,0,0
1,59,0,0
1,67,0,0
1,67,0,40
1,42,102,3
1,64,124,0
1,69,112,1
1,64,0,0
1,42,0,0
1,38,124,47
1,42,102,0
1,63,124,0
1,65,111,1
1,63,0,0
1,42,0,0
1,38,0,0
1,69,0,4
1,51,0,6
1,65,0,34
1,42,102,3
1,51,105,0
1,75,124,0
1,62,112,1
1,75,0,0
1,42,0,0
1,38,0,43
1,53,0,1
1,77,0,0
1,65,0,0
1,33,121,3
1,36,124,0
1,42,102,0
1,49,105,0
1,64,124,0
1,60,116,1
1,57,113,0
1,72,119,0
1,84,119,0
1,64,0,0
1,42,0,0
1,36,0,0
1,51,0,2
1,50,0,2
1,62,0,0
1,42,102,43
1,60,109,1
1,42,0,0
1,38,124,47
1,42,102,0
1,64,109,1
1,42,0,0
1,38,0,0
1,60,0,0
1,49,0,16
1,72,0,8
1,84,0,0
1,33,0,7
1,64,0,13
1,33,121,3
1,36,124,0
1,42,102,0
1,51,105,0
1,63,124,0
1,60,104,1
1,72,119,0
1,84,119,0
1,63,0,0
1,42,0,0
1,36,0,0
1,33,0,31
1,33,120,16
1,36,124,0
1,42,102,0
1,64,124,0
1,69,110,1
1,74,119,0
1,86,119,0
1,64,0,0
1,42,0,0
1,72,0,0
1,36,0,0
1,84,0,0
1,60,0,0
1,42,102,47
1,64,110,1
1,42,0,0
1,69,0,0
1,38,124,47
1,42,102,0
1,60,112,1
1,72,119,0
1,84,119,0
1,42,0,0
1,38,0,0
1,57,0,0
1,74,0,4
1,86,0,0
1,64,0,8
1,51,0,2
1,33,0,13
1,33,121,20
1,42,102,0
1,51,105,0
1,57,109,1
1,42,0,0
1,60,0,0
1,33,0,39
1,60,0,5
1,57,0,0
1,31,123,3
1,36,124,0
1,42,102,0
1,64,124,0
1,55,110,1
1,59,114,0
1,55,113,0
1,71,119,0
1,83,119,0
1,64,0,0
1,42,0,0
1,36,0,0
1,84,0,4
1,57,0,0
1,72,0,0
1,71,0,36
1,83,0,0
1,42,102,7
1,62,109,1
1,69,119,0
1,81,119,0
1,42,0,0
1,62,0,44
1,38,124,3
1,42,102,0
1,67,112,1
1,67,119,0
1,79,119,0
1,42,0,0
1,38,0,0
1,81,0,8
1,69,0,0
1,51,0,3
1,31,0,16
1,31,119,20
1,36,124,0
1,42,102,0
1,51,105,0
1,63,124,0
1,63,0,1
1,42,0,0
1,36,0,0
1,31,0,39
1,38,121,8
1,36,124,0
1,42,102,0
1,64,124,0
1,53,115,1
1,57,113,0
1,50,117,0
1,69,119,0
1,81,119,0
1,64,0,0
1,42,0,0
1,36,0,0
1,59,0,4
1,67,0,0
1,55,0,0
1,55,0,0
1,79,0,0
1,67,0,40
1,42,102,3
1,64,124,0
1,69,112,1
1,64,0,0
1,42,0,0
1,38,0,27
1,36,121,20
1,38,124,0
1,42,102,0
1,63,124,0
1,65,111,1
1,63,0,0
1,42,0,0
1,38,0,0
1,69,0,8
1,51,0,16
1,36,0,7
1,65,0,13
1,35,118,3
1,46,102,0
1,51,105,0
1,75,124,0
1,62,112,1
1,75,0,0
1,46,0,0
1,35,0,43
1,33,121,4
1,36,124,0
1,42,102,0
1,64,124,0
1,60,113,1
1,57,111,0
1,72,119,0
1,84,119,0
1,64,0,0
1,42,0,0
1,36,0,0
1,53,0,0
1,81,0,4
1,69,0,0
1,62,0,0
1,50,0,0
1,42,102,43
1,60,110,1
1,42,0,0
1,60,0,44
1,38,124,3
1,42,102,0
1,64,110,1
1,42,0,0
1,38,0,0
1,51,0,20
1,72,0,8
1,84,0,0
1,33,0,3
1,64,0,13
1,33,121,3
1,36,124,0
1,42,102,0
1,51,105,0
1,63,124,0
1,60,107,1
1,72,119,0
1,84,119,0
1,63,0,0
1,42,0,0
1,36,0,0
1,33,0,35
1,60,0,9
1,33,121,3
1,36,124,0
1,42,102,0
1,64,124,0
1,69,111,1
1,74,119,0
1,86,119,0
1,64,0,0
1,42,0,0
1,36,0,0
1,72,0,4
1,84,0,0
1,42,102,43
1,64,112,1
1,42,0,0
1,69,0,0
1,38,124,47
1,42,102,0
1,60,112,1
1,72,119,0
1,84,119,0
1,42,0,0
1,38,0,0
1,57,0,0
1,86,0,0
1,74,0,0
1,64,0,8
1,51,0,7
1,33,0,12
1,33,117,20
1,42,102,0
1,51,105,0
1,57,108,1
1,42,0,0
1,60,0,0
1,33,0,31
1,60,0,13
1,31,123,3
1,36,124,0
1,42,102,0
1,64,124,0
1,55,111,1
1,59,114,0
1,55,110,0
1,71,119,0
1,83,119,0
1,64,0,0
1,42,0,0
1,36,0,0
1,57,0,0
1,57,0,4
1,72,0,0
1,84,0,0
1,83,0,40
1,71,0,0
1,42,102,3
1,62,108,1
1,69,119,0
1,81,119,0
1,42,0,0
1,38,124,47
1,42,102,0
1,67,115,1
1,67,119,0
1,79,119,0
1,42,0,0
1,38,0,0
1,62,0,0
1,81,0,4
1,69,0,0
1,51,0,16
1,31,0,3
1,31,121,24
1,36,124,0
1,42,102,0
1,51,105,0
1,63,124,0
1,63,0,1
1,42,0,0
1,36,0,0
1,31,0,31
1,38,121,16
1,36,124,0
1,42,102,0
1,64,124,0
1,53,113,1
1,57,113,0
1,50,117,0
1,65,119,0
1,77,119,0
1,64,0,0
1,42,0,0
1,36,0,0
1,79,0,4
1,67,0,0
1,59,0,4
1,55,0,0
1,55,0,0
1,67,0,36
1,42,102,3
1,64,124,0
1,69,112,1
1,64,0,0
1,42,0,0
1,38,124,47
1,42,102,0
1,63,124,0
1,65,105,1
1,63,0,0
1,42,0,0
1,38,0,0
1,69,0,4
1,51,0,8
1,65,0,32
1,46,102,3
1,51,105,0
1,75,124,0
1,62,113,1
1,75,0,0
1,46,0,0
1,38,0,39
1,53,0,5
1,77,0,0
1,65,0,0
1,50,0,0
1,33,123,3
1,36,124,0
1,42,102,0
1,49,105,0
1,64,124,0
1,60,112,1
1,57,113,0
1,64,0,0
1,42,0,0
1,62,0,0
1,36,0,0
1,51,0,2
1,42,102,45
1,64,127,1
1,42,0,0
1,64,0,44
1,65,124,3
1,37,124,0
1,42,102,0
1,42,0,1
1,37,0,0
1,33,0,11
1,49,0,13
1,33,121,23
1,36,124,0
1,42,102,0
1,51,105,0
1,63,124,0
1,65,0,0
1,67,125,1
1,64,110,0
1,63,0,0
1,42,0,0
1,36,0,0
1,33,0,15
1,64,0,29
1,33,117,3
1,65,105,0
1,36,124,0
1,42,102,0
1,64,124,0
1,64,0,1
1,42,0,0
1,36,0,0
1,67,0,40
1,65,125,5
1,42,102,2
1,65,0,0
1,64,106,1
1,67,106,0
1,42,0,0
1,65,0,41
1,64,0,3
1,65,100,3
1,37,124,0
1,42,102,0
1,64,123,1
1,42,0,0
1,37,0,0
1,51,0,15
1,33,0,12
1,67,0,13
1,64,0,4
1,65,106,1
1,33,118,2
1,42,102,0
1,51,105,0
1,65,0,0
1,62,126,1
1,67,101,0
1,42,0,0
1,33,0,19
1,65,0,22
1,31,121,6
1,36,124,0
1,42,102,0
1,64,124,0
1,55,112,1
1,59,114,0
1,64,103,0
1,64,0,0
1,42,0,0
1,57,0,0
1,60,0,0
1,36,0,0
1,57,0,4
1,67,0,36
1,62,0,4
1,64,0,0
1,65,101,1
1,60,126,1
1,42,102,1
1,62,109,1
1,42,0,0
1,65,0,41
1,60,0,5
1,37,124,1
1,42,102,0
1,64,97,1
1,42,0,0
1,37,0,0
1,59,125,3
1,51,0,11
1,31,0,17
1,64,0,13
1,62,0,0
1,60,108,2
1,31,120,1
1,36,124,0
1,42,102,0
1,51,105,0
1,63,124,0
1,62,104,1
1,63,0,0
1,42,0,0
1,36,0,0
1,59,0,3
1,57,125,2
1,31,0,18
1,60,0,23
1,26,122,1
1,36,124,0
1,42,102,0
1,64,124,0
1,53,113,1
1,57,113,0
1,64,0,0
1,42,0,0
1,36,0,0
1,59,106,3
1,55,0,1
1,59,0,0
1,62,0,40
1,60,103,2
1,42,102,1
1,64,124,0
1,64,0,1
1,42,0,0
1,59,0,3
1,57,106,2
1,60,0,41
1,37,124,1
1,42,102,0
1,63,124,0
1,63,0,1
1,42,0,0
1,37,0,0
1,59,101,3
1,51,0,16
1,57,0,6
1,42,102,22
1,51,105,0
1,75,124,0
1,75,0,1
1,42,0,0
1,59,0,3
1,57,101,2
1,33,122,42
1,36,124,0
1,42,102,0
1,64,124,0
1,60,113,1
1,64,0,0
1,42,0,0
1,53,0,0
1,36,0,0
1,26,0,3
1,57,0,22
1,42,102,22
1,42,0,1
1,64,127,2
1,37,124,45
1,42,102,0
1,42,0,1
1,37,0,0
1,65,125,6
1,64,0,0
1,33,0,13
1,51,0,5
1,57,0,1
1,33,121,22
1,36,124,0
1,42,102,0
1,51,105,0
1,63,124,0
1,63,0,1
1,42,0,0
1,36,0,0
1,64,113,2
1,65,0,0
1,67,125,4
1,33,0,5
1,33,119,36
1,36,124,0
1,42,102,0
1,64,124,0
1,64,0,1
1,42,0,0
1,36,0,0
1,65,107,6
1,64,0,0
1,65,124,41
1,42,102,0
1,42,0,1
1,64,109,2
1,67,0,0
1,65,0,0
1,67,106,4
1,64,125,41
1,37,124,0
1,42,102,0
1,65,0,0
1,42,0,1
1,37,0,0
1,65,102,6
1,64,0,0
1,51,0,10
1,33,0,7
1,33,120,24
1,65,104,0
1,42,102,0
1,51,105,0
1,42,0,1
1,65,0,2
1,67,0,0
1,64,0,1
1,62,125,1
1,67,101,2
1,33,0,17
1,60,0,21
1,31,121,3
1,64,106,0
1,36,124,0
1,42,102,0
1,64,124,0
1,65,0,0
1,55,113,1
1,59,114,0
1,64,0,0
1,36,0,0
1,42,0,0
1,57,0,4
1,62,0,28
1,67,126,14
1,65,98,1
1,42,102,0
1,42,0,1
1,67,0,2
1,64,0,1
1,62,107,1
1,64,101,43
1,37,124,0
1,42,102,0
1,65,0,0
1,42,0,1
1,37,0,0
1,51,0,15
1,62,0,17
1,67,108,14
1,36,124,1
1,42,102,0
1,51,105,0
1,63,124,0
1,63,0,1
1,42,0,0
1,36,0,0
1,64,0,3
1,62,102,1
1,36,124,43
1,42,102,0
1,64,124,0
1,64,0,1
1,42,0,0
1,36,0,0
1,31,0,31
1,62,0,1
1,67,104,14
1,36,122,1
1,42,102,0
1,64,124,0
1,64,0,1
1,42,0,0
1,67,0,6
1,35,116,41
1,37,124,0
1,42,102,0
1,63,124,0
1,36,0,0
1,63,0,1
1,37,0,0
1,42,0,0
1,51,0,21
1,35,0,22
1,31,120,4
1,46,102,0
1,51,105,0
1,75,124,0
1,75,0,1
1,46,0,0
1,67,0,6
1,33,119,41
1,36,124,0
1,42,102,0
1,64,124,0
1,57,116,1
1,60,113,0
1,64,0,0
1,42,0,0
1,36,0,0
1,55,0,0
1,31,0,3
1,64,127,1
1,59,0,0
1,64,0,36
1,42,102,7
1,42,0,1
1,64,127,2
1,67,0,4
1,64,0,28
1,37,124,13
1,42,102,0
1,42,0,1
1,37,0,0
1,64,126,2
1,64,111,2
1,51,0,15
1,33,0,4
1,64,0,17
1,64,0,2
1,33,121,5
1,36,124,0
1,42,102,0
1,51,105,0
