track,note,velocity,time
0,62,96,2608
0,66,55,8
0,35,79,12
0,69,31,2
0,48,66,2
0,54,81,2
0,57,81,0
0,60,90,0
0,62,81,0
0,66,95,0
0,69,36,76
0,69,36,76
0,69,31,76
0,69,46,76
0,62,95,2
0,69,36,76
0,35,79,74
0,69,31,0
0,48,66,2
0,69,36,76
0,35,93,74
0,69,43,0
0,48,66,0
0,57,95,2
0,69,36,76
0,69,31,76
0,69,31,76
0,69,46,0
0,48,66,0
0,54,95,2
0,69,36,76
0,69,31,76
0,69,31,76
0,64,55,2
0,35,89,14
0,69,41,0
0,48,66,0
0,52,95,2
0,52,81,0
0,55,81,0
0,62,81,0
0,69,36,76
0,64,81,2
0,69,31,76
0,60,81,2
0,69,31,76
0,69,46,76
0,55,95,2
0,69,36,76
0,35,79,74
0,69,31,0
0,48,66,2
0,69,36,76
0,35,93,74
0,69,43,0
0,48,66,0
0,60,95,2
0,69,36,76
0,79,57,60
0,69,31,16
0,79,112,4
0,69,31,76
0,69,46,0
0,48,66,0
0,64,95,2
0,67,100,0
0,69,36,76
0,69,31,76
0,60,100,4
0,69,31,76
0,66,55,2
0,35,89,14
0,69,41,0
0,48,66,0
0,66,95,2
0,54,81,0
0,57,81,0
0,62,81,0
0,69,36,76
0,69,31,76
0,69,31,76
0,69,46,76
0,62,95,2
0,69,36,76
0,35,79,74
0,69,31,0
0,48,66,2
0,69,36,76
0,35,93,74
0,69,43,0
0,48,66,0
0,57,95,2
0,69,36,76
0,69,31,76
0,69,31,76
0,69,46,0
0,48,66,0
0,54,95,2
0,69,36,76
0,69,31,76
0,69,31,76
0,64,55,2
0,67,55,0
0,35,89,14
0,69,41,0
0,48,66,0
0,52,95,2
0,52,85,0
0,55,81,0
0,60,81,0
0,62,81,0
0,69,36,76
0,69,31,76
0,69,31,76
0,69,46,76
0,55,95,2
0,69,36,76
0,35,79,74
0,69,31,0
0,48,66,2
0,69,36,76
0,35,93,74
0,69,43,0
0,48,66,0
0,60,95,2
0,69,36,4
0,62,81,4
0,69,31,76
0,67,84,2
0,69,31,76
0,69,89,2
0,79,57,60
0,69,46,0
0,48,66,0
0,64,95,2
0,74,98,0
0,69,36,76
0,79,111,2
0,69,31,76
0,74,98,2
0,69,31,76
0,79,100,2
0,78,56,2
0,35,89,14
0,69,41,0
0,48,66,0
0,54,81,2
0,57,81,0
0,66,95,0
0,69,81,0
0,78,98,0
0,69,36,76
0,69,31,76
0,69,31,76
0,69,46,76
0,62,95,2
0,62,69,0
0,69,36,76
0,35,79,74
0,69,31,0
0,48,66,2
0,69,36,76
0,35,93,74
0,69,43,0
0,48,66,0
0,57,95,2
0,57,68,0
0,69,36,76
0,69,31,76
0,69,31,76
0,74,57,2
0,69,46,0
0,48,66,0
0,54,95,2
0,54,67,0
0,57,81,0
0,62,81,0
0,69,36,76
0,69,31,76
0,69,31,76
0,72,55,2
0,35,89,2
0,69,41,0
0,48,66,0
0,52,95,2
0,52,81,0
0,55,81,0
0,62,81,0
0,69,36,76
0,64,81,2
0,69,31,76
0,60,81,2
0,69,31,76
0,69,46,76
0,55,95,2
0,62,97,0
0,69,36,76
0,35,79,74
0,69,31,0
0,48,66,2
0,69,36,76
0,62,81,4
0,35,93,74
0,69,43,0
0,48,66,0
0,60,95,2
0,62,81,0
0,69,36,76
0,64,81,2
0,69,31,76
0,67,81,2
0,69,31,76
0,69,89,2
0,79,57,60
0,69,46,0
0,48,66,0
0,64,95,2
0,72,100,0
0,69,36,76
0,74,101,2
0,69,31,76
0,79,109,2
0,69,31,76
0,74,98,2
0,78,57,2
0,35,89,14
0,69,41,0
0,48,66,0
0,54,81,2
0,57,81,0
0,62,81,0
0,66,95,0
0,78,100,0
0,69,36,76
0,79,48,14
0,69,31,76
0,69,31,50
0,79,48,60
0,69,46,16
0,62,95,2
0,62,81,0
0,74,84,0
0,69,36,76
0,35,79,74
0,69,31,0
0,48,66,2
0,79,48,28
0,69,36,48
0,35,93,16
0,69,43,0
0,48,66,0
0,57,95,2
0,57,81,0
0,69,100,0
0,69,36,76
0,79,48,14
0,69,31,76
0,69,31,50
0,79,48,60
0,69,46,0
0,48,66,0
0,54,95,2
0,54,81,0
0,66,100,0
0,69,36,76
0,69,31,76
0,79,48,28
0,69,31,48
0,76,57,2
0,35,89,14
0,69,41,0
0,48,66,0
0,52,95,2
0,52,81,0
0,55,81,0
0,60,81,0
0,62,65,0
0,62,81,0
0,69,36,76
0,64,81,2
0,69,31,76
0,69,31,76
0,69,46,76
0,55,95,2
0,69,36,76
0,35,79,74
0,69,31,0
0,48,66,2
0,69,36,76
0,35,93,74
0,69,43,0
0,48,66,0
0,60,95,2
0,70,65,0
0,69,36,76
0,69,31,2
0,55,110,4
0,69,31,76
0,60,110,2
0,69,46,0
0,48,66,0
0,55,65,2
0,62,114,0
0,64,95,0
0,69,36,76
0,64,110,2
0,69,31,76
0,67,118,2
0,69,31,76
0,57,91,52
0,66,91,0
0,54,104,2
0,66,61,2
0,62,98,10
0,35,89,4
0,51,57,0
0,69,41,0
0,48,66,0
0,57,98,2
0,66,100,0
0,66,98,0
0,69,36,8
0,69,31,76
0,69,60,4
0,69,31,76
0,44,50,74
0,69,46,2
0,62,100,2
0,69,36,76
0,35,79,74
0,69,31,0
0,48,66,2
0,69,36,76
0,58,60,4
0,35,93,74
0,69,43,0
0,48,66,0
0,57,100,2
0,69,36,76
0,69,31,76
0,69,31,76
0,44,55,74
0,69,46,0
0,48,66,0
0,54,100,2
0,69,36,76
0,73,60,4
0,69,31,76
0,69,31,76
0,55,91,2
0,64,91,0
0,60,61,2
0,64,61,0
0,35,89,14
0,51,59,0
0,69,41,0
0,48,66,0
0,52,100,2
0,69,36,76
0,69,31,76
0,68,55,4
0,69,31,76
0,60,55,4
0,44,50,74
0,69,46,2
0,55,100,2
0,69,36,76
0,35,79,74
0,69,31,0
0,48,66,2
0,72,55,2
0,69,36,76
0,35,93,74
0,69,43,0
0,48,66,0
0,60,100,2
0,69,36,76
0,69,31,76
0,69,31,76
0,44,55,74
0,51,57,0
0,69,46,0
0,48,66,0
0,64,100,2
0,69,36,76
0,67,50,4
0,69,31,76
0,69,31,76
0,57,91,2
0,66,91,0
0,54,72,4
0,66,61,2
0,57,72,6
0,62,72,6
0,35,89,2
0,51,60,0
0,69,41,0
0,48,66,0
0,66,100,2
0,66,72,0
0,69,36,6
0,69,31,76
0,62,50,4
0,69,31,76
0,44,50,74
0,69,46,2
0,62,100,2
0,72,35,0
0,69,36,76
0,35,79,74
0,69,31,0
0,48,66,2
0,69,36,76
0,35,93,74
0,69,43,0
0,48,66,0
0,57,100,2
0,69,36,76
0,68,35,4
0,69,31,76
0,69,31,76
0,44,55,74
0,69,46,0
0,48,66,0
0,54,100,2
0,69,36,76
0,65,35,4
0,69,31,76
0,69,31,76
0,59,91,2
0,67,91,0
0,59,61,2
0,67,61,0
0,35,89,14
0,51,57,0
0,69,41,0
0,47,66,0
0,55,100,2
0,69,36,76
0,69,31,76
0,69,31,76
0,83,46,60
0,44,50,14
0,69,46,2
0,59,100,2
0,69,36,76
0,35,79,74
0,69,31,0
0,47,66,2
0,69,36,76
0,79,46,2
0,35,93,14
0,69,43,0
0,47,66,0
0,62,100,2
0,69,36,76
0,69,31,76
0,69,31,76
0,55,100,2
0,44,55,74
0,51,58,0
0,69,46,0
0,47,66,0
0,62,115,2
0,67,100,0
0,69,36,76
0,67,100,2
0,69,31,76
0,55,100,2
0,69,31,76
0,58,91,2
0,67,91,0
0,55,98,2
0,58,61,2
0,62,61,0
0,67,61,0
0,58,98,4
0,62,98,6
0,35,89,4
0,51,57,0
0,69,41,0
0,46,66,0
0,67,100,2
0,67,110,0
0,69,36,8
0,69,31,76
0,69,31,76
0,86,46,60
0,44,50,14
0,69,46,2
0,62,100,2
0,69,36,76
0,35,79,74
0,69,31,0
0,46,66,2
0,69,36,76
0,35,93,74
0,69,43,0
0,46,66,0
0,58,100,2
0,69,36,76
0,69,31,76
0,69,31,76
0,44,55,74
0,69,46,0
0,46,66,0
0,55,100,2
0,69,36,76
0,69,31,76
0,51,55,74
0,69,31,2
0,51,52,10
0,51,50,12
0,58,91,2
0,63,91,0
0,67,91,0
0,67,46,2
0,75,46,0
0,82,46,0
0,35,89,12
0,51,58,0
0,69,41,0
0,51,66,0
0,70,100,2
0,69,36,76
0,69,31,76
0,69,31,76
0,44,50,74
0,69,46,2
0,67,100,2
0,69,36,76
0,35,79,74
0,69,31,0
0,51,66,2
0,69,36,76
0,35,93,74
0,69,43,0
0,51,66,0
0,63,100,2
0,69,36,76
0,69,31,76
0,69,31,76
0,55,100,4
0,44,55,74
0,51,57,0
0,69,46,0
0,51,66,0
0,58,100,2
0,58,93,0
0,69,36,76
0,63,100,2
0,69,31,76
0,65,107,2
0,69,31,76
0,55,98,2
0,58,98,10
0,63,98,8
0,35,89,2
0,51,62,0
0,69,41,0
0,51,66,0
0,67,104,2
0,70,100,0
0,69,36,6
0,69,31,76
0,69,31,76
0,44,50,74
0,69,46,2
0,67,100,2
0,69,36,76
0,35,79,74
0,69,31,0
0,51,66,2
0,69,36,76
0,35,93,74
0,69,43,0
0,51,66,0
0,63,100,2
0,69,36,76
0,69,31,76
0,69,31,76
0,44,55,74
0,51,57,0
0,69,46,0
0,51,66,0
0,58,100,2
0,69,36,76
0,69,31,28
0,60,100,4
0,69,31,76
0,57,91,2
0,60,91,0
0,65,91,0
0,72,46,2
0,77,46,0
0,81,46,0
0,35,89,14
0,51,64,0
0,69,41,0
0,53,66,0
0,72,100,2
0,69,36,76
0,69,31,76
0,69,31,76
0,44,50,74
0,69,46,2
0,65,100,2
0,69,36,76
0,35,79,74
0,69,31,0
0,53,66,2
0,69,36,76
0,35,93,74
0,51,58,0
0,69,43,0
0,53,66,0
0,60,100,2
0,69,36,76
0,69,31,76
0,69,31,76
0,38,87,74
0,44,55,0
0,69,46,0
0,53,66,0
0,55,84,2
0,57,100,0
0,57,84,0
0,63,100,0
0,38,79,74
0,69,36,2
0,45,98,74
0,69,31,2
0,46,66,74
0,69,31,2
0,58,91,2
0,62,91,0
0,65,91,0
0,62,97,4
0,70,54,6
0,74,54,0
0,65,97,2
0,35,105,4
0,42,73,0
0,69,41,0
0,34,106,0
0,70,97,0
0,53,100,2
0,58,100,0
0,62,100,0
0,74,97,6
0,42,73,6
0,69,36,2
0,62,85,2
0,65,85,2
0,42,22,4
0,69,36,0
0,70,85,2
0,74,85,2
0,62,66,6
0,65,66,2
0,42,28,4
0,69,31,0
0,70,66,2
0,74,66,8
0,62,85,6
0,65,85,2
0,38,87,4
0,42,73,0
0,69,46,0
0,70,85,2
0,74,85,8
0,42,29,74
0,69,36,2
0,62,85,6
0,65,85,2
0,42,38,4
0,69,31,0
0,70,85,2
0,74,85,8
0,42,37,74
0,69,36,2
0,62,97,6
0,65,97,2
0,35,105,4
0,42,73,0
0,69,43,0
0,46,106,2
0,70,97,0
0,74,97,8
0,42,42,74
0,69,36,2
0,62,85,6
0,65,85,2
0,42,47,4
0,69,31,0
0,70,85,2
0,74,85,8
0,42,40,74
0,69,31,2
0,62,85,6
0,65,85,2
0,38,87,4
0,42,73,0
0,69,46,0
0,70,85,2
0,53,100,2
0,58,100,0
0,62,100,0
0,74,85,6
0,62,66,6
0,65,66,2
0,42,40,4
0,69,36,0
0,70,66,0
0,74,66,8
0,62,85,6
0,65,85,2
0,42,38,4
0,69,31,0
0,70,85,2
0,74,85,8
0,42,55,74
0,69,31,2
0,58,91,2
0,63,91,0
0,65,91,0
0,65,97,2
0,35,105,4
0,42,73,0
0,69,31,0
0,34,106,2
0,70,97,0
0,55,100,2
0,58,100,0
0,63,100,0
0,63,97,6
0,75,97,0
0,42,37,74
0,69,36,2
0,65,85,2
0,42,34,4
0,69,36,0
0,70,85,2
0,63,85,6
0,75,85,0
0,65,66,2
0,42,42,4
0,69,31,0
0,70,66,2
0,63,66,6
0,75,66,0
0,65,85,2
0,38,87,4
0,42,73,0
0,69,46,0
0,70,85,2
0,63,85,6
0,75,85,0
0,42,37,74
0,69,36,2
0,65,85,2
0,35,97,4
0,42,47,0
0,69,31,0
0,41,106,2
0,70,85,0
0,63,85,6
0,75,85,0
0,42,67,74
0,69,36,0
0,48,106,2
0,65,97,2
0,35,105,4
0,42,73,0
0,69,43,0
0,46,106,2
0,70,97,0
0,63,97,6
0,75,97,0
0,42,44,74
0,69,36,2
0,65,85,2
0,42,37,4
0,69,31,0
0,70,85,2
0,63,85,6
0,75,85,0
0,42,44,74
0,69,31,2
0,65,85,2
0,38,87,4
0,42,73,0
0,69,46,0
0,46,106,2
0,70,85,0
0,55,100,0
0,58,100,0
0,63,100,0
0,65,100,0
0,63,85,6
0,75,85,0
0,65,66,2
0,42,37,4
0,69,36,0
0,36,106,0
0,70,66,0
0,63,66,6
0,75,66,0
0,65,85,2
0,42,38,4
0,69,31,0
0,34,106,2
0,70,85,0
0,63,85,6
0,75,85,0
0,42,49,74
0,69,31,2
0,57,91,2
0,60,91,0
0,65,91,0
0,60,97,10
0,65,97,2
0,35,105,4
0,42,73,0
0,69,31,0
0,33,106,2
0,69,97,0
0,53,100,0
0,60,100,0
0,65,100,0
0,72,97,6
0,42,41,74
0,69,36,2
0,60,85,6
0,65,85,2
0,42,38,4
0,69,36,0
0,69,85,2
0,72,85,8
0,60,66,6
0,65,66,2
0,42,41,4
0,69,31,0
0,69,66,2
0,72,66,8
0,60,85,6
0,65,85,2
0,38,87,4
0,42,73,0
0,69,46,0
0,69,85,2
0,72,85,8
0,42,31,74
0,69,36,2
0,60,85,6
0,65,85,2
0,35,97,4
0,42,44,0
0,69,31,0
0,69,85,2
0,72,85,8
0,42,53,74
0,69,36,2
0,60,97,6
0,65,97,2
0,35,105,4
0,42,73,0
0,69,43,0
0,33,106,2
0,69,97,0
0,72,97,8
0,42,47,74
0,69,36,2
0,60,85,6
0,65,85,2
0,42,38,4
0,69,31,0
0,69,85,2
0,72,85,8
0,42,42,74
0,69,31,2
0,60,85,6
0,65,85,2
0,38,87,4
0,42,73,0
0,69,46,0
0,69,85,2
0,72,85,8
0,60,66,6
0,65,66,2
0,42,41,4
0,69,36,0
0,69,66,2
0,72,66,8
0,60,85,6
0,65,85,2
0,42,38,4
0,69,31,0
0,69,85,2
0,72,85,8
0,42,38,74
0,69,31,2
0,58,91,2
0,62,91,0
0,65,91,0
0,62,97,6
0,65,97,2
0,35,105,4
0,42,73,0
0,69,31,0
0,34,106,2
0,70,97,0
0,58,100,2
0,62,100,0
0,65,100,0
0,74,97,6
0,42,29,74
0,69,36,2
0,62,85,6
0,65,85,2
0,42,35,4
0,69,36,0
0,70,85,2
0,74,85,8
0,62,66,6
0,65,66,2
0,42,42,4
0,69,31,0
0,70,66,2
0,74,66,8
0,62,85,6
0,65,85,2
0,38,87,4
0,42,73,0
0,69,46,0
0,34,106,2
0,70,85,0
0,74,85,8
0,42,37,74
0,69,36,2
0,62,85,6
0,65,85,2
0,35,97,4
0,42,44,0
0,69,31,0
0,70,85,2
0,74,85,8
0,42,44,74
0,69,36,2
0,62,97,6
0,65,97,2
0,35,105,4
0,42,73,0
0,69,43,0
0,34,106,2
0,70,97,0
0,74,97,8
0,42,37,74
0,69,36,2
0,62,85,6
0,65,85,2
0,42,41,4
0,69,31,0
0,70,85,2
0,74,85,8
0,42,53,74
0,69,31,0
0,34,106,2
0,62,85,6
0,65,85,2
0,38,87,4
0,42,73,0
0,69,46,0
0,44,106,2
0,70,85,0
0,58,100,2
0,62,100,0
0,65,100,0
0,74,85,6
0,62,66,6
0,65,66,2
0,42,55,4
0,69,36,0
0,70,66,0
0,74,66,8
0,62,85,4
0,65,85,2
0,42,55,4
0,69,31,0
0,70,85,2
0,74,85,8
0,42,41,28
0,69,31,2
0,62,97,6
0,65,97,2
0,35,105,4
0,42,73,0
0,69,31,0
0,32,106,2
0,70,97,0
