track,note,velocity,time
1,38,80,1336
1,38,0,60
1,38,80,68
1,38,0,60
1,38,80,4
1,38,0,60
1,38,80,68
1,38,0,62
1,38,80,2
1,38,0,60
1,38,80,68
1,38,0,60
1,38,80,4
1,38,0,60
1,26,80,68
1,26,0,60
1,26,80,4
1,26,0,60
1,26,80,68
1,26,0,58
1,26,80,6
1,26,0,60
1,26,80,68
1,26,0,60
1,26,80,4
1,26,0,182
1,30,80,10
1,30,0,180
1,28,80,12
1,28,0,58
1,28,80,70
1,28,0,60
1,28,80,4
1,28,0,60
1,28,80,68
1,28,0,60
1,28,80,4
1,28,0,60
1,28,80,68
1,28,0,60
1,28,80,4
1,28,0,60
1,33,80,68
1,33,0,60
1,33,80,4
1,33,0,60
1,33,80,68
1,33,0,60
1,33,80,4
1,33,0,60
1,33,80,68
1,33,0,58
1,35,80,6
1,35,0,180
1,33,80,12
1,33,0,124
1,35,80,4
1,35,0,60
1,26,80,4
1,26,0,58
1,26,80,70
1,26,0,60
1,26,80,4
1,26,0,60
1,26,80,68
1,26,0,60
1,26,80,4
1,26,0,60
1,26,80,68
1,26,0,60
1,26,80,4
1,26,0,60
1,26,80,68
1,26,0,58
1,26,80,6
1,26,0,60
1,26,80,68
1,26,0,58
1,26,80,6
1,26,0,60
1,26,80,68
1,26,0,58
1,26,80,6
1,26,0,180
1,30,80,12
1,30,0,180
1,28,80,12
1,28,0,58
1,28,80,70
1,28,0,60
1,28,80,4
1,28,0,60
1,28,80,68
1,28,0,60
1,28,80,4
1,28,0,60
1,28,80,68
1,28,0,60
1,28,80,4
1,28,0,60
1,33,80,68
1,33,0,62
1,33,80,2
1,33,0,60
1,33,80,68
1,33,0,60
1,33,80,4
1,33,0,60
1,33,80,68
1,33,0,58
1,35,80,6
1,35,0,60
1,33,80,68
1,33,0,60
1,30,80,4
1,30,0,124
1,33,80,4
1,33,0,58
1,33,80,134
1,33,0,58
1,33,80,134
1,33,0,58
1,33,80,6
1,33,0,122
1,33,80,6
1,33,0,60
1,33,80,4
1,33,0,122
1,33,80,6
1,33,0,60
1,33,80,132
1,33,0,58
1,33,80,134
1,33,0,58
1,33,80,6
1,33,0,124
1,33,80,4
1,33,0,58
1,33,80,6
1,33,0,124
1,33,80,4
1,33,0,60
1,33,80,132
1,33,0,58
1,33,80,134
1,33,0,58
1,33,80,6
1,33,0,122
1,33,80,6
1,33,0,60
1,33,80,4
1,33,0,122
1,33,80,6
1,33,0,60
1,33,80,132
1,33,0,58
1,33,80,134
1,33,0,60
1,30,80,4
1,30,0,180
1,28,80,12
1,28,0,122
1,33,80,6
1,33,0,60
1,33,80,132
1,33,0,60
1,33,80,132
1,33,0,60
1,33,80,4
1,33,0,122
1,33,80,6
1,33,0,58
1,33,80,6
1,33,0,122
1,33,80,4
1,33,0,60
1,33,80,134
1,33,0,60
1,33,80,132
1,33,0,58
1,33,80,6
1,33,0,122
1,33,80,6
1,33,0,58
1,33,80,4
1,33,0,124
1,33,80,6
1,33,0,60
1,33,80,132
1,33,0,60
1,33,80,132
1,33,0,58
1,33,80,6
1,33,0,122
1,33,80,6
1,33,0,60
1,33,80,4
1,33,0,122
1,33,80,4
1,33,0,62
1,33,80,132
1,33,0,60
1,33,80,132
1,33,0,58
1,30,80,6
1,30,0,180
1,28,80,12
1,28,0,184
1,33,80,8
1,33,0,124
1,33,80,4
1,33,0,58
1,33,80,134
1,33,0,58
1,33,80,6
1,33,0,124
1,33,80,4
1,33,0,58
1,33,80,6
1,33,0,122
1,33,80,6
1,33,0,60
1,33,80,132
1,33,0,60
1,33,80,132
1,33,0,58
1,33,80,6
1,33,0,122
1,33,80,6
1,33,0,58
1,33,80,6
1,33,0,122
1,33,80,6
1,33,0,58
1,33,80,134
1,33,0,58
1,33,80,134
1,33,0,60
1,33,80,4
1,33,0,124
1,33,80,4
1,33,0,58
1,33,80,6
1,33,0,122
1,33,80,6
1,33,0,58
1,33,80,132
1,33,0,62
1,33,80,132
1,33,0,60
1,30,80,4
1,30,0,178
1,28,80,12
1,28,0,124
1,30,80,6
1,30,0,58
1,33,80,134
1,33,0,58
1,33,80,134
1,33,0,58
1,33,80,6
1,33,0,124
1,33,80,4
1,33,0,60
1,33,80,4
1,33,0,122
1,33,80,6
1,33,0,58
1,33,80,134
1,33,0,58
1,33,80,134
1,33,0,60
1,33,80,4
1,33,0,124
1,33,80,4
1,33,0,58
1,33,80,6
1,33,0,122
1,33,80,6
1,33,0,58
1,33,80,134
1,33,0,60
1,33,80,132
1,33,0,58
1,33,80,6
1,33,0,122
1,33,80,6
1,33,0,58
1,33,80,6
1,33,0,122
1,33,80,6
1,33,0,60
1,33,80,4
1,33,0,178
1,31,80,14
1,31,0,178
1,33,80,14
1,33,0,178
1,34,80,14
1,34,0,178
1,35,80,14
1,35,0,60
1,35,80,68
1,35,0,60
1,35,80,4
1,35,0,58
1,35,80,70
1,35,0,58
1,35,80,6
1,35,0,58
1,35,80,70
1,35,0,58
1,35,80,6
1,35,0,58
1,37,80,70
1,37,0,124
1,37,80,68
1,37,0,60
1,37,80,4
1,37,0,60
1,37,80,68
1,37,0,60
1,37,80,4
1,37,0,60
1,37,80,68
1,37,0,60
1,37,80,4
1,37,0,60
1,38,80,68
1,38,0,182
1,38,80,10
1,38,0,60
1,38,80,4
1,38,0,60
1,38,80,68
1,38,0,60
1,38,80,4
1,38,0,58
1,38,80,70
1,38,0,60
1,38,80,4
1,38,0,58
1,40,80,70
1,40,0,180
1,28,80,12
1,28,0,60
1,28,80,4
1,28,0,60
1,28,80,68
1,28,0,60
1,33,80,4
1,33,0,180
1,34,80,12
1,34,0,180
1,35,80,12
1,35,0,60
1,35,80,68
1,35,0,58
1,35,80,6
1,35,0,60
1,35,80,68
1,35,0,60
1,35,80,4
1,35,0,60
1,35,80,68
1,35,0,60
1,35,80,4
1,35,0,58
1,37,80,70
1,37,0,178
1,37,80,14
1,37,0,60
1,37,80,4
1,37,0,60
1,37,80,68
1,37,0,60
1,37,80,4
1,37,0,60
1,37,80,68
1,37,0,60
1,37,80,4
1,37,0,60
1,38,80,68
1,38,0,180
1,38,80,12
1,38,0,58
1,38,80,6
1,38,0,60
1,38,80,68
1,38,0,60
1,38,80,4
1,38,0,60
1,38,80,68
1,38,0,60
1,38,80,4
1,38,0,58
1,40,80,70
1,40,0,178
1,28,80,14
1,28,0,60
1,28,80,4
1,28,0,60
1,28,80,68
1,28,0,60
1,40,80,4
1,40,0,60
1,28,80,68
1,28,0,60
1,40,80,4
1,40,0,124
1,26,80,68
1,26,0,60
1,26,80,68
1,26,0,60
1,26,80,4
1,26,0,60
1,26,80,68
1,26,0,58
1,26,80,6
1,26,0,60
1,26,80,68
1,26,0,60
1,26,80,4
1,26,0,58
1,26,80,70
1,26,0,60
1,26,80,4
1,26,0,58
1,26,80,70
1,26,0,60
1,26,80,4
1,26,0,60
1,26,80,68
1,26,0,60
1,26,80,4
1,26,0,178
1,30,80,14
1,30,0,178
1,28,80,14
1,28,0,60
1,28,80,68
1,28,0,58
1,28,80,6
1,28,0,60
1,28,80,68
1,28,0,58
1,28,80,6
1,28,0,60
1,28,80,68
1,28,0,60
1,28,80,4
1,28,0,60
1,33,80,68
1,33,0,60
1,33,80,4
1,33,0,60
1,33,80,68
1,33,0,60
1,33,80,4
1,33,0,60
1,33,80,68
1,33,0,60
1,35,80,4
1,35,0,178
1,33,80,14
1,33,0,124
1,35,80,4
1,35,0,58
1,26,80,4
1,26,0,62
1,26,80,68
1,26,0,58
1,26,80,6
1,26,0,60
1,26,80,68
1,26,0,58
1,26,80,6
1,26,0,60
1,26,80,68
1,26,0,60
1,26,80,4
1,26,0,60
1,26,80,68
1,26,0,60
1,26,80,4
1,26,0,58
1,26,80,70
1,26,0,60
1,26,80,4
1,26,0,60
1,26,80,68
1,26,0,60
1,26,80,4
1,26,0,178
1,30,80,14
1,30,0,178
1,28,80,14
1,28,0,60
1,28,80,68
1,28,0,60
1,28,80,4
1,28,0,60
1,28,80,68
1,28,0,58
1,28,80,6
1,28,0,60
1,28,80,68
1,28,0,60
1,28,80,4
1,28,0,58
1,33,80,70
1,33,0,58
1,33,80,6
1,33,0,58
1,33,80,70
1,33,0,58
1,33,80,6
1,33,0,60
1,33,80,68
1,33,0,58
1,35,80,6
1,35,0,122
1,33,80,6
1,33,0,60
1,30,80,4
1,30,0,122
1,33,80,6
1,33,0,60
1,33,80,132
1,33,0,58
1,33,80,134
1,33,0,58
1,33,80,6
1,33,0,124
1,33,80,4
1,33,0,60
1,33,80,4
1,33,0,122
1,33,80,4
1,33,0,62
1,33,80,132
1,33,0,60
1,33,80,132
1,33,0,60
1,33,80,4
1,33,0,124
1,33,80,4
1,33,0,60
1,33,80,4
1,33,0,122
1,33,80,6
1,33,0,60
1,33,80,132
1,33,0,60
1,33,80,132
1,33,0,58
1,33,80,6
1,33,0,124
1,33,80,4
1,33,0,58
1,33,80,6
1,33,0,124
1,33,80,4
1,33,0,60
1,33,80,132
1,33,0,60
1,33,80,132
1,33,0,60
1,30,80,4
1,30,0,180
1,28,80,12
1,28,0,122
1,33,80,6
1,33,0,60
1,33,80,132
1,33,0,60
1,33,80,132
1,33,0,58
1,33,80,6
1,33,0,124
1,33,80,4
1,33,0,58
1,33,80,6
1,33,0,124
1,33,80,4
1,33,0,58
1,33,80,134
1,33,0,58
1,33,80,134
1,33,0,58
1,33,80,6
1,33,0,122
1,33,80,6
1,33,0,60
1,33,80,4
1,33,0,122
1,33,80,4
1,33,0,60
1,33,80,132
1,33,0,62
1,33,80,132
1,33,0,58
1,33,80,6
1,33,0,124
1,33,80,4
1,33,0,58
1,33,80,6
1,33,0,122
1,33,80,6
1,33,0,60
1,33,80,132
1,33,0,58
1,33,80,134
1,33,0,58
1,30,80,6
1,30,0,180
1,28,80,12
1,28,0,182
1,33,80,10
1,33,0,122
1,33,80,6
1,33,0,60
1,33,80,132
1,33,0,58
1,33,80,6
1,33,0,124
1,33,80,4
1,33,0,58
1,33,80,4
1,33,0,126
1,33,80,4
1,33,0,58
1,33,80,134
1,33,0,58
1,33,80,134
1,33,0,60
1,33,80,4
1,33,0,124
1,33,80,4
1,33,0,58
1,33,80,6
1,33,0,122
1,33,80,6
1,33,0,60
1,33,80,132
1,33,0,60
1,33,80,132
1,33,0,60
1,33,80,4
1,33,0,122
1,33,80,6
1,33,0,58
1,33,80,6
1,33,0,122
1,33,80,6
1,33,0,58
1,33,80,134
1,33,0,58
1,33,80,134
1,33,0,58
1,30,80,6
1,30,0,180
1,28,80,12
1,28,0,124
1,30,80,4
1,30,0,60
1,33,80,130
1,33,0,62
1,33,80,132
1,33,0,60
1,33,80,4
1,33,0,122
1,33,80,6
1,33,0,58
1,33,80,4
1,33,0,124
1,33,80,6
1,33,0,58
1,33,80,134
1,33,0,60
1,33,80,132
1,33,0,58
1,33,80,6
1,33,0,124
1,33,80,4
1,33,0,58
1,33,80,6
1,33,0,122
1,33,80,6
1,33,0,58
1,33,80,134
1,33,0,60
1,33,80,132
1,33,0,60
1,33,80,4
1,33,0,124
1,33,80,4
1,33,0,58
1,33,80,6
1,33,0,124
1,33,80,4
1,33,0,58
1,33,80,4
1,33,0,180
1,31,80,14
1,31,0,180
1,33,80,12
1,33,0,178
1,34,80,14
1,34,0,180
1,35,80,12
1,35,0,60
1,35,80,68
1,35,0,60
1,35,80,4
1,35,0,58
1,35,80,68
1,35,0,62
1,35,80,4
1,35,0,58
1,35,80,70
1,35,0,58
1,35,80,6
1,35,0,60
1,37,80,68
1,37,0,122
1,37,80,70
1,37,0,58
1,37,80,6
1,37,0,60
1,37,80,68
1,37,0,58
1,37,80,6
1,37,0,58
1,37,80,70
1,37,0,58
1,37,80,6
1,37,0,58
1,38,80,70
1,38,0,180
1,38,80,12
1,38,0,60
1,38,80,4
1,38,0,58
1,38,80,70
1,38,0,58
1,38,80,6
1,38,0,58
1,38,80,70
1,38,0,60
1,38,80,4
1,38,0,60
1,40,80,68
1,40,0,178
1,28,80,14
1,28,0,58
1,28,80,4
1,28,0,62
1,28,80,68
1,28,0,58
1,33,80,6
1,33,0,178
1,34,80,14
1,34,0,178
1,35,80,14
1,35,0,58
1,35,80,70
1,35,0,60
1,35,80,4
1,35,0,60
1,35,80,68
1,35,0,58
1,35,80,6
1,35,0,58
1,35,80,70
1,35,0,60
1,35,80,4
1,35,0,60
1,37,80,68
1,37,0,180
1,37,80,12
1,37,0,60
1,37,80,4
1,37,0,60
1,37,80,66
1,37,0,62
1,37,80,4
1,37,0,58
1,37,80,70
1,37,0,58
1,37,80,6
1,37,0,58
1,38,80,70
1,38,0,180
1,38,80,12
1,38,0,58
1,38,80,6
1,38,0,60
1,38,80,68
1,38,0,60
1,38,80,4
1,38,0,60
1,38,80,68
1,38,0,58
1,38,80,6
1,38,0,58
1,40,80,70
1,40,0,178
1,28,80,14
1,28,0,58
1,28,80,6
1,28,0,60
1,28,80,68
1,28,0,48
1,40,80,16
1,40,0,58
1,28,80,70
1,28,0,60
1,40,80,4
1,40,0,124
1,26,80,196
1,26,0,60
1,26,80,4
1,26,0,60
1,26,80,68
1,26,0,60
1,26,80,4
1,26,0,60
1,26,80,68
1,26,0,60
1,26,80,4
1,26,0,60
1,26,80,68
1,26,0,60
1,26,80,4
1,26,0,60
1,26,80,68
1,26,0,58
1,26,80,6
1,26,0,60
1,26,80,68
1,26,0,60
1,26,80,4
1,26,0,180
1,30,80,12
1,30,0,180
1,28,80,12
1,28,0,60
1,28,80,68
1,28,0,60
1,28,80,4
1,28,0,60
1,28,80,68
1,28,0,60
1,28,80,4
1,28,0,60
1,28,80,68
1,28,0,60
1,28,80,4
1,28,0,60
1,33,80,68
1,33,0,60
1,33,80,4
1,33,0,60
1,33,80,68
1,33,0,58
1,33,80,6
1,33,0,60
1,33,80,68
1,33,0,60
1,35,80,4
1,35,0,180
1,33,80,12
1,33,0,124
1,35,80,4
1,35,0,60
1,26,80,4
1,26,0,58
1,26,80,70
1,26,0,60
1,26,80,4
1,26,0,60
1,26,80,68
1,26,0,60
1,26,80,4
1,26,0,60
1,26,80,68
1,26,0,60
1,26,80,4
1,26,0,60
1,26,80,68
1,26,0,62
1,26,80,2
1,26,0,60
1,26,80,68
1,26,0,60
1,26,80,4
1,26,0,60
1,26,80,68
1,26,0,60
1,26,80,4
1,26,0,180
1,30,80,12
1,30,0,180
1,28,80,12
1,28,0,58
1,28,80,70
1,28,0,60
1,28,80,4
1,28,0,60
1,28,80,68
1,28,0,60
1,28,80,4
1,28,0,60
1,28,80,68
1,28,0,60
1,28,80,4
1,28,0,58
1,33,80,70
1,33,0,60
1,33,80,4
1,33,0,60
1,33,80,68
1,33,0,60
1,33,80,4
1,33,0,60
1,33,80,68
1,33,0,58
1,35,80,6
1,35,0,124
1,33,80,4
1,33,0,60
1,30,80,4
1,30,0,126
1,33,80,2
1,33,0,60
1,26,80,4
1,26,0,58
1,26,80,70
1,26,0,60
1,26,80,4
1,26,0,58
1,26,80,70
1,26,0,60
1,26,80,4
1,26,0,60
1,26,80,68
1,26,0,60
1,26,80,4
1,26,0,60
1,26,80,68
1,26,0,60
1,26,80,4
1,26,0,60
1,26,80,68
1,26,0,60
1,26,80,4
1,26,0,60
1,26,80,68
1,26,0,58
1,26,80,6
1,26,0,180
1,30,80,12
1,30,0,180
1,28,80,12
1,28,0,58
1,28,80,70
1,28,0,60
1,28,80,4
1,28,0,58
1,28,80,70
1,28,0,60
1,28,80,4
1,28,0,60
1,28,80,68
1,28,0,60
1,28,80,4
1,28,0,60
1,33,80,68
1,33,0,60
1,33,80,4
1,33,0,60
1,33,80,68
1,33,0,60
1,33,80,4
1,33,0,60
1,33,80,68
1,33,0,58
1,35,80,6
1,35,0,180
1,37,80,12
1,37,0,180
1,38,80,12
1,38,0,60
1,38,80,68
1,38,0,60
1,38,80,4
1,38,0,58
1,38,80,70
1,38,0,60
