track,note,velocity,time
3,67,108,154
3,67,0,188
3,69,113,4
3,69,0,188
3,71,113,16
3,71,0,188
3,72,115,8
3,72,0,188
3,74,122,4
3,74,0,98
3,72,112,126
3,71,123,170
3,72,0,18
3,71,0,170
3,69,107,22
3,69,0,170
3,67,116,10
3,67,0,188
3,66,126,26
3,66,0,26
3,66,117,36
3,66,0,170
3,67,121,10
3,66,111,42
3,67,0,16
3,66,0,172
3,64,122,26
3,66,107,176
3,64,0,12
3,66,0,176
3,67,107,14
3,67,0,114
3,69,124,8
3,69,0,56
3,67,107,0
3,67,0,188
3,66,121,0
3,66,0,188
3,67,120,30
3,69,125,70
3,67,0,18
3,69,0,70
3,69,124,6
3,69,0,94
3,69,126,132
3,69,0,188
3,71,115,32
3,72,112,174
3,71,0,14
3,72,0,174
3,74,121,8
3,74,0,188
3,76,113,8
3,76,0,212
3,74,107,24
3,74,0,188
3,72,114,22
3,71,109,186
3,72,0,2
3,71,0,186
3,69,123,0
3,69,0,188
3,74,117,6
3,74,0,214
3,74,118,16
3,74,0,190
3,72,109,62
3,71,126,186
3,72,0,2
3,71,0,186
3,69,107,10
3,71,121,168
3,69,0,20
3,71,0,168
3,74,115,2
3,74,0,210
3,74,119,42
3,74,0,188
3,72,107,10
3,72,0,172
3,72,108,0
3,72,0,188
3,71,114,0
3,71,0,188
3,71,109,10
3,71,0,188
3,69,107,10
3,69,0,188
3,69,112,4
3,69,0,110
3,67,119,124
3,67,0,188
3,69,126,8
3,69,0,188
3,71,112,12
3,71,0,188
3,72,124,12
3,72,0,165
3,74,114,8
3,74,0,20
3,72,114,230
3,71,124,168
3,72,0,20
3,71,0,68
3,69,123,30
3,69,0,252
3,67,125,32
3,67,0,188
3,66,115,8
3,66,0,348
3,66,108,34
3,66,0,188
3,66,116,6
3,66,0,4
3,67,109,0
3,66,109,40
3,67,0,12
3,66,0,176
3,64,118,2
3,64,0,188
3,66,115,18
3,66,0,188
3,67,117,2
3,67,0,202
3,67,107,1562
3,67,0,188
3,69,123,20
3,69,0,188
3,71,110,0
3,72,112,186
3,71,0,2
3,72,0,186
3,74,125,4
3,74,0,212
3,74,118,38
3,74,0,210
3,72,119,24
3,72,0,188
3,71,126,18
3,71,0,188
3,69,124,10
3,69,0,188
3,67,115,4
3,67,0,188
3,66,122,2
3,66,0,264
3,66,122,36
3,66,0,216
3,67,110,0
3,67,0,58
3,66,113,0
3,66,0,188
3,64,109,10
3,66,124,186
3,64,0,2
3,67,114,176
3,66,0,10
3,67,0,244
3,67,115,58
3,67,0,218
3,69,121,6
3,67,110,44
3,69,0,10
3,67,0,178
3,66,115,18
3,66,0,188
3,67,126,4
3,67,0,88
3,69,110,6
3,69,0,88
3,69,109,0
3,69,0,104
3,69,109,148
3,69,0,188
3,71,122,2
3,72,107,180
3,71,0,8
3,72,0,180
3,74,108,10
3,74,0,188
3,76,126,4
3,76,0,222
3,76,119,10
3,76,0,192
3,74,112,40
3,74,0,188
3,72,117,26
3,71,108,72
3,72,0,16
3,71,0,172
3,69,110,14
3,69,0,252
3,74,115,0
3,74,0,218
3,74,126,40
3,74,0,122
3,72,115,106
3,72,0,188
3,71,125,10
3,71,0,188
3,69,114,24
3,69,0,177
3,71,116,15
3,74,111,178
3,71,0,10
3,74,0,208
3,74,118,50
3,72,108,178
3,74,0,10
3,72,0,178
3,72,113,12
3,72,0,252
3,71,125,118
3,71,0,188
3,69,118,2
3,69,0,188
3,71,120,2
3,71,0,50
3,69,108,8
3,69,0,20
3,67,126,126
3,67,0,188
3,69,123,8
3,69,0,188
3,71,126,12
3,72,116,172
3,71,0,16
3,72,0,172
3,74,109,2
3,74,0,306
3,72,123,232
3,72,0,188
3,71,124,2
3,71,0,88
3,69,107,32
3,69,0,252
3,67,123,16
3,67,0,188
3,66,126,8
3,66,0,348
3,66,115,48
3,66,0,170
3,66,121,0
3,66,0,188
3,67,110,8
3,67,0,56
3,66,107,16
3,64,124,184
3,66,0,4
3,66,124,176
3,64,0,8
3,66,0,180
3,67,120,26
3,67,0,118
3,73,125,0
3,73,0,48
3,71,122,4
3,71,0,188
3,69,110,6
3,69,0,398
3,69,119,11940
3,69,0,188
3,71,125,24
3,73,107,186
3,71,0,2
3,73,0,186
3,74,117,14
3,76,115,8
3,74,0,10
3,76,0,200
3,74,124,26
3,74,0,188
3,73,116,18
3,73,0,188
3,71,109,6
3,71,0,188
3,69,119,12
3,68,117,184
3,69,0,4
3,68,0,14
3,64,107,20
3,64,0,188
3,69,125,6
3,69,0,54
3,68,116,10
3,66,122,182
3,68,0,6
3,66,0,182
3,68,107,8
3,68,0,188
3,69,114,2
3,69,0,14
3,71,120,222
3,71,0,188
3,69,111,14
3,69,0,188
3,68,126,10
3,69,113,168
3,68,0,20
3,69,0,68
3,71,111,6
3,71,0,102
3,71,125,16
3,71,0,20
3,71,110,214
3,71,0,188
3,73,109,18
3,74,125,174
3,73,0,14
3,74,0,174
3,76,117,6
3,76,0,188
3,78,110,8
3,78,0,216
3,78,107,24
3,78,0,252
3,76,117,150
3,74,115,182
3,76,0,6
3,74,0,182
3,73,119,10
3,73,0,6
3,78,108,2
3,76,122,52
3,78,0,4
3,76,0,344
3,76,116,32
3,76,0,252
3,74,117,136
3,73,120,184
3,74,0,4
3,73,0,184
3,71,111,10
3,71,0,188
3,69,119,2
3,69,0,188
3,76,115,4
3,76,0,204
3,76,110,50
3,76,0,118
3,74,115,114
3,74,0,348
3,73,109,52
3,73,0,188
3,71,107,2
3,71,0,2
3,73,124,0
3,73,0,58
3,71,119,6
3,71,0,360
3,69,120,46
3,71,113,182
3,69,0,6
3,71,0,182
3,73,107,28
3,74,112,168
3,73,0,20
3,74,0,168
3,78,108,14
3,78,0,88
3,76,113,2
3,76,0,4
3,74,118,236
3,73,108,38
3,74,0,10
3,73,0,78
3,71,107,8
3,71,0,252
3,69,120,46
3,69,0,188
3,68,114,4
3,68,0,348
3,68,114,38
3,68,0,188
3,68,108,10
3,68,0,155
3,69,109,0
3,69,0,58
3,68,120,10
3,68,0,188
3,66,114,2
3,68,107,184
3,66,0,4
3,68,0,2
3,69,118,8
3,69,0,202
3,69,121,992
3,69,0,188
3,69,109,4
3,69,0,188
3,69,113,0
3,69,0,8
3,69,122,8
3,69,0,66
3,68,119,14
3,68,0,188
3,66,113,6
3,66,0,125
3,71,109,6
3,71,0,224
3,69,114,44
3,69,0,300
3,69,120,704
3,69,0,188
3,69,118,10
3,69,0,188
3,69,109,16
3,69,0,2
3,69,121,0
3,69,0,58
3,68,118,8
3,68,0,188
3,66,109,20
3,66,0,188
3,68,122,4
3,68,0,188
3,69,115,6
3,69,0,212
3,78,116,1190
3,78,0,88
3,76,109,4
3,73,111,184
3,76,0,4
3,73,0,84
3,74,107,0
3,74,0,48
3,73,113,14
3,71,108,74
3,73,0,14
3,71,0,74
3,69,118,14
3,69,0,88
3,71,116,12
3,71,0,188
3,69,119,6
3,69,0,60
3,69,122,4294
3,69,0,188
3,69,117,12
3,69,0,179
3,69,122,5
3,69,0,192
3,69,115,10
3,68,125,54
3,69,0,4
3,68,0,184
3,66,107,4
3,66,0,88
3,64,126,8
3,64,0,188
3,64,111,0
3,64,0,10
4,33,115,47092
4,33,0,1496
4,33,115,38
4,33,0,1112
4,33,116,42
4,33,0,360
4,33,110,18
4,33,0,1496
4,33,112,48
4,33,0,1496
4,33,126,32
4,33,0,1496
4,33,123,50
4,33,0,1496
4,35,111,32
4,35,0,1496
4,37,126,38
4,37,0,1496
4,38,115,38
4,38,0,3032
4,33,126,44
4,33,0,1496
4,33,118,42
4,33,0,1496
4,33,111,50
4,33,0,1496
4,33,117,34
4,33,0,1496
4,35,124,36
4,35,0,1496
4,37,125,38
4,37,0,1496
4,38,118,36
4,38,0,1112
4,38,117,44
4,38,0,360
4,40,109,20
4,40,0,728
4,40,112,44
4,40,0,360
4,40,111,28
4,40,0,360
4,33,111,26
4,33,0,1496
4,33,123,34
4,33,0,1496
4,33,123,46
4,33,0,1496
4,33,125,44
4,33,0,1496
4,33,118,28
4,33,0,1496
4,33,112,48
4,33,0,1400
4,30,114,136
4,30,0,1112
4,30,110,44
4,30,0,360
4,28,113,10
4,28,0,1496
4,30,124,48
4,30,0,1112
4,30,126,40
4,30,0,360
4,28,118,26
4,28,0,1496
4,30,125,40
4,30,0,1112
4,30,118,40
4,30,0,360
4,28,121,20
4,28,0,1496
4,33,120,34
4,33,0,88
5,43,91,4010
5,43,0,1308
5,43,100,36
5,43,0,1500
5,43,108,230
5,43,0,1308
5,43,101,32
5,43,0,172
5,43,107,26
5,43,0,1500
5,43,100,32
5,43,0,1308
5,43,100,38
5,43,0,172
5,43,100,16
5,43,0,1308
5,43,104,128
5,43,0,88
5,43,100,20
5,43,0,1308
5,43,99,128
5,43,0,88
5,43,107,10
5,43,0,1308
5,43,94,36
5,43,0,172
5,45,98,16
5,45,0,1500
5,47,108,38
5,47,0,1500
5,48,93,38
5,48,0,1500
5,50,101,36
5,50,0,1500
5,43,91,34
5,43,0,1308
5,43,108,28
5,43,0,172
5,43,104,24
5,43,0,1500
5,43,105,34
5,43,0,1500
5,38,105,36
5,38,0,1500
5,43,95,36
5,43,0,1308
5,43,93,42
5,43,0,172
5,43,104,14
5,43,0,1342
5,43,99,0
5,43,0,156
5,43,104,46
5,43,0,1308
5,43,99,28
5,43,0,172
5,43,105,28
5,43,0,1500
5,45,108,34
5,45,0,1342
5,45,90,0
5,45,0,156
5,47,108,36
5,47,0,1500
5,48,99,34
5,48,0,1500
5,50,99,32
5,50,0,1500
5,43,108,42
5,43,0,1308
5,43,105,134
5,43,0,88
5,43,100,4
5,43,0,1500
5,43,101,40
5,43,0,1438
5,43,104,0
5,43,0,60
5,43,105,38
5,43,0,1308
5,43,108,32
5,43,0,172
5,45,90,20
5,45,0,1500
5,45,103,38
5,45,0,1116
5,45,94,40
5,45,0,348
5,45,103,32
5,45,0,1500
5,45,93,32
5,45,0,1500
5,45,90,38
5,45,0,1500
5,45,108,40
5,45,0,1500
5,47,96,34
5,47,0,1500
5,49,99,32
5,49,0,1308
5,49,105,46
5,49,0,172
5,50,108,14
5,50,0,3036
5,45,90,36
5,45,0,1500
5,45,98,32
5,45,0,1500
5,45,103,44
5,45,0,1500
5,45,104,32
5,45,0,1500
5,47,104,36
5,47,0,1500
5,49,96,34
5,49,0,1500
5,50,92,40
5,50,0,1116
5,50,104,40
5,50,0,348
5,52,104,28
5,52,0,732
5,52,107,36
5,52,0,348
5,52,100,34
5,52,0,348
5,45,90,42
5,45,0,1500
5,45,97,38
5,45,0,1500
5,45,101,32
5,45,0,1500
5,45,93,36
5,45,0,1500
5,45,91,34
5,45,0,1500
5,45,90,36
5,45,0,1404
5,42,103,136
5,54,98,0
5,54,0,1116
5,42,0,0
5,54,91,30
5,42,95,2
5,54,0,346
5,42,0,2
5,52,94,32
5,40,100,4
5,52,0,1112
5,52,95,234
5,40,0,154
5,52,0,18
5,42,103,18
5,54,100,6
5,42,0,1110
5,54,0,6
5,54,91,28
5,42,103,4
5,54,0,344
5,42,0,4
5,52,103,38
5,40,109,2
5,52,0,1114
5,40,0,2
5,52,98,36
5,40,109,2
5,52,0,346
5,40,0,2
5,54,109,24
5,42,100,6
5,54,0,1110
5,42,0,6
5,54,90,38
5,42,106,4
5,54,0,344
5,42,0,4
5,52,99,26
5,40,96,2
5,52,0,1498
5,40,0,2
5,45,108,34
5,52,92,8
5,45,0,90
5,52,0,2
6,62,105,3938
6,67,105,4
6,71,99,0
6,62,0,532
6,71,0,4
6,67,0,0
6,69,92,30
6,62,109,2
6,69,0,342
6,62,0,2
6,62,102,42
6,67,92,6
6,71,102,2
6,62,0,528
6,67,0,6
6,71,0,2
6,66,98,30
6,62,92,0
6,69,106,12
6,62,0,716
6,66,0,0
6,69,0,12
6,62,90,34
6,67,100,2
6,62,0,342
6,67,0,2
6,62,100,34
6,69,109,6
6,66,109,6
6,62,0,332
6,69,0,6
6,66,0,6
6,71,101,24
6,62,101,2
6,67,95,6
6,71,0,528
6,62,0,2
6,67,0,6
6,62,106,42
6,69,99,2
6,62,0,342
6,69,0,2
6,71,95,28
6,62,104,8
6,67,102,0
6,71,0,528
6,67,0,8
6,62,0,0
6,69,97,32
6,66,100,2
6,62,105,6
6,69,0,1488
6,66,0,2
6,62,0,6
6,71,102,36
6,62,96,2
6,67,95,4
6,71,0,722
6,62,0,2
6,67,0,4
6,71,104,38
6,62,103,2
6,67,103,2
6,71,0,724
6,62,0,2
6,67,0,2
6,66,92,30
6,62,97,4
6,69,109,6
6,66,0,526
6,62,0,4
6,69,0,6
6,62,95,38
6,66,99,0
6,69,100,4
6,66,0,532
6,62,0,0
6,69,0,4
6,62,108,32
6,69,100,10
6,66,98,0
6,62,0,334
6,66,0,10
6,69,0,0
6,71,101,30
6,67,94,0
6,62,97,2
6,67,0,534
6,71,0,0
6,62,0,2
6,67,108,32
6,62,102,4
6,71,92,4
6,67,0,528
6,62,0,4
6,71,0,4
6,71,97,38
6,62,109,2
6,67,98,0
6,71,0,342
6,67,0,2
6,62,0,0
6,64,90,36
6,60,96,2
6,69,97,8
6,64,0,162
6,60,0,2
6,69,0,8
6,69,104,16
6,69,0,88
6,64,96,10
6,64,0,264
6,69,109,12
6,64,102,2
6,60,99,6
6,69,0,336
6,64,0,2
6,60,0,6
6,64,91,36
6,69,93,2
6,60,95,2
6,64,0,156
6,69,0,2
6,60,0,2
6,64,106,22
6,69,100,4
6,60,92,12
6,64,0,248
6,69,0,4
6,60,0,12
6,76,106,106
6,72,93,4
6,67,104,2
6,76,0,722
6,74,94,50
6,76,108,378
6,74,0,158
6,76,0,186
6,72,0,0
6,67,0,2
6,69,108,38
6,78,92,4
6,74,103,6
6,78,0,722
6,76,95,32
6,78,99,396
6,76,0,332
6,69,0,4
6,78,0,8
6,74,0,2
6,72,101,32
6,79,100,4
6,76,94,2
6,79,0,342
6,76,0,2
6,76,99,32
6,76,0,344
6,79,93,46
6,79,0,344
6,76,107,42
6,72,0,338
6,76,0,6
6,78,95,30
6,81,99,4
6,74,104,6
6,78,0,910
6,81,0,4
6,74,0,6
6,74,97,26
6,81,100,2
6,78,109,10
6,74,0,524
6,81,0,2
6,78,0,10
6,67,98,32
6,71,104,4
6,62,95,4
6,67,0,528
6,71,0,4
6,62,0,4
6,69,102,42
6,62,99,2
6,69,0,534
6,62,0,2
6,71,100,30
6,67,99,6
6,62,104,2
6,71,0,336
6,67,0,6
6,62,0,2
6,69,102,28
6,66,92,8
6,62,100,4
6,69,0,716
6,66,0,8
6,62,0,4
6,67,97,36
6,62,95,6
6,67,0,338
6,62,0,6
6,62,91,32
6,69,95,2
6,66,108,2
6,62,0,340
6,69,0,2
6,66,0,2
6,67,92,32
6,71,98,0
6,62,106,4
6,71,0,532
6,67,0,0
6,62,0,4
6,62,102,38
6,69,109,8
6,62,0,336
6,69,0,8
6,67,109,38
6,71,107,0
6,62,99,2
6,71,0,534
6,67,0,0
6,62,0,2
6,62,96,30
6,69,104,2
6,66,102,2
6,62,0,1492
6,69,0,2
6,66,0,2
6,71,96,34
6,67,108,8
6,62,99,6
6,71,0,522
6,67,0,8
6,62,0,6
6,62,102,38
6,69,90,0
6,69,0,536
6,62,0,0
6,62,106,32
6,67,99,6
6,71,99,2
6,62,0,336
6,67,0,6
6,71,0,2
6,62,107,26
6,66,91,8
6,69,96,8
6,62,0,520
6,66,0,8
6,69,0,8
6,66,102,24
6,62,91,10
6,69,99,4
6,66,0,522
6,62,0,10
6,69,0,4
6,62,109,32
6,69,101,8
6,66,104,4
6,62,0,160
6,69,0,8
6,66,0,4
6,66,108,8
6,62,94,2
6,69,98,0
6,66,0,170
6,69,0,2
6,62,0,0
6,67,95,16
6,62,105,4
6,71,92,2
6,67,0,530
6,62,0,4
6,71,0,2
6,62,101,34
6,67,101,2
6,71,107,6
6,62,0,528
6,67,0,2
6,71,0,6
6,62,108,32
6,71,96,6
6,67,97,8
6,62,0,330
6,71,0,6
6,67,0,8
6,60,107,32
6,64,98,0
6,69,108,2
6,64,0,534
