track,note,velocity,time
1,33,127,2306
1,33,127,64
1,33,127,112
1,33,124,32
1,40,127,20
1,43,127,96
1,45,127,68
1,43,127,164
1,38,127,60
1,33,127,32
1,33,127,200
1,33,127,104
1,33,99,20
1,40,127,96
1,43,127,96
1,45,127,68
1,43,127,164
1,38,127,24
1,36,127,384
1,33,127,8
1,33,127,204
1,33,127,108
1,40,127,60
1,43,127,96
1,45,127,72
1,43,127,188
1,38,127,16
1,33,127,16
1,33,127,216
1,33,127,104
1,33,106,24
1,40,127,100
1,43,127,96
1,45,127,56
1,43,127,172
1,38,127,16
1,36,127,4
1,33,127,44
1,33,127,184
1,33,127,104
1,31,127,276
1,31,127,220
1,38,127,80
1,38,127,24
1,33,127,16
1,33,127,220
1,33,127,92
1,31,127,76
1,31,127,240
1,31,127,68
1,35,127,8
1,36,122,4
1,31,122,32
1,33,127,4
1,33,127,208
1,33,127,104
1,31,127,48
1,31,126,208
1,38,127,72
1,38,127,44
1,33,127,4
1,33,127,188
1,33,127,104
1,31,127,80
1,31,127,232
1,31,127,48
1,40,127,16
1,43,127,20
1,48,119,4
1,33,127,4
1,33,127,184
1,33,127,104
1,31,127,272
1,31,127,220
1,38,127,76
1,38,127,24
1,33,127,16
1,33,127,220
1,33,127,92
1,31,127,72
1,31,127,240
1,31,127,68
1,36,127,12
1,35,122,4
1,31,122,32
1,33,127,4
1,33,127,208
1,33,127,104
1,31,127,48
1,31,126,212
1,38,127,72
1,38,127,44
1,33,127,44
1,33,127,188
1,33,127,104
1,31,127,84
1,31,127,232
1,31,127,48
1,40,127,16
1,43,127,20
1,48,119,4
1,33,127,4
1,33,127,192
1,33,127,124
1,33,127,336
1,33,127,196
1,33,127,116
1,33,127,120
1,33,127,20
1,33,127,200
1,33,127,100
1,33,127,368
1,33,127,176
1,33,127,116
1,40,127,60
1,43,127,56
1,33,127,52
1,33,127,208
1,33,127,104
1,33,127,324
1,33,127,168
1,33,127,116
1,33,127,108
1,40,127,44
1,33,127,76
1,33,127,244
1,33,127,112
1,31,127,352
1,33,127,56
1,31,127,36
1,29,127,96
1,33,127,84
1,33,127,152
1,33,127,92
1,31,127,20
1,31,127,220
1,38,127,76
1,36,127,24
1,33,127,12
1,33,127,220
1,33,127,92
1,31,127,72
1,31,127,232
1,29,127,72
1,36,127,36
1,33,127,32
1,33,127,208
1,33,127,104
1,31,127,48
1,31,126,208
1,38,127,72
1,36,127,44
1,33,127,44
1,33,127,188
1,33,127,104
1,31,127,80
1,31,127,232
1,29,127,48
1,38,127,40
1,36,127,108
1,33,127,80
1,33,127,184
1,33,127,104
1,31,127,276
1,31,127,220
1,38,127,80
1,38,127,24
1,33,127,16
1,33,127,220
1,33,127,92
1,31,127,72
1,31,127,232
1,31,127,72
1,36,127,8
1,35,122,4
1,31,122,32
1,33,127,4
1,33,127,208
1,33,127,104
1,31,127,48
1,31,126,204
1,38,127,72
1,38,127,48
1,33,127,44
1,33,127,188
1,33,127,104
1,31,127,80
1,31,127,232
1,31,127,48
1,40,127,20
1,43,127,20
1,48,119,4
1,33,127,4
1,33,127,192
1,33,127,120
1,33,127,336
1,33,127,196
1,33,127,116
1,33,127,120
1,33,127,20
1,33,127,200
1,33,127,100
1,33,127,368
1,33,127,176
1,33,127,120
1,40,127,60
1,43,127,56
1,33,127,48
1,33,127,208
1,33,127,104
1,33,127,324
1,33,127,168
1,33,127,116
1,33,127,112
1,40,127,44
1,33,127,76
1,33,127,244
1,33,127,112
1,31,127,352
1,33,127,60
1,31,127,36
1,29,127,92
1,33,127,84
1,33,127,152
1,33,127,92
1,31,127,20
1,31,127,220
1,38,127,80
1,36,127,24
1,33,127,16
1,33,127,216
1,33,127,92
1,31,127,72
1,31,127,236
1,29,127,68
1,36,127,36
1,33,127,32
1,33,127,208
1,33,127,104
1,31,127,48
1,31,126,208
1,38,127,72
1,36,127,44
1,33,127,44
1,33,127,188
1,33,127,104
1,31,127,80
1,31,127,232
1,29,127,48
1,38,127,40
1,36,127,112
1,35,127,80
1,35,127,0
1,35,127,4
1,35,127,4
1,35,127,4
1,35,120,4
1,35,127,4
1,35,127,4
1,33,127,4
1,33,93,4
1,33,127,4
1,33,106,4
1,33,96,4
1,33,121,4
1,33,101,4
1,32,127,4
1,31,125,4
1,31,127,4
1,31,113,4
1,31,102,4
1,31,104,4
1,31,83,4
1,31,103,4
1,31,84,4
1,36,117,4
1,36,127,4
1,36,127,4
1,36,127,4
1,36,127,4
1,36,121,4
1,35,127,4
1,36,127,4
1,35,127,4
1,35,118,4
1,35,121,4
1,35,127,4
1,35,127,4
1,35,95,4
1,35,127,4
1,35,127,4
1,33,127,4
1,33,118,4
1,33,127,4
1,33,113,4
1,33,127,4
1,33,107,4
1,33,127,4
1,33,127,4
1,31,127,4
1,31,127,4
1,31,125,4
1,31,122,4
1,31,123,4
1,31,122,4
1,31,121,4
1,34,127,4
1,36,124,4
1,36,83,4
1,36,89,4
1,36,92,4
1,36,95,4
1,36,99,4
1,36,103,8
1,36,111,0
1,36,114,4
1,36,120,4
1,36,124,4
1,36,127,8
1,36,127,0
1,36,127,4
1,36,127,4
1,36,127,0
1,33,127,16
1,33,127,184
1,33,127,104
1,31,127,272
1,31,127,220
1,38,127,80
1,38,127,24
1,33,127,16
1,33,127,224
1,33,127,92
1,31,127,76
1,31,127,232
1,31,127,68
1,36,127,12
1,35,122,4
1,31,122,32
1,33,127,4
1,33,127,212
1,33,127,104
1,31,127,48
1,31,126,204
1,38,127,72
1,38,127,44
1,33,127,44
1,33,127,188
1,33,127,104
1,31,127,84
1,31,127,232
1,31,127,48
1,40,127,20
1,43,127,20
1,48,119,4
1,33,127,4
1,33,127,192
1,33,127,120
1,33,127,336
1,33,127,196
1,33,127,116
1,33,127,120
1,33,127,20
1,33,127,200
1,33,127,100
1,33,127,368
1,33,127,176
1,33,127,120
1,40,127,60
1,43,127,56
1,33,127,52
1,33,127,208
1,33,127,104
1,33,127,320
1,33,127,168
1,33,127,116
1,33,127,112
1,40,127,44
1,33,127,76
1,33,127,244
1,33,127,112
1,31,127,352
1,33,127,56
1,31,127,36
1,29,127,92
1,33,127,84
1,33,127,152
1,33,127,92
1,31,127,20
1,31,127,220
1,38,127,80
1,36,127,24
1,33,127,16
1,33,127,216
1,33,127,92
1,31,127,76
1,31,127,236
1,29,127,68
1,36,127,36
1,33,127,32
1,33,127,208
1,33,127,104
1,31,127,48
1,31,126,208
1,38,127,72
1,36,127,44
1,33,127,44
1,33,127,188
1,33,127,100
1,31,127,80
1,31,127,232
1,29,127,48
1,38,127,40
1,36,127,108
1,33,127,80
1,33,127,180
1,33,127,104
1,31,127,276
1,31,127,220
1,38,127,80
1,36,127,24
1,33,127,12
1,33,127,220
1,33,127,92
1,31,127,72
1,31,127,236
1,29,127,68
1,36,127,36
1,33,127,32
2,45,108,14518
2,57,101,0
2,60,102,0
2,64,98,0
2,43,104,24
2,55,102,0
2,59,107,0
2,62,98,0
2,38,87,4
2,53,92,0
2,57,101,0
2,60,81,0
2,45,101,2
2,57,102,0
2,60,107,0
2,64,97,0
2,43,108,40
2,59,102,0
2,62,98,0
2,67,101,0
2,45,108,24
2,57,101,0
2,60,102,0
2,64,98,0
2,43,104,24
2,55,102,0
2,59,107,0
2,62,98,0
2,38,87,4
2,53,92,0
2,57,101,0
2,60,81,0
2,45,101,2
2,57,102,0
2,60,107,0
2,64,97,0
2,43,108,40
2,59,102,0
2,62,98,0
2,67,101,0
2,45,108,24
2,57,101,0
2,60,102,0
2,64,98,0
2,43,104,24
2,55,102,0
2,59,107,0
2,62,98,0
2,38,87,4
2,53,92,0
2,57,101,0
2,60,81,0
2,45,101,2
2,57,102,0
2,60,107,0
2,64,97,0
2,43,108,40
2,59,102,0
2,62,98,0
2,67,101,0
2,45,108,24
2,57,101,0
2,60,102,0
2,64,98,0
2,43,104,24
2,55,102,0
2,59,107,0
2,62,98,0
2,38,87,4
2,53,92,0
2,57,101,0
2,60,81,0
2,45,101,2
2,57,102,0
2,60,107,0
2,64,97,0
2,43,108,40
2,59,102,0
2,62,98,0
2,67,101,0
2,71,98,960
2,83,98,0
2,72,99,32
2,84,99,0
2,79,97,192
2,91,97,0
2,45,108,24396
2,57,101,0
2,60,102,0
2,64,98,0
2,43,104,24
2,55,102,0
2,59,107,0
2,62,98,0
2,38,87,4
2,53,92,0
2,57,101,0
2,60,81,0
2,45,101,2
2,57,102,0
2,60,107,0
2,64,97,0
2,43,108,40
2,59,102,0
2,62,98,0
2,67,101,0
2,45,108,24
2,57,101,0
2,60,102,0
2,64,98,0
2,43,104,24
2,55,102,0
2,59,107,0
2,62,98,0
2,38,87,4
2,53,92,0
2,57,101,0
2,60,81,0
2,45,101,2
2,57,102,0
2,60,107,0
2,64,97,0
2,43,108,40
2,59,100,0
2,62,98,0
2,67,101,0
2,71,107,960
2,83,107,0
2,72,102,24
2,84,102,0
2,79,108,176
2,91,108,0
2,69,127,2064
2,79,127,192
2,69,127,164
2,76,127,172
2,69,127,5012
2,79,127,192
2,69,127,0
2,76,127,192
2,71,127,16504
2,83,127,0
2,72,126,192
2,84,126,0
2,76,127,160
2,88,127,0
2,69,127,4108
2,81,127,0
2,71,127,36
2,83,127,0
2,79,127,192
2,91,127,0
2,71,126,368
2,83,126,0
2,72,127,4
2,84,127,0
2,81,127,192
2,93,127,0
2,76,123,68
2,88,123,0
2,83,127,12
2,95,127,0
2,84,127,604
2,96,127,0
2,86,127,44
2,98,127,0
2,79,127,12
2,91,127,0
2,45,108,2328
2,57,101,0
2,60,102,0
2,64,98,0
2,43,104,24
2,55,102,0
2,59,107,0
2,62,98,0
2,38,87,4
2,53,92,0
2,57,101,0
2,60,81,0
2,45,101,2
2,57,102,0
2,60,107,0
2,64,97,0
2,43,108,36
2,59,102,0
2,62,98,0
2,67,101,0
2,45,108,24
2,57,101,0
2,60,102,0
2,64,98,0
2,43,104,24
2,55,102,0
2,59,107,0
2,62,98,0
2,38,87,4
2,53,92,0
2,57,101,0
2,60,81,0
2,45,101,2
2,57,102,0
2,60,107,0
2,64,97,0
2,43,108,40
2,59,102,0
2,62,98,0
2,67,101,0
2,71,107,960
2,83,107,0
2,72,102,192
2,84,102,0
2,79,108,176
2,91,108,0
2,69,127,2064
2,79,127,192
2,69,127,164
2,76,127,172
2,69,127,5016
2,79,127,192
2,69,127,152
2,76,127,188
3,64,117,14614
3,65,117,84
3,67,117,116
3,65,117,36
3,64,114,88
3,62,117,112
3,60,117,60
3,59,117,84
3,57,117,112
3,67,117,704
3,65,117,72
3,64,117,100
3,62,117,100
3,67,117,116
3,64,117,732
3,67,117,92
3,65,117,72
3,64,117,68
3,62,117,96
3,60,102,32
3,59,113,64
3,57,117,120
3,64,114,148
3,64,117,36
3,65,117,56
3,67,117,72
3,65,116,48
3,64,116,64
3,62,117,112
3,67,117,88
3,64,106,612
3,65,106,52
3,67,115,124
3,62,113,236
3,60,99,20
3,59,108,72
3,57,114,104
3,64,101,492
3,65,109,40
3,67,113,104
3,65,103,4
3,64,106,36
3,62,116,112
3,67,112,20
3,64,101,612
3,64,104,52
3,65,101,8
3,67,115,108
3,67,112,80
3,65,101,4
3,64,101,4
3,62,112,4
3,60,111,4
3,59,103,0
3,57,103,4
3,64,105,340
3,65,97,0
3,67,113,80
3,65,109,0
3,64,106,4
3,62,117,4
3,67,113,52
3,69,108,620
3,64,111,456
3,64,109,220
3,55,106,112
3,57,96,0
3,60,106,96
3,64,111,104
3,64,103,60
3,62,116,24
3,60,101,4
3,62,117,96
3,60,101,12
3,62,117,112
3,60,103,20
3,62,117,116
3,64,112,52
3,64,113,136
3,69,112,348
3,64,113,660
3,64,111,252
3,55,106,64
3,57,101,4
3,60,106,100
3,64,111,132
3,64,107,44
3,62,113,44
3,60,106,8
3,62,116,136
3,60,106,0
3,57,101,4
3,62,115,128
3,62,101,36
3,64,109,60
3,64,106,76
3,62,117,56
3,60,109,24
3,57,113,4
3,64,103,2108
3,62,113,4
3,60,96,16
3,64,116,8
3,57,116,4
3,62,113,2368
3,60,109,12
3,62,117,4
3,57,110,4
3,62,113,2368
3,60,103,4
3,62,117,4
3,64,111,4
3,64,117,2976
3,65,117,88
3,67,117,116
3,65,117,36
3,64,114,88
3,62,117,112
3,60,117,60
3,59,117,84
3,57,117,112
3,67,117,324
3,67,117,100
3,67,117,96
3,65,117,72
3,64,117,100
3,62,117,100
3,67,117,112
3,64,117,532
3,65,117,108
3,67,117,88
3,67,117,72
3,65,117,0
3,64,117,68
3,62,117,96
3,60,102,32
3,59,113,64
3,57,117,120
3,64,117,340
3,65,117,108
3,67,117,96
3,65,116,24
3,64,116,64
3,62,117,112
3,67,117,88
3,69,101,420
3,64,111,460
3,64,109,224
3,55,106,112
3,57,96,0
3,60,106,96
3,64,111,108
3,64,103,40
3,62,116,24
3,60,101,4
3,62,117,96
3,60,101,12
3,62,117,116
3,60,103,24
3,62,117,116
3,64,112,52
3,64,113,132
3,69,112,348
3,64,113,664
3,64,111,252
3,55,106,64
3,57,101,4
3,60,106,104
3,64,111,132
3,64,110,56
3,62,113,52
3,60,106,180
3,62,116,136
3,60,106,0
3,57,101,4
3,62,115,148
3,62,101,36
3,64,109,68
3,64,106,76
3,62,117,56
3,60,109,24
3,57,113,4
3,64,103,2204
3,62,113,4
3,60,96,12
3,64,116,12
3,57,116,4
3,62,113,2372
3,60,109,12
3,62,117,4
3,57,110,4
3,62,113,2368
3,60,103,4
3,62,117,4
3,64,111,4
3,67,101,3536
3,65,110,20
3,64,104,0
3,62,116,324
3,64,110,192
3,62,113,16
3,62,117,124
3,62,116,104
3,62,117,128
3,60,104,0
3,62,117,12
3,60,112,0
3,67,113,196
3,67,117,176
3,69,114,380
3,67,117,376
3,64,117,28
3,67,117,152
3,65,117,184
3,64,117,12
3,60,106,296
3,62,109,212
3,64,101,168
3,62,112,20
3,62,116,124
3,62,112,40
3,60,104,20
3,67,114,216
3,64,117,2388
3,65,117,88
3,67,117,116
3,65,117,40
3,64,114,88
3,62,117,112
3,60,117,60
3,59,117,84
3,57,117,108
3,64,117,324
3,65,117,100
3,67,117,96
3,65,117,72
3,64,117,100
3,62,117,100
3,67,117,116
3,64,110,348
3,64,106,112
3,64,106,44
3,65,101,288
3,67,113,60
3,65,112,268
3,64,103,256
3,62,110,208
3,60,106,176
3,59,103,192
3,57,107,188
3,64,117,536
3,65,117,28
3,67,117,100
3,65,116,28
3,64,116,64
3,62,117,112
3,67,117,88
3,69,112,420
3,64,111,460
3,64,109,224
3,55,106,112
3,57,96,0
3,60,106,96
3,64,111,108
3,64,103,60
3,62,116,24
3,60,101,4
3,62,117,96
3,60,101,12
3,62,117,116
3,60,103,20
3,62,117,116
3,64,112,52
3,64,113,136
3,69,112,348
3,64,113,664
3,64,111,252
3,55,106,64
3,57,101,4
3,60,106,104
3,64,111,132
3,64,105,44
3,62,113,48
3,60,106,8
3,62,116,136
3,60,106,0
3,57,101,4
3,62,115,132
3,62,101,80
3,64,109,68
3,64,106,76
3,62,117,56
3,60,109,28
3,57,113,4
3,76,103,2108
3,74,113,4
3,72,96,12
3,76,116,8
3,69,116,4
3,74,113,2368
3,72,109,12
3,74,117,4
3,69,110,4
3,74,113,2364
3,72,103,4
3,74,117,4
3,76,111,4
3,74,112,2208
3,76,116,16
3,79,113,84
3,81,106,124
3,81,106,108
3,81,110,112
3,72,106,312
3,74,117,132
3,79,104,52
3,77,113,124
3,74,115,204
3,76,112,128
3,69,110,16
3,69,112,144
3,74,117,1108
3,76,111,196
3,79,111,88
3,84,113,104
4,69,95,2206
4,72,96,0
4,76,90,0
4,67,73,4
4,71,77,0
4,74,88,0
4,76,81,0
4,65,67,4
4,69,73,0
4,72,82,0
4,76,81,0
4,69,86,4
4,72,90,0
4,76,81,0
4,67,69,4
4,71,77,0
4,74,91,0
4,76,80,0
4,65,79,4
4,69,78,0
4,72,58,0
4,69,86,4
4,72,90,0
4,76,81,0
