track,note,velocity,time
2,72,100,40
2,72,0,280
2,74,100,0
2,74,0,6
2,74,100,0
2,74,0,2
2,72,100,0
2,72,0,4
2,72,100,0
2,72,0,552
2,72,103,4
2,74,103,240
2,72,0,2
2,72,101,548
2,74,0,6
2,72,0,4
2,72,108,4
2,74,107,182
2,72,0,30
2,76,111,66
2,74,0,18
2,72,98,2
2,76,0,16
2,77,111,692
2,72,0,16
2,72,108,2
2,77,0,14
2,74,110,240
2,72,0,12
2,74,0,754
2,72,108,4
2,77,111,776
2,72,0,22
2,77,0,2
2,72,108,12
2,74,110,122
2,72,0,2
2,74,0,702
2,76,109,0
2,76,0,8
2,72,104,6
2,72,0,1020
2,72,98,0
2,74,100,90
2,72,0,16
2,74,0,116
2,72,98,4
2,74,100,272
2,72,0,16
2,74,0,116
2,72,98,4
2,74,100,272
2,72,0,16
2,74,0,116
2,72,98,4
2,74,100,272
2,72,0,16
2,74,0,116
2,72,98,4
2,74,100,272
2,72,0,16
2,74,0,116
2,72,98,4
2,74,100,272
2,72,0,16
2,74,0,116
2,72,98,4
2,74,100,272
2,72,0,16
2,74,0,116
2,72,98,4
2,74,100,272
2,72,0,16
2,74,0,116
2,72,98,4
2,74,100,272
2,72,0,16
2,74,0,116
2,72,98,4
2,74,100,272
2,72,0,16
2,74,0,116
2,72,98,4
2,74,100,272
2,72,0,16
2,74,0,116
2,72,98,4
2,74,100,272
2,72,0,16
2,74,0,116
2,72,98,4
2,74,100,272
2,72,0,16
2,74,0,116
2,72,98,4
2,74,100,272
2,72,0,16
2,74,0,116
2,72,98,4
2,74,100,272
2,72,0,16
2,74,0,116
2,72,98,4
2,74,100,272
2,72,0,16
2,74,0,116
2,72,98,4
2,74,100,272
2,72,0,16
2,74,0,20
2,72,98,128
2,74,100,272
2,72,0,16
2,74,0,8
2,72,98,124
2,74,100,272
2,72,0,16
2,74,0,272
2,72,98,208
2,74,100,80
2,72,0,16
2,74,0,16
2,64,103,202
2,64,0,26
2,86,77,1142
2,93,91,212
2,86,0,16
2,93,0,26
2,65,93,1144
2,64,68,192
2,65,0,12
2,62,85,88
2,64,0,20
2,62,0,80
2,64,93,0
2,62,100,60
2,64,0,12
2,60,100,48
2,62,0,24
2,60,0,146
2,76,104,772
2,76,0,16
2,74,108,20
2,74,0,24
2,74,108,0
2,74,0,46
2,65,98,6726
2,67,96,128
2,65,0,16
2,69,93,88
2,67,0,28
2,69,0,76
2,69,98,40
2,67,101,136
2,69,0,28
2,65,98,96
2,67,0,20
2,65,0,76
2,74,109,28
2,74,0,548
2,79,101,20
2,79,0,464
2,72,98,340
2,74,100,272
2,72,0,16
2,74,0,116
2,72,98,4
2,74,100,272
2,72,0,16
2,74,0,116
2,72,98,4
2,74,100,272
2,72,0,16
2,74,0,116
2,72,98,4
2,74,100,272
2,72,0,16
2,74,0,116
2,72,98,4
2,74,100,272
2,72,0,16
2,74,0,116
2,72,98,4
2,74,100,272
2,72,0,16
2,74,0,116
2,72,98,4
2,74,100,272
2,72,0,16
2,74,0,116
2,72,98,4
2,74,100,272
2,72,0,16
2,74,0,116
2,72,98,4
2,74,100,28
2,72,0,16
2,74,0,116
2,72,98,4
2,74,100,272
2,72,0,16
2,74,0,28
2,72,98,4
2,74,100,94
2,72,0,16
2,74,0,116
2,72,98,4
2,74,100,94
2,72,0,16
2,74,0,94
2,72,98,4
2,74,100,122
2,72,0,16
2,74,0,28
2,72,98,4
2,74,100,80
2,72,0,16
2,74,0,116
2,72,98,4
2,74,100,124
2,72,0,16
2,74,0,116
2,72,98,4
2,74,100,272
2,72,0,16
2,74,0,66
2,72,98,4
2,74,100,60
2,72,0,16
2,74,0,66
2,72,98,4
2,74,100,94
2,72,0,16
2,74,0,116
2,72,98,4
2,74,100,94
2,72,0,16
2,74,0,96
2,72,98,4
2,74,100,94
2,72,0,16
2,74,0,96
2,72,98,4
2,74,100,58
2,72,0,16
2,74,0,14
2,72,98,4
2,74,100,64
2,72,0,16
2,74,0,46
2,72,98,4
2,74,100,172
2,72,0,16
2,74,0,46
2,72,98,4
2,74,100,14
2,72,0,16
2,74,0,60
2,72,98,4
2,74,100,266
2,72,0,16
2,74,0,116
3,72,100,40
3,72,0,280
3,74,100,0
3,74,0,6
3,74,100,0
3,74,0,2
3,72,100,0
3,72,0,4
3,72,100,0
3,72,0,552
3,72,103,4
3,74,103,68
3,72,0,2
3,72,101,68
3,74,0,6
3,72,0,4
3,72,108,0
3,74,107,68
3,72,0,30
3,76,111,68
3,74,0,18
3,72,98,2
3,76,0,16
3,77,111,94
3,72,0,16
3,72,108,2
3,77,0,14
3,74,110,240
3,72,0,12
3,74,0,64
3,72,108,4
3,77,111,776
3,72,0,34
3,77,0,2
3,72,108,12
3,74,110,226
3,72,0,2
3,74,0,68
3,76,109,0
3,76,0,8
3,72,104,6
3,72,0,68
3,74,100,346
3,74,0,20
3,74,100,400
3,74,0,8
3,74,100,396
3,74,0,288
3,74,100,80
3,74,0,16
3,64,103,202
3,64,0,26
3,86,77,1142
3,93,91,212
3,86,0,16
3,93,0,26
3,65,93,1144
3,64,68,192
3,65,0,12
3,62,85,88
3,64,0,20
3,62,0,80
3,64,93,0
3,62,100,60
3,64,0,12
3,60,100,48
3,62,0,24
3,60,0,146
3,76,104,772
3,76,0,16
3,74,108,20
3,74,0,24
3,74,108,0
3,74,0,46
3,65,98,6726
3,67,96,128
3,65,0,16
3,69,93,88
3,67,0,28
3,69,0,76
3,69,98,40
3,67,101,136
3,69,0,28
3,65,98,96
3,67,0,20
3,65,0,76
3,74,109,28
3,74,0,548
3,79,101,20
3,79,0,464
4,72,100,40
4,72,0,280
4,74,100,0
4,74,0,6
4,74,100,0
4,74,0,2
4,72,100,0
4,72,0,4
4,72,100,0
4,72,0,552
4,74,100,410
4,74,0,20
4,74,100,404
4,74,0,8
4,74,100,404
4,74,0,288
4,74,100,80
4,74,0,16
4,64,103,202
4,64,0,26
4,86,77,1142
4,93,91,212
4,86,0,16
4,93,0,26
4,65,93,1144
4,64,68,192
4,65,0,12
4,62,85,88
4,64,0,20
4,62,0,80
4,64,93,0
4,62,100,60
4,64,0,12
4,60,100,48
4,62,0,24
4,60,0,146
4,76,104,772
4,76,0,16
4,74,108,20
4,74,0,24
4,74,108,0
4,74,0,46
4,65,98,6726
4,67,96,128
4,65,0,16
4,69,93,88
4,67,0,28
4,69,0,76
4,69,98,40
4,67,101,136
4,69,0,28
4,65,98,96
4,67,0,20
4,65,0,76
4,74,109,28
4,74,0,548
4,79,101,20
4,79,0,464
5,69,100,12864
5,69,0,96
5,71,100,0
5,71,0,96
5,72,100,0
5,72,0,288
5,69,100,0
5,69,0,96
5,67,100,0
5,65,100,288
5,67,0,4
5,65,0,92
5,67,100,0
5,67,0,192
5,69,100,0
5,69,0,96
5,69,100,0
5,69,0,1252
5,69,100,572
5,69,0,96
5,72,100,0
5,72,0,96
5,72,100,0
5,72,0,384
5,69,100,0
5,69,0,192
5,72,100,0
5,72,0,192
5,74,100,0
5,74,0,1536
5,69,100,576
5,69,0,96
5,71,100,0
5,71,0,96
5,72,100,0
5,72,0,288
5,69,100,0
5,69,0,96
5,67,100,0
5,65,100,288
5,67,0,4
5,65,0,92
5,67,100,0
5,67,0,192
5,69,100,0
5,69,0,96
5,69,100,0
5,69,0,1252
5,69,100,572
5,69,0,96
5,72,100,0
5,72,0,96
5,72,100,0
5,72,0,384
5,69,100,0
5,69,0,192
5,72,100,0
5,72,0,192
5,74,100,0
5,74,0,1152
5,62,100,288
5,62,0,48
5,64,100,0
5,64,0,48
5,65,100,0
5,65,0,576
5,62,100,0
5,62,0,192
5,60,100,0
5,60,0,576
5,57,100,0
5,57,0,192
5,60,100,0
5,60,0,288
5,62,100,0
5,62,0,96
5,62,100,0
5,62,0,768
5,62,100,288
5,62,0,48
5,64,100,0
5,64,0,48
5,65,100,0
5,65,0,576
5,69,100,0
5,69,0,192
5,67,100,0
5,67,0,576
5,64,100,0
5,64,0,192
5,60,100,0
5,60,0,576
5,67,100,0
5,67,0,192
5,65,100,0
5,65,0,484
5,62,100,188
5,62,0,48
5,64,100,0
5,64,0,48
5,65,100,0
5,62,100,480
5,65,0,4
5,62,0,188
5,62,100,0
5,62,0,480
5,62,100,288
5,62,0,48
5,64,100,0
5,64,0,48
5,65,100,0
5,62,100,480
5,65,0,4
5,62,0,188
5,62,100,0
5,62,0,336
5,55,100,0
5,55,0,48
5,57,100,0
5,57,0,48
5,60,100,0
5,60,0,48
5,62,100,0
5,62,0,48
5,65,100,0
5,65,0,48
5,67,100,0
5,67,0,48
5,69,100,0
5,69,0,48
5,72,100,0
5,72,0,48
5,74,100,0
5,74,0,48
5,77,100,0
5,77,0,48
5,74,100,0
5,74,0,432
5,69,100,192
5,69,0,96
5,70,100,0
5,70,0,96
5,72,100,0
5,72,0,288
5,69,100,0
5,69,0,96
5,67,100,0
5,65,100,288
5,67,0,4
5,65,0,92
5,67,100,0
5,67,0,192
5,69,100,0
5,69,0,96
5,69,100,0
5,69,0,576
5,65,98,82
5,67,94,88
5,65,0,16
5,67,0,42
5,67,100,30
5,69,94,66
5,67,0,16
5,69,0,64
5,69,100,844
5,69,0,96
5,72,100,0
5,72,0,96
5,72,100,0
5,72,0,384
5,69,100,0
5,69,0,192
5,72,100,0
5,72,0,192
5,74,100,0
5,74,103,558
5,74,0,18
5,76,82,32
5,74,85,66
5,76,0,26
5,69,101,54
5,74,0,16
5,71,96,58
5,69,0,34
5,69,82,28
5,71,0,22
5,65,89,58
5,69,0,20
5,67,61,34
5,65,0,20
5,65,77,42
5,67,0,30
5,74,0,0
5,62,90,36
5,65,0,22
5,62,0,368
5,69,100,570
5,69,0,96
5,71,100,0
5,71,0,96
5,72,100,0
5,72,0,288
5,69,100,0
5,69,0,96
5,67,100,0
5,65,100,288
5,67,0,4
5,65,0,92
5,67,100,0
5,67,0,192
5,69,100,0
5,69,0,96
5,69,100,0
5,69,0,292
5,65,84,12
5,67,94,76
5,65,0,8
5,67,0,46
5,67,90,46
5,69,83,54
5,67,0,16
5,67,69,50
5,69,0,34
5,65,74,28
5,67,0,18
5,64,85,36
5,65,0,22
5,62,94,46
5,64,0,8
5,62,0,236
5,69,100,796
5,69,0,96
5,72,100,0
5,72,0,96
5,72,100,0
5,72,0,384
5,69,100,0
5,69,0,192
5,72,100,0
5,72,0,192
5,74,100,0
5,74,0,232
5,74,85,38
5,75,91,18
5,74,0,32
5,76,97,14
5,75,0,24
5,74,101,220
5,76,0,14
5,74,0,178
5,69,93,0
5,71,89,54
5,69,0,16
5,69,91,42
5,71,0,12
5,65,94,50
5,69,0,18
5,67,75,32
5,65,0,14
5,65,73,40
5,67,0,34
5,65,0,54
5,62,93,0
5,64,93,58
5,62,0,22
5,65,90,36
5,64,0,22
5,64,92,36
5,65,0,22
5,64,0,362
5,62,105,238
5,64,93,50
5,62,0,30
5,65,100,20
5,64,0,30
5,67,87,36
5,65,0,30
5,69,98,54
5,67,0,20
5,67,93,72
5,69,0,16
5,64,102,578
5,67,0,12
5,64,0,172
5,62,105,0
5,62,0,810
5,69,106,552
5,72,100,186
5,69,0,6
5,69,103,44
5,72,0,22
5,67,96,32
5,69,0,18
5,72,79,46
5,67,0,8
5,69,101,38
5,72,0,28
5,67,96,26
5,69,0,20
5,64,102,328
5,67,0,34
5,64,0,158
5,60,108,0
5,59,103,658
5,60,0,20
5,58,104,12
5,59,0,22
5,57,89,20
5,58,0,20
5,67,105,534
5,57,0,16
5,65,106,202
5,67,0,2
5,65,0,46
5,67,106,0
5,67,0,48
5,65,106,0
5,65,0,384
5,62,107,1046
5,64,101,126
5,62,0,24
5,65,100,100
5,64,0,8
5,69,105,116
5,65,0,18
5,69,0,132
5,67,100,0
5,72,105,184
5,67,0,16
5,69,104,92
5,72,0,4
5,76,105,220
5,69,0,8
5,74,96,96
5,76,0,18
5,69,87,240
5,74,0,26
5,67,101,448
5,65,100,26
5,69,0,4
5,67,0,16
5,64,103,22
5,65,0,12
5,64,0,300
5,69,100,28282
5,69,0,96
5,71,100,0
5,71,0,96
5,72,100,0
5,72,0,288
5,69,100,0
5,69,0,96
5,67,100,0
5,65,100,288
5,67,0,4
5,65,0,92
5,67,100,0
5,67,0,192
5,69,100,0
5,69,0,96
5,69,100,0
5,69,0,1252
5,69,100,572
5,69,0,96
5,72,100,0
5,72,0,96
5,72,100,0
5,72,0,384
5,69,100,0
5,69,0,192
5,72,100,0
5,72,0,192
5,74,100,0
5,74,0,1536
5,69,100,576
5,69,0,96
5,71,100,0
5,71,0,96
5,72,100,0
5,72,0,288
5,69,100,0
5,69,0,96
5,67,100,0
5,65,100,288
5,67,0,4
5,65,0,92
5,67,100,0
5,67,0,192
5,69,100,0
5,69,0,96
5,69,100,0
5,69,0,1252
5,69,100,572
5,69,0,96
5,72,100,0
5,72,0,96
5,72,100,0
5,72,0,384
5,69,100,0
5,69,0,192
5,72,100,0
5,72,0,192
5,74,100,0
5,74,0,1152
5,62,100,288
5,62,0,48
5,64,100,0
5,64,0,48
5,65,100,0
5,65,0,576
5,62,100,0
5,62,0,192
5,60,100,0
5,60,0,576
5,57,100,0
5,57,0,192
5,60,100,0
5,60,0,288
5,62,100,0
5,62,0,96
5,62,100,0
5,62,0,768
5,62,100,288
5,62,0,48
5,64,100,0
5,64,0,48
5,65,100,0
5,65,0,576
5,69,100,0
5,69,0,192
5,67,100,0
5,67,0,576
5,64,100,0
5,64,0,192
5,60,100,0
5,60,0,576
5,67,100,0
5,67,0,192
5,65,100,0
5,65,0,484
5,62,100,188
5,62,0,48
5,64,100,0
5,64,0,48
5,65,100,0
5,62,100,480
5,65,0,4
5,62,0,188
5,62,100,0
5,62,0,480
5,62,100,288
5,62,0,48
5,64,100,0
5,64,0,48
5,77,100,0
5,77,0,480
5,72,100,72
5,72,0,24
5,74,100,0
5,74,0,96
5,72,100,0
5,72,0,336
5,72,100,96
5,72,0,48
5,70,100,0
5,70,0,48
5,67,100,0
5,67,0,192
6,69,100,12928
6,69,0,96
6,71,100,0
6,71,0,96
6,72,100,0
6,72,0,288
6,69,100,0
6,69,0,96
6,67,100,0
6,65,100,288
6,67,0,4
6,65,0,92
6,67,100,0
6,67,0,192
6,69,100,0
6,69,0,96
6,69,100,0
6,69,0,1252
6,69,100,572
6,69,0,96
6,72,100,0
6,72,0,96
6,72,100,0
6,72,0,384
6,69,100,0
6,69,0,192
6,72,100,0
6,72,0,192
6,74,100,0
6,74,0,1536
6,69,100,576
6,69,0,96
6,71,100,0
6,71,0,96
6,72,100,0
6,72,0,288
6,69,100,0
6,69,0,96
6,67,100,0
6,65,100,288
6,67,0,4
6,65,0,92
6,67,100,0
6,67,0,192
6,69,100,0
6,69,0,96
6,69,100,0
6,69,0,1252
6,69,100,572
6,69,0,96
6,72,100,0
6,72,0,96
6,72,100,0
6,72,0,384
6,69,100,0
6,69,0,192
6,72,100,0
6,72,0,192
6,74,100,0
6,74,0,1152
6,62,100,288
6,62,0,48
6,64,100,0
6,64,0,48
6,65,100,0
6,65,0,576
6,62,100,0
6,62,0,192
6,60,100,0
6,60,0,576
6,57,100,0
6,57,0,192
6,60,100,0
6,60,0,288
6,62,100,0
6,62,0,96
6,62,100,0
6,62,0,768
6,62,100,288
6,62,0,48
6,64,100,0
6,64,0,48
6,65,100,0
6,65,0,576
6,69,100,0
6,69,0,192
6,67,100,0
6,67,0,576
6,64,100,0
6,64,0,192
6,60,100,0
6,60,0,576
6,67,100,0
6,67,0,192
6,65,100,0
6,65,0,484
6,62,100,188
6,62,0,48
6,64,100,0
6,64,0,48
6,65,100,0
6,62,100,480
6,65,0,4
6,62,0,188
6,62,100,0
6,62,0,480
6,62,100,288
6,62,0,48
6,64,100,0
6,64,0,48
6,65,100,0
6,62,100,480
6,65,0,4
6,62,0,188
6,62,100,0
6,62,0,336
6,55,100,0
6,55,0,48
6,57,100,0
6,57,0,48
6,60,100,0
6,60,0,48
