track,note,velocity,time
0,42,68,0
0,42,64,93
0,42,68,93
0,42,76,93
0,29,66,93
0,41,62,0
0,63,84,672
0,60,64,10
0,63,84,13
0,63,88,37
0,35,68,54
0,43,62,0
0,41,68,0
0,35,68,189
0,43,66,0
0,41,68,0
0,35,68,92
0,43,66,0
0,41,72,0
0,53,52,48
0,63,64,1
0,35,66,4
0,43,66,0
0,41,68,0
0,60,68,23
0,55,42,3
0,58,31,0
0,63,48,0
0,65,58,0
0,35,62,48
0,43,60,0
0,41,66,0
0,35,62,31
0,43,66,0
0,41,68,0
0,43,66,22
0,41,72,0
0,35,66,0
0,35,62,14
0,43,66,0
0,41,68,0
0,58,84,41
0,60,56,2
0,65,64,0
0,63,42,0
0,70,56,0
0,56,52,17
0,53,46,23
0,68,40,0
0,35,64,45
0,43,66,0
0,41,66,0
0,35,58,189
0,43,68,0
0,41,66,0
0,35,58,189
0,43,64,0
0,41,66,0
0,43,56,93
0,35,64,40
0,43,68,0
0,41,68,0
0,38,50,0
0,60,54,56
0,68,58,0
0,63,56,0
0,29,68,6
0,92,59,0
0,80,59,0
0,80,76,0
0,35,68,0
0,42,55,0
0,49,56,0
0,57,56,0
0,68,64,0
0,63,54,0
0,60,48,0
0,56,72,28
0,42,30,0
0,63,56,25
0,40,55,0
0,42,55,0
0,29,80,44
0,56,50,0
0,92,59,0
0,80,59,0
0,35,54,0
0,42,27,0
0,29,80,2
0,68,64,0
0,94,59,0
0,82,59,0
0,35,68,0
0,42,55,0
0,63,64,11
0,42,29,0
0,56,50,1
0,92,59,0
0,80,59,0
0,40,55,0
0,42,55,0
0,36,52,2
0,41,64,4
0,42,32,0
0,67,68,3
0,58,44,0
0,63,62,0
0,39,62,1
0,91,59,0
0,79,59,0
0,79,54,0
0,35,68,0
0,42,55,0
0,63,66,0
0,67,76,0
0,58,62,0
0,58,60,35
0,89,59,0
0,77,59,0
0,42,29,0
0,63,68,5
0,87,59,0
0,75,59,0
0,40,55,0
0,42,55,0
0,39,64,2
0,58,48,0
0,42,29,0
0,56,36,5
0,65,66,0
0,61,54,0
0,34,68,5
0,89,59,0
0,77,59,0
0,77,66,0
0,35,68,0
0,42,55,0
0,61,60,0
0,65,66,0
0,56,44,0
0,65,64,2
0,42,29,0
0,61,54,3
0,40,55,0
0,42,55,0
0,56,39,10
0,42,34,0
0,60,42,3
0,68,54,0
0,63,64,0
0,29,60,1
0,92,59,0
0,80,59,0
0,80,76,0
0,35,75,0
0,42,55,0
0,68,66,0
0,63,62,0
0,60,68,0
0,56,76,15
0,42,30,0
0,63,62,4
0,40,56,0
0,42,55,0
0,29,66,6
0,56,56,0
0,92,59,0
0,80,59,0
0,35,58,0
0,42,27,0
0,29,66,1
0,68,60,0
0,94,59,0
0,82,59,0
0,35,75,0
0,42,55,0
0,63,62,1
0,42,29,0
0,56,39,4
0,92,59,0
0,80,59,0
0,40,56,0
0,42,55,0
0,36,48,2
0,41,66,3
0,42,32,0
0,67,62,4
0,63,58,0
0,58,37,0
0,39,62,1
0,91,59,0
0,79,59,0
0,79,52,0
0,35,75,0
0,42,55,0
0,63,54,0
0,58,48,0
0,67,68,0
0,58,64,24
0,89,59,0
0,77,59,0
0,42,29,0
0,63,60,3
0,87,59,0
0,75,59,0
0,40,56,0
0,42,55,0
0,39,64,3
0,58,37,0
0,42,29,0
0,56,38,3
0,61,58,0
0,65,58,0
0,34,58,2
0,85,59,0
0,73,59,0
0,77,66,0
0,35,75,0
0,42,55,0
0,61,64,0
0,56,40,0
0,65,66,0
0,65,84,11
0,42,29,0
0,61,30,45
0,40,56,0
0,42,55,0
0,56,50,1
0,42,34,0
0,60,58,1
0,68,54,0
0,63,40,0
0,29,58,4
0,92,59,0
0,80,59,0
0,80,62,0
0,35,68,0
0,42,55,0
0,60,66,0
0,63,64,0
0,68,62,0
0,56,76,4
0,42,30,0
0,63,66,2
0,40,55,0
0,42,55,0
0,29,66,2
0,56,62,0
0,92,59,0
0,80,59,0
0,35,54,0
0,42,27,0
0,29,68,15
0,68,72,0
0,94,59,0
0,82,59,0
0,35,68,0
0,42,55,0
0,63,62,13
0,42,29,0
0,56,52,2
0,92,59,0
0,80,59,0
0,40,55,0
0,42,55,0
0,36,50,4
0,41,64,2
0,42,32,0
0,58,42,1
0,67,56,0
0,63,56,0
0,39,54,6
0,91,59,0
0,79,59,0
0,79,54,0
0,35,68,0
0,42,55,0
0,67,64,0
0,63,64,0
0,58,52,0
0,58,62,1
0,89,59,0
0,77,59,0
0,42,29,0
0,63,58,1
0,87,59,0
0,75,59,0
0,40,55,0
0,42,55,0
0,39,56,5
0,58,52,0
0,42,29,0
0,56,44,11
0,61,62,0
0,65,64,0
0,34,68,5
0,89,59,0
0,77,59,0
0,77,54,0
0,35,68,0
0,42,55,0
0,56,54,0
0,61,66,0
0,65,76,0
0,65,76,1
0,42,29,0
0,61,48,3
0,40,55,0
0,42,55,0
0,56,48,3
0,42,34,0
0,63,58,3
0,68,50,0
0,60,48,0
0,29,68,4
0,92,59,0
0,80,59,0
0,80,50,0
0,35,75,0
0,42,55,0
0,56,72,10
0,42,30,0
0,63,62,11
0,40,56,0
0,42,55,0
0,29,62,41
0,56,54,0
0,92,59,0
0,80,59,0
0,35,58,0
0,42,27,0
0,29,68,26
0,68,66,0
0,94,59,0
0,82,59,0
0,35,75,0
0,42,55,0
0,63,46,31
0,42,29,0
0,56,56,1
0,92,59,0
0,80,59,0
0,40,56,0
0,42,55,0
0,68,66,0
0,63,64,0
0,60,56,0
0,36,44,1
0,41,64,3
0,42,32,0
0,67,62,7
0,58,44,0
0,63,60,0
0,39,60,3
0,91,59,0
0,79,59,0
0,79,44,0
0,35,75,0
0,42,55,0
0,58,68,0
0,63,64,0
0,67,68,0
0,58,58,24
0,89,59,0
0,77,59,0
0,42,29,0
0,63,50,11
0,87,59,0
0,75,59,0
0,40,56,0
0,42,55,0
0,39,46,17
0,58,46,0
0,42,29,0
0,65,66,3
0,56,35,0
0,61,58,0
0,34,60,6
0,85,59,0
0,73,59,0
0,77,56,0
0,35,75,0
0,42,55,0
0,61,54,0
0,65,62,0
0,56,42,0
0,65,66,5
0,42,29,0
0,61,42,3
0,40,56,0
0,42,55,0
0,56,42,1
0,42,34,0
0,60,56,23
0,68,58,0
0,63,44,0
0,41,68,1
0,35,68,0
0,42,55,0
0,60,52,0
0,63,58,0
0,68,56,0
0,72,56,15
0,42,30,0
0,73,52,4
0,40,55,0
0,42,55,0
0,41,62,33
0,75,46,0
0,35,54,0
0,42,27,0
0,41,62,28
0,35,68,0
0,42,55,0
0,73,60,32
0,42,29,0
0,72,50,13
0,40,55,0
0,42,55,0
0,70,58,5
0,42,32,0
0,67,66,0
0,58,64,0
0,63,72,0
0,67,62,19
0,58,42,0
0,63,58,0
0,39,58,6
0,35,68,0
0,42,55,0
0,68,58,1
0,42,29,0
0,58,30,0
0,67,58,42
0,40,55,0
0,42,55,0
0,63,54,0
0,65,46,2
0,42,29,0
0,56,66,0
0,61,60,0
0,65,76,0
0,56,40,2
0,65,66,0
0,61,62,0
0,34,52,6
0,35,68,0
0,42,55,0
0,42,29,1
0,56,52,0
0,40,55,1
0,42,55,0
0,61,54,0
0,42,34,2
0,60,38,7
0,63,52,0
0,68,52,0
0,41,64,6
0,35,75,0
0,42,55,0
0,60,66,0
0,63,56,0
0,68,60,0
0,42,30,45
0,40,56,45
0,42,55,0
0,41,60,45
0,75,64,0
0,35,58,0
0,42,27,0
0,41,60,32
0,35,75,0
0,42,55,0
0,73,46,45
0,42,29,0
0,72,58,1
0,40,56,0
0,42,55,0
0,58,44,4
0,65,68,0
0,63,54,0
0,70,43,3
0,42,32,0
0,58,66,0
0,63,68,0
0,65,72,0
0,39,54,45
0,35,75,0
0,42,55,0
0,67,54,2
0,75,56,6
0,42,29,0
0,67,66,0
0,40,56,16
0,42,55,0
0,42,29,45
0,58,56,0
0,35,75,7
0,42,55,0
0,44,62,3
0,42,29,0
0,70,58,0
0,43,64,8
0,40,56,0
0,42,55,0
0,39,54,8
0,42,34,0
0,60,52,5
0,63,58,0
0,68,58,0
0,41,62,1
0,35,68,0
0,42,55,0
0,68,66,0
0,63,68,0
0,60,60,0
0,42,30,43
0,73,66,45
0,40,55,0
0,42,55,0
0,41,58,7
0,75,58,0
0,35,54,0
0,42,27,0
0,41,62,31
0,35,68,0
0,42,55,0
0,73,58,22
0,42,29,0
0,72,56,36
0,40,55,0
0,42,55,0
0,70,46,1
0,42,32,0
0,58,76,0
0,67,72,0
0,63,72,0
0,67,62,4
0,58,46,0
0,63,64,0
0,39,52,6
0,35,68,0
0,42,55,0
0,68,64,1
0,42,29,0
0,58,25,0
0,67,62,1
0,40,55,0
0,42,55,0
0,63,60,0
0,65,60,1
0,42,29,0
0,56,62,0
0,61,64,0
0,65,80,0
0,65,64,5
0,56,40,0
0,61,56,0
0,34,62,6
0,35,68,0
0,42,55,0
0,42,29,5
0,56,39,0
0,40,55,3
0,42,55,0
0,68,72,0
0,65,58,0
0,61,60,0
0,42,34,6
0,60,48,7
0,63,56,0
0,68,54,0
0,41,68,6
0,35,75,0
0,42,55,0
0,60,54,0
0,72,58,45
0,42,30,0
0,73,50,4
0,40,56,0
0,42,55,0
0,41,52,18
0,75,56,0
0,35,58,0
0,42,27,0
0,41,56,11
0,35,75,0
0,42,55,0
0,73,56,45
0,42,29,0
0,72,68,4
0,40,56,0
0,42,55,0
0,65,66,5
0,58,40,0
0,70,46,6
0,42,32,0
0,63,64,0
0,58,50,0
0,65,68,0
0,39,60,45
0,35,75,0
0,42,55,0
0,67,54,39
0,75,58,6
0,63,64,0
0,42,29,0
0,67,58,0
0,40,56,24
0,42,55,0
0,65,80,2
0,42,29,0
0,58,54,0
0,35,75,3
0,42,55,0
0,46,44,1
0,63,58,0
0,42,29,0
0,58,50,0
0,60,64,4
0,40,56,0
0,42,55,0
0,63,66,0
0,67,66,0
0,70,56,0
0,44,52,1
0,58,62,0
0,42,34,0
0,60,44,5
0,63,54,0
0,68,48,0
0,41,64,6
0,55,48,0
0,63,48,0
0,35,68,0
0,42,55,0
0,63,56,0
0,60,56,0
0,68,44,0
0,72,54,42
0,42,30,0
0,73,52,45
0,40,55,0
0,42,55,0
0,41,62,2
0,75,44,0
0,35,54,0
0,42,27,0
0,41,60,1
0,35,68,0
0,42,55,0
0,42,29,4
0,60,52,0
0,40,55,3
0,42,55,0
0,68,64,0
0,60,60,0
0,63,56,0
0,42,32,7
0,63,72,0
0,67,66,0
0,58,64,0
0,63,62,1
0,67,64,0
0,58,50,0
0,39,58,1
0,68,54,0
0,35,68,0
0,42,55,0
0,42,29,3
0,58,50,0
0,67,54,1
0,40,55,0
0,42,55,0
0,63,56,0
0,65,52,4
0,42,29,0
0,56,52,0
0,61,54,0
0,65,58,0
0,61,54,2
0,56,37,0
0,65,60,0
0,34,50,3
0,35,68,0
0,42,55,0
0,42,29,1
0,40,55,13
0,42,55,0
0,42,34,8
0,60,32,14
0,68,42,0
0,63,50,0
0,41,76,1
0,35,75,0
0,42,55,0
0,63,50,0
0,68,58,0
0,60,52,0
0,72,50,45
0,42,30,0
0,73,46,3
0,40,56,0
0,42,55,0
0,41,60,3
0,75,54,0
0,35,58,0
0,42,27,0
0,41,56,3
0,35,75,0
0,42,55,0
0,73,58,45
0,42,29,0
0,60,44,0
0,72,62,4
0,40,56,0
0,42,55,0
0,63,52,0
0,65,62,7
0,58,33,0
0,70,42,6
0,42,32,0
0,63,48,0
0,58,62,0
0,65,72,0
0,39,54,5
0,35,75,0
0,42,55,0
0,67,48,9
0,75,58,5
0,42,29,0
0,58,44,0
0,67,66,0
0,63,66,0
0,40,56,3
0,42,55,0
0,42,29,3
0,72,88,6
0,35,75,0
0,42,55,0
0,44,58,2
0,70,56,0
0,42,29,0
0,43,62,1
0,72,58,0
0,40,56,0
0,42,55,0
0,39,62,1
0,68,56,0
0,42,34,0
0,60,42,6
0,63,58,0
0,68,46,0
0,41,58,6
0,35,68,0
0,42,55,0
0,68,64,0
0,63,52,0
0,60,60,0
0,72,64,43
0,42,30,0
0,73,54,45
0,40,55,0
0,42,55,0
0,41,62,10
0,75,58,0
0,35,54,0
0,42,27,0
0,41,64,17
0,75,54,0
0,35,68,0
0,42,55,0
0,75,52,15
0,42,29,0
0,73,60,3
0,40,55,0
0,42,55,0
0,72,64,4
0,42,32,0
0,67,58,7
0,58,40,0
0,63,58,0
0,39,62,6
0,70,39,0
0,35,68,0
0,42,55,0
0,63,64,0
0,67,64,0
0,58,54,0
0,42,29,44
0,68,56,21
0,65,88,0
0,40,55,11
0,42,55,0
0,67,68,25
0,42,29,0
0,63,62,0
0,61,56,7
0,56,48,0
0,65,64,0
0,34,54,1
0,65,44,0
0,35,68,0
0,42,55,0
0,61,60,0
0,53,44,0
0,56,56,0
0,42,29,3
0,40,55,5
0,42,55,0
0,42,34,5
0,60,46,2
0,68,56,0
0,63,46,0
0,41,62,1
0,35,75,0
0,42,55,0
0,68,58,0
0,63,66,0
0,60,35,0
0,72,60,37
0,42,30,0
0,73,54,6
0,40,56,0
0,42,55,0
0,41,58,6
0,75,54,0
0,35,58,0
0,42,27,0
0,41,62,32
0,35,75,0
0,42,55,0
0,73,52,45
0,42,29,0
0,72,58,7
0,40,56,0
0,42,55,0
0,65,54,21
0,58,44,0
0,70,40,4
0,42,32,0
0,63,64,0
0,58,60,0
0,65,66,0
0,39,84,1
0,35,75,0
0,42,55,0
0,67,48,25
0,75,52,3
0,42,29,0
0,67,68,0
0,40,56,3
0,42,55,0
0,42,29,5
0,58,56,0
0,35,75,2
0,42,55,0
0,42,29,2
0,70,58,0
0,36,66,2
0,40,56,0
0,42,55,0
0,42,34,2
0,65,62,7
0,60,48,0
0,68,52,0
0,29,84,1
0,77,58,0
0,89,64,0
0,101,68,0
0,72,84,0
0,35,68,0
0,42,55,0
0,42,30,44
0,40,55,27
0,42,55,0
0,29,64,21
0,35,54,0
0,42,27,0
0,29,66,32
0,77,84,0
0,35,68,0
0,42,55,0
0,42,29,45
0,39,72,45
0,72,58,0
0,68,84,0
0,40,55,0
0,42,55,0
0,42,32,1
0,67,58,7
0,63,64,0
0,58,39,0
0,29,68,1
0,72,52,0
0,87,54,0
0,99,58,0
0,67,64,0
0,35,68,0
0,42,55,0
0,63,66,0
0,67,66,0
0,58,60,0
0,42,29,2
0,40,55,3
0,42,55,0
0,29,56,3
0,42,29,0
0,29,62,27
0,75,80,0
0,35,68,0
0,42,55,0
0,63,56,45
0,42,29,0
0,39,66,3
0,65,66,0
0,40,55,0
0,42,55,0
0,68,66,3
0,42,34,0
0,65,54,11
0,56,23,0
0,61,58,0
0,29,72,1
0,72,58,0
0,96,60,0
0,84,54,0
0,68,80,0
0,35,75,0
0,42,55,0
0,61,64,0
0,56,54,0
0,65,64,0
0,72,58,18
0,68,84,0
0,42,30,0
0,70,46,1
0,67,68,0
0,40,56,0
0,42,55,0
0,29,54,10
0,68,46,0
0,65,56,0
0,35,58,0
0,42,27,0
0,29,66,24
0,70,72,0
0,72,88,0
0,67,72,0
0,35,75,0
0,42,55,0
0,68,62,45
0,65,46,0
0,42,29,0
0,39,66,1
0,70,42,0
0,67,66,0
0,40,56,0
0,42,55,0
0,68,50,1
0,65,62,0
0,42,32,0
0,58,28,1
0,63,60,0
0,67,56,0
0,29,72,1
0,70,46,0
0,82,54,0
0,94,64,0
0,67,84,0
0,35,75,0
0,42,55,0
0,58,31,0
0,63,56,0
0,67,62,0
0,42,29,4
0,72,62,1
0,68,42,0
0,40,56,0
0,42,55,0
0,29,54,19
0,72,60,0
0,68,68,0
0,42,29,0
0,29,66,10
0,70,80,0
0,67,56,0
0,35,75,0
0,42,55,0
0,34,68,1
0,42,29,0
0,36,44,21
0,39,62,24
0,40,56,0
0,42,55,0
0,41,76,13
0,42,34,0
0,65,66,4
0,60,48,0
0,68,52,0
