track,note,velocity,time
1,33,117,237
1,36,124,0
1,42,102,0
1,49,105,0
1,64,124,0
1,64,0,1
1,42,0,0
1,36,0,0
1,57,113,1
1,60,114,0
1,57,117,0
1,72,119,0
1,84,119,0
1,42,102,58
1,42,0,1
1,60,107,1
1,38,124,58
1,42,102,0
1,42,0,1
1,38,0,0
1,60,0,1
1,64,113,0
1,49,0,21
1,84,0,9
1,72,0,0
1,33,0,23
1,33,116,5
1,36,124,0
1,42,102,0
1,51,105,0
1,63,124,0
1,63,0,1
1,42,0,0
1,36,0,0
1,64,0,1
1,60,112,0
1,72,119,0
1,84,119,0
1,33,0,43
1,33,115,15
1,36,124,0
1,42,102,0
1,64,124,0
1,64,0,1
1,42,0,0
1,36,0,0
1,84,0,1
1,72,0,0
1,69,115,0
1,74,119,0
1,86,119,0
1,60,0,5
1,42,102,53
1,42,0,1
1,69,0,1
1,64,111,0
1,57,0,48
1,38,124,10
1,42,102,0
1,42,0,1
1,38,0,0
1,60,112,1
1,72,119,0
1,84,119,0
1,86,0,5
1,74,0,0
1,51,0,13
1,33,0,25
1,64,0,12
1,33,117,3
1,42,102,0
1,51,105,0
1,42,0,1
1,60,0,1
1,57,111,0
1,33,0,38
1,31,120,20
1,36,124,0
1,42,102,0
1,64,124,0
1,64,0,1
1,42,0,0
1,36,0,0
1,60,0,1
1,57,0,0
1,55,112,0
1,59,114,0
1,55,110,0
1,71,119,0
1,83,119,0
1,84,0,5
1,57,0,0
1,72,0,0
1,71,0,45
1,83,0,0
1,42,102,8
1,42,0,1
1,62,111,1
1,69,119,0
1,81,119,0
1,62,0,55
1,38,124,3
1,42,102,0
1,42,0,1
1,38,0,0
1,67,114,1
1,67,119,0
1,79,119,0
1,81,0,10
1,69,0,0
1,51,0,16
1,31,0,2
1,31,121,30
1,36,124,0
1,42,102,0
1,51,105,0
1,63,124,0
1,63,0,1
1,42,0,0
1,36,0,0
1,31,0,49
1,59,0,7
1,55,0,0
1,38,121,3
1,36,124,0
1,42,102,0
1,64,124,0
1,64,0,1
1,42,0,0
1,36,0,0
1,53,113,1
1,57,115,0
1,50,117,0
1,69,119,0
1,81,119,0
1,67,0,5
1,79,0,0
1,55,0,0
1,67,0,45
1,42,102,8
1,64,124,0
1,64,0,1
1,42,0,0
1,69,114,1
1,38,0,38
1,36,120,20
1,38,124,0
1,42,102,0
1,63,124,0
1,63,0,1
1,42,0,0
1,38,0,0
1,65,112,1
1,69,0,5
1,51,0,8
1,36,0,30
1,35,117,15
1,46,102,0
1,51,105,0
1,75,124,0
1,75,0,1
1,46,0,0
1,62,115,1
1,65,0,10
1,35,0,38
1,33,120,10
1,36,124,0
1,42,102,0
1,64,124,0
1,64,0,1
1,42,0,0
1,36,0,0
1,60,112,1
1,57,115,0
1,72,119,0
1,84,119,0
1,81,0,5
1,53,0,0
1,69,0,0
1,50,0,5
1,62,0,0
1,42,102,48
1,42,0,1
1,60,110,1
1,60,0,55
1,38,124,3
1,42,102,0
1,42,0,1
1,38,0,0
1,64,112,1
1,51,0,23
1,33,0,10
1,72,0,2
1,84,0,0
1,33,120,23
1,36,124,0
1,42,102,0
1,51,105,0
1,63,124,0
1,63,0,1
1,42,0,0
1,36,0,0
1,64,0,1
1,60,105,0
1,72,119,0
1,84,119,0
1,33,0,38
1,33,122,20
1,36,124,0
1,42,102,0
1,64,124,0
1,64,0,1
1,42,0,0
1,36,0,0
1,60,0,1
1,69,112,0
1,74,119,0
1,86,119,0
1,84,0,5
1,72,0,0
1,42,102,53
1,42,0,1
1,69,0,1
1,64,112,0
1,57,0,55
1,38,124,3
1,42,102,0
1,42,0,1
1,38,0,0
1,86,0,1
1,74,0,0
1,60,112,0
1,72,119,0
1,84,119,0
1,64,0,15
1,51,0,4
1,33,0,19
1,33,122,20
1,42,102,0
1,51,105,0
1,42,0,1
1,60,0,1
1,57,112,0
1,33,0,48
1,31,121,10
1,36,124,0
1,42,102,0
1,64,124,0
1,64,0,1
1,42,0,0
1,36,0,0
1,55,114,1
1,59,114,0
1,55,114,0
1,71,119,0
1,83,119,0
1,84,0,5
1,72,0,0
1,60,0,0
1,57,0,0
1,57,0,10
1,71,0,40
1,83,0,0
1,42,102,3
1,42,0,1
1,62,114,1
1,69,119,0
1,81,119,0
1,38,124,58
1,42,102,0
1,42,0,1
1,38,0,0
1,62,0,1
1,67,111,0
1,67,119,0
1,79,119,0
1,81,0,5
1,69,0,0
1,51,0,9
1,31,0,14
1,31,119,30
1,36,124,0
1,42,102,0
1,51,105,0
1,63,124,0
1,63,0,1
1,42,0,0
1,36,0,0
1,31,0,49
1,38,121,10
1,36,124,0
1,42,102,0
1,64,124,0
1,64,0,1
1,42,0,0
1,36,0,0
1,53,116,1
1,57,116,0
1,50,117,0
1,65,119,0
1,77,119,0
1,67,0,5
1,55,0,0
1,79,0,0
1,59,0,0
1,55,0,0
1,67,0,50
1,42,102,3
1,64,124,0
1,64,0,1
1,42,0,0
1,69,112,1
1,38,124,58
1,42,102,0
1,63,124,0
1,63,0,1
1,42,0,0
1,38,0,0
1,65,111,1
1,69,0,5
1,51,0,6
1,65,0,44
1,42,102,3
1,51,105,0
1,75,124,0
1,75,0,1
1,42,0,0
1,62,112,1
1,38,0,53
1,65,0,2
1,77,0,0
1,53,0,0
1,33,121,3
1,36,124,0
1,42,102,0
1,49,105,0
1,64,124,0
1,64,0,1
1,42,0,0
1,36,0,0
1,60,116,1
1,57,113,0
1,72,119,0
1,84,119,0
1,51,0,1
1,50,0,4
1,62,0,0
1,42,102,53
1,42,0,1
1,60,109,1
1,38,124,58
1,42,102,0
1,42,0,1
1,38,0,0
1,60,0,1
1,64,109,0
1,49,0,19
1,72,0,11
1,84,0,0
1,33,0,8
1,64,0,17
1,33,121,3
1,36,124,0
1,42,102,0
1,51,105,0
1,63,124,0
1,63,0,1
1,42,0,0
1,36,0,0
1,60,104,1
1,72,119,0
1,84,119,0
1,33,0,38
1,33,120,20
1,36,124,0
1,42,102,0
1,64,124,0
1,64,0,1
1,42,0,0
1,36,0,0
1,84,0,1
1,72,0,0
1,60,0,0
1,69,110,0
1,74,119,0
1,86,119,0
1,42,102,58
1,42,0,1
1,69,0,1
1,64,110,0
1,38,124,58
1,42,102,0
1,42,0,1
1,38,0,0
1,57,0,1
1,60,112,0
1,72,119,0
1,84,119,0
1,86,0,5
1,74,0,0
1,64,0,10
1,51,0,1
1,33,0,17
1,33,121,25
1,42,102,0
1,51,105,0
1,42,0,1
1,60,0,1
1,57,109,0
1,33,0,48
1,60,0,7
1,57,0,0
1,31,123,3
1,36,124,0
1,42,102,0
1,64,124,0
1,64,0,1
1,42,0,0
1,36,0,0
1,55,110,1
1,59,114,0
1,55,113,0
1,71,119,0
1,83,119,0
1,72,0,5
1,57,0,0
1,84,0,0
1,71,0,45
1,83,0,0
1,42,102,8
1,42,0,1
1,62,109,1
1,69,119,0
1,81,119,0
1,62,0,55
1,38,124,3
1,42,102,0
1,42,0,1
1,38,0,0
1,67,112,1
1,67,119,0
1,79,119,0
1,81,0,10
1,69,0,0
1,51,0,3
1,31,0,20
1,31,119,25
1,36,124,0
1,42,102,0
1,51,105,0
1,63,124,0
1,63,0,1
1,42,0,0
1,36,0,0
1,31,0,49
1,38,121,10
1,36,124,0
1,42,102,0
1,64,124,0
1,64,0,1
1,42,0,0
1,36,0,0
1,53,115,1
1,57,113,0
1,50,117,0
1,69,119,0
1,81,119,0
1,67,0,5
1,55,0,0
1,79,0,0
1,55,0,0
1,59,0,0
1,67,0,50
1,42,102,3
1,64,124,0
1,64,0,1
1,42,0,0
1,69,112,1
1,38,0,33
1,36,121,25
1,38,124,0
1,42,102,0
1,63,124,0
1,63,0,1
1,42,0,0
1,38,0,0
1,65,111,1
1,69,0,10
1,51,0,19
1,36,0,9
1,65,0,17
1,35,118,3
1,46,102,0
1,51,105,0
1,75,124,0
1,75,0,1
1,46,0,0
1,62,112,1
1,35,0,53
1,33,121,5
1,36,124,0
1,42,102,0
1,64,124,0
1,64,0,1
1,42,0,0
1,36,0,0
1,53,0,1
1,60,113,0
1,57,111,0
1,72,119,0
1,84,119,0
1,69,0,5
1,62,0,0
1,81,0,0
1,50,0,0
1,42,102,53
1,42,0,1
1,60,110,1
1,60,0,55
1,38,124,3
1,42,102,0
1,42,0,1
1,38,0,0
1,64,110,1
1,51,0,24
1,72,0,11
1,84,0,0
1,33,0,3
1,64,0,17
1,33,121,3
1,36,124,0
1,42,102,0
1,51,105,0
1,63,124,0
1,63,0,1
1,42,0,0
1,36,0,0
1,60,107,1
1,72,119,0
1,84,119,0
1,33,0,43
1,60,0,12
1,33,121,3
1,36,124,0
1,42,102,0
1,64,124,0
1,64,0,1
1,42,0,0
1,36,0,0
1,69,111,1
1,74,119,0
1,86,119,0
1,84,0,5
1,72,0,0
1,42,102,53
1,42,0,1
1,69,0,1
1,64,112,0
1,38,124,58
1,42,102,0
1,42,0,1
1,38,0,0
1,86,0,1
1,57,0,0
1,74,0,0
1,60,112,0
1,72,119,0
1,84,119,0
1,64,0,10
1,51,0,8
1,33,0,15
1,33,117,25
1,42,102,0
1,51,105,0
1,42,0,1
1,60,0,1
1,57,108,0
1,33,0,38
1,60,0,17
1,31,123,3
1,36,124,0
1,42,102,0
1,64,124,0
1,64,0,1
1,42,0,0
1,36,0,0
1,57,0,1
1,55,111,0
1,59,114,0
1,55,110,0
1,71,119,0
1,83,119,0
1,84,0,5
1,72,0,0
1,57,0,0
1,71,0,50
1,83,0,0
1,42,102,3
1,42,0,1
1,62,108,1
1,69,119,0
1,81,119,0
1,38,124,58
1,42,102,0
1,42,0,1
1,38,0,0
1,62,0,1
1,67,115,0
1,67,119,0
1,79,119,0
1,81,0,5
1,69,0,0
1,51,0,19
1,31,0,4
1,31,121,30
1,36,124,0
1,42,102,0
1,51,105,0
1,63,124,0
1,63,0,1
1,42,0,0
1,36,0,0
1,31,0,39
1,38,121,20
1,36,124,0
1,42,102,0
1,64,124,0
1,64,0,1
1,42,0,0
1,36,0,0
1,53,113,1
1,57,113,0
1,50,117,0
1,65,119,0
1,77,119,0
1,67,0,5
1,79,0,0
1,59,0,5
1,55,0,0
1,55,0,0
1,67,0,45
1,42,102,3
1,64,124,0
1,64,0,1
1,42,0,0
1,69,112,1
1,38,124,58
1,42,102,0
1,63,124,0
1,63,0,1
1,42,0,0
1,38,0,0
1,65,105,1
1,69,0,5
1,51,0,9
1,65,0,41
1,46,102,3
1,51,105,0
1,75,124,0
1,75,0,1
1,46,0,0
1,62,113,1
1,38,0,48
1,50,0,7
1,77,0,0
1,65,0,0
1,53,0,0
1,33,123,3
1,36,124,0
1,42,102,0
1,49,105,0
1,64,124,0
1,64,0,1
1,42,0,0
1,36,0,0
1,62,0,1
1,60,112,0
1,57,113,0
1,51,0,1
1,42,102,57
1,42,0,1
1,64,127,1
1,64,0,55
1,65,124,3
1,37,124,0
1,42,102,0
1,42,0,1
1,37,0,0
1,33,0,14
1,49,0,16
1,65,0,29
1,33,121,0
1,36,124,0
1,42,102,0
1,51,105,0
1,63,124,0
1,63,0,1
1,42,0,0
1,36,0,0
1,67,125,1
1,64,110,0
1,33,0,18
1,64,0,37
1,33,117,3
1,65,105,0
1,36,124,0
1,42,102,0
1,64,124,0
1,64,0,1
1,42,0,0
1,36,0,0
1,67,0,51
1,65,125,6
1,65,0,2
1,42,102,0
1,42,0,1
1,64,106,1
1,67,106,0
1,65,0,51
1,64,0,4
1,65,100,3
1,37,124,0
1,42,102,0
1,42,0,1
1,37,0,0
1,64,123,1
1,51,0,18
1,33,0,15
1,67,0,17
1,64,0,5
1,65,106,1
1,65,0,2
1,33,118,0
1,42,102,0
1,51,105,0
1,42,0,1
1,62,126,1
1,67,101,0
1,33,0,23
1,65,0,28
1,31,121,7
1,36,124,0
1,42,102,0
1,64,124,0
1,64,0,1
1,42,0,0
1,36,0,0
1,60,0,1
1,57,0,0
1,55,112,0
1,59,114,0
1,64,103,0
1,57,0,5
1,67,0,45
1,62,0,5
1,64,0,0
1,65,101,1
1,60,126,1
1,42,102,1
1,42,0,1
1,62,109,1
1,65,0,51
1,60,0,6
1,37,124,1
1,42,102,0
1,42,0,1
1,37,0,0
1,64,97,1
1,59,125,3
1,51,0,13
1,31,0,22
1,62,0,17
1,64,0,0
1,60,108,2
1,31,120,1
1,36,124,0
1,42,102,0
1,51,105,0
1,63,124,0
1,63,0,1
1,42,0,0
1,36,0,0
1,62,104,1
1,59,0,3
1,57,125,3
1,31,0,22
1,60,0,29
1,26,122,1
1,36,124,0
1,42,102,0
1,64,124,0
1,64,0,1
1,42,0,0
1,36,0,0
1,53,113,1
1,57,113,0
1,59,106,3
1,55,0,2
1,59,0,0
1,62,0,50
1,60,103,2
1,42,102,1
1,64,124,0
1,64,0,1
1,42,0,0
1,59,0,4
1,57,106,3
1,60,0,51
1,37,124,1
1,42,102,0
1,63,124,0
1,63,0,1
1,42,0,0
1,37,0,0
1,59,101,4
1,51,0,20
1,57,0,8
1,42,102,27
1,51,105,0
1,75,124,0
1,75,0,1
1,42,0,0
1,59,0,4
1,57,101,3
1,33,122,52
1,36,124,0
1,42,102,0
1,64,124,0
1,64,0,1
1,42,0,0
1,36,0,0
1,53,0,1
1,60,113,0
1,26,0,3
1,57,0,28
1,42,102,27
1,42,0,1
1,64,127,3
1,37,124,56
1,42,102,0
1,42,0,1
1,37,0,0
1,64,0,8
1,65,125,0
1,33,0,16
1,51,0,6
1,57,0,2
1,33,121,27
1,36,124,0
1,42,102,0
1,51,105,0
1,63,124,0
1,63,0,1
1,42,0,0
1,36,0,0
1,65,0,3
1,64,113,0
1,67,125,5
1,33,0,6
1,33,119,45
1,36,124,0
1,42,102,0
1,64,124,0
1,64,0,1
1,42,0,0
1,36,0,0
1,64,0,8
1,65,107,0
1,65,124,51
1,42,102,0
1,42,0,1
1,65,0,3
1,67,0,0
1,64,109,0
1,67,106,5
1,65,0,51
1,64,125,0
1,37,124,0
1,42,102,0
1,42,0,1
1,37,0,0
1,64,0,8
1,65,102,0
1,51,0,12
1,33,0,9
1,33,120,30
1,65,104,0
1,42,102,0
1,51,105,0
1,42,0,1
1,67,0,3
1,65,0,0
1,64,0,1
1,62,125,2
1,67,101,2
1,33,0,21
1,60,0,27
1,65,0,3
1,31,121,0
1,64,106,0
1,36,124,0
1,42,102,0
1,64,124,0
1,64,0,1
1,42,0,0
1,36,0,0
1,55,113,1
1,59,114,0
1,57,0,5
1,62,0,35
1,67,126,17
1,65,98,1
1,42,102,0
1,42,0,1
1,67,0,3
1,64,0,1
1,62,107,2
1,65,0,53
1,64,101,0
1,37,124,0
1,42,102,0
1,42,0,1
1,37,0,0
1,51,0,19
1,62,0,22
1,67,108,17
1,36,124,1
1,42,102,0
1,51,105,0
1,63,124,0
1,63,0,1
1,42,0,0
1,36,0,0
1,64,0,4
1,62,102,2
1,36,124,53
1,42,102,0
1,64,124,0
1,64,0,1
1,42,0,0
1,36,0,0
1,31,0,39
1,62,0,2
1,67,104,17
1,36,122,1
1,42,102,0
1,64,124,0
1,64,0,1
1,42,0,0
1,67,0,8
1,36,0,51
1,35,116,0
1,37,124,0
1,42,102,0
1,63,124,0
1,63,0,1
1,42,0,0
1,37,0,0
1,51,0,26
1,35,0,28
1,31,120,5
1,46,102,0
1,51,105,0
1,75,124,0
1,75,0,1
1,46,0,0
1,67,0,8
1,33,119,51
1,36,124,0
1,42,102,0
1,64,124,0
1,64,0,1
1,42,0,0
1,36,0,0
1,55,0,1
1,57,116,0
1,60,113,0
1,31,0,3
1,59,0,2
1,64,127,0
1,64,0,45
1,42,102,8
1,42,0,1
1,64,127,3
1,67,0,5
1,64,0,35
1,37,124,16
1,42,102,0
1,42,0,1
1,37,0,0
1,64,126,3
1,64,111,3
1,51,0,18
1,33,0,5
1,64,0,22
1,64,0,2
1,33,121,6
1,36,124,0
1,42,102,0
1,51,105,0
