track,note,velocity,time
1,63,113,22472
1,63,113,104
1,65,107,24
1,65,107,84
1,63,107,432
1,65,99,8
1,65,109,76
1,63,105,1172
1,63,96,96
1,65,101,40
1,65,99,100
1,63,107,444
1,65,105,16
1,58,103,228
1,63,100,716
1,65,96,32
1,65,98,96
1,63,99,244
1,63,98,84
1,63,102,100
1,65,101,20
1,65,101,264
1,63,99,948
1,63,103,104
1,65,101,24
1,65,102,112
1,63,102,248
1,68,110,228
1,67,100,12
1,65,101,44
1,63,110,72
1,60,105,8
1,63,105,56
1,65,103,220
1,63,99,8
1,63,105,1832
1,65,94,0
1,65,99,72
1,63,97,12
1,63,106,2660
1,63,103,92
1,65,98,8
1,65,103,96
1,63,101,444
1,65,97,388
1,65,98,120
1,58,90,196
1,58,97,324
1,63,101,196
1,63,102,104
1,65,99,8
1,65,100,120
1,63,87,220
1,63,100,152
1,65,99,12
1,58,89,96
1,63,99,756
1,63,101,104
1,65,97,0
1,65,98,108
1,63,96,400
1,65,99,96
1,65,102,96
1,65,95,360
1,63,103,600
1,63,99,96
1,65,99,20
1,65,100,84
1,63,103,220
1,68,106,216
1,67,95,272
1,65,101,76
1,63,111,84
1,60,109,12
1,63,105,192
1,65,105,152
1,63,102,28
1,58,100,64
1,63,111,668
1,67,101,120
1,67,97,80
1,68,96,0
1,68,88,64
1,67,97,236
1,65,99,228
1,63,93,20
1,63,100,160
1,67,97,616
1,67,89,44
1,68,101,88
1,67,100,196
1,65,106,252
1,63,99,12
1,63,79,32
1,63,99,100
1,67,98,552
1,67,98,80
1,68,104,172
1,68,104,96
1,67,103,200
1,65,104,204
1,63,99,28
1,63,93,160
1,67,97,612
1,68,97,92
1,68,99,116
1,67,98,244
1,62,100,260
1,63,100,188
1,65,99,8
1,63,104,16
1,63,106,6644
1,63,105,108
1,65,98,20
1,65,104,96
1,63,99,432
1,65,92,8
1,65,89,52
1,65,91,68
1,63,92,128
1,63,95,588
1,63,88,48
1,65,92,44
1,65,94,96
1,63,92,244
1,63,99,128
1,65,100,92
1,63,94,116
1,65,105,64
1,63,97,592
1,63,99,96
1,65,94,40
1,65,98,104
1,63,102,264
1,63,102,248
1,65,97,44
1,65,99,196
1,63,99,928
1,65,95,116
1,65,94,116
1,63,103,224
1,68,100,240
1,67,94,36
1,65,93,228
1,63,100,220
1,63,99,172
1,63,83,236
1,63,97,316
1,65,92,32
1,63,106,1364
1,63,98,84
1,63,104,128
1,65,98,76
1,67,102,2912
1,68,101,84
1,68,100,108
1,67,96,204
1,65,102,204
1,63,97,20
1,63,100,176
1,67,93,752
1,67,93,84
1,68,95,16
1,68,95,60
1,67,92,44
1,65,98,44
1,63,95,24
1,65,105,308
1,63,95,8
1,63,101,92
1,67,90,908
1,67,92,92
1,68,94,16
1,68,96,100
1,67,94,204
1,65,99,244
1,63,96,12
1,63,100,204
1,63,91,84
1,67,93,644
1,67,93,96
1,68,100,16
1,67,94,156
1,65,98,28
1,63,91,20
1,62,98,124
1,63,99,180
1,65,94,24
1,63,95,8
1,67,99,952
1,67,96,120
1,68,101,20
1,68,95,72
1,67,95,272
1,65,100,216
1,63,98,12
1,63,103,168
1,63,97,764
1,67,101,0
1,67,101,48
1,68,104,32
1,67,103,176
1,65,103,256
1,63,103,12
1,63,113,212
1,67,91,932
1,67,93,96
1,68,101,180
1,68,93,88
1,67,93,232
1,65,100,244
1,63,95,12
1,63,97,188
1,63,88,104
1,67,93,640
1,68,97,88
1,68,99,92
1,67,98,32
1,65,101,44
1,63,98,12
1,62,104,120
1,63,102,188
1,65,91,12
1,63,102,16
1,60,94,1036
1,62,96,44
1,63,103,208
1,65,106,12
1,63,104,44
1,62,94,20
1,63,105,8
1,63,103,56
1,63,107,0
1,65,93,20
1,65,96,128
1,63,101,92
1,63,103,148
1,60,98,1284
1,62,94,84
1,63,102,4
1,65,104,20
1,65,104,108
1,63,104,40
1,63,106,92
1,65,105,768
1,63,110,8
1,67,98,380
1,65,101,24
1,63,96,20
1,65,103,192
1,67,90,968
1,65,92,8
1,65,103,128
1,63,99,15900
1,63,108,124
1,65,99,24
1,65,94,96
1,63,98,416
1,65,96,32
1,65,89,176
1,63,106,932
1,63,99,96
1,65,93,184
1,65,92,96
1,63,103,212
1,65,98,256
1,63,93,8
1,65,99,252
1,63,99,968
1,63,97,84
1,65,97,20
1,65,98,108
1,63,97,224
1,63,95,256
1,65,94,32
1,65,94,260
1,63,100,968
1,63,98,84
1,65,99,180
1,65,102,88
1,63,98,224
1,68,105,160
1,67,100,84
1,65,104,116
1,63,108,152
1,65,100,272
1,63,96,308
1,63,103,1224
1,63,106,188
1,65,92,12
1,63,94,12
1,67,90,2700
1,67,94,108
1,68,96,180
1,68,93,96
1,67,95,192
1,65,98,236
1,63,91,20
1,63,98,204
1,67,88,548
1,68,89,24
1,67,93,128
1,65,100,104
1,63,99,72
1,62,85,68
1,63,99,100
1,67,94,524
1,67,92,96
1,68,94,172
1,68,86,88
1,67,96,168
1,65,97,144
1,63,98,24
1,63,101,200
1,67,88,568
1,68,99,12
1,67,96,140
1,65,102,172
1,62,107,96
1,63,102,188
1,65,104,12
1,63,103,16
1,67,96,580
1,67,96,84
1,68,91,8
1,68,94,84
1,67,91,180
1,65,100,172
1,63,96,32
1,63,100,196
1,67,88,576
1,68,92,164
1,67,94,176
1,65,100,172
1,62,99,56
1,63,100,12
1,65,94,8
1,63,100,12
1,67,94,552
1,68,91,352
1,68,97,124
1,67,89,188
1,65,100,180
1,63,97,12
1,63,100,172
1,63,76,20
1,63,99,240
1,67,90,200
1,67,79,32
1,68,98,48
1,67,99,156
1,65,99,208
1,62,94,44
1,63,97,192
1,65,93,8
1,63,102,24
2,36,126,1536
2,48,86,192
2,48,79,40
2,36,127,24
2,48,81,192
2,48,79,52
2,36,113,12
2,48,75,188
2,48,85,44
2,36,121,20
2,48,78,16
2,48,87,44
2,32,109,32
2,44,89,188
2,44,81,28
2,32,117,32
2,44,85,192
2,44,88,48
2,32,117,32
2,44,78,188
2,44,87,52
2,32,117,28
2,44,85,192
2,44,92,8
2,34,121,44
2,46,82,188
2,46,88,60
2,34,121,40
2,46,72,196
2,46,81,60
2,34,117,44
2,46,77,188
2,46,83,44
2,34,106,32
2,46,80,188
2,46,77,40
2,34,100,52
2,46,79,188
2,46,86,16
2,34,104,52
2,46,82,188
2,46,71,40
2,31,127,44
2,43,81,188
2,43,82,48
2,31,126,24
2,43,80,188
2,43,86,48
2,36,113,36
2,48,84,188
2,48,86,36
2,36,117,20
2,48,80,192
2,48,76,36
2,36,117,36
2,48,73,192
2,48,80,48
2,36,110,20
2,48,76,8
2,48,81,40
2,32,109,32
2,44,85,192
2,44,85,48
2,32,127,24
2,44,88,192
2,44,83,52
2,32,113,20
2,44,85,188
2,44,83,52
2,32,117,20
2,44,81,188
2,44,85,52
2,34,117,40
2,46,75,188
2,46,84,48
2,34,113,44
2,46,71,192
2,46,83,48
2,34,117,32
2,46,66,188
2,46,81,64
2,34,117,24
2,46,71,188
2,46,82,48
2,34,121,32
2,46,77,188
2,46,85,60
2,34,121,32
2,31,103,60
2,43,80,52
2,31,100,32
2,43,74,188
2,31,113,36
2,43,61,188
2,43,81,48
2,31,103,20
2,43,71,188
2,43,76,48
2,31,105,32
2,43,72,188
2,43,73,56
2,31,117,12
2,43,67,0
2,43,75,52
2,31,117,24
2,43,71,192
2,31,110,44
2,32,109,36
2,32,88,64
2,32,100,112
2,34,109,88
2,34,99,88
2,31,100,80
2,34,70,0
2,36,110,68
2,34,102,20
2,32,104,12
2,32,94,72
2,32,104,108
2,34,106,84
2,34,99,96
2,31,103,72
2,34,67,4
2,36,95,48
2,34,92,4
2,32,100,24
2,32,97,92
2,32,102,116
2,34,104,84
2,34,99,116
2,31,95,96
2,32,66,0
2,34,67,0
2,36,100,72
2,34,98,12
2,32,104,20
2,32,97,80
2,32,98,116
2,34,98,96
2,34,90,76
2,34,117,108
2,34,113,104
2,32,121,244
2,32,88,68
2,32,93,120
2,34,113,104
2,34,92,88
2,31,96,88
2,36,100,80
2,34,100,20
2,32,104,48
2,32,88,72
2,32,92,120
2,34,104,96
2,34,96,88
2,31,96,92
2,36,92,76
2,34,85,192
2,32,100,32
2,32,93,92
2,32,96,108
2,34,99,96
2,34,96,96
2,31,93,80
2,36,93,76
2,34,85,192
2,32,100,44
2,32,97,88
2,32,102,116
2,34,102,108
2,34,97,92
2,31,91,84
2,36,93,108
2,34,82,4
2,32,104,64
2,32,90,104
2,32,99,120
2,34,102,96
2,34,98,108
2,31,90,84
2,36,92,84
2,34,87,8
2,32,104,36
2,32,92,116
2,32,97,116
2,34,102,108
2,34,99,104
2,31,92,84
2,36,91,96
2,34,87,4
2,32,102,64
2,32,97,100
2,32,102,104
2,34,109,108
2,34,102,120
2,31,98,96
2,36,95,108
2,34,100,20
2,29,110,68
2,29,93,76
2,29,95,100
2,24,108,56
2,24,93,100
2,24,98,96
2,27,106,88
2,31,92,92
2,32,106,84
2,32,91,64
2,32,96,104
2,34,98,84
2,34,97,88
2,31,96,96
2,36,98,84
2,34,90,192
2,32,100,36
2,32,93,80
2,32,99,104
2,34,102,100
2,34,99,108
2,31,93,56
2,36,93,88
2,34,90,192
2,32,102,24
2,32,93,84
2,32,97,108
2,34,100,96
2,34,91,108
2,31,91,20
2,36,92,16
2,34,87,4
2,32,97,12
2,32,89,72
2,32,86,88
2,34,89,84
2,34,84,88
2,34,117,108
2,34,102,88
2,32,102,196
2,32,91,72
2,32,90,96
2,34,98,84
2,34,87,76
2,31,95,68
2,36,91,64
2,34,87,192
2,32,98,16
2,32,94,92
2,32,94,96
2,34,100,96
2,34,94,84
2,31,93,84
2,36,89,100
2,34,87,8
2,32,97,76
2,32,89,84
2,32,92,96
2,34,99,84
2,34,98,104
2,31,88,64
2,36,93,88
2,34,85,192
2,32,96,24
2,32,93,92
2,32,97,116
2,34,97,84
2,34,94,96
2,31,90,68
2,36,93,84
2,34,84,20
2,32,94,56
2,32,92,92
2,32,96,108
2,34,98,96
2,34,94,108
2,31,90,64
2,36,91,96
2,34,85,8
2,32,91,116
2,32,90,100
2,32,97,104
2,34,94,108
2,34,94,116
2,31,89,76
2,36,87,108
2,34,85,8
2,32,94,92
2,32,92,108
2,32,98,116
2,34,98,96
2,34,97,92
2,31,93,76
2,36,86,84
2,34,91,192
2,29,98,16
2,29,86,92
2,29,93,108
2,24,103,112
2,24,91,88
2,24,96,104
2,27,106,120
2,31,91,16
2,32,121,4
2,32,89,68
2,32,100,108
2,34,113,84
2,34,90,76
2,31,100,56
2,36,93,68
2,34,90,192
2,32,99,32
2,32,91,68
2,32,87,88
2,34,98,68
2,34,92,76
2,34,91,96
2,31,84,32
2,29,68,4
2,27,121,104
2,29,91,188
2,31,90,28
2,32,117,20
2,31,90,20
2,29,92,8
2,27,97,16
2,34,98,192
2,36,94,0
2,38,96,188
2,39,87,184
2,38,91,12
2,36,98,20
2,34,97,20
2,27,113,4
2,29,93,188
2,31,98,192
2,32,109,32
2,31,105,12
2,29,95,4
2,27,104,188
2,34,117,8
2,36,88,20
2,38,84,196
2,36,100,12
2,34,94,4
2,31,89,8
2,29,86,192
2,27,113,160
2,29,92,160
2,31,91,172
2,32,102,12
2,31,101,8
2,29,93,196
2,27,106,184
2,34,109,12
2,36,91,188
2,38,93,172
2,39,104,4
2,38,90,40
2,36,91,192
2,34,100,152
2,27,109,32
2,29,91,188
2,31,89,168
2,32,99,12
2,31,96,4
2,29,94,0
2,27,102,188
2,34,104,176
2,36,88,32
2,38,81,4
2,36,94,4
2,34,99,8
2,32,94,192
2,31,91,40
2,32,98,196
2,32,94,68
2,32,98,96
2,34,100,76
2,34,87,52
2,31,87,28
2,36,96,36
2,34,88,192
2,32,102,24
2,32,90,72
2,32,94,108
2,34,100,96
2,34,87,80
2,31,89,44
2,36,93,28
2,34,88,192
2,32,97,12
2,32,96,84
2,32,94,96
2,34,99,84
2,34,92,68
2,31,94,36
2,36,91,44
2,34,87,192
2,32,100,12
2,32,90,84
2,32,91,112
2,34,98,76
2,34,81,76
2,34,106,128
2,34,113,96
2,32,91,16
2,32,88,92
2,32,94,108
2,34,97,92
2,34,80,88
2,31,96,60
2,36,92,24
2,34,90,192
2,32,97,16
2,32,93,72
2,32,96,108
2,34,93,76
2,34,91,108
2,31,90,28
2,36,91,28
2,34,85,192
2,32,97,16
2,32,92,96
2,32,96,116
2,34,98,96
2,34,90,96
2,31,85,40
2,36,91,24
2,34,84,4
2,32,96,16
2,32,90,88
2,32,90,116
2,34,88,88
2,34,90,96
2,31,95,28
2,36,93,16
2,34,88,192
2,32,92,16
2,32,88,104
2,32,92,108
2,34,98,96
2,34,87,76
2,31,91,44
2,36,92,16
2,34,85,192
2,32,98,32
2,32,87,100
2,32,94,116
2,34,98,116
2,34,91,88
2,31,88,28
2,36,92,16
2,34,86,0
2,32,97,36
2,32,93,96
2,32,93,108
2,34,96,76
2,34,98,72
2,31,91,36
2,36,91,28
2,34,88,192
2,29,100,12
2,29,88,92
2,29,95,108
2,24,101,104
2,24,88,88
2,24,93,92
2,27,106,64
2,29,91,188
2,32,97,16
2,32,90,60
2,32,93,100
2,34,106,68
2,34,100,76
2,31,96,32
2,36,92,196
2,34,90,184
2,32,102,24
2,32,94,96
2,32,98,120
2,34,99,96
2,34,97,72
2,31,96,48
2,36,90,16
2,34,92,192
2,32,102,44
2,32,100,104
2,32,98,108
2,34,99,88
2,34,98,68
2,31,101,12
2,36,94,196
2,34,90,188
2,32,100,24
2,32,98,84
2,32,97,96
2,34,97,76
2,34,94,64
2,34,92,88
2,36,91,24
2,34,90,192
2,27,104,192
2,29,91,184
2,31,95,16
2,32,99,192
2,31,89,8
2,29,91,196
2,27,100,20
2,34,93,196
2,36,94,12
2,38,94,4
2,39,109,32
2,38,81,16
2,36,96,196
2,34,99,8
2,27,102,12
2,29,93,4
2,31,90,196
2,32,106,44
2,31,94,32
2,29,93,196
2,27,96,4
2,34,102,192
2,36,89,184
2,38,89,0
2,36,94,12
2,34,98,4
2,31,100,192
2,29,89,184
2,27,104,32
2,29,90,188
2,31,90,24
2,32,104,56
2,31,93,12
2,29,92,8
2,27,102,8
2,34,106,4
2,36,87,16
2,38,91,12
2,39,98,4
2,38,88,20
2,36,91,8
2,34,96,4
2,27,104,32
2,29,89,8
2,31,86,4
2,32,104,24
2,31,94,20
2,29,91,196
2,27,98,32
2,34,104,196
2,36,85,8
2,38,85,0
2,36,91,12
2,34,99,20
2,31,94,4
2,29,86,4
2,27,127,96
2,29,89,12
2,31,98,16
2,32,109,76
2,31,100,28
2,29,95,4
2,27,100,40
2,34,109,32
2,36,89,12
2,38,90,8
2,39,99,4
2,38,89,32
2,36,94,48
2,34,97,16
2,27,109,24
2,29,90,188
2,31,87,12
2,32,106,56
2,31,95,40
2,29,94,8
2,27,102,20
2,34,113,16
2,36,89,16
2,38,84,4
2,36,95,16
2,34,100,4
2,31,105,8
2,29,90,4
2,27,104,24
2,29,90,192
2,31,90,28
2,32,117,56
2,31,94,16
2,29,93,20
2,27,99,20
2,34,109,196
2,36,91,8
2,38,84,8
2,39,96,12
2,38,93,32
2,36,91,0
2,34,93,20
2,27,99,44
2,29,84,188
2,31,88,16
2,32,104,32
2,31,95,16
2,29,91,196
2,27,97,8
2,34,102,196
2,36,85,176
2,38,84,152
2,36,95,20
2,34,96,0
2,31,95,12
2,27,93,8
2,29,95,24
2,29,85,56
2,29,90,76
2,29,85,52
2,29,89,64
2,29,82,40
2,29,88,72
2,32,94,4
2,31,92,12
2,31,91,52
2,31,86,68
2,31,91,76
2,31,91,76
2,31,86,76
2,31,89,88
2,31,88,60
2,32,90,52
2,32,74,20
2,32,90,64
2,32,89,56
2,32,94,76
2,32,89,80
2,32,93,96
2,34,91,4
2,36,88,24
2,36,86,44
2,36,85,24
2,36,93,32
2,36,88,68
2,36,92,72
2,34,96,196
2,32,97,24
