track,note,velocity,time
0,31,101,1536
0,55,83,0
0,59,94,0
0,62,87,0
0,67,48,0
0,59,47,0
0,62,49,0
0,57,99,0
0,54,41,0
0,35,127,0
0,54,41,50
0,59,64,62
0,62,55,0
0,67,64,0
0,75,74,0
0,54,41,0
0,54,41,56
0,54,41,60
0,40,96,0
0,59,64,42
0,62,56,0
0,67,55,0
0,75,71,0
0,54,41,0
0,54,41,64
0,64,97,0
0,54,41,34
0,35,127,0
0,31,86,60
0,59,54,0
0,62,63,0
0,67,59,0
0,75,66,0
0,54,41,0
0,54,41,44
0,54,41,68
0,59,60,40
0,62,59,0
0,67,59,0
0,75,68,0
0,54,41,0
0,39,88,60
0,54,41,0
0,40,101,0
0,54,41,6
0,31,105,58
0,59,61,0
0,62,56,0
0,67,62,0
0,46,80,0
0,54,41,0
0,33,85,36
0,42,83,0
0,54,41,0
0,35,89,16
0,54,74,0
0,59,100,0
0,62,95,0
0,62,47,0
0,59,40,0
0,66,48,0
0,54,41,0
0,35,127,0
0,54,41,42
0,59,60,62
0,62,57,0
0,66,61,0
0,54,41,0
0,54,41,40
0,54,41,60
0,40,106,0
0,59,61,36
0,62,60,0
0,66,64,0
0,54,41,0
0,54,41,62
0,64,106,0
0,54,41,36
0,35,127,0
0,35,108,58
0,62,59,0
0,66,58,0
0,69,64,0
0,54,41,0
0,54,41,42
0,54,41,60
0,62,60,34
0,66,60,0
0,69,64,0
0,54,41,0
0,39,109,58
0,54,41,0
0,40,109,0
0,35,112,36
0,42,81,0
0,54,41,0
0,33,114,46
0,62,58,0
0,66,63,0
0,69,58,0
0,46,112,0
0,54,41,0
0,35,112,34
0,42,72,0
0,54,41,0
0,36,107,44
0,55,85,0
0,60,99,0
0,64,90,0
0,60,47,0
0,64,43,0
0,67,44,0
0,42,99,0
0,54,41,0
0,35,127,0
0,54,41,50
0,60,59,62
0,64,59,0
0,67,62,0
0,75,69,0
0,42,99,0
0,54,41,0
0,54,41,50
0,54,41,60
0,40,96,0
0,60,57,42
0,64,56,0
0,67,61,0
0,75,55,0
0,54,41,0
0,36,103,66
0,54,41,0
0,64,97,0
0,36,94,40
0,54,41,0
0,35,127,0
0,60,55,60
0,64,58,0
0,67,59,0
0,75,62,0
0,54,41,0
0,54,41,44
0,54,41,68
0,60,64,40
0,64,59,0
0,67,58,0
0,75,63,0
0,54,41,0
0,39,104,40
0,54,41,0
0,40,101,0
0,54,41,44
0,36,100,22
0,60,54,0
0,64,64,0
0,67,58,0
0,75,68,0
0,46,80,0
0,54,41,0
0,35,93,0
0,42,83,0
0,54,41,0
0,33,112,2
0,57,100,0
0,60,102,0
0,64,87,0
0,67,87,0
0,67,44,0
0,60,49,0
0,64,47,0
0,54,41,0
0,35,127,0
0,54,41,42
0,60,54,30
0,64,59,0
0,67,61,0
0,54,41,0
0,54,41,40
0,35,109,60
0,55,101,0
0,62,119,0
0,67,101,0
0,59,44,0
0,62,45,0
0,67,43,0
0,54,41,0
0,40,106,0
0,59,62,36
0,62,57,0
0,67,57,0
0,54,41,0
0,54,41,62
0,64,106,0
0,54,41,36
0,35,127,0
0,60,56,58
0,64,58,0
0,67,60,0
0,54,41,0
0,54,41,42
0,54,41,60
0,60,61,6
0,64,54,0
0,67,57,0
0,54,41,0
0,36,110,58
0,60,102,0
0,64,103,0
0,67,93,0
0,60,48,0
0,64,48,0
0,67,50,0
0,39,102,0
0,54,41,0
0,40,109,0
0,42,81,36
0,54,41,0
0,60,55,6
0,64,62,0
0,67,56,0
0,46,112,0
0,54,41,0
0,42,72,6
0,54,41,0
0,31,104,62
0,59,94,0
0,62,100,0
0,67,89,0
0,59,43,0
0,62,47,0
0,67,45,0
0,42,99,0
0,54,41,0
0,35,127,0
0,54,41,50
0,59,59,62
0,62,60,0
0,67,59,0
0,75,48,0
0,42,99,0
0,54,41,0
0,54,41,50
0,54,41,60
0,40,96,0
0,59,55,42
0,62,59,0
0,67,61,0
0,75,51,0
0,54,41,0
0,54,41,64
0,64,97,0
0,54,41,40
0,35,127,0
0,59,57,60
0,62,54,0
0,67,56,0
0,75,54,0
0,54,41,0
0,45,105,44
0,54,41,0
0,43,81,8
0,54,41,0
0,40,91,4
0,59,57,0
0,62,63,0
0,67,64,0
0,75,54,0
0,54,41,0
0,43,108,22
0,39,112,0
0,54,41,0
0,40,101,0
0,54,41,44
0,40,100,58
0,59,59,0
0,62,59,0
0,67,63,0
0,75,60,0
0,46,80,0
0,54,41,0
0,42,83,36
0,54,41,0
0,35,97,2
0,62,95,0
0,66,87,0
0,71,86,0
0,74,84,0
0,59,48,0
0,62,50,0
0,66,49,0
0,54,41,0
0,35,127,0
0,54,41,42
0,62,62,62
0,66,62,0
0,71,58,0
0,54,41,0
0,54,41,40
0,54,41,60
0,40,106,0
0,62,54,36
0,66,56,0
0,71,64,0
0,54,41,0
0,42,85,24
0,54,41,0
0,64,106,0
0,35,90,2
0,54,41,0
0,35,127,0
0,69,97,4
0,62,54,0
0,66,58,0
0,69,62,0
0,66,47,0
0,62,44,0
0,69,50,0
0,54,41,0
0,54,41,42
0,54,41,60
0,62,60,34
0,66,64,0
0,71,55,0
0,54,41,0
0,39,115,34
0,54,41,0
0,40,109,0
0,42,81,36
0,54,41,0
0,33,92,56
0,62,64,0
0,66,58,0
0,69,55,0
0,46,112,0
0,54,41,0
0,35,85,2
0,42,72,0
0,54,41,0
0,36,101,62
0,60,88,0
0,64,91,0
0,67,81,0
0,67,40,0
0,64,45,0
0,60,49,0
0,42,99,0
0,54,41,0
0,35,127,0
0,54,41,50
0,60,63,62
0,64,55,0
0,67,62,0
0,75,52,0
0,42,99,0
0,54,41,0
0,54,41,50
0,54,41,60
0,40,96,0
0,60,59,30
0,64,56,0
0,67,60,0
0,75,49,0
0,54,41,0
0,36,124,60
0,54,41,0
0,64,97,0
0,36,118,40
0,54,41,0
0,35,127,0
0,60,63,60
0,64,63,0
0,67,59,0
0,75,53,0
0,54,41,0
0,54,41,44
0,54,41,68
0,60,60,40
0,64,59,0
0,67,56,0
0,75,61,0
0,54,41,0
0,39,112,54
0,54,41,0
0,40,101,0
0,54,41,44
0,60,54,58
0,64,60,0
0,67,55,0
0,75,65,0
0,46,80,0
0,54,41,0
0,42,83,2
0,54,41,0
0,37,103,48
0,61,87,0
0,64,100,0
0,67,83,0
0,61,49,0
0,67,47,0
0,64,50,0
0,54,41,0
0,35,127,0
0,54,41,42
0,61,59,62
0,64,55,0
0,67,58,0
0,54,41,0
0,54,41,40
0,54,41,60
0,40,106,0
0,61,61,32
0,64,60,0
0,67,54,0
0,54,41,0
0,37,94,58
0,54,41,0
0,64,106,0
0,38,101,4
0,67,99,0
0,62,120,0
0,57,98,0
0,54,41,0
0,35,127,0
0,57,55,58
0,62,59,0
0,67,58,0
0,62,42,0
0,57,41,0
0,67,49,0
0,54,41,0
0,54,41,42
0,54,41,60
0,57,56,34
0,62,60,0
0,66,59,0
0,54,41,0
0,39,108,58
0,54,41,0
0,40,109,0
0,42,81,14
0,54,41,0
0,57,63,56
0,62,63,0
0,66,60,0
0,75,58,0
0,46,112,0
0,54,41,0
0,75,53,34
0,42,72,0
0,54,41,0
0,31,108,52
0,59,72,0
0,62,79,0
0,67,66,0
0,62,43,0
0,67,44,0
0,59,50,0
0,42,71,0
0,35,127,0
0,59,58,162
0,62,59,0
0,67,62,0
0,75,79,0
0,42,49,0
0,42,62,52
0,62,110,66
0,42,48,0
0,40,96,0
0,59,60,42
0,62,61,0
0,67,57,0
0,75,75,0
0,42,65,0
0,64,98,54
0,42,62,0
0,64,97,0
0,66,92,4
0,42,78,0
0,35,127,0
0,35,104,28
0,66,72,0
0,62,79,0
0,59,72,0
0,59,57,0
0,62,63,0
0,66,57,0
0,62,42,0
0,59,50,0
0,66,41,0
0,75,58,0
0,42,77,0
0,67,84,138
0,42,74,0
0,59,60,16
0,62,55,0
0,66,60,0
0,75,69,0
0,46,80,0
0,66,98,42
0,40,101,0
0,42,71,54
0,62,98,4
0,59,54,0
0,62,56,0
0,66,61,0
0,75,68,0
0,42,71,0
0,64,104,2
0,36,110,84
0,60,79,0
0,55,72,0
0,64,78,0
0,67,46,0
0,60,47,0
0,64,49,0
0,42,71,0
0,35,127,0
0,55,64,162
0,60,63,0
0,64,54,0
0,42,49,0
0,42,62,56
0,42,48,66
0,40,106,0
0,55,58,48
0,60,57,0
0,64,57,0
0,42,65,0
0,42,62,34
0,64,106,0
0,42,78,32
0,35,127,0
0,36,108,42
0,55,64,0
0,60,60,0
0,64,57,0
0,42,77,0
0,42,74,138
0,55,54,70
0,60,56,0
0,64,56,0
0,46,80,0
0,60,50,40
0,65,41,0
0,69,45,0
0,40,109,0
0,57,77,50
0,65,91,0
0,60,97,0
0,42,71,0
0,31,108,62
0,57,55,0
0,60,57,0
0,65,59,0
0,42,71,0
0,33,114,2
0,72,117,8
0,36,108,0
0,64,72,0
0,60,85,0
0,55,72,0
0,67,47,0
0,60,40,0
0,64,49,0
0,42,71,0
0,35,127,0
0,71,87,162
0,55,59,0
0,60,64,0
0,64,62,0
0,75,79,0
0,42,49,0
0,42,62,0
0,71,99,66
0,42,48,0
0,40,96,0
0,55,62,42
0,60,61,0
0,64,54,0
0,75,75,0
0,42,65,0
0,69,104,54
0,43,97,0
0,42,62,0
0,64,97,0
0,42,78,26
0,35,127,0
0,69,81,6
0,36,108,0
0,55,57,0
0,60,58,0
0,64,63,0
0,75,58,0
0,42,77,0
0,42,74,138
0,55,64,70
0,60,59,0
0,64,60,0
0,75,69,0
0,46,80,0
0,40,101,42
0,42,71,54
0,67,85,14
0,55,59,0
0,60,60,0
0,64,54,0
0,75,68,0
0,42,71,0
0,67,83,48
0,31,110,0
0,59,69,0
0,67,66,0
0,62,79,0
0,67,48,0
0,62,49,0
0,59,49,0
0,42,71,0
0,35,127,0
0,59,95,18
0,59,60,0
0,62,63,0
0,67,64,0
0,42,49,0
0,62,111,8
0,42,62,0
0,42,48,66
0,40,106,0
0,59,57,48
0,62,64,0
0,67,64,0
0,42,65,0
0,38,109,48
0,42,62,0
0,64,106,0
0,42,78,40
0,35,127,0
0,31,96,24
0,59,54,0
0,62,63,0
0,67,59,0
0,42,77,0
0,42,74,2
0,59,57,70
0,62,63,0
0,67,54,0
0,46,80,0
0,40,109,56
0,42,71,0
0,26,121,62
0,67,67,0
0,60,80,0
0,64,67,0
0,60,55,0
0,64,61,0
0,67,64,0
0,67,49,0
0,60,50,0
0,64,50,0
0,42,71,0
0,28,127,62
0,31,99,12
0,62,101,0
0,67,84,0
0,59,91,0
0,67,41,0
0,62,48,0
0,59,48,0
0,42,71,0
0,35,127,0
0,59,54,162
0,62,55,0
0,67,54,0
0,75,79,0
0,42,49,0
0,42,62,58
0,71,104,66
0,42,48,0
0,40,96,0
0,59,63,32
0,62,56,0
0,67,62,0
0,75,75,0
0,42,65,0
0,69,102,54
0,38,114,0
0,42,62,0
0,64,97,0
0,69,99,40
0,42,78,0
0,35,127,0
0,31,100,32
0,59,55,0
0,62,54,0
0,67,63,0
0,75,58,0
0,42,77,0
0,42,74,138
0,59,62,70
0,62,60,0
0,67,63,0
0,75,69,0
0,46,80,0
0,40,101,42
0,42,71,50
0,67,91,10
0,35,112,0
0,59,64,0
0,62,61,0
0,67,54,0
0,75,68,0
0,42,71,0
0,36,98,0
0,66,88,10
0,38,109,0
0,57,79,0
0,66,73,0
0,62,94,0
0,62,42,0
0,69,47,0
0,66,47,0
0,42,71,0
0,35,127,0
0,57,86,30
0,57,55,0
0,62,60,0
0,66,59,0
0,42,49,0
0,60,108,4
0,42,62,0
0,42,48,66
0,40,106,0
0,57,57,42
0,62,60,0
0,66,56,0
0,42,65,0
0,42,62,64
0,64,106,0
0,45,98,40
0,42,78,0
0,35,127,0
0,38,101,16
0,57,54,0
0,62,54,0
0,66,64,0
0,42,77,0
0,42,74,138
0,57,55,50
0,62,60,0
0,66,56,0
0,46,80,0
0,40,109,56
0,42,71,6
0,33,98,24
0,59,89,0
0,67,79,0
0,62,103,0
0,59,60,0
0,62,56,0
0,67,64,0
0,59,44,0
0,62,40,0
0,67,48,0
0,42,71,0
0,35,97,62
0,38,101,6
0,66,83,0
0,57,91,0
0,62,106,0
0,57,49,0
0,62,44,0
0,66,45,0
0,42,71,0
0,35,127,0
0,57,64,116
0,62,60,0
0,66,62,0
0,75,79,0
0,42,49,0
0,57,96,56
0,42,62,0
0,57,104,58
0,42,48,0
0,40,96,0
0,57,64,42
0,62,57,0
0,66,59,0
0,75,75,0
0,42,65,0
0,59,116,6
0,45,104,0
0,42,62,0
0,64,97,0
0,42,78,40
0,35,127,0
0,60,107,40
0,38,103,0
0,57,58,0
0,62,56,0
0,66,57,0
0,75,58,0
0,42,77,0
0,60,104,64
0,42,74,0
0,57,54,18
0,62,57,0
0,66,63,0
0,75,69,0
0,46,80,0
0,60,104,42
0,40,101,0
0,42,71,0
0,62,89,62
0,33,120,0
0,57,57,0
0,62,59,0
0,66,58,0
0,75,68,0
0,42,71,0
0,35,95,12
0,60,107,0
0,31,112,0
0,67,71,0
0,59,84,0
0,62,96,0
0,62,50,0
0,67,46,0
0,59,40,0
0,42,71,0
0,35,127,0
0,59,111,162
0,59,59,0
0,62,55,0
0,67,60,0
0,42,49,0
0,42,62,60
0,62,107,30
0,42,48,0
0,40,106,0
0,59,61,10
0,62,56,0
0,67,63,0
0,42,65,0
0,38,116,54
0,42,62,0
0,64,106,0
0,42,78,40
0,35,127,0
0,31,96,6
0,59,63,0
0,62,64,0
0,67,62,0
0,42,77,0
0,42,74,138
0,59,55,70
0,62,59,0
0,67,59,0
0,46,80,0
0,40,109,46
0,42,71,4
0,38,121,62
0,64,85,0
0,67,84,0
0,60,108,0
0,60,58,0
0,64,54,0
0,67,60,0
0,67,40,0
0,64,46,0
0,60,40,0
0,42,71,0
0,40,96,28
0,43,108,36
0,59,91,0
0,62,106,0
0,65,99,0
0,62,45,0
0,59,43,0
0,65,49,0
0,42,71,0
0,35,127,0
0,59,55,162
0,62,58,0
0,65,57,0
0,75,79,0
0,42,49,0
0,42,62,60
0,67,73,66
0,42,48,0
0,40,96,0
0,59,57,42
0,62,62,0
0,65,55,0
0,75,75,0
0,42,65,0
0,69,101,54
0,43,116,0
0,42,62,0
0,64,97,0
0,71,96,12
0,42,78,0
0,35,127,0
0,35,127,14
0,59,55,0
0,62,61,0
0,65,62,0
0,75,58,0
0,42,77,0
0,72,105,138
0,59,62,0
0,62,60,0
0,65,58,0
0,42,74,0
0,71,70,20
0,75,69,0
0,46,80,0
0,40,101,42
0,42,71,54
0,69,99,62
0,35,123,0
0,59,62,0
0,62,61,0
0,65,64,0
0,75,68,0
0,42,71,0
0,67,73,4
0,36,106,0
0,67,82,0
0,60,87,0
0,64,91,0
0,64,49,0
0,60,44,0
0,67,49,0
0,42,71,0
0,35,127,0
0,60,62,162
0,64,58,0
0,67,61,0
0,42,49,0
0,42,62,56
0,42,48,6
0,40,106,0
0,65,71,46
0,60,54,2
0,64,59,0
0,67,58,0
0,42,65,0
0,69,78,14
0,74,74,4
0,65,88,32
0,69,91,0
0,74,79,0
0,65,45,0
0,62,50,0
0,69,49,0
0,42,62,0
0,64,106,0
0,43,105,48
0,42,78,30
0,35,127,0
0,36,109,8
0,64,83,0
0,67,79,2
0,72,95,24
0,72,95,16
0,64,86,0
0,67,93,0
0,60,64,0
0,64,57,0
0,67,61,0
0,60,42,0
0,67,40,0
0,64,40,0
0,42,77,0
0,60,57,138
0,64,55,0
0,67,59,0
0,42,74,0
0,46,80,58
0,40,109,4
0,42,71,2
0,57,84,12
0,60,90,4
0,65,94,16
0,31,123,30
0,60,90,0
0,57,85,0
0,65,94,0
0,60,57,0
0,64,64,0
0,67,55,0
0,65,45,0
0,60,46,0
0,69,45,0
0,42,71,0
0,33,118,2
0,55,67,48
0,60,86,10
0,36,109,4
0,60,93,0
0,55,91,0
