track,note,velocity,time
1,35,102,1920
1,49,64,0
1,35,0,24
1,49,0,0
1,35,64,936
1,49,58,0
1,49,0,24
1,35,0,24
1,35,64,12
1,42,83,0
1,35,0,48
1,42,0,0
1,42,83,12
1,38,121,0
1,38,0,24
1,42,0,24
1,42,95,12
1,35,64,28
1,42,0,20
1,42,83,12
1,35,0,16
1,35,64,12
1,42,0,20
1,42,83,12
1,35,0,16
1,42,0,32
1,42,83,12
1,38,121,0
1,38,0,24
1,42,0,24
1,42,95,12
1,42,0,16
1,38,121,14
1,38,0,24
1,35,64,6
1,42,83,0
1,35,0,48
1,42,0,0
1,35,64,12
1,42,83,0
1,35,0,48
1,42,0,0
1,42,83,12
1,38,121,0
1,38,0,24
1,42,0,24
1,42,92,12
1,42,0,24
1,35,64,6
1,35,0,24
1,42,83,6
1,35,64,28
1,38,90,2
1,42,0,18
1,35,0,4
1,38,0,2
1,35,64,6
1,42,83,0
1,35,0,48
1,42,0,0
1,38,113,12
1,42,83,0
1,42,0,12
1,38,0,12
1,38,68,6
1,38,0,24
1,38,46,6
1,42,92,0
1,38,0,24
1,42,0,0
1,35,83,36
1,49,64,0
1,35,0,48
1,35,64,10
1,42,83,2
1,35,0,22
1,49,0,14
1,42,0,12
1,42,83,12
1,38,121,0
1,42,0,48
1,42,95,12
1,42,0,24
1,35,64,4
1,35,0,24
1,42,83,8
1,38,90,28
1,42,0,18
1,42,83,14
1,38,0,12
1,38,0,6
1,42,0,30
1,42,83,12
1,38,121,0
1,42,0,46
1,38,0,0
1,42,95,14
1,42,0,22
1,38,90,6
1,38,0,24
1,35,64,6
1,42,83,2
1,35,0,46
1,42,0,0
1,35,64,12
1,42,83,2
1,35,0,48
1,42,0,0
1,42,83,12
1,38,121,0
1,42,0,48
1,42,95,12
1,42,0,24
1,35,64,4
1,35,0,24
1,42,83,8
1,42,0,22
1,38,90,6
1,38,0,26
1,42,83,6
1,38,0,12
1,42,0,36
1,42,83,12
1,38,121,0
1,42,0,12
1,42,95,48
1,42,0,22
1,38,76,6
1,38,0,8
1,38,0,16
1,42,64,9
1,42,0,22
1,38,83,0
1,38,0,24
1,42,56,11
1,42,0,50
1,38,121,12
1,42,83,1
1,42,0,48
1,42,95,12
1,42,0,24
1,35,64,3
1,35,0,24
1,42,83,9
1,42,0,22
1,35,64,5
1,38,90,0
1,35,0,24
1,38,0,2
1,42,57,4
1,38,0,14
1,42,0,34
1,38,121,14
1,42,83,1
1,42,0,12
1,42,95,48
1,42,0,24
1,38,90,3
1,38,0,8
1,35,64,22
1,42,83,4
1,38,0,17
1,35,0,27
1,42,0,1
1,35,64,11
1,42,83,4
1,35,0,46
1,42,0,2
1,38,121,10
1,42,83,2
1,42,0,48
1,42,95,12
1,42,0,24
1,35,64,2
1,35,0,24
1,42,83,10
1,42,0,21
1,35,64,5
1,38,90,0
1,38,0,24
1,35,0,0
1,38,0,3
1,46,70,3
1,46,0,50
1,38,98,12
1,38,0,24
1,38,98,6
1,38,0,24
1,38,83,6
1,38,0,24
1,38,90,6
1,38,0,24
1,35,64,4
1,49,70,2
1,35,0,46
1,49,0,0
1,35,64,12
1,46,64,0
1,35,0,48
1,46,0,0
1,38,121,12
1,46,64,0
1,38,0,48
1,46,0,0
1,46,64,12
1,46,0,24
1,35,64,6
1,35,0,24
1,46,64,6
1,38,90,30
1,46,0,18
1,46,64,12
1,38,0,18
1,46,0,30
1,38,121,12
1,46,64,0
1,38,0,48
1,46,0,0
1,46,64,12
1,46,0,24
1,38,90,6
1,38,0,24
1,35,64,6
1,46,64,0
1,35,0,48
1,46,0,0
1,35,64,12
1,46,64,0
1,35,0,48
1,46,0,0
1,38,121,12
1,46,64,0
1,38,0,48
1,46,0,0
1,46,64,12
1,46,0,24
1,35,64,6
1,35,0,24
1,46,64,6
1,46,0,24
1,38,90,6
1,38,0,24
1,46,64,6
1,46,0,48
1,38,121,12
1,46,64,0
1,38,0,48
1,46,0,0
1,46,64,12
1,46,0,24
1,38,90,6
1,38,0,24
1,35,64,6
1,49,64,0
1,35,0,48
1,49,0,0
1,35,64,12
1,46,64,1
1,35,0,48
1,46,0,0
1,38,121,12
1,46,64,0
1,38,0,48
1,46,0,0
1,46,64,12
1,46,0,23
1,35,64,6
1,35,0,25
1,46,64,6
1,46,0,23
1,38,90,6
1,38,0,25
1,46,64,6
1,46,0,48
1,38,121,12
1,46,64,0
1,38,0,48
1,46,0,0
1,46,64,12
1,46,0,23
1,38,90,6
1,38,0,24
1,35,64,6
1,46,64,0
1,35,0,48
1,46,0,0
1,35,64,12
1,46,64,2
1,35,0,48
1,46,0,0
1,38,121,12
1,46,64,0
1,38,0,48
1,46,0,0
1,46,64,12
1,46,0,22
1,35,64,6
1,35,0,26
1,46,64,4
1,46,0,22
1,38,90,8
1,38,0,26
1,46,70,4
1,46,0,24
1,46,70,36
1,38,98,2
1,46,0,22
1,38,0,0
1,46,70,6
1,38,61,0
1,46,0,24
1,38,0,0
1,38,68,6
1,38,0,24
1,38,68,6
1,38,0,24
1,35,64,6
1,49,64,0
1,35,0,48
1,49,0,0
1,35,64,12
1,46,78,3
1,35,0,47
1,46,0,1
1,38,121,12
1,46,78,0
1,38,0,48
1,46,0,0
1,46,78,12
1,46,0,22
1,35,64,5
1,35,0,26
1,46,78,7
1,46,0,22
1,38,90,5
1,38,0,26
1,46,78,7
1,46,0,48
1,38,121,12
1,46,78,0
1,38,0,48
1,46,0,0
1,46,78,12
1,46,0,22
1,38,90,5
1,38,0,24
1,35,64,6
1,46,78,0
1,35,0,48
1,46,0,0
1,35,64,12
1,46,78,4
1,35,0,47
1,46,0,1
1,38,121,12
1,46,78,0
1,38,0,48
1,46,0,0
1,46,78,12
1,46,0,21
1,35,64,5
1,35,0,27
1,46,78,7
1,46,0,21
1,38,90,5
1,38,0,27
1,46,78,7
1,46,0,48
1,38,121,12
1,46,64,0
1,38,0,48
1,46,0,0
1,46,78,12
1,46,0,21
1,38,121,5
1,38,0,24
1,35,64,6
1,46,78,0
1,35,0,24
1,46,0,0
1,38,61,6
1,38,0,24
1,35,64,6
1,46,78,5
1,35,0,47
1,46,0,1
1,38,121,12
1,46,78,0
1,38,0,48
1,46,0,0
1,46,78,12
1,46,0,20
1,35,64,5
1,35,0,28
1,46,78,7
1,46,0,20
1,38,90,5
1,38,0,28
1,46,78,7
1,46,0,48
1,38,121,12
1,46,78,0
1,38,0,48
1,46,0,0
1,46,78,12
1,46,0,20
1,38,121,5
1,38,0,24
1,35,64,6
1,46,78,0
1,35,0,24
1,46,0,0
1,38,61,6
1,38,0,24
1,35,64,6
1,46,78,6
1,35,0,47
1,46,0,1
1,38,121,12
1,46,78,0
1,38,0,48
1,46,0,0
1,46,78,12
1,46,0,19
1,35,64,5
1,35,0,29
1,46,78,7
1,46,0,19
1,38,90,5
1,38,0,29
1,46,78,7
1,46,0,48
1,38,98,12
1,46,78,0
1,38,0,19
1,46,0,0
1,38,76,5
1,38,0,24
1,38,90,6
1,46,78,6
1,38,0,18
1,46,0,1
1,38,68,5
1,38,0,24
1,35,64,6
1,49,58,0
1,35,0,48
1,49,0,0
1,35,64,12
1,46,61,5
1,35,0,43
1,46,0,5
1,38,121,7
1,46,61,5
1,46,0,48
1,46,61,12
1,46,0,20
1,35,64,5
1,35,0,28
1,38,0,2
1,46,61,5
1,46,0,20
1,38,76,5
1,35,64,30
1,46,61,5
1,35,0,23
1,38,0,14
1,46,0,11
1,38,121,7
1,46,61,5
1,46,0,48
1,46,61,12
1,38,0,7
1,46,0,13
1,38,76,5
1,38,0,24
1,35,64,6
1,46,61,0
1,46,61,1
1,46,0,24
1,35,0,23
1,46,0,0
1,35,64,12
1,46,61,6
1,35,0,42
1,46,0,6
1,38,121,6
1,46,61,6
1,38,0,18
1,46,0,1
1,35,64,5
1,35,0,29
1,46,61,7
1,46,0,19
1,35,64,5
1,35,0,29
1,46,61,7
1,46,0,19
1,38,76,5
1,35,64,30
1,46,61,6
1,35,0,23
1,38,0,13
1,46,0,12
1,38,121,6
1,46,61,6
1,46,0,48
1,46,61,12
1,38,0,6
1,46,0,14
1,38,76,4
1,38,0,24
1,35,64,6
1,46,61,1
1,46,61,1
1,46,0,23
1,46,0,1
1,35,0,28
1,35,64,6
1,46,61,7
1,35,0,17
1,46,0,1
1,38,121,35
1,46,61,7
1,46,0,48
1,46,61,12
1,46,0,18
1,35,64,5
1,38,0,30
1,35,0,0
1,46,61,7
1,46,0,20
1,38,76,3
1,38,0,24
1,35,64,6
1,46,61,7
1,35,0,41
1,46,0,7
1,38,121,5
1,46,61,7
1,46,0,48
1,46,61,12
1,38,0,5
1,46,0,15
1,38,76,3
1,38,0,24
1,35,64,6
1,46,61,2
1,46,61,1
1,46,0,23
1,46,0,1
1,35,0,27
1,35,64,6
1,46,61,8
1,35,0,16
1,46,0,2
1,38,121,34
1,46,61,8
1,38,0,16
1,46,0,2
1,35,64,4
1,35,0,30
1,46,61,8
1,46,0,18
1,35,64,4
1,35,0,30
1,46,61,8
1,46,0,20
1,38,76,2
1,38,0,24
1,35,64,6
1,46,61,8
1,35,0,40
1,46,0,8
1,38,121,4
1,46,61,8
1,38,0,16
1,46,0,2
1,38,90,4
1,38,0,24
1,38,90,6
1,38,0,24
1,35,64,36
1,49,64,0
1,35,0,48
1,49,0,0
1,35,64,12
1,46,61,9
1,35,0,39
1,46,0,9
1,38,121,3
1,46,61,9
1,46,0,48
1,46,61,12
1,46,0,17
1,35,64,4
1,38,0,30
1,35,0,1
1,46,61,8
1,46,0,20
1,38,76,1
1,38,0,24
1,35,64,6
1,46,61,9
1,35,0,39
1,46,0,9
1,38,121,3
1,46,61,9
1,46,0,48
1,46,61,12
1,38,0,3
1,46,0,17
1,38,76,1
1,38,0,24
1,35,64,6
1,46,61,4
1,46,61,1
1,46,0,24
1,35,0,19
1,46,0,1
1,35,64,11
1,46,61,10
1,35,0,38
1,46,0,10
1,38,121,2
1,46,61,10
1,38,0,14
1,46,0,2
1,35,64,4
1,35,0,32
1,46,61,8
1,46,0,16
1,35,64,4
1,35,0,32
1,46,61,8
1,46,0,20
1,38,76,0
1,38,0,24
1,35,64,6
1,46,61,10
1,35,0,38
1,46,0,2
1,46,70,10
1,38,121,0
1,38,0,24
1,46,0,24
1,46,70,12
1,38,76,30
1,46,0,18
1,38,0,6
1,35,64,6
1,49,64,0
1,35,0,48
1,49,0,0
1,35,64,12
1,35,0,9
1,46,61,2
1,46,0,48
1,38,121,1
1,46,61,11
1,46,0,48
1,46,61,12
1,46,0,15
1,35,64,4
1,38,0,30
1,35,0,3
1,46,61,8
1,38,76,19
1,46,0,1
1,38,0,23
1,35,64,6
1,35,0,9
1,46,61,2
1,46,0,48
1,38,121,1
1,46,61,11
1,46,0,48
1,46,61,12
1,38,0,1
1,38,76,18
1,46,0,1
1,38,0,23
1,35,64,6
1,46,61,6
1,46,61,1
1,35,0,17
1,46,0,1
1,46,0,0
1,38,61,5
1,38,0,24
1,35,64,6
1,35,0,10
1,46,61,2
1,46,0,48
1,38,121,0
1,46,61,12
1,46,0,14
1,35,64,4
1,35,0,34
1,46,61,8
1,46,0,14
1,35,64,4
1,38,0,30
1,35,0,4
1,46,61,8
1,38,76,18
1,46,0,2
1,38,0,22
1,35,64,6
1,46,78,0
1,35,0,48
1,46,0,0
1,38,98,12
1,38,0,24
1,38,68,6
1,38,0,24
1,38,76,6
1,38,0,24
1,38,83,6
1,38,0,24
1,35,64,6
1,49,64,0
1,35,0,48
1,35,64,12
1,46,61,7
1,35,0,2
1,46,0,16
1,38,121,35
1,46,61,7
1,46,0,48
1,46,61,12
1,46,0,18
1,35,64,5
1,38,0,30
1,35,0,3
1,46,61,4
1,46,0,20
1,38,76,3
1,35,64,30
1,46,61,7
1,35,0,2
1,38,0,33
1,46,0,13
1,38,121,5
1,46,61,7
1,49,0,17
1,46,0,31
1,46,61,12
1,38,0,5
1,46,0,15
1,38,76,3
1,38,0,24
1,35,64,6
1,46,61,2
1,46,61,1
1,35,0,21
1,46,0,2
1,46,0,1
1,35,64,33
1,46,61,8
1,35,0,2
1,46,0,16
1,38,121,34
1,46,61,8
1,38,0,16
1,35,64,6
1,46,0,26
1,35,0,8
1,46,61,4
1,46,0,18
1,35,64,4
1,35,0,34
1,46,61,4
1,46,0,20
1,38,76,2
1,35,64,30
1,46,61,8
1,38,0,34
1,35,0,6
1,46,0,8
1,38,121,4
1,46,61,8
1,46,0,48
1,46,61,12
1,38,0,4
1,46,0,16
1,38,76,2
1,38,0,24
1,35,64,7
1,46,61,2
1,46,61,1
1,46,0,23
1,46,0,1
1,35,0,21
1,35,64,12
1,46,61,8
1,35,0,1
1,46,0,17
1,38,121,33
1,46,61,9
1,46,0,48
1,46,70,12
1,46,0,18
1,35,64,4
1,38,0,29
1,35,0,4
1,46,61,5
1,46,0,20
1,38,76,1
1,38,0,24
1,35,64,7
1,46,61,8
1,35,0,1
1,46,0,47
1,38,121,3
1,46,61,9
1,46,0,48
1,46,61,12
1,38,0,3
1,46,0,17
1,38,76,1
1,38,0,24
1,35,64,7
1,46,61,3
1,46,61,1
1,35,0,20
1,46,0,3
1,46,0,1
1,35,64,32
1,46,61,9
1,35,0,1
1,46,0,17
1,38,121,32
1,46,61,10
1,38,0,14
1,35,64,7
1,46,0,27
1,35,0,7
1,46,61,5
1,46,0,18
1,35,64,3
1,46,61,29
1,35,0,5
1,46,0,19
1,38,76,6
1,38,0,24
1,46,78,6
1,35,64,1
1,46,0,15
1,35,0,8
1,38,90,36
1,38,0,24
1,38,76,6
1,38,0,24
1,46,70,6
1,38,76,0
1,38,0,24
1,46,0,24
1,49,64,12
1,35,64,2
1,35,0,48
1,49,0,7
1,35,64,5
1,35,0,9
1,46,61,0
1,46,0,18
1,38,121,31
1,46,61,11
1,46,0,48
1,46,61,12
1,46,0,18
1,35,64,3
1,38,0,28
1,35,0,5
1,46,61,6
1,38,76,19
1,46,0,1
1,38,0,23
1,35,64,8
1,35,0,9
1,46,61,0
1,46,0,48
1,38,121,1
1,46,61,11
1,46,0,48
1,46,61,12
1,38,0,1
1,38,76,18
1,46,0,1
1,38,0,23
1,35,64,8
1,46,61,4
1,46,61,1
1,35,0,19
1,46,0,4
1,46,0,1
1,35,64,31
1,35,0,10
1,46,61,0
1,46,0,18
1,38,121,30
1,46,61,12
1,38,0,12
1,35,64,8
1,46,0,28
1,35,0,6
1,46,61,6
1,46,0,18
1,35,64,2
1,35,0,34
1,46,61,6
1,38,76,18
1,46,0,2
1,38,0,22
1,35,64,8
1,46,61,10
1,35,0,38
1,46,0,0
1,38,121,10
1,38,0,10
1,46,61,2
1,46,0,48
1,46,61,12
1,46,0,14
1,38,76,4
1,38,0,24
1,35,64,9
1,46,61,4
1,46,61,1
1,46,0,23
1,46,0,1
1,35,0,19
1,35,64,12
1,35,0,9
1,46,61,1
1,46,0,18
1,38,121,29
1,46,61,13
1,46,0,48
1,46,61,12
1,46,0,18
1,35,64,2
1,38,0,27
1,35,0,6
1,46,61,7
1,38,76,17
1,46,0,3
1,38,0,21
1,35,64,9
1,35,0,9
1,46,61,1
1,38,121,47
1,46,0,1
1,46,61,12
1,46,0,48
1,38,0,11
1,46,61,1
1,38,76,17
1,46,0,3
1,38,0,21
1,35,64,9
1,46,61,5
1,46,61,1
1,35,0,18
1,38,61,3
1,46,0,2
1,46,0,1
1,38,0,21
1,35,64,9
1,35,0,10
1,46,61,1
1,46,0,18
1,38,121,28
1,46,61,14
1,35,64,19
1,46,0,29
1,35,0,5
1,46,61,7
1,46,0,18
1,35,64,1
1,38,0,27
1,35,0,7
1,46,61,7
1,38,76,16
1,46,0,4
1,38,0,20
1,35,64,9
1,46,61,11
1,35,0,37
1,38,98,9
1,46,0,2
1,46,78,12
1,38,0,10
1,38,68,6
1,38,0,24
1,38,76,6
1,46,0,2
1,46,61,12
1,38,0,10
1,38,83,6
