track,note,velocity,time
1,52,127,0
1,47,127,0
1,47,127,0
1,52,127,0
1,48,127,0
1,52,127,0
1,52,127,1152
1,47,127,0
1,47,127,0
1,48,127,0
1,60,127,0
1,52,127,0
1,48,127,0
1,47,127,0
1,52,127,0
1,45,127,0
1,47,127,0
1,45,127,0
1,52,127,0
1,52,127,0
1,47,127,0
1,48,127,0
1,54,127,0
1,50,127,0
1,52,127,0
1,55,127,0
1,43,127,5184
1,52,127,44
1,55,127,16
1,43,127,180
1,52,127,36
1,54,127,24
1,55,127,0
1,43,127,96
1,54,127,40
1,52,127,0
1,47,127,0
1,59,127,0
1,52,127,0
1,47,127,0
1,46,127,0
1,48,127,0
1,52,127,0
1,47,127,0
1,47,127,0
1,52,127,0
1,46,127,0
1,55,127,0
1,54,127,0
1,52,127,0
1,50,127,0
1,50,127,0
1,50,127,0
1,52,127,0
1,52,127,192
1,52,127,0
1,50,127,0
1,50,127,0
1,50,127,0
1,48,127,0
1,48,127,0
1,50,127,0
1,48,127,0
1,47,127,0
1,47,127,0
1,48,127,0
1,52,127,0
1,48,127,0
1,52,127,0
1,47,127,0
1,52,127,0
1,52,127,0
1,47,127,0
1,47,127,0
1,52,127,0
1,48,127,0
1,50,127,0
1,45,127,0
1,40,127,0
1,50,127,0
1,55,127,0
1,48,127,16896
1,52,127,0
1,50,127,1344
1,52,127,0
1,52,127,0
1,50,127,0
1,50,127,0
1,52,127,0
1,52,127,0
1,52,127,0
1,50,127,0
1,52,127,0
1,50,127,0
1,52,127,0
1,48,127,0
1,52,127,0
1,52,127,0
1,48,127,0
1,52,127,0
1,47,127,0
1,52,127,0
1,47,127,0
1,52,127,0
1,48,127,0
1,43,127,0
1,48,127,192
1,52,127,0
1,52,127,0
1,52,127,0
1,60,127,0
1,60,127,0
1,60,127,0
1,60,127,0
1,60,127,0
1,52,127,0
1,60,127,0
1,52,127,0
1,60,127,0
1,40,127,192
1,52,127,0
1,40,127,0
1,52,127,0
1,40,127,0
1,52,127,0
1,40,127,0
1,52,127,0
1,40,127,0
1,52,127,0
1,40,127,0
1,52,127,0
1,40,127,0
1,52,127,0
1,40,127,0
1,52,127,0
1,40,127,0
1,52,127,0
1,40,127,0
1,52,127,0
1,40,127,0
1,52,127,0
1,40,127,0
1,52,127,0
1,40,127,0
1,52,127,0
1,40,127,0
1,52,127,0
1,40,127,0
1,52,127,0
1,40,127,0
1,52,127,0
1,40,127,0
1,40,127,0
1,40,127,0
1,52,127,0
1,40,127,0
1,52,127,0
1,40,127,0
1,52,127,0
1,40,127,0
1,52,127,0
1,40,127,0
1,52,127,0
1,40,127,0
1,52,127,0
1,40,127,0
1,52,127,0
1,40,127,0
1,52,127,0
1,40,127,0
1,52,127,0
1,40,127,0
1,52,127,0
1,40,127,0
1,52,127,0
1,40,127,0
1,52,127,0
1,40,127,0
1,52,127,0
1,40,127,0
1,52,127,0
1,35,127,35328
1,40,127,36
1,40,127,3744
1,40,127,0
1,40,127,0
1,40,127,0
1,40,127,0
1,40,127,0
1,40,127,0
1,40,127,0
1,40,127,0
1,40,127,0
1,40,127,0
1,40,127,0
1,36,127,0
1,36,127,0
1,36,127,0
1,36,127,0
1,36,127,0
1,36,127,0
1,36,127,0
1,36,127,0
1,36,127,0
1,36,127,0
1,36,127,0
1,36,127,0
1,36,127,0
1,36,127,0
1,36,127,0
1,38,127,0
1,40,127,0
1,40,127,0
1,40,127,0
1,40,127,0
1,40,127,0
1,40,127,0
1,40,127,0
1,40,127,0
1,52,127,0
1,40,127,0
1,52,127,0
1,40,127,0
1,52,127,0
1,40,127,0
1,52,127,0
1,40,127,0
1,52,127,0
1,40,127,0
1,52,127,0
1,45,127,0
1,40,127,0
1,52,127,0
1,45,127,0
1,40,127,0
1,52,127,0
1,47,127,0
1,47,127,0
1,52,127,0
1,40,127,0
1,47,127,0
1,52,127,0
1,40,127,0
1,47,127,0
1,52,127,0
1,40,127,0
1,47,127,0
1,52,127,0
1,40,127,0
1,47,127,0
1,52,127,0
1,40,127,0
1,47,127,0
1,52,127,0
1,40,127,0
1,47,127,0
1,52,127,0
1,40,127,0
1,47,127,0
1,52,127,0
1,40,127,0
1,47,127,0
1,52,127,0
1,40,127,0
1,47,127,0
1,52,127,0
1,40,127,0
1,47,127,0
1,52,127,0
1,40,127,0
1,47,127,0
1,52,127,0
1,40,127,0
1,47,127,0
1,52,127,0
1,40,127,0
1,47,127,0
1,52,127,0
1,40,127,0
1,47,127,0
1,52,127,0
1,40,127,0
1,47,127,0
1,52,127,0
1,40,127,0
2,64,127,0
2,59,127,0
2,59,127,0
2,64,127,0
2,60,127,0
2,64,127,0
2,71,127,0
2,55,127,192
2,60,127,0
2,59,127,0
2,48,127,0
2,60,127,0
2,48,127,0
2,52,127,0
2,59,127,0
2,64,127,0
2,52,127,0
2,52,127,0
2,59,127,0
2,64,127,0
2,48,127,0
2,48,127,0
2,55,127,0
2,60,127,0
2,59,127,0
2,48,127,0
2,60,127,0
2,64,127,0
2,59,127,0
2,59,127,0
2,64,127,0
2,64,127,0
2,64,127,0
2,57,127,0
2,64,127,0
2,59,127,0
2,64,127,0
2,57,127,0
2,59,127,0
2,64,127,0
2,60,127,0
2,60,127,0
2,55,127,0
2,60,127,0
2,59,127,0
2,55,127,0
2,55,127,0
2,60,127,0
2,59,127,0
2,64,127,0
2,52,127,288
2,64,127,0
2,60,127,0
2,48,127,0
2,50,127,0
2,59,127,0
2,64,127,0
2,59,127,0
2,64,127,0
2,64,127,0
2,59,127,0
2,64,127,96
2,60,127,0
2,55,127,0
2,55,127,0
2,60,127,0
2,59,127,0
2,55,127,0
2,55,127,0
2,60,127,0
2,59,127,0
2,55,127,0
2,48,127,0
2,52,127,0
2,64,127,0
2,59,127,0
2,59,127,0
2,64,127,0
2,60,127,0
2,55,127,96
2,60,127,0
2,59,127,0
2,55,127,0
2,60,127,0
2,52,127,0
2,59,127,0
2,64,127,0
2,52,127,0
2,64,127,0
2,59,127,0
2,48,127,0
2,60,127,0
2,55,127,0
2,64,127,0
2,55,127,0
2,60,127,0
2,55,127,0
2,60,127,36
2,64,127,12
2,59,127,0
2,59,127,0
2,64,127,0
2,59,127,0
2,64,127,0
2,59,127,0
2,48,127,0
2,55,127,0
2,48,127,0
2,55,127,0
2,60,127,0
2,59,127,0
2,60,127,0
2,60,127,0
2,48,127,0
2,55,127,0
2,60,127,0
2,55,127,0
2,48,127,0
2,52,127,0
2,59,127,0
2,64,127,0
2,64,127,0
2,59,127,0
2,52,127,0
2,64,127,0
2,59,127,0
2,59,127,0
2,64,127,0
2,48,127,0
2,48,127,0
2,55,127,0
2,60,127,0
2,55,127,0
2,60,127,0
2,59,127,0
2,55,127,0
2,55,127,0
2,55,127,0
2,59,127,0
2,60,127,0
2,64,127,0
2,59,127,0
2,64,127,0
2,59,127,0
2,59,127,0
2,64,127,0
2,59,127,0
2,64,127,0
2,59,127,0
2,48,127,0
2,60,127,0
2,60,127,0
2,59,127,0
2,55,127,0
2,50,127,0
2,52,127,0
2,59,127,0
2,64,127,0
2,52,127,0
2,59,127,0
2,52,127,0
2,59,127,0
2,52,127,0
2,59,127,0
2,52,127,0
2,59,127,0
2,64,127,0
2,52,127,0
2,59,127,0
2,52,127,0
2,59,127,0
2,52,127,0
2,59,127,0
2,52,127,0
2,59,127,0
2,52,127,0
2,59,127,0
2,52,127,0
2,59,127,0
2,52,127,0
2,59,127,0
2,52,127,0
2,59,127,0
2,52,127,0
2,59,127,0
2,52,127,0
2,59,127,0
2,64,127,0
2,50,127,0
2,57,127,0
2,62,127,0
2,48,127,0
2,52,127,0
2,60,127,0
2,48,127,0
2,52,127,0
2,60,127,0
2,48,127,0
2,52,127,0
2,60,127,0
2,48,127,0
2,52,127,0
2,60,127,0
2,48,127,0
2,52,127,0
2,60,127,0
2,48,127,0
2,52,127,0
2,60,127,0
2,48,127,0
2,52,127,0
2,60,127,0
2,48,127,0
2,52,127,0
2,60,127,0
2,48,127,0
2,52,127,0
2,60,127,0
2,48,127,0
2,52,127,0
2,60,127,0
2,48,127,0
2,52,127,0
2,60,127,0
2,48,127,0
2,52,127,0
2,60,127,0
2,48,127,0
2,52,127,0
2,60,127,0
2,48,127,0
2,52,127,0
2,60,127,0
2,48,127,0
2,52,127,0
2,60,127,0
2,40,127,0
2,52,127,0
2,59,127,0
2,64,127,0
2,52,127,0
2,52,127,0
2,52,127,0
2,52,127,0
2,64,127,0
2,59,127,0
2,52,127,0
2,52,127,0
2,52,127,0
2,52,127,0
2,59,127,0
2,52,127,0
2,59,127,0
2,52,127,0
2,59,127,0
2,52,127,0
2,59,127,0
2,52,127,0
2,59,127,0
2,52,127,0
2,59,127,0
2,52,127,0
2,59,127,0
2,64,127,0
2,52,127,0
2,59,127,0
2,64,127,0
2,52,127,0
2,59,127,0
2,64,127,0
2,52,127,0
2,59,127,0
2,64,127,0
2,52,127,0
2,59,127,0
2,64,127,0
2,52,127,0
2,59,127,0
2,64,127,0
2,52,127,0
2,59,127,0
2,64,127,0
2,52,127,0
2,59,127,0
2,64,127,0
2,52,127,0
2,59,127,0
2,64,127,0
2,52,127,0
2,59,127,0
2,64,127,0
2,52,127,0
2,59,127,0
2,64,127,0
2,52,127,0
2,59,127,0
2,64,127,0
2,52,127,0
2,59,127,0
2,64,127,0
2,52,127,0
2,59,127,0
2,64,127,0
2,50,127,0
2,45,127,0
2,40,127,0
2,50,127,0
2,45,127,0
2,40,127,0
2,52,127,12288
2,59,127,0
2,64,127,0
2,52,127,0
2,64,127,0
2,59,127,0
2,48,127,0
2,60,127,0
2,55,127,0
2,64,127,0
2,55,127,0
2,60,127,0
2,55,127,0
2,60,127,36
2,64,127,12
2,59,127,0
2,59,127,0
2,64,127,0
2,59,127,0
2,64,127,0
2,59,127,0
2,48,127,0
2,55,127,0
2,48,127,0
2,55,127,0
2,60,127,0
2,59,127,0
2,60,127,0
2,60,127,0
2,48,127,0
2,55,127,0
2,60,127,0
2,55,127,0
2,48,127,0
2,52,127,0
2,59,127,0
2,64,127,0
2,64,127,0
2,59,127,0
2,52,127,0
2,64,127,0
2,59,127,0
2,59,127,0
2,64,127,0
2,48,127,0
2,48,127,0
2,55,127,0
2,60,127,0
2,55,127,0
2,60,127,0
2,59,127,0
2,55,127,0
2,55,127,0
2,55,127,0
2,59,127,0
2,60,127,0
2,64,127,0
2,59,127,0
2,64,127,0
2,59,127,0
2,59,127,0
2,64,127,0
2,59,127,0
2,64,127,0
2,59,127,0
2,48,127,0
2,60,127,0
2,60,127,0
2,59,127,0
2,55,127,0
2,50,127,0
2,52,127,0
2,59,127,0
2,64,127,0
2,52,127,0
2,59,127,0
2,52,127,0
2,59,127,0
2,52,127,0
2,59,127,0
2,52,127,0
2,59,127,0
2,64,127,0
2,52,127,0
2,59,127,0
2,52,127,0
2,59,127,0
2,52,127,0
2,59,127,0
2,52,127,0
2,59,127,0
2,52,127,0
2,59,127,0
2,52,127,0
2,59,127,0
2,52,127,0
2,59,127,0
2,52,127,0
2,59,127,0
2,52,127,0
2,59,127,0
2,52,127,0
2,59,127,0
2,64,127,0
2,50,127,0
2,57,127,0
2,62,127,0
2,48,127,0
2,52,127,0
2,60,127,0
2,48,127,0
2,52,127,0
2,60,127,0
2,48,127,0
2,52,127,0
2,60,127,0
2,48,127,0
2,52,127,0
2,60,127,0
2,48,127,0
2,52,127,0
2,60,127,0
2,48,127,0
2,52,127,0
2,60,127,0
2,48,127,0
2,52,127,0
2,60,127,0
2,48,127,0
2,52,127,0
2,60,127,0
2,48,127,0
2,52,127,0
2,60,127,0
2,48,127,0
2,52,127,0
2,60,127,0
2,48,127,0
2,52,127,0
2,60,127,0
2,48,127,0
2,52,127,0
2,60,127,0
2,48,127,0
2,52,127,0
2,60,127,0
2,48,127,0
2,52,127,0
2,60,127,0
2,48,127,0
2,52,127,0
2,60,127,0
2,40,127,0
2,52,127,0
2,59,127,0
2,52,127,0
2,59,127,0
2,52,127,0
2,52,127,0
2,52,127,0
2,52,127,0
2,59,127,0
2,52,127,0
2,52,127,0
2,59,127,0
2,52,127,0
2,59,127,0
2,52,127,0
2,59,127,0
2,52,127,0
2,59,127,0
2,59,127,0
2,59,127,0
2,59,127,0
2,59,127,0
2,48,127,0
2,55,127,0
2,48,127,0
2,48,127,0
2,48,127,0
2,48,127,0
2,48,127,0
2,48,127,0
2,55,127,0
2,48,127,0
2,55,127,0
2,48,127,0
2,55,127,0
2,48,127,0
2,55,127,0
2,48,127,0
2,48,127,0
2,55,127,0
2,48,127,0
2,55,127,0
2,48,127,0
2,48,127,0
2,52,127,0
2,64,127,0
2,52,127,0
2,64,127,0
2,52,127,0
2,64,127,0
2,52,127,0
2,64,127,0
2,52,127,0
2,64,127,0
2,52,127,0
2,64,127,0
2,52,127,0
2,64,127,0
2,52,127,0
2,64,127,0
2,52,127,0
2,64,127,0
2,52,127,0
2,64,127,0
2,52,127,0
2,64,127,0
2,52,127,0
2,64,127,0
2,52,127,0
2,64,127,0
2,52,127,0
2,64,127,0
2,52,127,0
2,64,127,0
2,52,127,0
2,64,127,0
2,52,127,0
2,64,127,0
2,52,127,0
2,64,127,0
2,52,127,0
2,64,127,0
2,52,127,0
2,64,127,0
2,52,127,0
2,64,127,0
2,52,127,0
2,64,127,0
2,52,127,0
2,64,127,0
2,52,127,0
2,64,127,0
2,52,127,0
2,64,127,0
2,52,127,0
2,64,127,0
2,52,127,0
2,64,127,0
2,52,127,0
2,64,127,0
2,52,127,0
2,64,127,0
2,52,127,0
2,64,127,0
2,52,127,0
2,64,127,0
2,52,127,0
2,64,127,0
2,64,127,44544
2,59,127,0
2,64,127,0
2,64,127,0
2,59,127,0
2,64,127,0
2,59,127,0
2,64,127,0
2,64,127,0
2,59,127,0
2,64,127,0
2,59,127,0
2,64,127,0
2,59,127,0
2,60,127,0
2,64,127,0
2,64,127,0
2,59,127,0
2,60,127,0
2,59,127,0
2,64,127,0
2,59,127,0
2,64,127,0
2,60,127,0
2,64,127,0
2,60,127,0
2,64,127,0
2,64,127,0
2,62,127,0
3,57,127,39936
3,64,127,0
3,57,127,0
3,64,127,0
3,71,127,0
3,69,127,0
3,64,127,0
3,57,127,0
3,69,127,0
3,64,127,0
3,57,127,0
3,57,127,0
3,71,127,0
3,71,127,0
3,64,127,0
3,57,127,0
3,64,127,0
3,57,127,0
3,64,127,0
3,57,127,0
3,60,127,0
3,67,127,0
3,60,127,0
3,67,127,0
3,74,127,0
3,79,127,0
3,74,127,0
3,71,127,0
3,79,127,0
3,74,127,0
3,55,127,0
3,62,127,0
3,67,127,0
3,74,127,0
3,79,127,0
3,79,127,0
3,74,127,0
3,67,127,0
3,62,127,0
3,67,127,0
3,74,127,0
3,79,127,0
3,67,127,0
3,74,127,0
3,79,127,0
3,67,127,0
3,74,127,0
3,79,127,0
3,60,127,0
3,53,127,0
3,60,127,0
3,53,127,0
3,60,127,0
3,52,127,0
3,60,127,0
3,53,127,0
3,60,127,0
3,52,127,0
3,60,127,0
3,53,127,0
3,60,127,0
3,52,127,0
3,55,127,0
3,62,127,0
3,67,127,0
3,74,127,0
3,79,127,0
3,55,127,0
3,62,127,0
3,67,127,0
3,74,127,0
3,79,127,0
3,55,127,0
3,62,127,0
3,67,127,0
3,74,127,0
3,79,127,0
3,55,127,0
3,62,127,0
3,67,127,0
3,74,127,0
3,79,127,0
3,55,127,0
3,62,127,0
3,67,127,0
3,74,127,0
3,79,127,0
3,60,127,0
3,53,127,0
3,60,127,0
3,53,127,0
3,60,127,0
3,52,127,0
3,60,127,0
3,53,127,0
3,60,127,0
3,52,127,0
3,60,127,0
3,53,127,0
3,70,127,0
3,70,127,0
3,71,127,0
3,76,127,0
3,88,127,768
3,88,127,192
3,76,127,0
3,71,127,0
3,88,127,96
3,92,127,0
3,76,127,0
3,71,127,0
3,88,127,96
3,92,127,0
3,76,127,0
3,71,127,0
3,71,127,96
