track,note,velocity,time
1,40,62,4254
1,45,55,119
1,47,58,2
1,45,0,19
1,47,0,18
1,52,70,21
1,52,0,163
1,45,55,17
1,47,61,1
1,45,0,19
1,47,0,19
1,45,69,22
1,45,0,178
1,45,52,1
1,47,63,1
1,45,0,20
1,47,0,2
1,52,70,38
1,52,0,162
1,45,57,17
1,47,67,1
1,45,0,19
1,47,0,19
1,40,0,0
1,40,69,22
1,45,55,179
1,47,65,1
1,45,0,19
1,47,0,3
1,52,70,38
1,52,0,178
1,45,55,1
1,47,67,1
1,45,0,19
1,47,0,19
1,45,62,22
1,45,0,178
1,45,55,1
1,47,66,2
1,45,0,19
1,47,0,18
1,52,70,22
1,52,0,162
1,45,61,17
1,47,74,1
1,40,0,18
1,45,0,1
1,47,0,19
1,40,65,22
1,40,62,60
1,45,55,119
1,47,58,2
1,45,0,19
1,47,0,18
1,52,70,21
1,40,0,21
1,52,0,142
1,45,55,17
1,47,61,1
1,45,0,19
1,47,0,19
1,45,69,22
1,45,0,178
1,45,52,1
1,47,63,1
1,45,0,20
1,47,0,2
1,52,70,38
1,52,0,162
1,45,57,17
1,47,67,1
1,45,0,19
1,47,0,19
1,40,0,0
1,40,69,22
1,45,55,179
1,47,65,1
1,45,0,19
1,47,0,3
1,52,70,38
1,52,0,178
1,45,55,1
1,47,67,1
1,45,0,19
1,47,0,19
1,45,62,22
1,45,0,178
1,45,55,1
1,47,66,2
1,45,0,19
1,47,0,18
1,52,70,22
1,52,0,162
1,45,61,17
1,47,74,1
1,40,0,18
1,45,0,1
1,47,0,19
1,40,65,22
1,40,62,60
1,45,55,119
1,47,58,2
1,45,0,19
1,47,0,18
1,52,70,21
1,40,0,21
1,52,0,142
1,45,55,17
1,47,61,1
1,45,0,19
1,47,0,19
1,45,69,22
1,45,0,178
1,45,52,1
1,47,63,1
1,45,0,20
1,47,0,2
1,52,70,38
1,52,0,162
1,45,57,17
1,47,67,1
1,45,0,19
1,47,0,19
1,40,0,0
1,40,69,22
1,45,55,179
1,47,65,1
1,45,0,19
1,47,0,3
1,52,70,38
1,52,0,178
1,45,55,1
1,47,67,1
1,45,0,19
1,47,0,19
1,45,62,22
1,45,0,178
1,45,55,1
1,47,66,2
1,45,0,19
1,47,0,18
1,52,70,22
1,52,0,162
1,45,61,17
1,47,74,1
1,40,0,18
1,45,0,1
1,47,0,19
1,40,65,22
1,40,0,260
1,45,55,1359
1,47,66,2
1,45,0,19
1,47,0,18
1,52,70,22
1,52,0,162
1,45,61,17
1,47,74,1
1,45,0,19
1,47,0,19
1,40,65,22
1,40,62,60
1,45,55,119
1,47,58,2
1,45,0,19
1,47,0,18
1,52,70,21
1,40,0,21
1,52,0,142
1,45,55,17
1,47,61,1
1,45,0,19
1,47,0,19
1,45,69,22
1,45,0,178
1,45,52,1
1,47,63,1
1,45,0,20
1,47,0,2
1,52,70,38
1,52,0,162
1,45,57,17
1,47,67,1
1,45,0,19
1,47,0,19
1,40,0,0
1,40,69,22
1,40,62,60
1,45,55,119
1,47,58,2
1,45,0,19
1,47,0,18
1,52,70,21
1,52,0,163
1,45,55,17
1,47,61,1
1,45,0,19
1,47,0,19
1,45,69,22
1,45,0,178
1,45,52,1
1,47,63,1
1,45,0,20
1,47,0,2
1,52,70,38
1,52,0,162
1,45,57,17
1,47,67,1
1,40,0,18
1,45,0,1
1,40,0,19
1,47,0,0
1,40,69,22
1,45,55,179
1,47,65,1
1,45,0,19
1,47,0,3
1,52,70,38
1,52,0,178
1,45,55,1
1,47,67,1
1,45,0,19
1,47,0,19
1,45,62,22
1,45,0,178
1,45,55,1
1,47,66,2
1,45,0,19
1,47,0,18
1,52,70,22
1,52,0,162
1,45,61,17
1,47,74,1
1,40,0,18
1,45,0,1
1,47,0,19
1,40,65,22
1,40,62,60
1,45,55,119
1,47,58,2
1,45,0,19
1,47,0,18
1,52,70,21
1,40,0,21
1,52,0,142
1,45,55,17
1,47,61,1
1,45,0,19
1,47,0,19
1,45,69,22
1,45,0,178
1,45,52,1
1,47,63,1
1,45,0,20
1,47,0,2
1,52,70,38
1,52,0,162
1,45,57,17
1,47,67,1
1,45,0,19
1,47,0,19
1,40,0,0
1,40,69,22
1,45,55,179
1,47,65,1
1,45,0,19
1,47,0,3
1,52,70,38
1,52,0,178
1,45,55,1
1,47,67,1
1,45,0,19
1,47,0,19
1,45,62,22
1,45,0,178
1,45,55,1
1,47,66,2
1,45,0,19
1,47,0,18
1,52,70,22
1,52,0,162
1,45,61,17
1,47,74,1
1,40,0,18
1,45,0,1
1,47,0,19
1,40,65,22
1,40,0,260
1,45,55,1359
1,47,66,2
1,45,0,19
1,47,0,18
1,52,70,22
1,52,0,162
1,45,61,17
1,47,74,1
1,45,0,19
1,47,0,19
1,40,65,22
1,40,62,60
1,45,55,119
1,47,58,2
1,45,0,19
1,47,0,18
1,52,70,21
1,40,0,21
1,52,0,142
1,45,55,17
1,47,61,1
1,45,0,19
1,47,0,19
1,45,69,22
1,45,0,178
1,45,52,1
1,47,63,1
1,45,0,20
1,47,0,2
1,52,70,38
1,52,0,162
1,45,57,17
1,47,67,1
1,45,0,19
1,47,0,19
1,40,0,0
1,40,69,22
1,40,62,60
1,45,55,119
1,47,58,2
1,45,0,19
1,47,0,18
1,52,70,21
1,52,0,163
1,45,55,17
1,47,61,1
1,45,0,19
1,47,0,19
1,45,69,22
1,45,0,178
1,45,52,1
1,47,63,1
1,45,0,20
1,47,0,2
1,52,70,38
1,52,0,162
1,45,57,17
1,47,67,1
1,40,0,18
1,45,0,1
1,40,0,19
1,47,0,0
1,40,69,22
1,45,55,179
1,47,65,1
1,45,0,19
1,47,0,3
1,52,70,38
1,52,0,178
1,45,55,1
1,47,67,1
1,45,0,19
1,47,0,19
1,45,62,22
1,45,0,178
1,45,55,1
1,47,66,2
1,45,0,19
1,47,0,18
1,52,70,22
1,52,0,162
1,45,61,17
1,47,74,1
1,40,0,18
1,45,0,1
1,47,0,19
1,40,65,22
1,40,62,60
1,45,55,119
1,47,58,2
1,45,0,19
1,47,0,18
1,52,70,21
1,40,0,21
1,52,0,142
1,45,55,17
1,47,61,1
1,45,0,19
1,47,0,19
1,45,69,22
1,45,0,178
1,45,52,1
1,47,63,1
1,45,0,20
1,47,0,2
1,52,70,38
1,52,0,162
1,45,57,17
1,47,67,1
1,45,0,19
1,47,0,19
1,40,0,0
1,40,69,22
1,45,55,179
1,47,65,1
1,45,0,19
1,47,0,3
1,52,70,38
1,52,0,178
1,45,55,1
1,47,67,1
1,45,0,19
1,47,0,19
1,45,62,22
1,45,0,178
1,45,55,1
1,47,66,2
1,45,0,19
1,47,0,18
1,52,70,22
1,52,0,162
1,45,61,17
1,47,74,1
1,40,0,18
1,45,0,1
1,47,0,19
1,40,65,22
1,40,0,260
1,45,55,1359
1,47,66,2
1,45,0,19
1,47,0,18
1,52,70,22
1,52,0,162
1,45,61,17
1,47,74,1
1,45,0,19
1,47,0,19
1,40,65,22
1,40,62,60
1,45,55,119
1,47,58,2
1,45,0,19
1,47,0,18
1,52,70,21
1,40,0,21
1,52,0,142
1,45,55,17
1,47,61,1
1,45,0,19
1,47,0,19
1,45,69,22
1,45,0,178
1,45,52,1
1,47,63,1
1,45,0,20
1,47,0,2
1,52,70,38
1,52,0,162
1,45,57,17
1,47,67,1
1,45,0,19
1,47,0,19
1,40,0,0
1,40,69,22
1,40,62,60
1,45,55,119
1,47,58,2
1,45,0,19
1,47,0,18
1,52,70,21
1,52,0,163
1,45,55,17
1,47,61,1
1,45,0,19
1,47,0,19
1,45,69,22
1,45,0,178
1,45,52,1
1,47,63,1
1,45,0,20
1,47,0,2
1,52,70,38
1,52,0,162
1,45,57,17
1,47,67,1
1,40,0,18
1,45,0,1
1,40,0,19
1,47,0,0
1,40,69,22
1,45,55,179
1,47,65,1
1,45,0,19
1,47,0,3
1,52,70,38
1,52,0,178
1,45,55,1
1,47,67,1
1,45,0,19
1,47,0,19
1,45,62,22
1,45,0,178
1,45,55,1
1,47,66,2
1,45,0,19
1,47,0,18
1,52,70,22
1,52,0,162
1,45,61,17
1,47,74,1
1,40,0,18
1,45,0,1
1,47,0,19
1,40,65,22
1,40,62,60
1,45,55,119
1,47,58,2
1,45,0,19
1,47,0,18
1,52,70,21
1,40,0,21
1,52,0,142
1,45,55,17
1,47,61,1
1,45,0,19
1,47,0,19
1,45,69,22
1,45,0,178
1,45,52,1
1,47,63,1
1,45,0,20
1,47,0,2
1,52,70,38
1,52,0,162
1,45,57,17
1,47,67,1
1,45,0,19
1,47,0,19
1,40,0,0
1,40,69,22
1,45,55,179
1,47,65,1
1,45,0,19
1,47,0,3
1,52,70,38
1,52,0,178
1,45,55,1
1,47,67,1
1,45,0,19
1,47,0,19
1,45,62,22
1,45,0,178
1,45,55,1
1,47,66,2
1,45,0,19
1,47,0,18
1,52,70,22
1,52,0,162
1,45,61,17
1,47,74,1
1,40,0,18
1,45,0,1
1,47,0,19
1,40,65,22
1,40,0,260
2,76,83,1205
2,76,0,479
2,83,80,1
2,83,0,477
2,76,83,3
2,76,0,478
2,83,85,2
2,83,0,471
2,76,83,9
2,76,0,479
2,83,80,1
2,83,0,477
2,76,83,3
2,76,0,478
2,83,85,2
2,83,0,471
2,76,83,9
2,76,0,479
2,83,80,1
2,83,0,477
2,76,83,3
2,76,0,478
2,83,85,2
2,83,0,471
2,76,83,969
2,76,0,478
2,83,85,2
2,83,0,471
2,76,83,9
2,76,0,479
2,83,80,1
2,83,0,477
2,76,83,3
2,76,0,479
2,83,80,1
2,83,0,477
2,76,83,3
2,76,0,478
2,83,85,2
2,83,0,471
2,76,83,9
2,76,0,479
2,83,80,1
2,83,0,477
2,76,83,3
2,76,0,478
2,83,85,2
2,83,0,471
2,76,83,969
2,76,0,478
2,83,85,2
2,83,0,471
2,76,83,9
2,76,0,479
2,83,80,1
2,83,0,477
2,76,83,3
2,76,0,479
2,83,80,1
2,83,0,477
2,76,83,3
2,76,0,478
2,83,85,2
2,83,0,471
2,76,83,9
2,76,0,479
2,83,80,1
2,83,0,477
2,76,83,3
2,76,0,478
2,83,85,2
2,83,0,471
2,76,83,969
2,76,0,478
2,83,85,2
2,83,0,471
2,76,83,9
2,76,0,479
2,83,80,1
2,83,0,477
2,76,83,3
2,76,0,479
2,83,80,1
2,83,0,477
2,76,83,3
2,76,0,478
2,83,85,2
2,83,0,471
2,76,83,9
2,76,0,479
2,83,80,1
2,83,0,477
2,76,83,3
2,76,0,478
2,83,85,2
2,83,0,471
2,76,83,9
2,76,0,479
2,83,80,1
2,83,0,477
2,76,83,3
2,76,0,479
2,83,80,1
2,83,0,477
2,76,83,3
2,76,0,479
2,83,80,1
2,83,0,477
2,76,83,3
2,76,0,479
2,83,80,1
2,83,0,10
2,76,83,3
2,76,0,17
2,83,80,1
2,83,0,20
2,76,83,3
2,76,0,7
2,83,80,1
2,83,0,16
2,76,83,3
2,76,0,151
2,83,80,1
2,83,0,354
2,76,83,3
2,76,0,479
3,40,108,356
3,47,108,2
3,52,108,2
3,56,108,2
3,59,108,2
3,64,108,2
3,64,0,407
3,47,0,0
3,52,0,0
3,40,0,0
3,59,0,0
3,56,0,0
3,69,104,2
3,61,104,2
3,55,104,2
3,52,104,2
3,45,104,2
3,45,0,470
3,55,0,0
3,69,0,0
3,61,0,0
3,52,0,0
3,40,103,2
3,47,103,2
3,52,103,2
3,56,103,2
3,59,103,2
3,64,103,2
3,64,0,438
3,47,0,4
3,52,0,0
3,40,0,0
3,59,0,0
3,56,0,0
3,69,103,28
3,61,103,2
3,55,103,2
3,52,103,2
3,45,103,2
3,45,0,444
3,55,0,0
3,69,0,0
3,61,0,0
3,52,0,0
3,59,102,28
3,56,102,1
3,64,102,1
3,52,102,1
3,47,102,2
3,40,102,2
3,40,102,54
3,47,102,2
3,52,102,2
3,56,102,2
3,59,102,2
3,64,102,2
3,47,0,377
3,52,0,0
3,59,0,0
3,64,0,0
3,56,0,0
3,40,0,4
3,40,0,26
3,52,0,0
3,59,0,0
3,64,0,0
3,47,0,0
3,56,0,0
3,69,104,2
3,61,104,2
3,55,104,2
3,52,104,2
3,45,104,2
3,45,0,470
3,55,0,0
3,69,0,0
3,61,0,0
3,52,0,0
3,40,103,2
3,47,103,2
3,52,103,2
3,56,103,2
3,59,103,2
3,64,103,2
3,64,0,438
3,47,0,4
3,52,0,0
3,40,0,0
3,59,0,0
3,56,0,0
3,69,103,28
3,61,103,2
3,55,103,2
3,52,103,2
3,45,103,2
3,45,0,444
3,55,0,0
3,69,0,0
3,61,0,0
3,52,0,0
3,59,102,28
3,56,102,1
3,64,102,1
3,52,102,1
3,47,102,2
3,40,102,2
3,40,101,54
3,47,101,2
3,52,101,2
3,56,101,2
3,59,101,2
3,64,101,2
3,47,0,377
3,52,0,0
3,59,0,0
3,64,0,0
3,56,0,0
3,40,0,4
3,40,0,26
3,52,0,0
3,59,0,0
3,64,0,0
3,47,0,0
3,56,0,0
3,69,104,2
3,61,104,2
3,55,104,2
3,52,104,2
3,45,104,2
3,45,0,470
3,55,0,0
3,69,0,0
3,61,0,0
3,52,0,0
3,40,103,2
3,47,103,2
3,52,103,2
3,56,103,2
3,59,103,2
3,64,103,2
3,64,0,438
3,47,0,4
3,52,0,0
3,40,0,0
3,59,0,0
3,56,0,0
3,69,106,28
3,61,106,2
3,55,106,2
3,52,106,2
3,45,106,2
3,45,0,444
3,55,0,0
3,69,0,0
3,61,0,0
3,52,0,0
3,59,102,28
3,47,102,1
3,52,102,2
3,56,102,2
3,52,0,54
3,47,0,0
3,59,0,1
3,56,0,0
3,59,101,0
3,40,101,1
3,56,101,1
3,64,101,1
3,52,101,1
3,47,101,2
3,64,0,113
3,59,0,1
3,56,0,0
3,52,0,0
3,47,0,0
3,64,102,0
3,59,102,2
3,56,102,2
3,52,102,2
3,47,102,2
3,50,101,83
3,54,101,2
3,57,101,2
3,62,101,2
3,40,0,21
3,62,0,1
3,54,0,0
3,57,0,0
3,50,0,0
3,59,0,1
3,52,0,0
3,56,0,0
3,47,0,0
3,64,0,0
3,62,102,0
3,57,102,2
3,54,102,2
3,50,102,2
3,50,0,54
3,62,0,0
3,57,0,0
3,54,0,0
3,50,102,1
3,54,102,2
3,57,102,2
3,62,102,2
3,62,101,53
3,62,0,1
3,57,0,0
3,50,0,0
3,54,0,0
3,57,101,1
3,54,101,2
3,50,101,2
3,50,0,54
3,62,0,0
3,57,0,0
3,54,0,0
3,50,101,1
3,54,101,2
3,57,101,2
3,62,101,2
3,69,104,53
3,62,0,1
3,57,0,0
3,50,0,0
3,54,0,0
3,61,104,1
3,57,104,2
3,52,104,2
3,49,104,2
3,45,104,2
3,45,0,110
3,61,0,0
3,57,0,0
3,52,0,0
3,49,0,0
3,45,104,0
3,49,104,2
3,52,104,2
3,57,104,2
3,61,104,2
3,60,101,83
3,55,101,2
3,69,0,25
3,55,0,1
3,60,0,0
3,49,0,1
3,52,0,0
3,57,0,0
3,61,0,0
3,45,0,0
3,45,107,0
3,49,107,2
3,55,107,2
3,57,107,2
3,60,107,2
3,60,0,52
3,55,0,0
3,57,0,0
3,49,0,0
3,60,104,0
3,57,104,2
3,55,104,2
3,49,104,2
3,49,0,54
3,57,0,0
3,45,0,0
3,60,0,0
3,55,0,0
3,45,105,0
3,49,105,2
3,55,105,2
3,57,105,2
3,60,105,2
3,60,0,112
3,55,0,0
3,45,0,0
3,49,0,0
3,57,0,0
3,64,102,0
3,59,102,2
3,56,102,2
3,52,102,2
3,47,102,2
3,40,102,2
3,64,0,382
3,56,0,26
3,52,0,0
3,59,0,0
3,40,0,0
3,47,0,0
3,45,113,2
3,52,113,2
3,55,114,2
3,61,114,2
3,69,114,2
3,69,0,444
3,55,0,0
3,45,0,0
3,52,0,0
3,61,0,0
3,64,102,28
3,40,102,1
3,59,102,1
3,47,102,1
3,52,102,2
3,56,102,2
3,64,102,54
3,59,102,2
