track,note,velocity,time
1,0,1,748
1,0,0,0
9,66,70,1538
9,66,0,38
9,66,72,20
9,67,77,65
9,66,0,4
9,69,79,55
9,67,0,8
9,69,0,108
9,71,78,1
9,71,0,61
9,74,83,1
9,74,0,39
9,74,79,23
9,74,0,117
9,71,73,0
9,74,72,54
9,71,0,3
9,76,75,0
9,74,0,3
9,76,0,132
9,74,64,4
9,72,67,10
9,74,0,3
9,72,0,14
9,66,76,856
9,66,0,48
9,66,78,11
9,67,87,58
9,66,0,7
9,69,88,60
9,67,0,4
9,71,88,115
9,69,0,2
9,69,89,56
9,71,0,5
9,76,81,55
9,69,0,16
9,69,77,91
9,76,0,5
9,71,85,54
9,69,0,5
9,72,90,55
9,71,0,1
9,72,0,73
9,72,84,43
9,71,59,165
9,72,0,8
9,71,0,8
9,69,66,0
9,69,0,12
9,71,92,292
9,74,93,60
9,71,0,3
9,74,0,57
9,76,104,1
9,76,0,37
9,76,102,23
9,73,84,62
9,73,0,22
9,76,0,12
9,76,104,23
9,76,0,26
9,76,110,33
9,76,0,32
9,76,108,30
9,76,0,58
9,73,83,1
9,73,0,47
9,76,101,14
9,76,0,33
9,76,112,27
9,76,0,24
9,78,106,13
9,78,0,88
9,76,101,6
9,74,100,60
9,76,0,8
9,74,0,26
9,74,105,26
9,74,0,95
9,81,109,265
9,81,0,23
9,81,104,37
9,81,0,24
9,81,106,19
9,81,0,85
9,78,102,13
9,76,99,59
9,78,0,1
9,76,0,54
9,74,100,5
9,76,97,60
9,74,0,5
9,78,109,55
9,76,0,13
9,79,104,47
9,78,0,5
9,79,0,22
9,79,110,35
9,79,0,15
9,76,113,261
9,76,0,36
9,76,102,23
9,76,0,29
9,76,110,32
9,73,105,60
9,76,0,6
9,73,0,52
9,76,111,2
9,76,0,51
9,76,108,9
9,76,0,55
9,78,110,3
9,76,113,45
9,78,0,1
9,76,0,54
9,74,110,4
9,74,0,43
9,74,100,14
9,74,0,14
9,81,104,255
9,81,0,27
9,81,107,32
9,81,0,31
9,81,100,32
9,81,0,55
9,78,110,8
9,78,0,20
9,78,104,12
9,78,0,22
9,76,108,10
9,76,0,82
9,78,108,37
9,79,109,61
9,78,0,5
9,79,0,43
9,81,105,71
9,81,0,25
9,81,104,35
9,81,0,58
9,78,99,1
9,78,0,35
9,78,96,26
9,78,0,80
9,75,92,384
9,75,0,24
9,75,98,34
9,75,0,57
9,73,103,5
9,75,108,59
9,73,0,6
9,75,0,3
9,71,95,3
9,71,0,103
9,71,91,19
9,74,106,59
9,71,0,1
9,74,0,59
9,76,94,1
9,76,0,59
9,78,109,1
9,78,0,40
9,78,106,12
9,76,79,99
9,78,0,1
9,76,0,106
9,71,92,789
9,71,0,27
9,71,100,34
9,71,0,62
9,73,108,2
9,73,0,58
9,75,107,0
9,75,0,9
9,71,102,0
9,71,0,3
9,75,107,1
9,71,109,86
9,75,0,6
9,71,0,31
9,71,100,34
9,73,105,57
9,71,0,4
9,73,0,60
9,74,100,0
9,76,108,61
9,74,0,3
9,76,0,56
9,78,103,3
9,78,0,29
9,78,105,31
9,76,83,14
9,78,0,6
9,76,0,122
9,73,93,352
9,73,0,27
9,73,108,31
9,73,0,29
9,73,101,35
9,73,0,106
9,66,99,468
9,67,110,62
9,66,0,2
9,69,110,58
9,67,0,3
9,71,104,57
9,69,0,1
9,74,108,3
9,71,0,1
9,72,93,100
9,74,0,1
9,72,0,15
9,74,109,73
9,72,92,61
9,74,0,5
9,72,0,16
9,57,82,691
9,66,94,59
9,57,0,1
9,67,95,57
9,66,0,2
9,69,102,59
9,67,0,5
9,69,0,48
9,69,102,7
9,69,0,120
9,71,104,1
9,69,107,58
9,71,0,1
9,76,100,3
9,69,0,3
9,74,80,100
9,76,0,5
9,74,0,14
9,69,98,71
9,69,0,57
9,72,102,0
9,72,0,42
9,72,100,19
9,72,0,59
9,72,97,61
9,72,0,61
9,73,105,8
9,74,91,37
9,73,0,5
9,74,0,32
9,76,105,16
9,76,0,32
9,76,104,10
9,76,0,73
9,76,104,32
9,76,0,26
9,76,110,33
9,76,0,32
9,76,108,14
9,76,0,68
9,76,101,31
9,76,0,33
9,76,112,27
9,76,0,24
9,76,66,31
9,78,106,4
9,76,0,9
9,78,0,104
9,76,101,6
9,74,100,60
9,76,0,8
9,74,0,26
9,74,105,26
9,74,0,47
9,81,109,265
9,81,0,23
9,81,104,37
9,81,0,24
9,81,106,13
9,78,102,95
9,81,0,6
9,76,99,53
9,78,0,1
9,74,100,59
9,76,0,1
9,76,97,59
9,74,0,1
9,78,109,59
9,76,0,13
9,79,104,47
9,78,0,5
9,79,0,22
9,79,110,35
9,79,0,9
9,76,113,275
9,76,0,22
9,76,102,37
9,76,0,29
9,76,110,32
9,73,105,60
9,76,0,6
9,73,0,52
9,76,111,2
9,76,0,74
9,76,87,19
9,76,0,2
9,78,110,1
9,76,113,48
9,78,0,1
9,76,0,54
9,74,110,4
9,74,0,43
9,74,100,14
9,74,0,49
9,81,104,320
9,81,0,27
9,81,107,32
9,81,0,31
9,81,100,11
9,78,110,42
9,81,0,2
9,78,0,18
9,78,104,12
9,78,0,22
9,76,108,10
9,76,0,116
9,78,108,3
9,79,109,61
9,78,0,5
9,79,0,13
9,81,105,44
9,81,0,25
9,81,104,15
9,81,0,42
9,78,99,1
9,78,0,35
9,78,96,26
9,78,0,80
9,75,92,384
9,75,0,24
9,75,98,34
9,75,0,25
9,75,103,4
9,75,0,56
9,75,108,20
9,75,0,3
9,71,95,3
9,71,0,59
9,71,91,63
9,74,106,59
9,71,0,1
9,76,94,60
9,74,0,5
9,76,0,54
9,78,109,1
9,78,0,40
9,78,106,9
9,76,79,96
9,78,0,1
9,76,0,48
9,71,95,670
9,71,0,59
9,68,95,3
9,71,92,57
9,68,0,2
9,71,0,123
9,73,108,0
9,75,96,65
9,73,0,2
9,75,0,53
9,71,96,210
9,71,0,37
9,71,100,34
9,73,105,57
9,71,0,4
9,73,0,60
9,74,100,0
9,76,108,61
9,74,0,3
9,76,0,56
9,78,103,3
9,78,0,29
9,78,105,13
9,78,0,89
9,76,90,1
9,76,0,18
9,73,93,329
9,73,0,27
9,73,108,31
9,73,0,29
9,73,101,35
9,73,0,19
9,75,98,8078
9,75,0,24
9,75,98,36
9,75,0,19
9,75,98,11
9,73,103,30
9,75,0,6
9,73,0,21
9,75,103,3
9,75,0,2
9,71,95,1
9,71,0,84
9,71,91,19
9,74,106,59
9,71,0,1
9,74,0,59
9,76,94,1
9,76,0,59
9,78,109,1
9,78,0,40
9,78,106,15
9,76,89,99
9,78,0,1
9,76,0,106
9,83,113,552
9,83,0,16
9,75,102,7
9,75,0,44
9,75,102,13
9,75,0,44
9,75,98,13
9,75,0,16
9,71,95,26
9,71,0,37
9,71,100,34
9,73,105,57
9,71,0,4
9,74,100,60
9,73,0,6
9,76,102,55
9,74,0,3
9,76,0,56
9,78,103,3
9,78,0,29
9,78,100,26
9,76,83,193
9,78,0,3
9,76,0,16
9,73,93,259
9,73,0,27
9,73,108,31
9,73,0,29
9,73,101,35
9,73,0,7
9,66,94,419
9,67,101,62
9,66,0,7
9,69,110,53
9,67,0,3
9,71,104,57
9,69,0,1
9,69,90,61
9,71,0,6
9,74,108,50
9,69,0,1
9,74,0,22
9,74,76,6
9,74,0,23
9,74,108,5
9,72,93,62
9,74,0,2
9,72,0,12
9,74,97,16
9,74,0,22
9,74,109,10
9,72,92,43
9,74,0,5
9,72,0,63
9,66,94,739
9,66,0,16
9,66,105,14
9,67,106,58
9,66,0,2
9,69,102,59
9,67,0,5
9,69,0,33
9,69,111,22
9,69,0,54
9,71,104,1
9,69,107,58
9,71,0,1
9,69,0,53
9,76,109,3
9,74,98,77
9,76,0,5
9,72,98,56
9,74,0,4
9,74,110,58
9,72,0,2
9,74,0,55
9,76,102,0
9,76,0,42
9,76,100,19
9,76,0,12
9,73,105,519
9,74,91,58
9,73,0,5
9,74,0,52
9,76,105,0
9,76,0,32
9,76,104,7
9,76,0,63
9,76,104,32
9,76,0,26
9,76,110,33
9,76,0,32
9,76,108,8
9,76,0,62
9,76,101,31
9,76,0,33
9,76,112,27
9,76,0,24
9,78,106,16
9,78,0,85
9,76,101,3
9,74,100,60
9,76,0,8
9,74,0,26
9,74,105,26
9,74,0,22
9,81,109,262
9,81,0,23
9,81,104,37
9,81,0,24
9,81,106,37
9,81,0,54
9,78,102,7
9,76,99,37
9,78,0,4
9,74,100,57
9,76,0,3
9,76,97,56
9,74,0,6
9,78,109,54
9,76,0,13
9,79,104,47
9,78,0,5
9,79,0,22
9,79,110,35
9,79,0,19
9,76,113,289
9,76,0,22
9,76,102,37
9,76,0,29
9,76,110,8
9,73,105,39
9,76,0,6
9,73,0,52
9,76,111,2
9,76,0,52
9,76,111,7
9,76,0,53
9,78,110,6
9,76,113,45
9,78,0,1
9,76,0,54
9,74,110,4
9,74,0,43
9,74,100,14
9,74,0,55
9,81,104,6
9,81,0,22
9,81,107,11
9,81,0,24
9,81,100,7
9,81,0,94
9,78,110,1
9,78,0,20
9,78,104,12
9,78,0,22
9,76,108,10
9,76,0,116
9,78,108,3
9,79,109,61
9,78,0,5
9,79,0,17
9,81,105,66
9,81,0,25
9,81,104,35
9,81,0,58
9,78,99,1
9,78,0,35
9,78,96,26
9,78,0,80
9,75,92,384
9,75,0,24
9,75,98,34
9,75,0,25
9,75,103,4
9,75,0,35
9,73,87,9
9,75,108,23
9,73,0,9
9,75,0,10
9,71,86,1
9,71,0,75
9,71,91,46
9,74,101,59
9,71,0,1
9,74,0,59
9,76,94,1
9,76,0,59
9,78,109,1
9,78,0,40
9,78,106,11
9,76,85,108
9,78,0,1
9,76,0,43
9,75,102,9
9,75,0,37
9,75,103,19
9,75,0,32
9,75,108,24
9,75,0,39
9,75,96,14
9,71,69,105
9,75,0,3
9,71,0,12
9,71,90,78
9,71,0,37
9,71,100,34
9,73,105,57
9,71,0,4
9,73,0,60
9,74,100,0
9,76,108,61
9,74,0,3
9,76,0,56
9,78,103,3
9,78,0,29
9,78,105,31
9,78,0,117
9,76,90,1
9,76,0,9
9,73,91,352
9,73,0,27
9,73,86,29
9,73,0,27
9,73,91,27
9,73,0,275
9,76,96,1
9,76,0,3
9,78,103,0
9,78,0,167
9,78,97,10
9,78,0,63
9,76,95,1
9,76,0,13
9,74,84,50
9,76,88,119
9,74,0,1
9,76,0,47
9,76,96,8
9,76,0,55
9,76,87,6
9,76,0,164
9,77,95,12
9,77,0,30
9,77,83,26
9,77,0,14
9,83,66,966
9,83,0,160
9,78,68,0
9,80,68,118
9,78,0,4
9,78,67,81
9,80,0,4
9,80,62,130
9,78,0,1
9,80,0,6
10,40,73,5092
10,40,0,55
10,33,85,5
10,33,0,137
10,33,67,43
10,33,0,25
10,28,79,35
10,28,0,25
10,28,80,35
10,28,0,90
10,28,64,30
10,28,0,33
10,31,79,27
10,35,75,180
10,31,0,8
10,35,0,48
10,35,88,64
10,36,74,120
10,35,0,5
10,36,0,36
10,38,83,19
10,35,84,120
10,38,0,1
10,45,67,119
10,35,0,13
10,45,0,43
10,42,66,4
10,42,0,58
10,40,78,2
10,40,0,59
10,38,70,1
10,38,0,60
10,36,84,0
10,36,0,180
10,38,71,0
10,40,75,60
10,38,0,6
10,43,77,54
10,40,0,7
10,43,0,101
10,43,69,12
10,43,0,43
10,33,85,17
10,33,0,176
10,35,79,4
10,37,76,60
10,35,0,8
10,37,0,43
10,40,88,9
10,37,73,60
10,40,0,10
10,37,0,96
10,31,87,14
10,31,0,164
10,38,71,16
10,38,0,56
10,40,85,4
10,40,0,60
10,43,64,0
10,40,71,60
10,43,0,5
10,35,71,55
10,40,0,2
10,35,0,45
10,38,86,13
10,38,0,114
10,45,52,1
10,47,82,5
10,45,0,4
10,47,0,113
10,45,81,8
10,45,0,48
10,42,65,12
10,40,71,60
10,42,0,10
10,40,0,38
10,38,75,7
10,38,0,56
10,36,90,4
10,36,0,43
10,38,82,17
10,38,0,52
10,36,87,68
10,36,0,49
10,38,85,71
10,38,0,125
10,40,85,55
10,40,0,196
10,32,72,44
10,33,80,60
10,32,0,3
10,35,88,57
10,33,0,13
10,35,0,37
10,42,54,4
10,44,78,6
10,42,0,9
10,44,0,108
10,40,81,3
10,40,0,107
10,37,88,13
10,37,0,116
10,35,85,4
10,32,75,60
10,35,0,2
10,32,0,93
10,40,72,25
10,32,66,180
10,40,0,4
10,32,0,53
10,35,85,3
10,37,75,60
10,35,0,8
10,40,72,52
10,37,0,2
10,40,0,57
10,43,83,1
10,43,0,97
10,42,78,23
10,42,0,115
10,40,82,5
10,40,0,103
10,38,79,17
10,38,0,56
10,35,76,4
10,35,0,56
10,33,68,4
10,33,0,43
10,40,70,17
10,40,0,176
10,35,64,4
10,35,0,25
10,35,70,35
10,35,0,142
10,35,76,38
10,40,86,60
10,35,0,1
10,35,71,59
10,40,0,2
10,40,79,58
10,35,0,7
10,40,0,148
10,35,79,25
10,35,0,52
10,40,71,8
10,40,0,53
10,35,66,7
10,35,0,52
10,28,83,8
10,28,0,174
10,35,72,66
10,35,0,57
10,38,77,3
10,38,0,59
10,35,73,1
10,35,0,56
10,38,73,4
10,38,0,56
10,33,88,4
10,33,0,36
10,33,81,84
10,33,0,299
10,38,85,61
10,45,47,171
10,47,87,9
10,45,0,3
10,38,0,0
10,47,0,114
10,45,84,3
10,45,0,91
10,45,80,29
10,38,88,120
10,45,0,3
10,38,0,106
10,33,76,11
10,33,0,95
10,38,88,25
10,38,0,146
10,41,82,34
10,41,0,180
10,36,75,0
10,36,0,104
10,41,73,16
10,41,0,130
10,43,87,50
10,43,0,172
10,38,74,8
10,43,80,120
10,38,0,10
10,43,0,125
10,38,76,45
10,38,0,157
10,38,76,23
10,38,0,41
10,30,81,19
10,33,60,60
10,30,0,3
10,33,0,49
10,35,84,8
10,33,68,60
10,35,0,5
10,33,0,92
10,30,69,23
10,30,0,114
10,33,83,6
10,30,78,120
10,33,0,12
10,30,0,133
10,41,87,35
10,36,70,180
10,41,0,5
10,41,65,115
10,36,0,5
10,41,0,53
10,36,83,2
10,36,0,115
10,43,80,5
10,43,0,50
10,43,84,70
10,43,0,272
10,33,85,88
10,33,0,137
10,33,67,43
10,33,0,25
10,28,79,35
10,28,0,25
10,28,80,35
10,28,0,90
10,28,64,30
10,28,0,33
10,31,79,27
10,35,75,180
10,31,0,8
10,35,0,48
10,35,88,64
10,36,74,120
10,35,0,5
10,36,0,36
10,38,83,19
10,35,84,120
10,38,0,1
10,45,67,119
10,35,0,13
10,45,0,43
10,42,66,4
10,42,0,58
10,40,78,2
10,40,0,59
10,38,70,1
10,38,0,60
10,36,84,0
10,36,0,180
10,38,71,0
10,40,75,60
10,38,0,6
10,43,77,54
10,40,0,7
10,43,0,101
10,43,69,12
10,43,0,43
10,33,85,17
10,33,0,176
10,35,79,4
10,37,76,60
10,35,0,8
10,37,0,43
10,40,88,9
10,37,73,60
10,40,0,10
10,37,0,96
10,31,87,14
10,31,0,164
10,38,71,16
10,38,0,56
10,40,85,4
10,40,0,60
10,43,64,0
10,40,71,60
10,43,0,5
10,35,71,55
10,40,0,2
10,35,0,45
10,38,86,13
10,38,0,114
10,45,52,1
10,47,82,5
10,45,0,4
10,47,0,113
10,45,81,8
10,45,0,48
10,42,65,12
10,40,71,60
10,42,0,10
10,40,0,38
10,38,75,7
10,38,0,56
10,36,90,4
10,36,0,43
10,38,82,17
10,38,0,52
10,36,87,68
10,36,0,49
10,38,85,71
10,38,0,125
10,40,85,55
10,40,0,196
10,32,72,44
10,33,80,60
10,32,0,3
10,35,88,57
10,33,0,13
10,35,0,37
10,42,54,4
10,44,78,6
10,42,0,9
10,44,0,108
10,40,81,3
10,40,0,107
10,37,88,13
10,37,0,116
10,35,85,4
10,32,75,60
10,35,0,2
10,32,0,93
10,40,72,25
10,32,66,180
10,40,0,4
10,32,0,53
10,35,85,3
10,37,75,60
