track,note,velocity,time
1,33,100,480
1,33,0,120
1,38,100,60
1,38,0,60
1,37,100,60
1,37,0,60
1,35,100,60
1,35,0,60
1,33,100,0
1,33,0,120
1,38,100,60
1,38,0,60
1,37,100,60
1,37,0,60
1,35,100,60
1,35,0,60
1,33,100,0
1,33,0,60
1,33,100,0
1,33,0,60
1,33,100,0
1,33,0,60
1,33,100,0
1,33,0,60
1,33,100,0
1,33,0,60
1,33,100,0
1,33,0,60
1,33,100,0
1,33,0,60
1,33,100,0
1,33,0,60
1,33,100,0
1,33,0,60
1,33,100,0
1,33,0,60
1,33,100,0
1,33,0,60
1,33,100,0
1,33,0,60
1,31,100,0
1,31,0,60
1,33,100,60
1,33,0,60
1,38,100,60
1,38,0,180
1,38,100,0
1,38,0,60
1,33,100,0
1,33,0,60
1,35,100,0
1,35,0,60
1,38,100,0
1,38,0,60
1,35,100,0
1,35,0,60
1,40,100,0
1,40,0,180
1,40,100,0
1,40,0,60
1,35,100,0
1,35,0,60
1,35,100,0
1,35,0,60
1,40,100,0
1,40,0,60
1,35,100,0
1,35,0,60
1,38,100,0
1,38,0,180
1,38,100,0
1,38,0,60
1,33,100,0
1,33,0,60
1,35,100,0
1,35,0,60
1,38,100,0
1,38,0,60
1,35,100,0
1,35,0,60
1,33,100,0
1,33,0,180
1,40,100,0
1,40,0,60
1,45,100,0
1,45,0,60
1,40,100,0
1,40,0,60
1,34,100,0
1,34,0,60
1,34,100,0
1,34,0,60
1,35,100,0
1,35,0,180
1,35,100,0
1,35,0,60
1,35,100,0
1,35,0,60
1,35,100,0
1,35,0,120
1,35,100,0
1,35,0,60
1,36,100,0
1,36,0,180
1,36,100,0
1,36,0,60
1,36,100,0
1,36,0,60
1,36,100,0
1,36,0,120
1,36,100,0
1,36,0,60
1,35,100,0
1,35,0,180
1,35,100,0
1,35,0,60
1,35,100,0
1,35,0,60
1,38,100,0
1,38,0,60
1,42,100,0
1,42,0,60
1,47,100,0
1,47,0,60
1,45,100,0
1,45,0,180
1,45,100,0
1,45,0,60
1,45,100,0
1,45,0,60
1,40,100,0
1,40,0,60
1,45,100,0
1,45,0,60
1,40,100,0
1,40,0,60
1,43,100,0
1,43,0,120
1,43,100,0
1,43,0,60
1,43,100,0
1,43,0,60
1,43,100,0
1,43,0,120
1,43,100,0
1,43,0,60
1,43,100,0
1,43,0,60
1,43,100,0
1,43,0,60
1,43,100,0
1,43,0,60
1,43,100,0
1,43,0,60
1,43,100,0
1,43,0,60
1,43,100,0
1,43,0,70
1,45,100,50
1,45,0,70
1,38,100,50
1,38,0,180
1,38,100,0
1,38,0,60
1,33,100,0
1,33,0,60
1,33,100,0
1,33,0,120
1,33,100,0
1,33,0,60
1,38,100,0
1,38,0,180
1,38,100,0
1,38,0,60
1,33,100,0
1,33,0,60
1,35,100,0
1,35,0,60
1,38,100,0
1,38,0,60
1,35,100,0
1,35,0,60
1,40,100,0
1,40,0,180
1,40,100,0
1,40,0,60
1,35,100,0
1,35,0,60
1,35,100,0
1,35,0,120
1,35,100,0
1,35,0,60
1,40,100,0
1,40,0,180
1,40,100,0
1,40,0,120
1,35,100,0
1,35,0,60
1,38,100,0
1,38,0,60
1,35,100,0
1,35,0,60
1,38,100,0
1,38,0,180
1,38,100,0
1,38,0,60
1,33,100,0
1,33,0,60
1,33,100,0
1,33,0,120
1,33,100,0
1,33,0,60
1,38,100,0
1,38,0,180
1,38,100,0
1,38,0,60
1,33,100,0
1,33,0,60
1,35,100,0
1,35,0,60
1,38,100,0
1,38,0,60
1,35,100,0
1,35,0,60
1,40,100,0
1,40,0,180
1,40,100,0
1,40,0,60
1,35,100,0
1,35,0,180
1,40,100,0
1,40,0,60
1,42,100,0
1,42,0,180
1,42,100,0
1,42,0,60
1,37,100,0
1,37,0,180
1,42,100,0
1,42,0,60
1,43,100,0
1,43,0,180
1,43,100,0
1,43,0,60
1,38,100,0
1,38,0,60
1,38,100,0
1,38,0,120
1,38,100,0
1,38,0,60
1,43,100,0
1,43,0,180
1,43,100,0
1,43,0,120
1,38,100,0
1,38,0,60
1,43,100,0
1,43,0,60
1,38,100,0
1,38,0,60
1,31,100,0
1,31,0,180
1,31,100,0
1,31,0,60
1,31,100,0
1,31,0,60
1,31,100,0
1,31,0,120
1,31,100,0
1,31,0,60
1,31,100,0
1,31,0,180
1,31,100,0
1,31,0,120
1,31,100,0
1,31,0,60
1,31,100,0
1,31,0,60
1,31,100,0
1,31,0,60
1,38,100,0
1,38,0,180
1,38,100,0
1,38,0,60
1,38,100,0
1,38,0,60
1,38,100,0
1,38,0,120
1,38,100,0
1,38,0,60
1,33,100,0
1,33,0,180
1,33,100,0
1,33,0,60
1,33,100,0
1,33,0,60
1,33,100,0
1,33,0,120
1,33,100,0
1,33,0,60
1,34,100,0
1,34,0,180
1,34,100,0
1,34,0,60
1,34,100,0
1,34,0,60
1,34,100,0
1,34,0,120
1,34,100,0
1,34,0,60
1,31,100,0
1,31,0,60
1,31,100,0
1,31,0,60
1,31,100,0
1,31,0,60
1,31,100,0
1,31,0,60
1,31,100,0
1,31,0,120
1,33,100,0
1,33,0,120
1,38,100,0
1,38,0,180
1,38,100,0
1,38,0,60
1,33,100,0
1,33,0,60
1,35,100,0
1,35,0,60
1,38,100,0
1,38,0,60
1,35,100,0
1,35,0,60
1,40,100,0
1,40,0,180
1,40,100,0
1,40,0,60
1,35,100,0
1,35,0,60
1,35,100,0
1,35,0,60
1,40,100,0
1,40,0,60
1,35,100,0
1,35,0,60
1,38,100,0
1,38,0,180
1,38,100,0
1,38,0,60
1,33,100,0
1,33,0,60
1,35,100,0
1,35,0,60
1,38,100,0
1,38,0,60
1,35,100,0
1,35,0,60
1,33,100,0
1,33,0,180
1,40,100,0
1,40,0,60
1,45,100,0
1,45,0,60
1,40,100,0
1,40,0,60
1,34,100,0
1,34,0,60
1,34,100,0
1,34,0,60
1,35,100,0
1,35,0,180
1,35,100,0
1,35,0,60
1,35,100,0
1,35,0,60
1,35,100,0
1,35,0,120
1,35,100,0
1,35,0,60
1,36,100,0
1,36,0,180
1,36,100,0
1,36,0,60
1,36,100,0
1,36,0,60
1,36,100,0
1,36,0,120
1,36,100,0
1,36,0,60
1,35,100,0
1,35,0,180
1,35,100,0
1,35,0,60
1,35,100,0
1,35,0,60
1,38,100,0
1,38,0,60
1,42,100,0
1,42,0,60
1,47,100,0
1,47,0,60
1,45,100,0
1,45,0,180
1,45,100,0
1,45,0,60
1,45,100,0
1,45,0,60
1,40,100,0
1,40,0,60
1,45,100,0
1,45,0,60
1,40,100,0
1,40,0,60
1,43,100,0
1,43,0,120
1,43,100,0
1,43,0,60
1,43,100,0
1,43,0,60
1,43,100,0
1,43,0,120
1,43,100,0
1,43,0,60
1,43,100,0
1,43,0,60
1,43,100,0
1,43,0,60
1,43,100,0
1,43,0,60
1,43,100,0
1,43,0,60
1,43,100,0
1,43,0,60
1,43,100,0
1,43,0,70
1,45,100,50
1,45,0,70
1,38,100,50
1,38,0,180
1,38,100,0
1,38,0,60
1,33,100,0
1,33,0,60
1,33,100,0
1,33,0,120
1,33,100,0
1,33,0,60
1,38,100,0
1,38,0,180
1,38,100,0
1,38,0,60
1,33,100,0
1,33,0,60
1,35,100,0
1,35,0,60
1,38,100,0
1,38,0,60
1,35,100,0
1,35,0,60
1,40,100,0
1,40,0,180
1,40,100,0
1,40,0,60
1,35,100,0
1,35,0,60
1,35,100,0
1,35,0,120
1,35,100,0
1,35,0,60
1,40,100,0
1,40,0,180
1,40,100,0
1,40,0,120
1,35,100,0
1,35,0,60
1,38,100,0
1,38,0,60
1,35,100,0
1,35,0,60
1,39,100,0
1,39,0,180
1,39,100,0
1,39,0,60
1,34,100,0
1,34,0,60
1,34,100,0
1,34,0,120
1,34,100,0
1,34,0,60
1,39,100,0
1,39,0,180
1,39,100,0
1,39,0,60
1,34,100,0
1,34,0,60
1,36,100,0
1,36,0,60
1,39,100,0
1,39,0,60
1,36,100,0
1,36,0,60
1,41,100,0
1,41,0,180
1,41,100,0
1,41,0,60
1,36,100,0
1,36,0,60
1,36,100,0
1,36,0,120
1,36,100,0
1,36,0,60
1,41,100,0
1,41,0,180
1,41,100,0
1,41,0,120
1,36,100,0
1,36,0,60
1,39,100,0
1,39,0,60
1,36,100,0
1,36,0,60
1,39,100,0
1,39,0,180
1,39,100,0
1,39,0,60
1,34,100,0
1,34,0,60
1,34,100,0
1,34,0,120
1,34,100,0
1,34,0,60
1,39,100,0
1,39,0,180
1,39,100,0
1,39,0,60
1,34,100,0
1,34,0,60
1,36,100,0
1,36,0,60
1,39,100,0
1,39,0,60
1,36,100,0
1,36,0,60
1,41,100,0
1,41,0,180
1,41,100,0
1,41,0,60
1,36,100,0
1,36,0,60
1,36,100,0
1,36,0,120
1,36,100,0
1,36,0,60
1,41,100,0
1,41,0,180
1,41,100,0
1,41,0,120
1,36,100,0
1,36,0,60
1,39,100,0
1,39,0,60
1,36,100,0
1,36,0,60
1,39,100,0
1,39,0,180
1,39,100,0
1,39,0,60
1,34,100,0
1,34,0,60
1,34,100,0
1,34,0,120
1,34,100,0
1,34,0,60
1,39,100,0
1,39,0,180
1,39,100,0
1,39,0,60
1,34,100,0
1,34,0,60
1,36,100,0
1,36,0,60
1,39,100,0
1,39,0,60
1,36,100,0
1,36,0,60
1,41,100,0
1,41,0,180
1,41,100,0
1,41,0,60
1,36,100,0
1,36,0,180
1,41,100,0
1,41,0,60
1,43,100,0
1,43,0,180
1,43,100,0
1,43,0,60
1,38,100,0
1,38,0,180
1,43,100,0
1,43,0,60
1,44,100,0
1,44,0,180
1,44,100,0
1,44,0,60
1,39,100,0
1,39,0,60
1,39,100,0
1,39,0,120
1,39,100,0
1,39,0,60
1,44,100,0
1,44,0,180
1,44,100,0
1,44,0,120
1,39,100,0
1,39,0,60
1,44,100,0
1,44,0,60
1,39,100,0
1,39,0,60
1,32,100,0
1,32,0,180
1,32,100,0
1,32,0,60
1,32,100,0
1,32,0,60
1,32,100,0
1,32,0,120
1,32,100,0
1,32,0,60
1,32,100,0
1,32,0,180
1,32,100,0
1,32,0,120
1,32,100,0
1,32,0,60
1,32,100,0
1,32,0,60
1,32,100,0
1,32,0,60
1,39,100,0
1,39,0,180
1,39,100,0
1,39,0,60
1,39,100,0
1,39,0,60
1,39,100,0
1,39,0,120
1,39,100,0
1,39,0,60
1,34,100,0
1,34,0,180
1,34,100,0
1,34,0,60
1,34,100,0
1,34,0,60
1,34,100,0
1,34,0,120
1,34,100,0
1,34,0,60
1,35,100,0
1,35,0,180
1,35,100,0
1,35,0,60
1,35,100,0
1,35,0,60
1,35,100,0
1,35,0,120
1,35,100,0
1,35,0,60
1,32,100,0
1,32,0,60
1,32,100,0
1,32,0,60
1,32,100,0
1,32,0,60
1,32,100,0
1,32,0,60
1,32,100,0
1,32,0,120
1,34,100,0
1,34,0,120
1,39,100,0
1,39,0,180
1,39,100,0
1,39,0,60
1,34,100,0
1,34,0,60
1,36,100,0
1,36,0,60
1,39,100,0
1,39,0,60
1,36,100,0
1,36,0,60
1,41,100,0
1,41,0,180
1,41,100,0
1,41,0,60
1,36,100,0
1,36,0,60
1,36,100,0
1,36,0,60
1,41,100,0
1,41,0,60
1,36,100,0
1,36,0,60
1,39,100,0
1,39,0,180
1,39,100,0
1,39,0,60
1,34,100,0
1,34,0,60
1,36,100,0
1,36,0,60
1,39,100,0
1,39,0,60
1,36,100,0
1,36,0,60
1,34,100,0
1,34,0,180
1,41,100,0
1,41,0,60
1,46,100,0
1,46,0,60
1,41,100,0
1,41,0,60
1,35,100,0
1,35,0,60
1,35,100,0
1,35,0,60
1,36,100,0
1,36,0,180
1,36,100,0
1,36,0,60
1,36,100,0
1,36,0,60
1,36,100,0
1,36,0,120
1,36,100,0
1,36,0,60
1,37,100,0
1,37,0,180
1,37,100,0
1,37,0,60
1,37,100,0
1,37,0,60
1,37,100,0
1,37,0,120
1,37,100,0
1,37,0,60
1,36,100,0
1,36,0,180
1,36,100,0
1,36,0,60
1,36,100,0
1,36,0,60
1,39,100,0
1,39,0,60
1,43,100,0
1,43,0,60
1,48,100,0
1,48,0,60
1,46,100,0
1,46,0,180
1,46,100,0
1,46,0,60
1,46,100,0
1,46,0,60
1,41,100,0
1,41,0,60
1,46,100,0
1,46,0,60
1,41,100,0
1,41,0,60
1,44,100,0
1,44,0,120
1,44,100,0
1,44,0,60
1,44,100,0
1,44,0,60
1,44,100,0
1,44,0,120
1,44,100,0
1,44,0,60
1,44,100,0
1,44,0,60
1,44,100,0
1,44,0,60
1,44,100,0
1,44,0,60
1,44,100,0
1,44,0,60
1,44,100,0
1,44,0,60
1,44,100,0
1,44,0,70
1,46,100,50
1,46,0,70
1,39,100,50
1,39,0,180
1,39,100,0
1,39,0,60
1,34,100,0
1,34,0,60
1,36,100,0
1,36,0,60
1,39,100,0
1,39,0,60
1,36,100,0
1,36,0,60
1,41,100,0
1,41,0,180
1,41,100,0
1,41,0,60
1,36,100,0
1,36,0,60
1,36,100,0
1,36,0,60
1,41,100,0
1,41,0,60
1,36,100,0
1,36,0,60
1,39,100,0
1,39,0,180
1,39,96,0
1,39,0,60
1,34,94,0
1,34,0,60
1,36,93,0
1,36,0,60
1,39,91,0
1,39,0,60
1,36,90,0
1,36,0,60
1,34,88,0
1,34,0,180
1,41,83,0
1,41,0,60
1,46,82,0
1,46,0,60
1,41,80,0
1,41,0,60
1,35,79,0
1,35,0,60
1,35,77,0
1,35,0,60
1,36,75,0
1,36,0,180
1,36,71,0
1,36,0,60
1,36,69,0
1,36,0,60
1,36,68,0
1,36,0,120
1,36,65,0
1,36,0,60
1,37,63,0
1,37,0,180
1,37,58,0
1,37,0,60
1,37,57,0
1,37,0,60
1,37,55,0
1,37,0,120
1,37,52,0
1,37,0,60
1,36,50,0
1,36,0,180
1,36,46,0
1,36,0,60
1,36,44,0
1,36,0,60
1,39,43,0
1,39,0,60
1,43,41,0
1,43,0,60
1,48,40,0
1,48,0,60
1,46,38,0
1,46,0,180
1,46,33,0
1,46,0,60
1,46,32,0
1,46,0,60
1,41,30,0
1,41,0,60
1,46,29,0
1,46,0,60
1,41,27,0
1,41,0,60
1,44,25,0
1,44,0,120
1,44,22,0
1,44,0,60
1,44,21,0
1,44,0,60
1,44,19,0
1,44,0,120
1,44,16,0
1,44,0,60
1,44,15,0
1,44,0,60
1,44,13,0
1,44,0,60
1,44,11,0
1,44,0,60
1,44,10,0
1,44,0,60
1,44,8,0
1,44,0,60
1,44,7,0
1,44,0,70
1,46,4,50
1,46,0,70
2,55,100,0
2,55,0,420
2,55,100,0
2,55,0,420
2,69,100,0
2,69,0,360
2,69,100,0
2,69,0,120
2,69,100,0
2,69,0,240
2,71,100,0
2,71,0,60
2,73,100,60
2,73,0,60
2,74,100,60
2,74,0,240
2,74,100,120
2,74,0,60
2,76,100,60
2,76,0,240
2,76,100,120
2,76,0,60
2,74,100,60
2,74,0,480
2,69,100,0
2,69,0,240
2,69,100,0
2,69,0,60
2,70,100,60
2,70,0,60
2,74,100,60
2,74,0,240
2,74,100,120
2,74,0,60
2,76,100,60
2,76,0,300
2,74,100,180
2,74,0,300
2,73,100,180
2,73,0,300
2,71,100,180
2,71,0,360
2,71,100,60
2,71,0,45
2,74,100,15
2,74,0,45
2,79,100,15
2,79,0,120
2,71,100,0
2,71,0,120
2,69,100,60
2,69,0,70
2,69,100,50
2,69,0,240
2,66,100,1500
2,66,0,50
2,64,100,10
2,64,0,50
2,62,100,10
2,62,0,60
2,57,100,0
2,57,0,360
2,59,100,900
2,59,0,50
2,64,100,10
2,64,0,50
2,67,100,10
2,67,0,50
2,66,100,10
2,66,0,240
2,61,100,60
2,61,0,50
2,66,100,10
2,66,0,50
2,69,100,10
2,69,0,50
2,67,100,10
2,67,0,960
2,67,100,0
2,67,0,960
2,74,100,0
2,74,0,480
2,73,100,0
2,73,0,480
