track,note,velocity,time
1,72,105,1080
1,73,93,6
1,80,116,9
1,73,109,344
1,53,100,0
1,58,116,0
1,65,72,0
1,68,109,0
1,72,105,1
1,68,78,24
1,56,109,0
1,65,66,0
1,68,69,0
1,73,116,0
1,72,58,4
1,68,78,24
1,61,69,6
1,68,85,0
1,54,78,0
1,65,68,0
1,73,101,0
1,65,83,3
1,68,69,21
1,68,67,5
1,73,116,0
1,61,78,8
1,65,100,5
1,68,74,17
1,73,109,24
1,51,93,1
1,70,109,0
1,56,93,24
1,58,116,20
1,63,116,1
1,65,78,2
1,68,109,8
1,70,71,24
1,73,78,6
1,47,100,7
1,70,121,0
1,47,110,11
1,68,101,18
1,65,76,0
1,53,74,0
1,58,78,0
1,73,93,0
1,72,92,3
1,65,57,0
1,68,85,24
1,56,93,3
1,65,72,0
1,68,71,0
1,73,109,0
1,72,76,4
1,68,74,24
1,65,68,7
1,68,78,0
1,61,61,0
1,54,74,0
1,73,109,0
1,61,101,13
1,65,65,3
1,73,109,17
1,61,78,1
1,65,100,24
1,68,109,17
1,73,116,24
1,51,109,5
1,70,109,0
1,56,109,24
1,58,109,2
1,63,109,1
1,65,96,4
1,68,116,24
1,70,67,21
1,73,109,9
1,70,109,3
1,47,105,0
1,53,78,9
1,41,86,0
1,46,67,0
1,61,74,0
1,56,93,0
1,60,110,0
1,56,93,24
1,44,93,0
1,56,69,0
1,53,68,0
1,61,109,0
1,60,78,0
1,56,85,24
1,42,93,8
1,53,72,0
1,56,69,0
1,49,69,0
1,61,109,0
1,49,93,13
1,53,72,7
1,56,48,9
1,61,116,0
1,49,74,5
1,53,89,2
1,56,93,16
1,61,101,24
1,39,93,1
1,58,116,0
1,44,85,23
1,46,93,0
1,51,109,2
1,53,100,24
1,56,93,6
1,58,101,24
1,61,85,24
1,35,100,5
1,58,116,0
1,53,72,19
1,41,74,10
1,46,74,0
1,61,78,0
1,53,76,0
1,56,93,0
1,60,96,2
1,56,78,24
1,56,67,1
1,44,93,0
1,53,72,0
1,61,109,0
1,60,78,2
1,56,74,24
1,53,72,4
1,56,67,0
1,49,85,0
1,42,93,0
1,61,109,0
1,53,86,18
1,56,44,11
1,53,35,2
1,61,116,0
1,49,78,1
1,53,83,2
1,56,74,24
1,61,101,24
1,39,93,2
1,58,116,0
1,44,101,24
1,46,116,1
1,51,93,4
1,53,96,24
1,56,101,3
1,58,74,24
1,61,78,4
1,58,116,7
1,35,96,0
1,47,124,120
1,53,76,30
1,46,116,6
1,41,83,0
1,61,93,0
1,53,83,0
1,56,109,0
1,60,115,0
1,56,93,24
1,53,70,2
1,56,69,0
1,61,109,0
1,44,109,0
1,60,78,1
1,56,85,24
1,56,71,2
1,53,76,0
1,49,74,0
1,61,116,0
1,42,109,0
1,53,96,15
1,56,85,14
1,56,67,9
1,61,116,0
1,49,43,11
1,53,96,8
1,56,74,19
1,61,109,24
1,39,78,4
1,58,109,0
1,44,85,24
1,46,109,2
1,51,93,24
1,53,100,23
1,56,101,2
1,58,93,24
1,61,74,4
1,58,116,7
1,35,96,0
1,47,115,48
1,35,96,16
1,53,80,1
1,61,71,5
1,53,76,0
1,56,101,0
1,41,78,0
1,46,109,0
1,60,100,2
1,56,85,24
1,56,71,0
1,44,109,0
1,61,101,0
1,53,74,0
1,60,92,1
1,56,93,24
1,49,71,3
1,56,71,0
1,53,72,0
1,42,69,0
1,61,109,0
1,53,92,15
1,56,67,18
1,61,109,10
1,56,66,0
1,53,96,4
1,56,78,16
1,61,101,24
1,58,121,2
1,39,93,0
1,44,78,24
1,46,109,21
1,51,109,22
1,53,89,5
1,56,116,8
1,58,28,24
1,61,93,13
1,35,92,4
1,58,121,0
1,58,85,9
1,53,72,44
1,61,71,11
1,53,74,0
1,41,83,0
1,56,93,0
1,46,71,0
1,60,96,2
1,56,71,24
1,56,69,5
1,44,78,0
1,53,76,0
1,61,109,0
1,60,78,1
1,56,78,24
1,56,74,4
1,49,67,0
1,61,109,0
1,53,74,0
1,42,109,0
1,53,89,5
1,56,49,24
1,53,45,6
1,61,116,0
1,56,63,0
1,49,74,13
1,53,96,2
1,56,85,24
1,61,109,24
1,58,116,2
1,39,74,0
1,44,71,24
1,46,109,0
1,51,109,2
1,53,100,1
1,56,101,4
1,58,74,24
1,61,101,3
1,58,116,4
1,35,100,0
1,47,120,96
1,53,86,0
1,56,101,7
1,41,68,0
1,53,76,0
1,61,85,0
1,46,109,0
1,60,110,1
1,56,101,23
1,56,69,2
1,53,72,0
1,44,109,0
1,61,116,0
1,60,100,4
1,56,85,23
1,49,74,5
1,56,71,0
1,53,78,0
1,42,109,0
1,61,116,0
1,49,93,12
1,53,63,8
1,61,121,3
1,56,50,0
1,49,78,16
1,53,92,24
1,56,93,18
1,61,109,3
1,39,85,12
1,58,116,0
1,44,66,21
1,46,116,2
1,51,109,5
1,53,100,9
1,56,116,24
1,58,74,17
1,61,101,2
1,35,105,4
1,58,109,0
1,47,127,1
1,35,105,72
1,53,74,2
1,41,74,11
1,61,85,0
1,40,70,0
1,46,101,0
1,53,66,0
1,56,78,0
1,60,86,4
1,56,78,16
1,53,44,0
1,56,71,6
1,53,74,0
1,61,109,0
1,44,121,0
1,60,100,2
1,56,85,24
1,49,74,4
1,42,93,0
1,56,71,0
1,53,76,0
1,61,109,0
1,53,96,24
1,56,101,20
1,61,121,9
1,56,63,0
1,49,74,9
1,53,86,11
1,56,109,23
1,61,109,24
1,39,101,0
1,58,109,0
1,44,93,22
1,46,109,3
1,51,116,3
1,53,110,5
1,56,116,5
1,58,71,24
1,61,101,1
1,35,74,1
1,58,109,0
1,47,115,6
1,53,105,72
1,56,109,37
1,56,66,7
1,61,109,0
1,41,86,0
1,46,78,0
1,60,115,0
1,56,93,24
1,44,116,0
1,56,69,0
1,53,66,0
1,61,116,0
1,60,105,2
1,56,85,15
1,49,74,4
1,42,93,0
1,56,71,0
1,53,72,0
1,61,101,0
1,53,105,7
1,56,109,24
1,56,71,8
1,61,109,0
1,53,45,0
1,49,101,11
1,53,110,4
1,61,48,0
1,56,116,21
1,61,116,24
1,44,53,0
1,39,85,2
1,58,121,0
1,44,78,24
1,46,109,3
1,51,101,3
1,53,100,2
1,56,116,14
1,58,101,24
1,61,101,4
1,58,121,6
1,35,96,0
1,47,120,2
1,35,110,72
1,53,70,5
1,41,83,7
1,61,85,0
1,46,109,0
1,56,109,0
1,53,76,0
1,60,92,3
1,56,85,24
1,53,72,4
1,44,116,0
1,56,71,0
1,61,116,0
1,60,96,1
1,56,101,24
1,53,72,8
1,56,69,0
1,42,85,0
1,61,109,0
1,49,69,0
1,49,116,3
1,53,89,3
1,56,30,0
1,61,121,4
1,53,6,0
1,49,93,9
1,53,96,24
1,56,78,22
1,61,116,5
1,39,101,6
1,58,116,0
1,44,109,1
1,46,121,3
1,51,116,5
1,53,105,7
1,56,109,5
1,58,85,24
1,61,101,4
1,58,101,5
1,35,89,0
1,47,110,48
1,35,96,65
1,53,80,0
1,41,83,9
1,46,109,0
1,61,78,0
1,53,74,0
1,56,93,0
1,60,100,4
1,56,85,24
1,44,101,3
1,56,71,0
1,53,74,0
1,61,101,0
1,60,89,3
1,56,93,22
1,56,66,6
1,53,70,0
1,49,69,0
1,42,93,0
1,61,109,0
1,53,86,3
1,56,56,24
1,56,56,5
1,61,121,0
1,49,78,15
1,53,74,12
1,56,109,24
1,61,101,9
1,39,74,5
1,58,109,0
1,44,93,24
1,46,109,8
1,51,101,4
1,53,100,3
1,56,109,9
1,58,69,24
1,61,93,6
1,35,100,6
1,58,109,0
1,47,120,96
1,53,76,11
1,46,116,7
1,61,71,0
1,41,86,0
1,56,101,0
1,53,78,0
1,60,105,1
1,56,71,24
1,44,116,0
1,56,71,0
1,53,62,0
1,61,109,0
1,60,105,2
1,56,78,20
1,49,78,4
1,42,101,0
1,56,67,0
1,53,72,0
1,61,116,0
1,49,109,2
1,53,76,6
1,53,28,5
1,61,121,0
1,49,93,12
1,53,80,3
1,56,93,24
1,61,116,24
1,44,45,0
1,39,78,5
1,58,101,0
1,44,101,24
1,46,101,4
1,51,116,3
1,53,96,3
1,56,101,14
1,58,93,24
1,61,74,5
1,58,116,7
1,35,96,0
1,47,105,3
1,35,105,72
1,53,80,2
1,56,43,0
1,41,80,6
1,46,93,0
1,61,66,0
1,53,74,0
1,56,71,0
1,60,96,5
1,56,85,24
1,44,109,2
1,53,76,0
1,56,69,0
1,61,109,0
1,60,83,1
1,56,109,24
1,49,67,8
1,56,78,0
1,53,70,0
1,42,101,0
1,61,109,0
1,49,109,12
1,53,62,2
1,61,121,1
1,49,116,15
1,53,92,24
1,61,22,10
1,56,93,9
1,61,109,8
1,39,93,4
1,58,109,0
1,44,109,22
1,46,93,2
1,51,121,1
1,53,89,24
1,56,109,17
1,58,85,24
1,61,109,3
1,58,26,0
1,35,96,6
1,58,121,0
1,47,124,0
1,35,105,72
1,53,89,5
1,61,85,9
1,53,70,0
1,41,86,0
1,46,109,0
1,56,85,0
1,60,100,0
1,56,101,12
1,53,65,0
1,61,116,5
1,53,68,0
1,56,67,0
1,44,116,0
1,60,92,0
1,56,93,24
1,42,101,7
1,49,78,0
1,56,71,0
1,53,72,0
1,61,116,0
1,49,101,14
1,53,92,5
1,61,121,5
1,49,121,14
1,53,89,2
1,56,109,24
1,61,121,11
1,58,116,0
1,39,78,0
1,44,93,24
1,46,109,4
1,51,109,0
1,53,110,6
1,56,116,8
1,58,93,0
1,61,78,3
1,35,100,6
1,58,116,0
1,47,120,4
1,35,105,72
1,53,76,0
1,41,89,8
1,46,109,0
1,61,101,0
1,53,74,0
1,56,109,0
1,60,100,3
1,56,78,8
1,53,40,0
1,44,116,0
1,53,74,0
1,56,69,0
1,61,116,0
1,60,110,2
1,56,93,21
1,42,93,4
1,53,70,0
1,56,71,0
1,49,85,0
1,61,116,0
1,49,116,15
1,53,80,2
1,61,116,24
1,49,109,14
1,42,36,0
1,53,100,0
1,56,85,24
1,61,109,24
1,39,93,0
1,58,116,0
1,44,85,1
1,46,116,3
1,51,109,3
1,53,92,6
1,56,116,7
1,58,78,24
1,61,109,7
1,58,121,4
1,35,96,0
1,53,89,33
1,61,101,13
1,53,83,0
1,41,86,0
1,46,85,0
1,56,109,0
1,60,105,1
1,53,36,6
1,56,93,0
1,56,71,2
1,53,76,0
1,61,116,0
1,44,116,0
1,60,100,0
1,56,85,24
1,56,93,7
1,61,109,0
1,42,101,0
1,49,74,0
1,53,74,0
1,53,92,16
1,56,63,14
1,61,116,4
1,49,74,13
1,53,86,2
1,56,101,24
1,61,101,24
1,58,121,3
1,39,101,0
1,44,85,24
1,46,101,21
1,51,109,2
1,53,110,1
1,56,93,11
1,58,78,24
1,61,93,2
1,58,109,1
1,35,100,0
1,47,115,6
1,35,110,72
1,53,80,4
1,46,109,9
1,56,101,0
1,41,78,0
1,61,85,0
1,53,76,0
1,60,105,1
1,56,69,24
1,44,116,3
1,53,74,0
1,56,71,0
1,61,109,0
1,60,100,3
1,56,78,24
1,56,69,6
1,53,76,0
1,61,109,0
1,49,71,0
1,42,101,0
1,49,101,17
1,53,66,6
1,61,121,4
1,53,39,0
1,49,109,13
1,53,89,3
1,56,101,24
1,61,116,24
1,39,101,3
1,58,116,0
1,44,93,24
1,46,116,4
1,51,109,4
1,53,100,5
1,56,116,12
1,58,60,24
1,61,109,7
1,58,116,6
1,35,100,0
1,47,124,96
1,53,61,5
1,41,83,9
1,61,93,0
1,46,109,0
1,53,72,0
1,56,109,0
1,60,115,1
1,56,93,1
1,44,109,6
1,56,71,0
1,53,70,0
1,61,121,0
1,60,100,0
1,56,78,24
1,56,85,7
1,53,70,0
1,42,101,0
1,61,109,0
1,49,71,0
1,49,116,13
1,53,66,1
1,61,121,6
1,49,85,12
1,53,100,4
1,56,85,24
1,61,116,24
1,44,36,2
1,39,101,3
1,58,116,0
1,44,85,24
1,46,101,3
1,51,93,1
1,53,105,2
1,56,109,2
1,58,66,24
1,61,101,6
1,35,96,3
1,58,109,0
1,47,115,7
1,35,105,72
1,53,92,0
1,56,109,8
1,46,101,8
1,41,86,0
1,56,69,0
1,61,109,0
1,53,72,0
1,60,105,3
1,56,93,24
1,56,71,0
1,53,76,0
1,61,109,0
1,44,109,0
1,60,92,1
1,56,101,24
1,42,85,7
1,56,67,0
1,49,85,0
1,53,74,0
1,61,116,0
1,49,109,2
1,53,63,9
1,61,116,6
1,49,85,14
1,53,92,2
1,56,85,24
1,61,116,24
1,39,101,0
1,58,101,0
1,44,85,24
1,46,109,5
1,51,109,5
1,53,105,4
1,56,101,10
1,58,93,24
1,61,101,7
1,35,92,6
1,58,121,0
1,47,127,3
1,35,115,72
1,53,80,1
1,41,89,7
1,46,116,0
1,61,93,0
1,56,109,0
1,53,76,0
1,60,105,2
1,56,85,24
1,56,71,3
1,44,116,0
1,53,74,0
1,61,116,0
1,60,86,3
1,56,85,24
1,53,76,5
1,56,69,0
1,61,109,0
1,49,101,0
1,42,85,0
1,53,80,19
1,56,85,19
1,61,116,6
1,49,93,17
1,53,86,2
1,56,101,24
1,61,101,6
1,56,9,0
1,44,24,7
1,39,93,2
1,58,109,0
1,44,74,24
1,46,109,4
1,51,116,5
1,53,96,4
1,56,109,6
1,58,85,24
1,61,101,2
1,35,100,8
1,58,121,0
1,47,115,2
1,35,92,72
1,53,105,4
1,41,83,15
1,46,74,0
1,61,109,0
1,53,78,0
1,56,109,0
1,60,100,5
1,56,78,23
1,44,109,7
1,56,71,0
1,53,70,0
1,61,116,0
1,60,92,3
1,56,85,22
1,49,63,6
1,53,72,0
1,56,101,0
1,42,109,0
1,61,109,0
1,53,100,15
1,56,93,16
1,61,121,12
1,49,116,13
1,53,96,3
1,56,101,24
1,61,116,6
1,58,116,5
1,39,101,0
1,44,101,0
1,46,109,2
1,51,109,2
1,53,100,24
1,56,109,1
1,58,78,24
1,61,116,9
1,35,100,2
1,58,109,0
1,47,124,2
1,35,105,72
1,53,78,12
1,41,80,10
1,46,109,0
1,53,66,0
1,61,109,0
1,56,109,0
1,60,100,2
1,53,39,9
1,56,78,0
1,56,69,0
1,53,74,0
1,61,109,0
1,44,109,0
1,60,100,0
1,56,93,24
1,56,93,7
1,53,72,0
1,49,74,0
1,61,116,0
1,42,93,0
1,49,116,14
1,53,80,5
1,61,121,6
1,49,109,15
1,53,89,2
1,56,101,24
1,61,116,24
1,42,1,0
1,58,116,3
1,39,93,0
1,44,101,24
1,46,93,3
1,51,116,1
1,53,96,3
1,56,116,5
1,58,78,24
1,61,109,4
1,58,116,4
1,35,105,0
1,53,89,15
1,53,80,8
1,56,101,0
1,41,83,0
1,46,85,0
1,61,78,0
1,60,115,24
1,56,78,11
1,44,116,0
1,53,72,0
1,56,64,0
1,61,101,0
1,60,115,1
1,56,85,18
1,56,69,4
1,53,70,0
1,61,101,0
1,42,101,0
1,49,74,0
1,49,116,13
1,53,74,3
1,61,121,10
1,49,101,18
1,53,100,3
1,56,109,24
1,61,121,0
1,58,116,3
1,39,85,0
1,44,78,24
1,46,116,2
1,51,116,5
1,53,100,3
1,56,116,10
1,58,85,24
1,61,109,4
1,35,100,3
1,58,116,0
1,47,120,6
1,35,110,72
1,53,80,4
1,46,101,8
1,61,93,0
1,53,65,0
1,56,101,0
1,41,86,0
1,46,40,5
1,60,105,1
1,56,78,15
1,44,116,3
1,56,71,0
1,53,57,0
1,61,116,0
1,60,76,6
1,56,85,18
1,56,78,6
1,53,78,0
1,42,101,0
1,61,109,0
1,49,85,0
1,49,116,14
1,53,80,5
1,61,125,8
1,49,93,14
1,53,100,4
1,56,109,24
1,61,116,24
1,39,78,3
1,58,121,0
1,44,93,24
1,46,116,2
1,51,116,2
1,53,96,2
1,56,116,8
1,58,93,24
1,61,93,9
1,35,100,4
1,58,121,0
1,47,120,3
1,35,110,72
1,53,92,2
1,46,109,9
1,53,78,0
1,61,93,0
1,41,92,0
