track,note,velocity,time
1,64,116,13440
1,66,118,72
1,68,118,82
1,68,114,124
1,68,113,104
1,66,76,12
1,64,48,6
1,68,108,194
1,68,88,78
1,69,118,470
1,69,116,116
1,71,114,112
1,69,124,88
1,71,87,36
1,66,56,4
1,68,103,36
1,66,84,178
1,64,65,4
1,64,114,2286
1,66,109,68
1,68,118,80
1,68,114,124
1,66,86,14
1,68,113,28
1,66,76,8
1,64,48,6
1,69,118,968
1,69,116,108
1,71,112,70
1,71,111,130
1,66,110,30
1,68,109,374
1,66,90,18
1,64,61,20
1,68,118,1940
1,68,118,82
1,69,118,4
1,68,118,2
1,66,110,50
1,66,101,20
1,66,118,1766
1,66,118,82
1,68,118,4
1,66,118,2
1,64,110,50
1,64,101,20
1,64,118,1952
1,66,112,70
1,68,118,84
1,68,114,124
1,66,86,14
1,68,113,28
1,66,76,8
1,64,48,6
1,69,118,970
1,69,116,116
1,71,114,112
1,69,124,88
1,71,87,36
1,66,56,4
1,68,103,36
1,66,84,178
1,64,65,4
1,64,114,2286
1,66,109,68
1,68,118,80
1,68,114,124
1,68,113,104
1,66,76,12
1,64,48,6
1,69,118,968
1,69,116,108
1,71,112,70
1,71,111,130
1,66,110,30
1,68,109,182
1,66,90,18
1,64,61,20
1,68,118,1844
1,68,118,82
1,69,118,4
1,68,118,2
1,66,110,50
1,66,101,20
1,66,118,1766
1,66,118,82
1,68,118,4
1,66,118,2
1,64,110,50
1,64,101,20
1,64,121,1764
1,68,121,88
1,71,124,78
1,73,124,52
1,71,118,74
1,71,121,68
1,71,113,64
1,66,92,22
1,68,121,126
1,71,116,58
1,73,124,70
1,71,103,4
1,69,124,510
1,71,118,52
1,69,124,52
1,68,106,2
1,66,95,92
1,64,83,86
1,68,121,1974
1,71,116,38
1,73,121,36
1,73,107,30
1,71,114,190
1,73,112,6
1,71,90,82
1,68,56,72
1,68,121,326
1,71,116,38
1,73,121,36
1,73,107,30
1,71,114,190
1,73,112,4
1,71,116,590
1,73,118,90
1,73,118,62
1,73,83,76
1,71,51,188
1,71,74,404
1,75,118,54
1,73,124,90
1,71,118,68
1,69,116,82
1,68,121,66
1,66,121,14
1,64,106,1146
1,66,109,64
1,68,118,54
1,68,114,124
1,68,113,104
1,66,76,12
1,64,48,6
1,69,108,778
1,69,118,120
1,69,116,116
1,71,114,112
1,69,124,88
1,71,87,36
1,66,56,4
1,68,103,36
1,66,84,178
1,64,65,4
1,68,118,2674
1,68,114,124
1,66,86,14
1,68,113,28
1,66,76,8
1,64,48,6
1,68,37,256
1,69,118,904
1,69,116,108
1,71,112,70
1,71,111,130
1,66,110,30
1,68,109,374
1,66,90,18
1,64,61,20
1,68,118,1940
1,68,118,82
1,69,118,4
1,68,118,2
1,66,110,50
1,66,101,20
1,66,118,1766
1,66,118,82
1,68,118,4
1,66,118,2
1,64,110,50
1,64,101,20
1,64,124,20198
1,68,124,64
1,71,121,70
1,73,124,62
1,71,118,74
1,71,121,68
1,71,113,64
1,66,92,22
1,68,121,126
1,71,116,58
1,73,124,70
1,71,103,4
1,69,124,510
1,71,118,52
1,69,124,52
1,68,106,2
1,66,95,92
1,64,83,86
1,68,121,1974
1,71,116,38
1,73,121,36
1,73,107,30
1,71,114,190
1,73,112,6
1,71,90,82
1,68,56,72
1,68,121,326
1,71,116,38
1,73,121,36
1,73,107,30
1,71,114,190
1,73,112,4
1,71,116,590
1,73,118,90
1,73,118,62
1,73,83,76
1,71,51,188
1,71,74,404
1,75,118,54
1,73,124,90
1,71,118,68
1,69,116,82
1,68,121,66
1,66,121,14
1,76,124,752
1,73,124,130
1,71,116,4
1,73,85,4
1,68,118,12
1,68,114,124
1,68,113,104
1,66,76,12
1,64,48,6
1,68,108,194
1,68,88,78
1,69,118,470
1,69,116,116
1,71,114,112
1,69,124,88
1,71,87,36
1,66,56,4
1,68,103,36
1,66,84,178
1,64,65,4
1,76,114,2094
1,71,93,68
1,73,118,12
1,68,114,124
1,66,86,14
1,68,113,28
1,66,76,8
1,64,48,6
1,69,118,968
1,69,116,108
1,71,112,70
1,71,111,130
1,66,110,30
1,68,109,374
1,66,90,18
1,64,61,20
1,68,118,1940
1,68,118,82
1,69,118,4
1,68,118,2
1,66,110,50
1,66,101,20
1,66,118,1766
1,66,118,82
1,68,118,4
1,66,118,2
1,64,110,50
1,64,101,20
1,68,118,1766
1,68,118,82
1,69,118,4
1,68,118,2
1,66,110,50
1,66,101,20
1,66,118,1766
1,66,118,82
1,68,118,4
1,66,118,2
1,64,110,50
1,64,101,20
1,68,118,1766
1,68,118,82
1,69,118,4
1,68,118,2
1,66,110,50
1,66,101,20
1,66,118,1766
1,66,118,82
1,68,118,4
1,66,118,2
1,64,110,50
1,64,101,20
1,76,121,1766
1,76,116,122
1,76,121,22
1,78,118,26
1,75,118,386
1,73,89,50
1,75,112,28
1,73,94,18
1,71,68,8
1,71,121,1458
1,73,118,22
1,71,124,196
1,76,121,34
1,76,124,114
1,73,98,24
1,76,116,14
1,73,94,0
1,71,69,92
1,76,121,1546
1,76,116,122
1,76,121,22
1,78,118,26
1,75,118,386
1,73,89,50
1,75,112,28
1,73,94,18
1,71,68,8
1,71,121,1458
1,73,118,22
1,71,124,196
1,76,121,34
1,76,124,114
1,73,98,24
1,76,116,14
1,73,94,0
1,71,69,92
1,80,124,1158
1,78,118,10
1,76,116,0
1,78,118,78
1,75,118,186
1,73,89,50
1,75,112,28
1,73,94,18
1,71,68,8
1,71,121,1458
1,73,118,22
1,71,124,196
1,76,121,34
1,76,124,114
1,73,98,24
1,76,116,14
1,73,94,0
1,71,69,92
1,76,113,1158
1,76,119,104
1,76,121,106
1,76,116,106
1,78,118,112
1,75,118,386
1,73,89,50
1,75,112,28
1,73,94,18
1,71,68,8
1,80,121,1268
1,78,118,212
1,76,124,196
1,76,121,34
1,76,124,114
1,73,98,24
1,76,116,14
1,73,94,0
1,71,69,92
1,76,113,1158
1,76,119,104
1,76,121,106
1,76,116,106
1,78,118,112
1,75,118,386
1,73,89,50
1,75,112,28
1,73,94,18
1,71,68,8
1,80,121,1268
1,78,118,212
1,76,124,196
1,76,121,34
1,76,124,114
1,73,98,24
1,76,116,14
1,73,94,0
1,71,69,92
1,68,116,970
1,71,114,10
1,73,116,70
1,76,121,16
1,76,116,62
1,76,116,18
1,78,118,20
1,75,118,386
1,73,89,50
1,75,112,28
1,73,94,18
1,71,68,8
1,71,107,1076
1,73,121,64
1,71,111,76
1,71,98,54
1,76,124,94
1,76,124,36
1,73,98,24
1,76,116,14
1,73,94,0
1,71,69,92
2,35,91,44544
2,35,97,82
2,35,91,64
2,35,94,56
2,35,94,116
2,33,94,20
2,33,86,54
2,35,88,44
2,40,88,14
2,40,91,46
2,32,91,42
2,33,91,22
2,35,94,10
2,35,91,68
2,35,86,92
2,42,82,16
2,35,91,10
2,35,91,84
2,42,84,70
2,35,88,26
2,40,88,32
2,40,91,82
2,35,91,32
2,40,88,40
2,40,94,128
2,40,88,38
2,39,94,30
2,37,88,22
2,37,88,44
2,32,88,54
2,37,84,80
2,37,91,50
2,32,86,48
2,30,88,66
2,30,91,62
2,30,88,58
2,35,91,36
2,33,91,74
2,32,84,56
2,30,86,60
2,28,88,66
2,35,97,18
2,40,94,46
2,40,91,62
2,40,86,52
2,33,91,64
2,33,97,38
2,35,91,50
2,40,91,44
2,40,91,48
2,35,86,22
2,37,88,192
2,40,91,24
2,40,88,36
2,35,91,42
2,40,88,42
2,40,88,56
2,35,88,60
2,33,91,60
2,33,97,64
2,35,91,52
2,40,94,50
2,40,91,44
2,35,94,64
2,40,94,60
2,40,88,58
2,32,91,52
2,33,91,18
2,35,91,28
2,35,88,56
2,30,91,58
2,35,91,50
2,35,91,52
2,30,91,576
2,35,82,18
2,40,88,14
2,40,88,46
2,35,84,44
2,40,88,54
2,40,88,60
2,35,88,22
2,37,91,12
2,35,91,18
2,40,94,26
2,40,94,26
2,33,94,46
2,33,91,46
2,35,91,68
2,40,91,34
2,40,91,40
2,35,88,50
2,40,88,48
2,40,86,50
2,42,84,20
2,44,88,10
2,47,88,14
2,49,88,14
2,49,86,18
2,47,86,2
2,40,91,42
2,40,94,44
2,33,97,44
2,33,97,26
2,40,88,46
2,40,91,44
2,49,88,42
2,47,86,10
2,40,88,24
2,47,91,24
2,40,88,24
2,44,94,58
2,47,86,2
2,35,91,38
2,35,94,50
2,35,94,48
2,35,94,64
2,35,97,34
2,33,94,54
2,33,91,38
2,33,94,8
2,33,91,48
2,40,91,50
2,40,91,50
2,35,84,24
2,32,91,18
2,33,88,20
2,35,94,26
2,35,91,68
2,35,86,92
2,42,82,16
2,35,91,10
2,35,91,84
2,35,88,70
2,42,84,32
2,35,88,26
2,40,88,32
2,40,91,82
2,35,91,32
2,40,88,40
2,40,94,128
2,40,88,38
2,39,94,30
2,37,88,22
2,37,88,44
2,32,88,54
2,37,84,80
2,37,91,50
2,32,86,48
2,30,88,66
2,30,91,62
2,30,88,58
2,35,91,36
2,33,91,74
2,32,84,56
2,30,86,60
2,28,88,66
2,35,97,18
2,40,86,46
2,40,88,54
2,35,88,68
2,33,88,62
2,33,91,54
2,35,94,46
2,40,91,54
2,40,91,52
2,37,88,44
2,35,86,28
2,40,88,38
2,40,94,38
2,35,88,34
2,37,91,12
2,40,88,20
2,40,88,58
2,35,91,48
2,33,91,56
2,33,91,42
2,35,88,60
2,40,86,34
2,40,94,60
2,35,91,26
2,40,88,60
2,40,91,52
2,32,88,48
2,33,91,8
2,35,91,22
2,35,88,56
2,35,94,64
2,35,91,58
2,42,94,48
2,35,88,24
2,40,88,40
2,40,94,44
2,35,82,50
2,40,94,58
2,40,91,32
2,40,88,58
2,42,75,20
2,32,91,30
2,33,88,32
2,35,94,10
2,35,88,52
2,30,88,42
2,35,88,38
2,35,91,58
2,42,88,48
2,35,86,18
2,40,91,20
2,40,91,48
2,35,82,48
2,40,91,48
2,40,91,58
2,32,91,40
2,33,94,26
2,35,94,32
2,35,94,48
2,42,88,40
2,47,97,34
2,47,94,56
2,42,94,28
2,35,84,22
2,40,94,30
2,40,94,58
2,35,86,56
2,40,91,42
2,40,91,42
2,32,88,38
2,33,88,20
2,35,94,28
2,35,94,46
2,42,91,32
2,47,91,44
2,47,88,46
2,42,91,42
2,35,88,30
2,40,94,40
2,40,94,60
2,35,88,44
2,37,88,24
2,40,88,36
2,40,88,50
2,40,94,54
2,42,84,28
2,35,91,38
2,35,94,56
2,35,88,38
2,35,94,68
2,35,88,48
2,35,86,48
2,42,91,26
2,35,88,32
2,40,94,46
2,40,88,24
2,35,86,52
2,37,88,34
2,40,88,40
2,49,88,32
2,47,88,8
2,49,77,22
2,47,94,16
2,44,94,18
2,35,94,26
2,35,94,48
2,32,86,60
2,35,91,54
2,35,91,56
2,37,94,58
2,35,91,20
2,40,94,30
2,40,91,64
2,35,88,54
2,37,86,32
2,40,88,38
2,40,94,22
2,40,88,28
2,42,91,24
2,40,94,22
2,42,94,18
2,35,97,28
2,35,94,44
2,42,94,42
2,47,94,34
2,47,94,52
2,42,91,44
2,35,94,32
2,40,91,40
2,40,88,50
2,35,91,46
2,40,88,60
2,40,94,56
2,32,88,38
2,33,91,34
2,34,91,42
2,35,91,46
2,35,94,60
2,42,91,62
2,47,94,38
2,47,91,50
2,42,94,46
2,35,88,34
2,40,86,30
2,40,91,54
2,35,88,40
2,37,91,38
2,40,88,40
2,40,91,54
2,40,91,50
2,42,79,38
2,35,97,34
2,35,97,58
2,44,91,32
2,47,88,40
2,49,73,30
2,47,94,34
2,47,91,26
2,35,91,34
2,37,86,22
2,40,91,24
2,40,91,56
2,35,84,54
2,40,91,64
2,40,91,24
2,32,82,58
2,33,91,30
3,40,121,1536
3,59,121,0
3,64,118,0
3,68,121,0
3,52,112,384
3,59,121,102
3,64,121,0
3,68,121,0
3,52,116,100
3,59,118,0
3,64,109,0
3,35,124,44
3,59,124,0
3,63,127,0
3,68,124,0
3,47,124,384
3,59,124,84
3,63,114,0
3,66,118,0
3,47,124,112
3,59,121,60
3,63,118,34
3,30,124,40
3,57,124,0
3,61,118,0
3,63,110,0
3,64,121,0
3,42,121,356
3,57,124,48
3,61,121,0
3,64,121,0
3,42,116,118
3,57,124,60
3,42,107,116
3,61,110,0
3,33,121,6
3,61,121,0
3,63,98,0
3,64,124,0
3,69,121,0
3,68,109,182
3,45,116,182
3,66,112,0
3,35,118,0
3,59,127,0
3,63,116,0
3,68,110,0
3,71,101,0
3,75,99,0
3,78,103,0
3,66,121,20
3,47,127,192
3,47,121,10
3,40,124,30
3,52,112,0
3,59,118,0
3,64,127,0
3,68,118,0
3,71,106,0
3,76,101,0
3,52,110,90
3,68,121,92
3,52,118,72
3,68,124,0
3,64,109,140
3,59,121,0
3,71,99,0
3,76,101,0
3,80,92,0
3,35,127,20
3,59,124,0
3,63,124,0
3,66,121,0
3,71,97,0
3,75,97,0
3,80,99,0
3,47,121,378
3,59,124,4
3,63,116,0
3,66,118,0
3,78,85,0
3,47,124,6
3,59,124,34
3,63,118,72
3,30,124,2
3,57,124,0
3,61,118,0
3,64,118,0
3,69,87,0
3,73,79,0
3,76,89,0
3,42,124,384
3,57,121,42
3,61,118,0
3,64,121,0
3,42,118,82
3,57,121,78
3,61,105,20
3,33,124,36
3,61,124,0
3,64,124,0
3,69,124,0
3,68,110,192
3,45,121,156
3,66,114,0
3,35,121,12
3,59,124,0
3,63,116,0
3,68,121,0
3,66,121,34
3,47,124,192
3,47,124,92
3,40,118,34
3,59,121,0
3,64,124,0
3,68,124,0
3,71,98,0
3,76,101,0
3,52,118,384
3,59,121,52
3,64,114,0
3,68,116,0
3,59,118,96
3,52,114,150
3,64,118,0
3,68,118,30
3,33,124,22
3,61,118,0
3,64,110,0
3,69,118,0
3,45,124,384
3,61,116,58
3,64,116,0
3,69,121,0
3,61,114,108
3,45,124,92
3,64,114,44
3,40,124,2
3,59,121,0
3,68,116,0
3,52,121,384
3,59,121,46
3,64,118,0
3,68,118,0
3,52,121,148
3,61,121,106
3,64,121,0
3,69,118,0
3,73,118,0
3,76,118,0
3,81,124,0
3,47,112,192
3,40,118,4
3,59,121,0
3,64,118,0
3,68,124,0
3,71,121,0
3,76,110,0
3,80,103,0
3,52,116,342
3,59,121,44
3,64,118,0
3,68,114,0
3,52,116,62
3,59,121,16
3,47,124,14
3,64,124,0
3,66,121,74
3,40,121,6
3,59,121,0
3,64,121,0
3,68,121,0
3,71,101,0
3,76,102,0
3,52,121,366
3,59,118,62
3,64,114,0
3,68,112,0
3,59,121,84
3,52,121,8
3,64,114,0
3,68,124,108
3,33,124,30
3,61,116,0
3,69,121,0
3,45,124,384
3,61,116,90
3,64,118,0
3,69,118,0
3,57,116,74
3,45,124,126
3,61,116,0
3,64,116,52
3,40,121,36
3,59,118,0
3,64,116,0
3,68,118,0
3,52,121,384
3,59,118,26
3,64,118,0
3,68,110,0
3,52,118,14
3,61,118,144
3,64,121,0
3,69,121,0
3,73,124,0
3,76,124,0
3,81,124,0
3,52,116,106
3,40,124,54
3,59,124,0
3,64,116,0
3,68,124,0
3,71,114,0
3,76,112,0
3,80,114,0
3,52,118,354
3,59,118,94
3,64,116,0
3,68,121,0
3,52,118,96
3,59,118,32
3,64,121,4
3,68,105,0
3,71,114,0
3,76,110,0
3,35,124,72
3,54,116,0
3,59,121,0
3,63,116,0
3,66,112,0
3,71,116,0
3,75,105,0
3,47,124,384
3,54,118,40
3,59,121,0
3,63,116,0
3,47,124,126
3,56,118,60
3,59,118,0
3,64,116,0
3,68,112,0
3,71,109,0
3,76,109,0
3,47,124,112
3,35,121,30
3,54,116,0
3,59,97,0
3,63,110,0
3,66,105,0
3,69,112,0
3,75,107,0
3,47,124,340
3,54,118,36
3,59,121,0
3,63,116,0
3,47,124,116
3,54,114,48
3,59,118,0
3,63,116,0
3,47,121,106
3,40,116,54
3,61,121,0
3,64,127,0
3,69,124,0
3,73,109,0
3,76,116,0
3,81,121,0
3,52,110,384
