track,note,velocity,time
0,47,90,192
0,59,82,0
0,59,99,0
0,59,82,0
0,47,99,12
0,59,65,0
0,59,90,0
0,59,88,0
0,40,86,12
0,64,78,0
0,64,80,0
0,64,92,0
0,68,70,0
0,68,72,0
0,64,65,14
0,64,68,0
0,64,100,0
0,68,76,0
0,68,78,0
0,40,70,20
0,64,68,0
0,64,74,0
0,64,98,0
0,68,72,0
0,68,80,0
0,40,84,14
0,64,67,0
0,64,78,0
0,64,103,0
0,68,76,0
0,68,84,0
0,28,76,4
0,62,70,0
0,62,84,0
0,62,92,0
0,66,68,0
0,66,74,0
0,40,84,4
0,64,64,0
0,64,70,0
0,64,103,0
0,68,70,0
0,68,70,0
0,33,88,2
0,61,80,0
0,61,82,0
0,69,51,0
0,69,68,0
0,69,96,0
0,64,69,192
0,76,82,0
0,28,86,10
0,69,81,0
0,81,72,0
0,33,78,18
0,76,82,0
0,88,76,0
0,81,84,2
0,93,68,0
0,71,93,2
0,71,84,0
0,71,84,14
0,71,80,0
0,35,90,36
0,66,44,0
0,71,65,0
0,71,59,0
0,71,82,0
0,75,82,0
0,75,47,0
0,75,82,0
0,71,68,6
0,75,72,0
0,78,93,0
0,78,76,0
0,35,105,16
0,71,82,0
0,75,82,0
0,75,67,0
0,35,93,4
0,66,64,0
0,69,74,0
0,69,75,0
0,69,70,0
0,75,84,0
0,75,54,0
0,75,78,0
0,59,65,4
0,66,56,0
0,69,76,0
0,35,80,4
0,63,76,0
0,69,63,0
0,71,65,0
0,75,65,0
0,40,84,4
0,59,50,0
0,64,63,0
0,64,67,0
0,68,72,0
0,68,46,0
0,68,74,0
0,76,50,0
0,35,80,384
0,83,55,0
0,40,74,4
0,88,55,0
0,59,94,4
0,59,102,18
0,59,102,36
0,40,72,26
0,40,84,0
0,40,86,0
0,56,46,0
0,64,44,0
0,68,92,0
0,59,50,2
0,68,67,2
0,52,70,92
0,59,68,0
0,68,98,4
0,64,67,2
0,64,61,0
0,68,94,0
0,59,72,6
0,68,65,0
0,59,50,14
0,64,67,0
0,68,100,0
0,68,72,2
0,40,82,20
0,59,63,0
0,40,80,38
0,59,55,0
0,64,70,0
0,68,113,0
0,68,82,2
0,68,82,0
0,52,55,28
0,52,55,0
0,28,82,6
0,54,46,0
0,62,36,0
0,63,88,0
0,63,76,0
0,66,98,0
0,66,54,2
0,66,76,0
0,52,55,64
0,52,67,0
0,56,64,4
0,59,67,0
0,64,65,0
0,64,34,0
0,68,106,0
0,68,63,2
0,68,90,0
0,64,72,30
0,64,68,0
0,35,93,4
0,47,82,0
0,47,93,0
0,59,48,0
0,63,45,0
0,70,113,0
0,71,106,4
0,54,63,76
0,54,64,0
0,59,72,96
0,63,60,0
0,69,96,0
0,59,60,96
0,63,84,0
0,59,60,48
0,63,72,0
0,54,82,76
0,59,67,0
0,35,68,6
0,47,72,0
0,47,88,0
0,54,60,20
0,54,63,0
0,59,63,10
0,63,65,0
0,59,63,40
0,63,84,0
0,59,64,54
0,63,72,0
0,59,110,2
0,54,61,26
0,59,72,0
0,59,116,0
0,47,82,2
0,47,96,0
0,59,54,0
0,63,63,0
0,68,102,2
0,69,100,4
0,54,61,56
0,54,60,0
0,59,68,2
0,59,54,0
0,69,100,14
0,63,68,82
0,63,86,0
0,35,63,18
0,59,61,0
0,66,54,0
0,69,96,0
0,54,74,32
0,63,67,0
0,69,96,16
0,57,72,6
0,63,72,0
0,63,76,2
0,69,68,0
0,47,72,52
0,47,86,0
0,54,61,2
0,56,82,8
0,56,82,0
0,64,80,0
0,64,64,0
0,59,80,2
0,68,82,0
0,68,102,4
0,47,70,78
0,47,82,0
0,54,70,2
0,69,98,2
0,57,90,2
0,59,63,0
0,63,68,0
0,63,80,0
0,63,90,2
0,69,76,0
0,47,72,34
0,54,68,2
0,40,96,4
0,40,74,0
0,61,60,0
0,69,72,0
0,69,56,0
0,73,74,2
0,73,113,6
0,52,68,88
0,52,68,0
0,70,102,0
0,56,67,4
0,59,52,0
0,64,42,0
0,68,80,0
0,68,35,0
0,71,54,2
0,71,102,4
0,64,72,82
0,59,63,2
0,64,23,0
0,56,63,44
0,68,80,0
0,40,96,20
0,40,84,0
0,64,60,0
0,52,67,28
0,59,64,0
0,56,61,2
0,68,82,0
0,64,67,12
0,64,82,0
0,59,70,2
0,59,58,0
0,59,108,30
0,52,47,12
0,56,86,0
0,40,72,12
0,40,84,0
0,40,86,0
0,56,57,0
0,59,63,0
0,64,72,0
0,59,50,2
0,68,67,2
0,68,102,6
0,52,70,40
0,59,68,0
0,68,96,4
0,64,67,2
0,64,61,0
0,59,72,6
0,68,65,0
0,59,50,14
0,64,67,0
0,68,72,2
0,70,106,14
0,40,82,6
0,59,63,0
0,71,106,2
0,40,88,10
0,40,80,0
0,40,93,0
0,56,84,0
0,64,78,0
0,68,102,0
0,59,67,2
0,64,84,0
0,68,76,2
0,56,68,28
0,64,63,0
0,66,96,2
0,28,82,2
0,54,74,0
0,59,58,0
0,59,84,0
0,63,78,0
0,63,74,2
0,63,96,0
0,66,67,2
0,52,88,92
0,52,80,0
0,56,74,4
0,56,86,0
0,59,57,0
0,64,88,0
0,64,84,2
0,64,86,0
0,68,82,2
0,68,92,4
0,52,80,34
0,59,74,0
0,70,100,0
0,35,93,4
0,47,80,0
0,47,93,0
0,59,61,0
0,68,78,0
0,70,113,6
0,71,102,4
0,54,57,78
0,54,64,0
0,59,68,16
0,59,72,0
0,71,110,2
0,54,72,88
0,63,84,0
0,57,82,2
0,59,60,0
0,63,65,0
0,66,80,0
0,69,116,4
0,54,68,2
0,54,82,0
0,35,68,4
0,47,68,0
0,47,88,0
0,54,61,0
0,63,78,0
0,66,88,0
0,54,51,52
0,54,63,0
0,59,56,74
0,59,63,0
0,54,57,88
0,63,84,0
0,59,64,8
0,63,64,0
0,59,113,12
0,54,64,4
0,54,61,0
0,47,78,2
0,47,96,0
0,57,70,0
0,66,68,0
0,68,110,0
0,69,102,4
0,54,74,12
0,54,60,0
0,69,110,10
0,59,70,2
0,59,54,0
0,63,78,96
0,63,86,0
0,35,63,86
0,59,72,0
0,59,61,0
0,68,110,2
0,54,64,6
0,54,74,0
0,69,98,4
0,68,113,28
0,47,80,2
0,57,82,0
0,69,92,0
0,66,76,2
0,66,86,0
0,47,60,2
0,57,56,0
0,68,110,0
0,56,78,8
0,56,90,0
0,56,64,0
0,64,78,0
0,64,74,2
0,64,84,0
0,47,63,22
0,57,80,4
0,57,68,0
0,57,84,0
0,66,82,0
0,66,78,2
0,66,86,0
0,69,110,0
0,40,78,4
0,40,96,0
0,40,56,0
0,40,74,0
0,61,67,0
0,69,78,0
0,73,113,0
0,52,68,96
0,59,54,0
0,72,75,4
0,56,67,18
0,64,76,0
0,73,104,2
0,59,56,78
0,64,72,0
0,56,52,2
0,59,80,0
0,59,63,0
0,68,74,0
0,71,102,8
0,56,63,70
0,59,67,0
0,40,84,4
0,40,96,0
0,40,84,0
0,56,86,0
0,64,57,0
0,68,94,0
0,52,67,96
0,56,49,0
0,56,61,2
0,59,74,0
0,56,63,74
0,64,82,0
0,59,78,38
0,59,100,0
0,59,58,0
0,64,84,0
0,71,88,0
0,56,86,10
0,59,80,0
0,59,102,0
0,71,80,0
0,40,86,14
0,52,72,0
0,59,76,0
0,64,78,0
0,64,92,0
0,64,80,0
0,64,92,0
0,68,70,0
0,68,72,0
0,76,56,0
0,80,54,0
0,59,60,2
0,68,98,0
0,68,68,2
0,59,60,38
0,64,68,18
0,59,82,14
0,64,65,0
0,64,77,0
0,64,68,0
0,64,100,0
0,68,84,0
0,68,76,0
0,68,78,0
0,68,100,4
0,68,104,16
0,40,70,4
0,59,85,0
0,64,68,0
0,64,68,0
0,64,99,0
0,64,74,0
0,64,98,0
0,68,72,0
0,68,80,0
0,59,74,90
0,68,113,4
0,40,84,8
0,59,72,0
0,64,86,0
0,64,67,0
0,64,82,0
0,64,78,0
0,64,103,0
0,68,76,0
0,68,84,0
0,68,72,2
0,52,53,94
0,69,84,44
0,66,104,2
0,28,76,14
0,59,77,0
0,62,78,0
0,62,70,0
0,62,84,0
0,62,84,0
0,62,92,0
0,66,68,0
0,66,74,0
0,74,66,0
0,78,56,0
0,66,72,2
0,52,68,66
0,68,102,2
0,40,84,1
0,59,72,0
0,62,84,0
0,64,84,0
0,64,64,0
0,64,70,0
0,64,103,0
0,68,70,0
0,68,70,0
0,76,47,0
0,80,57,0
0,68,76,2
0,52,64,40
0,33,88,2
0,57,63,0
0,57,82,0
0,61,80,0
0,61,75,0
0,61,82,0
0,69,51,0
0,69,68,0
0,69,96,0
0,73,66,0
0,81,48,0
0,69,100,1
0,61,50,85
0,64,68,96
0,69,74,96
0,28,86,10
0,64,64,0
0,76,39,0
0,61,70,70
0,69,74,8
0,73,70,10
0,33,78,2
0,76,70,0
0,81,76,16
0,71,104,48
0,59,99,2
0,71,93,0
0,71,84,0
0,59,88,12
0,71,84,0
0,71,80,0
0,71,102,0
0,35,90,10
0,47,78,0
0,63,105,0
0,71,65,0
0,71,82,0
0,71,104,0
0,75,82,0
0,75,82,0
0,78,43,0
0,83,66,0
0,87,68,0
0,54,50,84
0,59,50,96
0,63,80,6
0,66,96,0
0,71,68,0
0,75,72,0
0,75,113,0
0,78,93,0
0,78,38,0
0,78,76,0
0,90,73,0
0,35,105,2
0,59,58,0
0,63,82,0
0,71,82,0
0,75,82,0
0,75,67,0
0,87,70,0
0,71,106,4
0,54,78,90
0,69,106,10
0,35,93,4
0,47,72,0
0,66,105,0
0,69,74,0
0,75,84,0
0,69,70,0
0,75,63,0
0,75,78,0
0,78,44,0
0,81,71,0
0,54,72,72
0,59,110,2
0,57,55,4
0,59,65,0
0,59,92,0
0,66,56,0
0,69,76,0
0,71,66,0
0,78,60,0
0,63,78,2
0,35,80,4
0,57,63,0
0,57,85,0
0,63,76,0
0,69,63,0
0,71,65,0
0,66,84,0
0,75,64,0
0,75,65,0
0,78,59,0
0,81,66,0
0,66,94,4
0,54,52,84
0,64,102,2
0,40,84,2
0,52,57,0
0,56,86,0
0,59,50,0
0,64,63,0
0,64,85,0
0,64,57,0
0,64,67,0
0,68,72,0
0,68,68,0
0,68,74,0
0,76,82,0
0,56,48,78
0,64,70,96
0,56,60,74
0,35,80,10
0,59,68,0
0,83,45,0
0,56,42,12
0,40,74,8
0,52,56,0
0,44,84,2
0,71,60,0
0,59,102,2
0,44,97,14
0,71,78,0
0,59,102,2
0,35,92,2
0,40,72,0
0,40,84,0
0,40,86,0
0,42,79,0
0,56,46,0
0,64,44,0
0,68,60,0
0,68,96,0
0,76,58,0
0,59,50,2
0,68,67,2
0,42,69,70
0,52,70,0
0,59,68,0
0,37,84,2
0,42,90,0
0,64,67,0
0,64,61,0
0,68,70,0
0,68,100,0
0,76,68,0
0,42,62,6
0,59,72,0
0,68,65,0
0,42,84,14
0,54,101,0
0,59,50,0
0,64,67,0
0,68,78,0
0,68,100,0
0,76,63,0
0,68,72,2
0,35,86,20
0,40,82,0
0,42,77,0
0,59,63,0
0,35,88,4
0,40,80,0
0,40,84,0
0,42,90,0
0,52,84,0
0,68,57,0
0,68,98,0
0,76,58,0
0,80,76,0
0,64,72,2
0,68,76,2
0,42,71,28
0,52,60,0
0,64,82,0
0,28,82,8
0,37,93,0
0,42,82,0
0,54,46,0
0,62,36,0
0,62,56,0
0,63,80,0
0,66,58,0
0,66,92,0
0,75,82,0
0,78,93,0
0,66,90,2
0,66,51,0
0,42,66,48
0,52,64,0
0,52,74,0
0,42,84,4
0,56,64,0
0,64,84,0
0,64,34,0
0,64,55,0
0,68,55,0
0,68,98,0
0,76,58,0
0,80,65,0
0,68,84,2
0,68,57,0
0,42,84,46
0,52,72,0
0,35,93,2
0,35,92,0
0,42,79,0
0,47,80,0
0,47,93,0
0,70,113,0
0,71,58,0
0,80,63,0
0,71,106,10
0,42,69,70
0,54,57,0
0,54,64,0
0,37,84,20
0,42,90,0
0,59,68,0
0,59,72,0
0,69,48,0
0,69,96,0
0,78,61,0
0,42,62,90
0,54,72,0
0,59,60,0
0,63,84,0
0,66,73,0
0,71,73,0
0,42,84,4
0,54,101,0
0,59,60,0
0,63,65,0
0,63,78,0
0,75,88,0
0,35,86,2
0,42,77,0
0,54,68,0
0,54,82,0
0,66,70,0
0,75,73,0
0,78,88,0
0,35,68,4
0,35,88,0
0,42,90,0
0,47,68,0
0,47,88,0
0,59,53,0
0,71,64,0
0,71,66,0
0,71,84,0
0,75,75,0
0,80,63,0
0,83,88,0
0,54,51,20
0,42,71,0
0,54,63,0
0,37,93,4
0,42,82,0
0,57,55,0
0,59,56,0
0,59,63,0
0,69,63,0
0,69,64,0
0,78,60,0
0,78,64,0
0,81,82,0
0,42,66,40
0,54,57,0
0,63,84,0
0,42,84,2
0,59,64,0
0,63,64,0
0,71,86,0
0,59,110,2
0,42,84,22
0,54,64,0
0,54,61,0
0,59,116,0
0,71,86,0
0,35,92,2
0,42,79,0
0,47,82,0
0,47,96,0
0,78,58,0
0,81,68,0
0,68,102,2
0,69,100,4
0,42,69,56
0,54,61,0
0,54,60,0
0,37,84,2
0,42,90,0
0,59,68,0
0,59,54,0
0,78,67,0
0,81,78,0
0,69,100,10
0,42,62,82
0,63,68,0
0,63,86,0
0,35,63,18
0,42,84,0
0,54,101,0
0,59,61,0
0,66,54,0
0,69,96,0
0,78,61,0
0,81,68,0
0,35,86,32
0,42,77,0
0,54,74,0
0,63,67,0
0,69,96,16
0,35,88,2
0,42,90,0
0,47,78,0
0,47,90,0
0,78,68,0
0,81,68,0
0,57,76,2
0,66,99,0
0,66,80,2
0,42,71,52
0,57,67,0
0,37,93,14
0,42,82,0
0,56,72,0
0,56,78,0
0,76,68,0
0,80,61,0
0,64,84,2
0,64,82,0
0,68,102,2
0,42,66,56
0,47,63,0
0,47,82,0
0,69,98,8
0,42,84,2
0,57,90,0
0,57,86,0
0,78,70,0
0,81,84,0
0,66,86,2
0,66,78,0
0,42,84,92
0,35,92,26
0,40,82,0
0,40,96,0
0,40,74,0
0,42,79,0
0,73,70,0
0,81,63,0
0,61,67,2
0,69,82,2
0,73,113,4
0,42,69,88
0,52,48,0
0,52,68,0
0,70,102,2
0,37,84,4
0,42,90,0
0,56,67,0
0,59,48,0
0,71,68,0
0,80,64,0
0,68,67,2
0,71,102,4
0,42,62,82
0,64,61,0
0,64,72,0
0,71,86,0
0,71,61,0
0,42,84,2
0,54,101,0
0,59,70,0
0,59,63,0
0,76,86,0
0,76,82,0
0,35,86,62
0,42,77,0
0,56,63,0
0,64,65,0
0,80,84,0
0,80,70,0
0,35,88,2
0,40,76,0
0,40,96,0
0,40,84,0
0,42,90,0
0,71,61,0
0,73,82,0
0,81,88,0
0,81,61,0
0,85,59,0
0,42,71,92
0,52,48,0
0,52,67,0
0,37,93,2
0,42,82,0
0,56,61,0
0,59,42,0
0,71,64,0
0,80,73,0
0,80,80,0
0,83,67,0
0,42,66,47
0,64,82,0
0,68,65,0
0,42,84,88
0,59,58,0
0,64,70,0
0,42,84,90
0,56,86,0
0,59,64,0
0,59,104,0
0,35,92,18
0,40,72,0
0,40,84,0
0,40,86,0
0,42,79,0
0,56,60,0
0,64,68,0
0,76,60,0
0,80,82,0
0,59,50,2
0,68,67,2
0,68,102,6
0,42,69,40
0,52,70,0
0,59,68,0
0,68,96,4
0,37,84,2
0,42,90,0
0,64,67,0
0,64,61,0
0,76,61,0
0,80,65,0
0,42,62,6
0,59,72,0
0,68,65,0
0,42,84,14
0,54,101,0
0,59,50,0
0,64,67,0
0,76,74,0
0,80,84,0
0,68,72,2
0,70,106,14
0,35,86,6
0,40,82,0
0,42,77,0
0,59,63,0
0,71,106,2
0,35,88,6
0,40,88,0
0,40,80,0
0,40,93,0
0,42,90,0
0,56,68,0
0,64,78,0
0,68,102,0
0,76,64,0
0,80,80,0
0,59,67,2
0,64,84,0
0,68,76,2
0,42,71,28
