track,note,velocity,time
1,64,105,15356
1,61,105,8
1,64,105,568
1,66,105,0
1,69,105,584
1,66,105,0
1,64,105,20
1,61,105,24
1,59,105,1740
1,59,105,144
1,61,105,592
1,62,105,20
1,64,105,40
1,66,105,8
1,64,105,404
1,64,105,1780
1,64,105,104
1,61,105,12
1,64,105,560
1,66,105,20
1,69,105,0
1,66,105,20
1,64,105,64
1,69,105,8
1,64,105,1848
1,64,105,104
1,69,105,564
1,66,105,12
1,68,105,8
1,69,105,452
1,71,105,20
1,69,105,20
1,73,105,780
1,73,105,96
1,73,105,88
1,71,105,288
1,73,105,28
1,74,105,12
1,74,105,132
1,74,105,36
1,74,105,716
1,74,105,84
1,74,105,76
1,74,105,92
1,73,105,20
1,71,105,8
1,73,105,28
1,73,105,104
1,73,105,56
1,69,105,828
1,69,105,148
1,68,105,48
1,69,105,40
1,71,105,20
1,71,105,140
1,71,105,88
1,71,105,84
1,71,105,68
1,69,105,48
1,68,105,20
1,68,105,92
1,68,105,76
1,68,105,76
1,68,105,88
1,68,105,76
1,66,105,16
1,64,105,32
1,73,105,16
1,73,105,48
1,73,105,800
1,73,105,84
1,71,105,8
1,73,105,396
1,74,105,8
1,74,105,124
1,74,105,76
1,74,105,844
1,74,105,84
1,74,105,104
1,74,105,96
1,73,105,48
1,71,105,84
1,73,105,160
1,73,105,124
1,73,105,84
1,73,105,192
1,71,105,28
1,69,105,8
1,64,105,164
1,64,105,88
1,66,105,60
1,64,105,28
1,71,105,76
1,71,105,672
1,71,105,120
1,71,105,76
1,74,105,20
1,73,105,36
1,71,105,120
1,69,105,188
1,64,105,2400
1,61,105,152
1,64,105,364
1,64,105,104
1,64,105,76
1,66,105,44
1,69,105,132
1,66,105,8
1,64,105,20
1,61,105,8
1,61,105,1420
1,59,105,16
1,59,105,120
1,61,105,576
1,62,105,352
1,64,105,20
1,66,105,0
1,64,105,384
1,64,105,1520
1,64,105,104
1,64,105,84
1,64,105,92
1,61,105,12
1,64,105,564
1,66,105,16
1,69,105,8
1,66,105,28
1,64,105,20
1,69,105,0
1,64,105,1752
1,64,105,84
1,69,105,576
1,66,105,20
1,68,105,372
1,69,105,380
1,71,105,0
1,71,105,60
1,69,105,0
1,73,105,752
1,73,105,124
1,73,105,112
1,71,105,308
1,73,105,8
1,74,105,12
1,74,105,208
1,74,105,64
1,74,105,764
1,74,105,76
1,74,105,72
1,74,105,96
1,73,105,28
1,71,105,184
1,73,105,36
1,73,105,124
1,73,105,84
1,69,105,808
1,69,105,156
1,68,105,40
1,69,105,380
1,71,105,16
1,71,105,124
1,71,105,104
1,71,105,104
1,71,105,84
1,69,105,48
1,68,105,84
1,68,105,92
1,68,105,104
1,68,105,84
1,68,105,76
1,68,105,92
1,66,105,44
1,64,105,152
1,73,105,40
1,73,105,96
1,73,105,772
1,73,105,108
1,71,105,4
1,73,105,396
1,74,105,124
1,74,105,144
1,74,105,76
1,74,105,868
1,74,105,116
1,74,105,96
1,74,105,104
1,73,105,60
1,71,105,36
1,73,105,136
1,73,105,124
1,73,105,100
1,73,105,124
1,71,105,8
1,69,105,0
1,64,105,236
1,64,105,88
1,66,105,52
1,64,105,20
1,71,105,60
1,71,105,1052
1,71,105,124
1,71,105,104
1,74,105,28
1,73,105,68
1,71,105,76
1,69,105,16
1,73,105,1256
1,73,105,144
1,71,105,20
1,73,105,12
1,74,105,76
1,74,105,152
1,74,105,60
1,74,105,792
1,74,105,88
1,74,105,76
1,74,105,84
1,73,105,32
1,71,105,184
1,73,105,28
1,73,105,120
1,73,105,64
1,69,105,916
1,69,105,144
1,68,105,28
1,69,105,384
1,71,105,28
1,71,105,248
1,71,105,84
1,71,105,100
1,71,105,72
1,69,105,20
1,68,105,68
1,68,105,76
1,68,105,76
1,68,105,96
1,68,105,84
1,68,105,76
1,66,105,20
1,64,105,16
1,73,105,28
1,73,105,56
1,73,105,768
1,73,105,140
1,71,105,32
1,73,105,12
1,74,105,356
1,74,105,140
1,74,105,68
1,74,105,892
1,74,105,76
1,74,105,96
1,74,105,96
1,73,105,172
1,71,105,8
1,73,105,64
1,73,105,124
1,73,105,88
1,73,105,136
1,71,105,12
1,69,105,176
1,64,105,188
1,64,105,84
1,66,105,16
1,64,105,8
1,71,105,36
1,71,105,1028
1,71,105,132
1,71,105,84
1,74,105,184
1,73,105,28
1,71,105,20
1,69,105,184
1,73,105,13264
1,73,105,164
1,71,105,24
1,73,105,12
1,74,105,8
1,74,105,200
1,74,105,56
1,74,105,808
1,74,105,84
1,74,105,84
1,74,105,92
1,73,105,40
1,71,105,8
1,73,105,24
1,73,105,132
1,73,105,56
1,69,105,868
1,69,105,152
1,68,105,40
1,69,105,32
1,71,105,16
1,71,105,336
1,71,105,84
1,71,105,88
1,71,105,56
1,69,105,28
1,68,105,36
1,68,105,200
1,68,105,96
1,69,105,76
1,68,105,88
1,68,105,88
1,66,105,56
1,64,105,152
1,73,105,8
1,73,105,88
1,73,105,904
1,73,105,144
1,71,105,16
1,73,105,376
1,74,105,0
1,74,105,104
1,74,105,76
1,74,105,892
1,74,105,104
1,74,105,88
1,74,105,92
1,73,105,36
1,71,105,8
1,73,105,20
1,73,105,188
1,73,105,108
1,73,105,156
1,71,105,28
1,69,105,68
1,64,105,476
1,64,105,76
1,66,105,64
1,64,105,48
1,71,105,56
1,71,105,1088
1,71,105,144
1,71,105,96
1,74,105,28
1,73,105,48
1,71,105,68
1,69,105,48
2,1,1,0
2,62,86,3076
2,54,86,0
2,57,86,0
2,61,86,116
2,52,86,0
2,57,86,0
2,62,86,88
2,54,86,0
2,59,86,0
2,56,86,116
2,64,86,4
2,59,86,0
2,61,86,156
2,52,86,4
2,57,86,0
2,62,86,36
2,57,86,4
2,54,86,0
2,61,86,116
2,52,86,4
2,57,86,0
2,52,86,112
2,56,86,4
2,59,86,0
2,61,86,112
2,57,86,0
2,52,86,4
2,57,86,92
2,52,86,0
2,61,86,4
2,57,86,12
2,62,86,0
2,54,86,4
2,61,86,104
2,57,86,0
2,52,86,4
2,52,86,124
2,57,86,0
2,61,86,4
2,52,86,68
2,56,86,0
2,59,86,4
2,57,86,56
2,61,86,0
2,52,86,4
2,57,86,696
2,62,86,0
2,54,86,0
2,61,86,144
2,57,86,0
2,52,86,0
2,56,86,164
2,59,86,0
2,64,86,0
2,57,86,144
2,61,86,0
2,52,86,0
2,57,86,124
2,54,86,0
2,62,86,0
2,61,86,104
2,57,86,0
2,52,86,0
2,56,86,72
2,59,86,0
2,64,86,0
2,61,86,116
2,52,86,0
2,57,86,0
2,61,86,104
2,57,86,0
2,52,86,0
2,62,86,20
2,57,86,0
2,54,86,0
2,61,86,124
2,57,86,0
2,52,86,0
2,64,86,140
2,56,86,0
2,59,86,0
2,52,86,88
2,57,86,0
2,61,86,0
2,61,86,128
2,52,86,0
2,57,86,0
2,57,86,36
2,54,86,0
2,62,86,0
2,52,86,108
2,57,86,0
2,61,86,0
2,61,86,112
2,52,86,0
2,57,86,0
2,59,86,44
2,56,86,0
2,52,86,0
2,57,86,76
2,52,86,0
2,61,86,0
2,62,86,364
2,57,86,0
2,54,86,0
2,54,86,356
2,61,86,64
2,57,86,0
2,52,86,0
2,59,86,196
2,52,86,0
2,56,86,0
2,61,86,120
2,52,86,0
2,57,86,0
2,54,86,112
2,57,86,0
2,62,86,0
2,52,86,124
2,57,86,0
2,61,86,0
2,64,86,192
2,56,86,0
2,59,86,0
2,61,86,136
2,57,86,0
2,52,86,0
2,62,86,92
2,57,86,0
2,54,86,0
2,61,86,116
2,57,86,0
2,52,86,0
2,64,86,120
2,59,86,0
2,56,86,0
2,52,86,76
2,57,86,0
2,61,86,0
2,62,86,172
2,57,86,0
2,54,86,0
2,61,86,60
2,57,86,0
2,52,86,0
2,64,86,240
2,59,86,0
2,56,86,0
2,61,86,144
2,57,86,0
2,52,86,0
2,57,86,148
2,54,86,0
2,62,86,0
2,61,86,168
2,52,86,0
2,57,86,0
2,54,86,96
2,62,86,0
2,59,86,0
2,59,86,152
2,56,86,0
2,64,86,0
2,54,86,324
2,57,86,0
2,62,86,0
2,52,86,144
2,61,86,0
2,57,86,0
2,59,86,152
2,56,86,0
2,64,86,0
2,52,86,132
2,61,86,0
2,57,86,0
2,57,86,152
2,54,86,0
2,62,86,0
2,57,86,128
2,61,86,0
2,52,86,0
2,64,86,104
2,56,86,0
2,59,86,0
2,52,86,140
2,61,86,0
2,57,86,0
2,57,86,192
2,52,86,0
2,61,86,0
3,1,1,0
3,69,107,18440
3,69,107,160
3,69,107,164
3,64,107,144
3,66,107,4
3,69,107,76
3,66,107,48
3,64,107,96
3,69,107,24
3,69,107,152
3,69,107,176
3,64,107,140
3,66,107,48
3,69,107,88
3,66,107,48
3,64,107,28
3,69,107,3104
3,69,107,160
3,69,107,156
3,64,107,148
3,66,107,36
3,69,107,92
3,66,107,64
3,64,107,28
3,69,107,40
3,69,107,176
3,69,107,192
3,64,107,176
3,66,107,44
3,69,107,104
3,66,107,64
3,64,107,8
3,69,107,12
3,69,107,2964
3,69,107,184
3,69,107,176
3,64,107,172
3,66,107,36
3,69,107,120
3,66,107,56
3,64,107,4
3,69,107,8
3,69,107,180
3,69,107,196
3,64,107,164
3,66,107,44
3,69,107,104
3,66,107,64
3,64,107,12
3,69,107,28
3,69,107,2956
3,69,107,144
3,69,107,152
3,64,107,152
3,66,107,36
3,69,107,92
3,66,107,44
3,64,107,0
3,69,107,24
3,62,107,1412
3,62,107,164
3,62,107,1152
3,62,107,208
3,69,107,1168
3,69,107,192
3,69,107,1144
3,69,107,212
3,64,107,1176
3,64,107,216
3,64,107,1196
3,64,107,216
3,64,107,1172
3,69,107,4
3,64,107,204
3,69,107,0
3,64,107,1172
3,69,107,0
3,64,107,212
3,69,107,0
3,64,107,488
3,66,107,44
3,69,107,132
3,66,107,96
3,62,107,128
3,62,107,216
3,62,107,1172
3,62,107,212
3,62,107,484
3,64,107,20
3,66,107,140
3,64,107,116
3,69,107,132
3,64,107,4
3,64,107,204
3,69,107,0
3,64,107,1180
3,69,107,0
3,69,107,212
3,64,107,0
3,64,107,500
3,66,107,40
3,69,107,124
3,66,107,72
3,64,107,116
3,64,107,196
3,64,107,1168
3,64,107,204
3,64,107,496
3,66,107,40
3,69,107,140
3,66,107,100
3,64,107,132
3,69,107,0
3,64,107,208
3,69,107,4
3,64,107,504
3,66,107,44
3,69,107,128
3,66,107,104
3,64,107,132
3,69,107,0
3,64,107,208
3,69,107,4
3,64,107,516
3,66,107,40
3,69,107,120
3,66,107,80
3,69,107,108
3,69,107,2980
3,69,107,140
3,69,107,160
3,64,107,136
3,66,107,100
3,69,107,92
3,66,107,32
3,64,107,4
3,69,107,0
3,69,107,160
3,69,107,156
3,64,107,164
3,66,107,36
3,69,107,96
3,66,107,44
3,64,107,12
3,69,107,3100
3,69,107,172
3,69,107,176
3,64,107,144
3,66,107,36
3,69,107,72
3,66,107,44
3,64,107,24
3,69,107,24
3,69,107,172
3,69,107,176
3,64,107,164
3,66,107,32
3,69,107,112
3,66,107,72
3,64,107,20
3,69,107,4
3,69,107,2928
3,69,107,224
3,69,107,204
3,64,107,188
3,66,107,44
3,69,107,96
3,66,107,72
3,64,107,16
3,69,107,20
3,69,107,172
3,69,107,184
3,64,107,160
3,66,107,44
3,69,107,120
3,66,107,88
3,64,107,16
3,69,107,16
3,69,107,2996
3,69,107,144
3,69,107,160
3,64,107,136
3,66,107,36
3,69,107,108
3,66,107,56
3,64,107,12
3,69,107,28
3,62,107,1424
3,62,107,164
3,62,107,1140
3,62,107,180
3,69,107,1152
3,69,107,156
3,64,107,440
3,66,107,32
3,69,107,120
3,66,107,36
3,69,107,132
3,69,107,172
3,64,107,460
3,66,107,40
3,69,107,128
3,66,107,28
3,64,107,12
3,66,107,4
3,64,107,256
3,64,107,1176
3,64,107,212
3,64,107,988
3,66,107,28
3,69,107,40
3,69,107,164
3,64,107,452
3,66,107,40
3,69,107,132
3,66,107,68
3,69,107,128
3,69,107,196
3,64,107,460
3,66,107,52
3,69,107,136
3,66,107,36
3,64,107,16
3,62,107,20
3,62,107,176
3,62,107,1172
3,62,107,196
3,62,107,472
3,64,107,24
3,66,107,128
3,64,107,32
3,69,107,104
3,69,107,164
3,69,107,1144
3,69,107,164
3,64,107,1136
3,64,107,188
3,64,107,1144
3,64,107,196
3,64,107,488
3,66,107,28
3,69,107,132
3,66,107,28
3,69,107,120
3,69,107,176
3,69,107,1144
3,69,107,188
3,64,107,468
3,66,107,44
3,66,107,116
3,64,107,112
3,62,107,136
3,62,107,172
3,62,107,1136
3,62,107,200
3,62,107,488
3,64,107,96
3,66,107,136
3,64,107,32
3,69,107,140
3,69,107,184
3,69,107,1136
3,69,107,180
3,64,107,1148
3,64,107,204
3,64,107,1164
3,64,107,172
3,64,107,460
3,66,107,40
3,69,107,120
3,66,107,36
3,69,107,124
3,69,107,172
3,64,107,476
3,66,107,44
3,69,107,148
3,66,107,44
3,69,107,128
3,69,107,212
3,64,107,464
3,66,107,52
3,69,107,120
3,66,107,92
3,64,107,12
3,62,107,116
3,62,107,200
3,62,107,1172
3,62,107,192
3,64,107,488
3,66,107,48
3,69,107,128
3,66,107,28
3,69,107,112
3,69,107,172
3,64,107,476
3,66,107,40
3,69,107,148
3,66,107,20
3,69,107,116
3,69,107,180
3,64,107,1144
3,64,107,200
3,64,107,1164
3,64,107,224
3,64,107,492
3,66,107,48
3,69,107,128
3,66,107,76
3,69,107,124
3,69,107,176
3,69,107,1132
3,69,107,192
3,64,107,468
3,66,107,44
3,69,107,132
3,66,107,100
3,62,107,12420
3,62,107,180
3,62,107,1164
3,62,107,164
3,64,107,944
3,66,107,20
3,69,107,16
3,69,107,180
3,69,107,1132
3,69,107,172
3,64,107,456
3,66,107,48
3,69,107,124
3,66,107,68
3,64,107,116
3,64,107,188
3,66,107,1068
3,64,107,40
3,64,107,188
3,64,107,484
3,66,107,40
3,69,107,160
3,66,107,60
3,69,107,124
3,69,107,160
3,64,107,456
3,66,107,48
3,69,107,132
3,66,107,96
3,69,107,116
3,69,107,188
3,64,107,468
3,66,107,44
3,69,107,132
3,66,107,92
3,64,107,16
3,62,107,88
3,62,107,188
3,62,107,1124
3,62,107,164
3,62,107,952
3,64,107,12
3,69,107,32
3,69,107,172
3,64,107,456
3,66,107,52
3,69,107,128
3,66,107,56
3,69,107,120
3,69,107,196
3,64,107,496
3,66,107,40
3,66,107,120
3,69,107,0
3,66,107,64
3,64,107,60
3,64,107,168
3,64,107,212
3,64,107,512
3,66,107,36
3,64,107,140
3,62,107,120
3,64,107,144
3,64,107,224
3,64,107,512
3,66,107,56
3,69,107,140
3,66,107,88
3,69,107,144
3,69,107,200
3,69,107,200
3,64,107,204
3,66,107,52
3,69,107,132
3,66,107,192
3,64,107,8
3,69,107,24
3,69,107,204
3,69,107,212
3,64,107,176
3,66,107,20
3,71,107,80
3,72,107,96
3,69,107,72
3,66,107,88
3,69,107,16
4,57,101,18436
4,57,101,200
4,57,101,200
4,52,101,156
4,54,101,40
4,57,101,72
4,54,101,36
4,52,101,4
4,57,101,20
4,57,101,172
4,57,101,180
4,52,101,160
4,54,101,36
4,57,101,92
4,54,101,48
4,52,101,12
4,57,101,3096
4,57,101,152
4,57,101,172
4,52,101,156
4,54,101,0
4,57,101,64
4,54,101,48
4,52,101,12
4,57,101,4
4,57,101,172
4,57,101,200
4,52,101,176
4,54,101,36
4,57,101,112
4,54,101,52
4,52,101,12
4,57,101,28
4,57,101,2984
4,57,101,188
4,57,101,204
4,52,101,176
4,54,101,36
4,57,101,84
4,54,101,44
4,52,101,12
4,57,101,100
4,57,101,160
4,57,101,168
4,52,101,164
4,54,101,28
4,57,101,84
4,54,101,64
4,52,101,0
4,57,101,16
4,57,101,3012
4,57,101,160
4,57,101,192
4,52,101,144
4,54,101,40
4,57,101,84
4,54,101,72
4,52,101,12
4,57,101,28
4,62,101,1416
4,62,101,176
4,62,101,180
4,57,101,148
4,59,101,40
4,62,101,136
4,59,101,48
