track,note,velocity,time
0,74,117,214
0,78,99,12
0,62,52,4
0,66,43,12
0,74,49,0
0,69,49,0
0,81,113,32
0,86,115,0
0,51,68,2
0,51,66,296
0,73,127,132
0,78,99,0
0,61,57,28
0,81,111,12
0,85,117,0
0,73,62,0
0,51,69,384
0,51,69,2
0,71,111,30
0,74,99,8
0,66,26,24
0,62,50,16
0,59,47,0
0,78,127,4
0,83,113,16
0,71,49,0
0,51,75,392
0,51,75,316
0,69,109,52
0,74,103,28
0,78,121,48
0,81,113,16
0,57,57,12
0,69,50,0
0,51,75,2
0,51,73,2
0,66,29,272
0,55,31,0
0,59,40,20
0,62,44,0
0,55,99,4
0,66,99,0
0,36,113,2
0,51,80,2
0,31,127,0
0,59,99,6
0,62,100,0
0,64,97,64
0,66,97,124
0,51,74,4
0,54,83,0
0,51,57,4
0,64,97,4
0,66,97,68
0,37,86,4
0,51,71,2
0,64,97,156
0,36,113,12
0,66,97,28
0,36,113,16
0,51,75,2
0,31,127,0
0,51,77,232
0,54,83,0
0,74,97,140
0,55,106,136
0,62,109,0
0,59,108,0
0,66,114,2
0,37,86,10
0,51,81,0
0,71,97,4
0,66,97,0
0,31,127,4
0,54,67,44
0,57,54,12
0,64,55,4
0,61,63,0
0,54,107,8
0,36,113,14
0,51,80,0
0,30,127,0
0,57,105,2
0,64,101,0
0,61,111,2
0,64,97,4
0,51,82,222
0,54,83,0
0,51,74,200
0,37,86,78
0,51,77,0
0,36,113,100
0,30,127,0
0,36,113,50
0,51,83,0
0,30,127,0
0,54,127,112
0,64,106,0
0,57,105,4
0,61,116,0
0,51,80,42
0,54,83,0
0,61,109,272
0,57,99,0
0,64,100,2
0,54,113,22
0,37,86,8
0,51,83,2
0,36,113,16
0,30,127,0
0,52,39,4
0,55,50,0
0,59,55,0
0,62,44,0
0,52,101,8
0,62,104,0
0,55,99,0
0,59,104,2
0,36,113,14
0,51,85,2
0,28,127,0
0,59,97,120
0,51,82,124
0,54,83,0
0,62,97,16
0,59,97,196
0,51,74,0
0,37,86,88
0,51,76,0
0,62,97,16
0,59,97,24
0,36,113,4
0,61,31,54
0,64,47,0
0,57,53,0
0,36,113,32
0,51,85,2
0,33,127,0
0,71,97,2
0,61,107,2
0,64,99,0
0,55,99,0
0,57,99,2
0,51,82,232
0,54,83,0
0,69,97,148
0,37,86,104
0,51,85,2
0,33,127,0
0,66,97,14
0,64,97,12
0,36,113,12
0,57,37,10
0,66,49,0
0,61,49,0
0,62,52,12
0,36,113,8
0,51,85,2
0,38,127,0
0,66,97,0
0,50,99,2
0,54,101,10
0,57,108,116
0,51,87,128
0,54,83,0
0,61,127,12
0,64,112,72
0,51,76,124
0,69,108,2
0,37,86,80
0,51,83,2
0,36,113,48
0,33,127,0
0,62,107,16
0,66,107,0
0,59,64,36
0,36,113,32
0,51,92,2
0,38,127,0
0,37,86,4
0,51,83,0
0,54,83,0
0,59,99,20
0,51,92,56
0,64,101,8
0,69,108,0
0,66,109,8
0,64,97,8
0,64,101,4
0,36,113,12
0,37,86,0
0,38,127,2
0,59,59,4
0,55,52,0
0,62,64,0
0,66,67,4
0,54,101,8
0,66,108,0
0,36,113,6
0,51,85,0
0,31,127,0
0,62,108,0
0,55,112,0
0,66,97,4
0,59,108,116
0,64,97,8
0,51,92,76
0,54,83,0
0,66,97,24
0,51,79,200
0,64,97,20
0,37,86,80
0,51,89,2
0,66,97,2
0,36,113,56
0,31,127,0
0,64,97,0
0,36,113,48
0,51,85,2
0,31,127,0
0,66,97,2
0,51,89,4
0,54,83,0
0,74,97,130
0,55,108,168
0,37,86,8
0,51,87,0
0,66,113,8
0,62,107,0
0,59,108,2
0,71,97,6
0,66,97,8
0,36,113,28
0,31,127,0
0,57,53,4
0,64,47,0
0,54,72,0
0,61,67,20
0,36,113,6
0,51,89,0
0,30,127,0
0,54,108,0
0,64,99,0
0,57,108,4
0,61,113,0
0,64,97,4
0,51,82,260
0,54,83,0
0,51,77,192
0,37,86,74
0,51,82,0
0,36,113,80
0,30,127,0
0,36,113,2
0,51,89,0
0,30,127,0
0,57,110,50
0,54,127,0
0,64,113,0
0,61,123,2
0,51,83,56
0,54,83,0
0,54,99,180
0,61,99,12
0,54,127,88
0,57,108,16
0,61,123,0
0,64,110,0
0,37,86,8
0,51,83,2
0,62,57,12
0,55,55,0
0,59,58,4
0,52,53,0
0,36,113,12
0,51,83,2
0,28,127,0
0,55,108,2
0,52,103,0
0,62,108,0
0,59,106,4
0,59,97,120
0,51,85,116
0,54,83,0
0,62,97,12
0,55,105,28
0,51,76,80
0,59,103,0
0,59,97,4
0,37,86,2
0,51,82,0
0,62,97,4
0,62,109,0
0,59,103,28
0,59,97,12
0,36,113,12
0,28,127,0
0,36,113,2
0,51,83,0
0,33,127,0
0,62,99,2
0,71,97,4
0,61,62,4
0,64,48,0
0,57,66,4
0,57,107,18
0,69,97,4
0,51,82,0
0,54,83,2
0,61,103,2
0,55,103,0
0,37,86,2
0,51,80,2
0,33,127,0
0,61,97,10
0,50,99,8
0,36,113,4
0,54,64,0
0,62,58,0
0,57,73,0
0,50,99,4
0,36,113,8
0,51,87,2
0,38,127,0
0,62,97,4
0,54,102,8
0,57,125,120
0,51,87,136
0,54,83,0
0,69,120,12
0,64,127,0
0,51,69,8
0,66,116,56
0,62,115,0
0,37,86,8
0,51,81,2
0,38,127,0
0,61,68,32
0,57,71,0
0,55,67,4
0,64,62,0
0,69,97,40
0,57,125,4
0,69,115,0
0,64,112,4
0,67,108,0
0,61,127,0
0,36,113,2
0,51,92,2
0,33,127,0
0,64,99,0
0,59,53,20
0,55,51,0
0,62,53,0
0,64,51,2
0,71,97,14
0,38,94,0
0,51,89,0
0,54,83,2
0,35,127,0
0,64,109,2
0,67,113,0
0,71,112,0
0,62,122,0
0,38,81,54
0,38,94,58
0,64,47,8
0,38,120,2
0,67,51,0
0,57,55,0
0,61,69,0
0,51,89,2
0,37,127,0
0,73,97,0
0,73,115,12
0,67,117,0
0,69,125,2
0,38,116,52
0,38,120,8
0,66,63,20
0,57,62,0
0,62,64,2
0,36,113,14
0,51,83,2
0,69,44,0
0,38,127,0
0,42,42,2
0,49,74,0
0,62,115,4
0,74,109,0
0,66,102,2
0,66,97,0
0,74,97,12
0,66,109,4
0,69,115,0
0,69,44,60
0,42,42,0
0,69,44,68
0,42,42,0
0,38,97,76
0,51,77,0
0,69,44,2
0,42,42,0
0,69,44,16
0,42,42,0
0,69,44,70
0,33,127,0
0,42,42,2
0,38,97,32
0,51,76,0
0,69,44,2
0,42,42,0
0,54,83,0
0,69,44,10
0,42,42,0
0,36,113,68
0,33,127,0
0,69,44,2
0,42,42,0
0,57,99,14
0,61,73,20
0,66,99,8
0,62,117,0
0,36,113,4
0,51,70,2
0,69,44,0
0,38,127,0
0,42,42,2
0,73,97,0
0,69,122,8
0,73,123,0
0,69,44,56
0,42,42,0
0,69,44,68
0,42,42,0
0,38,93,68
0,51,69,0
0,69,44,0
0,42,42,2
0,69,44,48
0,42,42,0
0,69,44,28
0,42,42,0
0,69,97,74
0,38,99,0
0,51,71,2
0,69,44,0
0,42,42,0
0,42,127,0
0,54,83,2
0,69,117,0
0,69,44,48
0,42,42,0
0,69,44,8
0,42,42,0
0,55,99,12
0,59,100,20
0,59,51,20
0,55,59,0
0,62,58,0
0,36,113,6
0,51,74,0
0,69,44,0
0,43,127,0
0,42,42,2
0,62,122,0
0,71,106,0
0,66,119,2
0,71,97,10
0,69,44,52
0,42,42,0
0,69,44,60
0,42,42,0
0,38,94,60
0,51,71,0
0,69,44,2
0,42,42,0
0,69,44,4
0,42,42,0
0,69,44,68
0,42,42,0
0,38,104,62
0,51,73,0
0,69,44,2
0,42,42,0
0,54,83,0
0,69,44,10
0,42,42,0
0,36,113,70
0,43,127,0
0,69,44,2
0,42,42,0
0,64,101,42
0,64,58,4
0,36,113,2
0,51,74,0
0,31,127,0
0,69,44,2
0,42,42,0
0,55,99,20
0,69,44,52
0,42,42,0
0,59,99,4
0,69,44,68
0,62,115,0
0,42,42,2
0,64,110,56
0,38,101,4
0,51,72,0
0,69,44,2
0,42,42,0
0,69,44,26
0,42,42,0
0,69,44,60
0,71,108,0
0,42,42,2
0,38,99,68
0,51,80,2
0,69,44,0
0,42,42,0
0,54,83,0
0,69,44,60
0,42,42,0
0,57,99,42
0,69,44,0
0,42,42,0
0,61,105,8
0,61,56,34
0,57,59,16
0,67,52,0
0,73,97,2
0,36,113,8
0,51,76,2
0,33,127,0
0,71,108,0
0,67,112,0
0,69,44,2
0,42,42,0
0,69,44,64
0,42,42,0
0,69,44,70
0,42,42,0
0,64,99,56
0,69,99,12
0,73,97,8
0,38,95,4
0,51,79,0
0,69,44,2
0,42,42,0
0,69,44,0
0,42,42,0
0,69,44,68
0,42,42,0
0,38,99,8
0,51,79,2
0,69,44,0
0,42,42,0
0,54,83,0
0,69,44,16
0,42,42,0
0,73,97,30
0,57,99,16
0,36,113,8
0,33,127,0
0,69,44,2
0,42,42,0
0,36,113,28
0,51,81,2
0,69,44,0
0,42,42,0
0,33,127,0
0,73,97,14
0,69,44,4
0,42,42,0
0,69,44,14
0,42,42,0
0,59,53,32
0,62,66,0
0,71,107,8
0,64,108,0
0,67,115,0
0,38,98,4
0,51,76,0
0,69,44,2
0,42,42,0
0,35,127,0
0,71,97,2
0,69,44,0
0,42,42,0
0,69,44,26
0,42,42,0
0,61,64,48
0,57,57,0
0,64,104,16
0,69,99,0
0,38,94,4
0,51,73,2
0,37,127,0
0,61,117,0
0,69,44,2
0,42,42,0
0,54,83,0
0,67,112,0
0,69,44,48
0,42,42,0
0,69,97,8
0,36,113,12
0,69,44,0
0,42,42,0
0,68,98,12
0,62,42,8
0,57,46,8
0,66,46,0
0,36,113,4
0,51,76,2
0,69,44,0
0,42,42,0
0,38,127,0
0,68,97,6
0,69,44,64
0,42,42,0
0,71,81,10
0,71,97,0
0,69,44,40
0,42,42,0
0,50,103,8
0,38,94,58
0,51,76,0
0,69,44,0
0,42,42,2
0,69,83,0
0,54,111,4
0,69,97,4
0,69,44,0
0,42,42,0
0,57,122,32
0,69,44,24
0,42,42,0
0,38,94,60
0,51,69,2
0,69,44,0
0,42,42,0
0,54,83,0
0,69,112,6
0,64,117,0
0,69,44,8
0,42,42,0
0,66,117,40
0,69,44,8
0,33,127,0
0,42,42,2
0,36,113,60
0,51,77,2
0,69,44,0
0,38,127,0
0,42,42,0
0,69,44,48
0,42,42,0
0,62,112,46
0,69,44,16
0,42,42,0
0,38,101,40
0,51,68,0
0,69,44,0
0,42,42,2
0,69,44,6
0,42,42,0
0,50,102,24
0,69,44,20
0,42,42,0
0,38,87,52
0,51,68,2
0,69,44,0
0,33,127,0
0,42,42,2
0,54,83,0
0,54,104,8
0,57,99,12
0,69,44,4
0,42,42,0
0,62,101,0
0,36,113,6
0,69,44,0
0,42,42,2
0,57,56,8
0,62,64,0
0,66,61,16
0,69,98,4
0,78,97,4
0,36,113,4
0,51,69,2
0,69,44,0
0,38,127,0
0,42,42,2
0,78,127,0
0,57,63,4
0,66,61,0
0,62,64,0
0,69,44,44
0,42,42,0
0,69,44,54
0,42,42,0
0,38,98,62
0,51,68,0
0,69,44,2
0,42,42,0
0,69,101,2
0,69,44,8
0,42,42,0
0,69,44,70
0,42,42,0
0,74,101,4
0,38,96,2
0,51,75,2
0,69,44,0
0,42,42,0
0,38,127,0
0,69,44,48
0,42,42,0
0,36,113,36
0,69,44,0
0,42,42,2
0,58,79,16
0,70,116,20
0,36,113,22
0,51,77,0
0,69,44,0
0,38,127,0
0,42,42,2
0,66,126,0
0,70,127,4
0,76,112,0
0,72,127,4
0,76,97,0
0,69,44,48
0,42,42,0
0,69,44,60
0,42,42,0
0,38,95,54
0,51,69,0
0,69,44,0
0,42,42,2
0,69,44,24
0,42,42,0
0,69,44,46
0,42,42,0
0,74,97,62
0,38,99,8
0,51,68,2
0,69,44,0
0,42,42,0
0,42,127,0
0,54,83,2
0,69,44,48
0,42,42,0
0,69,44,52
0,42,42,0
0,62,101,8
0,55,64,12
0,64,59,0
0,59,66,0
0,71,115,8
0,76,97,2
0,36,113,6
0,51,69,0
0,69,44,0
0,43,127,0
0,42,42,2
0,67,127,8
0,76,97,4
0,71,117,4
0,76,113,4
0,69,44,44
0,42,42,0
0,69,44,60
0,42,42,0
0,38,103,68
0,51,77,0
0,69,44,2
0,42,42,0
0,69,44,8
0,42,42,0
0,69,44,60
0,42,42,0
0,62,63,20
0,38,101,4
0,51,74,2
0,69,44,0
0,42,42,0
0,54,83,0
0,74,97,2
0,74,106,4
0,69,44,44
0,42,42,0
0,36,113,48
0,43,127,0
0,69,44,2
0,42,42,0
0,36,113,66
0,51,76,2
0,31,127,0
0,55,99,0
0,69,44,2
0,42,42,0
0,64,97,4
0,69,44,40
0,42,42,0
0,59,101,4
0,62,118,56
0,69,44,4
0,42,42,0
0,38,95,60
0,51,67,0
0,69,44,0
0,42,42,2
0,64,127,10
0,69,44,0
0,42,42,0
0,67,125,12
0,69,105,12
0,69,44,36
0,42,42,0
0,71,115,8
0,38,101,68
0,51,68,2
0,69,44,0
0,42,42,0
0,31,127,0
0,54,83,2
0,74,111,0
0,69,44,0
0,42,42,0
0,67,97,0
0,69,44,12
0,42,42,0
0,55,99,8
0,67,99,26
0,59,101,0
0,62,112,4
0,36,113,4
0,51,70,2
0,69,44,0
0,42,42,0
0,33,127,0
0,71,97,2
0,71,111,2
0,69,44,4
0,42,42,0
0,69,44,4
0,42,42,0
0,38,99,8
0,51,77,0
0,69,44,2
0,42,42,0
0,71,97,2
0,67,52,4
0,64,61,0
0,61,60,2
0,57,61,22
0,69,44,32
0,42,42,0
0,69,44,68
0,42,42,0
0,38,98,12
0,51,76,2
0,69,44,0
0,42,42,0
0,54,83,0
0,69,44,24
0,42,42,0
0,71,97,32
0,57,101,28
0,36,113,0
0,33,127,0
0,69,44,2
0,42,42,0
0,69,113,32
0,61,109,4
0,36,113,4
0,51,80,2
0,69,44,0
0,33,127,0
0,42,42,2
0,69,97,4
0,69,44,32
0,42,42,0
0,69,44,70
0,57,100,0
0,42,42,2
0,38,94,16
0,51,77,0
0,69,44,2
0,42,42,0
0,35,127,0
0,61,111,18
0,69,44,20
0,64,108,0
0,42,42,2
0,76,108,60
0,71,108,0
0,69,44,2
0,42,42,0
0,73,109,66
0,38,91,4
0,51,79,2
0,69,44,0
0,37,127,0
0,42,42,0
0,54,83,0
0,73,106,0
0,69,44,0
0,42,42,0
0,61,97,44
0,69,44,24
0,42,42,0
0,78,104,0
0,74,106,0
0,74,86,0
0,81,117,16
0,36,113,0
0,38,127,2
0,86,115,2
0,61,97,16
0,66,57,104
0,62,56,0
0,51,75,88
0,62,97,0
0,51,75,10
0,73,116,208
0,78,109,12
0,81,109,8
0,36,113,2
0,38,127,2
0,85,113,14
0,61,66,16
0,51,68,264
0,51,74,284
0,71,115,140
0,74,103,16
0,59,51,4
0,62,44,16
0,36,113,20
0,38,127,2
0,78,127,14
0,83,115,0
0,51,75,260
0,51,70,264
0,74,99,170
0,69,105,0
0,57,45,40
0,78,121,0
0,36,113,2
0,38,127,2
0,81,99,10
0,51,64,244
0,51,62,8
0,36,113,92
0,38,127,0
0,59,46,10
0,66,50,0
0,55,45,4
0,62,52,0
0,66,85,8
0,66,103,4
0,55,99,12
0,59,99,0
0,62,103,2
0,36,113,2
0,51,77,0
0,31,127,0
0,64,97,154
0,51,77,112
0,54,83,0
0,66,97,20
0,51,67,172
0,66,110,0
0,64,97,8
0,37,86,0
0,51,80,2
0,71,110,0
0,66,97,14
0,64,97,72
0,31,127,0
0,36,113,48
0,51,82,2
0,31,127,0
0,66,97,2
0,51,83,248
0,54,83,0
0,74,97,64
0,66,110,44
0,66,100,4
0,55,100,0
0,59,99,2
0,62,105,2
0,37,86,4
0,51,85,2
0,71,110,0
0,71,97,4
0,66,97,6
