track,note,velocity,time
1,62,53,1826
1,66,77,32
1,69,86,24
1,50,75,22
1,74,99,0
1,62,53,30
1,66,77,0
1,69,86,24
1,73,99,22
1,50,75,0
1,62,53,30
1,66,77,0
1,69,86,24
1,71,99,22
1,50,75,0
1,57,53,30
1,62,77,0
1,66,86,34
1,50,75,12
1,61,86,1020
1,62,95,2
1,59,93,4
1,66,92,2
1,43,79,0
1,50,86,642
1,55,79,124
1,66,80,16
1,62,86,2
1,71,88,2
1,43,79,6
1,62,77,30
1,59,69,2
1,66,80,2
1,66,89,26
1,57,86,2
1,61,84,0
1,42,79,2
1,64,86,0
1,49,86,642
1,54,79,124
1,57,77,20
1,61,73,2
1,66,85,0
1,64,86,2
1,42,79,2
1,57,76,116
1,69,97,2
1,66,90,0
1,64,95,0
1,61,77,0
1,67,92,8
1,62,84,0
1,64,82,2
1,40,79,0
1,59,83,0
1,47,73,12
1,52,86,6
1,62,90,0
1,59,84,2
1,64,77,0
1,64,88,24
1,45,79,6
1,61,92,0
1,69,93,0
1,57,77,4
1,52,73,0
1,64,86,8
1,67,95,4
1,61,88,0
1,57,86,6
1,66,90,30
1,38,79,2
1,61,77,0
1,62,86,0
1,57,86,0
1,45,73,12
1,57,73,0
1,57,86,4
1,61,86,0
1,50,86,2
1,66,69,0
1,62,86,0
1,66,77,26
1,59,92,4
1,62,86,2
1,57,77,0
1,38,79,0
1,66,91,56
1,59,95,0
1,62,88,0
1,57,77,2
1,57,74,52
1,62,95,8
1,59,93,4
1,66,92,2
1,43,79,0
1,50,86,642
1,55,79,124
1,66,80,64
1,62,86,22
1,59,72,4
1,43,79,0
1,66,93,10
1,62,90,4
1,71,87,2
1,62,89,72
1,59,86,2
1,66,89,2
1,66,89,28
1,57,86,2
1,61,84,0
1,42,79,2
1,64,86,0
1,49,86,642
1,54,79,124
1,64,90,58
1,57,85,20
1,61,82,2
1,66,95,0
1,42,79,4
1,55,76,28
1,59,86,30
1,62,87,16
1,67,95,28
1,40,79,4
1,47,73,640
1,52,86,6
1,64,88,24
1,45,79,6
1,61,92,0
1,69,93,0
1,52,73,640
1,57,86,6
1,57,81,14
1,62,92,10
1,66,86,16
1,38,79,6
1,57,70,50
1,45,73,4
1,57,73,0
1,69,95,2
1,50,86,4
1,66,81,248
1,61,86,12
1,57,95,0
1,69,77,2
1,45,86,4
1,62,104,58
1,59,86,2
1,69,86,0
1,47,77,2
1,61,95,48
1,64,104,0
1,69,86,2
1,49,86,2
1,57,95,46
1,62,95,2
1,66,93,2
1,38,79,2
1,45,73,2
1,57,69,0
1,66,95,120
1,62,95,0
1,50,86,6
1,57,69,0
1,57,88,26
1,66,93,2
1,61,92,4
1,38,79,0
1,61,86,58
1,66,77,0
1,50,91,6
1,57,57,102
1,45,62,6
1,50,91,60
1,61,86,2
1,66,86,4
1,57,77,0
1,59,86,4
1,62,86,2
1,55,90,0
1,43,79,2
1,62,79,92
1,59,86,0
1,66,83,2
1,50,73,8
1,55,86,6
1,62,77,88
1,66,69,0
1,59,61,0
1,59,89,28
1,62,88,2
1,43,79,2
1,67,92,0
1,64,87,0
1,50,73,640
1,67,84,90
1,64,79,2
1,62,76,2
1,55,86,2
1,59,76,0
1,61,77,30
1,57,95,0
1,64,89,0
1,45,79,2
1,52,73,0
1,55,63,2
1,57,68,4
1,61,84,132
1,64,86,126
1,61,77,16
1,55,77,4
1,57,95,2
1,45,79,4
1,55,86,36
1,62,95,2
1,59,77,2
1,47,83,4
1,64,95,56
1,55,73,0
1,61,29,2
1,49,86,2
1,66,95,32
1,57,95,2
1,62,95,0
1,38,79,0
1,45,73,62
1,57,73,0
1,66,77,6
1,62,86,0
1,50,86,0
1,46,45,70
1,57,77,6
1,66,86,32
1,62,86,0
1,57,86,0
1,38,79,0
1,45,73,58
1,57,73,0
1,50,86,6
1,66,86,0
1,62,95,0
1,57,86,30
1,38,79,2
1,62,95,0
1,66,77,0
1,45,73,0
1,57,77,4
1,66,84,2
1,62,82,2
1,57,85,0
1,50,86,2
1,57,73,10
1,66,77,28
1,58,95,0
1,62,86,2
1,38,79,2
1,45,73,36
1,58,61,4
1,58,73,2
1,66,77,2
1,62,77,0
1,42,86,2
1,59,84,38
1,62,79,2
1,64,83,0
1,67,87,2
1,43,79,0
1,59,68,10
1,50,73,0
1,64,69,2
1,62,69,0
1,67,73,0
1,55,86,4
1,67,77,32
1,64,77,0
1,43,79,0
1,59,83,0
1,62,77,0
1,50,73,640
1,59,73,4
1,67,91,0
1,64,77,0
1,62,86,0
1,55,86,2
1,64,84,28
1,57,82,4
1,61,80,0
1,45,79,0
1,55,80,0
1,52,73,640
1,57,86,6
1,55,73,22
1,57,86,28
1,61,82,0
1,45,86,0
1,64,82,4
1,47,86,64
1,49,77,46
1,62,53,312
1,66,77,0
1,69,86,20
1,50,75,22
1,74,99,0
1,62,53,30
1,66,77,0
1,69,86,24
1,73,99,22
1,50,75,0
1,62,53,30
1,66,77,0
1,69,86,24
1,71,99,22
1,50,75,0
1,57,53,30
1,62,77,0
1,66,86,34
1,50,75,12
1,61,86,1020
1,62,95,2
1,59,93,4
1,66,92,2
1,43,79,0
1,50,86,642
1,55,79,124
1,66,80,16
1,62,86,2
1,71,88,2
1,43,79,6
1,62,77,30
1,59,69,2
1,66,80,2
1,66,89,26
1,57,86,2
1,61,84,0
1,42,79,2
1,64,86,0
1,49,86,642
1,54,79,124
1,57,77,20
1,61,73,2
1,66,85,0
1,64,86,2
1,42,79,2
1,57,76,116
1,69,97,2
1,66,90,0
1,64,95,0
1,61,77,0
1,67,92,8
1,62,84,0
1,64,82,2
1,40,79,0
1,59,83,0
1,47,73,12
1,52,86,6
1,62,74,0
1,59,84,2
1,64,77,0
1,64,88,24
1,45,79,6
1,61,92,0
1,69,93,0
1,57,77,4
1,52,73,0
1,64,86,8
1,67,95,4
1,61,88,0
1,57,86,6
1,66,90,30
1,38,79,2
1,61,77,0
1,62,86,0
1,57,86,0
1,45,73,12
1,57,73,0
1,57,86,4
1,61,86,0
1,50,86,2
1,66,69,0
1,62,86,0
1,66,77,26
1,59,92,4
1,62,86,2
1,57,77,0
1,38,79,0
1,66,91,56
1,59,95,0
1,62,88,0
1,57,77,2
1,57,74,52
1,62,95,8
1,59,93,4
1,66,92,2
1,43,79,0
1,50,86,642
1,55,79,124
1,66,80,64
1,62,86,22
1,59,72,4
1,43,79,0
1,66,93,10
1,62,90,4
1,71,87,2
1,62,89,72
1,59,86,2
1,66,89,2
1,66,89,28
1,57,86,2
1,61,84,0
1,42,79,2
1,64,86,0
1,49,86,642
1,54,79,124
1,64,90,58
1,57,85,20
1,61,82,2
1,66,95,0
1,42,79,4
1,55,76,28
1,59,86,30
1,62,87,16
1,67,95,28
1,40,79,4
1,47,73,640
1,52,86,6
1,64,88,24
1,45,79,6
1,61,92,0
1,69,93,0
1,52,73,640
1,57,86,6
1,57,81,14
1,62,92,10
1,66,86,16
1,38,79,6
1,57,70,50
1,45,73,4
1,57,73,0
1,69,95,2
1,50,86,4
1,66,81,248
1,61,86,12
1,57,95,0
1,69,77,2
1,45,86,4
1,62,104,58
1,59,86,2
1,69,86,0
1,47,77,2
1,61,95,48
1,64,104,0
1,69,86,2
1,49,86,2
1,57,95,46
1,62,95,2
1,66,93,2
1,38,79,2
1,45,73,2
1,57,69,0
1,66,95,120
1,62,95,0
1,50,86,6
1,57,69,0
1,57,88,26
1,66,93,2
1,61,92,4
1,38,79,0
1,61,86,58
1,66,77,0
1,50,91,6
1,57,57,102
1,45,62,6
1,50,91,60
1,61,86,2
1,66,86,4
1,57,77,0
1,59,86,4
1,62,86,2
1,55,90,0
1,43,79,2
1,62,79,92
1,59,86,0
1,66,83,2
1,50,73,8
1,55,86,6
1,62,77,88
1,66,69,0
1,59,61,0
1,59,89,28
1,62,88,2
1,43,79,2
1,67,92,0
1,64,87,0
1,50,73,640
1,67,84,90
1,64,79,2
1,62,76,2
1,55,86,2
1,59,76,0
1,61,77,30
1,57,95,0
1,64,89,0
1,45,79,2
1,52,73,0
1,55,63,2
1,57,68,4
1,61,84,132
1,64,86,126
1,61,77,16
1,55,77,4
1,57,95,2
1,45,79,4
1,55,86,36
1,62,95,2
1,59,77,2
1,47,83,4
1,64,95,56
1,55,73,0
1,61,29,2
1,49,86,2
1,66,95,32
1,57,95,2
1,62,95,0
1,38,79,0
1,45,73,62
1,57,73,0
1,66,77,6
1,62,86,0
1,50,86,0
1,46,45,70
1,57,77,6
1,66,86,32
1,62,86,0
1,57,86,0
1,38,79,0
1,45,73,58
1,57,73,0
1,50,86,6
1,66,86,0
1,62,95,0
1,57,86,30
1,38,79,2
1,62,95,0
1,66,77,0
1,45,73,0
1,57,77,4
1,66,84,2
1,62,82,2
1,57,85,0
1,50,86,2
1,57,73,10
1,66,77,28
1,58,95,0
1,62,86,2
1,38,79,2
1,45,73,36
1,58,61,4
1,58,73,2
1,66,77,2
1,62,77,0
1,42,86,2
1,59,84,38
1,62,79,2
1,64,83,0
1,67,87,2
1,43,79,0
1,59,68,10
1,50,73,0
1,64,69,2
1,62,69,0
1,67,73,0
1,55,86,4
1,67,77,32
1,64,77,0
1,43,79,0
1,59,83,0
1,62,77,0
1,50,73,640
1,59,73,4
1,67,91,0
1,64,77,0
1,62,86,0
1,55,86,2
1,64,84,28
1,57,82,4
1,61,80,0
1,45,79,0
1,55,80,0
1,52,73,640
1,57,86,6
1,55,73,22
1,57,86,28
1,61,82,0
1,45,86,0
1,64,82,4
1,47,86,64
1,49,77,46
1,57,77,28
1,66,77,2
1,62,86,0
1,38,79,4
1,57,69,56
1,62,69,18
1,66,77,8
1,69,95,20
1,38,79,6
1,67,89,32
1,62,86,2
1,59,83,2
1,43,73,0
1,50,73,26
1,55,77,124
1,43,77,32
1,64,95,2
1,62,97,54
1,50,77,2
1,64,77,18
1,67,88,4
1,55,69,0
1,59,77,4
1,62,73,14
1,58,86,0
1,67,95,0
1,43,73,6
1,50,73,24
1,55,77,124
1,58,61,114
1,62,86,2
1,43,77,118
1,64,86,0
1,67,77,2
1,62,86,360
1,50,77,2
1,64,89,6
1,67,88,2
1,55,69,0
1,58,69,4
1,66,85,16
1,69,86,0
1,62,95,0
1,42,77,4
1,57,77,6
1,50,77,2
1,62,95,2
1,69,95,0
1,66,86,2
1,54,69,0
1,57,65,4
1,62,50,60
1,59,69,8
1,65,92,0
1,62,88,0
1,68,91,2
1,41,77,6
1,59,77,0
1,50,77,2
1,68,77,2
1,62,95,0
1,65,95,2
1,53,69,0
1,59,77,0
1,67,86,14
1,62,95,0
1,64,86,0
1,59,86,0
1,40,77,2
1,47,77,2
1,62,95,0
1,67,95,0
1,64,86,6
1,52,69,0
1,59,69,2
1,62,87,10
1,59,87,0
1,67,92,0
1,64,90,4
1,33,77,2
1,40,77,2
1,69,97,38
1,45,69,0
1,62,95,8
1,59,93,4
1,66,92,2
1,43,79,0
1,50,86,642
1,55,79,124
1,66,80,64
1,62,86,22
1,59,72,4
1,43,79,0
1,66,93,10
1,62,90,4
1,71,87,2
1,62,89,72
1,59,86,2
1,66,89,2
1,66,89,28
1,57,86,2
1,61,84,0
1,42,79,2
1,64,86,0
1,49,86,642
1,54,79,124
1,64,90,58
1,57,85,20
1,61,82,2
1,66,95,0
1,42,79,4
1,55,76,28
1,59,86,30
1,62,87,16
1,67,95,28
1,40,79,4
1,47,73,640
1,52,86,6
1,64,88,24
1,45,79,6
1,61,92,0
1,69,93,0
1,52,73,640
1,57,86,6
1,57,81,14
1,62,92,10
1,66,86,16
1,38,79,6
1,57,70,50
1,45,73,4
1,57,73,0
1,69,95,2
1,50,86,4
1,66,81,248
1,61,86,12
1,57,95,0
1,69,77,2
1,45,86,4
1,62,104,58
1,59,86,2
1,69,86,0
1,47,77,2
1,61,95,48
1,64,104,0
1,69,86,2
1,49,86,2
1,57,95,46
1,62,95,2
1,66,93,2
1,38,79,2
1,45,73,2
1,57,69,0
1,66,95,120
1,62,95,0
1,50,86,6
1,57,69,0
1,57,88,26
1,66,93,2
1,61,92,4
1,38,79,0
1,61,86,58
1,66,77,0
1,50,91,6
1,57,57,102
1,45,62,6
1,50,91,60
1,61,86,2
1,66,86,4
1,57,77,0
1,59,86,4
1,62,86,2
1,55,90,0
1,43,79,2
1,62,79,92
1,59,86,0
1,66,83,2
1,50,73,8
1,55,86,6
1,62,77,88
1,66,69,0
1,59,61,0
1,59,89,28
1,62,88,2
1,43,79,2
1,67,92,0
1,64,87,0
1,50,73,640
1,67,84,90
1,64,79,2
1,62,76,2
1,55,86,2
1,59,76,0
1,61,77,30
1,57,95,0
1,64,89,0
1,45,79,2
1,52,73,0
1,55,63,2
1,57,68,4
1,61,84,132
1,64,86,126
1,61,77,16
1,55,77,4
1,57,95,2
1,45,79,4
1,55,86,36
1,62,95,2
1,59,77,2
1,47,83,4
1,64,95,56
1,55,73,0
1,61,29,2
1,49,86,2
1,66,95,32
1,57,95,2
1,62,95,0
1,38,79,0
1,45,73,62
1,57,73,0
1,66,77,6
1,62,86,0
1,50,86,0
1,46,45,70
1,57,77,6
1,66,86,32
1,62,86,0
1,57,86,0
1,38,79,0
1,45,73,58
1,57,73,0
1,50,86,6
1,66,86,0
1,62,95,0
1,57,86,30
1,38,79,2
1,62,95,0
1,66,77,0
1,45,73,0
1,57,77,4
1,66,84,2
1,62,82,2
1,57,85,0
1,50,86,2
1,57,73,10
1,66,77,28
1,58,95,0
1,62,86,2
1,38,79,2
1,45,73,36
1,58,61,4
1,58,73,2
1,66,77,2
1,62,77,0
1,42,86,2
1,59,84,38
1,62,79,2
1,64,83,0
1,67,87,2
1,43,79,0
1,59,68,10
1,50,73,0
1,64,69,2
1,62,69,0
1,67,73,0
1,55,86,4
1,67,77,32
1,64,77,0
1,43,79,0
1,59,83,0
1,62,77,0
1,50,73,640
1,59,73,4
1,67,91,0
1,64,77,0
1,62,86,0
1,55,86,2
1,64,84,28
1,57,82,4
1,61,80,0
1,45,79,0
1,55,80,0
1,52,73,640
1,57,86,6
1,55,73,22
1,57,86,28
1,61,82,0
1,45,86,0
1,64,82,4
1,47,86,64
1,49,77,46
1,62,53,312
1,66,77,0
1,69,86,20
1,50,75,22
1,74,99,0
1,62,53,30
1,66,77,0
1,69,86,24
1,73,99,22
1,50,75,0
1,62,53,30
1,66,77,0
1,69,86,24
1,71,99,22
1,50,75,0
1,57,53,30
1,62,93,0
1,66,86,34
1,50,75,12
1,61,86,1020
1,62,95,2
1,59,93,4
1,66,92,2
1,43,79,0
1,50,86,642
1,55,79,124
1,66,80,16
1,62,86,2
1,71,88,2
1,43,79,6
1,62,77,30
1,59,69,2
1,66,80,2
1,66,89,26
1,57,86,2
1,61,84,0
1,38,79,2
1,64,86,0
1,61,77,60
1,62,73,192
1,66,68,134
1,69,71,188
1,73,68,76
1,74,69,194
1,78,73,192
1,81,77,192
2,31,53,6492
2,43,73,0
2,31,53,118
2,43,73,0
2,31,53,222
2,43,73,0
2,30,53,20
2,42,73,0
2,30,53,102
2,42,73,0
2,30,53,222
2,42,73,0
2,28,53,20
2,40,73,0
2,28,53,222
2,40,73,0
2,33,53,20
2,45,73,0
2,33,53,222
2,45,73,0
2,38,53,20
2,50,73,0
2,33,53,222
2,45,73,0
2,38,53,20
2,50,73,0
2,31,53,110
2,43,73,0
2,31,53,118
2,43,73,0
2,31,53,222
2,43,73,0
2,30,53,20
2,42,73,0
2,30,53,102
2,42,73,0
2,30,53,222
2,42,73,0
2,28,53,20
2,40,73,0
2,33,53,110
2,45,73,0
2,38,53,110
2,50,73,0
2,38,53,222
2,50,73,0
2,33,53,20
2,45,73,0
2,35,53,84
2,47,73,0
2,37,53,84
2,49,73,0
2,38,53,84
2,50,73,0
2,38,53,222
2,50,73,0
2,38,53,20
2,50,73,0
2,38,53,222
2,50,73,0
2,31,53,20
2,43,73,0
2,38,53,214
2,50,73,0
2,31,53,20
2,43,73,0
