track,note,velocity,time
0,25,115,281
0,35,119,0
0,42,55,0
0,53,64,0
0,87,60,0
0,56,64,2
0,35,0,2
0,42,0,0
0,61,58,2
0,65,62,4
0,87,0,30
0,42,49,56
0,87,57,0
0,42,0,4
0,65,0,0
0,65,52,0
0,61,0,1
0,61,58,0
0,56,0,5
0,56,60,0
0,53,0,5
0,53,57,0
0,87,0,19
0,42,78,1
0,87,57,0
0,42,0,4
0,87,0,16
0,53,0,72
0,53,64,0
0,25,0,3
0,32,111,1
0,35,104,0
0,42,43,0
0,56,0,0
0,56,60,0
0,87,65,0
0,35,0,4
0,42,0,0
0,61,0,1
0,61,64,0
0,65,0,5
0,65,58,0
0,87,0,19
0,32,0,66
0,34,117,1
0,35,111,0
0,42,78,0
0,87,55,0
0,35,0,4
0,42,0,0
0,87,0,21
0,65,0,52
0,65,46,8
0,61,0,7
0,61,48,0
0,56,0,2
0,56,57,0
0,42,42,2
0,87,62,0
0,42,0,4
0,53,0,1
0,53,57,0
0,87,0,24
0,34,0,54
0,53,0,5
0,53,64,0
0,56,0,4
0,56,64,0
0,32,109,4
0,37,120,0
0,42,78,0
0,87,65,0
0,61,0,1
0,61,64,0
0,37,0,3
0,42,0,0
0,65,0,1
0,65,61,0
0,87,0,34
0,65,0,38
0,65,45,0
0,61,0,6
0,61,47,0
0,42,45,4
0,56,0,0
0,56,44,0
0,87,55,0
0,42,0,4
0,53,0,2
0,53,45,0
0,87,0,19
0,32,0,39
0,56,0,25
0,61,0,4
0,53,0,1
0,65,0,0
0,35,120,2
0,37,107,0
0,42,72,0
0,53,64,0
0,87,60,0
0,56,64,2
0,35,0,2
0,42,0,0
0,61,58,2
0,65,62,4
0,87,0,30
0,37,0,8
0,37,113,48
0,42,34,0
0,87,57,0
0,42,0,4
0,65,0,0
0,65,52,0
0,61,0,1
0,61,58,0
0,56,0,5
0,56,60,0
0,53,0,5
0,53,57,0
0,87,0,19
0,42,85,1
0,87,57,0
0,42,0,4
0,87,0,16
0,53,0,72
0,53,64,0
0,37,0,3
0,32,115,1
0,35,102,0
0,42,50,0
0,56,0,0
0,56,60,0
0,87,65,0
0,35,0,4
0,42,0,0
0,61,0,1
0,61,64,0
0,65,0,5
0,65,58,0
0,87,0,19
0,32,0,66
0,34,113,1
0,35,111,0
0,42,78,0
0,87,55,0
0,35,0,4
0,42,0,0
0,87,0,21
0,65,0,52
0,65,46,8
0,61,0,7
0,61,48,0
0,56,0,2
0,56,57,0
0,42,47,2
0,87,62,0
0,42,0,4
0,53,0,1
0,53,57,0
0,87,0,24
0,53,0,59
0,53,64,0
0,56,0,4
0,56,64,0
0,34,0,3
0,32,114,1
0,37,119,0
0,42,78,0
0,87,65,0
0,61,0,1
0,61,64,0
0,37,0,3
0,42,0,0
0,65,0,1
0,65,61,0
0,87,0,34
0,65,0,38
0,65,45,0
0,61,0,6
0,61,47,0
0,42,60,4
0,56,0,0
0,56,44,0
0,87,55,0
0,42,0,4
0,53,0,2
0,53,45,0
0,87,0,19
0,32,0,48
0,56,0,16
0,61,0,4
0,53,0,1
0,65,0,0
0,25,115,2
0,35,119,0
0,42,55,0
0,53,64,0
0,87,60,0
0,56,64,2
0,35,0,2
0,42,0,0
0,61,58,2
0,65,62,4
0,87,0,30
0,42,49,56
0,87,57,0
0,42,0,4
0,65,0,0
0,65,52,0
0,61,0,1
0,61,58,0
0,56,0,5
0,56,60,0
0,53,0,5
0,53,57,0
0,87,0,19
0,42,78,1
0,87,57,0
0,42,0,4
0,87,0,16
0,53,0,72
0,53,64,0
0,25,0,3
0,32,111,1
0,35,104,0
0,42,43,0
0,56,0,0
0,56,60,0
0,87,65,0
0,35,0,4
0,42,0,0
0,61,0,1
0,61,64,0
0,65,0,5
0,65,58,0
0,87,0,19
0,32,0,66
0,34,117,1
0,35,111,0
0,42,78,0
0,87,55,0
0,35,0,4
0,42,0,0
0,87,0,21
0,65,0,52
0,65,46,8
0,61,0,7
0,61,48,0
0,56,0,2
0,56,57,0
0,42,42,2
0,87,62,0
0,42,0,4
0,53,0,1
0,53,57,0
0,87,0,24
0,34,0,54
0,53,0,5
0,53,64,0
0,56,0,4
0,56,64,0
0,32,109,4
0,37,120,0
0,42,78,0
0,87,65,0
0,61,0,1
0,61,64,0
0,37,0,3
0,42,0,0
0,65,0,1
0,65,61,0
0,87,0,34
0,65,0,38
0,65,45,0
0,61,0,6
0,61,47,0
0,42,45,4
0,56,0,0
0,56,44,0
0,87,55,0
0,42,0,4
0,53,0,2
0,53,45,0
0,87,0,19
0,32,0,39
0,61,0,29
0,53,0,1
0,65,0,0
0,35,120,2
0,37,107,0
0,42,72,0
0,53,64,0
0,87,60,0
0,56,0,1
0,56,64,1
0,35,0,2
0,42,0,0
0,61,58,2
0,65,62,4
0,87,0,30
0,37,0,8
0,37,113,48
0,42,34,0
0,87,57,0
0,42,0,4
0,65,0,0
0,65,52,0
0,61,0,1
0,61,58,0
0,56,0,5
0,56,60,0
0,53,0,5
0,53,57,0
0,87,0,19
0,42,85,1
0,87,57,0
0,42,0,4
0,87,0,16
0,53,0,72
0,53,64,0
0,37,0,3
0,32,115,1
0,35,102,0
0,42,50,0
0,56,0,0
0,56,60,0
0,87,65,0
0,35,0,4
0,42,0,0
0,61,0,1
0,61,64,0
0,65,0,5
0,65,58,0
0,87,0,19
0,32,0,66
0,34,113,1
0,35,111,0
0,42,78,0
0,61,109,0
0,61,102,0
0,65,109,0
0,65,102,0
0,85,72,0
0,87,55,0
0,89,72,0
0,35,0,4
0,42,0,0
0,61,0,15
0,65,0,0
0,61,105,5
0,87,0,1
0,61,0,16
0,65,109,7
0,65,0,19
0,61,105,5
0,65,0,5
0,65,46,8
0,61,0,4
0,61,0,3
0,61,48,0
0,56,0,2
0,56,57,0
0,42,47,2
0,65,109,0
0,87,62,0
0,42,0,4
0,53,0,1
0,53,57,0
0,65,0,14
0,61,106,5
0,87,0,5
0,61,0,12
0,65,109,7
0,65,0,19
0,61,101,5
0,53,0,16
0,53,64,0
0,61,0,1
0,56,0,3
0,56,64,0
0,34,0,3
0,61,0,0
0,65,0,0
0,85,0,0
0,89,0,0
0,32,114,1
0,37,119,0
0,42,78,0
0,63,105,0
0,66,109,0
0,66,105,0
0,87,65,0
0,87,73,0
0,90,72,0
0,61,0,1
0,61,64,0
0,37,0,3
0,42,0,0
0,65,0,1
0,65,61,0
0,66,0,14
0,63,97,5
0,87,0,15
0,63,0,2
0,66,109,0
0,66,0,19
0,63,100,5
0,65,0,14
0,65,45,0
0,63,0,3
0,61,0,3
0,61,47,0
0,42,60,4
0,56,0,0
0,56,44,0
0,66,109,0
0,87,55,0
0,42,0,4
0,53,0,2
0,53,45,0
0,66,0,13
0,63,101,5
0,87,0,1
0,63,0,16
0,66,109,7
0,66,0,19
0,63,106,5
0,32,0,1
0,56,0,16
0,63,0,0
0,61,0,4
0,53,0,1
0,65,0,0
0,63,0,1
0,66,0,0
0,87,0,0
0,90,0,0
0,25,115,1
0,35,119,0
0,42,55,0
0,53,64,0
0,66,105,0
0,70,109,0
0,70,107,0
0,87,60,0
0,90,73,0
0,94,76,0
0,56,64,2
0,35,0,2
0,42,0,0
0,61,58,2
0,65,62,4
0,70,0,13
0,66,109,1
0,87,0,16
0,66,0,7
0,70,119,1
0,70,0,23
0,66,107,1
0,66,0,23
0,42,49,1
0,70,113,0
0,87,57,0
0,42,0,4
0,65,0,0
0,65,52,0
0,61,0,1
0,61,58,0
0,56,0,5
0,56,60,0
0,53,0,5
0,53,57,0
0,70,0,8
0,66,104,1
0,87,0,10
0,66,0,13
0,70,113,1
0,70,0,23
0,66,105,1
0,66,0,0
0,42,78,1
0,70,117,0
0,87,57,0
0,42,0,4
0,87,0,16
0,70,0,3
0,53,0,69
0,53,64,0
0,25,0,3
0,66,0,0
0,70,0,0
0,90,0,0
0,94,0,0
0,32,111,1
0,35,104,0
0,42,43,0
0,56,0,0
0,56,60,0
0,65,105,0
0,68,111,0
0,68,105,0
0,87,65,0
0,89,73,0
0,92,73,0
0,35,0,4
0,42,0,0
0,61,0,1
0,61,64,0
0,65,0,5
0,65,58,0
0,68,0,13
0,65,102,1
0,87,0,5
0,65,0,18
0,68,109,1
0,68,0,23
0,65,109,1
0,32,0,23
0,65,0,0
0,34,117,1
0,35,111,0
0,42,78,0
0,68,111,0
0,87,55,0
0,35,0,4
0,42,0,0
0,68,0,19
0,65,107,1
0,87,0,1
0,65,0,22
0,68,113,1
0,68,0,23
0,65,104,1
0,65,0,5
0,65,46,8
0,65,0,4
0,61,0,3
0,61,48,0
0,56,0,2
0,56,57,0
0,65,0,1
0,68,0,0
0,89,0,0
0,92,0,0
0,42,42,1
0,64,105,0
0,67,113,0
0,67,105,0
0,87,62,0
0,88,71,0
0,91,72,0
0,42,0,4
0,53,0,1
0,53,57,0
0,67,0,18
0,64,102,1
0,87,0,5
0,64,0,18
0,67,111,1
0,67,0,23
0,64,97,1
0,34,0,11
0,53,0,5
0,53,64,0
0,56,0,4
0,56,64,0
0,64,0,3
0,64,0,0
0,67,0,0
0,88,0,0
0,91,0,0
0,32,109,1
0,37,120,0
0,42,78,0
0,65,106,0
0,68,107,0
0,68,107,0
0,87,65,0
0,89,72,0
0,92,71,0
0,61,0,1
0,61,64,0
0,37,0,3
0,42,0,0
0,65,0,1
0,65,61,0
0,68,0,18
0,65,104,1
0,87,0,15
0,65,0,8
0,68,104,0
0,68,0,23
0,65,105,1
0,65,0,14
0,65,45,0
0,61,0,6
0,61,47,0
0,65,0,3
0,42,45,1
0,56,0,0
0,56,44,0
0,68,104,0
0,87,55,0
0,42,0,4
0,53,0,2
0,53,45,0
0,68,0,17
0,65,102,1
0,87,0,1
0,65,0,22
0,68,105,1
0,32,0,16
0,68,0,7
0,65,101,1
0,56,0,17
0,61,0,4
0,53,0,1
0,65,0,0
0,65,0,1
0,35,120,1
0,37,107,0
0,42,72,0
0,53,64,0
0,68,99,0
0,87,60,0
0,56,64,2
0,35,0,2
0,42,0,0
0,61,58,2
0,65,62,4
0,68,0,13
0,65,97,1
0,87,0,16
0,65,0,7
0,37,0,1
0,68,102,0
0,68,0,23
0,65,87,1
0,65,0,23
0,65,0,0
0,68,0,0
0,37,113,1
0,42,34,0
0,68,99,0
0,87,57,0
0,42,0,4
0,65,0,0
0,65,52,0
0,61,0,1
0,61,58,0
0,56,0,5
0,56,60,0
0,53,0,5
0,53,57,0
0,68,0,8
0,65,95,1
0,87,0,10
0,65,0,13
0,68,96,1
0,68,0,23
0,65,94,1
0,65,0,0
0,42,85,1
0,68,99,0
0,87,57,0
0,42,0,4
0,87,0,16
0,68,0,3
0,65,96,1
0,65,0,23
0,68,96,1
0,68,0,23
0,65,83,1
0,53,0,20
0,53,64,0
0,37,0,3
0,65,0,0
0,32,115,1
0,35,102,0
0,42,50,0
0,56,0,0
0,56,60,0
0,68,87,0
0,87,65,0
0,35,0,4
0,42,0,0
0,61,0,1
0,61,64,0
0,65,0,5
0,65,58,0
0,68,0,13
0,65,81,1
0,87,0,5
0,65,0,18
0,68,77,1
0,68,0,23
0,65,77,1
0,32,0,23
0,65,0,0
0,34,113,1
0,35,111,0
0,42,78,0
0,68,71,0
0,87,55,0
0,89,0,1
0,35,0,3
0,42,0,0
0,92,0,9
0,68,0,10
0,65,73,1
0,87,0,1
0,65,0,22
0,68,73,1
0,68,0,23
0,65,70,1
0,65,0,5
0,65,46,8
0,65,0,4
0,61,0,3
0,61,48,0
0,56,0,2
0,56,57,0
0,42,47,2
0,68,67,0
0,87,62,0
0,42,0,4
0,53,0,1
0,53,57,0
0,68,0,18
0,65,69,1
0,87,0,5
0,65,0,18
0,53,0,41
0,53,64,0
0,56,0,4
0,56,64,0
0,34,0,3
0,32,114,1
0,37,119,0
0,42,78,0
0,87,65,0
0,61,0,1
0,61,64,0
0,37,0,3
0,42,0,0
0,65,0,1
0,65,61,0
0,87,0,34
0,65,0,38
0,65,45,0
0,61,0,6
0,61,47,0
0,42,60,4
0,56,0,0
0,56,44,0
0,87,55,0
0,42,0,4
0,53,0,2
0,53,45,0
0,87,0,19
0,32,0,48
0,56,0,16
0,61,0,4
0,53,0,1
0,65,0,0
0,25,115,2
0,35,119,0
0,42,55,0
0,53,64,0
0,87,60,0
0,56,64,2
0,35,0,2
0,42,0,0
0,61,58,2
0,65,62,4
0,87,0,30
0,42,49,56
0,65,106,0
0,68,108,0
0,73,117,0
0,77,117,0
0,87,57,0
0,97,76,0
0,101,71,0
0,42,0,4
0,65,0,0
0,65,52,0
0,61,0,1
0,61,58,0
0,56,0,5
0,56,60,0
0,53,0,5
0,53,57,0
0,73,0,8
0,77,0,0
0,87,0,11
0,65,0,0
0,68,0,0
0,97,0,0
0,101,0,0
0,42,78,1
0,65,104,0
0,68,105,0
0,73,117,0
0,77,117,0
0,87,57,0
0,97,73,0
0,101,70,0
0,42,0,4
0,87,0,16
0,73,0,3
0,77,0,0
0,53,0,69
0,53,64,0
0,25,0,3
0,65,0,0
0,68,0,0
0,97,0,0
0,101,0,0
0,32,111,1
0,35,104,0
0,42,43,0
0,56,0,0
0,56,60,0
0,65,107,0
0,68,108,0
0,77,117,0
0,87,65,0
0,97,80,0
0,101,74,0
0,35,0,4
0,42,0,0
0,61,0,1
0,61,64,0
0,65,0,5
0,65,58,0
0,77,0,13
0,73,107,1
0,87,0,5
0,73,0,18
0,77,117,1
0,77,0,23
0,73,109,1
0,32,0,23
0,73,0,0
0,34,117,1
0,35,111,0
0,42,78,0
0,77,117,0
0,87,55,0
0,35,0,4
0,42,0,0
0,77,0,19
0,73,108,1
0,87,0,1
0,73,0,22
0,77,117,1
0,77,0,23
0,73,110,1
0,65,0,5
0,65,46,8
0,61,0,7
0,61,48,0
0,56,0,2
0,56,57,0
0,65,0,1
0,68,0,0
0,73,0,0
0,97,0,0
0,101,0,0
0,42,42,1
0,63,106,0
0,66,105,0
0,72,117,0
0,75,117,0
0,87,62,0
0,96,72,0
0,99,73,0
0,42,0,4
0,53,0,1
0,53,57,0
0,72,0,18
0,75,0,0
0,87,0,6
0,34,0,54
0,53,0,5
0,53,64,0
0,56,0,4
0,56,64,0
0,63,0,3
0,66,0,0
0,96,0,0
0,99,0,0
0,32,109,1
0,37,120,0
0,42,78,0
0,63,107,0
0,66,107,0
0,72,110,0
0,75,117,0
0,87,65,0
0,96,72,0
0,99,72,0
0,61,0,1
0,61,64,0
0,37,0,3
0,42,0,0
0,65,0,1
0,65,61,0
0,72,0,18
0,75,0,0
0,87,0,16
0,65,0,38
0,65,45,0
0,61,0,6
0,61,47,0
0,63,0,3
0,66,0,0
0,96,0,0
0,99,0,0
0,42,45,1
0,56,0,0
0,56,44,0
0,63,109,0
0,66,110,0
0,75,117,0
0,87,55,0
0,96,76,0
0,99,74,0
0,42,0,4
0,53,0,2
0,53,45,0
0,75,0,17
0,72,108,1
0,87,0,1
0,72,0,22
0,75,117,1
0,32,0,16
0,75,0,7
0,72,108,1
0,56,0,17
0,61,0,4
0,53,0,1
0,65,0,0
0,72,0,1
0,35,120,1
0,37,107,0
0,42,72,0
0,53,64,0
0,75,108,0
0,87,60,0
0,56,64,2
0,35,0,2
0,42,0,0
0,61,58,2
0,65,62,4
0,75,0,13
0,72,108,1
0,87,0,16
0,72,0,7
0,37,0,1
0,75,108,0
0,75,0,23
0,72,108,1
0,63,0,23
0,66,0,0
0,72,0,0
0,96,0,0
0,99,0,0
0,37,113,1
0,42,34,0
0,61,105,0
0,65,109,0
0,68,117,0
0,73,117,0
0,87,57,0
0,92,76,0
0,97,74,0
0,42,0,4
0,65,0,0
0,65,52,0
0,61,0,1
0,61,58,0
0,56,0,5
0,56,60,0
0,53,0,5
0,53,57,0
0,68,0,8
0,73,0,0
0,87,0,11
0,61,0,0
0,65,0,0
0,92,0,0
0,97,0,0
0,42,85,1
0,61,106,0
0,65,110,0
0,68,117,0
0,73,117,0
