track,note,velocity,time
0,61,67,32
0,73,71,0
0,66,74,191
0,78,78,1
0,65,50,176
0,77,54,0
0,68,82,176
0,80,86,0
0,66,67,176
0,78,71,0
0,85,65,11
0,70,91,0
0,82,95,0
0,54,83,0
0,30,80,0
0,70,64,0
0,78,64,0
0,73,64,0
0,66,64,0
0,58,73,192
0,61,83,16
0,61,74,180
0,73,78,0
0,66,74,0
0,61,91,0
0,73,95,0
0,70,73,0
0,66,67,192
0,61,74,160
0,58,62,0
0,56,87,0
0,30,80,0
0,73,64,0
0,54,64,0
0,77,64,0
0,68,64,0
0,61,74,176
0,65,67,16
0,61,74,192
0,73,78,0
0,68,61,0
0,66,67,4
0,78,71,0
0,73,70,0
0,68,67,160
0,80,71,0
0,68,66,0
0,70,67,0
0,82,71,0
0,65,66,0
0,73,53,0
0,85,57,0
0,61,64,0
0,30,80,0
0,75,64,16
0,66,64,0
0,73,82,4
0,85,86,0
0,54,80,0
0,30,80,0
0,71,64,8
0,59,66,180
0,63,67,188
0,66,61,0
0,78,65,0
0,66,68,0
0,78,65,0
0,66,82,100
0,78,86,0
0,71,66,0
0,66,74,100
0,63,68,160
0,59,61,0
0,30,80,80
0,74,64,0
0,54,76,4
0,59,58,144
0,62,59,196
0,61,74,144
0,73,78,0
0,66,62,0
0,73,74,32
0,68,74,0
0,80,78,0
0,71,67,0
0,80,67,0
0,66,57,160
0,78,61,0
0,66,71,0
0,78,65,0
0,83,72,144
0,62,63,16
0,71,78,4
0,83,82,0
0,70,82,0
0,82,86,0
0,59,57,0
0,42,80,0
0,82,74,0
0,61,64,64
0,73,64,0
0,73,93,0
0,85,97,0
0,54,78,0
0,37,80,0
0,85,67,0
0,66,64,0
0,70,64,0
0,58,62,160
0,61,74,192
0,70,91,84
0,82,95,0
0,66,76,0
0,68,74,0
0,80,78,0
0,70,72,0
0,66,74,16
0,78,78,0
0,66,68,0
0,65,71,160
0,77,75,0
0,61,68,0
0,66,74,0
0,78,78,0
0,58,68,0
0,37,80,0
0,73,91,52
0,85,95,0
0,54,76,0
0,37,80,0
0,58,68,144
0,61,73,192
0,66,73,160
0,70,73,180
0,66,66,0
0,66,74,160
0,78,78,0
0,61,67,0
0,78,65,12
0,58,63,80
0,32,80,0
0,80,65,32
0,68,74,4
0,80,78,0
0,54,66,0
0,37,80,0
0,71,64,0
0,75,64,0
0,66,64,0
0,59,61,180
0,63,73,188
0,66,78,148
0,71,64,148
0,66,70,160
0,66,91,112
0,78,95,0
0,63,70,0
0,59,63,0
0,32,80,0
0,65,78,0
0,77,82,0
0,65,65,0
0,61,66,0
0,56,71,0
0,37,80,0
0,68,64,4
0,61,64,0
0,65,64,4
0,73,64,0
0,61,92,52
0,66,92,16
0,65,83,0
0,42,64,160
0,68,96,32
0,42,64,0
0,46,68,0
0,66,92,0
0,54,83,0
0,30,80,0
0,42,49,0
0,36,80,0
0,49,64,0
0,70,96,0
0,70,64,0
0,78,64,0
0,73,64,0
0,58,72,0
0,42,40,0
0,61,83,128
0,42,52,0
0,36,80,32
0,66,71,4
0,30,80,0
0,42,41,0
0,61,100,12
0,66,71,64
0,70,68,0
0,30,80,0
0,42,41,0
0,36,80,0
0,61,100,0
0,61,70,64
0,42,38,0
0,66,67,112
0,42,49,0
0,37,114,0
0,61,60,96
0,42,38,0
0,54,55,116
0,30,80,0
0,42,49,0
0,36,80,0
0,58,78,0
0,42,39,0
0,61,95,128
0,42,54,0
0,66,66,112
0,30,80,0
0,61,92,0
0,42,38,0
0,36,80,0
0,66,87,0
0,66,71,4
0,70,68,0
0,30,80,0
0,42,60,0
0,36,80,0
0,61,78,0
0,65,79,0
0,42,34,0
0,66,63,128
0,58,58,0
0,68,96,0
0,42,62,0
0,37,111,0
0,61,57,0
0,66,87,0
0,44,51,0
0,82,64,0
0,56,78,4
0,32,80,0
0,42,51,0
0,36,80,0
0,70,87,4
0,71,64,0
0,75,64,0
0,42,38,96
0,59,72,128
0,42,49,0
0,63,70,116
0,32,80,0
0,42,44,0
0,36,80,0
0,80,64,0
0,71,81,8
0,68,85,0
0,36,80,0
0,68,63,4
0,32,80,0
0,42,53,0
0,59,57,96
0,42,41,0
0,63,61,128
0,42,52,0
0,37,114,0
0,68,59,64
0,42,43,0
0,56,73,16
0,70,65,0
0,61,74,0
0,32,80,0
0,42,52,0
0,36,80,0
0,42,40,112
0,42,48,132
0,63,76,48
0,71,67,0
0,32,80,0
0,63,61,0
0,42,42,0
0,36,80,0
0,68,73,16
0,68,62,16
0,59,75,0
0,32,80,0
0,42,53,0
0,36,80,0
0,63,61,80
0,68,92,0
0,42,41,0
0,70,100,0
0,59,63,16
0,42,57,0
0,37,107,0
0,68,80,64
0,44,54,4
0,63,55,4
0,71,78,0
0,78,64,48
0,37,80,16
0,42,50,0
0,36,80,0
0,71,64,0
0,75,64,0
0,71,69,112
0,42,44,0
0,66,70,112
0,42,55,0
0,71,93,0
0,36,80,0
0,63,67,4
0,37,80,0
0,42,39,0
0,61,64,112
0,37,80,0
0,73,125,0
0,42,53,0
0,36,80,0
0,63,64,96
0,42,40,0
0,71,96,16
0,66,59,112
0,42,55,0
0,37,112,0
0,70,125,4
0,71,59,64
0,44,54,0
0,68,96,0
0,68,64,0
0,77,64,0
0,73,64,0
0,37,80,4
0,42,57,0
0,36,80,0
0,71,86,32
0,73,71,112
0,42,40,0
0,68,70,128
0,42,56,0
0,65,66,80
0,37,80,0
0,71,96,0
0,42,41,0
0,36,80,0
0,73,117,48
0,61,73,4
0,37,80,0
0,42,54,0
0,36,80,0
0,65,60,0
0,71,91,0
0,42,34,0
0,68,67,64
0,70,125,0
0,42,61,0
0,37,113,0
0,65,54,0
0,68,104,0
0,42,41,0
0,78,64,0
0,73,64,0
0,70,64,0
0,73,60,20
0,78,54,0
0,70,57,0
0,30,80,0
0,78,65,0
0,42,57,0
0,36,80,0
0,70,125,0
0,42,37,116
0,42,50,128
0,30,80,16
0,42,37,0
0,36,80,0
0,61,117,12
0,36,80,96
0,30,80,4
0,42,50,0
0,61,110,12
0,73,64,16
0,56,61,0
0,61,50,0
0,65,51,0
0,73,58,0
0,77,56,0
0,68,56,0
0,37,80,0
0,77,68,0
0,42,39,0
0,68,64,0
0,77,64,0
0,37,114,16
0,42,47,4
0,75,65,48
0,54,61,4
0,59,56,0
0,63,46,0
0,75,49,0
0,66,57,0
0,71,58,0
0,37,80,0
0,44,53,0
0,75,64,0
0,66,64,0
0,71,64,0
0,54,65,16
0,58,69,0
0,61,61,0
0,70,56,0
0,66,55,0
0,73,53,0
0,30,80,0
0,73,65,0
0,42,57,0
0,36,80,0
0,66,64,0
0,73,64,0
0,70,64,0
0,61,100,96
0,66,92,0
0,42,57,160
0,65,74,4
0,42,62,0
0,68,104,48
0,44,66,0
0,42,68,0
0,66,87,12
0,54,65,0
0,54,71,0
0,30,80,0
0,54,49,0
0,58,53,0
0,61,106,0
0,58,65,0
0,66,65,0
0,73,65,0
0,42,48,0
0,36,80,0
0,49,64,0
0,78,64,0
0,70,64,0
0,73,64,0
0,70,92,8
0,61,73,96
0,42,35,0
0,66,68,64
0,42,47,0
0,37,99,0
0,73,74,0
0,30,80,0
0,42,47,0
0,36,80,0
0,61,104,8
0,75,69,64
0,70,67,16
0,30,80,0
0,63,115,0
0,61,104,0
0,42,51,0
0,36,80,0
0,61,70,64
0,42,36,0
0,66,80,144
0,42,57,0
0,37,112,0
0,70,66,128
0,42,38,0
0,54,70,0
0,30,80,0
0,42,51,0
0,36,80,0
0,65,102,12
0,77,65,0
0,61,64,80
0,42,40,0
0,66,67,12
0,42,51,0
0,37,107,0
0,70,100,16
0,70,62,16
0,30,80,0
0,42,45,0
0,36,80,0
0,66,115,16
0,78,65,0
0,70,100,0
0,61,70,4
0,30,80,0
0,42,55,0
0,36,80,0
0,66,67,32
0,42,39,0
0,70,92,16
0,61,65,16
0,42,56,0
0,37,112,0
0,70,85,0
0,66,62,16
0,44,50,0
0,70,87,0
0,56,65,0
0,63,65,0
0,71,65,0
0,56,62,4
0,68,70,0
0,32,80,0
0,56,62,0
0,42,57,0
0,36,80,0
0,75,64,0
0,63,68,4
0,59,74,0
0,71,64,0
0,82,64,0
0,80,64,0
0,70,96,0
0,82,64,0
0,59,54,52
0,42,43,0
0,63,64,112
0,42,55,0
0,37,105,0
0,68,57,32
0,32,80,0
0,68,96,0
0,42,45,0
0,36,80,0
0,80,64,0
0,68,104,64
0,36,80,0
0,75,64,4
0,32,80,0
0,42,53,0
0,71,56,96
0,42,46,0
0,68,57,132
0,42,62,0
0,37,111,0
0,63,72,16
0,42,45,0
0,71,69,64
0,56,72,0
0,83,66,0
0,32,80,0
0,42,58,0
0,36,80,0
0,70,69,64
0,82,74,0
0,42,42,0
0,37,112,0
0,68,61,4
0,80,74,0
0,42,60,0
0,66,54,0
0,78,68,0
0,32,80,0
0,70,100,0
0,42,43,0
0,36,80,0
0,56,67,0
0,68,57,0
0,63,65,0
0,80,67,0
0,32,80,0
0,70,110,0
0,42,53,0
0,36,80,0
0,66,50,0
0,78,67,0
0,71,93,0
0,42,41,0
0,65,69,0
0,77,65,0
0,75,65,0
0,70,125,0
0,42,57,0
0,37,113,0
0,68,100,0
0,63,57,4
0,75,67,0
0,44,49,0
0,71,93,0
0,78,64,0
0,59,74,0
0,59,61,0
0,71,65,0
0,37,80,0
0,54,68,0
0,71,65,0
0,42,49,0
0,36,80,0
0,71,64,0
0,75,64,0
0,59,77,4
0,63,85,0
0,63,60,16
0,42,43,0
0,66,74,128
0,42,61,0
0,37,110,0
0,71,58,0
0,37,80,0
0,42,45,0
0,36,80,0
0,37,80,16
0,71,93,0
0,42,56,0
0,36,80,0
0,71,64,48
0,71,104,0
0,42,43,0
0,66,73,0
0,73,104,0
0,42,62,0
0,37,113,0
0,63,62,16
0,32,80,0
0,70,89,0
0,42,40,0
0,73,64,16
0,77,64,0
0,65,95,0
0,61,98,0
0,73,65,0
0,71,91,0
0,68,64,0
0,37,80,4
0,65,65,0
0,42,58,0
0,36,80,0
0,56,65,8
0,61,60,0
0,42,42,0
0,65,68,144
0,42,60,0
0,37,114,0
0,68,67,96
0,63,61,0
0,37,80,0
0,71,93,0
0,42,46,0
0,36,80,0
0,37,80,52
0,42,57,0
0,36,80,0
0,73,117,8
0,61,71,36
0,42,42,0
0,71,93,12
0,42,62,0
0,37,114,0
0,70,110,0
0,61,58,48
0,42,42,0
0,68,100,0
0,78,64,32
0,70,64,0
0,73,64,0
0,58,65,16
0,66,65,0
0,54,67,4
0,70,71,0
0,30,80,0
0,42,62,0
0,36,80,0
0,58,81,4
0,66,70,0
0,70,65,0
0,70,117,0
0,42,42,80
0,66,63,4
0,78,65,12
0,58,50,128
0,42,63,0
0,37,112,0
0,61,74,64
0,30,80,0
0,42,45,0
0,36,80,0
0,61,110,8
0,73,60,96
0,30,80,0
0,42,51,0
0,36,80,0
0,61,110,16
0,77,65,84
0,70,63,0
0,42,40,0
0,66,66,100
0,42,57,0
0,37,111,0
0,61,67,0
0,37,80,0
0,75,65,0
0,42,45,0
0,54,66,0
0,30,80,0
0,61,65,0
0,73,65,0
0,42,54,0
0,36,80,0
0,61,64,112
0,70,61,0
0,66,62,0
0,42,41,0
0,42,61,132
0,37,111,0
0,36,80,32
0,70,45,4
0,61,59,0
0,66,61,0
0,30,80,0
0,42,44,0
0,48,72,0
0,70,96,12
0,66,78,64
0,70,71,0
0,61,83,0
0,30,80,0
0,70,96,0
0,42,43,0
0,36,80,0
0,48,77,0
0,70,74,64
0,66,83,0
0,61,91,0
0,70,110,0
0,42,48,0
0,45,74,0
0,70,78,68
0,66,91,0
0,61,95,0
0,42,55,0
0,37,111,0
0,45,72,0
0,70,100,0
0,44,58,48
0,70,87,4
0,61,101,0
0,66,95,0
0,37,80,0
0,41,60,0
0,41,57,0
0,63,73,0
0,68,72,0
0,71,75,0
0,30,80,0
0,68,65,0
0,71,65,0
0,75,65,0
0,80,65,0
0,71,96,0
0,42,53,0
0,36,80,0
0,49,64,0
0,83,64,0
0,80,64,0
0,75,64,0
0,63,77,0
0,59,81,0
0,68,77,0
0,71,55,30
0,68,63,0
0,42,48,0
0,68,62,48
0,71,58,0
0,42,60,16
0,40,77,0
0,70,60,16
0,61,62,0
0,66,58,0
0,70,63,0
0,66,53,0
0,30,80,0
0,70,104,0
0,42,53,0
0,36,80,0
0,82,64,4
0,78,64,12
0,73,64,0
0,66,65,12
0,66,66,0
0,58,91,0
0,61,77,0
0,70,65,0
0,73,65,0
0,78,65,0
0,70,68,4
0,66,58,0
0,70,64,16
0,61,70,0
0,66,66,0
0,30,80,0
0,42,61,0
0,36,80,0
0,70,70,16
0,66,58,0
0,82,58,0
0,78,55,0
0,42,45,0
0,70,73,16
0,66,56,0
0,80,64,16
0,83,54,0
0,42,70,0
0,40,84,0
0,82,44,4
0,78,57,0
0,54,61,16
0,70,63,0
0,66,45,0
0,80,68,0
0,83,54,0
0,42,51,0
0,70,70,32
0,66,55,0
0,61,83,4
0,78,45,0
0,82,49,0
0,30,80,0
0,42,68,0
0,36,80,0
0,66,68,16
0,70,63,0
0,66,49,0
0,70,110,0
0,42,48,0
0,70,73,48
0,66,60,0
0,70,110,0
0,42,68,0
0,40,87,0
0,70,87,0
0,54,59,4
0,70,73,0
0,66,54,0
0,30,80,0
0,42,57,0
0,36,80,0
0,70,85,0
0,66,60,0
0,70,96,0
0,61,64,68
0,30,80,0
0,42,63,0
0,36,80,0
0,73,67,36
0,70,63,0
0,66,43,0
0,42,50,0
0,70,104,8
0,70,73,32
0,66,54,0
0,70,65,0
0,42,66,0
0,40,79,0
0,66,65,32
0,61,72,16
0,70,68,0
0,66,56,0
0,44,52,0
0,70,96,0
0,66,63,0
0,70,66,0
0,56,71,0
0,68,66,0
0,32,80,0
0,63,85,0
0,59,85,0
0,63,65,0
0,68,65,0
0,71,65,0
0,42,57,0
0,36,80,0
0,80,64,0
0,75,64,0
0,71,64,0
0,71,84,4
0,42,52,16
0,68,62,4
0,71,55,0
0,70,92,0
0,68,61,52
0,71,54,0
0,63,59,32
0,42,64,0
0,40,82,0
0,68,96,0
0,59,54,32
0,68,61,0
0,71,55,0
0,32,80,0
0,42,52,0
0,36,80,0
0,68,61,16
0,71,56,0
0,63,104,4
0,32,80,0
0,42,61,0
0,36,80,0
0,56,60,16
0,68,60,0
0,71,49,0
0,42,47,0
0,68,55,16
0,71,55,0
0,75,65,32
0,63,57,4
0,42,63,0
0,40,77,0
0,70,71,0
0,75,70,0
0,68,56,0
0,71,44,0
0,42,44,0
0,71,60,16
0,68,55,0
0,71,54,0
0,68,67,16
0,83,41,0
0,87,46,0
0,32,80,0
0,42,63,0
0,36,80,0
0,71,53,16
0,68,61,0
0,85,37,0
0,80,53,0
0,42,45,0
0,68,110,0
0,68,60,32
0,71,56,0
0,40,82,0
0,56,71,4
0,78,51,0
0,83,43,0
0,42,64,0
0,63,61,32
0,68,58,0
0,71,50,0
0,80,54,0
0,75,47,0
0,32,80,0
0,68,104,0
0,42,49,0
0,36,80,0
0,68,60,16
0,71,56,0
0,71,59,32
0,78,50,0
0,75,46,0
0,32,80,0
0,68,104,0
0,42,58,0
0,36,80,0
0,68,55,12
0,71,45,0
0,68,51,0
0,68,96,0
0,42,42,0
0,68,60,0
0,71,57,0
0,63,60,16
0,68,100,0
0,42,62,0
0,40,82,0
0,68,53,0
0,56,61,4
0,68,60,0
0,71,52,0
0,32,80,0
0,44,55,0
0,68,62,0
0,71,58,0
0,37,80,0
0,63,70,0
0,59,77,0
0,66,64,0
0,66,65,0
0,78,65,0
0,42,54,0
0,36,80,0
0,78,64,0
0,71,64,0
0,75,64,0
0,70,110,0
0,59,63,80
0,71,48,0
0,66,44,0
0,42,39,0
0,71,50,48
0,66,55,0
0,63,71,48
0,42,63,0
0,40,82,0
0,71,64,36
0,71,50,0
0,66,49,0
0,37,80,0
