track,note,velocity,time
0,70,46,0
0,82,37,0
0,79,30,0
0,87,32,0
0,70,56,0
0,75,58,0
0,67,50,0
0,82,35,98
0,77,28,0
0,86,30,0
0,70,48,2
0,65,47,0
0,74,50,0
0,58,97,0
0,62,76,196
0,65,80,156
0,70,82,168
0,82,35,142
0,77,26,0
0,86,29,2
0,70,65,0
0,74,52,0
0,86,30,138
0,77,27,2
0,65,28,0
0,82,37,0
0,70,61,2
0,74,56,0
0,84,23,16
0,77,22,0
0,81,20,2
0,65,33,0
0,69,45,0
0,72,44,0
0,57,81,382
0,60,68,184
0,65,70,140
0,69,71,176
0,63,64,0
0,72,64,0
0,77,21,18
0,81,26,0
0,44,58,2
0,69,45,0
0,36,86,10
0,82,16,0
0,74,16,0
0,70,18,0
0,82,67,0
0,86,53,0
0,42,44,0
0,46,80,0
0,62,46,2
0,62,29,0
0,70,17,0
0,65,41,2
0,74,64,0
0,65,64,8
0,82,67,40
0,42,20,0
0,86,52,2
0,62,23,0
0,37,45,16
0,77,50,2
0,82,55,0
0,42,21,0
0,63,31,0
0,36,73,68
0,42,29,0
0,82,63,2
0,86,49,0
0,46,73,0
0,62,42,2
0,62,64,4
0,70,64,0
0,63,64,4
0,72,64,4
0,36,78,2
0,42,30,0
0,46,73,0
0,74,64,6
0,65,64,2
0,42,19,60
0,82,60,2
0,86,49,0
0,62,27,0
0,37,39,120
0,42,28,0
0,64,34,2
0,42,21,58
0,41,67,0
0,77,50,2
0,82,51,0
0,62,30,0
0,36,91,130
0,42,29,0
0,46,58,0
0,82,55,2
0,86,49,0
0,42,25,40
0,82,54,2
0,86,49,0
0,62,39,0
0,37,35,116
0,42,29,0
0,82,50,2
0,77,49,0
0,63,35,0
0,36,68,56
0,42,29,0
0,82,54,2
0,86,49,0
0,46,61,0
0,62,50,2
0,36,85,96
0,42,33,2
0,64,32,0
0,46,64,0
0,42,27,48
0,86,49,2
0,82,55,0
0,62,55,0
0,63,64,2
0,72,64,12
0,62,64,6
0,70,64,12
0,37,31,0
0,77,49,2
0,82,49,0
0,42,31,0
0,63,38,0
0,60,64,2
0,69,64,2
0,42,22,56
0,41,57,0
0,79,49,2
0,62,42,0
0,63,64,6
0,72,64,2
0,36,85,6
0,62,14,0
0,65,10,0
0,70,20,0
0,82,53,2
0,42,33,0
0,46,56,0
0,86,49,2
0,62,55,0
0,70,64,0
0,62,64,0
0,42,28,12
0,82,49,2
0,86,49,0
0,62,39,0
0,37,35,112
0,42,28,0
0,77,49,2
0,82,49,0
0,63,35,0
0,63,64,4
0,72,64,0
0,36,75,22
0,42,31,0
0,86,49,2
0,82,49,0
0,46,53,0
0,62,50,2
0,62,64,34
0,70,64,4
0,69,64,12
0,60,64,8
0,62,64,62
0,36,87,8
0,42,31,0
0,46,57,0
0,70,64,2
0,42,27,64
0,82,50,2
0,86,49,0
0,62,37,0
0,37,35,124
0,42,33,0
0,64,30,2
0,42,28,56
0,41,64,0
0,82,52,2
0,77,49,0
0,62,22,0
0,36,83,52
0,42,35,0
0,46,55,0
0,82,49,2
0,86,49,0
0,42,30,44
0,82,49,2
0,86,49,0
0,62,24,0
0,37,39,124
0,42,30,0
0,82,49,2
0,77,49,0
0,63,42,0
0,36,64,76
0,42,29,0
0,82,58,2
0,86,49,0
0,46,61,0
0,62,23,2
0,36,73,84
0,42,35,2
0,46,59,0
0,37,31,56
0,42,23,0
0,82,51,2
0,86,49,0
0,62,29,0
0,60,64,20
0,69,64,2
0,65,21,14
0,69,29,0
0,37,35,2
0,42,33,0
0,60,17,0
0,81,49,2
0,77,49,0
0,64,32,0
0,36,79,26
0,42,23,0
0,82,51,2
0,77,49,0
0,41,58,0
0,62,24,2
0,62,74,0
0,36,81,2
0,70,29,0
0,62,18,0
0,65,22,0
0,84,49,2
0,42,33,0
0,46,56,0
0,63,31,2
0,62,74,66
0,42,22,6
0,82,53,2
0,86,49,0
0,63,38,0
0,37,39,132
0,42,30,0
0,82,49,2
0,77,49,0
0,62,25,0
0,62,74,84
0,36,55,12
0,42,27,0
0,82,55,2
0,86,49,0
0,46,53,0
0,64,30,2
0,36,75,90
0,42,29,0
0,46,55,0
0,42,28,70
0,86,49,2
0,82,49,0
0,64,24,0
0,37,35,124
0,42,31,0
0,77,49,2
0,86,49,0
0,63,74,6
0,36,57,4
0,42,23,0
0,79,49,2
0,86,49,0
0,46,51,0
0,67,74,2
0,62,25,0
0,82,58,106
0,36,64,0
0,42,29,0
0,46,56,0
0,86,49,2
0,42,23,4
0,82,53,2
0,86,49,0
0,64,25,0
0,65,74,2
0,37,39,136
0,42,24,0
0,82,49,2
0,77,49,0
0,62,37,0
0,36,68,78
0,42,27,0
0,82,56,2
0,86,49,0
0,46,55,0
0,63,38,2
0,36,73,2
0,42,29,0
0,46,57,0
0,63,74,10
0,44,40,92
0,82,51,2
0,86,49,0
0,63,46,0
0,37,39,8
0,62,17,0
0,62,74,2
0,63,33,20
0,67,22,0
0,36,57,2
0,44,37,0
0,70,29,0
0,46,58,0
0,82,52,2
0,77,49,0
0,64,23,0
0,62,74,4
0,36,68,6
0,42,31,0
0,39,64,0
0,82,55,2
0,87,50,0
0,62,46,0
0,42,24,92
0,82,49,2
0,87,49,0
0,62,25,0
0,63,74,36
0,37,39,8
0,42,29,0
0,79,49,2
0,82,49,0
0,63,38,0
0,63,74,72
0,36,57,4
0,42,29,0
0,82,51,2
0,87,49,0
0,39,72,0
0,62,27,2
0,36,67,104
0,42,29,2
0,39,76,0
0,42,29,80
0,87,51,2
0,82,52,0
0,62,25,0
0,37,35,120
0,42,31,0
0,82,55,2
0,87,49,0
0,64,34,0
0,36,60,70
0,42,28,0
0,82,49,2
0,79,49,0
0,39,64,0
0,63,38,2
0,36,64,92
0,82,58,2
0,42,31,0
0,39,70,0
0,87,49,2
0,62,24,0
0,42,28,92
0,87,49,2
0,82,49,0
0,62,24,0
0,37,39,124
0,42,33,0
0,82,49,2
0,79,49,0
0,63,50,0
0,36,57,76
0,42,28,0
0,87,55,2
0,82,55,0
0,39,63,0
0,64,24,2
0,36,64,96
0,42,30,2
0,39,64,0
0,42,29,88
0,82,51,2
0,87,55,0
0,62,37,0
0,37,35,120
0,42,37,0
0,82,49,2
0,79,49,0
0,63,46,0
0,36,57,12
0,42,31,0
0,79,49,2
0,82,49,0
0,39,67,0
0,64,30,2
0,36,64,6
0,60,23,0
0,65,27,0
0,69,37,0
0,84,49,2
0,42,33,0
0,41,60,0
0,60,74,2
0,81,49,0
0,62,39,0
0,42,29,92
0,84,49,2
0,81,49,0
0,62,29,0
0,60,74,6
0,37,31,120
0,42,31,0
0,81,49,2
0,77,49,0
0,63,50,0
0,60,74,44
0,36,60,6
0,42,33,0
0,81,49,2
0,84,49,0
0,41,52,0
0,64,34,2
0,36,68,98
0,42,35,0
0,41,58,0
0,42,31,92
0,81,49,2
0,84,49,0
0,62,46,0
0,62,74,100
0,37,39,8
0,42,35,0
0,65,74,16
0,36,60,12
0,42,30,0
0,81,49,2
0,77,49,0
0,36,58,0
0,62,46,2
0,36,64,8
0,81,49,2
0,42,33,0
0,41,55,0
0,84,49,2
0,63,50,0
0,63,74,88
0,42,28,0
0,81,49,2
0,77,49,0
0,63,42,0
0,37,39,124
0,42,33,0
0,81,49,2
0,84,49,0
0,62,39,0
0,36,52,56
0,42,33,0
0,81,49,2
0,84,49,0
0,41,53,0
0,64,37,2
0,36,60,2
0,42,30,0
0,41,58,0
0,62,74,6
0,42,29,92
0,77,49,2
0,81,49,0
0,62,25,0
0,37,39,4
0,42,29,0
0,63,46,2
0,60,74,2
0,36,48,58
0,42,25,0
0,81,49,2
0,84,49,0
0,41,51,0
0,64,27,2
0,67,74,4
0,36,68,4
0,67,28,0
0,70,37,0
0,75,34,0
0,82,49,2
0,42,35,0
0,46,59,0
0,86,49,2
0,62,25,0
0,42,25,88
0,87,55,2
0,82,61,0
0,62,23,0
0,37,35,124
0,42,24,0
0,82,49,2
0,63,35,0
0,65,74,76
0,65,28,4
0,70,29,0
0,36,52,2
0,42,31,0
0,74,31,0
0,82,61,2
0,86,51,0
0,64,37,0
0,46,46,0
0,36,64,96
0,42,22,2
0,46,53,0
0,42,23,70
0,82,56,2
0,86,49,0
0,62,24,0
0,37,39,124
0,42,35,0
0,82,49,2
0,77,49,0
0,63,50,0
0,62,74,2
0,42,30,20
0,82,61,2
0,86,49,0
0,64,21,0
0,46,49,0
0,70,32,122
0,36,60,2
0,42,33,0
0,65,26,0
0,74,26,0
0,82,60,2
0,86,49,0
0,41,58,0
0,62,74,2
0,62,23,0
0,42,27,60
0,77,49,2
0,82,49,0
0,62,22,0
0,37,39,124
0,42,29,0
0,82,49,2
0,86,49,0
0,63,42,0
0,65,15,66
0,72,20,0
0,69,25,0
0,36,66,2
0,42,29,0
0,41,58,0
0,60,74,2
0,84,54,0
0,81,54,0
0,36,71,104
0,42,29,2
0,64,25,0
0,41,55,0
0,44,29,80
0,84,49,2
0,81,49,0
0,62,34,0
0,37,35,124
0,42,31,0
0,62,37,24
0,60,74,10
0,44,37,8
0,77,49,2
0,81,49,0
0,63,56,0
0,41,62,0
0,62,74,112
0,36,60,2
0,70,21,0
0,74,22,0
0,65,21,0
0,82,49,2
0,42,30,0
0,46,60,0
0,86,49,2
0,64,37,0
0,62,74,28
0,42,25,12
0,86,49,2
0,82,60,0
0,62,46,0
0,37,35,120
0,42,30,0
0,82,49,2
0,77,49,0
0,63,50,0
0,62,74,64
0,36,48,12
0,42,29,0
0,82,55,2
0,86,49,0
0,46,52,0
0,64,37,2
0,36,66,84
0,42,28,2
0,46,55,0
0,42,25,56
0,82,59,2
0,86,49,0
0,62,39,0
0,63,74,92
0,37,35,4
0,42,30,0
0,82,58,2
0,86,49,0
0,63,50,0
0,42,27,10
0,82,55,2
0,77,49,0
0,62,24,0
0,41,59,0
0,67,74,2
0,36,60,2
0,42,31,0
0,46,56,0
0,65,74,52
0,42,30,4
0,82,62,2
0,86,55,0
0,62,42,0
0,37,31,124
0,42,30,0
0,82,52,2
0,77,52,0
0,36,57,80
0,42,31,0
0,82,56,2
0,86,55,0
0,46,55,0
0,64,42,2
0,63,74,80
0,36,60,2
0,42,35,0
0,46,47,0
0,42,29,78
0,86,49,2
0,82,59,0
0,62,24,0
0,37,35,28
0,42,31,0
0,82,55,2
0,86,50,0
0,63,56,0
0,62,74,6
0,36,55,48
0,42,29,0
0,82,56,2
0,77,50,0
0,46,55,0
0,64,29,2
0,62,74,8
0,36,68,106
0,67,24,0
0,70,22,0
0,75,33,0
0,87,59,2
0,42,33,0
0,39,62,0
0,82,58,2
0,62,30,0
0,42,25,84
0,82,55,2
0,87,49,0
0,62,23,0
0,37,35,28
0,42,29,0
0,82,54,2
0,79,49,0
0,63,50,0
0,63,74,6
0,36,55,66
0,42,29,0
0,82,55,2
0,87,49,0
0,79,49,0
0,39,65,0
0,64,37,2
0,63,74,8
0,36,68,104
0,42,31,2
0,39,61,0
0,67,43,0
0,42,27,68
0,82,56,2
0,79,49,0
0,62,46,0
0,37,39,120
0,42,29,0
0,36,55,58
0,42,25,0
0,87,62,2
0,82,62,0
0,39,58,0
0,63,38,2
0,36,64,116
0,42,29,2
0,39,66,0
0,70,43,0
0,42,29,78
0,82,63,2
0,79,54,0
0,62,25,0
0,37,35,100
0,42,37,0
0,82,55,2
0,79,49,0
0,64,21,0
0,36,57,80
0,42,33,0
0,82,64,2
0,87,56,0
0,39,66,0
0,63,46,2
0,75,56,0
0,36,60,28
0,42,35,2
0,62,25,0
0,51,74,0
0,42,29,24
0,82,64,2
0,87,55,0
0,62,24,0
0,37,39,0
0,82,60,2
0,79,49,0
0,42,37,0
0,50,66,0
0,63,56,2
0,70,46,0
0,79,46,0
0,36,50,46
0,42,30,0
0,82,58,2
0,79,49,0
0,62,21,0
0,67,74,86
0,36,60,4
0,76,16,0
0,67,14,0
0,72,24,0
0,84,54,2
0,42,33,0
0,48,70,0
0,88,49,2
0,62,23,0
0,72,40,0
0,76,35,2
0,67,74,68
0,42,35,8
0,88,49,2
0,84,49,0
0,37,35,32
0,42,33,0
0,84,49,2
0,79,49,0
0,64,34,0
0,36,55,40
0,42,35,0
0,84,49,2
0,88,49,0
0,48,65,0
0,67,74,2
0,63,42,0
0,36,64,90
0,42,30,0
0,48,60,0
0,42,31,78
0,84,49,2
0,88,50,0
0,62,42,0
0,69,74,118
0,37,35,12
0,42,33,0
0,64,34,2
0,70,74,64
0,36,60,0
0,42,31,0
0,79,53,2
0,84,49,0
0,43,55,0
0,64,23,2
0,36,60,110
0,84,49,2
0,42,35,0
0,48,55,0
0,88,49,2
0,62,23,0
0,84,48,0
0,70,74,80
0,42,31,12
0,84,49,2
0,88,49,0
0,62,25,0
0,37,35,132
0,42,33,0
0,84,49,2
0,79,49,0
0,63,42,0
0,36,60,78
0,42,33,0
0,84,50,2
0,88,53,0
0,48,56,0
0,64,23,2
0,82,53,0
0,69,74,8
0,36,64,8
0,42,33,0
0,48,55,0
0,42,29,88
0,84,50,2
0,88,49,0
0,62,46,0
0,63,29,0
0,37,35,8
0,42,30,0
0,64,22,2
0,79,56,0
0,67,74,2
0,36,55,84
0,44,33,0
0,84,49,2
0,79,49,0
0,43,58,0
0,63,50,2
0,67,74,66
0,75,49,14
0,70,46,0
0,65,37,0
0,79,44,0
0,75,34,0
0,70,32,2
0,79,33,0
0,65,28,0
0,36,68,0
0,42,35,0
0,62,39,0
0,41,64,0
0,53,55,2
0,58,51,0
0,63,57,0
0,67,56,2
0,42,29,88
0,82,49,2
0,62,22,0
0,37,39,124
0,42,29,0
0,82,49,2
0,79,49,0
0,64,30,0
0,65,74,12
0,77,39,8
0,69,38,0
0,36,57,2
0,42,37,0
0,72,29,0
0,65,29,0
0,84,49,2
0,79,49,0
0,41,60,0
0,63,50,2
0,60,51,0
0,65,52,0
0,57,48,2
0,36,68,58
0,42,30,0
0,41,62,0
0,42,30,76
0,77,49,2
0,81,49,0
0,84,49,0
0,62,39,0
0,67,74,60
0,70,47,8
0,65,36,0
0,37,39,2
0,42,35,0
0,79,37,0
0,75,43,0
0,64,30,2
0,53,67,0
0,67,41,0
0,63,50,2
0,58,43,0
0,36,52,0
0,42,29,2
0,41,62,0
0,36,72,78
0,42,33,0
0,63,35,0
0,41,60,0
0,65,26,100
0,69,31,0
0,42,35,2
0,72,25,0
0,77,44,0
0,81,37,0
0,84,49,2
0,81,49,0
0,62,29,0
0,65,57,2
0,60,51,0
0,69,63,0
0,69,74,2
0,37,39,120
0,42,33,0
0,36,57,24
0,42,33,0
0,84,49,2
0,77,49,0
0,53,58,0
0,64,37,2
0,70,74,0
0,82,45,4
0,65,28,2
0,70,36,0
0,79,47,0
0,75,32,0
0,36,73,2
0,42,37,0
0,41,63,0
0,70,53,2
0,63,53,0
0,67,58,0
0,42,29,60
0,84,50,2
0,77,49,0
0,41,60,0
0,62,46,2
0,62,1,10
0,72,74,8
0,81,37,4
0,72,26,0
0,37,45,2
0,65,20,0
0,69,28,0
0,84,32,0
0,42,33,2
0,63,56,0
0,53,63,0
0,69,48,2
0,72,52,0
0,65,56,0
0,36,55,20
0,44,37,0
0,89,50,2
0,77,51,0
0,41,65,0
0,64,29,2
0,65,26,36
0,77,28,2
0,69,28,0
0,72,28,0
0,36,76,2
0,42,52,0
0,62,50,0
0,41,72,0
0,65,35,0
0,53,45,0
0,62,11,8
0,89,50,32
0,77,49,0
0,74,74,72
0,65,60,30
0,74,60,0
0,48,36,2
0,48,36,0
0,74,74,38
0,48,42,12
0,74,52,0
0,65,53,0
0,72,74,106
0,63,61,12
0,72,51,0
0,45,42,2
0,70,74,120
0,70,42,16
0,62,46,0
0,41,42,2
0,87,29,24
0,36,77,2
0,82,29,0
0,75,34,0
0,79,22,0
0,42,44,2
0,62,46,0
0,39,103,0
0,70,19,2
0,75,57,0
0,67,51,0
0,75,74,2
0,67,43,0
