track,note,velocity,time
1,1,1,4
1,62,74,0
1,62,74,76
1,62,74,168
1,63,74,596
1,67,74,4
1,65,74,4
1,63,74,8
1,62,74,4
1,62,74,88
1,63,74,32
1,63,74,68
1,60,74,1472
1,60,74,96
1,60,74,172
1,62,74,572
1,65,74,12
1,63,74,392
1,62,74,4
1,60,74,4
1,67,74,0
1,65,74,576
1,62,74,560
1,62,74,160
1,60,74,576
1,60,74,100
1,62,74,204
1,62,74,40
1,62,74,132
1,63,74,580
1,67,74,8
1,65,74,376
1,63,74,552
1,62,74,32
1,62,74,96
1,63,74,116
1,63,74,108
1,67,74,588
1,67,74,76
1,67,74,260
1,69,74,560
1,70,74,176
1,70,74,104
1,69,74,4
1,67,74,8
1,67,74,148
1,65,74,8
1,67,74,576
1,69,74,568
1,70,74,0
1,72,74,4
1,74,74,456
1,74,74,80
1,72,74,284
1,70,74,276
1,75,74,28
1,67,74,556
1,69,74,200
1,70,74,156
1,75,74,8
1,74,74,56
1,74,74,48
1,62,74,1028
1,63,74,172
1,65,74,32
1,74,74,104
1,72,74,576
1,72,74,80
1,60,74,512
1,60,74,88
1,62,74,180
1,63,74,12
1,72,74,140
1,70,74,84
1,74,74,44
1,74,74,812
1,74,74,100
1,72,74,4
1,70,74,244
1,75,74,8
1,67,74,884
1,69,74,192
1,70,74,160
1,75,74,8
1,74,74,44
1,74,74,28
1,72,74,4
1,74,74,268
1,72,74,252
1,70,74,236
1,70,74,124
1,69,74,12
1,70,74,384
1,67,74,16
1,67,74,136
1,69,74,184
1,70,74,176
1,69,74,20
1,69,74,148
1,69,74,80
1,70,74,272
1,72,74,4
1,72,74,68
1,70,74,0
1,62,74,1196
1,62,74,88
1,62,74,52
1,62,74,140
1,63,74,580
1,67,74,16
1,65,74,388
1,63,74,104
1,62,74,48
1,62,74,76
1,63,74,104
1,63,74,92
1,60,74,1540
1,60,74,68
1,60,74,104
1,62,74,576
1,65,74,176
1,63,74,372
1,62,74,4
1,60,74,8
1,67,74,16
1,65,74,4
1,62,74,580
1,62,74,236
1,60,74,4
1,60,74,184
1,62,74,4
1,62,74,92
1,62,74,204
1,63,74,16
1,67,74,4
1,65,74,372
1,63,74,104
1,62,74,32
1,62,74,96
1,63,74,44
1,63,74,116
1,67,74,1308
1,67,74,104
1,67,74,84
1,67,74,128
1,69,74,584
1,70,74,4
1,70,74,144
1,69,74,24
1,67,74,8
1,67,74,232
1,65,74,40
1,67,74,52
1,69,74,568
1,70,74,544
1,72,74,12
1,74,74,504
1,74,74,48
1,72,74,0
1,70,74,264
1,75,74,212
1,67,74,748
1,69,74,184
1,70,74,168
1,75,74,12
1,74,74,68
1,74,74,68
1,62,74,800
1,63,74,172
1,65,74,20
1,74,74,124
1,72,74,4
1,72,74,76
1,60,74,644
1,60,74,88
1,62,74,188
1,63,74,8
1,72,74,132
1,70,74,80
1,74,74,16
1,74,74,548
1,74,74,40
1,72,74,292
1,70,74,220
1,75,74,0
1,67,74,820
1,69,74,180
1,70,74,160
1,75,74,8
1,74,74,32
1,74,74,68
1,72,74,964
1,74,74,252
1,72,74,244
1,70,74,248
1,70,74,112
1,69,74,16
1,70,74,0
1,67,74,16
1,67,74,84
1,67,74,56
1,69,74,192
1,70,74,8
1,69,74,24
1,69,74,92
1,69,74,96
1,70,74,288
1,72,74,20
1,72,74,112
1,70,74,564
1,67,74,1160
1,67,74,196
1,67,74,60
1,70,74,72
1,69,74,120
1,65,74,4
1,65,74,100
1,62,74,184
1,67,74,16
1,70,74,132
1,70,74,80
1,60,74,204
1,67,74,40
1,67,74,120
1,69,74,16
1,70,74,564
1,67,74,116
1,65,74,16
1,67,74,572
1,69,74,556
1,70,74,528
1,72,74,356
1,67,74,8
1,65,74,8
1,67,74,556
1,69,74,568
1,70,74,12
1,72,74,4
1,74,74,12844
1,74,74,100
1,72,74,288
1,70,74,256
1,75,74,8
1,67,74,764
1,69,74,200
1,70,74,164
1,75,74,172
1,74,74,76
1,74,74,76
1,72,74,252
1,74,74,24
1,72,74,12
1,70,74,40
1,70,74,104
1,69,74,24
1,70,74,4
1,67,74,36
1,67,74,140
1,69,74,36
1,70,74,8
1,69,74,24
1,69,74,104
1,69,74,76
1,70,74,284
1,72,74,28
1,72,74,88
1,70,74,64
1,74,74,528
1,74,74,88
1,72,74,252
1,70,74,280
1,75,74,12
1,67,74,252
1,69,74,180
1,70,74,168
1,75,74,12
1,74,74,104
1,74,74,88
1,62,74,664
1,63,74,180
1,65,74,20
1,74,74,120
1,72,74,16
1,72,74,96
1,60,74,528
1,60,74,92
1,62,74,8
1,63,74,48
1,72,74,144
1,70,74,8
1,74,74,4
1,74,74,516
1,74,74,52
1,72,74,12
1,70,74,260
1,75,74,8
1,67,74,832
1,69,74,188
1,70,74,0
1,75,74,196
1,74,74,148
1,74,74,76
1,72,74,24
1,74,74,264
1,72,74,236
1,70,74,4
1,70,74,188
1,69,74,28
1,70,74,376
1,67,74,8
1,67,74,180
1,69,74,200
1,70,74,4
1,69,74,160
1,69,74,144
1,69,74,60
1,70,74,36
1,72,74,24
1,72,74,72
1,70,74,36
2,1,1,0
2,51,68,0
2,39,75,0
2,51,68,11508
2,39,68,4
2,51,68,37680
2,39,59,0
2,51,75,11576
2,39,68,0
2,39,1,25344
2,51,1,0
2,51,59,11524
2,39,68,0
2,51,75,11588
2,39,75,4
2,51,59,11620
2,39,59,12
3,67,43,0
3,75,43,0
3,79,43,336
3,70,43,0
3,75,43,328
3,67,43,0
3,70,43,116
3,79,43,0
3,67,43,316
3,75,43,0
3,75,43,316
3,67,43,12
3,70,43,112
3,79,43,12
3,75,43,308
3,67,43,16
3,70,43,108
3,79,43,0
3,74,43,324
3,65,43,16
3,70,43,304
3,77,43,0
3,74,43,328
3,65,43,16
3,65,43,308
3,74,43,0
3,70,43,124
3,77,43,0
3,74,43,504
3,65,43,0
3,70,43,124
3,77,43,4
3,72,43,124
3,74,43,144
3,65,43,0
3,77,43,112
3,70,43,136
3,74,43,132
3,63,43,328
3,72,43,12
3,69,43,132
3,75,43,4
3,63,43,316
3,72,43,0
3,69,43,116
3,75,43,0
3,63,43,316
3,72,43,0
3,75,43,520
3,69,43,12
3,72,43,280
3,63,43,0
3,69,43,104
3,75,43,0
3,74,43,296
3,65,43,16
3,65,43,308
3,70,43,156
3,77,43,0
3,65,43,296
3,74,43,0
3,77,43,116
3,70,43,12
3,70,43,296
3,74,43,0
3,65,43,308
3,70,43,132
3,77,43,0
3,65,43,296
3,74,43,4
3,70,43,104
3,77,43,0
3,74,43,332
3,75,43,348
3,67,43,12
3,79,43,116
3,70,43,4
3,75,43,300
3,67,43,12
3,70,43,104
3,79,43,0
3,67,43,316
3,75,43,0
3,79,43,336
3,67,43,0
3,70,43,132
3,79,43,16
3,75,43,296
3,67,43,0
3,79,43,112
3,70,43,4
3,70,43,296
3,74,43,0
3,70,43,512
3,77,43,12
3,66,43,504
3,74,43,0
3,69,43,132
3,74,43,320
3,67,43,16
3,70,43,288
3,62,43,0
3,74,43,108
3,67,43,12
3,65,43,308
3,69,43,0
3,65,43,316
3,72,43,0
3,63,43,304
3,75,43,144
3,67,43,0
3,70,43,308
3,63,43,0
3,75,43,124
3,67,43,0
3,63,43,320
3,72,43,0
3,63,43,320
3,65,43,140
3,69,43,16
3,63,43,276
3,72,43,152
3,65,43,0
3,70,43,304
3,62,43,340
3,65,43,132
3,70,43,16
3,67,43,28712
3,75,43,0
3,70,43,316
3,79,43,16
3,67,43,316
3,75,43,0
3,79,43,124
3,70,43,0
3,75,43,316
3,67,43,0
3,70,43,284
3,79,43,16
3,75,43,316
3,67,43,0
3,70,43,316
3,79,43,0
3,75,43,124
3,67,43,0
3,65,43,284
3,74,43,0
3,70,43,300
3,77,43,0
3,65,43,308
3,74,43,0
3,70,43,112
3,77,43,4
3,65,43,308
3,74,43,12
3,70,43,312
3,77,43,0
3,65,43,300
3,74,43,12
3,77,43,316
3,70,43,0
3,65,43,304
3,74,43,0
3,63,43,312
3,72,43,12
3,69,43,116
3,75,43,0
3,63,43,300
3,72,43,0
3,69,43,104
3,75,43,0
3,63,43,312
3,72,43,16
3,69,43,316
3,75,43,0
3,63,43,312
3,72,43,12
3,69,43,296
3,75,43,0
3,63,43,300
3,72,43,0
3,70,43,104
3,74,43,16
3,77,43,328
3,65,43,12
3,74,43,300
3,77,43,144
3,70,43,0
3,65,43,308
3,74,43,12
3,65,43,304
3,74,43,12
3,70,43,132
3,72,43,4
3,65,43,324
3,77,43,0
3,65,43,108
3,77,43,12
3,70,43,108
3,74,43,0
3,63,43,320
3,67,43,120
3,70,43,104
3,79,43,16
3,75,43,316
3,67,43,4
3,70,43,92
3,79,43,16
3,67,43,316
3,75,43,12
3,70,43,308
3,79,43,0
3,67,43,308
3,75,43,0
3,70,43,312
3,79,43,4
3,67,43,316
3,75,43,0
3,65,43,112
3,74,43,20
3,65,43,124
3,77,43,124
3,70,43,0
3,66,43,492
3,74,43,0
3,69,43,96
3,72,43,12
3,66,43,108
3,74,43,12
3,70,43,332
3,62,43,0
3,74,43,112
3,67,43,0
3,62,43,116
3,70,43,0
3,65,43,300
3,69,43,12
3,72,43,116
3,65,43,124
3,69,43,16
3,70,43,312
3,63,43,12
3,75,43,136
3,67,43,12
3,63,43,320
3,70,43,0
3,67,43,136
3,75,43,4
3,65,43,308
3,72,43,0
3,63,43,308
3,69,43,12
3,63,43,336
3,75,43,152
3,65,43,0
3,63,43,192
3,69,43,12
3,65,43,244
3,62,43,328
3,70,43,136
3,65,43,0
3,70,43,496
3,65,43,0
3,67,43,16044
3,75,43,4
3,79,43,144
3,70,43,0
3,67,43,308
3,75,43,12
3,70,43,112
3,79,43,12
3,75,43,316
3,67,43,12
3,70,43,304
3,79,43,0
3,75,43,320
3,67,43,0
3,70,43,308
3,79,43,0
3,67,43,312
3,75,43,0
3,65,43,112
3,74,43,16
3,70,43,136
3,77,43,0
3,65,43,312
3,74,43,16
3,65,43,316
3,74,43,0
3,70,43,100
3,77,43,16
3,65,43,316
3,74,43,0
3,70,43,308
3,77,43,0
3,74,43,320
3,65,43,0
3,70,43,112
3,77,43,16
3,74,43,124
3,65,43,12
3,63,43,136
3,72,43,24
3,63,43,328
3,72,43,16
3,75,43,112
3,69,43,0
3,63,43,296
3,72,43,16
3,69,43,124
3,75,43,0
3,72,43,324
3,63,43,0
3,75,43,316
3,69,43,12
3,63,43,304
3,72,43,0
3,63,43,316
3,72,43,0
3,75,43,116
3,69,43,16
3,72,43,112
3,65,43,120
3,74,43,0
3,74,43,132
3,65,43,0
3,77,43,124
3,70,43,12
3,65,43,316
3,74,43,0
3,70,43,116
3,77,43,0
3,65,43,304
3,74,43,0
3,70,43,316
3,77,43,0
3,63,43,1484
3,70,43,0
3,67,43,132
3,79,43,0
3,70,43,312
3,63,43,0
3,75,43,132
3,67,43,4
3,63,43,324
3,70,43,12
3,63,43,324
3,79,43,124
3,67,43,16
3,70,43,116
3,63,43,324
3,75,43,0
3,67,43,124
3,74,43,124
3,65,43,328
3,70,43,112
3,77,43,16
3,66,43,492
3,74,43,0
3,69,43,112
3,72,43,0
3,74,43,116
3,66,43,12
3,62,43,308
3,70,43,12
3,67,43,112
3,74,43,0
3,70,43,136
3,65,43,528
3,72,43,0
3,65,43,96
3,74,43,16
3,63,43,308
3,67,43,124
3,75,43,4
3,63,43,328
3,70,43,0
3,67,43,124
3,75,43,0
3,63,43,136
3,70,43,0
3,65,43,132
3,72,43,0
3,62,43,328
3,65,43,124
3,69,43,0
3,72,43,316
3,60,43,0
3,65,43,124
3,69,43,12
3,70,43,344
3,65,43,316
3,70,43,112
3,77,43,0
3,65,43,300
3,74,43,12
3,77,43,112
3,70,43,0
3,70,43,304
3,65,43,136
3,74,43,0
3,67,43,1680
3,75,43,12
3,70,43,116
3,79,43,0
3,67,43,308
3,75,43,16
3,79,43,124
3,70,43,0
3,70,43,316
3,75,43,12
3,79,43,316
3,67,43,0
3,75,43,296
3,67,43,4
3,67,43,344
3,79,43,124
3,70,43,0
3,75,43,112
3,65,43,348
3,74,43,0
3,77,43,124
3,70,43,0
3,74,43,308
3,65,43,0
3,77,43,116
3,70,43,0
3,65,43,316
3,74,43,0
3,77,43,512
3,70,43,12
3,74,43,304
3,65,43,4
3,70,43,112
3,77,43,0
3,74,43,312
3,72,43,336
3,63,43,4
3,69,43,144
3,75,43,0
3,63,43,312
3,72,43,0
3,69,43,128
3,75,43,0
3,63,43,304
3,72,43,16
3,63,43,312
3,72,43,4
3,75,43,124
3,69,43,0
3,63,43,108
3,63,43,152
3,72,43,4
3,69,43,112
3,75,43,12
3,69,43,304
3,72,43,4
3,65,43,304
3,74,43,4
3,77,43,112
3,70,43,0
3,65,43,132
3,77,43,332
3,70,43,0
3,74,43,316
3,65,43,0
3,70,43,1868
3,67,43,0
3,70,43,112
3,79,43,0
3,67,43,316
3,75,43,4
3,70,43,104
3,79,43,12
3,67,43,316
3,75,43,0
3,79,43,312
3,70,43,0
3,67,43,308
3,75,43,0
3,70,43,316
3,79,43,0
3,70,43,316
3,75,43,0
3,65,43,320
3,74,43,12
3,70,43,112
3,77,43,0
3,66,43,504
3,72,43,12
3,74,43,112
3,69,43,0
3,66,43,104
3,72,43,0
3,62,43,312
3,70,43,0
3,67,43,112
3,74,43,0
3,62,43,120
3,70,43,0
3,69,43,316
3,60,43,0
3,72,43,116
3,65,43,12
3,60,43,108
3,69,43,12
3,67,43,320
3,63,43,0
3,75,43,124
3,67,43,16
3,70,43,276
3,63,43,16
3,67,43,132
3,75,43,0
3,70,43,324
3,63,43,16
3,60,43,340
3,69,43,0
3,72,43,104
3,65,43,0
3,60,43,308
3,69,43,0
3,72,43,116
3,65,43,0
3,72,43,328
3,65,43,0
3,77,43,520
3,70,43,4
3,65,43,312
3,74,43,16
3,70,43,120
3,77,43,4
3,65,43,316
3,74,43,0
3,72,43,328
3,65,43,0
3,74,43,144
3,70,43,0
3,65,43,320
3,77,43,12
3,70,43,116
3,74,43,0
3,70,43,320
3,72,43,0
3,65,43,148
3,74,43,0
4,82,67,0
4,86,53,0
4,82,67,124
4,86,52,0
4,77,50,132
4,82,55,0
4,82,63,132
4,86,49,0
4,82,60,324
4,86,49,0
4,77,50,328
4,82,51,0
4,82,55,136
4,86,49,0
4,82,54,136
4,86,49,0
4,82,50,144
4,77,49,0
4,82,54,120
4,86,49,0
4,86,49,324
4,82,55,0
4,77,49,128
4,82,49,0
4,79,49,108
4,82,53,124
4,86,49,0
4,82,49,132
4,86,49,0
4,77,49,132
4,82,49,0
4,86,49,116
4,82,49,0
4,82,50,316
4,86,49,0
4,82,52,324
4,77,49,0
4,82,49,108
4,86,49,0
4,82,49,132
4,86,49,0
4,82,49,140
4,77,49,0
4,82,58,132
4,86,49,0
4,82,51,328
4,86,49,0
4,81,49,136
4,77,49,0
4,82,51,132
4,77,49,0
4,84,49,124
4,82,53,164
4,86,49,0
4,82,49,140
4,77,49,0
4,82,55,132
4,86,49,0
4,86,49,336
4,82,49,0
4,77,49,124
4,86,49,0
4,79,49,132
4,86,49,0
4,82,58,140
4,86,49,4
4,82,53,132
4,86,49,0
4,82,49,144
4,77,49,0
4,82,56,128
4,86,49,0
4,82,51,324
4,86,49,0
4,82,52,320
4,77,49,0
4,82,55,128
4,87,50,0
4,82,49,132
4,87,49,0
4,79,49,124
4,82,49,0
4,82,51,112
4,87,49,0
4,87,51,320
4,82,52,0
4,82,55,120
4,87,49,0
4,82,49,128
4,79,49,0
4,82,58,132
4,87,49,4
4,87,49,132
4,82,49,0
4,82,49,132
4,79,49,0
4,87,55,144
4,82,55,0
4,82,51,324
4,87,55,0
4,82,49,132
4,79,49,0
4,79,49,132
4,82,49,0
4,84,49,124
4,81,49,0
4,84,49,120
4,81,49,0
4,81,49,120
4,77,49,0
4,81,49,116
4,84,49,0
4,81,49,316
4,84,49,0
4,81,49,316
4,77,49,0
4,81,49,112
