track,note,velocity,time
1,67,114,1140
1,64,102,0
1,72,104,0
1,55,96,0
1,52,102,0
1,64,92,36
1,72,92,0
1,67,96,0
1,55,96,0
1,52,94,0
1,76,102,108
1,67,88,0
1,74,102,52
1,65,106,0
1,72,108,40
1,64,115,0
1,71,106,56
1,62,112,0
1,65,90,64
1,62,86,0
1,71,94,0
1,57,80,0
1,53,86,0
1,62,94,16
1,65,102,0
1,69,100,0
1,57,94,4
1,53,100,0
1,77,94,156
1,69,86,0
1,67,110,48
1,76,106,0
1,74,110,56
1,65,115,0
1,72,102,68
1,64,104,0
1,62,96,56
1,72,90,0
1,67,100,0
1,55,88,0
1,59,63,0
1,62,86,20
1,67,92,0
1,71,90,0
1,55,88,0
1,59,65,0
1,79,98,156
1,71,102,0
1,69,106,56
1,77,112,0
1,76,110,64
1,67,114,0
1,74,100,80
1,65,100,0
1,72,92,40
1,55,84,0
1,52,78,0
1,60,71,0
1,64,115,4
1,67,84,92
1,72,92,52
1,65,96,32
1,55,90,0
1,53,106,0
1,60,94,0
1,65,78,52
1,55,96,20
1,52,106,0
1,60,86,0
1,64,102,56
1,72,98,96
1,65,102,28
1,55,82,0
1,53,100,4
1,60,92,0
1,65,94,16
1,55,80,4
1,53,86,0
1,64,106,24
1,67,86,92
1,72,96,96
1,67,82,52
1,72,84,0
1,64,80,4
1,72,78,44
1,67,82,0
1,64,74,0
1,64,98,32
1,67,63,96
1,67,102,56
1,72,94,0
1,64,96,4
1,67,59,36
1,64,71,0
1,71,78,4
1,62,92,64
1,65,90,96
1,69,88,96
1,74,92,96
1,74,94,100
1,62,94,4
1,65,96,0
1,69,104,0
1,62,88,32
1,65,96,64
1,69,71,8
1,65,112,64
1,72,108,0
1,69,108,4
1,62,104,0
1,65,98,32
1,69,100,0
1,62,98,0
1,71,104,4
1,62,102,324
1,67,90,92
1,69,98,72
1,71,92,160
1,62,94,156
1,67,94,0
1,65,94,0
1,62,86,108
1,65,82,4
1,69,86,0
1,65,78,52
1,62,76,4
1,67,86,4
1,62,115,152
1,64,82,88
1,65,98,20
1,69,114,4
1,68,74,20
1,64,96,0
1,64,114,204
1,69,102,88
1,72,100,24
1,64,100,8
1,64,98,60
1,71,94,0
1,69,100,0
1,57,94,132
1,60,94,104
1,65,78,88
1,69,86,4
1,65,96,32
1,60,78,0
1,60,88,28
1,55,63,92
1,59,78,104
1,62,96,88
1,67,104,4
1,60,115,112
1,64,84,96
1,69,100,104
1,60,90,40
1,64,80,0
1,71,82,4
1,60,110,64
1,64,92,96
1,72,110,112
1,71,102,36
1,60,90,0
1,64,100,0
1,69,59,20
1,65,78,0
1,60,67,0
1,60,100,8
1,65,92,16
1,69,65,100
1,65,94,36
1,77,92,156
1,69,86,0
1,67,98,56
1,76,104,0
1,74,110,64
1,65,102,0
1,72,88,68
1,64,104,0
1,67,88,80
1,69,106,0
1,71,92,96
1,67,86,40
1,74,96,96
1,71,67,116
1,67,76,52
1,65,108,8
1,72,106,0
1,69,51,100
1,65,94,64
1,69,73,40
1,72,88,96
1,67,86,72
1,64,73,0
1,72,69,0
1,72,74,80
1,67,82,0
1,64,71,0
1,76,96,204
1,67,84,0
1,74,96,56
1,65,104,0
1,72,100,68
1,64,104,0
1,71,80,60
1,62,90,0
1,69,88,60
1,60,86,0
1,67,86,92
1,59,88,0
1,67,104,84
1,71,110,0
1,72,94,16
1,69,104,0
1,74,96,8
1,71,102,4
1,72,98,12
1,69,100,0
1,71,100,8
1,67,102,0
1,72,82,192
1,69,96,4
1,74,90,4
1,71,88,4
1,64,96,156
1,67,90,96
1,72,90,104
1,67,94,24
1,65,98,0
1,67,57,24
1,64,74,8
1,72,106,172
1,71,96,176
1,69,98,76
1,69,90,304
1,77,84,0
1,72,84,4
1,76,94,52
1,72,94,0
1,69,88,0
1,72,78,52
1,69,90,8
1,74,96,0
1,69,96,136
1,65,82,0
1,72,86,0
1,74,80,176
1,72,78,68
1,62,106,120
1,67,94,96
1,71,102,96
1,62,69,48
1,69,94,4
1,67,92,4
1,67,92,68
1,62,88,0
1,62,112,84
1,67,73,88
1,71,98,104
1,69,96,176
1,67,88,16
1,62,115,116
1,64,82,88
1,65,98,20
1,69,114,4
1,68,74,20
1,64,96,0
1,64,114,204
1,69,102,88
1,72,100,24
1,64,100,8
1,64,98,60
1,71,94,0
1,69,100,0
1,60,74,40
1,65,94,96
1,69,90,84
1,72,94,116
1,69,74,148
1,65,88,4
1,62,98,116
1,67,65,100
1,71,102,84
1,69,92,4
1,67,100,20
1,69,104,12
1,64,82,108
1,69,69,72
1,69,115,48
1,72,110,4
1,67,106,12
1,71,86,0
1,69,94,32
1,60,90,24
1,64,90,96
1,69,88,92
1,64,90,48
1,69,94,0
1,69,100,28
1,65,100,0
1,60,73,104
1,65,49,72
1,69,96,68
1,65,88,0
1,65,82,60
1,60,88,24
1,65,88,84
1,67,100,0
1,71,102,0
1,69,69,8
1,65,88,12
1,67,106,20
1,71,92,4
1,62,63,96
1,67,78,44
1,71,102,88
1,67,74,132
1,65,98,56
1,69,78,4
1,60,88,0
1,65,114,40
1,67,84,32
1,65,86,68
1,60,92,128
1,64,100,104
1,67,100,88
1,72,90,16
1,67,92,60
1,71,96,0
1,64,76,0
1,64,90,72
1,69,98,0
1,67,94,0
1,60,69,20
1,64,80,88
1,69,90,96
1,67,90,192
1,60,55,72
1,65,100,12
1,69,94,0
1,72,80,0
1,60,49,0
1,69,100,84
1,65,86,4
1,69,96,24
1,65,104,4
1,74,98,4
1,65,104,140
1,69,102,0
1,72,86,0
1,60,73,8
1,65,67,64
1,69,74,92
1,72,110,8
1,69,74,40
1,65,59,8
1,65,78,52
1,64,100,20
1,67,112,0
1,72,96,0
1,67,102,244
1,64,94,0
1,72,86,4
1,67,98,32
1,64,74,0
1,72,78,0
1,67,84,20
1,64,98,96
1,60,90,168
1,65,84,96
1,69,102,104
1,72,102,4
1,60,78,40
1,65,74,24
1,67,82,96
1,60,74,128
1,65,69,32
1,69,92,96
1,72,106,8
1,69,73,44
1,65,76,28
1,72,63,52
1,67,102,0
1,64,82,0
1,64,69,28
1,65,63,60
1,67,110,36
1,65,88,4
1,72,100,4
1,72,86,20
1,67,92,8
1,67,96,36
1,64,80,0
1,72,100,72
1,67,100,0
1,64,98,4
1,71,96,24
1,60,67,44
1,64,73,4
1,69,73,0
1,69,94,32
1,72,88,4
1,71,104,124
1,67,104,4
1,64,90,144
1,69,74,0
1,60,67,8
1,67,102,40
1,71,96,8
1,69,98,56
1,72,67,4
1,69,96,72
1,65,100,0
1,60,74,0
1,60,76,44
1,65,69,68
1,72,104,96
1,69,80,192
1,65,74,48
1,63,82,120
1,60,74,0
1,68,84,4
1,64,114,180
1,67,71,88
1,72,88,96
1,64,110,104
1,69,67,104
1,72,88,96
1,76,74,184
1,69,90,56
1,65,71,0
1,74,53,12
1,72,90,12
1,62,63,88
1,67,88,0
1,71,80,0
1,71,86,64
1,72,76,196
1,74,80,88
1,64,76,28
1,67,86,0
1,72,74,4
1,76,63,0
1,64,78,44
1,67,78,24
1,72,71,0
1,67,88,144
1,72,88,0
1,60,67,336
1,64,94,92
1,67,90,104
1,72,94,4
1,67,92,44
1,64,84,0
1,65,73,36
1,69,57,0
1,62,78,0
1,57,63,0
1,62,88,104
1,65,94,0
1,62,90,68
1,65,82,4
1,69,73,0
1,57,94,356
1,69,90,0
1,65,82,184
1,62,88,8
1,57,90,152
1,62,74,72
1,65,86,80
1,59,67,252
1,67,96,100
1,62,69,0
1,69,98,208
1,71,90,116
1,67,94,4
1,59,63,0
1,62,71,0
1,69,98,60
1,68,86,128
1,62,67,8
1,64,53,8
1,68,98,48
1,64,110,8
1,69,90,184
1,71,94,0
1,69,67,108
1,60,82,8
1,64,90,0
1,60,82,256
1,65,90,100
1,69,88,100
1,71,55,200
1,72,98,88
1,59,80,140
1,62,80,72
1,71,90,104
1,67,82,0
1,69,80,120
1,67,88,0
1,60,92,104
1,64,96,96
1,69,74,96
1,72,88,16
1,69,92,80
1,60,73,192
1,64,69,80
1,69,96,104
1,72,104,12
1,67,88,84
1,71,90,4
1,69,92,80
1,60,88,80
1,65,78,96
1,69,90,96
1,72,100,0
1,71,86,56
1,67,96,4
1,69,88,108
1,65,92,4
1,65,100,44
1,69,104,0
1,60,69,184
1,69,90,44
1,65,88,4
1,59,82,168
1,62,82,92
1,67,86,96
1,71,104,12
1,60,80,104
1,65,78,96
1,69,100,96
1,67,55,8
1,65,100,92
1,60,90,56
1,64,78,88
1,67,88,104
1,72,88,8
1,65,88,28
1,67,76,108
1,64,88,0
1,67,92,100
1,64,94,4
1,62,73,4
1,65,88,0
1,60,94,80
1,64,82,4
1,65,100,104
1,69,94,0
1,72,80,0
1,60,49,0
1,69,100,84
1,65,86,4
1,69,96,24
1,65,104,4
1,74,98,4
1,65,104,140
1,69,102,0
1,72,86,0
1,60,73,4
1,65,67,64
1,69,74,92
1,72,110,8
1,69,74,40
1,65,59,8
1,65,78,52
1,64,100,20
1,67,112,0
1,72,96,0
1,67,102,244
1,64,94,0
1,72,86,4
1,67,98,32
1,64,74,0
1,72,78,0
1,67,84,20
1,64,98,96
1,60,90,168
1,65,84,96
1,69,102,104
1,72,102,4
1,60,78,40
1,65,74,24
1,67,82,96
1,60,74,148
1,65,69,32
1,69,92,96
1,72,106,8
1,69,73,44
1,65,76,20
1,72,63,52
1,67,102,0
1,64,82,0
1,64,69,28
1,65,63,60
1,67,110,36
1,65,88,4
1,72,100,4
1,72,86,20
1,67,92,8
1,67,96,36
1,64,80,0
1,72,100,72
1,67,100,0
1,64,98,4
1,71,96,12
1,60,67,44
1,64,73,4
1,69,73,0
1,69,94,32
1,72,88,4
1,71,104,124
1,67,104,4
1,64,90,144
1,69,74,0
1,60,67,8
1,67,102,40
1,71,96,8
1,69,98,56
1,72,67,4
1,69,96,72
1,65,100,0
1,60,74,0
1,60,76,44
1,65,69,68
1,72,104,96
1,69,80,192
1,65,74,48
1,63,82,120
1,60,74,0
1,68,84,4
1,64,114,176
1,67,71,88
1,72,88,96
1,64,110,104
1,69,67,104
1,72,88,96
1,76,74,184
1,69,90,56
1,65,71,0
1,74,53,12
1,72,90,8
1,62,63,76
1,67,88,0
1,71,80,0
1,71,86,64
1,72,76,196
1,74,80,48
1,64,104,8
1,67,102,0
1,64,104,252
1,67,96,0
1,60,92,12
1,67,116,452
1,64,118,0
1,62,88,92
1,60,106,68
1,67,116,72
1,64,115,0
1,60,94,88
1,72,67,256
1,69,96,0
1,65,96,0
1,62,71,0
1,62,82,28
1,65,82,60
1,69,82,104
1,72,86,192
1,81,82,4
1,71,102,60
1,79,104,0
1,69,104,64
1,77,98,0
1,67,88,52
1,76,86,0
1,74,84,68
1,65,90,4
1,71,92,32
1,67,76,0
1,77,65,0
1,74,92,4
1,67,82,16
1,71,96,44
1,74,21,32
1,76,92,68
1,72,67,8
1,74,78,92
1,77,67,4
1,62,102,128
1,67,88,76
1,71,94,100
1,69,94,24
1,67,92,40
1,64,98,60
1,59,82,0
1,68,84,0
1,59,92,40
1,64,94,60
1,68,88,104
1,71,92,184
1,69,86,56
1,60,84,4
1,64,76,0
1,60,88,8
1,64,71,100
1,69,102,80
1,64,67,76
1,60,100,60
1,65,73,68
1,60,74,0
1,69,67,0
1,60,71,52
1,65,92,32
1,69,100,196
1,71,102,64
1,67,96,0
1,62,51,332
1,69,96,4
1,67,90,108
1,69,94,12
1,60,88,0
1,64,55,224
1,72,82,8
1,64,59,48
1,64,55,32
1,72,94,8
1,71,84,4
1,67,102,0
1,69,92,4
1,65,71,4
1,65,92,116
1,69,88,4
1,60,71,188
1,65,92,60
1,69,71,196
1,69,90,136
1,77,98,4
1,76,94,60
1,67,90,4
1,65,104,72
1,74,102,0
1,72,78,76
1,64,88,0
1,69,84,8
1,71,82,8
1,67,88,0
1,62,73,204
1,67,90,44
1,71,100,184
1,65,102,148
1,69,98,0
1,72,80,176
1,69,82,156
1,65,74,96
1,64,88,24
1,67,92,8
1,72,65,0
1,60,90,176
1,64,98,72
1,67,82,8
1,65,94,52
1,64,94,60
1,60,90,40
1,72,102,84
1,67,88,32
1,64,84,104
1,65,96,16
1,69,94,4
1,60,80,8
1,65,100,96
1,69,92,196
1,69,92,164
1,77,88,0
1,67,96,64
1,76,104,0
1,65,102,76
1,74,98,0
1,72,82,68
1,64,94,8
1,67,80,116
1,69,84,0
1,62,76,4
1,71,86,96
1,62,78,52
1,67,96,32
1,71,88,184
1,74,63,112
1,72,67,100
1,65,55,8
1,69,76,8
1,60,86,272
1,65,90,36
1,69,92,0
1,60,96,28
1,64,92,92
1,67,78,96
1,65,82,88
1,67,86,184
1,72,78,16
1,67,94,144
1,76,98,0
1,74,90,60
1,65,100,4
1,72,104,64
1,64,112,4
1,62,92,56
1,71,78,0
1,69,86,68
1,60,94,0
1,62,63,56
1,65,80,96
1,69,86,96
1,65,74,40
1,62,86,156
1,65,92,136
1,69,80,4
1,62,69,144
1,65,82,4
1,69,80,0
1,62,96,44
1,67,78,108
1,71,96,176
1,77,94,64
1,81,98,0
1,79,106,64
1,76,112,0
1,77,114,48
1,74,106,0
1,72,104,64
1,76,117,0
1,74,92,88
1,71,86,0
1,64,108,104
1,67,86,96
1,72,92,4
1,65,102,8
1,67,98,36
1,72,78,112
1,60,94,88
1,67,82,0
1,64,88,4
2,36,107,1116
2,31,93,52
2,36,107,48
2,31,92,104
2,36,102,40
2,31,86,116
2,36,91,40
2,40,107,8
2,38,105,4
2,36,107,4
2,41,102,4
2,36,101,108
2,29,105,52
2,36,97,64
2,41,106,32
2,29,100,108
2,36,107,80
2,29,95,104
2,31,107,48
2,31,93,120
2,31,107,48
2,31,107,152
2,31,97,112
2,33,93,128
2,35,98,16
2,31,94,4
2,36,92,4
2,36,97,100
2,36,106,64
2,36,97,108
2,36,107,48
2,36,98,16
2,36,102,124
2,31,100,48
2,36,107,40
2,36,84,112
2,36,102,64
2,31,98,100
2,36,104,40
2,31,102,104
2,36,107,48
2,36,104,116
2,35,107,108
2,33,107,108
2,38,107,8
2,33,93,84
2,38,107,32
2,33,70,116
2,38,101,16
2,40,97,116
2,41,101,84
2,42,99,96
2,43,91,4
2,38,101,84
2,43,107,20
2,38,97,84
2,43,96,4
2,43,99,116
2,42,98,72
2,41,92,104
2,40,104,4
2,35,88,80
2,28,107,8
2,33,101,128
2,33,101,88
2,33,104,20
2,33,107,92
2,31,107,4
2,29,107,48
2,29,90,72
2,29,107,40
2,29,87,72
2,31,107,32
2,31,90,104
2,31,107,32
2,31,101,100
2,33,104,8
2,33,97,108
2,33,106,64
2,36,97,120
2,33,98,104
2,28,102,80
2,31,100,8
2,33,107,92
2,32,84,16
2,29,107,16
2,29,81,72
2,29,107,40
2,29,91,72
2,29,89,92
2,29,91,20
2,29,107,96
2,29,83,64
2,31,107,32
2,31,99,76
2,31,107,20
2,41,91,132
2,31,100,80
2,31,101,48
2,31,100,20
2,31,103,160
2,36,107,4
2,36,102,100
2,36,107,44
2,31,94,108
2,36,86,12
2,31,107,4
2,36,104,4
2,36,107,96
2,35,107,4
2,33,88,112
2,31,107,4
2,31,82,80
2,31,107,52
2,38,97,16
2,43,95,40
2,31,106,32
2,31,91,32
2,31,98,80
2,33,99,20
2,35,100,88
2,36,107,4
2,36,93,56
2,31,107,48
2,36,92,120
2,36,102,40
2,31,104,4
2,36,86,4
2,36,91,104
2,31,107,8
2,36,105,4
2,33,107,4
2,38,107,12
2,38,94,100
2,38,107,48
2,38,104,64
2,38,107,20
2,40,92,4
2,41,101,80
2,38,106,68
2,41,98,112
2,43,96,4
2,43,88,120
2,38,106,16
2,31,94,132
2,38,93,12
2,43,84,4
2,43,107,60
2,42,91,4
2,41,107,8
2,40,101,12
2,35,97,76
2,28,104,4
2,31,83,4
2,33,87,100
2,33,91,168
2,31,107,44
2,31,107,32
2,29,107,48
2,29,100,72
