track,note,velocity,time
2,36,100,1912
2,36,85,177
2,36,100,116
2,36,100,211
2,36,85,109
2,36,100,108
2,36,100,196
2,36,85,164
2,36,100,106
2,36,100,183
2,36,91,147
2,36,100,105
2,36,100,216
2,36,85,177
2,36,100,116
2,36,100,211
2,36,85,109
2,36,100,108
2,36,100,196
2,36,85,164
2,36,100,106
2,36,100,183
2,36,91,147
2,36,100,105
2,36,95,208
2,36,100,144
2,36,85,177
2,36,100,116
2,36,100,211
2,36,85,109
2,36,100,108
2,36,100,196
2,36,85,164
2,36,100,106
2,36,100,183
2,36,91,147
2,36,100,105
2,36,100,216
2,36,85,177
2,36,100,116
2,36,100,211
2,36,85,109
2,36,100,108
2,36,100,196
2,36,85,164
2,36,100,106
2,36,100,183
2,36,91,147
2,36,100,105
2,36,100,216
2,36,85,177
2,36,100,116
2,36,100,211
2,36,85,109
2,36,100,108
2,36,100,196
2,36,85,164
2,36,100,106
2,36,100,183
2,36,91,147
2,36,100,105
2,36,100,216
2,36,85,177
2,36,100,116
2,36,100,211
2,36,85,109
2,36,100,108
2,36,100,196
2,36,85,164
2,36,100,106
2,36,100,183
2,36,91,147
2,36,100,105
2,36,100,216
2,36,85,177
2,36,100,116
2,36,100,211
2,36,85,109
2,36,100,108
2,36,100,196
2,36,85,164
2,36,100,106
2,36,100,183
2,36,91,147
2,36,100,105
2,36,100,216
2,36,85,177
2,36,100,116
2,36,100,211
2,36,85,109
2,36,100,108
2,36,100,196
2,36,85,164
2,36,100,106
2,36,100,183
2,36,91,147
2,36,100,105
2,36,100,216
2,36,85,177
2,36,100,116
2,36,100,211
2,36,85,109
2,36,100,108
2,36,100,196
2,36,85,164
2,36,100,106
2,36,100,183
2,36,91,147
2,36,100,105
2,36,100,216
2,36,85,177
2,36,100,116
2,36,100,211
2,36,85,109
2,36,100,108
2,36,100,196
2,36,85,164
2,36,100,106
2,36,100,183
2,36,91,147
2,36,100,105
2,36,100,216
2,36,81,369
2,36,100,119
2,36,74,161
2,36,97,106
2,36,92,157
2,36,100,110
2,36,90,142
2,36,100,108
2,36,97,147
2,36,97,112
2,36,94,139
2,36,97,106
2,36,97,191
2,36,120,201
2,36,85,106
2,36,100,128
2,36,87,149
2,36,100,106
2,36,90,148
2,36,112,117
2,36,90,158
2,36,94,116
2,36,99,120
2,36,94,168
2,36,97,112
2,36,90,155
2,36,112,112
2,36,72,160
2,36,127,122
2,36,16,629
2,36,52,293
2,36,53,282
2,36,83,280
2,36,92,300
2,36,127,307
2,36,127,306
2,36,83,307
2,36,103,112
2,36,78,219
2,36,127,114
2,36,83,307
2,36,103,112
2,36,78,219
2,36,127,114
2,36,83,307
2,36,103,112
2,36,78,219
2,36,127,114
2,36,83,307
2,36,103,112
2,36,78,219
2,36,127,114
2,36,83,307
2,36,103,112
2,36,78,219
2,36,127,114
2,36,83,307
2,36,103,112
2,36,78,219
2,36,127,114
2,36,83,307
2,36,103,112
2,36,78,219
2,36,127,114
2,36,83,307
2,36,103,112
2,36,78,219
2,36,127,114
2,36,83,307
2,36,103,112
2,36,78,219
2,36,127,114
2,36,83,307
2,36,103,112
2,36,78,219
2,36,127,114
2,36,83,307
2,36,103,112
2,36,78,219
2,36,127,114
2,36,83,307
2,36,103,112
2,36,92,414
2,36,94,425
2,36,92,502
2,36,92,503
2,36,97,498
2,36,92,307
2,36,127,325
2,36,92,1455
2,36,100,1375
2,36,85,177
2,36,100,116
2,36,100,211
2,36,85,109
2,36,100,108
2,36,100,196
2,36,85,164
2,36,100,106
2,36,100,183
2,36,91,147
2,36,100,105
2,36,100,216
2,36,85,177
2,36,100,116
2,36,100,211
2,36,85,109
2,36,100,108
2,36,100,196
2,36,85,164
2,36,100,106
2,36,100,183
2,36,91,147
2,36,100,105
2,36,100,216
2,36,85,177
2,36,100,116
2,36,100,211
2,36,85,109
2,36,100,108
2,36,100,196
2,36,85,164
2,36,100,106
2,36,100,183
2,36,91,147
2,36,100,105
2,36,100,216
2,36,85,177
2,36,100,116
2,36,100,211
2,36,85,109
2,36,100,108
2,36,100,196
2,36,85,164
2,36,100,106
2,36,100,183
2,36,91,147
2,36,100,105
2,36,100,216
2,36,87,149
2,36,100,106
2,36,90,148
2,36,112,117
2,36,90,158
2,36,94,116
2,36,99,120
2,36,94,168
2,36,97,112
2,36,90,155
2,36,112,112
2,36,72,160
2,36,127,122
2,36,16,629
2,36,52,293
2,36,53,282
2,36,83,280
2,36,92,300
2,36,127,307
2,36,127,306
2,36,83,307
2,36,103,112
2,36,78,219
2,36,127,114
2,36,83,307
2,36,103,112
2,36,78,219
2,36,127,114
2,36,83,307
2,36,103,112
2,36,78,219
2,36,127,114
2,36,83,307
2,36,103,112
2,36,78,219
2,36,127,114
2,36,83,307
2,36,103,112
2,36,78,219
2,36,127,114
2,36,83,307
2,36,103,112
2,36,78,219
2,36,127,114
2,36,83,307
2,36,103,112
2,36,78,219
2,36,127,114
2,36,83,307
2,36,103,112
2,36,78,219
2,36,127,114
2,36,83,307
2,36,103,112
2,36,78,219
2,36,127,114
2,36,83,307
2,36,103,112
2,36,78,219
2,36,127,114
2,36,83,307
2,36,103,112
2,36,78,219
2,36,127,114
2,36,83,307
2,36,103,112
2,36,78,219
2,36,127,114
2,36,83,307
2,36,103,112
2,36,78,219
2,36,127,114
2,36,83,307
2,36,103,112
2,36,78,219
2,36,127,114
2,36,83,307
2,36,103,112
2,36,78,219
2,36,127,114
2,36,83,307
2,36,103,112
2,36,78,219
2,36,127,114
2,36,83,307
2,36,103,112
2,36,78,219
2,36,127,114
2,36,83,307
2,36,103,112
2,36,78,219
2,36,127,114
2,36,83,307
2,36,103,112
2,36,78,219
2,36,127,114
2,36,83,307
2,36,103,112
2,36,78,219
2,36,127,114
2,36,83,307
2,36,103,112
2,36,78,219
2,36,127,114
2,36,83,307
2,36,103,112
2,36,78,219
2,36,127,114
2,36,83,307
2,36,103,112
2,36,78,219
2,36,127,114
2,36,83,307
2,36,103,112
2,36,78,219
3,40,52,5364
3,40,52,606
3,40,52,629
3,40,52,4468
3,40,52,613
3,40,52,630
3,40,5,1182
3,40,55,100
3,40,5,114
3,40,5,253
3,40,55,104
3,40,5,108
3,40,5,318
3,40,55,100
3,40,5,114
3,40,5,253
3,40,55,104
3,40,5,108
3,40,5,318
3,40,55,100
3,40,5,114
3,40,5,253
3,40,55,104
3,40,5,108
3,40,5,318
3,40,55,100
3,40,5,114
3,40,5,253
3,40,55,104
3,40,5,108
3,40,5,318
3,40,55,100
3,40,5,114
3,40,5,253
3,40,55,104
3,40,5,108
3,40,5,318
3,40,55,100
3,40,5,114
3,40,5,253
3,40,55,104
3,40,5,108
3,40,5,318
3,40,55,100
3,40,5,114
3,40,5,253
3,40,55,104
3,40,5,108
3,40,5,318
3,40,55,100
3,40,5,114
3,40,5,253
3,40,55,104
3,40,5,108
3,40,5,318
3,40,55,100
3,40,5,114
3,40,5,253
3,40,55,104
3,40,5,108
3,40,5,318
3,40,55,100
3,40,5,114
3,40,5,253
3,40,55,104
3,40,5,108
3,40,5,318
3,40,55,100
3,40,5,114
3,40,5,253
3,40,55,104
3,40,5,108
3,40,5,318
3,40,55,100
3,40,5,114
3,40,5,253
3,40,55,104
3,40,5,108
3,40,5,318
3,40,55,100
3,40,5,114
3,40,5,253
3,40,55,104
3,40,5,108
3,40,5,318
3,40,55,100
3,40,5,114
3,40,5,253
3,40,55,104
3,40,5,108
3,40,5,318
3,40,55,100
3,40,5,114
3,40,5,253
3,40,55,104
3,40,5,108
3,40,5,318
3,40,55,100
3,40,5,114
3,40,5,253
3,40,55,104
3,40,5,108
3,40,5,318
3,40,55,100
3,40,5,114
3,40,5,253
3,40,55,104
3,40,5,108
3,40,5,318
3,40,55,100
3,40,5,114
3,40,5,253
3,40,55,104
3,40,5,108
3,40,5,318
3,40,55,100
3,40,5,114
3,40,5,253
3,40,55,104
3,40,5,108
3,40,5,318
3,40,55,100
3,40,5,114
3,40,5,253
3,40,55,104
3,40,5,108
3,40,5,318
3,40,55,100
3,40,5,114
3,40,5,253
3,40,55,104
3,40,5,108
3,40,5,318
3,40,55,100
3,40,5,114
3,40,5,253
3,40,55,104
3,40,5,108
3,40,5,318
3,40,55,100
3,40,5,114
3,40,5,253
3,40,55,104
3,40,5,108
3,40,5,318
3,40,55,100
3,40,5,114
3,40,5,253
3,40,55,104
3,40,5,108
3,40,5,318
3,40,55,100
3,40,5,114
3,40,5,253
3,40,55,104
3,40,5,108
3,40,5,318
3,40,55,100
3,40,5,114
3,40,5,253
3,40,55,104
3,40,5,108
3,40,5,318
3,40,55,100
3,40,5,114
3,40,5,253
3,40,55,104
3,40,5,108
3,40,5,318
3,40,55,100
3,40,5,114
3,40,5,253
3,40,55,104
3,40,5,108
3,40,5,318
3,40,55,100
3,40,5,114
3,40,5,253
3,40,55,104
3,40,5,108
3,40,5,318
3,40,55,100
3,40,5,114
3,40,5,253
3,40,55,104
3,40,5,108
3,40,5,318
3,40,55,100
3,40,5,114
3,40,5,253
3,40,55,104
3,40,5,108
3,40,100,122
3,40,34,113
3,40,90,49
3,40,92,50
3,40,120,148
3,40,41,916
3,40,12,82
3,40,127,87
3,40,6,85
3,40,47,101
3,40,13,101
3,40,120,101
3,40,4,74
3,40,56,101
3,40,27,89
3,40,127,117
3,40,4,67
3,40,15,107
3,40,17,99
3,40,23,127
3,40,127,96
3,40,16,257
3,40,127,118
3,40,7,97
3,40,16,118
3,40,23,123
3,40,127,94
3,40,27,83
3,40,36,103
3,40,11,106
3,40,127,96
3,40,18,97
3,40,127,139
3,40,127,129
3,40,90,49
3,40,72,431
3,40,24,107
3,40,127,121
3,40,8,106
3,40,87,112
3,40,7,119
3,40,127,121
3,40,11,93
3,40,58,101
3,40,3,99
3,40,83,141
3,40,13,104
3,40,100,403
3,40,112,220
3,40,13,95
3,40,36,140
3,40,120,127
3,40,6,84
3,40,41,112
3,40,16,105
3,40,127,115
3,40,97,3339
3,40,94,240
3,40,97,265
3,40,14,90
3,40,94,145
3,40,18,111
3,40,97,124
3,40,94,240
3,40,97,265
3,40,14,90
3,40,94,145
3,40,18,111
3,40,97,124
3,40,94,240
3,40,97,265
3,40,14,90
3,40,94,145
3,40,18,111
3,40,97,124
3,40,94,240
3,40,97,265
3,40,14,90
3,40,94,145
3,40,61,111
3,40,51,32
3,40,56,47
3,40,73,47
3,40,97,47
3,40,94,240
3,40,97,265
3,40,14,90
3,40,94,145
3,40,18,111
3,40,97,124
3,40,94,240
3,40,97,265
3,40,14,90
3,40,94,145
3,40,18,111
3,40,97,124
3,40,94,240
3,40,97,265
3,40,14,90
3,40,94,145
3,40,64,111
3,40,108,124
3,40,76,73
3,40,73,95
3,40,100,95
3,40,88,96
3,40,103,0
3,40,97,913
3,40,94,240
3,40,97,265
3,40,14,90
3,40,94,145
3,40,18,111
3,40,97,124
3,40,94,240
3,40,97,265
3,40,14,90
3,40,94,145
3,40,18,111
3,40,97,124
3,40,94,240
3,40,97,265
3,40,14,90
3,40,94,145
3,40,18,111
3,40,97,124
3,40,94,240
3,40,97,265
3,40,14,90
3,40,94,145
3,40,61,111
3,40,51,32
3,40,56,47
3,40,73,47
3,40,90,47
3,40,97,291
3,40,100,1042
3,40,90,638
3,40,94,298
3,40,5,3562
3,40,55,100
3,40,5,114
3,40,5,253
3,40,55,104
3,40,5,108
3,40,5,318
3,40,55,100
3,40,5,114
3,40,5,253
3,40,55,104
3,40,5,108
3,40,5,318
3,40,55,100
3,40,5,114
3,40,5,253
3,40,55,104
3,40,5,108
3,40,5,318
3,40,55,100
3,40,5,114
3,40,5,253
3,40,55,104
3,40,5,108
3,40,5,318
3,40,55,100
3,40,5,114
3,40,5,253
3,40,55,104
3,40,5,108
3,40,5,318
3,40,55,100
3,40,5,114
3,40,5,253
3,40,55,104
3,40,5,108
3,40,5,318
3,40,55,100
3,40,5,114
3,40,5,253
3,40,55,104
3,40,5,108
3,40,5,318
3,40,55,100
3,40,5,114
3,40,5,253
3,40,55,104
3,40,5,108
3,40,5,318
3,40,55,100
3,40,5,114
3,40,5,253
3,40,55,104
3,40,5,108
3,40,5,318
3,40,55,100
3,40,5,114
3,40,5,253
3,40,55,104
3,40,5,108
3,40,5,318
3,40,55,100
3,40,5,114
3,40,5,253
3,40,55,104
3,40,5,108
3,40,5,318
3,40,55,100
3,40,5,114
3,40,5,253
3,40,55,104
3,40,5,108
3,40,5,318
3,40,55,100
3,40,5,114
3,40,5,253
3,40,55,104
3,40,5,108
3,40,5,318
3,40,55,100
3,40,5,114
3,40,5,253
3,40,55,104
3,40,5,108
3,40,5,318
3,40,55,100
3,40,5,114
3,40,5,253
3,40,55,104
3,40,5,108
3,40,100,122
3,40,34,113
3,40,90,49
3,40,92,50
3,40,120,148
3,40,24,1109
3,40,127,121
3,40,8,106
3,40,87,112
3,40,7,119
3,40,127,121
3,40,11,93
3,40,58,101
3,40,3,99
3,40,83,141
3,40,13,104
3,40,100,403
3,40,112,220
3,40,13,95
3,40,36,140
3,40,120,127
3,40,6,84
3,40,41,112
3,40,16,105
3,40,127,115
3,40,97,3339
3,40,94,240
3,40,97,265
3,40,14,90
3,40,94,145
3,40,18,111
3,40,97,124
3,40,94,240
3,40,97,265
3,40,14,90
3,40,94,145
3,40,18,111
3,40,97,124
3,40,94,240
3,40,97,265
3,40,14,90
3,40,94,145
3,40,18,111
3,40,97,124
3,40,94,240
3,40,97,265
3,40,14,90
3,40,94,145
3,40,61,111
3,40,51,32
3,40,56,47
3,40,73,47
3,40,97,47
3,40,94,240
3,40,97,265
3,40,14,90
3,40,94,145
3,40,18,111
3,40,97,124
3,40,94,240
3,40,97,265
3,40,14,90
3,40,94,145
3,40,18,111
3,40,97,124
3,40,94,240
3,40,97,265
3,40,14,90
3,40,94,145
3,40,64,111
3,40,108,124
3,40,76,73
3,40,73,95
3,40,100,95
3,40,88,96
3,40,103,0
3,40,97,913
3,40,94,240
3,40,97,265
3,40,14,90
3,40,94,145
3,40,18,111
3,40,97,124
3,40,94,240
3,40,97,265
3,40,14,90
3,40,94,145
3,40,18,111
3,40,97,124
3,40,94,240
3,40,97,265
3,40,14,90
3,40,94,145
3,40,18,111
3,40,97,124
3,40,94,240
3,40,97,265
3,40,14,90
3,40,94,145
3,40,61,111
3,40,51,32
3,40,56,47
3,40,73,47
3,40,97,47
3,40,94,240
3,40,97,265
3,40,14,90
3,40,94,145
3,40,18,111
3,40,97,124
3,40,94,240
3,40,97,265
3,40,14,90
3,40,94,145
3,40,18,111
3,40,97,124
3,40,94,240
3,40,97,265
3,40,14,90
3,40,94,145
3,40,64,111
3,40,108,124
3,40,76,73
3,40,73,95
3,40,100,95
3,40,88,96
3,40,103,0
3,40,97,913
3,40,94,240
3,40,97,265
3,40,14,90
3,40,94,145
3,40,18,111
3,40,97,124
3,40,94,240
3,40,97,265
3,40,14,90
3,40,94,145
3,40,18,111
3,40,97,124
3,40,94,240
3,40,97,265
3,40,14,90
3,40,94,145
3,40,18,111
3,40,97,124
3,40,94,240
3,40,97,265
3,40,14,90
3,40,94,145
3,40,61,111
3,40,51,32
3,40,56,47
3,40,73,47
3,40,97,47
3,40,94,240
3,40,97,265
3,40,14,90
3,40,94,145
3,40,18,111
3,40,97,124
3,40,94,240
3,40,97,265
3,40,14,90
3,40,94,145
3,40,18,111
3,40,97,124
3,40,94,240
3,40,97,265
3,40,14,90
3,40,94,145
3,40,64,111
3,40,108,124
3,40,76,73
3,40,73,95
3,40,100,95
3,40,88,96
3,40,103,0
4,44,127,5360
4,44,127,226
4,44,127,175
4,44,127,221
4,44,127,3587
4,44,127,244
4,44,127,241
4,44,127,238
4,44,72,201
4,44,127,241
4,44,52,237
4,44,127,226
4,44,52,267
4,44,127,295
4,44,52,291
4,44,127,313
4,44,72,283
4,44,127,241
4,44,52,237
4,44,127,226
4,44,52,267
4,44,127,295
4,44,52,291
4,44,127,313
4,44,72,283
