track,note,velocity,time
0,62,97,2618
0,57,97,2
0,66,97,0
0,62,90,1566
0,69,90,20
0,74,90,22
0,78,90,20
0,86,90,20
0,78,90,20
0,74,90,20
0,78,90,20
0,62,90,18
0,69,90,20
0,71,72,20
0,74,90,0
0,79,100,0
0,79,72,0
0,83,95,0
0,83,100,0
0,91,95,0
0,91,100,0
0,79,90,2
0,71,72,2
0,79,100,0
0,79,72,0
0,83,95,0
0,83,100,0
0,86,90,0
0,91,95,0
0,91,100,0
0,79,90,2
0,69,72,2
0,74,90,0
0,78,100,0
0,78,72,0
0,81,95,0
0,81,100,0
0,90,95,0
0,90,100,0
0,78,90,2
0,57,97,144
0,61,97,4
0,64,97,2
0,57,90,2
0,73,72,0
0,81,100,0
0,81,72,0
0,85,95,0
0,85,100,0
0,93,95,0
0,93,100,0
0,64,90,2
0,73,90,18
0,76,90,2
0,67,100,22
0,67,72,0
0,76,72,0
0,79,95,0
0,79,100,0
0,85,90,0
0,88,95,0
0,88,100,0
0,81,90,2
0,76,90,18
0,81,90,2
0,57,90,20
0,64,90,22
0,71,72,20
0,73,90,0
0,79,100,0
0,79,72,0
0,83,95,0
0,83,100,0
0,91,95,0
0,91,100,0
0,76,90,2
0,69,72,2
0,78,100,0
0,78,72,0
0,81,95,0
0,81,100,0
0,85,90,0
0,90,95,0
0,90,100,0
0,81,90,2
0,67,72,2
0,76,90,0
0,76,100,0
0,76,72,0
0,79,95,0
0,79,100,0
0,88,95,0
0,88,100,0
0,81,90,2
0,57,97,160
0,66,97,0
0,62,97,0
0,62,90,2
0,66,72,0
0,69,90,0
0,74,90,0
0,74,100,0
0,74,72,0
0,78,95,0
0,78,90,0
0,78,100,0
0,81,90,0
0,86,95,0
0,86,100,0
0,76,82,2
0,81,82,0
0,74,82,74
0,81,82,0
0,69,82,2
0,86,82,118
0,81,82,44
0,78,82,192
0,74,82,84
0,76,82,26
0,76,82,114
0,81,82,0
0,74,82,76
0,81,82,0
0,69,82,100
0,74,82,126
0,86,82,0
0,81,82,68
0,78,82,60
0,74,82,0
0,57,97,62
0,62,97,2
0,66,97,2
0,35,108,36
0,42,74,0
0,49,79,0
0,26,95,4
0,74,82,2
0,42,67,36
0,78,82,8
0,42,67,76
0,37,109,72
0,42,72,0
0,74,82,6
0,35,108,82
0,42,67,0
0,30,95,4
0,78,82,4
0,86,82,0
0,35,108,52
0,42,72,0
0,30,95,4
0,42,67,172
0,81,82,6
0,37,109,58
0,42,72,0
0,33,95,4
0,78,82,2
0,42,67,8
0,81,82,6
0,35,108,20
0,42,74,0
0,26,95,4
0,74,82,2
0,42,67,68
0,76,82,6
0,81,82,0
0,42,67,76
0,37,109,34
0,42,72,0
0,78,82,6
0,35,108,44
0,42,67,0
0,30,95,4
0,74,82,2
0,35,108,50
0,42,72,0
0,30,95,4
0,78,82,2
0,86,82,0
0,42,67,38
0,81,82,6
0,37,109,22
0,42,72,0
0,33,95,4
0,78,82,4
0,42,67,6
0,74,82,6
0,64,97,16
0,61,97,6
0,35,108,18
0,42,74,0
0,33,95,4
0,69,82,2
0,42,67,40
0,71,82,6
0,42,67,24
0,37,109,76
0,42,72,0
0,69,82,6
0,35,108,62
0,42,67,0
0,37,95,4
0,73,82,2
0,81,82,0
0,35,108,20
0,42,72,0
0,37,95,4
0,42,67,172
0,76,82,6
0,37,109,76
0,42,72,0
0,40,95,4
0,73,82,2
0,42,67,24
0,76,82,6
0,35,108,20
0,42,74,0
0,33,95,4
0,69,82,2
0,42,67,60
0,71,82,6
0,76,82,0
0,42,67,76
0,37,109,42
0,42,72,0
0,73,82,6
0,35,108,72
0,42,67,0
0,37,95,4
0,69,82,2
0,35,108,20
0,42,72,0
0,37,95,4
0,73,82,2
0,81,82,0
0,42,67,56
0,76,82,6
0,37,109,12
0,42,72,0
0,40,95,4
0,73,82,2
0,42,67,8
0,76,82,8
0,69,97,2
0,35,108,24
0,42,74,0
0,33,95,4
0,69,82,2
0,42,67,50
0,71,82,6
0,76,82,0
0,42,67,76
0,37,109,48
0,42,72,0
0,69,82,6
0,35,108,12
0,42,67,0
0,37,95,4
0,81,82,2
0,35,108,20
0,42,72,0
0,37,95,4
0,42,67,172
0,76,82,6
0,37,109,78
0,42,72,0
0,40,95,4
0,73,82,2
0,42,67,42
0,76,82,6
0,35,108,86
0,42,74,0
0,33,95,4
0,69,82,2
0,42,67,90
0,73,82,6
0,42,67,14
0,37,109,76
0,42,72,0
0,76,82,6
0,35,108,82
0,42,67,0
0,37,95,4
0,73,82,4
0,35,108,20
0,42,72,0
0,37,95,4
0,73,82,2
0,81,82,0
0,42,67,52
0,76,82,6
0,37,109,92
0,42,72,0
0,40,95,4
0,73,82,2
0,42,67,26
0,69,82,6
0,62,97,26
0,57,97,2
0,66,97,2
0,35,108,26
0,42,74,0
0,26,95,4
0,74,82,2
0,42,67,18
0,76,82,6
0,81,82,0
0,42,67,76
0,37,109,22
0,42,72,0
0,74,82,6
0,35,108,4
0,42,67,0
0,30,95,4
0,86,82,2
0,35,108,50
0,42,72,0
0,30,95,4
0,42,67,172
0,81,82,6
0,37,109,52
0,42,72,0
0,33,95,4
0,78,82,2
0,42,67,18
0,81,82,6
0,35,108,64
0,42,74,0
0,26,95,4
0,74,82,2
0,42,67,50
0,78,82,6
0,42,67,0
0,37,109,76
0,42,72,0
0,81,82,6
0,35,108,48
0,42,67,0
0,30,95,4
0,78,82,2
0,35,108,94
0,78,82,6
0,86,82,0
0,42,67,76
0,37,109,68
0,42,67,0
0,30,95,4
0,81,82,2
0,42,72,76
0,33,95,2
0,78,82,2
0,37,109,90
0,42,67,0
0,42,67,44
0,81,82,6
0,37,109,44
0,42,72,0
0,66,97,34
0,57,97,2
0,62,97,4
0,35,108,36
0,42,74,0
0,26,95,4
0,74,95,2
0,74,82,0
0,74,100,0
0,42,67,40
0,76,82,2
0,81,82,0
0,42,67,76
0,37,109,42
0,42,72,0
0,78,82,6
0,81,95,0
0,81,100,0
0,35,108,26
0,42,67,0
0,30,95,0
0,74,82,2
0,86,95,0
0,86,100,0
0,35,108,50
0,42,72,0
0,30,95,0
0,42,67,172
0,78,82,6
0,86,82,0
0,90,95,0
0,90,100,0
0,37,109,78
0,42,72,0
0,33,95,0
0,81,82,2
0,98,95,0
0,98,100,0
0,42,67,10
0,78,82,4
0,35,108,106
0,42,74,0
0,26,95,4
0,74,82,2
0,42,67,66
0,78,82,6
0,42,67,76
0,37,109,8
0,42,72,0
0,81,82,6
0,35,108,54
0,42,67,0
0,30,95,4
0,78,82,2
0,35,108,50
0,42,72,0
0,30,95,4
0,78,82,2
0,86,82,0
0,42,67,54
0,81,82,6
0,37,109,6
0,42,72,0
0,33,95,4
0,78,82,2
0,42,67,14
0,81,82,4
0,64,97,26
0,59,97,4
0,67,97,8
0,35,108,20
0,42,74,0
0,28,95,4
0,76,95,2
0,76,82,0
0,76,100,0
0,42,67,46
0,79,82,2
0,42,67,76
0,37,109,70
0,42,72,0
0,83,95,6
0,83,82,0
0,83,100,0
0,35,108,172
0,42,67,0
0,31,95,0
0,79,82,2
0,88,95,0
0,88,82,0
0,88,100,0
0,35,108,50
0,42,72,0
0,31,95,0
0,42,67,172
0,83,82,6
0,91,95,0
0,91,100,0
0,37,109,8
0,42,72,0
0,35,95,0
0,79,82,2
0,100,95,0
0,100,100,0
0,42,67,14
0,83,82,2
0,35,108,12
0,42,74,0
0,28,95,4
0,76,82,2
0,42,67,64
0,79,82,6
0,42,67,76
0,37,109,76
0,42,72,0
0,79,82,6
0,83,82,0
0,35,108,38
0,42,67,0
0,31,95,4
0,79,82,2
0,35,108,50
0,42,72,0
0,31,95,4
0,79,82,2
0,88,82,0
0,42,67,42
0,83,82,6
0,37,109,6
0,42,72,0
0,35,95,4
0,79,82,2
0,42,67,52
0,83,82,6
0,67,97,16
0,62,97,2
0,59,97,2
0,35,108,26
0,42,74,0
0,31,95,4
0,74,95,2
0,74,82,0
0,74,100,0
0,42,67,22
0,79,95,2
0,79,100,0
0,79,82,2
0,42,67,76
0,37,109,4
0,42,72,0
0,83,82,2
0,86,95,0
0,86,100,0
0,35,108,54
0,42,67,0
0,35,95,0
0,79,82,2
0,86,82,0
0,91,95,0
0,91,100,0
0,35,108,46
0,42,72,0
0,35,95,0
0,42,67,172
0,83,82,6
0,98,95,0
0,98,100,0
0,37,109,16
0,42,72,0
0,38,95,0
0,79,82,2
0,42,67,6
0,83,82,0
0,69,97,22
0,64,97,6
0,61,97,2
0,35,108,48
0,42,74,0
0,33,95,4
0,76,95,2
0,76,82,0
0,76,100,0
0,42,67,60
0,81,95,2
0,81,82,0
0,81,100,0
0,42,67,76
0,37,109,12
0,42,72,0
0,85,82,2
0,88,95,0
0,88,100,0
0,35,108,0
0,42,67,0
0,37,95,0
0,81,82,2
0,97,95,0
0,97,100,0
0,35,108,2
0,42,72,0
0,76,82,2
0,88,82,0
0,42,67,64
0,37,95,4
0,85,82,2
0,37,109,8
0,42,72,0
0,40,95,4
0,81,82,2
0,42,67,52
0,85,82,2
0,57,97,10
0,62,97,2
0,66,97,8
0,35,108,30
0,42,74,0
0,26,95,4
0,74,82,2
0,42,67,24
0,78,82,6
0,42,67,76
0,37,109,42
0,42,72,0
0,86,95,0
0,81,82,0
0,86,100,0
0,35,108,14
0,42,67,0
0,30,95,0
0,78,82,2
0,86,82,0
0,88,95,0
0,88,100,0
0,35,108,50
0,42,72,0
0,30,95,0
0,90,95,2
0,90,100,0
0,85,85,172
0,81,82,2
0,98,95,0
0,98,100,0
0,85,85,46
0,85,85,42
0,37,109,2
0,85,85,0
0,33,95,0
0,78,82,2
0,85,85,18
0,81,82,8
0,85,85,46
0,85,85,42
0,35,108,38
0,42,74,0
0,49,79,0
0,85,85,0
0,26,95,4
0,74,82,2
0,74,72,114
0,83,72,0
0,42,74,78
0,74,72,2
0,83,72,0
0,74,72,2
0,83,72,0
0,35,108,186
0,42,74,0
0,74,72,2
0,83,72,0
0,35,108,364
0,42,74,0
0,35,108,92
0,42,74,0
0,48,90,268
0,35,108,76
0,42,74,0
0,45,92,0
0,73,72,6
0,81,72,0
0,41,94,172
0,64,97,158
0,57,97,2
0,61,97,2
0,35,108,10
0,42,74,0
0,49,79,0
0,33,95,0
0,57,98,2
0,61,98,0
0,64,98,0
0,76,72,0
0,85,72,0
0,42,67,112
0,69,33,0
0,42,67,76
0,69,33,0
0,61,98,4
0,64,98,0
0,57,98,2
0,38,100,46
0,42,72,0
0,57,98,6
0,61,98,0
0,64,98,0
0,35,108,24
0,42,67,0
0,69,33,0
0,37,95,4
0,57,98,0
0,61,98,0
0,64,98,2
0,35,108,28
0,42,72,0
0,69,43,0
0,76,72,6
0,79,72,0
0,69,38,76
0,42,67,76
0,69,33,0
0,37,95,4
0,61,98,0
0,64,98,0
0,57,98,2
0,69,33,20
0,38,100,28
0,42,72,0
0,40,95,4
0,61,98,0
0,64,98,0
0,67,98,2
0,42,67,124
0,69,38,0
0,61,98,0
0,64,98,0
0,57,98,0
0,35,108,130
0,42,74,0
0,33,95,4
0,61,98,0
0,64,98,0
0,57,98,2
0,42,67,130
0,69,33,0
0,76,72,6
0,85,72,0
0,42,67,76
0,69,33,0
0,33,95,4
0,61,98,0
0,64,98,0
0,57,98,2
0,38,100,0
0,42,72,0
0,33,95,0
0,61,98,0
0,64,98,0
0,76,72,2
0,85,72,0
0,35,108,126
0,42,67,0
0,69,33,0
0,33,95,0
0,61,98,0
0,64,98,0
0,57,98,2
0,78,72,0
0,86,72,0
0,35,108,136
0,42,72,0
0,69,43,0
0,37,95,0
0,76,72,2
0,85,72,0
0,69,38,24
0,42,67,76
0,69,33,0
0,37,95,4
0,57,98,0
0,64,98,0
0,61,98,2
0,69,33,4
0,67,97,46
0,38,100,4
0,42,72,0
0,40,95,0
0,64,98,0
0,61,98,2
0,67,98,0
0,74,72,0
0,83,72,0
0,42,67,4
0,69,38,0
0,61,98,4
0,64,98,0
0,57,98,2
0,62,97,34
0,57,97,2
0,66,97,2
0,35,108,18
0,42,74,0
0,26,95,0
0,62,98,0
0,66,98,0
0,57,98,2
0,78,72,0
0,81,72,0
0,42,67,130
0,69,33,0
0,86,95,6
0,86,100,0
0,98,95,0
0,98,100,0
0,42,67,76
0,69,33,0
0,62,98,4
0,66,98,0
0,57,98,2
0,38,100,66
0,42,72,0
0,57,98,2
0,66,98,0
0,62,98,2
0,86,95,0
0,86,100,0
0,98,95,0
0,98,100,0
0,35,108,20
0,42,67,0
0,69,33,0
0,30,95,0
0,57,98,0
0,66,98,0
0,62,98,2
0,85,95,0
0,85,100,0
0,97,95,0
0,97,100,0
0,35,108,0
0,42,72,0
0,69,43,0
0,85,95,4
0,85,100,0
0,97,95,0
0,97,100,0
0,69,38,76
0,42,67,76
0,69,33,0
0,30,95,0
0,57,98,0
0,62,98,2
0,66,98,0
0,83,95,0
0,83,100,0
0,95,95,0
0,95,100,0
0,69,33,10
0,38,100,2
0,42,72,0
0,33,95,2
0,62,98,2
0,66,98,0
0,69,98,0
0,83,95,0
0,83,100,0
0,95,95,0
0,95,100,0
0,42,67,126
0,69,38,0
0,62,98,0
0,66,98,0
0,57,98,2
0,81,95,0
0,81,100,0
0,93,95,0
0,93,100,0
0,35,108,118
0,42,74,0
0,26,95,0
0,57,98,0
0,62,98,0
0,66,98,2
0,81,95,0
0,81,100,0
0,93,95,0
0,93,100,0
0,42,67,134
0,69,33,0
0,42,67,76
0,69,33,0
0,62,98,4
0,66,98,0
0,57,98,2
0,38,100,62
0,42,72,0
0,62,98,4
0,66,98,0
0,35,108,44
0,42,67,0
0,69,33,0
0,26,95,4
0,57,98,0
0,66,98,0
0,62,98,2
0,35,108,20
0,42,72,0
0,69,43,0
0,30,95,4
0,69,38,76
0,42,67,76
0,69,33,0
0,30,95,4
0,57,98,0
0,66,98,0
0,62,98,2
0,69,33,14
0,38,100,36
0,42,72,0
0,33,95,4
0,66,98,0
0,69,98,0
0,62,98,2
0,42,67,12
0,69,38,0
0,62,98,4
0,66,98,0
0,57,98,2
0,64,97,24
0,61,97,2
0,57,97,2
0,35,108,30
0,42,74,0
0,33,95,4
0,57,98,2
0,61,98,0
0,64,98,0
0,42,67,112
0,69,33,0
0,42,67,76
0,69,33,0
0,61,98,4
0,64,98,0
0,57,98,2
0,38,100,46
0,42,72,0
0,57,98,4
0,61,98,0
0,64,98,2
0,35,108,52
0,42,67,0
0,69,33,0
0,37,95,4
0,57,98,0
0,61,98,0
0,64,98,2
0,35,108,138
0,42,72,0
0,69,43,0
0,69,38,2
0,42,67,76
0,69,33,0
0,37,95,4
0,61,98,0
0,64,98,0
0,57,98,2
0,69,33,20
0,38,100,58
0,42,72,0
0,40,95,4
0,61,98,0
0,64,98,0
0,67,98,2
0,42,67,122
0,69,38,0
0,61,98,4
0,64,98,0
0,57,98,2
0,35,108,128
0,42,74,0
0,33,95,4
0,57,98,0
0,61,98,0
0,64,98,2
0,42,67,112
0,69,33,0
0,42,67,76
0,69,33,0
0,61,98,4
0,64,98,0
0,57,98,2
0,38,100,46
0,42,72,0
0,57,98,4
0,61,98,0
0,64,98,2
0,35,108,88
0,42,67,0
0,69,33,0
0,33,95,4
0,57,98,0
0,61,98,0
0,64,98,2
0,35,108,16
0,42,72,0
0,69,43,0
0,37,95,4
0,69,38,76
0,42,67,56
0,69,33,0
0,37,95,4
0,61,98,0
0,64,98,0
0,57,98,2
0,69,33,20
0,67,97,38
0,38,100,20
0,42,72,0
0,40,95,4
0,61,98,0
0,64,98,0
0,67,98,2
0,42,67,2
0,69,38,0
0,61,98,4
0,64,98,0
0,57,98,2
0,62,97,16
0,66,97,8
0,35,108,36
0,42,74,0
0,26,95,4
0,57,98,0
0,62,98,0
0,66,98,2
0,42,67,106
0,69,33,0
0,83,95,6
0,83,100,0
0,83,72,0
0,95,95,0
0,95,100,0
0,42,67,76
0,69,33,0
0,38,100,0
