track,note,velocity,time
2,35,96,11896
2,35,96,344
2,35,96,330
2,35,96,344
2,35,83,984
2,35,96,88
2,35,96,1112
2,35,83,984
2,35,96,88
2,35,96,1112
2,35,83,984
2,35,96,88
2,35,96,1112
2,35,83,984
2,35,96,88
2,35,96,1112
2,35,83,984
2,35,96,88
2,35,96,1112
2,35,83,984
2,35,96,88
2,35,96,1112
2,35,83,984
2,35,96,88
2,35,96,1112
2,35,83,984
2,35,96,88
2,35,83,984
2,35,96,88
2,35,83,984
2,35,96,88
2,35,96,1112
2,35,83,984
2,35,96,88
2,35,96,1112
2,35,83,984
2,35,96,88
2,35,96,1112
2,35,83,984
2,35,96,88
2,35,96,1112
2,35,83,984
2,35,96,88
2,35,96,1112
2,35,83,984
2,35,96,88
2,35,96,1112
2,35,83,984
2,35,96,88
2,35,96,1112
2,35,83,984
2,35,96,88
2,35,96,1112
2,35,83,984
2,35,96,88
2,35,96,1112
2,35,83,984
2,35,96,88
2,35,96,1112
2,35,83,984
2,35,96,88
2,35,96,1112
2,35,83,984
2,35,96,88
2,35,96,1112
2,35,83,984
2,35,96,88
2,35,96,1112
2,35,83,984
2,35,96,88
2,35,96,1112
2,35,83,984
2,35,96,88
2,35,96,1112
2,35,83,984
2,35,96,88
2,35,96,1112
2,35,83,984
2,35,96,88
2,35,96,1112
2,35,83,984
2,35,96,88
2,35,96,1112
2,35,83,984
2,35,96,88
2,35,96,1112
2,35,83,984
2,35,96,88
2,35,96,1112
2,35,83,984
2,35,96,88
2,35,96,1112
2,35,83,984
2,35,96,88
2,35,96,1112
2,35,83,984
2,35,96,88
2,35,96,1112
2,35,83,984
2,35,96,88
2,35,96,1112
2,35,83,984
2,35,96,88
2,35,96,1112
2,35,83,984
2,35,96,88
2,35,96,1112
2,35,83,984
2,35,96,88
2,35,96,1112
2,35,96,1112
2,35,83,984
2,35,96,88
2,35,96,1112
3,38,81,13812
3,38,81,1114
3,38,81,1114
3,38,81,1114
3,38,81,1114
3,38,81,1114
3,38,81,1114
3,38,81,730
3,38,81,346
3,38,81,1114
3,38,81,1114
3,38,81,1114
3,38,81,1114
3,38,81,1114
3,38,81,1114
3,38,81,1114
3,38,65,986
3,38,81,90
3,38,81,730
3,38,81,346
3,38,81,372
3,38,81,346
3,38,81,730
3,38,81,346
3,38,81,730
3,38,81,346
3,38,81,730
3,38,81,346
3,38,81,730
3,38,81,346
3,38,81,730
3,38,81,346
3,38,68,602
3,38,81,90
3,38,81,346
3,38,81,730
3,38,81,346
3,38,81,730
3,38,81,346
3,38,81,730
3,38,81,346
3,38,81,730
3,38,81,346
3,38,81,730
3,38,81,346
3,38,81,730
3,38,81,346
3,38,81,730
3,38,81,346
3,38,81,1882
3,38,81,346
3,38,81,730
3,38,81,346
3,38,81,730
3,38,81,346
3,38,81,730
3,38,81,346
3,38,81,730
3,38,81,346
3,38,81,730
3,38,81,346
3,38,81,730
3,38,81,346
3,38,68,602
3,38,81,90
3,38,81,346
3,38,81,730
3,38,81,346
3,38,81,730
3,38,81,346
3,38,81,730
3,38,81,346
3,38,81,730
3,38,81,346
3,38,81,730
3,38,81,346
3,38,81,730
3,38,81,346
3,38,81,730
3,38,81,346
3,38,68,602
3,38,81,90
3,38,81,346
3,38,81,730
3,38,81,346
3,38,81,730
3,38,81,346
3,38,81,730
3,38,81,346
3,38,81,730
3,38,81,346
3,38,81,730
3,38,81,346
3,38,81,730
3,38,81,346
3,38,81,730
3,38,81,346
3,38,68,602
3,38,81,90
3,38,81,346
3,38,81,730
3,38,81,346
3,38,81,730
3,38,81,346
3,38,81,730
3,38,81,346
3,38,81,730
3,38,81,346
3,38,81,730
3,38,81,346
3,38,81,730
3,38,81,346
3,38,81,730
3,38,81,346
3,38,68,602
3,38,81,90
3,38,81,346
3,38,81,730
3,38,81,346
3,38,81,730
3,38,81,346
3,38,81,730
3,38,81,346
3,38,81,730
3,38,81,346
3,38,81,730
3,38,81,346
4,44,89,31728
4,44,91,344
4,44,89,350
4,44,91,240
4,44,89,350
4,44,91,344
4,44,89,350
4,44,91,344
4,44,91,350
4,44,89,350
4,44,91,344
4,44,91,350
4,44,89,350
4,44,91,344
4,44,89,350
4,44,91,344
4,44,89,350
4,44,91,344
4,44,89,350
4,44,91,344
4,44,91,350
4,44,89,350
4,44,91,344
4,44,91,350
4,44,89,350
4,44,91,344
4,44,89,350
4,44,91,344
4,44,89,350
4,44,91,344
4,44,89,350
4,44,91,344
4,44,91,350
4,44,89,350
4,44,91,344
4,44,91,350
4,44,89,350
4,44,91,344
4,44,89,350
4,44,91,344
4,44,89,350
4,44,91,344
4,44,89,350
4,44,91,344
4,44,91,350
4,44,89,19934
4,44,91,344
4,44,89,350
4,44,91,344
4,44,89,350
4,44,91,344
4,44,89,350
4,44,91,344
4,44,91,350
4,44,89,350
4,44,91,344
4,44,91,350
4,44,89,350
4,44,91,344
4,44,89,350
4,44,91,344
4,44,89,350
4,44,91,344
4,44,89,350
4,44,91,344
4,44,91,350
4,44,89,350
4,44,91,344
4,44,91,350
4,44,89,350
4,44,91,344
4,44,89,350
4,44,91,344
4,44,89,350
4,44,91,344
4,44,89,350
4,44,91,344
4,44,91,350
4,44,89,350
4,44,91,344
4,44,91,350
4,44,89,350
4,44,91,344
4,44,89,350
4,44,91,344
4,44,89,350
4,44,91,344
4,44,89,350
4,44,91,344
4,44,91,350
4,44,89,350
4,44,91,344
4,44,91,350
4,44,89,350
4,44,91,344
4,44,89,350
4,44,91,344
4,44,89,350
4,44,91,344
4,44,89,350
4,44,91,344
4,44,91,350
4,44,89,350
4,44,91,344
4,44,91,350
4,44,89,350
4,44,91,344
4,44,91,350
4,44,89,2654
4,44,91,344
4,44,89,350
4,44,91,344
4,44,89,350
4,44,91,344
5,51,72,11884
5,51,77,368
5,51,81,334
5,51,77,726
5,51,81,334
5,51,72,342
5,51,77,368
5,51,81,334
5,51,68,214
5,51,72,86
5,51,77,368
5,51,81,334
5,51,72,342
5,51,77,368
5,51,81,334
5,51,68,214
5,51,72,86
5,51,77,368
5,51,81,334
5,51,72,342
5,51,77,368
5,51,81,334
5,51,68,214
5,51,72,86
5,51,77,368
5,51,81,334
5,51,72,342
5,51,77,368
5,51,81,334
5,51,68,214
5,51,77,470
5,51,81,334
5,51,72,342
5,51,77,368
5,51,81,334
5,51,68,214
5,51,72,86
5,51,77,368
5,51,81,334
5,51,72,342
5,51,77,368
5,51,81,334
5,51,68,214
5,51,72,86
5,51,77,368
5,51,81,334
5,51,72,342
5,51,77,368
5,51,81,334
5,51,68,214
5,51,72,86
5,51,77,368
5,51,81,334
5,51,72,342
5,51,77,368
5,51,81,334
5,51,77,726
5,51,81,334
5,51,72,342
5,51,77,364
5,51,81,334
5,51,72,342
5,51,77,368
5,51,81,334
5,51,72,342
5,51,77,368
5,51,81,334
5,51,77,342
5,51,77,334
5,51,81,334
5,51,72,342
5,51,77,368
5,51,81,334
5,51,72,342
5,51,77,368
5,51,81,334
5,51,72,342
5,51,77,368
5,51,81,334
5,51,77,726
5,51,81,334
5,51,72,342
5,51,77,368
5,51,81,334
5,51,72,342
5,51,77,368
5,51,81,334
5,51,72,342
5,51,77,368
5,51,81,334
5,51,77,342
5,51,77,334
5,51,81,334
5,51,72,342
5,51,77,368
5,51,81,334
5,51,72,342
5,51,77,368
5,51,81,334
5,51,77,726
5,51,77,1102
5,51,81,334
5,51,72,342
5,51,77,368
5,51,81,334
5,51,68,214
5,51,72,86
5,51,77,368
5,51,81,334
5,51,72,342
5,51,77,368
5,51,81,334
5,51,68,214
5,51,72,86
5,51,77,368
5,51,81,334
5,51,72,342
5,51,77,368
5,51,81,334
5,51,68,214
5,51,72,86
5,51,77,368
5,51,81,334
5,51,72,342
5,51,77,368
5,51,81,334
5,51,68,214
5,51,77,470
5,51,81,334
5,51,72,342
5,51,77,368
5,51,81,334
5,51,68,214
5,51,72,86
5,51,77,368
5,51,81,334
5,51,72,342
5,51,77,368
5,51,81,334
5,51,68,214
5,51,72,86
5,51,77,368
5,51,81,334
5,51,72,342
5,51,77,368
5,51,81,334
5,51,68,214
5,51,72,86
5,51,77,368
5,51,81,334
5,51,72,342
5,51,77,368
5,51,81,334
5,51,68,214
5,51,77,470
5,51,81,334
5,51,72,342
5,51,77,368
5,51,81,334
5,51,72,342
5,51,77,368
5,51,81,334
5,51,72,342
5,51,77,368
5,51,81,334
5,51,77,342
5,51,77,334
5,51,81,334
5,51,72,342
5,51,77,368
5,51,81,334
5,51,72,342
5,51,77,368
5,51,81,334
5,51,72,342
5,51,77,368
5,51,81,334
5,51,77,726
5,51,81,334
5,51,72,342
5,51,77,368
5,51,81,334
5,51,72,342
5,51,77,368
5,51,81,334
5,51,72,342
5,51,77,368
5,51,81,334
5,51,77,342
5,51,77,334
5,51,81,334
5,51,72,342
5,51,77,368
5,51,81,334
5,51,72,342
5,51,77,368
5,51,81,334
5,51,72,342
5,51,77,368
5,51,81,334
5,51,77,726
5,51,81,334
5,51,72,342
5,51,77,368
5,51,81,334
5,51,72,342
5,51,77,368
5,51,81,334
5,51,72,342
5,51,77,368
5,51,81,334
5,51,72,342
5,51,77,368
5,51,81,334
5,51,77,726
5,51,77,1102
5,51,77,1102
5,51,81,334
5,51,72,342
5,51,77,368
5,51,81,334
6,49,72,13032
6,49,72,9186
6,49,72,9186
6,49,72,8040
6,49,72,8034
6,49,72,1122
6,49,72,9186
6,49,72,9186
6,49,72,9186
6,49,72,9186
6,49,72,5730
6,49,72,1122
6,49,72,1122
6,49,72,2274
7,46,56,1504
7,65,76,0
7,62,76,0
7,60,85,0
7,58,68,256
7,53,72,128
7,58,64,244
7,65,78,98
7,62,72,0
7,60,73,0
7,58,64,116
7,53,60,128
7,46,56,10
7,65,80,0
7,62,76,0
7,60,76,0
7,58,68,256
7,53,72,128
7,58,64,244
7,60,74,102
7,65,76,0
7,62,74,0
7,58,64,116
7,53,60,10
7,46,56,10
7,65,76,0
7,62,76,0
7,60,85,0
7,58,68,256
7,53,72,128
7,58,64,244
7,65,78,98
7,62,72,0
7,60,73,0
7,58,64,116
7,53,60,128
7,46,56,10
7,65,80,0
7,62,76,0
7,60,76,0
7,58,68,256
7,53,72,128
7,58,64,244
7,60,74,102
7,65,76,0
7,62,74,0
7,58,64,116
7,53,60,10
7,65,85,10
7,67,76,0
7,70,76,0
7,51,56,0
7,63,68,256
7,58,72,128
7,63,64,244
7,65,73,98
7,67,72,0
7,70,78,0
7,63,64,116
7,58,60,128
7,65,76,10
7,67,76,0
7,70,80,0
7,51,56,0
7,63,68,256
7,58,72,128
7,63,64,244
7,67,74,102
7,70,76,0
7,65,74,0
7,63,64,116
7,58,60,10
7,41,56,10
7,65,76,0
7,62,76,0
7,58,68,256
7,53,72,128
7,58,64,244
7,65,78,102
7,62,72,0
7,58,64,116
7,53,60,128
7,41,56,10
7,65,80,0
7,62,76,0
7,57,68,256
7,53,72,128
7,57,64,244
7,63,76,106
7,60,74,0
7,57,64,116
7,53,60,128
7,46,56,10
7,65,76,0
7,62,76,0
7,60,85,0
7,58,68,256
7,53,72,128
7,58,64,244
7,65,78,98
7,62,72,0
7,60,73,0
7,58,64,116
7,53,60,128
7,57,72,10
7,65,76,0
7,41,56,0
7,77,82,0
7,72,62,128
7,69,68,128
7,64,85,26
7,58,60,0
7,76,80,0
7,43,56,0
7,73,62,116
7,70,68,128
7,63,68,26
7,60,68,0
7,75,81,0
7,45,56,0
7,72,62,116
7,69,68,128
7,46,56,8
7,65,60,0
7,74,68,0
7,70,64,0
7,41,56,16490
7,69,85,0
7,77,72,0
7,65,72,0
7,43,56,36
7,70,76,0
7,77,72,0
7,67,85,0
7,45,56,36
7,77,85,0
7,72,85,0
7,69,76,0
7,46,56,36
7,62,72,0
7,74,79,0
7,70,68,0
7,65,85,0
7,58,64,6
7,62,78,30
7,65,76,128
7,70,76,128
7,53,56,2
7,75,86,0
7,67,85,0
7,65,85,56
7,74,85,0
7,72,85,12
7,63,76,0
7,46,56,0
7,65,83,0
7,70,85,0
7,62,85,0
7,65,78,98
7,70,85,78
7,72,85,256
7,46,56,22
7,74,94,0
7,65,76,0
7,68,72,0
7,48,56,64
7,70,72,256
7,50,56,14
7,72,90,0
7,70,68,238
7,51,56,12
7,70,72,0
7,67,85,0
7,63,76,0
7,63,76,14
7,67,93,128
7,70,76,254
7,41,56,10
7,60,76,0
7,65,94,0
7,69,85,0
7,63,85,636
7,65,76,114
7,69,81,232
7,46,56,4
7,70,76,0
7,65,76,0
7,74,68,0
7,65,76,156
7,74,85,118
7,65,72,216
7,41,56,26
7,65,76,0
7,69,85,0
7,77,76,256
7,43,56,58
7,67,85,0
7,70,72,0
7,77,81,70
7,45,56,26
7,69,76,0
7,72,94,0
7,77,73,92
7,46,56,14
7,74,76,0
7,65,76,0
7,70,76,0
7,65,76,12
7,70,76,128
7,74,68,72
7,65,85,26
7,62,85,0
7,68,71,0
7,46,56,0
7,47,56,64
7,62,76,16
7,48,56,64
7,65,88,0
7,68,68,46
7,51,56,40
7,67,76,0
7,70,78,0
7,63,76,0
7,63,76,16
7,67,94,128
7,70,68,68
7,70,68,26
7,51,56,0
7,75,80,0
7,67,73,0
7,50,56,64
7,75,62,20
7,48,56,8
7,79,72,0
7,70,85,0
7,75,66,26
7,67,66,0
7,74,85,10
7,65,72,0
7,70,94,0
7,46,56,0
7,65,72,18
7,70,85,128
7,74,70,154
7,65,68,26
7,74,85,0
7,69,85,0
7,41,56,0
7,65,72,68
7,63,64,30
7,72,76,0
7,69,85,0
7,65,64,4
7,62,68,6
7,70,79,0
7,65,76,0
7,46,56,0
7,62,72,42
7,65,94,120
7,70,76,220
7,41,56,24
7,69,76,0
7,60,85,0
7,53,56,44
7,77,85,0
7,69,85,0
7,41,56,17304
7,69,85,0
7,77,72,0
7,65,72,0
7,43,56,36
7,70,76,0
7,77,72,0
7,67,85,0
7,45,56,36
7,77,85,0
7,72,85,0
7,69,76,0
7,46,56,36
7,62,72,0
7,74,79,0
7,70,68,0
7,65,85,0
7,58,64,6
7,62,78,30
7,65,76,128
7,70,76,128
7,53,56,2
7,75,86,0
7,67,85,0
7,65,85,56
7,74,85,0
7,72,85,12
7,63,76,0
7,46,56,0
7,65,83,0
7,70,85,0
7,62,85,0
7,65,78,98
7,70,85,78
7,72,85,256
7,46,56,22
7,74,94,0
7,65,76,0
7,68,72,0
7,48,56,64
7,70,72,256
7,50,56,14
7,72,90,0
7,70,68,238
7,51,56,12
7,70,72,0
7,67,85,0
7,63,76,0
7,63,76,14
7,67,93,128
7,70,76,254
7,41,56,10
7,60,76,0
7,65,94,0
7,69,85,0
7,63,85,636
7,65,76,114
7,69,81,232
7,46,56,4
7,70,76,0
7,65,76,0
7,74,68,0
7,65,76,156
7,74,85,118
7,65,72,216
7,41,56,26
7,65,76,0
7,69,85,0
7,77,76,256
7,43,56,58
7,67,85,0
7,70,72,0
7,77,81,70
7,45,56,26
7,69,76,0
7,72,94,0
7,77,73,92
7,46,56,14
7,74,76,0
7,65,76,0
7,70,76,0
7,65,76,12
7,70,76,128
7,74,68,72
7,65,85,26
7,62,85,0
7,68,71,0
7,46,56,0
7,47,56,64
7,62,76,16
7,48,56,64
7,65,88,0
7,68,68,46
7,51,56,40
7,67,76,0
7,70,78,0
7,63,76,0
7,63,76,16
7,67,94,128
7,70,68,68
7,70,68,26
7,51,56,0
7,75,80,0
7,67,73,0
7,50,56,64
7,75,62,20
7,48,56,8
7,79,72,0
7,70,85,0
7,75,66,26
7,67,66,0
7,74,85,10
7,65,72,0
7,70,94,0
7,46,56,0
7,65,72,18
7,70,85,128
7,74,70,154
7,65,68,26
7,74,85,0
7,69,85,0
7,41,56,0
7,65,72,68
7,63,64,30
7,72,76,0
7,69,85,0
7,65,64,4
7,62,68,6
7,70,79,0
7,65,76,0
7,46,56,0
7,62,72,42
7,65,94,120
7,70,76,220
7,41,56,24
7,57,85,0
7,65,85,0
7,77,93,0
7,72,76,128
7,69,76,128
7,43,56,42
7,64,76,0
7,58,68,0
7,76,93,0
