track,note,velocity,time
0,56,90,1318
0,61,90,0
0,65,90,20
0,36,121,8
0,42,93,2
0,37,110,0
0,73,89,0
0,49,94,2
0,88,76,0
0,42,93,152
0,73,89,0
0,88,76,2
0,42,93,144
0,36,121,152
0,42,93,0
0,44,110,0
0,88,76,2
0,68,89,0
0,36,121,40
0,42,93,0
0,46,110,2
0,73,89,0
0,42,93,136
0,73,89,0
0,88,76,2
0,37,116,4
0,42,93,0
0,44,110,0
0,88,76,2
0,73,89,0
0,42,93,136
0,88,76,0
0,36,121,28
0,42,93,2
0,49,110,0
0,73,89,0
0,88,76,2
0,42,93,76
0,49,110,0
0,88,76,2
0,73,89,0
0,42,93,152
0,88,76,0
0,36,121,168
0,42,93,0
0,44,110,0
0,88,76,2
0,68,89,0
0,36,121,64
0,42,93,0
0,46,110,2
0,73,89,0
0,42,93,144
0,88,76,0
0,73,89,0
0,37,116,144
0,42,93,0
0,88,76,2
0,44,110,0
0,73,89,0
0,42,93,132
0,68,89,0
0,88,76,2
0,36,121,4
0,42,93,2
0,37,110,0
0,73,89,0
0,88,76,2
0,42,93,136
0,73,89,0
0,88,76,2
0,42,93,144
0,36,121,8
0,42,93,0
0,44,110,0
0,88,76,2
0,68,89,0
0,36,121,24
0,42,93,0
0,46,110,2
0,73,89,0
0,42,93,140
0,73,89,0
0,37,116,16
0,42,93,0
0,88,76,2
0,44,110,0
0,73,89,0
0,42,93,160
0,68,89,0
0,88,76,2
0,36,121,12
0,42,93,2
0,49,110,0
0,73,89,0
0,88,76,2
0,42,93,96
0,49,110,0
0,88,76,2
0,73,89,0
0,42,93,140
0,88,76,0
0,36,121,168
0,42,93,0
0,44,110,0
0,88,76,2
0,68,89,0
0,61,109,72
0,85,97,0
0,49,94,4
0,53,94,0
0,36,121,8
0,42,93,2
0,46,110,0
0,73,89,0
0,77,94,0
0,65,109,2
0,89,97,0
0,73,98,8
0,77,83,16
0,73,90,4
0,42,93,32
0,73,89,0
0,88,76,2
0,77,82,4
0,73,88,16
0,77,81,8
0,73,88,0
0,87,97,4
0,90,97,0
0,63,109,2
0,66,109,0
0,37,116,2
0,42,93,0
0,88,76,2
0,44,110,0
0,51,94,2
0,54,94,0
0,63,90,12
0,66,90,0
0,78,98,8
0,75,91,8
0,78,92,10
0,44,93,0
0,68,89,0
0,88,76,2
0,75,86,2
0,78,91,0
0,75,88,0
0,66,90,18
0,70,90,0
0,82,111,20
0,36,121,0
0,42,93,2
0,37,110,0
0,73,89,0
0,88,76,2
0,54,94,0
0,58,94,0
0,66,109,2
0,70,109,0
0,90,97,0
0,94,97,0
0,78,98,8
0,82,100,10
0,78,94,24
0,42,93,4
0,73,89,0
0,88,76,2
0,82,92,10
0,78,85,16
0,82,92,4
0,78,83,24
0,82,96,28
0,42,93,4
0,68,90,20
0,65,90,12
0,80,111,14
0,36,121,16
0,42,93,0
0,88,76,2
0,68,89,0
0,89,97,6
0,92,97,0
0,65,109,2
0,68,109,0
0,56,94,0
0,77,84,2
0,53,94,0
0,80,92,36
0,77,85,8
0,80,86,36
0,36,121,10
0,42,93,2
0,46,110,0
0,73,89,0
0,77,76,10
0,80,82,0
0,64,90,8
0,67,90,16
0,42,93,4
0,73,89,0
0,88,76,2
0,79,115,2
0,88,97,4
0,91,97,0
0,64,109,2
0,67,109,0
0,52,94,2
0,55,94,0
0,76,85,4
0,80,111,74
0,65,90,0
0,68,90,0
0,37,116,0
0,42,93,0
0,88,76,2
0,44,110,0
0,89,97,10
0,92,97,0
0,65,109,2
0,68,109,0
0,53,94,0
0,56,94,0
0,77,87,8
0,80,91,0
0,77,78,8
0,80,84,0
0,42,93,12
0,68,89,0
0,88,76,2
0,77,81,4
0,80,82,4
0,77,80,2
0,61,90,16
0,36,121,0
0,42,93,2
0,49,110,0
0,73,89,0
0,88,76,2
0,80,81,4
0,77,78,4
0,80,80,40
0,77,75,16
0,42,93,28
0,49,110,0
0,88,76,2
0,73,89,0
0,80,78,14
0,77,76,16
0,80,78,40
0,42,93,16
0,77,77,2
0,88,76,0
0,80,76,0
0,77,78,8
0,80,79,52
0,36,121,38
0,42,93,0
0,88,76,2
0,44,110,0
0,68,89,0
0,77,75,14
0,80,75,0
0,77,74,44
0,80,80,4
0,36,121,12
0,42,93,2
0,46,110,0
0,73,89,0
0,77,78,6
0,80,74,8
0,77,78,44
0,42,93,46
0,73,89,0
0,88,76,2
0,80,70,0
0,77,72,8
0,80,73,4
0,77,70,52
0,37,116,0
0,42,93,0
0,88,76,2
0,44,110,0
0,73,89,0
0,80,72,0
0,77,83,8
0,56,90,34
0,44,93,40
0,68,89,0
0,88,76,2
0,36,121,140
0,42,93,0
0,88,76,2
0,37,110,0
0,73,89,0
0,89,94,152
0,42,93,0
0,88,76,2
0,73,89,0
0,56,94,0
0,65,94,2
0,92,97,0
0,101,97,0
0,68,109,2
0,77,109,0
0,80,91,0
0,89,84,8
0,80,85,32
0,89,76,18
0,68,109,12
0,92,97,0
0,42,93,8
0,56,94,4
0,77,109,4
0,101,97,0
0,65,94,2
0,80,87,6
0,89,107,20
0,92,97,4
0,101,97,0
0,68,109,2
0,77,109,0
0,36,121,6
0,42,93,0
0,88,76,2
0,44,110,0
0,80,115,2
0,56,94,0
0,65,94,2
0,36,121,20
0,42,93,2
0,46,110,0
0,73,89,0
0,63,94,84
0,87,115,4
0,42,93,0
0,88,76,2
0,73,89,0
0,90,97,6
0,99,97,0
0,66,109,2
0,75,109,0
0,54,94,6
0,78,100,0
0,87,107,100
0,37,116,8
0,42,93,0
0,44,110,0
0,88,76,2
0,73,89,0
0,99,97,0
0,66,109,2
0,75,109,0
0,90,97,0
0,54,94,2
0,63,94,4
0,78,88,4
0,87,111,100
0,42,93,8
0,68,89,0
0,88,76,2
0,66,109,6
0,90,97,0
0,99,97,0
0,75,109,2
0,78,96,6
0,54,94,4
0,63,94,0
0,87,87,4
0,78,88,0
0,87,85,38
0,78,71,24
0,36,121,4
0,42,93,2
0,49,110,0
0,73,89,0
0,88,76,2
0,87,53,0
0,42,93,86
0,49,110,0
0,88,76,2
0,73,89,0
0,77,92,2
0,85,103,0
0,89,97,4
0,97,97,0
0,65,109,2
0,73,109,0
0,53,94,2
0,61,94,0
0,42,93,112
0,88,76,0
0,89,97,8
0,97,97,0
0,65,109,2
0,73,109,0
0,61,94,0
0,53,94,0
0,85,103,32
0,36,121,12
0,42,93,0
0,88,76,2
0,44,110,0
0,68,89,0
0,77,85,10
0,85,81,4
0,77,76,44
0,85,75,48
0,36,121,20
0,42,93,0
0,46,110,2
0,73,89,0
0,77,74,16
0,85,75,36
0,77,73,8
0,85,76,44
0,42,93,10
0,73,89,0
0,88,76,2
0,77,74,8
0,85,68,36
0,77,69,10
0,37,116,52
0,42,93,0
0,44,110,0
0,85,73,2
0,73,89,0
0,88,76,0
0,77,71,12
0,42,93,16
0,68,89,0
0,88,76,2
0,56,90,112
0,61,90,0
0,65,90,20
0,65,100,8
0,77,82,0
0,36,121,4
0,42,93,2
0,37,110,0
0,73,89,0
0,88,76,2
0,77,95,2
0,73,88,0
0,42,93,32
0,73,89,0
0,88,76,2
0,65,100,104
0,77,88,4
0,42,93,8
0,88,76,0
0,73,68,4
0,65,100,92
0,36,121,4
0,42,93,0
0,88,76,2
0,37,110,0
0,73,89,0
0,77,84,6
0,73,75,0
0,77,74,4
0,73,73,36
0,77,68,0
0,36,121,12
0,42,93,0
0,32,110,2
0,73,74,0
0,77,64,0
0,73,66,44
0,77,71,42
0,42,93,24
0,88,76,0
0,37,116,144
0,42,93,0
0,88,76,2
0,68,89,0
0,66,100,0
0,78,92,4
0,75,82,0
0,42,93,28
0,88,76,0
0,80,96,160
0,36,121,8
0,42,93,2
0,37,110,0
0,73,89,0
0,88,76,2
0,68,100,8
0,77,80,0
0,42,93,64
0,73,89,0
0,88,76,2
0,80,103,132
0,77,85,24
0,42,93,4
0,88,76,0
0,80,103,76
0,68,100,16
0,36,121,8
0,42,93,0
0,37,110,0
0,88,76,2
0,77,87,10
0,80,83,36
0,77,77,0
0,80,83,12
0,36,121,12
0,42,93,2
0,44,110,0
0,73,89,0
0,68,100,2
0,77,74,4
0,80,65,36
0,77,71,6
0,42,93,68
0,73,89,0
0,88,76,2
0,37,116,0
0,42,93,0
0,88,76,2
0,32,110,0
0,73,89,0
0,65,100,10
0,77,83,0
0,73,81,2
0,44,93,88
0,68,89,0
0,88,76,2
0,82,94,100
0,61,90,12
0,58,90,12
0,66,90,0
0,36,121,4
0,42,93,2
0,88,76,0
0,37,110,0
0,70,100,2
0,78,90,2
0,82,80,16
0,78,82,10
0,82,84,4
0,42,93,16
0,73,89,0
0,88,76,2
0,78,78,8
0,82,80,8
0,78,75,4
0,42,93,0
0,88,76,0
0,82,79,16
0,78,73,36
0,82,74,8
0,78,69,40
0,36,121,26
0,42,93,0
0,88,76,2
0,37,110,0
0,82,75,10
0,78,73,44
0,82,76,12
0,78,75,32
0,36,121,0
0,42,93,2
0,37,110,0
0,73,89,0
0,82,74,4
0,78,78,44
0,82,79,8
0,78,53,44
0,42,93,0
0,88,76,2
0,73,89,0
0,56,90,128
0,65,90,0
0,37,116,2
0,42,93,0
0,32,110,0
0,73,89,0
0,80,79,0
0,88,76,0
0,77,82,4
0,68,100,4
0,42,93,88
0,68,89,0
0,88,76,2
0,80,100,120
0,36,121,20
0,42,93,2
0,37,110,0
0,73,89,0
0,77,95,2
0,88,76,0
0,68,109,4
0,92,97,0
0,68,100,0
0,80,83,24
0,65,109,16
0,89,97,0
0,42,93,4
0,73,89,0
0,88,76,2
0,73,85,2
0,77,95,0
0,65,100,8
0,42,93,40
0,88,76,0
0,77,95,104
0,80,107,0
0,36,121,20
0,42,93,0
0,88,76,2
0,37,110,0
0,65,109,6
0,89,97,0
0,82,107,64
0,70,109,16
0,94,97,0
0,36,121,8
0,42,93,2
0,32,110,0
0,73,89,0
0,78,100,0
0,82,96,8
0,78,90,40
0,82,94,8
0,42,93,4
0,73,89,0
0,88,76,2
0,78,82,10
0,82,87,4
0,80,100,80
0,68,109,4
0,92,97,0
0,37,116,4
0,42,93,0
0,88,76,2
0,37,110,0
0,73,89,0
0,77,80,18
0,80,88,16
0,77,85,8
0,80,94,38
0,44,93,28
0,68,89,0
0,65,100,2
0,88,76,0
0,66,90,104
0,63,100,12
0,60,90,0
0,63,90,0
0,75,107,8
0,36,121,0
0,42,93,2
0,32,110,0
0,87,97,0
0,63,109,2
0,88,76,0
0,72,90,10
0,75,85,0
0,72,84,4
0,75,85,44
0,63,94,26
0,42,93,4
0,88,76,2
0,68,89,0
0,72,79,8
0,75,83,34
0,72,75,0
0,75,76,28
0,68,94,18
0,42,93,4
0,88,76,0
0,56,100,12
0,72,90,4
0,36,121,8
0,42,93,0
0,88,76,2
0,32,110,0
0,71,79,2
0,80,97,0
0,56,109,2
0,80,94,0
0,68,92,0
0,72,83,12
0,68,87,28
0,72,78,22
0,36,121,4
0,68,77,2
0,42,93,0
0,27,110,0
0,68,89,2
0,72,72,12
0,68,75,28
0,72,69,24
0,42,93,12
0,68,89,0
0,88,76,2
0,37,116,0
0,42,93,0
0,88,76,2
0,32,110,0
0,68,100,0
0,72,85,4
0,80,98,0
0,42,93,8
0,68,89,0
0,88,76,2
0,65,90,28
0,61,90,12
0,77,90,0
0,73,85,12
0,36,121,6
0,42,93,0
0,37,110,0
0,73,89,0
0,88,76,2
0,65,100,4
0,68,109,132
0,92,97,0
0,73,94,8
0,80,115,0
0,42,93,4
0,73,89,0
0,88,76,2
0,42,93,28
0,88,76,0
0,77,92,80
0,73,83,4
0,65,109,4
0,89,97,0
0,36,121,4
0,42,93,0
0,88,76,2
0,37,110,0
0,68,89,0
0,82,107,116
0,70,109,4
0,94,97,0
0,36,121,4
0,42,93,0
0,32,110,2
0,73,89,0
0,78,111,4
0,82,96,8
0,78,91,32
0,82,92,24
0,42,93,20
0,73,89,0
0,88,76,2
0,78,82,14
0,82,85,16
0,37,116,0
0,42,93,0
0,88,76,2
0,37,110,0
0,73,89,0
0,80,98,6
0,92,97,0
0,68,109,2
0,77,90,10
0,80,87,4
0,77,78,0
0,44,93,30
0,68,89,0
0,88,76,2
0,66,90,8
0,60,90,12
0,63,90,0
0,87,100,2
0,36,121,8
0,42,93,2
0,88,76,0
0,32,110,0
0,78,103,14
0,87,92,32
0,78,81,24
0,87,87,24
0,63,94,20
0,42,93,4
0,68,89,0
0,88,76,2
0,78,72,2
0,87,82,0
0,78,81,28
0,87,85,6
0,68,94,24
0,42,93,4
0,88,76,0
0,84,104,140
0,36,121,16
0,42,93,0
0,88,76,2
0,32,110,0
0,80,94,0
0,75,93,10
0,84,82,24
0,75,85,24
0,84,74,26
0,75,84,8
0,36,121,4
0,42,93,0
0,39,110,2
0,68,89,0
0,84,77,24
0,75,77,28
0,84,71,34
0,75,75,12
0,42,93,8
0,68,89,0
0,88,76,2
0,84,73,34
0,75,78,16
0,75,82,44
0,84,75,0
0,37,116,0
0,42,93,0
0,88,76,2
0,27,110,0
0,75,86,18
0,84,70,12
0,42,93,16
0,68,89,0
0,88,76,2
0,61,90,112
0,65,90,12
0,77,69,0
0,36,121,12
0,42,93,2
0,37,110,0
0,73,89,0
0,88,76,0
0,80,111,136
0,68,109,12
0,92,97,0
0,42,93,8
0,73,89,0
0,88,76,2
0,77,86,2
0,80,86,8
0,77,85,4
0,80,86,28
0,42,93,20
0,73,79,120
0,77,85,0
0,65,109,8
0,89,97,0
0,36,121,8
0,42,93,0
0,88,76,2
0,37,110,0
0,70,109,96
0,94,97,0
0,82,96,4
0,36,121,20
0,42,93,0
0,44,110,2
0,73,89,0
0,78,98,0
0,82,92,8
0,78,93,36
0,82,88,12
0,42,93,36
0,73,89,0
0,88,76,2
0,78,90,8
0,82,87,8
0,37,116,0
0,42,93,0
0,32,110,2
0,73,89,0
0,92,97,0
0,68,109,2
0,80,103,0
0,88,76,0
0,77,85,0
0,80,82,4
0,77,90,0
0,80,87,36
0,44,93,8
0,68,89,0
0,88,76,2
0,77,76,136
0,36,121,4
0,42,93,2
0,37,110,0
0,73,89,0
0,88,76,2
0,73,81,4
0,77,73,24
0,73,75,24
0,42,93,16
0,73,89,0
0,88,76,2
0,77,73,6
0,65,100,12
0,73,69,0
0,42,93,116
0,73,89,0
0,88,76,2
0,77,70,14
0,77,89,108
0,36,121,12
0,42,93,0
0,37,110,0
0,88,76,2
0,73,93,2
0,65,100,4
0,77,70,32
0,73,80,28
0,77,68,4
0,36,121,4
0,42,93,2
0,44,110,0
0,73,89,0
0,65,100,18
0,73,82,0
0,77,73,20
0,73,78,28
0,77,64,26
0,42,93,0
0,88,76,2
0,73,89,0
0,73,58,6
0,37,116,8
0,42,93,0
0,88,76,2
0,32,110,0
0,73,89,0
0,66,100,6
0,78,92,4
0,75,87,0
0,78,81,16
0,75,86,32
0,42,93,0
0,88,76,2
0,68,89,0
0,78,63,0
0,80,88,100
0,36,121,20
0,42,93,2
0,37,110,0
0,73,89,0
0,88,76,0
0,68,100,4
0,77,54,4
0,80,87,32
0,77,69,6
0,42,93,64
0,73,89,0
0,88,76,2
0,80,92,92
0,77,75,32
0,42,93,16
0,80,87,60
0,68,100,20
0,36,121,12
0,42,93,0
0,88,76,2
0,37,110,0
0,77,83,0
0,80,85,2
0,77,77,44
0,80,82,48
0,77,78,0
0,36,121,0
0,42,93,2
0,32,110,0
0,73,89,0
0,80,78,8
0,77,74,8
0,80,69,44
0,77,68,28
0,42,93,4
0,73,89,0
0,88,76,2
0,65,100,8
0,77,81,12
0,37,116,8
0,42,93,0
0,88,76,2
0,73,89,0
0,73,85,4
0,77,79,8
0,73,78,8
0,77,76,0
0,42,93,0
0,68,89,0
0,88,76,2
0,73,72,14
0,61,90,60
0,58,90,16
0,66,90,0
0,82,88,28
0,70,100,8
0,36,121,4
0,80,72,2
0,42,93,0
0,37,110,0
0,88,76,2
