track,note,velocity,time
1,65,100,11690
1,60,91,4
1,69,100,0
1,65,100,988
1,69,100,4
1,60,91,2
1,65,100,984
1,60,91,4
1,69,100,0
1,65,100,990
1,69,100,4
1,60,91,0
1,65,100,982
1,62,91,4
1,70,100,0
1,65,100,988
1,70,100,4
1,62,91,2
1,65,100,984
1,62,91,4
1,70,100,0
1,65,100,990
1,62,91,4
1,70,100,0
1,64,100,982
1,67,100,4
1,60,91,0
1,64,100,988
1,67,100,4
1,60,91,2
1,64,100,984
1,67,100,4
1,60,91,0
1,64,100,990
1,67,100,4
1,60,91,0
1,65,100,982
1,60,91,4
1,69,100,0
1,65,100,988
1,69,100,4
1,60,91,2
1,64,100,984
1,67,100,4
1,60,91,0
1,64,100,990
1,67,100,4
1,60,91,0
1,65,100,982
1,60,91,4
1,69,100,0
1,65,100,988
1,69,100,4
1,60,91,2
1,65,100,984
1,60,91,4
1,69,100,0
1,65,100,990
1,69,100,4
1,60,91,0
1,65,100,982
1,62,91,4
1,70,100,0
1,65,100,988
1,70,100,4
1,62,91,2
1,65,100,984
1,62,91,4
1,70,100,0
1,65,100,990
1,62,91,4
1,70,100,0
1,65,100,982
1,60,91,4
1,69,100,0
1,65,100,988
1,69,100,4
1,60,91,2
1,64,100,984
1,67,100,4
1,60,91,0
1,64,100,990
1,67,100,4
1,60,91,0
1,65,100,982
1,60,91,4
1,69,100,0
1,65,100,988
1,69,100,4
1,60,91,2
1,64,100,984
1,67,100,4
1,60,91,0
1,64,100,990
1,67,100,4
1,60,91,0
1,65,100,982
1,60,91,4
1,69,100,0
1,65,100,988
1,69,100,4
1,60,91,2
1,65,100,984
1,60,91,4
1,69,100,0
1,65,100,990
1,69,100,4
1,60,91,0
1,65,100,982
1,62,91,4
1,70,100,0
1,65,100,988
1,70,100,4
1,62,91,2
1,65,100,984
1,62,91,4
1,70,100,0
1,65,100,990
1,62,91,4
1,70,100,0
1,64,100,982
1,67,100,4
1,60,91,0
1,64,100,988
1,67,100,4
1,60,91,2
1,64,100,984
1,67,100,4
1,60,91,0
1,64,100,990
1,67,100,4
1,60,91,0
1,65,100,982
1,60,91,4
1,69,100,0
1,65,100,988
1,69,100,4
1,60,91,2
1,64,100,984
1,67,100,4
1,60,91,0
1,64,100,990
1,67,100,4
1,60,91,0
1,65,100,982
1,60,91,4
1,69,100,0
1,65,100,988
1,69,100,4
1,60,91,2
1,65,100,984
1,60,91,4
1,69,100,0
1,65,100,990
1,69,100,4
1,60,91,0
1,65,100,982
1,62,91,4
1,70,100,0
1,65,100,988
1,70,100,4
1,62,91,2
1,65,100,984
1,62,91,4
1,70,100,0
1,65,100,990
1,62,91,4
1,70,100,0
1,65,100,982
1,60,91,4
1,69,100,0
1,65,100,988
1,69,100,4
1,60,91,2
1,64,100,984
1,67,100,4
1,60,91,0
1,64,100,990
1,67,100,4
1,60,91,0
1,65,100,982
1,60,91,4
1,69,100,0
1,65,100,988
1,69,100,4
1,60,91,2
1,64,100,984
1,67,100,4
1,60,91,0
1,64,100,990
1,67,100,4
1,60,91,0
1,65,100,982
1,60,91,4
1,69,100,0
1,65,100,988
1,69,100,4
1,60,91,2
1,65,100,984
1,60,91,4
1,69,100,0
1,65,100,990
1,69,100,4
1,60,91,0
1,65,100,982
1,62,91,4
1,70,100,0
1,65,100,988
1,70,100,4
1,62,91,2
1,65,100,984
1,62,91,4
1,70,100,0
1,65,100,990
1,62,91,4
1,70,100,0
1,64,100,982
1,67,100,4
1,60,91,0
1,64,100,988
1,67,100,4
1,60,91,2
1,64,100,984
1,67,100,4
1,60,91,0
1,64,100,990
1,67,100,4
1,60,91,0
1,65,100,982
1,60,91,4
1,69,100,0
1,65,100,988
1,69,100,4
1,60,91,2
1,64,100,984
1,67,100,4
1,60,91,0
1,64,100,990
1,67,100,4
1,60,91,0
1,65,100,982
1,60,91,4
1,69,100,0
1,65,100,988
1,69,100,4
1,60,91,2
1,65,100,984
1,60,91,4
1,69,100,0
1,65,100,990
1,69,100,4
1,60,91,0
1,65,100,982
1,62,91,4
1,70,100,0
1,65,100,988
1,70,100,4
1,62,91,2
1,65,100,984
1,62,91,4
1,70,100,0
1,65,100,990
1,62,91,4
1,70,100,0
1,65,100,982
1,60,91,4
1,69,100,0
1,65,100,988
1,69,100,4
1,60,91,2
1,64,100,984
1,67,100,4
1,60,91,0
1,64,100,990
1,67,100,4
1,60,91,0
1,65,100,982
1,60,91,4
1,69,100,0
1,65,100,988
1,69,100,4
1,60,91,2
1,66,100,984
1,70,100,4
1,61,91,0
1,66,100,990
1,70,100,4
1,61,91,0
1,63,100,982
1,59,91,4
1,66,100,0
1,63,100,988
1,66,100,4
1,59,91,2
1,63,100,984
1,59,91,4
1,66,100,0
1,63,100,990
1,59,91,4
1,66,100,0
1,64,100,982
1,68,100,4
1,59,91,0
1,64,100,988
1,68,100,4
1,59,91,2
1,64,100,984
1,68,100,4
1,59,91,0
1,64,100,990
1,68,100,4
1,59,91,0
1,61,100,982
1,58,91,4
1,66,100,0
1,61,100,988
1,66,100,4
1,58,91,2
1,61,100,984
1,58,91,4
1,66,100,0
1,61,100,990
1,58,91,4
1,66,100,0
1,63,100,982
1,59,91,4
1,66,100,0
1,63,100,988
1,66,100,4
1,59,91,2
1,61,100,984
1,58,91,4
1,66,100,0
1,61,100,990
1,58,91,4
1,66,100,0
1,63,100,982
1,59,91,4
1,66,100,0
1,63,100,988
1,66,100,4
1,59,91,2
1,63,100,984
1,59,91,4
1,66,100,0
1,63,100,990
1,59,91,4
1,66,100,0
1,64,100,982
1,68,100,4
1,59,91,0
1,64,100,988
1,68,100,4
1,59,91,2
1,64,100,984
1,68,100,4
1,59,91,0
1,64,100,990
1,68,100,4
1,59,91,0
1,63,100,982
1,59,91,4
1,66,100,0
1,63,100,988
1,66,100,4
1,59,91,2
1,61,100,984
1,58,91,4
1,66,100,0
1,61,100,990
1,58,91,4
1,66,100,0
1,63,100,982
1,59,91,4
1,66,100,0
1,63,100,988
1,66,100,4
1,59,91,2
1,64,100,984
1,68,100,4
1,59,91,0
1,64,100,988
1,68,100,4
1,59,91,2
1,63,100,984
1,59,91,4
1,66,100,0
1,63,100,988
1,66,100,4
1,59,91,2
2,29,100,11100
2,29,92,340
2,36,100,144
2,36,100,352
2,41,100,16
2,41,92,352
2,36,100,144
2,41,100,352
2,34,100,16
2,34,92,340
2,41,100,144
2,34,100,352
2,34,92,352
2,38,100,144
2,41,100,88
2,36,100,88
2,36,92,340
2,43,100,24
2,43,100,352
2,48,100,152
2,36,92,352
2,43,100,22
2,40,100,128
2,41,100,128
2,41,92,340
2,36,100,152
2,36,100,344
2,36,92,352
2,40,100,22
2,43,100,128
2,41,100,128
2,41,92,340
2,36,100,144
2,36,100,352
2,41,100,16
2,41,92,352
2,36,100,144
2,41,100,352
2,34,100,16
2,34,92,340
2,41,100,144
2,34,100,352
2,34,92,352
2,38,100,144
2,41,100,88
2,41,100,88
2,41,92,340
2,36,100,152
2,41,100,148
2,36,100,148
2,40,100,344
2,43,100,128
2,41,100,128
2,41,78,340
2,36,100,152
2,36,100,344
2,36,92,352
2,36,100,28
2,40,100,128
2,43,92,116
2,29,100,28
2,29,92,340
2,36,100,144
2,36,100,352
2,41,100,16
2,41,92,352
2,36,100,144
2,41,100,352
2,34,100,16
2,34,92,340
2,41,100,144
2,34,100,352
2,34,92,352
2,38,100,144
2,41,100,88
2,36,100,88
2,36,92,340
2,43,100,24
2,43,100,352
2,48,100,152
2,36,92,352
2,43,100,22
2,40,100,128
2,41,100,128
2,41,92,340
2,36,100,152
2,36,100,344
2,36,92,352
2,40,100,22
2,43,100,128
2,41,100,128
2,41,92,340
2,36,100,144
2,36,100,352
2,41,100,16
2,41,92,352
2,36,100,144
2,41,100,352
2,34,100,16
2,34,92,340
2,41,100,144
2,34,100,352
2,34,92,352
2,38,100,144
2,41,100,88
2,41,100,88
2,41,92,340
2,36,100,152
2,41,100,148
2,36,100,148
2,36,92,352
2,40,100,18
2,43,100,128
2,41,100,128
2,41,78,340
2,36,100,152
2,36,100,344
2,36,92,352
2,40,100,28
2,43,100,128
2,48,92,116
2,41,100,28
2,41,92,340
2,36,100,144
2,36,100,352
2,41,100,16
2,41,92,352
2,36,100,144
2,41,100,352
2,34,100,16
2,34,92,340
2,41,100,144
2,34,100,352
2,34,92,352
2,38,100,144
2,41,100,88
2,36,100,88
2,36,92,340
2,43,100,24
2,43,100,352
2,48,100,152
2,36,92,352
2,43,100,22
2,40,100,128
2,41,100,128
2,41,92,340
2,36,100,152
2,36,100,344
2,36,92,352
2,40,100,22
2,43,100,128
2,41,100,128
2,41,92,340
2,36,100,144
2,36,100,352
2,41,100,16
2,41,92,352
2,36,100,144
2,41,100,352
2,34,100,16
2,34,92,340
2,41,100,144
2,34,100,352
2,34,92,352
2,38,100,144
2,41,100,88
2,41,100,88
2,41,92,340
2,36,100,152
2,41,100,148
2,36,100,148
2,36,92,352
2,36,100,18
2,40,100,128
2,43,92,96
2,41,100,18
2,41,78,340
2,36,100,152
2,41,100,128
2,42,100,128
2,42,92,352
2,37,100,28
2,42,100,128
2,35,100,108
2,35,92,340
2,30,100,144
2,30,100,352
2,35,100,16
2,35,92,352
2,30,100,144
2,35,100,128
2,28,100,128
2,32,92,340
2,35,100,24
2,28,100,352
2,28,92,352
2,35,100,44
2,28,100,88
2,30,100,88
2,30,92,340
2,37,100,24
2,37,100,352
2,30,100,152
2,37,92,352
2,37,100,152
2,34,100,352
2,35,100,22
2,35,92,340
2,30,100,152
2,35,100,126
2,30,100,126
2,30,92,352
2,34,100,22
2,37,100,128
2,35,100,128
2,35,92,340
2,30,100,144
2,30,100,352
2,35,100,16
2,35,92,352
2,30,100,144
2,35,100,128
2,28,100,128
2,28,92,340
2,35,100,144
2,28,100,352
2,28,92,352
2,32,100,144
2,35,100,88
2,35,100,88
2,35,92,340
2,30,100,26
2,35,100,148
2,30,100,148
2,30,92,352
2,37,100,18
2,30,100,128
2,35,100,128
2,35,78,340
2,30,100,22
2,35,100,88
2,28,100,88
2,28,92,352
2,32,100,28
2,35,100,128
2,35,100,108
2,35,92,352
2,30,100,28
2,30,100,128
2,35,100,108
3,82,52,1298
3,74,56,6
3,81,56,32
3,72,52,10
3,72,56,68
3,81,56,6
3,82,56,40
3,74,60,6
3,81,60,560
3,72,60,10
3,79,60,530
3,70,48,550
3,76,56,12
3,79,48,538
3,69,56,536
3,77,48,8
3,72,52,618
3,81,56,566
3,84,52,20
3,72,48,526
3,69,52,2
3,79,52,6
3,76,40,0
3,82,44,0
3,86,60,5238
3,82,52,10
3,70,48,14
3,74,73,6
3,84,56,90
3,88,60,6
3,72,52,0
3,76,48,2
3,74,56,12
3,77,48,16
3,89,63,4
3,86,56,0
3,86,56,296
3,82,52,2
3,70,36,10
3,74,52,10
3,86,52,32
3,89,60,2
3,77,64,4
3,86,60,170
3,74,56,8
3,82,48,0
3,70,32,4
3,60,56,6276
3,72,60,2
3,77,60,552
3,65,52,14
3,81,64,510
3,69,60,10
3,67,44,0
3,79,64,6
3,72,60,564
3,76,52,10
3,84,64,4
3,86,60,5140
3,82,52,10
3,70,48,14
3,74,73,6
3,84,56,90
3,88,60,6
3,72,52,0
3,76,48,2
3,74,56,12
3,77,48,16
3,89,63,4
3,86,56,0
3,89,64,44
3,86,64,0
3,77,56,12
3,74,60,0
3,82,52,20
3,86,56,0
3,74,52,0
3,70,46,10
3,86,52,28
3,89,60,2
3,77,64,4
3,86,60,106
3,74,56,8
3,82,48,0
3,70,32,4
3,60,56,5190
3,72,60,2
3,77,60,552
3,65,52,14
3,81,64,510
3,69,60,10
3,81,43,26
3,72,54,0
3,84,64,6
3,96,46,18
3,84,67,8
3,91,49,564
3,79,64,0
3,82,67,548
3,94,48,12
3,86,60,5150
3,82,52,10
3,70,48,14
3,74,73,6
3,84,56,90
3,88,60,6
3,72,52,0
3,76,48,2
3,74,56,12
3,77,48,16
3,89,63,4
3,86,56,0
3,86,56,296
3,82,52,2
3,70,36,10
3,74,52,10
3,86,52,32
3,89,60,2
3,77,64,4
3,86,60,170
3,74,56,8
3,82,48,0
3,70,32,4
3,60,56,6276
3,72,60,2
3,77,60,552
3,65,52,14
3,81,64,510
3,69,60,10
3,67,44,0
3,79,64,6
3,72,60,564
3,76,52,10
3,84,64,4
3,86,60,5140
3,82,52,10
3,70,48,14
3,74,73,6
3,84,56,90
3,88,60,6
3,72,52,0
3,76,48,2
3,74,56,12
3,77,48,16
3,89,63,4
3,86,56,0
3,89,64,44
3,86,64,0
3,77,56,12
3,74,60,0
3,82,52,20
3,86,56,0
3,74,52,0
3,70,46,10
3,86,52,28
3,89,60,2
3,77,64,4
3,86,60,106
3,74,56,8
3,82,48,0
3,70,32,4
3,60,56,5190
3,72,60,2
3,77,60,552
3,65,52,14
3,81,64,510
3,69,60,10
3,81,43,26
3,72,54,0
3,84,64,6
3,96,46,18
3,84,67,8
3,91,49,564
3,79,64,0
3,82,67,548
3,94,48,12
3,86,60,5150
3,82,52,10
3,70,48,14
3,74,73,6
3,84,56,90
3,88,60,6
3,72,52,0
3,76,48,2
3,74,56,12
3,77,48,16
3,89,63,4
3,86,56,0
3,86,56,296
3,82,52,2
3,70,36,10
3,74,52,10
3,86,52,32
3,89,60,2
3,77,64,4
3,86,60,170
3,74,56,8
3,82,48,0
3,70,32,4
3,60,56,6276
3,72,60,2
3,77,60,552
3,65,52,14
3,81,64,510
3,69,60,10
3,67,44,0
3,79,64,6
3,72,60,564
3,76,52,10
3,84,64,4
3,86,60,5140
3,82,52,10
3,70,48,14
3,74,73,6
3,84,56,90
3,88,60,6
3,72,52,0
3,76,48,2
3,74,56,12
3,77,48,16
3,89,63,4
3,86,56,0
3,89,64,44
3,86,64,0
3,77,56,12
3,74,60,0
3,82,52,20
3,86,56,0
3,74,52,0
3,70,46,10
3,86,52,28
3,89,60,2
3,77,64,4
3,86,60,106
3,74,56,8
3,82,48,0
3,70,32,4
3,60,56,5190
3,72,60,2
3,77,60,552
3,65,52,14
3,81,64,510
3,69,60,10
3,46,49,24
3,70,60,0
3,58,62,2
3,82,73,0
3,44,49,164
3,68,60,0
3,56,53,0
3,80,64,0
3,42,53,184
3,66,64,0
3,54,49,2
3,78,60,0
3,54,53,40
3,42,62,0
3,66,73,0
3,78,64,0
3,44,49,184
3,68,60,0
3,56,62,2
3,80,73,0
3,46,49,160
3,70,60,0
3,58,62,4
3,82,73,0
3,58,62,46
3,46,62,0
3,70,73,0
3,82,73,0
3,59,62,190
3,83,73,0
3,47,53,2
3,71,64,0
3,49,53,10
3,73,64,0
3,61,53,6
3,85,64,0
3,46,53,4
3,70,64,0
3,58,71,6
3,82,82,0
3,59,53,90
3,83,64,0
3,47,49,4
3,71,60,0
3,49,53,46
3,73,64,0
3,61,49,4
3,85,60,0
3,51,49,60
3,75,60,0
3,63,49,2
3,87,60,0
3,64,62,56
3,88,73,0
3,52,45,4
3,76,56,0
3,66,53,42
3,90,64,0
3,54,62,4
3,78,73,0
3,66,48,2846
3,75,52,10
3,78,60,16
3,87,56,2
3,78,52,16
3,81,64,2
3,69,48,2
3,90,56,4
3,90,64,96
3,69,56,2
3,81,60,2
3,78,48,4
3,80,64,958
3,76,64,8
3,68,48,4
3,64,52,24
3,70,48,88
3,66,56,6
3,82,56,2
3,78,56,0
3,68,36,2
3,71,64,18
3,80,52,8
3,83,60,8
3,71,56,160
3,68,51,8
3,80,56,6
3,83,52,4
3,80,64,66
3,68,60,4
3,76,56,0
3,64,52,18
3,71,56,44
3,80,52,6
3,83,60,4
3,80,60,48
3,68,52,4
3,83,56,6
3,71,64,10
3,88,52,248
3,80,48,2
3,68,44,12
3,76,40,8
3,76,64,20
3,80,60,2
3,68,56,2
3,88,64,0
3,68,52,74
3,76,73,2
3,80,60,4
3,88,64,0
3,73,60,7446
3,70,52,6
3,85,64,0
3,82,64,2
3,82,56,242
3,85,64,4
