track,note,velocity,time
1,64,89,149
1,61,94,29
1,64,94,126
1,66,98,3
1,69,95,77
1,66,94,345
1,64,93,15
1,61,91,541
1,64,98,71
1,64,99,215
1,64,101,10
1,69,105,4
1,66,107,513
1,68,107,90
1,69,100,28
1,71,110,67
1,69,110,369
1,68,110,51
1,69,114,144
1,64,112,802
1,64,111,7
1,61,109,24
1,64,107,360
1,66,106,2
1,69,103,49
1,66,102,103
1,64,100,29
1,69,107,580
1,64,110,257
1,64,115,202
1,64,109,116
1,69,100,272
1,66,105,412
1,68,122,228
1,69,100,73
1,71,104,95
1,69,106,29
1,68,107,45
1,69,119,206
1,73,103,183
1,73,97,115
1,73,93,92
1,71,94,26
1,73,95,74
1,73,93,110
1,74,109,20
1,74,98,84
1,74,109,954
1,74,97,18
1,74,125,82
1,74,100,96
1,73,85,37
1,71,72,70
1,73,81,129
1,73,93,90
1,73,101,98
1,64,101,996
1,64,94,162
1,66,98,43
1,64,89,86
1,71,86,60
1,71,88,246
1,71,85,96
1,71,85,70
1,71,82,51
1,71,125,35
1,69,81,96
1,68,125,7
1,68,85,324
1,68,78,86
1,68,77,75
1,68,86,77
1,66,79,54
1,64,91,31
1,73,86,2
1,73,93,96
1,73,116,768
1,73,101,142
1,73,100,93
1,71,97,53
1,73,109,105
1,73,97,125
1,74,97,5
1,74,107,111
1,74,103,6
1,74,77,21
1,74,101,148
1,73,91,35
1,71,89,104
1,73,101,84
1,76,78,53
1,73,80,162
1,71,82,22
1,69,87,129
1,64,97,17
1,64,84,71
1,66,95,53
1,64,101,2
1,71,114,185
1,71,103,51
1,71,108,25
1,71,108,96
1,74,98,110
1,73,103,138
1,71,101,215
1,69,107,120
1,64,89,1006
1,61,94,29
1,64,94,126
1,66,98,3
1,69,95,77
1,66,94,345
1,64,93,15
1,61,91,541
1,64,98,71
1,64,99,215
1,64,101,10
1,69,105,4
1,66,107,513
1,68,107,90
1,69,100,28
1,71,110,67
1,69,110,369
1,68,110,51
1,69,114,144
1,64,112,802
1,64,111,7
1,61,109,24
1,64,107,360
1,66,106,2
1,69,103,49
1,66,102,103
1,64,100,29
1,69,107,580
1,64,110,257
1,64,115,202
1,64,109,116
1,69,100,272
1,66,105,412
1,68,122,228
1,69,100,73
1,71,104,95
1,69,106,29
1,68,107,45
1,69,119,206
1,73,103,183
1,73,97,115
1,73,93,92
1,71,94,26
1,73,95,74
1,73,93,110
1,74,109,20
1,74,98,84
1,74,109,954
1,74,97,18
1,74,125,82
1,74,100,96
1,73,85,37
1,71,72,70
1,73,81,129
1,73,93,90
1,73,101,98
1,64,101,996
1,64,94,162
1,66,98,43
1,64,89,86
1,71,86,60
1,71,88,246
1,71,85,96
1,71,85,70
1,71,82,51
1,71,125,35
1,69,81,96
1,68,125,7
1,68,85,324
1,68,78,86
1,68,77,75
1,68,86,77
1,66,79,54
1,64,91,31
1,73,86,2
1,73,93,96
1,73,116,768
1,73,101,142
1,73,100,93
1,71,97,53
1,73,109,105
1,73,97,125
1,74,97,5
1,74,107,111
1,74,103,6
1,74,77,21
1,74,101,148
1,73,91,35
1,71,89,104
1,73,101,84
1,76,78,53
1,73,80,162
1,71,82,22
1,69,87,129
1,64,97,17
1,64,84,71
1,66,95,53
1,64,101,2
1,71,114,185
1,71,103,51
1,71,108,25
1,71,108,96
1,74,98,110
1,73,103,138
1,71,101,215
1,69,107,120
1,73,103,183
1,73,97,115
1,73,93,92
1,71,94,26
1,73,95,74
1,73,93,110
1,74,109,20
1,74,98,84
1,74,109,954
1,74,97,18
1,74,125,82
1,74,100,96
1,73,85,37
1,71,72,70
1,73,81,129
1,73,93,90
1,73,101,98
1,64,101,996
1,64,94,162
1,66,98,43
1,64,89,86
1,71,86,60
1,71,88,246
1,71,85,96
1,71,85,70
1,71,82,51
1,71,125,35
1,69,81,96
1,68,125,7
1,68,85,324
1,68,78,86
1,68,77,75
1,68,86,77
1,66,79,54
1,64,91,31
1,73,86,2
1,73,93,96
1,73,116,768
1,73,101,142
1,73,100,93
1,71,97,53
1,73,109,105
1,73,97,125
1,74,97,5
1,74,107,111
1,74,103,6
1,74,77,21
1,74,101,148
1,73,91,35
1,71,89,104
1,73,101,84
1,76,78,53
1,73,80,162
1,71,82,22
1,69,87,129
1,64,97,17
1,64,84,71
1,66,95,53
1,64,101,2
1,71,114,185
1,71,103,51
1,71,108,25
1,71,108,96
1,74,98,110
1,73,103,138
1,71,101,215
1,69,107,120
1,73,103,183
1,73,97,115
1,73,93,92
1,71,94,26
1,73,95,74
1,73,93,110
1,74,109,20
1,74,98,84
1,74,109,954
1,74,97,18
1,74,125,82
1,74,100,96
1,73,85,37
1,71,72,70
1,73,81,129
1,73,93,90
1,73,101,98
1,64,101,996
1,64,94,162
1,66,98,43
1,64,89,86
1,71,86,60
1,71,88,246
1,71,85,96
1,71,85,70
1,71,82,51
1,71,125,35
1,69,81,96
1,68,125,7
1,68,85,324
1,68,78,86
1,68,77,75
1,68,86,77
1,66,79,54
1,64,91,31
1,73,86,2
1,73,93,96
1,73,116,768
1,73,101,142
1,73,100,93
1,71,97,53
1,73,109,105
1,73,97,125
1,74,97,5
1,74,107,111
1,74,103,6
1,74,77,21
1,74,101,148
1,73,91,35
1,71,89,104
1,73,101,84
1,76,78,53
1,73,80,162
1,71,82,22
1,69,87,129
1,64,97,17
1,64,84,71
1,66,95,53
1,64,101,2
1,71,114,185
1,71,103,51
1,71,108,25
1,71,108,96
1,74,98,110
1,73,103,138
1,71,101,215
1,69,107,120
2,62,94,1523
2,57,96,31
2,66,96,0
2,61,104,115
2,64,94,0
2,57,86,43
2,62,96,117
2,66,86,0
2,59,86,31
2,62,100,195
2,59,92,22
2,66,92,0
2,64,100,115
2,68,92,1
2,59,88,34
2,50,92,272
2,59,94,33
2,54,88,1
2,57,96,0
2,57,94,195
2,61,82,0
2,52,78,43
2,62,102,50
2,54,102,1
2,57,88,31
2,61,86,34
2,52,100,1
2,57,76,31
2,61,96,98
2,52,94,29
2,57,106,0
2,59,96,78
2,56,106,1
2,52,86,32
2,61,90,77
2,57,106,1
2,52,84,32
2,61,96,110
2,57,96,1
2,52,96,32
2,62,102,94
2,54,102,1
2,57,88,30
2,61,86,33
2,52,100,1
2,57,76,31
2,61,96,97
2,52,94,1
2,57,106,31
2,56,106,80
2,59,96,0
2,52,86,32
2,57,106,78
2,61,90,1
2,52,84,30
2,57,74,1540
2,66,66,0
2,62,74,41
2,57,80,159
2,61,82,0
2,64,76,15
2,59,94,191
2,56,86,19
2,64,78,1
2,62,78,1
2,62,94,1394
2,57,96,158
2,61,92,0
2,62,82,196
2,66,86,34
2,57,66,98
2,61,84,0
2,64,78,1
2,64,66,163
2,59,84,16
2,56,78,1
2,61,76,130
2,57,82,16
2,57,94,96
2,61,82,0
2,52,78,32
2,62,102,52
2,54,102,1
2,57,88,31
2,52,100,34
2,61,86,0
2,57,76,33
2,61,96,100
2,52,94,1
2,57,106,29
2,59,96,82
2,56,106,1
2,52,86,30
2,61,90,76
2,57,106,1
2,52,84,30
2,57,96,113
2,61,96,0
2,52,96,31
2,62,102,98
2,54,102,29
2,57,88,1
2,61,86,34
2,52,100,1
2,57,76,32
2,61,96,95
2,52,94,1
2,57,106,31
2,59,96,78
2,56,106,1
2,52,86,30
2,57,106,80
2,61,90,0
2,52,84,31
2,66,66,1539
2,57,74,2
2,62,74,33
2,57,80,159
2,61,82,1
2,64,76,16
2,59,94,209
2,56,86,1
2,62,78,0
2,64,78,0
2,62,94,1395
2,61,92,157
2,57,96,1
2,62,82,197
2,66,86,32
2,57,66,99
2,61,84,1
2,64,78,0
2,64,66,164
2,59,84,15
2,56,78,2
2,61,76,129
2,57,82,18
2,57,74,98
2,66,66,0
2,62,74,37
2,57,80,161
2,61,82,0
2,64,76,17
2,59,94,209
2,56,86,2
2,64,78,0
2,62,78,1
2,62,94,1396
2,61,92,156
2,57,96,1
2,62,82,199
2,66,86,33
2,57,66,98
2,61,84,0
2,64,78,0
2,64,66,163
2,59,84,15
2,56,78,1
2,61,76,131
2,57,82,15
2,66,66,95
2,57,74,1
2,62,74,44
2,57,80,163
2,61,82,0
2,64,76,15
2,59,94,195
2,56,86,17
2,64,78,1
2,62,78,1
2,62,94,1397
2,57,96,159
2,61,92,0
2,62,82,197
2,66,86,32
2,57,66,100
2,61,84,0
2,64,78,0
2,64,66,162
2,59,84,14
2,56,78,1
2,61,76,132
2,57,82,15
2,52,64,65
2,57,72,22
2,61,64,0
3,78,126,1543
3,78,120,96
3,78,120,80
3,80,122,900
3,81,126,83
3,83,104,34
3,76,116,19
3,76,126,82
3,76,120,101
3,78,126,751
3,80,126,115
3,81,104,81
3,74,118,33
3,78,118,770
3,81,126,66
3,86,116,66
3,85,118,52
3,81,110,18
3,78,102,160
3,76,116,164
4,64,120,10377
4,68,122,3
4,71,106,83
4,73,102,69
4,74,110,18
4,76,112,35
4,73,114,3
4,69,116,368
4,66,127,4
4,64,127,2
4,66,127,240
4,64,127,30
4,66,127,18
4,69,127,34
4,72,127,148
4,73,127,2
4,69,127,67
4,66,127,1
4,64,124,10549
4,71,118,79
4,74,116,13
4,73,110,2
4,69,127,402
4,66,127,369
4,64,124,318
4,64,127,10179
4,66,127,23
4,69,127,31
4,69,127,2275
4,71,127,2
4,74,127,100
4,71,127,34
4,74,127,21
4,64,127,2384
4,66,127,5
4,69,127,81
4,66,127,23
4,69,127,4
4,69,127,4559
4,64,127,608
4,66,127,64
4,69,127,115
4,71,127,81
4,73,127,35
4,69,127,2386
4,71,127,3
4,74,127,98
4,71,127,34
4,74,127,22
4,64,127,2386
4,66,127,4
4,69,127,83
4,66,127,18
4,69,127,4
4,64,127,1888
4,64,127,771
4,64,127,454
4,69,127,1031
4,69,127,100
4,69,127,294
4,64,127,2
4,66,127,114
4,69,127,81
4,66,127,65
4,69,127,1
4,69,127,501
4,69,127,289
4,64,124,11061
4,71,118,82
4,74,116,16
4,73,110,1
4,69,127,403
4,66,127,367
4,64,124,317
4,64,127,10196
4,66,127,5
4,69,127,0
4,69,127,2275
4,71,127,2
4,74,127,97
4,71,127,33
4,74,127,21
4,64,127,2384
4,66,127,5
4,69,127,84
4,66,127,19
4,69,127,3
4,69,127,4561
4,64,127,608
4,66,127,64
4,69,127,116
4,71,127,81
4,73,127,39
4,69,127,2384
4,71,127,2
4,74,127,99
4,71,127,34
4,74,127,20
4,64,127,2385
4,66,127,4
4,69,127,81
4,66,127,20
4,69,127,3
4,64,127,1890
4,64,127,771
4,64,127,451
4,69,127,1032
4,69,127,103
4,69,127,294
4,64,127,2
4,66,127,115
4,69,127,79
4,66,127,62
4,69,127,2
4,69,127,0
4,69,127,2352
4,71,127,3
4,74,127,99
4,71,127,33
4,74,127,20
4,64,127,2382
4,66,127,4
4,69,127,82
4,66,127,18
4,69,127,4
4,69,127,4559
4,64,127,609
4,66,127,64
4,69,127,115
4,71,127,86
4,73,127,36
4,69,127,2381
4,71,127,3
4,74,127,97
4,71,127,36
4,74,127,20
4,64,127,2382
4,66,127,3
4,69,127,80
4,66,127,18
4,69,127,3
4,64,127,1886
4,64,127,773
4,64,127,452
4,69,127,1037
4,69,127,100
4,69,127,310
4,64,127,3
4,66,127,115
4,69,127,96
4,66,127,65
4,69,127,3
4,69,127,0
4,69,127,2352
4,71,127,4
4,74,127,98
4,71,127,32
4,74,127,19
4,64,127,2382
4,66,127,6
4,69,127,82
4,66,127,20
4,69,127,4
4,69,127,4562
4,64,127,605
4,66,127,67
4,69,127,115
4,71,127,83
4,73,127,37
4,69,127,2381
4,71,127,3
4,74,127,98
4,71,127,35
4,74,127,20
4,64,127,2380
4,66,127,4
4,69,127,80
4,66,127,21
4,69,127,3
4,64,127,1888
4,64,127,773
4,64,127,454
4,69,127,1040
4,69,127,102
4,69,127,293
4,64,127,3
4,66,127,117
4,69,127,81
4,66,127,63
4,69,127,2
4,69,127,513
4,69,127,309
4,69,127,465
4,64,127,1
4,61,127,1
4,81,127,45
5,26,111,1543
5,38,119,99
5,26,113,100
5,38,119,118
5,26,125,96
5,38,117,98
5,26,127,98
5,38,119,97
5,26,127,98
5,38,123,97
5,26,127,98
5,38,111,100
5,26,125,98
5,38,111,99
5,26,127,113
5,38,113,101
5,21,123,99
5,33,123,97
5,21,127,114
5,33,125,97
5,21,127,112
5,33,127,95
5,21,125,99
5,33,127,97
5,21,127,98
5,33,115,98
5,21,125,99
5,33,109,99
5,21,127,98
5,33,111,98
5,21,127,112
5,33,115,97
5,23,127,130
5,35,127,99
5,23,127,98
5,35,119,100
5,23,127,97
5,35,113,101
5,23,127,101
5,35,111,99
5,23,127,97
5,35,113,99
5,23,127,100
5,35,115,100
5,23,127,98
5,35,113,115
5,23,127,116
5,35,111,100
5,28,123,132
5,40,127,99
5,28,127,117
5,40,123,113
5,28,127,100
5,40,115,98
5,28,125,101
5,40,117,98
5,28,127,129
5,40,117,100
5,28,127,97
5,40,117,99
5,28,127,115
5,40,111,97
5,28,127,99
5,40,123,127
5,21,127,132
5,33,127,103
5,21,127,98
5,33,125,97
5,21,127,95
5,33,127,96
5,21,127,96
5,33,123,117
5,26,127,127
5,38,117,99
5,26,127,101
5,38,117,100
5,26,127,97
5,38,125,99
5,26,127,113
5,38,119,101
5,21,107,125
5,33,127,97
5,21,127,96
5,33,123,114
5,21,127,97
5,33,127,96
5,21,127,99
5,33,125,101
5,21,127,96
5,33,119,99
5,21,127,99
5,33,115,97
5,21,127,96
5,33,113,97
5,21,127,99
5,33,119,98
5,21,127,119
5,33,119,100
5,21,127,99
5,33,117,99
5,21,127,99
5,33,107,97
5,21,125,101
5,33,113,99
5,28,127,127
5,40,117,95
5,28,127,100
5,40,123,97
5,28,127,97
5,40,117,98
5,28,127,99
5,40,111,97
5,21,125,127
5,33,127,116
5,21,127,114
5,33,127,99
5,21,113,96
5,33,127,116
5,21,127,116
5,33,123,114
5,21,127,97
5,33,117,98
5,21,125,97
5,33,111,101
5,21,127,99
5,33,111,99
5,21,127,119
5,33,125,98
5,21,127,124
5,33,127,96
5,21,127,117
5,33,125,113
5,21,127,96
5,33,127,97
5,21,127,100
5,33,123,96
5,26,127,125
5,38,117,100
5,26,127,97
5,38,117,99
5,26,127,98
5,38,125,98
5,26,127,99
5,38,119,97
5,21,107,130
5,33,127,97
5,21,127,101
5,33,123,99
5,21,127,98
5,33,127,97
5,21,127,99
5,33,125,100
5,21,127,96
5,33,119,98
5,21,127,101
5,33,115,97
5,21,127,99
5,33,113,100
5,21,127,102
5,33,119,100
5,21,127,128
5,33,119,100
5,21,127,99
5,33,117,98
5,21,127,112
5,33,107,96
5,21,125,111
5,33,113,97
5,28,127,130
5,40,117,99
5,28,127,112
5,40,123,117
5,28,127,100
5,40,117,96
5,28,127,99
5,40,111,97
5,21,125,126
5,33,127,99
5,21,127,101
5,33,127,100
5,21,113,98
5,33,127,101
5,21,127,98
5,33,123,120
5,21,127,127
5,33,127,100
5,21,127,100
5,33,127,95
5,23,127,100
5,35,127,96
5,25,127,98
5,37,127,112
5,26,127,101
5,38,127,97
5,26,127,98
5,38,127,98
5,26,127,99
5,38,127,100
5,26,127,116
5,38,127,113
5,26,127,98
5,38,127,96
5,26,127,99
5,38,127,99
5,26,127,98
5,38,119,97
5,26,127,98
5,38,127,115
5,21,123,96
5,33,127,113
5,21,127,113
5,33,127,98
5,21,127,99
5,33,127,101
5,21,127,99
5,33,127,98
5,21,127,97
5,33,127,98
5,21,127,99
5,33,127,99
5,21,127,98
5,33,127,98
5,21,127,100
5,33,127,97
5,28,127,99
5,40,127,98
5,28,127,101
5,40,127,97
5,28,127,98
5,40,127,101
5,28,127,97
5,40,127,99
5,28,127,99
5,40,127,99
5,28,127,99
5,40,127,101
5,28,127,99
5,40,127,99
5,28,127,98
5,40,127,99
5,21,127,100
5,33,127,98
5,21,127,114
5,33,127,100
5,21,127,98
5,33,127,97
5,21,127,99
5,33,127,116
5,21,127,93
5,33,127,94
5,21,127,99
5,33,127,97
