track,note,velocity,time
1,32,112,1576
1,32,112,4
1,32,112,196
1,32,104,4
1,32,112,100
1,32,104,100
1,29,104,4
1,32,112,4
1,34,104,4
1,34,88,100
1,34,96,100
1,34,96,4
1,34,104,100
1,34,104,100
1,31,112,4
1,34,104,4
1,34,96,4
1,34,104,100
1,34,104,100
1,34,96,4
1,34,84,100
1,34,92,100
1,36,104,4
1,34,112,4
1,36,120,4
1,36,88,100
1,36,112,100
1,36,104,4
1,36,92,100
1,36,96,100
1,34,96,4
1,36,104,4
1,36,112,100
1,36,92,100
1,36,112,100
1,36,92,4
1,36,112,100
1,36,96,100
1,34,96,4
1,36,104,4
1,36,96,100
1,36,96,100
1,36,112,100
1,36,96,4
1,36,112,100
1,36,96,100
1,34,104,4
1,36,104,4
1,34,104,4
1,34,112,100
1,32,127,4
1,29,120,4
1,34,120,4
1,34,104,100
1,34,96,100
1,32,104,4
1,29,96,4
1,34,104,4
1,34,112,100
1,32,120,4
1,29,96,4
1,34,112,4
1,34,112,100
1,34,112,100
1,32,112,4
1,29,120,4
1,34,120,100
1,34,92,100
1,34,112,100
1,34,96,4
1,34,104,100
1,34,96,100
1,36,112,4
1,34,104,4
1,36,127,4
1,36,88,100
1,36,112,100
1,36,112,4
1,36,104,100
1,36,120,100
1,34,104,4
1,36,120,100
1,38,96,4
1,38,96,100
1,38,112,100
1,38,96,4
1,38,112,100
1,38,104,100
1,41,112,4
1,34,104,4
1,32,84,4
1,32,104,100
1,32,104,100
1,32,92,4
1,32,96,100
1,32,104,100
1,39,120,4
1,32,72,4
1,34,112,4
1,34,84,100
1,34,104,100
1,34,104,4
1,34,96,100
1,34,92,100
1,36,104,4
1,34,104,4
1,36,127,4
1,36,92,100
1,36,112,100
1,36,112,4
1,36,88,100
1,36,88,100
1,34,112,4
1,36,104,4
1,34,104,4
1,34,96,100
1,34,104,100
1,34,104,100
1,34,112,100
1,34,104,100
1,31,96,4
1,29,120,4
1,34,120,100
1,34,88,100
1,34,104,100
1,34,92,4
1,34,104,100
1,34,96,100
1,36,92,4
1,34,104,4
1,36,120,4
1,36,88,100
1,36,112,100
1,36,92,4
1,36,112,100
1,36,120,100
1,36,112,4
1,34,84,4
1,38,92,4
1,38,76,100
1,38,96,100
1,38,96,4
1,38,92,100
1,38,92,100
1,38,48,4
1,41,112,4
1,32,104,4
1,32,112,4
1,32,96,100
1,32,96,4
1,32,104,100
1,32,88,100
1,38,96,4
1,34,92,100
1,34,80,100
1,34,96,100
1,34,88,4
1,34,92,100
1,34,96,100
1,36,104,4
1,34,104,4
1,36,96,4
1,36,92,100
1,36,104,100
1,36,104,4
1,36,96,100
1,36,92,100
1,34,96,4
1,36,96,100
1,34,104,4
1,34,104,4
1,31,104,100
1,29,112,100
1,34,92,4
1,34,96,100
1,34,92,100
1,31,96,4
1,29,112,4
1,36,104,4
1,36,96,196
1,36,96,100
1,36,88,100
1,36,96,100
1,36,88,100
1,34,88,4
1,36,104,100
1,34,112,4
1,34,104,100
1,32,112,4
1,29,92,4
1,34,104,100
1,34,96,100
1,34,104,4
1,32,104,100
1,29,104,4
1,34,104,4
1,34,96,100
1,32,104,100
1,29,104,4
1,34,112,100
1,34,112,100
1,34,104,100
1,32,112,4
1,29,112,4
1,34,127,4
1,32,104,1348
1,32,104,4
1,32,104,196
1,32,104,4
1,32,92,100
1,32,112,100
1,29,112,4
1,32,112,4
1,34,96,4
1,34,96,100
1,34,104,100
1,34,88,4
1,34,104,100
1,34,104,100
1,31,104,4
1,34,112,4
1,34,112,4
1,34,96,100
1,34,96,100
1,34,96,100
1,34,96,100
1,34,92,100
1,32,104,4
1,34,96,4
1,36,112,4
1,36,96,100
1,36,104,100
1,36,92,100
1,36,112,100
1,36,112,100
1,34,88,4
1,36,96,4
1,36,112,100
1,36,96,100
1,36,112,100
1,36,112,100
1,36,96,100
1,36,112,100
1,34,104,4
1,36,104,76
1,32,96,4
1,32,92,100
1,32,104,100
1,32,104,4
1,32,104,100
1,32,112,100
1,29,112,4
1,32,112,4
1,34,104,4
1,34,96,100
1,34,104,100
1,34,112,100
1,34,104,100
1,34,96,100
1,32,104,4
1,29,96,100
1,34,104,4
1,34,104,100
1,34,112,100
1,34,96,4
1,34,104,100
1,34,96,100
1,32,104,4
1,29,120,4
1,32,112,4
1,32,96,100
1,32,112,100
1,32,104,4
1,32,96,100
1,32,104,100
1,29,104,4
1,32,112,4
1,34,104,4
1,34,92,100
1,34,104,100
1,34,104,4
1,34,104,100
1,34,112,100
1,31,104,4
1,34,96,4
1,34,96,4
1,34,92,100
1,34,104,100
1,34,84,100
1,34,92,100
1,34,104,100
1,32,120,4
1,34,69,4
1,36,120,4
1,36,112,100
1,36,127,100
1,36,84,100
1,36,96,100
1,36,96,100
1,34,96,4
1,36,96,4
1,36,104,100
1,36,84,100
1,36,96,100
1,36,96,100
1,36,96,100
1,36,92,100
1,34,96,4
1,36,96,4
1,36,88,100
1,36,92,100
1,36,104,100
1,36,92,4
1,36,96,100
1,36,96,4
1,34,88,100
1,36,104,4
1,32,96,4
1,32,92,100
1,32,104,100
1,32,104,4
1,32,104,100
1,32,104,100
1,29,104,4
1,32,104,4
1,34,104,4
1,34,112,100
1,34,112,100
1,34,104,100
1,34,104,100
1,34,104,100
1,32,112,4
1,29,104,100
1,34,104,100
1,34,104,100
1,34,104,100
1,34,104,4
1,34,112,100
1,34,112,100
1,32,112,4
1,29,112,4
1,32,112,100
1,32,104,100
1,32,104,100
1,32,104,4
1,32,104,100
1,32,104,100
1,29,104,4
1,32,104,4
1,34,96,4
1,34,112,100
1,34,96,100
1,34,96,100
1,34,104,100
1,34,104,100
1,32,104,4
1,34,104,4
1,34,96,100
1,34,92,100
1,34,96,100
1,34,88,100
1,34,104,100
1,34,92,100
1,34,88,4
1,32,96,4
1,36,96,4
1,36,96,100
1,36,96,100
1,36,92,100
1,36,84,100
1,36,92,100
1,34,92,4
1,36,96,4
1,36,104,100
1,36,84,100
1,36,96,100
1,36,92,100
1,36,92,100
1,36,104,100
1,34,84,4
1,36,96,4
1,32,104,4
1,32,92,100
1,32,112,100
1,32,104,4
1,32,104,100
1,32,104,100
1,29,120,4
1,32,104,4
1,34,104,4
1,34,104,100
1,32,112,4
1,29,92,4
1,34,112,100
1,34,92,4
1,34,104,196
1,32,104,4
1,29,112,4
1,34,104,100
1,34,112,4
1,32,112,100
1,29,104,4
1,34,112,100
1,34,112,100
1,34,96,100
1,32,112,4
1,29,112,4
1,34,112,100
1,34,88,100
1,34,96,100
1,34,92,4
1,34,88,100
1,34,104,100
1,36,92,4
1,34,104,4
1,36,112,4
1,36,112,100
1,36,112,100
1,36,104,4
1,36,96,100
1,36,104,100
1,34,104,4
1,36,104,4
1,38,96,100
1,38,92,100
1,38,92,100
1,38,96,4
1,38,104,100
1,38,104,100
1,41,104,4
1,33,104,4
1,32,104,4
1,32,96,100
1,32,104,100
1,32,96,4
1,32,96,100
1,32,96,100
1,39,120,4
1,32,104,4
1,34,104,4
1,34,92,100
1,34,96,100
1,34,96,100
1,34,104,100
1,34,76,100
1,36,112,4
1,34,104,4
1,36,112,4
1,36,96,100
1,36,104,100
1,36,104,100
1,36,112,100
1,36,92,100
1,34,96,4
1,36,112,4
1,34,104,4
1,34,104,100
1,34,104,100
1,34,96,100
1,34,104,100
1,34,104,100
1,32,104,4
1,34,88,4
1,34,96,4
1,34,92,100
1,34,92,100
1,34,96,4
1,34,92,100
1,34,96,100
1,32,96,4
1,34,92,4
1,36,104,4
1,36,104,100
1,36,112,100
1,36,96,172
1,36,96,4
1,36,104,100
1,36,120,100
1,34,84,4
1,38,92,4
1,38,84,100
1,38,96,100
1,38,96,4
1,38,104,100
1,38,69,100
1,39,104,4
1,33,104,4
1,32,104,4
1,32,96,100
1,32,96,100
1,32,104,100
1,32,96,100
1,32,96,100
1,38,92,4
1,32,88,4
1,34,104,4
1,34,80,100
1,34,88,100
1,34,92,4
1,34,96,100
1,34,104,100
1,36,96,4
1,34,104,4
1,36,104,100
1,36,104,100
1,36,92,100
1,36,96,100
1,36,96,100
1,36,92,100
1,34,92,4
1,36,92,4
1,34,92,4
1,34,96,100
1,34,96,100
1,34,96,4
1,34,96,100
1,34,104,100
1,29,96,4
1,34,104,4
1,34,55,4
1,36,120,100
1,36,120,100
1,36,104,100
1,36,112,100
1,36,112,100
1,34,92,4
1,36,104,4
1,34,104,4
1,34,104,100
1,32,120,100
1,29,88,4
1,34,112,4
1,34,96,100
1,34,104,100
1,32,96,4
1,29,92,4
1,34,96,4
1,34,88,100
1,32,112,100
1,29,88,4
1,34,112,4
1,34,96,100
1,34,104,100
1,32,96,4
1,29,92,4
1,34,96,4
1,32,96,2212
1,32,92,100
1,32,120,100
1,32,88,100
1,32,92,100
1,32,92,4
1,29,104,4
1,32,112,96
1,34,92,100
1,34,104,100
1,34,84,100
1,34,84,4
1,34,112,100
1,34,96,100
1,32,112,4
1,34,92,96
1,34,76,100
1,34,76,100
1,34,96,100
1,34,88,100
1,34,96,100
1,36,104,288
1,34,112,4
1,36,96,4
1,36,88,100
1,36,104,100
1,36,96,100
1,36,96,100
1,36,92,4
1,34,104,4
1,36,96,192
1,36,96,100
1,36,96,100
1,36,112,100
1,36,88,4
1,36,96,100
1,36,104,100
1,34,104,96
1,36,96,100
1,36,104,4
1,36,96,100
1,36,96,100
1,36,88,100
1,36,92,100
1,36,96,4
1,34,92,4
1,36,112,4
1,34,96,4
1,34,104,100
1,34,112,4
1,34,72,100
1,34,96,100
1,34,88,4
1,31,104,96
1,34,104,4
1,34,92,4
1,34,96,100
1,34,96,100
1,34,104,4
1,34,112,100
1,34,96,100
1,31,120,96
1,34,112,4
1,32,104,4
1,32,104,100
1,32,104,100
1,32,92,4
1,32,104,100
1,32,96,100
1,29,104,4
1,32,112,192
1,34,96,4
1,34,96,100
1,34,104,100
1,34,104,4
1,34,96,100
1,34,104,100
1,31,104,96
1,34,112,100
1,34,76,100
1,34,72,100
1,34,104,100
1,34,104,100
1,34,96,100
1,34,104,100
1,36,104,4
1,34,104,4
1,36,120,4
1,36,96,4
1,36,104,100
1,36,112,100
1,36,112,100
1,36,112,100
1,34,104,4
1,36,112,4
1,36,104,100
1,36,104,100
1,36,112,100
1,36,112,100
1,36,120,100
1,36,112,100
1,34,96,96
1,36,120,100
1,36,96,4
1,36,112,100
1,36,112,100
1,36,112,4
1,36,104,100
1,36,112,100
1,34,80,4
1,32,84,96
1,34,88,100
1,34,92,100
1,34,96,100
1,34,96,100
1,34,92,100
1,34,104,4
1,31,104,4
1,29,120,4
1,34,112,4
1,34,104,100
1,34,112,100
1,34,112,100
1,32,120,2308
1,32,112,100
1,32,120,100
1,32,112,4
1,32,112,100
1,32,112,100
1,29,127,4
1,32,112,4
1,34,112,4
1,34,104,100
1,34,112,100
1,34,96,100
1,34,112,100
1,34,112,100
1,31,104,4
1,29,120,4
1,34,104,4
1,34,96,100
1,34,112,100
1,34,104,100
1,34,104,100
1,34,104,100
1,36,120,4
1,34,112,4
1,36,120,4
1,36,96,100
1,36,104,100
1,36,112,100
1,36,120,100
1,36,127,100
1,34,104,96
1,36,112,4
1,36,120,100
1,36,104,100
1,36,120,100
1,36,104,4
1,36,112,100
1,36,104,4
1,34,104,100
1,36,112,4
1,32,112,4
1,32,104,100
1,32,120,100
1,32,104,4
1,32,104,100
1,32,112,100
1,34,96,0
1,34,112,100
1,39,107,4
1,39,115,104
1,43,99,52
1,46,99,178
1,39,115,116
1,39,107,104
1,39,123,104
1,43,107,0
1,46,99,198
1,39,123,204
1,39,115,98
1,43,115,66
1,46,99,0
1,39,123,124
1,39,115,124
1,39,127,96
1,43,107,30
1,46,107,182
1,39,127,184
2,65,92,42928
2,77,108,0
2,65,92,100
2,77,108,0
2,63,76,192
2,75,84,0
2,65,100,62
2,77,108,0
2,67,92,48
2,79,108,0
2,65,100,2122
2,77,108,0
2,65,108,108
2,77,108,0
2,63,100,192
2,75,92,0
2,65,100,52
2,77,108,0
2,63,108,16
2,75,100,0
2,70,100,4306
2,82,100,0
2,65,108,982
2,77,108,0
2,65,100,92
2,77,108,0
2,63,92,192
2,75,92,0
2,65,84,0
2,77,108,0
2,67,116,36
2,79,108,0
2,65,100,2128
2,77,108,0
2,65,100,100
2,77,108,0
2,63,100,192
2,75,92,0
2,65,108,0
2,77,108,0
2,63,108,270
2,75,108,0
2,70,108,4304
2,82,100,0
2,65,100,116
2,77,116,0
2,67,100,164
2,79,108,0
2,65,108,192
2,77,108,0
2,67,108,254
2,79,108,0
2,65,108,212
2,77,108,0
2,65,108,132
2,77,108,0
2,70,92,30
2,82,108,0
2,67,92,20
2,79,108,0
2,65,100,16
2,77,108,0
2,63,108,36
2,75,100,0
2,65,100,146
2,77,108,0
2,63,108,192
2,75,100,0
2,62,108,216
2,74,116,0
2,60,116,254
2,72,124,0
2,60,108,18
2,72,108,0
2,60,108,196
2,72,116,0
2,62,108,192
2,74,116,0
2,63,92,228
2,75,100,0
2,67,100,58
2,79,92,0
2,77,108,288
2,65,108,2
2,65,116,96
2,77,108,0
2,70,100,0
2,82,100,0
2,67,84,14
2,79,108,0
2,65,100,0
2,77,108,0
2,65,100,96
2,77,116,0
2,63,92,576
2,75,108,0
2,65,108,20
2,77,116,0
2,65,76,30828
2,77,100,0
2,65,84,112
2,77,92,0
2,63,84,10
2,75,76,0
2,65,100,10
2,77,100,0
2,67,100,50
2,79,92,0
2,65,84,2144
2,77,92,0
2,65,100,102
2,77,100,0
2,63,68,26
2,75,76,0
2,65,92,12
2,77,100,0
2,63,92,12
2,75,100,0
2,58,60,5828
2,70,92,0
2,65,92,930
2,77,100,0
2,65,92,88
2,77,108,0
2,63,84,192
2,75,92,0
2,65,92,20
2,77,92,0
2,67,100,10
2,79,108,0
2,65,76,2218
2,77,76,0
2,65,108,86
2,77,108,0
2,63,64,192
2,75,100,0
2,65,100,66
2,77,100,0
2,63,68,4
2,75,108,0
2,55,92,6028
2,67,100,0
2,55,100,84
2,67,100,0
2,58,108,96
2,70,100,0
2,63,116,78
2,75,116,0
2,65,84,3250
2,77,92,0
2,65,100,88
2,77,108,0
2,63,84,192
2,75,92,0
2,65,100,4
2,77,108,0
2,67,92,12
2,79,108,92
2,58,92,2962
2,70,92,0
2,58,84,314
2,70,100,0
2,58,68,298
2,70,92,0
2,58,72,302
2,70,108,0
2,65,116,5872
2,70,108,0
2,74,108,0
2,67,116,204
2,70,116,0
2,75,116,0
3,70,100,14560
3,67,100,4
3,70,100,76
3,72,100,28
3,75,92,148
3,72,108,4
3,70,108,52
3,63,92,384
3,70,108,52
3,67,84,76
3,70,100,52
3,72,100,52
3,75,100,76
3,72,100,384
3,70,108,28
3,63,92,4
3,67,92,28
3,67,92,388
3,67,92,76
3,65,92,384
3,75,92,76
3,67,84,4
3,67,76,52
3,65,92,52
3,70,108,628
3,67,92,4
3,70,100,52
3,72,92,28
3,75,100,100
3,72,108,384
3,70,108,52
3,63,84,384
3,70,100,172
3,67,92,76
3,70,84,76
3,72,108,52
3,75,100,76
3,72,108,4
3,70,100,28
3,63,84,384
3,67,84,28
3,67,84,196
3,67,84,100
3,65,92,28
3,75,100,28
3,67,92,4
3,67,100,100
3,65,84,192
3,67,100,316
3,67,100,100
3,65,92,4
3,75,100,4
3,67,100,4
3,67,100,100
3,65,92,576
3,67,46,28
3,63,92,1828
3,67,92,144
3,70,108,28
3,75,108,100
3,74,108,28
3,77,100,336
3,74,76,28
3,72,116,4
3,74,100,124
3,74,108,124
3,75,100,76
3,74,108,4
3,72,116,28
3,72,108,100
3,70,108,192
3,72,108,100
3,72,108,100
3,72,84,76
3,72,108,124
3,70,100,52
3,70,100,76
3,65,108,4
3,72,116,28
3,70,100,192
3,65,92,28
3,72,84,28
3,72,116,148
3,72,108,52
3,72,116,76
3,74,108,52
3,75,92,4
3,74,116,4
3,63,108,100
3,67,72,52
3,70,100,144
3,75,108,100
