track,note,velocity,time
3,63,111,2110
3,72,113,96
3,63,0,27
3,72,0,151
3,73,108,12
3,73,0,60
3,73,111,37
3,73,0,177
3,72,105,14
3,72,0,242
3,72,111,240
3,73,107,96
3,72,0,18
3,73,0,26
3,73,111,52
3,73,0,96
3,72,111,0
3,72,0,120
3,72,114,71
3,70,109,192
3,72,0,3
3,70,0,164
3,72,111,119
3,70,108,193
3,72,0,16
3,70,0,66
3,70,108,15
3,70,0,382
3,72,108,194
3,72,0,47
3,72,109,50
3,72,0,89
3,70,107,7
3,70,0,42
3,70,111,53
3,67,111,193
3,70,0,4
3,67,0,45
3,67,111,47
3,67,0,267
3,68,105,19
3,68,0,98
3,68,111,0
3,68,0,177
3,67,108,398
3,70,107,97
3,67,0,20
3,68,109,76
3,70,0,21
3,67,109,75
3,68,0,3
3,67,0,187
3,65,111,1
3,65,0,143
3,68,107,49
3,67,108,97
3,68,0,15
3,67,0,320
3,75,111,432
3,74,111,96
3,75,0,20
3,75,110,76
3,74,0,14
3,74,109,82
3,75,0,25
3,75,112,71
3,74,0,15
3,74,110,81
3,75,0,19
3,72,109,78
3,74,0,16
3,72,0,27
3,72,114,53
3,72,0,170
3,73,106,20
3,73,0,58
3,73,108,39
3,72,109,193
3,73,0,15
3,72,0,95
3,72,111,82
3,72,0,31
3,72,111,65
3,73,107,95
3,72,0,18
3,73,0,49
3,73,108,30
3,72,106,95
3,73,0,4
3,72,0,48
3,72,109,44
3,72,0,43
3,70,108,53
3,70,0,54
3,70,111,42
3,68,105,96
3,70,0,12
3,72,111,84
3,68,0,12
3,72,0,176
3,70,106,3
3,70,0,64
3,70,111,33
3,70,0,242
3,67,108,142
3,72,113,96
3,67,0,11
3,70,108,85
3,72,0,1
3,70,0,45
3,70,107,50
3,70,0,84
3,67,106,12
3,67,0,42
3,67,111,54
3,68,112,97
3,67,0,23
3,68,0,79
3,68,111,88
3,68,0,48
3,67,109,2
3,67,0,42
3,67,110,6
3,67,0,182
3,68,107,7
3,68,0,91
3,68,108,7
3,68,0,260
3,70,108,413
3,68,107,95
3,70,0,20
3,68,0,75
3,67,109,1
3,65,109,97
3,67,0,16
3,65,0,168
3,68,108,8
3,67,108,192
3,68,0,6
3,67,0,229
3,67,110,340
3,79,111,96
3,67,0,27
3,77,111,70
3,79,0,20
3,77,0,172
3,75,108,0
3,75,0,189
3,74,111,3
3,74,0,205
3,74,113,82
3,75,108,191
3,74,0,6
3,72,109,91
3,75,0,8
3,72,0,298
3,63,106,845
3,63,0,95
3,67,111,2
3,67,0,94
3,68,101,2
3,68,0,277
3,68,115,684
3,68,0,130
3,68,108,62
3,68,0,110
3,68,113,82
3,68,0,190
3,67,109,3
3,67,0,285
3,63,111,1058
3,63,0,91
3,72,109,6
3,72,0,188
3,73,106,2
3,73,0,76
3,73,108,22
3,72,105,191
3,73,0,11
3,72,0,132
3,72,108,50
3,72,0,34
3,72,114,62
3,73,107,95
3,72,0,12
3,73,0,53
3,73,107,31
3,73,0,92
3,72,110,3
3,72,0,51
3,72,114,45
3,70,107,96
3,72,0,14
3,70,0,39
3,70,110,43
3,68,106,96
3,70,0,18
3,72,110,78
3,68,0,35
3,72,0,152
3,70,107,5
3,70,0,58
3,70,107,38
3,70,0,347
3,72,108,228
3,72,0,51
3,72,111,46
3,70,106,96
3,72,0,12
3,70,0,34
3,70,108,50
3,70,0,84
3,67,107,12
3,67,0,66
3,67,110,31
3,67,0,53
3,67,109,43
3,67,0,66
3,67,105,30
3,67,0,180
3,68,106,11
3,68,0,60
3,68,110,36
3,68,0,294
3,70,111,283
3,70,0,186
3,68,111,5
3,67,111,96
3,68,0,3
3,65,115,189
3,67,0,8
3,68,106,185
3,65,0,7
3,67,108,87
3,68,0,17
3,67,0,297
3,75,116,456
3,74,111,95
3,75,0,20
3,75,111,77
3,74,0,13
3,74,110,83
3,75,0,18
3,75,112,78
3,74,0,11
3,74,111,84
3,75,0,15
3,72,113,81
3,74,0,10
3,72,0,51
3,72,114,36
3,73,110,192
3,72,0,9
3,73,0,52
3,73,113,35
3,72,111,193
3,73,0,6
3,72,0,120
3,72,112,65
3,72,0,39
3,72,111,57
3,73,111,95
3,72,0,18
3,73,0,31
3,73,109,47
3,73,0,93
3,72,109,2
3,72,0,57
3,72,110,40
3,70,111,97
3,72,0,26
3,70,0,23
3,70,111,46
3,68,107,96
3,70,0,1
3,72,113,95
3,68,0,21
3,72,0,152
3,70,107,18
3,70,0,62
3,70,110,34
3,70,0,243
3,67,107,142
3,72,113,96
3,67,0,16
3,72,0,58
3,70,107,21
3,70,0,77
3,70,109,20
3,67,104,96
3,70,0,2
3,67,0,52
3,67,111,43
3,70,111,96
3,67,0,17
3,70,0,117
3,68,116,56
3,68,0,50
3,67,117,0
3,67,0,44
3,67,110,4
3,67,0,176
3,68,101,16
3,68,0,71
3,68,108,26
3,68,0,253
3,70,111,322
3,70,0,46
3,70,111,50
3,68,111,95
3,70,0,9
3,68,0,82
3,67,113,5
3,67,0,179
3,77,114,13
3,75,111,97
3,77,0,10
3,75,0,364
3,72,109,392
3,79,113,96
3,72,0,20
3,77,114,77
3,79,0,23
3,77,0,165
3,75,111,4
3,75,0,191
3,74,113,2
3,74,0,194
3,74,116,94
3,75,107,191
3,74,0,12
3,72,114,84
3,75,0,5
3,72,0,212
3,72,110,359
3,75,107,96
3,72,0,36
3,74,112,60
3,75,0,17
3,74,0,42
3,74,111,38
3,72,112,95
3,74,0,5
3,72,0,134
3,70,111,54
3,70,0,184
3,67,107,8
3,67,0,431
3,67,112,240
3,68,110,98
3,67,0,25
3,68,0,156
3,67,114,10
3,67,0,258
3,65,111,30
3,68,112,97
3,65,0,17
3,68,0,171
3,67,112,4
3,67,0,395
3,67,117,563
3,70,116,96
3,67,0,29
3,75,117,163
3,70,0,9
3,75,0,174
3,77,115,9
3,75,117,289
3,77,0,10
3,75,0,332
3,72,117,426
3,72,0,35
3,72,117,60
3,72,0,186
3,75,113,5
3,75,0,190
3,72,115,4
3,70,111,192
3,72,0,27
3,70,0,52
3,70,111,18
3,70,0,353
3,67,112,413
3,67,0,47
3,67,116,48
3,75,116,193
3,67,0,23
3,75,0,157
3,77,114,12
3,77,0,288
3,75,113,0
3,75,0,359
3,72,116,410
3,75,111,192
3,72,0,21
3,77,114,74
3,75,0,13
3,79,114,83
3,77,0,18
3,77,116,367
3,79,0,20
3,77,0,352
3,75,109,12
3,75,0,131
3,79,113,62
3,77,111,191
3,79,0,11
3,77,0,63
3,77,112,24
3,77,0,138
3,77,115,52
3,77,0,90
3,77,116,102
3,75,113,96
3,77,0,29
3,75,0,63
3,72,112,4
3,72,0,75
3,72,111,20
3,72,0,240
3,79,115,336
3,79,0,94
3,77,115,4
3,77,0,145
3,77,113,46
3,77,0,123
3,77,111,68
3,77,0,109
3,77,111,86
3,75,108,93
3,77,0,7
3,72,109,89
3,75,0,3
3,72,0,75
3,72,111,20
3,72,0,271
3,72,114,591
3,75,109,96
3,72,0,24
3,79,113,72
3,75,0,18
3,79,0,98
3,77,117,77
3,77,0,1112
3,75,115,233
3,75,0,72
3,75,111,25
3,75,0,408
3,63,106,2660
3,72,110,97
3,63,0,36
3,73,106,157
3,72,0,22
3,73,0,27
3,73,108,48
3,73,0,183
3,72,109,8
3,72,0,280
3,73,111,105
3,73,0,45
3,73,110,50
3,72,111,96
3,73,0,6
3,72,0,52
3,72,111,38
3,72,0,93
3,70,106,3
3,70,0,50
3,70,107,45
3,68,108,97
3,70,0,2
3,72,111,93
3,68,0,8
3,70,107,184
3,72,0,4
3,70,0,77
3,70,109,15
3,70,0,379
3,72,111,197
3,72,0,56
3,72,111,40
3,72,0,89
3,70,107,7
3,70,0,57
3,70,110,39
3,70,0,87
3,67,107,9
3,67,0,66
3,67,108,30
3,67,0,67
3,67,111,30
3,68,113,287
3,67,0,11
3,68,0,70
3,68,108,16
3,68,0,223
3,70,108,353
3,70,0,43
3,70,111,53
3,68,107,95
3,70,0,5
3,67,113,91
3,68,0,4
3,65,111,187
3,67,0,3
3,68,108,190
3,65,0,17
3,67,109,80
3,68,0,8
3,67,0,318
3,75,117,442
3,74,110,95
3,75,0,9
3,75,109,88
3,74,0,20
3,74,108,76
3,75,0,22
3,75,111,74
3,74,0,20
3,74,109,76
3,75,0,14
3,72,114,81
3,74,0,3
3,72,0,52
3,72,113,42
3,73,109,192
3,72,0,15
3,73,0,54
3,73,112,27
3,72,111,193
3,73,0,4
3,72,0,118
3,72,112,69
3,72,0,39
3,72,111,57
3,73,111,95
3,72,0,15
3,73,0,38
3,73,113,43
3,72,111,96
3,73,0,1
3,72,0,45
3,72,111,49
3,70,111,98
3,72,0,46
3,70,0,2
3,70,112,47
3,68,106,96
3,70,0,19
3,72,114,77
3,68,0,26
3,72,0,163
3,70,108,2
3,70,0,67
3,70,109,29
3,70,0,301
3,67,111,83
3,72,111,97
3,67,0,13
3,70,105,83
3,72,0,18
3,70,0,36
3,70,111,42
3,70,0,93
3,67,108,3
3,67,0,51
3,67,111,45
3,68,111,96
3,67,0,20
3,68,0,76
3,68,114,96
3,68,0,49
3,67,109,0
3,67,0,38
3,67,111,10
3,68,111,191
3,67,0,17
3,68,0,48
3,68,112,43
3,68,0,268
3,70,111,392
3,68,114,96
3,70,0,14
3,67,110,82
3,68,0,4
3,65,111,93
3,67,0,29
3,68,110,163
3,65,0,18
3,68,0,174
3,67,111,1
3,67,0,246
3,67,111,232
3,67,0,71
3,67,111,26
3,67,0,83
3,79,111,13
3,79,0,90
3,77,108,4
3,75,111,193
3,77,0,17
3,75,0,172
3,74,111,3
3,74,0,209
3,74,115,80
3,74,0,184
3,75,106,7
3,72,111,96
3,75,0,1
3,72,0,256
3,63,108,895
3,67,112,97
3,63,0,31
3,68,108,66
3,67,0,32
3,68,0,271
3,68,107,559
3,68,0,73
3,68,107,23
3,68,0,146
3,68,108,46
3,68,0,139
3,68,113,53
3,67,111,192
3,68,0,2
3,67,0,296
3,67,114,662
3,70,115,96
3,67,0,26
3,75,116,166
3,70,0,13
3,75,0,161
3,77,115,22
3,77,0,281
3,75,117,4
3,75,0,342
3,72,117,426
3,72,0,35
3,72,117,60
3,72,0,186
3,75,113,8
3,75,0,187
3,72,115,5
3,72,0,181
3,70,111,10
3,70,0,79
3,70,111,18
3,70,0,353
3,67,112,413
3,67,0,47
3,67,116,52
3,67,0,190
3,75,116,2
3,75,0,178
3,77,114,14
3,77,0,276
3,75,113,9
3,75,0,359
3,72,116,410
3,75,111,192
3,72,0,21
3,77,114,76
3,75,0,11
3,77,0,88
3,79,114,0
3,77,116,380
3,79,0,1
3,77,0,383
3,75,109,0
3,75,0,131
3,79,113,62
3,77,111,191
3,79,0,11
3,77,0,63
3,77,112,24
3,77,0,138
3,77,115,52
3,77,0,90
3,77,116,105
3,75,113,93
3,77,0,11
3,75,0,81
3,72,112,4
3,72,0,75
3,72,111,20
3,72,0,240
3,79,115,339
3,77,115,94
3,79,0,4
3,77,0,141
3,77,113,47
3,77,0,123
3,77,111,68
3,77,0,109
3,77,111,86
3,75,108,93
3,77,0,4
3,72,109,92
3,75,0,3
3,72,0,75
3,72,111,20
3,72,0,271
3,72,114,591
3,75,109,96
3,72,0,24
3,79,113,72
3,75,0,18
3,79,0,98
3,77,117,77
3,77,0,1112
3,75,115,233
3,75,0,72
3,75,111,25
3,75,0,408
3,67,114,743
3,67,0,74
3,70,115,20
3,75,116,192
3,70,0,13
3,75,0,161
3,77,115,21
3,77,0,276
3,75,117,10
3,75,0,342
3,72,117,426
3,72,0,35
3,72,117,60
3,72,0,186
3,75,113,5
3,75,0,196
3,72,115,0
3,72,0,186
3,70,111,4
3,70,0,79
3,70,111,18
3,70,0,353
3,67,112,413
3,67,0,47
3,67,116,52
3,67,0,187
3,75,116,2
3,75,0,180
3,77,114,16
3,77,0,280
3,75,113,4
3,75,0,359
3,72,116,410
3,75,111,192
3,72,0,21
3,77,114,74
3,75,0,13
3,79,114,83
3,77,0,18
3,77,116,367
3,79,0,20
3,77,0,364
3,75,109,0
3,75,0,131
3,79,113,62
3,77,111,191
3,79,0,11
3,77,0,63
3,77,112,24
3,77,0,138
3,77,115,52
3,77,0,90
3,77,116,104
3,77,0,83
3,75,113,11
3,75,0,92
3,72,112,4
3,72,0,75
3,72,111,20
3,72,0,240
3,79,115,338
3,77,115,95
3,79,0,1
3,77,0,144
3,77,113,49
3,77,0,123
3,77,111,66
3,77,0,109
3,77,111,86
3,77,0,92
3,75,108,1
3,72,109,96
3,75,0,3
3,72,0,75
3,72,111,20
3,72,0,271
3,79,114,592
3,77,115,96
3,79,0,14
3,77,0,38
3,77,111,45
3,77,0,52
3,77,115,44
3,75,109,96
3,77,0,8
3,75,0,201
3,77,114,558
3,77,0,68
3,77,111,29
3,77,0,54
3,77,111,43
3,77,0,49
3,77,115,46
3,75,107,95
3,77,0,11
3,75,0,136
3,75,111,45
3,75,0,59
3,75,112,36
3,75,0,261
3,70,108,508
3,72,113,96
3,70,0,36
3,75,107,61
3,72,0,35
3,75,0,148
3,79,114,487
3,79,0,82
3,79,111,16
3,79,0,53
3,79,110,42
3,79,0,63
3,79,116,34
3,79,0,183
3,80,111,8
3,80,0,183
3,77,111,8
3,77,0,158
3,77,114,130
3,77,0,56
3,77,111,40
3,77,0,50
3,77,116,46
3,77,0,185
3,75,109,6
3,79,113,97
3,75,0,29
3,75,109,163
3,79,0,13
3,75,0,158
3,70,112,405
3,72,114,96
3,70,0,27
3,75,108,69
3,72,0,23
3,75,0,108
3,79,116,543
3,79,0,68
3,79,113,26
3,79,0,60
3,79,115,36
3,79,0,58
3,79,115,38
3,80,109,193
3,79,0,3
3,77,111,188
3,80,0,4
3,77,0,181
3,77,114,103
3,77,0,54
3,77,115,42
3,77,0,51
3,77,116,45
3,75,108,192
3,77,0,17
3,79,113,79
3,75,0,28
3,75,109,164
3,79,0,5
3,75,0,119
3,70,109,452
3,72,111,96
3,70,0,22
3,75,107,74
3,72,0,23
3,75,0,107
3,79,115,543
3,79,0,75
3,79,114,22
3,79,0,58
3,79,113,37
3,79,0,52
3,79,115,43
3,80,111,193
3,79,0,16
3,77,113,176
3,80,0,2
3,77,0,169
3,77,114,117
3,77,0,42
3,77,114,53
3,77,0,40
3,77,116,56
3,77,0,190
3,75,108,2
3,79,113,97
3,75,0,30
3,75,108,161
3,79,0,9
3,75,0,114
3,70,111,454
3,70,0,91
3,72,111,7
3,72,0,93
3,75,108,0
3,75,0,144
3,79,115,529
3,79,0,70
3,79,114,26
3,79,0,55
3,79,115,41
3,79,0,53
3,79,116,43
3,80,108,192
3,79,0,14
3,80,0,174
3,77,112,3
3,77,0,150
3,77,115,139
3,77,0,47
3,77,114,49
3,77,0,45
3,77,116,51
3,75,110,192
3,77,0,8
3,79,112,88
3,75,0,21
3,75,107,170
3,79,0,2
3,75,0,145
4,35,71,668
4,35,0,1
4,35,49,287
4,35,0,1
4,35,55,95
4,35,0,1
4,35,67,383
4,35,0,1
4,35,53,286
4,35,0,1
4,35,61,97
4,35,0,1
4,35,55,382
4,35,0,1
4,35,61,286
4,35,0,1
4,35,55,95
4,35,0,1
4,35,45,383
4,35,0,1
4,35,53,287
4,35,0,1
4,35,65,95
4,35,0,1
4,35,63,288
4,35,0,1
4,35,65,95
4,35,0,1
4,35,42,381
4,35,0,1
4,35,63,287
4,35,0,1
4,35,59,96
4,35,0,1
4,35,59,383
4,35,0,1
4,35,59,287
4,35,0,1
4,35,67,96
4,35,0,1
4,35,59,383
4,35,0,1
4,35,49,287
4,35,0,1
4,35,65,95
4,35,0,1
4,35,55,382
4,35,0,1
4,35,30,287
4,35,0,1
4,35,53,96
4,35,0,1
4,35,65,383
4,35,0,1
4,35,49,286
4,35,0,1
4,35,59,95
4,35,0,1
4,35,61,383
4,35,0,1
4,35,55,287
4,35,0,1
4,35,53,96
4,35,0,1
4,35,61,383
4,35,0,1
