track,note,velocity,time
1,65,100,13630
1,65,100,104
1,65,100,92
1,66,100,588
1,68,100,368
1,68,100,92
1,68,100,44
1,65,100,12
1,70,100,376
1,68,100,8
1,68,100,160
1,65,100,192
1,65,100,454
1,63,100,166
1,56,100,12
1,68,100,12
1,65,100,380
1,65,100,4336
1,65,100,128
1,65,100,48
1,66,100,372
1,68,100,352
1,68,100,80
1,65,100,8
1,70,100,400
1,68,100,1160
1,68,100,152
1,65,100,8
1,63,100,614
1,56,100,8
1,68,100,564
1,65,100,368
1,56,100,882
1,63,100,34
1,63,100,76
1,65,100,28
1,66,100,192
1,70,100,12
1,68,100,20
1,65,100,48
1,65,100,80
1,56,100,52
1,63,100,28
1,63,100,112
1,65,100,0
1,66,100,10
1,70,100,12
1,68,100,12
1,56,100,644
1,67,100,40
1,67,100,112
1,68,100,368
1,70,100,172
1,63,100,12
1,68,100,192
1,72,100,36
1,72,100,64
1,72,100,36
1,72,100,92
1,73,100,20
1,73,100,60
1,73,100,100
1,73,100,84
1,75,100,8
1,72,100,0
1,70,100,0
1,68,100,12
1,65,100,944
1,66,100,400
1,70,100,348
1,68,100,8
1,73,100,112
1,73,100,92
1,73,100,86
1,73,100,84
1,72,100,28
1,70,100,376
1,72,100,8
1,72,100,56
1,70,100,12
1,66,100,200
1,63,100,524
1,65,100,408
1,68,100,358
1,66,100,0
1,72,100,222
1,72,100,46
1,72,100,56
1,72,100,60
1,70,100,196
1,68,100,356
1,70,100,8
1,70,100,104
1,68,100,24
1,65,100,14
1,65,100,228
1,66,100,394
1,70,100,356
1,68,100,756
1,77,100,108
1,77,100,60
1,77,100,94
1,77,100,100
1,78,100,48
1,77,100,76
1,75,100,88
1,73,100,28
1,66,100,1638
1,70,100,186
1,70,100,132
1,73,100,24
1,75,100,84
1,73,100,20
1,68,100,20
1,68,100,132
1,68,100,132
1,72,100,188
1,72,100,126
1,72,100,114
1,70,100,20
1,68,100,10
1,70,100,880
1,73,100,582
1,78,100,12
1,77,100,52
1,68,100,16
1,68,100,140
1,72,100,30
1,75,100,1148
1,73,100,400
1,56,100,5128
1,65,100,8
1,65,100,112
1,65,100,76
1,66,100,576
1,68,100,344
1,68,100,104
1,68,100,68
1,65,100,564
1,70,100,376
1,68,100,1116
1,68,100,148
1,65,100,8
1,65,100,276
1,63,100,188
1,56,100,0
1,68,100,576
1,65,100,388
1,65,100,3988
1,65,100,132
1,65,100,68
1,66,100,584
1,68,100,374
1,68,100,84
1,68,100,56
1,65,100,8
1,70,100,384
1,68,100,0
1,68,100,170
1,65,100,8
1,63,100,712
1,56,100,112
1,68,100,40
1,65,100,368
1,56,100,744
1,63,100,200
1,63,100,96
1,65,100,8
1,66,100,192
1,70,100,12
1,68,100,20
1,65,100,68
1,65,100,76
1,56,100,206
1,63,100,12
1,63,100,104
1,65,100,2
1,66,100,2
1,70,100,8
1,68,100,364
1,56,100,388
1,67,100,48
1,67,100,102
1,68,100,370
1,70,100,208
1,63,100,28
1,68,100,8
1,72,100,2
1,72,100,96
1,72,100,60
1,72,100,156
1,73,100,8
1,73,100,80
1,73,100,98
1,73,100,86
1,75,100,12
1,72,100,384
1,70,100,0
1,68,100,10
1,66,100,1276
1,67,100,384
1,71,100,372
1,69,100,750
1,74,100,308
1,74,100,74
1,74,100,60
1,74,100,94
1,73,100,28
1,71,100,8
1,73,100,204
1,73,100,100
1,71,100,2
1,67,100,0
1,64,100,804
1,66,100,396
1,69,100,40
1,67,100,744
1,73,100,310
1,73,100,70
1,73,100,72
1,73,100,92
1,71,100,12
1,69,100,376
1,71,100,192
1,71,100,66
1,69,100,374
1,66,100,196
1,66,100,564
1,67,100,372
1,71,100,364
1,69,100,748
1,78,100,170
1,78,100,84
1,78,100,72
1,78,100,84
1,79,100,8
1,78,100,54
1,76,100,68
1,74,100,8
1,67,100,1632
1,71,100,20
1,71,100,190
1,74,100,198
1,76,100,152
1,74,100,12
1,69,100,12
1,69,100,86
1,69,100,120
1,73,100,192
1,73,100,100
1,73,100,96
1,71,100,14
1,69,100,10
1,71,100,644
1,74,100,592
1,79,100,558
1,78,100,376
1,69,100,552
1,69,100,132
1,73,100,188
1,74,100,10
1,76,100,558
1,74,100,392
1,71,100,716
1,74,100,586
1,79,100,558
1,78,100,368
1,69,100,12
1,69,100,160
1,73,100,192
1,74,100,12
1,76,100,10
1,74,100,392
2,37,110,1348
2,44,110,152
2,46,110,194
2,44,110,4
2,49,110,30
2,49,110,76
2,44,110,168
2,46,110,194
2,44,110,338
2,37,110,6
2,44,110,8
2,46,110,194
2,44,110,18
2,49,110,14
2,49,110,96
2,44,110,172
2,46,110,194
2,44,110,10
2,37,110,162
2,46,110,282
2,44,110,6
2,49,110,22
2,49,110,124
2,44,110,150
2,46,110,192
2,44,110,2
2,37,110,384
2,44,110,34
2,46,110,192
2,44,110,360
2,49,110,6
2,49,110,120
2,44,110,46
2,46,110,192
2,44,110,380
2,37,110,14
2,37,110,102
2,32,110,18
2,37,110,222
2,37,110,152
2,44,110,14
2,32,110,384
2,37,110,370
2,37,110,130
2,37,110,62
2,32,110,384
2,37,110,378
2,37,110,126
2,32,110,192
2,37,110,382
2,32,110,2
2,32,110,230
2,27,110,6
2,32,110,384
2,37,110,18
2,37,110,142
2,32,110,192
2,37,110,2
2,32,110,58
2,32,110,166
2,39,110,14
2,27,110,2
2,37,110,384
2,37,110,138
2,44,110,192
2,32,110,2
2,37,110,384
2,37,110,160
2,44,110,10
2,32,110,384
2,37,110,374
2,37,110,122
2,32,110,6
2,37,110,768
2,37,110,134
2,32,110,192
2,37,110,382
2,37,110,122
2,37,110,122
2,32,110,192
2,37,110,364
2,32,110,2
2,32,110,178
2,39,110,6
2,32,110,384
2,37,110,18
2,37,110,150
2,32,110,192
2,37,110,370
2,32,110,370
2,32,110,156
2,39,110,14
2,27,110,384
2,37,110,54
2,44,110,334
2,32,110,384
2,32,110,102
2,32,110,158
2,39,110,14
2,32,110,384
2,37,110,378
2,37,110,98
2,37,110,34
2,39,110,394
2,39,110,154
2,34,110,192
2,39,110,380
2,32,110,370
2,32,110,258
2,29,110,192
2,29,110,132
2,34,110,194
2,34,110,152
2,39,110,30
2,39,110,120
2,32,110,2
2,39,110,92
2,44,110,6
2,39,110,382
2,32,110,378
2,32,110,70
2,32,110,50
2,37,110,148
2,44,110,146
2,46,110,6
2,44,110,6
2,37,110,6
2,44,110,134
2,46,110,192
2,44,110,378
2,32,110,102
2,32,110,170
2,39,110,192
2,27,110,380
2,32,110,10
2,32,110,156
2,39,110,6
2,27,110,384
2,32,110,10
2,32,110,204
2,39,110,194
2,32,110,22
2,32,110,102
2,32,110,190
2,39,110,192
2,32,110,380
2,37,110,368
2,37,110,154
2,44,110,14
2,32,110,10
2,37,110,384
2,37,110,158
2,44,110,2
2,32,110,384
2,37,110,10
2,44,110,244
2,46,110,194
2,44,110,376
2,37,110,382
2,37,110,154
2,44,110,6
2,32,110,384
2,30,110,122
2,37,110,124
2,39,110,194
2,37,110,10
2,30,110,6
2,37,110,142
2,39,110,192
2,37,110,14
2,30,110,26
2,30,110,96
2,37,110,38
2,39,110,14
2,37,110,382
2,37,110,106
2,44,110,270
2,46,110,6
2,44,110,34
2,32,110,174
2,32,110,206
2,27,110,192
2,39,110,18
2,37,110,384
2,37,110,152
2,44,110,6
2,37,110,4
2,30,110,78
2,37,110,114
2,42,110,14
2,37,110,384
2,37,110,78
2,44,110,208
2,44,110,2
2,32,110,186
2,39,110,38
2,44,110,192
2,39,110,382
2,37,110,30
2,44,110,210
2,46,110,192
2,44,110,6
2,49,110,10
2,49,110,136
2,44,110,152
2,46,110,194
2,44,110,358
2,37,110,2
2,44,110,122
2,46,110,14
2,44,110,384
2,49,110,14
2,49,110,132
2,44,110,26
2,46,110,2
2,44,110,384
2,37,110,378
2,37,110,172
2,44,110,18
2,37,110,50
2,37,110,190
2,32,110,34
2,37,110,126
2,37,110,174
2,32,110,14
2,37,110,354
2,37,110,182
2,44,110,192
2,32,110,382
2,32,110,94
2,32,110,178
2,39,110,14
2,32,110,2
2,37,110,10
2,37,110,158
2,44,110,2
2,37,110,24
2,32,110,26
2,32,110,140
2,39,110,194
2,32,110,14
2,37,110,22
2,37,110,168
2,44,110,194
2,32,110,382
2,37,110,22
2,37,110,132
2,37,110,154
2,44,110,2
2,32,110,2
2,37,110,14
2,37,110,182
2,44,110,192
2,37,110,382
2,37,110,98
2,37,110,226
2,37,110,42
2,32,110,12
2,37,110,386
2,37,110,178
2,44,110,6
2,32,110,384
2,32,110,130
2,32,110,190
2,39,110,18
2,32,110,384
2,37,110,18
2,37,110,164
2,44,110,14
2,37,110,384
2,32,110,22
2,39,110,150
2,44,110,14
2,32,110,384
2,37,110,370
2,37,110,126
2,44,110,6
2,37,110,384
2,32,110,34
2,39,110,98
2,44,110,192
2,32,110,380
2,37,110,30
2,37,110,128
2,44,110,194
2,37,110,2
2,39,110,12
2,39,110,146
2,34,110,6
2,39,110,384
2,32,110,370
2,39,110,192
2,41,110,14
2,36,110,384
2,34,110,14
2,34,110,164
2,39,110,22
2,34,110,384
2,32,110,12
2,39,110,162
2,44,110,6
2,39,110,22
2,33,110,42
2,40,110,106
2,45,110,18
2,38,110,154
2,45,110,106
2,47,110,14
2,45,110,382
2,38,110,6
2,45,110,90
2,47,110,10
2,45,110,26
2,33,110,150
2,33,110,138
2,40,110,192
2,28,110,10
2,33,110,18
2,33,110,168
2,40,110,6
2,28,110,382
2,33,110,30
2,33,110,254
2,40,110,192
2,33,110,378
2,33,110,146
2,33,110,242
2,40,110,192
2,33,110,378
2,38,110,370
2,38,110,158
2,45,110,14
2,33,110,4
2,38,110,18
2,38,110,112
2,38,110,152
2,45,110,6
2,33,110,6
2,38,110,384
2,38,110,136
2,47,110,194
2,45,110,2
2,38,110,384
2,38,110,156
2,45,110,6
2,38,110,384
2,43,110,6
2,50,110,102
2,52,110,2
2,50,110,6
2,43,110,198
2,43,110,124
2,38,110,10
2,40,110,2
2,38,110,382
2,31,110,14
2,38,110,134
2,40,110,192
2,38,110,376
2,38,110,94
2,38,110,206
2,45,110,192
2,38,110,4
2,33,110,386
2,40,110,90
2,45,110,192
2,33,110,366
2,38,110,354
2,38,110,188
2,45,110,0
2,38,110,384
2,31,110,6
2,38,110,176
2,40,110,6
2,38,110,384
2,38,110,114
2,45,110,106
2,47,110,8
2,45,110,382
2,33,110,214
2,40,110,110
2,45,110,6
2,33,110,384
2,38,110,38
2,38,110,154
2,40,110,192
2,42,110,380
2,31,110,198
2,38,110,42
2,40,110,6
2,38,110,10
2,38,110,102
2,45,110,200
2,47,110,6
2,47,110,84
2,45,110,34
2,33,110,198
2,40,110,148
2,45,110,6
2,40,110,2
2,38,110,102
2,45,110,120
2,47,110,192
2,45,110,380
2,50,110,382
2,50,110,134
2,45,110,126
2,47,110,192
2,45,110,378
2,38,110,30
2,45,110,110
2,47,110,192
2,45,110,368
2,50,110,6
2,50,110,112
2,45,110,142
2,47,110,6
2,45,110,382
2,26,110,382
3,61,109,6902
3,65,109,18
3,63,109,302
3,66,109,0
3,66,109,302
3,70,109,0
3,65,109,486
3,68,109,0
3,64,109,306
3,67,109,0
3,65,109,126
3,68,109,0
3,68,109,1394
3,77,109,0
3,68,109,118
3,77,109,16
3,68,109,124
3,77,109,0
3,66,109,298
3,75,109,0
3,66,109,124
3,75,109,0
3,66,109,132
3,75,109,2
3,65,109,294
3,73,109,0
3,65,109,132
3,73,109,0
3,68,109,4888
3,65,109,16
3,65,109,296
3,70,109,80
3,68,109,316
3,63,109,320
3,56,109,502
3,68,109,1068
3,65,109,320
3,70,109,120
3,68,109,330
3,68,109,2028
3,65,109,316
3,70,109,96
3,68,109,328
3,68,109,5100
3,65,109,332
3,70,109,100
3,68,109,314
3,63,109,316
3,56,109,510
3,68,109,1064
3,65,109,324
3,70,109,140
3,68,109,316
3,61,109,2036
3,60,109,10
3,56,109,194
3,58,109,2
3,61,109,20
3,56,109,28
3,56,109,120
3,61,109,1804
3,60,109,188
3,56,109,188
3,58,109,196
3,61,109,8
3,56,109,28
3,56,109,128
3,70,109,3332
3,69,109,16
3,68,109,22
3,70,109,914
3,68,109,8
3,77,109,3192
3,72,109,306
3,75,109,120
3,73,109,130
3,72,109,2254
3,75,109,12
3,72,109,38
3,75,109,16
3,72,109,52
3,75,109,0
3,70,109,120
3,73,109,0
3,70,109,50
3,73,109,0
3,70,109,40
3,73,109,16
3,68,109,132
3,72,109,2
3,63,109,130
3,66,109,0
3,75,109,1702
3,70,109,296
3,73,109,132
3,72,109,136
3,70,109,2956
3,73,109,16
3,68,109,102
3,72,109,0
3,68,109,128
3,65,109,2
3,66,109,124
3,70,109,0
3,61,109,138
3,65,109,0
3,77,109,1440
3,72,109,264
3,75,109,124
3,73,109,124
3,66,109,2250
3,70,109,0
3,70,109,34
3,66,109,16
3,66,109,42
3,70,109,14
3,68,109,118
3,72,109,0
3,68,109,28
3,72,109,16
3,68,109,40
3,72,109,0
3,70,109,122
3,73,109,0
3,70,109,130
3,73,109,0
3,70,109,584
3,73,109,0
3,78,109,114
3,68,109,92
3,70,109,108
3,68,109,388
3,77,109,460
3,68,109,226
3,70,109,120
3,68,109,372
3,75,109,472
3,68,109,2
3,70,109,84
3,68,109,372
3,77,109,460
3,68,109,400
3,70,109,10
3,68,109,386
3,78,109,464
3,68,109,386
3,70,109,8
3,68,109,392
3,77,109,462
3,68,109,48
3,70,109,36
3,68,109,388
3,75,109,464
3,68,109,10
3,79,94,0
3,70,109,24
3,68,109,10
3,61,109,2574
3,65,109,0
3,63,109,254
3,66,109,0
3,66,109,278
3,70,109,0
3,65,109,450
3,68,109,0
3,64,109,270
3,67,109,0
3,65,109,62
3,68,109,12
3,65,109,6568
3,65,109,316
3,70,109,116
3,68,109,280
3,63,109,312
3,65,109,1472
3,68,109,116
3,65,109,312
3,70,109,120
3,68,109,294
3,68,109,2024
3,65,109,320
3,70,109,112
3,68,109,288
3,68,109,5092
3,65,109,316
3,70,109,94
3,68,109,314
3,68,109,2026
3,65,109,328
3,70,109,116
3,68,109,310
3,61,109,2040
3,60,109,16
3,56,109,8
3,58,109,204
3,61,109,8
3,56,109,20
3,56,109,110
3,61,109,1664
3,60,109,28
3,56,109,192
3,58,109,192
3,61,109,8
3,56,109,48
3,56,109,118
3,70,109,3136
3,69,109,174
3,68,109,192
3,70,109,894
3,68,109,20
3,71,109,700
3,69,109,140
3,78,109,1300
3,73,109,316
3,76,109,88
3,74,109,80
3,71,109,2214
3,74,109,0
3,71,109,38
3,74,109,0
3,74,109,42
3,71,109,2
3,69,109,110
3,73,109,0
3,69,109,36
3,73,109,0
3,69,109,58
3,73,109,0
3,67,109,118
3,71,109,0
3,64,109,126
3,67,109,2
3,76,109,1702
3,71,109,290
3,74,109,68
3,73,109,94
3,71,109,2234
3,74,109,0
3,73,109,92
3,69,109,2
3,66,109,94
3,69,109,0
3,67,109,134
3,71,109,0
3,67,109,122
3,64,109,16
3,62,109,120
3,66,109,0
3,78,109,2044
3,73,109,292
3,76,109,108
3,74,109,124
3,67,109,2220
3,71,109,4
3,67,109,48
3,71,109,0
3,71,109,40
3,67,109,2
3,69,109,120
3,73,109,0
3,73,109,38
3,69,109,16
3,69,109,48
3,73,109,0
3,74,109,120
3,71,109,2
3,74,109,120
3,71,109,2
3,79,109,1252
3,69,109,300
3,71,109,116
3,69,109,322
3,78,109,504
3,69,109,296
3,71,109,100
3,71,109,116
3,69,109,112
3,76,109,478
3,69,109,312
3,71,109,112
3,71,109,112
3,69,109,126
3,78,109,486
3,69,109,284
3,71,109,92
3,69,109,300
3,79,109,472
3,69,109,292
3,71,109,128
3,69,109,296
3,78,109,470
3,69,109,318
3,71,109,120
3,69,109,296
3,76,109,468
3,69,109,220
3,71,109,108
3,69,109,268
3,78,109,464
3,69,109,288
3,71,109,110
3,69,109,288
3,79,109,460
3,69,109,292
3,71,109,108
3,71,109,286
3,78,109,478
3,69,109,290
