track,note,velocity,time
1,36,102,2
1,36,62,76
1,31,106,182
1,33,94,18
1,28,98,0
1,28,82,34
1,29,98,0
1,29,86,38
1,36,98,18
1,36,50,66
1,36,78,78
1,31,62,28
1,36,90,0
1,36,46,66
1,31,94,192
1,33,90,16
1,28,86,22
1,29,106,0
1,29,94,66
1,36,90,0
1,36,58,52
1,29,90,24
1,29,70,52
1,31,98,0
1,36,70,18
1,31,74,18
1,33,66,58
1,28,78,1510
1,29,74,50
1,29,62,92
1,36,66,26
1,36,66,78
1,31,66,0
1,36,62,0
1,31,70,1514
1,32,66,0
1,33,74,0
1,28,70,0
1,28,62,34
1,29,58,88
1,29,50,34
1,29,74,112
1,36,66,72
1,31,78,32
1,24,70,0
1,31,82,630
1,28,70,20
1,29,90,362
1,29,70,48
1,31,98,18
1,36,98,0
1,40,90,30
1,28,102,16
1,41,90,74
1,43,86,0
1,45,86,0
1,40,74,24
1,33,94,184
1,29,94,0
1,31,98,0
1,36,94,22
1,40,94,24
1,38,86,1516
1,38,50,34
1,38,82,36
1,42,54,190
1,38,86,14
1,36,98,20
1,38,94,0
1,43,90,770
1,36,94,48
1,31,74,20
1,33,66,60
1,28,78,1506
1,29,74,48
1,29,62,88
1,36,66,22
1,36,66,104
1,31,66,0
1,36,62,0
1,31,70,1520
1,32,66,0
1,33,74,0
1,28,70,0
1,28,62,34
1,29,58,84
1,29,50,28
1,29,74,114
1,36,66,72
1,31,78,34
1,24,70,0
1,31,82,0
1,28,70,16
1,29,90,368
1,29,70,46
1,31,98,0
1,36,98,0
1,40,90,34
1,28,102,18
1,41,90,74
1,43,86,0
1,45,86,0
1,40,74,20
1,33,94,194
1,29,94,0
1,31,98,0
1,36,94,18
1,40,94,22
1,38,86,1522
1,38,50,36
1,38,82,34
1,42,54,194
1,38,86,18
1,36,98,18
1,38,82,0
1,43,90,774
1,43,74,20
1,38,86,0
1,36,94,22
1,31,74,20
1,33,66,60
1,28,78,1508
1,29,74,42
1,29,62,78
1,36,102,14
1,36,62,78
1,31,106,200
1,33,94,22
1,28,98,0
1,28,82,34
1,29,98,0
1,29,86,34
1,36,98,0
1,36,50,60
1,36,78,80
1,31,62,34
1,36,90,0
1,36,46,64
1,31,94,198
1,33,90,16
1,28,86,18
1,29,106,26
1,29,94,66
1,36,90,0
1,36,58,62
1,29,90,12
1,29,90,0
1,29,70,42
1,31,98,0
1,36,98,0
1,40,90,30
1,28,102,20
1,41,90,64
1,43,86,0
1,45,86,0
1,40,74,22
1,33,94,188
1,29,94,0
1,31,98,0
1,36,94,18
1,36,86,0
1,38,78,0
1,39,82,190
1,40,90,0
1,38,86,1524
1,38,50,34
1,38,82,32
1,33,54,198
1,38,86,20
1,36,78,0
1,43,82,170
1,38,70,80
1,43,74,16
1,38,82,14
1,36,94,374
1,31,74,38
1,33,66,52
1,28,78,1522
1,29,74,50
1,29,62,90
1,36,102,0
1,36,62,80
1,31,106,200
1,33,94,12
1,28,98,0
1,28,82,32
1,29,98,0
1,29,86,30
1,36,98,0
1,36,50,66
1,36,78,82
1,31,62,30
1,36,90,0
1,36,46,66
1,31,94,196
1,33,90,20
1,28,86,24
1,29,106,28
1,29,94,60
1,36,90,0
2,84,102,354
2,79,71,28
2,76,79,0
2,74,67,0
2,91,97,0
2,83,107,20
2,67,75,30
2,69,55,50
2,93,97,0
2,84,102,0
2,83,107,40
2,92,102,0
2,93,97,54
2,84,102,0
2,65,67,44
2,64,59,0
2,60,59,0
2,69,59,0
2,86,102,52
2,84,102,50
2,91,97,16
2,72,67,32
2,79,67,0
2,76,71,0
2,88,83,424
2,91,53,0
2,84,75,0
2,88,59,138
2,95,22,0
2,91,33,0
2,96,14,192
2,91,13,42
2,93,13,0
2,88,35,16
2,84,55,48
2,83,75,2
2,79,71,18
2,76,75,192
2,74,71,110
2,84,102,6
2,76,71,0
2,79,63,0
2,74,67,0
2,91,97,0
2,71,63,66
2,83,107,0
2,67,63,0
2,62,63,38
2,72,51,14
2,64,43,0
2,69,63,0
2,93,97,0
2,84,102,0
2,83,107,28
2,92,102,0
2,84,102,66
2,93,97,20
2,67,63,0
2,72,63,0
2,69,63,96
2,81,63,550
2,84,71,0
2,86,102,50
2,84,103,36
2,91,97,32
2,67,71,84
2,93,97,0
2,84,103,0
2,72,75,0
2,67,59,278
2,72,67,0
2,95,102,40
2,67,67,0
2,74,71,0
2,67,55,304
2,67,63,354
2,69,59,8
2,72,63,0
2,96,102,0
2,76,75,388
2,67,75,0
2,67,59,320
2,74,67,0
2,71,71,0
2,81,67,1028
2,72,51,0
2,76,55,0
2,62,71,62
2,64,71,0
2,71,71,0
2,68,71,0
2,83,67,64
2,81,71,26
2,77,67,0
2,84,71,0
2,86,59,240
2,84,67,30
2,79,59,4
2,88,63,384
2,84,59,0
2,91,17,30
2,74,75,190
2,79,71,0
2,76,59,6
2,72,47,56
2,79,47,270
2,74,59,0
2,72,55,52
2,71,87,342
2,74,55,0
2,67,59,0
2,69,71,0
2,67,55,148
2,71,75,378
2,74,71,390
2,81,59,34
2,72,59,0
2,76,67,0
2,71,55,48
2,80,51,0
2,76,59,0
2,83,51,1150
2,81,55,52
2,77,55,0
2,79,59,0
2,84,39,30
2,72,67,738
2,65,71,0
2,69,79,0
2,65,67,38
2,69,67,0
2,62,71,0
2,67,79,116
2,60,71,0
2,62,87,0
2,64,83,100
2,81,67,192
2,77,63,0
2,72,75,0
2,76,71,0
2,74,67,96
2,71,75,0
2,67,63,0
2,72,71,118
2,67,75,0
2,76,63,0
2,79,63,86
2,76,63,0
2,84,67,0
2,76,79,176
2,74,75,0
2,79,75,0
2,81,71,116
2,83,79,132
2,81,71,338
2,76,59,0
2,72,47,0
2,84,51,0
2,69,67,104
2,74,67,0
2,67,75,0
2,71,67,78
2,76,79,22
2,72,79,0
2,71,83,0
2,74,71,326
2,76,63,676
2,79,67,670
2,72,71,670
2,76,79,0
2,81,67,0
2,71,67,64
2,67,59,0
2,74,55,0
2,79,59,72
2,74,59,0
2,76,71,0
2,72,55,334
2,79,63,0
2,67,71,34
2,71,75,0
2,74,59,0
2,71,43,46
2,64,31,0
2,74,31,0
2,81,47,38
2,78,59,0
2,74,47,0
2,76,67,0
2,69,19,366
2,62,19,16
2,66,55,132
2,64,55,0
2,69,47,90
2,62,51,80
2,64,59,498
2,66,55,194
2,64,47,64
2,62,51,168
2,64,51,178
2,66,47,162
2,62,47,164
2,67,51,14
2,64,59,0
2,62,59,0
2,60,47,246
2,65,59,1070
2,69,51,0
2,62,55,0
2,76,75,98
2,67,75,0
2,91,97,48
2,74,67,338
2,71,71,0
2,81,67,1018
2,72,51,0
2,76,55,0
2,93,97,20
2,92,102,14
2,83,67,66
2,81,71,20
2,77,67,0
2,84,71,0
2,93,97,18
2,86,59,236
2,84,67,30
2,79,59,4
2,91,97,0
2,74,75,194
2,79,71,0
2,91,97,26
2,76,59,0
2,72,47,48
2,79,47,278
2,74,59,0
2,72,55,46
2,67,59,342
2,69,71,0
2,71,87,0
2,74,55,0
2,67,55,170
2,71,75,380
2,74,71,386
2,71,55,1504
2,92,102,50
2,83,51,1100
2,81,55,50
2,79,59,0
2,77,55,0
2,93,97,0
2,84,39,20
2,72,67,734
2,65,71,0
2,69,79,0
2,69,67,50
2,62,71,0
2,65,67,0
2,62,87,4
2,91,97,98
2,81,67,188
2,77,63,0
2,93,97,0
2,72,75,0
2,76,71,0
2,95,102,62
2,74,67,2
2,71,75,0
2,67,63,0
2,76,63,120
2,96,102,0
2,72,71,0
2,67,75,0
2,76,71,130
2,79,83,0
2,84,79,0
2,95,102,6
2,76,79,178
2,74,75,0
2,79,75,0
2,81,71,104
2,83,79,128
2,93,97,338
2,69,67,1506
2,74,67,0
2,67,75,0
2,95,102,0
2,71,67,24
2,96,102,6
2,71,83,14
2,76,79,0
2,72,79,0
2,74,71,326
2,76,63,686
2,79,67,676
2,93,97,0
2,76,79,46
2,74,55,2
2,95,102,0
2,96,102,34
2,79,59,48
2,74,59,0
2,76,71,0
2,79,63,328
2,72,55,0
2,67,71,56
2,71,75,0
2,74,59,0
2,95,102,0
2,81,47,808
2,74,47,0
2,76,67,0
2,78,59,0
2,93,97,62
2,69,19,316
2,62,19,24
2,64,55,136
2,66,55,0
2,69,47,92
2,62,51,80
2,64,59,502
2,66,55,192
2,64,47,62
2,62,51,168
2,64,51,174
2,66,47,154
2,62,47,178
2,64,59,34
2,67,51,16
2,91,97,0
2,62,59,0
2,60,47,224
2,93,97,1072
2,65,59,0
2,69,51,0
2,62,55,0
2,77,51,230
2,72,51,2
2,81,59,2
2,95,102,0
2,83,59,126
2,84,75,112
2,86,75,116
2,88,75,2
2,96,102,0
2,84,63,0
2,79,35,908
2,88,59,84
2,83,47,22
2,95,102,0
2,93,97,26
2,81,51,0
2,83,51,26
2,84,47,188
2,83,47,22
2,81,39,4
2,83,15,18
2,84,3,192
2,81,3,46
2,92,102,10
2,93,97,446
2,86,59,240
2,84,67,18
2,91,97,52
2,84,102,0
2,83,107,1500
2,69,55,24
2,93,97,0
2,84,102,0
2,83,107,42
2,92,102,28
2,74,55,0
2,93,97,34
2,84,102,0
2,86,97,48
2,84,102,50
2,91,97,18
2,79,67,30
2,84,75,418
2,91,53,0
2,88,59,148
2,95,22,0
2,91,33,0
2,96,14,192
2,91,13,48
2,93,13,0
2,88,35,18
2,84,55,20
2,83,75,16
2,79,71,16
2,76,75,192
2,74,71,110
2,76,71,68
2,79,63,0
2,74,67,0
2,84,102,0
2,91,97,0
2,71,63,60
2,83,111,0
2,62,63,0
2,67,63,0
2,93,97,20
2,72,51,0
2,84,102,0
2,83,111,30
2,92,102,0
2,84,102,68
2,93,97,16
2,67,63,0
2,72,63,0
2,69,63,96
2,81,63,554
2,84,71,0
2,86,97,50
2,84,103,42
2,91,97,36
2,76,71,86
2,81,67,0
2,77,63,0
2,93,97,32
2,95,102,68
2,74,67,16
2,71,75,0
2,67,63,0
2,96,102,130
2,72,71,0
2,67,75,0
2,76,63,0
2,79,83,90
2,76,71,0
2,84,79,0
2,95,102,14
2,79,75,180
2,81,71,94
2,83,79,136
2,72,47,0
2,84,51,0
2,81,71,0
2,76,71,0
2,93,97,8
2,95,102,94
2,69,67,0
2,74,67,0
2,67,75,0
2,71,67,18
2,96,102,18
2,76,79,4
2,72,79,0
2,71,83,0
2,74,71,330
2,76,63,676
2,79,67,680
2,76,55,44
2,93,97,0
2,67,59,86
2,74,55,0
2,95,102,0
2,96,102,44
2,79,59,6
2,74,59,0
2,76,71,0
2,79,63,326
2,72,55,0
2,67,71,60
2,71,75,0
2,74,59,0
2,95,102,0
2,81,47,14
2,74,47,0
2,76,67,0
2,78,59,0
2,93,97,54
2,69,19,318
2,62,19,24
2,64,55,130
2,66,55,0
2,69,47,96
2,62,51,80
2,64,59,502
2,66,55,188
2,64,47,62
2,62,51,162
2,64,51,176
2,66,47,160
2,62,47,172
2,91,97,48
2,60,47,398
2,65,59,1072
2,69,51,0
2,62,55,0
2,93,97,0
2,77,51,234
2,72,51,178
2,81,59,0
2,95,102,0
2,83,59,118
2,84,75,118
2,86,75,110
2,96,102,94
2,88,75,0
2,84,63,0
2,79,35,904
2,88,59,80
2,83,47,28
2,95,102,0
2,93,97,22
2,81,51,0
2,83,51,22
2,84,47,188
2,83,47,16
2,81,39,8
2,83,19,18
2,84,23,188
2,81,3,58
2,92,102,66
2,93,97,4
2,86,59,240
2,84,67,24
2,91,97,24
2,84,102,32
2,83,107,1504
2,84,102,22
2,93,97,0
2,83,107,74
2,92,102,0
2,84,102,32
2,93,97,0
2,65,67,30
2,64,59,0
2,69,59,0
2,86,101,32
2,84,102,28
2,72,67,48
2,79,67,0
2,91,97,0
2,91,29,420
2,84,55,0
2,88,51,0
2,88,59,154
2,95,22,0
2,91,29,0
2,96,14,196
2,91,13,50
2,93,13,0
2,88,35,12
2,84,55,18
2,83,75,20
2,79,71,26
2,76,75,188
2,74,71,108
2,76,71,56
2,79,63,0
2,74,67,0
2,91,97,0
2,84,102,20
2,83,99,52
2,62,63,0
2,67,63,0
2,71,63,0
2,69,63,22
2,93,97,0
2,72,51,0
2,64,43,0
2,84,102,0
2,83,107,38
2,92,102,0
2,84,102,6
2,93,97,34
2,67,63,0
2,72,63,0
2,69,63,94
2,81,63,546
2,84,71,0
2,74,87,50
2,72,83,0
2,69,79,0
2,86,101,0
2,69,83,22
2,72,91,0
2,74,87,0
2,84,103,42
2,91,97,36
3,43,75,272
3,55,75,66
3,48,71,30
3,60,51,0
3,52,67,18
3,64,127,18
3,64,75,32
3,64,127,320
3,65,127,100
3,67,127,104
3,67,127,104
3,43,71,100
3,55,31,50
3,59,75,18
3,67,71,30
3,50,51,0
3,65,127,38
3,64,127,20
3,62,127,98
3,60,127,98
3,45,87,180
3,57,59,0
3,60,79,18
3,64,63,12
3,60,55,20
3,64,55,0
3,57,47,0
3,60,127,190
3,62,127,98
3,64,127,102
3,64,127,84
3,40,87,30
3,56,51,80
3,52,67,14
3,62,55,16
3,64,75,58
3,62,127,40
3,60,127,42
3,59,127,84
3,40,59,0
3,47,59,0
3,57,127,84
3,48,59,14
3,57,55,34
3,64,75,42
3,60,59,0
3,57,127,572
3,60,127,90
3,62,127,84
3,57,43,16
3,53,55,0
3,65,67,16
3,64,127,0
3,62,55,0
3,60,127,0
3,62,127,68
3,64,127,54
3,43,75,44
3,52,55,130
3,60,87,0
3,64,83,28
3,52,39,364
3,43,43,0
3,60,43,16
3,55,43,0
3,64,51,0
3,43,47,98
3,55,99,324
3,52,87,196
3,50,95,0
3,43,75,32
3,55,75,66
3,60,51,32
3,52,67,18
3,64,75,16
3,64,127,0
3,64,127,324
3,65,127,100
3,67,127,102
3,67,127,94
3,43,71,114
3,55,31,48
3,59,75,16
3,50,51,38
3,67,71,16
3,65,127,38
3,64,127,24
3,62,127,94
3,60,127,94
3,45,87,176
3,57,59,0
3,52,87,18
3,60,79,0
3,64,63,18
3,52,51,0
3,60,39,14
3,64,43,0
3,57,31,0
3,60,127,198
3,62,127,80
3,64,127,98
3,64,127,96
3,40,43,32
3,56,51,80
3,52,67,16
3,62,55,18
3,64,75,62
3,62,127,38
3,60,127,42
3,59,127,84
3,40,55,0
3,47,51,0
3,57,127,88
3,41,67,16
3,48,59,16
3,57,55,32
3,60,59,48
3,65,75,16
3,57,127,478
3,60,127,80
3,62,127,84
3,57,43,18
3,53,55,0
3,65,67,20
3,64,127,0
3,62,55,0
3,60,127,0
3,62,127,64
3,64,127,52
3,43,75,44
3,55,75,82
3,52,55,50
3,60,87,0
3,64,83,32
3,52,39,180
3,64,47,16
3,60,43,0
3,43,47,16
3,64,55,146
3,55,55,0
3,60,59,0
3,52,51,0
3,41,63,430
3,53,59,14
3,57,83,32
3,60,87,18
3,65,59,48
3,59,91,692
3,50,59,0
3,43,91,0
3,55,83,0
3,67,91,0
3,43,59,620
3,55,43,100
3,48,43,0
3,60,51,26
3,64,51,34
3,52,35,0
3,43,47,300
3,47,39,48
3,50,35,18
3,55,39,0
3,67,63,18
3,59,63,0
3,45,51,368
3,57,43,46
3,60,55,50
3,52,59,28
3,64,55,36
3,64,55,176
3,57,55,16
3,60,59,0
3,40,59,576
3,47,59,48
3,56,39,16
3,52,47,50
3,62,51,12
3,64,27,50
3,41,59,306
3,57,55,82
3,48,71,0
3,53,55,16
3,60,55,44
3,41,51,768
3,48,47,62
3,53,47,38
3,57,43,0
3,65,47,54
3,62,51,0
3,48,91,752
3,43,87,0
3,55,87,18
3,52,91,0
3,64,79,26
3,60,83,0
3,60,55,178
3,64,51,0
3,55,55,16
3,55,47,390
3,64,23,0
3,52,47,0
3,43,35,0
3,60,35,0
3,48,43,0
3,43,31,82
3,48,47,0
3,52,47,0
3,55,55,44
3,52,55,16
3,50,83,54
3,43,79,192
3,55,63,30
3,48,59,0
3,60,67,32
3,64,67,38
3,52,51,0
3,43,55,304
3,47,51,46
3,55,47,0
