track,note,velocity,time
1.0,72.0,80.0,384.0
1.0,69.0,63.0,0.0
1.0,53.0,58.0,2.0
1.0,60.0,54.0,2.0
1.0,60.0,68.0,198.0
1.0,53.0,63.0,4.0
1.0,72.0,59.0,10.0
1.0,69.0,55.0,4.0
1.0,72.0,60.0,28.0
1.0,69.0,55.0,20.0
1.0,53.0,43.0,8.0
1.0,60.0,54.0,6.0
1.0,77.0,92.0,6.0
1.0,69.0,81.0,4.0
1.0,60.0,72.0,14.0
1.0,53.0,57.0,4.0
1.0,48.0,48.0,68.0
1.0,55.0,64.0,28.0
1.0,76.0,92.0,14.0
1.0,67.0,80.0,4.0
1.0,60.0,74.0,2.0
1.0,59.0,58.0,180.0
1.0,74.0,88.0,0.0
1.0,65.0,79.0,4.0
1.0,72.0,97.0,66.0
1.0,64.0,80.0,8.0
1.0,60.0,69.0,12.0
1.0,69.0,67.0,92.0
1.0,65.0,59.0,4.0
1.0,57.0,49.0,14.0
1.0,50.0,49.0,2.0
1.0,57.0,68.0,136.0
1.0,50.0,70.0,4.0
1.0,69.0,74.0,6.0
1.0,65.0,61.0,4.0
1.0,69.0,78.0,0.0
1.0,65.0,45.0,4.0
1.0,57.0,55.0,20.0
1.0,50.0,43.0,8.0
1.0,74.0,84.0,112.0
1.0,65.0,73.0,12.0
1.0,57.0,70.0,4.0
1.0,50.0,46.0,14.0
1.0,72.0,85.0,28.0
1.0,64.0,74.0,2.0
1.0,52.0,62.0,12.0
1.0,45.0,61.0,6.0
1.0,71.0,54.0,238.0
1.0,62.0,51.0,4.0
1.0,56.0,44.0,10.0
1.0,69.0,66.0,36.0
1.0,60.0,55.0,18.0
1.0,57.0,41.0,10.0
1.0,65.0,54.0,70.0
1.0,62.0,44.0,0.0
1.0,46.0,46.0,8.0
1.0,53.0,35.0,6.0
1.0,46.0,80.0,118.0
1.0,53.0,51.0,8.0
1.0,62.0,49.0,4.0
1.0,65.0,68.0,0.0
1.0,65.0,74.0,42.0
1.0,46.0,45.0,12.0
1.0,53.0,48.0,0.0
1.0,62.0,49.0,2.0
1.0,70.0,86.0,108.0
1.0,62.0,66.0,10.0
1.0,53.0,47.0,8.0
1.0,46.0,62.0,10.0
1.0,69.0,86.0,14.0
1.0,60.0,77.0,2.0
1.0,53.0,61.0,8.0
1.0,41.0,65.0,4.0
1.0,58.0,86.0,44.0
1.0,41.0,63.0,4.0
1.0,53.0,44.0,6.0
1.0,67.0,67.0,10.0
1.0,65.0,95.0,24.0
1.0,41.0,70.0,2.0
1.0,57.0,72.0,14.0
1.0,53.0,35.0,4.0
1.0,70.0,94.0,8.0
1.0,62.0,67.0,2.0
1.0,46.0,76.0,10.0
1.0,53.0,63.0,0.0
1.0,60.0,76.0,10.0
1.0,69.0,88.0,0.0
1.0,53.0,70.0,6.0
1.0,41.0,67.0,2.0
1.0,58.0,84.0,14.0
1.0,53.0,63.0,6.0
1.0,67.0,65.0,8.0
1.0,65.0,88.0,18.0
1.0,53.0,58.0,12.0
1.0,57.0,64.0,4.0
1.0,50.0,66.0,116.0
1.0,43.0,48.0,12.0
1.0,59.0,51.0,10.0
1.0,67.0,51.0,8.0
1.0,55.0,63.0,4.0
1.0,64.0,58.0,22.0
1.0,60.0,41.0,4.0
1.0,48.0,42.0,18.0
1.0,55.0,47.0,2.0
1.0,62.0,46.0,28.0
1.0,53.0,34.0,2.0
1.0,60.0,41.0,42.0
1.0,52.0,51.0,0.0
1.0,72.0,50.0,574.0
1.0,69.0,32.0,4.0
1.0,60.0,27.0,6.0
1.0,53.0,23.0,8.0
1.0,72.0,71.0,124.0
1.0,60.0,44.0,4.0
1.0,69.0,16.0,6.0
1.0,53.0,37.0,6.0
1.0,72.0,86.0,18.0
1.0,69.0,16.0,22.0
1.0,60.0,51.0,18.0
1.0,53.0,16.0,14.0
1.0,77.0,71.0,140.0
1.0,60.0,39.0,4.0
1.0,53.0,31.0,20.0
1.0,69.0,30.0,6.0
1.0,76.0,54.0,18.0
1.0,48.0,34.0,2.0
1.0,67.0,39.0,2.0
1.0,60.0,26.0,2.0
1.0,55.0,32.0,8.0
1.0,59.0,36.0,180.0
1.0,65.0,32.0,24.0
1.0,74.0,32.0,6.0
1.0,72.0,38.0,20.0
1.0,64.0,36.0,16.0
1.0,60.0,35.0,4.0
1.0,69.0,44.0,44.0
1.0,57.0,36.0,0.0
1.0,65.0,39.0,2.0
1.0,50.0,34.0,8.0
1.0,50.0,54.0,172.0
1.0,69.0,28.0,0.0
1.0,57.0,48.0,4.0
1.0,65.0,50.0,6.0
1.0,69.0,40.0,46.0
1.0,65.0,44.0,2.0
1.0,50.0,38.0,14.0
1.0,57.0,40.0,6.0
1.0,74.0,51.0,16.0
1.0,65.0,42.0,8.0
1.0,57.0,31.0,20.0
1.0,50.0,36.0,4.0
1.0,72.0,51.0,18.0
1.0,64.0,40.0,12.0
1.0,52.0,42.0,10.0
1.0,45.0,38.0,14.0
1.0,56.0,37.0,206.0
1.0,62.0,37.0,8.0
1.0,71.0,28.0,10.0
1.0,69.0,41.0,58.0
1.0,57.0,35.0,6.0
1.0,60.0,42.0,10.0
1.0,62.0,42.0,0.0
1.0,65.0,53.0,4.0
1.0,46.0,38.0,8.0
1.0,53.0,32.0,4.0
1.0,46.0,78.0,130.0
1.0,65.0,65.0,2.0
1.0,53.0,35.0,12.0
1.0,62.0,41.0,4.0
1.0,65.0,79.0,24.0
1.0,46.0,59.0,4.0
1.0,62.0,41.0,8.0
1.0,53.0,40.0,4.0
1.0,70.0,82.0,72.0
1.0,62.0,65.0,10.0
1.0,46.0,55.0,8.0
1.0,53.0,39.0,2.0
1.0,69.0,72.0,14.0
1.0,60.0,63.0,2.0
1.0,53.0,50.0,10.0
1.0,41.0,44.0,10.0
1.0,58.0,62.0,62.0
1.0,41.0,40.0,14.0
1.0,67.0,45.0,14.0
1.0,65.0,64.0,46.0
1.0,57.0,51.0,10.0
1.0,53.0,16.0,10.0
1.0,41.0,16.0,26.0
1.0,70.0,61.0,130.0
1.0,46.0,42.0,6.0
1.0,53.0,27.0,2.0
1.0,62.0,34.0,2.0
1.0,69.0,60.0,40.0
1.0,53.0,34.0,4.0
1.0,60.0,50.0,2.0
1.0,41.0,41.0,0.0
1.0,58.0,66.0,14.0
1.0,53.0,25.0,8.0
1.0,67.0,49.0,2.0
1.0,65.0,71.0,38.0
1.0,53.0,43.0,14.0
1.0,57.0,54.0,4.0
1.0,67.0,59.0,6.0
1.0,62.0,38.0,8.0
1.0,55.0,54.0,2.0
1.0,46.0,47.0,14.0
1.0,62.0,54.0,4.0
1.0,55.0,32.0,8.0
1.0,48.0,32.0,6.0
1.0,60.0,35.0,4.0
1.0,64.0,48.0,4.0
1.0,65.0,41.0,164.0
1.0,41.0,21.0,24.0
1.0,57.0,28.0,6.0
1.0,53.0,16.0,0.0
1.0,81.0,115.0,192.0
1.0,69.0,108.0,4.0
1.0,57.0,101.0,0.0
1.0,45.0,97.0,8.0
1.0,81.0,103.0,132.0
1.0,69.0,91.0,2.0
1.0,57.0,52.0,10.0
1.0,81.0,100.0,20.0
1.0,69.0,100.0,8.0
1.0,57.0,82.0,24.0
1.0,77.0,105.0,48.0
1.0,74.0,97.0,0.0
1.0,65.0,100.0,12.0
1.0,62.0,84.0,4.0
1.0,62.0,52.0,184.0
1.0,77.0,89.0,6.0
1.0,64.0,69.0,8.0
1.0,74.0,53.0,10.0
1.0,76.0,101.0,10.0
1.0,61.0,83.0,2.0
1.0,73.0,95.0,0.0
1.0,62.0,75.0,90.0
1.0,59.0,52.0,4.0
1.0,74.0,92.0,0.0
1.0,71.0,73.0,0.0
1.0,73.0,94.0,0.0
1.0,76.0,105.0,4.0
1.0,64.0,89.0,4.0
1.0,61.0,79.0,0.0
1.0,73.0,77.0,158.0
1.0,69.0,83.0,0.0
1.0,61.0,73.0,8.0
1.0,52.0,43.0,16.0
1.0,81.0,115.0,50.0
1.0,57.0,106.0,6.0
1.0,69.0,103.0,2.0
1.0,45.0,102.0,2.0
1.0,57.0,84.0,162.0
1.0,81.0,105.0,8.0
1.0,69.0,95.0,4.0
1.0,81.0,100.0,40.0
1.0,57.0,87.0,2.0
1.0,69.0,106.0,6.0
1.0,77.0,101.0,42.0
1.0,74.0,94.0,4.0
1.0,65.0,95.0,0.0
1.0,62.0,81.0,8.0
1.0,73.0,87.0,4.0
1.0,76.0,100.0,4.0
1.0,64.0,94.0,0.0
1.0,61.0,82.0,8.0
1.0,74.0,88.0,178.0
1.0,62.0,76.0,12.0
1.0,59.0,42.0,8.0
1.0,71.0,32.0,4.0
1.0,59.0,70.0,38.0
1.0,64.0,88.0,0.0
1.0,71.0,73.0,2.0
1.0,52.0,67.0,2.0
1.0,81.0,71.0,26.0
1.0,69.0,41.0,10.0
1.0,57.0,39.0,8.0
1.0,45.0,46.0,4.0
1.0,81.0,54.0,102.0
1.0,69.0,40.0,4.0
1.0,81.0,76.0,52.0
1.0,69.0,18.0,16.0
1.0,57.0,68.0,20.0
1.0,77.0,73.0,12.0
1.0,65.0,42.0,12.0
1.0,74.0,41.0,2.0
1.0,62.0,26.0,4.0
1.0,77.0,49.0,152.0
1.0,74.0,50.0,2.0
1.0,62.0,18.0,16.0
1.0,76.0,57.0,0.0
1.0,73.0,47.0,2.0
1.0,61.0,48.0,4.0
1.0,64.0,46.0,24.0
1.0,71.0,41.0,92.0
1.0,74.0,54.0,0.0
1.0,59.0,35.0,4.0
1.0,62.0,25.0,0.0
1.0,73.0,39.0,14.0
1.0,76.0,57.0,6.0
1.0,64.0,50.0,0.0
1.0,61.0,46.0,10.0
1.0,73.0,50.0,52.0
1.0,69.0,49.0,6.0
1.0,61.0,43.0,0.0
1.0,52.0,18.0,4.0
1.0,81.0,52.0,36.0
1.0,57.0,27.0,22.0
1.0,69.0,22.0,2.0
1.0,45.0,32.0,0.0
1.0,81.0,38.0,102.0
1.0,69.0,38.0,8.0
1.0,57.0,44.0,0.0
1.0,69.0,22.0,50.0
1.0,81.0,18.0,4.0
1.0,57.0,56.0,20.0
1.0,77.0,58.0,228.0
1.0,65.0,53.0,2.0
1.0,74.0,49.0,6.0
1.0,62.0,32.0,12.0
1.0,57.0,18.0,2.0
1.0,69.0,18.0,94.0
1.0,76.0,68.0,20.0
1.0,73.0,23.0,0.0
1.0,64.0,45.0,12.0
1.0,61.0,20.0,8.0
1.0,73.0,62.0,360.0
1.0,69.0,38.0,8.0
1.0,57.0,47.0,2.0
1.0,61.0,47.0,4.0
1.0,61.0,35.0,102.0
1.0,69.0,59.0,20.0
1.0,57.0,38.0,18.0
1.0,45.0,28.0,22.0
1.0,70.0,45.0,430.0
1.0,72.0,58.0,4.0
1.0,60.0,22.0,6.0
1.0,64.0,33.0,4.0
1.0,55.0,29.0,6.0
1.0,48.0,36.0,2.0
1.0,72.0,51.0,38.0
1.0,69.0,70.0,60.0
1.0,60.0,41.0,0.0
1.0,53.0,41.0,6.0
1.0,77.0,81.0,0.0
1.0,69.0,63.0,8.0
1.0,60.0,52.0,8.0
1.0,53.0,37.0,2.0
1.0,48.0,34.0,8.0
1.0,60.0,44.0,8.0
1.0,76.0,79.0,6.0
1.0,55.0,45.0,4.0
1.0,67.0,45.0,4.0
1.0,59.0,52.0,130.0
1.0,65.0,32.0,2.0
1.0,74.0,69.0,0.0
1.0,72.0,60.0,76.0
1.0,60.0,60.0,4.0
1.0,64.0,54.0,2.0
1.0,57.0,40.0,18.0
1.0,69.0,60.0,4.0
1.0,65.0,55.0,4.0
1.0,50.0,33.0,12.0
1.0,57.0,58.0,130.0
1.0,50.0,55.0,4.0
1.0,65.0,67.0,4.0
1.0,69.0,58.0,8.0
1.0,69.0,71.0,60.0
1.0,65.0,71.0,10.0
1.0,57.0,45.0,8.0
1.0,50.0,48.0,4.0
1.0,74.0,87.0,18.0
1.0,65.0,79.0,4.0
1.0,57.0,53.0,12.0
1.0,50.0,41.0,10.0
1.0,72.0,85.0,12.0
1.0,64.0,63.0,8.0
1.0,45.0,55.0,12.0
1.0,52.0,45.0,4.0
1.0,71.0,68.0,58.0
1.0,62.0,55.0,2.0
1.0,56.0,46.0,8.0
1.0,69.0,78.0,16.0
1.0,60.0,59.0,14.0
1.0,57.0,35.0,18.0
1.0,65.0,62.0,428.0
1.0,62.0,48.0,4.0
1.0,46.0,56.0,12.0
1.0,53.0,38.0,2.0
1.0,46.0,80.0,104.0
1.0,53.0,53.0,4.0
1.0,65.0,67.0,4.0
1.0,62.0,45.0,12.0
1.0,65.0,75.0,0.0
1.0,46.0,82.0,2.0
1.0,62.0,45.0,8.0
1.0,53.0,53.0,4.0
1.0,70.0,80.0,36.0
1.0,62.0,63.0,4.0
1.0,53.0,56.0,2.0
1.0,46.0,54.0,10.0
1.0,69.0,82.0,22.0
1.0,60.0,69.0,0.0
1.0,41.0,52.0,10.0
1.0,53.0,46.0,0.0
1.0,58.0,74.0,50.0
1.0,67.0,62.0,2.0
1.0,53.0,46.0,4.0
1.0,41.0,32.0,14.0
1.0,65.0,57.0,28.0
1.0,57.0,83.0,4.0
1.0,70.0,97.0,98.0
1.0,62.0,70.0,6.0
1.0,53.0,68.0,8.0
1.0,46.0,79.0,0.0
1.0,69.0,90.0,4.0
1.0,60.0,71.0,0.0
1.0,53.0,55.0,0.0
1.0,41.0,69.0,2.0
1.0,58.0,84.0,52.0
1.0,67.0,71.0,2.0
1.0,53.0,72.0,2.0
1.0,65.0,94.0,32.0
1.0,57.0,89.0,12.0
1.0,53.0,56.0,12.0
1.0,67.0,85.0,4.0
1.0,62.0,63.0,6.0
1.0,55.0,72.0,18.0
1.0,46.0,78.0,2.0
1.0,62.0,72.0,46.0
1.0,55.0,50.0,2.0
1.0,48.0,62.0,10.0
1.0,64.0,64.0,4.0
1.0,60.0,50.0,8.0
1.0,65.0,62.0,236.0
1.0,57.0,36.0,8.0
1.0,41.0,34.0,2.0
1.0,53.0,27.0,4.0
1.0,65.0,33.0,32.0
1.0,58.0,38.0,6.0
1.0,58.0,28.0,186.0
1.0,65.0,20.0,12.0
1.0,65.0,26.0,192.0
1.0,58.0,31.0,8.0
1.0,65.0,35.0,192.0
1.0,58.0,32.0,10.0
1.0,58.0,35.0,204.0
1.0,65.0,22.0,4.0
1.0,65.0,27.0,174.0
1.0,58.0,29.0,0.0
1.0,65.0,25.0,192.0
1.0,58.0,30.0,6.0
1.0,65.0,58.0,220.0
1.0,58.0,52.0,12.0
1.0,58.0,37.0,162.0
1.0,65.0,27.0,4.0
1.0,65.0,60.0,190.0
1.0,58.0,45.0,16.0
1.0,65.0,23.0,184.0
1.0,58.0,26.0,4.0
1.0,65.0,50.0,188.0
1.0,58.0,43.0,6.0
1.0,77.0,37.0,140.0
1.0,58.0,36.0,18.0
1.0,65.0,39.0,10.0
1.0,89.0,57.0,2.0
1.0,65.0,37.0,150.0
1.0,58.0,23.0,18.0
1.0,88.0,56.0,2.0
1.0,58.0,40.0,118.0
1.0,65.0,37.0,8.0
1.0,89.0,77.0,4.0
1.0,86.0,71.0,54.0
1.0,82.0,75.0,6.0
1.0,65.0,36.0,12.0
1.0,58.0,29.0,10.0
1.0,86.0,68.0,10.0
1.0,58.0,38.0,60.0
1.0,84.0,66.0,2.0
1.0,65.0,34.0,2.0
1.0,88.0,60.0,62.0
1.0,65.0,64.0,0.0
1.0,89.0,68.0,14.0
1.0,58.0,54.0,2.0
1.0,82.0,79.0,30.0
1.0,58.0,47.0,16.0
1.0,65.0,57.0,2.0
1.0,86.0,76.0,36.0
1.0,84.0,82.0,2.0
1.0,65.0,50.0,4.0
1.0,58.0,41.0,12.0
1.0,88.0,50.0,52.0
1.0,89.0,81.0,6.0
1.0,65.0,46.0,8.0
1.0,58.0,33.0,4.0
1.0,86.0,73.0,34.0
1.0,82.0,76.0,4.0
1.0,58.0,33.0,2.0
1.0,65.0,38.0,14.0
1.0,86.0,47.0,4.0
1.0,65.0,42.0,108.0
1.0,58.0,34.0,6.0
1.0,84.0,58.0,8.0
1.0,81.0,54.0,16.0
1.0,65.0,50.0,88.0
1.0,58.0,39.0,6.0
1.0,77.0,48.0,22.0
1.0,77.0,62.0,56.0
1.0,89.0,87.0,80.0
1.0,58.0,49.0,2.0
1.0,65.0,41.0,0.0
1.0,65.0,56.0,168.0
1.0,58.0,50.0,2.0
1.0,88.0,79.0,50.0
1.0,89.0,78.0,66.0
1.0,65.0,50.0,4.0
1.0,58.0,41.0,6.0
1.0,86.0,80.0,42.0
1.0,82.0,86.0,88.0
1.0,65.0,47.0,0.0
1.0,58.0,35.0,10.0
1.0,86.0,68.0,24.0
1.0,84.0,82.0,106.0
1.0,58.0,50.0,2.0
1.0,65.0,50.0,4.0
1.0,88.0,83.0,60.0
1.0,89.0,84.0,26.0
1.0,65.0,64.0,0.0
1.0,58.0,54.0,10.0
1.0,82.0,85.0,126.0
1.0,58.0,48.0,12.0
1.0,65.0,50.0,2.0
1.0,86.0,82.0,42.0
1.0,65.0,50.0,98.0
1.0,84.0,86.0,6.0
1.0,58.0,35.0,10.0
1.0,88.0,78.0,36.0
1.0,65.0,46.0,48.0
1.0,89.0,80.0,0.0
1.0,58.0,35.0,4.0
1.0,86.0,76.0,46.0
1.0,82.0,68.0,14.0
1.0,65.0,48.0,2.0
1.0,58.0,49.0,2.0
1.0,86.0,57.0,28.0
1.0,70.0,38.0,74.0
1.0,84.0,57.0,4.0
1.0,64.0,28.0,8.0
1.0,60.0,36.0,12.0
1.0,82.0,56.0,26.0
1.0,70.0,39.0,12.0
1.0,79.0,51.0,6.0
1.0,64.0,30.0,8.0
1.0,60.0,25.0,4.0
1.0,77.0,75.0,354.0
1.0,65.0,45.0,6.0
1.0,69.0,34.0,8.0
1.0,60.0,22.0,98.0
1.0,65.0,38.0,2.0
1.0,53.0,46.0,2.0
1.0,72.0,53.0,10.0
1.0,69.0,18.0,2.0
1.0,72.0,60.0,14.0
1.0,69.0,22.0,18.0
1.0,53.0,24.0,4.0
1.0,65.0,36.0,2.0
1.0,60.0,24.0,2.0
1.0,77.0,75.0,136.0
1.0,60.0,69.0,6.0
1.0,69.0,65.0,2.0
1.0,53.0,42.0,6.0
1.0,48.0,63.0,296.0
1.0,55.0,68.0,4.0
1.0,76.0,88.0,2.0
1.0,67.0,76.0,0.0
1.0,55.0,18.0,60.0
1.0,65.0,66.0,168.0
1.0,59.0,60.0,2.0
1.0,74.0,69.0,6.0
1.0,72.0,84.0,44.0
1.0,64.0,66.0,16.0
1.0,60.0,55.0,16.0
1.0,65.0,83.0,204.0
1.0,69.0,87.0,2.0
1.0,57.0,62.0,4.0
1.0,50.0,61.0,0.0
1.0,65.0,66.0,86.0
1.0,57.0,29.0,6.0
1.0,50.0,48.0,2.0
1.0,69.0,57.0,0.0
1.0,69.0,100.0,38.0
1.0,65.0,74.0,4.0
1.0,57.0,29.0,2.0
1.0,50.0,87.0,2.0
1.0,74.0,96.0,96.0
1.0,65.0,84.0,8.0
1.0,57.0,71.0,14.0
1.0,50.0,64.0,8.0
1.0,72.0,92.0,32.0
1.0,64.0,79.0,4.0
1.0,52.0,75.0,0.0
1.0,45.0,89.0,24.0
1.0,62.0,70.0,112.0
1.0,71.0,67.0,4.0
1.0,56.0,62.0,10.0
1.0,69.0,84.0,12.0
1.0,60.0,69.0,12.0
1.0,57.0,66.0,8.0
1.0,62.0,46.0,40.0
1.0,65.0,55.0,0.0
1.0,53.0,42.0,0.0
1.0,46.0,51.0,2.0
1.0,65.0,25.0,122.0
1.0,53.0,47.0,2.0
1.0,46.0,56.0,4.0
1.0,62.0,36.0,4.0
1.0,65.0,35.0,50.0
1.0,62.0,36.0,6.0
1.0,53.0,32.0,0.0
1.0,46.0,30.0,8.0
1.0,70.0,54.0,248.0
1.0,46.0,42.0,18.0
1.0,62.0,37.0,0.0
1.0,53.0,36.0,6.0
1.0,60.0,52.0,10.0
1.0,69.0,48.0,4.0
1.0,53.0,41.0,10.0
1.0,41.0,41.0,8.0
1.0,67.0,58.0,188.0
1.0,58.0,58.0,8.0
1.0,53.0,35.0,4.0
1.0,41.0,28.0,10.0
1.0,65.0,66.0,58.0
1.0,57.0,43.0,20.0
1.0,41.0,18.0,18.0
1.0,53.0,31.0,4.0
1.0,70.0,83.0,10.0
1.0,46.0,70.0,2.0
1.0,62.0,57.0,4.0
1.0,53.0,42.0,8.0
1.0,60.0,73.0,20.0
1.0,69.0,78.0,6.0
1.0,53.0,60.0,6.0
1.0,41.0,60.0,2.0
1.0,58.0,71.0,94.0
1.0,67.0,46.0,0.0
1.0,53.0,36.0,2.0
1.0,65.0,83.0,30.0
1.0,57.0,70.0,8.0
1.0,53.0,52.0,28.0
1.0,43.0,57.0,0.0
1.0,50.0,55.0,6.0
1.0,67.0,60.0,0.0
1.0,59.0,46.0,4.0
1.0,55.0,62.0,10.0
1.0,60.0,42.0,6.0
1.0,55.0,49.0,2.0
1.0,64.0,58.0,0.0
1.0,48.0,55.0,8.0
1.0,62.0,48.0,180.0
1.0,53.0,37.0,16.0
1.0,60.0,55.0,30.0
1.0,52.0,34.0,26.0
1.0,69.0,46.0,404.0
1.0,53.0,30.0,4.0
1.0,60.0,32.0,2.0
1.0,72.0,50.0,2.0
1.0,53.0,52.0,92.0
1.0,72.0,66.0,6.0
1.0,69.0,38.0,2.0
1.0,60.0,45.0,2.0
1.0,72.0,93.0,32.0
1.0,69.0,38.0,6.0
1.0,53.0,51.0,14.0
1.0,60.0,46.0,16.0
1.0,77.0,76.0,196.0
1.0,60.0,43.0,18.0
1.0,69.0,48.0,8.0
1.0,53.0,32.0,8.0
1.0,76.0,68.0,16.0
1.0,67.0,46.0,4.0
1.0,60.0,41.0,10.0
1.0,55.0,39.0,14.0
1.0,48.0,31.0,10.0
1.0,65.0,56.0,146.0
1.0,59.0,47.0,14.0
1.0,74.0,44.0,0.0
1.0,72.0,57.0,54.0
1.0,64.0,46.0,12.0
1.0,60.0,41.0,12.0
1.0,65.0,64.0,18.0
1.0,69.0,71.0,2.0
1.0,57.0,41.0,10.0
1.0,50.0,33.0,10.0
1.0,69.0,63.0,144.0
1.0,50.0,45.0,6.0
1.0,65.0,49.0,2.0
1.0,57.0,43.0,0.0
1.0,65.0,45.0,8.0
1.0,69.0,80.0,0.0
1.0,57.0,44.0,16.0
1.0,50.0,23.0,12.0
1.0,74.0,68.0,36.0
1.0,57.0,50.0,4.0
1.0,65.0,62.0,0.0
1.0,50.0,41.0,10.0
1.0,72.0,59.0,24.0
1.0,45.0,54.0,6.0
1.0,64.0,46.0,6.0
1.0,52.0,37.0,0.0
1.0,56.0,43.0,104.0
1.0,62.0,40.0,10.0
1.0,71.0,36.0,6.0
1.0,69.0,46.0,50.0
1.0,57.0,36.0,4.0
1.0,60.0,39.0,10.0
1.0,62.0,49.0,364.0
1.0,65.0,53.0,0.0
1.0,53.0,37.0,14.0
1.0,46.0,44.0,6.0
1.0,46.0,59.0,146.0
1.0,53.0,48.0,0.0
1.0,62.0,53.0,2.0
1.0,65.0,59.0,0.0
1.0,65.0,76.0,42.0
1.0,62.0,77.0,8.0
1.0,53.0,40.0,8.0
1.0,46.0,49.0,12.0
1.0,70.0,78.0,172.0
1.0,62.0,58.0,12.0
1.0,53.0,51.0,0.0
1.0,46.0,59.0,2.0
1.0,60.0,68.0,10.0
1.0,69.0,73.0,0.0
1.0,53.0,47.0,12.0
1.0,41.0,47.0,2.0
1.0,67.0,56.0,66.0
1.0,58.0,45.0,10.0
1.0,41.0,38.0,2.0
1.0,53.0,34.0,2.0
1.0,65.0,58.0,14.0
1.0,57.0,62.0,4.0
1.0,53.0,34.0,2.0
1.0,41.0,16.0,18.0
1.0,70.0,66.0,232.0
1.0,62.0,42.0,14.0
1.0,46.0,50.0,2.0
1.0,53.0,39.0,12.0
1.0,41.0,41.0,16.0
1.0,69.0,61.0,2.0
1.0,60.0,50.0,10.0
1.0,53.0,22.0,10.0
1.0,53.0,44.0,74.0
1.0,58.0,59.0,6.0
1.0,67.0,51.0,2.0
1.0,65.0,67.0,12.0
1.0,57.0,60.0,8.0
1.0,53.0,57.0,2.0
1.0,67.0,68.0,6.0
1.0,46.0,60.0,4.0
1.0,62.0,41.0,4.0
1.0,55.0,40.0,4.0
1.0,62.0,58.0,16.0
1.0,55.0,40.0,2.0
1.0,48.0,37.0,6.0
1.0,64.0,45.0,0.0
1.0,60.0,33.0,4.0
1.0,65.0,40.0,30.0
1.0,57.0,29.0,0.0
1.0,53.0,20.0,4.0
1.0,41.0,26.0,0.0
1.0,48.0,23.0,10.0
0.0,0.0,0.0,0.0
0.0,0.0,0.0,0.0
0.0,0.0,0.0,0.0
0.0,0.0,0.0,0.0
0.0,0.0,0.0,0.0
0.0,0.0,0.0,0.0
0.0,0.0,0.0,0.0
0.0,0.0,0.0,0.0
0.0,0.0,0.0,0.0
0.0,0.0,0.0,0.0
0.0,0.0,0.0,0.0
0.0,0.0,0.0,0.0
0.0,0.0,0.0,0.0
0.0,0.0,0.0,0.0
0.0,0.0,0.0,0.0
0.0,0.0,0.0,0.0
0.0,0.0,0.0,0.0
0.0,0.0,0.0,0.0
0.0,0.0,0.0,0.0
0.0,0.0,0.0,0.0
0.0,0.0,0.0,0.0
0.0,0.0,0.0,0.0
0.0,0.0,0.0,0.0
0.0,0.0,0.0,0.0
0.0,0.0,0.0,0.0
0.0,0.0,0.0,0.0
0.0,0.0,0.0,0.0
0.0,0.0,0.0,0.0
0.0,0.0,0.0,0.0
0.0,0.0,0.0,0.0
0.0,0.0,0.0,0.0
0.0,0.0,0.0,0.0
0.0,0.0,0.0,0.0
0.0,0.0,0.0,0.0
0.0,0.0,0.0,0.0
0.0,0.0,0.0,0.0
0.0,0.0,0.0,0.0
0.0,0.0,0.0,0.0
0.0,0.0,0.0,0.0
0.0,0.0,0.0,0.0
0.0,0.0,0.0,0.0
0.0,0.0,0.0,0.0
0.0,0.0,0.0,0.0
0.0,0.0,0.0,0.0
0.0,0.0,0.0,0.0
0.0,0.0,0.0,0.0
0.0,0.0,0.0,0.0
0.0,0.0,0.0,0.0
0.0,0.0,0.0,0.0
0.0,0.0,0.0,0.0
0.0,0.0,0.0,0.0
0.0,0.0,0.0,0.0
0.0,0.0,0.0,0.0
0.0,0.0,0.0,0.0
0.0,0.0,0.0,0.0
0.0,0.0,0.0,0.0
0.0,0.0,0.0,0.0
0.0,0.0,0.0,0.0
0.0,0.0,0.0,0.0
0.0,0.0,0.0,0.0
0.0,0.0,0.0,0.0
0.0,0.0,0.0,0.0
0.0,0.0,0.0,0.0
0.0,0.0,0.0,0.0
0.0,0.0,0.0,0.0
0.0,0.0,0.0,0.0
0.0,0.0,0.0,0.0
0.0,0.0,0.0,0.0
0.0,0.0,0.0,0.0
0.0,0.0,0.0,0.0
0.0,0.0,0.0,0.0
0.0,0.0,0.0,0.0
0.0,0.0,0.0,0.0
0.0,0.0,0.0,0.0
0.0,0.0,0.0,0.0
0.0,0.0,0.0,0.0
0.0,0.0,0.0,0.0
0.0,0.0,0.0,0.0
0.0,0.0,0.0,0.0
0.0,0.0,0.0,0.0
0.0,0.0,0.0,0.0
0.0,0.0,0.0,0.0
0.0,0.0,0.0,0.0
0.0,0.0,0.0,0.0
0.0,0.0,0.0,0.0
0.0,0.0,0.0,0.0
0.0,0.0,0.0,0.0
0.0,0.0,0.0,0.0
0.0,0.0,0.0,0.0
0.0,0.0,0.0,0.0
0.0,0.0,0.0,0.0
0.0,0.0,0.0,0.0
0.0,0.0,0.0,0.0
0.0,0.0,0.0,0.0
0.0,0.0,0.0,0.0
0.0,0.0,0.0,0.0
0.0,0.0,0.0,0.0
0.0,0.0,0.0,0.0
0.0,0.0,0.0,0.0
0.0,0.0,0.0,0.0
0.0,0.0,0.0,0.0
0.0,0.0,0.0,0.0
0.0,0.0,0.0,0.0
0.0,0.0,0.0,0.0
0.0,0.0,0.0,0.0
0.0,0.0,0.0,0.0
0.0,0.0,0.0,0.0
0.0,0.0,0.0,0.0
0.0,0.0,0.0,0.0
0.0,0.0,0.0,0.0
0.0,0.0,0.0,0.0
0.0,0.0,0.0,0.0
0.0,0.0,0.0,0.0
0.0,0.0,0.0,0.0
0.0,0.0,0.0,0.0
0.0,0.0,0.0,0.0
0.0,0.0,0.0,0.0
0.0,0.0,0.0,0.0
0.0,0.0,0.0,0.0
0.0,0.0,0.0,0.0
0.0,0.0,0.0,0.0
0.0,0.0,0.0,0.0
0.0,0.0,0.0,0.0
0.0,0.0,0.0,0.0
0.0,0.0,0.0,0.0
0.0,0.0,0.0,0.0
0.0,0.0,0.0,0.0
0.0,0.0,0.0,0.0
0.0,0.0,0.0,0.0
0.0,0.0,0.0,0.0
0.0,0.0,0.0,0.0
0.0,0.0,0.0,0.0
0.0,0.0,0.0,0.0
0.0,0.0,0.0,0.0
0.0,0.0,0.0,0.0
0.0,0.0,0.0,0.0
0.0,0.0,0.0,0.0
0.0,0.0,0.0,0.0
0.0,0.0,0.0,0.0
0.0,0.0,0.0,0.0
0.0,0.0,0.0,0.0
0.0,0.0,0.0,0.0
0.0,0.0,0.0,0.0
0.0,0.0,0.0,0.0
0.0,0.0,0.0,0.0
0.0,0.0,0.0,0.0
0.0,0.0,0.0,0.0
0.0,0.0,0.0,0.0
0.0,0.0,0.0,0.0
0.0,0.0,0.0,0.0
0.0,0.0,0.0,0.0
0.0,0.0,0.0,0.0
0.0,0.0,0.0,0.0
0.0,0.0,0.0,0.0
0.0,0.0,0.0,0.0
0.0,0.0,0.0,0.0
0.0,0.0,0.0,0.0
0.0,0.0,0.0,0.0
0.0,0.0,0.0,0.0
0.0,0.0,0.0,0.0
0.0,0.0,0.0,0.0
0.0,0.0,0.0,0.0
0.0,0.0,0.0,0.0
0.0,0.0,0.0,0.0
0.0,0.0,0.0,0.0
0.0,0.0,0.0,0.0
0.0,0.0,0.0,0.0
0.0,0.0,0.0,0.0
0.0,0.0,0.0,0.0
0.0,0.0,0.0,0.0
0.0,0.0,0.0,0.0
0.0,0.0,0.0,0.0
0.0,0.0,0.0,0.0
0.0,0.0,0.0,0.0
0.0,0.0,0.0,0.0
0.0,0.0,0.0,0.0
0.0,0.0,0.0,0.0
0.0,0.0,0.0,0.0
0.0,0.0,0.0,0.0
0.0,0.0,0.0,0.0
0.0,0.0,0.0,0.0
0.0,0.0,0.0,0.0
0.0,0.0,0.0,0.0
0.0,0.0,0.0,0.0
0.0,0.0,0.0,0.0
0.0,0.0,0.0,0.0
0.0,0.0,0.0,0.0
0.0,0.0,0.0,0.0
0.0,0.0,0.0,0.0
0.0,0.0,0.0,0.0
0.0,0.0,0.0,0.0
0.0,0.0,0.0,0.0
0.0,0.0,0.0,0.0
0.0,0.0,0.0,0.0
0.0,0.0,0.0,0.0
0.0,0.0,0.0,0.0
0.0,0.0,0.0,0.0
0.0,0.0,0.0,0.0
0.0,0.0,0.0,0.0
0.0,0.0,0.0,0.0
0.0,0.0,0.0,0.0
0.0,0.0,0.0,0.0
0.0,0.0,0.0,0.0
0.0,0.0,0.0,0.0
0.0,0.0,0.0,0.0
0.0,0.0,0.0,0.0
0.0,0.0,0.0,0.0
0.0,0.0,0.0,0.0
0.0,0.0,0.0,0.0
0.0,0.0,0.0,0.0
0.0,0.0,0.0,0.0
0.0,0.0,0.0,0.0
0.0,0.0,0.0,0.0
0.0,0.0,0.0,0.0
0.0,0.0,0.0,0.0
0.0,0.0,0.0,0.0
0.0,0.0,0.0,0.0
0.0,0.0,0.0,0.0
0.0,0.0,0.0,0.0
0.0,0.0,0.0,0.0
0.0,0.0,0.0,0.0
0.0,0.0,0.0,0.0
0.0,0.0,0.0,0.0
0.0,0.0,0.0,0.0
0.0,0.0,0.0,0.0
0.0,0.0,0.0,0.0
0.0,0.0,0.0,0.0
0.0,0.0,0.0,0.0
