track,note,velocity,time
1,79,87,964
1,78,85,64
1,74,87,84
1,71,89,24
1,66,85,48
1,59,44,8
1,47,54,4
1,62,51,0
1,71,90,260
1,59,66,8
1,64,74,0
1,43,67,4
1,55,51,8
1,73,93,0
1,61,60,0
1,71,57,0
1,67,60,0
1,52,61,0
1,40,66,0
1,70,89,288
1,49,58,0
1,42,63,0
1,54,60,0
1,66,61,0
1,61,62,0
1,58,63,0
1,54,71,360
1,66,91,0
1,52,77,0
1,40,70,0
1,61,25,0
1,58,62,0
1,71,96,28
1,59,70,4
1,50,75,8
1,66,61,0
1,38,65,24
1,73,95,128
1,61,77,0
1,66,69,0
1,46,76,8
1,34,71,0
1,74,96,92
1,62,79,0
1,47,65,4
1,66,51,4
1,35,71,12
1,76,96,128
1,64,87,0
1,71,80,8
1,67,73,0
1,59,82,8
1,55,82,0
1,52,70,0
1,47,74,4
1,78,97,172
1,66,88,4
1,74,84,0
1,71,76,8
1,54,69,0
1,59,75,4
1,47,70,0
1,50,72,4
1,81,102,560
1,76,88,8
1,69,88,4
1,71,82,0
1,59,74,8
1,47,74,4
1,52,70,0
1,55,70,8
1,79,95,432
1,61,65,4
1,67,80,0
1,47,70,8
1,55,63,8
1,52,55,0
1,76,68,8
1,71,62,4
1,47,76,36
1,54,51,16
1,78,101,16
1,66,73,4
1,74,75,12
1,71,66,4
1,62,70,4
1,83,80,104
1,79,79,220
1,78,83,84
1,74,85,88
1,71,86,12
1,66,86,40
1,47,60,24
1,59,40,0
1,62,45,16
1,71,89,236
1,59,63,0
1,64,68,0
1,43,65,0
1,55,68,0
1,73,91,312
1,61,73,0
1,40,64,0
1,67,70,0
1,52,77,0
1,71,74,0
1,74,90,336
1,62,70,8
1,66,56,4
1,71,66,4
1,47,70,4
1,35,64,0
1,65,81,396
1,56,62,12
1,62,64,4
1,47,63,12
1,35,68,4
1,54,76,124
1,66,87,0
1,61,67,8
1,45,75,4
1,33,34,28
1,68,90,96
1,61,73,8
1,56,80,0
1,41,81,0
1,29,79,4
1,61,72,80
1,69,96,4
1,42,89,4
1,57,74,0
1,30,79,4
1,71,94,108
1,59,82,4
1,66,76,0
1,38,94,12
1,26,86,8
1,73,100,152
1,61,91,4
1,69,89,8
1,66,73,4
1,37,99,4
1,25,86,8
1,61,88,748
1,73,102,4
1,68,80,8
1,66,77,0
1,37,73,4
1,49,92,8
1,73,92,16
1,61,85,8
1,68,79,0
1,49,81,4
1,65,75,8
1,37,70,0
1,73,96,36
1,61,95,0
1,70,83,8
1,66,79,4
1,54,96,8
1,42,86,0
1,75,96,224
1,63,86,0
1,66,73,8
1,47,82,4
1,35,70,0
1,69,82,0
1,71,74,8
1,83,99,372
1,71,79,8
1,72,64,468
1,71,75,0
1,67,70,88
1,64,78,8
1,59,70,40
1,52,52,412
1,55,44,16
1,40,45,0
1,64,71,216
1,55,56,0
1,48,49,0
1,36,49,0
1,60,46,0
1,52,50,0
1,66,74,280
1,45,55,0
1,33,58,0
1,64,52,0
1,54,45,0
1,60,47,32
1,63,66,296
1,51,50,16
1,47,47,4
1,54,42,4
1,35,41,4
1,42,38,0
1,59,41,4
1,51,56,236
1,59,65,4
1,45,63,4
1,47,53,8
1,64,75,112
1,52,61,4
1,59,59,8
1,43,61,8
1,47,46,4
1,66,75,136
1,39,62,4
1,54,50,4
1,47,75,0
1,59,55,8
1,47,70,116
1,67,82,8
1,39,62,0
1,55,66,4
1,48,79,96
1,69,82,56
1,57,70,0
1,64,69,4
1,40,60,60
1,71,86,48
1,55,70,0
1,67,66,8
1,59,64,4
1,64,58,4
1,39,71,32
1,40,73,40
1,43,75,16
1,47,77,8
1,74,92,100
1,62,67,0
1,69,78,0
1,52,80,0
1,64,74,0
1,51,68,4
1,52,70,60
1,57,72,4
1,72,87,72
1,64,50,0
1,60,74,0
1,60,73,0
1,71,78,96
1,67,56,8
1,59,66,4
1,64,46,16
1,76,76,216
1,64,52,8
1,60,46,52
1,72,73,20
1,59,56,4
1,71,79,4
1,55,68,60
1,67,66,0
1,52,66,4
1,64,82,4
1,48,76,4
1,60,82,8
1,52,53,52
1,58,42,4
1,36,58,12
1,41,46,148
1,57,38,0
1,53,45,0
1,77,77,24
1,65,64,0
1,74,78,0
1,62,64,0
1,72,76,92
1,60,59,0
1,69,70,4
1,57,64,0
1,65,67,8
1,53,57,0
1,61,81,76
1,49,68,0
1,53,59,8
1,37,47,16
1,59,42,12
1,58,48,32
1,42,39,0
1,54,49,0
1,78,68,12
1,30,31,0
1,74,69,0
1,42,60,0
1,73,68,0
1,49,60,0
1,70,69,4
1,54,69,0
1,66,74,0
1,58,58,0
1,62,76,64
1,59,57,4
1,50,65,12
1,79,92,16
1,30,56,0
1,76,80,12
1,42,64,0
1,74,79,28
1,50,75,0
1,71,74,4
1,55,77,0
1,67,79,4
1,59,65,0
1,63,87,60
1,51,89,0
1,60,84,0
1,80,90,4
1,30,69,0
1,76,78,0
1,42,71,0
1,75,82,40
1,51,80,0
1,56,61,16
1,72,82,4
1,68,87,16
1,60,62,0
1,64,102,60
1,52,86,0
1,61,81,0
1,81,94,8
1,30,77,0
1,78,86,4
1,42,70,0
1,76,84,48
1,52,65,0
1,73,83,40
1,57,65,0
1,69,84,24
1,61,65,0
1,70,95,80
1,61,75,0
1,64,78,0
1,54,77,0
1,82,92,12
1,30,78,0
1,42,76,28
1,78,87,0
1,49,55,4
1,76,92,0
1,73,80,72
1,54,65,0
1,64,70,8
1,70,88,0
1,82,95,24
1,70,87,8
1,74,80,4
1,62,70,0
1,65,75,12
1,53,70,0
1,81,94,88
1,69,82,0
1,79,103,76
1,67,86,4
1,77,105,72
1,65,89,8
1,70,79,4
1,50,58,20
1,38,44,20
1,75,99,96
1,67,77,12
1,72,89,0
1,51,68,16
1,39,60,8
1,75,77,72
1,74,94,48
1,63,67,4
1,69,73,12
1,53,70,12
1,41,71,8
1,72,93,60
1,74,96,40
1,69,78,8
1,62,77,4
1,58,75,8
1,46,69,8
1,57,78,16
1,45,68,28
1,55,90,48
1,43,68,20
1,74,94,140
1,62,80,4
1,67,74,12
1,46,78,16
1,34,69,0
1,72,97,200
1,63,74,8
1,68,65,4
1,48,77,24
1,36,65,4
1,72,88,96
1,70,89,32
1,60,80,0
1,66,79,0
1,50,76,8
1,38,64,8
1,69,93,184
1,55,77,80
1,67,93,0
1,58,65,8
1,61,68,0
1,52,82,16
1,46,65,0
1,49,61,0
1,40,70,8
1,54,84,4
1,55,88,36
1,58,88,32
1,61,89,20
1,66,90,112
1,67,91,64
1,70,92,64
1,73,93,32
1,52,58,0
1,58,57,0
1,61,59,20
1,78,94,44
1,67,69,20
1,79,96,88
1,91,99,20
1,90,98,64
1,53,65,4
1,56,64,0
1,58,61,16
1,62,63,0
1,89,98,8
1,68,73,24
1,88,96,52
1,87,95,32
1,86,94,40
1,86,94,8
1,80,62,20
1,77,67,4
1,84,93,48
1,79,66,8
1,75,64,0
1,82,93,76
1,74,64,0
1,77,64,0
1,80,92,68
1,75,70,0
1,72,65,4
1,70,61,12
1,79,91,0
1,74,70,4
1,77,90,24
1,68,64,4
1,72,71,0
1,75,89,56
1,67,65,0
1,70,68,4
1,74,88,36
1,68,62,16
1,65,63,0
1,72,87,16
1,63,61,4
1,67,61,8
1,62,60,52
1,70,86,0
1,65,60,8
1,68,85,24
1,63,59,4
1,60,59,0
1,67,84,24
1,58,58,0
1,62,58,0
1,56,60,4
1,65,83,0
1,62,63,8
1,55,59,36
1,53,63,40
1,51,69,24
1,65,82,8
1,56,67,0
1,50,63,0
1,59,66,0
1,47,63,12
1,44,63,24
1,39,65,12
1,38,74,0
1,58,71,0
1,34,61,48
1,33,63,16
1,34,74,12
1,66,83,104
1,63,58,16
1,46,68,8
1,63,78,44
1,54,62,12
1,46,54,4
1,60,60,16
1,62,82,48
1,53,74,4
1,46,46,0
1,61,77,4
1,64,84,28
1,57,64,12
1,53,57,4
1,33,54,0
1,62,83,8
1,65,89,32
1,59,64,8
1,53,62,0
1,32,54,8
1,64,84,28
1,70,86,156
1,64,63,4
1,61,35,0
1,31,43,12
1,69,86,100
1,81,80,212
1,29,55,12
1,69,50,0
1,74,56,4
1,33,61,52
1,34,62,8
1,35,69,8
1,36,69,0
1,37,53,24
1,38,63,20
1,82,82,0
1,39,57,0
1,40,57,4
1,81,93,8
1,41,49,12
1,42,40,28
1,79,89,24
1,43,51,8
1,44,53,24
1,45,58,24
1,77,95,4
1,46,60,4
1,76,86,20
1,47,47,8
1,69,66,0
1,48,62,32
1,49,55,28
1,74,89,4
1,50,58,36
1,51,60,12
1,77,84,16
1,52,58,100
1,76,84,8
1,53,60,0
1,54,51,12
1,74,82,28
1,70,68,4
1,55,59,4
1,56,51,28
1,69,80,28
1,57,57,12
1,58,56,8
1,59,59,24
1,67,79,12
1,60,53,16
1,61,51,96
1,65,79,20
1,62,74,64
1,64,71,100
1,74,81,4
1,31,51,12
1,81,83,60
1,62,77,156
1,33,64,0
1,34,60,20
1,65,79,0
1,35,63,20
1,64,79,16
1,36,58,8
1,37,52,40
1,62,68,4
1,38,59,44
1,82,88,16
1,39,62,16
1,81,91,32
1,40,50,0
1,41,63,44
1,79,78,12
1,42,57,12
1,43,62,24
1,77,91,32
1,44,50,0
1,45,70,32
1,46,56,40
1,76,88,8
1,70,63,0
1,47,58,0
1,74,84,44
1,48,59,4
1,49,61,16
1,77,90,24
1,50,66,0
1,51,52,32
1,76,80,24
1,52,60,12
1,53,64,20
1,74,90,20
1,54,50,4
1,72,74,4
1,55,59,12
1,56,50,44
1,70,68,4
1,57,60,16
1,58,48,36
1,69,79,8
1,59,59,12
1,67,80,4
1,60,61,4
1,61,69,92
1,81,90,152
1,67,64,0
1,74,67,12
1,33,68,4
1,66,73,104
1,34,63,4
1,35,48,36
1,69,80,0
1,36,58,4
1,67,70,20
1,37,57,8
1,38,60,8
1,66,75,4
1,39,57,24
1,82,93,40
1,40,64,12
1,81,94,36
1,41,51,0
1,42,59,16
1,79,92,20
1,43,66,8
1,44,59,36
1,78,93,24
1,45,69,12
1,46,62,16
1,78,84,12
1,75,79,4
1,47,50,16
1,48,62,8
1,74,79,36
1,49,52,4
1,50,69,32
1,51,68,8
1,77,83,4
1,52,71,4
1,75,89,28
1,53,64,0
1,54,61,28
1,78,85,20
1,55,69,4
1,74,83,4
1,56,66,4
1,72,89,16
1,57,67,4
1,58,67,100
1,78,84,68
1,70,75,8
1,59,72,4
1,60,72,4
1,69,81,20
1,61,60,4
1,62,80,12
1,79,88,80
1,67,68,4
1,75,52,12
1,63,79,0
1,39,69,60
1,58,71,100
1,55,69,8
1,70,77,44
1,67,67,12
1,46,53,4
1,65,83,12
1,56,60,8
1,63,73,48
1,55,70,16
1,46,62,16
1,72,91,0
1,75,89,4
1,39,72,16
1,70,81,0
1,67,77,44
1,63,71,8
1,75,80,52
1,79,92,4
1,58,52,12
1,72,96,56
1,68,75,20
1,70,83,76
1,67,75,8
1,82,84,52
1,79,84,0
1,58,53,0
1,51,73,0
1,77,99,0
1,75,81,20
1,70,80,12
1,91,105,128
1,87,88,0
1,58,69,4
1,87,96,108
1,82,86,8
1,79,72,8
1,82,90,52
1,79,81,4
1,75,80,4
1,75,81,88
1,70,75,0
1,79,86,4
1,75,83,108
1,67,81,8
1,70,70,0
1,70,73,52
1,67,70,4
1,63,63,4
1,67,71,140
1,63,51,0
1,58,52,0
1,56,68,212
1,37,63,12
1,57,63,4
1,69,86,32
1,64,68,8
1,52,52,0
1,45,41,12
1,67,63,8
1,65,63,4
1,38,55,24
1,64,69,0
1,71,87,8
1,68,60,8
1,62,60,0
1,45,58,8
1,65,67,12
1,73,92,12
1,61,65,8
1,69,60,8
1,45,55,4
1,33,59,4
1,64,67,16
1,69,91,8
1,57,63,12
1,37,56,4
1,45,50,0
1,67,70,44
1,65,59,12
1,38,58,16
1,64,69,8
1,68,56,4
1,71,86,0
1,53,59,12
1,62,50,4
1,61,62,32
1,60,70,20
1,40,57,12
1,62,69,28
1,60,84,12
1,72,93,0
1,48,63,4
1,55,58,0
1,70,57,56
1,69,61,36
1,41,60,8
1,67,66,8
1,74,88,4
1,65,67,8
1,72,70,4
1,48,67,4
1,57,51,4
1,69,64,12
1,64,65,28
1,44,65,8
1,65,67,12
1,76,99,8
1,64,83,0
1,52,63,4
1,62,63,4
1,59,60,0
1,74,67,52
1,73,54,16
1,45,67,8
1,70,56,12
1,49,67,12
1,57,60,36
1,79,105,8
1,69,83,8
1,76,67,0
1,64,55,12
1,70,64,28
1,50,58,8
1,57,70,20
1,77,110,12
1,69,70,12
1,74,74,4
1,65,69,0
1,70,92,400
1,58,65,4
1,45,71,8
1,33,73,0
1,69,70,72
1,65,59,0
1,64,51,56
1,67,68,4
1,69,70,48
1,65,60,8
1,70,72,24
1,61,58,8
1,64,55,4
1,55,62,4
1,67,68,28
1,57,72,100
1,58,71,28
1,57,83,8
1,69,94,0
1,45,71,4
1,33,59,0
1,67,70,32
1,64,61,12
1,65,69,52
1,62,47,4
1,67,70,32
1,64,49,16
1,70,72,76
1,57,68,4
1,62,58,8
1,53,55,0
1,69,68,24
1,65,57,8
1,55,87,100
1,57,74,28
1,55,82,8
1,67,92,0
1,33,49,12
1,45,30,8
1,65,70,8
1,62,56,24
1,61,57,36
1,64,69,20
1,62,68,40
1,67,70,44
1,61,61,0
1,58,57,12
1,52,58,4
1,64,68,4
1,53,84,80
1,55,82,44
1,53,68,112
1,65,91,0
1,45,61,12
1,33,45,8
1,64,74,0
1,61,55,8
1,62,72,32
1,59,60,8
1,64,74,24
1,61,63,4
1,67,77,20
1,59,58,8
1,56,53,4
1,65,74,8
1,62,63,4
1,61,72,4
1,45,69,8
1,64,71,12
1,58,39,148
1,55,70,8
1,52,42,4
1,62,69,12
1,65,68,24
1,64,67,28
1,61,66,32
1,64,65,28
1,45,66,8
1,57,71,4
1,58,71,24
1,55,70,60
1,58,71,0
1,52,66,0
1,62,69,56
1,65,67,20
1,64,66,48
1,61,65,40
1,64,64,28
1,57,71,52
1,45,51,8
1,58,70,16
1,55,70,8
1,58,48,8
1,52,49,16
1,62,69,108
1,65,68,16
1,64,67,48
1,61,66,52
1,64,65,16
1,57,71,56
1,45,52,8
1,58,71,8
1,55,70,32
1,58,43,0
1,52,55,16
1,62,69,80
1,65,68,20
1,64,68,48
1,61,67,44
1,64,66,0
1,57,70,124
1,45,56,4
1,58,70,12
1,55,70,48
1,58,50,4
1,52,50,4
1,62,70,40
1,65,68,28
1,64,66,32
1,57,49,80
1,61,75,4
1,65,64,24
1,69,65,20
1,67,66,20
1,64,67,28
1,69,68,0
1,72,69,12
1,70,70,44
1,67,71,28
1,74,72,32
1,77,73,4
1,33,68,16
1,76,74,0
1,73,75,16
1,77,76,28
1,81,77,12
1,79,78,4
1,76,79,24
1,81,80,116
1,84,81,96
1,82,82,96
1,64,76,12
1,79,83,8
1,86,84,44
1,89,85,8
1,69,67,12
1,88,86,20
1,85,87,24
1,73,60,20
1,89,88,28
1,93,89,16
1,79,59,8
1,91,90,24
1,88,91,28
1,93,92,132
1,96,93,32
1,95,92,4
1,94,91,36
1,91,90,20
1,88,89,12
1,84,88,84
1,83,87,64
1,82,86,28
1,79,85,28
1,76,84,8
1,72,83,100
1,71,82,64
1,70,81,28
1,67,80,16
1,64,79,40
1,61,78,32
1,60,77,32
1,59,76,12
1,58,75,20
1,57,74,24
1,56,73,4
1,55,73,24
1,52,72,60
1,49,71,40
1,47,70,16
1,44,65,8
1,47,61,4
1,45,57,12
1,38,56,340
1,54,59,132
1,62,59,28
1,78,91,100
1,57,61,24
1,54,56,0
1,66,57,32
1,45,60,4
1,54,56,24
1,62,69,28
1,79,90,24
1,57,55,24
1,54,51,152
1,78,89,76
1,66,56,0
1,76,91,0
1,50,55,0
1,54,48,8
1,62,58,92
1,74,75,80
1,57,46,12
1,54,36,16
1,66,59,8
