track,note,velocity,time
1,70,41,0
1,71,55,928
1,70,58,190
1,37,24,24
1,68,59,194
1,65,51,142
1,49,31,10
1,61,62,2
1,61,47,168
1,59,22,10
1,53,25,2
1,61,49,218
1,49,22,20
1,61,58,256
1,42,20,44
1,49,27,20
1,66,29,16
1,70,33,2
1,75,41,82
1,75,12,88
1,58,15,56
1,73,36,0
1,54,26,4
1,70,44,590
1,49,18,26
1,71,58,444
1,70,62,150
1,37,29,24
1,68,65,6
1,65,61,172
1,49,30,12
1,62,66,154
1,61,70,162
1,61,61,122
1,59,31,14
1,53,23,12
1,61,50,242
1,49,27,18
1,61,52,414
1,42,21,16
1,49,18,116
1,66,26,104
1,70,20,48
1,66,34,10
1,75,39,74
1,73,36,222
1,61,15,4
1,58,11,4
1,54,18,8
1,71,62,614
1,73,58,88
1,71,83,206
1,39,35,22
1,70,67,154
1,67,75,192
1,51,49,18
1,63,77,164
1,63,79,116
1,61,42,12
1,55,41,2
1,63,76,228
1,51,44,8
1,63,68,314
1,44,33,14
1,78,82,418
1,59,33,10
1,51,25,4
1,56,22,0
1,47,48,18
1,75,68,150
1,63,57,228
1,66,67,0
1,56,28,2
1,51,29,4
1,68,72,220
1,49,47,16
1,70,67,2
1,71,85,264
1,63,55,8
1,54,26,34
1,70,69,10
1,60,54,88
1,68,67,10
1,70,58,44
1,68,44,22
1,70,48,4
1,68,64,6
1,70,40,14
1,68,50,28
1,67,77,28
1,68,49,94
1,61,25,94
1,70,55,2
1,53,47,2
1,68,40,184
1,59,24,8
1,50,20,2
1,66,41,144
1,58,22,6
1,54,33,0
1,51,38,0
1,65,35,242
1,57,27,10
1,48,19,4
1,63,26,138
1,61,31,314
1,56,14,8
1,49,10,8
1,53,26,0
1,42,25,374
1,49,35,110
1,54,55,82
1,58,38,24
1,61,61,74
1,66,44,28
1,70,67,28
1,71,81,8
1,59,40,130
1,65,29,108
1,70,66,10
1,37,36,8
1,68,65,86
1,65,64,92
1,49,34,26
1,61,72,154
1,61,58,108
1,59,41,2
1,53,45,10
1,61,60,278
1,49,33,6
1,61,47,392
1,42,22,16
1,49,31,174
1,66,31,4
1,70,26,10
1,75,38,48
1,58,25,20
1,73,39,2
1,54,29,14
1,70,43,452
1,49,22,40
1,71,65,148
1,70,38,40
1,69,59,38
1,70,47,66
1,73,61,48
1,72,59,62
1,42,28,2
1,71,65,10
1,70,57,142
1,71,54,24
1,70,49,12
1,69,44,24
1,68,50,4
1,69,42,10
1,50,27,12
1,68,48,44
1,69,40,86
1,68,57,54
1,67,54,12
1,66,41,12
1,67,55,50
1,66,46,56
1,65,57,40
1,56,20,12
1,59,32,6
1,64,53,22
1,65,36,22
1,66,49,8
1,65,41,70
1,64,55,4
1,50,2,6
1,63,61,10
1,65,55,8
1,66,53,70
1,49,29,4
1,70,43,12
1,68,52,140
1,65,44,0
1,66,33,14
1,63,44,0
1,68,44,24
1,68,59,44
1,42,26,68
1,61,45,68
1,49,24,148
1,66,24,32
1,70,33,18
1,78,41,18
1,75,37,270
1,73,34,232
1,61,17,2
1,58,19,2
1,54,18,0
1,69,40,0
1,70,62,142
1,71,88,94
1,70,71,112
1,76,66,156
1,75,71,70
1,74,77,28
1,39,32,4
1,73,76,34
1,70,69,180
1,51,35,40
1,67,78,136
1,70,71,174
1,55,29,42
1,61,34,66
1,64,87,48
1,63,79,80
1,63,76,52
1,51,32,64
1,62,72,110
1,63,66,80
1,66,59,60
1,64,80,54
1,63,85,34
1,44,45,18
1,63,84,14
1,78,84,8
1,75,87,120
1,56,29,78
1,51,29,0
1,59,33,0
1,90,86,158
1,63,49,380
1,56,29,4
1,59,34,0
1,54,38,0
1,87,62,256
1,83,98,22
1,80,75,134
1,66,33,36
1,63,37,2
1,59,22,2
1,56,28,4
1,78,70,70
1,75,64,12
1,71,66,20
1,66,65,100
1,68,65,90
1,49,59,52
1,37,50,8
1,70,61,12
1,71,86,322
1,63,68,12
1,54,52,4
1,70,63,8
1,68,62,10
1,60,54,16
1,70,46,8
1,68,49,8
1,70,46,0
1,68,65,52
1,70,60,4
1,68,57,50
1,70,67,50
1,68,62,54
1,67,61,10
1,68,44,28
1,61,27,32
1,70,44,2
1,53,43,4
1,68,35,196
1,59,24,4
1,66,31,62
1,42,23,2
1,61,17,504
1,58,16,2
1,58,13,542
1,54,24,0
1,65,33,696
1,66,41,54
1,68,55,98
1,37,25,20
1,73,67,336
1,65,30,20
1,61,22,2
1,56,26,0
1,75,78,72
1,77,86,84
1,61,29,10
1,56,22,0
1,53,37,2
1,77,78,270
1,65,23,18
1,61,20,2
1,56,20,0
1,77,38,220
1,37,25,8
1,66,16,440
1,57,7,10
1,61,11,2
1,76,20,214
1,75,38,38
1,74,26,52
1,73,40,0
1,72,35,82
1,71,44,24
1,61,19,52
1,70,41,2
1,54,20,0
1,57,9,4
1,69,44,72
1,66,17,340
1,61,26,14
1,57,18,4
1,37,36,278
1,73,74,348
1,57,17,4
1,66,26,2
1,61,23,0
1,77,88,108
1,61,44,104
1,57,31,4
1,54,38,2
1,78,79,28
1,78,81,142
1,69,37,32
1,61,38,4
1,57,31,2
1,78,76,54
1,78,54,316
1,36,25,22
1,66,7,452
1,62,15,4
1,57,13,2
1,77,38,6
1,76,41,2
1,75,33,94
1,74,35,22
1,73,36,12
1,72,31,36
1,71,51,58
1,70,41,22
1,57,12,32
1,62,18,0
1,54,19,4
1,69,50,58
1,66,14,294
1,57,25,0
1,62,25,12
1,47,32,0
1,35,38,2
1,75,66,394
1,66,34,6
1,63,27,0
1,57,23,6
1,77,90,62
1,78,86,112
1,63,47,8
1,57,32,4
1,54,31,0
1,78,87,230
1,69,50,2
1,57,39,0
1,78,91,200
1,78,82,54
1,34,65,8
1,46,46,4
1,53,81,198
1,58,58,96
1,62,64,88
1,70,79,114
1,77,93,2
1,75,86,174
1,46,58,10
1,34,62,12
1,77,95,40
1,75,92,106
1,53,76,16
1,59,48,14
1,63,65,8
1,74,92,32
1,69,72,12
1,75,94,114
1,77,97,106
1,75,84,120
1,46,63,14
1,34,66,2
1,53,41,242
1,62,55,98
1,70,81,68
1,74,97,180
1,71,96,272
1,46,62,2
1,34,55,14
1,73,83,20
1,71,95,120
1,51,51,82
1,57,55,68
1,70,76,36
1,66,43,86
1,71,88,44
1,75,78,248
1,73,70,36
1,71,85,164
1,34,26,78
1,71,69,16
1,50,38,336
1,58,29,44
1,53,39,72
1,70,30,6
1,62,44,132
1,58,26,42
1,65,37,440
1,70,45,364
1,70,28,180
1,70,31,132
1,70,23,220
1,71,28,224
1,77,38,270
1,37,16,4
1,68,20,16
1,71,30,8
1,59,22,26
1,56,12,0
1,49,13,8
1,63,29,22
1,75,49,0
1,73,48,14
1,61,36,2
1,68,36,84
1,71,45,40
1,44,28,10
1,63,38,32
1,75,65,22
1,77,78,12
1,37,24,6
1,65,50,2
1,71,33,74
1,73,43,16
1,59,41,22
1,56,24,2
1,49,17,2
1,66,41,20
1,78,78,34
1,80,79,26
1,68,54,0
1,71,46,48
1,73,54,16
1,44,48,16
1,70,56,38
1,82,76,20
1,80,90,92
1,37,44,12
1,68,58,2
1,71,52,40
1,73,48,90
1,59,45,8
1,56,35,2
1,49,22,4
1,65,56,34
1,77,78,0
1,78,74,110
1,66,52,4
1,60,41,6
1,57,29,2
1,69,37,14
1,72,33,88
1,37,37,14
1,63,66,26
1,75,53,40
1,77,51,12
1,65,52,0
1,56,45,8
1,49,23,4
1,68,47,76
1,73,34,20
1,57,57,12
1,61,39,0
1,69,24,26
1,73,32,18
1,56,43,12
1,68,45,14
1,65,40,0
1,44,51,150
1,73,31,2
1,68,30,14
1,73,41,34
1,77,71,2
1,37,38,4
1,65,46,4
1,68,43,0
1,71,59,10
1,59,34,10
1,56,21,2
1,49,7,2
1,63,57,50
1,75,58,64
1,61,73,22
1,73,70,2
1,68,44,34
1,44,71,16
1,71,57,4
1,63,67,32
1,75,76,80
1,77,94,0
1,37,58,0
1,65,71,2
1,71,59,26
1,73,48,14
1,59,63,8
1,56,46,2
1,49,26,8
1,66,62,14
1,78,76,28
1,80,87,32
1,68,71,8
1,71,55,12
1,73,61,8
1,44,68,10
1,70,59,40
1,82,78,72
1,80,89,68
1,68,69,6
1,37,60,4
1,71,52,20
1,56,59,74
1,59,55,0
1,49,38,6
1,73,56,6
1,65,54,22
1,77,72,24
1,66,71,6
1,78,85,2
1,60,75,2
1,57,62,8
1,69,44,0
1,72,50,66
1,37,68,18
1,63,69,16
1,75,68,34
1,61,79,14
1,77,86,2
1,56,55,0
1,49,31,6
1,65,40,2
1,67,24,36
1,68,65,8
1,73,54,30
1,37,85,12
1,65,75,64
1,77,94,34
1,79,101,6
1,67,81,8
1,58,62,0
1,55,64,0
1,64,86,2
1,70,63,8
1,76,64,104
1,49,76,8
1,37,70,4
1,67,66,48
1,79,99,10
1,80,84,98
1,68,57,8
1,50,93,0
1,38,66,2
1,71,61,2
1,59,53,0
1,52,37,6
1,56,35,2
1,76,42,2
1,66,42,74
1,78,77,50
1,76,69,100
1,64,49,12
1,68,50,40
1,71,55,12
1,56,52,12
1,59,60,0
1,52,58,12
1,66,66,10
1,78,81,4
1,80,91,0
1,68,67,0
1,50,88,4
1,38,72,2
1,71,66,14
1,76,55,94
1,59,72,2
1,56,55,2
1,52,65,2
1,69,67,30
1,81,91,16
1,83,116,78
1,71,92,4
1,76,60,12
1,59,66,50
1,56,63,0
1,52,71,8
1,80,77,4
1,73,62,16
1,85,81,64
1,83,115,16
1,50,84,6
1,71,92,0
1,38,71,2
1,76,63,22
1,59,82,92
1,56,68,6
1,80,54,14
1,68,70,36
1,80,73,66
1,54,77,18
1,81,90,0
1,69,71,0
1,60,86,0
1,72,43,26
1,78,63,86
1,38,67,2
1,66,61,6
1,78,61,6
1,68,54,64
1,59,72,4
1,56,50,2
1,52,64,0
1,80,73,0
1,50,41,2
1,71,56,150
1,76,37,2
1,60,75,38
1,72,39,64
1,76,26,32
1,59,58,14
1,71,44,22
1,68,49,24
1,76,38,10
1,56,67,0
1,71,54,28
1,76,48,84
1,80,83,2
1,68,60,4
1,38,74,0
1,71,64,22
1,52,44,82
1,56,43,2
1,76,53,0
1,59,57,0
1,66,49,46
1,78,73,2
1,76,78,66
1,64,88,2
1,68,61,32
1,71,74,66
1,59,66,4
1,56,62,6
1,52,60,0
1,50,49,0
1,66,77,18
1,78,83,68
1,68,84,66
1,80,95,4
1,38,62,18
1,71,69,4
1,56,67,80
1,59,79,0
1,52,53,2
1,76,67,2
1,69,74,26
1,81,75,64
1,83,117,6
1,71,75,2
1,76,55,8
1,64,89,32
1,80,83,4
1,56,70,0
1,59,75,6
1,73,80,14
1,85,89,52
1,74,103,12
1,86,105,2
1,49,95,8
1,37,75,10
1,77,74,8
1,65,83,44
1,59,71,0
1,56,55,2
1,80,79,6
1,73,88,2
1,85,84,52
1,49,97,22
1,86,104,0
1,74,98,2
1,37,81,8
1,78,79,26
1,81,75,44
1,66,83,0
1,57,75,0
1,61,73,2
1,73,84,0
1,85,80,22
1,86,106,24
1,74,97,4
1,49,88,4
1,37,95,2
1,77,75,20
1,80,78,18
1,65,89,12
1,56,73,4
1,61,80,0
1,73,88,16
1,85,95,52
1,88,108,2
1,76,101,2
1,49,95,8
1,37,97,4
1,78,84,72
1,62,80,56
1,81,87,4
1,57,59,4
1,54,80,2
1,74,83,28
1,86,93,8
1,86,95,8
1,74,97,4
1,49,87,0
1,37,87,8
1,77,51,30
1,80,76,78
1,61,81,4
1,53,81,6
1,56,62,2
1,73,76,22
1,85,92,48
1,73,75,0
1,85,79,10
1,44,96,12
1,32,85,6
1,74,76,44
1,78,70,6
1,59,66,12
1,54,30,0
1,50,2,4
1,71,85,32
1,83,110,24
1,81,95,18
1,69,80,0
1,71,53,16
1,50,48,72
1,59,68,2
1,74,78,0
1,54,69,2
1,68,61,20
1,80,86,48
1,68,81,46
1,80,74,4
1,47,73,10
1,35,75,10
1,71,71,40
1,74,68,56
1,56,87,18
1,50,52,34
1,66,64,8
1,78,83,24
1,37,78,12
1,66,65,10
1,78,87,0
1,49,79,40
1,68,65,14
1,56,70,42
1,71,65,28
1,49,49,0
1,65,61,12
1,77,88,16
1,74,90,12
1,62,79,42
1,65,57,68
1,68,54,70
1,61,67,68
1,73,74,50
1,74,87,78
1,62,74,2
1,65,57,2
1,68,47,14
1,61,70,102
1,73,70,20
1,42,56,16
1,49,44,34
1,74,89,16
1,62,61,10
1,57,62,38
1,66,44,8
1,69,38,4
1,61,67,24
1,73,48,28
1,37,39,14
1,44,49,62
1,74,73,58
1,62,48,8
1,53,83,6
1,65,42,40
1,68,32,66
1,61,52,58
1,73,62,16
1,62,90,64
1,50,67,12
1,53,71,16
1,56,43,96
1,49,64,50
1,61,66,14
1,62,70,72
1,50,57,8
1,53,70,8
1,56,41,58
1,49,67,30
1,61,69,14
1,62,74,28
1,42,62,0
1,50,55,6
1,30,63,2
1,54,60,148
1,57,41,58
1,49,56,46
1,61,64,28
1,62,51,52
1,50,44,6
1,25,62,18
1,37,42,2
1,53,44,16
1,56,30,100
1,49,43,70
1,61,54,28
1,62,51,58
1,50,28,8
1,53,46,8
1,56,36,8
1,49,26,142
1,61,38,56
1,62,37,128
1,50,18,8
1,53,42,96
1,56,30,146
1,49,27,304
1,61,23,506
1,70,42,1496
1,70,2,154
1,71,58,82
1,37,22,274
1,70,56,6
1,68,55,22
1,65,50,356
1,49,23,6
1,61,46,2
1,61,55,56
1,59,29,8
1,53,37,2
1,61,46,238
1,49,29,14
1,61,50,232
1,42,18,18
1,49,16,22
1,66,19,14
1,70,22,8
1,75,36,76
1,58,16,150
1,54,22,4
1,73,32,2
1,70,27,358
1,49,18,36
1,71,35,14
1,70,44,26
1,69,47,26
1,70,59,20
1,73,64,70
1,72,71,52
1,71,69,20
1,42,25,8
1,80,68,20
1,71,55,4
1,70,44,14
1,79,70,24
1,70,48,90
1,69,43,48
1,78,67,52
1,69,46,10
1,68,62,64
1,50,20,8
1,77,69,20
1,68,39,58
1,67,54,34
1,76,67,4
1,67,52,6
1,66,54,2
1,75,67,12
1,66,40,68
1,56,28,16
1,59,33,24
1,65,62,8
1,74,57,108
1,73,60,30
1,72,69,58
1,71,73,34
1,70,54,60
1,69,58,10
1,68,62,6
1,67,57,12
1,66,51,64
1,65,59,44
1,49,28,12
1,66,42,30
1,65,58,56
1,63,59,42
1,65,31,82
1,66,45,90
1,70,33,106
1,68,37,2
1,65,35,64
1,66,16,0
1,63,38,46
1,68,38,26
1,68,15,136
1,42,18,6
1,61,37,108
1,49,22,168
1,66,17,12
1,70,26,2
1,73,20,40
1,70,25,56
1,78,38,12
1,75,27,324
1,61,17,208
1,73,23,16
1,58,17,2
1,54,19,38
1,71,60,20
1,73,52,88
1,71,70,250
1,39,25,12
1,70,55,48
1,67,62,206
1,51,36,28
1,63,66,60
1,63,67,58
1,61,36,14
1,55,30,10
1,63,68,98
1,51,47,8
1,44,52,110
1,32,39,4
1,63,82,2
1,78,80,200
1,75,90,84
1,90,90,224
1,59,59,2
1,56,43,4
1,51,42,2
1,63,71,274
1,59,51,10
1,56,50,4
1,54,52,0
1,94,70,176
1,92,73,72
1,90,79,24
1,87,71,64
1,66,39,52
1,56,28,12
1,63,33,12
1,59,29,4
1,83,99,6
1,82,73,124
1,80,75,28
1,78,69,24
1,75,68,30
1,71,73,72
1,66,76,86
1,37,39,44
1,68,75,48
1,70,70,56
1,49,78,6
1,71,95,224
1,63,74,16
1,54,51,10
1,70,71,154
1,68,67,2
1,60,71,12
1,70,48,54
1,68,56,8
1,70,61,58
1,68,68,0
1,70,65,12
1,68,55,48
1,67,77,36
1,68,64,60
1,61,59,48
1,70,75,4
1,53,50,6
1,53,4,48
1,68,74,70
1,59,59,8
1,49,43,134
1,75,71,38
1,66,36,8
1,58,35,2
1,73,69,16
1,73,72,98
1,63,54,30
1,71,71,276
