track,note,velocity,time
1,69,85,0
1,57,81,0
1,61,82,4
1,45,77,2
1,33,72,2
1,61,73,360
1,64,81,8
1,57,60,4
1,52,62,8
1,45,42,4
1,64,90,58
1,61,72,2
1,57,68,2
1,52,73,4
1,45,42,0
1,57,65,308
1,45,70,2
1,61,80,0
1,64,85,4
1,52,55,8
1,66,77,30
1,52,72,2
1,59,76,2
1,62,76,8
1,45,52,0
1,59,63,40
1,45,42,2
1,62,70,0
1,68,81,2
1,52,83,4
1,45,48,36
1,59,56,8
1,62,74,2
1,69,78,4
1,52,65,8
1,59,66,62
1,71,95,0
1,62,81,0
1,45,61,6
1,52,57,14
1,73,101,98
1,61,97,2
1,57,87,4
1,45,75,8
1,52,82,8
1,61,76,322
1,57,70,6
1,45,72,0
1,69,70,2
1,52,64,8
1,57,63,44
1,61,86,2
1,69,73,0
1,52,88,4
1,45,52,8
1,56,59,200
1,44,75,24
1,45,68,40
1,57,77,8
1,47,89,12
1,59,82,0
1,57,99,22
1,45,81,4
1,40,110,224
1,52,103,2
1,73,95,250
1,61,92,0
1,33,85,12
1,45,76,2
1,61,77,98
1,45,55,2
1,69,72,0
1,57,54,4
1,52,54,22
1,57,48,46
1,52,87,4
1,69,74,0
1,61,80,2
1,45,37,4
1,61,76,198
1,68,76,0
1,45,61,2
1,57,65,0
1,52,69,16
1,61,72,34
1,45,54,0
1,69,80,0
1,57,52,4
1,52,61,4
1,69,73,42
1,61,78,0
1,57,65,4
1,45,61,2
1,52,76,6
1,71,86,0
1,61,86,42
1,57,73,0
1,45,68,6
1,73,83,0
1,52,85,0
1,69,60,4
1,57,64,44
1,74,94,4
1,62,95,0
1,69,62,4
1,45,57,4
1,52,80,2
1,72,21,2
1,45,56,20
1,63,87,6
1,69,27,14
1,78,98,14
1,60,89,20
1,51,79,6
1,61,68,206
1,76,81,2
1,52,71,8
1,64,63,4
1,69,39,6
1,57,41,14
1,76,96,38
1,61,72,2
1,69,53,2
1,64,78,2
1,52,70,0
1,57,68,2
1,56,67,232
1,44,41,42
1,57,73,46
1,45,59,12
1,47,62,0
1,59,80,12
1,57,91,40
1,45,81,10
1,52,107,208
1,40,100,10
1,44,96,206
1,85,99,2
1,73,93,0
1,32,82,0
1,77,95,6
1,80,70,250
1,68,65,2
1,65,55,10
1,53,84,2
1,73,43,6
1,61,58,4
1,56,46,0
1,68,69,24
1,80,62,4
1,73,76,2
1,53,37,2
1,65,64,6
1,61,55,6
1,56,55,0
1,80,76,30
1,68,88,2
1,73,73,0
1,65,85,10
1,56,57,6
1,53,108,2
1,61,62,0
1,80,91,22
1,68,86,0
1,73,86,0
1,65,90,14
1,53,77,2
1,56,84,0
1,61,48,0
1,80,92,162
1,68,94,2
1,56,70,6
1,73,75,0
1,65,84,2
1,61,57,12
1,53,76,6
1,82,85,70
1,70,83,2
1,63,83,0
1,75,75,4
1,54,68,6
1,60,58,2
1,56,49,8
1,84,94,30
1,72,76,4
1,85,92,102
1,73,88,0
1,44,74,8
1,32,78,0
1,80,64,8
1,87,88,64
1,75,83,0
1,89,106,70
1,77,107,0
1,37,103,4
1,85,87,0
1,25,97,2
1,73,83,98
1,85,90,0
1,61,82,12
1,49,80,4
1,85,96,38
1,73,86,6
1,61,81,4
1,49,75,8
1,85,66,214
1,73,55,2
1,61,50,8
1,49,12,0
1,61,43,46
1,85,73,4
1,49,64,4
1,73,57,0
1,85,87,58
1,73,78,4
1,61,64,2
1,49,57,14
1,73,80,52
1,85,80,0
1,61,70,8
1,49,64,8
1,85,82,42
1,73,89,2
1,61,79,6
1,49,69,6
1,85,85,60
1,73,88,0
1,61,75,4
1,49,76,10
1,85,90,70
1,73,95,2
1,49,92,10
1,61,99,0
1,83,115,176
1,71,100,4
1,78,79,4
1,59,88,8
1,50,89,0
1,54,85,2
1,54,81,124
1,59,76,0
1,50,75,2
1,83,106,4
1,78,76,0
1,71,88,4
1,83,104,34
1,71,96,4
1,78,84,0
1,59,75,4
1,50,86,2
1,54,73,2
1,85,101,88
1,73,95,2
1,61,99,6
1,52,85,10
1,56,66,2
1,80,50,6
1,88,103,4
1,76,91,0
1,64,96,6
1,81,72,4
1,57,77,6
1,54,77,0
1,86,96,64
1,74,97,0
1,62,81,12
1,73,90,82
1,85,90,0
1,83,110,32
1,76,73,2
1,71,94,4
1,62,84,2
1,56,66,2
1,52,80,2
1,83,117,78
1,71,101,6
1,62,92,4
1,64,94,4
1,76,65,0
1,56,62,2
1,52,90,2
1,85,86,162
1,73,75,6
1,62,80,66
1,83,118,0
1,71,106,2
1,64,89,2
1,52,87,0
1,56,53,6
1,76,79,2
1,81,89,14
1,69,70,2
1,64,56,0
1,61,46,14
1,57,42,6
1,69,89,346
1,45,92,0
1,33,101,0
1,57,90,0
1,61,85,2
1,57,57,200
1,61,68,4
1,45,42,0
1,64,85,2
1,52,59,14
1,64,97,70
1,61,81,0
1,57,70,4
1,45,46,4
1,52,58,6
1,61,68,396
1,57,64,2
1,45,68,2
1,64,73,2
1,52,29,26
1,45,44,32
1,66,70,14
1,52,63,12
1,62,66,0
1,59,24,0
1,57,14,4
1,52,54,32
1,45,30,4
1,59,63,6
1,68,76,4
1,62,61,2
1,45,53,64
1,59,56,8
1,69,82,2
1,52,59,2
1,62,73,4
1,71,98,68
1,59,63,0
1,45,57,0
1,62,70,6
1,52,63,2
1,73,99,122
1,61,97,2
1,57,82,6
1,45,69,4
1,52,77,2
1,45,71,110
1,57,56,8
1,61,68,0
1,69,63,2
1,52,34,26
1,69,68,14
1,57,67,0
1,61,75,2
1,45,60,6
1,52,58,10
1,56,66,268
1,44,76,10
1,45,45,64
1,57,71,4
1,47,73,38
1,59,83,0
1,57,78,6
1,45,68,2
1,40,101,186
1,52,103,4
1,73,97,250
1,45,89,6
1,61,92,0
1,33,84,0
1,61,73,398
1,69,72,4
1,57,69,0
1,45,69,4
1,52,69,8
1,69,84,68
1,57,65,0
1,61,90,6
1,52,64,8
1,45,56,0
1,61,72,332
1,68,71,2
1,57,64,4
1,45,45,10
1,52,24,22
1,45,35,40
1,57,42,0
1,69,78,2
1,61,74,0
1,52,75,8
1,57,49,32
1,61,82,4
1,71,99,2
1,45,49,0
1,52,55,6
1,57,61,46
1,73,87,4
1,69,67,2
1,45,59,0
1,61,79,0
1,52,61,6
1,57,59,42
1,45,51,8
1,52,60,2
1,74,86,0
1,69,53,2
1,62,68,6
1,45,60,44
1,63,78,18
1,78,96,54
1,69,67,8
1,60,91,8
1,51,73,8
1,54,79,4
1,76,78,200
1,64,75,6
1,61,67,2
1,52,76,4
1,69,51,2
1,57,42,20
1,76,91,32
1,64,89,2
1,69,48,0
1,61,75,0
1,57,78,4
1,52,79,4
1,56,58,224
1,46,39,16
1,44,61,10
1,57,78,46
1,47,85,14
1,59,82,12
1,57,90,42
1,45,98,4
1,52,108,192
1,40,103,6
1,85,102,214
1,32,90,2
1,73,98,0
1,44,100,2
1,77,97,4
1,65,84,234
1,80,82,2
1,61,67,4
1,68,68,0
1,56,48,4
1,53,66,6
1,73,41,6
1,65,37,18
1,61,59,10
1,68,52,4
1,80,57,2
1,56,59,0
1,73,68,8
1,53,89,4
1,80,73,28
1,68,75,4
1,73,72,0
1,53,102,6
1,61,74,2
1,65,84,4
1,56,50,4
1,53,103,36
1,80,90,4
1,65,92,2
1,56,69,0
1,68,82,2
1,73,79,0
1,61,75,0
1,80,93,172
1,68,90,6
1,65,97,4
1,73,75,0
1,56,73,2
1,53,98,4
1,61,76,4
1,82,91,60
1,70,88,4
1,63,92,0
1,75,83,0
1,54,76,8
1,60,71,4
1,56,65,4
1,84,89,26
1,72,66,6
1,85,92,92
1,73,88,2
1,44,78,2
1,32,86,6
1,80,76,2
1,87,92,80
1,75,88,2
1,89,108,120
1,37,102,0
1,77,110,2
1,85,95,0
1,25,103,4
1,73,84,102
1,85,92,2
1,61,84,4
1,49,73,6
1,85,84,58
1,61,79,6
1,73,91,2
1,49,46,20
1,85,75,256
1,73,59,4
1,61,52,6
1,49,49,6
1,61,38,74
1,49,37,2
1,85,75,6
1,73,45,2
1,73,62,80
1,85,88,0
1,61,59,8
1,49,55,2
1,73,83,62
1,85,90,0
1,61,68,8
1,49,67,4
1,85,81,58
1,73,81,2
1,61,67,8
1,49,69,10
1,61,77,70
1,85,84,2
1,73,85,0
1,49,66,2
1,85,97,78
1,73,100,0
1,61,96,8
1,49,88,6
1,71,105,22
1,83,113,0
1,78,83,2
1,59,94,8
1,54,81,4
1,50,85,2
1,54,91,80
1,71,94,4
1,83,105,0
1,78,67,0
1,59,75,0
1,50,69,4
1,83,110,34
1,78,92,2
1,71,92,0
1,59,81,4
1,50,86,0
1,54,75,2
1,85,100,74
1,73,95,6
1,61,98,2
1,52,85,8
1,56,70,2
1,76,94,6
1,88,102,0
1,64,92,6
1,57,78,2
1,81,73,0
1,54,62,20
1,81,21,44
1,86,98,52
1,74,97,2
1,62,81,18
1,85,96,72
1,73,92,2
1,62,77,24
1,83,112,0
1,71,98,4
1,76,72,2
1,56,59,4
1,52,70,2
1,83,117,36
1,71,107,2
1,76,73,8
1,62,74,2
1,56,59,0
1,64,80,2
1,52,82,0
1,85,87,166
1,73,82,0
1,83,116,4
1,71,100,4
1,62,57,4
1,64,73,2
1,52,70,0
1,76,74,0
1,56,59,2
1,81,80,96
1,69,47,6
1,61,47,4
1,64,49,6
1,57,41,0
1,83,119,310
1,69,89,4
1,71,102,0
1,78,86,0
1,75,81,0
1,47,97,2
1,35,111,0
1,59,59,230
1,78,82,0
1,47,59,0
1,75,66,6
1,69,46,6
1,71,54,6
1,78,78,26
1,75,64,6
1,59,67,0
1,69,74,2
1,71,101,0
1,47,49,8
1,58,47,238
1,46,49,6
1,59,70,62
1,47,42,4
1,49,70,16
1,61,79,6
1,59,99,24
1,47,83,4
1,68,91,200
1,80,89,2
1,76,84,0
1,52,98,6
1,40,103,0
1,83,115,238
1,71,101,2
1,69,89,0
1,78,83,0
1,75,83,0
1,47,96,12
1,35,98,6
1,59,68,178
1,47,68,2
1,78,84,4
1,69,57,4
1,75,62,2
1,71,73,2
1,78,49,28
1,75,75,6
1,47,65,0
1,59,68,2
1,69,72,6
1,71,85,0
1,78,92,26
1,69,58,2
1,71,78,4
1,75,68,0
1,47,82,4
1,59,65,12
1,69,78,34
1,71,99,0
1,78,106,2
1,75,70,0
1,59,85,10
1,47,43,2
1,46,47,218
1,58,48,0
1,47,67,72
1,59,71,8
1,61,84,58
1,49,72,4
1,59,94,28
1,47,84,4
1,80,95,188
1,68,86,4
1,47,83,4
1,75,76,2
1,35,91,2
1,76,86,190
1,64,87,2
1,68,67,4
1,49,88,2
1,73,67,2
1,37,79,2
1,73,55,82
1,64,90,2
1,76,70,2
1,49,66,0
1,68,57,2
1,37,62,0
1,73,68,12
1,49,57,0
1,68,61,2
1,76,73,0
1,64,69,10
1,37,65,8
1,81,101,14
1,69,83,2
1,73,68,4
1,30,84,0
1,42,73,2
1,80,91,76
1,68,86,0
1,73,54,2
1,44,71,2
1,32,61,6
1,78,89,54
1,73,70,2
1,66,86,2
1,45,72,6
1,33,76,4
1,80,92,8
1,68,83,4
1,44,84,10
1,75,73,0
1,66,73,6
1,32,78,2
1,72,61,4
1,49,78,134
1,37,79,2
1,76,89,0
1,68,66,6
1,64,79,0
1,73,65,2
1,75,83,84
1,73,43,4
1,63,75,2
1,51,73,4
1,67,71,2
1,70,59,2
1,61,82,0
1,39,60,4
1,60,89,134
1,72,89,2
1,68,68,2
1,56,62,4
1,63,71,4
1,44,57,6
1,51,51,18
1,75,71,84
1,63,65,0
1,39,48,2
1,51,51,2
1,51,51,48
1,75,80,6
1,39,52,4
1,63,65,2
1,75,76,52
1,51,74,2
1,63,85,2
1,39,72,6
1,63,88,40
1,51,83,0
1,75,92,2
1,39,71,8
1,75,83,58
1,63,93,2
1,51,72,4
1,39,84,10
1,51,79,60
1,63,86,4
1,75,83,4
1,39,92,8
1,87,99,270
1,75,97,4
1,39,103,0
1,82,81,4
1,27,103,2
1,73,104,2
1,79,92,0
1,85,30,4
1,67,72,236
1,70,76,2
1,55,73,2
1,82,69,0
1,73,61,6
1,58,42,4
1,75,55,2
1,63,48,6
1,61,41,10
1,82,86,18
1,67,88,4
1,70,95,0
1,63,75,4
1,73,74,0
1,75,55,4
1,58,40,2
1,55,60,0
1,61,86,12
1,62,71,252
1,50,73,18
1,63,83,54
1,51,73,0
1,53,104,36
1,65,74,12
1,63,109,36
1,51,92,6
1,72,100,170
1,84,107,0
1,80,78,4
1,44,95,0
1,75,85,0
1,32,89,0
1,87,93,154
1,73,88,6
1,75,78,0
1,39,98,0
1,82,76,0
1,27,100,6
1,79,89,2
1,85,10,12
1,70,76,236
1,82,72,2
1,67,76,0
1,75,57,8
1,58,45,0
1,73,54,0
1,55,56,2
1,63,55,6
1,61,37,4
1,82,66,16
1,67,69,4
1,73,62,0
1,70,62,0
1,75,61,0
1,55,83,4
1,63,81,0
1,58,57,0
1,61,44,34
1,82,81,8
1,70,78,2
1,67,78,2
1,73,69,2
1,58,48,0
1,55,60,4
1,75,58,0
1,63,62,2
1,82,85,42
1,67,92,4
1,70,79,0
1,55,76,0
1,75,63,0
1,73,76,2
1,58,49,4
1,63,70,4
1,61,84,0
1,50,75,214
1,62,66,2
1,63,81,60
1,51,73,14
1,53,102,12
1,65,76,12
1,63,103,0
1,51,95,6
1,84,106,108
1,72,94,2
1,75,83,2
1,80,79,2
1,44,97,14
1,32,83,4
1,73,97,52
1,85,98,0
1,78,90,6
1,45,97,4
1,33,98,4
1,57,74,214
1,78,81,0
1,66,84,2
1,45,70,0
1,49,61,6
1,73,62,2
1,57,57,50
1,45,53,6
1,49,56,2
1,66,66,6
1,73,37,4
1,78,58,4
1,45,78,30
1,78,65,6
1,66,65,4
1,73,58,2
1,49,48,2
1,57,60,0
1,78,90,42
1,57,75,0
1,66,90,2
1,73,82,2
1,45,63,4
1,49,55,0
1,80,94,12
1,68,91,2
1,73,79,2
1,56,88,0
1,76,80,2
1,44,90,6
1,81,103,44
1,73,76,4
1,69,89,0
1,76,83,4
1,54,94,4
1,42,85,6
1,83,115,14
1,71,88,4
1,75,80,4
1,47,81,0
1,69,85,0
1,35,94,4
1,76,88,150
1,68,73,0
1,52,86,2
1,40,90,0
1,68,75,76
1,76,87,4
1,49,87,6
1,37,85,4
1,76,68,30
1,76,74,60
1,64,92,8
1,69,67,0
1,54,95,0
1,42,79,10
1,76,38,48
1,74,97,70
1,69,57,12
1,62,78,2
1,64,64,2
1,47,84,2
1,35,96,0
1,73,83,94
1,61,75,6
1,74,104,28
1,62,97,2
1,52,102,0
1,68,78,0
1,40,100,6
1,74,3,116
1,73,92,20
1,68,68,12
1,62,79,0
1,64,65,10
1,40,105,4
1,28,72,6
1,71,103,48
1,69,95,184
1,57,98,4
1,33,95,0
1,45,89,2
1,61,89,0
1,61,82,180
1,57,70,4
1,64,90,0
1,45,69,2
1,52,81,12
1,64,89,58
1,57,91,6
1,61,86,2
1,45,68,12
1,52,81,2
1,61,67,322
1,64,79,2
1,57,74,0
1,52,72,10
1,45,60,2
1,45,54,38
1,66,81,0
1,59,76,6
1,62,78,4
1,52,83,6
1,68,88,56
1,62,84,0
1,45,59,0
1,59,59,2
1,52,62,4
1,62,84,52
1,45,61,0
1,59,63,4
1,69,83,2
1,52,66,6
1,59,76,70
1,71,98,8
1,52,68,4
1,45,49,2
1,62,78,0
1,73,100,112
1,57,84,6
1,61,88,2
1,45,73,0
1,52,73,4
1,45,54,68
1,57,46,8
1,61,63,4
1,69,60,2
1,52,40,18
1,57,54,52
1,52,88,0
1,69,63,2
1,45,58,4
1,61,68,2
1,56,60,210
1,44,69,12
1,45,55,62
1,57,71,2
1,47,75,28
1,59,80,6
1,57,90,46
1,45,75,0
1,52,103,202
1,40,105,2
1,61,95,228
1,73,96,2
1,33,95,2
1,45,88,4
