track,note,velocity,time
1,52,39,490
1,45,34,24
1,64,45,486
1,60,26,4
1,69,32,34
1,60,25,8
1,50,36,6
1,52,67,110
1,53,70,0
1,59,31,336
1,62,45,0
1,69,39,18
1,55,38,0
1,59,33,6
1,53,56,4
1,52,63,2
1,60,34,288
1,64,45,8
1,69,23,34
1,50,40,2
1,60,21,24
1,52,45,176
1,53,37,36
1,62,25,58
1,59,17,14
1,55,40,62
1,69,30,12
1,59,12,18
1,53,54,10
1,52,48,36
1,53,50,18
1,52,9,62
1,53,43,2
1,60,39,48
1,64,47,4
1,52,51,18
1,53,57,12
1,52,47,12
1,53,62,16
1,52,47,24
1,53,60,0
1,52,50,34
1,60,33,0
1,69,52,0
1,51,57,4
1,52,70,18
1,60,71,18
1,66,49,22
1,63,41,0
1,69,49,8
1,59,50,0
1,63,41,6
1,57,78,4
1,59,64,144
1,60,53,68
1,64,44,10
1,62,28,4
1,59,62,98
1,58,64,14
1,68,37,8
1,62,42,6
1,59,58,8
1,64,59,18
1,62,20,2
1,68,21,156
1,52,29,22
1,62,14,8
1,52,63,40
1,45,58,12
1,60,34,388
1,64,55,0
1,50,56,6
1,69,34,0
1,60,37,12
1,52,71,134
1,53,75,22
1,62,55,320
1,59,39,6
1,55,51,16
1,69,36,2
1,59,24,2
1,53,58,2
1,52,65,0
1,60,37,326
1,64,52,4
1,69,28,0
1,50,35,4
1,60,32,8
1,52,52,196
1,53,49,0
1,62,40,394
1,59,29,10
1,59,17,36
1,69,32,0
1,55,31,4
1,53,41,2
1,52,37,18
1,53,46,0
1,52,33,4
1,53,58,34
1,52,52,0
1,60,36,26
1,64,53,10
1,53,63,10
1,52,59,24
1,53,52,6
1,52,63,0
1,51,58,10
1,60,37,0
1,69,40,2
1,52,72,0
1,60,79,232
1,66,51,352
1,63,47,4
1,59,40,38
1,69,47,0
1,63,33,4
1,57,64,8
1,59,61,140
1,64,56,368
1,62,36,16
1,68,28,36
1,62,29,6
1,60,30,4
1,59,25,24
1,69,27,2
1,60,27,2
1,57,15,18
1,64,44,308
1,76,60,28
1,45,49,18
1,60,35,340
1,69,60,0
1,52,28,18
1,60,50,222
1,52,46,18
1,71,42,118
1,47,48,10
1,69,65,258
1,62,41,16
1,52,48,14
1,68,83,222
1,62,37,30
1,52,43,6
1,77,97,18
1,47,42,8
1,71,75,198
1,56,39,0
1,62,23,4
1,53,39,6
1,62,55,190
1,56,46,2
1,53,50,12
1,72,73,50
1,48,65,110
1,71,82,116
1,65,63,16
1,57,57,2
1,53,30,42
1,69,97,200
1,65,66,10
1,53,38,20
1,57,44,4
1,81,95,8
1,49,44,10
1,65,37,262
1,57,43,20
1,55,30,12
1,79,85,32
1,79,74,82
1,64,47,16
1,57,25,32
1,55,26,14
1,77,89,64
1,76,88,38
1,50,44,2
1,79,85,18
1,77,87,12
1,64,53,122
1,69,90,6
1,53,37,12
1,57,32,8
1,71,84,18
1,62,49,116
1,72,98,4
1,53,40,18
1,57,31,0
1,74,90,128
1,76,86,6
1,53,46,8
1,74,87,0
1,62,64,16
1,57,46,20
1,69,83,86
1,72,76,106
1,62,40,8
1,71,65,138
1,69,71,30
1,71,62,14
1,52,36,10
1,69,80,4
1,68,73,124
1,71,66,12
1,56,35,6
1,72,91,102
1,74,86,130
1,75,77,82
1,76,85,26
1,79,67,20
1,77,69,136
1,75,55,166
1,45,37,34
1,76,67,92
1,63,52,30
1,60,34,36
1,52,24,14
1,64,63,8
1,72,69,6
1,71,61,178
1,60,41,12
1,52,37,14
1,69,82,8
1,71,61,64
1,69,74,36
1,47,22,0
1,68,59,26
1,62,30,18
1,52,40,32
1,68,50,122
1,62,37,30
1,52,34,34
1,65,78,0
1,47,44,32
1,77,92,184
1,56,44,12
1,62,43,2
1,70,85,4
1,53,34,4
1,71,80,118
1,72,92,70
1,71,62,4
1,56,48,6
1,62,44,4
1,53,29,28
1,74,91,10
1,72,95,24
1,71,85,26
1,48,59,4
1,69,75,152
1,65,72,0
1,57,61,8
1,53,48,26
1,69,91,96
1,65,81,6
1,57,41,24
1,49,60,370
1,81,97,0
1,64,54,92
1,57,46,20
1,55,35,10
1,79,91,24
1,77,94,168
1,64,61,4
1,57,53,12
1,55,34,20
1,76,100,40
1,79,94,144
1,81,89,4
1,50,57,6
1,62,49,24
1,53,57,10
1,57,50,12
1,77,96,24
1,76,92,64
1,62,57,4
1,57,51,0
1,53,43,0
1,74,101,0
1,52,79,30
1,77,91,20
1,81,94,8
1,67,62,162
1,61,51,18
1,57,55,4
1,76,99,62
1,67,63,76
1,74,95,6
1,57,47,2
1,61,53,0
1,73,95,28
1,53,67,10
1,81,92,26
1,76,88,6
1,74,83,6
1,76,81,14
1,74,89,44
1,73,88,30
1,69,44,6
1,57,34,8
1,62,41,16
1,74,89,138
1,76,84,94
1,77,78,0
1,44,39,26
1,76,65,4
1,62,33,242
1,59,26,8
1,52,36,26
1,74,56,36
1,72,70,184
1,62,41,4
1,59,31,16
1,52,33,2
1,71,57,58
1,45,57,32
1,74,58,2
1,76,68,8
1,60,49,160
1,52,38,10
1,57,41,4
1,72,80,64
1,71,54,8
1,60,43,8
1,52,42,8
1,57,40,4
1,69,70,24
1,40,57,8
1,72,51,8
1,76,59,0
1,56,36,238
1,62,31,8
1,52,16,20
1,64,50,56
1,62,27,26
1,72,54,2
1,52,25,10
1,56,30,6
1,71,41,136
1,45,45,20
1,69,40,4
1,60,18,390
1,57,17,32
1,52,20,12
1,69,60,0
1,69,49,114
1,47,17,4
1,71,59,4
1,69,51,16
1,67,76,186
1,65,37,34
1,71,73,122
1,55,49,12
1,74,87,60
1,57,55,6
1,77,94,40
1,55,60,14
1,81,82,42
1,48,54,2
1,76,44,178
1,79,66,6
1,64,23,20
1,55,21,14
1,79,50,84
1,76,34,28
1,55,27,36
1,67,53,168
1,69,66,24
1,67,80,38
1,43,37,28
1,66,67,108
1,50,50,6
1,65,71,2
1,55,50,6
1,76,72,48
1,57,54,10
1,74,74,84
1,59,39,12
1,48,56,38
1,65,65,2
1,72,52,124
1,64,43,4
1,60,33,2
1,55,35,4
1,72,66,16
1,60,25,10
1,64,36,4
1,57,36,20
1,65,67,38
1,67,73,36
1,40,58,8
1,65,67,4
1,62,58,0
1,64,75,2
1,68,82,172
1,52,65,0
1,71,81,44
1,53,72,0
1,74,89,2
1,52,76,0
1,45,61,60
1,77,83,0
1,60,43,134
1,72,59,0
1,76,71,16
1,57,27,16
1,52,24,10
1,72,57,16
1,76,77,10
1,60,41,2
1,57,24,2
1,52,17,16
1,64,63,142
1,65,60,36
1,40,46,36
1,64,59,4
1,63,51,44
1,47,39,6
1,52,54,4
1,62,55,6
1,72,64,36
1,54,45,4
1,71,47,2
1,56,47,0
1,62,43,80
1,45,44,6
1,69,29,2
1,60,38,4
1,57,23,12
1,52,28,10
1,60,74,160
1,69,80,4
1,53,38,14
1,50,33,6
1,43,42,12
1,59,62,24
1,69,84,72
1,71,69,8
1,69,68,44
1,65,64,208
1,67,78,20
1,71,79,0
1,55,78,8
1,74,98,74
1,57,74,4
1,77,98,80
1,55,63,16
1,81,96,26
1,48,59,12
1,79,81,170
1,76,53,6
1,64,41,8
1,55,34,12
1,79,76,178
1,76,51,10
1,64,44,8
1,55,41,2
1,67,87,152
1,69,75,20
1,67,90,32
1,43,37,16
1,66,86,8
1,50,57,16
1,65,85,22
1,55,63,6
1,76,88,24
1,57,67,4
1,74,94,70
1,59,47,18
1,48,66,30
1,65,73,0
1,55,41,0
1,60,39,2
1,64,52,4
1,72,63,4
1,72,71,16
1,57,36,8
1,64,50,4
1,60,36,6
1,65,56,0
1,67,80,28
1,65,72,6
1,40,62,6
1,64,75,2
1,62,53,4
1,68,78,18
1,52,50,18
1,53,59,74
1,71,72,2
1,74,84,60
1,52,61,2
1,45,60,46
1,77,81,6
1,76,75,216
1,72,48,10
1,60,20,2
1,52,38,10
1,57,22,30
1,60,29,180
1,76,61,4
1,72,52,4
1,52,28,14
1,57,7,0
1,64,53,190
1,65,81,32
1,40,59,36
1,64,78,10
1,63,74,160
1,47,47,2
1,62,72,4
1,56,57,8
1,72,79,0
1,71,74,40
1,62,67,130
1,69,87,10
1,68,78,50
1,77,75,252
1,71,36,16
1,76,70,6
1,75,66,138
1,74,79,14
1,73,79,28
1,45,46,32
1,61,40,292
1,52,22,48
1,61,42,218
1,55,22,36
1,52,26,0
1,71,69,176
1,50,43,0
1,54,50,36
1,62,50,8
1,69,81,6
1,62,50,4
1,54,37,6
1,59,34,16
1,68,74,44
1,69,79,6
1,52,65,38
1,68,88,0
1,67,87,14
1,62,43,10
1,59,44,8
1,68,78,134
1,53,61,18
1,69,79,2
1,71,67,0
1,54,47,54
1,69,73,2
1,57,45,356
1,61,44,4
1,61,42,0
1,57,43,14
1,71,74,112
1,52,64,4
1,56,46,256
1,59,47,0
1,64,61,6
1,50,73,38
1,73,89,0
1,49,65,8
1,56,67,96
1,65,61,16
1,59,43,28
1,66,57,148
1,57,53,14
1,54,42,10
1,69,94,20
1,66,83,44
1,50,59,14
1,68,85,4
1,66,87,6
1,59,37,196
1,62,49,4
1,54,42,0
1,65,82,6
1,66,82,26
1,76,69,0
1,47,42,10
1,74,69,32
1,71,61,26
1,52,41,10
1,66,41,186
1,56,39,20
1,62,37,8
1,72,58,270
1,56,28,2
1,64,19,24
1,62,19,6
1,73,51,6
1,45,38,32
1,61,23,246
1,57,22,22
1,52,21,20
1,52,35,238
1,61,36,2
1,57,15,36
1,71,51,222
1,50,34,8
1,54,40,88
1,59,41,10
1,69,67,200
1,54,36,4
1,59,34,10
1,68,68,54
1,69,62,22
1,68,79,30
1,52,49,0
1,67,78,254
1,62,40,10
1,59,33,12
1,68,72,22
1,69,73,120
1,59,25,2
1,62,40,2
1,71,59,6
1,69,69,2
1,53,55,16
1,60,47,246
1,57,47,12
1,51,44,88
1,64,52,44
1,52,36,6
1,69,73,26
1,71,67,58
1,61,48,16
1,69,46,18
1,73,81,8
1,74,92,52
1,76,94,10
1,78,90,40
1,86,89,0
1,85,79,38
1,76,81,24
1,73,70,10
1,81,76,4
1,40,44,62
1,78,69,46
1,69,64,38
1,66,58,12
1,62,27,26
1,56,30,2
1,52,15,40
1,74,59,26
1,73,58,4
1,56,30,16
1,62,23,0
1,52,13,4
1,64,47,52
1,61,37,10
1,69,42,4
1,45,36,30
1,52,14,204
1,57,18,42
1,64,28,114
1,60,57,78
1,72,51,154
1,45,37,14
1,52,16,332
1,60,14,0
1,57,20,10
1,60,25,274
1,52,22,14
1,57,14,12
1,70,54,174
1,50,41,32
1,58,43,172
1,62,36,12
1,53,42,0
1,69,77,170
1,62,29,4
1,58,45,2
1,53,30,0
1,68,66,66
1,69,66,18
1,68,80,38
1,52,47,2
1,67,62,52
1,62,36,8
1,59,33,2
1,68,61,16
1,69,43,10
1,59,17,12
1,62,26,2
1,71,41,2
1,69,48,40
1,53,39,14
1,60,34,298
1,57,27,14
1,60,34,8
1,57,27,4
1,52,36,276
1,71,61,0
1,64,50,122
1,56,43,2
1,59,33,14
1,50,75,102
1,72,84,206
1,48,58,22
1,64,50,236
1,57,47,22
1,52,35,26
1,69,81,142
1,52,50,2
1,64,30,18
1,57,36,10
1,65,42,10
1,67,79,28
1,50,53,14
1,62,32,8
1,58,47,2
1,53,48,18
1,64,58,110
1,65,72,6
1,58,40,146
1,62,27,24
1,53,36,10
1,76,72,28
1,74,65,68
1,71,50,46
1,52,39,0
1,65,37,194
1,56,31,16
1,62,12,58
1,56,18,256
1,64,19,4
1,62,5,4
1,72,63,172
1,45,35,20
1,60,28,236
1,57,21,16
1,52,22,16
1,60,32,212
1,52,25,10
1,57,30,20
1,70,59,248
1,50,42,20
1,58,49,204
1,53,39,4
1,69,82,136
1,58,47,10
1,53,32,4
1,68,62,4
1,52,50,32
1,69,76,10
1,68,71,30
1,67,63,272
1,59,32,8
1,62,29,6
1,68,70,28
1,69,62,140
1,62,33,8
1,59,14,8
1,71,51,24
1,53,45,8
1,69,54,8
1,57,45,178
1,60,38,18
1,51,33,52
1,64,45,4
1,52,35,38
1,69,58,78
1,69,37,102
1,71,54,2
1,60,31,30
1,72,81,22
1,74,81,58
1,76,88,14
1,77,81,36
1,86,68,94
1,84,61,70
1,76,50,92
1,72,57,22
1,81,62,44
1,40,26,12
1,77,66,4
1,69,57,64
1,62,36,34
1,65,45,6
1,56,30,0
1,52,33,12
1,74,50,88
1,72,49,184
1,56,26,4
1,62,28,0
1,52,20,28
1,64,38,50
1,69,41,46
1,45,34,18
1,60,19,16
1,57,29,62
1,52,21,34
1,52,2,134
1,64,54,34
1,76,56,4
1,45,39,12
1,60,36,330
1,69,51,2
1,52,30,18
1,60,40,254
1,52,36,14
1,71,41,4
1,47,60,16
1,69,82,172
1,62,36,20
1,52,41,4
1,68,89,166
1,62,57,22
1,52,57,2
1,77,95,248
1,47,43,16
1,62,41,184
1,56,40,4
1,71,72,2
1,53,31,8
1,62,63,158
1,56,50,12
1,53,45,4
1,72,70,78
1,48,83,96
1,71,88,100
1,65,78,4
1,57,60,12
1,53,63,0
1,69,101,212
1,65,64,4
1,57,57,8
1,53,41,0
1,49,70,228
1,81,95,26
1,65,72,116
1,55,55,18
1,57,41,14
1,79,92,150
1,79,85,96
1,64,78,16
1,55,42,24
1,57,51,4
1,77,95,72
1,76,97,14
1,79,93,88
1,50,74,8
1,77,94,144
1,64,81,114
1,57,51,16
1,69,89,0
1,53,34,4
1,71,87,6
1,72,94,122
1,62,62,14
1,53,42,24
1,57,37,12
1,74,97,28
1,76,87,72
1,53,43,6
1,74,88,68
1,57,47,0
1,62,68,18
1,69,79,92
1,62,38,2
1,72,75,0
1,71,57,14
1,69,54,40
1,71,73,34
1,52,42,14
1,69,53,14
1,68,75,126
1,56,40,108
1,71,67,24
1,72,83,134
1,74,83,94
1,75,70,96
1,76,73,26
1,79,55,10
1,77,64,152
1,75,52,176
1,45,34,20
1,76,54,20
1,63,44,76
1,52,30,22
1,60,21,8
1,64,53,30
1,72,63,14
1,71,50,170
1,60,37,22
1,52,30,2
1,69,71,16
1,71,55,120
1,69,71,22
1,47,28,6
1,68,67,84
1,62,42,16
1,52,44,0
1,68,50,144
1,62,35,18
1,52,35,16
1,65,55,34
1,47,2,32
1,77,76,20
1,70,81,16
1,62,21,8
1,56,36,0
1,53,30,14
1,71,66,26
1,72,84,96
1,71,59,6
1,62,36,12
1,56,40,2
1,53,33,40
1,74,91,0
1,72,95,96
1,71,81,12
1,48,56,10
1,69,85,140
1,65,60,4
1,57,52,4
1,53,42,22
1,65,66,98
1,69,83,2
1,53,35,24
1,57,35,8
1,49,44,350
1,81,92,0
1,64,64,106
1,57,48,12
1,55,32,16
1,79,89,70
1,77,94,168
1,64,48,18
1,55,31,16
1,57,25,6
1,76,94,42
1,50,61,166
1,81,86,0
1,79,80,4
1,53,43,76
1,62,45,2
1,57,49,12
1,77,91,70
1,76,94,30
1,62,64,4
1,53,38,14
1,57,58,8
1,74,90,74
1,52,74,38
1,77,87,0
1,81,88,6
1,67,69,158
1,61,49,16
1,57,57,2
1,76,91,12
1,67,67,28
1,74,89,4
1,61,53,0
1,57,43,4
1,73,88,8
1,53,54,14
1,81,76,6
1,76,79,8
1,74,71,10
1,76,70,26
1,74,91,30
1,69,32,48
1,57,41,4
1,62,38,14
1,73,85,12
1,74,86,18
1,76,74,0
1,77,75,16
1,44,35,6
1,76,58,2
1,62,28,276
1,59,25,4
1,52,34,20
1,74,51,62
1,72,52,6
1,62,21,20
1,52,23,20
1,59,11,20
1,71,45,18
1,74,41,20
1,76,50,2
1,45,39,4
1,60,35,184
1,57,21,16
1,52,27,4
1,72,64,62
1,60,39,54
1,71,38,6
1,57,37,4
1,52,32,12
1,69,54,96
1,40,39,14
1,72,45,8
1,76,55,4
1,62,18,248
1,56,28,4
1,52,24,0
1,64,40,82
1,62,25,20
1,52,19,4
