track,note,velocity,time
1,67,54,4
1,69,54,52
1,67,54,24
1,67,54,32
1,67,54,80
1,74,54,36
1,67,54,80
1,74,54,32
1,76,54,52
1,74,54,24
1,74,54,28
1,76,54,44
1,78,54,16
1,79,54,36
1,67,54,84
1,76,54,416
1,66,54,36
1,67,54,52
1,66,54,20
1,66,54,36
1,72,54,80
1,72,54,36
1,71,54,84
1,71,54,416
1,69,54,36
1,71,54,52
1,69,54,20
1,69,54,32
1,69,54,76
1,76,54,36
1,69,54,84
1,76,54,32
1,67,54,76
1,66,54,36
1,69,54,84
1,74,54,36
1,79,54,84
1,78,54,36
1,79,54,48
1,76,54,12
1,74,54,36
1,69,54,84
1,74,54,32
1,76,54,48
1,73,54,12
1,74,54,36
1,67,54,240
1,69,54,44
1,67,54,20
1,67,54,32
1,67,54,80
1,74,54,36
1,67,54,88
1,74,54,32
1,76,54,44
1,74,54,16
1,74,54,32
1,76,54,52
1,78,54,16
1,79,54,32
1,67,54,80
1,76,54,420
1,66,54,32
1,67,54,44
1,66,54,16
1,66,54,32
1,72,54,88
1,72,54,32
1,71,54,80
1,71,54,420
1,69,54,32
1,71,54,44
1,69,54,16
1,69,54,32
1,69,54,88
1,76,54,28
1,69,54,80
1,76,54,36
1,67,54,88
1,66,54,28
1,69,54,80
1,74,54,36
1,79,54,80
1,78,54,36
1,79,54,52
1,76,54,24
1,74,54,32
1,69,54,80
1,74,54,36
1,76,54,52
1,73,54,20
1,74,54,32
1,74,54,248
1,76,54,44
1,74,54,12
1,74,54,36
1,76,54,84
1,77,54,36
1,77,54,84
1,76,54,32
1,74,54,44
1,72,54,12
1,74,54,36
1,72,54,48
1,71,54,16
1,72,54,36
1,71,54,48
1,69,54,12
1,69,54,32
1,72,54,116
1,74,54,52
1,72,54,12
1,72,54,32
1,74,54,80
1,75,54,32
1,75,54,84
1,74,54,32
1,72,54,52
1,71,54,16
1,72,54,36
1,71,54,44
1,69,54,16
1,71,54,32
1,69,54,52
1,67,54,24
1,67,54,32
1,74,54,116
1,76,54,52
1,74,54,16
1,74,54,32
1,74,54,80
1,79,54,36
1,67,54,88
1,67,54,32
1,74,54,80
1,79,54,32
1,67,54,88
1,67,54,32
1,69,54,44
1,67,54,16
1,79,54,36
1,67,54,88
1,67,54,32
1,69,54,44
1,67,54,16
1,79,54,36
1,74,54,84
1,71,54,32
1,72,54,44
1,69,54,16
1,67,54,36
1,74,54,240
1,76,54,52
1,74,54,24
1,74,54,32
1,76,54,80
1,77,54,36
1,77,54,80
1,76,54,36
1,74,54,52
1,72,54,20
1,74,54,36
1,72,54,44
1,71,54,12
1,72,54,36
1,71,54,52
1,69,54,20
1,69,54,36
1,72,54,112
1,74,54,52
1,72,54,20
1,72,54,32
1,74,54,76
1,75,54,32
1,75,54,76
1,74,54,36
1,72,54,48
1,71,54,20
1,72,54,32
1,71,54,52
1,69,54,12
1,71,54,36
1,69,54,48
1,67,54,20
1,67,54,32
1,74,54,108
1,76,54,44
1,74,54,20
1,74,54,32
1,74,54,80
1,79,54,36
1,67,54,80
1,67,54,32
1,74,54,88
1,79,54,32
1,67,54,80
1,67,54,36
1,69,54,52
1,67,54,16
1,79,54,32
1,67,54,80
1,67,54,32
1,69,54,52
1,67,54,24
1,79,54,32
1,74,54,80
1,71,54,32
1,72,54,52
1,69,54,24
1,67,54,32
2,55,40,16
2,59,40,0
2,62,40,0
2,55,40,88
2,59,40,0
2,62,40,0
2,55,40,32
2,59,40,4
2,62,40,0
2,55,40,84
2,59,40,0
2,62,40,0
2,55,40,36
2,59,40,0
2,62,40,0
2,55,40,80
2,59,40,8
2,62,40,0
2,55,40,24
2,59,40,12
2,62,40,4
2,55,40,84
2,59,40,0
2,62,40,0
2,54,40,36
2,57,40,0
2,62,40,0
2,54,40,88
2,57,40,0
2,62,40,0
2,54,40,28
2,57,40,4
2,62,40,0
2,54,40,84
2,57,40,0
2,62,40,0
2,55,40,36
2,59,40,0
2,64,40,0
2,55,40,88
2,59,40,0
2,64,40,0
2,55,40,16
2,60,40,12
2,64,40,4
2,55,40,88
2,60,40,0
2,64,40,0
2,54,40,36
2,60,40,0
2,62,40,0
2,54,40,88
2,60,40,0
2,62,40,0
2,54,40,32
2,60,40,0
2,62,40,0
2,54,40,80
2,60,40,4
2,62,40,0
2,55,40,36
2,59,40,0
2,62,40,0
2,55,40,88
2,59,40,0
2,62,40,0
2,55,40,24
2,59,40,8
2,62,40,0
2,55,40,88
2,59,40,0
2,62,40,0
2,57,40,36
2,60,40,0
2,64,40,0
2,57,40,88
2,60,40,0
2,64,40,0
2,57,40,36
2,60,40,0
2,64,40,0
2,57,40,80
2,60,40,4
2,64,40,0
2,57,40,36
2,60,40,0
2,64,40,0
2,57,40,88
2,60,40,0
2,64,40,0
2,57,40,32
2,60,40,0
2,64,40,0
2,57,40,80
2,60,40,4
2,64,40,0
2,54,40,36
2,57,40,0
2,62,40,0
2,54,40,88
2,57,40,0
2,62,40,0
2,54,40,32
2,57,40,0
2,62,40,0
2,54,40,76
2,57,40,8
2,62,40,4
2,55,40,28
2,59,40,8
2,64,40,4
2,55,40,88
2,59,40,0
2,64,40,0
2,55,40,32
2,57,40,0
2,61,40,0
2,55,40,84
2,57,40,4
2,61,40,0
2,54,40,36
2,57,40,4
2,62,40,0
2,54,40,88
2,57,40,0
2,62,40,0
2,54,40,32
2,57,40,0
2,62,40,0
2,55,40,84
2,57,40,4
2,61,40,0
2,54,40,32
2,57,40,4
2,62,40,0
2,55,40,240
2,59,40,4
2,62,40,0
2,55,40,84
2,59,40,0
2,62,40,0
2,55,40,36
2,59,40,0
2,62,40,0
2,55,40,84
2,59,40,4
2,62,40,0
2,55,40,32
2,59,40,4
2,62,40,0
2,55,40,72
2,59,40,12
2,62,40,0
2,55,40,24
2,59,40,12
2,62,40,0
2,55,40,88
2,59,40,0
2,62,40,0
2,54,40,36
2,57,40,4
2,62,40,0
2,54,40,84
2,57,40,0
2,62,40,0
2,54,40,36
2,57,40,0
2,62,40,0
2,54,40,84
2,57,40,4
2,62,40,0
2,55,40,36
2,59,40,4
2,64,40,0
2,55,40,84
2,59,40,0
2,64,40,0
2,55,40,24
2,60,40,12
2,64,40,0
2,55,40,88
2,60,40,0
2,64,40,0
2,54,40,36
2,60,40,4
2,62,40,0
2,54,40,84
2,60,40,0
2,62,40,0
2,54,40,36
2,60,40,0
2,62,40,0
2,54,40,88
2,60,40,0
2,62,40,0
2,55,40,36
2,59,40,4
2,62,40,0
2,55,40,84
2,59,40,0
2,62,40,0
2,55,40,24
2,59,40,12
2,62,40,0
2,55,40,88
2,59,40,0
2,62,40,0
2,57,40,36
2,60,40,4
2,64,40,0
2,57,40,88
2,60,40,0
2,64,40,0
2,57,40,36
2,60,40,0
2,64,40,0
2,57,40,88
2,60,40,0
2,64,40,0
2,57,40,32
2,60,40,4
2,64,40,0
2,57,40,84
2,60,40,0
2,64,40,0
2,57,40,36
2,60,40,0
2,64,40,0
2,57,40,88
2,60,40,0
2,64,40,0
2,54,40,32
2,57,40,4
2,62,40,0
2,54,40,84
2,57,40,0
2,62,40,0
2,54,40,36
2,57,40,0
2,62,40,0
2,54,40,76
2,57,40,12
2,62,40,0
2,55,40,28
2,59,40,8
2,64,40,0
2,55,40,80
2,59,40,4
2,64,40,0
2,55,40,36
2,57,40,0
2,61,40,0
2,55,40,88
2,57,40,0
2,61,40,0
2,54,40,36
2,57,40,0
2,62,40,0
2,54,40,80
2,57,40,4
2,62,40,0
2,54,40,36
2,57,40,0
2,62,40,0
2,55,40,88
2,57,40,0
2,61,40,0
2,54,40,36
2,57,40,0
2,62,40,0
2,54,40,248
2,59,40,0
2,62,40,0
2,54,40,84
2,59,40,4
2,62,40,0
2,54,40,32
2,59,40,4
2,62,40,0
2,54,40,88
2,59,40,0
2,62,40,0
2,53,40,32
2,56,40,0
2,59,40,0
2,62,40,0
2,53,40,68
2,56,40,12
2,59,40,4
2,62,40,0
2,53,40,28
2,56,40,8
2,59,40,4
2,62,40,0
2,53,40,84
2,56,40,0
2,59,40,0
2,62,40,0
2,57,40,32
2,60,40,0
2,64,40,0
2,57,40,84
2,60,40,4
2,64,40,0
2,57,40,36
2,62,40,4
2,65,40,0
2,56,40,92
2,62,40,0
2,64,40,0
2,57,40,32
2,60,40,0
2,64,40,0
2,57,40,84
2,60,40,4
2,64,40,0
2,57,40,32
2,60,40,4
2,64,40,0
2,57,40,80
2,60,40,12
2,64,40,0
2,57,40,36
2,60,40,0
2,64,40,0
2,57,40,84
2,60,40,4
2,64,40,0
2,57,40,36
2,60,40,4
2,64,40,0
2,57,40,84
2,60,40,0
2,64,40,0
2,54,40,36
2,57,40,0
2,60,40,0
2,63,40,0
2,54,40,68
2,57,40,12
2,60,40,4
2,63,40,0
2,54,40,24
2,57,40,8
2,60,40,4
2,63,40,0
2,54,40,84
2,57,40,0
2,60,40,0
2,63,40,0
2,55,40,32
2,59,40,0
2,62,40,0
2,55,40,84
2,59,40,4
2,62,40,0
2,55,40,32
2,60,40,4
2,64,40,0
2,54,40,84
2,60,40,0
2,62,40,0
2,55,40,36
2,59,40,0
2,62,40,0
2,55,40,88
2,59,40,0
2,62,40,0
2,55,40,32
2,59,40,4
2,62,40,0
2,55,40,72
2,59,40,12
2,62,40,0
2,55,40,40
2,59,40,0
2,62,40,0
2,55,40,84
2,59,40,4
2,62,40,0
2,54,40,36
2,57,40,4
2,62,40,0
2,54,40,84
2,57,40,0
2,62,40,0
2,55,40,36
2,59,40,0
2,64,40,0
2,55,40,84
2,59,40,0
2,64,40,0
2,55,40,36
2,59,40,4
2,64,40,0
2,55,40,84
2,59,40,0
2,64,40,0
2,55,40,36
2,60,40,0
2,64,40,0
2,55,40,88
2,60,40,0
2,64,40,0
2,55,40,36
2,59,40,4
2,62,40,0
2,55,40,88
2,59,40,0
2,62,40,0
2,55,40,36
2,60,40,0
2,64,40,0
2,55,40,88
2,60,40,0
2,64,40,0
2,55,40,36
2,59,40,4
2,62,40,0
2,55,40,88
2,59,40,0
2,62,40,0
2,55,40,36
2,59,40,0
2,62,40,0
2,55,40,88
2,59,40,0
2,62,40,0
2,55,40,36
2,59,40,4
2,62,40,0
2,54,40,88
2,60,40,0
2,62,40,0
2,55,40,36
2,59,40,0
2,62,40,0
2,54,40,240
2,59,40,0
2,62,40,0
2,54,40,88
2,59,40,0
2,62,40,0
2,54,40,36
2,59,40,0
2,62,40,0
2,54,40,80
2,59,40,4
2,62,40,0
2,53,40,36
2,56,40,0
2,59,40,0
2,62,40,0
2,53,40,76
2,56,40,12
2,59,40,0
2,62,40,0
2,53,40,24
2,56,40,8
2,59,40,0
2,62,40,0
2,53,40,76
2,56,40,4
2,59,40,0
2,62,40,0
2,57,40,36
2,60,40,0
2,64,40,0
2,57,40,92
2,60,40,0
2,64,40,0
2,57,40,36
2,62,40,0
2,65,40,0
2,56,40,84
2,62,40,4
2,64,40,0
2,57,40,32
2,60,40,4
2,64,40,0
2,57,40,92
2,60,40,0
2,64,40,0
2,57,40,32
2,60,40,0
2,64,40,0
2,57,40,76
2,60,40,8
2,64,40,4
2,57,40,36
2,60,40,4
2,64,40,0
2,57,40,92
2,60,40,0
2,64,40,0
2,57,40,36
2,60,40,0
2,64,40,0
2,57,40,80
2,60,40,4
2,64,40,0
2,54,40,32
2,57,40,4
2,60,40,0
2,63,40,0
2,54,40,76
2,57,40,12
2,60,40,0
2,63,40,0
2,54,40,28
2,57,40,8
2,60,40,0
2,63,40,0
2,54,40,80
2,57,40,4
2,60,40,0
2,63,40,0
2,55,40,32
2,59,40,4
2,62,40,0
2,55,40,92
2,59,40,0
2,62,40,0
2,55,40,36
2,60,40,0
2,64,40,0
2,54,40,84
2,60,40,4
2,62,40,0
2,55,40,36
2,59,40,0
2,62,40,0
2,55,40,84
2,59,40,0
2,62,40,0
2,55,40,36
2,59,40,0
2,62,40,0
2,55,40,72
2,59,40,12
2,62,40,4
2,55,40,36
2,59,40,4
2,62,40,0
2,55,40,92
2,59,40,0
2,62,40,0
2,54,40,36
2,57,40,0
2,62,40,0
2,54,40,80
2,57,40,4
2,62,40,0
2,55,40,32
2,59,40,4
2,64,40,0
2,55,40,84
2,59,40,0
2,64,40,0
2,55,40,36
2,59,40,0
2,64,40,0
2,55,40,84
2,59,40,0
2,64,40,0
2,55,40,32
2,60,40,4
2,64,40,0
2,55,40,84
2,60,40,0
2,64,40,0
2,55,40,36
2,59,40,0
2,62,40,0
2,55,40,84
2,59,40,4
2,62,40,0
2,55,40,32
2,60,40,4
2,64,40,0
2,55,40,84
2,60,40,0
2,64,40,0
2,55,40,36
2,59,40,0
2,62,40,0
2,55,40,88
2,59,40,0
2,62,40,0
2,55,40,36
2,59,40,4
2,62,40,0
2,55,40,84
2,59,40,0
2,62,40,0
2,55,40,36
2,59,40,0
2,62,40,0
2,54,40,88
2,60,40,0
2,62,40,0
2,55,40,36
2,59,40,4
2,62,40,0
3,43,40,16
3,43,40,84
3,43,40,36
3,43,40,80
3,43,40,32
3,43,40,84
3,43,40,36
3,43,40,80
3,42,40,32
3,42,40,84
3,42,40,32
3,42,40,84
3,40,40,32
3,40,40,84
3,40,40,32
3,40,40,84
3,38,40,32
3,38,40,88
3,38,40,32
3,38,40,80
3,43,40,32
3,43,40,84
3,43,40,32
3,43,40,84
3,48,40,32
3,48,40,88
3,48,40,32
3,48,40,80
3,36,40,32
3,36,40,84
3,36,40,32
3,36,40,80
3,38,40,32
3,38,40,84
3,42,40,32
3,42,40,84
3,43,40,36
3,43,40,84
3,45,40,32
3,45,40,84
3,38,40,36
3,38,40,84
3,45,40,32
3,45,40,84
3,38,40,36
3,43,40,240
3,43,40,80
3,43,40,32
3,43,40,84
3,43,40,36
3,43,40,80
3,43,40,32
3,43,40,84
3,42,40,36
3,42,40,80
3,42,40,32
3,42,40,84
3,40,40,36
3,40,40,80
3,40,40,32
3,40,40,84
3,38,40,36
3,38,40,80
3,38,40,32
3,38,40,84
3,43,40,36
3,43,40,80
3,43,40,32
3,43,40,84
3,48,40,36
3,48,40,84
3,48,40,32
3,48,40,84
3,36,40,32
3,36,40,80
3,36,40,32
3,36,40,84
3,38,40,32
3,38,40,80
3,42,40,32
3,42,40,84
3,43,40,36
3,43,40,80
3,45,40,32
3,45,40,88
3,38,40,32
3,38,40,80
3,45,40,32
3,45,40,88
3,38,40,32
3,47,40,244
3,47,40,84
3,45,40,32
3,45,40,84
3,44,40,32
3,44,40,80
3,44,40,36
3,44,40,80
3,45,40,32
3,45,40,84
3,38,40,36
3,40,40,88
3,45,40,32
3,45,40,84
3,45,40,32
3,45,40,88
3,45,40,32
3,45,40,84
3,43,40,36
3,43,40,80
3,42,40,32
3,42,40,84
3,42,40,32
3,42,40,80
3,43,40,32
3,43,40,84
3,36,40,36
3,38,40,80
3,43,40,32
3,43,40,84
3,43,40,36
3,43,40,80
3,43,40,36
3,43,40,84
3,42,40,36
3,42,40,80
3,40,40,32
3,40,40,84
3,38,40,36
3,38,40,80
3,36,40,32
3,36,40,84
3,47,40,36
3,47,40,84
3,45,40,32
3,45,40,84
3,43,40,36
3,43,40,84
3,38,40,32
3,38,40,84
3,38,40,36
3,38,40,84
3,43,40,32
3,47,40,240
3,47,40,88
3,45,40,32
3,45,40,80
3,44,40,32
3,44,40,84
3,44,40,32
3,44,40,80
3,45,40,32
3,45,40,88
3,38,40,32
3,40,40,84
3,45,40,36
3,45,40,88
3,45,40,32
3,45,40,84
3,45,40,36
3,45,40,88
3,43,40,32
3,43,40,80
3,42,40,36
3,42,40,84
3,42,40,32
3,42,40,80
3,43,40,32
3,43,40,88
3,36,40,32
3,38,40,84
3,43,40,36
3,43,40,80
3,43,40,32
3,43,40,84
3,43,40,36
3,43,40,88
3,42,40,32
3,42,40,84
3,40,40,36
3,40,40,80
3,38,40,32
3,38,40,84
3,36,40,36
3,36,40,80
3,47,40,36
