track,note,velocity,time
1,37,30,384
1,56,34,520
1,65,22,396
1,61,30,8
1,66,33,10
1,60,27,16
1,56,28,112
1,37,36,900
1,56,38,278
1,61,26,432
1,65,20,6
1,66,29,316
1,60,31,8
1,56,25,178
1,77,57,1106
1,37,25,8
1,56,31,374
1,61,22,436
1,65,31,10
1,75,58,304
1,66,26,6
1,60,19,28
1,80,60,22
1,56,29,40
1,77,79,290
1,75,66,280
1,37,23,4
1,77,74,244
1,56,41,44
1,73,72,314
1,61,30,44
1,65,28,16
1,70,65,240
1,66,22,38
1,63,23,16
1,72,66,192
1,56,26,42
1,75,43,126
1,68,50,330
1,37,25,14
1,73,59,70
1,56,35,8
1,61,24,502
1,65,29,6
1,75,64,314
1,66,31,8
1,60,24,8
1,78,73,38
1,56,31,16
1,82,82,182
1,80,56,354
1,37,37,22
1,78,44,244
1,56,37,20
1,77,59,310
1,61,21,24
1,65,21,6
1,75,35,240
1,66,29,38
1,60,15,20
1,73,29,162
1,56,26,34
1,75,47,302
1,72,18,38
1,77,74,402
1,73,49,2
1,37,26,8
1,56,29,348
1,72,60,0
1,70,54,30
1,61,23,20
1,65,20,12
1,75,66,240
1,72,51,18
1,66,31,8
1,63,24,18
1,70,50,22
1,80,68,4
1,56,30,36
1,77,78,6
1,68,42,12
1,75,64,244
1,70,45,8
1,37,28,16
1,77,64,266
1,56,29,30
1,65,29,10
1,73,60,250
1,68,34,14
1,65,32,30
1,61,22,2
1,70,70,56
1,63,16,42
1,72,62,252
1,67,33,26
1,56,24,22
1,75,48,50
1,66,40,8
1,68,44,310
1,37,25,26
1,65,42,24
1,73,39,274
1,56,27,8
1,63,46,16
1,61,40,162
1,65,41,2
1,73,66,106
1,66,25,216
1,75,70,4
1,63,32,20
1,72,72,70
1,78,75,188
1,56,33,6
1,70,66,8
1,82,95,38
1,68,43,18
1,78,69,150
1,80,79,202
1,37,26,6
1,77,65,18
1,85,64,70
1,56,43,20
1,56,2,114
1,75,48,2
1,82,83,120
1,77,38,16
1,61,25,8
1,65,29,0
1,73,54,14
1,78,78,146
1,66,36,16
1,60,30,12
1,74,57,30
1,84,81,18
1,75,34,4
1,56,30,4
1,68,51,152
1,80,52,164
1,76,47,14
1,68,24,58
1,80,44,270
1,37,28,0
1,77,48,14
1,68,42,16
1,56,31,90
1,65,29,28
1,61,22,4
1,66,28,270
1,75,27,6
1,80,30,2
1,60,20,10
1,68,40,48
1,80,53,2
1,56,20,28
1,68,50,48
1,80,63,104
1,77,49,32
1,68,34,44
1,80,67,250
1,37,30,6
1,75,45,4
1,68,43,8
1,80,59,116
1,56,49,10
1,77,63,4
1,68,50,22
1,80,76,134
1,73,64,6
1,61,38,12
1,65,44,10
1,68,43,42
1,80,67,24
1,70,65,8
1,63,26,12
1,66,33,8
1,68,54,10
1,80,53,166
1,72,61,4
1,56,29,16
1,68,42,24
1,80,53,18
1,75,41,18
1,68,41,32
1,80,56,132
1,37,24,24
1,68,52,6
1,80,66,156
1,72,63,12
1,56,38,22
1,68,36,8
1,80,73,172
1,73,68,0
1,65,43,20
1,61,37,6
1,68,64,16
1,80,62,200
1,66,35,4
1,74,73,2
1,60,32,26
1,68,52,20
1,80,83,114
1,56,43,14
1,75,53,8
1,68,63,32
1,80,75,28
1,76,75,6
1,68,56,50
1,80,77,130
1,37,27,12
1,77,75,2
1,68,68,16
1,82,88,152
1,77,68,28
1,56,41,6
1,68,83,12
1,79,91,222
1,77,78,16
1,61,38,10
1,65,40,6
1,68,66,10
1,80,81,156
1,66,34,24
1,78,46,6
1,60,20,2
1,68,52,20
1,82,94,124
1,78,53,28
1,56,29,12
1,68,54,60
1,78,45,8
1,79,57,2
1,68,11,134
1,37,21,130
1,77,49,48
1,80,50,90
1,82,52,14
1,80,31,12
1,82,54,14
1,80,52,10
1,82,55,20
1,56,17,46
1,80,54,28
1,82,68,16
1,80,61,8
1,82,72,14
1,80,70,6
1,82,84,8
1,80,62,52
1,82,97,12
1,80,69,54
1,61,28,22
1,65,27,4
1,79,84,2
1,80,90,114
1,85,85,36
1,82,99,104
1,66,26,38
1,63,24,32
1,77,88,34
1,78,77,52
1,84,79,12
1,80,76,94
1,76,70,18
1,56,29,10
1,77,72,18
1,82,72,92
1,78,55,82
1,74,57,38
1,75,48,42
1,80,64,110
1,77,67,78
1,72,56,44
1,37,32,4
1,73,49,92
1,78,53,24
1,75,58,80
1,71,43,32
1,56,38,4
1,72,65,122
1,77,54,8
1,73,57,6
1,65,39,48
1,61,33,4
1,69,45,2
1,70,50,8
1,75,52,26
1,72,62,68
1,66,39,24
1,67,52,2
1,63,29,18
1,68,61,72
1,72,63,26
1,70,76,88
1,67,54,34
1,56,38,0
1,68,62,20
1,70,75,8
1,72,69,22
1,73,67,12
1,75,74,98
1,77,85,8
1,78,75,110
1,37,42,8
1,79,81,40
1,80,72,4
1,81,84,4
1,83,69,8
1,56,39,84
1,82,79,28
1,84,81,0
1,83,70,22
1,85,74,22
1,84,88,10
1,61,33,14
1,65,40,4
1,86,81,12
1,85,79,8
1,87,79,88
1,60,31,118
1,86,85,0
1,66,42,4
1,88,75,0
1,87,75,52
1,89,80,2
1,56,37,22
1,88,72,10
1,90,59,6
1,89,59,52
1,91,58,46
1,90,60,52
1,92,40,76
1,91,58,68
1,94,30,56
1,37,29,124
1,92,34,18
1,101,51,184
1,99,42,68
1,97,33,34
1,56,36,44
1,89,49,22
1,97,59,2
1,96,57,6
1,94,68,30
1,61,30,38
1,65,33,6
1,85,66,4
1,94,64,20
1,92,63,12
1,90,55,36
1,82,68,46
1,66,30,4
1,60,25,24
1,90,59,84
1,89,59,4
1,87,50,56
1,56,32,80
1,78,41,4
1,87,52,36
1,85,54,22
1,84,58,50
1,75,54,82
1,84,73,50
1,82,70,70
1,80,72,144
1,80,84,132
1,77,71,6
1,37,24,14
1,85,62,264
1,89,85,2
1,56,42,0
1,65,35,396
1,61,31,2
1,78,67,44
1,82,85,0
1,66,29,232
1,87,59,0
1,63,23,10
1,84,55,0
1,80,58,18
1,77,63,0
1,85,55,16
1,82,51,6
1,75,36,34
1,56,32,2
1,78,37,18
1,84,47,46
1,80,43,4
1,73,57,50
1,77,16,50
1,82,68,16
1,78,54,2
1,75,48,24
1,72,35,18
1,77,61,34
1,80,41,6
1,70,62,30
1,73,44,14
1,75,48,42
1,78,34,4
1,68,52,20
1,72,48,28
1,37,28,20
1,77,65,4
1,73,56,10
1,56,35,148
1,68,41,192
1,72,64,8
1,73,62,40
1,77,75,2
1,61,34,10
1,65,38,12
1,70,78,22
1,68,58,4
1,77,66,2
1,73,56,0
1,63,38,4
1,66,33,10
1,70,51,10
1,77,57,112
1,73,35,10
1,56,29,96
1,66,32,4
1,70,37,12
1,73,35,96
1,77,24,6
1,66,38,64
1,70,54,0
1,75,35,14
1,72,50,16
1,70,48,6
1,66,26,24
1,68,43,26
1,37,24,6
1,65,34,14
1,69,49,12
1,66,35,16
1,70,57,18
1,67,42,6
1,71,43,34
1,56,37,18
1,68,35,2
1,72,41,50
1,69,34,2
1,73,54,16
1,70,39,22
1,74,57,26
1,65,35,16
1,61,33,8
1,71,39,2
1,75,64,34
1,72,46,18
1,73,60,46
1,76,67,8
1,77,63,18
1,66,34,2
1,60,22,2
1,74,50,4
1,78,65,34
1,75,55,2
1,79,65,92
1,76,39,2
1,80,66,18
1,77,43,30
1,56,37,4
1,78,46,8
1,81,54,6
1,82,66,16
1,79,38,12
1,80,48,34
1,83,52,0
1,84,55,20
1,81,40,18
1,85,55,38
1,82,55,4
1,86,49,4
1,37,20,8
1,83,36,4
1,87,55,24
1,84,49,6
1,85,54,28
1,88,47,18
1,56,49,78
1,89,49,2
1,86,22,22
1,90,54,40
1,87,44,4
1,91,57,74
1,88,58,4
1,92,50,34
1,89,63,0
1,61,34,14
1,65,39,6
1,94,76,44
1,90,62,0
1,89,72,30
1,92,77,0
1,90,59,18
1,94,73,4
1,66,41,10
1,60,25,4
1,87,59,6
1,92,69,0
1,94,66,88
1,90,25,20
1,85,51,82
1,92,55,2
1,56,35,14
1,94,57,106
1,90,44,8
1,92,57,92
1,84,43,26
1,94,45,80
1,90,30,8
1,82,51,8
1,92,23,36
1,90,38,122
1,94,45,2
1,37,28,2
1,92,43,8
1,89,25,6
1,80,35,6
1,97,32,14
1,56,37,302
1,97,43,282
1,61,21,8
1,65,34,2
1,89,39,8
1,80,49,88
1,90,59,242
1,80,42,8
1,66,31,0
1,60,27,6
1,96,65,74
1,90,53,236
1,84,44,22
1,56,31,10
1,75,55,80
1,87,64,18
1,78,38,6
1,94,62,114
1,37,38,12
1,94,79,10
1,85,53,6
1,76,47,82
1,56,43,222
1,85,66,4
1,77,59,2
1,92,65,106
1,89,69,200
1,80,55,2
1,65,38,14
1,61,28,12
1,73,65,22
1,73,75,146
1,66,40,2
1,80,60,8
1,63,35,8
1,89,85,82
1,56,35,232
1,87,73,10
1,80,54,16
1,72,60,96
1,68,62,80
1,78,45,8
1,84,68,88
1,37,28,194
1,80,44,12
1,75,44,2
1,65,49,32
1,73,45,108
1,65,43,8
1,56,35,6
1,80,69,66
1,85,66,212
1,77,76,12
1,65,40,12
1,61,34,0
1,68,62,74
1,60,36,8
1,68,82,32
1,66,46,8
1,78,60,2
1,87,89,62
1,90,75,242
1,56,39,2
1,84,69,8
1,75,66,86
1,78,76,22
1,87,76,4
1,94,85,106
1,37,42,6
1,94,91,14
1,85,73,6
1,76,70,78
1,85,70,278
1,77,75,2
1,56,44,18
1,92,72,114
1,65,48,186
1,97,69,4
1,61,35,4
1,89,74,2
1,80,64,44
1,66,38,28
1,80,77,0
1,90,57,6
1,60,30,4
1,99,59,0
1,56,31,310
1,92,50,8
1,84,47,96
1,87,57,256
1,78,50,6
1,96,5,84
1,85,43,196
1,77,30,2
1,37,31,20
1,97,59,106
1,56,36,414
1,96,57,54
1,93,14,4
1,96,72,134
1,93,40,10
1,92,53,68
1,95,56,0
1,65,26,36
1,61,22,6
1,94,78,26
1,91,36,6
1,94,83,106
1,91,36,10
1,90,57,104
1,93,63,6
1,66,33,6
1,60,13,26
1,92,63,0
1,89,53,2
1,92,66,108
1,89,53,4
1,91,65,0
1,88,59,0
1,56,42,10
1,87,61,12
1,90,73,2
1,90,72,118
1,87,64,8
1,89,79,94
1,86,69,10
1,85,73,32
1,88,77,6
1,88,83,110
1,85,76,2
1,37,33,86
1,87,85,0
1,84,74,10
1,86,69,44
1,83,41,12
1,83,48,102
1,86,65,8
1,56,38,32
1,85,72,2
1,82,48,4
1,84,69,22
1,81,62,4
1,81,62,94
1,84,57,2
1,80,66,32
1,83,55,10
1,61,28,26
1,65,32,2
1,82,83,30
1,79,51,4
1,82,92,112
1,79,59,0
1,78,59,90
1,81,76,4
1,66,40,6
1,60,30,8
1,80,62,14
1,77,66,0
1,80,55,112
1,77,51,4
1,79,53,52
1,76,53,6
1,56,28,20
1,75,58,70
1,78,57,10
1,78,62,112
1,75,51,16
1,77,78,16
1,73,59,4
1,75,71,88
1,72,56,24
1,76,79,20
1,70,63,6
1,37,26,172
1,68,62,44
1,78,61,36
1,75,43,6
1,73,50,18
1,77,59,6
1,56,35,48
1,68,61,4
1,77,67,28
1,73,57,6
1,75,69,24
1,72,59,18
1,68,65,36
1,61,43,20
1,65,42,12
1,75,78,0
1,72,68,12
1,77,85,6
1,73,70,0
1,60,20,16
1,66,39,42
1,68,69,14
1,80,81,188
1,77,70,16
1,78,66,12
1,75,43,16
1,68,62,90
1,56,39,2
1,78,72,82
1,75,65,0
1,77,75,14
1,74,55,8
1,68,68,36
1,77,88,78
1,74,76,2
1,78,76,2
1,75,71,2
1,68,76,48
1,37,50,10
1,78,78,8
1,75,75,2
1,79,87,2
1,76,84,12
1,68,75,64
1,56,50,18
1,79,85,58
1,76,67,12
1,80,77,26
1,77,81,14
1,65,41,42
1,68,70,2
1,61,32,10
1,80,74,54
1,77,63,2
1,81,79,64
1,78,47,2
1,60,31,88
1,68,62,6
1,66,38,2
1,81,72,50
1,78,60,8
1,80,65,4
1,77,38,4
1,68,57,88
1,56,33,32
1,80,58,66
1,77,54,18
1,79,53,110
1,76,15,12
1,68,47,10
1,79,55,116
1,76,39,8
1,78,49,46
1,75,35,22
1,37,25,102
1,77,58,16
1,68,32,12
1,73,37,4
1,80,64,130
1,73,48,0
1,77,41,42
1,85,65,178
1,80,47,6
1,77,48,12
1,56,30,4
1,87,65,134
1,78,40,4
1,80,51,10
1,89,63,124
1,80,49,8
1,85,58,12
1,65,26,4
1,61,22,4
1,90,62,8
1,82,53,4
1,85,48,2
1,89,52,38
1,66,27,16
1,80,32,4
1,84,24,8
1,63,25,10
1,78,41,48
1,87,55,2
1,84,14,26
1,75,33,222
1,84,47,4
1,78,34,18
1,56,27,26
1,82,58,172
1,73,41,2
1,78,37,10
1,80,67,72
1,78,38,16
1,72,45,0
1,82,74,50
1,73,64,0
1,78,43,10
1,75,52,120
1,78,58,4
1,82,66,0
1,80,49,204
1,75,40,0
1,77,47,12
1,37,25,6
1,80,55,136
1,73,45,0
1,77,55,6
1,85,75,116
1,77,71,6
1,82,60,4
1,56,41,8
1,85,79,108
1,80,58,12
1,77,65,2
1,90,70,96
1,80,66,0
1,85,48,4
1,80,65,132
1,85,54,4
1,89,64,0
1,61,30,12
1,65,34,2
1,92,75,112
1,80,68,0
1,85,41,4
1,97,79,86
1,92,56,12
1,85,49,4
1,97,59,192
1,87,52,2
1,92,41,6
1,63,30,2
1,66,32,0
1,96,55,38
1,92,48,4
1,87,22,2
1,94,34,136
1,85,51,2
1,87,11,6
1,56,29,100
1,92,59,8
1,87,30,4
1,84,23,0
1,87,65,138
1,82,45,6
1,78,26,4
1,80,52,138
1,89,66,4
1,84,51,2
1,84,70,176
1,75,39,8
1,78,18,2
1,82,57,62
1,78,22,8
1,73,23,2
1,78,33,110
1,80,57,0
1,72,23,2
1,68,29,174
1,37,33,12
1,80,54,22
1,72,50,124
1,70,67,20
1,70,57,70
1,56,38,4
1,80,64,40
1,73,62,14
1,72,49,82
1,72,75,64
1,65,33,6
1,61,28,14
1,80,58,74
1,75,50,40
1,73,53,26
1,63,26,90
1,66,27,2
1,70,58,6
1,80,56,4
1,73,52,18
1,72,50,64
1,72,77,60
1,56,34,36
1,80,62,68
1,75,65,26
1,73,62,6
1,73,70,52
1,80,68,18
1,77,74,106
1,75,64,88
1,73,62,58
1,37,40,0
1,82,85,84
1,77,76,38
1,76,85,2
1,56,48,72
1,75,71,8
1,84,89,16
1,78,79,100
1,77,87,80
1,76,80,38
1,61,45,6
1,65,44,4
1,85,81,8
1,79,81,54
1,78,75,74
1,77,79,20
1,60,34,14
1,66,43,6
1,86,72,78
1,80,64,0
1,79,71,16
1,78,48,58
1,56,41,38
1,87,66,42
1,81,66,14
1,80,64,0
1,79,73,30
1,88,66,64
1,82,75,6
1,81,68,148
1,37,28,60
1,89,82,76
1,80,60,10
1,56,42,266
1,82,62,60
1,90,60,10
1,82,37,92
1,80,59,18
1,89,78,44
1,80,47,6
1,61,23,16
1,65,29,4
1,82,66,12
1,90,64,28
1,82,55,64
1,77,72,22
1,85,61,40
1,77,59,44
1,66,40,40
1,80,72,14
1,60,28,4
1,89,40,34
1,80,50,44
1,78,42,4
1,87,64,22
1,78,55,10
1,80,60,8
1,56,36,10
1,89,72,20
1,80,33,54
1,75,70,54
1,84,68,10
1,75,43,10
1,78,66,8
1,87,74,22
1,78,57,76
1,77,63,4
1,85,73,12
1,77,56,60
1,37,30,36
1,78,62,8
1,87,72,18
1,78,41,2
1,73,37,6
1,82,69,6
1,73,61,6
1,77,57,34
1,56,39,16
1,85,60,22
1,77,63,78
1,84,52,14
1,75,50,14
1,77,71,12
1,61,32,12
1,65,29,20
1,85,69,2
1,77,40,24
1,72,58,24
1,80,64,32
1,72,40,34
1,75,59,22
1,63,25,36
1,66,28,2
1,84,62,38
1,75,37,62
