track,note,velocity,time
1,67,54,184
1,67,64,296
1,64,52,4
1,48,27,8
1,36,33,6
1,72,80,0
1,64,72,2
1,68,79,64
1,65,68,6
1,65,83,54
1,74,95,0
1,56,86,80
1,65,72,4
1,62,59,2
1,62,85,14
1,71,44,20
1,62,59,66
1,59,72,4
1,55,75,22
1,67,83,62
1,59,42,0
1,63,73,66
1,60,67,4
1,54,58,4
1,69,67,64
1,60,81,0
1,68,59,38
1,62,72,4
1,53,75,4
1,62,46,62
1,71,65,4
1,36,73,18
1,67,76,0
1,64,49,6
1,72,67,4
1,64,25,8
1,68,75,46
1,65,50,4
1,48,81,10
1,74,90,46
1,65,89,4
1,65,16,84
1,56,91,4
1,62,75,2
1,62,72,42
1,71,65,10
1,62,59,70
1,55,89,6
1,59,26,2
1,59,45,58
1,67,74,2
1,54,77,64
1,60,63,0
1,63,72,2
1,69,80,52
1,60,87,2
1,62,66,54
1,68,65,2
1,53,88,0
1,71,70,18
1,62,81,2
1,52,98,0
1,64,63,4
1,67,73,0
1,72,81,34
1,64,94,2
1,65,81,60
1,71,66,4
1,50,88,6
1,65,89,40
1,74,92,4
1,70,91,6
1,49,83,2
1,67,68,4
1,67,94,24
1,76,83,6
1,76,76,6
1,70,94,6
1,61,81,4
1,70,99,32
1,79,89,10
1,62,83,14
1,50,74,0
1,74,89,4
1,69,79,4
1,69,93,42
1,77,89,2
1,69,71,20
1,67,74,4
1,61,78,4
1,52,74,4
1,67,65,0
1,76,73,8
1,52,78,62
1,61,78,2
1,67,80,0
1,69,46,2
1,67,72,44
1,76,87,2
1,53,73,10
1,62,77,0
1,65,46,4
1,69,54,4
1,74,78,4
1,65,66,10
1,54,57,52
1,69,76,2
1,63,78,4
1,72,72,42
1,63,72,2
1,64,85,44
1,67,64,8
1,55,71,6
1,64,71,54
1,72,85,0
1,66,54,24
1,63,67,4
1,43,61,12
1,72,46,34
1,63,59,6
1,65,45,18
1,62,75,2
1,55,73,6
1,62,47,12
1,71,48,0
1,36,72,24
1,67,68,12
1,64,47,2
1,48,67,6
1,72,68,58
1,64,65,2
1,68,70,82
1,65,62,6
1,56,81,32
1,74,82,20
1,65,82,4
1,65,15,74
1,62,83,2
1,62,79,46
1,71,42,20
1,59,72,58
1,55,80,0
1,62,46,0
1,59,67,54
1,67,76,4
1,63,55,24
1,54,82,0
1,60,63,2
1,60,83,44
1,69,80,4
1,53,86,26
1,68,62,4
1,62,17,6
1,71,71,10
1,62,59,8
1,36,86,0
1,64,75,12
1,67,79,0
1,64,87,36
1,72,82,10
1,68,75,48
1,65,79,4
1,48,89,2
1,74,94,52
1,65,91,0
1,56,90,8
1,62,74,8
1,65,30,0
1,62,92,28
1,71,76,4
1,55,88,24
1,62,63,6
1,59,75,6
1,59,86,20
1,67,89,0
1,63,69,54
1,54,83,2
1,60,72,4
1,60,92,26
1,69,79,10
1,62,59,0
1,68,68,2
1,53,86,4
1,71,66,16
1,62,92,2
1,52,97,62
1,64,81,8
1,67,70,0
1,64,81,4
1,72,33,8
1,48,76,26
1,70,94,10
1,67,60,0
1,76,84,38
1,67,72,2
1,67,86,14
1,71,56,6
1,47,57,6
1,67,78,66
1,76,81,2
1,67,63,60
1,73,65,2
1,46,81,2
1,67,72,34
1,76,56,6
1,76,69,12
1,47,53,6
1,71,67,0
1,79,95,30
1,71,70,0
1,59,61,30
1,69,75,6
1,71,36,8
1,69,84,40
1,78,80,4
1,67,40,22
1,71,40,0
1,52,63,0
1,67,79,50
1,76,83,0
1,76,80,56
1,71,73,4
1,71,69,44
1,79,83,6
1,79,69,32
1,76,74,16
1,83,95,46
1,76,95,0
1,64,85,68
1,83,78,4
1,79,88,2
1,79,80,30
1,88,79,12
1,77,78,88
1,81,67,6
1,65,70,8
1,86,75,48
1,77,75,0
1,77,59,84
1,79,68,0
1,67,60,8
1,83,62,58
1,77,76,4
1,60,65,16
1,79,51,8
1,76,51,0
1,84,44,56
1,76,44,8
1,80,54,44
1,77,43,8
1,68,69,4
1,86,83,22
1,77,33,10
1,77,61,62
1,74,86,4
1,74,88,46
1,83,69,4
1,67,78,26
1,71,65,0
1,74,47,0
1,71,73,6
1,79,61,0
1,66,66,8
1,75,61,4
1,72,57,6
1,81,62,46
1,72,54,2
1,80,70,52
1,74,63,2
1,65,73,0
1,74,79,48
1,83,55,14
1,76,64,22
1,48,74,2
1,79,68,0
1,76,90,24
1,84,81,2
1,80,76,20
1,60,70,2
1,77,51,0
1,86,87,12
1,77,46,6
1,68,90,18
1,77,80,20
1,74,36,2
1,74,36,8
1,83,73,0
1,67,86,32
1,74,68,2
1,71,69,4
1,71,78,26
1,79,78,12
1,75,67,0
1,66,73,2
1,72,72,6
1,81,81,48
1,72,87,0
1,80,60,6
1,74,63,2
1,65,83,2
1,83,73,4
1,74,75,6
1,64,87,30
1,79,81,2
1,76,46,0
1,84,90,40
1,76,54,6
1,62,83,64
1,83,65,12
1,77,63,2
1,86,89,56
1,77,54,4
1,61,76,10
1,82,63,8
1,79,63,0
1,79,63,60
1,88,23,4
1,73,83,22
1,82,85,8
1,88,69,4
1,82,99,42
1,91,89,14
1,74,88,76
1,62,73,4
1,86,79,16
1,81,63,2
1,81,97,0
1,89,97,0
1,73,88,8
1,81,48,4
1,79,90,0
1,64,78,8
1,79,84,2
1,88,92,0
1,64,57,60
1,79,79,2
1,73,84,2
1,81,65,2
1,79,93,54
1,88,94,12
1,74,87,64
1,65,72,14
1,81,58,6
1,77,68,4
1,86,89,14
1,77,79,6
1,66,71,50
1,81,84,2
1,75,80,10
1,75,64,42
1,84,86,0
1,79,75,8
1,76,78,2
1,67,67,12
1,76,83,28
1,84,80,2
1,75,68,24
1,78,66,2
1,55,57,8
1,75,58,0
1,84,39,24
1,67,69,42
1,74,80,10
1,77,72,10
1,83,68,48
1,74,65,2
1,48,54,16
1,79,78,20
1,76,59,10
1,60,79,6
1,84,69,52
1,76,63,12
1,80,62,84
1,77,55,0
1,68,90,12
1,86,82,52
1,77,69,2
1,74,80,82
1,77,41,4
1,74,80,48
1,83,81,4
1,67,81,54
1,74,64,12
1,71,50,2
1,79,82,50
1,71,61,8
1,75,67,2
1,66,66,6
1,72,74,0
1,72,88,48
1,81,59,6
1,80,67,14
1,74,67,4
1,65,73,4
1,74,66,36
1,83,61,4
1,48,89,24
1,79,81,2
1,76,73,8
1,76,95,14
1,84,87,14
1,80,76,66
1,60,91,8
1,77,72,0
1,77,94,46
1,86,87,2
1,77,74,88
1,68,97,4
1,74,87,0
1,74,100,30
1,83,85,6
1,67,94,94
1,74,66,2
1,71,64,0
1,79,79,44
1,71,82,4
1,75,79,66
1,72,88,2
1,66,88,8
1,72,83,52
1,81,82,4
1,74,59,12
1,80,35,2
1,65,88,6
1,74,90,34
1,83,72,0
1,76,66,28
1,79,68,4
1,64,94,2
1,84,88,40
1,76,78,8
1,82,100,8
1,79,41,6
1,60,81,0
1,88,91,48
1,79,66,4
1,79,62,58
1,83,62,2
1,59,60,4
1,88,79,54
1,79,41,12
1,85,70,6
1,58,83,8
1,79,84,2
1,79,87,54
1,88,46,0
1,88,92,14
1,83,72,6
1,59,65,10
1,83,68,10
1,91,87,4
1,47,58,38
1,81,83,2
1,83,83,4
1,81,60,52
1,90,76,10
1,40,79,36
1,79,68,12
1,83,62,2
1,79,52,22
1,88,70,4
1,83,57,66
1,79,73,2
1,55,81,18
1,79,65,56
1,88,62,14
1,83,62,34
1,79,79,6
1,52,85,2
1,79,73,52
1,88,66,14
1,67,81,0
1,83,46,18
1,79,42,2
1,88,58,56
1,79,53,16
1,79,45,28
1,83,44,8
1,79,58,4
1,88,73,4
1,82,74,30
1,79,54,8
1,62,34,18
1,79,58,62
1,88,56,10
1,81,68,6
1,79,34,2
1,45,56,4
1,79,41,6
1,88,78,2
1,61,69,2
1,79,54,8
1,81,69,4
1,79,90,20
1,88,84,8
1,52,69,2
1,45,84,58
1,79,41,18
1,81,58,6
1,88,91,24
1,79,45,2
1,79,67,34
1,81,76,6
1,33,35,12
1,79,85,16
1,88,94,6
1,61,77,28
1,79,71,8
1,81,66,4
1,79,92,6
1,52,72,14
1,89,74,4
1,45,87,62
1,81,81,6
1,79,36,10
1,88,92,40
1,79,65,8
1,38,89,60
1,79,64,6
1,81,78,6
1,79,88,0
1,88,93,6
1,76,74,96
1,81,73,2
1,67,60,10
1,85,91,2
1,57,87,10
1,76,55,2
1,50,91,24
1,81,76,0
1,77,89,8
1,77,91,60
1,86,88,2
1,65,88,84
1,77,61,2
1,81,78,0
1,77,76,20
1,86,77,4
1,81,67,14
1,77,59,2
1,77,72,56
1,86,57,2
1,80,69,30
1,77,62,6
1,60,52,2
1,77,72,80
1,86,70,12
1,43,49,22
1,79,79,4
1,77,63,4
1,77,89,32
1,86,81,10
1,59,62,66
1,77,65,8
1,79,67,6
1,50,70,18
1,86,94,0
1,77,89,4
1,43,70,8
1,77,67,10
1,79,73,2
1,77,94,16
1,86,94,8
1,79,89,44
1,77,67,6
1,31,57,0
1,77,91,18
1,86,87,0
1,59,79,66
1,79,92,8
1,77,68,6
1,50,90,12
1,88,88,2
1,77,92,4
1,43,91,6
1,77,78,24
1,79,85,0
1,77,92,28
1,86,92,12
1,36,90,38
1,79,89,14
1,77,80,2
1,86,91,8
1,77,77,0
1,67,89,64
1,79,66,10
1,74,26,8
1,55,92,4
1,83,81,2
1,74,47,26
1,48,96,14
1,79,87,10
1,76,51,16
1,84,85,34
1,76,54,6
1,79,36,2
1,76,51,2
1,64,46,4
1,76,64,50
1,84,68,10
1,76,61,18
1,79,62,4
1,84,68,34
1,76,62,2
1,79,70,42
1,74,63,0
1,57,44,8
1,74,54,48
1,83,41,6
1,38,68,22
1,74,80,2
1,72,65,12
1,72,84,10
1,81,63,24
1,66,81,64
1,74,83,4
1,72,59,6
1,72,98,30
1,81,84,16
1,57,61,18
1,72,76,12
1,50,83,2
1,74,66,8
1,72,81,2
1,81,85,6
1,72,75,8
1,74,75,2
1,38,95,4
1,72,91,58
1,81,89,4
1,66,87,70
1,72,73,4
1,74,75,6
1,83,83,24
1,72,79,2
1,57,85,2
1,50,86,10
1,72,66,22
1,74,74,0
1,81,88,48
1,72,90,2
1,43,88,90
1,74,74,2
1,71,60,0
1,71,75,34
1,75,80,6
1,71,68,24
1,74,70,0
1,76,81,62
1,71,74,2
1,50,65,22
1,71,46,46
1,74,83,2
1,55,74,4
1,57,92,10
1,71,47,2
1,77,84,2
1,59,90,72
1,74,72,0
1,71,50,2
1,78,79,48
1,71,70,4
1,71,62,56
1,74,64,2
1,57,73,18
1,79,72,12
1,71,44,4
1,55,70,60
1,74,53,12
1,71,7,0
1,50,55,26
1,71,74,2
1,80,74,0
1,74,61,54
1,72,75,6
1,38,42,4
1,81,24,4
1,72,67,12
1,74,80,4
1,72,46,2
1,66,85,2
1,81,83,26
1,72,73,2
1,57,77,16
1,72,80,16
1,74,87,2
1,50,85,8
1,72,88,22
1,81,88,14
1,38,98,42
1,74,86,4
1,72,73,2
1,72,89,10
1,81,94,6
1,66,77,16
1,74,89,8
1,72,69,4
1,72,99,36
1,83,88,10
1,57,65,14
1,50,83,42
1,72,92,10
1,74,78,10
1,72,88,46
1,81,100,2
1,67,98,34
1,55,84,4
1,71,75,10
1,59,77,4
1,74,81,0
1,71,79,20
1,79,97,0
1,53,99,0
1,75,81,44
1,72,87,4
1,68,100,16
1,60,75,14
1,63,64,14
1,80,95,0
1,72,98,2
1,68,86,68
1,72,65,18
1,68,89,28
1,77,85,18
1,68,78,82
1,65,78,6
1,65,90,26
1,74,99,10
1,68,83,84
1,53,95,2
1,65,51,2
1,41,96,2
1,74,75,10
1,65,60,12
1,63,87,12
1,69,71,8
1,54,101,0
1,42,88,4
1,63,87,18
1,72,71,4
1,55,103,20
1,43,97,0
1,67,56,4
1,65,44,2
1,62,20,0
1,71,50,0
1,41,98,6
1,63,88,52
1,60,80,8
1,56,101,0
1,51,81,2
1,48,79,0
1,68,90,36
1,60,84,0
1,56,82,52
1,60,60,12
1,56,79,20
1,65,80,10
1,53,78,90
1,56,53,0
1,53,74,26
1,62,90,0
1,41,94,32
1,29,92,0
1,53,42,4
1,56,80,4
1,53,85,26
1,51,89,58
1,57,72,2
1,42,97,10
1,30,92,10
1,51,87,62
1,60,90,4
1,50,88,34
1,55,59,2
1,43,100,2
1,31,101,0
1,50,73,94
1,59,51,4
1,53,86,72
1,57,81,4
1,53,69,50
1,62,84,6
1,55,73,68
1,52,66,2
1,52,89,38
1,60,59,18
1,59,73,6
1,55,73,4
1,55,42,36
1,64,93,4
1,57,71,44
1,53,72,6
1,53,85,40
1,62,73,4
1,57,72,24
1,60,45,2
1,57,89,32
1,65,89,10
1,59,72,64
1,55,69,10
1,55,96,16
1,64,77,16
1,62,89,58
1,59,43,2
1,67,105,16
1,59,46,6
1,60,88,26
1,57,81,4
1,65,87,18
1,57,76,0
1,60,67,10
1,64,38,8
1,69,105,20
1,60,98,6
1,62,83,32
1,59,78,2
1,59,68,16
1,67,92,6
1,62,82,58
1,65,75,4
1,71,87,34
1,62,56,4
1,60,88,64
1,64,94,0
1,69,91,52
1,60,23,4
1,65,75,0
1,62,71,2
1,62,94,38
1,71,76,2
1,64,78,22
1,67,78,0
1,64,88,30
1,72,100,2
1,65,97,52
1,69,82,4
1,65,84,42
1,74,98,0
1,71,73,0
1,67,82,0
1,67,103,14
1,76,91,8
1,69,90,18
1,72,89,2
1,77,94,44
1,69,57,4
1,74,84,2
1,72,20,6
1,79,90,26
1,71,48,4
1,74,81,78
1,72,69,6
1,66,92,6
1,72,84,54
1,81,77,2
1,74,76,90
1,72,41,10
1,81,88,46
1,72,80,2
1,74,72,88
1,72,47,4
1,72,85,56
1,81,80,10
1,72,72,82
1,74,78,4
1,64,103,6
1,81,74,54
1,72,84,4
1,72,85,30
1,74,76,4
1,66,103,2
1,72,75,48
1,81,84,4
1,67,104,64
1,74,71,8
1,71,62,2
1,71,79,14
1,79,87,10
1,74,80,2
1,71,57,4
1,71,79,36
1,79,75,12
1,71,45,36
1,74,52,2
1,79,73,36
1,71,52,0
1,70,64,52
1,74,70,4
1,70,73,8
1,79,67,2
1,70,57,52
1,74,67,2
1,62,81,18
1,70,69,12
1,79,87,6
1,72,84,54
1,70,76,0
1,64,95,20
1,70,37,70
1,79,88,0
1,65,95,106
1,77,81,56
1,69,49,2
1,69,76,60
1,72,91,4
1,77,60,56
1,69,77,0
1,69,55,72
1,72,64,4
1,69,86,10
1,77,69,12
1,69,53,14
1,72,79,6
1,69,89,48
1,77,80,10
1,69,63,56
1,72,77,6
1,60,88,2
1,69,86,56
1,77,87,4
1,69,29,76
1,71,65,0
1,62,87,2
1,77,88,44
1,69,52,2
1,68,75,4
1,71,37,0
1,64,92,4
1,68,80,34
1,76,75,4
1,67,75,32
1,71,52,2
1,59,80,2
1,76,91,4
1,67,76,0
1,61,82,18
1,67,57,4
1,69,78,4
1,67,86,16
1,76,97,4
1,66,83,40
1,69,80,2
1,62,87,2
1,66,75,40
1,74,86,6
1,69,68,2
1,57,81,2
1,65,69,2
1,74,92,18
1,65,90,10
1,65,70,66
1,67,86,8
1,59,78,4
1,65,89,44
1,74,96,4
1,60,94,4
1,64,67,10
1,67,59,4
1,72,92,40
1,64,90,0
1,56,81,22
1,63,78,2
1,68,60,10
1,63,82,50
1,72,82,4
1,69,67,46
1,63,67,2
1,54,81,6
1,72,84,20
1,63,23,0
1,55,80,6
1,64,62,4
1,67,56,6
1,72,77,22
1,64,31,8
1,43,74,4
1,66,49,12
1,63,38,12
1,63,38,16
1,72,38,8
1,55,70,40
1,65,65,4
1,62,58,0
1,71,51,18
1,62,70,4
1,36,78,10
1,67,75,36
1,64,32,0
1,48,88,12
1,72,69,16
1,64,49,0
1,65,59,74
1,68,63,0
1,56,95,4
1,65,70,54
1,74,69,12
1,65,67,12
1,62,75,6
1,62,88,12
