track,note,velocity,time
1,63,38,1536
1,44,38,185
1,68,48,10
1,80,36,42
1,72,46,8
1,60,38,26
1,70,51,0
1,56,24,35
1,82,74,13
1,51,40,19
1,73,39,4
1,63,38,10
1,71,55,15
1,74,56,35
1,56,37,1
1,83,61,8
1,44,79,11
1,72,75,12
1,75,55,23
1,84,60,8
1,60,60,20
1,73,90,25
1,56,55,31
1,85,83,34
1,76,71,4
1,51,62,17
1,74,87,3
1,63,68,18
1,86,75,37
1,56,58,8
1,78,25,6
1,44,65,6
1,75,79,2
1,87,88,0
1,79,25,3
1,61,65,33
1,77,90,34
1,55,47,25
1,89,97,13
1,80,60,6
1,51,44,15
1,75,92,56
1,63,56,10
1,87,91,24
1,79,71,0
1,44,77,1
1,72,72,8
1,84,67,16
1,60,68,7
1,75,66,5
1,56,50,48
1,70,89,16
1,51,55,24
1,82,88,0
1,73,75,6
1,63,65,21
1,72,92,21
1,56,66,40
1,84,84,2
1,75,70,3
1,44,66,16
1,70,92,14
1,82,87,44
1,73,77,4
1,61,65,17
1,55,48,15
1,72,95,2
1,75,76,39
1,84,68,2
1,51,47,7
1,63,58,50
1,67,81,6
1,70,91,15
1,55,46,13
1,79,48,6
1,68,86,56
1,44,67,6
1,80,75,34
1,72,60,8
1,60,63,18
1,67,70,11
1,56,45,25
1,79,83,8
1,70,50,9
1,51,50,15
1,63,61,43
1,68,67,0
1,56,62,40
1,80,76,2
1,72,58,14
1,46,80,11
1,65,65,8
1,68,73,7
1,77,63,0
1,62,57,31
1,58,54,21
1,67,74,4
1,56,56,30
1,79,86,0
1,70,61,10
1,62,44,33
1,65,75,11
1,56,10,30
1,58,58,16
1,68,67,4
1,77,50,8
1,39,61,18
1,64,75,0
1,67,53,43
1,76,54,4
1,61,56,11
1,63,63,41
1,58,63,4
1,75,67,40
1,67,19,29
1,51,37,6
1,67,78,39
1,61,37,1
1,79,95,22
1,58,59,2
1,44,66,19
1,68,78,1
1,80,92,19
1,72,80,7
1,60,51,2
1,70,91,10
1,56,56,6
1,82,106,42
1,73,77,6
1,51,54,28
1,63,71,21
1,71,72,4
1,74,81,37
1,83,93,2
1,56,44,21
1,72,96,23
1,44,59,7
1,84,98,14
1,75,65,4
1,60,67,24
1,73,95,29
1,56,60,23
1,85,93,21
1,76,83,8
1,51,51,19
1,63,70,7
1,74,92,1
1,86,91,6
1,77,61,7
1,56,44,4
1,75,87,29
1,44,44,6
1,87,85,8
1,61,79,6
1,79,75,8
1,77,88,25
1,55,52,4
1,89,97,11
1,51,66,8
1,80,67,6
1,63,69,60
1,75,89,10
1,87,90,26
1,79,83,3
1,55,48,12
1,72,97,24
1,44,65,4
1,84,101,15
1,75,59,15
1,60,71,11
1,70,91,73
1,56,51,4
1,73,76,32
1,82,87,2
1,51,54,7
1,72,94,18
1,63,61,15
1,84,86,22
1,56,65,3
1,75,47,13
1,46,98,13
1,70,86,32
1,82,83,21
1,74,74,9
1,62,70,10
1,72,95,52
1,58,80,8
1,84,96,48
1,75,72,0
1,56,77,0
1,74,92,21
1,65,77,17
1,86,70,16
1,58,75,15
1,75,97,19
1,51,90,6
1,87,84,6
1,79,77,12
1,67,85,17
1,77,99,26
1,63,70,6
1,80,88,18
1,89,97,5
1,60,80,8
1,69,83,15
1,78,101,4
1,90,95,5
1,81,91,4
1,63,76,0
1,58,85,16
1,79,106,4
1,70,87,7
1,91,107,8
1,82,88,8
1,63,55,21
1,80,89,8
1,58,69,29
1,92,97,2
1,84,71,13
1,68,50,52
1,74,85,42
1,77,74,48
1,86,92,7
1,51,78,52
1,77,43,11
1,79,49,18
1,89,89,13
1,67,64,31
1,63,49,64
1,76,66,2
1,61,38,63
1,79,48,10
1,88,60,0
1,67,36,21
1,75,33,4
1,63,45,60
1,87,49,5
1,79,17,31
1,75,39,90
1,44,65,84
1,80,55,6
1,72,57,5
1,60,55,47
1,70,65,8
1,56,41,23
1,82,85,29
1,73,60,8
1,51,52,8
1,63,66,65
1,71,61,25
1,74,80,46
1,83,71,16
1,44,65,19
1,72,92,0
1,84,88,12
1,75,55,11
1,60,70,12
1,73,93,19
1,56,63,39
1,85,88,19
1,76,74,6
1,51,43,26
1,63,67,11
1,74,92,4
1,77,63,22
1,86,80,7
1,44,59,8
1,75,73,25
1,87,81,21
1,79,72,8
1,61,53,19
1,77,81,21
1,55,22,20
1,89,81,39
1,80,69,3
1,51,54,10
1,63,51,64
1,75,81,0
1,79,71,4
1,87,71,0
1,55,40,17
1,72,81,1
1,44,64,4
1,75,60,14
1,84,74,1
1,60,63,29
1,70,86,54
1,56,56,4
1,73,72,14
1,82,77,4
1,51,46,15
1,63,66,52
1,72,95,9
1,84,82,0
1,56,62,4
1,75,59,4
1,70,100,17
1,44,61,0
1,82,91,6
1,73,73,7
1,61,79,8
1,72,99,27
1,55,59,6
1,84,85,23
1,75,71,6
1,51,59,9
1,63,68,62
1,67,85,23
1,79,94,13
1,70,84,4
1,55,36,0
1,68,90,30
1,44,60,25
1,80,86,25
1,72,78,11
1,60,70,8
1,67,89,25
1,56,62,1
1,70,81,31
1,79,71,9
1,51,41,6
1,68,84,15
1,63,62,9
1,56,58,10
1,80,87,24
1,72,41,4
1,46,97,24
1,65,78,22
1,68,49,20
1,77,70,4
1,62,63,30
1,67,62,42
1,58,66,8
1,79,83,19
1,56,59,8
1,70,53,2
1,62,45,18
1,65,72,25
1,56,11,38
1,58,69,8
1,77,78,14
1,68,52,3
1,39,80,65
1,64,64,48
1,76,69,35
1,67,38,4
1,61,72,25
1,63,67,50
1,58,48,12
1,75,69,32
1,67,46,16
1,51,53,8
1,67,84,29
1,61,54,9
1,79,87,23
1,70,65,14
1,44,75,37
1,68,82,17
1,80,81,46
1,60,79,0
1,72,58,8
1,70,91,44
1,56,57,8
1,51,58,51
1,82,77,3
1,73,70,2
1,63,55,63
1,71,62,7
1,56,66,44
1,83,60,20
1,74,44,3
1,44,71,51
1,72,89,9
1,84,76,48
1,75,50,9
1,60,61,14
1,73,71,34
1,56,62,0
1,85,62,48
1,76,68,1
1,51,47,4
1,74,80,48
1,63,57,4
1,56,58,36
1,77,54,14
1,86,61,0
1,44,52,54
1,75,72,30
1,61,64,23
1,87,66,27
1,79,54,6
1,55,60,64
1,77,87,2
1,80,75,58
1,89,71,9
1,51,34,11
1,63,48,34
1,75,80,3
1,79,67,54
1,87,68,2
1,55,36,10
1,44,60,48
1,72,73,17
1,60,70,47
1,84,84,1
1,75,71,8
1,56,55,60
1,70,90,8
1,82,85,48
1,73,73,4
1,54,21,14
1,63,60,33
1,72,92,1
1,84,84,46
1,75,70,4
1,56,64,0
1,73,92,52
1,49,55,8
1,77,74,11
1,85,88,3
1,65,75,0
1,61,62,39
1,75,97,4
1,79,76,21
1,87,88,4
1,56,62,8
1,77,97,38
1,65,64,6
1,80,78,27
1,89,94,6
1,61,74,1
1,79,96,0
1,49,76,2
1,82,84,17
1,91,54,9
1,64,81,3
1,80,93,27
1,61,72,11
1,83,75,4
1,92,90,0
1,56,69,20
1,81,103,44
1,64,64,11
1,61,66,8
1,84,72,11
1,93,89,1
1,51,83,6
1,82,103,42
1,94,91,10
1,85,68,1
1,67,74,28
1,84,95,33
1,63,55,13
1,61,57,41
1,96,77,4
1,87,55,7
1,67,52,59
1,79,79,21
1,63,66,0
1,91,74,11
1,82,76,6
1,44,68,69
1,80,74,9
1,92,62,2
1,84,61,10
1,60,66,25
1,80,74,25
1,56,60,13
1,51,55,69
1,80,55,2
1,72,35,3
1,60,61,62
1,68,62,1
1,56,47,58
1,80,70,7
1,72,72,14
1,68,99,81
1,40,94,6
1,80,97,24
1,71,68,7
1,59,48,38
1,69,96,50
1,52,60,19
1,81,101,27
1,73,80,4
1,47,44,13
1,68,92,48
1,59,12,33
1,52,69,12
1,80,97,5
1,71,73,4
1,40,95,0
1,66,93,2
1,78,97,16
1,70,87,9
1,58,86,18
1,61,94,60
1,52,58,11
1,49,70,19
1,64,83,8
1,73,88,4
1,58,79,78
1,63,96,13
1,52,64,15
1,75,93,16
1,66,81,6
1,40,94,9
1,64,99,19
1,68,66,30
1,76,91,4
1,57,71,6
1,68,79,52
1,51,72,48
1,80,98,44
1,71,70,6
1,47,55,21
1,66,81,36
1,59,64,4
1,69,63,18
1,78,89,2
1,40,92,19
1,64,85,0
1,68,76,21
1,76,91,0
1,56,63,12
1,59,76,77
1,52,50,27
1,63,78,21
1,71,76,0
1,47,51,0
1,61,91,28
1,59,59,40
1,73,90,23
1,64,80,4
1,52,67,7
1,40,95,20
1,64,89,8
1,76,106,19
1,68,83,6
1,57,72,15
1,63,94,25
1,54,62,15
1,66,83,28
1,75,92,4
1,47,68,3
1,59,66,4
1,64,95,2
1,54,72,27
1,76,98,7
1,68,40,12
1,68,95,46
1,40,95,10
1,80,96,2
1,71,67,4
1,57,75,21
1,66,90,37
1,51,69,19
1,69,43,7
1,47,61,19
1,78,91,4
1,68,85,21
1,59,62,4
1,51,75,19
1,71,43,1
1,80,97,5
1,71,88,16
1,40,87,2
1,83,92,1
1,75,77,2
1,57,64,33
1,69,92,15
1,54,73,3
1,73,85,8
1,81,103,1
1,47,65,4
1,71,87,27
1,59,59,0
1,54,76,6
1,75,81,19
1,83,86,2
1,75,93,96
1,40,72,22
1,87,86,8
1,78,69,0
1,57,45,19
1,73,66,41
1,51,55,10
1,85,84,25
1,76,70,8
1,47,35,17
1,59,48,50
1,71,65,6
1,54,66,46
1,75,64,8
1,83,66,0
1,40,53,31
1,68,55,4
1,71,49,6
1,59,35,10
1,80,51,5
1,52,37,61
1,69,63,6
1,72,49,60
1,81,53,1
1,47,35,0
1,59,35,58
1,68,35,16
1,52,60,37
1,71,49,19
1,80,65,0
1,66,55,126
1,40,46,24
1,78,61,28
1,69,51,0
1,57,41,10
1,60,70,62
1,52,35,7
1,48,49,32
1,72,70,4
1,64,54,3
1,57,45,67
1,64,55,5
1,68,52,30
1,76,47,6
1,66,70,71
1,40,68,2
1,69,55,14
1,78,49,9
1,57,49,2
1,68,61,17
1,51,55,21
1,80,69,23
1,71,24,22
1,47,48,0
1,66,69,60
1,59,46,0
1,51,56,58
1,78,72,19
1,69,42,14
1,40,70,63
1,64,79,15
1,68,52,35
1,76,42,1
1,56,50,12
1,63,77,55
1,52,58,22
1,68,66,33
1,75,53,5
1,47,50,2
1,62,75,55
1,59,55,6
1,52,55,52
1,74,79,0
1,68,52,22
1,39,83,11
1,63,81,14
1,75,78,4
1,67,65,5
1,61,81,29
1,65,95,29
1,55,61,23
1,68,85,10
1,77,92,8
1,51,59,22
1,66,94,27
1,63,76,10
1,69,80,23
1,55,73,0
1,78,83,2
1,39,77,19
1,67,102,2
1,70,88,27
1,79,93,15
1,61,78,8
1,69,97,14
1,55,62,22
1,72,66,0
1,51,78,6
1,81,78,0
1,63,84,57
1,70,105,12
1,73,81,69
1,55,70,3
1,82,96,8
1,44,103,23
1,72,110,2
1,75,91,4
1,84,95,9
1,60,98,12
1,73,109,19
1,56,79,13
1,76,90,14
1,85,94,3
1,54,75,16
1,63,95,67
1,74,109,3
1,56,84,77
1,86,100,4
1,77,83,1
1,44,92,22
1,75,106,9
1,78,84,67
1,87,97,9
1,60,98,4
1,56,91,77
1,77,110,4
1,54,84,10
1,80,102,2
1,89,100,9
1,63,95,8
1,78,108,26
1,82,100,9
1,90,101,2
1,60,88,10
1,78,115,3
1,37,111,4
1,90,99,62
1,82,104,4
1,65,89,6
1,77,110,23
1,61,83,8
1,80,82,19
1,89,98,7
1,56,75,4
1,65,71,55
1,72,106,25
1,61,70,16
1,75,77,25
1,84,106,0
1,43,96,23
1,75,94,6
1,87,88,39
1,78,71,5
1,61,79,3
1,73,94,39
1,58,76,12
1,52,72,61
1,76,80,12
1,85,88,4
1,61,73,33
1,70,102,13
1,58,79,38
1,82,98,2
1,70,103,11
1,44,83,3
1,82,91,0
1,73,72,3
1,61,78,41
1,69,97,23
1,56,59,13
1,81,86,14
1,73,47,10
1,53,49,7
1,68,97,41
1,61,56,7
1,56,58,11
1,80,81,28
1,73,65,0
1,44,70,27
1,67,88,10
1,79,50,26
1,72,46,11
1,60,65,2
1,66,73,29
1,56,54,4
1,54,40,7
1,78,64,6
1,72,55,7
1,60,50,67
1,63,70,17
1,56,44,18
1,66,50,27
1,75,45,0
1,37,56,96
1,61,59,23
1,65,39,69
1,56,61,2
1,73,28,22
1,61,56,21
1,49,50,14
1,44,50,46
1,73,53,8
1,65,50,2
1,61,64,61
1,56,52,2
1,49,50,16
1,65,46,14
1,73,59,1
1,37,49,14
1,61,60,16
1,73,46,35
1,56,61,9
1,65,31,14
1,61,60,23
1,49,49,23
1,73,65,52
1,65,51,0
1,44,43,14
1,61,56,2
1,56,36,7
1,49,37,46
1,73,59,16
1,65,41,13
1,37,50,39
1,61,51,11
1,64,41,65
1,73,35,0
1,56,41,16
1,49,34,27
1,61,50,6
1,44,32,63
1,73,36,4
1,64,34,4
1,56,42,2
1,61,41,17
1,73,34,65
1,64,35,21
1,37,41,17
1,61,41,13
1,73,33,65
1,64,30,10
1,56,46,4
1,61,45,4
1,49,36,40
1,44,38,54
1,73,46,21
1,64,30,4
1,73,32,76
1,56,38,4
1,49,44,32
1,76,49,14
1,85,55,4
1,45,62,108
1,73,52,37
1,85,68,43
1,64,43,23
1,74,58,36
1,57,31,2
1,86,76,69
1,52,30,6
1,78,50,1
1,73,65,54
1,64,43,2
1,57,22,44
1,85,86,4
1,76,64,14
1,45,46,56
1,71,56,9
1,83,81,31
1,75,30,24
1,63,58,18
1,66,72,69
1,57,34,1
1,54,49,47
1,78,82,20
1,63,50,11
1,68,81,6
1,57,41,28
1,80,84,19
1,71,54,5
1,45,73,0
1,69,59,22
1,81,79,40
1,73,29,8
1,62,52,16
1,73,74,40
1,56,34,36
1,85,87,38
1,52,44,14
1,76,56,1
1,64,50,68
1,71,39,8
1,56,55,40
1,83,69,8
1,74,52,4
1,69,81,33
1,45,44,13
1,81,79,21
1,73,43,13
1,61,71,10
1,64,61,41
1,57,40,9
1,68,67,31
1,76,50,9
1,52,54,4
1,66,83,50
1,64,54,17
1,57,56,40
1,78,78,3
1,69,44,11
1,45,87,19
1,69,76,4
1,81,70,41
1,73,66,0
1,62,57,23
1,68,88,25
1,59,47,18
1,71,52,38
1,80,75,3
1,52,73,10
1,64,56,11
1,69,84,4
1,73,70,19
1,59,49,11
1,81,81,4
1,73,91,15
1,45,92,12
1,85,89,4
1,76,68,8
1,62,58,2
1,71,84,20
1,56,68,26
1,74,57,12
1,83,81,11
1,52,69,14
1,73,100,40
1,64,75,8
1,59,61,30
1,85,96,3
1,76,81,1
1,76,101,11
1,45,101,4
1,88,101,31
1,80,83,0
1,62,65,33
1,74,101,21
1,56,67,25
1,78,77,14
1,86,95,4
1,52,74,2
1,64,76,8
1,76,104,8
1,88,100,30
1,80,84,0
1,59,37,15
1,80,99,3
1,45,94,13
1,92,99,3
1,83,62,6
1,62,44,52
1,78,84,52
1,56,52,6
1,81,71,23
1,90,72,13
1,52,44,16
1,76,86,71
1,64,57,1
1,88,66,97
1,80,30,16
1,73,68,12
1,45,48,3
1,85,56,89
1,76,42,9
1,61,35,26
1,74,71,37
1,57,43,11
1,52,47,40
1,77,59,14
1,86,30,5
1,64,51,48
1,73,81,5
1,57,41,54
1,85,81,4
1,76,58,8
1,71,71,2
1,45,68,7
1,83,50,29
1,74,41,0
1,62,53,6
1,57,50,44
1,65,59,11
1,69,46,42
1,53,63,3
1,77,65,1
1,62,57,48
1,69,85,13
1,57,54,6
1,73,65,12
1,81,77,4
1,71,75,15
1,45,77,0
1,74,59,15
1,83,67,0
1,62,57,2
1,73,87,16
1,56,50,26
1,85,81,17
1,76,55,10
1,52,62,6
1,64,66,47
1,71,71,11
1,56,59,46
1,74,63,7
1,83,65,15
1,45,81,17
1,69,83,10
1,73,55,14
1,81,63,12
1,61,62,16
1,68,76,70
