track,note,velocity,time
1,47,32,0
1,51,52,24
1,28,27,18
1,52,64,4
1,55,74,6
1,64,69,30
1,59,73,90
1,55,62,12
1,54,82,4
1,47,45,6
1,40,55,2
1,55,74,12
1,59,79,30
1,67,81,24
1,64,86,86
1,59,73,8
1,40,52,16
1,47,42,38
1,58,71,28
1,55,55,8
1,59,68,2
1,64,78,10
1,71,81,62
1,67,84,70
1,64,78,52
1,40,65,14
1,47,51,4
1,63,89,14
1,55,75,2
1,64,82,16
1,67,84,2
1,76,80,22
1,71,92,80
1,67,83,56
1,40,69,20
1,47,59,26
1,55,84,4
1,66,84,12
1,67,81,10
1,71,99,34
1,79,85,10
1,76,81,82
1,71,85,18
1,40,61,0
1,47,55,12
1,70,83,12
1,55,74,8
1,71,92,62
1,76,79,16
1,83,103,18
1,79,95,80
1,76,77,32
1,40,56,40
1,47,45,32
1,75,84,2
1,55,60,2
1,76,88,4
1,79,94,16
1,83,105,104
1,88,80,28
1,100,48,428
1,95,50,4
1,88,22,12
1,71,71,506
1,51,35,10
1,71,70,10
1,69,34,2
1,66,35,4
1,71,93,40
1,71,81,52
1,59,24,20
1,70,70,12
1,52,62,12
1,71,83,4
1,76,76,112
1,67,37,24
1,64,51,14
1,79,89,30
1,83,101,12
1,59,47,10
1,84,93,12
1,86,85,14
1,54,68,26
1,84,68,20
1,83,108,40
1,82,78,22
1,69,35,12
1,63,43,8
1,83,89,32
1,87,59,6
1,90,63,2
1,59,52,0
1,95,69,28
1,55,47,50
1,91,57,4
1,88,61,8
1,67,39,20
1,64,13,46
1,83,93,40
1,59,46,32
1,84,74,72
1,95,80,12
1,57,44,0
1,93,79,38
1,66,41,8
1,64,39,32
1,90,75,42
1,84,82,26
1,60,34,32
1,83,92,64
1,59,38,6
1,93,78,4
1,91,71,56
1,71,47,2
1,67,31,8
1,88,71,0
1,64,50,30
1,83,95,2
1,81,66,24
1,47,65,48
1,91,80,6
1,90,69,110
1,66,50,6
1,69,41,10
1,87,62,22
1,81,56,48
1,59,51,6
1,88,67,30
1,79,49,14
1,67,40,8
1,64,36,8
1,84,71,32
1,83,98,16
1,79,82,12
1,76,71,52
1,72,78,26
1,71,83,42
1,51,49,14
1,71,88,122
1,66,44,22
1,69,35,2
1,71,80,8
1,71,93,24
1,59,60,18
1,70,67,44
1,52,70,0
1,71,88,4
1,76,80,90
1,67,45,28
1,64,35,20
1,79,93,18
1,59,54,14
1,83,105,0
1,84,80,8
1,86,87,6
1,54,66,38
1,84,80,8
1,83,107,14
1,82,79,6
1,69,46,20
1,63,50,14
1,83,100,8
1,90,72,12
1,87,55,10
1,59,49,6
1,95,74,14
1,91,66,44
1,88,80,6
1,55,56,14
1,67,47,10
1,64,36,8
1,83,103,82
1,59,41,30
1,84,71,18
1,95,84,20
1,57,45,8
1,66,47,60
1,93,81,8
1,64,24,48
1,90,61,20
1,84,80,30
1,60,44,20
1,83,93,70
1,59,44,32
1,93,78,2
1,91,78,96
1,71,60,14
1,67,40,32
1,88,62,0
1,83,95,32
1,64,45,2
1,81,64,32
1,47,59,48
1,91,72,10
1,90,65,152
1,69,34,16
1,66,34,0
1,87,60,26
1,81,63,40
1,59,41,8
1,79,53,102
1,88,59,2
1,64,31,8
1,67,31,8
1,71,77,12
1,72,73,322
1,52,53,14
1,78,79,14
1,81,84,96
1,67,47,6
1,60,40,4
1,79,89,20
1,76,73,64
1,52,46,4
1,72,76,34
1,72,71,56
1,51,44,20
1,59,46,14
1,66,44,0
1,71,79,122
1,51,43,20
1,70,62,88
1,50,48,22
1,76,70,12
1,79,80,58
1,58,36,14
1,65,27,24
1,77,72,0
1,50,30,34
1,74,72,8
1,70,63,42
1,70,63,40
1,49,32,26
1,64,39,62
1,57,42,16
1,69,57,88
1,49,35,28
1,69,34,24
1,48,39,16
1,75,54,118
1,78,64,50
1,64,42,26
1,57,25,10
1,76,59,4
1,48,31,86
1,72,58,14
1,69,54,64
1,47,40,36
1,69,46,4
1,55,36,156
1,64,52,2
1,67,59,150
1,47,34,26
1,66,67,144
1,47,42,4
1,67,67,94
1,69,66,26
1,59,37,0
1,54,41,4
1,70,67,84
1,71,80,12
1,51,45,8
1,66,64,24
1,69,61,12
1,52,61,0
1,64,50,220
1,59,46,80
1,67,71,2
1,72,95,12
1,40,86,14
1,79,81,0
1,84,84,88
1,60,45,32
1,84,84,68
1,91,86,0
1,55,39,16
1,96,88,26
1,95,95,48
1,39,81,10
1,90,82,24
1,83,99,70
1,59,51,22
1,83,90,32
1,54,68,96
1,78,82,2
1,71,81,54
1,70,87,16
1,38,82,16
1,77,74,28
1,82,76,64
1,58,52,0
1,82,40,26
1,53,74,6
1,89,75,12
1,94,78,76
1,93,89,48
1,37,78,8
1,88,70,18
1,81,80,4
1,57,23,8
1,81,63,46
1,52,75,74
1,76,59,10
1,69,59,32
1,69,72,66
1,36,84,4
1,76,69,8
1,57,64,82
1,81,67,4
1,81,74,48
1,52,62,72
1,88,72,4
1,93,77,34
1,91,81,54
1,35,81,0
1,88,71,54
1,79,83,80
1,55,59,18
1,79,61,10
1,52,62,114
1,76,68,2
1,67,73,16
1,78,82,34
1,47,51,6
1,66,62,12
1,71,74,90
1,54,31,0
1,64,11,12
1,78,65,26
1,69,43,16
1,79,70,2
1,63,43,2
1,59,29,26
1,78,65,14
1,67,44,94
1,76,44,10
1,64,26,10
1,52,32,18
1,75,39,22
1,74,44,136
1,73,45,26
1,72,44,20
1,51,40,36
1,71,46,2
1,69,32,124
1,71,65,4
1,66,29,4
1,71,67,10
1,59,33,46
1,71,74,6
1,70,61,12
1,52,50,18
1,71,78,6
1,76,69,82
1,67,57,4
1,64,31,14
1,79,81,34
1,83,97,72
1,59,33,8
1,84,84,12
1,86,81,6
1,54,50,42
1,84,88,14
1,83,105,32
1,69,39,36
1,82,75,0
1,63,50,12
1,83,99,8
1,90,73,94
1,59,34,4
1,87,48,2
1,95,76,22
1,88,70,64
1,91,67,2
1,55,50,6
1,67,39,124
1,64,34,2
1,83,92,72
1,59,24,30
1,84,68,32
1,95,80,20
1,57,33,2
1,93,65,88
1,66,23,8
1,64,31,32
1,90,59,6
1,84,68,62
1,60,34,2
1,83,82,2
1,59,39,32
1,93,66,2
1,71,58,74
1,91,68,10
1,67,25,20
1,88,56,2
1,83,81,26
1,64,42,2
1,81,60,30
1,47,56,46
1,91,73,2
1,90,61,136
1,66,31,8
1,69,24,0
1,87,55,0
1,59,41,52
1,81,59,8
1,79,53,18
1,67,26,20
1,88,45,0
1,64,33,10
1,84,55,72
1,83,87,6
1,79,75,26
1,76,68,48
1,72,76,92
1,71,82,22
1,51,47,18
1,71,87,112
1,66,42,8
1,69,37,8
1,71,69,54
1,59,31,42
1,71,94,4
1,70,72,28
1,52,60,10
1,71,88,8
1,76,82,80
1,67,43,20
1,64,46,24
1,79,94,0
1,83,98,14
1,59,48,2
1,84,90,68
1,86,79,14
1,84,57,54
1,54,53,20
1,83,111,24
1,82,79,4
1,69,45,18
1,63,55,10
1,83,96,2
1,90,71,88
1,87,57,8
1,59,48,12
1,95,73,14
1,91,70,60
1,88,76,8
1,55,49,0
1,67,43,50
1,64,43,14
1,83,103,82
1,59,37,10
1,84,60,16
1,95,84,30
1,57,29,6
1,66,36,84
1,93,75,2
1,64,35,32
1,90,62,56
1,84,77,54
1,60,23,18
1,83,72,36
1,93,74,36
1,59,38,8
1,71,61,88
1,91,69,10
1,67,32,6
1,88,58,24
1,64,53,0
1,83,81,18
1,81,55,6
1,91,60,76
1,47,64,6
1,90,49,160
1,69,21,28
1,66,25,4
1,87,39,4
1,59,41,18
1,81,46,10
1,88,41,78
1,79,38,6
1,67,30,2
1,64,34,4
1,52,38,90
1,70,48,34
1,71,85,174
1,72,79,2
1,52,38,40
1,78,74,102
1,81,76,104
1,67,42,16
1,60,32,4
1,79,79,38
1,76,63,86
1,52,38,12
1,72,65,26
1,72,49,8
1,51,49,6
1,66,37,16
1,59,41,6
1,71,76,88
1,51,43,4
1,70,51,124
1,50,32,18
1,76,47,106
1,79,56,84
1,58,24,2
1,65,38,14
1,77,46,10
1,74,45,16
1,50,25,8
1,70,41,38
1,70,43,36
1,49,29,12
1,64,32,110
1,57,45,8
1,69,52,132
1,49,37,16
1,69,60,28
1,48,41,28
1,75,73,100
1,78,70,82
1,57,35,22
1,64,50,0
1,76,65,24
1,48,43,56
1,72,69,8
1,69,56,72
1,47,41,32
1,69,66,16
1,64,41,166
1,55,41,4
1,67,59,138
1,47,38,22
1,66,54,152
1,47,39,14
1,67,72,90
1,69,67,22
1,59,36,12
1,54,34,8
1,70,65,76
1,71,71,64
1,51,55,0
1,66,65,40
1,52,50,106
1,69,63,2
1,64,55,232
1,67,74,110
1,59,53,6
1,40,92,20
1,72,91,10
1,79,80,38
1,84,83,106
1,60,75,12
1,84,83,8
1,55,55,78
1,91,85,18
1,96,91,68
1,95,91,40
1,39,81,4
1,90,80,68
1,83,94,84
1,59,56,2
1,83,81,0
1,54,65,80
1,78,72,30
1,71,66,64
1,70,78,42
1,38,81,6
1,77,60,18
1,58,62,74
1,82,69,2
1,82,48,22
1,53,67,106
1,89,77,2
1,94,72,66
1,93,86,48
1,37,80,4
1,88,64,24
1,81,57,24
1,57,52,32
1,81,79,42
1,52,44,88
1,76,61,6
1,69,67,42
1,36,80,52
1,69,58,0
1,76,68,40
1,57,56,84
1,81,82,0
1,81,47,64
1,52,24,78
1,88,75,16
1,93,75,70
1,35,63,78
1,91,76,6
1,88,65,26
1,79,73,32
1,55,57,12
1,79,70,28
1,52,63,110
1,76,68,10
1,67,67,18
1,47,44,24
1,78,79,16
1,66,62,108
1,64,57,78
1,54,41,20
1,71,71,0
1,78,70,54
1,79,77,4
1,69,38,10
1,63,36,0
1,59,28,22
1,78,64,12
1,67,39,98
1,76,45,84
1,64,22,12
1,52,31,8
1,75,30,66
1,74,40,10
1,73,39,12
1,72,41,100
1,71,48,34
1,51,23,18
1,71,71,154
1,69,19,12
1,66,3,8
1,71,83,42
1,71,75,2
1,59,48,16
1,70,59,22
1,52,59,4
1,71,69,24
1,76,65,86
1,67,49,2
1,64,42,18
1,79,83,2
1,83,99,12
1,59,43,6
1,84,83,50
1,86,85,26
1,54,48,44
1,84,84,2
1,83,106,26
1,82,78,38
1,69,41,14
1,63,57,10
1,83,75,32
1,90,73,4
1,59,47,2
1,87,48,6
1,95,73,32
1,91,65,64
1,88,78,6
1,55,42,0
1,67,42,120
1,64,40,18
1,83,103,86
1,59,37,12
1,84,79,38
1,57,37,28
1,95,84,8
1,93,62,112
1,66,41,4
1,64,29,44
1,90,54,2
1,84,71,56
1,60,34,0
1,83,77,54
1,59,42,20
1,93,64,10
1,71,51,122
1,91,65,16
1,67,16,8
1,88,56,10
1,64,51,22
1,83,84,10
1,81,58,32
1,91,72,56
1,47,52,2
1,90,65,102
1,69,36,6
1,66,16,24
1,87,62,20
1,59,41,0
1,81,60,4
1,88,58,50
1,64,41,4
1,79,45,2
1,67,27,4
1,84,52,4
1,83,87,36
1,79,75,34
1,76,69,50
1,72,65,34
1,71,84,42
1,51,70,2
1,71,88,126
1,66,64,4
1,69,55,2
1,71,88,8
1,71,94,42
1,59,71,6
1,70,65,28
1,52,97,2
1,71,85,46
1,76,77,78
1,67,55,20
1,64,45,4
1,79,87,56
1,83,100,52
1,59,70,6
1,84,100,40
1,86,73,20
1,84,79,54
1,54,80,14
1,83,108,24
1,82,75,10
1,69,52,8
1,63,64,6
1,83,89,40
1,90,78,44
1,87,57,2
1,59,56,2
1,95,79,34
1,55,67,56
1,91,66,12
1,88,80,4
1,67,54,70
1,64,58,20
1,83,110,58
1,59,51,16
1,84,78,12
1,57,36,34
1,95,87,8
1,93,72,18
1,66,18,8
1,64,43,16
1,90,52,32
1,84,70,10
1,60,36,18
1,83,83,14
1,59,46,56
1,93,59,10
1,71,43,86
1,91,53,2
1,67,54,2
1,88,43,12
1,83,73,24
1,64,58,0
1,81,56,24
1,47,55,60
1,91,60,2
1,90,41,160
1,66,38,6
1,69,24,0
1,87,39,0
1,81,50,0
1,59,37,4
1,88,41,82
1,67,27,4
1,64,34,2
1,79,36,0
1,52,31,98
1,63,40,112
1,66,22,124
1,47,20,32
1,73,62,30
1,69,27,256
1,59,37,166
1,71,71,238
1,47,20,2
1,69,42,88
1,59,36,126
1,73,66,34
1,52,51,0
1,75,68,24
1,76,74,8
1,68,44,0
1,78,81,90
1,80,73,52
1,59,18,8
1,81,75,10
1,56,25,38
1,85,64,20
1,71,27,108
1,64,31,184
1,83,75,8
1,71,52,76
1,47,36,60
1,80,75,4
1,71,50,164
1,59,60,156
1,70,44,112
1,79,88,38
1,47,50,0
1,61,53,76
1,59,40,92
1,69,52,0
1,47,44,56
1,78,67,18
1,80,59,0
1,63,42,84
1,78,46,14
1,76,54,0
1,75,50,40
1,59,28,12
1,73,47,30
1,68,46,40
1,52,27,36
1,73,55,30
1,64,37,34
1,59,25,44
1,71,41,22
1,63,37,146
1,66,29,52
1,47,44,12
1,73,64,22
1,69,31,170
1,59,31,154
1,47,53,168
1,71,74,8
1,69,52,130
1,59,56,164
1,73,72,32
1,52,54,10
1,75,72,4
1,68,53,56
1,76,78,8
1,78,84,74
1,80,81,64
1,59,26,8
1,81,83,2
1,85,75,52
1,56,31,8
1,71,38,80
1,83,82,114
1,64,17,16
1,71,51,96
1,80,84,64
1,47,41,0
1,71,70,142
1,59,55,154
1,70,50,84
1,47,39,2
1,79,84,22
1,64,56,108
1,61,39,6
1,59,36,82
1,69,57,2
1,78,71,64
1,80,78,14
1,47,40,58
1,78,59,12
1,66,24,190
1,63,25,16
1,77,66,10
1,78,68,18
1,59,31,52
1,81,54,12
1,80,68,108
1,52,26,12
1,59,18,34
1,68,38,10
1,64,28,12
1,76,48,0
1,78,60,142
1,80,68,84
1,75,53,20
1,76,37,6
1,73,36,10
1,63,33,164
1,66,27,16
1,47,21,0
1,73,62,128
1,69,24,200
1,59,31,116
1,71,63,188
1,47,40,8
1,69,42,146
1,59,42,132
1,73,62,42
1,52,56,14
1,75,66,44
1,76,68,84
1,68,51,2
1,78,70,16
1,80,74,54
1,59,26,18
1,81,72,22
1,85,55,42
1,56,40,8
1,71,50,64
1,83,83,116
1,64,38,10
1,71,67,56
1,80,82,2
1,47,46,20
1,71,70,120
1,59,46,172
1,70,51,74
1,47,35,40
1,79,83,10
1,61,38,104
1,59,17,102
1,69,50,2
1,78,53,0
1,47,46,26
1,80,52,2
1,78,50,90
1,63,49,6
1,76,36,14
1,59,49,0
1,75,57,2
1,73,46,0
1,68,42,48
1,52,42,44
1,73,51,26
1,64,51,116
1,59,39,48
1,71,61,6
1,63,62,84
1,66,36,14
1,47,53,6
1,73,78,10
1,69,50,110
1,59,51,142
1,71,83,168
1,47,41,6
1,69,53,104
1,59,52,130
1,52,49,18
1,73,69,12
1,75,72,12
1,76,81,52
1,68,50,2
1,78,84,78
1,80,85,80
1,59,35,2
1,81,87,8
1,56,24,20
1,85,84,26
1,71,49,56
1,64,42,154
1,83,81,28
1,71,75,108
1,47,44,16
1,80,83,76
1,71,72,142
1,59,67,144
1,47,49,24
1,70,68,8
1,79,91,0
1,61,31,14
1,64,51,8
1,59,59,96
1,69,61,26
1,78,66,74
1,80,80,26
1,47,41,38
1,78,82,28
1,66,31,190
1,77,72,8
1,63,21,16
1,78,68,144
1,81,64,104
1,59,22,24
1,80,65,44
1,76,55,270
1,68,16,12
1,64,23,2
1,59,17,12
1,52,26,16
1,68,86,328
1,68,88,116
1,56,90,2
1,63,83,6
1,60,85,2
1,31,100,0
1,32,81,106
1,36,90,66
1,39,48,4
1,43,91,90
1,44,95,22
1,58,86,38
1,68,88,2
1,61,86,4
1,56,94,4
1,56,83,150
1,68,79,2
1,61,71,4
1,64,82,2
1,37,92,0
1,56,82,34
1,68,81,0
1,31,107,4
1,60,78,0
1,63,73,4
1,32,81,96
