track,note,velocity,time
1.0,59.0,59.0,0.0
1.0,71.0,66.0,70.0
1.0,71.0,85.0,58.0
1.0,59.0,38.0,10.0
1.0,64.0,45.0,2.0
1.0,55.0,24.0,2.0
1.0,59.0,27.0,220.0
1.0,64.0,35.0,10.0
1.0,55.0,21.0,0.0
1.0,64.0,17.0,332.0
1.0,55.0,21.0,12.0
1.0,59.0,16.0,2.0
1.0,64.0,28.0,298.0
1.0,59.0,17.0,12.0
1.0,55.0,14.0,0.0
1.0,64.0,45.0,256.0
1.0,59.0,29.0,0.0
1.0,55.0,29.0,8.0
1.0,55.0,45.0,180.0
1.0,64.0,52.0,0.0
1.0,59.0,40.0,4.0
1.0,72.0,101.0,206.0
1.0,64.0,32.0,28.0
1.0,59.0,25.0,4.0
1.0,55.0,33.0,12.0
1.0,64.0,44.0,158.0
1.0,59.0,31.0,2.0
1.0,55.0,37.0,16.0
1.0,71.0,79.0,336.0
1.0,64.0,50.0,26.0
1.0,54.0,35.0,2.0
1.0,57.0,26.0,8.0
1.0,54.0,26.0,184.0
1.0,64.0,41.0,12.0
1.0,57.0,20.0,12.0
1.0,64.0,42.0,212.0
1.0,57.0,44.0,0.0
1.0,54.0,29.0,12.0
1.0,64.0,42.0,226.0
1.0,54.0,29.0,8.0
1.0,57.0,29.0,14.0
1.0,63.0,40.0,288.0
1.0,54.0,36.0,8.0
1.0,57.0,17.0,16.0
1.0,63.0,43.0,184.0
1.0,57.0,33.0,10.0
1.0,54.0,26.0,10.0
1.0,72.0,101.0,234.0
1.0,63.0,26.0,28.0
1.0,54.0,30.0,10.0
1.0,57.0,10.0,10.0
1.0,63.0,43.0,170.0
1.0,57.0,40.0,10.0
1.0,54.0,22.0,8.0
1.0,71.0,78.0,314.0
1.0,63.0,43.0,4.0
1.0,57.0,38.0,24.0
1.0,53.0,32.0,4.0
1.0,63.0,46.0,182.0
1.0,57.0,24.0,8.0
1.0,53.0,13.0,8.0
1.0,63.0,51.0,222.0
1.0,57.0,47.0,18.0
1.0,53.0,31.0,6.0
1.0,63.0,53.0,222.0
1.0,57.0,43.0,8.0
1.0,53.0,33.0,16.0
1.0,62.0,35.0,284.0
1.0,57.0,34.0,18.0
1.0,53.0,23.0,6.0
1.0,62.0,40.0,196.0
1.0,57.0,31.0,8.0
1.0,53.0,27.0,8.0
1.0,72.0,80.0,208.0
1.0,56.0,35.0,24.0
1.0,62.0,34.0,6.0
1.0,53.0,27.0,20.0
1.0,56.0,36.0,206.0
1.0,62.0,34.0,16.0
1.0,53.0,28.0,2.0
1.0,62.0,31.0,270.0
1.0,71.0,63.0,2.0
1.0,56.0,27.0,4.0
1.0,52.0,31.0,20.0
1.0,56.0,36.0,220.0
1.0,52.0,22.0,2.0
1.0,62.0,27.0,14.0
1.0,56.0,41.0,208.0
1.0,62.0,42.0,8.0
1.0,52.0,35.0,16.0
1.0,56.0,37.0,208.0
1.0,62.0,48.0,2.0
1.0,52.0,38.0,20.0
1.0,62.0,29.0,0.0
1.0,55.0,32.0,14.0
1.0,52.0,31.0,14.0
1.0,62.0,28.0,268.0
1.0,52.0,14.0,22.0
1.0,55.0,15.0,4.0
1.0,70.0,65.0,340.0
1.0,52.0,23.0,26.0
1.0,61.0,23.0,2.0
1.0,55.0,13.0,6.0
1.0,61.0,22.0,234.0
1.0,55.0,22.0,26.0
1.0,52.0,22.0,14.0
1.0,69.0,55.0,450.0
1.0,60.0,20.0,12.0
1.0,55.0,23.0,20.0
1.0,52.0,31.0,2.0
1.0,60.0,42.0,210.0
1.0,55.0,24.0,24.0
1.0,52.0,31.0,6.0
1.0,60.0,37.0,250.0
1.0,52.0,31.0,14.0
1.0,55.0,30.0,0.0
1.0,60.0,36.0,270.0
1.0,55.0,35.0,10.0
1.0,52.0,21.0,16.0
1.0,60.0,28.0,320.0
1.0,54.0,36.0,6.0
1.0,52.0,26.0,8.0
1.0,52.0,42.0,214.0
1.0,60.0,38.0,6.0
1.0,54.0,34.0,8.0
1.0,71.0,88.0,278.0
1.0,54.0,26.0,32.0
1.0,60.0,30.0,0.0
1.0,52.0,13.0,6.0
1.0,60.0,37.0,264.0
1.0,54.0,33.0,10.0
1.0,52.0,26.0,6.0
1.0,69.0,84.0,290.0
1.0,54.0,28.0,30.0
1.0,60.0,30.0,2.0
1.0,52.0,27.0,12.0
1.0,54.0,42.0,190.0
1.0,60.0,46.0,4.0
1.0,52.0,48.0,16.0
1.0,60.0,60.0,182.0
1.0,54.0,49.0,2.0
1.0,52.0,54.0,6.0
1.0,60.0,42.0,192.0
1.0,52.0,52.0,6.0
1.0,54.0,34.0,2.0
1.0,51.0,47.0,176.0
1.0,60.0,34.0,8.0
1.0,54.0,31.0,4.0
1.0,51.0,47.0,186.0
1.0,60.0,41.0,12.0
1.0,54.0,30.0,2.0
1.0,71.0,83.0,150.0
1.0,51.0,36.0,12.0
1.0,60.0,37.0,8.0
1.0,54.0,27.0,14.0
1.0,60.0,36.0,218.0
1.0,54.0,36.0,0.0
1.0,51.0,40.0,0.0
1.0,69.0,60.0,202.0
1.0,54.0,23.0,16.0
1.0,60.0,23.0,4.0
1.0,50.0,39.0,4.0
1.0,54.0,33.0,160.0
1.0,60.0,33.0,14.0
1.0,50.0,15.0,2.0
1.0,50.0,34.0,182.0
1.0,60.0,36.0,4.0
1.0,54.0,36.0,6.0
1.0,60.0,50.0,160.0
1.0,54.0,33.0,2.0
1.0,50.0,32.0,18.0
1.0,50.0,52.0,136.0
1.0,60.0,57.0,0.0
1.0,54.0,51.0,2.0
1.0,60.0,61.0,134.0
1.0,54.0,57.0,2.0
1.0,50.0,44.0,12.0
1.0,71.0,90.0,166.0
1.0,54.0,40.0,28.0
1.0,60.0,37.0,4.0
1.0,50.0,36.0,8.0
1.0,54.0,47.0,318.0
1.0,60.0,48.0,2.0
1.0,50.0,36.0,24.0
1.0,69.0,96.0,30.0
1.0,60.0,36.0,48.0
1.0,69.0,106.0,4.0
1.0,53.0,38.0,2.0
1.0,50.0,34.0,10.0
1.0,53.0,45.0,150.0
1.0,60.0,59.0,12.0
1.0,50.0,48.0,10.0
1.0,53.0,39.0,160.0
1.0,60.0,59.0,4.0
1.0,50.0,24.0,18.0
1.0,60.0,42.0,192.0
1.0,53.0,46.0,8.0
1.0,50.0,22.0,30.0
1.0,59.0,31.0,224.0
1.0,50.0,26.0,18.0
1.0,53.0,31.0,4.0
1.0,53.0,28.0,208.0
1.0,59.0,30.0,4.0
1.0,50.0,31.0,20.0
1.0,68.0,65.0,242.0
1.0,59.0,24.0,28.0
1.0,53.0,27.0,18.0
1.0,50.0,26.0,2.0
1.0,59.0,43.0,164.0
1.0,53.0,36.0,12.0
1.0,50.0,38.0,0.0
1.0,59.0,36.0,146.0
1.0,48.0,29.0,18.0
1.0,52.0,31.0,2.0
1.0,59.0,45.0,160.0
1.0,48.0,30.0,24.0
1.0,52.0,25.0,16.0
1.0,69.0,89.0,156.0
1.0,57.0,57.0,16.0
1.0,48.0,26.0,26.0
1.0,52.0,26.0,2.0
1.0,71.0,95.0,186.0
1.0,57.0,50.0,24.0
1.0,52.0,45.0,6.0
1.0,48.0,41.0,6.0
1.0,74.0,101.0,136.0
1.0,57.0,37.0,24.0
1.0,52.0,42.0,16.0
1.0,48.0,31.0,2.0
1.0,72.0,98.0,166.0
1.0,52.0,25.0,24.0
1.0,57.0,27.0,2.0
1.0,48.0,31.0,14.0
1.0,64.0,91.0,186.0
1.0,57.0,40.0,22.0
1.0,52.0,34.0,14.0
1.0,48.0,38.0,2.0
1.0,69.0,98.0,130.0
1.0,57.0,36.0,18.0
1.0,52.0,42.0,22.0
1.0,48.0,49.0,6.0
1.0,66.0,79.0,202.0
1.0,57.0,28.0,20.0
1.0,52.0,35.0,8.0
1.0,47.0,25.0,12.0
1.0,47.0,26.0,182.0
1.0,57.0,38.0,4.0
1.0,52.0,42.0,12.0
1.0,51.0,61.0,166.0
1.0,57.0,51.0,12.0
1.0,47.0,34.0,4.0
1.0,57.0,51.0,148.0
1.0,51.0,54.0,8.0
1.0,47.0,40.0,2.0
1.0,57.0,39.0,26.0
1.0,52.0,52.0,8.0
1.0,48.0,44.0,4.0
1.0,57.0,34.0,224.0
1.0,52.0,26.0,12.0
1.0,48.0,21.0,6.0
1.0,57.0,37.0,256.0
1.0,52.0,34.0,10.0
1.0,48.0,33.0,4.0
1.0,69.0,82.0,30.0
1.0,57.0,34.0,168.0
1.0,52.0,36.0,2.0
1.0,48.0,33.0,10.0
1.0,66.0,62.0,400.0
1.0,51.0,32.0,16.0
1.0,57.0,34.0,10.0
1.0,47.0,19.0,2.0
1.0,57.0,30.0,218.0
1.0,47.0,23.0,8.0
1.0,51.0,36.0,16.0
1.0,47.0,21.0,240.0
1.0,57.0,36.0,2.0
1.0,51.0,37.0,2.0
1.0,57.0,29.0,270.0
1.0,51.0,36.0,6.0
1.0,47.0,23.0,4.0
1.0,57.0,34.0,10.0
1.0,48.0,32.0,4.0
1.0,52.0,27.0,2.0
1.0,57.0,21.0,240.0
1.0,52.0,25.0,18.0
1.0,48.0,14.0,2.0
1.0,57.0,18.0,342.0
1.0,48.0,17.0,14.0
1.0,52.0,11.0,6.0
1.0,71.0,39.0,32.0
1.0,69.0,47.0,288.0
1.0,57.0,29.0,154.0
1.0,48.0,26.0,6.0
1.0,52.0,38.0,10.0
1.0,67.0,50.0,630.0
1.0,57.0,20.0,20.0
1.0,51.0,30.0,8.0
1.0,47.0,16.0,8.0
1.0,66.0,48.0,314.0
1.0,60.0,72.0,2.0
1.0,59.0,78.0,214.0
1.0,63.0,80.0,44.0
1.0,66.0,78.0,48.0
1.0,74.0,75.0,130.0
1.0,72.0,85.0,116.0
1.0,71.0,79.0,96.0
1.0,59.0,15.0,54.0
1.0,64.0,21.0,0.0
1.0,55.0,13.0,8.0
1.0,71.0,68.0,2.0
1.0,64.0,30.0,350.0
1.0,59.0,15.0,18.0
1.0,55.0,8.0,16.0
1.0,64.0,40.0,272.0
1.0,59.0,38.0,16.0
1.0,55.0,26.0,8.0
1.0,64.0,38.0,230.0
1.0,59.0,35.0,6.0
1.0,55.0,30.0,24.0
1.0,64.0,38.0,258.0
1.0,59.0,27.0,14.0
1.0,55.0,16.0,4.0
1.0,64.0,33.0,284.0
1.0,59.0,23.0,2.0
1.0,55.0,27.0,10.0
1.0,72.0,76.0,328.0
1.0,64.0,34.0,28.0
1.0,59.0,14.0,6.0
1.0,55.0,33.0,4.0
1.0,55.0,21.0,250.0
1.0,64.0,34.0,2.0
1.0,59.0,21.0,6.0
1.0,71.0,55.0,378.0
1.0,64.0,41.0,8.0
1.0,57.0,30.0,10.0
1.0,54.0,29.0,14.0
1.0,64.0,39.0,240.0
1.0,54.0,30.0,8.0
1.0,57.0,26.0,2.0
1.0,64.0,48.0,216.0
1.0,57.0,44.0,12.0
1.0,54.0,36.0,8.0
1.0,64.0,54.0,240.0
1.0,57.0,39.0,4.0
1.0,54.0,39.0,10.0
1.0,63.0,51.0,232.0
1.0,57.0,46.0,18.0
1.0,53.0,33.0,2.0
1.0,63.0,53.0,140.0
1.0,53.0,40.0,22.0
1.0,57.0,52.0,18.0
1.0,63.0,54.0,270.0
1.0,57.0,51.0,22.0
1.0,53.0,30.0,10.0
1.0,72.0,97.0,36.0
1.0,63.0,53.0,222.0
1.0,57.0,59.0,14.0
1.0,53.0,51.0,6.0
1.0,63.0,52.0,240.0
1.0,53.0,43.0,8.0
1.0,56.0,42.0,4.0
1.0,71.0,84.0,34.0
1.0,56.0,47.0,146.0
1.0,63.0,68.0,0.0
1.0,53.0,58.0,6.0
1.0,56.0,56.0,146.0
1.0,62.0,67.0,8.0
1.0,53.0,52.0,12.0
1.0,62.0,68.0,124.0
1.0,53.0,59.0,10.0
1.0,56.0,44.0,0.0
1.0,56.0,76.0,56.0
1.0,62.0,46.0,36.0
1.0,52.0,48.0,4.0
1.0,56.0,47.0,82.0
1.0,62.0,53.0,16.0
1.0,52.0,51.0,8.0
1.0,56.0,55.0,142.0
1.0,62.0,54.0,4.0
1.0,52.0,53.0,14.0
1.0,72.0,108.0,34.0
1.0,62.0,66.0,206.0
1.0,56.0,65.0,4.0
1.0,52.0,53.0,8.0
1.0,52.0,63.0,142.0
1.0,55.0,68.0,0.0
1.0,62.0,63.0,2.0
1.0,71.0,97.0,34.0
1.0,62.0,71.0,126.0
1.0,55.0,71.0,2.0
1.0,52.0,66.0,18.0
1.0,70.0,106.0,2.0
1.0,61.0,70.0,16.0
1.0,52.0,44.0,6.0
1.0,70.0,113.0,16.0
1.0,55.0,67.0,2.0
1.0,61.0,83.0,106.0
1.0,52.0,53.0,8.0
1.0,55.0,58.0,14.0
1.0,71.0,93.0,42.0
1.0,70.0,97.0,0.0
1.0,69.0,111.0,60.0
1.0,70.0,105.0,70.0
1.0,49.0,69.0,46.0
1.0,58.0,85.0,0.0
1.0,52.0,83.0,0.0
1.0,79.0,117.0,100.0
1.0,58.0,94.0,82.0
1.0,49.0,64.0,6.0
1.0,52.0,75.0,6.0
1.0,57.0,91.0,28.0
1.0,48.0,88.0,2.0
1.0,52.0,91.0,2.0
1.0,78.0,106.0,4.0
1.0,57.0,72.0,70.0
1.0,52.0,74.0,8.0
1.0,48.0,81.0,2.0
1.0,76.0,115.0,102.0
1.0,76.0,124.0,42.0
1.0,47.0,102.0,12.0
1.0,35.0,100.0,4.0
1.0,75.0,108.0,204.0
1.0,69.0,91.0,4.0
1.0,57.0,67.0,2.0
1.0,66.0,78.0,6.0
1.0,60.0,72.0,0.0
1.0,84.0,115.0,56.0
1.0,69.0,81.0,8.0
1.0,66.0,74.0,4.0
1.0,57.0,68.0,8.0
1.0,60.0,57.0,14.0
1.0,75.0,112.0,126.0
1.0,69.0,98.0,8.0
1.0,60.0,79.0,4.0
1.0,66.0,81.0,0.0
1.0,57.0,81.0,4.0
1.0,75.0,103.0,50.0
1.0,66.0,83.0,6.0
1.0,59.0,63.0,18.0
1.0,55.0,58.0,2.0
1.0,63.0,59.0,4.0
1.0,76.0,110.0,76.0
1.0,64.0,87.0,6.0
1.0,59.0,50.0,4.0
1.0,55.0,59.0,10.0
1.0,79.0,99.0,130.0
1.0,64.0,51.0,24.0
1.0,55.0,32.0,4.0
1.0,59.0,36.0,10.0
1.0,71.0,90.0,106.0
1.0,55.0,36.0,36.0
1.0,64.0,50.0,6.0
1.0,59.0,22.0,8.0
1.0,74.0,95.0,256.0
1.0,64.0,45.0,12.0
1.0,60.0,38.0,2.0
1.0,57.0,31.0,20.0
1.0,72.0,104.0,108.0
1.0,64.0,47.0,36.0
1.0,57.0,21.0,8.0
1.0,60.0,41.0,0.0
1.0,76.0,90.0,244.0
1.0,45.0,47.0,22.0
1.0,64.0,84.0,132.0
1.0,60.0,50.0,118.0
1.0,54.0,40.0,6.0
1.0,52.0,40.0,8.0
1.0,69.0,76.0,42.0
1.0,59.0,36.0,232.0
1.0,47.0,23.0,4.0
1.0,52.0,36.0,2.0
1.0,66.0,70.0,74.0
1.0,52.0,35.0,190.0
1.0,59.0,41.0,0.0
1.0,47.0,27.0,0.0
1.0,57.0,49.0,180.0
1.0,48.0,41.0,12.0
1.0,52.0,39.0,12.0
1.0,69.0,52.0,278.0
1.0,57.0,30.0,14.0
1.0,52.0,28.0,4.0
1.0,48.0,27.0,10.0
1.0,66.0,55.0,194.0
1.0,59.0,25.0,16.0
1.0,52.0,31.0,8.0
1.0,47.0,19.0,8.0
1.0,59.0,17.0,242.0
1.0,52.0,27.0,2.0
1.0,47.0,3.0,10.0
1.0,59.0,15.0,254.0
1.0,52.0,24.0,2.0
1.0,47.0,5.0,28.0
1.0,59.0,17.0,250.0
1.0,47.0,14.0,10.0
1.0,52.0,36.0,8.0
1.0,57.0,36.0,264.0
1.0,48.0,31.0,12.0
1.0,52.0,34.0,8.0
1.0,52.0,28.0,178.0
1.0,57.0,34.0,12.0
1.0,48.0,31.0,24.0
1.0,57.0,20.0,386.0
1.0,48.0,6.0,24.0
1.0,52.0,12.0,8.0
1.0,71.0,32.0,0.0
1.0,69.0,55.0,128.0
1.0,57.0,31.0,152.0
1.0,48.0,32.0,4.0
1.0,52.0,36.0,2.0
1.0,66.0,63.0,294.0
1.0,59.0,22.0,28.0
1.0,52.0,37.0,6.0
1.0,47.0,21.0,16.0
1.0,47.0,19.0,194.0
1.0,59.0,21.0,12.0
1.0,52.0,35.0,6.0
1.0,59.0,18.0,282.0
1.0,52.0,38.0,2.0
1.0,47.0,19.0,14.0
1.0,59.0,25.0,264.0
1.0,52.0,36.0,26.0
1.0,47.0,16.0,6.0
1.0,51.0,31.0,288.0
1.0,59.0,30.0,12.0
1.0,47.0,26.0,4.0
1.0,51.0,27.0,254.0
1.0,59.0,19.0,6.0
1.0,47.0,8.0,14.0
1.0,51.0,19.0,298.0
1.0,47.0,12.0,8.0
1.0,57.0,32.0,4.0
1.0,47.0,7.0,280.0
1.0,51.0,26.0,2.0
1.0,57.0,23.0,2.0
1.0,64.0,64.0,0.0
1.0,64.0,55.0,78.0
1.0,55.0,29.0,54.0
1.0,48.0,18.0,8.0
1.0,55.0,31.0,184.0
1.0,48.0,15.0,14.0
1.0,48.0,38.0,162.0
1.0,55.0,41.0,2.0
1.0,48.0,36.0,198.0
1.0,55.0,56.0,6.0
1.0,58.0,70.0,256.0
1.0,48.0,35.0,16.0
1.0,58.0,59.0,184.0
1.0,48.0,43.0,12.0
1.0,66.0,75.0,292.0
1.0,57.0,38.0,4.0
1.0,48.0,40.0,2.0
1.0,52.0,32.0,4.0
1.0,52.0,43.0,142.0
1.0,48.0,43.0,8.0
1.0,57.0,54.0,2.0
1.0,57.0,33.0,288.0
1.0,64.0,66.0,0.0
1.0,52.0,33.0,18.0
1.0,47.0,18.0,4.0
1.0,57.0,41.0,226.0
1.0,52.0,20.0,16.0
1.0,47.0,15.0,6.0
1.0,56.0,39.0,286.0
1.0,47.0,19.0,8.0
1.0,52.0,36.0,0.0
1.0,56.0,34.0,224.0
1.0,47.0,23.0,10.0
1.0,52.0,29.0,2.0
1.0,55.0,29.0,358.0
1.0,47.0,18.0,10.0
1.0,52.0,25.0,2.0
1.0,52.0,11.0,282.0
1.0,55.0,20.0,8.0
1.0,47.0,9.0,4.0
1.0,47.0,9.0,342.0
1.0,52.0,25.0,4.0
1.0,55.0,16.0,8.0
1.0,66.0,38.0,8.0
1.0,52.0,13.0,494.0
1.0,47.0,16.0,4.0
1.0,55.0,18.0,2.0
1.0,64.0,35.0,456.0
1.0,46.0,50.0,0.0
1.0,48.0,14.0,6.0
1.0,55.0,14.0,0.0
1.0,64.0,53.0,730.0
1.0,35.0,22.0,2.0
1.0,54.0,34.0,4.0
1.0,52.0,48.0,2.0
1.0,59.0,40.0,0.0
1.0,47.0,26.0,2.0
1.0,51.0,37.0,940.0
1.0,54.0,23.0,4.0
1.0,63.0,34.0,2.0
1.0,59.0,26.0,2.0
1.0,47.0,15.0,2.0
1.0,42.0,19.0,0.0
1.0,35.0,13.0,2.0
1.0,28.0,31.0,1494.0
1.0,40.0,33.0,2.0
1.0,59.0,29.0,0.0
1.0,64.0,15.0,0.0
1.0,52.0,30.0,2.0
1.0,55.0,22.0,4.0
0.0,0.0,0.0,0.0
0.0,0.0,0.0,0.0
0.0,0.0,0.0,0.0
0.0,0.0,0.0,0.0
0.0,0.0,0.0,0.0
0.0,0.0,0.0,0.0
0.0,0.0,0.0,0.0
0.0,0.0,0.0,0.0
0.0,0.0,0.0,0.0
0.0,0.0,0.0,0.0
0.0,0.0,0.0,0.0
0.0,0.0,0.0,0.0
0.0,0.0,0.0,0.0
0.0,0.0,0.0,0.0
0.0,0.0,0.0,0.0
0.0,0.0,0.0,0.0
0.0,0.0,0.0,0.0
0.0,0.0,0.0,0.0
0.0,0.0,0.0,0.0
0.0,0.0,0.0,0.0
0.0,0.0,0.0,0.0
0.0,0.0,0.0,0.0
0.0,0.0,0.0,0.0
0.0,0.0,0.0,0.0
0.0,0.0,0.0,0.0
0.0,0.0,0.0,0.0
0.0,0.0,0.0,0.0
0.0,0.0,0.0,0.0
0.0,0.0,0.0,0.0
0.0,0.0,0.0,0.0
0.0,0.0,0.0,0.0
0.0,0.0,0.0,0.0
0.0,0.0,0.0,0.0
0.0,0.0,0.0,0.0
0.0,0.0,0.0,0.0
0.0,0.0,0.0,0.0
0.0,0.0,0.0,0.0
0.0,0.0,0.0,0.0
0.0,0.0,0.0,0.0
0.0,0.0,0.0,0.0
0.0,0.0,0.0,0.0
0.0,0.0,0.0,0.0
0.0,0.0,0.0,0.0
0.0,0.0,0.0,0.0
0.0,0.0,0.0,0.0
0.0,0.0,0.0,0.0
0.0,0.0,0.0,0.0
0.0,0.0,0.0,0.0
0.0,0.0,0.0,0.0
0.0,0.0,0.0,0.0
0.0,0.0,0.0,0.0
0.0,0.0,0.0,0.0
0.0,0.0,0.0,0.0
0.0,0.0,0.0,0.0
0.0,0.0,0.0,0.0
0.0,0.0,0.0,0.0
0.0,0.0,0.0,0.0
0.0,0.0,0.0,0.0
0.0,0.0,0.0,0.0
0.0,0.0,0.0,0.0
0.0,0.0,0.0,0.0
0.0,0.0,0.0,0.0
0.0,0.0,0.0,0.0
0.0,0.0,0.0,0.0
0.0,0.0,0.0,0.0
0.0,0.0,0.0,0.0
0.0,0.0,0.0,0.0
0.0,0.0,0.0,0.0
0.0,0.0,0.0,0.0
0.0,0.0,0.0,0.0
0.0,0.0,0.0,0.0
0.0,0.0,0.0,0.0
0.0,0.0,0.0,0.0
0.0,0.0,0.0,0.0
0.0,0.0,0.0,0.0
0.0,0.0,0.0,0.0
0.0,0.0,0.0,0.0
0.0,0.0,0.0,0.0
0.0,0.0,0.0,0.0
0.0,0.0,0.0,0.0
0.0,0.0,0.0,0.0
0.0,0.0,0.0,0.0
0.0,0.0,0.0,0.0
0.0,0.0,0.0,0.0
0.0,0.0,0.0,0.0
0.0,0.0,0.0,0.0
0.0,0.0,0.0,0.0
0.0,0.0,0.0,0.0
0.0,0.0,0.0,0.0
0.0,0.0,0.0,0.0
0.0,0.0,0.0,0.0
0.0,0.0,0.0,0.0
0.0,0.0,0.0,0.0
0.0,0.0,0.0,0.0
0.0,0.0,0.0,0.0
0.0,0.0,0.0,0.0
0.0,0.0,0.0,0.0
0.0,0.0,0.0,0.0
0.0,0.0,0.0,0.0
0.0,0.0,0.0,0.0
0.0,0.0,0.0,0.0
0.0,0.0,0.0,0.0
0.0,0.0,0.0,0.0
0.0,0.0,0.0,0.0
0.0,0.0,0.0,0.0
0.0,0.0,0.0,0.0
0.0,0.0,0.0,0.0
0.0,0.0,0.0,0.0
0.0,0.0,0.0,0.0
0.0,0.0,0.0,0.0
0.0,0.0,0.0,0.0
0.0,0.0,0.0,0.0
0.0,0.0,0.0,0.0
0.0,0.0,0.0,0.0
0.0,0.0,0.0,0.0
0.0,0.0,0.0,0.0
0.0,0.0,0.0,0.0
0.0,0.0,0.0,0.0
0.0,0.0,0.0,0.0
0.0,0.0,0.0,0.0
0.0,0.0,0.0,0.0
0.0,0.0,0.0,0.0
0.0,0.0,0.0,0.0
0.0,0.0,0.0,0.0
0.0,0.0,0.0,0.0
0.0,0.0,0.0,0.0
0.0,0.0,0.0,0.0
0.0,0.0,0.0,0.0
0.0,0.0,0.0,0.0
0.0,0.0,0.0,0.0
0.0,0.0,0.0,0.0
0.0,0.0,0.0,0.0
0.0,0.0,0.0,0.0
0.0,0.0,0.0,0.0
0.0,0.0,0.0,0.0
0.0,0.0,0.0,0.0
0.0,0.0,0.0,0.0
0.0,0.0,0.0,0.0
0.0,0.0,0.0,0.0
0.0,0.0,0.0,0.0
0.0,0.0,0.0,0.0
0.0,0.0,0.0,0.0
0.0,0.0,0.0,0.0
0.0,0.0,0.0,0.0
0.0,0.0,0.0,0.0
0.0,0.0,0.0,0.0
0.0,0.0,0.0,0.0
0.0,0.0,0.0,0.0
0.0,0.0,0.0,0.0
0.0,0.0,0.0,0.0
0.0,0.0,0.0,0.0
0.0,0.0,0.0,0.0
0.0,0.0,0.0,0.0
0.0,0.0,0.0,0.0
0.0,0.0,0.0,0.0
0.0,0.0,0.0,0.0
0.0,0.0,0.0,0.0
0.0,0.0,0.0,0.0
0.0,0.0,0.0,0.0
0.0,0.0,0.0,0.0
0.0,0.0,0.0,0.0
0.0,0.0,0.0,0.0
0.0,0.0,0.0,0.0
0.0,0.0,0.0,0.0
0.0,0.0,0.0,0.0
0.0,0.0,0.0,0.0
0.0,0.0,0.0,0.0
0.0,0.0,0.0,0.0
0.0,0.0,0.0,0.0
0.0,0.0,0.0,0.0
0.0,0.0,0.0,0.0
0.0,0.0,0.0,0.0
0.0,0.0,0.0,0.0
0.0,0.0,0.0,0.0
0.0,0.0,0.0,0.0
0.0,0.0,0.0,0.0
0.0,0.0,0.0,0.0
0.0,0.0,0.0,0.0
0.0,0.0,0.0,0.0
0.0,0.0,0.0,0.0
0.0,0.0,0.0,0.0
0.0,0.0,0.0,0.0
0.0,0.0,0.0,0.0
0.0,0.0,0.0,0.0
0.0,0.0,0.0,0.0
0.0,0.0,0.0,0.0
0.0,0.0,0.0,0.0
0.0,0.0,0.0,0.0
0.0,0.0,0.0,0.0
0.0,0.0,0.0,0.0
0.0,0.0,0.0,0.0
0.0,0.0,0.0,0.0
0.0,0.0,0.0,0.0
0.0,0.0,0.0,0.0
0.0,0.0,0.0,0.0
0.0,0.0,0.0,0.0
0.0,0.0,0.0,0.0
0.0,0.0,0.0,0.0
0.0,0.0,0.0,0.0
0.0,0.0,0.0,0.0
0.0,0.0,0.0,0.0
0.0,0.0,0.0,0.0
0.0,0.0,0.0,0.0
0.0,0.0,0.0,0.0
0.0,0.0,0.0,0.0
0.0,0.0,0.0,0.0
0.0,0.0,0.0,0.0
0.0,0.0,0.0,0.0
0.0,0.0,0.0,0.0
0.0,0.0,0.0,0.0
0.0,0.0,0.0,0.0
0.0,0.0,0.0,0.0
0.0,0.0,0.0,0.0
0.0,0.0,0.0,0.0
0.0,0.0,0.0,0.0
0.0,0.0,0.0,0.0
0.0,0.0,0.0,0.0
0.0,0.0,0.0,0.0
0.0,0.0,0.0,0.0
0.0,0.0,0.0,0.0
0.0,0.0,0.0,0.0
0.0,0.0,0.0,0.0
0.0,0.0,0.0,0.0
0.0,0.0,0.0,0.0
0.0,0.0,0.0,0.0
0.0,0.0,0.0,0.0
0.0,0.0,0.0,0.0
0.0,0.0,0.0,0.0
0.0,0.0,0.0,0.0
0.0,0.0,0.0,0.0
0.0,0.0,0.0,0.0
0.0,0.0,0.0,0.0
0.0,0.0,0.0,0.0
0.0,0.0,0.0,0.0
0.0,0.0,0.0,0.0
0.0,0.0,0.0,0.0
0.0,0.0,0.0,0.0
0.0,0.0,0.0,0.0
0.0,0.0,0.0,0.0
0.0,0.0,0.0,0.0
0.0,0.0,0.0,0.0
0.0,0.0,0.0,0.0
0.0,0.0,0.0,0.0
0.0,0.0,0.0,0.0
0.0,0.0,0.0,0.0
0.0,0.0,0.0,0.0
0.0,0.0,0.0,0.0
0.0,0.0,0.0,0.0
0.0,0.0,0.0,0.0
0.0,0.0,0.0,0.0
0.0,0.0,0.0,0.0
0.0,0.0,0.0,0.0
0.0,0.0,0.0,0.0
0.0,0.0,0.0,0.0
0.0,0.0,0.0,0.0
0.0,0.0,0.0,0.0
0.0,0.0,0.0,0.0
0.0,0.0,0.0,0.0
0.0,0.0,0.0,0.0
0.0,0.0,0.0,0.0
0.0,0.0,0.0,0.0
0.0,0.0,0.0,0.0
0.0,0.0,0.0,0.0
0.0,0.0,0.0,0.0
0.0,0.0,0.0,0.0
0.0,0.0,0.0,0.0
0.0,0.0,0.0,0.0
0.0,0.0,0.0,0.0
0.0,0.0,0.0,0.0
0.0,0.0,0.0,0.0
0.0,0.0,0.0,0.0
0.0,0.0,0.0,0.0
0.0,0.0,0.0,0.0
0.0,0.0,0.0,0.0
0.0,0.0,0.0,0.0
0.0,0.0,0.0,0.0
0.0,0.0,0.0,0.0
0.0,0.0,0.0,0.0
0.0,0.0,0.0,0.0
0.0,0.0,0.0,0.0
0.0,0.0,0.0,0.0
0.0,0.0,0.0,0.0
0.0,0.0,0.0,0.0
0.0,0.0,0.0,0.0
0.0,0.0,0.0,0.0
0.0,0.0,0.0,0.0
0.0,0.0,0.0,0.0
0.0,0.0,0.0,0.0
0.0,0.0,0.0,0.0
0.0,0.0,0.0,0.0
0.0,0.0,0.0,0.0
0.0,0.0,0.0,0.0
0.0,0.0,0.0,0.0
0.0,0.0,0.0,0.0
0.0,0.0,0.0,0.0
0.0,0.0,0.0,0.0
0.0,0.0,0.0,0.0
0.0,0.0,0.0,0.0
0.0,0.0,0.0,0.0
0.0,0.0,0.0,0.0
0.0,0.0,0.0,0.0
0.0,0.0,0.0,0.0
0.0,0.0,0.0,0.0
0.0,0.0,0.0,0.0
0.0,0.0,0.0,0.0
0.0,0.0,0.0,0.0
0.0,0.0,0.0,0.0
0.0,0.0,0.0,0.0
0.0,0.0,0.0,0.0
0.0,0.0,0.0,0.0
0.0,0.0,0.0,0.0
0.0,0.0,0.0,0.0
0.0,0.0,0.0,0.0
0.0,0.0,0.0,0.0
0.0,0.0,0.0,0.0
0.0,0.0,0.0,0.0
0.0,0.0,0.0,0.0
0.0,0.0,0.0,0.0
0.0,0.0,0.0,0.0
0.0,0.0,0.0,0.0
0.0,0.0,0.0,0.0
0.0,0.0,0.0,0.0
0.0,0.0,0.0,0.0
0.0,0.0,0.0,0.0
0.0,0.0,0.0,0.0
0.0,0.0,0.0,0.0
0.0,0.0,0.0,0.0
0.0,0.0,0.0,0.0
0.0,0.0,0.0,0.0
0.0,0.0,0.0,0.0
0.0,0.0,0.0,0.0
0.0,0.0,0.0,0.0
0.0,0.0,0.0,0.0
0.0,0.0,0.0,0.0
0.0,0.0,0.0,0.0
0.0,0.0,0.0,0.0
0.0,0.0,0.0,0.0
0.0,0.0,0.0,0.0
0.0,0.0,0.0,0.0
0.0,0.0,0.0,0.0
0.0,0.0,0.0,0.0
0.0,0.0,0.0,0.0
0.0,0.0,0.0,0.0
0.0,0.0,0.0,0.0
0.0,0.0,0.0,0.0
0.0,0.0,0.0,0.0
0.0,0.0,0.0,0.0
0.0,0.0,0.0,0.0
0.0,0.0,0.0,0.0
0.0,0.0,0.0,0.0
0.0,0.0,0.0,0.0
0.0,0.0,0.0,0.0
0.0,0.0,0.0,0.0
0.0,0.0,0.0,0.0
0.0,0.0,0.0,0.0
0.0,0.0,0.0,0.0
0.0,0.0,0.0,0.0
0.0,0.0,0.0,0.0
0.0,0.0,0.0,0.0
0.0,0.0,0.0,0.0
0.0,0.0,0.0,0.0
0.0,0.0,0.0,0.0
0.0,0.0,0.0,0.0
0.0,0.0,0.0,0.0
0.0,0.0,0.0,0.0
0.0,0.0,0.0,0.0
0.0,0.0,0.0,0.0
0.0,0.0,0.0,0.0
0.0,0.0,0.0,0.0
0.0,0.0,0.0,0.0
0.0,0.0,0.0,0.0
0.0,0.0,0.0,0.0
0.0,0.0,0.0,0.0
0.0,0.0,0.0,0.0
0.0,0.0,0.0,0.0
0.0,0.0,0.0,0.0
0.0,0.0,0.0,0.0
0.0,0.0,0.0,0.0
0.0,0.0,0.0,0.0
0.0,0.0,0.0,0.0
0.0,0.0,0.0,0.0
0.0,0.0,0.0,0.0
0.0,0.0,0.0,0.0
0.0,0.0,0.0,0.0
0.0,0.0,0.0,0.0
0.0,0.0,0.0,0.0
0.0,0.0,0.0,0.0
0.0,0.0,0.0,0.0
0.0,0.0,0.0,0.0
0.0,0.0,0.0,0.0
0.0,0.0,0.0,0.0
0.0,0.0,0.0,0.0
0.0,0.0,0.0,0.0
0.0,0.0,0.0,0.0
0.0,0.0,0.0,0.0
0.0,0.0,0.0,0.0
