track,note,velocity,time
1,65,100,862
1,65,0,12
1,65,100,4
1,65,0,14
1,65,104,11
1,65,0,7
1,68,93,2
1,68,0,13
1,68,91,4
1,68,0,6
1,72,94,3
1,72,0,20
1,74,79,3
1,74,0,72
1,67,100,23
1,67,0,12
1,67,106,3
1,67,0,15
1,67,90,9
1,67,0,6
1,70,95,4
1,70,0,17
1,70,102,7
1,70,0,11
1,72,92,2
1,72,0,81
1,63,106,16
1,63,0,7
1,65,110,2
1,65,0,12
1,65,102,4
1,65,0,16
1,68,107,8
1,68,0,17
1,68,113,6
1,68,0,4
1,68,107,5
1,68,0,12
1,70,102,3
1,70,0,22
1,70,95,4
1,70,0,7
1,72,102,1
1,70,95,15
1,72,0,1
1,70,0,39
1,65,87,6
1,65,0,8
1,63,94,2
1,63,0,12
1,63,81,3
1,63,0,15
1,63,97,9
1,63,0,9
1,67,91,1
1,67,0,15
1,63,94,2
1,63,0,5
1,75,94,2
1,75,0,90
1,72,92,19
1,72,0,6
1,80,116,2
1,80,0,12
1,80,99,3
1,80,0,8
1,80,107,3
1,80,0,10
1,80,110,5
1,80,0,22
1,72,108,2
1,72,0,4
1,72,110,4
1,72,0,11
1,72,100,4
1,72,0,22
1,74,94,2
1,74,0,59
1,65,88,14
1,65,0,7
1,67,100,2
1,67,0,11
1,67,100,4
1,67,0,5
1,67,98,3
1,67,0,12
1,70,98,3
1,70,0,31
1,70,108,4
1,70,0,12
1,72,108,2
1,72,0,78
1,63,97,18
1,63,0,5
1,65,117,2
1,65,0,16
1,65,112,10
1,65,0,12
1,68,97,3
1,68,0,16
1,68,99,8
1,68,0,5
1,68,89,3
1,68,0,9
1,68,87,6
1,68,0,6
1,70,97,4
1,70,0,15
1,72,97,8
1,72,0,13
1,70,98,3
1,70,0,17
1,65,88,6
1,65,0,18
1,62,94,6
1,62,0,7
1,63,98,1
1,63,0,17
1,63,104,6
1,63,0,11
1,63,81,6
1,63,0,5
1,65,95,3
1,65,0,14
1,62,81,2
1,62,0,31
1,63,92,5
1,63,0,12
1,67,84,2
1,67,0,54
1,70,94,2
1,70,0,16
1,83,110,11
1,75,86,46
1,83,0,0
1,75,0,46
1,77,104,1
1,77,0,91
1,82,106,4
1,82,0,35
1,80,107,2
1,78,101,12
1,80,0,1
1,78,0,21
1,77,100,1
1,75,100,24
1,77,0,0
1,75,0,93
1,83,113,2
1,83,0,49
1,75,94,1
1,75,0,45
1,77,85,1
1,77,0,71
1,70,94,2
1,75,98,23
1,70,0,2
1,75,0,9
1,75,90,4
1,75,0,28
1,75,95,6
1,70,97,15
1,75,0,0
1,67,95,8
1,70,0,1
1,67,0,21
1,74,87,2
1,74,0,50
1,71,104,23
1,71,0,11
1,71,85,3
1,71,0,5
1,72,106,4
1,72,0,13
1,72,104,3
1,72,0,20
1,72,104,5
1,72,0,4
1,72,100,3
1,68,95,15
1,72,0,0
1,68,0,9
1,63,85,1
1,63,0,12
1,67,104,2
1,67,0,79
1,72,97,16
1,72,0,7
1,79,102,2
1,79,0,18
1,79,98,7
1,79,0,18
1,79,97,6
1,80,84,16
1,79,0,0
1,79,87,7
1,80,0,0
1,77,92,17
1,79,0,0
1,72,106,22
1,77,0,0
1,72,0,60
1,72,100,12
1,72,0,5
1,72,112,4
1,72,0,11
1,74,92,5
1,74,0,5
1,74,91,3
1,74,0,12
1,74,98,3
1,74,0,23
1,75,73,3
1,75,0,7
1,77,90,1
1,77,0,22
1,75,91,1
1,75,0,76
1,79,97,21
1,79,0,11
1,79,90,4
1,79,0,14
1,79,92,9
1,75,75,10
1,79,0,2
1,75,0,11
1,72,91,1
1,67,77,9
1,72,0,0
1,65,80,1
1,65,0,6
1,67,0,7
1,74,90,2
1,74,0,21
1,74,90,3
1,74,0,5
1,74,98,3
1,74,0,12
1,74,97,3
1,74,0,51
1,75,106,8
1,75,0,11
1,75,91,4
1,75,0,3
1,75,92,4
1,72,90,17
1,75,0,1
1,68,84,22
1,72,0,0
1,68,0,8
1,63,102,1
1,63,0,14
1,66,101,2
1,66,0,140
1,66,123,11
1,66,0,11
1,65,110,2
1,65,0,38
1,63,112,3
1,63,0,17
1,63,106,4
1,63,0,12
1,63,94,3
1,63,0,7
1,67,108,3
1,67,0,12
1,67,83,3
1,67,0,7
1,70,95,1
1,70,0,22
1,75,94,2
1,75,0,11
1,75,100,3
1,75,0,5
1,75,114,4
1,75,0,50
1,72,100,12
1,72,0,7
1,75,110,2
1,75,0,31
1,75,112,10
1,75,0,4
1,75,97,4
1,75,0,16
1,77,95,1
1,74,102,7
1,77,0,0
1,74,0,21
1,83,123,2
1,83,0,47
1,75,114,1
1,75,0,44
1,77,122,3
1,77,0,93
1,82,120,5
1,82,0,36
1,80,101,1
1,78,113,11
1,80,0,1
1,78,0,20
1,77,106,2
1,77,0,23
1,75,108,1
1,75,0,89
1,83,116,5
1,83,0,49
1,75,106,1
1,75,0,46
1,77,110,2
1,77,0,94
1,79,88,1
1,79,0,176
1,65,104,17
1,65,0,12
1,65,106,4
1,65,0,13
1,65,114,10
1,65,0,6
1,68,116,3
1,68,0,10
1,68,93,6
1,68,0,8
1,72,104,1
1,72,0,14
1,65,98,2
1,65,0,5
1,74,94,2
1,74,0,24
1,70,97,1
1,70,0,57
1,65,104,6
1,65,0,7
1,67,97,1
1,67,0,8
1,67,112,7
1,67,0,4
1,67,112,4
1,67,0,11
1,67,104,5
1,67,0,5
1,70,108,5
1,70,0,17
1,70,117,8
1,70,0,11
1,72,117,4
1,72,0,61
1,63,125,12
1,63,0,4
1,63,114,3
1,63,0,18
1,65,110,5
1,65,0,11
1,65,106,3
1,65,0,15
1,65,110,9
1,65,0,6
1,68,110,4
1,68,0,16
1,68,101,9
1,68,0,11
1,68,119,4
1,68,0,8
1,70,98,1
1,70,0,12
1,70,104,4
1,72,92,9
1,70,0,0
1,70,100,14
1,72,0,0
1,65,114,24
1,70,0,0
1,65,0,24
1,62,91,1
1,62,0,4
1,63,108,3
1,63,0,19
1,63,110,5
1,63,0,12
1,63,92,4
1,63,0,5
1,67,95,2
1,67,0,16
1,63,98,1
1,63,0,5
1,75,114,3
1,75,0,87
1,80,123,33
1,80,0,12
1,80,116,4
1,80,0,5
1,80,123,3
1,80,0,9
1,80,116,7
1,80,0,19
1,72,112,4
1,72,0,4
1,72,112,4
1,72,0,12
1,72,108,5
1,72,0,21
1,74,111,3
1,74,0,52
1,65,108,19
1,65,0,7
1,67,112,2
1,67,0,18
1,67,112,6
1,67,0,12
1,67,105,4
1,67,0,5
1,70,106,3
1,70,0,17
1,70,122,7
1,70,0,13
1,72,114,2
1,72,0,74
1,63,108,21
1,63,0,7
1,65,125,2
1,65,0,15
1,65,108,11
1,65,0,11
1,68,127,3
1,68,0,44
1,68,104,5
1,68,0,5
1,70,112,4
1,70,0,11
1,70,120,5
1,70,0,6
1,72,122,1
1,72,0,13
1,70,106,2
1,70,0,22
1,65,106,1
1,65,0,23
1,62,100,2
1,62,0,7
1,63,112,3
1,63,0,10
1,63,112,5
1,63,0,4
1,63,112,3
1,63,0,12
1,63,127,5
1,63,0,15
1,65,120,9
1,65,0,14
1,62,117,10
1,62,0,7
1,63,127,3
1,63,0,42
1,67,112,3
1,67,0,23
1,70,127,3
1,70,0,14
1,83,113,9
1,75,108,49
1,83,0,0
1,75,0,44
1,77,117,2
1,77,0,92
1,82,117,5
1,82,0,34
1,80,107,3
1,78,110,10
1,80,0,2
1,78,0,21
1,77,110,1
1,77,0,24
1,75,104,1
1,75,0,89
1,83,127,6
1,83,0,48
1,75,112,1
1,75,0,45
1,77,120,2
1,77,0,64
1,70,102,9
1,70,0,20
1,75,100,4
1,75,0,12
1,75,100,3
1,75,0,28
1,75,98,5
1,75,0,15
1,70,97,1
1,67,87,8
1,70,0,1
1,67,0,19
1,74,90,2
1,74,0,69
1,71,127,2
1,71,0,14
1,71,95,4
1,71,0,4
1,72,127,4
1,72,0,12
1,72,110,5
1,72,0,21
1,71,119,3
1,71,0,7
1,72,110,2
1,72,0,14
1,68,99,1
1,68,0,7
1,63,100,2
1,63,0,13
1,67,108,2
1,67,0,73
1,76,34,8
1,76,0,3
1,72,108,12
1,72,0,6
1,79,120,2
1,79,0,17
1,79,104,8
1,79,0,18
1,79,120,7
1,79,0,15
1,80,95,1
1,79,98,6
1,80,0,0
1,77,112,16
1,79,0,0
1,77,0,21
1,72,110,1
1,72,0,60
1,72,125,13
1,72,0,4
1,72,120,3
1,72,0,14
1,74,102,3
1,74,0,5
1,74,117,3
1,74,0,13
1,74,117,3
1,74,0,20
1,75,98,4
1,75,0,8
1,77,98,1
1,75,100,23
1,77,0,0
1,75,0,72
1,79,100,25
1,79,0,12
1,79,106,3
1,79,0,13
1,79,84,9
1,75,85,9
1,79,0,0
1,72,102,15
1,75,0,0
1,67,98,9
1,72,0,0
1,67,0,13
1,74,104,2
1,74,0,19
1,74,108,6
1,74,0,9
1,74,98,2
1,74,0,6
1,74,110,6
1,74,0,52
1,75,120,7
1,75,0,13
1,75,98,2
1,75,0,5
1,75,108,3
1,75,0,13
1,72,108,4
1,72,0,15
1,68,101,8
1,68,0,7
1,63,106,1
1,63,0,17
1,66,116,1
1,66,0,133
1,66,127,16
1,66,0,13
1,65,127,2
1,65,0,35
1,63,127,2
1,63,0,13
1,63,110,4
1,63,0,3
1,63,112,3
1,63,0,19
1,67,127,5
1,67,0,13
1,67,104,3
1,67,0,6
1,70,120,3
1,70,0,19
1,75,112,5
1,75,0,12
1,75,102,4
1,75,0,3
1,75,110,4
1,75,0,51
1,72,117,13
1,72,0,6
1,75,120,2
1,75,0,13
1,75,120,3
1,75,0,28
1,75,125,5
1,77,107,16
1,75,0,0
1,74,111,7
1,77,0,1
1,74,0,16
1,83,123,6
1,83,0,48
1,75,112,1
1,75,0,47
1,77,120,3
1,77,0,89
1,82,114,5
1,80,97,39
1,82,0,0
1,78,107,10
1,80,0,2
1,78,0,21
1,77,104,1
1,75,106,24
1,77,0,0
1,75,0,89
1,83,119,3
1,83,0,49
1,75,98,1
1,75,0,47
1,77,100,2
1,79,98,97
1,77,0,0
1,79,0,196
3,43,100,0
3,46,100,6
3,43,0,2
3,48,100,6
3,46,0,1
3,46,100,15
3,48,0,0
3,46,0,7
3,51,100,1
3,50,100,48
3,51,0,1
3,48,100,47
3,50,0,1
3,46,100,47
3,48,0,0
3,46,0,47
3,44,100,1
3,44,0,43
3,46,100,5
3,46,0,12
3,46,100,4
3,34,100,24
3,46,0,1
3,34,0,5
3,39,100,2
3,39,0,46
3,39,100,18
3,34,100,8
3,39,0,6
3,41,100,18
3,34,0,6
3,41,0,37
3,44,100,5
3,44,0,47
3,46,100,1
3,46,0,47
3,34,100,1
3,34,0,47
3,39,100,1
3,39,0,46
3,43,100,2
3,44,100,48
3,43,0,1
3,44,0,46
3,39,100,1
3,37,100,48
3,39,0,3
3,37,0,44
3,32,100,1
3,32,0,45
3,34,100,3
3,34,0,43
3,34,100,5
3,34,0,44
3,39,100,4
3,39,0,73
3,39,100,15
3,39,0,5
3,39,100,3
3,39,0,23
3,46,100,1
3,39,100,48
3,46,0,0
3,39,0,21
3,41,100,3
3,44,100,48
3,41,0,0
3,44,0,46
3,46,100,2
3,34,100,48
3,46,0,0
3,34,0,47
3,39,100,1
3,43,100,48
3,39,0,0
3,44,100,48
3,43,0,2
3,44,0,44
3,39,100,2
3,37,100,48
3,39,0,3
3,37,0,43
3,32,100,2
3,32,0,46
3,34,100,2
3,34,0,44
3,34,100,4
3,39,100,48
3,34,0,0
3,38,100,72
3,39,0,3
3,39,100,21
3,38,0,0
3,43,100,24
3,39,0,0
3,43,0,23
3,46,100,1
3,47,100,48
3,46,0,0
3,47,0,47
3,39,100,1
3,37,100,48
3,39,0,1
3,41,100,47
3,37,0,0
3,41,0,47
3,42,100,1
3,42,0,45
3,46,100,3
3,47,100,48
3,46,0,1
3,47,0,19
3,47,100,4
3,47,0,23
3,46,100,1
3,46,0,29
3,46,100,7
3,46,0,11
3,44,100,1
3,44,0,44
3,39,100,4
3,39,0,47
3,46,100,1
3,46,0,67
3,46,100,5
3,46,0,21
3,39,100,3
3,39,0,65
3,39,100,7
3,39,0,21
3,43,100,3
3,43,0,59
3,43,100,13
3,43,0,23
3,44,100,1
3,44,0,59
3,44,100,13
3,44,0,21
3,39,100,3
3,39,0,46
3,39,100,2
3,39,0,22
3,38,100,2
3,38,0,23
3,36,100,1
3,36,0,77
3,36,100,7
3,36,0,5
3,41,100,7
3,41,0,62
3,41,100,10
3,41,0,22
3,34,100,2
3,34,0,61
3,34,100,11
3,34,0,21
3,39,100,3
3,39,0,90
3,36,100,6
3,36,0,58
3,36,100,14
3,36,0,21
3,43,100,3
3,43,0,62
3,43,100,10
3,43,0,21
3,44,100,3
3,44,0,59
3,44,100,13
3,44,0,22
3,47,100,2
3,47,0,140
3,35,100,4
3,35,0,7
3,37,100,5
3,37,0,30
3,39,100,6
3,39,0,45
3,43,100,3
3,43,0,47
3,48,100,1
3,46,100,48
3,48,0,1
3,46,0,45
3,44,100,2
3,44,0,46
3,46,100,2
3,46,0,47
3,35,100,1
3,37,100,96
3,35,0,0
3,37,0,95
3,42,100,1
3,42,0,94
3,35,100,2
3,35,0,39
3,35,100,9
3,35,0,9
3,35,100,3
3,35,0,12
3,35,100,12
3,35,0,11
3,44,100,1
3,46,100,96
3,44,0,3
3,39,100,93
3,46,0,1
3,39,0,68
3,34,100,3
3,34,0,21
3,27,100,3
3,29,100,0
3,29,0,2
3,27,0,93
3,41,100,1
3,41,0,43
3,44,100,5
3,44,0,47
3,46,100,1
3,46,0,47
3,34,100,1
3,34,0,47
3,39,100,1
3,39,0,46
3,43,100,2
3,44,100,48
3,43,0,1
3,44,0,46
3,39,100,1
3,37,100,48
3,39,0,3
3,37,0,44
3,32,100,1
3,32,0,45
3,34,100,3
3,34,0,43
3,34,100,5
3,34,0,44
3,39,100,4
3,39,0,73
3,39,100,15
3,39,0,5
3,39,100,3
3,39,0,23
3,46,100,1
3,39,100,48
3,46,0,0
3,39,0,21
3,41,100,3
3,44,100,48
3,41,0,0
3,44,0,46
3,46,100,2
3,34,100,48
3,46,0,0
3,34,0,47
3,39,100,1
3,43,100,48
3,39,0,0
3,44,100,48
3,43,0,2
3,44,0,44
3,39,100,2
3,37,100,48
3,39,0,3
3,37,0,43
3,32,100,2
3,32,0,46
3,34,100,2
3,34,0,44
3,34,100,4
3,39,100,48
3,34,0,0
3,38,100,72
3,39,0,3
3,39,100,21
3,38,0,0
3,43,100,24
3,39,0,0
3,43,0,23
3,46,100,1
3,47,100,48
3,46,0,0
3,47,0,47
3,39,100,1
3,37,100,48
3,39,0,1
3,41,100,47
3,37,0,0
3,41,0,47
3,42,100,1
3,42,0,45
3,46,100,3
3,47,100,48
3,46,0,1
3,47,0,19
3,47,100,4
3,47,0,23
3,46,100,1
3,46,0,29
3,46,100,7
3,46,0,11
3,44,100,1
3,44,0,44
3,39,100,4
3,39,0,47
3,46,100,1
3,46,0,67
3,46,100,5
3,46,0,21
3,39,100,3
3,39,0,65
3,39,100,7
3,39,0,21
3,43,100,3
3,43,0,59
3,43,100,13
3,43,0,23
3,44,100,1
3,44,0,59
3,44,100,13
3,44,0,21
3,39,100,3
3,39,0,46
3,39,100,2
3,39,0,22
3,38,100,2
3,38,0,23
3,36,100,1
3,36,0,77
3,36,100,7
3,36,0,5
3,41,100,7
3,41,0,62
3,41,100,10
3,41,0,22
3,34,100,2
3,34,0,61
3,34,100,11
3,34,0,21
3,39,100,3
3,39,0,90
3,36,100,6
3,36,0,58
3,36,100,14
3,36,0,21
3,43,100,3
3,43,0,62
3,43,100,10
3,43,0,21
3,44,100,3
3,44,0,59
3,44,100,13
3,44,0,22
3,47,100,2
3,47,0,140
3,35,100,4
3,35,0,7
3,37,100,5
3,37,0,30
3,39,100,6
3,39,0,45
3,43,100,3
3,43,0,47
