track,note,velocity,time
1,40,38,384
1,47,37,46
1,55,52,102
1,52,63,24
1,60,72,8
1,59,54,156
1,40,51,20
1,47,45,24
1,55,50,120
1,52,51,54
1,60,58,12
1,59,42,124
1,71,66,34
1,79,92,16
1,40,40,20
1,47,33,28
1,55,46,170
1,52,50,26
1,60,58,198
1,59,32,156
1,40,55,148
1,47,42,8
1,55,51,142
1,78,69,76
1,52,37,32
1,60,47,138
1,76,100,28
1,59,48,128
1,75,74,188
1,42,47,16
1,47,43,128
1,57,47,114
1,54,51,8
1,60,57,192
1,59,42,90
1,43,61,140
1,47,49,124
1,55,51,60
1,76,96,88
1,52,55,6
1,60,72,134
1,59,60,188
1,72,89,78
1,39,55,4
1,71,68,22
1,47,49,132
1,57,51,114
1,54,50,244
1,60,59,244
1,66,80,74
1,59,47,124
1,72,91,178
1,69,78,6
1,40,47,2
1,47,46,140
1,67,77,0
1,71,78,0
1,55,55,106
1,66,69,10
1,69,83,2
1,52,53,36
1,60,57,154
1,64,75,0
1,67,87,0
1,59,48,46
1,66,76,168
1,63,67,4
1,35,22,16
1,47,58,26
1,59,50,190
1,58,60,40
1,67,69,2
1,64,51,10
1,55,51,28
1,46,64,56
1,66,44,60
1,63,40,2
1,47,41,12
1,35,34,6
1,47,41,46
1,51,34,70
1,54,26,32
1,59,25,82
1,43,39,270
1,71,41,0
1,62,43,4
1,50,50,124
1,59,41,0
1,71,69,72
1,65,66,4
1,55,42,14
1,64,51,14
1,62,63,126
1,66,62,150
1,42,61,6
1,54,68,0
1,61,68,104
1,73,87,78
1,64,74,10
1,70,79,0
1,61,78,4
1,54,72,70
1,47,56,132
1,74,95,16
1,71,67,4
1,54,75,126
1,62,59,60
1,59,68,56
1,67,82,172
1,66,84,2
1,74,97,26
1,65,72,2
1,71,60,2
1,62,75,226
1,59,70,14
1,56,62,30
1,74,87,2
1,53,70,118
1,41,70,118
1,42,72,80
1,73,78,48
1,71,47,6
1,54,69,0
1,61,76,52
1,64,87,178
1,67,89,26
1,66,80,22
1,64,59,78
1,70,66,40
1,61,57,118
1,58,68,22
1,54,61,82
1,42,59,150
1,30,61,142
1,35,44,130
1,71,52,6
1,47,47,26
1,54,30,186
1,63,57,48
1,57,33,16
1,60,51,34
1,59,55,76
1,64,82,48
1,55,62,2
1,60,66,84
1,59,64,188
1,54,70,6
1,66,86,4
1,60,68,44
1,59,71,62
1,67,91,30
1,79,102,210
1,40,79,6
1,47,70,114
1,55,68,62
1,52,84,208
1,60,75,180
1,59,69,40
1,40,87,152
1,47,69,60
1,55,82,48
1,52,76,50
1,66,90,8
1,78,95,2
1,60,67,0
1,76,106,18
1,64,99,4
1,59,76,136
1,42,89,110
1,63,92,2
1,75,89,4
1,47,71,6
1,57,81,34
1,54,84,8
1,60,84,152
1,59,72,48
1,43,98,108
1,76,103,86
1,64,95,2
1,47,65,2
1,78,101,10
1,66,88,2
1,55,78,4
1,78,92,58
1,66,94,10
1,52,82,2
1,79,106,54
1,67,102,2
1,60,83,16
1,81,110,50
1,69,100,2
1,59,80,6
1,83,91,80
1,39,100,2
1,71,88,0
1,47,75,136
1,57,83,108
1,54,76,16
1,60,88,88
1,69,98,50
1,71,84,8
1,59,75,102
1,71,81,114
1,69,89,8
1,40,75,4
1,68,83,2
1,47,64,14
1,67,92,20
1,55,71,0
1,67,85,18
1,52,59,48
1,71,81,38
1,69,85,6
1,60,70,0
1,66,63,4
1,64,72,70
1,67,90,0
1,59,60,6
1,66,83,142
1,35,69,2
1,63,75,2
1,47,76,8
1,59,70,20
1,58,83,54
1,67,87,6
1,64,65,6
1,47,59,186
1,76,94,0
1,76,74,80
1,67,75,16
1,35,42,4
1,75,69,0
1,66,53,4
1,47,46,24
1,35,41,68
1,47,45,84
1,51,58,88
1,54,49,198
1,59,32,150
1,66,47,298
1,74,55,8
1,47,22,36
1,35,36,40
1,47,41,32
1,67,52,232
1,50,37,14
1,55,52,54
1,65,78,4
1,59,55,94
1,64,63,56
1,60,42,12
1,59,49,32
1,60,51,48
1,55,38,2
1,72,69,42
1,52,41,10
1,48,46,26
1,43,50,112
1,65,56,10
1,50,57,112
1,71,59,4
1,55,49,32
1,69,48,100
1,71,51,2
1,59,38,2
1,69,75,16
1,64,57,144
1,67,69,24
1,62,51,14
1,67,47,148
1,60,30,6
1,64,30,18
1,48,46,136
1,52,36,20
1,67,69,30
1,55,26,20
1,60,39,60
1,67,74,82
1,64,63,10
1,61,57,126
1,69,65,8
1,64,18,8
1,67,39,4
1,49,65,128
1,52,73,2
1,69,87,26
1,57,67,12
1,65,80,88
1,69,87,94
1,64,78,20
1,38,70,186
1,65,71,2
1,69,79,2
1,50,74,24
1,53,54,90
1,69,74,138
1,57,75,2
1,64,81,18
1,69,87,78
1,62,81,74
1,39,92,128
1,66,70,6
1,69,80,2
1,71,81,2
1,51,93,110
1,54,86,34
1,59,80,14
1,71,92,4
1,67,90,54
1,71,86,14
1,66,86,80
1,71,84,156
1,67,88,4
1,40,87,2
1,52,85,10
1,55,90,44
1,73,96,56
1,59,83,8
1,67,91,72
1,64,95,86
1,66,90,168
1,74,108,2
1,42,86,2
1,71,88,10
1,54,82,12
1,62,73,108
1,59,52,40
1,67,85,10
1,66,79,62
1,73,84,140
1,71,75,2
1,42,47,2
1,54,81,78
1,62,77,60
1,61,81,26
1,70,97,16
1,67,92,110
1,66,87,80
1,75,101,212
1,69,103,4
1,35,93,6
1,47,81,6
1,54,86,168
1,57,70,70
1,67,87,126
1,66,86,98
1,76,99,198
1,67,61,6
1,40,55,4
1,47,52,116
1,55,64,96
1,59,60,194
1,71,72,56
1,66,57,62
1,64,71,122
1,42,52,154
1,70,79,2
1,67,73,4
1,49,64,96
1,52,71,36
1,58,74,58
1,66,80,48
1,62,78,102
1,64,87,74
1,61,73,50
1,42,53,78
1,62,71,6
1,71,72,2
1,50,65,8
1,54,48,58
1,59,47,186
1,58,71,36
1,59,61,98
1,61,73,132
1,71,74,16
1,42,40,22
1,49,58,160
1,53,61,64
1,54,56,86
1,57,65,30
1,55,62,154
1,70,70,188
1,42,31,12
1,49,52,54
1,53,37,80
1,54,28,50
1,64,40,20
1,53,34,42
1,54,33,6
1,63,35,12
1,71,36,14
1,35,14,36
1,42,34,6
1,54,35,116
1,51,31,44
1,49,38,56
1,47,29,124
1,35,33,82
1,42,36,38
1,54,33,96
1,51,33,24
1,49,38,48
1,47,35,148
1,75,59,218
1,71,46,12
1,35,26,12
1,42,41,12
1,54,37,110
1,51,50,34
1,49,37,38
1,47,30,198
1,73,50,10
1,69,44,10
1,35,28,90
1,73,56,6
1,69,47,16
1,42,36,26
1,54,24,122
1,51,30,66
1,49,23,68
1,47,21,60
1,71,40,16
1,68,37,20
1,35,27,76
1,68,21,6
1,71,27,12
1,47,34,56
1,56,38,162
1,52,36,144
1,49,36,124
1,47,27,116
1,35,37,108
1,47,42,82
1,56,44,140
1,52,36,202
1,72,89,8
1,69,52,24
1,49,47,60
1,47,28,150
1,35,45,74
1,73,88,8
1,70,81,4
1,47,54,4
1,55,65,158
1,52,70,44
1,49,62,62
1,75,88,6
1,71,68,8
1,47,50,82
1,76,102,96
1,73,73,4
1,35,48,8
1,47,28,32
1,78,92,30
1,75,79,6
1,55,67,30
1,79,95,162
1,70,88,2
1,76,87,4
1,52,54,24
1,49,38,18
1,79,100,28
1,76,63,2
1,47,45,136
1,71,53,8
1,76,80,108
1,35,34,52
1,79,89,90
1,42,36,28
1,54,41,18
1,78,58,2
1,75,49,10
1,51,43,12
1,49,49,34
1,47,37,122
1,35,44,20
1,42,42,40
1,54,48,88
1,51,43,6
1,49,47,48
1,47,55,66
1,75,91,38
1,63,69,2
1,71,73,8
1,35,50,12
1,42,58,18
1,54,62,98
1,51,60,184
1,49,58,8
1,47,59,52
1,73,92,36
1,69,78,4
1,63,62,6
1,35,51,2
1,42,60,8
1,54,65,82
1,51,70,6
1,49,66,20
1,71,86,46
1,63,65,0
1,69,72,18
1,47,49,22
1,73,83,94
1,68,62,8
1,35,49,8
1,64,53,0
1,47,55,16
1,56,50,218
1,71,56,66
1,52,31,20
1,49,44,82
1,47,36,140
1,35,56,130
1,47,55,186
1,56,60,62
1,71,83,56
1,52,70,14
1,49,69,134
1,47,47,90
1,35,41,142
1,70,88,10
1,67,76,2
1,64,66,8
1,47,54,8
1,55,72,142
1,52,70,16
1,49,62,16
1,63,77,6
1,66,81,0
1,47,51,102
1,35,47,106
1,67,80,0
1,64,70,2
1,47,50,20
1,66,65,80
1,63,57,10
1,55,55,66
1,67,70,14
1,64,76,0
1,52,55,16
1,49,52,30
1,67,87,98
1,64,84,2
1,47,55,126
1,35,61,110
1,66,79,38
1,64,97,10
1,69,87,0
1,47,78,12
1,54,88,176
1,57,95,16
1,63,85,12
1,60,95,32
1,59,85,36
1,57,94,62
1,54,90,186
1,51,94,8
1,48,97,4
1,47,90,58
1,35,92,316
1,71,92,108
1,71,84,72
1,40,101,118
1,79,107,8
1,47,78,236
1,55,75,42
1,52,85,200
1,60,78,182
1,59,68,68
1,40,97,162
1,47,80,116
1,55,79,56
1,71,73,122
1,72,94,14
1,52,80,12
1,71,90,2
1,70,106,116
1,60,81,70
1,71,89,60
1,59,77,76
1,76,103,0
1,75,88,134
1,42,92,4
1,47,69,130
1,57,73,62
1,54,78,198
1,60,80,182
1,59,73,80
1,43,90,138
1,47,81,28
1,55,85,24
1,76,78,50
1,78,84,2
1,76,108,44
1,52,87,32
1,75,96,48
1,76,101,80
1,60,84,0
1,78,99,106
1,79,101,2
1,59,79,28
1,81,105,66
1,39,95,60
1,83,92,4
1,47,75,140
1,57,83,92
1,54,81,192
1,60,84,198
1,59,75,48
1,40,98,126
1,47,86,24
1,55,87,16
1,83,87,44
1,84,95,22
1,83,100,20
1,52,92,20
1,85,106,126
1,87,99,64
1,60,87,0
1,88,110,88
1,90,102,24
1,59,78,12
1,91,108,68
1,75,99,16
1,35,79,0
1,90,92,66
1,47,86,64
1,54,70,130
1,88,105,24
1,55,84,20
1,85,95,42
1,82,100,30
1,47,64,46
1,79,93,52
1,76,91,6
1,73,88,50
1,58,84,14
1,70,91,102
1,64,88,8
1,59,69,60
1,63,69,0
1,71,76,4
1,47,62,82
1,46,69,156
1,47,54,14
1,51,50,86
1,54,40,20
1,71,2,106
1,62,52,74
1,43,30,16
1,50,49,142
1,59,38,144
1,64,53,76
1,66,68,20
1,67,71,38
1,69,71,84
1,55,45,18
1,71,66,14
1,71,57,102
1,64,41,28
1,71,58,120
1,62,39,6
1,71,62,72
1,42,48,6
1,54,56,116
1,62,60,158
1,70,85,16
1,64,59,16
1,68,78,0
1,70,81,18
1,71,82,4
1,61,54,18
1,73,90,12
1,74,92,24
1,76,95,42
1,54,58,14
1,78,93,6
1,80,86,50
1,82,99,30
1,47,53,18
1,83,92,34
1,54,61,8
1,62,65,46
1,59,70,192
1,67,85,192
1,66,90,88
1,85,79,0
1,65,85,26
1,83,75,32
1,85,78,26
1,83,72,22
1,85,88,12
1,62,78,32
1,83,79,16
1,85,89,28
1,83,76,6
1,85,88,18
1,59,78,8
1,83,77,56
1,85,90,64
1,83,82,58
1,53,93,10
1,85,92,50
1,83,83,58
1,85,92,6
1,50,92,26
1,83,77,8
1,85,94,6
1,83,83,50
1,41,88,48
1,82,106,20
1,83,77,4
1,85,92,78
1,86,101,14
1,42,89,12
1,85,92,28
1,86,102,54
1,85,88,4
1,54,87,28
1,86,98,6
1,85,84,4
1,86,94,56
1,61,96,0
1,85,84,20
1,86,89,18
1,85,82,26
1,64,101,36
1,86,92,30
1,85,95,24
1,86,94,2
1,67,102,4
1,85,88,26
1,86,95,26
1,85,72,6
1,66,92,6
1,86,99,0
1,85,78,6
1,82,108,0
1,64,103,20
1,86,85,46
1,85,93,66
1,86,103,6
1,61,95,4
1,85,92,6
1,86,94,72
1,58,105,10
1,85,95,2
1,86,95,46
1,85,89,48
1,86,109,46
1,54,95,14
1,85,96,48
1,84,103,24
1,85,96,54
1,42,89,20
1,86,95,8
1,87,93,12
1,88,106,18
1,89,108,60
1,90,91,34
1,30,104,18
1,91,106,28
1,92,102,28
1,93,87,22
1,94,97,0
1,35,101,22
1,83,111,36
1,95,106,0
1,47,88,204
1,54,79,32
1,63,111,186
1,57,85,6
1,60,84,30
1,59,90,184
1,55,93,150
1,64,106,6
1,60,89,156
1,59,83,196
1,54,90,88
1,66,105,2
1,60,95,84
1,59,92,118
1,79,110,234
1,67,106,2
1,40,101,12
1,47,76,20
1,55,93,2
1,52,89,202
1,60,86,174
1,59,79,96
1,40,98,158
1,47,82,80
1,55,90,26
1,66,96,12
1,78,100,0
1,52,74,8
1,60,85,10
1,76,106,88
1,64,105,2
1,59,76,38
1,63,102,90
1,75,95,6
1,42,90,6
1,47,81,86
1,57,87,40
1,54,81,192
1,60,82,176
1,59,77,50
1,43,99,126
1,76,110,84
1,64,100,6
1,47,77,18
1,66,90,36
1,78,101,0
1,55,78,10
1,52,88,38
1,79,111,4
1,67,108,2
1,81,113,46
1,69,105,2
1,60,83,10
1,59,89,72
1,83,97,54
1,71,93,0
1,83,97,38
1,71,100,4
1,39,100,14
1,83,97,60
1,71,90,0
1,47,81,22
1,83,106,102
1,71,101,2
1,57,88,0
1,83,103,68
1,71,95,4
1,54,90,8
1,71,98,106
1,60,88,10
1,69,104,52
1,71,84,12
1,59,79,8
1,69,101,122
1,71,92,6
1,40,95,8
1,68,99,76
1,71,75,2
1,47,73,24
1,71,85,46
1,67,97,0
1,55,84,14
1,67,88,34
1,71,79,54
1,52,76,4
1,66,73,220
1,69,91,2
1,60,73,8
1,64,84,66
1,67,98,2
1,59,72,6
1,63,81,126
1,66,88,0
1,35,83,0
1,47,83,138
1,59,79,18
1,67,97,18
1,64,81,4
1,58,80,6
1,76,92,84
1,47,69,4
1,76,76,86
1,67,81,8
1,35,51,10
1,75,83,18
1,66,67,0
1,47,46,4
1,35,48,78
1,47,51,80
1,51,50,82
1,54,71,194
1,59,83,56
1,75,100,110
1,60,95,6
1,66,78,2
1,69,81,2
1,48,89,140
1,47,76,50
1,48,83,0
1,50,86,8
1,48,91,172
1,47,56,58
1,35,60,0
1,47,68,18
1,75,100,110
1,54,57,34
1,60,78,24
1,59,62,100
1,76,94,150
1,47,43,8
1,67,68,0
1,64,65,2
1,35,62,24
1,47,65,34
1,52,68,196
1,60,80,200
1,59,76,4
1,76,103,152
1,58,80,8
1,67,60,0
1,64,58,2
1,55,61,36
1,52,75,2
1,46,79,30
1,76,110,6
1,43,74,118
1,34,92,96
1,35,52,112
1,79,100,6
1,67,61,12
1,71,53,10
1,47,60,24
1,52,39,110
1,55,57,34
1,60,55,52
1,78,82,66
1,59,36,90
1,76,87,30
1,47,37,156
1,76,72,34
1,71,37,6
1,66,35,2
1,69,44,2
1,46,58,24
1,47,41,92
1,75,53,12
1,35,29,8
1,34,54,28
1,35,41,88
1,28,34,174
1,64,44,18
1,68,44,94
1,71,36,76
1,40,58,74
1,76,72,54
1,47,42,156
1,59,32,62
1,56,48,26
1,54,42,30
1,52,38,82
1,40,46,74
1,47,32,48
1,59,35,32
1,56,40,60
1,54,34,26
1,52,33,102
1,40,35,244
1,80,78,88
1,76,49,20
1,47,23,48
1,59,32,158
1,56,34,94
1,54,30,38
1,52,44,108
1,78,67,134
1,40,33,26
1,74,52,0
1,47,33,30
1,59,28,158
1,56,24,176
1,54,20,64
1,52,30,22
1,76,54,4
1,73,31,4
1,40,33,124
1,73,20,32
1,76,33,12
1,52,33,66
1,61,33,142
1,57,32,142
1,54,29,64
1,52,25,130
1,40,35,106
1,52,44,136
1,61,52,154
1,74,63,22
1,57,43,6
1,77,84,2
1,54,40,116
1,52,45,104
1,78,83,96
1,75,59,6
1,40,53,4
1,52,62,18
1,60,60,212
1,57,57,86
1,54,35,46
1,80,86,42
1,76,81,4
1,52,39,104
1,78,70,92
1,81,93,4
