track,note,velocity,time
1,59,69,0
1,68,64,918
1,40,49,30
1,61,45,374
1,56,24,42
1,52,27,4
1,69,75,52
1,47,34,80
1,56,20,84
1,71,91,100
1,59,43,48
1,75,84,40
1,68,27,250
1,76,61,0
1,64,15,0
1,59,19,16
1,73,52,52
1,71,61,354
1,35,22,6
1,63,25,328
1,54,28,18
1,66,34,294
1,63,17,34
1,57,14,14
1,57,23,268
1,47,15,8
1,68,58,16
1,64,75,172
1,49,32,12
1,37,33,4
1,61,42,270
1,56,32,18
1,52,40,8
1,66,48,404
1,47,29,26
1,35,22,12
1,68,66,22
1,69,77,180
1,56,42,0
1,62,49,4
1,52,51,20
1,71,95,26
1,33,63,234
1,45,54,2
1,73,73,22
1,61,58,336
1,57,45,14
1,52,51,4
1,32,69,490
1,44,73,2
1,73,87,30
1,61,59,254
1,59,58,14
1,53,58,4
1,71,97,170
1,71,80,60
1,42,53,8
1,30,62,4
1,69,72,270
1,61,59,14
1,49,41,20
1,62,68,82
1,59,44,20
1,53,61,10
1,68,79,358
1,68,62,106
1,61,48,42
1,49,30,48
1,66,57,38
1,65,57,50
1,65,47,94
1,42,32,24
1,57,31,322
1,66,30,0
1,49,22,44
1,39,48,208
1,58,69,272
1,59,84,172
1,57,25,20
1,54,40,0
1,47,23,4
1,69,72,218
1,68,72,162
1,40,37,48
1,63,83,172
1,56,37,8
1,47,24,34
1,64,91,8
1,63,79,248
1,37,54,24
1,64,77,32
1,63,79,156
1,58,28,174
1,54,36,6
1,64,74,28
1,52,20,6
1,66,49,76
1,61,69,104
1,64,58,296
1,35,29,10
1,56,19,382
1,59,30,32
1,63,46,656
1,54,28,4
1,75,62,316
1,73,55,220
1,59,11,48
1,63,22,20
1,73,51,38
1,69,23,2
1,71,55,90
1,69,48,54
1,68,33,264
1,40,34,44
1,61,32,424
1,56,19,30
1,52,13,44
1,69,54,14
1,47,7,88
1,56,30,60
1,71,58,6
1,59,23,6
1,47,40,30
1,76,65,28
1,78,70,116
1,80,64,136
1,78,43,136
1,64,16,2
1,68,27,38
1,76,46,38
1,71,48,60
1,73,43,82
1,68,45,80
1,73,35,8
1,71,70,138
1,35,22,6
1,63,21,370
1,54,39,8
1,63,17,22
1,57,7,0
1,66,39,8
1,36,45,532
1,48,33,2
1,68,57,292
1,64,67,54
1,37,36,10
1,49,41,2
1,63,70,302
1,61,37,2
1,56,26,0
1,52,32,36
1,64,75,132
1,66,64,218
1,47,33,14
1,35,43,2
1,68,63,200
1,69,70,56
1,62,42,18
1,56,29,0
1,52,39,16
1,71,94,12
1,73,82,274
1,45,54,2
1,33,54,6
1,61,52,306
1,57,48,6
1,52,52,10
1,31,81,322
1,43,80,2
1,73,88,36
1,64,72,296
1,59,58,10
1,52,60,2
1,71,97,16
1,70,65,80
1,71,69,78
1,73,77,42
1,71,105,40
1,30,73,2
1,42,56,4
1,64,71,296
1,54,56,8
1,61,50,8
1,70,67,52
1,28,76,296
1,40,90,0
1,71,100,34
1,68,66,228
1,73,92,4
1,56,54,8
1,61,50,12
1,74,101,16
1,27,72,362
1,39,51,6
1,75,84,0
1,58,38,396
1,67,57,0
1,61,44,10
1,73,79,72
1,44,53,70
1,51,38,92
1,70,76,4
1,59,62,52
1,71,93,54
1,40,47,74
1,49,67,80
1,61,92,28
1,59,48,62
1,80,93,458
1,80,79,54
1,42,31,22
1,30,31,4
1,54,30,372
1,59,25,48
1,66,62,98
1,64,37,8
1,42,31,242
1,71,74,0
1,75,57,300
1,54,28,12
1,64,26,4
1,58,15,2
1,73,48,106
1,70,41,38
1,47,20,14
1,64,25,382
1,54,19,16
1,61,10,2
1,71,31,470
1,47,14,18
1,63,17,436
1,54,10,42
1,59,3,40
1,68,33,406
1,50,20,52
1,62,22,334
1,54,20,10
1,59,16,6
1,69,52,70
1,71,76,214
1,44,37,4
1,73,75,102
1,54,24,118
1,59,16,58
1,76,72,46
1,66,34,22
1,74,71,192
1,37,18,216
1,49,20,16
1,65,64,28
1,49,27,322
1,59,30,0
1,56,21,4
1,30,28,374
1,66,29,8
1,42,16,10
1,49,34,368
1,57,20,16
1,54,22,6
1,70,72,426
1,40,45,4
1,52,31,6
1,61,62,282
1,56,44,16
1,71,94,168
1,73,84,296
1,46,47,8
1,34,53,8
1,75,90,12
1,78,82,164
1,61,44,14
1,56,42,8
1,76,79,38
1,67,75,152
1,39,28,10
1,51,35,8
1,58,26,240
1,61,38,6
1,68,52,282
1,50,68,38
1,38,38,16
1,69,66,74
1,73,70,272
1,54,53,24
1,59,49,0
1,71,87,56
1,65,79,44
1,49,74,8
1,37,73,2
1,59,69,306
1,56,48,8
1,66,71,172
1,48,72,34
1,36,54,16
1,67,88,62
1,71,88,280
1,57,61,16
1,52,49,16
1,69,84,12
1,69,59,56
1,47,83,16
1,35,80,12
1,67,84,416
1,57,63,14
1,54,68,10
1,66,68,166
1,64,88,34
1,63,91,26
1,60,97,64
1,63,77,2
1,57,55,4
1,59,87,42
1,55,79,10
1,57,81,94
1,54,75,8
1,64,97,246
1,35,83,16
1,79,101,88
1,55,83,476
1,47,71,4
1,76,81,186
1,72,74,74
1,69,75,0
1,64,91,66
1,60,98,14
1,55,99,120
1,58,51,12
1,64,71,6
1,57,65,36
1,55,66,20
1,57,63,16
1,55,60,16
1,57,74,8
1,55,85,80
1,54,93,76
1,52,102,32
1,67,82,162
1,47,56,12
1,58,73,386
1,59,76,20
1,35,43,20
1,63,43,504
1,54,44,8
1,61,75,324
1,57,26,52
1,63,75,336
1,49,26,272
1,64,52,88
1,47,25,50
1,66,22,132
1,68,29,36
1,40,39,48
1,61,29,544
1,56,19,30
1,52,23,22
1,69,40,10
1,47,22,30
1,56,28,110
1,71,38,176
1,59,19,20
1,76,34,132
1,78,45,28
1,80,59,0
1,83,74,62
1,88,61,74
1,90,59,74
1,92,58,56
1,68,26,62
1,90,55,2
1,59,22,8
1,64,5,0
1,88,52,60
1,83,69,40
1,80,56,44
1,78,48,32
1,76,36,8
1,71,49,46
1,73,43,28
1,68,35,100
1,73,50,0
1,71,63,204
1,35,30,22
1,47,29,380
1,57,30,2
1,66,50,318
1,63,23,20
1,57,10,32
1,35,22,426
1,67,40,398
1,64,53,230
1,36,24,16
1,57,31,326
1,52,23,26
1,65,36,144
1,43,15,74
1,67,36,142
1,55,30,26
1,71,63,64
1,72,53,192
1,64,27,18
1,55,21,8
1,69,46,176
1,67,46,6
1,31,42,8
1,43,23,442
1,53,29,12
1,62,39,240
1,59,25,14
1,43,20,462
1,64,37,404
1,61,49,182
1,31,33,10
1,58,23,334
1,52,38,20
1,30,38,272
1,42,35,2
1,63,57,292
1,64,76,148
1,28,54,2
1,40,59,0
1,65,78,184
1,27,60,8
1,39,55,0
1,66,64,6
1,59,84,248
1,57,52,8
1,47,57,6
1,68,95,386
1,40,87,16
1,28,72,4
1,62,81,302
1,56,58,0
1,52,60,14
1,45,80,134
1,33,85,0
1,61,91,170
1,68,76,10
1,66,73,28
1,68,29,28
1,73,73,78
1,80,88,98
1,64,65,8
1,54,56,4
1,61,49,8
1,78,92,54
1,85,84,90
1,92,83,64
1,90,76,112
1,85,69,78
1,80,73,2
1,78,75,38
1,73,66,106
1,69,63,20
1,68,67,12
1,66,65,0
1,47,38,48
1,35,45,2
1,68,65,6
1,66,52,14
1,68,56,60
1,66,54,18
1,68,61,14
1,66,52,10
1,68,60,2
1,66,43,50
1,65,64,0
1,66,54,106
1,63,25,140
1,57,15,14
1,68,52,24
1,59,50,356
1,56,28,388
1,64,53,24
1,40,39,4
1,49,44,346
1,46,48,162
1,49,55,162
1,47,46,112
1,52,61,20
1,51,58,144
1,54,78,120
1,52,83,102
1,56,65,4
1,55,67,8
1,57,46,10
1,64,75,30
1,56,47,0
1,54,62,180
1,66,65,24
1,52,66,18
1,68,53,172
1,56,29,8
1,51,50,6
1,64,42,8
1,37,30,294
1,44,41,12
1,49,41,10
1,48,37,34
1,51,60,54
1,49,65,0
1,52,77,82
1,51,73,24
1,54,75,36
1,52,78,88
1,57,42,24
1,64,81,32
1,61,40,6
1,56,48,0
1,66,64,14
1,54,51,20
1,68,68,2
1,52,52,24
1,68,68,40
1,58,42,2
1,64,54,2
1,42,31,14
1,64,18,142
1,48,22,72
1,49,40,0
1,52,52,48
1,51,46,12
1,54,68,132
1,52,67,48
1,66,63,60
1,63,48,12
1,56,36,0
1,49,46,24
1,51,47,84
1,54,48,168
1,64,81,0
1,61,52,4
1,52,62,26
1,56,51,36
1,54,58,124
1,57,47,96
1,73,79,30
1,52,26,16
1,66,22,12
1,51,62,108
1,49,62,4
1,52,61,38
1,51,45,40
1,71,87,10
1,49,50,48
1,47,47,30
1,51,57,58
1,64,79,84
1,49,44,4
1,57,27,6
1,47,48,138
1,46,44,6
1,49,54,24
1,47,45,98
1,66,57,42
1,63,44,8
1,42,35,14
1,68,52,34
1,37,33,14
1,69,49,12
1,35,45,4
1,69,38,172
1,61,36,12
1,64,35,2
1,28,36,6
1,68,42,142
1,59,30,24
1,47,31,120
1,51,42,212
1,49,44,4
1,52,54,20
1,51,53,18
1,54,72,20
1,52,80,92
1,64,89,112
1,56,55,4
1,54,62,160
1,68,68,70
1,57,49,10
1,76,79,58
1,56,57,26
1,54,69,8
1,76,91,144
1,52,60,26
1,64,51,14
1,68,54,0
1,76,87,86
1,51,62,2
1,37,49,34
1,44,64,172
1,51,50,22
1,78,77,0
1,76,66,52
1,49,38,14
1,73,61,42
1,52,45,22
1,68,65,0
1,51,47,6
1,54,49,170
1,68,58,14
1,61,48,4
1,52,66,78
1,66,70,46
1,57,45,16
1,56,54,2
1,64,81,0
1,63,78,96
1,61,53,4
1,55,45,12
1,56,56,24
1,64,84,0
1,66,62,58
1,52,58,14
1,67,65,26
1,64,51,0
1,49,42,2
1,57,41,4
1,60,44,0
1,63,51,14
1,44,36,0
1,67,47,36
1,51,44,210
1,56,48,136
1,68,30,34
1,60,46,34
1,61,50,22
1,55,41,10
1,64,61,172
1,69,42,16
1,73,47,0
1,76,54,16
1,72,47,92
1,75,57,10
1,44,43,2
1,51,61,100
1,56,58,12
1,63,58,2
1,68,52,4
1,60,68,32
1,55,79,24
1,61,79,0
1,64,92,108
1,69,76,116
1,76,85,120
1,73,69,6
1,32,84,82
1,75,86,8
1,72,68,26
1,44,88,110
1,51,93,124
1,63,93,188
1,60,80,16
1,66,86,22
1,69,89,82
1,72,100,98
1,81,99,274
1,81,84,52
1,75,78,338
1,78,76,210
1,69,59,26
1,75,62,8
1,66,49,174
1,69,41,144
1,61,59,54
1,64,73,258
1,54,39,168
1,57,36,6
1,63,68,60
1,61,67,110
1,54,48,10
1,57,18,22
1,60,63,26
1,39,45,14
1,54,46,104
1,57,48,2
1,61,63,6
1,37,56,24
1,63,69,64
1,54,51,8
1,57,37,10
1,63,36,92
1,56,42,18
1,36,55,2
1,44,39,186
1,54,43,14
1,55,58,6
1,56,65,120
1,44,42,2
1,54,47,12
1,32,41,56
1,58,55,6
1,44,65,104
1,54,55,6
1,60,68,0
1,45,76,54
1,61,79,2
1,63,84,128
1,54,44,10
1,44,73,10
1,60,38,2
1,37,64,104
1,64,81,2
1,61,58,152
1,52,44,6
1,44,56,2
1,63,78,6
1,48,47,8
1,64,88,8
1,61,66,4
1,49,67,2
1,52,32,14
1,42,67,64
1,66,65,2
1,68,77,128
1,49,66,0
1,57,44,16
1,61,47,0
1,56,83,0
1,64,82,6
1,66,80,30
1,54,68,12
1,57,54,0
1,61,44,10
1,37,83,28
1,68,79,2
1,56,70,86
1,61,47,4
1,64,62,0
1,54,84,26
1,56,63,152
1,52,80,12
1,64,59,8
1,61,43,0
1,71,56,88
1,51,59,16
1,66,34,146
1,49,47,2
1,63,37,2
1,57,28,4
1,59,22,2
1,47,55,0
1,63,52,178
1,42,46,0
1,57,42,0
1,59,30,4
1,35,52,32
1,68,74,96
1,57,44,156
1,59,36,4
1,52,59,18
1,66,62,194
1,51,58,0
1,56,72,4
1,64,76,2
1,57,32,14
1,59,26,6
1,63,78,12
1,56,66,30
1,57,60,108
1,59,49,2
1,64,85,156
1,54,69,2
1,66,72,112
1,57,57,12
1,59,44,6
1,52,63,8
1,66,50,96
1,51,57,20
1,59,72,6
1,57,34,6
1,61,75,30
1,52,77,16
1,59,76,34
1,54,75,6
1,57,55,0
1,61,81,112
1,54,71,8
1,63,86,112
1,57,57,8
1,47,55,2
1,59,49,2
1,49,66,10
1,64,91,2
1,66,81,130
1,47,60,4
1,63,56,8
1,57,24,12
1,40,75,34
1,68,79,54
1,56,57,146
1,47,62,18
1,62,66,0
1,67,81,0
1,52,70,8
1,68,83,36
1,56,58,8
1,40,78,2
1,62,48,6
1,70,83,10
1,39,78,2
1,71,89,56
1,56,53,14
1,61,35,8
1,63,43,6
1,68,81,32
1,53,93,14
1,70,81,30
1,61,45,22
1,55,67,6
1,63,23,8
1,44,76,70
1,71,100,16
1,68,64,62
1,59,73,8
1,63,41,10
1,58,69,54
1,68,61,8
1,56,75,6
1,63,17,20
1,55,62,130
1,75,82,6
1,52,54,26
1,70,37,6
1,61,34,6
1,67,26,14
1,51,55,16
1,39,54,30
1,61,57,0
1,70,48,6
1,71,92,50
1,44,63,12
1,59,45,96
1,51,54,2
1,63,56,0
1,70,76,16
1,68,77,10
1,59,54,14
1,51,53,2
1,63,44,8
1,70,73,34
1,39,41,20
1,61,45,128
1,51,53,2
1,63,45,4
1,71,76,18
1,67,79,200
1,61,38,4
1,51,44,10
1,63,9,22
1,68,75,30
1,44,61,20
1,59,46,104
1,63,55,6
1,51,51,24
1,54,71,4
1,52,73,40
1,51,61,92
1,63,63,2
1,59,50,4
1,70,58,26
1,50,49,12
1,61,29,110
1,67,35,6
1,63,37,2
1,51,34,12
1,39,47,14
1,61,33,76
1,51,41,8
1,63,35,12
1,71,68,54
1,44,47,0
1,63,41,198
1,59,32,8
1,51,30,6
1,70,60,52
1,68,60,70
1,59,41,8
1,63,40,8
1,51,21,14
1,70,59,34
1,39,26,20
1,73,48,6
1,61,47,2
1,51,38,4
1,63,12,2
1,71,64,8
1,67,46,20
1,61,37,2
1,51,35,2
1,68,48,10
1,44,41,24
1,63,47,74
1,59,34,12
1,51,34,4
1,71,64,44
1,39,48,2
1,61,44,134
1,67,65,4
1,51,58,2
1,63,25,22
1,44,65,18
1,68,67,4
1,63,56,104
1,59,48,0
1,51,56,26
1,71,75,30
1,39,70,10
1,67,71,54
1,61,50,2
1,63,54,6
1,51,70,12
1,68,71,60
1,44,64,2
1,59,41,102
1,63,56,4
1,51,46,14
1,69,62,88
1,37,46,22
1,65,56,32
1,59,41,2
1,49,45,4
1,61,32,2
1,66,53,16
1,42,38,12
1,57,41,98
1,61,47,2
1,49,29,16
1,69,45,42
1,37,30,14
1,65,50,114
1,49,39,8
1,61,28,0
1,59,17,6
1,66,44,12
1,42,34,0
1,61,38,20
1,57,25,0
1,49,36,4
1,69,38,52
1,37,27,20
1,59,30,120
1,65,41,4
1,61,26,6
1,49,29,0
1,66,40,8
1,42,28,10
1,57,20,16
1,61,42,0
1,49,26,14
1,67,36,6
1,35,39,6
1,63,44,62
1,57,22,16
1,47,6,40
1,64,39,318
1,55,24,4
1,60,22,0
1,34,23,10
1,46,42,16
1,52,58,124
1,55,67,62
1,54,62,54
1,51,48,6
1,57,65,6
1,60,72,50
1,66,55,44
1,63,63,2
1,67,62,62
1,64,50,4
1,34,51,12
1,46,48,228
1,55,52,156
1,52,53,0
1,60,58,4
1,55,70,34
1,54,78,42
1,51,66,12
1,57,78,166
1,60,87,34
1,66,78,126
1,63,73,10
1,34,83,8
1,67,85,10
1,64,80,0
1,46,78,150
1,60,81,0
1,52,78,16
1,55,91,80
1,60,91,200
1,64,94,182
1,67,90,136
1,76,85,238
1,75,74,136
1,35,90,16
1,74,82,6
1,73,78,38
1,36,71,148
1,72,80,8
1,37,81,8
1,71,82,0
1,38,81,162
