track,note,velocity,time
1,72,73,56
1,53,56,574
1,73,73,426
1,60,34,20
1,56,32,2
1,72,87,12
1,70,89,58
1,56,38,16
1,60,43,0
1,68,82,106
1,67,85,28
1,51,56,2
1,60,42,356
1,56,40,8
1,65,77,14
1,65,96,56
1,60,46,6
1,56,27,6
1,49,56,38
1,77,97,0
1,70,92,214
1,61,48,10
1,53,45,12
1,72,98,110
1,46,63,14
1,75,79,6
1,73,82,0
1,41,51,132
1,72,72,12
1,73,59,28
1,75,60,12
1,73,66,72
1,68,39,330
1,60,41,2
1,72,65,70
1,72,67,66
1,68,39,4
1,60,29,30
1,71,70,256
1,52,45,2
1,72,96,174
1,75,75,108
1,67,57,4
1,73,92,12
1,60,49,2
1,58,55,4
1,72,101,0
1,77,100,172
1,67,46,10
1,60,46,4
1,58,53,6
1,79,98,6
1,53,58,6
1,80,83,2
1,68,83,104
1,56,38,58
1,76,89,18
1,65,37,0
1,60,41,6
1,79,81,10
1,44,56,164
1,77,80,6
1,65,87,42
1,46,72,140
1,72,93,2
1,75,70,142
1,61,39,130
1,73,70,12
1,53,38,8
1,55,33,2
1,61,55,4
1,72,67,18
1,34,54,10
1,70,69,6
1,36,47,18
1,67,55,10
1,72,63,120
1,48,41,36
1,55,36,100
1,71,50,0
1,64,45,32
1,72,67,10
1,73,67,42
1,74,66,158
1,56,34,212
1,75,48,8
1,77,48,40
1,63,29,0
1,60,27,2
1,75,46,16
1,73,54,154
1,63,34,12
1,60,22,30
1,72,66,12
1,70,72,8
1,55,44,8
1,63,32,42
1,60,22,10
1,68,43,22
1,68,62,62
1,63,32,28
1,60,24,18
1,80,83,72
1,53,50,18
1,72,87,288
1,63,42,16
1,56,37,2
1,60,38,8
1,75,84,4
1,63,49,4
1,56,48,0
1,79,90,0
1,60,27,42
1,77,94,26
1,46,61,106
1,75,81,2
1,65,69,162
1,56,42,6
1,58,68,6
1,74,87,204
1,74,81,68
1,65,69,6
1,56,33,10
1,58,45,12
1,84,80,4
1,46,47,12
1,58,49,158
1,62,33,14
1,56,21,6
1,82,83,44
1,81,82,58
1,62,44,4
1,56,39,0
1,58,39,24
1,80,86,66
1,80,78,66
1,46,63,4
1,79,83,48
1,63,44,84
1,58,44,8
1,77,87,4
1,55,24,24
1,75,83,54
1,74,88,120
1,63,58,2
1,58,55,18
1,55,42,6
1,72,79,48
1,72,78,10
1,46,68,14
1,70,85,26
1,56,56,108
1,65,64,4
1,69,75,4
1,58,56,6
1,70,79,38
1,74,75,104
1,72,88,6
1,58,54,6
1,65,49,6
1,56,44,0
1,70,92,14
1,46,76,20
1,72,81,10
1,70,83,44
1,63,48,122
1,69,61,6
1,58,42,0
1,55,34,4
1,70,67,6
1,74,57,4
1,63,30,20
1,58,32,6
1,72,64,0
1,55,29,18
1,70,69,76
1,46,37,0
1,70,50,44
1,84,61,124
1,62,39,196
1,58,34,8
1,56,28,2
1,82,74,86
1,65,43,156
1,56,35,6
1,81,71,2
1,58,39,4
1,80,76,24
1,51,41,138
1,78,70,16
1,79,83,108
1,58,64,48
1,67,55,4
1,74,75,14
1,75,77,48
1,63,65,146
1,60,35,12
1,57,36,20
1,66,42,8
1,72,63,42
1,70,64,32
1,46,43,16
1,58,60,134
1,58,57,0
1,63,43,14
1,67,53,0
1,70,65,28
1,63,2,14
1,56,41,18
1,62,37,10
1,65,50,12
1,46,41,2
1,70,57,192
1,63,46,12
1,51,24,40
1,58,31,84
1,55,28,18
1,73,47,2
1,48,25,104
1,55,25,166
1,72,53,36
1,58,42,76
1,73,48,26
1,75,55,112
1,64,40,102
1,73,54,96
1,72,51,28
1,53,24,8
1,72,44,6
1,73,34,14
1,60,27,20
1,56,22,10
1,72,55,58
1,70,64,30
1,56,29,30
1,60,28,6
1,68,57,22
1,51,47,22
1,67,57,10
1,56,36,276
1,60,35,14
1,65,51,8
1,65,57,92
1,60,25,24
1,56,26,4
1,77,76,6
1,49,38,10
1,70,82,0
1,61,30,30
1,53,35,4
1,72,83,142
1,46,47,38
1,75,70,4
1,73,69,28
1,41,41,2
1,72,65,34
1,73,62,30
1,75,57,20
1,73,63,86
1,68,36,316
1,60,27,22
1,72,57,130
1,68,38,44
1,72,85,16
1,60,30,14
1,52,65,212
1,71,61,14
1,72,91,22
1,75,58,12
1,67,55,18
1,60,44,2
1,73,88,6
1,58,43,2
1,72,97,22
1,77,98,166
1,67,49,4
1,58,62,2
1,60,48,2
1,79,94,32
1,80,81,26
1,53,65,0
1,68,73,102
1,56,45,34
1,76,82,0
1,65,39,6
1,60,32,26
1,79,76,2
1,77,86,148
1,44,65,2
1,65,80,120
1,46,73,4
1,72,78,8
1,75,63,2
1,61,48,138
1,73,65,8
1,53,44,12
1,55,37,2
1,61,69,42
1,72,66,16
1,34,61,6
1,70,72,4
1,36,54,16
1,67,57,42
1,72,66,24
1,48,55,40
1,55,39,84
1,71,55,4
1,64,35,44
1,72,77,6
1,73,70,104
1,74,75,140
1,56,38,182
1,75,58,6
1,63,27,382
1,77,55,2
1,60,26,16
1,75,42,52
1,73,50,158
1,63,23,14
1,60,5,44
1,72,54,34
1,70,52,16
1,55,35,12
1,63,32,282
1,60,34,16
1,68,45,44
1,68,49,90
1,63,27,2
1,60,29,42
1,80,71,194
1,53,54,8
1,63,41,116
1,56,49,4
1,72,78,0
1,60,31,10
1,75,70,42
1,63,52,126
1,79,87,0
1,56,48,14
1,60,43,4
1,77,93,68
1,46,80,114
1,75,83,18
1,56,49,162
1,58,55,16
1,65,57,34
1,74,84,32
1,65,58,74
1,56,47,2
1,74,73,8
1,58,52,4
1,46,78,160
1,84,94,22
1,56,59,128
1,58,65,4
1,62,54,2
1,82,97,56
1,62,60,108
1,81,95,6
1,56,48,8
1,58,56,8
1,80,93,56
1,46,76,8
1,80,89,0
1,79,94,42
1,58,49,96
1,63,43,4
1,77,91,4
1,55,38,14
1,75,84,68
1,63,51,120
1,74,91,2
1,58,58,0
1,55,41,8
1,72,86,34
1,46,73,16
1,72,86,2
1,70,84,24
1,56,47,74
1,65,63,2
1,58,67,12
1,69,76,4
1,70,81,28
1,74,71,8
1,56,52,6
1,72,83,2
1,65,54,0
1,58,53,12
1,70,87,22
1,46,63,18
1,72,73,16
1,70,67,64
1,63,39,18
1,69,55,0
1,58,37,10
1,55,35,24
1,70,68,14
1,74,49,40
1,63,36,2
1,72,58,4
1,58,26,2
1,55,23,8
1,70,66,2
1,46,43,58
1,70,36,10
1,84,46,132
1,62,39,198
1,58,39,4
1,56,35,8
1,82,77,64
1,81,71,178
1,65,39,0
1,56,29,0
1,58,27,0
1,80,73,6
1,78,71,146
1,51,34,2
1,79,75,2
1,58,28,80
1,74,64,0
1,67,28,4
1,75,67,124
1,63,44,160
1,60,26,6
1,66,28,6
1,57,21,4
1,72,69,14
1,70,65,164
1,46,42,16
1,58,69,134
1,58,37,100
1,67,58,14
1,63,30,12
1,70,59,22
1,62,37,56
1,46,38,4
1,56,34,2
1,65,41,4
1,70,49,60
1,63,36,32
1,51,25,0
1,58,29,70
1,55,22,44
1,64,48,560
1,65,59,162
1,49,34,42
1,58,43,280
1,56,32,14
1,67,65,238
1,58,42,28
1,56,26,10
1,68,54,58
1,46,56,8
1,70,64,8
1,68,70,4
1,67,70,270
1,61,35,2
1,53,34,8
1,68,76,20
1,61,43,16
1,72,63,2
1,51,36,6
1,55,33,18
1,70,62,126
1,51,62,134
1,62,56,82
1,56,40,24
1,60,26,12
1,65,59,4
1,63,47,20
1,60,39,20
1,56,33,4
1,68,46,6
1,60,59,216
1,39,28,4
1,56,35,176
1,51,29,16
1,56,42,62
1,51,41,18
1,55,72,0
1,39,57,6
1,61,80,54
1,63,87,154
1,55,39,8
1,51,58,10
1,67,96,28
1,63,56,144
1,73,89,12
1,58,67,0
1,77,95,48
1,73,75,78
1,51,52,20
1,77,98,16
1,67,71,156
1,58,65,6
1,63,42,4
1,75,87,228
1,67,63,4
1,73,65,4
1,63,44,14
1,58,49,2
1,75,79,2
1,44,44,32
1,77,78,14
1,72,66,10
1,75,80,24
1,74,84,106
1,71,60,2
1,68,45,6
1,56,30,2
1,63,33,8
1,75,74,72
1,72,80,2
1,68,41,76
1,56,32,14
1,73,72,6
1,77,81,2
1,63,33,4
1,75,82,28
1,72,78,20
1,80,74,32
1,44,32,10
1,72,17,16
1,51,21,284
1,60,32,0
1,56,22,6
1,67,52,248
1,51,18,30
1,56,15,12
1,60,12,14
1,65,50,46
1,49,40,8
1,61,43,10
1,53,30,18
1,58,41,0
1,67,73,4
1,61,46,24
1,53,37,24
1,58,43,2
1,46,57,10
1,68,75,2
1,70,76,0
1,68,80,58
1,67,72,110
1,61,51,2
1,53,39,2
1,68,73,44
1,61,40,6
1,51,48,2
1,72,67,12
1,55,32,30
1,70,57,4
1,51,57,140
1,62,54,180
1,56,41,8
1,60,41,8
1,65,67,6
1,63,56,116
1,56,39,18
1,60,38,4
1,68,56,58
1,44,62,142
1,60,68,4
1,53,38,66
1,50,34,12
1,53,40,76
1,50,37,20
1,43,68,84
1,55,70,12
1,60,89,116
1,51,69,8
1,55,67,2
1,63,91,16
1,67,103,74
1,51,68,50
1,55,58,36
1,72,106,14
1,60,84,0
1,75,101,76
1,43,59,10
1,67,74,2
1,75,92,24
1,67,57,104
1,59,44,14
1,55,39,4
1,74,87,246
1,65,83,4
1,67,70,10
1,59,47,4
1,55,45,18
1,48,79,6
1,67,68,110
1,60,62,4
1,55,45,16
1,63,72,84
1,72,66,24
1,60,52,62
1,72,61,2
1,67,61,4
1,63,56,6
1,55,43,14
1,48,59,50
1,67,45,222
1,55,31,10
1,60,35,6
1,63,49,170
1,72,56,8
1,72,41,110
1,63,38,14
1,67,31,16
1,60,11,18
1,55,10,10
1,49,47,268
1,58,49,70
1,65,70,8
1,56,38,0
1,67,79,144
1,56,34,14
1,58,51,4
1,46,60,50
1,68,64,4
1,70,66,4
1,68,50,40
1,61,35,256
1,67,62,0
1,53,43,18
1,68,71,22
1,61,40,146
1,51,48,6
1,72,66,6
1,55,30,40
1,70,59,0
1,51,58,132
1,62,57,12
1,60,40,12
1,56,35,4
1,65,61,6
1,63,48,4
1,56,33,22
1,60,41,6
1,68,51,14
1,60,52,2
1,39,39,20
1,56,37,188
1,51,43,8
1,56,43,4
1,51,42,16
1,55,81,184
1,39,61,8
1,61,86,30
1,63,93,144
1,55,60,20
1,51,50,8
1,67,100,20
1,63,62,20
1,73,92,0
1,55,60,0
1,58,69,12
1,77,99,112
1,73,81,52
1,51,62,4
1,77,100,4
1,67,80,126
1,58,67,8
1,63,48,8
1,75,91,114
1,73,75,4
1,67,68,6
1,58,59,12
1,63,55,2
1,75,90,12
1,72,81,18
1,44,54,0
1,77,82,22
1,75,95,30
1,71,71,126
1,74,91,4
1,68,64,0
1,56,55,4
1,63,47,14
1,75,84,78
1,72,89,8
1,68,62,38
1,73,81,0
1,77,87,2
1,56,42,8
1,63,50,8
1,75,86,2
1,72,83,18
1,80,81,32
1,44,36,10
1,72,37,10
1,60,29,90
1,56,23,4
1,51,22,0
1,67,49,260
1,51,26,16
1,60,18,16
1,56,18,16
1,65,52,32
1,49,38,14
1,61,33,260
1,58,48,14
1,53,30,4
1,67,71,170
1,61,38,2
1,53,42,6
1,58,30,46
1,46,70,12
1,68,75,0
1,70,77,10
1,68,77,38
1,67,83,30
1,61,46,4
1,53,39,24
1,68,83,10
1,61,42,136
1,72,68,2
1,51,41,4
1,55,38,14
1,70,55,4
1,51,62,158
1,62,54,52
1,56,38,4
1,60,39,14
1,65,79,14
1,63,69,10
1,60,56,16
1,56,44,4
1,68,67,30
1,60,70,188
1,39,46,18
1,56,38,204
1,51,41,24
1,56,37,202
1,51,35,14
1,39,47,288
1,62,43,218
1,58,49,16
1,56,25,20
1,63,57,60
1,65,66,20
1,58,50,4
1,56,35,10
1,67,72,38
1,65,71,108
1,51,47,8
1,67,71,26
1,65,65,56
1,64,73,16
1,58,53,8
1,56,46,6
1,62,41,0
1,65,78,18
1,67,81,102
1,58,47,14
1,62,39,6
1,56,44,4
1,68,79,4
1,68,64,98
1,51,44,8
1,70,90,0
1,68,68,6
1,70,55,76
1,67,65,122
1,63,34,2
1,61,38,30
1,58,45,0
1,68,70,2
1,70,69,24
1,63,23,0
1,55,28,0
1,61,24,10
1,72,54,4
1,44,30,20
1,68,44,8
1,51,34,274
1,56,15,12
1,60,28,4
1,72,40,452
1,52,32,18
1,60,10,24
1,56,13,14
1,56,2,144
1,53,25,10
1,73,31,8
1,56,20,28
1,60,18,8
1,72,43,54
1,70,56,20
1,56,20,52
1,60,13,6
1,68,52,0
1,51,39,14
1,67,48,12
1,56,28,310
1,60,34,4
1,65,44,8
1,65,32,100
1,56,23,32
1,60,26,10
1,77,59,18
1,49,41,34
1,70,66,4
1,61,30,32
1,53,35,4
1,72,60,0
1,46,45,22
1,75,56,14
1,73,60,28
1,41,39,64
1,72,51,8
1,73,61,26
1,75,53,32
1,73,56,102
1,60,40,326
1,68,35,0
1,72,60,118
1,68,43,80
1,72,52,4
1,60,34,8
1,71,44,4
1,52,52,10
1,72,81,134
1,75,64,100
1,73,78,34
1,67,38,4
1,60,42,4
1,58,54,4
1,72,92,12
1,77,91,156
1,67,52,6
1,60,37,12
1,58,50,18
1,79,92,8
1,80,79,10
1,53,47,6
1,68,73,138
1,56,34,52
1,76,81,4
1,65,39,0
1,60,17,28
1,79,75,24
1,44,54,156
1,77,76,8
1,65,81,40
1,46,60,12
1,72,86,2
1,75,67,22
1,61,63,140
1,73,69,12
1,53,33,8
1,61,69,48
1,34,54,30
1,72,60,4
1,70,65,4
1,36,40,176
1,67,50,70
1,72,49,114
1,48,42,20
1,55,78,16
1,64,54,8
1,71,71,94
1,72,88,178
1,73,83,148
1,74,90,152
1,75,79,206
1,56,52,6
1,77,81,274
1,63,36,30
1,60,32,16
1,75,83,12
1,73,81,66
1,63,50,14
1,60,29,0
1,72,90,6
1,55,67,182
1,70,78,18
1,63,45,262
1,60,27,16
1,68,64,116
1,63,29,52
1,68,62,10
1,60,19,26
1,80,81,50
1,53,63,10
1,72,95,234
1,63,47,0
1,56,57,6
1,60,49,20
1,75,86,0
1,79,91,92
1,63,55,6
1,56,60,12
1,60,38,6
1,77,97,32
1,46,87,8
1,75,88,22
1,65,79,166
1,56,52,4
1,58,71,6
1,74,99,8
1,56,48,72
1,74,90,4
1,65,76,4
1,58,69,14
1,46,89,2
1,84,100,2
1,56,72,114
1,62,77,2
1,58,80,6
1,82,106,48
1,56,60,62
1,81,98,6
1,62,61,2
1,58,65,6
1,80,95,18
1,80,77,28
1,46,90,4
1,79,95,24
1,63,66,94
1,55,56,10
1,77,89,0
1,58,56,4
1,75,82,20
1,63,70,92
1,74,91,4
1,55,48,8
1,58,61,12
1,72,94,18
1,46,88,16
1,72,94,6
1,70,95,2
1,56,58,82
1,65,69,2
1,69,83,6
1,58,51,6
1,70,85,8
1,74,65,86
1,72,91,0
1,56,46,6
1,65,68,12
1,58,51,16
1,70,83,24
1,46,82,10
1,72,78,6
1,70,77,42
1,69,60,4
1,63,69,8
1,58,51,14
1,55,17,80
1,70,69,22
1,74,60,106
1,72,80,28
1,63,38,14
1,55,32,2
1,58,48,12
1,70,79,42
1,46,59,4
1,70,61,2
1,84,74,62
1,62,45,162
1,58,40,10
1,56,37,2
1,82,64,0
1,81,71,202
1,65,48,12
1,58,31,8
1,56,31,4
1,80,76,34
1,78,70,144
1,51,39,12
1,79,74,10
1,58,47,44
1,74,66,6
1,67,35,6
1,75,70,66
1,60,37,140
1,57,29,6
1,63,34,4
1,66,30,0
1,72,55,32
1,70,56,132
1,46,42,22
1,58,61,42
1,63,41,2
1,58,53,0
1,67,55,16
1,70,59,14
1,62,31,4
1,46,24,14
1,56,28,0
1,65,43,2
1,70,51,18
1,63,45,26
1,51,20,4
1,58,38,52
1,55,9,66
1,64,52,432
1,65,49,4
