track,note,velocity,time
1,36,97,384
1,48,83,126
1,55,78,44
1,60,75,76
1,64,85,70
1,60,88,44
1,67,97,22
1,72,98,4
1,76,86,64
1,72,94,52
1,79,101,22
1,84,100,74
1,88,82,60
1,84,98,42
1,91,97,8
1,96,85,0
1,48,91,74
1,100,87,0
1,96,81,22
1,91,89,26
1,84,79,30
1,88,89,48
1,84,77,4
1,79,84,20
1,72,87,34
1,76,92,46
1,72,80,4
1,67,84,26
1,60,69,50
1,64,91,32
1,60,69,10
1,55,71,68
1,48,91,48
1,29,98,12
1,41,96,0
1,48,98,90
1,57,94,32
1,60,85,12
1,65,88,48
1,60,69,54
1,69,93,42
1,72,94,44
1,77,88,2
1,72,92,42
1,81,100,36
1,84,98,28
1,89,98,4
1,84,94,42
1,93,95,18
1,96,82,60
1,42,88,0
1,30,92,4
1,100,87,10
1,96,79,2
1,93,84,20
1,84,91,2
1,88,87,64
1,84,69,0
1,81,83,14
1,72,69,32
1,76,100,52
1,72,88,16
1,69,96,50
1,60,84,30
1,62,79,58
1,60,85,22
1,57,80,66
1,48,84,62
1,43,97,12
1,31,98,4
1,47,70,142
1,55,84,56
1,59,69,88
1,62,81,60
1,59,82,38
1,67,97,24
1,71,79,12
1,74,95,4
1,30,90,12
1,42,94,0
1,71,81,50
1,79,100,22
1,83,81,4
1,40,105,6
1,28,103,4
1,86,92,18
1,83,92,52
1,91,92,0
1,93,92,16
1,38,105,22
1,26,107,4
1,98,95,4
1,93,87,68
1,90,84,46
1,84,92,8
1,86,89,0
1,81,85,64
1,78,84,32
1,72,90,10
1,74,84,56
1,69,77,58
1,66,81,12
1,60,83,24
1,62,87,44
1,57,76,22
1,54,78,48
1,48,86,26
1,43,91,6
1,31,99,0
1,48,81,72
1,53,81,10
1,56,80,58
1,62,84,14
1,60,97,42
1,65,81,46
1,68,85,72
1,74,74,0
1,72,103,32
1,77,94,34
1,80,80,10
1,86,87,62
1,84,98,44
1,89,96,28
1,92,81,8
1,98,79,8
1,91,78,16
1,89,74,2
1,83,69,22
1,86,89,42
1,79,76,28
1,77,69,42
1,71,69,0
1,74,89,46
1,67,69,32
1,65,87,10
1,59,69,48
1,63,101,66
1,55,70,36
1,53,76,4
1,47,70,62
1,36,104,50
1,48,93,42
1,55,85,6
1,60,72,12
1,64,69,4
1,60,97,20
1,67,92,60
1,72,99,76
1,76,92,54
1,72,101,34
1,79,94,12
1,84,98,68
1,88,96,58
1,84,100,38
1,91,94,2
1,96,92,22
1,48,99,56
1,100,97,6
1,96,78,2
1,91,91,66
1,84,83,16
1,88,91,48
1,84,79,74
1,79,76,26
1,72,80,36
1,76,89,48
1,72,69,4
1,67,83,8
1,60,75,44
1,64,69,72
1,60,69,24
1,55,83,10
1,48,69,82
1,45,91,0
1,33,87,4
1,48,75,78
1,53,82,24
1,60,71,16
1,65,98,0
1,60,85,36
1,65,88,28
1,72,91,32
1,77,104,76
1,72,101,42
1,77,101,38
1,84,103,26
1,89,83,68
1,84,105,24
1,89,78,6
1,96,71,34
1,100,95,0
1,96,69,10
1,90,82,60
1,84,83,20
1,88,85,44
1,84,78,70
1,78,76,58
1,72,70,56
1,76,90,40
1,72,82,86
1,66,72,52
1,60,79,20
1,64,82,44
1,60,69,56
1,54,72,58
1,48,81,36
1,31,100,6
1,43,92,0
1,48,74,72
1,55,76,4
1,60,74,0
1,62,72,80
1,60,97,44
1,67,87,42
1,72,79,4
1,74,80,70
1,72,98,42
1,79,95,30
1,84,87,18
1,86,73,78
1,84,101,30
1,91,91,46
1,96,86,22
1,98,89,34
1,95,75,2
1,91,85,66
1,83,69,16
1,86,83,52
1,83,69,18
1,79,85,22
1,71,69,50
1,74,69,56
1,71,69,22
1,67,73,6
1,59,70,46
1,62,76,52
1,59,69,6
1,55,71,24
1,47,71,64
1,48,100,58
1,36,92,2
1,50,82,86
1,55,92,24
1,62,69,42
1,64,81,52
1,62,94,30
1,67,102,30
1,74,97,14
1,76,91,74
1,74,105,42
1,79,103,38
1,86,98,80
1,88,78,76
1,86,103,28
1,91,101,78
1,98,83,12
1,100,86,0
1,96,81,2
1,91,87,26
1,84,77,28
1,88,89,34
1,84,69,74
1,79,85,8
1,72,90,32
1,76,81,52
1,72,83,0
1,67,75,30
1,60,84,32
1,64,87,16
1,60,70,0
1,55,70,2
1,48,88,82
1,45,92,14
1,33,84,0
1,52,69,144
1,60,77,38
1,64,69,20
1,65,72,56
1,64,75,36
1,72,84,28
1,76,69,34
1,77,69,72
1,76,90,32
1,84,84,36
1,88,85,40
1,89,74,70
1,88,87,38
1,96,85,30
1,100,69,32
1,47,79,22
1,35,77,4
1,101,91,2
1,98,72,48
1,95,69,8
1,86,79,6
1,89,91,42
1,86,72,48
1,83,69,8
1,74,76,6
1,77,80,48
1,45,86,20
1,33,82,2
1,74,69,66
1,71,69,52
1,62,69,40
1,65,76,56
1,62,69,68
1,59,69,66
1,50,80,24
1,44,79,14
1,32,84,6
1,50,84,66
1,59,84,24
1,62,74,18
1,64,83,16
1,62,78,48
1,71,74,38
1,74,69,42
1,76,75,74
1,74,93,36
1,83,78,50
1,86,83,32
1,88,77,72
1,86,95,18
1,95,86,2
1,98,75,2
1,45,91,22
1,33,84,0
1,100,97,2
1,96,90,6
1,93,87,70
1,84,81,20
1,88,91,46
1,84,79,72
1,81,79,6
1,72,89,28
1,76,91,36
1,43,100,32
1,31,103,0
1,72,87,48
1,69,70,66
1,60,88,30
1,64,69,64
1,60,73,70
1,57,79,54
1,48,85,16
1,29,101,56
1,41,93,2
1,48,79,4
1,57,80,74
1,60,81,2
1,64,69,8
1,60,89,40
1,69,87,84
1,72,95,76
1,76,84,56
1,72,100,32
1,81,98,28
1,84,94,34
1,88,81,58
1,84,95,32
1,93,98,30
1,96,88,32
1,99,93,48
1,95,70,90
1,93,79,44
1,83,82,48
1,87,73,54
1,83,69,52
1,81,69,22
1,71,76,18
1,75,87,38
1,71,78,0
1,69,69,8
1,59,76,14
1,63,90,36
1,59,72,94
1,57,74,40
1,47,81,44
1,40,100,0
1,28,102,2
1,47,72,60
1,57,92,82
1,59,73,26
1,64,92,12
1,59,69,62
1,69,69,68
1,71,73,12
1,76,69,18
1,71,76,8
1,81,97,52
1,83,79,24
1,88,94,68
1,83,82,42
1,93,80,50
1,95,84,8
1,100,92,0
1,95,78,68
1,92,75,20
1,83,83,22
1,88,86,46
1,83,76,80
1,80,83,56
1,71,69,48
1,76,84,34
1,71,69,90
1,68,77,44
1,59,69,56
1,64,70,36
1,59,69,16
1,56,69,16
1,47,72,56
1,33,79,98
1,45,79,0
1,52,77,92
1,57,76,14
1,61,78,8
1,67,95,78
1,64,74,62
1,69,95,20
1,73,88,42
1,79,91,60
1,76,95,48
1,81,96,12
1,85,88,74
1,91,100,70
1,85,85,60
1,81,95,90
1,76,79,30
1,38,90,4
1,91,97,14
1,84,92,4
1,81,88,14
1,76,91,26
1,79,89,46
1,72,73,0
1,69,69,12
1,64,86,34
1,67,92,50
1,60,88,66
1,57,71,76
1,52,88,42
1,66,96,62
1,60,87,92
1,57,69,68
1,50,92,14
1,43,92,18
1,31,97,4
1,50,81,42
1,55,91,76
1,60,79,6
1,65,84,48
1,62,91,8
1,67,91,32
1,72,96,22
1,77,100,58
1,74,92,52
1,79,100,28
1,84,100,0
1,89,100,54
1,86,78,44
1,91,99,66
1,96,97,2
1,101,96,42
1,95,74,26
1,91,89,20
1,86,78,30
1,89,89,42
1,83,81,62
1,79,69,16
1,74,92,2
1,77,79,58
1,71,74,0
1,67,79,6
1,62,82,28
1,65,84,58
1,59,75,6
1,55,78,38
1,50,69,26
1,36,91,48
1,48,82,48
1,55,78,42
1,58,86,76
1,64,86,38
1,60,81,52
1,67,93,24
1,70,95,24
1,76,77,78
1,72,85,42
1,79,96,16
1,82,101,18
1,88,81,2
1,84,95,34
1,91,91,30
1,96,81,54
1,42,78,0
1,30,79,0
1,99,73,18
1,94,84,44
1,87,81,76
1,84,86,10
1,87,69,40
1,82,93,20
1,75,79,26
1,72,97,12
1,75,69,60
1,70,92,6
1,63,89,10
1,60,76,24
1,63,73,42
1,58,92,18
1,51,81,20
1,48,89,14
1,41,94,20
1,29,97,0
1,48,84,64
1,51,92,0
1,57,81,56
1,63,76,36
1,60,84,12
1,63,82,22
1,69,98,58
1,75,84,40
1,72,91,20
1,75,86,28
1,81,98,58
1,87,82,46
1,84,87,20
1,87,87,24
1,93,72,72
1,99,75,26
1,47,83,10
1,35,78,4
1,92,93,32
1,87,70,30
1,83,81,12
1,87,89,28
1,80,88,24
1,75,84,0
1,71,75,22
1,75,83,56
1,68,86,22
1,63,84,68
1,59,75,30
1,63,81,52
1,56,84,24
1,51,81,12
1,47,69,70
1,34,106,38
1,46,101,48
1,53,71,40
1,56,74,20
1,62,96,2
1,58,91,60
1,65,88,36
1,68,85,8
1,74,102,60
1,70,97,42
1,77,94,2
1,80,87,58
1,86,103,40
1,82,104,52
1,89,96,2
1,92,90,62
1,46,110,30
1,98,102,4
1,92,70,2
1,88,79,32
1,82,75,20
1,86,83,40
1,80,82,6
1,76,69,72
1,70,101,12
1,74,85,66
1,68,77,14
1,64,72,82
1,58,101,14
1,62,83,70
1,56,82,70
1,52,70,12
1,46,96,60
1,33,99,44
1,45,100,6
1,45,71,66
1,52,84,52
1,57,69,10
1,45,69,14
1,61,87,62
1,57,94,40
1,64,98,36
1,69,81,16
1,73,86,16
1,69,83,68
1,76,69,34
1,81,91,8
1,85,73,8
1,81,85,24
1,88,98,46
1,93,85,48
1,97,95,50
1,93,91,82
1,88,87,58
1,81,87,30
1,85,103,50
1,81,70,6
1,76,75,20
1,69,83,34
1,73,95,42
1,69,86,4
1,64,80,66
1,57,69,42
1,61,90,32
1,57,79,102
1,52,75,48
1,45,98,42
1,38,89,52
1,45,84,8
1,50,78,12
1,54,69,18
1,60,92,14
1,57,89,48
1,62,85,24
1,66,80,28
1,72,94,68
1,69,92,40
1,74,98,26
1,78,89,26
1,84,92,64
1,81,94,48
1,86,83,28
1,90,83,66
1,43,78,4
1,31,86,4
1,96,87,12
1,89,91,48
1,86,83,24
1,79,69,40
1,84,92,38
1,77,81,4
1,74,84,72
1,67,84,36
1,72,99,42
1,65,80,14
1,62,81,14
1,55,75,42
1,59,73,46
1,53,80,6
1,50,79,48
1,43,90,68
1,36,101,2
1,43,78,78
1,48,81,6
1,52,87,76
1,59,78,24
1,55,82,54
1,60,88,26
1,64,97,8
1,71,87,68
1,67,83,50
1,72,98,22
1,76,101,26
1,83,87,70
1,79,97,48
1,84,97,18
1,88,97,12
1,41,90,12
1,29,89,4
1,95,88,6
1,88,91,0
1,84,97,16
1,77,84,36
1,83,89,38
1,76,93,2
1,72,90,66
1,65,77,44
1,71,75,36
1,64,83,0
1,60,78,12
1,53,79,44
1,57,69,56
1,52,72,26
1,48,80,18
1,41,81,78
1,43,69,38
1,35,88,16
1,41,80,52
1,47,69,20
1,50,84,8
1,57,92,66
1,53,87,52
1,59,72,40
1,62,89,24
1,69,87,64
1,65,97,42
1,71,82,32
1,74,99,2
1,81,98,4
1,77,100,50
1,83,87,10
1,86,94,70
1,40,101,12
1,28,103,4
1,91,97,8
1,86,89,68
1,83,76,14
1,76,97,8
1,79,97,30
1,74,81,0
1,71,77,8
1,64,88,36
1,45,107,2
1,33,105,0
1,69,70,22
1,72,98,2
1,79,98,0
1,76,99,0
1,81,100,44
1,84,100,68
1,91,98,8
1,88,97,12
1,38,108,8
1,89,107,4
1,26,106,0
1,84,100,70
1,81,93,78
1,74,85,32
1,77,81,54
1,72,88,66
1,69,82,16
1,62,80,42
1,43,91,28
1,31,94,4
1,67,96,2
1,71,84,4
1,77,100,70
1,74,94,52
1,79,99,46
1,83,79,2
1,89,97,26
1,86,95,4
1,36,103,86
1,24,103,0
1,88,107,2
1,83,90,58
1,79,93,64
1,72,99,16
1,76,75,62
1,71,69,58
1,67,84,48
1,60,92,32
1,41,102,80
1,29,105,2
1,65,97,4
1,69,98,46
1,76,108,52
1,72,95,54
1,77,100,40
1,81,104,64
1,88,102,12
1,84,100,0
1,47,96,6
1,35,90,4
1,86,105,8
1,81,99,56
1,77,94,12
1,71,83,26
1,74,94,52
1,69,82,0
1,65,83,2
1,59,80,32
1,62,72,2
1,57,89,70
1,53,87,0
1,47,84,18
1,35,100,20
1,47,102,348
1,87,107,2
1,81,94,90
1,78,74,36
1,71,75,20
1,75,97,60
1,69,95,98
1,66,79,54
1,59,76,30
1,63,96,48
1,57,97,34
1,54,86,42
1,47,91,10
1,35,105,76
1,28,117,136
1,40,116,2
1,47,83,28
1,52,93,10
1,56,86,74
1,64,100,34
1,59,83,58
1,64,99,30
1,68,86,38
1,76,69,60
1,71,83,18
1,76,84,32
1,80,92,14
1,88,94,20
1,83,92,32
1,88,69,34
1,92,95,38
1,100,101,62
1,92,85,12
1,88,92,84
1,83,74,6
1,88,83,46
1,80,84,14
1,76,88,76
1,71,78,8
1,76,89,52
1,68,83,10
1,64,79,96
1,59,87,4
1,26,110,56
1,38,105,0
1,65,99,4
1,59,84,20
1,55,86,84
1,50,92,74
1,36,109,12
1,24,117,4
1,48,94,98
1,55,85,10
1,60,81,86
1,64,94,60
1,60,93,32
1,67,92,22
1,72,97,28
1,76,69,12
1,72,75,10
1,79,87,18
1,84,89,20
1,88,82,68
1,84,106,28
1,91,96,8
1,96,88,78
1,48,109,54
1,100,95,4
1,96,69,72
1,91,83,68
1,84,91,16
1,88,80,50
1,84,96,76
1,79,84,56
1,72,98,30
1,76,92,52
1,72,88,72
1,67,75,24
1,60,82,34
1,64,81,50
1,60,70,64
1,55,69,46
1,48,85,64
1,41,103,16
1,29,104,4
1,48,94,50
1,57,98,56
1,60,89,4
1,65,95,2
1,60,73,44
1,69,95,46
1,72,101,76
1,77,90,4
1,72,97,26
1,81,98,10
1,84,99,64
1,89,95,2
1,84,89,40
1,93,99,20
1,96,93,38
1,100,82,8
1,42,100,0
1,30,100,10
1,96,76,36
1,93,83,64
1,84,88,24
1,88,94,52
1,84,85,72
1,81,81,64
1,72,91,34
1,76,101,50
1,72,97,82
1,69,71,66
1,60,87,26
1,62,76,64
1,60,79,70
1,57,85,58
1,48,92,6
1,43,98,32
1,31,100,2
1,47,79,118
1,55,78,30
1,59,69,80
1,62,78,10
1,59,80,34
1,67,88,12
1,71,69,78
1,74,80,58
1,42,97,8
1,30,94,4
1,71,81,46
1,79,96,26
1,83,75,4
1,40,110,18
1,86,86,0
1,28,110,4
1,83,75,60
1,91,89,24
1,93,91,4
1,38,109,58
1,26,110,4
1,98,94,10
1,93,90,54
1,90,84,50
1,84,91,6
1,86,88,54
1,81,92,70
1,78,83,30
1,72,78,18
1,74,91,46
1,69,74,72
1,66,82,38
1,60,88,18
1,62,82,50
1,57,79,24
1,54,70,34
1,48,94,10
1,43,94,4
1,31,98,0
1,48,75,48
1,53,78,70
1,56,86,50
1,62,87,26
1,60,86,48
1,65,92,24
1,68,88,74
1,74,89,58
1,72,99,44
1,77,98,18
1,80,88,72
1,86,85,48
1,84,99,42
1,89,95,14
1,92,81,56
1,98,87,30
1,91,75,2
1,89,87,22
1,83,69,26
1,86,93,36
1,79,76,0
1,77,84,60
1,71,69,36
1,74,97,40
1,67,89,4
1,65,85,62
1,59,77,32
1,63,105,80
1,55,72,48
1,53,83,6
1,47,84,8
1,36,105,30
1,24,97,14
1,48,93,68
1,55,88,62
1,60,85,76
1,64,94,18
1,60,102,42
1,67,91,32
1,72,97,72
1,76,94,38
1,72,103,42
1,79,100,74
1,84,94,72
1,88,91,40
1,84,105,46
1,91,89,74
1,96,89,62
1,100,100,52
1,48,106,2
1,96,72,66
1,91,88,76
1,84,84,16
1,88,100,40
1,84,87,76
1,79,84,60
1,72,80,30
1,76,83,48
1,72,93,0
1,67,81,0
1,60,95,26
1,64,90,58
1,60,88,8
1,55,85,24
1,48,92,52
1,45,106,14
