track,note,velocity,time
3,60,127,16800
3,67,127,0
3,65,127,0
3,60,0,384
3,65,0,0
3,67,0,95
3,64,127,241
3,64,0,96
3,65,127,24
3,65,0,96
3,64,127,24
3,67,127,0
3,64,0,48
3,67,0,0
3,64,127,12
3,67,127,0
3,64,0,48
3,67,0,0
3,64,127,12
3,67,127,0
3,64,0,48
3,67,0,0
3,64,127,12
3,67,127,0
3,64,0,96
3,67,0,0
3,67,127,24
3,67,0,48
3,69,127,12
3,69,0,48
3,67,127,12
3,67,0,48
3,65,127,12
3,65,0,48
3,62,127,12
3,65,127,0
3,62,0,48
3,65,0,242
3,62,127,70
3,62,0,48
3,62,127,12
3,65,127,0
3,62,0,48
3,65,0,0
3,62,127,12
3,65,127,0
3,62,0,48
3,65,127,72
3,65,127,0
3,65,0,48
3,65,0,0
3,65,0,0
3,65,127,12
3,65,0,48
3,69,127,12
3,69,0,96
3,67,127,24
3,67,0,48
3,64,127,12
3,64,0,239
3,67,127,181
3,67,0,48
3,64,127,12
3,72,127,0
3,64,127,120
3,72,127,0
3,64,127,60
3,72,127,0
3,69,127,180
3,64,0,24
3,71,127,36
3,72,0,59
3,72,127,1
3,64,0,24
3,72,0,0
3,74,127,36
3,64,0,24
3,72,0,0
3,74,127,36
3,74,127,60
3,69,0,84
3,71,0,60
3,69,127,36
3,72,0,24
3,72,127,36
3,74,0,24
3,74,127,36
3,74,0,24
3,74,0,60
3,74,127,36
3,76,127,60
3,74,127,60
3,77,127,0
3,69,0,24
3,72,0,60
3,76,127,36
3,74,0,24
3,72,127,36
3,74,127,60
3,72,127,0
3,74,0,24
3,76,0,60
3,74,0,60
3,77,0,0
3,72,0,96
3,76,0,24
3,72,0,60
3,74,0,35
3,64,127,61
3,64,127,60
3,67,127,0
3,64,127,120
3,67,127,0
3,64,127,60
3,67,127,0
3,67,127,120
3,64,0,24
3,69,127,36
3,64,0,24
3,67,0,0
3,67,127,96
3,64,0,24
3,67,0,0
3,62,127,36
3,65,127,0
3,64,0,24
3,67,0,0
3,67,0,120
3,62,0,26
3,65,0,0
3,69,0,34
3,62,127,96
3,67,0,24
3,64,127,36
3,62,127,60
3,65,127,0
3,62,0,96
3,65,0,0
3,65,127,24
3,65,0,48
3,65,127,12
3,65,0,48
3,65,127,12
3,62,0,24
3,65,0,24
3,69,127,12
3,64,0,24
3,69,0,72
3,67,127,24
3,67,0,48
3,64,127,12
3,64,0,239
3,67,127,121
3,67,0,48
3,67,127,12
3,67,0,48
3,64,127,12
3,72,127,0
3,64,0,48
3,72,0,0
3,64,127,12
3,72,127,0
3,64,0,48
3,72,0,0
3,64,127,12
3,72,127,0
3,64,0,48
3,72,0,0
3,64,127,12
3,72,127,0
3,64,0,144
3,69,127,36
3,69,0,48
3,72,0,11
3,71,127,1
3,71,0,48
3,72,127,12
3,72,0,48
3,74,127,12
3,74,0,48
3,74,127,12
3,74,0,48
3,74,127,12
3,74,0,96
3,74,127,24
3,74,0,48
3,74,127,12
3,74,0,48
3,74,127,12
3,74,0,48
3,74,127,12
3,74,0,96
3,74,127,24
3,74,0,48
3,76,127,12
3,76,0,48
3,74,127,12
3,77,127,0
3,74,0,48
3,77,0,0
3,76,127,12
3,76,0,48
3,72,127,12
3,72,0,48
3,76,127,12
3,76,0,48
3,72,127,12
3,74,127,0
3,72,0,96
3,74,0,0
3,67,127,24
3,67,0,48
3,67,127,12
3,67,0,48
3,79,127,12
3,79,0,96
3,76,127,24
3,76,0,48
3,71,127,12
3,74,127,0
3,71,0,48
3,74,0,0
3,72,127,12
3,76,127,0
3,76,0,315
3,72,0,44
3,69,127,1
3,77,127,0
3,69,0,96
3,77,0,0
3,67,127,24
3,76,127,0
3,67,0,96
3,76,0,0
3,76,127,24
3,76,0,48
3,76,127,12
3,76,0,48
3,77,127,12
3,77,0,96
3,79,127,24
3,79,0,48
3,79,127,12
3,79,0,48
3,70,127,12
3,74,127,0
3,77,127,0
3,74,0,384
3,77,0,0
3,70,0,95
3,77,127,121
3,77,0,48
3,77,127,12
3,77,0,48
3,70,127,12
3,79,127,0
3,79,0,144
3,70,0,26
3,76,127,10
3,76,0,48
3,74,127,12
3,74,0,48
3,69,127,12
3,72,127,0
3,72,0,145
3,69,0,143
3,70,127,72
3,74,127,0
3,70,0,48
3,74,0,0
3,69,127,12
3,72,127,0
3,69,0,119
3,72,0,1
3,67,127,60
3,67,0,48
3,69,127,12
3,77,127,0
3,69,0,96
3,77,0,0
3,76,127,24
3,76,0,48
3,74,127,12
3,74,0,48
3,72,127,12
3,74,127,0
3,74,0,288
3,72,0,71
3,76,127,1
3,76,0,48
3,79,127,12
3,79,0,48
3,74,127,12
3,71,127,0
3,74,0,96
3,71,0,0
3,79,127,24
3,79,0,48
3,79,127,12
3,79,0,48
3,71,127,12
3,79,127,0
3,71,0,144
3,79,0,26
3,79,127,10
3,79,0,48
3,71,127,12
3,76,127,0
3,76,0,240
3,71,0,50
3,74,127,10
3,74,0,48
3,72,127,12
3,72,0,96
3,76,127,144
3,76,0,48
3,76,127,12
3,76,0,48
3,77,127,12
3,77,0,96
3,79,127,24
3,79,0,96
3,81,127,24
3,81,0,48
3,79,127,12
3,79,0,48
3,77,127,12
3,77,0,359
3,72,127,1
3,77,127,0
3,72,0,240
3,77,0,0
3,81,127,120
3,81,0,48
3,81,127,12
3,81,0,48
3,76,127,12
3,79,127,0
3,76,0,192
3,79,0,47
3,76,127,1
3,76,0,96
3,67,127,24
3,67,0,96
3,67,127,204
3,67,0,48
3,77,127,12
3,77,0,96
3,76,127,24
3,76,0,48
3,74,127,12
3,74,0,48
3,69,127,12
3,69,0,48
3,72,127,12
3,72,0,48
3,69,127,12
3,72,127,0
3,69,0,288
3,72,0,71
3,64,127,1
3,72,127,0
3,60,127,1
3,67,127,0
3,65,127,0
3,64,0,358
3,72,0,0
3,60,0,26
3,65,0,0
3,67,0,95
3,64,127,241
3,64,0,96
3,65,127,24
3,65,0,96
3,64,127,24
3,67,127,0
3,64,0,48
3,67,0,0
3,64,127,12
3,67,127,0
3,64,0,48
3,67,0,0
3,64,127,12
3,67,127,0
3,64,0,48
3,67,0,0
3,64,127,12
3,67,127,0
3,64,0,96
3,67,0,0
3,67,127,24
3,67,0,48
3,69,127,12
3,69,0,48
3,67,127,12
3,67,0,48
3,65,127,12
3,65,0,48
3,62,127,12
3,65,127,0
3,62,0,48
3,65,0,242
3,62,127,70
3,62,0,48
3,62,127,12
3,65,127,0
3,62,0,48
3,65,0,0
3,62,127,12
3,65,127,0
3,62,0,48
3,65,127,72
3,65,127,0
3,65,0,48
3,65,0,0
3,65,0,0
3,65,127,12
3,65,0,48
3,69,127,12
3,69,0,96
3,67,127,24
3,67,0,48
3,64,127,12
3,64,0,239
3,67,127,181
3,67,0,48
3,64,127,12
3,72,127,0
3,64,127,120
3,72,127,0
3,64,127,60
3,72,127,0
3,69,127,180
3,64,0,24
3,71,127,36
3,72,0,59
3,72,127,1
3,64,0,24
3,72,0,0
3,74,127,36
3,64,0,24
3,72,0,0
3,74,127,36
3,74,127,60
3,69,0,84
3,71,0,60
3,69,127,36
3,72,0,24
3,72,127,36
3,74,0,24
3,74,127,36
3,74,0,24
3,74,0,60
3,74,127,36
3,76,127,60
3,74,127,60
3,77,127,0
3,69,0,24
3,72,0,60
3,76,127,36
3,74,0,24
3,72,127,36
3,74,127,60
3,72,127,0
3,74,0,24
3,76,0,60
3,74,0,60
3,77,0,0
3,72,0,96
3,76,0,24
3,72,0,60
3,74,0,35
3,64,127,61
3,64,127,60
3,67,127,0
3,64,127,120
3,67,127,0
3,64,127,60
3,67,127,0
3,67,127,120
3,64,0,24
3,69,127,36
3,64,0,24
3,67,0,0
3,67,127,96
3,64,0,24
3,67,0,0
3,62,127,36
3,65,127,0
3,64,0,24
3,67,0,0
3,67,0,120
3,62,0,26
3,65,0,0
3,69,0,34
3,62,127,96
3,67,0,24
3,64,127,36
3,62,127,60
3,65,127,0
3,62,0,96
3,65,0,0
3,65,127,24
3,65,0,48
3,65,127,12
3,65,0,48
3,65,127,12
3,62,0,24
3,65,0,24
3,69,127,12
3,64,0,24
3,69,0,72
3,67,127,24
3,67,0,48
3,64,127,12
3,64,0,239
3,67,127,121
3,67,0,48
3,67,127,12
3,67,0,48
3,64,127,12
3,72,127,0
3,64,0,48
3,72,0,0
3,64,127,12
3,72,127,0
3,64,0,48
3,72,0,0
3,64,127,12
3,72,127,0
3,64,0,48
3,72,0,0
3,64,127,12
3,72,127,0
3,64,0,144
3,69,127,36
3,69,0,48
3,72,0,11
3,71,127,1
3,71,0,48
3,72,127,12
3,72,0,48
3,74,127,12
3,74,0,48
3,74,127,12
3,74,0,48
3,74,127,12
3,74,0,96
3,74,127,24
3,74,0,48
3,74,127,12
3,74,0,48
3,74,127,12
3,74,0,48
3,74,127,12
3,74,0,96
3,74,127,24
3,74,0,48
3,76,127,12
3,76,0,48
3,74,127,12
3,77,127,0
3,74,0,48
3,77,0,0
3,76,127,12
3,76,0,48
3,72,127,12
3,72,0,48
3,76,127,12
3,76,0,48
3,72,127,12
3,74,127,0
3,72,0,96
3,74,0,0
3,67,127,24
3,67,0,48
3,67,127,12
3,67,0,48
3,79,127,12
3,79,0,96
3,76,127,24
3,76,0,48
3,71,127,12
3,74,127,0
3,71,0,48
3,74,0,0
3,72,127,12
3,76,127,0
3,76,0,315
3,72,0,44
3,69,127,1
3,77,127,0
3,69,0,96
3,77,0,0
3,67,127,24
3,76,127,0
3,67,0,96
3,76,0,0
3,76,127,24
3,76,0,48
3,76,127,12
3,76,0,48
3,77,127,12
3,77,0,96
3,79,127,24
3,79,0,48
3,79,127,12
3,79,0,48
3,70,127,12
3,74,127,0
3,77,127,0
3,74,0,384
3,77,0,0
3,70,0,95
3,77,127,121
3,77,0,48
3,77,127,12
3,77,0,48
3,70,127,12
3,79,127,0
3,79,0,144
3,70,0,26
3,76,127,10
3,76,0,48
3,74,127,12
3,74,0,48
3,69,127,12
3,72,127,0
3,72,0,145
3,69,0,143
3,70,127,72
3,74,127,0
3,70,0,48
3,74,0,0
3,69,127,12
3,72,127,0
3,69,0,119
3,72,0,1
3,67,127,60
3,67,0,48
3,69,127,12
3,77,127,0
3,69,0,96
3,77,0,0
3,76,127,24
3,76,0,48
3,74,127,12
3,74,0,48
3,72,127,12
3,74,127,0
3,74,0,288
3,72,0,71
3,76,127,1
3,76,0,48
3,79,127,12
3,79,0,48
3,74,127,12
3,71,127,0
3,74,0,96
3,71,0,0
3,79,127,24
3,79,0,48
3,79,127,12
3,79,0,48
3,71,127,12
3,79,127,0
3,71,0,144
3,79,0,26
3,79,127,10
3,79,0,48
3,71,127,12
3,76,127,0
3,76,0,240
3,71,0,50
3,74,127,10
3,74,0,48
3,72,127,12
3,72,0,96
3,76,127,144
3,76,0,48
3,76,127,12
3,76,0,48
3,77,127,12
3,77,0,96
3,79,127,24
3,79,0,96
3,81,127,24
3,81,0,48
3,79,127,12
3,79,0,48
3,77,127,12
3,77,0,359
3,72,127,1
3,77,127,0
3,72,0,240
3,77,0,0
3,81,127,120
3,81,0,48
3,81,127,12
3,81,0,48
3,76,127,12
3,79,127,0
3,76,0,192
3,79,0,47
3,76,127,1
3,76,0,96
3,67,127,24
3,67,0,96
3,67,127,204
3,67,0,48
3,77,127,12
3,77,0,96
3,76,127,24
3,76,0,48
3,74,127,12
3,74,0,48
3,69,127,12
3,69,0,48
3,72,127,12
3,72,0,48
3,69,127,12
3,72,127,0
3,69,0,288
3,72,0,71
3,64,127,1
3,72,127,0
3,64,0,359
3,72,0,0
3,67,127,121
3,76,127,0
3,67,0,288
3,76,0,71
3,72,127,1
3,72,0,48
3,72,127,12
3,72,0,48
3,69,127,12
3,74,127,0
3,77,127,0
3,74,0,288
3,77,0,0
3,69,0,71
3,69,127,1
3,77,127,0
3,69,0,48
3,77,0,0
3,67,127,12
3,76,127,0
3,67,0,48
3,76,0,0
3,67,127,12
3,76,127,0
3,67,0,96
3,76,0,0
3,74,127,24
3,74,0,96
3,74,127,24
3,74,0,96
3,72,127,24
3,72,0,48
3,74,127,12
3,74,0,48
3,76,127,12
3,76,0,96
3,72,127,24
3,72,0,96
3,64,127,24
3,67,127,0
3,64,0,96
3,67,0,0
3,64,127,24
3,64,0,48
3,67,127,12
3,67,0,48
3,64,127,12
3,72,127,0
3,64,0,288
3,72,0,71
3,71,127,1
3,71,0,48
3,72,127,12
3,72,0,48
3,72,127,12
3,65,127,0
3,65,0,288
3,72,0,71
3,74,127,1
3,74,0,48
3,76,127,12
3,76,0,48
3,74,127,12
3,77,127,0
3,76,127,180
3,76,0,48
3,74,127,12
3,77,0,48
3,74,0,71
3,74,0,51
3,72,127,10
3,72,0,48
3,72,127,12
3,74,127,0
3,74,0,288
3,72,0,71
3,72,127,1
3,72,0,48
3,74,127,12
3,74,0,48
3,67,127,12
3,76,127,0
3,76,0,288
3,67,0,71
3,72,127,1
3,72,0,48
3,72,127,12
3,72,0,48
3,72,127,12
3,72,0,48
3,69,127,12
3,77,127,0
3,69,0,240
3,77,0,50
3,69,127,10
3,77,127,0
3,69,0,48
3,77,0,0
3,67,127,12
3,76,127,0
3,67,0,48
3,76,0,0
3,67,127,12
3,76,127,0
3,67,0,48
3,76,0,0
3,74,127,12
3,74,0,290
3,72,127,10
3,72,0,48
3,74,127,12
3,74,0,48
3,76,127,12
3,76,0,96
3,72,127,24
3,72,0,96
3,64,127,24
3,67,127,0
3,64,0,96
3,67,0,0
3,64,127,24
3,64,0,48
3,67,127,12
3,67,0,48
3,64,127,12
3,72,127,0
3,72,0,288
3,64,0,71
3,74,127,1
3,74,0,48
3,72,127,12
3,72,0,48
3,65,127,12
3,72,127,0
3,72,0,288
3,65,0,71
3,74,127,1
3,74,0,48
3,76,127,12
3,76,0,48
3,74,127,12
3,77,127,0
3,77,0,288
3,74,0,71
3,76,127,1
3,76,0,48
3,72,127,12
3,72,0,48
3,74,127,12
3,72,127,0
3,74,0,96
3,72,0,0
3,67,127,24
3,67,0,48
3,67,127,12
3,67,0,48
3,79,127,12
3,79,0,72
3,76,127,18
3,76,0,48
3,71,127,12
3,74,127,0
3,71,0,72
3,74,0,0
3,72,127,18
3,76,127,0
3,76,0,288
3,72,0,71
3,69,127,1
3,77,127,0
3,69,0,96
3,77,0,0
3,67,127,24
3,76,127,0
3,67,0,96
3,76,0,0
3,76,127,24
3,76,0,48
3,76,127,12
3,76,0,48
3,77,127,12
3,77,0,96
3,79,127,24
3,79,0,96
3,79,127,24
3,79,0,48
3,77,127,12
3,77,0,410
3,77,127,130
3,77,0,48
3,77,127,12
3,77,0,48
3,70,127,12
3,79,127,0
3,70,0,96
3,79,0,0
3,76,127,24
3,76,0,48
3,74,127,12
3,74,0,48
3,69,127,12
3,72,127,0
3,69,0,336
3,72,0,0
3,70,127,84
3,74,127,0
3,70,0,48
3,74,0,0
3,69,127,12
3,72,127,0
3,69,0,96
3,72,0,0
3,67,127,84
3,67,0,119
3,77,127,1
3,77,0,170
3,79,127,70
3,76,127,60
3,79,0,12
3,76,0,36
3,74,127,12
3,74,0,48
3,67,127,12
3,72,127,0
3,74,127,0
3,72,0,192
3,74,0,0
3,67,0,47
3,79,127,121
3,79,0,48
3,79,127,12
3,79,0,48
3,79,127,12
3,79,0,96
3,74,127,24
3,82,127,0
3,74,0,96
3,82,0,0
3,79,127,24
3,79,0,172
3,77,127,8
3,77,0,48
3,75,127,12
3,75,0,239
3,79,127,121
3,79,0,48
3,79,127,12
3,79,0,48
3,76,127,12
3,80,127,0
3,82,127,120
3,76,0,72
3,80,0,0
3,82,0,24
3,82,127,24
3,82,0,48
3,80,127,12
3,80,0,48
3,80,127,12
3,80,0,239
3,77,127,1
3,77,0,119
3,77,127,1
3,80,127,0
3,80,0,288
3,77,0,71
3,84,127,1
3,84,0,48
3,84,127,12
3,84,0,48
3,82,127,12
3,82,0,239
