track,note,velocity,time
0,50,66,1393
0,66,54,99
0,57,49,2
0,62,55,2
0,50,0,49
0,66,0,10
0,57,0,4
0,57,67,140
0,59,78,11
0,62,0,1
0,57,0,7
0,62,63,69
0,67,51,2
0,59,36,0
0,59,0,70
0,62,0,12
0,67,0,6
0,59,66,5
0,59,0,21
0,60,60,5
0,59,0,7
0,60,56,11
0,66,50,3
0,69,44,2
0,60,0,38
0,38,39,334
0,26,51,10
0,60,0,54
0,66,0,3
0,69,0,5
0,38,0,267
0,26,0,41
0,38,58,188
0,57,42,4
0,62,52,0
0,66,43,1
0,38,0,16
0,57,0,1
0,57,66,24
0,62,51,5
0,62,0,182
0,66,0,8
0,57,0,10
0,62,0,51
0,57,60,48
0,38,51,3
0,57,0,6
0,58,84,0
0,38,0,5
0,59,71,3
0,58,0,15
0,59,0,54
0,67,53,5
0,62,54,2
0,67,0,143
0,62,0,8
0,38,63,29
0,59,46,22
0,50,59,7
0,60,66,5
0,38,0,34
0,59,0,3
0,60,57,79
0,66,56,1
0,69,47,1
0,50,0,195
0,60,0,4
0,60,0,1
0,66,0,5
0,69,0,8
0,38,68,52
0,60,51,1
0,66,47,1
0,69,46,2
0,38,0,45
0,40,62,52
0,60,0,31
0,66,0,8
0,69,0,3
0,40,0,3
0,42,68,48
0,42,0,89
0,38,52,13
0,38,0,45
0,67,51,55
0,62,54,1
0,43,55,1
0,59,56,2
0,55,33,4
0,67,0,67
0,62,0,0
0,43,0,0
0,55,24,61
0,59,0,31
0,55,24,164
0,62,31,5
0,59,24,4
0,55,0,23
0,55,18,87
0,55,0,11
0,55,0,6
0,62,0,24
0,59,0,2
0,43,61,43
0,55,0,33
0,43,0,46
0,36,60,6
0,48,64,2
0,55,67,0
0,64,76,2
0,60,63,2
0,36,0,21
0,48,0,9
0,55,0,2
0,67,77,1
0,64,0,27
0,64,64,5
0,60,0,4
0,67,0,2
0,64,0,29
0,31,71,7
0,62,72,0
0,59,67,1
0,43,68,0
0,31,0,133
0,43,51,57
0,62,0,4
0,59,0,31
0,33,64,63
0,45,64,1
0,43,0,21
0,43,0,16
0,47,55,99
0,35,62,1
0,33,0,11
0,45,0,0
0,47,0,73
0,35,0,11
0,55,59,3
0,36,62,2
0,67,53,0
0,60,59,1
0,64,64,1
0,48,59,1
0,55,0,65
0,36,0,54
0,67,0,23
0,60,0,7
0,48,57,24
0,64,0,9
0,48,0,9
0,35,67,88
0,55,60,0
0,47,59,1
0,59,63,2
0,62,54,1
0,48,0,44
0,35,0,0
0,55,0,1
0,47,0,8
0,59,0,2
0,33,59,8
0,64,54,3
0,55,43,1
0,45,53,1
0,60,52,1
0,62,0,58
0,33,0,85
0,64,0,3
0,55,0,10
0,45,41,20
0,45,0,13
0,60,0,3
0,62,51,94
0,31,48,1
0,43,52,1
0,59,56,1
0,55,48,0
0,45,0,81
0,62,0,85
0,31,0,49
0,43,0,8
0,59,0,5
0,55,0,16
0,45,56,67
0,45,0,13
0,54,60,20
0,38,56,5
0,64,37,1
0,57,55,4
0,54,0,20
0,38,0,0
0,64,0,3
0,54,53,80
0,62,50,4
0,57,51,2
0,57,0,75
0,54,0,86
0,62,0,1
0,57,0,252
0,74,77,28
0,67,74,1
0,62,67,1
0,40,70,1
0,71,54,3
0,74,0,2
0,67,0,1
0,62,0,3
0,40,0,2
0,71,0,4
0,74,65,83
0,66,62,2
0,62,48,2
0,69,64,1
0,38,56,1
0,45,59,2
0,74,0,242
0,66,0,1
0,62,0,8
0,69,0,1
0,38,0,59
0,45,0,4
0,26,62,254
0,38,50,3
0,57,38,87
0,66,54,88
0,62,55,1
0,26,0,10
0,57,21,81
0,38,0,31
0,57,0,6
0,26,52,59
0,38,42,5
0,66,0,1
0,62,0,7
0,57,55,92
0,57,0,14
0,26,0,2
0,38,0,37
0,57,0,13
0,62,61,31
0,64,60,1
0,62,0,88
0,64,0,0
0,57,66,7
0,45,53,3
0,57,0,6
0,38,55,86
0,54,63,1
0,62,63,2
0,60,60,4
0,45,0,1
0,38,0,11
0,54,0,18
0,45,47,94
0,60,43,7
0,62,0,9
0,60,0,0
0,45,0,12
0,45,49,75
0,60,0,35
0,45,0,27
0,40,74,24
0,72,64,0
0,69,71,3
0,62,57,0
0,40,0,21
0,72,0,2
0,69,0,8
0,62,0,56
0,69,71,20
0,72,54,0
0,42,63,3
0,62,47,0
0,69,0,6
0,72,0,1
0,42,0,7
0,62,0,7
0,38,57,106
0,38,0,56
0,31,59,8
0,59,59,1
0,67,48,1
0,62,55,1
0,55,42,2
0,43,49,2
0,31,0,33
0,59,0,4
0,67,0,7
0,55,32,69
0,62,49,1
0,59,52,2
0,62,0,26
0,55,0,61
0,43,0,1
0,55,50,5
0,55,0,6
0,62,0,15
0,43,52,68
0,55,58,1
0,59,60,3
0,62,52,0
0,59,0,19
0,55,0,73
0,43,0,3
0,55,47,8
0,55,0,10
0,59,0,14
0,62,0,45
0,43,51,22
0,55,0,38
0,67,72,48
0,55,74,1
0,60,69,2
0,43,54,1
0,64,61,2
0,43,0,3
0,67,0,1
0,55,0,3
0,60,0,1
0,43,0,8
0,64,0,2
0,59,65,41
0,55,64,1
0,62,63,0
0,67,64,2
0,31,67,0
0,43,57,3
0,59,0,50
0,55,0,7
0,62,0,1
0,67,0,2
0,62,43,87
0,59,36,9
0,31,0,89
0,43,0,4
0,43,32,5
0,62,0,17
0,59,0,5
0,55,67,64
0,62,59,2
0,31,77,1
0,43,74,0
0,59,63,2
0,43,0,57
0,55,0,1
0,62,0,24
0,31,0,8
0,43,0,3
0,33,65,68
0,45,55,6
0,62,47,2
0,55,40,2
0,59,34,2
0,59,0,13
0,33,0,2
0,45,0,55
0,62,0,1
0,55,0,13
0,35,55,7
0,47,21,12
0,59,0,6
0,35,0,9
0,48,68,7
0,36,51,1
0,64,56,1
0,55,49,0
0,60,54,2
0,47,0,143
0,48,55,45
0,48,0,10
0,36,0,12
0,64,0,5
0,55,0,1
0,60,0,4
0,48,0,60
0,59,62,7
0,67,55,1
0,35,58,1
0,62,53,0
0,47,42,4
0,55,24,1
0,59,0,27
0,67,0,22
0,35,0,4
0,62,0,0
0,47,51,54
0,55,53,6
0,62,57,0
0,59,57,3
0,47,0,13
0,55,0,43
0,47,0,8
0,55,0,1
0,62,0,26
0,47,51,3
0,59,0,20
0,47,0,0
0,33,64,2
0,67,58,1
0,55,56,0
0,60,58,2
0,64,61,0
0,45,58,2
0,33,0,19
0,45,51,89
0,67,0,12
0,55,0,43
0,60,0,1
0,64,0,23
0,45,50,16
0,45,0,11
0,45,0,6
0,55,53,1
0,31,60,0
0,43,53,1
0,62,57,1
0,59,58,1
0,45,0,36
0,43,53,88
0,55,0,8
0,31,0,9
0,43,0,4
0,62,0,10
0,59,0,2
0,43,0,16
0,45,58,42
0,57,54,5
0,62,56,0
0,38,49,1
0,66,59,1
0,45,0,4
0,45,56,43
0,57,0,93
0,50,52,9
0,45,60,92
0,62,0,1
0,38,0,16
0,66,0,67
0,38,55,15
0,45,0,80
0,43,61,7
0,50,0,89
0,47,50,8
0,45,0,92
0,38,0,0
0,43,0,1
0,47,0,3
0,43,26,1
0,45,24,85
0,43,0,2
0,45,0,9
0,57,51,14
0,66,43,1
0,62,49,2
0,38,49,1
0,57,0,8
0,26,32,112
0,66,0,224
0,38,50,352
0,45,50,0
0,50,44,3
0,62,0,15
0,38,0,21
0,26,0,3
0,57,48,8
0,66,45,102
0,62,49,4
0,38,0,16
0,57,39,75
0,45,0,20
0,50,0,69
0,57,0,1
0,66,0,9
0,50,65,0
0,57,54,98
0,62,0,54
0,62,64,44
0,66,63,1
0,57,0,95
0,50,0,1
0,57,58,8
0,57,0,1
0,54,66,92
0,42,62,1
0,62,0,7
0,66,0,17
0,57,0,14
0,60,59,40
0,54,0,60
0,66,61,35
0,69,58,3
0,62,54,1
0,42,0,1
0,60,0,38
0,60,38,68
0,38,78,85
0,66,0,3
0,69,0,14
0,62,0,2
0,60,0,11
0,66,66,147
0,38,0,1
0,69,64,2
0,62,60,0
0,60,52,2
0,66,0,30
0,69,0,60
0,60,45,6
0,62,0,15
0,60,0,2
0,31,68,70
0,60,0,1
0,43,68,1
0,59,63,3
0,67,64,0
0,62,63,1
0,31,0,25
0,43,0,3
0,59,0,1
0,67,0,19
0,67,53,67
0,43,47,3
0,59,33,0
0,62,48,2
0,62,0,46
0,67,0,18
0,43,0,15
0,59,0,29
0,43,48,78
0,62,0,84
0,59,40,25
0,43,0,73
0,43,65,18
0,62,82,80
0,59,78,2
0,67,69,1
0,59,0,8
0,43,0,0
0,62,0,2
0,59,0,4
0,67,0,7
0,59,68,73
0,62,67,1
0,31,68,1
0,67,61,2
0,55,54,1
0,43,54,1
0,59,0,30
0,62,0,17
0,31,0,4
0,67,0,6
0,43,51,71
0,55,59,4
0,62,44,1
0,59,54,2
0,55,0,33
0,43,0,57
0,43,61,2
0,43,0,3
0,55,0,6
0,62,0,0
0,59,0,14
0,35,71,66
0,47,67,2
0,55,71,2
0,59,67,0
0,62,63,6
0,43,0,35
0,35,0,1
0,47,0,3
0,55,0,6
0,62,54,67
0,55,66,2
0,47,64,0
0,59,63,1
0,59,0,21
0,62,0,54
0,62,0,5
0,55,0,3
0,47,52,10
0,47,0,20
0,59,0,28
0,47,0,0
0,43,51,16
0,43,0,13
0,36,64,22
0,55,60,0
0,64,63,1
0,48,61,1
0,67,51,2
0,60,61,0
0,36,0,15
0,55,0,1
0,64,0,1
0,48,0,8
0,55,63,69
0,64,69,0
0,48,58,3
0,60,62,0
0,67,0,21
0,60,0,69
0,55,0,2
0,64,0,5
0,48,62,11
0,48,0,15
0,60,0,4
0,35,71,74
0,47,67,1
0,62,65,0
0,55,64,1
0,59,67,1
0,48,0,9
0,47,48,75
0,35,0,12
0,47,0,1
0,62,0,73
0,55,0,0
0,59,0,15
0,47,0,1
0,64,85,80
0,45,84,1
0,33,77,1
0,67,74,1
0,55,82,0
0,60,79,2
0,64,0,33
0,45,0,44
0,33,0,1
0,67,0,6
0,45,85,39
0,64,74,2
0,55,81,1
0,60,77,1
0,55,0,18
0,60,0,54
0,45,0,2
0,64,0,1
0,55,0,19
0,45,87,1
0,60,0,18
0,45,0,4
0,59,84,71
0,62,81,1
0,55,84,1
0,43,82,0
0,31,81,1
0,67,81,1
0,59,0,35
0,62,0,23
0,55,0,0
0,43,0,2
0,55,80,71
0,43,78,1
0,59,77,1
0,62,60,2
0,31,0,5
0,67,0,2
0,55,0,3
0,43,0,1
0,59,0,4
0,62,0,4
0,33,58,108
0,33,0,36
0,26,64,6
0,38,69,1
0,57,83,2
0,62,79,0
0,66,81,2
0,26,0,6
0,38,0,53
0,57,0,3
0,57,58,47
0,62,0,11
0,66,0,14
0,57,0,17
0,66,31,72
0,66,0,12
0,67,69,82
0,59,69,2
0,43,68,1
0,62,58,2
0,67,0,4
0,59,0,1
0,43,0,3
0,62,0,1
0,67,71,81
0,62,68,0
0,59,65,1
0,43,64,3
0,67,0,66
0,62,0,99
0,59,0,7
0,43,0,0
0,43,60,26
0,43,0,35
0,45,54,65
0,57,66,0
0,38,49,3
0,62,60,0
0,45,0,51
0,57,0,1
0,38,0,1
0,62,0,2
0,70,75,191
0,65,64,0
0,74,70,1
0,70,0,48
0,65,0,9
0,74,0,4
0,69,77,21
0,72,76,1
0,77,69,0
0,69,0,15
0,72,0,2
0,77,0,5
0,70,81,45
0,75,84,1
0,67,72,0
0,52,79,70
0,70,0,7
0,75,0,1
0,67,0,1
0,52,0,2
0,53,90,0
0,58,84,3
0,53,84,2
0,62,74,0
0,53,0,27
0,58,0,8
0,53,0,2
0,62,0,55
0,65,80,70
0,60,75,1
0,57,69,1
0,65,0,6
0,60,0,3
0,57,0,7
0,58,81,47
0,55,74,1
0,63,81,0
0,40,75,4
0,58,0,16
0,55,0,3
0,41,82,0
0,63,0,3
0,40,0,37
0,29,75,61
0,41,81,0
0,57,94,3
0,65,84,1
0,60,80,1
0,63,81,0
0,41,0,22
0,29,0,2
0,41,0,8
0,57,0,12
0,65,0,0
0,60,0,6
0,41,62,37
0,63,0,26
0,41,0,6
0,29,65,51
0,65,90,2
0,41,62,0
0,29,0,6
0,41,60,30
0,77,82,1
0,65,0,18
0,41,0,4
0,41,0,2
0,77,0,3
0,29,75,61
0,41,71,2
0,67,79,2
0,75,90,2
0,29,0,34
0,41,0,9
0,67,0,48
0,74,92,1
0,41,67,80
0,75,0,14
0,74,0,8
0,72,85,19
0,41,0,33
0,41,63,2
0,70,81,6
0,72,0,17
0,36,72,25
0,41,0,4
0,70,0,22
0,36,0,4
0,29,70,5
0,65,82,0
0,72,82,0
0,69,82,2
0,41,74,0
0,29,0,51
0,65,0,37
0,65,36,7
0,72,0,73
0,41,72,7
0,69,0,2
0,41,0,8
0,72,80,30
0,69,76,0
0,65,0,9
0,41,0,9
0,72,0,2
0,74,79,17
0,65,61,1
0,41,36,5
0,69,0,15
0,74,0,2
0,65,0,31
0,41,0,6
0,31,76,25
0,43,83,1
0,72,91,1
0,65,84,1
0,31,0,35
0,43,0,13
0,65,68,15
0,72,0,47
0,65,0,36
0,33,82,5
0,45,82,0
0,65,0,18
0,33,0,2
0,45,0,6
0,70,81,13
0,70,0,38
0,72,74,6
0,70,76,45
0,72,0,5
0,70,0,6
0,34,71,16
0,46,69,1
0,41,67,2
0,70,87,1
0,65,94,1
0,74,92,1
0,34,0,12
0,46,0,13
0,41,0,9
0,70,0,41
0,46,81,10
0,77,69,5
0,65,0,28
0,82,83,27
0,74,0,30
0,80,44,7
0,81,74,7
0,46,0,2
0,77,0,11
0,82,0,6
0,80,0,4
0,81,0,1
0,39,74,21
0,51,70,1
0,82,95,1
0,39,0,22
0,51,0,64
0,46,72,68
0,72,88,2
0,82,0,32
0,46,60,64
0,72,75,0
0,46,0,21
0,72,0,15
0,70,78,6
0,46,0,2
0,41,38,4
0,72,0,3
0,70,0,9
0,41,0,10
0,46,77,15
0,34,76,1
0,72,86,3
0,41,54,2
0,46,0,23
0,74,73,9
0,34,0,34
0,70,82,9
0,65,78,2
0,72,0,14
0,41,0,74
0,46,63,6
0,74,0,8
0,65,63,17
0,46,59,22
0,70,0,1
0,65,0,3
0,46,0,6
0,65,0,25
0,46,0,1
0,39,66,56
0,51,78,0
0,70,79,5
0,63,61,4
0,39,0,11
0,51,0,57
0,68,77,18
0,70,0,2
0,63,0,68
0,67,55,19
0,50,81,0
0,68,0,14
0,67,0,1
0,50,0,8
0,63,77,62
0,63,0,32
0,39,79,23
0,51,87,1
0,70,85,2
0,46,84,0
0,67,62,5
0,39,0,8
0,51,0,0
0,70,0,1
0,46,0,3
0,67,0,3
0,78,34,33
0,78,0,13
0,75,91,30
0,79,100,1
0,75,0,12
0,72,67,70
0,75,67,40
0,79,0,28
0,72,0,9
0,75,0,30
0,77,95,24
0,72,83,1
0,69,86,1
0,77,0,22
0,72,0,45
0,69,0,36
0,38,77,51
0,50,87,2
0,38,0,15
0,50,0,9
0,69,75,25
0,75,68,38
0,69,0,3
0,75,0,28
0,77,69,13
0,43,67,2
0,77,0,24
0,43,0,7
0,77,81,15
0,72,83,1
0,36,69,1
0,67,78,1
0,48,80,0
0,77,0,21
0,72,0,5
0,36,0,28
0,72,15,9
0,75,77,2
0,67,0,3
0,48,0,3
0,72,0,5
0,75,0,8
0,75,96,76
0,67,78,2
0,75,0,34
0,67,0,1
0,74,77,8
0,72,80,46
0,74,0,6
0,72,0,8
0,46,81,72
0,34,77,0
0,65,84,1
0,70,100,2
0,46,0,56
0,34,0,3
0,46,90,60
0,34,84,1
0,65,0,19
0,70,0,8
0,72,70,17
0,46,0,25
0,34,0,2
0,72,0,7
0,74,82,14
0,74,0,48
0,41,78,16
0,29,74,1
0,72,100,1
0,69,87,0
0,65,92,2
0,41,0,5
0,29,0,6
0,41,46,28
0,72,0,9
0,41,61,54
0,29,71,0
0,69,0,16
