track,note,velocity,time
1,33,95,168
1,28,94,39
1,33,96,28
1,28,94,44
1,33,95,40
1,28,94,29
1,33,95,1
1,33,78,29
1,28,94,17
1,30,97,1
1,32,93,4
1,33,100,16
1,28,100,53
1,33,96,29
1,28,99,34
1,33,94,24
1,28,98,27
1,33,98,15
1,28,100,1
1,33,103,39
1,28,99,21
1,33,103,20
1,28,99,21
1,28,100,20
1,35,98,1
1,28,99,14
1,35,98,1
1,28,99,58
1,35,98,9
1,28,98,18
1,35,98,8
1,28,98,11
1,35,92,11
1,28,99,11
1,35,98,1
1,28,99,1
1,35,95,4
1,28,99,6
1,35,96,3
1,33,99,24
1,28,100,1
1,33,96,2
1,28,102,11
1,30,100,1
1,32,103,28
1,33,100,17
1,28,100,53
1,33,96,29
1,28,99,34
1,33,94,24
1,28,98,27
1,33,98,15
1,28,100,1
1,33,103,39
1,28,99,21
1,33,103,20
1,28,99,21
1,26,100,20
1,33,102,6
1,26,99,22
1,33,102,3
1,26,100,10
1,33,100,14
1,26,99,16
1,33,101,14
1,33,104,7
1,28,102,1
1,33,103,22
1,28,100,1
1,28,100,43
1,35,102,1
1,28,100,17
1,35,103,3
1,33,106,6
1,26,102,668
1,33,101,23
1,26,101,22
1,33,98,21
1,33,103,29
1,28,103,13
1,33,100,7
1,33,96,1
1,32,101,1
1,30,95,1
1,28,104,1
1,35,99,15
1,28,104,6
1,35,103,21
1,33,103,28
1,28,102,12
1,33,101,14
1,33,99,10
1,35,101,10
1,37,96,10
1,38,101,10
1,33,101,14
1,26,102,5
1,33,100,10
1,33,101,23
1,28,103,28
1,33,102,21
1,32,100,16
1,30,98,1
1,28,102,1
1,35,103,6
1,28,97,29
1,35,104,1
1,28,100,18
1,35,102,1
1,28,98,29
1,35,103,1
1,28,99,7
1,35,98,2
1,28,99,8
1,35,99,1
1,33,104,28
1,28,96,8
1,33,101,14
1,36,100,324
1,31,100,53
1,36,96,29
1,31,99,34
1,36,100,24
1,31,100,53
1,36,96,29
1,31,99,34
1,36,94,24
1,31,98,27
1,36,98,15
1,31,100,1
1,36,103,39
1,31,99,21
1,36,103,20
1,31,99,21
1,31,100,20
1,38,98,1
1,31,99,14
1,38,98,1
1,31,99,58
1,38,98,9
1,31,98,18
1,38,98,8
1,31,98,11
1,38,92,11
1,31,99,11
1,38,98,1
1,31,99,1
1,38,95,4
1,31,99,6
1,38,96,3
1,36,99,24
1,31,100,1
1,36,96,2
1,31,102,11
1,33,100,1
1,35,103,28
1,36,100,17
1,31,100,53
1,36,96,29
1,31,99,34
1,36,94,24
1,31,98,27
1,36,98,15
1,31,100,1
1,31,98,15
1,38,100,1
1,36,103,15
1,31,99,21
1,29,100,20
1,36,102,6
1,29,99,22
1,36,102,3
1,29,100,10
1,36,100,14
1,29,99,16
1,36,101,14
1,36,104,7
1,31,102,1
1,36,103,22
1,31,100,1
1,31,100,43
1,38,102,1
1,31,100,17
1,38,103,3
1,36,106,6
1,29,102,668
1,36,101,23
1,29,101,22
1,36,98,21
1,36,103,29
1,31,103,13
1,36,100,7
1,36,96,1
1,35,101,1
1,33,95,1
1,31,104,1
1,38,99,15
1,31,104,6
1,38,103,21
1,36,103,28
1,31,102,12
1,36,101,14
1,36,99,10
1,38,101,10
1,40,96,10
1,41,101,10
1,36,101,14
1,29,102,5
1,36,100,10
1,36,101,23
1,31,103,28
1,36,102,21
1,35,100,16
1,33,98,1
1,31,102,1
1,38,103,6
1,31,97,29
1,38,104,1
1,31,100,18
1,38,102,1
1,31,98,29
1,38,103,1
1,31,99,7
1,38,98,2
1,31,99,8
1,38,99,1
1,36,104,28
1,31,96,8
1,36,104,14
1,31,96,8
1,36,104,14
1,31,96,8
1,36,100,14
1,31,100,53
1,36,96,29
1,31,99,34
1,36,94,24
1,31,98,27
1,36,98,15
1,31,100,1
1,36,103,39
1,31,99,21
1,36,103,20
1,31,99,21
1,31,100,20
1,38,98,1
1,31,99,14
1,38,98,1
1,31,99,58
1,38,98,9
1,31,98,18
1,38,98,8
1,31,98,11
1,38,92,11
1,31,99,11
1,38,98,1
1,31,99,1
1,38,95,4
1,31,99,6
1,38,96,3
1,36,99,24
1,31,100,1
1,36,100,2
1,31,100,53
1,36,96,29
1,31,99,34
1,36,94,24
1,31,98,27
1,36,98,15
1,31,100,1
1,36,103,39
1,31,99,21
1,36,103,3
1,31,99,11
1,31,100,20
1,38,98,1
1,31,99,14
1,38,98,1
1,31,99,19
1,38,98,9
1,31,98,18
1,38,98,8
1,31,98,10
1,38,92,11
1,31,99,4
2,45,100,208
2,57,79,96
2,61,79,1
2,40,77,0
2,52,85,49
2,57,83,40
2,61,77,1
2,52,85,40
2,45,96,4
2,57,86,87
2,61,78,2
2,40,89,1
2,52,91,56
2,57,87,40
2,61,79,0
2,52,77,54
2,45,92,2
2,57,83,93
2,61,74,0
2,40,90,0
2,52,79,56
2,57,81,40
2,61,70,0
2,52,83,55
2,45,95,0
2,57,79,89
2,61,79,0
2,40,77,0
2,52,85,49
2,57,83,40
2,61,77,1
2,52,85,40
2,45,81,4
2,52,89,47
2,57,83,3
2,61,75,0
2,52,77,56
2,40,77,4
2,52,73,48
2,57,91,6
2,61,81,0
2,52,77,52
2,45,89,4
2,52,69,52
2,57,94,6
2,61,81,0
2,52,77,54
2,40,83,2
2,52,68,56
2,57,91,15
2,61,85,0
2,52,87,44
2,45,80,5
2,52,84,56
2,57,91,2
2,61,82,0
2,52,76,56
2,40,80,2
2,52,70,56
2,57,93,0
2,61,84,0
2,52,70,48
2,45,87,6
2,52,68,56
2,57,91,4
2,61,84,1
2,52,78,54
2,40,91,0
2,52,72,56
2,57,97,40
2,61,84,1
2,52,84,48
2,45,87,17
2,52,68,40
2,57,91,4
2,61,84,1
2,52,78,54
2,40,91,0
2,52,72,12
2,57,97,40
2,61,84,1
2,52,84,48
2,45,87,17
2,52,68,16
2,57,91,4
2,61,84,1
2,52,78,54
2,45,91,0
2,52,72,12
2,57,97,40
2,61,84,1
2,52,84,48
2,52,89,17
2,59,89,96
2,62,93,1
2,57,89,1
2,59,83,44
2,62,83,25
2,40,89,50
2,59,89,85
2,62,93,1
2,57,89,1
2,59,83,44
2,62,83,25
2,52,92,50
2,59,86,85
2,62,86,2
2,59,84,5
2,52,89,40
2,59,81,84
2,62,84,2
2,52,91,1
2,59,79,93
2,62,84,2
2,59,84,18
2,52,94,1
2,59,73,56
2,62,86,39
2,59,77,40
2,40,91,8
2,59,81,56
2,62,87,40
2,59,83,51
2,57,94,12
2,59,81,47
2,62,91,0
2,59,83,56
2,47,103,26
2,59,79,48
2,62,79,5
2,59,79,56
2,57,83,6
2,59,81,48
2,62,87,12
2,59,84,52
2,52,91,10
2,59,81,56
2,62,87,40
2,59,83,51
2,57,94,12
2,59,81,47
2,62,91,0
2,59,83,56
2,40,103,26
2,59,79,48
2,62,79,5
2,59,79,56
2,57,83,6
2,59,81,48
2,62,87,12
2,59,84,52
2,45,94,10
2,52,87,56
2,57,94,40
2,61,81,2
2,52,81,27
2,40,87,40
2,52,75,40
2,59,91,34
2,61,91,56
2,45,91,24
2,52,75,33
2,57,96,40
2,61,73,2
2,52,81,46
2,40,91,4
2,52,75,56
2,59,96,40
2,62,73,2
2,52,81,46
2,45,81,4
2,52,89,56
2,57,83,3
2,61,75,0
2,52,77,56
2,40,77,4
2,52,73,48
2,57,91,6
2,61,81,0
2,52,77,52
2,45,89,4
2,52,69,52
2,57,94,6
2,61,81,0
2,52,77,54
2,40,83,2
2,52,68,56
2,57,91,15
2,61,85,0
2,52,87,44
2,45,80,5
2,52,84,56
2,57,91,2
2,61,82,0
2,52,76,56
2,40,80,2
2,52,70,56
2,57,93,0
2,61,84,0
2,52,70,48
2,45,87,6
2,52,68,56
2,57,91,4
2,61,84,1
2,52,78,54
2,40,91,0
2,52,72,56
2,57,97,40
2,61,84,1
2,52,84,48
2,45,87,17
2,52,68,40
2,57,91,4
2,61,84,1
2,52,78,54
2,40,91,0
2,52,72,12
2,57,97,40
2,61,84,1
2,52,84,48
2,45,87,17
2,52,68,16
2,57,91,4
2,61,84,1
2,52,78,54
2,45,91,0
2,52,72,12
2,57,97,40
2,61,84,1
2,52,84,48
2,50,89,17
2,54,89,96
2,62,93,1
2,55,89,1
2,57,83,44
2,60,83,25
2,45,89,50
2,54,89,85
2,62,93,1
2,55,89,1
2,57,83,44
2,60,83,25
2,50,92,50
2,54,86,85
2,62,86,2
2,57,84,5
2,50,89,40
2,57,81,84
2,60,84,2
2,50,91,1
2,54,79,93
2,62,84,2
2,57,84,18
2,50,94,1
2,57,73,56
2,60,86,39
2,57,77,40
2,45,91,8
2,57,81,56
2,64,87,40
2,61,83,51
2,57,94,12
2,61,81,47
2,64,91,0
2,61,83,56
2,45,103,26
2,57,79,48
2,64,79,5
2,61,79,56
2,57,83,6
2,61,81,48
2,64,87,12
2,61,84,52
2,52,91,10
2,59,81,56
2,62,87,40
2,59,83,51
2,57,94,12
2,59,81,47
2,62,91,0
2,59,83,56
2,40,103,26
2,59,79,48
2,62,79,5
2,59,79,56
2,57,83,6
2,59,81,48
2,62,87,12
2,59,84,52
2,45,94,10
2,57,94,0
2,61,81,2
2,50,92,514
2,54,86,96
2,62,86,2
2,57,84,5
2,50,89,40
2,57,81,84
2,62,84,2
2,50,91,1
2,54,79,93
2,62,84,2
2,57,84,18
2,50,94,1
2,57,73,56
2,62,86,39
2,57,77,40
2,45,91,8
2,57,81,56
2,64,87,40
2,61,83,51
2,57,94,12
2,61,81,47
2,64,91,0
2,61,83,56
2,45,103,26
2,57,79,48
2,64,79,5
2,61,79,56
2,57,83,6
2,61,81,48
2,64,87,12
2,61,84,52
2,52,91,10
2,59,81,56
2,62,87,40
2,59,83,51
2,57,94,12
2,59,81,47
2,62,91,0
2,59,83,56
2,40,103,26
2,59,79,48
2,62,79,5
2,59,79,56
2,57,83,6
2,59,81,48
2,62,87,12
2,59,84,52
2,45,91,10
2,57,81,56
2,64,87,40
2,61,83,51
2,57,94,12
2,61,81,47
2,64,91,0
2,61,83,56
2,45,103,26
2,57,79,48
2,64,79,5
2,61,79,56
2,57,83,6
2,61,81,48
2,64,87,12
2,61,84,52
2,50,92,10
2,54,86,96
2,62,86,2
2,57,84,5
2,50,89,40
2,57,81,84
2,62,84,2
2,50,91,1
2,54,79,93
2,62,84,2
2,57,84,18
2,50,94,1
2,57,73,56
2,62,86,39
2,57,77,40
2,45,91,8
2,57,81,56
2,64,87,40
2,61,83,51
2,57,94,12
2,61,81,47
2,64,91,0
2,61,83,56
2,45,103,26
2,57,79,48
2,64,79,5
2,61,79,56
2,57,83,6
2,61,81,48
2,64,87,12
2,61,84,52
2,52,91,10
2,59,81,56
2,62,87,40
2,59,83,51
2,57,94,12
2,59,81,47
2,62,91,0
2,59,83,56
2,40,103,26
2,59,79,48
2,62,79,5
2,59,79,56
2,57,83,6
2,59,81,48
2,62,87,12
2,59,84,52
2,52,91,10
2,59,81,56
2,62,87,40
2,59,83,51
2,57,94,12
2,59,81,47
2,62,91,0
2,59,83,56
2,40,103,26
2,59,79,48
2,62,79,5
2,59,79,56
2,57,83,6
2,59,81,48
2,62,87,12
2,59,84,52
2,52,91,10
2,59,81,56
2,62,87,40
2,59,83,51
2,57,94,12
2,59,81,47
2,62,91,0
2,59,83,56
2,40,103,26
2,59,79,48
2,62,79,5
2,59,79,56
2,57,83,6
2,59,81,48
2,62,87,12
2,59,84,52
2,45,91,10
2,57,81,56
2,60,87,40
2,63,87,1
2,61,83,51
2,64,83,2
2,61,94,10
2,64,94,2
2,61,81,28
2,64,81,0
2,59,91,26
2,62,91,0
2,45,103,25
2,57,79,0
2,61,79,2
2,64,79,2
2,48,81,226
2,55,89,56
2,60,83,3
2,64,75,0
2,55,77,56
2,43,77,4
2,55,73,48
2,60,91,6
2,64,81,0
2,55,77,52
2,48,89,4
2,55,69,52
2,60,94,6
2,64,81,0
2,55,77,54
2,43,83,2
2,55,68,56
2,60,91,15
2,64,85,0
2,55,87,44
2,48,81,5
2,55,89,56
2,60,83,3
2,64,75,0
2,55,77,56
2,43,77,4
2,55,73,48
2,60,91,6
2,64,81,0
2,55,77,52
2,48,89,4
2,55,69,52
2,60,94,6
2,64,81,0
2,55,77,54
2,43,83,2
2,55,68,56
2,60,91,15
2,64,85,0
2,55,87,44
2,48,80,5
2,55,84,56
2,60,91,2
2,64,82,0
2,55,76,56
2,43,80,2
2,55,70,56
2,60,93,0
2,64,84,0
2,55,70,48
2,48,87,6
2,55,68,56
2,60,91,4
2,64,84,1
2,55,78,54
2,43,91,0
2,55,72,56
2,60,97,40
2,64,84,1
2,55,84,48
2,48,87,17
2,55,68,40
2,60,91,4
2,64,84,1
2,55,78,54
2,43,91,0
2,55,72,12
2,60,97,40
2,64,84,1
2,55,84,48
2,48,87,17
2,55,68,16
2,60,91,4
2,64,84,1
2,55,78,54
2,48,91,0
2,55,72,12
2,60,97,40
2,64,84,1
2,55,84,48
2,55,89,17
2,62,89,96
2,65,93,1
2,60,89,1
2,62,83,44
2,65,83,25
2,43,89,50
2,62,89,85
2,65,93,1
2,60,89,1
2,62,83,44
2,65,83,25
2,55,92,50
2,62,86,85
2,65,86,2
2,62,84,5
2,55,89,40
2,62,81,84
2,65,84,2
2,55,91,1
2,62,79,93
2,65,84,2
2,62,84,18
2,55,94,1
2,62,73,56
2,65,86,39
2,62,77,40
2,43,91,8
2,62,81,56
2,65,87,40
2,62,83,51
2,60,94,12
2,62,81,47
2,65,91,0
2,62,83,56
2,50,103,26
2,62,79,48
2,65,79,5
2,62,79,56
2,60,83,6
2,62,81,48
2,65,87,12
2,62,84,52
2,55,91,10
2,62,81,56
2,65,87,40
2,62,83,51
2,60,94,12
2,62,81,47
2,65,91,0
2,62,83,56
2,43,103,26
2,62,79,48
2,65,79,5
2,62,79,56
2,60,83,6
2,62,81,48
2,65,87,12
2,62,84,52
2,48,94,10
2,55,87,56
2,60,94,40
2,64,81,2
2,55,81,27
2,43,87,40
2,55,75,40
2,62,91,34
2,64,91,56
2,48,91,24
2,55,75,33
2,60,96,40
2,64,73,2
2,55,81,46
2,43,91,4
2,55,75,56
2,62,96,40
2,65,73,2
2,55,81,46
2,48,81,4
2,55,89,56
2,60,83,3
2,64,75,0
2,55,77,56
2,43,77,4
2,55,73,48
2,60,91,6
2,64,81,0
2,55,77,52
2,48,89,4
2,55,69,52
2,60,94,6
2,64,81,0
2,55,77,54
2,43,83,2
2,55,68,56
2,60,91,15
2,64,85,0
2,55,87,44
2,48,80,5
2,55,84,56
2,60,91,2
2,64,82,0
2,55,76,56
2,43,80,2
2,55,70,56
2,60,93,0
2,64,84,0
2,55,70,48
2,48,80,6
2,55,84,56
2,60,91,2
2,64,82,0
2,55,76,56
2,43,80,2
2,55,70,56
2,60,93,0
2,64,84,0
2,55,70,48
2,46,87,6
2,55,68,56
2,58,91,4
2,62,84,1
2,55,78,54
2,43,91,0
2,55,72,12
2,58,97,40
2,62,84,1
2,55,84,48
2,48,87,17
2,55,68,16
2,60,91,4
2,64,84,1
2,55,78,54
2,48,91,0
2,55,72,12
2,60,97,40
2,64,84,1
2,55,84,48
2,53,89,17
2,57,89,96
2,65,93,1
2,55,89,1
2,57,83,44
2,60,83,25
2,48,89,50
2,57,89,85
2,65,93,1
2,55,89,1
2,57,83,44
2,60,83,25
2,53,92,50
2,57,86,85
2,65,86,2
2,60,84,5
2,53,89,40
2,60,81,84
2,65,84,2
2,53,91,1
2,57,79,93
2,65,84,2
2,60,84,18
2,55,94,1
2,57,73,56
2,60,86,39
2,57,77,40
2,48,91,8
2,60,81,56
2,67,87,40
2,64,83,51
2,60,94,12
2,64,81,47
2,67,91,0
2,64,83,56
2,48,103,26
2,60,79,48
2,67,79,5
2,64,79,56
2,60,83,6
2,64,81,48
2,67,87,12
2,64,84,52
2,55,91,10
2,62,81,56
2,65,87,40
2,62,83,51
