track,note,velocity,time
0,84,62,9910
0,84,0,28
0,87,83,15
0,91,97,1
0,87,0,11
0,88,51,6
0,91,0,26
0,88,0,14
0,93,83,27
0,89,65,2
0,93,0,13
0,89,0,5
0,87,78,24
0,91,74,4
0,87,0,4
0,88,54,3
0,91,0,18
0,88,0,6
0,84,66,10
0,84,0,14
0,81,49,69
0,81,0,22
0,79,26,25
0,79,0,8
0,62,80,3938
0,71,79,2
0,62,0,15
0,71,0,7
0,61,76,48
0,70,70,3
0,61,0,14
0,70,0,0
0,60,59,66
0,69,60,1
0,60,0,115
0,69,0,0
0,84,87,5286
0,93,88,2
0,84,0,36
0,93,0,10
0,85,70,0
0,85,0,22
0,84,82,13
0,93,80,0
0,84,0,31
0,85,68,17
0,93,0,19
0,85,0,19
0,84,83,2
0,84,0,12
0,81,91,31
0,81,0,54
0,79,87,29
0,79,0,36
0,76,80,42
0,76,0,23
0,72,82,61
0,72,0,30
0,73,68,11
0,73,0,20
0,69,79,27
0,69,0,97
0,80,86,2100
0,83,87,1
0,74,82,0
0,76,67,4
0,80,0,7
0,83,0,5
0,74,0,5
0,76,0,2
0,83,81,111
0,80,57,6
0,83,0,9
0,80,0,3
0,80,88,54
0,80,0,27
0,76,67,9
0,76,0,33
0,74,44,15
0,74,0,162
0,64,74,2247
0,64,0,30
0,66,75,13
0,66,0,33
0,64,69,6
0,64,0,25
0,66,84,19
0,66,0,22
0,64,80,21
0,64,0,30
0,61,70,14
0,61,0,32
0,57,59,11
0,57,0,8
0,55,79,31
0,55,0,27
0,54,76,13
0,54,0,32
0,50,38,13
0,50,0,8
0,80,78,4854
0,74,71,1
0,80,0,8
0,74,0,3
0,81,82,117
0,74,65,2
0,81,0,8
0,74,0,2
0,80,71,76
0,83,66,3
0,80,0,226
0,83,0,3
0,82,93,8910
0,86,84,2
0,83,98,7
0,82,0,1
0,86,0,30
0,83,0,0
0,83,91,55
0,86,88,1
0,83,0,33
0,86,0,15
0,85,81,34
0,81,51,6
0,85,0,10
0,81,0,5
0,85,90,27
0,81,77,1
0,85,0,11
0,81,0,9
0,80,76,63
0,83,71,1
0,80,0,272
0,83,0,1
0,76,80,7756
0,76,0,16
0,81,78,19
0,81,0,30
0,79,71,15
0,79,0,33
0,76,67,8
0,76,0,30
0,72,74,12
0,72,0,21
0,73,77,19
0,73,0,34
0,69,79,45
0,69,0,33
0,67,74,6
0,67,0,22
0,69,90,18
0,69,0,21
1,58,110,2191
1,62,92,3
1,58,0,6
1,59,98,0
1,62,0,9
1,59,0,6
1,62,80,21
1,59,86,0
1,62,0,22
1,59,0,31
1,60,89,25
1,64,89,1
1,60,0,114
1,64,0,13
1,62,84,2
1,59,70,3
1,62,0,10
1,59,0,9
1,59,96,24
1,55,82,1
1,59,0,24
1,55,0,50
1,55,75,14
1,55,0,12
1,59,58,23
1,59,0,137
1,62,104,217
1,59,115,0
1,62,0,25
1,59,0,0
1,64,107,19
1,60,95,2
1,64,0,67
1,60,0,2
1,62,81,19
1,59,81,0
1,62,0,26
1,59,0,7
1,60,86,4
1,60,0,26
1,58,101,16
1,55,82,1
1,59,94,6
1,58,0,1
1,55,0,273
1,59,0,64
1,55,103,8
1,55,0,26
1,59,97,10
1,62,94,2
1,59,0,22
1,62,0,6
1,62,76,20
1,59,82,1
1,62,0,27
1,59,0,6
1,59,98,44
1,62,92,0
1,59,0,127
1,62,0,4
1,62,80,27
1,62,0,8
1,62,98,33
1,59,100,1
1,62,0,33
1,59,0,1
1,60,85,15
1,60,0,66
1,59,103,21
1,59,0,73
1,57,112,18
1,57,0,27
1,55,97,6
1,55,0,19
1,57,97,23
1,57,0,491
1,60,91,224
1,57,92,1
1,60,0,17
1,57,0,8
1,60,95,19
1,57,94,1
1,60,0,57
1,57,0,7
1,57,97,12
1,62,103,2
1,57,0,136
1,61,66,11
1,60,89,4
1,62,0,3
1,61,0,1
1,60,0,4
1,62,102,36
1,60,88,24
1,62,0,7
1,57,92,16
1,60,0,11
1,54,78,76
1,57,87,2
1,57,0,9
1,54,0,167
1,57,0,71
1,60,98,50
1,57,103,2
1,55,90,1
1,60,0,8
1,57,0,0
1,55,0,5
1,60,79,24
1,57,80,3
1,60,0,9
1,57,0,6
1,55,101,24
1,62,96,1
1,57,101,1
1,55,0,59
1,60,81,20
1,62,0,5
1,57,0,11
1,60,0,5
1,62,102,22
1,55,104,0
1,57,108,2
1,62,0,59
1,55,0,11
1,57,0,2
1,60,84,9
1,60,0,20
1,54,93,30
1,57,96,0
1,54,0,176
1,57,0,49
1,57,103,41
1,60,100,0
1,57,0,15
1,60,0,8
1,57,102,20
1,60,87,1
1,57,0,47
1,60,0,9
1,57,100,11
1,62,95,0
1,57,0,174
1,60,72,0
1,62,0,1
1,60,0,8
1,59,92,34
1,54,97,1
1,59,0,83
1,54,0,35
1,57,115,19
1,57,0,18
1,57,110,19
1,57,0,35
1,55,98,11
1,58,120,78
1,59,127,4
1,55,0,4
1,58,0,1
1,59,0,377
1,62,98,262
1,62,0,26
1,59,102,55
1,62,96,0
1,59,0,82
1,55,71,8
1,62,0,3
1,55,0,10
1,64,96,31
1,60,91,0
1,64,0,62
1,60,0,0
1,62,89,25
1,59,87,1
1,62,0,39
1,59,0,41
1,55,81,4
1,59,103,4
1,55,0,125
1,59,0,97
1,59,93,22
1,55,91,1
1,59,0,15
1,55,0,1
1,55,86,25
1,59,93,3
1,55,0,16
1,59,0,12
1,60,85,14
1,57,91,1
1,60,0,8
1,57,0,8
1,59,110,26
1,62,101,0
1,59,0,19
1,62,0,3
1,59,92,21
1,62,81,1
1,59,0,12
1,62,0,56
1,60,88,21
1,64,97,1
1,60,0,55
1,64,0,3
1,62,83,12
1,59,58,6
1,62,0,8
1,59,0,16
1,55,86,15
1,59,100,7
1,55,0,2
1,59,0,10
1,59,85,38
1,55,84,0
1,59,0,195
1,55,0,16
1,62,89,58
1,53,95,0
1,59,95,2
1,62,0,11
1,53,0,3
1,59,0,2
1,62,92,24
1,59,94,1
1,53,87,1
1,62,0,7
1,59,0,0
1,53,0,1
1,59,107,73
1,53,108,0
1,62,103,1
1,59,0,36
1,53,0,6
1,62,0,3
1,64,92,15
1,64,0,21
1,65,102,22
1,62,92,0
1,59,93,1
1,65,0,45
1,62,0,2
1,59,0,6
1,65,98,24
1,59,89,1
1,62,93,0
1,65,0,17
1,59,0,8
1,62,64,25
1,62,0,3
1,62,0,7
1,63,108,16
1,64,112,6
1,63,0,2
1,64,0,72
1,62,100,12
1,62,0,35
1,64,105,44
1,60,91,0
1,55,65,123
1,64,0,250
1,60,0,187
1,55,0,9
1,67,60,78
1,67,0,11
1,64,117,44
1,67,104,1
1,64,0,17
1,67,0,6
1,67,82,21
1,64,93,1
1,67,0,8
1,64,0,7
1,67,110,69
1,64,121,0
1,67,0,93
1,64,0,7
1,64,89,25
1,67,75,0
1,64,0,13
1,67,0,6
1,64,105,25
1,69,104,1
1,64,0,26
1,69,0,6
1,67,92,47
1,64,100,0
1,67,0,12
1,64,0,5
1,62,92,61
1,66,94,0
1,62,0,48
1,66,0,11
1,64,101,30
1,64,0,101
1,62,88,36
1,59,90,1
1,62,0,24
1,59,0,45
1,62,59,24
1,62,0,22
1,60,82,24
1,60,0,22
1,59,92,14
1,59,0,30
1,60,95,17
1,60,0,57
1,62,97,21
1,62,0,78
1,60,79,29
1,60,0,35
1,59,79,22
1,59,0,189
1,57,127,33
1,57,0,43
1,57,101,41
1,57,0,27
1,59,100,53
1,57,91,82
1,59,0,8
1,57,0,0
1,59,105,38
1,59,0,92
1,57,110,21
1,57,0,22
1,59,112,26
1,59,0,77
1,57,107,6
1,57,0,14
1,62,110,55
1,54,95,2
1,60,87,2
1,57,95,1
1,62,0,494
1,54,0,69
1,60,0,31
1,57,0,3
1,60,101,127
1,64,107,1
1,55,102,0
1,60,0,27
1,64,0,9
1,55,0,1
1,60,88,49
1,55,90,1
1,64,90,1
1,60,0,6
1,55,0,1
1,64,0,2
1,55,94,73
1,60,95,0
1,64,98,3
1,55,0,10
1,60,0,2
1,64,0,4
1,66,89,64
1,62,89,1
1,66,0,20
1,62,0,6
1,64,98,25
1,67,92,1
1,64,0,64
1,67,0,2
1,62,81,22
1,66,89,2
1,62,0,53
1,66,0,7
1,64,90,16
1,60,78,1
1,64,0,66
1,60,0,3
1,60,87,28
1,64,88,0
1,60,0,69
1,64,0,10
1,59,101,124
1,62,103,1
1,59,0,27
1,62,0,3
1,57,96,11
1,60,82,3
1,57,0,19
1,60,0,8
1,55,97,10
1,59,87,2
1,55,0,71
1,59,0,7
1,57,98,6
1,60,85,1
1,57,0,19
1,60,0,5
1,59,95,21
1,62,105,1
1,55,77,3
1,59,0,248
1,62,0,45
1,55,0,33
1,59,110,48
1,59,0,37
1,57,98,4
1,57,0,19
1,69,124,152
1,69,0,21
1,69,102,18
1,69,0,23
1,70,101,26
1,70,0,61
1,70,99,22
1,70,0,23
1,69,96,14
1,69,0,34
1,67,88,5
1,67,0,9
1,69,102,27
1,69,0,34
1,67,76,13
1,67,0,9
1,64,102,28
1,64,0,29
1,62,67,10
1,62,0,29
1,59,93,10
1,59,0,15
1,58,108,21
1,58,0,30
1,57,101,14
1,57,0,35
1,55,79,4
1,55,0,9
1,52,98,37
1,52,0,32
1,50,92,7
1,50,0,20
1,52,100,25
1,52,0,22
1,55,115,21
1,55,0,31
1,58,114,53
1,58,0,29
1,59,117,54
1,59,0,59
1,62,94,28
1,62,0,14
1,62,55,29
1,62,0,10
1,63,108,30
1,63,0,18
1,64,127,23
1,64,0,24
1,64,105,16
1,64,0,24
1,64,117,62
1,64,0,31
1,67,103,51
1,67,0,15
1,70,106,66
1,64,110,1
1,60,101,0
1,70,0,22
1,64,0,31
1,60,0,7
1,67,93,25
1,60,89,1
1,67,0,13
1,60,0,3
1,64,107,62
1,60,98,0
1,70,103,2
1,64,0,43
1,60,0,16
1,70,0,1
1,60,91,24
1,67,83,0
1,64,87,3
1,60,0,19
1,67,0,3
1,64,0,5
1,67,110,175
1,62,110,0
1,59,110,1
1,67,0,23
1,62,0,6
1,59,0,2
1,64,83,11
1,64,0,22
1,67,97,22
1,59,105,1
1,67,0,44
1,59,0,3
1,67,68,34
1,67,0,9
1,67,112,40
1,67,0,48
1,64,84,30
1,64,0,25
1,62,89,14
1,59,88,0
1,62,0,134
1,59,0,16
1,57,108,88
1,54,100,1
1,57,0,25
1,54,0,6
1,57,84,56
1,54,53,3
1,57,0,5
1,54,0,4
1,57,101,69
1,57,0,57
1,59,89,19
1,59,0,50
1,60,103,35
1,57,121,0
1,60,0,54
1,57,0,11
1,59,101,19
1,59,0,21
1,60,105,22
1,60,0,59
1,59,101,19
1,59,0,15
1,54,93,72
1,60,84,1
1,62,100,0
1,57,89,2
1,54,0,7
1,60,0,10
1,54,71,97
1,60,67,4
1,62,0,5
1,57,0,3
1,54,0,287
1,60,0,217
1,57,124,76
1,54,94,1
1,57,0,14
1,54,0,2
1,57,108,24
1,54,86,1
1,57,0,49
1,54,0,8
1,54,98,23
1,57,115,0
1,54,0,47
1,57,0,16
1,59,117,20
1,59,0,26
1,57,121,51
1,60,98,1
1,54,107,2
1,57,0,49
1,60,0,6
1,54,0,0
1,54,104,23
1,60,90,1
1,57,89,3
1,54,0,8
1,60,0,5
1,57,0,4
1,62,107,22
1,62,0,30
1,58,120,17
1,62,104,0
1,58,0,59
1,58,102,23
1,62,101,1
1,62,0,25
1,58,0,2
1,62,65,10
1,57,102,1
1,62,0,14
1,62,0,18
1,55,102,6
1,57,0,1
1,55,0,821
1,61,100,453
1,57,96,3
1,61,0,13
1,57,0,11
1,62,92,12
1,59,86,0
1,62,0,8
1,59,0,9
1,61,106,21
1,64,105,2
1,61,0,55
1,64,0,6
1,61,102,72
1,64,103,1
1,61,0,24
1,64,0,8
1,61,97,46
1,64,101,0
1,57,93,3
1,61,0,8
1,64,0,4
1,57,0,4
1,62,92,59
1,66,90,0
1,62,0,62
1,66,0,8
1,64,90,11
1,62,93,165
1,64,0,9
1,62,0,7
1,61,96,26
1,61,0,30
1,62,92,12
1,62,0,17
1,61,101,24
1,64,103,1
1,57,110,1
1,61,0,63
1,64,0,1
1,57,0,24
1,62,94,42
1,66,98,0
1,62,0,16
1,66,0,1
1,61,95,21
1,64,86,3
1,61,0,44
1,64,0,4
1,59,90,20
1,62,85,3
1,59,0,29
1,62,0,15
1,61,91,17
1,57,90,2
1,61,0,368
1,64,94,15
1,57,0,7
1,64,0,16
1,64,101,22
1,64,0,22
1,61,95,50
1,64,103,2
1,57,107,1
1,61,0,119
1,64,0,10
1,64,88,26
1,57,0,14
1,64,0,2
1,62,104,27
1,62,0,29
1,61,103,12
1,61,0,62
1,59,127,22
1,59,0,55
1,57,115,20
1,57,0,20
1,59,101,54
1,56,103,0
1,59,0,530
1,56,0,92
1,62,105,18
1,62,0,32
1,56,103,49
1,62,98,1
1,59,102,1
1,56,0,78
1,62,0,57
1,59,0,9
1,64,127,27
1,64,0,34
1,61,97,47
1,61,0,34
1,64,94,13
1,64,0,57
1,66,112,19
1,66,0,28
1,61,99,221
1,61,0,23
1,64,110,15
1,64,0,39
1,61,94,46
1,61,0,19
1,64,127,27
1,64,0,45
1,64,127,34
1,64,0,50
1,66,112,24
1,66,0,202
1,69,107,163
1,69,0,19
1,73,108,11
1,73,0,31
1,71,104,13
1,71,0,38
1,69,104,26
1,69,0,14
1,66,106,79
1,66,0,108
1,69,127,22
1,69,0,38
1,66,99,13
1,66,0,51
1,64,110,28
1,64,0,26
1,60,105,46
1,60,0,28
1,57,103,48
1,61,103,0
1,57,0,79
1,61,0,0
1,54,100,17
1,59,100,0
1,52,90,21
1,57,107,0
1,54,0,5
1,59,0,0
1,52,0,395
1,57,0,0
1,64,94,53
1,64,0,133
1,57,117,13
1,64,105,0
1,61,104,1
1,57,0,13
1,64,0,6
1,61,0,0
1,61,101,58
1,57,104,1
1,64,103,0
1,61,0,16
1,57,0,8
1,64,0,0
1,61,100,54
1,64,98,2
1,57,92,2
1,61,0,7
1,64,0,7
1,57,0,4
1,61,102,55
1,61,0,32
1,64,105,11
1,64,0,19
1,69,77,73
1,64,60,6
1,69,0,5
1,64,0,12
1,71,96,13
1,64,79,1
1,71,0,9
1,64,0,16
1,69,112,15
1,64,103,1
1,69,0,115
1,64,0,21
1,66,98,119
1,66,0,19
1,69,124,17
1,69,0,41
1,66,87,2
1,66,0,22
1,69,127,19
1,69,0,26
1,69,112,17
1,69,0,51
1,69,117,25
1,69,0,63
1,66,97,33
1,66,0,32
1,64,92,0
1,61,87,0
1,57,102,1
1,64,0,182
1,61,0,1
1,57,0,19
1,61,102,0
1,55,97,0
1,64,100,2
1,61,0,11
1,55,0,4
1,64,0,2
1,61,94,23
1,64,96,0
1,55,92,2
1,61,0,8
1,64,0,5
1,55,0,3
1,61,105,65
1,64,107,1
1,55,101,1
1,61,0,52
1,64,0,2
1,55,0,9
1,66,102,25
1,66,0,53
1,61,113,24
1,55,115,1
1,67,107,0
1,61,0,64
1,55,0,4
1,67,0,3
1,67,85,27
1,61,72,2
1,55,78,1
1,67,0,5
1,61,0,2
1,55,0,1
1,67,86,24
1,61,80,1
1,67,0,9
1,61,0,6
1,69,117,28
1,69,0,41
1,69,127,41
1,69,0,42
1,62,102,39
1,60,98,0
1,66,101,2
1,62,0,57
1,60,0,6
1,66,0,9
1,64,88,4
1,64,0,29
1,62,103,11
1,60,97,1
1,62,0,392
1,60,0,34
1,69,93,58
1,69,0,31
1,69,105,36
1,69,0,17
1,66,117,20
1,62,108,2
1,72,105,1
1,66,0,14
1,62,0,19
1,72,0,4
1,69,108,49
1,62,77,4
1,69,0,7
1,62,0,11
1,66,114,57
1,62,108,1
1,72,105,1
1,66,0,45
1,62,0,4
1,72,0,8
1,69,95,27
1,69,0,26
1,66,118,29
1,62,105,2
1,72,105,2
1,66,0,42
1,62,0,8
1,72,0,8
