track,note,velocity,time
1,46,110,2304
1,46,110,2
1,46,110,2
1,46,110,2
1,46,110,2
1,46,110,2
1,46,110,2
1,46,110,2
1,49,110,2
1,46,110,32
1,46,110,32
1,46,110,32
1,46,110,32
1,46,110,32
1,46,110,32
1,46,110,32
1,46,110,32
1,46,110,32
1,46,110,32
1,46,110,32
1,46,110,32
1,46,110,32
1,46,110,32
1,46,110,32
1,46,110,32
1,46,110,32
1,46,110,32
1,46,110,32
1,46,110,32
1,46,110,32
1,46,110,32
1,46,110,32
1,46,110,32
1,46,110,32
1,46,110,32
1,46,110,32
1,46,110,32
1,46,110,32
1,46,110,32
1,49,110,224
1,46,110,32
1,46,110,32
1,46,110,32
1,46,110,32
1,46,110,32
1,46,110,32
1,46,110,32
1,46,110,32
1,46,110,32
1,46,110,32
1,46,110,32
1,46,110,32
1,46,110,32
1,46,110,32
1,46,110,32
1,46,110,32
1,46,110,32
1,46,110,32
1,46,110,32
1,46,110,32
1,46,110,32
1,46,110,32
1,46,110,32
1,46,110,32
1,46,110,32
1,46,110,32
1,46,110,32
1,46,110,32
1,46,110,32
1,48,110,128
1,48,110,2
1,48,110,2
1,49,110,2
1,49,110,32
1,49,110,32
1,49,110,32
1,49,110,32
1,49,110,32
1,49,110,32
1,49,110,32
1,49,110,32
1,49,110,32
1,49,110,32
1,49,110,32
1,49,110,32
1,49,110,32
1,49,110,32
1,38,110,128
1,38,110,2
1,49,110,2
1,46,110,32
1,46,110,32
1,46,110,32
1,46,110,32
1,46,110,32
1,46,110,32
1,46,110,32
1,46,110,32
1,46,110,32
1,46,110,32
1,46,110,32
1,46,110,32
1,46,110,32
1,46,110,32
1,38,110,128
1,38,110,2
1,49,110,2
1,46,110,32
1,46,110,32
1,46,110,32
1,46,110,32
1,46,110,32
1,46,110,32
1,46,110,32
1,46,110,32
1,46,110,32
1,46,110,32
1,46,110,32
1,46,110,32
1,46,110,32
1,46,110,32
1,46,110,32
1,46,110,32
1,46,110,32
1,46,110,32
1,46,110,32
1,46,110,32
1,46,110,32
1,46,110,32
1,46,110,32
1,46,110,32
1,46,110,32
1,46,110,32
1,46,110,32
1,46,110,32
1,46,110,32
1,46,110,32
1,49,110,224
1,46,110,32
1,46,110,32
1,46,110,32
1,46,110,32
1,46,110,32
1,46,110,32
1,46,110,32
1,46,110,32
1,46,110,32
1,46,110,32
1,46,110,32
1,46,110,32
1,46,110,32
1,46,110,32
1,46,110,32
1,46,110,32
1,46,110,32
1,46,110,32
1,46,110,32
1,46,110,32
1,46,110,32
1,46,110,32
1,46,110,32
1,46,110,32
1,46,110,32
1,46,110,32
1,46,110,32
1,46,110,32
1,46,110,32
1,48,110,128
1,48,110,2
1,48,110,2
1,49,110,2
1,49,110,32
1,49,110,32
1,49,110,32
1,49,110,32
1,49,110,32
1,49,110,32
1,49,110,32
1,49,110,32
1,49,110,32
1,49,110,32
1,49,110,32
1,49,110,32
1,49,110,32
1,49,110,32
1,38,110,128
1,38,110,2
1,49,110,2
1,46,110,32
1,46,110,32
1,46,110,32
1,46,110,32
1,46,110,32
1,46,110,32
1,46,110,32
1,46,110,32
1,46,110,32
1,46,110,32
1,46,110,32
1,46,110,32
1,46,110,32
1,46,110,32
1,49,110,224
1,49,110,432
1,49,110,32
1,46,110,1008
1,53,110,1200
2,38,110,2976
2,36,110,2
2,40,110,32
2,36,110,32
2,36,110,2
2,40,110,2
2,36,110,2
2,36,110,98
2,40,110,2
2,36,110,2
2,36,110,32
2,40,110,2
2,36,110,32
2,40,110,32
2,36,110,32
2,36,110,2
2,40,110,2
2,36,110,2
2,36,110,98
2,40,110,2
2,36,110,2
2,36,110,32
2,40,110,2
2,36,110,32
2,40,110,32
2,36,110,32
2,36,110,2
2,40,110,2
2,36,110,2
2,36,110,98
2,40,110,2
2,36,110,2
2,36,110,32
2,40,110,2
2,36,110,32
2,40,110,32
2,36,110,32
2,36,110,2
2,40,110,2
2,36,110,2
2,36,110,98
2,40,110,2
2,36,110,2
2,40,110,32
2,40,110,2
2,40,110,2
2,36,110,2
2,40,110,32
2,36,110,32
2,36,110,2
2,40,110,2
2,36,110,2
2,36,110,98
2,40,110,2
2,36,110,2
2,36,110,32
2,40,110,2
2,36,110,32
2,40,110,32
2,36,110,32
2,36,110,2
2,40,110,2
2,36,110,2
2,36,110,98
2,40,110,2
2,36,110,2
2,36,110,32
2,40,110,2
2,36,110,32
2,40,110,32
2,36,110,32
2,36,110,2
2,40,110,2
2,36,110,2
2,36,110,98
2,40,110,2
2,36,110,2
2,36,110,32
2,40,110,2
2,36,110,32
2,40,110,32
2,36,110,32
2,36,110,2
2,40,110,2
2,36,110,2
2,36,110,98
2,40,110,2
2,36,110,2
2,40,110,32
2,40,110,2
2,40,110,2
2,36,110,2
2,40,110,32
2,36,110,32
2,36,110,2
2,40,110,2
2,36,110,2
2,36,110,98
2,40,110,2
2,36,110,2
2,36,110,32
2,40,110,2
2,36,110,32
2,40,110,32
2,36,110,32
2,36,110,2
2,40,110,2
2,36,110,2
2,36,110,98
2,40,110,2
2,36,110,2
2,40,110,32
2,40,110,2
2,40,110,2
2,36,110,2
2,40,110,32
2,36,110,32
2,36,110,2
2,40,110,2
2,36,110,2
2,36,110,98
2,40,110,2
2,36,110,2
2,36,110,32
2,40,110,2
2,36,110,32
2,40,110,32
2,36,110,32
2,36,110,2
2,40,110,2
2,36,110,2
2,36,110,98
2,40,110,2
2,36,110,2
2,40,110,32
2,40,110,2
2,40,110,2
2,36,110,2
2,40,110,32
2,36,110,32
2,36,110,2
2,40,110,2
2,36,110,2
2,36,110,98
2,40,110,2
2,36,110,2
2,36,110,32
2,40,110,2
2,36,110,32
2,40,110,32
2,36,110,32
2,36,110,2
2,40,110,2
2,36,110,2
2,36,110,98
2,40,110,2
2,36,110,2
2,36,110,32
2,40,110,2
2,36,110,32
2,40,110,32
2,36,110,32
2,36,110,2
2,40,110,2
2,36,110,2
2,36,110,98
2,40,110,2
2,36,110,2
2,36,110,32
2,40,110,2
2,36,110,32
2,40,110,32
2,36,110,32
2,36,110,2
2,40,110,2
2,36,110,2
2,36,110,98
2,40,110,2
2,36,110,2
2,40,110,32
2,40,110,2
2,40,110,2
2,36,110,2
2,40,110,32
2,36,110,32
2,36,110,2
2,40,110,2
2,36,110,2
2,36,110,98
2,40,110,2
2,36,110,2
2,36,110,32
2,40,110,2
2,36,110,32
2,40,110,32
2,36,110,32
2,36,110,2
2,40,110,2
2,36,110,2
2,36,110,98
2,40,110,2
2,36,110,2
2,36,110,32
2,40,110,2
2,36,110,32
2,40,110,32
2,36,110,32
2,36,110,2
2,40,110,2
2,36,110,2
2,36,110,98
2,40,110,2
2,36,110,2
2,36,110,32
2,40,110,2
2,36,110,32
2,40,110,32
2,36,110,32
2,36,110,2
2,40,110,2
2,36,110,2
2,36,110,98
2,40,110,2
2,36,110,2
2,40,110,32
2,40,110,2
2,40,110,2
2,36,110,2
2,40,110,32
2,36,110,32
2,36,110,2
2,40,110,2
2,36,110,2
2,36,110,98
2,40,110,2
2,36,110,2
2,36,110,32
2,40,110,2
2,36,110,32
2,40,110,32
2,36,110,32
2,36,110,2
2,40,110,2
2,36,110,2
2,36,110,98
2,40,110,2
2,36,110,2
2,40,110,32
2,40,110,2
2,40,110,2
2,36,110,2
2,40,110,32
2,36,110,32
2,36,110,2
2,40,110,2
2,36,110,2
2,36,110,98
2,40,110,2
2,36,110,2
2,36,110,32
2,40,110,2
2,36,110,32
2,40,110,32
2,36,110,32
2,36,110,2
2,40,110,2
2,36,110,2
2,36,110,98
2,40,110,2
2,36,110,2
2,40,110,32
2,40,110,2
2,40,110,2
2,36,110,2
2,36,110,32
2,36,110,2
2,36,110,2
2,36,110,2
2,36,110,2
2,36,110,2
2,36,110,2
2,36,110,32
2,53,110,1008
3,47,110,3072
3,54,110,0
3,47,110,32
3,54,110,0
3,47,110,32
3,54,110,0
3,47,110,2
3,54,110,0
3,47,110,2
3,54,110,0
3,45,110,2
3,52,110,0
3,45,110,2
3,52,110,0
3,45,110,2
3,52,110,0
3,48,110,2
3,55,110,0
3,60,110,0
3,48,110,2
3,55,110,0
3,60,110,0
3,48,110,2
3,55,110,0
3,60,110,0
3,48,110,2
3,55,110,0
3,60,110,0
3,47,110,2
3,54,110,0
3,47,110,32
3,54,110,0
3,47,110,32
3,54,110,0
3,47,110,2
3,54,110,0
3,47,110,2
3,54,110,0
3,45,110,2
3,52,110,0
3,45,110,2
3,52,110,0
3,45,110,2
3,52,110,0
3,48,110,2
3,55,110,0
3,60,110,0
3,48,110,2
3,55,110,0
3,60,110,0
3,48,110,2
3,55,110,0
3,60,110,0
3,48,110,2
3,55,110,0
3,60,110,0
3,47,110,2
3,54,110,0
3,47,110,32
3,54,110,0
3,47,110,32
3,54,110,0
3,47,110,2
3,54,110,0
3,47,110,2
3,54,110,0
3,45,110,2
3,52,110,0
3,45,110,2
3,52,110,0
3,45,110,2
3,52,110,0
3,48,110,2
3,55,110,0
3,60,110,0
3,48,110,2
3,55,110,0
3,60,110,0
3,48,110,2
3,55,110,0
3,60,110,0
3,48,110,2
3,55,110,0
3,60,110,0
3,47,110,2
3,54,110,0
3,47,110,32
3,54,110,0
3,47,110,32
3,54,110,0
3,47,110,2
3,54,110,0
3,47,110,2
3,54,110,0
3,45,110,2
3,52,110,0
3,45,110,2
3,52,110,0
3,45,110,2
3,52,110,0
3,48,110,2
3,55,110,0
3,60,110,0
3,48,110,2
3,55,110,0
3,60,110,0
3,48,110,2
3,55,110,0
3,60,110,0
3,48,110,2
3,55,110,0
3,60,110,0
3,47,110,2
3,54,110,0
3,47,110,32
3,54,110,0
3,47,110,32
3,54,110,0
3,47,110,2
3,54,110,0
3,47,110,2
3,54,110,0
3,45,110,2
3,52,110,0
3,45,110,2
3,52,110,0
3,45,110,2
3,52,110,0
3,48,110,2
3,55,110,0
3,60,110,0
3,48,110,2
3,55,110,0
3,60,110,0
3,48,110,2
3,55,110,0
3,60,110,0
3,48,110,2
3,55,110,0
3,60,110,0
3,47,110,2
3,54,110,0
3,47,110,32
3,54,110,0
3,47,110,32
3,54,110,0
3,47,110,2
3,54,110,0
3,47,110,2
3,54,110,0
3,45,110,2
3,52,110,0
3,45,110,2
3,52,110,0
3,45,110,2
3,52,110,0
3,48,110,2
3,55,110,0
3,60,110,0
3,48,110,2
3,55,110,0
3,60,110,0
3,48,110,2
3,55,110,0
3,60,110,0
3,48,110,2
3,55,110,0
3,60,110,0
3,47,110,2
3,54,110,0
3,47,110,32
3,54,110,0
3,47,110,32
3,54,110,0
3,47,110,2
3,54,110,0
3,47,110,2
3,54,110,0
3,45,110,2
3,52,110,0
3,45,110,2
3,52,110,0
3,45,110,2
3,52,110,0
3,48,110,2
3,55,110,0
3,60,110,0
3,48,110,2
3,55,110,0
3,60,110,0
3,48,110,2
3,55,110,0
3,60,110,0
3,48,110,2
3,55,110,0
3,60,110,0
3,47,110,2
3,54,110,0
3,47,110,32
3,54,110,0
3,47,110,32
3,54,110,0
3,47,110,2
3,54,110,0
3,47,110,2
3,54,110,0
3,45,110,2
3,52,110,0
3,45,110,2
3,52,110,0
3,45,110,2
3,52,110,0
3,48,110,2
3,55,110,0
3,60,110,0
3,48,110,2
3,55,110,0
3,60,110,0
3,48,110,2
3,55,110,0
3,60,110,0
3,48,110,2
3,55,110,0
3,60,110,0
3,51,110,2
3,58,110,0
3,63,110,0
3,51,110,32
3,58,110,0
3,63,110,0
3,51,110,32
3,58,110,0
3,63,110,0
3,51,110,2
3,58,110,0
3,63,110,0
3,51,110,2
3,58,110,0
3,63,110,0
3,46,110,2
3,53,110,0
3,58,110,0
3,46,110,2
3,53,110,0
3,58,110,0
3,46,110,2
3,53,110,0
3,58,110,0
3,52,110,2
3,59,110,0
3,64,110,0
3,52,110,2
3,59,110,0
3,64,110,0
3,52,110,2
3,59,110,0
3,64,110,0
3,52,110,2
3,59,110,0
3,64,110,0
3,51,110,2
3,58,110,0
3,63,110,0
3,51,110,32
3,58,110,0
3,63,110,0
3,51,110,32
3,58,110,0
3,63,110,0
3,51,110,2
3,58,110,0
3,63,110,0
3,51,110,2
3,58,110,0
3,63,110,0
3,46,110,2
3,53,110,0
3,58,110,0
3,46,110,2
3,53,110,0
3,58,110,0
3,46,110,2
3,53,110,0
3,58,110,0
3,52,110,2
3,59,110,0
3,64,110,0
3,52,110,2
3,59,110,0
3,64,110,0
3,52,110,2
3,59,110,0
3,64,110,0
3,52,110,2
3,59,110,0
3,64,110,0
3,47,110,2
3,54,110,0
3,47,110,32
3,54,110,0
3,47,110,32
3,54,110,0
3,47,110,2
3,54,110,0
3,47,110,2
3,54,110,0
3,45,110,2
3,52,110,0
3,45,110,2
3,52,110,0
3,45,110,2
3,52,110,0
3,48,110,2
3,55,110,0
3,60,110,0
3,48,110,2
3,55,110,0
3,60,110,0
3,48,110,2
3,55,110,0
3,60,110,0
3,48,110,2
3,55,110,0
3,60,110,0
3,47,110,2
3,54,110,0
3,47,110,32
3,54,110,0
3,47,110,32
3,54,110,0
3,47,110,2
3,54,110,0
3,47,110,2
3,54,110,0
3,45,110,2
3,52,110,0
3,45,110,2
3,52,110,0
3,45,110,2
3,52,110,0
3,48,110,2
3,55,110,0
3,60,110,0
3,48,110,2
3,55,110,0
3,60,110,0
3,48,110,2
3,55,110,0
3,60,110,0
3,48,110,2
3,55,110,0
3,60,110,0
3,47,110,2
3,54,110,0
3,47,110,32
3,54,110,0
3,47,110,32
3,54,110,0
3,47,110,2
3,54,110,0
3,47,110,2
3,54,110,0
3,45,110,2
3,52,110,0
3,45,110,2
3,52,110,0
3,45,110,2
3,52,110,0
3,48,110,2
3,55,110,0
3,60,110,0
3,48,110,2
3,55,110,0
3,60,110,0
3,48,110,2
3,55,110,0
3,60,110,0
3,48,110,2
3,55,110,0
3,60,110,0
3,47,110,2
3,54,110,0
3,47,110,32
3,54,110,0
3,47,110,32
3,54,110,0
3,47,110,2
3,54,110,0
3,47,110,2
3,54,110,0
3,45,110,2
3,52,110,0
3,45,110,2
3,52,110,0
3,45,110,2
3,52,110,0
3,48,110,2
3,55,110,0
3,60,110,0
3,48,110,2
3,55,110,0
3,60,110,0
3,48,110,2
3,55,110,0
3,60,110,0
3,48,110,2
3,55,110,0
3,60,110,0
3,47,110,2
3,54,110,0
3,47,110,32
3,54,110,0
3,47,110,32
3,54,110,0
3,47,110,2
3,54,110,0
3,47,110,2
3,54,110,0
3,45,110,2
3,52,110,0
3,45,110,2
3,52,110,0
3,45,110,2
3,52,110,0
3,48,110,2
3,55,110,0
3,60,110,0
3,48,110,2
3,55,110,0
3,60,110,0
3,48,110,2
3,55,110,0
3,60,110,0
3,48,110,2
3,55,110,0
3,60,110,0
3,47,110,2
3,54,110,0
3,47,110,32
3,54,110,0
3,47,110,32
3,54,110,0
3,47,110,2
3,54,110,0
3,47,110,2
3,54,110,0
3,45,110,2
3,52,110,0
3,45,110,2
3,52,110,0
3,45,110,2
3,52,110,0
3,48,110,2
3,55,110,0
3,60,110,0
3,48,110,2
3,55,110,0
3,60,110,0
3,48,110,2
3,55,110,0
3,60,110,0
3,48,110,2
3,55,110,0
3,60,110,0
3,47,110,2
3,54,110,0
3,47,110,32
3,54,110,0
3,47,110,32
3,54,110,0
3,47,110,2
3,54,110,0
3,47,110,2
3,54,110,0
3,45,110,2
3,52,110,0
3,45,110,2
3,52,110,0
3,45,110,2
3,52,110,0
3,48,110,2
3,55,110,0
3,60,110,0
3,48,110,2
3,55,110,0
3,60,110,0
3,48,110,2
3,55,110,0
3,60,110,0
3,48,110,2
3,55,110,0
3,60,110,0
3,47,110,2
3,54,110,0
3,47,110,32
3,54,110,0
3,47,110,32
3,54,110,0
3,47,110,2
3,54,110,0
3,47,110,2
3,54,110,0
3,45,110,2
3,52,110,0
3,45,110,2
3,52,110,0
3,45,110,2
3,52,110,0
3,48,110,2
3,55,110,0
