track,note,velocity,time
1,69,93,1536
1,69,93,32
1,73,93,1
1,78,93,1
1,76,93,1
1,74,93,1
1,73,93,1
1,71,93,1
1,69,93,1
1,74,93,1
1,73,93,1
1,71,93,1
1,69,93,1
1,71,93,1
1,73,93,1
1,71,93,1
1,71,93,16
1,69,93,49
1,69,93,32
1,73,93,1
1,78,93,1
1,76,93,1
1,74,93,1
1,73,93,1
1,71,93,1
1,69,93,1
1,74,93,1
1,73,93,1
1,71,93,1
1,69,93,1
1,71,93,1
1,73,93,1
1,71,93,1
1,71,93,16
1,69,93,145
1,68,93,1
1,69,93,1
1,71,93,1
1,69,93,1
1,68,93,1
1,66,93,1
1,69,93,97
1,68,93,1
1,69,93,1
1,73,93,1
1,76,93,0
1,71,93,1
1,76,93,0
1,71,93,16
1,76,93,0
1,69,93,145
1,68,93,1
1,69,93,1
1,71,93,1
1,69,93,1
1,68,93,1
1,66,93,1
1,69,93,97
1,68,93,1
1,69,93,1
1,73,93,1
1,76,93,0
1,71,93,1
1,76,93,0
1,71,93,16
1,76,93,0
1,73,93,49
1,76,93,0
1,71,93,1
1,76,93,0
1,71,93,16
1,76,93,0
1,73,93,49
1,78,93,0
1,71,93,1
1,76,93,0
1,71,93,16
1,76,93,0
1,71,93,1
1,69,93,1
1,69,93,16
1,69,93,32
1,73,93,1
1,78,93,1
1,76,93,1
1,74,93,1
1,73,93,1
1,71,93,1
1,69,93,1
1,74,93,1
1,73,93,1
1,71,93,1
1,69,93,1
1,71,93,1
1,73,93,1
1,76,93,0
1,71,93,1
1,76,93,0
1,71,93,16
1,76,93,0
1,69,93,49
1,69,93,32
1,73,93,1
1,78,93,1
1,76,93,1
1,74,93,1
1,73,93,1
1,71,93,1
1,69,93,1
1,74,93,1
1,72,93,1
1,71,93,1
1,69,93,1
1,71,93,1
1,73,93,1
1,71,93,1
1,71,93,16
1,69,93,145
1,68,93,1
1,69,93,1
1,71,93,1
1,69,93,1
1,68,93,1
1,66,93,1
1,69,93,97
1,68,93,1
1,69,93,1
1,73,93,1
1,76,93,0
1,71,93,1
1,76,93,0
1,71,93,16
1,76,93,0
1,69,93,145
1,68,93,1
1,69,93,1
1,71,93,1
1,69,93,1
1,68,93,1
1,66,93,1
1,69,93,97
1,68,93,1
1,69,93,1
1,73,93,1
1,76,93,0
1,71,93,1
1,76,93,0
1,71,93,16
1,76,93,0
1,73,93,49
1,76,93,0
1,71,93,1
1,76,93,0
1,71,93,16
1,76,93,0
1,73,93,49
1,76,93,0
1,71,93,1
1,76,93,0
1,73,93,16
1,76,93,0
1,71,93,1
1,74,93,0
1,73,93,1
1,76,93,0
1,71,93,1
1,74,93,0
1,69,93,1
1,73,93,0
1,69,93,2881
1,68,93,1
1,69,93,1
1,71,93,1
1,69,93,1
1,68,93,1
1,66,93,1
1,69,93,97
1,68,93,1
1,69,93,1
1,73,93,1
1,76,93,0
1,71,93,1
1,76,93,0
1,71,93,16
1,76,93,0
1,69,93,145
1,68,93,1
1,69,93,1
1,71,93,1
1,69,93,1
1,68,93,1
1,66,93,1
1,69,93,97
1,68,93,1
1,69,93,1
1,73,93,1
1,71,93,1
1,71,93,16
1,73,93,49
1,71,93,1
1,71,93,16
1,73,93,49
1,71,93,1
1,71,93,16
2,57,64,0
2,52,64,0
2,45,64,0
2,57,64,1
2,52,64,0
2,45,64,0
2,64,64,1
2,59,64,0
2,52,64,0
2,64,64,1
2,59,64,0
2,52,64,0
2,71,64,1
2,64,64,0
2,59,64,0
2,71,64,1
2,64,64,0
2,59,64,0
2,64,64,1
2,59,64,0
2,52,64,0
2,57,64,1
2,52,64,0
2,45,64,0
2,57,64,1
2,52,64,0
2,45,64,0
2,64,64,1
2,59,64,0
2,52,64,0
2,64,64,1
2,59,64,0
2,52,64,0
2,71,64,1
2,64,64,0
2,59,64,0
2,71,64,1
2,64,64,0
2,59,64,0
2,64,64,1
2,59,64,0
2,52,64,0
2,57,64,1
2,52,64,0
2,45,64,0
2,57,64,1
2,52,64,0
2,45,64,0
2,64,64,1
2,59,64,0
2,52,64,0
2,64,64,1
2,59,64,0
2,52,64,0
2,71,64,1
2,64,64,0
2,59,64,0
2,71,64,1
2,64,64,0
2,59,64,0
2,64,64,1
2,59,64,0
2,52,64,0
2,62,64,1
2,57,64,0
2,50,64,0
2,62,64,1
2,57,64,0
2,50,64,0
2,62,64,1
2,57,64,0
2,50,64,0
2,62,64,1
2,57,64,0
2,50,64,0
2,64,64,1
2,59,64,0
2,52,64,0
2,64,64,1
2,59,64,0
2,52,64,0
2,64,64,1
2,59,64,0
2,52,64,0
2,64,64,1
2,59,64,0
2,52,64,0
2,57,64,1
2,52,64,0
2,45,64,0
2,57,64,1
2,52,64,0
2,45,64,0
2,57,64,1
2,52,64,0
2,45,64,0
2,57,64,1
2,52,64,0
2,45,64,0
2,57,64,1
2,52,64,0
2,45,64,0
2,57,64,1
2,52,64,0
2,45,64,0
2,57,64,1
2,52,64,0
2,45,64,0
2,64,64,1
2,59,64,0
2,52,64,0
2,64,64,1
2,59,64,0
2,52,64,0
2,64,64,1
2,59,64,0
2,52,64,0
2,64,64,1
2,59,64,0
2,52,64,0
2,64,64,1
2,59,64,0
2,52,64,0
2,64,64,1
2,59,64,0
2,52,64,0
2,64,64,1
2,59,64,0
2,52,64,0
2,62,64,1
2,57,64,0
2,50,64,0
2,62,64,1
2,57,64,0
2,50,64,0
2,62,64,1
2,57,64,0
2,50,64,0
2,62,64,1
2,57,64,0
2,50,64,0
2,62,64,1
2,57,64,0
2,50,64,0
2,62,64,1
2,57,64,0
2,50,64,0
2,62,64,1
2,57,64,0
2,50,64,0
2,57,64,1
2,52,64,0
2,45,64,0
2,57,64,1
2,52,64,0
2,45,64,0
2,57,64,1
2,52,64,0
2,45,64,0
2,64,64,1
2,59,64,0
2,52,64,0
2,64,64,1
2,59,64,0
2,52,64,0
2,64,64,1
2,59,64,0
2,52,64,0
2,64,64,1
2,59,64,0
2,52,64,0
2,57,64,1
2,52,64,0
2,45,64,0
2,57,64,1
2,52,64,0
2,45,64,0
2,57,64,1
2,52,64,0
2,45,64,0
2,57,64,1
2,52,64,0
2,45,64,0
2,57,64,1
2,52,64,0
2,45,64,0
2,57,64,1
2,52,64,0
2,45,64,0
2,57,64,1
2,52,64,0
2,45,64,0
2,64,64,1
2,59,64,0
2,52,64,0
2,64,64,1
2,59,64,0
2,52,64,0
2,64,64,1
2,59,64,0
2,52,64,0
2,64,64,1
2,59,64,0
2,52,64,0
2,64,64,1
2,59,64,0
2,52,64,0
2,64,64,1
2,59,64,0
2,52,64,0
2,64,64,1
2,59,64,0
2,52,64,0
2,62,64,1
2,57,64,0
2,50,64,0
2,62,64,1
2,57,64,0
2,50,64,0
2,62,64,1
2,57,64,0
2,50,64,0
2,62,64,1
2,57,64,0
2,50,64,0
2,62,64,1
2,57,64,0
2,50,64,0
2,62,64,1
2,57,64,0
2,50,64,0
2,62,64,1
2,57,64,0
2,50,64,0
2,57,64,1
2,52,64,0
2,45,64,0
2,57,64,1
2,52,64,0
2,45,64,0
2,57,64,1
2,52,64,0
2,45,64,0
2,64,64,1
2,59,64,0
2,52,64,0
2,64,64,1
2,59,64,0
2,52,64,0
2,64,64,1
2,59,64,0
2,52,64,0
2,64,64,1
2,59,64,0
2,52,64,0
2,54,64,1
2,49,64,0
2,42,64,0
2,54,64,1
2,49,64,0
2,42,64,0
2,54,64,1
2,49,64,0
2,42,64,0
2,54,64,1
2,49,64,0
2,42,64,0
2,54,64,1
2,49,64,0
2,42,64,0
2,54,64,1
2,49,64,0
2,42,64,0
2,54,64,1
2,49,64,0
2,42,64,0
2,57,64,1
2,52,64,0
2,45,64,0
2,57,64,1
2,52,64,0
2,45,64,0
2,57,64,1
2,52,64,0
2,45,64,0
2,57,64,1
2,52,64,0
2,45,64,0
2,57,64,1
2,52,64,0
2,45,64,0
2,57,64,1
2,52,64,0
2,45,64,0
2,57,64,1
2,52,64,0
2,45,64,0
2,54,64,1
2,49,64,0
2,42,64,0
2,54,64,1
2,49,64,0
2,42,64,0
2,54,64,1
2,49,64,0
2,42,64,0
2,54,64,1
2,49,64,0
2,42,64,0
2,54,64,1
2,49,64,0
2,42,64,0
2,54,64,1
2,49,64,0
2,42,64,0
2,54,64,1
2,49,64,0
2,42,64,0
2,57,64,1
2,52,64,0
2,45,64,0
2,57,64,1
2,52,64,0
2,45,64,0
2,57,64,1
2,52,64,0
2,45,64,0
2,64,64,1
2,59,64,0
2,52,64,0
2,64,64,1
2,59,64,0
2,52,64,0
2,64,64,1
2,59,64,0
2,52,64,0
2,64,64,1
2,59,64,0
2,52,64,0
2,54,64,1
2,49,64,0
2,42,64,0
2,54,64,1
2,49,64,0
2,42,64,0
2,54,64,1
2,49,64,0
2,42,64,0
2,54,64,1
2,49,64,0
2,42,64,0
2,54,64,1
2,49,64,0
2,42,64,0
2,54,64,1
2,49,64,0
2,42,64,0
2,54,64,1
2,49,64,0
2,42,64,0
2,57,64,1
2,52,64,0
2,45,64,0
2,57,64,1
2,52,64,0
2,45,64,0
2,57,64,1
2,52,64,0
2,45,64,0
2,57,64,1
2,52,64,0
2,45,64,0
2,57,64,1
2,52,64,0
2,45,64,0
2,57,64,1
2,52,64,0
2,45,64,0
2,57,64,1
2,52,64,0
2,45,64,0
2,54,64,1
2,49,64,0
2,42,64,0
2,54,64,1
2,49,64,0
2,42,64,0
2,54,64,1
2,49,64,0
2,42,64,0
2,54,64,1
2,49,64,0
2,42,64,0
2,54,64,1
2,49,64,0
2,42,64,0
2,54,64,1
2,49,64,0
2,42,64,0
2,54,64,1
2,49,64,0
2,42,64,0
2,57,64,1
2,52,64,0
2,45,64,0
2,57,64,1
2,52,64,0
2,45,64,0
2,64,64,1
2,59,64,0
2,52,64,0
2,64,64,1
2,59,64,0
2,52,64,0
2,71,64,1
2,64,64,0
2,59,64,0
2,71,64,1
2,64,64,0
2,59,64,0
2,64,64,1
2,59,64,0
2,52,64,0
2,57,64,1
2,52,64,0
2,45,64,0
2,57,64,1
2,52,64,0
2,45,64,0
2,64,64,1
2,59,64,0
2,52,64,0
2,64,64,1
2,59,64,0
2,52,64,0
2,71,64,1
2,64,64,0
2,59,64,0
2,71,64,1
2,64,64,0
2,59,64,0
2,64,64,1
2,59,64,0
2,52,64,0
2,62,64,1
2,57,64,0
2,50,64,0
2,62,64,1
2,57,64,0
2,50,64,0
2,62,64,1
2,57,64,0
2,50,64,0
2,62,64,1
2,57,64,0
2,50,64,0
2,64,64,1
2,59,64,0
2,52,64,0
2,64,64,1
2,59,64,0
2,52,64,0
2,64,64,1
2,59,64,0
2,52,64,0
2,64,64,1
2,59,64,0
2,52,64,0
2,57,64,1
2,52,64,0
2,45,64,0
2,57,64,1
2,52,64,0
2,45,64,0
2,57,64,1
2,52,64,0
2,45,64,0
2,57,64,1
2,52,64,0
2,45,64,0
2,57,64,1
2,52,64,0
2,45,64,0
2,57,64,1
2,52,64,0
2,45,64,0
2,57,64,1
2,52,64,0
2,45,64,0
2,64,64,1
2,59,64,0
2,52,64,0
2,64,64,1
2,59,64,0
2,52,64,0
2,64,64,1
2,59,64,0
2,52,64,0
2,64,64,1
2,59,64,0
2,52,64,0
2,64,64,1
2,59,64,0
2,52,64,0
2,64,64,1
2,59,64,0
2,52,64,0
2,64,64,1
2,59,64,0
2,52,64,0
2,62,64,1
2,57,64,0
2,50,64,0
2,62,64,1
2,57,64,0
2,50,64,0
2,62,64,1
2,57,64,0
2,50,64,0
2,62,64,1
2,57,64,0
2,50,64,0
2,62,64,1
2,57,64,0
2,50,64,0
2,62,64,1
2,57,64,0
2,50,64,0
2,62,64,1
2,57,64,0
2,50,64,0
2,57,64,1
2,52,64,0
2,45,64,0
2,57,64,1
2,52,64,0
2,45,64,0
2,57,64,1
2,52,64,0
2,45,64,0
2,64,64,1
2,59,64,0
2,52,64,0
2,64,64,1
2,59,64,0
2,52,64,0
2,64,64,1
2,59,64,0
2,52,64,0
2,64,64,1
2,59,64,0
2,52,64,0
2,57,64,1
2,52,64,0
2,45,64,0
2,57,64,1
2,52,64,0
2,45,64,0
2,57,64,1
2,52,64,0
2,45,64,0
2,57,64,1
2,52,64,0
2,45,64,0
2,57,64,1
2,52,64,0
2,45,64,0
2,57,64,1
2,52,64,0
2,45,64,0
2,57,64,1
2,52,64,0
2,45,64,0
2,64,64,1
2,59,64,0
2,52,64,0
2,64,64,1
2,59,64,0
2,52,64,0
2,64,64,1
2,59,64,0
2,52,64,0
2,64,64,1
2,59,64,0
2,52,64,0
2,64,64,1
2,59,64,0
2,52,64,0
2,64,64,1
2,59,64,0
2,52,64,0
2,64,64,1
2,59,64,0
2,52,64,0
2,62,64,1
2,57,64,0
2,50,64,0
2,62,64,1
2,57,64,0
2,50,64,0
2,62,64,1
2,57,64,0
2,50,64,0
2,62,64,1
2,57,64,0
2,50,64,0
2,62,64,1
2,57,64,0
2,50,64,0
2,62,64,1
2,57,64,0
2,50,64,0
2,62,64,1
2,57,64,0
2,50,64,0
2,57,64,1
2,52,64,0
2,45,64,0
2,57,64,1
2,52,64,0
2,45,64,0
2,57,64,1
2,52,64,0
2,45,64,0
2,64,64,1
2,59,64,0
2,52,64,0
2,64,64,1
2,59,64,0
2,52,64,0
2,64,64,1
2,59,64,0
2,52,64,0
2,64,64,1
2,59,64,0
2,52,64,0
2,54,64,1
2,49,64,0
2,42,64,0
2,54,64,1
2,49,64,0
2,42,64,0
2,54,64,1
2,49,64,0
2,42,64,0
2,54,64,1
2,49,64,0
2,42,64,0
2,54,64,1
2,49,64,0
2,42,64,0
2,54,64,1
2,49,64,0
2,42,64,0
2,54,64,1
2,49,64,0
2,42,64,0
2,57,64,1
2,52,64,0
2,45,64,0
2,57,64,1
2,52,64,0
2,45,64,0
2,57,64,1
2,52,64,0
2,45,64,0
2,57,64,1
2,52,64,0
2,45,64,0
2,57,64,1
2,52,64,0
2,45,64,0
2,57,64,1
2,52,64,0
2,45,64,0
2,57,64,1
2,52,64,0
2,45,64,0
2,54,64,1
2,49,64,0
2,42,64,0
2,54,64,1
2,49,64,0
2,42,64,0
2,54,64,1
2,49,64,0
2,42,64,0
2,54,64,1
2,49,64,0
2,42,64,0
2,54,64,1
2,49,64,0
2,42,64,0
2,54,64,1
2,49,64,0
2,42,64,0
2,54,64,1
2,49,64,0
2,42,64,0
2,57,64,1
2,52,64,0
2,45,64,0
2,57,64,1
2,52,64,0
2,45,64,0
2,57,64,1
2,52,64,0
2,45,64,0
2,64,64,1
2,59,64,0
2,52,64,0
2,64,64,1
2,59,64,0
2,52,64,0
2,64,64,1
2,59,64,0
2,52,64,0
2,64,64,1
2,59,64,0
2,52,64,0
2,54,64,1
2,49,64,0
2,42,64,0
2,54,64,1
2,49,64,0
2,42,64,0
2,54,64,1
2,49,64,0
2,42,64,0
2,54,64,1
2,49,64,0
2,42,64,0
2,54,64,1
2,49,64,0
2,42,64,0
2,54,64,1
2,49,64,0
2,42,64,0
2,54,64,1
2,49,64,0
2,42,64,0
2,57,64,1
2,52,64,0
2,45,64,0
2,57,64,1
2,52,64,0
2,45,64,0
2,57,64,1
2,52,64,0
2,45,64,0
2,57,64,1
2,52,64,0
2,45,64,0
2,57,64,1
2,52,64,0
2,45,64,0
2,57,64,1
2,52,64,0
2,45,64,0
2,57,64,1
2,52,64,0
2,45,64,0
2,54,64,1
2,49,64,0
2,42,64,0
2,54,64,1
2,49,64,0
2,42,64,0
2,54,64,1
2,49,64,0
2,42,64,0
2,54,64,1
2,49,64,0
2,42,64,0
2,54,64,1
2,49,64,0
2,42,64,0
2,54,64,1
2,49,64,0
2,42,64,0
2,54,64,1
2,49,64,0
2,42,64,0
2,57,64,1
2,52,64,0
2,45,64,0
2,57,64,1
2,52,64,0
2,45,64,0
2,64,64,1
2,59,64,0
2,52,64,0
2,64,64,1
2,59,64,0
2,52,64,0
2,71,64,1
