track,note,velocity,time
0,41,118,300
0,40,100,0
0,40,0,29
0,41,0,0
0,40,118,31
0,41,118,0
0,41,0,29
0,40,0,0
0,40,100,31
0,41,100,0
0,41,0,29
0,40,0,0
0,36,109,31
0,49,127,0
0,36,0,29
0,49,0,0
0,36,118,31
0,42,109,0
0,36,0,29
0,42,0,0
0,40,127,31
0,42,118,0
0,40,0,29
0,42,0,0
0,42,109,31
0,42,0,29
0,36,118,31
0,42,118,0
0,36,0,29
0,42,0,0
0,36,109,31
0,42,118,0
0,36,0,29
0,42,0,0
0,40,109,31
0,42,118,0
0,40,0,29
0,42,0,0
0,42,100,31
0,42,0,29
0,36,109,31
0,42,109,0
0,36,0,29
0,42,0,0
0,36,118,31
0,42,91,0
0,36,0,29
0,42,0,0
0,40,100,31
0,42,118,0
0,40,0,29
0,42,0,0
0,42,100,31
0,42,0,29
0,36,100,31
0,42,118,0
0,36,0,29
0,42,0,0
0,36,118,31
0,42,109,0
0,36,0,29
0,42,0,0
0,40,109,31
0,42,118,0
0,40,0,29
0,42,0,0
0,46,109,31
0,46,0,29
0,36,109,31
0,36,0,29
0,36,118,31
0,42,109,0
0,36,0,29
0,42,0,0
0,40,127,31
0,42,118,0
0,40,0,29
0,42,0,0
0,42,109,31
0,42,0,29
0,36,118,31
0,42,118,0
0,36,0,29
0,42,0,0
0,36,109,31
0,42,118,0
0,36,0,29
0,42,0,0
0,40,109,31
0,42,118,0
0,40,0,29
0,42,0,0
0,42,100,31
0,42,0,29
0,36,109,31
0,42,109,0
0,36,0,29
0,42,0,0
0,36,118,31
0,42,91,0
0,36,0,29
0,42,0,0
0,40,100,31
0,42,118,0
0,40,0,29
0,42,0,0
0,42,100,31
0,42,0,29
0,36,100,31
0,42,118,0
0,36,0,29
0,42,0,0
0,36,118,31
0,42,109,0
0,36,0,29
0,42,0,0
0,40,109,31
0,42,118,0
0,40,0,29
0,42,0,0
0,46,109,31
0,46,0,29
0,36,109,31
0,36,0,29
0,36,118,31
0,42,109,0
0,36,0,29
0,42,0,0
0,40,127,31
0,42,118,0
0,40,0,29
0,42,0,0
0,42,109,31
0,42,0,29
0,36,118,31
0,42,118,0
0,36,0,29
0,42,0,0
0,36,109,31
0,42,118,0
0,36,0,29
0,42,0,0
0,40,109,31
0,42,118,0
0,40,0,29
0,42,0,0
0,42,100,31
0,42,0,29
0,36,109,31
0,42,109,0
0,36,0,29
0,42,0,0
0,36,118,31
0,42,91,0
0,36,0,29
0,42,0,0
0,40,100,31
0,42,118,0
0,40,0,29
0,42,0,0
0,42,100,31
0,42,0,29
0,36,100,31
0,42,118,0
0,36,0,29
0,42,0,0
0,36,118,31
0,42,109,0
0,36,0,29
0,42,0,0
0,40,109,31
0,42,118,0
0,40,0,29
0,42,0,0
0,46,109,31
0,46,0,29
0,36,109,31
0,42,127,0
0,36,0,29
0,42,0,0
0,36,109,31
0,42,91,0
0,36,0,29
0,42,0,0
0,40,100,31
0,42,127,0
0,40,0,29
0,42,0,0
0,42,109,31
0,42,0,29
0,36,109,31
0,42,127,0
0,36,0,29
0,42,0,0
0,36,118,31
0,42,118,0
0,36,0,29
0,42,0,0
0,40,118,31
0,42,118,0
0,40,0,29
0,42,0,0
0,42,118,31
0,42,0,29
0,36,118,31
0,42,127,0
0,36,0,29
0,42,0,0
0,36,118,31
0,42,118,0
0,36,0,29
0,42,0,0
0,40,109,31
0,42,118,0
0,40,0,29
0,42,0,0
0,42,127,31
0,42,0,29
0,36,118,31
0,42,127,0
0,36,0,29
0,42,0,0
0,40,109,31
0,41,118,0
0,40,0,29
0,41,0,0
0,36,118,31
0,36,0,29
0,40,118,31
0,41,118,0
0,40,0,29
0,41,0,0
0,36,109,31
0,49,127,0
0,36,0,29
0,49,0,0
0,36,118,31
0,42,109,0
0,36,0,29
0,42,0,0
0,40,127,31
0,42,118,0
0,40,0,29
0,42,0,0
0,42,109,31
0,42,0,29
0,36,118,31
0,42,118,0
0,36,0,29
0,42,0,0
0,36,109,31
0,42,118,0
0,36,0,29
0,42,0,0
0,40,109,31
0,42,118,0
0,40,0,29
0,42,0,0
0,42,100,31
0,42,0,29
0,36,109,31
0,42,109,0
0,36,0,29
0,42,0,0
0,36,118,31
0,42,91,0
0,36,0,29
0,42,0,0
0,40,100,31
0,42,118,0
0,40,0,29
0,42,0,0
0,42,100,31
0,42,0,29
0,36,100,31
0,42,118,0
0,36,0,29
0,42,0,0
0,36,118,31
0,42,109,0
0,36,0,29
0,42,0,0
0,40,109,31
0,42,118,0
0,40,0,29
0,42,0,0
0,46,109,31
0,46,0,29
0,36,109,31
0,36,0,29
0,36,118,31
0,42,109,0
0,36,0,29
0,42,0,0
0,40,127,31
0,42,118,0
0,40,0,29
0,42,0,0
0,42,109,31
0,42,0,29
0,36,118,31
0,42,118,0
0,36,0,29
0,42,0,0
0,36,109,31
0,42,118,0
0,36,0,29
0,42,0,0
0,40,109,31
0,42,118,0
0,40,0,29
0,42,0,0
0,42,100,31
0,42,0,29
0,36,109,31
0,42,109,0
0,36,0,29
0,42,0,0
0,36,118,31
0,42,91,0
0,36,0,29
0,42,0,0
0,40,100,31
0,42,118,0
0,40,0,29
0,42,0,0
0,42,100,31
0,42,0,29
0,36,100,31
0,42,118,0
0,36,0,29
0,42,0,0
0,36,118,31
0,42,109,0
0,36,0,29
0,42,0,0
0,40,109,31
0,42,118,0
0,40,0,29
0,42,0,0
0,46,109,31
0,46,0,29
0,36,109,31
0,36,0,29
0,36,118,31
0,42,109,0
0,36,0,29
0,42,0,0
0,40,127,31
0,42,118,0
0,40,0,29
0,42,0,0
0,42,109,31
0,42,0,29
0,36,118,31
0,42,118,0
0,36,0,29
0,42,0,0
0,36,109,31
0,42,118,0
0,36,0,29
0,42,0,0
0,40,109,31
0,42,118,0
0,40,0,29
0,42,0,0
0,42,100,31
0,42,0,29
0,36,109,31
0,42,109,0
0,36,0,29
0,42,0,0
0,36,118,31
0,42,91,0
0,36,0,29
0,42,0,0
0,40,100,31
0,42,118,0
0,40,0,29
0,42,0,0
0,42,100,31
0,42,0,29
0,36,100,31
0,42,118,0
0,36,0,29
0,42,0,0
0,36,118,31
0,42,109,0
0,36,0,29
0,42,0,0
0,40,109,31
0,42,118,0
0,40,0,29
0,42,0,0
0,46,109,31
0,46,0,29
0,36,109,31
0,36,0,29
0,36,118,31
0,42,109,0
0,36,0,29
0,42,0,0
0,40,127,31
0,42,118,0
0,40,0,29
0,42,0,0
0,42,109,31
0,42,0,29
0,36,118,31
0,42,118,0
0,36,0,29
0,42,0,0
0,36,109,31
0,42,118,0
0,36,0,29
0,42,0,0
0,40,109,31
0,42,118,0
0,40,0,29
0,42,0,0
0,42,100,31
0,42,0,29
0,36,109,31
0,42,109,0
0,36,0,29
0,42,0,0
0,36,118,31
0,42,91,0
0,36,0,29
0,42,0,0
0,40,100,31
0,42,118,0
0,40,0,29
0,42,0,0
0,42,100,31
0,42,0,29
0,36,100,31
0,42,118,0
0,36,0,29
0,42,0,0
0,36,118,31
0,42,109,0
0,36,0,29
0,42,0,0
0,40,109,31
0,42,118,0
0,40,0,29
0,42,0,0
0,46,109,31
0,46,0,29
0,36,109,31
0,36,0,29
0,36,118,31
0,42,109,0
0,36,0,29
0,42,0,0
0,40,127,31
0,42,118,0
0,40,0,29
0,42,0,0
0,42,109,31
0,42,0,29
0,36,118,31
0,42,118,0
0,36,0,29
0,42,0,0
0,36,109,31
0,42,118,0
0,36,0,29
0,42,0,0
0,40,109,31
0,42,118,0
0,40,0,29
0,42,0,0
0,42,100,31
0,42,0,29
0,36,109,31
0,42,109,0
0,36,0,29
0,42,0,0
0,36,118,31
0,42,91,0
0,36,0,29
0,42,0,0
0,40,100,31
0,42,118,0
0,40,0,29
0,42,0,0
0,42,100,31
0,42,0,29
0,36,100,31
0,42,118,0
0,36,0,29
0,42,0,0
0,36,118,31
0,42,109,0
0,36,0,29
0,42,0,0
0,40,109,31
0,42,118,0
0,40,0,29
0,42,0,0
0,46,109,31
0,46,0,29
0,36,109,31
0,36,0,29
0,36,118,31
0,42,109,0
0,36,0,29
0,42,0,0
0,40,127,31
0,42,118,0
0,40,0,29
0,42,0,0
0,42,109,31
0,42,0,29
0,36,118,31
0,42,118,0
0,36,0,29
0,42,0,0
0,36,109,31
0,42,118,0
0,36,0,29
0,42,0,0
0,40,109,31
0,42,118,0
0,40,0,29
0,42,0,0
0,42,100,31
0,42,0,29
0,36,109,31
0,42,109,0
0,36,0,29
0,42,0,0
0,36,118,31
0,42,91,0
0,36,0,29
0,42,0,0
0,40,100,31
0,42,118,0
0,40,0,29
0,42,0,0
0,42,100,31
0,42,0,29
0,36,100,31
0,42,118,0
0,36,0,29
0,42,0,0
0,36,118,31
0,42,109,0
0,36,0,29
0,42,0,0
0,40,109,31
0,42,118,0
0,40,0,29
0,42,0,0
0,46,109,31
0,46,0,29
0,36,109,31
0,36,0,29
0,36,118,31
0,42,109,0
0,36,0,29
0,42,0,0
0,40,127,31
0,42,118,0
0,40,0,29
0,42,0,0
0,42,109,31
0,42,0,29
0,36,118,31
0,42,118,0
0,36,0,29
0,42,0,0
0,36,109,31
0,42,118,0
0,36,0,29
0,42,0,0
0,40,109,31
0,42,118,0
0,40,0,29
0,42,0,0
0,42,100,31
0,42,0,29
0,36,109,31
0,42,109,0
0,36,0,29
0,42,0,0
0,36,118,31
0,42,91,0
0,36,0,29
0,42,0,0
0,40,100,31
0,42,118,0
0,40,0,29
0,42,0,0
0,42,100,31
0,42,0,29
0,36,100,31
0,42,118,0
0,36,0,29
0,42,0,0
0,36,118,31
0,42,109,0
0,36,0,29
0,42,0,0
0,40,109,31
0,42,118,0
0,40,0,29
0,42,0,0
0,46,109,31
0,46,0,29
0,36,109,31
0,42,118,0
0,36,0,29
0,42,0,0
0,36,118,31
0,42,109,0
0,36,0,29
0,42,0,0
0,38,109,31
0,42,127,0
0,42,0,29
0,42,118,31
0,42,0,29
0,38,0,1
0,36,118,30
0,42,118,0
0,36,0,29
0,42,0,0
0,36,118,31
0,42,109,0
0,36,0,29
0,42,0,0
0,38,118,31
0,42,109,0
0,42,0,29
0,38,0,31
0,46,100,0
0,46,0,29
0,36,118,31
0,49,118,0
0,41,60,0
0,38,82,0
0,49,0,29
0,38,0,0
0,41,0,0
0,36,0,31
0,41,91,0
0,38,100,0
0,38,0,29
0,41,0,0
0,36,118,31
0,38,91,0
0,41,91,0
0,41,0,29
0,38,0,0
0,36,0,31
0,38,109,0
0,41,118,0
0,41,0,29
0,38,0,0
0,36,127,31
0,41,118,0
0,38,100,0
0,38,0,29
0,41,0,0
0,36,0,31
0,38,118,0
0,41,109,0
0,41,0,29
0,38,0,0
0,36,109,31
0,38,109,0
0,41,109,0
0,36,0,29
0,41,0,0
0,38,0,0
0,38,118,31
0,41,118,0
0,41,0,29
0,38,0,0
0,36,100,31
0,42,100,0
0,49,118,0
0,42,0,29
0,36,0,30
0,36,109,1
0,42,91,0
0,49,0,0
0,42,0,29
0,36,0,30
0,40,109,1
0,42,100,0
0,42,0,29
0,40,0,30
0,42,91,1
0,42,0,29
0,36,118,31
0,42,100,0
0,42,0,29
0,36,0,30
0,36,118,1
0,42,100,0
0,42,0,29
0,36,0,30
0,40,127,1
0,42,109,0
0,42,0,29
0,40,0,30
0,42,109,1
0,42,0,29
0,36,118,31
0,42,109,0
0,36,0,59
0,42,0,0
0,36,118,1
0,42,100,0
0,36,0,59
0,42,0,0
0,40,118,1
0,42,109,0
0,40,0,59
0,42,0,0
0,42,109,1
0,42,0,59
0,36,118,1
0,42,127,0
0,36,0,59
0,42,0,0
0,40,109,1
0,41,100,0
0,41,0,59
0,40,0,0
0,40,109,1
0,41,100,0
0,41,0,59
0,40,0,0
0,40,109,1
0,41,118,0
0,41,0,59
0,40,0,0
0,36,118,1
0,46,82,0
0,49,118,0
0,36,0,29
0,46,0,0
0,49,0,0
0,36,109,31
0,36,0,29
0,40,118,31
0,42,118,0
0,40,0,29
0,42,0,0
0,42,109,31
0,42,0,29
0,36,118,31
0,42,118,0
0,36,0,29
0,42,0,0
0,36,109,31
0,42,91,0
0,36,0,29
0,42,0,0
0,40,100,31
0,42,118,0
0,40,0,29
0,42,0,0
0,42,91,31
0,42,0,29
0,36,109,31
0,42,109,0
0,36,0,29
0,42,0,0
0,36,118,31
0,42,91,0
0,36,0,29
0,42,0,0
0,40,118,31
0,42,109,0
0,40,0,29
0,42,0,0
0,42,91,31
0,42,0,29
0,36,118,31
0,42,127,0
0,36,0,29
0,42,0,0
0,40,91,31
0,40,0,29
0,40,109,1
0,40,0,29
0,40,91,1
0,40,0,29
0,40,118,1
0,40,0,29
0,40,118,1
0,40,0,29
0,40,127,1
0,40,0,29
0,36,100,1
0,42,100,0
0,49,118,0
0,42,0,29
0,36,0,30
0,36,109,1
0,42,91,0
0,49,0,0
0,42,0,29
0,36,0,30
0,40,109,1
0,42,100,0
0,42,0,29
0,40,0,30
0,42,91,1
0,42,0,29
0,36,118,31
0,42,100,0
0,42,0,29
0,36,0,30
0,36,118,1
0,42,100,0
0,42,0,29
0,36,0,30
0,40,127,1
0,42,109,0
0,42,0,29
0,40,0,30
0,42,109,1
0,42,0,29
0,36,118,31
0,42,109,0
0,36,0,59
0,42,0,0
0,36,118,1
0,42,100,0
0,36,0,59
0,42,0,0
0,40,118,1
0,42,109,0
0,40,0,59
0,42,0,0
0,42,109,1
0,42,0,59
0,36,118,1
0,42,127,0
0,36,0,59
0,42,0,0
0,40,109,1
0,41,100,0
0,41,0,59
0,40,0,0
0,40,109,1
0,41,100,0
0,41,0,59
0,40,0,0
0,40,109,1
0,41,118,0
0,41,0,59
0,40,0,0
0,36,109,1
0,42,109,0
0,49,109,0
0,36,0,29
0,42,0,0
0,49,0,0
0,36,109,31
0,42,91,0
0,36,0,29
0,42,0,0
0,40,100,31
0,42,118,0
0,42,0,29
0,40,0,31
0,42,91,0
0,42,0,29
0,36,109,31
0,42,109,0
0,36,0,29
0,42,0,0
0,36,118,31
0,42,91,0
0,36,0,29
0,42,0,0
0,40,127,31
0,42,109,0
0,40,0,29
0,42,0,0
0,42,91,31
0,42,0,29
0,36,109,31
0,42,109,0
0,36,0,29
0,42,0,0
0,36,109,31
0,42,82,0
0,36,0,29
0,42,0,0
0,40,127,31
0,42,100,0
0,42,0,29
0,40,0,31
0,42,100,0
0,42,0,29
0,36,109,31
0,42,109,0
0,36,0,29
0,42,0,0
0,40,118,31
0,40,0,29
0,40,118,1
0,40,0,29
0,45,100,1
0,45,0,29
0,43,118,1
0,43,0,29
0,43,100,1
0,43,0,29
0,41,109,1
0,41,0,29
0,43,100,1
0,41,91,0
0,49,127,0
0,36,118,0
0,78,81,0
0,78,0,0
0,78,81,14
0,41,0,15
0,43,0,0
0,49,0,0
0,36,0,0
0,43,91,31
0,41,109,0
0,36,118,0
0,40,91,17
0,38,118,0
0,36,0,0
0,43,82,0
0,41,73,0
0,43,109,31
0,36,118,0
0,41,109,1
0,41,73,1
0,36,100,0
0,41,0,29
0,36,0,0
0,43,40,1
0,40,118,1
0,40,127,7
0,36,91,0
0,43,82,0
0,36,0,0
0,43,91,31
0,41,118,0
0,36,109,0
0,40,127,8
0,36,0,0
0,43,82,0
0,41,64,0
0,36,109,0
0,43,118,23
0,41,109,0
0,36,118,0
0,43,73,5
0,41,64,0
0,36,0,0
0,40,127,9
0,40,0,29
0,40,127,31
0,36,109,0
0,36,0,29
0,40,0,31
0,43,109,0
0,41,109,0
0,36,109,0
0,49,127,4
0,45,109,5
0,52,127,0
0,41,0,20
0,43,0,0
0,49,0,4
0,43,91,27
0,41,109,0
0,36,0,0
0,41,0,29
0,43,0,0
0,40,127,1
0,43,91,0
0,41,109,0
0,36,100,0
0,43,91,8
0,41,109,0
0,36,118,0
0,40,127,10
0,40,127,1
0,43,109,0
0,41,100,0
0,36,109,0
0,41,56,2
0,43,1,0
