track,note,velocity,time
1,49,110,1728
1,49,0,94
1,46,110,2
1,46,0,94
1,46,110,2
1,46,0,94
1,46,110,2
1,46,0,94
1,46,110,2
1,46,0,94
1,46,110,2
1,46,0,94
1,46,110,2
1,46,0,94
1,46,110,2
1,46,0,94
1,46,110,2
1,46,0,94
1,46,110,2
1,46,0,94
1,46,110,2
1,46,0,94
1,46,110,2
1,46,0,94
1,46,110,2
1,46,0,94
1,46,110,2
1,46,0,94
1,46,110,2
1,46,0,94
1,46,110,2
1,46,0,94
1,49,110,2
1,49,0,94
1,49,110,2
1,49,0,94
1,46,110,2
1,46,0,94
1,46,110,2
1,46,0,94
1,46,110,2
1,46,0,94
1,46,110,2
1,46,0,94
1,46,110,2
1,46,0,94
1,46,110,2
1,46,0,94
1,46,110,2
1,46,0,94
1,46,110,2
1,46,0,94
1,46,110,2
1,46,0,94
1,46,110,2
1,46,0,94
1,46,110,2
1,46,0,94
1,46,110,2
1,46,0,94
1,46,110,2
1,46,0,94
1,46,110,2
1,46,0,94
1,46,110,2
1,46,0,94
1,46,110,2
1,46,0,94
1,46,110,2
1,46,0,94
1,46,110,2
1,46,0,94
1,46,110,2
1,46,0,94
1,46,110,2
1,46,0,94
1,46,110,2
1,46,0,94
1,46,110,2
1,46,0,94
1,46,110,2
1,46,0,94
1,46,110,2
1,46,0,94
1,46,110,2
1,46,0,94
1,46,110,2
1,46,0,94
1,46,110,2
1,46,0,94
1,46,110,2
1,46,0,94
1,46,110,2
1,46,0,94
1,46,110,2
1,46,0,94
1,49,110,2
1,49,0,94
1,49,110,2
1,49,0,94
1,46,110,2
1,46,0,94
1,46,110,2
1,46,0,94
1,46,110,2
1,46,0,94
1,46,110,2
1,46,0,94
1,46,110,2
1,46,0,94
1,46,110,2
1,46,0,94
1,46,110,2
1,46,0,94
1,46,110,2
1,46,0,94
1,46,110,2
1,46,0,94
1,46,110,2
1,46,0,94
1,46,110,2
1,46,0,94
1,46,110,2
1,46,0,94
1,46,110,2
1,46,0,94
1,46,110,2
1,46,0,94
1,46,110,2
1,46,0,94
1,46,110,2
1,46,0,94
1,46,110,2
1,46,0,94
1,46,110,2
1,46,0,94
1,46,110,2
1,46,0,94
1,46,110,2
1,46,0,94
1,46,110,2
1,46,0,94
1,46,110,2
1,46,0,94
1,49,110,2
1,49,0,94
1,46,110,2
1,46,0,94
1,46,110,2
1,46,0,94
1,46,110,2
1,46,0,94
1,49,110,2
1,49,0,94
1,47,110,194
1,47,0,22
1,47,110,2
1,47,0,22
1,45,110,2
1,45,0,22
1,45,110,2
1,45,0,22
1,49,110,2
1,49,0,94
1,53,110,2
1,53,0,94
1,53,110,2
1,53,0,94
1,53,110,2
1,53,0,94
1,53,110,2
1,53,0,94
1,53,110,2
1,53,0,94
1,53,110,2
1,53,0,94
1,53,110,2
1,53,0,94
1,49,110,2
1,49,0,94
1,53,110,2
1,53,0,94
1,53,110,2
1,53,0,94
1,53,110,2
1,53,0,94
1,53,110,2
1,53,0,94
1,53,110,2
1,53,0,94
1,53,110,2
1,53,0,94
1,53,110,2
1,53,0,94
1,49,110,2
1,49,0,94
1,49,110,2
1,49,0,94
1,53,110,2
1,53,0,94
1,53,110,2
1,53,0,94
1,53,110,2
1,53,0,94
1,53,110,2
1,53,0,94
1,53,110,2
1,53,0,94
1,53,110,2
1,53,0,94
1,49,110,2
1,49,0,94
1,49,110,2
1,49,0,94
1,53,110,2
1,53,0,94
1,53,110,2
1,53,0,94
1,53,110,2
1,53,0,94
1,53,110,2
1,53,0,94
1,53,110,2
1,53,0,94
1,53,110,2
1,53,0,94
1,49,110,2
1,49,0,94
1,53,110,2
1,53,0,94
1,53,110,2
1,53,0,94
1,53,110,2
1,53,0,94
1,53,110,2
1,53,0,94
1,53,110,2
1,53,0,94
1,53,110,2
1,53,0,94
1,53,110,2
1,53,0,94
1,49,110,2
1,49,0,94
1,53,110,2
1,53,0,94
1,53,110,2
1,53,0,94
1,53,110,2
1,53,0,94
1,53,110,2
1,53,0,94
1,53,110,2
1,53,0,94
1,53,110,2
1,53,0,94
1,53,110,2
1,53,0,94
1,49,110,2
1,49,0,94
1,53,110,2
1,53,0,94
1,53,110,2
1,53,0,94
1,53,110,2
1,53,0,94
1,49,110,2
1,49,0,94
1,53,110,2
1,53,0,94
1,53,110,2
1,53,0,94
1,53,110,2
1,53,0,94
1,49,110,2
1,49,0,94
1,46,110,2
1,46,0,94
1,46,110,2
1,46,0,94
1,46,110,2
1,46,0,94
1,47,110,290
1,47,0,22
1,47,110,2
1,47,0,22
1,45,110,2
1,45,0,22
1,45,110,2
1,45,0,22
1,49,110,2
1,49,0,94
1,46,110,2
1,46,0,94
1,46,110,2
1,46,0,94
1,46,110,2
1,46,0,94
1,46,110,2
1,46,0,94
1,46,110,2
1,46,0,94
1,46,110,2
1,46,0,94
1,46,110,2
1,46,0,94
1,46,110,2
1,46,0,94
1,46,110,2
1,46,0,94
1,46,110,2
1,46,0,94
1,46,110,2
1,46,0,94
1,46,110,2
1,46,0,94
1,46,110,2
1,46,0,94
1,46,110,2
1,46,0,94
1,46,110,2
1,46,0,94
1,49,110,2
1,49,0,94
1,49,110,2
1,49,0,94
1,46,110,2
1,46,0,94
1,46,110,2
1,46,0,94
1,46,110,2
1,46,0,94
1,46,110,2
1,46,0,94
1,46,110,2
1,46,0,94
1,46,110,2
1,46,0,94
1,46,110,2
1,46,0,94
1,46,110,2
1,46,0,94
1,46,110,2
1,46,0,94
1,46,110,2
1,46,0,94
1,46,110,2
1,46,0,94
1,46,110,2
1,46,0,94
1,46,110,2
1,46,0,94
1,46,110,2
1,46,0,94
1,46,110,2
1,46,0,94
1,46,110,2
1,46,0,94
1,46,110,2
1,46,0,94
1,46,110,2
1,46,0,94
1,46,110,2
1,46,0,94
1,46,110,2
1,46,0,94
1,46,110,2
1,46,0,94
1,46,110,2
1,46,0,94
1,46,110,2
1,46,0,94
1,46,110,2
1,46,0,94
1,46,110,2
1,46,0,94
1,46,110,2
1,46,0,94
1,46,110,2
1,46,0,94
1,46,110,2
1,46,0,94
1,46,110,2
1,46,0,94
1,46,110,2
1,46,0,94
1,49,110,2
1,49,0,94
1,49,110,2
1,49,0,94
1,46,110,2
1,46,0,94
1,46,110,2
1,46,0,94
1,46,110,2
1,46,0,94
1,46,110,2
1,46,0,94
1,46,110,2
1,46,0,94
1,46,110,2
1,46,0,94
1,46,110,2
1,46,0,94
1,46,110,2
1,46,0,94
1,46,110,2
1,46,0,94
1,46,110,2
1,46,0,94
1,46,110,2
1,46,0,94
1,46,110,2
1,46,0,94
1,46,110,2
1,46,0,94
1,46,110,2
1,46,0,94
1,46,110,2
1,46,0,94
1,46,110,2
1,46,0,94
1,46,110,2
1,46,0,94
1,46,110,2
1,46,0,94
1,46,110,2
1,46,0,94
1,46,110,2
1,46,0,94
1,46,110,2
1,46,0,94
1,46,110,2
1,46,0,94
1,49,110,2
1,49,0,94
1,46,110,2
1,46,0,94
1,46,110,2
1,46,0,94
1,46,110,2
1,46,0,94
1,49,110,2
1,49,0,94
1,47,110,194
1,47,0,22
1,47,110,2
1,47,0,22
1,45,110,2
1,45,0,22
1,45,110,2
1,45,0,22
1,49,110,2
1,49,0,160
1,46,110,32
1,46,0,94
1,46,110,2
1,46,0,94
1,46,110,2
1,46,0,94
1,46,110,2
1,46,0,94
1,46,110,2
1,46,0,94
1,46,110,2
1,46,0,94
1,49,110,2
1,49,0,94
1,46,110,2
1,46,0,94
1,46,110,2
1,46,0,94
1,46,110,2
1,46,0,94
1,46,110,2
1,46,0,94
1,46,110,2
1,46,0,94
1,46,110,2
1,46,0,94
1,46,110,2
1,46,0,94
1,49,110,2
1,49,0,94
1,46,110,2
1,46,0,94
1,46,110,2
1,46,0,94
1,46,110,2
1,46,0,94
1,46,110,2
1,46,0,94
1,46,110,2
1,46,0,94
1,46,110,2
1,46,0,94
1,49,110,2
1,49,0,94
1,49,110,2
1,49,0,94
1,46,110,2
1,46,0,94
1,46,110,2
1,46,0,94
1,46,110,2
1,46,0,94
1,46,110,2
1,46,0,94
1,46,110,2
1,46,0,94
1,46,110,2
1,46,0,94
1,49,110,2
1,49,0,94
1,49,110,2
1,49,0,94
1,46,110,2
1,46,0,94
1,46,110,2
1,46,0,94
1,46,110,2
1,46,0,94
1,46,110,2
1,46,0,94
1,46,110,2
1,46,0,94
1,46,110,2
1,46,0,94
1,46,110,2
1,46,0,94
1,49,110,2
1,49,0,94
1,46,110,2
1,46,0,94
1,46,110,2
1,46,0,94
1,46,110,2
1,46,0,94
1,46,110,2
1,46,0,94
1,46,110,2
1,46,0,94
1,46,110,2
1,46,0,94
1,49,110,2
1,49,0,94
1,49,110,2
1,49,0,94
1,46,110,2
1,46,0,94
1,46,110,2
1,46,0,94
1,46,110,2
1,46,0,94
1,46,110,2
1,46,0,94
1,46,110,2
1,46,0,94
1,46,110,2
1,46,0,94
1,46,110,2
1,46,0,94
1,49,110,2
1,49,0,94
1,46,110,2
1,46,0,94
1,46,110,2
1,46,0,94
1,46,110,2
1,46,0,94
1,49,110,2
1,49,0,94
1,47,110,194
1,47,0,22
1,47,110,2
1,47,0,22
1,45,110,2
1,45,0,22
1,45,110,2
1,45,0,22
1,49,110,2
1,49,0,94
1,46,110,2
1,46,0,94
1,46,110,2
1,46,0,94
1,46,110,2
1,46,0,94
1,46,110,2
1,46,0,94
1,46,110,2
1,46,0,94
1,46,110,2
1,46,0,94
1,46,110,2
1,46,0,94
1,46,110,2
1,46,0,94
1,46,110,2
1,46,0,94
1,46,110,2
1,46,0,94
1,46,110,2
1,46,0,94
1,46,110,2
1,46,0,94
1,46,110,2
1,46,0,94
1,46,110,2
1,46,0,94
1,46,110,2
1,46,0,94
1,49,110,2
1,49,0,94
1,46,110,2
1,46,0,94
1,46,110,2
1,46,0,94
1,46,110,2
1,46,0,94
1,49,110,2
1,49,0,94
1,47,110,194
1,47,0,22
1,47,110,2
1,47,0,22
1,45,110,2
1,45,0,22
1,45,110,2
1,45,0,22
1,49,110,2
1,49,0,94
1,46,110,2
1,46,0,94
1,46,110,2
1,46,0,94
1,46,110,2
1,46,0,94
1,46,110,2
1,46,0,94
1,46,110,2
1,46,0,94
1,46,110,2
1,46,0,94
1,46,110,2
1,46,0,94
1,46,110,2
1,46,0,94
1,46,110,2
1,46,0,94
1,46,110,2
1,46,0,94
1,46,110,2
1,46,0,94
1,46,110,2
1,46,0,94
1,46,110,2
1,46,0,94
1,46,110,2
1,46,0,94
1,46,110,2
1,46,0,94
1,49,110,2
1,49,0,94
1,46,110,2
1,46,0,94
1,46,110,2
1,46,0,94
1,46,110,2
1,46,0,94
1,46,110,2
1,46,0,94
1,46,110,2
1,46,0,94
1,46,110,2
1,46,0,94
1,46,110,2
1,46,0,94
1,46,110,2
1,46,0,94
1,46,110,2
1,46,0,94
1,46,110,2
1,46,0,94
1,46,110,2
1,46,0,94
1,46,110,2
1,46,0,94
1,46,110,2
1,46,0,94
1,46,110,2
1,46,0,94
1,46,110,2
1,46,0,94
1,49,110,2
1,49,0,94
1,46,110,2
1,46,0,94
1,46,110,2
1,46,0,94
1,46,110,2
1,46,0,94
1,49,110,2
1,49,0,94
1,47,110,194
1,47,0,22
1,47,110,2
1,47,0,22
1,45,110,2
1,45,0,22
1,45,110,2
1,45,0,22
1,49,110,2
1,49,0,94
1,53,110,2
1,53,0,94
1,53,110,2
1,53,0,94
1,53,110,2
1,53,0,94
1,53,110,2
1,53,0,94
1,53,110,2
1,53,0,94
1,53,110,2
1,53,0,94
1,53,110,2
1,53,0,94
1,49,110,2
1,49,0,94
1,53,110,2
1,53,0,94
1,53,110,2
1,53,0,94
1,53,110,2
1,53,0,94
1,53,110,2
1,53,0,94
1,53,110,2
1,53,0,94
1,53,110,2
1,53,0,94
1,53,110,2
1,53,0,94
1,49,110,2
1,49,0,94
1,49,110,2
1,49,0,94
1,53,110,2
1,53,0,94
1,53,110,2
1,53,0,94
1,53,110,2
1,53,0,94
1,53,110,2
1,53,0,94
1,53,110,2
1,53,0,94
1,53,110,2
1,53,0,94
1,49,110,2
1,49,0,94
1,49,110,2
1,49,0,94
1,53,110,2
1,53,0,94
1,53,110,2
1,53,0,94
1,53,110,2
1,53,0,94
1,53,110,2
1,53,0,94
1,53,110,2
1,53,0,94
1,53,110,2
1,53,0,94
1,49,110,2
1,49,0,94
1,53,110,2
1,53,0,94
1,53,110,2
1,53,0,94
1,53,110,2
1,53,0,94
1,53,110,2
1,53,0,94
1,53,110,2
1,53,0,94
1,53,110,2
1,53,0,94
1,53,110,2
1,53,0,94
1,49,110,2
1,49,0,94
1,53,110,2
1,53,0,94
1,53,110,2
1,53,0,94
1,53,110,2
1,53,0,94
1,53,110,2
1,53,0,94
1,53,110,2
1,53,0,94
1,53,110,2
1,53,0,94
1,53,110,2
1,53,0,94
1,49,110,2
1,49,0,94
1,53,110,2
1,53,0,94
1,53,110,2
1,53,0,94
1,53,110,2
1,53,0,94
1,49,110,2
1,49,0,94
1,53,110,2
1,53,0,94
1,53,110,2
1,53,0,94
1,53,110,2
1,53,0,94
1,49,110,2
1,49,0,94
1,46,110,2
1,46,0,94
1,46,110,2
1,46,0,94
1,46,110,2
1,46,0,94
1,47,110,290
1,47,0,22
1,47,110,2
1,47,0,22
1,45,110,2
1,45,0,22
1,45,110,2
1,45,0,22
1,49,110,2
1,49,0,94
1,46,110,2
1,46,0,94
1,46,110,2
1,46,0,94
1,46,110,2
1,46,0,94
1,46,110,2
1,46,0,94
1,46,110,2
1,46,0,94
1,46,110,2
1,46,0,94
1,46,110,2
1,46,0,94
1,49,110,2
1,49,0,94
1,46,110,2
1,46,0,94
1,46,110,2
1,46,0,94
1,46,110,2
1,46,0,94
1,46,110,2
1,46,0,94
1,46,110,2
1,46,0,94
1,46,110,2
1,46,0,94
1,46,110,2
1,46,0,94
1,49,110,2
1,49,0,94
1,46,110,2
1,46,0,94
1,46,110,2
1,46,0,94
1,46,110,2
1,46,0,94
1,46,110,2
1,46,0,94
1,46,110,2
1,46,0,94
1,46,110,2
1,46,0,94
1,46,110,2
1,46,0,94
1,49,110,2
1,49,0,94
1,46,110,2
1,46,0,94
1,46,110,2
1,46,0,94
1,46,110,2
1,46,0,94
1,40,110,2
1,41,110,0
1,40,0,142
1,41,0,0
1,40,110,2
1,41,110,0
1,40,0,94
1,41,0,0
1,40,110,2
1,41,110,0
1,40,0,94
1,41,0,0
1,49,110,50
1,49,0,336
2,40,110,1344
2,40,0,94
2,35,110,2
2,35,0,94
2,40,110,2
2,40,0,46
2,40,110,2
2,40,0,46
2,40,110,2
2,40,0,94
2,35,110,2
2,35,0,94
2,40,110,2
2,40,0,142
2,35,110,2
2,35,0,46
2,40,110,2
2,40,0,94
2,35,110,2
2,35,0,94
2,40,110,2
2,40,0,94
2,35,110,2
2,35,0,46
2,35,110,2
2,35,0,46
2,40,110,2
2,40,0,94
2,35,110,2
2,35,0,94
2,40,110,2
2,40,0,142
2,35,110,2
2,35,0,46
2,40,110,2
2,40,0,94
2,35,110,2
2,35,0,94
2,40,110,2
2,40,0,94
2,35,110,2
2,35,0,46
2,35,110,2
2,35,0,46
2,40,110,2
2,40,0,94
2,35,110,2
2,35,0,94
2,40,110,2
2,40,0,142
2,35,110,2
2,35,0,46
2,40,110,2
2,40,0,94
2,35,110,2
2,35,0,94
2,40,110,2
2,40,0,94
2,35,110,2
2,35,0,46
2,35,110,2
2,35,0,46
2,40,110,2
2,40,0,94
2,35,110,2
2,35,0,94
2,40,110,2
2,40,0,142
2,35,110,2
2,35,0,46
2,40,110,2
2,40,0,94
2,35,110,2
2,35,0,94
2,40,110,2
2,40,0,94
2,35,110,2
2,35,0,46
2,35,110,2
2,35,0,46
2,40,110,2
2,40,0,94
2,35,110,2
2,35,0,94
2,40,110,2
2,40,0,142
2,35,110,2
2,35,0,46
2,40,110,2
2,40,0,94
