track,note,velocity,time
1,57,127,384
1,45,127,0
1,52,127,0
1,57,127,8
1,52,127,0
1,45,127,0
1,50,127,152
1,55,127,0
1,43,127,0
1,55,127,8
1,50,127,0
1,43,127,0
1,54,127,152
1,49,127,0
1,42,127,0
1,54,127,8
1,49,127,0
1,42,127,0
1,53,127,152
1,48,127,0
1,41,127,0
1,53,127,8
1,48,127,0
1,41,127,0
1,52,127,56
1,47,127,0
1,40,127,0
1,52,127,8
1,47,127,0
1,40,127,0
1,57,127,56
1,45,127,0
1,52,127,0
1,57,127,8
1,52,127,0
1,45,127,0
1,50,127,152
1,55,127,0
1,43,127,0
1,55,127,8
1,50,127,0
1,43,127,0
1,54,127,152
1,49,127,0
1,42,127,0
1,54,127,8
1,49,127,0
1,42,127,0
1,53,127,152
1,48,127,0
1,41,127,0
1,53,127,8
1,48,127,0
1,41,127,0
1,52,127,56
1,47,127,0
1,40,127,0
1,52,127,8
1,47,127,0
1,40,127,0
1,57,127,56
1,45,127,0
1,52,127,0
1,57,127,8
1,52,127,0
1,45,127,0
1,50,127,152
1,55,127,0
1,43,127,0
1,55,127,8
1,50,127,0
1,43,127,0
1,54,127,152
1,49,127,0
1,42,127,0
1,54,127,8
1,49,127,0
1,42,127,0
1,53,127,152
1,48,127,0
1,41,127,0
1,53,127,8
1,48,127,0
1,41,127,0
1,52,127,56
1,47,127,0
1,40,127,0
1,52,127,8
1,47,127,0
1,40,127,0
1,57,127,56
1,45,127,0
1,52,127,0
1,57,127,8
1,52,127,0
1,45,127,0
1,50,127,152
1,55,127,0
1,43,127,0
1,55,127,8
1,50,127,0
1,43,127,0
1,54,127,152
1,49,127,0
1,42,127,0
1,54,127,8
1,49,127,0
1,42,127,0
1,53,127,152
1,48,127,0
1,41,127,0
1,53,127,8
1,48,127,0
1,41,127,0
1,52,127,56
1,47,127,0
1,40,127,0
1,52,127,8
1,47,127,0
1,40,127,0
1,57,127,56
1,45,127,0
1,52,127,0
1,57,127,8
1,52,127,0
1,45,127,0
1,50,127,152
1,55,127,0
1,43,127,0
1,55,127,8
1,50,127,0
1,43,127,0
1,54,127,152
1,49,127,0
1,42,127,0
1,54,127,8
1,49,127,0
1,42,127,0
1,53,127,152
1,48,127,0
1,41,127,0
1,53,127,8
1,48,127,0
1,41,127,0
1,52,127,56
1,47,127,0
1,40,127,0
1,52,127,8
1,47,127,0
1,40,127,0
1,57,127,56
1,45,127,0
1,52,127,0
1,57,127,8
1,52,127,0
1,45,127,0
1,50,127,152
1,55,127,0
1,43,127,0
1,55,127,8
1,50,127,0
1,43,127,0
1,54,127,152
1,49,127,0
1,42,127,0
1,54,127,8
1,49,127,0
1,42,127,0
1,53,127,152
1,48,127,0
1,41,127,0
1,53,127,8
1,48,127,0
1,41,127,0
1,52,127,56
1,47,127,0
1,40,127,0
1,52,127,8
1,47,127,0
1,40,127,0
1,57,127,56
1,45,127,0
1,52,127,0
1,57,127,8
1,52,127,0
1,45,127,0
1,50,127,152
1,55,127,0
1,43,127,0
1,55,127,8
1,50,127,0
1,43,127,0
1,54,127,152
1,49,127,0
1,42,127,0
1,54,127,8
1,49,127,0
1,42,127,0
1,53,127,152
1,48,127,0
1,41,127,0
1,53,127,8
1,48,127,0
1,41,127,0
1,52,127,56
1,47,127,0
1,40,127,0
1,52,127,8
1,47,127,0
1,40,127,0
1,57,127,56
1,45,127,0
1,52,127,0
1,57,127,8
1,52,127,0
1,45,127,0
1,50,127,152
1,55,127,0
1,43,127,0
1,55,127,8
1,50,127,0
1,43,127,0
1,54,127,152
1,49,127,0
1,42,127,0
1,54,127,8
1,49,127,0
1,42,127,0
1,53,127,152
1,48,127,0
1,41,127,0
1,53,127,8
1,48,127,0
1,41,127,0
1,52,127,56
1,47,127,0
1,40,127,0
1,52,127,8
1,47,127,0
1,40,127,0
1,57,127,56
1,45,127,0
1,52,127,0
1,57,127,8
1,52,127,0
1,45,127,0
1,50,127,152
1,55,127,0
1,43,127,0
1,55,127,8
1,50,127,0
1,43,127,0
1,54,127,152
1,49,127,0
1,42,127,0
1,54,127,8
1,49,127,0
1,42,127,0
1,53,127,152
1,48,127,0
1,41,127,0
1,53,127,8
1,48,127,0
1,41,127,0
1,52,127,56
1,47,127,0
1,40,127,0
1,52,127,8
1,47,127,0
1,40,127,0
1,57,127,56
1,45,127,0
1,52,127,0
1,57,127,8
1,52,127,0
1,45,127,0
1,50,127,152
1,55,127,0
1,43,127,0
1,55,127,8
1,50,127,0
1,43,127,0
1,54,127,152
1,49,127,0
1,42,127,0
1,54,127,8
1,49,127,0
1,42,127,0
1,53,127,152
1,48,127,0
1,41,127,0
1,53,127,8
1,48,127,0
1,41,127,0
1,52,127,56
1,47,127,0
1,40,127,0
1,52,127,8
1,47,127,0
1,40,127,0
1,57,127,56
1,45,127,0
1,52,127,0
1,57,127,8
1,52,127,0
1,45,127,0
1,50,127,152
1,55,127,0
1,43,127,0
1,55,127,8
1,50,127,0
1,43,127,0
1,54,127,152
1,49,127,0
1,42,127,0
1,54,127,8
1,49,127,0
1,42,127,0
1,53,127,152
1,48,127,0
1,41,127,0
1,53,127,8
1,48,127,0
1,41,127,0
1,52,127,56
1,47,127,0
1,40,127,0
1,52,127,8
1,47,127,0
1,40,127,0
1,57,127,56
1,45,127,0
1,52,127,0
1,57,127,8
1,52,127,0
1,45,127,0
1,50,127,152
1,55,127,0
1,43,127,0
1,55,127,8
1,50,127,0
1,43,127,0
1,54,127,152
1,49,127,0
1,42,127,0
1,54,127,8
1,49,127,0
1,42,127,0
1,53,127,152
1,48,127,0
1,41,127,0
1,53,127,8
1,48,127,0
1,41,127,0
1,52,127,56
1,47,127,0
1,40,127,0
1,52,127,8
1,47,127,0
1,40,127,0
1,57,127,56
1,45,127,0
1,52,127,0
1,57,127,8
1,52,127,0
1,45,127,0
1,50,127,152
1,55,127,0
1,43,127,0
1,55,127,8
1,50,127,0
1,43,127,0
1,54,127,152
1,49,127,0
1,42,127,0
1,54,127,8
1,49,127,0
1,42,127,0
1,53,127,152
1,48,127,0
1,41,127,0
1,53,127,8
1,48,127,0
1,41,127,0
1,52,127,56
1,47,127,0
1,40,127,0
1,52,127,8
1,47,127,0
1,40,127,0
1,57,127,56
1,45,127,0
1,52,127,0
1,57,127,8
1,52,127,0
1,45,127,0
1,50,127,152
1,55,127,0
1,43,127,0
1,55,127,8
1,50,127,0
1,43,127,0
1,54,127,152
1,49,127,0
1,42,127,0
1,54,127,8
1,49,127,0
1,42,127,0
1,53,127,152
1,48,127,0
1,41,127,0
1,53,127,8
1,48,127,0
1,41,127,0
1,52,127,56
1,47,127,0
1,40,127,0
1,52,127,8
1,47,127,0
1,40,127,0
1,57,127,56
1,45,127,0
1,52,127,0
1,57,127,8
1,52,127,0
1,45,127,0
1,50,127,152
1,55,127,0
1,43,127,0
1,55,127,8
1,50,127,0
1,43,127,0
1,54,127,152
1,49,127,0
1,42,127,0
1,54,127,8
1,49,127,0
1,42,127,0
1,53,127,152
1,48,127,0
1,41,127,0
1,53,127,8
1,48,127,0
1,41,127,0
1,52,127,56
1,47,127,0
1,40,127,0
1,52,127,8
1,47,127,0
1,40,127,0
1,57,127,56
1,45,127,0
1,52,127,0
1,57,127,8
1,52,127,0
1,45,127,0
1,50,127,152
1,55,127,0
1,43,127,0
1,55,127,8
1,50,127,0
1,43,127,0
1,54,127,152
1,49,127,0
1,42,127,0
1,54,127,8
1,49,127,0
1,42,127,0
1,53,127,152
1,48,127,0
1,41,127,0
1,53,127,8
1,48,127,0
1,41,127,0
1,52,127,56
1,47,127,0
1,40,127,0
1,52,127,8
1,47,127,0
1,40,127,0
1,57,127,56
1,45,127,0
1,52,127,0
1,57,127,8
1,52,127,0
1,45,127,0
1,50,127,152
1,55,127,0
1,43,127,0
1,55,127,8
1,50,127,0
1,43,127,0
1,54,127,152
1,49,127,0
1,42,127,0
1,54,127,8
1,49,127,0
1,42,127,0
1,53,127,152
1,48,127,0
1,41,127,0
1,53,127,8
1,48,127,0
1,41,127,0
1,52,127,56
1,47,127,0
1,40,127,0
1,52,127,8
1,47,127,0
1,40,127,0
1,57,127,56
1,45,127,0
1,52,127,0
1,57,127,8
1,52,127,0
1,45,127,0
1,50,127,152
1,55,127,0
1,43,127,0
1,55,127,8
1,50,127,0
1,43,127,0
1,54,127,152
1,49,127,0
1,42,127,0
1,54,127,8
1,49,127,0
1,42,127,0
1,53,127,152
1,48,127,0
1,41,127,0
1,53,127,8
1,48,127,0
1,41,127,0
1,52,127,56
1,47,127,0
1,40,127,0
1,52,127,8
1,47,127,0
1,40,127,0
1,57,127,56
1,45,127,0
1,52,127,0
1,57,127,8
1,52,127,0
1,45,127,0
1,50,127,152
1,55,127,0
1,43,127,0
1,55,127,8
1,50,127,0
1,43,127,0
1,54,127,152
1,49,127,0
1,42,127,0
1,54,127,8
1,49,127,0
1,42,127,0
1,53,127,152
1,48,127,0
1,41,127,0
1,53,127,8
1,48,127,0
1,41,127,0
1,52,127,56
1,47,127,0
1,40,127,0
1,52,127,8
1,47,127,0
1,40,127,0
1,57,127,56
1,45,127,0
1,52,127,0
1,57,127,8
1,52,127,0
1,45,127,0
1,50,127,152
1,55,127,0
1,43,127,0
1,55,127,8
1,50,127,0
1,43,127,0
1,54,127,152
1,49,127,0
1,42,127,0
1,54,127,8
1,49,127,0
1,42,127,0
1,53,127,152
1,48,127,0
1,41,127,0
1,53,127,8
1,48,127,0
1,41,127,0
1,52,127,56
1,47,127,0
1,40,127,0
1,52,127,8
1,47,127,0
1,40,127,0
1,57,127,56
1,45,127,0
1,52,127,0
1,57,127,8
1,52,127,0
1,45,127,0
1,50,127,152
1,55,127,0
1,43,127,0
1,55,127,8
1,50,127,0
1,43,127,0
1,54,127,152
1,49,127,0
1,42,127,0
1,54,127,8
1,49,127,0
1,42,127,0
1,53,127,152
1,48,127,0
1,41,127,0
1,53,127,8
1,48,127,0
1,41,127,0
1,52,127,56
1,47,127,0
1,40,127,0
1,52,127,8
1,47,127,0
1,40,127,0
1,57,127,56
1,45,127,0
1,52,127,0
1,57,127,8
1,52,127,0
1,45,127,0
1,50,127,152
1,55,127,0
1,43,127,0
1,55,127,8
1,50,127,0
1,43,127,0
1,54,127,152
1,49,127,0
1,42,127,0
1,54,127,8
1,49,127,0
1,42,127,0
1,53,127,152
1,48,127,0
1,41,127,0
1,53,127,8
1,48,127,0
1,41,127,0
1,52,127,56
1,47,127,0
1,40,127,0
1,52,127,8
1,47,127,0
1,40,127,0
1,57,127,56
1,45,127,0
1,52,127,0
1,57,127,8
1,52,127,0
1,45,127,0
1,50,127,152
1,55,127,0
1,43,127,0
1,55,127,8
1,50,127,0
1,43,127,0
1,54,127,152
1,49,127,0
1,42,127,0
1,54,127,8
1,49,127,0
1,42,127,0
1,53,127,152
1,48,127,0
1,41,127,0
1,53,127,8
1,48,127,0
1,41,127,0
1,52,127,56
1,47,127,0
1,40,127,0
1,52,127,8
1,47,127,0
1,40,127,0
1,57,127,56
1,45,127,0
1,52,127,0
1,57,127,8
1,52,127,0
1,45,127,0
1,50,127,152
1,55,127,0
1,43,127,0
1,55,127,8
1,50,127,0
1,43,127,0
1,54,127,152
1,49,127,0
1,42,127,0
1,54,127,8
1,49,127,0
1,42,127,0
1,53,127,152
1,48,127,0
1,41,127,0
1,53,127,8
1,48,127,0
1,41,127,0
1,52,127,56
1,47,127,0
1,40,127,0
1,52,127,8
1,47,127,0
1,40,127,0
1,57,127,56
1,45,127,0
1,52,127,0
1,57,127,8
1,52,127,0
1,45,127,0
1,50,127,152
1,55,127,0
1,43,127,0
1,55,127,8
1,50,127,0
1,43,127,0
1,54,127,152
1,49,127,0
1,42,127,0
1,54,127,8
1,49,127,0
1,42,127,0
1,53,127,152
1,48,127,0
1,41,127,0
1,53,127,8
1,48,127,0
1,41,127,0
1,52,127,56
1,47,127,0
1,40,127,0
1,52,127,8
1,47,127,0
1,40,127,0
1,57,127,56
1,45,127,0
1,52,127,0
1,57,127,8
1,52,127,0
1,45,127,0
1,50,127,152
1,55,127,0
1,43,127,0
1,55,127,8
1,50,127,0
1,43,127,0
1,54,127,152
1,49,127,0
1,42,127,0
1,54,127,8
1,49,127,0
1,42,127,0
1,53,127,152
1,48,127,0
1,41,127,0
1,53,127,8
1,48,127,0
1,41,127,0
1,52,127,56
1,47,127,0
1,40,127,0
1,52,127,8
1,47,127,0
1,40,127,0
1,57,127,56
1,45,127,0
1,52,127,0
1,57,127,8
1,52,127,0
1,45,127,0
1,50,127,152
1,55,127,0
1,43,127,0
1,55,127,8
1,50,127,0
1,43,127,0
1,54,127,152
1,49,127,0
1,42,127,0
1,54,127,8
1,49,127,0
1,42,127,0
1,53,127,152
1,48,127,0
1,41,127,0
1,53,127,8
1,48,127,0
1,41,127,0
1,52,127,56
1,47,127,0
1,40,127,0
1,52,127,8
1,47,127,0
1,40,127,0
1,57,127,56
1,45,127,0
1,52,127,0
1,57,127,8
1,52,127,0
1,45,127,0
1,50,127,152
1,55,127,0
1,43,127,0
1,55,127,8
1,50,127,0
1,43,127,0
1,54,127,152
1,49,127,0
1,42,127,0
1,54,127,8
1,49,127,0
1,42,127,0
1,53,127,152
1,48,127,0
1,41,127,0
1,53,127,8
1,48,127,0
1,41,127,0
1,52,127,56
1,47,127,0
1,40,127,0
1,52,127,8
1,47,127,0
1,40,127,0
1,57,127,56
1,45,127,0
1,52,127,0
1,57,127,8
1,52,127,0
1,45,127,0
1,50,127,152
1,55,127,0
1,43,127,0
1,55,127,8
1,50,127,0
1,43,127,0
1,54,127,152
1,49,127,0
1,42,127,0
1,54,127,8
1,49,127,0
1,42,127,0
1,53,127,152
1,48,127,0
1,41,127,0
1,53,127,8
1,48,127,0
1,41,127,0
1,52,127,56
1,47,127,0
1,40,127,0
1,52,127,8
1,47,127,0
1,40,127,0
1,57,127,56
1,45,127,0
1,52,127,0
1,57,127,8
1,52,127,0
1,45,127,0
1,50,127,152
1,55,127,0
1,43,127,0
1,55,127,8
1,50,127,0
1,43,127,0
1,54,127,152
1,49,127,0
1,42,127,0
1,54,127,8
1,49,127,0
1,42,127,0
1,53,127,152
1,48,127,0
1,41,127,0
1,53,127,8
1,48,127,0
1,41,127,0
1,52,127,56
1,47,127,0
1,40,127,0
1,52,127,8
1,47,127,0
1,40,127,0
1,57,127,56
1,45,127,0
1,52,127,0
1,57,127,8
1,52,127,0
1,45,127,0
2,33,127,4992
2,33,127,8
2,31,127,152
2,31,127,8
2,30,127,152
2,30,127,8
2,29,127,152
2,29,127,8
2,28,127,56
2,28,127,8
2,33,127,56
2,33,127,8
2,31,127,152
2,31,127,8
2,30,127,152
2,30,127,8
2,29,127,152
2,29,127,8
2,28,127,56
2,28,127,8
2,33,127,56
2,33,127,8
2,31,127,152
2,31,127,8
2,30,127,152
2,30,127,8
2,29,127,152
2,29,127,8
2,28,127,56
2,28,127,8
2,33,127,56
2,33,127,8
2,31,127,152
2,31,127,8
2,30,127,152
2,30,127,8
2,29,127,152
2,29,127,8
2,28,127,56
2,28,127,8
2,33,127,56
2,33,127,8
2,31,127,152
2,31,127,8
2,30,127,152
2,30,127,8
2,29,127,152
2,29,127,8
2,28,127,56
2,28,127,8
2,33,127,56
2,33,127,8
2,31,127,152
2,31,127,8
2,30,127,152
2,30,127,8
2,29,127,152
2,29,127,8
2,28,127,56
2,28,127,8
2,33,127,56
2,33,127,8
2,31,127,152
2,31,127,8
2,30,127,152
2,30,127,8
2,29,127,152
2,29,127,8
2,28,127,56
2,28,127,8
2,33,127,56
2,33,127,8
2,31,127,152
2,31,127,8
2,30,127,152
2,30,127,8
2,29,127,152
2,29,127,8
2,28,127,56
2,28,127,8
2,33,127,56
2,33,127,8
2,31,127,152
2,31,127,8
2,30,127,152
2,30,127,8
2,29,127,152
2,29,127,8
2,28,127,56
2,28,127,8
2,33,127,56
2,33,127,8
2,31,127,152
2,31,127,8
