track,note,velocity,time
1.0,57.0,110.0,4320.0
1.0,57.0,0.0,94.0
1.0,57.0,110.0,2.0
1.0,57.0,0.0,94.0
1.0,57.0,110.0,2.0
1.0,57.0,0.0,94.0
1.0,57.0,110.0,2.0
1.0,57.0,0.0,1822.0
1.0,45.0,110.0,2.0
1.0,45.0,0.0,94.0
1.0,45.0,110.0,2.0
1.0,45.0,0.0,94.0
1.0,57.0,110.0,2.0
1.0,57.0,0.0,94.0
1.0,57.0,110.0,2.0
1.0,57.0,0.0,94.0
1.0,57.0,110.0,2.0
1.0,57.0,0.0,94.0
1.0,57.0,110.0,2.0
1.0,57.0,0.0,1984.0
1.0,50.0,110.0,32.0
1.0,50.0,0.0,94.0
1.0,52.0,110.0,2.0
1.0,52.0,0.0,94.0
1.0,54.0,110.0,2.0
1.0,54.0,0.0,94.0
1.0,59.0,110.0,2.0
1.0,59.0,0.0,160.0
1.0,57.0,110.0,32.0
1.0,57.0,0.0,1630.0
1.0,57.0,110.0,2.0
1.0,57.0,0.0,94.0
1.0,57.0,110.0,2.0
1.0,57.0,0.0,94.0
1.0,57.0,110.0,2.0
1.0,57.0,0.0,94.0
1.0,57.0,110.0,2.0
1.0,57.0,0.0,94.0
1.0,57.0,110.0,2.0
1.0,57.0,0.0,94.0
1.0,57.0,110.0,2.0
1.0,57.0,0.0,1888.0
1.0,50.0,110.0,32.0
1.0,50.0,0.0,94.0
1.0,50.0,110.0,2.0
1.0,50.0,0.0,94.0
1.0,52.0,110.0,2.0
1.0,52.0,0.0,94.0
1.0,54.0,110.0,2.0
1.0,54.0,0.0,94.0
1.0,59.0,110.0,2.0
1.0,59.0,0.0,160.0
1.0,57.0,110.0,32.0
1.0,57.0,0.0,1630.0
1.0,59.0,110.0,2.0
1.0,59.0,0.0,94.0
1.0,59.0,110.0,2.0
1.0,59.0,0.0,94.0
1.0,59.0,110.0,2.0
1.0,59.0,0.0,94.0
1.0,59.0,110.0,2.0
1.0,59.0,0.0,94.0
1.0,59.0,110.0,2.0
1.0,59.0,0.0,94.0
1.0,59.0,110.0,2.0
1.0,59.0,0.0,1984.0
1.0,59.0,110.0,32.0
1.0,71.0,110.0,0.0
1.0,59.0,0.0,94.0
1.0,71.0,0.0,0.0
1.0,59.0,110.0,2.0
1.0,71.0,110.0,0.0
1.0,59.0,0.0,94.0
1.0,71.0,0.0,0.0
1.0,59.0,110.0,2.0
1.0,71.0,110.0,0.0
1.0,59.0,0.0,94.0
1.0,71.0,0.0,0.0
1.0,59.0,110.0,2.0
1.0,71.0,110.0,0.0
1.0,59.0,0.0,1984.0
1.0,71.0,0.0,0.0
1.0,59.0,110.0,32.0
1.0,71.0,110.0,0.0
1.0,59.0,0.0,94.0
1.0,71.0,0.0,0.0
1.0,59.0,110.0,2.0
1.0,71.0,110.0,0.0
1.0,59.0,0.0,94.0
1.0,71.0,0.0,0.0
1.0,59.0,110.0,2.0
1.0,71.0,110.0,0.0
1.0,59.0,0.0,94.0
1.0,71.0,0.0,0.0
1.0,59.0,110.0,2.0
1.0,71.0,110.0,0.0
1.0,59.0,0.0,1984.0
1.0,71.0,0.0,0.0
1.0,59.0,110.0,32.0
1.0,76.0,110.0,0.0
1.0,59.0,0.0,94.0
1.0,76.0,0.0,0.0
1.0,59.0,110.0,2.0
1.0,76.0,110.0,0.0
1.0,59.0,0.0,94.0
1.0,76.0,0.0,0.0
1.0,59.0,110.0,2.0
1.0,76.0,110.0,0.0
1.0,59.0,0.0,94.0
1.0,76.0,0.0,0.0
1.0,59.0,110.0,2.0
1.0,76.0,110.0,0.0
1.0,59.0,0.0,1888.0
1.0,76.0,0.0,0.0
1.0,52.0,110.0,32.0
1.0,52.0,0.0,94.0
1.0,54.0,110.0,2.0
1.0,54.0,0.0,94.0
1.0,54.0,110.0,2.0
1.0,54.0,0.0,94.0
1.0,54.0,110.0,2.0
1.0,54.0,0.0,94.0
1.0,54.0,110.0,2.0
1.0,54.0,0.0,1888.0
1.0,57.0,110.0,32.0
1.0,57.0,0.0,94.0
1.0,57.0,110.0,2.0
1.0,57.0,0.0,94.0
1.0,57.0,110.0,2.0
1.0,57.0,0.0,94.0
1.0,57.0,110.0,2.0
1.0,57.0,0.0,94.0
1.0,57.0,110.0,2.0
1.0,57.0,0.0,1888.0
1.0,50.0,110.0,32.0
1.0,50.0,0.0,94.0
1.0,50.0,110.0,2.0
1.0,50.0,0.0,94.0
1.0,52.0,110.0,2.0
1.0,52.0,0.0,94.0
1.0,54.0,110.0,2.0
1.0,54.0,0.0,94.0
1.0,54.0,110.0,2.0
1.0,54.0,0.0,1822.0
1.0,57.0,110.0,2.0
1.0,57.0,0.0,94.0
1.0,57.0,110.0,2.0
1.0,57.0,0.0,94.0
1.0,57.0,110.0,2.0
1.0,57.0,0.0,94.0
1.0,57.0,110.0,2.0
1.0,57.0,0.0,94.0
1.0,57.0,110.0,2.0
1.0,57.0,0.0,94.0
1.0,57.0,110.0,2.0
1.0,57.0,0.0,1984.0
1.0,56.0,110.0,320.0
1.0,56.0,0.0,94.0
1.0,56.0,110.0,2.0
1.0,56.0,0.0,94.0
1.0,57.0,110.0,2.0
1.0,57.0,0.0,94.0
1.0,56.0,110.0,2.0
1.0,56.0,0.0,1696.0
1.0,59.0,110.0,32.0
1.0,59.0,0.0,256.0
1.0,59.0,110.0,32.0
1.0,59.0,0.0,94.0
1.0,59.0,110.0,2.0
1.0,59.0,0.0,94.0
1.0,61.0,110.0,2.0
1.0,61.0,0.0,94.0
1.0,59.0,110.0,2.0
1.0,59.0,0.0,1534.0
1.0,59.0,110.0,2.0
1.0,59.0,0.0,94.0
1.0,59.0,110.0,2.0
1.0,59.0,0.0,94.0
1.0,59.0,110.0,2.0
1.0,59.0,0.0,94.0
1.0,59.0,110.0,2.0
1.0,59.0,0.0,94.0
1.0,59.0,110.0,2.0
1.0,59.0,0.0,94.0
1.0,59.0,110.0,2.0
1.0,59.0,0.0,1984.0
1.0,59.0,110.0,32.0
1.0,76.0,110.0,0.0
1.0,59.0,0.0,94.0
1.0,76.0,0.0,0.0
1.0,59.0,110.0,2.0
1.0,76.0,110.0,0.0
1.0,59.0,0.0,94.0
1.0,76.0,0.0,0.0
1.0,59.0,110.0,2.0
1.0,76.0,110.0,0.0
1.0,59.0,0.0,94.0
1.0,76.0,0.0,0.0
1.0,59.0,110.0,2.0
1.0,76.0,110.0,0.0
1.0,59.0,0.0,1822.0
1.0,76.0,0.0,0.0
2.0,66.0,110.0,0.0
2.0,66.0,0.0,160.0
2.0,62.0,110.0,32.0
2.0,62.0,0.0,94.0
2.0,66.0,110.0,2.0
2.0,66.0,0.0,160.0
2.0,62.0,110.0,32.0
2.0,62.0,0.0,94.0
2.0,66.0,110.0,2.0
2.0,66.0,0.0,160.0
2.0,62.0,110.0,32.0
2.0,62.0,0.0,94.0
2.0,66.0,110.0,2.0
2.0,66.0,0.0,160.0
2.0,62.0,110.0,32.0
2.0,62.0,0.0,94.0
2.0,67.0,110.0,2.0
2.0,67.0,0.0,160.0
2.0,62.0,110.0,32.0
2.0,62.0,0.0,94.0
2.0,67.0,110.0,2.0
2.0,67.0,0.0,160.0
2.0,62.0,110.0,32.0
2.0,62.0,0.0,94.0
2.0,67.0,110.0,2.0
2.0,67.0,0.0,160.0
2.0,62.0,110.0,32.0
2.0,62.0,0.0,94.0
2.0,67.0,110.0,2.0
2.0,67.0,0.0,160.0
2.0,62.0,110.0,32.0
2.0,62.0,0.0,94.0
2.0,66.0,110.0,2.0
2.0,66.0,0.0,160.0
2.0,62.0,110.0,32.0
2.0,62.0,0.0,94.0
2.0,66.0,110.0,2.0
2.0,66.0,0.0,160.0
2.0,62.0,110.0,32.0
2.0,62.0,0.0,94.0
2.0,66.0,110.0,2.0
2.0,66.0,0.0,160.0
2.0,62.0,110.0,32.0
2.0,62.0,0.0,94.0
2.0,66.0,110.0,2.0
2.0,66.0,0.0,160.0
2.0,62.0,110.0,32.0
2.0,62.0,0.0,94.0
2.0,67.0,110.0,2.0
2.0,67.0,0.0,160.0
2.0,62.0,110.0,32.0
2.0,62.0,0.0,94.0
2.0,67.0,110.0,2.0
2.0,67.0,0.0,160.0
2.0,62.0,110.0,32.0
2.0,62.0,0.0,94.0
2.0,67.0,110.0,2.0
2.0,67.0,0.0,160.0
2.0,62.0,110.0,32.0
2.0,62.0,0.0,94.0
2.0,67.0,110.0,2.0
2.0,67.0,0.0,160.0
2.0,62.0,110.0,32.0
2.0,62.0,0.0,94.0
2.0,66.0,110.0,2.0
2.0,66.0,0.0,160.0
2.0,62.0,110.0,32.0
2.0,62.0,0.0,94.0
2.0,66.0,110.0,2.0
2.0,66.0,0.0,160.0
2.0,62.0,110.0,32.0
2.0,62.0,0.0,94.0
2.0,66.0,110.0,2.0
2.0,66.0,0.0,160.0
2.0,62.0,110.0,32.0
2.0,62.0,0.0,94.0
2.0,66.0,110.0,2.0
2.0,66.0,0.0,160.0
2.0,62.0,110.0,32.0
2.0,62.0,0.0,94.0
2.0,67.0,110.0,2.0
2.0,67.0,0.0,160.0
2.0,62.0,110.0,32.0
2.0,62.0,0.0,94.0
2.0,67.0,110.0,2.0
2.0,67.0,0.0,160.0
2.0,62.0,110.0,32.0
2.0,62.0,0.0,94.0
2.0,67.0,110.0,2.0
2.0,67.0,0.0,160.0
2.0,62.0,110.0,32.0
2.0,62.0,0.0,94.0
2.0,67.0,110.0,2.0
2.0,67.0,0.0,160.0
2.0,62.0,110.0,32.0
2.0,62.0,0.0,94.0
2.0,66.0,110.0,2.0
2.0,66.0,0.0,160.0
2.0,62.0,110.0,32.0
2.0,62.0,0.0,94.0
2.0,66.0,110.0,2.0
2.0,66.0,0.0,160.0
2.0,62.0,110.0,32.0
2.0,62.0,0.0,94.0
2.0,66.0,110.0,2.0
2.0,66.0,0.0,160.0
2.0,62.0,110.0,32.0
2.0,62.0,0.0,94.0
2.0,66.0,110.0,2.0
2.0,66.0,0.0,160.0
2.0,62.0,110.0,32.0
2.0,62.0,0.0,94.0
2.0,67.0,110.0,2.0
2.0,67.0,0.0,160.0
2.0,62.0,110.0,32.0
2.0,62.0,0.0,94.0
2.0,67.0,110.0,2.0
2.0,67.0,0.0,160.0
2.0,62.0,110.0,32.0
2.0,62.0,0.0,94.0
2.0,67.0,110.0,2.0
2.0,67.0,0.0,160.0
2.0,62.0,110.0,32.0
2.0,62.0,0.0,94.0
2.0,67.0,110.0,2.0
2.0,67.0,0.0,160.0
2.0,62.0,110.0,32.0
2.0,62.0,0.0,94.0
2.0,66.0,110.0,2.0
2.0,66.0,0.0,160.0
2.0,62.0,110.0,32.0
2.0,62.0,0.0,94.0
2.0,66.0,110.0,2.0
2.0,66.0,0.0,160.0
2.0,62.0,110.0,32.0
2.0,62.0,0.0,94.0
2.0,66.0,110.0,2.0
2.0,66.0,0.0,160.0
2.0,62.0,110.0,32.0
2.0,62.0,0.0,94.0
2.0,66.0,110.0,2.0
2.0,66.0,0.0,160.0
2.0,62.0,110.0,32.0
2.0,62.0,0.0,94.0
2.0,67.0,110.0,2.0
2.0,67.0,0.0,160.0
2.0,62.0,110.0,32.0
2.0,62.0,0.0,94.0
2.0,67.0,110.0,2.0
2.0,67.0,0.0,160.0
2.0,62.0,110.0,32.0
2.0,62.0,0.0,94.0
2.0,67.0,110.0,2.0
2.0,67.0,0.0,160.0
2.0,62.0,110.0,32.0
2.0,62.0,0.0,94.0
2.0,67.0,110.0,2.0
2.0,67.0,0.0,160.0
2.0,62.0,110.0,32.0
2.0,62.0,0.0,94.0
2.0,66.0,110.0,2.0
2.0,66.0,0.0,160.0
2.0,62.0,110.0,32.0
2.0,62.0,0.0,94.0
2.0,66.0,110.0,2.0
2.0,66.0,0.0,160.0
2.0,62.0,110.0,32.0
2.0,62.0,0.0,94.0
2.0,66.0,110.0,2.0
2.0,66.0,0.0,160.0
2.0,62.0,110.0,32.0
2.0,62.0,0.0,94.0
2.0,66.0,110.0,2.0
2.0,66.0,0.0,160.0
2.0,62.0,110.0,32.0
2.0,62.0,0.0,94.0
2.0,67.0,110.0,2.0
2.0,67.0,0.0,160.0
2.0,62.0,110.0,32.0
2.0,62.0,0.0,94.0
2.0,67.0,110.0,2.0
2.0,67.0,0.0,160.0
2.0,62.0,110.0,32.0
2.0,62.0,0.0,94.0
2.0,67.0,110.0,2.0
2.0,67.0,0.0,160.0
2.0,62.0,110.0,32.0
2.0,62.0,0.0,94.0
2.0,67.0,110.0,2.0
2.0,67.0,0.0,160.0
2.0,62.0,110.0,32.0
2.0,62.0,0.0,94.0
2.0,66.0,110.0,2.0
2.0,66.0,0.0,160.0
2.0,62.0,110.0,32.0
2.0,62.0,0.0,94.0
2.0,66.0,110.0,2.0
2.0,66.0,0.0,160.0
2.0,62.0,110.0,32.0
2.0,62.0,0.0,94.0
2.0,66.0,110.0,2.0
2.0,66.0,0.0,160.0
2.0,62.0,110.0,32.0
2.0,62.0,0.0,94.0
2.0,66.0,110.0,2.0
2.0,66.0,0.0,160.0
2.0,62.0,110.0,32.0
2.0,62.0,0.0,94.0
2.0,67.0,110.0,2.0
2.0,67.0,0.0,160.0
2.0,62.0,110.0,32.0
2.0,62.0,0.0,94.0
2.0,67.0,110.0,2.0
2.0,67.0,0.0,160.0
2.0,62.0,110.0,32.0
2.0,62.0,0.0,94.0
2.0,67.0,110.0,2.0
2.0,67.0,0.0,160.0
2.0,62.0,110.0,32.0
2.0,62.0,0.0,94.0
2.0,67.0,110.0,2.0
2.0,67.0,0.0,160.0
2.0,62.0,110.0,32.0
2.0,62.0,0.0,94.0
2.0,68.0,110.0,2.0
2.0,68.0,0.0,160.0
2.0,64.0,110.0,32.0
2.0,64.0,0.0,94.0
2.0,68.0,110.0,2.0
2.0,68.0,0.0,160.0
2.0,64.0,110.0,32.0
2.0,64.0,0.0,94.0
2.0,68.0,110.0,2.0
2.0,68.0,0.0,160.0
2.0,64.0,110.0,32.0
2.0,64.0,0.0,94.0
2.0,68.0,110.0,2.0
2.0,68.0,0.0,160.0
2.0,64.0,110.0,32.0
2.0,64.0,0.0,94.0
2.0,69.0,110.0,2.0
2.0,69.0,0.0,160.0
2.0,64.0,110.0,32.0
2.0,64.0,0.0,94.0
2.0,69.0,110.0,2.0
2.0,69.0,0.0,160.0
2.0,64.0,110.0,32.0
2.0,64.0,0.0,94.0
2.0,69.0,110.0,2.0
2.0,69.0,0.0,160.0
2.0,64.0,110.0,32.0
2.0,64.0,0.0,94.0
2.0,69.0,110.0,2.0
2.0,69.0,0.0,160.0
2.0,64.0,110.0,32.0
2.0,64.0,0.0,94.0
2.0,68.0,110.0,2.0
2.0,68.0,0.0,160.0
2.0,64.0,110.0,32.0
2.0,64.0,0.0,94.0
2.0,68.0,110.0,2.0
2.0,68.0,0.0,160.0
2.0,64.0,110.0,32.0
2.0,64.0,0.0,94.0
2.0,68.0,110.0,2.0
2.0,68.0,0.0,160.0
2.0,64.0,110.0,32.0
2.0,64.0,0.0,94.0
2.0,68.0,110.0,2.0
2.0,68.0,0.0,160.0
2.0,64.0,110.0,32.0
2.0,64.0,0.0,94.0
2.0,69.0,110.0,2.0
2.0,69.0,0.0,160.0
2.0,64.0,110.0,32.0
2.0,64.0,0.0,94.0
2.0,69.0,110.0,2.0
2.0,69.0,0.0,160.0
2.0,64.0,110.0,32.0
2.0,64.0,0.0,94.0
2.0,69.0,110.0,2.0
2.0,69.0,0.0,160.0
2.0,64.0,110.0,32.0
2.0,64.0,0.0,94.0
2.0,69.0,110.0,2.0
2.0,69.0,0.0,160.0
2.0,64.0,110.0,32.0
2.0,64.0,0.0,94.0
2.0,68.0,110.0,2.0
2.0,68.0,0.0,160.0
2.0,64.0,110.0,32.0
2.0,64.0,0.0,94.0
2.0,68.0,110.0,2.0
2.0,68.0,0.0,160.0
2.0,64.0,110.0,32.0
2.0,64.0,0.0,94.0
2.0,68.0,110.0,2.0
2.0,68.0,0.0,160.0
2.0,64.0,110.0,32.0
2.0,64.0,0.0,94.0
2.0,68.0,110.0,2.0
2.0,68.0,0.0,160.0
2.0,64.0,110.0,32.0
2.0,64.0,0.0,94.0
2.0,69.0,110.0,2.0
2.0,69.0,0.0,160.0
2.0,64.0,110.0,32.0
2.0,64.0,0.0,94.0
2.0,69.0,110.0,2.0
2.0,69.0,0.0,160.0
2.0,64.0,110.0,32.0
2.0,64.0,0.0,94.0
2.0,69.0,110.0,2.0
2.0,69.0,0.0,160.0
2.0,64.0,110.0,32.0
2.0,64.0,0.0,94.0
2.0,69.0,110.0,2.0
2.0,69.0,0.0,160.0
2.0,64.0,110.0,32.0
2.0,64.0,0.0,94.0
2.0,68.0,110.0,2.0
2.0,68.0,0.0,160.0
2.0,64.0,110.0,32.0
2.0,64.0,0.0,94.0
2.0,68.0,110.0,2.0
2.0,68.0,0.0,160.0
2.0,64.0,110.0,32.0
2.0,64.0,0.0,94.0
2.0,68.0,110.0,2.0
2.0,68.0,0.0,160.0
2.0,64.0,110.0,32.0
2.0,64.0,0.0,94.0
2.0,68.0,110.0,2.0
2.0,68.0,0.0,160.0
2.0,64.0,110.0,32.0
2.0,64.0,0.0,94.0
2.0,69.0,110.0,2.0
2.0,69.0,0.0,160.0
2.0,64.0,110.0,32.0
2.0,64.0,0.0,94.0
2.0,69.0,110.0,2.0
2.0,69.0,0.0,160.0
2.0,64.0,110.0,32.0
2.0,64.0,0.0,94.0
2.0,69.0,110.0,2.0
2.0,69.0,0.0,256.0
2.0,66.0,110.0,320.0
2.0,66.0,0.0,160.0
2.0,62.0,110.0,32.0
2.0,62.0,0.0,94.0
2.0,66.0,110.0,2.0
2.0,66.0,0.0,160.0
2.0,62.0,110.0,32.0
2.0,62.0,0.0,94.0
2.0,66.0,110.0,2.0
2.0,66.0,0.0,160.0
2.0,62.0,110.0,32.0
2.0,62.0,0.0,94.0
2.0,66.0,110.0,2.0
2.0,66.0,0.0,160.0
2.0,62.0,110.0,32.0
2.0,62.0,0.0,94.0
2.0,67.0,110.0,2.0
2.0,67.0,0.0,160.0
2.0,62.0,110.0,32.0
2.0,62.0,0.0,94.0
2.0,67.0,110.0,2.0
2.0,67.0,0.0,160.0
2.0,62.0,110.0,32.0
2.0,62.0,0.0,94.0
2.0,67.0,110.0,2.0
2.0,67.0,0.0,160.0
2.0,62.0,110.0,32.0
2.0,62.0,0.0,94.0
2.0,67.0,110.0,2.0
2.0,67.0,0.0,160.0
2.0,62.0,110.0,32.0
2.0,62.0,0.0,94.0
2.0,66.0,110.0,2.0
2.0,66.0,0.0,160.0
2.0,62.0,110.0,32.0
2.0,62.0,0.0,94.0
2.0,66.0,110.0,2.0
2.0,66.0,0.0,160.0
2.0,62.0,110.0,32.0
2.0,62.0,0.0,94.0
2.0,66.0,110.0,2.0
2.0,66.0,0.0,160.0
2.0,62.0,110.0,32.0
2.0,62.0,0.0,94.0
2.0,66.0,110.0,2.0
2.0,66.0,0.0,160.0
2.0,62.0,110.0,32.0
2.0,62.0,0.0,94.0
2.0,67.0,110.0,2.0
2.0,67.0,0.0,160.0
2.0,62.0,110.0,32.0
2.0,62.0,0.0,94.0
2.0,67.0,110.0,2.0
2.0,67.0,0.0,160.0
2.0,62.0,110.0,32.0
2.0,62.0,0.0,94.0
2.0,67.0,110.0,2.0
2.0,67.0,0.0,160.0
2.0,62.0,110.0,32.0
2.0,62.0,0.0,94.0
2.0,67.0,110.0,2.0
2.0,67.0,0.0,160.0
2.0,62.0,110.0,32.0
2.0,62.0,0.0,94.0
2.0,66.0,110.0,2.0
2.0,66.0,0.0,160.0
2.0,62.0,110.0,32.0
2.0,62.0,0.0,94.0
2.0,66.0,110.0,2.0
2.0,66.0,0.0,160.0
2.0,62.0,110.0,32.0
2.0,62.0,0.0,94.0
2.0,66.0,110.0,2.0
2.0,66.0,0.0,160.0
2.0,62.0,110.0,32.0
2.0,62.0,0.0,94.0
2.0,66.0,110.0,2.0
2.0,66.0,0.0,160.0
2.0,62.0,110.0,32.0
2.0,62.0,0.0,94.0
2.0,67.0,110.0,2.0
2.0,67.0,0.0,160.0
2.0,62.0,110.0,32.0
2.0,62.0,0.0,94.0
2.0,67.0,110.0,2.0
2.0,67.0,0.0,160.0
2.0,62.0,110.0,32.0
2.0,62.0,0.0,94.0
2.0,67.0,110.0,2.0
2.0,67.0,0.0,160.0
2.0,62.0,110.0,32.0
2.0,62.0,0.0,94.0
2.0,67.0,110.0,2.0
2.0,67.0,0.0,160.0
2.0,62.0,110.0,32.0
2.0,62.0,0.0,94.0
2.0,66.0,110.0,2.0
2.0,66.0,0.0,160.0
2.0,62.0,110.0,32.0
2.0,62.0,0.0,94.0
2.0,66.0,110.0,2.0
2.0,66.0,0.0,160.0
2.0,62.0,110.0,32.0
2.0,62.0,0.0,94.0
2.0,66.0,110.0,2.0
2.0,66.0,0.0,160.0
2.0,62.0,110.0,32.0
2.0,62.0,0.0,94.0
2.0,66.0,110.0,2.0
2.0,66.0,0.0,160.0
2.0,62.0,110.0,32.0
2.0,62.0,0.0,94.0
2.0,67.0,110.0,2.0
2.0,67.0,0.0,160.0
2.0,62.0,110.0,32.0
2.0,62.0,0.0,94.0
2.0,67.0,110.0,2.0
2.0,67.0,0.0,160.0
2.0,62.0,110.0,32.0
2.0,62.0,0.0,94.0
2.0,67.0,110.0,2.0
2.0,67.0,0.0,160.0
2.0,62.0,110.0,32.0
2.0,62.0,0.0,94.0
2.0,67.0,110.0,2.0
2.0,67.0,0.0,160.0
2.0,62.0,110.0,32.0
2.0,62.0,0.0,94.0
2.0,68.0,110.0,2.0
2.0,68.0,0.0,160.0
2.0,64.0,110.0,32.0
2.0,64.0,0.0,94.0
2.0,68.0,110.0,2.0
2.0,68.0,0.0,160.0
2.0,64.0,110.0,32.0
2.0,64.0,0.0,94.0
2.0,68.0,110.0,2.0
2.0,68.0,0.0,160.0
2.0,64.0,110.0,32.0
2.0,64.0,0.0,94.0
2.0,68.0,110.0,2.0
2.0,68.0,0.0,160.0
2.0,64.0,110.0,32.0
2.0,64.0,0.0,94.0
2.0,69.0,110.0,2.0
2.0,69.0,0.0,160.0
2.0,64.0,110.0,32.0
2.0,64.0,0.0,94.0
2.0,69.0,110.0,2.0
2.0,69.0,0.0,160.0
2.0,64.0,110.0,32.0
2.0,64.0,0.0,94.0
2.0,69.0,110.0,2.0
2.0,69.0,0.0,160.0
2.0,64.0,110.0,32.0
2.0,64.0,0.0,94.0
2.0,69.0,110.0,2.0
2.0,69.0,0.0,160.0
2.0,64.0,110.0,32.0
2.0,64.0,0.0,94.0
2.0,68.0,110.0,2.0
2.0,68.0,0.0,160.0
2.0,64.0,110.0,32.0
2.0,64.0,0.0,94.0
2.0,68.0,110.0,2.0
2.0,68.0,0.0,160.0
2.0,64.0,110.0,32.0
2.0,64.0,0.0,94.0
2.0,68.0,110.0,2.0
2.0,68.0,0.0,160.0
2.0,64.0,110.0,32.0
2.0,64.0,0.0,94.0
2.0,68.0,110.0,2.0
2.0,68.0,0.0,160.0
2.0,64.0,110.0,32.0
2.0,64.0,0.0,94.0
2.0,69.0,110.0,2.0
2.0,69.0,0.0,160.0
2.0,64.0,110.0,32.0
2.0,64.0,0.0,94.0
2.0,69.0,110.0,2.0
2.0,69.0,0.0,160.0
2.0,64.0,110.0,32.0
2.0,64.0,0.0,94.0
2.0,69.0,110.0,2.0
2.0,69.0,0.0,160.0
2.0,64.0,110.0,32.0
2.0,64.0,0.0,94.0
2.0,69.0,110.0,2.0
2.0,69.0,0.0,160.0
2.0,64.0,110.0,32.0
2.0,64.0,0.0,94.0
2.0,68.0,110.0,2.0
2.0,68.0,0.0,160.0
2.0,64.0,110.0,32.0
2.0,64.0,0.0,94.0
2.0,68.0,110.0,2.0
2.0,68.0,0.0,160.0
2.0,64.0,110.0,32.0
2.0,64.0,0.0,94.0
2.0,68.0,110.0,2.0
2.0,68.0,0.0,160.0
2.0,64.0,110.0,32.0
2.0,64.0,0.0,94.0
2.0,68.0,110.0,2.0
2.0,68.0,0.0,160.0
2.0,64.0,110.0,32.0
2.0,64.0,0.0,94.0
2.0,69.0,110.0,2.0
2.0,69.0,0.0,160.0
2.0,64.0,110.0,32.0
2.0,64.0,0.0,94.0
2.0,69.0,110.0,2.0
2.0,69.0,0.0,160.0
2.0,64.0,110.0,32.0
2.0,64.0,0.0,94.0
2.0,69.0,110.0,2.0
2.0,69.0,0.0,160.0
2.0,64.0,110.0,32.0
2.0,64.0,0.0,94.0
2.0,69.0,110.0,2.0
2.0,69.0,0.0,160.0
2.0,64.0,110.0,32.0
2.0,64.0,0.0,94.0
2.0,68.0,110.0,2.0
2.0,68.0,0.0,160.0
2.0,64.0,110.0,32.0
2.0,64.0,0.0,94.0
2.0,68.0,110.0,2.0
2.0,68.0,0.0,160.0
2.0,64.0,110.0,32.0
2.0,64.0,0.0,94.0
2.0,68.0,110.0,2.0
2.0,68.0,0.0,160.0
2.0,64.0,110.0,32.0
2.0,64.0,0.0,94.0
2.0,68.0,110.0,2.0
2.0,68.0,0.0,160.0
2.0,64.0,110.0,32.0
2.0,64.0,0.0,94.0
2.0,69.0,110.0,2.0
2.0,69.0,0.0,160.0
2.0,64.0,110.0,32.0
2.0,64.0,0.0,94.0
2.0,69.0,110.0,2.0
2.0,69.0,0.0,160.0
2.0,64.0,110.0,32.0
2.0,64.0,0.0,94.0
2.0,69.0,110.0,2.0
2.0,69.0,0.0,94.0
3.0,50.0,110.0,0.0
3.0,50.0,0.0,1104.0
3.0,55.0,110.0,48.0
3.0,55.0,0.0,1104.0
3.0,50.0,110.0,48.0
3.0,50.0,0.0,1104.0
3.0,55.0,110.0,48.0
3.0,55.0,0.0,1104.0
3.0,50.0,110.0,48.0
3.0,50.0,0.0,1104.0
3.0,55.0,110.0,48.0
3.0,55.0,0.0,1104.0
3.0,50.0,110.0,48.0
3.0,50.0,0.0,1104.0
3.0,55.0,110.0,48.0
3.0,55.0,0.0,1104.0
3.0,50.0,110.0,48.0
3.0,50.0,0.0,1104.0
3.0,55.0,110.0,48.0
3.0,55.0,0.0,1104.0
3.0,50.0,110.0,48.0
3.0,50.0,0.0,1104.0
3.0,55.0,110.0,48.0
3.0,55.0,0.0,1104.0
3.0,50.0,110.0,48.0
3.0,50.0,0.0,1104.0
3.0,55.0,110.0,48.0
3.0,55.0,0.0,1104.0
3.0,40.0,110.0,48.0
3.0,40.0,0.0,1104.0
3.0,45.0,110.0,48.0
3.0,45.0,0.0,1104.0
3.0,40.0,110.0,48.0
3.0,40.0,0.0,1104.0
3.0,45.0,110.0,48.0
3.0,45.0,0.0,1104.0
3.0,40.0,110.0,48.0
3.0,40.0,0.0,1104.0
3.0,45.0,110.0,48.0
3.0,45.0,0.0,1104.0
3.0,40.0,110.0,48.0
3.0,40.0,0.0,1104.0
3.0,45.0,110.0,48.0
3.0,45.0,0.0,528.0
3.0,45.0,110.0,48.0
3.0,45.0,0.0,94.0
3.0,50.0,110.0,482.0
3.0,50.0,0.0,1104.0
3.0,55.0,110.0,48.0
3.0,55.0,0.0,1104.0
3.0,50.0,110.0,48.0
3.0,50.0,0.0,1104.0
3.0,55.0,110.0,48.0
3.0,55.0,0.0,1104.0
3.0,50.0,110.0,48.0
3.0,50.0,0.0,1104.0
3.0,55.0,110.0,48.0
3.0,55.0,0.0,1104.0
3.0,50.0,110.0,48.0
3.0,50.0,0.0,1104.0
3.0,55.0,110.0,48.0
3.0,55.0,0.0,1104.0
3.0,40.0,110.0,48.0
3.0,40.0,0.0,1104.0
3.0,45.0,110.0,48.0
3.0,45.0,0.0,1104.0
3.0,40.0,110.0,48.0
3.0,40.0,0.0,1104.0
3.0,45.0,110.0,48.0
3.0,45.0,0.0,1104.0
3.0,40.0,110.0,48.0
3.0,40.0,0.0,1104.0
3.0,45.0,110.0,48.0
3.0,45.0,0.0,1104.0
3.0,40.0,110.0,48.0
3.0,40.0,0.0,1104.0
3.0,45.0,110.0,48.0
3.0,45.0,0.0,528.0
3.0,45.0,110.0,48.0
3.0,45.0,0.0,94.0
5.0,52.0,110.0,43200.0
5.0,52.0,0.0,256.0
0.0,0.0,0.0,0.0
0.0,0.0,0.0,0.0
0.0,0.0,0.0,0.0
0.0,0.0,0.0,0.0
0.0,0.0,0.0,0.0
0.0,0.0,0.0,0.0
0.0,0.0,0.0,0.0
0.0,0.0,0.0,0.0
0.0,0.0,0.0,0.0
0.0,0.0,0.0,0.0
0.0,0.0,0.0,0.0
0.0,0.0,0.0,0.0
0.0,0.0,0.0,0.0
0.0,0.0,0.0,0.0
0.0,0.0,0.0,0.0
0.0,0.0,0.0,0.0
0.0,0.0,0.0,0.0
0.0,0.0,0.0,0.0
0.0,0.0,0.0,0.0
0.0,0.0,0.0,0.0
0.0,0.0,0.0,0.0
0.0,0.0,0.0,0.0
0.0,0.0,0.0,0.0
0.0,0.0,0.0,0.0
0.0,0.0,0.0,0.0
0.0,0.0,0.0,0.0
0.0,0.0,0.0,0.0
0.0,0.0,0.0,0.0
0.0,0.0,0.0,0.0
0.0,0.0,0.0,0.0
0.0,0.0,0.0,0.0
0.0,0.0,0.0,0.0
0.0,0.0,0.0,0.0
0.0,0.0,0.0,0.0
0.0,0.0,0.0,0.0
0.0,0.0,0.0,0.0
0.0,0.0,0.0,0.0
0.0,0.0,0.0,0.0
0.0,0.0,0.0,0.0
0.0,0.0,0.0,0.0
0.0,0.0,0.0,0.0
0.0,0.0,0.0,0.0
0.0,0.0,0.0,0.0
0.0,0.0,0.0,0.0
0.0,0.0,0.0,0.0
0.0,0.0,0.0,0.0
0.0,0.0,0.0,0.0
0.0,0.0,0.0,0.0
0.0,0.0,0.0,0.0
0.0,0.0,0.0,0.0
0.0,0.0,0.0,0.0
0.0,0.0,0.0,0.0
0.0,0.0,0.0,0.0
0.0,0.0,0.0,0.0
0.0,0.0,0.0,0.0
0.0,0.0,0.0,0.0
0.0,0.0,0.0,0.0
0.0,0.0,0.0,0.0
0.0,0.0,0.0,0.0
0.0,0.0,0.0,0.0
0.0,0.0,0.0,0.0
0.0,0.0,0.0,0.0
0.0,0.0,0.0,0.0
0.0,0.0,0.0,0.0
0.0,0.0,0.0,0.0
0.0,0.0,0.0,0.0
0.0,0.0,0.0,0.0
0.0,0.0,0.0,0.0
0.0,0.0,0.0,0.0
0.0,0.0,0.0,0.0
0.0,0.0,0.0,0.0
0.0,0.0,0.0,0.0
0.0,0.0,0.0,0.0
0.0,0.0,0.0,0.0
0.0,0.0,0.0,0.0
0.0,0.0,0.0,0.0
0.0,0.0,0.0,0.0
0.0,0.0,0.0,0.0
0.0,0.0,0.0,0.0
0.0,0.0,0.0,0.0
0.0,0.0,0.0,0.0
0.0,0.0,0.0,0.0
0.0,0.0,0.0,0.0
0.0,0.0,0.0,0.0
0.0,0.0,0.0,0.0
0.0,0.0,0.0,0.0
0.0,0.0,0.0,0.0
0.0,0.0,0.0,0.0
0.0,0.0,0.0,0.0
0.0,0.0,0.0,0.0
0.0,0.0,0.0,0.0
0.0,0.0,0.0,0.0
0.0,0.0,0.0,0.0
0.0,0.0,0.0,0.0
0.0,0.0,0.0,0.0
0.0,0.0,0.0,0.0
0.0,0.0,0.0,0.0
0.0,0.0,0.0,0.0
0.0,0.0,0.0,0.0
0.0,0.0,0.0,0.0
0.0,0.0,0.0,0.0
0.0,0.0,0.0,0.0
0.0,0.0,0.0,0.0
0.0,0.0,0.0,0.0
0.0,0.0,0.0,0.0
0.0,0.0,0.0,0.0
0.0,0.0,0.0,0.0
0.0,0.0,0.0,0.0
0.0,0.0,0.0,0.0
0.0,0.0,0.0,0.0
0.0,0.0,0.0,0.0
0.0,0.0,0.0,0.0
0.0,0.0,0.0,0.0
0.0,0.0,0.0,0.0
0.0,0.0,0.0,0.0
0.0,0.0,0.0,0.0
0.0,0.0,0.0,0.0
0.0,0.0,0.0,0.0
0.0,0.0,0.0,0.0
0.0,0.0,0.0,0.0
