track,note,velocity,time
1,35,127,0
1,46,127,0
1,35,0,120
1,46,0,0
1,35,127,0
1,46,127,0
1,35,0,120
1,46,0,0
1,40,127,0
1,46,127,0
1,40,0,120
1,46,0,0
1,35,127,0
1,46,127,0
1,35,0,120
1,46,0,0
1,35,127,0
1,46,127,0
1,35,0,120
1,46,0,0
1,35,127,0
1,46,127,0
1,35,0,120
1,46,0,0
1,40,127,0
1,46,127,0
1,40,0,120
1,46,0,0
1,35,127,0
1,46,127,0
1,35,127,120
1,46,127,0
1,35,0,0
1,46,0,0
1,35,0,120
1,46,0,0
1,35,127,0
1,46,127,0
1,35,0,120
1,46,0,0
1,40,127,0
1,46,127,0
1,40,0,120
1,46,0,0
1,35,127,0
1,46,127,0
1,35,0,120
1,46,0,0
1,35,127,0
1,46,127,0
1,35,0,120
1,46,0,0
1,35,127,0
1,46,127,0
1,35,0,120
1,46,0,0
1,40,127,0
1,46,127,0
1,40,0,120
1,46,0,0
1,35,127,0
1,46,127,0
1,35,127,120
1,46,127,0
1,35,0,0
1,46,0,0
1,35,0,120
1,46,0,0
1,35,127,0
1,46,127,0
1,35,0,120
1,46,0,0
1,40,127,0
1,46,127,0
1,40,0,120
1,46,0,0
1,35,127,0
1,46,127,0
1,35,0,120
1,46,0,0
1,35,127,0
1,46,127,0
1,35,0,120
1,46,0,0
1,35,127,0
1,46,127,0
1,35,0,120
1,46,0,0
1,40,127,0
1,46,127,0
1,40,0,120
1,46,0,0
1,35,127,0
1,46,127,0
1,35,127,120
1,46,127,0
1,35,0,0
1,46,0,0
1,35,0,120
1,46,0,0
1,35,127,0
1,46,127,0
1,35,0,120
1,46,0,0
1,40,127,0
1,46,127,0
1,40,0,120
1,46,0,0
1,35,127,0
1,46,127,0
1,35,0,120
1,46,0,0
1,35,127,0
1,46,127,0
1,35,0,120
1,46,0,0
1,35,127,0
1,46,127,0
1,35,0,120
1,46,0,0
1,40,127,0
1,46,127,0
1,40,0,120
1,46,0,0
1,35,127,0
1,46,127,0
1,35,127,120
1,46,127,0
1,35,0,0
1,46,0,0
1,35,0,120
1,46,0,0
1,35,127,0
1,46,127,0
1,35,0,120
1,46,0,0
1,40,127,0
1,46,127,0
1,40,0,120
1,46,0,0
1,35,127,0
1,46,127,0
1,35,0,120
1,46,0,0
1,35,127,0
1,46,127,0
1,35,0,120
1,46,0,0
1,35,127,0
1,46,127,0
1,35,0,120
1,46,0,0
1,40,127,0
1,46,127,0
1,40,0,120
1,46,0,0
1,35,127,0
1,46,127,0
1,35,127,120
1,46,127,0
1,35,0,0
1,46,0,0
1,35,0,120
1,46,0,0
1,35,127,0
1,46,127,0
1,35,0,120
1,46,0,0
1,40,127,0
1,46,127,0
1,40,0,120
1,46,0,0
1,35,127,0
1,46,127,0
1,35,0,120
1,46,0,0
1,35,127,0
1,46,127,0
1,35,0,120
1,46,0,0
1,35,127,0
1,46,127,0
1,35,0,120
1,46,0,0
1,40,127,0
1,46,127,0
1,40,0,120
1,46,0,0
1,35,127,0
1,46,127,0
1,35,127,120
1,46,127,0
1,35,0,0
1,46,0,0
1,35,0,120
1,46,0,0
1,35,127,0
1,46,127,0
1,35,0,120
1,46,0,0
1,40,127,0
1,46,127,0
1,40,0,120
1,46,0,0
1,35,127,0
1,46,127,0
1,35,0,120
1,46,0,0
1,35,127,0
1,46,127,0
1,35,0,120
1,46,0,0
1,35,127,0
1,46,127,0
1,35,0,120
1,46,0,0
1,40,127,0
1,46,127,0
1,40,0,120
1,46,0,0
1,35,127,0
1,46,127,0
1,36,127,120
1,46,127,0
1,36,0,58
1,46,0,0
1,35,0,62
1,46,0,0
1,38,127,120
1,46,127,0
1,38,0,58
1,46,0,0
1,36,127,62
1,36,0,58
1,36,127,62
1,46,127,0
1,36,0,58
1,46,0,0
1,38,127,62
1,38,0,58
1,38,127,2
1,38,0,58
1,38,127,2
1,38,0,58
1,38,127,2
1,38,0,58
1,38,127,2
1,38,0,58
1,38,127,2
1,38,0,58
1,35,127,2042
1,46,127,0
1,35,0,120
1,46,0,0
1,40,127,0
1,46,127,0
1,40,0,120
1,46,0,0
1,35,127,0
1,46,127,0
1,35,0,120
1,46,0,0
1,35,127,0
1,46,127,0
1,35,0,120
1,46,0,0
1,35,127,0
1,46,127,0
1,35,0,120
1,46,0,0
1,40,127,0
1,46,127,0
1,40,0,120
1,46,0,0
1,35,127,0
1,46,127,0
1,35,0,120
1,46,0,0
1,35,127,0
1,35,0,0
1,46,127,0
1,46,0,0
1,35,127,120
1,46,127,0
1,35,0,120
1,46,0,0
1,40,127,0
1,46,127,0
1,40,0,120
1,46,0,0
1,35,127,0
1,46,127,0
1,35,0,120
1,46,0,0
1,35,127,0
1,46,127,0
1,35,0,120
1,46,0,0
1,35,127,0
1,46,127,0
1,35,0,120
1,46,0,0
1,40,127,0
1,46,127,0
1,40,0,120
1,46,0,0
1,35,127,0
1,46,127,0
1,35,0,120
1,46,0,0
1,35,127,0
1,35,0,0
1,46,127,0
1,46,0,0
1,35,127,120
1,46,127,0
1,35,0,120
1,46,0,0
1,40,127,0
1,46,127,0
1,40,0,120
1,46,0,0
1,35,127,0
1,46,127,0
1,35,0,120
1,46,0,0
1,35,127,0
1,46,127,0
1,35,0,120
1,46,0,0
1,35,127,0
1,46,127,0
1,35,0,120
1,46,0,0
1,40,127,0
1,46,127,0
1,40,0,120
1,46,0,0
1,35,127,0
1,46,127,0
1,35,0,120
1,46,0,0
1,35,127,0
1,35,0,0
1,46,127,0
1,46,0,0
1,35,127,120
1,46,127,0
1,35,0,120
1,46,0,0
1,40,127,0
1,46,127,0
1,40,0,120
1,46,0,0
1,35,127,0
1,46,127,0
1,35,0,120
1,46,0,0
1,35,127,0
1,46,127,0
1,35,0,120
1,46,0,0
1,35,127,0
1,46,127,0
1,35,0,120
1,46,0,0
1,40,127,0
1,46,127,0
1,40,0,120
1,46,0,0
1,35,127,0
1,46,127,0
1,35,0,120
1,46,0,0
1,35,127,0
1,35,0,0
1,46,127,0
1,46,0,0
1,35,127,120
1,46,127,0
1,35,0,120
1,46,0,0
1,40,127,0
1,46,127,0
1,40,0,120
1,46,0,0
1,35,127,0
1,46,127,0
1,35,0,120
1,46,0,0
1,35,127,0
1,46,127,0
1,35,0,120
1,46,0,0
1,35,127,0
1,46,127,0
1,35,0,120
1,46,0,0
1,40,127,0
1,46,127,0
1,40,0,120
1,46,0,0
1,35,127,0
1,46,127,0
1,36,127,120
1,46,127,0
1,46,0,58
1,36,0,0
1,46,0,0
1,35,0,62
1,38,127,120
1,46,127,0
1,38,0,58
1,46,0,0
1,36,127,62
1,36,0,58
1,36,127,62
1,46,127,0
1,36,0,58
1,46,0,0
1,38,127,62
1,38,0,58
1,38,127,2
1,38,0,58
1,38,127,2
1,38,0,58
1,38,127,2
1,38,0,58
1,38,127,2
1,38,0,58
1,38,127,2
1,38,0,58
1,35,127,2
1,46,127,0
1,35,0,120
1,46,0,0
1,35,127,0
1,46,127,0
1,35,0,120
1,46,0,0
1,40,127,0
1,46,127,0
1,40,0,120
1,46,0,0
1,35,127,0
1,46,127,0
1,35,0,120
1,46,0,0
1,35,127,0
1,46,127,0
1,35,0,120
1,46,0,0
1,35,127,0
1,46,127,0
1,35,0,120
1,46,0,0
1,40,127,0
1,46,127,0
1,40,0,120
1,46,0,0
1,35,127,0
1,46,127,0
1,35,0,120
1,46,0,0
1,35,127,0
1,35,0,0
1,46,127,0
1,46,0,0
1,35,127,120
1,46,127,0
1,35,0,120
1,46,0,0
1,40,127,0
1,46,127,0
1,40,0,120
1,46,0,0
1,35,127,0
1,46,127,0
1,35,0,120
1,46,0,0
1,35,127,0
1,46,127,0
1,35,0,120
1,46,0,0
1,35,127,0
1,46,127,0
1,35,0,120
1,46,0,0
1,40,127,0
1,46,127,0
1,40,0,120
1,46,0,0
1,35,127,0
1,46,127,0
1,35,0,120
1,46,0,0
1,35,127,0
1,35,0,0
1,46,127,0
1,46,0,0
1,35,127,120
1,46,127,0
1,35,0,120
1,46,0,0
1,40,127,0
1,46,127,0
1,40,0,120
1,46,0,0
1,35,127,0
1,46,127,0
1,35,0,120
1,46,0,0
1,35,127,0
1,46,127,0
1,35,0,120
1,46,0,0
1,35,127,0
1,46,127,0
1,35,0,120
1,46,0,0
1,40,127,0
1,46,127,0
1,40,0,120
1,46,0,0
1,35,127,0
1,46,127,0
1,36,127,120
1,46,127,0
1,46,0,58
1,36,0,0
1,46,0,0
1,35,0,62
1,38,127,120
1,46,127,0
1,38,0,58
1,46,0,0
1,36,127,62
1,36,0,58
1,36,127,62
1,46,127,0
1,36,0,58
1,46,0,0
1,38,127,62
1,38,0,58
1,38,127,2
1,38,0,58
1,38,127,2
1,38,0,58
1,38,127,2
1,38,0,58
1,38,127,2
1,38,0,58
1,38,127,2
1,38,0,58
1,35,127,2
1,46,127,0
1,35,0,120
1,46,0,0
1,35,127,0
1,46,127,0
1,35,0,120
1,46,0,0
1,40,127,0
1,46,127,0
1,40,0,120
1,46,0,0
1,35,127,0
1,46,127,0
1,35,0,120
1,46,0,0
1,35,127,0
1,46,127,0
1,35,0,120
1,46,0,0
1,35,127,0
1,46,127,0
1,35,0,120
1,46,0,0
1,40,127,0
1,46,127,0
1,40,0,120
1,46,0,0
1,35,127,0
1,46,127,0
1,35,0,120
1,46,0,0
1,35,127,0
1,35,0,0
1,46,127,0
1,46,0,0
1,35,127,120
1,46,127,0
1,35,0,120
1,46,0,0
1,40,127,0
1,46,127,0
1,40,0,120
1,46,0,0
1,35,127,0
1,46,127,0
1,35,0,120
1,46,0,0
1,35,127,0
1,46,127,0
1,35,0,120
1,46,0,0
1,35,127,0
1,46,127,0
1,35,0,120
1,46,0,0
1,40,127,0
1,46,127,0
1,40,0,120
1,46,0,0
1,35,127,0
1,46,127,0
1,35,0,120
1,46,0,0
1,35,127,0
1,35,0,0
1,46,127,0
1,46,0,0
1,35,127,120
1,46,127,0
1,35,0,120
1,46,0,0
1,40,127,0
1,46,127,0
1,40,0,120
1,46,0,0
1,35,127,0
1,46,127,0
1,35,0,120
1,46,0,0
1,35,127,0
1,46,127,0
1,35,0,120
1,46,0,0
1,35,127,0
1,46,127,0
1,35,0,120
1,46,0,0
1,40,127,0
1,46,127,0
1,40,0,120
1,46,0,0
1,35,127,0
1,46,127,0
1,35,0,120
1,46,0,0
1,35,127,0
1,35,0,0
1,46,127,0
1,46,0,0
1,35,127,120
1,46,127,0
1,35,0,120
1,46,0,0
1,40,127,0
1,46,127,0
1,40,0,120
1,46,0,0
1,35,127,0
1,46,127,0
1,35,0,120
1,46,0,0
1,35,127,0
1,46,127,0
1,35,0,120
1,46,0,0
1,35,127,0
1,46,127,0
1,35,0,120
1,46,0,0
1,40,127,0
1,46,127,0
1,40,0,120
1,46,0,0
1,35,127,0
1,46,127,0
1,35,0,120
1,46,0,0
1,35,127,0
1,35,0,0
1,46,127,0
1,46,0,0
1,35,127,120
1,46,127,0
1,35,0,120
1,46,0,0
1,40,127,0
1,46,127,0
1,40,0,120
1,46,0,0
1,35,127,0
1,46,127,0
1,35,0,120
1,46,0,0
1,35,127,0
1,46,127,0
1,35,0,120
1,46,0,0
1,35,127,0
1,46,127,0
1,35,0,120
1,46,0,0
1,40,127,0
1,46,127,0
1,40,0,120
1,46,0,0
1,35,127,0
1,46,127,0
1,35,0,120
1,46,0,0
1,35,127,0
1,35,0,0
1,46,127,0
1,46,0,0
1,35,127,120
1,46,127,0
1,35,0,120
1,46,0,0
1,40,127,0
1,46,127,0
1,40,0,120
1,46,0,0
1,35,127,0
1,46,127,0
1,35,0,120
1,46,0,0
1,35,127,0
1,46,127,0
1,35,0,120
1,46,0,0
1,35,127,0
1,46,127,0
1,35,0,120
1,46,0,0
1,40,127,0
1,46,127,0
1,40,0,120
1,46,0,0
1,35,127,0
1,46,127,0
1,35,0,120
1,46,0,0
1,35,127,0
1,35,0,0
1,46,127,0
1,46,0,0
1,35,127,120
1,46,127,0
1,35,0,120
1,46,0,0
1,40,127,0
1,46,127,0
1,40,0,120
1,46,0,0
1,35,127,0
1,46,127,0
1,35,0,120
1,46,0,0
1,35,127,0
1,46,127,0
1,35,0,120
1,46,0,0
1,35,127,0
1,46,127,0
1,35,0,120
1,46,0,0
1,40,127,0
1,46,127,0
1,40,0,120
1,46,0,0
1,35,127,0
1,46,127,0
1,36,127,120
1,46,127,0
1,46,0,58
1,36,0,0
1,46,0,0
1,35,0,62
1,38,127,120
1,46,127,0
1,38,0,58
1,46,0,0
1,36,127,62
1,36,0,58
1,36,127,62
1,46,127,0
1,36,0,58
1,46,0,0
1,38,127,62
1,38,0,58
1,38,127,2
1,38,0,58
1,38,127,2
1,38,0,58
1,38,127,2
1,38,0,58
1,38,127,2
1,38,0,58
1,38,127,2
1,38,0,58
1,35,127,2
1,46,127,0
1,35,0,120
1,46,0,0
1,35,127,0
1,46,127,0
1,35,0,120
1,46,0,0
1,40,127,0
1,46,127,0
1,40,0,120
1,46,0,0
1,35,127,0
1,46,127,0
1,35,0,120
1,46,0,0
1,35,127,0
1,46,127,0
1,35,0,120
1,46,0,0
1,35,127,0
1,46,127,0
1,35,0,120
1,46,0,0
1,40,127,0
1,46,127,0
1,40,0,120
1,46,0,0
1,35,127,0
1,46,127,0
1,35,0,120
1,46,0,0
1,35,127,0
1,35,0,0
1,46,127,0
1,46,0,0
1,35,127,120
1,46,127,0
1,35,0,120
1,46,0,0
1,40,127,0
1,46,127,0
1,40,0,120
1,46,0,0
1,35,127,0
1,46,127,0
1,35,0,120
1,46,0,0
1,35,127,0
1,46,127,0
1,35,0,120
1,46,0,0
1,35,127,0
1,46,127,0
1,35,0,120
1,46,0,0
1,40,127,0
1,46,127,0
1,40,0,120
1,46,0,0
1,35,127,0
1,46,127,0
1,35,0,120
1,46,0,0
1,35,127,0
1,35,0,0
1,46,127,0
1,46,0,0
1,35,127,120
1,46,127,0
1,35,0,120
1,46,0,0
1,40,127,0
1,46,127,0
1,40,0,120
1,46,0,0
1,35,127,0
1,46,127,0
1,35,0,120
1,46,0,0
1,35,127,0
1,46,127,0
1,35,0,120
1,46,0,0
1,35,127,0
1,46,127,0
1,35,0,120
1,46,0,0
1,40,127,0
1,46,127,0
1,40,0,120
1,46,0,0
1,35,127,0
1,46,127,0
1,35,0,120
1,46,0,0
1,35,127,0
1,35,0,0
1,46,127,0
1,46,0,0
1,35,127,120
1,46,127,0
1,35,0,120
1,46,0,0
1,40,127,0
1,46,127,0
1,40,0,120
1,46,0,0
1,35,127,0
1,46,127,0
1,35,0,120
1,46,0,0
1,35,127,0
1,46,127,0
1,35,0,120
1,46,0,0
1,35,127,0
1,46,127,0
1,35,0,120
1,46,0,0
1,40,127,0
1,46,127,0
1,40,0,120
1,46,0,0
1,35,127,0
1,46,127,0
1,35,0,120
1,46,0,0
1,35,127,0
1,35,0,0
1,46,127,0
1,46,0,0
1,35,127,120
1,46,127,0
1,35,0,120
1,46,0,0
1,40,127,0
1,46,127,0
1,40,0,120
1,46,0,0
1,35,127,0
1,46,127,0
1,35,0,120
1,46,0,0
1,35,127,0
1,46,127,0
1,35,0,120
1,46,0,0
1,35,127,0
1,46,127,0
1,35,0,120
1,46,0,0
1,40,127,0
1,46,127,0
1,40,0,120
1,46,0,0
1,35,127,0
1,46,127,0
1,35,0,120
1,46,0,0
1,35,127,0
1,35,0,0
1,46,127,0
1,46,0,0
1,35,127,120
1,46,127,0
1,35,0,120
1,46,0,0
1,40,127,0
1,46,127,0
1,40,0,120
1,46,0,0
1,35,127,0
1,46,127,0
1,35,0,120
1,46,0,0
1,35,127,0
1,46,127,0
1,35,0,120
1,46,0,0
1,35,127,0
1,46,127,0
1,35,0,120
1,46,0,0
1,40,127,0
1,46,127,0
1,40,0,120
1,46,0,0
1,35,127,0
1,46,127,0
1,35,0,120
1,46,0,0
1,35,127,0
1,35,0,0
1,46,127,0
1,46,0,0
