track,note,velocity,time
1,55,127,0
1,62,127,0
1,67,127,0
1,55,0,90
1,62,0,0
1,67,0,0
1,55,127,0
1,62,127,0
1,67,127,0
1,55,0,90
1,62,0,0
1,67,0,0
1,55,127,0
1,62,127,0
1,67,127,0
1,55,0,90
1,62,0,0
1,67,0,0
1,55,127,0
1,62,127,0
1,67,127,0
1,55,0,90
1,62,0,0
1,67,0,0
1,53,127,0
1,60,127,0
1,67,127,0
1,65,127,0
1,53,0,90
1,60,0,0
1,67,0,0
1,65,0,0
1,53,127,0
1,60,127,0
1,67,127,0
1,65,127,0
1,53,0,90
1,60,0,0
1,67,0,0
1,65,0,0
1,53,127,0
1,60,127,0
1,67,127,0
1,65,127,0
1,53,0,90
1,60,0,0
1,67,0,0
1,65,0,0
1,53,127,0
1,60,127,0
1,67,127,0
1,65,127,0
1,53,0,90
1,60,0,0
1,67,0,0
1,65,0,0
1,55,127,0
1,62,127,0
1,67,127,0
1,55,0,90
1,62,0,0
1,67,0,0
1,55,127,0
1,62,127,0
1,67,127,0
1,55,0,90
1,62,0,0
1,67,0,0
1,55,127,0
1,62,127,0
1,67,127,0
1,55,0,90
1,62,0,0
1,67,0,0
1,55,127,0
1,62,127,0
1,67,127,0
1,55,0,90
1,62,0,0
1,67,0,0
1,53,127,0
1,60,127,0
1,67,127,0
1,65,127,0
1,53,0,90
1,60,0,0
1,67,0,0
1,65,0,0
1,53,127,0
1,60,127,0
1,67,127,0
1,65,127,0
1,53,0,90
1,60,0,0
1,67,0,0
1,65,0,0
1,53,127,0
1,60,127,0
1,67,127,0
1,65,127,0
1,53,0,90
1,60,0,0
1,67,0,0
1,65,0,0
1,53,127,0
1,60,127,0
1,67,127,0
1,65,127,0
1,53,0,90
1,60,0,0
1,67,0,0
1,65,0,0
1,55,127,720
1,62,127,0
1,67,127,0
1,55,0,90
1,62,0,0
1,67,0,0
1,55,127,0
1,62,127,0
1,67,127,0
1,55,0,90
1,62,0,0
1,67,0,0
1,55,127,0
1,62,127,0
1,67,127,0
1,55,0,90
1,62,0,0
1,67,0,0
1,55,127,0
1,62,127,0
1,67,127,0
1,55,0,90
1,62,0,0
1,67,0,0
1,53,127,0
1,60,127,0
1,67,127,0
1,65,127,0
1,53,0,90
1,60,0,0
1,67,0,0
1,65,0,0
1,53,127,0
1,60,127,0
1,67,127,0
1,65,127,0
1,53,0,90
1,60,0,0
1,67,0,0
1,65,0,0
1,53,127,0
1,60,127,0
1,67,127,0
1,65,127,0
1,53,0,90
1,60,0,0
1,67,0,0
1,65,0,0
1,53,127,0
1,60,127,0
1,67,127,0
1,65,127,0
1,53,0,90
1,60,0,0
1,67,0,0
1,65,0,0
1,55,127,720
1,62,127,0
1,67,127,0
1,55,0,90
1,62,0,0
1,67,0,0
1,55,127,0
1,62,127,0
1,67,127,0
1,55,0,90
1,62,0,0
1,67,0,0
1,55,127,0
1,62,127,0
1,67,127,0
1,55,0,90
1,62,0,0
1,67,0,0
1,55,127,0
1,62,127,0
1,67,127,0
1,55,0,90
1,62,0,0
1,67,0,0
1,53,127,0
1,60,127,0
1,67,127,0
1,65,127,0
1,53,0,90
1,60,0,0
1,67,0,0
1,65,0,0
1,53,127,0
1,60,127,0
1,67,127,0
1,65,127,0
1,53,0,90
1,60,0,0
1,67,0,0
1,65,0,0
1,53,127,0
1,60,127,0
1,67,127,0
1,65,127,0
1,53,0,90
1,60,0,0
1,67,0,0
1,65,0,0
1,53,127,0
1,60,127,0
1,67,127,0
1,65,127,0
1,53,0,90
1,60,0,0
1,67,0,0
1,65,0,0
1,55,127,720
1,62,127,0
1,67,127,0
1,55,0,90
1,62,0,0
1,67,0,0
1,55,127,0
1,62,127,0
1,67,127,0
1,55,0,90
1,62,0,0
1,67,0,0
1,55,127,0
1,62,127,0
1,67,127,0
1,55,0,90
1,62,0,0
1,67,0,0
1,55,127,0
1,62,127,0
1,67,127,0
1,55,0,90
1,62,0,0
1,67,0,0
1,53,127,0
1,60,127,0
1,67,127,0
1,65,127,0
1,53,0,90
1,60,0,0
1,67,0,0
1,65,0,0
1,53,127,0
1,60,127,0
1,67,127,0
1,65,127,0
1,53,0,90
1,60,0,0
1,67,0,0
1,65,0,0
1,53,127,0
1,60,127,0
1,67,127,0
1,65,127,0
1,53,0,90
1,60,0,0
1,67,0,0
1,65,0,0
1,53,127,0
1,60,127,0
1,67,127,0
1,65,127,0
1,53,0,90
1,60,0,0
1,67,0,0
1,65,0,0
1,55,127,720
1,62,127,0
1,67,127,0
1,55,0,90
1,62,0,0
1,67,0,0
1,55,127,0
1,62,127,0
1,67,127,0
1,55,0,90
1,62,0,0
1,67,0,0
1,55,127,0
1,62,127,0
1,67,127,0
1,55,0,90
1,62,0,0
1,67,0,0
1,55,127,0
1,62,127,0
1,67,127,0
1,55,0,90
1,62,0,0
1,67,0,0
1,53,127,0
1,60,127,0
1,67,127,0
1,65,127,0
1,53,0,90
1,60,0,0
1,67,0,0
1,65,0,0
1,53,127,0
1,60,127,0
1,67,127,0
1,65,127,0
1,53,0,90
1,60,0,0
1,67,0,0
1,65,0,0
1,53,127,0
1,60,127,0
1,67,127,0
1,65,127,0
1,53,0,90
1,60,0,0
1,67,0,0
1,65,0,0
1,53,127,0
1,60,127,0
1,67,127,0
1,65,127,0
1,53,0,90
1,60,0,0
1,67,0,0
1,65,0,0
1,55,127,0
1,62,127,0
1,67,127,0
1,71,127,0
1,74,127,0
1,79,127,0
1,55,0,330
1,62,0,0
1,67,0,0
1,71,0,0
1,74,0,0
1,79,0,0
1,55,127,0
1,62,127,0
1,67,127,0
1,72,127,0
1,74,127,0
1,79,127,0
1,55,0,120
1,62,0,0
1,67,0,0
1,72,0,0
1,74,0,0
1,79,0,0
1,55,127,0
1,62,127,0
1,67,127,0
1,72,127,0
1,74,127,0
1,79,127,0
1,55,0,90
1,62,0,0
1,67,0,0
1,72,0,0
1,74,0,0
1,79,0,0
1,55,127,0
1,62,127,0
1,67,127,0
1,72,127,0
1,74,127,0
1,79,127,0
1,55,0,90
1,62,0,0
1,67,0,0
1,72,0,0
1,74,0,0
1,79,0,0
1,55,127,0
1,62,127,0
1,67,127,0
1,72,127,0
1,74,127,0
1,79,127,0
1,55,0,90
1,62,0,0
1,67,0,0
1,72,0,0
1,74,0,0
1,79,0,0
1,55,127,0
1,62,127,0
1,67,127,0
1,71,127,0
1,55,0,90
1,62,0,0
1,67,0,0
1,71,0,0
1,55,127,0
1,62,127,0
1,67,127,0
1,71,127,0
1,55,0,90
1,62,0,0
1,67,0,0
1,71,0,0
1,55,127,0
1,62,127,0
1,67,127,0
1,71,127,0
1,55,0,90
1,62,0,0
1,67,0,0
1,71,0,0
1,65,127,0
1,72,127,0
1,55,127,0
1,62,127,0
1,65,0,90
1,72,0,0
1,55,0,0
1,62,0,0
1,53,127,0
1,60,127,0
1,65,127,0
1,72,127,0
1,74,127,0
1,53,0,90
1,60,0,0
1,65,0,0
1,72,0,0
1,74,0,0
1,53,127,0
1,60,127,0
1,65,127,0
1,72,127,0
1,74,127,0
1,53,0,90
1,60,0,0
1,65,0,0
1,72,0,0
1,74,0,0
1,53,127,0
1,60,127,0
1,65,127,0
1,72,127,0
1,74,127,0
1,53,0,90
1,60,0,0
1,65,0,0
1,72,0,0
1,74,0,0
1,55,127,0
1,62,127,0
1,65,127,0
1,72,127,0
1,55,0,90
1,62,0,0
1,65,0,0
1,72,0,0
1,55,127,0
1,62,127,0
1,67,127,0
1,55,0,60
1,62,0,0
1,67,0,0
1,55,127,660
1,62,127,0
1,67,127,0
1,55,0,90
1,62,0,0
1,67,0,0
1,55,127,0
1,62,127,0
1,67,127,0
1,55,0,90
1,62,0,0
1,67,0,0
1,55,127,0
1,62,127,0
1,67,127,0
1,55,0,90
1,62,0,0
1,67,0,0
1,55,127,0
1,62,127,0
1,67,127,0
1,55,0,90
1,62,0,0
1,67,0,0
1,53,127,0
1,60,127,0
1,67,127,0
1,65,127,0
1,53,0,90
1,60,0,0
1,67,0,0
1,65,0,0
1,53,127,0
1,60,127,0
1,67,127,0
1,65,127,0
1,53,0,90
1,60,0,0
1,67,0,0
1,65,0,0
1,53,127,0
1,60,127,0
1,67,127,0
1,65,127,0
1,53,0,90
1,60,0,0
1,67,0,0
1,65,0,0
1,53,127,0
1,60,127,0
1,67,127,0
1,65,127,0
1,53,0,90
1,60,0,0
1,67,0,0
1,65,0,0
1,55,127,0
1,62,127,0
1,67,127,0
1,55,0,60
1,62,0,0
1,67,0,0
1,55,127,660
1,62,127,0
1,67,127,0
1,55,0,90
1,62,0,0
1,67,0,0
1,55,127,0
1,62,127,0
1,67,127,0
1,55,0,90
1,62,0,0
1,67,0,0
1,55,127,0
1,62,127,0
1,67,127,0
1,55,0,90
1,62,0,0
1,67,0,0
1,55,127,0
1,62,127,0
1,67,127,0
1,55,0,90
1,62,0,0
1,67,0,0
1,53,127,0
1,60,127,0
1,67,127,0
1,65,127,0
1,53,0,90
1,60,0,0
1,67,0,0
1,65,0,0
1,53,127,0
1,60,127,0
1,67,127,0
1,65,127,0
1,53,0,90
1,60,0,0
1,67,0,0
1,65,0,0
1,53,127,0
1,60,127,0
1,67,127,0
1,65,127,0
1,53,0,90
1,60,0,0
1,67,0,0
1,65,0,0
1,53,127,0
1,60,127,0
1,67,127,0
1,65,127,0
1,53,0,90
1,60,0,0
1,67,0,0
1,65,0,0
1,55,127,0
1,62,127,0
1,67,127,0
1,55,0,60
1,62,0,0
1,67,0,0
1,55,127,660
1,62,127,0
1,67,127,0
1,55,0,90
1,62,0,0
1,67,0,0
1,55,127,0
1,62,127,0
1,67,127,0
1,55,0,90
1,62,0,0
1,67,0,0
1,55,127,0
1,62,127,0
1,67,127,0
1,55,0,90
1,62,0,0
1,67,0,0
1,55,127,0
1,62,127,0
1,67,127,0
1,55,0,90
1,62,0,0
1,67,0,0
1,53,127,0
1,60,127,0
1,67,127,0
1,65,127,0
1,53,0,90
1,60,0,0
1,67,0,0
1,65,0,0
1,53,127,0
1,60,127,0
1,67,127,0
1,65,127,0
1,53,0,90
1,60,0,0
1,67,0,0
1,65,0,0
1,53,127,0
1,60,127,0
1,67,127,0
1,65,127,0
1,53,0,90
1,60,0,0
1,67,0,0
1,65,0,0
1,53,127,0
1,60,127,0
1,67,127,0
1,65,127,0
1,53,0,90
1,60,0,0
1,67,0,0
1,65,0,0
1,55,127,0
1,62,127,0
1,67,127,0
1,55,0,60
1,62,0,0
1,67,0,0
1,55,127,660
1,62,127,0
1,67,127,0
1,55,0,90
1,62,0,0
1,67,0,0
1,55,127,0
1,62,127,0
1,67,127,0
1,55,0,90
1,62,0,0
1,67,0,0
1,55,127,0
1,62,127,0
1,67,127,0
1,55,0,90
1,62,0,0
1,67,0,0
1,55,127,0
1,62,127,0
1,67,127,0
1,55,0,90
1,62,0,0
1,67,0,0
1,53,127,0
1,60,127,0
1,67,127,0
1,65,127,0
1,53,0,90
1,60,0,0
1,67,0,0
1,65,0,0
1,53,127,0
1,60,127,0
1,67,127,0
1,65,127,0
1,53,0,90
1,60,0,0
1,67,0,0
1,65,0,0
1,53,127,0
1,60,127,0
1,67,127,0
1,65,127,0
1,53,0,90
1,60,0,0
1,67,0,0
1,65,0,0
1,53,127,0
1,60,127,0
1,67,127,0
1,65,127,0
1,53,0,90
1,60,0,0
1,67,0,0
1,65,0,0
1,55,127,0
1,62,127,0
1,67,127,0
1,71,127,0
1,74,127,0
1,79,127,0
1,55,0,330
1,62,0,0
1,67,0,0
1,71,0,0
1,74,0,0
1,79,0,0
1,55,127,0
1,62,127,0
1,67,127,0
1,72,127,0
1,74,127,0
1,79,127,0
1,55,0,120
1,62,0,0
1,67,0,0
1,72,0,0
1,74,0,0
1,79,0,0
1,55,127,0
1,62,127,0
1,67,127,0
1,72,127,0
1,74,127,0
1,79,127,0
1,55,0,90
1,62,0,0
1,67,0,0
1,72,0,0
1,74,0,0
1,79,0,0
1,55,127,0
1,62,127,0
1,67,127,0
1,72,127,0
1,74,127,0
1,79,127,0
1,55,0,90
1,62,0,0
1,67,0,0
1,72,0,0
1,74,0,0
1,79,0,0
1,55,127,0
1,62,127,0
1,67,127,0
1,72,127,0
1,74,127,0
1,79,127,0
1,55,0,90
1,62,0,0
1,67,0,0
1,72,0,0
1,74,0,0
1,79,0,0
1,55,127,0
1,62,127,0
1,67,127,0
1,71,127,0
1,55,0,90
1,62,0,0
1,67,0,0
1,71,0,0
1,55,127,0
1,62,127,0
1,67,127,0
1,71,127,0
1,55,0,90
1,62,0,0
1,67,0,0
1,71,0,0
1,55,127,0
1,62,127,0
1,67,127,0
1,71,127,0
1,55,0,90
1,62,0,0
1,67,0,0
1,71,0,0
1,65,127,0
1,72,127,0
1,55,127,0
1,62,127,0
1,65,0,90
1,72,0,0
1,55,0,0
1,62,0,0
1,53,127,0
1,60,127,0
1,65,127,0
1,72,127,0
1,74,127,0
1,53,0,90
1,60,0,0
1,65,0,0
1,72,0,0
1,74,0,0
1,53,127,0
1,60,127,0
1,65,127,0
1,72,127,0
1,74,127,0
1,53,0,90
1,60,0,0
1,65,0,0
1,72,0,0
1,74,0,0
1,53,127,0
1,60,127,0
1,65,127,0
1,72,127,0
1,74,127,0
1,53,0,90
1,60,0,0
1,65,0,0
1,72,0,0
1,74,0,0
1,55,127,0
1,62,127,0
1,65,127,0
1,72,127,0
1,55,0,90
1,62,0,0
1,65,0,0
1,72,0,0
1,55,127,0
1,62,127,0
1,67,127,0
1,55,0,60
1,62,0,0
1,67,0,0
1,55,127,660
1,62,127,0
1,67,127,0
1,55,0,90
1,62,0,0
1,67,0,0
1,55,127,0
1,62,127,0
1,67,127,0
1,55,0,90
1,62,0,0
1,67,0,0
1,55,127,0
1,62,127,0
1,67,127,0
1,55,0,90
1,62,0,0
1,67,0,0
1,55,127,0
1,62,127,0
1,67,127,0
1,55,0,90
1,62,0,0
1,67,0,0
1,53,127,0
1,60,127,0
1,67,127,0
1,65,127,0
1,53,0,90
1,60,0,0
1,67,0,0
1,65,0,0
1,53,127,0
1,60,127,0
1,67,127,0
1,65,127,0
1,53,0,90
1,60,0,0
1,67,0,0
1,65,0,0
1,53,127,0
1,60,127,0
1,67,127,0
1,65,127,0
1,53,0,90
1,60,0,0
1,67,0,0
1,65,0,0
1,53,127,0
1,60,127,0
1,67,127,0
1,65,127,0
1,53,0,90
1,60,0,0
1,67,0,0
1,65,0,0
1,55,127,0
1,62,127,0
1,67,127,0
1,55,0,60
1,62,0,0
1,67,0,0
1,55,127,660
1,62,127,0
1,67,127,0
1,71,127,0
1,55,0,90
1,62,0,0
1,67,0,0
1,71,0,0
1,55,127,0
1,62,127,0
1,67,127,0
1,71,127,0
1,55,0,135
1,62,0,0
1,67,0,0
1,71,0,0
1,55,127,0
1,62,127,0
1,65,127,0
1,72,127,0
1,55,0,135
1,62,0,0
1,65,0,0
1,72,0,0
1,55,127,0
1,62,127,0
1,65,127,0
1,72,127,0
1,74,127,0
1,55,0,90
1,62,0,0
1,65,0,0
1,72,0,0
1,74,0,0
1,55,127,0
1,62,127,0
1,65,127,0
1,72,127,0
1,74,127,0
1,55,0,90
1,62,0,0
1,65,0,0
1,72,0,0
1,74,0,0
1,55,127,0
1,62,127,0
1,65,127,0
1,72,127,0
1,74,127,0
1,55,0,90
1,62,0,0
1,65,0,0
1,72,0,0
1,74,0,0
1,55,127,0
1,62,127,0
1,65,127,0
1,72,127,0
1,55,0,90
1,62,0,0
1,65,0,0
1,72,0,0
1,55,127,0
1,62,127,0
1,67,127,0
1,55,0,60
1,62,0,0
1,67,0,0
1,67,127,660
1,72,127,90
1,76,127,0
1,72,0,45
1,76,0,0
1,74,127,0
1,77,127,0
1,74,0,45
1,77,0,0
1,72,127,0
1,76,127,0
1,72,0,90
1,76,0,0
1,70,127,0
1,74,127,0
1,67,0,90
1,67,127,0
1,70,0,90
1,74,0,0
1,72,127,0
