track,note,velocity,time
1,57,127,3072
1,36,127,0
1,38,127,100
1,38,127,4
1,38,127,4
1,38,127,4
1,38,127,4
1,38,127,4
1,49,127,4
1,36,127,0
1,38,127,100
1,38,127,4
1,57,127,100
1,36,127,0
1,36,127,4
1,38,127,4
1,38,127,4
1,38,127,4
1,38,127,4
1,38,127,4
1,45,127,4
1,38,127,100
1,38,127,4
1,45,127,4
1,38,127,100
1,38,127,4
1,36,127,4
1,57,127,0
1,46,127,100
1,38,127,4
1,46,127,0
1,46,127,100
1,46,127,100
1,36,127,0
1,36,127,100
1,46,127,0
1,46,127,100
1,38,127,0
1,46,127,100
1,36,127,0
1,46,127,100
1,46,127,100
1,36,127,0
1,46,127,100
1,38,127,0
1,46,127,100
1,46,127,100
1,36,127,0
1,46,127,100
1,36,127,0
1,46,127,100
1,38,127,0
1,46,127,100
1,36,127,100
1,49,127,0
1,46,127,100
1,38,127,4
1,46,127,0
1,46,127,100
1,46,127,100
1,36,127,0
1,36,127,100
1,46,127,0
1,46,127,100
1,38,127,0
1,46,127,100
1,36,127,0
1,46,127,100
1,46,127,100
1,36,127,0
1,46,127,100
1,38,127,0
1,46,127,100
1,46,127,100
1,36,127,0
1,46,127,100
1,36,127,0
1,46,127,100
1,38,127,0
1,46,127,100
1,36,127,100
1,57,127,0
1,46,127,100
1,38,127,4
1,46,127,0
1,46,127,100
1,46,127,100
1,36,127,0
1,36,127,100
1,46,127,0
1,46,127,100
1,38,127,0
1,46,127,100
1,36,127,0
1,46,127,100
1,46,127,100
1,36,127,0
1,46,127,100
1,38,127,0
1,36,127,100
1,46,127,0
1,46,127,100
1,46,127,100
1,36,127,0
1,46,127,100
1,38,127,0
1,46,127,100
1,36,127,100
1,57,127,0
1,46,127,100
1,38,127,4
1,46,127,0
1,46,127,100
1,46,127,100
1,36,127,0
1,36,127,100
1,46,127,0
1,46,127,100
1,38,127,0
1,46,127,100
1,36,127,0
1,46,127,100
1,46,127,100
1,36,127,0
1,46,127,100
1,38,127,0
1,46,127,100
1,46,127,100
1,36,127,0
1,46,127,100
1,36,127,0
1,46,127,100
1,38,127,0
1,46,127,100
1,36,127,100
1,49,127,0
1,46,127,100
1,38,127,4
1,46,127,0
1,46,127,100
1,46,127,100
1,36,127,0
1,36,127,100
1,46,127,0
1,46,127,100
1,38,127,0
1,46,127,100
1,36,127,0
1,46,127,100
1,46,127,100
1,36,127,0
1,46,127,100
1,38,127,0
1,46,127,100
1,46,127,100
1,36,127,0
1,46,127,100
1,36,127,0
1,46,127,100
1,38,127,0
1,46,127,100
1,36,127,100
1,57,127,0
1,46,127,100
1,38,127,4
1,46,127,0
1,46,127,100
1,46,127,100
1,36,127,0
1,36,127,100
1,46,127,0
1,46,127,100
1,38,127,0
1,46,127,100
1,36,127,0
1,36,127,292
1,38,127,4
1,38,127,4
1,38,127,4
1,38,127,4
1,38,127,4
1,45,127,4
1,38,127,100
1,38,127,4
1,45,127,4
1,38,127,100
1,38,127,4
1,36,127,4
1,57,127,0
1,46,127,100
1,38,127,4
1,46,127,0
1,46,127,100
1,46,127,100
1,36,127,0
1,36,127,100
1,46,127,0
1,46,127,100
1,38,127,0
1,46,127,100
1,36,127,0
1,46,127,100
1,46,127,100
1,36,127,0
1,46,127,100
1,38,127,0
1,36,127,100
1,46,127,0
1,46,127,100
1,46,127,100
1,36,127,0
1,46,127,100
1,38,127,0
1,46,127,100
1,36,127,100
1,57,127,0
1,46,127,100
1,38,127,4
1,46,127,0
1,46,127,100
1,46,127,100
1,36,127,0
1,36,127,100
1,46,127,0
1,46,127,100
1,38,127,0
1,46,127,100
1,36,127,0
1,46,127,100
1,46,127,100
1,36,127,0
1,46,127,100
1,38,127,0
1,46,127,100
1,46,127,100
1,36,127,0
1,46,127,100
1,36,127,0
1,46,127,100
1,38,127,0
1,46,127,100
1,36,127,100
1,49,127,0
1,46,127,100
1,38,127,4
1,46,127,0
1,46,127,100
1,46,127,100
1,36,127,0
1,36,127,100
1,46,127,0
1,46,127,100
1,38,127,0
1,46,127,100
1,36,127,0
1,46,127,100
1,46,127,100
1,36,127,0
1,46,127,100
1,38,127,0
1,46,127,100
1,46,127,100
1,36,127,0
1,46,127,100
1,36,127,0
1,46,127,100
1,38,127,0
1,46,127,100
1,36,127,100
1,49,127,0
1,46,127,100
1,38,127,4
1,46,127,0
1,46,127,100
1,46,127,100
1,36,127,0
1,36,127,100
1,46,127,0
1,46,127,100
1,38,127,0
1,46,127,100
1,36,127,0
1,36,127,292
1,38,127,4
1,38,127,4
1,38,127,4
1,38,127,4
1,38,127,4
1,45,127,4
1,38,127,100
1,38,127,4
1,45,127,4
1,38,127,100
1,38,127,4
1,36,127,1540
1,49,127,0
1,46,127,100
1,38,127,4
1,46,127,0
1,46,127,100
1,46,127,100
1,36,127,0
1,36,127,100
1,46,127,0
1,46,127,100
1,38,127,0
1,46,127,100
1,36,127,0
1,46,127,100
1,46,127,100
1,36,127,0
1,46,127,100
1,38,127,0
1,46,127,100
1,46,127,100
1,36,127,0
1,46,127,100
1,36,127,0
1,46,127,100
1,38,127,0
1,46,127,100
1,36,127,100
1,49,127,0
1,46,127,100
1,38,127,4
1,46,127,0
1,46,127,100
1,46,127,100
1,36,127,0
1,36,127,100
1,46,127,0
1,46,127,100
1,38,127,0
1,46,127,100
1,36,127,0
1,46,127,100
1,46,127,100
1,36,127,0
1,46,127,100
1,38,127,0
1,46,127,100
1,46,127,100
1,36,127,0
1,46,127,100
1,36,127,0
1,46,127,100
1,38,127,0
1,46,127,100
1,36,127,100
1,49,127,0
1,46,127,100
1,38,127,4
1,46,127,0
1,46,127,100
1,46,127,100
1,36,127,0
1,36,127,100
1,46,127,0
1,46,127,100
1,38,127,0
1,46,127,100
1,36,127,0
1,46,127,100
1,46,127,100
1,36,127,0
1,46,127,100
1,38,127,0
1,46,127,100
1,46,127,100
1,36,127,0
1,46,127,100
1,36,127,0
1,46,127,100
1,38,127,0
1,46,127,100
1,36,127,100
1,49,127,0
1,46,127,100
1,38,127,4
1,46,127,0
1,46,127,100
1,46,127,100
1,36,127,0
1,36,127,100
1,46,127,0
1,46,127,100
1,38,127,0
1,46,127,100
1,36,127,0
1,36,127,100
1,49,127,0
1,46,127,100
1,38,127,4
1,46,127,0
1,46,127,100
1,46,127,100
1,36,127,0
1,36,127,100
1,46,127,0
1,46,127,100
1,38,127,0
1,46,127,100
1,36,127,0
1,46,127,100
1,46,127,100
1,36,127,0
1,46,127,100
1,38,127,0
1,46,127,100
1,46,127,100
1,36,127,0
1,46,127,100
1,36,127,0
1,46,127,100
1,38,127,0
1,46,127,100
1,36,127,100
1,57,127,0
1,46,127,100
1,38,127,4
1,46,127,0
1,46,127,100
1,46,127,100
1,36,127,0
1,36,127,100
1,46,127,0
1,46,127,100
1,38,127,0
1,46,127,100
1,36,127,0
1,46,127,100
1,46,127,100
1,36,127,0
1,46,127,100
1,38,127,0
1,36,127,100
1,46,127,0
1,46,127,100
1,46,127,100
1,36,127,0
1,46,127,100
1,38,127,0
1,46,127,100
1,36,127,100
1,57,127,0
1,46,127,100
1,38,127,4
1,46,127,0
1,46,127,100
1,46,127,100
1,36,127,0
1,36,127,100
1,46,127,0
1,46,127,100
1,38,127,0
1,46,127,100
1,36,127,0
1,46,127,100
1,46,127,100
1,36,127,0
1,46,127,100
1,38,127,0
1,46,127,100
1,46,127,100
1,36,127,0
1,46,127,100
1,36,127,0
1,46,127,100
1,38,127,0
1,46,127,100
1,36,127,100
1,49,127,0
1,46,127,100
1,38,127,4
1,46,127,0
1,46,127,100
1,46,127,100
1,36,127,0
1,36,127,100
1,46,127,0
1,46,127,100
1,38,127,0
1,46,127,100
1,36,127,0
1,46,127,100
1,46,127,100
1,36,127,0
1,46,127,100
1,38,127,0
1,46,127,100
1,46,127,100
1,36,127,0
1,46,127,100
1,36,127,0
1,46,127,100
1,38,127,0
1,46,127,100
1,36,127,292
1,38,127,4
1,38,127,4
1,38,127,4
1,38,127,4
1,38,127,4
1,45,127,4
1,38,127,100
1,38,127,4
1,45,127,4
1,38,127,100
1,38,127,4
1,36,127,4
1,57,127,0
1,46,127,100
1,38,127,4
1,46,127,0
1,46,127,100
1,46,127,100
1,36,127,0
1,36,127,100
1,46,127,0
1,46,127,100
1,38,127,0
1,46,127,100
1,36,127,0
1,36,127,100
1,57,127,0
1,46,127,100
1,38,127,4
1,46,127,0
1,46,127,100
1,46,127,100
1,36,127,0
1,36,127,100
1,46,127,0
1,46,127,100
1,38,127,0
1,46,127,100
1,36,127,0
1,46,127,100
1,46,127,100
1,36,127,0
1,46,127,100
1,38,127,0
1,46,127,100
1,46,127,100
1,36,127,0
1,46,127,100
1,36,127,0
1,46,127,100
1,38,127,0
1,46,127,100
1,36,127,100
1,49,127,0
1,46,127,100
1,38,127,4
1,46,127,0
1,46,127,100
1,46,127,100
1,36,127,0
1,36,127,100
1,46,127,0
1,46,127,100
1,38,127,0
1,46,127,100
1,36,127,0
1,46,127,100
1,46,127,100
1,36,127,0
1,46,127,100
1,38,127,0
1,46,127,100
1,46,127,100
1,36,127,0
1,46,127,100
1,36,127,0
1,46,127,100
1,38,127,0
1,46,127,100
1,36,127,100
1,49,127,0
1,46,127,100
1,38,127,4
1,46,127,0
1,46,127,100
1,46,127,100
1,36,127,0
1,36,127,100
1,46,127,0
1,46,127,100
1,38,127,0
1,46,127,100
1,36,127,0
1,36,127,100
1,49,127,0
1,46,127,100
1,38,127,4
1,46,127,0
1,46,127,100
1,46,127,100
1,36,127,0
1,36,127,100
1,46,127,0
1,46,127,100
1,38,127,0
1,46,127,100
1,36,127,0
1,36,127,292
1,38,127,4
1,38,127,4
1,38,127,4
1,38,127,4
1,38,127,4
1,45,127,4
1,38,127,100
1,38,127,4
1,45,127,4
1,38,127,100
1,38,127,4
1,36,127,1540
1,49,127,0
1,46,127,100
1,38,127,4
1,46,127,0
1,46,127,100
1,46,127,100
1,36,127,0
1,36,127,100
1,46,127,0
1,46,127,100
1,38,127,0
1,46,127,100
1,36,127,0
1,46,127,100
1,46,127,100
1,36,127,0
1,46,127,100
1,38,127,0
1,46,127,100
1,46,127,100
1,36,127,0
1,46,127,100
1,36,127,0
1,46,127,100
1,38,127,0
1,46,127,100
1,36,127,100
1,57,127,0
1,46,127,100
1,38,127,4
1,46,127,0
1,46,127,100
1,46,127,100
1,36,127,0
1,36,127,100
1,46,127,0
1,46,127,100
1,38,127,0
1,46,127,100
1,36,127,0
1,46,127,100
1,46,127,100
1,36,127,0
1,46,127,100
1,38,127,0
1,36,127,100
1,46,127,0
1,46,127,100
1,46,127,100
1,36,127,0
1,46,127,100
1,38,127,0
1,46,127,100
1,36,127,100
1,57,127,0
1,46,127,100
1,38,127,4
1,46,127,0
1,46,127,100
1,46,127,100
1,36,127,0
1,36,127,100
1,46,127,0
1,46,127,100
1,38,127,0
1,46,127,100
1,36,127,0
1,46,127,100
1,46,127,100
1,36,127,0
1,46,127,100
1,38,127,0
1,46,127,100
1,46,127,100
1,36,127,0
1,46,127,100
1,36,127,0
1,46,127,100
1,38,127,0
1,46,127,100
1,36,127,100
1,49,127,0
1,46,127,100
1,38,127,4
1,46,127,0
1,46,127,100
1,46,127,100
1,36,127,0
1,36,127,100
1,46,127,0
1,46,127,100
1,38,127,0
1,46,127,100
1,36,127,0
1,46,127,100
1,46,127,100
1,36,127,0
1,46,127,100
1,38,127,0
1,46,127,100
1,46,127,100
1,36,127,0
1,46,127,100
1,36,127,0
1,46,127,100
1,38,127,0
1,46,127,100
1,36,127,100
1,57,127,0
1,46,127,100
1,38,127,4
1,46,127,0
1,46,127,100
1,46,127,100
1,36,127,0
1,36,127,100
1,46,127,0
1,46,127,100
1,38,127,0
1,46,127,100
1,36,127,0
1,46,127,100
1,46,127,100
1,36,127,0
1,46,127,100
1,38,127,0
1,36,127,100
1,46,127,0
1,46,127,100
1,46,127,100
1,36,127,0
1,46,127,100
1,38,127,0
1,46,127,100
1,36,127,100
1,57,127,0
1,46,127,100
1,38,127,4
1,46,127,0
1,46,127,100
1,46,127,100
1,36,127,0
1,36,127,100
1,46,127,0
1,46,127,100
1,38,127,0
1,46,127,100
1,36,127,0
1,46,127,100
1,46,127,100
1,36,127,0
1,46,127,100
1,38,127,0
1,46,127,100
1,46,127,100
1,36,127,0
1,46,127,100
1,36,127,0
1,46,127,100
1,38,127,0
1,46,127,100
1,36,127,100
1,49,127,0
1,46,127,100
1,38,127,4
1,46,127,0
1,46,127,100
1,46,127,100
1,36,127,0
1,36,127,100
1,46,127,0
1,46,127,100
1,38,127,0
1,46,127,100
1,36,127,0
1,46,127,100
1,46,127,100
1,36,127,0
1,46,127,100
1,38,127,0
1,46,127,100
1,46,127,100
1,36,127,0
1,46,127,100
1,36,127,0
1,46,127,100
1,38,127,0
1,46,127,100
1,36,127,100
1,57,127,0
1,46,127,100
1,38,127,4
1,46,127,0
1,46,127,100
1,46,127,100
1,36,127,0
1,36,127,100
1,46,127,0
1,46,127,100
1,38,127,0
1,46,127,100
1,36,127,0
1,36,127,292
1,38,127,4
1,38,127,4
1,38,127,4
1,38,127,4
1,38,127,4
1,45,127,4
1,38,127,100
1,38,127,4
1,45,127,4
1,38,127,100
1,38,127,4
1,36,127,4
1,57,127,0
1,46,127,100
1,38,127,4
1,46,127,0
1,46,127,100
1,46,127,100
1,36,127,0
1,36,127,100
1,46,127,0
1,46,127,100
1,38,127,0
1,46,127,100
1,36,127,0
1,46,127,100
1,46,127,100
1,36,127,0
1,46,127,100
1,38,127,0
1,46,127,100
1,46,127,100
1,36,127,0
1,46,127,100
1,36,127,0
1,46,127,100
1,38,127,0
1,46,127,100
1,36,127,100
1,49,127,0
1,46,127,100
1,38,127,4
1,46,127,0
1,46,127,100
1,46,127,100
1,36,127,0
1,36,127,100
1,46,127,0
1,46,127,100
1,38,127,0
1,46,127,100
1,36,127,0
1,46,127,100
1,46,127,100
1,36,127,0
1,46,127,100
1,38,127,0
1,46,127,100
1,46,127,100
1,36,127,0
1,46,127,100
1,36,127,0
1,46,127,100
1,38,127,0
1,46,127,100
1,36,127,100
1,57,127,0
1,46,127,100
1,38,127,4
1,46,127,0
1,46,127,100
1,46,127,100
1,36,127,0
1,36,127,100
1,46,127,0
1,46,127,100
1,38,127,0
1,46,127,100
1,36,127,0
1,46,127,100
1,46,127,100
1,36,127,0
1,46,127,100
1,38,127,0
1,36,127,100
1,46,127,0
1,46,127,100
1,46,127,100
1,36,127,0
1,46,127,100
1,38,127,0
1,46,127,100
1,36,127,100
1,57,127,0
1,46,127,100
1,38,127,4
1,46,127,0
1,46,127,100
1,46,127,100
1,36,127,0
1,36,127,100
1,46,127,0
1,46,127,100
1,38,127,0
1,46,127,100
1,36,127,0
1,36,127,292
1,38,127,4
1,38,127,4
1,38,127,4
1,38,127,4
1,38,127,4
1,45,127,4
1,38,127,100
1,38,127,4
1,45,127,4
1,38,127,100
1,38,127,4
1,49,127,1548
2,36,127,3096
2,31,127,28
2,38,127,612
2,36,127,8
2,35,127,384
2,33,127,356
2,31,127,352
2,31,127,100
2,36,127,424
2,36,127,160
2,31,127,360
2,31,127,188
2,31,127,136
2,31,127,144
2,36,127,4
2,36,127,144
2,31,127,12
2,31,127,184
2,38,127,36
2,38,127,132
2,38,127,140
2,38,127,124
2,31,127,32
2,31,127,124
2,36,127,76
2,36,127,156
2,31,127,28
2,31,127,140
2,31,127,136
2,31,127,116
2,36,127,24
2,36,127,144
2,31,127,4
2,31,127,192
2,38,127,16
2,38,127,168
2,38,127,144
2,38,127,136
2,31,127,32
2,31,127,176
2,36,127,16
2,36,127,144
2,31,127,36
2,31,127,220
2,31,127,188
2,31,127,144
2,36,127,88
2,36,127,156
2,31,127,36
2,31,127,188
2,38,127,32
2,38,127,168
2,38,127,184
2,38,127,164
2,31,127,80
2,36,127,112
2,31,127,24
2,31,127,144
2,36,127,8
2,36,127,136
