track,note,velocity,time
1,44,110,768
1,51,110,0
1,56,110,0
1,44,0,142
1,51,0,0
1,56,0,0
1,44,110,2
1,51,110,0
1,56,110,0
1,44,0,142
1,51,0,0
1,56,0,0
1,44,110,2
1,51,110,0
1,56,110,0
1,44,0,94
1,51,0,0
1,56,0,0
1,42,110,2
1,49,110,0
1,54,110,0
1,42,0,142
1,49,0,0
1,54,0,0
1,42,110,2
1,49,110,0
1,54,110,0
1,42,0,142
1,49,0,0
1,54,0,0
1,42,110,2
1,49,110,0
1,54,110,0
1,42,0,94
1,49,0,0
1,54,0,0
1,44,110,2
1,51,110,0
1,56,110,0
1,44,0,142
1,51,0,0
1,56,0,0
1,44,110,2
1,51,110,0
1,56,110,0
1,44,0,142
1,51,0,0
1,56,0,0
1,44,110,2
1,51,110,0
1,56,110,0
1,44,0,94
1,51,0,0
1,56,0,0
1,42,110,2
1,49,110,0
1,54,110,0
1,42,0,142
1,49,0,0
1,54,0,0
1,42,110,2
1,49,110,0
1,54,110,0
1,42,0,142
1,49,0,0
1,54,0,0
1,42,110,2
1,49,110,0
1,54,110,0
1,42,0,94
1,49,0,0
1,54,0,0
1,44,110,2
1,51,110,0
1,56,110,0
1,44,0,142
1,51,0,0
1,56,0,0
1,44,110,2
1,51,110,0
1,56,110,0
1,44,0,142
1,51,0,0
1,56,0,0
1,44,110,2
1,51,110,0
1,56,110,0
1,44,0,94
1,51,0,0
1,56,0,0
1,42,110,2
1,49,110,0
1,54,110,0
1,42,0,142
1,49,0,0
1,54,0,0
1,42,110,2
1,49,110,0
1,54,110,0
1,42,0,142
1,49,0,0
1,54,0,0
1,42,110,2
1,49,110,0
1,54,110,0
1,42,0,94
1,49,0,0
1,54,0,0
1,44,110,2
1,51,110,0
1,56,110,0
1,44,0,142
1,51,0,0
1,56,0,0
1,44,110,2
1,51,110,0
1,56,110,0
1,44,0,142
1,51,0,0
1,56,0,0
1,44,110,2
1,51,110,0
1,56,110,0
1,44,0,94
1,51,0,0
1,56,0,0
1,42,110,2
1,49,110,0
1,54,110,0
1,42,0,142
1,49,0,0
1,54,0,0
1,42,110,2
1,49,110,0
1,54,110,0
1,42,0,142
1,49,0,0
1,54,0,0
1,42,110,2
1,49,110,0
1,54,110,0
1,42,0,94
1,49,0,0
1,54,0,0
1,44,110,2
1,51,110,0
1,56,110,0
1,44,0,142
1,51,0,0
1,56,0,0
1,44,110,2
1,51,110,0
1,56,110,0
1,44,0,142
1,51,0,0
1,56,0,0
1,44,110,2
1,51,110,0
1,56,110,0
1,44,0,94
1,51,0,0
1,56,0,0
1,42,110,2
1,49,110,0
1,54,110,0
1,42,0,142
1,49,0,0
1,54,0,0
1,42,110,2
1,49,110,0
1,54,110,0
1,42,0,142
1,49,0,0
1,54,0,0
1,42,110,2
1,49,110,0
1,54,110,0
1,42,0,94
1,49,0,0
1,54,0,0
1,44,110,2
1,51,110,0
1,56,110,0
1,44,0,142
1,51,0,0
1,56,0,0
1,44,110,2
1,51,110,0
1,56,110,0
1,44,0,142
1,51,0,0
1,56,0,0
1,44,110,2
1,51,110,0
1,56,110,0
1,44,0,94
1,51,0,0
1,56,0,0
1,42,110,2
1,49,110,0
1,54,110,0
1,42,0,142
1,49,0,0
1,54,0,0
1,42,110,2
1,49,110,0
1,54,110,0
1,42,0,142
1,49,0,0
1,54,0,0
1,42,110,2
1,49,110,0
1,54,110,0
1,42,0,94
1,49,0,0
1,54,0,0
1,44,110,2
1,51,110,0
1,56,110,0
1,44,0,142
1,51,0,0
1,56,0,0
1,44,110,2
1,51,110,0
1,56,110,0
1,44,0,142
1,51,0,0
1,56,0,0
1,44,110,2
1,51,110,0
1,56,110,0
1,44,0,94
1,51,0,0
1,56,0,0
1,42,110,2
1,49,110,0
1,54,110,0
1,42,0,142
1,49,0,0
1,54,0,0
1,42,110,2
1,49,110,0
1,54,110,0
1,42,0,142
1,49,0,0
1,54,0,0
1,42,110,2
1,49,110,0
1,54,110,0
1,42,0,94
1,49,0,0
1,54,0,0
1,44,110,2
1,51,110,0
1,56,110,0
1,44,0,94
1,51,0,0
1,56,0,0
1,44,110,2
1,51,110,0
1,56,110,0
1,44,0,46
1,51,0,0
1,56,0,0
1,44,110,2
1,51,110,0
1,56,110,0
1,44,0,94
1,51,0,0
1,56,0,0
1,44,110,2
1,51,110,0
1,56,110,0
1,44,0,46
1,51,0,0
1,56,0,0
1,44,110,2
1,51,110,0
1,56,110,0
1,44,0,46
1,51,0,0
1,56,0,0
1,44,110,2
1,51,110,0
1,56,110,0
1,44,0,46
1,51,0,0
1,56,0,0
1,44,110,2
1,51,110,0
1,56,110,0
1,44,0,94
1,51,0,0
1,56,0,0
1,44,110,2
1,51,110,0
1,56,110,0
1,44,0,46
1,51,0,0
1,56,0,0
1,44,110,2
1,51,110,0
1,56,110,0
1,44,0,94
1,51,0,0
1,56,0,0
1,44,110,2
1,51,110,0
1,56,110,0
1,44,0,46
1,51,0,0
1,56,0,0
1,44,110,2
1,51,110,0
1,56,110,0
1,44,0,46
1,51,0,0
1,56,0,0
1,44,110,2
1,51,110,0
1,56,110,0
1,44,0,46
1,51,0,0
1,56,0,0
1,49,110,2
1,56,110,0
1,61,110,0
1,49,0,94
1,56,0,0
1,61,0,0
1,49,110,2
1,56,110,0
1,61,110,0
1,49,0,46
1,56,0,0
1,61,0,0
1,49,110,2
1,56,110,0
1,61,110,0
1,49,0,94
1,56,0,0
1,61,0,0
1,49,110,2
1,56,110,0
1,61,110,0
1,49,0,46
1,56,0,0
1,61,0,0
1,49,110,2
1,56,110,0
1,61,110,0
1,49,0,46
1,56,0,0
1,61,0,0
1,49,110,2
1,56,110,0
1,61,110,0
1,49,0,46
1,56,0,0
1,61,0,0
1,49,110,2
1,56,110,0
1,61,110,0
1,49,0,94
1,56,0,0
1,61,0,0
1,49,110,2
1,56,110,0
1,61,110,0
1,49,0,46
1,56,0,0
1,61,0,0
1,49,110,2
1,56,110,0
1,61,110,0
1,49,0,94
1,56,0,0
1,61,0,0
1,49,110,2
1,56,110,0
1,61,110,0
1,49,0,46
1,56,0,0
1,61,0,0
1,49,110,2
1,56,110,0
1,61,110,0
1,49,0,46
1,56,0,0
1,61,0,0
1,49,110,2
1,56,110,0
1,61,110,0
1,49,0,46
1,56,0,0
1,61,0,0
1,51,110,2
1,58,110,0
1,63,110,0
1,51,0,94
1,58,0,0
1,63,0,0
1,51,110,2
1,58,110,0
1,63,110,0
1,51,0,46
1,58,0,0
1,63,0,0
1,51,110,2
1,58,110,0
1,63,110,0
1,51,0,94
1,58,0,0
1,63,0,0
1,51,110,2
1,58,110,0
1,63,110,0
1,51,0,46
1,58,0,0
1,63,0,0
1,51,110,2
1,58,110,0
1,63,110,0
1,51,0,46
1,58,0,0
1,63,0,0
1,51,110,2
1,58,110,0
1,63,110,0
1,51,0,46
1,58,0,0
1,63,0,0
1,51,110,2
1,58,110,0
1,63,110,0
1,51,0,94
1,58,0,0
1,63,0,0
1,51,110,2
1,58,110,0
1,63,110,0
1,51,0,46
1,58,0,0
1,63,0,0
1,51,110,2
1,58,110,0
1,63,110,0
1,51,0,94
1,58,0,0
1,63,0,0
1,51,110,2
1,58,110,0
1,63,110,0
1,51,0,46
1,58,0,0
1,63,0,0
1,51,110,2
1,58,110,0
1,63,110,0
1,51,0,46
1,58,0,0
1,63,0,0
1,51,110,2
1,58,110,0
1,63,110,0
1,51,0,46
1,58,0,0
1,63,0,0
1,44,110,2
1,51,110,0
1,56,110,0
1,44,0,94
1,51,0,0
1,56,0,0
1,44,110,2
1,51,110,0
1,56,110,0
1,44,0,46
1,51,0,0
1,56,0,0
1,44,110,2
1,51,110,0
1,56,110,0
1,44,0,94
1,51,0,0
1,56,0,0
1,44,110,2
1,51,110,0
1,56,110,0
1,44,0,46
1,51,0,0
1,56,0,0
1,44,110,2
1,51,110,0
1,56,110,0
1,44,0,46
1,51,0,0
1,56,0,0
1,44,110,2
1,51,110,0
1,56,110,0
1,44,0,46
1,51,0,0
1,56,0,0
1,44,110,2
1,51,110,0
1,56,110,0
1,44,0,94
1,51,0,0
1,56,0,0
1,44,110,2
1,51,110,0
1,56,110,0
1,44,0,46
1,51,0,0
1,56,0,0
1,44,110,2
1,51,110,0
1,56,110,0
1,44,0,94
1,51,0,0
1,56,0,0
1,44,110,2
1,51,110,0
1,56,110,0
1,44,0,46
1,51,0,0
1,56,0,0
1,44,110,2
1,51,110,0
1,56,110,0
1,44,0,46
1,51,0,0
1,56,0,0
1,44,110,2
1,51,110,0
1,56,110,0
1,44,0,46
1,51,0,0
1,56,0,0
1,41,110,2
1,48,110,0
1,53,110,0
1,41,0,94
1,48,0,0
1,53,0,0
1,41,110,2
1,48,110,0
1,53,110,0
1,41,0,46
1,48,0,0
1,53,0,0
1,41,110,2
1,48,110,0
1,53,110,0
1,41,0,46
1,48,0,0
1,53,0,0
1,41,110,2
1,48,110,0
1,53,110,0
1,41,0,46
1,48,0,0
1,53,0,0
1,41,110,2
1,48,110,0
1,53,110,0
1,41,0,46
1,48,0,0
1,53,0,0
1,41,110,2
1,48,110,0
1,53,110,0
1,41,0,46
1,48,0,0
1,53,0,0
1,41,110,2
1,48,110,0
1,53,110,0
1,41,0,46
1,48,0,0
1,53,0,0
1,41,110,2
1,48,110,0
1,53,110,0
1,41,0,94
1,48,0,0
1,53,0,0
1,49,110,290
1,56,110,0
1,61,110,0
1,49,0,142
1,56,0,0
1,61,0,0
1,49,110,2
1,56,110,0
1,61,110,0
1,49,0,142
1,56,0,0
1,61,0,0
1,49,110,2
1,56,110,0
1,61,110,0
1,49,0,94
1,56,0,0
1,61,0,0
1,49,110,2
1,56,110,0
1,61,110,0
1,49,0,142
1,56,0,0
1,61,0,0
1,49,110,2
1,56,110,0
1,61,110,0
1,49,0,142
1,56,0,0
1,61,0,0
1,49,110,2
1,56,110,0
1,61,110,0
1,49,0,94
1,56,0,0
1,61,0,0
1,43,110,2
1,51,110,0
1,55,110,0
1,43,0,142
1,51,0,0
1,55,0,0
1,43,110,2
1,51,110,0
1,55,110,0
1,43,0,142
1,51,0,0
1,55,0,0
1,43,110,2
1,51,110,0
1,55,110,0
1,43,0,94
1,51,0,0
1,55,0,0
1,43,110,2
1,51,110,0
1,55,110,0
1,43,0,142
1,51,0,0
1,55,0,0
1,43,110,2
1,51,110,0
1,55,110,0
1,43,0,142
1,51,0,0
1,55,0,0
1,43,110,2
1,51,110,0
1,55,110,0
1,43,0,94
1,51,0,0
1,55,0,0
1,44,110,2
1,51,110,0
1,56,110,0
1,44,0,142
1,51,0,0
1,56,0,0
1,44,110,2
1,51,110,0
1,56,110,0
1,44,0,142
1,51,0,0
1,56,0,0
1,44,110,2
1,51,110,0
1,56,110,0
1,44,0,94
1,51,0,0
1,56,0,0
1,42,110,2
1,49,110,0
1,54,110,0
1,42,0,142
1,49,0,0
1,54,0,0
1,42,110,2
1,49,110,0
1,54,110,0
1,42,0,142
1,49,0,0
1,54,0,0
1,42,110,2
1,49,110,0
1,54,110,0
1,42,0,94
1,49,0,0
1,54,0,0
1,44,110,2
1,51,110,0
1,56,110,0
1,44,0,142
1,51,0,0
1,56,0,0
1,44,110,2
1,51,110,0
1,56,110,0
1,44,0,142
1,51,0,0
1,56,0,0
1,44,110,2
1,51,110,0
1,56,110,0
1,44,0,94
1,51,0,0
1,56,0,0
1,42,110,2
1,49,110,0
1,54,110,0
1,42,0,142
1,49,0,0
1,54,0,0
1,42,110,2
1,49,110,0
1,54,110,0
1,42,0,142
1,49,0,0
1,54,0,0
1,42,110,2
1,49,110,0
1,54,110,0
1,42,0,94
1,49,0,0
1,54,0,0
1,44,110,2
1,51,110,0
1,56,110,0
1,44,0,142
1,51,0,0
1,56,0,0
1,44,110,2
1,51,110,0
1,56,110,0
1,44,0,142
1,51,0,0
1,56,0,0
1,44,110,2
1,51,110,0
1,56,110,0
1,44,0,94
1,51,0,0
1,56,0,0
1,42,110,2
1,49,110,0
1,54,110,0
1,42,0,142
1,49,0,0
1,54,0,0
1,42,110,2
1,49,110,0
1,54,110,0
1,42,0,142
1,49,0,0
1,54,0,0
1,42,110,2
1,49,110,0
1,54,110,0
1,42,0,94
1,49,0,0
1,54,0,0
1,44,110,2
1,51,110,0
1,56,110,0
1,44,0,142
1,51,0,0
1,56,0,0
1,44,110,2
1,51,110,0
1,56,110,0
1,44,0,142
1,51,0,0
1,56,0,0
1,44,110,2
1,51,110,0
1,56,110,0
1,44,0,94
1,51,0,0
1,56,0,0
1,42,110,2
1,49,110,0
1,54,110,0
1,42,0,142
1,49,0,0
1,54,0,0
1,42,110,2
1,49,110,0
1,54,110,0
1,42,0,142
1,49,0,0
1,54,0,0
1,42,110,2
1,49,110,0
1,54,110,0
1,42,0,94
1,49,0,0
1,54,0,0
1,44,110,2
1,51,110,0
1,56,110,0
1,44,0,142
1,51,0,0
1,56,0,0
1,44,110,2
1,51,110,0
1,56,110,0
1,44,0,142
1,51,0,0
1,56,0,0
1,44,110,2
1,51,110,0
1,56,110,0
1,44,0,94
1,51,0,0
1,56,0,0
1,42,110,2
1,49,110,0
1,54,110,0
1,42,0,142
1,49,0,0
1,54,0,0
1,42,110,2
1,49,110,0
1,54,110,0
1,42,0,142
1,49,0,0
1,54,0,0
1,42,110,2
1,49,110,0
1,54,110,0
1,42,0,94
1,49,0,0
1,54,0,0
1,44,110,2
1,51,110,0
1,56,110,0
1,44,0,142
1,51,0,0
1,56,0,0
1,44,110,2
1,51,110,0
1,56,110,0
1,44,0,142
1,51,0,0
1,56,0,0
1,44,110,2
1,51,110,0
1,56,110,0
1,44,0,94
1,51,0,0
1,56,0,0
1,42,110,2
1,49,110,0
1,54,110,0
1,42,0,142
1,49,0,0
1,54,0,0
1,42,110,2
1,49,110,0
1,54,110,0
1,42,0,142
1,49,0,0
1,54,0,0
1,42,110,2
1,49,110,0
1,54,110,0
1,42,0,94
1,49,0,0
1,54,0,0
1,44,110,2
1,51,110,0
1,56,110,0
1,44,0,142
1,51,0,0
1,56,0,0
1,44,110,2
1,51,110,0
1,56,110,0
1,44,0,142
1,51,0,0
1,56,0,0
1,44,110,2
1,51,110,0
1,56,110,0
1,44,0,94
1,51,0,0
1,56,0,0
1,42,110,2
1,49,110,0
1,54,110,0
1,42,0,142
1,49,0,0
1,54,0,0
1,42,110,2
1,49,110,0
1,54,110,0
1,42,0,142
1,49,0,0
1,54,0,0
1,42,110,2
1,49,110,0
1,54,110,0
1,42,0,94
1,49,0,0
1,54,0,0
1,44,110,2
1,51,110,0
1,56,110,0
1,44,0,142
1,51,0,0
1,56,0,0
1,44,110,2
1,51,110,0
1,56,110,0
1,44,0,142
1,51,0,0
1,56,0,0
1,44,110,2
1,51,110,0
1,56,110,0
1,44,0,94
1,51,0,0
1,56,0,0
1,42,110,2
1,49,110,0
1,54,110,0
1,42,0,142
1,49,0,0
1,54,0,0
1,42,110,2
1,49,110,0
1,54,110,0
1,42,0,142
1,49,0,0
1,54,0,0
1,42,110,2
1,49,110,0
1,54,110,0
1,42,0,94
1,49,0,0
1,54,0,0
1,44,110,2
1,51,110,0
1,56,110,0
1,44,0,142
1,51,0,0
1,56,0,0
1,44,110,2
1,51,110,0
1,56,110,0
1,44,0,142
1,51,0,0
1,56,0,0
1,44,110,2
1,51,110,0
1,56,110,0
1,44,0,94
1,51,0,0
1,56,0,0
1,42,110,2
1,49,110,0
1,54,110,0
1,42,0,142
1,49,0,0
1,54,0,0
1,42,110,2
1,49,110,0
1,54,110,0
1,42,0,142
1,49,0,0
1,54,0,0
1,42,110,2
1,49,110,0
1,54,110,0
1,42,0,94
1,49,0,0
1,54,0,0
1,44,110,2
1,51,110,0
1,56,110,0
1,44,0,94
1,51,0,0
1,56,0,0
1,44,110,2
1,51,110,0
1,56,110,0
1,44,0,46
1,51,0,0
1,56,0,0
1,44,110,2
1,51,110,0
1,56,110,0
1,44,0,94
