track,note,velocity,time
1,69,100,4020
1,69,0,40
1,69,100,20
1,69,0,60
1,73,100,0
1,73,0,120
1,74,100,0
1,74,0,120
1,73,100,0
1,73,0,120
1,71,100,0
1,71,0,120
1,69,100,0
1,69,0,120
1,71,100,0
1,71,0,120
1,73,100,0
1,73,0,180
1,69,100,900
1,69,0,40
1,69,100,20
1,69,0,40
1,69,100,20
1,69,0,60
1,73,100,0
1,73,0,60
1,74,100,0
1,74,0,120
1,73,100,0
1,73,0,120
1,71,100,0
1,71,0,120
1,69,100,0
1,69,0,120
1,71,100,0
1,71,0,40
1,71,100,20
1,71,0,180
1,69,100,0
1,69,0,60
1,68,100,0
1,68,0,180
1,69,100,720
1,69,0,40
1,69,100,20
1,69,0,60
1,73,100,0
1,73,0,120
1,74,100,0
1,74,0,120
1,73,100,0
1,73,0,120
1,71,100,0
1,71,0,120
1,69,100,0
1,69,0,120
1,71,100,0
1,71,0,120
1,73,100,0
1,73,0,180
1,69,100,840
1,69,0,40
1,69,100,20
1,69,0,40
1,69,100,20
1,69,0,60
1,73,100,0
1,73,0,120
1,74,100,0
1,74,0,120
1,73,100,0
1,73,0,120
1,71,100,0
1,71,0,120
1,69,100,0
1,69,0,120
1,71,100,0
1,71,0,90
1,71,100,30
1,71,0,60
1,69,100,0
1,69,0,60
1,71,100,0
1,71,0,90
1,71,100,30
1,71,0,60
1,69,100,0
1,69,0,60
1,71,100,0
1,71,0,90
1,71,100,30
1,71,0,40
1,71,100,20
1,71,0,60
1,69,100,0
1,69,0,60
1,73,100,0
1,73,0,60
1,71,100,0
1,71,0,40
1,71,100,20
1,71,0,60
1,76,100,0
1,76,0,60
1,78,100,0
1,78,0,60
1,76,100,0
1,76,0,80
1,76,100,40
1,76,0,180
1,69,100,60
1,69,0,60
1,78,100,0
1,78,0,120
1,76,100,0
1,76,0,40
1,76,100,20
1,76,0,180
1,78,100,120
1,78,0,60
1,76,100,0
1,76,0,80
1,76,100,40
1,76,0,120
1,74,100,0
1,74,0,120
1,73,100,0
1,73,0,120
1,71,100,0
1,71,0,120
1,70,100,0
1,70,0,120
1,73,100,0
1,73,0,120
1,74,100,0
1,74,0,120
1,73,100,0
1,73,0,120
1,71,100,0
1,71,0,120
1,69,100,0
1,69,0,120
1,71,100,0
1,71,0,60
1,69,100,0
1,69,0,80
1,69,100,40
1,69,0,60
1,71,100,0
1,71,0,180
1,69,100,0
1,69,0,40
1,69,100,20
1,69,0,120
1,64,100,0
1,64,0,180
1,69,100,960
1,69,0,40
1,69,100,20
1,69,0,60
1,73,100,0
1,73,0,60
1,74,100,0
1,74,0,120
1,73,100,0
1,73,0,120
1,71,100,0
1,71,0,120
1,69,100,0
1,69,0,120
1,71,100,0
1,71,0,120
1,73,100,0
1,73,0,180
1,69,100,960
1,69,0,60
1,73,100,0
1,73,0,120
1,74,100,0
1,74,0,120
1,73,100,0
1,73,0,120
1,71,100,0
1,71,0,120
1,69,100,0
1,69,0,120
1,71,100,0
1,71,0,40
1,71,100,20
1,71,0,180
1,69,100,0
1,69,0,60
1,68,100,0
1,68,0,180
1,73,100,780
1,69,100,0
1,69,0,60
1,73,0,0
1,76,100,0
1,73,100,0
1,73,0,120
1,76,0,0
1,78,100,0
1,74,100,0
1,74,0,120
1,78,0,0
1,76,100,0
1,73,100,0
1,73,0,120
1,76,0,0
1,74,100,0
1,71,100,0
1,71,0,120
1,74,0,0
1,73,100,0
1,69,100,0
1,69,0,120
1,73,0,0
1,74,100,0
1,71,100,0
1,71,0,120
1,74,0,0
1,76,100,0
1,73,100,0
1,73,0,180
1,76,0,0
1,73,100,960
1,69,100,0
1,69,0,40
1,73,0,0
1,73,100,20
1,69,100,0
1,69,0,60
1,73,0,0
1,76,100,0
1,73,100,0
1,73,0,60
1,76,0,0
1,78,100,0
1,74,100,0
1,74,0,120
1,78,0,0
1,76,100,0
1,73,100,0
1,73,0,120
1,76,0,0
1,74,100,0
1,71,100,0
1,71,0,120
1,74,0,0
1,73,100,0
1,69,100,0
1,69,0,120
1,73,0,0
1,76,100,0
1,71,100,0
1,71,0,90
1,76,0,0
1,71,100,30
1,76,100,0
1,76,0,80
1,71,0,0
1,71,100,40
1,76,100,0
1,76,0,90
1,71,0,0
1,71,100,30
1,76,100,0
1,76,0,80
1,71,0,0
1,71,100,40
1,76,100,0
1,76,0,90
1,71,0,0
1,76,100,30
1,71,100,0
1,71,0,40
1,76,0,0
1,71,100,20
1,71,0,60
1,69,100,0
1,69,0,60
1,73,100,0
1,73,0,60
1,71,100,0
1,71,0,40
1,71,100,20
1,71,0,60
1,76,100,0
1,76,0,60
1,78,100,0
1,78,0,60
1,76,100,0
1,76,0,80
1,76,100,40
1,76,0,180
1,69,100,60
1,69,0,60
1,78,100,0
1,78,0,120
1,76,100,0
1,76,0,40
1,76,100,20
1,76,0,180
1,78,100,120
1,78,0,60
1,76,100,0
1,76,0,80
1,76,100,40
1,76,0,120
1,74,100,0
1,74,0,120
1,73,100,0
1,73,0,120
1,71,100,0
1,71,0,120
1,70,100,0
1,70,0,120
1,73,100,0
1,73,0,120
1,74,100,0
1,74,0,120
1,73,100,0
1,73,0,120
1,71,100,0
1,71,0,120
1,69,100,0
1,69,0,120
1,71,100,0
1,71,0,60
1,69,100,0
1,69,0,80
1,69,100,40
1,69,0,60
1,71,100,0
1,71,0,180
1,69,100,0
1,69,0,40
1,69,100,20
1,69,0,120
1,64,100,0
1,64,0,180
1,73,100,8280
1,73,0,60
1,76,100,0
1,76,0,60
1,78,100,0
1,78,0,60
1,76,100,0
1,76,0,80
1,76,100,40
1,76,0,180
1,69,100,60
1,69,0,60
1,78,100,0
1,78,0,120
1,76,100,0
1,76,0,40
1,76,100,20
1,76,0,180
1,78,100,120
1,78,0,60
1,76,100,0
1,76,0,80
1,76,100,40
1,76,0,120
1,74,100,0
1,74,0,120
1,73,100,0
1,73,0,120
1,71,100,0
1,71,0,120
1,70,100,0
1,70,0,120
1,73,100,0
1,73,0,120
1,74,100,0
1,74,0,120
1,73,100,0
1,73,0,120
1,71,100,0
1,71,0,120
1,69,100,0
1,69,0,120
1,71,100,0
1,71,0,60
1,69,100,0
1,69,0,80
1,69,100,40
1,69,0,60
1,71,100,0
1,71,0,180
1,69,100,0
1,69,0,40
1,69,100,20
1,69,0,120
1,64,100,0
1,64,0,180
1,73,100,600
1,73,0,60
1,76,100,0
1,76,0,60
1,78,100,0
1,78,0,60
1,76,100,0
1,76,0,80
1,76,100,40
1,76,0,180
1,69,100,60
1,69,0,60
1,78,100,0
1,78,0,120
1,76,100,0
1,76,0,40
1,76,100,20
1,76,0,180
1,78,100,120
1,78,0,60
1,76,100,0
1,76,0,80
1,76,100,40
1,76,0,120
1,74,100,0
1,74,0,120
1,73,100,0
1,73,0,120
1,71,100,0
1,71,0,120
1,70,100,0
1,70,0,120
1,73,100,0
1,73,0,120
1,74,100,0
1,74,0,120
1,73,100,0
1,73,0,120
1,71,100,0
1,71,0,120
1,69,100,0
1,69,0,120
1,71,100,0
1,71,0,60
1,69,100,0
1,69,0,80
1,69,100,40
1,69,0,60
1,71,100,0
1,71,0,180
1,69,100,0
1,69,0,40
1,69,100,20
1,69,0,120
1,64,100,0
1,64,0,180
2,52,100,0
2,57,100,0
2,45,100,0
2,45,0,60
2,57,0,0
2,52,0,0
2,45,100,0
2,52,100,0
2,57,100,0
2,57,0,60
2,52,0,0
2,45,0,0
2,45,100,0
2,52,100,0
2,57,100,0
2,57,0,60
2,52,0,0
2,45,0,0
2,52,100,0
2,45,100,0
2,57,100,0
2,57,0,60
2,45,0,0
2,52,0,0
2,52,100,0
2,45,100,0
2,57,100,0
2,57,0,60
2,45,0,0
2,52,0,0
2,52,100,0
2,45,100,0
2,57,100,0
2,57,0,60
2,45,0,0
2,52,0,0
2,52,100,0
2,45,100,0
2,57,100,0
2,57,0,60
2,45,0,0
2,52,0,0
2,52,100,0
2,45,100,0
2,57,100,0
2,57,0,60
2,45,0,0
2,52,0,0
2,44,100,0
2,51,100,0
2,56,100,0
2,56,0,60
2,51,0,0
2,44,0,0
2,44,100,0
2,51,100,0
2,56,100,0
2,56,0,60
2,51,0,0
2,44,0,0
2,44,100,0
2,51,100,0
2,56,100,0
2,56,0,60
2,51,0,0
2,44,0,0
2,44,100,0
2,51,100,0
2,56,100,0
2,56,0,60
2,51,0,0
2,44,0,0
2,44,100,0
2,51,100,0
2,56,100,0
2,56,0,60
2,51,0,0
2,44,0,0
2,44,100,0
2,51,100,0
2,56,100,0
2,56,0,60
2,51,0,0
2,44,0,0
2,44,100,0
2,51,100,0
2,56,100,0
2,56,0,60
2,51,0,0
2,44,0,0
2,44,100,0
2,51,100,0
2,56,100,0
2,56,0,60
2,51,0,0
2,44,0,0
2,43,100,0
2,50,100,0
2,55,100,0
2,55,0,60
2,50,0,0
2,43,0,0
2,43,100,0
2,50,100,0
2,55,100,0
2,55,0,60
2,50,0,0
2,43,0,0
2,43,100,0
2,50,100,0
2,55,100,0
2,55,0,60
2,50,0,0
2,43,0,0
2,43,100,0
2,50,100,0
2,55,100,0
2,55,0,60
2,50,0,0
2,43,0,0
2,43,100,0
2,50,100,0
2,55,100,0
2,55,0,60
2,50,0,0
2,43,0,0
2,43,100,0
2,50,100,0
2,55,100,0
2,55,0,60
2,50,0,0
2,43,0,0
2,43,100,0
2,50,100,0
2,55,100,0
2,55,0,60
2,50,0,0
2,43,0,0
2,43,100,0
2,50,100,0
2,55,100,0
2,55,0,60
2,50,0,0
2,43,0,0
2,49,100,0
2,42,100,0
2,54,100,0
2,54,0,60
2,42,0,0
2,49,0,0
2,49,100,0
2,42,100,0
2,54,100,0
2,54,0,60
2,42,0,0
2,49,0,0
2,49,100,0
2,42,100,0
2,54,100,0
2,54,0,60
2,42,0,0
2,49,0,0
2,49,100,0
2,42,100,0
2,54,100,0
2,54,0,60
2,42,0,0
2,49,0,0
2,49,100,0
2,42,100,0
2,54,100,0
2,54,0,60
2,42,0,0
2,49,0,0
2,49,100,0
2,42,100,0
2,54,100,0
2,54,0,60
2,42,0,0
2,49,0,0
2,49,100,0
2,42,100,0
2,54,100,0
2,54,0,60
2,42,0,0
2,49,0,0
2,49,100,0
2,42,100,0
2,54,100,0
2,54,0,60
2,42,0,0
2,49,0,0
2,47,100,0
2,54,100,0
2,59,100,0
2,59,0,60
2,54,0,0
2,47,0,0
2,54,100,0
2,47,100,0
2,59,100,0
2,59,0,60
2,47,0,0
2,54,0,0
2,54,100,0
2,47,100,0
2,59,100,0
2,59,0,60
2,47,0,0
2,54,0,0
2,54,100,0
2,47,100,0
2,59,100,0
2,59,0,60
2,47,0,0
2,54,0,0
2,47,100,0
2,54,100,0
2,59,100,0
2,59,0,60
2,54,0,0
2,47,0,0
2,47,100,0
2,54,100,0
2,59,100,0
2,59,0,60
2,54,0,0
2,47,0,0
2,47,100,0
2,54,100,0
2,59,100,0
2,59,0,60
2,54,0,0
2,47,0,0
2,47,100,0
2,54,100,0
2,59,100,0
2,59,0,60
2,54,0,0
2,47,0,0
2,50,100,0
2,57,100,0
2,62,100,0
2,62,0,60
2,57,0,0
2,50,0,0
2,50,100,0
2,57,100,0
2,62,100,0
2,62,0,60
2,57,0,0
2,50,0,0
2,50,100,0
2,57,100,0
2,62,100,0
2,62,0,60
2,57,0,0
2,50,0,0
2,50,100,0
2,57,100,0
2,62,100,0
2,62,0,60
2,57,0,0
2,50,0,0
2,50,100,0
2,57,100,0
2,62,100,0
2,62,0,60
2,57,0,0
2,50,0,0
2,50,100,0
2,57,100,0
2,62,100,0
2,62,0,60
2,57,0,0
2,50,0,0
2,50,100,0
2,57,100,0
2,62,100,0
2,62,0,60
2,57,0,0
2,50,0,0
2,50,100,0
2,57,100,0
2,62,100,0
2,62,0,60
2,57,0,0
2,50,0,0
2,45,100,0
2,52,100,0
2,57,100,0
2,57,0,60
2,52,0,0
2,45,0,0
2,45,100,0
2,52,100,0
2,57,100,0
2,57,0,60
2,52,0,0
2,45,0,0
2,45,100,0
2,52,100,0
2,57,100,0
2,57,0,60
2,52,0,0
2,45,0,0
2,45,100,0
2,52,100,0
2,57,100,0
2,57,0,60
2,52,0,0
2,45,0,0
2,45,100,0
2,52,100,0
2,57,100,0
2,57,0,60
2,52,0,0
2,45,0,0
2,45,100,0
2,52,100,0
2,57,100,0
2,57,0,60
2,52,0,0
2,45,0,0
2,45,100,0
2,52,100,0
2,57,100,0
2,57,0,60
2,52,0,0
2,45,0,0
2,45,100,0
2,52,100,0
2,57,100,0
2,57,0,60
2,52,0,0
2,45,0,0
2,45,100,0
2,52,100,0
2,57,100,0
2,57,0,60
2,52,0,0
2,45,0,0
2,45,100,0
2,52,100,0
2,57,100,0
2,57,0,60
2,52,0,0
2,45,0,0
2,45,100,0
2,52,100,0
2,57,100,0
2,57,0,60
2,52,0,0
2,45,0,0
2,45,100,0
2,52,100,0
2,57,100,0
2,57,0,60
2,52,0,0
2,45,0,0
2,52,100,0
2,59,100,0
2,64,100,0
2,64,0,120
2,59,0,0
2,52,0,0
2,52,100,0
2,59,100,0
2,64,100,0
2,64,0,120
2,59,0,0
2,52,0,0
2,52,100,0
2,45,100,0
2,57,100,0
2,57,0,120
2,45,0,0
2,52,0,0
2,45,100,0
2,52,100,0
2,57,100,0
2,57,0,60
2,52,0,0
2,45,0,0
2,45,100,0
2,52,100,0
2,57,100,0
2,57,0,60
2,52,0,0
2,45,0,0
2,45,100,0
2,52,100,0
2,57,100,0
2,57,0,60
2,52,0,0
2,45,0,0
2,45,100,0
2,52,100,0
2,57,100,0
2,57,0,60
2,52,0,0
2,45,0,0
2,45,100,0
2,52,100,0
2,57,100,0
2,57,0,60
2,52,0,0
2,45,0,0
2,45,100,0
2,52,100,0
2,57,100,0
2,57,0,60
2,52,0,0
2,45,0,0
2,50,100,0
2,57,100,0
2,62,100,0
2,62,0,60
2,57,0,0
2,50,0,0
2,50,100,0
2,57,100,0
2,62,100,0
2,62,0,60
2,57,0,0
2,50,0,0
2,50,100,0
2,57,100,0
2,62,100,0
2,62,0,60
2,57,0,0
2,50,0,0
2,50,100,0
2,57,100,0
2,62,100,0
2,62,0,60
2,57,0,0
2,50,0,0
2,50,100,0
2,57,100,0
2,62,100,0
2,62,0,60
2,57,0,0
2,50,0,0
2,50,100,0
2,57,100,0
2,62,100,0
2,62,0,60
2,57,0,0
2,50,0,0
2,50,100,0
2,57,100,0
2,62,100,0
2,62,0,60
2,57,0,0
2,50,0,0
2,50,100,0
2,57,100,0
2,62,100,0
2,62,0,60
2,57,0,0
2,50,0,0
2,45,100,0
2,52,100,0
2,57,100,0
2,57,0,60
2,52,0,0
2,45,0,0
2,45,100,0
2,52,100,0
2,57,100,0
2,57,0,60
2,52,0,0
2,45,0,0
2,45,100,0
2,52,100,0
2,57,100,0
2,57,0,60
2,52,0,0
2,45,0,0
2,45,100,0
2,52,100,0
2,57,100,0
2,57,0,60
2,52,0,0
2,45,0,0
2,45,100,0
2,52,100,0
2,57,100,0
2,57,0,60
2,52,0,0
2,45,0,0
2,45,100,0
2,52,100,0
2,57,100,0
2,57,0,60
2,52,0,0
2,45,0,0
2,57,100,0
2,50,100,0
2,62,100,0
2,62,0,120
2,50,0,0
2,57,0,0
2,45,100,0
2,52,100,0
2,57,100,0
2,57,0,60
2,52,0,0
2,45,0,0
2,45,100,0
2,52,100,0
2,57,100,0
2,57,0,60
2,52,0,0
2,45,0,0
2,45,100,0
2,52,100,0
2,57,100,0
2,57,0,60
2,52,0,0
2,45,0,0
2,45,100,0
2,52,100,0
2,57,100,0
2,57,0,60
2,52,0,0
2,45,0,0
2,45,100,0
2,52,100,0
2,57,100,0
2,57,0,60
2,52,0,0
2,45,0,0
2,45,100,0
2,52,100,0
2,57,100,0
2,57,0,60
2,52,0,0
2,45,0,0
2,45,100,0
2,52,100,0
2,57,100,0
2,57,0,60
2,52,0,0
2,45,0,0
