track,note,velocity,time
1,49,110,192
1,49,0,160
1,46,110,32
1,46,0,160
1,46,110,32
1,46,0,160
1,46,110,32
1,46,0,160
1,46,110,32
1,46,0,160
1,46,110,32
1,46,0,160
1,46,110,32
1,46,0,160
1,46,110,32
1,46,0,160
1,46,110,32
1,46,0,160
1,46,110,32
1,46,0,160
1,46,110,32
1,46,0,160
1,46,110,32
1,46,0,160
1,46,110,32
1,46,0,160
1,46,110,32
1,46,0,160
1,46,110,32
1,46,0,160
1,46,110,32
1,46,0,160
1,46,110,32
1,46,0,160
1,46,110,32
1,46,0,160
1,46,110,32
1,46,0,160
1,46,110,32
1,46,0,160
1,46,110,32
1,46,0,160
1,46,110,32
1,46,0,160
1,46,110,32
1,46,0,160
1,46,110,32
1,46,0,160
1,46,110,32
1,46,0,160
1,46,110,32
1,46,0,160
1,46,110,32
1,46,0,160
1,46,110,32
1,46,0,160
1,46,110,32
1,46,0,160
1,46,110,32
1,46,0,160
1,46,110,32
1,46,0,160
1,49,110,224
1,49,0,160
1,46,110,32
1,46,0,160
1,46,110,32
1,46,0,160
1,46,110,32
1,46,0,160
1,46,110,32
1,46,0,160
1,46,110,32
1,46,0,160
1,46,110,32
1,46,0,160
1,46,110,32
1,46,0,160
1,46,110,32
1,46,0,160
1,46,110,32
1,46,0,160
1,46,110,32
1,46,0,160
1,46,110,32
1,46,0,160
1,46,110,32
1,46,0,160
1,46,110,32
1,46,0,160
1,46,110,32
1,46,0,160
1,46,110,32
1,46,0,160
1,46,110,32
1,46,0,160
1,46,110,32
1,46,0,160
1,46,110,32
1,46,0,160
1,46,110,32
1,46,0,160
1,46,110,32
1,46,0,160
1,46,110,32
1,46,0,160
1,46,110,32
1,46,0,160
1,46,110,32
1,46,0,160
1,46,110,32
1,46,0,160
1,46,110,32
1,46,0,160
1,46,110,32
1,46,0,160
1,46,110,32
1,46,0,160
1,46,110,32
1,46,0,160
1,46,110,32
1,46,0,160
1,46,110,32
1,46,0,160
1,49,110,224
1,49,0,160
1,46,110,32
1,46,0,94
1,46,110,2
1,46,0,94
1,46,110,2
1,46,0,94
1,46,110,2
1,46,0,94
1,46,110,2
1,46,0,94
1,46,110,2
1,46,0,94
1,49,110,2
1,49,0,160
1,46,110,32
1,46,0,94
1,46,110,2
1,46,0,94
1,46,110,2
1,46,0,94
1,46,110,2
1,46,0,94
1,46,110,2
1,46,0,94
1,46,110,2
1,46,0,94
1,49,110,2
1,49,0,160
1,46,110,32
1,46,0,94
1,46,110,2
1,46,0,94
1,46,110,2
1,46,0,94
1,46,110,2
1,46,0,94
1,46,110,2
1,46,0,94
1,46,110,2
1,46,0,94
1,49,110,2
1,49,0,160
1,46,110,32
1,46,0,94
1,46,110,2
1,46,0,94
1,46,110,2
1,46,0,94
1,46,110,2
1,46,0,94
1,46,110,2
1,46,0,94
1,46,110,2
1,46,0,94
1,49,110,2
1,49,0,160
1,46,110,32
1,46,0,94
1,46,110,2
1,46,0,94
1,46,110,2
1,46,0,94
1,46,110,2
1,46,0,94
1,46,110,2
1,46,0,94
1,46,110,2
1,46,0,94
1,49,110,2
1,49,0,160
1,46,110,32
1,46,0,94
1,46,110,2
1,46,0,94
1,46,110,2
1,46,0,94
1,46,110,2
1,46,0,94
1,49,110,194
1,49,0,160
1,46,110,32
1,46,0,160
1,46,110,32
1,46,0,160
1,46,110,32
1,46,0,160
1,46,110,32
1,46,0,160
1,46,110,32
1,46,0,160
1,46,110,32
1,46,0,160
1,46,110,32
1,46,0,160
1,46,110,32
1,46,0,160
1,46,110,32
1,46,0,160
1,46,110,32
1,46,0,160
1,46,110,32
1,46,0,160
1,46,110,32
1,46,0,160
1,46,110,32
1,46,0,160
1,46,110,32
1,46,0,160
1,49,110,224
1,49,0,160
1,46,110,32
1,46,0,160
1,46,110,32
1,46,0,160
1,46,110,32
1,46,0,160
1,46,110,32
1,46,0,160
1,46,110,32
1,46,0,160
1,46,110,32
1,46,0,160
1,46,110,32
1,46,0,160
1,46,110,32
1,46,0,160
1,46,110,32
1,46,0,160
1,46,110,32
1,46,0,160
1,46,110,32
1,46,0,160
1,46,110,32
1,46,0,160
1,46,110,32
1,46,0,160
1,46,110,32
1,46,0,160
1,46,110,32
1,46,0,160
1,46,110,32
1,46,0,160
1,46,110,32
1,46,0,160
1,46,110,32
1,46,0,160
1,46,110,32
1,46,0,160
1,46,110,32
1,46,0,160
1,46,110,32
1,46,0,160
1,46,110,32
1,46,0,160
1,46,110,32
1,46,0,160
1,46,110,32
1,46,0,160
1,46,110,32
1,46,0,160
1,46,110,32
1,46,0,160
1,46,110,32
1,46,0,160
1,46,110,32
1,46,0,160
1,46,110,32
1,46,0,160
1,46,110,32
1,46,0,160
1,49,110,224
1,49,0,160
1,46,110,32
1,46,0,94
1,46,110,2
1,46,0,94
1,46,110,2
1,46,0,94
1,46,110,2
1,46,0,94
1,46,110,2
1,46,0,94
1,46,110,2
1,46,0,94
1,49,110,2
1,49,0,160
1,46,110,32
1,46,0,94
1,46,110,2
1,46,0,94
1,46,110,2
1,46,0,94
1,46,110,2
1,46,0,94
1,46,110,2
1,46,0,94
1,46,110,2
1,46,0,94
1,49,110,2
1,49,0,160
1,46,110,32
1,46,0,94
1,46,110,2
1,46,0,94
1,46,110,2
1,46,0,94
1,46,110,2
1,46,0,94
1,46,110,2
1,46,0,94
1,46,110,2
1,46,0,94
1,49,110,2
1,49,0,160
1,46,110,32
1,46,0,94
1,46,110,2
1,46,0,94
1,46,110,2
1,46,0,94
1,46,110,2
1,46,0,94
1,46,110,2
1,46,0,94
1,46,110,2
1,46,0,94
1,49,110,2
1,49,0,160
1,46,110,32
1,46,0,94
1,46,110,2
1,46,0,94
1,46,110,2
1,46,0,94
1,46,110,2
1,46,0,94
1,46,110,2
1,46,0,94
1,46,110,2
1,46,0,94
1,49,110,2
1,49,0,160
1,46,110,32
1,46,0,94
1,46,110,2
1,46,0,94
1,46,110,2
1,46,0,94
1,46,110,2
1,46,0,94
1,49,110,194
1,49,0,160
1,46,110,32
1,46,0,160
1,46,110,32
1,46,0,160
1,46,110,32
1,46,0,160
1,46,110,32
1,46,0,160
1,46,110,32
1,46,0,160
1,46,110,32
1,46,0,160
1,46,110,32
1,46,0,160
1,46,110,32
1,46,0,160
1,46,110,32
1,46,0,160
1,46,110,32
1,46,0,160
1,46,110,32
1,46,0,160
1,46,110,32
1,46,0,160
1,46,110,32
1,46,0,160
1,46,110,32
1,46,0,160
1,46,110,224
1,46,0,160
1,46,110,32
1,46,0,160
1,46,110,32
1,46,0,160
1,46,110,32
1,46,0,160
1,46,110,32
1,46,0,160
1,46,110,32
1,46,0,160
1,46,110,32
1,46,0,160
1,46,110,32
1,46,0,160
1,46,110,32
1,46,0,160
1,46,110,32
1,46,0,160
1,46,110,32
1,46,0,160
1,46,110,32
1,46,0,160
1,46,110,32
1,46,0,160
1,46,110,32
1,46,0,160
1,46,110,32
1,46,0,160
1,48,110,224
1,48,0,160
1,48,110,5984
1,48,0,160
1,47,110,1424
1,47,0,94
1,47,110,2
1,47,0,46
1,47,110,290
1,47,0,94
1,47,110,1010
1,47,0,94
1,47,110,2
1,47,0,46
1,47,110,290
1,47,0,94
1,48,110,1730
1,48,0,160
1,48,110,128
1,48,0,94
1,49,110,386
1,49,0,160
1,46,110,32
1,46,0,94
1,46,110,2
1,46,0,94
1,46,110,2
1,46,0,94
1,46,110,2
1,46,0,94
1,46,110,2
1,46,0,94
1,46,110,2
1,46,0,94
1,49,110,2
1,49,0,160
1,46,110,32
1,46,0,94
1,46,110,2
1,46,0,94
1,46,110,2
1,46,0,94
1,46,110,2
1,46,0,94
1,46,110,2
1,46,0,94
1,46,110,2
1,46,0,94
1,49,110,2
1,49,0,160
1,46,110,32
1,46,0,94
1,46,110,2
1,46,0,94
1,46,110,2
1,46,0,94
1,46,110,2
1,46,0,94
1,46,110,2
1,46,0,94
1,46,110,2
1,46,0,94
1,49,110,2
1,49,0,160
1,46,110,32
1,46,0,94
1,46,110,2
1,46,0,94
1,46,110,2
1,46,0,94
1,46,110,2
1,46,0,94
1,46,110,2
1,46,0,94
1,46,110,2
1,46,0,94
1,49,110,2
1,49,0,160
1,46,110,32
1,46,0,94
1,46,110,2
1,46,0,94
1,46,110,2
1,46,0,94
1,46,110,2
1,46,0,94
1,46,110,2
1,46,0,94
1,46,110,2
1,46,0,94
1,49,110,2
1,49,0,160
1,46,110,32
1,46,0,94
1,46,110,2
1,46,0,94
1,46,110,2
1,46,0,94
1,46,110,2
1,46,0,94
1,49,110,194
1,49,0,160
1,46,110,32
1,46,0,160
1,46,110,32
1,46,0,160
1,46,110,32
1,46,0,160
1,46,110,32
1,46,0,160
1,46,110,32
1,46,0,160
1,46,110,32
1,46,0,160
1,46,110,224
1,46,0,160
1,46,110,32
1,46,0,160
1,46,110,32
1,46,0,160
1,46,110,32
1,46,0,160
1,46,110,32
1,46,0,160
1,46,110,32
1,46,0,160
1,46,110,32
1,46,0,160
1,46,110,32
1,46,0,160
1,46,110,32
1,46,0,160
1,46,110,32
1,46,0,160
1,46,110,32
1,46,0,160
1,46,110,32
1,46,0,160
1,46,110,32
1,46,0,160
1,46,110,32
1,46,0,160
1,46,110,32
1,46,0,160
1,46,110,32
1,46,0,160
1,46,110,32
1,46,0,160
1,46,110,32
1,46,0,160
1,46,110,32
1,46,0,160
1,46,110,32
1,46,0,160
1,46,110,32
1,46,0,160
1,46,110,32
1,46,0,160
1,46,110,32
1,46,0,160
1,49,110,224
1,49,0,160
2,36,110,0
2,36,0,46
2,36,110,2
2,38,110,0
2,36,0,46
2,38,0,0
2,36,110,2
2,38,110,0
2,36,0,94
2,38,0,0
2,36,110,2
2,36,0,94
2,36,110,2
2,36,0,94
2,40,110,2
2,40,0,94
2,36,110,2
2,36,0,190
2,36,110,2
2,36,0,94
2,40,110,2
2,40,0,94
2,38,110,2
2,38,0,46
2,38,110,2
2,38,0,46
2,36,110,2
2,36,0,94
2,36,110,2
2,36,0,94
2,40,110,2
2,40,0,94
2,36,110,2
2,36,0,190
2,36,110,2
2,36,0,94
2,40,110,2
2,40,0,94
2,38,110,2
2,38,0,46
2,38,110,2
2,38,0,46
2,36,110,2
2,36,0,94
2,36,110,2
2,36,0,94
2,40,110,2
2,40,0,94
2,36,110,2
2,36,0,190
2,36,110,2
2,36,0,94
2,38,110,2
2,38,0,94
2,36,110,2
2,36,0,94
2,36,110,2
2,36,0,94
2,36,110,2
2,36,0,94
2,40,110,2
2,40,0,94
2,36,110,2
2,36,0,190
2,36,110,2
2,36,0,94
2,40,110,2
2,40,0,94
2,38,110,2
2,38,0,46
2,38,110,2
2,38,0,46
2,36,110,2
2,36,0,94
2,36,110,2
2,36,0,94
2,40,110,2
2,40,0,94
2,36,110,2
2,36,0,190
2,36,110,2
2,36,0,94
2,40,110,2
2,40,0,94
2,38,110,2
2,38,0,46
2,38,110,2
2,38,0,46
2,36,110,2
2,36,0,94
2,36,110,2
2,36,0,94
2,40,110,2
2,40,0,94
2,36,110,2
2,36,0,190
2,36,110,2
2,36,0,94
2,40,110,2
2,40,0,94
2,38,110,2
2,38,0,46
2,38,110,2
2,38,0,46
2,36,110,2
2,36,0,94
2,36,110,2
2,36,0,94
2,40,110,2
2,40,0,94
2,36,110,2
2,36,0,190
2,36,110,2
2,36,0,94
2,38,110,2
2,38,0,94
2,36,110,2
2,36,0,94
2,36,110,2
2,36,0,94
2,36,110,2
2,36,0,94
2,40,110,2
2,40,0,94
2,36,110,2
2,36,0,190
2,36,110,2
2,36,0,94
2,40,110,2
2,40,0,46
2,40,110,2
2,40,0,46
2,40,110,2
2,40,0,46
2,40,110,2
2,40,0,46
2,36,110,2
2,36,0,94
2,36,110,2
2,36,0,94
2,40,110,2
2,40,0,94
2,36,110,2
2,36,0,190
2,36,110,2
2,36,0,94
2,40,110,2
2,40,0,94
2,38,110,2
2,38,0,46
2,38,110,2
2,38,0,46
2,36,110,2
2,36,0,94
2,36,110,2
2,36,0,94
2,40,110,2
2,40,0,94
2,36,110,2
2,36,0,190
2,36,110,2
2,36,0,94
2,40,110,2
2,40,0,94
2,38,110,2
2,38,0,46
2,38,110,2
2,38,0,46
2,36,110,2
2,36,0,94
2,36,110,2
2,36,0,94
2,40,110,2
2,40,0,94
2,36,110,2
2,36,0,190
2,36,110,2
2,36,0,94
2,38,110,2
2,38,0,94
2,36,110,2
2,36,0,94
2,36,110,2
2,36,0,94
2,36,110,2
2,36,0,94
2,40,110,2
2,40,0,94
2,36,110,2
2,36,0,190
2,36,110,2
2,36,0,94
2,40,110,2
2,40,0,94
2,38,110,2
2,38,0,46
2,38,110,2
2,38,0,46
2,36,110,2
2,36,0,94
2,36,110,2
2,36,0,94
2,40,110,2
2,40,0,94
2,36,110,2
2,36,0,190
2,36,110,2
2,36,0,94
2,40,110,2
2,40,0,94
2,38,110,2
2,38,0,46
2,38,110,2
2,38,0,46
2,36,110,2
2,36,0,94
2,36,110,2
2,36,0,94
2,40,110,2
2,40,0,94
2,36,110,2
2,36,0,190
2,36,110,2
2,36,0,94
2,40,110,2
2,40,0,94
2,38,110,2
2,38,0,46
2,38,110,2
2,38,0,46
2,36,110,2
2,36,0,94
2,36,110,2
2,36,0,94
2,40,110,2
2,40,0,94
2,36,110,2
2,36,0,190
2,36,110,2
2,36,0,94
2,38,110,2
2,38,0,94
2,36,110,2
2,36,0,94
2,36,110,2
2,36,0,94
2,36,110,2
2,36,0,94
2,40,110,2
2,40,0,94
2,36,110,2
2,36,0,190
2,36,110,2
2,36,0,94
2,40,110,2
2,40,0,46
2,40,110,2
2,40,0,46
2,40,110,2
2,40,0,46
2,40,110,2
2,40,0,46
2,36,110,2
2,36,0,94
2,36,110,2
2,36,0,94
2,40,110,2
2,40,0,94
2,36,110,2
2,36,0,190
2,36,110,2
2,36,0,94
2,40,110,2
2,40,0,94
2,36,110,2
2,36,0,94
2,36,110,2
2,36,0,94
2,36,110,2
2,36,0,94
2,40,110,2
2,40,0,94
2,36,110,2
2,36,0,190
2,36,110,2
2,36,0,94
2,40,110,2
2,40,0,94
2,36,110,2
2,36,0,94
2,36,110,2
2,36,0,94
2,36,110,2
2,36,0,94
2,40,110,2
2,40,0,94
2,36,110,2
2,36,0,190
2,36,110,2
2,36,0,94
2,40,110,2
2,40,0,94
2,36,110,2
2,36,0,94
2,36,110,2
2,36,0,94
2,36,110,2
2,36,0,94
2,40,110,2
2,40,0,94
2,36,110,2
2,36,0,190
2,36,110,2
2,36,0,94
2,40,110,2
2,40,0,94
2,36,110,2
2,36,0,94
2,36,110,2
2,36,0,94
2,36,110,2
2,36,0,94
2,40,110,2
2,40,0,94
2,36,110,2
2,36,0,190
2,36,110,2
2,36,0,94
2,40,110,2
2,40,0,94
2,36,110,2
2,36,0,94
2,36,110,2
2,36,0,94
2,36,110,2
2,36,0,94
2,40,110,2
2,40,0,94
2,36,110,2
2,36,0,190
2,36,110,2
2,36,0,94
2,40,110,2
2,40,0,46
2,40,110,2
2,40,0,46
2,40,110,2
2,40,0,46
2,40,110,2
2,40,0,46
2,36,110,2
2,36,0,94
2,36,110,2
2,36,0,94
2,40,110,2
2,40,0,94
2,36,110,2
2,36,0,190
2,36,110,2
2,36,0,94
2,40,110,2
2,40,0,94
2,38,110,2
2,38,0,46
2,38,110,2
2,38,0,46
2,36,110,2
2,36,0,94
2,36,110,2
2,36,0,94
2,40,110,2
2,40,0,94
2,36,110,2
2,36,0,190
2,36,110,2
2,36,0,94
2,40,110,2
2,40,0,94
2,38,110,2
2,38,0,46
2,38,110,2
2,38,0,46
2,36,110,2
2,36,0,94
2,36,110,2
2,36,0,94
2,40,110,2
2,40,0,94
2,36,110,2
2,36,0,190
2,36,110,2
2,36,0,94
2,38,110,2
2,38,0,94
2,36,110,2
2,36,0,94
2,36,110,2
2,36,0,94
2,36,110,2
2,36,0,94
2,40,110,2
2,40,0,94
