track,note,velocity,time
0,42,127,198
0,42,0,1
0,42,87,95
0,42,0,1
0,42,89,95
0,42,0,1
0,42,89,95
0,42,0,1
0,55,57,4
0,58,51,4
0,58,42,2
0,62,54,0
0,36,109,0
0,55,62,0
0,62,63,0
0,70,54,0
0,36,0,1
0,55,56,0
0,62,52,1
0,67,58,4
0,62,0,30
0,58,0,1
0,55,0,7
0,67,64,4
0,70,68,24
0,55,59,24
0,58,59,0
0,62,61,1
0,67,0,2
0,70,0,15
0,62,0,9
0,58,0,1
0,55,0,2
0,67,61,17
0,36,64,2
0,36,0,1
0,55,0,1
0,58,0,18
0,67,0,1
0,62,0,2
0,70,62,0
0,67,0,3
0,53,65,15
0,58,55,4
0,53,57,0
0,58,46,2
0,36,113,0
0,62,62,0
0,36,0,1
0,53,37,0
0,62,59,1
0,67,55,3
0,55,0,4
0,62,0,8
0,58,0,3
0,70,0,2
0,67,58,7
0,53,0,3
0,67,0,45
0,58,49,0
0,70,67,0
0,53,47,1
0,62,65,0
0,62,0,32
0,53,0,4
0,58,0,2
0,53,0,34
0,67,0,4
0,58,0,0
0,62,0,1
0,52,55,12
0,52,59,2
0,53,0,1
0,55,56,1
0,36,94,0
0,64,61,0
0,36,0,1
0,67,70,1
0,62,0,1
0,58,32,0
0,60,64,0
0,70,0,1
0,52,53,0
0,60,44,0
0,67,60,4
0,67,0,18
0,60,0,7
0,58,0,1
0,70,71,7
0,52,0,12
0,72,73,12
0,70,0,25
0,60,59,0
0,52,46,0
0,58,41,0
0,52,0,8
0,60,0,12
0,36,63,2
0,36,0,1
0,58,0,0
0,52,0,11
0,60,0,12
0,55,0,6
0,67,0,5
0,48,71,0
0,48,65,3
0,36,109,1
0,36,0,1
0,52,66,5
0,52,58,2
0,48,0,22
0,55,58,0
0,55,75,2
0,52,0,12
0,58,74,9
0,58,72,4
0,55,0,5
0,72,0,5
0,55,0,1
0,55,50,4
0,55,68,3
0,58,0,1
0,58,0,11
0,60,50,9
0,55,0,1
0,60,73,2
0,48,0,14
0,60,0,2
0,70,0,8
0,52,0,3
0,55,0,2
0,64,0,9
0,60,0,3
0,52,0,0
0,55,57,1
0,55,53,2
0,58,51,2
0,55,56,1
0,58,50,0
0,70,52,0
0,62,78,0
0,62,60,0
0,36,113,1
0,36,0,1
0,62,52,1
0,67,58,4
0,62,0,19
0,58,0,4
0,55,0,4
0,70,73,3
0,70,0,23
0,67,65,1
0,58,56,23
0,62,58,0
0,55,49,0
0,70,71,1
0,67,0,4
0,62,0,10
0,58,0,0
0,55,0,5
0,70,0,6
0,36,79,0
0,36,0,1
0,67,79,0
0,55,0,6
0,58,0,7
0,62,0,11
0,67,0,2
0,53,65,16
0,55,0,4
0,53,61,0
0,58,55,0
0,36,127,1
0,62,54,0
0,36,0,1
0,58,50,0
0,53,56,0
0,62,59,2
0,67,55,3
0,67,0,1
0,62,0,7
0,58,0,4
0,53,0,10
0,70,72,45
0,62,74,1
0,53,50,0
0,58,52,0
0,70,0,9
0,72,65,2
0,62,0,2
0,58,0,1
0,53,0,1
0,70,73,12
0,72,0,1
0,70,0,22
0,72,80,1
0,67,0,5
0,53,0,1
0,62,0,0
0,58,0,1
0,52,55,11
0,64,70,2
0,62,0,1
0,52,70,0
0,55,56,1
0,53,0,2
0,58,39,0
0,36,111,0
0,36,0,1
0,60,65,0
0,52,61,0
0,60,44,1
0,67,60,4
0,60,0,4
0,58,0,1
0,52,0,4
0,60,59,58
0,52,51,0
0,58,36,0
0,52,0,6
0,60,0,3
0,58,0,3
0,36,68,8
0,36,0,1
0,52,0,12
0,60,0,12
0,55,0,6
0,67,0,5
0,48,63,10
0,52,0,1
0,36,127,0
0,60,73,0
0,36,0,1
0,48,60,0
0,72,0,4
0,64,65,15
0,52,74,0
0,48,0,1
0,60,0,20
0,67,73,1
0,55,76,2
0,64,0,4
0,52,0,2
0,67,0,2
0,70,72,14
0,58,73,2
0,55,0,6
0,44,60,17
0,44,0,1
0,69,53,1
0,44,52,1
0,44,0,1
0,58,0,3
0,57,58,0
0,57,0,17
0,46,89,3
0,46,0,1
0,67,63,0
0,55,59,2
0,48,0,2
0,50,91,1
0,70,0,10
0,55,0,2
0,69,0,22
0,70,0,4
0,67,0,0
0,51,55,0
0,67,61,1
0,70,54,1
0,64,0,1
0,58,56,1
0,36,107,1
0,36,0,1
0,55,59,1
0,51,53,0
0,63,44,1
0,58,62,0
0,51,72,1
0,50,0,1
0,67,60,0
0,55,0,19
0,58,0,7
0,51,0,5
0,67,60,7
0,67,0,10
0,67,69,14
0,70,76,24
0,51,51,1
0,58,51,0
0,44,110,0
0,55,52,0
0,44,0,1
0,67,0,4
0,70,0,6
0,70,82,12
0,51,0,2
0,58,0,2
0,55,0,1
0,74,102,12
0,36,80,1
0,36,0,1
0,70,0,8
0,51,0,3
0,63,0,12
0,58,0,6
0,67,0,5
0,67,0,1
0,65,74,2
0,51,0,2
0,50,66,0
0,50,65,2
0,58,63,4
0,53,55,0
0,53,55,1
0,50,50,0
0,77,99,0
0,74,0,1
0,36,127,0
0,36,0,1
0,58,59,0
0,65,55,3
0,53,0,10
0,50,0,1
0,58,0,1
0,58,59,58
0,44,91,0
0,50,49,0
0,53,48,0
0,44,0,1
0,58,0,10
0,50,0,3
0,53,0,1
0,82,96,14
0,77,0,18
0,50,0,7
0,65,0,4
0,53,0,0
0,58,0,1
0,48,55,12
0,63,68,2
0,65,0,1
0,55,56,1
0,48,74,1
0,50,0,1
0,36,127,0
0,36,0,1
0,51,47,0
0,48,44,0
0,55,47,0
0,60,44,1
0,63,60,4
0,55,0,9
0,48,0,14
0,51,0,0
0,74,83,0
0,82,0,11
0,74,0,13
0,72,67,1
0,48,52,22
0,51,52,0
0,55,58,0
0,44,80,1
0,44,0,1
0,70,60,0
0,72,0,1
0,51,0,21
0,48,0,1
0,55,0,4
0,70,0,3
0,72,73,0
0,36,81,0
0,36,0,1
0,48,0,11
0,60,0,12
0,55,0,6
0,63,0,5
0,46,63,7
0,48,0,2
0,46,71,0
0,36,127,2
0,36,0,1
0,46,46,2
0,55,58,0
0,51,46,0
0,72,0,2
0,51,66,8
0,51,0,6
0,55,0,2
0,46,0,4
0,55,58,2
0,67,75,3
0,53,74,20
0,65,74,3
0,67,0,1
0,51,0,21
0,58,68,0
0,70,70,3
0,46,58,0
0,55,69,0
0,44,110,0
0,44,0,1
0,51,52,0
0,65,0,2
0,55,0,14
0,53,0,4
0,46,0,6
0,70,0,1
0,53,66,1
0,51,0,1
0,65,59,2
0,55,0,3
0,46,0,11
0,58,0,3
0,65,0,15
0,53,0,5
0,45,57,5
0,45,70,4
0,53,51,0
0,70,0,2
0,53,58,0
0,65,85,0
0,36,118,0
0,36,0,1
0,48,36,0
0,45,49,0
0,46,0,1
0,65,72,0
0,60,61,0
0,60,52,0
0,63,0,4
0,65,58,0
0,60,84,10
0,65,0,6
0,48,0,1
0,53,0,2
0,45,0,2
0,65,84,12
0,60,0,9
0,53,57,15
0,44,113,0
0,69,80,0
0,44,0,1
0,45,33,0
0,48,42,0
0,65,0,17
0,72,78,7
0,69,0,11
0,48,0,1
0,45,0,3
0,53,0,1
0,36,80,7
0,36,0,1
0,45,0,6
0,53,0,7
0,60,0,11
0,65,0,2
0,72,0,15
0,45,65,1
0,60,67,4
0,45,0,1
0,53,62,0
0,36,127,0
0,48,39,0
0,69,75,0
0,45,41,0
0,36,0,1
0,48,61,1
0,65,68,1
0,72,75,3
0,69,0,13
0,65,68,0
0,48,0,15
0,65,0,4
0,53,0,1
0,60,56,0
0,45,0,3
0,65,83,21
0,69,69,0
0,60,0,7
0,48,43,17
0,44,127,0
0,53,64,0
0,44,0,1
0,45,45,0
0,60,65,2
0,65,0,4
0,48,0,10
0,64,71,2
0,67,67,0
0,53,0,2
0,45,0,1
0,69,0,1
0,60,0,10
0,72,0,14
0,45,0,1
0,65,0,0
0,60,0,1
0,45,55,11
0,53,70,1
0,53,56,3
0,36,127,1
0,36,0,1
0,53,64,0
0,45,48,1
0,48,47,0
0,60,44,1
0,48,0,1
0,65,60,3
0,64,0,1
0,67,0,1
0,53,0,14
0,48,0,2
0,60,61,0
0,45,0,8
0,65,70,15
0,45,50,24
0,48,49,0
0,53,62,0
0,69,79,0
0,44,116,2
0,44,0,1
0,65,0,19
0,72,78,3
0,69,0,7
0,48,0,5
0,53,0,5
0,60,0,5
0,45,0,1
0,72,0,9
0,45,0,4
0,60,0,12
0,53,0,6
0,65,0,5
0,69,73,11
0,36,127,1
0,45,48,0
0,48,46,0
0,69,77,0
0,53,67,0
0,36,0,1
0,65,65,16
0,65,73,3
0,69,0,4
0,48,0,12
0,69,0,4
0,60,73,1
0,65,0,1
0,60,65,1
0,53,0,1
0,65,0,3
0,45,0,0
0,60,0,18
0,65,88,0
0,69,77,2
0,65,77,1
0,60,0,5
0,53,65,18
0,45,49,0
0,48,36,1
0,65,0,1
0,67,76,1
0,67,73,3
0,65,0,1
0,41,52,0
0,41,0,1
0,69,0,0
0,45,0,8
0,53,0,1
0,48,0,1
0,65,81,11
0,41,119,2
0,65,73,0
0,41,0,1
0,67,0,9
0,60,0,19
0,67,0,8
0,53,0,0
0,70,70,0
0,62,78,1
0,65,0,1
0,55,70,1
0,55,70,1
0,65,0,3
0,58,62,0
0,58,48,1
0,55,81,0
0,55,56,1
0,36,125,0
0,62,68,0
0,36,0,1
0,65,0,0
0,62,56,1
0,67,62,2
0,62,0,13
0,58,0,5
0,55,0,1
0,67,73,1
0,67,0,19
0,67,0,3
0,70,72,1
0,62,0,1
0,55,0,0
0,36,80,3
0,36,0,1
0,58,0,0
0,55,54,15
0,58,43,4
0,62,58,0
0,58,41,1
0,55,48,0
0,62,44,2
0,44,127,1
0,44,0,1
0,67,53,1
0,70,0,22
0,67,68,0
0,36,80,2
0,36,0,1
0,62,0,1
0,55,0,0
0,58,0,3
0,67,0,1
0,67,0,2
0,70,72,1
0,62,0,1
0,55,0,0
0,58,0,2
0,53,65,1
0,53,60,1
0,74,72,0
0,58,55,1
0,55,0,1
0,58,42,0
0,62,65,0
0,53,47,0
0,62,59,2
0,36,127,0
0,36,0,1
0,67,55,2
0,62,0,1
0,58,0,1
0,67,69,0
0,70,0,1
0,53,0,2
0,53,0,12
0,67,0,3
0,67,0,1
0,58,0,0
0,62,0,1
0,53,54,14
0,58,45,3
0,44,127,1
0,44,0,1
0,58,44,0
0,70,75,0
0,62,66,0
0,53,39,0
0,62,54,3
0,67,42,2
0,55,0,7
0,55,93,4
0,62,0,12
0,58,0,1
0,53,0,4
0,50,72,4
0,55,0,4
0,50,0,13
0,62,0,7
0,43,76,0
0,53,0,1
0,67,0,2
0,58,0,0
0,62,0,3
0,52,55,11
0,55,56,4
0,43,0,3
0,67,75,0
0,48,87,0
0,58,37,0
0,60,64,0
0,36,127,1
0,72,74,0
0,52,46,0
0,60,44,0
0,36,0,1
0,70,0,0
0,53,0,1
0,64,60,0
0,52,64,1
0,74,0,1
0,67,60,0
0,70,0,9
0,60,0,15
0,58,0,1
0,67,0,2
0,70,72,0
0,52,0,5
0,52,0,7
0,60,0,12
0,72,70,1
0,36,72,0
0,36,0,1
0,70,0,1
0,55,0,3
0,67,0,5
0,52,51,6
0,55,54,3
0,52,50,4
0,60,61,0
0,58,43,0
0,60,51,0
0,44,114,1
0,44,0,1
0,67,49,2
0,52,0,10
0,60,0,13
0,36,85,1
0,36,0,1
0,58,0,4
0,52,0,3
0,60,0,11
0,55,0,6
0,67,0,5
0,48,69,9
0,48,61,5
0,72,0,1
0,36,127,0
0,36,0,1
0,52,72,20
0,52,37,1
0,48,0,6
0,55,54,14
0,55,56,3
0,58,74,22
0,52,0,1
0,58,76,2
0,55,0,4
0,44,127,8
0,44,0,1
0,55,0,8
0,55,42,4
0,58,0,5
0,55,69,0
0,58,0,12
0,60,65,9
0,55,0,2
0,46,70,0
0,46,0,1
0,60,60,0
0,48,0,13
0,60,0,4
0,55,0,10
0,52,0,0
0,60,0,1
0,48,0,0
0,55,54,0
0,62,68,1
0,70,61,0
0,55,63,1
0,52,0,1
0,58,62,0
0,55,87,1
0,72,0,1
0,62,76,0
0,58,52,1
0,55,52,0
0,36,127,0
0,36,0,1
0,64,0,0
0,62,56,0
0,67,62,3
0,62,0,10
0,58,0,4
0,70,72,5
0,55,0,5
0,70,0,14
0,67,0,3
0,67,79,1
0,55,0,1
0,62,0,1
0,36,88,0
0,36,0,1
0,58,0,1
0,55,54,15
0,62,73,5
0,58,47,0
0,55,49,0
0,70,70,0
0,58,43,0
0,44,127,2
0,44,0,1
0,62,44,0
0,67,0,2
0,67,53,1
0,62,0,1
0,70,0,1
0,36,70,0
0,67,72,0
0,36,0,1
0,55,0,6
0,58,0,1
0,67,0,1
0,62,0,3
0,55,0,0
0,58,0,2
0,55,0,7
0,53,65,0
0,74,68,1
0,58,55,2
0,53,76,0
0,58,49,1
0,62,73,0
0,53,57,1
0,36,127,0
0,36,0,1
0,62,59,1
0,67,55,3
0,67,0,1
0,62,0,1
0,53,0,10
0,58,0,0
0,53,0,9
0,58,0,2
0,67,0,1
0,62,0,1
0,55,0,14
0,53,54,0
0,58,45,3
0,44,113,0
0,44,0,1
0,57,72,0
0,62,68,0
0,70,84,0
0,53,53,1
0,58,50,0
0,62,54,3
0,67,42,2
0,55,62,11
0,72,93,1
0,70,0,3
0,57,0,2
0,62,0,9
0,55,0,0
0,70,94,6
0,50,66,0
0,72,0,4
0,58,0,1
0,53,0,2
0,43,74,16
0,72,89,1
0,62,0,1
0,53,0,1
0,58,0,2
0,50,0,0
0,67,0,0
0,70,0,1
0,62,0,2
0,52,55,11
0,53,0,2
0,55,56,2
0,36,127,1
0,36,0,1
0,48,89,0
0,74,0,1
0,72,74,0
0,60,44,1
0,52,47,0
0,60,69,0
0,52,72,0
0,58,42,0
0,43,0,3
0,64,78,0
0,67,60,1
0,70,0,7
0,58,0,10
0,60,0,2
0,52,0,8
0,52,0,6
0,36,58,9
0,36,0,1
0,60,0,2
0,55,0,6
0,67,0,5
0,52,51,6
0,55,54,3
0,44,127,2
0,44,0,1
0,60,51,1
0,60,70,1
0,58,44,0
0,52,34,0
0,67,49,3
0,52,0,11
0,36,88,4
0,36,0,1
0,60,0,0
0,58,0,5
0,52,0,8
0,60,0,11
0,55,0,6
0,67,0,5
0,48,69,9
0,36,127,0
0,36,0,1
0,48,57,1
0,72,0,6
0,52,72,3
0,52,69,1
0,48,0,5
0,55,54,16
0,55,66,3
0,58,76,22
0,36,69,1
0,36,0,1
0,52,0,0
0,58,77,0
0,55,0,5
0,45,95,7
0,45,0,1
0,55,0,8
0,57,50,3
0,43,70,1
0,43,0,1
0,57,62,0
0,58,0,2
0,58,0,1
0,48,0,1
0,57,0,1
0,55,70,2
0,36,91,1
0,41,93,0
0,41,0,1
0,52,0,0
0,48,114,0
0,55,72,0
0,48,0,4
0,55,0,10
0,50,111,0
0,38,101,1
0,52,0,3
0,48,0,0
0,57,0,0
0,36,0,5
0,55,0,9
0,72,0,1
0,51,81,0
0,51,67,1
0,36,118,2
0,36,0,1
0,58,67,0
0,63,76,1
0,55,53,0
0,58,65,0
0,51,45,0
0,42,107,0
0,42,0,1
0,38,0,0
0,39,110,0
0,70,76,0
0,67,64,0
0,67,91,1
0,64,0,1
0,50,0,1
0,58,0,12
0,63,0,1
0,55,0,1
0,67,0,3
0,58,0,1
0,51,0,0
0,58,33,0
0,67,87,2
0,63,64,0
0,67,59,0
0,42,54,1
0,42,0,1
0,67,0,16
0,63,0,1
0,67,0,0
0,58,0,2
0,67,70,2
0,67,87,1
0,63,69,0
0,36,88,1
0,58,59,0
0,36,0,1
0,58,0,18
0,67,0,1
0,63,0,0
0,58,33,1
0,51,52,1
0,70,81,1
0,63,64,0
0,67,59,0
0,58,60,0
0,55,52,0
0,46,70,1
0,46,0,1
0,67,0,6
0,70,0,3
0,70,88,12
