track,note,velocity,time
1,75,83,6336
1,75,83,32
1,76,83,2
1,76,83,64
1,76,83,32
1,76,83,64
1,78,83,2
1,75,83,2
1,71,83,98
1,75,83,2
1,75,83,32
1,73,83,2
1,71,83,2
1,71,83,32
1,73,83,2
1,68,83,2
1,68,83,32
1,71,83,2
1,71,83,32
1,66,83,194
1,75,83,2
1,75,83,32
1,76,83,2
1,76,83,96
1,76,83,64
1,78,83,2
1,75,83,2
1,71,83,98
1,75,83,2
1,75,83,32
1,73,83,2
1,71,83,2
1,73,83,2
1,68,83,2
1,71,83,2
1,75,83,0
1,71,83,32
1,75,83,0
1,75,83,290
1,75,83,32
1,76,83,2
1,76,83,32
1,76,83,64
1,76,83,64
1,78,83,2
1,75,83,2
1,71,83,98
1,75,83,2
1,75,83,32
1,73,83,2
1,71,83,2
1,71,83,32
1,73,83,2
1,68,83,2
1,71,83,2
1,71,83,32
1,66,83,194
1,75,83,2
1,75,83,32
1,76,83,2
1,76,83,96
1,76,83,64
1,78,83,2
1,75,83,2
1,71,83,98
1,75,83,2
1,75,83,32
1,73,83,2
1,71,83,2
1,73,83,2
1,68,83,2
1,71,83,2
1,75,83,0
1,71,83,32
1,75,83,0
1,76,83,290
1,76,83,32
1,78,83,2
1,78,83,64
1,76,83,2
1,75,83,2
1,76,83,2
1,75,83,2
1,73,83,2
1,75,83,2
1,64,83,98
1,76,83,2
1,76,83,32
1,78,83,2
1,78,83,64
1,73,83,2
1,75,83,2
1,76,83,482
1,76,83,32
1,76,83,32
1,78,83,2
1,78,83,64
1,76,83,2
1,75,83,2
1,76,83,2
1,75,83,2
1,73,83,2
1,75,83,2
1,76,83,194
1,76,83,32
1,78,83,2
1,78,83,64
1,73,83,2
1,75,83,2
1,66,83,3554
1,75,83,2
1,75,83,32
1,78,83,2
1,76,83,96
1,76,83,64
1,78,83,2
1,75,83,2
1,71,83,98
1,75,83,2
1,75,83,32
1,73,83,2
1,71,83,2
1,73,83,2
1,68,83,2
1,71,83,2
1,71,83,32
1,66,83,194
1,75,83,2
1,75,83,32
1,76,83,2
1,76,83,32
1,76,83,64
1,76,83,64
1,78,83,2
1,75,83,2
1,71,83,98
1,75,83,2
1,75,83,32
1,73,83,2
1,71,83,2
1,73,83,2
1,68,83,2
1,71,83,2
1,75,83,0
1,71,83,32
1,75,83,0
1,75,83,290
1,75,83,32
1,76,83,2
1,76,83,96
1,76,83,64
1,78,83,2
1,75,83,2
1,75,83,194
1,75,83,32
1,73,83,2
1,71,83,2
1,73,83,2
1,68,83,2
1,71,83,2
1,71,83,32
1,66,83,194
1,75,83,2
1,75,83,32
1,76,83,2
1,76,83,32
1,76,83,64
1,76,83,64
1,78,83,2
1,75,83,2
1,71,83,98
1,75,83,2
1,75,83,32
1,73,83,2
1,71,83,2
1,71,83,32
1,73,83,2
1,68,83,2
1,71,83,2
1,75,83,0
1,71,83,32
1,75,83,0
1,76,83,290
1,76,83,32
1,78,83,2
1,78,83,64
1,76,83,2
1,75,83,2
1,76,83,2
1,75,83,2
1,73,83,2
1,75,83,2
1,64,83,98
1,76,83,2
1,76,83,32
1,78,83,2
1,78,83,64
1,73,83,2
1,75,83,2
1,76,83,482
1,76,83,32
1,76,83,32
1,78,83,2
1,78,83,64
1,76,83,2
1,75,83,2
1,76,83,2
1,75,83,2
1,73,83,2
1,75,83,2
1,76,83,194
1,76,83,32
1,78,83,2
1,78,83,64
1,73,83,2
1,75,83,2
1,75,83,14402
1,75,83,32
1,76,83,2
1,76,83,64
1,76,83,32
1,76,83,64
1,78,83,2
1,75,83,2
1,71,83,98
1,75,83,2
1,75,83,32
1,73,83,2
1,71,83,2
1,71,83,32
1,73,83,2
1,68,83,2
1,68,83,32
1,71,83,2
1,71,83,32
1,66,83,194
1,75,83,2
1,75,83,32
1,76,83,2
1,76,83,96
1,76,83,64
1,78,83,2
1,75,83,2
1,71,83,98
1,75,83,2
1,75,83,32
1,73,83,2
1,71,83,2
1,73,83,2
1,68,83,2
1,71,83,2
1,75,83,0
1,71,83,32
1,75,83,0
1,75,83,290
1,75,83,32
1,76,83,2
1,76,83,32
1,76,83,64
1,76,83,64
1,78,83,2
1,75,83,2
1,71,83,98
1,75,83,2
1,75,83,32
1,73,83,2
1,71,83,2
1,71,83,32
1,73,83,2
1,68,83,2
1,71,83,2
1,71,83,32
1,66,83,194
1,75,83,2
1,75,83,32
1,76,83,2
1,76,83,96
1,76,83,64
1,78,83,2
1,75,83,2
1,71,83,98
1,75,83,2
1,75,83,32
1,73,83,2
1,71,83,2
1,73,83,2
1,68,83,2
1,71,83,2
1,75,83,0
1,71,83,32
1,75,83,0
1,76,83,290
1,76,83,32
1,78,83,2
1,78,83,64
1,76,83,2
1,75,83,2
1,76,83,2
1,75,83,2
1,73,83,2
1,75,83,2
1,64,83,98
1,76,83,2
1,76,83,32
1,78,83,2
1,78,83,64
1,73,83,2
1,75,83,2
1,76,83,482
1,76,83,32
1,76,83,32
1,78,83,2
1,78,83,64
1,76,83,2
1,75,83,2
1,76,83,2
1,75,83,2
1,73,83,2
1,75,83,2
1,76,83,194
1,76,83,32
1,78,83,2
1,78,83,64
1,73,83,2
1,75,83,2
2,47,64,0
2,47,64,66
2,63,64,66
2,59,64,0
2,54,64,0
2,47,64,2
2,45,64,2
2,45,64,66
2,61,64,66
2,57,64,0
2,52,64,0
2,45,64,2
2,40,64,2
2,64,64,66
2,52,64,0
2,59,64,0
2,51,64,2
2,47,64,2
2,63,64,0
2,54,64,0
2,47,64,2
2,51,64,2
2,59,64,0
2,54,64,0
2,47,64,2
2,54,64,2
2,47,64,0
2,63,64,0
2,63,64,2
2,54,64,0
2,47,64,0
2,47,64,32
2,54,64,0
2,45,64,2
2,52,64,2
2,61,64,0
2,45,64,0
2,61,64,2
2,52,64,0
2,45,64,0
2,40,64,2
2,40,64,2
2,64,64,66
2,52,64,0
2,59,64,0
2,51,64,2
2,47,64,2
2,63,64,0
2,54,64,0
2,47,64,2
2,51,64,2
2,59,64,0
2,54,64,0
2,47,64,2
2,47,64,2
2,47,64,66
2,63,64,66
2,59,64,0
2,54,64,0
2,47,64,2
2,45,64,2
2,45,64,66
2,61,64,66
2,57,64,0
2,52,64,0
2,45,64,2
2,40,64,2
2,64,64,66
2,52,64,0
2,59,64,0
2,51,64,2
2,47,64,2
2,63,64,0
2,54,64,0
2,47,64,2
2,51,64,2
2,59,64,0
2,54,64,0
2,47,64,2
2,54,64,2
2,47,64,0
2,63,64,0
2,63,64,2
2,54,64,0
2,47,64,0
2,47,64,32
2,54,64,0
2,45,64,2
2,52,64,2
2,61,64,0
2,45,64,0
2,61,64,2
2,52,64,0
2,45,64,0
2,40,64,2
2,40,64,2
2,64,64,66
2,52,64,0
2,59,64,0
2,51,64,2
2,47,64,2
2,63,64,0
2,54,64,0
2,47,64,2
2,51,64,2
2,59,64,0
2,54,64,0
2,47,64,2
2,47,64,2
2,47,64,66
2,63,64,66
2,54,64,0
2,47,64,0
2,47,64,2
2,54,64,0
2,45,64,2
2,45,64,66
2,45,64,66
2,52,64,0
2,61,64,0
2,45,64,2
2,52,64,0
2,40,64,2
2,64,64,66
2,52,64,0
2,59,64,0
2,51,64,2
2,47,64,2
2,63,64,0
2,54,64,0
2,47,64,2
2,47,64,2
2,54,64,0
2,59,64,0
2,47,64,2
2,47,64,2
2,47,64,66
2,63,64,66
2,54,64,0
2,47,64,0
2,47,64,2
2,54,64,0
2,45,64,2
2,45,64,66
2,45,64,66
2,52,64,0
2,61,64,0
2,45,64,2
2,52,64,0
2,40,64,2
2,64,64,66
2,52,64,0
2,59,64,0
2,51,64,2
2,47,64,2
2,63,64,0
2,54,64,0
2,47,64,2
2,47,64,2
2,54,64,0
2,59,64,0
2,47,64,2
2,47,64,2
2,47,64,66
2,63,64,66
2,54,64,0
2,47,64,0
2,47,64,2
2,54,64,0
2,45,64,2
2,45,64,66
2,45,64,66
2,52,64,0
2,61,64,0
2,45,64,2
2,52,64,0
2,40,64,2
2,64,64,66
2,52,64,0
2,59,64,0
2,51,64,2
2,47,64,2
2,63,64,0
2,54,64,0
2,47,64,2
2,47,64,2
2,54,64,0
2,59,64,0
2,47,64,2
2,47,64,2
2,47,64,66
2,63,64,66
2,54,64,0
2,47,64,0
2,47,64,2
2,54,64,0
2,45,64,2
2,45,64,66
2,45,64,66
2,52,64,0
2,61,64,0
2,45,64,2
2,52,64,0
2,40,64,2
2,64,64,66
2,52,64,0
2,59,64,0
2,51,64,2
2,47,64,2
2,63,64,0
2,54,64,0
2,47,64,2
2,47,64,2
2,54,64,0
2,59,64,0
2,47,64,2
2,47,64,2
2,47,64,66
2,63,64,66
2,54,64,0
2,47,64,0
2,47,64,2
2,54,64,0
2,45,64,2
2,45,64,66
2,45,64,66
2,52,64,0
2,61,64,0
2,45,64,2
2,52,64,0
2,40,64,2
2,64,64,66
2,52,64,0
2,59,64,0
2,51,64,2
2,47,64,2
2,63,64,0
2,54,64,0
2,47,64,2
2,47,64,2
2,54,64,0
2,59,64,0
2,47,64,2
2,47,64,2
2,47,64,66
2,63,64,66
2,54,64,0
2,47,64,0
2,47,64,2
2,54,64,0
2,45,64,2
2,45,64,66
2,45,64,66
2,52,64,0
2,61,64,0
2,45,64,2
2,52,64,0
2,40,64,2
2,64,64,66
2,52,64,0
2,59,64,0
2,51,64,2
2,47,64,2
2,63,64,0
2,54,64,0
2,47,64,2
2,47,64,2
2,54,64,0
2,59,64,0
2,47,64,2
2,47,64,2
2,47,64,66
2,63,64,66
2,54,64,0
2,47,64,0
2,47,64,2
2,54,64,0
2,45,64,2
2,45,64,66
2,45,64,66
2,52,64,0
2,61,64,0
2,45,64,2
2,52,64,0
2,40,64,2
2,64,64,66
2,52,64,0
2,59,64,0
2,51,64,2
2,47,64,2
2,63,64,0
2,54,64,0
2,47,64,2
2,47,64,2
2,54,64,0
2,59,64,0
2,47,64,2
2,47,64,2
2,47,64,66
2,63,64,66
2,54,64,0
2,47,64,0
2,47,64,2
2,54,64,0
2,45,64,2
2,45,64,66
2,45,64,66
2,52,64,0
2,61,64,0
2,45,64,2
2,52,64,0
2,40,64,2
2,64,64,66
2,52,64,0
2,59,64,0
2,51,64,2
2,47,64,2
2,63,64,0
2,54,64,0
2,47,64,96
2,54,64,0
2,59,64,2
2,54,64,0
2,47,64,0
2,59,64,2
2,54,64,0
2,47,64,0
2,59,64,2
2,54,64,0
2,47,64,0
2,60,64,2
2,55,64,0
2,48,64,0
2,60,64,2
2,55,64,0
2,48,64,0
2,60,64,2
2,55,64,0
2,48,64,0
2,60,64,2
2,55,64,0
2,48,64,0
2,62,64,2
2,57,64,0
2,50,64,0
2,62,64,2
2,57,64,0
2,50,64,0
2,62,64,2
2,57,64,0
2,50,64,0
2,62,64,2
2,57,64,0
2,50,64,0
2,59,64,2
2,54,64,0
2,47,64,0
2,59,64,2
2,54,64,0
2,47,64,0
2,59,64,2
2,54,64,0
2,47,64,0
2,59,64,2
2,54,64,0
2,47,64,0
2,59,64,2
2,54,64,0
2,47,64,0
2,59,64,2
2,54,64,0
2,47,64,0
2,59,64,2
2,54,64,0
2,47,64,0
2,59,64,2
2,54,64,0
2,47,64,0
2,60,64,2
2,55,64,0
2,48,64,0
2,60,64,2
2,55,64,0
2,48,64,0
2,60,64,2
2,55,64,0
2,48,64,0
2,60,64,2
2,55,64,0
2,48,64,0
2,62,64,2
2,57,64,0
2,50,64,0
2,62,64,2
2,57,64,0
2,50,64,0
2,62,64,2
2,57,64,0
2,50,64,0
2,62,64,2
2,57,64,0
2,50,64,0
2,59,64,2
2,54,64,0
2,47,64,0
2,59,64,2
2,54,64,0
2,47,64,0
2,59,64,2
2,54,64,0
2,47,64,0
2,59,64,2
2,54,64,0
2,47,64,0
2,59,64,2
2,54,64,0
2,47,64,0
2,59,64,2
2,54,64,0
2,47,64,0
2,59,64,2
2,54,64,0
2,47,64,0
2,59,64,2
2,54,64,0
2,47,64,0
2,60,64,2
2,55,64,0
2,48,64,0
2,60,64,2
2,55,64,0
2,48,64,0
2,60,64,2
2,55,64,0
2,48,64,0
2,60,64,2
2,55,64,0
2,48,64,0
2,62,64,2
2,57,64,0
2,50,64,0
2,62,64,2
2,57,64,0
2,50,64,0
2,62,64,2
2,57,64,0
2,50,64,0
2,62,64,2
2,57,64,0
2,50,64,0
2,59,64,2
2,54,64,0
2,47,64,0
2,59,64,2
2,54,64,0
2,47,64,0
2,59,64,2
2,54,64,0
2,47,64,0
2,59,64,2
2,54,64,0
2,47,64,0
2,59,64,2
2,54,64,0
2,47,64,0
2,59,64,2
2,54,64,0
2,47,64,0
2,59,64,2
2,54,64,0
2,47,64,0
2,59,64,2
2,54,64,0
2,47,64,0
2,60,64,2
2,55,64,0
2,48,64,0
2,60,64,2
2,55,64,0
2,48,64,0
2,60,64,2
2,55,64,0
2,48,64,0
2,60,64,2
2,55,64,0
2,48,64,0
2,62,64,2
2,57,64,0
2,50,64,0
2,62,64,2
2,57,64,0
2,50,64,0
2,62,64,2
2,57,64,0
2,50,64,0
2,62,64,2
2,57,64,0
2,50,64,0
2,59,64,2
2,54,64,0
2,47,64,0
2,59,64,2
2,54,64,0
2,47,64,0
2,59,64,2
2,54,64,0
2,47,64,0
2,59,64,2
2,54,64,0
2,47,64,0
2,59,64,2
2,54,64,0
2,47,64,0
2,59,64,2
2,54,64,0
2,47,64,0
2,59,64,2
2,54,64,0
2,47,64,0
2,59,64,2
2,54,64,0
2,47,64,0
2,47,64,2
2,47,64,66
2,63,64,66
2,59,64,0
2,54,64,0
2,47,64,2
2,45,64,2
2,45,64,66
2,61,64,66
2,57,64,0
2,52,64,0
2,45,64,2
2,40,64,2
2,64,64,66
2,52,64,0
2,59,64,0
2,51,64,2
2,47,64,2
2,63,64,0
2,54,64,0
2,47,64,2
2,51,64,2
2,59,64,0
2,54,64,0
2,47,64,2
2,54,64,2
2,47,64,0
2,63,64,0
2,63,64,2
2,54,64,0
2,47,64,0
2,47,64,32
2,54,64,0
2,45,64,2
2,52,64,2
2,61,64,0
2,45,64,0
2,61,64,2
2,52,64,0
2,45,64,0
2,40,64,2
2,40,64,2
2,64,64,66
2,52,64,0
2,59,64,0
2,51,64,2
2,47,64,2
2,63,64,0
2,54,64,0
2,47,64,2
2,51,64,2
2,59,64,0
2,54,64,0
2,47,64,2
2,47,64,2
2,47,64,66
2,63,64,66
2,54,64,0
2,47,64,0
2,47,64,2
2,54,64,0
2,45,64,2
2,45,64,66
2,45,64,66
2,52,64,0
2,61,64,0
2,45,64,2
2,52,64,0
2,40,64,2
2,64,64,66
2,52,64,0
2,59,64,0
2,51,64,2
2,47,64,2
2,63,64,0
2,54,64,0
2,47,64,2
2,47,64,2
2,54,64,0
2,59,64,0
2,47,64,2
2,47,64,2
2,47,64,66
2,63,64,66
2,54,64,0
2,47,64,0
2,47,64,2
2,54,64,0
2,45,64,2
2,45,64,66
2,45,64,66
2,52,64,0
2,61,64,0
2,45,64,2
2,52,64,0
2,40,64,2
2,64,64,66
2,52,64,0
2,59,64,0
2,51,64,2
2,47,64,2
2,63,64,0
2,54,64,0
2,47,64,2
2,47,64,2
2,54,64,0
2,59,64,0
2,47,64,2
2,47,64,2
2,47,64,66
2,63,64,66
2,54,64,0
2,47,64,0
2,47,64,2
2,54,64,0
2,45,64,2
2,45,64,66
2,45,64,66
2,52,64,0
2,61,64,0
2,45,64,2
2,52,64,0
2,40,64,2
2,64,64,66
2,52,64,0
2,59,64,0
2,51,64,2
2,47,64,2
2,63,64,0
2,54,64,0
2,47,64,2
2,47,64,2
2,54,64,0
2,59,64,0
2,47,64,2
2,47,64,2
2,47,64,66
2,63,64,66
2,54,64,0
2,47,64,0
2,47,64,2
2,54,64,0
2,45,64,2
2,45,64,66
2,45,64,66
2,52,64,0
2,61,64,0
2,45,64,2
2,52,64,0
2,40,64,2
2,64,64,66
2,52,64,0
2,59,64,0
