track,note,velocity,time
1,49,110,0
1,49,0,94
1,46,110,98
1,46,0,94
1,46,110,2
1,46,0,94
1,46,110,2
1,46,0,94
1,46,110,2
1,46,0,94
1,46,110,2
1,46,0,94
1,46,110,2
1,46,0,94
1,46,110,2
1,46,0,94
1,57,110,2
1,57,0,94
1,46,110,2
1,46,0,94
1,46,110,2
1,46,0,94
1,46,110,2
1,46,0,94
1,46,110,2
1,46,0,94
1,46,110,2
1,46,0,94
1,46,110,2
1,46,0,94
1,46,110,2
1,46,0,94
1,46,110,2
1,46,0,94
1,49,110,2
1,49,0,94
1,46,110,2
1,46,0,94
1,46,110,2
1,46,0,94
1,46,110,2
1,46,0,94
1,46,110,2
1,46,0,94
1,46,110,2
1,46,0,94
1,46,110,2
1,46,0,94
1,57,110,2
1,57,0,94
1,46,110,2
1,46,0,94
1,46,110,2
1,46,0,94
1,46,110,2
1,46,0,94
1,46,110,2
1,46,0,94
1,46,110,2
1,46,0,94
1,46,110,2
1,46,0,94
1,46,110,2
1,46,0,94
1,46,110,2
1,46,0,94
1,49,110,2
1,49,0,94
1,46,110,2
1,46,0,94
1,46,110,2
1,46,0,94
1,46,110,2
1,46,0,94
1,46,110,2
1,46,0,94
1,46,110,2
1,46,0,94
1,46,110,2
1,46,0,94
1,46,110,2
1,46,0,94
1,46,110,2
1,46,0,94
1,46,110,2
1,46,0,94
1,46,110,2
1,46,0,94
1,46,110,2
1,46,0,94
1,46,110,2
1,46,0,94
1,46,110,2
1,46,0,94
1,46,110,2
1,46,0,94
1,57,110,2
1,57,0,94
1,49,110,2
1,49,0,94
1,46,110,2
1,46,0,94
1,46,110,2
1,46,0,94
1,46,110,2
1,46,0,94
1,46,110,2
1,46,0,94
1,46,110,2
1,46,0,94
1,46,110,2
1,46,0,94
1,57,110,2
1,57,0,94
1,46,110,2
1,46,0,94
1,46,110,2
1,46,0,94
1,46,110,2
1,46,0,94
1,46,110,2
1,46,0,94
1,49,110,2
1,49,0,94
1,49,110,98
1,49,0,94
1,49,110,98
1,49,0,94
1,46,110,2
1,46,0,94
1,46,110,2
1,46,0,94
1,46,110,2
1,46,0,94
1,46,110,2
1,46,0,94
1,46,110,2
1,46,0,94
1,46,110,2
1,46,0,94
1,57,110,2
1,57,0,94
1,46,110,2
1,46,0,94
1,46,110,2
1,46,0,94
1,46,110,2
1,46,0,94
1,46,110,2
1,46,0,94
1,46,110,2
1,46,0,94
1,46,110,2
1,46,0,94
1,46,110,2
1,46,0,94
1,46,110,2
1,46,0,94
1,49,110,2
1,49,0,94
1,46,110,2
1,46,0,94
1,46,110,2
1,46,0,94
1,46,110,2
1,46,0,94
1,46,110,2
1,46,0,94
1,46,110,2
1,46,0,94
1,46,110,2
1,46,0,94
1,57,110,2
1,57,0,94
1,46,110,2
1,46,0,94
1,46,110,2
1,46,0,94
1,46,110,2
1,46,0,94
1,46,110,2
1,46,0,94
1,46,110,2
1,46,0,94
1,46,110,2
1,46,0,94
1,46,110,2
1,46,0,94
1,46,110,2
1,46,0,94
1,49,110,2
1,49,0,94
1,46,110,2
1,46,0,94
1,46,110,2
1,46,0,94
1,46,110,2
1,46,0,94
1,46,110,2
1,46,0,94
1,46,110,2
1,46,0,94
1,46,110,2
1,46,0,94
1,46,110,2
1,46,0,94
1,46,110,2
1,46,0,94
1,46,110,2
1,46,0,94
1,46,110,2
1,46,0,94
1,46,110,2
1,46,0,94
1,46,110,2
1,46,0,94
1,46,110,2
1,46,0,94
1,46,110,2
1,46,0,94
1,46,110,2
1,46,0,94
1,49,110,2
1,49,0,94
1,46,110,2
1,46,0,94
1,46,110,2
1,46,0,94
1,46,110,2
1,46,0,94
1,46,110,2
1,46,0,94
1,49,110,2
1,49,0,94
1,57,110,98
1,57,0,94
1,46,110,2
1,46,0,94
1,46,110,2
1,46,0,94
1,46,110,2
1,46,0,94
1,46,110,2
1,46,0,94
1,49,110,386
1,49,0,94
1,46,110,2
1,46,0,94
1,46,110,2
1,46,0,94
1,46,110,2
1,46,0,94
1,46,110,2
1,46,0,94
1,46,110,2
1,46,0,94
1,46,110,2
1,46,0,94
1,49,110,2
1,49,0,94
1,46,110,2
1,46,0,94
1,46,110,2
1,46,0,94
1,46,110,2
1,46,0,94
1,46,110,2
1,46,0,94
1,46,110,2
1,46,0,94
1,46,110,2
1,46,0,94
1,46,110,2
1,46,0,94
1,46,110,2
1,46,0,94
1,49,110,2
1,49,0,94
1,46,110,2
1,46,0,94
1,46,110,2
1,46,0,94
1,46,110,2
1,46,0,94
1,46,110,2
1,46,0,94
1,49,110,2
1,49,0,94
1,57,110,98
1,57,0,94
1,46,110,2
1,46,0,94
1,46,110,2
1,46,0,94
1,46,110,2
1,46,0,94
1,46,110,2
1,46,0,94
1,46,110,2
1,46,0,94
1,46,110,2
1,46,0,94
1,46,110,2
1,46,0,94
1,46,110,2
1,46,0,94
1,49,110,2
1,49,0,94
1,46,110,2
1,46,0,94
1,46,110,2
1,46,0,94
1,46,110,2
1,46,0,94
1,46,110,2
1,46,0,94
1,46,110,2
1,46,0,94
1,46,110,2
1,46,0,94
1,49,110,2
1,49,0,94
1,46,110,2
1,46,0,94
1,46,110,2
1,46,0,94
1,46,110,2
1,46,0,94
1,46,110,2
1,46,0,94
1,46,110,2
1,46,0,94
1,46,110,2
1,46,0,94
1,46,110,2
1,46,0,94
1,46,110,2
1,46,0,94
1,49,110,2
1,49,0,94
1,46,110,2
1,46,0,94
1,46,110,2
1,46,0,94
1,46,110,2
1,46,0,94
1,46,110,2
1,46,0,94
1,49,110,2
1,49,0,94
1,57,110,98
1,57,0,94
1,46,110,2
1,46,0,94
1,46,110,2
1,46,0,94
1,46,110,2
1,46,0,94
1,46,110,2
1,46,0,94
1,46,110,2
1,46,0,94
1,46,110,2
1,46,0,94
1,46,110,2
1,46,0,94
1,46,110,2
1,46,0,94
1,49,110,2
1,49,0,94
1,46,110,2
1,46,0,94
1,46,110,2
1,46,0,94
1,46,110,2
1,46,0,94
1,46,110,2
1,46,0,94
1,46,110,2
1,46,0,94
1,46,110,2
1,46,0,94
1,49,110,2
1,49,0,94
1,46,110,2
1,46,0,94
1,46,110,2
1,46,0,94
1,53,110,2
1,53,0,94
1,53,110,98
1,53,0,94
1,53,110,98
1,53,0,94
1,49,110,98
1,49,0,94
1,46,110,2
1,46,0,94
1,46,110,2
1,46,0,94
1,46,110,2
1,46,0,94
1,46,110,2
1,46,0,94
1,46,110,2
1,46,0,94
1,46,110,2
1,46,0,94
1,49,110,2
1,49,0,94
1,46,110,2
1,46,0,94
1,46,110,2
1,46,0,94
1,53,110,2
1,53,0,94
1,53,110,98
1,53,0,94
1,53,110,98
1,53,0,94
1,49,110,98
1,49,0,160
1,40,110,128
1,40,0,46
1,40,110,2
1,40,0,46
1,40,110,2
1,40,0,94
1,43,110,2
1,43,0,46
1,43,110,2
1,43,0,46
1,40,110,2
1,40,0,94
1,43,110,2
1,43,0,46
1,43,110,2
1,43,0,46
1,49,110,2
1,49,0,160
1,47,110,32
1,47,0,46
1,47,110,50
1,47,0,46
1,45,110,50
1,45,0,46
1,45,110,2
1,45,0,46
1,45,110,50
1,45,0,46
1,43,110,2
1,43,0,46
1,43,110,50
1,43,0,46
1,43,110,2
1,43,0,46
1,49,110,2
1,49,0,160
1,57,110,32
1,57,0,160
1,57,110,32
1,57,0,160
1,57,110,32
1,57,0,160
1,57,110,32
1,57,0,160
1,57,110,32
1,57,0,94
1,57,110,2
1,57,0,94
1,49,110,2
1,49,0,160
1,49,110,32
1,49,0,160
1,49,110,32
1,49,0,94
1,46,110,2
1,46,0,94
1,46,110,2
1,46,0,94
1,46,110,2
1,46,0,94
1,46,110,2
1,46,0,94
1,46,110,2
1,46,0,94
1,46,110,2
1,46,0,94
1,57,110,2
1,57,0,94
1,46,110,2
1,46,0,94
1,46,110,2
1,46,0,94
1,46,110,2
1,46,0,94
1,46,110,2
1,46,0,94
1,46,110,2
1,46,0,94
1,46,110,2
1,46,0,94
1,46,110,2
1,46,0,94
1,46,110,2
1,46,0,94
1,49,110,2
1,49,0,94
1,46,110,2
1,46,0,94
1,46,110,2
1,46,0,94
1,46,110,2
1,46,0,94
1,46,110,2
1,46,0,94
1,46,110,2
1,46,0,94
1,46,110,2
1,46,0,94
1,57,110,2
1,57,0,94
1,46,110,2
1,46,0,94
1,46,110,2
1,46,0,94
1,46,110,2
1,46,0,94
1,46,110,2
1,46,0,94
1,46,110,2
1,46,0,94
1,46,110,2
1,46,0,94
1,46,110,2
1,46,0,94
1,46,110,2
1,46,0,94
1,49,110,2
1,49,0,94
1,46,110,2
1,46,0,94
1,46,110,2
1,46,0,94
1,46,110,2
1,46,0,94
1,46,110,2
1,46,0,94
1,46,110,2
1,46,0,94
1,46,110,2
1,46,0,94
1,46,110,2
1,46,0,94
1,46,110,2
1,46,0,94
1,46,110,2
1,46,0,94
1,46,110,2
1,46,0,94
1,46,110,2
1,46,0,94
1,46,110,2
1,46,0,94
1,46,110,2
1,46,0,94
1,46,110,2
1,46,0,94
1,57,110,2
1,57,0,94
1,49,110,2
1,49,0,94
1,46,110,2
1,46,0,94
1,46,110,2
1,46,0,94
1,46,110,2
1,46,0,94
1,46,110,2
1,46,0,94
1,46,110,2
1,46,0,94
1,46,110,2
1,46,0,94
1,57,110,2
1,57,0,94
1,46,110,2
1,46,0,94
1,46,110,2
1,46,0,94
1,46,110,2
1,46,0,94
1,46,110,2
1,46,0,94
1,49,110,2
1,49,0,94
1,49,110,98
1,49,0,94
1,49,110,98
1,49,0,94
1,46,110,2
1,46,0,94
1,46,110,2
1,46,0,94
1,46,110,2
1,46,0,94
1,46,110,2
1,46,0,94
1,46,110,2
1,46,0,94
1,46,110,2
1,46,0,94
1,57,110,2
1,57,0,94
1,46,110,2
1,46,0,94
1,46,110,2
1,46,0,94
1,46,110,2
1,46,0,94
1,46,110,2
1,46,0,94
1,46,110,2
1,46,0,94
1,46,110,2
1,46,0,94
1,46,110,2
1,46,0,94
1,46,110,2
1,46,0,94
1,49,110,2
1,49,0,94
1,46,110,2
1,46,0,94
1,46,110,2
1,46,0,94
1,46,110,2
1,46,0,94
1,46,110,2
1,46,0,94
1,46,110,2
1,46,0,94
1,46,110,2
1,46,0,94
1,57,110,2
1,57,0,94
1,46,110,2
1,46,0,94
1,46,110,2
1,46,0,94
1,46,110,2
1,46,0,94
1,46,110,2
1,46,0,94
1,46,110,2
1,46,0,94
1,46,110,2
1,46,0,94
1,46,110,2
1,46,0,94
1,46,110,2
1,46,0,94
1,49,110,2
1,49,0,94
1,46,110,2
1,46,0,94
1,46,110,2
1,46,0,94
1,46,110,2
1,46,0,94
1,46,110,2
1,46,0,94
1,46,110,2
1,46,0,94
1,46,110,2
1,46,0,94
1,46,110,2
1,46,0,94
1,46,110,2
1,46,0,94
1,46,110,2
1,46,0,94
1,46,110,2
1,46,0,94
1,46,110,2
1,46,0,94
1,46,110,2
1,46,0,94
1,46,110,2
1,46,0,94
1,46,110,2
1,46,0,94
1,46,110,2
1,46,0,94
1,49,110,2
1,49,0,94
1,46,110,2
1,46,0,94
1,46,110,2
1,46,0,94
1,46,110,2
1,46,0,94
1,46,110,2
1,46,0,94
1,49,110,2
1,49,0,94
1,57,110,98
1,57,0,94
1,46,110,2
1,46,0,94
1,46,110,2
1,46,0,94
1,46,110,2
1,46,0,94
1,46,110,2
1,46,0,94
1,46,110,2
1,46,0,94
1,46,110,2
1,46,0,94
1,46,110,2
1,46,0,94
1,46,110,2
1,46,0,94
1,49,110,2
1,49,0,94
1,46,110,2
1,46,0,94
1,46,110,2
1,46,0,94
1,46,110,2
1,46,0,94
1,46,110,2
1,46,0,94
1,46,110,2
1,46,0,94
1,46,110,2
1,46,0,94
1,49,110,2
1,49,0,94
1,46,110,2
1,46,0,94
1,46,110,2
1,46,0,94
1,46,110,2
1,46,0,94
1,46,110,2
1,46,0,94
1,46,110,2
1,46,0,94
1,46,110,2
1,46,0,94
1,46,110,2
1,46,0,94
1,46,110,2
1,46,0,94
1,49,110,2
1,49,0,94
1,46,110,2
1,46,0,94
1,46,110,2
1,46,0,94
1,46,110,2
1,46,0,94
1,46,110,2
1,46,0,94
1,49,110,2
1,49,0,94
1,57,110,98
1,57,0,94
1,46,110,2
1,46,0,94
1,46,110,2
1,46,0,94
1,46,110,2
1,46,0,94
1,46,110,2
1,46,0,94
1,46,110,2
1,46,0,94
1,46,110,2
1,46,0,94
1,46,110,2
1,46,0,94
1,46,110,2
1,46,0,94
1,49,110,2
1,49,0,94
1,46,110,2
1,46,0,94
1,46,110,2
1,46,0,94
1,46,110,2
1,46,0,94
1,46,110,2
1,46,0,94
1,46,110,2
1,46,0,94
1,46,110,2
1,46,0,94
1,49,110,2
1,49,0,94
1,46,110,2
1,46,0,94
1,46,110,2
1,46,0,94
1,46,110,2
1,46,0,94
1,46,110,2
1,46,0,94
1,46,110,2
1,46,0,94
1,46,110,2
1,46,0,94
1,46,110,2
1,46,0,94
1,46,110,2
1,46,0,94
1,49,110,2
1,49,0,94
1,46,110,2
1,46,0,94
1,46,110,2
1,46,0,94
1,46,110,2
1,46,0,94
1,46,110,2
1,46,0,94
1,49,110,2
1,49,0,94
1,57,110,98
1,57,0,94
1,46,110,2
1,46,0,94
1,46,110,2
1,46,0,94
1,46,110,2
1,46,0,94
1,46,110,2
1,46,0,94
1,46,110,2
1,46,0,94
1,46,110,2
1,46,0,94
1,46,110,2
1,46,0,94
1,46,110,2
1,46,0,94
1,49,110,2
1,49,0,94
1,46,110,2
1,46,0,94
1,46,110,2
1,46,0,94
1,46,110,2
1,46,0,94
1,46,110,2
1,46,0,94
1,46,110,2
1,46,0,94
1,46,110,2
1,46,0,94
1,49,110,2
1,49,0,94
1,46,110,2
1,46,0,94
1,46,110,2
1,46,0,94
1,53,110,2
1,53,0,94
1,53,110,98
1,53,0,94
1,53,110,98
1,53,0,94
1,49,110,98
1,49,0,94
1,46,110,2
1,46,0,94
1,46,110,2
1,46,0,94
1,46,110,2
1,46,0,94
1,46,110,2
1,46,0,94
1,46,110,2
1,46,0,94
1,46,110,2
1,46,0,94
1,49,110,2
1,49,0,94
1,46,110,2
1,46,0,94
1,46,110,2
1,46,0,94
1,53,110,2
1,53,0,94
1,53,110,98
1,53,0,94
1,53,110,98
1,53,0,94
1,49,110,98
1,49,0,160
1,40,110,128
1,40,0,46
1,40,110,2
1,40,0,46
1,40,110,2
1,40,0,94
1,43,110,2
1,43,0,46
1,43,110,2
1,43,0,46
1,40,110,2
1,40,0,94
1,43,110,2
1,43,0,46
1,43,110,2
1,43,0,46
1,49,110,2
1,49,0,160
1,47,110,32
1,47,0,46
1,47,110,50
1,47,0,46
1,45,110,50
1,45,0,46
1,45,110,2
1,45,0,46
1,45,110,50
1,45,0,46
1,43,110,2
1,43,0,46
1,43,110,50
1,43,0,46
1,43,110,2
1,43,0,46
1,49,110,2
1,49,0,160
1,57,110,32
1,57,0,160
1,57,110,32
1,57,0,160
1,57,110,32
1,57,0,160
1,57,110,32
1,57,0,160
1,57,110,32
1,57,0,94
1,57,110,2
1,57,0,94
1,49,110,386
1,49,0,94
1,46,110,2
1,46,0,94
1,46,110,2
1,46,0,94
1,46,110,2
1,46,0,94
1,46,110,2
1,46,0,94
1,46,110,2
1,46,0,94
1,46,110,2
1,46,0,94
1,57,110,2
1,57,0,94
1,46,110,2
1,46,0,94
1,46,110,2
1,46,0,94
1,46,110,2
1,46,0,94
1,46,110,2
1,46,0,94
1,46,110,2
1,46,0,94
1,46,110,2
1,46,0,94
1,46,110,2
1,46,0,94
1,46,110,2
1,46,0,94
1,49,110,2
1,49,0,94
1,46,110,2
1,46,0,94
1,46,110,2
1,46,0,94
1,46,110,2
1,46,0,94
1,46,110,2
1,46,0,94
1,46,110,2
1,46,0,94
1,46,110,2
1,46,0,94
1,57,110,2
1,57,0,94
1,46,110,2
1,46,0,94
