track,note,velocity,time
1,37,100,4992
1,37,100,128
1,37,100,128
1,35,100,64
1,38,100,64
1,35,100,64
1,49,100,64
1,35,100,0
1,46,100,128
1,38,100,0
1,35,100,64
1,46,100,64
1,35,100,0
1,46,100,128
1,38,100,0
1,35,100,64
1,46,100,64
1,35,100,0
1,46,100,128
1,38,100,0
1,35,100,64
1,46,100,64
1,35,100,0
1,35,100,64
1,46,100,64
1,38,100,0
1,35,100,64
1,35,100,64
1,46,100,0
1,46,100,128
1,38,100,0
1,35,100,64
1,46,100,64
1,35,100,0
1,46,100,128
1,38,100,0
1,35,100,64
1,49,100,64
1,35,100,0
1,46,100,128
1,38,100,0
1,35,100,64
1,49,100,64
1,35,100,0
1,35,100,64
1,46,100,64
1,38,100,0
1,35,100,64
1,49,100,64
1,35,100,0
1,46,100,128
1,38,100,0
1,35,100,64
1,46,100,64
1,35,100,0
1,46,100,128
1,38,100,0
1,35,100,64
1,46,100,64
1,35,100,0
1,46,100,128
1,38,100,0
1,35,100,64
1,46,100,64
1,35,100,0
1,35,100,64
1,46,100,64
1,38,100,0
1,35,100,64
1,35,100,64
1,46,100,0
1,46,100,128
1,38,100,0
1,35,100,64
1,46,100,64
1,35,100,0
1,46,100,128
1,38,100,0
1,35,100,64
1,35,100,64
1,49,100,0
1,46,100,128
1,38,100,0
1,35,100,64
1,35,100,64
1,49,100,0
1,35,100,64
1,46,100,64
1,38,100,0
1,35,100,64
1,49,100,64
1,35,100,0
1,46,100,128
1,38,100,0
1,35,100,64
1,46,100,64
1,35,100,0
1,46,100,128
1,38,100,0
1,35,100,64
1,46,100,64
1,35,100,0
1,46,100,128
1,38,100,0
1,35,100,64
1,46,100,64
1,35,100,0
1,35,100,64
1,46,100,64
1,38,100,0
1,35,100,64
1,35,100,64
1,49,100,0
1,46,100,128
1,38,100,0
1,35,100,64
1,35,100,64
1,57,100,0
1,46,100,128
1,38,100,0
1,35,100,64
1,49,100,64
1,35,100,0
1,35,100,128
1,43,100,0
1,38,100,32
1,38,100,32
1,43,100,64
1,35,100,0
1,43,100,32
1,43,100,32
1,41,100,64
1,35,100,0
1,41,100,32
1,41,100,32
1,35,100,0
1,41,100,32
1,49,100,32
1,35,100,0
1,53,100,128
1,38,100,0
1,35,100,64
1,53,100,64
1,35,100,0
1,53,100,128
1,38,100,0
1,53,100,64
1,35,100,0
1,53,100,64
1,35,100,0
1,53,100,64
1,53,100,64
1,38,100,0
1,53,100,64
1,35,100,0
1,53,100,64
1,35,100,0
1,53,100,64
1,35,100,0
1,53,100,64
1,38,100,0
1,53,100,64
1,35,100,0
1,35,100,64
1,53,100,0
1,53,100,64
1,38,100,64
1,53,100,0
1,35,100,64
1,53,100,0
1,35,100,64
1,53,100,0
1,53,100,64
1,38,100,64
1,53,100,0
1,35,100,64
1,53,100,0
1,35,100,64
1,53,100,0
1,53,100,64
1,38,100,64
1,53,100,0
1,35,100,64
1,53,100,0
1,35,100,64
1,53,100,0
1,35,100,64
1,53,100,0
1,57,100,64
1,38,100,0
1,35,100,64
1,49,100,64
1,35,100,0
1,53,100,128
1,38,100,0
1,35,100,64
1,53,100,64
1,35,100,0
1,53,100,128
1,38,100,0
1,53,100,64
1,35,100,0
1,53,100,64
1,35,100,0
1,53,100,64
1,53,100,64
1,38,100,0
1,53,100,64
1,35,100,0
1,53,100,64
1,35,100,0
1,53,100,64
1,35,100,0
1,53,100,64
1,38,100,0
1,53,100,64
1,35,100,0
1,35,100,64
1,53,100,0
1,53,100,64
1,38,100,64
1,53,100,0
1,35,100,64
1,53,100,0
1,35,100,64
1,53,100,0
1,53,100,64
1,38,100,64
1,53,100,0
1,35,100,64
1,53,100,0
1,35,100,64
1,53,100,0
1,53,100,64
1,38,100,64
1,53,100,0
1,35,100,64
1,53,100,0
1,49,100,64
1,35,100,0
1,46,100,128
1,38,100,0
1,46,100,128
1,35,100,0
1,35,100,64
1,46,100,64
1,38,100,0
1,35,100,64
1,49,100,64
1,35,100,0
1,46,100,128
1,38,100,0
1,49,100,128
1,38,100,0
1,35,100,64
1,38,100,64
1,49,100,0
1,35,100,64
1,49,100,64
1,35,100,0
1,46,100,128
1,38,100,0
1,35,100,64
1,46,100,64
1,35,100,0
1,46,100,128
1,38,100,0
1,35,100,64
1,46,100,64
1,35,100,0
1,46,100,128
1,38,100,0
1,35,100,64
1,46,100,64
1,35,100,0
1,35,100,64
1,46,100,64
1,38,100,0
1,35,100,64
1,35,100,64
1,46,100,0
1,46,100,128
1,38,100,0
1,35,100,64
1,46,100,64
1,35,100,0
1,46,100,128
1,38,100,0
1,35,100,64
1,35,100,64
1,49,100,0
1,46,100,128
1,38,100,0
1,35,100,64
1,35,100,64
1,49,100,0
1,35,100,64
1,46,100,64
1,38,100,0
1,35,100,64
1,49,100,64
1,35,100,0
1,46,100,128
1,38,100,0
1,35,100,64
1,46,100,64
1,35,100,0
1,46,100,128
1,38,100,0
1,35,100,64
1,46,100,64
1,35,100,0
1,46,100,128
1,38,100,0
1,35,100,64
1,46,100,64
1,35,100,0
1,35,100,64
1,46,100,64
1,38,100,0
1,35,100,64
1,35,100,64
1,46,100,0
1,46,100,128
1,38,100,0
1,35,100,64
1,46,100,64
1,35,100,0
1,46,100,128
1,38,100,0
1,35,100,64
1,49,100,64
1,35,100,0
1,46,100,128
1,38,100,0
1,35,100,64
1,49,100,64
1,35,100,0
1,35,100,64
1,46,100,64
1,38,100,0
1,35,100,64
1,49,100,64
1,35,100,0
1,46,100,128
1,38,100,0
1,35,100,64
1,46,100,64
1,35,100,0
1,46,100,128
1,38,100,0
1,35,100,64
1,46,100,64
1,35,100,0
1,46,100,128
1,38,100,0
1,35,100,64
1,46,100,64
1,35,100,0
1,35,100,64
1,46,100,64
1,38,100,0
1,35,100,64
1,35,100,64
1,46,100,0
1,46,100,128
1,38,100,0
1,35,100,64
1,46,100,64
1,35,100,0
1,46,100,128
1,38,100,0
1,35,100,64
1,35,100,64
1,49,100,0
1,46,100,128
1,38,100,0
1,35,100,64
1,35,100,64
1,49,100,0
1,35,100,64
1,46,100,64
1,38,100,0
1,35,100,64
1,49,100,64
1,35,100,0
1,46,100,128
1,38,100,0
1,35,100,64
1,46,100,64
1,35,100,0
1,46,100,128
1,38,100,0
1,35,100,64
1,46,100,64
1,35,100,0
1,46,100,128
1,38,100,0
1,35,100,64
1,46,100,64
1,35,100,0
1,35,100,64
1,46,100,64
1,38,100,0
1,35,100,64
1,35,100,64
1,49,100,0
1,46,100,128
1,38,100,0
1,35,100,64
1,35,100,64
1,57,100,0
1,46,100,128
1,38,100,0
1,35,100,64
1,49,100,64
1,35,100,0
1,35,100,128
1,43,100,0
1,38,100,32
1,38,100,32
1,35,100,64
1,45,100,0
1,45,100,32
1,45,100,32
1,43,100,32
1,35,100,32
1,43,100,0
1,43,100,32
1,41,100,32
1,35,100,0
1,41,100,32
1,49,100,32
1,35,100,0
1,53,100,128
1,38,100,0
1,35,100,64
1,53,100,64
1,35,100,0
1,53,100,128
1,38,100,0
1,53,100,64
1,35,100,0
1,53,100,64
1,35,100,0
1,53,100,64
1,53,100,64
1,38,100,0
1,53,100,64
1,35,100,0
1,53,100,64
1,35,100,0
1,53,100,64
1,35,100,0
1,53,100,64
1,38,100,0
1,53,100,64
1,35,100,0
1,35,100,64
1,53,100,0
1,53,100,64
1,38,100,64
1,53,100,0
1,35,100,64
1,53,100,0
1,35,100,64
1,53,100,0
1,53,100,64
1,38,100,64
1,53,100,0
1,35,100,64
1,53,100,0
1,35,100,64
1,53,100,0
1,53,100,64
1,38,100,64
1,53,100,0
1,35,100,64
1,53,100,0
1,35,100,64
1,53,100,0
1,35,100,64
1,53,100,0
1,57,100,64
1,38,100,0
1,35,100,64
1,49,100,64
1,35,100,0
1,53,100,128
1,38,100,0
1,35,100,64
1,53,100,64
1,35,100,0
1,53,100,128
1,38,100,0
1,53,100,64
1,35,100,0
1,53,100,64
1,35,100,0
1,53,100,64
1,53,100,64
1,38,100,0
1,53,100,64
1,35,100,0
1,53,100,64
1,35,100,0
1,53,100,64
1,35,100,0
1,53,100,64
1,38,100,0
1,53,100,64
1,35,100,0
1,35,100,64
1,53,100,0
1,53,100,64
1,38,100,64
1,53,100,0
1,35,100,64
1,53,100,0
1,35,100,64
1,53,100,0
1,53,100,64
1,38,100,64
1,53,100,0
1,35,100,64
1,53,100,0
1,35,100,64
1,53,100,0
1,53,100,64
1,38,100,64
1,53,100,0
1,35,100,64
1,53,100,0
1,49,100,64
1,35,100,0
1,46,100,128
1,38,100,0
1,46,100,128
1,35,100,0
1,35,100,64
1,46,100,64
1,38,100,0
1,35,100,64
1,49,100,64
1,35,100,0
1,46,100,128
1,38,100,0
1,49,100,128
1,38,100,0
1,35,100,64
1,38,100,64
1,49,100,0
1,35,100,64
1,49,100,64
1,35,100,0
1,46,100,128
1,38,100,0
1,35,100,64
1,46,100,64
1,35,100,0
1,46,100,128
1,38,100,0
1,35,100,64
1,46,100,64
1,35,100,0
1,46,100,128
1,38,100,0
1,35,100,64
1,46,100,64
1,35,100,0
1,35,100,64
1,46,100,64
1,38,100,0
1,35,100,64
1,35,100,64
1,46,100,0
1,46,100,128
1,38,100,0
1,35,100,64
1,46,100,64
1,35,100,0
1,46,100,128
1,38,100,0
1,35,100,64
1,35,100,64
1,49,100,0
1,46,100,128
1,38,100,0
1,35,100,64
1,35,100,64
1,49,100,0
1,35,100,64
1,46,100,64
1,38,100,0
1,35,100,64
1,49,100,64
1,35,100,0
1,46,100,128
1,38,100,0
1,35,100,64
1,46,100,64
1,35,100,0
1,46,100,128
1,38,100,0
1,35,100,64
1,46,100,64
1,35,100,0
1,46,100,128
1,38,100,0
1,35,100,64
1,46,100,64
1,35,100,0
1,35,100,64
1,46,100,64
1,38,100,0
1,35,100,64
1,35,100,64
1,46,100,0
1,46,100,128
1,38,100,0
1,35,100,64
1,46,100,64
1,35,100,0
1,46,100,128
1,38,100,0
1,35,100,64
1,49,100,64
1,35,100,0
1,35,100,128
1,43,100,0
1,38,100,32
1,38,100,32
1,35,100,64
1,45,100,0
1,45,100,32
1,45,100,32
1,43,100,32
1,35,100,32
1,43,100,0
1,43,100,32
1,41,100,32
1,35,100,0
1,41,100,32
1,49,100,32
1,35,100,0
1,38,100,128
1,53,100,0
1,35,100,64
1,53,100,0
1,53,100,64
1,35,100,0
1,53,100,128
1,38,100,0
1,53,100,64
1,35,100,0
1,53,100,64
1,35,100,0
1,53,100,128
1,38,100,0
1,53,100,64
1,35,100,0
1,53,100,64
1,35,100,0
1,53,100,64
1,35,100,0
1,53,100,64
1,38,100,0
1,53,100,64
1,35,100,0
1,35,100,64
1,53,100,0
1,53,100,64
1,38,100,64
1,53,100,0
1,35,100,64
1,53,100,0
1,35,100,64
1,53,100,0
1,53,100,64
1,38,100,64
1,53,100,0
1,35,100,64
1,53,100,0
1,35,100,64
1,53,100,0
1,53,100,64
1,38,100,64
1,53,100,0
1,35,100,64
1,53,100,0
1,53,100,64
1,35,100,0
1,53,100,64
1,38,100,64
1,57,100,0
1,49,100,128
1,35,100,0
1,53,100,128
1,38,100,0
1,35,100,64
1,53,100,64
1,35,100,0
1,53,100,128
1,38,100,0
1,53,100,64
1,35,100,0
1,53,100,64
1,35,100,0
1,53,100,64
1,53,100,64
1,38,100,0
1,53,100,64
1,35,100,0
1,53,100,64
1,35,100,0
1,53,100,64
1,35,100,0
1,53,100,64
1,38,100,0
1,53,100,64
1,35,100,0
1,35,100,64
1,53,100,0
1,53,100,64
1,38,100,64
1,53,100,0
1,35,100,64
1,53,100,0
1,35,100,64
1,53,100,0
1,53,100,64
1,38,100,64
1,53,100,0
1,35,100,64
1,53,100,0
1,35,100,64
1,53,100,0
1,53,100,64
1,38,100,64
1,53,100,0
1,35,100,64
1,53,100,0
1,49,100,64
1,35,100,0
1,46,100,128
1,38,100,0
1,46,100,128
1,35,100,0
1,35,100,64
1,46,100,64
1,38,100,0
1,35,100,64
1,49,100,64
1,35,100,0
1,46,100,128
1,38,100,0
1,49,100,128
1,38,100,0
1,35,100,64
1,38,100,64
1,49,100,0
1,35,100,64
1,49,100,64
1,57,100,0
1,37,100,3580
1,37,100,128
1,37,100,128
1,35,100,64
1,38,100,64
1,35,100,64
1,49,100,64
1,35,100,0
1,46,100,128
1,38,100,0
1,35,100,64
1,46,100,64
1,35,100,0
1,46,100,128
1,38,100,0
1,35,100,64
1,46,100,64
1,35,100,0
1,46,100,128
1,38,100,0
1,35,100,64
1,46,100,64
1,35,100,0
1,35,100,64
1,46,100,64
1,38,100,0
1,35,100,64
1,35,100,64
1,46,100,0
1,46,100,128
1,38,100,0
1,35,100,64
1,46,100,64
1,35,100,0
1,46,100,128
1,38,100,0
1,35,100,64
1,49,100,64
1,35,100,0
1,46,100,128
1,38,100,0
1,35,100,64
1,49,100,64
1,35,100,0
1,35,100,64
1,46,100,64
1,38,100,0
1,35,100,64
1,49,100,64
1,35,100,0
1,46,100,128
1,38,100,0
1,35,100,64
1,46,100,64
1,35,100,0
1,46,100,128
1,38,100,0
1,35,100,64
1,46,100,64
1,35,100,0
1,46,100,128
1,38,100,0
1,35,100,64
1,46,100,64
1,35,100,0
1,35,100,64
1,46,100,64
1,38,100,0
1,35,100,64
1,35,100,64
1,46,100,0
1,46,100,128
1,38,100,0
1,35,100,64
1,46,100,64
1,35,100,0
1,46,100,128
1,38,100,0
1,35,100,64
1,35,100,64
1,49,100,0
1,46,100,128
1,38,100,0
1,35,100,64
1,35,100,64
1,49,100,0
1,35,100,64
1,46,100,64
1,38,100,0
1,35,100,64
1,49,100,64
1,35,100,0
1,46,100,128
1,38,100,0
1,35,100,64
1,46,100,64
1,35,100,0
1,46,100,128
1,38,100,0
1,35,100,64
1,46,100,64
1,35,100,0
1,46,100,128
1,38,100,0
1,35,100,64
1,46,100,64
1,35,100,0
1,35,100,64
1,46,100,64
1,38,100,0
1,35,100,64
1,35,100,64
1,49,100,0
1,46,100,128
1,38,100,0
1,35,100,64
1,35,100,64
1,57,100,0
1,46,100,128
1,38,100,0
1,35,100,64
1,49,100,64
1,35,100,0
1,35,100,128
1,43,100,0
1,38,100,32
1,38,100,32
1,43,100,64
1,35,100,0
1,43,100,32
1,43,100,32
1,41,100,64
1,35,100,0
1,41,100,32
1,41,100,32
1,35,100,0
1,41,100,32
1,35,100,32
1,49,100,0
1,46,100,128
1,38,100,0
1,35,100,64
1,35,100,64
1,57,100,0
1,46,100,128
1,38,100,0
1,35,100,64
1,49,100,64
1,35,100,0
1,35,100,128
1,43,100,0
1,38,100,32
1,38,100,32
1,43,100,64
1,35,100,0
1,43,100,32
1,43,100,32
1,41,100,64
1,35,100,0
1,41,100,32
1,41,100,32
1,35,100,0
1,41,100,32
1,35,100,32
1,49,100,0
1,46,100,128
1,38,100,0
1,35,100,64
1,35,100,64
1,57,100,0
1,38,100,128
1,49,100,0
1,35,100,64
1,38,100,0
1,38,100,64
1,41,100,0
1,38,100,64
1,41,100,0
1,38,100,64
1,41,100,0
1,38,100,64
1,41,100,0
1,38,100,64
1,41,100,0
1,38,100,64
1,41,100,0
1,38,100,64
1,41,100,0
1,38,100,64
1,41,100,0
1,38,100,64
1,49,100,0
1,57,100,0
1,39,100,1276
1,48,100,0
1,57,100,0
2,28,100,5952
2,40,100,0
2,28,100,0
2,33,100,0
2,33,100,0
2,31,100,0
2,28,100,0
2,28,100,0
2,28,100,0
2,33,100,0
2,33,100,0
2,37,100,0
2,38,100,0
2,38,100,0
2,33,100,0
2,33,100,0
2,33,100,0
2,31,100,0
2,40,100,0
2,40,100,0
2,38,100,0
2,31,100,0
2,33,100,0
2,33,100,0
2,33,100,0
2,31,100,0
2,33,100,0
2,33,100,0
2,33,100,0
2,33,100,0
2,33,100,0
2,31,100,0
2,28,100,0
2,28,100,0
2,28,100,0
2,33,100,0
2,33,100,0
2,37,100,0
2,38,100,0
2,38,100,0
