track,note,velocity,time
1,61,120,37920
1,54,120,0
1,53,120,90
1,60,120,0
1,52,120,67
1,59,120,0
1,51,120,55
1,58,120,0
1,50,120,29
1,57,120,0
1,49,120,3
1,56,120,0
1,48,120,39
1,55,120,0
1,47,120,42
1,54,120,0
1,59,120,0
1,54,120,0
1,59,120,0
1,54,120,9
1,59,120,0
1,47,120,0
1,54,120,0
1,59,120,0
1,54,120,0
1,59,120,0
1,54,120,9
1,59,120,0
1,47,120,0
1,54,120,0
1,59,120,0
1,54,120,0
1,59,120,0
1,54,120,9
1,59,120,0
1,47,120,0
1,54,120,0
1,59,120,0
1,54,120,0
1,59,120,0
1,54,120,9
1,59,120,0
1,47,120,0
1,54,120,0
1,59,120,0
1,54,120,0
1,59,120,0
1,54,120,9
1,59,120,0
1,47,120,0
1,54,120,0
1,59,120,0
1,54,120,0
1,59,120,0
1,54,120,9
1,59,120,0
1,47,120,0
1,54,120,0
1,59,120,0
1,54,120,0
1,59,120,0
1,54,120,9
1,59,120,0
1,52,120,0
1,64,120,0
1,59,120,0
1,59,120,0
1,54,120,0
1,47,120,0
1,54,120,0
1,59,120,0
1,54,120,9
1,59,120,0
1,47,120,0
1,54,120,0
1,59,120,0
1,54,120,0
1,59,120,0
1,54,120,9
1,59,120,0
1,47,120,0
1,54,120,0
1,59,120,0
1,54,120,0
1,59,120,0
1,54,120,9
1,59,120,0
1,47,120,0
1,54,120,0
1,59,120,0
1,54,120,0
1,59,120,0
1,54,120,9
1,59,120,0
1,47,120,0
1,54,120,0
1,59,120,0
1,54,120,0
1,59,120,0
1,54,120,9
1,59,120,0
1,47,120,0
1,54,120,0
1,59,120,0
1,54,120,0
1,59,120,0
1,54,120,9
1,59,120,0
1,47,120,0
1,54,120,0
1,59,120,0
1,54,120,0
1,59,120,0
1,54,120,9
1,59,120,0
1,52,120,0
1,64,120,0
1,59,120,0
1,59,120,0
1,54,120,0
1,47,120,0
1,54,120,0
1,59,120,0
1,54,120,9
1,59,120,0
1,47,120,0
1,54,120,0
1,59,120,0
1,54,120,0
1,59,120,0
1,54,120,9
1,59,120,0
1,47,120,0
1,54,120,0
1,59,120,0
1,54,120,0
1,59,120,0
1,54,120,9
1,59,120,0
1,47,120,0
1,54,120,0
1,59,120,0
1,54,120,0
1,59,120,0
1,54,120,9
1,59,120,0
1,47,120,0
1,54,120,0
1,59,120,0
1,54,120,0
1,59,120,0
1,54,120,9
1,59,120,0
1,47,120,0
1,54,120,0
1,59,120,0
1,54,120,0
1,59,120,0
1,54,120,9
1,59,120,0
1,47,120,0
1,54,120,0
1,59,120,0
1,54,120,0
1,59,120,0
1,54,120,9
1,59,120,0
1,52,120,0
1,64,120,0
1,59,120,0
1,47,120,0
1,54,120,0
1,59,120,0
1,54,120,0
1,59,120,0
1,54,120,9
1,59,120,0
1,47,120,0
1,54,120,0
1,59,120,0
1,54,120,0
1,59,120,0
1,54,120,9
1,59,120,0
1,47,120,0
1,54,120,0
1,59,120,0
1,54,120,0
1,59,120,0
1,54,120,9
1,59,120,0
1,47,120,0
1,54,120,0
1,59,120,0
1,54,120,0
1,59,120,0
1,54,120,9
1,59,120,0
1,47,120,0
1,54,120,0
1,59,120,0
1,54,120,0
1,59,120,0
1,54,120,9
1,59,120,0
1,47,120,0
1,54,120,0
1,59,120,0
1,54,120,0
1,59,120,0
1,54,120,9
1,59,120,0
1,47,120,0
1,54,120,0
1,59,120,0
1,54,120,0
1,59,120,0
1,54,120,9
1,59,120,0
1,59,120,0
1,54,120,0
1,47,120,0
1,54,120,0
1,59,120,0
1,54,120,9
1,59,120,0
1,64,120,0
1,52,120,0
1,59,120,0
1,64,120,12
1,52,120,0
1,59,120,0
1,64,120,12
1,52,120,0
1,59,120,0
1,59,120,12
1,47,120,0
1,54,120,0
1,59,120,0
1,47,120,0
1,54,120,0
1,57,120,0
1,52,120,0
1,45,120,0
1,62,120,12
1,50,120,0
1,57,120,0
1,62,120,12
1,50,120,0
1,57,120,0
1,62,120,12
1,50,120,0
1,57,120,0
1,57,120,12
1,45,120,0
1,52,120,0
1,57,120,0
1,45,120,0
1,52,120,0
1,40,120,0
1,47,120,0
1,52,120,0
1,59,120,12
1,52,120,0
1,64,120,0
1,64,120,12
1,52,120,0
1,59,120,0
1,64,120,12
1,52,120,0
1,59,120,0
1,59,120,12
1,47,120,0
1,54,120,0
1,59,120,0
1,47,120,0
1,54,120,0
1,57,120,0
1,52,120,0
1,45,120,0
1,62,120,12
1,50,120,0
1,57,120,0
1,62,120,12
1,50,120,0
1,57,120,0
1,62,120,12
1,50,120,0
1,57,120,0
1,57,120,12
1,45,120,0
1,52,120,0
1,57,120,0
1,45,120,0
1,52,120,0
1,40,120,0
1,47,120,0
1,52,120,0
1,59,120,12
1,52,120,0
1,64,120,0
1,64,120,12
1,52,120,0
1,59,120,0
1,64,120,12
1,52,120,0
1,59,120,0
1,59,120,12
1,47,120,0
1,54,120,0
1,59,120,0
1,47,120,0
1,54,120,0
1,57,120,0
1,52,120,0
1,45,120,0
1,62,120,12
1,50,120,0
1,57,120,0
1,62,120,12
1,50,120,0
1,57,120,0
1,62,120,12
1,50,120,0
1,57,120,0
1,57,120,12
1,45,120,0
1,52,120,0
1,57,120,0
1,45,120,0
1,52,120,0
1,40,120,0
1,47,120,0
1,52,120,0
1,59,120,12
1,52,120,0
1,64,120,0
1,64,120,12
1,52,120,0
1,59,120,0
1,64,120,12
1,52,120,0
1,59,120,0
1,59,120,12
1,47,120,0
1,54,120,0
1,59,120,0
1,47,120,0
1,54,120,0
1,57,120,0
1,52,120,0
1,45,120,0
1,62,120,12
1,50,120,0
1,57,120,0
1,62,120,12
1,50,120,0
1,57,120,0
1,62,120,12
1,50,120,0
1,57,120,0
1,57,120,12
1,45,120,0
1,52,120,0
1,57,120,0
1,45,120,0
1,52,120,0
1,40,120,0
1,47,120,0
1,52,120,0
1,54,120,30252
1,61,120,0
1,53,120,90
1,60,120,0
1,52,120,67
1,59,120,0
1,51,120,55
1,58,120,0
1,50,120,29
1,57,120,0
1,49,120,3
1,56,120,0
1,48,120,39
1,55,120,0
1,47,120,42
1,54,120,0
1,59,120,0
1,54,120,0
1,59,120,0
1,54,120,9
1,59,120,0
1,47,120,0
1,54,120,0
1,59,120,0
1,54,120,0
1,59,120,0
1,54,120,9
1,59,120,0
1,47,120,0
1,54,120,0
1,59,120,0
1,54,120,0
1,59,120,0
1,54,120,9
1,59,120,0
1,47,120,0
1,54,120,0
1,59,120,0
1,54,120,0
1,59,120,0
1,54,120,9
1,59,120,0
1,47,120,0
1,54,120,0
1,59,120,0
1,54,120,0
1,59,120,0
1,54,120,9
1,59,120,0
1,47,120,0
1,54,120,0
1,59,120,0
1,54,120,0
1,59,120,0
1,54,120,9
1,59,120,0
1,47,120,0
1,54,120,0
1,59,120,0
1,54,120,0
1,59,120,0
1,54,120,9
1,59,120,0
1,52,120,0
1,64,120,0
1,59,120,0
1,59,120,0
1,54,120,0
1,47,120,0
1,54,120,0
1,59,120,0
1,54,120,9
1,59,120,0
1,47,120,0
1,54,120,0
1,59,120,0
1,54,120,0
1,59,120,0
1,54,120,9
1,59,120,0
1,47,120,0
1,54,120,0
1,59,120,0
1,54,120,0
1,59,120,0
1,54,120,9
1,59,120,0
1,47,120,0
1,54,120,0
1,59,120,0
1,54,120,0
1,59,120,0
1,54,120,9
1,59,120,0
1,47,120,0
1,54,120,0
1,59,120,0
1,54,120,0
1,59,120,0
1,54,120,9
1,59,120,0
1,47,120,0
1,54,120,0
1,59,120,0
1,54,120,0
1,59,120,0
1,54,120,9
1,59,120,0
1,47,120,0
1,54,120,0
1,59,120,0
1,54,120,0
1,59,120,0
1,54,120,9
1,59,120,0
1,52,120,0
1,64,120,0
1,59,120,0
1,59,120,0
1,54,120,0
1,47,120,0
1,54,120,0
1,59,120,0
1,54,120,9
1,59,120,0
1,47,120,0
1,54,120,0
1,59,120,0
1,54,120,0
1,59,120,0
1,54,120,9
1,59,120,0
1,47,120,0
1,54,120,0
1,59,120,0
1,54,120,0
1,59,120,0
1,54,120,9
1,59,120,0
1,47,120,0
1,54,120,0
1,59,120,0
1,54,120,0
1,59,120,0
1,54,120,9
1,59,120,0
1,47,120,0
1,54,120,0
1,59,120,0
1,54,120,0
1,59,120,0
1,54,120,9
1,59,120,0
1,47,120,0
1,54,120,0
1,59,120,0
1,54,120,0
1,59,120,0
1,54,120,9
1,59,120,0
1,47,120,0
1,54,120,0
1,59,120,0
1,54,120,0
1,59,120,0
1,54,120,9
1,59,120,0
1,52,120,0
1,64,120,0
1,59,120,0
1,47,120,0
1,54,120,0
1,59,120,0
1,54,120,0
1,59,120,0
1,54,120,9
1,59,120,0
1,47,120,0
1,54,120,0
1,59,120,0
1,54,120,0
1,59,120,0
1,54,120,9
1,59,120,0
1,47,120,0
1,54,120,0
1,59,120,0
1,54,120,0
1,59,120,0
1,54,120,9
1,59,120,0
1,47,120,0
1,54,120,0
1,59,120,0
1,54,120,0
1,59,120,0
1,54,120,9
1,59,120,0
1,47,120,0
1,54,120,0
1,59,120,0
1,54,120,0
1,59,120,0
1,54,120,9
1,59,120,0
1,47,120,0
1,54,120,0
1,59,120,0
1,54,120,0
1,59,120,0
1,54,120,9
1,59,120,0
1,47,120,0
1,54,120,0
1,59,120,0
1,54,120,0
1,59,120,0
1,54,120,9
1,59,120,0
1,59,120,0
1,54,120,0
1,47,120,0
1,54,120,0
1,59,120,0
1,54,120,9
1,59,120,0
1,59,120,0
1,52,120,0
1,64,120,0
1,64,120,12
1,52,120,0
1,59,120,0
1,64,120,12
1,52,120,0
1,59,120,0
1,59,120,12
1,47,120,0
1,54,120,0
1,59,120,0
1,47,120,0
1,54,120,0
1,57,120,0
1,52,120,0
1,45,120,0
1,62,120,12
1,50,120,0
1,57,120,0
1,62,120,12
1,50,120,0
1,57,120,0
1,62,120,12
1,50,120,0
1,57,120,0
1,57,120,12
1,45,120,0
1,52,120,0
1,57,120,0
1,45,120,0
1,52,120,0
1,52,120,0
1,40,120,0
1,47,120,0
1,64,120,12
1,52,120,0
1,59,120,0
1,64,120,12
1,52,120,0
1,59,120,0
1,64,120,12
1,52,120,0
1,59,120,0
1,59,120,12
1,47,120,0
1,54,120,0
1,59,120,0
1,47,120,0
1,54,120,0
1,57,120,0
1,52,120,0
1,45,120,0
1,62,120,12
1,50,120,0
1,57,120,0
1,62,120,12
1,50,120,0
1,57,120,0
1,62,120,12
1,50,120,0
1,57,120,0
1,57,120,12
1,45,120,0
1,52,120,0
1,57,120,0
1,45,120,0
1,52,120,0
1,52,120,0
1,40,120,0
1,47,120,0
1,64,120,12
1,52,120,0
1,59,120,0
1,64,120,12
1,52,120,0
1,59,120,0
1,64,120,12
1,52,120,0
1,59,120,0
1,59,120,12
1,47,120,0
1,54,120,0
1,59,120,0
1,47,120,0
1,54,120,0
1,57,120,0
1,52,120,0
1,45,120,0
1,62,120,12
1,50,120,0
1,57,120,0
1,62,120,12
1,50,120,0
1,57,120,0
1,62,120,12
1,50,120,0
1,57,120,0
1,57,120,12
1,45,120,0
1,52,120,0
1,57,120,0
1,45,120,0
1,52,120,0
1,52,120,0
1,40,120,0
1,47,120,0
1,64,120,12
1,52,120,0
1,59,120,0
1,64,120,12
1,52,120,0
1,59,120,0
1,64,120,12
1,52,120,0
1,59,120,0
1,59,120,12
1,47,120,0
1,54,120,0
1,59,120,0
1,47,120,0
1,54,120,0
1,57,120,0
1,52,120,0
1,45,120,0
1,62,120,12
1,50,120,0
1,57,120,0
1,62,120,12
1,50,120,0
1,57,120,0
1,62,120,12
1,50,120,0
1,57,120,0
1,57,120,12
1,45,120,0
1,52,120,0
1,57,120,0
1,45,120,0
1,52,120,0
1,52,120,0
1,40,120,0
1,47,120,0
1,64,120,12
1,52,120,0
1,59,120,0
1,64,120,12
1,52,120,0
1,59,120,0
1,64,120,12
1,52,120,0
1,59,120,0
1,59,120,12
1,47,120,0
1,54,120,0
1,59,120,0
1,47,120,0
1,54,120,0
1,57,120,0
1,52,120,0
1,45,120,0
1,62,120,12
1,50,120,0
1,57,120,0
1,62,120,12
1,50,120,0
1,57,120,0
1,62,120,12
1,50,120,0
1,57,120,0
1,57,120,12
1,45,120,0
1,52,120,0
1,57,120,0
1,45,120,0
1,52,120,0
1,52,120,0
1,40,120,0
1,47,120,0
1,64,120,12
1,52,120,0
1,59,120,0
1,64,120,12
1,52,120,0
1,59,120,0
1,64,120,12
1,52,120,0
1,59,120,0
1,59,120,12
1,47,120,0
1,54,120,0
1,59,120,0
1,47,120,0
1,54,120,0
1,57,120,0
1,52,120,0
1,45,120,0
1,62,120,12
1,50,120,0
1,57,120,0
1,62,120,12
1,50,120,0
1,57,120,0
1,62,120,12
1,50,120,0
1,57,120,0
1,57,120,12
1,45,120,0
1,52,120,0
1,57,120,0
1,45,120,0
1,52,120,0
1,52,120,0
1,40,120,0
1,47,120,0
1,64,120,12
1,52,120,0
1,59,120,0
1,64,120,12
1,52,120,0
1,59,120,0
1,64,120,12
1,52,120,0
1,59,120,0
1,59,120,12
1,47,120,0
1,54,120,0
1,59,120,0
1,47,120,0
1,54,120,0
1,57,120,0
1,52,120,0
1,45,120,0
1,62,120,12
1,50,120,0
1,57,120,0
1,62,120,12
1,50,120,0
1,57,120,0
1,62,120,12
1,50,120,0
1,57,120,0
1,57,120,12
1,45,120,0
1,52,120,0
1,57,120,0
1,45,120,0
1,52,120,0
1,52,120,0
1,40,120,0
1,47,120,0
1,64,120,12
1,52,120,0
1,59,120,0
1,64,120,12
1,52,120,0
1,59,120,0
1,64,120,12
1,52,120,0
1,59,120,0
1,59,120,12
1,47,120,0
1,54,120,0
1,59,120,0
1,47,120,0
1,54,120,0
1,57,120,0
1,52,120,0
1,45,120,0
1,62,120,12
1,50,120,0
1,57,120,0
1,62,120,12
1,50,120,0
1,57,120,0
1,62,120,12
1,50,120,0
1,57,120,0
1,57,120,12
1,45,120,0
1,52,120,0
1,57,120,0
1,45,120,0
1,52,120,0
1,61,120,240
1,54,120,0
1,53,120,90
1,60,120,0
1,52,120,67
1,59,120,0
1,51,120,19
1,58,120,0
1,50,120,29
1,57,120,0
1,49,120,3
1,56,120,0
1,48,120,39
1,55,120,0
1,59,120,42
1,54,120,0
1,47,120,0
1,63,120,7
1,51,120,0
1,58,120,0
1,64,120,12
1,52,120,0
1,59,120,0
1,56,120,7
1,51,120,0
1,44,120,0
1,57,120,12
1,45,120,0
1,52,120,0
1,51,120,7
1,44,120,0
1,56,120,0
1,54,120,12
1,49,120,0
1,42,120,0
1,57,120,7
1,52,120,0
1,45,120,0
1,47,120,12
1,54,120,0
1,59,120,0
1,63,120,7
1,51,120,0
1,58,120,0
1,52,120,12
1,45,120,0
1,57,120,0
1,56,120,7
1,49,120,0
1,61,120,0
1,62,120,12
1,50,120,0
1,57,120,0
1,62,120,0
1,50,120,0
1,57,120,0
1,61,120,12
1,49,120,0
1,56,120,0
1,57,120,12
1,45,120,0
1,52,120,0
1,57,120,12
1,45,120,0
1,52,120,0
1,57,120,12
1,45,120,0
1,52,120,0
1,58,120,12
1,46,120,0
1,53,120,0
1,47,120,12
1,54,120,0
1,59,120,0
1,63,120,7
1,51,120,0
1,58,120,0
1,64,120,12
1,52,120,0
1,59,120,0
1,56,120,7
1,51,120,0
1,44,120,0
1,57,120,12
1,45,120,0
1,52,120,0
1,51,120,7
1,44,120,0
1,56,120,0
1,54,120,12
1,49,120,0
1,42,120,0
1,57,120,7
1,52,120,0
1,45,120,0
1,47,120,12
1,54,120,0
1,59,120,0
1,63,120,7
1,51,120,0
1,58,120,0
1,52,120,12
1,45,120,0
1,57,120,0
1,56,120,7
1,49,120,0
1,61,120,0
1,62,120,12
1,50,120,0
1,57,120,0
1,62,120,0
1,50,120,0
1,57,120,0
1,61,120,12
1,49,120,0
1,56,120,0
1,57,120,12
1,45,120,0
1,52,120,0
