track,note,velocity,time
1,75,83,336
1,75,83,16
1,76,83,73
1,76,83,16
1,76,83,73
1,76,83,16
1,76,83,16
1,75,83,1
1,73,83,1
1,71,83,1
1,75,83,73
1,75,83,16
1,75,83,16
1,73,83,1
1,71,83,1
1,71,83,16
1,71,83,16
1,68,83,1
1,68,83,24
1,71,83,1
1,71,83,1
1,75,83,97
1,75,83,16
1,76,83,73
1,76,83,16
1,76,83,73
1,76,83,16
1,76,83,16
1,75,83,1
1,73,83,1
1,71,83,1
1,75,83,73
1,75,83,16
1,75,83,16
1,73,83,1
1,71,83,1
1,71,83,16
1,71,83,16
1,68,83,1
1,68,83,24
1,71,83,1
1,71,83,1
1,71,83,49
1,73,83,1
1,71,83,1
1,69,83,1
1,71,83,1
1,73,83,1
1,71,83,1
1,69,83,1
1,71,83,1
1,73,83,1
1,71,83,1
1,69,83,1
1,71,83,1
1,73,83,1
1,71,83,1
1,69,83,1
1,76,83,1
1,76,83,16
1,76,83,16
1,75,83,1
1,73,83,721
1,71,83,1
1,69,83,1
1,73,83,1
1,71,83,1
1,69,83,1
1,71,83,1
1,73,83,1
1,71,83,1
1,69,83,1
1,71,83,1
1,73,83,1
1,71,83,1
1,69,83,1
1,69,83,32
1,70,83,1
1,76,83,337
1,76,83,16
1,76,83,16
1,75,83,1
1,76,83,169
1,76,83,16
1,76,83,16
1,75,83,16
1,76,83,169
1,76,83,16
1,76,83,16
1,75,83,16
1,76,83,169
1,76,83,16
1,76,83,16
1,75,83,0
1,75,83,1681
1,75,83,16
1,76,83,73
1,76,83,16
1,76,83,73
1,76,83,16
1,76,83,16
1,75,83,1
1,73,83,1
1,71,83,1
1,75,83,73
1,75,83,16
1,75,83,16
1,73,83,1
1,71,83,1
1,71,83,16
1,71,83,16
1,68,83,1
1,68,83,24
1,71,83,1
1,71,83,1
1,75,83,97
1,75,83,16
1,76,83,73
1,76,83,16
1,76,83,73
1,76,83,16
1,76,83,16
1,75,83,1
1,73,83,1
1,71,83,1
1,75,83,73
1,75,83,16
1,75,83,16
1,73,83,1
1,71,83,1
1,71,83,16
1,71,83,16
1,68,83,1
1,68,83,24
1,71,83,1
1,71,83,1
1,71,83,49
1,73,83,1
1,71,83,1
1,69,83,1
1,71,83,1
1,73,83,1
1,71,83,1
1,69,83,1
1,71,83,1
1,73,83,1
1,71,83,1
1,69,83,1
1,71,83,1
1,73,83,1
1,71,83,1
1,69,83,1
1,76,83,1
1,76,83,16
1,76,83,16
1,75,83,1
1,73,83,721
1,71,83,1
1,69,83,1
1,73,83,1
1,71,83,1
1,69,83,1
1,71,83,1
1,73,83,1
1,71,83,1
1,69,83,1
1,71,83,1
1,73,83,1
1,71,83,1
1,69,83,1
1,69,83,32
1,70,83,1
1,76,83,337
1,76,83,16
1,76,83,16
1,75,83,1
1,76,83,169
1,76,83,16
1,76,83,16
1,75,83,16
1,76,83,169
1,76,83,16
1,76,83,16
1,75,83,16
1,76,83,169
1,76,83,16
1,76,83,16
1,75,83,16
1,71,83,1633
1,71,83,32
1,71,83,32
1,71,83,32
1,71,83,32
1,71,83,32
1,69,83,16
1,71,83,16
1,69,83,16
1,71,83,16
1,69,83,16
1,71,83,16
1,71,83,32
1,71,83,32
1,71,83,16
1,71,83,16
1,71,83,32
1,71,83,16
1,71,83,16
1,71,83,16
1,71,83,16
1,71,83,16
1,71,83,16
1,78,83,1
1,75,83,1585
1,75,83,16
1,76,83,73
1,76,83,16
1,76,83,73
1,76,83,16
1,76,83,16
1,75,83,1
1,73,83,1
1,71,83,1
1,75,83,73
1,75,83,16
1,75,83,16
1,73,83,1
1,71,83,1
1,71,83,16
1,71,83,16
1,68,83,1
1,68,83,24
1,71,83,1
1,71,83,1
1,75,83,97
1,75,83,16
1,76,83,73
1,76,83,16
1,76,83,73
1,76,83,16
1,76,83,16
1,75,83,1
1,73,83,1
1,71,83,1
1,75,83,73
1,75,83,16
1,75,83,16
1,73,83,1
1,71,83,1
1,71,83,16
1,71,83,16
1,68,83,1
1,68,83,24
1,71,83,1
1,71,83,1
1,71,83,49
1,73,83,1
1,71,83,1
1,69,83,1
1,71,83,1
1,73,83,1
1,71,83,1
1,69,83,1
1,71,83,1
1,73,83,1
1,71,83,1
1,69,83,1
1,71,83,1
1,73,83,1
1,71,83,1
1,69,83,1
1,76,83,1
1,76,83,16
1,76,83,16
1,75,83,1
1,73,83,721
1,71,83,1
1,69,83,1
1,73,83,1
1,71,83,1
1,69,83,1
1,71,83,1
1,73,83,1
1,71,83,1
1,69,83,1
1,71,83,1
1,73,83,1
1,71,83,1
1,69,83,1
1,69,83,32
1,70,83,1
1,76,83,241
1,76,83,16
1,76,83,16
1,75,83,16
1,76,83,169
1,76,83,16
1,76,83,16
1,75,83,16
1,76,83,169
1,76,83,16
1,76,83,16
1,75,83,16
1,76,83,169
1,76,83,16
1,76,83,16
1,75,83,16
2,59,64,0
2,54,64,0
2,47,64,0
2,59,64,1
2,54,64,0
2,47,64,0
2,59,64,1
2,54,64,0
2,47,64,0
2,59,64,1
2,54,64,0
2,47,64,0
2,59,64,1
2,54,64,0
2,47,64,0
2,59,64,1
2,54,64,0
2,47,64,0
2,55,64,1
2,50,64,0
2,43,64,0
2,55,64,1
2,50,64,0
2,43,64,0
2,54,64,1
2,49,64,0
2,42,64,0
2,54,64,1
2,49,64,0
2,42,64,0
2,54,64,1
2,49,64,0
2,42,64,0
2,59,64,1
2,54,64,0
2,47,64,0
2,59,64,1
2,54,64,0
2,47,64,0
2,59,64,1
2,54,64,0
2,47,64,0
2,59,64,1
2,54,64,0
2,47,64,0
2,59,64,1
2,54,64,0
2,47,64,0
2,59,64,1
2,54,64,0
2,47,64,0
2,55,64,1
2,50,64,0
2,43,64,0
2,55,64,1
2,50,64,0
2,43,64,0
2,54,64,1
2,49,64,0
2,42,64,0
2,54,64,1
2,49,64,0
2,42,64,0
2,54,64,1
2,49,64,0
2,42,64,0
2,59,64,1
2,54,64,0
2,47,64,0
2,59,64,1
2,54,64,0
2,47,64,0
2,59,64,1
2,54,64,0
2,47,64,0
2,59,64,1
2,54,64,0
2,47,64,0
2,59,64,1
2,54,64,0
2,47,64,0
2,59,64,1
2,54,64,0
2,47,64,0
2,55,64,1
2,50,64,0
2,43,64,0
2,55,64,1
2,50,64,0
2,43,64,0
2,54,64,1
2,49,64,0
2,42,64,0
2,54,64,1
2,49,64,0
2,42,64,0
2,54,64,1
2,49,64,0
2,42,64,0
2,59,64,1
2,54,64,0
2,47,64,0
2,59,64,1
2,54,64,0
2,47,64,0
2,59,64,1
2,54,64,0
2,47,64,0
2,59,64,1
2,54,64,0
2,47,64,0
2,59,64,1
2,54,64,0
2,47,64,0
2,59,64,1
2,54,64,0
2,47,64,0
2,55,64,1
2,50,64,0
2,43,64,0
2,55,64,1
2,50,64,0
2,43,64,0
2,54,64,1
2,49,64,0
2,42,64,0
2,54,64,1
2,49,64,0
2,42,64,0
2,54,64,1
2,49,64,0
2,42,64,0
2,59,64,1
2,54,64,0
2,47,64,0
2,59,64,1
2,54,64,0
2,47,64,0
2,59,64,1
2,54,64,0
2,47,64,0
2,59,64,1
2,54,64,0
2,47,64,0
2,59,64,1
2,54,64,0
2,47,64,0
2,59,64,1
2,54,64,0
2,47,64,0
2,57,64,1
2,52,64,0
2,45,64,0
2,57,64,1
2,52,64,0
2,45,64,0
2,57,64,1
2,52,64,0
2,45,64,0
2,57,64,1
2,52,64,0
2,45,64,0
2,57,64,1
2,52,64,0
2,45,64,0
2,57,64,1
2,52,64,0
2,45,64,0
2,52,64,1
2,64,64,0
2,59,64,0
2,64,64,1
2,59,64,0
2,52,64,0
2,64,64,1
2,59,64,0
2,52,64,0
2,64,64,1
2,59,64,0
2,52,64,0
2,64,64,1
2,59,64,0
2,52,64,0
2,64,64,1
2,59,64,0
2,52,64,0
2,59,64,1
2,54,64,0
2,47,64,0
2,59,64,1
2,54,64,0
2,47,64,0
2,59,64,1
2,54,64,0
2,47,64,0
2,59,64,1
2,54,64,0
2,47,64,0
2,59,64,1
2,54,64,0
2,47,64,0
2,59,64,1
2,54,64,0
2,47,64,0
2,59,64,1
2,54,64,0
2,47,64,0
2,59,64,1
2,54,64,0
2,47,64,0
2,59,64,1
2,54,64,0
2,47,64,0
2,59,64,1
2,54,64,0
2,47,64,0
2,59,64,1
2,54,64,0
2,47,64,0
2,59,64,1
2,54,64,0
2,47,64,0
2,57,64,1
2,52,64,0
2,45,64,0
2,57,64,1
2,52,64,0
2,45,64,0
2,57,64,1
2,52,64,0
2,45,64,0
2,57,64,1
2,52,64,0
2,45,64,0
2,57,64,1
2,52,64,0
2,45,64,0
2,57,64,1
2,52,64,0
2,45,64,0
2,52,64,0
2,64,64,0
2,59,64,0
2,57,64,97
2,52,64,0
2,45,64,0
2,57,64,1
2,52,64,0
2,45,64,0
2,58,64,1
2,53,64,0
2,46,64,0
2,59,64,1
2,54,64,0
2,47,64,0
2,59,64,1
2,54,64,0
2,47,64,0
2,59,64,1
2,54,64,0
2,47,64,0
2,59,64,1
2,54,64,0
2,47,64,0
2,59,64,1
2,54,64,0
2,47,64,0
2,59,64,1
2,54,64,0
2,47,64,0
2,57,64,1
2,52,64,0
2,45,64,0
2,57,64,1
2,52,64,0
2,45,64,0
2,57,64,1
2,52,64,0
2,45,64,0
2,57,64,1
2,52,64,0
2,45,64,0
2,57,64,1
2,52,64,0
2,45,64,0
2,57,64,1
2,52,64,0
2,45,64,0
2,52,64,1
2,64,64,0
2,59,64,0
2,64,64,1
2,59,64,0
2,52,64,0
2,64,64,1
2,59,64,0
2,52,64,0
2,64,64,1
2,59,64,0
2,52,64,0
2,64,64,1
2,59,64,0
2,52,64,0
2,64,64,1
2,59,64,0
2,52,64,0
2,59,64,1
2,54,64,0
2,47,64,0
2,59,64,1
2,54,64,0
2,47,64,0
2,59,64,1
2,54,64,0
2,47,64,0
2,59,64,1
2,54,64,0
2,47,64,0
2,59,64,1
2,54,64,0
2,47,64,0
2,59,64,1
2,54,64,0
2,47,64,0
2,59,64,1
2,54,64,0
2,47,64,0
2,59,64,1
2,54,64,0
2,47,64,0
2,59,64,1
2,54,64,0
2,47,64,0
2,59,64,1
2,54,64,0
2,47,64,0
2,59,64,1
2,54,64,0
2,47,64,0
2,59,64,1
2,54,64,0
2,47,64,0
2,57,64,1
2,52,64,0
2,45,64,0
2,57,64,1
2,52,64,0
2,45,64,0
2,57,64,1
2,52,64,0
2,45,64,0
2,57,64,1
2,52,64,0
2,45,64,0
2,57,64,1
2,52,64,0
2,45,64,0
2,57,64,1
2,52,64,0
2,45,64,0
2,52,64,1
2,64,64,0
2,59,64,0
2,64,64,1
2,59,64,0
2,52,64,0
2,64,64,1
2,59,64,0
2,52,64,0
2,64,64,1
2,59,64,0
2,52,64,0
2,64,64,1
2,59,64,0
2,52,64,0
2,64,64,1
2,59,64,0
2,52,64,0
2,59,64,1
2,54,64,0
2,47,64,0
2,59,64,1
2,54,64,0
2,47,64,0
2,59,64,1
2,54,64,0
2,47,64,0
2,59,64,1
2,54,64,0
2,47,64,0
2,59,64,1
2,54,64,0
2,47,64,0
2,59,64,1
2,54,64,0
2,47,64,0
2,59,64,1
2,54,64,0
2,47,64,0
2,59,64,1
2,54,64,0
2,47,64,0
2,59,64,1
2,54,64,0
2,47,64,0
2,59,64,1
2,54,64,0
2,47,64,0
2,59,64,1
2,54,64,0
2,47,64,0
2,59,64,1
2,54,64,0
2,47,64,0
2,57,64,1
2,52,64,0
2,45,64,0
2,57,64,1
2,52,64,0
2,45,64,0
2,57,64,1
2,52,64,0
2,45,64,0
2,57,64,1
2,52,64,0
2,45,64,0
2,57,64,1
2,52,64,0
2,45,64,0
2,57,64,1
2,52,64,0
2,45,64,0
2,52,64,1
2,64,64,0
2,59,64,0
2,64,64,1
2,59,64,0
2,52,64,0
2,64,64,1
2,59,64,0
2,52,64,0
2,64,64,1
2,59,64,0
2,52,64,0
2,64,64,1
2,59,64,0
2,52,64,0
2,64,64,1
2,59,64,0
2,52,64,0
2,59,64,1
2,54,64,0
2,47,64,0
2,59,64,1
2,54,64,0
2,47,64,0
2,59,64,1
2,54,64,0
2,47,64,0
2,59,64,1
2,54,64,0
2,47,64,0
2,59,64,1
2,54,64,0
2,47,64,0
2,59,64,1
2,54,64,0
2,47,64,0
2,59,64,1
2,54,64,0
2,47,64,0
2,59,64,1
2,54,64,0
2,47,64,0
2,59,64,1
2,54,64,0
2,47,64,0
2,59,64,1
2,54,64,0
2,47,64,0
2,59,64,1
2,54,64,0
2,47,64,0
2,59,64,1
2,54,64,0
2,47,64,0
2,57,64,1
2,52,64,0
2,45,64,0
2,57,64,1
2,52,64,0
2,45,64,0
2,57,64,1
2,52,64,0
2,45,64,0
2,57,64,1
2,52,64,0
2,45,64,0
2,57,64,1
2,52,64,0
2,45,64,0
2,57,64,1
2,52,64,0
2,45,64,0
2,52,64,1
2,64,64,0
2,59,64,0
2,64,64,1
2,59,64,0
2,52,64,0
2,64,64,1
2,59,64,0
2,52,64,0
2,64,64,1
2,59,64,0
2,52,64,0
2,64,64,1
2,59,64,0
2,52,64,0
2,64,64,1
2,59,64,0
2,52,64,0
2,59,64,1
2,54,64,0
2,47,64,0
2,59,64,1
2,54,64,0
2,47,64,0
2,59,64,1
2,54,64,0
2,47,64,0
2,59,64,1
2,54,64,0
2,47,64,0
2,59,64,1
2,54,64,0
2,47,64,0
2,59,64,1
2,54,64,0
2,47,64,0
2,57,64,1
2,52,64,0
2,45,64,0
2,57,64,1
2,52,64,0
2,45,64,0
2,57,64,1
2,52,64,0
2,45,64,0
2,57,64,1
2,52,64,0
2,45,64,0
2,57,64,1
2,52,64,0
2,45,64,0
2,57,64,1
2,52,64,0
2,45,64,0
2,57,64,1
2,52,64,0
2,45,64,0
2,57,64,1
2,52,64,0
2,45,64,0
2,57,64,1
2,52,64,0
2,45,64,0
2,57,64,1
2,52,64,0
2,45,64,0
2,57,64,1
2,52,64,0
2,45,64,0
2,57,64,1
2,52,64,0
2,45,64,0
2,57,64,1
2,52,64,0
2,45,64,0
2,57,64,1
2,52,64,0
2,45,64,0
2,57,64,1
2,52,64,0
2,45,64,0
2,57,64,1
2,52,64,0
2,45,64,0
2,57,64,1
2,52,64,0
2,45,64,0
2,57,64,1
2,52,64,0
2,45,64,0
2,57,64,1
2,52,64,0
2,45,64,0
2,57,64,1
2,52,64,0
2,45,64,0
2,57,64,1
2,52,64,0
2,45,64,0
2,57,64,1
2,52,64,0
2,45,64,0
2,57,64,1
2,52,64,0
2,45,64,0
2,57,64,1
2,52,64,0
2,45,64,0
2,57,64,1
2,52,64,0
2,45,64,0
2,57,64,1
2,52,64,0
2,45,64,0
2,57,64,1
2,52,64,0
2,45,64,0
2,57,64,1
2,52,64,0
2,45,64,0
2,57,64,1
2,52,64,0
2,45,64,0
2,57,64,1
2,52,64,0
2,45,64,0
2,57,64,1
2,52,64,0
2,45,64,0
2,57,64,1
2,52,64,0
2,45,64,0
2,57,64,1
2,52,64,0
2,45,64,0
2,57,64,1
2,52,64,0
2,45,64,0
2,57,64,1
2,52,64,0
2,45,64,0
2,57,64,1
2,52,64,0
2,45,64,0
2,57,64,1
2,52,64,0
2,45,64,0
2,57,64,1
2,52,64,0
2,45,64,0
2,57,64,1
2,52,64,0
2,45,64,0
2,57,64,1
2,52,64,0
2,45,64,0
2,57,64,1
2,52,64,0
2,45,64,0
2,57,64,1
2,52,64,0
2,45,64,0
2,57,64,1
2,52,64,0
2,45,64,0
2,64,64,1
2,59,64,0
2,52,64,0
2,64,64,1
2,59,64,0
2,52,64,0
2,64,64,1
2,59,64,0
2,52,64,0
2,59,64,1
2,54,64,0
2,47,64,0
2,59,64,1
2,54,64,0
2,47,64,0
2,59,64,1
2,54,64,0
2,47,64,0
2,59,64,1
2,54,64,0
2,47,64,0
2,59,64,1
2,54,64,0
2,47,64,0
2,59,64,1
