track,note,velocity,time
0,53,100,2
0,46,100,0
0,46,0,45
0,53,0,0
0,46,100,0
0,53,100,0
0,53,0,45
0,46,0,0
0,46,100,0
0,53,100,0
0,53,0,45
0,46,0,0
0,46,100,45
0,53,100,0
0,53,0,90
0,46,0,0
0,46,100,2
0,53,100,0
0,58,100,0
0,46,100,0
0,46,50,0
0,35,100,0
0,58,0,45
0,53,0,0
0,46,0,0
0,53,100,0
0,46,100,0
0,58,100,0
0,46,0,0
0,46,100,0
0,35,0,0
0,46,0,0
0,46,50,0
0,35,100,0
0,58,0,45
0,46,0,0
0,53,0,0
0,46,100,0
0,53,100,0
0,58,100,0
0,46,0,0
0,46,100,0
0,35,0,0
0,46,0,0
0,46,50,0
0,38,100,0
0,58,0,45
0,53,0,0
0,46,0,0
0,46,100,0
0,53,100,0
0,58,100,0
0,46,0,0
0,46,100,0
0,38,0,0
0,46,0,0
0,46,50,0
0,35,100,0
0,58,0,45
0,53,0,0
0,46,0,0
0,46,100,0
0,53,100,0
0,58,100,0
0,46,0,0
0,46,100,0
0,35,0,0
0,46,0,0
0,46,50,0
0,35,100,0
0,58,0,45
0,53,0,0
0,46,0,0
0,46,100,0
0,53,100,0
0,58,100,0
0,46,0,0
0,46,100,0
0,35,0,0
0,46,0,0
0,46,50,0
0,35,100,0
0,58,0,45
0,53,0,0
0,46,0,0
0,46,100,0
0,53,100,0
0,58,100,0
0,46,0,0
0,46,100,0
0,35,0,0
0,46,0,0
0,46,50,0
0,38,100,0
0,58,0,45
0,53,0,0
0,46,0,0
0,53,100,0
0,46,100,0
0,58,100,0
0,46,0,0
0,46,100,0
0,38,0,0
0,46,0,0
0,46,50,0
0,35,100,0
0,58,0,45
0,46,0,0
0,53,0,0
0,56,100,0
0,44,100,0
0,51,100,0
0,46,0,0
0,44,100,0
0,35,0,0
0,46,0,0
0,46,50,0
0,35,100,0
0,51,0,45
0,44,0,0
0,56,0,0
0,44,100,0
0,51,100,0
0,56,100,0
0,44,0,0
0,44,100,0
0,35,0,0
0,46,0,0
0,46,50,0
0,35,100,0
0,56,0,45
0,51,0,0
0,44,0,0
0,44,100,0
0,51,100,0
0,56,100,0
0,44,0,0
0,44,100,0
0,35,0,0
0,46,0,0
0,46,50,0
0,38,100,0
0,56,0,45
0,51,0,0
0,44,0,0
0,44,100,0
0,51,100,0
0,56,100,0
0,44,0,0
0,44,100,0
0,38,0,0
0,46,0,0
0,46,50,0
0,35,100,0
0,56,0,45
0,51,0,0
0,44,0,0
0,44,100,0
0,51,100,0
0,56,100,0
0,44,0,0
0,44,100,0
0,35,0,0
0,46,0,0
0,46,50,0
0,35,100,0
0,56,0,45
0,51,0,0
0,44,0,0
0,46,100,0
0,53,100,0
0,58,100,0
0,60,100,0
0,44,0,0
0,46,100,0
0,35,0,0
0,46,0,0
0,46,50,0
0,35,100,0
0,58,0,45
0,53,0,0
0,46,0,0
0,56,100,0
0,48,100,0
0,60,100,0
0,60,0,0
0,63,100,0
0,46,0,0
0,48,100,0
0,35,0,0
0,46,0,0
0,46,50,0
0,38,100,0
0,60,0,45
0,48,0,0
0,56,0,0
0,44,100,0
0,56,100,0
0,51,100,0
0,63,0,0
0,60,100,0
0,48,0,0
0,44,100,0
0,38,0,0
0,46,0,0
0,46,50,0
0,35,100,0
0,51,0,45
0,56,0,0
0,44,0,0
0,46,100,0
0,53,100,0
0,58,100,0
0,60,0,0
0,62,100,0
0,44,0,0
0,46,100,0
0,35,0,0
0,46,0,0
0,46,50,0
0,35,100,0
0,58,0,45
0,53,0,0
0,46,0,0
0,53,100,0
0,46,100,0
0,58,100,0
0,46,0,0
0,46,100,0
0,35,0,0
0,46,0,0
0,46,50,0
0,35,100,0
0,58,0,45
0,46,0,0
0,53,0,0
0,46,100,0
0,53,100,0
0,58,100,0
0,46,0,0
0,46,100,0
0,35,0,0
0,46,0,0
0,46,50,0
0,38,100,0
0,58,0,45
0,53,0,0
0,46,0,0
0,46,100,0
0,53,100,0
0,58,100,0
0,46,0,0
0,46,100,0
0,38,0,0
0,46,0,0
0,46,50,0
0,35,100,0
0,58,0,45
0,53,0,0
0,46,0,0
0,46,100,0
0,53,100,0
0,58,100,0
0,62,0,0
0,46,0,0
0,46,100,0
0,35,0,0
0,46,0,0
0,46,50,0
0,35,100,0
0,58,0,45
0,53,0,0
0,46,0,0
0,46,100,0
0,53,100,0
0,58,100,0
0,46,0,0
0,46,100,0
0,35,0,0
0,46,0,0
0,46,50,0
0,35,100,0
0,58,0,45
0,53,0,0
0,46,0,0
0,46,100,0
0,53,100,0
0,58,100,0
0,46,0,0
0,46,100,0
0,35,0,0
0,46,0,0
0,46,50,0
0,38,100,0
0,58,0,45
0,53,0,0
0,46,0,0
0,53,100,0
0,46,100,0
0,58,100,0
0,46,0,0
0,46,100,0
0,38,0,0
0,46,0,0
0,46,50,0
0,35,100,0
0,58,0,45
0,46,0,0
0,53,0,0
0,56,100,0
0,44,100,0
0,51,100,0
0,46,0,0
0,44,100,0
0,35,0,0
0,46,0,0
0,46,50,0
0,35,100,0
0,51,0,45
0,44,0,0
0,56,0,0
0,44,100,0
0,51,100,0
0,56,100,0
0,44,0,0
0,44,100,0
0,35,0,0
0,46,0,0
0,46,50,0
0,35,100,0
0,56,0,45
0,51,0,0
0,44,0,0
0,44,100,0
0,51,100,0
0,56,100,0
0,44,0,0
0,44,100,0
0,35,0,0
0,46,0,0
0,46,50,0
0,38,100,0
0,56,0,45
0,51,0,0
0,44,0,0
0,44,100,0
0,51,100,0
0,56,100,0
0,44,0,0
0,44,100,0
0,38,0,0
0,46,0,0
0,46,50,0
0,35,100,0
0,56,0,45
0,51,0,0
0,44,0,0
0,44,100,0
0,51,100,0
0,56,100,0
0,44,0,0
0,44,100,0
0,35,0,0
0,46,0,0
0,46,50,0
0,35,100,0
0,56,0,45
0,51,0,0
0,44,0,0
0,46,100,0
0,53,100,0
0,58,100,0
0,60,100,0
0,44,0,0
0,46,100,0
0,35,0,0
0,46,0,0
0,46,50,0
0,35,100,0
0,58,0,45
0,53,0,0
0,46,0,0
0,56,100,0
0,48,100,0
0,60,100,0
0,60,0,0
0,63,100,0
0,46,0,0
0,48,100,0
0,35,0,0
0,46,0,0
0,46,50,0
0,38,100,0
0,60,0,45
0,48,0,0
0,56,0,0
0,44,100,0
0,56,100,0
0,51,100,0
0,63,0,0
0,60,100,0
0,48,0,0
0,44,100,0
0,38,0,0
0,46,0,0
0,46,50,0
0,35,100,0
0,51,0,45
0,56,0,0
0,44,0,0
0,46,100,0
0,53,100,0
0,58,100,0
0,60,0,0
0,62,100,0
0,44,0,0
0,46,100,0
0,35,0,0
0,46,0,0
0,46,50,0
0,35,100,0
0,58,0,45
0,53,0,0
0,46,0,0
0,53,100,0
0,46,100,0
0,58,100,0
0,46,0,0
0,46,100,0
0,35,0,0
0,46,0,0
0,46,50,0
0,35,100,0
0,58,0,45
0,46,0,0
0,53,0,0
0,46,100,0
0,53,100,0
0,58,100,0
0,46,0,0
0,46,100,0
0,35,0,0
0,46,0,0
0,46,50,0
0,38,100,0
0,58,0,45
0,53,0,0
0,46,0,0
0,46,100,0
0,53,100,0
0,58,100,0
0,46,0,0
0,46,100,0
0,38,0,0
0,46,0,0
0,46,50,0
0,35,100,0
0,58,0,45
0,53,0,0
0,46,0,0
0,46,100,0
0,53,100,0
0,58,100,0
0,62,0,0
0,46,0,0
0,46,100,0
0,35,0,0
0,46,0,0
0,46,50,0
0,35,100,0
0,58,0,45
0,53,0,0
0,46,0,0
0,46,100,0
0,53,100,0
0,58,100,0
0,46,0,0
0,46,100,0
0,35,0,0
0,46,0,0
0,46,50,0
0,35,100,0
0,58,0,45
0,53,0,0
0,46,0,0
0,46,100,0
0,53,100,0
0,58,100,0
0,46,0,0
0,46,100,0
0,35,0,0
0,46,0,0
0,46,50,0
0,38,100,0
0,58,0,45
0,53,0,0
0,46,0,0
0,53,100,0
0,46,100,0
0,58,100,0
0,46,0,0
0,46,100,0
0,38,0,0
0,46,0,0
0,46,50,0
0,35,100,0
0,58,0,45
0,46,0,0
0,53,0,0
0,56,100,0
0,44,100,0
0,51,100,0
0,46,0,0
0,44,100,0
0,35,0,0
0,46,0,0
0,46,50,0
0,35,100,0
0,51,0,45
0,44,0,0
0,56,0,0
0,44,100,0
0,51,100,0
0,56,100,0
0,44,0,0
0,44,100,0
0,35,0,0
0,46,0,0
0,46,50,0
0,35,100,0
0,56,0,45
0,51,0,0
0,44,0,0
0,44,100,0
0,51,100,0
0,56,100,0
0,44,0,0
0,44,100,0
0,35,0,0
0,46,0,0
0,46,50,0
0,38,100,0
0,56,0,45
0,51,0,0
0,44,0,0
0,44,100,0
0,51,100,0
0,56,100,0
0,44,0,0
0,44,100,0
0,38,0,0
0,46,0,0
0,46,50,0
0,35,100,0
0,56,0,45
0,51,0,0
0,44,0,0
0,44,100,0
0,51,100,0
0,56,100,0
0,44,0,0
0,44,100,0
0,35,0,0
0,46,0,0
0,46,50,0
0,35,100,0
0,56,0,45
0,51,0,0
0,44,0,0
0,46,100,0
0,53,100,0
0,58,100,0
0,60,100,0
0,44,0,0
0,46,100,0
0,35,0,0
0,46,0,0
0,46,50,0
0,35,100,0
0,58,0,45
0,53,0,0
0,46,0,0
0,56,100,0
0,48,100,0
0,60,100,0
0,60,0,0
0,63,100,0
0,46,0,0
0,48,100,0
0,35,0,0
0,46,0,0
0,46,50,0
0,38,100,0
0,60,0,45
0,48,0,0
0,56,0,0
0,44,100,0
0,56,100,0
0,51,100,0
0,63,0,0
0,60,100,0
0,48,0,0
0,44,100,0
0,38,0,0
0,46,0,0
0,46,50,0
0,35,100,0
0,51,0,45
0,56,0,0
0,44,0,0
0,46,100,0
0,53,100,0
0,58,100,0
0,60,0,0
0,62,100,0
0,44,0,0
0,46,100,0
0,35,0,0
0,46,0,0
0,46,50,0
0,35,100,0
0,58,0,45
0,53,0,0
0,46,0,0
0,53,100,0
0,46,100,0
0,58,100,0
0,46,0,0
0,46,100,0
0,35,0,0
0,46,0,0
0,46,50,0
0,35,100,0
0,58,0,45
0,46,0,0
0,53,0,0
0,46,100,0
0,53,100,0
0,58,100,0
0,46,0,0
0,46,100,0
0,35,0,0
0,46,0,0
0,46,50,0
0,38,100,0
0,58,0,45
0,53,0,0
0,46,0,0
0,46,100,0
0,53,100,0
0,58,100,0
0,46,0,0
0,46,100,0
0,38,0,0
0,46,0,0
0,46,50,0
0,35,100,0
0,58,0,45
0,53,0,0
0,46,0,0
0,46,100,0
0,53,100,0
0,58,100,0
0,62,0,0
0,46,0,0
0,46,100,0
0,35,0,0
0,46,0,0
0,46,50,0
0,35,100,0
0,58,0,45
0,53,0,0
0,46,0,0
0,46,100,0
0,53,100,0
0,58,100,0
0,46,0,0
0,46,100,0
0,35,0,0
0,46,0,0
0,46,50,0
0,35,100,0
0,58,0,45
0,53,0,0
0,46,0,0
0,46,100,0
0,53,100,0
0,58,100,0
0,46,0,0
0,46,100,0
0,35,0,0
0,46,0,0
0,46,50,0
0,38,100,0
0,58,0,45
0,53,0,0
0,46,0,0
0,46,100,0
0,53,100,0
0,58,100,0
0,46,0,0
0,46,100,0
0,38,0,0
0,46,0,0
0,46,50,0
0,35,100,0
0,58,0,45
0,53,0,0
0,46,0,0
0,46,100,0
0,53,100,0
0,58,100,0
0,46,0,0
0,46,100,0
0,35,0,0
0,46,0,0
0,38,100,0
0,58,0,45
0,53,0,0
0,46,0,0
0,46,100,0
0,53,100,0
0,58,100,0
0,46,0,0
0,46,100,0
0,38,0,0
0,38,100,0
0,58,0,45
0,53,0,0
0,46,0,0
0,46,100,0
0,53,100,0
0,58,100,0
0,46,0,0
0,46,100,0
0,38,0,0
0,38,100,0
0,58,0,45
0,53,0,0
0,46,0,0
0,46,100,0
0,53,100,0
0,58,100,0
0,46,0,0
0,46,100,0
0,38,0,0
0,38,100,0
0,58,0,45
0,53,0,0
0,46,0,0
0,58,100,0
0,46,100,0
0,53,100,0
0,46,0,0
0,46,100,0
0,38,0,0
0,38,100,0
0,53,0,45
0,46,0,0
0,58,0,0
0,46,0,0
0,38,0,0
0,35,100,0
0,35,0,45
0,38,100,0
0,58,100,0
0,46,100,0
0,53,100,0
0,39,100,0
0,72,100,0
0,75,100,0
0,38,0,0
0,55,50,0
0,51,50,0
0,46,50,0
0,35,100,0
0,58,100,0
0,53,100,0
0,46,100,0
0,39,0,0
0,39,100,0
0,72,0,0
0,70,100,0
0,75,0,0
0,75,100,0
0,35,0,0
0,55,0,0
0,51,0,0
0,46,0,0
0,46,50,0
0,38,100,0
0,46,0,45
0,46,50,0
0,53,100,0
0,46,100,0
0,58,100,0
0,39,0,0
0,39,100,0
0,70,0,0
0,67,100,0
0,75,0,0
0,75,100,0
0,46,0,0
0,38,0,0
0,46,50,0
0,35,100,0
0,53,100,0
0,46,100,0
0,58,100,0
0,39,0,0
0,41,100,0
0,67,0,0
0,70,100,0
0,75,0,0
0,75,100,0
0,35,0,0
0,46,0,0
0,46,50,0
0,35,100,0
0,58,0,45
0,46,0,0
0,53,0,0
0,46,100,0
0,53,100,0
0,58,100,0
0,41,0,0
0,43,100,0
0,35,0,0
0,46,0,0
0,46,50,0
0,38,100,0
0,60,100,0
0,56,100,0
0,48,100,0
0,43,0,0
0,44,100,0
0,70,0,0
0,70,100,0
0,75,0,0
0,75,100,0
0,38,0,0
0,46,0,0
0,35,100,0
0,46,50,0
0,46,0,45
0,46,50,0
0,48,0,45
0,56,0,0
0,60,0,0
0,60,100,0
0,56,100,0
0,48,100,0
0,44,0,0
0,44,100,0
0,46,0,0
0,35,0,0
0,35,100,0
0,46,50,0
0,70,0,30
0,75,0,0
0,48,0,15
0,56,0,0
0,60,0,0
0,56,100,0
0,48,100,0
0,60,100,0
0,46,0,0
0,35,0,0
0,46,50,0
0,38,100,0
0,60,0,45
0,48,0,0
0,56,0,0
0,56,100,0
0,48,100,0
0,60,100,0
0,44,0,0
0,44,100,0
0,46,0,0
0,46,50,0
0,56,100,0
0,48,100,0
0,60,100,0
0,44,0,0
0,44,100,0
0,67,100,0
0,75,100,0
0,46,0,0
0,38,0,0
0,46,50,0
0,35,100,0
0,56,100,0
0,48,100,0
0,60,100,0
0,44,0,0
0,44,100,0
0,67,0,0
0,70,100,0
0,75,0,0
0,75,100,0
0,35,0,0
0,46,0,0
0,35,100,0
0,46,50,0
0,60,0,45
0,48,0,0
0,56,0,0
0,56,100,0
0,48,100,0
0,60,100,0
0,44,0,0
0,44,100,0
0,46,0,0
0,35,0,0
0,38,100,0
0,46,50,0
0,56,100,0
0,60,100,0
0,48,100,0
0,44,0,0
0,46,100,0
0,70,0,0
0,72,100,0
0,75,0,0
0,75,100,0
0,46,0,0
0,46,50,0
0,48,0,45
0,60,0,0
0,56,0,0
0,46,100,0
0,53,100,0
0,58,100,0
0,46,0,0
0,39,100,0
0,46,0,0
0,38,0,0
0,46,50,0
0,35,100,0
0,46,0,45
0,46,50,0
0,46,100,0
0,53,100,0
0,58,100,0
0,39,0,0
0,39,100,0
0,72,0,0
0,70,100,0
0,75,0,0
0,75,100,0
0,46,0,0
0,35,0,0
0,46,50,0
0,38,100,0
0,46,0,45
0,46,50,0
0,46,100,0
0,53,100,0
0,58,100,0
0,39,0,0
0,39,100,0
0,70,0,0
0,67,100,0
0,75,0,0
0,75,100,0
0,46,0,0
0,38,0,0
0,46,50,0
0,35,100,0
0,46,100,0
0,53,100,0
0,58,100,0
0,39,0,0
0,43,100,0
0,67,0,0
0,70,100,0
0,75,0,0
0,75,100,0
0,35,0,0
0,46,0,0
0,46,50,0
0,35,100,0
0,58,0,45
0,53,0,0
0,46,0,0
0,46,100,0
0,53,100,0
0,58,100,0
0,43,0,0
0,44,100,0
0,35,0,0
0,46,0,0
0,46,50,0
0,38,100,0
0,58,100,0
0,50,100,0
0,62,100,0
0,44,0,0
0,46,100,0
0,70,0,0
