track,note,velocity,time
1,58,110,2256
1,58,0,46
1,67,110,2
1,67,0,94
1,67,110,2
1,67,0,46
1,67,110,2
1,67,0,142
1,67,110,2
1,67,0,94
1,67,110,2
1,67,0,94
1,67,110,2
1,67,0,46
1,65,110,2
1,65,0,142
1,63,110,2
1,63,0,94
1,65,110,2
1,65,0,94
1,60,110,2
1,60,0,94
1,63,110,2
1,63,0,160
1,67,110,416
1,75,110,0
1,67,0,94
1,75,0,0
1,70,110,2
1,75,110,0
1,70,0,46
1,75,0,0
1,70,110,2
1,75,110,0
1,70,0,142
1,75,0,0
1,70,110,2
1,75,110,0
1,70,0,94
1,75,0,0
1,70,110,2
1,75,110,0
1,70,0,94
1,75,0,0
1,72,110,2
1,75,110,0
1,72,0,94
1,75,0,0
1,70,110,2
1,75,110,0
1,70,0,94
1,75,0,0
1,72,110,2
1,75,110,0
1,72,0,46
1,75,0,0
1,70,110,2
1,74,110,0
1,70,0,142
1,74,0,0
1,65,110,2
1,65,0,256
1,67,110,416
1,67,0,94
1,67,110,2
1,67,0,94
1,67,110,2
1,67,0,94
1,67,110,2
1,67,0,94
1,67,110,2
1,67,0,46
1,67,110,2
1,67,0,94
1,65,110,2
1,65,0,94
1,63,110,2
1,63,0,142
1,65,110,2
1,65,0,94
1,60,110,2
1,60,0,46
1,63,110,2
1,63,0,208
1,67,110,416
1,67,0,94
1,67,110,2
1,67,0,94
1,67,110,2
1,67,0,94
1,67,110,2
1,67,0,94
1,65,110,2
1,65,0,94
1,68,110,2
1,68,0,94
1,67,110,2
1,67,0,94
1,65,110,2
1,65,0,46
1,63,110,2
1,63,0,208
1,67,110,464
1,70,110,0
1,67,0,46
1,70,0,0
1,67,110,2
1,70,110,0
1,67,0,94
1,70,0,0
1,68,110,2
1,72,110,0
1,68,0,528
1,72,0,0
1,70,110,48
1,74,110,0
1,70,0,94
1,74,0,0
1,72,110,2
1,75,110,0
1,72,0,94
1,75,0,0
1,70,110,2
1,75,110,0
1,70,0,160
1,75,0,0
1,67,110,32
1,75,110,0
1,67,0,336
1,75,0,0
1,67,110,96
1,75,110,0
1,67,0,46
1,75,0,0
1,67,110,2
1,75,110,0
1,67,0,94
1,75,0,0
1,65,110,2
1,74,110,0
1,65,0,528
1,74,0,0
1,63,110,48
1,72,110,0
1,63,0,94
1,72,0,0
1,65,110,2
1,74,110,0
1,65,0,94
1,74,0,0
1,67,110,2
1,75,110,0
1,67,0,336
1,75,0,0
1,67,110,288
1,70,110,0
1,67,0,46
1,70,0,0
1,67,110,2
1,70,110,0
1,67,0,94
1,70,0,0
1,68,110,2
1,72,110,0
1,68,0,478
1,72,0,0
1,68,110,2
1,72,110,0
1,68,0,46
1,72,0,0
1,67,110,2
1,74,110,0
1,67,0,142
1,74,0,0
1,65,110,2
1,75,110,0
1,65,0,94
1,75,0,0
1,63,110,2
1,75,110,0
1,63,0,160
1,75,0,0
1,63,110,32
1,75,110,0
1,63,0,336
1,75,0,0
1,67,110,144
1,75,110,0
1,67,0,94
1,75,0,0
1,65,110,2
1,74,110,0
1,65,0,478
1,74,0,0
1,65,110,2
1,74,110,0
1,65,0,94
1,74,0,0
1,63,110,2
1,72,110,0
1,63,0,94
1,72,0,0
1,62,110,2
1,74,110,0
1,62,0,94
1,74,0,0
1,63,110,2
1,75,110,0
1,63,0,336
1,75,0,0
1,63,110,384
1,63,0,46
1,67,110,2
1,67,0,94
1,67,110,2
1,67,0,46
1,67,110,2
1,67,0,142
1,67,110,2
1,67,0,94
1,67,110,2
1,67,0,94
1,67,110,2
1,67,0,94
1,65,110,2
1,65,0,94
1,63,110,2
1,63,0,46
1,65,110,2
1,65,0,94
1,60,110,2
1,60,0,46
1,63,110,2
1,63,0,256
1,67,110,416
1,75,110,0
1,67,0,94
1,75,0,0
1,70,110,2
1,75,110,0
1,70,0,46
1,75,0,0
1,70,110,2
1,75,110,0
1,70,0,142
1,75,0,0
1,70,110,2
1,75,110,0
1,70,0,94
1,75,0,0
1,70,110,2
1,75,110,0
1,70,0,94
1,75,0,0
1,72,110,2
1,75,110,0
1,72,0,46
1,75,0,0
1,70,110,2
1,75,110,0
1,70,0,142
1,75,0,0
1,72,110,2
1,75,110,0
1,72,0,94
1,75,0,0
1,70,110,2
1,74,110,0
1,70,0,94
1,74,0,0
1,65,110,2
1,65,0,256
1,67,110,416
1,67,0,94
1,67,110,2
1,67,0,46
1,67,110,2
1,67,0,142
1,70,110,2
1,70,0,94
1,70,110,2
1,70,0,94
1,70,110,2
1,70,0,94
1,70,110,2
1,70,0,94
1,72,110,2
1,72,0,94
1,63,110,2
1,63,0,46
1,60,110,2
1,60,0,94
1,63,110,2
1,63,0,208
1,67,110,416
1,67,0,94
1,67,110,2
1,67,0,94
1,67,110,2
1,67,0,94
1,63,110,2
1,63,0,46
1,65,110,2
1,65,0,94
1,68,110,2
1,68,0,142
1,67,110,2
1,67,0,94
1,65,110,2
1,65,0,94
1,63,110,2
1,63,0,160
1,67,110,464
1,70,110,0
1,67,0,46
1,70,0,0
1,67,110,2
1,70,110,0
1,67,0,94
1,70,0,0
1,68,110,2
1,72,110,0
1,68,0,528
1,72,0,0
1,70,110,48
1,74,110,0
1,70,0,94
1,74,0,0
1,72,110,2
1,75,110,0
1,72,0,94
1,75,0,0
1,70,110,2
1,75,110,0
1,70,0,160
1,75,0,0
1,67,110,32
1,75,110,0
1,67,0,336
1,75,0,0
1,67,110,96
1,75,110,0
1,67,0,46
1,75,0,0
1,67,110,2
1,75,110,0
1,67,0,94
1,75,0,0
1,65,110,2
1,74,110,0
1,65,0,528
1,74,0,0
1,63,110,48
1,72,110,0
1,63,0,94
1,72,0,0
1,65,110,2
1,74,110,0
1,65,0,94
1,74,0,0
1,67,110,2
1,75,110,0
1,67,0,336
1,75,0,0
1,67,110,288
1,70,110,0
1,67,0,46
1,70,0,0
1,67,110,2
1,70,110,0
1,67,0,94
1,70,0,0
1,68,110,2
1,72,110,0
1,68,0,478
1,72,0,0
1,68,110,2
1,72,110,0
1,68,0,46
1,72,0,0
1,67,110,2
1,74,110,0
1,67,0,142
1,74,0,0
1,65,110,2
1,75,110,0
1,65,0,94
1,75,0,0
1,63,110,2
1,75,110,0
1,63,0,160
1,75,0,0
1,63,110,32
1,75,110,0
1,63,0,336
1,75,0,0
1,67,110,144
1,75,110,0
1,67,0,94
1,75,0,0
1,65,110,2
1,74,110,0
1,65,0,478
1,74,0,0
1,65,110,2
1,74,110,0
1,65,0,94
1,74,0,0
1,63,110,2
1,72,110,0
1,63,0,94
1,72,0,0
1,62,110,2
1,74,110,0
1,62,0,94
1,74,0,0
1,63,110,2
1,75,110,0
1,63,0,336
1,75,0,0
1,67,110,6432
1,70,110,0
1,67,0,46
1,70,0,0
1,67,110,2
1,70,110,0
1,67,0,94
1,70,0,0
1,68,110,2
1,72,110,0
1,68,0,528
1,72,0,0
1,70,110,48
1,74,110,0
1,70,0,94
1,74,0,0
1,72,110,2
1,75,110,0
1,72,0,94
1,75,0,0
1,70,110,2
1,75,110,0
1,70,0,160
1,75,0,0
1,67,110,32
1,75,110,0
1,67,0,336
1,75,0,0
1,67,110,96
1,75,110,0
1,67,0,46
1,75,0,0
1,67,110,2
1,75,110,0
1,67,0,94
1,75,0,0
1,65,110,2
1,74,110,0
1,65,0,528
1,74,0,0
1,63,110,48
1,72,110,0
1,63,0,94
1,72,0,0
1,65,110,2
1,74,110,0
1,65,0,94
1,74,0,0
1,67,110,2
1,75,110,0
1,67,0,336
1,75,0,0
1,67,110,288
1,70,110,0
1,67,0,46
1,70,0,0
1,67,110,2
1,70,110,0
1,67,0,94
1,70,0,0
1,68,110,2
1,72,110,0
1,68,0,478
1,72,0,0
1,68,110,2
1,72,110,0
1,68,0,46
1,72,0,0
1,67,110,2
1,74,110,0
1,67,0,142
1,74,0,0
1,65,110,2
1,75,110,0
1,65,0,94
1,75,0,0
1,63,110,2
1,75,110,0
1,63,0,160
1,75,0,0
1,63,110,32
1,75,110,0
1,63,0,336
1,75,0,0
1,63,110,48
1,75,110,0
1,63,0,160
1,75,0,0
1,74,110,32
1,77,110,0
1,74,0,160
1,77,0,0
1,72,110,32
1,72,0,94
1,70,110,2
1,82,110,0
1,70,0,432
1,82,0,0
1,77,110,576
1,77,0,142
1,70,110,2
1,70,0,256
2,51,110,768
2,55,110,0
2,51,0,94
2,55,0,0
2,58,110,2
2,63,110,0
2,67,110,0
2,58,0,142
2,63,0,0
2,67,0,0
2,58,110,2
2,63,110,0
2,67,110,0
2,58,0,46
2,63,0,0
2,67,0,0
2,58,110,2
2,63,110,0
2,67,110,0
2,58,0,94
2,63,0,0
2,67,0,0
2,51,110,2
2,55,110,0
2,51,0,94
2,55,0,0
2,58,110,2
2,63,110,0
2,67,110,0
2,58,0,142
2,63,0,0
2,67,0,0
2,58,110,2
2,63,110,0
2,67,110,0
2,58,0,46
2,63,0,0
2,67,0,0
2,58,110,2
2,63,110,0
2,67,110,0
2,58,0,94
2,63,0,0
2,67,0,0
2,51,110,2
2,55,110,0
2,51,0,94
2,55,0,0
2,58,110,2
2,63,110,0
2,67,110,0
2,58,0,142
2,63,0,0
2,67,0,0
2,58,110,2
2,63,110,0
2,67,110,0
2,58,0,46
2,63,0,0
2,67,0,0
2,58,110,2
2,63,110,0
2,67,110,0
2,58,0,94
2,63,0,0
2,67,0,0
2,51,110,2
2,55,110,0
2,51,0,94
2,55,0,0
2,58,110,2
2,63,110,0
2,67,110,0
2,58,0,142
2,63,0,0
2,67,0,0
2,58,110,2
2,63,110,0
2,67,110,0
2,58,0,46
2,63,0,0
2,67,0,0
2,58,110,2
2,63,110,0
2,67,110,0
2,58,0,94
2,63,0,0
2,67,0,0
2,51,110,2
2,55,110,0
2,51,0,94
2,55,0,0
2,58,110,2
2,63,110,0
2,67,110,0
2,58,0,142
2,63,0,0
2,67,0,0
2,58,110,2
2,63,110,0
2,67,110,0
2,58,0,46
2,63,0,0
2,67,0,0
2,58,110,2
2,63,110,0
2,67,110,0
2,58,0,94
2,63,0,0
2,67,0,0
2,51,110,2
2,55,110,0
2,51,0,94
2,55,0,0
2,58,110,2
2,63,110,0
2,67,110,0
2,58,0,142
2,63,0,0
2,67,0,0
2,58,110,2
2,63,110,0
2,67,110,0
2,58,0,46
2,63,0,0
2,67,0,0
2,58,110,2
2,63,110,0
2,67,110,0
2,58,0,94
2,63,0,0
2,67,0,0
2,44,110,2
2,48,110,0
2,44,0,94
2,48,0,0
2,51,110,2
2,56,110,0
2,60,110,0
2,51,0,142
2,56,0,0
2,60,0,0
2,51,110,2
2,56,110,0
2,60,110,0
2,51,0,46
2,56,0,0
2,60,0,0
2,51,110,2
2,56,110,0
2,60,110,0
2,51,0,94
2,56,0,0
2,60,0,0
2,44,110,2
2,48,110,0
2,44,0,94
2,48,0,0
2,51,110,2
2,56,110,0
2,60,110,0
2,51,0,142
2,56,0,0
2,60,0,0
2,51,110,2
2,56,110,0
2,60,110,0
2,51,0,46
2,56,0,0
2,60,0,0
2,51,110,2
2,56,110,0
2,60,110,0
2,51,0,94
2,56,0,0
2,60,0,0
2,51,110,2
2,55,110,0
2,51,0,94
2,55,0,0
2,58,110,2
2,63,110,0
2,67,110,0
2,58,0,142
2,63,0,0
2,67,0,0
2,58,110,2
2,63,110,0
2,67,110,0
2,58,0,46
2,63,0,0
2,67,0,0
2,58,110,2
2,63,110,0
2,67,110,0
2,58,0,94
2,63,0,0
2,67,0,0
2,51,110,2
2,55,110,0
2,51,0,94
2,55,0,0
2,58,110,2
2,63,110,0
2,67,110,0
2,58,0,142
2,63,0,0
2,67,0,0
2,58,110,2
2,63,110,0
2,67,110,0
2,58,0,46
2,63,0,0
2,67,0,0
2,58,110,2
2,63,110,0
2,67,110,0
2,58,0,94
2,63,0,0
2,67,0,0
2,46,110,2
2,50,110,0
2,46,0,94
2,50,0,0
2,53,110,2
2,58,110,0
2,62,110,0
2,53,0,142
2,58,0,0
2,62,0,0
2,53,110,2
2,58,110,0
2,62,110,0
2,53,0,46
2,58,0,0
2,62,0,0
2,53,110,2
2,58,110,0
2,62,110,0
2,53,0,94
2,58,0,0
2,62,0,0
2,46,110,2
2,50,110,0
2,46,0,94
2,50,0,0
2,53,110,2
2,58,110,0
2,62,110,0
2,53,0,142
2,58,0,0
2,62,0,0
2,53,110,2
2,58,110,0
2,62,110,0
2,53,0,46
2,58,0,0
2,62,0,0
2,53,110,2
2,58,110,0
2,62,110,0
2,53,0,94
2,58,0,0
2,62,0,0
2,51,110,2
2,55,110,0
2,51,0,94
2,55,0,0
2,58,110,2
2,63,110,0
2,67,110,0
2,58,0,142
2,63,0,0
2,67,0,0
2,58,110,2
2,63,110,0
2,67,110,0
2,58,0,46
2,63,0,0
2,67,0,0
2,58,110,2
2,63,110,0
2,67,110,0
2,58,0,94
2,63,0,0
2,67,0,0
2,51,110,2
2,55,110,0
2,51,0,94
2,55,0,0
2,58,110,2
2,63,110,0
2,67,110,0
2,58,0,142
2,63,0,0
2,67,0,0
2,58,110,2
2,63,110,0
2,67,110,0
2,58,0,46
2,63,0,0
2,67,0,0
2,58,110,2
2,63,110,0
2,67,110,0
2,58,0,94
2,63,0,0
2,67,0,0
2,44,110,2
2,48,110,0
2,44,0,94
2,48,0,0
2,51,110,2
2,56,110,0
2,60,110,0
2,51,0,142
2,56,0,0
2,60,0,0
2,51,110,2
2,56,110,0
2,60,110,0
2,51,0,46
2,56,0,0
2,60,0,0
2,51,110,2
2,56,110,0
2,60,110,0
2,51,0,94
2,56,0,0
2,60,0,0
2,44,110,2
2,48,110,0
2,44,0,94
2,48,0,0
2,51,110,2
2,56,110,0
2,60,110,0
2,51,0,142
2,56,0,0
2,60,0,0
2,51,110,2
2,56,110,0
2,60,110,0
2,51,0,46
2,56,0,0
2,60,0,0
2,51,110,2
2,56,110,0
2,60,110,0
2,51,0,94
2,56,0,0
2,60,0,0
2,51,110,2
2,55,110,0
2,51,0,94
2,55,0,0
2,58,110,2
2,63,110,0
2,67,110,0
2,58,0,142
2,63,0,0
2,67,0,0
2,58,110,2
2,63,110,0
2,67,110,0
2,58,0,46
2,63,0,0
2,67,0,0
2,58,110,2
2,63,110,0
2,67,110,0
2,58,0,94
2,63,0,0
2,67,0,0
2,46,110,2
2,50,110,0
2,46,0,94
2,50,0,0
2,53,110,2
2,58,110,0
2,62,110,0
2,53,0,142
2,58,0,0
2,62,0,0
2,53,110,2
2,58,110,0
2,62,110,0
2,53,0,46
2,58,0,0
2,62,0,0
2,53,110,2
2,58,110,0
2,62,110,0
2,53,0,94
2,58,0,0
2,62,0,0
2,51,110,2
2,55,110,0
2,51,0,94
2,55,0,0
2,58,110,2
2,63,110,0
2,67,110,0
2,58,0,142
2,63,0,0
2,67,0,0
2,58,110,2
2,63,110,0
2,67,110,0
2,58,0,46
2,63,0,0
2,67,0,0
2,58,110,2
2,63,110,0
2,67,110,0
2,58,0,94
2,63,0,0
2,67,0,0
2,51,110,2
2,55,110,0
2,51,0,94
2,55,0,0
2,58,110,2
2,63,110,0
2,67,110,0
2,58,0,142
2,63,0,0
2,67,0,0
2,58,110,2
2,63,110,0
2,67,110,0
2,58,0,46
2,63,0,0
2,67,0,0
2,58,110,2
2,63,110,0
2,67,110,0
2,58,0,94
2,63,0,0
2,67,0,0
2,44,110,2
2,48,110,0
2,44,0,94
2,48,0,0
2,51,110,2
2,56,110,0
2,60,110,0
2,51,0,142
2,56,0,0
2,60,0,0
2,51,110,2
2,56,110,0
2,60,110,0
2,51,0,46
2,56,0,0
2,60,0,0
2,51,110,2
2,56,110,0
2,60,110,0
2,51,0,94
2,56,0,0
2,60,0,0
2,44,110,2
2,48,110,0
2,44,0,94
2,48,0,0
2,51,110,2
2,56,110,0
2,60,110,0
2,51,0,142
2,56,0,0
2,60,0,0
2,51,110,2
2,56,110,0
2,60,110,0
2,51,0,46
2,56,0,0
2,60,0,0
