track,note,velocity,time
1,62,32,11324
1,67,46,0
1,71,20,0
1,71,4,60
1,62,14,2
1,67,24,0
1,62,26,90
1,67,40,4
1,71,26,0
1,62,44,86
1,67,58,0
1,71,52,2
1,62,36,70
1,67,40,0
1,71,22,2
1,67,60,114
1,62,52,2
1,71,54,0
1,62,66,94
1,67,76,0
1,71,66,0
1,62,32,54
1,71,1,0
1,67,52,118
1,62,28,2
1,71,16,6
1,62,52,114
1,67,60,2
1,71,60,2
1,62,54,64
1,67,44,32
1,67,24,96
1,59,40,2
1,64,46,0
1,59,16,72
1,64,30,4
1,67,4,6
1,59,44,102
1,64,54,0
1,67,40,2
1,59,44,88
1,67,40,0
1,64,56,4
1,59,48,68
1,67,40,2
1,64,54,0
1,59,64,86
1,64,72,0
1,67,62,2
1,65,56,74
1,60,58,2
1,69,48,0
1,60,24,86
1,65,10,2
1,69,2,4
1,60,48,96
1,65,48,0
1,69,36,4
1,60,78,94
1,65,74,0
1,69,66,0
1,60,76,82
1,69,72,0
1,65,64,8
1,65,72,48
1,69,58,0
1,60,62,2
1,60,80,100
1,64,74,0
1,48,72,0
1,55,70,0
1,60,48,10
1,57,56,40
1,48,44,2
1,60,72,2
1,65,58,0
1,55,56,66
1,48,66,2
1,60,70,0
1,64,64,2
1,60,60,96
1,48,64,70
1,57,72,0
1,60,76,0
1,65,60,0
1,55,60,60
1,60,76,2
1,64,72,2
1,48,66,2
1,60,40,64
1,48,66,66
1,57,72,0
1,60,76,0
1,65,68,0
1,48,58,4
1,55,58,0
1,60,78,6
1,64,68,0
1,55,64,76
1,60,82,0
1,64,80,0
1,48,70,0
1,60,90,62
1,64,92,2
1,48,80,2
1,55,76,0
1,67,62,54
1,71,40,0
1,62,52,2
1,67,20,116
1,71,8,0
1,62,1,4
1,62,24,104
1,67,30,0
1,71,16,0
1,62,28,94
1,71,20,0
1,67,34,2
1,67,48,86
1,62,34,0
1,71,32,0
1,67,58,98
1,71,54,0
1,62,52,2
1,62,14,58
1,67,10,0
1,67,28,126
1,62,26,2
1,71,20,2
1,62,46,102
1,67,54,0
1,71,44,2
1,62,48,74
1,67,56,0
1,71,46,0
1,62,62,28
1,67,72,0
1,71,66,0
1,66,52,38
1,62,52,0
1,71,60,2
1,71,22,94
1,62,16,6
1,66,20,4
1,62,22,80
1,66,32,0
1,71,28,4
1,71,56,82
1,62,52,2
1,66,48,0
1,66,48,72
1,71,60,0
1,62,58,2
1,71,64,82
1,66,60,0
1,62,68,2
1,69,1,24
1,65,28,102
1,60,24,0
1,69,6,0
1,60,28,90
1,65,32,0
1,69,20,4
1,60,62,76
1,65,74,0
1,69,64,2
1,60,64,66
1,65,72,0
1,69,64,0
1,60,74,98
1,65,84,2
1,69,76,0
1,60,76,0
1,64,76,0
1,55,64,0
1,48,64,0
1,60,30,18
1,60,72,130
1,65,62,0
1,48,62,2
1,57,68,0
1,55,62,4
1,48,74,4
1,60,80,2
1,64,74,0
1,60,60,72
1,48,66,44
1,57,68,0
1,65,62,4
1,60,78,4
1,55,54,58
1,48,66,2
1,60,76,0
1,64,76,2
1,60,50,108
1,48,60,64
1,57,66,0
1,60,84,4
1,65,82,0
1,48,66,24
1,55,60,0
1,60,76,0
1,64,76,4
1,60,84,48
1,64,90,2
1,55,72,0
1,48,78,2
1,60,96,90
1,48,78,0
1,64,98,0
1,55,76,2
1,62,62,30
1,67,62,0
1,71,58,0
1,62,24,142
1,71,22,0
1,67,30,2
1,62,40,114
1,67,28,2
1,71,26,0
1,62,46,96
1,67,48,0
1,71,32,2
1,67,40,104
1,62,40,0
1,71,36,2
1,62,36,106
1,67,50,0
1,71,36,0
1,62,26,48
1,67,1,10
1,67,68,92
1,62,60,2
1,71,58,0
1,62,30,62
1,62,52,106
1,67,62,0
1,71,52,2
1,66,48,58
1,63,44,0
1,71,50,0
1,66,32,140
1,63,28,2
1,71,28,0
1,63,38,100
1,66,38,0
1,71,28,0
1,66,46,88
1,63,44,2
1,71,48,0
1,66,58,64
1,71,58,0
1,63,56,2
1,63,72,88
1,66,78,0
1,71,76,0
1,63,18,46
1,66,52,82
1,71,62,2
1,63,44,0
1,63,62,92
1,71,68,0
1,66,62,2
1,59,62,160
1,64,58,24
1,67,76,18
1,62,80,292
1,57,68,4
1,65,82,6
1,60,32,34
1,67,64,6
1,64,62,2
1,60,8,102
1,64,30,140
1,60,24,0
1,67,12,0
1,60,50,110
1,64,44,0
1,67,32,2
1,60,16,80
1,60,40,92
1,64,36,0
1,67,26,2
1,67,76,104
1,64,74,0
1,60,64,2
1,67,74,64
1,64,74,0
1,60,74,2
1,60,80,162
1,67,82,2
1,64,90,0
1,67,66,94
1,71,56,2
1,62,58,2
1,67,50,60
1,71,36,0
1,62,48,0
1,71,20,104
1,67,12,4
1,62,1,0
1,62,32,86
1,67,36,4
1,71,20,0
1,67,42,92
1,71,40,0
1,62,46,2
1,62,42,82
1,67,44,2
1,71,34,0
1,62,56,56
1,67,52,0
1,71,42,2
1,62,30,104
1,67,60,2
1,71,56,0
1,67,78,82
1,71,78,0
1,62,66,0
1,62,48,66
1,67,62,80
1,60,62,16
1,64,54,22
1,69,60,12
1,60,4,40
1,64,8,0
1,69,1,14
1,60,36,104
1,64,48,2
1,69,26,2
1,60,46,82
1,69,34,0
1,64,44,0
1,60,52,78
1,69,32,0
1,64,48,0
1,60,60,90
1,65,58,0
1,69,24,6
1,60,24,72
1,69,20,4
1,65,32,2
1,60,32,90
1,65,24,0
1,69,26,4
1,60,60,86
1,65,56,0
1,69,52,2
1,60,64,80
1,65,54,4
1,69,44,0
1,65,80,98
1,69,68,2
1,60,68,0
1,71,60,94
1,62,60,2
1,67,60,2
1,62,16,114
1,67,22,0
1,71,12,0
1,71,12,122
1,62,8,0
1,67,20,0
1,62,28,92
1,67,40,0
1,71,28,0
1,62,22,90
1,67,32,0
1,71,20,2
1,67,48,86
1,71,40,0
1,62,36,0
1,67,52,86
1,71,58,0
1,62,52,4
1,62,40,58
1,67,8,12
1,62,60,116
1,71,66,0
1,67,68,2
1,62,16,38
1,71,72,96
1,62,62,2
1,67,74,0
1,71,60,104
1,62,54,2
1,67,60,0
1,71,40,20
1,62,36,92
1,67,42,0
1,71,26,2
1,62,68,106
1,67,78,2
1,71,78,0
1,62,54,62
1,62,1,54
1,64,74,94
1,60,76,2
1,57,76,2
1,59,76,72
1,62,86,0
1,65,86,0
1,72,68,0
1,67,64,0
1,76,70,0
1,72,40,80
1,67,30,2
1,76,40,2
1,72,28,118
1,67,8,2
1,76,22,0
1,67,24,116
1,72,46,0
1,76,24,8
1,67,70,98
1,76,84,0
1,72,52,8
1,72,76,52
1,67,60,8
1,67,64,28
1,74,74,0
1,71,80,2
1,67,46,22
1,71,40,40
1,67,52,82
1,71,40,6
1,74,74,112
1,71,84,2
1,67,62,0
1,67,52,76
1,65,68,68
1,72,58,0
1,69,76,2
1,65,20,102
1,69,24,2
1,72,12,0
1,69,44,106
1,72,36,0
1,65,24,2
1,65,32,106
1,69,40,0
1,72,44,0
1,65,16,120
1,72,32,0
1,69,26,0
1,65,50,124
1,69,64,0
1,72,50,2
1,65,68,0
1,69,82,0
1,72,78,0
1,65,50,188
1,69,72,2
1,72,72,2
1,65,76,202
1,69,88,0
1,72,78,0
1,64,58,144
1,72,68,2
1,67,64,4
1,64,46,70
1,67,50,2
1,72,42,0
1,64,40,98
1,67,46,2
1,72,30,2
1,64,46,102
1,67,50,2
1,72,24,6
1,72,76,80
1,67,68,2
1,64,56,0
1,64,58,110
1,67,36,104
1,62,38,2
1,71,44,0
1,67,26,74
1,62,26,2
1,71,16,2
1,62,38,96
1,67,52,0
1,71,46,0
1,67,58,102
1,62,44,4
1,71,42,2
1,62,64,96
1,71,72,0
1,67,70,2
1,67,66,56
1,62,60,4
1,60,66,116
1,65,62,0
1,69,50,0
1,60,52,98
1,65,40,0
1,69,32,0
1,65,54,108
1,60,46,2
1,69,26,2
1,60,58,114
1,65,48,0
1,69,38,2
1,60,70,88
1,69,60,8
1,65,44,2
1,65,78,60
1,69,62,2
1,60,48,88
1,67,58,4
1,64,54,4
1,67,66,272
1,64,72,0
1,60,68,2
1,60,68,176
1,67,72,2
1,64,80,2
1,62,54,88
1,67,44,0
1,71,48,0
1,71,36,36
1,62,18,4
1,67,38,2
1,62,38,96
1,67,40,2
1,71,28,0
1,62,20,92
1,67,28,6
1,71,4,4
1,62,30,100
1,67,44,0
1,71,36,2
1,62,62,100
1,71,66,0
1,67,70,4
1,62,62,216
1,71,74,0
1,67,82,2
1,62,36,18
1,62,78,92
1,67,90,0
1,71,80,2
1,60,62,48
1,69,58,0
1,64,58,2
1,60,26,64
1,64,26,6
1,60,6,120
1,64,1,4
1,69,1,6
1,60,56,96
1,69,20,8
1,64,32,4
1,64,82,44
1,69,76,0
1,60,60,182
1,64,66,72
1,60,68,2
1,67,62,0
1,60,66,124
1,67,56,0
1,64,62,0
1,64,74,162
1,60,72,0
1,67,62,0
1,60,52,64
1,65,44,2
1,69,26,0
1,60,32,52
1,65,28,2
1,69,12,2
1,60,32,100
1,65,44,4
1,69,36,0
1,60,62,76
1,65,56,4
1,69,58,0
1,60,86,60
1,69,34,4
1,65,56,122
1,60,60,112
1,65,68,0
1,69,62,0
1,60,82,168
1,65,90,4
1,69,82,0
1,60,68,172
1,69,76,4
1,65,90,2
1,69,60,52
1,62,52,0
1,66,42,0
1,66,1,70
1,69,8,2
1,62,1,4
1,62,24,112
1,66,32,0
1,69,30,0
1,62,40,92
1,66,48,0
1,69,60,2
1,62,62,66
1,69,68,2
1,66,48,4
1,66,68,106
1,62,60,2
1,69,68,2
1,69,74,88
1,62,68,0
1,66,64,2
1,62,12,20
1,69,64,102
1,66,50,0
1,62,52,2
1,62,24,24
1,66,72,70
1,69,76,4
1,62,50,4
1,62,62,32
1,60,70,86
1,65,50,0
1,69,44,2
1,60,16,70
1,65,20,4
1,60,40,124
1,65,40,0
1,69,20,2
1,60,44,86
1,65,66,94
1,69,52,2
1,60,64,92
1,65,78,92
1,69,74,2
1,60,52,6
1,60,44,90
1,65,74,90
1,69,66,2
1,60,50,32
1,65,64,66
1,69,48,6
1,60,42,14
1,60,62,100
1,64,56,4
1,67,68,2
1,64,4,278
1,60,36,124
1,64,36,0
1,67,50,40
1,64,4,6
1,64,52,28
1,64,52,128
1,67,60,0
1,59,60,4
1,59,18,76
1,64,10,0
1,59,16,132
1,64,1,10
1,59,56,70
1,67,72,2
1,64,62,190
1,60,72,96
1,65,40,26
1,69,70,16
1,60,24,844
1,65,60,22
1,69,78,8
1,60,76,78
1,65,84,0
1,69,60,10
1,60,86,132
1,69,84,0
1,65,94,4
1,62,32,104
1,67,46,0
1,71,20,0
1,71,4,60
1,62,14,2
1,67,24,0
1,62,26,90
1,67,40,4
1,71,26,0
1,62,44,86
1,67,58,0
1,71,52,2
1,62,36,70
1,67,40,0
1,71,22,2
1,67,60,114
1,62,52,2
1,71,54,0
1,62,66,94
1,67,76,0
1,71,66,0
1,62,32,54
1,71,1,0
1,67,52,118
1,62,28,2
1,71,16,6
1,62,52,114
1,67,60,2
1,71,60,2
1,62,54,64
1,67,44,32
1,67,24,96
1,59,40,2
1,64,46,0
1,59,16,72
1,64,30,4
1,67,4,6
1,59,44,102
1,64,54,0
1,67,40,2
1,59,44,88
1,67,40,0
1,64,56,4
1,59,48,68
1,67,40,2
1,64,54,0
1,59,64,86
1,64,72,0
1,67,62,2
1,65,56,74
1,60,58,2
1,69,48,0
1,60,24,86
1,65,10,2
1,69,2,4
1,60,48,96
1,65,48,0
1,69,36,4
1,60,78,94
1,65,74,0
1,69,66,0
1,60,76,82
1,69,72,0
1,65,64,8
1,65,72,48
1,69,58,0
1,60,62,2
1,60,80,100
1,64,74,0
1,48,72,0
1,55,70,0
1,60,48,10
1,57,56,40
1,48,44,2
1,60,72,2
1,65,58,0
1,55,56,66
1,48,66,2
1,60,70,0
1,64,64,2
1,60,60,96
1,48,64,70
1,57,72,0
1,60,76,0
1,65,60,0
1,55,60,60
1,60,76,2
1,64,72,2
1,48,66,2
1,60,40,64
1,48,66,66
1,57,72,0
1,60,76,0
1,65,68,0
1,48,58,4
1,55,58,0
1,60,78,6
1,64,68,0
1,55,64,76
1,60,82,0
1,64,80,0
1,48,70,0
1,60,90,62
1,64,92,2
1,48,80,2
1,55,76,0
1,67,62,54
1,71,40,0
1,62,52,2
1,67,20,116
1,71,8,0
1,62,1,4
1,62,24,104
1,67,30,0
1,71,16,0
1,62,28,94
1,71,20,0
1,67,34,2
1,67,48,86
1,62,34,0
1,71,32,0
1,67,58,98
1,71,54,0
1,62,52,2
1,62,14,58
1,67,10,0
1,67,28,126
1,62,26,2
1,71,20,2
1,62,46,102
1,67,54,0
1,71,44,2
1,62,48,74
1,67,56,0
1,71,46,0
1,62,62,28
1,67,72,0
1,71,66,0
1,66,52,38
1,62,52,0
1,71,60,2
1,71,22,94
1,62,16,6
1,66,20,4
1,62,22,80
1,66,32,0
1,71,28,4
1,71,56,82
1,62,52,2
1,66,48,0
1,66,48,72
1,71,60,0
1,62,58,2
1,71,64,82
1,66,60,0
1,62,68,2
1,69,1,24
1,65,28,102
1,60,24,0
1,69,6,0
1,60,28,90
1,65,32,0
1,69,20,4
1,60,62,76
1,65,74,0
1,69,64,2
1,60,64,66
1,65,72,0
1,69,64,0
1,60,74,98
1,65,84,2
1,69,76,0
1,60,76,0
1,64,76,0
1,55,64,0
1,48,64,0
1,60,30,18
1,60,72,130
1,65,62,0
1,48,62,2
1,57,68,0
1,55,62,4
1,48,74,4
1,60,80,2
1,64,74,0
1,60,60,72
1,48,66,44
1,57,68,0
1,65,62,4
1,60,78,4
1,55,54,58
1,48,66,2
1,60,76,0
1,64,76,2
1,60,50,108
1,48,60,64
1,57,66,0
1,60,84,4
1,65,82,0
1,48,66,24
1,55,60,0
1,60,76,0
1,64,76,4
1,60,84,48
1,64,90,2
1,55,72,0
1,48,78,2
1,60,96,90
1,48,78,0
1,64,98,0
1,55,76,2
1,62,62,30
1,67,62,0
1,71,58,0
1,62,24,142
1,71,22,0
1,67,30,2
1,62,40,114
1,67,28,2
1,71,26,0
1,62,46,96
1,67,48,0
1,71,32,2
1,67,40,104
1,62,40,0
1,71,36,2
1,62,36,106
1,67,50,0
1,71,36,0
1,62,26,48
1,67,1,10
1,67,68,92
1,62,60,2
1,71,58,0
1,62,30,62
1,62,52,106
1,67,62,0
1,71,52,2
1,66,48,58
1,63,44,0
1,71,50,0
1,66,32,140
1,63,28,2
1,71,28,0
1,63,38,100
1,66,38,0
1,71,28,0
1,66,46,88
1,63,44,2
1,71,48,0
1,66,58,64
1,71,58,0
1,63,56,2
1,63,72,88
1,66,78,0
1,71,76,0
1,63,18,46
1,66,52,82
1,71,62,2
1,63,44,0
1,63,62,92
1,71,68,0
1,66,62,2
1,59,62,160
1,64,58,24
1,67,76,18
1,62,80,292
1,57,68,4
1,65,82,6
1,60,32,34
1,67,64,6
1,64,62,2
1,60,8,102
1,64,30,140
1,60,24,0
1,67,12,0
1,60,50,110
1,64,44,0
1,67,32,2
1,60,16,80
1,60,40,92
1,64,36,0
1,67,26,2
1,67,76,104
1,64,74,0
1,60,64,2
1,67,74,64
1,64,74,0
1,60,74,2
1,60,80,162
1,67,82,2
1,64,90,0
1,67,66,94
1,71,56,2
1,62,58,2
1,67,50,60
1,71,36,0
1,62,48,0
1,71,20,104
1,67,12,4
1,62,1,0
1,62,32,86
1,67,36,4
1,71,20,0
1,67,42,92
1,71,40,0
1,62,46,2
1,62,42,82
1,67,44,2
1,71,34,0
1,62,56,56
1,67,52,0
1,71,42,2
1,62,30,104
1,67,60,2
1,71,56,0
1,67,78,82
1,71,78,0
1,62,66,0
1,62,48,66
1,67,62,80
1,60,62,16
1,64,54,22
1,69,60,12
1,60,4,40
1,64,8,0
1,69,1,14
1,60,36,104
1,64,48,2
