track,note,velocity,time
1,40,127,6
1,40,0,52
1,40,127,21
1,43,127,35
1,40,0,1
1,45,127,3
1,47,127,1
1,43,0,14
1,45,0,11
1,40,127,45
1,47,0,5
1,40,0,35
1,40,127,9
1,40,0,74
1,40,127,6
1,40,0,39
1,43,127,7
1,45,127,3
1,47,127,1
1,43,0,13
1,45,0,34
1,41,127,23
1,47,0,3
1,41,0,27
1,43,127,13
1,43,0,74
1,40,127,0
1,40,0,38
1,43,127,2
1,45,127,3
1,47,127,1
1,43,0,17
1,45,0,42
1,40,127,12
1,47,0,5
1,40,0,28
1,40,127,11
1,40,0,73
1,40,127,7
1,40,0,39
1,43,127,6
1,47,127,0
1,45,127,1
1,45,0,38
1,47,0,1
1,43,0,4
1,47,127,34
1,48,127,0
1,45,127,7
1,48,0,1
1,43,127,6
1,45,0,14
1,41,127,1
1,47,0,1
1,43,0,4
1,40,127,7
1,41,0,5
1,40,0,64
1,40,127,8
1,40,0,37
1,41,127,4
1,43,127,2
1,45,127,2
1,47,127,0
1,41,0,22
1,40,127,49
1,43,0,3
1,45,0,0
1,47,0,5
1,40,0,25
1,40,127,10
1,40,0,72
1,40,127,5
1,40,0,38
1,41,127,5
1,43,127,3
1,47,127,2
1,45,127,1
1,41,0,13
1,43,0,10
1,45,0,46
1,40,127,2
1,47,0,3
1,40,0,34
1,40,127,10
1,40,0,65
1,40,127,12
1,47,127,42
1,40,0,1
1,40,127,75
1,47,0,8
1,40,0,32
1,40,127,4
1,40,0,76
1,40,127,9
1,40,0,36
1,45,127,3
1,43,127,75
1,45,0,2
1,43,0,27
1,40,127,21
1,40,0,52
1,40,127,21
1,43,127,35
1,40,0,1
1,45,127,3
1,47,127,1
1,43,0,14
1,45,0,11
1,40,127,45
1,47,0,5
1,40,0,35
1,40,127,9
1,40,0,74
1,40,127,6
1,40,0,39
1,43,127,7
1,45,127,3
1,47,127,1
1,43,0,13
1,45,0,34
1,41,127,23
1,47,0,3
1,41,0,27
1,43,127,13
1,43,0,74
1,40,127,0
1,40,0,38
1,43,127,2
1,45,127,3
1,47,127,1
1,43,0,17
1,45,0,42
1,40,127,12
1,47,0,5
1,40,0,28
1,40,127,11
1,40,0,73
1,40,127,7
1,40,0,39
1,43,127,6
1,47,127,0
1,45,127,1
1,45,0,38
1,47,0,1
1,43,0,4
1,47,127,34
1,48,127,0
1,45,127,7
1,48,0,1
1,43,127,6
1,45,0,14
1,41,127,1
1,47,0,1
1,43,0,4
1,40,127,7
1,41,0,5
1,40,0,64
1,40,127,8
1,40,0,37
1,41,127,4
1,43,127,2
1,45,127,2
1,47,127,0
1,41,0,22
1,40,127,49
1,43,0,3
1,45,0,0
1,47,0,5
1,40,0,25
1,40,127,10
1,40,0,72
1,40,127,5
1,40,0,38
1,41,127,5
1,43,127,3
1,47,127,2
1,45,127,1
1,41,0,13
1,43,0,10
1,45,0,46
1,40,127,2
1,47,0,3
1,40,0,34
1,40,127,10
1,40,0,65
1,40,127,12
1,47,127,42
1,40,0,1
1,40,127,75
1,47,0,8
1,40,0,32
1,40,127,4
1,40,0,76
1,40,127,9
1,40,0,36
1,45,127,3
1,43,127,75
1,45,0,2
1,43,0,27
1,40,127,21
1,40,0,52
1,40,127,21
1,43,127,35
1,40,0,1
1,45,127,3
1,47,127,1
1,43,0,14
1,45,0,11
1,40,127,45
1,47,0,5
1,40,0,35
1,40,127,9
1,40,0,74
1,40,127,6
1,40,0,39
1,43,127,7
1,45,127,3
1,47,127,1
1,43,0,13
1,45,0,34
1,41,127,23
1,47,0,3
1,41,0,27
1,43,127,13
1,43,0,74
1,40,127,0
1,40,0,38
1,43,127,2
1,45,127,3
1,47,127,1
1,43,0,17
1,45,0,42
1,40,127,12
1,47,0,5
1,40,0,28
1,40,127,11
1,40,0,73
1,40,127,7
1,40,0,39
1,43,127,6
1,47,127,0
1,45,127,1
1,45,0,38
1,47,0,1
1,43,0,4
1,47,127,34
1,48,127,0
1,45,127,7
1,48,0,1
1,43,127,6
1,45,0,14
1,41,127,1
1,47,0,1
1,43,0,4
1,40,127,7
1,41,0,5
1,40,0,64
1,40,127,8
1,40,0,37
1,41,127,4
1,43,127,2
1,45,127,2
1,47,127,0
1,41,0,22
1,40,127,49
1,43,0,3
1,45,0,0
1,47,0,5
1,40,0,25
1,40,127,10
1,40,0,72
1,40,127,5
1,40,0,38
1,41,127,5
1,43,127,3
1,47,127,2
1,45,127,1
1,41,0,13
1,43,0,10
1,45,0,46
1,40,127,2
1,47,0,3
1,40,0,34
1,40,127,10
1,40,0,65
1,40,127,12
1,47,127,42
1,40,0,1
1,40,127,75
1,47,0,8
1,40,0,32
1,40,127,4
1,40,0,76
1,40,127,9
1,40,0,36
1,45,127,3
1,43,127,75
1,45,0,2
1,43,0,27
1,40,127,21
1,40,0,52
1,40,127,21
1,43,127,35
1,40,0,1
1,45,127,3
1,47,127,1
1,43,0,14
1,45,0,11
1,40,127,45
1,47,0,5
1,40,0,35
1,40,127,9
1,40,0,74
1,40,127,6
1,40,0,39
1,43,127,7
1,45,127,3
1,47,127,1
1,43,0,13
1,45,0,34
1,41,127,23
1,47,0,3
1,41,0,27
1,43,127,13
1,43,0,74
1,40,127,0
1,40,0,38
1,43,127,2
1,45,127,3
1,47,127,1
1,43,0,17
1,45,0,42
1,40,127,12
1,47,0,5
1,40,0,28
1,40,127,11
1,40,0,73
1,40,127,7
1,40,0,39
1,43,127,6
1,47,127,0
1,45,127,1
1,45,0,38
1,47,0,1
1,43,0,4
1,47,127,34
1,48,127,0
1,45,127,7
1,48,0,1
1,43,127,6
1,45,0,14
1,41,127,1
1,47,0,1
1,43,0,4
1,40,127,7
1,41,0,5
1,40,0,64
1,40,127,8
1,40,0,37
1,41,127,4
1,43,127,2
1,45,127,2
1,47,127,0
1,41,0,22
1,40,127,49
1,43,0,3
1,45,0,0
1,47,0,5
1,40,0,25
1,40,127,10
1,40,0,72
1,40,127,5
1,40,0,38
1,41,127,5
1,43,127,3
1,47,127,2
1,45,127,1
1,41,0,13
1,43,0,10
1,45,0,46
1,40,127,2
1,47,0,3
1,40,0,34
1,40,127,10
1,40,0,65
1,40,127,12
1,47,127,42
1,40,0,1
1,40,127,75
1,47,0,8
1,40,0,32
1,40,127,4
1,40,0,76
1,40,127,9
1,40,0,36
1,45,127,3
1,43,127,75
1,45,0,2
1,43,0,27
1,40,127,21
1,40,0,52
1,40,127,21
1,43,127,35
1,40,0,1
1,45,127,3
1,47,127,1
1,43,0,14
1,45,0,11
1,40,127,45
1,47,0,5
1,40,0,35
1,40,127,9
1,40,0,74
1,40,127,6
1,40,0,39
1,43,127,7
1,45,127,3
1,47,127,1
1,43,0,13
1,45,0,34
1,41,127,23
1,47,0,3
1,41,0,27
1,43,127,13
1,43,0,74
1,40,127,0
1,40,0,38
1,43,127,2
1,45,127,3
1,47,127,1
1,43,0,17
1,45,0,42
1,40,127,12
1,47,0,5
1,40,0,28
1,40,127,11
1,40,0,73
1,40,127,7
1,40,0,39
1,43,127,6
1,47,127,0
1,45,127,1
1,45,0,38
1,47,0,1
1,43,0,4
1,47,127,34
1,48,127,0
1,45,127,7
1,48,0,1
1,43,127,6
1,45,0,14
1,41,127,1
1,47,0,1
1,43,0,4
1,40,127,7
1,41,0,5
1,40,0,64
1,40,127,8
1,40,0,37
1,41,127,4
1,43,127,2
1,45,127,2
1,47,127,0
1,41,0,22
1,40,127,49
1,43,0,3
1,45,0,0
1,47,0,5
1,40,0,25
1,40,127,10
1,40,0,72
1,40,127,5
1,40,0,38
1,41,127,5
1,43,127,3
1,47,127,2
1,45,127,1
1,41,0,13
1,43,0,10
1,45,0,46
1,40,127,2
1,47,0,3
1,40,0,34
1,40,127,10
1,40,0,65
1,40,127,12
1,47,127,42
1,40,0,1
1,40,127,75
1,47,0,8
1,40,0,32
1,40,127,4
1,40,0,76
1,40,127,9
1,40,0,36
1,45,127,3
1,43,127,75
1,45,0,2
1,43,0,27
1,40,127,21
1,40,0,52
1,40,127,21
1,43,127,35
1,40,0,1
1,45,127,3
1,47,127,1
1,43,0,14
1,45,0,11
1,40,127,45
1,47,0,5
1,40,0,35
1,40,127,9
1,40,0,74
1,40,127,6
1,40,0,39
1,43,127,7
1,45,127,3
1,47,127,1
1,43,0,13
1,45,0,34
1,41,127,23
1,47,0,3
1,41,0,27
1,43,127,13
1,43,0,74
1,40,127,0
1,40,0,38
1,43,127,2
1,45,127,3
1,47,127,1
1,43,0,17
1,45,0,42
1,40,127,12
1,47,0,5
1,40,0,28
1,40,127,11
1,40,0,73
1,40,127,7
1,40,0,39
1,43,127,6
1,47,127,0
1,45,127,1
1,45,0,38
1,47,0,1
1,43,0,4
1,47,127,34
1,48,127,0
1,45,127,7
1,48,0,1
1,43,127,6
1,45,0,14
1,41,127,1
1,47,0,1
1,43,0,4
1,40,127,7
1,41,0,5
1,40,0,64
1,40,127,8
1,40,0,37
1,41,127,4
1,43,127,2
1,45,127,2
1,47,127,0
1,41,0,22
1,40,127,49
1,43,0,3
1,45,0,0
1,47,0,5
1,40,0,25
1,40,127,10
1,40,0,72
1,40,127,5
1,40,0,38
1,41,127,5
1,43,127,3
1,47,127,2
1,45,127,1
1,41,0,13
1,43,0,10
1,45,0,46
1,40,127,2
1,47,0,3
1,40,0,34
1,49,127,9
1,40,127,1
1,38,127,2
1,49,127,2
1,38,0,37
1,38,127,1
1,40,0,23
1,38,0,16
1,38,127,1
1,38,0,39
1,38,127,1
1,38,0,39
1,38,127,1
1,38,0,39
1,38,127,1
1,38,0,39
1,38,127,1
1,38,0,39
1,38,127,1
1,38,0,39
1,38,127,1
1,38,0,39
1,38,127,1
1,49,0,4
1,38,0,35
1,38,127,1
1,38,0,39
1,38,127,1
1,49,0,16
1,38,0,23
1,49,127,1
1,36,127,5
1,50,127,0
1,50,0,89
1,50,127,20
1,36,0,6
1,38,127,4
1,38,0,74
1,36,127,2
1,50,0,10
1,36,0,18
1,50,127,9
1,36,127,9
1,49,0,17
1,50,0,77
1,50,127,25
1,52,127,1
1,38,127,1
1,36,0,5
1,52,0,24
1,36,127,42
1,38,0,3
1,50,0,9
1,36,0,20
1,50,127,9
1,36,127,6
1,50,0,98
1,50,127,19
1,36,0,1
1,38,127,3
1,36,127,74
1,38,0,4
1,50,0,9
1,36,0,17
1,50,127,12
1,36,127,5
1,50,0,89
1,38,127,32
1,50,127,0
1,52,127,1
1,36,0,2
1,52,0,61
1,50,0,4
1,36,127,6
1,38,0,2
1,36,0,28
1,36,127,13
1,50,127,0
1,50,0,89
1,50,127,20
1,36,0,6
1,38,127,4
1,38,0,74
1,36,127,2
1,50,0,10
1,36,0,18
1,50,127,9
1,36,127,9
1,50,0,94
1,50,127,25
1,52,127,1
1,38,127,1
1,36,0,5
1,52,0,24
1,36,127,42
1,38,0,3
1,50,0,9
1,36,0,20
1,50,127,9
1,36,127,6
1,50,0,98
1,50,127,19
1,36,0,1
1,38,127,3
1,36,127,74
1,38,0,4
1,50,0,9
1,36,0,17
1,50,127,12
1,36,127,5
1,50,0,89
1,38,127,32
1,50,127,0
1,52,127,1
1,36,0,2
1,52,0,61
1,50,0,4
1,36,127,6
1,38,0,2
1,36,0,28
1,36,127,13
1,50,127,0
1,50,0,89
1,50,127,20
1,36,0,6
1,38,127,4
1,38,0,74
1,36,127,2
1,50,0,10
1,36,0,18
1,50,127,9
1,36,127,9
1,50,0,94
1,50,127,25
1,52,127,1
1,38,127,1
1,36,0,5
1,52,0,24
1,36,127,42
1,38,0,3
1,50,0,9
1,36,0,20
1,50,127,9
1,36,127,6
1,50,0,98
1,50,127,19
1,36,0,1
1,38,127,3
1,36,127,74
1,38,0,4
1,50,0,9
1,36,0,17
1,50,127,12
1,36,127,5
1,50,0,89
1,38,127,32
1,50,127,0
1,52,127,1
1,36,0,2
1,52,0,61
1,50,0,4
1,36,127,6
1,38,0,2
1,36,0,28
1,36,127,13
1,50,127,0
1,50,0,89
1,50,127,20
1,36,0,6
1,38,127,4
1,38,0,74
1,36,127,2
1,50,0,10
1,36,0,18
1,50,127,9
1,36,127,9
1,50,0,94
1,50,127,25
1,52,127,1
1,38,127,1
1,36,0,5
1,52,0,24
1,36,127,42
1,38,0,3
1,50,0,9
1,36,0,20
1,50,127,9
1,36,127,1
1,36,0,54
1,36,127,18
1,36,0,31
1,50,0,0
1,38,127,13
1,38,0,79
1,36,127,7
1,36,0,32
1,36,127,13
1,36,0,60
1,36,127,17
1,36,0,26
1,38,127,14
1,38,0,32
1,47,127,50
1,45,127,8
1,43,127,12
1,47,0,4
1,45,0,3
1,40,127,13
1,43,0,3
1,40,0,49
1,40,127,21
1,43,127,35
1,40,0,1
1,45,127,3
1,47,127,1
1,43,0,14
1,45,0,11
1,40,127,45
1,47,0,5
1,40,0,35
1,40,127,9
1,40,0,74
1,40,127,6
1,40,0,39
1,43,127,7
1,45,127,3
1,47,127,1
1,43,0,13
1,45,0,34
1,41,127,23
1,47,0,3
1,41,0,27
1,43,127,13
1,43,0,74
1,40,127,0
1,40,0,38
1,43,127,2
1,45,127,3
1,47,127,1
1,43,0,17
1,45,0,42
1,40,127,12
1,47,0,5
1,40,0,28
1,40,127,11
1,40,0,73
1,40,127,7
1,40,0,39
1,43,127,6
1,47,127,0
1,45,127,1
1,45,0,38
1,47,0,1
1,43,0,4
1,47,127,34
1,48,127,0
1,45,127,7
1,48,0,1
1,43,127,6
1,45,0,14
1,41,127,1
1,47,0,1
1,43,0,4
1,40,127,7
1,41,0,5
1,40,0,64
1,40,127,8
1,40,0,37
1,41,127,4
1,43,127,2
1,45,127,2
1,47,127,0
1,41,0,22
1,40,127,49
1,43,0,3
1,45,0,0
1,47,0,5
1,40,0,25
1,40,127,10
1,40,0,72
1,40,127,5
1,40,0,38
1,41,127,5
1,43,127,3
1,47,127,2
1,45,127,1
1,41,0,13
1,43,0,10
1,45,0,46
1,40,127,2
1,47,0,3
1,40,0,34
1,40,127,10
1,40,0,65
1,40,127,12
1,47,127,42
1,40,0,1
1,40,127,75
1,47,0,8
1,40,0,32
1,40,127,4
1,40,0,76
1,40,127,9
1,40,0,36
1,45,127,3
1,43,127,75
1,45,0,2
1,43,0,27
1,40,127,21
1,40,0,52
1,40,127,21
1,43,127,35
1,40,0,1
1,45,127,3
1,47,127,1
1,43,0,14
1,45,0,11
1,40,127,45
1,47,0,5
1,40,0,35
1,40,127,9
1,40,0,74
1,40,127,6
1,40,0,39
1,43,127,7
1,45,127,3
1,47,127,1
1,43,0,13
1,45,0,34
1,41,127,23
1,47,0,3
1,41,0,27
1,43,127,13
1,43,0,74
1,40,127,0
1,40,0,38
1,43,127,2
1,45,127,3
1,47,127,1
1,43,0,17
1,45,0,42
1,40,127,12
1,47,0,5
1,40,0,28
1,40,127,11
1,40,0,73
1,40,127,7
1,40,0,39
1,43,127,6
1,47,127,0
1,45,127,1
1,45,0,38
1,47,0,1
1,43,0,4
1,47,127,34
1,48,127,0
1,45,127,7
1,48,0,1
1,43,127,6
1,45,0,14
1,41,127,1
1,47,0,1
1,43,0,4
1,40,127,7
1,41,0,5
1,40,0,64
1,40,127,8
1,40,0,37
1,41,127,4
1,43,127,2
1,45,127,2
1,47,127,0
1,41,0,22
1,40,127,49
1,43,0,3
1,45,0,0
1,47,0,5
1,40,0,25
1,40,127,10
1,40,0,72
1,40,127,5
1,40,0,38
1,41,127,5
1,43,127,3
1,47,127,2
1,45,127,1
1,41,0,13
1,43,0,10
1,45,0,46
1,40,127,2
1,47,0,3
1,40,0,34
1,40,127,10
1,40,0,65
1,40,127,12
1,47,127,42
1,40,0,1
1,40,127,75
1,47,0,8
1,40,0,32
1,40,127,4
1,40,0,76
1,40,127,9
1,40,0,36
1,45,127,3
1,43,127,75
1,45,0,2
1,43,0,27
1,40,127,21
1,40,0,52
1,40,127,21
1,43,127,35
1,40,0,1
1,45,127,3
1,47,127,1
1,43,0,14
