track,note,velocity,time
1,51,116,0
1,58,116,0
1,63,116,0
1,51,88,4
1,58,88,0
1,63,88,0
1,51,88,100
1,58,88,0
1,63,88,0
1,51,88,100
1,58,88,0
1,63,88,0
1,51,88,100
1,58,88,0
1,63,88,0
1,51,116,100
1,58,116,0
1,63,116,0
1,51,88,4
1,58,88,0
1,63,88,0
1,46,116,100
1,53,116,0
1,58,116,0
1,46,88,4
1,53,88,0
1,58,88,0
1,46,88,100
1,53,88,0
1,58,88,0
1,46,116,100
1,53,116,0
1,58,116,0
1,46,88,4
1,53,88,0
1,58,88,0
1,46,88,100
1,53,88,0
1,58,88,0
1,46,88,100
1,53,88,0
1,58,88,0
1,46,116,100
1,53,116,0
1,58,116,0
1,46,88,4
1,53,88,0
1,58,88,0
1,48,88,100
1,55,88,0
1,60,88,0
1,48,88,100
1,55,88,0
1,60,88,0
1,48,116,100
1,55,116,0
1,60,116,0
1,48,88,4
1,55,88,0
1,60,88,0
1,48,88,100
1,55,88,0
1,60,88,0
1,48,116,100
1,55,116,0
1,60,116,0
1,48,88,4
1,55,88,0
1,60,88,0
1,43,116,100
1,50,116,0
1,55,116,0
1,43,88,4
1,50,88,0
1,55,88,0
1,43,88,100
1,50,88,0
1,55,88,0
1,43,116,100
1,50,116,0
1,55,116,0
1,43,88,4
1,50,88,0
1,55,88,0
1,43,88,100
1,50,88,0
1,55,88,0
1,43,88,100
1,50,88,0
1,55,88,0
1,43,116,100
1,50,116,0
1,55,116,0
1,43,88,4
1,50,88,0
1,55,88,0
1,44,88,100
1,51,88,0
1,56,88,0
1,44,88,100
1,51,88,0
1,56,88,0
1,44,116,100
1,51,116,0
1,56,116,0
1,44,88,4
1,51,88,0
1,56,88,0
1,44,88,100
1,51,88,0
1,56,88,0
1,44,116,100
1,51,116,0
1,56,116,0
1,44,88,4
1,51,88,0
1,56,88,0
1,51,116,100
1,58,116,0
1,63,116,0
1,51,88,4
1,58,88,0
1,63,88,0
1,51,88,100
1,58,88,0
1,63,88,0
1,51,116,100
1,58,116,0
1,63,116,0
1,51,88,4
1,58,88,0
1,63,88,0
1,51,88,100
1,58,88,0
1,63,88,0
1,51,88,100
1,58,88,0
1,63,88,0
1,51,116,100
1,58,116,0
1,63,116,0
1,51,88,4
1,58,88,0
1,63,88,0
1,46,116,100
1,53,116,0
1,58,116,0
1,46,88,4
1,53,88,0
1,58,88,0
1,46,116,100
1,53,116,0
1,58,116,0
1,46,88,4
1,53,88,0
1,58,88,0
1,46,88,100
1,53,88,0
1,58,88,0
1,46,88,100
1,53,88,0
1,58,88,0
1,46,88,100
1,53,88,0
1,58,88,0
1,46,116,100
1,53,116,0
1,58,116,0
1,46,88,4
1,53,88,0
1,58,88,0
1,46,88,100
1,53,88,0
1,58,88,0
1,46,116,100
1,53,116,0
1,58,116,0
1,46,88,4
1,53,88,0
1,58,88,0
1,46,88,100
1,53,88,0
1,58,88,0
1,46,88,100
1,53,88,0
1,58,88,0
1,46,116,100
1,53,116,0
1,58,116,0
1,46,88,4
1,53,88,0
1,58,88,0
1,51,116,100
1,58,116,0
1,63,116,0
1,51,88,4
1,58,88,0
1,63,88,0
1,51,116,100
1,58,116,0
1,63,116,0
1,51,88,4
1,58,88,0
1,63,88,0
1,51,88,100
1,58,88,0
1,63,88,0
1,51,88,100
1,58,88,0
1,63,88,0
1,51,88,100
1,58,88,0
1,63,88,0
1,46,116,100
1,53,116,0
1,58,116,0
1,46,88,4
1,53,88,0
1,58,88,0
1,46,88,100
1,53,88,0
1,58,88,0
1,46,116,100
1,53,116,0
1,58,116,0
1,46,88,4
1,53,88,0
1,58,88,0
1,46,88,100
1,53,88,0
1,58,88,0
1,46,88,100
1,53,88,0
1,58,88,0
1,46,116,100
1,53,116,0
1,58,116,0
1,46,88,4
1,53,88,0
1,58,88,0
1,46,88,4
1,53,88,0
1,58,88,0
1,48,88,4
1,55,88,0
1,60,88,0
1,48,88,4
1,55,88,0
1,60,88,0
1,48,116,100
1,55,116,0
1,60,116,0
1,48,88,4
1,55,88,0
1,60,88,0
1,48,88,100
1,55,88,0
1,60,88,0
1,48,116,100
1,55,116,0
1,60,116,0
1,48,88,4
1,55,88,0
1,60,88,0
1,43,116,100
1,50,116,0
1,55,116,0
1,43,88,4
1,50,88,0
1,55,88,0
1,43,88,100
1,50,88,0
1,55,88,0
1,43,116,100
1,50,116,0
1,55,116,0
1,43,88,4
1,50,88,0
1,55,88,0
1,43,88,100
1,50,88,0
1,55,88,0
1,43,88,100
1,50,88,0
1,55,88,0
1,43,116,100
1,50,116,0
1,55,116,0
1,43,88,4
1,50,88,0
1,55,88,0
1,43,88,4
1,50,88,0
1,55,88,0
1,44,88,4
1,51,88,0
1,56,88,0
1,44,88,100
1,51,88,0
1,56,88,0
1,44,116,100
1,51,116,0
1,56,116,0
1,44,88,4
1,51,88,0
1,56,88,0
1,44,88,100
1,51,88,0
1,56,88,0
1,44,116,100
1,51,116,0
1,56,116,0
1,44,88,4
1,51,88,0
1,56,88,0
1,51,116,100
1,58,116,0
1,63,116,0
1,51,88,4
1,58,88,0
1,63,88,0
1,51,88,100
1,58,88,0
1,63,88,0
1,51,116,100
1,58,116,0
1,63,116,0
1,51,88,4
1,58,88,0
1,63,88,0
1,51,88,100
1,58,88,0
1,63,88,0
1,51,88,100
1,58,88,0
1,63,88,0
1,51,116,100
1,58,116,0
1,63,116,0
1,51,88,4
1,58,88,0
1,63,88,0
1,51,88,4
1,58,88,0
1,63,88,0
1,46,116,4
1,53,116,0
1,58,116,0
1,46,103,4
1,53,103,0
1,58,103,0
1,46,103,100
1,53,103,0
1,58,103,0
1,46,103,100
1,53,103,0
1,58,103,0
1,46,103,100
1,53,103,0
1,58,103,0
1,46,103,100
1,53,103,0
1,58,103,0
1,46,103,100
1,53,103,0
1,58,103,0
1,46,103,100
1,53,103,0
1,58,103,0
1,46,103,4
1,53,103,0
1,58,103,0
1,46,103,100
1,53,103,0
1,58,103,0
1,46,103,100
1,53,103,0
1,58,103,0
1,46,103,100
1,53,103,0
1,58,103,0
1,46,103,100
1,53,103,0
1,58,103,0
1,46,103,100
1,53,103,0
1,58,103,0
1,46,116,100
1,53,116,0
1,58,116,0
1,39,103,4
1,46,103,0
1,51,103,0
1,44,100,4
1,51,100,0
1,56,100,0
1,44,94,4
1,51,94,0
1,56,94,0
1,44,94,100
1,51,94,0
1,56,94,0
1,44,94,100
1,51,94,0
1,56,94,0
1,44,94,100
1,51,94,0
1,56,94,0
1,44,116,100
1,51,116,0
1,56,116,0
1,44,94,4
1,51,94,0
1,56,94,0
1,46,116,100
1,53,116,0
1,58,116,0
1,46,94,4
1,53,94,0
1,58,94,0
1,46,94,100
1,53,94,0
1,58,94,0
1,46,116,100
1,53,116,0
1,58,116,0
1,46,94,4
1,53,94,0
1,58,94,0
1,46,94,100
1,53,94,0
1,58,94,0
1,46,94,100
1,53,94,0
1,58,94,0
1,46,116,100
1,53,116,0
1,58,116,0
1,46,94,4
1,53,94,0
1,58,94,0
1,51,94,100
1,58,94,0
1,63,94,0
1,51,94,4
1,58,94,0
1,63,94,0
1,51,116,100
1,58,116,0
1,63,116,0
1,51,94,4
1,58,94,0
1,63,94,0
1,51,94,100
1,58,94,0
1,63,94,0
1,51,94,100
1,58,94,0
1,63,94,0
1,51,94,100
1,58,94,0
1,63,94,0
1,51,116,100
1,58,116,0
1,63,116,0
1,51,94,4
1,58,94,0
1,63,94,0
1,51,94,100
1,58,94,0
1,63,94,0
1,51,116,100
1,58,116,0
1,63,116,0
1,67,116,0
1,51,94,4
1,58,94,0
1,63,94,0
1,51,94,100
1,58,94,0
1,63,94,0
1,51,94,100
1,58,94,0
1,63,94,0
1,51,116,100
1,58,116,0
1,63,116,0
1,67,116,0
1,51,94,4
1,58,94,0
1,63,94,0
1,44,94,100
1,51,94,0
1,56,94,0
1,44,94,100
1,51,94,0
1,56,94,0
1,44,116,100
1,51,116,0
1,56,116,0
1,44,94,4
1,51,94,0
1,56,94,0
1,44,94,100
1,51,94,0
1,56,94,0
1,44,94,100
1,51,94,0
1,56,94,0
1,44,94,100
1,51,94,0
1,56,94,0
1,46,116,100
1,53,116,0
1,58,116,0
1,46,94,4
1,53,94,0
1,58,94,0
1,46,94,100
1,53,94,0
1,58,94,0
1,46,116,100
1,53,116,0
1,58,116,0
1,46,94,4
1,53,94,0
1,58,94,0
1,46,94,100
1,53,94,0
1,58,94,0
1,46,94,100
1,53,94,0
1,58,94,0
1,46,116,100
1,53,116,0
1,58,116,0
1,46,94,4
1,53,94,0
1,58,94,0
1,51,94,100
1,58,94,0
1,63,94,0
1,51,94,4
1,58,94,0
1,63,94,0
1,51,116,100
1,58,116,0
1,63,116,0
1,51,94,4
1,58,94,0
1,63,94,0
1,51,94,100
1,58,94,0
1,63,94,0
1,51,94,100
1,58,94,0
1,63,94,0
1,51,94,100
1,58,94,0
1,63,94,0
1,51,116,100
1,58,116,0
1,63,116,0
1,51,94,4
1,58,94,0
1,63,94,0
1,51,94,100
1,58,94,0
1,63,94,0
1,51,116,100
1,58,116,0
1,63,116,0
1,67,116,0
1,51,94,4
1,58,94,0
1,63,94,0
1,51,94,100
1,58,94,0
1,63,94,0
1,51,116,100
1,58,116,0
1,63,116,0
1,67,116,0
1,51,116,4
1,58,116,0
1,63,116,0
1,67,116,0
1,51,94,4
1,58,94,0
1,63,94,0
1,44,103,100
1,51,103,0
1,56,103,0
1,44,103,4
1,51,103,0
1,56,103,0
1,44,103,100
1,51,103,0
1,56,103,0
1,44,103,100
1,51,103,0
1,56,103,0
1,44,103,100
1,51,103,0
1,56,103,0
1,44,103,100
1,51,103,0
1,56,103,0
1,44,103,4
1,51,103,0
1,56,103,0
1,46,103,100
1,53,103,0
1,58,103,0
1,46,103,4
1,53,103,0
1,58,103,0
1,46,103,100
1,53,103,0
1,58,103,0
1,46,103,100
1,53,103,0
1,58,103,0
1,46,103,4
1,53,103,0
1,58,103,0
1,46,103,100
1,53,103,0
1,58,103,0
1,46,103,100
1,53,103,0
1,58,103,0
1,46,103,100
1,53,103,0
1,58,103,0
1,46,103,4
1,53,103,0
1,58,103,0
1,63,112,0
1,58,112,0
1,51,112,0
1,61,112,4
1,56,112,0
1,49,112,0
1,49,112,4
1,56,112,0
1,61,112,0
1,48,112,4
1,55,112,0
1,60,112,0
1,48,112,4
1,55,112,0
1,60,112,0
1,48,112,4
1,55,112,0
1,60,112,0
1,48,112,4
1,55,112,0
1,60,112,0
1,48,112,4
1,55,112,0
1,60,112,0
1,48,112,4
1,55,112,0
1,60,112,0
1,48,112,4
1,55,112,0
1,60,112,0
1,48,112,4
1,55,112,0
1,60,112,0
1,44,112,4
1,51,112,0
1,56,112,0
1,44,112,4
1,51,112,0
1,56,112,0
1,44,112,4
1,51,112,0
1,56,112,0
1,44,112,4
1,51,112,0
1,56,112,0
1,44,112,4
1,51,112,0
1,56,112,0
1,44,112,4
1,51,112,0
1,56,112,0
1,46,112,4
1,53,112,0
1,58,112,0
1,46,112,4
1,53,112,0
1,58,112,0
1,46,112,4
1,53,112,0
1,58,112,0
1,46,112,4
1,53,112,0
1,58,112,0
1,46,112,4
1,53,112,0
1,58,112,0
1,46,112,4
1,53,112,0
1,58,112,0
1,46,112,4
1,53,112,0
1,58,112,0
1,46,112,4
1,53,112,0
1,58,112,0
1,51,112,0
1,58,112,0
1,63,112,0
1,51,94,4
1,58,94,0
1,63,94,0
1,46,112,148
1,53,112,0
1,58,112,0
1,46,112,4
1,53,112,0
1,58,112,0
1,46,94,4
1,53,94,0
1,58,94,0
1,48,112,148
1,55,112,0
1,60,112,0
1,48,112,4
1,55,112,0
1,60,112,0
1,63,112,0
1,48,94,4
1,55,94,0
1,60,94,0
1,46,112,148
1,53,112,0
1,58,112,0
1,46,112,4
1,53,112,0
1,58,112,0
1,46,94,4
1,53,94,0
1,58,94,0
1,46,112,148
1,53,112,0
1,58,112,0
1,51,112,4
1,58,112,0
1,63,112,0
1,51,94,4
1,58,94,0
1,63,94,0
1,46,112,148
1,53,112,0
1,58,112,0
1,46,112,4
1,53,112,0
1,58,112,0
1,46,94,4
1,53,94,0
1,58,94,0
1,48,112,148
1,55,112,0
1,60,112,0
1,48,112,4
1,55,112,0
1,60,112,0
1,63,112,0
1,48,94,4
1,55,94,0
1,60,94,0
1,46,112,148
1,53,112,0
1,58,112,0
1,46,112,4
1,53,112,0
1,58,112,0
1,46,94,4
1,53,94,0
1,58,94,0
1,46,112,148
1,53,112,0
1,58,112,0
1,39,112,0
1,46,112,0
1,51,112,0
1,39,112,4
1,46,112,0
1,51,112,0
1,39,112,4
1,46,112,0
1,51,112,0
1,39,112,4
1,46,112,0
1,51,112,0
1,39,112,4
1,46,112,0
1,51,112,0
1,46,112,4
1,53,112,0
1,58,112,0
1,46,112,4
1,53,112,0
1,58,112,0
1,46,112,4
1,53,112,0
1,58,112,0
1,46,112,4
1,53,112,0
1,58,112,0
1,46,112,4
1,53,112,0
1,58,112,0
1,46,112,4
1,53,112,0
1,58,112,0
1,48,112,4
1,55,112,0
1,60,112,0
1,48,112,4
1,55,112,0
1,60,112,0
1,48,112,4
1,55,112,0
1,60,112,0
1,48,112,4
1,55,112,0
1,60,112,0
1,48,112,4
1,55,112,0
1,60,112,0
1,48,112,4
1,55,112,0
1,60,112,0
1,43,112,4
1,50,112,0
1,55,112,0
1,43,112,4
1,50,112,0
1,55,112,0
1,43,112,4
1,50,112,0
1,55,112,0
1,43,112,4
1,50,112,0
1,55,112,0
1,43,112,4
1,50,112,0
1,55,112,0
1,43,112,4
1,50,112,0
1,55,112,0
1,44,112,0
1,51,112,36
1,56,112,48
1,58,112,48
1,44,112,4
1,51,112,0
1,56,112,0
1,60,112,0
1,60,112,4
1,44,112,0
1,51,112,0
1,56,112,0
1,44,112,4
1,51,112,0
1,56,112,0
1,58,112,0
1,46,112,0
1,51,112,0
1,58,112,0
1,46,112,4
1,51,112,0
1,58,112,0
1,46,112,4
1,51,112,0
1,58,112,0
1,51,112,0
1,58,112,0
1,63,112,0
1,46,112,0
1,51,112,0
1,58,112,0
1,46,112,4
1,51,112,0
1,58,112,0
1,46,112,4
1,51,112,0
1,58,112,0
1,46,112,4
1,53,112,0
1,58,112,0
1,46,112,4
1,53,112,0
1,58,112,0
1,46,112,4
1,53,112,0
1,58,112,0
1,46,112,4
1,53,112,0
1,58,112,0
1,46,112,4
1,53,112,0
1,58,112,0
1,46,112,4
1,53,112,0
1,58,112,0
1,46,112,4
1,53,112,0
1,58,112,0
1,46,112,4
1,53,112,0
1,58,112,0
1,46,112,4
1,53,112,0
1,58,112,0
1,46,112,4
1,53,112,0
1,58,112,0
1,46,112,4
1,53,112,0
1,58,112,0
1,46,112,4
1,53,112,0
1,58,112,0
1,46,112,4
1,53,112,0
1,58,112,0
1,39,112,4
1,46,112,0
1,51,112,0
1,51,112,4
1,58,112,0
1,63,112,0
1,39,112,4
1,46,112,0
1,51,112,0
1,39,112,4
1,46,112,0
1,51,112,0
1,39,112,4
1,46,112,0
1,51,112,0
1,46,112,4
1,53,112,0
1,58,112,0
1,46,112,4
1,53,112,0
1,58,112,0
1,46,112,4
1,53,112,0
1,58,112,0
1,46,112,4
1,53,112,0
1,58,112,0
1,46,112,4
1,53,112,0
1,58,112,0
1,46,112,4
1,53,112,0
1,58,112,0
1,48,112,4
1,55,112,0
1,60,112,0
1,48,112,4
1,55,112,0
1,60,112,0
1,48,112,4
1,55,112,0
1,60,112,0
1,48,112,4
1,55,112,0
1,60,112,0
1,48,112,4
1,55,112,0
1,60,112,0
1,43,112,4
1,50,112,0
1,55,112,0
1,43,112,4
1,50,112,0
1,55,112,0
1,43,112,4
1,50,112,0
1,55,112,0
1,43,112,4
1,50,112,0
1,55,112,0
1,43,112,4
1,50,112,0
1,55,112,0
1,43,112,4
1,50,112,0
1,55,112,0
1,44,112,0
1,51,112,36
