track,note,velocity,time
1,63,64,1136
1,39,68,0
1,67,68,0
1,58,64,88
1,67,91,4
1,70,94,96
1,51,99,96
1,79,99,96
1,75,103,96
1,80,91,4
1,72,90,0
1,39,86,0
1,75,86,4
1,72,109,4
1,51,113,4
1,80,103,4
1,75,103,4
1,72,85,16
1,70,68,4
1,39,85,0
1,65,70,0
1,74,93,92
1,70,84,4
1,77,112,4
1,65,85,0
1,51,99,100
1,74,112,4
1,70,107,4
1,68,80,4
1,39,85,0
1,60,80,0
1,63,86,96
1,60,79,4
1,72,99,4
1,60,92,0
1,51,109,100
1,68,96,4
1,60,85,4
1,51,58,0
1,63,68,0
1,67,73,0
1,58,44,188
1,63,87,4
1,67,92,0
1,58,74,4
1,63,77,4
1,67,83,4
1,44,56,16
1,67,65,0
1,60,78,0
1,51,44,0
1,56,65,96
1,60,84,4
1,60,110,4
1,67,110,0
1,51,73,4
1,65,106,96
1,63,111,96
1,62,85,0
1,58,73,0
1,65,82,0
1,50,72,0
1,58,56,44
1,65,85,4
1,62,92,0
1,58,68,156
1,62,85,4
1,65,92,4
1,67,78,8
1,43,74,0
1,62,93,0
1,58,52,188
1,67,93,4
1,62,91,0
1,55,61,0
1,65,107,264
1,62,79,28
1,63,78,4
1,48,74,0
1,55,77,0
1,63,97,4
1,67,77,100
1,72,107,96
1,67,85,96
1,63,86,96
1,46,85,28
1,58,68,0
1,60,92,0
1,63,91,12
1,67,95,92
1,72,106,100
1,67,80,164
1,63,79,96
1,60,85,16
1,57,66,0
1,45,68,0
1,63,85,84
1,67,93,80
1,72,116,96
1,67,76,148
1,63,69,96
1,44,82,12
1,60,71,20
1,56,65,4
1,63,79,16
1,65,98,100
1,60,92,0
1,63,80,164
1,60,64,4
1,46,78,12
1,63,69,0
1,58,77,0
1,58,93,4
1,63,73,4
1,67,103,4
1,63,73,0
1,58,62,4
1,63,85,4
1,58,86,4
1,46,78,4
1,65,85,4
1,62,92,0
1,58,62,88
1,62,85,96
1,65,112,4
1,62,99,4
1,58,82,4
1,47,72,8
1,67,78,0
1,62,76,0
1,59,65,96
1,62,91,4
1,67,110,4
1,62,87,164
1,59,88,96
1,62,85,32
1,63,80,0
1,55,85,0
1,48,84,0
1,63,97,4
1,67,85,96
1,72,106,96
1,67,78,4
1,63,85,4
1,39,75,60
1,63,68,0
1,67,79,0
1,55,74,192
1,63,93,4
1,67,92,0
1,51,65,96
1,55,70,4
1,58,97,96
1,63,96,4
1,65,83,4
1,56,75,0
1,41,82,0
1,60,95,0
1,48,79,0
1,56,73,124
1,60,99,4
1,63,94,0
1,65,86,0
1,48,68,4
1,60,67,4
1,65,78,4
1,63,84,0
1,60,85,0
1,68,82,12
1,63,85,0
1,44,87,0
1,60,77,4
1,51,89,0
1,60,72,4
1,68,99,4
1,63,111,0
1,60,90,0
1,51,85,4
1,60,97,4
1,63,113,4
1,46,107,28
1,62,97,0
1,65,81,0
1,58,82,96
1,53,90,96
1,70,101,4
1,65,95,0
1,62,89,4
1,58,103,4
1,46,101,4
1,63,96,16
1,46,91,0
1,58,90,0
1,65,95,0
1,53,110,0
1,63,89,32
1,58,99,0
1,65,91,0
1,53,102,0
1,46,90,0
1,58,61,16
1,65,68,0
1,62,85,0
1,53,85,0
1,46,70,0
1,51,66,4
1,67,71,0
1,63,72,0
1,58,45,188
1,63,87,4
1,67,92,0
1,51,74,4
1,58,80,4
1,63,83,4
1,67,78,4
1,67,70,0
1,60,82,4
1,51,57,0
1,44,71,0
1,56,76,188
1,67,104,4
1,60,100,0
1,51,75,4
1,65,104,92
1,63,113,100
1,65,79,4
1,62,85,0
1,50,69,0
1,58,56,92
1,62,78,92
1,65,92,4
1,58,84,0
1,50,73,4
1,58,86,4
1,62,98,4
1,65,95,4
1,58,94,0
1,67,93,0
1,43,84,0
1,58,68,84
1,67,92,4
1,62,103,0
1,55,98,100
1,65,109,192
1,63,79,36
1,62,82,0
1,55,92,0
1,48,92,0
1,63,99,4
1,67,85,96
1,72,127,96
1,48,85,4
1,67,95,4
1,63,96,4
1,58,75,12
1,60,93,0
1,46,87,0
1,63,94,96
1,67,85,96
1,72,127,96
1,58,58,4
1,67,99,4
1,63,109,4
1,45,78,28
1,60,90,0
1,57,70,0
1,63,79,88
1,67,104,96
1,72,127,96
1,57,68,4
1,67,92,4
1,63,94,4
1,44,86,36
1,56,96,0
1,60,74,16
1,63,79,92
1,65,102,4
1,60,96,0
1,56,67,48
1,63,91,96
1,60,83,4
1,67,75,20
1,63,68,0
1,46,79,0
1,58,62,96
1,63,79,4
1,67,93,4
1,58,93,0
1,46,82,4
1,63,111,4
1,58,96,4
1,46,82,20
1,65,67,0
1,62,76,0
1,58,68,0
1,62,82,96
1,58,97,4
1,65,98,0
1,46,84,4
1,62,106,4
1,58,113,4
1,47,80,20
1,67,77,0
1,62,80,0
1,59,71,92
1,62,85,88
1,67,107,4
1,59,106,0
1,62,102,152
1,59,86,4
1,48,83,20
1,63,72,0
1,62,66,0
1,55,95,0
1,63,97,48
1,67,92,96
1,72,127,92
1,48,76,4
1,67,83,4
1,63,90,4
1,51,61,0
1,63,73,0
1,67,79,4
1,58,68,0
1,58,54,4
1,63,90,4
1,67,87,0
1,58,66,0
1,51,76,4
1,58,99,4
1,63,127,4
1,51,73,4
1,65,87,0
1,56,86,0
1,60,102,0
1,53,86,0
1,56,75,36
1,60,80,4
1,60,92,4
1,63,73,0
1,56,99,0
1,65,88,0
1,56,93,0
1,65,38,0
1,60,60,4
1,63,97,4
1,65,106,0
1,60,106,0
1,68,80,0
1,63,79,0
1,44,97,0
1,60,78,4
1,60,62,4
1,68,94,4
1,63,96,0
1,60,85,0
1,56,96,96
1,60,68,4
1,63,73,4
1,68,79,4
1,58,79,0
1,63,89,4
1,67,96,0
1,55,67,16
1,51,82,92
1,63,105,4
1,67,106,0
1,58,79,4
1,55,74,4
1,51,93,4
1,58,79,4
1,67,116,0
1,63,116,0
1,55,79,4
1,68,119,4
1,63,127,0
1,58,96,0
1,56,85,92
1,51,90,100
1,67,110,0
1,63,119,0
1,58,111,0
1,55,90,96
1,51,111,4
1,65,104,0
1,63,94,0
1,58,122,4
1,63,119,0
1,67,112,0
1,62,86,44
1,50,77,0
1,58,77,0
1,53,63,192
1,58,96,4
1,62,110,0
1,50,82,4
1,53,77,4
1,58,94,4
1,62,106,4
1,48,82,96
1,60,92,0
1,63,79,0
1,63,84,0
1,67,92,0
1,60,86,4
1,48,73,4
1,55,58,96
1,63,83,4
1,60,95,0
1,63,73,4
1,56,70,0
1,48,72,0
1,65,81,0
1,41,79,0
1,60,88,0
1,56,71,4
1,65,81,0
1,60,95,0
1,56,91,4
1,53,88,96
1,56,97,4
1,60,80,4
1,65,88,4
1,44,79,4
1,51,84,0
1,63,84,0
1,60,92,0
1,56,86,0
1,56,47,76
1,63,83,4
1,56,93,0
1,60,96,0
1,51,74,4
1,56,60,4
1,63,72,4
1,60,80,0
1,50,82,8
1,62,89,0
1,58,73,0
1,53,76,192
1,62,122,4
1,50,84,4
1,53,80,4
1,58,83,4
1,62,100,4
1,48,93,0
1,63,119,0
1,55,74,100
1,60,74,96
1,67,90,4
1,63,83,0
1,60,86,0
1,48,68,4
1,55,50,4
1,67,89,4
1,55,76,0
1,60,85,0
1,63,79,0
1,56,84,4
1,41,80,0
1,48,77,0
1,65,92,0
1,60,89,0
1,63,78,0
1,56,64,88
1,56,84,4
1,60,96,0
1,63,89,0
1,65,91,0
1,48,76,4
1,56,65,4
1,60,91,4
1,65,99,4
1,51,80,4
1,44,97,0
1,63,105,0
1,56,97,0
1,56,73,108
1,63,111,4
1,56,85,0
1,60,110,0
1,51,90,4
1,56,99,4
1,60,81,4
1,63,89,4
1,67,107,4
1,48,98,0
1,55,85,92
1,63,80,100
1,67,116,4
1,48,82,4
1,55,80,4
1,63,127,4
1,46,105,4
1,67,106,0
1,58,77,92
1,63,79,100
1,67,102,4
1,58,101,0
1,58,79,4
1,63,99,4
1,67,92,4
1,63,94,0
1,67,96,0
1,57,112,0
1,45,76,4
1,57,76,120
1,63,91,0
1,67,88,0
1,57,58,4
1,67,84,4
1,63,86,0
1,57,83,0
1,44,65,4
1,63,79,0
1,56,80,0
1,65,84,0
1,60,88,0
1,43,68,16
1,58,59,0
1,55,77,0
1,63,60,0
1,63,93,4
1,55,60,4
1,58,61,4
1,63,72,4
1,44,69,4
1,51,76,0
1,56,72,0
1,65,73,0
1,63,75,0
1,60,88,0
1,56,65,4
1,56,85,4
1,63,85,0
1,60,91,0
1,56,57,4
1,56,63,4
1,41,63,0
1,48,61,0
1,53,73,0
1,60,82,0
1,53,69,132
1,60,92,4
1,63,96,0
1,56,91,0
1,53,84,0
1,53,29,4
1,48,72,0
1,62,74,192
1,58,66,0
1,46,68,0
1,53,53,80
1,58,59,4
1,62,107,4
1,53,97,0
1,46,87,4
1,53,81,4
1,58,76,4
1,53,63,4
1,62,95,0
1,46,76,4
1,63,103,4
1,58,90,0
1,46,99,0
1,53,97,0
1,63,111,4
1,58,103,0
1,53,103,0
1,46,91,0
1,46,59,4
1,62,78,0
1,58,70,0
1,53,73,0
1,63,65,0
1,58,60,0
1,67,74,0
1,39,79,0
1,67,78,4
1,70,105,96
1,51,107,92
1,79,92,96
1,75,89,96
1,80,86,4
1,39,85,0
1,72,82,0
1,75,84,4
1,72,97,4
1,51,122,4
1,80,103,4
1,75,116,4
1,72,88,8
1,70,74,0
1,39,93,4
1,65,78,0
1,74,88,92
1,70,80,4
1,70,89,4
1,77,114,0
1,51,122,96
1,74,109,4
1,70,97,4
1,68,87,16
1,60,85,0
1,39,91,0
1,63,86,96
1,60,65,4
1,72,78,4
1,60,70,0
1,51,116,96
1,68,111,4
1,63,79,4
1,63,62,52
1,51,66,0
1,67,66,0
1,58,62,92
1,63,74,4
1,58,79,4
1,67,100,0
1,51,83,4
1,63,86,4
1,58,79,4
1,44,70,8
1,60,82,0
1,67,78,0
1,56,68,96
1,60,77,4
1,67,104,4
1,60,103,0
1,51,97,96
1,65,107,96
1,63,99,96
1,62,82,16
1,65,74,0
1,50,80,0
1,58,62,92
1,62,65,4
1,58,87,4
1,65,98,0
1,50,85,4
1,58,61,4
1,62,89,4
1,67,90,0
1,43,76,0
1,58,83,0
1,58,40,24
1,62,77,4
1,58,70,4
1,67,99,4
1,58,101,0
1,50,82,96
1,65,98,192
1,50,78,4
1,55,89,0
1,48,93,0
1,63,73,4
1,62,73,0
1,63,79,4
1,67,81,96
1,72,122,96
1,48,84,4
1,67,88,4
1,63,91,4
1,60,88,16
1,46,72,0
1,63,83,80
1,67,88,96
1,72,124,96
1,58,76,36
1,67,91,100
1,63,86,84
1,60,82,36
1,45,78,0
1,63,87,76
1,67,92,96
1,72,118,96
1,57,81,28
1,67,87,100
1,63,79,76
1,44,76,20
1,60,72,96
1,56,65,0
1,63,64,48
1,65,96,80
1,60,96,0
1,56,78,32
1,63,87,96
1,60,83,4
1,56,79,4
1,67,76,32
1,63,68,0
1,46,75,0
1,58,68,92
1,63,79,88
1,58,103,4
1,67,100,0
1,46,91,0
1,63,90,4
1,58,87,100
1,46,55,4
1,65,80,0
1,62,98,4
1,46,87,0
1,58,70,8
1,62,82,100
1,65,100,4
1,58,99,0
1,46,93,28
1,62,93,96
1,58,97,4
1,46,79,4
1,67,88,24
1,62,91,0
1,47,86,0
1,59,78,96
1,62,92,96
1,59,103,4
1,67,107,0
1,47,96,16
1,62,98,16
1,59,85,96
1,47,73,4
1,63,86,20
1,62,85,0
1,55,85,0
1,48,92,0
1,63,96,4
1,67,91,96
1,72,127,92
1,48,78,4
1,67,78,4
1,63,76,4
1,63,86,0
1,51,81,4
1,67,77,0
1,58,60,0
1,63,97,0
1,67,100,4
1,51,91,4
1,58,90,4
1,63,90,4
1,63,78,4
1,56,89,0
1,60,100,0
1,65,92,0
1,53,91,0
1,56,72,40
1,63,83,0
1,60,98,4
1,56,90,0
1,65,92,0
1,53,92,4
1,63,91,4
1,60,98,0
1,65,92,0
1,68,79,4
1,51,85,0
1,63,83,0
1,44,84,0
1,60,81,0
1,68,97,4
1,60,96,0
1,63,103,0
1,51,72,4
1,60,86,4
1,63,85,4
1,62,93,20
1,46,101,4
1,65,83,0
1,58,79,56
1,53,88,96
1,70,101,96
1,65,92,0
1,62,100,4
1,58,107,4
1,58,89,8
1,65,98,0
1,46,109,0
1,63,91,0
1,63,103,4
1,65,102,0
1,58,103,0
1,46,93,0
1,62,98,4
1,58,86,0
1,53,92,0
1,46,94,0
1,63,73,4
1,51,72,0
1,58,66,0
1,67,74,0
1,67,106,4
1,51,85,4
1,58,79,4
1,63,66,4
1,67,88,4
1,67,55,16
1,60,97,0
1,44,74,0
1,63,76,100
1,51,76,188
1,80,94,100
1,68,90,0
1,79,95,4
1,67,74,0
1,77,85,96
1,65,67,0
1,75,94,0
1,63,78,4
1,77,102,4
1,50,87,0
1,65,73,0
1,50,70,4
1,58,79,0
1,65,85,4
1,53,74,188
1,58,96,4
1,65,97,4
1,67,106,0
1,43,82,4
1,58,79,92
1,62,78,96
1,55,97,100
1,79,102,4
1,67,86,0
1,77,95,96
1,65,89,0
1,75,107,92
1,63,101,4
1,74,95,4
1,62,91,0
1,63,71,4
1,75,105,0
1,48,82,0
1,48,85,4
1,72,127,92
1,55,82,100
1,67,87,96
1,63,89,4
1,60,90,4
1,46,87,0
1,63,84,0
1,67,89,92
1,72,126,100
1,58,82,20
1,67,88,100
1,63,85,88
1,45,72,20
1,60,77,0
1,63,79,80
1,67,90,80
1,72,127,96
1,57,89,92
1,67,83,4
1,63,78,4
1,44,73,28
1,56,70,92
1,60,64,0
1,63,70,76
1,65,112,4
1,60,110,0
1,56,97,40
1,63,90,96
1,60,88,4
1,58,91,4
1,63,97,0
1,55,70,96
1,58,68,4
1,63,93,4
1,58,89,0
1,55,92,0
1,55,84,4
1,58,94,4
1,63,125,4
1,46,99,96
1,62,97,0
1,65,95,0
1,58,70,0
1,62,82,16
1,58,93,4
1,65,104,0
1,58,45,4
1,62,96,4
1,46,86,4
1,65,102,0
1,62,104,4
1,67,98,0
1,47,92,0
1,59,82,88
1,62,78,84
1,59,92,4
1,67,103,0
1,62,110,0
1,47,87,4
1,59,74,4
1,62,97,0
1,67,83,4
1,47,83,4
1,48,92,48
1,63,73,0
1,67,78,0
1,62,77,0
1,67,71,4
1,72,124,92
1,48,64,4
1,67,85,4
1,63,94,4
1,51,68,44
1,63,78,0
1,58,66,0
1,67,74,0
1,67,103,4
1,58,91,0
1,51,97,4
1,58,109,4
1,63,101,4
1,56,89,0
1,65,89,0
1,53,89,0
1,60,95,4
1,63,77,0
1,56,66,32
1,60,49,4
1,56,111,4
1,60,106,0
1,63,90,0
1,65,102,0
1,53,99,4
1,56,97,4
1,60,86,4
1,65,92,4
1,63,105,4
1,56,105,0
1,60,109,0
1,51,94,0
1,44,93,0
1,56,71,76
1,63,105,4
1,60,110,0
1,56,107,0
1,56,94,4
1,60,73,4
1,63,70,4
1,63,87,12
1,67,99,0
1,51,96,0
1,55,77,92
1,58,101,100
1,67,100,4
1,63,105,0
1,55,65,4
1,63,82,4
1,67,83,0
1,58,58,4
1,68,109,0
1,63,111,0
1,51,103,4
1,58,97,188
1,67,120,0
1,63,122,0
1,51,116,4
1,55,82,180
1,65,95,0
1,58,99,12
1,63,94,4
1,50,79,8
1,65,87,0
1,58,79,0
1,62,92,0
1,62,99,4
1,65,88,0
1,58,79,0
1,58,89,64
1,62,89,4
1,48,89,0
1,67,88,0
1,60,92,0
1,63,93,0
1,60,50,92
1,60,107,4
1,63,103,0
1,55,84,192
1,48,98,4
1,63,109,4
1,60,102,0
1,53,95,4
1,63,85,0
1,65,102,0
1,60,102,0
1,56,109,0
1,56,82,4
1,60,92,0
1,65,90,0
1,56,68,4
1,53,70,4
1,65,97,4
1,63,93,4
1,44,82,0
1,56,109,0
1,51,82,84
