track,note,velocity,time
1,77,96,4560
1,77,0,59
1,75,96,1
1,75,0,59
1,73,96,1
1,73,0,59
1,75,96,1
1,75,0,119
1,72,96,1
1,72,0,40
1,72,96,20
1,72,0,40
1,72,96,20
1,72,0,119
1,73,96,1
1,73,0,59
1,75,96,1
1,75,0,59
1,73,96,1
1,73,0,40
1,73,96,20
1,73,0,160
1,73,96,80
1,73,0,59
1,72,96,1
1,72,0,59
1,70,96,1
1,70,0,59
1,72,96,1
1,72,0,119
1,68,96,1
1,68,0,179
1,68,96,121
1,68,0,40
1,68,96,20
1,68,0,59
1,70,96,1
1,70,0,119
1,70,96,121
1,70,0,40
1,70,96,20
1,70,0,119
1,77,96,1
1,77,0,119
1,75,96,1
1,75,0,119
1,73,96,1
1,73,0,80
1,73,96,40
1,73,0,119
1,75,96,1
1,75,0,179
1,72,96,1
1,72,0,179
1,68,96,841
1,68,0,59
1,77,96,1
1,77,0,59
1,75,96,1
1,75,0,59
1,73,96,1
1,73,0,59
1,75,96,1
1,75,0,119
1,72,96,1
1,72,0,80
1,72,96,40
1,72,0,119
1,73,96,1
1,73,0,59
1,75,96,1
1,75,0,59
1,73,96,1
1,73,0,40
1,73,96,20
1,73,0,160
1,73,96,80
1,73,0,59
1,72,96,1
1,72,0,59
1,70,96,1
1,70,0,59
1,72,96,1
1,72,0,119
1,68,96,1
1,68,0,179
1,68,96,61
1,68,0,40
1,68,96,20
1,68,0,40
1,68,96,20
1,68,0,59
1,70,96,1
1,70,0,80
1,70,96,40
1,70,0,80
1,70,96,40
1,70,0,40
1,70,96,20
1,70,0,119
1,77,96,1
1,77,0,119
1,75,96,1
1,75,0,119
1,73,96,1
1,73,0,80
1,73,96,40
1,73,0,119
1,75,96,1
1,75,0,179
1,72,96,1
1,72,0,179
1,68,96,541
1,68,0,59
1,65,96,1
1,65,0,59
1,66,96,1
1,66,0,119
1,66,96,61
1,66,0,59
1,73,96,1
1,73,0,40
1,73,96,20
1,73,0,119
1,72,96,1
1,72,0,119
1,70,96,1
1,70,0,59
1,68,96,1
1,68,0,40
1,68,96,20
1,68,0,80
1,68,96,40
1,68,0,119
1,65,96,1
1,65,0,59
1,66,96,1
1,66,0,80
1,66,96,40
1,66,0,119
1,73,96,1
1,73,0,40
1,73,96,20
1,73,0,119
1,70,96,1
1,70,0,119
1,72,96,1
1,72,0,239
1,68,96,61
1,68,0,59
1,65,96,1
1,65,0,59
1,66,96,1
1,66,0,179
1,73,96,61
1,73,0,40
1,73,96,20
1,73,0,119
1,72,96,1
1,72,0,119
1,70,96,1
1,70,0,59
1,68,96,1
1,68,0,40
1,68,96,20
1,68,0,80
1,68,96,40
1,68,0,119
1,65,96,1
1,65,0,59
1,66,96,1
1,66,0,80
1,66,96,40
1,66,0,119
1,73,96,1
1,73,0,40
1,73,96,20
1,73,0,119
1,70,96,1
1,70,0,119
1,72,96,1
1,72,0,359
1,72,96,121
1,72,0,40
1,72,96,20
1,72,0,40
1,72,96,20
1,72,0,40
1,72,96,20
1,72,0,59
1,73,96,1
1,73,0,59
1,75,96,1
1,75,0,59
1,73,96,1
1,73,0,40
1,73,96,20
1,73,0,239
1,72,96,301
1,72,0,40
1,72,96,20
1,72,0,40
1,72,96,20
1,72,0,40
1,72,96,20
1,72,0,59
1,73,96,1
1,73,0,59
1,75,96,1
1,75,0,59
1,73,96,1
1,73,96,60
1,73,0,20
1,73,96,100
1,73,0,119
1,73,0,60
1,72,96,241
1,72,0,40
1,72,96,20
1,72,0,40
1,72,96,20
1,72,0,40
1,72,96,20
1,72,0,59
1,73,96,1
1,73,0,59
1,75,96,1
1,75,0,59
1,73,96,1
1,73,0,40
1,77,96,20
1,73,96,0
1,73,0,119
1,77,0,0
1,75,96,1
1,70,96,0
1,70,0,119
1,75,0,0
1,73,96,1
1,68,96,0
1,68,0,179
1,73,0,0
1,72,96,121
1,72,0,40
1,72,96,20
1,72,0,40
1,72,96,20
1,72,0,40
1,72,96,20
1,72,0,59
1,73,96,1
1,73,0,59
1,75,96,1
1,75,0,59
1,73,96,1
1,73,96,60
1,73,0,20
1,73,96,100
1,73,0,119
1,73,0,60
1,77,96,901
1,77,0,59
1,75,96,1
1,75,0,59
1,73,96,1
1,73,0,59
1,75,96,1
1,75,0,119
1,72,96,1
1,72,0,80
1,72,96,40
1,72,0,119
1,73,96,1
1,73,0,59
1,75,96,1
1,75,0,59
1,73,96,1
1,73,0,40
1,73,96,20
1,73,0,179
1,65,96,1
1,65,0,59
1,73,96,1
1,73,0,59
1,72,96,1
1,72,0,59
1,70,96,1
1,70,0,59
1,72,96,1
1,72,0,119
1,68,96,1
1,68,0,179
1,68,96,61
1,68,0,40
1,68,96,20
1,68,0,40
1,68,96,20
1,68,0,59
1,70,96,1
1,70,0,80
1,70,96,40
1,70,0,80
1,70,96,40
1,70,0,40
1,70,96,20
1,70,0,119
1,77,96,1
1,77,0,119
1,75,96,1
1,75,0,119
1,73,96,1
1,73,0,80
1,73,96,40
1,73,0,119
1,75,96,1
1,75,0,179
1,72,96,1
1,72,0,179
1,68,96,841
1,68,0,59
1,77,96,1
1,77,0,59
1,75,96,1
1,75,0,59
1,73,96,1
1,73,0,59
1,75,96,1
1,75,0,119
1,72,96,1
1,72,0,40
1,72,96,20
1,72,0,40
1,72,96,20
1,72,0,119
1,73,96,1
1,73,0,59
1,75,96,1
1,75,0,59
1,73,96,1
1,73,0,40
1,73,96,20
1,73,0,179
1,65,96,1
1,65,0,59
1,73,96,1
1,73,0,59
1,72,96,1
1,72,0,59
1,70,96,1
1,70,0,59
1,72,96,1
1,72,0,119
1,68,96,1
1,68,0,179
1,68,96,61
1,68,0,40
1,68,96,20
1,68,0,40
1,68,96,20
1,68,0,59
1,70,96,1
1,70,0,80
1,70,96,40
1,70,0,80
1,70,96,40
1,70,0,40
1,70,96,20
1,70,0,119
1,77,96,1
1,77,0,119
1,75,96,1
1,75,0,119
1,73,96,1
1,73,0,80
1,73,96,40
1,73,0,119
1,75,96,1
1,75,0,179
1,72,96,1
1,72,0,179
1,68,96,541
1,68,0,59
1,65,96,1
1,65,0,59
1,66,96,1
1,66,0,119
1,66,96,61
1,66,0,59
1,73,96,1
1,73,0,40
1,73,96,20
1,73,0,119
1,72,96,1
1,72,0,119
1,70,96,1
1,70,0,59
1,68,96,1
1,68,0,40
1,68,96,20
1,68,0,80
1,68,96,40
1,68,0,119
1,65,96,1
1,65,0,59
1,66,96,1
1,66,0,80
1,66,96,40
1,66,0,119
1,73,96,1
1,73,0,40
1,73,96,20
1,73,0,119
1,70,96,1
1,70,0,119
1,72,96,1
1,72,0,239
1,68,96,61
1,68,0,59
1,65,96,1
1,65,0,59
1,66,96,1
1,66,0,179
1,73,96,61
1,73,0,40
1,73,96,20
1,73,0,119
1,72,96,1
1,72,0,119
1,70,96,1
1,70,0,59
1,68,96,1
1,68,0,40
1,68,96,20
1,68,0,80
1,68,96,40
1,68,0,119
1,65,96,1
1,65,0,59
1,66,96,1
1,66,0,80
1,66,96,40
1,66,0,119
1,73,96,1
1,73,0,40
1,73,96,20
1,73,0,119
1,70,96,1
1,70,0,119
1,72,96,1
1,72,0,359
1,72,96,121
1,72,0,40
1,72,96,20
1,72,0,40
1,72,96,20
1,72,0,40
1,72,96,20
1,72,0,59
1,73,96,1
1,73,0,59
1,75,96,1
1,75,0,59
1,73,96,1
1,73,0,40
1,73,96,20
1,73,0,239
1,72,96,301
1,72,0,40
1,72,96,20
1,72,0,40
1,72,96,20
1,72,0,40
1,72,96,20
1,72,0,59
1,73,96,1
1,73,0,59
1,75,96,1
1,75,0,59
1,73,96,1
1,73,96,60
1,73,0,20
1,73,96,100
1,73,0,119
1,73,0,60
1,72,96,241
1,72,0,40
1,72,96,20
1,72,0,40
1,72,96,20
1,72,0,40
1,72,96,20
1,72,0,59
1,73,96,1
1,73,0,59
1,75,96,1
1,75,0,59
1,73,96,1
1,73,0,40
1,77,96,20
1,73,96,0
1,73,0,119
1,77,0,0
1,75,96,1
1,70,96,0
1,70,0,119
1,75,0,0
1,73,96,1
1,68,96,0
1,68,0,179
1,73,0,0
1,72,96,121
1,72,0,40
1,72,96,20
1,72,0,40
1,72,96,20
1,72,0,40
1,72,96,20
1,72,0,59
1,73,96,1
1,73,0,59
1,75,96,1
1,75,0,59
1,73,96,1
1,73,96,60
1,73,0,20
1,73,96,100
1,73,0,119
1,73,0,60
1,75,96,1201
1,75,0,40
1,75,96,20
1,75,0,59
1,73,96,1
1,73,0,59
1,77,96,1
1,77,0,119
1,75,96,1
1,75,0,59
1,73,96,1
1,73,0,40
1,73,96,20
1,73,0,59
1,68,96,1
1,68,0,59
1,70,96,1
1,70,0,119
1,72,96,301
1,72,0,40
1,72,96,20
1,72,0,40
1,72,96,20
1,72,0,40
1,72,96,20
1,72,0,59
1,73,96,1
1,73,0,59
1,75,96,1
1,75,0,59
1,73,96,1
1,73,0,80
1,73,96,40
1,73,0,119
1,75,96,361
1,75,0,40
1,75,96,20
1,75,0,59
1,73,96,1
1,73,0,59
1,77,96,1
1,77,0,40
1,77,96,20
1,77,0,59
1,75,96,1
1,75,0,59
1,73,96,1
1,73,0,40
1,73,96,20
1,73,0,59
1,68,96,1
1,68,0,59
1,70,96,1
1,70,0,119
1,72,96,301
1,72,0,40
1,72,96,20
1,72,0,40
1,72,96,20
1,72,0,40
1,72,96,20
1,72,0,59
1,73,96,1
1,73,0,59
1,75,96,1
1,75,0,119
1,73,96,481
1,73,0,239
2,41,64,360
2,42,64,0
2,42,0,20
2,41,0,0
2,61,64,100
2,56,64,0
2,49,64,0
2,49,0,119
2,56,0,0
2,61,0,0
2,61,64,1
2,56,64,0
2,49,64,0
2,49,0,119
2,56,0,0
2,61,0,0
2,61,64,1
2,56,64,0
2,49,64,0
2,49,0,59
2,56,0,0
2,61,0,0
2,61,64,1
2,56,64,0
2,49,64,0
2,49,0,59
2,56,0,0
2,61,0,0
2,61,64,1
2,56,64,0
2,49,64,0
2,49,0,59
2,56,0,0
2,61,0,0
2,56,64,1
2,51,64,0
2,44,64,0
2,44,0,119
2,51,0,0
2,56,0,0
2,56,64,1
2,51,64,0
2,44,64,0
2,44,0,59
2,51,0,0
2,56,0,0
2,56,64,1
2,51,64,0
2,44,64,0
2,44,0,59
2,51,0,0
2,56,0,0
2,56,64,1
2,51,64,0
2,44,64,0
2,44,0,59
2,51,0,0
2,56,0,0
2,56,64,1
2,51,64,0
2,44,64,0
2,44,0,59
2,51,0,0
2,56,0,0
2,56,64,1
2,51,64,0
2,44,64,0
2,44,0,59
2,51,0,0
2,56,0,0
2,56,64,1
2,51,64,0
2,44,64,0
2,44,0,59
2,51,0,0
2,56,0,0
2,56,64,1
2,51,64,0
2,44,64,0
2,44,0,59
2,51,0,0
2,56,0,0
2,54,64,1
2,49,64,0
2,42,64,0
2,42,0,119
2,49,0,0
2,54,0,0
2,38,64,1
2,39,64,0
2,39,0,20
2,38,0,0
2,42,64,10
2,42,0,29
2,53,64,1
2,48,64,0
2,41,64,0
2,41,0,59
2,48,0,0
2,53,0,0
2,53,64,1
2,48,64,0
2,41,64,0
2,41,0,120
2,48,0,0
2,53,0,0
2,54,64,60
2,49,64,0
2,42,64,0
2,42,0,59
2,49,0,0
2,54,0,0
2,54,64,1
2,49,64,0
2,42,64,0
2,42,0,59
2,49,0,0
2,54,0,0
2,53,64,1
2,48,64,0
2,41,64,0
2,41,0,59
2,48,0,0
2,53,0,0
2,53,64,1
2,48,64,0
2,41,64,0
2,41,0,59
2,48,0,0
2,53,0,0
2,54,64,1
2,49,64,0
2,42,64,0
2,42,0,59
2,49,0,0
2,54,0,0
2,54,64,1
2,49,64,0
2,42,64,0
2,42,0,59
2,49,0,0
2,54,0,0
2,56,64,1
2,51,64,0
2,44,64,0
2,44,0,59
2,51,0,0
2,56,0,0
2,56,64,1
2,51,64,0
2,44,64,0
2,44,0,59
2,51,0,0
2,56,0,0
2,56,64,1
2,51,64,0
2,44,64,0
2,44,0,59
2,51,0,0
2,56,0,0
2,61,64,1
2,56,64,0
2,49,64,0
2,49,0,119
2,56,0,0
2,61,0,0
2,61,64,1
2,56,64,0
2,49,64,0
2,49,0,119
2,56,0,0
2,61,0,0
2,61,64,1
2,56,64,0
2,49,64,0
2,49,0,59
2,56,0,0
2,61,0,0
2,61,64,1
2,56,64,0
2,49,64,0
2,49,0,59
2,56,0,0
2,61,0,0
2,61,64,1
2,56,64,0
2,49,64,0
2,49,0,59
2,56,0,0
2,61,0,0
2,56,64,1
2,51,64,0
2,44,64,0
2,44,0,119
2,51,0,0
2,56,0,0
2,56,64,1
2,51,64,0
2,44,64,0
2,44,0,59
2,51,0,0
2,56,0,0
2,56,64,1
2,51,64,0
2,44,64,0
2,44,0,59
2,51,0,0
2,56,0,0
2,56,64,1
2,51,64,0
2,44,64,0
2,44,0,59
2,51,0,0
2,56,0,0
2,56,64,1
2,51,64,0
2,44,64,0
2,44,0,59
2,51,0,0
2,56,0,0
2,56,64,1
2,51,64,0
2,44,64,0
2,44,0,59
2,51,0,0
2,56,0,0
2,56,64,1
2,51,64,0
2,44,64,0
2,44,0,59
2,51,0,0
2,56,0,0
2,56,64,1
2,51,64,0
2,44,64,0
2,44,0,59
2,51,0,0
2,56,0,0
2,54,64,1
2,49,64,0
2,42,64,0
2,42,0,179
2,49,0,0
2,54,0,0
2,53,64,1
2,48,64,0
2,41,64,0
2,41,0,59
2,48,0,0
2,53,0,0
2,53,64,1
2,48,64,0
2,41,64,0
2,41,0,179
2,48,0,0
2,53,0,0
2,54,64,1
2,49,64,0
2,42,64,0
2,42,0,59
2,49,0,0
2,54,0,0
2,54,64,1
2,49,64,0
2,42,64,0
2,42,0,59
2,49,0,0
2,54,0,0
2,53,64,1
2,48,64,0
2,41,64,0
2,41,0,59
2,48,0,0
2,53,0,0
2,53,64,1
2,48,64,0
2,41,64,0
2,41,0,59
2,48,0,0
2,53,0,0
2,54,64,1
2,49,64,0
2,42,64,0
2,42,0,59
2,49,0,0
2,54,0,0
2,54,64,1
2,49,64,0
2,42,64,0
2,42,0,59
2,49,0,0
2,54,0,0
2,56,64,1
2,51,64,0
2,44,64,0
2,44,0,59
2,51,0,0
2,56,0,0
2,56,64,1
2,51,64,0
2,44,64,0
2,44,0,59
2,51,0,0
2,56,0,0
2,56,64,1
2,51,64,0
2,44,64,0
2,44,0,59
2,51,0,0
2,56,0,0
2,61,64,1
2,56,64,0
2,49,64,0
2,49,0,59
2,56,0,0
2,61,0,0
2,61,64,1
2,56,64,0
2,49,64,0
2,49,0,59
2,56,0,0
2,61,0,0
2,61,64,1
2,56,64,0
2,49,64,0
2,49,0,119
2,56,0,0
2,61,0,0
2,61,64,1
2,56,64,0
2,49,64,0
2,49,0,59
2,56,0,0
2,61,0,0
2,61,64,1
2,56,64,0
2,49,64,0
2,49,0,59
2,56,0,0
2,61,0,0
2,61,64,1
2,56,64,0
2,49,64,0
2,49,0,59
2,56,0,0
2,61,0,0
2,56,64,1
2,51,64,0
2,44,64,0
2,44,0,119
2,51,0,0
2,56,0,0
2,56,64,1
2,51,64,0
2,44,64,0
2,44,0,59
2,51,0,0
2,56,0,0
2,56,64,1
2,51,64,0
2,44,64,0
2,44,0,59
2,51,0,0
2,56,0,0
2,56,64,1
2,51,64,0
2,44,64,0
2,44,0,119
2,51,0,0
2,56,0,0
2,56,64,1
2,51,64,0
2,44,64,0
2,44,0,59
2,51,0,0
2,56,0,0
2,56,64,1
2,51,64,0
2,44,64,0
2,44,0,59
2,51,0,0
2,56,0,0
2,56,64,1
2,51,64,0
2,44,64,0
2,44,0,59
2,51,0,0
2,56,0,0
2,58,64,1
2,53,64,0
2,46,64,0
2,46,0,59
2,53,0,0
2,58,0,0
2,58,64,1
2,53,64,0
2,46,64,0
2,46,0,59
2,53,0,0
2,58,0,0
2,58,64,1
2,53,64,0
2,46,64,0
2,46,0,119
