track,note,velocity,time
1,35,127,4608
1,35,0,256
1,35,127,320
1,35,0,256
1,33,127,320
1,33,0,256
1,33,127,320
1,33,0,256
1,32,127,320
1,32,0,256
1,32,127,320
1,32,0,192
1,31,127,384
1,31,0,256
1,31,127,128
1,31,0,192
1,31,127,0
1,31,0,384
1,31,127,0
1,31,0,192
1,35,127,0
1,35,0,256
1,35,127,320
1,35,0,256
1,33,127,320
1,33,0,256
1,33,127,320
1,33,0,256
1,32,127,320
1,32,0,256
1,32,127,320
1,32,0,192
1,31,127,384
1,31,0,256
1,31,127,128
1,31,0,192
1,31,127,0
1,31,0,384
1,31,127,0
1,31,0,192
1,35,127,0
1,35,0,256
1,35,127,320
1,35,0,256
1,33,127,320
1,33,0,256
1,33,127,320
1,33,0,256
1,32,127,320
1,32,0,256
1,32,127,320
1,32,0,192
1,31,127,384
1,31,0,256
1,31,127,128
1,31,0,192
1,31,127,0
1,31,0,384
1,31,127,0
1,31,0,192
1,35,127,0
1,35,0,256
1,35,127,320
1,35,0,256
1,33,127,320
1,33,0,256
1,33,127,320
1,33,0,256
1,32,127,320
1,32,0,256
1,32,127,320
1,32,0,192
1,31,127,384
1,31,0,256
1,31,127,128
1,31,0,192
1,31,127,0
1,31,0,384
1,31,127,0
1,31,0,192
1,35,127,0
1,35,0,256
1,35,127,320
1,35,0,256
1,33,127,320
1,33,0,256
1,33,127,320
1,33,0,256
1,32,127,320
1,32,0,256
1,32,127,320
1,32,0,192
1,31,127,384
1,31,0,256
1,31,127,128
1,31,0,192
1,31,127,0
1,31,0,384
1,31,127,0
1,31,0,192
1,35,127,0
1,35,0,256
1,35,127,320
1,35,0,256
1,33,127,320
1,33,0,256
1,33,127,320
1,33,0,256
1,32,127,320
1,32,0,256
1,32,127,320
1,32,0,192
1,31,127,384
1,31,0,256
1,31,127,128
1,31,0,192
1,31,127,0
1,31,0,384
1,31,127,0
1,31,0,192
1,35,127,0
1,35,0,256
1,35,127,320
1,35,0,256
1,33,127,320
1,33,0,256
1,33,127,320
1,33,0,256
1,32,127,320
1,32,0,256
1,32,127,320
1,32,0,192
1,31,127,384
1,31,0,256
1,31,127,128
1,31,0,192
1,31,127,0
1,31,0,384
1,31,127,0
1,31,0,192
1,35,127,0
1,35,0,256
1,35,127,320
1,35,0,256
1,33,127,320
1,33,0,256
1,33,127,320
1,33,0,256
1,32,127,320
1,32,0,256
1,32,127,320
1,32,0,192
1,31,127,384
1,31,0,256
1,31,127,128
1,31,0,192
1,31,127,0
1,31,0,384
1,31,127,0
1,31,0,192
1,35,127,0
1,35,0,256
1,35,127,320
1,35,0,256
1,33,127,320
1,33,0,256
1,33,127,320
1,33,0,256
1,32,127,320
1,32,0,256
1,32,127,320
1,32,0,192
1,31,127,384
1,31,0,256
1,31,127,128
1,31,0,192
1,31,127,0
1,31,0,384
1,31,127,0
1,31,0,192
1,35,127,0
1,35,0,256
1,35,127,320
1,35,0,256
1,33,127,320
1,33,0,256
1,33,127,320
1,33,0,256
1,32,127,320
1,32,0,256
1,32,127,320
1,32,0,192
1,31,127,384
1,31,0,256
1,31,127,128
1,31,0,192
1,31,127,0
1,31,0,384
1,31,127,0
1,31,0,192
1,35,127,0
1,35,0,256
1,35,127,320
1,35,0,256
1,33,127,320
1,33,0,256
1,33,127,320
1,33,0,256
1,32,127,320
1,32,0,256
1,32,127,320
1,32,0,192
1,31,127,384
1,31,0,256
1,31,127,128
1,31,0,192
1,31,127,0
1,31,0,384
1,31,127,0
1,31,0,192
1,35,127,0
1,35,0,256
1,35,127,320
1,35,0,256
1,33,127,320
1,33,0,256
1,33,127,320
1,33,0,256
1,32,127,320
1,32,0,256
1,32,127,320
1,32,0,192
1,31,127,384
1,31,0,256
1,31,127,128
1,31,0,192
1,31,127,0
1,31,0,384
1,31,127,0
1,31,0,192
1,35,127,0
1,35,0,256
1,35,127,320
1,35,0,256
1,33,127,320
1,33,0,256
1,33,127,320
1,33,0,256
1,32,127,320
1,32,0,256
1,32,127,320
1,32,0,192
1,31,127,384
1,31,0,256
1,31,127,128
1,31,0,192
1,31,127,0
1,31,0,384
1,31,127,0
1,31,0,192
1,35,127,0
1,35,0,256
1,35,127,320
1,35,0,256
1,33,127,320
1,33,0,256
1,33,127,320
1,33,0,256
1,32,127,320
1,32,0,256
1,32,127,320
1,32,0,192
1,31,127,384
1,31,0,256
1,35,127,896
1,35,0,256
1,35,127,320
1,35,0,256
1,33,127,320
1,33,0,256
1,33,127,320
1,33,0,256
1,32,127,320
1,32,0,256
1,32,127,320
1,32,0,192
1,31,127,384
1,31,0,256
1,31,127,128
1,31,0,192
1,31,127,0
1,31,0,384
1,31,127,0
1,31,0,192
1,35,127,0
1,35,0,256
1,35,127,320
1,35,0,256
1,33,127,320
1,33,0,256
1,33,127,320
1,33,0,256
1,32,127,320
1,32,0,256
1,32,127,320
1,32,0,192
1,31,127,384
1,31,0,256
1,31,127,128
1,31,0,192
1,31,127,0
1,31,0,384
1,31,127,0
1,31,0,192
1,35,127,0
1,35,0,256
1,35,127,320
1,35,0,256
1,33,127,320
1,33,0,256
1,33,127,320
1,33,0,256
1,32,127,320
1,32,0,256
1,32,127,320
1,32,0,192
1,31,127,384
1,31,0,256
1,31,127,128
1,31,0,192
1,31,127,0
1,31,0,384
1,31,127,0
1,31,0,192
1,35,127,0
1,35,0,256
1,35,127,320
1,35,0,256
1,33,127,320
1,33,0,256
1,33,127,320
1,33,0,256
1,32,127,320
1,32,0,256
1,32,127,320
1,32,0,192
1,31,127,384
1,31,0,256
1,31,127,128
1,31,0,192
1,31,127,0
1,31,0,384
1,31,127,0
1,31,0,192
1,35,127,0
1,35,0,256
1,35,127,320
1,35,0,256
1,33,127,320
1,33,0,256
1,33,127,320
1,33,0,256
1,32,127,320
1,32,0,256
1,32,127,320
1,32,0,192
1,31,127,384
1,31,0,256
1,31,127,128
1,31,0,192
1,31,127,0
1,31,0,384
1,31,127,0
1,31,0,192
1,35,127,0
1,35,0,256
1,35,127,320
1,35,0,256
1,33,127,320
1,33,0,256
1,33,127,320
1,33,0,256
1,32,127,320
1,32,0,256
1,32,127,320
1,32,0,192
1,31,127,384
1,31,0,256
1,31,127,128
1,31,0,192
1,31,127,0
1,31,0,384
1,31,127,0
1,31,0,192
1,35,127,0
1,35,0,256
1,35,127,320
1,35,0,256
1,33,127,320
1,33,0,256
1,33,127,320
1,33,0,256
1,32,127,320
1,32,0,256
1,32,127,320
1,32,0,192
1,31,127,384
1,31,0,256
1,31,127,128
1,31,0,192
1,31,127,0
1,31,0,384
1,31,127,0
1,31,0,192
1,35,127,0
1,35,0,256
1,35,127,320
1,35,0,256
1,33,127,320
1,33,0,256
1,33,127,320
1,33,0,256
1,32,127,320
1,32,0,256
1,32,127,320
1,32,0,192
1,31,127,384
1,31,0,256
1,31,127,128
1,31,0,192
1,31,127,0
1,31,0,384
1,31,127,0
1,31,0,192
1,35,127,0
1,35,0,256
1,35,127,320
1,35,0,256
1,33,127,320
1,33,0,256
1,33,127,320
1,33,0,256
1,32,127,320
1,32,0,256
1,32,127,320
1,32,0,192
1,31,127,384
1,31,0,256
1,31,127,128
1,31,0,192
1,31,127,0
1,31,0,384
1,31,127,0
1,31,0,192
1,35,127,0
1,35,0,256
1,35,127,320
1,35,0,256
1,33,127,320
1,33,0,256
1,33,127,320
1,33,0,256
1,32,127,320
1,32,0,256
1,32,127,320
1,32,0,192
1,31,127,384
1,31,0,256
1,31,127,128
1,31,0,192
1,31,127,0
1,31,0,384
1,31,127,0
1,31,0,192
1,35,127,0
1,35,0,256
1,35,127,320
1,35,0,256
1,33,127,320
1,33,0,256
1,33,127,320
1,33,0,256
1,32,127,320
1,32,0,256
1,32,127,320
1,32,0,192
1,31,127,384
1,31,0,256
1,31,127,128
1,31,0,192
1,31,127,0
1,31,0,384
1,31,127,0
1,31,0,192
1,35,127,0
1,35,0,256
1,35,127,320
1,35,0,256
1,33,127,320
1,33,0,256
1,33,127,320
1,33,0,256
1,32,127,320
1,32,0,256
1,32,127,320
1,32,0,192
1,31,127,384
1,31,0,256
1,31,127,128
1,31,0,192
1,31,127,0
1,31,0,384
1,31,127,0
1,31,0,192
1,28,127,0
1,28,0,572
1,28,127,4
1,28,0,380
1,28,127,4
1,28,0,572
1,28,127,4
1,28,0,188
1,28,127,4
1,28,0,380
1,28,127,4
1,28,0,188
1,30,127,4
1,30,0,572
1,30,127,4
1,30,0,380
1,30,127,4
1,30,0,572
1,30,127,4
1,30,0,188
1,30,127,4
1,30,0,380
1,30,127,4
1,30,0,188
1,35,127,4
1,35,0,380
1,35,127,4
1,35,0,188
1,35,127,4
1,35,0,380
1,35,127,4
1,35,0,188
1,33,127,4
1,33,0,380
1,33,127,4
1,33,0,188
1,33,127,4
1,33,0,380
1,33,127,4
1,33,0,188
1,32,127,4
1,32,0,380
1,32,127,4
1,32,0,188
1,32,127,4
1,32,0,380
1,32,127,4
1,32,0,188
1,31,127,4
1,31,0,380
1,31,127,4
1,31,0,188
1,31,127,4
1,31,0,380
1,31,127,4
1,31,0,188
1,28,127,4
1,28,0,572
1,28,127,4
1,28,0,380
1,28,127,4
1,28,0,572
1,28,127,4
1,28,0,188
1,28,127,4
1,28,0,380
1,28,127,4
1,28,0,188
1,30,127,4
1,30,0,380
1,30,127,4
1,30,0,188
1,30,127,4
1,30,0,380
1,30,127,4
1,30,0,188
1,30,127,4
1,30,0,380
1,35,127,772
1,35,0,256
1,35,127,320
1,35,0,256
1,33,127,320
1,33,0,256
1,33,127,320
1,33,0,256
1,32,127,320
1,32,0,256
1,32,127,320
1,32,0,192
1,31,127,384
1,31,0,256
1,31,127,128
1,31,0,192
1,31,127,0
1,31,0,384
1,31,127,0
1,31,0,192
1,35,127,0
1,35,0,256
1,35,127,320
1,35,0,256
1,33,127,320
1,33,0,256
1,33,127,320
1,33,0,256
1,32,127,320
1,32,0,256
1,32,127,320
1,32,0,192
1,31,127,384
1,31,0,256
1,31,127,128
1,31,0,192
1,31,127,0
1,31,0,384
1,31,127,0
1,31,0,192
1,35,127,0
1,35,0,256
1,35,127,320
1,35,0,256
1,33,127,320
1,33,0,256
1,33,127,320
1,33,0,256
1,32,127,320
1,32,0,256
1,32,127,320
1,32,0,192
1,31,127,384
1,31,0,256
1,31,127,128
1,31,0,192
1,31,127,0
1,31,0,384
1,31,127,0
1,31,0,192
1,35,127,0
1,35,0,256
1,35,127,320
1,35,0,256
1,33,127,320
1,33,0,256
1,33,127,320
1,33,0,256
1,32,127,320
1,32,0,256
1,32,127,320
1,32,0,192
1,31,127,384
1,31,0,256
1,31,127,128
1,31,0,192
1,31,127,0
1,31,0,384
1,31,127,0
1,31,0,192
1,35,127,0
1,35,0,256
1,35,127,320
1,35,0,256
1,33,127,320
1,33,0,256
1,33,127,320
1,33,0,256
1,32,127,320
1,32,0,256
1,32,127,320
1,32,0,192
1,31,127,384
1,31,0,256
1,31,127,128
1,31,0,192
1,31,127,0
1,31,0,384
1,31,127,0
1,31,0,192
1,35,127,4608
1,35,0,572
1,35,127,4
1,35,0,572
1,38,127,4
1,38,0,572
1,38,127,4
1,38,0,572
1,31,127,4
1,31,0,572
1,31,127,4
1,31,0,572
1,30,127,4
1,30,0,572
1,30,127,4
1,30,0,572
1,35,127,4
1,35,0,572
1,35,127,4
1,35,0,572
1,38,127,4
1,38,0,572
1,38,127,4
1,38,0,572
1,31,127,4
1,31,0,572
1,31,127,4
1,31,0,572
1,30,127,4
1,30,0,572
1,30,127,4
1,30,0,572
1,35,127,4
1,35,0,572
1,35,127,4
1,35,0,572
1,38,127,4
1,38,0,572
1,38,127,4
1,38,0,572
1,31,127,4
1,31,0,572
1,31,127,4
1,31,0,572
1,30,127,4
1,30,0,572
1,30,127,4
1,30,0,572
1,35,127,4
1,35,0,572
1,35,127,4
1,35,0,572
1,38,127,4
1,38,0,572
1,38,127,4
1,38,0,572
1,31,127,4
1,31,0,572
1,31,127,4
1,31,0,572
1,30,127,4
1,30,0,572
1,30,127,4
1,30,0,572
1,35,127,4
1,35,0,572
1,35,127,4
1,35,0,572
1,38,127,4
1,38,0,572
1,38,127,4
1,38,0,572
1,31,127,4
1,31,0,572
1,31,127,4
1,31,0,572
1,30,127,4
1,30,0,572
1,30,127,4
1,30,0,572
1,35,127,4
1,35,0,572
1,35,127,4
1,35,0,572
1,38,127,4
1,38,0,572
1,38,127,4
1,38,0,572
1,31,127,4
1,31,0,572
1,31,127,4
1,31,0,572
1,30,127,4
1,30,0,572
1,30,127,4
1,30,0,572
1,35,127,4
1,35,0,572
1,35,127,4
1,35,0,572
1,38,127,4
1,38,0,572
1,38,127,4
1,38,0,572
1,31,127,4
1,31,0,572
1,31,127,4
1,31,0,572
1,30,127,4
1,30,0,572
1,30,127,4
1,30,0,572
1,35,127,4
1,35,0,572
1,35,127,4
1,35,0,572
1,38,127,4
1,38,0,572
1,38,127,4
1,38,0,572
1,31,127,4
1,31,0,572
1,31,127,4
1,31,0,572
1,30,127,4
1,30,0,572
1,30,127,4
1,30,0,572
1,28,127,4
1,28,0,572
1,28,127,4
1,28,0,380
1,28,127,4
1,28,0,572
1,28,127,4
1,28,0,188
1,28,127,4
1,28,0,380
1,28,127,4
1,28,0,188
1,30,127,4
1,30,0,572
1,30,127,4
1,30,0,380
1,30,127,4
1,30,0,572
1,30,127,4
1,30,0,188
1,30,127,4
1,30,0,380
1,30,127,4
1,30,0,188
1,35,127,4
1,35,0,380
1,35,127,4
1,35,0,188
1,35,127,4
1,35,0,380
1,35,127,4
1,35,0,188
1,33,127,4
1,33,0,380
1,33,127,4
1,33,0,188
1,33,127,4
1,33,0,380
1,33,127,4
1,33,0,188
1,32,127,4
1,32,0,380
1,32,127,4
1,32,0,188
1,32,127,4
1,32,0,380
1,32,127,4
1,32,0,188
1,31,127,4
1,31,0,380
1,31,127,4
1,31,0,188
1,31,127,4
1,31,0,380
1,31,127,4
1,31,0,188
1,28,127,4
1,28,0,572
1,28,127,4
1,28,0,380
1,28,127,4
1,28,0,572
1,28,127,4
1,28,0,188
1,28,127,4
1,28,0,380
1,28,127,4
1,28,0,188
1,30,127,4
1,30,0,380
1,30,127,4
1,30,0,188
1,30,127,4
1,30,0,380
1,30,127,4
1,30,0,188
1,30,127,4
1,30,0,572
1,30,127,4
1,30,0,192
1,30,127,0
1,30,0,384
1,35,127,0
1,35,0,572
1,35,127,4
1,35,0,572
1,38,127,4
1,38,0,572
1,38,127,4
1,38,0,572
1,31,127,4
1,31,0,572
1,31,127,4
1,31,0,572
1,30,127,4
1,30,0,572
1,30,127,4
1,30,0,572
1,35,127,4
1,35,0,572
1,35,127,4
1,35,0,572
1,38,127,4
1,38,0,572
1,38,127,4
1,38,0,572
1,31,127,4
1,31,0,572
1,31,127,4
1,31,0,572
1,30,127,4
1,30,0,572
1,30,127,4
1,30,0,572
1,35,127,4
1,35,0,572
1,35,127,4
1,35,0,572
1,38,127,4
1,38,0,572
1,38,127,4
1,38,0,572
1,31,127,4
1,31,0,572
1,31,127,4
1,31,0,572
1,30,127,4
1,30,0,572
1,30,127,4
1,30,0,572
1,35,127,4
1,35,0,572
1,35,127,4
1,35,0,572
1,38,127,4
1,38,0,572
1,38,127,4
1,38,0,572
1,31,127,4
1,31,0,572
1,31,127,4
1,31,0,572
1,30,127,4
1,30,0,572
1,30,127,4
1,30,0,572
1,35,127,4
1,35,0,572
1,35,127,4
1,35,0,572
1,38,127,4
1,38,0,572
1,38,127,4
1,38,0,572
1,31,127,4
1,31,0,572
1,31,127,4
1,31,0,572
1,30,127,4
1,30,0,572
1,30,127,4
1,30,0,572
1,35,127,4
1,35,0,572
1,35,127,4
1,35,0,572
1,38,127,4
1,38,0,572
1,38,127,4
1,38,0,572
1,31,127,4
1,31,0,572
1,31,127,4
1,31,0,572
1,30,127,4
1,30,0,572
1,30,127,4
1,30,0,572
1,35,127,4
1,35,0,572
