track,note,velocity,time
0,42,127,2
0,42,127,0
0,42,0,9
0,42,0,0
0,42,127,2
0,42,127,0
0,42,0,9
0,42,0,0
0,42,127,2
0,42,127,0
0,42,0,9
0,42,0,0
0,42,127,134
0,42,127,0
0,42,0,9
0,42,0,0
0,31,127,229
0,55,127,0
0,59,127,0
0,62,127,0
0,71,127,0
0,66,127,0
0,31,127,0
0,55,30,0
0,59,30,0
0,62,30,0
0,71,30,0
0,66,30,0
0,36,127,1
0,36,127,0
0,42,127,1
0,42,127,0
0,36,0,9
0,42,0,0
0,36,0,0
0,42,0,0
0,59,0,37
0,59,0,0
0,55,0,1
0,55,0,0
0,66,0,2
0,66,0,0
0,62,0,2
0,62,0,0
0,71,0,5
0,71,0,0
0,31,0,10
0,31,0,0
0,31,127,172
0,59,127,0
0,55,127,0
0,71,127,0
0,62,127,0
0,66,127,0
0,31,127,0
0,59,30,0
0,55,30,0
0,71,30,0
0,62,30,0
0,66,30,0
0,36,127,2
0,42,127,0
0,36,127,0
0,42,127,0
0,36,0,9
0,42,0,0
0,36,0,0
0,42,0,0
0,59,0,20
0,55,0,0
0,59,0,0
0,55,0,0
0,66,0,7
0,66,0,0
0,71,0,2
0,62,0,0
0,71,0,0
0,62,0,0
0,31,0,24
0,31,0,0
0,31,127,176
0,55,127,0
0,59,127,0
0,66,127,0
0,62,127,0
0,71,127,0
0,31,127,0
0,55,30,0
0,59,30,0
0,66,30,0
0,62,30,0
0,71,30,0
0,36,127,2
0,42,127,0
0,36,127,0
0,42,127,0
0,36,0,9
0,42,0,0
0,36,0,0
0,42,0,0
0,62,0,19
0,62,0,0
0,66,0,2
0,66,0,0
0,55,0,3
0,55,0,0
0,59,0,1
0,59,0,0
0,71,0,1
0,71,0,0
0,31,0,35
0,31,0,0
0,31,127,168
0,55,127,0
0,59,127,0
0,66,127,0
0,62,127,0
0,71,127,0
0,31,127,0
0,55,30,0
0,59,30,0
0,66,30,0
0,62,30,0
0,71,30,0
0,36,127,2
0,42,127,0
0,36,127,0
0,42,127,0
0,36,0,9
0,42,0,0
0,36,0,0
0,42,0,0
0,66,0,25
0,66,0,0
0,55,0,1
0,55,0,0
0,59,0,2
0,59,0,0
0,62,0,5
0,62,0,0
0,71,0,2
0,71,0,0
0,31,0,24
0,31,0,0
0,31,127,170
0,62,127,0
0,71,127,0
0,66,127,0
0,55,127,0
0,59,127,0
0,31,127,0
0,62,30,0
0,71,30,0
0,66,30,0
0,55,30,0
0,59,30,0
0,36,127,2
0,42,127,0
0,36,127,0
0,42,127,0
0,36,0,9
0,42,0,0
0,36,0,0
0,42,0,0
0,66,0,23
0,66,0,0
0,55,0,3
0,55,0,0
0,62,0,4
0,59,0,0
0,62,0,0
0,59,0,0
0,71,0,1
0,71,0,0
0,31,0,21
0,31,0,0
0,31,127,177
0,55,127,0
0,59,127,0
0,62,127,0
0,66,127,0
0,71,127,0
0,31,127,0
0,55,30,0
0,59,30,0
0,62,30,0
0,66,30,0
0,71,30,0
0,36,127,2
0,42,127,0
0,36,127,0
0,42,127,0
0,36,0,9
0,42,0,0
0,36,0,0
0,42,0,0
0,55,0,23
0,55,0,0
0,59,0,4
0,59,0,0
0,62,0,2
0,62,0,0
0,66,0,2
0,66,0,0
0,71,0,2
0,71,0,0
0,31,0,30
0,31,0,0
0,31,127,166
0,64,127,0
0,76,127,0
0,31,127,0
0,64,30,0
0,76,30,0
0,36,127,2
0,42,127,0
0,36,127,0
0,42,127,0
0,36,0,9
0,42,0,0
0,36,0,0
0,42,0,0
0,76,0,18
0,76,0,0
0,64,0,4
0,64,0,0
0,31,0,52
0,31,0,0
0,74,127,35
0,62,127,0
0,74,30,0
0,62,30,0
0,48,127,2
0,48,127,0
0,48,0,9
0,48,0,0
0,74,0,22
0,74,0,0
0,62,0,8
0,62,0,0
0,45,127,20
0,45,127,0
0,45,0,10
0,45,0,0
0,31,127,49
0,71,127,0
0,59,127,0
0,31,127,0
0,71,30,0
0,59,30,0
0,36,127,2
0,42,127,0
0,36,127,0
0,42,127,0
0,36,0,9
0,42,0,0
0,36,0,0
0,42,0,0
0,71,0,15
0,71,0,0
0,59,0,10
0,59,0,0
0,31,0,12
0,31,0,0
0,30,127,12
0,60,127,0
0,72,127,0
0,30,127,0
0,60,30,0
0,72,30,0
0,36,127,1
0,36,127,0
0,46,127,1
0,41,127,0
0,46,127,0
0,41,127,0
0,36,0,9
0,46,0,0
0,41,0,0
0,36,0,0
0,46,0,0
0,41,0,0
0,72,0,127
0,72,0,0
0,60,0,2
0,60,0,0
0,29,127,40
0,41,127,0
0,57,127,0
0,60,127,0
0,64,127,0
0,29,127,0
0,41,30,0
0,57,30,0
0,60,30,0
0,64,30,0
0,36,127,2
0,42,127,0
0,36,127,0
0,42,127,0
0,30,0,1
0,30,0,0
0,36,0,8
0,42,0,0
0,36,0,0
0,42,0,0
0,41,0,35
0,41,0,0
0,64,0,3
0,64,0,0
0,60,0,1
0,60,0,0
0,57,0,2
0,57,0,0
0,29,0,22
0,29,0,0
0,29,127,166
0,64,127,0
0,60,127,0
0,57,127,0
0,41,127,0
0,29,127,0
0,64,30,0
0,60,30,0
0,57,30,0
0,41,30,0
0,36,127,2
0,42,127,0
0,36,127,0
0,42,127,0
0,36,0,9
0,42,0,0
0,36,0,0
0,42,0,0
0,41,0,27
0,41,0,0
0,64,0,2
0,60,0,0
0,64,0,0
0,60,0,0
0,57,0,2
0,57,0,0
0,29,0,23
0,29,0,0
0,29,127,175
0,41,127,0
0,60,127,0
0,64,127,0
0,57,127,0
0,29,127,0
0,41,30,0
0,60,30,0
0,64,30,0
0,57,30,0
0,36,127,2
0,42,127,0
0,36,127,0
0,42,127,0
0,36,0,9
0,42,0,0
0,36,0,0
0,42,0,0
0,41,0,23
0,41,0,0
0,60,0,5
0,64,0,0
0,60,0,0
0,64,0,0
0,57,0,1
0,57,0,0
0,29,0,23
0,29,0,0
0,29,127,177
0,41,127,0
0,57,127,0
0,60,127,0
0,64,127,0
0,29,127,0
0,41,30,0
0,57,30,0
0,60,30,0
0,64,30,0
0,36,127,2
0,42,127,0
0,36,127,0
0,42,127,0
0,36,0,9
0,42,0,0
0,36,0,0
0,42,0,0
0,60,0,26
0,60,0,0
0,41,0,1
0,64,0,0
0,41,0,0
0,64,0,0
0,57,0,4
0,57,0,0
0,29,0,29
0,29,0,0
0,29,127,169
0,41,127,0
0,60,127,0
0,64,127,0
0,57,127,0
0,29,127,0
0,41,30,0
0,60,30,0
0,64,30,0
0,57,30,0
0,36,127,2
0,42,127,0
0,36,127,0
0,42,127,0
0,36,0,9
0,42,0,0
0,36,0,0
0,42,0,0
0,64,0,29
0,64,0,0
0,41,0,2
0,60,0,0
0,41,0,0
0,60,0,0
0,57,0,4
0,57,0,0
0,29,0,31
0,29,0,0
0,29,127,163
0,60,127,0
0,41,127,0
0,64,127,0
0,57,127,0
0,29,127,0
0,60,30,0
0,41,30,0
0,64,30,0
0,57,30,0
0,36,127,2
0,42,127,0
0,36,127,0
0,42,127,0
0,36,0,9
0,42,0,0
0,36,0,0
0,42,0,0
0,60,0,16
0,60,0,0
0,57,0,4
0,57,0,0
0,41,0,3
0,41,0,0
0,64,0,3
0,64,0,0
0,29,0,33
0,29,0,0
0,29,127,170
0,64,127,0
0,60,127,0
0,57,127,0
0,41,127,0
0,29,127,0
0,64,30,0
0,60,30,0
0,57,30,0
0,41,30,0
0,36,127,2
0,42,127,0
0,36,127,0
0,42,127,0
0,36,0,9
0,42,0,0
0,36,0,0
0,42,0,0
0,60,0,25
0,57,0,0
0,60,0,0
0,57,0,0
0,64,0,3
0,64,0,0
0,41,0,24
0,41,0,0
0,29,0,8
0,29,0,0
0,57,114,49
0,57,27,0
0,48,127,2
0,48,127,0
0,48,0,9
0,48,0,0
0,41,127,49
0,41,30,0
0,45,127,2
0,45,127,0
0,57,0,1
0,57,0,0
0,45,0,8
0,45,0,0
0,29,127,49
0,60,127,0
0,64,127,0
0,57,127,0
0,29,127,0
0,60,30,0
0,64,30,0
0,57,30,0
0,36,127,2
0,42,127,0
0,36,127,0
0,42,127,0
0,41,0,1
0,41,0,0
0,36,0,8
0,42,0,0
0,36,0,0
0,42,0,0
0,60,0,8
0,60,0,0
0,64,0,10
0,64,0,0
0,57,0,11
0,57,0,0
0,44,127,20
0,56,127,0
0,44,30,0
0,56,30,0
0,36,127,1
0,36,127,0
0,46,127,1
0,41,127,0
0,46,127,0
0,41,127,0
0,36,0,9
0,46,0,0
0,36,0,0
0,46,0,0
0,41,0,1
0,41,0,0
0,29,0,73
0,29,0,0
0,56,0,47
0,56,0,0
0,44,0,19
0,44,0,0
0,33,127,0
0,45,127,0
0,55,114,0
0,64,127,0
0,60,127,0
0,55,68,0
0,45,96,0
0,60,70,0
0,64,76,0
0,76,127,0
0,33,127,0
0,45,30,0
0,55,27,0
0,64,30,0
0,60,30,0
0,76,127,0
0,36,127,2
0,42,127,0
0,36,127,0
0,42,127,0
0,36,0,9
0,42,0,0
0,36,0,0
0,42,0,0
0,36,127,111
0,42,64,0
0,36,127,0
0,42,64,0
0,36,0,9
0,42,0,0
0,36,0,0
0,42,0,0
0,76,0,13
0,76,0,0
0,76,127,0
0,76,127,0
0,52,127,1
0,52,96,0
0,52,30,0
0,38,127,2
0,42,127,0
0,38,127,0
0,42,127,0
0,55,0,9
0,55,0,0
0,38,0,0
0,42,0,0
0,55,0,0
0,38,0,0
0,42,0,0
0,33,0,23
0,33,0,0
0,52,0,12
0,52,0,0
0,52,0,5
0,60,0,5
0,60,0,0
0,45,127,4
0,55,127,0
0,45,127,0
0,45,0,14
0,64,0,0
0,45,0,0
0,45,0,8
0,60,0,11
0,64,0,2
0,64,0,0
0,60,114,25
0,57,86,0
0,42,64,2
0,42,64,0
0,42,0,9
0,42,0,0
0,55,0,3
0,76,0,13
0,76,0,0
0,60,0,26
0,33,127,0
0,64,79,0
0,76,127,0
0,76,127,0
0,36,127,2
0,36,127,0
0,36,0,9
0,36,0,0
0,45,0,2
0,45,0,0
0,57,0,15
0,64,0,4
0,76,0,21
0,76,0,0
0,38,127,7
0,50,127,0
0,50,91,0
0,38,127,0
0,50,30,0
0,33,0,1
0,36,127,1
0,42,127,0
0,36,127,0
0,42,127,0
0,36,0,9
0,42,0,0
0,36,0,0
0,42,0,0
0,74,127,0
0,74,127,0
0,74,0,35
0,74,0,0
0,54,90,0
0,54,60,0
0,74,127,0
0,54,21,0
0,74,127,0
0,36,127,2
0,42,64,0
0,36,127,0
0,42,64,0
0,36,0,9
0,42,0,0
0,36,0,0
0,42,0,0
0,71,127,0
0,71,127,0
0,54,0,42
0,54,0,0
0,54,0,7
0,50,0,4
0,71,0,4
0,71,0,0
0,57,85,0
0,57,101,0
0,74,127,0
0,57,20,0
0,74,127,0
0,38,127,2
0,42,127,0
0,38,127,0
0,42,127,0
0,38,0,9
0,42,0,0
0,38,0,0
0,42,0,0
0,74,0,33
0,74,0,0
0,76,127,0
0,76,127,0
0,50,0,8
0,50,0,0
0,57,0,14
0,57,0,0
0,57,0,7
0,62,96,31
0,62,22,0
0,42,64,2
0,42,64,0
0,38,0,5
0,38,0,0
0,42,0,4
0,42,0,0
0,62,0,20
0,62,0,0
0,38,127,29
0,38,127,0
0,31,127,60
0,55,101,0
0,76,0,0
0,31,127,0
0,76,0,0
0,36,127,0
0,42,127,0
0,36,127,0
0,42,127,0
0,38,0,3
0,38,0,0
0,36,0,6
0,42,0,0
0,36,0,0
0,42,0,0
0,69,127,0
0,69,127,0
0,55,90,8
0,66,101,0
0,55,21,0
0,36,127,2
0,42,64,0
0,36,127,0
0,42,64,0
0,36,0,9
0,42,0,0
0,36,0,0
0,42,0,0
0,55,0,1
0,66,0,26
0,59,127,0
0,71,127,0
0,59,30,0
0,71,127,0
0,71,0,32
0,71,0,0
0,62,127,0
0,64,76,0
0,71,127,0
0,62,30,0
0,71,127,0
0,38,127,2
0,42,127,0
0,38,127,0
0,42,127,0
0,38,0,9
0,42,0,0
0,38,0,0
0,42,0,0
0,31,0,31
0,31,0,0
0,43,120,18
0,62,0,0
0,66,127,0
0,43,120,0
0,62,0,0
0,66,30,0
0,71,0,18
0,71,0,0
0,64,0,13
0,66,0,6
0,66,0,0
0,62,96,0
0,71,127,0
0,71,127,0
0,42,64,2
0,42,64,0
0,55,0,9
0,42,0,0
0,55,0,0
0,42,0,0
0,59,0,3
0,59,0,0
0,62,0,20
0,43,0,23
0,43,0,0
0,71,0,2
0,71,0,0
0,31,127,0
0,69,114,0
0,31,127,0
0,69,114,0
0,44,120,0
0,68,93,0
0,64,114,0
0,56,85,0
0,62,114,0
0,59,93,0
0,71,127,0
0,44,120,0
0,68,22,0
0,64,27,0
0,62,27,0
0,71,127,0
0,31,0,1
0,31,0,0
0,36,127,1
0,42,127,0
0,36,127,0
0,42,127,0
0,71,127,0
0,71,127,0
0,36,127,1
0,36,127,0
0,42,64,1
0,42,64,0
0,69,114,0
0,69,114,0
0,71,0,1
0,71,0,0
0,71,127,0
0,71,127,0
0,38,127,2
0,42,127,0
0,38,127,0
0,42,127,0
0,56,0,6
0,38,0,3
0,42,0,0
0,38,0,0
0,42,0,0
0,71,0,47
0,71,0,0
0,32,127,0
0,56,127,0
0,74,127,0
0,32,127,0
0,74,127,0
0,44,0,24
0,44,0,0
0,68,0,19
0,68,0,0
0,62,0,2
0,62,0,0
0,64,0,4
0,64,0,0
0,44,114,11
0,59,127,0
0,44,114,0
0,32,0,1
0,32,0,0
0,42,64,1
0,42,64,0
0,42,0,9
0,42,0,0
0,59,0,41
0,62,127,8
0,62,30,0
0,56,0,8
0,44,0,17
0,62,0,0
0,44,0,0
0,62,0,0
0,74,0,30
0,74,0,0
0,33,127,4
0,45,81,0
0,33,127,0
0,36,127,2
0,42,127,0
0,36,127,0
0,42,127,0
0,36,0,9
0,42,0,0
0,36,0,0
0,42,0,0
0,52,96,0
0,76,127,0
0,76,127,0
0,57,114,8
0,55,67,0
0,57,27,0
0,36,127,2
0,42,64,0
0,36,127,0
0,42,64,0
0,60,120,0
0,60,86,0
0,76,127,0
0,60,28,0
0,76,127,0
0,55,0,18
0,60,0,40
0,45,114,2
0,64,86,0
0,45,27,0
0,38,127,2
0,42,127,0
0,38,127,0
0,42,127,0
0,38,0,9
0,42,0,0
0,38,0,0
0,42,0,0
0,76,0,1
0,76,0,0
0,40,127,0
0,60,70,0
0,76,127,0
0,40,127,0
0,76,127,0
0,33,0,6
0,33,0,0
0,57,0,13
0,57,0,0
0,64,0,10
0,60,0,21
0,60,0,0
0,40,0,3
0,40,0,0
0,45,0,4
0,45,0,0
0,60,0,2
0,45,114,1
0,64,127,0
0,45,0,0
0,57,76,0
0,64,30,0
0,42,64,1
0,42,64,0
0,42,0,10
0,42,0,0
0,76,0,34
0,76,0,0
0,45,0,10
0,57,0,4
0,40,127,0
0,60,127,0
0,64,91,0
0,74,127,0
0,74,127,0
0,36,127,2
0,36,127,0
0,36,0,9
0,36,0,0
0,64,0,8
0,64,0,0
0,60,0,19
0,64,0,1
0,74,0,7
0,74,0,0
0,38,127,0
0,50,127,0
0,50,101,0
0,76,127,0
0,38,127,0
0,76,127,0
0,36,127,2
0,42,127,0
0,36,127,0
0,42,127,0
0,40,0,6
0,54,127,49
0,57,114,0
0,54,57,0
0,74,127,0
0,57,27,0
0,74,127,0
0,36,127,2
0,42,64,0
0,36,127,0
0,42,64,0
0,36,0,9
0,42,0,0
0,36,0,0
0,42,0,0
0,54,0,44
0,62,127,5
0,57,76,0
0,62,30,0
0,74,0,11
0,74,0,0
0,54,0,5
0,57,0,4
0,57,0,0
0,62,91,0
0,74,127,0
0,74,127,0
0,38,127,2
0,42,127,0
0,38,127,0
0,42,127,0
0,57,0,2
0,38,0,7
0,42,0,0
0,38,0,0
0,42,0,0
0,50,0,5
0,62,0,3
0,62,0,0
0,50,0,22
0,74,0,10
