track,note,velocity,time
1,42,127,1536
1,45,127,128
1,50,127,128
1,45,127,128
1,47,127,64
1,47,127,64
1,47,127,64
1,47,127,64
1,47,127,64
1,47,127,64
1,47,127,64
1,47,127,64
1,42,127,128
1,45,127,128
1,50,127,128
1,45,127,128
1,47,127,64
1,47,127,64
1,47,127,64
1,47,127,64
1,47,127,64
1,47,127,64
1,47,127,64
1,47,127,64
1,42,127,128
1,45,127,128
1,50,127,128
1,45,127,128
1,47,127,64
1,47,127,64
1,47,127,64
1,47,127,64
1,47,127,64
1,47,127,64
1,47,127,64
1,47,127,64
1,42,127,128
1,45,127,128
1,50,127,128
1,45,127,128
1,47,127,64
1,47,127,64
1,47,127,64
1,47,127,64
1,47,127,64
1,47,127,64
1,47,127,64
1,47,127,64
1,40,127,5696
1,42,127,64
1,44,127,64
1,45,127,64
1,45,127,16508
1,33,127,128
1,33,127,128
1,33,127,128
1,35,127,64
1,37,127,64
1,35,127,64
1,35,127,128
1,35,127,64
1,35,127,128
1,35,127,64
1,35,127,64
1,38,127,128
1,38,127,128
1,38,127,128
1,40,127,64
1,42,127,64
1,40,127,64
1,40,127,128
1,40,127,64
1,35,127,128
1,37,127,64
1,35,127,64
1,33,127,64
1,33,127,64
1,33,127,128
1,33,127,128
1,35,127,64
1,37,127,64
1,35,127,64
1,35,127,128
1,35,127,64
1,35,127,128
1,35,127,64
1,35,127,64
1,38,127,128
1,38,127,128
1,38,127,128
1,40,127,64
1,42,127,64
1,40,127,64
1,40,127,128
1,40,127,64
1,35,127,128
1,37,127,64
1,35,127,64
1,33,127,64
1,42,127,64
1,45,127,128
1,50,127,128
1,45,127,128
1,47,127,64
1,47,127,64
1,47,127,64
1,47,127,64
1,47,127,64
1,47,127,64
1,47,127,64
1,47,127,64
1,42,127,128
1,45,127,128
1,50,127,128
1,45,127,128
1,47,127,64
1,47,127,64
1,47,127,64
1,47,127,64
1,47,127,64
1,47,127,64
1,47,127,64
1,47,127,64
1,42,127,128
1,45,127,128
1,50,127,128
1,45,127,128
1,47,127,64
1,47,127,64
1,47,127,64
1,47,127,64
1,47,127,64
1,47,127,64
1,47,127,64
1,47,127,64
1,42,127,128
1,45,127,128
1,50,127,128
1,45,127,128
1,47,127,64
1,33,127,1600
1,33,127,128
1,33,127,128
1,35,127,64
1,37,127,64
1,35,127,64
1,35,127,128
1,35,127,64
1,35,127,128
1,35,127,64
1,35,127,64
1,38,127,128
1,38,127,128
1,38,127,128
1,40,127,64
1,42,127,64
1,40,127,64
1,40,127,128
1,40,127,64
1,35,127,128
1,37,127,64
1,35,127,64
1,33,127,64
1,33,127,64
1,33,127,128
1,33,127,128
1,35,127,64
1,37,127,64
1,35,127,64
1,35,127,128
1,35,127,64
1,35,127,128
1,35,127,64
1,35,127,64
1,38,127,128
1,38,127,128
1,38,127,128
1,40,127,64
1,42,127,64
1,40,127,64
1,40,127,128
1,40,127,64
1,35,127,128
1,37,127,64
1,35,127,64
1,33,127,64
1,33,127,64
1,33,127,128
1,33,127,128
1,35,127,64
1,37,127,64
1,35,127,64
1,35,127,128
1,35,127,64
1,35,127,128
1,35,127,64
1,35,127,64
1,38,127,128
1,38,127,128
1,38,127,128
1,40,127,64
1,42,127,64
1,40,127,64
1,40,127,128
1,40,127,64
1,35,127,128
1,37,127,64
1,35,127,64
1,33,127,64
1,33,127,64
1,33,127,128
1,33,127,128
1,35,127,64
1,37,127,64
1,35,127,64
1,35,127,128
1,35,127,64
1,35,127,128
1,35,127,64
1,35,127,64
1,38,127,128
1,38,127,128
1,38,127,128
1,40,127,64
1,42,127,64
1,40,127,64
1,40,127,128
1,40,127,64
1,35,127,128
1,37,127,64
1,35,127,64
1,33,127,64
1,33,127,64
1,33,127,128
1,33,127,128
1,35,127,64
1,37,127,64
1,35,127,64
1,35,127,128
1,35,127,64
1,35,127,128
1,35,127,64
1,35,127,64
1,38,127,128
1,38,127,128
1,38,127,128
1,40,127,64
1,42,127,64
1,40,127,64
1,40,127,128
1,40,127,64
1,35,127,128
1,37,127,64
1,35,127,64
1,33,127,64
1,33,127,64
1,33,127,128
1,33,127,128
1,35,127,64
1,37,127,64
1,35,127,64
1,35,127,128
1,35,127,64
1,35,127,128
1,35,127,64
1,35,127,64
1,38,127,128
1,38,127,128
1,38,127,128
1,40,127,64
1,42,127,64
1,40,127,64
1,40,127,128
1,40,127,64
1,35,127,128
1,37,127,64
1,35,127,64
1,33,127,64
1,42,127,64
1,45,127,128
1,50,127,128
1,45,127,128
1,47,127,64
1,47,127,64
1,47,127,64
1,47,127,64
1,47,127,64
1,47,127,64
1,47,127,64
1,47,127,64
1,42,127,128
1,45,127,128
1,50,127,128
1,45,127,128
1,47,127,64
1,47,127,64
1,47,127,64
1,47,127,64
1,47,127,64
1,47,127,64
1,47,127,64
1,47,127,64
1,42,127,128
1,45,127,128
1,50,127,128
1,45,127,128
1,47,127,64
1,47,127,64
1,47,127,64
1,47,127,64
1,47,127,64
1,47,127,64
1,47,127,64
1,47,127,64
1,42,127,128
1,45,127,128
1,50,127,128
1,45,127,128
1,47,127,64
1,33,127,1600
1,33,127,128
1,33,127,128
1,35,127,64
1,37,127,64
1,35,127,64
1,35,127,128
1,35,127,64
1,35,127,128
1,35,127,64
1,35,127,64
1,38,127,128
1,38,127,128
1,38,127,128
1,40,127,64
1,42,127,64
1,40,127,64
1,40,127,128
1,40,127,64
1,35,127,128
1,37,127,64
1,35,127,64
1,33,127,64
1,33,127,64
1,33,127,128
1,33,127,128
1,35,127,64
1,37,127,64
1,35,127,64
1,35,127,128
1,35,127,64
1,35,127,128
1,35,127,64
1,35,127,64
1,38,127,128
1,38,127,128
1,38,127,128
1,40,127,64
1,42,127,64
1,40,127,64
1,40,127,128
1,40,127,64
1,35,127,128
1,37,127,64
1,35,127,64
1,33,127,64
1,33,127,64
2,54,110,1536
2,42,110,0
2,49,110,0
2,45,110,128
2,52,110,0
2,57,110,0
2,50,110,128
2,57,110,0
2,62,110,0
2,45,110,128
2,52,110,0
2,57,110,0
2,59,110,64
2,54,110,0
2,47,110,0
2,47,110,128
2,54,110,0
2,59,110,0
2,47,110,64
2,59,110,0
2,54,110,0
2,47,110,64
2,59,110,0
2,54,110,0
2,47,110,64
2,59,110,0
2,54,110,0
2,47,110,64
2,59,110,0
2,54,110,0
2,47,110,64
2,54,110,0
2,59,110,0
2,54,110,128
2,42,110,0
2,49,110,0
2,45,110,128
2,52,110,0
2,57,110,0
2,50,110,128
2,57,110,0
2,62,110,0
2,45,110,128
2,52,110,0
2,57,110,0
2,59,110,64
2,54,110,0
2,47,110,0
2,47,110,128
2,54,110,0
2,59,110,0
2,47,110,64
2,59,110,0
2,54,110,0
2,47,110,64
2,59,110,0
2,54,110,0
2,47,110,64
2,59,110,0
2,54,110,0
2,47,110,64
2,59,110,0
2,54,110,0
2,47,110,64
2,54,110,0
2,59,110,0
2,54,110,128
2,42,110,0
2,49,110,0
2,45,110,128
2,52,110,0
2,57,110,0
2,50,110,128
2,57,110,0
2,62,110,0
2,45,110,128
2,52,110,0
2,57,110,0
2,47,110,64
2,59,110,0
2,54,110,0
2,47,110,128
2,54,110,0
2,59,110,0
2,47,110,64
2,59,110,0
2,54,110,0
2,47,110,64
2,59,110,0
2,54,110,0
2,47,110,64
2,59,110,0
2,54,110,0
2,47,110,64
2,59,110,0
2,54,110,0
2,47,110,64
2,54,110,0
2,59,110,0
2,54,110,128
2,42,110,0
2,49,110,0
2,45,110,128
2,52,110,0
2,57,110,0
2,50,110,128
2,57,110,0
2,62,110,0
2,45,110,128
2,52,110,0
2,57,110,0
2,47,110,64
2,59,110,0
2,54,110,0
2,47,110,128
2,54,110,0
2,59,110,0
2,47,110,64
2,59,110,0
2,54,110,0
2,47,110,64
2,59,110,0
2,54,110,0
2,47,110,64
2,59,110,0
2,54,110,0
2,47,110,64
2,59,110,0
2,54,110,0
2,47,110,64
2,54,110,0
2,59,110,0
2,57,110,128
2,45,110,0
2,52,110,0
2,57,110,128
2,52,110,0
2,45,110,0
2,57,110,128
2,52,110,0
2,45,110,0
2,57,110,64
2,52,110,0
2,45,110,0
2,57,110,64
2,52,110,0
2,45,110,0
2,59,110,64
2,54,110,0
2,47,110,0
2,59,110,128
2,54,110,0
2,47,110,0
2,59,110,64
2,54,110,0
2,47,110,0
2,59,110,128
2,54,110,0
2,47,110,0
2,59,110,64
2,54,110,0
2,47,110,0
2,59,110,64
2,54,110,0
2,47,110,0
2,52,110,128
2,45,110,0
2,62,110,0
2,57,110,0
2,52,110,128
2,45,110,0
2,62,110,0
2,57,110,0
2,52,110,128
2,62,110,0
2,45,110,0
2,57,110,0
2,52,110,64
2,45,110,0
2,62,110,0
2,57,110,0
2,52,110,64
2,45,110,0
2,62,110,0
2,57,110,0
2,64,110,0
2,59,110,0
2,54,110,0
2,54,110,128
2,64,110,0
2,59,110,0
2,54,110,64
2,64,110,0
2,59,110,0
2,59,110,128
2,54,110,0
2,64,110,0
2,59,110,64
2,54,110,0
2,64,110,0
2,59,110,64
2,54,110,0
2,64,110,0
2,57,110,128
2,45,110,0
2,52,110,0
2,57,110,128
2,52,110,0
2,45,110,0
2,57,110,128
2,52,110,0
2,45,110,0
2,57,110,64
2,52,110,0
2,45,110,0
2,57,110,64
2,52,110,0
2,45,110,0
2,47,110,64
2,54,110,0
2,59,110,0
2,59,110,128
2,54,110,0
2,47,110,0
2,59,110,64
2,54,110,0
2,47,110,0
2,59,110,128
2,54,110,0
2,47,110,0
2,59,110,64
2,54,110,0
2,47,110,0
2,59,110,64
2,54,110,0
2,47,110,0
2,57,110,128
2,45,110,0
2,52,110,0
2,62,110,0
2,57,110,128
2,52,110,0
2,45,110,0
2,62,110,0
2,57,110,128
2,52,110,0
2,45,110,0
2,62,110,0
2,57,110,64
2,52,110,0
2,45,110,0
2,62,110,0
2,57,110,64
2,52,110,0
2,45,110,0
2,62,110,0
2,54,110,64
2,59,110,0
2,64,110,0
2,59,110,128
2,54,110,0
2,64,110,0
2,59,110,64
2,54,110,0
2,64,110,0
2,59,110,128
2,54,110,0
2,64,110,0
2,59,110,64
2,54,110,0
2,64,110,0
2,59,110,64
2,54,110,0
2,64,110,0
2,57,110,128
2,45,110,0
2,52,110,0
2,57,110,128
2,52,110,0
2,45,110,0
2,57,110,128
2,52,110,0
2,45,110,0
2,57,110,64
2,52,110,0
2,45,110,0
2,57,110,64
2,52,110,0
2,45,110,0
2,47,110,64
2,54,110,0
2,59,110,0
2,59,110,128
2,54,110,0
2,47,110,0
2,59,110,64
2,54,110,0
2,47,110,0
2,59,110,128
2,54,110,0
2,47,110,0
2,59,110,64
2,54,110,0
2,47,110,0
2,59,110,64
2,54,110,0
2,47,110,0
2,57,110,128
2,45,110,0
2,52,110,0
2,62,110,0
2,57,110,128
2,52,110,0
2,45,110,0
2,62,110,0
2,57,110,128
2,52,110,0
2,45,110,0
2,62,110,0
2,57,110,64
2,52,110,0
2,45,110,0
2,62,110,0
2,57,110,64
2,52,110,0
2,45,110,0
2,62,110,0
2,54,110,64
2,59,110,0
2,64,110,0
2,59,110,128
2,54,110,0
2,64,110,0
2,59,110,64
2,54,110,0
2,64,110,0
2,59,110,128
2,54,110,0
2,64,110,0
2,59,110,64
2,54,110,0
2,64,110,0
2,59,110,64
2,54,110,0
2,64,110,0
2,57,110,128
2,45,110,0
2,52,110,0
2,57,110,128
2,52,110,0
2,45,110,0
2,57,110,128
2,52,110,0
2,45,110,0
2,57,110,64
2,52,110,0
2,45,110,0
2,57,110,64
2,52,110,0
2,45,110,0
2,47,110,64
2,54,110,0
2,59,110,0
2,59,110,128
2,54,110,0
2,47,110,0
2,59,110,64
2,54,110,0
2,47,110,0
2,59,110,128
2,54,110,0
2,47,110,0
2,59,110,64
2,54,110,0
2,47,110,0
2,59,110,64
2,54,110,0
2,47,110,0
2,57,110,128
2,45,110,0
2,52,110,0
2,62,110,0
2,57,110,128
2,52,110,0
2,45,110,0
2,62,110,0
2,57,110,128
2,52,110,0
2,45,110,0
2,62,110,0
2,57,110,64
2,52,110,0
2,45,110,0
2,62,110,0
2,57,110,64
2,52,110,0
2,45,110,0
2,62,110,0
2,54,110,64
2,59,110,0
2,64,110,0
2,59,110,128
2,54,110,0
2,64,110,0
2,59,110,64
2,54,110,0
2,64,110,0
2,59,110,128
2,54,110,0
2,64,110,0
2,59,110,64
2,54,110,0
2,64,110,0
2,59,110,64
2,54,110,0
2,64,110,0
2,57,110,128
2,45,110,0
2,52,110,0
2,57,110,128
2,52,110,0
2,45,110,0
2,57,110,128
2,52,110,0
2,45,110,0
2,57,110,64
2,52,110,0
2,45,110,0
2,57,110,64
2,52,110,0
2,45,110,0
2,47,110,64
2,54,110,0
2,59,110,0
2,59,110,128
2,54,110,0
2,47,110,0
2,59,110,64
2,54,110,0
2,47,110,0
2,59,110,128
2,54,110,0
2,47,110,0
2,59,110,64
2,54,110,0
2,47,110,0
2,59,110,64
2,54,110,0
2,47,110,0
2,57,110,128
2,45,110,0
2,52,110,0
2,62,110,0
2,57,110,128
2,52,110,0
2,45,110,0
2,62,110,0
2,57,110,128
2,52,110,0
2,45,110,0
2,62,110,0
2,57,110,64
2,52,110,0
2,45,110,0
2,62,110,0
2,57,110,64
2,52,110,0
2,45,110,0
2,62,110,0
2,54,110,64
2,59,110,0
2,64,110,0
2,59,110,128
2,54,110,0
2,64,110,0
2,59,110,64
2,54,110,0
2,64,110,0
2,59,110,128
2,54,110,0
2,64,110,0
2,59,110,64
2,54,110,0
2,64,110,0
2,59,110,64
2,54,110,0
2,64,110,0
2,57,110,128
2,45,110,0
2,52,110,0
2,57,110,128
2,52,110,0
2,45,110,0
2,57,110,128
2,52,110,0
2,45,110,0
2,57,110,64
2,52,110,0
2,45,110,0
2,57,110,64
2,52,110,0
2,45,110,0
2,47,110,64
2,54,110,0
2,59,110,0
2,59,110,128
2,54,110,0
2,47,110,0
2,59,110,64
2,54,110,0
2,47,110,0
2,59,110,128
2,54,110,0
2,47,110,0
2,59,110,64
2,54,110,0
2,47,110,0
2,59,110,64
2,54,110,0
2,47,110,0
2,57,110,128
2,45,110,0
2,52,110,0
2,62,110,0
2,57,110,128
2,52,110,0
2,45,110,0
2,62,110,0
2,57,110,128
2,52,110,0
2,45,110,0
2,62,110,0
2,57,110,64
2,52,110,0
2,45,110,0
2,62,110,0
2,57,110,64
2,52,110,0
2,45,110,0
2,62,110,0
2,54,110,64
2,59,110,0
2,64,110,0
2,59,110,128
2,54,110,0
2,64,110,0
2,59,110,64
2,54,110,0
2,64,110,0
2,59,110,128
2,54,110,0
2,64,110,0
2,59,110,64
2,54,110,0
2,64,110,0
2,59,110,64
2,54,110,0
2,64,110,0
2,54,110,128
2,42,110,0
2,49,110,0
2,45,110,128
2,52,110,0
2,57,110,0
2,50,110,128
2,57,110,0
2,62,110,0
2,45,110,128
2,52,110,0
2,57,110,0
2,47,110,64
2,54,110,0
2,59,110,0
2,47,110,128
2,54,110,0
2,59,110,0
2,47,110,64
2,59,110,0
2,54,110,0
2,47,110,64
2,59,110,0
2,54,110,0
2,47,110,64
2,59,110,0
2,54,110,0
2,47,110,64
2,59,110,0
2,54,110,0
2,47,110,64
2,54,110,0
2,59,110,0
2,54,110,128
2,42,110,0
2,49,110,0
2,45,110,128
2,52,110,0
2,57,110,0
2,50,110,128
2,57,110,0
2,62,110,0
2,45,110,128
2,52,110,0
2,57,110,0
2,47,110,64
2,54,110,0
2,59,110,0
2,47,110,128
2,54,110,0
2,59,110,0
2,47,110,64
2,59,110,0
2,54,110,0
2,47,110,64
2,59,110,0
2,54,110,0
2,47,110,64
2,59,110,0
2,54,110,0
2,47,110,64
2,59,110,0
2,54,110,0
2,47,110,64
2,54,110,0
2,59,110,0
2,54,110,128
2,42,110,0
2,49,110,0
2,45,110,128
2,52,110,0
2,57,110,0
2,50,110,128
2,57,110,0
2,62,110,0
2,45,110,128
