track,note,velocity,time
1,74,75,6144
1,74,75,32
1,72,75,64
1,70,75,64
1,69,75,2
1,69,75,64
1,70,75,64
1,72,75,64
1,70,75,2
1,70,75,32
1,70,75,64
1,70,75,64
1,70,75,32
1,70,75,64
1,70,75,482
1,74,75,2
1,74,75,32
1,74,75,64
1,74,75,64
1,75,75,2
1,74,75,64
1,70,75,2
1,70,75,2
1,70,75,98
1,75,75,2
1,75,75,2
1,75,75,64
1,75,75,32
1,72,75,2
1,74,75,2
1,70,75,386
1,74,75,2
1,74,75,32
1,72,75,64
1,70,75,64
1,69,75,2
1,69,75,64
1,70,75,64
1,72,75,64
1,70,75,2
1,70,75,32
1,70,75,64
1,70,75,64
1,70,75,32
1,70,75,64
1,65,75,482
1,74,75,2
1,74,75,32
1,74,75,64
1,74,75,64
1,75,75,2
1,74,75,64
1,70,75,2
1,70,75,2
1,70,75,64
1,70,75,32
1,75,75,2
1,75,75,2
1,75,75,64
1,75,75,32
1,75,75,32
1,72,75,32
1,74,75,2
1,74,75,290
1,75,75,2
1,75,75,64
1,75,75,32
1,75,75,64
1,77,75,64
1,77,75,64
1,77,75,64
1,70,75,2
1,72,75,2
1,74,75,2
1,74,75,962
1,75,75,2
1,75,75,64
1,75,75,32
1,75,75,64
1,77,75,64
1,77,75,64
1,77,75,64
1,70,75,2
1,74,75,2
1,72,75,2
1,70,75,2
1,70,75,2
1,70,75,194
1,70,75,32
1,72,75,2
1,70,75,2
1,70,75,32
1,70,75,64
1,70,75,64
1,67,75,64
1,70,75,32
1,70,75,64
1,67,75,2
1,70,75,2
1,70,75,2
1,68,75,2
1,74,75,2882
1,74,75,32
1,72,75,64
1,70,75,64
1,69,75,2
1,69,75,64
1,70,75,64
1,72,75,64
1,70,75,2
1,70,75,32
1,70,75,64
1,70,75,64
1,70,75,32
1,70,75,64
1,65,75,482
1,74,75,2
1,74,75,32
1,74,75,64
1,74,75,64
1,75,75,2
1,74,75,64
1,70,75,2
1,70,75,2
1,70,75,98
1,75,75,2
1,75,75,2
1,75,75,64
1,75,75,32
1,72,75,2
1,74,75,2
1,70,75,386
1,74,75,2
1,74,75,32
1,72,75,64
1,70,75,64
1,69,75,2
1,69,75,64
1,70,75,64
1,72,75,64
1,70,75,2
1,70,75,32
1,70,75,64
1,70,75,64
1,70,75,32
1,70,75,64
1,74,75,578
1,74,75,32
1,74,75,64
1,74,75,64
1,75,75,2
1,74,75,64
1,70,75,2
1,70,75,2
1,70,75,64
1,70,75,32
1,70,75,2
1,75,75,2
1,75,75,64
1,75,75,64
1,75,75,32
1,72,75,2
1,74,75,2
1,74,75,290
1,75,75,2
1,75,75,64
1,75,75,32
1,75,75,64
1,77,75,64
1,77,75,64
1,77,75,64
1,70,75,2
1,72,75,2
1,74,75,2
1,74,75,962
1,75,75,2
1,75,75,64
1,75,75,32
1,75,75,64
1,77,75,64
1,77,75,64
1,77,75,64
1,70,75,2
1,74,75,2
1,72,75,2
1,70,75,2
1,70,75,2
1,70,75,194
1,70,75,32
1,72,75,2
1,70,75,2
1,70,75,32
1,70,75,64
1,70,75,64
1,67,75,64
1,70,75,32
1,70,75,64
1,67,75,2
1,70,75,2
1,70,75,2
1,68,75,2
1,70,75,5666
1,74,75,12192
2,58,64,0
2,46,64,0
2,53,64,0
2,46,64,2
2,56,64,2
2,51,64,0
2,44,64,0
2,56,64,2
2,51,64,0
2,44,64,0
2,44,64,2
2,63,64,2
2,58,64,0
2,51,64,0
2,63,64,2
2,58,64,0
2,51,64,0
2,58,64,2
2,53,64,0
2,62,64,0
2,58,64,2
2,53,64,0
2,46,64,0
2,58,64,2
2,53,64,0
2,46,64,0
2,58,64,2
2,53,64,0
2,46,64,0
2,58,64,2
2,46,64,0
2,53,64,0
2,46,64,2
2,56,64,2
2,51,64,0
2,44,64,0
2,56,64,2
2,51,64,0
2,44,64,0
2,44,64,2
2,63,64,2
2,58,64,0
2,51,64,0
2,63,64,2
2,58,64,0
2,51,64,0
2,58,64,2
2,53,64,0
2,62,64,0
2,58,64,2
2,53,64,0
2,46,64,0
2,58,64,2
2,53,64,0
2,46,64,0
2,58,64,2
2,53,64,0
2,46,64,0
2,58,64,2
2,46,64,0
2,53,64,0
2,46,64,2
2,56,64,2
2,51,64,0
2,44,64,0
2,56,64,2
2,51,64,0
2,44,64,0
2,44,64,2
2,63,64,2
2,58,64,0
2,51,64,0
2,63,64,2
2,58,64,0
2,51,64,0
2,58,64,2
2,53,64,0
2,62,64,0
2,58,64,2
2,53,64,0
2,46,64,0
2,58,64,2
2,53,64,0
2,46,64,0
2,58,64,2
2,53,64,0
2,46,64,0
2,58,64,2
2,46,64,0
2,53,64,0
2,46,64,2
2,56,64,2
2,51,64,0
2,44,64,0
2,56,64,2
2,51,64,0
2,44,64,0
2,44,64,2
2,63,64,2
2,58,64,0
2,51,64,0
2,63,64,2
2,58,64,0
2,51,64,0
2,58,64,2
2,53,64,0
2,62,64,0
2,58,64,2
2,53,64,0
2,46,64,0
2,58,64,2
2,53,64,0
2,46,64,0
2,58,64,2
2,53,64,0
2,46,64,0
2,58,64,2
2,53,64,0
2,46,64,0
2,58,64,2
2,53,64,0
2,46,64,0
2,58,64,2
2,53,64,0
2,46,64,0
2,58,64,2
2,53,64,0
2,46,64,0
2,58,64,2
2,53,64,0
2,46,64,0
2,58,64,2
2,53,64,0
2,46,64,0
2,53,64,2
2,48,64,0
2,41,64,0
2,53,64,2
2,48,64,0
2,41,64,0
2,53,64,2
2,48,64,0
2,41,64,0
2,53,64,2
2,48,64,0
2,41,64,0
2,53,64,2
2,48,64,0
2,41,64,0
2,53,64,2
2,48,64,0
2,41,64,0
2,53,64,2
2,48,64,0
2,41,64,0
2,51,64,2
2,46,64,0
2,39,64,0
2,51,64,2
2,46,64,0
2,39,64,0
2,51,64,2
2,46,64,0
2,39,64,0
2,51,64,2
2,46,64,0
2,39,64,0
2,51,64,2
2,46,64,0
2,39,64,0
2,51,64,2
2,46,64,0
2,39,64,0
2,58,64,2
2,53,64,0
2,46,64,0
2,58,64,2
2,53,64,0
2,46,64,0
2,58,64,2
2,53,64,0
2,46,64,0
2,58,64,2
2,53,64,0
2,46,64,0
2,58,64,2
2,53,64,0
2,46,64,0
2,58,64,2
2,53,64,0
2,46,64,0
2,58,64,2
2,53,64,0
2,46,64,0
2,58,64,2
2,53,64,0
2,46,64,0
2,58,64,2
2,53,64,0
2,46,64,0
2,58,64,2
2,53,64,0
2,46,64,0
2,58,64,2
2,53,64,0
2,46,64,0
2,58,64,2
2,53,64,0
2,46,64,0
2,58,64,2
2,53,64,0
2,46,64,0
2,56,64,2
2,51,64,0
2,44,64,0
2,56,64,2
2,51,64,0
2,44,64,0
2,56,64,2
2,51,64,0
2,44,64,0
2,56,64,2
2,51,64,0
2,44,64,0
2,56,64,2
2,51,64,0
2,44,64,0
2,56,64,2
2,51,64,0
2,44,64,0
2,56,64,2
2,51,64,0
2,44,64,0
2,63,64,2
2,58,64,0
2,51,64,0
2,63,64,2
2,58,64,0
2,51,64,0
2,63,64,2
2,58,64,0
2,51,64,0
2,63,64,2
2,58,64,0
2,51,64,0
2,63,64,2
2,58,64,0
2,51,64,0
2,63,64,2
2,58,64,0
2,51,64,0
2,58,64,2
2,53,64,0
2,46,64,0
2,58,64,2
2,53,64,0
2,46,64,0
2,58,64,2
2,53,64,0
2,46,64,0
2,58,64,2
2,53,64,0
2,46,64,0
2,58,64,2
2,53,64,0
2,46,64,0
2,58,64,2
2,53,64,0
2,46,64,0
2,58,64,2
2,53,64,0
2,46,64,0
2,58,64,2
2,53,64,0
2,46,64,0
2,58,64,2
2,53,64,0
2,46,64,0
2,58,64,2
2,53,64,0
2,46,64,0
2,58,64,2
2,53,64,0
2,46,64,0
2,58,64,2
2,53,64,0
2,46,64,0
2,58,64,2
2,53,64,0
2,46,64,0
2,53,64,2
2,48,64,0
2,41,64,0
2,53,64,2
2,48,64,0
2,41,64,0
2,53,64,2
2,48,64,0
2,41,64,0
2,53,64,2
2,48,64,0
2,41,64,0
2,53,64,2
2,48,64,0
2,41,64,0
2,53,64,2
2,48,64,0
2,41,64,0
2,53,64,2
2,48,64,0
2,41,64,0
2,51,64,2
2,46,64,0
2,39,64,0
2,51,64,2
2,46,64,0
2,39,64,0
2,51,64,2
2,46,64,0
2,39,64,0
2,51,64,2
2,46,64,0
2,39,64,0
2,51,64,2
2,46,64,0
2,39,64,0
2,51,64,2
2,46,64,0
2,39,64,0
2,58,64,2
2,53,64,0
2,46,64,0
2,58,64,2
2,53,64,0
2,46,64,0
2,58,64,2
2,53,64,0
2,46,64,0
2,58,64,2
2,53,64,0
2,46,64,0
2,58,64,2
2,53,64,0
2,46,64,0
2,58,64,2
2,53,64,0
2,46,64,0
2,58,64,2
2,53,64,0
2,46,64,0
2,58,64,2
2,53,64,0
2,46,64,0
2,58,64,2
2,53,64,0
2,46,64,0
2,58,64,2
2,53,64,0
2,46,64,0
2,58,64,2
2,53,64,0
2,46,64,0
2,58,64,2
2,53,64,0
2,46,64,0
2,58,64,2
2,53,64,0
2,46,64,0
2,56,64,2
2,51,64,0
2,44,64,0
2,56,64,2
2,51,64,0
2,44,64,0
2,56,64,2
2,51,64,0
2,44,64,0
2,56,64,2
2,51,64,0
2,44,64,0
2,56,64,2
2,51,64,0
2,44,64,0
2,56,64,2
2,51,64,0
2,44,64,0
2,56,64,2
2,51,64,0
2,44,64,0
2,63,64,2
2,58,64,0
2,51,64,0
2,63,64,2
2,58,64,0
2,51,64,0
2,63,64,2
2,58,64,0
2,51,64,0
2,63,64,2
2,58,64,0
2,51,64,0
2,63,64,2
2,58,64,0
2,51,64,0
2,63,64,2
2,58,64,0
2,51,64,0
2,58,64,2
2,53,64,0
2,46,64,0
2,58,64,2
2,53,64,0
2,46,64,0
2,58,64,2
2,53,64,0
2,46,64,0
2,58,64,2
2,53,64,0
2,46,64,0
2,58,64,2
2,53,64,0
2,46,64,0
2,58,64,2
2,53,64,0
2,46,64,0
2,58,64,2
2,53,64,0
2,46,64,0
2,63,64,2
2,58,64,0
2,51,64,0
2,63,64,2
2,58,64,0
2,51,64,0
2,63,64,2
2,58,64,0
2,51,64,0
2,63,64,2
2,58,64,0
2,51,64,0
2,63,64,2
2,58,64,0
2,51,64,0
2,63,64,2
2,58,64,0
2,51,64,0
2,65,64,2
2,60,64,0
2,53,64,0
2,65,64,2
2,60,64,0
2,53,64,0
2,65,64,2
2,60,64,0
2,53,64,0
2,65,64,2
2,60,64,0
2,53,64,0
2,65,64,2
2,60,64,0
2,53,64,0
2,65,64,2
2,60,64,0
2,53,64,0
2,65,64,2
2,60,64,0
2,53,64,0
2,58,64,2
2,53,64,0
2,46,64,0
2,58,64,2
2,53,64,0
2,46,64,0
2,58,64,2
2,53,64,0
2,46,64,0
2,58,64,2
2,53,64,0
2,46,64,0
2,58,64,2
2,53,64,0
2,46,64,0
2,58,64,2
2,53,64,0
2,46,64,0
2,58,64,2
2,53,64,0
2,46,64,0
2,58,64,2
2,53,64,0
2,46,64,0
2,58,64,2
2,53,64,0
2,46,64,0
2,58,64,2
2,53,64,0
2,46,64,0
2,58,64,2
2,53,64,0
2,46,64,0
2,58,64,2
2,53,64,0
2,46,64,0
2,58,64,2
2,53,64,0
2,46,64,0
2,58,64,2
2,53,64,0
2,46,64,0
2,63,64,2
2,58,64,0
2,51,64,0
2,63,64,2
2,58,64,0
2,51,64,0
2,63,64,2
2,58,64,0
2,51,64,0
2,63,64,2
2,58,64,0
2,51,64,0
2,63,64,2
2,58,64,0
2,51,64,0
2,63,64,2
2,58,64,0
2,51,64,0
2,65,64,2
2,60,64,0
2,53,64,0
2,65,64,2
2,60,64,0
2,53,64,0
2,65,64,2
2,60,64,0
2,53,64,0
2,65,64,2
2,60,64,0
2,53,64,0
2,65,64,2
2,60,64,0
2,53,64,0
2,65,64,2
2,60,64,0
2,53,64,0
2,65,64,2
2,60,64,0
2,53,64,0
2,58,64,2
2,53,64,0
2,46,64,0
2,58,64,2
2,53,64,0
2,46,64,0
2,58,64,2
2,53,64,0
2,46,64,0
2,58,64,2
2,53,64,0
2,46,64,0
2,58,64,2
2,53,64,0
2,46,64,0
2,58,64,2
2,53,64,0
2,46,64,0
2,58,64,2
2,53,64,0
2,46,64,0
2,55,64,2
2,50,64,0
2,43,64,0
2,55,64,2
2,50,64,0
2,43,64,0
2,55,64,2
2,50,64,0
2,43,64,0
2,55,64,2
2,50,64,0
2,43,64,0
2,55,64,2
2,50,64,0
2,43,64,0
2,55,64,2
2,50,64,0
2,43,64,0
2,55,64,2
2,50,64,0
2,43,64,0
2,56,64,2
2,51,64,0
2,44,64,0
2,56,64,2
2,51,64,0
2,44,64,0
2,56,64,2
2,51,64,0
2,44,64,0
2,56,64,2
2,51,64,0
2,44,64,0
2,56,64,2
2,51,64,0
2,44,64,0
2,56,64,2
2,51,64,0
2,44,64,0
2,51,64,2
2,46,64,0
2,39,64,0
2,51,64,2
2,46,64,0
2,39,64,0
2,51,64,2
2,46,64,0
2,39,64,0
2,58,64,482
2,46,64,0
2,53,64,0
2,46,64,2
2,56,64,2
2,51,64,0
2,44,64,0
2,56,64,2
2,51,64,0
2,44,64,0
2,44,64,2
2,63,64,2
2,58,64,0
2,51,64,0
2,63,64,2
2,58,64,0
2,51,64,0
2,58,64,2
2,53,64,0
2,62,64,0
2,58,64,2
2,53,64,0
2,46,64,0
2,58,64,2
2,53,64,0
2,46,64,0
2,58,64,2
2,53,64,0
2,46,64,0
2,58,64,2
2,46,64,0
2,53,64,0
2,46,64,2
2,56,64,2
2,51,64,0
2,44,64,0
2,56,64,2
2,51,64,0
2,44,64,0
2,44,64,2
2,63,64,2
2,58,64,0
2,51,64,0
2,63,64,2
2,58,64,0
2,51,64,0
2,58,64,2
2,53,64,0
2,62,64,0
2,58,64,2
2,53,64,0
2,46,64,0
2,58,64,2
2,53,64,0
2,46,64,0
2,58,64,2
2,53,64,0
2,46,64,0
2,58,64,2
2,53,64,0
2,46,64,0
2,58,64,2
2,53,64,0
2,46,64,0
2,58,64,2
2,53,64,0
2,46,64,0
2,58,64,2
2,53,64,0
2,46,64,0
2,58,64,2
2,53,64,0
2,46,64,0
2,58,64,2
2,53,64,0
2,46,64,0
2,53,64,2
2,48,64,0
2,41,64,0
2,53,64,2
2,48,64,0
2,41,64,0
2,53,64,2
2,48,64,0
2,41,64,0
2,53,64,2
2,48,64,0
2,41,64,0
2,53,64,2
2,48,64,0
2,41,64,0
2,53,64,2
2,48,64,0
2,41,64,0
2,53,64,2
2,48,64,0
2,41,64,0
2,51,64,2
2,46,64,0
2,39,64,0
2,51,64,2
2,46,64,0
2,39,64,0
2,51,64,2
2,46,64,0
2,39,64,0
2,51,64,2
2,46,64,0
2,39,64,0
2,51,64,2
2,46,64,0
2,39,64,0
2,51,64,2
2,46,64,0
2,39,64,0
2,58,64,2
2,53,64,0
2,46,64,0
2,58,64,2
2,53,64,0
2,46,64,0
2,58,64,2
2,53,64,0
2,46,64,0
2,58,64,2
2,53,64,0
2,46,64,0
2,58,64,2
2,53,64,0
2,46,64,0
2,58,64,2
2,53,64,0
2,46,64,0
2,58,64,2
2,53,64,0
2,46,64,0
2,58,64,2
2,53,64,0
2,46,64,0
2,58,64,2
2,53,64,0
2,46,64,0
2,58,64,2
2,53,64,0
2,46,64,0
2,58,64,2
2,53,64,0
2,46,64,0
2,58,64,2
2,53,64,0
2,46,64,0
2,58,64,2
2,53,64,0
2,46,64,0
2,56,64,2
2,51,64,0
2,44,64,0
2,56,64,2
2,51,64,0
2,44,64,0
2,56,64,2
2,51,64,0
2,44,64,0
2,56,64,2
2,51,64,0
2,44,64,0
2,56,64,2
2,51,64,0
2,44,64,0
2,56,64,2
2,51,64,0
2,44,64,0
2,56,64,2
2,51,64,0
2,44,64,0
2,63,64,2
2,58,64,0
2,51,64,0
2,63,64,2
2,58,64,0
