track,note,velocity,time
1,43,100,384
1,43,0,192
1,43,100,0
1,55,100,96
1,50,100,192
1,43,0,96
1,50,0,96
1,55,0,0
1,43,100,864
1,43,0,192
1,43,100,0
1,55,100,96
1,50,100,192
1,43,0,96
1,50,0,96
1,55,0,0
1,45,15,296
1,50,15,8
1,55,15,4
1,45,0,4
1,50,0,8
1,55,0,4
1,45,15,260
1,50,15,8
1,55,15,4
1,45,0,4
1,50,0,8
1,55,0,4
1,47,100,252
1,50,100,0
1,43,100,4
1,50,0,188
1,47,0,0
1,47,100,0
1,50,100,0
1,55,100,0
1,55,0,96
1,50,0,0
1,47,0,0
1,47,100,0
1,50,100,0
1,55,100,0
1,62,100,0
1,55,0,192
1,50,0,0
1,50,100,0
1,55,100,0
1,50,0,96
1,47,0,0
1,47,100,0
1,50,100,0
1,50,0,96
1,55,0,0
1,47,0,0
1,47,100,0
1,50,100,0
1,55,100,0
1,50,0,96
1,47,0,0
1,43,100,0
1,47,100,0
1,50,100,0
1,43,0,4
1,55,0,92
1,47,0,96
1,50,0,0
1,47,100,0
1,50,100,0
1,55,100,0
1,55,0,96
1,47,0,0
1,50,0,0
1,62,0,0
1,47,100,0
1,50,100,0
1,55,100,0
1,62,100,0
1,55,0,192
1,50,0,0
1,50,100,0
1,55,100,0
1,50,0,96
1,47,0,0
1,47,100,0
1,50,100,0
1,50,0,96
1,55,0,0
1,47,0,0
1,47,100,0
1,50,100,0
1,55,100,0
1,50,0,96
1,47,0,0
1,43,0,0
1,52,100,0
1,48,100,0
1,55,0,96
1,48,0,96
1,52,0,0
1,55,100,0
1,52,100,0
1,48,100,0
1,48,0,96
1,62,0,0
1,55,0,0
1,52,0,0
1,55,100,0
1,62,100,0
1,52,100,0
1,48,100,0
1,52,0,192
1,55,0,0
1,55,100,0
1,52,100,0
1,52,0,96
1,48,0,0
1,52,100,0
1,48,100,0
1,48,0,96
1,52,0,0
1,55,0,0
1,55,100,0
1,52,100,0
1,48,100,0
1,48,0,96
1,52,0,0
1,45,100,0
1,50,100,0
1,55,0,96
1,50,0,96
1,45,0,0
1,45,100,0
1,50,100,0
1,57,100,0
1,57,0,96
1,62,0,0
1,45,0,0
1,50,0,0
1,62,100,0
1,45,100,0
1,50,100,0
1,57,100,0
1,57,0,192
1,50,0,0
1,50,100,0
1,57,100,0
1,50,0,96
1,45,0,0
1,50,100,0
1,45,100,0
1,45,0,96
1,50,0,0
1,57,0,0
1,50,100,0
1,45,100,0
1,57,100,0
1,45,0,96
1,50,0,0
1,43,100,0
1,47,100,0
1,50,100,0
1,57,0,96
1,47,0,96
1,50,0,0
1,47,100,0
1,50,100,0
1,55,100,0
1,55,0,96
1,47,0,0
1,50,0,0
1,62,0,0
1,47,100,0
1,50,100,0
1,55,100,0
1,62,100,0
1,55,0,192
1,50,0,0
1,50,100,0
1,55,100,0
1,50,0,96
1,47,0,0
1,47,100,0
1,50,100,0
1,50,0,96
1,55,0,0
1,47,0,0
1,47,100,0
1,50,100,0
1,55,100,0
1,50,0,96
1,47,0,0
1,43,0,0
1,43,100,0
1,47,100,0
1,50,100,0
1,55,0,96
1,47,0,96
1,50,0,0
1,47,100,0
1,50,100,0
1,55,100,0
1,55,0,96
1,47,0,0
1,50,0,0
1,62,0,0
1,47,100,0
1,50,100,0
1,55,100,0
1,62,100,0
1,55,0,192
1,50,0,0
1,50,100,0
1,55,100,0
1,50,0,96
1,47,0,0
1,47,100,0
1,50,100,0
1,50,0,96
1,55,0,0
1,47,0,0
1,47,100,0
1,50,100,0
1,55,100,0
1,50,0,96
1,47,0,0
1,43,0,0
1,52,100,0
1,48,100,0
1,55,0,96
1,48,0,96
1,52,0,0
1,55,100,0
1,52,100,0
1,48,100,0
1,48,0,96
1,62,0,0
1,55,0,0
1,52,0,0
1,55,100,0
1,62,100,0
1,52,100,0
1,48,100,0
1,52,0,192
1,55,0,0
1,55,100,0
1,52,100,0
1,52,0,96
1,48,0,0
1,52,100,0
1,48,100,0
1,48,0,96
1,52,0,0
1,55,0,0
1,55,100,0
1,52,100,0
1,48,100,0
1,48,0,96
1,52,0,0
1,45,100,0
1,50,100,0
1,55,0,96
1,50,0,96
1,45,0,0
1,45,100,0
1,50,100,0
1,57,100,0
1,57,0,96
1,62,0,0
1,45,0,0
1,50,0,0
1,62,100,0
1,45,100,0
1,50,100,0
1,57,100,0
1,57,0,192
1,50,0,0
1,50,100,0
1,57,100,0
1,50,0,96
1,45,0,0
1,50,100,0
1,45,100,0
1,45,0,96
1,50,0,0
1,57,0,0
1,50,100,0
1,45,100,0
1,57,100,0
1,45,0,96
1,50,0,0
1,43,100,0
1,47,100,0
1,50,100,0
1,57,0,96
1,47,0,96
1,50,0,0
1,47,100,0
1,50,100,0
1,55,100,0
1,55,0,96
1,47,0,0
1,50,0,0
1,62,0,0
1,47,100,0
1,50,100,0
1,55,100,0
1,62,100,0
1,55,0,192
1,50,0,0
1,50,100,0
1,55,100,0
1,50,0,96
1,47,0,0
1,47,100,0
1,50,100,0
1,50,0,96
1,55,0,0
1,47,0,0
1,47,100,0
1,50,100,0
1,55,100,0
1,50,0,96
1,47,0,0
1,43,0,0
1,43,100,0
1,47,100,0
1,50,100,0
1,55,0,96
1,47,0,96
1,50,0,0
1,47,100,0
1,50,100,0
1,55,100,0
1,55,0,96
1,47,0,0
1,50,0,0
1,62,0,0
1,47,100,0
1,50,100,0
1,55,100,0
1,62,100,0
1,55,0,192
1,50,0,0
1,50,100,0
1,55,100,0
1,50,0,96
1,47,0,0
1,47,100,0
1,50,100,0
1,50,0,96
1,55,0,0
1,47,0,0
1,47,100,0
1,50,100,0
1,55,100,0
1,50,0,96
1,47,0,0
1,43,0,0
1,52,100,0
1,48,100,0
1,55,0,96
1,48,0,96
1,52,0,0
1,55,100,0
1,52,100,0
1,48,100,0
1,48,0,96
1,62,0,0
1,55,0,0
1,52,0,0
1,55,100,0
1,62,100,0
1,52,100,0
1,48,100,0
1,52,0,192
1,55,0,0
1,55,100,0
1,52,100,0
1,52,0,96
1,48,0,0
1,52,100,0
1,48,100,0
1,48,0,96
1,52,0,0
1,55,0,0
1,55,100,0
1,52,100,0
1,48,100,0
1,48,0,96
1,52,0,0
1,45,100,0
1,50,100,0
1,55,0,96
1,50,0,96
1,45,0,0
1,45,100,0
1,50,100,0
1,57,100,0
1,57,0,96
1,62,0,0
1,45,0,0
1,50,0,0
1,62,100,0
1,45,100,0
1,50,100,0
1,57,100,0
1,57,0,192
1,50,0,0
1,50,100,0
1,57,100,0
1,50,0,96
1,45,0,0
1,50,100,0
1,45,100,0
1,45,0,96
1,50,0,0
1,57,0,0
1,50,100,0
1,45,100,0
1,57,100,0
1,45,0,96
1,50,0,0
1,43,100,0
1,47,100,0
1,50,100,0
1,57,0,96
1,47,0,96
1,50,0,0
1,47,100,0
1,50,100,0
1,55,100,0
1,55,0,96
1,47,0,0
1,50,0,0
1,62,0,0
1,47,100,0
1,50,100,0
1,55,100,0
1,62,100,0
1,55,0,192
1,50,0,0
1,50,100,0
1,55,100,0
1,50,0,96
1,47,0,0
1,47,100,0
1,50,100,0
1,50,0,96
1,55,0,0
1,47,0,0
1,47,100,0
1,50,100,0
1,55,100,0
1,50,0,96
1,47,0,0
1,43,0,0
1,43,100,0
1,47,100,0
1,50,100,0
1,55,0,96
1,47,0,96
1,50,0,0
1,47,100,0
1,50,100,0
1,55,100,0
1,55,0,96
1,47,0,0
1,50,0,0
1,62,0,0
1,47,100,0
1,50,100,0
1,55,100,0
1,62,100,0
1,55,0,192
1,50,0,0
1,50,100,0
1,55,100,0
1,50,0,96
1,47,0,0
1,47,100,0
1,50,100,0
1,50,0,96
1,55,0,0
1,47,0,0
1,47,100,0
1,50,100,0
1,55,100,0
1,50,0,96
1,47,0,0
1,43,0,0
1,52,100,0
1,48,100,0
1,55,0,96
1,48,0,96
1,52,0,0
1,55,100,0
1,52,100,0
1,48,100,0
1,48,0,96
1,62,0,0
1,55,0,0
1,52,0,0
1,55,100,0
1,62,100,0
1,52,100,0
1,48,100,0
1,52,0,192
1,55,0,0
1,55,100,0
1,52,100,0
1,52,0,96
1,48,0,0
1,52,100,0
1,48,100,0
1,48,0,96
1,52,0,0
1,55,0,0
1,55,100,0
1,52,100,0
1,48,100,0
1,48,0,96
1,52,0,0
1,45,100,0
1,50,100,0
1,55,0,96
1,50,0,96
1,45,0,0
1,45,100,0
1,50,100,0
1,57,100,0
1,57,0,96
1,62,0,0
1,45,0,0
1,50,0,0
1,62,100,0
1,45,100,0
1,50,100,0
1,57,100,0
1,57,0,192
1,50,0,0
1,50,100,0
1,57,100,0
1,50,0,96
1,45,0,0
1,50,100,0
1,45,100,0
1,45,100,0
1,45,0,96
1,50,0,0
1,45,0,0
1,57,0,0
1,50,100,0
1,55,100,0
1,50,0,96
1,62,0,0
1,40,100,0
1,47,100,0
1,52,100,0
1,52,0,192
1,47,0,0
1,55,0,0
1,47,100,0
1,52,100,0
1,55,100,0
1,59,100,0
1,64,100,0
1,59,0,192
1,55,0,0
1,52,0,0
1,40,0,0
1,47,0,0
1,40,100,0
1,47,100,0
1,52,100,0
1,55,100,0
1,59,100,0
1,59,0,96
1,52,0,0
1,47,0,0
1,55,0,0
1,47,100,0
1,52,100,0
1,55,100,0
1,59,100,0
1,59,0,96
1,52,0,0
1,64,0,0
1,55,0,0
1,52,100,0
1,55,100,0
1,59,100,0
1,64,100,0
1,55,0,96
1,52,0,0
1,47,0,0
1,47,100,0
1,52,100,0
1,55,100,0
1,55,0,96
1,59,0,0
1,40,0,0
1,64,0,0
1,52,0,0
1,47,0,0
1,45,100,0
1,50,100,0
1,57,100,0
1,57,0,192
1,50,0,0
1,45,0,0
1,45,100,0
1,50,100,0
1,57,100,0
1,62,100,0
1,57,0,192
1,45,0,0
1,50,0,0
1,45,100,0
1,50,100,0
1,57,100,0
1,57,0,96
1,50,0,0
1,62,0,0
1,50,100,0
1,57,100,0
1,62,100,0
1,57,0,96
1,45,0,0
1,50,0,0
1,45,100,0
1,50,100,0
1,57,100,0
1,57,0,96
1,50,0,0
1,45,0,0
1,45,100,0
1,50,100,0
1,57,100,0
1,57,0,96
1,62,0,0
1,45,0,0
1,50,0,0
1,48,100,0
1,52,100,0
1,55,100,0
1,55,0,192
1,52,0,0
1,52,100,0
1,55,100,0
1,62,100,0
1,52,0,192
1,48,0,0
1,48,100,0
1,52,100,0
1,52,0,96
1,55,0,0
1,52,100,0
1,55,100,0
1,55,0,96
1,52,0,0
1,62,0,0
1,52,100,0
1,55,100,0
1,62,100,0
1,55,0,96
1,48,0,0
1,52,0,0
1,48,100,0
1,52,100,0
1,55,100,0
1,55,0,96
1,62,0,0
1,48,0,0
1,52,0,0
1,43,100,0
1,47,100,0
1,50,100,0
1,50,0,192
1,50,100,0
1,55,100,0
1,62,100,0
1,55,0,192
1,50,0,0
1,47,0,0
1,47,100,0
1,50,100,0
1,55,100,0
1,50,0,96
1,47,0,0
1,43,0,0
1,43,100,0
1,47,100,0
1,50,100,0
1,50,0,96
1,62,0,0
1,55,0,0
1,47,0,0
1,47,100,0
1,50,100,0
1,55,100,0
1,62,100,0
1,55,0,96
1,50,0,0
1,43,0,0
1,47,0,0
1,43,100,0
1,47,100,0
1,50,100,0
1,55,100,0
1,50,0,96
1,47,0,0
1,62,0,0
1,43,0,0
1,40,100,0
1,47,100,0
1,52,100,0
1,52,0,192
1,47,0,0
1,55,0,0
1,47,100,0
1,52,100,0
1,55,100,0
1,59,100,0
1,64,100,0
1,59,0,192
1,55,0,0
1,52,0,0
1,40,0,0
1,47,0,0
1,40,100,0
1,47,100,0
1,52,100,0
1,55,100,0
1,59,100,0
1,59,0,96
1,52,0,0
1,47,0,0
1,55,0,0
1,47,100,0
1,52,100,0
1,55,100,0
1,59,100,0
1,59,0,96
1,52,0,0
1,64,0,0
1,55,0,0
1,52,100,0
1,55,100,0
1,59,100,0
1,64,100,0
1,55,0,96
1,52,0,0
1,47,0,0
1,47,100,0
1,52,100,0
1,55,100,0
1,55,0,96
1,59,0,0
1,40,0,0
1,64,0,0
1,52,0,0
1,47,0,0
1,45,100,0
1,50,100,0
1,57,100,0
1,57,0,192
1,50,0,0
1,45,0,0
1,45,100,0
1,50,100,0
1,57,100,0
1,62,100,0
1,57,0,192
1,45,0,0
1,50,0,0
1,45,100,0
1,50,100,0
1,57,100,0
1,57,0,96
1,50,0,0
1,62,0,0
1,50,100,0
1,57,100,0
1,62,100,0
1,57,0,96
1,45,0,0
1,50,0,0
1,45,100,0
1,50,100,0
1,57,100,0
1,57,0,96
1,50,0,0
1,45,0,0
1,45,100,0
1,50,100,0
1,57,100,0
1,57,0,96
1,62,0,0
1,45,0,0
1,50,0,0
1,48,100,0
1,52,100,0
1,55,100,0
1,55,0,192
1,52,0,0
1,52,100,0
1,55,100,0
1,62,100,0
1,52,0,192
1,48,0,0
1,48,100,0
1,52,100,0
1,52,0,96
1,55,0,0
1,52,100,0
1,55,100,0
1,55,0,96
1,52,0,0
1,62,0,0
1,52,100,0
1,55,100,0
1,62,100,0
1,55,0,96
1,48,0,0
1,52,0,0
1,48,100,0
1,52,100,0
1,55,100,0
1,55,0,96
1,62,0,0
1,48,0,0
1,52,0,0
1,43,100,0
1,47,100,0
1,50,100,0
1,50,0,192
1,50,100,0
1,55,100,0
1,62,100,0
1,55,0,192
1,50,0,0
1,47,0,0
1,47,100,0
1,50,100,0
1,55,100,0
1,50,0,96
1,47,0,0
1,43,0,0
1,43,100,0
1,47,100,0
1,50,100,0
1,50,0,96
1,62,0,0
1,55,0,0
1,47,0,0
1,47,100,0
1,50,100,0
1,55,100,0
1,62,100,0
1,55,0,96
1,50,0,0
1,43,0,0
1,47,0,0
1,50,100,0
1,55,100,0
1,40,100,0
1,45,100,0
1,45,0,96
1,55,0,0
1,62,0,0
1,50,0,0
1,40,0,0
1,40,100,0
1,47,100,0
1,52,100,192
1,55,100,0
1,59,100,96
1,64,100,0
1,55,0,192
1,52,0,0
1,52,100,0
1,55,100,0
1,52,0,96
1,47,0,0
1,47,100,0
1,52,100,0
1,64,0,96
1,59,0,0
1,55,0,0
1,55,100,0
1,59,100,0
1,64,100,0
1,64,0,96
1,47,0,0
1,40,0,0
1,59,0,0
1,43,100,0
1,47,100,0
1,52,0,96
1,55,0,96
1,55,100,0
1,50,100,0
1,55,0,96
1,55,100,0
1,62,100,0
1,55,0,192
1,50,0,0
1,47,0,0
1,55,100,0
1,50,100,0
1,47,100,96
1,50,0,96
1,55,0,0
1,55,100,0
1,50,100,0
1,50,0,96
1,47,0,0
1,43,0,0
1,40,100,0
1,47,100,0
1,55,0,192
1,52,100,0
1,55,100,0
1,62,0,96
1,59,100,0
1,64,100,0
1,52,0,192
1,55,0,0
1,52,100,0
1,55,100,0
1,52,0,96
1,47,0,0
1,47,100,0
1,52,100,0
1,59,0,96
1,64,0,0
1,55,0,0
1,55,100,0
1,59,100,0
1,64,100,0
1,64,0,96
1,47,0,0
1,40,0,0
1,59,0,0
1,43,100,0
1,47,100,0
1,52,0,96
1,55,0,96
1,55,100,0
1,50,100,0
1,55,0,96
1,55,100,0
1,62,100,0
1,55,0,192
1,50,0,0
1,47,0,0
1,55,100,0
1,50,100,0
1,47,100,96
1,50,0,96
1,55,0,0
1,55,100,0
1,50,100,0
1,50,0,96
1,47,0,0
1,43,0,0
1,40,100,0
1,47,100,0
1,55,0,192
1,52,100,0
1,55,100,0
1,62,0,96
1,59,100,0
1,64,100,0
1,52,0,192
1,55,0,0
1,52,100,0
1,55,100,0
1,52,0,96
1,47,0,0
1,47,100,0
1,52,100,0
1,59,0,96
1,64,0,0
1,55,0,0
1,59,100,0
1,64,100,0
1,55,100,0
1,55,0,96
1,47,0,0
1,40,0,0
1,52,0,0
1,64,0,0
1,59,0,0
1,45,100,0
1,50,100,0
1,57,100,0
1,57,0,192
1,50,0,0
1,50,100,0
