track,note,velocity,time
1,60,82,382
1,86,86,768
1,72,79,768
1,62,77,14
1,84,79,2
1,74,79,0
1,60,80,768
1,86,79,758
1,72,79,758
1,62,80,14
1,84,79,758
1,74,79,758
1,60,80,14
1,86,79,758
1,72,79,758
1,62,80,14
1,84,79,758
1,74,79,758
1,60,80,14
1,86,79,758
1,72,79,758
1,62,80,14
1,84,79,758
1,74,79,758
1,60,80,14
1,86,79,758
1,72,79,758
1,62,80,14
1,84,79,758
1,74,79,758
1,60,80,14
1,86,79,758
1,72,79,758
1,62,80,14
1,84,79,758
1,74,79,758
1,60,80,14
1,86,79,758
1,72,79,758
1,62,80,14
1,63,80,22
1,75,80,14
1,65,80,0
1,89,80,24
1,63,80,0
1,75,72,0
1,65,84,0
1,89,71,24
1,63,80,0
1,87,81,18
1,65,80,0
1,77,80,0
1,63,80,0
1,75,80,0
1,65,80,0
1,89,85,0
1,66,80,0
1,78,80,0
1,68,89,0
1,80,60,0
1,66,80,0
1,90,86,0
1,68,84,0
1,80,77,0
1,66,80,0
1,78,70,0
1,68,80,0
1,92,81,0
1,66,80,0
1,78,80,0
1,68,89,0
1,69,80,0
1,93,59,0
1,71,89,0
1,83,83,0
1,69,89,0
1,71,84,0
1,95,52,0
1,69,80,0
1,81,80,0
1,71,80,0
1,69,88,0
1,81,80,0
1,71,89,0
1,95,71,0
1,71,88,24
1,83,92,0
1,73,89,0
1,97,54,0
1,71,88,0
1,83,92,0
1,73,89,0
1,85,92,0
1,71,88,0
1,83,92,0
1,73,89,0
1,85,92,0
1,71,94,0
1,83,116,0
1,73,89,0
1,42,97,386
1,46,84,0
1,49,92,0
1,42,106,0
1,46,94,0
1,49,102,0
1,42,114,0
1,46,100,0
1,49,107,0
1,42,119,0
1,46,103,0
1,49,106,0
1,47,122,0
1,71,98,0
1,83,98,0
1,73,110,10
1,85,69,0
1,44,113,6
1,71,98,0
1,83,98,0
1,73,102,4
1,85,70,0
1,40,113,0
1,71,98,0
1,83,98,0
1,73,100,20
1,85,69,0
1,42,116,22
1,71,102,0
1,83,102,0
1,73,100,20
1,85,69,0
1,50,114,8
1,74,98,0
1,76,110,10
1,47,108,6
1,74,98,0
1,76,102,4
1,43,106,0
1,74,98,0
1,76,100,762
1,45,108,22
1,74,102,0
1,76,100,766
1,47,110,8
1,78,100,0
1,47,115,0
1,47,121,32
1,47,124,32
1,40,127,48
1,59,116,0
1,71,105,24
1,64,113,6
1,76,102,18
1,66,105,14
1,78,94,14
1,59,105,2
1,71,94,2
1,37,111,360
1,64,110,0
1,76,99,6
1,66,105,360
1,78,94,14
1,61,100,360
1,73,89,16
1,64,107,352
1,76,96,12
1,33,113,14
1,66,107,0
1,78,96,14
1,61,107,14
1,73,96,14
1,64,107,14
1,76,96,14
1,66,107,14
1,78,96,14
1,35,111,14
1,61,107,0
1,73,96,14
1,64,107,14
1,76,96,14
1,66,107,14
1,78,96,14
1,59,107,14
1,71,88,14
1,40,113,6
1,59,110,0
1,71,81,14
1,64,113,6
1,76,102,18
1,66,105,14
1,78,94,14
1,59,105,2
1,71,94,2
1,37,113,360
1,64,110,0
1,76,99,6
1,66,105,360
1,78,94,14
1,61,100,360
1,73,89,16
1,64,107,352
1,76,96,12
1,33,115,14
1,66,107,0
1,78,96,14
1,61,107,14
1,73,96,14
1,64,107,14
1,76,96,14
1,66,107,14
1,78,96,14
1,35,113,14
1,61,107,0
1,73,96,14
1,64,107,14
1,76,96,14
1,66,107,14
1,78,96,14
1,59,112,14
1,71,90,14
1,64,68,6
1,40,85,374
1,66,64,20
1,64,70,768
1,37,85,0
1,66,66,0
1,33,85,18
1,64,68,0
1,66,70,642
1,33,85,370
1,64,68,258
1,35,85,762
1,66,74,0
1,64,68,642
1,40,85,374
1,66,64,20
1,64,70,768
1,37,85,0
1,66,66,0
1,33,85,18
1,64,68,0
1,66,70,642
1,33,85,370
1,64,68,258
1,35,85,762
1,66,74,0
1,64,68,642
1,40,85,374
1,66,64,20
1,64,70,768
1,37,85,0
1,66,66,0
1,33,85,18
1,64,68,0
1,66,70,642
1,33,85,370
1,64,68,258
1,35,85,762
1,66,74,0
1,68,82,642
1,37,79,374
1,37,95,18
1,68,94,0
1,66,93,6110
1,78,104,24
1,90,79,22
1,80,96,766
1,66,96,768
1,92,71,766
1,78,96,70
1,77,85,0
1,90,82,0
1,80,96,768
1,66,102,0
1,92,90,0
1,78,96,0
1,68,102,0
1,90,96,0
1,80,96,0
1,78,99,6
1,92,96,768
1,66,102,0
1,80,90,0
1,90,96,0
1,68,102,0
1,78,96,0
1,92,96,0
1,42,122,6
1,61,116,0
1,73,105,24
1,66,113,6
1,78,102,18
1,68,105,14
1,80,94,14
1,61,105,2
1,73,94,2
1,39,127,360
1,66,110,0
1,78,99,6
1,68,105,360
1,80,94,14
1,63,100,360
1,75,89,16
1,66,107,352
1,78,96,12
1,35,122,14
1,68,107,0
1,80,96,14
1,63,107,14
1,75,96,14
1,66,107,14
1,78,96,14
1,68,107,14
1,80,96,14
1,37,123,14
1,63,107,0
1,75,96,14
1,66,107,14
1,78,96,14
1,68,107,14
1,80,96,14
1,61,107,14
1,73,88,14
1,42,125,14
1,61,116,0
1,73,105,14
1,66,113,6
1,78,102,18
1,68,105,14
1,80,94,14
1,61,105,2
1,73,94,2
1,39,125,360
1,66,110,0
1,78,99,6
1,68,105,360
1,80,94,14
1,63,100,360
1,75,89,16
1,66,107,352
1,78,96,12
1,35,122,2
1,68,107,0
1,80,96,14
1,63,107,14
1,75,96,14
1,66,107,14
1,78,96,14
1,68,107,14
1,80,96,14
1,37,120,14
1,63,107,0
1,75,96,14
1,66,107,14
1,78,96,14
1,68,107,14
1,80,96,14
1,61,107,14
1,73,88,14
1,42,125,14
1,66,113,374
1,78,102,24
1,68,105,14
1,80,94,14
1,61,105,2
1,73,94,2
1,39,120,360
1,66,110,0
1,78,99,6
1,68,105,360
1,80,94,14
1,63,100,360
1,75,89,16
1,66,107,352
1,78,96,12
1,35,118,14
1,68,107,0
1,80,96,14
1,63,107,14
1,75,96,14
1,66,107,14
1,78,96,14
1,68,107,14
1,80,96,14
1,37,117,14
1,63,107,0
1,75,96,14
1,66,107,14
1,78,96,14
1,68,107,14
1,80,96,14
1,61,107,14
1,73,88,14
1,42,117,14
1,66,107,0
1,78,88,14
2,39,81,31102
2,36,81,1536
2,32,83,1530
2,34,87,4
2,42,87,1536
2,39,95,1532
2,35,93,1530
2,37,91,4
2,33,87,28
2,33,87,114
2,33,87,114
2,30,100,44
2,30,98,86
2,30,100,106
2,38,85,30
2,38,95,90
2,38,98,122
2,40,87,90
2,40,85,92
2,40,82,118
2,42,87,32
2,42,85,92
2,42,82,118
2,30,82,18
2,35,98,18
2,35,89,94
2,35,95,108
2,32,98,768
2,32,85,62
2,32,91,114
2,28,100,6
2,28,95,62
2,28,95,94
2,30,110,18
2,30,113,70
2,30,116,54
2,30,117,60
2,35,107,94
2,35,100,120
2,35,102,106
2,32,100,2
2,32,102,144
2,32,105,98
2,28,105,6
2,28,102,142
2,28,110,112
2,30,102,768
2,30,107,66
2,30,110,112
2,38,107,50
2,38,100,120
2,38,102,106
2,35,100,2
2,35,102,144
2,35,105,98
2,31,105,0
2,31,102,142
2,31,110,112
2,33,102,768
2,33,107,66
2,33,110,112
2,35,102,50
2,35,107,118
2,35,110,112
2,42,105,24
2,40,102,24
2,40,93,72
2,40,102,90
2,37,93,768
2,37,85,78
2,37,100,102
2,33,105,768
2,33,107,94
2,33,107,98
2,35,105,768
2,35,100,116
2,35,100,102
2,40,102,42
2,40,93,72
2,40,102,90
2,37,93,768
2,37,85,78
2,37,100,102
2,33,105,768
2,33,107,94
2,33,107,98
2,35,105,768
2,35,100,116
2,35,100,102
2,40,94,426
2,37,98,1818
2,33,101,666
2,33,101,1050
2,35,101,1052
2,40,94,1052
2,37,101,1820
2,33,97,672
2,33,101,1056
2,35,101,1056
2,40,99,1050
2,37,98,1818
2,33,101,666
2,33,101,1050
2,35,101,1050
2,37,95,1054
2,37,107,286
2,42,95,0
2,42,89,60
2,42,89,46
2,39,85,768
2,39,78,52
2,39,87,66
2,35,93,14
2,35,91,46
2,35,85,74
2,37,87,768
2,37,72,62
2,37,87,92
2,42,91,6
2,42,85,56
2,42,100,104
2,39,95,768
2,39,72,90
2,39,80,82
2,35,102,768
2,35,98,90
2,35,98,90
2,37,98,10
2,37,91,52
2,37,95,108
2,30,103,24
2,42,87,576
2,42,93,106
2,27,106,118
2,39,88,554
2,39,100,92
2,35,102,94
2,35,94,84
2,35,102,100
2,37,102,0
2,37,93,78
2,37,89,114
2,30,103,48
2,42,87,576
2,42,93,106
2,27,106,118
2,39,88,554
2,39,100,92
2,35,102,94
2,35,94,84
2,35,102,100
2,37,102,0
2,37,93,78
2,37,89,114
2,30,103,48
2,42,87,576
2,42,93,106
2,27,106,118
2,39,88,554
2,39,100,92
2,35,102,94
2,35,94,84
2,35,102,100
2,37,102,0
2,37,93,78
2,37,89,114
2,30,103,48
2,42,87,576
2,42,93,106
2,27,106,118
2,39,88,554
2,39,100,92
2,35,104,94
2,35,94,84
2,35,102,100
2,37,102,0
2,37,93,78
2,37,89,114
2,30,106,48
2,42,95,576
2,42,97,106
2,27,109,118
2,39,102,554
2,39,100,92
2,35,105,94
2,35,102,84
2,35,105,100
2,37,105,0
2,37,96,78
2,37,92,114
2,30,106,48
3,60,22,6526
3,62,28,0
3,60,33,0
3,62,33,0
3,60,43,0
3,62,41,768
3,60,46,734
3,62,55,740
3,60,54,0
3,62,58,0
3,60,68,0
3,62,66,768
3,60,73,734
3,62,76,740
3,60,79,764
3,62,83,762
3,60,70,0
3,62,68,768
3,60,66,0
3,62,75,768
3,60,73,0
3,62,77,768
3,60,74,0
3,62,76,768
3,60,72,0
3,62,70,768
3,60,68,0
3,62,77,768
3,60,75,0
3,62,79,768
3,60,80,0
3,62,84,768
3,63,77,0
3,58,77,0
3,65,75,768
3,63,73,0
3,60,65,0
3,65,82,764
3,63,80,0
3,65,84,768
3,63,85,0
3,58,85,0
3,65,90,768
3,66,103,142
3,68,73,22
3,66,74,0
3,68,103,22
3,66,94,0
3,68,92,22
3,66,98,0
3,68,104,22
3,69,112,0
3,71,82,22
3,69,83,0
3,71,112,22
3,69,103,0
3,71,101,22
3,69,107,0
3,71,113,22
3,71,113,20
3,71,89,48
3,70,76,384
3,71,119,368
3,73,119,22
3,71,115,20
3,73,122,22
3,71,115,20
3,63,73,1630
3,66,82,0
3,71,75,0
3,68,75,0
3,64,80,20
3,61,83,6
3,66,85,0
3,71,82,0
3,70,82,766
3,62,78,80
3,66,82,0
3,69,75,0
3,66,75,32
3,62,82,2
3,67,80,0
3,71,80,0
3,64,89,1536
3,69,82,0
3,61,84,766
3,66,88,0
3,71,85,0
3,63,89,766
3,59,89,0
3,64,91,0
3,68,90,0
3,61,89,1534
3,66,89,4
3,71,81,768
3,63,89,2
3,59,89,768
3,64,91,0
3,68,88,0
3,61,89,1530
3,68,95,4
3,66,95,768
3,64,95,6
3,66,81,0
3,71,86,0
3,63,93,0
3,61,90,20752
3,66,78,768
3,68,72,0
3,66,78,26
3,68,78,0
3,66,78,456
3,68,99,672
3,66,78,122
3,68,109,672
3,66,52,958
3,68,106,0
3,66,53,6
3,68,113,96
3,66,47,184
3,68,111,72
3,66,100,474
3,68,94,954
3,66,106,102
3,68,104,0
3,66,89,864
3,68,86,0
3,66,89,672
3,68,89,860
3,66,105,0
3,66,109,50
3,68,107,0
3,66,97,18
3,68,89,0
3,66,103,68
3,68,107,864
3,66,114,18
3,68,121,18
4,62,43,19006
4,62,42,24
4,60,40,12
4,62,44,0
4,62,34,24
4,60,36,72
4,62,53,0
4,62,43,24
4,57,33,742
4,60,46,98
4,60,46,54
4,60,39,16
4,62,36,0
4,60,45,20
4,62,32,0
4,60,25,120
4,62,30,26
4,62,16,24
4,62,45,408
4,60,39,164
4,62,37,2
4,60,38,96
4,62,38,0
4,60,24,4
4,62,39,146
4,60,14,168
4,60,27,40
4,62,40,80
4,60,18,96
4,62,45,240
4,60,34,0
4,62,41,96
4,62,23,16
4,60,30,938
4,60,37,34
4,62,31,18
4,62,40,64
4,60,31,90
4,62,43,12
4,60,34,96
4,62,39,94
4,62,20,24
4,60,38,460
4,60,51,32
4,62,38,124
4,62,44,44
4,60,33,18
4,62,41,96
4,60,33,84
4,62,34,10
4,60,28,106
4,60,25,24
4,60,31,392
4,62,47,86
4,60,39,112
4,62,45,68
4,60,38,112
4,62,44,48
4,60,29,138
4,62,39,68
4,62,29,14
4,60,38,742
4,62,42,72
4,60,40,96
4,62,38,86
4,60,39,26
4,62,41,72
4,67,45,20
4,58,37,264
4,63,49,2
4,65,51,38
4,65,55,50
4,63,47,130
4,65,47,6
4,63,41,2
4,65,52,2
4,63,37,144
4,60,43,434
4,63,45,98
4,65,51,114
4,65,45,28
4,63,45,32
4,65,51,96
4,63,38,108
4,65,45,68
4,63,45,124
4,63,47,476
4,65,49,0
4,63,44,134
4,65,46,102
4,63,43,2
4,65,48,4
4,63,41,14
4,63,43,26
4,65,44,0
4,63,45,88
4,65,45,56
4,63,37,126
4,63,40,340
4,65,63,0
4,63,43,96
4,65,46,92
4,63,46,14
4,65,49,0
4,63,45,0
4,65,47,96
4,70,45,24
4,66,51,336
4,66,47,62
4,68,45,84
4,68,51,36
4,66,42,196
4,68,42,14
4,66,36,0
4,68,40,8
4,66,38,120
4,68,42,8
4,66,44,96
4,66,49,460
4,68,49,104
4,68,42,30
4,66,40,102
4,68,47,8
4,66,47,126
4,68,49,2
4,66,49,76
4,68,52,62
4,66,51,184
4,66,37,14
4,68,56,150
4,66,45,0
4,68,47,132
4,66,44,92
4,68,55,102
4,66,42,6
4,68,49,86
4,66,44,96
4,68,48,70
4,66,43,116
4,66,61,258
4,68,57,4
4,66,55,86
4,68,61,6
4,66,43,144
4,68,64,4
4,66,56,158
4,66,55,32
4,68,53,4
4,73,51,126
4,69,61,172
4,71,55,98
4,71,53,42
4,69,59,130
4,69,50,38
4,71,61,38
4,69,57,2
4,71,60,28
4,69,43,42
4,69,64,450
4,71,66,98
4,71,62,42
4,69,62,130
4,69,53,38
4,71,64,38
4,69,60,2
4,71,64,28
4,69,49,18
4,69,69,138
4,69,68,18
4,71,62,20
4,69,67,32
4,69,58,46
4,71,69,72
4,69,65,26
4,71,66,88
4,69,59,220
4,71,65,396
4,69,61,106
4,71,65,6
4,69,55,172
4,69,59,26
4,71,63,0
4,69,59,0
4,71,59,4
4,68,47,106
4,71,60,324
4,73,63,0
4,73,60,46
4,71,61,178
4,71,66,34
4,73,63,0
4,71,70,108
4,73,68,0
4,66,47,18
4,71,66,346
4,71,70,46
4,73,59,312
4,73,64,16
4,71,59,132
4,73,62,96
4,73,49,20
4,71,63,108
4,73,61,18
4,71,59,168
4,73,49,22
4,71,53,6
4,73,51,2
4,71,61,144
4,73,54,6
4,73,59,2
4,71,60,142
4,73,62,152
4,71,56,110
4,73,73,22
4,71,70,18
4,73,68,2
4,71,66,114
4,73,74,22
4,71,76,114
4,73,74,18
4,71,70,18
4,73,80,48
4,71,76,66
4,73,74,42
4,71,80,144
4,73,82,18
4,71,82,42
4,73,93,18
4,71,81,168
4,73,90,42
4,73,78,90
4,71,81,120
4,73,87,88
4,71,75,10
4,71,80,174
4,73,89,4
4,71,78,6
4,73,89,98
4,71,73,282
4,73,78,128
4,71,73,90
4,73,84,88
4,71,53,32
4,71,78,148
4,73,80,96
4,71,73,82
4,73,78,74
4,71,65,248
4,73,75,78
4,71,71,94
4,73,75,0
4,71,56,32
4,71,67,376
4,73,74,106
4,71,37,2
4,73,78,0
4,71,51,118
4,73,77,68
4,71,70,24
4,73,90,72
4,71,85,180
4,73,91,16
4,78,89,186
4,74,84,306
4,74,93,52
4,76,76,2
4,76,86,36
4,74,89,2
4,76,93,28
4,74,86,4
4,76,93,12
4,71,76,186
4,74,84,170
4,74,93,52
