track,note,velocity,time
0,69,97,0
0,65,97,0
0,60,90,0
0,53,105,0
0,42,101,0
0,42,72,32
0,42,66,62
0,42,70,62
0,42,60,58
0,48,97,0
0,42,72,0
0,67,89,30
0,64,83,0
0,60,71,0
0,49,107,0
0,42,77,0
0,65,87,36
0,62,97,0
0,50,87,0
0,42,67,0
0,42,81,56
0,42,72,54
0,42,89,54
0,42,69,56
0,42,78,54
0,60,83,37
0,48,76,0
0,48,76,0
0,42,74,0
0,59,77,0
0,47,77,0
0,47,90,0
0,42,86,0
0,65,92,4
0,58,97,0
0,62,92,0
0,58,95,0
0,46,87,0
0,46,103,0
0,42,86,0
0,42,92,62
0,42,80,56
0,42,90,62
0,59,73,0
0,47,70,0
0,47,86,0
0,42,78,0
0,64,83,20
0,60,86,0
0,55,85,0
0,60,77,0
0,48,72,0
0,48,90,0
0,42,93,0
0,57,81,0
0,45,68,0
0,45,71,0
0,42,76,0
0,43,70,0
0,55,73,0
0,43,71,0
0,42,89,0
0,57,69,4
0,60,80,0
0,65,89,0
0,53,81,0
0,41,76,0
0,41,101,0
0,42,90,0
0,72,101,0
0,57,107,0
0,53,107,0
0,42,95,58
0,48,72,0
0,42,78,0
0,53,109,0
0,42,89,0
0,42,83,58
0,42,89,60
0,41,107,48
0,41,114,0
0,42,90,0
0,36,109,0
0,65,28,48
0,72,93,0
0,76,97,0
0,57,107,0
0,60,105,0
0,42,83,0
0,76,103,0
0,53,113,0
0,60,108,4
0,53,111,34
0,65,89,0
0,70,109,0
0,74,95,0
0,62,107,0
0,58,115,0
0,41,113,0
0,41,109,0
0,36,115,0
0,42,93,0
0,74,111,0
0,58,103,9
0,42,87,58
0,42,85,50
0,42,89,58
0,42,87,58
0,42,87,62
0,41,95,0
0,42,74,0
0,70,83,4
0,65,67,0
0,74,85,0
0,70,84,0
0,62,78,0
0,58,83,0
0,42,92,0
0,74,98,0
0,53,93,2
0,58,81,1
0,72,101,18
0,69,101,0
0,65,86,0
0,60,85,0
0,57,86,0
0,69,84,0
0,41,105,0
0,36,107,0
0,42,87,0
0,72,107,0
0,57,97,0
0,53,111,7
0,36,111,60
0,42,95,0
0,48,75,0
0,42,78,0
0,53,113,0
0,52,103,0
0,42,95,0
0,42,89,48
0,42,93,6
0,41,103,46
0,41,103,0
0,36,111,0
0,42,92,0
0,62,113,22
0,62,92,4
0,65,103,0
0,72,78,0
0,57,86,0
0,60,85,0
0,42,99,0
0,65,99,0
0,67,117,2
0,67,97,2
0,58,53,48
0,65,89,4
0,62,114,0
0,74,85,0
0,41,113,0
0,62,81,0
0,58,85,0
0,41,111,0
0,36,115,0
0,42,93,0
0,65,113,0
0,62,101,0
0,58,115,0
0,42,103,62
0,42,97,58
0,69,117,62
0,42,92,0
0,69,97,0
0,42,97,0
0,69,94,0
0,42,95,48
0,69,97,0
0,69,80,0
0,42,90,0
0,64,92,0
0,64,95,0
0,65,67,24
0,58,74,0
0,62,82,0
0,62,66,0
0,58,69,0
0,68,92,0
0,38,119,0
0,42,92,0
0,64,93,0
0,60,83,8
0,57,76,0
0,60,85,0
0,57,71,0
0,67,101,0
0,42,90,0
0,36,95,0
0,64,125,0
0,64,58,2
0,65,87,19
0,77,89,6
0,69,82,0
0,72,76,0
0,72,66,0
0,65,90,0
0,41,101,0
0,36,111,0
0,42,93,0
0,72,93,0
0,57,92,0
0,42,81,58
0,64,65,0
0,69,84,4
0,77,84,0
0,72,84,0
0,38,123,0
0,42,95,0
0,54,125,0
0,65,107,5
0,41,90,48
0,36,103,0
0,42,92,0
0,64,107,0
0,65,101,7
0,41,93,16
0,36,109,0
0,42,97,0
0,64,85,1
0,65,107,39
0,42,92,6
0,64,45,0
0,64,97,4
0,69,76,6
0,72,87,0
0,77,84,0
0,69,84,0
0,72,84,0
0,38,121,0
0,42,87,0
0,63,127,0
0,54,119,0
0,62,92,12
0,41,95,2
0,63,119,0
0,42,92,0
0,36,95,0
0,65,54,6
0,70,70,0
0,74,61,0
0,65,71,0
0,60,82,0
0,57,54,0
0,41,99,0
0,36,99,0
0,42,95,0
0,64,43,0
0,62,31,58
0,58,111,0
0,42,90,0
0,64,82,0
0,64,83,18
0,77,84,24
0,70,84,0
0,74,84,0
0,38,121,0
0,42,87,0
0,54,111,0
0,64,62,0
0,41,93,41
0,42,93,0
0,36,92,0
0,64,119,0
0,41,95,52
0,36,99,0
0,42,95,0
0,64,49,0
0,74,84,14
0,77,84,0
0,70,84,0
0,42,90,20
0,64,71,0
0,77,84,64
0,74,84,0
0,70,84,0
0,38,117,0
0,54,111,0
0,42,92,0
0,63,127,0
0,74,64,14
0,65,48,0
0,62,71,0
0,58,50,0
0,41,90,0
0,63,126,0
0,42,92,0
0,36,89,0
0,72,87,39
0,69,83,0
0,65,71,0
0,60,80,0
0,57,75,0
0,41,93,0
0,36,101,0
0,42,99,0
0,64,60,0
0,42,87,62
0,69,85,10
0,64,78,4
0,69,84,28
0,77,84,0
0,72,84,0
0,42,89,0
0,38,115,0
0,54,95,0
0,64,47,0
0,69,96,5
0,41,90,50
0,42,89,0
0,36,93,0
0,64,125,0
0,69,91,2
0,41,89,54
0,36,103,0
0,42,92,0
0,67,85,19
0,43,86,4
0,42,82,0
0,64,70,0
0,69,103,8
0,65,64,2
0,77,84,0
0,69,84,0
0,72,84,0
0,45,95,0
0,38,109,0
0,42,90,0
0,54,99,0
0,63,127,0
0,65,97,2
0,70,117,0
0,74,109,0
0,65,73,0
0,58,101,0
0,62,92,0
0,46,103,0
0,36,95,0
0,63,125,0
0,42,86,0
0,65,101,8
0,36,99,60
0,42,103,0
0,64,68,0
0,42,97,58
0,64,80,0
0,64,85,14
0,77,84,30
0,74,84,0
0,70,84,0
0,38,113,0
0,42,92,0
0,54,103,0
0,64,55,0
0,46,86,58
0,42,97,0
0,36,97,0
0,64,115,0
0,46,103,44
0,36,97,0
0,42,95,0
0,77,84,16
0,74,84,0
0,70,84,0
0,42,90,18
0,64,63,0
0,77,84,66
0,74,84,0
0,70,84,0
0,63,127,0
0,42,92,0
0,54,105,0
0,38,117,0
0,46,101,56
0,42,90,0
0,36,93,0
0,65,87,0
0,57,90,0
0,60,85,0
0,41,86,0
0,36,99,0
0,42,93,0
0,64,57,0
0,42,81,32
0,64,45,0
0,64,86,18
0,65,63,12
0,72,73,0
0,69,71,0
0,69,84,0
0,77,84,0
0,72,84,0
0,38,123,0
0,42,95,0
0,54,105,0
0,64,87,0
0,41,101,8
0,42,92,0
0,36,99,0
0,64,109,0
0,65,106,13
0,61,92,24
0,57,69,0
0,64,82,0
0,45,103,0
0,36,101,0
0,42,97,0
0,67,95,19
0,42,92,20
0,64,68,0
0,67,85,9
0,63,127,20
0,38,121,0
0,42,87,0
0,54,105,0
0,64,98,2
0,45,103,18
0,36,92,0
0,42,92,0
0,64,93,12
0,65,85,24
0,58,85,0
0,62,87,0
0,46,109,0
0,36,95,0
0,42,95,0
0,64,71,0
0,42,90,58
0,64,78,0
0,62,96,1
0,64,86,18
0,74,84,29
0,70,84,0
0,77,84,0
0,76,84,0
0,38,121,0
0,54,105,0
0,42,87,0
0,64,67,0
0,46,105,20
0,36,97,0
0,42,93,0
0,64,117,0
0,62,97,8
0,65,47,29
0,56,87,0
0,62,76,0
0,59,89,0
0,47,95,0
0,36,95,0
0,42,95,0
0,42,90,10
0,64,67,0
0,65,107,1
0,38,117,27
0,54,107,0
0,42,92,0
0,63,121,0
0,47,89,52
0,36,103,0
0,63,127,0
0,42,92,0
0,65,71,22
0,60,85,0
0,57,66,0
0,48,93,0
0,36,101,0
0,42,99,0
0,64,57,0
0,42,87,62
0,64,82,0
0,64,76,18
0,69,59,34
0,72,71,0
0,65,68,0
0,68,99,0
0,77,84,0
0,69,84,0
0,72,84,0
0,54,111,0
0,42,89,0
0,38,115,0
0,64,49,0
0,65,114,6
0,48,93,44
0,42,89,0
0,36,93,0
0,64,117,0
0,65,97,9
0,48,97,47
0,36,103,0
0,42,92,0
0,64,35,0
0,64,86,8
0,42,82,18
0,64,66,0
0,65,96,5
0,65,63,20
0,63,127,0
0,42,90,0
0,67,91,6
0,70,113,8
0,74,103,0
0,65,82,0
0,62,99,0
0,58,103,0
0,70,103,0
0,74,89,0
0,46,121,0
0,54,111,0
0,38,109,0
0,36,95,0
0,42,86,0
0,62,106,13
0,42,103,54
0,42,97,26
0,42,92,62
0,42,97,15
0,42,95,3
0,65,48,1
0,60,95,0
0,57,87,0
0,45,109,0
0,36,97,0
0,42,90,0
0,42,92,0
0,65,71,14
0,58,103,0
0,62,78,0
0,46,113,0
0,42,90,0
0,36,93,0
0,42,93,20
0,60,87,27
0,65,85,0
0,57,87,0
0,45,103,0
0,36,114,0
0,42,81,0
0,42,95,64
0,58,107,12
0,65,80,0
0,62,87,0
0,46,119,0
0,42,92,0
0,36,99,0
0,42,97,19
0,45,85,6
0,36,101,0
0,42,92,0
0,43,87,4
0,38,121,0
0,42,87,0
0,63,64,0
0,63,114,4
0,41,95,16
0,36,92,0
0,63,114,0
0,42,92,0
0,64,114,8
0,77,85,13
0,72,86,14
0,65,87,2
0,60,93,0
0,57,86,0
0,41,103,0
0,36,95,0
0,42,95,0
0,64,71,0
0,69,62,4
0,42,90,58
0,64,82,0
0,64,81,1
0,65,123,9
0,77,84,4
0,69,84,0
0,72,84,0
0,54,113,0
0,38,121,0
0,42,87,0
0,64,83,0
0,41,95,27
0,36,97,0
0,42,93,0
0,64,117,0
0,65,103,3
0,41,101,12
0,36,95,0
0,42,95,0
0,64,49,0
0,64,89,1
0,42,90,24
0,64,64,0
0,65,101,4
0,65,59,27
0,72,71,0
0,69,58,0
0,77,84,0
0,72,84,0
0,69,84,0
0,63,127,0
0,38,117,0
0,54,111,0
0,42,92,0
0,64,92,6
0,70,80,46
0,65,60,0
0,74,76,0
0,41,92,0
0,36,103,0
0,42,92,0
0,62,93,7
0,58,69,2
0,62,90,0
0,41,101,0
0,36,101,0
0,42,99,0
0,64,60,0
0,42,87,62
0,64,82,0
0,64,77,18
0,74,84,30
0,77,84,0
0,70,84,0
0,54,113,0
0,42,89,0
0,38,115,0
0,41,90,45
0,42,89,0
0,36,93,0
0,64,111,0
0,41,101,47
0,36,103,0
0,42,92,0
0,77,84,14
0,70,84,0
0,74,84,0
0,77,72,22
0,74,76,0
0,70,83,0
0,42,82,0
0,64,69,0
0,77,84,43
0,74,84,0
0,70,84,0
0,63,126,0
0,54,109,0
0,38,109,0
0,42,90,0
0,41,85,0
0,36,95,0
0,42,86,0
0,77,73,43
0,72,81,0
0,69,75,0
0,65,77,0
0,60,75,0
0,57,75,0
0,41,89,0
0,36,99,0
0,42,103,0
0,64,64,0
0,42,97,58
0,64,77,0
0,69,92,15
0,64,71,4
0,69,84,33
0,77,84,0
0,72,84,0
0,38,113,0
0,54,113,0
0,42,92,0
0,64,49,0
0,69,97,3
0,41,87,45
0,42,97,0
0,36,97,0
0,64,121,0
0,69,96,6
0,41,81,22
0,36,97,0
0,42,95,0
0,64,53,0
0,67,96,7
0,43,83,12
0,42,90,0
0,64,60,0
0,69,96,11
0,72,84,14
0,77,84,0
0,69,84,0
0,45,92,0
0,63,127,0
0,42,92,0
0,54,103,0
0,38,117,0
0,72,91,17
0,70,80,6
0,74,85,0
0,65,83,0
0,62,99,0
0,58,105,0
0,46,93,0
0,42,90,0
0,36,93,0
0,65,98,3
0,36,99,64
0,42,93,0
0,64,65,0
0,42,81,48
0,64,66,18
0,74,84,12
0,77,84,0
0,70,84,0
0,38,123,0
0,42,95,0
0,54,99,0
0,64,69,0
0,46,103,48
0,42,92,0
0,36,99,0
0,64,123,0
0,46,109,44
0,36,101,0
0,42,97,0
0,77,84,10
0,70,84,0
0,74,84,0
0,42,92,18
0,64,66,0
0,77,84,20
0,70,84,0
0,74,84,0
0,38,121,0
0,54,105,0
0,42,87,0
0,63,126,0
0,46,93,0
0,63,125,0
0,36,92,0
0,42,92,0
0,57,69,4
0,65,76,0
0,60,83,0
0,41,71,0
0,36,95,0
0,42,95,0
0,64,38,0
0,42,90,58
0,64,83,0
0,64,66,18
0,69,93,8
0,77,86,0
0,72,93,0
0,77,84,0
0,69,84,0
0,72,84,0
0,38,121,0
0,54,109,0
0,42,87,0
0,41,85,26
0,36,97,0
0,42,93,0
0,64,115,0
0,65,120,16
0,61,97,6
0,57,71,0
0,64,86,0
0,45,95,0
0,36,95,0
0,42,95,0
0,64,54,0
0,67,85,17
0,67,93,22
0,69,93,0
0,76,93,0
0,73,105,0
0,42,90,0
0,64,75,0
0,67,85,14
0,38,117,2
0,54,109,0
0,42,92,0
0,63,119,0
0,64,85,4
0,45,99,36
0,63,119,0
0,36,103,0
0,42,92,0
0,64,91,7
0,70,70,32
0,65,63,0
0,74,62,0
0,58,93,0
0,65,81,0
0,62,74,0
0,46,101,0
0,36,101,0
0,42,99,0
0,64,103,11
0,42,87,62
0,64,64,0
0,65,86,4
0,64,66,18
0,70,84,25
0,65,84,0
0,74,84,0
0,42,89,0
0,38,115,0
0,54,101,0
0,64,47,0
0,67,89,5
0,68,86,8
0,71,77,0
0,74,85,0
0,65,68,0
0,46,111,0
0,42,89,0
0,36,93,0
0,64,119,0
0,62,111,19
0,65,80,32
0,62,82,0
0,56,65,0
0,59,81,0
0,47,93,0
0,36,103,0
0,42,92,0
0,65,60,12
0,42,82,0
0,64,67,0
0,65,80,64
0,68,90,0
0,71,83,0
0,74,83,0
0,63,127,0
0,54,105,0
0,38,109,0
0,42,90,0
0,47,83,16
0,36,95,0
0,42,86,0
0,69,83,28
0,72,80,0
0,65,65,0
0,60,89,0
0,65,77,0
0,57,69,0
0,48,99,0
0,36,99,0
0,42,103,0
0,64,114,0
0,42,97,58
0,64,73,0
0,64,69,14
0,65,107,21
0,54,105,6
0,38,113,0
0,42,92,0
0,64,60,0
0,48,93,20
0,42,97,0
0,36,97,0
0,64,121,0
0,65,101,9
0,48,90,36
0,36,97,0
0,42,95,0
0,64,46,0
0,64,85,7
0,42,90,8
0,64,75,0
0,65,91,3
0,72,69,27
0,65,52,0
0,69,63,0
0,42,92,0
0,38,117,0
0,54,82,0
0,67,95,3
0,70,105,14
0,65,93,0
0,62,92,0
0,65,76,0
0,58,109,0
0,62,101,0
0,74,80,0
0,70,90,0
0,46,119,0
0,63,127,0
0,54,114,0
0,42,90,0
0,36,93,0
0,62,127,0
0,50,117,0
0,62,96,4
0,62,117,1
0,42,93,38
0,42,81,58
0,42,95,66
0,42,92,56
0,42,97,62
0,65,86,41
0,60,90,0
0,57,89,0
0,57,107,0
0,60,99,0
0,45,105,0
0,36,101,0
0,42,92,0
0,60,120,0
0,48,110,0
0,60,110,1
0,42,87,14
0,65,80,25
0,58,95,0
0,62,93,0
0,58,109,0
0,62,89,0
0,46,111,0
0,36,92,0
0,42,92,0
0,62,127,0
0,62,119,0
0,50,119,0
0,42,95,62
0,60,85,40
0,57,76,0
0,60,85,0
0,57,81,0
0,45,107,0
0,36,95,0
0,42,90,0
0,60,113,0
0,60,103,0
0,48,103,0
0,62,87,0
0,58,97,0
0,42,87,0
0,62,122,0
0,62,112,0
0,50,112,0
0,58,107,29
0,65,82,0
0,62,93,0
0,64,90,0
0,60,82,0
0,46,111,0
0,36,97,0
0,42,93,0
0,64,108,0
0,52,98,0
0,64,98,4
0,65,74,0
0,62,89,0
0,42,95,0
0,65,113,0
0,53,103,0
0,65,103,5
0,67,101,56
0,67,77,0
0,64,74,0
0,46,115,0
0,36,95,0
0,42,90,0
0,64,45,0
0,67,111,0
0,55,101,0
0,69,83,0
0,69,74,0
0,65,89,0
0,38,117,0
0,42,92,0
0,63,127,0
0,69,93,0
0,57,83,0
0,58,82,6
0,65,80,0
0,62,89,0
0,70,123,0
0,67,80,0
0,46,114,0
0,63,119,0
0,36,103,0
0,42,92,0
0,70,125,0
0,58,115,0
0,70,115,14
0,69,111,39
0,72,115,0
0,76,113,0
