track,note,velocity,time
1,51,116,0
1,58,116,0
1,63,116,0
1,51,88,2
1,58,88,0
1,63,88,0
1,51,88,50
1,58,88,0
1,63,88,0
1,51,88,50
1,58,88,0
1,63,88,0
1,51,88,50
1,58,88,0
1,63,88,0
1,51,116,50
1,58,116,0
1,63,116,0
1,51,88,2
1,58,88,0
1,63,88,0
1,46,116,50
1,53,116,0
1,58,116,0
1,46,88,2
1,53,88,0
1,58,88,0
1,46,88,50
1,53,88,0
1,58,88,0
1,46,116,50
1,53,116,0
1,58,116,0
1,46,88,2
1,53,88,0
1,58,88,0
1,46,88,50
1,53,88,0
1,58,88,0
1,46,88,50
1,53,88,0
1,58,88,0
1,46,116,50
1,53,116,0
1,58,116,0
1,46,88,2
1,53,88,0
1,58,88,0
1,48,88,50
1,55,88,0
1,60,88,0
1,48,88,50
1,55,88,0
1,60,88,0
1,48,116,50
1,55,116,0
1,60,116,0
1,48,88,2
1,55,88,0
1,60,88,0
1,48,88,50
1,55,88,0
1,60,88,0
1,48,116,50
1,55,116,0
1,60,116,0
1,48,88,2
1,55,88,0
1,60,88,0
1,43,116,50
1,50,116,0
1,55,116,0
1,43,88,2
1,50,88,0
1,55,88,0
1,43,88,50
1,50,88,0
1,55,88,0
1,43,116,50
1,50,116,0
1,55,116,0
1,43,88,2
1,50,88,0
1,55,88,0
1,43,88,50
1,50,88,0
1,55,88,0
1,43,88,50
1,50,88,0
1,55,88,0
1,43,116,50
1,50,116,0
1,55,116,0
1,43,88,2
1,50,88,0
1,55,88,0
1,44,88,50
1,51,88,0
1,56,88,0
1,44,88,50
1,51,88,0
1,56,88,0
1,44,116,50
1,51,116,0
1,56,116,0
1,44,88,2
1,51,88,0
1,56,88,0
1,44,88,50
1,51,88,0
1,56,88,0
1,44,116,50
1,51,116,0
1,56,116,0
1,44,88,2
1,51,88,0
1,56,88,0
1,51,116,50
1,58,116,0
1,63,116,0
1,51,88,2
1,58,88,0
1,63,88,0
1,51,88,50
1,58,88,0
1,63,88,0
1,51,116,50
1,58,116,0
1,63,116,0
1,51,88,2
1,58,88,0
1,63,88,0
1,51,88,50
1,58,88,0
1,63,88,0
1,51,88,50
1,58,88,0
1,63,88,0
1,51,116,50
1,58,116,0
1,63,116,0
1,51,88,2
1,58,88,0
1,63,88,0
1,46,116,50
1,53,116,0
1,58,116,0
1,46,88,2
1,53,88,0
1,58,88,0
1,46,116,50
1,53,116,0
1,58,116,0
1,46,88,2
1,53,88,0
1,58,88,0
1,46,88,50
1,53,88,0
1,58,88,0
1,46,88,50
1,53,88,0
1,58,88,0
1,46,88,50
1,53,88,0
1,58,88,0
1,46,116,50
1,53,116,0
1,58,116,0
1,46,88,2
1,53,88,0
1,58,88,0
1,46,88,50
1,53,88,0
1,58,88,0
1,46,116,50
1,53,116,0
1,58,116,0
1,46,88,2
1,53,88,0
1,58,88,0
1,46,88,50
1,53,88,0
1,58,88,0
1,46,88,50
1,53,88,0
1,58,88,0
1,46,116,50
1,53,116,0
1,58,116,0
1,46,88,2
1,53,88,0
1,58,88,0
1,51,116,50
1,58,116,0
1,63,116,0
1,51,88,2
1,58,88,0
1,63,88,0
1,51,116,50
1,58,116,0
1,63,116,0
1,51,88,2
1,58,88,0
1,63,88,0
1,51,88,50
1,58,88,0
1,63,88,0
1,51,88,50
1,58,88,0
1,63,88,0
1,51,88,50
1,58,88,0
1,63,88,0
1,46,116,50
1,53,116,0
1,58,116,0
1,46,88,2
1,53,88,0
1,58,88,0
1,46,88,50
1,53,88,0
1,58,88,0
1,46,116,50
1,53,116,0
1,58,116,0
1,46,88,2
1,53,88,0
1,58,88,0
1,46,88,50
1,53,88,0
1,58,88,0
1,46,88,50
1,53,88,0
1,58,88,0
1,46,116,50
1,53,116,0
1,58,116,0
1,46,88,2
1,53,88,0
1,58,88,0
1,46,88,2
1,53,88,0
1,58,88,0
1,48,88,2
1,55,88,0
1,60,88,0
1,48,88,2
1,55,88,0
1,60,88,0
1,48,116,50
1,55,116,0
1,60,116,0
1,48,88,2
1,55,88,0
1,60,88,0
1,48,88,50
1,55,88,0
1,60,88,0
1,48,116,50
1,55,116,0
1,60,116,0
1,48,88,2
1,55,88,0
1,60,88,0
1,43,116,50
1,50,116,0
1,55,116,0
1,43,88,2
1,50,88,0
1,55,88,0
1,43,88,50
1,50,88,0
1,55,88,0
1,43,116,50
1,50,116,0
1,55,116,0
1,43,88,2
1,50,88,0
1,55,88,0
1,43,88,50
1,50,88,0
1,55,88,0
1,43,88,50
1,50,88,0
1,55,88,0
1,43,116,50
1,50,116,0
1,55,116,0
1,43,88,2
1,50,88,0
1,55,88,0
1,43,88,2
1,50,88,0
1,55,88,0
1,44,88,2
1,51,88,0
1,56,88,0
1,44,88,50
1,51,88,0
1,56,88,0
1,44,116,50
1,51,116,0
1,56,116,0
1,44,88,2
1,51,88,0
1,56,88,0
1,44,88,50
1,51,88,0
1,56,88,0
1,44,116,50
1,51,116,0
1,56,116,0
1,44,88,2
1,51,88,0
1,56,88,0
1,51,116,50
1,58,116,0
1,63,116,0
1,51,88,2
1,58,88,0
1,63,88,0
1,51,88,50
1,58,88,0
1,63,88,0
1,51,116,50
1,58,116,0
1,63,116,0
1,51,88,2
1,58,88,0
1,63,88,0
1,51,88,50
1,58,88,0
1,63,88,0
1,51,88,50
1,58,88,0
1,63,88,0
1,51,116,50
1,58,116,0
1,63,116,0
1,51,88,2
1,58,88,0
1,63,88,0
1,51,88,2
1,58,88,0
1,63,88,0
1,46,116,2
1,53,116,0
1,58,116,0
1,46,103,2
1,53,103,0
1,58,103,0
1,46,103,50
1,53,103,0
1,58,103,0
1,46,103,50
1,53,103,0
1,58,103,0
1,46,103,50
1,53,103,0
1,58,103,0
1,46,103,50
1,53,103,0
1,58,103,0
1,46,103,50
1,53,103,0
1,58,103,0
1,46,103,50
1,53,103,0
1,58,103,0
1,46,103,2
1,53,103,0
1,58,103,0
1,46,103,50
1,53,103,0
1,58,103,0
1,46,103,50
1,53,103,0
1,58,103,0
1,46,103,50
1,53,103,0
1,58,103,0
1,46,103,50
1,53,103,0
1,58,103,0
1,46,103,50
1,53,103,0
1,58,103,0
1,46,116,50
1,53,116,0
1,58,116,0
1,39,103,2
1,46,103,0
1,51,103,0
1,44,100,2
1,51,100,0
1,56,100,0
1,44,94,2
1,51,94,0
1,56,94,0
1,44,94,50
1,51,94,0
1,56,94,0
1,44,94,50
1,51,94,0
1,56,94,0
1,44,94,50
1,51,94,0
1,56,94,0
1,44,116,50
1,51,116,0
1,56,116,0
1,44,94,2
1,51,94,0
1,56,94,0
1,46,116,50
1,53,116,0
1,58,116,0
1,46,94,2
1,53,94,0
1,58,94,0
1,46,94,50
1,53,94,0
1,58,94,0
1,46,116,50
1,53,116,0
1,58,116,0
1,46,94,2
1,53,94,0
1,58,94,0
1,46,94,50
1,53,94,0
1,58,94,0
1,46,94,50
1,53,94,0
1,58,94,0
1,46,116,50
1,53,116,0
1,58,116,0
1,46,94,2
1,53,94,0
1,58,94,0
1,51,94,50
1,58,94,0
1,63,94,0
1,51,94,2
1,58,94,0
1,63,94,0
1,51,116,50
1,58,116,0
1,63,116,0
1,51,94,2
1,58,94,0
1,63,94,0
1,51,94,50
1,58,94,0
1,63,94,0
1,51,94,50
1,58,94,0
1,63,94,0
1,51,94,50
1,58,94,0
1,63,94,0
1,51,116,50
1,58,116,0
1,63,116,0
1,51,94,2
1,58,94,0
1,63,94,0
1,51,94,50
1,58,94,0
1,63,94,0
1,51,116,50
1,58,116,0
1,63,116,0
1,67,116,0
1,51,94,2
1,58,94,0
1,63,94,0
1,51,94,50
1,58,94,0
1,63,94,0
1,51,94,50
1,58,94,0
1,63,94,0
1,51,116,50
1,58,116,0
1,63,116,0
1,67,116,0
1,51,94,2
1,58,94,0
1,63,94,0
1,44,94,50
1,51,94,0
1,56,94,0
1,44,94,50
1,51,94,0
1,56,94,0
1,44,116,50
1,51,116,0
1,56,116,0
1,44,94,2
1,51,94,0
1,56,94,0
1,44,94,50
1,51,94,0
1,56,94,0
1,44,94,50
1,51,94,0
1,56,94,0
1,44,94,50
1,51,94,0
1,56,94,0
1,46,116,50
1,53,116,0
1,58,116,0
1,46,94,2
1,53,94,0
1,58,94,0
1,46,94,50
1,53,94,0
1,58,94,0
1,46,116,50
1,53,116,0
1,58,116,0
1,46,94,2
1,53,94,0
1,58,94,0
1,46,94,50
1,53,94,0
1,58,94,0
1,46,94,50
1,53,94,0
1,58,94,0
1,46,116,50
1,53,116,0
1,58,116,0
1,46,94,2
1,53,94,0
1,58,94,0
1,51,94,50
1,58,94,0
1,63,94,0
1,51,94,2
1,58,94,0
1,63,94,0
1,51,116,50
1,58,116,0
1,63,116,0
1,51,94,2
1,58,94,0
1,63,94,0
1,51,94,50
1,58,94,0
1,63,94,0
1,51,94,50
1,58,94,0
1,63,94,0
1,51,94,50
1,58,94,0
1,63,94,0
1,51,116,50
1,58,116,0
1,63,116,0
1,51,94,2
1,58,94,0
1,63,94,0
1,51,94,50
1,58,94,0
1,63,94,0
1,51,116,50
1,58,116,0
1,63,116,0
1,67,116,0
1,51,94,2
1,58,94,0
1,63,94,0
1,51,94,50
1,58,94,0
1,63,94,0
1,51,116,50
1,58,116,0
1,63,116,0
1,67,116,0
1,51,116,2
1,58,116,0
1,63,116,0
1,67,116,0
1,51,94,2
1,58,94,0
1,63,94,0
1,44,103,50
1,51,103,0
1,56,103,0
1,44,103,2
1,51,103,0
1,56,103,0
1,44,103,50
1,51,103,0
1,56,103,0
1,44,103,50
1,51,103,0
1,56,103,0
1,44,103,50
1,51,103,0
1,56,103,0
1,44,103,50
1,51,103,0
1,56,103,0
1,44,103,2
1,51,103,0
1,56,103,0
1,46,103,50
1,53,103,0
1,58,103,0
1,46,103,2
1,53,103,0
1,58,103,0
1,46,103,50
1,53,103,0
1,58,103,0
1,46,103,50
1,53,103,0
1,58,103,0
1,46,103,2
1,53,103,0
1,58,103,0
1,46,103,50
1,53,103,0
1,58,103,0
1,46,103,50
1,53,103,0
1,58,103,0
1,46,103,50
1,53,103,0
1,58,103,0
1,46,103,2
1,53,103,0
1,58,103,0
1,51,112,0
1,58,112,0
1,63,112,0
1,49,112,2
1,56,112,0
1,61,112,0
1,49,112,2
1,56,112,0
1,61,112,0
1,48,112,2
1,55,112,0
1,60,112,0
1,48,112,2
1,55,112,0
1,60,112,0
1,48,112,2
1,55,112,0
1,60,112,0
1,48,112,2
1,55,112,0
1,60,112,0
1,48,112,2
1,55,112,0
1,60,112,0
1,48,112,2
1,55,112,0
1,60,112,0
1,48,112,2
1,55,112,0
1,60,112,0
1,48,112,2
1,55,112,0
1,60,112,0
1,44,112,2
1,51,112,0
1,56,112,0
1,44,112,2
1,51,112,0
1,56,112,0
1,44,112,2
1,51,112,0
1,56,112,0
1,44,112,2
1,51,112,0
1,56,112,0
1,44,112,2
1,51,112,0
1,56,112,0
1,44,112,2
1,51,112,0
1,56,112,0
1,46,112,2
1,53,112,0
1,58,112,0
1,46,112,2
1,53,112,0
1,58,112,0
1,46,112,2
1,53,112,0
1,58,112,0
1,46,112,2
1,53,112,0
1,58,112,0
1,46,112,2
1,53,112,0
1,58,112,0
1,46,112,2
1,53,112,0
1,58,112,0
1,46,112,2
1,53,112,0
1,58,112,0
1,46,112,2
1,53,112,0
1,58,112,0
1,51,112,0
1,58,112,0
1,63,112,0
1,51,94,2
1,58,94,0
1,63,94,0
1,46,112,74
1,53,112,0
1,58,112,0
1,46,112,2
1,53,112,0
1,58,112,0
1,46,94,2
1,53,94,0
1,58,94,0
1,48,112,74
1,55,112,0
1,60,112,0
1,48,112,2
1,55,112,0
1,60,112,0
1,63,112,0
1,48,94,2
1,55,94,0
1,60,94,0
1,46,112,74
1,53,112,0
1,58,112,0
1,46,112,2
1,53,112,0
1,58,112,0
1,46,94,2
1,53,94,0
1,58,94,0
1,46,112,74
1,53,112,0
1,58,112,0
1,51,112,2
1,58,112,0
1,63,112,0
1,51,94,2
1,58,94,0
1,63,94,0
1,46,112,74
1,53,112,0
1,58,112,0
1,46,112,2
1,53,112,0
1,58,112,0
1,46,94,2
1,53,94,0
1,58,94,0
1,48,112,74
1,55,112,0
1,60,112,0
1,48,112,2
1,55,112,0
1,60,112,0
1,63,112,0
1,48,94,2
1,55,94,0
1,60,94,0
1,46,112,74
1,53,112,0
1,58,112,0
1,46,112,2
1,53,112,0
1,58,112,0
1,46,94,2
1,53,94,0
1,58,94,0
1,46,112,74
1,53,112,0
1,58,112,0
1,39,112,0
1,46,112,0
1,51,112,0
1,39,112,2
1,46,112,0
1,51,112,0
1,39,112,2
1,46,112,0
1,51,112,0
1,39,112,2
1,46,112,0
1,51,112,0
1,39,112,2
1,46,112,0
1,51,112,0
1,46,112,2
1,53,112,0
1,58,112,0
1,46,112,2
1,53,112,0
1,58,112,0
1,46,112,2
1,53,112,0
1,58,112,0
1,46,112,2
1,53,112,0
1,58,112,0
1,46,112,2
1,53,112,0
1,58,112,0
1,46,112,2
1,53,112,0
1,58,112,0
1,48,112,2
1,55,112,0
1,60,112,0
1,48,112,2
1,55,112,0
1,60,112,0
1,48,112,2
1,55,112,0
1,60,112,0
1,48,112,2
1,55,112,0
1,60,112,0
1,48,112,2
1,55,112,0
1,60,112,0
1,48,112,2
1,55,112,0
1,60,112,0
1,43,112,2
1,50,112,0
1,55,112,0
1,43,112,2
1,50,112,0
1,55,112,0
1,43,112,2
1,50,112,0
1,55,112,0
1,43,112,2
1,50,112,0
1,55,112,0
1,43,112,2
1,50,112,0
1,55,112,0
1,43,112,2
1,50,112,0
1,55,112,0
1,44,112,0
1,51,112,18
1,56,112,24
1,58,112,24
1,44,112,2
1,51,112,0
1,56,112,0
1,60,112,0
1,44,112,2
1,51,112,0
1,56,112,0
1,60,112,0
1,44,112,2
1,51,112,0
1,56,112,0
1,58,112,0
1,46,112,0
1,51,112,0
1,58,112,0
1,46,112,2
1,51,112,0
1,58,112,0
1,46,112,2
1,51,112,0
1,58,112,0
1,51,112,0
1,58,112,0
1,63,112,0
1,46,112,0
1,51,112,0
1,58,112,0
1,46,112,2
1,51,112,0
1,58,112,0
1,46,112,2
1,51,112,0
1,58,112,0
1,46,112,2
1,53,112,0
1,58,112,0
1,46,112,2
1,53,112,0
1,58,112,0
1,46,112,2
1,53,112,0
1,58,112,0
1,46,112,2
1,53,112,0
1,58,112,0
1,46,112,2
1,53,112,0
1,58,112,0
1,46,112,2
1,53,112,0
1,58,112,0
1,46,112,2
1,53,112,0
1,58,112,0
1,46,112,2
1,53,112,0
1,58,112,0
1,46,112,2
1,53,112,0
1,58,112,0
1,46,112,2
1,53,112,0
1,58,112,0
1,46,112,2
1,53,112,0
1,58,112,0
1,46,112,2
1,53,112,0
1,58,112,0
1,46,112,2
1,53,112,0
1,58,112,0
1,39,112,2
1,46,112,0
1,51,112,0
1,51,112,2
1,58,112,0
1,63,112,0
1,39,112,2
1,46,112,0
1,51,112,0
1,39,112,2
1,46,112,0
1,51,112,0
1,39,112,2
1,46,112,0
1,51,112,0
1,46,112,2
1,53,112,0
1,58,112,0
1,46,112,2
1,53,112,0
1,58,112,0
1,46,112,2
1,53,112,0
1,58,112,0
1,46,112,2
1,53,112,0
1,58,112,0
1,46,112,2
1,53,112,0
1,58,112,0
1,46,112,2
1,53,112,0
1,58,112,0
1,48,112,2
1,55,112,0
1,60,112,0
1,48,112,2
1,55,112,0
1,60,112,0
1,48,112,2
1,55,112,0
1,60,112,0
1,48,112,2
1,55,112,0
1,60,112,0
1,48,112,2
1,55,112,0
1,60,112,0
1,43,112,2
1,50,112,0
1,55,112,0
1,43,112,2
1,50,112,0
1,55,112,0
1,43,112,2
1,50,112,0
1,55,112,0
1,43,112,2
1,50,112,0
1,55,112,0
1,43,112,2
1,50,112,0
1,55,112,0
1,43,112,2
1,50,112,0
1,55,112,0
1,44,112,0
1,51,112,18
