track,note,velocity,time
0,57,127,32
0,40,127,0
0,49,127,32
0,36,127,0
0,46,127,0
0,46,106,0
0,58,106,0
0,53,106,0
0,40,127,32
0,44,127,0
0,46,127,0
0,46,106,0
0,58,106,0
0,53,106,0
0,44,127,16
0,46,127,0
0,46,106,0
0,58,106,0
0,53,106,0
0,36,127,16
0,44,127,0
0,46,127,0
0,46,106,0
0,58,106,0
0,53,106,0
0,36,127,16
0,44,127,0
0,46,127,0
0,41,106,0
0,53,106,0
0,48,106,0
0,40,127,16
0,44,127,0
0,53,127,0
0,36,127,16
0,44,127,0
0,43,127,0
0,43,106,0
0,55,106,0
0,50,106,0
0,44,127,16
0,36,127,16
0,44,127,0
0,41,127,0
0,41,106,0
0,53,106,0
0,48,106,0
0,40,127,16
0,44,127,0
0,44,127,16
0,41,127,0
0,41,106,0
0,53,106,0
0,48,106,0
0,36,127,16
0,44,127,0
0,41,127,0
0,41,106,0
0,53,106,0
0,48,106,0
0,36,127,16
0,44,127,0
0,43,127,0
0,41,106,0
0,53,106,0
0,48,106,0
0,40,127,16
0,55,127,0
0,55,127,0
0,40,127,0
0,46,127,0
0,41,106,0
0,48,106,0
0,53,106,0
0,48,127,16
0,41,106,0
0,53,106,0
0,48,106,0
0,49,127,16
0,36,127,0
0,46,127,0
0,46,106,0
0,58,106,0
0,53,106,0
0,40,127,32
0,44,127,0
0,46,127,0
0,46,106,0
0,58,106,0
0,53,106,0
0,44,127,16
0,46,127,0
0,46,106,0
0,58,106,0
0,53,106,0
0,36,127,16
0,44,127,0
0,46,127,0
0,46,106,0
0,58,106,0
0,53,106,0
0,36,127,16
0,44,127,0
0,46,127,0
0,41,106,0
0,53,106,0
0,48,106,0
0,40,127,16
0,44,127,0
0,53,127,0
0,36,127,16
0,44,127,0
0,43,127,0
0,43,106,0
0,55,106,0
0,50,106,0
0,44,127,16
0,36,127,16
0,44,127,0
0,41,127,0
0,41,106,0
0,53,106,0
0,48,106,0
0,40,127,16
0,44,127,0
0,44,127,16
0,41,127,0
0,41,106,0
0,53,106,0
0,48,106,0
0,36,127,16
0,44,127,0
0,41,127,0
0,41,106,0
0,53,106,0
0,48,106,0
0,36,127,16
0,44,127,0
0,43,127,0
0,41,106,0
0,53,106,0
0,48,106,0
0,40,127,16
0,55,127,0
0,55,127,0
0,40,127,0
0,46,127,0
0,41,106,0
0,48,106,0
0,53,106,0
0,48,127,16
0,41,106,0
0,53,106,0
0,48,106,0
0,49,127,16
0,36,127,0
0,46,127,0
0,46,106,0
0,58,106,0
0,53,106,0
0,40,127,32
0,44,127,0
0,46,127,0
0,46,106,0
0,58,106,0
0,53,106,0
0,44,127,16
0,46,127,0
0,46,106,0
0,58,106,0
0,53,106,0
0,36,127,16
0,44,127,0
0,46,127,0
0,46,106,0
0,58,106,0
0,53,106,0
0,36,127,16
0,44,127,0
0,46,127,0
0,41,106,0
0,53,106,0
0,48,106,0
0,40,127,16
0,44,127,0
0,53,127,0
0,36,127,16
0,44,127,0
0,43,127,0
0,43,106,0
0,55,106,0
0,50,106,0
0,44,127,16
0,36,127,16
0,44,127,0
0,41,127,0
0,41,106,0
0,53,106,0
0,48,106,0
0,40,127,16
0,44,127,0
0,44,127,16
0,41,127,0
0,41,106,0
0,53,106,0
0,48,106,0
0,36,127,16
0,44,127,0
0,41,127,0
0,41,106,0
0,53,106,0
0,48,106,0
0,36,127,16
0,44,127,0
0,43,127,0
0,41,106,0
0,53,106,0
0,48,106,0
0,40,127,16
0,55,127,0
0,55,127,0
0,40,127,0
0,46,127,0
0,41,106,0
0,48,106,0
0,53,106,0
0,48,127,16
0,41,106,0
0,53,106,0
0,48,106,0
0,49,127,16
0,36,127,0
0,46,127,0
0,46,106,0
0,58,106,0
0,53,106,0
0,40,127,32
0,44,127,0
0,46,127,0
0,46,106,0
0,58,106,0
0,53,106,0
0,44,127,16
0,40,127,0
0,46,127,0
0,46,106,0
0,58,106,0
0,53,106,0
0,36,127,16
0,44,127,0
0,46,127,0
0,46,106,0
0,58,106,0
0,53,106,0
0,36,127,16
0,46,127,0
0,46,127,0
0,41,106,0
0,53,106,0
0,48,106,0
0,40,127,16
0,44,127,0
0,53,127,0
0,36,127,16
0,49,127,0
0,43,127,0
0,43,106,0
0,55,106,0
0,50,106,0
0,49,127,64
0,36,127,0
0,41,127,0
0,41,106,0
0,53,106,0
0,48,106,0
0,55,127,32
0,36,127,0
0,41,127,0
0,41,106,0
0,53,106,0
0,48,106,0
0,40,127,16
0,36,127,0
0,41,127,0
0,41,106,0
0,53,106,0
0,48,106,0
0,40,127,8
0,40,127,8
0,43,127,0
0,41,106,0
0,53,106,0
0,48,106,0
0,40,127,8
0,40,127,8
0,36,127,0
0,46,127,0
0,41,106,0
0,48,106,0
0,53,106,0
0,40,127,8
0,40,127,8
0,48,127,0
0,41,106,0
0,53,106,0
0,48,106,0
0,65,127,0
0,40,127,8
0,49,127,8
0,36,127,0
0,46,127,0
0,58,106,0
0,53,106,0
0,46,106,0
0,74,127,0
0,40,127,32
0,44,127,0
0,46,127,0
0,58,106,0
0,53,106,0
0,46,106,0
0,44,127,16
0,36,127,16
0,44,127,0
0,46,127,0
0,58,106,0
0,53,106,0
0,46,106,0
0,75,127,0
0,36,127,16
0,44,127,0
0,46,127,0
0,58,106,0
0,53,106,0
0,46,106,0
0,40,127,16
0,44,127,0
0,46,127,0
0,58,106,0
0,53,106,0
0,46,106,0
0,36,127,16
0,44,127,0
0,43,127,0
0,53,106,0
0,48,106,0
0,41,106,0
0,72,127,0
0,44,127,16
0,72,127,0
0,36,127,16
0,44,127,0
0,41,127,0
0,40,127,16
0,44,127,0
0,53,106,0
0,48,106,0
0,41,106,0
0,72,127,0
0,44,127,16
0,41,127,0
0,70,127,0
0,36,127,16
0,44,127,0
0,41,127,0
0,53,106,0
0,48,106,0
0,41,106,0
0,74,127,0
0,36,127,16
0,44,127,0
0,43,127,0
0,53,106,0
0,48,106,0
0,41,106,0
0,40,127,16
0,44,127,0
0,46,127,0
0,53,106,0
0,48,106,0
0,41,106,0
0,72,127,0
0,44,127,16
0,48,127,0
0,53,106,0
0,48,106,0
0,41,106,0
0,70,127,0
0,49,127,16
0,36,127,0
0,46,127,0
0,58,106,0
0,53,106,0
0,46,106,0
0,40,127,32
0,44,127,0
0,46,127,0
0,58,106,0
0,53,106,0
0,46,106,0
0,70,127,0
0,44,127,16
0,70,127,0
0,36,127,16
0,44,127,0
0,46,127,0
0,58,106,0
0,53,106,0
0,46,106,0
0,70,127,0
0,36,127,16
0,44,127,0
0,46,127,0
0,58,106,0
0,53,106,0
0,46,106,0
0,72,127,0
0,40,127,16
0,44,127,0
0,46,127,0
0,58,106,0
0,53,106,0
0,46,106,0
0,36,127,16
0,44,127,0
0,43,127,0
0,53,106,0
0,48,106,0
0,41,106,0
0,72,127,0
0,44,127,16
0,72,127,0
0,36,127,16
0,44,127,0
0,41,127,0
0,40,127,16
0,44,127,0
0,53,106,0
0,48,106,0
0,41,106,0
0,44,127,16
0,41,127,0
0,36,127,16
0,44,127,0
0,41,127,0
0,53,106,0
0,48,106,0
0,41,106,0
0,36,127,16
0,44,127,0
0,43,127,0
0,53,106,0
0,48,106,0
0,41,106,0
0,40,127,16
0,44,127,0
0,46,127,0
0,53,106,0
0,48,106,0
0,41,106,0
0,44,127,16
0,48,127,0
0,53,106,0
0,48,106,0
0,41,106,0
0,65,127,0
0,49,127,16
0,36,127,0
0,46,127,0
0,58,106,0
0,53,106,0
0,46,106,0
0,74,127,0
0,40,127,32
0,44,127,0
0,46,127,0
0,58,106,0
0,53,106,0
0,46,106,0
0,44,127,16
0,36,127,16
0,44,127,0
0,46,127,0
0,58,106,0
0,53,106,0
0,46,106,0
0,75,127,0
0,36,127,16
0,44,127,0
0,46,127,0
0,58,106,0
0,53,106,0
0,46,106,0
0,40,127,16
0,44,127,0
0,46,127,0
0,58,106,0
0,53,106,0
0,46,106,0
0,36,127,16
0,44,127,0
0,43,127,0
0,53,106,0
0,48,106,0
0,41,106,0
0,72,127,0
0,44,127,16
0,72,127,0
0,36,127,16
0,44,127,0
0,41,127,0
0,40,127,16
0,44,127,0
0,53,106,0
0,48,106,0
0,41,106,0
0,72,127,0
0,44,127,16
0,41,127,0
0,70,127,0
0,36,127,16
0,44,127,0
0,41,127,0
0,53,106,0
0,48,106,0
0,41,106,0
0,74,127,0
0,36,127,16
0,44,127,0
0,43,127,0
0,53,106,0
0,48,106,0
0,41,106,0
0,40,127,16
0,44,127,0
0,46,127,0
0,53,106,0
0,48,106,0
0,41,106,0
0,72,127,0
0,44,127,16
0,48,127,0
0,53,106,0
0,48,106,0
0,41,106,0
0,70,127,0
0,49,127,16
0,36,127,0
0,46,127,0
0,58,106,0
0,53,106,0
0,46,106,0
0,70,127,48
0,40,127,16
0,44,127,0
0,46,127,0
0,58,106,0
0,53,106,0
0,46,106,0
0,70,127,0
0,44,127,16
0,40,127,0
0,70,127,0
0,36,127,16
0,44,127,0
0,46,127,0
0,58,106,0
0,53,106,0
0,46,106,0
0,70,127,0
0,36,127,16
0,46,127,0
0,46,127,0
0,58,106,0
0,53,106,0
0,46,106,0
0,72,127,0
0,40,127,16
0,44,127,0
0,46,127,0
0,58,106,0
0,53,106,0
0,46,106,0
0,36,127,16
0,49,127,0
0,43,127,0
0,53,106,0
0,48,106,0
0,41,106,0
0,49,127,64
0,36,127,0
0,41,127,0
0,72,127,0
0,53,106,16
0,48,106,0
0,41,106,0
0,72,127,0
0,55,127,16
0,36,127,0
0,41,127,0
0,70,127,0
0,40,127,16
0,36,127,0
0,41,127,0
0,53,106,0
0,48,106,0
0,41,106,0
0,74,127,0
0,40,127,8
0,40,127,8
0,43,127,0
0,53,106,0
0,48,106,0
0,41,106,0
0,40,127,8
0,40,127,8
0,36,127,0
0,46,127,0
0,53,106,0
0,48,106,0
0,41,106,0
0,72,127,0
0,40,127,8
0,40,127,8
0,43,127,0
0,53,106,0
0,48,106,0
0,41,106,0
0,70,127,0
0,40,127,8
0,49,127,8
0,36,127,0
0,43,127,0
0,50,106,0
0,55,106,0
0,43,106,0
0,70,127,48
0,53,127,16
0,40,127,0
0,43,127,0
0,55,106,0
0,50,106,0
0,43,106,0
0,70,127,0
0,53,127,16
0,55,106,0
0,50,106,0
0,43,106,0
0,70,127,0
0,53,127,16
0,36,127,0
0,43,127,0
0,55,106,0
0,50,106,0
0,43,106,0
0,70,127,0
0,53,127,16
0,36,127,0
0,43,127,0
0,55,106,0
0,50,106,0
0,43,106,0
0,72,127,0
0,53,127,16
0,40,127,0
0,45,127,0
0,45,106,0
0,51,106,0
0,57,106,0
0,53,127,16
0,36,127,0
0,46,127,0
0,58,106,0
0,53,106,0
0,46,106,0
0,74,127,0
0,53,127,16
0,46,127,0
0,74,127,0
0,74,127,0
0,53,127,16
0,36,127,0
0,53,127,16
0,40,127,0
0,46,127,0
0,46,106,0
0,53,106,0
0,58,106,0
0,72,127,0
0,53,127,16
0,53,127,16
0,36,127,0
0,46,127,0
0,46,106,0
0,58,106,0
0,53,106,0
0,70,127,0
0,53,127,16
0,36,127,0
0,46,127,0
0,46,106,0
0,53,106,0
0,58,106,0
0,53,127,16
0,40,127,0
0,48,127,0
0,48,106,0
0,55,106,0
0,60,106,0
0,72,127,0
0,45,127,16
0,50,127,0
0,50,106,0
0,57,106,0
0,62,106,0
0,70,127,0
0,45,127,8
0,45,127,8
0,43,127,0
0,43,106,0
0,50,106,0
0,55,106,0
0,41,127,16
0,40,127,16
0,43,127,0
0,43,106,0
0,50,106,0
0,55,106,0
0,36,127,32
0,70,127,0
0,74,127,0
0,36,127,16
0,72,127,0
0,75,127,0
0,40,127,16
0,70,127,0
0,74,127,0
0,49,127,16
0,36,127,0
0,41,127,0
0,53,106,0
0,48,106,0
0,41,106,0
0,69,127,0
0,72,127,0
0,41,127,16
0,69,127,0
0,69,127,0
0,36,127,48
0,46,127,16
0,40,127,0
0,41,127,0
0,48,106,0
0,53,106,0
0,41,106,0
0,46,127,16
0,41,127,0
0,46,127,16
0,36,127,0
0,41,127,0
0,41,106,0
0,48,106,0
0,53,106,0
0,46,127,16
0,36,127,0
0,41,127,0
0,41,106,0
0,48,106,0
0,53,106,0
0,40,127,16
0,46,127,0
0,41,127,0
0,41,106,0
0,48,106,0
0,53,106,0
0,46,127,16
0,41,127,0
0,41,106,0
0,53,106,0
0,48,106,0
0,49,127,16
0,36,127,0
0,39,127,0
0,39,106,0
0,46,106,0
0,51,106,0
0,70,127,0
0,69,127,8
0,40,127,24
0,46,127,0
0,39,127,0
0,39,106,0
0,46,106,0
0,51,106,0
0,36,127,16
0,46,127,0
0,39,127,0
0,39,106,0
0,46,106,0
0,51,106,0
0,67,127,0
0,46,127,16
0,36,127,16
0,46,127,0
0,39,127,0
0,39,106,0
0,46,106,0
0,51,106,0
0,69,127,0
0,40,127,16
0,46,127,0
0,39,127,0
0,39,106,0
0,46,106,0
0,51,106,0
0,46,127,16
0,41,127,0
0,41,106,0
0,48,106,0
0,53,106,0
0,70,127,0
0,49,127,16
0,36,127,0
0,41,127,0
0,41,106,0
0,48,106,0
0,53,106,0
0,70,127,0
0,69,127,8
0,46,127,24
0,40,127,0
0,41,127,0
0,41,106,0
0,48,106,0
0,53,106,0
0,46,127,16
0,36,127,0
0,41,127,0
0,53,106,0
0,48,106,0
0,41,106,0
0,67,127,0
0,46,127,16
0,46,127,16
0,36,127,0
0,41,127,0
0,41,106,0
0,53,106,0
0,48,106,0
0,69,127,0
0,46,127,16
0,40,127,0
0,41,127,0
0,53,106,0
0,48,106,0
0,41,106,0
0,46,127,16
0,70,127,0
0,49,127,16
0,36,127,0
0,45,127,0
0,45,106,0
0,51,106,0
0,57,106,0
0,70,127,0
0,70,127,0
0,36,127,16
0,46,127,0
0,46,106,0
0,58,106,0
0,53,106,0
0,40,127,16
0,46,127,0
0,46,127,0
0,46,106,0
0,53,106,0
0,58,106,0
0,46,127,16
0,40,127,0
0,46,127,0
0,46,106,0
0,53,106,0
0,58,106,0
0,49,127,16
0,36,127,0
0,45,127,0
0,45,106,0
0,51,106,0
0,57,106,0
0,36,127,16
0,46,127,0
0,46,106,0
0,53,106,0
0,58,106,0
0,40,127,16
0,46,127,0
0,46,127,0
0,46,106,0
0,53,106,0
0,58,106,0
0,46,127,16
0,40,127,0
0,46,127,0
0,46,106,0
0,53,106,0
0,58,106,0
0,49,127,16
0,36,127,0
0,45,127,0
0,45,106,0
0,51,106,0
0,57,106,0
0,36,127,16
0,46,127,0
0,46,106,0
0,53,106,0
0,58,106,0
0,40,127,16
0,46,127,0
0,46,127,0
0,46,106,0
0,58,106,0
0,53,106,0
0,46,127,16
0,36,127,0
0,46,127,0
0,46,106,0
0,58,106,0
0,53,106,0
0,49,127,16
0,36,127,0
0,45,127,0
0,45,106,0
0,57,106,0
0,51,106,0
0,40,127,16
0,46,127,0
0,46,106,0
0,58,106,0
0,53,106,0
0,40,127,8
0,36,127,8
0,46,127,0
0,46,106,0
0,58,106,0
0,53,106,0
0,40,127,16
0,41,127,0
0,41,106,0
0,48,106,0
0,53,106,0
0,40,127,8
0,49,127,8
0,36,127,0
0,43,127,0
0,50,106,0
0,55,106,0
0,43,106,0
0,70,127,48
0,53,127,16
0,40,127,0
0,43,127,0
0,55,106,0
0,50,106,0
0,43,106,0
0,70,127,0
0,53,127,16
0,55,106,0
0,50,106,0
0,43,106,0
0,70,127,0
0,53,127,16
0,36,127,0
0,43,127,0
0,55,106,0
0,50,106,0
0,43,106,0
0,70,127,0
0,53,127,16
0,36,127,0
0,43,127,0
0,55,106,0
0,50,106,0
0,43,106,0
0,72,127,0
0,53,127,16
0,40,127,0
0,45,127,0
0,45,106,0
0,51,106,0
0,57,106,0
0,53,127,16
0,36,127,0
0,46,127,0
0,58,106,0
0,53,106,0
0,46,106,0
0,74,127,0
0,53,127,16
0,46,127,0
