track,note,velocity,time
3,62,127,864
3,62,0,96
3,71,127,0
3,71,0,64
3,71,127,32
3,71,0,94
3,72,127,2
3,72,0,190
3,71,127,2
3,71,0,190
3,71,127,962
3,71,0,64
3,71,127,32
3,71,0,94
3,69,127,2
3,69,0,94
3,67,127,2
3,67,0,64
3,67,127,32
3,67,0,190
3,71,127,962
3,71,0,64
3,71,127,32
3,71,0,64
3,71,127,32
3,71,0,94
3,72,127,2
3,72,0,94
3,71,127,2
3,71,0,190
3,71,127,866
3,71,0,64
3,71,127,32
3,71,0,64
3,71,127,32
3,71,0,64
3,71,127,32
3,71,0,190
3,74,127,2
3,74,0,190
3,76,127,2
3,76,0,286
3,74,127,2
3,74,0,94
3,71,127,2
3,71,0,286
3,79,127,674
3,76,127,0
3,79,0,128
3,76,0,0
3,76,127,64
3,79,127,0
3,76,0,190
3,79,0,0
3,74,127,2
3,79,127,0
3,74,0,128
3,79,0,0
3,74,127,64
3,79,127,0
3,74,0,94
3,79,0,0
3,71,127,2
3,79,127,0
3,71,0,190
3,79,0,0
3,74,127,2
3,79,127,0
3,74,0,190
3,79,0,0
3,71,127,2
3,71,0,64
3,71,127,32
3,71,0,64
3,71,127,32
3,71,0,64
3,71,127,32
3,71,0,190
3,74,127,2
3,74,0,190
3,76,127,2
3,76,0,286
3,74,127,2
3,74,0,94
3,71,127,2
3,71,0,286
3,76,127,674
3,79,127,0
3,76,0,94
3,79,0,0
3,74,127,2
3,79,127,0
3,74,0,94
3,79,0,0
3,76,127,2
3,79,127,0
3,76,0,94
3,79,0,0
3,74,127,2
3,79,127,0
3,74,0,64
3,79,0,0
3,74,127,32
3,79,127,0
3,74,0,128
3,79,0,0
3,74,127,64
3,79,127,0
3,74,0,94
3,79,0,0
3,71,127,2
3,79,127,0
3,71,0,190
3,79,0,0
3,79,127,2
3,74,127,0
3,79,0,286
3,74,0,0
3,71,127,386
3,71,0,94
3,72,127,2
3,72,0,192
3,72,127,96
3,72,0,190
3,74,127,2
3,74,0,190
3,72,127,2
3,72,0,94
3,71,127,2
3,71,0,190
3,69,127,2
3,69,0,128
3,69,127,64
3,69,0,128
3,69,127,64
3,69,0,190
3,71,127,2
3,71,0,94
3,72,127,2
3,72,0,128
3,72,127,64
3,72,0,190
3,74,127,2
3,74,0,94
3,72,127,2
3,72,0,94
3,71,127,2
3,71,0,94
3,69,127,2
3,69,0,286
3,67,127,386
3,67,0,190
3,76,127,2
3,76,0,128
3,76,127,64
3,76,0,128
3,76,127,64
3,76,0,128
3,76,127,64
3,76,0,96
3,74,127,0
3,74,0,192
3,71,127,0
3,71,0,128
3,71,127,64
3,71,0,192
3,72,127,0
3,72,0,96
3,74,127,0
3,74,0,96
3,72,127,0
3,72,0,224
3,72,127,64
3,72,0,288
3,72,127,384
3,72,0,64
3,72,127,32
3,72,0,64
3,72,127,32
3,72,0,64
3,72,127,32
3,72,0,128
3,72,127,64
3,72,0,192
3,71,127,0
3,71,0,96
3,67,127,0
3,67,0,192
3,71,127,3744
3,71,0,64
3,71,127,32
3,71,0,94
3,71,127,2
3,71,0,96
3,72,127,0
3,72,0,96
3,71,127,0
3,71,0,190
3,71,127,962
3,71,0,64
3,71,127,32
3,71,0,94
3,69,127,2
3,69,0,94
3,67,127,2
3,67,0,64
3,67,127,32
3,67,0,190
3,71,127,962
3,71,0,64
3,71,127,32
3,71,0,64
3,71,127,32
3,71,0,94
3,72,127,2
3,72,0,94
3,71,127,2
3,71,0,190
3,71,127,962
3,71,0,64
3,71,127,32
3,71,0,64
3,69,127,32
3,69,0,64
3,67,127,32
3,67,0,64
3,78,127,32
3,78,0,48
3,74,127,0
3,74,0,48
3,67,127,0
3,67,0,48
3,62,127,0
3,62,0,48
3,71,127,960
3,71,0,64
3,71,127,32
3,71,0,64
3,71,127,32
3,71,0,96
3,72,127,0
3,72,0,96
3,71,127,0
3,71,0,190
3,71,127,962
3,71,0,64
3,71,127,32
3,71,0,94
3,69,127,2
3,69,0,94
3,67,127,2
3,67,0,64
3,67,127,32
3,67,0,190
3,71,127,962
3,71,0,64
3,71,127,32
3,71,0,64
3,71,127,32
3,71,0,94
3,72,127,2
3,72,0,94
3,71,127,2
3,71,0,190
3,71,127,866
3,71,0,64
3,71,127,32
3,71,0,64
3,71,127,32
3,71,0,64
3,71,127,32
3,71,0,190
3,74,127,2
3,74,0,190
3,76,127,2
3,76,0,286
3,74,127,2
3,74,0,94
3,71,127,2
3,71,0,286
3,79,127,674
3,76,127,0
3,79,0,128
3,76,0,0
3,76,127,64
3,79,127,0
3,76,0,190
3,79,0,0
3,74,127,2
3,79,127,0
3,74,0,128
3,79,0,0
3,74,127,64
3,79,127,0
3,74,0,94
3,79,0,0
3,71,127,2
3,79,127,0
3,71,0,190
3,79,0,0
3,74,127,2
3,79,127,0
3,74,0,190
3,79,0,0
3,71,127,2
3,71,0,64
3,71,127,32
3,71,0,64
3,71,127,32
3,71,0,64
3,71,127,32
3,71,0,190
3,74,127,2
3,74,0,190
3,76,127,2
3,76,0,286
3,74,127,2
3,74,0,94
3,71,127,2
3,71,0,286
3,76,127,674
3,79,127,0
3,76,0,94
3,79,0,0
3,74,127,2
3,79,127,0
3,74,0,94
3,79,0,0
3,76,127,2
3,79,127,0
3,76,0,94
3,79,0,0
3,74,127,2
3,79,127,0
3,74,0,64
3,79,0,0
3,74,127,32
3,79,127,0
3,74,0,128
3,79,0,0
3,74,127,64
3,79,127,0
3,74,0,94
3,79,0,0
3,71,127,2
3,79,127,0
3,71,0,190
3,79,0,0
3,79,127,2
3,74,127,0
3,79,0,286
3,74,0,0
3,71,127,386
3,71,0,94
3,72,127,2
3,72,0,192
3,72,127,96
3,72,0,190
3,74,127,2
3,74,0,190
3,72,127,2
3,72,0,94
3,71,127,2
3,71,0,190
3,69,127,2
3,69,0,128
3,69,127,64
3,69,0,128
3,69,127,64
3,69,0,190
3,71,127,2
3,71,0,94
3,72,127,2
3,72,0,128
3,72,127,64
3,72,0,190
3,74,127,2
3,74,0,94
3,72,127,2
3,72,0,94
3,71,127,2
3,71,0,94
3,69,127,2
3,69,0,286
3,67,127,386
3,67,0,190
3,76,127,2
3,76,0,128
3,76,127,64
3,76,0,128
3,76,127,64
3,76,0,128
3,76,127,64
3,76,0,96
3,74,127,0
3,74,0,192
3,71,127,0
3,71,0,128
3,71,127,64
3,71,0,192
3,72,127,0
3,72,0,96
3,74,127,0
3,74,0,96
3,72,127,0
3,72,0,224
3,72,127,64
3,72,0,288
3,72,127,384
3,72,0,64
3,72,127,32
3,72,0,64
3,72,127,32
3,72,0,64
3,72,127,32
3,72,0,128
3,72,127,64
3,72,0,192
3,71,127,0
3,71,0,96
3,67,127,0
3,67,0,288
3,71,127,3648
3,71,0,64
3,71,127,32
3,71,0,64
3,71,127,32
3,71,0,96
3,72,127,0
3,72,0,96
3,71,127,0
3,71,0,192
3,71,127,960
3,71,0,64
3,71,127,32
3,71,0,96
3,69,127,0
3,69,0,96
3,67,127,0
3,67,0,64
3,67,127,32
3,67,0,192
3,71,127,960
3,71,0,64
3,71,127,32
3,71,0,64
3,71,127,32
3,71,0,96
3,72,127,0
3,72,0,96
3,71,127,0
3,71,0,192
3,71,127,864
3,71,0,64
3,71,127,32
3,71,0,64
3,71,127,32
3,71,0,64
3,71,127,32
3,71,0,192
3,74,127,0
3,74,0,192
3,76,127,0
3,76,0,286
3,74,127,2
3,74,0,94
3,71,127,2
3,71,0,286
3,79,127,674
3,76,127,0
3,79,0,128
3,76,0,0
3,76,127,64
3,79,127,0
3,76,0,190
3,79,0,0
3,74,127,2
3,79,127,0
3,74,0,128
3,79,0,0
3,74,127,64
3,79,127,0
3,74,0,94
3,79,0,0
3,71,127,2
3,79,127,0
3,71,0,190
3,79,0,0
3,74,127,2
3,79,127,0
3,74,0,190
3,79,0,0
3,71,127,2
3,71,0,64
3,71,127,32
3,71,0,64
3,71,127,32
3,71,0,64
3,71,127,32
3,71,0,190
3,74,127,2
3,74,0,190
3,76,127,2
3,76,0,286
3,74,127,2
3,74,0,94
3,71,127,2
3,71,0,286
3,76,127,674
3,79,127,0
3,76,0,94
3,79,0,0
3,74,127,2
3,79,127,0
3,74,0,94
3,79,0,0
3,76,127,2
3,79,127,0
3,76,0,94
3,79,0,0
3,74,127,2
3,79,127,0
3,74,0,64
3,79,0,0
3,74,127,32
3,79,127,0
3,74,0,128
3,79,0,0
3,74,127,64
3,79,127,0
3,74,0,94
3,79,0,0
3,71,127,2
3,79,127,0
3,71,0,190
3,79,0,0
3,79,127,2
3,74,127,0
3,79,0,286
3,74,0,0
3,71,127,386
3,71,0,94
3,72,127,2
3,72,0,192
3,72,127,96
3,72,0,190
3,74,127,2
3,74,0,190
3,72,127,2
3,72,0,94
3,71,127,2
3,71,0,190
3,69,127,2
3,69,0,128
3,69,127,64
3,69,0,128
3,69,127,64
3,69,0,190
3,71,127,2
3,71,0,94
3,72,127,2
3,72,0,128
3,72,127,64
3,72,0,190
3,74,127,2
3,74,0,94
3,72,127,2
3,72,0,94
3,71,127,2
3,71,0,94
3,69,127,2
3,69,0,286
3,67,127,386
3,67,0,190
3,76,127,2
3,76,0,128
3,76,127,64
3,76,0,128
3,76,127,64
3,76,0,128
3,76,127,64
3,76,0,96
3,74,127,0
3,74,0,192
3,71,127,0
3,71,0,128
3,71,127,64
3,71,0,192
3,72,127,0
3,72,0,96
3,74,127,0
3,74,0,96
3,72,127,0
3,72,0,224
3,72,127,64
3,72,0,288
3,72,127,384
3,72,0,64
3,72,127,32
3,72,0,64
3,72,127,32
3,72,0,64
3,72,127,32
3,72,0,128
3,72,127,64
3,72,0,192
3,71,127,0
3,71,0,96
3,67,127,0
3,67,0,192
4,55,127,0
4,50,127,0
4,43,127,0
4,55,0,94
4,50,0,0
4,43,0,0
4,55,127,2
4,50,127,0
4,43,127,0
4,55,0,46
4,50,0,0
4,43,0,0
4,55,127,2
4,50,127,0
4,43,127,0
4,55,0,46
4,50,0,0
4,43,0,0
4,55,127,2
4,50,127,0
4,43,127,0
4,55,0,94
4,50,0,0
4,43,0,0
4,60,127,2
4,55,127,0
4,48,127,0
4,60,0,128
4,55,0,0
4,48,0,0
4,60,127,64
4,55,127,0
4,48,127,0
4,60,0,128
4,55,0,0
4,48,0,0
4,60,127,64
4,55,127,0
4,48,127,0
4,60,0,94
4,55,0,0
4,48,0,0
4,55,127,2
4,50,127,0
4,43,127,0
4,55,0,128
4,50,0,0
4,43,0,0
4,55,127,640
4,50,127,0
4,43,127,0
4,55,0,94
4,50,0,0
4,43,0,0
4,55,127,2
4,50,127,0
4,43,127,0
4,55,0,46
4,50,0,0
4,43,0,0
4,55,127,2
4,50,127,0
4,43,127,0
4,55,0,46
4,50,0,0
4,43,0,0
4,55,127,2
4,50,127,0
4,43,127,0
4,55,0,94
4,50,0,0
4,43,0,0
4,60,127,2
4,55,127,0
4,48,127,0
4,60,0,128
4,55,0,0
4,48,0,0
4,60,127,64
4,55,127,0
4,48,127,0
4,60,0,128
4,55,0,0
4,48,0,0
4,60,127,64
4,55,127,0
4,48,127,0
4,60,0,94
4,55,0,0
4,48,0,0
4,55,127,2
4,50,127,0
4,43,127,0
4,55,0,128
4,50,0,0
4,43,0,0
4,55,127,0
4,50,127,0
4,43,127,0
4,55,0,94
4,50,0,0
4,43,0,0
4,55,127,2
4,50,127,0
4,43,127,0
4,55,0,46
4,50,0,0
4,43,0,0
4,55,127,2
4,50,127,0
4,43,127,0
4,55,0,46
4,50,0,0
4,43,0,0
4,55,127,2
4,50,127,0
4,43,127,0
4,55,0,94
4,50,0,0
4,43,0,0
4,60,127,2
4,55,127,0
4,48,127,0
4,60,0,128
4,55,0,0
4,48,0,0
4,60,127,64
4,55,127,0
4,48,127,0
4,60,0,128
4,55,0,0
4,48,0,0
4,60,127,64
4,55,127,0
4,48,127,0
4,60,0,94
4,55,0,0
4,48,0,0
4,55,127,2
4,50,127,0
4,43,127,0
4,55,0,128
4,50,0,0
4,43,0,0
4,55,127,640
4,50,127,0
4,43,127,0
4,55,0,94
4,50,0,0
4,43,0,0
4,55,127,2
4,50,127,0
4,43,127,0
4,55,0,46
4,50,0,0
4,43,0,0
4,55,127,2
4,50,127,0
4,43,127,0
4,55,0,46
4,50,0,0
4,43,0,0
4,55,127,2
4,50,127,0
4,43,127,0
4,55,0,94
4,50,0,0
4,43,0,0
4,60,127,2
4,55,127,0
4,48,127,0
4,60,0,128
4,55,0,0
4,48,0,0
4,60,127,64
4,55,127,0
4,48,127,0
4,60,0,128
4,55,0,0
4,48,0,0
4,60,127,64
4,55,127,0
4,48,127,0
4,60,0,94
4,55,0,0
4,48,0,0
4,55,127,2
4,50,127,0
4,43,127,0
4,55,0,128
4,50,0,0
4,43,0,0
4,55,127,640
4,50,127,0
4,43,127,0
4,55,0,94
4,50,0,0
4,43,0,0
4,55,127,2
4,50,127,0
4,43,127,0
4,55,0,46
4,50,0,0
4,43,0,0
4,55,127,2
4,50,127,0
4,43,127,0
4,55,0,46
4,50,0,0
4,43,0,0
4,55,127,2
4,50,127,0
4,43,127,0
4,55,0,94
4,50,0,0
4,43,0,0
4,60,127,2
4,55,127,0
4,48,127,0
4,60,0,128
4,55,0,0
4,48,0,0
4,60,127,64
4,55,127,0
4,48,127,0
4,60,0,128
4,55,0,0
4,48,0,0
4,60,127,64
4,55,127,0
4,48,127,0
4,60,0,94
4,55,0,0
4,48,0,0
4,55,127,2
4,50,127,0
4,43,127,0
4,55,0,128
4,50,0,0
4,43,0,0
4,55,127,640
4,50,127,0
4,43,127,0
4,55,0,94
4,50,0,0
4,43,0,0
4,55,127,2
4,50,127,0
4,43,127,0
4,55,0,46
4,50,0,0
4,43,0,0
4,55,127,2
4,50,127,0
4,43,127,0
4,55,0,46
4,50,0,0
4,43,0,0
4,55,127,2
4,50,127,0
4,43,127,0
4,55,0,94
4,50,0,0
4,43,0,0
4,60,127,2
4,55,127,0
4,48,127,0
4,60,0,128
4,55,0,0
4,48,0,0
4,60,127,64
4,55,127,0
4,48,127,0
4,60,0,128
4,55,0,0
4,48,0,0
4,60,127,64
4,55,127,0
4,48,127,0
4,60,0,94
4,55,0,0
4,48,0,0
4,55,127,2
4,50,127,0
4,43,127,0
4,55,0,128
4,50,0,0
4,43,0,0
4,52,127,448
4,48,127,0
4,43,127,0
4,52,0,46
4,48,0,0
4,43,0,0
4,45,127,2
4,47,127,0
4,41,127,0
4,45,0,46
4,47,0,0
4,41,0,0
4,41,127,2
4,45,127,0
4,40,127,0
4,41,0,46
4,45,0,0
4,40,0,0
4,36,127,2
4,40,127,0
4,35,127,0
4,36,0,46
4,40,0,0
4,35,0,0
4,52,127,2
4,40,127,0
4,47,127,0
4,52,0,190
4,40,0,0
4,47,0,0
4,52,127,2
4,47,127,0
4,40,127,0
4,52,0,94
4,47,0,0
4,40,0,0
4,52,127,2
4,47,127,0
4,40,127,0
4,52,0,94
4,47,0,0
4,40,0,0
4,52,127,2
4,47,127,0
4,40,127,0
4,52,0,94
4,47,0,0
4,40,0,0
4,52,127,2
4,47,127,0
4,40,127,0
4,52,0,94
4,47,0,0
4,40,0,0
4,52,127,2
4,47,127,0
4,40,127,0
4,52,0,94
4,47,0,0
4,40,0,0
4,52,127,2
4,47,127,0
4,40,127,0
4,52,0,190
4,47,0,0
4,40,0,0
4,52,127,2
4,47,127,0
4,40,127,0
4,52,0,94
4,47,0,0
4,40,0,0
4,52,127,2
4,47,127,0
4,40,127,0
4,52,0,94
4,47,0,0
4,40,0,0
4,52,127,2
4,47,127,0
4,40,127,0
4,52,0,190
4,47,0,0
4,40,0,0
4,52,127,2
4,47,127,0
4,40,127,0
4,52,0,94
4,47,0,0
4,40,0,0
4,52,127,2
4,47,127,0
4,40,127,0
4,52,0,94
4,47,0,0
4,40,0,0
4,52,127,2
4,47,127,0
4,40,127,0
4,52,0,94
4,47,0,0
4,40,0,0
