track,note,velocity,time
1,79,127,1678
1,67,104,96
1,79,0,96
1,60,93,2
1,67,0,190
1,60,0,194
1,67,96,958
1,72,83,48
1,67,0,18
1,74,90,32
1,72,0,22
1,79,124,24
1,74,0,16
1,74,93,32
1,79,0,12
1,79,93,38
1,74,0,18
1,74,90,30
1,78,70,0
1,69,70,0
1,57,90,0
1,79,0,2
1,78,0,524
1,74,0,6
1,69,0,44
1,69,74,0
1,54,46,0
1,74,65,0
1,66,53,0
1,57,0,16
1,74,0,138
1,66,0,16
1,72,78,22
1,67,96,0
1,64,61,0
1,52,74,0
1,54,0,6
1,69,0,0
1,52,0,372
1,64,0,62
1,67,0,18
1,60,90,22
1,72,0,2
1,67,70,46
1,72,99,48
1,74,93,48
1,79,112,48
1,78,127,96
1,79,0,2
1,74,0,0
1,72,0,0
1,67,0,2
1,60,0,2
1,62,86,184
1,69,104,192
1,57,83,2
1,62,0,20
1,78,0,4
1,54,61,168
1,66,107,0
1,57,0,14
1,69,0,14
1,66,0,136
1,54,0,6
1,64,101,22
1,52,86,0
1,55,49,190
1,60,61,192
1,55,0,76
1,55,99,20
1,60,0,18
1,60,109,30
1,64,0,38
1,62,109,10
1,64,109,50
1,62,0,22
1,67,107,26
1,64,0,14
1,67,0,74
1,60,0,12
1,52,0,0
1,55,0,2
1,55,124,2824
1,62,99,50
1,67,101,48
1,55,0,128
1,62,0,6
1,55,109,10
1,62,114,0
1,55,0,1212
1,62,0,32
1,67,0,0
1,55,119,52
1,58,123,48
1,65,124,96
1,58,0,96
1,63,119,0
1,58,124,0
1,67,101,0
1,55,0,8
1,65,0,24
1,67,0,694
1,63,0,8
1,58,0,0
1,67,114,32
1,65,119,0
1,60,96,2
1,65,0,544
1,67,0,4
1,60,0,2
1,65,114,24
1,60,93,0
1,53,101,2
1,65,0,188
1,53,0,2
1,60,0,2
1,46,116,0
1,62,127,0
1,58,127,0
1,53,124,0
1,34,96,0
1,34,0,556
1,53,0,0
1,62,0,2
1,58,0,2
1,53,124,14
1,62,127,0
1,58,127,0
1,34,109,0
1,62,0,168
1,53,0,2
1,46,0,2
1,34,0,2
1,58,0,4
1,63,127,14
1,58,127,0
1,55,99,0
1,34,121,0
1,46,119,0
1,58,0,560
1,63,0,2
1,46,0,0
1,55,0,2
1,34,0,0
1,65,127,14
1,63,127,0
1,58,127,0
1,46,101,0
1,34,96,0
1,46,0,158
1,65,0,6
1,34,0,0
1,63,0,6
1,58,0,6
1,65,127,14
1,45,101,0
1,60,119,0
1,57,119,0
1,33,116,0
1,65,0,550
1,57,0,6
1,60,0,2
1,45,0,6
1,33,0,0
1,33,99,12
1,45,107,0
1,60,112,0
1,57,119,0
1,65,127,0
1,33,0,162
1,45,0,6
1,65,0,4
1,57,0,8
1,60,0,8
1,58,127,4
1,62,107,2
1,46,107,0
1,34,93,0
1,62,0,546
1,34,0,2
1,46,0,2
1,58,0,0
1,34,107,24
1,58,127,0
1,62,127,0
1,65,127,0
1,46,109,0
1,65,0,166
1,62,0,4
1,46,0,2
1,58,0,6
1,34,0,2
1,32,127,14
1,44,127,0
1,56,127,0
1,60,127,0
1,65,127,0
1,32,0,280
1,32,112,6
1,44,0,86
1,44,127,12
1,65,0,170
1,56,0,6
1,60,0,4
1,32,0,6
1,60,119,4
1,56,127,0
1,65,127,0
1,32,127,0
1,65,0,160
1,44,0,4
1,32,0,6
1,56,0,0
1,60,0,12
1,55,114,10
1,65,127,0
1,59,127,0
1,43,99,0
1,31,121,0
1,31,0,268
1,31,114,20
1,59,0,84
1,43,0,0
1,55,0,0
1,65,0,2
1,31,0,0
1,57,109,10
1,33,119,0
1,60,116,0
1,65,127,0
1,45,90,0
1,33,0,170
1,65,0,2
1,45,0,2
1,60,0,2
1,57,0,16
1,65,127,0
1,62,116,0
1,59,127,0
1,47,99,0
1,35,124,0
1,35,0,162
1,62,0,8
1,47,0,2
1,59,0,0
1,65,0,2
1,55,114,18
1,63,116,0
1,60,127,2
1,36,101,0
1,48,112,0
1,36,0,276
1,36,114,10
1,55,0,78
1,63,0,2
1,48,0,2
1,60,0,0
1,55,107,14
1,63,127,0
1,60,127,0
1,48,124,0
1,60,0,172
1,36,0,2
1,63,0,2
1,48,0,4
1,55,0,12
1,65,112,0
1,62,127,0
1,58,127,2
1,38,107,0
1,50,96,0
1,50,0,152
1,38,0,10
1,65,0,4
1,58,0,10
1,62,0,8
1,60,127,8
1,57,114,0
1,65,127,0
1,29,107,0
1,41,112,0
1,29,0,256
1,29,109,30
1,41,0,10
1,65,0,30
1,60,0,6
1,57,0,0
1,41,124,2
1,57,112,48
1,60,127,0
1,65,127,0
1,29,0,82
1,29,127,14
1,65,0,70
1,57,0,2
1,60,0,4
1,41,0,14
1,53,127,6
1,65,127,0
1,60,119,0
1,41,114,2
1,29,0,96
1,29,114,0
1,53,0,96
1,53,114,0
1,62,127,0
1,58,127,0
1,46,127,0
1,60,0,2
1,65,0,0
1,29,0,2
1,41,0,2
1,46,0,264
1,46,116,16
1,53,0,72
1,62,0,4
1,58,0,2
1,46,0,8
1,53,109,10
1,62,127,0
1,58,127,0
1,46,127,0
1,53,0,172
1,62,0,2
1,58,0,4
1,58,127,14
1,53,119,0
1,62,119,0
1,46,0,62
1,46,127,34
1,53,0,12
1,55,109,36
1,62,0,22
1,58,0,4
1,46,0,8
1,55,0,0
1,42,127,14
1,54,127,2
1,62,127,0
1,57,121,0
1,42,0,276
1,42,124,10
1,54,0,26
1,54,119,22
1,62,0,2
1,57,0,10
1,54,0,32
1,57,127,4
1,62,127,0
1,54,127,2
1,42,0,70
1,42,127,26
1,62,0,74
1,54,0,8
1,57,0,4
1,62,127,8
1,57,127,0
1,54,127,0
1,42,0,62
1,42,127,34
1,54,0,62
1,57,0,2
1,62,0,12
1,42,0,16
1,55,107,4
1,58,127,0
1,62,127,0
1,43,127,2
1,43,0,258
1,43,127,28
1,55,0,16
1,55,114,32
1,62,0,8
1,58,0,4
1,55,0,20
1,55,114,16
1,58,127,0
1,62,127,0
1,62,0,174
1,58,0,2
1,55,0,0
1,58,127,16
1,55,104,0
1,62,127,0
1,43,0,68
1,43,124,28
1,62,0,74
1,55,0,0
1,58,0,4
1,43,0,14
1,58,127,4
1,53,114,0
1,62,127,0
1,41,107,2
1,53,0,252
1,41,0,22
1,41,127,12
1,62,0,78
1,58,0,0
1,41,0,10
1,58,127,10
1,41,127,0
1,62,124,0
1,53,107,0
1,53,0,60
1,55,127,34
1,62,0,2
1,58,0,14
1,58,127,32
1,58,0,36
1,58,127,12
1,67,127,0
1,67,0,170
1,55,0,0
1,58,0,6
1,41,0,8
1,42,127,10
1,58,127,0
1,61,127,0
1,66,127,0
1,42,0,268
1,42,127,18
1,66,0,46
1,54,127,2
1,58,0,4
1,61,0,2
1,66,127,42
1,61,127,0
1,58,127,0
1,42,0,78
1,42,70,18
1,42,0,26
1,42,127,70
1,66,0,174
1,58,0,6
1,61,0,0
1,54,0,2
1,42,0,4
1,58,127,8
1,65,127,0
1,41,127,0
1,62,127,0
1,53,90,0
1,53,0,26
1,53,93,164
1,41,0,70
1,41,127,26
1,65,0,62
1,62,0,6
1,58,0,6
1,41,0,12
1,41,127,10
1,65,127,0
1,58,127,0
1,62,124,0
1,41,0,86
1,41,127,12
1,62,0,70
1,58,0,4
1,53,0,10
1,58,127,12
1,62,127,0
1,53,127,0
1,41,0,86
1,41,127,10
1,53,0,84
1,65,0,4
1,62,0,2
1,58,0,0
1,56,124,6
1,62,127,0
1,53,127,0
1,34,127,0
1,41,0,2
1,46,127,188
1,34,0,80
1,34,127,16
1,62,0,66
1,53,0,2
1,56,0,2
1,46,0,2
1,46,127,24
1,56,127,0
1,62,126,0
1,53,124,0
1,53,0,172
1,62,0,2
1,56,0,4
1,34,0,4
1,62,127,10
1,56,127,0
1,53,127,0
1,34,109,0
1,34,0,88
1,34,99,8
1,62,0,64
1,53,0,0
1,56,0,4
1,34,0,18
1,46,0,6
1,63,127,6
1,58,127,0
1,39,127,0
1,55,119,0
1,51,127,190
1,55,0,30
1,63,0,126
1,58,0,4
1,39,0,18
1,58,127,14
1,63,127,0
1,55,127,0
1,39,127,2
1,51,0,6
1,55,0,162
1,63,0,0
1,58,0,8
1,58,127,14
1,53,114,0
1,62,127,0
1,38,124,0
1,39,0,10
1,62,0,146
1,53,0,6
1,58,0,12
1,38,0,0
1,36,127,18
1,63,127,0
1,60,127,0
1,55,121,0
1,36,0,280
1,36,109,10
1,48,127,94
1,36,0,132
1,36,124,12
1,55,0,20
1,63,0,4
1,60,0,2
1,63,127,24
1,60,127,0
1,55,124,0
1,36,0,80
1,36,109,14
1,55,0,66
1,63,0,4
1,48,0,2
1,60,0,4
1,36,0,6
1,58,127,14
1,63,127,0
1,41,127,0
1,55,127,0
1,29,127,288
1,55,0,68
1,63,0,2
1,58,0,0
1,41,0,8
1,58,127,18
1,63,127,0
1,53,127,0
1,41,119,0
1,53,0,378
1,63,0,2
1,58,0,0
1,41,0,2
1,29,0,4
1,53,127,0
1,58,127,0
1,62,127,0
1,34,121,0
1,46,124,0
1,34,0,288
1,34,104,0
1,34,0,70
1,34,127,24
1,53,0,170
1,58,0,6
1,62,0,10
1,65,127,54
1,70,127,48
1,72,114,48
1,70,0,20
1,65,0,6
1,72,0,8
1,34,0,2
1,34,86,12
1,65,109,0
1,72,127,0
1,70,127,2
1,74,104,0
1,72,0,42
1,65,0,354
1,74,0,22
1,70,0,2
1,65,127,10
1,70,119,48
1,72,124,50
1,65,0,12
1,70,0,12
1,46,0,12
1,34,0,10
1,70,124,2
1,65,112,0
1,46,74,0
1,34,93,0
1,74,126,0
1,72,0,10
1,70,0,116
1,74,0,0
1,65,0,4
1,46,0,2
1,34,0,4
1,55,127,2886
1,67,116,48
1,62,124,48
1,62,0,146
1,67,0,0
1,55,0,0
1,67,101,0
1,55,109,0
1,62,114,0
1,55,0,1212
1,62,0,32
1,67,0,2
1,55,109,50
1,58,113,48
1,65,114,96
1,58,0,84
1,63,119,12
1,58,124,0
1,67,101,0
1,65,0,6
1,55,0,2
1,67,0,718
1,63,0,8
1,58,0,0
1,67,114,32
1,65,119,0
1,60,96,2
1,65,0,544
1,67,0,4
1,60,0,2
1,65,114,24
1,60,93,0
1,53,101,2
1,65,0,188
1,53,0,2
1,60,0,2
1,46,116,0
1,62,127,0
1,58,127,0
1,53,124,0
1,34,96,0
1,34,0,556
1,53,0,0
1,62,0,2
1,58,0,2
1,53,124,14
1,62,127,0
1,58,127,0
1,34,109,0
1,62,0,168
1,53,0,2
1,46,0,2
1,34,0,2
1,58,0,4
1,63,127,14
1,58,127,0
1,55,99,0
1,34,121,0
1,46,119,0
1,58,0,560
1,63,0,2
1,46,0,0
1,55,0,2
1,34,0,0
1,65,127,14
1,63,127,0
1,58,127,0
1,46,101,0
1,34,96,0
1,46,0,158
1,65,0,6
1,34,0,0
1,63,0,6
1,58,0,6
1,65,127,14
1,45,101,0
1,60,119,0
1,57,119,0
1,33,116,0
1,65,0,550
1,57,0,6
1,60,0,2
1,45,0,6
1,33,0,0
1,33,99,12
1,45,107,0
1,60,112,0
1,57,119,0
1,65,127,0
1,33,0,162
1,45,0,6
1,65,0,4
1,57,0,8
1,60,0,8
1,58,127,4
1,62,107,2
1,46,107,0
1,34,93,0
1,62,0,546
1,34,0,2
1,46,0,2
1,58,0,0
1,34,107,24
1,58,127,0
1,62,127,0
1,65,127,0
1,46,109,0
1,65,0,166
1,62,0,4
1,46,0,2
1,58,0,6
1,34,0,2
1,32,127,14
1,44,127,0
1,56,127,0
1,60,127,0
1,65,127,0
1,32,0,280
1,32,112,6
1,44,0,86
1,44,127,12
1,65,0,170
1,56,0,6
1,60,0,4
1,32,0,6
1,60,119,4
1,56,127,0
1,65,127,0
1,32,127,0
1,65,0,160
1,44,0,4
1,32,0,6
1,56,0,0
1,60,0,12
1,55,114,10
1,65,127,0
1,59,127,0
1,43,99,0
1,31,121,0
1,31,0,268
1,31,114,20
1,59,0,84
1,43,0,0
1,55,0,0
1,65,0,2
1,31,0,0
1,57,109,10
1,33,119,0
1,60,116,0
1,65,127,0
1,45,90,0
1,33,0,170
1,65,0,2
1,45,0,2
1,60,0,2
1,57,0,16
1,65,127,0
1,62,116,0
1,59,127,0
1,47,99,0
1,35,124,0
1,35,0,162
1,62,0,8
1,47,0,2
1,59,0,0
1,65,0,2
1,55,114,18
1,63,116,0
1,60,127,2
1,36,101,0
1,48,112,0
1,36,0,276
1,36,114,10
1,55,0,78
1,63,0,2
1,48,0,2
1,60,0,0
1,55,107,14
1,63,127,0
1,60,127,0
1,48,124,0
1,60,0,172
1,36,0,2
1,63,0,2
1,48,0,4
1,55,0,12
1,65,112,2
1,62,127,0
1,58,127,0
1,50,96,0
1,38,107,0
1,50,0,152
1,38,0,10
1,65,0,6
1,58,0,8
1,62,0,8
1,60,127,8
1,57,114,0
1,65,127,0
1,29,107,0
1,41,112,0
1,29,0,256
1,29,109,30
1,41,0,10
1,65,0,30
1,60,0,6
1,57,0,0
1,41,124,2
1,57,112,48
1,60,127,0
1,65,127,0
1,29,0,82
1,29,127,14
1,65,0,70
1,57,0,2
1,60,0,4
1,41,0,14
1,53,127,6
1,65,127,0
1,60,119,0
1,41,114,2
1,29,0,96
1,29,114,0
1,53,0,96
1,53,114,0
1,62,127,0
1,58,127,0
1,46,127,0
1,60,0,2
1,65,0,0
1,29,0,2
1,41,0,2
1,46,0,264
1,46,116,16
1,53,0,72
1,62,0,4
1,58,0,2
1,46,0,8
1,53,109,10
1,62,127,0
1,58,127,0
1,46,127,0
1,53,0,172
1,62,0,2
1,58,0,4
1,58,127,14
1,53,119,0
1,62,119,0
1,46,0,62
1,46,127,34
1,53,0,12
1,55,109,36
1,62,0,22
1,58,0,4
1,46,0,8
1,55,0,0
1,42,127,14
1,54,127,2
1,62,127,0
1,57,121,0
1,42,0,276
1,42,124,10
1,54,0,26
1,54,119,22
1,62,0,2
1,57,0,10
1,54,0,32
1,57,127,4
1,62,127,0
1,54,127,2
1,42,0,70
1,42,127,26
1,62,0,74
1,54,0,8
1,57,0,4
1,62,127,8
1,57,127,0
1,54,127,0
1,42,0,62
1,42,127,34
1,54,0,62
1,57,0,2
1,62,0,12
1,42,0,16
1,55,107,4
1,58,127,0
1,62,127,0
1,43,127,2
1,43,0,258
1,43,127,28
1,55,0,16
1,55,114,32
1,62,0,8
1,58,0,4
1,55,0,20
1,55,114,16
1,58,127,0
1,62,127,0
1,62,0,174
1,58,0,2
1,55,0,0
1,58,127,16
1,55,104,0
1,62,127,0
1,43,0,68
1,43,124,28
1,62,0,74
1,55,0,0
1,58,0,4
1,43,0,14
1,58,127,4
1,53,114,0
1,62,127,0
1,41,107,2
1,53,0,252
1,41,0,22
1,41,127,12
1,62,0,78
1,58,0,0
1,41,0,10
1,58,127,10
1,41,127,0
1,62,124,0
1,53,107,0
1,53,0,60
1,55,127,34
1,62,0,2
1,58,0,14
1,58,127,32
1,58,0,36
1,58,127,12
1,67,127,0
1,67,0,170
1,55,0,0
1,58,0,6
1,41,0,8
1,42,127,10
1,58,127,0
1,61,127,0
1,66,127,0
1,42,0,268
1,42,127,18
1,66,0,46
1,54,127,2
1,58,0,4
1,61,0,2
1,66,127,42
1,61,127,0
1,58,127,0
1,42,0,78
1,42,70,18
1,42,0,26
1,42,127,70
1,66,0,174
1,58,0,6
1,61,0,0
1,54,0,2
1,42,0,4
1,58,127,8
1,65,127,0
1,41,127,0
1,62,127,0
1,53,90,0
1,53,0,26
1,53,93,164
1,41,0,70
1,41,127,26
1,65,0,62
1,62,0,6
1,58,0,6
1,41,0,12
1,41,127,10
1,65,127,0
1,58,127,0
1,62,124,0
1,41,0,86
1,41,127,12
1,62,0,70
1,58,0,4
1,53,0,10
1,58,127,12
1,62,127,0
1,53,127,0
1,41,0,86
1,41,127,10
1,53,0,84
1,65,0,4
1,62,0,2
