track,note,velocity,time
1,42,127,384
1,45,127,32
1,50,127,32
1,45,127,32
1,47,127,16
1,47,127,16
1,47,127,16
1,47,127,16
1,47,127,16
1,47,127,16
1,47,127,16
1,47,127,16
1,42,127,32
1,45,127,32
1,50,127,32
1,45,127,32
1,47,127,16
1,47,127,16
1,47,127,16
1,47,127,16
1,47,127,16
1,47,127,16
1,47,127,16
1,47,127,16
1,42,127,32
1,45,127,32
1,50,127,32
1,45,127,32
1,47,127,16
1,47,127,16
1,47,127,16
1,47,127,16
1,47,127,16
1,47,127,16
1,47,127,16
1,47,127,16
1,42,127,32
1,45,127,32
1,50,127,32
1,45,127,32
1,47,127,16
1,47,127,16
1,47,127,16
1,47,127,16
1,47,127,16
1,47,127,16
1,47,127,16
1,47,127,16
1,40,127,1424
1,42,127,16
1,44,127,16
1,45,127,16
1,45,127,4127
1,33,127,32
1,33,127,32
1,33,127,32
1,35,127,16
1,37,127,16
1,35,127,16
1,35,127,32
1,35,127,16
1,35,127,32
1,35,127,16
1,35,127,16
1,38,127,32
1,38,127,32
1,38,127,32
1,40,127,16
1,42,127,16
1,40,127,16
1,40,127,32
1,40,127,16
1,35,127,32
1,37,127,16
1,35,127,16
1,33,127,16
1,33,127,16
1,33,127,32
1,33,127,32
1,35,127,16
1,37,127,16
1,35,127,16
1,35,127,32
1,35,127,16
1,35,127,32
1,35,127,16
1,35,127,16
1,38,127,32
1,38,127,32
1,38,127,32
1,40,127,16
1,42,127,16
1,40,127,16
1,40,127,32
1,40,127,16
1,35,127,32
1,37,127,16
1,35,127,16
1,33,127,16
1,42,127,16
1,45,127,32
1,50,127,32
1,45,127,32
1,47,127,16
1,47,127,16
1,47,127,16
1,47,127,16
1,47,127,16
1,47,127,16
1,47,127,16
1,47,127,16
1,42,127,32
1,45,127,32
1,50,127,32
1,45,127,32
1,47,127,16
1,47,127,16
1,47,127,16
1,47,127,16
1,47,127,16
1,47,127,16
1,47,127,16
1,47,127,16
1,42,127,32
1,45,127,32
1,50,127,32
1,45,127,32
1,47,127,16
1,47,127,16
1,47,127,16
1,47,127,16
1,47,127,16
1,47,127,16
1,47,127,16
1,47,127,16
1,42,127,32
1,45,127,32
1,50,127,32
1,45,127,32
1,47,127,16
1,33,127,400
1,33,127,32
1,33,127,32
1,35,127,16
1,37,127,16
1,35,127,16
1,35,127,32
1,35,127,16
1,35,127,32
1,35,127,16
1,35,127,16
1,38,127,32
1,38,127,32
1,38,127,32
1,40,127,16
1,42,127,16
1,40,127,16
1,40,127,32
1,40,127,16
1,35,127,32
1,37,127,16
1,35,127,16
1,33,127,16
1,33,127,16
1,33,127,32
1,33,127,32
1,35,127,16
1,37,127,16
1,35,127,16
1,35,127,32
1,35,127,16
1,35,127,32
1,35,127,16
1,35,127,16
1,38,127,32
1,38,127,32
1,38,127,32
1,40,127,16
1,42,127,16
1,40,127,16
1,40,127,32
1,40,127,16
1,35,127,32
1,37,127,16
1,35,127,16
1,33,127,16
1,33,127,16
1,33,127,32
1,33,127,32
1,35,127,16
1,37,127,16
1,35,127,16
1,35,127,32
1,35,127,16
1,35,127,32
1,35,127,16
1,35,127,16
1,38,127,32
1,38,127,32
1,38,127,32
1,40,127,16
1,42,127,16
1,40,127,16
1,40,127,32
1,40,127,16
1,35,127,32
1,37,127,16
1,35,127,16
1,33,127,16
1,33,127,16
1,33,127,32
1,33,127,32
1,35,127,16
1,37,127,16
1,35,127,16
1,35,127,32
1,35,127,16
1,35,127,32
1,35,127,16
1,35,127,16
1,38,127,32
1,38,127,32
1,38,127,32
1,40,127,16
1,42,127,16
1,40,127,16
1,40,127,32
1,40,127,16
1,35,127,32
1,37,127,16
1,35,127,16
1,33,127,16
1,33,127,16
1,33,127,32
1,33,127,32
1,35,127,16
1,37,127,16
1,35,127,16
1,35,127,32
1,35,127,16
1,35,127,32
1,35,127,16
1,35,127,16
1,38,127,32
1,38,127,32
1,38,127,32
1,40,127,16
1,42,127,16
1,40,127,16
1,40,127,32
1,40,127,16
1,35,127,32
1,37,127,16
1,35,127,16
1,33,127,16
1,33,127,16
1,33,127,32
1,33,127,32
1,35,127,16
1,37,127,16
1,35,127,16
1,35,127,32
1,35,127,16
1,35,127,32
1,35,127,16
1,35,127,16
1,38,127,32
1,38,127,32
1,38,127,32
1,40,127,16
1,42,127,16
1,40,127,16
1,40,127,32
1,40,127,16
1,35,127,32
1,37,127,16
1,35,127,16
1,33,127,16
1,42,127,16
1,45,127,32
1,50,127,32
1,45,127,32
1,47,127,16
1,47,127,16
1,47,127,16
1,47,127,16
1,47,127,16
1,47,127,16
1,47,127,16
1,47,127,16
1,42,127,32
1,45,127,32
1,50,127,32
1,45,127,32
1,47,127,16
1,47,127,16
1,47,127,16
1,47,127,16
1,47,127,16
1,47,127,16
1,47,127,16
1,47,127,16
1,42,127,32
1,45,127,32
1,50,127,32
1,45,127,32
1,47,127,16
1,47,127,16
1,47,127,16
1,47,127,16
1,47,127,16
1,47,127,16
1,47,127,16
1,47,127,16
1,42,127,32
1,45,127,32
1,50,127,32
1,45,127,32
1,47,127,16
1,33,127,400
1,33,127,32
1,33,127,32
1,35,127,16
1,37,127,16
1,35,127,16
1,35,127,32
1,35,127,16
1,35,127,32
1,35,127,16
1,35,127,16
1,38,127,32
1,38,127,32
1,38,127,32
1,40,127,16
1,42,127,16
1,40,127,16
1,40,127,32
1,40,127,16
1,35,127,32
1,37,127,16
1,35,127,16
1,33,127,16
1,33,127,16
1,33,127,32
1,33,127,32
1,35,127,16
1,37,127,16
1,35,127,16
1,35,127,32
1,35,127,16
1,35,127,32
1,35,127,16
1,35,127,16
1,38,127,32
1,38,127,32
1,38,127,32
1,40,127,16
1,42,127,16
1,40,127,16
1,40,127,32
1,40,127,16
1,35,127,32
1,37,127,16
1,35,127,16
1,33,127,16
1,33,127,16
2,40,127,288
2,57,127,32
2,36,127,0
2,40,127,32
2,46,127,0
2,46,127,16
2,36,127,16
2,46,127,0
2,36,127,16
2,46,127,0
2,40,127,16
2,46,127,0
2,36,127,16
2,52,127,0
2,36,127,32
2,46,127,0
2,40,127,16
2,46,127,0
2,36,127,16
2,46,127,0
2,36,127,16
2,46,127,0
2,36,127,16
2,46,127,0
2,40,127,16
2,46,127,0
2,46,127,16
2,57,127,16
2,36,127,0
2,40,127,32
2,46,127,0
2,46,127,16
2,36,127,16
2,46,127,0
2,36,127,16
2,46,127,0
2,40,127,16
2,46,127,0
2,36,127,16
2,52,127,0
2,36,127,32
2,46,127,0
2,40,127,16
2,46,127,0
2,36,127,16
2,46,127,0
2,36,127,16
2,46,127,0
2,36,127,16
2,46,127,0
2,40,127,16
2,46,127,0
2,46,127,16
2,57,127,16
2,36,127,0
2,40,127,32
2,46,127,0
2,46,127,16
2,36,127,16
2,46,127,0
2,36,127,16
2,46,127,0
2,40,127,16
2,46,127,0
2,36,127,16
2,52,127,0
2,36,127,32
2,46,127,0
2,40,127,16
2,46,127,0
2,36,127,16
2,46,127,0
2,36,127,16
2,46,127,0
2,36,127,16
2,46,127,0
2,40,127,16
2,46,127,0
2,46,127,16
2,57,127,16
2,36,127,0
2,40,127,32
2,46,127,0
2,46,127,16
2,36,127,16
2,46,127,0
2,36,127,16
2,46,127,0
2,40,127,16
2,46,127,0
2,36,127,16
2,52,127,0
2,36,127,32
2,46,127,0
2,40,127,16
2,46,127,0
2,36,127,16
2,46,127,0
2,36,127,16
2,46,127,0
2,36,127,16
2,46,127,0
2,40,127,16
2,40,127,8
2,40,127,8
2,40,127,8
2,52,127,8
2,40,127,5680
2,46,127,16
2,40,127,16
2,40,127,16
2,40,127,16
2,40,127,16
2,36,127,0
2,57,127,0
2,40,127,16
2,36,127,16
2,52,127,0
2,40,127,32
2,46,127,0
2,46,127,16
2,46,127,16
2,36,127,0
2,46,127,16
2,36,127,0
2,46,127,16
2,40,127,0
2,36,127,16
2,52,127,0
2,36,127,32
2,46,127,0
2,40,127,16
2,46,127,0
2,46,127,16
2,36,127,16
2,46,127,0
2,36,127,16
2,46,127,0
2,40,127,16
2,46,127,0
2,46,127,16
2,36,127,16
2,52,127,0
2,40,127,32
2,46,127,0
2,46,127,16
2,46,127,16
2,36,127,0
2,46,127,16
2,36,127,0
2,46,127,16
2,40,127,0
2,36,127,16
2,52,127,0
2,36,127,32
2,46,127,0
2,40,127,16
2,46,127,0
2,46,127,16
2,36,127,16
2,46,127,0
2,36,127,16
2,46,127,0
2,40,127,16
2,46,127,0
2,46,127,16
2,36,127,16
2,52,127,0
2,40,127,32
2,46,127,0
2,46,127,16
2,46,127,16
2,36,127,0
2,46,127,16
2,36,127,0
2,46,127,16
2,40,127,0
2,36,127,16
2,52,127,0
2,36,127,32
2,46,127,0
2,40,127,16
2,46,127,0
2,46,127,16
2,36,127,16
2,46,127,0
2,36,127,16
2,46,127,0
2,40,127,16
2,46,127,0
2,46,127,16
2,36,127,16
2,52,127,0
2,40,127,32
2,46,127,0
2,46,127,16
2,46,127,16
2,36,127,0
2,46,127,16
2,36,127,0
2,46,127,16
2,40,127,0
2,36,127,16
2,52,127,0
2,36,127,32
2,46,127,0
2,40,127,16
2,46,127,0
2,46,127,16
2,36,127,16
2,46,127,0
2,36,127,16
2,46,127,0
2,40,127,16
2,57,127,32
2,36,127,0
2,40,127,32
2,46,127,0
2,46,127,16
2,36,127,16
2,46,127,0
2,36,127,16
2,46,127,0
2,40,127,16
2,46,127,0
2,36,127,16
2,52,127,0
2,36,127,32
2,46,127,0
2,40,127,16
2,46,127,0
2,36,127,16
2,46,127,0
2,36,127,16
2,46,127,0
2,36,127,16
2,46,127,0
2,40,127,16
2,46,127,0
2,46,127,16
2,57,127,16
2,36,127,0
2,40,127,32
2,46,127,0
2,46,127,16
2,36,127,16
2,46,127,0
2,36,127,16
2,46,127,0
2,40,127,16
2,46,127,0
2,36,127,16
2,52,127,0
2,36,127,32
2,46,127,0
2,40,127,16
2,46,127,0
2,36,127,16
2,46,127,0
2,36,127,16
2,46,127,0
2,36,127,16
2,46,127,0
2,40,127,16
2,46,127,0
2,46,127,16
2,57,127,16
2,36,127,0
2,40,127,32
2,46,127,0
2,46,127,16
2,36,127,16
2,46,127,0
2,36,127,16
2,46,127,0
2,40,127,16
2,46,127,0
2,36,127,16
2,52,127,0
2,36,127,32
2,46,127,0
2,40,127,16
2,46,127,0
2,36,127,16
2,46,127,0
2,36,127,16
2,46,127,0
2,36,127,16
2,46,127,0
2,40,127,16
2,46,127,0
2,46,127,16
2,57,127,16
2,36,127,0
2,40,127,32
2,46,127,0
2,46,127,16
2,36,127,16
2,46,127,0
2,36,127,16
2,46,127,0
2,40,127,16
2,46,127,0
2,36,127,16
2,52,127,0
2,40,127,208
2,36,127,32
2,52,127,0
2,40,127,32
2,46,127,0
2,46,127,16
2,46,127,16
2,36,127,0
2,46,127,16
2,36,127,0
2,46,127,16
2,40,127,0
2,36,127,16
2,52,127,0
2,36,127,32
2,46,127,0
2,40,127,16
2,46,127,0
2,46,127,16
2,36,127,16
2,46,127,0
2,36,127,16
2,46,127,0
2,40,127,16
2,46,127,0
2,46,127,16
2,36,127,16
2,52,127,0
2,40,127,32
2,46,127,0
2,46,127,16
2,46,127,16
2,36,127,0
2,46,127,16
2,36,127,0
2,46,127,16
2,40,127,0
2,36,127,16
2,52,127,0
2,36,127,32
2,46,127,0
2,40,127,16
2,46,127,0
2,46,127,16
2,36,127,16
2,46,127,0
2,36,127,16
2,46,127,0
2,40,127,16
2,46,127,0
2,46,127,16
2,36,127,16
2,52,127,0
2,40,127,32
2,46,127,0
2,46,127,16
2,46,127,16
2,36,127,0
2,46,127,16
2,36,127,0
2,46,127,16
2,40,127,0
2,36,127,16
2,52,127,0
2,36,127,32
2,46,127,0
2,40,127,16
2,46,127,0
2,46,127,16
2,36,127,16
2,46,127,0
2,36,127,16
2,46,127,0
2,40,127,16
2,46,127,0
2,46,127,16
2,36,127,16
2,52,127,0
2,40,127,32
2,46,127,0
2,46,127,16
2,46,127,16
2,36,127,0
2,46,127,16
2,36,127,0
2,46,127,16
2,40,127,0
2,36,127,16
2,52,127,0
2,36,127,32
2,46,127,0
2,40,127,16
2,46,127,0
2,46,127,16
2,36,127,16
2,46,127,0
2,36,127,16
2,46,127,0
2,40,127,16
2,46,127,0
2,46,127,16
2,36,127,16
2,52,127,0
2,40,127,32
2,46,127,0
2,46,127,16
2,46,127,16
2,36,127,0
2,46,127,16
2,36,127,0
2,46,127,16
2,40,127,0
2,36,127,16
2,46,127,0
2,46,127,16
2,36,127,16
2,46,127,0
2,40,127,16
2,46,127,0
2,46,127,16
2,36,127,16
2,46,127,0
2,36,127,16
2,46,127,0
2,40,127,16
2,46,127,0
2,46,127,16
2,36,127,16
2,52,127,0
2,40,127,32
2,46,127,0
2,46,127,16
2,46,127,16
2,36,127,0
2,46,127,16
2,36,127,0
2,46,127,16
2,40,127,0
2,36,127,16
2,46,127,0
2,46,127,16
2,36,127,16
2,46,127,0
2,40,127,16
2,46,127,0
2,46,127,16
2,36,127,16
2,46,127,0
2,36,127,16
2,46,127,0
2,40,127,16
2,46,127,0
2,46,127,16
2,36,127,16
2,52,127,0
2,40,127,32
2,46,127,0
2,46,127,16
2,46,127,16
2,36,127,0
2,46,127,16
2,36,127,0
2,46,127,16
2,40,127,0
2,36,127,16
2,46,127,0
2,46,127,16
2,36,127,16
2,46,127,0
2,40,127,16
2,46,127,0
2,46,127,16
2,36,127,16
2,46,127,0
2,36,127,16
2,46,127,0
2,40,127,16
2,46,127,0
2,46,127,16
2,36,127,16
2,52,127,0
2,40,127,32
2,46,127,0
2,46,127,16
2,46,127,16
2,36,127,0
2,46,127,16
2,36,127,0
2,46,127,16
2,40,127,0
2,36,127,16
2,46,127,0
2,46,127,16
2,36,127,16
2,46,127,0
2,40,127,16
2,46,127,0
2,46,127,16
2,36,127,16
2,46,127,0
2,36,127,16
2,46,127,0
2,40,127,16
2,46,127,0
2,46,127,16
2,36,127,16
2,52,127,0
2,40,127,32
2,46,127,0
2,46,127,16
2,46,127,16
2,36,127,0
2,46,127,16
2,36,127,0
2,46,127,16
2,40,127,0
2,36,127,16
2,46,127,0
2,46,127,16
2,36,127,16
2,46,127,0
2,40,127,16
2,46,127,0
2,46,127,16
2,36,127,16
2,46,127,0
2,36,127,16
2,46,127,0
2,40,127,16
2,46,127,0
2,46,127,16
2,36,127,16
2,52,127,0
2,40,127,32
2,46,127,0
2,46,127,16
2,46,127,16
2,36,127,0
2,46,127,16
2,36,127,0
2,46,127,16
2,40,127,0
2,36,127,16
2,46,127,0
2,46,127,16
2,36,127,16
2,46,127,0
2,40,127,16
2,46,127,0
2,46,127,16
2,36,127,16
2,46,127,0
2,36,127,16
2,46,127,0
2,40,127,16
2,46,127,0
2,46,127,16
2,36,127,16
2,52,127,0
2,40,127,32
2,46,127,0
2,46,127,16
2,46,127,16
2,36,127,0
2,46,127,16
2,36,127,0
2,46,127,16
2,40,127,0
2,36,127,16
2,46,127,0
2,46,127,16
2,36,127,16
2,46,127,0
2,40,127,16
2,46,127,0
2,46,127,16
2,36,127,16
2,46,127,0
2,36,127,16
2,46,127,0
2,40,127,16
2,46,127,0
2,46,127,16
2,36,127,16
2,52,127,0
2,40,127,32
2,46,127,0
2,46,127,16
2,46,127,16
2,36,127,0
2,46,127,16
2,36,127,0
2,46,127,16
2,40,127,0
2,36,127,16
2,46,127,0
2,46,127,16
2,36,127,16
2,46,127,0
2,40,127,16
2,46,127,0
2,46,127,16
2,36,127,16
2,46,127,0
2,36,127,16
2,46,127,0
2,40,127,16
2,46,127,0
2,46,127,16
2,57,127,16
2,36,127,0
2,40,127,32
2,46,127,0
2,46,127,16
2,36,127,16
2,46,127,0
2,36,127,16
2,46,127,0
2,40,127,16
2,46,127,0
2,36,127,16
2,52,127,0
2,36,127,32
2,46,127,0
2,40,127,16
2,46,127,0
2,36,127,16
2,46,127,0
2,36,127,16
