track,note,velocity,time
1,46,127,1536
1,46,127,128
1,46,127,64
1,46,127,64
1,46,127,64
1,53,127,64
1,43,127,64
1,41,127,256
1,41,127,128
1,41,127,64
1,43,127,64
1,46,127,64
1,48,127,64
1,46,127,64
1,46,127,128
1,46,127,64
1,46,127,64
1,46,127,64
1,53,127,64
1,43,127,64
1,41,127,256
1,41,127,128
1,41,127,64
1,43,127,64
1,46,127,64
1,48,127,64
1,46,127,64
1,46,127,128
1,46,127,64
1,46,127,64
1,46,127,64
1,53,127,64
1,43,127,64
1,41,127,256
1,41,127,128
1,41,127,64
1,43,127,64
1,46,127,64
1,48,127,64
1,46,127,64
1,46,127,128
1,46,127,64
1,46,127,64
1,46,127,64
1,53,127,64
1,43,127,64
1,41,127,256
1,41,127,128
1,41,127,64
1,43,127,64
1,46,127,64
1,48,127,64
1,46,127,64
1,46,127,128
1,46,127,128
1,46,127,64
1,46,127,64
1,43,127,64
1,41,127,256
1,41,127,128
1,41,127,64
1,43,127,64
1,46,127,64
1,48,127,64
1,46,127,64
1,46,127,128
1,46,127,128
1,46,127,64
1,46,127,64
1,43,127,64
1,41,127,256
1,41,127,128
1,41,127,64
1,43,127,64
1,46,127,64
1,48,127,64
1,46,127,64
1,46,127,128
1,46,127,128
1,46,127,64
1,46,127,64
1,43,127,64
1,41,127,256
1,41,127,128
1,41,127,64
1,43,127,64
1,46,127,64
1,48,127,64
1,46,127,64
1,46,127,128
1,46,127,128
1,46,127,64
1,46,127,64
1,43,127,64
1,41,127,256
1,41,127,128
1,41,127,64
1,43,127,64
1,46,127,64
1,43,127,64
1,43,127,64
1,43,127,128
1,43,127,128
1,43,127,64
1,45,127,64
1,46,127,64
1,46,127,192
1,46,127,64
1,46,127,128
1,46,127,64
1,48,127,64
1,50,127,64
1,43,127,64
1,43,127,256
1,41,127,832
1,41,127,192
1,41,127,64
1,41,127,64
1,41,127,64
1,41,127,64
1,41,127,64
1,41,127,64
1,39,127,64
1,39,127,128
1,39,127,64
1,39,127,128
1,39,127,64
1,41,127,64
1,41,127,64
1,41,127,128
1,41,127,64
1,41,127,128
1,41,127,64
1,45,127,128
1,46,127,64
1,46,127,64
1,46,127,64
1,45,127,64
1,46,127,64
1,46,127,64
1,46,127,64
1,45,127,64
1,46,127,64
1,46,127,64
1,46,127,64
1,45,127,64
1,46,127,64
1,46,127,64
1,41,127,64
1,43,127,64
1,43,127,128
1,43,127,128
1,43,127,64
1,45,127,64
1,46,127,64
1,46,127,192
1,46,127,64
1,46,127,128
1,46,127,64
1,48,127,64
1,50,127,64
1,43,127,64
1,43,127,256
1,41,127,832
1,41,127,192
1,41,127,64
1,41,127,64
1,41,127,64
1,41,127,64
1,41,127,64
1,41,127,64
1,39,127,64
1,39,127,128
1,39,127,64
1,39,127,128
1,39,127,64
1,41,127,64
1,41,127,64
1,41,127,128
1,41,127,64
1,41,127,128
1,41,127,64
1,46,127,128
1,46,127,128
1,46,127,64
1,46,127,64
1,46,127,64
1,53,127,64
1,43,127,64
1,41,127,256
1,41,127,128
1,41,127,64
1,43,127,64
1,46,127,64
1,48,127,64
1,46,127,64
1,46,127,128
1,46,127,64
1,46,127,64
1,46,127,64
1,53,127,64
1,43,127,64
1,41,127,256
1,41,127,128
1,41,127,64
1,43,127,64
1,46,127,64
1,48,127,64
1,46,127,64
1,46,127,128
1,46,127,64
1,46,127,64
1,46,127,64
1,53,127,64
1,43,127,64
1,41,127,256
1,41,127,128
1,41,127,64
1,43,127,64
1,46,127,64
1,48,127,64
1,46,127,64
1,46,127,128
1,46,127,64
1,46,127,64
1,46,127,64
1,53,127,64
1,43,127,64
1,41,127,256
1,41,127,128
1,41,127,64
1,43,127,64
1,46,127,64
1,48,127,64
1,46,127,64
1,46,127,128
1,46,127,128
1,46,127,64
1,46,127,64
1,43,127,64
1,41,127,256
1,41,127,128
1,41,127,64
1,43,127,64
1,46,127,64
1,48,127,64
1,46,127,64
1,46,127,128
1,46,127,128
1,46,127,64
1,46,127,64
1,43,127,64
1,41,127,256
1,41,127,128
1,41,127,64
1,43,127,64
1,46,127,64
1,48,127,64
1,46,127,64
1,46,127,128
1,46,127,128
1,46,127,64
1,46,127,64
1,43,127,64
1,41,127,256
1,41,127,128
1,41,127,64
1,43,127,64
1,46,127,64
1,48,127,64
1,46,127,64
1,46,127,128
1,46,127,128
1,46,127,64
1,46,127,64
1,43,127,64
1,41,127,256
1,41,127,128
1,41,127,64
1,43,127,64
1,46,127,64
1,43,127,64
1,43,127,64
1,43,127,128
1,43,127,128
1,43,127,64
1,45,127,64
1,46,127,64
1,46,127,64
1,46,127,128
1,46,127,64
1,48,127,64
1,50,127,64
1,43,127,64
1,43,127,256
1,41,127,832
1,41,127,64
1,41,127,64
1,41,127,64
1,41,127,64
1,41,127,64
1,41,127,64
1,39,127,64
1,39,127,128
1,39,127,64
1,39,127,128
1,39,127,64
1,41,127,64
1,41,127,64
1,41,127,128
1,41,127,64
1,41,127,128
1,41,127,64
1,45,127,128
1,46,127,64
1,46,127,64
1,46,127,64
1,45,127,64
1,46,127,64
1,46,127,64
1,46,127,64
1,45,127,64
1,46,127,64
1,46,127,64
1,46,127,64
1,45,127,64
1,46,127,64
1,46,127,64
1,41,127,64
1,43,127,64
1,43,127,128
1,43,127,128
1,43,127,64
1,45,127,64
1,46,127,64
1,46,127,64
1,46,127,128
1,46,127,64
1,48,127,64
1,50,127,64
1,43,127,64
1,43,127,256
1,41,127,832
1,41,127,64
1,41,127,64
1,41,127,64
1,41,127,64
1,41,127,64
1,41,127,64
1,39,127,64
1,39,127,128
1,39,127,64
1,39,127,128
1,39,127,64
1,41,127,64
1,41,127,64
1,41,127,128
1,41,127,64
1,41,127,128
1,41,127,64
1,46,127,128
1,46,127,128
1,46,127,64
1,46,127,64
1,46,127,64
1,53,127,64
1,43,127,64
1,41,127,256
1,41,127,128
1,41,127,64
1,43,127,64
1,46,127,64
1,48,127,64
1,46,127,64
1,46,127,128
1,46,127,64
1,46,127,64
1,46,127,64
1,53,127,64
1,43,127,64
1,41,127,256
1,41,127,128
1,41,127,64
1,43,127,64
1,46,127,64
1,48,127,64
1,46,127,64
1,46,127,128
1,46,127,64
1,46,127,64
1,46,127,64
1,53,127,64
1,43,127,64
1,41,127,256
1,41,127,128
1,41,127,64
1,43,127,64
1,46,127,64
1,48,127,64
1,46,127,64
1,46,127,128
1,46,127,64
1,46,127,64
1,46,127,64
1,53,127,64
1,43,127,64
1,41,127,256
1,41,127,128
1,41,127,64
1,43,127,64
1,46,127,64
1,48,127,64
1,46,127,64
1,46,127,128
1,46,127,64
1,46,127,64
1,46,127,64
1,46,127,64
1,43,127,64
1,41,127,256
1,41,127,128
1,41,127,64
1,43,127,64
1,46,127,64
1,48,127,64
1,46,127,64
1,46,127,128
1,46,127,64
1,46,127,64
1,46,127,64
1,46,127,64
1,43,127,64
1,41,127,256
1,41,127,128
1,41,127,64
1,43,127,64
1,46,127,64
1,48,127,64
1,46,127,64
1,46,127,128
1,46,127,64
1,46,127,64
1,46,127,64
1,46,127,64
1,43,127,64
1,41,127,256
1,41,127,128
1,41,127,64
1,43,127,64
1,46,127,64
1,48,127,64
1,46,127,64
1,46,127,128
1,46,127,64
1,46,127,64
1,46,127,64
1,46,127,64
1,43,127,64
1,41,127,256
1,41,127,128
1,41,127,64
1,43,127,64
1,46,127,64
1,48,127,64
1,46,127,64
1,46,127,128
1,46,127,64
1,46,127,64
1,46,127,64
1,46,127,64
1,43,127,64
1,41,127,256
1,41,127,128
1,41,127,64
1,43,127,64
1,46,127,64
1,48,127,64
1,46,127,64
1,46,127,128
1,46,127,64
1,46,127,64
1,46,127,64
1,46,127,64
1,43,127,64
1,41,127,256
1,41,127,128
1,41,127,64
1,43,127,64
1,46,127,64
1,48,127,64
1,46,127,64
1,46,127,128
1,46,127,64
1,46,127,64
1,46,127,64
1,46,127,64
1,43,127,64
1,41,127,256
1,41,127,128
1,41,127,64
1,43,127,64
1,46,127,64
1,48,127,64
1,46,127,64
1,46,127,128
1,46,127,128
1,46,127,64
1,46,127,64
1,43,127,64
1,41,127,256
1,41,127,128
1,41,127,64
1,43,127,64
1,46,127,64
1,43,127,64
1,43,127,64
1,43,127,128
1,43,127,128
1,43,127,64
1,45,127,64
1,46,127,64
1,46,127,192
1,46,127,64
1,46,127,128
1,46,127,64
1,48,127,64
1,50,127,64
1,43,127,64
1,43,127,256
1,41,127,832
1,41,127,192
1,41,127,64
1,41,127,64
1,41,127,64
1,41,127,64
1,41,127,64
1,41,127,64
1,39,127,64
1,39,127,128
1,39,127,64
1,39,127,128
1,39,127,64
1,41,127,64
1,41,127,64
1,41,127,128
1,41,127,64
1,41,127,128
1,41,127,64
1,45,127,128
1,46,127,64
1,46,127,64
1,46,127,64
1,45,127,64
1,46,127,64
1,46,127,64
1,46,127,64
1,45,127,64
1,46,127,64
1,46,127,64
1,46,127,64
1,45,127,64
1,46,127,64
1,46,127,64
1,41,127,64
1,43,127,64
1,43,127,128
1,43,127,128
1,43,127,64
1,45,127,64
1,46,127,64
1,46,127,192
1,46,127,64
1,46,127,128
1,46,127,64
1,48,127,64
1,50,127,64
1,43,127,64
1,43,127,256
1,41,127,832
1,41,127,192
1,41,127,64
1,41,127,64
1,41,127,64
1,41,127,64
1,41,127,64
1,41,127,64
1,39,127,64
1,39,127,128
1,39,127,64
1,39,127,128
1,39,127,64
1,41,127,64
1,41,127,64
1,41,127,128
1,41,127,64
1,41,127,128
1,41,127,64
1,46,127,128
1,46,127,128
1,46,127,64
1,46,127,64
1,46,127,64
1,53,127,64
1,43,127,64
1,41,127,256
1,41,127,128
1,41,127,64
1,43,127,64
1,46,127,64
1,48,127,64
1,46,127,64
1,46,127,128
1,46,127,64
1,46,127,64
1,46,127,64
1,53,127,64
1,43,127,64
1,41,127,256
1,41,127,128
1,41,127,64
1,43,127,64
1,46,127,64
1,48,127,64
1,46,127,64
1,46,127,128
1,46,127,64
1,46,127,64
1,46,127,64
1,53,127,64
1,43,127,64
1,41,127,256
1,41,127,128
1,41,127,64
1,43,127,64
1,46,127,64
1,48,127,64
1,46,127,64
1,46,127,128
1,46,127,64
1,46,127,64
1,46,127,64
1,53,127,64
1,43,127,64
1,41,127,256
1,41,127,128
1,41,127,64
1,43,127,64
1,46,127,64
1,48,127,64
1,46,127,64
2,46,106,1536
2,58,106,0
2,53,106,0
2,46,106,128
2,58,106,0
2,53,106,0
2,46,106,64
2,58,106,0
2,53,106,0
2,46,106,64
2,58,106,0
2,53,106,0
2,41,106,64
2,53,106,0
2,48,106,0
2,43,106,256
2,55,106,0
2,50,106,0
2,41,106,256
2,53,106,0
2,48,106,0
2,41,106,128
2,53,106,0
2,48,106,0
2,41,106,64
2,53,106,0
2,48,106,0
2,41,106,64
2,53,106,0
2,48,106,0
2,41,106,64
2,48,106,0
2,53,106,0
2,41,106,64
2,53,106,0
2,48,106,0
2,46,106,64
2,58,106,0
2,53,106,0
2,46,106,128
2,58,106,0
2,53,106,0
2,46,106,64
2,58,106,0
2,53,106,0
2,46,106,64
2,58,106,0
2,53,106,0
2,41,106,64
2,53,106,0
2,48,106,0
2,43,106,256
2,55,106,0
2,50,106,0
2,41,106,256
2,53,106,0
2,48,106,0
2,41,106,128
2,53,106,0
2,48,106,0
2,41,106,64
2,53,106,0
2,48,106,0
2,41,106,64
2,53,106,0
2,48,106,0
2,41,106,64
2,48,106,0
2,53,106,0
2,41,106,64
2,53,106,0
2,48,106,0
2,46,106,64
2,58,106,0
2,53,106,0
2,46,106,128
2,58,106,0
2,53,106,0
2,46,106,64
2,58,106,0
2,53,106,0
2,46,106,64
2,58,106,0
2,53,106,0
2,41,106,64
2,53,106,0
2,48,106,0
2,43,106,256
2,55,106,0
2,50,106,0
2,41,106,256
2,53,106,0
2,48,106,0
2,41,106,128
2,53,106,0
2,48,106,0
2,41,106,64
2,53,106,0
2,48,106,0
2,41,106,64
2,53,106,0
2,48,106,0
2,41,106,64
2,48,106,0
2,53,106,0
2,41,106,64
2,53,106,0
2,48,106,0
2,46,106,64
2,58,106,0
2,53,106,0
2,46,106,128
2,58,106,0
2,53,106,0
2,46,106,64
2,58,106,0
2,53,106,0
2,46,106,64
2,58,106,0
2,53,106,0
2,41,106,64
2,53,106,0
2,48,106,0
2,43,106,256
2,55,106,0
2,50,106,0
2,41,106,256
2,53,106,0
2,48,106,0
2,41,106,128
2,53,106,0
2,48,106,0
2,41,106,64
2,53,106,0
2,48,106,0
2,41,106,64
2,53,106,0
2,48,106,0
2,41,106,64
2,48,106,0
2,53,106,0
2,41,106,64
2,53,106,0
2,48,106,0
2,58,106,64
2,53,106,0
2,46,106,0
2,58,106,128
2,53,106,0
2,46,106,0
2,58,106,128
2,53,106,0
2,46,106,0
2,58,106,64
2,53,106,0
2,46,106,0
2,58,106,64
2,53,106,0
2,46,106,0
2,53,106,64
2,48,106,0
2,41,106,0
2,53,106,64
2,48,106,0
2,41,106,0
2,53,106,128
2,48,106,0
2,41,106,0
2,53,106,64
2,48,106,0
2,41,106,0
2,53,106,64
2,48,106,0
2,41,106,0
2,53,106,64
2,48,106,0
2,41,106,0
2,58,106,64
2,53,106,0
2,46,106,0
2,58,106,128
2,53,106,0
2,46,106,0
2,58,106,128
2,53,106,0
2,46,106,0
2,58,106,64
2,53,106,0
2,46,106,0
2,58,106,64
2,53,106,0
2,46,106,0
2,53,106,64
2,48,106,0
2,41,106,0
2,53,106,64
2,48,106,0
2,41,106,0
2,53,106,128
2,48,106,0
2,41,106,0
2,53,106,64
2,48,106,0
2,41,106,0
2,53,106,64
2,48,106,0
2,41,106,0
2,53,106,64
2,48,106,0
2,41,106,0
2,58,106,64
2,53,106,0
2,46,106,0
2,58,106,128
2,53,106,0
2,46,106,0
2,58,106,128
2,53,106,0
2,46,106,0
2,58,106,64
2,53,106,0
2,46,106,0
2,58,106,64
2,53,106,0
2,46,106,0
2,53,106,64
2,48,106,0
2,41,106,0
2,53,106,64
2,48,106,0
2,41,106,0
2,53,106,128
2,48,106,0
2,41,106,0
2,53,106,64
2,48,106,0
2,41,106,0
2,53,106,64
2,48,106,0
2,41,106,0
2,53,106,64
2,48,106,0
2,41,106,0
2,58,106,64
2,53,106,0
2,46,106,0
2,58,106,128
2,53,106,0
2,46,106,0
2,58,106,128
2,53,106,0
2,46,106,0
2,58,106,64
2,53,106,0
2,46,106,0
2,58,106,64
2,53,106,0
2,46,106,0
2,53,106,64
2,48,106,0
2,41,106,0
2,53,106,64
2,48,106,0
2,41,106,0
2,53,106,128
2,48,106,0
2,41,106,0
2,53,106,64
2,48,106,0
2,41,106,0
2,53,106,64
2,48,106,0
2,41,106,0
2,53,106,64
2,48,106,0
2,41,106,0
2,50,106,64
2,55,106,0
2,43,106,0
2,55,106,128
2,50,106,0
2,43,106,0
2,55,106,64
2,50,106,0
2,43,106,0
2,55,106,64
2,50,106,0
2,43,106,0
2,55,106,64
2,50,106,0
2,43,106,0
2,45,106,64
2,51,106,0
2,57,106,0
2,58,106,64
2,53,106,0
2,46,106,0
2,46,106,64
2,53,106,0
2,58,106,0
2,46,106,128
2,58,106,0
2,53,106,0
2,46,106,64
2,53,106,0
2,58,106,0
2,48,106,64
2,55,106,0
2,60,106,0
2,50,106,64
2,57,106,0
2,62,106,0
2,43,106,64
2,50,106,0
2,55,106,0
2,43,106,256
2,50,106,0
2,55,106,0
2,53,106,832
2,48,106,0
2,41,106,0
2,48,106,64
2,53,106,0
2,41,106,0
2,41,106,128
2,48,106,0
2,53,106,0
2,41,106,64
2,48,106,0
2,53,106,0
2,41,106,64
2,48,106,0
2,53,106,0
2,41,106,64
2,53,106,0
2,48,106,0
2,39,106,64
2,46,106,0
2,51,106,0
2,39,106,128
2,46,106,0
2,51,106,0
2,39,106,64
2,46,106,0
2,51,106,0
2,39,106,128
2,46,106,0
2,51,106,0
2,39,106,64
2,46,106,0
