track,note,velocity,time
1,42,100,480
1,54,100,0
1,49,100,0
1,49,0,60
1,54,0,0
1,42,0,0
1,49,100,0
1,42,100,0
1,54,100,0
1,54,0,60
1,42,0,0
1,49,0,0
1,42,100,0
1,49,100,0
1,54,100,0
1,54,0,60
1,49,0,0
1,42,0,0
1,42,100,0
1,49,100,0
1,54,100,0
1,54,0,60
1,49,0,0
1,42,0,0
1,42,100,0
1,49,100,0
1,54,100,0
1,54,0,60
1,49,0,0
1,42,0,0
1,54,100,0
1,49,100,0
1,42,100,0
1,42,0,60
1,49,0,0
1,54,0,0
1,42,100,0
1,49,100,0
1,54,100,0
1,54,0,60
1,49,0,0
1,42,0,0
1,42,100,0
1,49,100,0
1,54,100,0
1,54,0,60
1,49,0,0
1,42,0,0
1,49,100,0
1,42,100,0
1,54,100,0
1,54,0,60
1,42,0,0
1,49,0,0
1,49,100,0
1,42,100,0
1,54,100,0
1,54,0,60
1,42,0,0
1,49,0,0
1,42,100,0
1,49,100,0
1,54,100,0
1,54,0,60
1,49,0,0
1,42,0,0
1,42,100,0
1,49,100,0
1,54,100,0
1,54,0,60
1,49,0,0
1,42,0,0
1,42,100,0
1,49,100,0
1,54,100,0
1,54,0,60
1,49,0,0
1,42,0,0
1,54,100,0
1,49,100,0
1,42,100,0
1,42,0,60
1,49,0,0
1,54,0,0
1,42,100,0
1,49,100,0
1,54,100,0
1,54,0,60
1,49,0,0
1,42,0,0
1,42,100,0
1,49,100,0
1,54,100,0
1,54,0,60
1,49,0,0
1,42,0,0
1,51,100,0
1,46,100,0
1,39,100,0
1,39,0,60
1,46,0,0
1,51,0,0
1,46,100,0
1,39,100,0
1,51,100,0
1,51,0,60
1,39,0,0
1,46,0,0
1,46,100,0
1,51,100,0
1,39,100,0
1,39,0,60
1,51,0,0
1,46,0,0
1,46,100,0
1,51,100,0
1,39,100,0
1,39,0,60
1,51,0,0
1,46,0,0
1,46,100,0
1,51,100,0
1,39,100,0
1,39,0,60
1,51,0,0
1,46,0,0
1,46,100,0
1,51,100,0
1,39,100,0
1,39,0,60
1,51,0,0
1,46,0,0
1,46,100,0
1,51,100,0
1,39,100,0
1,39,0,60
1,51,0,0
1,46,0,0
1,46,100,0
1,51,100,0
1,39,100,0
1,39,0,60
1,51,0,0
1,46,0,0
1,46,100,0
1,39,100,0
1,51,100,0
1,51,0,60
1,39,0,0
1,46,0,0
1,46,100,0
1,39,100,0
1,51,100,0
1,51,0,60
1,39,0,0
1,46,0,0
1,46,100,0
1,51,100,0
1,39,100,0
1,39,0,60
1,51,0,0
1,46,0,0
1,46,100,0
1,51,100,0
1,39,100,0
1,39,0,60
1,51,0,0
1,46,0,0
1,46,100,0
1,51,100,0
1,39,100,0
1,39,0,60
1,51,0,0
1,46,0,0
1,46,100,0
1,51,100,0
1,39,100,0
1,39,0,60
1,51,0,0
1,46,0,0
1,46,100,0
1,51,100,0
1,39,100,0
1,39,0,60
1,51,0,0
1,46,0,0
1,46,100,0
1,51,100,0
1,39,100,0
1,39,0,60
1,51,0,0
1,46,0,0
1,54,100,0
1,47,100,0
1,59,100,0
1,59,0,60
1,47,0,0
1,54,0,0
1,54,100,0
1,47,100,0
1,59,100,0
1,59,0,60
1,47,0,0
1,54,0,0
1,54,100,0
1,59,100,0
1,47,100,0
1,47,0,60
1,59,0,0
1,54,0,0
1,54,100,0
1,59,100,0
1,47,100,0
1,47,0,60
1,59,0,0
1,54,0,0
1,54,100,0
1,59,100,0
1,47,100,0
1,47,0,60
1,59,0,0
1,54,0,0
1,54,100,0
1,59,100,0
1,47,100,0
1,47,0,60
1,59,0,0
1,54,0,0
1,54,100,0
1,59,100,0
1,47,100,0
1,47,0,60
1,59,0,0
1,54,0,0
1,54,100,0
1,59,100,0
1,47,100,0
1,47,0,60
1,59,0,0
1,54,0,0
1,54,100,0
1,47,100,0
1,59,100,0
1,59,0,60
1,47,0,0
1,54,0,0
1,54,100,0
1,47,100,0
1,59,100,0
1,59,0,60
1,47,0,0
1,54,0,0
1,54,100,0
1,59,100,0
1,47,100,0
1,47,0,60
1,59,0,0
1,54,0,0
1,54,100,0
1,59,100,0
1,47,100,0
1,47,0,60
1,59,0,0
1,54,0,0
1,54,100,0
1,59,100,0
1,47,100,0
1,47,0,60
1,59,0,0
1,54,0,0
1,54,100,0
1,59,100,0
1,47,100,0
1,47,0,60
1,59,0,0
1,54,0,0
1,54,100,0
1,59,100,0
1,47,100,0
1,47,0,60
1,59,0,0
1,54,0,0
1,54,100,0
1,59,100,0
1,47,100,0
1,47,0,60
1,59,0,0
1,54,0,0
1,49,100,0
1,56,100,0
1,61,100,0
1,61,0,120
1,56,0,0
1,49,0,0
1,56,100,0
1,49,100,0
1,61,100,0
1,61,0,120
1,49,0,0
1,56,0,0
1,49,100,0
1,56,100,0
1,61,100,0
1,61,0,60
1,56,0,0
1,49,0,0
1,49,100,0
1,56,100,0
1,61,100,0
1,61,0,60
1,56,0,0
1,49,0,0
1,49,100,0
1,56,100,0
1,61,100,0
1,61,0,60
1,56,0,0
1,49,0,0
1,49,100,0
1,56,100,0
1,61,100,0
1,61,0,120
1,56,0,0
1,49,0,0
1,56,100,0
1,49,100,0
1,61,100,0
1,61,0,60
1,49,0,0
1,56,0,0
1,56,100,0
1,49,100,0
1,61,100,0
1,61,0,60
1,49,0,0
1,56,0,0
1,56,100,0
1,49,100,0
1,61,100,0
1,61,0,60
1,49,0,0
1,56,0,0
1,56,100,0
1,49,100,0
1,61,100,0
1,61,0,60
1,49,0,0
1,56,0,0
1,56,100,0
1,49,100,0
1,61,100,0
1,61,0,60
1,49,0,0
1,56,0,0
1,49,100,0
1,56,100,0
1,61,100,0
1,61,0,60
1,56,0,0
1,49,0,0
1,56,100,0
1,49,100,0
1,61,100,0
1,61,0,60
1,49,0,0
1,56,0,0
1,54,100,0
1,49,100,0
1,42,100,0
1,42,0,60
1,49,0,0
1,54,0,0
1,49,100,0
1,42,100,0
1,54,100,0
1,54,0,60
1,42,0,0
1,49,0,0
1,42,100,0
1,49,100,0
1,54,100,0
1,54,0,60
1,49,0,0
1,42,0,0
1,42,100,0
1,49,100,0
1,54,100,0
1,54,0,60
1,49,0,0
1,42,0,0
1,42,100,0
1,49,100,0
1,54,100,0
1,54,0,60
1,49,0,0
1,42,0,0
1,54,100,0
1,49,100,0
1,42,100,0
1,42,0,60
1,49,0,0
1,54,0,0
1,42,100,0
1,49,100,0
1,54,100,0
1,54,0,60
1,49,0,0
1,42,0,0
1,42,100,0
1,49,100,0
1,54,100,0
1,54,0,60
1,49,0,0
1,42,0,0
1,49,100,0
1,42,100,0
1,54,100,0
1,54,0,60
1,42,0,0
1,49,0,0
1,49,100,0
1,42,100,0
1,54,100,0
1,54,0,60
1,42,0,0
1,49,0,0
1,42,100,0
1,49,100,0
1,54,100,0
1,54,0,60
1,49,0,0
1,42,0,0
1,42,100,0
1,49,100,0
1,54,100,0
1,54,0,60
1,49,0,0
1,42,0,0
1,42,100,0
1,49,100,0
1,54,100,0
1,54,0,60
1,49,0,0
1,42,0,0
1,54,100,0
1,49,100,0
1,42,100,0
1,42,0,60
1,49,0,0
1,54,0,0
1,42,100,0
1,49,100,0
1,54,100,0
1,54,0,60
1,49,0,0
1,42,0,0
1,42,100,0
1,49,100,0
1,54,100,0
1,54,0,60
1,49,0,0
1,42,0,0
1,51,100,0
1,46,100,0
1,39,100,0
1,39,0,60
1,46,0,0
1,51,0,0
1,46,100,0
1,39,100,0
1,51,100,0
1,51,0,60
1,39,0,0
1,46,0,0
1,46,100,0
1,51,100,0
1,39,100,0
1,39,0,60
1,51,0,0
1,46,0,0
1,46,100,0
1,51,100,0
1,39,100,0
1,39,0,60
1,51,0,0
1,46,0,0
1,46,100,0
1,51,100,0
1,39,100,0
1,39,0,60
1,51,0,0
1,46,0,0
1,46,100,0
1,51,100,0
1,39,100,0
1,39,0,60
1,51,0,0
1,46,0,0
1,46,100,0
1,51,100,0
1,39,100,0
1,39,0,60
1,51,0,0
1,46,0,0
1,46,100,0
1,51,100,0
1,39,100,0
1,39,0,60
1,51,0,0
1,46,0,0
1,46,100,0
1,39,100,0
1,51,100,0
1,51,0,60
1,39,0,0
1,46,0,0
1,46,100,0
1,39,100,0
1,51,100,0
1,51,0,60
1,39,0,0
1,46,0,0
1,46,100,0
1,51,100,0
1,39,100,0
1,39,0,60
1,51,0,0
1,46,0,0
1,46,100,0
1,51,100,0
1,39,100,0
1,39,0,60
1,51,0,0
1,46,0,0
1,46,100,0
1,51,100,0
1,39,100,0
1,39,0,60
1,51,0,0
1,46,0,0
1,46,100,0
1,51,100,0
1,39,100,0
1,39,0,60
1,51,0,0
1,46,0,0
1,46,100,0
1,51,100,0
1,39,100,0
1,39,0,60
1,51,0,0
1,46,0,0
1,46,100,0
1,51,100,0
1,39,100,0
1,39,0,60
1,51,0,0
1,46,0,0
1,54,100,0
1,47,100,0
1,59,100,0
1,59,0,60
1,47,0,0
1,54,0,0
1,54,100,0
1,47,100,0
1,59,100,0
1,59,0,60
1,47,0,0
1,54,0,0
1,54,100,0
1,59,100,0
1,47,100,0
1,47,0,60
1,59,0,0
1,54,0,0
1,54,100,0
1,59,100,0
1,47,100,0
1,47,0,60
1,59,0,0
1,54,0,0
1,54,100,0
1,59,100,0
1,47,100,0
1,47,0,60
1,59,0,0
1,54,0,0
1,54,100,0
1,59,100,0
1,47,100,0
1,47,0,60
1,59,0,0
1,54,0,0
1,54,100,0
1,59,100,0
1,47,100,0
1,47,0,60
1,59,0,0
1,54,0,0
1,54,100,0
1,59,100,0
1,47,100,0
1,47,0,60
1,59,0,0
1,54,0,0
1,54,100,0
1,47,100,0
1,59,100,0
1,59,0,60
1,47,0,0
1,54,0,0
1,54,100,0
1,47,100,0
1,59,100,0
1,59,0,60
1,47,0,0
1,54,0,0
1,54,100,0
1,59,100,0
1,47,100,0
1,47,0,60
1,59,0,0
1,54,0,0
1,54,100,0
1,59,100,0
1,47,100,0
1,47,0,60
1,59,0,0
1,54,0,0
1,54,100,0
1,59,100,0
1,47,100,0
1,47,0,60
1,59,0,0
1,54,0,0
1,54,100,0
1,59,100,0
1,47,100,0
1,47,0,60
1,59,0,0
1,54,0,0
1,54,100,0
1,59,100,0
1,47,100,0
1,47,0,60
1,59,0,0
1,54,0,0
1,54,100,0
1,59,100,0
1,47,100,0
1,47,0,60
1,59,0,0
1,54,0,0
1,49,100,0
1,56,100,0
1,61,100,0
1,61,0,120
1,56,0,0
1,49,0,0
1,56,100,0
1,49,100,0
1,61,100,0
1,61,0,120
1,49,0,0
1,56,0,0
1,49,100,0
1,56,100,0
1,61,100,0
1,61,0,60
1,56,0,0
1,49,0,0
1,49,100,0
1,56,100,0
1,61,100,0
1,61,0,60
1,56,0,0
1,49,0,0
1,49,100,0
1,56,100,0
1,61,100,0
1,61,0,60
1,56,0,0
1,49,0,0
1,61,100,0
1,56,100,0
1,49,100,0
1,49,0,120
1,56,0,0
1,61,0,0
1,56,100,0
1,49,100,0
1,61,100,0
1,61,0,60
1,49,0,0
1,56,0,0
1,56,100,0
1,49,100,0
1,61,100,0
1,61,0,60
1,49,0,0
1,56,0,0
1,56,100,0
1,49,100,0
1,61,100,0
1,61,0,60
1,49,0,0
1,56,0,0
1,56,100,0
1,49,100,0
1,61,100,0
1,61,0,60
1,49,0,0
1,56,0,0
1,56,100,0
1,49,100,0
1,61,100,0
1,61,0,60
1,49,0,0
1,56,0,0
1,49,100,0
1,56,100,0
1,61,100,0
1,61,0,60
1,56,0,0
1,49,0,0
1,56,100,0
1,49,100,0
1,61,100,0
1,61,0,60
1,49,0,0
1,56,0,0
1,59,100,0
1,54,100,0
1,47,100,0
1,47,0,120
1,54,0,0
1,59,0,0
1,54,100,0
1,47,100,0
1,59,100,0
1,59,0,120
1,47,0,0
1,54,0,0
1,47,100,0
1,59,100,0
1,54,100,0
1,54,0,60
1,59,0,0
1,47,0,0
1,47,100,0
1,54,100,0
1,59,100,0
1,59,0,60
1,54,0,0
1,47,0,0
1,47,100,0
1,54,100,0
1,59,100,0
1,59,0,60
1,54,0,0
1,47,0,0
1,42,100,0
1,49,100,0
1,54,100,0
1,54,0,180
1,49,0,0
1,42,0,0
1,42,100,0
1,49,100,0
1,54,100,0
1,54,0,120
1,49,0,0
1,42,0,0
1,42,100,0
1,49,100,0
1,54,100,0
1,54,0,60
1,49,0,0
1,42,0,0
1,42,100,0
1,49,100,0
1,54,100,0
1,54,0,60
1,49,0,0
1,42,0,0
1,42,100,0
1,49,100,0
1,54,100,0
1,54,0,120
1,49,0,0
1,42,0,0
1,49,100,0
1,56,100,0
1,61,100,0
1,61,0,120
1,56,0,0
1,49,0,0
1,49,100,0
1,56,100,0
1,61,100,0
1,61,0,120
1,56,0,0
1,49,0,0
1,49,100,0
1,56,100,0
1,61,100,0
1,61,0,60
1,56,0,0
1,49,0,0
1,56,100,0
1,49,100,0
1,61,100,0
1,61,0,60
1,49,0,0
1,56,0,0
1,49,100,0
1,56,100,0
1,61,100,0
1,61,0,60
1,56,0,0
1,49,0,0
1,49,100,0
1,56,100,0
1,61,100,0
1,61,0,120
1,56,0,0
1,49,0,0
1,56,100,0
1,49,100,0
1,61,100,0
1,61,0,60
1,49,0,0
1,56,0,0
1,49,100,0
1,56,100,0
1,61,100,0
1,61,0,60
1,56,0,0
1,49,0,0
1,56,100,0
1,49,100,0
1,61,100,0
1,61,0,60
1,49,0,0
1,56,0,0
1,49,100,0
1,56,100,0
1,61,100,0
1,61,0,60
1,56,0,0
1,49,0,0
1,56,100,0
1,49,100,0
1,61,100,0
1,61,0,60
1,49,0,0
1,56,0,0
1,49,100,0
1,56,100,0
1,61,100,0
1,61,0,60
1,56,0,0
1,49,0,0
1,56,100,0
1,49,100,0
1,61,100,0
1,61,0,60
1,49,0,0
1,56,0,0
1,59,100,0
1,54,100,0
1,47,100,0
1,47,0,120
1,54,0,0
1,59,0,0
1,54,100,0
1,47,100,0
1,59,100,0
1,59,0,120
1,47,0,0
1,54,0,0
1,59,100,0
1,47,100,0
1,54,100,0
1,54,0,60
1,47,0,0
1,59,0,0
1,47,100,0
1,54,100,0
1,59,100,0
1,59,0,60
1,54,0,0
1,47,0,0
1,47,100,0
1,54,100,0
1,59,100,0
1,59,0,60
1,54,0,0
1,47,0,0
1,49,100,0
1,42,100,0
1,54,100,0
1,54,0,180
1,42,0,0
1,49,0,0
1,42,100,0
1,49,100,0
1,54,100,0
1,54,0,120
1,49,0,0
1,42,0,0
1,42,100,0
1,49,100,0
1,54,100,0
1,54,0,60
1,49,0,0
1,42,0,0
1,42,100,0
1,49,100,0
1,54,100,0
1,54,0,60
1,49,0,0
1,42,0,0
1,42,100,0
1,49,100,0
1,54,100,0
1,54,0,120
1,49,0,0
1,42,0,0
1,56,100,0
1,49,100,0
1,61,100,0
1,61,0,120
1,49,0,0
1,56,0,0
1,49,100,0
1,56,100,0
1,61,100,0
1,61,0,120
1,56,0,0
1,49,0,0
1,49,100,0
1,56,100,0
1,61,100,0
1,61,0,60
1,56,0,0
1,49,0,0
1,56,100,0
1,49,100,0
1,61,100,0
1,61,0,60
1,49,0,0
1,56,0,0
1,49,100,0
1,56,100,0
1,61,100,0
1,61,0,60
1,56,0,0
1,49,0,0
1,49,100,0
1,56,100,0
1,61,100,0
1,61,0,120
1,56,0,0
1,49,0,0
1,56,100,0
1,49,100,0
1,61,100,0
1,61,0,60
1,49,0,0
1,56,0,0
1,49,100,0
1,56,100,0
1,61,100,0
1,61,0,60
1,56,0,0
1,49,0,0
1,56,100,0
1,49,100,0
1,61,100,0
1,61,0,60
1,49,0,0
1,56,0,0
1,49,100,0
1,56,100,0
1,61,100,0
1,61,0,60
1,56,0,0
1,49,0,0
1,56,100,0
1,49,100,0
1,61,100,0
1,61,0,60
1,49,0,0
1,56,0,0
1,49,100,0
1,56,100,0
1,61,100,0
1,61,0,60
