track,note,velocity,time
1,31,108,25154
1,34,109,74
1,36,107,74
1,38,108,74
1,31,103,74
1,34,107,74
1,36,108,74
1,38,107,74
1,31,105,74
1,34,109,74
1,36,106,74
1,38,107,74
1,31,105,74
1,34,110,74
1,36,107,74
1,38,107,74
1,31,108,74
1,34,109,74
1,36,107,74
1,38,108,74
1,31,103,74
1,34,107,74
1,36,108,74
1,38,107,74
1,31,105,74
1,34,109,74
1,36,106,74
1,38,107,74
1,31,105,74
1,34,110,74
1,36,107,74
1,38,107,74
1,31,108,74
1,31,103,74
1,34,109,74
1,34,109,74
1,36,114,74
1,38,97,106
1,31,108,138
1,31,103,74
1,34,109,74
1,34,109,74
1,36,114,74
1,38,97,106
1,31,108,138
1,31,103,74
1,34,109,74
1,34,109,74
1,36,114,74
1,38,97,106
1,31,108,138
1,31,103,74
1,34,109,74
1,34,109,74
1,36,114,74
1,38,97,106
1,31,108,138
1,31,103,74
1,34,109,74
1,34,109,74
1,36,114,74
1,38,97,106
1,31,108,138
1,31,103,74
1,34,109,74
1,34,109,74
1,36,114,74
1,38,97,106
1,31,108,138
1,31,103,74
1,34,109,74
1,34,109,74
1,36,114,74
1,38,97,106
1,31,108,138
1,31,103,74
1,34,109,74
1,34,109,74
1,36,114,74
1,38,97,106
1,31,103,138
1,34,107,74
1,36,108,74
1,38,107,74
1,31,105,74
1,34,109,74
1,36,106,74
1,38,107,74
1,31,103,74
1,34,107,74
1,36,108,74
1,38,107,74
1,31,105,74
1,34,109,74
1,36,106,74
1,38,107,74
1,31,103,74
1,34,107,74
1,36,108,74
1,38,107,74
1,31,105,74
1,34,109,74
1,36,106,74
1,38,107,74
1,31,103,74
1,34,107,74
1,36,108,74
1,38,107,74
1,31,105,74
1,31,108,1226
1,31,103,74
1,34,109,74
1,34,109,74
1,36,114,74
1,38,97,106
1,31,108,138
1,31,103,74
1,34,109,74
1,34,109,74
1,36,114,74
1,38,97,106
1,31,108,138
1,31,103,74
1,34,109,74
1,34,109,74
1,36,114,74
1,38,97,106
1,31,108,138
1,31,103,74
1,34,109,74
1,34,109,74
1,36,114,74
1,38,97,106
1,31,108,138
1,31,103,74
1,34,109,74
1,34,109,74
1,36,114,74
1,38,97,106
1,31,108,138
1,31,103,74
1,34,109,74
1,34,109,74
1,36,114,74
1,38,97,106
1,31,108,138
1,31,103,74
1,34,109,74
1,34,109,74
1,36,114,74
1,38,97,106
1,31,108,138
1,31,103,74
1,34,109,74
1,34,109,74
1,36,114,74
1,38,97,106
1,31,108,138
1,34,109,74
1,36,107,74
1,38,108,74
1,31,103,74
1,34,107,74
1,36,108,74
1,38,107,74
1,31,105,74
1,34,109,74
1,36,106,74
1,38,107,74
1,31,105,74
1,34,110,74
1,36,107,74
1,38,107,74
1,31,108,74
1,34,109,74
1,36,107,74
1,38,108,74
1,31,103,74
1,34,107,74
1,36,108,74
1,38,107,74
1,31,105,74
1,34,109,74
1,36,106,74
1,38,107,74
1,31,105,74
1,34,110,74
1,36,107,74
1,38,107,74
1,31,108,74
1,31,103,74
1,34,109,74
1,34,109,74
1,36,114,74
1,38,97,106
1,31,108,138
1,31,103,74
1,34,109,74
1,34,109,74
1,36,114,74
1,38,97,106
1,31,108,138
1,31,103,74
1,34,109,74
1,34,109,74
1,36,114,74
1,38,97,106
1,31,108,138
1,31,103,74
1,34,109,74
1,34,109,74
1,36,114,74
1,38,97,106
1,31,108,138
1,31,103,74
1,34,109,74
1,34,109,74
1,36,114,74
1,38,97,106
1,31,108,138
1,31,103,74
1,34,109,74
1,34,109,74
1,36,114,74
1,38,97,106
1,31,108,138
1,31,103,74
1,34,109,74
1,34,109,74
1,36,114,74
1,38,97,106
1,31,108,138
1,31,103,74
1,34,109,74
1,34,109,74
1,36,114,74
1,38,97,106
1,31,108,9354
1,31,103,74
1,34,109,74
1,34,109,74
1,36,114,74
1,38,97,106
1,31,108,138
1,31,103,74
1,34,109,74
1,34,109,74
1,36,114,74
1,38,97,106
1,31,108,138
1,31,103,74
1,34,109,74
1,34,109,74
1,36,114,74
1,38,97,106
1,31,108,138
1,31,103,74
1,34,109,74
1,34,109,74
1,36,114,74
1,38,97,106
1,31,108,138
1,31,103,74
1,34,109,74
1,34,109,74
1,36,114,74
1,38,97,106
1,31,108,138
1,31,103,74
1,34,109,74
1,34,109,74
1,36,114,74
1,38,97,106
1,31,108,138
1,31,103,74
1,34,109,74
1,34,109,74
1,36,114,74
1,38,97,106
1,31,108,138
1,31,103,74
1,34,109,74
1,34,109,74
1,36,114,74
1,38,97,106
1,31,108,138
1,31,103,74
1,34,109,74
1,34,109,74
1,36,114,74
1,38,97,106
1,31,108,138
1,31,103,74
1,34,109,74
1,34,109,74
1,36,114,74
1,38,97,106
1,31,108,138
1,31,103,74
1,34,109,74
1,34,109,74
1,36,114,74
1,38,97,106
1,31,108,138
1,31,103,74
1,34,109,74
1,34,109,74
1,36,114,74
1,38,97,106
1,31,108,138
1,31,103,74
1,34,109,74
1,34,109,74
1,36,114,74
1,38,97,106
1,31,108,138
1,31,103,74
1,34,109,74
1,34,109,74
1,36,114,74
1,38,97,106
1,31,108,138
1,31,103,74
1,34,109,74
1,34,109,74
1,36,114,74
1,38,97,106
1,31,108,138
1,31,103,74
1,34,109,74
1,34,109,74
1,36,114,74
1,38,97,106
1,31,108,138
1,31,103,74
1,34,109,74
1,34,109,74
1,36,114,74
1,38,97,106
1,31,108,138
1,31,103,74
1,34,109,74
1,34,109,74
1,36,114,74
1,38,97,106
1,31,108,138
1,31,103,74
1,34,109,74
1,34,109,74
1,36,114,74
1,38,97,106
1,31,108,138
1,31,103,74
1,34,109,74
1,34,109,74
1,36,114,74
1,38,97,106
1,31,108,138
1,31,103,74
1,34,109,74
1,34,109,74
1,36,114,74
1,38,97,106
1,31,108,138
1,31,103,74
1,34,109,74
1,34,109,74
1,36,114,74
1,38,97,106
1,31,108,138
1,31,103,74
1,34,109,74
1,34,109,74
1,36,114,74
1,38,97,106
1,31,108,138
1,31,103,74
1,34,109,74
1,34,109,74
1,36,114,74
1,38,97,106
1,34,98,16
1,31,114,2
1,31,113,1034
2,55,66,2338
2,58,66,0
2,62,66,0
2,55,66,1184
2,58,66,0
2,62,66,0
2,55,66,1184
2,58,66,0
2,62,66,0
2,55,66,1184
2,58,66,0
2,62,66,0
2,55,66,1184
2,58,66,0
2,62,66,0
2,55,66,1184
2,58,66,0
2,62,66,0
2,55,66,1184
2,58,66,0
2,62,66,0
2,55,66,1184
2,58,66,0
2,62,66,0
2,55,66,1184
2,58,66,0
2,62,66,0
2,55,66,1184
2,58,66,0
2,62,66,0
2,55,66,1184
2,58,66,0
2,62,66,0
2,55,66,1184
2,58,66,0
2,62,66,0
2,55,66,1184
2,58,66,0
2,62,66,0
2,55,66,1184
2,58,66,0
2,62,66,0
2,55,66,1184
2,58,66,0
2,62,66,0
2,55,66,1184
2,58,66,0
2,62,66,0
2,55,66,1184
2,58,66,0
2,62,66,0
2,55,66,1184
2,58,66,0
2,62,66,0
2,55,66,1184
2,58,66,0
2,62,66,0
2,55,66,1184
2,58,66,0
2,62,66,0
2,55,66,1184
2,58,66,0
2,62,66,0
2,55,66,1184
2,58,66,0
2,62,66,0
2,55,66,1184
2,58,66,0
2,62,66,0
2,55,66,1184
2,58,66,0
2,62,66,0
2,55,66,1184
2,58,66,0
2,62,66,0
2,55,66,1184
2,58,66,0
2,62,66,0
2,55,66,1184
2,58,66,0
2,62,66,0
2,55,66,1184
2,58,66,0
2,62,66,0
2,55,66,1184
2,58,66,0
2,62,66,0
2,55,66,1184
2,58,66,0
2,62,66,0
2,55,66,1184
2,58,66,0
2,62,66,0
2,55,66,1184
2,58,66,0
2,62,66,0
2,55,66,1184
2,58,66,0
2,62,66,0
2,55,66,1184
2,58,66,0
2,62,66,0
2,55,66,1184
2,58,66,0
2,62,66,0
2,55,66,1184
2,58,66,0
2,62,66,0
2,55,66,1184
2,58,66,0
2,62,66,0
2,55,66,1184
2,58,66,0
2,62,66,0
2,55,66,1184
2,58,66,0
2,62,66,0
2,55,66,1184
2,58,66,0
2,62,66,0
2,55,66,1184
2,58,66,0
2,62,66,0
2,55,66,1184
2,58,66,0
2,62,66,0
2,55,66,1184
2,58,66,0
2,62,66,0
2,55,66,1184
2,58,66,0
2,62,66,0
2,55,66,1184
2,58,66,0
2,62,66,0
2,55,66,1184
2,58,66,0
2,62,66,0
2,55,66,1184
2,58,66,0
2,62,66,0
2,55,66,1184
2,58,66,0
2,62,66,0
2,55,66,1184
2,58,66,0
2,62,66,0
2,55,66,1184
2,58,66,0
2,62,66,0
2,55,66,1184
2,58,66,0
2,62,66,0
2,55,66,1184
2,58,66,0
2,62,66,0
2,55,66,1184
2,58,66,0
2,62,66,0
2,55,66,1184
2,58,66,0
2,62,66,0
2,55,66,1184
2,58,66,0
2,62,66,0
2,55,66,1184
2,58,66,0
2,62,66,0
2,55,66,1184
2,58,66,0
2,62,66,0
2,55,66,1184
2,58,66,0
2,62,66,0
2,55,66,1184
2,58,66,0
2,62,66,0
2,55,66,1184
2,58,66,0
2,62,66,0
2,55,66,1184
2,58,66,0
2,62,66,0
2,55,66,1184
2,58,66,0
2,62,66,0
2,55,66,1184
2,58,66,0
2,62,66,0
2,55,66,1184
2,58,66,0
2,62,66,0
2,55,66,1184
2,58,66,0
2,62,66,0
2,55,66,1184
2,58,66,0
2,62,66,0
2,55,66,1184
2,58,66,0
2,62,66,0
2,55,66,1184
2,58,66,0
2,62,66,0
2,55,66,1184
2,58,66,0
2,62,66,0
2,55,66,1184
2,58,66,0
2,62,66,0
2,55,66,1184
2,58,66,0
2,62,66,0
2,55,66,1184
2,58,66,0
2,62,66,0
2,55,66,1184
2,58,66,0
2,62,66,0
2,55,66,1184
2,58,66,0
2,62,66,0
2,55,66,1184
2,58,66,0
2,62,66,0
2,55,66,1184
2,58,66,0
2,62,66,0
2,55,66,1184
2,58,66,0
2,62,66,0
2,55,66,1184
2,58,66,0
2,62,66,0
2,55,66,1184
2,58,66,0
2,62,66,0
2,55,66,1184
2,58,66,0
2,62,66,0
2,55,66,1184
2,58,66,0
2,62,66,0
2,55,66,1184
2,58,66,0
2,62,66,0
2,55,66,1184
2,58,66,0
2,62,66,0
2,55,66,1184
2,58,66,0
2,62,66,0
2,55,66,1184
2,58,66,0
2,62,66,0
2,55,66,1184
2,58,66,0
2,62,66,0
2,55,66,1184
2,58,66,0
2,62,66,0
2,55,66,1184
2,58,66,0
2,62,66,0
2,55,66,1184
2,58,66,0
2,62,66,0
2,55,66,1184
2,58,66,0
2,62,66,0
2,55,66,1184
2,58,66,0
2,62,66,0
2,55,66,1184
2,58,66,0
2,62,66,0
2,55,66,1184
2,58,66,0
2,62,66,0
2,55,66,1184
2,58,66,0
2,62,66,0
2,58,66,1184
2,62,66,0
2,67,66,0
3,72,108,6
3,70,91,262
3,70,66,44
3,70,91,40
3,67,85,6142
3,70,91,8
3,70,91,20
3,74,90,14
3,74,95,106
3,70,85,602
3,72,81,44
3,74,77,34
3,74,85,64
3,70,98,406
3,70,98,44
3,72,85,44
3,74,81,54
3,74,81,64
3,67,69,224
3,70,91,32
3,70,98,70
3,70,98,70
3,67,98,2
3,67,69,314
3,70,98,32
3,70,98,44
3,72,85,44
3,74,81,54
3,74,81,64
3,70,91,416
3,70,98,30
3,72,98,30
3,67,98,10
3,67,98,26
3,70,98,410
3,72,98,30
3,67,98,10
3,67,98,26
3,70,98,218
3,70,98,44
3,72,85,44
3,74,81,54
3,74,81,64
3,67,98,224
3,70,98,34
3,70,98,6
3,67,98,10
3,67,98,402
3,70,98,8
3,70,98,28
3,70,98,28
3,72,98,8
3,74,98,2
3,67,103,200
3,70,99,38
3,70,97,30
3,70,100,28
3,72,102,32
3,74,102,2
3,67,103,298
3,70,99,38
3,70,100,30
3,72,102,32
3,74,102,2
3,67,99,298
3,70,99,38
3,70,99,38
3,72,99,38
3,67,99,2
3,67,99,230
3,70,99,2
3,70,99,24
3,67,99,24
3,67,99,600
3,70,99,38
3,70,99,38
3,72,99,38
3,67,99,6
3,67,99,38
3,67,99,230
3,70,99,2
3,70,99,24
3,67,99,24
3,67,94,984
3,70,95,32
3,67,85,88
3,67,88,46
3,67,87,40
3,67,96,32
3,67,87,32
3,67,93,36
3,70,91,10
3,67,87,68
3,67,89,28
3,70,95,210
3,67,85,88
3,67,88,46
3,67,87,40
3,67,87,26
3,70,91,6
3,67,87,68
3,67,89,28
3,67,91,18
3,70,91,68
3,69,91,12
3,67,91,4
3,70,91,20
3,72,113,692
3,70,88,68
3,67,94,214
3,70,95,32
3,67,85,88
3,67,88,46
3,67,87,40
3,67,96,32
3,67,87,32
3,67,93,36
3,70,91,10
3,67,87,68
3,67,89,28
3,70,95,210
3,67,85,88
3,67,88,46
3,67,87,40
3,67,87,26
3,70,91,6
3,67,87,68
3,67,89,28
3,67,91,18
3,70,91,68
3,69,91,12
3,67,91,4
3,70,91,20
3,72,113,692
3,70,88,68
3,67,85,22
3,70,91,8
3,72,90,20
3,74,90,18
3,74,90,26
3,70,85,410
3,70,85,44
3,72,81,44
3,74,77,34
3,74,85,64
3,70,98,406
3,70,98,44
3,72,85,44
3,74,81,54
3,74,81,64
3,67,69,224
3,70,91,32
3,70,98,70
3,72,98,70
3,74,81,10
3,74,81,32
3,67,69,224
3,70,98,32
3,70,98,44
3,72,85,44
3,67,81,54
3,67,81,64
3,70,91,218
3,70,98,30
3,72,98,30
3,74,98,10
3,74,98,26
3,67,98,218
3,70,98,30
3,70,98,30
3,72,98,30
3,74,98,10
3,74,98,26
3,70,98,410
3,72,85,44
3,67,81,54
3,67,81,64
3,67,98,26
3,70,98,4
3,70,98,22
3,67,98,22
3,67,98,26
3,70,98,22
3,70,98,32
3,72,98,8
3,74,98,2
3,67,103,200
3,70,99,38
3,70,97,30
3,70,100,28
3,72,102,32
3,74,102,2
3,67,103,298
3,70,99,38
3,70,100,30
3,72,102,32
3,74,102,2
3,67,99,298
3,70,99,38
3,70,99,38
3,72,99,38
3,67,99,2
3,67,99,230
3,70,99,2
3,70,99,24
3,67,99,24
3,67,99,600
3,70,99,38
3,70,99,38
3,72,99,38
3,67,99,6
3,67,99,38
3,67,99,230
3,70,99,2
3,70,99,24
3,67,99,24
3,67,94,984
3,70,95,32
3,67,85,88
3,67,88,46
3,67,87,40
3,67,96,32
3,67,87,32
3,67,93,36
3,70,91,10
3,67,87,68
3,67,89,28
3,70,95,210
3,67,85,88
3,67,88,46
3,67,87,40
3,67,87,26
3,70,91,6
3,67,87,68
3,67,89,28
3,67,91,18
3,70,91,68
3,69,91,12
3,67,91,4
3,70,91,20
3,72,113,692
3,70,88,68
3,67,94,214
3,70,95,32
3,67,85,88
3,67,88,46
3,67,87,40
3,67,96,32
3,67,87,32
3,67,93,36
3,70,91,10
3,67,87,68
3,67,89,28
3,70,95,210
3,67,85,88
3,67,88,46
3,67,87,40
3,67,87,26
3,70,91,6
3,67,87,68
3,67,89,28
3,67,91,18
3,70,91,68
3,69,91,12
3,67,91,4
3,70,91,20
3,72,113,692
3,70,88,68
3,67,94,214
3,70,95,32
3,67,85,88
3,67,88,46
3,67,87,40
3,67,96,32
3,67,87,32
3,67,93,36
3,70,91,10
3,67,87,68
3,67,89,28
3,70,95,210
3,67,85,88
3,67,88,46
3,67,87,40
3,67,87,26
3,70,91,6
3,67,87,68
3,67,89,28
3,67,91,18
3,70,91,68
3,69,91,12
3,67,91,4
3,70,91,20
3,72,113,692
3,70,88,68
3,67,94,214
3,70,95,32
3,67,85,88
3,67,88,46
3,67,87,40
3,67,96,32
3,67,87,32
3,67,93,36
3,70,91,10
3,67,87,68
3,67,89,28
3,70,95,210
3,67,85,88
3,67,88,46
3,67,87,40
3,67,87,26
3,70,91,6
3,67,87,68
3,67,89,28
3,67,91,18
3,70,91,68
3,69,91,12
3,67,91,4
3,70,91,20
3,72,113,692
3,70,88,68
3,79,99,326
3,74,99,50
3,72,93,42
3,70,96,36
3,67,92,16
3,70,97,34
3,70,95,84
3,67,91,14
3,79,104,288
3,74,101,70
3,72,93,48
