track,note,velocity,time
1,58,80,420
1,55,80,0
1,62,80,0
1,62,0,108
1,55,0,0
1,58,0,0
1,62,80,372
1,55,80,0
1,58,80,0
1,58,0,108
1,55,0,0
1,62,0,0
1,62,80,372
1,55,80,0
1,58,80,0
1,58,0,108
1,55,0,0
1,62,0,0
1,58,80,372
1,55,80,0
1,62,80,0
1,62,0,108
1,55,0,0
1,58,0,0
1,58,80,372
1,55,80,0
1,62,80,0
1,62,0,108
1,55,0,0
1,58,0,0
1,58,80,372
1,55,80,0
1,62,80,0
1,62,0,108
1,55,0,0
1,58,0,0
1,62,80,852
1,55,80,0
1,58,80,0
1,58,0,108
1,55,0,0
1,62,0,0
1,58,80,372
1,55,80,0
1,62,80,0
1,62,0,108
1,55,0,0
1,58,0,0
1,58,80,372
1,55,80,0
1,62,80,0
1,62,0,108
1,55,0,0
1,58,0,0
1,62,80,372
1,55,80,0
1,58,80,0
1,58,0,108
1,55,0,0
1,62,0,0
1,62,80,372
1,55,80,0
1,58,80,0
1,58,0,108
1,55,0,0
1,62,0,0
1,62,80,372
1,55,80,0
1,58,80,0
1,58,0,108
1,55,0,0
1,62,0,0
1,62,80,372
1,55,80,0
1,58,80,0
1,58,0,108
1,55,0,0
1,62,0,0
1,62,80,372
1,55,80,0
1,58,80,0
1,58,0,108
1,55,0,0
1,62,0,0
1,62,80,372
1,55,80,0
1,58,80,0
1,58,0,108
1,55,0,0
1,62,0,0
1,58,80,372
1,55,80,0
1,62,80,0
1,62,0,108
1,55,0,0
1,58,0,0
1,58,80,372
1,55,80,0
1,62,80,0
1,62,0,108
1,55,0,0
1,58,0,0
1,58,80,372
1,55,80,0
1,62,80,0
1,62,0,108
1,55,0,0
1,58,0,0
1,62,80,372
1,55,80,0
1,58,80,0
1,58,0,108
1,55,0,0
1,62,0,0
1,62,80,372
1,55,80,0
1,58,80,0
1,58,0,108
1,55,0,0
1,62,0,0
1,62,80,372
1,55,80,0
1,58,80,0
1,58,0,108
1,55,0,0
1,62,0,0
1,58,80,372
1,55,80,0
1,62,80,0
1,62,0,108
1,55,0,0
1,58,0,0
1,62,80,852
1,55,80,0
1,58,80,0
1,58,0,108
1,55,0,0
1,62,0,0
1,58,80,372
1,55,80,0
1,62,80,0
1,62,0,108
1,55,0,0
1,58,0,0
1,58,80,372
1,55,80,0
1,62,80,0
1,62,0,108
1,55,0,0
1,58,0,0
1,58,80,372
1,55,80,0
1,62,80,0
1,62,0,108
1,55,0,0
1,58,0,0
1,62,80,372
1,55,80,0
1,58,80,0
1,58,0,108
1,55,0,0
1,62,0,0
1,62,80,372
1,55,80,0
1,58,80,0
1,58,0,108
1,55,0,0
1,62,0,0
1,58,80,372
1,55,80,0
1,62,80,0
1,62,0,108
1,55,0,0
1,58,0,0
1,58,80,852
1,55,80,0
1,62,80,0
1,62,0,108
1,55,0,0
1,58,0,0
1,62,80,372
1,55,80,0
1,58,80,0
1,58,0,108
1,55,0,0
1,62,0,0
1,62,80,372
1,55,80,0
1,58,80,0
1,58,0,108
1,55,0,0
1,62,0,0
1,62,80,372
1,55,80,0
1,58,80,0
1,58,0,108
1,55,0,0
1,62,0,0
1,58,80,372
1,55,80,0
1,62,80,0
1,62,0,108
1,55,0,0
1,58,0,0
1,58,80,372
1,55,80,0
1,62,80,0
1,62,0,108
1,55,0,0
1,58,0,0
1,62,80,372
1,55,80,0
1,58,80,0
1,58,0,108
1,55,0,0
1,62,0,0
1,58,80,372
1,55,80,0
1,62,80,0
1,62,0,108
1,55,0,0
1,58,0,0
1,58,80,372
1,55,80,0
1,62,80,0
1,62,0,108
1,55,0,0
1,58,0,0
1,62,80,372
1,55,80,0
1,58,80,0
1,58,0,108
1,55,0,0
1,62,0,0
1,58,80,372
1,55,80,0
1,62,80,0
1,62,0,108
1,55,0,0
1,58,0,0
1,58,80,372
1,55,80,0
1,62,80,0
1,62,0,108
1,55,0,0
1,58,0,0
1,62,80,372
1,55,80,0
1,58,80,0
1,58,0,108
1,55,0,0
1,62,0,0
1,58,80,372
1,55,80,0
1,62,80,0
1,62,0,108
1,55,0,0
1,58,0,0
1,62,80,372
1,55,80,0
1,58,80,0
1,58,0,108
1,55,0,0
1,62,0,0
1,62,80,372
1,55,80,0
1,58,80,0
1,58,0,108
1,55,0,0
1,62,0,0
1,58,80,372
1,55,80,0
1,62,80,0
1,62,0,108
1,55,0,0
1,58,0,0
1,62,80,372
1,55,80,0
1,58,80,0
1,58,0,108
1,55,0,0
1,62,0,0
1,62,80,372
1,55,80,0
1,58,80,0
1,58,0,108
1,55,0,0
1,62,0,0
1,58,80,372
1,55,80,0
1,62,80,0
1,62,0,108
1,55,0,0
1,58,0,0
1,62,80,372
1,55,80,0
1,58,80,0
1,58,0,108
1,55,0,0
1,62,0,0
1,62,80,372
1,55,80,0
1,58,80,0
1,58,0,108
1,55,0,0
1,62,0,0
1,58,80,372
1,55,80,0
1,62,80,0
1,62,0,108
1,55,0,0
1,58,0,0
1,62,80,372
1,55,80,0
1,58,80,0
1,58,0,108
1,55,0,0
1,62,0,0
1,58,80,372
1,62,80,0
1,55,80,0
1,55,0,108
1,62,0,0
1,58,0,0
1,58,80,372
1,55,80,0
1,62,80,0
1,62,0,108
1,55,0,0
1,58,0,0
1,62,80,372
1,55,80,0
1,58,80,0
1,58,0,108
1,55,0,0
1,62,0,0
1,58,80,372
1,55,80,0
1,62,80,0
1,62,0,108
1,55,0,0
1,58,0,0
1,62,80,372
1,55,80,0
1,58,80,0
1,58,0,108
1,55,0,0
1,62,0,0
1,58,80,372
1,55,80,0
1,62,80,0
1,62,0,108
1,55,0,0
1,58,0,0
1,62,80,372
1,55,80,0
1,58,80,0
1,58,0,108
1,55,0,0
1,62,0,0
1,62,80,852
1,55,80,0
1,58,80,0
1,58,0,108
1,55,0,0
1,62,0,0
1,58,80,372
1,55,80,0
1,62,80,0
1,62,0,108
1,55,0,0
1,58,0,0
1,58,80,372
1,55,80,0
1,62,80,0
1,62,0,108
1,55,0,0
1,58,0,0
1,62,80,372
1,55,80,0
1,58,80,0
1,58,0,108
1,55,0,0
1,62,0,0
1,62,80,372
1,55,80,0
1,58,80,0
1,58,0,108
1,55,0,0
1,62,0,0
1,62,80,372
1,55,80,0
1,58,80,0
1,58,0,108
1,55,0,0
1,62,0,0
1,58,80,372
1,55,80,0
1,62,80,0
1,62,0,108
1,55,0,0
1,58,0,0
1,62,80,372
1,55,80,0
1,58,80,0
1,58,0,108
1,55,0,0
1,62,0,0
1,62,80,372
1,55,80,0
1,58,80,0
1,58,0,108
1,55,0,0
1,62,0,0
1,58,80,372
1,55,80,0
1,62,80,0
1,62,0,108
1,55,0,0
1,58,0,0
1,58,80,372
1,55,80,0
1,62,80,0
1,62,0,108
1,55,0,0
1,58,0,0
1,58,80,372
1,55,80,0
1,62,80,0
1,62,0,108
1,55,0,0
1,58,0,0
1,58,80,372
1,55,80,0
1,62,80,0
1,62,0,108
1,55,0,0
1,58,0,0
1,62,80,372
1,55,80,0
1,58,80,0
1,58,0,108
1,55,0,0
1,62,0,0
1,62,80,372
1,55,80,0
1,58,80,0
1,58,0,108
1,55,0,0
1,62,0,0
1,62,72,852
1,58,72,0
1,55,72,0
1,55,0,108
1,58,0,0
1,62,0,0
1,62,62,372
1,55,62,0
1,58,62,0
1,58,0,108
1,55,0,0
1,62,0,0
1,62,53,372
1,55,53,0
1,58,53,0
1,58,0,108
1,55,0,0
1,62,0,0
1,62,44,372
1,55,44,0
1,58,44,0
1,58,0,108
1,55,0,0
1,62,0,0
1,62,34,372
1,55,34,0
1,58,34,0
1,58,0,108
1,55,0,0
1,62,0,0
1,58,25,372
1,55,25,0
1,62,25,0
1,62,0,108
1,55,0,0
1,58,0,0
1,58,16,372
1,55,16,0
1,62,16,0
1,62,0,108
1,55,0,0
1,58,0,0
2,31,80,7680
2,31,0,48
2,34,80,72
2,34,0,48
2,36,80,72
2,36,0,48
2,38,80,72
2,38,0,48
2,36,80,12
2,36,0,48
2,31,80,12
2,31,0,48
2,34,80,72
2,34,0,48
2,36,80,72
2,36,0,48
2,38,80,72
2,38,0,48
2,31,80,72
2,31,0,48
2,34,80,72
2,34,0,48
2,36,80,72
2,36,0,48
2,38,80,72
2,38,0,48
2,36,80,12
2,36,0,48
2,31,80,12
2,31,0,48
2,34,80,72
2,34,0,48
2,36,80,72
2,36,0,48
2,38,80,72
2,38,0,48
2,31,80,72
2,31,0,48
2,34,80,72
2,34,0,48
2,36,80,72
2,36,0,48
2,38,80,72
2,38,0,48
2,36,80,12
2,36,0,48
2,31,80,12
2,31,0,48
2,34,80,72
2,34,0,48
2,36,80,72
2,36,0,48
2,38,80,72
2,38,0,48
2,31,80,72
2,31,0,48
2,34,80,72
2,34,0,48
2,36,80,72
2,36,0,48
2,38,80,72
2,38,0,48
2,36,80,12
2,36,0,48
2,31,80,12
2,31,0,48
2,34,80,72
2,34,0,48
2,36,80,72
2,36,0,48
2,38,80,72
2,38,0,48
2,31,80,72
2,31,0,48
2,31,80,12
2,31,0,48
2,34,80,12
2,34,0,48
2,34,80,12
2,34,0,48
2,36,80,12
2,36,0,48
2,36,80,12
2,36,0,48
2,38,80,12
2,38,0,48
2,38,80,12
2,38,0,48
2,31,80,12
2,31,0,48
2,31,80,12
2,31,0,48
2,34,80,12
2,34,0,48
2,34,80,12
2,34,0,48
2,36,80,12
2,36,0,48
2,36,80,12
2,36,0,48
2,38,80,12
2,38,0,48
2,31,80,72
2,31,0,48
2,31,80,12
2,31,0,48
2,34,80,12
2,34,0,48
2,34,80,12
2,34,0,48
2,36,80,12
2,36,0,48
2,36,80,12
2,36,0,48
2,38,80,12
2,38,0,48
2,38,80,12
2,38,0,48
2,31,80,12
2,31,0,48
2,31,80,12
2,31,0,48
2,34,80,12
2,34,0,48
2,34,80,12
2,34,0,48
2,36,80,12
2,36,0,48
2,36,80,12
2,36,0,48
2,38,80,12
2,38,0,48
2,31,80,72
2,31,0,48
2,31,80,12
2,31,0,48
2,34,80,12
2,34,0,48
2,34,80,12
2,34,0,48
2,36,80,12
2,36,0,48
2,36,80,12
2,36,0,48
2,38,80,12
2,38,0,48
2,38,80,12
2,38,0,48
2,31,80,12
2,31,0,48
2,31,80,12
2,31,0,48
2,34,80,12
2,34,0,48
2,34,80,12
2,34,0,48
2,36,80,12
2,36,0,48
2,36,80,12
2,36,0,48
2,38,80,12
2,38,0,48
2,31,80,72
2,31,0,48
2,31,80,12
2,31,0,48
2,34,80,12
2,34,0,48
2,34,80,12
2,34,0,48
2,36,80,12
2,36,0,48
2,36,80,12
2,36,0,48
2,38,80,12
2,38,0,48
2,38,80,12
2,38,0,48
2,31,80,12
2,31,0,48
2,31,80,12
2,31,0,48
2,34,80,12
2,34,0,48
2,34,80,12
2,34,0,48
2,36,80,12
2,36,0,48
2,36,80,12
2,36,0,48
2,38,80,12
2,38,0,48
2,31,80,72
2,31,0,48
2,34,80,72
2,34,0,48
2,36,80,72
2,36,0,48
2,38,80,72
2,38,0,48
2,36,80,12
2,36,0,48
2,31,80,12
2,31,0,48
2,34,80,72
2,34,0,48
2,36,80,72
2,36,0,48
2,38,80,72
2,38,0,48
2,31,80,72
2,31,0,48
2,34,80,72
2,34,0,48
2,36,80,72
2,36,0,48
2,38,80,72
2,38,0,48
2,36,80,12
2,36,0,48
2,31,80,12
2,31,0,48
2,34,80,72
2,34,0,48
2,36,80,72
2,36,0,48
2,38,80,72
2,38,0,48
2,31,80,72
2,31,0,48
2,34,80,72
2,34,0,48
2,36,80,72
2,36,0,48
2,38,80,72
2,38,0,48
2,36,80,12
2,36,0,48
2,31,80,12
2,31,0,48
2,34,80,72
2,34,0,48
2,36,80,72
2,36,0,48
2,38,80,72
2,38,0,48
2,31,80,72
2,31,0,48
2,34,80,72
2,34,0,48
2,36,80,72
2,36,0,48
2,38,80,72
2,38,0,48
2,36,80,12
2,36,0,48
2,31,80,12
2,31,0,48
2,34,80,72
2,34,0,48
2,36,80,72
2,36,0,48
2,38,80,72
2,38,0,48
2,31,80,72
2,31,0,48
2,31,80,12
2,31,0,48
2,34,80,12
2,34,0,48
2,34,80,12
2,34,0,48
2,36,80,12
2,36,0,48
2,36,80,12
2,36,0,48
2,38,80,12
2,38,0,48
2,38,80,12
2,38,0,48
2,31,80,12
2,31,0,48
2,31,80,12
2,31,0,48
2,34,80,12
2,34,0,48
2,34,80,12
2,34,0,48
2,36,80,12
2,36,0,48
2,36,80,12
2,36,0,48
2,38,80,12
2,38,0,48
2,31,80,72
2,31,0,48
2,31,80,12
2,31,0,48
2,34,80,12
2,34,0,48
2,34,80,12
2,34,0,48
2,36,80,12
2,36,0,48
2,36,80,12
2,36,0,48
2,38,80,12
2,38,0,48
2,38,80,12
2,38,0,48
2,31,80,12
2,31,0,48
2,31,80,12
2,31,0,48
2,34,80,12
2,34,0,48
2,34,80,12
2,34,0,48
2,36,80,12
2,36,0,48
2,36,80,12
2,36,0,48
2,38,80,12
2,38,0,48
2,31,80,72
2,31,0,48
2,31,80,12
2,31,0,48
2,34,80,12
2,34,0,48
2,34,80,12
2,34,0,48
2,36,80,12
2,36,0,48
2,36,80,12
2,36,0,48
2,38,80,12
2,38,0,48
2,38,80,12
2,38,0,48
2,31,80,12
2,31,0,48
2,31,80,12
2,31,0,48
2,34,80,12
2,34,0,48
2,34,80,12
2,34,0,48
2,36,80,12
2,36,0,48
2,36,80,12
2,36,0,48
2,38,80,12
2,38,0,48
2,31,80,72
2,31,0,48
2,31,80,12
2,31,0,48
2,34,80,12
2,34,0,48
2,34,80,12
2,34,0,48
2,36,80,12
2,36,0,48
2,36,80,12
2,36,0,48
2,38,80,12
2,38,0,48
2,38,80,12
2,38,0,48
2,31,80,12
2,31,0,48
2,31,80,12
2,31,0,48
2,34,80,12
2,34,0,48
2,34,80,12
2,34,0,48
2,36,80,12
2,36,0,48
2,36,80,12
2,36,0,48
2,38,80,12
2,38,0,48
2,31,80,72
2,31,0,48
2,34,80,72
2,34,0,48
2,36,80,72
2,36,0,48
2,38,80,72
2,38,0,48
2,36,80,12
2,36,0,48
2,31,80,12
2,31,0,48
2,34,80,72
2,34,0,48
2,36,80,72
2,36,0,48
2,38,80,72
2,38,0,48
2,31,80,72
2,31,0,48
2,34,80,72
2,34,0,48
2,36,80,72
2,36,0,48
2,38,80,72
2,38,0,48
2,36,80,12
2,36,0,48
2,31,80,12
2,31,0,48
2,34,80,72
2,34,0,48
2,36,80,72
2,36,0,48
2,38,80,72
2,38,0,48
2,31,80,72
2,31,0,48
2,34,80,72
2,34,0,48
2,36,80,72
2,36,0,48
2,38,80,72
2,38,0,48
2,36,80,12
2,36,0,48
2,31,80,12
2,31,0,48
2,34,80,72
2,34,0,48
2,36,80,72
2,36,0,48
2,38,80,72
2,38,0,48
2,31,80,72
2,31,0,48
2,34,80,72
2,34,0,48
2,36,80,72
2,36,0,48
2,38,80,72
2,38,0,48
2,36,80,12
2,36,0,48
2,31,80,12
2,31,0,48
2,34,80,72
2,34,0,48
2,36,80,72
2,36,0,48
2,38,80,72
2,38,0,48
2,31,80,72
2,31,0,48
2,31,80,12
2,31,0,48
2,34,80,12
2,34,0,48
2,34,80,12
2,34,0,48
2,36,80,12
2,36,0,48
2,36,80,12
2,36,0,48
2,38,80,12
2,38,0,48
2,38,80,12
2,38,0,48
2,31,80,12
2,31,0,48
2,31,80,12
2,31,0,48
2,34,80,12
2,34,0,48
2,34,80,12
2,34,0,48
2,36,80,12
2,36,0,48
2,36,80,12
2,36,0,48
2,38,80,12
2,38,0,48
2,31,80,72
2,31,0,48
2,31,80,12
2,31,0,48
2,34,80,12
2,34,0,48
2,34,80,12
2,34,0,48
2,36,80,12
2,36,0,48
2,36,80,12
2,36,0,48
2,38,80,12
2,38,0,48
2,38,80,12
2,38,0,48
2,31,80,12
2,31,0,48
2,31,80,12
2,31,0,48
2,34,80,12
2,34,0,48
