track,note,velocity,time
0,62,90,384
0,65,98,0
0,58,109,0
0,46,96,0
0,82,95,0
0,82,88,136
0,82,82,156
0,82,76,140
0,65,121,32
0,82,69,136
0,58,116,28
0,62,93,12
0,58,96,0
0,65,103,0
0,43,97,0
0,58,114,0
0,65,118,276
0,58,118,28
0,58,108,12
0,63,93,0
0,56,99,0
0,44,99,0
0,58,109,0
0,94,96,96
0,94,88,96
0,65,123,24
0,94,79,136
0,58,124,28
0,94,71,4
0,55,97,12
0,63,90,0
0,58,93,0
0,48,103,0
0,58,120,0
0,94,63,80
0,65,123,508
0,58,109,28
0,62,91,12
0,65,93,0
0,58,97,0
0,46,90,0
0,82,95,0
0,58,127,0
0,65,120,0
0,82,88,136
0,82,81,92
0,62,111,24
0,63,118,24
0,82,74,36
0,65,112,24
0,65,110,0
0,82,66,136
0,58,122,28
0,65,107,0
0,62,99,12
0,58,106,0
0,65,90,0
0,43,94,0
0,58,124,0
0,63,113,24
0,62,113,16
0,65,110,508
0,58,117,28
0,58,95,12
0,63,90,0
0,56,96,0
0,44,95,0
0,58,127,0
0,94,100,96
0,62,114,28
0,62,119,16
0,63,122,16
0,94,90,36
0,65,109,24
0,63,118,96
0,94,80,40
0,58,118,24
0,58,122,0
0,94,70,4
0,55,105,12
0,63,106,0
0,58,102,0
0,48,90,0
0,58,108,0
0,58,109,0
0,94,60,80
0,65,118,24
0,58,117,28
0,63,121,0
0,62,101,12
0,65,108,0
0,58,97,0
0,46,92,0
0,82,100,0
0,58,118,0
0,65,126,0
0,82,90,4
0,63,119,20
0,62,122,16
0,82,80,96
0,82,70,140
0,65,115,32
0,62,111,0
0,62,109,16
0,82,60,40
0,63,119,16
0,58,110,24
0,65,112,0
0,62,107,12
0,58,95,0
0,65,108,0
0,43,93,0
0,58,126,0
0,65,110,0
0,63,111,24
0,62,114,16
0,65,109,0
0,58,115,28
0,62,125,0
0,58,101,12
0,63,109,0
0,56,90,0
0,44,104,0
0,58,125,0
0,63,126,0
0,94,94,96
0,63,110,24
0,63,110,24
0,94,88,36
0,65,116,24
0,63,126,96
0,94,80,40
0,58,111,28
0,63,125,0
0,94,73,4
0,55,96,12
0,63,101,0
0,58,91,0
0,48,104,0
0,58,108,0
0,58,122,0
0,94,66,80
0,65,117,120
0,62,111,0
0,55,107,24
0,58,111,28
0,54,69,12
0,62,107,0
0,65,102,0
0,58,97,0
0,46,107,0
0,82,92,0
0,58,112,0
0,53,115,0
0,54,50,60
0,65,99,0
0,70,95,0
0,75,91,0
0,82,87,72
0,54,50,20
0,54,76,92
0,65,80,16
0,70,97,0
0,74,104,0
0,82,83,68
0,54,63,24
0,54,52,8
0,54,79,16
0,65,82,0
0,70,87,0
0,75,105,0
0,82,79,32
0,54,68,32
0,65,113,0
0,54,49,16
0,65,92,0
0,70,84,0
0,74,100,0
0,82,74,36
0,54,74,56
0,54,64,16
0,65,99,0
0,70,90,0
0,70,104,0
0,58,111,0
0,54,57,92
0,54,69,12
0,62,103,0
0,58,109,0
0,65,108,0
0,43,108,0
0,58,109,0
0,54,61,188
0,65,95,0
0,70,85,0
0,75,103,0
0,54,52,92
0,54,74,92
0,65,98,16
0,70,87,0
0,74,95,0
0,54,53,96
0,54,65,92
0,54,77,16
0,65,80,0
0,70,87,0
0,75,97,0
0,54,56,188
0,65,122,0
0,62,111,0
0,54,54,16
0,65,94,0
0,70,90,0
0,74,104,0
0,54,65,92
0,54,59,16
0,65,99,0
0,72,105,0
0,58,117,0
0,55,119,0
0,54,64,92
0,54,75,12
0,58,97,0
0,63,102,0
0,56,107,0
0,44,94,0
0,58,123,0
0,53,114,0
0,54,59,188
0,68,81,0
0,72,92,0
0,75,101,0
0,54,56,92
0,54,64,92
0,67,98,16
0,70,92,0
0,74,109,0
0,94,92,68
0,54,57,24
0,54,60,92
0,54,78,16
0,65,98,0
0,68,83,0
0,72,109,0
0,94,84,32
0,54,58,24
0,65,110,0
0,54,68,16
0,67,88,0
0,70,94,0
0,74,108,0
0,94,75,36
0,54,64,56
0,54,55,16
0,63,83,0
0,67,80,0
0,70,92,0
0,58,111,0
0,94,67,0
0,54,49,92
0,54,68,12
0,55,92,0
0,63,104,0
0,58,101,0
0,48,108,0
0,58,120,0
0,94,58,76
0,54,61,112
0,67,97,0
0,70,93,0
0,75,108,0
0,54,54,48
0,54,67,92
0,67,84,16
0,70,85,0
0,74,109,0
0,54,68,96
0,54,65,92
0,49,21,16
0,54,76,0
0,67,86,0
0,70,96,0
0,75,100,0
0,49,25,44
0,49,29,44
0,49,33,44
0,49,37,44
0,54,64,0
0,65,126,0
0,49,42,44
0,49,46,16
0,54,60,0
0,67,94,0
0,70,87,0
0,74,91,0
0,49,50,44
0,49,54,44
0,54,79,0
0,49,58,44
0,49,62,44
0,49,66,44
0,49,71,16
0,54,51,0
0,65,93,0
0,70,109,0
0,58,115,0
0,49,75,44
0,49,79,44
0,54,64,0
0,49,83,44
0,49,87,12
0,42,87,0
0,36,121,0
0,54,68,0
0,58,111,0
0,42,107,92
0,46,109,92
0,54,55,0
0,65,82,0
0,70,86,0
0,75,90,0
0,54,56,92
0,42,106,92
0,38,108,0
0,36,127,0
0,54,75,0
0,42,105,16
0,65,84,0
0,70,88,0
0,74,103,0
0,46,99,92
0,54,55,0
0,54,67,92
0,42,98,16
0,36,127,0
0,54,83,0
0,65,89,0
0,70,92,0
0,75,100,0
0,42,98,92
0,46,90,92
0,54,50,0
0,65,116,0
0,54,52,16
0,65,91,0
0,70,91,0
0,74,104,0
0,42,98,92
0,38,109,0
0,36,127,0
0,54,64,0
0,42,96,92
0,46,93,16
0,54,54,0
0,65,95,0
0,70,91,0
0,70,91,0
0,58,123,0
0,38,111,92
0,54,59,0
0,42,102,16
0,36,127,0
0,54,80,0
0,58,110,0
0,42,103,92
0,46,106,92
0,54,51,0
0,65,83,0
0,70,90,0
0,75,99,0
0,54,65,92
0,42,95,92
0,38,115,0
0,36,127,0
0,54,68,0
0,42,93,16
0,65,90,0
0,70,83,0
0,74,101,0
0,46,103,92
0,54,55,0
0,54,52,92
0,42,109,16
0,36,127,0
0,54,83,0
0,65,82,0
0,70,82,0
0,75,94,0
0,42,109,92
0,46,93,92
0,54,63,0
0,65,126,0
0,54,52,16
0,65,94,0
0,70,92,0
0,74,108,0
0,42,98,92
0,38,115,0
0,36,127,0
0,54,80,0
0,42,95,92
0,46,97,16
0,36,127,0
0,54,58,0
0,65,90,0
0,72,102,0
0,58,125,0
0,54,52,92
0,42,98,16
0,36,126,0
0,54,83,0
0,58,120,0
0,42,104,92
0,46,94,92
0,54,55,0
0,68,82,0
0,72,94,0
0,75,105,0
0,54,63,92
0,42,97,92
0,38,107,0
0,36,127,0
0,54,82,0
0,42,108,16
0,67,87,0
0,70,85,0
0,74,90,0
0,46,109,92
0,54,51,0
0,54,57,92
0,42,95,16
0,36,125,0
0,54,64,0
0,65,98,0
0,68,96,0
0,72,98,0
0,42,109,92
0,46,98,92
0,54,56,0
0,65,108,0
0,54,57,16
0,67,83,0
0,70,95,0
0,74,98,0
0,42,93,92
0,38,111,0
0,36,125,0
0,54,77,0
0,42,99,92
0,46,95,16
0,54,67,0
0,63,81,0
0,67,95,0
0,70,102,0
0,58,127,0
0,38,115,92
0,54,49,0
0,42,93,16
0,36,127,0
0,54,66,0
0,58,125,0
0,42,109,92
0,46,94,92
0,54,66,0
0,67,90,0
0,70,92,0
0,75,95,0
0,54,55,92
0,42,103,92
0,38,113,0
0,36,127,0
0,54,82,0
0,42,101,16
0,67,97,0
0,70,86,0
0,74,107,0
0,46,94,92
0,54,65,0
0,54,63,92
0,42,97,16
0,36,127,0
0,54,70,0
0,67,91,0
0,70,86,0
0,75,102,0
0,42,104,92
0,29,118,0
0,46,98,8
0,54,56,0
0,31,125,0
0,65,125,0
0,54,53,8
0,32,119,0
0,67,83,0
0,70,96,0
0,74,108,0
0,42,94,8
0,38,115,0
0,36,127,0
0,54,65,0
0,34,115,0
0,42,99,8
0,31,114,0
0,46,103,8
0,36,127,0
0,54,60,0
0,29,122,0
0,65,80,0
0,70,98,0
0,58,109,0
0,54,59,8
0,31,119,0
0,49,104,8
0,42,109,0
0,36,127,0
0,54,72,0
0,29,110,0
0,58,127,0
0,42,103,8
0,31,118,0
0,46,106,8
0,54,63,0
0,34,108,0
0,65,99,0
0,70,89,0
0,75,94,0
0,54,65,92
0,42,92,92
0,38,118,0
0,36,127,0
0,54,77,0
0,42,91,16
0,65,87,0
0,70,81,0
0,74,90,0
0,46,95,92
0,54,53,0
0,34,125,0
0,54,57,8
0,34,121,0
0,42,102,8
0,36,127,0
0,54,79,0
0,34,117,0
0,65,92,0
0,70,93,0
0,75,97,0
0,42,107,8
0,34,124,0
0,46,98,8
0,54,59,0
0,34,108,0
0,65,116,0
0,54,50,16
0,65,80,0
0,70,80,0
0,74,104,0
0,42,106,16
0,38,115,0
0,36,127,0
0,54,65,0
0,34,113,0
0,42,97,8
0,34,112,0
0,46,107,8
0,54,67,0
0,34,118,0
0,65,97,0
0,70,84,0
0,70,102,0
0,58,124,0
0,38,112,92
0,54,68,0
0,42,100,16
0,36,127,0
0,54,74,0
0,29,114,0
0,58,109,0
0,42,109,8
0,31,120,0
0,46,109,8
0,54,54,0
0,32,114,0
0,65,96,0
0,70,89,0
0,75,90,0
0,54,53,92
0,42,105,92
0,38,110,0
0,36,127,0
0,54,79,0
0,42,90,16
0,65,98,0
0,70,93,0
0,74,100,0
0,46,108,16
0,54,67,0
0,32,124,0
0,54,49,8
0,32,125,0
0,42,95,8
0,36,127,0
0,54,66,0
0,32,124,0
0,65,81,0
0,70,96,0
0,75,99,0
0,42,92,8
0,32,119,0
0,46,95,8
0,54,62,0
0,32,124,0
0,65,127,0
0,54,55,16
0,65,88,0
0,70,84,0
0,74,91,0
0,42,93,16
0,38,113,0
0,36,127,0
0,54,75,0
0,32,123,0
0,42,91,8
0,32,118,0
0,46,104,8
0,36,127,0
0,54,67,0
0,32,114,0
0,65,98,0
0,72,97,0
0,58,118,0
0,54,66,92
0,42,93,16
0,36,127,0
0,54,77,0
0,29,117,0
0,58,118,0
0,42,108,8
0,31,120,0
0,46,90,8
0,54,67,0
0,32,125,0
0,68,89,0
0,72,92,0
0,75,92,0
0,54,56,92
0,42,101,92
0,38,108,0
0,36,127,0
0,54,76,0
0,42,109,16
0,67,95,0
0,70,90,0
0,74,91,0
0,46,105,16
0,54,54,0
0,32,117,0
0,54,50,8
0,32,111,0
0,42,91,8
0,36,127,0
0,54,69,0
0,32,114,0
0,65,83,0
0,68,99,0
0,72,105,0
0,42,108,8
0,32,117,0
0,46,101,8
0,54,66,0
0,32,118,0
0,65,109,0
0,54,55,16
0,67,82,0
0,70,87,0
0,74,98,0
0,42,102,16
0,38,113,0
0,36,127,0
0,54,82,0
0,32,124,0
0,42,91,8
0,32,125,0
0,46,101,8
0,54,65,0
0,32,122,0
0,63,95,0
0,67,85,0
0,70,92,0
0,58,122,0
0,38,111,92
0,54,64,0
0,42,103,16
0,36,127,0
0,54,83,0
0,27,109,0
0,58,111,0
0,42,106,92
0,46,103,92
0,54,51,0
0,67,91,0
0,70,88,0
0,75,98,0
0,54,58,92
0,42,100,92
0,38,116,0
0,36,127,0
0,54,77,0
0,42,91,16
0,67,80,0
0,70,95,0
0,74,94,0
0,46,109,16
0,54,56,0
0,27,126,0
0,54,58,8
0,27,123,0
0,42,101,8
0,36,127,0
0,54,65,0
0,27,115,0
0,67,92,0
0,70,81,0
0,75,97,0
0,42,106,8
0,27,112,0
0,46,92,8
0,54,66,0
0,27,126,0
0,65,109,0
0,54,56,16
0,67,94,0
0,70,80,0
0,74,108,0
0,42,97,16
0,38,107,0
0,36,127,0
0,54,65,0
0,27,119,0
0,42,97,92
0,46,101,16
0,36,127,0
0,54,49,0
0,29,116,0
0,65,91,0
0,70,108,0
0,58,117,0
0,54,57,8
0,32,118,0
0,42,96,8
0,36,127,0
0,54,78,0
0,29,109,0
0,77,127,0
0,62,104,0
0,58,94,0
0,58,118,0
0,42,108,8
0,31,113,0
0,46,102,8
0,54,61,0
0,34,125,0
0,65,98,0
0,70,84,0
0,75,104,0
0,54,65,92
0,42,102,92
0,38,118,0
0,36,127,0
0,54,74,0
0,42,98,16
0,65,85,0
0,70,84,0
0,74,109,0
0,46,99,16
0,54,58,0
0,34,110,0
0,74,125,0
0,54,63,8
0,34,111,0
0,42,92,8
0,36,127,0
0,54,65,0
0,34,123,0
0,65,83,0
0,70,91,0
0,75,102,0
0,75,117,0
0,42,91,8
0,34,116,0
0,46,109,8
0,54,55,0
0,34,110,0
0,77,127,0
0,65,115,0
0,54,64,16
0,65,80,0
0,70,83,0
0,74,96,0
0,42,105,16
0,38,111,0
0,36,127,0
0,54,79,0
0,34,126,0
0,42,106,92
0,46,99,16
0,54,54,0
0,34,120,0
0,65,82,0
0,70,95,0
0,70,96,0
0,58,118,0
0,38,115,8
0,54,51,0
0,34,119,0
0,42,102,8
0,36,127,0
0,54,75,0
0,29,111,0
0,77,126,0
0,56,108,0
0,62,105,0
0,58,124,0
0,42,98,8
0,31,108,0
0,46,106,8
0,54,65,0
0,32,126,0
0,65,99,0
0,70,99,0
0,75,95,0
0,54,54,92
0,42,105,92
0,38,109,0
0,36,127,0
0,54,79,0
0,42,104,16
0,65,81,0
0,70,84,0
0,74,108,0
0,46,95,16
0,54,50,0
0,32,125,0
0,74,127,0
0,54,68,8
0,32,113,0
0,42,106,8
0,36,127,0
0,54,78,0
0,32,113,0
0,65,90,0
0,70,80,0
0,75,105,0
0,75,126,0
0,42,94,8
0,32,123,0
0,46,94,8
0,54,50,0
0,32,120,0
0,77,127,0
0,65,127,0
0,54,67,16
0,65,97,0
0,70,80,0
0,74,105,0
0,42,92,16
0,38,111,0
0,36,127,0
0,54,77,0
0,32,126,0
0,42,94,92
0,46,98,16
0,36,127,0
0,54,68,0
0,32,110,0
0,65,93,0
0,72,107,0
0,58,127,0
0,54,49,8
0,32,118,0
0,42,107,8
0,36,127,0
0,54,64,0
0,27,114,0
0,75,127,0
0,55,105,0
0,58,92,0
0,58,111,0
0,42,99,92
0,46,91,92
0,54,60,0
0,68,97,0
0,72,83,0
0,75,106,0
0,54,68,92
0,42,91,92
0,38,119,0
0,36,127,0
0,54,74,0
0,42,97,16
0,67,93,0
0,70,81,0
0,74,103,0
0,46,93,16
0,54,54,0
0,27,118,0
0,74,127,0
0,54,59,8
0,27,111,0
0,42,101,8
0,36,127,0
0,54,79,0
0,27,120,0
0,65,88,0
0,68,95,0
0,72,105,0
0,75,124,0
0,42,106,8
0,27,112,0
0,46,95,8
0,54,66,0
0,27,107,0
0,74,127,0
0,65,118,0
0,54,49,16
0,67,94,0
0,70,85,0
0,74,93,0
0,42,96,16
0,38,119,0
0,36,127,0
0,54,77,0
0,27,113,0
0,42,96,92
0,46,93,16
0,54,66,0
0,27,118,0
0,63,93,0
0,67,80,0
0,70,109,0
0,70,118,0
0,58,112,0
0,38,112,8
0,54,59,0
0,29,109,0
0,42,96,8
0,36,127,0
0,54,67,0
0,27,116,0
0,58,104,0
0,55,95,0
0,58,109,0
0,42,109,92
0,46,96,92
0,54,51,0
0,67,87,0
0,70,86,0
0,75,93,0
0,54,52,92
0,42,105,92
0,38,118,0
0,36,127,0
0,54,79,0
0,42,96,16
0,67,97,0
0,70,97,0
0,74,105,0
0,46,96,16
0,54,52,0
0,27,116,0
0,54,58,8
0,27,110,0
0,42,91,8
0,36,127,0
0,54,81,0
0,27,110,0
0,67,84,0
0,70,95,0
0,75,91,0
0,42,98,8
0,27,118,0
0,46,108,8
0,54,66,0
0,27,119,0
0,65,108,0
0,54,62,16
0,67,85,0
0,70,80,0
0,74,90,0
0,42,42,16
0,38,115,0
0,36,127,0
0,49,42,0
0,54,66,0
0,27,125,0
0,49,50,44
0,49,58,8
0,29,121,0
0,49,66,44
0,49,74,8
