track,note,velocity,time
1,66,127,0
1,30,127,0
1,54,127,0
1,61,127,0
1,66,127,0
1,30,127,0
1,54,127,0
1,61,127,0
1,30,127,0
1,61,127,0
1,56,127,0
1,68,127,0
1,37,127,0
1,61,127,0
1,56,127,0
1,68,127,0
1,37,127,0
1,68,127,0
1,63,127,0
1,44,127,240
1,56,127,0
1,32,127,0
1,44,127,0
1,44,127,0
1,44,127,0
1,66,127,0
1,30,127,0
1,54,127,0
1,61,127,0
1,66,127,0
1,30,127,0
1,54,127,0
1,61,127,0
1,30,127,0
1,61,127,0
1,56,127,0
1,68,127,0
1,37,127,0
1,61,127,0
1,56,127,0
1,68,127,0
1,37,127,0
1,68,127,0
1,63,127,0
1,44,127,240
1,56,127,0
1,32,127,0
1,44,127,0
1,44,127,0
1,44,127,0
1,66,127,0
1,30,127,0
1,54,127,0
1,61,127,0
1,66,127,0
1,30,127,0
1,54,127,0
1,61,127,0
1,30,127,0
1,61,127,0
1,56,127,0
1,68,127,0
1,37,127,0
1,61,127,0
1,56,127,0
1,68,127,0
1,37,127,0
1,68,127,0
1,63,127,0
1,44,127,240
1,56,127,0
1,32,127,0
1,44,127,0
1,44,127,0
1,44,127,0
1,66,127,0
1,30,127,0
1,54,127,0
1,61,127,0
1,66,127,0
1,30,127,0
1,54,127,0
1,61,127,0
1,30,127,0
1,61,127,0
1,56,127,0
1,68,127,0
1,37,127,0
1,61,127,0
1,56,127,0
1,68,127,0
1,37,127,0
1,68,127,0
1,63,127,0
1,44,127,240
1,56,127,0
1,32,127,0
1,44,127,0
1,44,127,0
1,44,127,0
1,66,127,0
1,30,127,0
1,54,127,0
1,61,127,0
1,66,127,0
1,30,127,0
1,54,127,0
1,61,127,0
1,30,127,0
1,61,127,0
1,56,127,0
1,68,127,0
1,37,127,0
1,61,127,0
1,56,127,0
1,68,127,0
1,37,127,0
1,68,127,0
1,63,127,0
1,44,127,240
1,56,127,0
1,32,127,0
1,44,127,0
1,44,127,0
1,44,127,0
1,66,127,0
1,30,127,0
1,54,127,0
1,61,127,0
1,66,127,0
1,30,127,0
1,54,127,0
1,61,127,0
1,30,127,0
1,61,127,0
1,56,127,0
1,68,127,0
1,37,127,0
1,61,127,0
1,56,127,0
1,68,127,0
1,37,127,0
1,68,127,0
1,63,127,0
1,44,127,240
1,56,127,0
1,32,127,0
1,44,127,0
1,44,127,0
1,44,127,0
1,66,127,0
1,30,127,0
1,54,127,0
1,61,127,0
1,66,127,0
1,30,127,0
1,54,127,0
1,61,127,0
1,30,127,0
1,61,127,0
1,56,127,0
1,68,127,0
1,37,127,0
1,61,127,0
1,56,127,0
1,68,127,0
1,37,127,0
1,68,127,0
1,63,127,0
1,44,127,240
1,56,127,0
1,32,127,0
1,44,127,0
1,44,127,0
1,44,127,0
1,66,127,0
1,30,127,0
1,54,127,0
1,61,127,0
1,66,127,0
1,30,127,0
1,54,127,0
1,61,127,0
1,30,127,0
1,61,127,0
1,56,127,0
1,68,127,0
1,37,127,0
1,61,127,0
1,56,127,0
1,68,127,0
1,37,127,0
1,68,127,0
1,63,127,0
1,44,127,240
1,56,127,0
1,32,127,0
1,44,127,0
1,44,127,0
1,44,127,0
1,66,127,0
1,30,127,0
1,54,127,0
1,61,127,0
1,66,127,0
1,30,127,0
1,54,127,0
1,61,127,0
1,30,127,0
1,61,127,0
1,56,127,0
1,68,127,0
1,37,127,0
1,61,127,0
1,56,127,0
1,68,127,0
1,37,127,0
1,68,127,0
1,63,127,0
1,44,127,240
1,56,127,0
1,32,127,0
1,44,127,0
1,44,127,0
1,44,127,0
1,66,127,0
1,30,127,0
1,54,127,0
1,61,127,0
1,66,127,0
1,30,127,0
1,54,127,0
1,61,127,0
1,30,127,0
1,61,127,0
1,56,127,0
1,68,127,0
1,37,127,0
1,61,127,0
1,56,127,0
1,68,127,0
1,37,127,0
1,68,127,0
1,63,127,0
1,44,127,240
1,56,127,0
1,32,127,0
1,44,127,0
1,44,127,0
1,44,127,0
1,66,127,0
1,30,127,0
1,54,127,0
1,61,127,0
1,66,127,0
1,30,127,0
1,54,127,0
1,61,127,0
1,30,127,0
1,61,127,0
1,56,127,0
1,68,127,0
1,37,127,0
1,61,127,0
1,56,127,0
1,68,127,0
1,37,127,0
1,68,127,0
1,63,127,0
1,44,127,240
1,56,127,0
1,32,127,0
1,44,127,0
1,44,127,0
1,44,127,0
1,66,127,0
1,30,127,0
1,54,127,0
1,61,127,0
1,66,127,0
1,30,127,0
1,54,127,0
1,61,127,0
1,30,127,0
1,61,127,0
1,56,127,0
1,68,127,0
1,37,127,0
1,61,127,0
1,56,127,0
1,68,127,0
1,37,127,0
1,68,127,0
1,63,127,0
1,44,127,240
1,56,127,0
1,32,127,0
1,44,127,0
1,44,127,0
1,44,127,0
1,56,127,0
1,44,127,0
1,92,40,0
1,92,40,0
1,92,40,0
1,92,40,0
1,92,40,0
1,92,40,0
1,92,40,0
1,92,40,0
1,44,127,0
1,56,127,0
1,92,40,0
1,92,40,0
1,92,40,0
1,92,40,0
1,92,40,0
1,92,40,0
1,92,40,0
1,92,40,0
1,44,127,0
1,56,127,0
1,92,40,0
1,92,40,0
1,92,40,0
1,92,40,0
1,92,40,0
1,92,40,0
1,92,40,0
1,92,40,0
1,44,127,0
1,56,127,0
1,92,40,0
1,92,40,0
1,92,40,0
1,92,40,0
1,92,40,0
1,92,40,0
1,92,40,0
1,92,40,0
1,51,127,0
1,92,40,0
1,44,127,0
1,56,127,0
1,92,40,0
1,51,127,0
1,92,40,0
1,92,40,0
1,51,127,0
1,92,40,0
1,92,40,0
1,51,127,0
1,92,40,0
1,92,40,0
1,51,127,0
1,92,40,0
1,44,127,0
1,56,127,0
1,92,40,0
1,51,127,0
1,92,40,0
1,92,40,0
1,51,127,0
1,92,40,0
1,92,40,0
1,51,127,0
1,92,40,0
1,92,40,0
1,51,127,0
1,92,40,0
1,44,127,0
1,56,127,0
1,92,40,0
1,51,127,0
1,92,40,0
1,92,40,0
1,51,127,0
1,92,40,0
1,92,40,0
1,51,127,0
1,92,40,0
1,92,40,0
1,51,127,0
1,92,40,0
1,44,127,0
1,56,127,0
1,92,40,0
1,51,127,0
1,92,40,0
1,92,40,0
1,51,127,0
1,92,40,0
1,92,40,0
1,51,127,0
1,92,40,0
1,92,40,0
1,66,127,0
1,30,127,0
1,54,127,0
1,61,127,0
1,30,127,0
1,54,127,0
1,61,127,0
1,66,127,0
1,30,127,0
1,61,127,0
1,56,127,0
1,68,127,0
1,37,127,0
1,61,127,0
1,56,127,0
1,68,127,0
1,37,127,0
1,68,127,0
1,63,127,0
1,44,127,240
1,56,127,0
1,32,127,0
1,44,127,0
1,44,127,0
1,44,127,0
1,66,127,0
1,30,127,0
1,54,127,0
1,61,127,0
1,66,127,0
1,30,127,0
1,54,127,0
1,61,127,0
1,30,127,0
1,61,127,0
1,56,127,0
1,68,127,0
1,37,127,0
1,61,127,0
1,56,127,0
1,68,127,0
1,37,127,0
1,68,127,0
1,63,127,0
1,44,127,240
1,56,127,0
1,32,127,0
1,44,127,0
1,44,127,0
1,44,127,0
1,66,127,0
1,30,127,0
1,54,127,0
1,61,127,0
1,66,127,0
1,30,127,0
1,54,127,0
1,61,127,0
1,30,127,0
1,61,127,0
1,56,127,0
1,68,127,0
1,37,127,0
1,61,127,0
1,56,127,0
1,68,127,0
1,37,127,0
1,68,127,0
1,63,127,0
1,44,127,240
1,56,127,0
1,32,127,0
1,44,127,0
1,44,127,0
1,44,127,0
1,54,127,0
1,30,127,0
1,61,127,0
1,66,127,0
1,66,127,0
1,61,127,0
1,54,127,0
1,30,127,0
1,66,127,0
1,61,127,0
1,54,127,0
1,30,127,0
1,66,127,0
1,61,127,0
1,54,127,0
1,61,127,0
1,56,127,0
1,68,127,0
1,37,127,0
1,56,127,0
1,68,127,0
1,61,127,0
1,37,127,0
1,61,127,0
1,68,127,0
1,56,127,0
1,68,127,0
1,63,127,0
1,44,127,240
1,56,127,0
1,32,127,0
1,44,127,0
1,44,127,0
1,44,127,0
1,66,127,0
1,30,127,0
1,54,127,0
1,61,127,0
1,30,127,0
1,54,127,0
1,61,127,0
1,66,127,0
1,30,127,0
1,61,127,0
1,56,127,0
1,68,127,0
1,37,127,0
1,61,127,0
1,56,127,0
1,68,127,0
1,37,127,0
1,68,127,0
1,63,127,0
1,44,127,240
1,56,127,0
1,32,127,0
1,44,127,0
1,44,127,0
1,44,127,0
1,66,127,0
1,30,127,0
1,54,127,0
1,61,127,0
1,66,127,0
1,30,127,0
1,54,127,0
1,61,127,0
1,30,127,0
1,61,127,0
1,56,127,0
1,68,127,0
1,37,127,0
1,61,127,0
1,56,127,0
1,68,127,0
1,37,127,0
1,68,127,0
1,63,127,0
1,44,127,240
1,56,127,0
1,32,127,0
1,44,127,0
1,44,127,0
1,44,127,0
1,66,127,0
1,30,127,0
1,54,127,0
1,61,127,0
1,66,127,0
1,30,127,0
1,54,127,0
1,61,127,0
1,30,127,0
1,61,127,0
1,56,127,0
1,68,127,0
1,37,127,0
1,61,127,0
1,56,127,0
1,68,127,0
1,37,127,0
1,68,127,0
1,63,127,0
1,44,127,240
1,56,127,0
1,32,127,0
1,44,127,0
1,44,127,0
1,44,127,0
1,54,127,0
1,30,127,0
1,61,127,0
1,66,127,0
1,66,127,0
1,61,127,0
1,54,127,0
1,30,127,0
1,66,127,0
1,61,127,0
1,54,127,0
1,30,127,0
1,66,127,0
1,61,127,0
1,54,127,0
1,61,127,0
1,56,127,0
1,68,127,0
1,37,127,0
1,56,127,0
1,68,127,0
1,61,127,0
1,37,127,0
1,61,127,0
1,68,127,0
1,56,127,0
1,68,127,0
1,63,127,0
1,44,127,240
1,56,127,0
1,32,127,0
1,44,127,0
1,44,127,0
1,44,127,0
1,66,127,0
1,30,127,0
1,54,127,0
1,61,127,0
1,30,127,0
1,54,127,0
1,61,127,0
1,66,127,0
1,30,127,0
1,61,127,0
1,56,127,0
1,68,127,0
1,37,127,0
1,61,127,0
1,56,127,0
1,68,127,0
1,37,127,0
1,68,127,0
1,63,127,0
1,44,127,240
1,56,127,0
1,32,127,0
1,44,127,0
1,44,127,0
1,44,127,0
1,66,127,0
1,30,127,0
1,54,127,0
1,61,127,0
1,66,127,0
1,30,127,0
1,54,127,0
1,61,127,0
1,30,127,0
1,61,127,0
1,56,127,0
1,68,127,0
1,37,127,0
1,61,127,0
1,56,127,0
1,68,127,0
1,37,127,0
1,68,127,0
1,63,127,0
1,44,127,240
1,56,127,0
1,32,127,0
1,44,127,0
1,44,127,0
1,44,127,0
1,66,127,0
1,30,127,0
1,54,127,0
1,61,127,0
1,66,127,0
1,30,127,0
1,54,127,0
1,61,127,0
1,30,127,0
1,61,127,0
1,56,127,0
1,68,127,0
1,37,127,0
1,61,127,0
1,56,127,0
1,68,127,0
1,37,127,0
1,68,127,0
1,63,127,0
1,44,127,240
1,56,127,0
1,32,127,0
1,44,127,0
1,44,127,0
1,44,127,0
1,54,127,0
1,30,127,0
1,61,127,0
1,66,127,0
1,66,127,0
1,61,127,0
1,54,127,0
1,30,127,0
1,66,127,0
1,61,127,0
1,54,127,0
1,30,127,0
1,66,127,0
1,61,127,0
1,54,127,0
1,61,127,0
1,56,127,0
1,68,127,0
1,37,127,0
1,56,127,0
1,68,127,0
1,61,127,0
1,37,127,0
1,61,127,0
1,68,127,0
1,56,127,0
1,68,127,0
1,63,127,0
1,44,127,240
1,56,127,0
1,32,127,0
1,44,127,0
1,44,127,0
1,44,127,0
1,66,127,15360
1,30,127,0
1,54,127,0
1,61,127,0
1,30,127,0
1,54,127,0
1,61,127,0
1,66,127,0
1,30,127,0
1,61,127,0
1,56,127,0
1,68,127,0
1,37,127,0
1,61,127,0
1,56,127,0
1,68,127,0
1,37,127,0
1,68,127,0
1,63,127,0
1,44,127,240
1,56,127,0
1,32,127,0
1,44,127,0
1,44,127,0
1,44,127,0
1,66,127,0
1,30,127,0
1,54,127,0
1,61,127,0
1,66,127,0
1,30,127,0
1,54,127,0
1,61,127,0
1,30,127,0
1,61,127,0
1,56,127,0
1,68,127,0
1,37,127,0
1,61,127,0
1,56,127,0
1,68,127,0
1,37,127,0
1,68,127,0
1,63,127,0
1,44,127,240
1,56,127,0
1,32,127,0
1,44,127,0
1,44,127,0
1,44,127,0
1,66,127,0
1,30,127,0
1,54,127,0
1,61,127,0
1,66,127,0
1,30,127,0
1,54,127,0
1,61,127,0
1,30,127,0
1,61,127,0
1,56,127,0
1,68,127,0
1,37,127,0
1,61,127,0
1,56,127,0
1,68,127,0
1,37,127,0
1,68,127,0
1,63,127,0
1,44,127,240
1,56,127,0
1,32,127,0
1,44,127,0
1,44,127,0
1,44,127,0
1,54,127,0
1,30,127,0
1,61,127,0
1,66,127,0
1,66,127,0
1,61,127,0
1,54,127,0
1,30,127,0
1,66,127,0
1,61,127,0
1,54,127,0
1,30,127,0
1,66,127,0
1,61,127,0
1,54,127,0
1,61,127,0
1,56,127,0
1,68,127,0
1,37,127,0
1,56,127,0
1,68,127,0
1,61,127,0
1,37,127,0
1,61,127,0
1,68,127,0
1,56,127,0
1,68,127,0
1,63,127,0
1,44,127,240
1,56,127,0
1,32,127,0
1,44,127,0
1,44,127,0
1,44,127,0
1,44,16,0
1,56,16,0
1,56,16,0
1,44,16,0
1,56,32,0
1,44,32,0
1,56,32,0
1,44,32,0
1,56,48,0
1,44,48,0
1,56,48,0
1,44,48,0
1,56,64,0
1,44,64,0
1,56,64,0
1,44,64,0
1,56,16,0
1,44,16,0
1,56,16,0
1,44,16,0
1,56,32,0
1,44,32,0
1,56,32,0
1,44,32,0
1,56,48,0
1,44,48,0
1,56,48,0
1,44,48,0
1,56,64,0
1,44,64,0
1,56,64,0
1,44,64,0
1,56,16,0
1,44,16,0
1,56,16,0
1,44,16,0
1,56,32,0
1,44,32,0
1,56,32,0
1,44,32,0
1,56,48,0
1,44,48,0
1,56,48,0
1,44,48,0
1,56,64,0
1,44,64,0
1,56,64,0
1,44,64,0
1,44,80,0
1,56,80,0
1,56,80,0
1,44,80,0
1,56,96,0
1,44,96,0
1,56,96,0
1,44,96,0
1,56,112,0
1,44,112,0
1,56,112,0
1,44,112,0
1,56,127,0
1,44,127,0
1,56,127,0
1,44,127,0
1,66,127,0
1,30,127,0
1,54,127,0
1,61,127,0
1,66,127,0
1,30,127,0
1,54,127,0
1,61,127,0
1,30,127,0
1,61,127,0
1,56,127,0
1,68,127,0
1,37,127,0
1,61,127,0
1,56,127,0
1,68,127,0
1,37,127,0
1,68,127,0
1,63,127,0
1,44,127,240
1,56,127,0
1,32,127,0
1,44,127,0
1,44,127,0
1,44,127,0
1,66,127,0
1,30,127,0
1,54,127,0
1,61,127,0
1,66,127,0
1,30,127,0
1,54,127,0
1,61,127,0
1,30,127,0
1,61,127,0
1,56,127,0
1,68,127,0
1,37,127,0
1,61,127,0
1,56,127,0
1,68,127,0
1,37,127,0
1,68,127,0
1,63,127,0
1,44,127,240
1,56,127,0
1,32,127,0
1,44,127,0
1,44,127,0
1,44,127,0
1,66,127,0
1,30,127,0
1,54,127,0
1,61,127,0
1,66,127,0
1,30,127,0
1,54,127,0
1,61,127,0
1,30,127,0
1,61,127,0
1,56,127,0
1,68,127,0
1,37,127,0
1,61,127,0
1,56,127,0
1,68,127,0
1,37,127,0
1,68,127,0
1,63,127,0
1,44,127,240
1,56,127,0
1,32,127,0
1,44,127,0
1,44,127,0
1,44,127,0
1,66,127,9600
1,30,127,0
1,54,127,0
1,61,127,0
1,30,127,0
1,54,127,0
1,61,127,0
1,66,127,0
1,30,127,0
1,61,127,0
1,56,127,0
1,68,127,0
1,37,127,0
1,61,127,0
1,56,127,0
1,68,127,0
1,37,127,0
1,68,127,0
1,63,127,0
1,44,127,240
1,56,127,0
1,32,127,0
1,44,127,0
1,44,127,0
1,44,127,0
1,66,127,0
1,30,127,0
1,54,127,0
1,61,127,0
