track,note,velocity,time
0.0,34.0,74.0,0.0
0.0,46.0,74.0,0.0
0.0,48.0,74.0,0.0
0.0,44.0,74.0,0.0
0.0,43.0,74.0,192.0
0.0,46.0,62.0,0.0
0.0,34.0,74.0,0.0
0.0,46.0,74.0,0.0
0.0,48.0,70.0,38.0
0.0,49.0,61.0,42.0
0.0,48.0,67.0,44.0
0.0,51.0,61.0,0.0
0.0,48.0,74.0,0.0
0.0,49.0,55.0,48.0
0.0,48.0,71.0,38.0
0.0,46.0,56.0,0.0
0.0,44.0,63.0,0.0
0.0,44.0,74.0,0.0
0.0,46.0,67.0,46.0
0.0,48.0,74.0,36.0
0.0,46.0,64.0,46.0
0.0,49.0,75.0,46.0
0.0,43.0,74.0,0.0
0.0,48.0,71.0,32.0
0.0,46.0,56.0,0.0
0.0,44.0,76.0,48.0
0.0,46.0,61.0,0.0
0.0,34.0,120.0,0.0
0.0,46.0,120.0,0.0
0.0,48.0,73.0,38.0
0.0,49.0,63.0,42.0
0.0,48.0,71.0,42.0
0.0,51.0,59.0,0.0
0.0,48.0,120.0,0.0
0.0,49.0,60.0,48.0
0.0,48.0,77.0,44.0
0.0,46.0,64.0,42.0
0.0,44.0,61.0,0.0
0.0,44.0,120.0,0.0
0.0,46.0,58.0,43.0
0.0,48.0,64.0,36.0
0.0,46.0,57.0,40.0
0.0,49.0,75.0,40.0
0.0,43.0,120.0,0.0
0.0,48.0,74.0,32.0
0.0,46.0,71.0,38.0
0.0,44.0,84.0,42.0
0.0,46.0,62.0,44.0
0.0,70.0,80.0,0.0
0.0,46.0,120.0,0.0
0.0,48.0,70.0,36.0
0.0,72.0,80.0,0.0
0.0,49.0,61.0,0.0
0.0,73.0,80.0,0.0
0.0,48.0,67.0,44.0
0.0,72.0,80.0,0.0
0.0,51.0,61.0,0.0
0.0,75.0,80.0,0.0
0.0,48.0,120.0,0.0
0.0,49.0,55.0,42.0
0.0,73.0,80.0,0.0
0.0,48.0,71.0,38.0
0.0,72.0,80.0,0.0
0.0,46.0,56.0,0.0
0.0,70.0,80.0,0.0
0.0,44.0,63.0,0.0
0.0,68.0,80.0,0.0
0.0,44.0,120.0,0.0
0.0,46.0,67.0,46.0
0.0,70.0,80.0,0.0
0.0,48.0,74.0,36.0
0.0,72.0,80.0,0.0
0.0,46.0,64.0,44.0
0.0,70.0,80.0,0.0
0.0,49.0,75.0,43.0
0.0,73.0,80.0,0.0
0.0,43.0,120.0,0.0
0.0,48.0,71.0,38.0
0.0,72.0,80.0,0.0
0.0,46.0,56.0,0.0
0.0,70.0,80.0,0.0
0.0,44.0,76.0,44.0
0.0,68.0,80.0,0.0
0.0,46.0,61.0,0.0
0.0,70.0,120.0,0.0
0.0,34.0,120.0,0.0
0.0,46.0,120.0,0.0
0.0,48.0,73.0,44.0
0.0,72.0,120.0,0.0
0.0,49.0,63.0,0.0
0.0,73.0,120.0,0.0
0.0,48.0,71.0,42.0
0.0,72.0,120.0,0.0
0.0,51.0,59.0,0.0
0.0,75.0,120.0,0.0
0.0,48.0,120.0,0.0
0.0,49.0,60.0,42.0
0.0,73.0,120.0,0.0
0.0,48.0,77.0,43.0
0.0,72.0,120.0,0.0
0.0,46.0,64.0,0.0
0.0,70.0,120.0,0.0
0.0,44.0,61.0,0.0
0.0,68.0,120.0,0.0
0.0,44.0,120.0,0.0
0.0,46.0,58.0,43.0
0.0,70.0,120.0,0.0
0.0,48.0,64.0,36.0
0.0,72.0,120.0,0.0
0.0,46.0,57.0,40.0
0.0,70.0,120.0,0.0
0.0,49.0,75.0,34.0
0.0,73.0,120.0,0.0
0.0,43.0,120.0,0.0
0.0,48.0,74.0,32.0
0.0,72.0,120.0,0.0
0.0,46.0,71.0,0.0
0.0,70.0,120.0,0.0
0.0,44.0,84.0,0.0
0.0,68.0,120.0,0.0
0.0,46.0,62.0,4.0
0.0,70.0,120.0,0.0
0.0,46.0,120.0,0.0
0.0,82.0,80.0,0.0
0.0,48.0,70.0,36.0
0.0,72.0,120.0,0.0
0.0,84.0,80.0,0.0
0.0,49.0,61.0,0.0
0.0,73.0,120.0,0.0
0.0,85.0,80.0,0.0
0.0,48.0,67.0,44.0
0.0,72.0,120.0,0.0
0.0,84.0,80.0,0.0
0.0,51.0,61.0,0.0
0.0,75.0,120.0,0.0
0.0,48.0,120.0,0.0
0.0,87.0,80.0,0.0
0.0,49.0,55.0,42.0
0.0,73.0,120.0,0.0
0.0,85.0,80.0,0.0
0.0,48.0,71.0,38.0
0.0,72.0,120.0,0.0
0.0,84.0,80.0,0.0
0.0,46.0,56.0,0.0
0.0,70.0,120.0,0.0
0.0,82.0,80.0,0.0
0.0,44.0,63.0,0.0
0.0,68.0,120.0,0.0
0.0,44.0,120.0,0.0
0.0,80.0,80.0,0.0
0.0,46.0,67.0,46.0
0.0,70.0,120.0,0.0
0.0,82.0,80.0,0.0
0.0,48.0,74.0,36.0
0.0,72.0,120.0,0.0
0.0,84.0,80.0,0.0
0.0,46.0,64.0,42.0
0.0,70.0,120.0,0.0
0.0,82.0,80.0,0.0
0.0,49.0,75.0,34.0
0.0,73.0,120.0,0.0
0.0,43.0,120.0,0.0
0.0,85.0,80.0,0.0
0.0,48.0,71.0,38.0
0.0,72.0,120.0,0.0
0.0,84.0,80.0,0.0
0.0,46.0,56.0,0.0
0.0,70.0,120.0,0.0
0.0,82.0,80.0,0.0
0.0,44.0,76.0,0.0
0.0,68.0,120.0,0.0
0.0,80.0,80.0,0.0
0.0,46.0,61.0,0.0
0.0,70.0,120.0,0.0
0.0,34.0,120.0,0.0
0.0,46.0,120.0,0.0
0.0,82.0,120.0,0.0
0.0,48.0,73.0,44.0
0.0,72.0,120.0,0.0
0.0,84.0,120.0,0.0
0.0,49.0,63.0,0.0
0.0,73.0,120.0,0.0
0.0,85.0,120.0,0.0
0.0,48.0,71.0,42.0
0.0,72.0,120.0,0.0
0.0,84.0,120.0,0.0
0.0,51.0,59.0,0.0
0.0,75.0,120.0,0.0
0.0,48.0,120.0,0.0
0.0,87.0,120.0,0.0
0.0,49.0,60.0,42.0
0.0,73.0,120.0,0.0
0.0,85.0,120.0,0.0
0.0,48.0,77.0,40.0
0.0,72.0,120.0,0.0
0.0,84.0,120.0,0.0
0.0,46.0,64.0,0.0
0.0,70.0,120.0,0.0
0.0,82.0,120.0,0.0
0.0,44.0,61.0,0.0
0.0,68.0,120.0,0.0
0.0,44.0,120.0,0.0
0.0,80.0,120.0,0.0
0.0,46.0,58.0,43.0
0.0,70.0,120.0,0.0
0.0,82.0,120.0,0.0
0.0,48.0,64.0,36.0
0.0,72.0,120.0,0.0
0.0,84.0,120.0,0.0
0.0,46.0,57.0,40.0
0.0,70.0,120.0,0.0
0.0,82.0,120.0,0.0
0.0,49.0,75.0,34.0
0.0,73.0,120.0,0.0
0.0,43.0,120.0,0.0
0.0,85.0,120.0,0.0
0.0,48.0,74.0,32.0
0.0,72.0,120.0,0.0
0.0,84.0,120.0,0.0
0.0,46.0,71.0,0.0
0.0,70.0,120.0,0.0
0.0,82.0,120.0,0.0
0.0,44.0,84.0,0.0
0.0,68.0,120.0,0.0
0.0,80.0,120.0,0.0
0.0,46.0,62.0,4.0
0.0,70.0,120.0,0.0
0.0,46.0,120.0,0.0
0.0,82.0,120.0,0.0
0.0,48.0,70.0,36.0
0.0,72.0,120.0,0.0
0.0,84.0,120.0,0.0
0.0,49.0,61.0,0.0
0.0,73.0,120.0,0.0
0.0,85.0,120.0,0.0
0.0,48.0,67.0,44.0
0.0,72.0,120.0,0.0
0.0,84.0,120.0,0.0
0.0,51.0,61.0,0.0
0.0,75.0,120.0,0.0
0.0,48.0,120.0,0.0
0.0,87.0,120.0,0.0
0.0,49.0,55.0,42.0
0.0,73.0,120.0,0.0
0.0,85.0,120.0,0.0
0.0,48.0,71.0,38.0
0.0,72.0,120.0,0.0
0.0,84.0,120.0,0.0
0.0,46.0,56.0,0.0
0.0,70.0,120.0,0.0
0.0,82.0,120.0,0.0
0.0,44.0,63.0,0.0
0.0,68.0,120.0,0.0
0.0,44.0,120.0,0.0
0.0,80.0,120.0,0.0
0.0,46.0,67.0,46.0
0.0,70.0,120.0,0.0
0.0,82.0,120.0,0.0
0.0,48.0,74.0,36.0
0.0,72.0,120.0,0.0
0.0,84.0,120.0,0.0
0.0,46.0,64.0,42.0
0.0,70.0,120.0,0.0
0.0,82.0,120.0,0.0
0.0,49.0,75.0,34.0
0.0,73.0,120.0,0.0
0.0,43.0,120.0,0.0
0.0,85.0,120.0,0.0
0.0,48.0,71.0,38.0
0.0,72.0,120.0,0.0
0.0,84.0,120.0,0.0
0.0,46.0,56.0,0.0
0.0,70.0,120.0,0.0
0.0,82.0,120.0,0.0
0.0,44.0,76.0,0.0
0.0,68.0,120.0,0.0
0.0,80.0,120.0,0.0
0.0,46.0,61.0,0.0
0.0,70.0,120.0,0.0
0.0,34.0,120.0,0.0
0.0,46.0,120.0,0.0
0.0,46.0,120.0,0.0
0.0,58.0,120.0,0.0
0.0,82.0,120.0,0.0
0.0,42.0,119.0,0.0
0.0,49.0,119.0,0.0
0.0,52.0,119.0,0.0
0.0,69.0,110.0,0.0
0.0,48.0,73.0,22.0
0.0,72.0,120.0,0.0
0.0,84.0,120.0,0.0
0.0,42.0,114.0,0.0
0.0,70.0,119.0,0.0
0.0,49.0,63.0,0.0
0.0,73.0,120.0,0.0
0.0,85.0,120.0,0.0
0.0,42.0,121.0,0.0
0.0,69.0,96.0,0.0
0.0,48.0,71.0,24.0
0.0,72.0,120.0,0.0
0.0,84.0,120.0,0.0
0.0,42.0,118.0,0.0
0.0,70.0,119.0,0.0
0.0,51.0,59.0,0.0
0.0,75.0,120.0,0.0
0.0,48.0,120.0,0.0
0.0,87.0,120.0,0.0
0.0,42.0,118.0,0.0
0.0,69.0,110.0,0.0
0.0,49.0,60.0,24.0
0.0,73.0,120.0,0.0
0.0,85.0,120.0,0.0
0.0,42.0,115.0,0.0
0.0,70.0,119.0,0.0
0.0,48.0,77.0,1.0
0.0,72.0,120.0,0.0
0.0,49.0,120.0,0.0
0.0,61.0,120.0,0.0
0.0,84.0,120.0,0.0
0.0,42.0,118.0,0.0
0.0,69.0,109.0,0.0
0.0,46.0,64.0,24.0
0.0,70.0,120.0,0.0
0.0,82.0,120.0,0.0
0.0,42.0,114.0,0.0
0.0,70.0,121.0,0.0
0.0,44.0,61.0,0.0
0.0,68.0,120.0,0.0
0.0,44.0,120.0,0.0
0.0,46.0,120.0,0.0
0.0,58.0,120.0,0.0
0.0,80.0,120.0,0.0
0.0,42.0,117.0,0.0
0.0,69.0,107.0,0.0
0.0,46.0,58.0,2.0
0.0,70.0,120.0,0.0
0.0,82.0,120.0,0.0
0.0,42.0,117.0,0.0
0.0,70.0,121.0,0.0
0.0,48.0,64.0,3.0
0.0,72.0,120.0,0.0
0.0,84.0,120.0,0.0
0.0,42.0,118.0,0.0
0.0,69.0,109.0,0.0
0.0,46.0,57.0,24.0
0.0,70.0,120.0,0.0
0.0,82.0,120.0,0.0
0.0,42.0,117.0,0.0
0.0,70.0,121.0,0.0
0.0,49.0,75.0,4.0
0.0,73.0,120.0,0.0
0.0,43.0,120.0,0.0
0.0,85.0,120.0,0.0
0.0,42.0,113.0,0.0
0.0,69.0,109.0,0.0
0.0,48.0,74.0,24.0
0.0,72.0,120.0,0.0
0.0,84.0,120.0,0.0
0.0,42.0,112.0,0.0
0.0,70.0,121.0,0.0
0.0,46.0,71.0,0.0
0.0,70.0,120.0,0.0
0.0,49.0,120.0,0.0
0.0,61.0,120.0,0.0
0.0,82.0,120.0,0.0
0.0,42.0,118.0,0.0
0.0,69.0,109.0,0.0
0.0,44.0,84.0,24.0
0.0,68.0,120.0,0.0
0.0,80.0,120.0,0.0
0.0,42.0,113.0,0.0
0.0,70.0,119.0,0.0
0.0,46.0,62.0,2.0
0.0,70.0,120.0,0.0
0.0,46.0,120.0,0.0
0.0,46.0,120.0,0.0
0.0,58.0,120.0,0.0
0.0,82.0,120.0,0.0
0.0,42.0,117.0,0.0
0.0,69.0,112.0,0.0
0.0,48.0,70.0,24.0
0.0,72.0,120.0,0.0
0.0,84.0,120.0,0.0
0.0,42.0,113.0,0.0
0.0,70.0,121.0,0.0
0.0,49.0,61.0,0.0
0.0,73.0,120.0,0.0
0.0,85.0,120.0,0.0
0.0,42.0,114.0,0.0
0.0,69.0,110.0,0.0
0.0,48.0,67.0,2.0
0.0,72.0,120.0,0.0
0.0,84.0,120.0,0.0
0.0,42.0,114.0,0.0
0.0,70.0,122.0,0.0
0.0,51.0,61.0,0.0
0.0,75.0,120.0,0.0
0.0,48.0,120.0,0.0
0.0,87.0,120.0,0.0
0.0,42.0,108.0,0.0
0.0,69.0,108.0,0.0
0.0,49.0,55.0,24.0
0.0,73.0,120.0,0.0
0.0,85.0,120.0,0.0
0.0,42.0,110.0,0.0
0.0,70.0,119.0,0.0
0.0,48.0,71.0,6.0
0.0,72.0,120.0,0.0
0.0,49.0,120.0,0.0
0.0,61.0,120.0,0.0
0.0,84.0,120.0,0.0
0.0,42.0,112.0,0.0
0.0,69.0,102.0,0.0
0.0,46.0,56.0,0.0
0.0,70.0,120.0,0.0
0.0,82.0,120.0,0.0
0.0,42.0,118.0,0.0
0.0,70.0,119.0,0.0
0.0,44.0,63.0,0.0
0.0,68.0,120.0,0.0
0.0,44.0,120.0,0.0
0.0,46.0,120.0,0.0
0.0,58.0,120.0,0.0
0.0,80.0,120.0,0.0
0.0,42.0,115.0,0.0
0.0,69.0,98.0,0.0
0.0,46.0,67.0,24.0
0.0,70.0,120.0,0.0
0.0,82.0,120.0,0.0
0.0,42.0,117.0,0.0
0.0,70.0,118.0,0.0
0.0,48.0,74.0,1.0
0.0,72.0,120.0,0.0
0.0,84.0,120.0,0.0
0.0,42.0,114.0,0.0
0.0,69.0,109.0,0.0
0.0,46.0,64.0,24.0
0.0,70.0,120.0,0.0
0.0,82.0,120.0,0.0
0.0,42.0,113.0,0.0
0.0,70.0,119.0,0.0
0.0,49.0,75.0,24.0
0.0,73.0,120.0,0.0
0.0,43.0,120.0,0.0
0.0,85.0,120.0,0.0
0.0,42.0,113.0,0.0
0.0,69.0,105.0,0.0
0.0,48.0,71.0,24.0
0.0,72.0,120.0,0.0
0.0,84.0,120.0,0.0
0.0,42.0,114.0,0.0
0.0,70.0,117.0,0.0
0.0,46.0,56.0,0.0
0.0,70.0,120.0,0.0
0.0,49.0,120.0,0.0
0.0,61.0,120.0,0.0
0.0,82.0,120.0,0.0
0.0,42.0,112.0,0.0
0.0,69.0,109.0,0.0
0.0,44.0,76.0,0.0
0.0,68.0,120.0,0.0
0.0,80.0,120.0,0.0
0.0,42.0,117.0,0.0
0.0,70.0,121.0,0.0
0.0,46.0,61.0,0.0
0.0,70.0,120.0,0.0
0.0,34.0,120.0,0.0
0.0,46.0,120.0,0.0
0.0,46.0,120.0,0.0
0.0,58.0,120.0,0.0
0.0,82.0,120.0,0.0
0.0,42.0,119.0,0.0
0.0,69.0,110.0,0.0
0.0,48.0,73.0,24.0
0.0,72.0,120.0,0.0
0.0,84.0,120.0,0.0
0.0,42.0,114.0,0.0
0.0,70.0,119.0,0.0
0.0,49.0,63.0,0.0
0.0,73.0,120.0,0.0
0.0,85.0,120.0,0.0
0.0,42.0,121.0,0.0
0.0,69.0,96.0,0.0
0.0,48.0,71.0,24.0
0.0,72.0,120.0,0.0
0.0,84.0,120.0,0.0
0.0,42.0,118.0,0.0
0.0,70.0,119.0,0.0
0.0,51.0,59.0,0.0
0.0,75.0,120.0,0.0
0.0,48.0,120.0,0.0
0.0,87.0,120.0,0.0
0.0,42.0,118.0,0.0
0.0,69.0,110.0,0.0
0.0,49.0,60.0,24.0
0.0,73.0,120.0,0.0
0.0,85.0,120.0,0.0
0.0,42.0,115.0,0.0
0.0,70.0,119.0,0.0
0.0,48.0,77.0,1.0
0.0,72.0,120.0,0.0
0.0,49.0,120.0,0.0
0.0,61.0,120.0,0.0
0.0,84.0,120.0,0.0
0.0,42.0,118.0,0.0
0.0,69.0,109.0,0.0
0.0,46.0,64.0,24.0
0.0,70.0,120.0,0.0
0.0,82.0,120.0,0.0
0.0,42.0,114.0,0.0
0.0,70.0,121.0,0.0
0.0,44.0,61.0,0.0
0.0,68.0,120.0,0.0
0.0,44.0,120.0,0.0
0.0,46.0,120.0,0.0
0.0,58.0,120.0,0.0
0.0,80.0,120.0,0.0
0.0,42.0,117.0,0.0
0.0,69.0,107.0,0.0
0.0,46.0,58.0,2.0
0.0,70.0,120.0,0.0
0.0,82.0,120.0,0.0
0.0,42.0,117.0,0.0
0.0,70.0,121.0,0.0
0.0,48.0,64.0,3.0
0.0,72.0,120.0,0.0
0.0,84.0,120.0,0.0
0.0,42.0,118.0,0.0
0.0,69.0,109.0,0.0
0.0,46.0,57.0,24.0
0.0,70.0,120.0,0.0
0.0,82.0,120.0,0.0
0.0,42.0,117.0,0.0
0.0,70.0,121.0,0.0
0.0,49.0,75.0,4.0
0.0,73.0,120.0,0.0
0.0,43.0,120.0,0.0
0.0,85.0,120.0,0.0
0.0,42.0,113.0,0.0
0.0,69.0,109.0,0.0
0.0,48.0,74.0,24.0
0.0,72.0,120.0,0.0
0.0,84.0,120.0,0.0
0.0,42.0,112.0,0.0
0.0,70.0,121.0,0.0
0.0,46.0,71.0,0.0
0.0,70.0,120.0,0.0
0.0,49.0,120.0,0.0
0.0,61.0,120.0,0.0
0.0,82.0,120.0,0.0
0.0,42.0,118.0,0.0
0.0,69.0,109.0,0.0
0.0,44.0,84.0,24.0
0.0,68.0,120.0,0.0
0.0,80.0,120.0,0.0
0.0,42.0,113.0,0.0
0.0,70.0,119.0,0.0
0.0,46.0,62.0,2.0
0.0,70.0,120.0,0.0
0.0,46.0,120.0,0.0
0.0,46.0,120.0,0.0
0.0,58.0,120.0,0.0
0.0,82.0,120.0,0.0
0.0,42.0,117.0,0.0
0.0,69.0,112.0,0.0
0.0,48.0,70.0,24.0
0.0,72.0,120.0,0.0
0.0,84.0,120.0,0.0
0.0,42.0,113.0,0.0
0.0,70.0,121.0,0.0
0.0,49.0,61.0,0.0
0.0,73.0,120.0,0.0
0.0,85.0,120.0,0.0
0.0,42.0,114.0,0.0
0.0,69.0,110.0,0.0
0.0,48.0,67.0,2.0
0.0,72.0,120.0,0.0
0.0,84.0,120.0,0.0
0.0,42.0,114.0,0.0
0.0,70.0,122.0,0.0
0.0,51.0,61.0,0.0
0.0,75.0,120.0,0.0
0.0,48.0,120.0,0.0
0.0,87.0,120.0,0.0
0.0,42.0,108.0,0.0
0.0,69.0,108.0,0.0
0.0,49.0,55.0,24.0
0.0,73.0,120.0,0.0
0.0,85.0,120.0,0.0
0.0,42.0,110.0,0.0
0.0,70.0,119.0,0.0
0.0,48.0,71.0,6.0
0.0,72.0,120.0,0.0
0.0,49.0,120.0,0.0
0.0,61.0,120.0,0.0
0.0,84.0,120.0,0.0
0.0,42.0,112.0,0.0
0.0,69.0,102.0,0.0
0.0,46.0,56.0,0.0
0.0,70.0,120.0,0.0
0.0,82.0,120.0,0.0
0.0,42.0,118.0,0.0
0.0,70.0,119.0,0.0
0.0,44.0,63.0,0.0
0.0,68.0,120.0,0.0
0.0,44.0,120.0,0.0
0.0,46.0,120.0,0.0
0.0,58.0,120.0,0.0
0.0,80.0,120.0,0.0
0.0,42.0,115.0,0.0
0.0,69.0,98.0,0.0
0.0,46.0,67.0,24.0
0.0,70.0,120.0,0.0
0.0,82.0,120.0,0.0
0.0,42.0,117.0,0.0
0.0,70.0,118.0,0.0
0.0,48.0,74.0,1.0
0.0,72.0,120.0,0.0
0.0,84.0,120.0,0.0
0.0,42.0,114.0,0.0
0.0,69.0,109.0,0.0
0.0,46.0,64.0,24.0
0.0,70.0,120.0,0.0
0.0,82.0,120.0,0.0
0.0,42.0,113.0,0.0
0.0,70.0,119.0,0.0
0.0,49.0,75.0,24.0
0.0,73.0,120.0,0.0
0.0,43.0,120.0,0.0
0.0,85.0,120.0,0.0
0.0,42.0,113.0,0.0
0.0,69.0,105.0,0.0
0.0,48.0,71.0,24.0
0.0,72.0,120.0,0.0
0.0,84.0,120.0,0.0
0.0,42.0,114.0,0.0
0.0,70.0,117.0,0.0
0.0,46.0,56.0,0.0
0.0,70.0,120.0,0.0
0.0,49.0,120.0,0.0
0.0,61.0,120.0,0.0
0.0,82.0,120.0,0.0
0.0,42.0,112.0,0.0
0.0,69.0,109.0,0.0
0.0,44.0,76.0,0.0
0.0,68.0,120.0,0.0
0.0,80.0,120.0,0.0
0.0,42.0,117.0,0.0
0.0,70.0,121.0,0.0
0.0,46.0,61.0,0.0
0.0,70.0,120.0,0.0
0.0,82.0,120.0,0.0
0.0,34.0,120.0,0.0
0.0,46.0,120.0,0.0
0.0,46.0,120.0,0.0
0.0,58.0,120.0,0.0
0.0,82.0,107.0,0.0
0.0,42.0,119.0,0.0
0.0,49.0,119.0,0.0
0.0,52.0,119.0,0.0
0.0,69.0,110.0,0.0
0.0,48.0,73.0,22.0
0.0,72.0,120.0,0.0
0.0,84.0,107.0,0.0
0.0,42.0,114.0,0.0
0.0,70.0,119.0,0.0
0.0,49.0,63.0,0.0
0.0,73.0,120.0,0.0
0.0,85.0,107.0,0.0
0.0,42.0,121.0,0.0
0.0,39.0,123.0,0.0
0.0,69.0,96.0,0.0
0.0,48.0,71.0,24.0
0.0,72.0,120.0,0.0
0.0,84.0,107.0,0.0
0.0,42.0,118.0,0.0
0.0,70.0,119.0,0.0
0.0,51.0,59.0,0.0
0.0,75.0,120.0,0.0
0.0,48.0,120.0,0.0
0.0,87.0,107.0,0.0
0.0,42.0,118.0,0.0
0.0,69.0,110.0,0.0
0.0,49.0,60.0,24.0
0.0,73.0,120.0,0.0
0.0,85.0,107.0,0.0
0.0,42.0,115.0,0.0
0.0,70.0,119.0,0.0
0.0,48.0,77.0,0.0
0.0,72.0,120.0,0.0
0.0,80.0,120.0,0.0
0.0,49.0,120.0,0.0
0.0,61.0,120.0,0.0
0.0,84.0,107.0,0.0
0.0,42.0,118.0,0.0
0.0,39.0,123.0,0.0
0.0,69.0,109.0,0.0
0.0,46.0,64.0,20.0
0.0,70.0,120.0,0.0
0.0,82.0,107.0,0.0
0.0,42.0,114.0,0.0
0.0,70.0,121.0,0.0
0.0,44.0,61.0,0.0
0.0,68.0,120.0,0.0
0.0,85.0,120.0,0.0
0.0,44.0,120.0,0.0
0.0,46.0,120.0,0.0
0.0,58.0,120.0,0.0
0.0,80.0,107.0,0.0
0.0,42.0,117.0,0.0
0.0,69.0,107.0,0.0
0.0,46.0,58.0,2.0
0.0,70.0,120.0,0.0
0.0,82.0,107.0,0.0
0.0,42.0,117.0,0.0
0.0,70.0,121.0,0.0
0.0,48.0,64.0,3.0
0.0,72.0,120.0,0.0
0.0,84.0,120.0,0.0
0.0,84.0,107.0,0.0
0.0,42.0,118.0,0.0
0.0,39.0,122.0,0.0
0.0,69.0,109.0,0.0
0.0,46.0,57.0,10.0
0.0,70.0,120.0,0.0
0.0,82.0,107.0,0.0
0.0,42.0,117.0,0.0
0.0,70.0,121.0,0.0
0.0,49.0,75.0,0.0
0.0,73.0,120.0,0.0
0.0,82.0,120.0,0.0
0.0,43.0,120.0,0.0
0.0,85.0,107.0,0.0
0.0,42.0,113.0,0.0
0.0,69.0,109.0,0.0
0.0,48.0,74.0,24.0
0.0,72.0,120.0,0.0
0.0,84.0,107.0,0.0
0.0,42.0,112.0,0.0
0.0,70.0,121.0,0.0
0.0,46.0,71.0,0.0
0.0,70.0,120.0,0.0
0.0,80.0,120.0,0.0
0.0,49.0,120.0,0.0
0.0,61.0,120.0,0.0
0.0,82.0,107.0,0.0
0.0,42.0,118.0,0.0
0.0,39.0,123.0,0.0
0.0,69.0,109.0,0.0
0.0,44.0,84.0,8.0
0.0,68.0,120.0,0.0
0.0,80.0,107.0,0.0
0.0,42.0,113.0,0.0
0.0,70.0,119.0,0.0
0.0,46.0,62.0,2.0
0.0,70.0,120.0,0.0
0.0,82.0,120.0,0.0
0.0,46.0,120.0,0.0
0.0,46.0,120.0,0.0
0.0,58.0,120.0,0.0
0.0,82.0,107.0,0.0
0.0,42.0,117.0,0.0
0.0,69.0,112.0,0.0
0.0,48.0,70.0,24.0
0.0,72.0,120.0,0.0
0.0,84.0,107.0,0.0
0.0,42.0,113.0,0.0
0.0,70.0,121.0,0.0
0.0,49.0,61.0,0.0
0.0,73.0,120.0,0.0
0.0,85.0,107.0,0.0
0.0,42.0,114.0,0.0
0.0,39.0,121.0,0.0
0.0,69.0,110.0,0.0
0.0,48.0,67.0,2.0
0.0,72.0,120.0,0.0
0.0,84.0,107.0,0.0
0.0,42.0,114.0,0.0
0.0,70.0,122.0,0.0
0.0,51.0,61.0,0.0
0.0,75.0,120.0,0.0
0.0,48.0,120.0,0.0
0.0,87.0,107.0,0.0
0.0,42.0,108.0,0.0
0.0,69.0,108.0,0.0
0.0,49.0,55.0,24.0
0.0,73.0,120.0,0.0
0.0,85.0,107.0,0.0
0.0,42.0,110.0,0.0
0.0,70.0,119.0,0.0
0.0,48.0,71.0,0.0
0.0,72.0,120.0,0.0
0.0,80.0,120.0,0.0
0.0,49.0,120.0,0.0
0.0,61.0,120.0,0.0
0.0,84.0,107.0,0.0
0.0,42.0,112.0,0.0
0.0,39.0,122.0,0.0
0.0,69.0,102.0,0.0
0.0,46.0,56.0,0.0
0.0,70.0,120.0,0.0
0.0,82.0,107.0,0.0
0.0,42.0,118.0,0.0
0.0,70.0,119.0,0.0
0.0,44.0,63.0,0.0
0.0,68.0,120.0,0.0
0.0,85.0,120.0,0.0
0.0,44.0,120.0,0.0
0.0,46.0,120.0,0.0
0.0,58.0,120.0,0.0
0.0,80.0,107.0,0.0
0.0,42.0,115.0,0.0
0.0,69.0,98.0,0.0
0.0,46.0,67.0,24.0
0.0,70.0,120.0,0.0
0.0,82.0,107.0,0.0
0.0,42.0,117.0,0.0
0.0,70.0,118.0,0.0
0.0,48.0,74.0,1.0
0.0,72.0,120.0,0.0
0.0,84.0,120.0,0.0
0.0,84.0,107.0,0.0
0.0,42.0,114.0,0.0
0.0,39.0,122.0,0.0
0.0,69.0,109.0,0.0
0.0,46.0,64.0,2.0
0.0,70.0,120.0,0.0
0.0,82.0,107.0,0.0
0.0,42.0,113.0,0.0
0.0,70.0,119.0,0.0
0.0,49.0,75.0,24.0
0.0,73.0,120.0,0.0
0.0,82.0,120.0,0.0
0.0,43.0,120.0,0.0
0.0,85.0,107.0,0.0
0.0,42.0,113.0,0.0
0.0,69.0,105.0,0.0
0.0,48.0,71.0,24.0
0.0,72.0,120.0,0.0
0.0,84.0,107.0,0.0
0.0,42.0,114.0,0.0
0.0,70.0,117.0,0.0
0.0,46.0,56.0,0.0
0.0,70.0,120.0,0.0
0.0,80.0,120.0,0.0
0.0,49.0,120.0,0.0
0.0,61.0,120.0,0.0
0.0,82.0,107.0,0.0
0.0,42.0,112.0,0.0
0.0,39.0,122.0,0.0
0.0,69.0,109.0,0.0
0.0,44.0,76.0,0.0
0.0,68.0,120.0,0.0
0.0,80.0,107.0,0.0
0.0,42.0,117.0,0.0
0.0,70.0,121.0,0.0
0.0,46.0,61.0,0.0
0.0,70.0,120.0,0.0
0.0,82.0,120.0,0.0
0.0,34.0,120.0,0.0
0.0,46.0,120.0,0.0
0.0,46.0,120.0,0.0
0.0,58.0,120.0,0.0
0.0,82.0,107.0,0.0
0.0,42.0,119.0,0.0
0.0,49.0,119.0,0.0
0.0,52.0,119.0,0.0
0.0,69.0,110.0,0.0
0.0,48.0,73.0,22.0
0.0,72.0,120.0,0.0
0.0,84.0,107.0,0.0
0.0,42.0,114.0,0.0
0.0,70.0,119.0,0.0
0.0,49.0,63.0,0.0
0.0,73.0,120.0,0.0
0.0,85.0,107.0,0.0
0.0,42.0,121.0,0.0
0.0,39.0,123.0,0.0
0.0,69.0,96.0,0.0
0.0,48.0,71.0,24.0
0.0,72.0,120.0,0.0
0.0,84.0,107.0,0.0
0.0,42.0,118.0,0.0
0.0,70.0,119.0,0.0
0.0,51.0,59.0,0.0
0.0,75.0,120.0,0.0
0.0,48.0,120.0,0.0
0.0,87.0,107.0,0.0
0.0,42.0,118.0,0.0
0.0,69.0,110.0,0.0
0.0,49.0,60.0,24.0
0.0,73.0,120.0,0.0
0.0,85.0,107.0,0.0
0.0,42.0,115.0,0.0
0.0,70.0,119.0,0.0
0.0,48.0,77.0,0.0
0.0,72.0,120.0,0.0
0.0,80.0,120.0,0.0
0.0,49.0,120.0,0.0
0.0,61.0,120.0,0.0
0.0,84.0,107.0,0.0
0.0,42.0,118.0,0.0
0.0,39.0,123.0,0.0
0.0,69.0,109.0,0.0
0.0,46.0,64.0,20.0
0.0,70.0,120.0,0.0
0.0,82.0,107.0,0.0
0.0,42.0,114.0,0.0
0.0,70.0,121.0,0.0
0.0,44.0,61.0,0.0
0.0,68.0,120.0,0.0
0.0,85.0,120.0,0.0
0.0,44.0,120.0,0.0
0.0,46.0,120.0,0.0
0.0,58.0,120.0,0.0
0.0,80.0,107.0,0.0
0.0,42.0,117.0,0.0
0.0,69.0,107.0,0.0
0.0,0.0,0.0,0.0
0.0,0.0,0.0,0.0
0.0,0.0,0.0,0.0
0.0,0.0,0.0,0.0
0.0,0.0,0.0,0.0
0.0,0.0,0.0,0.0
0.0,0.0,0.0,0.0
0.0,0.0,0.0,0.0
0.0,0.0,0.0,0.0
0.0,0.0,0.0,0.0
0.0,0.0,0.0,0.0
0.0,0.0,0.0,0.0
0.0,0.0,0.0,0.0
0.0,0.0,0.0,0.0
0.0,0.0,0.0,0.0
0.0,0.0,0.0,0.0
0.0,0.0,0.0,0.0
0.0,0.0,0.0,0.0
0.0,0.0,0.0,0.0
0.0,0.0,0.0,0.0
0.0,0.0,0.0,0.0
0.0,0.0,0.0,0.0
0.0,0.0,0.0,0.0
0.0,0.0,0.0,0.0
0.0,0.0,0.0,0.0
0.0,0.0,0.0,0.0
0.0,0.0,0.0,0.0
0.0,0.0,0.0,0.0
0.0,0.0,0.0,0.0
0.0,0.0,0.0,0.0
0.0,0.0,0.0,0.0
0.0,0.0,0.0,0.0
0.0,0.0,0.0,0.0
0.0,0.0,0.0,0.0
0.0,0.0,0.0,0.0
0.0,0.0,0.0,0.0
0.0,0.0,0.0,0.0
0.0,0.0,0.0,0.0
0.0,0.0,0.0,0.0
0.0,0.0,0.0,0.0
0.0,0.0,0.0,0.0
0.0,0.0,0.0,0.0
0.0,0.0,0.0,0.0
0.0,0.0,0.0,0.0
0.0,0.0,0.0,0.0
0.0,0.0,0.0,0.0
0.0,0.0,0.0,0.0
0.0,0.0,0.0,0.0
0.0,0.0,0.0,0.0
0.0,0.0,0.0,0.0
0.0,0.0,0.0,0.0
0.0,0.0,0.0,0.0
0.0,0.0,0.0,0.0
0.0,0.0,0.0,0.0
0.0,0.0,0.0,0.0
0.0,0.0,0.0,0.0
0.0,0.0,0.0,0.0
0.0,0.0,0.0,0.0
0.0,0.0,0.0,0.0
0.0,0.0,0.0,0.0
0.0,0.0,0.0,0.0
0.0,0.0,0.0,0.0
0.0,0.0,0.0,0.0
0.0,0.0,0.0,0.0
0.0,0.0,0.0,0.0
0.0,0.0,0.0,0.0
0.0,0.0,0.0,0.0
0.0,0.0,0.0,0.0
0.0,0.0,0.0,0.0
0.0,0.0,0.0,0.0
0.0,0.0,0.0,0.0
0.0,0.0,0.0,0.0
0.0,0.0,0.0,0.0
0.0,0.0,0.0,0.0
0.0,0.0,0.0,0.0
0.0,0.0,0.0,0.0
0.0,0.0,0.0,0.0
0.0,0.0,0.0,0.0
0.0,0.0,0.0,0.0
0.0,0.0,0.0,0.0
0.0,0.0,0.0,0.0
0.0,0.0,0.0,0.0
