track,note,velocity,time
1,84,78,1536
1,76,54,5
1,72,42,11
1,69,10,5
1,86,71,40
1,84,84,87
1,81,76,2
1,82,83,18
1,83,81,21
1,68,46,0
1,76,59,4
1,74,56,6
1,88,65,27
1,72,89,307
1,64,45,21
1,57,36,5
1,60,32,4
1,74,81,46
1,72,77,50
1,69,85,2
1,70,80,21
1,64,44,48
1,62,45,8
1,71,54,2
1,56,39,5
1,76,43,38
1,53,73,20
1,63,70,33
1,72,81,0
1,54,78,6
1,69,57,12
1,63,72,200
1,72,90,5
1,54,61,2
1,69,70,8
1,63,64,33
1,71,65,11
1,53,51,13
1,76,67,215
1,52,52,6
1,62,45,2
1,64,37,27
1,74,28,1
1,69,32,0
1,68,35,29
1,40,44,16
1,62,10,25
1,72,87,147
1,52,72,7
1,45,61,4
1,74,84,61
1,72,93,54
1,69,86,12
1,54,57,13
1,70,88,64
1,55,53,18
1,71,62,5
1,76,92,92
1,71,35,6
1,64,48,8
1,56,64,6
1,74,84,22
1,72,97,40
1,52,85,4
1,45,84,1
1,74,93,60
1,72,82,64
1,69,88,0
1,54,72,16
1,70,88,67
1,55,71,15
1,71,79,15
1,71,75,88
1,76,105,4
1,64,54,17
1,56,69,21
1,74,92,8
1,52,75,33
1,72,100,2
1,45,71,13
1,74,83,8
1,72,93,65
1,69,90,0
1,54,81,15
1,70,91,54
1,55,63,23
1,71,78,2
1,71,64,56
1,76,101,2
1,64,81,7
1,56,75,8
1,72,99,56
1,61,87,49
1,69,100,4
1,45,90,4
1,57,84,2
1,67,75,11
1,82,115,190
1,73,84,11
1,67,65,4
1,64,65,10
1,57,45,0
1,82,116,31
1,73,86,15
1,57,59,2
1,67,79,0
1,64,68,12
1,81,84,10
1,57,73,109
1,77,75,21
1,50,44,0
1,79,86,4
1,77,81,77
1,74,76,25
1,59,73,23
1,75,70,35
1,60,51,22
1,76,79,7
1,81,105,104
1,76,94,0
1,69,84,8
1,61,75,49
1,79,85,3
1,50,46,42
1,57,81,7
1,77,85,22
1,79,74,2
1,77,84,64
1,74,65,8
1,59,71,14
1,75,59,77
1,60,64,13
1,76,78,0
1,81,104,122
1,69,72,9
1,76,43,10
1,61,70,3
1,79,93,9
1,57,65,25
1,50,31,9
1,77,100,3
1,79,71,54
1,77,87,65
1,74,85,29
1,59,58,8
1,75,77,52
1,76,87,10
1,60,61,17
1,81,106,62
1,76,81,4
1,69,76,5
1,61,49,21
1,77,85,31
1,62,51,0
1,50,50,6
1,74,92,5
1,69,61,0
1,65,52,18
1,56,71,162
1,57,101,8
1,50,89,0
1,56,78,63
1,50,67,10
1,57,98,8
1,73,96,29
1,50,94,26
1,57,84,3
1,74,94,7
1,56,55,0
1,65,80,10
1,76,57,54
1,40,89,29
1,47,64,33
1,77,93,23
1,68,102,2
1,74,98,2
1,56,103,21
1,77,101,198
1,68,88,0
1,62,89,2
1,74,90,6
1,52,84,0
1,56,76,8
1,68,92,180
1,77,99,8
1,74,88,4
1,47,83,0
1,76,101,74
1,68,88,3
1,74,81,13
1,62,76,11
1,56,77,6
1,52,57,9
1,80,85,113
1,83,90,4
1,74,94,6
1,52,92,101
1,40,91,4
1,52,92,219
1,40,87,4
1,54,93,2
1,42,88,2
1,73,100,77
1,74,106,125
1,56,87,17
1,44,68,0
1,76,105,56
1,77,98,34
1,69,87,4
1,45,100,0
1,72,96,2
1,57,66,9
1,77,101,146
1,60,72,4
1,72,81,4
1,69,81,4
1,57,56,5
1,52,45,2
1,77,96,170
1,72,83,7
1,69,78,3
1,40,72,8
1,52,70,1
1,76,90,86
1,69,62,3
1,72,61,4
1,60,71,31
1,57,57,5
1,52,56,8
1,81,84,108
1,69,76,0
1,72,66,8
1,45,89,93
1,57,71,4
1,56,76,171
1,44,75,5
1,57,69,13
1,45,75,2
1,75,80,85
1,76,101,20
1,46,98,8
1,58,86,1
1,78,94,67
1,79,99,46
1,69,84,6
1,75,73,1
1,47,73,4
1,59,68,2
1,63,81,177
1,79,98,11
1,69,81,10
1,75,65,2
1,59,35,4
1,57,14,17
1,79,99,184
1,69,86,4
1,35,72,2
1,47,69,6
1,75,64,0
1,78,86,82
1,75,45,8
1,69,72,0
1,63,70,2
1,59,62,19
1,57,55,6
1,83,82,87
1,71,73,1
1,75,70,3
1,78,73,1
1,54,86,114
1,42,88,6
1,59,90,67
1,83,95,4
1,71,83,3
1,58,101,40
1,70,109,0
1,82,108,0
1,83,94,86
1,71,89,4
1,59,90,4
1,72,104,79
1,84,108,2
1,60,81,5
1,83,96,81
1,71,96,2
1,59,78,2
1,57,84,75
1,81,97,10
1,69,98,0
1,68,105,86
1,80,101,4
1,56,94,11
1,76,110,185
1,64,94,2
1,52,89,5
1,76,115,212
1,64,108,0
1,52,96,5
1,36,86,342
1,48,83,0
1,38,82,23
1,50,95,18
1,39,89,2
1,51,90,7
1,40,104,27
1,52,110,7
1,53,107,59
1,41,100,11
1,40,98,55
1,52,106,6
1,50,110,40
1,38,100,2
1,48,114,58
1,36,107,4
1,35,78,187
1,47,90,0
1,52,79,297
1,72,88,10
1,45,67,9
1,74,78,23
1,72,65,28
1,69,60,48
1,54,68,34
1,70,72,23
1,71,76,29
1,55,56,5
1,76,94,127
1,71,36,13
1,64,59,0
1,56,53,29
1,74,64,6
1,45,41,17
1,72,76,14
1,52,54,7
1,74,75,24
1,72,72,20
1,69,55,21
1,54,54,6
1,70,88,67
1,55,52,3
1,71,72,20
1,76,89,105
1,64,50,13
1,71,33,0
1,56,53,26
1,74,65,2
1,72,69,25
1,52,54,20
1,45,53,3
1,74,64,21
1,72,57,17
1,69,67,12
1,54,49,1
1,70,63,125
1,71,52,35
1,55,54,13
1,71,47,109
1,76,103,4
1,64,62,18
1,56,49,26
1,72,87,26
1,61,90,62
1,69,98,4
1,57,74,5
1,45,83,0
1,67,27,0
1,82,110,181
1,73,85,1
1,57,83,8
1,67,75,2
1,64,64,3
1,82,111,133
1,73,72,19
1,64,45,2
1,57,42,2
1,67,64,2
1,81,75,23
1,57,62,87
1,77,70,5
1,50,51,5
1,79,65,39
1,77,60,8
1,74,51,46
1,59,45,0
1,75,50,92
1,76,74,20
1,60,46,8
1,81,99,110
1,76,65,9
1,69,75,0
1,61,48,52
1,79,56,50
1,77,84,19
1,57,55,3
1,50,41,12
1,79,55,25
1,77,61,62
1,74,65,29
1,59,52,27
1,75,58,83
1,60,63,0
1,76,55,6
1,81,98,98
1,69,80,14
1,76,83,5
1,61,69,23
1,79,72,41
1,77,88,46
1,57,63,4
1,50,42,14
1,79,73,24
1,77,74,51
1,74,69,39
1,59,79,27
1,75,80,104
1,76,94,63
1,60,80,4
1,81,108,107
1,76,85,4
1,69,78,11
1,61,80,19
1,77,96,9
1,74,102,6
1,69,73,2
1,62,71,2
1,50,26,8
1,65,80,0
1,56,69,52
1,50,59,8
1,57,99,15
1,56,79,81
1,50,72,15
1,57,96,5
1,73,101,27
1,74,109,36
1,65,94,6
1,56,80,4
1,57,81,2
1,50,54,16
1,76,104,13
1,40,74,89
1,47,76,13
1,68,100,19
1,77,105,2
1,74,97,4
1,56,104,12
1,68,91,142
1,77,106,0
1,74,89,12
1,56,86,2
1,52,71,19
1,68,93,160
1,77,99,4
1,74,88,5
1,47,77,3
1,76,102,69
1,68,92,3
1,74,92,1
1,62,84,22
1,56,70,17
1,52,50,5
1,80,90,100
1,83,92,0
1,74,91,2
1,40,87,103
1,52,88,3
1,64,68,37
1,52,60,7
1,63,95,191
1,51,93,2
1,79,100,8
1,62,88,45
1,80,99,3
1,50,88,0
1,81,100,85
1,45,98,23
1,52,79,4
1,73,97,32
1,82,115,0
1,79,100,4
1,61,104,6
1,82,108,121
1,67,97,0
1,73,95,2
1,61,72,0
1,79,95,2
1,57,78,7
1,82,110,138
1,73,92,0
1,52,92,4
1,40,76,2
1,79,92,1
1,81,105,58
1,73,87,4
1,79,85,9
1,67,88,16
1,61,69,3
1,57,60,20
1,88,108,101
1,85,96,2
1,79,96,0
1,76,105,2
1,45,97,123
1,57,85,2
1,67,69,210
1,61,73,11
1,57,47,0
1,55,96,36
1,43,77,4
1,76,104,35
1,88,108,0
1,67,83,26
1,75,102,1
1,61,72,4
1,87,100,0
1,57,50,16
1,88,104,33
1,76,99,5
1,77,101,77
1,89,104,4
1,50,94,0
1,38,94,2
1,81,80,12
1,76,104,100
1,88,106,2
1,79,82,10
1,40,92,4
1,52,92,2
1,74,103,81
1,86,103,4
1,77,91,0
1,53,92,8
1,41,87,5
1,73,97,33
1,85,99,2
1,55,94,69
1,74,105,0
1,86,105,3
1,43,82,3
1,87,101,14
1,75,92,3
1,84,97,45
1,57,94,0
1,88,103,3
1,76,105,0
1,45,98,1
1,74,102,23
1,83,86,2
1,86,98,0
1,59,85,13
1,47,76,4
1,72,111,26
1,81,97,4
1,84,103,2
1,60,100,15
1,48,98,4
1,80,103,35
1,68,100,0
1,81,107,58
1,69,93,9
1,62,92,6
1,50,91,7
1,83,102,70
1,71,95,3
1,84,105,90
1,72,105,0
1,78,87,2
1,63,89,0
1,81,102,2
1,51,88,2
1,72,108,162
1,81,104,1
1,78,81,4
1,63,83,0
1,84,103,0
1,51,73,4
1,80,96,163
1,72,107,0
1,84,107,0
1,64,88,8
1,52,79,9
1,83,92,77
1,71,89,2
1,80,84,2
1,62,81,104
1,52,79,15
1,45,93,29
1,52,72,44
1,81,106,25
1,69,98,4
1,76,95,1
1,60,98,3
1,81,111,87
1,57,99,1
1,69,104,0
1,82,107,128
1,58,84,4
1,70,86,1
1,83,86,0
1,71,76,4
1,59,69,8
1,41,66,42
1,84,89,4
1,81,84,2
1,48,65,4
1,72,78,4
1,65,81,103
1,60,71,12
1,57,45,11
1,83,71,61
1,80,72,6
1,41,79,130
1,48,71,8
1,71,68,35
1,65,84,19
1,83,69,8
1,80,63,4
1,56,67,4
1,59,44,7
1,41,71,36
1,82,79,10
1,79,63,2
1,48,51,2
1,70,74,90
1,64,66,111
1,58,55,10
1,60,48,2
1,77,83,79
1,81,78,9
1,53,81,114
1,41,88,1
1,69,90,31
1,65,71,15
1,81,100,2
1,77,87,6
1,57,68,2
1,60,59,6
1,43,101,150
1,50,75,31
1,59,90,1
1,79,105,0
1,73,90,81
1,65,76,6
1,74,101,4
1,59,72,6
1,55,59,8
1,75,90,29
1,36,85,19
1,76,104,5
1,48,73,7
1,81,99,86
1,72,89,11
1,58,87,23
1,64,74,7
1,60,56,8
1,70,88,3
1,79,83,3
1,41,76,48
1,77,97,3
1,53,60,4
1,69,78,6
1,65,77,84
1,60,70,8
1,57,71,4
1,36,94,8
1,48,88,4
1,67,85,19
1,79,91,2
1,69,95,94
1,81,101,4
1,65,91,4
1,57,72,17
1,60,69,0
1,82,107,63
1,70,100,3
1,41,102,63
1,53,96,4
1,81,90,7
1,84,110,0
1,72,98,46
1,65,91,38
1,60,79,10
1,57,61,8
1,83,83,64
1,86,95,5
1,56,97,129
1,44,95,2
1,74,97,23
1,86,101,105
1,65,98,2
1,83,86,0
1,56,76,8
1,59,79,0
1,82,104,39
1,86,106,2
1,43,89,4
1,76,91,2
1,55,86,1
1,64,90,129
1,60,83,7
1,58,89,4
1,48,100,231
1,36,96,1
1,81,106,57
1,82,112,77
1,64,89,12
1,58,92,3
1,60,69,4
1,84,102,18
1,82,99,58
1,86,100,3
1,55,97,6
1,43,95,0
1,74,99,38
1,64,85,13
1,58,92,6
1,60,65,9
1,86,95,71
1,80,90,0
1,88,105,4
1,40,81,2
1,52,69,6
1,76,101,70
1,80,95,23
1,86,100,1
1,88,105,3
1,64,85,3
1,62,86,0
1,59,66,10
1,45,83,17
1,52,91,2
1,76,109,42
1,88,100,3
1,85,92,1
1,81,89,6
1,61,90,4
1,61,86,217
1,64,95,4
1,57,74,8
1,84,107,21
1,82,103,0
1,55,100,4
1,43,97,2
1,84,86,56
1,72,76,6
1,86,113,62
1,74,108,2
1,64,81,2
1,60,75,4
1,58,79,5
1,76,113,50
1,88,113,2
1,84,106,71
1,89,115,0
1,41,92,0
1,81,97,4
1,48,81,2
1,53,80,0
1,77,103,22
1,65,91,1
1,60,76,10
1,57,83,2
1,88,105,70
1,82,100,1
1,84,105,0
1,55,98,156
1,43,95,0
1,76,105,35
1,88,104,30
1,82,98,2
1,84,96,0
1,64,83,12
1,58,88,4
1,60,71,0
1,87,93,50
1,84,91,0
1,45,96,8
1,81,83,0
1,57,68,5
1,75,88,44
1,63,76,3
1,65,81,1
1,60,69,10
1,77,89,77
1,82,97,0
1,86,101,2
1,46,97,132
1,58,80,2
1,74,94,50
1,82,92,44
1,86,99,2
1,77,87,2
1,62,64,6
1,65,72,1
1,58,79,10
1,81,89,61
1,84,98,2
1,45,88,2
1,57,74,2
1,74,92,8
1,62,55,41
1,66,79,5
1,60,62,6
1,76,93,2
1,77,95,40
1,78,89,27
1,38,94,7
1,50,72,8
1,82,110,38
1,86,103,2
1,66,84,99
1,60,75,12
1,62,55,14
1,84,103,50
1,81,100,0
1,82,105,54
1,79,91,4
1,43,74,1
1,55,72,2
1,67,83,137
1,62,69,2
1,58,89,1
1,38,100,71
1,50,101,0
1,73,89,11
1,58,93,36
1,62,69,3
1,67,83,0
1,74,98,3
1,77,95,46
1,81,101,65
1,83,83,2
1,74,97,2
1,77,85,1
1,69,95,8
1,65,80,4
1,59,78,2
1,79,95,160
1,74,83,5
1,77,87,0
1,69,80,2
1,65,66,9
1,59,59,3
1,83,81,133
1,74,89,19
1,81,100,3
1,77,97,0
1,69,80,6
1,59,51,16
1,65,69,1
1,79,102,149
1,74,93,4
1,67,81,4
1,77,82,3
1,59,60,4
1,65,74,6
1,88,97,158
1,86,105,5
1,77,98,8
1,81,97,4
1,69,90,4
1,60,66,9
1,65,77,2
1,84,111,125
1,77,102,6
1,69,94,4
1,81,95,1
1,60,74,8
1,65,88,0
1,88,103,116
1,78,100,14
1,86,109,2
1,81,92,8
1,69,94,1
1,66,81,7
1,60,77,5
1,85,66,2
1,69,90,147
1,78,96,1
1,66,79,2
1,84,105,2
1,60,83,2
1,81,87,5
1,38,98,173
1,50,105,0
1,73,99,32
1,65,84,46
1,74,98,3
1,59,77,7
1,55,43,11
1,77,100,37
1,40,103,147
1,81,97,4
1,52,98,0
1,79,94,54
1,58,89,0
1,64,78,2
1,76,101,0
1,60,51,15
1,72,91,44
1,72,74,61
1,77,101,0
1,53,80,6
1,41,83,0
1,69,88,2
1,51,95,56
1,39,90,5
1,72,83,130
1,68,50,8
1,62,38,4
1,40,45,9
1,52,40,8
1,71,47,7
1,72,69,12
1,52,52,7
1,45,45,10
1,74,54,48
1,72,61,0
1,69,44,53
1,54,53,8
1,70,54,138
1,71,47,33
1,55,45,4
1,71,41,79
1,76,85,9
1,64,15,35
1,56,33,62
1,74,52,60
1,72,83,45
1,52,55,0
1,45,48,9
1,74,61,32
1,72,57,68
1,54,55,6
1,69,59,8
1,70,60,108
1,55,44,46
1,71,29,8
1,71,34,96
1,76,90,6
1,64,75,1
1,56,59,0
1,74,58,44
1,72,87,28
1,52,65,4
1,45,51,14
1,74,70,33
1,72,61,71
1,54,61,8
1,69,75,0
1,70,78,130
1,71,68,51
1,55,58,12
1,76,90,112
1,64,67,2
1,71,25,8
1,56,69,7
1,72,76,11
1,57,57,57
1,45,73,3
1,69,97,0
1,61,77,5
1,67,53,19
1,82,110,177
1,73,83,8
1,67,59,11
1,57,32,3
1,64,62,5
1,82,100,81
1,73,60,13
1,57,29,0
1,67,45,19
1,64,50,4
1,81,69,4
1,57,64,63
1,77,75,5
1,50,50,16
1,79,60,37
1,77,57,17
1,74,75,36
1,59,58,8
1,75,62,146
1,60,52,37
1,76,73,20
1,81,90,87
1,69,75,0
1,76,64,27
1,61,56,0
1,79,63,29
1,77,81,38
1,50,46,7
1,57,49,3
1,79,72,38
1,77,56,79
1,74,57,1
1,59,53,6
1,75,58,80
1,60,67,23
1,76,74,10
1,81,104,125
