track,note,velocity,time
1,71,64,0
1,72,74,0
1,62,64,0
1,64,64,96
1,71,64,0
1,72,64,0
1,62,64,0
1,64,64,96
1,71,64,0
1,72,64,0
1,62,64,0
1,64,64,96
1,74,64,96
1,72,64,0
1,60,64,0
1,62,64,48
1,64,64,48
1,71,64,0
1,72,64,0
1,62,64,0
1,64,64,96
1,71,64,0
1,72,64,0
1,62,64,0
1,64,64,96
1,74,64,0
1,76,64,0
1,76,64,0
1,76,64,0
1,76,64,32
1,76,64,32
1,81,64,16
1,79,64,0
1,77,64,0
1,75,64,192
1,74,64,0
1,67,64,0
1,72,64,0
1,65,64,0
1,63,64,0
1,61,64,0
1,60,64,0
1,55,64,0
1,53,60,0
1,51,54,0
1,49,50,0
1,61,94,192
1,55,94,0
1,59,94,192
1,65,94,0
1,71,54,0
1,72,64,0
1,62,54,0
1,64,54,96
1,71,54,0
1,72,54,0
1,62,54,0
1,64,54,96
1,71,54,0
1,72,54,0
1,62,54,0
1,64,54,96
1,74,54,96
1,72,54,0
1,60,54,0
1,62,54,48
1,64,54,48
1,71,54,0
1,72,54,0
1,62,54,0
1,64,54,96
1,71,54,0
1,72,54,0
1,62,54,0
1,64,54,96
1,74,54,0
1,76,54,0
1,76,54,0
1,76,54,0
1,76,54,32
1,76,54,32
1,81,54,96
1,79,54,0
1,77,54,0
1,72,54,384
1,72,54,0
1,72,54,0
1,72,54,0
1,74,54,0
1,72,54,0
1,63,54,0
1,63,54,0
1,63,54,0
1,63,54,0
1,65,54,0
1,63,54,0
1,60,54,0
1,65,54,0
1,60,54,0
1,60,54,0
1,60,54,0
1,62,54,0
1,60,54,0
1,51,54,0
1,51,54,0
1,51,54,0
1,51,54,0
1,53,54,0
1,51,54,0
1,65,74,0
1,61,74,0
1,65,64,0
1,65,64,0
1,65,64,0
1,67,74,0
1,65,64,384
1,69,64,0
1,62,64,0
1,57,64,384
1,60,64,0
1,55,64,0
1,53,64,384
1,50,64,0
1,57,64,0
1,43,74,384
1,48,74,0
1,45,74,0
1,59,14,480
1,65,14,0
1,59,14,192
1,65,14,0
1,59,14,192
1,65,14,0
1,59,14,192
1,65,14,0
1,59,14,192
1,65,14,0
1,59,14,192
1,65,14,0
1,59,14,192
1,65,14,0
1,59,14,192
1,65,14,0
1,68,34,192
1,61,34,0
1,63,34,0
1,57,34,0
1,62,34,288
1,69,34,0
1,64,34,0
1,58,34,0
1,70,34,288
1,63,34,0
1,65,34,0
1,59,34,0
1,57,34,288
1,68,34,0
1,63,34,0
1,61,34,0
1,57,34,0
1,68,34,0
1,63,34,0
1,61,34,0
1,69,34,192
1,62,34,0
1,64,34,0
1,58,34,0
1,63,34,288
1,70,34,0
1,59,34,0
1,65,34,0
1,68,34,288
1,57,34,0
1,63,34,0
1,61,34,0
1,68,34,0
1,57,34,0
1,63,34,0
1,61,34,0
1,69,34,192
1,62,34,0
1,58,34,0
1,64,34,0
1,59,34,288
1,70,34,0
1,63,34,0
1,65,34,0
1,65,20,288
1,59,20,0
1,65,20,288
1,59,20,0
1,59,20,288
1,65,20,0
1,59,20,288
1,65,20,0
1,65,20,288
1,59,20,0
1,59,20,288
1,65,20,0
1,65,20,288
1,59,20,0
1,65,20,288
1,59,20,0
1,59,20,288
1,65,20,0
1,59,20,288
1,65,20,0
1,65,20,288
1,59,20,0
1,65,20,288
1,59,20,0
1,65,20,288
1,59,20,0
1,59,20,288
1,65,20,0
1,59,20,288
1,65,20,0
1,66,20,96
1,74,20,0
1,66,20,96
1,60,20,0
1,66,38,288
1,60,38,0
1,60,38,240
1,66,38,0
1,60,38,240
1,66,38,0
1,60,38,240
1,66,38,0
1,66,38,240
1,60,38,0
1,66,38,240
1,60,38,0
1,60,38,240
1,66,38,0
1,69,24,240
1,62,24,0
1,64,24,0
1,58,24,0
1,70,24,288
1,63,24,0
1,59,24,0
1,65,24,0
1,66,24,288
1,71,24,0
1,64,24,0
1,60,24,0
1,69,24,288
1,58,24,0
1,62,24,0
1,64,24,0
1,69,24,0
1,62,24,0
1,58,24,0
1,64,24,0
1,63,24,192
1,59,24,0
1,65,24,0
1,70,24,0
1,66,24,288
1,71,24,0
1,64,24,0
1,60,24,0
1,69,24,288
1,58,24,0
1,62,24,0
1,64,24,0
1,69,24,0
1,62,24,0
1,64,24,0
1,58,24,0
1,63,24,192
1,70,24,0
1,59,24,0
1,65,24,0
1,60,24,96
1,66,24,0
1,71,24,0
1,66,24,96
1,60,24,0
1,60,40,288
1,66,40,0
1,66,40,288
1,60,40,0
1,66,40,288
1,60,40,0
1,60,40,288
1,66,40,0
1,66,40,288
1,60,40,0
1,60,40,288
1,66,40,0
1,66,40,288
1,60,40,0
1,60,40,288
1,66,40,0
1,66,40,288
1,60,40,0
1,66,40,288
1,60,40,0
1,66,40,288
1,60,40,0
1,66,40,288
1,60,40,0
1,60,40,288
1,66,40,0
1,60,40,288
1,66,40,0
1,66,40,288
1,60,40,0
1,66,40,288
1,70,40,0
1,63,40,0
1,60,40,0
1,54,40,288
1,63,40,0
1,58,40,0
1,66,40,288
1,59,40,0
1,63,40,0
1,54,40,288
1,63,40,0
1,60,40,0
1,58,40,0
1,64,40,288
1,71,40,0
1,61,40,0
1,67,40,0
1,61,40,288
1,59,40,0
1,64,40,0
1,55,40,0
1,60,40,288
1,67,40,0
1,64,40,0
1,61,40,288
1,59,40,0
1,64,40,0
1,55,40,0
1,72,74,96
1,72,66,0
1,74,67,0
1,75,69,0
1,76,71,0
1,76,74,0
1,77,75,0
1,78,77,0
1,79,79,0
1,79,82,0
1,80,83,0
1,81,85,0
1,82,87,0
1,82,89,0
1,84,90,0
1,85,92,0
1,76,94,0
1,86,94,0
1,84,93,0
1,79,92,0
1,80,91,48
1,81,89,48
1,71,89,0
1,79,88,0
1,72,87,0
1,73,86,48
1,64,84,48
1,74,84,0
1,72,83,0
1,67,82,0
1,68,81,48
1,59,79,48
1,69,79,0
1,67,78,0
1,60,77,0
1,61,76,48
1,58,60,48
1,50,60,0
1,64,60,0
1,74,44,1536
1,66,24,4
1,60,24,8
1,74,44,0
1,74,44,0
1,74,44,0
1,74,44,0
1,71,44,0
1,80,44,192
1,80,44,0
1,80,44,0
1,80,44,0
1,80,44,0
1,76,44,0
1,74,44,192
1,74,44,0
1,74,44,0
1,74,44,0
1,74,44,0
1,71,44,0
1,90,44,0
1,90,44,0
1,90,44,0
1,90,44,0
1,90,44,0
1,86,44,0
1,80,44,0
1,80,44,0
1,80,44,0
1,80,44,0
1,80,44,0
1,76,44,0
1,71,64,0
1,72,74,0
1,62,64,0
1,58,54,0
1,64,64,0
1,57,54,192
1,71,64,0
1,72,64,0
1,62,64,0
1,58,54,0
1,64,64,0
1,57,54,192
1,71,64,0
1,72,64,0
1,62,64,0
1,58,54,0
1,64,64,0
1,74,64,96
1,72,64,0
1,60,64,0
1,58,54,0
1,62,64,48
1,64,64,0
1,57,54,192
1,71,64,0
1,72,64,0
1,62,64,0
1,64,64,96
1,71,64,0
1,72,64,0
1,62,64,0
1,64,64,96
1,74,64,0
1,76,64,0
1,76,64,0
1,76,64,0
1,76,64,32
1,76,64,32
1,81,64,96
1,69,64,0
1,68,64,0
1,80,64,0
1,66,64,0
1,78,64,0
1,73,40,0
1,73,46,0
1,73,49,0
1,73,52,0
1,73,55,0
1,73,58,0
1,73,61,0
1,73,64,0
1,73,67,0
1,73,70,0
1,73,73,0
1,73,76,0
1,80,84,0
1,73,40,0
1,73,46,0
1,73,49,0
1,73,52,0
1,73,55,0
1,73,58,0
1,73,61,0
1,73,64,0
1,73,67,0
1,73,70,0
1,73,73,0
1,73,76,0
1,80,84,0
1,73,40,0
1,73,46,0
1,73,49,0
1,73,52,0
1,73,55,0
1,73,58,0
1,73,61,0
1,73,64,0
1,73,67,0
1,73,70,0
1,73,73,0
1,73,76,0
1,80,84,0
1,73,40,0
1,73,46,0
1,73,49,0
1,73,52,0
1,73,55,0
1,73,58,0
1,73,61,0
1,73,64,0
1,73,67,0
1,73,70,0
1,73,73,0
1,73,76,0
1,80,84,0
1,63,74,0
1,65,74,0
1,58,40,0
1,61,40,0
1,66,74,0
1,68,74,0
1,58,40,0
1,61,40,0
1,68,44,0
1,66,74,0
1,65,74,0
1,59,40,0
1,61,40,0
1,66,64,0
1,59,40,0
1,61,40,0
1,68,64,0
1,70,64,0
1,61,40,0
1,59,40,0
1,71,64,0
1,73,64,0
1,61,40,0
1,59,64,0
1,71,64,0
1,57,64,0
1,69,64,0
1,54,40,384
1,58,40,0
1,61,40,0
1,62,40,0
1,55,40,0
1,59,40,0
1,62,40,0
1,59,40,0
1,55,40,0
1,62,40,0
1,58,40,0
1,65,40,0
1,59,44,0
1,71,40,0
1,65,40,0
1,59,40,0
1,70,40,0
1,58,40,0
1,58,40,0
1,61,40,0
1,54,40,0
1,59,40,0
1,62,40,0
1,55,40,0
1,58,40,0
1,62,40,0
1,65,40,0
1,58,40,0
1,54,40,0
1,61,40,0
1,62,40,0
1,59,40,0
1,55,40,0
1,58,40,0
1,62,40,0
1,65,40,0
1,58,40,0
1,54,40,0
1,61,40,0
1,62,40,0
1,59,40,0
1,55,40,0
1,62,40,0
1,58,40,0
1,65,40,0
1,58,40,0
1,61,40,0
1,54,40,0
1,59,40,0
1,62,40,0
1,55,40,0
1,58,40,0
1,62,40,0
1,65,40,0
1,67,84,0
1,58,84,0
1,64,84,0
1,65,18,0
1,62,18,0
1,57,18,0
1,64,18,0
1,69,18,0
1,67,18,0
1,60,18,0
1,72,18,0
1,65,18,0
1,69,18,0
1,62,18,0
1,76,18,0
1,69,18,0
1,72,18,0
1,67,18,0
1,77,18,0
1,74,18,0
1,72,18,0
1,69,18,0
1,79,18,0
1,76,18,0
1,81,18,0
1,72,18,0
1,77,18,0
1,81,18,0
1,84,18,0
1,74,18,0
1,84,18,0
1,81,18,0
1,77,18,0
1,89,18,0
1,52,64,192
1,61,64,0
1,57,64,0
1,53,64,0
1,58,64,0
1,62,64,0
1,58,64,192
1,62,64,0
1,53,64,0
1,60,64,288
1,64,64,0
1,55,64,0
1,58,64,0
1,53,64,0
1,62,64,0
1,58,64,192
1,53,64,0
1,62,64,0
1,88,58,96
1,86,60,0
1,84,61,0
1,82,62,0
1,80,64,0
1,65,64,768
1,53,64,0
1,55,64,0
1,56,64,0
1,57,54,0
1,52,64,288
1,61,64,0
1,57,64,0
1,53,64,0
1,58,64,0
1,62,64,0
1,58,64,192
1,62,64,0
1,53,64,0
1,60,64,288
1,64,64,0
1,55,64,0
1,58,64,0
1,53,64,0
1,62,64,0
1,58,64,192
1,53,64,0
1,62,64,0
1,88,58,96
1,86,60,0
1,84,61,0
1,82,62,0
1,80,64,0
1,53,54,768
1,81,44,0
1,41,50,0
1,43,46,0
1,44,42,0
1,45,38,0
1,77,50,0
1,79,54,0
1,81,60,0
1,82,74,0
1,82,64,0
1,82,64,0
1,82,64,0
1,82,64,0
1,86,74,0
1,80,84,0
1,81,74,0
1,81,64,0
1,81,64,0
1,81,64,0
1,81,64,0
1,84,74,0
1,75,84,0
1,77,50,0
1,79,54,0
1,81,60,0
1,82,74,0
1,82,64,0
1,82,64,0
1,82,64,0
1,82,64,0
1,86,74,0
1,80,84,0
1,77,64,0
1,79,64,0
1,77,64,0
1,79,64,0
1,80,64,0
1,81,64,0
1,77,64,0
1,82,74,0
1,76,44,4
1,65,64,0
1,74,44,0
1,67,64,0
1,65,64,0
1,67,64,0
1,68,64,0
1,69,64,0
1,56,64,0
1,70,84,0
1,58,64,0
1,56,64,0
1,58,64,0
1,59,64,0
1,60,64,0
1,65,64,0
1,61,84,0
1,67,64,0
1,65,64,0
1,67,64,0
1,68,64,0
1,69,64,0
1,56,74,0
1,70,84,0
1,58,74,0
1,56,84,0
1,58,84,0
1,59,94,0
1,60,94,0
1,61,40,192
1,55,40,0
1,61,40,192
1,55,40,0
1,61,40,192
1,55,40,0
1,61,40,192
1,55,40,0
1,54,40,192
1,60,40,0
1,54,40,192
1,60,40,0
1,54,40,192
1,60,40,0
1,54,40,192
1,60,40,0
1,61,94,0
1,53,94,0
1,56,94,0
1,56,94,0
1,61,94,0
1,53,94,0
1,61,94,0
1,56,94,0
1,53,94,0
1,61,94,0
1,56,94,0
1,53,94,0
1,61,94,0
1,56,94,0
1,53,94,0
1,56,94,0
1,65,94,0
1,61,94,0
1,56,94,0
1,59,94,0
1,53,94,0
1,60,94,0
1,56,94,0
1,55,94,0
1,56,94,0
1,60,94,0
1,55,94,0
1,56,94,0
1,60,94,0
1,55,94,0
1,60,94,0
1,56,94,0
1,55,94,0
1,60,94,0
1,56,94,0
1,55,94,0
1,60,94,0
1,63,94,0
1,56,94,0
1,68,94,0
1,54,94,0
1,60,94,0
1,63,94,0
1,61,80,0
1,53,80,0
1,56,80,0
1,61,80,0
1,53,80,0
1,56,80,0
1,61,80,0
1,53,80,0
1,56,80,0
1,61,80,0
1,56,80,0
1,53,80,0
1,61,80,0
1,56,80,0
1,53,80,0
1,56,80,0
1,65,80,0
1,61,80,0
1,56,80,0
1,59,80,0
1,53,80,0
1,70,24,192
1,62,24,0
1,59,24,0
1,65,24,0
1,63,24,192
1,68,24,0
1,60,24,0
1,57,24,0
1,56,24,192
1,65,24,0
1,60,24,0
1,55,24,0
1,58,24,192
1,63,24,0
1,55,24,0
1,52,24,0
1,65,24,192
1,57,24,0
1,54,24,0
1,60,24,0
1,56,24,0
1,50,24,0
1,53,24,0
1,62,20,192
1,71,20,0
1,61,20,0
1,66,20,0
1,69,20,192
1,61,20,0
1,58,20,0
1,64,20,0
1,61,20,192
1,58,20,0
1,55,20,0
1,66,20,0
1,56,20,192
1,64,20,0
1,59,20,0
1,53,20,0
1,66,20,192
1,58,20,0
1,55,20,0
1,61,20,0
1,54,20,0
1,57,20,0
1,51,20,0
1,53,34,0
1,58,34,0
1,50,34,0
1,55,34,0
1,61,34,0
1,59,34,0
1,58,34,0
1,67,34,0
1,64,34,0
1,63,34,0
1,71,34,0
1,67,34,0
1,57,34,0
1,74,34,0
1,70,34,0
1,66,34,0
1,62,34,0
1,73,34,0
1,69,34,0
1,77,34,0
1,65,34,0
1,80,44,0
1,84,44,0
1,76,44,0
1,72,44,0
1,75,60,0
1,81,60,0
1,82,94,0
1,74,94,0
1,70,94,0
1,77,94,0
1,74,94,0
1,77,94,0
1,82,94,0
1,77,94,0
1,82,94,0
1,74,94,0
1,77,94,0
1,82,94,0
1,74,94,0
1,77,94,0
1,82,94,0
1,74,94,0
1,82,94,0
1,77,94,0
1,86,94,0
1,80,94,0
1,68,94,0
1,74,94,0
1,70,94,0
1,72,94,0
1,75,94,0
1,77,94,0
1,74,94,0
1,75,94,0
1,79,94,0
1,81,94,0
1,69,94,0
1,75,94,0
1,81,94,0
1,72,94,0
1,75,94,0
1,72,94,0
1,81,94,0
1,75,94,0
1,81,94,0
1,72,94,0
1,75,94,0
1,81,94,0
1,72,94,0
1,84,94,0
1,81,94,0
1,75,94,0
1,75,94,0
1,63,64,0
1,69,64,0
1,72,64,0
1,70,64,0
1,67,64,0
1,65,64,0
1,69,64,0
1,70,64,0
1,67,64,0
1,69,64,0
1,72,64,0
1,82,94,0
1,74,94,0
1,77,94,0
1,70,94,0
1,82,94,0
1,77,94,0
1,74,94,0
1,82,94,0
1,74,94,0
1,77,94,0
1,82,94,0
1,77,94,0
1,74,94,0
1,82,94,0
1,77,94,0
1,74,94,0
1,82,94,0
1,77,94,0
1,86,94,0
1,80,94,0
1,68,94,0
1,74,94,0
1,70,94,0
1,72,94,0
1,75,94,0
1,77,94,0
1,74,94,0
1,74,84,0
1,66,84,0
1,60,64,0
1,62,70,0
1,62,72,0
1,62,74,0
1,62,76,0
1,62,78,0
1,62,80,0
1,62,82,0
1,62,84,0
1,62,86,0
1,62,88,0
1,62,90,0
1,69,94,0
1,64,94,0
1,59,64,0
1,72,84,0
1,58,64,0
1,60,74,0
