track,note,velocity,time
1,38,82,2656
1,33,78,44
1,38,95,648
1,47,85,732
1,43,78,8
1,40,89,28
1,36,82,56
1,35,100,4
1,37,101,288
1,38,91,12
1,31,82,48
1,39,75,724
1,38,74,12
1,37,80,20
1,36,82,16
1,35,88,20
1,34,90,772
1,33,96,28
1,37,119,224
1,38,107,8
1,33,102,72
1,33,107,92
1,34,106,84
1,35,123,48
1,45,81,1568
1,44,77,36
1,44,82,60
1,42,85,636
1,41,91,48
1,40,95,8
1,33,102,380
1,35,102,24
1,36,95,184
1,37,108,220
1,38,123,196
1,33,102,56
1,36,104,68
1,37,104,80
1,38,95,56
1,47,100,288
1,45,51,8
1,43,83,200
1,42,60,200
1,40,72,244
1,38,66,8
1,36,81,12
1,36,72,196
1,40,86,32
1,33,93,1604
1,38,71,16
1,38,64,100
1,36,80,132
1,36,48,96
1,40,77,60
1,28,90,100
1,33,98,8
1,38,90,1288
1,38,82,76
1,39,96,24
1,40,74,12
1,41,78,16
1,40,78,36
1,39,82,772
1,38,76,16
1,37,90,772
1,36,86,340
1,35,91,20
1,34,88,60
1,33,113,40
1,34,75,20
1,35,88,4
1,40,97,256
1,47,101,176
1,43,96,108
1,40,98,76
1,36,100,92
1,35,109,32
1,37,115,256
1,38,95,128
1,31,115,44
1,45,61,756
1,44,85,632
1,43,84,16
1,42,63,628
1,41,72,892
1,40,82,24
1,45,91,344
1,33,93,440
1,31,95,320
1,33,93,88
1,35,89,48
1,35,52,92
1,40,96,44
1,40,63,68
1,33,86,60
1,32,96,88
1,32,108,172
1,31,107,24
1,40,80,1568
1,38,83,776
1,37,76,20
1,36,83,764
1,40,97,12
1,33,97,1336
1,33,64,168
1,38,90,48
1,36,92,768
1,35,78,28
1,33,88,52
1,33,96,84
1,38,86,80
1,34,102,60
1,39,85,56
1,40,91,56
1,40,70,84
1,39,102,128
1,39,66,84
1,38,93,20
1,38,74,76
1,37,102,12
1,36,102,36
1,41,89,388
1,40,74,12
1,39,82,68
1,38,85,32
1,39,84,4
1,40,86,40
1,40,69,108
1,41,68,20
1,43,89,36
1,34,86,780
1,33,76,20
1,43,85,376
1,31,84,12
1,43,76,20
1,31,84,768
1,36,97,64
1,36,106,1900
2,50,80,2632
2,45,77,276
2,50,79,648
2,59,81,792
2,55,75,384
2,52,68,60
2,48,84,388
2,47,68,12
2,49,83,280
2,50,65,0
2,43,64,48
2,51,76,752
2,57,62,0
2,50,74,396
2,56,67,4
2,49,76,324
2,55,77,4
2,48,66,4
2,54,71,4
2,55,72,12
2,47,62,0
2,55,66,252
2,46,68,0
2,55,68,4
2,45,68,0
2,49,83,496
2,50,81,4
2,45,73,0
2,45,78,144
2,46,81,68
2,47,64,56
2,63,78,1476
2,57,64,4
2,62,72,400
2,56,61,0
2,61,83,312
2,56,67,8
2,54,78,32
2,60,66,4
2,59,64,256
2,53,63,8
2,58,67,8
2,52,54,4
2,45,83,428
2,47,57,132
2,48,83,108
2,49,82,72
2,50,84,4
2,45,75,12
2,48,80,16
2,49,79,108
2,50,80,52
2,59,74,272
2,57,65,12
2,55,80,208
2,54,77,148
2,52,67,184
2,55,65,376
2,59,55,4
2,50,76,364
2,59,59,24
2,55,66,0
2,48,76,24
2,55,77,608
2,58,69,4
2,55,74,4
2,52,57,4
2,55,75,1656
2,45,73,4
2,50,85,44
2,57,51,376
2,53,58,4
2,48,79,28
2,53,58,376
2,57,53,4
2,52,71,40
2,55,65,0
2,55,68,164
2,52,69,0
2,55,76,148
2,45,74,0
2,54,76,1212
2,60,79,0
2,50,78,4
2,57,65,128
2,53,69,0
2,52,64,240
2,56,74,4
2,51,60,176
2,55,68,0
2,54,71,8
2,50,67,4
2,49,71,8
2,53,60,4
2,48,80,400
2,47,74,60
2,46,77,36
2,45,76,80
2,46,76,12
2,57,70,200
2,47,82,0
2,55,67,0
2,54,68,780
2,52,66,20
2,52,67,348
2,56,77,4
2,59,77,164
2,55,81,0
2,52,62,16
2,48,77,384
2,47,63,8
2,49,85,228
2,50,68,0
2,43,61,40
2,63,82,688
2,57,62,4
2,62,78,240
2,56,64,0
2,55,66,176
2,61,78,0
2,54,70,304
2,60,71,4
2,53,65,336
2,59,65,0
2,58,65,44
2,52,54,0
2,55,69,344
2,45,66,4
2,55,75,328
2,45,70,0
2,54,70,260
2,43,59,4
2,55,70,272
2,45,69,0
2,47,68,216
2,57,64,4
2,56,62,8
2,52,62,0
2,55,71,16
2,45,69,4
2,44,66,32
2,51,58,0
2,51,80,128
2,44,73,4
2,43,64,76
2,50,72,0
2,52,64,1480
2,59,56,384
2,55,58,0
2,50,80,0
2,59,49,380
2,55,58,4
2,49,78,20
2,55,57,360
2,59,50,0
2,48,79,16
2,58,55,368
2,52,50,4
2,55,73,236
2,59,63,4
2,52,58,4
2,55,64,1220
2,45,64,8
2,50,75,24
2,57,54,384
2,53,43,0
2,48,77,0
2,53,61,192
2,57,49,4
2,47,64,0
2,55,69,360
2,52,66,4
2,45,73,16
2,55,62,328
2,49,71,4
2,55,75,24
2,45,67,4
2,50,77,12
2,54,69,4
2,56,74,4
2,46,82,4
2,55,74,4
2,51,71,4
2,62,79,32
2,52,62,4
2,51,70,372
2,61,83,0
2,50,83,8
2,60,79,4
2,59,61,16
2,49,75,0
2,48,70,368
2,58,55,4
2,53,74,376
2,52,74,44
2,51,76,36
2,50,83,72
2,51,71,20
2,59,68,780
2,52,56,4
2,60,75,12
2,53,67,48
2,60,74,4
2,55,67,28
2,58,66,336
2,62,72,4
2,57,60,756
2,61,76,0
2,55,80,656
2,43,70,8
2,55,81,8
2,43,72,0
2,55,77,4
2,43,73,0
2,55,72,84
2,43,66,4
2,48,73,0
2,66,78,724
2,65,74,4
2,64,69,56
2,36,105,768
3,62,101,2996
3,63,62,24
3,64,75,12
3,67,75,44
3,69,79,128
3,60,84,268
3,64,81,0
3,67,88,4
3,69,64,124
3,64,66,4
3,60,66,0
3,74,98,708
3,71,93,380
3,67,87,124
3,71,72,48
3,67,57,8
3,64,68,128
3,67,66,16
3,66,86,1600
3,71,93,4
3,72,91,252
3,65,90,28
3,72,97,0
3,71,84,20
3,64,73,16
3,69,88,0
3,63,79,4
3,71,84,0
3,62,83,356
3,67,85,0
3,69,86,372
3,64,82,4
3,69,81,4
3,67,79,380
3,61,74,12
3,66,89,0
3,61,89,56
3,64,82,0
3,62,89,40
3,64,95,4
3,62,57,28
3,64,74,28
3,67,71,28
3,69,80,128
3,71,80,20
3,62,89,20
3,64,80,128
3,67,69,44
3,60,68,8
3,69,82,0
3,71,86,4
3,60,85,52
3,67,80,0
3,61,86,112
3,67,74,0
3,67,70,68
3,62,85,4
3,62,96,384
3,63,64,40
3,64,80,4
3,67,61,68
3,69,85,8
3,71,91,40
3,72,97,4
3,72,99,28
3,71,87,12
3,69,93,384
3,68,62,8
3,69,87,12
3,71,88,28
3,67,89,900
3,66,69,16
3,67,73,12
3,69,93,32
3,67,85,512
3,66,97,4
3,61,91,256
3,62,88,128
3,63,88,116
3,64,72,64
3,62,90,520
3,64,92,384
3,62,71,52
3,64,82,128
3,67,73,44
3,69,84,4
3,71,86,24
3,62,82,768
3,64,82,104
3,67,64,56
3,60,86,128
3,69,83,4
3,71,88,4
3,64,81,88
3,67,82,0
3,64,80,128
3,67,80,0
3,59,79,88
3,64,81,4
3,67,80,0
3,71,95,1776
3,67,76,8
3,71,98,12
3,67,83,48
3,64,75,100
3,70,89,0
3,67,87,56
3,71,98,8
3,71,79,100
3,59,73,128
3,59,64,124
3,64,92,20
3,67,81,48
3,66,95,512
3,59,86,336
3,60,91,8
3,61,75,0
3,69,93,380
3,65,86,384
3,69,92,16
3,65,91,0
3,62,88,384
3,69,88,0
3,61,95,68
3,69,83,0
3,74,93,60
3,74,99,116
3,74,94,144
3,76,86,40
3,71,87,128
3,70,88,368
3,76,95,16
3,74,92,4
3,67,73,24
3,71,92,4
3,72,95,380
3,66,73,84
3,72,85,0
3,71,87,380
3,65,74,168
3,69,87,4
3,64,78,764
3,71,85,4
3,63,81,44
3,67,66,4
3,64,85,344
3,69,85,0
3,63,88,256
3,68,78,0
3,62,90,8
3,67,83,0
3,66,85,12
3,61,93,4
3,61,83,24
3,64,78,4
3,62,94,24
3,64,88,12
3,62,82,28
3,64,82,128
3,67,77,12
3,69,82,4
3,71,87,32
3,62,90,264
3,64,81,128
3,67,76,24
3,69,92,128
3,62,91,40
3,71,92,0
3,74,95,56
3,71,94,32
3,67,86,40
3,71,76,40
3,67,55,8
3,64,84,132
3,67,89,16
3,67,86,992
3,69,75,128
3,70,75,248
3,71,97,4
3,70,68,52
3,71,75,128
3,76,99,60
3,71,86,508
3,70,81,36
3,69,87,8
3,68,67,44
3,69,73,128
3,74,94,60
3,69,79,512
3,68,68,40
3,67,84,28
3,66,55,44
3,67,68,128
3,69,90,76
3,68,78,8
3,67,64,4
3,66,87,24
3,61,92,384
3,61,90,356
3,62,91,152
3,64,88,16
3,62,83,20
3,64,79,0
3,67,79,0
3,69,79,132
3,71,91,16
3,62,82,20
3,64,84,128
3,67,71,36
3,60,84,132
3,69,78,0
3,71,87,12
3,60,81,144
3,67,84,0
3,60,85,112
3,67,81,0
3,59,76,76
3,67,69,4
3,62,101,336
3,63,75,28
3,64,84,16
3,67,71,36
3,69,80,128
3,71,89,32
3,67,79,4
3,76,89,16
3,67,71,12
3,69,86,136
3,67,68,40
3,69,88,120
3,70,92,4
3,71,92,516
3,64,80,348
3,63,54,52
3,64,78,16
3,67,69,32
3,69,80,128
3,66,70,60
3,61,76,4
3,65,85,52
3,64,80,328
3,69,91,376
3,65,78,12
3,74,90,52
3,69,80,24
3,67,74,132
3,66,77,8
3,67,77,0
3,69,80,36
3,74,86,12
3,71,86,4
3,74,92,8
3,74,90,24
3,76,82,20
3,71,78,128
3,72,88,48
3,75,100,0
3,75,99,144
3,75,95,4
3,77,86,20
3,72,95,128
3,68,82,20
3,76,90,0
3,77,90,380
3,67,81,104
3,77,90,0
3,76,90,24
3,66,83,228
3,74,85,0
3,65,83,256
3,76,88,0
3,72,81,36
3,64,74,4
3,74,86,388
3,69,91,4
3,68,79,252
3,73,82,0
3,72,88,12
3,67,79,4
3,71,78,36
3,66,87,0
3,66,83,168
3,69,84,0
3,62,79,172
3,67,79,4
3,69,81,4
3,67,69,28
3,69,88,128
3,72,91,36
3,69,74,128
3,74,90,4
3,76,86,28
3,67,77,392
3,69,77,128
3,72,91,24
3,74,72,132
3,68,76,0
3,67,75,20
3,76,85,0
3,72,80,216
3,79,78,0
3,69,84,0
3,65,74,340
3,76,88,0
3,69,78,4
3,65,72,312
3,69,73,4
3,72,92,0
3,65,64,212
3,69,80,0
3,72,98,24
3,67,74,8
3,68,74,12
3,69,82,128
3,72,94,32
3,74,90,128
3,72,90,32
3,60,111,724
4,40,23,3512
4,40,83,124
4,46,92,376
4,35,93,4
4,40,73,368
4,44,102,248
4,35,93,4
4,40,57,1660
4,35,42,116
4,40,13,116
4,44,106,120
4,40,79,0
4,42,42,112
4,46,86,120
4,35,93,0
4,35,67,1648
4,46,90,0
4,44,80,372
4,40,75,4
4,46,56,244
4,35,10,0
4,46,81,116
4,35,67,0
4,44,75,372
4,40,61,0
4,46,53,244
4,46,74,124
4,35,70,4
4,44,69,376
4,40,73,0
4,46,44,244
4,46,81,116
4,35,62,4
4,40,7,248
4,40,64,120
4,44,76,4
4,46,49,244
4,35,67,120
4,46,73,4
4,44,79,368
4,40,55,4
4,46,53,244
4,46,88,124
4,35,68,4
4,40,58,372
4,44,80,4
4,46,75,240
4,46,99,124
4,35,59,4
4,40,67,244
4,35,39,376
4,40,64,124
4,35,38,244
4,40,28,116
4,40,61,120
4,35,90,124
4,59,111,376
4,51,108,0
4,40,1,4
4,40,58,884
4,35,50,760
4,40,58,0
4,40,50,760
4,44,73,244
4,46,117,128
4,53,96,760
4,40,72,0
4,35,7,248
4,51,104,112
4,40,62,0
4,35,38,116
4,55,127,120
4,40,89,4
4,40,29,1136
4,40,61,120
4,46,88,384
4,35,85,4
4,40,54,364
4,44,79,0
4,46,48,244
4,46,81,120
4,35,67,4
4,44,75,372
4,40,67,4
4,46,68,244
4,35,27,0
4,46,88,116
4,35,62,0
4,40,58,368
4,44,85,0
4,46,82,240
4,35,85,0
4,44,82,504
4,40,63,0
4,35,5,240
4,46,62,4
4,46,90,120
4,35,75,4
4,44,75,372
4,40,63,4
4,46,86,240
4,35,87,4
4,40,68,504
4,44,89,4
4,35,21,244
4,46,94,116
4,35,93,0
4,40,81,248
4,35,33,372
4,40,81,120
4,35,40,244
4,40,51,124
4,40,68,120
4,35,93,116
4,51,97,128
4,59,39,4
4,59,95,372
4,40,73,0
4,59,93,372
4,40,67,376
4,59,97,4
4,51,59,236
4,59,96,124
4,59,90,376
4,40,58,0
4,59,106,372
4,51,65,244
4,35,66,0
4,59,98,120
4,40,72,0
4,51,80,240
4,35,83,128
4,59,86,4
4,53,121,236
4,40,81,4
4,35,14,376
4,59,121,120
4,40,77,4
4,35,43,244
4,49,63,120
4,40,41,4
4,40,59,112
4,35,93,120
4,55,109,0
4,35,54,1652
4,55,119,4
4,59,106,372
4,40,48,4
4,51,40,244
4,59,102,124
4,35,52,0
4,59,104,368
4,40,57,0
4,59,117,372
4,35,62,4
4,40,66,372
4,35,62,632
4,40,57,120
4,35,90,376
4,42,64,376
4,42,64,372
4,42,64,372
4,42,64,372
4,57,86,372
4,35,89,4
4,40,36,628
4,40,62,116
4,35,31,248
4,35,85,124
4,59,113,4
4,59,111,368
4,40,64,4
4,59,113,376
4,35,66,4
4,59,109,368
4,40,64,0
4,51,38,244
4,59,121,124
4,35,83,4
4,51,66,372
4,40,70,0
4,53,124,240
4,35,87,0
4,40,23,372
4,40,83,124
4,51,63,240
4,55,126,124
4,35,93,4
4,42,64,372
4,42,64,372
4,42,64,372
4,35,92,368
4,57,88,0
4,40,19,1012
4,40,79,120
4,49,73,372
4,35,75,4
4,59,86,376
4,40,39,4
4,51,43,240
4,59,115,124
4,35,61,4
4,59,117,372
4,40,59,4
4,59,121,372
4,35,67,4
4,59,119,368
4,40,62,0
4,51,63,240
4,59,113,120
4,35,50,4
4,53,109,116
4,40,36,124
4,53,115,120
4,40,79,0
4,40,44,248
4,35,81,124
4,59,127,4
4,38,70,320
4,38,60,12
4,38,100,12
4,57,104,372
4,40,70,4
4,35,61,248
4,49,85,4
4,40,67,240
4,57,86,4
4,35,89,244
4,55,123,4
4,57,91,756
4,35,81,4
4,49,88,756
4,35,73,4
4,59,113,372
4,40,51,4
4,51,46,248
4,35,56,116
4,59,109,4
4,59,126,372
4,40,54,0
4,51,58,244
4,59,121,120
4,35,61,4
4,59,126,376
4,40,63,4
4,35,55,372
4,59,127,0
4,51,64,248
4,59,126,116
4,40,79,0
4,51,75,240
4,59,124,120
4,35,48,0
4,57,95,240
4,40,93,0
4,42,70,500
4,42,70,372
4,59,119,376
4,51,63,372
4,53,113,380
4,35,34,244
4,46,127,120
4,40,77,0
4,35,40,116
4,35,89,124
4,44,127,4
4,40,73,368
4,35,72,120
4,40,89,252
4,59,104,888
4,35,56,4
4,51,60,376
4,59,119,244
4,40,75,0
4,51,33,760
4,40,8,0
4,35,67,116
4,59,127,0
4,51,63,244
4,35,18,124
4,59,32,0
4,59,123,240
4,40,79,4
4,51,58,756
4,35,77,120
4,59,121,0
4,51,73,240
4,35,35,124
4,59,126,244
4,40,75,0
4,55,127,1152
4,35,87,0
4,35,79,496
4,55,126,0
4,59,115,760
4,35,58,4
4,59,109,372
4,40,52,0
4,51,32,244
4,59,111,120
4,35,46,4
4,59,113,376
4,40,58,0
4,51,67,244
4,59,127,124
4,35,51,4
4,59,124,368
4,40,66,4
4,35,56,372
4,59,126,4
4,51,89,112
4,51,108,248
4,40,59,0
4,59,123,368
4,35,67,0
4,59,117,372
4,40,70,0
4,59,127,376
4,35,70,4
4,35,33,240
4,51,82,4
4,59,126,124
4,40,73,0
