track,note,velocity,time
1,35,71,2664
1,40,84,632
1,33,88,20
1,38,70,20
1,31,86,4
1,34,81,28
1,34,74,204
1,33,82,16
1,38,82,12
1,38,55,236
1,31,77,4
1,34,75,624
1,34,70,240
1,33,73,8
1,38,71,640
1,38,63,220
1,43,73,128
1,43,68,180
1,41,68,4
1,41,69,216
1,40,76,128
1,40,80,208
1,39,84,136
1,39,84,232
1,38,82,16
1,33,80,1220
1,38,81,8
1,35,88,28
1,35,73,140
1,34,75,16
1,34,79,236
1,33,80,12
1,33,75,232
1,38,76,4
1,38,72,224
1,35,71,124
1,35,73,192
1,34,72,0
1,34,70,236
1,33,80,4
1,33,69,248
1,38,72,8
1,38,68,236
1,43,81,0
1,41,76,12
1,40,89,12
1,39,84,4
1,38,98,20
1,43,74,1292
1,38,86,20
1,31,70,8
1,37,93,460
1,42,68,8
1,35,71,12
1,40,77,780
1,33,83,12
1,38,89,0
1,37,104,1532
1,42,75,16
1,35,66,780
1,40,67,752
1,34,86,8
1,33,83,776
1,38,82,8
1,31,77,8
1,31,61,212
1,34,76,132
1,34,68,204
1,33,80,4
1,33,75,228
1,38,75,128
1,38,68,204
1,31,81,136
1,31,70,220
1,34,79,132
1,34,73,236
1,33,77,136
1,33,74,240
1,38,80,0
1,38,75,228
1,43,82,4
1,43,76,88
1,41,82,128
1,41,80,56
1,40,70,4
1,40,78,208
1,39,88,136
1,39,85,228
1,38,88,28
1,39,76,100
1,38,57,24
1,33,78,20
1,38,57,736
1,31,91,24
1,47,82,1156
1,46,60,768
1,45,47,16
1,48,53,764
1,47,61,744
1,46,48,740
1,45,41,12
1,38,41,8
1,43,40,0
1,41,46,780
1,40,57,0
1,39,45,772
1,38,46,760
1,43,48,312
1,38,52,12
1,31,55,4
1,37,80,388
1,42,73,4
1,47,77,24
1,40,77,772
1,45,77,4
1,38,70,12
1,37,90,8
1,42,82,48
1,47,88,12
1,40,78,0
1,39,65,764
1,38,66,8
1,37,74,756
1,36,82,16
1,40,76,52
1,36,59,8
1,39,84,0
1,39,88,36
1,38,84,68
1,38,81,80
1,31,81,40
1,33,89,48
1,35,56,24
1,36,84,48
1,36,92,112
1,39,72,56
1,39,86,92
1,38,83,68
1,38,88,56
1,43,72,16
1,43,75,80
1,36,82,400
1,36,95,64
1,34,82,36
1,34,77,80
1,33,86,28
1,33,86,76
1,32,81,32
1,32,67,72
1,36,95,64
1,38,85,20
1,40,82,772
1,45,81,8
1,38,88,20
1,40,84,12
1,41,82,256
1,43,83,20
1,31,85,392
1,36,91,36
1,31,74,212
1,36,90,40
2,47,76,2636
2,57,71,4
2,56,77,44
2,45,77,24
2,55,76,0
2,54,82,36
2,50,88,36
2,43,69,36
2,46,88,72
2,45,76,12
2,50,90,52
2,43,81,896
2,46,91,48
2,45,85,892
2,54,90,576
2,55,94,24
2,53,81,760
2,52,73,720
2,60,84,4
2,57,76,756
2,53,73,8
2,59,72,20
2,50,80,0
2,55,77,1276
2,45,68,4
2,50,77,12
2,54,70,0
2,47,84,40
2,55,69,388
2,46,88,12
2,55,70,384
2,45,79,168
2,55,74,360
2,50,81,48
2,54,74,376
2,47,79,0
2,55,63,388
2,46,87,4
2,55,68,368
2,45,80,28
2,55,70,372
2,50,84,8
2,54,72,392
2,43,76,32
2,55,67,376
2,41,92,40
2,53,53,384
2,40,95,16
2,52,54,384
2,39,83,48
2,51,64,384
2,38,84,24
2,57,76,832
2,55,83,152
2,50,83,144
2,43,77,224
2,59,66,464
2,49,82,8
2,54,77,28
2,58,61,0
2,47,64,8
2,57,59,4
2,56,64,40
2,52,57,4
2,55,64,16
2,45,61,4
2,54,66,40
2,50,72,0
2,49,81,252
2,59,68,0
2,58,59,40
2,54,64,4
2,57,60,36
2,47,67,0
2,56,64,72
2,52,61,0
2,56,57,68
2,46,68,4
2,45,69,80
2,55,66,0
2,50,68,12
2,54,67,0
2,43,68,92
2,46,72,68
2,45,72,52
2,50,90,40
2,50,85,156
2,43,64,148
2,46,80,32
2,45,74,772
2,50,82,104
2,50,82,96
2,43,76,152
2,53,69,740
2,48,77,240
2,55,70,4
2,57,76,12
2,59,88,36
2,57,74,384
2,55,68,12
2,57,63,16
2,55,58,8
2,54,78,132
2,57,65,20
2,51,68,4
2,56,73,0
2,50,75,4
2,60,90,20
2,59,72,12
2,57,70,4
2,55,76,8
2,54,85,384
2,55,71,48
2,59,61,0
2,59,77,1204
2,62,84,188
2,67,64,4
2,62,66,8
2,58,61,28
2,61,75,188
2,67,68,16
2,61,68,192
2,57,60,20
2,64,59,188
2,67,63,12
2,64,59,16
2,66,67,4
2,60,68,4
2,59,75,224
2,62,67,188
2,67,66,0
2,62,71,0
2,58,72,16
2,61,69,188
2,67,64,12
2,61,69,196
2,57,64,12
2,64,63,184
2,67,65,4
2,64,68,0
2,66,70,16
2,60,67,0
2,67,76,228
2,71,85,192
2,74,78,184
2,71,75,4
2,65,88,12
2,71,70,192
2,74,75,4
2,71,69,188
2,64,81,32
2,67,63,188
2,72,78,180
2,67,50,16
2,63,70,200
2,67,59,172
2,72,83,184
2,67,54,8
2,71,87,8
2,69,77,16
2,67,72,192
2,66,77,172
2,66,89,88
2,67,85,384
2,62,83,28
2,55,84,68
2,49,92,380
2,55,61,68
2,59,80,192
2,54,87,16
2,58,66,4
2,59,73,0
2,56,74,96
2,52,71,0
2,57,81,736
2,50,71,8
2,54,81,4
2,60,85,36
2,49,79,136
2,59,82,172
2,58,71,12
2,54,79,4
2,59,77,8
2,52,72,8
2,62,78,0
2,51,70,8
2,61,73,0
2,60,75,8
2,50,76,4
2,59,58,24
2,49,72,0
2,60,92,132
2,60,78,196
2,57,73,0
2,59,84,40
2,57,85,376
2,62,96,16
2,60,94,376
2,59,88,28
2,55,92,516
2,48,90,368
2,60,89,60
2,57,82,72
2,59,81,136
2,57,79,8
2,62,96,28
2,60,92,380
2,59,76,48
2,55,85,512
2,52,70,12
2,60,79,4
2,58,69,24
2,57,61,0
2,53,73,4
2,50,73,20
2,56,68,0
2,59,69,232
2,48,79,0
2,60,80,196
2,50,82,0
2,62,80,176
2,52,71,4
2,61,78,28
2,57,66,0
2,65,93,48
2,64,82,376
2,62,84,20
2,65,83,128
2,64,75,12
2,60,74,0
2,43,81,200
2,36,97,48
3,71,87,2612
3,62,82,4
3,70,82,20
3,71,86,136
3,72,92,40
3,69,83,136
3,60,75,4
3,68,66,4
3,69,68,128
3,71,81,32
3,67,79,320
3,59,64,4
3,64,82,4
3,66,83,44
3,61,83,0
3,66,91,204
3,64,64,4
3,60,91,136
3,67,85,4
3,69,77,8
3,71,74,72
3,63,81,0
3,60,71,0
3,71,94,148
3,67,77,64
3,59,78,4
3,64,75,4
3,66,82,52
3,61,80,0
3,66,91,164
3,64,76,380
3,60,87,80
3,67,84,0
3,69,79,80
3,60,65,116
3,64,62,4
3,71,87,0
3,71,99,172
3,74,93,220
3,67,74,44
3,74,90,400
3,67,64,64
3,74,88,408
3,67,71,52
3,74,82,372
3,63,81,4
3,67,76,48
3,74,92,180
3,72,87,40
3,71,74,76
3,69,82,0
3,67,84,384
3,66,82,4
3,69,78,4
3,65,91,380
3,64,77,352
3,63,77,20
3,67,86,416
3,62,94,4
3,64,74,0
3,61,79,112
3,66,81,0
3,61,94,124
3,66,95,4
3,64,65,36
3,60,92,136
3,67,87,0
3,69,71,80
3,71,91,56
3,60,86,180
3,63,89,4
3,71,88,0
3,67,84,288
3,62,88,4
3,64,72,28
3,66,84,116
3,61,79,0
3,66,88,136
3,61,84,0
3,64,70,32
3,67,79,136
3,60,85,0
3,69,79,64
3,71,85,40
3,64,84,160
3,71,93,4
3,60,86,0
3,74,94,236
3,67,70,16
3,74,94,384
3,67,61,48
3,74,92,388
3,67,69,24
3,74,93,404
3,67,56,40
3,74,94,384
3,72,97,380
3,71,82,28
3,69,85,124
3,67,84,192
3,64,76,4
3,60,87,0
3,67,81,164
3,59,75,4
3,64,76,4
3,62,75,0
3,71,92,480
3,72,80,132
3,74,53,36
3,76,94,16
3,67,75,372
3,66,45,48
3,67,76,8
3,69,72,16
3,71,90,132
3,73,65,40
3,74,84,132
3,64,79,4
3,73,64,32
3,71,90,128
3,73,73,0
3,74,87,4
3,66,86,4
3,74,75,124
3,71,91,4
3,65,79,8
3,71,95,136
3,72,85,12
3,64,71,4
3,72,94,116
3,69,80,64
3,64,67,4
3,66,86,20
3,67,75,28
3,69,81,140
3,71,81,12
3,72,91,144
3,74,76,40
3,76,96,132
3,67,72,380
3,66,58,24
3,67,77,8
3,69,68,244
3,71,75,124
3,73,80,0
3,74,83,12
3,64,78,4
3,73,63,32
3,71,86,132
3,73,71,28
3,66,78,4
3,74,76,4
3,74,90,120
3,71,80,40
3,66,72,4
3,71,93,76
3,62,79,96
3,72,83,4
3,65,75,8
3,72,93,108
3,69,81,84
3,66,87,4
3,65,80,0
3,64,69,384
3,62,80,8
3,67,82,396
3,62,83,0
3,64,75,4
3,59,72,0
3,64,82,4
3,66,81,24
3,61,81,4
3,64,85,24
3,67,80,80
3,60,82,8
3,69,73,72
3,71,83,36
3,60,68,4
3,64,60,4
3,67,81,300
3,62,86,0
3,64,79,4
3,59,73,0
3,64,68,36
3,61,84,24
3,66,80,0
3,64,81,8
3,67,79,120
3,60,82,8
3,69,75,52
3,63,90,16
3,71,78,4
3,60,78,0
3,71,95,356
3,74,92,0
3,67,63,24
3,74,83,144
3,71,83,4
3,67,76,16
3,74,80,368
3,71,84,4
3,67,77,16
3,67,64,204
3,74,75,4
3,63,79,4
3,72,91,32
3,74,91,128
3,72,95,376
3,71,63,28
3,72,97,44
3,71,76,40
3,69,81,8
3,67,80,384
3,71,84,4
3,66,84,368
3,65,75,12
3,64,70,4
3,76,100,24
3,74,86,388
3,72,78,40
3,71,90,12
3,69,88,16
3,67,91,40
3,69,92,24
3,71,76,192
3,72,87,4
3,74,79,20
3,76,85,192
3,78,80,4
3,79,91,40
3,79,89,108
3,76,77,200
3,78,95,20
3,78,94,108
3,76,76,28
3,79,92,8
3,79,89,112
3,81,81,200
3,83,95,24
3,74,70,196
3,76,86,188
3,78,78,180
3,79,79,20
3,79,79,108
3,76,82,4
3,78,90,192
3,78,92,136
3,76,78,8
3,79,86,4
3,79,88,104
3,81,84,196
3,83,98,4
3,81,84,24
3,83,90,192
3,84,79,12
3,86,97,24
3,79,80,12
3,86,97,356
3,79,80,8
3,86,94,8
3,79,67,12
3,81,79,192
3,83,88,0
3,86,92,56
3,79,75,40
3,86,94,16
3,84,82,388
3,83,87,12
3,81,82,192
3,81,93,96
3,79,88,196
3,81,61,4
3,79,57,12
3,81,51,8
3,81,71,52
3,79,29,28
3,81,48,4
3,79,32,16
3,81,54,0
3,81,37,68
3,79,26,20
3,81,57,32
3,79,56,8
3,79,29,64
3,67,84,236
3,76,93,308
3,66,94,180
3,67,82,16
3,69,83,196
3,71,90,0
3,73,77,16
3,74,92,28
3,73,77,184
3,71,84,16
3,73,70,192
3,74,85,20
3,66,84,4
3,68,80,192
3,69,75,12
3,71,86,188
3,68,70,144
3,69,76,24
3,71,82,24
3,72,94,36
3,64,65,192
3,66,66,8
3,67,64,192
3,69,84,188
3,66,76,168
3,67,78,0
3,69,75,192
3,71,94,0
3,69,74,20
3,71,88,192
3,72,84,180
3,76,96,176
3,64,79,28
3,66,85,184
3,67,85,8
3,69,67,192
3,71,86,172
3,73,72,176
3,74,82,36
3,73,79,192
3,71,80,8
3,73,81,192
3,74,91,180
3,74,92,64
3,68,80,24
3,71,87,4
3,71,89,128
3,72,92,32
3,67,75,0
3,72,86,104
3,69,64,88
3,66,64,8
3,69,79,140
3,71,82,20
3,65,68,12
3,71,84,108
3,72,92,52
3,64,76,8
3,67,68,4
3,69,73,0
3,67,74,188
3,64,67,4
3,69,84,0
3,66,76,236
3,63,82,0
3,71,86,0
3,69,83,8
3,65,81,260
3,69,82,4
3,72,95,0
3,74,87,20
3,76,106,100
3,64,75,212
3,72,96,0
3,67,74,4
3,69,77,0
3,69,87,48
3,63,90,8
3,71,80,4
3,66,86,0
3,69,89,28
3,72,95,220
3,69,84,0
3,65,86,4
3,74,92,384
3,76,98,100
3,67,88,204
3,79,93,4
3,72,100,28
3,72,91,128
3,79,86,20
3,67,72,8
3,72,103,128
3,67,90,16
3,79,90,4
3,72,100,8
3,79,87,20
3,67,87,4
3,72,99,16
3,67,86,36
3,79,86,4
3,77,93,40
3,76,88,28
3,69,85,20
3,77,91,4
3,76,78,20
3,74,92,0
3,76,92,32
3,67,81,4
3,70,92,380
3,69,83,4
3,81,99,48
3,72,101,0
3,79,85,384
3,77,86,48
3,76,91,8
3,71,84,0
3,79,94,384
3,84,99,264
3,74,93,4
3,79,83,0
4,59,74,2500
4,35,79,4
4,51,57,364
4,40,56,0
4,53,85,236
4,35,75,0
4,40,53,500
4,59,70,380
4,35,82,4
4,40,56,364
4,51,53,0
4,53,68,244
4,35,92,4
4,40,55,500
4,35,79,376
4,59,70,4
4,59,74,368
4,40,55,4
4,59,80,376
4,40,52,372
4,59,74,4
4,51,53,244
4,35,57,4
4,35,78,116
4,59,69,0
4,59,58,372
4,40,53,4
4,35,76,244
4,59,62,120
4,51,49,244
4,59,63,124
4,40,48,0
4,51,53,244
4,59,64,120
4,35,75,4
4,59,62,368
4,40,48,4
4,59,64,368
4,40,50,376
4,59,61,0
4,35,53,244
4,51,37,4
4,59,72,116
4,35,80,4
4,40,56,372
4,59,68,4
4,35,83,240
4,59,48,124
4,51,49,252
4,40,56,112
4,59,63,4
4,51,38,252
4,59,62,120
4,35,72,0
4,59,75,372
4,40,49,0
4,51,52,244
4,59,66,124
4,35,76,0
4,59,60,376
4,40,63,4
4,51,36,240
4,59,71,120
4,35,74,4
4,40,65,364
4,59,75,0
4,51,46,244
4,35,44,4
4,59,70,120
4,35,87,0
4,40,65,372
4,59,56,4
4,51,49,240
4,59,75,120
4,35,97,4
4,59,61,1532
4,35,63,4
4,51,67,368
4,40,40,4
4,53,77,372
4,35,42,4
4,40,53,0
4,35,79,752
4,59,66,4
4,59,71,372
4,40,49,0
4,51,47,248
4,59,74,116
4,35,79,4
4,59,70,372
4,40,50,4
4,35,59,248
4,59,80,120
4,35,86,4
4,59,74,368
4,40,60,4
4,59,71,376
4,35,79,0
4,51,49,244
4,59,70,120
4,40,64,4
4,51,60,244
4,40,55,0
4,59,73,116
4,35,91,0
4,53,102,240
4,59,79,124
4,40,57,4
4,35,53,248
4,35,80,116
4,59,76,4
4,40,57,372
4,59,71,4
4,51,62,244
4,59,81,124
4,35,85,4
4,59,64,368
4,40,57,4
4,59,66,372
4,35,82,4
4,40,56,240
4,59,73,124
4,40,25,120
4,40,68,124
4,59,82,120
4,35,81,4
4,51,56,240
4,53,80,120
4,40,71,4
4,35,78,372
4,59,80,4
4,51,50,244
4,53,65,116
4,40,71,4
4,35,83,372
4,59,69,0
4,51,27,244
4,53,65,116
4,40,65,0
4,51,47,240
4,59,81,120
4,35,87,0
4,51,41,244
4,53,81,116
4,40,73,0
4,51,67,240
4,35,45,4
4,59,99,120
4,35,92,4
4,59,79,1528
4,35,74,372
4,51,65,0
4,40,47,4
4,53,70,368
4,40,56,0
4,35,83,4
4,35,82,756
4,59,86,0
4,59,61,376
4,59,64,372
4,40,41,4
4,59,81,372
4,51,34,244
4,59,80,120
4,35,75,4
4,59,75,368
4,51,54,252
4,59,71,120
4,40,52,4
4,51,60,236
4,59,67,124
4,59,82,372
4,35,83,4
4,59,73,364
4,59,87,380
4,40,48,4
4,51,49,244
4,59,71,120
4,59,78,380
4,35,91,248
4,59,74,120
4,51,56,240
4,35,83,120
4,59,47,4
4,51,35,244
4,59,69,120
4,51,61,248
4,53,89,120
4,59,76,376
4,59,65,380
4,40,58,4
4,51,47,240
4,59,50,124
4,51,52,244
4,59,78,120
4,35,75,0
4,51,56,240
4,59,67,120
4,51,56,248
4,53,79,120
4,35,67,4
4,40,49,0
