track,note,velocity,time
1,45,85,9564
1,47,78,0
1,45,98,0
1,47,100,0
1,45,102,0
1,47,98,0
1,45,100,0
1,47,95,0
1,45,98,0
1,47,85,0
1,45,87,0
1,47,100,0
1,40,77,32
1,38,100,32
1,41,102,16
1,43,105,0
1,44,87,0
1,45,107,16
1,45,80,48
1,44,105,0
1,35,93,0
1,40,102,16
1,47,105,16
1,46,91,16
1,45,89,0
1,47,95,0
1,45,87,0
1,47,93,16
1,45,102,304
1,47,105,0
1,45,91,96
1,38,100,16
1,42,116,16
1,38,91,0
1,43,110,16
1,36,100,16
1,38,100,16
1,43,87,0
1,33,91,16
1,33,102,48
1,33,82,80
1,33,74,96
1,33,82,656
1,45,91,16
1,45,89,64
1,38,98,80
1,38,80,64
1,45,102,96
1,47,98,0
1,45,100,0
1,47,95,0
1,45,98,0
1,47,85,0
1,45,87,0
1,47,100,0
1,40,70,0
1,38,100,128
1,41,102,16
1,43,105,0
1,44,87,0
1,45,107,16
1,45,80,48
1,44,105,0
1,35,93,0
1,40,102,16
1,47,105,16
1,46,91,16
1,45,89,0
1,47,95,0
1,45,87,0
1,47,93,16
1,45,102,304
1,47,105,0
1,45,91,80
1,38,100,16
1,42,116,16
1,38,91,0
1,43,110,16
1,36,100,16
1,38,100,16
1,43,87,0
1,33,100,32
1,38,89,0
1,31,80,0
1,36,85,0
1,29,80,16
1,34,78,0
1,28,87,16
1,33,80,0
2,47,127,21832
2,52,127,0
2,51,127,16
2,40,127,0
2,52,127,0
2,51,127,0
2,59,127,16
2,49,127,176
2,61,127,0
2,59,127,160
2,48,127,0
2,61,127,176
2,47,127,0
2,62,127,368
2,46,127,0
2,47,127,24512
2,52,127,0
2,51,127,16
2,40,127,0
2,52,127,0
2,51,127,0
2,59,127,16
2,49,127,176
2,61,127,0
2,59,127,160
2,48,127,0
2,61,127,176
2,47,127,0
2,62,127,368
2,46,127,0
2,45,127,0
2,54,127,0
2,47,127,688
2,56,127,0
2,45,127,0
2,54,127,0
2,47,127,0
2,56,127,0
2,54,127,752
2,45,127,0
2,56,127,0
2,47,127,0
2,54,127,0
2,45,127,0
2,48,127,0
2,45,127,1312
2,50,127,16
2,48,127,16
2,50,127,0
2,48,127,0
2,46,127,0
2,45,127,1584
3,75,127,11500
3,72,125,256
3,75,127,0
3,75,127,0
3,72,102,48
3,74,123,32
3,76,111,0
3,72,126,64
3,69,127,16
3,64,122,0
3,76,122,0
3,72,127,240
3,74,127,240
3,74,127,16
3,71,127,704
3,72,127,0
3,69,127,48
3,72,127,48
3,72,127,0
3,69,127,16
3,73,127,16
3,72,127,0
3,71,127,32
3,75,127,1680
3,72,127,0
3,75,127,0
3,76,127,0
3,76,127,256
3,75,127,0
3,72,102,48
3,74,123,32
3,76,111,0
3,72,126,64
3,69,127,16
3,64,122,0
3,62,112,16
3,67,127,0
3,64,121,32
3,67,127,32
3,67,127,48
3,72,127,0
3,75,127,16
3,74,127,16
3,72,124,80
3,72,114,112
3,75,127,0
3,76,127,0
3,72,127,128
3,75,127,160
3,76,122,16
3,74,127,608
3,74,119,0
3,72,103,208
3,74,123,48
3,76,114,32
3,72,104,32
3,69,107,16
3,64,89,16
3,75,127,816
3,72,127,16
3,72,125,224
3,74,112,0
3,74,127,288
3,71,127,384
3,69,102,48
3,72,127,0
3,69,126,16
3,72,120,48
3,71,110,48
3,75,127,1328
3,76,127,0
3,72,127,240
3,75,127,0
3,76,114,0
3,76,127,256
3,74,127,528
3,72,111,32
3,74,127,48
3,76,118,64
3,72,127,144
3,69,127,0
3,64,126,0
3,62,121,1120
3,67,127,0
3,64,118,32
3,67,125,112
3,67,127,64
3,72,126,0
3,74,127,16
3,74,127,16
3,72,114,80
3,72,122,160
4,64,85,2592
4,60,93,0
4,64,95,384
4,50,100,12288
4,52,107,1904
4,53,102,16
4,54,113,368
4,59,113,352
4,56,113,16
4,59,119,48
4,64,110,0
4,63,107,0
4,62,100,16
4,54,116,0
4,57,95,16
4,59,102,160
4,66,113,176
4,65,100,0
4,56,110,0
4,59,107,0
4,64,102,0
4,61,119,752
4,62,110,0
4,58,116,0
4,60,105,4624
4,62,102,0
4,64,107,176
4,66,100,0
4,68,95,16
4,69,91,0
4,67,107,0
4,66,87,0
4,65,102,0
4,64,95,0
4,67,105,400
4,66,107,0
4,67,107,0
4,69,105,0
4,66,98,0
4,57,98,80
4,60,76,0
4,64,60,0
4,56,82,16
4,57,80,736
4,54,93,0
4,56,91,32
4,57,68,32
4,54,99,16
4,56,105,0
4,54,98,32
4,60,98,0
4,62,89,0
4,56,105,0
4,54,100,0
4,60,78,16
4,56,93,0
4,62,82,0
4,54,91,752
4,60,87,0
4,62,91,752
4,56,93,0
4,60,89,752
4,54,89,0
4,56,100,752
4,62,87,0
4,52,89,16
4,50,100,32
4,52,107,1904
4,53,102,16
4,54,113,368
4,59,113,352
4,56,113,16
4,59,119,64
4,64,110,0
4,63,107,0
4,62,100,16
4,54,116,0
4,57,95,16
4,59,102,160
4,66,113,176
4,65,100,0
4,56,110,0
4,59,107,0
4,64,102,0
4,61,119,752
4,62,110,0
4,58,116,0
4,54,98,16
4,60,95,0
4,56,74,752
4,62,78,0
4,54,85,0
4,60,85,0
4,56,82,0
4,62,82,0
4,54,85,0
4,60,74,0
4,56,80,0
4,62,82,0
4,54,78,0
4,60,80,0
4,62,102,0
4,60,89,80
4,64,107,96
4,66,100,0
4,68,95,16
4,69,91,0
4,67,107,0
4,66,87,0
4,65,102,0
4,52,107,0
4,60,98,0
4,64,102,0
4,66,105,1488
4,54,113,0
4,62,100,0
4,65,87,0
4,60,95,16
4,53,53,0
4,52,100,736
4,64,95,0
4,53,89,0
4,63,76,0
4,58,102,752
4,62,82,0
4,52,98,704
4,56,100,16
4,61,100,0
4,57,76,0
4,60,82,0
4,66,98,3072
5,81,94,3916
5,77,96,16
5,74,96,16
5,71,94,32
5,67,94,16
5,64,88,16
5,60,90,16
5,57,88,16
5,64,88,16
5,54,84,16
5,56,78,16
5,54,85,0
5,56,70,16
5,54,91,16
5,56,68,0
5,54,76,0
5,56,63,0
5,54,85,0
5,56,53,0
5,54,72,0
5,56,52,0
5,54,66,0
5,56,54,0
5,54,63,0
5,56,52,0
5,54,58,32
5,57,66,0
5,60,68,0
5,64,60,0
5,56,57,16
5,59,72,0
5,62,76,0
5,54,58,16
5,57,66,0
5,60,68,0
5,64,60,0
5,56,57,16
5,59,72,0
5,62,76,0
5,54,58,16
5,57,66,0
5,60,68,0
5,64,60,0
5,56,57,16
5,59,72,0
5,62,76,0
5,54,58,16
5,57,66,0
5,60,68,0
5,64,60,0
5,56,57,16
5,59,72,0
5,62,76,0
5,54,58,16
5,57,66,0
5,60,68,0
5,64,60,0
5,56,57,16
5,59,72,0
5,62,76,0
5,54,58,16
5,57,66,0
5,60,68,0
5,64,60,0
5,56,57,16
5,59,72,0
5,62,76,0
5,54,58,16
5,57,66,0
5,60,68,0
5,64,60,0
5,56,57,16
5,59,72,0
5,62,76,0
5,54,58,16
5,57,66,0
5,60,68,0
5,64,60,0
5,56,57,16
5,59,72,0
5,62,76,0
5,53,87,16
5,57,87,0
5,62,95,0
5,60,95,0
5,65,87,768
5,64,87,112
5,63,85,160
5,57,89,0
5,60,85,0
5,54,89,368
5,64,85,16
5,52,87,0
5,56,91,0
5,59,82,0
5,52,122,784
5,64,116,16
5,51,113,0
5,63,105,16
5,49,127,0
5,61,116,0
5,48,113,0
5,60,100,16
5,47,127,0
5,59,110,0
5,46,105,0
5,58,102,16
5,54,58,16
5,57,66,0
5,60,68,0
5,64,60,0
5,56,57,16
5,59,72,0
5,62,76,0
5,54,58,16
5,57,66,0
5,60,68,0
5,64,60,0
5,56,57,16
5,59,72,0
5,62,76,0
5,54,58,16
5,57,66,0
5,60,68,0
5,64,60,0
5,56,57,16
5,59,72,0
5,62,76,0
5,45,78,16
5,54,85,0
5,57,85,0
5,60,80,0
5,64,70,0
5,38,85,0
5,62,82,16
5,60,102,48
5,64,87,0
5,67,93,0
5,57,89,752
5,62,82,368
5,57,80,0
5,60,85,0
5,54,82,16
5,62,61,352
5,53,68,0
5,57,64,0
5,60,70,0
5,64,85,352
5,57,82,0
5,60,80,0
5,54,58,4592
5,57,66,0
5,60,68,0
5,64,60,0
5,56,57,16
5,59,72,0
5,62,76,0
5,54,58,16
5,57,66,0
5,60,68,0
5,64,60,0
5,56,57,16
5,59,72,0
5,62,76,0
5,54,58,16
5,57,66,0
5,60,68,0
5,64,60,0
5,56,57,16
5,59,72,0
5,62,76,0
5,54,58,16
5,57,66,0
5,60,68,0
5,64,60,0
5,56,57,16
5,59,65,0
5,62,76,0
5,53,87,16
5,57,87,0
5,62,95,0
5,60,95,0
5,65,87,768
5,64,87,112
5,63,85,160
5,57,89,0
5,60,85,0
5,54,89,352
5,64,85,0
5,52,87,0
5,56,91,0
5,59,82,0
5,52,122,784
5,64,116,16
5,51,113,0
5,63,105,16
5,49,127,0
5,61,116,0
5,48,113,0
5,60,100,16
5,47,127,0
5,59,110,0
5,46,105,0
5,58,102,16
5,54,58,16
5,57,66,0
5,60,68,0
5,64,60,0
5,56,57,16
5,59,72,0
5,62,76,0
5,54,58,16
5,57,66,0
5,60,68,0
5,64,60,0
5,56,57,16
5,59,72,0
5,62,76,0
5,54,58,16
5,57,66,0
5,60,68,0
5,64,60,0
5,56,57,16
5,59,72,0
5,62,76,0
5,45,78,16
5,54,85,0
5,57,85,0
5,60,80,0
5,64,70,0
5,38,85,0
5,62,82,16
5,60,102,48
5,64,87,0
5,67,93,0
5,57,89,752
5,62,82,368
5,57,80,0
5,60,85,0
5,54,82,16
5,62,61,48
5,53,68,0
5,57,64,0
5,60,70,0
5,57,110,368
5,55,110,0
5,57,105,16
5,58,113,0
5,56,98,752
5,57,91,80
5,57,63,208
5,60,78,192
5,64,66,16
5,66,64,224
6,54,63,6792
6,66,53,0
6,56,62,0
6,68,63,0
6,54,58,352
6,66,60,0
6,56,57,0
6,68,64,0
6,66,61,384
6,54,58,0
6,68,59,0
6,56,62,0
6,66,61,384
6,54,61,16
6,56,55,0
6,68,57,0
6,54,57,384
6,66,63,0
6,56,60,0
6,68,60,0
6,54,57,384
6,66,58,16
6,68,61,0
6,56,64,0
6,54,63,416
6,66,64,0
6,68,64,0
6,56,57,0
6,54,60,8080
6,66,68,0
6,68,66,0
6,56,54,0
6,54,64,0
6,66,57,0
6,68,63,0
6,56,60,0
6,54,62,0
6,66,68,0
6,56,58,0
6,68,58,0
6,66,55,6528
6,54,49,16
6,56,57,0
6,68,58,0
6,54,57,336
6,66,68,0
6,68,61,0
6,56,59,0
6,66,64,368
6,54,52,0
6,68,62,0
6,56,53,0
6,54,63,384
6,66,66,0
6,56,62,0
6,68,64,0
6,66,62,400
6,54,59,0
6,56,63,0
6,68,62,0
6,54,63,400
6,66,64,0
6,56,62,0
6,68,63,0
6,66,70,8064
6,54,68,0
6,56,64,768
6,68,64,0
6,54,66,0
6,66,64,0
6,56,66,0
6,68,66,0
6,66,68,288
6,54,66,16
6,56,58,0
6,68,57,0
7,54,60,6372
7,57,60,0
7,60,72,0
7,54,56,112
7,57,66,0
7,60,66,0
7,54,57,112
7,57,68,0
7,60,68,0
7,54,53,144
7,57,59,0
7,60,64,0
7,54,66,176
7,57,68,0
7,60,68,0
7,54,62,192
7,57,68,0
7,60,66,0
7,54,63,176
7,57,63,0
7,60,70,0
7,54,66,288
7,57,68,0
7,60,70,0
7,38,116,320
7,53,110,0
7,60,127,16
7,39,105,16
7,55,107,0
7,56,122,0
7,40,110,0
7,41,105,0
7,57,113,0
7,62,127,0
7,58,116,0
7,43,105,0
7,44,100,0
7,59,122,0
7,65,127,0
7,45,119,0
7,60,107,0
7,63,107,0
7,44,110,0
7,59,119,0
7,64,127,0
7,59,122,32
7,71,119,16
7,64,110,16
7,76,105,0
7,63,110,0
7,75,107,0
7,62,102,0
7,74,102,0
7,59,110,0
7,71,105,0
7,66,116,0
7,78,110,0
7,77,105,16
7,65,100,0
7,76,105,0
7,64,119,0
7,54,60,48
7,57,60,0
7,60,72,0
7,54,56,112
7,57,66,0
7,60,66,0
7,54,57,112
7,57,68,0
7,60,68,0
7,60,107,144
7,62,107,0
7,64,105,0
7,66,102,176
7,68,91,16
7,69,100,16
7,50,119,368
7,48,113,0
7,47,110,0
7,45,107,16
7,66,119,16
7,38,116,0
7,65,105,0
7,43,119,16
7,45,113,0
7,67,107,368
7,66,116,192
7,67,113,0
7,69,107,16
7,66,113,0
7,64,100,0
7,50,110,384
7,48,102,176
7,50,110,0
7,52,110,0
7,48,110,0
7,45,100,0
7,54,66,1552
7,57,68,0
7,60,68,0
7,54,62,192
7,57,68,0
7,60,66,0
7,54,63,176
7,57,63,0
7,60,70,0
7,54,66,288
7,57,68,0
7,60,70,0
7,38,116,320
7,53,110,0
7,60,127,16
7,39,105,16
7,55,107,0
7,56,122,0
7,40,110,0
7,41,105,0
7,57,113,0
7,62,127,0
7,58,116,0
7,43,105,0
7,44,100,0
7,59,122,0
7,65,127,0
7,45,119,0
7,60,107,0
7,63,107,0
7,44,110,16
7,59,119,0
7,64,127,0
7,59,122,16
7,71,119,16
7,64,110,0
7,76,105,0
7,63,110,0
7,75,107,0
7,62,102,0
7,74,102,0
7,59,110,0
7,71,105,0
7,66,116,0
7,78,110,0
7,77,105,16
7,65,100,0
7,76,105,0
7,64,119,0
7,54,60,16
7,57,60,0
7,60,72,0
7,54,56,112
7,57,66,0
7,60,66,0
7,54,57,112
7,57,68,0
7,60,68,0
7,60,107,144
7,62,107,0
7,64,105,0
7,66,102,176
7,68,91,0
7,69,100,16
7,50,119,368
7,48,113,0
7,47,110,0
7,45,107,16
7,66,119,16
7,38,116,0
7,65,105,0
7,43,119,16
7,45,116,0
7,86,102,368
7,84,95,0
7,86,102,192
7,88,78,0
7,84,87,192
7,81,87,0
7,50,105,16
7,43,107,0
7,48,100,0
7,41,107,0
7,46,107,0
7,40,113,0
7,45,107,0
7,66,107,3104
8,51,70,9404
8,37,70,372
8,51,62,0
8,44,66,372
8,51,70,0
8,37,66,372
8,51,57,0
8,44,82,372
8,51,80,0
8,37,68,372
8,51,74,0
8,44,78,372
8,51,82,0
8,37,68,372
8,51,78,0
8,44,72,372
8,51,85,0
8,37,66,372
8,51,80,0
8,44,76,372
8,51,80,0
8,37,66,372
8,51,66,0
8,51,70,372
8,37,70,372
8,51,62,0
8,44,66,372
8,51,70,0
8,37,66,372
8,51,57,0
8,44,82,372
8,51,80,0
8,37,68,372
8,51,74,0
8,44,78,372
8,51,82,0
8,37,68,372
8,51,78,0
8,44,72,372
8,51,85,0
8,37,66,372
8,51,80,0
8,44,76,372
8,51,80,0
8,37,66,372
8,51,66,0
8,51,70,372
8,37,70,372
8,51,62,0
8,44,66,372
8,51,70,0
8,37,66,372
8,51,57,0
8,44,82,372
8,51,80,0
8,37,68,372
8,51,74,0
8,44,78,372
8,51,82,0
8,37,68,372
8,51,78,0
8,44,72,372
8,51,85,0
8,37,66,372
8,51,80,0
8,44,76,372
8,51,80,0
8,37,66,372
8,51,66,0
8,51,70,372
8,37,70,372
8,51,62,0
8,44,66,372
8,51,70,0
8,37,66,372
8,51,57,0
8,44,82,372
8,51,80,0
8,37,68,372
8,51,74,0
8,44,78,372
8,51,82,0
8,37,68,372
8,51,78,0
8,44,72,372
8,51,85,0
8,37,66,372
8,51,80,0
8,44,76,372
8,51,80,0
8,37,66,372
8,51,66,0
8,51,70,372
8,37,70,372
8,51,62,0
8,44,66,372
8,51,70,0
8,37,66,372
8,51,57,0
8,44,82,372
8,51,80,0
8,37,68,372
8,51,74,0
8,44,78,372
8,51,82,0
8,37,68,372
8,51,78,0
8,44,72,372
8,51,85,0
8,37,66,372
8,51,80,0
8,44,76,372
8,51,80,0
8,37,66,372
8,51,66,0
8,51,70,372
8,37,70,372
8,51,62,0
8,44,66,372
8,51,70,0
8,37,66,372
8,51,57,0
