track,note,velocity,time
1,32,64,27232
1,52,80,0
1,44,64,0
1,56,80,96
1,58,80,0
1,56,80,0
1,59,80,0
1,37,64,0
1,53,80,0
1,59,80,192
1,32,64,0
1,54,80,0
1,44,64,0
1,56,80,95
1,58,80,0
1,56,80,0
1,59,80,0
1,37,64,0
1,53,80,0
1,61,80,0
1,59,80,0
1,58,80,0
1,44,64,0
1,32,64,0
1,52,80,0
1,56,80,95
1,58,80,0
1,56,80,0
1,59,80,0
1,44,64,0
1,39,64,0
1,54,80,0
1,59,80,191
1,59,80,0
1,44,64,0
1,37,64,0
1,53,80,0
1,42,95,288
1,90,105,0
1,85,105,0
1,82,105,0
1,78,105,0
1,70,105,0
1,66,105,0
1,61,105,0
1,58,105,0
1,42,95,288
1,88,105,0
1,85,105,0
1,83,105,0
1,80,105,0
1,76,105,0
1,64,105,0
1,61,105,0
1,59,105,0
1,56,105,0
1,85,105,192
1,82,105,0
1,78,105,0
1,73,105,0
1,70,105,0
1,66,105,0
1,61,105,0
1,83,95,0
1,78,95,0
1,73,95,0
1,71,95,0
1,66,95,0
1,61,95,0
1,59,95,0
1,82,95,0
1,78,95,0
1,73,95,0
1,70,95,0
1,66,95,0
1,61,95,0
1,58,95,0
1,69,105,0
1,73,105,0
1,78,105,0
1,81,105,0
1,57,105,0
1,63,105,0
1,66,105,0
1,83,95,0
1,78,95,0
1,75,95,0
1,71,95,0
1,66,95,0
1,63,95,0
1,59,95,0
1,84,95,0
1,78,95,0
1,75,95,0
1,72,95,0
1,66,95,0
1,63,95,0
1,60,95,0
1,73,105,0
1,78,105,0
1,82,105,0
1,85,105,0
1,61,105,0
1,66,105,0
1,70,105,0
1,82,95,0
1,78,95,0
1,73,95,0
1,70,95,0
1,66,95,0
1,61,95,0
1,58,95,0
1,78,95,191
1,73,95,0
1,70,95,0
1,66,95,0
1,61,95,0
1,58,95,0
1,54,95,0
1,52,105,0
1,53,105,0
1,59,105,0
1,64,105,0
1,65,105,0
1,71,105,0
1,76,105,0
1,50,95,0
1,74,95,0
1,62,95,0
1,49,95,0
1,73,95,0
1,61,95,0
1,54,55,0
1,74,55,0
1,78,55,96
1,80,55,0
1,66,55,0
1,78,55,0
1,81,55,0
1,59,55,0
1,75,55,0
1,81,55,0
1,66,55,0
1,54,55,0
1,76,55,0
1,78,55,96
1,80,55,0
1,66,55,0
1,78,55,0
1,81,55,0
1,59,55,0
1,75,55,0
1,83,55,0
1,81,55,0
1,66,55,0
1,80,55,0
1,54,55,0
1,74,55,0
1,78,55,96
1,80,55,0
1,66,55,0
1,78,55,0
1,81,55,0
1,61,55,0
1,76,55,0
1,81,55,0
1,66,55,0
1,66,55,0
1,75,55,0
1,59,55,0
1,81,55,0
1,73,55,0
1,57,55,0
1,71,55,0
1,56,55,0
1,69,55,0
1,54,55,0
1,67,55,0
1,47,55,0
1,71,55,96
1,59,55,0
1,73,55,0
1,71,55,0
1,68,55,0
1,52,55,0
1,74,55,0
1,59,55,0
1,74,55,0
1,69,55,0
1,47,55,0
1,71,55,96
1,59,55,0
1,73,55,0
1,71,55,0
1,68,55,0
1,52,55,0
1,74,55,0
1,76,55,0
1,59,55,0
1,74,55,0
1,73,55,0
1,67,55,0
1,47,55,0
1,71,55,88
1,73,55,0
1,59,55,0
1,71,55,0
1,74,55,0
1,69,55,0
1,54,55,0
1,59,55,0
1,74,55,0
1,52,55,0
1,74,55,0
1,59,55,0
1,68,55,0
1,66,55,0
1,50,55,0
1,64,55,0
1,49,55,0
1,62,55,0
1,47,55,0
1,60,55,0
1,55,65,0
1,48,65,0
1,40,65,0
1,64,55,88
1,66,55,0
1,64,55,0
1,67,55,0
1,67,55,192
1,69,55,95
1,70,55,0
1,69,55,0
1,67,55,0
1,67,55,192
1,60,55,0
1,61,55,95
1,62,65,0
1,56,65,0
1,47,65,0
1,40,65,0
1,64,55,87
1,66,55,0
1,64,55,0
1,68,55,0
1,68,55,192
1,69,55,95
1,71,55,0
1,69,55,0
1,68,55,0
1,68,55,8
1,40,45,0
1,28,45,0
1,59,55,183
1,56,55,0
1,54,45,0
1,52,45,0
1,62,55,0
1,59,55,0
1,57,45,0
1,56,45,0
1,64,55,0
1,62,55,0
1,61,45,0
1,59,45,0
1,68,55,0
1,65,55,0
1,64,45,0
1,63,45,0
1,62,45,0
1,71,55,96
1,76,55,0
1,40,45,0
1,28,45,0
1,60,55,191
1,57,55,0
1,55,45,0
1,52,45,0
1,64,55,0
1,60,55,0
1,58,45,0
1,57,45,0
1,65,55,0
1,63,55,0
1,62,45,0
1,60,45,0
1,69,55,0
1,66,55,0
1,65,45,0
1,64,45,0
1,63,45,0
1,72,55,96
1,77,55,0
1,40,45,0
1,28,45,0
1,62,55,191
1,59,55,0
1,57,45,0
1,56,45,0
1,65,55,0
1,62,55,0
1,60,45,0
1,59,45,0
1,68,55,0
1,65,55,0
1,64,45,0
1,62,45,0
1,71,55,0
1,68,55,0
1,67,45,0
1,66,45,0
1,65,45,0
1,74,55,96
1,79,55,0
1,40,45,0
1,28,45,0
1,76,80,191
1,71,80,0
1,68,80,0
1,62,80,0
1,76,80,32
1,71,80,0
1,68,80,0
1,62,80,0
1,76,80,32
1,71,80,0
1,68,80,0
1,62,80,0
1,76,80,32
1,71,80,0
1,68,80,0
1,62,80,0
1,76,80,32
1,71,80,0
1,68,80,0
1,62,80,0
1,76,80,32
1,71,80,0
1,68,80,0
1,62,80,0
1,76,80,32
1,71,80,0
1,68,80,0
1,62,80,0
1,76,80,32
1,71,80,0
1,68,80,0
1,62,80,0
1,76,80,32
1,71,80,0
1,68,80,0
1,62,80,0
1,76,80,32
1,71,80,0
1,68,80,0
1,62,80,0
1,77,90,0
1,70,90,0
1,67,90,0
1,61,90,0
1,60,90,0
1,66,90,0
1,69,90,0
1,74,90,0
1,76,80,0
1,68,80,0
1,65,80,0
1,59,80,0
1,72,90,0
1,67,90,0
1,64,90,0
1,58,90,0
1,40,64,0
1,28,64,0
1,71,80,0
1,66,80,0
1,63,80,0
1,57,80,0
1,71,80,32
1,66,80,0
1,63,80,0
1,57,80,0
1,71,80,32
1,66,80,0
1,63,80,0
1,57,80,0
1,71,80,32
1,66,80,0
1,63,80,0
1,57,80,0
1,71,80,32
1,66,80,0
1,63,80,0
1,57,80,0
1,71,80,32
1,66,80,0
1,63,80,0
1,57,80,0
1,71,80,32
1,66,80,0
1,63,80,0
1,57,80,0
1,71,80,32
1,66,80,0
1,63,80,0
1,57,80,0
1,71,80,32
1,66,80,0
1,63,80,0
1,57,80,0
1,71,80,32
1,66,80,0
1,63,80,0
1,57,80,0
1,72,80,0
1,65,80,0
1,62,80,0
1,56,80,0
1,64,80,0
1,69,80,0
1,55,64,0
1,61,64,0
1,71,80,0
1,63,80,0
1,60,64,0
1,54,64,0
1,67,80,48
1,62,80,0
1,59,74,0
1,53,74,0
1,40,64,0
1,28,64,0
1,57,64,0
1,51,64,0
1,65,80,0
1,60,80,0
1,57,64,64
1,51,64,0
1,65,80,0
1,60,80,0
1,57,64,0
1,51,64,0
1,65,80,0
1,60,80,0
1,57,64,63
1,51,64,0
1,65,80,0
1,60,80,0
1,57,64,63
1,51,64,0
1,65,80,0
1,60,80,0
1,65,80,63
1,60,80,0
1,57,64,0
1,51,64,0
1,65,80,63
1,60,80,0
1,57,64,0
1,51,64,0
1,65,80,63
1,60,80,0
1,57,64,0
1,51,64,0
1,65,80,63
1,60,80,0
1,57,64,0
1,51,64,0
1,65,80,63
1,60,80,0
1,57,64,0
1,51,64,0
1,67,90,95
1,59,90,0
1,56,74,0
1,50,74,0
1,58,80,0
1,64,80,0
1,49,64,0
1,55,64,0
1,65,80,0
1,57,80,0
1,54,64,0
1,48,64,0
1,62,90,48
1,56,90,0
1,53,74,0
1,47,74,0
1,62,105,0
1,57,105,0
1,54,105,0
1,48,105,0
1,53,105,0
1,47,105,0
1,63,105,0
1,56,105,0
1,52,105,0
1,46,105,0
1,60,105,0
1,55,105,0
1,51,105,0
1,45,105,0
1,61,105,0
1,54,105,0
1,58,105,0
1,53,105,0
1,50,105,0
1,44,105,0
1,43,105,0
1,49,105,0
1,52,105,0
1,59,105,0
1,56,105,0
1,51,105,0
1,48,105,0
1,42,105,0
1,57,105,0
1,50,105,0
1,47,105,0
1,41,105,0
1,56,105,0
1,50,105,0
1,47,105,0
1,40,105,0
1,54,45,0
1,48,45,0
1,62,45,0
1,57,45,0
1,53,55,0
1,47,55,0
1,63,55,0
1,56,55,0
1,60,55,0
1,55,55,0
1,52,55,0
1,46,55,0
1,61,55,0
1,54,55,0
1,51,55,0
1,45,55,0
1,58,55,0
1,53,55,0
1,50,55,0
1,44,55,0
1,43,55,0
1,49,55,0
1,52,55,0
1,59,55,0
1,56,55,0
1,51,55,0
1,48,55,0
1,42,55,0
1,57,55,0
1,50,55,0
1,47,55,0
1,41,55,0
1,47,55,0
1,40,55,0
1,56,45,0
1,50,45,0
1,52,45,0
1,54,45,8
1,56,45,0
1,57,45,0
1,59,45,0
1,61,45,0
1,62,45,8
1,64,45,0
1,66,45,0
1,68,45,0
1,69,45,0
1,71,45,0
1,73,45,8
1,74,45,0
1,76,45,0
1,78,45,0
1,80,45,0
1,81,64,0
1,73,64,0
1,64,64,0
1,45,64,0
1,76,64,0
1,75,64,0
1,66,64,0
1,52,64,0
1,79,64,0
1,81,64,0
1,79,64,0
1,74,64,0
1,67,64,0
1,64,64,0
1,77,64,0
1,79,64,0
1,77,64,0
1,68,64,0
1,64,64,0
1,79,64,0
1,77,64,0
1,76,64,0
1,73,64,0
1,69,64,0
1,61,64,0
1,74,64,0
1,71,64,0
1,68,64,0
1,62,64,0
1,73,64,0
1,70,64,0
1,67,64,0
1,63,64,0
1,66,64,0
1,69,64,0
1,72,64,0
1,64,64,0
1,74,64,0
1,69,64,0
1,66,64,0
1,62,64,0
1,60,64,0
1,75,64,0
1,69,64,0
1,66,64,0
1,64,64,0
1,69,64,0
1,76,64,0
1,61,64,0
1,73,64,0
1,69,64,0
1,64,64,0
1,45,64,0
1,69,64,0
1,64,64,0
1,61,64,0
1,47,64,0
1,57,64,0
1,63,64,0
1,67,64,0
1,48,64,0
1,65,64,0
1,59,64,0
1,55,64,0
1,49,64,0
1,64,64,0
1,59,64,0
1,56,64,0
1,50,64,0
1,64,64,0
1,52,64,0
1,49,64,0
1,57,64,96
1,64,64,0
1,65,64,0
1,66,64,0
1,61,64,0
1,55,64,0
1,69,64,96
1,76,64,0
1,77,64,0
1,78,64,0
1,73,64,0
1,67,64,0
1,81,64,96
1,88,64,0
1,89,64,0
1,90,64,0
1,85,64,0
1,79,64,0
1,93,64,96
1,100,64,0
1,101,64,0
1,102,64,0
1,97,64,0
1,91,64,0
1,81,64,96
1,88,64,0
1,89,64,0
1,90,64,0
1,85,64,0
1,79,64,0
1,69,64,96
1,76,64,0
1,77,64,0
1,78,64,0
1,74,64,0
1,68,64,0
1,64,64,96
1,71,64,0
1,72,64,0
1,73,64,0
1,68,64,0
1,62,64,0
1,74,64,96
1,76,64,0
1,78,64,0
1,80,64,0
1,81,64,0
1,64,64,0
1,45,64,0
1,73,64,48
1,76,64,0
1,75,64,0
1,66,64,0
1,52,64,0
1,79,64,0
1,81,64,0
1,74,64,0
1,79,64,0
1,67,64,0
1,64,64,0
1,77,64,0
1,79,64,0
1,77,64,0
1,68,64,0
1,64,64,0
1,79,64,0
1,77,64,0
1,76,64,0
1,73,64,0
1,69,64,0
1,61,64,0
1,62,64,0
1,74,64,0
1,71,64,0
1,68,64,0
1,63,64,0
1,73,64,0
1,70,64,0
1,67,64,0
1,64,64,0
1,66,64,0
1,69,64,0
1,72,64,0
1,74,64,0
1,69,64,0
1,66,64,0
1,62,64,0
1,75,64,0
1,69,64,0
1,66,64,0
1,60,64,0
1,64,64,0
1,69,64,0
1,76,64,0
1,61,64,0
1,73,64,0
1,69,64,0
1,64,64,0
1,45,64,0
1,69,64,0
1,64,64,0
1,61,64,0
1,47,64,0
1,57,64,0
1,63,64,0
1,67,64,0
1,48,64,0
1,65,64,0
1,59,64,0
1,55,64,0
1,49,64,0
1,64,64,0
1,59,64,0
1,56,64,0
1,50,64,0
1,64,64,0
1,52,64,0
1,49,64,0
1,57,64,96
1,64,64,0
1,65,64,0
1,66,64,0
1,61,64,0
1,55,64,0
1,69,64,96
1,76,64,0
1,77,64,0
1,78,64,0
1,73,64,0
1,67,64,0
1,81,64,96
1,88,64,0
1,89,64,0
1,90,64,0
1,85,64,0
1,79,64,0
1,93,64,96
1,100,64,0
1,101,64,0
1,102,64,0
1,97,64,0
1,91,64,0
1,81,64,96
1,88,64,0
1,89,64,0
1,90,64,0
1,85,64,0
1,79,64,0
1,69,64,96
1,76,64,0
1,77,64,0
1,78,64,0
1,73,64,0
1,67,64,0
1,57,64,96
1,64,64,0
1,65,64,0
1,66,64,0
1,61,64,0
1,55,64,0
1,45,64,96
1,52,64,0
1,55,64,0
1,41,45,0
1,48,45,0
1,57,45,192
1,60,45,192
1,62,45,0
1,64,45,0
1,51,45,0
1,65,45,0
1,50,45,0
1,49,45,0
1,48,45,0
1,41,45,0
1,57,45,183
1,60,45,192
1,62,45,0
1,65,45,0
1,51,45,0
1,69,45,0
1,50,45,0
1,49,45,0
1,41,45,0
1,48,45,0
1,57,45,183
1,60,45,0
1,62,45,0
1,65,45,0
1,67,45,0
1,69,45,0
1,41,45,0
1,56,45,0
1,62,45,0
1,65,45,0
1,72,45,0
1,41,45,0
1,44,45,191
1,46,45,2
1,48,45,0
1,50,45,6
1,51,45,0
1,53,45,2
1,72,90,0
1,67,90,0
1,63,90,0
1,60,90,0
1,55,90,0
1,43,80,382
1,36,80,0
1,54,80,2
1,70,90,0
1,63,80,0
1,59,80,0
1,53,90,0
1,68,80,6
1,70,80,0
1,68,90,0
1,43,80,0
1,62,80,0
1,59,80,0
1,70,80,2
1,68,80,0
1,76,45,104
1,77,45,8
1,78,45,8
1,62,45,0
1,58,45,0
1,52,45,0
1,79,45,0
1,53,45,6
1,77,45,0
1,54,45,0
1,76,45,0
1,58,45,2
1,61,45,0
1,55,45,0
1,75,45,0
1,53,45,0
1,77,45,0
1,52,45,0
1,78,45,0
1,79,45,98
1,60,45,6
1,55,45,0
1,51,45,0
1,75,45,0
1,72,45,0
1,70,45,0
1,43,45,144
1,50,45,16
1,65,45,38
1,59,45,0
1,68,45,0
1,67,45,2
1,67,45,192
1,52,45,0
1,36,55,0
1,55,45,0
1,48,45,0
1,57,45,0
1,55,45,0
1,43,45,0
1,58,45,0
1,36,45,96
1,58,45,0
1,35,55,0
1,51,45,0
1,57,45,0
1,47,45,0
1,59,45,0
1,57,45,0
1,42,45,0
1,61,45,0
1,63,45,0
1,35,45,0
1,59,45,0
1,57,45,0
1,39,65,0
1,55,55,0
1,58,55,0
1,51,55,0
1,60,55,0
1,58,55,0
1,61,55,0
1,46,55,0
1,61,55,96
1,39,55,0
1,54,55,0
1,38,65,0
1,60,55,0
1,62,55,0
1,50,55,0
1,60,55,0
1,64,55,0
1,45,55,0
1,66,55,0
1,62,55,0
1,38,55,0
1,60,55,0
1,44,74,0
1,37,74,0
1,53,64,0
1,67,64,0
1,63,64,0
1,59,64,0
1,73,74,0
1,53,64,0
1,67,64,0
1,63,64,0
1,59,64,0
1,61,74,0
1,53,64,0
1,67,64,0
1,63,64,0
1,59,64,0
1,49,74,0
1,53,64,0
1,67,64,0
1,63,64,0
1,59,64,0
1,61,74,0
1,53,64,0
1,67,64,0
1,63,64,0
1,59,64,0
1,73,74,0
1,42,64,0
1,58,64,0
1,61,55,0
1,54,64,0
1,63,55,0
1,61,55,0
1,49,64,0
1,64,55,0
1,64,55,96
1,42,64,0
1,41,64,0
1,57,64,0
1,63,55,0
1,65,55,0
1,53,64,0
1,63,55,0
1,67,55,0
1,48,64,0
1,69,55,0
1,65,55,0
1,41,64,0
1,63,55,0
1,61,64,0
