track,note,velocity,time
1,36,98,4192
1,35,91,0
1,35,82,20
1,34,61,24
1,33,78,8
1,32,77,768
1,31,84,48
1,36,80,760
1,30,80,24
1,29,78,32
1,29,76,224
1,33,86,20
1,33,63,216
1,34,74,136
1,34,53,184
1,36,76,136
1,36,55,232
1,35,66,140
1,35,57,212
1,34,59,20
1,34,60,216
1,33,74,16
1,32,71,40
1,31,77,68
1,30,74,60
1,29,74,32
1,29,61,200
1,33,75,136
1,33,62,184
1,34,73,136
1,34,75,232
1,36,81,132
1,33,61,624
1,32,70,248
1,32,67,276
1,31,85,60
1,30,80,196
1,29,91,48
1,36,82,132
1,35,75,0
1,29,83,80
1,29,65,52
1,38,72,60
1,38,66,204
1,31,55,24
1,31,68,192
1,36,78,20
1,36,77,224
1,35,81,20
1,35,63,212
1,40,77,16
1,40,73,140
1,33,83,0
1,33,61,200
1,40,72,16
1,33,72,28
1,38,77,48
1,37,80,8
1,36,74,32
1,35,74,24
1,36,88,204
1,38,86,260
1,39,81,296
1,38,83,304
1,36,73,316
1,36,89,316
1,36,75,156
1,36,56,136
1,41,74,8
1,36,64,32
1,41,55,12
1,41,42,184
1,36,67,128
1,36,72,84
1,36,45,176
1,41,84,20
1,39,80,44
1,38,85,12
1,43,66,20
1,31,80,24
1,38,85,776
1,43,72,132
1,46,67,56
1,41,71,76
1,38,75,104
1,37,85,116
1,36,81,40
1,29,90,44
1,29,76,240
1,38,89,4
1,38,78,240
1,31,73,8
1,31,61,244
1,36,88,4
1,36,66,236
1,39,72,136
1,39,69,216
1,38,78,136
1,38,71,232
1,31,75,20
1,31,60,188
1,36,77,36
1,34,65,92
1,33,75,24
1,31,61,76
1,29,88,40
1,29,70,204
1,30,82,132
1,30,66,216
1,31,75,132
1,31,63,228
1,36,86,20
1,36,66,300
1,41,88,24
1,36,73,32
1,38,95,32
1,41,89,220
1,43,93,248
1,37,92,248
1,40,95,1536
1,42,96,168
1,41,102,60
1,35,104,8
1,34,102,40
1,34,79,236
1,36,79,36
1,36,69,132
1,38,91,136
1,38,76,224
1,39,89,20
1,39,70,252
1,40,78,24
1,40,77,204
1,39,93,132
1,39,76,216
1,38,84,132
1,38,80,180
1,36,80,12
1,41,80,380
1,34,84,32
1,34,73,216
1,36,89,20
1,36,66,156
1,38,85,136
1,38,81,212
1,39,88,136
1,39,77,220
1,42,76,136
1,42,55,204
1,41,73,4
1,41,58,216
1,40,81,136
1,40,76,252
1,39,94,132
1,39,104,196
1,38,95,32
1,38,97,228
1,37,96,236
1,36,98,52
1,36,96,220
1,36,82,232
1,39,112,20
1,38,93,56
1,38,92,256
1,37,101,296
1,36,96,64
1,36,91,248
1,36,90,272
1,39,84,16
1,38,96,48
1,38,92,240
1,37,96,280
1,36,97,56
1,36,98,256
1,36,83,268
1,35,100,20
1,34,110,68
1,34,72,112
1,38,106,64
1,38,86,168
1,39,123,24
1,39,115,176
1,40,121,20
1,40,101,184
1,41,115,20
1,48,93,588
1,47,104,56
1,46,108,24
1,46,82,744
1,34,97,396
2,47,80,4168
2,48,64,8
2,47,72,48
2,46,81,4
2,45,76,16
2,44,73,764
2,43,67,16
2,48,68,768
2,42,71,16
2,41,72,64
2,45,76,40
2,46,83,4
2,48,78,28
2,47,75,24
2,46,80,8
2,45,75,24
2,44,73,12
2,43,70,12
2,42,78,12
2,41,82,28
2,45,74,52
2,46,84,304
2,48,81,4
2,58,64,0
2,45,89,560
2,44,75,384
2,44,90,136
2,43,69,40
2,42,91,512
2,41,77,48
2,47,76,388
2,48,75,36
2,41,87,180
2,50,87,776
2,43,63,48
2,58,68,12
2,48,71,4
2,47,66,12
2,57,57,4
2,52,64,28
2,56,68,0
2,55,74,28
2,45,64,4
2,54,68,4
2,50,85,140
2,49,84,24
2,48,79,52
2,47,67,16
2,48,83,72
2,50,87,268
2,51,81,296
2,50,86,308
2,48,93,288
2,48,80,340
2,58,74,0
2,58,67,4
2,48,78,4
2,53,62,28
2,57,57,4
2,58,57,344
2,48,66,0
2,57,57,8
2,53,60,4
2,51,68,452
2,61,74,0
2,60,73,24
2,50,78,0
2,59,69,328
2,55,80,0
2,50,76,16
2,60,76,0
2,59,68,8
2,55,79,224
2,58,68,368
2,53,68,8
2,50,79,384
2,53,48,28
2,49,75,0
2,52,58,48
2,48,62,4
2,41,80,356
2,50,81,756
2,43,67,48
2,48,75,316
2,58,68,4
2,51,66,4
2,55,68,0
2,54,68,60
2,50,68,0
2,53,61,32
2,43,59,4
2,52,47,4
2,48,59,4
2,41,80,20
2,42,78,776
2,43,67,32
2,48,72,452
2,58,66,4
2,57,53,56
2,53,67,0
2,48,71,4
2,50,79,124
2,53,78,232
2,55,79,8
2,59,77,388
2,49,79,0
2,56,72,356
2,52,61,0
2,58,69,28
2,54,85,0
2,53,75,72
2,57,68,4
2,57,73,48
2,47,75,4
2,46,88,84
2,55,81,188
2,48,84,4
2,50,87,16
2,57,73,4
2,51,76,8
2,58,71,4
2,58,69,0
2,52,70,0
2,51,80,28
2,58,64,0
2,50,80,320
2,58,60,4
2,48,75,40
2,58,64,4
2,46,77,24
2,57,63,4
2,55,71,32
2,48,78,0
2,50,82,32
2,57,60,4
2,58,64,20
2,51,71,0
2,60,79,60
2,54,85,4
2,53,67,36
2,59,63,0
2,58,74,28
2,52,53,0
2,51,77,64
2,57,61,0
2,60,76,104
2,50,82,4
2,60,83,308
2,50,83,4
2,49,82,308
2,59,71,0
2,48,75,244
2,58,73,0
2,48,76,172
2,58,72,0
2,48,77,200
2,58,82,0
2,57,69,40
2,51,72,4
2,60,83,176
2,50,83,4
2,50,85,264
2,60,84,0
2,59,74,288
2,49,80,0
2,48,80,144
2,58,72,0
2,48,83,188
2,58,76,0
2,58,70,192
2,48,69,4
2,57,74,44
2,51,74,0
2,50,78,232
2,60,72,4
2,50,80,288
2,60,78,0
2,59,72,296
2,49,83,0
2,58,70,124
2,48,77,0
2,48,75,216
2,58,71,0
2,58,68,188
2,48,75,0
2,57,68,44
2,47,74,0
2,34,71,56
2,38,85,768
2,39,72,752
2,40,82,768
2,41,78,36
2,58,71,560
2,52,62,4
2,51,83,204
2,57,53,0
2,56,74,8
2,50,69,4
2,56,62,728
2,46,73,0
2,34,55,196
3,60,79,4400
3,62,87,12
3,65,95,116
3,67,81,40
3,69,87,136
3,62,88,8
3,67,82,24
3,65,66,32
3,67,72,128
3,61,84,4
3,69,82,4
3,67,85,180
3,60,84,4
3,65,82,380
3,64,62,28
3,65,86,4
3,59,70,0
3,67,81,4
3,62,84,212
3,58,68,4
3,69,76,88
3,58,56,4
3,61,74,4
3,60,79,348
3,62,82,8
3,62,83,200
3,60,75,0
3,65,82,4
3,67,87,12
3,69,85,176
3,62,87,4
3,69,65,112
3,67,68,4
3,65,74,32
3,64,73,40
3,62,80,4
3,67,82,4
3,69,78,24
3,62,92,148
3,69,84,4
3,69,80,116
3,67,66,132
3,65,66,20
3,67,64,128
3,61,76,4
3,69,81,12
3,60,93,112
3,58,69,748
3,57,71,0
3,60,76,244
3,62,84,136
3,65,86,200
3,62,79,4
3,60,69,4
3,67,87,380
3,69,84,132
3,62,85,16
3,69,86,132
3,67,64,4
3,65,50,4
3,64,67,48
3,62,67,4
3,67,70,0
3,69,82,16
3,65,92,116
3,60,90,384
3,59,79,128
3,59,80,164
3,58,74,8
3,58,82,356
3,57,70,24
3,57,55,376
3,60,82,0
3,62,86,136
3,65,87,228
3,57,70,8
3,62,84,0
3,67,85,128
3,69,86,216
3,58,80,4
3,62,83,4
3,69,85,120
3,67,63,132
3,65,68,20
3,62,76,40
3,64,62,0
3,67,71,4
3,69,82,0
3,62,88,212
3,72,95,4
3,65,92,4
3,72,101,116
3,71,85,4
3,69,70,24
3,71,89,4
3,62,93,4
3,72,97,8
3,64,81,12
3,60,75,4
3,69,85,172
3,65,90,8
3,64,74,16
3,67,68,0
3,65,60,32
3,62,56,0
3,64,73,28
3,67,72,0
3,69,79,4
3,65,73,0
3,69,82,108
3,65,92,8
3,69,75,124
3,65,84,0
3,64,68,40
3,67,59,0
3,62,69,16
3,65,57,0
3,62,90,60
3,65,94,0
3,67,81,0
3,69,85,0
3,67,81,200
3,58,84,4
3,62,90,0
3,66,92,272
3,69,87,4
3,60,92,4
3,70,93,296
3,67,82,4
3,61,96,0
3,60,97,292
3,66,90,0
3,69,85,4
3,58,90,308
3,67,84,4
3,62,92,4
3,64,86,288
3,68,88,4
3,72,100,0
3,72,102,132
3,72,100,132
3,67,71,192
3,63,86,0
3,72,95,4
3,69,85,48
3,65,86,372
3,63,88,4
3,67,82,4
3,69,95,180
3,70,79,80
3,71,59,44
3,67,61,0
3,63,73,4
3,72,89,0
3,74,92,8
3,63,87,28
3,72,94,4
3,69,88,4
3,70,94,212
3,67,77,4
3,66,77,756
3,69,77,24
3,65,92,304
3,74,88,0
3,71,88,12
3,67,80,20
3,69,82,0
3,65,83,4
3,67,77,20
3,69,72,56
3,70,86,120
3,65,75,4
3,74,91,12
3,58,79,16
3,62,96,0
3,65,83,384
3,63,80,24
3,59,72,4
3,67,80,0
3,62,76,36
3,58,63,4
3,57,45,324
3,60,87,4
3,62,86,132
3,57,71,192
3,65,83,4
3,62,86,4
3,67,84,12
3,65,87,52
3,69,86,4
3,69,76,132
3,65,90,4
3,64,82,8
3,67,72,4
3,65,67,48
3,62,66,4
3,67,82,64
3,64,90,4
3,69,81,12
3,61,91,296
3,70,99,4
3,69,86,376
3,67,66,40
3,60,93,20
3,69,79,0
3,70,92,384
3,69,75,80
3,59,82,4
3,64,68,12
3,63,77,80
3,58,65,64
3,62,78,4
3,67,86,40
3,72,96,224
3,69,76,8
3,64,79,4
3,72,101,184
3,69,72,0
3,63,81,4
3,72,90,4
3,70,94,52
3,74,91,4
3,65,86,4
3,74,95,116
3,74,71,96
3,62,86,48
3,64,69,0
3,69,85,4
3,69,88,140
3,65,85,48
3,62,91,4
3,60,77,44
3,62,84,60
3,65,94,92
3,67,82,64
3,63,85,112
3,68,88,4
3,67,85,36
3,65,69,64
3,67,83,12
3,68,91,12
3,62,91,40
3,70,96,4
3,68,81,380
3,67,69,36
3,68,77,128
3,70,99,24
3,64,82,40
3,73,91,4
3,68,84,4
3,75,93,20
3,63,90,76
3,67,79,4
3,72,98,0
3,61,96,28
3,62,98,92
3,65,81,248
3,67,85,8
3,70,93,200
3,63,86,4
3,72,96,380
3,74,91,36
3,65,91,4
3,72,95,380
3,70,88,24
3,72,100,4
3,67,79,4
3,74,98,12
3,67,82,108
3,74,92,4
3,72,95,376
3,70,90,24
3,66,91,120
3,72,95,4
3,74,93,8
3,65,94,20
3,63,83,740
3,62,90,24
3,65,71,244
3,67,74,132
3,70,95,164
3,63,82,0
3,72,95,0
3,74,92,4
3,65,85,12
3,72,94,372
3,70,83,12
3,67,75,132
3,72,96,0
3,74,95,16
3,70,84,176
3,75,95,4
3,74,86,0
3,72,80,44
3,69,82,108
3,74,86,4
3,75,101,0
3,67,71,152
3,74,85,4
3,66,80,748
3,72,96,28
3,65,83,264
3,72,95,0
3,77,86,4
3,72,91,284
3,65,88,0
3,77,86,4
3,71,94,284
3,65,90,4
3,77,89,4
3,75,92,176
3,70,96,0
3,79,77,4
3,79,88,204
3,70,100,4
3,75,96,0
3,79,63,176
3,75,96,0
3,74,94,68
3,67,80,4
3,72,98,380
3,72,98,124
3,77,89,4
3,65,88,4
3,72,91,256
3,65,87,4
3,77,86,4
3,65,90,260
3,77,94,4
3,71,94,0
3,75,92,60
3,79,77,4
3,70,90,4
3,75,98,240
3,70,96,4
3,79,84,4
3,79,68,216
3,75,90,4
3,67,90,80
3,74,93,4
3,72,101,380
3,72,101,124
3,65,85,4
3,77,88,4
3,65,83,232
3,77,88,4
3,72,96,0
3,65,88,264
3,77,93,4
3,71,98,0
3,79,85,52
3,70,95,4
3,75,95,0
3,75,98,236
3,79,91,4
3,70,103,4
3,75,89,148
3,79,72,0
3,69,100,72
3,66,83,4
3,74,92,0
3,74,93,112
3,70,98,4
3,65,76,36
3,67,90,8
3,65,86,196
3,70,98,4
3,72,101,380
3,73,92,148
3,67,80,4
3,72,79,20
3,70,84,32
3,72,98,24
3,67,81,4
3,73,91,12
3,74,95,140
3,65,96,4
3,67,88,180
3,70,80,28
3,73,97,44
3,70,73,40
3,67,75,20
3,70,99,20
3,67,85,800
3,60,79,0
3,62,85,4
4,46,85,4416
4,46,92,756
4,46,90,760
4,46,85,760
4,46,86,760
4,46,81,760
4,46,84,760
4,40,33,632
4,44,53,120
4,40,87,4
4,42,93,112
4,46,76,124
4,57,76,124
4,35,96,4
4,59,83,364
4,40,75,4
4,51,66,248
4,59,90,120
4,35,93,4
4,59,91,368
4,40,71,0
4,51,63,244
4,59,96,116
4,35,96,4
4,59,104,376
4,40,66,0
4,51,65,248
4,59,91,120
4,35,93,4
4,53,93,240
4,59,78,124
4,40,68,0
4,59,98,376
4,35,91,4
4,40,61,368
4,59,97,0
4,51,73,240
4,59,90,128
4,35,93,0
4,53,84,248
4,59,75,120
4,40,64,0
4,35,93,368
4,59,93,0
4,59,89,376
4,40,67,0
4,35,93,372
4,51,67,4
4,40,36,248
4,59,76,112
4,40,74,4
4,35,52,248
4,59,82,116
4,35,96,0
4,53,61,248
4,59,88,120
4,40,71,0
4,59,95,376
4,35,96,4
4,40,71,368
4,59,93,4
4,51,46,240
4,35,91,124
4,59,89,4
4,59,86,372
4,40,78,4
4,51,67,240
4,35,95,124
4,59,84,4
4,53,95,244
4,40,69,116
4,55,85,764
4,55,91,760
4,55,86,756
4,57,88,248
4,35,123,0
4,40,82,500
4,35,89,252
4,49,82,112
4,35,121,4
4,40,74,364
4,59,86,0
4,51,64,244
4,59,85,120
4,35,101,4
4,40,78,372
4,59,97,0
4,51,65,244
4,59,104,120
4,35,100,0
4,59,106,372
4,40,69,4
4,51,71,244
4,59,98,124
4,35,106,4
4,55,104,236
4,59,104,120
4,40,74,4
4,59,104,372
4,35,102,4
4,59,109,368
4,40,74,0
4,51,81,248
4,59,113,120
4,35,101,0
4,53,96,236
4,40,74,124
4,59,101,0
4,59,109,372
4,35,106,0
4,59,106,368
4,40,73,4
4,59,101,376
4,35,90,4
4,40,75,372
4,59,96,0
4,51,60,248
4,57,74,124
4,35,95,4
4,59,91,368
4,40,69,4
4,59,98,372
4,35,86,4
4,40,76,368
4,59,95,0
4,51,70,244
4,35,57,4
4,59,102,120
4,35,95,4
4,59,102,368
4,40,80,4
4,51,49,240
4,59,106,124
4,35,97,4
4,51,59,240
4,59,102,120
4,40,73,0
4,51,70,244
4,44,115,120
4,35,95,4
4,40,66,368
4,44,96,4
4,35,85,0
4,44,106,368
4,40,62,4
4,35,89,0
4,44,102,368
4,40,73,4
4,35,83,0
4,44,106,372
4,40,91,0
4,35,86,4
4,55,119,368
4,35,123,4
4,40,45,624
4,40,93,120
4,57,72,384
4,35,97,4
4,59,100,368
4,40,75,4
4,59,113,372
4,35,98,0
4,59,115,376
4,40,59,4
4,51,24,244
4,59,109,116
4,35,96,4
4,59,101,364
4,40,79,0
4,35,67,240
4,51,51,4
4,35,91,116
4,59,100,0
4,59,106,368
4,40,70,0
4,53,51,240
4,59,106,120
4,35,104,4
4,59,104,372
4,40,71,0
4,51,39,244
4,59,102,120
4,35,98,4
4,59,107,368
4,40,78,4
4,51,63,244
4,59,109,124
4,35,97,4
4,59,106,368
4,40,60,0
4,51,43,248
4,59,104,116
4,35,100,4
4,59,98,372
4,40,71,4
4,51,43,244
4,35,51,0
4,59,107,124
4,35,97,4
4,59,100,364
4,40,62,0
4,51,55,244
4,35,96,120
4,59,104,4
4,59,92,372
4,40,66,4
4,51,38,248
4,35,96,112
4,59,91,4
4,59,100,372
4,40,71,4
4,51,68,248
4,59,93,120
4,35,102,4
4,53,70,112
4,40,66,120
4,53,88,128
4,40,25,112
4,40,82,120
4,35,72,4
4,55,95,120
4,35,117,4
4,46,74,372
