track,note,velocity,time
1,53,45,2652
1,51,39,48
1,50,41,64
1,48,39,76
1,46,49,76
1,45,41,12
1,43,43,24
1,40,52,36
1,43,43,368
1,39,55,8
1,38,38,8
1,36,43,12
1,29,60,12
1,34,50,32
1,36,66,1504
1,38,53,1508
1,39,44,8
1,43,66,52
1,41,53,4
1,40,59,756
1,39,55,1144
1,38,35,12
1,39,60,720
1,37,54,788
1,36,55,0
1,34,47,800
1,36,61,1524
1,38,53,20
1,40,57,8
1,30,50,8
1,31,55,0
1,33,52,8
1,32,48,1552
1,34,66,1512
1,35,59,12
1,35,59,64
1,37,64,348
1,30,69,12
1,41,55,856
1,34,63,0
1,27,63,36
1,29,88,1536
1,29,66,136
1,31,78,24
1,31,46,8
1,32,75,60
1,39,47,0
1,39,33,248
1,33,47,8
1,33,67,76
1,32,77,36
1,31,73,396
1,37,52,756
1,30,74,12
1,34,70,780
1,27,77,16
1,27,56,120
1,29,65,4
1,29,56,104
1,31,57,16
1,31,45,132
1,33,69,28
1,47,57,1520
1,45,62,8
1,43,48,20
1,42,62,16
1,43,65,16
1,42,59,4
1,40,42,44
1,39,63,0
1,38,70,780
1,33,69,4
1,31,38,1540
1,38,34,88
1,31,69,8
1,35,67,32
1,36,69,768
1,33,82,752
1,31,66,768
1,35,89,20
1,36,84,764
1,34,101,0
1,27,85,16
1,29,88,76
1,31,61,32
1,31,56,88
1,32,58,8
1,36,82,48
1,34,81,768
1,33,83,760
1,32,84,16
1,31,65,16
1,32,61,28
1,30,72,28
1,34,68,772
1,27,79,24
1,39,62,764
1,27,55,24
1,29,41,384
1,41,48,756
1,29,57,20
1,31,88,384
1,31,68,68
1,33,77,392
1,47,66,400
1,45,41,8
1,43,53,40
1,42,36,4
1,43,34,768
1,42,23,12
1,40,43,768
1,39,58,0
1,38,82,768
1,33,83,1516
1,38,61,756
1,31,53,12
1,38,40,8
1,31,45,1536
1,35,57,12
1,36,45,24
1,33,57,772
1,31,38,4
1,35,65,8
1,36,57,12
1,33,69,772
1,38,61,8
1,40,57,4
1,39,65,764
1,38,43,12
1,40,55,772
1,31,69,16
1,31,62,120
1,38,46,4
1,31,41,768
1,31,56,96
2,70,64,2636
2,65,63,4
2,69,56,0
2,63,72,4
2,72,69,320
2,65,57,8
2,62,58,8
2,70,81,4
2,70,67,216
2,63,64,4
2,60,69,8
2,69,66,92
2,58,64,248
2,62,68,0
2,60,61,16
2,57,43,0
2,65,53,380
2,58,56,0
2,55,55,4
2,62,65,280
2,58,52,0
2,52,50,8
2,55,63,352
2,51,52,396
2,50,63,12
2,48,63,400
2,41,57,4
2,46,62,16
2,53,56,24
2,58,52,384
2,53,42,52
2,48,68,388
2,51,65,12
2,57,57,392
2,51,58,120
2,50,75,4
2,53,59,164
2,58,58,396
2,56,63,12
2,51,71,308
2,55,52,348
2,54,70,0
2,56,55,20
2,58,49,196
2,55,62,4
2,53,64,416
2,58,51,236
2,52,58,12
2,51,49,176
2,55,53,4
2,50,62,212
2,53,47,168
2,58,54,196
2,51,60,128
2,54,66,136
2,56,49,4
2,49,71,8
2,53,41,156
2,56,49,188
2,48,60,212
2,53,54,360
2,46,65,200
2,53,54,180
2,58,57,392
2,53,51,4
2,48,68,384
2,53,47,204
2,57,52,392
2,53,45,12
2,38,69,232
2,46,64,224
2,53,65,264
2,43,63,8
2,40,78,176
2,47,61,4
2,55,61,0
2,49,66,8
2,42,73,8
2,50,62,12
2,57,55,396
2,50,58,4
2,43,59,0
2,50,52,144
2,53,50,400
2,45,65,4
2,54,58,200
2,57,51,16
2,54,60,0
2,44,65,8
2,54,68,280
2,59,61,372
2,59,50,136
2,53,54,4
2,46,64,8
2,54,67,212
2,61,65,396
2,54,54,380
2,57,48,8
2,47,46,0
2,57,46,260
2,47,49,4
2,59,54,152
2,49,66,0
2,42,74,268
2,49,55,4
2,58,56,8
2,54,66,8
2,57,57,12
2,54,50,0
2,56,54,200
2,54,62,12
2,53,61,4
2,46,71,196
2,39,79,28
2,58,49,244
2,55,57,0
2,51,54,12
2,58,38,216
2,55,53,0
2,51,47,4
2,51,49,236
2,58,42,4
2,55,57,4
2,41,81,4
2,56,58,240
2,58,46,0
2,62,51,8
2,62,55,224
2,58,47,4
2,56,51,0
2,58,50,228
2,62,51,4
2,56,51,0
2,43,73,20
2,51,48,252
2,58,47,0
2,55,53,4
2,51,56,240
2,58,50,4
2,55,61,0
2,61,64,220
2,55,56,4
2,51,49,0
2,44,72,28
2,56,51,276
2,51,47,4
2,60,55,0
2,59,55,272
2,51,49,0
2,56,50,4
2,56,47,172
2,51,45,4
2,59,44,0
2,51,64,204
2,58,44,208
2,55,54,4
2,58,48,196
2,55,60,4
2,58,44,216
2,55,56,4
2,55,67,284
2,45,61,4
2,55,61,288
2,45,53,0
2,54,64,160
2,44,54,0
2,43,62,20
2,50,64,68
2,58,58,64
2,37,78,292
2,44,54,72
2,49,69,192
2,42,72,36
2,49,73,48
2,54,68,4
2,46,73,44
2,53,50,20
2,56,60,0
2,39,74,24
2,55,55,260
2,58,45,4
2,51,49,4
2,58,51,200
2,55,56,4
2,51,55,0
2,58,55,212
2,51,58,4
2,55,54,0
2,41,82,32
2,58,56,268
2,56,55,4
2,62,62,0
2,58,52,252
2,56,53,0
2,62,58,0
2,58,49,232
2,62,53,4
2,56,49,0
2,43,68,36
2,58,53,244
2,55,63,0
2,51,53,0
2,58,48,212
2,55,55,4
2,51,54,0
2,51,60,216
2,58,57,4
2,55,63,4
2,45,70,28
2,54,66,260
2,60,59,4
2,54,66,244
2,60,54,4
2,54,69,232
2,60,57,0
2,59,69,8
2,67,54,56
2,62,59,16
2,67,41,16
2,57,61,12
2,66,58,64
2,60,56,16
2,66,56,0
2,55,70,16
2,62,22,40
2,59,50,8
2,62,56,16
2,54,70,0
2,62,62,60
2,57,51,8
2,62,52,12
2,55,65,192
2,64,59,60
2,59,55,12
2,64,57,4
2,54,71,188
2,63,68,28
2,57,51,20
2,63,50,24
2,52,66,20
2,59,45,36
2,55,54,0
2,59,32,8
2,51,53,196
2,55,60,8
2,61,66,0
2,50,71,168
2,55,61,192
2,59,61,380
2,62,68,388
2,45,74,20
2,54,70,236
2,60,71,4
2,54,66,376
2,62,65,28
2,63,64,200
2,64,57,4
2,65,68,192
2,64,54,188
2,63,57,164
2,62,64,24
2,67,71,192
2,62,55,0
2,60,27,0
2,66,58,224
2,43,52,28
2,59,53,40
2,47,61,4
2,57,43,264
2,53,46,4
2,48,61,4
2,52,48,64
2,59,56,196
2,45,58,8
2,52,47,84
2,60,71,188
2,50,75,292
2,43,61,4
2,47,51,400
2,57,51,0
2,53,55,8
2,59,61,8
2,48,64,4
2,57,53,380
2,46,63,268
2,50,68,0
2,56,58,0
2,39,61,24
2,46,66,108
2,55,56,0
2,46,46,52
2,41,71,12
2,50,65,216
2,56,55,8
2,50,54,16
2,43,60,0
2,51,56,60
2,58,62,384
2,49,55,12
2,44,65,4
2,51,67,108
2,59,64,392
2,49,58,12
2,51,44,28
2,48,66,4
2,46,72,12
2,45,64,8
2,51,59,216
2,55,57,32
2,44,52,140
2,54,56,4
2,43,55,16
2,50,60,376
2,49,66,0
2,44,49,364
2,42,73,20
2,49,68,396
2,46,75,4
2,56,53,356
2,39,77,20
2,58,53,248
2,51,55,4
2,55,62,0
2,58,51,216
2,55,56,4
2,51,55,0
2,51,54,212
2,58,54,4
2,55,56,0
2,41,84,36
2,56,57,288
2,58,54,0
2,62,59,0
2,58,52,224
2,62,59,4
2,56,50,0
2,62,57,248
2,56,51,0
2,58,50,0
2,43,75,32
2,58,48,256
2,51,51,0
2,55,59,4
2,58,50,236
2,55,57,0
2,51,53,4
2,51,52,244
2,58,50,0
2,55,52,0
2,45,76,24
2,60,59,244
2,54,63,0
2,54,61,244
2,60,59,4
2,54,59,252
2,60,62,4
2,59,68,300
2,67,54,36
2,62,54,20
2,67,44,16
2,57,60,4
2,66,66,60
2,60,53,12
2,66,48,20
2,55,68,48
2,62,37,48
2,59,44,4
2,62,52,24
2,54,67,20
2,62,59,40
2,57,43,12
2,62,47,32
2,55,63,192
2,64,51,64
2,59,44,16
2,64,52,16
2,54,68,8
2,63,59,24
2,57,45,8
2,63,53,32
2,52,53,0
2,59,56,24
2,55,54,192
2,59,47,8
2,51,60,4
2,55,55,40
2,61,66,208
2,50,78,276
2,55,64,184
2,59,56,316
2,62,66,4
2,45,63,32
2,54,70,72
2,60,63,0
2,54,61,20
2,62,62,24
2,63,62,152
2,64,56,12
2,65,72,192
2,64,54,188
2,63,55,8
2,62,33,8
2,61,56,0
2,62,63,72
2,67,42,4
2,60,54,0
2,66,58,244
2,43,58,436
2,59,65,28
2,47,69,28
2,57,40,212
2,53,40,8
2,48,57,76
2,52,54,12
2,59,45,8
2,45,58,120
2,52,52,0
2,60,67,200
2,50,67,316
2,43,54,4
2,47,52,428
2,57,48,0
2,53,52,4
2,59,44,292
2,52,50,4
2,48,47,0
2,55,61,412
2,52,50,4
2,45,53,4
2,67,58,476
2,62,69,0
2,59,53,8
2,66,65,140
2,65,65,12
2,64,53,24
2,62,62,268
2,55,55,4
2,52,44,0
2,61,66,184
2,62,75,224
2,51,55,4
2,54,64,0
2,60,65,252
2,59,61,192
2,50,67,4
2,52,51,4
2,54,68,380
2,50,64,4
2,43,50,8
2,55,54,432
2,43,35,12
2,50,55,0
2,57,47,444
2,65,59,0
2,60,58,4
2,55,41,400
2,59,50,0
2,62,47,4
2,31,57,472
3,79,66,2628
3,74,75,4
3,77,58,4
3,79,66,8
3,74,70,8
3,77,71,312
3,82,94,112
3,79,60,192
3,77,70,88
3,79,77,4
3,77,70,384
3,75,85,260
3,67,67,0
3,74,74,4
3,75,80,4
3,66,66,16
3,74,59,16
3,79,76,104
3,74,74,180
3,70,86,160
3,69,72,180
3,67,69,372
3,65,51,224
3,63,62,0
3,58,49,4
3,70,82,448
3,74,63,1128
3,65,73,376
3,67,77,332
3,70,79,320
3,68,76,24
3,67,62,380
3,65,75,388
3,70,82,1104
3,58,71,184
3,70,80,928
3,58,70,184
3,60,74,36
3,61,77,188
3,62,68,4
3,65,84,192
3,61,78,188
3,62,76,0
3,65,78,188
3,61,78,180
3,62,73,8
3,69,76,80
3,62,70,8
3,69,76,68
3,69,81,68
3,70,78,4
3,65,71,8
3,72,84,20
3,65,73,0
3,65,69,140
3,66,68,0
3,63,69,20
3,65,76,68
3,61,85,156
3,63,69,0
3,65,72,8
3,67,73,36
3,69,76,96
3,70,86,208
3,62,49,16
3,74,68,4
3,65,65,4
3,65,77,212
3,63,71,0
3,67,72,16
3,68,64,176
3,63,70,8
3,67,62,40
3,62,59,224
3,65,62,0
3,60,63,4
3,58,68,180
3,69,71,220
3,62,71,8
3,64,68,4
3,57,68,16
3,71,81,24
3,62,68,0
3,66,79,4
3,69,73,12
3,67,71,152
3,66,74,4
3,65,82,8
3,59,65,12
3,62,87,176
3,64,74,4
3,62,80,176
3,64,65,196
3,62,74,0
3,66,73,252
3,62,66,4
3,62,87,124
3,62,73,272
3,73,79,4
3,66,78,8
3,61,73,20
3,75,92,8
3,73,76,952
3,71,77,8
3,70,89,4
3,69,71,8
3,63,73,0
3,66,72,4
3,68,74,188
3,66,74,8
3,69,69,4
3,63,69,0
3,70,80,52
3,65,72,4
3,66,83,12
3,68,70,2316
3,70,77,112
3,71,84,8
3,72,83,132
3,73,74,4
3,74,82,12
3,75,92,156
3,79,76,4
3,70,78,376
3,72,86,0
3,75,69,4
3,73,72,4
3,72,83,4
3,70,91,384
3,75,86,1128
3,63,73,400
3,75,93,744
3,63,73,192
3,65,75,8
3,66,79,192
3,67,69,8
3,70,80,192
3,66,79,48
3,67,64,4
3,72,82,188
3,66,75,0
3,67,65,24
3,63,83,8
3,74,71,8
3,67,64,0
3,74,88,120
3,74,86,128
3,67,68,4
3,63,80,0
3,75,80,28
3,72,82,12
3,66,66,0
3,77,90,16
3,67,68,20
3,70,82,176
3,71,80,20
3,65,74,0
3,68,72,120
3,70,75,0
3,65,72,0
3,66,68,0
3,68,77,192
3,70,83,156
3,72,81,0
3,74,70,8
3,87,92,8
3,75,95,4
3,79,80,8
3,70,88,276
3,82,95,4
3,84,88,20
3,72,55,8
3,85,86,188
3,73,83,4
3,84,79,68
3,72,81,0
3,70,81,88
3,82,82,8
3,63,77,380
3,74,84,336
3,62,75,32
3,76,92,4
3,74,72,8
3,76,79,0
3,74,75,4
3,79,76,764
3,76,77,172
3,74,72,164
3,76,76,8
3,74,66,0
3,72,77,376
3,72,84,60
3,71,73,0
3,72,82,0
3,71,73,184
3,76,86,8
3,71,76,192
3,67,65,8
3,66,59,224
3,67,73,4
3,79,81,204
3,83,90,12
3,74,78,396
3,76,85,360
3,79,65,8
3,77,71,36
3,76,80,344
3,74,76,0
3,67,67,4
3,71,76,8
3,83,89,260
3,61,64,28
3,74,77,52
3,71,70,4
3,76,86,392
3,77,79,4
3,70,73,4
3,76,81,4
3,74,69,8
3,67,61,0
3,67,62,72
3,67,69,96
3,74,73,12
3,67,61,72
3,67,68,72
3,67,71,84
3,74,80,12
3,79,73,8
3,79,78,108
3,79,81,68
3,74,80,200
3,67,59,156
3,67,67,80
3,74,73,376
3,67,68,0
3,67,70,84
3,67,68,76
3,74,79,204
3,67,68,64
3,67,55,84
3,67,73,112
3,62,78,0
3,67,68,16
3,67,73,92
3,67,67,92
3,74,83,40
3,67,63,96
3,68,67,88
3,70,91,136
3,72,94,12
3,74,84,16
3,67,78,12
3,75,92,0
3,70,86,8
3,79,75,4
3,68,70,156
3,70,77,0
3,72,87,348
3,73,76,376
3,72,75,0
3,70,71,260
3,67,52,4
3,65,53,8
3,75,80,0
3,63,74,0
3,75,77,4
3,63,73,200
3,65,72,12
3,66,84,188
3,67,68,8
3,70,88,208
3,66,70,4
3,67,69,184
3,70,82,176
3,66,72,180
3,67,68,172
3,67,66,64
3,74,81,4
3,74,82,136
3,74,86,140
3,75,83,36
3,72,83,8
3,77,93,344
3,67,60,376
3,70,77,0
3,71,79,8
3,65,67,12
3,75,81,360
3,70,76,20
3,73,77,4
3,65,67,4
3,74,75,24
3,70,70,0
3,65,52,8
3,75,84,392
3,87,84,0
3,82,88,4
3,79,72,0
3,79,82,308
3,70,88,68
3,82,94,4
3,84,90,196
3,72,88,8
3,85,84,172
3,73,85,4
3,84,84,72
3,72,84,4
3,70,84,204
3,82,86,0
3,63,77,456
3,74,83,340
3,62,74,0
3,76,88,0
3,74,73,560
3,76,79,4
3,74,76,192
3,79,71,4
3,76,80,200
3,74,75,168
3,76,81,8
3,74,74,196
3,72,84,392
3,72,85,48
3,71,74,0
3,72,78,0
3,71,73,0
3,76,83,780
3,71,71,188
3,67,67,156
3,66,65,220
3,67,75,12
3,79,83,252
3,83,90,1080
3,74,80,380
3,76,81,356
3,79,68,8
3,77,79,24
3,76,81,356
3,74,75,0
3,67,57,4
3,71,70,0
3,83,88,288
3,71,68,16
3,74,71,4
3,76,86,392
3,70,80,168
3,77,75,4
3,76,80,8
3,74,72,220
3,67,61,8
3,67,64,80
3,67,67,84
3,74,77,4
3,67,64,20
3,67,73,96
3,67,74,80
3,74,84,200
3,79,76,4
3,79,79,96
3,79,82,80
3,74,82,196
3,67,63,8
3,67,71,92
3,74,79,376
3,67,67,12
3,67,72,92
3,67,71,88
3,74,77,196
3,67,58,4
3,67,73,112
3,67,71,88
3,62,81,4
3,67,65,40
3,67,69,88
3,67,65,100
3,74,78,192
3,67,59,8
3,67,65,100
3,74,82,368
3,79,76,1532
3,81,86,408
3,84,87,312
3,82,87,44
3,81,75,4
3,74,76,4
3,79,66,0
3,67,78,60
3,67,59,116
3,67,77,100
3,74,77,28
3,67,54,16
3,67,72,8
3,67,61,88
3,62,77,144
3,60,71,4
3,64,82,356
3,67,76,8
3,65,84,52
3,64,63,28
3,62,76,4
3,59,57,4
3,74,83,336
3,71,84,8
3,69,60,4
3,71,74,0
3,86,86,328
