track,note,velocity,time
1,33,102,4572
1,34,108,40
1,35,109,52
1,36,127,32
1,40,102,1948
1,41,97,68
1,42,97,64
1,43,115,40
1,36,82,1916
1,41,97,24
1,48,51,360
1,47,89,4
1,45,77,16
1,46,67,392
1,42,74,8
1,43,83,28
1,31,75,732
1,30,76,4
1,29,74,8
1,29,56,140
1,31,80,20
1,31,55,88
1,33,86,36
1,33,80,96
1,32,75,28
1,32,62,92
1,31,71,36
1,31,66,96
1,30,84,36
1,30,74,136
1,31,83,128
1,38,74,500
1,37,85,44
1,36,92,56
1,43,72,8
1,36,77,132
1,41,83,20
1,29,84,8
1,34,86,392
1,34,66,108
1,36,84,8
1,29,93,40
1,35,83,8
1,40,80,12
1,33,91,16
1,40,78,4
1,33,84,128
1,40,77,12
1,33,95,132
1,33,89,84
1,35,93,24
1,40,88,760
1,33,91,4
1,31,90,4
1,30,84,16
1,32,80,24
1,31,82,32
1,35,98,200
1,35,115,192
1,35,104,72
1,36,90,224
1,35,86,1512
1,34,70,8
1,33,77,24
1,33,62,100
1,32,82,4
1,31,70,768
1,30,92,8
1,31,91,24
1,41,81,1296
1,34,76,88
1,35,82,16
1,36,84,52
1,32,86,32
1,33,73,64
1,29,94,44
1,31,92,64
1,32,90,60
1,33,89,68
1,34,85,76
1,36,85,40
1,38,89,48
1,39,88,0
1,41,90,48
1,39,92,384
1,38,88,4
1,37,102,92
1,36,96,32
1,41,86,44
1,34,93,344
1,35,89,36
1,36,91,24
1,41,77,1516
1,29,97,32
1,43,90,40
1,31,95,20
1,45,96,60
1,33,101,16
1,46,95,40
1,34,93,32
1,45,96,40
1,33,94,32
1,43,91,32
1,31,97,36
1,41,91,28
1,29,98,36
1,43,89,8
1,31,89,32
1,45,77,24
1,33,97,32
1,46,99,32
1,34,96,24
1,45,93,20
1,33,97,0
1,34,90,56
1,37,97,116
1,38,95,48
1,27,92,380
1,41,89,8
1,40,82,36
1,39,90,392
1,38,99,32
1,37,91,32
1,36,88,4
1,34,92,292
1,33,93,8
1,32,91,52
1,31,98,16
1,30,90,200
1,29,98,20
2,45,75,4548
2,46,82,388
2,47,61,4
2,48,76,20
2,60,93,1384
2,52,71,524
2,53,65,56
2,54,75,392
2,55,79,28
2,58,70,1912
2,48,80,12
2,53,68,76
2,60,83,408
2,65,71,0
2,64,69,68
2,59,67,4
2,63,76,40
2,57,65,4
2,58,77,44
2,62,76,8
2,57,65,32
2,54,68,0
2,59,67,56
2,53,55,4
2,43,64,768
2,42,82,376
2,41,84,16
2,43,72,4
2,45,76,760
2,44,71,760
2,43,70,768
2,42,74,744
2,43,51,32
2,50,79,432
2,58,66,0
2,49,83,44
2,59,57,0
2,58,67,48
2,48,75,8
2,55,77,16
2,58,64,400
2,57,64,340
2,63,71,400
2,57,68,0
2,58,64,20
2,62,61,0
2,58,72,12
2,52,48,12
2,57,65,40
2,53,55,8
2,57,51,68
2,47,66,4
2,56,70,400
2,52,58,12
2,45,63,0
2,53,65,28
2,54,70,28
2,55,71,24
2,45,62,64
2,54,68,4
2,53,68,0
2,51,67,388
2,47,71,60
2,57,62,380
2,56,58,392
2,45,68,24
2,52,64,144
2,43,69,236
2,52,51,112
2,42,79,48
2,52,56,396
2,54,79,4
2,44,62,4
2,43,71,60
2,47,81,380
2,47,75,176
2,47,80,100
2,48,74,48
2,47,77,1488
2,46,77,4
2,45,72,780
2,44,68,756
2,43,63,12
2,42,69,768
2,43,46,16
2,63,74,1200
2,57,64,4
2,58,64,16
2,64,64,4
2,57,61,96
2,63,74,0
2,55,70,28
2,61,69,0
2,54,76,4
2,60,67,0
2,55,65,172
2,58,64,4
2,61,67,324
2,52,64,4
2,60,68,32
2,50,73,0
2,61,78,12
2,51,63,4
2,60,67,68
2,53,61,0
2,51,59,384
2,60,65,176
2,50,70,4
2,59,52,48
2,49,54,8
2,48,68,36
2,58,58,0
2,57,44,28
2,53,46,4
2,46,74,424
2,47,74,140
2,48,76,68
2,53,63,1484
2,64,63,0
2,57,53,0
2,58,64,396
2,65,71,0
2,55,68,0
2,60,75,16
2,57,55,0
2,67,65,0
2,58,55,4
2,65,62,4
2,62,71,4
2,67,52,8
2,60,69,0
2,57,51,0
2,58,60,12
2,65,62,4
2,55,62,0
2,57,56,16
2,64,60,0
2,53,54,4
2,58,55,8
2,55,63,0
2,65,64,4
2,63,70,16
2,57,48,4
2,58,59,264
2,64,60,0
2,57,50,24
2,63,66,4
2,63,72,20
2,57,43,8
2,62,68,220
2,58,50,4
2,61,78,168
2,62,71,16
2,61,74,400
2,51,60,4
2,55,68,0
2,60,75,32
2,53,60,4
2,62,43,20
2,52,54,0
2,51,67,0
2,61,63,4
2,60,74,12
2,50,65,12
2,49,74,40
2,59,56,8
2,58,60,16
2,48,65,4
2,46,89,276
2,45,61,20
2,44,52,36
2,50,69,12
2,43,54,8
2,42,72,40
2,49,61,4
2,41,74,84
2,48,68,0
3,65,80,2864
3,65,87,40
3,65,58,84
3,65,87,56
3,65,83,140
3,69,81,12
3,60,80,540
3,61,75,16
3,62,93,20
3,65,69,40
3,62,55,4
3,65,66,16
3,65,97,136
3,65,83,52
3,65,65,104
3,65,103,84
3,65,71,132
3,67,90,520
3,68,63,8
3,69,84,12
3,72,82,12
3,74,77,140
3,72,73,16
3,65,85,248
3,65,94,56
3,65,77,108
3,65,96,60
3,65,91,192
3,72,100,16
3,67,76,524
3,63,84,0
3,70,94,384
3,67,64,0
3,69,71,4
3,74,91,340
3,69,88,0
3,68,82,96
3,74,64,4
3,74,86,116
3,67,75,4
3,77,90,104
3,67,88,4
3,74,85,40
3,72,81,136
3,70,92,12
3,72,94,16
3,69,72,4
3,67,73,8
3,65,92,244
3,65,83,52
3,65,75,108
3,65,87,64
3,58,79,4
3,65,95,80
3,69,87,144
3,57,82,8
3,58,83,12
3,60,82,24
3,65,84,8
3,65,94,48
3,65,93,100
3,65,96,32
3,59,81,8
3,65,93,92
3,58,70,388
3,60,87,0
3,57,68,0
3,60,85,148
3,58,58,0
3,65,90,4
3,65,90,40
3,65,81,96
3,65,104,56
3,65,96,96
3,67,68,400
3,72,83,8
3,63,73,0
3,74,89,8
3,74,91,140
3,67,79,4
3,74,88,124
3,67,83,4
3,77,89,0
3,74,81,8
3,72,83,120
3,70,86,108
3,72,93,8
3,67,79,0
3,69,80,8
3,65,87,16
3,69,86,32
3,62,87,4
3,71,84,396
3,72,96,28
3,69,72,8
3,76,93,380
3,74,80,632
3,72,94,112
3,71,76,216
3,69,82,132
3,76,94,8
3,74,83,532
3,72,89,4
3,69,81,136
3,69,90,92
3,69,88,100
3,67,84,384
3,64,78,372
3,62,78,4
3,69,83,16
3,71,84,0
3,72,96,136
3,69,86,12
3,72,92,380
3,76,90,4
3,71,82,24
3,74,78,4
3,69,76,8
3,72,89,4
3,69,90,4
3,68,77,376
3,74,79,4
3,74,87,116
3,67,77,8
3,61,87,384
3,65,82,4
3,61,88,160
3,65,79,4
3,65,84,104
3,61,82,4
3,60,82,52
3,64,71,0
3,65,92,176
3,65,61,36
3,65,81,96
3,65,81,52
3,65,85,100
3,69,81,392
3,62,78,8
3,61,80,4
3,60,77,28
3,65,85,100
3,65,93,56
3,65,74,96
3,59,77,40
3,65,89,4
3,65,91,84
3,58,72,380
3,60,91,4
3,57,72,32
3,58,66,12
3,65,81,8
3,65,92,44
3,65,82,76
3,65,96,32
3,65,84,68
3,74,87,144
3,67,73,0
3,68,74,24
3,67,76,12
3,72,88,400
3,73,85,128
3,69,75,4
3,74,89,56
3,71,86,8
3,77,90,20
3,67,82,0
3,74,82,256
3,72,82,136
3,70,83,20
3,72,87,104
3,67,69,0
3,69,86,372
3,65,81,4
3,72,90,148
3,65,75,0
3,67,69,4
3,70,90,36
3,69,86,36
3,65,73,0
3,70,91,384
3,69,77,24
3,66,85,0
3,72,93,392
3,67,76,32
3,65,71,4
3,64,72,44
3,69,71,0
3,65,75,16
3,60,83,12
3,61,66,32
3,62,87,24
3,65,66,24
3,62,71,12
3,65,87,24
3,77,86,264
3,77,93,52
3,77,82,116
3,77,92,56
3,77,90,148
3,81,98,8
3,77,84,8
3,81,72,8
3,86,92,136
3,84,97,208
3,77,80,4
3,77,89,48
3,77,71,92
3,80,88,8
3,77,72,16
3,79,84,20
3,72,90,12
3,77,86,28
3,77,87,36
3,77,81,68
3,77,88,44
3,77,87,68
3,86,95,380
3,79,75,4
3,80,86,744
3,79,75,20
3,77,83,332
3,73,90,76
3,77,84,4
3,77,88,120
3,77,89,68
3,67,72,8
3,74,81,244
3,72,86,0
3,70,78,4
3,72,95,32
3,69,84,24
3,65,88,12
3,72,101,340
3,65,89,4
3,70,90,780
3,69,86,112
3,65,73,4
3,70,91,380
3,66,84,4
3,65,75,16
3,69,67,0
3,72,93,388
3,66,85,0
3,65,79,44
3,67,79,4
3,69,80,24
3,64,68,4
3,65,94,16
3,65,93,76
3,62,90,8
3,65,73,40
3,61,92,8
3,65,82,72
3,60,81,8
3,65,70,72
3,59,75,0
3,65,80,84
3,58,81,0
3,64,79,240
3,69,83,4
3,57,73,8
3,84,88,500
3,74,71,0
3,79,48,4
4,35,83,4412
4,44,103,4
4,42,50,120
4,44,76,108
4,46,49,116
4,40,42,4
4,42,68,116
4,40,27,4
4,35,68,108
4,44,90,8
4,40,89,112
4,42,77,0
4,44,98,116
4,35,55,4
4,46,87,116
4,35,93,0
4,44,90,492
4,44,90,756
4,44,107,760
4,35,83,4
4,42,73,112
4,44,76,116
4,46,53,116
4,40,47,4
4,42,73,112
4,40,31,4
4,44,94,108
4,35,46,4
4,42,89,112
4,40,75,4
4,44,94,116
4,35,59,0
4,46,73,112
4,40,92,4
4,44,90,496
4,44,90,756
4,49,82,764
4,35,93,0
4,40,55,748
4,40,32,120
4,55,115,116
4,35,93,4
4,51,64,492
4,59,64,372
4,51,64,372
4,49,62,376
4,35,85,4
4,57,78,756
4,35,87,0
4,55,115,620
4,40,70,4
4,44,90,496
4,40,12,632
4,44,90,112
4,40,64,8
4,59,76,372
4,35,63,4
4,59,89,364
4,40,42,4
4,51,42,244
4,59,83,112
4,35,56,4
4,59,95,368
4,40,51,4
4,59,81,368
4,35,59,4
4,51,35,236
4,59,79,120
4,40,51,0
4,35,29,244
4,59,83,116
4,35,58,0
4,51,23,244
4,40,47,112
4,59,84,8
4,59,86,368
4,35,57,4
4,40,50,368
4,59,92,0
4,59,99,368
4,35,57,4
4,59,84,372
4,40,49,4
4,51,34,236
4,35,18,4
4,59,109,120
4,35,77,4
4,51,94,748
4,35,81,4
4,59,88,364
4,35,75,4
4,35,72,372
4,59,89,4
4,59,94,368
4,40,52,4
4,51,41,240
4,59,101,116
4,35,55,4
4,59,89,368
4,40,51,4
4,51,36,240
4,35,30,0
4,59,107,112
4,35,62,8
4,40,52,368
4,59,94,368
4,35,49,244
4,51,61,124
4,40,59,0
4,35,22,240
4,35,64,112
4,59,76,8
4,59,68,364
4,40,54,4
4,59,86,372
4,35,73,4
4,51,80,108
4,44,109,116
4,42,64,120
4,40,61,0
4,44,94,116
4,46,98,112
4,35,93,4
4,35,73,880
4,57,41,764
4,35,55,0
4,59,69,368
4,37,40,4
4,51,52,236
4,59,78,116
4,59,81,376
4,37,67,4
4,35,20,240
4,51,33,0
4,59,78,112
4,35,58,4
4,37,52,372
4,59,84,4
4,59,81,364
4,51,43,248
4,59,77,116
4,37,56,4
4,51,36,240
4,35,40,4
4,35,64,112
4,59,80,4
4,59,83,368
4,37,55,4
4,59,84,364
4,59,88,372
4,37,50,4
4,35,31,240
4,59,89,116
4,35,61,4
4,59,85,368
4,37,46,4
4,51,33,248
4,59,79,116
4,59,79,368
4,37,45,4
4,51,41,244
4,35,39,0
4,59,80,112
4,35,63,4
4,59,71,364
4,37,48,4
4,59,81,372
4,37,58,372
4,59,72,0
4,51,44,240
4,35,36,4
4,35,67,116
4,59,77,4
4,59,83,372
4,37,62,0
4,59,88,364
4,59,81,372
4,37,70,8
4,51,53,236
4,37,38,4
4,35,48,116
4,44,115,368
4,40,70,4
4,42,82,112
4,46,85,116
4,35,43,4
4,42,61,112
4,40,77,4
4,44,98,112
4,42,57,116
4,40,81,4
4,35,32,116
4,42,92,112
4,40,27,4
4,46,115,112
4,40,93,4
4,44,90,496
4,44,90,756
4,49,53,372
4,35,49,4
4,59,74,372
4,40,55,0
4,35,19,240
4,51,26,8
4,59,83,108
4,35,59,4
4,59,72,372
4,40,40,0
4,51,45,240
4,59,60,116
4,35,56,8
4,59,71,368
4,40,48,4
4,35,37,240
4,51,30,0
4,35,61,116
4,59,70,4
4,59,73,364
4,40,38,4
4,51,37,240
4,57,43,120
4,35,62,4
4,59,70,372
4,40,49,0
4,35,42,236
4,59,83,116
4,35,55,4
4,51,28,248
4,59,83,108
4,40,46,8
4,51,51,240
4,35,16,0
4,55,101,116
4,35,73,4
4,44,90,364
4,44,90,756
4,49,55,372
4,35,54,8
4,59,88,364
4,40,59,8
4,51,36,240
4,59,111,112
4,35,41,4
4,35,56,116
4,40,52,112
4,59,103,120
4,35,49,116
4,51,51,116
4,40,50,4
4,59,103,108
4,35,79,8
4,59,107,368
4,40,51,4
4,35,14,240
4,59,84,120
4,35,58,0
4,40,42,364
4,59,89,8
4,51,45,240
4,59,72,116
4,35,64,4
4,59,77,368
4,40,61,0
4,35,25,240
4,59,77,120
4,35,64,0
4,40,51,368
4,59,73,4
4,59,70,372
4,35,72,4
4,59,71,364
4,40,52,4
4,51,29,248
4,35,37,0
4,59,74,116
4,35,55,4
4,51,61,108
4,35,27,112
4,40,35,116
4,53,84,4
4,35,37,240
4,59,70,120
4,35,66,4
4,59,85,368
4,40,51,0
4,59,83,376
4,35,64,0
4,59,70,364
4,40,56,8
4,51,37,236
4,59,88,116
4,35,75,8
4,59,73,364
4,40,42,8
4,59,84,368
4,35,68,4
4,51,48,236
4,59,88,120
4,40,55,4
4,51,51,240
4,55,107,116
4,35,81,4
4,44,111,364
4,44,115,628
4,40,77,4
4,42,90,116
4,35,49,0
4,44,111,112
4,40,58,4
4,46,98,116
4,35,93,0
4,44,90,496
4,44,90,756
4,59,77,376
4,40,79,4
4,53,97,236
4,35,83,4
4,51,64,368
4,40,81,120
4,59,73,0
4,53,83,240
4,35,85,4
4,35,51,368
4,51,64,4
4,59,72,120
4,40,68,0
4,53,86,236
4,35,83,4
4,51,50,368
4,40,75,116
4,59,52,4
4,51,57,116
4,35,85,116
4,53,80,0
4,51,57,120
4,59,61,112
4,51,65,112
4,59,79,120
4,40,81,4
4,53,76,240
4,35,85,0
4,51,60,368
4,59,79,120
4,40,75,4
4,53,84,236
4,35,87,4
4,51,64,368
4,40,79,120
4,59,74,4
4,53,78,240
4,35,90,4
4,51,67,364
4,59,77,120
4,40,85,0
4,53,85,240
4,35,87,8
4,51,67,368
4,59,78,112
4,40,93,8
4,57,76,236
4,35,87,4
4,51,72,368
4,59,78,120
4,40,93,4
4,49,80,240
4,35,83,0
4,51,73,368
4,59,63,124
4,40,89,4
4,53,92,236
4,35,87,0
4,51,56,372
4,59,64,116
4,40,93,248
4,59,105,112
4,35,56,4
4,40,33,116
4,51,36,112
4,40,55,4
4,59,97,116
4,35,90,4
4,59,94,364
4,40,89,0
4,51,24,244
4,59,90,116
4,40,70,0
4,51,40,112
4,59,58,120
4,35,49,0
4,55,90,116
4,40,73,0
4,40,66,116
4,35,93,112
4,49,87,4
4,57,85,496
4,40,92,4
4,59,80,368
4,51,80,372
4,59,90,376
4,35,58,4
4,59,88,372
4,35,62,0
4,51,77,372
4,35,70,0
4,59,78,368
4,40,58,4
4,57,60,368
4,35,85,4
4,51,80,236
4,59,80,116
4,51,80,244
4,49,51,124
4,35,81,0
4,51,80,236
4,59,80,116
4,51,80,244
4,59,95,380
4,35,83,0
4,51,73,116
4,35,81,0
4,35,92,368
4,59,111,4
4,51,103,372
4,35,92,0
4,59,114,368
4,35,89,4
4,51,80,236
4,59,80,116
