track,note,velocity,time
0,67,103,1530
0,79,103,0
0,67,103,2
0,79,103,0
0,57,121,0
0,35,85,2
0,67,97,332
0,74,99,2
0,71,105,0
0,74,82,2
0,71,101,0
0,67,92,2
0,62,89,0
0,59,95,0
0,55,89,2
0,31,103,0
0,39,109,2
0,35,83,0
0,39,36,50
0,39,48,34
0,39,60,44
0,39,73,38
0,39,85,56
0,39,97,22
0,39,109,40
0,65,86,14
0,77,86,2
0,72,107,0
0,65,86,0
0,77,86,2
0,69,105,0
0,60,101,2
0,53,95,0
0,38,103,2
0,39,113,0
0,63,107,112
0,75,107,2
0,63,107,0
0,75,107,2
0,69,107,0
0,60,95,2
0,53,90,0
0,38,97,0
0,39,90,2
0,72,105,16
0,72,105,96
0,65,90,24
0,77,90,2
0,65,90,0
0,77,90,0
0,69,105,2
0,60,95,0
0,53,86,2
0,38,97,0
0,39,83,2
0,63,105,122
0,75,105,0
0,72,101,2
0,63,105,0
0,75,105,2
0,69,103,0
0,60,92,2
0,53,86,0
0,38,92,0
0,39,95,2
0,65,86,132
0,77,86,0
0,65,86,2
0,77,86,0
0,69,95,2
0,60,89,0
0,53,82,2
0,38,93,0
0,39,89,2
0,72,99,16
0,72,103,98
0,63,95,24
0,75,95,0
0,63,95,2
0,75,95,0
0,69,101,0
0,60,90,2
0,53,90,2
0,38,93,0
0,39,87,0
0,62,95,114
0,74,95,0
0,71,105,0
0,62,95,2
0,74,95,0
0,67,97,2
0,59,95,0
0,55,105,2
0,31,92,0
0,39,103,2
0,35,89,0
0,60,86,150
0,72,86,0
0,69,109,2
0,60,86,0
0,72,86,2
0,65,95,0
0,57,105,0
0,33,95,2
0,39,103,0
0,59,93,34
0,71,93,0
0,67,107,2
0,59,93,0
0,71,93,0
0,62,89,2
0,59,99,0
0,55,103,2
0,35,89,0
0,39,99,2
0,58,103,202
0,70,103,0
0,67,113,2
0,58,103,0
0,70,103,2
0,64,111,0
0,58,101,2
0,55,99,0
0,36,92,0
0,57,121,2
0,39,113,0
0,35,91,2
0,60,87,88
0,72,87,0
0,67,103,0
0,60,87,2
0,72,87,0
0,64,103,2
0,58,99,0
0,55,93,2
0,36,89,0
0,39,103,0
0,61,101,168
0,73,101,0
0,67,105,2
0,61,101,0
0,73,101,2
0,63,113,0
0,58,101,0
0,55,93,2
0,34,103,0
0,39,93,2
0,62,90,168
0,74,90,2
0,71,105,0
0,62,90,0
0,74,90,2
0,67,105,0
0,59,101,2
0,55,103,0
0,35,92,2
0,57,119,0
0,39,115,2
0,35,91,0
0,59,93,140
0,71,93,0
0,67,105,2
0,59,93,0
0,71,93,2
0,62,93,0
0,59,87,0
0,55,93,2
0,35,93,0
0,39,99,2
0,55,90,202
0,67,90,2
0,62,109,0
0,55,90,0
0,67,90,2
0,59,99,0
0,59,87,2
0,55,90,0
0,35,85,2
0,39,99,0
0,53,90,212
0,65,90,2
0,53,90,0
0,65,90,2
0,53,101,0
0,60,89,2
0,53,101,0
0,33,86,2
0,57,119,0
0,39,109,2
0,35,87,0
0,60,113,28
0,51,97,174
0,63,97,2
0,60,103,0
0,51,97,0
0,63,97,2
0,53,107,0
0,60,92,2
0,53,95,0
0,33,92,0
0,39,95,2
0,35,89,2
0,50,90,184
0,62,90,2
0,60,107,0
0,50,90,2
0,62,90,0
0,53,107,0
0,60,95,2
0,53,97,0
0,33,89,2
0,39,97,0
0,35,93,2
0,59,60,54
0,53,74,2
0,31,81,0
0,62,121,204
0,64,116,24
0,62,117,48
0,65,115,26
0,60,71,2
0,54,77,0
0,32,89,2
0,65,123,242
0,59,69,82
0,53,75,0
0,31,80,2
0,62,121,206
0,64,117,20
0,62,117,34
0,65,114,38
0,60,74,0
0,54,76,2
0,32,90,0
0,64,112,14
0,63,124,14
0,62,124,20
0,61,83,38
0,55,74,0
0,33,83,2
0,64,120,206
0,66,124,26
0,64,110,24
0,67,121,30
0,62,73,2
0,56,82,2
0,34,90,0
0,67,127,194
0,61,74,98
0,55,77,2
0,33,85,0
0,64,117,208
0,66,120,20
0,64,110,38
0,67,117,32
0,62,78,0
0,56,77,2
0,34,97,0
0,66,112,22
0,65,123,8
0,64,121,10
0,63,101,30
0,57,86,0
0,35,76,2
0,66,70,238
0,68,81,12
0,66,77,262
0,69,80,30
0,64,86,0
0,58,95,2
0,36,92,0
0,69,82,330
0,69,87,278
0,63,93,0
0,59,66,2
0,57,86,0
0,35,81,0
0,71,92,156
0,71,93,2
0,59,90,0
0,73,92,146
0,73,107,0
0,61,92,2
0,75,97,128
0,75,107,0
0,63,107,2
0,76,103,84
0,64,103,2
0,76,103,0
0,64,103,2
0,57,121,0
0,35,85,2
0,71,99,352
0,68,105,2
0,64,97,0
0,71,82,0
0,68,101,2
0,64,92,0
0,59,89,2
0,56,95,0
0,52,89,2
0,28,103,0
0,39,109,0
0,35,83,2
0,39,36,54
0,39,48,36
0,39,60,46
0,39,73,42
0,39,85,62
0,39,97,22
0,39,109,44
0,74,86,16
0,62,86,0
0,69,107,2
0,74,86,0
0,62,86,2
0,66,105,0
0,50,95,0
0,57,101,2
0,35,103,0
0,39,113,2
0,72,107,122
0,60,107,2
0,72,107,0
0,60,107,0
0,66,107,2
0,50,90,0
0,57,95,2
0,35,97,0
0,39,90,2
0,69,105,18
0,69,105,102
0,74,90,26
0,62,90,2
0,74,90,0
0,62,90,0
0,66,105,2
0,57,95,0
0,50,86,2
0,35,97,0
0,39,83,2
0,72,105,128
0,60,105,2
0,69,101,0
0,72,105,2
0,60,105,0
0,66,103,2
0,57,92,0
0,50,86,2
0,35,92,0
0,39,95,0
0,74,86,140
0,62,86,0
0,74,86,2
0,62,86,0
0,66,95,0
0,50,82,2
0,57,89,0
0,35,93,2
0,39,89,0
0,69,99,18
0,69,103,104
0,72,95,26
0,60,95,0
0,72,95,2
0,60,95,0
0,66,101,0
0,50,90,2
0,57,90,0
0,35,93,2
0,39,87,0
0,71,95,120
0,59,95,2
0,68,105,0
0,71,95,0
0,59,95,2
0,64,97,0
0,56,95,2
0,52,105,0
0,28,92,2
0,39,103,0
0,35,89,2
0,69,86,148
0,57,86,2
0,66,109,0
0,69,86,2
0,57,86,0
0,62,95,2
0,54,105,0
0,30,95,2
0,39,103,0
0,68,93,34
0,56,93,0
0,64,107,2
0,68,93,0
0,56,93,0
0,59,89,2
0,56,99,0
0,52,103,2
0,32,89,0
0,39,99,2
0,67,103,204
0,55,103,2
0,64,113,0
0,67,103,0
0,55,103,2
0,61,111,0
0,55,101,2
0,52,99,0
0,33,92,0
0,57,121,2
0,39,113,2
0,35,91,0
0,69,87,88
0,57,87,0
0,64,103,0
0,69,87,2
0,57,87,0
0,61,103,2
0,55,99,0
0,52,93,2
0,33,89,0
0,39,103,2
0,70,101,166
0,58,101,2
0,64,105,0
0,70,101,2
0,58,101,0
0,60,113,0
0,55,101,2
0,52,93,2
0,31,103,0
0,39,93,0
0,71,90,168
0,59,90,0
0,68,105,2
0,71,90,0
0,59,90,0
0,64,105,2
0,56,101,0
0,52,103,2
0,32,92,0
0,57,119,2
0,39,115,0
0,35,91,2
0,68,93,140
0,56,93,2
0,64,105,0
0,68,93,2
0,56,93,0
0,59,93,0
0,56,87,2
0,52,93,0
0,32,93,2
0,39,99,0
0,64,90,202
0,52,90,0
0,59,109,2
0,64,90,0
0,52,90,0
0,56,99,2
0,56,87,0
0,52,90,2
0,32,85,0
0,39,99,2
0,62,90,212
0,50,90,0
0,62,90,2
0,50,90,0
0,50,101,2
0,57,89,0
0,50,101,2
0,30,86,0
0,57,119,2
0,39,109,0
0,35,87,0
0,57,113,30
0,60,97,174
0,48,97,0
0,57,103,0
0,60,97,2
0,48,97,0
0,50,107,2
0,57,92,0
0,50,95,2
0,30,92,0
0,39,95,0
0,35,89,2
0,59,90,184
0,47,90,0
0,57,107,2
0,59,90,0
0,47,90,2
0,50,107,0
0,57,95,0
0,50,97,2
0,30,89,0
0,39,97,2
0,35,93,0
0,65,70,98
0,59,77,0
0,50,92,2
0,62,71,0
0,55,61,2
0,43,74,0
0,78,127,178
0,79,117,36
0,79,127,162
0,79,127,172
0,79,127,32
0,78,127,30
0,77,127,18
0,77,127,162
0,77,127,172
0,77,127,172
0,78,127,40
0,79,127,46
0,79,127,80
0,79,127,168
0,79,125,172
0,80,127,18
0,81,108,12
0,82,127,0
0,82,127,154
0,82,127,158
0,82,127,162
0,83,127,26
0,79,127,116
0,76,118,110
0,79,127,76
0,77,127,38
0,76,124,16
0,74,127,128
0,70,106,108
0,71,127,114
0,74,127,18
0,71,127,222
0,67,127,36
0,53,78,248
0,41,78,0
0,65,107,2
0,39,113,2
0,35,81,0
0,52,87,56
0,40,86,2
0,64,109,0
0,39,99,2
0,35,79,0
0,50,95,202
0,38,80,2
0,62,99,0
0,39,99,2
0,35,87,0
0,64,93,30
0,67,60,2
0,64,63,0
0,60,71,2
0,57,75,0
0,36,87,0
0,60,109,2
0,51,84,0
0,35,79,2
0,81,109,96
0,69,111,0
0,67,95,2
0,64,107,0
0,60,101,2
0,51,82,0
0,39,95,0
0,36,82,116
0,71,92,2
0,83,107,2
0,64,99,0
0,67,92,0
0,60,93,2
0,51,88,0
0,35,93,0
0,72,99,154
0,84,103,0
0,60,93,0
0,64,103,2
0,67,95,0
0,51,88,2
0,39,90,0
0,67,103,78
0,40,95,0
0,39,90,2
0,66,111,14
0,66,81,2
0,63,73,0
0,60,76,2
0,57,70,0
0,39,103,0
0,60,90,2
0,63,111,0
0,66,107,2
0,51,88,0
0,35,97,0
0,81,113,212
0,69,115,0
0,63,111,2
0,66,109,0
0,60,89,0
0,51,90,2
0,39,103,0
0,39,105,22
0,71,103,0
0,83,113,2
0,63,111,0
0,66,103,2
0,60,83,0
0,51,88,0
0,35,93,2
0,84,103,196
0,72,101,2
0,63,109,0
0,60,85,2
0,66,101,0
0,51,90,0
0,39,105,2
0,65,65,192
0,62,66,0
0,60,73,2
0,57,77,0
0,38,87,0
0,74,107,2
0,86,109,2
0,62,99,0
0,65,93,0
0,60,83,2
0,51,86,0
0,35,95,0
0,60,87,74
0,62,99,2
0,65,101,0
0,51,88,0
0,39,111,2
0,71,101,74
0,67,87,0
0,65,69,2
0,62,76,0
0,59,81,0
0,31,101,2
0,79,101,0
0,67,105,2
0,72,86,12
0,69,97,0
0,65,78,0
0,60,77,2
0,57,101,0
0,33,95,2
0,67,107,0
0,79,103,2
0,60,92,0
0,65,92,0
0,62,105,2
0,51,88,0
0,35,99,2
0,65,93,252
0,60,92,2
0,62,105,0
0,51,84,0
0,39,107,2
0,73,105,208
0,70,109,2
0,64,74,0
0,61,81,2
0,58,97,0
0,34,109,0
0,64,99,2
0,58,105,0
0,67,89,2
0,51,86,0
0,35,97,2
0,58,109,278
0,67,85,0
0,64,103,2
0,51,86,0
0,39,107,2
0,74,92,108
0,71,101,2
0,65,74,0
0,62,74,2
0,59,80,0
0,35,92,0
0,62,99,2
0,59,97,2
0,65,93,0
0,51,84,0
0,35,99,2
0,39,92,62
0,62,101,68
0,65,89,0
0,59,89,0
0,51,80,2
0,39,99,0
0,39,105,0
0,35,74,2
0,69,103,44
0,69,75,2
0,65,78,0
0,62,86,0
0,38,95,2
0,62,97,0
0,57,89,2
0,65,90,0
0,51,78,2
0,35,91,0
0,86,111,214
0,74,113,0
0,62,97,0
0,57,92,2
0,65,90,0
0,51,84,2
0,39,105,0
0,33,92,156
0,76,105,2
0,88,107,0
0,65,83,2
0,62,95,0
0,57,92,0
0,51,80,2
0,35,95,0
0,89,109,228
0,77,111,2
0,65,85,0
0,62,97,2
0,57,90,0
0,51,84,0
0,39,103,2
0,70,113,44
0,70,82,0
0,68,80,2
0,65,70,0
0,62,72,2
0,38,99,0
0,65,78,0
0,62,97,2
0,56,105,0
0,51,88,2
0,35,97,0
0,86,113,232
0,74,113,2
0,56,105,0
0,62,95,2
0,65,89,0
0,51,90,0
0,39,101,2
0,71,103,96
0,71,77,2
0,67,81,2
0,64,82,0
0,31,107,0
0,76,103,2
0,88,109,0
0,59,90,2
0,67,90,0
0,64,90,0
0,51,88,2
0,35,97,0
0,39,56,8
0,67,82,132
0,65,78,2
0,62,72,0
0,29,101,0
0,77,109,2
0,89,105,0
0,59,92,2
0,62,103,0
0,65,95,0
0,51,88,2
0,39,103,0
0,39,85,10
0,72,97,70
0,60,87,0
0,57,86,2
0,55,105,0
0,52,93,0
0,28,85,2
0,91,127,0
0,79,127,2
0,60,92,0
0,64,83,0
0,55,78,2
0,51,66,0
0,35,91,2
0,64,87,24
0,55,86,0
0,60,97,2
0,51,83,0
0,39,90,2
0,84,127,10
0,72,127,2
0,77,92,76
0,74,97,2
0,65,107,0
0,62,111,2
0,29,74,0
0,84,127,2
0,72,127,0
0,57,87,0
0,60,103,2
0,65,93,0
0,51,75,0
0,35,93,2
0,60,105,236
0,65,90,0
0,57,89,2
0,51,85,0
0,39,109,2
0,78,109,156
0,75,111,0
0,66,105,2
0,63,109,0
0,30,83,2
0,57,89,0
0,66,93,2
0,60,95,0
0,51,86,0
0,35,97,2
0,60,101,252
0,66,95,0
0,57,89,0
0,51,85,2
0,39,111,0
0,79,95,12
0,76,99,2
0,67,99,0
0,64,107,0
0,31,86,2
0,64,92,0
0,60,95,2
0,67,83,0
0,51,83,2
0,35,97,0
0,39,80,48
0,67,87,12
0,60,101,2
0,64,97,0
0,51,86,0
0,39,99,2
0,39,105,10
0,84,101,68
0,81,103,0
0,69,99,2
0,57,115,0
0,33,83,0
0,76,127,2
0,64,95,2
0,60,101,0
0,57,87,0
0,51,87,2
0,35,97,0
0,60,103,252
0,57,93,2
0,64,92,0
0,51,92,2
0,39,113,0
0,72,127,38
0,40,89,38
0,74,127,2
0,64,87,2
0,57,92,0
0,60,101,0
0,51,89,2
0,35,95,0
0,60,103,258
0,64,86,2
0,57,95,0
0,51,87,0
0,39,103,2
0,72,127,92
0,84,95,32
0,80,117,0
0,68,103,0
0,60,101,2
0,56,117,0
0,33,85,2
0,76,127,0
0,56,105,2
0,60,101,0
0,64,95,0
0,51,87,2
0,35,93,0
0,56,105,242
0,60,101,2
0,64,87,0
0,51,86,0
0,39,103,2
0,72,127,18
0,79,97,4
0,67,93,2
0,55,97,0
0,33,82,2
0,74,127,0
0,64,89,2
0,60,99,0
0,55,90,0
0,51,93,2
0,35,91,0
0,64,87,234
0,60,90,0
0,55,78,2
0,51,85,0
0,39,99,2
0,72,127,32
0,83,82,16
0,79,87,2
0,67,90,0
0,59,99,2
0,55,101,0
0,40,83,0
0,76,127,2
0,59,101,0
0,64,93,2
0,55,89,0
0,51,66,2
0,35,91,0
0,59,101,236
0,55,85,2
0,64,90,0
0,51,89,2
0,39,107,0
0,71,92,8
0,55,99,0
0,52,87,2
0,71,127,0
0,73,105,2
0,71,90,0
0,49,107,2
0,42,92,0
0,69,127,0
0,71,127,2
0,61,115,0
0,57,85,2
0,51,86,0
0,35,95,0
0,75,113,62
0,51,115,0
0,47,80,2
0,63,113,0
0,57,87,2
0,51,89,0
0,39,105,2
0,78,115,52
0,54,117,0
0,40,86,2
0,67,120,0
0,71,123,2
0,55,81,0
0,59,97,0
0,51,85,2
0,35,93,0
0,76,103,76
0,52,107,2
0,55,90,0
0,59,103,2
0,51,89,0
0,39,97,2
0,75,113,90
0,51,111,0
0,40,76,2
0,59,101,0
0,55,90,2
0,51,85,0
0,35,91,2
0,76,99,80
0,52,103,0
0,59,99,2
0,55,89,0
0,51,93,2
0,39,109,0
0,59,92,10
0,55,92,2
0,52,107,0
0,74,127,2
0,35,91,0
0,62,111,440
0,38,89,2
0,62,117,0
0,57,109,2
0,39,113,0
0,35,95,0
0,55,97,72
0,52,83,2
0,50,103,0
0,71,127,0
0,56,113,34
0,53,77,2
0,50,109,0
0,72,127,0
0,62,111,266
0,38,85,0
0,62,111,2
0,57,111,0
0,39,109,2
0,35,91,0
0,56,103,34
0,53,82,0
0,50,107,2
