track,note,velocity,time
1,66,101,960
1,66,0,59
1,66,97,241
1,66,0,59
1,66,101,31
1,66,0,89
1,67,80,1
1,67,0,60
1,67,80,240
1,67,0,60
1,67,80,30
1,66,101,90
1,67,0,0
1,66,0,59
1,66,97,241
1,66,0,59
1,66,101,31
1,66,0,89
1,67,80,1
1,67,0,60
1,67,80,240
1,67,0,60
1,67,80,30
1,66,101,90
1,67,0,0
1,66,0,59
1,66,97,241
1,66,0,59
1,66,101,31
1,66,0,89
1,67,80,1
1,67,0,60
1,67,80,240
1,67,0,60
1,67,80,30
1,66,101,90
1,67,0,0
1,66,0,59
1,66,97,241
1,66,0,59
1,66,101,31
1,66,0,89
1,67,80,1
1,67,0,60
1,67,80,240
1,67,0,60
1,67,80,30
1,66,101,90
1,67,0,0
1,66,0,59
1,66,97,241
1,66,0,59
1,66,101,31
1,66,0,89
1,67,80,1
1,67,0,60
1,67,80,240
1,67,0,60
1,67,80,30
1,66,101,90
1,67,0,0
1,66,0,59
1,66,97,241
1,66,0,59
1,66,101,31
1,66,0,89
1,67,80,1
1,67,0,60
1,67,80,240
1,67,0,60
1,67,80,30
1,66,101,90
1,67,0,0
1,66,0,59
1,66,97,241
1,66,0,59
1,66,101,31
1,66,0,89
1,67,80,1
1,67,0,60
1,67,80,240
1,67,0,60
1,67,80,30
1,66,101,90
1,67,0,0
1,66,0,59
1,66,97,241
1,66,0,59
1,66,101,31
1,66,0,89
1,67,101,1
1,67,0,60
1,66,101,420
1,66,0,59
1,66,97,241
1,66,0,59
1,66,101,31
1,66,0,89
1,67,80,1
1,67,0,60
1,67,80,240
1,67,0,60
1,67,80,30
1,66,101,90
1,67,0,0
1,66,0,59
1,66,97,241
1,66,0,59
1,66,101,31
1,66,0,89
1,67,80,1
1,67,0,60
1,67,80,240
1,67,0,60
1,67,80,30
1,66,101,90
1,67,0,0
1,66,0,59
1,66,97,241
1,66,0,59
1,66,101,31
1,66,0,89
1,67,80,1
1,67,0,60
1,67,80,240
1,67,0,60
1,67,80,30
1,66,101,90
1,67,0,0
1,66,0,59
1,66,97,241
1,66,0,59
1,66,101,31
1,66,0,89
1,67,80,1
1,67,0,60
1,74,127,840
1,74,0,29
1,74,101,1
1,74,0,29
1,74,126,1
1,74,0,29
1,74,113,31
1,74,0,29
1,74,127,1
1,74,0,29
1,74,93,1
1,74,0,29
1,74,89,31
1,74,0,29
1,78,127,1
1,78,0,29
1,78,127,31
1,78,0,29
1,74,98,1
1,74,0,29
1,71,94,1
1,71,0,29
1,74,126,1
1,74,0,29
1,71,126,1
1,71,0,29
1,74,127,1
1,74,0,59
1,78,127,481
1,78,0,29
1,78,127,31
1,78,0,59
1,76,105,1
1,76,0,29
1,74,111,1
1,74,0,29
1,71,120,1
1,71,0,29
1,74,127,1
1,74,0,29
1,74,124,31
1,74,0,59
1,71,98,1
1,71,0,29
1,74,127,1
1,74,0,29
1,71,127,1
1,71,0,29
1,74,127,1
1,74,0,29
1,81,64,511
1,81,0,959
1,64,67,901
1,64,0,29
1,66,74,1
1,66,0,29
1,67,73,1
1,67,0,59
1,66,61,1
1,66,0,29
1,67,73,1
1,67,0,29
1,69,65,1
1,69,0,59
1,67,70,1
1,67,0,29
1,69,78,1
1,69,0,29
1,71,79,1
1,71,0,59
1,69,75,1
1,69,0,29
1,71,87,1
1,71,0,29
1,73,72,1
1,73,0,59
1,71,71,1
1,71,0,29
1,73,70,1
1,73,0,29
1,74,88,1
1,66,101,0
1,66,0,59
1,74,0,0
1,66,97,241
1,66,0,59
1,66,101,31
1,66,0,89
1,67,80,1
1,67,0,60
1,67,80,240
1,67,0,60
1,67,80,30
1,66,101,90
1,67,0,0
1,66,0,59
1,66,97,241
1,66,0,59
1,66,101,31
1,66,0,89
1,67,80,1
1,67,0,60
1,67,80,240
1,67,0,60
1,67,80,30
1,66,101,90
1,67,0,0
1,66,0,59
1,66,97,241
1,66,0,59
1,66,101,31
1,66,0,89
1,67,80,1
1,67,0,60
1,67,80,240
1,67,0,60
1,67,80,30
1,66,101,90
1,67,0,0
1,66,0,59
1,66,97,241
1,66,0,59
1,66,101,31
1,66,0,89
1,67,80,1
1,67,0,60
1,67,80,240
1,67,0,60
1,67,80,30
1,66,101,90
1,67,0,0
1,66,0,59
1,66,97,241
1,66,0,59
1,66,101,31
1,66,0,89
1,67,80,1
1,67,0,60
1,81,78,900
1,81,0,479
1,67,104,2821
1,67,0,29
1,69,79,1
1,69,0,29
1,71,110,1
1,71,0,59
1,69,101,1
1,69,0,29
1,71,127,1
1,71,0,59
1,69,81,1
1,69,0,29
1,71,117,1
1,71,0,59
1,69,113,1
1,71,113,30
1,69,0,0
1,74,119,30
1,71,0,0
1,74,0,59
1,81,109,1
1,81,0,240
1,83,127,300
1,83,0,119
1,81,127,1
1,81,0,59
1,74,127,1
1,74,0,59
1,71,85,1
1,71,0,59
1,74,127,1
1,74,0,59
1,71,127,1
1,74,127,30
1,71,0,0
1,71,127,60
1,74,0,0
1,74,127,30
1,71,0,0
1,74,0,60
1,66,104,240
1,67,104,90
1,66,0,0
1,69,104,60
1,67,0,0
1,69,0,180
1,67,104,30
1,67,0,90
1,66,127,30
1,78,127,60
1,66,0,0
1,79,127,60
1,78,0,0
1,64,93,60
1,79,0,0
1,64,0,29
1,66,100,1
1,66,0,29
1,67,100,1
1,67,0,59
1,66,93,1
1,66,0,29
1,67,94,1
1,67,0,29
1,69,113,1
1,69,0,59
1,67,100,1
1,67,0,29
1,69,100,1
1,69,0,29
1,71,98,1
1,71,0,59
1,69,96,1
1,69,0,29
1,71,110,1
1,71,0,29
1,73,98,1
1,73,0,59
1,71,81,1
1,71,0,29
1,73,89,1
1,73,0,29
1,74,104,1
1,74,0,59
1,66,97,241
1,66,0,59
1,66,101,31
1,66,0,89
1,67,80,1
1,67,0,60
1,67,80,240
1,67,0,60
1,67,80,30
1,66,101,90
1,67,0,0
1,66,0,59
1,66,97,241
1,66,0,59
1,66,101,31
1,66,0,89
1,67,80,1
1,67,0,60
1,67,80,240
1,67,0,60
1,67,80,30
1,66,127,90
1,67,0,0
1,66,0,59
1,67,80,421
1,67,0,60
1,67,80,240
1,67,0,60
1,67,80,30
1,66,127,90
1,67,0,0
1,66,0,59
1,67,110,421
1,67,0,59
1,74,122,187
1,74,0,26
1,74,122,89
1,74,0,24
1,74,78,155
1,74,0,59
1,71,74,1
1,71,0,59
1,69,94,1
1,69,0,119
1,66,103,1
1,66,0,119
1,67,74,1
1,67,0,119
1,64,72,1
1,64,0,59
1,67,80,1
1,67,0,59
1,71,87,1
1,71,0,119
1,71,74,1
1,71,0,59
1,76,69,1
1,76,0,59
1,79,84,1
1,79,0,59
1,71,87,121
1,69,76,120
1,71,0,0
1,69,0,119
1,66,90,1
1,66,0,119
1,64,90,1
1,67,87,60
1,64,0,0
1,67,0,59
1,71,72,1
1,71,0,59
1,76,94,1
1,76,0,119
1,64,94,1
1,64,0,59
1,67,65,1
1,67,0,59
1,64,110,1
1,64,0,59
1,69,70,121
1,69,0,119
1,69,52,61
1,69,0,29
1,71,62,1
1,71,0,29
1,74,90,1
1,74,0,119
1,71,90,61
1,71,0,29
1,74,90,1
1,74,0,29
1,76,90,1
1,76,0,239
1,69,60,121
1,71,60,30
1,69,0,0
1,74,60,30
1,71,0,0
1,69,60,60
1,74,0,0
1,71,60,30
1,69,0,0
1,74,60,30
1,71,0,0
1,74,60,30
1,74,0,0
1,74,0,30
1,76,73,240
1,76,0,119
1,78,77,1
1,78,0,59
1,79,90,1
1,79,0,59
1,81,94,1
1,74,88,240
1,66,101,0
1,81,0,0
1,66,0,59
1,74,0,0
1,66,97,241
1,66,0,59
1,66,101,31
1,66,0,89
1,67,80,1
1,67,0,60
1,67,80,240
1,67,0,60
1,67,80,30
1,66,101,90
1,67,0,0
1,66,0,59
1,66,97,241
1,66,0,59
1,66,101,31
1,66,0,89
1,67,80,1
1,67,0,60
1,67,80,240
1,67,0,60
1,67,80,30
1,66,101,90
1,67,0,0
1,66,0,59
1,66,97,241
1,66,0,59
1,66,101,31
1,66,0,89
1,67,80,1
1,67,0,60
1,67,80,270
1,67,0,60
1,67,80,30
1,67,0,60
1,66,92,300
1,66,0,59
1,66,97,31
1,66,0,89
1,67,87,1
1,67,0,59
1,67,106,61
1,67,0,119
1,67,84,61
1,67,0,59
1,67,82,31
1,67,0,89
1,83,103,901
1,83,0,179
1,81,106,1
1,81,0,119
1,78,77,1
1,78,0,59
1,81,94,1
1,81,0,29
1,81,94,31
1,81,0,59
1,78,68,1
1,78,0,29
1,81,103,31
1,81,0,179
1,78,97,1
1,78,0,59
1,81,78,1
1,81,0,89
1,78,56,1
1,78,0,29
1,74,69,121
1,74,0,59
1,71,58,31
1,71,0,29
1,74,67,1
1,74,0,29
1,74,59,31
1,74,0,29
1,71,51,1
1,71,0,29
1,74,74,1
1,74,0,59
1,71,59,1
1,71,0,59
1,74,84,1
1,74,0,59
1,62,70,631
1,62,0,30
1,62,70,60
1,62,70,30
1,62,0,0
1,62,0,30
1,62,70,90
1,62,0,30
1,62,70,60
1,62,0,30
1,62,70,60
1,62,0,30
1,62,70,30
1,62,0,30
1,62,70,60
1,62,0,30
1,62,70,60
1,62,0,30
1,62,70,60
1,62,0,30
1,62,70,30
1,62,0,30
1,62,70,60
1,62,0,30
1,62,70,30
1,62,0,30
1,62,70,60
1,62,70,30
1,62,0,0
1,62,0,30
1,62,70,120
1,62,0,30
1,62,70,30
1,62,0,30
1,62,70,30
1,62,0,30
1,62,70,30
1,62,0,30
1,62,70,30
1,62,0,30
1,62,70,60
1,62,70,30
1,62,0,0
1,62,0,30
1,62,70,30
1,62,70,30
1,62,0,0
1,62,70,30
1,62,0,0
1,62,0,30
1,62,70,30
1,62,0,30
1,62,70,60
1,62,0,30
1,62,70,30
1,62,70,30
1,62,0,0
1,62,0,30
1,62,70,60
1,62,0,30
1,62,70,30
1,62,0,30
1,62,70,60
1,62,0,30
1,71,94,90
1,71,0,59
1,69,65,1
1,69,0,59
1,71,64,1
1,71,0,59
1,73,85,1
1,73,0,59
1,71,78,1
1,71,0,59
1,73,100,1
1,73,0,59
1,74,92,1
1,74,0,59
1,76,90,1
1,76,0,59
1,78,127,1
1,78,0,59
1,78,127,1
1,78,0,59
1,76,113,1
1,76,0,29
1,74,84,1
1,74,0,29
1,71,97,1
1,71,0,29
1,74,110,1
1,74,0,29
1,74,87,31
1,74,0,59
1,71,69,1
1,71,0,29
1,74,127,1
1,74,0,29
1,71,103,1
1,71,0,29
1,74,127,1
1,74,0,29
1,74,127,91
1,74,0,29
1,74,106,31
1,74,0,29
1,71,82,1
1,71,0,29
1,74,87,1
1,74,0,29
1,78,127,1
1,78,0,29
1,78,122,61
1,78,0,29
1,81,113,31
1,81,0,29
1,78,94,31
1,78,0,29
1,81,127,91
1,81,0,29
1,81,110,31
1,81,0,29
1,78,122,1
1,78,0,29
1,81,92,1
1,81,0,29
1,78,103,1
1,78,0,29
1,83,113,1
1,83,0,29
1,81,106,31
1,81,0,29
1,78,127,31
1,78,0,59
1,76,94,1
1,76,0,29
1,74,118,1
1,74,0,29
1,71,127,1
1,71,0,29
1,74,80,1
1,74,0,29
1,71,103,1
1,71,0,29
1,74,97,1
1,74,0,29
1,71,97,1
1,71,0,59
1,74,118,1
1,74,0,29
1,71,70,1
1,71,0,29
1,74,90,1
1,74,0,29
1,71,80,1
1,71,0,29
1,74,90,1
1,74,0,29
1,78,122,31
1,78,0,29
1,78,127,31
1,78,0,29
1,74,127,31
1,74,0,29
1,71,87,1
1,71,0,29
1,69,97,1
1,69,0,29
1,74,110,1
1,74,0,89
1,71,103,1
1,71,0,29
1,69,92,1
1,69,0,29
1,71,100,1
1,71,0,29
1,71,106,31
1,71,0,29
1,69,118,31
1,69,0,29
1,71,118,31
1,71,0,29
1,67,113,91
1,67,0,119
1,62,106,1
1,62,0,29
1,66,127,31
1,66,0,29
1,66,73,1
1,66,0,29
1,64,82,1
1,64,0,29
1,62,94,1
1,62,0,29
1,64,90,1
1,64,0,59
1,66,127,1
1,66,0,29
1,67,113,91
1,67,0,119
1,62,106,1
1,62,0,29
1,66,127,31
1,66,0,29
1,66,73,1
1,66,0,29
1,64,82,1
1,64,0,29
1,62,94,1
1,62,0,29
1,64,90,1
1,64,0,59
1,66,127,1
1,66,0,29
1,67,80,151
1,62,64,180
1,67,0,0
1,67,64,60
1,62,0,0
1,67,0,240
1,78,77,60
1,78,0,59
1,81,82,1
1,81,0,479
1,83,65,241
1,83,0,59
1,81,28,1
1,81,0,59
1,79,65,1
1,79,0,59
1,81,64,1
1,81,0,119
1,79,45,1
1,79,0,59
1,78,47,1
1,78,0,59
1,76,48,1
1,76,0,479
1,66,51,91
1,66,0,29
1,66,51,1
1,66,0,29
1,69,51,31
1,69,0,29
1,66,51,151
1,66,0,29
1,66,51,91
1,66,0,29
1,69,51,91
1,69,0,29
1,69,51,1
1,69,0,29
1,67,51,1
1,67,0,29
1,66,51,61
1,66,0,29
1,66,51,31
1,66,0,29
1,67,51,1
1,67,0,29
1,69,51,1
1,69,0,89
1,69,51,1
1,69,0,29
1,66,51,91
1,66,0,29
1,67,51,1
1,67,0,29
1,66,51,61
1,66,0,29
1,69,51,1
1,69,0,29
1,66,51,31
1,66,0,29
1,67,51,31
1,67,0,29
1,69,51,1
1,69,0,29
1,67,51,31
1,67,0,29
1,78,42,91
1,78,0,29
1,79,48,31
1,79,0,29
1,81,44,31
1,81,0,179
1,79,65,1
1,79,0,29
1,69,51,151
1,69,0,29
1,69,51,91
1,69,0,29
1,67,51,1
1,67,0,29
1,66,51,31
1,66,0,29
1,66,51,1
1,66,0,29
1,69,51,31
1,69,0,29
1,66,51,31
1,66,0,29
1,66,51,91
1,66,0,29
1,67,51,31
1,67,0,29
1,69,51,31
1,69,0,29
1,69,51,1
1,69,0,29
1,66,51,31
1,66,0,29
1,66,51,1
1,66,0,29
1,67,51,31
1,67,0,29
1,67,51,31
1,67,0,29
1,78,55,91
1,78,0,59
1,79,48,1
1,79,0,29
1,81,47,31
1,81,0,749
1,66,101,31
1,66,0,59
1,66,100,241
1,66,0,60
1,66,100,30
1,62,48,90
1,69,56,0
1,66,0,0
1,62,48,30
1,69,56,0
1,69,0,0
1,62,0,0
1,62,48,30
1,69,56,0
1,62,0,0
1,69,0,0
1,62,48,30
1,69,56,0
1,62,0,0
1,69,0,0
1,62,48,30
1,69,56,0
1,62,0,0
1,69,0,0
1,62,0,30
1,69,0,0
1,62,48,30
1,69,56,0
1,62,48,30
1,69,56,0
1,69,0,0
1,62,0,0
1,62,0,30
1,69,0,0
1,62,48,30
1,69,56,0
1,62,48,30
1,69,56,0
1,69,0,0
1,62,0,0
1,62,48,30
1,69,56,0
1,62,0,0
1,69,0,0
1,62,48,30
1,69,56,0
1,62,0,0
1,69,0,0
1,62,0,30
1,69,0,0
1,62,48,30
1,69,56,0
1,69,0,30
1,62,0,0
1,62,48,90
1,69,69,0
1,69,0,29
1,62,48,1
1,69,68,0
1,62,0,0
1,69,0,29
1,62,48,1
1,69,69,0
1,62,0,0
1,69,0,29
1,62,0,1
1,62,48,30
1,69,57,0
1,69,0,29
1,62,48,1
1,69,82,0
1,62,0,0
1,69,0,29
1,62,0,1
1,62,48,30
1,69,75,0
1,69,0,29
1,62,48,1
1,69,80,0
1,62,0,0
1,69,0,29
1,62,48,1
1,69,75,0
1,62,0,0
1,69,0,29
1,62,48,1
1,69,80,0
1,62,0,0
1,69,0,29
1,62,0,1
1,62,48,30
1,69,88,0
1,69,0,29
1,62,0,1
1,62,48,30
1,69,67,0
1,69,0,29
1,62,0,1
1,62,48,90
1,69,62,0
1,69,0,29
1,62,0,1
1,62,48,30
1,69,49,0
1,69,0,29
1,62,48,1
1,69,59,0
1,62,0,0
1,69,0,29
1,62,0,1
1,62,48,30
1,69,52,0
1,69,0,29
1,62,48,1
