track,note,velocity,time
1,56,127,0
1,63,127,2
1,70,127,2
1,61,127,2
1,68,127,2
1,60,127,2
1,67,127,2
1,58,127,2
1,65,127,2
1,61,127,2
1,68,127,2
1,60,127,2
1,56,127,2
1,63,127,2
1,70,127,2
1,61,127,2
1,68,127,2
1,60,127,2
1,67,127,2
1,58,127,2
1,65,127,2
1,61,127,2
1,68,127,2
1,60,127,2
1,56,127,2
1,63,127,2
1,70,127,2
1,61,127,2
1,68,127,2
1,60,127,2
1,67,127,2
1,58,127,2
1,65,127,2
1,61,127,2
1,68,127,2
1,60,127,2
1,56,127,2
1,63,127,2
1,70,127,2
1,61,127,2
1,68,127,2
1,60,127,2
1,67,127,2
1,56,127,482
1,63,127,2
1,70,127,2
1,61,127,2
1,68,127,2
1,60,127,2
1,67,127,2
1,58,127,2
1,65,127,2
1,61,127,2
1,68,127,2
1,60,127,2
1,56,127,2
1,63,127,2
1,70,127,2
1,61,127,2
1,68,127,2
1,60,127,2
1,67,127,2
1,58,127,2
1,65,127,2
1,61,127,2
1,68,127,2
1,60,127,2
1,56,127,2
1,63,127,2
1,70,127,2
1,61,127,2
1,68,127,2
1,60,127,2
1,67,127,2
1,58,127,2
1,65,127,2
1,61,127,2
1,68,127,2
1,60,127,2
1,56,127,2
1,63,127,2
1,70,127,2
1,61,127,2
1,68,127,2
1,60,127,2
1,67,127,2
1,56,127,482
1,63,127,2
1,70,127,2
1,61,127,2
1,68,127,2
1,60,127,2
1,67,127,2
1,58,127,2
1,65,127,2
1,61,127,2
1,68,127,2
1,60,127,2
1,56,127,2
1,63,127,2
1,70,127,2
1,61,127,2
1,68,127,2
1,60,127,2
1,67,127,2
1,58,127,2
1,65,127,2
1,61,127,2
1,68,127,2
1,60,127,2
1,56,127,2
1,63,127,2
1,70,127,2
1,61,127,2
1,68,127,2
1,60,127,2
1,67,127,2
1,58,127,2
1,65,127,2
1,61,127,2
1,68,127,2
1,60,127,2
1,56,127,2
1,63,127,2
1,70,127,2
1,61,127,2
1,68,127,2
1,60,127,2
1,67,127,2
1,56,127,482
1,63,127,2
1,70,127,2
1,61,127,2
1,68,127,2
1,60,127,2
1,67,127,2
1,58,127,2
1,65,127,2
1,61,127,2
1,68,127,2
1,60,127,2
1,56,127,2
1,63,127,2
1,70,127,2
1,61,127,2
1,68,127,2
1,60,127,2
1,67,127,2
1,58,127,2
1,65,127,2
1,61,127,2
1,68,127,2
1,60,127,2
1,56,127,2
1,63,127,2
1,70,127,2
1,61,127,2
1,68,127,2
1,60,127,2
1,67,127,2
1,58,127,2
1,65,127,2
1,61,127,2
1,68,127,2
1,60,127,2
1,56,127,2
1,63,127,2
1,70,127,2
1,61,127,2
1,68,127,2
1,60,127,2
1,67,127,2
1,56,127,482
1,63,127,2
1,70,127,2
1,61,127,2
1,68,127,2
1,60,127,2
1,67,127,2
1,58,127,2
1,65,127,2
1,61,127,2
1,68,127,2
1,60,127,2
1,56,127,2
1,63,127,2
1,70,127,2
1,61,127,2
1,68,127,2
1,60,127,2
1,67,127,2
1,58,127,2
1,65,127,2
1,61,127,2
1,68,127,2
1,60,127,2
1,56,127,2
1,63,127,2
1,70,127,2
1,61,127,2
1,68,127,2
1,60,127,2
1,67,127,2
1,58,127,2
1,65,127,2
1,61,127,2
1,68,127,2
1,60,127,2
1,56,127,2
1,63,127,2
1,70,127,2
1,61,127,2
1,68,127,2
1,60,127,2
1,67,127,2
1,56,127,482
1,63,127,2
1,70,127,2
1,61,127,2
1,68,127,2
1,60,127,2
1,67,127,2
1,58,127,2
1,65,127,2
1,61,127,2
1,68,127,2
1,60,127,2
1,56,127,2
1,63,127,2
1,70,127,2
1,61,127,2
1,68,127,2
1,60,127,2
1,67,127,2
1,58,127,2
1,65,127,2
1,61,127,2
1,68,127,2
1,60,127,2
1,56,127,2
1,63,127,2
1,70,127,2
1,61,127,2
1,68,127,2
1,60,127,2
1,67,127,2
1,58,127,2
1,65,127,2
1,61,127,2
1,68,127,2
1,60,127,2
1,56,127,2
1,56,127,2
1,56,127,2
1,56,127,2
1,56,127,2
1,56,127,2
1,56,127,2
1,63,127,0
1,68,127,0
1,56,127,2
1,63,127,0
1,68,127,0
1,56,127,2
1,63,127,0
1,68,127,0
1,56,127,2
1,63,127,0
1,68,127,0
1,56,127,2
1,63,127,0
1,68,127,0
1,68,127,2
1,84,127,0
1,75,127,2
1,72,127,2
1,80,127,2
1,75,127,2
1,68,127,2
1,77,127,0
1,70,127,2
1,80,127,2
1,77,127,2
1,70,127,2
1,82,127,2
1,58,127,0
1,68,127,2
1,80,127,2
1,68,127,2
1,63,127,2
1,79,127,0
1,73,127,2
1,68,127,2
1,80,127,0
1,82,127,2
1,68,127,0
1,68,127,2
1,84,127,0
1,75,127,2
1,72,127,2
1,80,127,2
1,75,127,2
1,68,127,2
1,77,127,0
1,70,127,2
1,80,127,2
1,77,127,2
1,70,127,2
1,58,127,2
1,80,127,0
1,73,127,2
1,82,127,2
1,68,127,2
1,68,127,2
1,63,127,2
1,79,127,0
1,73,127,2
1,68,127,2
1,80,127,0
1,82,127,2
1,68,127,0
1,68,127,2
1,84,127,0
1,75,127,2
1,72,127,2
1,80,127,2
1,75,127,2
1,68,127,2
1,77,127,0
1,70,127,2
1,80,127,2
1,68,127,2
1,75,127,2
1,58,127,2
1,80,127,0
1,73,127,2
1,82,127,2
1,68,127,2
1,68,127,2
1,63,127,2
1,79,127,0
1,73,127,2
1,63,127,2
1,79,127,0
1,68,127,2
1,68,127,2
1,84,127,0
1,75,127,2
1,72,127,2
1,80,127,2
1,75,127,2
1,68,127,2
1,77,127,0
1,70,127,2
1,80,127,2
1,68,127,2
1,75,127,2
1,58,127,2
1,80,127,0
1,73,127,2
1,82,127,2
1,68,127,2
1,63,127,2
1,79,127,0
1,73,127,2
1,63,127,2
1,56,127,2
1,63,127,2
1,70,127,2
1,61,127,2
1,68,127,2
1,60,127,2
1,67,127,2
1,58,127,2
1,65,127,2
1,61,127,2
1,68,127,2
1,60,127,2
1,56,127,2
1,63,127,2
1,70,127,2
1,61,127,2
1,68,127,2
1,60,127,2
1,67,127,2
1,58,127,2
1,65,127,2
1,61,127,2
1,68,127,2
1,60,127,2
1,56,127,2
1,63,127,2
1,70,127,2
1,61,127,2
1,68,127,2
1,60,127,2
1,67,127,2
1,58,127,2
1,65,127,2
1,61,127,2
1,68,127,2
1,60,127,2
1,56,127,2
1,63,127,2
1,70,127,2
1,61,127,2
1,68,127,2
1,60,127,2
1,67,127,2
1,56,127,482
1,63,127,2
1,70,127,2
1,61,127,2
1,68,127,2
1,60,127,2
1,67,127,2
1,58,127,2
1,65,127,2
1,61,127,2
1,68,127,2
1,60,127,2
1,56,127,2
1,63,127,2
1,70,127,2
1,61,127,2
1,68,127,2
1,60,127,2
1,67,127,2
1,58,127,2
1,65,127,2
1,61,127,2
1,68,127,2
1,60,127,2
1,56,127,2
1,63,127,2
1,70,127,2
1,61,127,2
1,68,127,2
1,60,127,2
1,67,127,2
1,58,127,2
1,65,127,2
1,61,127,2
1,68,127,2
1,60,127,2
1,56,127,2
1,63,127,2
1,70,127,2
1,61,127,2
1,68,127,2
1,60,127,2
1,67,127,2
1,56,127,482
1,63,127,2
1,70,127,2
1,61,127,2
1,68,127,2
1,60,127,2
1,67,127,2
1,58,127,2
1,65,127,2
1,61,127,2
1,68,127,2
1,60,127,2
1,56,127,2
1,63,127,2
1,70,127,2
1,61,127,2
1,68,127,2
1,60,127,2
1,67,127,2
1,58,127,2
1,65,127,2
1,61,127,2
1,68,127,2
1,60,127,2
1,56,127,2
1,63,127,2
1,70,127,2
1,61,127,2
1,68,127,2
1,60,127,2
1,67,127,2
1,58,127,2
1,65,127,2
1,61,127,2
1,68,127,2
1,60,127,2
1,56,127,2
1,56,127,2
1,56,127,2
1,56,127,2
1,56,127,2
1,56,127,2
1,56,127,2
1,63,127,0
1,68,127,0
1,56,127,2
1,63,127,0
1,68,127,0
1,56,127,2
1,63,127,0
1,68,127,0
1,56,127,2
1,63,127,0
1,68,127,0
1,56,127,2
1,63,127,0
1,68,127,0
1,68,127,2
1,84,127,0
1,75,127,2
1,72,127,2
1,80,127,2
1,75,127,2
1,68,127,2
1,77,127,0
1,70,127,2
1,80,127,2
1,77,127,2
1,70,127,2
1,82,127,2
1,58,127,0
1,68,127,2
1,80,127,2
1,68,127,2
1,63,127,2
1,79,127,0
1,73,127,2
1,68,127,2
1,80,127,0
1,82,127,2
1,68,127,0
1,68,127,2
1,84,127,0
1,75,127,2
1,72,127,2
1,80,127,2
1,75,127,2
1,68,127,2
1,77,127,0
1,70,127,2
1,80,127,2
1,77,127,2
1,70,127,2
1,58,127,2
1,80,127,0
1,73,127,2
1,82,127,2
1,68,127,2
1,68,127,2
1,63,127,2
1,79,127,0
1,73,127,2
1,68,127,2
1,80,127,0
1,82,127,2
1,68,127,0
1,68,127,2
1,84,127,0
1,75,127,2
1,72,127,2
1,80,127,2
1,75,127,2
1,68,127,2
1,77,127,0
1,70,127,2
1,80,127,2
1,68,127,2
1,75,127,2
1,58,127,2
1,80,127,0
1,73,127,2
1,82,127,2
1,68,127,2
1,68,127,2
1,63,127,2
1,79,127,0
1,73,127,2
1,63,127,2
1,79,127,0
1,68,127,2
1,68,127,2
1,84,127,0
1,75,127,2
1,72,127,2
1,80,127,2
1,75,127,2
1,68,127,2
1,77,127,0
1,70,127,2
1,80,127,2
1,68,127,2
1,75,127,2
1,58,127,2
1,80,127,0
1,73,127,2
1,82,127,2
1,68,127,2
1,63,127,2
1,79,127,0
1,73,127,2
1,63,127,2
1,56,127,2
1,63,127,2
1,70,127,2
1,61,127,2
1,68,127,2
1,60,127,2
1,67,127,2
1,58,127,2
1,65,127,2
1,61,127,2
1,68,127,2
1,60,127,2
1,56,127,2
1,63,127,2
1,70,127,2
1,61,127,2
1,68,127,2
1,60,127,2
1,67,127,2
1,58,127,2
1,65,127,2
1,61,127,2
1,68,127,2
1,60,127,2
1,56,127,2
1,63,127,2
1,70,127,2
1,61,127,2
1,68,127,2
1,60,127,2
1,67,127,2
1,58,127,2
1,65,127,2
1,61,127,2
1,68,127,2
1,60,127,2
1,56,127,2
1,63,127,2
1,70,127,2
1,61,127,2
1,68,127,2
1,60,127,2
1,67,127,2
1,58,127,2
1,60,127,2
1,61,127,2
1,63,127,2
1,65,127,2
1,58,127,290
1,70,127,0
1,75,127,194
1,68,127,2
1,80,127,2
1,72,127,2
1,75,127,2
1,68,127,2
1,80,127,2
1,72,127,2
1,75,127,2
1,68,127,2
1,80,127,2
1,72,127,2
1,79,127,2
1,72,127,2
1,84,127,2
1,75,127,2
1,79,127,2
1,72,127,2
1,84,127,2
1,75,127,2
1,79,127,2
1,72,127,2
1,84,127,2
1,75,127,2
1,80,127,2
1,73,127,2
1,85,127,2
1,77,127,2
1,80,127,2
1,73,127,2
1,85,127,2
1,77,127,2
1,80,127,2
1,73,127,2
1,85,127,2
1,77,127,2
1,80,127,2
1,82,127,194
1,77,127,0
1,73,127,0
1,70,127,0
1,75,127,194
1,68,127,2
1,80,127,2
1,72,127,2
1,75,127,2
1,68,127,2
1,80,127,2
1,72,127,2
1,75,127,2
1,68,127,2
1,80,127,2
1,72,127,2
1,79,127,2
1,72,127,2
1,84,127,2
1,75,127,2
1,79,127,2
1,72,127,2
1,84,127,2
1,75,127,2
1,79,127,2
1,72,127,2
1,84,127,2
1,75,127,2
1,80,127,2
1,73,127,2
1,85,127,2
1,77,127,2
1,80,127,2
1,73,127,2
1,85,127,2
1,77,127,2
1,80,127,2
1,73,127,2
1,85,127,2
1,77,127,2
1,80,127,2
1,82,127,194
1,77,127,0
1,73,127,0
1,70,127,0
1,75,127,194
1,68,127,2
1,80,127,2
1,72,127,2
1,75,127,2
1,68,127,2
1,80,127,2
1,72,127,2
1,75,127,2
1,68,127,2
1,80,127,2
1,72,127,2
1,79,127,2
1,72,127,2
1,84,127,2
1,75,127,2
1,79,127,2
1,72,127,2
1,84,127,2
1,75,127,2
1,79,127,2
1,72,127,2
1,84,127,2
1,75,127,2
1,80,127,2
1,73,127,2
1,85,127,2
1,77,127,2
1,80,127,2
1,73,127,2
1,85,127,2
1,77,127,2
1,80,127,2
1,73,127,2
1,85,127,2
1,77,127,2
1,80,127,2
1,82,127,194
1,77,127,0
1,73,127,0
1,70,127,0
1,75,127,194
1,68,127,2
1,80,127,2
1,72,127,2
1,75,127,2
1,68,127,2
1,80,127,2
1,72,127,2
1,75,127,2
1,68,127,2
1,80,127,2
1,72,127,2
1,79,127,2
1,72,127,2
1,84,127,2
1,75,127,2
1,79,127,2
1,72,127,2
1,84,127,2
1,75,127,2
1,79,127,2
1,72,127,2
1,84,127,2
1,75,127,2
1,80,127,2
1,73,127,2
1,85,127,2
1,77,127,2
1,80,127,2
1,73,127,2
1,85,127,2
1,77,127,2
1,80,127,2
1,73,127,2
1,85,127,2
1,56,127,2
1,63,127,2
1,70,127,2
1,61,127,2
1,68,127,2
1,60,127,2
1,67,127,2
1,58,127,2
1,65,127,2
1,61,127,2
1,68,127,2
1,60,127,2
1,56,127,2
1,63,127,2
1,70,127,2
1,61,127,2
1,68,127,2
1,60,127,2
1,67,127,2
1,58,127,2
1,65,127,2
1,61,127,2
1,68,127,2
1,60,127,2
1,56,127,2
1,63,127,2
1,70,127,2
1,61,127,2
1,68,127,2
1,60,127,2
1,67,127,2
1,58,127,2
1,65,127,2
1,61,127,2
1,68,127,2
1,60,127,2
1,56,127,2
1,63,127,2
1,70,127,2
1,61,127,2
1,68,127,2
1,60,127,2
1,67,127,2
1,56,127,482
1,63,127,2
1,70,127,2
1,61,127,2
1,68,127,2
1,60,127,2
1,67,127,2
1,58,127,2
1,65,127,2
1,61,127,2
1,68,127,2
1,60,127,2
1,56,127,2
1,63,127,2
1,70,127,2
1,61,127,2
1,68,127,2
1,60,127,2
1,67,127,2
1,58,127,2
1,65,127,2
1,61,127,2
1,68,127,2
1,60,127,2
1,56,127,2
1,63,127,2
1,70,127,2
1,61,127,2
1,68,127,2
1,60,127,2
1,67,127,2
1,58,127,2
1,65,127,2
1,61,127,2
1,68,127,2
1,60,127,2
1,56,127,2
1,63,127,2
1,70,127,2
1,61,127,2
1,68,127,2
1,60,127,2
1,67,127,2
1,56,127,482
1,63,127,2
1,70,127,2
1,61,127,2
1,68,127,2
1,60,127,2
1,67,127,2
1,58,127,2
1,65,127,2
1,61,127,2
1,68,127,2
1,60,127,2
1,56,127,2
1,63,127,2
1,70,127,2
1,61,127,2
1,68,127,2
1,60,127,2
1,67,127,2
1,58,127,2
1,65,127,2
1,61,127,2
1,68,127,2
1,60,127,2
1,56,127,2
1,63,127,2
1,70,127,2
1,61,127,2
1,68,127,2
1,60,127,2
1,67,127,2
1,58,127,2
1,65,127,2
1,61,127,2
1,68,127,2
1,60,127,2
1,56,127,2
1,56,127,2
1,56,127,2
1,56,127,2
1,56,127,2
1,56,127,2
1,56,127,2
1,63,127,0
1,68,127,0
1,56,127,2
1,63,127,0
1,68,127,0
1,56,127,2
1,63,127,0
1,68,127,0
1,56,127,2
1,63,127,0
1,68,127,0
1,56,127,2
1,63,127,0
1,68,127,0
1,68,127,2
1,84,127,0
1,75,127,2
1,72,127,2
1,80,127,2
1,75,127,2
1,68,127,2
1,77,127,0
1,70,127,2
1,80,127,2
1,77,127,2
1,70,127,2
1,82,127,2
1,58,127,0
1,68,127,2
1,80,127,2
1,68,127,2
1,63,127,2
1,79,127,0
1,73,127,2
1,68,127,2
1,80,127,0
1,82,127,2
1,68,127,0
1,68,127,2
1,84,127,0
1,75,127,2
1,72,127,2
1,80,127,2
1,75,127,2
1,68,127,2
1,77,127,0
1,70,127,2
1,80,127,2
1,77,127,2
1,70,127,2
1,58,127,2
1,80,127,0
1,73,127,2
1,82,127,2
1,68,127,2
1,68,127,2
1,63,127,2
1,79,127,0
1,73,127,2
1,68,127,2
