track,note,velocity,time
2,76,110,6048
2,76,110,2
2,78,110,32
2,76,110,2
2,69,110,0
2,69,110,2
2,68,110,32
2,71,110,32
2,76,110,32
2,68,110,0
2,68,110,2
2,68,110,0
2,68,110,2
2,68,110,2
2,69,110,2
2,71,110,2
2,73,110,32
2,66,110,0
2,66,110,2
2,66,110,2
2,66,110,0
2,68,110,2
2,68,110,2
2,76,110,128
2,76,110,0
2,76,110,2
2,76,110,0
2,76,110,2
2,76,110,2
2,75,110,0
2,75,110,2
2,73,110,0
2,73,110,2
2,71,110,2
2,71,110,2
2,68,110,32
2,66,110,176
2,66,110,2
2,66,110,2
2,66,110,2
2,66,110,2
2,66,110,32
2,66,110,128
2,64,110,0
2,64,110,2
2,64,110,0
2,64,110,2
2,71,110,128
2,71,110,0
2,71,110,2
2,71,110,2
2,71,110,32
2,73,110,32
2,71,110,2
2,71,110,2
2,71,110,2
2,71,110,2
2,68,110,2
2,68,110,176
2,68,110,0
2,66,110,2
2,68,110,2
2,64,110,32
2,64,110,0
2,66,110,2
2,66,110,0
2,64,110,2
2,64,110,0
2,64,110,2
2,64,110,0
2,68,110,128
2,68,110,2
2,68,110,2
2,68,110,2
2,69,110,32
2,71,110,32
2,66,110,0
2,66,110,2
2,64,110,0
2,64,110,0
2,64,110,0
2,66,110,2
2,68,110,2
2,66,110,528
2,66,110,0
2,64,110,2
2,64,110,2
2,64,110,0
2,64,110,2
2,68,110,2
2,68,110,816
2,64,110,2
2,64,110,2
2,66,110,0
2,66,110,0
2,59,110,288
2,59,110,2
2,69,110,2
2,69,110,2
2,69,110,2
2,71,110,2
2,71,110,0
2,71,110,0
2,71,110,0
2,68,110,32
2,68,110,0
2,59,110,848
2,59,110,2
2,69,110,2
2,69,110,2
2,69,110,0
2,71,110,2
2,67,110,2
2,66,110,0
2,64,110,0
2,64,110,0
2,64,110,0
2,64,110,0
2,59,110,528
2,59,110,2
2,66,110,2
2,68,110,0
2,68,110,0
2,64,110,2
2,59,110,1280
2,59,110,2
2,66,110,2
2,68,110,0
2,68,110,0
2,64,110,2
2,68,110,2432
2,68,110,2
2,71,110,2
2,71,110,2
2,71,110,32
2,73,110,32
2,71,110,0
2,71,110,0
2,71,110,2
2,71,110,0
2,68,110,2
2,68,110,0
2,68,110,2
2,68,110,2
2,69,110,2
2,71,110,2
2,73,110,32
2,71,110,0
2,66,110,2
2,68,110,2
2,66,110,0
2,66,110,0
2,68,110,2
2,67,110,0
2,68,110,2
2,66,110,0
2,68,110,2
2,68,110,32
2,66,110,2
2,68,110,2
2,68,110,32
2,68,110,0
2,64,110,2
2,66,110,530
2,68,110,2
2,66,110,720
2,66,110,2
2,64,110,2
2,64,110,2
2,64,110,2
2,64,110,2
2,68,110,2
2,68,110,144
2,68,110,0
2,69,110,2
2,71,110,2
2,64,110,32
2,68,110,48
2,68,110,32
2,66,110,2
2,59,110,272
2,59,110,2
2,69,110,2
2,69,110,2
2,69,110,2
2,71,110,2
2,71,110,0
2,71,110,0
2,68,110,48
2,68,110,0
2,59,110,1088
2,59,110,2
2,66,110,2
2,68,110,0
2,68,110,0
2,64,110,2
2,59,110,896
2,59,110,2
2,66,110,2
2,68,110,0
2,68,110,0
2,64,110,2
2,68,110,2432
2,68,110,2
2,71,110,2
2,71,110,2
2,71,110,32
2,73,110,32
2,71,110,0
2,71,110,0
2,71,110,2
2,71,110,0
2,68,110,2
2,68,110,0
2,68,110,2
2,68,110,2
2,69,110,2
2,71,110,2
2,73,110,32
2,71,110,0
2,66,110,2
2,68,110,2
2,66,110,0
2,66,110,0
2,68,110,2
2,67,110,0
2,68,110,2
2,66,110,0
2,68,110,2
2,68,110,32
2,66,110,2
2,68,110,2
2,68,110,32
2,68,110,0
2,64,110,2
2,66,110,530
2,68,110,2
2,66,110,720
2,66,110,2
2,64,110,2
2,64,110,2
2,64,110,2
2,64,110,2
2,68,110,2
2,68,110,144
2,68,110,0
2,69,110,2
2,71,110,2
2,64,110,32
2,68,110,48
2,68,110,32
2,66,110,2
2,59,110,272
2,59,110,2
2,69,110,2
2,69,110,2
2,69,110,2
2,71,110,2
2,71,110,0
2,71,110,0
2,68,110,48
2,68,110,0
2,66,110,896
2,66,110,0
2,68,110,0
2,67,110,32
2,67,110,2
2,64,110,2
2,67,110,2
2,64,110,2
2,67,110,2
2,64,110,2
2,66,110,2
2,68,110,2
2,68,110,0
2,64,110,416
2,66,110,2
2,64,110,2
2,64,110,0
2,68,110,2
2,68,110,0
2,61,110,2
2,64,110,2
2,64,110,0
2,67,110,816
2,67,110,2
2,64,110,2
2,67,110,2
2,64,110,2
2,67,110,2
2,64,110,2
2,66,110,2
2,68,110,2
2,68,110,0
2,64,110,416
2,66,110,2
2,64,110,2
2,64,110,0
2,68,110,2
2,68,110,0
2,61,110,2
2,64,110,2
2,64,110,0
2,64,110,48
2,64,110,2
2,66,110,2
2,66,110,2
2,64,110,32
2,64,110,0
2,59,110,704
2,59,110,2
2,66,110,2
2,66,110,0
2,64,110,2
2,64,110,0
2,64,110,48
2,68,110,416
2,69,110,32
2,68,110,0
2,69,110,2
2,68,110,2
2,69,110,2
2,69,110,0
2,68,110,0
2,69,110,2
2,68,110,2
2,69,110,2
2,69,110,0
2,68,110,2
2,69,110,2
2,68,110,2
2,71,110,2
2,68,110,32
2,68,110,2
2,67,110,0
2,68,110,2
2,67,110,0
2,68,110,2
2,68,110,0
2,68,110,2
2,68,110,2
2,68,110,2
2,66,110,2
2,68,110,2
2,68,110,2
2,66,110,2
2,68,110,2
2,66,110,2
2,68,110,2
2,69,110,32
2,68,110,32
2,64,110,2
2,64,110,2
2,69,110,2
2,68,110,2
2,66,110,2
2,66,110,2
2,66,110,2
2,66,110,2
2,64,110,2
2,64,110,2
2,66,110,176
2,68,110,2
2,66,110,176
2,68,110,2
2,64,110,128
2,64,110,0
2,66,110,2
2,66,110,32
2,66,110,2
2,64,110,2
2,64,110,2
2,66,110,32
2,66,110,2
2,64,110,2
2,66,110,2
2,66,110,320
2,66,110,2
2,66,110,2
2,66,110,2
2,66,110,2
2,64,110,2
2,64,110,2
2,66,110,32
2,66,110,2
2,64,110,2
2,64,110,2
2,64,110,2
2,64,110,2
2,64,110,48
2,81,110,464
2,81,110,2
2,80,110,2
2,80,110,2
2,78,110,2
2,76,110,2
2,76,110,2
2,81,110,672
2,81,110,2
2,80,110,2
2,80,110,2
2,78,110,2
2,76,110,2
2,76,110,2
2,81,110,672
2,81,110,2
2,80,110,2
2,80,110,2
2,78,110,2
2,76,110,2
2,76,110,2
2,81,110,672
2,81,110,2
2,79,110,32
2,78,110,2
2,76,110,2
2,76,110,0
2,73,110,144
2,76,110,0
2,68,110,0
2,66,110,0
2,73,110,0
2,66,110,0
2,68,110,0
2,73,110,624
2,71,110,2
2,71,110,2
2,71,110,48
2,71,110,2
2,68,110,2
2,71,110,2
2,73,110,2
2,71,110,2
2,68,110,32
2,71,110,32
2,71,110,2
2,68,110,2
2,73,110,2
2,71,110,2
2,68,110,32
2,68,110,2
2,68,110,2
2,66,110,2
2,68,110,2
2,68,110,0
2,66,110,512
2,66,110,2
2,64,110,2
2,64,110,2
2,64,110,2
2,68,110,2
2,68,110,0
2,71,110,2240
2,71,110,32
2,71,110,0
2,71,110,2
2,69,110,32
2,68,110,2
2,68,110,0
2,66,110,2
2,68,110,2
2,66,110,2
2,68,110,2
2,68,110,0
2,68,110,32
2,64,110,2
2,69,110,2
2,66,110,32
2,66,110,2
2,64,110,2
2,68,110,336
2,66,110,2
2,68,110,2
2,68,110,0
2,66,110,2
2,64,110,2
2,64,110,0
2,69,110,2
2,67,110,32
2,66,110,2
2,64,110,2
2,64,110,0
2,81,110,2
2,81,110,0
2,79,110,32
2,78,110,2
2,76,110,2
3,64,110,0
3,59,110,32
3,64,110,0
3,64,110,2
3,64,110,2
3,64,110,2
3,64,110,2
3,64,110,2
3,64,110,2
3,64,110,2
3,64,110,2
3,59,110,32
3,64,110,0
3,64,110,2
3,64,110,2
3,64,110,2
3,64,110,2
3,64,110,2
3,64,110,2
3,64,110,2
3,64,110,2
3,59,110,32
3,64,110,0
3,64,110,2
3,64,110,2
3,64,110,2
3,64,110,2
3,64,110,2
3,64,110,2
3,64,110,2
3,64,110,2
3,59,110,32
3,64,110,0
3,64,110,2
3,64,110,2
3,64,110,2
3,64,110,2
3,64,110,2
3,64,110,2
3,64,110,2
3,64,110,2
3,59,110,32
3,64,110,0
3,64,110,2
3,64,110,2
3,64,110,2
3,64,110,2
3,64,110,2
3,64,110,2
3,64,110,2
3,64,110,2
3,59,110,32
3,64,110,0
3,64,110,2
3,64,110,2
3,64,110,2
3,64,110,2
3,64,110,2
3,64,110,2
3,64,110,2
3,64,110,2
3,59,110,32
3,64,110,0
3,64,110,2
3,64,110,2
3,64,110,2
3,64,110,2
3,64,110,2
3,64,110,2
3,64,110,2
3,64,110,2
3,59,110,32
3,64,110,0
3,64,110,2
3,64,110,2
3,64,110,2
3,64,110,2
3,64,110,2
3,64,110,2
3,64,110,2
3,64,110,2
3,59,110,32
3,64,110,0
3,64,110,2
3,64,110,2
3,64,110,2
3,64,110,2
3,64,110,2
3,64,110,2
3,64,110,2
3,64,110,2
3,59,110,32
3,64,110,0
3,64,110,2
3,64,110,2
3,64,110,2
3,64,110,2
3,64,110,2
3,64,110,2
3,64,110,2
3,64,110,2
3,59,110,32
3,64,110,0
3,64,110,2
3,64,110,2
3,64,110,2
3,64,110,2
3,64,110,2
3,64,110,2
3,64,110,2
3,64,110,2
3,59,110,32
3,64,110,0
3,64,110,2
3,64,110,2
3,64,110,2
3,64,110,2
3,64,110,2
3,64,110,2
3,64,110,2
3,64,110,2
3,59,110,32
3,64,110,0
3,64,110,2
3,64,110,2
3,64,110,2
3,64,110,2
3,64,110,2
3,64,110,2
3,64,110,2
3,64,110,2
3,59,110,32
3,64,110,0
3,64,110,2
3,64,110,2
3,64,110,2
3,64,110,2
3,64,110,2
3,64,110,2
3,64,110,2
3,64,110,2
3,59,110,32
3,64,110,0
3,64,110,2
3,64,110,2
3,64,110,2
3,64,110,2
3,64,110,2
3,64,110,2
3,64,110,2
3,64,110,2
3,59,110,32
3,64,110,0
3,64,110,2
3,64,110,2
3,64,110,2
3,64,110,2
3,64,110,2
3,64,110,2
3,64,110,2
3,64,110,2
3,59,110,32
3,64,110,0
3,64,110,2
3,64,110,2
3,64,110,2
3,64,110,2
3,64,110,2
3,64,110,2
3,64,110,2
3,64,110,2
3,59,110,32
3,64,110,0
3,64,110,2
3,64,110,2
3,64,110,2
3,64,110,2
3,64,110,2
3,64,110,2
3,64,110,2
3,64,110,2
3,59,110,32
3,64,110,0
3,64,110,2
3,64,110,2
3,64,110,2
3,64,110,2
3,64,110,2
3,64,110,2
3,64,110,2
3,64,110,2
3,59,110,32
3,64,110,0
3,64,110,2
3,64,110,2
3,64,110,2
3,64,110,2
3,64,110,2
3,64,110,2
3,64,110,2
3,64,110,2
3,59,110,32
3,64,110,0
3,64,110,2
3,64,110,2
3,64,110,2
3,64,110,2
3,64,110,2
3,64,110,2
3,64,110,2
3,64,110,2
3,59,110,32
3,64,110,0
3,64,110,2
3,64,110,2
3,64,110,2
3,64,110,2
3,64,110,2
3,64,110,2
3,64,110,2
3,64,110,2
3,59,110,32
3,64,110,0
3,64,110,2
3,64,110,2
3,64,110,2
3,64,110,2
3,64,110,2
3,64,110,2
3,64,110,2
3,64,110,2
3,59,110,32
3,64,110,0
3,64,110,2
3,64,110,2
3,64,110,2
3,64,110,2
3,64,110,2
3,64,110,2
3,64,110,2
3,64,110,2
3,59,110,32
3,64,110,0
3,64,110,2
3,52,110,578
3,56,110,0
3,59,110,0
3,54,110,48
3,57,110,0
3,62,110,0
3,64,110,48
3,59,110,32
3,64,110,0
3,64,110,2
3,64,110,2
3,64,110,2
3,64,110,2
3,64,110,2
3,64,110,2
3,64,110,2
3,64,110,2
3,59,110,32
3,64,110,0
3,64,110,2
3,64,110,2
3,64,110,2
3,64,110,2
3,64,110,2
3,64,110,2
3,64,110,2
3,64,110,2
3,59,110,32
3,64,110,0
3,64,110,2
3,64,110,2
3,64,110,2
3,64,110,2
3,64,110,2
3,64,110,2
3,64,110,2
3,64,110,2
3,59,110,32
3,64,110,0
3,64,110,2
3,64,110,2
3,64,110,2
3,64,110,2
3,64,110,2
3,64,110,2
3,64,110,2
3,64,110,2
3,59,110,32
3,64,110,0
3,64,110,2
3,64,110,2
3,64,110,2
3,64,110,2
3,64,110,2
3,64,110,2
3,64,110,2
3,64,110,2
3,59,110,32
3,64,110,0
3,64,110,2
3,64,110,2
3,64,110,2
3,64,110,2
3,64,110,2
3,64,110,2
3,64,110,2
3,64,110,2
3,59,110,32
3,64,110,0
3,64,110,2
3,64,110,2
3,64,110,2
3,64,110,2
3,64,110,2
3,64,110,2
3,64,110,2
3,64,110,2
3,59,110,32
3,64,110,0
3,64,110,2
3,64,110,2
3,64,110,2
3,64,110,2
3,64,110,2
3,64,110,2
3,64,110,2
3,59,110,2
3,64,110,0
3,59,110,2
3,64,110,0
3,59,110,2
3,64,110,0
3,59,110,2
3,66,110,0
3,59,110,0
3,66,110,0
3,59,110,2
3,64,110,0
3,59,110,2
3,59,110,2
3,64,110,0
3,59,110,2
3,64,110,0
3,59,110,2
3,64,110,0
3,59,110,2
3,66,110,0
3,59,110,0
3,66,110,0
3,59,110,2
3,64,110,0
3,59,110,2
3,59,110,2
3,64,110,0
3,59,110,2
3,64,110,0
3,59,110,2
3,64,110,0
3,59,110,2
3,66,110,0
3,59,110,0
3,66,110,0
3,59,110,2
3,64,110,0
3,59,110,2
3,59,110,2
3,64,110,0
3,59,110,2
3,64,110,0
3,59,110,2
3,64,110,0
3,59,110,2
3,66,110,0
3,59,110,0
3,66,110,0
3,59,110,2
3,64,110,0
3,59,110,2
3,59,110,2
3,64,110,0
3,59,110,2
3,64,110,0
3,59,110,2
3,64,110,0
3,59,110,2
3,66,110,0
3,59,110,0
3,66,110,0
3,59,110,2
3,64,110,0
3,59,110,2
3,59,110,2
3,64,110,0
3,59,110,2
3,64,110,0
3,59,110,2
3,64,110,0
3,59,110,2
3,66,110,0
3,59,110,0
3,66,110,0
3,59,110,2
3,64,110,0
3,59,110,2
3,59,110,2
3,64,110,0
3,59,110,2
3,64,110,0
3,59,110,2
3,64,110,0
3,59,110,2
3,66,110,0
3,59,110,0
3,66,110,0
3,59,110,2
3,64,110,0
3,59,110,2
3,59,110,2
3,64,110,0
3,59,110,2
3,64,110,0
3,59,110,2
3,64,110,0
3,59,110,2
3,66,110,0
3,59,110,0
3,66,110,0
3,59,110,2
3,64,110,0
3,59,110,2
3,59,110,2
3,64,110,0
3,59,110,2
3,64,110,0
3,59,110,2
3,64,110,0
3,59,110,2
3,66,110,0
3,59,110,0
3,66,110,0
3,59,110,2
3,64,110,0
3,59,110,2
3,59,110,2
3,64,110,0
3,59,110,2
3,64,110,0
3,59,110,2
3,64,110,0
3,59,110,2
3,66,110,0
3,59,110,0
3,66,110,0
3,59,110,2
3,64,110,0
3,59,110,2
3,59,110,2
3,64,110,0
3,59,110,2
3,64,110,0
3,59,110,2
3,64,110,0
3,59,110,2
3,66,110,0
3,59,110,2
3,66,110,0
3,59,110,2
3,64,110,0
3,59,110,2
3,64,110,2
3,59,110,32
3,64,110,0
3,64,110,2
3,64,110,2
3,64,110,2
3,64,110,2
3,64,110,2
3,64,110,2
3,64,110,2
3,64,110,2
3,59,110,32
3,64,110,0
3,64,110,2
3,64,110,2
3,64,110,2
3,64,110,2
3,64,110,2
3,64,110,2
3,64,110,2
3,64,110,2
3,59,110,32
3,64,110,0
3,64,110,2
3,64,110,2
3,64,110,2
3,64,110,2
3,64,110,2
3,64,110,2
3,64,110,2
3,64,110,2
3,59,110,32
3,64,110,0
3,64,110,2
3,64,110,2
3,64,110,2
3,64,110,2
3,64,110,2
3,64,110,2
3,64,110,2
