track,note,velocity,time
3,57,100,5664
3,64,82,260
3,66,73,44
3,59,79,104
3,66,79,120
3,57,71,36
3,64,69,292
3,66,70,152
3,59,83,144
3,66,80,284
3,57,76,128
3,64,73,284
3,66,67,152
3,59,76,0
3,66,83,144
3,57,80,280
3,64,67,16
3,66,80,0
3,59,77,4
3,66,77,276
3,57,81,0
3,64,77,28
3,66,81,0
3,59,77,28
3,66,78,24
3,57,72,104
3,64,72,284
3,66,80,16
3,59,81,24
3,66,81,284
3,57,77,4
3,64,69,308
3,66,74,8
3,59,82,16
3,66,86,160
3,57,72,52
3,64,68,8
3,66,69,4
3,59,80,4
3,66,84,272
3,57,69,4
3,64,71,4
3,66,65,0
3,59,80,4
3,66,88,144
3,57,70,20
3,64,69,52
3,66,72,28
3,59,83,4
3,66,71,260
3,57,79,0
3,64,71,4
3,66,74,8
3,59,66,12
3,66,88,164
3,57,86,24
3,64,79,8
3,66,67,20
3,59,74,8
3,66,71,252
3,57,82,12
3,64,83,300
3,66,59,132
3,59,60,20
3,66,80,144
3,57,84,20
3,64,71,312
3,66,90,36
3,59,90,28
3,66,84,268
3,57,84,28
3,64,68,8
3,66,50,24
3,59,68,24
3,66,91,148
3,57,85,12
3,64,77,0
3,66,66,8
3,59,87,20
3,66,78,284
3,57,84,24
3,64,79,0
3,66,78,156
3,59,80,16
3,66,87,152
3,57,84,24
3,64,84,268
3,66,70,136
3,59,86,12
3,66,81,288
3,57,92,20
3,64,73,4
3,66,81,52
3,59,66,20
3,66,82,148
3,57,81,16
3,64,53,4
3,66,76,0
3,59,83,24
3,66,78,268
3,57,90,28
3,64,63,292
3,66,57,12
3,59,79,28
3,66,82,148
3,57,84,36
3,64,58,0
3,66,72,0
3,59,76,20
3,66,71,292
3,57,89,12
3,64,71,292
3,66,69,136
3,59,82,0
3,66,88,144
3,57,84,28
3,64,71,0
3,66,87,0
3,59,80,32
3,66,79,272
3,57,81,36
3,64,71,16
3,66,59,24
3,59,69,20
3,66,80,152
3,57,68,8
3,64,62,284
3,66,71,140
3,59,74,28
3,66,72,280
3,57,85,8
3,64,80,292
3,66,70,8
3,59,73,12
3,66,70,160
3,57,82,12
3,64,33,32
3,66,85,124
3,59,75,32
3,66,80,268
3,57,78,16
3,64,86,308
3,66,60,12
3,59,81,12
3,66,85,152
3,57,70,28
3,64,71,288
3,66,62,140
3,59,75,24
3,66,73,292
3,57,77,12
3,64,61,296
3,66,67,8
3,59,71,16
3,66,61,0
3,57,78,28
3,64,54,8
3,66,80,28
3,59,82,32
3,66,67,296
3,57,84,40
3,64,60,0
3,66,61,40
3,59,68,32
3,66,84,0
3,57,76,28
3,64,64,8
3,66,76,16
3,59,69,32
3,66,55,12
3,57,78,28
3,64,55,12
3,66,80,8
3,59,65,32
3,66,78,156
3,57,54,132
3,64,46,32
3,66,46,48
3,59,70,20
3,66,54,12
3,57,52,44
4,64,70,13804
4,59,45,12
4,64,71,28
4,53,67,0
4,54,60,788
4,64,73,84
4,59,65,8
4,60,71,12
4,62,66,24
4,64,71,596
4,59,58,484
4,55,47,40
4,57,63,4
4,59,69,12
4,60,62,332
4,62,63,24
4,64,68,24
4,71,88,576
5,33,89,22160
5,31,98,36
5,29,97,40
5,26,91,28
5,33,88,8
5,31,98,44
5,26,85,28
5,36,74,2076
5,33,93,16
6,81,44,1668
6,69,81,100
6,81,90,96
6,76,59,2076
6,69,53,2072
6,81,86,1680
6,69,76,52
6,76,83,16
6,81,59,1948
6,69,51,968
7,33,86,22164
7,45,93,0
7,43,93,4
7,31,84,192
7,41,91,8
7,29,84,12
7,38,91,0
7,26,88,4
7,45,92,32
7,33,85,8
7,43,89,4
7,31,89,4
7,38,100,20
7,26,81,4
7,48,100,64
7,36,96,0
7,45,99,24
7,33,83,8
8,57,100,5664
8,64,82,260
8,66,73,44
8,59,79,104
8,66,79,120
8,57,71,36
8,64,69,292
8,66,70,152
8,59,83,144
8,66,80,284
8,57,76,128
8,64,73,284
8,66,67,152
8,59,76,0
8,66,83,144
8,57,80,280
8,64,67,16
8,66,80,0
8,59,77,4
8,66,77,276
8,57,81,0
8,64,77,28
8,66,81,0
8,59,77,28
8,66,78,24
8,57,72,104
8,64,72,284
8,66,80,16
8,59,81,24
8,66,81,284
8,57,77,4
8,64,69,308
8,66,74,8
8,59,82,16
8,66,86,160
8,57,72,52
8,64,68,8
8,66,69,4
8,59,80,4
8,66,84,272
8,57,69,4
8,64,71,4
8,66,65,0
8,59,80,4
8,66,88,144
8,57,70,20
8,64,69,52
8,66,72,28
8,59,83,4
8,66,71,260
8,57,79,0
8,64,71,4
8,66,74,8
8,59,66,12
8,66,88,164
8,57,86,24
8,64,79,8
8,66,67,20
8,59,74,8
8,66,71,252
8,57,82,12
8,64,83,300
8,66,59,132
8,59,60,20
8,66,80,144
8,57,84,20
8,64,71,312
8,66,90,36
8,59,90,28
8,66,84,268
8,57,84,28
8,64,68,8
8,66,50,24
8,59,68,24
8,66,91,148
8,57,85,12
8,64,77,0
8,66,66,8
8,59,87,20
8,66,78,284
8,57,84,24
8,64,79,0
8,66,78,156
8,59,80,16
8,66,87,152
8,57,84,24
8,64,84,268
8,66,70,136
8,59,86,12
8,66,81,288
8,57,92,20
8,64,73,4
8,66,81,52
8,59,66,20
8,66,82,148
8,57,81,16
8,64,53,4
8,66,76,0
8,59,83,24
8,66,78,268
8,57,90,28
8,64,63,292
8,66,57,12
8,59,79,28
8,66,82,148
8,57,84,36
8,64,58,0
8,66,72,0
8,59,76,20
8,66,71,292
8,57,89,12
8,64,71,292
8,66,69,136
8,59,82,0
8,66,88,144
8,57,84,28
8,64,71,0
8,66,87,0
8,59,80,32
8,66,79,272
8,57,81,36
8,64,71,16
8,66,59,24
8,59,69,20
8,66,80,152
8,57,68,8
8,64,62,284
8,66,71,140
8,59,74,28
8,66,72,280
8,57,85,8
8,64,80,292
8,66,70,8
8,59,73,12
8,66,70,160
8,57,82,12
8,64,33,32
8,66,85,124
8,59,75,32
8,66,80,268
8,57,78,16
8,64,86,308
8,66,60,12
8,59,81,12
8,66,85,152
8,57,70,28
8,64,71,288
8,66,62,140
8,59,75,24
8,66,73,292
8,57,77,12
8,64,61,296
8,66,67,8
8,59,71,16
8,66,61,0
8,57,78,28
8,64,54,8
8,66,80,28
8,59,82,32
8,66,67,296
8,57,84,40
8,64,60,0
8,66,61,40
8,59,68,32
8,66,84,0
8,57,76,28
8,64,64,8
8,66,76,16
8,59,69,32
8,66,55,12
8,57,78,28
8,64,55,12
8,66,80,8
8,59,65,32
8,66,78,156
8,57,54,132
8,64,46,32
8,66,46,48
8,59,70,20
8,66,54,12
8,57,52,44
9,59,101,5648
9,59,98,120
9,59,82,72
9,59,102,80
9,59,107,68
9,59,106,36
9,59,97,20
9,59,96,100
9,59,106,96
9,59,98,8
9,59,99,96
9,59,94,16
9,59,76,92
9,59,92,108
9,59,94,84
9,59,49,108
9,59,108,76
9,59,88,188
9,59,84,92
9,59,99,88
9,59,92,176
9,59,97,96
9,59,90,172
9,59,71,92
9,59,101,112
9,59,103,76
9,59,107,24
9,59,96,180
9,59,84,92
9,59,103,92
9,59,97,4
9,59,97,96
9,59,84,160
9,59,82,92
9,59,99,88
9,59,96,84
9,59,96,88
9,59,103,88
9,59,93,12
9,59,89,80
9,59,96,92
9,59,94,132
9,59,98,100
9,59,91,136
9,59,75,96
9,59,92,96
9,59,106,80
9,59,100,12
9,59,92,188
9,59,84,104
9,59,102,96
9,59,92,24
9,59,102,100
9,59,98,180
9,59,90,84
9,59,92,100
9,59,99,84
9,59,99,8
9,59,90,20
9,59,96,92
9,59,93,92
9,59,90,192
9,59,94,88
9,59,94,4
9,59,85,92
9,59,84,96
9,59,98,84
9,59,74,92
9,59,103,120
9,59,88,12
9,59,79,100
9,59,103,104
9,59,96,172
9,59,91,96
9,59,100,156
9,59,77,92
9,59,107,104
9,59,104,72
9,59,108,24
9,59,102,188
9,59,98,84
9,59,108,92
9,50,98,4
9,50,107,68
9,59,97,48
9,35,80,8
9,35,98,16
9,57,107,0
9,59,97,8
9,59,89,20
9,59,91,96
9,59,97,104
9,59,104,84
9,59,103,28
9,59,86,40
9,59,97,84
9,59,100,96
9,59,96,72
9,35,89,28
9,59,100,72
9,35,101,16
9,55,108,16
9,59,94,12
9,59,90,88
9,59,101,84
9,59,102,80
9,59,102,48
9,59,96,4
9,59,97,84
9,59,102,80
9,59,99,8
9,59,104,88
9,35,102,4
9,57,98,12
9,59,96,24
9,59,94,80
9,59,100,100
9,59,99,80
9,59,98,84
9,59,104,104
9,59,99,28
9,59,102,80
9,59,103,92
9,59,98,12
9,35,76,4
9,59,103,80
9,57,100,4
9,35,108,20
9,59,98,32
9,59,89,80
9,59,97,84
9,59,93,80
9,59,94,104
9,59,108,104
9,59,101,24
9,59,94,84
9,59,107,80
9,59,92,16
9,35,87,20
9,59,100,52
9,35,103,20
9,49,114,28
9,59,96,36
9,59,84,88
9,59,99,100
9,59,103,92
9,59,100,40
9,59,96,176
9,59,94,84
9,59,108,100
9,35,84,76
9,59,98,4
9,55,101,72
9,59,101,8
9,35,108,4
9,59,93,24
9,59,91,76
9,59,97,88
9,59,100,92
9,59,99,40
9,59,90,184
9,59,96,88
9,59,102,80
9,59,96,24
9,35,83,16
9,59,101,72
9,57,98,0
9,35,107,8
9,59,94,20
9,59,94,84
9,59,92,92
9,59,101,80
9,59,104,40
9,59,91,8
9,59,92,84
9,59,97,92
9,59,92,32
9,35,82,4
9,55,88,48
9,59,101,40
9,35,103,4
9,59,88,16
9,59,88,72
9,59,89,96
9,59,103,92
9,49,99,20
9,35,96,8
9,59,101,12
9,59,84,8
9,59,99,92
9,59,102,84
9,59,97,16
9,59,91,92
9,59,91,20
9,59,86,92
9,59,92,112
9,59,101,88
9,59,102,48
9,59,89,72
9,59,91,84
9,59,102,100
9,59,98,4
9,59,91,96
9,59,85,88
9,59,93,100
9,59,101,92
9,59,100,100
9,59,98,52
9,59,102,12
9,59,92,16
9,59,89,88
9,59,102,104
9,59,96,12
9,59,102,96
10,38,80,42824
10,57,78,4
10,38,64,132
10,45,79,152
10,52,78,136
10,53,80,100
10,57,60,96
10,45,66,20
10,52,74,172
10,53,69,80
10,38,68,140
10,57,70,268
10,38,58,112
10,45,66,156
10,52,71,152
10,53,80,92
10,57,73,100
10,45,71,12
10,52,71,8
10,53,69,80
10,38,81,12
10,57,73,36
10,38,55,16
10,45,63,156
10,52,66,8
10,53,78,100
10,57,63,88
10,45,64,4
10,52,71,8
10,53,76,88
10,38,73,36
10,57,68,20
10,38,58,12
10,45,65,0
10,52,84,144
10,53,74,76
10,57,74,100
10,45,58,16
10,52,72,4
10,53,73,72
10,38,74,28
10,57,79,28
10,38,72,140
10,45,71,8
10,52,76,4
10,53,78,108
10,57,68,76
10,45,60,24
10,52,68,4
10,53,76,84
10,38,73,12
10,57,74,16
10,38,54,4
10,45,69,148
10,52,59,12
10,53,77,96
10,57,76,76
10,45,70,12
10,52,67,4
10,53,81,48
10,38,82,24
10,57,76,36
10,38,57,132
10,45,66,156
10,52,59,12
10,53,77,84
10,57,65,76
10,45,69,16
10,52,75,12
10,53,73,68
10,38,68,12
10,57,76,28
10,38,62,12
10,45,68,4
10,52,65,152
10,53,78,92
10,57,66,88
10,45,67,20
10,52,65,24
10,53,71,52
10,38,68,0
10,57,68,32
10,38,49,132
10,45,65,140
10,52,63,20
10,53,82,80
10,57,63,76
10,45,65,4
10,52,68,56
10,53,68,44
10,38,71,156
10,57,70,24
10,38,52,8
10,45,65,20
10,52,64,136
10,53,78,92
10,57,63,76
10,45,71,136
10,52,71,28
10,53,76,52
10,38,71,12
10,57,72,28
10,38,64,12
10,45,65,164
10,52,64,20
10,53,68,104
10,57,64,80
10,45,60,20
10,52,74,28
10,53,70,60
10,38,62,144
10,57,75,0
10,38,54,20
10,45,44,20
10,52,55,136
10,53,71,72
10,57,66,64
10,45,62,16
10,52,70,4
10,53,75,60
11,57,61,39932
11,62,73,20
11,65,82,16
11,57,60,160
11,62,81,28
11,57,64,44
11,64,86,36
11,57,69,56
11,60,81,24
11,57,59,20
11,62,78,20
11,65,77,24
11,57,67,124
11,62,84,24
11,57,69,180
11,64,82,20
11,57,64,92
11,60,77,8
12,59,45,43140
12,59,45,68
12,59,45,84
12,59,45,76
12,59,45,24
12,59,45,184
12,59,45,96
12,59,45,116
12,59,45,20
12,59,45,112
12,59,45,192
12,59,45,80
12,59,45,124
12,59,45,80
12,59,45,36
12,59,45,20
12,59,45,92
12,59,45,96
12,59,45,12
12,59,45,108
12,59,45,16
12,59,45,88
12,59,45,104
12,59,45,72
12,59,45,92
12,59,45,92
12,59,45,40
12,59,45,92
12,59,45,108
12,59,45,48
12,59,45,100
12,59,45,16
12,59,45,88
12,59,45,96
12,59,45,88
12,59,45,44
12,59,45,12
12,59,45,104
12,59,97,112
12,59,45,4
12,59,45,108
12,59,45,4
12,59,45,92
12,59,45,96
12,59,45,96
12,59,45,24
12,59,45,184
12,59,45,100
12,59,45,112
12,59,45,12
12,59,45,104
12,59,45,24
12,59,45,72
12,59,45,84
12,59,45,84
12,59,45,108
12,59,45,100
12,59,45,12
12,59,45,80
12,59,45,100
12,59,45,4
12,59,45,84
12,59,45,12
12,59,45,64
12,59,45,100
12,59,45,80
12,59,45,28
12,59,45,184
12,59,45,108
12,59,45,116
12,59,45,16
12,59,45,92
12,59,45,24
12,59,45,88
12,59,45,112
12,59,45,80
12,59,45,20
12,59,45,20
12,59,45,96
12,59,45,100
12,59,45,192
12,59,45,68
13,46,80,59128
13,42,87,72
13,42,91,152
13,42,77,84
13,42,99,132
13,42,94,68
13,42,105,28
13,42,104,296
13,42,89,24
13,42,100,100
13,42,84,20
13,42,50,72
13,42,99,112
13,42,86,56
13,42,103,40
13,42,99,8
13,42,85,104
13,46,101,84
13,46,100,160
13,42,97,80
13,42,84,188
13,42,25,80
13,42,92,112
13,42,103,72
13,42,101,176
13,42,88,12
13,42,37,64
13,42,71,80
13,42,104,112
13,42,76,56
13,42,103,104
13,42,98,8
13,42,36,64
13,42,80,116
13,42,101,76
13,42,106,16
13,46,80,140
13,42,88,76
13,42,105,76
13,42,85,188
14,38,85,67408
14,57,79,24
14,38,61,4
14,45,82,0
14,52,73,144
14,53,82,88
14,57,63,84
14,45,68,12
14,52,78,20
14,53,72,68
14,38,79,148
14,57,67,16
14,38,63,8
14,45,69,16
14,52,74,12
14,53,76,92
14,57,60,92
14,45,71,28
14,52,76,12
14,53,70,128
14,38,64,144
14,57,71,260
14,38,53,16
14,45,59,4
14,52,73,12
14,53,71,124
14,57,65,76
14,45,61,24
14,52,76,20
14,53,68,88
14,38,76,24
14,57,71,16
14,38,49,132
14,45,68,0
14,52,71,12
14,53,73,120
14,57,60,72
14,45,67,32
14,52,69,16
14,53,65,80
14,38,71,24
14,57,76,24
14,38,70,4
14,45,71,16
14,52,61,24
14,53,67,100
14,57,59,76
14,45,48,36
14,52,71,4
14,53,67,60
14,38,78,132
14,57,69,0
14,38,52,4
14,45,60,0
14,52,67,0
14,53,84,120
14,57,65,44
14,45,55,36
14,52,69,8
14,53,63,68
14,38,63,140
14,57,67,12
14,38,54,12
14,45,76,124
14,52,77,160
14,53,68,144
14,57,69,72
14,45,68,12
14,52,71,152
14,53,64,88
14,38,60,12
14,57,66,4
14,38,52,8
14,45,55,8
14,52,70,160
14,53,70,104
14,57,60,72
14,45,69,48
14,52,70,156
14,53,59,84
14,38,60,4
14,57,59,284
14,38,19,36
14,45,55,136
14,52,70,4
14,53,65,108
14,57,55,92
14,45,62,44
14,52,74,8
14,53,59,68
14,38,71,4
14,57,71,24
14,38,45,28
14,45,59,4
14,52,51,156
14,53,67,68
14,57,64,48
14,45,67,36
14,52,72,16
14,53,71,80
14,38,70,12
14,57,68,4
14,38,58,12
14,45,65,4
14,52,63,148
14,53,80,116
14,57,72,92
14,45,62,12
14,52,68,16
