track,note,velocity,time
0,40,122,380
0,40,126,4
0,36,126,9
0,40,122,22
0,40,126,4
0,36,122,11
0,40,126,18
0,40,126,4
0,36,122,9
0,40,126,21
0,40,122,4
0,36,126,11
0,84,122,5
0,41,126,6
0,41,74,0
0,53,68,0
0,48,70,0
0,83,122,0
0,29,92,0
0,36,126,0
0,49,126,0
0,53,90,6
0,41,92,0
0,53,64,0
0,48,86,0
0,29,80,0
0,36,126,0
0,53,106,7
0,41,110,0
0,53,64,0
0,48,76,0
0,81,116,0
0,41,84,0
0,46,110,0
0,40,110,0
0,47,122,8
0,47,96,0
0,53,62,0
0,81,116,0
0,35,84,0
0,36,122,0
0,59,110,19
0,47,116,0
0,53,74,0
0,47,90,0
0,79,116,0
0,35,90,0
0,46,126,0
0,60,100,2
0,48,92,0
0,48,90,0
0,53,64,0
0,36,84,0
0,36,126,0
0,60,110,19
0,48,106,0
0,53,76,0
0,48,100,0
0,77,116,0
0,36,92,0
0,40,126,0
0,46,116,0
0,77,110,0
0,41,126,24
0,41,86,0
0,53,84,0
0,48,106,0
0,76,122,0
0,29,72,0
0,36,122,0
0,46,116,0
0,53,92,15
0,41,100,0
0,48,60,0
0,53,56,0
0,41,68,0
0,29,86,0
0,36,126,0
0,53,106,9
0,41,106,0
0,48,56,0
0,53,56,0
0,41,56,0
0,41,76,0
0,40,116,0
0,46,122,0
0,47,122,5
0,53,76,0
0,47,100,0
0,69,110,0
0,35,90,0
0,36,126,0
0,47,110,14
0,59,106,0
0,47,90,0
0,53,78,0
0,65,122,0
0,35,90,0
0,46,116,0
0,60,84,0
0,48,86,0
0,48,84,0
0,36,80,0
0,36,126,0
0,60,106,16
0,48,92,0
0,53,80,0
0,48,92,0
0,36,92,0
0,46,126,0
0,40,126,0
0,41,116,12
0,48,78,0
0,41,86,0
0,53,76,0
0,69,80,0
0,29,92,0
0,46,122,0
0,36,126,0
0,53,84,16
0,41,84,0
0,48,70,0
0,53,64,0
0,41,72,0
0,29,90,0
0,36,126,0
0,53,106,5
0,41,86,0
0,48,68,0
0,53,68,0
0,41,72,0
0,41,84,0
0,40,92,0
0,46,122,0
0,47,106,5
0,53,72,0
0,47,86,0
0,71,64,0
0,35,92,0
0,36,126,0
0,47,96,16
0,59,90,0
0,53,76,0
0,47,90,0
0,35,92,0
0,46,126,0
0,60,90,24
0,48,74,0
0,48,70,0
0,36,84,0
0,36,126,0
0,48,86,20
0,60,100,0
0,48,76,0
0,53,72,0
0,36,90,0
0,40,126,0
0,46,126,0
0,41,110,6
0,48,78,0
0,41,78,0
0,53,76,0
0,29,80,0
0,36,126,0
0,46,122,0
0,53,80,11
0,41,92,0
0,48,64,0
0,53,60,0
0,41,70,0
0,29,76,0
0,36,126,0
0,53,110,6
0,41,92,0
0,53,70,0
0,48,62,0
0,41,66,0
0,41,76,0
0,46,122,0
0,40,106,0
0,36,122,7
0,47,116,14
0,47,80,0
0,53,76,0
0,35,90,0
0,36,92,0
0,36,96,0
0,47,110,16
0,59,90,0
0,47,78,0
0,53,70,0
0,35,96,0
0,36,122,0
0,46,116,0
0,60,90,24
0,48,92,0
0,48,70,0
0,36,90,0
0,36,122,0
0,36,122,0
0,60,92,1
0,48,92,0
0,53,74,0
0,48,80,0
0,36,90,0
0,40,126,0
0,49,126,0
0,84,116,2
0,72,80,0
0,41,110,5
0,41,96,0
0,48,76,0
0,53,70,0
0,83,100,0
0,71,110,0
0,29,90,0
0,36,126,0
0,46,122,0
0,53,84,13
0,41,96,0
0,48,64,0
0,53,64,0
0,41,76,0
0,29,80,0
0,36,122,0
0,41,92,9
0,53,92,0
0,41,66,0
0,48,70,0
0,53,70,0
0,69,90,0
0,81,96,0
0,41,92,0
0,46,110,0
0,40,110,0
0,47,110,5
0,47,92,0
0,53,70,0
0,69,84,0
0,81,92,0
0,35,96,0
0,36,126,0
0,47,106,19
0,59,96,0
0,47,80,0
0,53,72,0
0,67,86,0
0,79,100,0
0,35,90,0
0,46,122,0
0,60,80,24
0,48,76,0
0,48,64,0
0,36,86,0
0,36,126,0
0,60,100,17
0,48,90,0
0,48,78,0
0,53,74,0
0,65,100,0
0,77,106,0
0,36,92,0
0,46,122,0
0,40,122,0
0,65,92,17
0,77,92,0
0,41,122,1
0,41,92,0
0,48,80,0
0,53,84,0
0,64,96,0
0,76,106,0
0,29,80,0
0,36,122,0
0,46,122,0
0,53,84,5
0,41,86,0
0,48,70,0
0,41,70,0
0,53,68,0
0,36,100,0
0,53,96,1
0,41,96,0
0,41,76,0
0,53,70,0
0,48,68,0
0,62,80,0
0,74,110,0
0,41,78,0
0,40,106,0
0,46,126,0
0,47,122,11
0,53,76,0
0,47,96,0
0,62,84,0
0,74,92,0
0,35,80,0
0,36,126,0
0,59,92,15
0,47,110,0
0,47,80,0
0,53,70,0
0,60,90,0
0,72,106,0
0,35,90,0
0,46,126,0
0,60,80,4
0,48,76,0
0,48,68,0
0,36,86,0
0,36,122,0
0,48,90,17
0,60,92,0
0,48,80,0
0,53,68,0
0,71,106,0
0,59,96,0
0,36,92,0
0,46,122,0
0,40,126,0
0,59,84,0
0,71,86,0
0,41,122,24
0,48,80,0
0,41,86,0
0,53,76,0
0,57,100,0
0,69,110,0
0,29,84,0
0,36,126,0
0,46,122,0
0,53,90,9
0,41,96,0
0,48,68,0
0,53,64,0
0,41,74,0
0,53,90,0
0,65,84,0
0,36,110,0
0,41,96,7
0,53,110,0
0,53,70,0
0,48,68,0
0,53,106,0
0,65,96,0
0,41,80,0
0,40,122,0
0,46,126,0
0,59,62,11
0,47,122,0
0,47,92,0
0,53,76,0
0,53,106,0
0,65,100,0
0,35,80,0
0,36,126,0
0,59,100,19
0,47,110,0
0,47,90,0
0,53,74,0
0,53,110,0
0,65,110,0
0,35,90,0
0,46,122,0
0,60,86,24
0,48,86,0
0,48,70,0
0,36,90,0
0,36,122,0
0,60,92,16
0,48,92,0
0,53,72,0
0,48,78,0
0,36,86,0
0,40,126,0
0,46,126,0
0,36,122,0
0,41,110,22
0,48,80,0
0,41,84,0
0,53,74,0
0,29,90,0
0,40,126,0
0,36,106,0
0,46,122,0
0,36,92,11
0,36,92,15
0,46,50,0
0,53,80,9
0,41,90,0
0,48,62,0
0,53,60,0
0,41,66,0
0,36,92,0
0,53,90,2
0,41,90,0
0,41,60,0
0,48,66,0
0,53,66,0
0,41,90,0
0,46,116,0
0,36,106,0
0,40,116,0
0,36,90,0
0,47,110,14
0,47,72,0
0,53,72,0
0,35,92,0
0,36,90,0
0,46,60,0
0,36,90,0
0,62,96,10
0,47,110,6
0,59,92,0
0,47,80,0
0,53,72,0
0,35,92,0
0,36,96,0
0,40,116,0
0,46,116,0
0,36,84,0
0,60,86,1
0,48,80,0
0,48,76,0
0,36,90,0
0,36,100,0
0,40,116,0
0,46,110,0
0,36,90,0
0,62,96,12
0,48,100,2
0,60,100,0
0,53,76,0
0,48,84,0
0,36,90,0
0,35,92,0
0,36,100,0
0,40,122,0
0,36,110,0
0,46,126,0
0,42,92,0
0,41,116,16
0,41,96,0
0,41,86,0
0,53,80,0
0,29,96,0
0,57,110,0
0,36,122,0
0,42,92,0
0,41,92,12
0,53,90,0
0,41,68,0
0,53,84,0
0,36,106,0
0,60,100,4
0,41,100,3
0,53,96,0
0,53,78,0
0,41,92,0
0,40,122,0
0,42,110,0
0,47,122,30
0,60,68,0
0,65,84,0
0,69,76,0
0,83,70,0
0,71,68,0
0,35,96,0
0,36,122,0
0,59,92,4
0,60,64,3
0,65,76,0
0,69,76,0
0,47,106,7
0,59,92,0
0,60,70,0
0,65,84,0
0,69,84,0
0,71,64,0
0,83,66,0
0,35,90,0
0,42,106,0
0,59,92,6
0,60,86,0
0,48,80,0
0,60,64,0
0,65,78,0
0,69,68,0
0,84,64,0
0,72,62,0
0,36,90,0
0,36,110,0
0,60,62,4
0,65,72,0
0,69,72,0
0,48,90,10
0,60,90,0
0,60,70,0
0,65,90,0
0,69,92,0
0,84,68,0
0,72,66,0
0,36,80,0
0,42,96,0
0,40,122,0
0,60,92,4
0,42,70,0
0,42,116,0
0,60,90,10
0,41,116,5
0,41,92,0
0,41,92,0
0,53,86,0
0,29,86,0
0,42,86,0
0,36,122,0
0,42,122,0
0,53,96,1
0,41,90,0
0,53,84,0
0,41,76,0
0,36,110,0
0,41,90,1
0,53,90,0
0,53,84,0
0,41,86,0
0,40,126,0
0,47,110,10
0,60,64,0
0,65,76,0
0,69,68,0
0,83,70,0
0,71,68,0
0,35,90,0
0,42,122,0
0,60,76,3
0,60,60,4
0,65,70,0
0,69,62,0
0,47,110,2
0,59,90,0
0,60,68,0
0,69,80,0
0,65,80,0
0,71,68,0
0,83,70,0
0,35,90,0
0,36,122,0
0,60,80,4
0,60,84,2
0,48,84,0
0,60,62,0
0,65,70,0
0,69,62,0
0,72,58,0
0,84,70,0
0,36,80,0
0,36,84,0
0,42,106,0
0,69,68,5
0,65,64,0
0,60,48,0
0,60,78,7
0,60,90,1
0,48,92,0
0,60,68,0
0,65,86,0
0,69,80,0
0,84,70,0
0,72,66,0
0,36,84,0
0,40,126,0
0,42,116,0
0,60,78,15
0,41,116,2
0,41,90,0
0,41,90,0
0,53,92,0
0,29,92,0
0,36,126,0
0,60,74,2
0,42,110,0
0,53,86,2
0,41,90,0
0,53,74,0
0,41,56,0
0,36,122,0
0,53,90,2
0,41,96,0
0,53,72,0
0,41,78,0
0,40,122,0
0,47,122,3
0,65,84,0
0,60,64,0
0,69,66,0
0,71,64,0
0,83,64,0
0,35,96,0
0,36,122,0
0,42,126,0
0,60,62,2
0,65,68,0
0,69,64,0
0,47,110,11
0,59,90,0
0,60,68,0
0,65,84,0
0,69,80,0
0,83,64,0
0,71,68,0
0,35,84,0
0,42,64,0
0,60,78,11
0,60,80,2
0,48,86,0
0,60,74,0
0,65,90,0
0,69,72,0
0,84,70,0
0,72,62,0
0,36,84,0
0,42,110,0
0,36,116,0
0,60,66,1
0,65,84,0
0,69,78,0
0,42,96,0
0,60,68,8
0,60,96,2
0,48,100,0
0,60,68,0
0,69,84,0
0,65,86,0
0,84,68,0
0,72,60,0
0,36,90,0
0,40,126,0
0,42,76,0
0,60,70,7
0,42,122,0
0,53,84,8
0,41,116,2
0,41,96,0
0,41,92,0
0,53,92,0
0,29,86,0
0,36,122,0
0,42,110,0
0,41,92,6
0,53,90,0
0,53,62,0
0,41,62,0
0,36,122,0
0,41,96,4
0,53,96,0
0,41,76,0
0,53,80,0
0,40,116,0
0,47,110,6
0,60,68,0
0,65,86,0
0,69,76,0
0,71,64,0
0,83,68,0
0,35,86,0
0,36,64,0
0,42,126,0
0,60,62,1
0,69,68,0
0,65,66,0
0,59,90,10
0,47,106,0
0,60,68,0
0,65,84,0
0,69,84,0
0,83,68,0
0,71,68,0
0,35,92,0
0,36,122,0
0,48,78,24
0,60,78,0
0,65,90,0
0,60,70,0
0,69,68,0
0,84,64,0
0,72,62,0
0,36,80,0
0,42,122,0
0,65,72,1
0,60,62,0
0,69,74,0
0,60,90,12
0,48,90,0
0,60,74,0
0,65,84,0
0,69,84,0
0,72,66,0
0,84,76,0
0,36,78,0
0,40,122,0
0,42,110,0
0,62,96,0
0,42,110,5
0,41,110,24
0,41,84,0
0,41,100,0
0,53,96,0
0,29,86,0
0,36,126,0
0,42,100,0
0,41,92,6
0,53,80,0
0,41,74,0
0,53,64,0
0,36,116,0
0,60,106,1
0,41,92,3
0,53,90,0
0,41,78,0
0,53,74,0
0,40,122,0
0,59,100,3
0,47,110,6
0,59,50,0
0,65,78,0
0,60,62,0
0,69,64,0
0,71,70,0
0,83,74,0
0,35,90,0
0,42,110,0
0,36,126,0
0,60,62,2
0,65,74,0
0,69,72,0
0,59,90,8
0,47,110,4
0,59,92,0
0,65,78,0
0,60,64,0
0,69,76,0
0,83,68,0
0,71,64,0
0,35,92,0
0,42,60,0
0,48,76,2
0,60,90,0
0,60,70,0
0,65,78,0
0,69,70,0
0,84,70,0
0,72,62,0
0,36,80,0
0,42,116,0
0,36,122,0
0,65,78,4
0,60,62,0
0,69,70,0
0,42,100,0
0,60,106,4
0,48,92,8
0,60,92,0
0,60,72,0
0,65,80,0
0,69,84,0
0,72,66,0
0,84,70,0
0,36,90,0
0,40,126,0
0,42,116,0
0,60,100,18
0,41,116,2
0,41,92,0
0,41,92,0
0,53,90,0
0,29,86,0
0,36,122,0
0,42,116,0
0,53,90,3
0,41,106,0
0,53,78,0
0,41,64,0
0,36,110,0
0,41,90,6
0,53,92,0
0,53,84,0
0,41,78,0
0,40,126,0
0,47,122,28
0,65,80,0
0,60,66,0
0,69,80,0
0,83,66,0
0,71,68,0
0,35,92,0
0,36,122,0
0,42,116,0
0,60,64,3
0,65,78,0
0,69,78,0
0,59,96,11
0,47,106,0
0,60,62,0
0,65,84,0
0,69,78,0
0,83,70,0
0,71,62,0
0,35,86,0
0,42,78,0
0,60,96,19
0,60,86,3
0,48,78,0
0,65,86,0
0,60,64,0
0,69,70,0
0,84,68,0
0,72,64,0
0,35,90,0
0,36,122,0
0,42,110,0
0,60,64,5
0,65,74,0
0,69,76,0
0,41,78,0
0,42,86,0
0,60,92,6
0,60,90,1
0,48,96,0
0,60,64,0
0,65,80,0
0,69,78,0
0,72,64,0
0,84,68,0
0,36,80,0
0,40,126,0
0,42,116,0
0,60,86,18
0,41,126,6
0,41,86,0
0,53,90,0
0,41,100,0
0,29,90,0
0,36,122,0
0,42,110,1
0,41,100,3
0,53,92,0
0,53,68,0
0,41,68,0
0,36,106,0
0,41,100,3
0,53,92,0
0,53,76,0
0,41,74,0
0,40,122,0
0,47,122,11
0,65,76,0
0,60,62,0
0,69,72,0
0,83,66,0
0,71,64,0
0,35,84,0
0,36,122,0
0,42,116,0
0,60,62,2
0,69,84,0
0,65,80,0
0,59,92,9
0,47,110,0
0,60,68,0
0,65,80,0
0,69,76,0
0,83,68,0
0,71,64,0
0,35,86,0
0,42,84,0
0,60,92,16
0,48,86,1
0,60,80,0
0,65,84,0
0,60,64,0
0,69,64,0
0,84,64,0
0,72,60,0
0,36,84,0
0,36,126,0
0,65,74,4
0,60,62,0
0,69,74,0
0,59,80,1
0,60,100,5
0,48,92,0
0,60,68,0
0,65,78,0
0,69,80,0
0,72,64,0
0,84,68,0
0,36,90,0
0,40,90,0
0,42,122,0
0,41,116,27
0,41,84,0
0,53,92,0
0,41,100,0
0,29,78,0
0,36,126,0
0,42,122,24
0,41,106,13
0,53,90,0
0,53,64,0
0,36,122,0
0,57,100,2
0,53,92,6
0,41,106,0
0,53,84,0
0,40,122,0
0,47,122,18
0,65,68,0
0,59,60,0
0,71,68,0
0,83,68,0
0,35,100,0
0,36,106,0
0,42,122,0
0,59,64,3
0,65,72,0
0,59,96,8
0,47,116,0
0,59,68,0
0,65,84,0
0,69,64,0
0,67,62,0
0,83,64,0
0,71,60,0
0,35,92,0
0,36,126,0
0,48,86,24
0,60,92,0
0,65,78,0
0,69,78,0
0,60,56,0
0,59,36,0
0,72,62,0
0,84,68,0
0,36,80,0
0,42,110,0
0,40,126,0
0,46,60,0
0,69,80,4
0,60,64,0
0,65,78,0
0,60,96,11
0,48,90,0
0,60,70,0
0,69,86,0
0,65,80,0
0,72,62,0
0,84,70,0
0,36,86,0
0,40,126,0
0,42,106,0
0,40,126,0
0,53,122,2
0,42,110,0
0,59,110,10
0,41,116,2
0,41,76,0
0,41,80,0
0,53,86,0
0,48,96,0
0,29,100,0
0,36,126,0
0,49,122,0
0,59,92,7
0,59,86,3
0,42,96,0
0,59,86,3
0,41,96,6
0,53,86,0
0,53,58,0
0,36,126,0
0,59,106,0
0,41,90,2
0,53,92,0
0,41,70,0
0,53,74,0
0,40,126,0
0,42,110,0
0,59,90,13
0,47,106,2
0,59,64,0
0,65,68,0
0,69,70,0
0,71,64,0
0,83,68,0
0,35,92,0
0,36,126,0
0,59,68,2
0,65,76,0
0,59,84,5
