track,note,velocity,time
1,76,110,960
1,76,0,117
1,74,110,3
1,74,0,177
1,72,110,3
1,72,0,297
1,72,110,3
1,72,0,117
1,72,110,3
1,72,0,177
1,72,110,3
1,72,0,57
1,67,110,3
1,67,0,177
1,67,110,3
1,67,0,117
1,69,110,3
1,69,0,57
1,72,110,3
1,72,0,177
1,72,110,3
1,72,0,177
1,71,110,3
1,71,0,177
1,67,110,3
1,67,0,320
1,67,110,400
1,67,0,57
1,72,110,3
1,72,0,177
1,72,110,3
1,72,0,177
1,67,110,3
1,67,0,380
1,69,110,280
1,69,0,117
1,71,110,3
1,71,0,57
1,72,110,3
1,72,0,117
1,74,110,3
1,74,0,177
1,76,110,3
1,76,0,120
1,72,110,0
1,72,0,57
1,72,110,3
1,72,0,117
1,69,110,3
1,69,0,117
1,72,110,3
1,72,0,177
1,67,110,3
1,67,0,237
1,71,110,3
1,71,0,200
1,72,110,40
1,72,0,237
1,70,110,3
1,70,0,120
1,69,110,0
1,69,0,117
1,67,110,3
1,67,0,177
1,72,110,3
1,72,0,117
1,72,110,3
1,72,0,177
1,69,110,63
1,69,0,57
1,72,110,3
1,72,0,57
1,72,110,3
1,72,0,57
1,72,110,3
1,72,0,117
1,72,110,3
1,72,0,117
1,67,110,3
1,67,0,320
1,73,110,400
1,73,0,117
1,73,110,3
1,73,0,57
1,73,110,3
1,73,0,117
1,73,110,3
1,73,0,60
1,76,110,0
1,76,0,200
1,69,110,160
1,69,0,57
1,69,110,3
1,69,0,117
1,78,110,3
1,78,0,57
1,76,110,3
1,76,0,117
1,72,110,3
1,72,0,60
1,71,110,0
1,71,0,117
1,69,110,3
1,69,0,117
1,69,110,3
1,69,0,117
1,69,110,3
1,69,0,117
1,73,110,3
1,73,0,117
1,73,110,3
1,73,0,117
1,73,110,3
1,73,0,117
1,74,110,3
1,74,0,117
1,74,110,3
1,74,0,117
1,69,110,3
1,69,0,117
1,69,110,3
1,69,0,57
1,69,110,3
1,69,0,117
1,73,110,183
1,73,0,60
1,71,110,0
1,71,0,117
1,71,110,3
1,71,0,57
1,71,110,3
1,71,0,57
1,71,110,3
1,71,0,57
1,69,110,3
1,69,0,117
1,69,110,3
1,69,0,117
1,69,110,63
1,69,0,117
1,73,110,3
1,73,0,57
1,73,110,3
1,73,0,177
1,72,110,3
1,72,0,60
1,71,110,0
1,71,0,177
1,71,110,3
1,71,0,57
1,69,110,3
1,69,0,177
1,69,110,183
1,69,0,57
1,73,110,3
1,73,0,57
1,71,110,3
1,71,0,117
1,71,110,3
1,71,0,117
1,69,110,3
1,69,0,117
1,73,110,3
1,73,0,117
1,71,110,3
1,71,0,117
1,73,110,3
1,73,0,117
1,74,110,3
1,74,0,57
1,73,110,3
1,73,0,117
1,69,110,3
1,69,0,117
1,69,110,3
1,69,0,57
1,69,110,3
1,69,0,177
1,73,110,123
1,73,0,57
1,73,110,3
1,73,0,117
1,71,110,3
1,71,0,57
1,73,110,3
1,73,0,117
1,71,110,3
1,71,0,117
1,71,110,3
1,71,0,117
1,69,110,3
1,69,0,57
1,69,110,3
1,69,0,260
1,73,110,1840
1,73,0,200
1,76,110,40
1,76,0,237
1,71,110,3
1,71,0,237
1,74,110,3
1,74,0,60
1,73,110,0
1,73,0,177
1,73,110,3
1,73,0,117
1,71,110,3
1,71,0,117
1,71,110,3
1,71,0,57
1,71,110,3
1,71,0,117
1,69,110,3
1,69,0,57
1,69,110,3
1,69,0,57
1,69,110,3
1,69,0,57
1,71,110,3
1,71,0,57
1,69,110,3
1,69,0,117
1,69,110,3
1,69,0,117
1,72,110,3
1,72,0,120
1,67,110,0
1,67,0,260
1,69,110,160
1,69,0,57
1,69,110,3
1,69,0,57
1,71,110,3
1,71,0,57
1,69,110,3
1,69,0,117
1,69,110,3
1,69,0,117
1,72,110,3
1,72,0,117
1,67,110,3
1,67,0,260
1,73,110,640
1,73,0,200
1,76,110,40
1,76,0,237
1,71,110,3
1,71,0,200
1,71,110,40
1,71,0,60
1,74,110,0
1,74,0,177
1,71,110,3
1,71,0,200
1,69,110,40
1,69,0,320
1,69,110,40
1,69,0,57
1,67,110,3
1,67,0,380
1,69,110,400
1,69,0,117
1,69,110,3
1,69,0,57
1,73,110,3
1,73,0,57
1,69,110,3
1,69,0,657
1,69,110,3
1,69,0,117
1,69,110,3
1,69,0,117
1,69,110,3
1,69,0,117
1,74,110,3
1,74,0,57
1,76,110,423
1,76,0,117
1,74,110,3
1,74,0,177
1,72,110,3
1,72,0,297
1,72,110,3
1,72,0,117
1,72,110,3
1,72,0,177
1,72,110,3
1,72,0,57
1,67,110,3
1,67,0,177
1,67,110,3
1,67,0,117
1,69,110,3
1,69,0,57
1,72,110,3
1,72,0,177
1,72,110,3
1,72,0,177
1,71,110,3
1,71,0,177
1,67,110,3
1,67,0,320
1,67,110,400
1,67,0,57
1,72,110,3
1,72,0,177
1,72,110,3
1,72,0,177
1,67,110,3
1,67,0,380
1,69,110,280
1,69,0,117
1,71,110,3
1,71,0,57
1,72,110,3
1,72,0,117
1,74,110,3
1,74,0,177
1,76,110,3
1,76,0,120
1,72,110,0
1,72,0,57
1,72,110,3
1,72,0,117
1,69,110,3
1,69,0,117
1,72,110,3
1,72,0,177
1,67,110,3
1,67,0,237
1,71,110,3
1,71,0,200
1,72,110,40
1,72,0,237
1,70,110,3
1,70,0,120
1,69,110,0
1,69,0,117
1,67,110,3
1,67,0,177
1,72,110,3
1,72,0,117
1,72,110,3
1,72,0,177
1,69,110,63
1,69,0,57
1,72,110,3
1,72,0,57
1,72,110,3
1,72,0,57
1,72,110,3
1,72,0,117
1,72,110,3
1,72,0,117
1,67,110,3
1,67,0,320
1,73,110,400
1,73,0,117
1,73,110,3
1,73,0,57
1,73,110,3
1,73,0,117
1,73,110,3
1,73,0,60
1,76,110,0
1,76,0,200
1,69,110,160
1,69,0,57
1,69,110,3
1,69,0,117
1,78,110,3
1,78,0,57
1,76,110,3
1,76,0,117
1,72,110,3
1,72,0,60
1,71,110,0
1,71,0,117
1,69,110,3
1,69,0,117
1,69,110,3
1,69,0,117
1,69,110,3
1,69,0,117
1,73,110,3
1,73,0,117
1,73,110,3
1,73,0,117
1,73,110,3
1,73,0,117
1,74,110,3
1,74,0,117
1,74,110,3
1,74,0,117
1,69,110,3
1,69,0,117
1,69,110,3
1,69,0,57
1,69,110,3
1,69,0,117
1,73,110,183
1,73,0,60
1,71,110,0
1,71,0,117
1,71,110,3
1,71,0,57
1,71,110,3
1,71,0,57
1,71,110,3
1,71,0,57
1,69,110,3
1,69,0,117
1,69,110,3
1,69,0,117
1,69,110,63
1,69,0,117
1,73,110,3
1,73,0,57
1,73,110,3
1,73,0,177
1,72,110,3
1,72,0,60
1,71,110,0
1,71,0,177
1,71,110,3
1,71,0,57
1,69,110,3
1,69,0,177
1,69,110,183
1,69,0,57
1,73,110,3
1,73,0,57
1,71,110,3
1,71,0,117
1,71,110,3
1,71,0,117
1,69,110,3
1,69,0,117
1,73,110,3
1,73,0,117
1,71,110,3
1,71,0,117
1,73,110,3
1,73,0,117
1,74,110,3
1,74,0,57
1,73,110,3
1,73,0,117
1,69,110,3
1,69,0,117
1,69,110,3
1,69,0,57
1,69,110,3
1,69,0,177
1,73,110,123
1,73,0,57
1,73,110,3
1,73,0,117
1,71,110,3
1,71,0,57
1,73,110,3
1,73,0,117
1,71,110,3
1,71,0,117
1,71,110,3
1,71,0,117
1,69,110,3
1,69,0,57
1,69,110,3
1,69,0,260
1,73,110,1840
1,73,0,200
1,76,110,40
1,76,0,237
1,71,110,3
1,71,0,237
1,74,110,3
1,74,0,60
1,73,110,0
1,73,0,177
1,73,110,3
1,73,0,117
1,71,110,3
1,71,0,117
1,71,110,3
1,71,0,57
1,71,110,3
1,71,0,117
1,69,110,3
1,69,0,57
1,69,110,3
1,69,0,57
1,69,110,3
1,69,0,57
1,71,110,3
1,71,0,57
1,69,110,3
1,69,0,117
1,69,110,3
1,69,0,117
1,72,110,3
1,72,0,120
1,67,110,0
1,67,0,260
1,69,110,160
1,69,0,57
1,69,110,3
1,69,0,57
1,71,110,3
1,71,0,57
1,69,110,3
1,69,0,117
1,69,110,3
1,69,0,117
1,72,110,3
1,72,0,120
1,67,110,0
1,67,0,260
1,69,110,160
1,69,0,57
1,69,110,3
1,69,0,57
1,71,110,3
1,71,0,57
1,69,110,3
1,69,0,117
1,69,110,3
1,69,0,117
1,72,110,3
1,72,0,117
1,67,110,3
1,67,0,260
1,69,110,160
1,69,0,57
1,69,110,3
1,69,0,57
1,71,110,3
1,71,0,57
1,69,110,3
1,69,0,117
1,69,110,3
1,69,0,117
1,73,110,3
1,73,0,120
1,68,110,0
1,68,0,60
1,68,110,0
1,68,0,117
1,74,110,3
1,74,0,240
1,76,110,0
1,76,0,480
1,69,110,0
1,69,0,780
1,72,110,2880
1,72,0,117
1,69,110,3
1,69,0,117
1,71,110,3
1,71,0,117
1,72,110,3
1,72,0,117
1,74,110,3
1,74,0,117
1,72,110,3
1,72,0,117
1,71,110,3
1,71,0,117
1,72,110,3
1,72,0,117
1,69,110,3
1,69,0,117
1,71,110,3
1,71,0,117
1,72,110,3
1,72,0,117
1,74,110,3
1,74,0,117
1,72,110,3
1,72,0,117
1,71,110,3
1,71,0,117
1,69,110,3
1,69,0,117
1,67,110,3
1,67,0,177
1,73,110,2043
1,73,0,117
1,73,110,3
1,73,0,57
1,73,110,3
1,73,0,117
1,73,110,3
1,73,0,60
1,76,110,0
1,76,0,200
1,69,110,160
1,69,0,57
1,69,110,3
1,69,0,117
1,78,110,3
1,78,0,57
1,76,110,3
1,76,0,117
1,72,110,3
1,72,0,60
1,71,110,0
1,71,0,117
1,69,110,3
1,69,0,117
1,69,110,3
1,69,0,117
1,69,110,3
1,69,0,117
1,73,110,3
1,73,0,117
1,73,110,3
1,73,0,117
1,73,110,3
1,73,0,117
1,74,110,3
1,74,0,117
1,74,110,3
1,74,0,117
1,69,110,3
1,69,0,117
1,69,110,3
1,69,0,57
1,69,110,3
1,69,0,117
1,73,110,183
1,73,0,60
1,71,110,0
1,71,0,117
1,71,110,3
1,71,0,57
1,71,110,3
1,71,0,57
1,71,110,3
1,71,0,57
1,69,110,3
1,69,0,117
1,69,110,3
1,69,0,117
1,69,110,63
1,69,0,117
1,73,110,3
1,73,0,57
1,73,110,3
1,73,0,177
1,72,110,3
1,72,0,60
1,71,110,0
1,71,0,177
1,71,110,3
1,71,0,57
1,69,110,3
1,69,0,177
1,69,110,183
1,69,0,57
1,73,110,3
1,73,0,57
1,71,110,3
1,71,0,117
1,71,110,3
1,71,0,117
1,69,110,3
1,69,0,117
1,73,110,3
1,73,0,117
1,71,110,3
1,71,0,117
1,73,110,3
1,73,0,117
1,74,110,3
1,74,0,57
1,73,110,3
1,73,0,117
1,69,110,3
1,69,0,117
1,69,110,3
1,69,0,57
1,69,110,3
1,69,0,177
1,73,110,123
1,73,0,57
1,73,110,3
1,73,0,117
1,71,110,3
1,71,0,57
1,73,110,3
1,73,0,117
1,71,110,3
1,71,0,117
1,71,110,3
1,71,0,117
1,69,110,3
1,69,0,57
1,69,110,3
1,69,0,260
1,73,110,1840
1,73,0,200
1,76,110,40
1,76,0,237
1,71,110,3
1,71,0,237
1,74,110,3
1,74,0,60
1,73,110,0
1,73,0,177
1,73,110,3
1,73,0,117
1,71,110,3
1,71,0,117
1,71,110,3
1,71,0,57
1,71,110,3
1,71,0,117
1,69,110,3
1,69,0,57
1,69,110,3
1,69,0,57
1,69,110,3
1,69,0,57
1,71,110,3
1,71,0,57
1,69,110,3
1,69,0,117
1,69,110,3
1,69,0,117
1,72,110,3
1,72,0,120
1,67,110,0
1,67,0,260
1,69,110,160
1,69,0,57
1,69,110,3
1,69,0,57
1,71,110,3
1,71,0,57
1,69,110,3
1,69,0,117
1,69,110,3
1,69,110,60
1,69,0,57
1,72,110,3
1,72,0,120
1,67,110,0
1,67,0,357
1,64,110,3
1,64,0,177
1,73,110,363
1,73,0,200
1,76,110,40
1,76,0,237
1,71,110,3
1,71,0,200
1,71,110,40
1,71,0,60
1,74,110,0
1,74,0,177
1,71,110,3
1,71,0,200
1,69,110,40
1,69,0,320
1,69,110,40
1,69,0,57
1,67,110,3
1,67,0,380
1,69,110,400
1,69,0,117
1,69,110,3
1,69,0,57
1,76,110,3
1,76,0,57
1,69,110,3
1,69,0,440
1,72,110,40
1,72,0,320
1,71,110,40
1,71,0,57
1,69,110,3
1,69,0,297
1,64,110,3
1,64,0,200
1,69,110,40
1,69,0,237
1,73,110,3
1,73,0,120
1,69,110,0
1,69,0,117
1,69,110,3
1,69,0,237
1,66,110,3
1,66,0,200
1,69,110,40
1,69,0,237
1,73,110,3
1,73,0,120
1,69,110,0
1,69,0,117
1,69,110,3
1,69,0,237
1,66,110,3
1,66,0,200
1,69,110,40
1,69,0,237
1,73,110,3
1,73,0,120
1,69,110,0
1,69,0,117
1,69,110,3
1,69,0,237
1,73,110,3
1,73,0,120
1,71,110,0
1,71,0,117
1,69,110,3
1,69,0,237
1,66,110,3
1,66,0,200
1,69,110,40
1,69,0,237
1,73,110,3
1,73,0,120
1,69,110,0
1,69,0,117
1,69,110,3
1,69,0,237
1,66,110,3
1,66,0,200
1,69,110,40
1,69,0,237
1,73,110,3
1,73,0,120
1,69,110,0
1,69,0,117
1,69,110,3
1,69,0,237
1,66,110,3
1,66,0,200
1,69,110,40
1,69,0,237
1,73,110,3
1,73,0,117
1,69,110,3
1,69,0,117
1,69,110,3
1,69,0,237
1,73,110,3
1,73,0,120
1,71,110,0
1,71,0,117
1,69,110,3
1,69,0,237
1,66,110,3
1,66,0,200
1,69,110,40
1,69,0,237
1,73,110,3
1,73,0,120
1,69,110,0
1,69,0,117
1,69,110,3
1,69,0,237
1,66,110,3
1,66,0,200
1,69,110,40
1,69,0,237
1,73,110,3
1,73,0,120
1,69,110,0
1,69,0,117
1,69,110,3
1,69,0,237
1,66,110,3
1,66,0,200
1,69,110,40
1,69,0,237
1,73,110,3
1,73,0,117
1,69,110,3
1,69,0,117
1,69,110,3
1,69,0,237
1,73,110,3
1,73,0,120
1,71,110,0
1,71,0,117
1,69,110,3
1,69,0,237
1,66,92,3
1,66,0,200
1,69,92,40
1,69,0,237
1,73,92,3
1,73,0,117
1,69,92,3
1,69,0,117
1,69,92,3
1,69,0,237
1,66,60,3
1,66,0,200
1,69,60,40
1,69,0,237
1,73,60,3
1,73,0,117
1,69,60,3
1,69,0,117
1,69,60,3
1,69,0,237
1,66,30,3
1,66,0,200
1,69,30,40
1,69,0,237
1,73,30,3
1,73,0,117
1,69,30,3
1,69,0,117
1,69,30,3
1,69,0,237
1,73,10,3
1,73,0,120
1,71,10,0
1,71,0,117
1,69,10,3
2,57,110,540
2,69,110,0
2,57,0,117
2,69,0,0
2,69,110,3
2,69,0,117
2,72,110,3
2,72,0,117
2,69,110,3
2,69,0,57
2,72,110,3
2,72,0,57
2,69,110,3
2,69,0,117
2,60,110,3
2,60,0,117
2,62,110,3
2,67,110,0
2,71,110,0
2,62,0,117
2,67,0,0
2,71,0,0
2,62,110,3
2,62,0,57
2,62,110,3
2,62,0,57
2,53,110,3
2,60,110,0
2,65,110,0
2,69,110,0
2,53,0,177
2,60,0,0
2,65,0,0
2,69,0,0
2,60,110,3
2,65,110,0
2,69,110,0
2,60,0,57
2,65,0,0
2,69,0,0
2,60,110,3
2,65,110,0
2,69,110,0
2,60,0,117
2,65,0,0
2,69,0,0
2,59,110,3
2,59,0,30
2,60,110,0
2,60,0,30
2,62,110,0
2,62,0,57
2,62,110,3
2,62,0,57
2,62,110,3
2,74,110,0
2,62,0,57
2,74,0,0
2,62,110,63
2,74,110,0
2,62,0,57
2,74,0,0
2,62,110,3
2,74,110,0
2,62,0,117
2,74,0,0
2,62,110,3
2,67,110,0
2,71,110,0
2,62,0,117
2,67,0,0
2,71,0,0
2,60,110,3
2,64,110,0
