track,note,velocity,time
1,66,86,384
1,50,80,0
1,54,86,0
1,54,70,125
1,50,84,0
1,66,84,0
1,66,86,14
1,50,84,0
1,54,90,0
1,54,84,62
1,66,100,0
1,50,80,0
1,66,92,15
1,50,90,0
1,54,92,0
1,50,80,37
1,54,84,0
1,66,96,0
1,50,90,62
1,54,76,0
1,66,100,0
1,54,74,132
1,50,80,0
1,66,100,0
1,50,86,15
1,54,80,0
1,66,96,0
1,50,84,38
1,66,92,0
1,54,86,0
1,66,96,62
1,50,74,0
1,54,84,0
1,61,80,0
1,49,86,0
1,45,96,10
1,49,96,0
1,45,92,16
1,49,90,0
1,45,110,15
1,49,106,0
1,61,90,7
1,49,90,0
1,49,84,13
1,61,90,0
1,61,86,14
1,49,92,0
1,49,92,13
1,61,90,0
1,61,84,15
1,49,92,0
1,61,92,11
1,49,90,0
1,47,90,10
1,59,84,0
1,47,80,0
1,59,78,0
1,47,86,21
1,59,84,0
1,46,84,11
1,58,74,0
1,47,84,10
1,59,76,0
1,47,68,18
1,44,96,0
1,59,78,0
1,59,86,15
1,47,68,0
1,44,96,0
1,47,78,16
1,44,92,0
1,59,92,0
1,59,74,23
1,47,80,0
1,54,86,0
1,66,78,0
1,50,110,0
1,66,80,225
1,69,92,0
1,66,92,16
1,69,106,0
1,66,100,24
1,69,106,0
1,69,106,24
1,66,96,0
1,66,90,16
1,69,100,0
1,66,96,110
1,69,100,0
1,66,92,14
1,69,106,0
1,66,96,36
1,69,106,0
1,66,100,60
1,69,110,0
1,66,100,15
1,69,96,0
1,61,74,0
1,49,86,0
1,49,62,9
1,61,68,0
1,61,76,15
1,54,80,0
1,49,84,0
1,61,72,30
1,64,78,0
1,54,100,15
1,61,68,0
1,61,78,11
1,54,92,0
1,54,84,14
1,61,74,0
1,54,86,15
1,61,76,0
1,61,84,12
1,64,64,0
1,61,70,12
1,54,80,0
1,54,100,14
1,61,90,0
1,54,110,11
1,61,96,0
1,43,100,0
1,52,96,17
1,57,64,0
1,59,68,0
1,52,116,12
1,59,92,0
1,59,92,4
1,52,106,0
1,59,78,26
1,52,92,0
1,47,92,0
1,43,80,0
1,43,86,16
1,47,106,0
1,59,76,0
1,52,90,0
1,59,84,17
1,43,92,0
1,47,110,0
1,52,96,0
1,59,80,35
1,43,90,0
1,52,110,0
1,47,110,0
1,59,84,15
1,52,92,0
1,43,92,0
1,47,110,0
1,40,86,0
1,55,78,0
1,67,86,0
1,62,92,0
1,55,72,0
1,67,76,0
1,62,74,0
1,52,86,0
1,55,76,0
1,67,74,0
1,62,86,0
1,55,76,7
1,67,78,0
1,62,92,0
1,55,76,4
1,67,80,0
1,62,92,0
1,45,106,9
1,55,90,72
1,52,72,0
1,62,84,0
1,45,92,12
1,55,92,7
1,64,72,0
1,62,76,0
1,52,84,0
1,64,70,8
1,52,76,0
1,55,92,0
1,62,76,0
1,45,90,11
1,50,110,3
1,57,92,72
1,66,96,0
1,62,110,0
1,50,80,15
1,42,90,0
1,57,86,10
1,62,90,0
1,66,86,0
1,57,80,7
1,62,96,0
1,66,92,0
1,57,84,10
1,62,86,0
1,66,86,0
1,43,96,9
1,59,92,72
1,67,78,0
1,55,84,0
1,59,86,3
1,67,76,0
1,55,78,0
1,43,84,16
1,67,24,0
1,59,90,0
1,66,92,0
1,55,76,0
1,59,92,0
1,66,78,0
1,55,72,0
1,55,66,0
1,59,84,0
1,66,86,0
1,40,78,0
1,47,86,0
1,52,76,0
1,40,110,13
1,40,110,12
1,55,72,48
1,67,76,0
1,62,92,0
1,57,76,0
1,55,70,9
1,67,74,0
1,62,80,0
1,67,78,0
1,62,84,0
1,55,70,4
1,67,70,0
1,62,84,0
1,55,68,8
1,62,76,0
1,67,76,0
1,45,84,4
1,52,92,0
1,57,100,72
1,52,86,0
1,55,90,9
1,62,96,2
1,67,78,0
1,57,92,0
1,57,80,12
1,62,84,0
1,67,76,0
1,55,84,24
1,67,84,2
1,62,90,0
1,57,90,0
1,62,80,8
1,57,86,0
1,66,90,0
1,42,90,24
1,50,86,0
1,62,90,48
1,66,96,0
1,42,96,0
1,55,78,0
1,57,92,2
1,66,86,24
1,62,84,0
1,66,84,8
1,62,86,0
1,55,64,3
1,57,68,23
1,66,66,6
1,50,76,0
1,62,80,0
1,57,76,0
1,43,106,4
1,67,74,48
1,55,76,0
1,59,86,0
1,59,80,3
1,55,70,0
1,67,76,0
1,43,90,18
1,59,84,0
1,55,76,0
1,67,74,0
1,67,74,10
1,55,80,0
1,59,92,0
1,43,92,18
1,47,86,10
1,59,78,0
1,45,116,24
1,49,90,0
1,61,84,0
1,45,90,4
1,49,76,0
1,61,78,0
1,45,92,11
1,61,78,0
1,49,76,0
1,61,78,14
1,45,106,0
1,49,80,0
1,47,86,18
1,43,106,0
1,59,76,0
1,59,76,16
1,43,90,0
1,47,86,0
1,43,92,15
1,59,76,0
1,47,80,0
1,59,84,16
1,43,96,0
1,47,86,0
1,62,60,77
1,66,106,0
1,69,92,0
2,50,100,384
2,54,92,57
2,50,92,0
2,62,90,51
2,66,90,0
2,54,62,0
2,50,106,66
2,50,96,41
2,54,92,0
2,51,80,0
2,54,70,41
2,66,100,0
2,50,72,0
2,62,106,0
2,50,106,113
2,54,80,41
2,50,74,0
2,54,76,33
2,50,80,0
2,66,106,0
2,62,92,0
2,61,70,0
2,49,78,0
2,49,90,24
2,61,90,0
2,61,86,14
2,49,86,0
2,49,84,15
2,61,84,0
2,61,86,17
2,49,78,0
2,61,92,11
2,49,86,0
2,61,90,16
2,49,92,0
2,61,96,23
2,49,92,0
2,59,84,24
2,47,90,0
2,58,70,10
2,46,86,0
2,47,84,5
2,59,76,0
2,47,78,11
2,59,72,0
2,47,76,8
2,59,70,0
2,47,90,13
2,59,92,0
2,50,110,21
2,45,106,0
2,50,106,12
2,50,92,54
2,54,106,0
2,50,86,53
2,62,92,0
2,66,96,0
2,50,116,75
2,50,86,51
2,54,96,0
2,50,116,47
2,62,90,0
2,66,92,0
2,50,110,124
2,54,74,37
2,50,78,0
2,50,110,46
2,66,96,0
2,62,100,0
2,61,70,0
2,49,76,0
2,61,80,32
2,49,86,0
2,49,78,15
2,61,78,0
2,61,84,15
2,49,86,0
2,61,78,18
2,49,84,0
2,49,78,14
2,61,78,0
2,49,80,15
2,61,84,0
2,49,74,15
2,61,84,0
2,61,86,16
2,49,106,0
2,47,84,24
2,59,90,0
2,47,74,5
2,59,76,0
2,43,100,16
2,59,84,0
2,47,84,0
2,43,90,10
2,47,78,0
2,59,76,0
2,43,110,16
2,59,78,0
2,47,86,0
2,43,116,17
2,59,84,0
2,47,86,0
2,43,122,13
2,59,86,0
2,47,90,0
2,40,86,0
2,55,78,0
2,67,86,0
2,62,92,0
2,55,72,0
2,67,76,0
2,62,74,0
2,52,86,0
2,55,76,0
2,67,74,0
2,62,86,0
2,55,76,7
2,67,78,0
2,62,92,0
2,55,76,4
2,67,80,0
2,62,92,0
2,45,106,9
2,55,90,72
2,52,72,0
2,62,84,0
2,45,92,12
2,55,92,7
2,64,72,0
2,62,76,0
2,52,84,0
2,64,70,8
2,52,76,0
2,55,92,0
2,62,76,0
2,45,90,11
2,50,110,3
2,57,92,72
2,66,96,0
2,62,110,0
2,50,80,15
2,42,90,0
2,57,86,10
2,62,90,0
2,66,86,0
2,57,80,7
2,62,96,0
2,66,92,0
2,57,84,10
2,62,86,0
2,66,86,0
2,43,96,9
2,59,92,72
2,67,78,0
2,55,84,0
2,59,86,3
2,67,76,0
2,55,78,0
2,43,84,16
2,67,24,0
2,59,90,0
2,66,92,0
2,55,76,0
2,59,92,0
2,66,78,0
2,55,72,0
2,55,66,0
2,59,84,0
2,66,86,0
2,40,78,0
2,47,86,0
2,52,76,0
2,40,110,13
2,40,110,12
2,55,72,48
2,67,76,0
2,62,92,0
2,57,76,0
2,55,70,9
2,67,74,0
2,62,80,0
2,67,78,0
2,62,84,0
2,55,70,4
2,67,70,0
2,62,84,0
2,55,68,8
2,62,76,0
2,67,76,0
2,45,84,4
2,52,92,0
2,57,100,72
2,52,86,0
2,55,90,9
2,62,96,2
2,67,78,0
2,57,92,0
2,57,80,12
2,62,84,0
2,67,76,0
2,55,84,24
2,67,84,2
2,62,90,0
2,57,90,0
2,62,80,8
2,57,86,0
2,66,90,0
2,42,90,24
2,50,86,0
2,62,90,48
2,66,96,0
2,42,96,0
2,55,78,0
2,57,92,2
2,66,86,24
2,62,84,0
2,66,84,8
2,62,86,0
2,55,64,3
2,57,68,23
2,66,66,6
2,50,76,0
2,62,80,0
2,57,76,0
2,43,106,4
2,67,74,48
2,55,76,0
2,59,86,0
2,59,80,3
2,55,70,0
2,67,76,0
2,43,90,18
2,59,84,0
2,55,76,0
2,67,74,0
2,67,74,10
2,55,80,0
2,59,92,0
2,43,92,18
2,47,86,10
2,59,78,0
2,45,116,24
2,49,90,0
2,61,84,0
2,45,90,4
2,49,76,0
2,61,78,0
2,45,92,11
2,61,78,0
2,49,76,0
2,61,78,14
2,45,106,0
2,49,80,0
2,47,86,18
2,43,106,0
2,59,76,0
2,59,76,16
2,43,90,0
2,47,86,0
2,43,92,15
2,59,76,0
2,47,80,0
2,59,84,16
2,43,96,0
2,47,86,0
2,50,68,44
2,57,90,4
2,62,58,1
2,66,84,1
2,69,74,1
2,62,60,0
2,66,106,0
2,69,92,0
3,38,106,384
3,50,80,96
3,43,92,35
3,38,80,95
3,42,84,0
3,38,106,7
3,50,90,96
3,43,76,47
3,38,86,81
3,42,100,5
3,38,86,24
3,45,110,7
3,49,116,1
3,52,86,1
3,43,106,10
3,43,96,23
3,47,106,72
3,45,84,22
3,42,110,11
3,38,84,6
3,38,106,0
3,50,90,15
3,43,74,10
3,38,84,72
3,42,100,67
3,38,106,7
3,50,96,8
3,38,92,48
3,43,86,49
3,42,96,0
3,40,84,2
3,45,96,25
3,49,100,144
3,50,106,4
3,43,110,0
3,47,106,2
3,45,92,48
3,43,116,60
3,42,106,48
3,40,126,47
3,47,122,0
3,45,106,64
3,43,106,37
3,42,110,52
3,38,116,74
3,45,122,2
3,47,122,174
3,49,126,16
3,50,110,16
3,38,122,5
3,50,106,2
3,38,96,1
3,45,106,1
3,43,116,2
3,45,116,13
3,43,110,1
3,42,116,55
3,40,126,5
3,45,122,3
3,43,106,64
3,40,110,36
3,38,92,65
3,47,110,73
3,45,110,4
3,50,106,0
3,45,96,34
3,47,116,2
3,42,122,3
3,50,122,68
3,42,110,22
3,50,116,44
3,45,116,6
3,43,126,1
3,43,84,8
3,45,122,2
3,43,110,29
3,45,126,22
3,45,110,16
3,43,116,9
3,43,106,9
3,38,126,6
4,62,100,3352
4,62,96,1
4,69,110,7
4,69,110,4
4,71,68,690
4,71,100,4
4,69,78,16
4,69,100,5
4,71,76,0
4,71,92,3
4,69,72,15
4,69,92,5
4,71,74,455
4,71,86,3
4,69,76,40
4,69,96,1
4,71,90,686
4,71,86,1
4,69,92,18
4,69,106,1
4,71,78,0
4,71,100,0
4,69,92,15
4,69,86,1
4,62,86,2
4,69,92,47
4,62,86,6
5,62,92,1206
5,69,72,92
5,71,64,707
5,69,78,17
5,71,62,2
5,69,56,7
5,71,64,723
5,69,56,30
5,71,68,703
5,69,80,21
5,71,72,1
5,69,70,16
5,62,76,676
5,69,68,90
5,62,76,4
6,57,116,3649
6,59,122,66
6,61,100,0
6,62,116,0
6,61,106,3
6,59,110,23
6,57,122,9
6,59,122,160
6,57,110,35
6,69,126,9
6,69,100,16
6,71,126,5
6,67,110,0
6,62,122,57
6,61,126,5
6,59,110,2
6,57,122,22
6,57,106,18
6,57,122,13
6,62,116,0
6,57,122,2
6,62,116,21
6,57,122,22
6,57,116,20
6,57,122,26
6,55,122,11
6,55,126,31
6,57,126,26
6,55,122,4
6,54,106,3
6,52,122,15
7,40,122,284
7,40,126,4
7,36,126,8
7,57,96,33
7,49,116,0
7,36,122,0
7,76,110,0
7,44,100,1
7,36,122,18
7,40,126,10
7,76,110,0
7,44,116,6
7,36,126,0
7,40,78,24
7,76,116,6
7,44,116,41
7,36,122,0
7,40,126,4
7,76,116,0
7,44,126,30
7,36,122,0
7,56,106,7
7,36,122,0
7,76,122,0
7,44,122,11
7,36,126,19
7,40,122,10
7,76,110,0
7,44,122,13
7,36,126,0
7,40,106,24
7,76,116,0
7,36,126,31
7,56,116,0
7,44,122,6
7,36,126,24
7,40,122,11
7,76,110,0
7,44,122,30
7,36,126,0
7,56,106,10
7,36,126,9
7,76,116,0
7,44,126,8
7,36,122,3
7,76,116,14
7,40,122,0
7,40,116,3
7,44,122,16
7,40,122,0
7,40,122,17
7,76,110,4
7,46,126,28
7,36,122,0
7,42,110,0
7,40,126,24
7,76,122,0
7,44,122,0
7,56,86,19
7,76,126,8
7,36,90,0
7,36,126,29
7,44,122,0
7,36,92,12
7,40,126,12
7,76,126,0
7,44,116,9
7,36,122,0
7,36,126,17
7,76,122,3
7,53,126,24
7,40,126,0
7,44,116,9
7,53,122,23
7,40,126,10
7,76,122,0
7,44,122,21
7,40,122,0
7,55,116,5
7,40,106,0
7,55,122,14
7,36,126,0
7,76,110,0
7,44,116,2
7,36,122,16
7,40,126,12
7,76,110,0
7,44,122,11
7,36,126,0
7,40,76,24
7,76,122,5
7,44,122,27
7,36,126,0
7,40,122,17
7,76,122,0
7,36,126,14
7,44,122,7
7,40,122,20
7,56,106,0
7,76,110,1
7,36,126,0
7,44,122,26
7,36,126,13
7,40,122,12
7,76,110,0
7,44,110,4
7,36,126,0
7,40,74,24
7,76,116,3
7,36,126,24
7,44,122,11
7,36,122,16
7,40,126,14
7,76,122,0
7,44,116,33
7,36,126,0
7,56,122,3
7,36,126,9
7,76,126,0
7,44,116,10
7,43,46,0
7,36,126,7
7,76,126,15
7,40,122,0
7,40,110,8
7,44,126,18
7,40,110,0
7,40,122,4
7,76,122,11
7,46,126,24
7,36,92,0
7,44,126,19
7,42,106,0
7,36,126,3
7,76,122,16
7,40,126,0
7,44,116,35
7,36,126,0
7,40,62,8
7,36,126,5
7,76,126,0
7,53,80,24
7,44,110,8
7,53,110,8
7,36,92,0
7,40,122,15
7,76,126,0
7,44,116,30
7,36,126,0
7,40,110,7
7,50,106,0
7,50,116,10
7,50,96,10
7,50,106,8
7,50,96,8
7,40,110,8
7,50,116,0
7,40,126,18
7,47,126,7
7,40,126,24
7,40,126,17
7,57,110,17
7,36,126,5
7,57,106,0
7,53,110,52
7,51,64,14
7,36,110,0
7,36,92,11
7,53,110,13
7,40,126,0
7,51,74,40
7,53,122,29
7,51,76,4
7,36,100,0
7,36,126,16
7,53,110,0
7,51,78,24
7,36,122,0
7,53,110,43
7,51,86,28
7,36,110,0
7,36,106,5
7,53,116,14
7,40,122,0
7,51,90,41
7,53,116,27
7,51,92,40
7,36,126,22
7,57,90,0
7,51,100,40
7,53,116,44
7,51,90,17
7,36,122,0
7,36,80,6
7,53,110,12
7,40,122,0
7,51,92,45
7,53,110,30
7,51,92,39
7,36,122,36
7,53,110,0
7,51,96,30
7,36,122,0
7,53,116,44
7,51,116,21
7,36,106,0
7,36,86,5
7,53,122,1
7,40,126,0
7,51,110,6
7,40,106,0
7,53,122,20
7,40,122,0
7,40,92,0
7,40,110,8
7,55,122,14
7,36,126,24
7,57,116,0
7,53,116,60
7,36,106,17
7,51,84,0
7,36,80,11
7,53,116,12
7,40,122,0
7,51,96,42
7,53,116,33
7,51,96,36
7,53,110,36
7,36,126,0
7,51,92,34
7,36,126,0
7,53,122,43
7,51,100,22
7,36,122,0
7,36,110,9
7,53,122,14
7,40,126,0
7,51,90,32
7,53,122,33
7,51,100,0
7,40,86,24
7,36,122,13
7,57,106,0
7,51,90,39
7,53,110,43
7,51,92,14
7,36,106,0
7,36,80,0
7,53,116,12
7,40,122,0
7,51,96,44
7,53,122,33
7,51,110,3
7,36,122,24
7,36,122,17
7,53,110,0
7,51,100,23
7,36,126,0
7,53,116,34
