track,note,velocity,time
1,41,64,0
1,48,72,7
1,55,60,14
1,60,62,15
1,43,64,176
1,50,64,13
1,55,60,10
1,60,66,12
1,48,78,18
1,55,62,45
1,60,60,2
1,55,58,6
1,60,58,1
1,47,76,20
1,60,60,38
1,55,60,1
1,60,56,6
1,55,62,1
1,41,72,0
1,60,60,16
1,55,58,1
1,55,36,2
1,55,60,5
1,60,60,0
1,55,42,39
1,60,54,0
1,60,30,13
1,55,64,16
1,60,64,0
1,55,48,17
1,60,50,1
1,60,60,12
1,55,56,0
1,43,72,7
1,55,46,26
1,60,52,1
1,55,34,3
1,55,68,4
1,60,62,0
1,60,54,0
1,55,54,0
1,60,50,12
1,55,48,2
1,55,62,16
1,60,62,1
1,60,56,28
1,55,58,1
1,60,58,13
1,55,58,0
1,48,68,4
1,55,56,20
1,60,56,1
1,55,56,13
1,60,56,0
1,47,68,15
1,55,62,37
1,60,56,1
1,60,56,3
1,55,58,1
1,41,60,24
1,55,60,63
1,60,52,1
1,60,34,8
1,55,46,1
1,60,64,33
1,55,66,0
1,60,56,39
1,55,54,0
1,60,46,15
1,55,44,0
1,55,62,3
1,60,62,1
1,55,56,21
1,60,58,0
1,55,56,11
1,60,56,1
1,43,64,13
1,60,58,58
1,55,56,0
1,60,30,8
1,55,46,1
1,55,66,5
1,60,64,0
1,55,54,31
1,60,46,1
1,60,56,12
1,55,48,2
1,60,64,15
1,55,66,0
1,55,62,25
1,60,64,0
1,60,62,13
1,55,60,0
1,48,80,15
1,60,64,34
1,55,64,1
1,60,60,11
1,55,60,1
1,47,78,16
1,55,64,39
1,60,60,0
1,60,60,13
1,55,60,0
1,41,70,21
1,55,60,2
1,60,58,0
1,55,50,10
1,55,66,29
1,60,60,2
1,60,58,8
1,55,56,2
1,60,50,13
1,55,56,1
1,60,64,13
1,55,64,0
1,60,64,23
1,55,60,1
1,60,56,9
1,55,58,1
1,43,66,10
1,60,56,22
1,55,56,0
1,60,46,11
1,60,66,40
1,55,70,0
1,60,60,32
1,55,60,2
1,60,56,14
1,55,56,1
1,60,66,12
1,55,66,0
1,60,60,30
1,55,62,1
1,55,60,14
1,60,60,0
1,48,80,11
1,55,62,36
1,60,54,1
1,60,62,10
1,55,60,0
1,47,80,0
1,55,68,42
1,60,62,0
1,55,56,10
1,60,56,1
1,41,70,1
1,55,62,71
1,60,60,0
1,60,46,9
1,55,48,2
1,55,70,36
1,60,64,1
1,55,58,39
1,60,56,1
1,60,48,14
1,55,52,1
1,55,62,14
1,60,60,0
1,55,60,23
1,60,60,1
1,55,56,13
1,60,60,0
1,43,70,9
1,55,62,56
1,60,58,1
1,55,70,5
1,60,64,0
1,60,52,1
1,55,48,1
1,60,54,13
1,55,52,0
1,60,62,14
1,55,62,1
1,55,66,9
1,60,64,1
1,55,60,30
1,60,60,0
1,48,72,7
1,60,58,24
1,55,58,1
1,60,60,11
1,55,60,0
1,47,72,14
1,60,60,7
1,55,64,0
1,60,56,9
1,55,58,1
1,41,64,22
1,60,56,62
1,55,56,1
1,55,56,8
1,60,52,1
1,55,64,20
1,60,64,1
1,60,58,38
1,55,58,1
1,60,50,15
1,55,56,0
1,60,58,10
1,55,64,0
1,55,56,20
1,60,58,1
1,60,56,11
1,55,58,1
1,43,72,12
1,60,58,60
1,55,62,0
1,60,54,14
1,55,56,0
1,55,66,31
1,60,64,0
1,55,60,45
1,60,58,0
1,60,50,12
1,55,58,1
1,55,66,13
1,60,64,0
1,55,60,22
1,60,56,1
1,55,60,13
1,60,60,0
1,48,78,12
1,60,60,30
1,55,62,0
1,60,56,2
1,55,60,1
1,47,76,0
1,60,64,45
1,55,68,0
1,60,56,11
1,55,60,0
1,41,68,4
1,55,62,0
1,60,58,0
1,60,52,10
1,55,54,1
1,55,68,34
1,60,64,0
1,60,60,29
1,55,60,1
1,60,48,13
1,55,50,1
1,60,62,14
1,55,64,0
1,55,58,18
1,60,54,1
1,55,60,11
1,60,60,1
1,43,64,10
1,55,64,3
1,60,60,0
1,60,48,14
1,55,56,1
1,60,64,29
1,55,68,1
1,60,60,26
1,55,60,0
1,60,56,13
1,55,58,0
1,60,64,12
1,55,64,0
1,60,58,25
1,55,58,1
1,60,58,11
1,55,62,1
1,48,78,8
1,60,64,28
1,55,64,1
1,60,60,1
1,55,62,1
1,47,72,1
1,60,58,41
1,55,60,0
1,60,58,9
1,55,58,1
1,41,72,2
1,60,58,68
1,55,58,1
1,55,56,12
1,60,52,0
1,55,70,35
1,60,64,0
1,60,60,50
1,55,62,0
1,55,56,14
1,60,52,0
1,60,64,12
1,55,64,1
1,60,56,24
1,55,56,1
1,55,58,14
1,60,56,1
1,43,68,12
1,55,60,64
1,60,54,0
1,55,58,14
1,60,56,0
1,60,64,32
1,55,66,0
1,60,62,37
1,55,64,1
1,60,54,11
1,55,56,0
1,55,64,12
1,60,62,0
1,55,58,18
1,60,56,1
1,55,62,12
1,60,60,1
1,48,76,9
1,55,64,31
1,60,62,0
1,55,62,10
1,60,56,1
1,47,74,23
1,60,62,43
1,55,62,1
1,60,56,12
1,55,58,0
1,41,72,1
1,55,62,2
1,60,56,1
1,60,56,8
1,55,60,1
1,60,62,31
1,55,66,0
1,55,56,25
1,60,58,1
1,60,46,13
1,55,48,0
1,60,62,14
1,55,64,1
1,55,48,15
1,60,52,1
1,55,60,12
1,60,58,1
1,43,70,15
1,60,62,51
1,55,64,0
1,60,48,9
1,55,58,1
1,55,72,34
1,60,68,0
1,55,60,28
1,60,40,3
1,55,56,13
1,60,58,0
1,55,64,14
1,60,62,1
1,60,64,23
1,55,64,1
1,60,62,11
1,55,64,0
1,48,76,9
1,60,58,38
1,55,58,0
1,55,60,9
1,60,56,0
1,47,76,5
1,60,60,35
1,55,60,0
1,55,62,5
1,60,54,0
1,41,70,24
1,55,54,17
1,60,52,0
1,60,62,0
1,55,60,0
1,60,48,60
1,55,30,0
1,60,30,11
1,55,32,0
1,55,64,13
1,60,64,0
1,60,58,22
1,55,54,0
1,60,50,11
1,55,58,0
1,43,66,0
1,55,62,48
1,60,58,0
1,55,58,13
1,60,50,0
1,55,66,31
1,60,62,0
1,55,54,37
1,60,34,0
1,60,60,14
1,55,58,0
1,55,68,10
1,60,66,0
1,55,58,26
1,60,58,0
1,55,62,16
1,60,62,0
1,48,70,0
1,55,66,24
1,60,62,0
1,60,60,0
1,55,64,0
1,47,70,0
1,55,64,48
1,60,58,0
1,60,56,14
1,55,58,0
1,41,66,0
1,55,64,72
1,60,60,0
1,60,48,11
1,55,54,0
1,55,68,32
1,60,64,0
1,60,56,38
1,55,56,0
1,60,56,14
1,55,48,0
1,55,64,14
1,60,64,0
1,55,60,10
1,60,60,0
1,43,68,24
1,55,62,0
1,60,58,0
1,60,60,0
1,55,60,0
1,60,62,0
1,55,64,0
1,60,64,52
1,55,64,0
1,60,56,13
1,55,56,0
1,60,64,12
1,55,64,0
1,55,58,15
1,60,58,0
1,60,62,12
1,55,62,0
1,48,90,0
1,60,64,24
1,55,66,0
1,60,62,0
1,55,60,0
1,47,72,0
1,55,66,0
1,60,62,0
1,60,60,13
1,55,60,0
1,41,62,1
1,55,60,48
1,60,58,0
1,60,60,14
1,55,56,0
1,60,62,35
1,55,66,0
1,60,58,28
1,55,56,0
1,60,46,12
1,55,30,0
1,60,64,15
1,55,64,0
1,55,56,18
1,55,56,15
1,60,56,0
1,43,68,0
1,55,62,48
1,60,58,0
1,60,46,9
1,55,48,0
1,55,66,29
1,60,62,0
1,55,58,29
1,60,56,0
1,55,56,13
1,60,50,0
1,55,66,13
1,60,64,0
1,55,58,15
1,60,60,0
1,60,60,13
1,55,64,0
1,48,70,0
1,60,62,24
1,55,64,0
1,55,60,0
1,60,60,0
1,47,78,24
1,60,64,43
1,55,64,0
1,60,56,0
1,55,64,0
1,42,64,5
1,50,60,72
1,62,62,0
1,57,60,0
1,50,60,4
1,57,56,0
1,50,34,3
1,62,60,0
1,57,66,0
1,62,74,0
1,50,68,0
1,43,78,16
1,55,62,0
1,50,60,0
1,59,64,0
1,50,58,0
1,55,58,0
1,59,62,0
1,62,60,0
1,50,62,0
1,59,60,0
1,55,62,0
1,62,64,0
1,55,64,15
1,59,66,0
1,62,66,0
1,50,64,0
1,50,76,20
1,66,78,0
1,62,70,0
1,57,64,0
1,42,90,6
1,55,58,20
1,62,64,0
1,67,64,0
1,50,60,0
1,47,68,0
1,43,68,0
1,55,62,17
1,62,64,0
1,67,62,0
1,50,48,0
1,62,68,14
1,50,68,0
1,67,62,0
1,55,62,0
1,61,58,74
1,57,66,0
1,52,68,0
1,64,64,0
1,45,76,0
1,61,54,20
1,57,66,0
1,64,64,0
1,57,62,50
1,61,60,0
1,64,62,0
1,45,68,0
1,52,66,0
1,66,62,74
1,62,76,0
1,59,68,0
1,54,66,0
1,47,66,0
1,44,66,94
1,59,74,0
1,56,58,0
1,64,72,0
1,52,68,0
1,62,68,0
1,57,68,0
1,50,84,0
1,66,68,0
1,42,72,1
1,43,30,0
1,47,62,0
1,50,68,0
1,55,64,0
1,62,74,0
1,67,70,0
1,67,52,17
1,62,64,0
1,55,62,0
1,67,60,14
1,62,64,0
1,55,60,0
1,50,56,5
1,67,62,1
1,62,68,0
1,55,64,0
1,61,50,0
1,45,76,0
1,57,64,0
1,52,68,0
1,64,64,0
1,57,60,8
1,52,64,5
1,61,64,48
1,64,66,0
1,57,66,0
1,57,64,3
1,64,62,0
1,61,50,0
1,52,66,0
1,54,62,24
1,47,76,0
1,62,76,0
1,66,64,0
1,59,68,0
1,59,72,0
1,64,76,0
1,56,62,0
1,44,64,0
1,52,66,0
1,59,70,0
1,47,90,0
1,60,70,144
1,48,76,0
1,47,62,45
1,48,100,2
1,60,64,48
1,55,70,0
1,55,64,13
1,60,66,0
1,47,90,24
1,55,68,6
1,60,72,0
1,60,60,7
1,55,66,0
1,41,78,0
1,55,60,48
1,60,64,0
1,60,64,4
1,55,64,0
1,55,68,24
1,60,70,0
1,60,64,38
1,55,68,0
1,55,60,15
1,60,60,0
1,60,86,16
1,55,80,0
1,55,66,17
1,60,68,0
1,60,66,15
1,55,64,0
1,43,86,0
1,60,66,0
1,55,66,0
1,55,48,0
1,60,58,0
1,60,80,24
1,55,80,0
1,55,66,9
1,60,64,0
1,60,60,14
1,55,56,0
1,55,74,17
1,60,70,0
1,60,62,14
1,55,60,0
1,60,64,13
1,55,64,0
1,48,78,0
1,55,66,24
1,60,64,0
1,55,60,15
1,60,62,0
1,47,76,1
1,60,64,24
1,55,66,0
1,55,62,11
1,60,62,0
1,41,74,24
1,55,66,38
1,60,60,0
1,60,66,13
1,55,66,0
1,60,70,33
1,55,72,0
1,55,64,40
1,60,62,0
1,60,56,14
1,55,56,0
1,60,72,15
1,55,74,0
1,60,66,17
1,55,68,0
1,60,68,15
1,55,64,0
1,43,72,24
1,60,68,0
1,55,70,0
1,60,60,0
1,55,60,0
1,55,70,0
1,60,70,0
1,55,64,48
1,60,62,0
1,55,60,16
1,60,60,0
1,60,68,15
1,55,72,0
1,60,64,22
1,55,68,0
1,55,62,15
1,60,64,0
1,48,76,24
1,55,70,40
1,60,66,0
1,55,62,14
1,60,62,0
1,47,72,2
1,55,68,40
1,60,66,0
1,55,58,12
1,60,60,0
1,41,70,24
1,55,70,56
1,60,66,0
1,55,60,11
1,60,62,0
1,55,76,32
1,60,68,0
1,55,68,29
1,60,64,0
1,60,62,13
1,55,60,0
1,60,70,15
1,55,72,0
1,60,60,16
1,55,64,0
1,55,62,15
1,60,62,0
1,43,76,24
1,60,66,0
1,55,72,0
1,55,60,0
1,60,62,0
1,55,72,24
1,60,70,0
1,60,64,24
1,55,70,0
1,60,60,14
1,55,62,0
1,60,70,15
1,55,74,0
1,60,62,21
1,55,66,0
1,55,68,14
1,60,68,0
1,48,76,0
1,55,74,41
1,60,70,0
1,60,64,14
1,55,64,0
1,47,78,6
1,55,70,40
1,60,64,0
1,55,60,14
1,60,62,0
1,41,70,24
1,60,64,57
1,55,66,0
1,55,62,10
1,60,62,0
1,55,68,24
1,60,64,0
1,55,64,52
1,60,60,0
1,55,60,15
1,60,58,0
1,60,72,16
1,55,74,0
1,55,64,20
1,60,62,0
1,55,60,13
1,60,62,0
1,43,84,24
1,55,64,0
1,60,64,0
1,55,56,0
1,60,58,0
1,60,70,0
1,55,76,0
1,60,72,21
1,55,70,0
1,55,64,23
1,60,64,0
1,60,60,15
1,55,60,0
1,60,62,15
1,55,60,0
1,55,78,16
1,60,72,0
1,60,62,19
1,55,64,0
1,55,66,15
1,60,64,0
1,48,74,24
1,55,74,36
1,60,72,0
1,55,62,13
1,60,62,0
1,47,78,24
1,60,64,7
1,55,66,0
1,60,64,11
1,55,64,0
1,41,76,24
1,55,64,56
1,60,62,0
1,60,62,12
1,55,60,0
1,60,72,33
1,55,80,0
1,60,64,24
1,55,68,0
1,60,62,13
1,55,60,0
1,60,70,15
1,55,72,0
1,60,66,29
1,55,68,0
1,60,64,16
1,55,66,0
1,43,86,0
1,60,68,63
1,55,70,0
1,60,64,0
1,55,64,0
1,60,76,24
1,55,76,0
1,60,64,25
1,55,64,0
1,60,60,13
1,55,62,0
1,60,64,14
1,55,66,0
1,60,78,15
1,55,78,0
1,55,70,19
1,60,70,0
1,55,68,15
1,60,68,0
1,48,86,7
1,55,74,33
1,60,76,0
1,55,64,14
1,60,64,0
1,47,92,3
1,55,68,1
1,60,64,0
1,60,64,12
1,55,64,0
1,41,80,24
1,55,70,61
1,60,66,0
1,55,64,13
1,60,62,0
1,60,66,31
1,55,72,0
1,55,60,39
1,60,58,0
1,55,60,11
1,60,60,0
1,60,66,13
1,55,68,0
1,55,62,11
1,60,64,0
1,60,62,13
1,55,62,0
1,43,76,4
1,60,64,0
1,55,70,0
1,55,66,0
1,60,64,0
1,60,70,0
1,55,76,0
1,55,68,0
1,60,64,0
1,55,60,0
1,60,60,0
1,60,70,15
1,55,80,0
1,60,64,18
1,55,70,0
1,55,68,13
1,60,64,0
1,48,100,0
1,55,72,38
1,60,66,0
1,55,64,14
1,60,66,0
1,47,92,0
1,60,68,9
1,55,70,0
1,55,62,12
1,60,62,0
1,41,80,24
1,55,68,54
1,60,64,0
1,60,62,0
1,55,62,0
1,60,80,0
1,55,78,0
1,55,56,23
1,60,42,0
1,55,64,15
1,60,62,0
1,60,62,14
1,55,64,0
1,60,78,15
1,55,80,0
1,60,68,20
1,55,68,0
1,60,66,15
1,55,68,0
1,43,100,7
1,55,68,14
1,60,64,0
1,55,60,31
1,60,52,0
1,60,80,15
1,55,78,0
1,55,54,22
1,60,56,0
1,55,70,13
1,60,74,0
1,60,66,23
1,55,64,0
1,60,62,14
1,55,58,0
1,60,64,14
1,55,68,0
1,60,76,13
1,55,76,0
1,60,68,16
1,55,68,0
1,60,66,13
1,55,72,0
1,48,90,0
1,55,78,24
1,60,78,0
1,55,66,14
1,60,66,0
1,47,86,1
1,60,84,38
1,55,76,0
1,60,66,0
1,55,68,0
1,42,78,0
1,57,64,0
1,62,58,0
1,50,58,0
1,57,66,31
1,62,66,0
1,50,76,0
1,57,32,21
1,57,48,18
1,50,56,0
1,50,72,15
1,57,78,0
1,62,68,0
1,57,62,16
1,62,56,0
1,57,58,12
1,62,46,0
1,50,86,0
1,43,74,0
1,59,68,48
1,62,68,0
1,55,62,0
1,62,52,10
1,55,30,0
1,55,70,38
1,62,78,0
1,59,90,0
1,62,54,54
1,55,58,0
1,59,54,0
1,62,64,16
1,59,60,0
1,55,58,0
1,55,76,0
1,59,80,0
1,62,76,0
1,66,74,0
1,62,78,0
1,57,76,0
1,50,90,0
1,42,84,7
1,57,68,0
1,47,76,12
1,50,66,0
1,67,64,0
1,62,68,0
1,43,70,0
1,55,64,0
1,55,56,12
1,50,58,3
1,55,64,12
1,62,70,0
1,67,64,0
1,62,60,25
1,55,56,0
1,50,54,2
1,67,60,42
1,62,66,0
1,55,62,0
