track,note,velocity,time
1,48,62,370
1,60,58,7
1,63,58,11
1,46,50,33
1,58,58,4
1,62,60,9
1,44,54,22
1,56,52,6
1,60,64,10
1,58,54,344
1,62,64,10
1,44,46,41
1,56,56,5
1,60,62,10
1,48,64,29
1,60,62,4
1,63,60,5
1,46,54,15
1,58,60,3
1,62,64,11
1,44,48,37
1,56,54,4
1,60,64,8
1,58,60,342
1,62,70,7
1,56,60,40
1,44,62,8
1,60,68,1
1,56,46,20
1,60,44,1
1,44,48,1
1,60,28,30
1,56,36,0
1,44,40,2
1,56,50,31
1,60,44,1
1,44,52,0
1,60,44,31
1,56,56,1
1,44,58,1
1,56,58,30
1,60,56,0
1,44,62,0
1,60,62,29
1,56,54,1
1,44,68,0
1,44,76,31
1,56,62,1
1,60,64,0
1,60,62,33
1,56,62,1
1,44,90,0
1,56,78,34
1,60,66,1
1,44,90,0
1,60,68,36
1,44,96,0
1,56,90,0
1,56,92,32
1,44,100,0
1,60,72,1
1,60,84,34
1,44,110,1
1,56,106,0
1,56,96,33
1,60,80,0
1,44,110,0
1,60,90,35
1,56,106,0
1,44,110,1
1,44,126,37
1,60,100,0
1,56,106,0
1,51,126,38
1,58,110,48
1,62,110,20
1,62,34,16
1,46,106,16
1,63,106,4
1,58,100,0
1,58,96,23
1,63,110,0
1,65,92,0
1,60,100,0
1,60,90,9
1,65,96,0
1,51,110,33
1,58,106,48
1,62,106,6
1,46,106,1
1,63,92,12
1,58,96,0
1,58,78,24
1,63,92,0
1,63,86,31
1,58,92,0
1,51,100,48
1,58,106,48
1,62,110,10
1,46,122,4
1,63,106,14
1,58,106,0
1,58,90,44
1,63,110,0
1,63,96,35
1,58,96,0
1,58,92,8
1,63,106,0
1,51,106,0
1,58,96,48
1,62,92,48
1,46,96,4
1,63,96,18
1,58,92,0
1,63,90,12
1,58,78,0
1,58,86,19
1,63,96,0
1,60,100,32
1,65,90,0
1,60,86,7
1,65,80,0
1,51,90,35
1,58,90,48
1,62,90,48
1,46,96,0
1,63,96,16
1,58,96,0
1,58,100,32
1,63,92,0
1,60,92,16
1,65,100,0
1,51,92,33
1,58,92,48
1,62,92,13
1,46,100,5
1,63,92,21
1,58,90,0
1,58,76,14
1,63,86,0
1,63,96,23
1,58,92,0
1,65,86,32
1,60,92,0
1,60,90,7
1,65,92,0
1,51,86,35
1,58,96,48
1,62,92,2
1,46,92,4
1,63,92,22
1,58,92,0
1,58,96,31
1,63,92,0
1,65,92,32
1,60,96,0
1,51,106,53
1,58,100,48
1,62,100,8
1,46,110,7
1,63,100,19
1,58,110,0
1,58,76,12
1,63,80,0
1,63,92,21
1,58,96,0
1,63,90,34
1,58,96,0
1,63,96,10
1,58,96,0
1,51,96,36
1,58,106,48
1,62,100,1
1,46,106,0
1,63,96,17
1,58,96,0
1,65,106,0
1,60,92,0
1,65,80,35
1,60,90,0
1,65,86,34
1,60,92,0
1,51,96,0
1,58,96,45
1,62,92,24
1,46,110,13
1,63,92,20
1,58,90,0
1,58,78,11
1,63,84,0
1,58,92,22
1,63,96,0
1,63,92,36
1,58,96,0
1,58,96,9
1,63,86,0
1,51,100,16
1,58,96,48
1,62,96,9
1,46,110,6
1,58,96,12
1,63,96,0
1,65,96,32
1,60,86,0
1,65,78,35
1,60,90,0
1,65,84,34
1,60,74,0
1,62,70,0
1,51,106,1
1,58,92,48
1,62,86,9
1,46,100,3
1,63,96,16
1,58,100,0
1,63,86,16
1,58,84,0
1,58,84,23
1,63,92,0
1,65,84,0
1,60,90,0
1,65,86,6
1,60,86,0
1,51,100,33
1,58,92,48
1,62,90,3
1,46,116,0
1,63,90,18
1,58,96,0
1,58,76,13
1,63,84,0
1,58,90,22
1,63,84,0
1,65,84,32
1,60,96,0
1,60,86,36
1,65,76,0
1,51,100,2
1,58,92,46
1,62,90,10
1,46,96,2
1,63,96,17
1,58,96,0
1,58,78,16
1,63,86,0
1,63,86,23
1,58,84,0
1,65,84,32
1,60,86,0
1,65,90,7
1,60,90,0
1,60,84,20
1,65,86,0
1,51,110,2
1,58,90,48
1,62,92,48
1,46,90,4
1,63,92,0
1,58,78,0
1,58,80,33
1,63,96,0
1,65,86,32
1,60,90,0
1,60,80,8
1,65,86,0
1,51,92,34
1,58,72,48
1,62,100,7
1,46,84,5
1,58,74,0
1,63,84,0
1,63,86,16
1,58,76,0
1,63,84,25
1,58,76,0
1,65,84,32
1,60,90,0
1,65,86,8
1,60,84,0
1,48,110,37
1,53,86,48
1,55,80,33
1,60,86,0
1,46,96,48
1,58,100,43
1,44,110,17
1,60,76,1
1,56,100,2
1,58,92,31
1,46,106,1
1,62,86,0
1,48,106,16
1,53,80,54
1,55,106,46
1,60,96,1
1,46,96,44
1,58,100,1
1,62,96,1
1,44,110,46
1,60,106,0
1,56,100,1
1,51,126,21696
1,58,110,48
1,62,110,20
1,62,34,16
1,46,106,16
1,63,106,4
1,58,100,0
1,58,96,23
1,63,110,0
1,65,92,0
1,60,100,0
1,60,90,9
1,65,96,0
1,51,110,33
1,58,106,48
1,62,106,6
1,46,106,1
1,63,92,12
1,58,96,0
1,58,78,24
1,63,92,0
1,63,86,31
1,58,92,0
1,51,100,48
1,58,106,48
1,62,110,10
1,46,122,4
1,63,106,14
1,58,106,0
1,58,90,44
1,63,110,0
1,63,96,35
1,58,96,0
1,58,92,8
1,63,106,0
1,51,106,0
1,58,96,48
1,62,92,48
1,46,96,4
1,63,96,18
1,58,92,0
1,63,90,12
1,58,78,0
1,58,86,19
1,63,96,0
1,60,100,32
1,65,90,0
1,60,86,7
1,65,80,0
1,51,90,35
1,58,90,48
1,62,90,48
1,46,96,0
1,63,96,16
1,58,96,0
1,58,100,32
1,63,92,0
1,60,92,16
1,65,100,0
1,51,92,33
1,58,92,48
1,62,92,13
1,46,100,5
1,63,92,21
1,58,90,0
1,58,76,14
1,63,86,0
1,63,96,23
1,58,92,0
1,65,86,32
1,60,92,0
1,60,90,7
1,65,92,0
1,51,86,35
1,58,96,48
1,62,92,2
1,46,92,4
1,63,92,22
1,58,92,0
1,58,96,31
1,63,92,0
1,65,92,32
1,60,96,0
1,51,106,53
1,58,100,48
1,62,100,8
1,46,110,7
1,63,100,19
1,58,110,0
1,58,76,12
1,63,80,0
1,63,92,21
1,58,96,0
1,63,90,34
1,58,96,0
1,63,96,10
1,58,96,0
1,51,96,36
1,58,106,48
1,62,100,1
1,46,106,0
1,63,96,17
1,58,96,0
1,65,106,0
1,60,92,0
1,65,80,35
1,60,90,0
1,65,86,34
1,60,92,0
1,51,96,0
1,58,96,45
1,62,92,24
1,46,110,13
1,63,92,20
1,58,90,0
1,58,78,11
1,63,84,0
1,58,92,22
1,63,96,0
1,63,92,36
1,58,96,0
1,58,96,9
1,63,86,0
1,51,100,16
1,58,96,48
1,62,96,9
1,46,110,6
1,58,96,12
1,63,96,0
1,65,96,32
1,60,86,0
1,65,78,35
1,60,90,0
1,65,84,34
1,60,74,0
1,62,70,0
1,51,106,1
1,58,92,48
1,62,86,9
1,46,100,3
1,63,96,16
1,58,100,0
1,63,86,16
1,58,84,0
1,58,84,23
1,63,92,0
1,65,84,0
1,60,90,0
1,65,86,6
1,60,86,0
1,51,100,33
1,58,92,48
1,62,90,3
1,46,116,0
1,63,90,18
1,58,96,0
1,58,76,13
1,63,84,0
1,58,90,22
1,63,84,0
1,65,84,32
1,60,96,0
1,60,86,36
1,65,76,0
1,51,100,2
1,58,92,46
1,62,90,10
1,46,96,2
1,63,96,17
1,58,96,0
1,58,78,16
1,63,86,0
1,63,86,23
1,58,84,0
1,65,84,32
1,60,86,0
1,65,90,7
1,60,90,0
1,60,84,20
1,65,86,0
1,51,110,2
1,58,90,48
1,62,92,48
1,46,90,4
1,63,92,0
1,58,78,0
1,58,80,33
1,63,96,0
1,65,86,32
1,60,90,0
1,60,80,8
1,65,86,0
1,51,92,34
1,58,72,48
1,62,100,7
1,46,84,5
1,58,74,0
1,63,84,0
1,63,86,16
1,58,76,0
1,63,84,25
1,58,76,0
1,65,84,32
1,60,90,0
1,65,86,8
1,60,84,0
1,58,86,6413
1,53,66,0
1,58,78,56
1,53,64,1
1,58,86,108
1,53,70,0
1,58,78,65
1,53,64,0
1,58,80,43
1,53,60,1
1,58,78,65
1,53,68,1
1,58,76,41
1,53,68,1
1,58,90,51
1,53,72,1
1,53,86,88
1,58,100,0
1,58,84,25
1,53,60,1
1,58,86,69
1,53,68,2
1,58,86,73
1,53,74,1
1,58,96,62
1,53,68,1
1,58,96,76
1,53,70,2
1,58,92,79
1,53,70,2
1,58,86,64
1,53,64,1
1,58,90,43
1,53,76,0
1,58,96,70
1,53,80,1
1,58,90,40
1,53,76,0
1,58,92,62
1,53,70,2
1,58,92,73
1,53,68,1
1,58,100,100
1,53,90,0
1,58,100,45
1,53,68,0
1,58,92,73
1,53,72,0
1,58,106,82
1,53,90,0
1,58,100,190
1,53,80,1
1,58,106,72
1,53,70,1
1,55,68,1
1,61,60,0
1,58,78,63
1,53,66,2
1,58,76,64
1,53,70,1
1,58,66,49
1,53,62,2
1,58,76,58
1,53,68,2
1,58,76,31
1,53,72,3
1,58,96,74
1,53,70,1
1,58,110,79
1,53,84,0
1,58,106,42
1,53,70,0
1,58,96,74
1,53,74,1
1,58,96,83
1,53,90,0
1,58,100,157
1,53,84,0
1,58,92,38
1,53,76,2
1,58,96,78
1,53,78,0
1,58,96,64
1,53,76,2
1,58,96,53
1,53,72,1
1,58,106,62
1,53,72,1
1,58,92,41
1,53,78,1
1,58,92,13
1,53,74,3
1,58,90,81
1,53,74,1
2,44,62,1049
2,50,68,50
2,48,64,2
2,53,68,14
2,60,64,7
2,46,64,1
2,44,68,1186
2,50,66,8
2,48,74,3
2,53,70,9
2,60,78,4
2,46,78,4
2,56,54,16
2,44,52,0
2,60,56,0
2,56,54,31
2,44,50,0
2,60,48,0
2,56,58,30
2,44,54,0
2,60,60,0
2,56,58,32
2,60,60,0
2,44,60,0
2,56,60,33
2,60,64,0
2,44,78,0
2,56,78,33
2,60,66,0
2,44,80,0
2,56,76,33
2,60,66,0
2,44,80,0
2,56,86,34
2,60,76,0
2,44,96,0
2,60,72,31
2,44,92,0
2,56,90,0
2,60,76,32
2,56,90,0
2,44,90,0
2,56,92,33
2,60,76,0
2,44,96,0
2,60,90,34
2,44,100,0
2,56,96,0
2,60,92,36
2,56,100,0
2,44,100,0
2,60,96,38
2,56,106,0
2,44,110,0
2,44,110,36
2,56,122,0
2,60,90,0
2,51,100,16
2,58,90,42
2,62,96,1
2,46,100,8
2,58,96,20
2,63,92,1
2,63,100,24
2,58,86,0
2,51,92,71
2,58,96,48
2,62,92,9
2,46,110,11
2,58,86,18
2,63,96,0
2,63,100,24
2,58,84,0
2,51,96,68
2,58,96,50
2,62,92,11
2,46,96,7
2,63,86,14
2,58,84,0
2,58,84,22
2,63,92,0
2,51,96,67
2,58,86,49
2,62,90,8
2,46,110,8
2,63,92,17
2,58,84,1
2,63,86,28
2,58,78,1
2,51,92,57
2,58,92,47
2,62,96,6
2,46,100,7
2,58,84,15
2,63,90,0
2,63,90,25
2,58,84,0
2,51,86,70
2,58,74,48
2,62,92,8
2,46,106,4
2,63,86,16
2,58,86,1
2,63,90,30
2,58,90,0
2,51,96,72
2,58,92,50
2,62,100,10
2,46,116,11
2,63,92,9
2,58,92,1
2,58,80,21
2,63,84,0
2,51,100,65
2,58,90,46
2,62,92,14
2,46,96,8
2,63,86,19
2,58,96,1
2,63,80,32
2,58,92,0
2,51,92,64
2,58,100,48
2,62,106,6
2,46,100,18
2,63,96,18
2,58,96,0
2,58,90,13
2,63,100,0
2,63,96,21
2,58,92,0
2,58,92,9
2,63,92,0
2,51,90,16
2,58,84,48
2,62,106,48
2,46,110,6
2,58,80,25
2,63,84,0
2,58,84,41
2,63,100,0
2,63,90,3
2,58,80,0
2,58,86,23
2,63,92,0
2,51,100,16
2,58,100,48
2,62,106,4
2,46,106,20
2,63,96,21
2,58,110,0
2,58,92,16
2,63,96,0
2,65,96,0
2,60,100,0
2,65,76,9
2,60,84,0
2,46,60,37
2,51,90,2
2,58,84,48
2,62,106,48
2,46,110,13
2,63,96,20
2,58,96,0
2,58,90,14
2,63,92,0
2,63,92,22
2,58,96,0
2,58,84,10
2,63,90,0
2,46,86,48
2,51,92,16
2,58,96,46
2,62,96,0
2,46,70,49
2,58,92,18
2,63,100,0
2,58,90,9
2,63,106,0
2,63,78,23
2,58,80,0
2,58,80,11
2,63,84,0
2,46,84,0
2,51,84,16
2,58,86,43
2,62,96,48
2,46,96,14
2,63,96,14
2,58,90,0
2,58,78,8
2,63,86,0
2,63,96,20
2,58,92,0
2,58,78,9
2,63,84,0
2,46,64,48
2,51,80,16
2,58,86,44
2,62,92,0
2,46,86,48
2,58,90,10
2,63,90,0
2,63,76,11
2,58,84,0
2,58,92,21
2,63,90,0
2,58,78,8
2,63,80,0
2,46,58,48
2,51,78,16
2,58,90,41
2,62,96,3
2,46,106,15
2,63,90,0
2,58,92,0
2,63,92,13
2,58,100,0
2,63,96,22
2,58,96,0
2,58,92,10
2,63,96,0
2,48,84,64
2,53,90,13
2,55,86,48
2,60,84,24
2,46,96,48
2,58,100,43
2,60,80,12
2,56,106,0
2,44,106,0
2,58,96,18
2,46,106,0
2,62,80,3
2,48,92,3
2,53,80,49
2,55,90,47
2,60,80,36
2,58,106,31
2,46,106,0
2,62,86,1
2,44,100,48
2,56,110,1
2,60,92,1
2,44,56,14
2,60,44,1
2,56,54,0
2,56,52,24
2,44,54,1
2,60,58,2
2,56,60,25
2,44,56,0
2,60,62,1
2,60,64,31
2,56,68,0
2,44,64,1
2,56,76,30
2,44,72,0
2,60,66,1
2,56,78,16
2,60,70,0
2,44,74,0
2,56,90,29
2,60,72,0
2,44,86,0
2,60,78,29
2,44,86,0
2,56,96,1
2,56,100,30
2,60,86,1
2,44,100,0
2,60,86,28
2,44,100,0
2,56,110,0
2,44,100,28
2,60,92,0
2,56,110,1
2,60,92,29
2,44,106,0
2,56,110,1
2,44,106,28
2,60,96,1
2,56,110,1
2,44,110,28
2,60,106,2
2,56,116,1
2,51,106,11
2,58,92,48
2,62,96,4
2,46,80,13
2,63,100,20
2,58,116,0
2,65,90,32
2,60,90,0
2,65,92,30
2,60,96,0
2,65,84,34
2,60,92,0
2,51,96,0
2,58,72,46
2,62,100,48
2,46,116,8
2,63,106,21
2,58,116,0
2,65,106,0
2,60,100,0
2,65,92,33
2,60,106,0
2,65,84,34
2,60,92,0
2,51,106,0
2,58,100,48
2,62,106,0
2,46,110,22
2,63,100,24
2,58,110,0
2,65,100,32
2,60,100,0
2,51,100,97
2,58,106,48
2,62,106,4
2,46,116,13
2,63,100,22
2,58,110,0
2,60,90,0
2,65,92,0
2,60,92,21
2,65,80,0
2,65,78,7
2,60,86,0
2,65,92,31
2,60,100,0
2,51,96,30
2,58,86,48
2,62,92,48
2,46,96,2
2,63,106,22
2,58,110,0
2,63,100,40
2,58,106,0
2,51,110,64
2,58,110,48
2,62,106,2
2,46,100,14
2,63,110,26
2,58,110,0
2,63,90,16
2,58,90,0
2,63,68,19
2,58,80,0
2,58,86,12
2,63,110,0
2,51,100,48
2,58,90,48
2,62,92,48
2,46,76,12
2,63,100,21
2,58,106,0
2,63,96,38
2,58,106,0
2,51,110,64
2,58,96,48
2,62,106,3
2,46,110,9
2,63,106,26
2,58,106,0
2,63,90,16
2,58,90,0
2,63,90,20
2,58,86,0
2,58,90,10
2,63,106,0
2,63,86,48
2,60,84,0
2,48,100,0
2,58,72,0
2,46,92,0
2,62,66,0
2,63,78,26
2,60,84,0
2,48,86,0
2,62,76,34
2,65,74,0
2,50,78,0
2,63,86,39
2,51,96,0
2,67,76,0
2,58,86,24
2,62,80,0
2,46,100,0
2,63,76,0
2,60,78,0
2,48,86,0
2,58,90,34
2,62,70,0
2,46,100,0
2,56,90,42
2,44,96,0
2,60,80,0
