track,note,velocity,time
0,54,97,0
0,66,98,0
0,62,99,0
0,59,96,0
0,54,99,16
0,54,97,16
0,54,100,16
0,54,97,16
0,54,97,16
0,54,0,80
0,54,97,1
0,54,0,80
0,66,0,16
0,62,0,0
0,59,0,0
0,54,97,0
0,54,100,16
0,64,100,0
0,62,100,0
0,59,100,0
0,54,98,16
0,54,96,16
0,54,97,16
0,54,0,80
0,54,97,1
0,54,0,80
0,54,98,16
0,54,98,16
0,54,97,0
0,54,100,16
0,64,98,0
0,61,98,0
0,59,100,0
0,54,98,16
0,54,0,80
0,54,99,1
0,54,0,80
0,54,100,16
0,54,100,16
0,54,100,16
0,54,100,16
0,54,96,0
0,54,0,80
0,54,98,0
0,64,97,0
0,61,97,0
0,58,100,0
0,54,0,80
0,54,99,16
0,54,99,16
0,54,96,16
0,54,98,16
0,54,99,16
0,54,0,80
0,54,99,1
0,54,0,80
0,64,0,16
0,61,0,0
0,58,0,0
0,54,99,0
0,54,96,16
0,64,99,0
0,61,98,0
0,57,98,0
0,54,100,16
0,54,100,16
0,54,96,16
0,54,0,80
0,54,99,1
0,54,0,80
0,54,98,16
0,54,96,16
0,54,97,0
0,54,98,16
0,64,96,0
0,59,100,0
0,55,98,0
0,54,97,16
0,54,0,80
0,54,99,1
0,54,0,80
0,54,100,16
0,54,97,16
0,54,96,16
0,54,99,16
0,54,97,0
0,54,0,80
0,67,98,0
0,62,99,0
0,59,100,0
0,55,97,0
0,67,98,16
0,62,100,0
0,59,100,0
0,55,98,0
0,67,97,16
0,62,99,0
0,59,98,0
0,55,98,0
0,67,96,15
0,62,98,0
0,59,98,0
0,55,96,0
0,67,97,16
0,62,100,0
0,59,97,0
0,55,100,0
0,67,96,12
0,62,100,0
0,59,100,0
0,55,98,0
0,67,97,16
0,62,98,0
0,59,98,0
0,55,98,0
0,67,98,9
0,62,96,0
0,59,100,0
0,55,96,0
0,66,97,16
0,61,97,0
0,58,99,0
0,54,98,0
0,49,100,0
0,42,98,0
0,66,99,5
0,61,98,0
0,58,99,0
0,54,99,0
0,49,96,0
0,42,98,0
0,66,96,16
0,61,96,0
0,58,99,0
0,54,98,0
0,49,100,0
0,42,98,0
0,66,99,2
0,61,96,0
0,58,98,0
0,54,96,0
0,49,99,0
0,42,100,0
0,66,98,8
0,61,99,0
0,58,97,0
0,54,99,0
0,49,98,0
0,42,98,0
0,66,97,8
0,61,100,0
0,58,98,0
0,54,99,0
0,49,98,0
0,42,96,0
0,66,98,8
0,61,98,0
0,58,98,0
0,54,98,0
0,49,96,0
0,42,97,0
0,66,98,8
0,61,100,0
0,58,98,0
0,54,100,0
0,49,98,0
0,42,98,0
0,66,96,8
0,61,100,0
0,58,100,0
0,54,98,0
0,49,99,0
0,42,97,0
0,66,98,8
0,61,98,0
0,58,98,0
0,54,96,0
0,49,98,0
0,42,97,0
0,66,100,8
0,61,100,0
0,58,100,0
0,54,98,0
0,49,98,0
0,42,96,0
0,66,98,8
0,61,97,0
0,58,98,0
0,54,96,0
0,49,100,0
0,42,97,0
0,66,99,5
0,61,100,0
0,58,98,0
0,54,97,0
0,49,97,0
0,42,98,0
0,66,100,8
0,61,97,0
0,58,97,0
0,54,99,0
0,49,100,0
0,42,97,0
0,66,97,16
0,61,98,0
0,58,100,0
0,54,98,0
0,49,96,0
0,42,100,0
0,66,96,1
0,61,98,0
0,58,97,0
0,54,97,0
0,49,96,0
0,42,97,0
0,66,98,8
0,61,100,0
0,58,96,0
0,54,96,0
0,49,98,0
0,42,97,0
0,66,98,16
0,61,98,0
0,58,98,0
0,54,100,0
0,49,98,0
0,42,97,0
0,66,98,8
0,61,98,0
0,58,100,0
0,54,98,0
0,49,100,0
0,42,99,0
0,66,99,7
0,61,98,0
0,58,100,0
0,54,97,0
0,49,100,0
0,42,97,0
0,66,100,8
0,61,99,0
0,58,96,0
0,54,99,0
0,49,98,0
0,42,97,0
0,66,96,8
0,61,96,0
0,58,98,0
0,54,100,0
0,49,96,0
0,42,96,0
0,59,97,4
0,55,99,0
0,50,99,0
0,45,99,0
0,59,98,16
0,55,97,0
0,50,99,0
0,45,100,0
0,64,118,0
0,59,113,0
0,54,115,0
0,47,112,0
0,64,0,40
0,59,0,0
0,54,0,0
0,47,0,0
0,64,96,8
0,59,96,0
0,54,98,0
0,47,99,0
0,64,0,40
0,59,0,0
0,54,0,0
0,47,0,0
0,64,98,8
0,59,97,0
0,54,97,0
0,47,97,0
0,64,0,40
0,59,0,0
0,54,0,0
0,47,0,0
0,64,117,8
0,59,112,0
0,54,112,0
0,47,116,0
0,64,0,40
0,59,0,0
0,54,0,0
0,47,0,0
0,64,98,8
0,59,99,0
0,54,96,0
0,47,100,0
0,64,0,40
0,59,0,0
0,54,0,0
0,47,0,0
0,64,96,8
0,59,96,0
0,54,97,0
0,47,99,0
0,64,0,40
0,59,0,0
0,54,0,0
0,47,0,0
0,64,113,8
0,59,116,0
0,54,115,0
0,47,116,0
0,64,0,40
0,59,0,0
0,54,0,0
0,47,0,0
0,64,98,8
0,59,100,0
0,54,100,0
0,47,100,0
0,64,0,40
0,59,0,0
0,54,0,0
0,47,0,0
0,64,96,8
0,59,96,0
0,54,98,0
0,47,99,0
0,64,0,40
0,59,0,0
0,54,0,0
0,47,0,0
0,64,118,8
0,59,112,0
0,54,118,0
0,47,117,0
0,64,98,8
0,59,98,0
0,54,99,0
0,47,98,0
0,64,0,40
0,59,0,0
0,54,0,0
0,47,0,0
0,64,97,8
0,59,100,0
0,54,100,0
0,47,99,0
0,64,0,40
0,59,0,0
0,54,0,0
0,47,0,0
0,64,116,8
0,59,113,0
0,54,112,0
0,47,113,0
0,64,0,80
0,59,0,0
0,54,0,0
0,47,0,0
0,64,116,16
0,59,115,0
0,54,115,0
0,47,113,0
0,64,0,80
0,59,0,0
0,54,0,0
0,47,0,0
0,63,115,16
0,59,117,0
0,54,118,0
0,47,117,0
0,63,0,40
0,59,0,0
0,54,0,0
0,47,0,0
0,63,100,8
0,59,97,0
0,54,98,0
0,47,97,0
0,63,0,40
0,59,0,0
0,54,0,0
0,47,0,0
0,63,100,8
0,59,98,0
0,54,97,0
0,47,98,0
0,63,0,40
0,59,0,0
0,54,0,0
0,47,0,0
0,63,116,8
0,59,115,0
0,54,115,0
0,47,113,0
0,63,97,8
0,59,97,0
0,54,100,0
0,47,99,0
0,63,0,40
0,59,0,0
0,54,0,0
0,47,0,0
0,63,99,8
0,59,98,0
0,54,99,0
0,47,97,0
0,63,0,40
0,59,0,0
0,54,0,0
0,47,0,0
0,63,117,8
0,59,112,0
0,54,117,0
0,47,118,0
0,63,0,40
0,59,0,0
0,54,0,0
0,47,0,0
0,63,98,8
0,59,96,0
0,54,98,0
0,47,96,0
0,63,0,40
0,59,0,0
0,54,0,0
0,47,0,0
0,63,100,8
0,59,98,0
0,54,98,0
0,47,98,0
0,63,0,40
0,59,0,0
0,54,0,0
0,47,0,0
0,63,116,8
0,59,117,0
0,54,116,0
0,47,117,0
0,63,0,40
0,59,0,0
0,54,0,0
0,47,0,0
0,63,99,8
0,59,100,0
0,54,96,0
0,47,98,0
0,63,0,40
0,59,0,0
0,54,0,0
0,47,0,0
0,63,99,8
0,59,96,0
0,54,98,0
0,47,96,0
0,63,0,40
0,59,0,0
0,54,0,0
0,47,0,0
0,63,116,8
0,59,113,0
0,54,112,0
0,47,113,0
0,63,118,16
0,59,116,0
0,54,116,0
0,47,112,0
0,63,0,80
0,59,0,0
0,54,0,0
0,47,0,0
0,64,115,16
0,59,118,0
0,54,118,0
0,47,115,0
0,64,0,40
0,59,0,0
0,54,0,0
0,47,0,0
0,64,97,8
0,59,97,0
0,54,96,0
0,47,100,0
0,64,0,40
0,59,0,0
0,54,0,0
0,47,0,0
0,64,97,8
0,59,96,0
0,54,97,0
0,47,97,0
0,64,0,40
0,59,0,0
0,54,0,0
0,47,0,0
0,64,117,8
0,59,116,0
0,54,112,0
0,47,113,0
0,64,0,40
0,59,0,0
0,54,0,0
0,47,0,0
0,64,96,8
0,59,97,0
0,54,98,0
0,47,97,0
0,64,0,40
0,59,0,0
0,54,0,0
0,47,0,0
0,64,98,8
0,59,96,0
0,54,98,0
0,47,99,0
0,64,0,40
0,59,0,0
0,54,0,0
0,47,0,0
0,64,115,8
0,59,112,0
0,54,113,0
0,47,117,0
0,64,100,8
0,59,98,0
0,54,100,0
0,47,96,0
0,64,0,40
0,59,0,0
0,54,0,0
0,47,0,0
0,64,99,8
0,59,100,0
0,54,98,0
0,47,98,0
0,64,0,40
0,59,0,0
0,54,0,0
0,47,0,0
0,64,116,8
0,59,116,0
0,54,113,0
0,47,118,0
0,64,0,40
0,59,0,0
0,54,0,0
0,47,0,0
0,64,97,8
0,59,96,0
0,54,97,0
0,47,97,0
0,64,0,40
0,59,0,0
0,54,0,0
0,47,0,0
0,64,98,8
0,59,99,0
0,54,97,0
0,47,100,0
0,64,0,40
0,59,0,0
0,54,0,0
0,47,0,0
0,64,115,8
0,59,117,0
0,54,113,0
0,47,112,0
0,64,0,80
0,59,0,0
0,54,0,0
0,47,0,0
0,64,116,16
0,59,115,0
0,54,115,0
0,47,117,0
0,64,0,80
0,59,0,0
0,54,0,0
0,47,0,0
0,63,118,0
0,59,113,0
0,54,118,0
0,47,115,0
0,63,0,40
0,59,0,0
0,54,0,0
0,47,0,0
0,63,100,8
0,59,98,0
0,54,97,0
0,47,97,0
0,63,0,40
0,59,0,0
0,54,0,0
0,47,0,0
0,63,98,8
0,59,98,0
0,54,97,0
0,47,97,0
0,63,0,40
0,59,0,0
0,54,0,0
0,47,0,0
0,63,112,8
0,59,112,0
0,54,117,0
0,47,118,0
0,63,0,40
0,59,0,0
0,54,0,0
0,47,0,0
0,63,99,8
0,59,99,0
0,54,96,0
0,47,98,0
0,63,0,40
0,59,0,0
0,54,0,0
0,47,0,0
0,63,98,8
0,59,100,0
0,54,97,0
0,47,98,0
0,63,0,40
0,59,0,0
0,54,0,0
0,47,0,0
0,63,117,8
0,59,118,0
0,54,118,0
0,47,117,0
0,63,0,40
0,59,0,0
0,54,0,0
0,47,0,0
0,63,98,8
0,59,97,0
0,54,99,0
0,47,96,0
0,63,0,40
0,59,0,0
0,54,0,0
0,47,0,0
0,63,98,8
0,59,99,0
0,54,98,0
0,47,100,0
0,63,0,40
0,59,0,0
0,54,0,0
0,47,0,0
0,63,112,8
0,59,115,0
0,54,112,0
0,47,117,0
0,63,0,40
0,59,0,0
0,54,0,0
0,47,0,0
0,63,97,8
0,59,97,0
0,54,97,0
0,47,97,0
0,63,0,40
0,59,0,0
0,54,0,0
0,47,0,0
0,63,100,8
0,59,99,0
0,54,96,0
0,47,98,0
0,63,0,40
0,59,0,0
0,54,0,0
0,47,0,0
0,63,112,8
0,59,118,0
0,54,112,0
0,47,116,0
0,63,0,80
0,59,0,0
0,54,0,0
0,47,0,0
0,63,118,16
0,59,116,0
0,54,118,0
0,47,115,0
0,46,77,48
0,63,0,32
0,59,0,0
0,54,0,0
0,47,0,0
0,46,0,8
0,47,78,8
0,64,115,0
0,59,115,0
0,54,116,0
0,47,117,0
0,64,0,40
0,59,0,0
0,54,0,0
0,47,0,0
0,64,100,8
0,59,97,0
0,54,96,0
0,47,98,0
0,64,0,40
0,59,0,0
0,54,0,0
0,47,0,0
0,64,96,8
0,59,98,0
0,54,98,0
0,47,100,0
0,64,0,40
0,59,0,0
0,54,0,0
0,47,0,0
0,64,116,8
0,59,113,0
0,54,115,0
0,47,115,0
0,64,0,40
0,59,0,0
0,54,0,0
0,47,0,0
0,64,98,8
0,59,99,0
0,54,96,0
0,47,96,0
0,64,0,40
0,59,0,0
0,54,0,0
0,47,0,0
0,64,98,8
0,59,97,0
0,54,97,0
0,47,99,0
0,64,0,40
0,59,0,0
0,54,0,0
0,47,0,0
0,64,118,8
0,59,113,0
0,54,113,0
0,47,116,0
0,64,0,40
0,59,0,0
0,54,0,0
0,47,0,0
0,64,98,8
0,59,100,0
0,54,98,0
0,47,98,0
0,64,0,40
0,59,0,0
0,54,0,0
0,47,0,0
0,64,98,8
0,59,98,0
0,54,98,0
0,47,100,0
0,64,0,40
0,59,0,0
0,54,0,0
0,47,0,0
0,64,115,8
0,59,115,0
0,54,118,0
0,47,116,0
0,64,0,40
0,59,0,0
0,54,0,0
0,47,0,0
0,64,98,8
0,59,98,0
0,54,99,0
0,47,96,0
0,64,0,40
0,59,0,0
0,54,0,0
0,47,0,0
0,64,96,8
0,59,97,0
0,54,96,0
0,47,97,0
0,64,0,40
0,59,0,0
0,54,0,0
0,47,0,0
0,64,115,8
0,59,116,0
0,54,113,0
0,47,112,0
0,64,0,80
0,59,0,0
0,54,0,0
0,47,0,0
0,64,116,16
0,59,112,0
0,54,113,0
0,47,117,0
0,64,0,80
0,59,0,0
0,54,0,0
0,47,0,0
0,63,115,16
0,59,118,0
0,54,113,0
0,47,112,0
0,63,0,40
0,59,0,0
0,54,0,0
0,47,0,0
0,63,98,8
0,59,97,0
0,54,96,0
0,47,98,0
0,63,0,40
0,59,0,0
0,54,0,0
0,47,0,0
0,63,99,8
0,59,96,0
0,54,100,0
0,47,98,0
0,63,0,40
0,59,0,0
0,54,0,0
0,47,0,0
0,63,118,8
0,59,116,0
0,54,113,0
0,47,113,0
0,63,0,40
0,59,0,0
0,54,0,0
0,47,0,0
0,63,98,8
0,59,97,0
0,54,98,0
0,47,99,0
0,63,0,40
0,59,0,0
0,54,0,0
0,47,0,0
0,63,100,8
0,59,98,0
0,54,98,0
0,47,99,0
0,63,0,40
0,59,0,0
0,54,0,0
0,47,0,0
0,63,117,8
0,59,112,0
0,54,112,0
0,47,117,0
0,63,0,40
0,59,0,0
0,54,0,0
0,47,0,0
0,63,100,8
0,59,98,0
0,54,98,0
0,47,98,0
0,63,0,40
0,59,0,0
0,54,0,0
0,47,0,0
0,63,96,8
0,59,98,0
0,54,97,0
0,47,98,0
0,63,0,40
0,59,0,0
0,54,0,0
0,47,0,0
0,63,118,8
0,59,113,0
0,54,113,0
0,47,112,0
0,63,0,40
0,59,0,0
0,54,0,0
0,47,0,0
0,63,98,8
0,59,97,0
0,54,97,0
0,47,97,0
0,47,0,24
0,63,0,16
0,59,0,0
0,54,0,0
0,47,0,0
0,63,97,8
0,59,98,0
0,54,96,0
0,47,98,0
0,63,0,40
0,59,0,0
0,54,0,0
0,47,0,0
0,63,118,8
0,59,117,0
0,54,115,0
0,47,118,0
0,63,0,80
0,59,0,0
0,54,0,0
0,47,0,0
0,63,113,16
0,59,115,0
0,54,115,0
0,47,117,0
0,46,76,48
0,63,0,32
0,59,0,0
0,54,0,0
0,47,0,0
0,46,0,16
0,47,78,0
0,64,113,0
0,59,118,0
0,54,113,0
0,47,113,0
0,64,0,40
0,59,0,0
0,54,0,0
0,47,0,0
0,64,99,8
0,59,99,0
0,54,98,0
0,47,99,0
0,64,0,40
0,59,0,0
0,54,0,0
0,47,0,0
0,64,96,8
0,59,97,0
0,54,97,0
0,47,100,0
0,64,0,40
0,59,0,0
0,54,0,0
0,47,0,0
0,64,118,8
0,59,116,0
0,54,117,0
0,47,113,0
0,64,0,40
0,59,0,0
0,54,0,0
0,47,0,0
0,64,100,8
0,59,98,0
0,54,96,0
0,47,99,0
0,64,0,40
0,59,0,0
0,54,0,0
0,47,0,0
0,64,96,8
0,59,97,0
0,54,98,0
0,47,98,0
0,64,0,40
0,59,0,0
0,54,0,0
0,47,0,0
0,64,116,8
0,59,115,0
0,54,112,0
0,47,118,0
0,64,0,40
0,59,0,0
0,54,0,0
0,47,0,0
0,64,96,8
0,59,96,0
0,54,100,0
0,47,98,0
0,64,0,40
0,59,0,0
0,54,0,0
0,47,0,0
0,64,99,8
0,59,97,0
0,54,96,0
0,47,98,0
0,64,0,40
0,59,0,0
0,54,0,0
0,47,0,0
0,64,117,8
0,59,116,0
0,54,117,0
0,47,118,0
0,64,0,40
0,59,0,0
