track,note,velocity,time
1,65,110,960
1,65,0,94
1,65,110,2
1,65,0,94
1,65,110,2
1,65,0,46
1,64,110,2
1,64,0,142
1,62,110,2
1,62,0,208
1,62,110,32
1,62,0,336
1,69,110,1200
1,69,0,94
1,69,110,2
1,69,0,160
1,69,110,32
1,69,0,94
1,69,110,2
1,69,0,256
1,69,110,32
1,69,0,190
1,71,110,2
1,71,0,160
1,69,110,32
1,69,0,190
1,66,110,2
1,66,0,94
1,67,110,2
1,67,0,352
1,69,110,1376
1,69,0,94
1,69,110,2
1,69,0,160
1,69,110,32
1,69,0,94
1,69,110,2
1,69,0,96
1,66,110,0
1,66,0,160
1,66,110,32
1,66,0,94
1,67,110,2
1,67,0,256
1,66,110,32
1,66,0,256
1,66,110,32
1,66,0,352
1,69,110,1376
1,69,0,94
1,69,110,2
1,69,0,142
1,69,110,2
1,69,0,142
1,69,110,2
1,69,0,142
1,66,110,2
1,66,0,142
1,62,110,2
1,62,0,94
1,71,110,2
1,71,0,96
1,69,110,0
1,69,0,94
1,69,110,2
1,69,0,160
1,66,110,32
1,66,0,160
1,67,110,32
1,67,0,352
1,69,110,1376
1,69,0,94
1,69,110,2
1,69,0,160
1,69,110,32
1,69,0,94
1,69,110,2
1,69,0,96
1,66,110,0
1,66,0,160
1,66,110,32
1,66,0,190
1,67,110,2
1,67,0,256
1,66,110,32
1,66,0,94
1,66,110,2
1,66,0,448
1,79,110,1376
1,79,0,142
1,78,110,2
1,78,0,48
1,74,110,0
1,74,0,94
1,71,110,2
1,71,0,94
1,71,110,2
1,71,0,46
1,69,110,2
1,69,0,238
1,69,110,2
1,69,0,256
1,69,110,32
1,69,0,336
1,66,110,48
1,66,0,528
1,79,110,1200
1,79,0,142
1,78,110,2
1,78,0,94
1,74,110,2
1,74,0,142
1,71,110,2
1,71,0,160
1,74,110,32
1,74,0,160
1,81,110,32
1,81,0,1536
1,78,110,0
1,78,0,336
1,69,110,432
1,69,0,94
1,69,110,2
1,69,0,160
1,69,110,32
1,69,0,94
1,69,110,2
1,69,0,160
1,66,110,128
1,66,0,190
1,71,110,2
1,71,0,160
1,69,110,32
1,69,0,94
1,66,110,2
1,66,0,94
1,66,110,2
1,66,0,94
1,67,110,2
1,67,0,352
1,62,110,1328
1,62,0,48
1,69,110,0
1,69,0,94
1,69,110,2
1,69,0,142
1,69,110,2
1,69,0,142
1,69,110,2
1,69,0,96
1,66,110,0
1,66,0,160
1,66,110,32
1,66,0,190
1,67,110,2
1,79,110,0
1,67,0,94
1,79,0,0
1,69,110,2
1,81,110,0
1,69,0,384
1,81,0,0
1,66,110,0
1,78,110,0
1,66,0,528
1,78,0,0
1,79,110,1200
1,79,0,142
1,78,110,2
1,78,0,112
1,74,110,0
1,74,0,64
1,71,110,0
1,71,0,62
1,71,110,2
1,71,0,48
1,69,110,0
1,69,0,94
1,69,110,2
1,69,0,208
1,69,110,32
1,69,0,256
1,71,110,32
1,71,0,256
1,66,110,32
1,66,0,528
1,79,110,1200
1,79,0,142
1,78,110,2
1,78,0,94
1,74,110,2
1,74,0,142
1,71,110,2
1,71,0,160
1,74,110,32
1,74,0,160
1,81,110,32
1,81,0,1536
1,78,110,0
1,78,0,336
1,71,110,432
1,71,0,94
1,71,110,2
1,71,0,142
1,71,110,2
1,71,0,142
1,71,110,2
1,71,0,96
1,69,110,0
1,69,0,94
1,59,110,98
1,59,0,94
1,71,110,2
1,71,0,238
1,71,110,2
1,71,0,142
1,71,110,2
1,71,0,160
1,74,110,32
1,74,0,94
1,67,110,2
1,67,0,94
1,67,110,2
1,67,0,94
1,69,110,2
1,69,0,142
1,66,110,2
1,66,0,142
1,67,110,2
1,67,0,160
1,62,110,128
1,62,0,94
1,67,110,2
1,67,0,160
1,67,110,32
1,67,0,160
1,67,110,32
1,67,0,94
1,69,110,2
1,69,0,94
1,66,110,2
1,66,0,352
1,71,110,2912
1,71,0,94
1,71,110,2
1,71,0,142
1,71,110,2
1,71,0,142
1,71,110,2
1,71,0,96
1,69,110,0
1,69,0,94
1,59,110,98
1,59,0,94
1,71,110,2
1,71,0,160
1,71,110,32
1,71,0,160
1,71,110,32
1,71,0,94
1,74,110,2
1,74,0,142
1,66,110,2
1,66,0,142
1,67,110,2
1,67,0,142
1,69,110,2
1,69,0,94
1,66,110,2
1,66,0,142
1,67,110,2
1,67,0,160
1,59,110,128
1,59,0,94
1,67,110,2
1,67,0,160
1,67,110,32
1,67,0,160
1,67,110,32
1,67,0,94
1,69,110,2
1,69,0,160
1,66,110,32
1,66,0,352
1,64,110,32
1,64,0,94
1,66,110,2
1,66,0,94
1,64,110,2
1,64,0,22
1,66,110,2
1,66,0,70
1,66,110,2
1,66,0,46
1,64,110,2
1,64,0,46
1,62,110,2
1,62,0,46
1,60,110,2
1,60,0,208
1,69,110,2240
1,69,0,142
1,69,110,2
1,69,0,142
1,66,110,2
1,66,0,160
1,66,110,128
1,66,0,190
1,71,110,2
1,71,0,160
1,69,110,32
1,69,0,190
1,66,110,2
1,66,0,94
1,67,110,2
1,67,0,352
1,69,110,1376
1,69,0,94
1,69,110,2
1,69,0,142
1,69,110,2
1,69,0,142
1,69,110,2
1,69,0,94
1,66,110,2
1,66,0,142
1,66,110,2
1,66,0,142
1,67,110,2
1,67,0,94
1,69,110,2
1,69,0,624
1,66,110,48
1,66,0,528
1,79,110,1008
1,79,0,142
1,78,110,2
1,78,0,96
1,74,110,0
1,74,0,48
1,71,110,0
1,71,0,94
1,71,110,2
1,71,0,48
1,69,110,0
1,69,0,94
1,69,110,2
1,69,0,94
1,69,110,2
1,69,0,142
1,69,110,2
1,69,0,256
1,71,110,32
1,71,0,256
1,66,110,32
1,66,0,528
1,79,110,1200
1,79,0,142
1,78,110,2
1,78,0,94
1,74,110,2
1,74,0,142
1,71,110,2
1,71,0,160
1,74,110,32
1,74,0,160
1,81,110,32
1,81,0,1488
1,78,110,48
1,78,0,336
1,62,110,336
1,62,0,94
1,71,110,2
1,71,0,94
1,71,110,2
1,71,0,142
1,71,110,2
1,71,0,142
1,71,110,2
1,71,0,94
1,69,110,2
1,69,0,94
1,69,110,98
1,69,0,94
1,71,110,2
1,71,0,160
1,71,110,32
1,71,0,94
1,71,110,2
1,71,0,190
1,74,110,2
1,74,0,160
1,67,110,32
1,67,0,190
1,69,110,2
1,69,0,160
1,66,110,32
1,66,0,94
1,67,110,2
1,67,0,160
1,62,110,128
1,62,0,94
1,67,110,2
1,67,0,160
1,67,110,32
1,67,0,160
1,67,110,32
1,67,0,160
1,69,110,32
1,69,0,94
1,66,110,2
1,66,0,256
1,71,110,2912
1,71,0,94
1,71,110,2
1,71,0,142
1,71,110,2
1,69,110,48
1,69,0,94
1,71,0,96
1,69,110,2
1,69,0,94
1,69,110,98
1,69,0,94
1,71,110,2
1,71,0,142
1,71,110,2
1,71,0,94
1,71,110,2
1,71,0,142
1,71,110,2
1,71,0,94
1,74,110,2
1,74,0,160
1,67,110,32
1,67,0,94
1,67,110,2
1,67,0,142
1,69,110,2
1,69,0,142
1,66,110,2
1,66,0,94
1,67,110,2
1,67,0,160
1,62,110,128
1,62,0,94
1,67,110,2
1,67,0,160
1,67,110,32
1,67,0,160
1,67,110,32
1,67,0,94
1,69,110,2
1,69,0,94
1,66,110,2
1,66,0,448
1,64,110,32
1,64,0,94
1,66,110,2
1,66,0,94
1,64,110,2
1,64,0,94
1,62,110,2
1,62,0,94
1,69,127,1826
1,69,0,160
1,66,127,32
1,66,0,160
1,62,127,32
1,62,0,160
1,67,127,32
1,67,0,142
1,69,127,2
1,69,0,142
1,67,127,2
1,67,0,94
1,67,127,2
1,67,0,142
1,67,127,2
1,67,0,94
1,67,127,2
1,67,0,142
1,67,127,2
1,67,0,94
1,66,127,2
1,66,0,94
1,66,127,146
1,66,0,142
1,66,127,2
1,66,0,142
1,66,127,2
1,66,0,142
1,66,127,2
1,66,0,142
1,64,127,2
1,64,0,142
1,59,127,50
1,59,0,46
1,64,127,2
1,64,0,142
1,64,127,2
1,64,0,94
1,64,127,2
1,64,0,94
1,64,127,2
1,64,0,142
1,66,127,2
1,66,0,160
1,62,127,128
1,62,0,46
1,66,127,2
1,66,0,94
1,66,127,2
1,66,0,142
1,66,127,2
1,66,0,94
1,67,127,2
1,67,0,160
1,69,127,32
1,69,0,142
1,67,127,2
1,67,0,46
1,67,127,2
1,67,0,46
1,66,127,2
1,66,0,94
1,69,127,2
1,69,0,142
1,67,127,2
1,67,0,190
1,67,127,2
1,67,0,142
1,66,127,2
1,66,0,238
1,66,127,194
1,66,0,94
1,67,127,2
1,67,0,142
1,66,127,2
1,66,0,190
1,66,127,2
1,66,0,142
1,66,127,2
1,66,0,256
1,71,127,224
1,71,0,160
1,74,127,32
1,74,0,336
1,79,127,48
1,79,0,126
1,78,127,2
1,78,0,126
1,74,127,2
1,74,0,126
1,71,127,2
1,71,0,160
1,74,127,32
1,74,0,160
1,81,127,32
1,81,0,1246
1,80,127,2
1,80,0,94
1,76,127,50
1,76,0,46
1,76,127,2
1,76,0,94
1,76,127,2
1,76,0,94
1,78,127,2
1,78,0,1392
1,74,127,48
1,74,0,336
1,70,127,112
1,70,0,62
1,70,127,2
1,70,0,62
1,70,127,2
1,70,0,62
1,70,127,2
1,70,0,62
1,70,127,2
1,70,0,62
1,70,127,2
1,70,0,94
1,69,127,2
1,69,0,256
1,70,127,96
1,70,0,62
1,70,127,2
1,70,0,62
1,70,127,2
1,70,0,62
1,70,127,2
1,70,0,62
1,70,127,2
1,70,0,62
1,70,127,2
1,70,0,142
1,72,127,2
1,72,0,142
1,69,127,2
1,69,0,94
1,70,127,66
1,70,0,62
1,70,127,2
1,70,0,62
1,70,127,2
1,70,0,62
1,70,127,2
1,70,0,62
1,70,127,2
1,70,0,62
1,70,127,2
1,70,0,94
1,69,127,2
1,69,0,256
1,70,127,96
1,70,0,62
1,70,127,2
1,70,0,62
1,70,127,2
1,70,0,62
1,70,127,2
1,70,0,62
1,70,127,2
1,70,0,62
1,70,127,2
1,70,0,142
1,72,127,2
1,72,0,142
1,69,127,2
1,69,0,94
1,70,127,66
1,70,0,62
1,70,127,2
1,70,0,62
1,70,127,2
1,70,0,62
1,70,127,2
1,70,0,62
1,70,127,2
1,70,0,62
1,70,127,2
1,70,0,94
1,69,127,2
1,69,0,256
1,70,127,96
1,70,0,62
1,70,127,2
1,70,0,62
1,70,127,2
1,70,0,62
1,70,127,2
1,70,0,62
1,70,127,2
1,70,0,62
1,70,127,2
1,70,0,142
1,72,127,2
1,72,0,142
1,69,127,2
1,69,0,94
1,70,127,66
1,70,0,62
1,70,127,2
1,70,0,62
1,70,127,2
1,70,0,62
1,70,127,2
1,70,0,62
1,70,127,2
1,70,0,62
1,70,127,2
1,70,0,94
1,69,127,2
1,69,0,256
1,70,127,80
1,70,0,46
1,70,127,2
1,70,0,46
1,69,127,2
1,69,0,46
1,70,127,2
1,70,0,94
1,70,127,2
1,70,0,94
1,70,127,2
1,70,0,94
1,69,127,2
1,69,0,94
1,72,127,2
1,72,0,142
1,69,127,2
1,69,0,142
1,69,127,2
1,69,0,96
1,70,127,0
1,70,0,160
1,69,127,176
1,69,0,94
1,69,127,2
1,69,0,94
1,69,127,2
1,69,0,46
1,69,127,2
1,69,0,142
1,65,127,2
1,65,0,144
1,62,127,0
1,62,0,94
1,69,127,146
1,69,0,94
1,69,127,2
1,69,0,94
1,69,127,2
1,69,0,46
1,69,127,2
1,69,0,142
1,70,127,2
1,70,0,208
1,69,127,128
1,69,0,46
1,69,127,2
1,69,0,110
1,69,127,2
1,69,0,62
1,69,127,2
1,69,0,62
1,69,127,2
1,69,0,142
1,70,127,2
1,70,0,208
1,69,127,176
1,69,0,94
1,69,127,2
1,69,0,94
1,69,127,2
1,69,0,46
1,69,127,2
1,69,0,96
1,72,127,0
1,72,0,96
1,74,127,0
1,74,0,96
1,74,127,0
1,74,0,94
1,74,127,2
1,74,0,144
1,76,127,0
1,76,0,142
1,77,127,2
1,77,0,192
1,79,127,0
1,79,0,96
1,76,127,0
1,76,0,96
1,77,127,0
1,77,0,96
1,76,127,0
1,76,0,144
1,77,127,0
1,77,0,144
1,74,127,0
1,74,0,144
1,72,127,0
1,72,0,96
1,74,127,0
1,74,0,48
1,69,127,0
1,69,0,192
1,72,127,0
1,72,0,96
1,74,127,0
1,74,0,192
1,69,127,0
1,69,0,96
1,70,127,0
1,70,0,144
1,72,127,0
1,72,0,208
1,69,127,176
1,69,0,94
1,69,127,2
1,69,0,94
1,69,127,2
1,69,0,46
1,69,127,2
1,69,0,96
1,67,127,0
1,67,0,46
1,69,127,2
1,69,0,144
1,67,127,0
1,67,0,94
1,69,127,146
1,69,0,94
1,69,127,2
1,69,0,94
1,69,127,2
1,69,0,46
1,69,127,2
1,69,0,96
1,67,127,0
1,67,0,46
1,69,127,2
1,69,0,144
1,67,127,0
1,67,0,94
1,70,127,98
1,70,0,46
1,69,127,2
1,69,0,94
1,69,127,2
1,69,0,94
1,69,127,2
1,69,0,192
1,69,127,0
1,69,0,144
1,67,127,0
1,67,0,94
1,69,127,146
1,69,0,94
1,69,127,2
1,69,0,94
1,69,127,2
1,69,0,46
1,69,127,2
1,69,0,96
1,67,127,0
1,67,0,46
1,69,127,2
1,69,0,144
1,67,127,0
1,67,0,94
1,65,127,146
1,65,0,94
1,65,127,2
1,65,0,94
1,65,127,2
1,65,0,46
1,65,127,2
1,65,0,160
1,67,127,32
1,67,0,96
1,72,127,0
1,72,0,94
1,74,127,2
1,74,0,144
1,76,127,0
1,76,0,142
1,77,127,2
1,77,0,192
1,79,127,0
1,79,0,96
1,76,127,0
1,76,0,96
1,77,127,0
1,77,0,96
1,76,127,0
1,76,0,144
1,77,127,0
1,77,0,144
1,74,127,0
1,74,0,144
1,72,127,0
1,72,0,96
1,74,127,0
1,74,0,48
1,69,127,0
1,69,0,192
1,72,127,0
1,72,0,96
1,74,127,0
1,74,0,192
1,69,127,0
1,69,0,96
1,70,127,0
1,70,0,144
1,72,127,0
1,72,0,208
1,69,127,176
1,69,0,94
1,69,127,2
1,69,0,94
1,69,127,2
1,69,0,46
1,69,127,2
1,69,0,96
1,67,127,0
1,67,0,46
1,69,127,2
1,69,0,144
1,67,127,0
1,67,0,94
1,69,127,146
1,69,0,94
1,69,127,2
1,69,0,94
1,69,127,2
1,69,0,46
1,69,127,2
1,69,0,96
1,67,127,0
1,67,0,46
1,69,127,2
1,69,0,144
1,67,127,0
1,67,0,94
1,70,127,98
1,70,0,46
1,69,127,2
1,69,0,94
1,69,127,2
1,69,0,94
1,69,127,2
1,69,0,192
1,69,127,0
1,69,0,144
1,67,127,0
1,67,0,94
1,69,127,146
1,69,0,94
1,69,127,2
1,69,0,94
1,69,127,2
1,69,0,46
1,69,127,2
1,69,0,96
1,67,127,0
1,67,0,46
1,69,127,2
1,69,0,144
1,67,127,0
1,67,0,94
1,65,127,146
1,65,0,94
1,65,127,2
1,65,0,94
1,65,127,2
1,65,0,46
1,65,127,2
1,65,0,160
1,67,127,32
1,67,0,96
1,72,127,0
1,72,0,94
1,74,127,2
1,74,0,144
1,76,127,0
1,76,0,142
1,77,127,2
1,77,0,192
1,79,127,0
1,79,0,96
1,76,127,0
1,76,0,96
1,77,127,0
1,77,0,96
1,76,127,0
1,76,0,19
1,77,127,0
1,77,0,16
1,74,127,0
1,74,0,14
1,72,127,0
1,72,0,5
1,74,127,0
1,74,0,11
1,69,127,0
1,69,0,14
1,72,127,0
1,72,0,6
1,74,127,0
1,74,0,9
1,69,127,0
1,69,0,1
1,71,127,0
1,71,0,19
1,72,127,0
1,72,0,17
1,69,127,5
1,69,0,15
1,69,127,2
1,69,0,6
1,69,127,2
1,69,0,12
1,69,127,2
1,69,0,6
1,67,127,0
1,67,0,10
1,69,127,2
1,69,0,9
1,67,127,0
1,67,0,19
2,50,110,48
2,50,0,94
2,50,110,2
2,50,0,94
2,62,127,2
2,69,127,0
