track,note,velocity,time
1,62,110,0
1,74,110,3
1,62,110,3
1,74,110,3
1,62,110,3
1,74,110,3
1,62,110,3
1,74,110,3
1,62,110,3
1,74,110,3
1,62,110,3
1,74,110,3
1,62,110,3
1,74,110,3
1,62,110,3
1,74,110,3
1,62,110,3
1,74,110,3
1,62,110,3
1,74,110,3
1,62,110,3
1,74,110,3
1,62,110,3
1,74,110,3
1,62,110,3
1,74,110,3
1,62,110,3
1,74,110,3
1,62,110,3
1,74,110,3
1,62,110,3
1,74,110,3
1,62,110,3
1,74,110,3
1,62,110,3
1,74,110,3
1,62,110,3
1,74,110,3
1,62,110,3
1,74,110,3
1,62,110,3
1,74,110,3
1,62,110,3
1,74,110,3
1,62,110,3
1,74,110,3
1,62,110,3
1,74,110,3
1,62,110,3
1,74,110,3
1,62,110,3
1,74,110,3
1,62,110,3
1,74,110,3
1,62,110,3
1,74,110,3
1,62,110,3
1,74,110,3
1,62,110,3
1,74,110,3
1,65,110,3
1,74,110,3
1,67,110,3
1,74,110,3
1,62,110,3
1,74,110,3
1,62,110,3
1,74,110,3
1,62,110,3
1,74,110,3
1,62,110,3
1,74,110,3
1,62,110,3
1,74,110,3
1,62,110,3
1,74,110,3
1,62,110,3
1,74,110,3
1,62,110,3
1,74,110,3
1,62,110,3
1,74,110,3
1,62,110,3
1,74,110,3
1,62,110,3
1,74,110,3
1,62,110,3
1,74,110,3
1,62,110,3
1,74,110,3
1,62,110,3
1,74,110,3
1,62,110,3
1,74,110,3
1,62,110,3
1,74,110,3
1,62,110,3
1,74,110,3
1,62,110,3
1,74,110,3
1,62,110,3
1,74,110,3
1,62,110,3
1,74,110,3
1,62,110,3
1,74,110,3
1,62,110,3
1,74,110,3
1,62,110,3
1,74,110,3
1,62,110,3
1,74,110,3
1,62,110,3
1,74,110,3
1,62,110,3
1,74,110,3
1,62,110,3
1,74,110,3
1,62,110,3
1,74,110,3
1,62,110,3
1,74,110,3
1,62,110,3
1,74,110,3
1,65,110,3
1,74,110,3
1,67,110,3
1,74,110,3
1,62,110,3
1,74,110,3
1,62,110,3
1,74,110,3
1,62,110,3
1,74,110,3
1,62,110,3
1,74,110,3
1,62,110,3
1,74,110,3
1,62,110,3
1,74,110,3
1,62,110,3
1,74,110,3
1,62,110,3
1,74,110,3
1,62,110,3
1,74,110,3
1,62,110,3
1,74,110,3
1,62,110,3
1,74,110,3
1,62,110,3
1,74,110,3
1,62,110,3
1,74,110,3
1,62,110,3
1,74,110,3
1,62,110,3
1,74,110,3
1,62,110,3
1,74,110,3
1,62,110,3
1,74,110,3
1,62,110,3
1,74,110,3
1,62,110,3
1,74,110,3
1,62,110,3
1,74,110,3
1,62,110,3
1,74,110,3
1,62,110,3
1,74,110,3
1,62,110,3
1,74,110,3
1,62,110,3
1,74,110,3
1,62,110,3
1,74,110,3
1,62,110,3
1,74,110,3
1,62,110,3
1,74,110,3
1,62,110,3
1,74,110,3
1,62,110,3
1,74,110,3
1,62,110,3
1,74,110,3
1,65,110,3
1,74,110,3
1,67,110,3
1,74,110,3
1,62,110,3
1,74,110,3
1,62,110,3
1,74,110,3
1,62,110,3
1,74,110,3
1,62,110,3
1,74,110,3
1,62,110,3
1,74,110,3
1,62,110,3
1,74,110,3
1,62,110,3
1,74,110,3
1,62,110,3
1,74,110,3
1,62,110,3
1,74,110,3
1,62,110,3
1,74,110,3
1,62,110,3
1,74,110,3
1,62,110,3
1,74,110,3
1,62,110,3
1,74,110,3
1,62,110,3
1,74,110,3
1,62,110,3
1,74,110,3
1,62,110,3
1,74,110,3
1,62,110,3
1,74,110,3
1,62,110,3
1,74,110,3
1,62,110,3
1,74,110,3
1,62,110,3
1,74,110,3
1,62,110,3
1,74,110,3
1,62,110,3
1,74,110,3
1,62,110,3
1,74,110,3
1,62,110,3
1,74,110,3
1,62,110,3
1,74,110,3
1,62,110,3
1,74,110,3
1,62,110,3
1,74,110,3
1,62,110,3
1,74,110,3
1,62,110,3
1,74,110,3
1,62,110,3
1,74,110,3
1,65,110,3
1,74,110,3
1,67,110,3
1,74,110,3
1,62,110,3
1,74,110,3
1,62,110,3
1,74,110,3
1,62,110,3
1,74,110,3
1,62,110,3
1,74,110,3
1,62,110,3
1,74,110,3
1,62,110,3
1,74,110,3
1,62,110,3
1,74,110,3
1,62,110,3
1,74,110,3
1,62,110,3
1,74,110,3
1,62,110,3
1,74,110,3
1,62,110,3
1,74,110,3
1,62,110,3
1,74,110,3
1,62,110,3
1,74,110,3
1,62,110,3
1,74,110,3
1,62,110,3
1,74,110,3
1,62,110,3
1,74,110,3
1,62,110,3
1,74,110,3
1,62,110,3
1,74,110,3
1,62,110,3
1,74,110,3
1,62,110,3
1,74,110,3
1,62,110,3
1,74,110,3
1,62,110,3
1,74,110,3
1,62,110,3
1,74,110,3
1,62,110,3
1,74,110,3
1,62,110,3
1,74,110,3
1,62,110,3
1,74,110,3
1,62,110,3
1,74,110,3
1,62,110,3
1,74,110,3
1,62,110,3
1,74,110,3
1,62,110,3
1,74,110,3
1,65,110,3
1,74,110,3
1,67,110,3
1,74,110,3
1,62,110,3
1,74,110,3
1,62,110,3
1,74,110,3
1,62,110,3
1,74,110,3
1,62,110,3
1,74,110,3
1,62,110,3
1,74,110,3
1,62,110,3
1,74,110,3
1,62,110,3
1,74,110,3
1,62,110,3
1,74,110,3
1,62,110,3
1,74,110,3
1,62,110,3
1,74,110,3
1,62,110,3
1,74,110,3
1,62,110,3
1,74,110,3
1,62,110,3
1,74,110,3
1,62,110,3
1,74,110,3
1,62,110,3
1,74,110,3
1,62,110,3
1,74,110,3
1,62,110,3
1,74,110,3
1,62,110,3
1,74,110,3
1,62,110,3
1,74,110,3
1,62,110,3
1,74,110,3
1,62,110,3
1,74,110,3
1,62,110,3
1,74,110,3
1,62,110,3
1,74,110,3
1,62,110,3
1,74,110,3
1,62,110,3
1,74,110,3
1,62,110,3
1,74,110,3
1,62,110,3
1,74,110,3
1,62,110,3
1,74,110,3
1,62,110,3
1,74,110,3
1,62,110,3
1,74,110,3
1,65,110,3
1,74,110,3
1,67,110,3
1,74,110,3
1,62,110,3
1,74,110,3
1,62,110,3
1,74,110,3
1,62,110,3
1,74,110,3
1,62,110,3
1,74,110,3
1,62,110,3
1,74,110,3
1,62,110,3
1,74,110,3
1,62,110,3
1,74,110,3
1,62,110,3
1,74,110,3
1,62,110,3
1,74,110,3
1,62,110,3
1,74,110,3
1,62,110,3
1,74,110,3
1,62,110,3
1,74,110,3
1,62,110,3
1,74,110,3
1,62,110,3
1,74,110,3
1,62,110,3
1,74,110,3
1,62,110,3
1,74,110,3
1,62,110,3
1,74,110,3
1,62,110,3
1,74,110,3
1,62,110,3
1,74,110,3
1,62,110,3
1,74,110,3
1,62,110,3
1,74,110,3
1,62,110,3
1,74,110,3
1,62,110,3
1,74,110,3
1,62,110,3
1,74,110,3
1,62,110,3
1,74,110,3
1,62,110,3
1,74,110,3
1,62,110,3
1,74,110,3
1,62,110,3
1,74,110,3
1,62,110,3
1,74,110,3
1,62,110,3
1,74,110,3
1,65,110,3
1,74,110,3
1,67,110,3
1,74,110,3
1,62,110,3
1,74,110,3
1,62,110,3
1,74,110,3
1,62,110,3
1,74,110,3
1,62,110,3
1,74,110,3
1,62,110,3
1,74,110,3
1,62,110,3
1,74,110,3
1,62,110,3
1,74,110,3
1,62,110,3
1,74,110,3
1,62,110,3
1,74,110,3
1,62,110,3
1,74,110,3
1,62,110,3
1,74,110,3
1,62,110,3
1,74,110,3
1,62,110,3
1,74,110,3
1,62,110,3
1,74,110,3
1,62,110,3
1,74,110,3
1,62,110,3
1,74,110,3
1,62,110,3
1,74,110,3
1,62,110,3
1,74,110,3
1,62,110,3
1,74,110,3
1,62,110,3
1,74,110,3
1,62,110,3
1,74,110,3
1,62,110,3
1,74,110,3
1,62,110,3
1,74,110,3
1,62,110,3
1,74,110,3
1,62,110,3
1,74,110,3
1,62,110,3
1,74,110,3
1,62,110,3
1,74,110,3
1,62,110,3
1,74,110,3
1,62,110,3
1,74,110,3
1,62,110,3
1,74,110,3
1,65,110,3
1,74,110,3
1,67,110,3
1,74,110,3
1,62,110,3
1,74,110,3
1,62,110,3
1,74,110,3
1,62,110,3
1,74,110,3
1,62,110,3
1,74,110,3
1,62,110,3
1,74,110,3
1,62,110,3
1,74,110,3
1,62,110,3
1,74,110,3
1,62,110,3
1,74,110,3
1,62,110,3
1,74,110,3
1,62,110,3
1,74,110,3
1,62,110,3
1,74,110,3
1,62,110,3
1,74,110,3
1,62,110,3
1,74,110,3
1,62,110,3
1,74,110,3
1,62,110,3
1,74,110,3
1,62,110,3
1,74,110,3
1,62,110,3
1,74,110,3
1,62,110,3
1,74,110,3
1,62,110,3
1,74,110,3
1,62,110,3
1,74,110,3
1,62,110,3
1,74,110,3
1,62,110,3
1,74,110,3
1,62,110,3
1,74,110,3
1,62,110,3
1,74,110,3
1,62,110,3
1,74,110,3
1,62,110,3
1,74,110,3
1,62,110,3
1,74,110,3
1,62,110,3
1,74,110,3
1,62,110,3
1,74,110,3
1,72,110,3
1,72,110,3
1,70,110,3
1,72,110,0
1,70,110,0
1,69,110,3
1,69,110,3
1,62,110,3
1,74,110,3
1,62,110,3
1,74,110,3
1,62,110,3
1,74,110,3
1,62,110,3
1,74,110,3
1,62,110,3
1,74,110,3
1,62,110,3
1,74,110,3
1,62,110,3
1,74,110,3
1,62,110,3
1,74,110,3
1,62,110,3
1,74,110,3
1,62,110,3
1,74,110,3
1,62,110,3
1,74,110,3
1,62,110,3
1,74,110,3
1,62,110,3
1,74,110,3
1,62,110,3
1,74,110,3
1,65,110,3
1,74,110,3
1,67,110,3
1,74,110,3
1,62,110,3
1,74,110,3
1,62,110,3
1,74,110,3
1,62,110,3
1,74,110,3
1,62,110,3
1,74,110,3
1,62,110,3
1,74,110,3
1,62,110,3
1,74,110,3
1,62,110,3
1,74,110,3
1,62,110,3
1,74,110,3
1,62,110,3
1,74,110,3
1,62,110,3
1,74,110,3
1,62,110,3
1,74,110,3
1,62,110,3
1,74,110,3
1,62,110,3
1,74,110,3
1,62,110,3
1,74,110,3
1,65,110,3
1,74,110,3
1,67,110,3
1,74,110,3
1,69,110,3
1,74,110,3
1,69,110,3
1,74,110,3
1,69,110,3
1,74,110,3
1,69,110,3
1,74,110,3
1,69,110,3
1,74,110,3
1,69,110,3
1,74,110,3
1,65,110,3
1,70,110,3
1,65,110,3
1,70,110,3
1,67,110,3
1,72,110,3
1,67,110,3
1,72,110,3
1,67,110,3
1,72,110,3
1,67,110,3
1,72,110,3
1,67,110,3
1,72,110,3
1,67,110,3
1,72,110,3
1,67,110,3
1,72,110,3
1,67,110,3
1,72,110,3
1,65,110,3
1,69,110,3
1,65,110,3
1,69,110,3
1,65,110,3
1,69,110,3
1,65,110,3
1,69,110,3
1,70,110,3
1,74,110,3
1,70,110,3
1,74,110,3
1,70,110,3
1,74,110,3
1,70,110,3
1,74,110,3
1,69,110,3
1,72,110,3
1,69,110,3
1,72,110,3
1,69,110,3
1,72,110,3
1,69,110,3
1,72,110,3
1,67,110,3
1,70,110,3
1,67,110,3
1,70,110,3
1,67,110,3
1,70,110,3
1,67,110,3
1,70,110,3
1,69,110,3
1,74,110,3
1,69,110,3
1,74,110,3
1,69,110,3
1,74,110,3
1,69,110,3
1,74,110,3
1,69,110,3
1,74,110,3
1,69,110,3
1,74,110,3
1,65,110,3
1,70,110,3
1,65,110,3
1,70,110,3
1,67,110,3
1,72,110,3
1,67,110,3
1,72,110,3
1,67,110,3
1,72,110,3
1,67,110,3
1,72,110,3
1,67,110,3
1,72,110,3
1,67,110,3
1,72,110,3
1,67,110,3
1,72,110,3
1,67,110,3
1,72,110,3
1,65,110,3
1,69,110,3
1,65,110,3
1,69,110,3
1,65,110,3
1,69,110,3
1,65,110,3
1,69,110,3
1,70,110,3
1,74,110,3
1,70,110,3
1,74,110,3
1,70,110,3
1,74,110,3
1,70,110,3
1,74,110,3
1,69,110,3
1,72,110,3
1,69,110,3
1,72,110,3
1,69,110,3
1,72,110,3
1,69,110,3
1,72,110,3
1,67,110,3
1,70,110,3
1,67,110,3
1,70,110,3
1,67,110,3
1,70,110,3
1,67,110,3
1,70,110,3
1,62,110,3
1,74,110,3
1,62,110,3
1,74,110,3
1,62,110,3
1,74,110,3
1,62,110,3
1,74,110,3
1,62,110,3
1,74,110,3
1,62,110,3
1,74,110,3
1,62,110,3
1,74,110,3
1,62,110,3
1,74,110,3
1,62,110,3
1,74,110,3
1,62,110,3
1,74,110,3
1,62,110,3
1,74,110,3
1,62,110,3
1,74,110,3
1,62,110,3
1,74,110,3
1,62,110,3
1,74,110,3
1,62,110,3
1,74,110,3
1,62,110,3
1,74,110,3
1,62,110,3
1,74,110,3
1,62,110,3
1,74,110,3
1,62,110,3
1,74,110,3
1,62,110,3
1,74,110,3
1,62,110,3
1,74,110,3
1,62,110,3
1,74,110,3
1,62,110,3
1,74,110,3
1,62,110,3
1,74,110,3
1,62,110,3
1,74,110,3
1,62,110,3
1,74,110,3
1,62,110,3
1,74,110,3
1,62,110,3
1,74,110,3
1,62,110,3
1,74,110,3
1,62,110,3
1,74,110,3
1,65,110,3
1,74,110,3
1,67,110,3
1,74,110,3
1,69,110,3
1,74,110,3
1,69,110,3
1,74,110,3
1,69,110,3
1,74,110,3
1,69,110,3
1,74,110,3
1,69,110,3
1,74,110,3
1,69,110,3
1,74,110,3
1,65,110,3
1,70,110,3
1,65,110,3
1,70,110,3
1,67,110,3
1,72,110,3
1,67,110,3
1,72,110,3
1,67,110,3
1,72,110,3
1,67,110,3
1,72,110,3
1,67,110,3
1,72,110,3
1,67,110,3
1,72,110,3
1,67,110,3
1,72,110,3
1,67,110,3
1,72,110,3
1,65,110,3
1,69,110,3
1,65,110,3
1,69,110,3
1,65,110,3
1,69,110,3
1,65,110,3
1,69,110,3
1,70,110,3
1,74,110,3
1,70,110,3
1,74,110,3
1,70,110,3
1,74,110,3
1,70,110,3
1,74,110,3
1,69,110,3
1,72,110,3
1,69,110,3
1,72,110,3
1,69,110,3
1,72,110,3
1,69,110,3
1,72,110,3
1,67,110,3
1,70,110,3
1,67,110,3
1,70,110,3
1,67,110,3
1,70,110,3
1,67,110,3
1,70,110,3
1,69,110,3
1,74,110,3
1,69,110,3
1,74,110,3
1,69,110,3
1,74,110,3
1,69,110,3
1,74,110,3
1,69,110,3
1,74,110,3
1,69,110,3
1,74,110,3
1,65,110,3
1,70,110,3
1,65,110,3
1,70,110,3
1,67,110,3
1,72,110,3
1,67,110,3
1,72,110,3
1,67,110,3
1,72,110,3
1,67,110,3
1,72,110,3
1,67,110,3
1,72,110,3
1,67,110,3
1,72,110,3
1,67,110,3
1,72,110,3
1,67,110,3
1,72,110,3
1,65,110,3
1,69,110,3
1,65,110,3
1,69,110,3
1,65,110,3
1,69,110,3
1,65,110,3
1,69,110,3
1,70,110,3
1,74,110,3
1,70,110,3
1,74,110,3
1,70,110,3
1,74,110,3
1,70,110,3
1,74,110,3
1,69,110,3
1,72,110,3
1,69,110,3
1,72,110,3
1,69,110,3
1,72,110,3
1,69,110,3
1,72,110,3
1,67,110,3
1,70,110,3
1,67,110,3
1,70,110,3
1,67,110,3
1,70,110,3
1,67,110,3
1,70,110,3
1,65,110,3
1,69,110,3
1,65,110,3
1,69,110,3
1,65,110,3
1,69,110,3
1,65,110,3
1,69,110,3
1,70,110,3
1,74,110,3
1,70,110,3
1,74,110,3
1,70,110,3
1,74,110,3
1,70,110,3
1,74,110,3
1,69,110,3
1,72,110,3
1,69,110,3
1,72,110,3
1,69,110,3
1,72,110,3
1,69,110,3
1,72,110,3
1,67,110,3
1,70,110,3
1,67,110,3
1,70,110,3
1,67,110,3
1,70,110,3
1,67,110,3
1,70,110,3
1,72,110,3
1,72,110,3
1,65,110,3
1,65,110,3
1,69,110,3
1,69,110,3
1,72,110,3
