track,note,velocity,time
0,42,68,239
0,42,0,2
0,42,54,94
0,42,0,2
0,42,66,94
0,42,0,2
0,42,68,94
0,42,0,2
0,42,72,94
0,42,0,2
0,42,68,94
0,42,0,2
0,42,62,94
0,42,0,2
0,40,105,94
0,40,0,2
0,31,104,94
0,43,84,0
0,50,84,0
0,55,92,0
0,62,66,0
0,70,56,0
0,67,68,0
0,43,84,0
0,50,84,0
0,55,92,0
0,35,75,0
0,40,76,0
0,43,75,0
0,52,88,0
0,52,0,2
0,43,0,0
0,35,0,0
0,40,0,0
0,31,0,49
0,31,96,45
0,40,63,0
0,43,75,0
0,43,0,2
0,40,0,0
0,31,0,18
0,31,82,12
0,40,57,0
0,43,45,0
0,43,0,2
0,40,0,0
0,31,0,10
0,31,104,20
0,40,48,0
0,43,58,0
0,43,0,2
0,40,0,0
0,31,0,21
0,31,88,9
0,40,76,0
0,43,75,0
0,43,0,2
0,40,0,0
0,31,0,43
0,31,108,51
0,40,76,0
0,43,75,0
0,43,0,2
0,40,0,0
0,31,0,17
0,31,76,29
0,40,68,0
0,43,57,0
0,43,0,2
0,40,0,0
0,31,0,19
0,31,112,27
0,35,75,0
0,40,76,0
0,43,75,0
0,43,0,2
0,40,0,0
0,35,0,0
0,31,0,35
0,41,35,11
0,41,0,2
0,62,0,19
0,55,0,6
0,55,0,0
0,70,0,0
0,43,0,2
0,43,0,0
0,29,108,19
0,41,62,0
0,48,66,0
0,53,88,0
0,69,68,0
0,65,84,0
0,60,72,0
0,48,66,0
0,53,88,0
0,41,62,0
0,35,75,0
0,40,76,0
0,43,75,0
0,52,97,0
0,50,0,1
0,50,0,0
0,67,0,0
0,52,0,1
0,43,0,0
0,40,0,0
0,35,0,0
0,29,0,36
0,29,108,58
0,40,60,0
0,43,75,0
0,43,0,2
0,40,0,0
0,29,0,17
0,29,104,13
0,40,63,0
0,43,55,0
0,43,0,2
0,40,0,0
0,29,0,9
0,29,108,21
0,40,66,0
0,43,55,0
0,43,0,2
0,40,0,0
0,29,0,17
0,29,104,13
0,40,69,0
0,43,75,0
0,43,0,2
0,40,0,0
0,29,0,43
0,29,100,51
0,40,76,0
0,43,75,0
0,43,0,2
0,40,0,0
0,29,0,24
0,29,92,22
0,40,71,0
0,43,58,0
0,43,0,2
0,40,0,0
0,29,0,19
0,29,108,27
0,35,75,0
0,40,76,0
0,43,75,0
0,43,0,2
0,40,0,0
0,35,0,0
0,29,0,34
0,41,35,12
0,41,0,2
0,60,0,23
0,69,0,2
0,65,0,2
0,38,100,19
0,50,92,0
0,57,92,0
0,62,88,0
0,62,66,0
0,65,68,0
0,69,62,0
0,62,88,0
0,57,92,0
0,50,92,0
0,35,75,0
0,40,76,0
0,43,75,0
0,52,97,0
0,52,0,2
0,43,0,0
0,35,0,0
0,40,0,0
0,41,0,8
0,53,0,0
0,53,0,0
0,48,0,0
0,41,0,0
0,48,0,0
0,38,0,42
0,38,100,44
0,40,53,0
0,43,75,0
0,43,0,2
0,40,0,0
0,38,0,16
0,38,96,14
0,40,61,0
0,43,47,0
0,43,0,2
0,40,0,0
0,38,0,10
0,38,104,20
0,40,68,0
0,43,57,0
0,43,0,2
0,40,0,0
0,38,0,19
0,38,104,11
0,40,75,0
0,43,75,0
0,43,0,2
0,40,0,0
0,38,0,45
0,38,96,49
0,40,76,0
0,43,75,0
0,43,0,2
0,40,0,0
0,38,0,24
0,38,78,22
0,40,57,0
0,43,60,0
0,43,0,2
0,40,0,0
0,38,0,24
0,38,108,22
0,35,75,0
0,40,75,0
0,43,75,0
0,43,0,2
0,40,0,0
0,35,0,0
0,41,55,46
0,38,0,1
0,41,0,1
0,62,0,12
0,57,0,27
0,57,0,0
0,65,0,2
0,62,0,2
0,62,0,0
0,69,0,1
0,36,100,2
0,48,80,0
0,55,84,0
0,60,84,0
0,67,66,0
0,64,72,0
0,60,64,0
0,55,84,0
0,60,84,0
0,48,80,0
0,35,75,0
0,40,76,0
0,43,75,0
0,49,54,0
0,49,0,2
0,43,0,0
0,40,0,0
0,35,0,0
0,50,0,3
0,50,0,0
0,36,0,45
0,36,84,46
0,40,76,0
0,43,75,0
0,43,0,2
0,40,0,0
0,36,0,14
0,36,84,16
0,40,59,0
0,43,55,0
0,43,0,2
0,40,0,0
0,36,0,12
0,36,104,18
0,40,70,0
0,43,58,0
0,43,0,2
0,40,0,0
0,36,0,13
0,36,88,17
0,40,80,0
0,43,75,0
0,43,0,2
0,40,0,0
0,36,0,48
0,36,104,46
0,40,105,0
0,43,75,0
0,43,0,2
0,40,0,0
0,35,58,22
0,35,0,2
0,36,0,0
0,36,82,22
0,45,75,0
0,47,75,0
0,47,0,2
0,45,0,0
0,36,0,22
0,35,58,0
0,35,0,2
0,36,100,22
0,40,105,0
0,43,75,0
0,43,0,2
0,40,0,0
0,35,58,22
0,35,0,2
0,41,75,22
0,43,75,0
0,43,0,2
0,41,0,0
0,36,0,7
0,55,0,15
0,55,0,0
0,35,58,0
0,67,0,1
0,35,0,1
0,60,0,2
0,64,0,8
0,48,0,12
0,48,0,0
0,31,108,0
0,43,76,0
0,50,88,0
0,55,92,0
0,62,62,0
0,67,66,0
0,70,68,0
0,55,92,0
0,50,88,0
0,43,76,0
0,43,75,0
0,57,92,0
0,60,0,1
0,60,0,0
0,57,0,1
0,43,0,0
0,31,0,52
0,31,100,42
0,40,76,0
0,43,75,0
0,43,0,2
0,40,0,0
0,31,0,17
0,31,86,13
0,40,53,0
0,43,53,0
0,43,0,2
0,40,0,0
0,31,0,10
0,31,104,20
0,40,58,0
0,43,55,0
0,43,0,2
0,40,0,0
0,31,0,17
0,31,100,13
0,40,73,0
0,43,75,0
0,43,0,2
0,40,0,0
0,31,0,38
0,31,92,56
0,40,76,0
0,43,75,0
0,43,0,2
0,40,0,0
0,31,0,17
0,31,86,29
0,40,58,0
0,43,60,0
0,43,0,2
0,40,0,0
0,31,0,15
0,31,100,31
0,40,76,0
0,43,75,0
0,43,0,2
0,40,0,0
0,31,0,45
0,41,25,1
0,41,0,2
0,62,0,20
0,70,0,3
0,55,0,2
0,55,0,0
0,50,0,1
0,50,0,0
0,67,0,14
0,43,0,2
0,43,0,0
0,29,100,4
0,41,80,0
0,48,88,0
0,53,88,0
0,69,66,0
0,60,68,0
0,65,76,0
0,53,88,0
0,48,88,0
0,41,80,0
0,40,76,0
0,43,75,0
0,52,80,0
0,52,0,2
0,43,0,0
0,40,0,0
0,29,0,46
0,29,86,48
0,40,76,0
0,43,75,0
0,43,0,2
0,40,0,0
0,29,0,17
0,29,92,13
0,40,57,0
0,43,53,0
0,43,0,2
0,40,0,0
0,29,0,14
0,29,104,16
0,40,65,0
0,43,58,0
0,43,0,2
0,40,0,0
0,29,0,19
0,29,88,11
0,40,79,0
0,43,75,0
0,43,0,2
0,40,0,0
0,29,0,48
0,29,92,46
0,40,76,0
0,43,75,0
0,43,0,2
0,40,0,0
0,29,0,22
0,29,84,24
0,40,57,0
0,43,62,0
0,43,0,2
0,40,0,0
0,29,0,19
0,29,104,27
0,40,76,0
0,43,75,0
0,43,0,2
0,40,0,0
0,35,61,22
0,35,0,2
0,29,0,37
0,35,61,9
0,35,0,2
0,60,0,5
0,69,0,3
0,65,0,3
0,38,108,11
0,50,88,0
0,57,88,0
0,62,92,0
0,62,56,0
0,69,76,0
0,65,66,0
0,62,92,0
0,50,88,0
0,57,88,0
0,40,76,0
0,43,75,0
0,49,56,0
0,49,0,2
0,43,0,0
0,40,0,0
0,53,0,1
0,48,0,0
0,53,0,0
0,41,0,0
0,41,0,0
0,48,0,0
0,38,0,45
0,38,82,48
0,40,76,0
0,43,75,0
0,43,0,2
0,40,0,0
0,38,0,16
0,38,68,14
0,40,56,0
0,43,57,0
0,43,0,2
0,40,0,0
0,38,0,12
0,38,96,18
0,40,67,0
0,43,64,0
0,43,0,2
0,40,0,0
0,38,0,16
0,38,86,14
0,40,77,0
0,43,75,0
0,43,0,2
0,40,0,0
0,38,0,48
0,38,96,46
0,40,76,0
0,43,75,0
0,43,0,2
0,40,0,0
0,38,0,21
0,38,88,25
0,40,76,0
0,43,60,0
0,43,0,2
0,40,0,0
0,38,0,14
0,38,104,32
0,40,76,0
0,43,75,0
0,43,0,2
0,40,0,0
0,35,58,22
0,35,0,2
0,38,0,10
0,62,0,31
0,35,51,5
0,35,0,2
0,69,0,6
0,62,0,2
0,62,0,0
0,65,0,0
0,57,0,13
0,50,0,0
0,50,0,0
0,57,0,0
0,36,86,1
0,48,92,0
0,55,84,0
0,60,76,0
0,60,62,0
0,64,80,0
0,67,72,0
0,60,76,0
0,55,84,0
0,48,92,0
0,40,76,0
0,43,75,0
0,57,79,0
0,57,0,2
0,43,0,0
0,40,0,0
0,36,0,56
0,36,92,38
0,40,76,0
0,43,75,0
0,43,0,2
0,40,0,0
0,36,0,19
0,36,78,11
0,40,58,0
0,43,57,0
0,43,0,2
0,40,0,0
0,36,0,13
0,36,84,17
0,40,64,0
0,43,60,0
0,43,0,2
0,40,0,0
0,36,0,17
0,36,92,13
0,40,69,0
0,43,75,0
0,43,0,2
0,40,0,0
0,36,0,38
0,36,100,56
0,40,76,0
0,43,75,0
0,43,0,2
0,40,0,0
0,36,0,22
0,36,64,24
0,40,76,0
0,43,55,0
0,43,0,2
0,40,0,0
0,36,0,19
0,36,84,27
0,40,76,0
0,43,75,0
0,43,0,2
0,40,0,0
0,35,75,22
0,35,0,2
0,36,0,19
0,35,75,27
0,35,0,2
0,67,0,7
0,64,0,0
0,60,0,4
0,55,0,9
0,55,0,0
0,60,0,2
0,60,0,0
0,33,104,0
0,45,80,0
0,52,88,0
0,57,102,0
0,62,68,0
0,60,64,0
0,67,72,0
0,52,88,0
0,57,102,0
0,45,80,0
0,44,75,0
0,49,70,0
0,48,0,1
0,48,0,0
0,49,0,1
0,44,0,0
0,44,75,94
0,44,0,2
0,67,0,92
0,60,0,0
0,62,0,0
0,40,105,2
0,44,75,0
0,44,0,2
0,40,0,0
0,40,101,4
0,40,0,2
0,52,0,23
0,52,0,0
0,57,0,2
0,57,0,0
0,45,0,4
0,45,0,0
0,77,106,11
0,33,0,9
0,77,0,20
0,44,75,19
0,44,0,2
0,76,116,22
0,76,0,21
0,38,104,51
0,76,121,0
0,50,97,0
0,62,66,0
0,50,97,0
0,35,75,0
0,46,51,0
0,49,62,0
0,49,0,2
0,46,0,0
0,35,0,0
0,57,92,46
0,69,64,0
0,57,92,0
0,35,64,0
0,46,51,0
0,51,57,0
0,51,0,2
0,46,0,0
0,35,0,0
0,76,0,3
0,74,106,19
0,38,0,1
0,74,0,19
0,38,84,4
0,62,84,0
0,74,88,0
0,62,84,0
0,40,105,0
0,46,51,0
0,57,75,0
0,57,0,2
0,46,0,0
0,40,0,0
0,38,0,24
0,33,86,22
0,46,51,0
0,51,39,0
0,51,0,2
0,46,0,0
0,33,0,18
0,35,108,4
0,62,0,3
0,50,0,10
0,50,0,0
0,74,0,4
0,35,0,3
0,36,104,4
0,48,80,0
0,60,80,0
0,48,80,0
0,35,75,0
0,46,51,0
0,51,61,0
0,51,0,2
0,35,0,0
0,69,0,0
0,46,0,0
0,57,0,36
0,57,0,0
0,72,121,10
0,55,68,0
0,67,72,0
0,55,68,0
0,35,59,0
0,46,51,0
0,51,55,0
0,51,0,2
0,46,0,0
0,35,0,0
0,62,0,17
0,62,0,0
0,62,88,29
0,74,84,0
0,62,88,0
0,40,105,0
0,46,51,0
0,51,49,0
0,51,0,2
0,46,0,0
0,40,0,0
0,72,0,15
0,71,106,7
0,69,102,24
0,46,51,0
0,51,57,0
0,51,0,2
0,46,0,0
0,71,0,7
0,36,0,17
0,69,0,8
0,35,88,14
0,67,102,0
0,47,88,0
0,59,62,0
0,47,88,0
0,35,75,0
0,46,51,0
0,51,59,0
0,51,0,2
0,46,0,0
0,35,0,0
0,48,0,0
0,62,0,0
0,60,0,0
0,48,0,0
0,62,0,0
0,55,0,7
0,55,0,0
0,67,0,16
0,35,0,1
0,74,0,1
0,33,92,0
0,55,76,0
0,67,66,0
0,55,76,0
0,35,61,0
0,46,51,0
0,51,61,0
0,51,0,1
0,46,0,0
0,35,0,0
0,67,0,1
0,33,0,15
0,31,100,13
0,62,97,0
0,74,62,0
0,62,97,0
0,40,105,0
0,46,51,0
0,51,59,0
0,67,0,1
0,40,0,1
0,51,0,0
0,46,0,0
0,33,96,46
0,46,51,0
0,51,83,0
0,31,0,1
0,46,0,1
0,51,0,0
0,55,0,17
0,55,0,0
0,74,0,12
0,33,0,10
0,59,0,2
0,47,0,2
0,47,0,0
0,34,96,3
0,46,66,0
0,53,84,0
0,58,107,0
0,82,66,0
0,77,64,0
0,74,46,0
0,58,107,0
0,53,84,0
0,46,66,0
0,35,75,0
0,46,51,0
0,49,82,0
0,62,0,1
0,62,0,0
0,35,0,1
0,49,0,0
0,46,0,0
0,65,116,46
0,35,61,0
0,46,51,0
0,51,49,0
0,51,0,2
0,46,0,0
0,35,0,0
0,77,0,24
0,65,0,16
0,58,0,2
0,58,0,0
0,74,0,2
0,36,86,2
0,48,88,0
0,55,92,0
0,60,88,0
0,79,35,0
0,76,72,0
0,84,66,0
0,48,88,0
0,55,92,0
0,60,88,0
0,40,105,0
0,46,51,0
0,57,75,0
0,34,0,1
0,82,0,1
0,57,0,0
0,46,0,0
0,40,0,0
0,53,0,2
0,53,0,0
0,46,0,6
0,46,0,0
0,64,116,14
0,46,51,24
0,51,59,0
0,51,0,2
0,46,0,0
0,64,0,20
0,40,90,2
0,40,0,2
0,36,0,12
0,79,0,2
0,76,0,0
0,84,0,5
0,60,0,3
0,60,0,0
0,38,76,0
0,62,106,0
0,50,102,0
0,50,102,0
0,35,75,0
0,46,51,0
0,49,78,0
0,55,0,1
0,55,0,0
0,49,0,1
0,46,0,0
0,35,0,0
0,48,0,2
0,48,0,0
0,38,0,1
0,38,86,22
0,57,92,0
0,57,92,0
0,35,56,0
0,46,51,0
0,51,55,0
0,51,0,2
0,46,0,0
0,35,0,0
0,38,0,17
0,38,100,24
0,62,92,0
0,84,84,0
0,62,92,0
0,40,105,0
0,46,51,0
0,51,75,0
0,51,0,2
0,40,0,0
0,46,0,0
0,83,64,22
0,84,0,5
0,38,0,1
0,33,86,1
0,81,72,0
0,46,51,0
0,51,59,0
0,51,0,1
0,46,0,0
0,83,0,1
0,35,78,2
0,40,90,0
0,40,0,2
0,33,0,1
0,62,0,1
0,50,0,1
0,50,0,0
0,36,104,5
0,48,84,0
0,48,84,0
0,35,75,0
0,46,51,0
0,51,63,0
0,35,0,1
0,46,0,1
0,35,0,0
0,51,0,0
0,57,0,11
0,57,0,0
0,62,0,6
0,62,0,0
0,48,0,8
0,48,0,0
0,36,0,1
0,81,0,18
0,36,104,2
0,48,97,0
0,84,66,0
0,48,97,0
0,35,56,0
0,46,51,0
0,51,61,0
0,51,0,2
0,35,0,0
0,46,0,0
0,84,0,40
0,55,88,6
0,62,88,0
0,86,88,0
0,55,88,0
0,62,88,0
0,40,105,0
0,46,51,0
0,51,67,0
0,51,0,2
0,46,0,0
0,40,0,0
0,35,88,22
0,36,0,4
0,35,0,14
0,33,96,6
0,46,51,0
0,51,57,0
0,51,0,2
0,46,0,0
0,48,0,43
0,48,0,0
0,33,0,1
0,31,100,2
0,47,88,0
0,48,36,0
0,79,64,0
0,48,36,0
0,47,88,0
0,35,75,0
0,46,51,0
0,51,63,0
0,48,0,1
0,48,0,0
0,51,0,1
0,35,0,0
0,46,0,0
0,86,0,3
0,55,0,3
0,55,0,0
0,62,0,7
0,62,0,0
0,31,0,17
0,31,108,16
0,55,84,0
0,55,84,0
0,35,54,0
0,46,51,0
0,51,61,0
0,51,0,2
0,46,0,0
0,35,0,0
0,62,97,46
0,62,97,0
0,40,105,0
0,46,51,0
0,51,63,0
0,51,0,2
0,46,0,0
0,40,0,0
0,46,51,46
0,51,63,0
0,51,0,2
0,46,0,0
