track,note,velocity,time
1,33,91,0
1,33,0,95
1,36,80,49
1,36,0,47
1,40,86,48
1,40,0,59
1,36,91,25
1,36,0,20
1,38,91,0
1,38,0,23
1,38,83,19
1,38,0,22
1,38,80,24
1,38,0,18
1,38,83,29
1,38,0,46
1,31,91,3
1,31,0,5
1,36,91,40
1,36,0,59
1,40,83,36
1,40,0,60
1,36,91,24
1,36,0,22
1,38,80,0
1,38,0,23
1,38,81,19
1,38,0,22
1,38,82,24
1,38,0,18
1,38,82,29
1,38,0,46
1,30,91,10
1,30,0,83
1,31,82,13
1,31,0,59
1,33,86,0
1,33,0,121
1,36,91,29
1,36,91,0
1,36,0,56
1,36,0,0
1,40,83,36
1,40,0,75
1,36,81,21
1,36,0,49
1,38,81,1
1,38,0,28
1,38,81,23
1,38,0,20
1,38,81,26
1,38,0,23
1,38,81,26
1,38,0,21
1,38,80,32
1,38,0,60
1,39,83,116
1,40,83,12
1,39,0,2
1,40,0,25
1,40,82,18
1,40,0,20
1,40,81,27
1,40,0,26
1,40,80,26
1,40,0,16
1,40,80,32
1,40,0,20
1,40,80,22
1,40,0,47
1,39,79,88
1,40,81,17
1,39,0,3
1,40,0,25
1,40,82,21
1,40,0,15
1,40,82,29
1,40,0,17
1,40,82,30
1,38,80,98
1,40,0,10
1,36,80,35
1,38,0,7
1,36,0,40
1,35,80,0
1,35,0,37
1,33,90,20
1,33,0,105
1,36,90,33
1,36,0,55
1,40,90,40
1,40,0,95
1,36,90,8
1,37,91,41
1,36,0,8
1,38,91,10
1,37,0,1
1,38,0,26
1,38,86,16
1,38,0,19
1,38,84,27
1,38,0,21
1,38,82,24
1,38,0,15
1,38,80,30
1,38,0,22
1,38,80,29
1,38,0,42
1,39,82,79
1,39,0,10
1,40,82,8
1,40,0,16
1,40,82,26
1,40,0,20
1,40,82,28
1,40,0,16
1,40,82,27
1,40,0,16
1,40,83,31
1,40,0,18
1,40,83,34
1,40,0,26
1,52,77,166
1,52,0,23
1,50,80,26
1,50,0,21
1,48,81,26
1,48,0,20
1,47,81,29
1,47,0,17
1,45,78,30
1,45,0,14
1,43,79,34
1,43,0,12
1,41,80,12
1,41,0,12
1,40,82,12
1,40,0,12
1,38,84,10
1,38,0,16
1,36,90,11
1,36,0,95
1,31,78,49
1,31,0,47
1,36,84,2
1,36,0,47
1,31,78,4
1,31,0,46
1,28,75,246
1,33,82,43
1,28,0,4
1,33,0,43
1,28,71,5
1,33,80,41
1,28,0,5
1,33,0,64
1,30,72,175
1,35,85,44
1,30,0,3
1,35,0,44
1,30,75,7
1,35,84,42
1,30,0,5
1,35,0,42
1,33,79,13
1,33,0,227
1,28,90,421
1,31,90,44
1,28,0,8
1,31,0,43
1,32,90,13
1,32,0,47
1,33,90,1
1,33,0,107
1,36,78,37
1,36,0,56
1,40,78,28
1,40,0,75
1,36,80,21
1,37,78,48
1,36,0,1
1,37,0,8
1,38,78,6
1,38,0,28
1,38,78,23
1,38,0,20
1,38,77,26
1,38,0,23
1,38,77,26
1,38,0,21
1,38,79,22
1,38,0,60
1,39,78,126
1,40,78,12
1,39,0,2
1,40,0,25
1,40,78,18
1,40,0,20
1,40,77,27
1,40,0,26
1,40,77,26
1,40,0,16
1,40,76,32
1,40,0,20
1,40,76,29
1,40,0,58
1,39,81,70
1,40,82,17
1,39,0,3
1,40,0,25
1,40,84,21
1,40,0,15
1,40,84,29
1,40,0,17
1,40,84,30
1,40,0,95
1,38,82,3
1,36,82,45
1,38,0,7
1,35,83,50
1,36,0,2
1,35,0,35
1,33,90,10
1,33,0,105
1,36,90,33
1,36,0,55
1,40,90,40
1,36,90,103
1,40,0,7
1,37,83,34
1,36,0,8
1,38,81,10
1,37,0,1
1,38,0,26
1,38,81,16
1,38,0,19
1,38,80,27
1,38,0,21
1,38,80,24
1,38,0,15
1,38,80,30
1,38,0,22
1,38,79,29
1,38,0,42
1,39,78,79
1,39,0,10
1,40,78,8
1,40,0,16
1,40,78,26
1,40,0,20
1,40,78,28
1,40,0,16
1,40,78,27
1,40,0,16
1,40,78,31
1,40,0,18
1,40,78,34
1,40,0,26
1,52,76,166
1,52,0,23
1,50,77,26
1,50,0,21
1,48,79,26
1,48,0,20
1,47,80,29
1,47,0,17
1,45,77,30
1,45,0,14
1,43,72,34
1,43,0,12
1,41,73,12
1,41,0,12
1,40,73,12
1,40,0,12
1,38,73,10
1,38,0,16
1,36,74,11
1,31,81,144
1,36,0,6
1,36,81,43
1,31,0,4
1,31,81,47
1,36,0,3
1,31,0,43
1,28,90,246
1,33,90,43
1,28,0,4
1,28,90,48
1,33,0,6
1,28,0,40
1,33,90,3
1,33,0,83
1,30,76,153
1,35,84,44
1,30,0,8
1,30,72,46
1,35,0,1
1,35,84,41
1,30,0,8
1,35,0,47
1,33,82,1
1,33,0,239
1,36,79,2057
1,36,0,143
1,35,85,58
1,35,0,138
1,31,75,1
1,38,78,98
1,31,0,2
1,38,0,129
1,38,75,151
1,38,0,59
1,36,85,2
1,36,0,100
1,35,79,86
1,35,0,134
1,31,70,13
1,31,0,77
1,38,84,9
1,38,0,185
1,38,83,105
1,38,0,35
1,36,84,20
1,36,0,100
1,35,75,83
1,35,0,150
1,31,81,0
1,37,76,95
1,31,0,5
1,38,78,6
1,37,0,2
1,38,0,24
1,38,80,19
1,38,0,16
1,38,81,27
1,38,0,16
1,38,83,34
1,38,0,14
1,38,84,35
1,38,0,28
1,38,86,18
1,38,0,19
1,38,86,29
1,38,0,19
1,36,91,24
1,36,0,100
1,38,84,0
1,38,0,26
1,36,87,14
1,36,0,31
1,35,81,21
1,31,81,131
1,35,0,6
1,31,0,94
1,38,85,15
1,38,0,26
1,38,84,20
1,38,0,16
1,38,84,29
1,38,0,20
1,38,87,28
1,38,0,15
1,38,88,33
1,38,0,21
1,36,91,106
1,36,0,100
1,36,80,56
1,36,0,58
1,35,82,8
1,35,0,119
1,31,90,13
1,38,80,99
1,31,0,1
1,38,0,27
1,38,82,19
1,38,0,17
1,38,85,28
1,38,0,17
1,38,86,26
1,38,0,16
1,38,84,38
1,38,0,32
1,33,82,14
1,33,0,59
1,36,89,45
1,36,0,131
1,35,81,49
1,35,0,95
1,31,81,13
1,31,0,107
1,38,91,25
1,38,0,177
1,50,78,21
1,50,0,20
1,50,80,20
1,50,0,11
1,50,81,14
1,50,0,12
1,50,81,12
1,50,0,11
1,50,74,34
1,50,0,8
1,36,69,44
1,35,91,147
1,36,0,8
1,35,0,120
1,31,91,10
1,31,0,78
1,38,91,19
1,38,0,100
1,38,91,3
1,38,0,44
1,45,91,6
1,45,0,9
1,50,80,40
1,50,0,14
1,50,81,11
1,50,0,14
1,50,82,17
1,50,0,13
1,50,77,18
1,50,0,15
1,50,76,22
1,50,0,10
1,50,72,21
1,50,0,13
1,36,70,16
1,36,0,143
1,35,90,7
1,35,0,112
1,31,90,26
1,31,0,82
1,38,90,9
1,38,0,100
1,44,79,0
1,45,80,14
1,44,0,1
1,45,0,21
1,45,80,21
1,45,0,21
1,43,80,23
1,43,0,18
1,41,80,13
1,41,0,21
1,38,80,3
1,38,0,110
1,36,91,23
1,36,0,95
1,35,91,49
1,35,0,119
1,31,91,27
1,31,0,91
1,38,91,3
1,49,84,187
1,38,0,2
1,50,85,7
1,49,0,1
1,48,85,38
1,50,0,9
1,45,85,37
1,48,0,6
1,43,84,19
1,45,0,6
1,41,84,17
1,43,0,5
1,41,0,23
1,38,84,3
1,38,0,23
1,36,84,1
1,36,0,143
1,35,91,12
1,35,0,119
1,31,91,16
1,31,0,91
1,38,91,3
1,49,82,187
1,38,0,2
1,50,83,7
1,49,0,1
1,48,83,38
1,50,0,9
1,45,83,37
1,48,0,6
1,43,83,19
1,45,0,6
1,41,83,17
1,43,0,5
1,41,0,23
1,38,83,3
1,38,0,23
1,36,82,1
1,36,90,102
1,36,0,18
1,36,0,23
1,35,90,6
1,35,0,115
1,31,90,21
1,31,0,70
1,38,90,28
1,38,0,100
1,37,79,88
1,38,81,13
1,37,0,1
1,38,0,20
1,37,82,32
1,37,0,9
1,38,82,0
1,38,0,29
1,37,82,25
1,38,82,14
1,37,0,1
1,38,0,23
1,36,84,23
1,36,0,100
1,36,90,63
1,36,0,11
1,35,90,20
1,35,0,94
1,31,90,15
1,31,0,78
1,38,90,12
1,38,90,10
1,38,0,174
1,38,0,3
1,38,90,50
1,36,90,48
1,38,0,11
1,35,90,41
1,36,0,8
1,35,0,13
1,33,90,28
1,50,69,181
1,52,69,31
1,50,0,5
1,52,0,42
1,55,69,1
1,57,69,24
1,55,0,6
1,33,0,20
1,57,0,45
1,45,70,25
1,47,69,32
1,45,0,3
1,47,0,140
1,52,70,16
1,52,0,33
1,54,70,4
1,54,0,47
1,57,71,1
1,57,0,23
1,59,71,1
1,59,0,55
1,52,69,17
1,40,69,63
1,40,0,20
1,52,0,17
1,40,82,10
1,40,0,26
1,40,83,26
1,40,0,16
1,40,83,32
1,40,0,20
1,40,83,29
1,40,0,58
1,40,80,87
1,40,0,28
1,40,81,21
1,40,0,15
1,40,81,29
1,40,0,17
1,40,82,30
1,40,0,83
1,38,79,15
1,36,82,45
1,38,0,7
1,36,0,40
1,35,82,0
1,35,0,37
1,33,89,9
1,33,0,83
1,50,66,124
1,52,67,17
1,50,0,9
1,55,70,36
1,52,0,7
1,57,71,12
1,55,0,10
1,45,74,32
1,57,0,22
1,45,0,2
1,47,72,29
1,38,72,23
1,47,0,24
1,38,0,3
1,38,72,16
1,38,0,19
1,38,71,27
1,38,0,21
1,38,70,24
1,38,0,15
1,38,70,30
1,38,0,22
1,38,70,29
1,38,0,42
1,40,77,90
1,40,0,48
1,40,77,1
1,40,0,20
1,40,79,28
1,40,0,16
1,40,80,27
1,40,0,16
1,40,80,31
1,40,0,18
1,40,82,34
1,40,0,26
1,52,77,169
1,52,0,23
1,50,78,25
1,50,0,21
1,48,79,25
1,48,0,20
1,47,80,26
1,47,0,17
1,45,80,29
1,45,0,14
1,43,80,31
1,43,0,12
1,41,79,19
1,41,0,12
1,40,78,14
1,40,0,12
1,38,77,10
1,38,0,16
1,36,85,8
1,31,89,144
1,36,0,6
1,36,89,43
1,31,0,4
1,31,89,47
1,36,0,3
1,31,0,43
1,28,71,246
1,28,0,35
1,33,82,8
1,28,71,52
1,33,0,6
1,33,81,35
1,28,0,5
1,33,0,90
1,30,74,145
1,30,0,47
1,35,89,1
1,35,0,47
1,30,77,1
1,30,0,47
1,35,89,1
1,35,0,47
1,33,83,1
1,33,0,215
2,57,85,112
2,57,0,42
2,55,71,7
2,55,0,45
2,57,82,7
2,57,0,27
2,55,67,6
2,55,0,44
2,59,72,5
2,62,75,95
2,59,0,4
2,62,0,33
2,62,79,14
2,62,0,18
2,64,84,24
2,64,0,47
2,62,84,0
2,62,0,38
2,64,79,18
2,64,0,29
2,64,78,25
2,64,0,111
2,57,80,896
2,57,0,39
2,55,70,12
2,55,0,36
2,57,79,6
2,57,0,32
2,55,66,7
2,55,0,36
2,59,79,13
2,62,73,92
2,59,0,3
2,62,0,28
2,62,75,24
2,62,0,22
2,64,76,28
2,62,79,46
2,64,0,4
2,62,0,25
2,64,81,11
2,64,0,29
2,64,79,32
2,64,0,80
2,67,73,6
2,67,0,71
2,64,95,94
2,62,95,57
2,64,0,1
2,62,0,26
2,64,95,16
2,64,0,49
2,62,95,0
2,62,0,44
2,64,95,6
2,64,0,51
2,62,93,1
2,62,0,26
2,64,95,24
2,62,95,92
2,64,0,7
2,62,0,33
2,59,83,5
2,59,0,39
2,64,62,8
2,62,89,54
2,64,0,7
2,62,0,36
2,64,89,4
2,64,0,42
2,62,89,5
2,62,0,47
2,64,89,2
2,62,89,4
2,64,0,11
2,62,0,36
2,62,89,1
2,62,0,59
2,57,84,35
2,57,84,2
2,55,62,41
2,57,0,1
2,57,0,2
2,55,0,44
2,57,83,3
2,57,0,47
2,55,83,1
2,55,0,47
2,59,83,0
2,59,0,92
2,62,65,0
2,62,0,33
2,62,65,24
2,62,0,26
2,64,57,22
2,62,42,47
2,64,0,4
2,62,0,34
2,64,65,15
2,64,0,34
2,64,81,22
2,64,0,100
2,55,59,849
2,57,50,40
2,55,0,3
2,57,0,42
2,55,69,7
2,55,0,33
2,57,75,10
2,57,0,35
2,55,75,15
2,55,0,35
2,59,75,13
2,62,75,98
2,59,0,3
2,62,0,32
2,62,64,13
2,62,0,35
2,64,58,17
2,64,0,51
2,62,68,0
2,62,0,33
2,64,74,12
2,64,0,28
2,64,75,25
2,64,0,81
2,67,65,26
2,67,0,119
2,64,70,672
2,62,70,46
2,64,0,6
2,62,0,21
2,64,70,19
2,62,70,47
2,64,0,4
2,62,0,25
2,64,70,11
2,64,0,48
2,62,68,8
2,62,0,26
2,64,70,28
2,62,70,93
2,64,0,7
2,59,55,45
2,62,0,1
2,59,0,31
2,64,68,13
2,62,68,49
2,64,0,5
2,64,68,41
2,62,0,1
2,64,0,35
2,64,68,19
2,62,67,82
2,64,0,8
2,62,0,159
2,59,63,2343
2,62,62,42
2,59,0,9
2,62,0,38
2,67,62,6
2,67,0,83
2,65,64,11
2,62,64,43
2,65,0,2
2,62,0,45
2,59,64,5
2,59,0,36
2,64,64,8
2,64,0,86
2,62,66,12
2,62,0,72
2,62,68,31
2,57,68,42
2,62,0,3
2,59,63,41
2,57,0,6
2,59,0,28
2,62,61,20
2,59,59,97
2,62,0,4
2,62,61,42
2,59,0,6
2,62,0,21
2,67,61,25
2,65,63,90
2,67,0,5
2,65,0,42
2,62,68,1
2,62,0,35
2,59,70,7
2,59,0,47
2,64,70,10
2,64,0,83
2,62,70,12
2,62,0,83
2,62,71,14
2,62,0,189
2,59,66,51
2,62,66,48
2,59,0,8
2,62,0,27
2,67,66,13
2,67,0,95
2,65,64,1
2,62,63,44
2,65,0,2
2,62,0,45
2,59,62,5
2,59,0,43
2,64,62,4
2,62,67,95
2,64,0,1
2,62,0,73
2,62,59,26
2,57,61,42
2,62,0,2
2,59,60,40
2,57,0,7
2,62,60,52
2,59,0,5
2,59,67,97
2,62,0,2
2,62,66,42
2,59,0,9
2,62,0,23
2,67,64,14
2,67,0,95
2,65,66,0
2,62,62,45
2,65,0,7
2,62,0,40
2,59,62,1
2,59,0,28
2,64,59,26
2,64,0,71
2,62,66,13
2,62,0,47
2,62,63,10
2,62,0,243
2,59,68,43
2,62,67,47
2,59,0,12
2,62,0,13
2,67,67,21
2,67,0,95
2,65,62,5
2,62,63,44
2,65,0,7
2,59,62,46
2,62,0,13
2,59,0,22
2,64,61,10
2,62,61,92
2,64,0,6
2,62,0,16
2,62,62,33
2,62,0,182
2,71,59,61
2,69,53,144
2,71,0,22
2,69,0,121
2,64,65,870
2,64,0,20
2,64,66,12
2,64,0,29
2,66,62,29
2,66,0,34
2,66,59,24
2,66,0,15
2,62,58,20
2,62,0,22
2,62,59,40
2,62,0,16
2,62,59,14
2,62,0,37
2,60,50,220
2,72,50,0
2,59,37,232
2,71,37,0
2,60,0,4
2,72,0,3
2,69,49,186
2,57,49,1
2,59,0,5
2,71,0,1
2,69,0,286
2,57,0,4
2,72,52,92
2,60,52,1
2,59,51,187
2,71,51,3
2,60,0,2
2,72,0,4
2,57,48,181
2,69,48,0
2,59,0,4
2,71,0,3
2,69,0,290
2,57,0,3
2,60,44,85
2,72,44,1
2,60,0,189
2,59,45,1
2,71,45,3
2,72,0,3
2,69,44,187
2,57,44,1
2,59,0,2
2,71,0,3
2,57,0,292
2,69,0,2
2,72,48,83
2,60,48,1
2,59,48,187
2,71,48,0
2,60,0,2
2,72,0,6
2,57,46,186
2,69,46,1
2,59,0,8
2,71,0,1
2,57,0,190
2,69,0,2
2,72,31,184
2,60,31,1
2,59,46,187
2,71,46,0
2,60,0,2
2,72,0,6
2,57,39,186
2,69,39,1
2,59,0,8
2,71,0,1
2,57,0,190
2,69,0,2
2,57,70,373
2,55,73,44
2,57,0,4
2,55,0,8
