track,note,velocity,time
1,74,112,7971
1,74,0,34
1,74,119,64
1,74,0,134
1,74,127,52
1,74,0,74
1,76,112,32
1,76,0,536
1,71,115,609
1,71,0,48
1,76,122,55
1,74,114,186
1,76,0,1
1,74,0,38
1,74,127,65
1,74,0,714
1,74,115,434
1,74,0,42
1,74,119,50
1,74,0,182
1,76,109,4
1,76,0,78
1,76,114,32
1,76,0,506
1,79,127,640
1,79,0,44
1,78,118,52
1,78,0,52
1,76,122,46
1,76,0,118
1,78,118,62
1,78,0,287
1,81,100,6
1,81,0,239
1,74,122,624
1,74,0,40
1,74,127,64
1,74,0,189
1,76,104,3
1,76,0,36
1,76,124,58
1,76,0,506
1,74,122,646
1,74,0,50
1,76,122,44
1,74,122,184
1,76,0,2
1,74,0,44
1,76,124,58
1,76,0,190
1,74,122,3
1,74,0,95
1,74,122,0
1,74,0,399
1,71,122,467
1,71,0,79
1,78,127,15
1,78,0,178
1,74,127,8
1,74,0,93
1,76,124,9
1,76,0,716
1,78,120,340
1,78,0,65
1,78,118,31
1,78,0,50
1,78,120,50
1,78,0,96
1,81,117,40
1,81,0,100
1,83,122,50
1,83,0,656
1,83,110,486
1,83,0,54
1,83,110,46
1,83,0,69
1,83,112,33
1,83,0,150
1,83,119,40
1,83,0,160
1,81,115,32
1,81,0,137
1,81,115,51
1,81,0,386
1,78,116,386
1,78,0,73
1,81,105,19
1,81,0,190
1,78,111,2
1,78,0,66
1,83,110,36
1,83,0,160
1,81,108,32
1,81,0,188
1,78,113,15
1,78,0,414
1,83,110,335
1,83,0,44
1,83,110,58
1,83,0,68
1,83,108,24
1,83,0,144
1,83,107,48
1,83,0,151
1,81,112,45
1,81,0,332
1,81,117,51
1,81,0,187
1,78,114,10
1,78,0,878
1,83,106,5
1,83,0,154
1,83,105,40
1,83,0,54
1,83,108,42
1,83,0,45
1,83,114,49
1,83,0,140
1,83,110,44
1,83,0,51
1,83,114,51
1,83,0,144
1,81,119,50
1,81,0,602
1,81,112,446
1,81,0,86
1,81,122,24
1,83,109,184
1,81,0,2
1,83,0,178
1,81,115,14
1,78,123,184
1,81,0,2
1,78,0,186
1,76,98,4
1,76,0,94
1,74,109,10
1,74,0,134
1,83,109,55
1,83,0,146
1,83,108,49
1,83,0,48
1,83,109,44
1,83,0,44
1,83,109,54
1,83,0,144
1,83,109,42
1,83,0,56
1,83,110,48
1,83,0,178
1,81,115,10
1,81,0,582
1,78,127,470
1,78,0,98
1,78,123,56
1,78,0,130
1,81,115,8
1,81,0,94
1,78,123,6
1,78,0,652
1,83,108,113
1,83,0,73
1,83,108,26
1,83,0,150
1,83,110,34
1,83,0,150
1,83,108,40
1,83,0,76
1,83,105,22
1,83,0,56
1,83,112,46
1,83,0,164
1,81,117,22
1,81,0,146
1,81,114,54
1,78,120,286
1,81,0,7
1,78,0,75
1,79,109,12
1,79,0,74
1,81,115,24
1,81,0,68
1,81,115,28
1,81,0,146
1,81,117,46
1,83,105,190
1,81,0,2
1,83,0,188
1,78,120,1
1,78,0,149
1,76,119,4
1,76,0,54
1,74,105,2
1,74,0,284
1,83,117,374
1,83,0,144
1,83,114,46
1,83,0,56
1,83,109,40
1,83,0,50
1,83,112,50
1,83,0,140
1,83,110,50
1,83,0,44
1,83,112,52
1,83,0,185
1,81,117,1
1,81,0,262
1,78,127,36
1,78,0,100
1,78,127,54
1,78,0,134
1,81,105,4
1,81,0,112
1,78,114,4
1,78,0,40
1,76,90,8
1,78,103,42
1,76,0,10
1,78,0,732
1,71,117,89
1,71,0,81
1,78,127,15
1,78,0,182
1,74,110,12
1,74,0,81
1,76,112,15
1,76,0,632
1,74,103,522
1,74,0,26
1,76,124,68
1,76,0,183
1,74,114,9
1,74,0,40
1,76,124,54
1,74,127,188
1,76,0,2
1,74,0,148
1,74,115,50
1,74,0,351
1,74,117,409
1,74,0,30
1,78,127,74
1,78,0,178
1,74,117,10
1,74,0,60
1,76,124,36
1,76,0,600
1,79,124,542
1,79,0,73
1,78,116,27
1,78,0,78
1,76,119,23
1,76,0,127
1,78,114,62
1,81,100,289
1,78,0,3
1,81,0,428
1,71,117,428
1,71,0,94
1,78,120,10
1,78,0,177
1,74,127,9
1,74,0,72
1,76,114,26
1,76,0,538
1,74,122,614
1,74,0,40
1,76,119,64
1,76,0,178
1,74,112,4
1,74,0,40
1,76,117,62
1,76,0,180
1,74,112,4
1,74,0,58
1,74,117,50
1,74,0,420
1,71,114,440
1,71,0,88
1,78,123,4
1,78,0,190
1,74,124,8
1,74,0,78
1,76,115,18
1,76,0,799
1,78,123,249
1,78,0,76
1,78,116,28
1,78,0,60
1,78,116,40
1,78,0,99
1,81,122,37
1,81,0,114
1,83,127,32
1,83,0,686
1,83,114,83
1,83,0,64
1,83,112,40
1,83,0,68
1,83,105,28
1,83,0,160
1,83,110,30
1,81,108,192
1,83,0,9
1,81,0,153
1,81,109,26
1,81,0,418
1,78,113,354
1,78,0,88
1,81,105,10
1,78,113,194
1,81,0,8
1,78,0,90
1,83,107,0
1,83,0,164
1,81,112,18
1,78,118,190
1,81,0,1
1,78,0,145
1,76,95,0
1,76,0,48
1,74,100,14
1,74,0,286
1,83,104,280
1,83,0,55
1,83,101,43
1,83,0,56
1,83,105,46
1,83,0,136
1,83,104,50
1,83,0,180
1,81,110,18
1,78,114,290
1,81,0,2
1,78,0,63
1,78,127,69
1,81,101,146
1,78,0,14
1,81,0,78
1,78,110,6
1,78,0,40
1,76,93,4
1,78,116,47
1,76,0,9
1,78,0,755
1,83,114,681
1,83,0,133
1,83,109,49
1,83,0,58
1,83,108,46
1,83,0,42
1,83,115,56
1,83,0,138
1,83,105,50
1,83,0,44
1,83,112,54
1,83,0,174
1,81,117,18
1,81,0,504
1,81,115,552
1,81,0,98
1,81,114,50
1,83,105,138
1,81,0,1
1,78,114,101
1,83,0,2
1,78,0,182
1,76,105,6
1,76,0,68
1,74,115,26
1,74,0,372
1,83,119,106
1,83,0,146
1,83,112,48
1,83,0,60
1,83,108,36
1,83,0,48
1,83,115,50
1,83,0,139
1,83,106,51
1,83,0,50
1,83,114,54
1,83,0,167
1,81,115,19
1,78,116,288
1,81,0,7
1,78,0,87
1,78,127,50
1,81,107,140
1,78,0,1
1,78,103,107
1,81,0,2
1,78,0,38
1,76,90,8
1,78,111,38
1,76,0,10
1,78,0,1010
1,83,108,2
1,83,0,155
1,83,103,36
1,83,0,62
1,83,107,36
1,83,0,148
1,83,110,36
1,83,0,149
1,83,107,41
1,81,109,200
1,83,0,2
1,81,0,138
1,81,110,54
1,78,116,382
1,81,0,8
1,78,0,31
1,79,110,9
1,79,0,34
1,81,114,15
1,81,0,55
1,81,119,36
1,81,0,198
1,83,108,4
1,83,0,146
1,81,127,42
1,81,0,164
1,74,122,30
1,74,0,658
1,83,115,203
1,83,0,149
1,83,106,42
1,83,0,52
1,83,105,40
1,83,0,44
1,83,117,60
1,83,0,134
1,83,104,54
1,83,0,36
1,83,112,62
1,83,0,176
1,81,107,14
1,78,118,284
1,81,0,2
1,78,0,96
1,78,123,56
1,78,0,138
1,81,106,4
1,81,0,107
1,78,114,5
1,76,99,52
1,78,0,1
1,78,108,47
1,76,0,16
1,78,0,914
1,83,108,492
1,83,0,146
1,83,103,36
1,83,0,58
1,83,106,44
1,83,0,140
1,83,101,49
1,83,0,53
1,83,102,44
1,83,0,48
1,83,110,50
1,83,0,168
1,81,114,22
1,81,0,144
1,81,110,50
1,78,112,378
1,81,0,10
1,78,0,32
1,79,105,4
1,79,0,38
1,81,114,12
1,81,0,158
1,81,112,40
1,78,103,94
1,81,0,2
1,78,0,44
1,81,114,50
1,81,0,94
1,83,108,6
1,83,0,168
1,74,127,20
1,74,0,680
1,83,115,188
1,83,0,142
1,83,109,46
1,83,0,52
1,83,109,46
1,83,0,42
1,83,114,54
1,83,0,136
1,83,110,54
1,83,0,48
1,83,114,54
1,83,0,177
1,81,114,11
1,78,123,286
1,81,0,7
1,78,0,87
1,78,127,54
1,81,101,142
1,78,0,1
1,78,120,97
1,81,0,2
1,78,0,44
1,76,102,2
1,78,123,48
1,76,0,10
1,78,0,1056
2,66,105,5
2,71,97,0
2,69,97,98
2,71,0,8
2,71,85,83
2,69,0,15
2,66,0,148
2,71,0,377
2,76,118,7
2,76,0,21
2,78,99,5
2,78,0,27
2,76,92,7
2,76,0,30
2,74,92,2
2,74,0,26
2,76,86,2
2,76,0,28
2,74,95,2
2,74,0,34
2,71,102,6
2,71,0,26
2,74,96,2
2,74,0,19
2,71,90,0
2,71,0,26
2,69,87,2
2,69,0,29
2,71,90,1
2,71,0,10
2,69,88,3
2,69,0,20
2,66,110,10
2,66,0,34
2,69,99,6
2,66,100,24
2,69,0,8
2,66,0,19
2,64,90,2
2,66,103,36
2,64,0,8
2,66,0,22
2,64,86,4
2,64,0,1
2,62,101,10
2,62,0,398
2,66,89,3
2,66,0,227
2,67,97,53
2,67,0,58
2,66,105,42
2,66,0,58
2,64,93,44
2,64,0,140
2,66,103,49
2,69,104,101
2,66,0,2
2,69,0,172
2,67,102,15
2,67,0,185
2,66,101,4
2,66,0,181
2,74,109,110
2,74,0,650
2,61,97,15
2,57,94,6
2,57,0,156
2,61,0,6
2,64,92,30
2,61,105,0
2,61,0,186
2,64,0,2
2,62,96,4
2,66,103,0
2,66,0,74
2,62,0,13
2,64,85,8
2,61,100,1
2,61,0,611
2,64,0,24
2,64,109,21
2,62,104,42
2,64,0,2
2,64,106,48
2,62,0,8
2,66,114,92
2,64,0,10
2,64,111,84
2,66,0,18
2,62,111,80
2,64,0,1
2,62,0,525
2,66,99,117
2,62,86,8
2,62,0,242
2,66,0,18
2,67,94,22
2,64,96,0
2,64,0,64
2,67,0,1
2,66,99,22
2,62,92,0
2,62,0,52
2,66,0,0
2,61,110,51
2,64,102,0
2,61,0,129
2,64,0,10
2,62,84,49
2,66,107,1
2,62,0,162
2,66,0,1
2,66,103,22
2,69,101,3
2,69,0,171
2,66,0,0
2,67,93,14
2,64,101,0
2,67,0,6
2,64,0,6
2,66,101,9
2,62,96,0
2,62,0,105
2,66,0,0
2,71,114,110
2,71,0,615
2,54,100,69
2,57,97,8
2,57,0,58
2,54,0,27
2,57,92,5
2,61,97,0
2,57,0,94
2,61,0,12
2,61,101,26
2,64,94,0
2,61,0,122
2,64,0,6
2,66,99,22
2,61,105,0
2,61,0,45
2,66,0,10
2,61,95,15
2,64,92,9
2,61,0,628
2,64,0,28
2,64,104,177
2,64,0,38
2,62,97,4
2,64,97,44
2,62,0,10
2,64,0,82
2,57,102,45
2,61,114,102
2,57,0,70
2,64,92,20
2,61,0,16
2,71,96,82
2,64,0,553
2,71,0,4
2,66,101,62
2,71,97,8
2,71,0,25
2,69,101,16
2,69,0,97
2,71,96,3
2,71,0,309
2,66,0,47
2,57,106,4
2,61,118,92
2,64,91,100
2,57,0,16
2,61,0,622
2,64,0,123
2,64,104,270
2,64,0,48
2,62,102,4
2,62,0,38
2,64,111,4
2,66,100,90
2,64,0,10
2,64,106,90
2,66,0,14
2,64,0,78
2,62,111,4
2,59,109,47
2,62,0,2
2,59,0,187
2,66,103,1198
2,71,94,2
2,71,0,26
2,69,94,19
2,69,0,98
2,71,92,4
2,59,99,474
2,71,0,8
2,71,99,90
2,71,0,84
2,69,93,12
2,71,91,94
2,69,0,18
2,59,0,14
2,66,0,164
2,71,0,0
3,71,116,49735
3,74,116,44
3,71,0,10
3,76,116,38
3,74,0,2
3,76,0,44
3,71,116,8
3,71,0,290
3,71,116,176
3,69,116,196
3,71,0,3
3,71,116,45
3,69,0,2
3,71,0,40
3,69,111,4
3,69,0,264
3,66,116,120
3,66,0,90
3,64,116,2
3,64,0,59
3,64,116,43
3,64,0,92
3,66,101,0
3,66,0,40
3,64,98,4
3,64,0,266
3,76,116,268
3,74,99,108
3,76,0,1
3,71,90,35
3,74,0,1
3,71,0,39
3,76,116,200
3,73,116,98
3,76,0,12
3,73,0,82
3,74,105,8
3,74,0,370
3,74,116,0
3,74,0,104
3,78,116,4
3,76,116,98
3,78,0,4
3,76,0,38
3,78,116,0
3,78,0,42
3,76,116,0
3,76,0,479
3,71,116,3
3,71,0,84
3,76,116,20
3,76,0,88
3,78,116,2
3,78,0,76
3,78,116,18
3,78,0,94
3,79,116,6
3,79,0,84
3,79,113,10
3,79,0,191
3,81,116,7
3,81,0,88
3,78,110,8
3,78,0,546
3,78,109,26
3,78,0,48
3,83,100,2
3,85,104,46
3,83,0,16
3,83,93,26
3,85,0,14
3,78,106,44
3,83,0,5
3,76,91,35
3,78,0,1
3,76,0,45
3,78,110,6
3,78,0,45
3,76,94,3
3,76,0,50
3,73,114,4
3,73,0,42
3,76,89,10
3,73,107,42
3,76,0,7
3,73,0,31
3,71,93,4
3,73,112,50
3,71,0,2
3,71,94,44
3,73,0,2
3,71,0,38
3,66,114,10
3,66,0,50
3,71,87,4
3,66,107,42
3,71,0,10
3,66,0,36
3,64,97,4
3,66,110,52
3,64,0,2
3,66,0,34
3,64,98,8
3,64,0,30
3,59,106,14
3,59,0,111
3,64,116,99
3,66,116,48
3,64,0,18
3,69,99,26
3,66,0,10
3,71,110,50
3,69,0,7
3,71,0,49
3,73,116,38
3,73,0,48
3,76,113,48
3,73,116,44
3,76,0,8
3,73,0,246
3,78,108,20
3,78,0,4
3,74,88,2429
3,76,106,23
3,74,0,5
3,74,97,285
3,76,0,2
3,74,0,362
3,83,116,0
3,81,116,492
3,83,0,2
3,78,110,38
3,81,0,10
3,78,0,38
3,76,100,4
3,78,103,50
3,76,0,10
3,78,0,30
3,76,93,0
3,73,112,52
3,76,0,8
3,73,0,44
3,71,110,8
3,71,0,60
3,78,98,2708
3,78,0,2
3,76,116,1870
3,73,108,54
3,76,0,1
3,73,0,325
3,71,116,4
3,71,0,48
3,69,101,0
3,71,94,48
3,69,0,2
3,71,0,3
3,71,116,1164
3,71,0,48
3,73,116,4
3,73,0,52
3,74,115,42
3,74,0,57
3,76,116,41
3,76,0,54
3,78,116,38
3,78,0,40
3,81,108,2
3,81,0,584
3,81,82,6
3,81,0,10
3,64,116,2868
3,66,112,42
3,64,0,14
3,69,98,28
3,66,0,1
3,69,0,51
3,71,110,0
3,71,0,56
3,73,116,48
3,73,0,44
3,76,115,54
3,73,116,90
3,76,0,1
3,73,0,417
3,76,91,8
3,78,114,104
3,76,0,1
3,78,0,87
3,76,102,0
3,80,80,98
3,76,0,2
3,80,0,591
4,67,70,769
4,71,70,1
4,74,70,0
4,74,0,11
4,71,0,0
4,67,0,1
4,74,70,83
4,67,70,0
4,71,70,0
4,71,0,8
4,67,0,0
4,74,0,0
4,74,70,88
4,71,70,0
4,67,70,1
4,71,0,9
4,74,0,0
4,67,0,2
4,71,70,84
4,74,70,0
4,67,70,0
4,74,0,9
4,67,0,1
4,71,0,0
4,67,70,86
4,71,70,1
4,74,70,0
4,74,0,9
4,71,0,1
4,67,0,0
4,71,70,85
4,67,70,0
4,74,70,0
4,74,0,7
4,67,0,0
4,71,0,2
4,67,70,87
4,71,70,0
4,74,70,0
4,71,0,11
4,67,0,0
4,74,0,1
4,74,70,84
4,71,70,0
4,67,70,0
4,67,0,8
4,71,0,4
4,74,0,3
4,73,70,82
4,76,70,0
4,69,70,0
4,73,0,10
4,69,0,1
4,76,0,0
4,69,70,84
4,76,70,0
4,73,70,0
4,73,0,10
4,69,0,0
4,76,0,2
4,76,70,84
4,69,70,0
4,73,70,1
4,73,0,10
4,69,0,0
4,76,0,1
4,69,70,84
4,76,70,0
4,73,70,0
4,73,0,10
4,76,0,1
4,69,0,1
4,76,70,84
4,69,70,1
4,73,70,0
4,73,0,9
4,76,0,1
4,69,0,1
4,69,70,84
4,76,70,0
4,73,70,0
4,73,0,9
4,76,0,1
4,69,0,0
4,73,70,86
4,76,70,0
4,69,70,1
4,76,0,9
4,73,0,0
4,69,0,2
4,69,70,84
4,76,70,0
4,73,70,0
4,73,0,9
