track,note,velocity,time
1,79,118,31555
1,83,127,0
1,86,100,2
1,74,127,0
1,67,127,0
1,71,127,0
1,74,0,31
1,71,0,2
1,67,0,3
1,79,0,5
1,83,0,0
1,86,0,2
1,86,60,2963
1,81,60,0
1,86,0,17
1,81,0,1
1,81,64,10
1,86,64,1
1,86,0,17
1,81,0,2
1,79,68,9
1,74,68,1
1,79,0,18
1,74,0,1
1,79,72,8
1,74,72,1
1,74,0,22
1,79,0,0
1,81,77,10
1,86,77,1
1,86,0,16
1,81,0,2
1,81,81,12
1,86,82,2
1,86,0,18
1,81,0,2
1,79,86,11
1,74,86,0
1,79,0,16
1,74,0,4
1,74,89,4
1,79,90,1
1,79,0,21
1,74,0,2
1,81,94,8
1,86,94,2
1,86,0,16
1,81,0,2
1,81,98,8
1,86,98,2
1,86,0,17
1,81,0,2
1,79,103,12
1,74,103,0
1,79,0,17
1,79,106,8
1,79,0,19
1,74,0,2
1,81,111,12
1,86,111,1
1,86,0,17
1,81,0,1
1,81,115,11
1,86,116,2
1,81,0,18
1,86,0,1
1,79,120,9
1,74,120,1
1,79,0,14
1,74,0,2
1,79,123,9
1,74,123,0
1,74,0,18
1,79,0,1
1,79,118,370
1,83,127,0
1,86,100,2
1,74,127,0
1,67,127,0
1,71,127,0
1,74,0,31
1,71,0,2
1,67,0,3
1,79,0,5
1,83,0,0
1,86,0,2
1,86,60,2963
1,81,60,0
1,86,0,17
1,81,0,1
1,81,64,10
1,86,64,1
1,86,0,17
1,81,0,2
1,79,68,9
1,74,68,1
1,79,0,18
1,74,0,1
1,79,72,8
1,74,72,1
1,74,0,22
1,79,0,0
1,81,77,10
1,86,77,1
1,86,0,16
1,81,0,2
1,81,81,12
1,86,82,2
1,86,0,18
1,81,0,2
1,79,86,11
1,74,86,0
1,79,0,16
1,74,0,4
1,74,89,4
1,79,90,1
1,79,0,21
1,74,0,2
1,81,94,8
1,86,94,2
1,86,0,16
1,81,0,2
1,81,98,8
1,86,98,2
1,86,0,17
1,81,0,2
1,79,103,12
1,74,103,0
1,79,0,17
1,79,106,8
1,79,0,19
1,74,0,2
1,81,111,12
1,86,111,1
1,86,0,17
1,81,0,1
1,81,115,11
1,86,116,2
1,81,0,18
1,86,0,1
1,79,120,9
1,74,120,1
1,79,0,14
1,74,0,2
1,79,123,9
1,74,123,0
1,74,0,18
1,79,0,1
1,79,118,370
1,83,127,0
1,86,100,2
1,74,127,0
1,67,127,0
1,71,127,0
1,74,0,31
1,71,0,2
1,67,0,3
1,79,0,5
1,83,0,0
1,86,0,2
1,86,60,2963
1,81,60,0
1,86,0,17
1,81,0,1
1,81,64,10
1,86,64,1
1,86,0,17
1,81,0,2
1,79,68,9
1,74,68,1
1,79,0,18
1,74,0,1
1,79,72,8
1,74,72,1
1,74,0,22
1,79,0,0
1,81,77,10
1,86,77,1
1,86,0,16
1,81,0,2
1,81,81,12
1,86,82,2
1,86,0,18
1,81,0,2
1,79,86,11
1,74,86,0
1,79,0,16
1,74,0,4
1,74,89,4
1,79,90,1
1,79,0,21
1,74,0,2
1,81,94,8
1,86,94,2
1,86,0,16
1,81,0,2
1,81,98,8
1,86,98,2
1,86,0,17
1,81,0,2
1,79,103,12
1,74,103,0
1,79,0,17
1,79,106,8
1,79,0,19
1,74,0,2
1,81,111,12
1,86,111,1
1,86,0,17
1,81,0,1
1,81,115,11
1,86,116,2
1,81,0,18
1,86,0,1
1,79,120,9
1,74,120,1
1,79,0,14
1,74,0,2
1,79,123,9
1,74,123,0
1,74,0,18
1,79,0,1
1,79,118,370
1,83,127,0
1,86,100,2
1,74,127,0
1,67,127,0
1,71,127,0
1,74,0,31
1,71,0,2
1,67,0,3
1,79,0,5
1,83,0,0
1,86,0,2
1,86,60,2963
1,81,60,0
1,86,0,17
1,81,0,1
1,81,64,10
1,86,64,1
1,86,0,17
1,81,0,2
1,79,68,9
1,74,68,1
1,79,0,18
1,74,0,1
1,79,72,8
1,74,72,1
1,74,0,22
1,79,0,0
1,81,77,10
1,86,77,1
1,86,0,16
1,81,0,2
1,81,81,12
1,86,82,2
1,86,0,18
1,81,0,2
1,79,86,11
1,74,86,0
1,79,0,16
1,74,0,4
1,74,89,4
1,79,90,1
1,79,0,21
1,74,0,2
1,81,94,8
1,86,94,2
1,86,0,16
1,81,0,2
1,81,98,8
1,86,98,2
1,86,0,17
1,81,0,2
1,79,103,12
1,74,103,0
1,79,0,17
1,79,106,8
1,79,0,19
1,74,0,2
1,81,111,12
1,86,111,1
1,86,0,17
1,81,0,1
1,81,115,11
1,86,116,2
1,81,0,18
1,86,0,1
1,79,120,9
1,74,120,1
1,79,0,14
1,74,0,2
1,79,123,9
1,74,123,0
1,74,0,18
1,79,0,1
1,79,118,370
1,83,127,0
1,86,100,2
1,74,127,0
1,67,127,0
1,71,127,0
1,74,0,31
1,71,0,2
1,67,0,3
1,79,0,5
1,83,0,0
1,86,0,2
1,86,60,2963
1,81,60,0
1,86,0,17
1,81,0,1
1,81,64,10
1,86,64,1
1,86,0,17
1,81,0,2
1,79,68,9
1,74,68,1
1,79,0,18
1,74,0,1
1,79,72,8
1,74,72,1
1,74,0,22
1,79,0,0
1,81,77,10
1,86,77,1
1,86,0,16
1,81,0,2
1,81,81,12
1,86,82,2
1,86,0,18
1,81,0,2
1,79,86,11
1,74,86,0
1,79,0,16
1,74,0,4
1,74,89,4
1,79,90,1
1,79,0,21
1,74,0,2
1,81,94,8
1,86,94,2
1,86,0,16
1,81,0,2
1,81,98,8
1,86,98,2
1,86,0,17
1,81,0,2
1,79,103,12
1,74,103,0
1,79,0,17
1,79,106,8
1,79,0,19
1,74,0,2
1,81,111,12
1,86,111,1
1,86,0,17
1,81,0,1
1,81,115,11
1,86,116,2
1,81,0,18
1,86,0,1
1,79,120,9
1,74,120,1
1,79,0,14
1,74,0,2
1,79,123,9
1,74,123,0
1,74,0,18
1,79,0,1
1,79,118,370
1,83,127,0
1,86,100,2
1,74,127,0
1,67,127,0
1,71,127,0
1,74,0,31
1,71,0,2
1,67,0,3
1,79,0,5
1,83,0,0
1,86,0,2
1,86,60,2963
1,81,60,0
1,86,0,17
1,81,0,1
1,81,64,10
1,86,64,1
1,86,0,17
1,81,0,2
1,79,68,9
1,74,68,1
1,79,0,18
1,74,0,1
1,79,72,8
1,74,72,1
1,74,0,22
1,79,0,0
1,81,77,10
1,86,77,1
1,86,0,16
1,81,0,2
1,81,81,12
1,86,82,2
1,86,0,18
1,81,0,2
1,79,86,11
1,74,86,0
1,79,0,16
1,74,0,4
1,74,89,4
1,79,90,1
1,79,0,21
1,74,0,2
1,81,94,8
1,86,94,2
1,86,0,16
1,81,0,2
1,81,98,8
1,86,98,2
1,86,0,17
1,81,0,2
1,79,103,12
1,74,103,0
1,79,0,17
1,79,106,8
1,79,0,19
1,74,0,2
1,81,111,12
1,86,111,1
1,86,0,17
1,81,0,1
1,81,115,11
1,86,116,2
1,81,0,18
1,86,0,1
1,79,120,9
1,74,120,1
1,79,0,14
1,74,0,2
1,79,123,9
1,74,123,0
1,74,0,18
1,79,0,1
2,43,124,5
2,40,113,475
2,43,0,15
2,36,113,464
2,40,0,3
2,48,98,352
2,36,0,8
2,39,109,114
2,48,0,3
2,41,114,241
2,39,0,1
2,41,0,232
2,43,124,12
2,40,113,475
2,43,0,15
2,36,113,464
2,40,0,3
2,48,98,352
2,36,0,8
2,48,0,117
2,39,98,4
2,51,89,230
2,39,0,7
2,39,80,238
2,51,0,5
2,41,101,237
2,39,0,9
2,41,0,234
2,43,94,1917
2,43,0,129
2,43,101,45
2,43,0,33
2,50,88,208
2,55,80,35
2,50,0,7
2,43,94,17
2,55,0,6
2,43,0,119
2,43,107,54
2,43,0,218
2,43,89,29
2,45,89,28
2,43,0,10
2,45,0,12
2,46,103,5
2,46,0,146
2,46,101,37
2,46,0,243
2,46,105,62
2,46,0,135
2,46,105,36
2,37,96,245
2,46,0,0
2,36,109,59
2,37,0,7
2,36,0,114
2,36,103,58
2,36,0,267
2,48,105,38
2,48,0,142
2,48,103,27
2,48,0,172
2,48,89,60
2,51,98,74
2,48,0,4
2,51,0,133
2,51,101,35
2,51,0,47
2,51,109,18
2,39,105,188
2,51,0,2
2,39,0,55
2,41,82,1
2,41,0,125
2,41,100,51
2,53,103,182
2,41,0,4
2,53,0,71
2,38,103,48
2,38,0,120
2,50,111,8
2,50,0,29
2,38,38,267
2,38,0,11
2,38,100,44
2,38,0,63
2,38,105,33
2,50,101,29
2,38,0,4
2,50,0,28
2,50,101,271
2,41,105,55
2,50,0,3
2,41,0,69
2,41,101,24
2,53,105,26
2,41,0,5
2,53,0,25
2,41,88,267
2,41,0,33
2,41,96,26
2,41,0,100
2,41,101,14
2,53,101,22
2,41,0,8
2,53,0,33
2,53,85,228
2,53,0,53
2,40,113,15
2,40,0,66
2,40,94,34
2,52,101,27
2,40,0,6
2,52,0,44
2,52,81,239
2,40,88,63
2,52,0,2
2,40,0,69
2,40,85,31
2,52,96,29
2,40,0,2
2,52,0,60
2,52,98,230
2,52,0,51
2,39,113,13
2,39,0,85
2,39,96,22
2,39,0,38
2,51,86,275
2,41,90,58
2,51,0,2
2,41,0,74
2,41,92,29
2,41,0,34
2,53,64,289
2,53,0,35
2,43,127,30
2,43,0,120
2,43,111,87
2,43,0,18
2,43,86,3
2,43,0,213
2,55,105,1
2,55,0,19
2,40,118,8
2,40,0,150
2,40,109,61
2,40,0,14
2,40,114,8
2,52,101,215
2,40,0,4
2,52,0,12
2,36,114,10
2,36,0,146
2,36,101,65
2,48,94,246
2,36,0,5
2,48,0,19
2,39,105,2
2,39,0,137
2,39,98,78
2,39,0,22
2,40,83,3
2,41,98,2
2,40,0,25
2,41,0,95
2,41,113,98
2,43,127,34
2,41,0,2
2,43,0,118
2,43,111,87
2,43,0,18
2,43,86,3
2,43,0,213
2,55,105,1
2,55,0,19
2,40,118,8
2,40,0,150
2,40,109,61
2,40,0,14
2,40,114,8
2,52,101,215
2,40,0,4
2,52,0,12
2,36,114,10
2,36,0,146
2,36,101,65
2,48,94,246
2,36,0,5
2,48,0,19
2,39,105,2
2,39,0,137
2,39,98,78
2,39,0,22
2,40,83,3
2,41,98,2
2,40,0,25
2,41,0,95
2,41,113,98
2,41,0,36
2,43,94,1907
2,43,0,129
2,43,101,45
2,43,0,33
2,50,88,208
2,55,80,35
2,50,0,7
2,43,94,17
2,55,0,6
2,43,0,119
2,43,107,54
2,43,0,218
2,43,89,29
2,45,89,28
2,43,0,10
2,45,0,12
2,46,103,5
2,46,0,146
2,46,101,37
2,46,0,243
2,46,105,62
2,46,0,135
2,46,105,36
2,37,96,245
2,46,0,0
2,36,109,59
2,37,0,7
2,36,0,114
2,36,103,58
2,36,0,267
2,48,105,38
2,48,0,142
2,48,103,27
2,48,0,172
2,48,89,60
2,51,98,74
2,48,0,4
2,51,0,133
2,51,101,35
2,51,0,47
2,51,109,18
2,39,105,188
2,51,0,2
2,39,0,55
2,41,82,1
2,41,0,125
2,41,100,51
2,53,103,182
2,41,0,4
2,53,0,71
2,38,103,48
2,38,0,120
2,50,111,8
2,50,0,29
2,38,38,267
2,38,0,11
2,38,100,44
2,38,0,63
2,38,105,33
2,50,101,29
2,38,0,4
2,50,0,28
2,50,101,271
2,41,105,55
2,50,0,3
2,41,0,69
2,41,101,24
2,53,105,26
2,41,0,5
2,53,0,25
2,41,88,267
2,41,0,33
2,41,96,26
2,41,0,100
2,41,101,14
2,53,101,22
2,41,0,8
2,53,0,33
2,53,85,228
2,53,0,53
2,40,113,15
2,40,0,66
2,40,94,34
2,52,101,27
2,40,0,6
2,52,0,44
2,52,81,239
2,40,88,63
2,52,0,2
2,40,0,69
2,40,85,31
2,52,96,29
2,40,0,2
2,52,0,60
2,52,98,230
2,52,0,51
2,39,113,13
2,39,0,85
2,39,96,22
2,39,0,38
2,51,86,275
2,41,90,58
2,51,0,2
2,41,0,74
2,41,92,29
2,41,0,34
2,53,64,289
2,53,0,35
2,38,103,20
2,38,0,120
2,50,111,8
2,50,0,29
2,38,38,267
2,38,0,11
2,38,100,44
2,38,0,63
2,38,105,33
2,50,101,29
2,38,0,4
2,50,0,28
2,50,101,271
2,41,105,55
2,50,0,3
2,41,0,69
2,41,101,24
2,53,105,26
2,41,0,5
2,53,0,25
2,41,88,267
2,41,0,33
2,41,96,26
2,41,0,100
2,41,101,14
2,53,101,22
2,41,0,8
2,53,0,33
2,53,85,228
2,53,0,53
2,40,113,15
2,40,0,66
2,40,94,34
2,52,101,27
2,40,0,6
2,52,0,44
2,52,81,239
2,40,88,63
2,52,0,2
2,40,0,69
2,40,85,31
2,52,96,29
2,40,0,2
2,52,0,60
2,52,98,230
2,52,0,51
2,39,113,13
2,39,0,85
2,39,96,22
2,39,0,38
2,51,86,275
2,41,90,58
2,51,0,2
2,41,0,74
2,41,92,29
2,41,0,34
2,53,64,289
2,53,0,35
2,43,127,30
2,43,0,120
2,43,111,87
2,43,0,18
2,43,86,3
2,43,0,213
2,55,105,1
2,55,0,19
2,40,118,8
2,40,0,150
2,40,109,61
2,40,0,14
2,40,114,8
2,52,101,215
2,40,0,4
2,52,0,12
2,36,114,10
2,36,0,146
2,36,101,65
2,48,94,246
2,36,0,5
2,48,0,19
2,39,105,2
2,39,0,137
2,39,98,78
2,39,0,22
2,40,83,3
2,41,98,2
2,40,0,25
2,41,0,95
2,41,113,98
2,43,127,34
2,41,0,2
2,43,0,118
2,43,111,87
2,43,0,18
2,43,86,3
2,43,0,213
2,55,105,1
2,55,0,19
2,40,118,8
2,40,0,150
2,40,109,61
2,40,0,14
2,40,114,8
2,52,101,215
2,40,0,4
2,52,0,12
2,36,114,10
2,36,0,146
2,36,101,65
2,48,94,246
2,36,0,5
2,48,0,19
2,39,105,2
2,39,0,137
2,39,98,78
2,39,0,22
2,40,83,3
2,41,98,2
2,40,0,25
2,41,0,95
2,41,113,98
2,43,127,34
2,41,0,2
2,43,0,118
2,43,111,87
2,43,0,18
2,43,86,3
2,43,0,213
2,55,105,1
2,55,0,19
2,40,118,8
2,40,0,150
2,40,109,61
2,40,0,14
2,40,114,8
2,52,101,215
2,40,0,4
2,52,0,12
2,36,114,10
2,36,0,146
2,36,101,65
2,48,94,246
2,36,0,5
2,48,0,19
2,39,105,2
2,39,0,137
2,39,98,78
2,39,0,22
2,40,83,3
2,41,98,2
2,40,0,25
2,41,0,95
2,41,113,98
2,43,127,34
2,41,0,2
2,43,0,118
2,43,111,87
2,43,0,18
2,43,86,3
2,43,0,213
2,55,105,1
2,55,0,19
2,40,118,8
2,40,0,150
2,40,109,61
2,40,0,14
2,40,114,8
2,52,101,215
2,40,0,4
2,52,0,12
2,36,114,10
2,36,0,146
2,36,101,65
2,48,94,246
2,36,0,5
2,48,0,19
2,39,105,2
2,39,0,137
2,39,98,78
2,39,0,22
2,40,83,3
2,41,98,2
2,40,0,25
2,41,0,95
2,41,113,98
2,43,127,34
2,41,0,2
2,43,0,118
2,43,111,87
2,43,0,18
2,43,86,3
2,43,0,213
2,55,105,1
2,55,0,19
2,40,118,8
2,40,0,150
2,40,109,61
2,40,0,14
2,40,114,8
2,52,101,215
2,40,0,4
2,52,0,12
2,36,114,10
2,36,0,146
2,36,101,65
2,48,94,246
2,36,0,5
2,48,0,19
2,39,105,2
2,39,0,137
2,39,98,78
2,39,0,22
2,40,83,3
2,41,98,2
2,40,0,25
2,41,0,95
2,41,113,98
2,43,127,34
2,41,0,2
2,43,0,118
2,43,111,87
2,43,0,18
2,43,86,3
2,43,0,213
2,55,105,1
2,55,0,19
2,40,118,8
2,40,0,150
2,40,109,61
2,40,0,14
2,40,114,8
2,52,101,215
2,40,0,4
2,52,0,12
2,36,114,10
2,36,0,146
2,36,101,65
2,48,94,246
2,36,0,5
2,48,0,19
2,39,105,2
2,39,0,137
2,39,98,78
2,39,0,22
2,40,83,3
2,41,98,2
2,40,0,25
2,41,0,95
