track,note,velocity,time
1,72,114,28
1,76,114,4
1,74,116,6
1,77,100,4
1,76,101,10
1,79,98,2
1,76,113,32
1,79,116,2
1,77,98,384
1,74,116,8
1,76,122,37886
1,72,114,2
1,77,109,68
1,74,114,2
1,76,113,2
1,79,103,6
1,76,111,38
1,79,111,0
1,77,96,6
1,74,101,4
1,76,122,4078
1,72,114,2
1,77,109,68
1,74,114,2
1,76,113,2
1,79,103,6
1,76,111,38
1,79,111,0
1,77,96,6
1,74,101,4
1,76,122,4078
1,72,114,2
1,77,109,68
1,74,114,2
1,76,113,2
1,79,103,6
1,76,111,38
1,79,111,0
1,77,96,6
1,74,101,4
1,76,122,4078
1,72,114,2
1,77,109,68
1,74,114,2
1,76,113,2
1,79,103,6
1,76,111,38
1,79,111,0
1,77,96,6
1,74,101,4
1,76,122,79342
1,72,114,2
1,77,109,68
1,74,114,2
1,76,113,2
1,79,103,6
1,76,111,38
1,79,111,0
1,77,96,6
1,74,101,4
1,76,122,4078
1,72,114,2
1,77,109,68
1,74,114,2
1,76,113,2
1,79,103,6
1,76,111,38
1,79,111,0
1,77,96,6
1,74,101,4
1,76,122,4078
1,72,114,2
1,77,109,68
1,74,114,2
1,76,113,2
1,79,103,6
1,76,111,38
1,79,111,0
1,77,96,6
1,74,101,4
1,76,122,4078
1,72,114,2
1,77,109,68
1,74,114,2
1,76,113,2
1,79,103,6
1,76,111,38
1,79,111,0
1,77,96,6
1,74,101,4
2,33,116,1536
2,33,113,86
2,35,116,102
2,36,109,284
2,33,114,714
2,35,111,268
2,36,111,282
2,38,111,674
2,38,116,100
2,40,114,94
2,41,113,260
2,38,109,688
2,40,107,236
2,41,109,260
2,40,118,124
2,38,118,128
2,33,113,124
2,33,111,116
2,35,109,90
2,36,113,272
2,33,114,690
2,35,109,264
2,36,111,268
2,38,113,694
2,38,114,102
2,40,111,106
2,41,113,304
2,38,113,698
2,40,114,292
2,41,105,310
2,40,113,118
2,38,114,118
2,33,116,88
2,33,113,86
2,35,116,102
2,36,109,284
2,33,114,714
2,35,111,268
2,36,111,282
2,38,111,674
2,38,116,100
2,40,114,94
2,41,113,260
2,38,109,688
2,40,107,236
2,41,109,260
2,40,118,124
2,38,118,128
2,33,113,124
2,33,111,116
2,35,109,90
2,36,113,272
2,33,114,690
2,35,109,264
2,36,111,268
2,38,113,694
2,38,114,102
2,40,111,106
2,41,113,304
2,38,113,698
2,40,114,292
2,41,105,310
2,40,113,118
2,38,114,118
2,33,116,88
2,33,113,86
2,35,116,102
2,36,109,284
2,33,114,714
2,35,111,268
2,36,111,282
2,38,111,674
2,38,116,100
2,40,114,94
2,41,113,260
2,38,109,688
2,40,107,236
2,41,109,260
2,40,118,124
2,38,118,128
2,33,113,124
2,33,111,116
2,35,109,90
2,36,113,272
2,33,114,690
2,35,109,264
2,36,111,268
2,38,113,694
2,38,114,102
2,40,111,106
2,41,113,304
2,38,113,698
2,40,114,292
2,41,105,310
2,40,113,118
2,38,114,118
2,41,114,90
2,41,120,112
2,41,114,142
2,41,114,118
2,41,114,126
2,41,113,108
2,41,109,98
2,41,109,122
2,41,114,116
2,41,109,112
2,41,114,114
2,41,111,118
2,41,114,110
2,41,120,112
2,41,120,106
2,41,101,116
2,40,114,116
2,40,111,122
2,40,113,112
2,40,113,122
2,40,114,102
2,40,98,108
2,41,65,14
2,40,114,112
2,40,120,118
2,40,124,108
2,40,113,96
2,40,114,114
2,40,113,118
2,40,111,108
2,40,111,120
2,40,114,102
2,40,113,116
2,38,114,116
2,38,113,102
2,38,111,104
2,38,114,114
2,38,105,106
2,38,109,92
2,38,113,118
2,38,111,118
2,38,111,96
2,38,113,112
2,38,114,112
2,38,111,114
2,38,101,120
2,38,101,118
2,38,111,124
2,35,118,100
2,33,114,126
2,33,114,74
2,33,114,112
2,33,111,94
2,33,113,92
2,33,105,96
2,33,118,106
2,33,111,108
2,33,114,106
2,33,113,102
2,33,118,104
2,33,124,108
2,33,122,86
2,33,105,94
2,33,111,102
2,33,105,92
2,38,124,128
2,38,113,96
2,40,114,116
2,41,114,252
2,31,122,476
2,31,105,44
2,33,118,80
2,35,120,266
2,33,124,608
2,33,122,96
2,35,118,106
2,36,124,264
2,33,118,508
2,35,113,20
2,36,116,308
2,33,105,48
2,33,111,102
2,33,105,92
2,38,124,128
2,38,113,96
2,40,114,116
2,41,114,252
2,31,122,476
2,31,105,44
2,33,118,80
2,35,120,266
2,33,124,608
2,33,122,96
2,35,118,106
2,36,124,264
2,33,118,508
2,33,105,580
2,33,111,102
2,33,105,92
2,38,124,128
2,38,113,96
2,40,114,116
2,41,114,252
2,31,122,476
2,31,105,44
2,33,118,80
2,35,120,266
2,33,124,608
2,33,122,96
2,35,118,106
2,36,124,264
2,33,118,508
2,33,105,580
2,33,111,102
2,33,105,92
2,38,124,128
2,38,113,96
2,40,114,116
2,41,114,252
2,31,122,476
2,31,105,44
2,33,118,80
2,35,120,266
2,33,124,608
2,33,122,96
2,35,118,106
2,36,124,264
2,33,118,508
2,33,122,350
2,35,118,106
2,36,124,218
2,33,118,508
2,33,116,174
2,33,113,4
2,35,116,102
2,36,109,284
2,33,114,714
2,35,111,268
2,36,111,282
2,38,111,674
2,38,116,100
2,40,114,94
2,41,113,260
2,38,109,688
2,40,107,236
2,41,109,260
2,40,118,124
2,38,118,128
2,33,113,124
2,33,111,116
2,35,109,90
2,36,113,272
2,33,114,690
2,35,109,264
2,36,111,268
2,38,113,694
2,38,114,102
2,40,111,106
2,41,113,304
2,38,113,698
2,40,114,292
2,41,105,310
2,40,113,118
2,38,114,118
2,41,118,88
2,41,127,164
2,41,113,172
2,41,120,300
2,41,114,94
2,41,120,24
2,41,100,44
2,41,111,22
2,38,111,48
2,38,118,70
2,38,113,106
2,38,113,90
2,38,120,58
2,38,113,20
2,38,109,32
2,38,92,36
2,38,103,54
2,39,92,86
2,40,113,14
2,40,101,48
2,40,118,74
2,40,116,108
2,40,120,60
2,40,113,38
2,40,111,22
2,40,118,88
2,33,116,22
2,33,113,80
2,33,120,90
2,33,116,94
2,31,105,176
2,31,111,82
2,31,111,104
2,31,113,54
2,31,109,40
2,29,109,6
2,29,114,64
2,29,107,80
2,33,116,378
2,33,113,86
2,35,116,102
2,36,109,284
2,33,114,714
2,35,111,268
2,36,111,282
2,38,111,674
2,38,116,100
2,40,114,94
2,41,113,260
2,38,109,688
2,40,107,236
2,41,109,260
2,40,118,124
2,38,118,128
2,33,113,124
2,33,111,116
2,35,109,90
2,36,113,272
2,33,114,690
2,35,109,264
2,36,111,268
2,38,113,694
2,38,114,102
2,40,111,106
2,41,113,304
2,38,113,698
2,40,114,292
2,41,105,310
2,40,113,118
2,38,114,118
2,33,116,88
2,33,113,86
2,35,116,102
2,36,109,284
2,33,114,714
2,35,111,268
2,36,111,282
2,38,111,674
2,38,116,100
2,40,114,94
2,41,113,260
2,38,109,688
2,40,107,236
2,41,109,260
2,40,118,124
2,38,118,128
2,33,113,124
2,33,111,116
2,35,109,90
2,36,113,272
2,33,114,690
2,35,109,264
2,36,111,268
2,38,113,694
2,38,114,102
2,40,111,106
2,41,113,304
2,38,113,698
2,40,114,292
2,41,105,310
2,40,113,118
2,38,114,118
2,41,114,90
2,41,120,112
2,41,114,142
2,41,114,118
2,41,114,126
2,41,113,108
2,41,109,98
2,41,109,122
2,41,114,116
2,41,109,112
2,41,114,114
2,41,111,118
2,41,114,110
2,41,120,112
2,41,120,106
2,41,101,116
2,40,114,116
2,40,111,122
2,40,113,112
2,40,113,122
2,40,114,102
2,40,98,108
2,41,65,14
2,40,114,112
2,40,120,118
2,40,124,108
2,40,113,96
2,40,114,114
2,40,113,118
2,40,111,108
2,40,111,120
2,40,114,102
2,40,113,116
2,38,114,116
2,38,113,102
2,38,111,104
2,38,114,114
2,38,105,106
2,38,109,92
2,38,113,118
2,38,111,118
2,38,111,96
2,38,113,112
2,38,114,112
2,38,111,114
2,38,101,120
2,38,101,118
2,38,111,124
2,35,118,100
2,33,114,126
2,33,114,74
2,33,114,112
2,33,111,94
2,33,113,92
2,33,105,96
2,33,118,106
2,33,111,108
2,33,114,104
2,33,114,74
2,33,114,112
2,33,111,94
2,33,113,92
2,33,105,96
2,33,118,106
2,33,111,108
2,41,114,106
2,41,120,112
2,41,114,142
2,41,114,118
2,41,114,126
2,41,113,108
2,41,109,98
2,41,109,122
2,41,114,116
2,41,109,112
2,41,114,114
2,41,111,118
2,41,114,110
2,41,120,112
2,41,120,106
2,41,101,116
2,40,114,116
2,40,111,122
2,40,113,112
2,40,113,122
2,40,114,102
2,40,98,108
2,41,65,14
2,40,114,112
2,40,120,118
2,40,124,108
2,40,113,96
2,40,114,114
2,40,113,118
2,40,111,108
2,40,111,120
2,40,114,102
2,40,113,116
2,38,114,116
2,38,113,102
2,38,111,104
2,38,114,114
2,38,105,106
2,38,109,92
2,38,113,118
2,38,111,118
2,38,111,96
2,38,113,112
2,38,114,112
2,38,111,114
2,38,101,120
2,38,101,118
2,38,111,124
2,35,118,100
2,33,114,126
2,33,114,74
2,33,114,112
2,33,111,94
2,33,113,92
2,33,105,80
2,33,105,16
2,33,111,102
2,33,118,26
2,33,105,92
2,33,111,36
2,38,124,128
2,38,113,96
2,40,114,116
2,41,114,252
2,31,122,476
2,31,105,44
2,33,118,80
2,35,120,266
2,33,124,608
2,33,122,96
2,35,118,106
2,36,124,264
2,33,118,508
2,35,113,20
2,36,116,308
2,33,105,48
2,33,111,102
2,33,105,92
2,38,124,128
2,38,113,96
2,40,114,116
2,41,114,252
2,31,122,476
2,31,105,44
2,33,118,80
2,35,120,266
2,33,124,608
2,33,122,96
2,35,118,106
2,36,124,264
2,33,118,508
2,33,105,580
2,33,111,102
2,33,105,92
2,38,124,128
2,38,113,96
2,40,114,116
2,41,114,252
2,31,122,476
2,31,105,44
2,33,118,80
2,35,120,266
2,33,124,608
2,33,122,96
2,35,118,106
2,36,124,264
2,33,118,508
2,33,105,580
2,33,111,102
2,33,105,92
2,38,124,128
2,38,113,96
2,40,114,116
2,41,114,252
2,31,122,476
2,31,105,44
2,33,118,80
2,35,120,266
2,33,124,608
2,33,122,96
2,35,118,106
2,36,124,264
2,33,118,508
3,69,103,1536
3,64,80,178
3,71,100,170
3,64,80,184
3,72,88,186
3,69,90,160
3,64,81,176
3,69,92,176
3,64,88,372
3,71,89,154
3,64,76,166
3,72,89,176
3,69,98,6
3,64,84,196
3,62,94,362
3,57,90,184
3,64,82,176
3,57,77,184
3,65,83,182
3,64,98,8
3,57,82,184
3,62,89,170
3,57,85,364
3,64,84,170
3,57,77,170
3,65,89,188
3,64,85,154
3,62,92,176
3,69,103,272
3,64,80,178
3,71,100,170
3,64,80,184
3,72,88,186
3,69,90,160
3,64,81,176
3,69,92,176
3,64,88,372
3,71,89,154
3,64,76,166
3,72,89,176
3,69,98,6
3,64,84,196
3,62,94,362
3,57,90,184
3,64,82,176
3,57,77,184
3,65,83,182
3,62,98,8
3,57,82,184
3,62,89,170
3,57,85,364
3,64,84,170
3,57,77,170
3,65,89,188
3,57,85,154
3,62,92,176
3,69,103,272
3,64,80,178
3,71,100,170
3,64,80,184
3,72,88,186
3,69,90,160
3,64,81,176
3,69,92,176
3,64,88,372
3,71,89,154
3,64,76,166
3,72,89,176
3,69,98,6
3,64,84,196
3,62,94,362
3,57,90,184
3,64,82,176
3,57,77,184
3,65,83,182
3,62,98,8
3,57,82,184
3,62,89,170
3,57,85,364
3,64,84,170
3,57,77,170
3,65,89,188
3,57,85,154
3,62,92,176
3,69,103,272
3,64,80,178
3,71,100,170
3,64,80,184
3,72,88,186
3,69,90,160
3,64,81,176
3,69,92,176
3,64,88,372
3,71,89,154
3,64,76,166
3,72,89,176
3,69,98,6
3,64,84,196
3,62,94,362
3,57,90,184
3,64,82,176
3,57,77,184
3,65,83,182
3,62,98,8
3,57,82,184
3,62,89,170
3,57,85,364
3,64,84,170
3,57,77,170
3,65,89,188
3,57,85,154
3,62,92,176
3,69,103,272
3,64,80,178
3,71,100,170
3,64,80,184
3,72,88,186
3,69,90,160
3,64,81,176
3,69,92,176
3,64,88,372
3,71,89,154
3,64,76,166
3,72,89,176
3,69,98,6
3,64,84,196
3,62,94,362
3,57,90,184
3,64,82,176
3,57,77,184
3,65,83,182
3,62,98,8
3,57,82,184
3,62,89,170
3,57,85,364
3,64,84,170
3,57,77,170
3,65,89,188
3,57,85,154
3,62,92,176
3,69,103,272
3,64,80,178
3,71,100,170
3,64,80,184
3,72,88,186
3,69,90,160
3,64,81,176
3,69,92,176
3,64,88,372
3,71,89,154
3,64,76,166
3,72,89,176
3,69,98,6
3,64,84,196
3,62,94,362
3,57,90,184
3,64,82,176
3,57,77,184
3,65,83,182
3,62,98,8
3,57,82,184
3,62,89,170
3,57,85,364
3,64,84,170
3,57,77,170
3,65,89,188
3,57,85,154
3,62,92,176
3,79,64,656
3,79,64,42
3,81,64,8
3,79,64,8
3,79,64,32
3,81,64,4
3,79,64,790
3,79,64,36
3,81,64,6
3,79,64,760
3,79,64,58
3,81,64,378
3,77,64,776
3,77,64,26
3,79,64,394
3,77,64,728
3,77,64,60
3,79,64,384
3,69,103,27652
3,64,80,178
3,71,100,170
3,64,80,184
3,72,88,186
3,69,90,160
3,64,81,176
3,69,92,176
3,64,88,372
3,71,89,154
3,64,76,166
3,72,89,176
3,69,98,6
3,64,84,196
3,62,94,362
3,57,90,184
3,64,82,176
3,57,77,184
3,65,83,182
3,62,98,8
3,57,82,184
3,62,89,170
3,57,85,364
3,64,84,170
3,57,77,170
3,65,89,188
3,57,85,154
3,62,92,176
3,69,103,272
3,64,80,178
3,71,100,170
3,64,80,184
3,72,88,186
3,69,90,160
3,64,81,176
3,69,92,176
3,64,88,372
3,71,89,154
3,64,76,166
3,72,89,176
3,69,98,6
3,64,84,196
3,62,94,362
3,57,90,184
3,64,82,176
3,57,77,184
3,65,83,182
3,62,98,8
3,57,82,184
3,62,89,170
3,57,85,364
3,64,84,170
3,57,77,170
3,65,89,188
3,57,85,154
3,62,92,176
3,69,103,15632
3,64,80,178
3,71,100,170
3,64,80,184
3,72,88,186
3,69,90,160
3,64,81,176
3,69,92,176
3,64,88,372
3,71,89,154
3,64,76,166
3,72,89,176
3,69,98,6
3,64,84,196
3,62,94,362
3,57,90,184
3,64,82,176
3,57,77,184
3,65,83,182
3,62,98,8
3,57,82,184
3,62,89,170
3,57,85,364
3,64,84,170
3,57,77,170
3,65,89,188
3,57,85,154
3,62,92,176
3,69,103,272
3,64,80,178
3,71,100,170
3,64,80,184
3,72,88,186
3,69,90,160
3,64,81,176
3,69,92,176
3,64,88,372
3,71,89,154
3,64,76,166
3,72,89,176
3,69,98,6
3,64,84,196
3,62,94,362
3,57,90,184
3,64,82,176
3,57,77,184
3,65,83,182
3,62,98,8
3,57,82,184
3,62,89,170
3,57,85,364
3,64,84,170
3,57,77,170
3,65,89,188
3,57,85,154
3,62,92,176
3,69,103,272
3,64,80,178
3,71,100,170
3,64,80,184
3,72,88,186
3,69,90,160
3,64,81,176
3,69,92,176
3,64,88,372
3,71,89,154
3,64,76,166
3,72,89,176
3,69,98,6
3,64,84,196
3,62,94,362
3,57,90,184
3,64,82,176
3,57,77,184
3,65,83,182
3,62,98,8
3,57,82,184
3,62,89,170
3,57,85,364
3,64,84,170
3,57,77,170
3,65,89,188
3,57,85,154
3,62,92,176
3,69,103,272
3,64,80,178
3,71,100,170
3,64,80,184
3,72,88,186
3,69,90,160
3,64,81,176
3,69,92,176
3,64,88,372
3,71,89,154
3,64,76,166
3,72,89,176
3,69,98,6
3,64,84,196
3,62,94,362
3,57,90,184
3,64,82,176
3,57,77,184
3,65,83,182
3,62,98,8
3,57,82,184
3,62,89,170
3,57,85,364
3,64,84,170
3,57,77,170
3,65,89,188
3,57,85,154
3,62,92,176
3,79,64,656
3,79,64,42
3,81,64,8
3,79,64,8
3,79,64,32
3,81,64,4
