track,note,velocity,time
1,65,109,944
1,58,114,0
1,62,98,0
1,38,116,6
1,58,103,272
1,63,94,0
1,67,114,4
1,39,90,0
1,51,105,10
1,58,100,314
1,63,103,2
1,67,101,0
1,69,101,122
1,70,96,38
1,67,103,320
1,70,103,0
1,74,98,4
1,62,101,0
1,55,111,0
1,58,98,6
1,67,81,32
1,70,92,0
1,74,80,4
1,72,107,294
1,65,94,0
1,69,101,0
1,60,94,4
1,53,109,2
1,57,83,6
1,57,90,238
1,50,83,0
1,69,98,0
1,65,86,6
1,53,85,0
1,62,101,0
1,60,85,0
1,39,105,226
1,51,88,0
1,67,96,4
1,58,103,0
1,63,81,0
1,65,111,6
1,62,113,0
1,50,113,4
1,38,101,2
1,58,113,0
1,63,105,204
1,58,120,0
1,39,94,4
1,67,101,0
1,51,114,2
1,51,94,18
1,58,57,208
1,58,105,74
1,63,101,0
1,67,111,2
1,69,92,116
1,70,100,90
1,51,89,18
1,67,109,270
1,55,94,0
1,70,109,2
1,74,96,0
1,62,75,4
1,58,105,0
1,70,84,32
1,67,101,0
1,74,86,0
1,69,105,6
1,72,109,4
1,65,84,0
1,53,84,4
1,60,107,0
1,57,89,2
1,50,103,12
1,57,96,4
1,69,103,2
1,65,105,4
1,62,86,2
1,53,89,0
1,58,101,0
1,63,85,4
1,39,118,4
1,67,100,2
1,51,105,0
1,65,109,20
1,58,120,0
1,62,111,0
1,38,125,4
1,58,105,294
1,39,105,0
1,67,101,0
1,63,81,4
1,51,89,0
1,51,109,208
1,58,73,112
1,58,109,96
1,63,98,4
1,67,113,4
1,69,101,62
1,70,116,86
1,51,86,82
1,67,113,138
1,70,109,0
1,74,98,0
1,55,116,2
1,62,96,0
1,58,86,10
1,74,100,32
1,67,105,0
1,70,100,4
1,65,107,10
1,69,107,0
1,72,127,4
1,60,98,2
1,53,116,0
1,57,101,4
1,69,109,8
1,50,101,0
1,65,122,2
1,57,122,0
1,62,75,4
1,53,88,2
1,58,105,226
1,39,100,4
1,67,100,2
1,63,84,4
1,51,98,0
1,65,101,2608
1,62,101,0
1,58,98,0
1,67,100,260
1,63,100,0
1,58,109,0
1,65,101,192
1,58,98,4
1,62,89,2
1,63,96,192
1,67,100,0
1,58,96,4
1,65,101,292
1,58,98,0
1,62,92,4
1,57,101,44
1,62,103,212
1,55,86,2
1,58,92,0
1,70,109,602
1,63,92,4
1,67,92,10
1,55,109,582
1,62,98,0
1,58,101,0
1,53,103,494
1,60,109,0
1,57,100,8
1,65,94,426
1,58,90,0
1,62,81,4
1,58,105,1156
1,63,90,0
1,67,100,2
1,63,82,612
1,60,101,6
1,69,92,4
1,65,101,2
1,65,90,524
1,70,90,4
1,62,82,0
1,65,103,212
1,69,101,2
1,62,98,4
1,58,92,390
1,55,84,0
1,62,78,0
1,63,85,268
1,67,107,0
1,70,90,0
1,58,85,448
1,51,90,0
1,55,92,4
1,67,92,364
1,74,90,8
1,70,86,2
1,69,88,356
1,72,100,0
1,65,66,2
1,39,109,1588
1,75,101,0
1,63,101,0
1,67,96,0
1,51,98,54
1,63,88,140
1,70,72,16
1,63,101,64
1,51,94,2
1,70,111,0
1,39,89,64
1,63,103,72
1,67,107,2
1,39,84,122
1,39,96,94
1,63,84,8
1,67,92,8
1,63,107,48
1,70,113,2
1,67,107,6
1,36,105,10
1,48,85,20
1,63,92,20
1,63,100,88
1,70,107,0
1,67,96,4
1,48,88,196
1,63,90,36
1,67,105,72
1,63,78,0
1,63,86,2
1,70,98,4
1,42,96,10
1,65,105,4
1,38,118,2
1,69,107,4
1,60,82,0
1,50,86,6
1,60,101,88
1,65,103,98
1,69,103,0
1,60,103,4
1,50,88,172
1,38,57,34
1,60,100,10
1,38,78,68
1,38,89,122
1,59,86,60
1,62,105,2
1,59,101,4
1,69,96,2
1,65,103,0
1,31,103,4
1,43,81,4
1,59,85,60
1,62,77,26
1,62,107,104
1,43,125,0
1,59,86,6
1,67,85,12
1,59,85,80
1,62,105,70
1,67,96,4
1,59,101,40
1,31,100,144
1,39,103,30
1,51,96,0
1,63,94,0
1,70,98,0
1,67,84,0
1,50,89,214
1,38,100,0
1,63,92,0
1,70,127,4
1,67,92,0
1,70,105,112
1,67,100,8
1,63,85,0
1,63,96,154
1,67,107,2
1,70,100,0
1,36,101,0
1,48,81,4
1,51,103,238
1,63,100,2
1,39,109,4
1,67,89,4
1,70,89,0
1,50,100,182
1,38,96,2
1,63,101,4
1,70,103,4
1,67,88,2
1,70,94,88
1,63,88,4
1,67,109,0
1,70,105,144
1,63,92,0
1,67,101,0
1,48,86,4
1,36,85,0
1,39,107,224
1,63,96,4
1,70,105,2
1,51,86,0
1,67,89,0
1,50,96,194
1,38,98,4
1,63,88,0
1,67,88,0
1,70,113,2
1,67,98,88
1,70,94,2
1,63,81,0
1,48,101,118
1,63,92,0
1,67,100,2
1,70,127,0
1,36,127,4
1,51,96,208
1,63,98,4
1,67,114,0
1,70,101,4
1,39,90,0
1,65,111,288
1,58,107,0
1,62,98,4
1,38,122,2
1,58,109,206
1,63,89,0
1,67,101,2
1,51,122,6
1,39,118,8
1,51,89,32
1,67,125,160
1,69,111,74
1,70,107,88
1,67,109,298
1,70,124,4
1,74,103,0
1,62,92,2
1,55,127,0
1,58,103,8
1,74,88,26
1,67,88,4
1,70,101,2
1,72,118,52
1,60,113,2
1,65,85,0
1,53,89,4
1,69,89,0
1,57,105,2
1,50,100,12
1,65,118,0
1,69,118,4
1,57,118,0
1,62,76,2
1,53,122,4
1,58,98,248
1,63,100,2
1,51,113,4
1,67,92,0
1,39,94,2
1,65,111,1130
1,58,107,0
1,62,98,4
1,38,122,2
1,58,109,206
1,63,89,0
1,67,101,2
1,51,122,6
1,39,118,8
1,51,89,32
1,67,125,160
1,69,111,74
1,70,107,88
1,67,109,298
1,70,124,4
1,74,103,0
1,62,92,2
1,55,127,0
1,58,103,8
1,74,88,26
1,67,88,4
1,70,101,2
1,72,118,52
1,60,113,2
1,65,85,0
1,53,89,4
1,69,89,0
1,57,105,2
1,50,100,12
1,65,118,0
1,69,118,4
1,57,118,0
1,62,76,2
1,53,122,4
1,58,98,248
1,63,100,2
1,51,113,4
1,67,92,0
1,39,94,2
1,65,111,1130
1,58,107,0
1,62,98,4
1,38,122,2
1,58,109,206
1,63,89,0
1,67,101,2
1,51,122,6
1,39,118,8
1,51,89,32
1,67,125,160
1,69,111,74
1,70,107,88
1,67,109,298
1,70,124,4
1,74,103,0
1,62,92,2
1,55,127,0
1,58,103,8
1,74,88,26
1,67,88,4
1,70,101,2
1,72,118,52
1,60,113,2
1,65,85,0
1,53,89,4
1,69,89,0
1,57,105,2
1,50,100,12
1,65,118,0
1,69,118,4
1,57,118,0
1,62,76,2
1,53,122,4
1,58,98,248
1,63,100,2
1,51,113,4
1,67,92,0
1,39,94,2
1,65,101,1720
1,62,101,0
1,58,98,0
1,67,100,260
1,63,100,0
1,58,109,0
1,65,101,192
1,58,98,4
1,62,89,2
1,63,96,192
1,67,100,0
1,58,96,4
1,65,101,292
1,58,98,0
1,62,92,4
1,57,101,44
1,62,103,212
1,55,86,2
1,58,92,0
1,70,109,602
1,63,92,4
1,67,92,10
1,55,109,582
1,62,98,0
1,58,101,0
1,53,103,494
1,60,109,0
1,57,100,8
1,65,94,426
1,58,90,0
1,62,81,4
1,39,103,10396
1,51,96,0
1,63,94,0
1,70,98,0
1,67,84,0
1,50,89,214
1,38,100,0
1,63,92,0
1,70,127,4
1,67,92,0
1,70,105,112
1,67,100,6
1,63,85,0
1,63,96,154
1,67,107,2
1,70,100,0
1,36,101,0
1,48,81,4
1,51,103,238
1,63,100,2
1,39,109,4
1,67,89,2
1,70,89,0
1,50,100,184
1,38,96,2
1,63,101,4
1,70,103,2
1,67,88,4
1,70,94,90
1,63,88,4
1,67,109,0
1,70,105,144
1,63,92,0
1,67,101,0
1,48,86,2
1,36,85,0
1,39,107,224
1,63,96,4
1,70,105,2
1,51,86,0
1,67,89,0
1,50,96,196
1,38,98,4
1,63,88,0
1,67,88,0
1,70,113,2
1,67,98,86
1,70,94,4
1,63,81,0
1,48,101,120
1,63,92,0
1,67,100,2
1,70,127,0
1,36,127,4
1,51,96,208
1,63,98,4
1,67,114,0
1,70,101,2
1,39,90,0
1,65,111,262
1,58,107,0
1,62,98,4
1,38,122,2
1,58,109,206
1,63,89,0
1,67,101,2
1,51,122,6
1,39,118,8
1,51,89,32
1,67,125,160
1,69,111,74
1,70,107,88
1,67,109,298
1,70,124,4
1,74,103,0
1,62,92,2
1,55,127,0
1,58,103,8
1,74,88,26
1,67,88,4
1,70,101,2
1,72,118,52
1,60,113,2
1,65,85,0
1,53,89,4
1,69,89,0
1,57,105,2
1,50,100,12
1,65,118,0
1,69,118,4
1,57,118,0
1,62,76,2
1,53,122,4
1,58,98,248
1,63,100,2
1,51,113,4
1,67,92,0
1,39,94,2
1,65,111,1130
1,58,107,0
1,62,98,4
1,38,122,2
1,58,109,206
1,63,89,0
1,67,101,2
1,51,122,6
1,39,118,8
1,51,89,32
1,67,125,160
1,69,111,74
1,70,107,88
1,67,109,298
1,70,124,4
1,74,103,0
1,62,92,2
1,55,127,0
1,58,103,8
1,74,88,26
1,67,88,4
1,70,101,2
1,72,118,52
1,60,113,2
1,65,85,0
1,53,89,4
1,69,89,0
1,57,105,2
1,50,100,12
1,65,118,0
1,69,118,4
1,57,118,0
1,62,76,2
1,53,122,4
1,58,98,248
1,63,100,2
1,51,113,4
1,67,92,0
1,39,94,2
1,65,111,1130
1,58,107,0
1,62,98,4
1,38,122,2
1,58,109,206
1,63,89,0
1,67,101,2
1,51,122,6
1,39,118,8
1,51,89,32
1,67,125,160
1,69,111,74
1,70,107,88
1,67,109,298
1,70,124,4
1,74,103,0
1,62,92,2
1,55,127,0
1,58,103,8
1,74,88,26
1,67,88,4
1,70,101,2
1,72,118,52
1,60,113,2
1,65,85,0
1,53,89,4
1,69,89,0
1,57,105,2
1,50,100,12
1,65,118,0
1,69,118,4
1,57,118,0
1,62,76,2
1,53,122,4
1,58,98,248
1,63,100,2
1,51,113,4
1,67,92,0
1,39,94,2
1,65,111,1130
1,58,107,0
1,62,98,4
1,38,122,2
1,58,109,206
1,63,89,0
1,67,101,2
1,51,122,6
1,39,118,8
1,51,89,32
1,67,125,160
1,69,111,74
1,70,107,88
1,67,109,298
1,70,124,4
1,74,103,0
1,62,92,2
1,55,127,0
1,58,103,8
1,74,88,26
1,67,88,4
1,70,101,2
1,72,118,52
1,60,113,2
1,65,85,0
1,53,89,4
1,69,89,0
1,57,105,2
1,50,100,12
1,65,118,0
1,69,118,4
1,57,118,0
1,62,76,2
1,53,122,4
1,58,98,248
1,63,100,2
1,51,113,4
1,67,92,0
1,39,94,2
1,65,111,1130
1,58,107,0
1,62,98,4
1,38,122,2
1,58,109,206
1,63,89,0
1,67,101,2
1,51,122,6
1,39,118,8
1,51,89,32
1,67,125,160
1,69,111,74
1,70,107,88
1,67,109,298
1,70,124,4
1,74,103,0
1,62,92,2
1,55,127,0
1,58,103,8
1,74,88,26
1,67,88,4
1,70,101,2
1,72,118,52
1,60,113,2
1,65,85,0
1,53,89,4
1,69,89,0
1,57,105,2
1,50,100,12
1,65,118,0
1,69,118,4
1,57,118,0
1,62,76,2
1,53,122,4
1,58,98,248
1,63,100,2
1,51,113,4
1,67,92,0
1,39,94,2
1,39,103,14032
1,51,96,0
1,63,94,0
1,70,98,0
1,67,84,0
1,50,89,214
1,38,100,0
1,63,92,0
1,70,127,4
1,67,92,0
1,70,105,112
1,67,100,6
1,63,85,0
1,63,96,154
1,67,107,2
1,70,100,0
1,36,101,0
1,48,81,4
1,51,103,238
1,63,100,2
1,39,109,4
1,67,89,2
1,70,89,0
1,50,100,184
1,38,96,2
1,63,101,4
1,70,103,2
1,67,88,4
1,70,94,90
1,63,88,4
1,67,109,0
1,70,105,144
1,63,92,0
1,67,101,0
1,48,86,2
1,36,85,0
1,39,107,224
1,63,96,4
1,70,105,2
1,51,86,0
1,67,89,0
1,50,96,196
1,38,98,4
1,63,88,0
1,67,88,0
1,70,113,2
1,67,98,86
1,70,94,4
1,63,81,0
1,48,101,120
1,63,92,0
1,67,100,2
1,70,127,0
1,36,127,4
1,51,96,208
1,63,98,4
1,67,114,0
1,70,101,2
1,39,90,0
1,65,111,262
1,58,107,0
1,62,98,4
1,38,122,2
1,58,109,206
1,63,89,0
1,67,101,2
1,51,122,6
1,39,118,8
1,51,89,32
1,67,125,160
1,69,111,74
1,70,107,88
1,67,109,298
1,70,124,4
1,74,103,0
1,62,92,2
1,55,127,0
1,58,103,8
1,74,88,26
1,67,88,4
1,70,101,2
1,72,118,52
1,60,113,2
1,65,85,0
1,53,89,4
1,69,89,0
1,57,105,2
1,50,100,12
1,65,118,0
1,69,118,4
1,57,118,0
1,62,76,2
1,53,122,4
1,58,98,248
1,63,100,2
1,51,113,4
1,67,92,0
1,39,94,2
1,65,111,1130
1,58,107,0
1,62,98,4
1,38,122,2
1,58,109,206
1,63,89,0
1,67,101,2
1,51,122,6
1,39,118,8
1,51,89,32
1,67,125,160
1,69,111,74
1,70,107,88
1,67,109,298
1,70,124,4
1,74,103,0
1,62,92,2
1,55,127,0
1,58,103,8
1,74,88,26
1,67,88,4
1,70,101,2
1,72,118,52
1,60,113,2
1,65,85,0
1,53,89,4
1,69,89,0
1,57,105,2
1,50,100,12
1,65,118,0
1,69,118,4
1,57,118,0
1,62,76,2
1,53,122,4
1,58,98,248
1,63,100,2
1,51,113,4
1,67,92,0
1,39,94,2
1,65,111,1130
1,58,107,0
1,62,98,4
1,38,122,2
1,58,109,206
1,63,89,0
1,67,101,2
1,51,122,6
1,39,118,8
1,51,89,32
1,67,125,160
1,69,111,74
1,70,107,88
1,67,109,298
1,70,124,4
1,74,103,0
1,62,92,2
1,55,127,0
1,58,103,8
1,74,88,26
1,67,88,4
1,70,101,2
1,72,118,52
1,60,113,2
1,65,85,0
1,53,89,4
1,69,89,0
1,57,105,2
1,50,100,12
1,65,118,0
1,69,118,4
1,57,118,0
1,62,76,2
1,53,122,4
1,58,98,248
1,63,100,2
1,51,113,4
1,67,92,0
1,39,94,2
1,65,111,1130
1,58,107,0
1,62,98,4
1,38,122,2
1,58,109,206
1,63,89,0
1,67,101,2
1,51,122,6
1,39,118,8
1,51,89,32
1,67,125,160
1,69,111,74
1,70,107,88
1,67,109,298
1,70,124,4
1,74,103,0
1,62,92,2
1,55,127,0
1,58,103,8
1,74,88,26
1,67,88,4
1,70,101,2
1,72,118,52
1,60,113,2
1,65,85,0
1,53,89,4
1,69,89,0
1,57,105,2
1,50,100,12
1,65,118,0
1,69,118,4
1,57,118,0
1,62,76,2
1,53,122,4
1,58,98,248
1,63,100,2
1,51,113,4
1,67,92,0
1,39,94,2
1,65,111,172
1,58,107,0
1,62,98,4
1,38,122,2
1,58,109,180
1,63,89,0
1,67,101,2
1,51,122,6
1,39,118,8
1,51,89,32
1,67,125,160
1,69,111,74
1,70,107,88
1,67,109,298
1,70,124,4
1,74,103,0
1,62,92,2
1,55,127,0
1,58,103,8
1,74,88,26
1,67,88,4
1,70,101,2
1,72,118,52
1,60,113,2
1,65,85,0
1,53,89,4
1,69,89,0
1,57,105,2
1,50,100,12
1,65,118,0
1,69,118,4
1,57,118,0
1,62,76,2
1,53,122,4
1,58,98,148
1,63,100,2
1,51,113,4
1,67,92,0
1,39,94,2
1,65,111,102
1,58,107,0
1,62,98,4
1,38,122,2
1,58,109,112
1,63,89,0
1,67,101,2
1,51,122,6
1,39,118,8
1,51,89,32
1,67,125,160
1,69,111,74
1,70,107,88
1,67,109,274
1,70,124,4
1,74,103,0
1,62,92,2
1,55,127,0
1,58,103,8
1,74,88,26
1,67,88,4
1,70,101,2
1,72,118,52
1,60,113,2
1,65,85,0
1,53,89,4
1,69,89,0
1,57,105,2
1,50,100,12
1,65,118,0
1,69,118,4
1,57,118,0
1,62,76,2
