track,note,velocity,time
1,81,94,13244
1,88,101,324
1,89,109,138
1,88,111,148
1,74,100,972
1,81,100,218
1,82,96,406
1,81,103,152
1,73,122,1128
1,74,122,16
1,76,101,160
1,77,103,84
1,79,105,190
1,76,113,144
1,72,124,2
1,76,105,14
1,76,105,28
1,74,109,0
1,81,109,1302
1,87,113,508
1,88,111,20
1,89,105,310
1,88,109,198
1,74,111,618
1,81,118,198
1,82,118,406
1,81,107,146
1,73,116,806
1,74,120,16
1,76,96,162
1,77,101,80
1,79,92,160
1,76,105,10
1,72,109,1228
1,76,120,402
1,74,114,178
1,77,101,198
1,79,100,294
1,81,105,4
1,81,111,22
1,82,101,272
1,82,96,26
1,84,100,1744
1,82,113,16
1,82,113,32
1,82,113,20
1,82,111,16
1,81,113,184
1,81,118,18
1,80,124,124
1,81,120,22
1,82,111,22
1,81,122,2
1,79,113,102
1,77,111,0
1,79,113,10
1,81,107,188
1,79,105,84
1,79,114,134
1,85,111,6
1,79,105,110
1,77,113,246
1,76,111,208
1,77,109,176
1,79,98,176
1,74,109,96
1,81,94,39478
1,88,101,324
1,89,109,138
1,88,111,148
1,74,100,972
1,81,100,218
1,82,96,406
1,81,103,152
1,73,122,1128
1,74,122,16
1,76,101,160
1,77,103,84
1,79,105,190
1,76,113,144
1,72,124,2
1,76,105,14
1,76,105,28
1,74,109,0
2,38,118,8
2,38,100,40
2,38,114,384
2,38,113,44
2,38,105,42
2,38,120,44
2,38,114,614
2,38,105,40
2,38,109,422
2,38,103,42
2,38,111,44
2,38,116,46
2,34,111,602
2,34,94,46
2,34,103,416
2,34,109,44
2,34,105,38
2,34,116,48
2,34,113,598
2,34,113,46
2,34,111,422
2,34,105,44
2,34,113,38
2,34,103,34
2,31,113,602
2,31,94,34
2,31,113,416
2,31,113,48
2,31,109,36
2,31,120,46
2,33,116,620
2,33,101,36
2,33,116,410
2,33,96,32
2,33,116,44
2,33,109,36
2,38,120,596
2,38,118,44
2,38,114,416
2,38,113,46
2,38,111,42
2,38,120,48
2,38,114,606
2,38,105,46
2,38,114,404
2,38,103,48
2,38,96,38
2,38,101,36
2,38,118,608
2,38,100,40
2,38,114,384
2,38,113,44
2,38,105,42
2,38,120,44
2,38,114,614
2,38,105,40
2,38,109,422
2,38,103,42
2,38,111,44
2,38,116,46
2,34,111,602
2,34,94,46
2,34,103,416
2,34,109,44
2,34,105,38
2,34,116,48
2,34,113,598
2,34,113,46
2,34,111,422
2,34,105,44
2,34,113,38
2,34,103,34
2,31,113,602
2,31,94,34
2,31,113,416
2,31,113,48
2,31,109,36
2,31,120,46
2,33,116,620
2,33,101,36
2,33,116,410
2,33,96,32
2,33,116,44
2,33,109,36
2,38,120,596
2,38,118,44
2,38,114,416
2,38,113,46
2,38,111,42
2,38,120,48
2,38,114,606
2,38,105,46
2,38,114,404
2,38,103,48
2,38,96,38
2,38,101,36
2,38,118,608
2,38,100,40
2,38,114,384
2,38,113,44
2,38,105,42
2,38,120,44
2,38,114,614
2,38,105,40
2,38,109,422
2,38,103,42
2,38,111,44
2,38,116,46
2,34,111,602
2,34,94,46
2,34,103,416
2,34,109,44
2,34,105,38
2,34,116,48
2,34,113,598
2,34,113,46
2,34,111,422
2,34,105,44
2,34,113,38
2,34,103,34
2,31,113,602
2,31,94,34
2,31,113,416
2,31,113,48
2,31,109,36
2,31,120,46
2,33,116,620
2,33,101,36
2,33,116,410
2,33,96,32
2,33,116,44
2,33,109,36
2,38,120,596
2,38,118,44
2,38,114,416
2,38,113,46
2,38,111,42
2,38,120,48
2,38,114,606
2,38,105,46
2,38,114,404
2,38,103,48
2,38,96,38
2,38,101,36
2,31,111,602
2,31,114,58
2,31,111,204
2,31,111,668
2,38,105,106
2,36,113,60
2,36,100,22
2,36,120,216
2,36,105,716
2,35,101,74
2,29,116,88
2,29,113,66
2,29,109,166
2,41,101,660
2,38,84,90
2,34,105,16
2,34,103,38
2,34,113,184
2,34,100,682
2,33,94,98
2,28,122,32
2,28,109,52
2,28,113,182
2,28,101,644
2,33,116,24
2,33,111,52
2,33,100,210
2,45,94,668
2,43,92,74
2,38,105,24
2,38,103,38
2,26,116,186
2,33,105,652
2,38,105,188
2,38,111,74
2,26,109,174
2,38,118,856
2,38,100,40
2,38,114,384
2,38,113,44
2,38,105,42
2,38,120,44
2,38,114,614
2,38,105,40
2,38,109,422
2,38,103,42
2,38,111,44
2,38,116,46
2,34,111,602
2,34,94,46
2,34,103,416
2,34,109,44
2,34,105,38
2,34,116,48
2,34,113,598
2,34,113,46
2,34,111,422
2,34,105,44
2,34,113,38
2,34,103,34
2,31,113,602
2,31,94,34
2,31,113,416
2,31,113,48
2,31,109,36
2,31,120,46
2,33,116,620
2,33,101,36
2,33,116,410
2,33,96,32
2,33,116,44
2,33,109,36
2,38,120,596
2,38,118,44
2,38,114,416
2,38,113,46
2,38,111,42
2,38,120,48
2,38,114,606
2,38,105,46
2,38,114,404
2,38,103,48
2,38,96,38
2,38,101,36
2,26,109,600
2,38,84,92
2,38,98,22
2,38,98,134
2,26,98,92
2,26,100,42
2,29,111,226
2,41,100,102
2,41,103,40
2,41,98,84
2,29,111,78
2,29,125,38
2,34,98,224
2,46,101,102
2,46,96,28
2,46,113,88
2,34,109,76
2,34,113,26
2,33,113,12
2,45,82,96
2,45,92,26
2,45,101,88
2,33,103,42
2,33,103,34
2,26,103,864
2,26,109,14
2,38,84,78
2,38,98,22
2,38,98,134
2,26,98,92
2,26,100,42
2,29,111,226
2,41,100,102
2,41,103,40
2,41,98,84
2,29,111,78
2,29,125,38
2,34,98,224
2,46,101,102
2,46,96,28
2,46,113,88
2,34,109,76
2,34,113,26
2,33,113,12
2,45,82,96
2,45,92,26
2,45,101,88
2,33,103,42
2,33,103,34
2,26,103,864
2,38,118,6
2,38,100,40
2,38,114,358
2,38,113,44
2,38,105,42
2,38,120,44
2,38,114,614
2,38,105,40
2,38,109,422
2,38,103,42
2,38,111,44
2,38,116,46
2,34,111,602
2,34,94,46
2,34,103,416
2,34,109,44
2,34,105,38
2,34,116,48
2,34,113,598
2,34,113,46
2,34,111,422
2,34,105,44
2,34,113,38
2,34,103,34
2,31,113,602
2,31,94,34
2,31,113,416
2,31,113,48
2,31,109,36
2,31,120,46
2,33,116,620
2,33,101,36
2,33,116,410
2,33,96,32
2,33,116,44
2,33,109,36
2,38,120,596
2,38,118,44
2,38,114,416
2,38,113,46
2,38,111,42
2,38,120,48
2,38,114,606
2,38,105,46
2,38,114,404
2,38,103,48
2,38,96,38
2,38,101,36
2,38,118,608
2,38,100,40
2,38,114,384
2,38,113,44
2,38,105,42
2,38,120,44
2,38,114,614
2,38,105,40
2,38,109,422
2,38,103,42
2,38,111,44
2,38,116,46
2,34,111,602
2,34,94,46
2,34,103,416
2,34,109,44
2,34,105,38
2,34,116,48
2,34,113,598
2,34,113,46
2,34,111,422
2,34,105,44
2,34,113,38
2,34,103,34
2,31,113,602
2,31,94,34
2,31,113,416
2,31,113,48
2,31,109,36
2,31,120,46
2,33,116,620
2,33,101,36
2,33,116,410
2,33,96,32
2,33,116,44
2,33,109,36
2,38,120,596
2,38,118,44
2,38,114,416
2,38,113,46
2,38,111,42
2,38,120,48
2,38,114,606
2,38,105,46
2,38,114,404
2,38,103,48
2,38,96,38
2,38,101,36
2,26,109,600
2,38,84,92
2,38,98,22
2,38,98,134
2,26,98,92
2,26,100,42
2,29,111,226
2,41,100,102
2,41,103,40
2,41,98,84
2,29,111,78
2,29,125,38
2,34,98,224
2,46,101,102
2,46,96,28
2,46,113,88
2,34,109,76
2,34,113,26
2,33,113,12
2,45,82,96
2,45,92,26
2,45,101,88
2,33,103,42
2,33,103,34
2,26,103,864
2,26,109,14
2,38,84,78
2,38,98,22
2,38,98,134
2,26,98,92
2,26,100,42
2,29,111,226
2,41,100,102
2,41,103,40
2,41,98,84
2,29,111,78
2,29,125,38
2,34,98,224
2,46,101,102
2,46,96,28
2,46,113,88
2,34,109,76
2,34,113,26
2,33,113,12
2,45,82,96
2,45,92,26
2,45,101,88
2,33,103,42
2,33,103,34
2,26,103,864
2,26,103,14
2,26,109,10
2,38,84,80
2,38,98,22
2,38,98,134
2,26,98,94
2,26,100,42
2,29,111,228
2,41,100,102
2,41,103,42
2,41,98,82
2,29,111,76
2,29,125,38
2,34,98,224
2,46,101,104
2,46,96,28
2,46,113,90
2,34,109,76
2,34,113,24
2,33,113,14
2,45,82,96
2,45,92,26
2,45,101,90
2,33,103,42
2,33,103,36
2,26,103,0
2,26,103,0
2,26,109,11
2,38,84,80
2,38,98,22
2,38,98,134
2,26,98,54
2,26,100,20
2,29,111,52
2,41,100,16
2,41,103,42
2,41,98,28
2,29,111,76
2,29,125,38
2,34,98,80
2,46,101,46
2,46,96,28
2,46,113,52
2,34,109,76
2,34,113,24
2,33,113,14
2,45,82,80
2,45,92,26
2,45,101,84
2,33,103,42
2,33,103,36
2,26,103,0
2,26,103,0
2,26,109,11
2,38,84,80
2,38,98,22
2,38,98,134
2,26,98,54
2,26,100,20
2,29,111,52
2,41,100,16
2,41,103,42
2,41,98,28
2,29,111,76
2,29,125,38
2,34,98,80
2,46,101,46
2,46,96,28
2,46,113,52
2,34,109,76
2,34,113,24
2,33,113,14
2,45,82,80
2,45,92,26
2,45,101,84
2,33,103,42
2,33,103,36
2,26,103,0
3,69,100,568
3,76,100,0
3,62,100,92
3,69,100,8
3,74,100,328
3,76,100,0
3,77,100,104
3,79,100,190
3,76,100,162
3,72,100,10
3,73,100,390
3,74,100,6
3,69,64,38584
3,76,64,0
3,62,64,92
3,69,64,8
3,74,64,328
3,76,64,0
3,77,64,104
3,79,64,190
3,76,64,162
3,72,64,10
3,73,64,390
3,74,64,6
3,69,64,14008
3,76,64,0
3,62,64,92
3,69,64,8
3,74,64,328
3,76,64,0
3,77,64,104
3,79,64,190
3,76,64,162
3,72,64,10
3,73,64,390
3,74,64,6
4,57,57,0
4,60,75,0
4,64,56,0
4,57,60,2778
4,62,46,4
4,60,61,10
4,53,50,0
4,57,54,2642
4,58,62,0
4,65,61,4
4,62,61,4
4,57,46,1048
4,60,66,8
4,64,59,2
4,57,70,986
4,62,61,6
4,53,53,12
4,57,57,96
4,60,75,0
4,64,56,0
4,57,60,2778
4,62,46,4
4,60,61,10
4,53,50,0
4,57,54,2642
4,58,62,0
4,65,61,4
4,62,61,4
4,57,46,1048
4,60,66,8
4,64,59,2
4,57,70,986
4,62,61,6
4,53,53,12
4,57,57,96
4,60,75,0
4,64,56,0
4,57,60,2778
4,62,46,4
4,60,61,10
4,53,50,0
4,57,54,2642
4,58,62,0
4,65,61,4
4,62,61,4
4,64,46,1048
4,60,66,8
4,64,59,2
4,57,70,992
4,62,61,6
4,53,53,12
4,58,89,96
4,50,90,0
4,55,101,0
4,58,80,378
4,48,85,2
4,52,84,4
4,53,86,410
4,57,78,0
4,48,89,0
4,46,73,468
4,50,84,2
4,57,66,0
4,50,85,16
4,46,84,0
4,55,78,4
4,45,77,70
4,49,84,0
4,55,73,0
4,50,76,60
4,45,70,0
4,53,71,4
4,57,57,32
4,60,75,0
4,64,56,0
4,57,60,2778
4,62,46,4
4,60,61,10
4,53,50,0
4,57,54,2642
4,58,62,0
4,65,61,4
4,62,61,4
4,57,46,1048
4,60,66,8
4,64,59,2
4,57,70,986
4,62,61,6
4,53,53,12
4,57,78,96
4,53,85,0
4,62,80,0
4,60,77,0
4,57,88,126
4,60,90,0
4,64,82,0
4,58,77,342
4,65,65,0
4,57,64,6
4,62,71,4
4,64,65,262
4,60,78,4
4,55,76,4
4,57,61,270
4,62,67,8
4,60,67,4
4,53,63,4
4,57,67,90
4,64,73,4
4,60,84,0
4,65,52,306
4,58,64,8
4,62,59,0
4,57,55,6
4,60,76,306
4,64,49,0
4,55,56,8
4,57,57,1160
4,60,75,0
4,64,56,0
4,57,60,2778
4,62,46,4
4,60,61,10
4,53,50,0
4,57,54,2642
4,58,62,0
4,65,61,4
4,62,61,4
4,57,46,1048
4,60,66,8
4,64,59,2
4,57,70,986
4,62,61,6
4,53,53,12
4,57,57,96
4,60,75,0
4,64,56,0
4,57,60,2778
4,62,46,4
4,60,61,10
4,53,50,0
4,57,54,2642
4,58,62,0
4,65,61,4
4,62,61,4
4,57,46,1048
4,60,66,8
4,64,59,2
4,57,70,986
4,62,61,6
4,53,53,12
4,57,78,96
4,53,85,0
4,62,80,0
4,60,77,0
4,57,88,126
4,60,90,0
4,64,82,0
4,58,77,342
4,65,65,0
4,57,64,6
4,62,71,4
4,64,65,262
4,60,78,4
4,55,76,4
4,57,61,270
4,62,67,8
4,60,67,4
4,53,63,4
4,57,78,30
4,53,85,0
4,62,80,0
4,60,77,0
4,57,88,126
4,60,90,0
4,64,82,0
4,58,77,342
4,65,65,0
4,57,64,6
4,62,71,4
4,64,65,262
4,60,78,4
4,55,76,4
4,57,61,270
4,62,67,8
4,60,67,4
4,53,63,4
4,57,67,104
4,64,73,2
4,60,84,0
4,65,52,308
4,58,64,6
4,62,59,0
4,57,55,6
4,60,76,308
4,64,49,0
4,55,56,6
4,57,67,4
4,64,73,2
4,60,84,0
4,65,52,14
4,58,64,6
4,62,59,0
4,57,55,6
4,60,76,62
4,64,49,0
4,55,56,6
4,57,67,4
4,64,73,2
4,60,84,0
4,65,52,14
4,58,64,6
4,62,59,0
4,57,55,6
4,60,76,62
4,64,49,0
4,55,56,6
6,65,82,646
6,69,101,16
6,72,86,30
6,74,92,16
6,69,77,2084
6,70,101,20
6,77,100,26
6,74,73,0
6,69,71,1336
6,72,92,22
6,76,98,22
6,65,80,992
6,69,89,36
6,72,77,12
6,74,83,32
6,65,82,646
6,69,101,16
6,72,86,30
6,74,92,16
6,69,77,2084
6,70,101,20
6,77,100,26
6,74,73,0
6,69,71,1336
6,72,92,22
6,76,98,22
6,65,80,992
6,69,89,36
6,72,77,12
6,74,83,32
6,65,82,646
6,69,101,16
6,72,86,30
6,74,92,16
6,69,77,2084
6,70,101,20
6,77,100,26
6,74,73,0
6,69,71,1336
6,72,92,22
6,76,98,22
6,65,80,992
6,69,89,36
6,72,77,12
6,74,83,32
6,65,82,646
6,69,101,16
6,72,86,30
6,74,92,16
6,69,77,2084
6,70,101,20
6,77,100,26
6,74,73,0
6,69,71,1336
6,72,92,22
6,76,98,22
6,65,80,992
6,69,89,36
6,72,77,12
6,74,83,32
6,65,82,646
6,69,101,16
6,72,86,30
6,74,92,16
6,69,77,2084
6,70,101,20
6,77,100,26
6,74,73,0
6,69,71,1336
6,72,92,22
6,76,98,22
6,65,80,992
6,69,89,36
6,72,77,12
6,74,83,32
6,65,82,646
6,69,101,16
6,72,86,30
6,74,92,16
6,69,77,2084
6,70,101,20
6,77,100,26
6,74,73,0
6,69,71,1336
6,72,92,22
6,76,98,22
6,65,80,992
6,69,89,36
6,72,77,12
6,74,83,32
7,76,82,6
7,72,107,0
7,69,98,0
7,74,90,722
7,69,90,0
7,65,82,4
7,72,82,0
7,70,100,512
7,74,86,4
7,77,86,0
7,69,84,0
7,76,86,652
7,69,89,0
7,72,107,4
7,67,85,0
7,69,94,396
7,72,89,4
7,74,96,2
7,65,103,4
7,76,82,964
7,72,107,0
7,69,98,0
7,74,90,722
7,69,90,0
7,65,82,4
7,72,82,0
7,70,100,512
7,74,86,4
7,77,86,0
7,69,84,0
7,76,86,652
7,69,89,0
7,72,107,4
7,67,85,0
7,69,94,396
7,72,89,4
7,74,96,2
7,65,103,4
7,76,82,964
7,72,107,0
7,69,98,0
7,74,90,722
7,69,90,0
7,65,82,4
7,72,82,0
7,70,100,512
7,74,86,4
7,77,86,0
7,69,84,0
7,76,86,652
7,67,89,0
7,72,107,4
7,67,85,0
7,69,94,422
7,72,89,4
7,74,96,2
7,65,103,4
7,74,103,958
7,79,116,0
7,82,116,0
7,82,92,264
7,76,98,2
7,72,94,0
7,77,89,194
7,81,90,4
7,72,88,0
7,70,88,214
7,74,92,0
7,81,86,0
7,74,94,342
7,70,90,4
