track,note,velocity,time
0,67,100,1945
0,64,106,65
0,60,96,55
0,57,88,65
0,67,0,41
0,38,96,9
0,76,64,28
0,35,112,0
0,81,127,2
0,77,127,0
0,38,122,3
0,50,36,0
0,77,96,0
0,81,96,2
0,84,62,0
0,86,127,3
0,35,0,30
0,76,0,0
0,84,0,7
0,64,0,106
0,42,96,87
0,63,64,0
0,57,70,2
0,62,50,0
0,65,88,3
0,62,50,0
0,50,0,16
0,60,0,0
0,42,0,19
0,63,0,0
0,57,0,2
0,62,0,0
0,65,0,3
0,62,0,0
0,57,0,71
0,62,70,6
0,62,0,40
0,38,0,61
0,38,112,17
0,35,112,0
0,33,100,2
0,35,0,38
0,38,0,0
0,62,92,82
0,57,96,0
0,69,88,3
0,62,60,0
0,57,0,37
0,62,0,0
0,62,0,4
0,69,0,17
0,42,96,57
0,61,48,0
0,67,96,2
0,62,60,0
0,61,0,38
0,42,0,0
0,62,0,2
0,67,0,14
0,33,0,152
0,35,112,32
0,42,96,0
0,76,96,0
0,57,100,2
0,38,100,0
0,62,68,3
0,65,110,0
0,60,68,0
0,62,84,2
0,76,0,33
0,42,0,0
0,35,0,0
0,57,0,2
0,60,0,3
0,62,0,0
0,62,0,123
0,65,0,68
0,62,64,4
0,42,96,0
0,67,56,2
0,42,0,38
0,62,0,0
0,67,0,8
0,38,0,48
0,57,100,26
0,62,78,0
0,69,74,0
0,62,42,3
0,69,0,37
0,62,0,0
0,57,0,0
0,62,0,3
0,38,0,51
0,38,112,24
0,35,112,0
0,54,127,0
0,33,92,2
0,54,0,38
0,35,0,0
0,38,0,0
0,42,80,200
0,57,110,2
0,62,100,0
0,65,100,3
0,62,80,0
0,42,0,35
0,62,0,5
0,65,0,0
0,42,64,75
0,42,0,40
0,62,0,13
0,57,0,18
0,81,0,0
0,33,0,20
0,77,0,12
0,35,112,17
0,76,64,0
0,50,88,2
0,38,110,0
0,77,56,3
0,81,66,0
0,76,0,35
0,35,0,0
0,50,0,136
0,42,96,64
0,63,64,0
0,57,106,2
0,62,92,0
0,62,70,3
0,65,88,0
0,63,0,35
0,42,0,0
0,57,0,3
0,62,0,2
0,65,0,0
0,62,0,11
0,57,68,66
0,62,44,0
0,62,0,41
0,57,0,5
0,38,0,25
0,35,112,47
0,38,112,0
0,33,106,2
0,38,0,38
0,35,0,0
0,62,100,82
0,57,100,0
0,65,84,3
0,62,62,0
0,57,0,38
0,62,0,2
0,65,0,0
0,62,0,8
0,61,48,67
0,42,96,0
0,42,0,40
0,61,0,0
0,81,0,43
0,62,78,39
0,57,100,0
0,57,0,40
0,62,0,0
0,77,0,9
0,33,0,45
0,76,96,24
0,35,112,0
0,42,96,0
0,62,78,2
0,65,110,0
0,38,110,0
0,79,74,3
0,76,78,0
0,42,0,35
0,76,0,0
0,35,0,0
0,57,92,82
0,57,0,41
0,65,0,13
0,62,0,17
0,42,96,47
0,62,64,0
0,67,74,2
0,64,68,0
0,38,0,21
0,62,0,17
0,42,0,0
0,67,0,8
0,64,0,0
0,69,96,74
0,65,74,0
0,38,70,0
0,65,0,40
0,69,0,0
0,38,0,74
0,38,112,4
0,35,112,0
0,54,127,0
0,57,80,2
0,31,106,0
0,62,78,0
0,54,0,38
0,35,0,0
0,38,0,0
0,57,0,3
0,62,0,0
0,42,80,197
0,62,70,2
0,57,100,0
0,38,110,0
0,31,0,1
0,65,88,2
0,42,0,35
0,57,0,2
0,62,0,0
0,65,0,14
0,77,0,40
0,42,64,24
0,62,110,2
0,57,106,0
0,62,74,3
0,67,68,0
0,42,0,35
0,67,0,5
0,62,0,6
0,62,0,10
0,57,0,2
0,38,0,0
0,82,127,19
0,79,127,10
0,81,0,4
0,79,0,0
0,76,64,24
0,35,112,0
0,31,110,2
0,65,66,0
0,74,78,3
0,77,96,0
0,76,0,3
0,76,0,32
0,35,0,0
0,65,0,2
0,63,64,198
0,42,96,0
0,62,96,2
0,65,74,0
0,58,98,0
0,62,32,3
0,42,0,35
0,63,0,0
0,58,0,2
0,65,0,0
0,62,0,3
0,62,0,8
0,58,84,69
0,62,70,0
0,62,0,41
0,58,0,0
0,31,0,40
0,35,112,37
0,38,112,0
0,26,106,2
0,38,0,38
0,35,0,0
0,62,70,82
0,58,98,0
0,62,100,3
0,69,110,0
0,62,0,37
0,69,0,9
0,58,0,2
0,62,0,3
0,42,96,64
0,61,48,0
0,67,92,2
0,62,44,0
0,61,0,38
0,42,0,0
0,62,0,2
0,67,0,14
0,26,0,137
0,42,96,47
0,76,96,0
0,35,112,0
0,61,30,2
0,31,116,0
0,58,106,0
0,65,116,3
0,62,58,0
0,62,92,2
0,35,0,33
0,76,0,0
0,42,0,0
0,61,0,2
0,62,0,3
0,58,0,8
0,62,0,120
0,65,0,28
0,62,64,39
0,42,96,0
0,67,68,2
0,42,0,38
0,62,0,0
0,67,0,8
0,69,84,74
0,58,106,0
0,62,60,3
0,62,0,40
0,58,0,1
0,69,0,0
0,31,0,50
0,38,112,24
0,54,127,0
0,35,112,0
0,26,100,2
0,35,0,38
0,54,0,0
0,38,0,0
0,42,80,200
0,62,116,2
0,58,126,0
0,61,78,0
0,65,96,3
0,62,84,0
0,42,0,35
0,61,0,2
0,65,0,3
0,62,0,0
0,42,64,75
0,62,0,6
0,79,0,5
0,58,0,25
0,42,0,4
0,77,0,6
0,77,127,9
0,26,0,21
0,35,112,44
0,76,64,0
0,65,84,2
0,36,96,0
0,74,0,34
0,35,0,4
0,76,0,0
0,63,64,200
0,42,96,0
0,58,106,2
0,62,80,0
0,62,50,3
0,65,80,0
0,42,0,35
0,63,0,0
0,58,0,3
0,65,0,2
0,62,0,0
0,62,0,3
0,58,78,74
0,62,78,0
0,58,0,46
0,62,0,5
0,36,0,23
0,35,112,44
0,38,112,0
0,31,116,2
0,38,0,38
0,35,0,0
0,65,84,82
0,58,106,0
0,62,100,0
0,62,50,3
0,58,0,38
0,62,0,2
0,65,0,6
0,62,0,2
0,42,96,67
0,61,48,0
0,61,0,40
0,42,0,0
0,77,0,71
0,76,127,66
0,31,0,11
0,35,112,52
0,76,96,0
0,42,96,0
0,36,92,2
0,62,80,0
0,58,98,0
0,60,68,3
0,65,80,0
0,64,68,2
0,42,0,33
0,76,0,0
0,35,0,0
0,58,0,3
0,62,0,5
0,60,0,0
0,65,0,0
0,65,0,5
0,62,64,187
0,42,96,0
0,60,62,2
0,65,78,0
0,36,0,34
0,42,0,4
0,62,0,0
0,60,0,2
0,65,0,9
0,58,44,71
0,36,78,0
0,62,66,0
0,62,0,40
0,58,0,0
0,36,0,71
0,35,112,7
0,54,127,0
0,38,112,0
0,31,110,2
0,60,70,0
0,65,78,3
0,38,0,35
0,54,0,0
0,35,0,0
0,65,0,36
0,60,0,10
0,62,62,36
0,67,80,0
0,62,0,41
0,67,0,5
0,42,80,72
0,58,98,2
0,62,100,0
0,33,106,0
0,31,0,31
0,42,0,7
0,76,0,56
0,42,64,24
0,67,88,2
0,62,68,0
0,42,0,38
0,62,0,6
0,67,0,10
0,62,0,10
0,77,127,4
0,81,127,12
0,82,0,6
0,64,0,5
0,58,0,8
0,33,0,2
0,76,64,17
0,35,112,0
0,38,110,2
0,81,80,0
0,77,84,0
0,49,90,3
0,35,0,35
0,76,0,0
0,49,0,5
0,42,96,195
0,63,64,0
0,62,84,2
0,57,106,0
0,62,58,3
0,65,66,0
0,63,0,35
0,42,0,0
0,57,0,3
0,65,0,2
0,62,0,3
0,62,0,0
0,57,80,74
0,62,84,0
0,57,0,59
0,62,0,5
0,38,0,2
0,35,112,52
0,38,112,0
0,33,100,2
0,38,0,38
0,35,0,0
0,62,92,82
0,57,96,0
0,65,96,3
0,62,78,0
0,62,0,40
0,65,0,1
0,57,0,0
0,62,0,5
0,61,48,69
0,42,96,0
0,42,0,40
0,61,0,0
0,33,0,188
0,35,112,12
0,42,96,0
0,76,96,0
0,38,110,2
0,57,96,0
0,62,74,0
0,65,106,3
0,62,88,0
0,76,0,35
0,42,0,0
0,35,0,0
0,57,0,2
0,62,0,4
0,62,0,110
0,65,0,80
0,42,96,4
0,62,64,0
0,62,66,2
0,67,84,0
0,57,62,0
0,62,0,38
0,42,0,0
0,62,0,2
0,57,0,0
0,67,0,14
0,62,66,66
0,57,68,0
0,62,66,3
0,69,106,0
0,62,0,40
0,69,0,3
0,62,0,5
0,57,0,0
0,38,0,23
0,35,112,44
0,54,127,0
0,38,112,0
0,33,92,2
0,38,0,38
0,54,0,0
0,35,0,0
0,62,74,82
0,57,100,0
0,57,0,41
0,62,0,0
0,42,80,77
0,65,74,2
0,62,52,0
0,42,0,38
0,62,0,2
0,65,0,1
0,42,64,77
0,81,0,1
0,62,106,1
0,57,106,0
0,77,0,31
0,42,0,7
0,57,0,8
0,62,0,5
0,33,0,63
0,76,64,4
0,35,112,0
0,38,116,2
0,62,42,0
0,81,92,3
0,77,96,0
0,35,0,35
0,76,0,0
0,62,0,2
0,63,64,198
0,42,96,0
0,62,84,2
0,57,100,0
0,65,70,0
0,62,66,3
0,42,0,35
0,63,0,0
0,62,0,2
0,65,0,0
0,57,0,1
0,62,0,2
0,57,66,77
0,62,56,0
0,62,0,40
0,57,0,0
0,38,0,46
0,38,112,32
0,35,112,0
0,33,100,2
0,35,0,38
0,38,0,0
0,57,70,82
0,62,66,0
0,62,92,3
0,69,106,0
0,62,0,37
0,57,0,0
0,62,0,9
0,69,0,0
0,42,96,69
0,61,48,0
0,62,46,2
0,67,74,0
0,61,0,38
0,42,0,0
0,62,0,2
0,67,0,6
0,81,0,95
0,77,0,53
0,33,0,10
0,76,96,34
0,35,112,0
0,42,96,0
0,57,100,2
0,38,110,0
0,62,74,3
0,62,96,0
0,65,116,0
0,76,78,2
0,79,66,0
0,42,0,33
0,76,0,0
0,35,0,0
0,57,0,3
0,62,0,2
0,62,0,103
0,65,0,33
0,42,96,59
0,62,64,0
0,67,78,2
0,38,0,26
0,62,0,12
0,42,0,0
0,67,0,13
0,62,96,69
0,38,88,0
0,57,100,0
0,69,106,3
0,62,84,0
0,57,0,37
0,62,0,1
0,69,0,2
0,62,0,0
0,35,112,75
0,38,112,0
0,54,127,0
0,33,84,2
0,38,0,14
0,54,0,24
0,38,0,0
0,35,0,0
0,33,0,188
0,42,80,12
0,57,100,2
0,62,100,0
0,38,100,0
0,62,42,3
0,65,70,0
0,42,0,35
0,65,0,5
0,62,0,0
0,77,0,68
0,42,64,7
0,42,0,40
0,82,127,42
0,38,0,4
0,79,0,5
0,62,0,2
0,76,0,3
0,79,127,1
0,81,0,14
0,35,112,9
0,76,64,0
0,31,110,2
0,77,96,3
0,74,68,0
0,57,0,8
0,35,0,27
0,76,0,0
0,63,64,200
0,42,96,0
0,67,70,2
0,58,116,0
0,62,100,0
0,62,62,3
0,42,0,35
0,63,0,0
0,67,0,2
0,58,0,1
0,62,0,2
0,62,0,16
0,58,84,61
0,62,70,0
0,62,0,51
0,58,0,3
0,31,0,47
0,35,112,17
0,38,112,0
0,26,106,2
0,38,0,38
0,35,0,0
0,58,106,82
0,62,70,0
0,67,74,3
0,62,70,0
0,62,0,37
0,67,0,4
0,58,0,2
0,62,0,3
0,61,48,69
0,42,96,0
0,42,0,40
0,61,0,0
0,76,96,200
0,42,96,0
0,35,112,0
0,58,98,2
0,62,74,0
0,31,116,0
0,65,96,3
0,62,62,0
0,26,0,1
0,35,0,34
0,42,0,0
0,76,0,0
0,62,0,2
0,62,0,3
0,65,0,3
0,58,0,3
0,62,64,189
0,42,96,0
0,42,0,40
0,62,0,0
0,58,98,82
0,62,68,0
0,65,80,0
0,62,66,3
0,62,0,37
0,58,0,0
0,62,0,3
0,65,0,3
0,31,0,55
0,38,112,17
0,35,112,0
0,26,106,2
0,35,0,38
0,38,0,0
0,65,62,82
0,65,0,40
0,42,80,78
0,62,14,2
0,58,84,0
0,67,106,3
0,62,92,0
0,42,0,35
0,58,0,2
0,62,0,0
0,67,0,29
0,62,0,20
0,42,64,29
0,77,0,1
0,62,62,1
0,58,78,0
0,65,74,3
0,42,0,35
0,58,0,2
0,62,0,0
0,65,0,3
0,79,0,3
0,77,127,17
0,26,0,11
0,76,64,44
0,35,112,0
0,36,110,2
0,67,32,0
0,70,44,3
0,74,0,31
0,76,0,4
0,35,0,0
0,63,64,200
0,42,96,0
0,62,96,2
0,65,60,0
0,58,98,0
0,62,32,3
0,42,0,35
0,63,0,0
0,65,0,2
0,62,0,0
0,58,0,0
0,62,0,3
0,62,96,77
0,58,90,0
0,62,0,41
0,58,0,10
0,36,0,10
0,35,112,57
0,38,112,0
0,31,100,2
0,38,0,38
0,35,0,0
0,62,92,82
0,58,98,0
0,65,60,0
0,62,16,3
0,65,0,37
0,58,0,0
0,62,0,3
0,62,0,1
0,42,96,74
0,61,48,0
0,61,0,40
0,42,0,0
0,67,0,81
0,76,127,71
0,31,0,16
0,77,0,0
0,70,0,3
0,35,112,29
0,76,96,0
0,42,96,0
0,36,106,2
0,62,62,0
0,72,74,3
0,65,70,0
0,60,52,0
0,67,50,2
0,42,0,33
0,35,0,0
0,76,0,0
0,62,0,2
0,60,0,3
0,65,0,0
0,42,96,195
0,62,64,0
0,62,0,40
0,42,0,0
0,36,0,8
0,62,68,74
0,36,88,0
0,58,106,0
0,65,62,3
0,60,60,0
0,58,0,37
0,62,0,0
0,65,0,3
0,60,0,0
0,35,112,75
0,38,112,0
0,36,0,1
0,41,122,1
0,31,100,0
0,38,0,38
0,35,0,0
0,41,0,2
0,42,80,198
0,33,96,2
0,58,90,0
0,62,100,0
0,65,16,3
0,31,0,18
0,42,0,17
0,65,0,5
0,58,0,31
0,62,0,20
0,76,0,5
0,42,64,19
0,42,0,40
0,67,0,31
0,81,127,11
0,82,0,6
0,77,127,9
0,72,0,16
0,33,0,0
0,35,112,7
0,76,64,0
0,65,8,2
0,62,2,0
0,38,116,0
0,49,78,3
0,76,0,35
0,35,0,0
0,49,0,5
0,69,126,2
0,63,64,193
0,42,96,0
0,65,68,2
0,62,88,0
0,57,100,0
0,62,68,3
0,42,0,35
0,63,0,0
0,67,106,2
0,65,0,0
0,57,0,1
0,62,0,2
0,62,0,1
0,69,0,20
0,57,52,56
0,62,88,0
0,57,0,40
0,38,0,4
0,62,0,5
0,35,112,69
0,38,112,0
0,33,96,2
0,67,0,19
0,65,106,6
0,38,0,13
0,35,0,0
0,57,100,82
0,62,96,0
0,57,0,40
0,62,0,9
0,42,96,69
0,61,48,0
0,65,0,1
0,65,62,1
0,62,42,0
0,67,96,20
0,61,0,18
0,42,0,0
0,62,0,2
0,65,0,4
0,33,0,165
0,42,96,29
0,76,96,0
0,35,112,0
0,57,96,2
0,38,96,0
0,62,70,0
0,67,0,11
0,62,106,24
0,35,0,3
0,76,0,0
0,42,0,0
0,62,0,2
0,57,0,1
0,42,96,197
0,62,64,0
0,65,58,2
0,62,38,0
0,62,0,38
0,42,0,0
0,62,0,8
0,65,0,5
0,62,62,69
0,57,96,0
0,57,0,40
0,62,0,0
0,38,0,51
0,38,112,27
0,35,112,0
0,33,88,2
0,35,0,38
0,38,0,0
0,42,80,200
0,62,84,2
0,57,96,0
0,65,68,3
0,62,44,0
0,42,0,35
0,62,0,5
0,65,0,1
0,42,64,74
0,42,0,40
0,62,0,73
0,33,0,3
0,35,112,4
0,76,64,0
0,38,100,2
0,76,0,38
0,35,0,0
0,57,0,8
0,62,0,148
0,42,96,44
0,63,64,0
0,57,80,2
0,62,48,0
0,65,74,3
0,62,58,0
0,63,0,35
0,42,0,0
0,57,0,2
0,62,0,0
0,65,0,19
0,62,0,10
0,57,60,51
0,62,38,0
0,62,8,3
0,65,38,0
0,62,0,40
0,62,0,3
0,57,0,5
0,65,0,3
0,65,0,5
0,38,0,0
0,35,112,59
0,38,112,0
0,33,96,2
0,50,66,0
0,38,0,38
0,35,0,0
0,50,0,2
0,57,52,80
0,57,0,40
0,62,0,54
0,42,96,24
0,61,48,0
