track,note,velocity,time
0,62,32,1125
0,38,63,124
0,38,0,33
0,38,75,47
0,38,0,33
0,38,105,47
0,38,0,33
0,50,40,340
0,57,44,47
0,62,50,27
0,69,100,15
0,62,100,1
0,74,100,0
0,38,95,0
0,64,58,0
0,49,42,0
0,35,95,0
0,84,34,0
0,74,65,0
0,62,0,2
0,62,40,1
0,53,40,3
0,57,40,0
0,62,125,6
0,69,43,2
0,49,0,15
0,35,0,0
0,84,0,0
0,69,0,19
0,38,76,188
0,65,35,0
0,65,65,0
0,74,0,17
0,69,43,1
0,38,0,15
0,69,0,19
0,37,100,188
0,38,94,0
0,69,35,0
0,69,65,0
0,65,0,11
0,65,0,0
0,69,46,7
0,37,0,15
0,38,0,0
0,69,0,19
0,35,85,188
0,62,35,0
0,62,65,0
0,69,0,6
0,69,0,0
0,69,40,12
0,35,0,15
0,69,0,19
0,64,0,41
0,62,0,55
0,57,0,20
0,35,95,4
0,74,65,0
0,69,40,18
0,35,0,15
0,69,0,19
0,65,35,90
0,65,65,0
0,74,0,1
0,69,40,17
0,69,0,34
0,37,100,160
0,64,85,0
0,69,35,0
0,69,65,0
0,65,0,5
0,65,0,0
0,69,49,13
0,37,0,15
0,64,0,0
0,69,0,19
0,64,85,70
0,69,0,0
0,62,35,0
0,69,0,0
0,62,65,0
0,69,43,18
0,64,0,15
0,69,0,19
0,35,95,140
0,74,65,0
0,62,0,12
0,62,0,0
0,69,43,6
0,74,112,31
0,74,0,17
0,38,76,2
0,62,127,0
0,65,35,0
0,65,65,0
0,69,43,18
0,38,0,15
0,69,0,19
0,76,114,90
0,74,0,8
0,38,94,19
0,37,100,0
0,64,127,0
0,69,35,0
0,69,65,0
0,65,0,1
0,65,0,0
0,69,46,17
0,38,0,15
0,37,0,0
0,77,114,10
0,76,0,10
0,69,0,8
0,69,0,0
0,35,85,2
0,65,127,0
0,62,35,0
0,62,65,0
0,69,40,18
0,35,0,15
0,69,0,19
0,35,95,110
0,74,65,0
0,62,0,3
0,62,0,0
0,69,40,15
0,35,0,15
0,79,116,100
0,77,0,15
0,67,127,0
0,65,35,0
0,65,65,0
0,74,0,13
0,69,40,5
0,53,0,7
0,62,0,2
0,57,0,3
0,69,0,22
0,67,0,81
0,81,117,38
0,79,0,12
0,37,100,40
0,64,85,0
0,69,127,0
0,69,35,0
0,69,65,0
0,65,0,5
0,65,0,0
0,69,49,13
0,37,0,15
0,64,0,0
0,69,0,19
0,64,85,143
0,62,35,0
0,62,65,0
0,69,0,11
0,69,0,0
0,69,43,7
0,64,0,15
0,69,0,19
0,55,72,35
0,62,80,15
0,58,67,29
0,82,124,11
0,65,102,7
0,70,125,9
0,62,70,15
0,62,40,0
0,55,40,1
0,58,40,1
0,81,0,7
0,38,0,7
0,62,0,5
0,67,74,2
0,31,95,0
0,35,95,0
0,74,65,0
0,70,118,3
0,43,90,2
0,69,43,3
0,38,78,0
0,67,35,0
0,67,65,0
0,69,43,3
0,38,76,0
0,37,100,0
0,70,35,0
0,70,65,0
0,67,0,7
0,67,0,0
0,69,46,11
0,37,0,15
0,69,0,19
0,35,85,3
0,55,83,0
0,62,35,0
0,62,65,0
0,69,40,18
0,35,0,15
0,35,95,0
0,74,65,0
0,69,40,18
0,50,77,42
0,67,35,0
0,67,65,0
0,74,0,8
0,69,40,8
0,69,0,34
0,64,85,0
0,37,100,0
0,55,77,0
0,70,35,0
0,70,65,0
0,67,0,3
0,67,0,0
0,69,49,15
0,64,85,2
0,50,77,0
0,62,35,0
0,62,65,0
0,69,43,18
0,64,0,15
0,35,95,0
0,43,81,0
0,74,65,0
0,69,43,3
0,38,76,0
0,67,35,0
0,67,65,0
0,69,43,3
0,37,100,0
0,70,35,0
0,70,65,0
0,67,0,2
0,67,0,0
0,69,46,16
0,35,85,12
0,62,35,0
0,62,65,0
0,69,40,18
0,35,0,15
0,69,0,19
0,57,40,1
0,43,0,1
0,62,40,1
0,53,40,1
0,81,105,1
0,69,125,1
0,38,95,0
0,35,95,0
0,50,127,0
0,57,127,0
0,62,127,0
0,65,127,0
0,69,35,0
0,69,65,0
0,62,0,1
0,82,0,0
0,62,0,0
0,69,40,17
0,35,0,15
0,69,0,19
0,65,35,70
0,65,65,0
0,57,0,13
0,69,0,3
0,53,0,0
0,69,0,0
0,69,40,2
0,62,0,0
0,69,0,34
0,37,100,0
0,64,85,0
0,69,35,0
0,69,65,0
0,69,49,18
0,65,0,10
0,65,0,0
0,37,0,5
0,64,0,0
0,69,0,19
0,69,0,179
0,69,0,0
0,64,85,9
0,62,35,0
0,62,65,0
0,69,43,18
0,64,0,15
0,69,0,19
0,48,58,50
0,79,110,1
0,38,76,17
0,81,0,26
0,50,0,2
0,52,60,2
0,38,0,3
0,52,40,8
0,60,40,2
0,55,40,3
0,57,0,14
0,55,74,3
0,67,125,2
0,36,100,0
0,35,95,0
0,55,76,0
0,64,96,0
0,60,102,0
0,67,50,0
0,67,65,0
0,58,84,0
0,69,43,3
0,38,79,0
0,64,35,0
0,64,65,0
0,69,43,1
0,38,73,68
0,38,0,33
0,37,100,0
0,64,0,0
0,67,35,0
0,64,0,0
0,67,65,0
0,69,46,18
0,37,0,15
0,69,0,19
0,38,85,68
0,38,0,33
0,67,0,72
0,67,0,0
0,35,85,15
0,48,113,0
0,60,35,0
0,60,65,0
0,69,40,18
0,35,0,15
0,69,0,19
0,35,95,0
0,72,65,0
0,69,40,18
0,60,0,2
0,60,0,0
0,35,0,13
0,69,0,19
0,48,0,178
0,64,35,10
0,64,65,0
0,72,0,2
0,52,0,9
0,55,0,2
0,58,0,3
0,69,40,2
0,69,0,34
0,37,100,0
0,64,85,0
0,67,35,0
0,67,65,0
0,69,49,18
0,64,0,9
0,64,0,0
0,37,0,6
0,64,0,0
0,69,0,19
0,67,0,183
0,67,0,0
0,64,85,5
0,60,35,0
0,60,65,0
0,69,43,18
0,64,0,15
0,69,0,19
0,35,95,0
0,72,65,0
0,48,0,2
0,60,0,1
0,60,0,0
0,69,43,3
0,60,127,0
0,64,35,0
0,64,65,0
0,72,0,2
0,69,43,8
0,69,0,34
0,60,0,89
0,37,100,0
0,62,127,0
0,67,35,0
0,67,65,0
0,64,0,6
0,64,0,0
0,69,46,12
0,37,0,15
0,69,0,19
0,62,0,65
0,35,85,123
0,64,127,0
0,60,35,0
0,60,65,0
0,67,0,7
0,67,0,0
0,69,40,11
0,35,0,15
0,69,0,19
0,35,95,0
0,72,65,0
0,60,0,10
0,60,0,0
0,69,40,8
0,64,0,12
0,35,0,3
0,69,0,19
0,38,79,188
0,65,127,0
0,64,35,0
0,64,65,0
0,72,0,15
0,69,40,3
0,38,0,15
0,69,0,19
0,38,85,68
0,37,100,0
0,64,85,0
0,67,127,0
0,67,35,0
0,67,65,0
0,69,49,18
0,64,0,5
0,64,0,0
0,37,0,10
0,64,0,0
0,38,85,5
0,64,85,5
0,67,0,0
0,60,35,0
0,67,0,0
0,60,65,0
0,69,43,8
0,50,48,7
0,53,52,11
0,38,88,5
0,57,60,3
0,62,40,1
0,57,40,1
0,53,40,0
0,62,74,3
0,26,115,0
0,35,95,0
0,65,102,0
0,57,84,0
0,62,96,0
0,69,65,0
0,76,107,3
0,64,125,8
0,69,43,7
0,69,90,0
0,60,0,3
0,60,0,0
0,79,0,1
0,38,72,188
0,65,70,0
0,65,65,0
0,69,0,6
0,69,43,12
0,69,0,7
0,38,0,8
0,69,0,19
0,38,72,68
0,38,0,33
0,37,100,87
0,69,35,0
0,69,65,0
0,69,46,18
0,65,0,2
0,65,0,0
0,37,0,13
0,69,0,19
0,53,0,56
0,57,0,0
0,50,0,5
0,62,0,3
0,35,85,5
0,50,121,0
0,62,35,0
0,62,65,0
0,69,40,18
0,35,0,15
0,69,0,19
0,35,95,188
0,74,65,0
0,69,40,11
0,62,0,3
0,62,0,0
0,65,35,5
0,65,65,0
0,74,0,2
0,69,40,7
0,64,85,14
0,37,100,0
0,69,35,0
0,69,65,0
0,65,0,6
0,65,0,0
0,69,49,12
0,64,0,15
0,37,0,0
0,64,85,3
0,62,35,0
0,62,65,0
0,69,43,11
0,64,0,15
0,69,0,19
0,38,79,22
0,38,0,33
0,35,95,80
0,74,65,0
0,62,0,10
0,62,0,0
0,69,43,8
0,38,84,3
0,65,35,0
0,65,65,0
0,69,43,1
0,38,94,10
0,37,100,17
0,69,35,0
0,69,65,0
0,69,46,3
0,65,0,3
0,65,0,0
0,55,40,6
0,88,35,0
0,93,40,0
0,35,85,0
0,67,127,0
0,62,96,0
0,64,98,0
0,60,98,0
0,57,92,0
0,60,90,0
0,62,65,0
0,69,40,15
0,69,0,0
0,69,0,0
0,35,0,15
0,35,95,7
0,74,65,0
0,69,40,8
0,62,0,4
0,38,90,0
0,67,127,0
0,64,113,0
0,60,127,0
0,57,118,0
0,62,127,0
0,60,90,0
0,65,65,0
0,69,40,3
0,74,0,0
0,38,81,0
0,38,99,0
0,64,85,0
0,38,127,0
0,69,65,0
0,69,49,2
0,64,85,14
0,62,65,0
0,69,43,1
0,62,105,0
0,38,103,0
0,81,44,0
0,35,95,0
0,60,0,0
0,62,108,0
0,50,86,0
0,57,92,0
0,38,102,0
0,65,108,0
0,62,70,0
0,53,35,0
0,50,35,0
0,57,35,0
0,62,0,1
0,55,0,0
0,69,43,2
0,64,0,7
0,38,63,0
0,69,43,12
0,37,100,4
0,38,74,0
0,69,46,7
0,65,105,0
0,35,85,0
0,69,40,18
0,35,0,15
0,35,95,22
0,50,74,0
0,62,0,2
0,57,0,8
0,69,40,8
0,35,0,15
0,69,0,19
0,38,60,188
0,64,127,0
0,62,116,0
0,57,118,0
0,69,40,18
0,38,0,15
0,69,0,19
0,38,66,68
0,38,0,33
0,65,0,23
0,64,85,30
0,39,80,0
0,69,49,18
0,64,0,15
0,39,0,0
0,69,0,19
0,64,0,45
0,62,0,1
0,57,0,0
0,64,85,40
0,38,87,0
0,50,127,0
0,69,43,18
0,64,0,15
0,38,0,0
0,69,0,19
0,35,95,42
0,62,118,0
0,57,110,0
0,65,126,0
0,69,43,18
0,35,0,15
0,69,0,19
0,62,105,0
0,38,80,0
0,69,43,18
0,38,0,15
0,69,0,19
0,50,0,25
0,64,105,0
0,37,100,0
0,38,88,0
0,50,108,0
0,62,0,8
0,69,46,10
0,37,0,15
0,38,0,0
0,69,0,19
0,65,0,9
0,62,0,6
0,57,0,3
0,64,0,151
0,65,105,0
0,35,85,0
0,57,108,0
0,65,112,0
0,62,104,0
0,69,40,18
0,35,0,15
0,69,0,19
0,50,0,54
0,65,0,6
0,62,0,4
0,57,0,26
0,35,95,98
0,69,40,18
0,67,105,0
0,50,110,0
0,65,0,16
0,69,40,2
0,69,0,34
0,38,0,154
0,69,105,0
0,33,95,0
0,39,80,0
0,64,85,0
0,62,108,0
0,53,102,0
0,57,112,0
0,67,0,11
0,69,49,7
0,39,0,15
0,64,0,0
0,69,0,19
0,70,105,0
0,64,85,0
0,69,43,18
0,64,0,15
0,69,0,19
0,58,35,1
0,53,35,1
0,50,35,0
0,31,100,0
0,35,95,0
0,53,122,0
0,43,122,0
0,57,0,3
0,62,0,2
0,50,0,2
0,69,43,11
0,35,0,15
0,69,0,19
0,38,63,188
0,69,43,18
0,38,0,15
0,69,0,19
0,53,66,109
0,58,49,0
0,38,74,0
0,37,100,0
0,53,0,11
0,69,46,7
0,43,0,8
0,38,0,7
0,37,0,0
0,69,0,19
0,35,85,188
0,43,120,0
0,53,104,0
0,58,127,0
0,69,40,18
0,35,0,15
0,69,0,19
0,35,95,188
0,53,0,12
0,58,0,4
0,69,40,2
0,35,0,15
0,69,0,19
0,53,0,0
0,43,0,39
0,70,0,64
0,58,0,50
0,58,49,35
0,62,64,0
0,53,66,0
0,53,96,0
0,43,82,0
0,69,40,18
0,69,0,34
0,53,0,121
0,64,85,67
0,39,80,0
0,58,104,0
0,53,94,0
0,69,49,18
0,64,0,15
0,39,0,0
0,69,0,19
0,53,0,119
0,38,74,69
0,64,85,0
0,53,62,0
0,69,43,18
0,38,0,15
0,64,0,0
0,69,0,19
0,43,0,15
0,53,0,5
0,35,95,10
0,43,108,0
0,69,43,18
0,58,0,3
0,53,0,5
0,35,0,7
0,69,0,19
0,53,66,143
0,58,57,0
0,38,69,0
0,69,43,18
0,38,0,15
0,69,0,19
0,37,100,188
0,38,78,0
0,69,46,18
0,53,0,2
0,43,0,2
0,50,0,8
0,37,0,3
0,38,0,0
0,58,0,0
0,69,0,19
0,58,0,16
0,69,105,0
0,58,0,0
0,35,85,0
0,53,98,0
0,43,112,0
0,58,92,0
0,53,0,2
0,69,40,16
0,35,0,15
0,69,0,19
0,67,105,0
0,53,66,0
0,58,42,0
0,35,95,0
0,69,40,18
0,35,0,15
0,43,0,2
0,69,0,17
0,53,0,59
0,65,105,0
0,43,88,0
0,67,0,11
0,69,40,7
0,58,0,29
0,69,0,5
0,43,0,38
0,43,85,150
0,67,62,0
0,39,80,0
0,64,85,0
0,43,118,0
0,58,86,0
0,53,110,0
0,69,49,18
0,31,0,8
0,39,0,7
0,64,0,0
0,69,0,19
0,38,90,159
0,64,85,0
0,36,78,0
0,43,0,18
0,69,43,0
0,58,0,9
0,64,0,6
0,53,0,5
0,69,0,14
0,38,75,68
0,60,35,1
0,53,35,2
0,55,35,0
0,43,0,42
0,58,0,6
0,53,0,5
0,69,105,0
0,36,100,0
0,35,95,0
0,55,110,0
0,60,117,0
0,65,110,0
0,65,0,7
0,67,0,4
0,69,43,7
0,35,0,15
0,69,0,19
0,38,63,188
0,69,43,18
0,38,0,15
0,69,0,19
0,38,74,188
0,37,100,0
0,48,90,0
0,69,46,18
0,38,0,15
0,37,0,0
0,69,0,19
0,38,74,68
0,52,35,38
0,67,105,0
0,35,85,0
0,64,114,0
0,55,96,0
0,60,110,0
0,69,40,18
0,53,0,14
0,35,0,1
0,69,0,19
0,35,95,188
0,69,40,18
0,35,0,15
0,69,0,19
0,36,95,52
0,58,38,0
0,55,56,0
0,65,62,0
0,48,86,0
0,69,40,18
0,69,0,34
0,55,0,33
0,64,0,15
0,60,0,2
0,39,80,10
0,64,85,0
0,55,72,0
0,60,96,0
0,64,86,0
0,69,49,18
0,39,0,15
0,64,0,0
0,48,0,13
0,69,0,6
0,60,0,38
0,64,0,3
0,55,0,13
0,36,0,14
0,31,95,120
0,48,56,0
0,38,69,0
0,64,85,0
0,48,76,0
0,69,43,18
0,38,0,15
0,64,0,0
0,67,0,2
0,69,0,17
0,31,0,135
0,36,95,9
0,64,52,0
0,55,58,0
0,58,38,0
0,35,95,0
0,55,104,0
0,52,98,0
0,60,110,0
0,69,43,18
0,35,0,15
0,69,0,19
0,60,105,0
0,38,69,0
0,69,43,18
0,38,0,15
0,69,0,19
0,48,0,39
0,62,105,0
0,38,78,0
0,37,100,0
0,48,96,0
0,60,0,11
0,69,46,7
0,38,0,15
0,37,0,0
0,69,0,19
0,55,0,20
0,52,0,1
0,60,0,0
0,55,0,33
0,58,0,1
0,64,0,8
0,62,0,106
0,64,105,0
0,55,62,0
0,58,36,0
0,64,52,0
0,35,85,0
0,60,108,0
0,55,108,0
0,52,100,0
0,69,40,18
0,35,0,15
0,69,0,19
0,35,95,137
0,48,98,0
0,69,40,18
0,35,0,15
0,69,0,19
0,55,0,30
0,52,0,1
0,60,0,5
0,65,105,0
0,55,108,0
0,60,114,0
0,52,92,0
0,64,0,3
0,69,40,15
0,64,85,12
0,39,80,0
0,69,49,18
0,64,0,15
0,39,0,0
0,69,0,19
0,64,85,188
0,69,43,18
0,64,0,15
0,69,0,19
0,36,0,71
0,64,35,56
0,57,35,2
0,36,0,1
0,61,35,2
0,69,105,0
0,33,100,0
0,45,70,0
0,35,95,0
0,57,92,0
0,55,84,0
0,61,88,0
0,45,106,0
0,52,102,0
0,69,43,18
0,55,78,188
0,38,63,0
0,69,43,18
0,38,0,15
0,69,0,19
0,52,0,21
0,61,56,167
