track,note,velocity,time
0,57,78,572
0,57,119,0
0,62,116,0
0,59,77,204
0,59,119,0
0,62,117,0
0,69,42,202
0,62,74,2
0,57,118,0
0,62,118,0
0,38,117,0
0,35,117,0
0,42,86,0
0,69,61,194
0,38,76,2
0,42,88,0
0,69,44,122
0,39,126,2
0,38,125,0
0,42,89,0
0,62,78,152
0,57,115,4
0,62,116,0
0,69,62,14
0,42,87,2
0,69,41,2
0,35,116,2
0,42,87,0
0,57,76,200
0,57,115,4
0,62,116,0
0,69,62,14
0,42,87,2
0,69,62,58
0,59,77,2
0,59,118,0
0,62,118,0
0,39,127,0
0,38,112,0
0,42,87,0
0,69,60,74
0,42,90,2
0,69,41,122
0,62,75,2
0,57,116,0
0,62,119,0
0,35,118,0
0,42,90,0
0,69,60,74
0,38,79,2
0,42,86,0
0,69,44,122
0,59,78,2
0,59,115,0
0,62,116,0
0,39,127,0
0,38,123,0
0,42,86,0
0,69,61,74
0,42,87,2
0,69,41,82
0,57,74,2
0,57,116,0
0,62,119,0
0,35,116,0
0,42,88,0
0,69,58,74
0,42,90,2
0,69,58,122
0,59,77,2
0,59,117,0
0,62,118,0
0,39,127,0
0,38,115,0
0,42,86,0
0,35,118,60
0,69,61,10
0,42,89,2
0,69,40,122
0,62,74,2
0,57,117,0
0,62,119,0
0,35,115,0
0,42,86,0
0,69,61,250
0,38,75,2
0,42,87,0
0,69,40,122
0,39,126,2
0,38,124,0
0,42,88,0
0,62,78,152
0,57,118,4
0,62,115,0
0,69,61,14
0,42,90,2
0,69,44,2
0,35,117,2
0,42,86,0
0,57,76,200
0,57,117,4
0,62,117,0
0,69,59,14
0,42,88,2
0,69,61,58
0,59,75,2
0,59,115,0
0,62,118,0
0,39,127,0
0,38,116,0
0,42,90,0
0,69,60,66
0,42,86,2
0,69,40,122
0,57,75,2
0,57,115,0
0,62,116,0
0,35,115,0
0,42,90,0
0,69,62,74
0,38,77,2
0,42,86,0
0,69,43,122
0,39,127,2
0,38,124,0
0,42,89,0
0,69,59,250
0,42,90,2
0,69,40,122
0,57,77,2
0,57,117,0
0,62,119,0
0,35,118,0
0,42,88,0
0,69,62,74
0,42,88,2
0,69,58,122
0,59,74,2
0,59,117,0
0,62,118,0
0,39,127,0
0,38,113,0
0,42,88,0
0,35,117,48
0,69,61,10
0,42,89,2
0,69,44,122
0,62,74,2
0,57,115,0
0,62,119,0
0,38,115,0
0,35,114,0
0,42,89,0
0,69,61,250
0,38,75,2
0,42,89,0
0,69,44,122
0,39,126,2
0,38,122,0
0,42,88,0
0,62,75,152
0,57,117,4
0,62,116,0
0,69,58,14
0,42,86,2
0,69,41,2
0,35,117,2
0,42,86,0
0,57,78,200
0,57,117,4
0,62,118,0
0,69,62,14
0,42,90,2
0,69,59,42
0,59,77,2
0,59,117,0
0,62,116,0
0,39,127,0
0,38,113,0
0,42,89,0
0,69,59,74
0,33,117,2
0,42,87,0
0,69,43,32
0,62,75,2
0,57,115,0
0,62,117,0
0,38,118,0
0,35,114,0
0,42,89,0
0,69,62,74
0,38,79,2
0,42,86,0
0,69,43,122
0,59,74,2
0,59,118,0
0,62,117,0
0,39,126,0
0,38,126,0
0,42,90,0
0,69,58,74
0,42,90,2
0,69,44,122
0,57,74,2
0,57,119,0
0,62,116,0
0,35,115,0
0,42,90,0
0,69,60,74
0,42,86,2
0,69,59,122
0,59,78,2
0,59,119,0
0,62,117,0
0,39,127,0
0,38,113,0
0,42,89,0
0,35,118,60
0,69,60,10
0,42,90,2
0,69,44,122
0,62,76,2
0,57,117,0
0,62,115,0
0,38,119,0
0,35,116,0
0,42,87,0
0,69,58,250
0,38,79,2
0,42,86,0
0,69,42,10
0,39,127,2
0,38,122,0
0,42,87,0
0,62,78,168
0,57,116,4
0,62,115,0
0,69,61,14
0,38,118,2
0,42,87,0
0,69,40,2
0,35,115,2
0,42,87,0
0,57,76,152
0,57,119,4
0,62,115,0
0,69,58,14
0,42,87,2
0,69,61,42
0,59,77,2
0,59,115,0
0,62,117,0
0,39,126,0
0,38,112,0
0,42,87,0
0,69,59,74
0,33,116,2
0,42,90,0
0,69,44,34
0,57,76,2
0,57,115,0
0,62,117,0
0,38,115,0
0,35,117,0
0,42,87,0
0,69,58,74
0,38,76,2
0,42,90,0
0,69,40,122
0,39,125,2
0,38,122,0
0,42,90,0
0,69,60,192
0,42,90,2
0,69,40,122
0,48,120,2
0,60,123,0
0,57,76,0
0,57,116,0
0,62,115,0
0,35,116,0
0,42,88,0
0,69,58,74
0,42,90,2
0,69,59,122
0,59,77,2
0,59,119,0
0,62,117,0
0,39,126,0
0,38,113,0
0,42,86,0
0,35,118,60
0,69,59,10
0,42,90,2
0,69,42,122
0,49,103,0
0,62,74,0
0,57,117,0
0,62,116,0
0,38,119,0
0,35,116,0
0,42,90,0
0,69,59,250
0,38,75,2
0,42,89,0
0,69,42,122
0,39,127,2
0,38,126,0
0,42,90,0
0,62,78,152
0,57,118,4
0,62,116,0
0,69,59,14
0,42,90,2
0,69,42,2
0,35,114,2
0,42,86,0
0,57,78,200
0,57,117,4
0,62,117,0
0,69,60,14
0,42,89,2
0,69,62,42
0,59,77,2
0,59,117,0
0,62,118,0
0,39,127,0
0,38,116,0
0,42,86,0
0,69,62,74
0,33,118,2
0,42,88,0
0,69,42,28
0,62,74,2
0,57,116,0
0,62,117,0
0,38,119,0
0,35,118,0
0,42,87,0
0,69,60,74
0,38,76,2
0,42,90,0
0,69,40,122
0,59,74,2
0,59,118,0
0,62,117,0
0,39,127,0
0,38,123,0
0,42,86,0
0,69,59,72
0,42,88,0
0,69,44,122
0,57,74,2
0,57,117,0
0,62,116,0
0,35,117,0
0,42,86,0
0,69,60,74
0,42,87,2
0,69,61,122
0,59,76,2
0,59,119,0
0,62,116,0
0,39,127,0
0,38,115,0
0,42,87,0
0,35,116,60
0,69,62,10
0,42,88,2
0,69,41,122
0,62,76,2
0,57,119,0
0,62,115,0
0,38,115,0
0,35,117,0
0,42,88,0
0,69,61,250
0,38,79,2
0,42,86,0
0,69,41,122
0,39,127,2
0,38,126,0
0,42,90,0
0,62,77,152
0,57,115,4
0,62,117,0
0,69,59,12
0,38,118,0
0,42,86,0
0,69,42,2
0,35,117,2
0,42,90,0
0,57,78,200
0,57,116,4
0,62,119,0
0,69,58,14
0,42,89,2
0,69,59,42
0,59,75,2
0,59,115,0
0,62,117,0
0,39,126,0
0,38,112,0
0,42,86,0
0,69,58,74
0,33,117,2
0,42,90,0
0,69,41,14
0,57,124,2
0,69,123,0
0,57,78,0
0,57,118,0
0,62,115,0
0,38,118,0
0,35,114,0
0,42,86,0
0,69,58,74
0,38,76,2
0,42,87,0
0,69,43,122
0,39,127,2
0,38,123,0
0,42,90,0
0,69,58,198
0,42,89,2
0,69,44,122
0,57,77,2
0,57,117,0
0,62,117,0
0,35,114,0
0,42,88,0
0,69,59,74
0,42,88,2
0,69,58,122
0,59,74,2
0,59,115,0
0,62,115,0
0,39,127,0
0,38,112,0
0,42,88,0
0,35,118,60
0,69,61,10
0,42,86,2
0,69,43,122
0,62,77,0
0,57,117,0
0,62,116,0
0,38,117,0
0,35,117,0
0,42,86,0
0,69,60,250
0,38,79,2
0,42,88,0
0,69,43,122
0,39,126,2
0,38,124,0
0,42,88,0
0,62,78,152
0,57,119,4
0,62,118,0
0,69,60,14
0,42,89,2
0,69,43,2
0,35,115,2
0,42,90,0
0,57,74,200
0,57,117,4
0,62,116,0
0,69,61,14
0,42,87,2
0,69,62,42
0,59,76,2
0,59,118,0
0,62,118,0
0,39,127,0
0,38,115,0
0,42,88,0
0,69,60,74
0,33,116,2
0,42,88,0
0,69,44,32
0,62,78,2
0,57,117,0
0,62,117,0
0,38,116,0
0,35,117,0
0,42,90,0
0,69,59,74
0,38,79,2
0,42,87,0
0,69,40,4
0,59,74,2
0,59,118,0
0,62,119,0
0,39,126,0
0,38,122,0
0,42,86,0
0,69,62,74
0,42,89,2
0,69,43,122
0,57,77,2
0,57,117,0
0,62,115,0
0,35,118,0
0,42,89,0
0,69,58,74
0,42,88,2
0,69,58,122
0,59,78,2
0,59,116,0
0,62,117,0
0,39,126,0
0,38,114,0
0,42,86,0
0,35,115,60
0,69,62,10
0,42,88,2
0,69,44,34
0,62,124,2
0,74,120,0
0,62,76,0
0,57,118,0
0,62,117,0
0,38,119,0
0,35,117,0
0,42,89,0
0,69,58,250
0,38,75,2
0,42,87,0
0,69,43,10
0,39,125,2
0,38,122,0
0,42,90,0
0,62,76,158
0,57,117,4
0,62,118,0
0,69,59,14
0,38,118,2
0,42,89,0
0,69,41,2
0,35,114,2
0,42,86,0
0,57,76,232
0,57,118,4
0,62,116,0
0,69,61,14
0,42,86,2
0,69,58,42
0,59,78,2
0,59,116,0
0,62,115,0
0,39,127,0
0,38,115,0
0,42,89,0
0,69,60,74
0,33,119,2
0,42,86,0
0,69,40,48
0,57,77,2
0,57,117,0
0,62,116,0
0,38,119,0
0,35,118,0
0,42,88,0
0,69,59,74
0,38,77,2
0,42,88,0
0,69,44,62
0,39,126,2
0,38,122,0
0,42,88,0
0,69,60,250
0,42,86,2
0,69,44,122
0,57,78,2
0,57,117,0
0,62,116,0
0,45,117,0
0,35,115,0
0,42,86,0
0,69,60,72
0,42,87,0
0,69,62,0
0,59,75,2
0,43,119,0
0,39,127,0
0,38,115,0
0,42,86,0
0,35,117,96
0,69,59,10
0,42,90,2
0,62,98,112
0,69,43,0
0,49,105,0
0,54,75,2
0,57,75,0
0,62,74,0
0,38,118,0
0,35,116,0
0,42,86,0
0,69,60,90
0,38,77,2
0,42,89,0
0,57,110,4
0,64,97,24
0,69,44,0
0,54,76,2
0,57,77,0
0,64,78,0
0,59,109,0
0,42,116,0
0,39,127,0
0,38,123,0
0,42,90,0
0,69,60,90
0,42,90,2
0,62,107,4
0,62,100,24
0,69,40,0
0,54,78,2
0,57,76,0
0,62,78,0
0,45,115,0
0,35,117,0
0,42,87,0
0,69,60,90
0,42,87,2
0,57,107,4
0,64,97,8
0,69,58,10
0,54,76,2
0,57,75,0
0,64,75,0
0,59,110,0
0,47,115,0
0,39,126,0
0,38,112,0
0,42,89,0
0,62,98,104
0,54,75,8
0,57,75,0
0,62,75,0
0,69,61,18
0,42,89,2
0,62,108,4
0,69,41,0
0,38,117,2
0,35,116,0
0,42,89,0
0,62,100,172
0,54,77,8
0,57,78,0
0,62,75,0
0,69,59,18
0,38,75,2
0,42,88,0
0,57,108,4
0,64,99,60
0,69,41,0
0,54,78,2
0,57,77,0
0,64,74,0
0,59,108,0
0,42,118,0
0,39,127,0
0,38,125,0
0,42,87,0
0,69,61,110
0,42,87,2
0,62,106,4
0,62,99,24
0,69,43,4
0,54,76,2
0,57,74,0
0,62,78,0
0,45,117,0
0,35,118,0
0,42,86,0
0,69,59,90
0,42,88,2
0,57,106,4
0,45,124,24
0,64,101,16
0,69,60,10
0,47,121,0
0,54,77,0
0,57,78,0
0,64,77,0
0,59,109,0
0,47,119,0
0,39,126,0
0,38,113,0
0,42,86,0
0,35,118,76
0,69,59,10
0,42,86,2
0,62,106,4
0,62,97,24
0,69,41,0
0,50,124,2
0,55,76,0
0,59,77,0
0,62,76,0
0,43,115,0
0,35,115,0
0,42,89,0
0,69,62,90
0,38,78,2
0,42,88,0
0,57,109,4
0,64,99,60
0,69,41,0
0,55,74,2
0,59,77,0
0,64,74,0
0,59,110,0
0,40,118,0
0,39,125,0
0,38,122,0
0,42,90,0
0,47,125,28
0,69,58,62
0,42,86,2
0,62,108,4
0,62,97,6
0,69,40,8
0,55,78,0
0,59,76,0
0,62,78,0
0,38,115,0
0,35,116,0
0,42,86,0
0,69,61,90
0,42,86,2
0,57,109,4
0,64,100,12
0,69,61,10
0,69,118,2
0,71,117,0
0,74,118,0
0,81,117,0
0,83,119,0
0,86,119,0
0,55,76,0
0,59,77,0
0,64,74,0
0,59,109,0
0,40,115,0
0,39,127,0
0,38,115,0
0,42,89,0
0,74,117,8
0,71,118,0
0,69,119,0
0,81,116,0
0,83,119,0
0,86,117,0
0,62,100,24
0,55,76,8
0,59,76,0
0,62,78,0
0,69,59,18
0,40,117,2
0,42,90,0
0,62,110,4
0,69,44,0
0,43,119,2
0,35,116,0
0,42,89,0
0,62,99,74
0,55,76,8
0,59,75,0
0,62,75,0
0,69,59,18
0,43,118,2
0,38,75,0
0,42,89,0
0,57,108,4
0,64,97,6
0,69,42,8
0,55,74,0
0,59,75,0
0,64,74,0
0,59,107,0
0,40,118,0
0,39,127,0
0,38,125,0
0,42,88,0
0,69,61,108
0,42,89,0
0,62,108,4
0,62,99,0
0,69,42,10
0,55,77,2
0,59,75,0
0,62,78,0
0,38,116,0
0,35,115,0
0,42,86,0
0,69,59,90
0,42,90,2
0,57,107,4
0,64,99,6
0,69,40,8
0,55,74,0
0,59,76,0
0,64,78,0
0,59,110,0
0,40,115,0
0,39,127,0
0,38,112,0
0,42,89,0
0,35,114,76
0,69,58,10
0,42,90,2
0,62,110,4
0,62,100,24
0,69,44,0
0,54,78,2
0,57,74,0
0,62,75,0
0,38,116,0
0,35,117,0
0,42,87,0
0,69,60,90
0,38,77,2
0,42,87,0
0,57,107,4
0,64,99,60
0,69,44,0
0,54,76,2
0,57,74,0
0,64,78,0
0,59,106,0
0,42,116,0
0,39,127,0
0,38,124,0
0,42,90,0
0,69,61,90
0,42,90,2
0,62,109,4
0,62,97,24
0,69,42,0
0,54,77,2
0,57,75,0
0,62,78,0
0,45,115,0
0,35,118,0
0,42,89,0
0,69,59,90
0,42,87,2
0,57,108,4
0,64,100,4
0,69,62,10
0,54,78,2
0,57,75,0
0,64,75,0
0,59,110,0
0,47,116,0
0,39,126,0
0,38,114,0
0,42,90,0
0,62,98,104
0,54,77,8
0,57,75,0
0,62,75,0
0,69,59,18
0,42,86,2
0,62,107,4
0,69,41,4
0,38,116,2
0,35,115,0
0,42,86,0
0,62,100,172
0,54,77,8
0,57,76,0
0,62,77,0
0,69,62,18
0,38,75,2
0,42,87,0
0,57,109,4
0,45,122,24
0,64,99,60
0,69,41,0
0,47,122,2
0,54,74,0
0,57,77,0
0,64,78,0
0,59,108,0
0,42,117,0
0,39,127,0
0,38,125,0
0,42,88,0
0,69,60,72
0,42,87,2
0,62,109,4
0,62,98,14
0,69,40,10
0,50,125,2
0,54,76,0
0,57,78,0
0,62,76,0
0,45,119,0
0,35,116,0
0,42,89,0
0,62,100,64
0,69,62,26
0,42,89,2
0,57,106,4
0,59,98,8
0,69,62,10
0,47,125,2
0,54,77,0
0,57,76,0
0,64,77,0
0,59,106,0
0,47,115,0
0,39,127,0
0,38,114,0
0,42,89,0
0,35,116,76
0,69,61,10
0,42,86,2
0,62,109,4
0,62,99,6
0,69,44,10
0,50,122,2
0,55,78,0
0,59,74,0
0,62,78,0
0,43,116,0
0,35,114,0
0,42,90,0
0,69,60,6
0,38,75,2
0,42,87,0
0,57,106,4
0,64,98,60
0,69,40,0
0,55,74,2
0,59,76,0
0,64,74,0
0,59,107,0
0,40,119,0
0,39,127,0
0,38,124,0
0,42,89,0
0,69,60,90
0,42,90,2
0,62,107,4
0,62,101,24
0,69,40,6
0,55,77,2
0,59,76,0
0,62,75,0
0,38,119,0
0,35,115,0
0,42,86,0
0,69,60,90
0,42,86,2
0,57,109,4
0,64,99,16
0,69,62,10
0,69,117,2
0,71,115,0
0,74,117,0
0,81,116,0
0,83,115,0
0,86,119,0
0,55,76,0
0,59,78,0
0,64,75,0
0,59,108,0
0,40,117,0
0,39,126,0
0,38,113,0
0,42,88,0
0,74,117,8
0,71,118,0
0,69,116,0
0,81,116,0
0,83,118,0
0,86,119,0
0,62,101,24
0,55,76,8
0,59,75,0
0,62,77,0
0,69,62,18
0,40,115,2
0,42,89,0
0,62,108,4
0,69,44,0
0,43,117,2
0,35,117,0
0,42,86,0
0,62,99,54
0,55,77,8
0,59,78,0
0,62,75,0
0,69,59,18
