track,note,velocity,time
1,63,56,1
1,59,48,0
1,64,42,119
1,63,0,1
1,64,0,59
1,59,0,0
1,59,43,60
1,64,51,0
1,64,0,120
1,65,43,0
1,65,0,60
1,59,0,0
1,59,44,60
1,63,44,0
1,65,52,0
1,65,0,120
1,66,44,0
1,66,0,60
1,63,0,0
1,59,0,0
1,59,44,60
1,63,44,0
1,66,53,0
1,66,0,120
1,67,46,0
1,67,0,60
1,63,0,0
1,59,0,0
1,59,47,60
1,63,47,0
1,67,56,0
1,67,0,120
1,68,47,0
1,68,0,60
1,63,0,0
1,59,0,0
1,59,48,60
1,63,48,0
1,68,57,0
1,68,0,120
1,69,48,0
1,69,0,60
1,63,0,0
1,59,0,0
1,63,50,60
1,69,59,0
1,69,0,120
1,70,52,0
1,70,0,60
1,63,0,0
1,63,52,60
1,70,61,0
1,70,0,120
1,71,54,0
1,71,0,60
1,63,0,0
1,63,55,60
1,68,66,0
1,71,66,0
1,71,0,120
1,72,56,0
1,72,0,60
1,68,0,0
1,63,0,0
1,68,58,60
1,63,58,0
1,72,69,0
1,72,0,120
1,73,59,0
1,73,0,60
1,63,0,0
1,68,0,0
1,63,61,60
1,68,61,0
1,73,71,0
1,73,0,120
1,74,62,0
1,74,0,60
1,68,0,0
1,63,0,0
1,63,62,60
1,68,62,0
1,74,75,0
1,74,0,120
1,75,66,0
1,75,0,60
1,68,0,0
1,63,0,0
1,63,68,60
1,70,68,0
1,75,81,0
1,75,0,120
1,76,77,0
1,76,0,60
1,70,0,0
1,63,0,0
1,70,69,60
1,76,82,0
1,76,0,120
1,75,78,0
1,75,0,60
1,70,0,0
1,63,70,60
1,70,70,0
1,75,84,0
1,75,0,120
1,73,84,0
1,73,0,60
1,70,0,0
1,63,0,0
1,63,69,60
1,68,69,0
1,73,82,0
1,73,0,120
1,71,79,0
1,71,0,60
1,68,0,0
1,63,0,0
1,63,70,60
1,68,70,0
1,71,83,0
1,71,0,120
1,73,79,0
1,73,0,60
1,68,0,0
1,63,0,0
1,63,72,60
1,68,72,0
1,73,85,0
1,73,0,120
1,75,86,0
1,75,0,60
1,68,0,0
1,63,0,0
1,64,73,60
1,68,73,0
1,75,87,0
1,75,0,120
1,73,86,0
1,73,0,60
1,68,0,0
1,64,0,0
1,64,71,60
1,68,71,0
1,73,84,0
1,73,0,120
1,71,83,0
1,71,0,60
1,68,0,0
1,64,0,0
1,61,68,60
1,64,68,0
1,71,81,0
1,71,0,120
1,70,80,0
1,70,0,60
1,64,0,0
1,61,0,0
1,61,79,60
1,71,69,120
1,71,0,120
1,61,0,0
1,71,66,0
1,61,55,0
1,71,0,120
1,70,62,0
1,70,0,120
1,61,0,0
1,70,57,0
1,61,48,0
1,70,0,120
1,63,54,0
1,63,0,120
1,61,0,0
1,59,45,0
1,63,53,0
1,63,0,120
1,64,45,0
1,64,0,60
1,59,0,0
1,59,45,60
1,64,54,0
1,64,0,120
1,65,45,0
1,65,0,60
1,59,0,0
1,59,46,60
1,63,46,0
1,65,55,0
1,65,0,120
1,66,47,0
1,66,0,60
1,63,0,0
1,59,0,0
1,59,47,60
1,63,47,0
1,66,57,0
1,66,0,120
1,67,48,0
1,67,0,60
1,63,0,0
1,59,0,0
1,59,49,60
1,63,49,0
1,67,58,0
1,67,0,120
1,68,50,0
1,68,0,60
1,63,0,0
1,59,0,0
1,59,50,60
1,63,50,0
1,68,60,0
1,68,0,120
1,69,50,0
1,69,0,60
1,63,0,0
1,59,0,0
1,59,52,60
1,64,52,0
1,69,62,0
1,69,0,120
1,70,54,0
1,70,0,60
1,64,0,0
1,59,0,0
1,59,54,60
1,64,54,0
1,70,64,0
1,70,0,120
1,71,56,0
1,71,0,60
1,64,0,0
1,59,0,0
1,59,57,60
1,64,68,0
1,71,68,0
1,71,0,120
1,72,59,0
1,72,0,60
1,64,0,0
1,59,0,0
1,65,62,60
1,72,73,0
1,72,0,120
1,73,69,0
1,73,0,60
1,65,0,0
1,65,64,60
1,73,76,0
1,73,0,120
1,74,71,0
1,74,0,60
1,65,0,0
1,65,66,60
1,71,80,0
1,74,75,120
1,74,0,60
1,71,0,0
1,65,0,0
1,66,76,60
1,71,76,0
1,75,90,0
1,75,0,120
1,76,85,0
1,76,0,60
1,71,0,0
1,66,0,0
1,66,75,60
1,71,75,0
1,76,89,0
1,76,0,120
1,75,87,0
1,75,0,60
1,71,0,0
1,66,0,0
1,66,76,60
1,71,76,0
1,75,90,0
1,75,0,120
1,78,88,0
1,78,0,60
1,71,0,0
1,66,0,0
1,66,76,60
1,70,76,0
1,78,90,0
1,78,0,120
1,73,85,0
1,73,0,60
1,70,0,0
1,66,0,0
1,66,75,60
1,70,75,0
1,73,89,0
1,73,0,120
1,75,87,0
1,75,0,60
1,70,0,0
1,66,0,0
1,66,76,60
1,70,76,0
1,75,90,0
1,75,0,120
1,76,88,0
1,76,0,60
1,70,0,0
1,66,0,0
1,66,68,60
1,71,68,0
1,76,81,0
1,76,0,120
1,75,75,0
1,75,0,60
1,71,0,0
1,66,0,0
1,66,66,60
1,71,66,0
1,75,78,0
1,75,0,120
1,80,75,0
1,80,0,60
1,71,0,0
1,66,0,0
1,66,64,60
1,80,76,0
1,80,0,120
1,78,73,0
1,78,0,60
1,66,0,0
1,66,63,60
1,70,63,0
1,78,74,0
1,78,0,120
1,73,69,0
1,73,0,60
1,70,0,0
1,66,0,0
1,64,60,60
1,70,60,0
1,73,71,0
1,73,0,120
1,75,68,0
1,75,0,60
1,70,0,0
1,64,0,0
1,64,59,60
1,70,59,0
1,75,70,0
1,75,0,120
1,76,67,0
1,76,0,60
1,70,0,0
1,64,0,0
1,63,60,60
1,71,60,0
1,76,72,0
1,76,0,120
1,75,68,0
1,75,0,60
1,71,0,0
1,63,0,0
1,63,61,60
1,75,72,0
1,75,0,120
1,71,72,0
1,71,0,60
1,63,0,0
1,64,64,60
1,71,76,0
1,71,0,120
1,67,75,0
1,67,0,60
1,64,0,0
1,63,66,60
1,67,78,0
1,67,0,120
1,66,74,0
1,66,0,60
1,63,0,0
1,63,67,60
1,66,80,0
1,66,0,120
1,71,75,0
1,71,0,60
1,63,0,0
1,64,69,60
1,71,82,0
1,71,0,120
1,67,78,0
1,67,0,60
1,64,0,0
1,63,72,60
1,66,85,0
1,66,0,120
1,71,81,0
1,71,0,60
1,63,0,0
1,64,72,60
1,71,86,0
1,71,0,120
1,67,85,0
1,67,0,60
1,64,0,0
1,63,76,60
1,66,90,0
1,66,0,120
1,71,88,0
1,71,0,60
1,63,0,0
1,64,77,60
1,71,91,0
1,71,0,120
1,67,87,0
1,67,0,60
1,64,0,0
1,62,78,60
1,66,93,0
1,66,0,120
1,71,92,0
1,71,0,60
1,62,0,0
1,64,81,60
1,71,96,0
1,71,0,120
1,67,95,0
1,67,0,60
1,64,0,0
1,71,92,60
1,64,77,0
1,67,92,0
1,67,0,120
1,64,0,0
1,62,74,0
1,66,87,0
1,67,72,90
1,67,0,30
1,66,0,0
1,62,0,0
1,62,77,0
1,66,92,0
1,66,0,120
1,62,0,0
1,61,72,0
1,64,85,0
1,64,0,120
1,61,0,0
1,62,77,0
1,66,92,0
1,66,0,240
1,62,0,0
1,64,73,0
1,67,87,0
1,67,0,120
1,64,0,0
1,62,70,0
1,66,82,0
1,67,71,90
1,67,0,30
1,66,0,0
1,62,0,0
1,62,73,0
1,66,87,0
1,66,0,120
1,62,0,0
1,61,68,0
1,64,80,0
1,64,0,120
1,61,0,0
1,62,73,0
1,66,87,0
1,66,0,240
1,62,0,0
1,71,0,0
1,62,61,0
1,68,61,0
1,71,72,0
1,71,0,120
1,62,0,0
1,64,61,0
1,72,72,0
1,72,0,60
1,64,0,0
1,68,0,0
1,68,61,60
1,64,61,0
1,72,72,0
1,72,0,120
1,64,0,0
1,62,61,0
1,71,72,0
1,71,0,60
1,62,0,0
1,68,0,0
1,68,61,60
1,62,61,0
1,71,72,0
1,71,0,120
1,62,0,0
1,64,61,0
1,72,72,0
1,72,0,60
1,64,0,0
1,68,0,0
1,69,87,60
1,62,73,0
1,65,87,0
1,65,0,120
1,62,0,0
1,60,70,0
1,64,82,0
1,65,63,90
1,65,0,30
1,64,0,0
1,60,0,0
1,60,73,0
1,64,87,0
1,64,0,120
1,60,0,0
1,59,68,0
1,62,80,0
1,62,0,120
1,59,0,0
1,60,73,0
1,64,87,0
1,64,0,240
1,60,0,0
1,69,0,0
1,69,84,0
1,62,69,0
1,65,82,0
1,65,0,120
1,62,0,0
1,60,66,0
1,64,77,0
1,65,59,90
1,65,0,30
1,64,0,0
1,60,0,0
1,60,69,0
1,64,82,0
1,64,0,120
1,60,0,0
1,59,64,0
1,62,76,0
1,62,0,120
1,59,0,0
1,60,69,0
1,64,82,0
1,64,0,240
1,60,0,0
1,62,69,0
1,65,82,0
1,65,0,120
1,62,0,0
1,60,66,0
1,64,77,0
1,65,59,90
1,65,0,30
1,64,0,0
1,60,0,0
1,60,69,0
1,64,82,0
1,64,0,120
1,60,0,0
1,59,64,0
1,62,76,0
1,62,0,120
1,59,0,0
1,60,69,0
1,64,82,0
1,64,0,240
1,60,0,0
1,69,0,0
1,60,61,0
1,66,61,0
1,69,72,0
1,69,0,120
1,60,0,0
1,62,61,0
1,71,72,0
1,71,0,60
1,62,0,0
1,66,0,0
1,66,61,60
1,62,61,0
1,71,72,0
1,71,0,120
1,62,0,0
1,60,61,0
1,69,72,0
1,69,0,60
1,60,0,0
1,66,0,0
1,66,61,60
1,60,61,0
1,69,72,0
1,69,0,120
1,60,0,0
1,62,61,0
1,71,72,0
1,71,0,60
1,62,0,0
1,66,0,0
1,67,78,60
1,60,65,0
1,64,78,0
1,64,0,120
1,60,0,0
1,59,63,0
1,62,73,0
1,64,56,90
1,64,0,30
1,62,0,0
1,59,0,0
1,59,65,0
1,62,78,0
1,62,0,120
1,59,0,0
1,57,61,0
1,60,72,0
1,60,0,120
1,57,0,0
1,59,65,0
1,62,78,0
1,62,0,240
1,59,0,0
1,67,0,0
1,64,37,0
1,67,44,0
1,67,0,120
1,69,45,0
1,69,0,60
1,64,0,0
1,64,40,60
1,69,49,0
1,69,0,120
1,71,51,0
1,71,0,60
1,64,0,0
1,64,45,60
1,71,54,0
1,71,0,120
1,72,57,0
1,72,0,60
1,64,0,0
1,64,51,60
1,72,61,0
1,72,0,120
1,74,63,0
1,74,0,60
1,64,0,0
1,64,55,60
1,69,55,0
1,74,66,0
1,74,0,120
1,76,69,0
1,76,0,60
1,69,0,0
1,64,0,0
1,64,60,60
1,69,60,0
1,76,72,0
1,76,0,120
1,62,57,0
1,74,68,0
1,74,0,60
1,64,0,0
1,69,0,0
1,62,0,0
1,64,39,60
1,67,47,0
1,67,0,120
1,69,48,0
1,69,0,60
1,64,0,0
1,64,41,60
1,69,50,0
1,69,0,120
1,71,51,0
1,71,0,60
1,64,0,0
1,64,45,60
1,71,54,0
1,71,0,120
1,72,55,0
1,72,0,60
1,64,0,0
1,64,48,60
1,72,57,0
1,72,0,120
1,74,58,0
1,74,0,60
1,64,0,0
1,64,51,60
1,69,51,0
1,74,61,0
1,74,0,120
1,76,63,0
1,76,0,60
1,69,0,0
1,64,0,0
1,69,54,60
1,76,64,0
1,76,0,120
1,78,66,0
1,75,66,0
1,75,0,60
1,78,0,0
1,69,0,0
1,67,56,60
1,76,56,0
1,79,67,0
1,79,0,120
1,76,0,0
1,67,0,0
1,69,56,120
1,76,56,0
1,79,67,0
1,79,0,120
1,76,0,0
1,75,54,0
1,78,64,0
1,78,0,60
1,75,0,0
1,69,0,0
1,67,56,60
1,75,56,0
1,78,67,0
1,78,0,120
1,75,0,0
1,76,55,0
1,79,65,0
1,79,0,60
1,76,0,0
1,67,0,0
1,69,58,60
1,76,58,0
1,79,70,0
1,79,0,120
1,76,0,0
1,75,58,0
1,78,69,0
1,78,0,60
1,75,0,0
1,69,0,0
1,67,62,60
1,75,62,0
1,78,74,0
1,78,0,120
1,75,0,0
1,76,61,0
1,79,72,0
1,79,0,60
1,76,0,0
1,67,0,0
1,67,64,60
1,79,77,0
1,76,64,0
1,76,0,120
1,79,0,0
1,67,0,0
1,77,62,0
1,80,73,0
1,68,62,0
1,68,0,60
1,80,0,0
1,77,0,0
1,68,64,60
1,80,77,0
1,77,64,0
1,77,0,120
1,80,0,0
1,68,0,0
1,78,62,0
1,81,73,0
1,69,62,0
1,69,0,60
1,81,0,0
1,78,0,0
1,69,65,60
1,81,78,0
1,78,65,0
1,78,0,120
1,81,0,0
1,69,0,0
1,77,63,0
1,80,75,0
1,68,63,0
1,68,0,60
1,80,0,0
1,77,0,0
1,68,67,60
1,80,80,0
1,77,67,0
1,77,0,120
1,80,0,0
1,68,0,0
1,78,65,0
1,81,77,0
1,69,65,0
1,69,0,60
1,81,0,0
1,78,0,0
1,69,68,60
1,81,82,0
1,78,68,0
1,78,0,120
1,81,0,0
1,69,0,0
1,77,66,0
1,80,78,0
1,68,66,0
1,68,0,60
1,80,0,0
1,77,0,0
1,68,70,60
1,80,84,0
1,77,70,0
1,77,0,120
1,80,0,0
1,68,0,0
1,78,68,0
1,81,81,0
1,69,68,0
1,69,0,60
1,81,0,0
1,78,0,0
1,69,71,60
1,81,86,0
1,78,71,0
1,81,0,120
1,69,0,0
1,82,82,0
1,70,70,0
1,70,0,60
1,82,0,0
1,78,0,0
1,70,73,60
1,78,73,0
1,82,88,0
1,82,0,240
1,78,0,0
1,70,0,0
1,70,70,0
1,82,83,0
1,78,70,0
1,78,0,120
1,77,65,0
1,80,77,0
1,80,0,60
1,70,0,0
1,82,0,0
1,77,0,0
1,70,63,60
1,82,75,0
1,77,63,0
1,80,75,0
1,80,0,120
1,77,0,0
1,75,58,0
1,78,69,0
1,78,0,60
1,70,0,0
1,82,0,0
1,75,0,0
1,77,73,60
1,70,73,0
1,80,73,0
1,82,88,0
1,82,0,240
1,77,0,0
1,70,0,0
1,80,0,0
1,77,70,0
1,70,70,0
1,82,83,0
1,80,70,0
1,80,0,120
1,77,0,0
1,78,77,0
1,75,65,0
1,75,0,60
1,70,0,0
1,82,0,0
1,78,0,0
1,70,63,60
1,82,75,0
1,75,63,0
1,78,75,0
1,78,0,120
1,75,0,0
1,74,58,0
1,77,69,0
1,77,0,60
1,70,0,0
1,82,0,0
1,74,0,0
1,75,65,60
1,70,65,0
1,78,65,0
1,82,79,0
1,82,0,120
1,75,0,0
1,70,0,0
1,78,0,0
1,70,63,120
1,78,63,0
1,78,0,120
1,70,0,0
1,77,68,0
1,68,57,0
1,68,0,60
1,77,0,0
1,68,54,60
1,77,64,0
1,77,0,120
1,68,0,0
1,67,49,0
1,75,59,0
1,75,0,60
1,67,0,0
1,67,61,60
1,75,74,0
1,75,0,120
1,67,0,0
1,67,52,120
1,70,52,0
1,67,0,120
1,64,45,0
1,64,0,60
1,70,0,0
1,71,48,60
1,64,41,0
1,67,48,0
1,64,0,120
1,63,35,0
1,63,0,60
1,67,0,0
1,71,0,0
1,59,46,60
1,63,54,0
1,63,0,120
1,64,42,0
1,64,0,60
1,59,0,0
1,59,43,60
1,64,51,0
1,64,0,120
1,65,43,0
1,65,0,60
1,59,0,0
1,59,44,60
1,63,44,0
1,65,52,0
1,65,0,120
1,66,44,0
1,66,0,60
1,63,0,0
1,59,0,0
1,59,44,60
1,63,44,0
1,66,53,0
1,66,0,120
1,67,46,0
1,67,0,60
1,63,0,0
1,59,0,0
1,59,47,60
1,63,47,0
1,67,56,0
1,67,0,120
1,68,47,0
1,68,0,60
1,63,0,0
1,59,0,0
1,59,48,60
1,63,48,0
1,68,57,0
1,68,0,120
1,69,49,0
1,69,0,60
1,63,0,0
1,59,0,0
1,63,50,60
1,69,59,0
1,69,0,120
1,70,52,0
1,70,0,60
1,63,0,0
1,63,52,60
1,70,61,0
1,70,0,120
1,71,54,0
1,71,0,60
1,63,0,0
1,63,55,60
1,68,66,0
1,71,66,0
1,71,0,120
