track,note,velocity,time
3,62,110,5862
3,62,0,86
3,67,110,5
3,69,107,87
3,67,0,3
3,71,107,90
3,69,0,4
3,71,0,70
3,71,110,31
3,71,0,118
3,71,101,367
3,71,0,37
3,71,112,58
3,71,0,46
3,69,110,3
3,69,0,38
3,69,108,23
3,69,0,61
3,67,111,307
3,67,0,91
3,69,116,4
3,69,0,114
3,67,110,268
3,67,0,87
3,65,110,4
3,65,0,96
3,67,106,5
3,62,103,91
3,67,0,5
3,62,0,88
3,64,107,0
3,64,0,102
3,67,110,1339
3,71,109,97
3,67,0,2
3,71,0,188
3,72,111,11
3,74,103,186
3,72,0,2
3,74,0,97
3,72,104,0
3,72,0,95
3,74,103,5
3,74,0,138
3,67,108,529
3,67,0,47
3,67,106,44
3,67,0,67
3,71,111,31
3,71,0,89
3,72,110,8
3,72,0,83
3,74,107,7
3,76,108,103
3,74,0,1
3,74,107,89
3,76,0,18
3,74,0,118
3,67,106,251
3,67,0,94
3,70,110,4
3,70,0,87
3,69,95,5
3,67,103,97
3,69,0,7
3,67,0,87
3,69,108,6
3,67,102,92
3,69,0,4
3,64,105,87
3,67,0,2
3,64,0,102
3,67,109,3
3,62,90,92
3,67,0,21
3,64,104,69
3,62,0,25
3,64,0,200
3,62,107,1215
3,71,111,112
3,62,0,17
3,71,0,176
3,72,111,5
3,74,111,181
3,72,0,5
3,72,103,74
3,74,0,5
3,72,0,76
3,74,103,6
3,74,0,199
3,71,109,978
3,69,110,200
3,71,0,16
3,67,103,172
3,69,0,2
3,67,0,61
3,69,104,2
3,69,0,295
3,67,110,25
3,69,108,192
3,67,0,52
3,69,0,134
3,67,107,8
3,67,0,257
3,67,113,393
3,69,108,99
3,67,0,25
3,71,110,86
3,69,0,16
3,67,101,78
3,71,0,27
3,69,108,74
3,67,0,13
3,69,0,84
3,67,107,2
3,67,0,276
3,67,108,98
3,67,0,50
3,67,107,45
3,71,111,106
3,67,0,10
3,71,0,183
3,72,108,1
3,72,0,185
3,74,105,0
3,72,104,104
3,74,0,18
3,74,104,84
3,72,0,2
3,71,106,86
3,74,0,17
3,71,0,114
3,62,106,150
3,62,0,52
3,62,104,38
3,71,106,100
3,62,0,52
3,72,107,142
3,71,0,24
3,72,0,159
3,71,107,2
3,71,0,155
3,71,112,43
3,69,110,71
3,71,0,2
3,69,0,215
3,69,111,299
3,69,0,170
3,71,101,12
3,69,107,40
3,71,0,16
3,67,107,8
3,69,0,27
3,67,0,167
3,67,103,33
3,67,0,86
3,67,103,19
3,67,0,370
3,67,110,1731
3,67,0,48
3,67,110,51
3,76,108,102
3,67,0,16
3,74,108,171
3,76,0,13
3,74,0,148
3,74,107,25
3,72,106,91
3,74,0,19
3,72,0,81
3,74,107,7
3,72,110,191
3,74,0,12
3,72,0,175
3,74,107,10
3,74,0,180
3,69,107,10
3,69,0,340
3,69,112,232
3,72,113,208
3,69,0,16
3,77,110,166
3,72,0,20
3,77,0,160
3,76,110,12
3,76,0,251
3,74,110,115
3,72,106,102
3,74,0,19
3,74,111,87
3,72,0,14
3,74,0,175
3,72,111,4
3,72,0,189
3,74,110,1
3,74,0,197
3,69,108,2
3,69,0,295
3,76,109,268
3,76,0,186
3,72,109,1
3,67,108,195
3,72,0,4
3,74,107,190
3,67,0,21
3,71,104,171
3,74,0,11
3,71,0,153
3,74,108,221
3,71,104,189
3,74,0,8
3,67,106,182
3,71,0,18
3,67,0,169
3,72,106,9
3,69,106,184
3,72,0,2
3,69,0,205
3,72,107,182
3,67,106,186
3,72,0,23
3,64,106,164
3,67,0,12
3,69,108,195
3,64,0,23
3,65,105,155
3,69,0,14
3,65,0,216
3,69,108,157
3,71,110,200
3,69,0,12
3,72,111,171
3,71,0,20
3,72,0,180
3,76,108,15
3,74,103,81
3,76,0,17
3,74,0,44
3,74,107,39
3,74,0,231
3,67,108,529
3,67,0,79
3,67,106,28
3,67,0,89
3,77,107,6
3,77,0,162
3,77,107,18
3,77,0,141
3,77,106,43
3,76,107,102
3,77,0,27
3,76,0,30
3,76,108,48
3,74,104,61
3,76,0,18
3,72,105,18
3,74,0,24
3,72,0,205
3,71,110,58
3,72,109,93
3,71,0,11
3,72,0,65
3,72,109,27
3,72,0,377
3,62,108,2112
3,67,111,102
3,62,0,14
3,69,107,79
3,67,0,19
3,71,111,76
3,69,0,21
3,71,0,48
3,71,108,34
3,71,0,199
3,71,106,369
3,69,105,63
3,71,0,25
3,69,0,85
3,67,108,305
3,69,110,91
3,67,0,17
3,69,0,152
3,67,108,222
3,65,108,93
3,67,0,16
3,67,109,85
3,65,0,7
3,64,109,95
3,67,0,18
3,64,0,206
3,71,112,1415
3,72,112,182
3,71,0,16
3,72,0,150
3,74,113,23
3,74,0,159
3,74,106,37
3,74,0,97
3,74,100,16
3,74,0,106
3,67,107,252
3,71,105,99
3,67,0,8
3,72,110,180
3,71,0,21
3,72,0,151
3,74,106,7
3,74,0,205
3,76,107,3
3,74,106,179
3,76,0,8
3,74,0,126
3,64,103,168
3,71,104,97
3,64,0,24
3,69,101,83
3,71,0,25
3,67,97,73
3,69,0,30
3,67,0,64
3,69,110,0
3,67,106,85
3,69,0,27
3,64,101,61
3,67,0,25
3,67,107,81
3,64,0,7
3,64,101,81
3,67,0,29
3,64,0,146
3,71,112,1463
3,71,0,190
3,72,112,3
3,72,0,152
3,74,107,15
3,74,0,99
3,74,107,9
3,74,0,360
3,76,110,904
3,71,103,364
3,76,0,8
3,69,87,82
3,71,0,10
3,69,0,74
3,71,108,4
3,71,0,36
3,69,104,0
3,67,110,375
3,69,0,11
3,69,110,86
3,67,0,18
3,69,0,82
3,67,107,0
3,67,0,265
3,67,104,496
3,71,108,98
3,67,0,17
3,67,103,77
3,71,0,60
3,67,0,43
3,69,110,3
3,67,109,92
3,69,0,1
3,67,0,131
3,67,103,344
3,71,108,107
3,67,0,2
3,72,111,194
3,71,0,23
3,72,0,157
3,74,106,1
3,72,106,108
3,74,0,25
3,74,101,77
3,72,0,12
3,71,102,84
3,74,0,25
3,71,0,122
3,71,107,329
3,72,110,182
3,71,0,20
3,71,106,158
3,72,0,28
3,71,0,96
3,71,106,29
3,71,0,43
3,69,104,8
3,69,0,296
3,69,112,280
3,71,104,107
3,69,0,2
3,69,98,38
3,71,0,2
3,67,104,15
3,69,0,15
3,67,0,193
3,67,104,8
3,67,0,150
3,67,104,46
3,67,0,326
3,67,111,1781
3,67,0,57
3,67,108,36
3,67,0,101
3,76,108,2
3,76,0,183
3,74,112,14
3,74,0,152
3,74,108,29
3,72,105,93
3,74,0,18
3,72,0,85
3,74,108,5
3,74,0,181
3,72,112,11
3,72,0,182
3,74,105,10
3,74,0,195
3,69,107,5
3,69,0,291
3,69,111,273
3,72,116,203
3,69,0,23
3,77,111,154
3,72,0,24
3,76,111,185
3,77,0,19
3,76,0,244
3,74,112,103
3,72,107,98
3,74,0,18
3,74,113,85
3,72,0,19
3,72,111,169
3,74,0,12
3,74,111,181
3,72,0,18
3,74,0,170
3,69,110,13
3,69,0,302
3,76,116,270
3,76,0,189
3,72,117,0
3,67,110,181
3,72,0,4
3,74,101,198
3,67,0,9
3,71,108,175
3,74,0,20
3,71,0,158
3,74,111,206
3,71,111,201
3,74,0,11
3,67,111,162
3,71,0,16
3,72,109,196
3,67,0,12
3,69,106,173
3,72,0,14
3,69,0,156
3,72,108,214
3,67,108,185
3,72,0,13
3,64,107,169
3,67,0,13
3,64,0,198
3,69,108,9
3,69,0,181
3,65,104,4
3,65,0,157
3,69,111,217
3,69,0,196
3,71,112,5
3,72,112,182
3,71,0,4
3,72,0,154
3,74,104,7
3,76,106,42
3,74,0,25
3,76,0,111
3,74,102,2
3,74,0,298
3,67,111,508
3,67,0,86
3,67,106,22
3,67,0,68
3,77,107,29
3,77,0,157
3,77,107,23
3,77,0,156
3,77,107,36
3,76,108,96
3,77,0,32
3,76,0,33
3,76,107,38
3,74,100,48
3,76,0,24
3,72,108,38
3,74,0,25
3,72,0,240
3,71,110,11
3,72,109,93
3,71,0,16
3,72,0,72
3,72,112,25
3,72,0,457
3,71,114,10479
3,72,114,189
3,71,0,19
3,72,0,139
3,74,110,32
3,74,0,178
3,74,107,16
3,74,0,355
3,76,110,803
3,71,108,388
3,76,0,8
3,69,104,33
3,71,0,3
3,71,106,62
3,69,0,2
3,71,0,63
3,69,106,11
3,69,0,266
3,67,104,1
3,69,104,99
3,67,0,17
3,69,0,94
3,67,107,2
3,67,0,377
3,67,98,493
3,71,111,91
3,67,0,10
3,67,90,81
3,71,0,26
3,69,106,71
3,67,0,21
3,67,104,86
3,69,0,16
3,67,0,249
3,67,97,207
3,71,107,96
3,67,0,13
3,72,110,187
3,71,0,24
3,74,107,149
3,72,0,28
3,72,102,86
3,74,0,36
3,74,106,56
3,72,0,7
3,71,103,87
3,74,0,29
3,71,0,107
3,71,106,346
3,72,107,194
3,71,0,34
3,71,104,140
3,72,0,26
3,71,0,77
3,71,102,25
3,71,0,32
3,69,108,0
3,69,0,218
3,69,112,403
3,71,104,171
3,69,0,4
3,71,0,27
3,69,106,7
3,69,0,36
3,67,97,2
3,67,0,183
3,67,103,36
3,67,0,71
3,67,103,40
3,67,0,332
3,67,107,1781
3,67,0,55
3,67,106,37
3,67,0,99
3,76,110,5
3,74,110,201
3,76,0,13
3,74,0,133
3,74,108,26
3,72,107,91
3,74,0,14
3,72,0,86
3,74,109,7
3,74,0,174
3,72,109,12
3,72,0,193
3,74,110,5
3,74,0,195
3,69,104,0
3,69,0,288
3,69,112,285
3,72,113,198
3,69,0,26
3,77,111,162
3,72,0,22
3,76,111,182
3,77,0,14
3,76,0,242
3,74,111,109
3,72,109,91
3,74,0,19
3,74,109,86
3,72,0,12
3,72,111,188
3,74,0,3
3,72,0,172
3,74,110,12
3,74,0,198
3,69,107,0
3,69,0,290
3,76,109,279
3,72,111,197
3,76,0,11
3,67,107,170
3,72,0,5
3,67,0,181
3,74,106,10
3,71,105,191
3,74,0,19
3,71,0,150
3,74,105,221
3,71,106,189
3,74,0,16
3,67,106,158
3,71,0,14
3,67,0,192
3,72,107,5
3,69,104,178
3,72,0,6
3,69,0,137
3,72,106,249
3,67,107,194
3,72,0,16
3,64,107,175
3,67,0,12
3,64,0,180
3,69,106,1
3,65,104,193
3,69,0,5
3,65,0,135
3,69,111,233
3,69,0,182
3,71,112,19
3,72,111,195
3,71,0,18
3,72,0,157
3,76,112,18
3,76,0,170
3,74,112,20
3,74,0,251
3,67,107,504
3,67,0,66
3,67,102,25
3,67,0,89
3,77,108,25
3,77,0,162
3,77,108,27
3,77,0,160
3,77,106,24
3,76,107,97
3,77,0,24
3,76,0,38
3,76,107,40
3,74,107,25
3,76,0,29
3,72,105,70
3,74,0,12
3,72,0,244
3,71,106,6
3,72,107,102
3,71,0,20
3,72,0,53
3,72,104,34
3,72,0,223
3,76,110,65
3,72,109,89
3,76,0,18
3,67,106,73
3,72,0,20
3,74,103,66
3,67,0,10
3,71,107,184
3,74,0,10
3,71,0,187
3,72,107,472
3,69,108,101
3,72,0,42
3,64,106,55
3,69,0,17
3,71,107,74
3,64,0,23
3,67,103,183
3,71,0,16
3,67,0,120
3,67,112,37
3,67,0,67
3,67,109,46
3,67,0,89
3,77,107,6
3,77,0,148
3,77,109,43
3,77,0,143
3,77,108,49
3,76,108,95
3,77,0,14
3,76,0,38
3,76,111,49
3,74,108,30
3,76,0,10
3,72,112,51
3,74,0,1
3,72,0,180
3,72,110,108
3,71,106,96
3,72,0,8
3,72,110,85
3,71,0,13
3,72,0,186
3,76,108,94
3,72,110,92
3,76,0,17
3,67,108,75
3,72,0,17
3,74,106,75
3,67,0,13
3,71,103,174
3,74,0,19
3,71,0,166
3,72,107,494
3,69,107,97
3,72,0,34
3,64,106,60
3,69,0,26
3,71,104,72
3,64,0,23
3,67,103,179
3,71,0,12
3,67,0,89
3,67,110,90
3,67,0,47
3,67,107,44
3,67,0,64
3,77,108,32
3,77,0,137
3,77,109,58
3,77,0,138
3,77,107,50
3,76,107,87
3,77,0,18
3,76,0,37
3,76,107,42
3,76,0,25
3,74,110,7
3,74,0,49
3,72,109,13
3,72,0,276
3,71,108,10
3,71,0,100
3,72,110,0
3,72,0,99
3,72,106,19
3,72,0,244
3,67,110,1861
3,67,0,55
3,67,107,35
3,67,0,92
3,77,108,6
3,77,0,140
3,77,109,51
3,77,0,133
3,77,107,55
3,76,107,93
3,77,0,17
3,76,0,44
3,76,107,40
3,74,108,26
3,76,0,2
3,72,110,58
3,74,0,3
3,72,0,118
3,72,111,179
3,71,104,97
3,72,0,11
3,71,0,81
3,72,110,16
3,72,0,610
4,42,37,4892
4,42,0,1
4,42,41,191
4,42,0,1
4,42,59,191
4,42,0,1
4,46,55,191
4,46,0,1
4,35,94,191
4,35,0,1
4,44,85,1
4,44,0,1
4,42,40,95
4,42,0,1
4,42,38,94
4,42,0,1
4,44,80,95
4,40,103,0
4,44,0,1
4,40,0,0
4,42,42,95
4,42,0,1
4,42,36,95
4,42,0,1
4,35,8,0
4,35,0,1
4,44,72,93
4,44,0,1
4,35,54,0
4,35,0,1
4,42,42,94
4,42,0,1
4,42,44,96
4,42,0,1
4,44,80,94
4,40,102,0
4,44,0,1
4,40,0,0
4,42,44,95
4,42,0,1
4,42,42,95
4,42,0,1
4,35,25,0
4,35,0,1
4,44,70,94
4,35,70,0
4,44,0,1
4,35,0,0
4,42,46,95
4,42,0,1
4,42,38,95
4,42,0,1
4,44,77,95
4,40,103,0
4,44,0,1
4,40,0,0
4,42,44,95
4,42,0,1
4,42,46,94
4,42,0,1
4,35,29,0
4,35,0,1
4,44,77,94
4,44,0,1
4,35,74,0
4,35,0,1
4,42,42,95
4,42,0,1
4,42,46,95
4,42,0,1
4,40,103,94
4,40,0,1
4,44,82,0
4,44,0,1
4,42,81,95
4,42,0,1
4,46,81,95
4,46,0,1
4,42,50,95
4,35,86,0
4,42,0,1
4,35,0,0
4,42,64,94
4,42,0,1
4,42,38,95
4,42,0,1
4,44,81,95
4,44,0,1
4,40,104,0
4,40,0,1
4,42,62,95
4,42,0,1
4,42,48,95
4,35,29,0
4,42,0,1
4,35,0,0
4,44,74,95
4,35,80,0
4,44,0,1
4,35,0,0
4,42,52,95
4,42,0,1
4,42,46,95
4,42,0,1
4,44,78,95
4,40,103,0
4,44,0,1
4,40,0,0
4,42,54,95
4,42,0,1
4,42,46,95
4,42,0,1
4,44,78,95
4,44,0,1
4,35,98,0
4,35,0,1
4,42,64,94
4,42,0,1
4,42,44,95
4,42,0,1
4,44,80,95
4,40,103,0
4,44,0,1
4,40,0,0
4,42,58,95
4,42,0,1
4,42,54,94
4,42,0,1
4,44,81,96
4,35,84,0
4,44,0,1
4,35,0,0
4,42,56,94
4,42,0,1
4,42,48,95
4,42,0,1
4,44,80,95
4,44,0,1
4,40,103,0
4,40,0,1
4,42,83,94
4,42,0,1
4,35,64,95
4,35,0,1
4,46,83,0
4,46,0,1
4,44,74,96
4,35,98,0
4,44,0,1
4,35,0,0
4,42,68,94
4,42,0,1
4,42,36,96
4,42,0,1
4,44,83,94
4,44,0,1
4,40,103,0
4,40,0,1
4,42,70,94
4,42,0,1
4,42,44,95
4,42,0,1
4,35,92,94
4,35,0,1
4,44,80,0
4,44,0,1
4,42,46,94
4,42,0,1
4,42,40,95
4,42,0,1
4,44,77,95
4,40,103,0
4,44,0,1
4,40,0,0
4,42,56,95
4,42,0,1
4,42,48,95
4,42,0,1
4,44,79,95
4,35,84,0
4,44,0,1
4,35,0,0
4,42,52,95
4,42,0,1
4,42,48,94
4,42,0,1
4,44,79,96
4,44,0,1
4,40,103,0
4,40,0,1
4,42,42,94
4,42,0,1
4,42,44,94
4,42,0,1
4,35,29,2
4,35,0,1
4,44,76,93
4,35,82,0
4,44,0,1
4,35,0,0
4,42,60,94
4,42,0,1
4,42,48,95
4,42,0,1
4,40,103,95
4,40,0,1
4,44,82,0
4,44,0,1
