track,note,velocity,time
1,69,66,0
1,74,49,0
1,67,55,0
1,67,0,4523
1,69,0,15
1,74,0,3
1,60,63,12259
1,64,54,0
1,57,57,0
1,69,57,0
1,69,0,102
1,57,0,5
1,64,0,0
1,60,0,9
1,55,57,96
1,67,50,3
1,62,46,1
1,59,48,4
1,67,0,50
1,62,0,1
1,59,0,4
1,55,0,4
1,65,59,10
1,60,62,1
1,57,56,1
1,53,51,2
1,53,0,55
1,57,0,2
1,60,0,1
1,65,0,7
1,59,55,113
1,67,53,0
1,62,61,1
1,55,42,3
1,55,0,46
1,59,0,4
1,62,0,6
1,67,0,5
1,69,57,121
1,64,53,3
1,60,58,0
1,57,45,4
1,57,0,59
1,69,0,9
1,60,0,7
1,64,0,1
1,55,41,93
1,62,57,1
1,59,58,2
1,67,57,1
1,67,0,52
1,59,0,13
1,62,0,6
1,55,0,0
1,60,61,101
1,53,59,3
1,65,55,0
1,57,56,3
1,53,0,38
1,57,0,15
1,65,0,1
1,60,0,7
1,62,50,114
1,67,45,1
1,59,54,2
1,55,44,8
1,55,0,58
1,59,0,11
1,67,0,4
1,62,0,2
1,64,55,116
1,69,49,0
1,57,39,4
1,60,55,0
1,69,0,66
1,57,0,5
1,60,0,2
1,64,0,2
1,62,53,104
1,55,36,0
1,67,47,5
1,59,59,0
1,55,0,55
1,67,0,6
1,59,0,2
1,62,0,11
1,60,57,107
1,57,61,5
1,65,57,1
1,53,44,1
1,53,0,46
1,57,0,15
1,65,0,3
1,60,0,2
1,62,58,129
1,67,64,1
1,59,65,1
1,55,55,0
1,55,0,39
1,59,0,9
1,62,0,4
1,67,0,1
1,57,43,125
1,64,52,0
1,69,48,0
1,60,55,3
1,69,0,60
1,60,0,7
1,64,0,1
1,57,0,0
1,62,56,121
1,55,28,3
1,59,62,0
1,67,57,0
1,67,0,53
1,55,0,7
1,62,0,3
1,59,0,2
1,60,58,127
1,53,48,1
1,65,52,3
1,57,59,2
1,53,0,48
1,65,0,8
1,57,0,4
1,60,0,3
1,62,71,129
1,67,65,0
1,55,54,1
1,59,66,1
1,59,0,132
1,55,0,0
1,62,0,4
1,67,0,5
1,64,69,5854
1,60,78,0
1,57,64,1
1,64,0,131
1,60,0,3
1,57,0,3
1,62,66,783
1,55,77,1
1,59,71,1
1,59,0,136
1,55,0,13
1,62,0,3
1,60,64,588
1,64,58,1
1,57,56,1
1,64,0,115
1,57,0,5
1,60,0,0
1,59,63,746
1,62,59,1
1,55,56,1
1,59,0,137
1,55,0,8
1,62,0,5
1,60,63,113
1,64,54,0
1,57,57,0
1,69,57,0
1,69,0,102
1,57,0,5
1,64,0,0
1,60,0,9
1,55,57,96
1,67,50,3
1,62,46,1
1,59,48,4
1,67,0,50
1,62,0,1
1,59,0,4
1,55,0,4
1,65,59,10
1,60,62,1
1,57,56,1
1,53,51,2
1,53,0,55
1,57,0,2
1,60,0,1
1,65,0,7
1,59,55,113
1,67,53,0
1,62,61,1
1,55,42,3
1,55,0,46
1,59,0,4
1,62,0,6
1,67,0,5
1,69,57,121
1,64,53,3
1,60,58,0
1,57,45,4
1,57,0,59
1,69,0,9
1,60,0,7
1,64,0,1
1,55,41,93
1,62,57,1
1,59,58,2
1,67,57,1
1,67,0,52
1,59,0,13
1,62,0,6
1,55,0,0
1,60,61,101
1,53,59,3
1,65,55,0
1,57,56,3
1,53,0,38
1,57,0,15
1,65,0,1
1,60,0,7
1,62,50,114
1,67,45,1
1,59,54,2
1,55,44,8
1,55,0,58
1,59,0,11
1,67,0,4
1,62,0,2
1,64,55,116
1,69,49,0
1,57,39,4
1,60,55,0
1,69,0,66
1,57,0,5
1,60,0,2
1,64,0,2
1,62,53,104
1,55,36,0
1,67,47,5
1,59,59,0
1,55,0,55
1,67,0,6
1,59,0,2
1,62,0,11
1,60,57,107
1,57,61,5
1,65,57,1
1,53,44,1
1,53,0,46
1,57,0,15
1,65,0,3
1,60,0,2
1,62,58,129
1,67,64,1
1,59,65,1
1,55,55,0
1,55,0,39
1,59,0,9
1,62,0,4
1,67,0,1
1,57,43,125
1,64,52,0
1,69,48,0
1,60,55,3
1,69,0,60
1,60,0,7
1,64,0,1
1,57,0,0
1,62,56,121
1,55,28,3
1,59,62,0
1,67,57,0
1,67,0,53
1,55,0,7
1,62,0,3
1,59,0,2
1,60,58,127
1,53,48,1
1,65,52,3
1,57,59,2
1,53,0,48
1,65,0,8
1,57,0,4
1,60,0,3
1,62,71,129
1,67,65,0
1,55,54,1
1,59,66,1
1,59,0,132
1,55,0,0
1,62,0,4
1,67,0,5
1,60,63,7774
1,64,54,0
1,57,57,0
1,69,57,0
1,69,0,102
1,57,0,5
1,64,0,0
1,60,0,9
1,55,57,96
1,67,50,3
1,62,46,1
1,59,48,4
1,67,0,50
1,62,0,1
1,59,0,4
1,55,0,4
1,65,59,10
1,60,62,1
1,57,56,1
1,53,51,2
1,53,0,55
1,57,0,2
1,60,0,1
1,65,0,7
1,59,55,113
1,67,53,0
1,62,61,1
1,55,42,3
1,55,0,46
1,59,0,4
1,62,0,6
1,67,0,5
1,69,57,121
1,64,53,3
1,60,58,0
1,57,45,4
1,57,0,59
1,69,0,9
1,60,0,7
1,64,0,1
1,55,41,93
1,62,57,1
1,59,58,2
1,67,57,1
1,67,0,52
1,59,0,13
1,62,0,6
1,55,0,0
1,60,61,101
1,53,59,3
1,65,55,0
1,57,56,3
1,53,0,38
1,57,0,15
1,65,0,1
1,60,0,7
1,62,50,114
1,67,45,1
1,59,54,2
1,55,44,8
1,55,0,58
1,59,0,11
1,67,0,4
1,62,0,2
1,64,55,116
1,69,49,0
1,57,39,4
1,60,55,0
1,69,0,66
1,57,0,5
1,60,0,2
1,64,0,2
1,62,53,104
1,55,36,0
1,67,47,5
1,59,59,0
1,55,0,55
1,67,0,6
1,59,0,2
1,62,0,11
1,60,57,107
1,57,61,5
1,65,57,1
1,53,44,1
1,53,0,46
1,57,0,15
1,65,0,3
1,60,0,2
1,62,58,129
1,67,64,1
1,59,65,1
1,55,55,0
1,55,0,39
1,59,0,9
1,62,0,4
1,67,0,1
1,57,43,125
1,64,52,0
1,69,48,0
1,60,55,3
1,69,0,60
1,60,0,7
1,64,0,1
1,57,0,0
1,62,56,121
1,55,28,3
1,59,62,0
1,67,57,0
1,67,0,53
1,55,0,7
1,62,0,3
1,59,0,2
1,60,58,127
1,53,48,1
1,65,52,3
1,57,59,2
1,53,0,48
1,65,0,8
1,57,0,4
1,60,0,3
1,62,71,129
1,67,65,0
1,55,54,1
1,59,66,1
1,59,0,132
1,55,0,0
1,62,0,4
1,67,0,5
1,57,48,7737
1,60,56,2
1,53,55,1
1,53,0,649
1,60,0,2
1,57,0,5
1,64,72,1
1,57,66,2
1,60,69,0
1,64,0,19
1,60,0,7
1,57,0,6
1,55,76,39
1,62,71,0
1,59,74,1
1,62,0,53
1,59,0,11
1,55,0,13
1,60,80,15
1,57,78,2
1,53,69,1
1,60,0,177
1,57,0,1
1,53,0,6
1,64,75,6
1,57,70,5
1,60,86,0
1,64,0,15
1,60,0,10
1,57,0,5
1,62,72,3
1,55,67,1
1,59,67,3
1,62,0,183
1,55,0,30
1,59,0,18
1,60,61,100
1,57,61,0
1,53,55,1
1,53,0,544
1,60,0,6
1,57,0,3
1,64,85,90
1,57,83,0
1,60,84,1
1,64,0,14
1,60,0,10
1,57,0,5
1,62,78,9
1,55,78,1
1,59,81,1
1,55,0,291
1,59,0,9
1,62,0,5
1,60,61,100
1,57,61,0
1,53,55,1
1,53,0,544
1,60,0,6
1,57,0,3
1,64,85,90
1,57,83,0
1,60,84,1
1,64,0,14
1,60,0,10
1,57,0,5
1,62,78,9
1,55,78,1
1,59,81,1
1,55,0,291
1,59,0,9
1,62,0,5
1,60,61,100
1,57,61,0
1,53,55,1
1,53,0,544
1,60,0,6
1,57,0,3
1,64,85,90
1,57,83,0
1,60,84,1
1,64,0,14
1,60,0,10
1,57,0,5
1,62,78,9
1,55,78,1
1,59,81,1
1,55,0,291
1,59,0,9
1,62,0,5
1,60,61,100
1,57,61,0
1,53,55,1
1,53,0,544
1,60,0,6
1,57,0,3
1,64,85,90
1,57,83,0
1,60,84,1
1,64,0,14
1,60,0,10
1,57,0,5
1,62,78,9
1,55,78,1
1,59,81,1
1,55,0,291
1,59,0,9
1,62,0,5
1,60,61,100
1,57,61,0
1,53,55,1
1,53,0,544
1,60,0,6
1,57,0,3
1,64,85,90
1,57,83,0
1,60,84,1
1,64,0,14
1,60,0,10
1,57,0,5
1,62,78,9
1,55,78,1
1,59,81,1
1,55,0,291
1,59,0,9
1,62,0,5
1,60,61,100
1,57,61,0
1,53,55,1
1,53,0,544
1,60,0,6
1,57,0,3
1,64,85,90
1,57,83,0
1,60,84,1
1,64,0,14
1,60,0,10
1,57,0,5
1,62,78,9
1,55,78,1
1,59,81,1
1,55,0,291
1,59,0,9
1,62,0,5
1,64,77,10
1,57,64,0
1,60,74,0
1,64,0,613
1,60,0,8
1,57,0,10
1,62,75,316
1,59,89,2
1,55,64,0
1,59,0,127
1,62,0,7
1,55,0,8
1,64,82,667
1,57,70,3
1,60,82,0
1,60,0,49
1,64,0,1
1,57,0,3
1,62,64,705
1,59,66,3
1,55,66,2
1,59,0,63
1,62,0,0
1,55,0,6
1,64,76,781
1,57,69,0
1,60,80,2
1,60,0,50
1,64,0,0
1,57,0,6
1,62,58,811
1,55,62,0
1,59,66,2
1,62,0,32
1,59,0,3
1,55,0,1
1,57,81,227
1,60,81,0
1,64,78,1
1,64,0,115
1,57,0,1
1,60,0,3
1,59,88,442
1,62,77,0
1,55,80,1
1,55,0,34
1,62,0,5
1,59,0,0
1,57,81,90
1,64,77,1
1,60,84,2
1,57,0,100
1,60,0,2
1,64,0,28
1,62,74,225
1,55,74,0
1,59,92,1
1,59,0,296
1,55,0,15
1,62,0,338
1,57,77,75
1,60,83,1
1,64,69,1
1,60,0,649
1,57,0,1
1,64,0,76
1,59,77,75
1,62,62,1
1,55,63,0
1,55,0,824
1,59,0,32
1,62,0,3
2,52,111,2403
2,52,0,30
2,55,101,1
2,43,105,36
2,55,0,0
2,43,0,26
2,43,107,22
2,43,0,28
2,43,114,34
2,43,0,24
2,43,105,36
2,43,0,25
2,43,105,35
2,43,0,25
2,43,105,35
2,43,0,19
2,43,88,182
2,43,0,31
2,43,85,63
2,43,0,29
2,43,85,38
2,43,0,27
2,43,103,33
2,43,0,26
2,43,105,33
2,43,0,27
2,41,111,93
2,41,0,802
2,52,100,156
2,52,103,10
2,55,96,26
2,52,0,3
2,52,0,6
2,43,84,20
2,55,0,4
2,43,0,27
2,43,101,22
2,43,0,31
2,43,113,29
2,43,0,29
2,43,120,29
2,43,0,35
2,52,122,510
2,40,127,2
2,40,0,70
2,52,0,4
2,53,127,36
2,41,118,1
2,41,105,78
2,41,0,27
2,41,103,24
2,41,0,28
2,41,0,3
2,53,0,4
2,41,114,23
2,41,0,29
2,41,111,33
2,41,0,25
2,41,118,38
2,41,0,27
2,41,118,154
2,41,0,26
2,41,111,87
2,41,0,28
2,41,120,33
2,41,0,30
2,41,113,30
2,41,0,31
2,41,105,29
2,41,0,31
2,41,98,32
2,41,0,29
2,41,98,32
2,41,0,25
2,52,103,33
2,55,98,33
2,52,0,14
2,43,120,17
2,55,0,0
2,43,0,35
2,43,100,22
2,43,0,30
2,43,113,31
2,43,0,37
2,43,111,24
2,43,0,24
2,43,116,31
2,43,0,29
2,43,114,221
2,43,0,26
2,43,114,30
2,43,0,25
2,43,114,37
2,43,0,26
2,43,114,29
2,43,0,24
2,52,122,93
2,40,127,2
2,40,0,70
2,52,0,4
2,53,127,36
2,41,118,1
2,41,105,78
2,41,0,27
2,41,103,24
2,41,0,28
2,41,0,3
2,53,0,4
2,41,114,23
2,41,0,29
2,41,111,33
2,41,0,25
2,41,118,38
2,41,0,27
2,41,118,154
2,41,0,26
2,41,111,87
2,41,0,28
2,41,120,33
2,41,0,30
2,41,113,30
2,41,0,31
2,41,105,29
2,41,0,31
2,41,98,32
2,41,0,29
2,41,98,32
2,41,0,25
2,52,103,33
2,55,98,33
2,52,0,14
2,43,120,17
2,55,0,0
2,43,0,35
2,43,100,22
2,43,0,30
2,43,113,31
2,43,0,37
2,43,111,24
2,43,0,24
2,43,116,31
2,43,0,29
2,41,120,691
2,41,0,26
2,41,113,34
2,41,0,27
2,41,118,33
2,41,0,29
2,41,118,31
2,41,0,25
2,41,114,35
2,41,0,147
2,50,86,33
2,53,89,30
2,50,0,11
2,53,0,9
2,41,98,10
2,41,0,33
2,41,111,27
2,41,0,31
2,41,111,29
2,41,0,37
2,41,114,23
2,41,0,30
2,41,113,30
2,41,0,125
2,52,100,55
2,55,101,30
2,52,0,7
2,55,0,20
2,43,98,3
2,45,98,0
2,45,0,25
2,43,0,1
2,43,103,34
2,43,0,29
2,43,107,31
2,43,0,31
2,43,113,29
2,43,0,30
2,43,120,30
2,43,0,160
2,52,94,20
2,52,0,29
2,55,96,1
2,43,100,30
2,55,0,8
2,43,0,25
2,43,111,27
2,43,0,37
2,43,111,23
2,43,0,42
2,43,113,18
2,43,0,33
2,43,114,27
2,43,0,135
2,43,90,45
2,41,111,60
2,43,0,4
2,41,0,31
2,41,113,25
2,41,0,31
2,41,120,29
2,41,0,32
2,41,113,28
2,41,0,29
2,41,101,31
2,41,0,140
2,50,94,40
2,53,96,30
2,50,0,1
2,53,0,28
2,40,89,1
2,41,89,0
2,40,0,30
2,41,0,4
2,41,101,26
2,41,0,34
2,41,111,26
2,41,0,33
2,41,114,27
2,41,0,31
2,41,109,29
2,41,0,129
2,52,101,51
2,55,89,30
2,52,0,4
2,43,100,26
2,55,0,5
2,43,0,30
2,43,109,25
2,43,0,32
2,43,116,28
2,43,0,36
2,43,120,24
2,43,0,30
2,43,120,30
2,43,0,137
2,52,86,43
2,52,0,29
2,55,90,1
2,43,100,30
2,55,0,2
2,43,0,32
2,43,116,26
2,43,0,38
2,43,114,22
2,43,0,41
2,43,113,19
2,43,0,36
2,43,118,24
2,43,0,136
2,43,90,44
2,41,111,60
2,43,0,4
2,41,0,31
2,41,113,25
2,41,0,31
2,41,120,29
2,41,0,32
2,41,113,28
2,41,0,29
2,41,101,31
2,41,0,140
2,50,94,40
2,53,96,30
2,50,0,1
2,53,0,28
2,40,89,1
2,41,89,0
2,40,0,30
2,41,0,4
2,41,101,26
2,41,0,34
2,41,111,26
2,41,0,33
2,41,114,27
2,41,0,31
2,41,109,29
2,41,0,129
2,52,101,51
2,55,89,30
2,52,0,4
2,43,100,26
2,55,0,5
2,43,0,30
2,43,109,25
2,43,0,32
2,43,116,28
2,43,0,36
2,43,120,24
2,43,0,30
2,43,120,30
2,43,0,137
2,52,86,43
2,52,0,29
2,55,90,1
2,43,100,30
2,55,0,2
2,43,0,32
2,43,116,26
2,43,0,38
2,43,114,22
2,43,0,41
2,43,113,19
2,43,0,36
2,43,118,24
2,43,0,136
2,43,90,44
2,41,111,60
2,43,0,4
2,41,0,31
2,41,113,25
2,41,0,31
2,41,120,29
2,41,0,32
2,41,113,28
2,41,0,29
2,41,101,31
2,41,0,140
2,50,94,40
2,53,96,30
2,50,0,1
2,53,0,28
2,40,89,1
2,41,89,0
2,40,0,30
2,41,0,4
2,41,101,26
2,41,0,34
2,41,111,26
2,41,0,33
2,41,114,27
2,41,0,31
2,41,109,29
2,41,0,129
2,52,101,51
2,55,89,30
2,52,0,4
2,43,100,26
2,55,0,5
2,43,0,30
2,43,109,25
2,43,0,32
2,43,116,28
2,43,0,36
2,43,120,24
2,43,0,30
2,43,120,30
2,43,0,137
2,52,86,43
2,52,0,29
2,55,90,1
2,43,100,30
2,55,0,2
2,43,0,32
2,43,116,26
2,43,0,38
2,43,114,22
2,43,0,41
2,43,113,19
2,43,0,36
2,43,118,24
2,43,0,136
2,43,90,44
2,43,0,64
2,41,113,2
2,41,0,30
2,41,114,31
2,41,0,98
