track,note,velocity,time
1,83,64,1938
1,76,55,550
1,83,40,248
1,76,40,326
1,79,48,138
1,81,35,10
1,79,34,104
1,81,30,24
1,83,40,30
1,76,34,384
1,76,63,236
1,82,66,190
1,83,55,10
1,86,53,140
1,81,64,562
1,79,42,1334
1,78,51,28
1,74,46,24
1,69,59,74
1,81,34,1200
1,86,48,4
1,83,36,28
1,83,44,192
1,90,57,4
1,90,36,28
1,86,55,118
1,86,42,38
1,83,51,150
1,79,57,32
1,76,53,16
1,79,55,64
1,81,55,58
1,83,59,4
1,83,50,24
1,81,55,96
1,79,46,16
1,81,35,16
1,86,44,64
1,83,40,80
1,76,36,968
1,81,50,30
1,83,53,18
1,81,46,20
1,78,48,50
1,78,61,29550
1,79,64,0
1,78,53,16
1,74,53,0
1,71,61,16
1,82,50,20704
1,83,64,18
1,76,55,524
1,83,40,248
1,76,40,326
1,79,48,138
1,81,35,10
1,79,34,104
1,81,30,24
1,83,40,30
1,76,34,384
1,76,63,236
1,82,66,190
1,83,55,10
1,86,53,140
1,81,64,562
1,79,42,1334
1,78,51,28
1,74,46,24
1,69,59,74
1,81,34,1200
1,86,48,4
1,83,36,28
1,83,44,192
1,90,57,4
1,90,36,28
1,86,55,118
1,86,42,38
1,83,51,150
1,79,57,32
1,76,53,16
1,79,55,64
1,81,55,58
1,83,59,4
1,83,50,24
1,81,55,96
1,79,46,16
1,81,35,16
1,86,44,64
1,83,40,80
1,76,36,968
1,81,50,30
1,83,53,18
1,81,46,20
1,78,48,50
2,45,103,1536
2,57,89,0
2,57,109,564
2,45,101,0
2,40,100,2196
2,52,98,0
2,40,88,578
2,52,89,0
2,45,96,0
2,57,96,0
2,40,101,4714
2,52,89,4
2,47,100,62
2,52,96,122
2,47,92,1308
2,40,90,152
2,47,90,1314
2,52,98,164
2,47,100,1330
2,47,113,6
2,47,105,110
2,48,109,194
2,48,105,112
2,45,98,166
2,45,90,144
2,40,96,186
2,40,101,128
2,47,89,206
2,47,103,118
2,48,100,204
2,48,88,124
2,45,89,180
2,45,90,154
2,40,101,182
2,40,94,130
2,47,90,202
2,47,94,178
2,48,101,176
2,48,98,160
2,45,103,176
2,45,92,156
2,40,96,186
2,47,113,490
2,47,105,110
2,48,109,194
2,48,105,112
2,45,98,166
2,45,90,144
2,40,96,186
2,40,101,128
2,47,113,222
2,47,105,110
2,48,109,194
2,48,105,112
2,45,98,166
2,45,90,144
2,40,96,186
2,40,101,128
2,47,113,222
2,47,105,110
2,48,109,194
2,48,105,112
2,45,98,166
2,45,90,144
2,40,96,186
2,40,101,128
2,47,113,222
2,47,105,110
2,48,109,194
2,48,105,112
2,45,98,166
2,45,90,144
2,40,96,186
2,40,101,128
2,47,94,200
2,47,94,556
2,48,101,130
2,48,98,160
2,45,103,176
2,45,92,156
2,40,96,186
2,47,113,490
2,47,105,110
2,48,109,194
2,48,105,112
2,45,98,166
2,45,90,144
2,40,96,186
2,40,101,128
2,47,113,222
2,47,105,110
2,48,109,194
2,48,105,112
2,45,98,166
2,45,90,144
2,40,96,186
2,40,101,128
2,47,113,222
2,47,105,110
2,48,109,194
2,48,105,112
2,45,98,166
2,45,90,144
2,40,96,186
2,40,101,128
2,47,113,222
2,47,105,110
2,48,109,194
2,48,105,112
2,45,98,166
2,45,90,144
2,40,96,186
2,40,101,128
2,47,113,222
2,47,105,110
2,48,109,194
2,48,105,112
2,45,98,166
2,45,90,144
2,50,96,186
2,50,101,128
2,47,113,222
2,47,105,110
2,48,109,194
2,48,105,112
2,45,98,166
2,45,90,144
2,40,96,186
2,40,101,128
2,45,88,3034
2,45,77,192
2,57,69,200
2,57,64,124
2,45,74,574
2,45,71,168
2,57,70,200
2,57,74,134
2,45,72,544
2,45,71,178
2,57,76,190
2,57,69,104
2,45,70,570
2,45,65,170
2,57,65,220
2,57,69,106
2,45,70,388
2,40,69,74
2,40,77,154
2,52,73,188
2,52,72,124
2,40,82,20
2,40,86,108
2,40,77,114
2,52,88,214
2,52,76,128
2,40,76,0
2,40,88,106
2,40,70,128
2,52,71,204
2,52,78,108
2,40,78,46
2,40,83,96
2,40,86,204
2,52,75,196
2,52,85,144
2,45,100,582
2,45,73,164
2,57,80,182
2,57,82,134
2,45,80,0
2,45,64,144
2,57,77,184
2,57,76,142
2,45,61,368
2,45,74,132
2,45,76,144
2,57,86,192
2,57,83,120
2,45,76,372
2,45,80,114
2,45,78,192
2,57,88,198
2,57,86,126
2,45,78,358
2,40,98,80
2,40,65,172
2,52,76,186
2,52,72,136
2,40,76,388
2,40,80,108
2,40,80,120
2,52,66,192
2,52,76,124
2,40,60,382
2,40,75,102
2,40,76,160
2,52,83,192
2,52,90,92
2,40,76,368
2,40,86,80
2,40,77,204
2,52,81,186
2,52,83,140
2,40,88,376
2,47,113,64
2,47,105,110
2,48,109,194
2,48,105,112
2,45,98,166
2,45,90,144
2,40,96,186
2,40,101,128
2,47,89,206
2,47,103,118
2,48,100,204
2,48,88,124
2,45,89,180
2,45,90,154
2,40,101,182
2,40,94,130
2,47,90,202
2,47,94,178
2,48,101,176
2,48,98,160
2,45,103,176
2,45,92,156
2,40,96,186
2,47,113,490
2,47,105,110
2,48,109,194
2,48,105,112
2,45,98,166
2,45,90,144
2,50,96,186
2,50,101,128
2,47,113,222
2,47,105,110
2,48,109,194
2,48,105,112
2,45,98,166
2,45,90,144
2,40,96,186
2,40,101,128
2,47,113,222
2,47,105,110
2,48,109,194
2,48,105,112
2,45,98,166
2,45,90,144
2,40,96,186
2,40,101,128
2,47,113,222
2,47,105,110
2,48,109,194
2,48,105,112
2,45,98,166
2,45,90,144
2,40,96,186
2,40,101,128
2,47,113,222
2,47,105,110
2,48,109,194
2,48,105,112
2,45,98,166
2,45,90,144
2,50,96,186
2,50,101,128
2,47,113,68
2,47,105,110
2,48,109,194
2,48,105,112
2,45,98,166
2,45,90,144
2,40,96,186
2,40,101,128
2,47,113,222
2,47,105,110
2,48,109,194
2,48,105,112
2,45,98,166
2,45,90,144
2,50,96,186
2,50,101,128
2,47,113,68
2,47,105,110
2,48,109,194
2,48,105,112
2,45,98,166
2,45,90,144
2,40,96,186
2,40,101,128
2,47,113,222
2,47,105,110
2,48,109,194
2,48,105,112
2,45,98,166
2,45,90,144
2,50,96,186
2,50,101,128
2,47,113,68
2,47,105,110
2,48,109,194
2,48,105,112
2,45,98,166
2,45,90,144
2,40,96,186
2,40,101,128
2,47,113,222
2,47,105,110
2,48,109,194
2,48,105,112
2,45,98,166
2,45,90,144
2,50,96,186
2,50,101,128
2,47,113,22
2,47,105,110
2,48,109,8
2,48,105,112
2,45,98,144
2,45,90,122
2,40,96,0
2,40,101,108
2,47,113,22
2,47,105,110
2,48,109,8
2,48,105,112
2,45,98,144
2,45,90,122
2,50,96,0
2,50,101,108
2,47,113,22
2,47,105,110
2,48,109,8
2,48,105,112
2,45,98,144
2,45,90,122
2,40,96,0
2,40,101,108
2,47,113,22
2,47,105,110
2,48,109,8
2,48,105,112
2,45,98,144
2,45,90,122
2,50,96,0
2,50,101,108
3,64,37,1536
3,71,57,0
3,76,25,0
3,67,59,0
3,66,57,854
3,62,44,10
3,69,39,2
3,74,19,28
3,76,18,356
3,64,38,12
3,67,52,0
3,71,59,0
3,66,60,502
3,74,53,0
3,69,57,6
3,62,37,0
3,59,75,96
3,66,74,0
3,62,69,2
3,60,69,134
3,64,62,10
3,67,54,6
3,60,67,294
3,57,50,6
3,64,59,4
3,64,55,376
3,59,56,0
3,67,46,10
3,59,56,4
3,62,61,0
3,66,56,0
3,60,59,116
3,64,62,6
3,67,52,6
3,64,77,290
3,60,80,4
3,57,61,4
3,59,55,312
3,64,57,4
3,67,50,6
3,66,56,216
3,62,59,0
3,59,54,0
3,60,57,64
3,64,60,10
3,67,39,4
3,60,67,316
3,64,61,10
3,57,52,6
3,59,60,452
3,64,60,2
3,67,55,6
3,59,75,94
3,66,74,0
3,62,69,2
3,60,69,134
3,64,62,10
3,67,54,6
3,60,67,294
3,57,50,6
3,64,59,4
3,64,55,376
3,59,56,0
3,67,46,10
3,59,75,46
3,66,74,0
3,62,69,2
3,60,69,134
3,64,62,10
3,67,54,6
3,60,67,294
3,57,50,6
3,64,59,4
3,64,55,376
3,59,56,0
3,67,46,10
3,59,75,46
3,66,74,0
3,62,69,2
3,60,69,134
3,64,62,10
3,67,54,6
3,60,67,294
3,57,50,6
3,64,59,4
3,64,55,376
3,59,56,0
3,67,46,10
3,59,75,46
3,66,74,0
3,62,69,2
3,60,69,134
3,64,62,10
3,67,54,6
3,60,67,294
3,57,50,6
3,64,59,4
3,64,55,376
3,59,56,0
3,67,46,10
3,59,75,46
3,66,74,0
3,62,69,2
3,60,57,124
3,64,60,10
3,67,39,4
3,60,67,316
3,64,61,10
3,57,52,6
3,59,60,452
3,64,60,2
3,67,55,6
3,59,75,94
3,66,74,0
3,62,69,2
3,60,69,134
3,64,62,10
3,67,54,6
3,60,67,294
3,57,50,6
3,64,59,4
3,64,55,376
3,59,56,0
3,67,46,10
3,59,75,46
3,66,74,0
3,62,69,2
3,60,69,134
3,64,62,10
3,67,54,6
3,60,67,294
3,57,50,6
3,64,59,4
3,64,55,376
3,59,56,0
3,67,46,10
3,59,75,46
3,66,74,0
3,62,69,2
3,60,69,134
3,64,62,10
3,67,54,6
3,60,67,294
3,57,50,6
3,64,59,4
3,64,55,376
3,59,56,0
3,67,46,10
3,59,75,46
3,66,74,0
3,62,69,2
3,60,69,134
3,64,62,10
3,67,54,6
3,60,67,294
3,57,50,6
3,64,59,4
3,64,55,376
3,59,56,0
3,67,46,10
3,59,75,46
3,66,74,0
3,62,69,2
3,60,69,134
3,64,62,10
3,67,54,6
3,60,67,294
3,57,50,6
3,64,59,4
3,62,55,376
3,66,56,0
3,69,46,10
3,59,75,46
3,66,74,0
3,62,69,2
3,60,69,134
3,64,62,10
3,67,54,6
3,60,67,294
3,57,50,6
3,64,59,4
3,64,55,56
3,59,56,0
3,67,46,10
3,64,37,32
3,71,57,0
3,76,25,0
3,67,59,0
3,66,57,854
3,62,44,10
3,69,39,2
3,74,19,28
3,76,18,356
3,64,38,12
3,67,52,0
3,71,59,0
3,66,60,502
3,74,53,0
3,69,57,6
3,62,37,0
3,59,75,32
3,66,74,0
3,62,69,2
3,60,69,134
3,64,62,10
3,67,54,6
3,60,67,294
3,57,50,6
3,64,59,4
3,64,55,376
3,59,56,0
3,67,46,10
3,59,56,4
3,62,61,0
3,66,56,0
3,60,59,116
3,64,62,6
3,67,52,6
3,64,77,290
3,60,80,4
3,57,61,4
3,59,55,312
3,64,57,4
3,67,50,6
3,66,56,216
3,62,59,0
3,59,54,0
3,60,57,64
3,64,60,10
3,67,39,4
3,60,67,316
3,64,61,10
3,57,52,6
3,59,60,452
3,64,60,2
3,67,55,6
3,59,75,94
3,66,74,0
3,62,69,2
3,60,69,134
3,64,62,10
3,67,54,6
3,60,67,294
3,57,50,6
3,64,59,4
3,62,55,376
3,66,56,0
3,69,46,10
3,59,75,46
3,66,74,0
3,62,69,2
3,60,69,134
3,64,62,10
3,67,54,6
3,60,67,294
3,57,50,6
3,64,59,4
3,64,55,376
3,59,56,0
3,67,46,10
3,59,75,46
3,66,74,0
3,62,69,2
3,60,69,134
3,64,62,10
3,67,54,6
3,60,67,294
3,57,50,6
3,64,59,4
3,64,55,376
3,59,56,0
3,67,46,10
3,59,75,46
3,66,74,0
3,62,69,2
3,60,69,134
3,64,62,10
3,67,54,6
3,60,67,294
3,57,50,6
3,64,59,4
3,64,55,376
3,59,56,0
3,67,46,10
3,59,75,46
3,66,74,0
3,62,69,2
3,60,69,134
3,64,62,10
3,67,54,6
3,60,67,294
3,57,50,6
3,64,59,4
3,62,55,376
3,66,56,0
3,69,46,10
3,59,75,46
3,66,74,0
3,62,69,2
3,60,69,134
3,64,62,10
3,67,54,6
3,60,67,294
3,57,50,6
3,64,59,4
3,64,55,376
3,59,56,0
3,67,46,10
3,59,75,46
3,66,74,0
3,62,69,2
3,60,69,134
3,64,62,10
3,67,54,6
3,60,67,294
3,57,50,6
3,64,59,4
3,62,55,376
3,66,56,0
3,69,46,10
3,59,75,46
3,66,74,0
3,62,69,2
3,60,69,134
3,64,62,10
3,67,54,6
3,60,67,294
3,57,50,6
3,64,59,4
3,64,55,376
3,59,56,0
3,67,46,10
3,59,75,46
3,66,74,0
3,62,69,2
3,60,69,134
3,64,62,10
3,67,54,6
3,60,67,294
3,57,50,6
3,64,59,4
3,62,55,376
3,66,56,0
3,69,46,10
3,59,75,46
3,66,74,0
3,62,69,2
3,60,69,134
3,64,62,10
3,67,54,6
3,60,67,294
3,57,50,6
3,64,59,4
3,64,55,376
3,59,56,0
3,67,46,10
3,59,75,46
3,66,74,0
3,62,69,2
3,60,69,134
3,64,62,10
3,67,54,6
3,60,67,294
3,57,50,6
3,64,59,4
3,62,55,376
3,66,56,0
3,69,46,10
3,59,75,0
3,66,74,0
3,62,69,2
3,60,69,108
3,64,62,10
3,67,54,6
3,60,67,102
3,57,50,6
3,64,59,4
3,64,55,114
3,59,56,0
3,67,46,10
3,59,75,0
3,66,74,0
3,62,69,2
3,60,69,108
3,64,62,10
3,67,54,6
3,60,67,102
3,57,50,6
3,64,59,4
3,62,55,114
3,66,56,0
3,69,46,10
3,59,75,0
3,66,74,0
3,62,69,2
3,60,69,108
3,64,62,10
3,67,54,6
3,60,67,102
3,57,50,6
3,64,59,4
3,64,55,114
3,59,56,0
3,67,46,10
3,59,75,0
3,66,74,0
3,62,69,2
3,60,69,108
3,64,62,10
3,67,54,6
3,60,67,102
3,57,50,6
3,64,59,4
3,62,55,114
3,66,56,0
3,69,46,10
4,52,96,1522
4,71,92,6
4,59,84,30
4,67,105,16
4,64,96,12
4,78,89,24292
4,74,78,0
4,83,103,82
4,79,84,42
4,79,84,38
4,78,90,192
4,76,89,196
4,79,89,368
4,76,88,400
4,74,90,4
4,78,82,2
4,83,89,16
4,79,94,22
4,79,85,26
4,78,88,196
4,76,78,190
4,79,82,340
4,76,84,384
4,78,89,1124
4,74,78,0
4,83,103,82
4,79,84,42
4,79,84,38
4,78,90,192
4,76,89,196
4,79,89,368
4,76,88,400
4,78,89,1104
4,74,78,0
4,83,103,82
4,79,84,42
4,79,84,38
4,78,90,192
4,76,89,196
4,79,89,368
4,76,88,400
4,78,89,1104
4,74,78,0
4,83,103,82
4,79,84,42
4,79,84,38
4,78,90,192
4,76,89,196
4,79,89,368
4,76,88,400
4,78,89,1104
4,74,78,0
4,83,103,82
4,79,84,42
4,79,84,38
4,78,90,192
4,76,89,196
4,79,89,368
4,76,88,400
4,78,89,1104
4,74,78,0
4,83,103,82
4,79,84,42
4,79,84,38
4,78,90,192
4,76,89,196
4,79,89,368
4,76,88,400
4,78,89,1104
4,74,78,0
4,83,103,82
4,79,84,42
4,79,84,38
4,78,90,192
4,76,89,196
4,79,89,368
4,76,88,400
4,78,89,1104
4,74,78,0
4,83,103,82
4,79,84,42
4,79,84,38
4,78,90,192
4,76,89,196
4,79,89,368
4,76,88,400
4,78,89,1104
4,74,78,0
4,83,103,82
4,79,84,42
4,79,84,38
4,78,90,192
4,76,89,196
4,79,89,368
4,76,88,400
4,78,89,1104
4,74,78,0
4,83,103,82
4,79,84,42
4,79,84,38
4,78,90,192
4,76,89,196
4,79,89,368
4,76,88,400
4,78,89,1104
4,74,78,0
4,83,103,82
4,79,84,42
4,79,84,38
4,78,90,192
4,76,89,196
4,79,89,368
4,76,88,400
4,78,89,1104
4,74,78,0
4,83,103,82
4,79,84,42
4,79,84,38
4,78,90,192
4,76,89,196
4,79,89,368
4,81,88,400
4,78,89,1104
4,74,78,0
4,83,103,82
4,79,84,42
4,79,84,38
4,78,90,192
4,76,89,196
4,79,89,368
4,76,88,400
4,78,89,27632
4,74,78,0
4,83,103,82
4,79,84,42
4,79,84,38
4,78,90,192
4,76,89,196
4,79,89,368
4,76,88,400
4,74,90,4
4,78,82,2
4,83,89,16
