track,note,velocity,time
1,69,66,0
1,74,49,0
1,67,55,0
1,60,63,39230
1,64,54,0
1,57,57,0
1,69,57,0
1,55,57,306
1,67,50,10
1,62,46,2
1,59,48,14
1,65,59,32
1,60,62,2
1,57,56,4
1,53,51,6
1,59,55,362
1,67,53,0
1,62,61,2
1,55,42,10
1,69,57,388
1,64,53,8
1,60,58,0
1,57,45,14
1,55,41,298
1,62,57,4
1,59,58,6
1,67,57,2
1,60,61,324
1,53,59,8
1,65,55,0
1,57,56,10
1,62,50,364
1,67,45,4
1,59,54,6
1,55,44,26
1,64,55,372
1,69,49,0
1,57,39,12
1,60,55,0
1,62,53,332
1,55,36,0
1,67,47,16
1,59,59,0
1,60,57,342
1,57,61,16
1,65,57,4
1,53,44,4
1,62,58,412
1,67,64,4
1,59,65,2
1,55,55,0
1,57,43,400
1,64,52,0
1,69,48,0
1,60,55,10
1,62,56,388
1,55,28,10
1,59,62,0
1,67,57,0
1,60,58,406
1,53,48,4
1,65,52,8
1,57,59,8
1,62,71,412
1,67,65,0
1,55,54,4
1,59,66,4
1,64,69,18734
1,60,78,0
1,57,64,2
1,62,66,2504
1,55,77,4
1,59,71,4
1,60,64,1880
1,64,58,4
1,57,56,4
1,59,63,2388
1,62,59,2
1,55,56,2
1,60,63,362
1,64,54,0
1,57,57,0
1,69,57,0
1,55,57,306
1,67,50,10
1,62,46,2
1,59,48,14
1,65,59,32
1,60,62,2
1,57,56,4
1,53,51,6
1,59,55,362
1,67,53,0
1,62,61,2
1,55,42,10
1,69,57,388
1,64,53,8
1,60,58,0
1,57,45,14
1,55,41,298
1,62,57,4
1,59,58,6
1,67,57,2
1,60,61,324
1,53,59,8
1,65,55,0
1,57,56,10
1,62,50,364
1,67,45,4
1,59,54,6
1,55,44,26
1,64,55,372
1,69,49,0
1,57,39,12
1,60,55,0
1,62,53,332
1,55,36,0
1,67,47,16
1,59,59,0
1,60,57,342
1,57,61,16
1,65,57,4
1,53,44,4
1,62,58,412
1,67,64,4
1,59,65,2
1,55,55,0
1,57,43,400
1,64,52,0
1,69,48,0
1,60,55,10
1,62,56,388
1,55,28,10
1,59,62,0
1,67,57,0
1,60,58,406
1,53,48,4
1,65,52,8
1,57,59,8
1,62,71,412
1,67,65,0
1,55,54,4
1,59,66,4
1,60,63,24878
1,64,54,0
1,57,57,0
1,69,57,0
1,55,57,306
1,67,50,10
1,62,46,2
1,59,48,14
1,65,59,32
1,60,62,2
1,57,56,4
1,53,51,6
1,59,55,362
1,67,53,0
1,62,61,2
1,55,42,10
1,69,57,388
1,64,53,8
1,60,58,0
1,57,45,14
1,55,41,298
1,62,57,4
1,59,58,6
1,67,57,2
1,60,61,324
1,53,59,8
1,65,55,0
1,57,56,10
1,62,50,364
1,67,45,4
1,59,54,6
1,55,44,26
1,64,55,372
1,69,49,0
1,57,39,12
1,60,55,0
1,62,53,332
1,55,36,0
1,67,47,16
1,59,59,0
1,60,57,342
1,57,61,16
1,65,57,4
1,53,44,4
1,62,58,412
1,67,64,4
1,59,65,2
1,55,55,0
1,57,43,400
1,64,52,0
1,69,48,0
1,60,55,10
1,62,56,388
1,55,28,10
1,59,62,0
1,67,57,0
1,60,58,406
1,53,48,4
1,65,52,8
1,57,59,8
1,62,71,412
1,67,65,0
1,55,54,4
1,59,66,4
1,57,48,24758
1,60,56,8
1,53,55,2
1,64,72,4
1,57,66,6
1,60,69,0
1,55,76,124
1,62,71,0
1,59,74,4
1,60,80,48
1,57,78,8
1,53,69,2
1,64,75,18
1,57,70,16
1,60,86,0
1,62,72,10
1,55,67,2
1,59,67,10
1,60,61,320
1,57,61,0
1,53,55,4
1,64,85,288
1,57,83,0
1,60,84,4
1,62,78,28
1,55,78,4
1,59,81,4
1,60,61,320
1,57,61,0
1,53,55,4
1,64,85,288
1,57,83,0
1,60,84,4
1,62,78,28
1,55,78,4
1,59,81,4
1,60,61,320
1,57,61,0
1,53,55,4
1,64,85,288
1,57,83,0
1,60,84,4
1,62,78,28
1,55,78,4
1,59,81,4
1,60,61,320
1,57,61,0
1,53,55,4
1,64,85,288
1,57,83,0
1,60,84,4
1,62,78,28
1,55,78,4
1,59,81,4
1,60,61,320
1,57,61,0
1,53,55,4
1,64,85,288
1,57,83,0
1,60,84,4
1,62,78,28
1,55,78,4
1,59,81,4
1,60,61,320
1,57,61,0
1,53,55,4
1,64,85,288
1,57,83,0
1,60,84,4
1,62,78,28
1,55,78,4
1,59,81,4
1,64,77,32
1,57,64,0
1,60,74,0
1,62,75,1012
1,59,89,8
1,55,64,0
1,64,82,2134
1,57,70,10
1,60,82,0
1,62,64,2256
1,59,66,10
1,55,66,6
1,64,76,2500
1,57,69,0
1,60,80,6
1,62,58,2596
1,55,62,0
1,59,66,6
1,57,81,726
1,60,81,0
1,64,78,4
1,59,88,1414
1,62,77,0
1,55,80,4
1,57,81,70
1,64,77,4
1,60,84,6
1,62,74,74
1,55,74,0
1,59,92,4
1,57,77,106
1,60,83,4
1,64,69,2
1,59,77,46
1,62,62,2
1,55,63,0
2,40,111,7688
2,43,101,4
2,31,105,0
2,31,107,70
2,31,114,110
2,31,105,116
2,31,105,112
2,31,105,112
2,31,88,582
2,31,85,202
2,31,85,122
2,31,103,106
2,31,105,106
2,29,111,298
2,40,100,500
2,40,103,32
2,43,96,52
2,31,84,84
2,31,101,70
2,31,113,94
2,31,120,94
2,40,122,1632
2,28,127,6
2,41,127,116
2,29,118,2
2,29,105,250
2,29,103,78
2,29,114,74
2,29,111,106
2,29,118,122
2,29,118,492
2,29,111,278
2,29,120,106
2,29,113,96
2,29,105,94
2,29,98,102
2,29,98,102
2,40,103,106
2,43,98,106
2,31,120,0
2,31,100,70
2,31,113,100
2,31,111,78
2,31,116,100
2,31,114,708
2,31,114,96
2,31,114,118
2,31,114,92
2,40,122,298
2,28,127,6
2,41,127,116
2,29,118,2
2,29,105,250
2,29,103,78
2,29,114,74
2,29,111,106
2,29,118,122
2,29,118,492
2,29,111,278
2,29,120,106
2,29,113,96
2,29,105,94
2,29,98,102
2,29,98,102
2,40,103,106
2,43,98,106
2,31,120,0
2,31,100,70
2,31,113,100
2,31,111,78
2,31,116,100
2,29,120,2212
2,29,113,110
2,29,118,106
2,29,118,100
2,29,114,112
2,38,86,106
2,41,89,96
2,29,98,32
2,29,111,88
2,29,111,94
2,29,114,74
2,29,113,96
2,40,100,176
2,43,101,96
2,31,98,10
2,33,98,0
2,31,103,110
2,31,107,100
2,31,113,94
2,31,120,96
2,40,94,64
2,43,96,4
2,31,100,96
2,31,111,88
2,31,111,74
2,31,113,58
2,31,114,88
2,31,90,144
2,29,111,192
2,29,113,80
2,29,120,94
2,29,113,90
2,29,101,100
2,38,94,128
2,41,96,96
2,28,89,4
2,29,89,0
2,29,101,84
2,29,111,84
2,29,114,88
2,29,109,94
2,40,101,164
2,43,89,96
2,31,100,84
2,31,109,80
2,31,116,90
2,31,120,78
2,31,120,96
2,40,86,138
2,43,90,4
2,31,100,96
2,31,116,84
2,31,114,72
2,31,113,62
2,31,118,78
2,31,90,142
2,29,111,192
2,29,113,80
2,29,120,94
2,29,113,90
2,29,101,100
2,38,94,128
2,41,96,96
2,28,89,4
2,29,89,0
2,29,101,84
2,29,111,84
2,29,114,88
2,29,109,94
2,40,101,164
2,43,89,96
2,31,100,84
2,31,109,80
2,31,116,90
2,31,120,78
2,31,120,96
2,40,86,138
2,43,90,4
2,31,100,96
2,31,116,84
2,31,114,72
2,31,113,62
2,31,118,78
2,31,90,142
2,29,111,192
2,29,113,80
2,29,120,94
2,29,113,90
2,29,101,100
2,38,94,128
2,41,96,96
2,28,89,4
2,29,89,0
2,29,101,84
2,29,111,84
2,29,114,88
2,29,109,94
2,40,101,164
2,43,89,96
2,31,100,84
2,31,109,80
2,31,116,90
2,31,120,78
2,31,120,96
2,40,86,138
2,43,90,4
2,31,100,96
2,31,116,84
2,31,114,72
2,31,113,62
2,31,118,78
2,31,90,142
2,29,113,6
2,29,114,100
2,29,127,64
2,28,114,70
2,28,116,106
2,28,98,50
2,26,122,190
2,26,116,78
2,26,111,64
2,31,109,170
2,31,114,102
2,31,120,56
2,29,109,174
2,29,111,92
2,29,111,64
2,28,105,184
2,28,111,104
2,28,111,64
2,26,116,204
2,26,125,84
2,26,120,92
2,31,116,190
2,31,105,36
2,31,114,100
2,29,109,168
2,29,113,92
2,29,113,74
2,28,101,6
2,28,111,76
2,28,114,74
2,26,113,32
2,26,101,80
2,26,120,76
2,31,107,192
2,31,114,106
2,31,113,64
2,29,105,10
2,29,113,112
2,29,120,72
2,28,111,22
2,28,114,76
2,28,111,64
2,26,96,12
2,26,111,94
2,26,113,122
2,31,111,12
2,29,105,486
2,29,103,78
2,29,114,96
2,29,111,106
2,29,118,122
2,29,118,492
2,29,111,278
2,29,120,106
2,29,113,96
2,29,105,94
2,29,98,102
2,29,98,102
2,40,103,106
2,43,98,106
2,31,120,0
2,31,100,70
2,31,113,100
2,31,111,78
2,31,116,100
2,31,114,708
2,31,114,96
2,31,114,118
2,31,114,92
2,40,122,298
2,28,127,6
2,41,127,116
2,29,118,2
2,29,105,250
2,29,103,78
2,29,114,74
2,29,111,106
2,29,118,122
2,29,118,492
2,29,111,278
2,29,120,106
2,29,113,96
2,29,105,94
2,29,98,102
2,29,98,102
2,40,103,106
2,43,98,106
2,31,120,0
2,31,100,70
2,31,113,100
2,31,111,78
2,31,116,100
2,40,122,1636
2,28,127,6
2,41,127,116
2,29,118,2
2,29,105,250
2,29,103,78
2,29,114,74
2,29,111,106
2,29,118,122
2,29,118,492
2,29,111,278
2,29,120,106
2,29,113,96
2,29,105,94
2,29,98,102
2,29,98,102
2,40,103,106
2,43,98,106
2,31,120,0
2,31,100,70
2,31,113,100
2,31,111,78
2,31,116,100
2,31,120,694
2,31,100,70
2,31,113,100
2,31,111,78
2,31,116,100
2,29,111,676
2,29,113,80
2,29,120,94
2,29,113,90
2,29,101,100
2,38,94,128
2,41,96,96
2,28,89,4
2,29,89,0
2,29,101,84
2,29,111,84
2,29,114,88
2,29,109,94
2,40,101,164
2,43,89,96
2,31,100,84
2,31,109,80
2,31,116,90
2,31,120,78
2,31,120,96
2,40,86,138
2,43,90,4
2,31,100,96
2,31,116,84
2,31,114,72
2,31,113,62
2,31,118,78
2,31,90,142
2,29,111,192
2,29,113,80
2,29,120,94
2,29,113,90
2,29,101,100
2,38,94,128
2,41,96,96
2,28,89,4
2,29,89,0
2,29,101,84
2,29,111,84
2,29,114,88
2,29,109,94
2,40,101,164
2,43,89,96
2,31,100,84
2,31,109,80
2,31,116,90
2,31,120,78
2,31,120,96
2,40,86,138
2,43,90,4
2,31,100,96
2,31,116,84
2,31,114,72
2,31,113,62
2,31,118,78
2,31,90,142
2,29,113,6
2,29,114,100
2,29,127,64
2,28,114,70
2,28,116,106
2,28,98,50
2,26,122,190
2,26,116,78
2,26,111,64
2,31,109,170
2,31,114,102
2,31,120,56
2,29,109,174
2,29,111,92
2,29,111,64
2,28,105,184
2,28,111,104
2,28,111,64
2,26,116,204
2,26,125,84
2,26,120,92
2,31,116,190
2,31,105,36
2,31,114,100
2,29,109,168
2,29,113,92
2,29,113,74
2,28,101,6
2,28,111,76
2,28,114,74
2,26,113,32
2,26,101,80
2,26,120,76
2,31,107,192
2,31,114,106
2,31,113,64
2,29,105,10
2,29,113,112
2,29,120,72
2,28,111,22
2,28,114,76
2,28,111,64
2,26,96,12
2,26,111,94
2,26,113,122
2,31,111,12
2,29,105,486
2,29,103,78
2,29,114,96
2,29,111,106
2,29,118,122
2,29,118,492
2,29,111,278
2,29,120,106
2,29,113,96
2,29,105,94
2,29,98,102
2,29,98,102
2,40,103,106
2,43,98,106
2,31,120,0
2,31,100,70
2,31,113,100
2,31,111,78
2,31,116,100
2,31,114,708
2,31,114,96
2,31,114,118
2,31,114,92
2,40,122,298
2,28,127,6
2,41,127,116
2,29,118,2
2,29,105,250
2,29,103,78
2,29,114,74
2,29,111,106
2,29,118,122
2,29,118,492
2,29,111,278
2,29,120,106
2,29,113,96
2,29,105,94
2,29,98,102
2,29,98,102
2,40,103,106
2,43,98,106
2,31,120,0
2,31,100,70
2,31,113,100
2,31,111,78
2,31,116,100
2,40,122,1636
2,28,127,6
2,41,127,116
2,29,118,2
2,29,105,250
2,29,103,78
2,29,114,74
2,29,111,106
2,29,118,122
2,29,118,492
2,29,111,278
2,29,120,106
2,29,113,96
2,29,105,94
2,29,98,102
2,29,98,102
2,40,103,106
2,43,98,106
2,31,120,0
2,31,100,70
2,31,113,100
2,31,111,78
2,31,116,100
2,40,122,1636
2,28,127,6
2,41,127,116
2,29,118,2
2,29,105,250
2,29,103,78
2,29,114,74
2,29,111,106
2,29,118,122
2,29,118,492
2,29,111,278
2,29,120,106
2,29,113,96
2,29,105,94
2,29,98,102
2,29,98,102
2,40,103,106
2,43,98,106
2,31,120,0
2,31,100,70
2,31,113,100
2,31,111,78
2,31,116,100
2,31,120,694
2,31,100,70
2,31,113,100
2,31,111,78
2,31,116,100
2,29,113,694
2,29,114,100
2,29,127,64
2,28,114,70
2,28,116,106
2,28,98,50
2,26,122,190
2,26,116,78
2,26,111,64
2,31,109,170
2,31,114,102
2,31,120,56
2,29,109,174
2,29,111,92
2,29,111,64
2,28,105,184
2,28,111,104
2,28,111,64
2,26,116,204
2,26,125,84
2,26,120,92
2,31,116,190
2,31,105,36
2,31,114,100
2,29,109,168
2,29,113,92
2,29,113,74
2,28,101,6
2,28,111,76
2,28,114,74
2,26,113,32
2,26,101,80
2,26,120,76
2,31,107,192
2,31,114,106
2,31,113,64
2,29,105,10
2,29,113,112
2,29,120,72
2,28,111,22
2,28,114,76
2,28,111,64
2,26,96,12
2,26,111,94
2,26,113,122
2,31,111,12
2,29,105,486
2,29,103,78
2,29,114,96
2,29,111,106
2,29,118,122
2,29,118,492
2,29,111,278
2,29,120,106
2,29,113,96
2,29,105,94
2,29,98,102
2,29,98,102
2,40,103,106
2,43,98,106
2,31,120,0
2,31,100,70
2,31,113,100
2,31,111,78
2,31,116,100
2,31,114,708
2,31,114,96
2,31,114,118
2,31,114,92
2,40,122,298
2,28,127,6
2,41,127,116
2,29,118,2
2,29,105,250
2,29,103,78
2,29,114,74
2,29,111,106
2,29,118,122
2,29,118,492
2,29,111,278
2,29,120,106
2,29,113,96
2,29,105,94
2,29,98,102
2,29,98,102
2,40,103,106
2,43,98,106
2,31,120,0
2,31,100,70
2,31,113,100
2,31,111,78
2,31,116,100
2,40,122,1636
2,28,127,6
2,41,127,116
2,29,118,2
2,29,105,250
2,29,103,78
2,29,114,74
2,29,111,106
2,29,118,122
2,29,118,492
2,29,111,278
2,29,120,106
2,29,113,96
2,29,105,94
2,29,98,102
2,29,98,102
2,40,103,106
2,43,98,106
2,31,120,0
2,31,100,70
2,31,113,100
2,31,111,78
2,31,116,100
2,40,122,1636
2,28,127,6
2,41,127,116
2,29,118,2
2,29,105,250
2,29,103,78
2,29,114,74
2,29,111,106
2,29,118,122
2,29,118,492
2,29,111,278
2,29,120,106
2,29,113,96
2,29,105,94
2,29,98,102
2,29,98,102
2,40,103,106
2,43,98,106
2,31,120,0
2,31,100,70
2,31,113,100
2,31,111,78
2,31,116,100
2,28,94,1652
2,29,86,354
2,41,85,1574
2,29,84,1402
2,31,86,150
2,40,76,1312
2,43,73,86
2,31,67,80
2,29,89,4
2,41,70,1526
2,29,76,1314
2,30,75,34
2,31,90,82
2,43,57,1554
2,31,57,1312
2,29,63,158
2,41,67,1490
2,41,18,90
2,29,64,732
2,30,80,60
2,31,77,0
2,43,78,1602
2,31,57,918
2,29,63,158
2,41,67,1490
2,41,18,90
2,29,64,732
2,30,80,60
2,31,77,0
2,43,78,1602
2,31,57,918
2,29,63,158
2,41,67,1490
2,41,18,90
2,29,64,732
2,30,80,60
2,31,77,0
2,43,78,1602
2,31,57,918
2,29,63,158
2,41,67,1490
2,41,18,90
2,29,64,732
2,30,80,60
2,31,77,0
