track,note,velocity,time
0,44,90,407
0,42,74,92
0,42,74,20
0,42,94,20
0,46,73,44
0,35,105,92
0,35,110,92
0,42,76,0
0,54,78,0
0,82,42,0
0,69,36,44
0,42,64,44
0,54,74,0
0,82,53,0
0,82,33,44
0,40,100,44
0,42,70,0
0,54,74,0
0,82,53,0
0,59,59,76
0,42,64,16
0,54,74,0
0,60,87,0
0,64,48,0
0,35,116,52
0,42,62,0
0,54,78,0
0,63,91,0
0,42,78,76
0,54,70,0
0,60,73,0
0,63,83,0
0,40,100,80
0,42,94,0
0,54,70,0
0,63,69,0
0,65,91,0
0,35,105,28
0,42,74,0
0,54,61,0
0,63,83,0
0,65,95,0
0,35,110,58
0,42,76,0
0,54,78,0
0,42,64,92
0,54,74,0
0,64,47,0
0,40,100,92
0,42,70,0
0,54,74,0
0,62,64,0
0,59,59,76
0,42,64,16
0,54,74,0
0,60,87,0
0,62,62,0
0,64,72,0
0,35,116,52
0,42,62,0
0,54,78,0
0,63,91,0
0,63,67,0
0,42,78,76
0,54,70,0
0,60,73,0
0,64,37,0
0,40,100,80
0,42,94,0
0,54,70,0
0,64,76,0
0,65,91,0
0,35,105,28
0,42,74,0
0,54,61,0
0,64,87,0
0,65,95,0
0,35,110,58
0,42,76,0
0,54,78,0
0,82,42,0
0,69,36,44
0,42,64,44
0,54,74,0
0,82,53,0
0,82,33,44
0,40,100,44
0,42,70,0
0,54,74,0
0,82,53,0
0,59,59,76
0,42,64,16
0,54,74,0
0,60,87,0
0,64,48,0
0,35,116,52
0,42,62,0
0,54,78,0
0,63,91,0
0,42,78,76
0,54,70,0
0,60,73,0
0,63,83,0
0,40,100,80
0,42,94,0
0,54,70,0
0,63,69,0
0,65,91,0
0,35,105,28
0,42,74,0
0,54,61,0
0,63,83,0
0,65,95,0
0,35,110,58
0,42,76,0
0,54,78,0
0,42,64,92
0,54,74,0
0,64,47,0
0,40,100,92
0,42,70,0
0,54,74,0
0,62,64,0
0,59,59,76
0,42,64,16
0,54,74,0
0,60,87,0
0,62,62,0
0,64,72,0
0,35,116,52
0,42,62,0
0,54,78,0
0,63,91,0
0,63,67,0
0,42,78,76
0,54,70,0
0,60,73,0
0,64,37,0
0,40,100,80
0,42,94,0
0,54,70,0
0,64,76,0
0,65,91,0
0,35,105,28
0,42,74,0
0,54,61,0
0,64,87,0
0,65,95,0
0,71,74,50
0,35,110,8
0,42,76,0
0,54,78,0
0,71,0,0
0,82,42,0
0,72,112,2
0,69,36,42
0,42,64,44
0,54,74,0
0,82,53,0
0,82,33,44
0,40,100,44
0,42,70,0
0,54,74,0
0,72,0,0
0,75,112,0
0,82,53,0
0,75,0,32
0,59,59,44
0,42,64,16
0,54,74,0
0,60,87,0
0,64,48,0
0,35,116,52
0,42,62,0
0,54,78,0
0,63,91,0
0,42,78,76
0,54,70,0
0,60,73,0
0,63,83,0
0,75,112,0
0,75,0,14
0,40,100,66
0,42,94,0
0,54,70,0
0,63,69,0
0,65,91,0
0,35,105,28
0,42,74,0
0,54,61,0
0,63,83,0
0,65,95,0
0,75,106,0
0,75,0,22
0,35,110,58
0,42,76,0
0,54,78,0
0,42,64,92
0,54,74,0
0,64,47,0
0,72,112,0
0,72,0,64
0,40,100,28
0,42,70,0
0,54,74,0
0,62,64,0
0,67,100,0
0,59,59,76
0,42,64,16
0,54,74,0
0,60,87,0
0,62,62,0
0,64,72,0
0,67,0,34
0,71,106,10
0,35,116,8
0,42,62,0
0,54,78,0
0,63,91,0
0,63,67,0
0,72,106,2
0,71,0,6
0,42,78,76
0,54,70,0
0,60,73,0
0,64,37,0
0,75,106,0
0,72,0,4
0,75,0,72
0,40,100,8
0,42,94,0
0,54,70,0
0,64,76,0
0,65,91,0
0,72,106,0
0,72,0,14
0,35,105,14
0,42,74,0
0,54,61,0
0,64,87,0
0,65,95,0
0,65,96,0
0,35,110,58
0,42,76,0
0,54,78,0
0,82,42,0
0,69,36,44
0,42,64,44
0,54,74,0
0,82,53,0
0,82,33,44
0,40,100,44
0,42,70,0
0,54,74,0
0,82,53,0
0,59,59,76
0,42,64,16
0,54,74,0
0,60,87,0
0,64,48,0
0,35,116,52
0,42,62,0
0,54,78,0
0,63,91,0
0,42,78,76
0,54,70,0
0,60,73,0
0,63,83,0
0,40,100,80
0,42,94,0
0,54,70,0
0,63,69,0
0,65,91,0
0,65,0,24
0,35,105,28
0,42,74,0
0,54,61,0
0,63,83,0
0,65,95,0
0,35,110,58
0,42,76,0
0,54,78,0
0,42,64,92
0,54,74,0
0,64,47,0
0,40,100,92
0,42,70,0
0,54,74,0
0,62,64,0
0,59,59,76
0,42,64,16
0,54,74,0
0,60,87,0
0,62,62,0
0,64,72,0
0,35,116,52
0,42,62,0
0,54,78,0
0,63,91,0
0,63,67,0
0,42,78,76
0,54,70,0
0,60,73,0
0,64,37,0
0,40,100,80
0,42,94,0
0,54,70,0
0,64,76,0
0,65,91,0
0,35,105,28
0,42,74,0
0,54,61,0
0,64,87,0
0,65,95,0
0,71,96,50
0,35,110,8
0,42,76,0
0,54,78,0
0,71,0,0
0,82,42,0
0,72,112,2
0,69,36,42
0,42,64,44
0,54,74,0
0,82,53,0
0,82,33,44
0,40,100,44
0,42,70,0
0,54,74,0
0,72,0,0
0,75,112,0
0,82,53,0
0,75,0,32
0,59,59,44
0,42,64,16
0,54,74,0
0,60,87,0
0,64,48,0
0,35,116,52
0,42,62,0
0,54,78,0
0,63,91,0
0,42,78,76
0,54,70,0
0,60,73,0
0,63,83,0
0,75,112,0
0,75,0,14
0,40,100,66
0,42,94,0
0,54,70,0
0,63,69,0
0,65,91,0
0,35,105,28
0,42,74,0
0,54,61,0
0,63,83,0
0,65,95,0
0,75,106,0
0,75,0,22
0,35,110,58
0,42,76,0
0,54,78,0
0,42,64,92
0,54,74,0
0,64,47,0
0,72,112,0
0,72,0,64
0,40,100,28
0,42,70,0
0,54,74,0
0,62,64,0
0,67,100,0
0,59,59,76
0,42,64,16
0,54,74,0
0,60,87,0
0,62,62,0
0,64,72,0
0,67,0,34
0,71,106,10
0,35,116,8
0,42,62,0
0,54,78,0
0,63,91,0
0,63,67,0
0,72,106,2
0,71,0,6
0,42,78,76
0,54,70,0
0,60,73,0
0,64,37,0
0,75,106,0
0,72,0,4
0,75,0,72
0,40,100,8
0,42,94,0
0,54,70,0
0,64,76,0
0,65,91,0
0,72,106,0
0,72,0,14
0,35,105,14
0,42,74,0
0,54,61,0
0,64,87,0
0,65,95,0
0,65,96,0
0,35,110,58
0,42,76,0
0,54,78,0
0,82,42,0
0,69,36,44
0,42,64,44
0,54,74,0
0,82,42,0
0,82,33,44
0,40,100,44
0,42,70,0
0,54,74,0
0,82,42,0
0,59,59,76
0,42,64,16
0,54,74,0
0,60,87,0
0,64,48,0
0,35,116,52
0,42,62,0
0,54,78,0
0,63,91,0
0,42,78,76
0,54,70,0
0,60,73,0
0,63,83,0
0,40,100,80
0,42,94,0
0,54,70,0
0,63,69,0
0,65,91,0
0,65,0,24
0,35,105,28
0,42,74,0
0,54,61,0
0,63,83,0
0,65,95,0
0,35,110,58
0,42,76,0
0,54,78,0
0,42,64,92
0,54,74,0
0,64,47,0
0,40,100,92
0,42,70,0
0,54,74,0
0,62,64,0
0,59,59,76
0,42,64,16
0,54,74,0
0,60,87,0
0,62,62,0
0,64,72,0
0,35,116,52
0,42,62,0
0,54,78,0
0,63,91,0
0,63,67,0
0,42,78,76
0,54,70,0
0,55,51,0
0,60,73,0
0,64,37,0
0,40,100,80
0,42,94,0
0,49,43,0
0,54,70,0
0,64,76,0
0,65,91,0
0,35,105,28
0,42,74,0
0,54,61,0
0,57,49,0
0,64,87,0
0,65,95,0
0,60,64,53
0,63,64,0
0,67,76,0
0,29,86,5
0,35,110,0
0,53,58,0
0,54,78,0
0,56,78,0
0,57,46,0
0,58,60,0
0,60,84,0
0,63,74,0
0,67,96,0
0,72,112,2
0,69,36,42
0,42,64,44
0,54,74,0
0,82,53,0
0,82,33,44
0,40,100,44
0,42,70,0
0,54,74,0
0,72,0,0
0,75,112,0
0,82,53,0
0,75,0,32
0,59,59,44
0,42,64,16
0,54,74,0
0,60,87,0
0,64,48,0
0,35,116,52
0,42,62,0
0,54,78,0
0,63,91,0
0,42,78,76
0,54,70,0
0,60,73,0
0,63,83,0
0,75,112,0
0,75,0,14
0,40,100,66
0,42,94,0
0,54,70,0
0,63,69,0
0,65,91,0
0,35,105,28
0,42,74,0
0,54,61,0
0,63,83,0
0,65,95,0
0,75,106,0
0,75,0,22
0,35,110,58
0,42,76,0
0,54,78,0
0,42,64,92
0,54,74,0
0,64,47,0
0,72,112,0
0,72,0,64
0,40,100,28
0,42,70,0
0,54,74,0
0,62,64,0
0,67,100,0
0,59,59,76
0,42,64,16
0,54,74,0
0,60,87,0
0,62,62,0
0,64,72,0
0,67,0,34
0,71,106,10
0,35,116,8
0,42,62,0
0,54,78,0
0,63,91,0
0,63,67,0
0,72,106,2
0,71,0,6
0,42,78,76
0,54,70,0
0,60,73,0
0,64,37,0
0,75,106,0
0,72,0,4
0,75,0,72
0,40,100,8
0,42,94,0
0,54,70,0
0,64,76,0
0,65,91,0
0,72,106,0
0,72,0,14
0,35,105,14
0,42,74,0
0,54,61,0
0,64,87,0
0,65,95,0
0,65,96,0
0,53,80,2
0,56,80,0
0,35,110,5
0,37,86,0
0,42,76,0
0,53,78,0
0,54,78,0
0,56,58,0
0,60,74,0
0,82,42,0
0,69,36,44
0,42,64,44
0,54,74,0
0,82,53,0
0,82,33,44
0,40,100,44
0,42,70,0
0,54,74,0
0,82,53,0
0,59,59,76
0,42,64,16
0,54,74,0
0,60,87,0
0,64,48,0
0,35,116,52
0,42,62,0
0,54,78,0
0,63,91,0
0,42,78,76
0,54,70,0
0,60,73,0
0,63,83,0
0,40,100,80
0,42,94,0
0,54,70,0
0,63,69,0
0,65,91,0
0,65,0,24
0,35,105,28
0,42,74,0
0,54,61,0
0,63,83,0
0,65,95,0
0,52,68,2
0,58,76,0
0,35,110,5
0,36,82,0
0,42,76,0
0,52,84,0
0,54,78,0
0,58,96,0
0,63,92,0
0,42,64,72
0,54,74,0
0,64,47,0
0,40,100,92
0,42,70,0
0,54,74,0
0,62,64,0
0,59,59,76
0,42,64,16
0,54,74,0
0,60,87,0
0,62,62,0
0,64,72,0
0,35,116,52
0,42,62,0
0,54,78,0
0,63,91,0
0,63,67,0
0,42,78,76
0,54,70,0
0,60,73,0
0,64,37,0
0,40,100,80
0,42,94,0
0,54,70,0
0,64,76,0
0,65,91,0
0,35,105,28
0,42,74,0
0,54,61,0
0,64,87,0
0,65,95,0
0,71,96,30
0,41,58,2
0,53,58,0
0,65,58,0
0,72,58,0
0,75,58,0
0,29,90,5
0,35,110,0
0,42,76,0
0,54,78,0
0,71,0,0
0,82,42,0
0,72,112,2
0,69,36,34
0,42,64,44
0,54,74,0
0,82,53,0
0,82,33,44
0,40,100,44
0,42,70,0
0,54,74,0
0,72,0,0
0,75,112,0
0,82,53,0
0,75,0,32
0,59,59,44
0,42,64,16
0,54,74,0
0,60,87,0
0,64,48,0
0,35,116,52
0,42,62,0
0,54,78,0
0,63,91,0
0,42,78,76
0,54,70,0
0,60,73,0
0,63,83,0
0,75,112,0
0,75,0,14
0,40,100,66
0,42,94,0
0,54,70,0
0,63,69,0
0,65,91,0
0,35,105,28
0,42,74,0
0,54,61,0
0,63,83,0
0,65,95,0
0,75,106,0
0,75,0,22
0,35,110,58
0,42,76,0
0,54,78,0
0,42,64,92
0,54,74,0
0,64,47,0
0,72,112,0
0,72,0,64
0,40,100,28
0,42,70,0
0,54,74,0
0,62,64,0
0,67,100,0
0,59,59,76
0,42,64,16
0,54,74,0
0,60,87,0
0,62,62,0
0,64,72,0
0,67,0,34
0,71,106,10
0,35,116,8
0,42,62,0
0,54,78,0
0,63,91,0
0,63,67,0
0,72,106,2
0,71,0,6
0,42,78,76
0,54,70,0
0,60,73,0
0,64,37,0
0,75,106,0
0,72,0,4
0,75,0,72
0,40,100,8
0,42,94,0
0,54,70,0
0,64,76,0
0,65,91,0
0,72,106,0
0,72,0,14
0,35,105,14
0,42,74,0
0,54,61,0
0,64,87,0
0,65,95,0
0,75,112,16
0,77,92,10
0,75,0,2
0,49,58,2
0,68,58,0
0,72,58,0
0,77,58,0
0,35,110,5
0,37,94,0
0,42,76,0
0,49,74,0
0,54,78,0
0,60,84,0
0,65,70,0
0,68,54,0
0,72,84,0
0,82,53,0
0,69,36,44
0,42,64,44
0,54,74,0
0,82,42,0
0,82,33,44
0,40,100,44
0,42,70,0
0,54,74,0
0,82,92,0
0,59,59,76
0,42,64,16
0,54,74,0
0,60,87,0
0,64,48,0
0,35,116,6
0,42,62,0
0,54,78,0
0,63,91,0
0,77,0,10
0,42,78,50
0,54,70,0
0,60,73,0
0,63,83,0
0,70,96,10
0,70,0,6
0,40,100,2
0,42,94,0
0,54,70,0
0,63,69,0
0,65,91,0
0,48,76,23
0,52,90,0
0,58,64,0
0,63,58,0
0,35,112,5
0,36,116,0
0,46,77,0
0,48,106,0
0,54,61,0
0,64,112,0
0,65,95,0
0,68,88,0
0,70,96,0
0,75,92,0
0,70,88,2
0,35,116,154
0,42,64,0
0,54,74,0
0,48,66,17
0,52,66,0
0,58,38,0
0,63,56,0
0,35,108,4
0,36,104,0
0,46,87,0
0,48,92,0
0,54,74,0
0,64,88,0
0,65,84,0
0,68,74,0
0,70,78,0
0,75,84,0
0,59,59,4
0,54,74,16
0,60,87,0
0,35,116,30
0,42,62,0
0,54,78,0
0,63,91,0
0,70,0,24
0,42,78,16
0,43,70,0
0,54,70,0
0,60,73,0
0,40,100,80
0,42,94,0
0,43,92,0
0,54,70,0
0,65,91,0
0,28,98,3
0,35,105,0
0,35,116,0
0,42,74,0
0,54,61,0
0,65,95,0
0,72,96,17
0,70,100,10
0,68,70,6
0,29,104,0
0,35,110,0
0,41,62,0
0,53,56,0
0,54,78,0
0,55,54,0
0,56,66,0
0,57,56,0
0,60,70,0
0,63,70,0
0,67,74,0
0,69,60,44
0,42,64,44
0,54,74,0
0,82,58,0
0,82,58,2
0,40,100,44
0,42,70,0
0,53,62,0
0,54,74,0
0,55,62,0
0,56,62,0
0,60,76,0
0,63,70,0
0,82,92,0
0,59,59,12
0,36,86,12
0,42,64,0
0,54,74,0
0,60,87,0
0,64,48,0
0,41,94,52
0,63,91,0
0,35,116,0
0,41,74,0
0,42,62,0
0,54,78,0
0,60,73,48
0,42,78,0
0,53,60,0
0,54,70,0
0,55,60,0
0,56,60,0
0,60,74,0
0,63,66,0
0,63,83,0
0,65,91,6
0,40,100,0
0,41,74,0
0,42,94,0
0,54,70,0
0,63,69,0
0,29,104,6
0,35,105,0
0,42,74,0
0,43,76,0
0,53,80,0
0,54,61,0
0,63,83,0
0,65,95,0
0,31,94,58
0,35,110,0
0,42,76,0
0,54,78,0
0,67,0,66
0,42,64,22
0,54,74,0
0,58,76,0
0,61,76,0
0,64,47,0
0,65,60,0
0,40,100,16
0,42,70,0
0,53,66,0
0,54,74,0
0,62,64,0
0,59,59,6
0,36,66,16
0,37,98,0
0,42,64,0
0,52,76,0
0,54,74,0
0,58,62,0
0,60,87,0
0,62,62,0
0,64,72,0
0,70,96,0
0,65,0,8
0,35,116,52
0,36,90,0
0,42,62,0
0,54,78,0
0,63,91,0
0,63,67,0
0,42,78,76
0,54,70,0
0,58,76,0
0,60,73,0
0,63,74,0
0,64,37,0
0,40,100,80
0,42,94,0
0,54,70,0
0,64,76,0
0,65,91,0
0,70,0,24
0,28,110,2
0,35,105,0
0,36,70,0
0,42,74,0
0,54,61,0
0,64,87,0
0,65,95,0
0,67,70,0
0,29,86,14
0,35,110,0
0,41,62,0
0,42,76,0
0,53,56,0
0,54,78,0
0,55,54,0
0,56,66,0
0,60,70,0
0,63,70,0
0,82,42,0
0,69,36,34
0,42,64,44
0,54,74,0
