track,note,velocity,time
3,40,100,960
3,52,100,0
3,59,100,0
3,56,100,0
3,56,0,89
3,40,0,0
3,52,0,0
3,59,0,0
3,45,100,31
3,57,100,0
3,52,100,0
3,61,100,0
3,61,0,89
3,45,0,0
3,57,0,0
3,52,0,0
3,40,100,31
3,59,100,0
3,56,100,0
3,52,100,0
3,52,0,89
3,40,0,0
3,59,0,0
3,56,0,0
3,45,100,31
3,52,100,0
3,57,100,0
3,61,100,0
3,61,0,89
3,45,0,0
3,52,0,0
3,57,0,0
3,64,100,31
3,59,100,0
3,40,100,0
3,56,100,0
3,56,0,59
3,64,0,0
3,59,0,0
3,40,0,0
3,40,100,1
3,47,100,0
3,52,100,0
3,56,100,0
3,56,0,59
3,40,0,0
3,47,0,0
3,52,0,0
3,45,100,1
3,49,100,0
3,52,100,0
3,57,100,0
3,57,0,59
3,45,0,0
3,49,0,0
3,52,0,0
3,47,100,1
3,51,100,0
3,54,100,0
3,59,100,0
3,59,0,119
3,47,0,0
3,51,0,0
3,54,0,0
3,59,100,1
3,54,100,0
3,51,100,0
3,47,100,0
3,47,0,59
3,59,0,0
3,54,0,0
3,51,0,0
3,47,100,1
3,51,100,0
3,54,100,0
3,59,100,0
3,59,0,59
3,47,0,0
3,51,0,0
3,54,0,0
3,47,100,1
3,51,100,0
3,54,100,0
3,59,100,0
3,59,0,59
3,47,0,0
3,51,0,0
3,54,0,0
3,40,100,1
3,52,100,0
3,59,100,0
3,56,100,0
3,56,0,89
3,40,0,0
3,52,0,0
3,59,0,0
3,45,100,31
3,57,100,0
3,52,100,0
3,61,100,0
3,61,0,89
3,45,0,0
3,57,0,0
3,52,0,0
3,40,100,31
3,59,100,0
3,56,100,0
3,52,100,0
3,52,0,89
3,40,0,0
3,59,0,0
3,56,0,0
3,45,100,31
3,52,100,0
3,57,100,0
3,61,100,0
3,61,0,89
3,45,0,0
3,52,0,0
3,57,0,0
3,64,100,31
3,40,100,0
3,56,100,0
3,59,100,0
3,59,0,59
3,64,0,0
3,40,0,0
3,56,0,0
3,47,100,1
3,52,100,0
3,56,100,0
3,40,100,0
3,40,0,59
3,47,0,0
3,52,0,0
3,56,0,0
3,49,100,1
3,52,100,0
3,57,100,0
3,45,100,0
3,45,0,59
3,49,0,0
3,52,0,0
3,57,0,0
3,59,100,1
3,47,100,0
3,51,100,0
3,54,100,0
3,54,0,119
3,59,0,0
3,47,0,0
3,51,0,0
3,59,100,1
3,54,100,0
3,51,100,0
3,47,100,0
3,47,0,59
3,59,0,0
3,54,0,0
3,51,0,0
3,47,100,1
3,51,100,0
3,54,100,0
3,59,100,0
3,59,0,59
3,47,0,0
3,51,0,0
3,54,0,0
3,47,100,1
3,51,100,0
3,54,100,0
3,59,100,0
3,59,0,59
3,47,0,0
3,51,0,0
3,54,0,0
3,35,100,61
3,59,100,0
3,54,100,0
3,51,100,0
3,51,0,149
3,35,0,0
3,59,0,0
3,54,0,0
3,35,100,31
3,51,100,0
3,54,100,0
3,59,100,0
3,59,0,119
3,35,0,0
3,51,0,0
3,54,0,0
3,35,100,181
3,59,100,0
3,54,100,0
3,51,100,0
3,51,0,149
3,35,0,0
3,59,0,0
3,54,0,0
3,35,100,31
3,51,100,0
3,54,100,0
3,59,100,0
3,59,0,119
3,35,0,0
3,51,0,0
3,54,0,0
3,35,100,182
3,59,100,0
3,54,100,0
3,51,100,0
3,51,0,149
3,35,0,0
3,59,0,0
3,54,0,0
3,35,100,31
3,51,100,0
3,54,100,0
3,59,100,0
3,59,0,119
3,35,0,0
3,51,0,0
3,54,0,0
3,35,100,182
3,59,100,0
3,54,100,0
3,51,100,0
3,51,0,149
3,35,0,0
3,59,0,0
3,54,0,0
3,35,100,31
3,51,100,0
3,54,100,0
3,59,100,0
3,59,0,119
3,35,0,0
3,51,0,0
3,54,0,0
3,40,100,119
3,56,100,0
3,59,100,0
3,64,100,0
3,64,0,119
3,40,0,0
3,56,0,0
3,59,0,0
3,40,100,61
3,56,100,0
3,59,100,0
3,64,100,0
3,64,0,89
3,40,0,0
3,56,0,0
3,59,0,0
3,40,100,31
3,56,100,0
3,59,100,0
3,64,100,0
3,64,0,59
3,40,0,0
3,56,0,0
3,59,0,0
3,40,100,121
3,56,100,0
3,59,100,0
3,64,100,0
3,64,0,119
3,40,0,0
3,56,0,0
3,59,0,0
3,40,100,61
3,56,100,0
3,59,100,0
3,64,100,0
3,64,0,89
3,40,0,0
3,56,0,0
3,59,0,0
3,40,100,31
3,56,100,0
3,59,100,0
3,64,100,0
3,64,0,59
3,40,0,0
3,56,0,0
3,59,0,0
3,40,100,122
3,56,100,0
3,59,100,0
3,64,100,0
3,64,0,119
3,40,0,0
3,56,0,0
3,59,0,0
3,40,100,61
3,56,100,0
3,59,100,0
3,64,100,0
3,64,0,89
3,40,0,0
3,56,0,0
3,59,0,0
3,40,100,31
3,56,100,0
3,59,100,0
3,64,100,0
3,64,0,59
3,40,0,0
3,56,0,0
3,59,0,0
3,40,100,122
3,56,100,0
3,59,100,0
3,64,100,0
3,64,0,119
3,40,0,0
3,56,0,0
3,59,0,0
3,40,100,61
3,56,100,0
3,59,100,0
3,64,100,0
3,64,0,89
3,40,0,0
3,56,0,0
3,59,0,0
3,40,100,31
3,56,100,0
3,59,100,0
3,64,100,0
3,64,0,59
3,40,0,0
3,56,0,0
3,59,0,0
3,45,100,119
3,61,100,0
3,57,100,0
3,64,100,0
3,64,0,119
3,45,0,0
3,61,0,0
3,57,0,0
3,45,100,61
3,57,100,0
3,61,100,0
3,64,100,0
3,64,0,89
3,45,0,0
3,57,0,0
3,61,0,0
3,64,100,31
3,61,100,0
3,57,100,0
3,45,100,0
3,45,0,59
3,64,0,0
3,61,0,0
3,57,0,0
3,45,100,121
3,61,100,0
3,57,100,0
3,64,100,0
3,64,0,119
3,45,0,0
3,61,0,0
3,57,0,0
3,45,100,61
3,57,100,0
3,61,100,0
3,64,100,0
3,64,0,89
3,45,0,0
3,57,0,0
3,61,0,0
3,64,100,31
3,61,100,0
3,57,100,0
3,45,100,0
3,45,0,59
3,64,0,0
3,61,0,0
3,57,0,0
3,40,100,121
3,56,100,0
3,59,100,0
3,64,100,0
3,64,0,119
3,40,0,0
3,56,0,0
3,59,0,0
3,40,100,61
3,56,100,0
3,59,100,0
3,64,100,0
3,64,0,89
3,40,0,0
3,56,0,0
3,59,0,0
3,40,100,31
3,56,100,0
3,59,100,0
3,64,100,0
3,64,0,59
3,40,0,0
3,56,0,0
3,59,0,0
3,40,100,121
3,56,100,0
3,59,100,0
3,64,100,0
3,64,0,119
3,40,0,0
3,56,0,0
3,59,0,0
3,40,100,61
3,56,100,0
3,59,100,0
3,64,100,0
3,64,0,89
3,40,0,0
3,56,0,0
3,59,0,0
3,40,100,31
3,56,100,0
3,59,100,0
3,64,100,0
3,64,0,59
3,40,0,0
3,56,0,0
3,59,0,0
3,40,100,121
3,56,100,0
3,59,100,0
3,64,100,0
3,64,0,119
3,40,0,0
3,56,0,0
3,59,0,0
3,40,100,61
3,56,100,0
3,59,100,0
3,64,100,0
3,64,0,89
3,40,0,0
3,56,0,0
3,59,0,0
3,40,100,31
3,56,100,0
3,59,100,0
3,64,100,0
3,64,0,59
3,40,0,0
3,56,0,0
3,59,0,0
3,40,100,121
3,56,100,0
3,59,100,0
3,64,100,0
3,64,0,119
3,40,0,0
3,56,0,0
3,59,0,0
3,40,100,61
3,56,100,0
3,59,100,0
3,64,100,0
3,64,0,89
3,40,0,0
3,56,0,0
3,59,0,0
3,40,100,31
3,56,100,0
3,59,100,0
3,64,100,0
3,64,0,59
3,40,0,0
3,56,0,0
3,59,0,0
3,40,100,122
3,56,100,0
3,59,100,0
3,64,100,0
3,64,0,119
3,40,0,0
3,56,0,0
3,59,0,0
3,40,100,61
3,56,100,0
3,59,100,0
3,64,100,0
3,64,0,89
3,40,0,0
3,56,0,0
3,59,0,0
3,40,100,31
3,56,100,0
3,59,100,0
3,64,100,0
3,64,0,59
3,40,0,0
3,56,0,0
3,59,0,0
3,40,100,122
3,56,100,0
3,59,100,0
3,64,100,0
3,64,0,119
3,40,0,0
3,56,0,0
3,59,0,0
3,40,100,61
3,56,100,0
3,59,100,0
3,64,100,0
3,64,0,89
3,40,0,0
3,56,0,0
3,59,0,0
3,40,100,31
3,56,100,0
3,59,100,0
3,64,100,0
3,64,0,59
3,40,0,0
3,56,0,0
3,59,0,0
3,45,100,119
3,61,100,0
3,57,100,0
3,64,100,0
3,64,0,119
3,45,0,0
3,61,0,0
3,57,0,0
3,45,100,61
3,57,100,0
3,61,100,0
3,64,100,0
3,64,0,89
3,45,0,0
3,57,0,0
3,61,0,0
3,64,100,31
3,61,100,0
3,57,100,0
3,45,100,0
3,45,0,59
3,64,0,0
3,61,0,0
3,57,0,0
3,45,100,121
3,61,100,0
3,57,100,0
3,64,100,0
3,64,0,119
3,45,0,0
3,61,0,0
3,57,0,0
3,45,100,61
3,57,100,0
3,61,100,0
3,64,100,0
3,64,0,89
3,45,0,0
3,57,0,0
3,61,0,0
3,64,100,31
3,61,100,0
3,57,100,0
3,45,100,0
3,45,0,59
3,64,0,0
3,61,0,0
3,57,0,0
3,40,100,121
3,56,100,0
3,59,100,0
3,64,100,0
3,64,0,119
3,40,0,0
3,56,0,0
3,59,0,0
3,40,100,61
3,56,100,0
3,59,100,0
3,64,100,0
3,64,0,89
3,40,0,0
3,56,0,0
3,59,0,0
3,40,100,31
3,56,100,0
3,59,100,0
3,64,100,0
3,64,0,59
3,40,0,0
3,56,0,0
3,59,0,0
3,40,100,121
3,56,100,0
3,59,100,0
3,64,100,0
3,64,0,119
3,40,0,0
3,56,0,0
3,59,0,0
3,40,100,61
3,56,100,0
3,59,100,0
3,64,100,0
3,64,0,89
3,40,0,0
3,56,0,0
3,59,0,0
3,40,100,31
3,56,100,0
3,59,100,0
3,64,100,0
3,64,0,59
3,40,0,0
3,56,0,0
3,59,0,0
3,71,100,121
3,47,100,0
3,63,100,0
3,66,100,0
3,66,0,119
3,71,0,0
3,47,0,0
3,63,0,0
3,63,100,61
3,47,100,0
3,66,100,0
3,71,100,0
3,71,0,89
3,63,0,0
3,47,0,0
3,66,0,0
3,63,100,31
3,47,100,0
3,66,100,0
3,71,100,0
3,71,0,59
3,63,0,0
3,47,0,0
3,66,0,0
3,61,100,121
3,64,100,0
3,69,100,0
3,45,100,0
3,45,0,119
3,61,0,0
3,64,0,0
3,69,0,0
3,61,100,61
3,64,100,0
3,69,100,0
3,45,100,0
3,45,0,89
3,61,0,0
3,64,0,0
3,69,0,0
3,61,100,31
3,64,100,0
3,69,100,0
3,45,100,0
3,45,0,59
3,61,0,0
3,64,0,0
3,69,0,0
3,64,100,121
3,40,100,0
3,56,100,0
3,59,100,0
3,59,0,119
3,64,0,0
3,40,0,0
3,56,0,0
3,40,100,61
3,56,100,0
3,59,100,0
3,64,100,0
3,64,0,89
3,40,0,0
3,56,0,0
3,59,0,0
3,40,100,31
3,56,100,0
3,59,100,0
3,64,100,0
3,64,0,59
3,40,0,0
3,56,0,0
3,59,0,0
3,40,100,121
3,56,100,0
3,59,100,0
3,64,100,0
3,64,0,119
3,40,0,0
3,56,0,0
3,59,0,0
3,40,100,61
3,56,100,0
3,59,100,0
3,64,100,0
3,64,0,89
3,40,0,0
3,56,0,0
3,59,0,0
3,40,100,31
3,56,100,0
3,59,100,0
3,64,100,0
3,64,0,59
3,40,0,0
3,56,0,0
3,59,0,0
3,35,100,121
3,54,100,0
3,59,100,0
3,63,100,0
3,63,0,119
3,35,0,0
3,54,0,0
3,59,0,0
3,35,100,1
3,63,100,0
3,59,100,0
3,54,100,0
3,54,0,119
3,35,0,0
3,63,0,0
3,59,0,0
3,35,100,1
3,54,100,0
3,59,100,0
3,63,100,0
3,63,0,119
3,35,0,0
3,54,0,0
3,59,0,0
3,35,100,1
3,63,100,0
3,59,100,0
3,54,100,0
3,54,0,119
3,35,0,0
3,63,0,0
3,59,0,0
3,35,100,1
3,54,100,0
3,59,100,0
3,63,100,0
3,63,0,119
3,35,0,0
3,54,0,0
3,59,0,0
3,35,100,1
3,63,100,0
3,59,100,0
3,54,100,0
3,54,0,119
3,35,0,0
3,63,0,0
3,59,0,0
3,35,100,1
3,54,100,0
3,59,100,0
3,63,100,0
3,63,0,119
3,35,0,0
3,54,0,0
3,59,0,0
3,35,100,1
3,63,100,0
3,59,100,0
3,54,100,0
3,54,0,119
3,35,0,0
3,63,0,0
3,59,0,0
3,40,100,1
3,56,100,0
3,59,100,0
3,64,100,0
3,64,0,119
3,40,0,0
3,56,0,0
3,59,0,0
3,40,100,1
3,59,100,0
3,64,100,0
3,56,100,0
3,56,0,119
3,40,0,0
3,59,0,0
3,64,0,0
3,40,100,1
3,64,100,0
3,59,100,0
3,56,100,0
3,56,0,119
3,40,0,0
3,64,0,0
3,59,0,0
3,40,100,1
3,64,100,0
3,59,100,0
3,56,100,0
3,56,0,119
3,40,0,0
3,64,0,0
3,59,0,0
3,40,100,1
3,56,100,0
3,59,100,0
3,64,100,0
3,64,0,119
3,40,0,0
3,56,0,0
3,59,0,0
3,40,100,1
3,59,100,0
3,64,100,0
3,56,100,0
3,56,0,119
3,40,0,0
3,59,0,0
3,64,0,0
3,40,100,1
3,64,100,0
3,59,100,0
3,56,100,0
3,56,0,119
3,40,0,0
3,64,0,0
3,59,0,0
3,40,100,1
3,64,100,0
3,59,100,0
3,56,100,0
3,56,0,119
3,40,0,0
3,64,0,0
3,59,0,0
3,35,100,1
3,54,100,0
3,59,100,0
3,63,100,0
3,63,0,119
3,35,0,0
3,54,0,0
3,59,0,0
3,35,100,1
3,63,100,0
3,59,100,0
3,54,100,0
3,54,0,119
3,35,0,0
3,63,0,0
3,59,0,0
3,35,100,1
3,54,100,0
3,59,100,0
3,63,100,0
3,63,0,119
3,35,0,0
3,54,0,0
3,59,0,0
3,35,100,1
3,63,100,0
3,59,100,0
3,54,100,0
3,54,0,119
3,35,0,0
3,63,0,0
3,59,0,0
3,35,100,1
3,54,100,0
3,59,100,0
3,63,100,0
3,63,0,119
3,35,0,0
3,54,0,0
3,59,0,0
3,35,100,1
3,63,100,0
3,59,100,0
3,54,100,0
3,54,0,119
3,35,0,0
3,63,0,0
3,59,0,0
3,35,100,1
3,54,100,0
3,59,100,0
3,63,100,0
3,63,0,119
3,35,0,0
3,54,0,0
3,59,0,0
3,35,100,1
3,63,100,0
3,59,100,0
3,54,100,0
3,54,0,119
3,35,0,0
3,63,0,0
3,59,0,0
3,40,100,1
3,56,100,0
3,59,100,0
3,64,100,0
3,64,0,119
3,40,0,0
3,56,0,0
3,59,0,0
3,40,100,1
3,59,100,0
3,64,100,0
3,56,100,0
3,56,0,119
3,40,0,0
3,59,0,0
3,64,0,0
3,40,100,1
3,64,100,0
3,59,100,0
3,56,100,0
3,56,0,119
3,40,0,0
3,64,0,0
3,59,0,0
3,40,100,1
3,64,100,0
3,59,100,0
3,56,100,0
3,56,0,119
3,40,0,0
3,64,0,0
3,59,0,0
3,40,100,1
3,56,100,0
3,59,100,0
3,64,100,0
3,64,0,119
3,40,0,0
3,56,0,0
3,59,0,0
3,40,100,1
3,59,100,0
3,64,100,0
3,56,100,0
3,56,0,119
3,40,0,0
3,59,0,0
3,64,0,0
3,40,100,1
3,64,100,0
3,59,100,0
3,56,100,0
3,56,0,119
3,40,0,0
3,64,0,0
3,59,0,0
3,40,100,1
3,64,100,0
3,59,100,0
3,56,100,0
3,56,0,119
3,40,0,0
3,64,0,0
3,59,0,0
3,33,100,1
3,52,100,0
3,57,100,0
3,61,100,0
3,61,0,119
3,33,0,0
3,52,0,0
3,57,0,0
3,61,100,1
3,52,100,0
3,57,100,0
3,33,100,0
3,33,0,119
3,61,0,0
3,52,0,0
3,57,0,0
3,61,100,1
3,57,100,0
3,52,100,0
3,33,100,0
3,33,0,119
3,61,0,0
3,57,0,0
3,52,0,0
