track,note,velocity,time
2,38,104,2942
2,33,104,4
2,36,104,88
2,38,104,114
2,33,104,30
2,36,104,100
2,38,104,102
2,33,104,28
2,36,104,104
2,38,104,124
2,41,104,8
2,38,104,184
2,43,104,2
2,38,104,386
2,41,104,104
2,43,104,124
2,38,104,6
2,43,104,12
2,36,104,194
2,31,104,30
2,33,104,96
2,36,104,124
2,36,104,84
2,31,104,34
2,36,104,46
2,38,104,76
2,33,104,386
2,36,104,114
2,38,104,112
2,33,104,16
2,36,104,108
2,38,104,120
2,33,104,18
2,36,104,130
2,38,104,138
2,41,104,386
2,38,104,170
2,43,104,26
2,38,104,8
2,41,104,118
2,43,104,128
2,38,104,4
2,31,104,8
2,36,104,194
2,31,104,22
2,31,104,202
2,36,104,44
2,36,104,84
2,31,104,24
2,36,104,2
2,38,104,18
2,33,104,10
2,36,104,132
2,38,104,118
2,33,104,20
2,36,104,60
2,38,104,126
2,33,104,10
2,36,104,124
2,38,104,106
2,33,104,10
2,38,104,180
2,31,104,182
2,26,104,34
2,29,104,114
2,31,104,118
2,26,104,22
2,29,104,104
2,36,104,108
2,31,104,12
2,36,104,84
2,36,104,74
2,31,104,16
2,36,104,82
2,38,104,46
2,33,104,22
2,36,104,122
2,38,104,118
2,33,104,28
2,36,104,132
2,38,104,124
2,33,104,14
2,36,104,128
2,38,104,120
2,41,104,8
2,38,104,10
2,31,104,190
2,26,104,40
2,29,104,118
2,31,104,110
2,26,104,32
2,31,104,10
2,36,104,0
2,36,104,106
2,31,104,16
2,31,104,36
2,36,104,10
2,31,104,40
2,36,104,98
2,34,104,102
2,34,104,2
2,29,104,2
2,31,104,94
2,34,104,106
2,29,104,22
2,31,104,86
2,34,104,102
2,29,104,10
2,31,104,112
2,34,104,114
2,29,104,4
2,29,104,92
2,31,104,14
2,26,104,386
2,29,104,118
2,31,104,100
2,26,104,38
2,29,104,92
2,31,104,114
2,38,104,382
2,41,104,104
2,43,104,56
2,38,104,4
2,41,104,38
2,31,104,188
2,38,104,22
2,41,104,114
2,43,104,102
2,38,104,384
2,41,104,12
2,31,104,192
2,38,104,378
2,41,104,92
2,43,104,96
2,38,104,384
2,41,104,18
2,31,104,2
2,38,104,54
2,41,104,94
2,43,104,102
2,38,104,12
2,41,104,14
2,36,104,2
2,36,104,74
2,31,104,12
2,31,104,52
2,36,104,42
2,36,104,42
2,31,104,14
2,36,104,188
2,34,104,166
2,29,104,20
2,31,104,122
2,34,104,126
2,29,104,384
2,31,104,144
2,36,104,118
2,31,104,16
2,33,104,112
2,38,104,122
2,33,104,386
2,38,104,28
2,31,104,6
2,26,104,72
2,29,104,118
2,31,104,124
2,26,104,32
2,29,104,70
2,31,104,132
2,38,104,380
2,41,104,108
2,43,104,92
2,38,104,8
2,41,104,2
2,34,104,204
2,29,104,20
2,31,104,144
2,34,104,132
2,29,104,14
2,31,104,114
2,36,104,114
2,31,104,16
2,33,104,136
2,38,104,146
2,33,104,374
2,38,104,10
2,31,104,192
2,26,104,50
2,29,104,114
2,31,104,122
2,38,104,8
2,41,104,112
2,43,104,100
2,38,104,12
2,41,104,114
2,31,104,134
2,31,104,88
2,36,104,134
2,38,104,2
2,33,104,10
2,36,104,136
2,38,104,98
2,33,104,12
2,36,104,120
2,38,104,94
2,33,104,36
2,36,104,96
2,38,104,110
2,41,104,386
2,38,104,22
2,43,104,24
2,38,104,4
2,41,104,128
2,43,104,120
2,38,104,384
2,41,104,0
2,36,104,14
2,31,104,46
2,33,104,120
2,36,104,120
2,36,104,72
2,31,104,16
2,36,104,50
2,38,104,0
2,33,104,18
2,36,104,110
2,38,104,92
2,33,104,18
2,36,104,110
2,38,104,106
2,33,104,34
2,36,104,122
2,38,104,112
2,41,104,10
2,38,104,182
2,31,104,0
2,26,104,88
2,29,104,110
2,31,104,118
2,29,104,16
2,31,104,20
2,36,104,26
2,36,104,80
2,31,104,24
2,31,104,30
2,36,104,14
2,36,104,60
2,31,104,26
2,36,104,12
2,34,104,12
2,29,104,10
2,31,104,134
2,34,104,108
2,29,104,20
2,31,104,40
2,36,104,68
2,31,104,12
2,33,104,114
2,38,104,46
2,33,104,386
2,36,104,6
2,43,104,14
2,38,104,82
2,41,104,112
2,43,104,98
2,38,104,10
2,41,104,28
2,31,104,20
2,38,104,50
2,41,104,110
2,43,104,40
2,38,104,382
2,41,104,22
2,38,104,188
2,31,104,30
2,36,104,1540
2,38,104,1512
2,31,104,2
2,36,104,0
2,38,104,118
2,33,104,38
2,36,104,118
2,38,104,102
2,33,104,34
2,36,104,112
2,38,104,120
2,33,104,12
2,36,104,122
2,38,104,110
2,41,104,14
2,38,104,196
2,43,104,6
2,38,104,44
2,41,104,112
2,43,104,84
2,31,104,4
2,38,104,192
2,36,104,12
2,31,104,386
2,31,104,82
2,36,104,26
2,36,104,70
2,31,104,12
2,36,104,188
2,38,104,2
2,33,104,52
2,36,104,110
2,38,104,66
2,33,104,40
2,36,104,102
2,38,104,84
2,33,104,12
2,36,104,102
2,38,104,72
2,41,104,390
2,38,104,180
2,31,104,182
2,38,104,380
2,41,104,108
2,43,104,112
2,38,104,20
2,41,104,24
2,36,104,196
2,31,104,12
2,33,104,118
2,36,104,122
2,36,104,50
2,31,104,20
2,36,104,184
2,34,104,188
2,29,104,12
2,31,104,128
2,34,104,112
2,29,104,24
2,31,104,108
2,34,104,114
2,29,104,8
2,31,104,90
2,34,104,110
2,29,104,6
2,26,104,92
2,31,104,64
2,26,104,4
2,29,104,102
2,31,104,78
2,29,104,382
2,31,104,106
2,26,104,90
2,31,104,2
2,38,104,98
2,43,104,86
2,41,104,388
2,38,104,10
2,31,104,198
2,38,104,34
2,41,104,106
2,43,104,80
2,38,104,382
2,41,104,38
2,43,104,12
2,38,104,386
2,41,104,34
2,31,104,10
2,38,104,42
2,41,104,8
2,31,104,28
2,38,104,92
2,41,104,98
2,43,104,98
2,38,104,10
2,41,104,122
2,36,104,80
2,36,104,74
2,31,104,188
2,33,104,96
2,36,104,118
2,36,104,84
2,31,104,18
2,36,104,190
2,34,104,10
2,29,104,34
2,31,104,110
2,34,104,130
2,29,104,36
2,31,104,114
2,36,104,110
2,31,104,38
2,33,104,114
2,38,104,112
2,36,104,22
2,38,104,2
2,31,104,194
2,26,104,90
2,29,104,130
2,31,104,130
2,26,104,10
2,29,104,24
2,31,104,52
2,38,104,0
2,41,104,100
2,43,104,120
2,38,104,190
2,41,104,8
2,36,104,10
2,34,104,188
2,29,104,44
2,31,104,110
2,34,104,122
2,29,104,12
2,31,104,104
2,36,104,126
2,31,104,30
2,33,104,114
2,38,104,128
2,33,104,32
2,36,104,116
2,31,104,98
2,26,104,82
2,29,104,142
2,31,104,128
2,38,104,12
2,41,104,122
2,43,104,122
2,38,104,14
2,41,104,118
2,31,104,116
2,38,104,384
2,36,104,178
2,34,104,184
2,29,104,34
2,31,104,126
2,34,104,140
2,29,104,18
2,31,104,120
2,36,104,122
2,31,104,22
2,33,104,122
2,38,104,120
2,36,104,4
2,38,104,24
2,31,104,192
2,26,104,110
2,29,104,126
2,31,104,122
2,38,104,16
2,41,104,116
2,43,104,110
2,38,104,384
2,41,104,114
2,38,104,112
2,43,104,384
2,41,104,2
2,34,104,114
2,29,104,28
2,31,104,132
2,34,104,130
2,29,104,24
2,31,104,196
2,36,104,10
2,36,104,80
2,31,104,20
2,33,104,184
2,38,104,24
2,33,104,388
2,36,104,8
2,43,104,90
2,38,104,34
2,41,104,128
2,43,104,100
2,43,104,64
2,41,104,106
2,38,104,16
2,31,104,8
2,38,104,10
2,41,104,110
2,43,104,94
2,38,104,88
2,41,104,20
2,36,104,22
2,34,104,78
2,29,104,52
2,31,104,128
2,34,104,106
2,34,104,78
2,29,104,32
2,34,104,186
2,36,104,0
2,36,104,90
2,31,104,18
2,33,104,8
2,38,104,8
2,38,104,82
2,33,104,100
2,38,104,178
2,31,104,8
2,31,104,96
2,26,104,14
2,29,104,188
2,31,104,18
2,31,104,84
2,26,104,16
2,29,104,192
2,31,104,184
2,31,104,84
2,26,104,18
2,29,104,196
2,31,104,174
2,41,104,128
2,40,104,84
2,38,104,86
2,36,104,4
2,34,104,46
2,33,104,6
2,34,104,22
2,29,104,18
2,31,104,120
2,34,104,132
2,34,104,74
2,29,104,16
2,34,104,192
2,36,104,8
2,31,104,50
2,33,104,134
2,38,104,128
2,38,104,68
2,33,104,20
2,36,104,44
2,31,104,8
2,26,104,42
2,29,104,130
2,31,104,128
2,38,104,34
2,41,104,126
2,43,104,110
2,38,104,22
2,41,104,134
2,38,104,194
2,36,104,104
2,34,104,128
2,33,104,32
2,31,104,30
2,34,104,102
2,29,104,30
2,29,104,220
2,34,104,32
2,29,104,24
2,31,104,186
2,36,104,8
2,36,104,78
2,31,104,12
2,33,104,22
2,38,104,12
2,33,104,8
2,36,104,16
2,31,104,198
2,31,104,102
2,26,104,24
2,29,104,188
2,31,104,6
2,34,104,92
2,33,104,12
2,31,104,92
2,29,104,22
2,31,104,190
2,31,104,118
2,41,104,14
2,40,104,36
2,38,104,48
2,36,104,24
2,34,104,104
2,33,104,90
2,34,104,76
2,29,104,36
2,31,104,126
2,34,104,136
2,29,104,22
2,31,104,34
2,36,104,110
2,31,104,22
2,33,104,130
2,38,104,122
2,33,104,16
2,36,104,114
2,31,104,112
2,31,104,46
2,26,104,30
2,29,104,90
2,31,104,112
2,26,104,44
2,29,104,122
2,31,104,102
2,38,104,218
2,41,104,120
2,43,104,4
2,41,104,34
2,36,104,26
2,38,104,42
2,41,104,1718
2,40,104,368
2,36,104,372
2,33,104,18
2,31,104,188
2,36,104,196
2,38,104,4
2,33,104,62
2,36,104,122
2,38,104,130
2,33,104,52
2,36,104,116
2,38,104,146
2,33,104,36
2,36,104,132
2,38,104,124
2,33,104,20
2,36,104,2
2,31,104,188
2,33,104,16
2,26,104,100
3,79,98,2404
3,77,100,64
3,74,104,72
3,62,102,68
3,50,122,348
3,69,127,694
3,77,127,0
3,81,112,2
3,67,116,54
3,76,122,0
3,79,118,8
3,65,114,60
3,74,122,2
3,77,127,2
3,62,102,1024
3,69,112,2
3,74,106,2
3,77,127,1064
3,69,126,4
3,81,108,2
3,65,106,24
3,64,100,68
3,67,112,2
3,76,118,14
3,79,116,0
3,74,118,80
3,77,127,2
3,62,104,2
3,65,122,2
3,74,104,58168
3,77,114,0
3,86,112,0
3,89,104,0
3,76,114,68
3,72,104,16
3,84,118,8
3,88,108,0
3,70,112,122
3,74,126,0
3,82,122,2
3,86,108,2
3,55,102,5966
3,69,78,2
3,70,78,2
3,55,82,2
3,69,94,0
3,77,80,0
3,81,86,0
3,62,84,2
3,69,90,2
3,70,94,0
3,77,92,0
3,81,78,2
3,89,76,0
3,55,98,812
3,62,112,92
3,69,116,106
3,70,112,58
3,77,110,4
3,81,102,10
3,82,100,90
3,89,108,84
3,50,102,72928
3,38,110,2
3,86,114,0
3,89,106,4
3,84,116,106
3,88,104,2
3,43,122,86
3,86,108,8
3,82,126,12
3,67,126,3402
3,65,126,94
3,62,112,96
3,50,116,106
3,38,127,108
4,65,98,2550
4,69,116,0
4,74,98,2
4,65,116,118
4,69,116,376
4,65,112,100
4,74,94,0
4,70,108,48
4,65,108,16
4,67,116,2
4,74,102,8
4,64,88,70
4,67,98,2
4,72,90,0
4,60,84,6
4,62,102,20
4,65,116,2
4,69,108,2
4,67,104,86
4,64,104,2
4,69,96,10
4,65,102,6
4,67,74,26
4,65,86,28
4,58,116,2
4,62,100,0
4,67,100,2
4,67,98,84
4,60,100,12
4,64,112,2
4,57,98,48
4,65,96,2
4,62,102,2
4,62,86,94
4,65,104,52
4,62,98,344
4,67,98,24
4,62,100,10
4,58,112,2
4,65,86,248
4,67,54,40
4,67,100,72
4,60,108,6
4,64,108,2
4,60,94,110
4,65,98,44
4,69,100,0
4,60,102,2
4,62,104,2
4,57,74,1706
4,60,112,108
4,62,112,44
4,69,112,144
4,65,88,292
4,60,74,4
4,67,88,54
4,62,100,2
4,58,116,4
4,65,90,0
4,60,112,10
4,64,96,170
4,72,102,176
4,65,102,2
4,70,104,0
4,69,104,6
4,74,98,2
4,58,84,570
4,65,84,78
4,69,86,58
4,62,76,726
4,65,90,202
4,69,78,344
4,55,86,110
4,58,94,178
4,62,120,76
4,65,108,130
4,69,98,150
4,55,88,2
4,59,86,44
4,62,112,56
4,65,100,8
4,69,108,2
4,55,84,80
4,59,78,158
4,62,104,168
4,65,94,52
4,69,102,2
4,55,108,230
4,67,90,2
4,58,116,12
4,62,94,2
4,65,92,2
4,58,56,28
4,65,94,36
4,62,98,2
4,64,100,2
4,60,98,2
4,62,60,14
4,60,66,24
4,65,88,18
4,62,108,2
4,67,76,16
4,64,68,2
4,58,104,186
4,69,94,2
4,62,90,2
4,65,94,2
4,67,88,28
4,60,98,14
4,64,98,2
4,57,84,48
4,65,78,2
4,62,84,18
4,55,78,2
4,67,80,2
4,62,88,12
4,58,94,0
4,65,94,302
4,69,108,10
4,58,82,184
4,65,108,0
4,62,104,186
4,67,86,168
4,58,96,4
4,65,86,6
4,62,90,8
4,65,76,30
4,58,98,8
4,62,92,0
4,69,98,4
4,58,86,92
4,67,80,106
4,60,90,24
4,53,72,0
4,55,74,2
4,64,86,0
4,60,72,34
4,57,90,34
4,62,90,0
4,65,84,0
4,58,92,174
4,62,72,8
4,69,100,156
4,65,112,2
4,67,96,2
4,64,120,22
4,65,102,12
4,62,104,2
4,67,90,18
4,64,102,2
4,65,90,24
4,69,100,0
4,58,86,256
4,62,82,10
4,65,66,90
4,77,104,274
4,81,92,2
4,77,116,58
4,81,100,2
4,79,90,14
4,76,100,16
4,77,100,2
4,74,108,2
4,70,82,378
4,57,84,14
4,62,78,82
4,69,102,12
4,74,88,2
4,77,96,0
4,65,90,2
4,74,86,76
4,62,78,138
4,69,84,58
4,65,96,62
4,69,96,68
4,55,84,492
4,58,82,20
4,62,104,202
4,65,98,174
4,69,102,0
4,62,96,54
4,65,102,2
4,58,94,110
4,60,90,210
4,64,90,6
4,60,68,124
4,57,86,20
4,65,90,2
4,62,90,20
4,60,76,558
4,57,84,154
4,62,96,66
4,67,90,0
4,60,98,6
4,65,92,0
4,62,86,512
4,67,86,2
4,65,88,32
4,60,96,0
4,60,70,46
4,55,78,106
4,58,86,50
4,62,112,194
4,65,116,2
4,69,108,4
4,65,116,196
4,62,104,2
4,69,104,2
4,65,108,180
4,62,102,2
4,69,104,22
4,60,104,72
4,64,102,2
4,72,104,76
4,74,102,4
4,70,126,116
4,69,126,110
4,65,100,120
4,58,88,192
4,65,66,50
4,60,96,72
4,67,108,2
4,72,86,0
4,64,98,170
4,65,104,6
4,69,100,0
4,62,98,2
4,65,78,80
4,58,84,48
4,69,116,310
4,65,126,2
4,69,104,84
4,65,112,2
4,67,100,2
4,64,104,2
4,69,58,28
4,62,126,96
4,65,126,0
4,65,112,218
4,69,104,2
4,58,112,288
4,64,88,2
4,67,90,0
4,65,94,8
4,62,102,16
4,64,86,140
4,67,80,2
4,65,90,8
4,69,94,8
4,67,70,10
4,62,90,226
4,62,102,78
4,57,102,182
4,62,94,84
4,65,112,404
4,74,116,32
4,77,108,0
4,76,104,24
4,72,108,2
4,74,96,46
4,70,108,0
4,55,80,1722
4,62,102,98
4,69,120,26
4,70,108,90
4,77,102,86
4,74,90,82
4,77,90,10
4,62,108,2
4,69,108,12
4,57,70,38
4,62,96,168
4,64,116,204
4,65,112,20
4,62,72,26
4,55,84,378
4,58,80,168
4,62,102,128
4,65,94,206
4,69,120,226
4,70,104,0
4,77,104,186
4,62,116,318
4,65,98,2
4,69,112,14
4,74,100,0
4,67,86,20
4,69,100,320
4,64,112,4
4,65,102,162
4,69,98,4
4,62,100,198
4,65,108,100
4,69,104,0
4,64,92,32
4,67,86,0
4,65,86,24
4,62,96,4
4,58,80,168
4,62,100,122
4,69,98,92
4,65,96,2
4,55,82,252
4,58,82,172
4,62,86,156
4,65,116,204
