track,note,velocity,time
1,69,64,0
1,62,60,0
1,65,72,0
1,62,0,13
1,65,0,2
1,69,0,1
1,58,76,932
1,62,77,0
1,65,65,2
1,62,0,54
1,65,0,8
1,58,0,1
1,58,76,141
1,65,57,1
1,55,61,3
1,65,0,37
1,55,0,4
1,58,0,9
1,58,64,60
1,64,65,2
1,55,56,1
1,55,0,36
1,58,0,1
1,64,0,9
1,65,64,76
1,69,60,0
1,62,57,2
1,62,0,24
1,69,0,0
1,65,0,2
1,65,60,81
1,58,67,1
1,62,66,1
1,62,0,16
1,58,0,4
1,65,0,4
1,58,60,80
1,55,61,1
1,65,59,1
1,65,0,33
1,55,0,0
1,58,0,5
1,58,60,71
1,55,58,2
1,64,62,0
1,55,0,24
1,58,0,5
1,64,0,6
1,65,73,64
1,62,64,0
1,69,67,0
1,65,0,151
1,62,0,22
1,69,0,32
1,67,60,143
1,59,64,0
1,64,60,0
1,67,0,24
1,64,0,4
1,59,0,3
1,58,63,86
1,62,55,1
1,65,59,0
1,62,0,19
1,58,0,10
1,65,0,8
1,58,61,94
1,65,47,2
1,55,44,1
1,58,0,21
1,55,0,3
1,65,0,3
1,58,61,93
1,55,49,0
1,64,55,0
1,58,0,24
1,55,0,1
1,64,0,1
1,69,64,0
1,62,60,0
1,65,72,0
1,62,0,13
1,65,0,2
1,69,0,1
1,58,76,932
1,62,77,0
1,65,65,2
1,62,0,54
1,65,0,8
1,58,0,1
1,58,76,141
1,65,57,1
1,55,61,3
1,65,0,37
1,55,0,4
1,58,0,9
1,58,64,60
1,64,65,2
1,55,56,1
1,55,0,36
1,58,0,1
1,64,0,9
1,65,64,76
1,69,60,0
1,62,57,2
1,62,0,24
1,69,0,0
1,65,0,2
1,65,60,81
1,58,67,1
1,62,66,1
1,62,0,16
1,58,0,4
1,65,0,4
1,58,60,80
1,55,61,1
1,65,59,1
1,65,0,33
1,55,0,0
1,58,0,5
1,58,60,71
1,55,58,2
1,64,62,0
1,55,0,24
1,58,0,5
1,64,0,6
1,65,73,64
1,62,64,0
1,69,67,0
1,65,0,1695
1,62,0,22
1,69,0,32
1,62,71,154
1,69,73,0
1,65,58,0
1,65,0,704
1,69,0,20
1,62,0,33
1,65,60,192
1,58,64,0
1,62,64,2
1,62,0,106
1,58,0,21
1,65,0,12
1,58,62,176
1,65,65,2
1,55,61,0
1,65,0,76
1,58,0,10
1,55,0,2
1,64,63,4
1,58,69,1
1,55,55,3
1,58,0,148
1,64,0,3
1,55,0,1
1,62,71,10
1,69,73,0
1,65,58,0
1,65,0,704
1,69,0,20
1,62,0,33
1,65,60,192
1,58,64,0
1,62,64,2
1,62,0,106
1,58,0,21
1,65,0,12
1,58,62,176
1,65,65,2
1,55,61,0
1,65,0,76
1,58,0,10
1,55,0,2
1,64,63,78
1,58,69,1
1,55,55,3
1,58,0,140
1,64,0,3
1,55,0,1
1,69,64,0
1,62,60,0
1,65,72,0
1,62,0,13
1,65,0,2
1,69,0,1
1,58,76,932
1,62,77,0
1,65,65,2
1,62,0,54
1,65,0,8
1,58,0,1
1,58,76,141
1,65,57,1
1,55,61,3
1,65,0,37
1,55,0,4
1,58,0,9
1,58,64,60
1,64,65,2
1,55,56,1
1,55,0,36
1,58,0,1
1,64,0,9
1,65,64,76
1,69,60,0
1,62,57,2
1,62,0,24
1,69,0,0
1,65,0,2
1,65,60,81
1,58,67,1
1,62,66,1
1,62,0,16
1,58,0,4
1,65,0,4
1,58,60,80
1,55,61,1
1,65,59,1
1,65,0,33
1,55,0,0
1,58,0,5
1,58,60,71
1,55,58,2
1,64,62,0
1,55,0,24
1,58,0,5
1,64,0,6
1,65,73,64
1,62,64,0
1,69,67,0
1,65,0,151
1,62,0,22
1,69,0,32
1,67,60,143
1,59,64,0
1,64,60,0
1,67,0,24
1,64,0,4
1,59,0,3
1,58,63,86
1,62,55,1
1,65,59,0
1,62,0,19
1,58,0,10
1,65,0,8
1,58,61,94
1,65,47,2
1,55,44,1
1,58,0,21
1,55,0,3
1,65,0,3
1,58,61,93
1,55,49,0
1,64,55,0
1,58,0,24
1,55,0,1
1,64,0,1
2,50,94,480
2,50,0,78
2,45,105,36
2,45,0,39
2,48,103,25
2,48,0,39
2,50,101,22
2,50,0,82
2,45,98,34
2,45,0,51
2,48,109,14
2,48,0,55
2,50,94,6
2,50,0,78
2,45,90,38
2,45,0,60
2,48,98,4
2,48,0,56
2,50,85,3
2,50,0,99
2,45,98,18
2,45,0,121
2,43,107,1
2,43,0,111
2,50,105,9
2,50,0,56
2,53,103,1
2,53,0,41
2,55,89,18
2,55,0,108
2,53,101,16
2,50,86,58
2,53,0,0
2,50,0,43
2,48,103,14
2,48,0,110
2,48,64,16
2,48,0,52
2,43,94,2
2,43,0,51
2,48,101,9
2,48,0,112
2,48,83,12
2,48,0,93
2,50,94,29
2,50,0,78
2,45,105,36
2,45,0,39
2,48,103,25
2,48,0,39
2,50,101,22
2,50,0,82
2,45,98,34
2,45,0,51
2,48,109,14
2,48,0,55
2,50,94,6
2,50,0,78
2,45,90,38
2,45,0,60
2,48,98,4
2,48,0,56
2,50,85,3
2,50,0,99
2,45,98,18
2,45,0,121
2,43,107,1
2,43,0,111
2,50,105,9
2,50,0,56
2,53,103,1
2,53,0,41
2,55,89,18
2,55,0,108
2,53,101,16
2,50,86,58
2,53,0,0
2,50,0,43
2,48,103,14
2,48,0,110
2,48,64,16
2,48,0,52
2,43,94,2
2,43,0,51
2,48,101,9
2,48,0,112
2,48,83,12
2,48,0,93
2,50,94,29
2,50,0,78
2,45,105,36
2,45,0,39
2,48,103,25
2,48,0,39
2,50,101,22
2,50,0,82
2,45,98,34
2,45,0,51
2,48,109,14
2,48,0,55
2,50,94,6
2,50,0,78
2,45,90,38
2,45,0,60
2,48,98,4
2,48,0,56
2,50,85,3
2,50,0,99
2,45,98,18
2,45,0,121
2,43,107,1
2,43,0,111
2,50,105,9
2,50,0,56
2,53,103,1
2,53,0,41
2,55,89,18
2,55,0,108
2,53,101,16
2,50,86,58
2,53,0,0
2,50,0,43
2,48,103,14
2,48,0,110
2,48,64,16
2,48,0,52
2,43,94,2
2,43,0,51
2,48,101,9
2,48,0,112
2,48,83,12
2,48,0,93
2,50,94,29
2,50,0,78
2,45,105,36
2,45,0,39
2,48,103,25
2,48,0,39
2,50,101,22
2,50,0,82
2,45,98,34
2,45,0,51
2,48,109,14
2,48,0,55
2,50,94,6
2,50,0,78
2,45,90,38
2,45,0,60
2,48,98,4
2,48,0,56
2,50,85,3
2,50,0,99
2,45,98,18
2,45,0,121
2,43,107,1
2,43,0,111
2,50,105,9
2,50,0,56
2,53,103,1
2,53,0,41
2,55,89,18
2,55,0,108
2,53,101,16
2,50,86,58
2,53,0,0
2,50,0,43
2,48,103,14
2,48,0,110
2,48,64,16
2,48,0,52
2,43,94,2
2,43,0,51
2,48,101,9
2,48,0,112
2,48,83,12
2,48,0,93
2,46,114,29
2,41,101,119
2,46,0,1
2,41,0,51
2,43,101,4
2,46,113,63
2,43,0,0
2,41,98,120
2,46,0,8
2,43,84,56
2,41,0,19
2,46,101,37
2,43,0,1
2,41,109,123
2,46,0,0
2,43,96,53
2,41,0,16
2,43,0,38
2,46,101,3
2,41,96,129
2,46,0,4
2,43,92,48
2,41,0,14
2,43,0,42
2,43,114,7
2,43,0,118
2,50,100,2
2,53,96,59
2,50,0,1
2,53,0,39
2,55,86,17
2,53,98,126
2,55,0,5
2,50,89,54
2,53,0,10
2,50,0,46
2,43,116,1
2,50,98,118
2,43,0,0
2,53,96,60
2,50,0,4
2,53,0,48
2,55,105,7
2,53,89,128
2,55,0,8
2,50,70,49
2,53,0,13
2,50,0,38
2,43,122,5
2,43,0,118
2,55,105,8
2,55,0,44
2,55,94,15
2,43,88,56
2,55,0,3
2,43,0,166
2,43,80,13
2,43,0,32
2,43,113,28
2,43,0,178
2,55,85,2
2,43,82,123
2,55,0,2
2,43,0,38
2,43,88,17
2,43,0,35
2,43,98,24
2,43,0,34
2,43,100,27
2,43,0,122
2,50,109,1
2,53,101,58
2,50,0,2
2,53,0,40
2,55,86,15
2,53,90,129
2,55,0,5
2,50,86,49
2,53,0,21
2,48,94,35
2,50,0,16
2,36,94,108
2,48,0,13
2,43,101,46
2,36,0,9
2,48,100,107
2,43,0,6
2,43,101,58
2,48,0,6
2,43,0,100
2,46,109,21
2,41,96,113
2,46,0,1
2,43,86,57
2,41,0,5
2,43,0,55
2,46,114,1
2,41,94,119
2,46,0,1
2,43,78,59
2,41,0,5
2,48,105,57
2,43,0,0
2,48,0,108
2,46,94,8
2,45,98,64
2,46,0,8
2,48,105,56
2,45,0,2
2,46,101,112
2,48,0,4
2,45,85,58
2,46,0,3
2,43,100,58
2,45,0,3
2,50,109,117
2,43,0,2
2,53,109,56
2,50,0,6
2,53,0,45
2,55,103,12
2,53,98,117
2,55,0,9
2,50,89,53
2,53,0,14
2,50,0,38
2,43,113,5
2,43,0,117
2,50,103,4
2,53,109,62
2,50,0,6
2,55,98,55
2,53,0,5
2,53,100,112
2,55,0,8
2,53,0,51
2,50,94,2
2,50,0,45
2,46,109,22
2,41,96,113
2,46,0,1
2,43,86,57
2,41,0,5
2,43,0,55
2,46,114,1
2,41,94,119
2,46,0,1
2,43,78,59
2,41,0,5
2,48,105,57
2,43,0,0
2,48,0,108
2,46,94,8
2,45,98,64
2,46,0,8
2,48,105,56
2,45,0,2
2,46,101,112
2,48,0,4
2,45,85,58
2,46,0,3
2,43,100,58
2,45,0,3
2,50,109,117
2,43,0,2
2,53,109,56
2,50,0,6
2,53,0,45
2,55,103,12
2,53,98,117
2,55,0,9
2,50,89,53
2,53,0,14
2,50,0,38
2,43,113,5
2,43,0,117
2,50,103,4
2,53,109,62
2,50,0,6
2,55,98,55
2,53,0,5
2,53,100,112
2,55,0,8
2,53,0,51
2,50,94,2
2,50,0,45
2,50,94,20
2,50,0,78
2,45,105,36
2,45,0,39
2,48,103,25
2,48,0,39
2,50,101,22
2,50,0,82
2,45,98,34
2,45,0,51
2,48,109,14
2,48,0,55
2,50,94,6
2,50,0,78
2,45,90,38
2,45,0,60
2,48,98,4
2,48,0,56
2,50,85,3
2,50,0,99
2,45,98,18
2,45,0,121
2,43,107,1
2,43,0,111
2,50,105,9
2,50,0,56
2,53,103,1
2,53,0,41
2,55,89,18
2,55,0,108
2,53,101,16
2,50,86,58
2,53,0,0
2,50,0,43
2,48,103,14
2,48,0,110
2,48,64,16
2,48,0,52
2,43,94,2
2,43,0,51
2,48,101,9
2,48,0,112
2,48,83,12
2,48,0,93
2,50,94,29
2,50,0,78
2,45,105,36
2,45,0,39
2,48,103,25
2,48,0,39
2,50,101,22
2,50,0,82
2,45,98,34
2,45,0,51
2,48,109,14
2,48,0,55
2,50,94,6
2,50,0,78
2,45,90,38
2,45,0,60
2,48,98,4
2,48,0,56
2,50,85,3
2,50,0,99
2,45,98,18
2,45,0,121
2,43,107,1
2,43,0,111
2,50,105,9
2,50,0,56
2,53,103,1
2,53,0,41
2,55,89,18
2,55,0,108
2,53,101,16
2,50,86,58
2,53,0,0
2,50,0,43
2,48,103,14
2,48,0,110
2,48,64,16
2,48,0,52
2,43,94,2
2,43,0,51
2,48,101,9
2,48,0,112
2,48,83,12
2,48,0,93
2,46,109,31
2,41,96,113
2,46,0,1
2,43,86,57
2,41,0,5
2,43,0,55
2,46,114,1
2,41,94,119
2,46,0,1
2,43,78,59
2,41,0,5
2,48,105,57
2,43,0,0
2,48,0,108
2,46,94,8
2,45,98,64
2,46,0,8
2,48,105,56
2,45,0,2
2,46,101,112
2,48,0,4
2,45,85,58
2,46,0,3
2,43,100,58
2,45,0,3
2,50,109,117
2,43,0,2
2,53,109,56
2,50,0,6
2,53,0,45
2,55,103,12
2,53,98,117
2,55,0,9
2,50,89,53
2,53,0,14
2,50,0,38
2,43,113,5
2,43,0,117
2,50,103,4
2,53,109,62
2,50,0,6
2,55,98,55
2,53,0,5
2,53,100,112
2,55,0,8
2,53,0,51
2,50,94,2
2,50,0,45
2,50,86,20
2,50,0,874
2,50,89,20
2,45,83,27
2,50,0,5
2,45,0,23
2,43,96,1
2,55,85,424
2,43,0,1
2,53,65,33
2,55,0,3
2,48,84,23
2,53,0,2
2,60,80,232
2,48,0,4
2,60,0,222
2,50,86,26
2,50,0,874
2,50,89,20
2,45,83,27
2,50,0,5
2,45,0,23
2,43,96,1
2,55,85,424
2,43,0,1
2,53,65,33
2,55,0,3
2,48,84,23
2,53,0,2
2,60,80,232
2,48,0,4
2,60,0,222
2,50,94,26
2,50,0,78
2,45,105,36
2,45,0,39
2,48,103,25
2,48,0,39
2,50,101,22
2,50,0,82
2,45,98,34
2,45,0,51
2,48,109,14
2,48,0,55
2,50,94,6
2,50,0,78
2,45,90,38
2,45,0,60
2,48,98,4
2,48,0,56
2,50,85,3
2,50,0,99
2,45,98,18
2,45,0,121
2,43,107,1
2,43,0,111
2,50,105,9
2,50,0,56
2,53,103,1
2,53,0,41
2,55,89,18
2,55,0,108
2,53,101,16
2,50,86,58
2,53,0,0
2,50,0,43
2,48,103,14
2,48,0,110
2,48,64,16
2,48,0,52
2,43,94,2
2,43,0,51
2,48,101,9
2,48,0,112
2,48,83,12
2,48,0,93
2,50,94,29
2,50,0,78
2,45,105,36
2,45,0,39
2,48,103,25
2,48,0,39
2,50,101,22
2,50,0,82
2,45,98,34
2,45,0,51
2,48,109,14
2,48,0,55
2,50,94,6
2,50,0,78
2,45,90,38
2,45,0,60
2,48,98,4
2,48,0,56
2,50,85,3
2,50,0,99
2,45,98,18
2,45,0,121
2,43,107,1
2,43,0,111
2,50,105,9
2,50,0,56
2,53,103,1
2,53,0,41
2,55,89,18
2,55,0,108
2,53,101,16
2,50,86,58
2,53,0,0
2,50,0,43
2,48,103,14
2,48,0,110
2,48,64,16
2,48,0,52
2,43,94,2
2,43,0,51
2,48,101,9
2,48,0,112
2,48,83,12
2,48,0,93
2,46,114,29
2,41,101,119
2,46,0,1
2,41,0,51
2,43,101,4
2,46,113,63
2,43,0,0
2,41,98,120
2,46,0,8
2,43,84,56
2,41,0,19
2,46,101,37
2,43,0,1
2,41,109,123
2,46,0,0
2,43,96,53
2,41,0,16
2,43,0,38
2,46,101,3
2,41,96,129
2,46,0,4
2,43,92,48
2,41,0,14
2,43,0,42
2,43,114,7
2,43,0,118
2,50,100,2
2,53,96,59
2,50,0,1
2,53,0,39
2,55,86,17
2,53,98,126
2,55,0,5
2,50,89,54
2,53,0,10
2,50,0,46
2,43,116,1
2,50,98,118
2,43,0,0
2,53,96,60
2,50,0,4
2,53,0,48
2,55,105,7
2,53,89,128
2,55,0,8
2,50,70,49
2,53,0,13
2,50,0,38
2,43,122,5
2,43,0,118
2,55,105,8
2,55,0,44
2,55,94,15
2,43,88,56
2,55,0,3
2,43,0,166
2,43,80,13
2,43,0,32
2,43,113,28
2,43,0,178
2,55,85,2
2,43,82,123
2,55,0,2
2,43,0,38
2,43,88,17
2,43,0,35
2,43,98,24
2,43,0,34
2,43,100,27
2,43,0,122
2,50,109,1
2,53,101,58
2,50,0,2
2,53,0,40
2,55,86,15
2,53,90,129
2,55,0,5
2,50,86,49
2,53,0,21
2,48,94,35
2,50,0,16
2,36,94,108
2,48,0,13
2,43,101,46
2,36,0,9
2,48,100,107
2,43,0,6
2,43,101,58
2,48,0,6
2,43,0,100
2,46,109,21
2,41,96,113
2,46,0,1
2,43,86,57
2,41,0,5
2,43,0,55
2,46,114,1
2,41,94,119
2,46,0,1
2,43,78,59
2,41,0,5
2,48,105,57
2,43,0,0
2,48,0,108
2,46,94,8
2,45,98,64
2,46,0,8
2,48,105,56
2,45,0,2
2,46,101,112
2,48,0,4
2,45,85,58
2,46,0,3
2,43,100,58
2,45,0,3
2,50,109,117
2,43,0,2
2,53,109,56
2,50,0,6
2,53,0,45
2,55,103,12
2,53,98,117
2,55,0,9
2,50,89,53
