track,note,velocity,time
1,79,118,100976
1,83,127,0
1,86,100,6
1,74,127,0
1,67,127,0
1,71,127,0
1,86,60,9480
1,81,60,0
1,81,64,32
1,86,64,4
1,79,68,30
1,74,68,2
1,79,72,24
1,74,72,4
1,81,77,32
1,86,77,4
1,81,81,38
1,86,82,6
1,79,86,36
1,74,86,0
1,74,89,12
1,79,90,4
1,81,94,26
1,86,94,6
1,81,98,26
1,86,98,6
1,79,103,38
1,74,103,0
1,79,106,26
1,81,111,40
1,86,111,2
1,81,115,36
1,86,116,6
1,79,120,30
1,74,120,2
1,79,123,28
1,74,123,0
1,79,118,1184
1,83,127,0
1,86,100,6
1,74,127,0
1,67,127,0
1,71,127,0
1,86,60,9480
1,81,60,0
1,81,64,32
1,86,64,4
1,79,68,30
1,74,68,2
1,79,72,24
1,74,72,4
1,81,77,32
1,86,77,4
1,81,81,38
1,86,82,6
1,79,86,36
1,74,86,0
1,74,89,12
1,79,90,4
1,81,94,26
1,86,94,6
1,81,98,26
1,86,98,6
1,79,103,38
1,74,103,0
1,79,106,26
1,81,111,40
1,86,111,2
1,81,115,36
1,86,116,6
1,79,120,30
1,74,120,2
1,79,123,28
1,74,123,0
1,79,118,1184
1,83,127,0
1,86,100,6
1,74,127,0
1,67,127,0
1,71,127,0
1,86,60,9480
1,81,60,0
1,81,64,32
1,86,64,4
1,79,68,30
1,74,68,2
1,79,72,24
1,74,72,4
1,81,77,32
1,86,77,4
1,81,81,38
1,86,82,6
1,79,86,36
1,74,86,0
1,74,89,12
1,79,90,4
1,81,94,26
1,86,94,6
1,81,98,26
1,86,98,6
1,79,103,38
1,74,103,0
1,79,106,26
1,81,111,40
1,86,111,2
1,81,115,36
1,86,116,6
1,79,120,30
1,74,120,2
1,79,123,28
1,74,123,0
1,79,118,1184
1,83,127,0
1,86,100,6
1,74,127,0
1,67,127,0
1,71,127,0
1,86,60,80
1,81,60,0
1,81,64,32
1,86,64,4
1,79,68,30
1,74,68,2
1,79,72,24
1,74,72,4
1,81,77,32
1,86,77,4
1,81,81,38
1,86,82,6
1,79,86,14
1,74,86,0
1,74,89,12
1,79,90,4
1,81,94,26
1,86,94,6
1,81,98,26
1,86,98,6
1,79,103,38
1,74,103,0
1,79,106,26
1,81,111,40
1,86,111,2
1,81,115,20
1,86,116,6
1,79,120,30
1,74,120,2
1,79,123,28
1,74,123,0
1,79,118,148
1,83,127,0
1,86,100,6
1,74,127,0
1,67,127,0
1,71,127,0
1,86,60,320
1,81,60,0
1,81,64,32
1,86,64,4
1,79,68,30
1,74,68,2
1,79,72,24
1,74,72,4
1,81,77,32
1,86,77,4
1,81,81,38
1,86,82,6
1,79,86,36
1,74,86,0
1,74,89,6
1,79,90,4
1,81,94,26
1,86,94,6
1,81,98,26
1,86,98,6
1,79,103,38
1,74,103,0
1,79,106,26
1,81,111,40
1,86,111,2
1,81,115,36
1,86,116,6
1,79,120,30
1,74,120,2
1,79,123,28
1,74,123,0
1,79,118,64
1,83,127,0
1,86,100,6
1,74,127,0
1,67,127,0
1,71,127,0
1,86,60,284
1,81,60,0
1,81,64,32
1,86,64,4
1,79,68,30
1,74,68,2
1,79,72,24
1,74,72,4
1,81,77,16
1,86,77,4
1,81,81,38
1,86,82,6
1,79,86,36
1,74,86,0
1,74,89,12
1,79,90,4
1,81,94,26
1,86,94,6
1,81,98,26
1,86,98,6
1,79,103,38
1,74,103,0
1,79,106,26
1,81,111,40
1,86,111,2
1,81,115,36
1,86,116,6
1,79,120,30
1,74,120,2
1,79,123,28
1,74,123,0
2,43,124,16
2,40,113,1520
2,36,113,1484
2,48,98,1126
2,39,109,364
2,41,114,772
2,43,124,40
2,40,113,1520
2,36,113,1484
2,48,98,1126
2,39,98,12
2,51,89,736
2,39,80,760
2,41,101,760
2,43,94,6136
2,43,101,144
2,50,88,666
2,55,80,112
2,43,94,54
2,43,107,172
2,43,89,94
2,45,89,88
2,46,103,16
2,46,101,118
2,46,105,198
2,46,105,116
2,37,96,0
2,36,109,188
2,36,103,186
2,48,105,122
2,48,103,86
2,48,89,192
2,51,98,238
2,51,101,112
2,51,109,58
2,39,105,602
2,41,82,4
2,41,100,162
2,53,103,582
2,38,103,154
2,50,111,26
2,38,38,856
2,38,100,142
2,38,105,106
2,50,101,94
2,50,101,866
2,41,105,176
2,41,101,76
2,53,105,84
2,41,88,854
2,41,96,82
2,41,101,46
2,53,101,70
2,53,85,730
2,40,113,48
2,40,94,108
2,52,101,86
2,52,81,766
2,40,88,200
2,40,85,100
2,52,96,92
2,52,98,736
2,39,113,42
2,39,96,70
2,51,86,880
2,41,90,184
2,41,92,92
2,53,64,924
2,43,127,96
2,43,111,278
2,43,86,10
2,55,105,2
2,40,118,26
2,40,109,194
2,40,114,24
2,52,101,688
2,36,114,32
2,36,101,208
2,48,94,786
2,39,105,6
2,39,98,250
2,40,83,10
2,41,98,6
2,41,113,314
2,43,127,108
2,43,111,278
2,43,86,10
2,55,105,2
2,40,118,26
2,40,109,194
2,40,114,24
2,52,101,688
2,36,114,32
2,36,101,208
2,48,94,786
2,39,105,6
2,39,98,250
2,40,83,10
2,41,98,6
2,41,113,314
2,43,94,6104
2,43,101,144
2,50,88,666
2,55,80,112
2,43,94,54
2,43,107,172
2,43,89,94
2,45,89,88
2,46,103,16
2,46,101,118
2,46,105,198
2,46,105,116
2,37,96,0
2,36,109,188
2,36,103,186
2,48,105,122
2,48,103,86
2,48,89,192
2,51,98,238
2,51,101,112
2,51,109,58
2,39,105,602
2,41,82,4
2,41,100,162
2,53,103,582
2,38,103,154
2,50,111,26
2,38,38,856
2,38,100,142
2,38,105,106
2,50,101,94
2,50,101,866
2,41,105,176
2,41,101,76
2,53,105,84
2,41,88,854
2,41,96,82
2,41,101,46
2,53,101,70
2,53,85,730
2,40,113,48
2,40,94,108
2,52,101,86
2,52,81,766
2,40,88,200
2,40,85,100
2,52,96,92
2,52,98,736
2,39,113,42
2,39,96,70
2,51,86,880
2,41,90,184
2,41,92,92
2,53,64,924
2,38,103,64
2,50,111,26
2,38,38,856
2,38,100,142
2,38,105,106
2,50,101,94
2,50,101,866
2,41,105,176
2,41,101,76
2,53,105,84
2,41,88,854
2,41,96,82
2,41,101,46
2,53,101,70
2,53,85,730
2,40,113,48
2,40,94,108
2,52,101,86
2,52,81,766
2,40,88,200
2,40,85,100
2,52,96,92
2,52,98,736
2,39,113,42
2,39,96,70
2,51,86,880
2,41,90,184
2,41,92,92
2,53,64,924
2,43,127,96
2,43,111,278
2,43,86,10
2,55,105,2
2,40,118,26
2,40,109,194
2,40,114,24
2,52,101,688
2,36,114,32
2,36,101,208
2,48,94,786
2,39,105,6
2,39,98,250
2,40,83,10
2,41,98,6
2,41,113,314
2,43,127,108
2,43,111,278
2,43,86,10
2,55,105,2
2,40,118,26
2,40,109,194
2,40,114,24
2,52,101,688
2,36,114,32
2,36,101,208
2,48,94,786
2,39,105,6
2,39,98,250
2,40,83,10
2,41,98,6
2,41,113,314
2,43,127,108
2,43,111,278
2,43,86,10
2,55,105,2
2,40,118,26
2,40,109,194
2,40,114,24
2,52,101,688
2,36,114,32
2,36,101,208
2,48,94,786
2,39,105,6
2,39,98,250
2,40,83,10
2,41,98,6
2,41,113,314
2,43,127,108
2,43,111,278
2,43,86,10
2,55,105,2
2,40,118,26
2,40,109,194
2,40,114,24
2,52,101,688
2,36,114,32
2,36,101,208
2,48,94,786
2,39,105,6
2,39,98,250
2,40,83,10
2,41,98,6
2,41,113,314
2,43,127,108
2,43,111,278
2,43,86,10
2,55,105,2
2,40,118,26
2,40,109,194
2,40,114,24
2,52,101,688
2,36,114,32
2,36,101,208
2,48,94,786
2,39,105,6
2,39,98,250
2,40,83,10
2,41,98,6
2,41,113,314
2,43,127,108
2,43,111,278
2,43,86,10
2,55,105,2
2,40,118,26
2,40,109,194
2,40,114,24
2,52,101,688
2,36,114,32
2,36,101,208
2,48,94,786
2,39,105,6
2,39,98,250
2,40,83,10
2,41,98,6
2,41,113,314
2,43,127,108
2,43,111,278
2,43,86,10
2,55,105,2
2,40,118,26
2,40,109,194
2,40,114,24
2,52,101,688
2,36,114,32
2,36,101,208
2,48,94,786
2,39,105,6
2,39,98,250
2,40,83,10
2,41,98,6
2,41,113,314
2,43,127,34
2,43,111,50
2,43,86,10
2,55,105,2
2,40,118,26
2,40,109,194
2,40,114,12
2,52,101,50
2,36,114,32
2,36,101,164
2,48,94,300
2,39,105,6
2,39,98,100
2,40,83,10
2,41,98,6
2,41,113,234
2,43,127,18
2,43,111,32
2,43,86,10
2,55,105,2
2,40,118,26
2,40,109,194
2,40,114,24
2,52,101,34
2,36,114,32
2,36,101,144
2,48,94,284
2,39,105,6
2,39,98,84
2,40,83,10
2,41,98,6
2,41,113,218
2,43,127,2
2,43,111,16
2,43,86,10
2,55,105,2
2,40,118,26
2,40,109,194
2,40,114,24
2,52,101,18
2,36,114,32
2,36,101,208
2,48,94,218
2,39,105,6
2,39,98,16
2,40,83,10
2,41,98,6
2,41,113,150
2,43,127,108
2,43,111,274
2,43,86,10
2,55,105,2
2,40,118,26
2,40,109,166
2,40,114,24
2,52,101,274
2,36,114,32
2,36,101,62
2,48,94,202
2,39,105,6
2,39,98,0
2,40,83,10
2,41,98,6
2,41,113,134
2,43,127,108
2,43,111,256
2,43,86,0
2,55,105,2
2,40,118,26
2,40,109,150
2,40,114,24
2,52,101,258
2,36,114,20
2,36,101,46
2,48,94,182
2,39,105,6
2,39,98,250
2,40,83,10
2,41,98,6
2,41,113,314
3,71,65,0
3,74,51,0
3,67,52,0
3,70,61,2496
3,67,66,0
3,63,62,0
3,63,62,268
3,65,74,0
3,69,66,8
3,74,44,250
3,71,50,4
3,67,56,0
3,63,67,1018
3,70,66,2
3,67,64,4
3,65,71,74
3,69,60,0
3,63,65,0
3,66,58,6264
3,59,57,0
3,62,58,0
3,69,52,2624
3,62,47,0
3,65,58,8
3,71,48,2706
3,64,44,4
3,67,58,2
3,63,52,2010
3,70,52,4
3,67,58,2
3,69,53,290
3,63,55,4
3,65,63,0
3,62,78,180
3,67,81,2
3,71,78,0
3,71,75,2714
3,65,73,0
3,67,84,6
3,71,66,320
3,64,75,0
3,67,78,4
3,63,78,368
3,67,78,4
3,70,78,2
3,65,83,322
3,63,65,0
3,69,64,0
3,71,66,222
3,74,55,0
3,67,42,0
3,63,67,1526
3,70,65,0
3,67,64,6
3,65,77,326
3,69,75,4
3,63,65,0
3,74,53,410
3,71,73,0
3,67,55,0
3,63,64,532
3,70,63,6
3,67,67,4
3,63,62,236
3,69,62,4
3,65,58,2
3,71,73,18468
3,62,75,0
3,67,80,0
3,65,71,2292
3,71,71,4
3,67,81,2
3,67,81,244
3,64,70,2
3,71,66,0
3,63,81,378
3,67,70,2
3,70,81,4
3,63,75,388
3,69,75,0
3,65,82,0
3,67,71,282
3,71,71,0
3,62,61,0
3,65,70,170
3,67,73,4
3,71,60,140
3,64,63,6
3,67,78,0
3,63,73,350
3,67,73,0
3,70,74,2
3,69,65,224
3,65,75,4
3,63,67,2
3,71,66,152
3,74,55,0
3,67,42,0
3,63,67,1526
3,70,65,0
3,67,64,6
3,65,77,326
3,69,75,4
3,63,65,0
3,74,53,410
3,71,73,0
3,67,55,0
3,63,64,532
3,70,63,6
3,67,67,4
3,63,62,236
3,69,62,4
3,65,58,2
3,71,66,36
3,74,55,0
3,67,42,0
3,63,67,1526
3,70,65,0
3,67,64,6
3,65,77,326
3,69,75,4
3,63,65,0
3,74,53,410
3,71,73,0
3,67,55,0
3,63,64,532
3,70,63,6
3,67,67,4
3,63,62,236
3,69,62,4
3,65,58,2
3,71,66,36
3,74,55,0
3,67,42,0
3,63,67,1526
3,70,65,0
3,67,64,6
3,65,77,326
3,69,75,4
3,63,65,0
3,74,53,410
3,71,73,0
3,67,55,0
3,63,64,532
3,70,63,6
3,67,67,4
3,63,62,236
3,69,62,4
3,65,58,2
3,71,66,36
3,74,55,0
3,67,42,0
3,63,67,1526
3,70,65,0
3,67,64,6
3,65,77,326
3,69,75,4
3,63,65,0
3,74,53,410
3,71,73,0
3,67,55,0
3,63,64,46
3,70,63,6
3,67,67,4
3,63,62,138
3,69,62,4
3,65,58,2
3,71,66,36
3,74,55,0
3,67,42,0
3,63,67,22
3,70,65,0
3,67,64,6
3,65,77,134
3,69,75,4
3,63,65,0
3,74,53,262
3,71,73,0
3,67,55,0
3,63,64,286
3,70,63,6
3,67,67,4
3,63,62,54
3,69,62,4
3,65,58,2
3,71,66,36
3,74,55,0
3,67,42,0
3,63,67,266
3,70,65,0
3,67,64,6
3,65,77,50
3,69,75,4
3,63,65,0
3,74,53,178
3,71,73,0
3,67,55,0
3,63,64,250
3,70,63,6
3,67,67,4
3,63,62,20
3,69,62,4
3,65,58,2
4,67,101,0
4,59,103,0
4,62,101,0
4,69,105,282
4,62,94,2
4,59,101,0
4,67,92,160
4,62,111,4
4,59,84,0
4,69,100,160
4,67,100,284
4,59,118,0
4,62,92,0
4,63,103,428
4,67,103,0
4,58,111,0
4,63,107,322
4,69,113,4
4,65,96,0
4,67,101,62
4,59,103,0
4,62,101,0
4,69,105,282
4,62,94,2
4,59,101,0
4,67,92,160
4,62,111,4
4,59,84,0
4,69,100,160
4,67,100,284
4,59,118,0
4,62,92,0
4,63,62,420
4,67,71,0
4,70,74,0
4,65,76,24
4,69,61,0
4,63,64,0
4,29,111,64
4,63,98,104
4,60,83,8
4,53,73,0
4,53,81,10
4,62,105,0
4,58,94,6
4,41,96,42
4,53,107,86
4,63,96,0
4,60,114,4
4,62,105,64
4,53,105,4
4,58,98,4
4,41,94,10
4,53,92,32
4,63,90,4
4,60,101,0
4,29,103,2
4,53,92,50
4,62,90,4
4,58,84,2
4,41,105,12
4,53,89,68
4,60,107,0
4,63,81,0
4,65,109,12
4,53,86,0
4,41,105,44
4,29,107,10
4,63,94,102
4,60,96,0
4,53,86,2
4,53,86,16
4,58,111,2
4,62,103,4
4,41,105,20
4,53,103,86
4,63,105,0
4,60,90,0
4,53,105,80
4,62,100,2
4,58,100,0
4,41,89,20
4,53,105,16
4,53,96,4
4,29,103,2
4,53,111,88
4,53,111,52
4,41,111,76
4,77,125,118
4,65,122,4
4,29,107,8
4,77,127,72
4,65,127,6
4,29,111,16
4,63,98,104
4,60,83,8
4,53,73,0
4,53,81,10
4,62,105,0
4,58,94,6
4,41,96,42
4,53,107,86
4,63,96,0
4,60,114,4
4,62,105,64
4,53,105,4
4,58,98,4
4,41,94,10
4,53,92,32
4,63,90,4
4,60,101,0
4,29,103,2
4,53,92,50
4,62,90,4
4,58,84,2
4,41,105,12
4,53,89,68
4,60,107,0
4,63,81,0
4,65,109,12
4,53,86,0
4,41,105,44
4,29,107,10
4,63,94,102
4,60,96,0
4,53,86,2
4,53,86,16
4,58,111,2
4,62,103,4
4,41,105,20
4,53,103,86
4,63,105,0
4,60,90,0
4,53,105,80
4,62,100,2
4,58,100,0
4,29,101,56
4,41,98,0
4,60,86,2
4,53,98,0
4,57,103,0
4,54,105,62
4,58,114,0
4,39,101,0
4,65,92,2
4,31,90,104
4,66,75,0
4,43,92,0
4,62,89,0
4,59,98,0
4,31,62,230
4,43,61,346
4,66,89,600
4,59,71,296
4,34,100,118
4,46,92,0
4,65,86,4
4,62,73,2
4,65,101,1116
4,69,92,0
4,62,86,302
4,48,74,210
4,36,66,0
4,64,71,8
4,67,73,2
4,71,64,6
4,36,74,152
4,48,60,54
4,64,67,186
4,67,78,218
4,64,88,0
4,39,96,112
4,63,78,6
4,67,81,0
4,51,74,0
4,70,84,0
4,51,66,270
4,70,84,406
4,63,78,0
4,41,80,172
4,63,73,4
4,65,85,0
4,53,76,4
4,69,80,0
4,53,70,64
4,63,62,96
4,53,62,106
4,69,85,50
4,67,105,12362
4,59,120,2
4,62,98,0
4,59,100,16
4,67,98,0
4,62,84,0
4,62,105,224
4,69,107,2
4,59,111,0
4,67,105,218
4,59,124,0
4,62,94,0
