track,note,velocity,time
0,81,84,2128
0,80,82,184
0,71,70,4
0,64,70,0
0,78,78,172
0,76,96,168
0,62,68,0
0,74,84,4
0,76,80,36
0,68,56,0
0,71,88,4
0,61,38,0
0,69,70,648
0,71,88,4
0,69,84,4
0,54,68,8
0,57,58,96
0,61,42,88
0,64,62,100
0,76,84,100
0,66,48,0
0,62,54,4
0,61,46,0
0,59,62,0
0,68,96,148
0,71,80,88
0,71,84,4
0,80,102,0
0,64,78,4
0,78,88,192
0,76,92,0
0,62,54,4
0,74,92,180
0,76,80,4
0,71,84,0
0,61,64,4
0,68,82,452
0,69,92,92
0,71,96,4
0,69,92,4
0,54,82,4
0,57,60,52
0,61,60,96
0,64,88,104
0,61,96,4
0,62,100,40
0,47,68,12
0,54,60,88
0,57,60,88
0,59,62,108
0,62,88,4
0,69,84,96
0,78,116,92
0,81,84,96
0,71,96,8
0,80,72,0
0,52,70,4
0,78,52,188
0,69,84,4
0,76,66,188
0,68,68,0
0,50,60,4
0,66,72,188
0,74,84,0
0,68,68,4
0,76,74,0
0,49,64,0
0,71,84,0
0,56,72,188
0,59,78,92
0,64,100,100
0,66,82,88
0,68,78,4
0,71,70,4
0,69,78,0
0,64,80,0
0,42,64,8
0,52,74,192
0,57,88,96
0,66,102,100
0,64,84,4
0,62,22,124
0,66,38,4
0,73,110,4
0,47,62,0
0,57,56,0
0,71,88,0
0,73,82,0
0,69,70,8
0,66,48,4
0,74,62,0
0,52,46,4
0,40,70,388
0,73,60,188
0,61,80,12
0,69,48,0
0,64,54,0
0,45,70,4
0,52,56,96
0,57,52,96
0,61,80,4
0,61,62,24
0,69,54,28
0,61,86,0
0,61,94,24
0,61,94,8
0,65,74,8
0,45,62,8
0,53,60,16
0,61,108,0
0,61,94,56
0,57,60,8
0,61,26,20
0,61,94,0
0,69,58,32
0,59,90,0
0,57,82,4
0,66,78,4
0,45,80,8
0,54,60,56
0,57,80,44
0,61,94,0
0,61,38,44
0,61,76,8
0,69,68,4
0,59,90,4
0,57,82,8
0,66,94,0
0,64,62,4
0,45,70,4
0,55,80,12
0,64,90,8
0,61,34,12
0,64,62,76
0,61,86,8
0,69,58,72
0,67,78,4
0,59,90,92
0,57,86,0
0,62,54,4
0,66,72,0
0,50,62,4
0,57,68,80
0,66,76,4
0,62,54,12
0,66,58,48
0,66,56,4
0,66,100,44
0,69,80,8
0,66,108,32
0,66,108,16
0,70,88,8
0,50,54,0
0,58,60,8
0,66,80,8
0,62,66,20
0,66,86,0
0,66,40,16
0,66,58,4
0,70,52,4
0,64,104,4
0,66,66,0
0,64,82,36
0,62,66,4
0,66,80,176
0,71,74,0
0,50,70,4
0,59,66,68
0,62,56,76
0,66,32,76
0,71,74,76
0,62,36,8
0,58,20,8
0,66,60,4
0,50,58,4
0,70,56,4
0,69,74,4
0,66,108,0
0,57,66,4
0,66,64,0
0,62,46,0
0,64,82,64
0,62,78,4
0,68,46,60
0,59,40,4
0,64,62,0
0,64,62,4
0,68,68,0
0,49,60,0
0,71,78,0
0,64,90,4
0,56,56,164
0,59,58,4
0,64,74,12
0,66,80,8
0,71,80,4
0,57,82,0
0,61,26,0
0,69,62,4
0,69,62,4
0,61,46,0
0,42,42,4
0,49,46,160
0,52,60,100
0,57,56,8
0,57,82,4
0,59,84,100
0,59,108,8
0,61,96,4
0,61,94,8
0,57,92,16
0,47,70,0
0,62,54,8
0,66,56,0
0,61,100,8
0,54,34,156
0,59,84,8
0,59,94,0
0,59,92,4
0,59,104,16
0,57,68,68
0,62,88,100
0,66,46,92
0,69,74,96
0,68,64,28
0,64,68,0
0,68,68,4
0,52,60,0
0,66,48,176
0,68,86,8
0,66,94,88
0,64,74,8
0,50,46,0
0,62,58,4
0,64,90,4
0,62,66,4
0,62,90,8
0,64,70,20
0,49,60,4
0,64,90,0
0,59,78,0
0,56,88,184
0,59,78,12
0,71,100,8
0,64,74,168
0,66,86,4
0,69,68,16
0,64,60,0
0,42,52,4
0,61,48,0
0,69,66,0
0,57,90,4
0,61,56,0
0,49,30,60
0,52,54,104
0,57,58,16
0,61,68,116
0,57,82,144
0,61,80,4
0,66,64,4
0,69,66,0
0,62,58,0
0,62,68,4
0,47,62,0
0,66,64,0
0,54,42,32
0,57,70,92
0,59,94,0
0,59,66,8
0,59,94,16
0,62,78,88
0,69,84,4
0,61,108,0
0,57,36,0
0,66,72,4
0,62,68,0
0,59,66,0
0,52,44,8
0,62,90,4
0,57,62,0
0,61,28,64
0,61,94,8
0,46,64,4
0,64,78,8
0,33,90,12
0,64,60,0
0,57,78,0
0,64,68,0
0,36,96,0
0,42,78,0
0,45,58,4
0,61,64,0
0,57,60,0
0,52,52,84
0,57,62,4
0,42,78,0
0,61,86,4
0,61,64,0
0,61,80,8
0,37,102,20
0,42,86,0
0,69,96,4
0,61,100,0
0,42,86,0
0,61,40,4
0,61,94,0
0,61,100,16
0,33,90,12
0,65,78,0
0,45,58,4
0,65,84,0
0,65,88,0
0,36,92,0
0,42,92,0
0,53,44,16
0,61,94,8
0,57,68,12
0,61,100,8
0,42,64,0
0,61,60,12
0,61,100,4
0,37,102,52
0,42,86,0
0,59,90,4
0,69,74,4
0,61,54,8
0,59,72,44
0,57,68,20
0,46,78,12
0,45,78,8
0,66,82,0
0,36,96,0
0,42,86,0
0,66,60,0
0,66,82,0
0,33,86,4
0,54,56,64
0,61,100,12
0,42,72,4
0,57,56,4
0,61,22,8
0,61,86,4
0,37,102,16
0,69,66,4
0,42,86,0
0,59,104,4
0,61,48,8
0,57,86,0
0,42,78,4
0,66,108,4
0,67,50,4
0,45,62,4
0,64,42,4
0,33,90,4
0,67,88,0
0,36,92,4
0,42,86,0
0,67,96,4
0,55,66,16
0,64,90,12
0,61,56,36
0,42,86,0
0,64,70,4
0,64,58,4
0,61,108,4
0,69,84,4
0,37,102,0
0,42,78,0
0,59,94,76
0,61,30,0
0,57,108,0
0,46,86,0
0,66,78,176
0,62,60,0
0,69,84,0
0,42,86,0
0,36,86,4
0,38,86,0
0,50,78,0
0,66,68,0
0,62,60,0
0,57,62,52
0,66,76,16
0,62,66,60
0,66,108,4
0,42,72,0
0,66,68,32
0,66,94,16
0,69,84,44
0,37,102,0
0,42,86,0
0,66,94,4
0,66,94,20
0,62,60,4
0,36,82,0
0,42,72,0
0,66,80,8
0,70,96,4
0,58,72,4
0,62,54,0
0,70,38,0
0,50,74,0
0,38,80,4
0,66,40,0
0,66,94,0
0,36,86,0
0,42,86,0
0,58,48,80
0,66,80,24
0,42,78,0
0,62,42,4
0,66,80,16
0,66,46,4
0,64,94,48
0,37,96,8
0,42,86,0
0,70,102,4
0,66,58,4
0,64,66,44
0,62,78,0
0,46,86,20
0,71,80,0
0,66,52,4
0,62,50,0
0,62,90,0
0,50,52,0
0,59,96,0
0,36,96,0
0,42,78,0
0,38,90,4
0,71,96,4
0,59,68,72
0,64,82,4
0,66,108,0
0,42,64,0
0,62,58,4
0,66,32,4
0,37,102,0
0,71,96,4
0,42,72,0
0,36,78,0
0,42,64,0
0,62,50,4
0,70,68,8
0,58,88,4
0,36,92,0
0,42,86,0
0,38,100,0
0,50,74,4
0,62,52,0
0,58,60,0
0,66,64,0
0,70,102,0
0,42,58,40
0,66,69,88
0,69,80,0
0,66,114,4
0,57,78,0
0,57,56,0
0,69,74,0
0,66,46,0
0,62,36,4
0,71,56,0
0,37,102,0
0,42,86,0
0,64,77,16
0,46,64,40
0,38,90,4
0,62,90,4
0,42,40,24
0,49,56,0
0,68,78,0
0,59,74,0
0,64,84,0
0,68,78,4
0,64,66,0
0,36,92,0
0,42,78,0
0,68,68,4
0,37,106,4
0,64,104,0
0,56,40,60
0,59,58,104
0,42,58,0
0,61,82,72
0,64,80,4
0,37,96,8
0,42,92,0
0,71,96,4
0,61,78,0
0,64,78,4
0,42,86,8
0,66,100,4
0,61,20,4
0,69,84,36
0,69,66,4
0,61,60,0
0,30,106,0
0,69,84,0
0,42,42,0
0,36,92,0
0,42,86,0
0,57,94,4
0,49,42,172
0,42,78,8
0,52,68,88
0,57,54,88
0,37,102,0
0,42,78,4
0,61,68,4
0,57,104,0
0,59,98,0
0,64,68,4
0,42,72,4
0,69,70,4
0,61,100,0
0,36,70,12
0,35,96,4
0,47,56,4
0,61,72,0
0,59,76,0
0,62,70,4
0,36,92,0
0,42,86,0
0,66,68,4
0,61,100,4
0,59,94,152
0,54,20,4
0,42,78,0
0,57,38,4
0,59,108,16
0,66,96,12
0,62,88,4
0,59,74,0
0,37,102,4
0,42,92,0
0,59,58,4
0,61,94,0
0,46,78,12
0,62,98,80
0,59,66,16
0,57,46,0
0,62,60,0
0,66,56,0
0,52,50,0
0,40,86,8
0,36,96,0
0,42,86,0
0,42,72,180
0,36,86,24
0,59,46,4
0,37,112,0
0,42,102,0
0,61,72,0
0,40,86,4
0,61,96,4
0,61,114,0
0,46,102,0
0,57,96,0
0,36,102,0
0,49,96,0
0,38,90,0
0,38,84,0
0,57,100,0
0,57,104,0
0,57,60,76
0,81,66,84
0,62,56,4
0,69,104,0
0,42,78,0
0,69,98,32
0,69,110,4
0,66,116,36
0,69,106,0
0,54,102,0
0,69,98,0
0,38,102,0
0,42,92,4
0,57,56,4
0,42,86,0
0,69,104,0
0,61,34,48
0,80,88,0
0,68,72,4
0,64,96,4
0,68,72,0
0,59,92,0
0,64,84,0
0,37,106,4
0,49,78,0
0,68,115,0
0,68,126,0
0,36,102,0
0,42,92,0
0,69,110,164
0,81,78,0
0,69,80,4
0,69,98,0
0,42,92,0
0,69,88,4
0,69,114,36
0,69,110,4
0,64,96,0
0,61,52,76
0,38,112,12
0,42,102,0
0,57,78,4
0,61,52,12
0,64,80,4
0,37,106,0
0,49,48,4
0,42,92,0
0,69,66,4
0,69,84,0
0,36,92,12
0,80,88,0
0,62,88,4
0,66,102,0
0,47,110,4
0,62,70,0
0,68,114,0
0,68,126,0
0,68,72,0
0,35,90,4
0,36,102,0
0,42,92,0
0,66,78,0
0,68,100,40
0,69,100,4
0,81,80,8
0,54,96,4
0,69,114,0
0,69,78,0
0,42,86,4
0,66,110,0
0,69,108,0
0,62,84,4
0,69,106,0
0,57,92,0
0,38,106,12
0,42,102,0
0,83,88,152
0,71,104,4
0,71,110,0
0,62,50,4
0,46,102,0
0,73,100,8
0,73,110,0
0,85,60,8
0,59,96,0
0,66,82,0
0,62,70,4
0,40,86,4
0,59,80,0
0,36,102,4
0,42,102,0
0,52,74,8
0,73,108,52
0,71,104,16
0,83,84,8
0,71,110,0
0,59,66,4
0,42,92,0
0,36,96,84
0,69,98,12
0,81,88,0
0,66,110,4
0,62,110,0
0,59,88,0
0,69,106,0
0,38,106,0
0,42,102,0
0,57,60,4
0,69,100,4
0,71,68,0
0,69,78,8
0,80,102,44
0,68,115,0
0,40,90,4
0,66,78,0
0,68,116,4
0,36,106,0
0,46,102,0
0,59,60,4
0,68,88,0
0,68,114,4
0,38,90,0
0,68,126,0
0,36,112,0
0,49,96,0
0,62,70,0
0,66,126,0
0,68,116,0
0,50,92,0
0,81,74,88
0,69,100,12
0,69,90,8
0,69,88,8
0,42,92,0
0,69,92,8
0,69,98,44
0,62,88,12
0,66,126,4
0,69,110,8
0,57,66,84
0,38,112,0
0,42,102,0
0,62,70,4
0,66,116,0
0,42,86,0
0,69,106,4
0,50,68,0
0,69,98,48
0,69,106,0
0,62,62,4
0,36,102,0
0,80,96,4
0,37,96,4
0,64,84,0
0,61,72,0
0,68,88,0
0,68,100,0
0,68,126,0
0,36,102,0
0,49,102,4
0,68,126,0
0,61,102,0
0,64,100,0
0,42,102,0
0,69,100,168
0,69,84,0
0,69,104,4
0,42,86,0
0,81,88,8
0,69,96,0
0,69,104,48
0,69,106,0
0,64,106,4
0,61,96,0
0,69,100,0
0,38,112,28
0,42,102,0
0,57,42,8
0,61,52,36
0,42,54,0
0,37,96,4
0,64,78,0
0,42,102,0
0,81,88,48
0,61,68,4
0,69,106,0
0,49,48,4
0,69,98,0
0,46,78,4
0,80,78,0
0,62,66,0
0,68,60,0
0,66,72,0
0,68,116,4
0,35,96,0
0,62,96,0
0,47,96,0
0,68,94,0
0,68,102,0
0,36,106,0
0,42,102,0
0,81,96,8
0,69,88,0
0,69,70,0
0,66,46,0
0,69,94,0
0,42,86,0
0,69,88,8
0,69,116,0
0,62,80,4
0,66,116,0
0,69,106,0
0,69,98,0
0,36,102,0
0,57,92,64
0,38,106,0
0,42,102,0
0,62,74,88
0,83,88,80
0,71,114,0
0,71,110,4
0,71,120,0
0,42,102,0
0,62,56,4
0,62,68,8
0,73,100,8
0,62,54,4
0,66,88,0
0,85,88,0
0,40,90,4
0,59,66,0
0,36,102,0
0,42,102,0
0,57,80,0
0,66,116,0
0,73,116,0
0,52,74,0
0,73,102,0
0,71,88,20
0,71,108,4
0,71,96,0
0,42,92,0
0,83,84,4
0,36,102,24
0,62,80,0
0,66,126,0
0,69,106,0
0,69,114,0
0,69,110,0
0,57,92,4
0,81,88,0
0,38,106,0
0,42,92,0
0,42,64,44
0,40,80,8
0,38,102,4
0,52,84,4
0,68,88,12
0,68,114,8
0,68,110,0
0,80,102,0
0,38,86,0
0,68,82,20
0,38,100,4
0,68,126,0
0,62,74,0
0,66,126,0
0,68,102,0
0,68,108,4
0,49,96,0
0,36,112,0
0,50,96,4
0,81,100,168
0,69,88,12
0,69,94,0
0,42,78,0
0,69,106,4
0,69,88,0
0,69,106,4
0,66,126,0
0,62,78,0
0,36,96,0
0,69,98,52
0,69,106,0
0,38,112,4
0,42,102,0
0,57,74,4
0,62,50,84
0,69,108,48
0,69,100,0
0,42,102,0
0,66,68,4
0,69,92,4
0,64,78,0
0,80,102,0
0,37,96,4
0,68,114,0
0,68,78,0
0,68,116,0
0,64,70,0
0,36,102,0
0,42,102,0
0,61,126,4
0,68,102,0
0,64,110,0
0,49,88,0
0,69,100,164
0,81,96,0
0,69,84,4
0,69,104,0
0,42,102,0
0,69,84,0
0,61,82,4
0,69,110,0
0,64,106,0
0,36,102,0
0,81,92,32
0,57,80,8
0,69,104,0
0,69,106,0
0,38,112,0
0,42,102,0
0,61,56,4
0,61,88,28
0,37,106,0
0,46,92,0
0,64,92,4
0,69,116,0
0,81,100,0
0,69,96,0
0,69,108,12
0,35,96,8
0,68,116,0
0,62,96,0
0,62,74,0
0,68,68,0
0,80,102,0
0,36,106,0
0,42,102,0
0,47,110,0
0,68,110,0
0,66,78,0
0,68,108,4
0,69,106,12
0,81,96,0
0,69,90,8
0,69,100,0
0,42,92,0
0,69,84,0
0,69,104,0
0,69,92,4
0,36,106,4
0,69,104,40
0,66,110,4
0,62,80,0
0,57,80,4
0,69,106,0
0,38,106,4
0,42,102,0
0,83,96,48
0,71,106,0
0,71,108,0
0,71,116,4
0,46,92,4
0,52,56,4
0,62,56,32
0,57,110,28
0,66,102,4
0,85,88,8
0,73,110,4
0,73,108,0
0,73,110,0
0,40,90,4
0,59,78,0
0,49,58,0
0,36,112,0
0,71,106,8
0,83,88,4
0,71,114,8
0,71,88,8
0,42,86,0
0,69,116,12
0,69,104,12
0,81,84,4
0,38,102,4
0,42,92,0
0,62,70,0
0,66,88,0
0,69,92,0
0,42,44,180
0,42,78,0
0,40,106,0
0,69,114,4
0,81,106,4
0,36,112,0
0,73,110,4
0,81,96,0
0,69,110,4
0,61,126,0
0,45,112,4
0,47,102,0
0,38,112,0
0,80,116,0
0,68,114,0
0,80,116,0
0,52,106,0
0,71,100,0
0,59,100,0
0,68,126,0
0,69,82,4
0,68,94,40
0,78,96,4
0,41,106,0
0,36,106,0
0,69,92,0
0,78,88,0
0,66,116,0
0,57,92,4
0,66,114,0
0,68,116,76
0,37,106,0
0,59,96,0
0,64,100,0
0,76,100,0
0,49,102,0
0,36,112,0
0,42,102,0
0,64,108,0
0,64,126,0
0,56,96,4
0,76,126,0
0,64,126,0
0,71,126,0
0,49,126,0
0,42,86,180
