track,note,velocity,time
1,64,103,1136
1,24,113,0
1,60,105,0
1,67,95,0
1,27,109,136
1,28,115,20
1,58,94,0
1,67,95,0
1,62,107,0
1,55,91,120
1,56,96,32
1,29,107,24
1,57,112,0
1,65,114,28
1,41,103,84
1,65,101,24
1,29,120,0
1,53,113,0
1,30,106,152
1,63,103,12
1,31,115,12
1,64,93,0
1,67,87,0
1,53,97,0
1,55,99,0
1,43,87,144
1,65,99,36
1,62,105,0
1,31,118,0
1,55,107,0
1,53,110,0
1,43,99,160
1,55,103,36
1,60,104,0
1,52,95,0
1,36,94,4
1,48,86,628
1,52,85,0
1,55,83,0
1,24,90,0
1,60,86,0
1,67,91,872
1,59,91,0
1,62,91,0
1,35,91,0
1,47,91,0
1,57,85,180
1,67,85,0
1,60,85,0
1,64,85,0
1,33,85,0
1,45,85,0
1,34,89,16
1,62,89,0
1,65,89,0
1,58,89,0
1,46,89,0
1,62,84,0
1,58,84,0
1,55,86,140
1,56,84,32
1,29,110,0
1,57,91,8
1,65,113,56
1,41,91,8
1,53,63,8
1,65,120,56
1,41,88,0
1,60,80,16
1,61,67,0
1,24,99,0
1,62,85,0
1,55,103,36
1,60,103,0
1,64,113,0
1,48,103,0
1,57,76,460
1,60,97,32
1,65,102,0
1,57,73,0
1,65,101,28
1,60,80,0
1,57,84,12
1,65,97,40
1,60,97,0
1,57,76,8
1,65,99,28
1,60,93,0
1,43,97,32
1,55,101,16
1,64,97,0
1,60,103,0
1,24,118,0
1,35,99,1044
1,59,91,0
1,47,90,0
1,62,87,4
1,35,107,52
1,47,99,0
1,62,99,0
1,59,105,0
1,33,101,32
1,45,99,4
1,60,93,0
1,57,99,0
1,34,89,16
1,62,89,0
1,65,89,0
1,58,89,0
1,46,89,0
1,62,84,0
1,58,84,0
1,55,86,144
1,56,84,32
1,29,110,0
1,57,91,8
1,65,113,56
1,41,91,8
1,53,63,4
1,65,111,56
1,41,88,0
1,60,80,16
1,61,67,0
1,24,99,0
1,62,85,4
1,55,103,36
1,60,103,0
1,64,103,0
1,48,103,0
1,36,101,168
1,60,115,0
1,24,115,0
1,55,97,0
1,64,99,0
1,36,103,0
1,24,110,12
1,36,103,4
1,24,107,4
1,36,91,104
1,25,109,20
1,37,103,24
1,26,105,0
1,38,99,104
1,27,112,28
1,55,101,0
1,58,103,0
1,63,109,0
1,58,94,104
1,63,100,0
1,55,88,0
1,39,112,0
1,27,92,116
1,27,112,64
1,27,71,52
1,39,109,0
1,58,90,0
1,63,94,0
1,55,85,0
1,27,112,76
1,39,103,48
1,27,106,0
1,58,106,0
1,63,106,0
1,55,99,0
1,63,70,40
1,58,72,0
1,55,66,0
1,39,97,8
1,60,105,48
1,65,110,0
1,57,101,0
1,41,105,0
1,29,118,0
1,60,120,72
1,57,103,0
1,65,115,0
1,41,118,0
1,41,115,32
1,29,113,4
1,65,87,0
1,60,103,0
1,57,91,0
1,41,107,0
1,29,110,52
1,41,118,24
1,65,103,0
1,60,118,0
1,57,103,0
1,57,91,40
1,60,105,0
1,65,107,0
1,41,97,32
1,63,97,48
1,54,106,0
1,60,110,0
1,58,90,0
1,32,120,0
1,58,100,80
1,63,103,0
1,60,115,0
1,54,109,0
1,44,120,0
1,32,86,112
1,32,109,60
1,54,103,60
1,58,100,0
1,63,94,0
1,60,107,0
1,44,120,0
1,32,90,0
1,32,116,108
1,58,112,44
1,63,100,0
1,54,116,0
1,60,120,0
1,32,103,0
1,44,116,0
1,44,59,76
1,32,67,0
1,58,118,16
1,53,110,4
1,62,115,0
1,43,120,0
1,31,107,0
1,58,110,80
1,62,105,0
1,53,101,4
1,67,80,0
1,70,96,164
1,67,93,64
1,65,91,48
1,62,93,16
1,62,93,48
1,61,100,0
1,67,99,4
1,61,80,0
1,60,88,76
1,58,106,28
1,60,105,32
1,55,103,0
1,52,118,0
1,24,113,0
1,36,107,0
1,58,109,160
1,62,103,0
1,53,93,0
1,46,109,0
1,34,120,0
1,60,107,88
1,63,88,0
1,56,109,0
1,32,116,0
1,44,120,0
1,39,116,88
1,58,116,0
1,27,116,0
1,55,95,0
1,63,106,0
1,55,110,144
1,36,120,0
1,64,105,0
1,60,120,0
1,24,115,0
1,36,88,40
1,68,100,40
1,72,120,8
1,69,115,0
1,65,113,0
1,64,110,12
1,67,115,0
1,72,73,4
1,24,110,0
1,63,107,36
1,67,100,8
1,64,107,0
1,36,107,4
1,63,112,28
1,67,101,0
1,36,90,4
1,62,114,52
1,60,115,52
1,67,97,0
1,36,107,0
1,24,115,0
1,52,113,8
1,55,110,0
1,60,115,0
1,28,120,188
1,62,101,96
1,58,103,0
1,57,105,0
1,52,115,0
1,40,90,52
1,29,120,56
1,56,103,88
1,65,103,8
1,57,105,0
1,41,99,8
1,65,120,72
1,57,120,0
1,30,116,124
1,31,118,52
1,63,100,8
1,67,120,8
1,64,120,0
1,63,116,56
1,67,110,0
1,67,77,12
1,62,97,0
1,67,107,72
1,64,105,0
1,60,120,0
1,24,118,76
1,36,115,0
1,36,107,4
1,64,107,56
1,60,115,0
1,55,91,0
1,60,120,36
1,54,112,0
1,55,73,0
1,55,84,4
1,55,71,40
1,60,70,0
1,24,115,96
1,36,120,0
1,60,118,172
1,55,118,0
1,28,120,80
1,55,118,96
1,60,118,0
1,40,103,8
1,29,120,56
1,60,107,96
1,57,101,0
1,53,120,0
1,41,105,120
1,57,120,72
1,60,120,0
1,53,120,0
1,30,120,152
1,31,110,48
1,67,120,192
1,63,120,0
1,64,115,0
1,43,110,32
1,67,110,0
1,63,116,0
1,67,65,24
1,62,90,0
1,67,118,52
1,60,120,0
1,24,120,48
1,66,120,192
1,72,120,0
1,36,42,0
1,67,84,0
1,60,101,96
1,72,120,32
1,67,120,0
1,72,87,12
1,67,105,0
1,24,120,8
1,67,120,188
1,63,120,0
1,64,73,96
1,36,84,0
1,67,103,16
1,63,116,0
1,28,115,0
1,62,103,8
1,67,80,0
1,60,105,0
1,60,115,24
1,67,105,0
1,29,120,12
1,65,118,96
1,60,120,0
1,57,120,0
1,41,110,120
1,65,120,72
1,60,120,0
1,57,120,0
1,30,120,152
1,31,120,48
1,43,113,288
1,60,120,68
1,54,120,0
1,55,72,24
1,60,115,32
1,55,107,0
1,60,99,24
1,55,118,0
1,24,115,92
1,36,120,0
1,60,120,192
1,54,120,0
1,55,90,0
1,60,79,32
1,54,112,0
1,53,109,4
1,52,120,40
1,60,118,0
1,24,118,96
1,60,110,40
1,52,115,0
1,55,118,0
1,36,101,8
1,28,120,60
1,55,110,96
1,52,105,0
1,60,113,0
1,40,103,88
1,29,120,56
1,53,120,96
1,57,120,0
1,60,120,0
1,41,105,56
1,29,68,0
1,60,118,56
1,57,120,0
1,53,120,0
1,30,120,56
1,42,65,0
1,31,120,48
1,63,120,184
1,67,120,8
1,64,120,0
1,31,110,72
1,43,118,0
1,67,113,0
1,63,120,0
1,31,113,28
1,43,120,0
1,67,113,0
1,62,110,0
1,64,120,100
1,67,120,0
1,60,120,0
1,24,120,0
1,36,115,0
1,55,97,180
1,72,84,0
1,67,83,0
1,64,79,0
1,72,69,0
1,57,91,0
1,65,73,4
1,69,81,0
1,72,88,52
1,70,74,0
1,67,91,0
1,58,82,0
1,58,94,68
1,67,79,4
1,70,64,0
1,72,71,4
1,58,97,52
1,70,67,8
1,67,84,0
1,72,85,0
1,57,78,60
1,72,69,0
1,65,76,0
1,69,79,0
1,65,79,44
1,72,79,0
1,69,81,0
1,57,83,0
1,55,79,48
1,72,66,8
1,67,72,0
1,64,56,0
1,55,77,44
1,67,76,0
1,72,72,0
1,64,67,0
1,55,85,56
1,72,78,8
1,64,68,0
1,67,80,0
1,72,66,24
1,65,81,0
1,69,87,0
1,57,88,0
1,72,77,52
1,67,85,0
1,70,68,0
1,58,82,0
1,58,84,28
1,72,66,4
1,67,83,0
1,70,72,0
1,72,83,44
1,70,74,0
1,67,93,0
1,58,82,0
1,57,84,32
1,72,63,8
1,65,70,0
1,69,72,0
1,57,88,56
1,65,77,4
1,69,90,0
1,72,83,0
1,57,81,44
1,65,72,8
1,72,67,0
1,69,73,0
1,72,79,44
1,65,79,0
1,69,87,0
1,57,97,0
1,57,85,60
1,69,77,4
1,72,73,0
1,65,78,0
1,72,83,52
1,69,85,0
1,65,79,0
1,57,91,0
1,36,99,52
1,24,101,0
1,72,91,8
1,67,91,0
1,64,87,0
1,55,88,0
1,36,74,36
1,64,101,88
1,60,120,0
1,55,103,0
1,24,97,48
1,36,95,28
1,60,27,0
1,55,24,0
1,64,55,8
1,60,83,56
1,55,73,0
1,36,77,8
1,60,118,52
1,57,107,0
1,65,115,0
1,65,99,52
1,57,99,0
1,60,107,0
1,55,99,24
1,60,113,4
1,64,103,0
1,36,107,0
1,24,99,0
1,36,64,16
1,64,101,96
1,60,105,0
1,55,91,0
1,55,85,88
1,36,99,56
1,24,103,20
1,64,103,64
1,60,110,0
1,55,99,0
1,55,63,28
1,36,110,0
1,63,120,0
1,55,57,16
1,62,107,0
1,60,90,20
1,36,97,64
1,55,90,0
1,33,107,8
1,45,115,288
1,57,110,84
1,55,110,0
1,60,113,0
1,45,80,0
1,34,106,20
1,58,106,0
1,62,105,0
1,53,81,0
1,60,115,4
1,57,115,0
1,29,110,0
1,53,107,0
1,41,118,0
1,52,83,32
1,55,93,0
1,24,113,0
1,60,95,0
1,36,110,0
1,36,85,0
1,55,101,96
1,60,105,0
1,52,95,0
1,52,81,52
1,36,110,0
1,24,115,32
1,65,101,68
1,57,97,0
1,60,107,0
1,65,91,28
1,60,97,0
1,57,87,0
1,36,83,96
1,55,78,32
1,60,99,0
1,64,90,4
1,55,73,40
1,36,95,0
1,24,99,4
1,60,107,4
1,64,97,0
1,55,97,0
1,36,93,24
1,64,95,92
1,60,103,0
1,55,101,0
1,36,97,84
1,55,76,4
1,24,105,20
1,64,97,144
1,60,107,0
1,55,91,0
1,63,112,28
1,55,78,0
1,36,103,8
1,55,73,36
1,62,105,0
1,60,107,4
1,55,95,76
1,33,113,32
1,45,113,288
1,60,113,80
1,57,99,0
1,55,90,0
1,55,65,20
1,34,109,12
1,58,97,0
1,46,109,0
1,53,105,0
1,62,103,0
1,60,105,4
1,29,99,0
1,53,103,0
1,41,103,0
1,57,107,0
1,52,97,52
1,55,93,0
1,60,99,0
1,36,93,0
1,24,110,0
1,52,71,92
1,36,115,20
1,57,90,20
1,65,101,0
1,60,101,0
1,65,107,36
1,60,115,0
1,57,101,0
1,36,85,56
1,60,101,28
1,65,103,0
1,57,93,4
1,60,115,28
1,55,105,0
1,64,105,0
1,36,99,20
1,27,100,20
1,39,109,0
1,58,109,0
1,63,106,0
1,55,93,0
1,39,84,24
1,55,79,0
1,27,109,0
1,58,103,0
1,63,106,0
1,55,69,64
1,62,55,20
1,39,66,4
1,55,83,44
1,63,112,0
1,58,106,0
1,27,116,120
1,39,109,0
1,63,88,84
1,58,90,0
1,55,83,0
1,63,74,28
1,58,82,0
1,55,70,0
1,39,103,68
1,27,80,0
1,29,101,4
1,57,93,0
1,60,110,0
1,65,110,0
1,41,105,0
1,29,101,40
1,65,115,4
1,57,103,0
1,60,118,0
1,29,105,0
1,41,113,0
1,57,84,76
1,29,105,52
1,60,99,36
1,29,120,0
1,41,115,0
1,57,85,0
1,65,99,0
1,29,118,64
1,41,113,0
1,57,99,96
1,65,115,0
1,60,118,0
1,29,99,36
1,65,90,0
1,60,99,0
1,57,79,0
1,41,74,4
1,41,101,24
1,44,106,24
1,54,94,0
1,60,88,0
1,32,112,0
1,58,77,0
1,63,84,8
1,44,109,120
1,63,94,0
1,54,100,0
1,58,94,0
1,60,105,0
1,32,116,0
1,32,120,36
1,63,90,68
1,58,97,0
1,54,103,0
1,60,110,0
1,32,120,12
1,44,120,0
1,58,100,196
1,54,94,0
1,63,84,0
1,60,110,0
1,32,100,120
1,44,103,0
1,54,109,96
1,58,116,0
1,63,97,0
1,60,120,0
1,44,100,16
1,32,103,0
1,55,93,48
1,62,107,0
1,31,107,0
1,58,100,0
1,43,118,0
1,62,116,60
1,70,116,20
1,69,115,28
1,67,105,24
1,62,73,36
1,60,110,20
1,67,118,16
1,57,101,4
1,58,120,24
1,36,91,108
1,67,101,0
1,48,107,0
1,64,101,0
1,60,113,0
1,65,103,52
1,46,100,4
1,58,106,0
1,34,116,0
1,62,105,0
1,63,94,180
1,56,103,0
1,65,103,0
1,60,103,0
1,44,109,0
1,32,109,0
1,58,100,4
1,67,110,0
1,63,94,0
1,27,109,0
1,39,120,0
1,60,110,0
1,24,115,20
1,36,110,0
1,67,113,0
1,64,105,0
1,60,118,0
1,55,115,0
1,24,110,4
1,63,103,24
1,64,113,12
1,67,113,0
1,36,110,0
1,67,91,4
1,63,106,0
1,67,77,32
1,62,99,0
1,67,95,12
1,60,110,0
1,36,87,104
1,60,110,64
1,55,107,8
1,24,105,0
1,52,113,0
1,36,47,92
1,52,120,12
1,60,120,0
1,55,120,0
1,36,88,0
1,28,115,64
1,52,113,48
1,55,113,0
1,60,118,0
1,28,97,0
1,40,103,0
1,40,62,52
1,60,101,8
1,52,105,0
1,55,113,0
1,29,115,12
1,57,120,44
1,53,107,0
1,60,120,0
1,29,103,0
1,41,115,0
1,29,103,72
1,41,120,68
1,29,120,0
1,53,115,0
1,57,120,4
1,60,118,0
1,53,110,56
1,57,118,0
1,60,118,0
1,29,63,20
1,41,97,0
1,31,120,36
1,66,120,16
1,67,110,8
1,72,120,0
1,43,118,0
1,31,93,4
1,38,57,4
1,72,107,56
1,66,109,0
1,68,64,0
1,72,79,20
1,65,105,0
1,43,83,0
1,72,118,24
1,64,113,0
1,24,115,96
1,68,120,48
1,69,120,12
1,36,99,0
1,67,120,4
1,36,110,8
1,63,120,52
1,64,80,96
1,55,113,32
1,57,97,68
1,36,110,0
1,24,110,36
1,60,118,0
1,52,103,80
1,55,113,0
1,60,110,0
1,36,103,0
1,28,115,52
1,52,113,36
1,60,118,0
1,55,115,0
1,28,105,0
1,40,120,0
1,52,99,44
1,40,74,0
1,55,103,0
1,60,103,0
1,29,115,4
1,57,115,32
1,53,107,0
1,60,118,0
1,29,95,0
1,41,110,0
1,29,101,72
1,29,118,68
1,41,120,0
1,53,103,0
1,57,120,0
1,60,120,0
1,57,107,52
1,53,99,0
1,60,105,0
1,41,91,48
1,29,83,0
1,31,120,4
1,54,120,20
1,55,107,8
1,60,120,0
1,31,105,0
1,43,110,8
1,43,118,44
1,54,120,0
1,31,105,0
1,60,118,0
1,60,101,20
1,53,103,4
1,60,113,52
1,52,120,0
1,24,120,4
1,66,120,36
1,74,99,0
1,72,110,0
1,36,105,8
1,67,81,12
1,60,118,12
1,72,32,4
1,36,101,4
1,72,120,40
1,66,112,0
1,24,115,4
1,67,91,4
1,60,103,96
1,72,80,20
1,64,95,0
1,36,103,0
1,67,99,0
1,60,52,0
1,24,120,12
1,67,17,8
1,72,103,68
1,64,103,0
1,67,110,0
1,60,120,0
1,36,103,96
1,28,120,52
1,28,103,40
1,60,120,0
1,72,105,0
1,67,110,0
1,64,120,0
1,40,115,0
1,60,107,52
1,64,107,0
1,67,97,0
1,40,103,8
1,29,115,44
1,29,93,36
1,65,115,0
1,69,105,0
1,60,115,0
1,41,118,0
1,29,101,84
1,69,110,72
1,65,120,0
1,60,115,0
1,41,118,0
1,29,115,0
1,69,101,40
1,65,113,0
1,60,113,0
1,29,70,40
1,41,107,0
1,31,120,36
1,66,120,28
1,67,113,8
1,72,120,0
1,64,105,0
1,43,107,8
1,31,113,0
1,37,64,0
1,66,97,44
1,63,92,0
1,72,95,0
1,43,113,0
1,31,115,0
1,37,52,8
1,31,77,20
1,72,93,0
1,62,103,8
1,43,91,0
1,65,101,0
1,72,110,40
1,67,110,0
1,64,107,0
1,24,118,92
1,68,120,32
1,64,113,4
1,69,118,0
1,36,110,0
1,64,80,16
1,67,101,0
1,36,101,0
1,63,120,32
1,24,103,0
