track,note,velocity,time
1,35,45,3072
1,35,37,204
1,35,49,136
1,35,45,194
1,35,37,148
1,35,49,136
1,35,45,162
1,35,37,126
1,35,49,136
1,35,45,122
1,35,37,168
1,35,49,128
1,35,45,440
1,35,37,204
1,35,49,136
1,35,45,194
1,35,37,148
1,35,49,136
1,35,45,162
1,35,37,126
1,35,49,136
1,35,45,122
1,35,37,168
1,35,49,128
1,35,45,440
1,35,37,204
1,35,49,136
1,35,45,194
1,35,37,148
1,35,49,136
1,35,45,162
1,35,37,126
1,35,49,136
1,35,45,122
1,35,37,168
1,35,49,128
1,35,45,440
1,35,37,204
1,35,49,136
1,35,45,194
1,35,37,148
1,35,49,136
1,35,45,162
1,35,37,126
1,35,49,136
1,35,45,122
1,35,37,168
1,35,49,128
1,35,80,440
1,35,84,672
1,35,80,672
1,35,72,480
1,35,84,96
1,35,80,672
1,35,84,672
1,35,80,672
1,35,72,480
1,35,84,96
1,35,20,192
1,35,80,384
1,35,84,672
1,35,80,672
1,35,26,576
1,35,84,0
1,35,80,672
1,35,84,672
1,35,80,672
1,35,72,480
1,35,84,96
1,35,80,672
1,35,43,480
1,35,84,96
1,35,80,672
1,35,40,480
1,35,84,96
1,35,80,672
1,35,84,672
1,35,49,480
1,35,80,0
1,35,84,672
1,35,80,672
1,35,72,480
1,35,84,96
1,35,80,672
1,35,72,480
1,35,84,96
1,35,80,672
1,35,84,672
1,35,80,672
1,35,72,480
1,35,84,96
1,35,80,672
1,35,72,480
1,35,84,96
1,35,80,672
1,35,72,480
1,35,84,96
1,35,80,672
1,35,72,480
1,35,84,96
1,35,80,672
1,35,72,480
1,35,80,96
1,35,80,672
1,35,80,12192
1,35,84,672
1,35,80,672
1,35,72,480
1,35,84,96
1,35,80,672
1,35,84,672
1,35,80,672
1,35,72,480
1,35,80,96
1,35,46,480
1,35,80,96
1,35,84,672
1,35,80,672
1,35,84,672
1,35,80,672
1,35,84,672
1,35,80,672
1,35,72,480
1,35,80,864
1,35,43,480
1,35,84,96
1,35,80,672
1,35,40,480
1,35,84,96
1,35,80,672
1,35,49,480
1,35,84,96
1,35,80,672
1,35,49,480
1,35,84,96
1,35,80,672
1,35,72,480
1,35,84,96
1,35,80,672
1,35,72,480
1,35,84,96
1,35,80,672
1,35,72,480
1,35,84,96
1,35,80,672
1,35,72,480
1,35,84,96
1,35,80,672
1,35,84,672
1,35,80,672
1,35,72,480
1,35,84,96
1,35,80,672
1,35,72,480
1,35,84,96
1,35,80,672
1,35,80,1440
1,35,72,480
1,35,84,96
1,35,80,672
1,35,84,672
1,35,80,672
1,35,72,480
1,35,84,96
1,35,80,672
1,35,72,480
1,35,80,96
1,35,80,672
1,35,84,672
1,35,80,672
1,35,84,672
1,35,46,192
1,35,72,192
1,35,80,96
1,35,84,672
1,35,80,672
1,35,80,1440
1,35,64,480
1,35,84,96
1,35,80,672
1,35,66,480
1,35,84,96
1,35,80,672
1,35,72,480
1,35,84,96
1,35,80,672
1,35,69,480
1,35,84,96
1,35,80,672
1,35,72,480
1,35,84,96
1,35,80,672
1,35,72,480
1,35,84,96
1,35,80,672
1,35,84,672
1,35,80,672
1,35,72,480
1,35,84,96
1,35,40,480
1,35,80,96
1,35,72,480
1,35,84,96
1,35,80,672
1,35,72,480
1,35,84,96
1,35,80,672
1,35,84,672
1,35,80,672
1,35,72,480
1,35,84,96
1,35,80,672
1,35,72,480
1,35,84,96
1,35,80,672
1,35,72,480
1,35,80,96
1,35,80,672
1,35,61,480
1,35,84,96
1,35,80,672
1,35,46,480
1,35,84,96
1,35,80,672
1,35,72,480
1,35,84,96
1,35,80,672
1,35,72,480
1,35,55,384
1,35,80,384
1,35,64,480
1,35,84,96
1,35,80,672
1,35,66,480
1,35,84,96
1,35,52,480
1,35,80,96
1,35,84,672
1,35,80,672
1,35,84,672
1,35,80,672
1,35,84,672
1,35,80,672
1,35,84,672
1,35,80,672
1,35,66,480
1,35,84,96
1,35,80,672
1,35,66,480
1,35,84,96
1,35,80,672
1,35,66,480
1,35,84,96
1,35,80,672
1,35,66,480
1,35,84,96
1,35,80,672
1,35,61,480
1,35,84,96
1,35,80,672
1,35,61,480
1,35,84,96
1,35,80,672
1,35,84,672
1,35,80,672
1,35,84,672
1,35,80,672
1,35,84,672
1,35,80,672
1,35,84,672
1,35,80,672
1,35,84,672
1,35,80,672
1,35,84,672
1,35,84,672
2,38,59,27266
2,38,51,32
2,38,68,586
2,38,68,672
2,38,68,672
2,38,68,672
2,38,68,672
2,38,68,672
2,38,68,672
2,38,68,672
2,38,68,672
2,38,68,672
2,38,68,672
2,38,68,672
2,38,68,672
2,38,68,672
2,38,68,672
2,38,68,672
2,38,68,672
2,38,68,672
2,38,68,672
2,38,68,672
2,38,68,672
2,38,68,672
2,38,68,672
2,38,68,672
2,38,68,672
2,38,68,672
2,38,68,672
2,38,68,672
2,38,68,672
2,38,68,672
2,38,68,672
2,38,68,672
2,38,68,672
2,38,68,672
2,38,68,672
2,38,68,672
2,38,68,672
2,38,68,672
2,38,68,672
2,38,41,378
2,38,59,196
2,38,59,12194
2,38,68,672
2,38,68,672
2,38,68,672
2,38,68,672
2,38,68,672
2,38,68,672
2,38,68,672
2,38,68,672
2,38,68,672
2,38,68,672
2,38,68,672
2,38,68,672
2,38,68,672
2,38,68,672
2,38,68,672
2,38,68,288
2,38,68,1056
2,38,68,672
2,38,68,672
2,38,68,672
2,38,68,672
2,38,68,672
2,38,68,672
2,38,68,672
2,38,68,672
2,38,68,672
2,38,68,672
2,38,68,672
2,38,68,672
2,38,68,672
2,38,68,672
2,38,68,672
2,38,68,672
2,38,68,672
2,38,68,672
2,38,68,672
2,38,68,672
2,38,68,672
2,38,68,672
2,38,21,262
2,38,68,26
2,38,68,258
2,38,68,672
2,38,68,672
2,38,68,672
2,38,68,672
2,38,68,672
2,38,68,672
2,38,68,672
2,38,68,672
2,38,68,672
2,38,68,672
2,38,68,672
2,38,68,672
2,38,68,672
2,38,68,672
2,38,68,672
2,38,59,276
2,38,68,12
2,38,29,192
2,38,68,58
2,38,68,672
2,38,68,672
2,38,68,672
2,38,68,672
2,38,68,672
2,38,68,672
2,38,68,672
2,38,68,672
2,38,68,672
2,38,68,672
2,38,68,672
2,38,68,672
2,38,68,672
2,38,68,672
2,38,68,672
2,38,68,672
2,38,68,672
2,38,68,672
2,38,68,672
2,38,68,672
2,38,68,672
2,38,68,672
2,38,68,672
2,38,68,672
2,38,68,672
2,38,68,672
2,38,68,672
2,38,68,672
2,38,68,672
2,38,68,672
2,38,68,672
2,38,68,672
2,38,68,672
2,38,68,672
2,38,68,672
2,38,68,288
2,38,68,288
2,38,68,672
2,38,68,672
2,38,68,672
2,38,68,672
2,38,68,672
2,38,68,672
2,38,68,672
2,38,68,672
2,38,68,672
2,38,68,672
2,38,68,672
2,38,68,672
2,38,68,672
2,38,68,672
2,38,68,672
2,38,68,672
2,38,68,672
2,38,68,672
2,38,68,672
2,38,68,672
2,38,68,672
2,38,68,672
2,38,68,672
2,38,68,672
2,38,68,672
2,38,68,672
2,38,68,672
2,38,68,672
2,38,68,672
2,38,68,672
2,38,68,672
2,38,68,672
2,38,68,672
2,38,68,672
2,38,68,672
2,38,68,672
3,46,60,27550
3,42,73,2
3,42,17,94
3,42,31,0
3,42,23,0
3,42,56,4
3,42,16,0
3,42,31,0
3,42,21,0
3,42,55,92
3,42,17,2
3,42,34,2
3,42,21,94
3,42,55,0
3,42,11,2
3,42,34,0
3,42,21,92
3,42,58,0
3,42,16,4
3,42,31,0
3,42,21,0
3,42,55,92
3,42,17,2
3,42,34,2
3,42,21,94
3,42,55,0
3,42,11,2
3,42,34,0
3,42,21,92
3,42,58,0
3,42,16,4
3,42,31,0
3,42,21,0
3,42,55,92
3,42,17,2
3,42,34,2
3,42,21,94
3,42,55,0
3,42,11,2
3,42,34,0
3,42,21,92
3,42,58,0
3,42,16,4
3,42,31,0
3,42,21,0
3,42,55,92
3,42,17,2
3,42,34,2
3,42,21,94
3,42,55,0
3,42,11,2
3,42,34,0
3,42,21,92
3,42,58,0
3,42,16,4
3,42,31,0
3,42,21,0
3,42,55,92
3,42,17,2
3,42,34,2
3,42,21,94
3,42,55,0
3,42,11,2
3,42,34,0
3,42,21,92
3,42,58,0
3,42,16,4
3,42,31,0
3,42,21,0
3,42,55,92
3,42,17,2
3,42,34,2
3,42,21,94
3,42,55,0
3,42,11,2
3,42,34,0
3,42,21,92
3,42,58,0
3,42,16,4
3,42,31,0
3,42,21,0
3,42,55,92
3,42,17,2
3,42,34,2
3,42,21,94
3,42,55,0
3,42,11,2
3,42,34,0
3,42,21,92
3,42,58,0
3,42,16,4
3,42,31,0
3,42,21,0
3,42,55,92
3,42,17,2
3,42,34,2
3,42,21,94
3,42,55,0
3,42,11,2
3,42,34,0
3,42,21,92
3,42,58,0
3,42,16,4
3,42,31,0
3,42,21,0
3,42,55,92
3,42,17,2
3,42,34,2
3,42,21,94
3,42,55,0
3,42,11,2
3,42,34,0
3,42,21,92
3,42,58,0
3,42,16,4
3,42,31,0
3,42,21,0
3,42,55,92
3,42,17,2
3,42,34,2
3,42,21,94
3,42,55,0
3,42,11,2
3,42,34,0
3,42,58,92
3,42,37,4
3,46,26,0
3,42,1,92
3,46,61,0
3,42,55,0
3,42,17,2
3,42,34,2
3,42,21,94
3,42,55,0
3,42,11,2
3,42,34,0
3,42,21,92
3,42,58,0
3,42,16,4
3,42,31,0
3,42,21,0
3,42,55,92
3,42,17,2
3,42,34,2
3,42,21,94
3,42,55,0
3,42,11,2
3,42,34,0
3,42,21,92
3,42,58,0
3,42,16,4
3,42,31,0
3,42,21,0
3,42,55,92
3,42,17,2
3,42,34,2
3,42,21,94
3,42,55,0
3,42,11,2
3,42,34,0
3,42,21,92
3,42,58,0
3,42,16,4
3,42,31,0
3,42,21,0
3,42,55,92
3,42,17,2
3,42,34,2
3,42,21,94
3,42,55,0
3,42,11,2
3,42,34,0
3,42,21,92
3,42,58,0
3,42,16,4
3,42,31,0
3,42,21,0
3,42,55,92
3,42,17,2
3,42,34,2
3,42,21,94
3,42,55,0
3,42,11,2
3,42,34,0
3,42,21,92
3,42,58,0
3,42,16,4
3,42,31,0
3,42,21,0
3,42,55,92
3,42,17,2
3,42,34,2
3,42,21,94
3,42,55,0
3,42,11,2
3,42,34,0
3,42,21,92
3,42,58,0
3,42,16,4
3,42,31,0
3,42,21,0
3,42,55,92
3,42,17,2
3,42,34,2
3,42,21,94
3,42,55,0
3,42,11,2
3,42,34,0
3,42,21,92
3,42,58,0
3,42,16,4
3,42,31,0
3,42,21,0
3,42,55,92
3,42,17,2
3,42,34,2
3,42,21,94
3,42,55,0
3,42,11,2
3,42,34,0
3,42,21,92
3,42,58,0
3,42,16,4
3,42,31,0
3,42,21,0
3,42,55,92
3,42,17,2
3,42,34,2
3,42,21,94
3,42,55,0
3,42,11,2
3,42,34,0
3,42,21,92
3,42,58,0
3,42,16,4
3,42,31,0
3,42,21,0
3,42,55,92
3,42,17,2
3,42,34,2
3,42,21,94
3,42,55,0
3,42,11,2
3,42,34,0
3,42,21,92
3,42,58,0
3,42,16,4
3,42,31,0
3,42,21,0
3,42,55,92
3,42,17,2
3,42,34,2
3,42,21,94
3,42,55,0
3,42,11,2
3,42,34,0
3,42,21,92
3,42,58,0
3,42,16,4
3,42,31,0
3,42,21,0
3,42,55,92
3,42,17,2
3,42,34,2
3,42,21,94
3,42,55,0
3,42,11,2
3,42,34,0
3,42,21,92
3,42,58,0
3,42,16,4
3,42,31,0
3,42,21,0
3,42,55,92
3,42,17,2
3,42,34,2
3,42,21,94
3,42,55,0
3,42,11,2
3,42,34,0
3,42,21,92
3,42,58,0
3,42,16,4
3,42,31,0
3,42,21,0
3,42,55,92
3,42,17,2
3,42,34,2
3,42,21,94
3,42,55,0
3,42,11,2
3,42,34,0
3,42,21,92
3,42,58,0
3,42,16,4
3,42,31,0
3,42,21,0
3,42,55,92
3,42,17,2
3,42,34,2
3,42,21,94
3,42,55,0
3,42,11,2
3,42,34,0
3,42,21,92
3,42,58,0
3,42,16,4
3,42,31,0
3,42,21,0
3,42,55,92
3,42,17,2
3,42,34,2
3,42,21,94
3,42,55,0
3,42,11,2
3,42,34,0
3,42,21,92
3,42,58,0
3,42,16,4
3,42,31,0
3,42,21,0
3,42,55,92
3,42,55,290
3,42,55,670
3,42,58,672
3,42,55,674
3,42,55,670
3,42,58,672
3,42,55,674
3,42,55,670
3,42,58,672
3,42,55,674
3,42,55,670
3,42,58,672
3,42,55,674
3,42,55,670
3,42,49,672
3,42,17,484
3,42,23,28
3,42,58,416
3,42,16,4
3,42,31,0
3,42,21,0
3,42,55,92
3,42,17,2
3,42,34,2
3,42,21,94
3,42,55,0
3,42,11,2
3,42,34,0
3,42,21,92
3,42,58,0
3,42,16,4
3,42,31,0
3,42,21,0
3,42,55,92
3,42,17,2
3,42,34,2
3,42,21,94
3,42,55,0
3,42,11,2
3,42,34,0
3,42,21,92
3,42,58,0
3,42,16,4
3,42,31,0
3,42,21,0
3,42,55,92
3,42,17,2
3,42,34,2
3,42,21,94
3,42,55,0
3,42,11,2
3,42,34,0
3,42,21,92
3,42,58,0
3,42,16,4
3,42,31,0
3,42,21,0
3,42,55,92
3,42,17,2
3,42,34,2
3,42,21,94
3,42,55,0
3,42,11,2
3,42,34,0
3,42,21,92
3,42,58,0
3,42,16,4
3,42,31,0
3,42,21,0
3,42,55,92
3,42,17,2
3,42,34,2
3,42,21,94
3,42,55,0
3,42,11,2
3,42,34,0
3,42,21,92
3,42,58,0
3,42,16,4
3,42,31,0
3,42,21,0
3,42,55,92
3,42,17,2
3,42,34,2
3,42,21,94
3,42,55,0
3,42,11,2
3,42,34,0
3,42,21,92
3,42,58,0
3,42,16,4
3,42,31,0
3,42,21,0
3,42,55,92
3,42,17,2
3,42,34,2
3,42,21,94
3,42,55,0
3,42,11,2
3,42,34,0
3,42,21,92
3,42,58,0
3,42,16,4
3,42,31,0
3,42,21,0
3,42,55,92
3,42,17,2
3,42,34,2
3,42,21,94
3,42,55,0
3,42,11,2
3,42,34,0
3,42,21,92
3,42,58,0
3,42,16,4
3,42,31,0
3,42,21,0
3,42,55,92
3,42,17,2
3,42,34,2
3,42,21,94
3,42,55,0
3,42,11,2
3,42,34,0
3,42,21,92
3,42,58,0
3,42,16,4
3,42,31,0
3,42,21,0
3,42,55,92
3,42,17,2
3,42,34,2
3,42,21,94
3,42,55,0
3,42,11,2
3,42,34,0
3,42,21,92
3,42,58,0
3,46,29,4
3,46,49,0
3,44,21,0
3,46,34,286
3,44,55,0
3,42,11,2
3,42,34,0
3,42,21,92
3,42,58,0
3,42,16,4
3,42,31,0
3,42,21,0
3,42,55,92
3,42,17,2
3,42,34,2
3,42,21,94
3,42,55,0
3,42,11,2
3,42,34,0
3,42,21,92
3,42,58,0
3,42,16,4
3,42,31,0
3,42,21,0
3,42,55,92
3,42,17,2
3,42,34,2
3,42,21,94
3,42,55,0
3,42,11,2
3,42,34,0
3,42,21,92
3,42,58,0
3,42,16,4
3,42,31,0
3,42,21,0
3,42,55,92
3,42,17,2
3,42,34,2
3,42,21,94
3,42,55,0
3,42,11,2
3,42,34,0
3,42,21,92
3,42,58,0
3,42,16,4
3,42,31,0
3,42,21,0
3,42,55,92
3,42,17,2
3,42,34,2
3,42,21,94
3,42,55,0
3,42,11,2
3,42,34,0
3,42,21,92
3,42,58,0
3,42,16,4
3,42,31,0
3,42,21,0
3,42,55,92
3,42,17,2
3,42,34,2
3,42,21,94
3,42,55,0
3,42,11,2
3,46,34,0
3,46,21,92
3,42,58,0
3,42,16,4
3,42,31,0
3,42,21,0
3,42,55,92
3,42,17,2
3,42,34,2
3,42,21,94
3,42,55,0
3,42,11,2
3,42,34,0
3,42,21,92
3,42,58,0
3,42,16,4
3,42,31,0
3,42,21,0
3,42,55,92
3,42,17,2
3,42,34,2
