track,note,velocity,time
2,24,100,2186
2,26,100,20
2,27,100,36
2,34,100,0
2,41,91,0
2,43,91,48
2,41,100,46
2,34,109,188
2,41,109,4
2,34,109,3064
2,33,109,12
2,31,109,22
2,30,109,14
2,29,100,2
2,28,100,48
2,27,109,0
2,27,100,26
2,26,91,22
2,33,100,12
2,26,95,0
2,31,100,2
2,38,109,4
2,36,109,4
2,31,100,288
2,27,91,6
2,29,100,0
2,29,91,18
2,34,109,6
2,36,109,4
2,38,109,48
2,38,91,28
2,30,100,48
2,31,109,6
2,33,109,12
2,35,91,0
2,36,109,0
2,36,109,36
2,33,91,0
2,35,109,48
2,38,109,34
2,40,109,2
2,28,100,2
2,35,109,10
2,33,109,12
2,36,100,30
2,38,100,4
2,26,109,48
2,28,109,50
2,30,91,48
2,31,100,0
2,33,109,56
2,35,91,2
2,36,100,0
2,38,100,0
2,40,100,48
2,42,100,42
2,30,109,92
2,31,109,10
2,38,91,10
2,35,91,8
2,36,101,48
2,36,91,36
2,35,109,6
2,28,109,288
2,28,95,22
2,35,109,288
2,33,109,6
2,33,109,52
2,26,109,18
2,26,109,30
2,31,109,36
2,31,109,12
2,29,109,32
2,29,100,6
2,29,109,8
2,29,100,16
2,34,109,28
2,38,109,22
2,39,100,10
2,39,109,36
2,34,100,2
2,38,109,48
2,29,100,30
2,31,100,0
2,31,109,12
2,38,109,2
2,36,109,0
2,29,109,336
2,29,109,18
2,36,109,24
2,29,109,0
2,34,109,0
2,34,109,38
2,34,100,6
2,34,109,12
2,34,109,10
2,34,109,14
2,26,100,2
2,27,109,18
2,27,100,16
2,26,109,10
2,29,100,52
2,31,100,48
2,31,109,14
2,33,109,10
2,34,109,10
2,31,100,6
2,36,100,2
2,26,109,288
2,27,109,38
2,29,100,4
2,29,109,24
2,34,100,48
2,34,100,8
2,34,100,48
2,32,109,384
2,31,109,26
2,31,100,24
2,31,109,38
2,35,109,8
2,36,109,16
2,35,109,30
2,31,109,14
2,36,91,48
2,36,109,12
2,36,100,20
2,41,91,2
2,29,109,192
2,34,109,8
2,33,109,12
2,31,109,22
2,30,109,14
2,29,100,2
2,28,100,48
2,27,105,0
2,27,105,26
2,26,101,22
2,33,100,12
2,26,95,0
2,31,100,2
2,38,109,4
2,36,109,4
2,31,100,288
2,27,91,6
2,29,100,0
2,29,91,18
2,34,109,6
2,36,109,4
2,38,109,48
2,38,91,28
2,30,100,48
2,31,109,6
2,33,109,12
2,35,91,0
2,36,109,0
2,36,109,36
2,33,91,0
2,35,109,48
2,38,109,34
2,40,109,2
2,28,100,2
2,35,109,10
2,33,109,12
2,36,100,30
2,38,100,4
2,26,109,48
2,28,109,50
2,30,91,48
2,31,100,0
2,33,109,56
2,35,91,2
2,36,100,0
2,38,100,0
2,40,100,48
2,42,100,42
2,30,109,92
2,31,109,10
2,38,101,10
2,35,101,0
2,36,101,6
2,36,91,36
2,35,109,6
2,28,109,288
2,28,95,22
2,35,109,288
2,33,109,6
2,33,109,52
2,26,109,18
2,26,109,30
2,31,109,36
2,31,109,12
2,29,109,32
2,29,100,6
2,29,109,8
2,29,100,16
2,34,109,28
2,38,109,22
2,39,100,10
2,39,109,22
2,34,100,2
2,38,109,48
2,29,100,30
2,31,100,0
2,31,109,12
2,38,109,2
2,36,109,0
2,29,109,336
2,29,109,18
2,36,109,24
2,29,109,0
2,34,109,0
2,34,109,38
2,34,100,6
2,34,109,12
2,34,109,10
2,34,109,14
2,26,100,2
2,27,109,18
2,27,100,16
2,26,109,10
2,29,100,52
2,31,100,48
2,31,109,14
2,33,109,10
2,34,109,10
2,31,100,6
2,36,100,2
2,36,100,22
2,29,109,48
2,36,109,36
2,39,91,44
2,38,109,44
2,38,109,10
2,38,109,6
2,27,109,4
2,27,109,20
2,27,109,18
2,27,109,18
2,26,109,28
2,33,109,6
2,31,109,8
2,29,109,10
2,27,109,12
2,27,109,42
2,27,109,24
2,39,109,96
2,41,82,32
2,39,109,40
2,34,109,86
2,36,100,42
2,26,109,44
2,26,109,52
2,33,109,48
2,31,109,46
2,29,109,4
2,27,109,192
2,41,91,94
2,39,100,0
2,39,109,82
2,36,100,42
2,34,100,28
2,27,100,48
2,27,25,10
2,27,109,6
2,26,109,20
2,29,109,10
2,26,109,8
2,33,100,48
2,29,100,10
2,31,109,48
2,31,109,26
2,34,109,20
2,36,109,0
2,31,109,10
2,36,109,48
2,36,82,12
2,38,109,12
2,26,109,96
2,38,109,0
2,39,109,2
2,27,100,96
2,39,91,12
2,39,100,6
2,39,100,12
2,41,109,6
2,41,109,12
2,41,109,12
2,41,109,38
2,43,100,8
2,41,109,48
2,36,100,10
2,38,100,48
2,39,100,4
2,36,100,48
2,34,100,10
2,31,91,4
2,29,91,48
2,34,109,4
2,38,109,24
2,39,109,22
2,39,109,44
2,36,100,0
2,38,109,48
2,38,109,64
2,29,109,48
2,31,100,40
2,31,109,10
2,31,109,38
2,34,109,4
2,36,109,8
2,36,91,46
2,31,109,48
2,36,100,2
2,29,109,48
2,29,109,36
2,34,109,20
2,34,109,16
2,34,109,38
2,34,109,48
2,34,101,22
2,34,105,48
2,34,109,14
2,34,100,12
2,29,109,22
2,31,100,8
2,34,109,4
2,26,109,192
2,27,109,10
2,27,109,54
2,26,105,38
2,26,109,30
2,33,109,8
2,29,100,6
2,31,105,2
2,31,100,22
2,34,109,56
2,38,109,2
2,36,109,4
2,36,100,52
2,26,109,48
2,27,100,38
2,29,101,6
2,29,109,62
2,31,109,10
2,33,100,2
2,34,109,14
2,34,109,30
2,36,100,96
2,38,109,6
2,39,109,14
2,41,100,10
2,43,100,48
2,45,109,8
2,33,109,2
2,34,109,0
2,34,109,16
2,27,109,192
2,27,109,20
2,26,109,44
2,26,100,28
2,29,109,4
2,33,100,4
2,31,100,48
2,31,109,42
2,34,100,10
2,36,109,4
2,36,101,48
2,31,100,48
2,24,100,6
2,31,100,48
2,29,100,14
2,36,100,8
2,34,91,0
2,34,100,12
2,31,95,4
2,29,95,0
2,34,95,48
2,34,101,10
2,34,95,12
2,34,100,12
2,34,91,8
2,34,91,10
2,34,100,8
2,34,100,10
2,34,100,12
2,34,100,12
2,34,91,10
2,34,100,12
2,34,109,14
2,26,100,2
2,27,109,18
2,27,100,16
2,26,109,10
2,29,100,52
2,31,100,48
2,31,109,14
2,33,109,10
2,34,109,10
2,31,100,6
2,36,100,2
2,26,109,288
2,27,109,38
2,29,100,4
2,34,109,2
2,27,109,0
2,26,109,384
2,31,109,376
2,36,100,0
2,29,109,6
2,34,109,384
3,58,98,646
3,46,116,0
3,53,85,48
3,60,77,48
3,62,85,48
3,63,89,14
3,51,107,0
3,58,73,30
3,65,81,48
3,67,89,0
3,50,107,26
3,65,98,0
3,60,89,8
3,62,65,48
3,67,81,48
3,43,98,96
3,62,81,0
3,58,81,26
3,55,81,48
3,60,89,4
3,48,116,0
3,55,81,48
3,65,98,0
3,50,116,0
3,62,77,32
3,60,81,48
3,58,85,48
3,51,107,2
3,46,98,48
3,53,98,48
3,55,98,26
3,53,107,0
3,60,85,0
3,46,98,0
3,58,89,0
3,60,89,8
3,53,89,0
3,41,107,0
3,46,118,3068
3,45,118,12
3,43,118,22
3,42,118,14
3,41,109,2
3,40,109,48
3,39,118,0
3,39,109,26
3,71,107,2326
3,43,89,0
3,67,116,0
3,62,107,0
3,55,107,192
3,62,116,48
3,66,116,8
3,69,107,0
3,48,98,0
3,62,107,0
3,60,107,18
3,64,116,0
3,67,116,0
3,47,98,8
3,62,116,0
3,66,116,0
3,59,73,144
3,69,107,36
3,76,116,0
3,71,116,0
3,74,107,96
3,76,107,44
3,52,98,0
3,74,107,0
3,67,107,0
3,71,107,0
3,64,107,0
3,66,107,18
3,69,98,0
3,71,107,0
3,67,89,0
3,45,98,0
3,64,98,0
3,72,98,0
3,57,116,190
3,72,107,64
3,50,98,8
3,60,116,0
3,64,116,0
3,67,116,0
3,66,125,26
3,62,116,0
3,69,107,0
3,66,107,8
3,69,116,0
3,62,98,0
3,43,98,0
3,62,107,12
3,71,116,0
3,67,107,0
3,55,98,84
3,71,107,10
3,62,107,0
3,67,107,0
3,55,98,14
3,67,107,18
3,72,107,0
3,43,107,0
3,64,107,44
3,67,107,24
3,43,89,10
3,72,116,0
3,66,116,10
3,74,107,0
3,69,98,0
3,62,98,22
3,74,116,48
3,43,85,2
3,62,98,0
3,74,116,0
3,67,116,0
3,71,116,0
3,55,98,14
3,67,116,0
3,74,107,0
3,71,107,0
3,62,107,96
3,74,107,0
3,48,107,4
3,62,116,0
3,66,116,0
3,69,107,0
3,60,107,24
3,67,116,0
3,64,107,0
3,47,89,8
3,66,116,0
3,59,107,0
3,62,107,0
3,69,107,44
3,76,107,0
3,71,116,0
3,74,116,96
3,76,107,42
3,71,116,0
3,67,107,0
3,76,98,0
3,52,89,0
3,40,107,96
3,67,116,28
3,64,107,0
3,71,116,0
3,40,107,12
3,60,107,4
3,45,98,0
3,67,116,0
3,64,116,0
3,67,116,30
3,64,116,0
3,72,116,0
3,60,116,46
3,67,98,30
3,50,107,0
3,64,116,0
3,60,107,0
3,67,107,0
3,38,116,144
3,66,107,2
3,69,107,0
3,62,116,0
3,38,98,24
3,50,107,6
3,43,98,22
3,64,107,0
3,67,98,0
3,60,107,0
3,59,98,12
3,62,116,0
3,67,107,0
3,55,98,18
3,67,98,0
3,62,107,0
3,59,116,0
3,41,107,22
3,58,116,0
3,65,116,0
3,63,107,0
3,53,89,96
3,41,107,18
3,60,116,14
3,65,116,0
3,57,107,0
3,57,116,10
3,60,98,0
3,65,107,0
3,53,85,10
3,46,107,4
3,62,107,0
3,70,116,0
3,65,116,0
3,70,116,20
3,62,98,0
3,65,116,0
3,46,116,14
3,62,107,0
3,51,98,12
3,72,116,0
3,69,116,0
3,65,116,0
3,63,116,24
3,70,98,0
3,67,107,0
3,51,116,30
3,62,107,48
3,50,107,14
3,65,125,0
3,69,107,0
3,62,89,0
3,72,116,24
3,69,116,0
3,65,107,0
3,70,98,10
3,72,116,48
3,43,98,6
3,67,116,0
3,70,116,0
3,62,107,0
3,55,98,96
3,72,98,48
3,62,107,40
3,74,125,14
3,55,98,4
3,48,89,6
3,75,105,0
3,70,116,0
3,67,107,0
3,60,116,192
3,67,116,40
3,75,116,26
3,70,107,0
3,48,89,2
3,74,116,10
3,53,98,0
3,65,89,0
3,70,107,0
3,41,98,144
3,63,116,10
3,70,107,0
3,67,116,0
3,53,98,24
3,53,107,6
3,69,116,2
3,46,98,0
3,72,116,0
3,65,107,0
3,70,107,12
3,74,116,0
3,65,107,0
3,70,116,26
3,74,116,0
3,65,98,0
3,46,107,16
3,65,50,16
3,46,116,12
3,75,116,0
3,70,116,0
3,67,107,48
3,70,116,4
3,46,98,6
3,75,89,0
3,46,116,6
3,77,116,0
3,72,98,0
3,69,107,48
3,72,116,30
3,46,89,2
3,77,107,0
3,46,98,20
3,65,116,0
3,70,116,0
3,74,116,0
3,58,107,190
3,65,107,42
3,70,116,28
3,74,116,0
3,46,89,22
3,72,98,0
3,65,98,0
3,69,116,0
3,51,107,0
3,70,107,8
3,63,107,0
3,67,116,0
3,51,116,22
3,62,98,48
3,50,98,18
3,69,116,0
3,65,125,0
3,62,98,0
3,62,116,44
3,72,116,14
3,65,107,0
3,43,98,4
3,70,116,0
3,67,116,0
3,62,107,0
3,55,116,192
3,62,98,16
3,72,125,46
3,74,116,96
3,55,98,24
3,48,89,12
3,75,116,0
3,67,107,0
3,70,116,0
3,60,89,192
3,65,89,22
3,53,89,6
3,70,116,0
3,74,116,0
3,65,81,28
3,41,81,14
3,69,116,0
3,72,107,0
3,71,107,7680
3,43,89,0
3,67,116,0
3,62,107,0
3,55,107,192
3,62,116,48
3,66,116,8
3,69,107,0
3,48,98,0
3,62,107,0
3,60,107,18
3,64,116,0
3,67,116,0
3,47,98,8
3,62,116,0
3,66,116,0
3,59,73,144
3,69,107,36
3,76,116,0
3,71,116,0
3,74,107,96
3,76,107,44
3,52,98,0
3,74,107,0
3,67,107,0
3,71,107,0
3,64,107,0
3,66,107,18
3,69,98,0
3,71,107,0
3,67,89,0
3,45,98,0
3,64,98,0
3,72,98,0
3,57,116,190
3,72,107,64
3,50,98,8
3,60,116,0
3,64,116,0
3,67,116,0
3,66,125,26
3,62,116,0
3,69,107,0
3,66,107,8
3,69,116,0
3,62,98,0
3,43,98,0
3,62,107,12
3,71,116,0
3,67,107,0
3,55,98,84
3,71,107,10
3,62,107,0
3,67,107,0
3,55,98,14
3,67,107,18
3,72,107,0
3,43,107,0
3,64,107,44
3,67,107,24
3,43,89,10
3,72,116,0
3,66,116,10
3,74,107,0
3,69,98,0
3,62,98,22
3,74,116,48
3,43,85,2
3,62,98,0
3,74,116,0
3,67,116,0
3,71,116,0
3,55,98,14
3,67,116,0
3,74,107,0
3,71,107,0
3,62,107,96
3,74,107,0
3,48,107,4
3,62,116,0
3,66,116,0
3,69,107,0
3,60,107,24
3,67,116,0
3,64,107,0
3,47,89,8
3,66,116,0
3,59,107,0
3,62,107,0
3,69,107,44
3,76,107,0
3,71,116,0
3,74,116,96
3,76,107,42
3,71,116,0
3,67,107,0
3,76,98,0
3,52,89,0
3,40,107,96
3,67,116,28
3,64,107,0
3,71,116,0
3,40,107,12
3,60,107,4
3,45,98,0
3,67,116,0
3,64,116,0
3,67,116,30
3,64,116,0
3,72,116,0
3,60,116,46
3,67,98,30
3,50,107,0
3,64,116,0
3,60,107,0
3,67,107,0
3,38,116,144
3,66,107,2
3,69,107,0
3,62,116,0
3,38,98,24
3,50,107,6
3,43,98,22
3,64,107,0
3,67,98,0
3,60,107,0
3,59,98,12
3,62,116,0
3,67,107,0
3,55,98,18
3,67,98,0
3,62,107,0
3,59,116,0
3,41,107,22
3,58,116,0
3,65,116,0
3,63,107,0
3,53,89,96
3,41,107,18
3,60,116,14
3,65,116,0
3,57,107,0
3,57,116,10
3,60,98,0
3,65,107,0
3,53,85,10
3,46,107,4
3,62,107,0
3,70,116,0
3,65,116,0
3,70,116,20
3,62,98,0
3,65,116,0
3,46,116,14
3,62,107,0
3,51,98,12
3,72,116,0
3,69,116,0
3,65,116,0
3,63,116,24
3,70,98,0
3,67,107,0
3,51,116,30
3,62,107,48
3,50,107,14
3,65,125,0
3,69,107,0
3,62,89,0
3,72,116,24
3,69,116,0
3,65,107,0
3,70,98,10
3,72,116,48
3,43,98,6
3,67,116,0
3,70,116,0
3,62,107,0
3,55,98,96
3,72,98,48
3,62,107,40
3,74,125,14
3,55,98,4
3,48,89,6
3,75,105,0
3,70,116,0
3,67,107,0
3,60,116,192
3,67,116,40
3,75,116,26
3,70,107,0
3,48,89,2
3,74,116,10
3,53,98,0
3,65,89,0
3,70,107,0
3,41,98,144
3,63,116,10
3,70,107,0
3,67,116,0
3,53,98,24
3,53,107,6
3,69,116,2
3,46,98,0
3,72,116,0
3,65,107,0
3,70,107,12
3,74,116,0
3,65,107,0
3,70,116,26
3,74,116,0
3,65,98,0
3,46,107,16
3,65,50,16
3,46,116,12
3,75,116,0
3,70,116,0
3,67,107,48
3,70,116,4
3,46,98,6
3,75,89,0
3,46,116,6
3,77,116,0
3,72,98,0
3,69,107,48
3,72,116,30
3,46,89,2
3,77,107,0
3,46,98,20
3,65,116,0
3,70,116,0
3,74,116,0
3,58,107,190
3,65,107,42
3,70,116,28
3,74,116,0
3,46,89,22
3,72,98,0
3,65,98,0
3,69,116,0
3,51,107,0
3,70,107,8
3,63,107,0
3,67,116,0
3,51,116,22
3,62,98,48
3,50,98,18
3,69,116,0
3,65,125,0
3,62,98,0
3,62,116,46
3,72,116,14
3,65,107,0
3,43,98,4
3,70,116,0
3,67,116,0
3,62,107,0
3,55,116,192
3,62,98,16
3,72,125,46
3,74,116,96
3,55,98,24
3,70,116,12
3,75,107,0
3,67,98,0
3,51,89,0
3,67,125,38
3,70,107,30
3,75,116,40
3,50,85,18
3,74,116,0
