track,note,velocity,time
0,55,84,2492
0,51,54,0
0,52,82,0
0,48,80,0
0,36,54,0
0,35,56,0
0,69,14,180
0,44,36,180
0,69,30,0
0,69,22,180
0,64,70,0
0,37,54,0
0,67,108,0
0,69,28,0
0,64,74,0
0,69,30,0
0,35,52,0
0,60,84,0
0,44,52,0
0,69,17,180
0,31,56,0
0,53,84,0
0,57,86,0
0,48,74,0
0,69,88,0
0,36,58,0
0,35,54,0
0,69,24,180
0,69,30,180
0,44,42,0
0,65,80,0
0,69,24,0
0,67,86,0
0,37,56,0
0,55,66,0
0,69,25,0
0,69,92,0
0,62,90,180
0,51,44,0
0,44,46,0
0,69,27,0
0,31,46,124
0,60,76,0
0,69,24,0
0,51,46,0
0,48,70,0
0,35,52,0
0,52,74,0
0,36,56,0
0,67,74,0
0,55,84,0
0,69,17,180
0,44,36,180
0,69,22,0
0,64,84,180
0,69,26,0
0,67,100,0
0,37,64,0
0,64,82,0
0,69,32,0
0,60,82,0
0,69,25,0
0,35,58,0
0,44,46,0
0,31,58,124
0,69,30,0
0,57,78,0
0,36,64,0
0,65,88,0
0,35,54,0
0,48,72,0
0,53,76,0
0,69,34,172
0,44,52,12
0,69,20,0
0,67,80,0
0,69,25,0
0,65,84,0
0,37,62,0
0,69,27,0
0,60,78,0
0,55,50,0
0,69,18,180
0,62,76,0
0,44,44,0
0,60,62,60
0,31,42,0
0,69,16,0
0,36,60,0
0,42,44,0
0,55,78,0
0,48,78,0
0,35,52,0
0,55,66,0
0,52,78,0
0,69,27,168
0,69,42,180
0,42,29,0
0,69,10,180
0,60,78,0
0,37,56,0
0,64,86,0
0,42,44,0
0,69,25,0
0,67,100,0
0,69,34,12
0,42,39,0
0,67,100,0
0,36,52,0
0,64,80,0
0,69,30,0
0,35,50,0
0,64,78,12
0,67,84,0
0,60,72,0
0,35,54,0
0,42,42,0
0,34,76,0
0,46,82,0
0,60,70,0
0,69,25,160
0,42,40,12
0,69,32,0
0,55,49,0
0,67,104,0
0,69,25,180
0,67,74,12
0,37,56,0
0,54,68,0
0,42,56,0
0,67,74,0
0,69,25,0
0,69,34,0
0,69,86,0
0,55,41,0
0,42,38,0
0,34,68,0
0,64,84,0
0,69,34,0
0,35,44,12
0,62,54,0
0,33,58,0
0,42,48,0
0,45,86,0
0,57,47,52
0,69,30,0
0,69,23,180
0,42,38,0
0,62,62,0
0,62,84,0
0,57,76,0
0,69,72,180
0,69,19,0
0,37,62,0
0,42,54,0
0,57,40,0
0,62,58,180
0,69,26,0
0,42,36,0
0,64,74,0
0,69,26,0
0,70,70,40
0,35,44,0
0,57,60,0
0,69,34,0
0,69,84,0
0,61,76,0
0,35,62,0
0,45,64,0
0,61,84,0
0,45,84,0
0,42,56,0
0,57,56,148
0,69,32,0
0,69,32,0
0,64,70,0
0,67,80,0
0,42,34,0
0,69,42,164
0,69,90,0
0,37,72,0
0,37,60,0
0,57,82,0
0,54,62,0
0,57,50,0
0,65,82,0
0,42,42,0
0,61,58,176
0,69,32,0
0,69,40,0
0,42,37,0
0,64,86,0
0,64,76,0
0,57,52,0
0,69,32,0
0,46,24,0
0,38,56,0
0,50,84,0
0,42,44,0
0,57,84,0
0,35,52,0
0,65,74,0
0,65,100,0
0,57,44,124
0,69,27,0
0,42,29,0
0,69,42,0
0,62,74,0
0,62,84,0
0,69,10,180
0,69,82,0
0,57,54,100
0,37,56,0
0,42,44,0
0,69,25,80
0,62,70,0
0,65,66,12
0,42,39,0
0,38,64,0
0,50,78,0
0,69,34,0
0,69,30,136
0,57,40,0
0,35,50,0
0,42,42,12
0,49,74,0
0,35,54,0
0,37,54,0
0,64,68,0
0,69,25,152
0,57,56,0
0,42,40,160
0,64,70,0
0,69,32,0
0,69,66,8
0,69,25,0
0,42,56,48
0,54,68,0
0,57,41,0
0,37,56,0
0,64,92,0
0,69,25,180
0,64,64,0
0,69,68,8
0,37,62,0
0,67,86,0
0,42,38,0
0,69,34,0
0,57,41,4
0,65,84,0
0,69,34,0
0,35,44,12
0,42,48,0
0,36,50,0
0,50,84,0
0,65,72,0
0,57,36,156
0,69,30,0
0,62,74,52
0,69,23,0
0,42,38,0
0,69,19,180
0,69,90,0
0,37,62,12
0,57,80,0
0,57,52,0
0,42,54,0
0,62,72,104
0,69,26,0
0,42,36,12
0,36,54,0
0,50,84,0
0,69,26,0
0,65,70,0
0,57,56,116
0,35,44,0
0,69,34,0
0,35,54,0
0,67,108,0
0,42,56,0
0,35,62,0
0,59,74,0
0,55,84,0
0,67,74,0
0,55,76,180
0,69,32,0
0,65,96,0
0,69,32,0
0,42,34,0
0,62,70,0
0,55,62,132
0,69,42,0
0,31,54,0
0,54,62,0
0,37,60,0
0,64,86,0
0,42,42,0
0,62,68,0
0,55,68,0
0,69,32,0
0,69,40,0
0,62,92,0
0,42,37,0
0,59,66,0
0,62,66,4
0,69,32,0
0,46,24,0
0,64,88,0
0,36,60,12
0,42,44,0
0,48,72,0
0,55,76,0
0,64,76,0
0,64,58,0
0,35,52,0
0,69,27,128
0,55,66,0
0,60,62,56
0,69,42,0
0,42,29,0
0,67,90,60
0,69,10,0
0,35,64,0
0,55,84,0
0,42,44,0
0,62,66,0
0,47,86,0
0,62,66,0
0,37,56,0
0,67,68,0
0,67,96,0
0,69,25,32
0,55,70,0
0,42,39,180
0,69,34,0
0,62,68,0
0,69,30,0
0,67,78,0
0,35,50,0
0,72,96,0
0,42,42,0
0,52,76,0
0,35,54,0
0,45,70,0
0,72,80,0
0,33,52,0
0,64,64,0
0,60,70,0
0,55,62,64
0,69,25,0
0,42,40,172
0,60,32,0
0,69,32,0
0,60,72,148
0,69,25,0
0,59,66,12
0,37,56,0
0,55,82,0
0,71,64,0
0,43,64,0
0,42,56,0
0,67,68,0
0,54,68,0
0,60,56,12
0,69,25,0
0,69,34,0
0,57,64,0
0,76,96,0
0,42,38,0
0,69,34,12
0,76,108,0
0,55,54,0
0,35,44,12
0,53,74,0
0,57,84,0
0,69,62,0
0,64,48,0
0,41,66,0
0,64,72,0
0,42,48,0
0,69,30,180
0,53,60,0
0,57,49,0
0,69,86,0
0,42,38,0
0,69,23,0
0,69,19,180
0,60,76,0
0,42,54,104
0,53,41,0
0,37,62,0
0,53,64,16
0,69,26,0
0,48,74,12
0,42,36,0
0,69,26,0
0,36,50,0
0,57,74,0
0,69,34,112
0,35,44,0
0,53,64,0
0,67,60,0
0,71,60,0
0,62,60,0
0,53,76,0
0,62,86,0
0,42,56,0
0,43,64,0
0,43,72,0
0,35,62,0
0,69,32,148
0,53,47,0
0,55,56,180
0,69,32,0
0,42,34,0
0,59,74,180
0,69,42,0
0,37,60,0
0,42,42,0
0,54,62,0
0,31,56,0
0,71,86,0
0,59,66,0
0,72,100,0
0,69,32,0
0,42,37,0
0,55,62,0
0,74,100,0
0,41,66,0
0,69,40,0
0,69,32,8
0,53,41,0
0,46,24,0
0,52,70,12
0,55,76,0
0,35,52,0
0,74,100,0
0,42,44,0
0,40,66,0
0,52,70,0
0,59,66,0
0,69,27,168
0,67,80,0
0,69,42,0
0,55,64,0
0,42,29,0
0,59,68,148
0,69,10,0
0,52,52,180
0,37,56,0
0,42,44,0
0,69,25,44
0,55,32,0
0,62,90,0
0,42,39,12
0,52,37,0
0,69,34,0
0,59,76,0
0,40,66,0
0,69,30,4
0,35,50,0
0,55,80,0
0,64,44,0
0,42,42,0
0,40,66,0
0,35,54,0
0,72,66,0
0,60,74,0
0,69,25,180
0,69,32,12
0,42,40,0
0,52,76,0
0,69,25,180
0,57,82,12
0,42,56,0
0,33,56,0
0,60,76,0
0,37,56,0
0,67,76,0
0,54,68,0
0,69,25,172
0,42,38,180
0,69,34,0
0,69,34,180
0,35,44,0
0,38,66,0
0,50,88,0
0,42,48,0
0,65,96,0
0,65,60,0
0,69,30,180
0,42,38,12
0,64,86,0
0,69,23,0
0,69,19,12
0,65,100,0
0,42,54,180
0,37,62,0
0,69,26,180
0,38,60,12
0,69,26,0
0,42,36,0
0,67,86,0
0,35,44,180
0,69,34,0
0,69,76,12
0,69,56,0
0,35,62,0
0,43,82,0
0,53,82,0
0,42,56,0
0,43,62,0
0,60,64,0
0,69,32,100
0,69,32,12
0,42,34,0
0,67,86,0
0,69,42,12
0,67,68,12
0,37,60,0
0,42,42,0
0,62,68,0
0,76,88,0
0,31,62,0
0,54,62,0
0,55,86,0
0,74,82,12
0,69,32,0
0,42,37,12
0,72,104,0
0,69,40,0
0,72,96,12
0,69,32,0
0,46,24,0
0,42,48,12
0,64,64,0
0,55,86,0
0,48,84,0
0,52,86,0
0,35,44,0
0,36,56,0
0,69,30,156
0,69,23,180
0,42,38,0
0,55,56,0
0,69,19,180
0,60,74,0
0,37,62,12
0,42,54,0
0,48,88,0
0,69,26,180
0,67,94,0
0,42,36,12
0,60,11,0
0,69,26,0
0,50,84,0
0,36,60,0
0,69,34,12
0,55,50,0
0,35,44,0
0,62,58,0
0,66,68,0
0,62,66,0
0,62,78,0
0,57,62,0
0,66,74,0
0,69,76,0
0,69,68,0
0,42,56,0
0,52,86,0
0,35,62,0
0,40,68,0
0,57,74,12
0,69,32,0
0,42,34,180
0,62,74,0
0,69,32,0
0,69,42,180
0,69,102,0
0,64,64,0
0,68,80,0
0,71,68,0
0,42,42,0
0,54,62,0
0,64,80,0
0,40,75,0
0,28,54,0
0,68,60,0
0,68,74,0
0,59,58,0
0,64,50,180
0,47,75,0
0,69,32,0
0,45,75,4
0,52,84,0
0,69,40,0
0,42,37,0
0,59,58,0
0,43,75,48
0,69,32,0
0,64,76,4
0,73,56,0
0,69,64,0
0,61,58,0
0,33,58,0
0,35,64,0
0,61,80,0
0,57,86,0
0,51,48,0
0,49,75,0
0,69,30,180
0,57,54,0
0,51,49,180
0,69,37,0
0,59,90,76
0,69,30,0
0,69,11,180
0,69,84,0
0,51,49,0
0,40,75,0
0,54,75,0
0,45,64,12
0,69,30,0
0,69,100,0
0,61,68,0
0,40,56,12
0,69,37,0
0,51,49,0
0,69,100,0
0,57,52,0
0,35,45,4
0,33,42,0
0,52,50,0
0,69,30,0
0,35,64,0
0,76,56,0
0,51,49,0
0,68,82,0
0,50,82,0
0,71,62,0
0,38,76,0
0,62,62,0
0,64,94,0
0,64,88,0
0,59,86,0
0,52,46,136
0,69,30,0
0,51,50,12
0,68,92,0
0,69,41,0
0,69,30,180
0,59,76,0
0,40,75,0
0,38,58,0
0,57,84,0
0,62,84,0
0,54,75,0
0,66,84,0
0,69,18,0
0,51,50,0
0,52,52,40
0,69,30,0
0,66,86,12
0,57,66,0
0,35,60,0
0,51,50,0
0,69,48,0
0,69,30,0
0,38,60,0
0,59,72,0
0,64,88,0
0,35,64,0
0,51,50,0
0,75,32,0
0,37,60,0
0,61,66,0
0,49,78,0
0,64,94,0
0,52,45,176
0,69,30,0
0,56,88,180
0,69,48,0
0,51,50,0
0,56,52,180
0,69,30,0
0,40,75,0
0,51,51,0
0,69,15,0
0,54,75,0
0,59,84,0
0,69,30,28
0,59,72,0
0,69,48,0
0,56,82,0
0,37,64,0
0,51,51,0
0,35,45,8
0,52,43,0
0,69,30,0
0,40,64,0
0,51,51,0
0,35,64,0
0,57,76,0
0,54,74,0
0,69,62,0
0,57,74,0
0,42,62,0
0,69,30,8
0,52,64,0
0,69,45,0
0,35,64,0
0,51,51,0
0,57,76,0
0,57,70,0
0,61,94,180
0,69,30,0
0,51,51,0
0,30,72,0
0,59,84,0
0,52,88,0
0,69,15,0
0,54,75,0
0,68,68,0
0,42,86,0
0,52,41,0
0,40,75,0
0,69,30,180
0,61,70,0
0,64,90,0
0,51,52,0
0,69,45,0
0,47,75,0
0,52,48,132
0,45,75,0
0,69,30,0
0,51,48,0
0,62,36,0
0,35,64,0
0,57,84,0
0,62,86,0
0,35,64,0
0,66,52,0
0,62,57,0
0,54,74,0
0,49,75,0
0,47,78,0
0,59,54,0
0,52,42,180
0,69,30,0
0,54,64,180
0,51,49,0
0,69,37,0
0,57,74,0
0,64,68,0
0,69,30,0
0,54,75,0
0,69,11,0
0,40,75,0
0,74,108,0
0,51,49,0
0,52,62,72
0,69,30,0
0,74,104,12
0,69,37,0
0,51,49,0
0,54,66,0
0,35,62,0
0,35,45,180
0,52,64,0
0,69,30,0
0,73,88,8
0,57,86,0
0,57,78,0
0,52,82,0
0,51,49,0
0,35,64,0
0,40,62,0
0,62,88,0
0,52,60,124
0,69,30,0
0,73,104,12
0,51,50,0
0,57,64,0
0,69,41,0
0,69,30,0
0,62,94,0
0,40,75,12
0,69,96,0
0,51,50,0
0,54,75,0
0,28,68,0
0,69,18,0
0,69,30,180
0,52,64,0
0,35,60,12
0,57,64,0
0,51,50,0
0,69,84,0
0,69,48,0
0,69,30,20
0,52,62,0
0,51,50,12
0,64,64,0
0,71,78,0
0,33,66,0
0,61,54,0
0,35,64,0
0,57,86,0
0,59,72,0
0,61,76,0
0,52,54,12
0,73,104,0
0,69,30,0
0,51,50,180
0,69,48,0
0,59,68,0
0,69,30,4
0,64,90,0
0,71,86,0
0,52,52,12
0,57,56,0
0,69,15,0
0,40,75,0
0,54,75,0
0,69,86,0
0,51,51,0
0,45,72,84
0,69,30,0
0,69,48,12
0,61,74,0
0,40,64,0
0,51,51,0
0,52,68,0
0,52,47,104
0,69,30,0
0,37,54,0
0,35,45,0
0,62,68,0
0,51,51,0
0,62,90,0
0,66,66,0
0,57,86,0
0,50,68,0
0,38,66,0
0,66,82,0
0,50,92,0
0,40,75,0
0,57,75,0
0,57,64,0
0,52,60,180
0,69,30,0
0,51,51,180
0,69,45,0
0,35,64,0
0,54,76,0
0,40,48,104
0,57,76,0
0,69,30,0
0,51,51,0
0,68,82,0
0,40,75,0
0,59,78,0
0,52,72,0
0,56,78,0
0,64,88,0
0,69,15,0
0,68,62,0
0,52,44,0
0,49,75,0
0,54,75,0
0,59,64,0
0,40,72,0
0,57,66,148
0,40,75,0
0,69,30,0
0,51,52,124
0,47,75,0
0,69,45,0
0,59,82,0
0,69,30,4
0,52,74,0
0,45,75,0
0,32,64,0
0,61,94,12
0,61,74,0
0,52,75,0
0,35,64,0
0,69,66,0
0,64,92,0
0,51,48,0
0,57,86,0
0,33,64,0
0,61,62,0
0,69,30,148
0,52,49,0
0,69,37,36
0,57,72,0
0,51,49,0
0,64,62,12
0,64,74,0
0,69,30,0
0,69,104,12
0,51,49,0
0,45,64,0
0,40,75,0
0,54,75,0
0,52,34,0
0,69,11,0
0,69,30,180
0,57,74,0
0,57,24,0
0,69,82,12
0,51,49,0
0,69,37,0
0,61,74,0
0,40,64,0
0,35,45,16
0,69,30,0
0,52,41,0
0,33,44,0
0,35,64,12
0,38,72,0
0,51,49,0
0,59,82,0
0,64,74,0
0,68,92,0
0,50,84,0
0,59,80,0
0,64,46,0
0,69,30,168
0,52,66,0
0,69,41,12
0,56,76,0
0,51,50,0
0,68,104,0
0,69,30,16
0,64,94,0
0,52,60,0
0,66,86,0
0,54,75,0
0,69,18,0
0,62,84,0
0,51,50,0
0,71,66,0
0,68,54,0
0,57,84,0
0,40,75,0
0,52,58,108
0,69,30,0
0,59,72,4
0,35,60,0
0,69,48,0
0,38,60,0
0,66,96,0
0,51,50,0
0,52,39,180
0,69,30,0
0,35,64,0
0,37,66,0
0,51,50,0
0,76,80,0
0,49,60,0
0,57,76,0
0,61,54,0
0,59,74,0
0,64,88,0
0,56,74,0
0,69,30,168
0,52,54,0
0,57,70,172
0,51,50,0
0,69,48,0
0,69,30,0
0,61,52,0
0,69,15,0
0,40,75,0
0,51,51,0
0,59,66,0
0,54,75,0
0,71,86,0
0,37,72,0
0,69,30,180
0,69,96,0
0,42,68,0
0,57,74,0
0,69,48,0
0,51,51,0
0,69,30,84
0,35,45,0
0,35,64,0
0,54,80,0
0,69,62,0
0,54,60,0
0,51,51,0
0,69,30,180
0,52,62,0
0,57,76,12
0,69,45,0
0,35,64,0
0,57,72,0
