track,note,velocity,time
1,44,109,960
1,44,104,252
1,44,93,12
1,46,79,8
1,47,89,8
1,46,96,8
1,44,96,8
1,42,100,8
1,42,95,252
1,42,77,12
1,44,91,8
1,46,98,8
1,44,98,8
1,42,88,8
1,41,107,8
1,41,109,252
1,41,104,106
1,39,100,8
1,39,98,88
1,37,96,8
1,37,112,88
1,39,104,8
1,51,122,8
1,51,122,88
1,44,109,14
1,44,104,328
1,44,93,12
1,46,79,8
1,47,89,8
1,46,96,8
1,44,96,8
1,42,100,8
1,42,95,252
1,42,77,12
1,44,91,8
1,46,98,8
1,44,98,8
1,42,88,8
1,41,107,8
1,41,109,252
1,41,104,106
1,39,100,8
1,39,98,88
1,37,96,8
1,37,112,88
1,39,104,8
1,51,122,8
1,51,122,88
1,44,100,14
1,42,77,20
1,44,107,14
1,44,112,372
1,42,86,10
1,40,91,16
1,39,91,2
1,40,109,0
1,39,77,358
1,40,69,18
1,46,98,34
1,44,96,6
1,46,107,160
1,46,105,286
1,44,102,2
1,42,88,2
1,51,109,2
1,49,100,240
1,51,104,148
1,51,104,260
1,49,102,12
1,47,96,12
1,44,100,10
1,42,77,20
1,44,107,14
1,44,112,372
1,42,86,10
1,40,91,16
1,39,91,2
1,40,109,0
1,40,100,278
1,39,91,22
1,40,107,12
1,46,98,6
1,44,96,6
1,46,107,160
1,46,102,286
1,44,102,2
1,42,89,2
1,51,109,2
1,49,100,240
1,51,104,148
1,51,104,260
1,49,102,12
1,47,96,12
1,44,107,10
1,56,117,16
1,44,114,24
1,56,117,320
1,44,96,26
1,46,98,2
1,47,100,6
1,59,109,16
1,47,107,14
1,59,105,320
1,47,104,32
1,49,93,80
1,52,107,4
1,64,127,20
1,52,119,12
1,52,104,92
1,54,105,80
1,52,104,2
1,51,104,12
1,63,119,4
1,51,104,10
1,63,96,2
1,58,100,32
1,51,100,32
1,63,93,2
1,58,100,32
1,51,89,32
1,44,96,2
1,56,117,2
1,44,104,16
1,56,119,320
1,44,98,34
1,46,96,8
1,47,102,6
1,59,107,12
1,47,107,20
1,59,102,320
1,47,98,12
1,49,91,8
1,52,105,10
1,64,119,14
1,52,112,16
1,64,119,320
1,39,109,48
1,51,109,0
1,39,107,98
1,51,107,0
1,39,107,120
1,51,107,0
1,39,119,128
1,51,119,0
1,44,109,154
1,44,104,252
1,44,93,12
1,46,79,8
1,47,89,8
1,46,96,8
1,44,96,8
1,42,100,8
1,42,95,252
1,42,77,12
1,44,91,8
1,46,98,8
1,44,98,8
1,42,88,8
1,41,107,8
1,41,109,252
1,41,104,106
1,39,100,8
1,39,98,88
1,37,96,8
1,37,112,88
1,39,104,8
1,51,122,8
1,51,122,88
1,44,109,14
1,44,104,328
1,44,93,12
1,46,79,8
1,47,89,8
1,46,96,8
1,44,96,8
1,42,100,8
1,42,95,252
1,42,77,12
1,44,91,8
1,46,98,8
1,44,98,8
1,42,88,8
1,41,107,8
1,41,109,252
1,41,104,106
1,39,100,8
1,39,98,88
1,37,96,8
1,37,112,88
1,39,104,8
1,51,122,8
1,51,122,88
1,44,100,14
1,42,77,20
1,44,107,14
1,44,112,372
1,42,86,10
1,40,91,16
1,39,91,2
1,40,109,0
1,39,77,358
1,40,69,18
1,46,98,34
1,44,96,6
1,46,107,160
1,46,105,286
1,44,102,2
1,42,88,2
1,51,109,2
1,49,100,240
1,51,104,148
1,51,104,260
1,49,102,12
1,47,96,12
1,44,100,10
1,42,77,20
1,44,107,14
1,44,112,372
1,42,86,10
1,40,91,16
1,39,91,2
1,40,109,0
1,40,100,278
1,39,91,22
1,40,107,12
1,46,98,6
1,44,96,6
1,46,107,160
1,46,102,286
1,44,102,2
1,42,89,2
1,51,109,2
1,49,100,240
1,51,104,148
1,51,104,260
1,49,102,12
1,47,96,12
1,44,107,10
1,56,117,16
1,44,114,24
1,56,117,320
1,44,96,26
1,46,98,2
1,47,100,6
1,59,109,16
1,47,107,14
1,59,105,320
1,47,104,32
1,49,93,80
1,52,107,4
1,64,127,20
1,52,119,12
1,52,104,92
1,54,105,80
1,52,104,2
1,51,104,12
1,63,119,4
1,51,104,10
1,63,96,2
1,58,100,32
1,51,100,32
1,63,93,2
1,58,100,32
1,51,89,32
1,44,96,2
1,56,117,2
1,44,104,16
1,56,119,320
1,44,98,34
1,46,96,8
1,47,102,6
1,59,107,12
1,47,107,20
1,59,102,320
1,47,98,12
1,49,91,8
1,52,105,10
1,64,119,14
1,52,112,16
1,64,119,320
1,39,109,48
1,51,109,0
1,39,107,98
1,51,107,0
1,39,107,120
1,51,107,0
1,39,119,128
1,51,119,0
1,44,109,154
1,44,104,252
1,44,93,12
1,46,79,8
1,47,89,8
1,46,96,8
1,44,96,8
1,42,100,8
1,42,95,252
1,42,77,12
1,44,91,8
1,46,98,8
1,44,98,8
1,42,88,8
1,41,107,8
1,41,109,252
1,41,104,106
1,39,100,8
1,39,98,88
1,37,96,8
1,37,112,88
1,39,104,8
1,51,122,8
1,51,122,88
1,44,109,14
1,44,104,328
1,44,93,12
1,46,79,8
1,47,89,8
1,46,96,8
1,44,96,8
1,42,100,8
1,42,95,252
1,42,77,12
1,44,91,8
1,46,98,8
1,44,98,8
1,42,88,8
1,41,107,8
1,41,109,252
1,41,104,106
1,39,100,8
1,39,98,88
1,37,96,8
1,37,112,88
1,39,104,8
1,51,122,8
1,51,122,88
1,44,109,14
1,44,104,252
1,44,93,12
1,46,79,8
1,47,89,8
1,46,96,8
1,44,96,8
1,42,100,8
1,42,95,252
1,42,77,12
1,44,91,8
1,46,98,8
1,44,98,8
1,42,88,8
1,41,107,8
1,41,109,252
1,41,104,106
1,39,100,8
1,39,98,88
1,37,96,8
1,37,112,88
1,39,104,8
1,51,122,8
1,51,122,88
1,44,109,14
1,44,104,328
1,44,93,12
1,46,79,8
1,47,89,8
1,46,96,8
1,44,96,8
1,42,100,8
1,42,95,252
1,42,77,12
1,44,91,8
1,46,98,8
1,44,98,8
1,42,88,8
1,41,107,8
1,41,109,252
1,41,104,106
1,39,100,8
1,39,98,88
1,37,96,8
1,37,112,88
1,39,104,8
1,51,122,8
1,51,122,88
1,49,119,14
1,49,122,378
1,47,98,6
1,44,100,10
1,42,79,10
1,44,105,10
1,44,117,378
1,47,104,160
1,44,105,76
1,47,91,10
1,49,109,80
1,49,122,378
1,47,100,8
1,44,98,10
1,42,85,10
1,44,98,10
1,42,82,18
1,44,98,10
1,47,96,2
1,44,93,10
1,47,93,20
1,49,95,14
1,47,77,80
1,49,77,74
1,51,100,72
1,49,95,10
1,47,86,18
1,49,112,26
1,49,122,378
1,47,98,160
1,44,95,4
1,42,76,10
1,44,107,10
1,44,109,422
1,47,102,10
1,44,100,80
1,47,89,10
1,49,105,2
1,47,93,6
1,44,100,10
1,51,109,10
1,49,100,4
1,47,79,6
1,52,112,14
1,51,100,14
1,49,98,0
1,54,105,10
1,52,102,0
1,51,98,80
1,56,107,14
1,54,102,4
1,52,98,10
1,58,109,6
1,56,104,6
1,54,96,10
1,59,104,4
1,58,102,12
1,56,93,6
1,61,112,10
1,59,96,8
1,58,112,4
1,44,109,7686
1,44,104,252
1,44,93,12
1,46,79,8
1,47,89,8
1,46,96,8
1,44,96,8
1,42,100,8
1,42,95,252
1,42,77,12
1,44,91,8
1,46,98,8
1,44,98,8
1,42,88,8
1,41,107,8
1,41,109,252
1,41,104,106
1,39,100,8
1,39,98,88
1,37,96,8
1,37,112,88
1,39,104,8
1,51,122,8
1,51,122,88
1,44,109,14
1,44,104,328
1,44,93,12
1,46,79,8
1,47,89,8
1,46,96,8
1,44,96,8
1,42,100,8
1,42,95,252
1,42,77,12
1,44,91,8
1,46,98,8
1,44,98,8
1,42,88,8
1,41,107,8
1,41,109,252
1,41,104,106
1,39,100,8
1,39,98,88
1,37,96,8
1,37,112,88
1,39,104,8
1,51,122,8
1,51,122,88
1,44,109,14
1,44,104,252
1,44,93,12
1,46,79,8
1,47,89,8
1,46,96,8
1,44,96,8
1,42,100,8
1,42,95,252
1,42,77,12
1,44,91,8
1,46,98,8
1,44,98,8
1,42,88,8
1,41,107,8
1,41,109,252
1,41,104,106
1,39,100,8
1,39,98,88
1,37,96,8
1,37,112,88
1,39,104,8
1,51,122,8
1,51,122,88
1,44,109,14
1,44,104,328
1,44,93,12
1,46,79,8
1,47,89,8
1,46,96,8
1,44,96,8
1,42,100,8
1,42,95,252
1,42,77,12
1,44,91,8
1,46,98,8
1,44,98,8
1,42,88,8
1,41,107,8
1,41,109,252
1,41,104,106
1,39,100,8
1,39,98,88
1,37,96,8
1,37,112,88
1,39,104,8
1,51,122,8
1,51,122,88
1,44,109,14
1,44,104,252
1,44,93,12
1,46,79,8
1,47,89,8
1,46,96,8
1,44,96,8
1,42,100,8
1,42,95,252
1,42,77,12
1,44,91,8
1,46,98,8
1,44,98,8
1,42,88,8
1,41,107,8
1,41,109,252
1,41,104,106
1,39,100,8
1,39,98,88
1,37,96,8
1,37,112,88
1,39,104,8
1,51,122,8
1,51,122,88
1,44,109,14
1,44,104,328
1,44,93,12
1,46,79,8
1,47,89,8
1,46,96,8
1,44,96,8
1,42,100,8
1,42,95,252
1,42,77,12
1,44,91,8
1,46,98,8
1,44,98,8
1,42,88,8
1,41,107,8
1,41,109,252
1,41,104,106
1,39,100,8
1,39,98,88
1,37,96,8
1,37,112,88
1,39,104,8
1,51,122,8
1,51,122,88
1,44,109,14
1,44,104,252
1,44,93,12
1,46,79,8
1,47,89,8
1,46,96,8
1,44,96,8
1,42,100,8
1,42,95,252
1,42,77,12
1,44,91,8
1,46,98,8
1,44,98,8
1,42,88,8
1,41,107,8
1,41,109,252
1,41,104,106
1,39,100,8
1,39,98,88
1,37,96,8
1,37,112,88
1,39,104,8
1,51,122,8
1,51,122,88
1,44,109,14
1,44,104,328
1,44,93,12
1,46,79,8
1,47,89,8
1,46,96,8
1,44,96,8
1,42,100,8
1,42,95,252
1,42,77,12
1,44,91,8
1,46,98,8
1,44,98,8
1,42,88,8
1,41,107,8
1,41,109,252
1,41,104,106
1,39,100,8
1,39,98,88
1,37,96,8
1,37,112,88
1,39,104,8
1,51,122,8
1,51,122,88
1,44,109,14
1,44,104,252
1,44,93,12
1,46,79,8
1,47,89,8
1,46,96,8
1,44,96,8
1,42,100,8
1,42,95,252
1,42,77,12
1,44,91,8
1,46,98,8
1,44,98,8
1,42,88,8
1,41,107,8
1,41,109,252
1,41,104,106
1,39,100,8
1,39,98,88
1,37,96,8
1,37,112,88
1,39,104,8
1,51,122,8
1,51,122,88
1,44,109,14
1,44,104,328
1,44,93,12
1,46,79,8
1,47,89,8
1,46,96,8
1,44,96,8
1,42,100,8
1,42,95,252
1,42,77,12
1,44,91,8
1,46,98,8
1,44,98,8
1,42,88,8
1,41,107,8
1,41,109,252
1,41,104,106
1,39,100,8
1,39,98,88
1,37,96,8
1,37,112,88
1,39,104,8
1,51,122,8
1,51,122,88
1,44,109,14
1,44,104,252
1,44,93,12
1,46,79,8
1,47,89,8
1,46,96,8
1,44,96,8
1,42,100,8
1,42,95,252
1,42,77,12
1,44,91,8
1,46,98,8
1,44,98,8
1,42,88,8
1,41,107,8
1,41,109,252
1,41,104,106
1,39,100,8
1,39,98,88
1,37,96,8
1,37,112,88
1,39,104,8
1,51,122,8
1,51,122,88
1,44,109,14
1,44,104,328
1,44,93,12
1,46,79,8
1,47,89,8
1,46,96,8
1,44,96,8
1,42,100,8
1,42,95,252
1,42,77,12
1,44,91,8
1,46,98,8
1,44,98,8
1,42,88,8
1,41,107,8
1,41,109,252
1,41,104,106
1,39,100,8
1,39,98,88
1,37,96,8
1,37,112,88
1,39,104,8
1,51,122,8
1,51,122,88
1,49,98,14
1,47,85,2
1,49,100,2
1,51,102,2
1,49,82,2
1,51,100,2
1,54,105,2
1,51,93,2
1,54,105,2
1,56,100,2
1,54,95,2
1,56,98,2
1,59,102,2
1,56,96,2
1,59,96,2
1,61,105,2
1,59,89,2
1,61,104,2
1,63,104,2
1,61,96,2
1,63,102,2
1,66,102,2
1,63,100,2
1,66,105,2
1,68,102,2
1,68,114,22
2,44,109,960
2,44,104,252
2,44,93,12
2,46,79,8
2,47,89,8
2,46,96,8
2,44,96,8
2,42,100,8
2,42,95,252
2,42,77,12
2,44,91,8
2,46,98,8
2,44,98,8
2,42,88,8
2,41,107,8
2,41,109,252
2,41,104,106
2,39,100,8
2,39,98,88
2,37,96,8
2,37,112,88
2,39,104,8
2,51,122,8
2,51,122,88
2,44,109,14
2,44,104,328
2,44,93,12
2,46,79,8
2,47,89,8
2,46,96,8
2,44,96,8
2,42,100,8
2,42,95,252
2,42,77,12
2,44,91,8
2,46,98,8
2,44,98,8
2,42,88,8
2,41,107,8
2,41,109,252
2,41,104,106
2,39,100,8
2,39,98,88
2,37,96,8
2,37,112,88
2,39,104,8
2,51,122,8
2,51,122,88
2,44,100,14
2,42,77,20
2,44,107,14
2,44,112,372
2,42,86,10
2,40,91,16
2,39,91,2
2,40,109,0
2,39,77,358
2,40,69,18
2,46,98,34
2,44,96,6
2,46,107,160
2,46,105,286
2,44,102,2
2,42,88,2
2,51,109,2
2,49,100,240
2,51,104,148
2,51,104,260
2,49,102,12
2,47,96,12
2,44,100,10
2,42,77,20
2,44,107,14
2,44,112,372
2,42,86,10
2,40,91,16
2,39,91,2
2,40,109,0
2,40,100,278
2,39,91,22
2,40,107,12
2,46,98,6
2,44,96,6
2,46,107,160
2,46,102,286
2,44,102,2
2,42,89,2
2,51,109,2
2,49,100,240
2,51,104,148
2,51,104,260
2,49,102,12
2,47,96,12
2,44,107,10
2,56,117,16
2,44,114,24
2,56,117,320
2,44,96,26
2,46,98,2
2,47,100,6
2,59,109,16
2,47,107,14
2,59,105,320
2,47,104,32
2,49,93,80
2,52,107,4
2,64,127,20
2,52,119,12
2,52,104,92
2,54,105,80
2,52,104,2
2,51,104,12
2,63,119,4
2,51,104,10
2,63,96,2
2,58,100,32
2,51,100,32
2,63,93,2
2,58,100,32
2,51,89,32
2,44,96,2
2,56,117,2
2,44,104,16
2,56,119,320
2,44,98,34
2,46,96,8
2,47,102,6
2,59,107,12
2,47,107,20
2,59,102,320
2,47,98,12
2,49,91,8
2,52,105,10
2,64,119,14
2,52,112,16
2,64,119,320
2,39,109,48
2,51,109,0
2,39,107,98
2,51,107,0
2,39,107,120
2,51,107,0
2,39,119,128
2,51,119,0
2,44,109,154
2,44,104,252
2,44,93,12
2,46,79,8
2,47,89,8
2,46,96,8
2,44,96,8
2,42,100,8
2,42,95,252
2,42,77,12
2,44,91,8
2,46,98,8
2,44,98,8
2,42,88,8
2,41,107,8
2,41,109,252
2,41,104,106
2,39,100,8
2,39,98,88
2,37,96,8
2,37,112,88
2,39,104,8
2,51,122,8
2,51,122,88
2,44,109,14
2,44,104,328
2,44,93,12
2,46,79,8
2,47,89,8
2,46,96,8
2,44,96,8
2,42,100,8
2,42,95,252
2,42,77,12
2,44,91,8
2,46,98,8
2,44,98,8
2,42,88,8
2,41,107,8
2,41,109,252
2,41,104,106
2,39,100,8
2,39,98,88
2,37,96,8
2,37,112,88
2,39,104,8
2,51,122,8
2,51,122,88
2,44,100,14
2,42,77,20
2,44,107,14
2,44,112,372
2,42,86,10
2,40,91,16
2,39,91,2
2,40,109,0
2,39,77,358
2,40,69,18
2,46,98,34
2,44,96,6
2,46,107,160
2,46,105,286
2,44,102,2
2,42,88,2
2,51,109,2
2,49,100,240
2,51,104,148
2,51,104,260
2,49,102,12
2,47,96,12
2,44,100,10
2,42,77,20
2,44,107,14
2,44,112,372
2,42,86,10
2,40,91,16
2,39,91,2
2,40,109,0
2,40,100,278
2,39,91,22
2,40,107,12
2,46,98,6
2,44,96,6
2,46,107,160
2,46,102,286
2,44,102,2
2,42,89,2
2,51,109,2
2,49,100,240
2,51,104,148
2,51,104,260
2,49,102,12
2,47,96,12
2,44,107,10
2,56,117,16
2,44,114,24
2,56,117,320
