track,note,velocity,time
0,74,110,2300
0,55,96,4
0,74,110,4
0,55,96,4
0,66,96,180
0,66,96,8
0,67,88,180
0,67,88,8
0,55,92,176
0,74,110,4
0,74,110,0
0,54,126,0
0,66,78,0
0,66,78,0
0,67,92,4
0,67,92,4
0,74,110,0
0,57,96,4
0,74,110,0
0,66,88,0
0,66,88,8
0,69,34,4
0,69,40,84
0,67,100,76
0,67,100,8
0,59,88,168
0,55,78,4
0,74,110,12
0,69,44,0
0,74,110,0
0,69,50,88
0,66,110,0
0,66,110,0
0,69,36,4
0,69,32,80
0,67,100,0
0,69,36,0
0,67,100,8
0,69,50,84
0,74,106,76
0,52,84,0
0,62,70,0
0,74,106,0
0,52,84,0
0,66,96,4
0,66,96,8
0,67,106,184
0,67,106,8
0,74,96,176
0,74,96,8
0,54,126,8
0,57,56,4
0,66,116,0
0,57,56,4
0,66,116,0
0,59,62,0
0,67,96,0
0,59,62,0
0,67,96,0
0,64,78,4
0,74,116,0
0,64,78,4
0,74,116,0
0,66,64,192
0,66,64,8
0,67,84,176
0,67,84,8
0,69,56,8
0,69,32,80
0,74,110,4
0,74,110,4
0,69,60,8
0,66,82,4
0,66,82,4
0,69,50,8
0,69,40,84
0,67,96,4
0,67,96,4
0,69,46,4
0,69,50,84
0,48,84,0
0,60,60,0
0,74,110,0
0,74,110,0
0,48,84,0
0,60,60,0
0,64,96,0
0,59,116,4
0,66,96,152
0,66,96,8
0,67,106,180
0,67,106,8
0,74,110,0
0,60,110,0
0,74,110,4
0,54,126,8
0,66,102,4
0,66,102,4
0,67,106,4
0,67,106,4
0,74,110,4
0,74,110,0
0,66,116,12
0,66,116,4
0,66,116,4
0,67,106,4
0,67,106,4
0,67,110,4
0,74,116,4
0,74,116,4
0,69,60,0
0,66,110,4
0,66,110,8
0,69,100,0
0,69,56,4
0,69,40,84
0,67,100,68
0,67,100,8
0,69,32,8
0,69,50,80
0,60,78,0
0,74,106,0
0,60,88,0
0,57,70,0
0,71,106,0
0,60,88,4
0,74,106,0
0,57,70,4
0,64,100,0
0,64,100,8
0,67,100,180
0,67,100,8
0,52,120,108
0,74,120,76
0,74,120,8
0,54,126,8
0,64,100,4
0,64,100,4
0,67,116,4
0,67,116,4
0,64,110,84
0,55,106,4
0,64,126,0
0,72,126,0
0,67,126,0
0,72,126,4
0,67,116,0
0,33,126,4
0,64,126,0
0,72,116,0
0,45,116,4
0,55,126,0
0,67,116,0
0,72,126,0
0,49,126,4
0,40,120,0
0,36,110,0
0,64,120,84
0,55,116,0
0,64,126,4
0,67,126,0
0,72,126,0
0,72,120,4
0,67,126,0
0,33,126,4
0,64,126,0
0,55,116,0
0,45,116,0
0,67,126,0
0,72,126,0
0,72,120,0
0,40,116,8
0,49,126,0
0,36,116,0
0,74,126,232
0,66,126,0
0,69,126,0
0,57,120,8
0,50,116,0
0,74,126,0
0,69,126,0
0,66,126,0
0,66,116,0
0,57,120,4
0,38,126,4
0,74,126,0
0,69,126,0
0,36,116,0
0,40,110,0
0,49,126,0
0,74,120,0
0,66,126,88
0,69,116,0
0,74,120,0
0,74,120,8
0,66,126,0
0,50,116,0
0,69,116,0
0,57,120,0
0,66,126,0
0,57,120,0
0,40,126,0
0,36,126,0
0,49,126,0
0,38,126,8
0,74,126,0
0,69,126,0
0,74,126,4
0,74,116,1144
0,55,92,4
0,74,116,0
0,67,106,0
0,55,92,4
0,66,82,0
0,66,82,8
0,67,106,4
0,67,106,4
0,74,100,0
0,67,107,4
0,74,100,0
0,42,90,4
0,66,82,168
0,66,82,8
0,67,88,184
0,67,88,8
0,62,54,4
0,74,106,0
0,67,88,0
0,62,54,4
0,74,106,0
0,66,88,4
0,66,88,8
0,69,21,0
0,69,20,84
0,67,100,0
0,67,100,0
0,69,56,4
0,69,40,84
0,74,100,4
0,74,100,4
0,67,106,4
0,69,66,0
0,69,24,84
0,66,82,4
0,55,68,0
0,66,88,0
0,66,82,4
0,69,56,4
0,69,46,84
0,67,92,0
0,64,92,0
0,54,78,4
0,67,92,0
0,69,56,0
0,69,50,76
0,74,110,4
0,52,84,0
0,74,110,4
0,52,84,0
0,62,78,0
0,52,92,4
0,66,88,0
0,66,88,8
0,67,92,4
0,67,92,4
0,74,106,0
0,74,106,0
0,59,24,0
0,59,24,8
0,62,88,0
0,54,126,0
0,66,88,164
0,66,88,8
0,67,100,184
0,67,100,8
0,64,44,4
0,74,110,0
0,62,84,0
0,64,44,4
0,74,110,0
0,64,84,4
0,66,82,4
0,66,82,4
0,67,96,4
0,67,96,4
0,74,110,4
0,74,110,4
0,69,60,4
0,66,60,4
0,66,60,4
0,69,50,8
0,69,40,84
0,67,110,4
0,55,84,0
0,67,110,4
0,69,56,4
0,38,78,0
0,69,56,80
0,64,100,0
0,48,74,0
0,67,92,0
0,36,78,0
0,48,74,4
0,67,92,0
0,64,88,52
0,62,70,4
0,62,70,8
0,62,84,4
0,64,92,8
0,64,92,8
0,64,92,0
0,67,110,4
0,67,110,4
0,54,126,0
0,62,78,168
0,62,78,8
0,64,70,4
0,64,70,4
0,57,38,4
0,66,88,0
0,66,88,4
0,57,38,0
0,62,58,184
0,62,58,8
0,64,84,4
0,60,88,0
0,64,84,4
0,69,36,0
0,62,84,76
0,69,28,12
0,64,88,0
0,66,126,0
0,66,126,4
0,55,60,0
0,55,60,8
0,69,50,0
0,62,84,144
0,64,96,4
0,64,96,4
0,69,56,8
0,69,21,84
0,62,92,4
0,62,92,4
0,69,56,4
0,69,56,4
0,67,92,4
0,47,78,0
0,35,88,4
0,67,92,0
0,47,78,4
0,62,88,60
0,57,74,12
0,57,74,8
0,59,110,20
0,62,80,4
0,59,110,4
0,67,110,0
0,55,92,0
0,67,110,0
0,55,92,4
0,54,126,4
0,57,100,4
0,57,100,4
0,59,110,4
0,59,110,4
0,67,116,4
0,64,100,0
0,67,116,4
0,64,100,0
0,45,92,0
0,45,92,8
0,33,80,0
0,57,68,100
0,57,68,8
0,60,80,0
0,60,80,8
0,69,23,4
0,69,20,8
0,62,100,0
0,66,126,0
0,67,110,0
0,62,100,0
0,66,126,0
0,50,70,0
0,38,100,0
0,67,110,0
0,50,70,4
0,69,66,0
0,62,66,92
0,62,66,8
0,69,50,8
0,69,28,84
0,57,80,4
0,57,80,4
0,69,50,0
0,69,36,0
0,67,96,68
0,55,78,8
0,74,110,0
0,43,80,0
0,74,110,0
0,55,78,0
0,66,72,4
0,66,72,4
0,67,80,4
0,67,80,8
0,67,100,28
0,74,100,4
0,62,62,0
0,62,62,4
0,74,100,0
0,54,126,0
0,66,88,4
0,66,88,4
0,67,88,0
0,67,88,0
0,67,100,28
0,74,116,0
0,74,116,8
0,66,78,184
0,66,78,8
0,67,100,4
0,67,100,4
0,69,28,0
0,69,32,84
0,74,116,4
0,66,102,0
0,74,116,4
0,69,46,0
0,67,80,0
0,66,78,4
0,66,78,4
0,66,107,0
0,69,56,4
0,69,36,76
0,67,80,4
0,67,80,4
0,64,100,0
0,69,40,0
0,69,46,76
0,74,100,4
0,52,62,0
0,40,78,4
0,74,100,0
0,62,92,0
0,52,62,4
0,66,72,180
0,66,72,8
0,67,80,180
0,67,80,8
0,74,110,4
0,57,78,0
0,57,78,0
0,74,110,0
0,62,92,0
0,54,126,0
0,66,88,164
0,66,88,8
0,67,100,184
0,67,100,4
0,59,74,4
0,62,96,4
0,74,100,0
0,74,100,0
0,59,80,0
0,59,80,0
0,66,78,176
0,66,78,8
0,67,70,184
0,67,70,8
0,74,110,4
0,64,80,0
0,64,80,4
0,74,110,0
0,69,20,4
0,69,21,48
0,66,88,72
0,66,88,8
0,69,56,4
0,69,40,28
0,55,96,68
0,67,96,0
0,67,96,8
0,69,56,4
0,69,56,84
0,36,66,4
0,74,96,0
0,48,96,0
0,74,96,4
0,64,88,0
0,48,96,4
0,64,92,4
0,66,96,0
0,66,96,8
0,67,96,64
0,64,96,4
0,67,96,4
0,62,74,4
0,74,116,16
0,64,96,4
0,60,88,0
0,74,116,4
0,60,88,4
0,54,126,4
0,66,96,4
0,66,96,4
0,67,96,4
0,67,96,4
0,74,100,0
0,60,74,0
0,74,100,0
0,60,74,4
0,66,72,120
0,66,72,8
0,62,80,40
0,60,84,20
0,67,80,4
0,67,80,8
0,62,80,4
0,64,96,0
0,76,120,0
0,60,68,4
0,76,120,0
0,60,68,4
0,69,36,4
0,69,22,84
0,62,68,8
0,74,100,4
0,74,100,8
0,69,50,8
0,69,46,84
0,60,92,68
0,72,110,0
0,72,110,8
0,69,56,0
0,69,60,52
0,47,100,4
0,74,96,0
0,35,84,0
0,74,96,4
0,47,100,0
0,62,92,0
0,64,80,164
0,64,80,8
0,67,88,188
0,67,88,8
0,74,116,4
0,59,96,0
0,74,116,4
0,59,96,0
0,54,126,0
0,64,106,0
0,64,106,0
0,67,116,4
0,67,116,4
0,74,120,4
0,45,106,0
0,55,110,0
0,60,106,0
0,55,100,0
0,74,120,4
0,45,106,0
0,33,78,0
0,55,110,0
0,64,126,148
0,64,126,0
0,67,116,176
0,67,116,8
0,74,116,4
0,57,106,0
0,50,106,0
0,57,106,0
0,74,116,0
0,62,96,0
0,38,96,4
0,50,106,0
0,54,110,0
0,69,50,4
0,69,18,80
0,62,106,68
0,62,106,8
0,69,36,8
0,69,23,84
0,69,116,72
0,69,116,8
0,69,56,4
0,59,80,8
0,67,126,0
0,55,100,0
0,45,116,0
0,64,116,0
0,60,116,0
0,55,100,0
0,64,116,0
0,45,116,0
0,67,126,0
0,60,116,0
0,64,100,0
0,55,120,0
0,60,110,0
0,36,120,4
0,49,126,0
0,50,120,4
0,33,120,4
0,62,66,24
0,50,96,4
0,50,110,28
0,62,100,8
0,42,52,4
0,50,100,0
0,59,68,12
0,50,106,52
0,62,100,20
0,42,74,0
0,50,92,28
0,59,60,8
0,50,126,68
0,55,120,0
0,64,107,0
0,37,126,0
0,42,74,0
0,50,106,4
0,60,74,8
0,42,74,0
0,50,84,32
0,50,120,48
0,42,80,12
0,64,84,8
0,50,96,0
0,50,126,32
0,66,88,0
0,57,74,4
0,62,88,0
0,59,107,4
0,62,96,0
0,47,116,0
0,66,126,0
0,36,120,4
0,42,80,0
0,35,120,0
0,62,68,8
0,54,52,28
0,42,74,0
0,62,96,156
0,57,88,12
0,42,80,0
0,62,78,0
0,59,84,8
0,67,106,0
0,59,110,0
0,67,120,0
0,52,92,0
0,59,126,0
0,55,110,0
0,67,120,0
0,37,126,0
0,46,91,0
0,40,116,8
0,62,84,0
0,66,110,0
0,42,90,0
0,66,116,0
0,50,106,4
0,50,68,36
0,50,96,52
0,62,100,4
0,42,74,0
0,62,80,4
0,50,68,40
0,64,92,8
0,64,110,0
0,59,96,0
0,60,96,0
0,45,116,0
0,50,120,0
0,64,106,0
0,36,126,4
0,42,90,0
0,33,120,0
0,50,88,32
0,62,78,4
0,50,100,40
0,55,70,16
0,62,92,0
0,42,66,4
0,50,84,8
0,59,58,8
0,50,96,52
0,62,88,4
0,57,70,12
0,42,66,0
0,50,96,36
0,59,74,4
0,64,106,8
0,50,126,4
0,67,120,0
0,37,126,8
0,42,80,0
0,50,116,0
0,64,92,4
0,42,66,8
0,33,116,16
0,42,74,8
0,60,92,4
0,50,120,0
0,50,84,4
0,66,96,16
0,62,100,0
0,50,120,0
0,66,126,0
0,62,106,0
0,54,116,0
0,67,107,0
0,36,116,4
0,42,74,0
0,35,106,0
0,66,107,168
0,42,60,4
0,64,96,8
0,76,116,4
0,76,126,4
0,64,126,0
0,64,110,0
0,42,74,4
0,66,126,0
0,78,126,0
0,78,110,0
0,57,70,8
0,54,110,4
0,66,116,0
0,64,107,8
0,62,78,0
0,79,116,0
0,67,120,4
0,79,120,0
0,64,116,0
0,67,120,0
0,67,116,0
0,64,126,0
0,67,120,0
0,59,120,0
0,52,110,0
0,37,126,0
0,42,90,0
0,40,106,4
0,62,96,0
0,62,107,4
0,66,126,0
0,78,126,4
0,66,116,0
0,62,120,0
0,50,116,0
0,66,126,0
0,78,126,0
0,66,126,0
0,36,126,4
0,46,91,0
0,38,120,0
0,59,106,252
0,64,110,0
0,60,110,0
0,64,116,4
0,60,106,0
0,45,110,4
0,81,126,0
0,69,126,0
0,36,120,0
0,49,110,0
0,64,100,0
0,50,126,8
0,33,120,0
0,62,88,20
0,50,100,0
0,50,110,12
0,55,88,4
0,62,92,0
0,42,36,8
0,59,60,24
0,50,74,4
0,50,88,56
0,62,88,4
0,57,88,8
0,42,52,0
0,50,100,4
0,59,88,4
0,50,126,68
0,64,107,0
0,60,110,8
0,37,126,4
0,42,80,0
0,50,116,168
0,64,110,0
0,42,74,8
0,55,106,0
0,33,120,0
0,60,106,0
0,50,120,0
0,42,74,8
0,58,102,8
0,62,96,0
0,66,102,0
0,59,100,0
0,62,70,0
0,62,96,4
0,66,126,0
0,47,116,0
0,50,120,0
0,35,116,0
0,36,120,0
0,42,80,0
0,50,100,40
0,62,100,48
0,50,116,12
0,54,56,0
0,42,66,8
0,50,100,40
0,62,107,56
0,50,116,0
0,42,80,24
0,57,88,4
0,64,107,4
0,50,126,4
0,69,116,8
0,37,126,4
0,42,74,0
0,66,126,176
0,42,74,0
0,62,100,12
0,62,106,4
0,42,90,8
0,35,116,8
0,63,107,8
0,67,116,0
0,64,110,0
0,64,106,0
0,64,80,0
0,67,110,0
0,64,116,0
0,36,116,0
0,42,90,0
0,36,116,0
0,67,106,160
0,48,100,8
0,42,66,8
0,67,107,80
0,55,50,20
0,42,66,0
0,69,106,20
0,59,110,112
0,37,126,4
0,42,74,0
0,67,96,72
0,64,107,8
0,59,32,0
0,42,80,0
0,60,62,4
0,62,107,8
0,64,116,4
0,42,74,8
0,76,126,84
0,76,126,0
0,33,106,4
0,64,107,0
0,45,116,4
0,60,110,0
0,64,116,0
0,60,110,0
0,36,106,0
0,64,106,0
0,42,74,0
0,35,110,0
0,78,116,0
0,66,107,0
0,66,116,0
0,47,110,4
0,62,84,0
0,66,110,0
0,78,126,0
0,66,116,0
0,38,80,0
0,42,74,0
0,67,110,0
0,64,116,0
0,79,106,0
0,36,110,0
0,48,120,0
0,67,116,0
0,79,120,0
0,67,116,0
0,67,107,4
0,38,120,0
0,42,66,0
0,81,100,0
0,38,116,0
0,69,106,0
0,66,126,0
0,69,126,0
0,50,116,0
0,62,120,0
0,69,107,0
0,69,106,0
0,66,116,0
0,36,126,0
0,49,110,0
0,81,116,8
0,79,62,4
0,42,19,160
0,42,60,180
0,42,74,180
0,42,46,176
0,64,120,16
0,42,74,8
0,64,120,112
0,42,80,20
0,66,126,140
0,42,74,8
0,42,80,4
0,69,107,92
0,81,126,0
0,69,116,8
0,42,80,0
0,82,116,0
0,70,107,0
0,82,126,0
0,70,116,0
0,70,126,4
0,42,80,0
0,84,110,12
0,72,120,4
0,84,120,0
0,72,100,0
0,42,90,0
0,72,107,8
0,38,116,4
0,86,110,0
0,70,126,0
0,67,126,0
0,74,126,0
0,51,110,0
0,86,116,0
0,70,116,4
0,67,116,0
0,70,88,0
0,36,126,4
0,49,116,0
0,39,126,4
0,73,107,0
0,55,126,0
0,74,106,0
0,55,110,140
0,42,74,4
0,58,34,4
0,55,70,36
0,55,100,64
0,62,100,12
0,42,74,0
0,55,116,4
0,38,126,4
0,42,80,0
0,55,78,28
0,55,92,52
0,84,106,0
0,72,96,12
0,67,88,0
0,42,80,0
0,55,120,12
0,82,110,0
0,70,107,0
0,70,96,4
0,38,110,4
0,36,110,0
0,42,80,0
0,55,74,8
0,70,107,4
0,55,92,60
0,67,106,0
0,63,126,0
0,70,126,0
0,63,116,4
0,36,116,0
0,42,90,0
0,36,106,12
0,55,78,32
0,55,80,48
0,42,80,28
0,55,80,32
0,55,106,60
0,42,66,28
0,55,120,164
0,55,116,16
0,40,126,0
0,42,90,0
0,55,120,92
0,36,126,4
0,72,107,0
0,63,116,4
0,42,74,0
0,70,102,8
0,55,110,40
0,70,102,8
