track,note,velocity,time
3,58,125,6690
3,58,0,27
3,58,116,21
3,58,0,44
3,57,102,1
3,57,0,49
3,55,109,1
3,55,0,41
3,58,121,6
3,58,0,235
3,58,121,248
3,58,0,83
3,57,125,13
3,57,0,95
3,55,115,1
3,55,0,49
3,58,116,1
3,58,0,212
3,62,127,407
3,62,0,51
3,60,127,47
3,60,0,89
3,58,116,10
3,58,0,40
3,60,127,49
3,60,0,91
3,55,112,6
3,55,0,48
3,55,122,140
3,55,0,24
3,55,122,20
3,55,0,35
3,62,127,15
3,62,0,83
3,60,115,17
3,60,0,87
3,58,108,10
3,58,0,37
3,60,127,16
3,60,0,184
3,58,121,529
3,58,0,48
3,55,98,2
3,55,0,21
3,58,116,31
3,58,0,44
3,55,98,1
3,55,0,30
3,58,121,16
3,58,0,44
3,53,96,1
3,53,0,53
3,55,112,2
3,55,0,100
3,58,125,381
3,58,0,90
3,55,107,3
3,55,0,35
3,62,127,15
3,62,0,207
3,62,127,226
3,62,0,86
3,60,107,3
3,60,0,43
3,60,127,59
3,60,0,86
3,58,112,8
3,58,0,52
3,60,125,44
3,60,0,46
3,58,112,1
3,58,0,40
3,55,127,8
3,55,0,56
3,55,127,42
3,55,0,86
3,58,116,10
3,58,0,51
3,62,127,45
3,62,0,96
3,60,118,2
3,60,0,53
3,58,104,42
3,58,0,44
3,60,125,6
3,60,0,150
3,63,116,377
3,63,0,68
3,63,121,27
3,63,0,92
3,62,127,6
3,62,0,53
3,60,127,42
3,60,0,54
3,62,127,41
3,62,0,49
3,60,122,4
3,60,0,254
3,63,104,79
3,63,0,63
3,63,112,33
3,63,0,90
3,62,127,10
3,62,0,59
3,60,122,36
3,60,0,61
3,62,127,31
3,62,0,49
3,60,118,1
3,60,0,264
3,63,112,69
3,63,0,183
3,62,98,5
3,62,0,43
3,60,109,6
3,60,0,72
3,62,109,28
3,62,0,59
3,60,122,34
3,60,0,226
3,63,101,112
3,63,0,188
3,62,115,1
3,62,0,49
3,60,104,1
3,60,0,50
3,63,101,41
3,63,0,100
3,62,109,1
3,62,0,137
3,60,127,103
3,60,0,98
3,63,125,4
3,63,0,382
3,62,127,1
3,62,0,374
3,60,127,4
3,60,0,145
3,63,121,49
3,63,0,44
3,60,107,5
3,60,0,46
3,63,121,1
3,63,0,255
3,63,125,33
3,63,0,47
3,60,107,1
3,60,0,47
3,63,121,1
3,63,0,45
3,58,116,3
3,58,0,47
3,60,109,1
3,60,0,270
3,58,116,1366
3,58,0,15
3,58,116,28
3,58,0,47
3,57,118,1
3,57,0,47
3,55,112,1
3,55,0,44
3,58,116,1
3,58,0,201
3,58,116,280
3,58,0,98
3,57,125,1
3,57,0,93
3,55,115,1
3,55,0,55
3,62,127,1
3,62,0,235
3,62,127,376
3,62,0,41
3,60,127,57
3,60,0,44
3,58,116,53
3,58,0,42
3,60,112,57
3,60,0,46
3,58,112,1
3,58,0,49
3,55,127,1
3,55,0,75
3,55,125,118
3,55,0,46
3,62,115,51
3,62,0,80
3,60,109,11
3,60,0,79
3,58,104,19
3,58,0,47
3,62,115,5
3,62,0,325
3,58,116,392
3,58,0,54
3,58,116,42
3,58,0,48
3,58,125,48
3,58,0,45
3,55,125,4
3,55,0,132
3,62,127,335
3,62,0,35
3,62,127,4
3,62,0,10
3,62,127,274
3,62,0,52
3,60,127,46
3,60,0,48
3,58,112,48
3,58,0,52
3,60,127,43
3,60,0,37
3,58,101,13
3,58,0,45
3,55,122,7
3,55,0,77
3,55,122,107
3,55,0,34
3,58,108,15
3,58,0,31
3,62,127,19
3,62,0,92
3,60,104,3
3,60,0,63
3,58,112,31
3,58,0,48
3,60,125,6
3,60,0,216
3,63,127,409
3,63,0,95
3,62,127,1
3,62,0,39
3,60,125,5
3,60,0,36
3,63,125,9
3,63,0,3
3,63,125,269
3,63,0,22
3,63,121,25
3,63,0,46
3,62,122,1
3,62,0,48
3,60,122,1
3,60,0,41
3,63,125,7
3,63,0,7
3,63,125,210
3,63,0,72
3,63,125,25
3,63,0,89
3,62,127,1
3,62,0,46
3,60,112,1
3,60,0,35
3,63,125,14
3,63,0,39
3,60,127,8
3,60,0,6
3,63,116,177
3,63,0,72
3,63,121,24
3,63,0,93
3,62,118,1
3,62,0,47
3,60,112,1
3,60,0,46
3,63,108,1
3,63,0,49
3,62,125,1
3,62,0,219
3,60,112,19
3,60,0,33
3,60,125,22
3,60,0,60
3,60,118,23
3,60,0,48
3,63,121,13
3,63,0,379
3,62,127,1
3,62,0,383
3,60,118,1
3,60,0,135
3,63,125,56
3,63,0,47
3,60,109,4
3,60,0,41
3,63,121,4
3,63,0,260
3,63,121,28
3,63,0,50
3,60,112,1
3,60,0,42
3,63,112,1
3,63,0,47
3,58,104,1
3,58,0,48
3,60,112,1
3,60,0,322
3,58,125,7555
3,58,0,21
3,58,121,26
3,58,0,45
3,55,127,3
3,55,0,36
3,58,121,14
3,58,0,3
3,62,127,275
3,62,0,91
3,60,127,1
3,60,0,55
3,58,116,39
3,58,0,46
3,62,127,8
3,62,0,3
3,62,127,213
3,62,0,94
3,60,118,1
3,60,0,38
3,58,97,6
3,58,0,34
3,60,127,14
3,60,0,5
3,62,127,370
3,62,0,92
3,60,122,2
3,60,0,72
3,58,125,25
3,58,0,64
3,62,127,29
3,62,0,7
3,58,121,343
3,58,0,18
3,58,121,29
3,58,0,45
3,55,127,5
3,55,0,36
3,58,116,13
3,58,0,187
3,62,127,346
3,62,0,93
3,60,122,2
3,60,0,57
3,58,121,37
3,58,0,69
3,60,127,28
3,60,0,93
3,55,125,3
3,55,0,72
3,62,127,312
3,62,0,91
3,60,122,1
3,60,0,26
3,60,125,24
3,60,0,45
3,58,94,1
3,58,0,37
3,60,127,11
3,60,0,171
3,55,122,168
3,55,0,46
3,58,108,2
3,58,0,27
3,62,127,23
3,62,0,46
3,58,116,22
3,58,0,40
3,60,125,13
3,60,0,174
3,58,97,5
3,58,0,4
3,63,121,307
3,63,0,19
3,63,125,30
3,63,0,42
3,60,109,3
3,60,0,36
3,63,121,13
3,63,0,5
3,63,112,7
3,63,0,69
3,62,115,4
3,62,0,36
3,60,118,58
3,60,0,45
3,63,104,5
3,63,0,145
3,60,125,235
3,60,0,15
3,63,125,34
3,63,0,66
3,63,112,29
3,63,0,13
3,63,125,36
3,63,0,26
3,63,121,69
3,63,0,31
3,60,107,18
3,60,0,23
3,63,125,24
3,63,0,2
3,63,121,187
3,63,0,42
3,60,96,1
3,60,0,38
3,63,108,13
3,63,0,29
3,63,94,18
3,63,0,22
3,63,112,29
3,63,0,27
3,63,116,25
3,63,0,66
3,65,127,27
3,65,0,61
3,63,112,29
3,63,0,52
3,62,112,1
3,62,0,152
3,60,118,38
3,60,0,25
3,60,125,26
3,60,0,51
3,60,115,45
3,60,0,39
3,63,121,12
3,63,0,375
3,62,107,3
3,62,0,378
3,60,112,1
3,60,0,126
3,63,112,73
3,63,0,42
3,60,104,4
3,60,0,41
3,63,112,6
3,63,0,120
3,63,116,164
3,63,0,46
3,60,104,5
3,60,0,42
3,63,116,3
3,63,0,482
3,62,112,1
3,62,0,383
3,60,112,1
3,60,0,150
3,63,101,41
3,63,0,50
3,60,104,1
3,60,0,44
3,63,112,2
3,63,0,110
3,63,112,173
3,63,0,46
3,60,100,3
3,60,0,44
3,63,116,5
3,63,0,492
3,62,125,1
3,62,0,373
3,60,115,4
3,60,0,151
3,63,112,40
3,63,0,45
3,60,112,6
3,60,0,42
3,63,116,4
3,63,0,94
3,63,116,194
3,63,0,37
3,60,81,11
3,60,0,38
3,63,116,10
3,63,0,46
3,58,108,1
3,58,0,47
3,60,104,2
3,60,0,208
4,31,122,470
4,31,0,238
4,31,104,49
4,31,0,40
4,31,108,56
4,31,0,378
4,29,117,6
4,29,0,245
4,29,94,43
4,29,0,40
4,29,117,56
4,29,0,383
4,27,95,1
4,27,0,238
4,27,91,50
4,27,0,58
4,27,95,38
4,27,0,192
4,38,88,1
4,38,0,192
4,36,97,1
4,36,0,238
4,36,104,49
4,36,0,87
4,38,104,8
4,38,0,193
4,26,101,1
4,26,0,183
4,31,117,9
4,31,0,261
4,31,101,27
4,31,0,41
4,31,108,54
4,31,0,383
4,29,104,1
4,29,0,263
4,29,113,25
4,29,0,52
4,29,113,43
4,29,0,382
4,27,100,3
4,27,0,237
4,27,91,49
4,27,0,53
4,27,110,44
4,27,0,385
4,36,108,1
4,36,0,233
4,36,94,53
4,36,0,89
4,38,94,7
4,38,0,191
4,26,91,1
4,26,0,180
4,31,113,14
4,31,0,254
4,31,86,34
4,31,0,40
4,31,104,55
4,31,0,384
4,29,108,1
4,29,0,238
4,29,81,48
4,29,0,49
4,29,101,47
4,29,0,384
4,27,95,1
4,27,0,240
4,27,100,48
4,27,0,52
4,27,95,44
4,27,0,383
4,36,97,1
4,36,0,229
4,36,91,58
4,36,0,79
4,38,108,18
4,38,0,188
4,26,88,4
4,26,0,174
4,31,113,18
4,31,0,246
4,31,104,42
4,31,0,54
4,31,104,42
4,31,0,373
4,29,108,11
4,29,0,247
4,29,94,41
4,29,0,53
4,29,97,43
4,29,0,369
4,27,95,15
4,27,0,253
4,27,95,36
4,27,0,56
4,27,95,39
4,27,0,178
4,38,104,13
4,38,0,191
4,36,88,1
4,36,0,248
4,36,83,40
4,36,0,57
4,36,94,39
4,36,0,191
4,34,87,1
4,34,0,187
4,32,80,6
4,32,0,256
4,32,87,32
4,32,0,49
4,32,87,46
4,32,0,192
4,34,95,1
4,34,0,190
4,36,94,2
4,36,0,246
4,36,86,42
4,36,0,50
4,36,94,45
4,36,0,192
4,34,80,1
4,34,0,189
4,32,83,3
4,32,0,232
4,32,80,55
4,32,0,56
4,32,87,40
4,32,0,192
4,31,113,1
4,31,0,188
4,29,104,3
4,29,0,245
4,29,104,43
4,29,0,88
4,31,104,8
4,31,0,184
4,31,94,10
4,31,0,141
4,36,91,50
4,36,0,241
4,36,94,46
4,36,0,91
4,34,80,5
4,34,0,241
4,34,83,47
4,34,0,43
4,27,83,5
4,27,0,43
4,32,80,5
4,32,0,250
4,32,80,38
4,32,0,95
4,31,91,1
4,31,0,159
4,31,104,33
4,31,0,185
4,36,91,7
4,36,0,254
4,36,77,35
4,36,0,57
4,36,97,39
4,36,0,271
4,31,86,16
4,31,0,95
4,36,86,1
4,36,0,235
4,36,91,53
4,36,0,96
4,38,91,1
4,38,0,191
4,26,101,1
4,26,0,163
4,31,113,30
4,31,0,254
4,31,86,34
4,31,0,40
4,31,104,55
4,31,0,384
4,29,108,1
4,29,0,238
4,29,81,48
4,29,0,49
4,29,101,47
4,29,0,384
4,27,95,1
4,27,0,240
4,27,100,48
4,27,0,52
4,27,95,44
4,27,0,383
4,36,97,1
4,36,0,229
4,36,91,58
4,36,0,79
4,38,108,18
4,38,0,188
4,26,88,4
4,26,0,174
4,31,113,18
4,31,0,246
4,31,104,43
4,31,0,54
4,31,104,41
4,31,0,373
4,29,108,11
4,29,0,247
4,29,94,41
4,29,0,53
4,29,97,43
4,29,0,369
4,27,95,14
4,27,0,253
4,27,95,37
4,27,0,57
4,27,95,39
4,27,0,178
4,38,104,12
4,38,0,192
4,36,88,1
4,36,0,248
4,36,83,39
4,36,0,57
4,36,94,39
4,36,0,191
4,34,87,1
4,34,0,187
4,32,80,6
4,32,0,256
4,32,87,32
4,32,0,49
4,32,87,46
4,32,0,289
4,36,94,96
4,36,0,246
4,36,86,42
4,36,0,50
4,36,94,45
4,36,0,192
4,34,80,1
4,34,0,189
4,32,83,3
4,32,0,232
4,32,80,55
4,32,0,55
4,32,87,41
4,32,0,192
4,31,113,1
4,31,0,188
4,29,104,3
4,29,0,244
4,29,104,44
4,29,0,88
4,31,104,8
4,31,0,184
4,31,94,11
4,31,0,141
4,36,91,49
4,36,0,241
4,36,94,46
4,36,0,91
4,34,80,5
4,34,0,241
4,34,83,47
4,34,0,43
4,27,83,5
4,27,0,43
4,32,80,5
4,32,0,250
4,32,80,38
4,32,0,95
4,31,91,1
4,31,0,159
4,31,104,33
4,31,0,185
4,36,91,7
4,36,0,254
4,36,77,35
4,36,0,57
4,36,97,39
4,36,0,271
4,31,86,16
4,31,0,95
4,36,86,1
4,36,0,235
4,36,91,53
4,36,0,96
4,38,91,1
4,38,0,191
4,26,101,1
4,26,0,163
4,31,117,29
4,31,0,253
4,31,97,34
4,31,0,49
4,31,113,47
4,31,0,379
4,29,117,5
4,29,0,254
4,29,104,35
4,29,0,48
4,29,117,49
4,29,0,138
4,34,70,4
4,34,0,49
4,41,97,1
4,41,0,191
4,27,104,1
4,27,0,229
4,27,95,57
4,27,0,53
4,27,100,43
4,27,0,191
4,39,83,1
4,39,0,193
4,36,97,1
4,36,0,220
4,36,86,65
4,36,0,92
4,38,91,5
4,38,0,192
4,26,91,1
4,26,0,171
4,31,117,21
4,31,0,250
4,31,113,37
4,31,0,58
4,31,108,38
4,31,0,192
4,43,104,1
4,43,0,192
4,29,101,1
4,29,0,232
4,29,113,54
4,29,0,61
4,29,108,35
4,29,0,192
4,41,101,1
4,41,0,186
4,27,83,7
4,27,0,226
4,27,104,60
4,27,0,59
4,27,100,38
4,27,0,152
4,27,100,39
4,27,0,192
4,36,91,1
4,36,0,296
4,36,104,39
4,36,0,39
4,38,104,9
4,38,0,33
4,38,108,16
4,38,0,60
4,24,117,35
4,24,0,22
4,26,117,26
4,26,0,28
4,26,122,20
4,26,0,66
4,31,117,79
4,31,0,250
4,31,88,38
4,31,0,54
4,31,104,42
4,31,0,246
4,31,113,43
4,31,0,60
4,29,101,36
4,29,0,240
4,29,101,47
4,29,0,41
4,29,113,55
4,29,0,237
4,29,108,51
4,29,0,56
4,27,104,40
4,27,0,228
4,27,104,59
4,27,0,47
4,27,104,49
4,27,0,244
4,27,95,44
4,27,0,78
4,36,97,18
4,36,0,257
4,36,94,31
4,36,0,78
4,38,113,19
4,38,0,137
4,26,117,6
4,26,0,18
4,26,127,31
4,26,0,111
4,26,127,32
4,26,0,32
4,31,101,17
4,31,0,258
4,31,101,30
4,31,0,43
4,31,108,53
4,31,0,250
4,31,108,38
4,31,0,75
4,29,108,21
4,29,0,252
4,29,108,35
4,29,0,34
4,29,113,62
4,29,0,249
4,29,104,39
4,29,0,95
4,27,91,1
4,27,0,243
4,27,95,46
4,27,0,54
4,27,100,42
4,27,0,191
4,38,108,1
4,38,0,169
4,36,101,22
4,36,0,237
4,36,94,51
4,36,0,63
4,36,104,33
4,36,0,191
4,34,91,1
4,34,0,188
4,32,100,5
4,32,0,246
4,32,95,41
4,32,0,59
4,32,95,37
4,32,0,148
4,32,95,44
4,32,0,45
4,34,87,3
4,34,0,120
4,36,104,24
4,36,0,243
4,36,101,45
4,36,0,58
4,36,104,39
4,36,0,181
4,34,91,10
4,34,0,191
4,32,100,1
4,32,0,248
4,32,80,40
4,32,0,63
4,32,100,33
4,32,0,190
4,31,113,2
4,31,0,192
4,29,104,1
4,29,0,61
4,29,101,35
4,29,0,62
4,29,97,34
4,29,0,61
4,29,101,34
4,29,0,81
4,31,88,16
4,31,0,66
4,31,88,30
4,31,0,62
4,31,86,33
4,31,0,27
4,31,79,22
4,31,0,26
4,31,86,22
4,31,0,24
4,31,101,24
4,31,0,30
4,36,108,19
4,36,0,247
4,36,104,40
4,36,0,90
4,34,83,6
4,34,0,249
4,34,83,39
4,34,0,94
4,32,100,1
4,32,0,250
4,32,87,39
4,32,0,87
4,31,108,8
4,31,0,156
4,31,101,37
4,31,0,185
4,36,101,6
4,36,0,251
4,36,101,38
4,36,0,87
4,34,73,9
4,34,0,242
4,34,83,45
4,34,0,94
4,32,83,2
4,32,0,245
4,32,87,43
4,32,0,85
4,31,101,11
4,31,0,175
4,31,101,18
4,31,0,175
4,36,91,16
4,36,0,256
4,36,97,32
4,36,0,95
4,34,95,2
4,34,0,256
4,34,80,32
4,34,0,92
4,32,91,3
4,32,0,246
4,32,83,42
4,32,0,95
