track,note,velocity,time
0,37,112,11
0,49,88,0
0,35,111,0
0,46,72,0
0,71,85,0
0,42,87,18
0,44,3,83
0,37,117,71
0,49,98,0
0,42,78,0
0,71,104,0
0,38,94,18
0,46,76,0
0,35,85,186
0,44,3,0
0,35,113,186
0,46,76,0
0,44,3,186
0,38,96,186
0,46,74,0
0,35,109,186
0,47,100,0
0,42,80,0
0,37,117,102
0,49,104,0
0,35,111,0
0,46,70,0
0,71,104,0
0,42,82,6
0,44,2,90
0,37,117,90
0,49,110,0
0,35,72,0
0,42,77,0
0,71,116,0
0,38,96,40
0,46,74,0
0,71,125,2
0,64,89,4
0,76,93,8
0,35,96,172
0,44,2,0
0,35,113,186
0,46,72,0
0,44,2,186
0,38,96,186
0,46,76,0
0,44,2,186
0,35,117,186
0,47,106,0
0,45,91,0
0,52,116,0
0,35,111,0
0,42,87,0
0,70,97,0
0,77,90,0
0,45,91,0
0,52,117,0
0,53,114,0
0,59,123,0
0,44,67,6
0,70,49,0
0,44,56,90
0,47,120,0
0,70,56,0
0,35,113,35
0,47,109,0
0,42,73,0
0,70,64,0
0,77,80,0
0,53,112,0
0,59,116,0
0,38,94,6
0,44,67,0
0,47,127,0
0,70,91,0
0,44,67,90
0,70,67,0
0,35,117,3
0,47,113,0
0,47,84,0
0,54,94,0
0,35,85,0
0,42,82,0
0,70,67,0
0,47,84,0
0,54,112,0
0,53,120,0
0,59,123,0
0,70,51,14
0,35,113,90
0,70,95,0
0,44,77,90
0,48,112,0
0,70,58,0
0,77,73,0
0,70,48,90
0,70,67,90
0,77,75,0
0,38,96,90
0,41,127,0
0,70,101,0
0,70,64,90
0,77,71,0
0,30,96,90
0,42,104,0
0,49,94,0
0,42,67,0
0,70,44,0
0,49,94,0
0,48,94,0
0,54,97,0
0,70,72,50
0,35,117,47
0,47,117,0
0,45,91,0
0,50,117,0
0,35,111,0
0,42,79,0
0,70,97,0
0,77,83,0
0,45,91,0
0,50,116,0
0,53,114,0
0,59,127,0
0,44,65,38
0,47,80,0
0,70,58,0
0,44,54,7
0,47,98,0
0,70,56,0
0,35,117,15
0,47,113,0
0,35,72,0
0,42,68,0
0,70,61,0
0,77,77,0
0,53,108,0
0,59,123,0
0,38,96,15
0,44,72,0
0,47,127,0
0,70,93,0
0,44,67,15
0,70,61,0
0,35,96,23
0,42,85,0
0,70,56,0
0,70,61,7
0,35,113,6
0,70,89,0
0,71,84,0
0,76,93,2
0,71,80,3
0,76,86,0
0,48,114,71
0,70,63,0
0,77,83,0
0,70,62,8
0,70,79,2
0,70,78,6
0,70,65,82
0,38,96,16
0,41,127,0
0,70,97,0
0,77,80,0
0,69,75,2
0,59,88,0
0,69,75,0
0,70,81,4
0,61,111,0
0,64,102,11
0,70,93,2
0,77,84,0
0,66,114,13
0,82,65,0
0,68,122,16
0,37,112,4
0,49,88,0
0,35,111,0
0,42,78,0
0,82,70,0
0,71,85,0
0,44,58,17
0,66,118,53
0,44,61,0
0,69,43,0
0,37,117,60
0,49,98,0
0,42,54,0
0,71,104,0
0,64,123,18
0,38,94,0
0,44,87,0
0,82,59,0
0,66,122,156
0,35,85,0
0,42,89,0
0,69,56,0
0,35,113,144
0,82,62,0
0,61,118,186
0,69,47,0
0,38,96,142
0,82,54,0
0,35,109,186
0,47,100,0
0,61,109,0
0,42,73,0
0,69,46,0
0,37,117,102
0,49,104,0
0,64,127,0
0,35,111,0
0,42,85,0
0,82,56,0
0,71,104,0
0,44,70,6
0,44,64,90
0,69,48,0
0,37,117,90
0,49,110,0
0,35,72,0
0,42,74,0
0,71,116,0
0,66,127,40
0,38,96,0
0,44,87,0
0,82,53,0
0,35,96,138
0,42,91,0
0,69,48,0
0,35,113,186
0,82,56,0
0,69,47,186
0,38,96,186
0,82,54,0
0,56,92,5
0,64,123,0
0,64,97,0
0,69,56,0
0,42,87,5
0,42,74,15
0,42,61,39
0,35,117,42
0,47,106,0
0,47,104,0
0,52,104,0
0,35,111,0
0,42,87,0
0,70,97,0
0,77,90,0
0,47,104,0
0,52,104,0
0,53,114,0
0,59,123,0
0,44,67,6
0,70,49,0
0,56,71,74
0,64,119,0
0,64,95,0
0,44,56,0
0,47,120,0
0,70,56,0
0,35,113,14
0,47,109,0
0,47,95,0
0,52,95,0
0,42,73,0
0,70,64,0
0,77,80,0
0,47,95,0
0,52,95,0
0,53,112,0
0,59,116,0
0,56,79,6
0,64,123,0
0,64,104,0
0,38,94,0
0,44,67,0
0,47,127,0
0,70,91,0
0,44,67,48
0,70,67,0
0,35,117,90
0,47,113,0
0,56,80,0
0,64,123,0
0,64,100,0
0,35,85,0
0,42,82,0
0,70,67,0
0,53,120,0
0,59,123,0
0,70,51,42
0,56,91,90
0,64,127,0
0,61,104,0
0,35,113,0
0,70,95,0
0,44,77,3
0,48,112,0
0,70,58,0
0,77,73,0
0,70,48,12
0,70,67,2
0,77,75,0
0,54,85,90
0,66,127,0
0,59,107,0
0,38,96,0
0,41,127,0
0,70,101,0
0,70,64,5
0,77,71,0
0,30,96,19
0,42,104,0
0,42,84,0
0,42,67,0
0,70,44,0
0,42,84,0
0,48,94,0
0,54,97,0
0,70,72,1
0,35,117,23
0,47,117,0
0,52,87,0
0,68,127,0
0,47,94,0
0,52,103,0
0,35,111,0
0,42,79,0
0,70,97,0
0,77,83,0
0,47,94,0
0,52,103,0
0,53,114,0
0,59,127,0
0,59,113,6
0,44,65,11
0,47,80,0
0,70,58,0
0,44,54,90
0,47,98,0
0,70,56,0
0,35,117,59
0,47,113,0
0,35,72,0
0,42,68,0
0,70,61,0
0,77,77,0
0,53,108,0
0,59,123,0
0,38,96,0
0,44,72,0
0,47,127,0
0,70,93,0
0,44,67,9
0,70,61,0
0,35,96,90
0,42,85,0
0,70,56,0
0,70,61,90
0,35,113,12
0,70,89,0
0,48,114,11
0,70,63,0
0,77,83,0
0,70,62,90
0,70,65,90
0,38,96,90
0,41,127,0
0,70,97,0
0,77,80,0
0,70,81,90
0,70,93,90
0,77,84,0
0,82,65,90
0,37,112,90
0,49,88,0
0,35,111,0
0,46,72,0
0,71,85,0
0,42,87,18
0,44,3,65
0,37,117,90
0,49,98,0
0,42,78,0
0,71,104,0
0,38,94,18
0,46,76,0
0,59,111,186
0,35,85,0
0,44,3,0
0,35,113,17
0,46,76,0
0,44,3,61
0,38,96,21
0,46,74,0
0,35,109,5
0,47,100,0
0,42,80,0
0,37,117,102
0,49,104,0
0,35,111,0
0,46,70,0
0,71,104,0
0,42,82,6
0,44,2,90
0,37,117,90
0,49,110,0
0,35,72,0
0,42,77,0
0,71,116,0
0,38,96,40
0,46,74,0
0,56,100,186
0,35,96,0
0,44,2,0
0,35,113,33
0,46,72,0
0,44,2,186
0,38,96,11
0,46,76,0
0,44,2,7
0,61,95,77
0,64,93,0
0,59,77,2
0,35,117,8
0,47,106,0
0,49,104,0
0,52,94,0
0,61,97,0
0,35,111,0
0,42,87,0
0,70,97,0
0,77,90,0
0,49,104,0
0,52,104,0
0,53,114,0
0,59,123,0
0,44,67,6
0,70,49,0
0,44,56,90
0,47,120,0
0,70,56,0
0,35,113,6
0,47,109,0
0,59,81,0
0,61,104,0
0,64,95,0
0,47,81,0
0,52,71,0
0,59,95,0
0,42,73,0
0,70,64,0
0,77,80,0
0,47,95,0
0,52,95,0
0,53,112,0
0,59,116,0
0,38,94,6
0,44,67,0
0,47,127,0
0,70,91,0
0,44,67,23
0,70,67,0
0,59,87,82
0,61,108,0
0,64,101,0
0,35,117,8
0,47,113,0
0,35,85,0
0,42,82,0
0,70,67,0
0,53,120,0
0,59,123,0
0,70,51,42
0,35,113,90
0,70,95,0
0,59,91,14
0,61,108,0
0,64,104,0
0,44,77,38
0,48,112,0
0,70,58,0
0,77,73,0
0,59,84,6
0,64,93,0
0,61,97,2
0,70,48,82
0,70,67,90
0,77,75,0
0,38,96,24
0,41,127,0
0,70,101,0
0,59,79,70
0,61,98,2
0,64,91,0
0,70,64,18
0,77,71,0
0,30,96,80
0,42,104,0
0,42,84,0
0,42,67,0
0,70,44,0
0,42,84,0
0,48,94,0
0,54,97,0
0,70,72,50
0,35,117,90
0,47,117,0
0,59,95,0
0,61,100,0
0,64,101,0
0,49,94,0
0,52,93,0
0,61,87,0
0,35,111,0
0,42,79,0
0,70,97,0
0,77,83,0
0,49,94,0
0,52,103,0
0,53,114,0
0,59,127,0
0,44,65,11
0,47,80,0
0,70,58,0
0,44,54,90
0,47,98,0
0,70,56,0
0,59,79,8
0,61,91,0
0,64,89,0
0,35,117,2
0,47,113,0
0,47,86,0
0,59,93,0
0,35,72,0
0,42,68,0
0,70,61,0
0,77,77,0
0,47,95,0
0,53,108,0
0,59,123,0
0,38,96,6
0,44,72,0
0,47,127,0
0,70,93,0
0,44,67,9
0,70,61,0
0,59,89,78
0,61,106,0
0,64,101,0
0,35,96,12
0,42,85,0
0,70,56,0
0,70,61,78
0,35,113,90
0,70,89,0
0,59,97,8
0,61,110,0
0,64,104,0
0,48,114,46
0,70,63,0
0,77,83,0
0,59,111,6
0,61,124,0
0,64,117,0
0,70,62,71
0,70,65,37
0,38,96,37
0,41,127,0
0,70,97,0
0,77,80,0
0,59,72,5
0,70,81,4
0,61,102,0
0,64,104,35
0,70,93,2
0,77,84,0
0,66,106,29
0,82,65,0
0,68,122,16
0,37,112,4
0,49,88,0
0,59,104,0
0,63,108,0
0,35,111,0
0,46,78,0
0,82,70,0
0,71,85,0
0,66,112,6
0,44,61,0
0,69,43,0
0,37,117,60
0,49,98,0
0,42,54,0
0,71,104,0
0,64,123,18
0,38,94,0
0,44,87,0
0,82,59,0
0,66,122,156
0,35,85,0
0,42,89,0
0,69,56,0
0,35,113,144
0,82,62,0
0,61,118,186
0,69,47,0
0,38,96,142
0,82,54,0
0,35,109,186
0,47,100,0
0,61,109,0
0,42,73,0
0,69,46,0
0,37,117,102
0,49,104,0
0,64,127,0
0,35,111,0
0,42,85,0
0,82,56,0
0,71,104,0
0,44,70,6
0,44,64,90
0,69,48,0
0,37,117,90
0,49,110,0
0,35,72,0
0,42,74,0
0,71,116,0
0,66,127,40
0,38,96,0
0,44,87,0
0,82,53,0
0,35,96,138
0,42,91,0
0,69,48,0
0,35,113,186
0,82,56,0
0,69,47,186
0,38,96,186
0,82,54,0
0,69,56,186
0,42,87,42
0,42,74,42
0,42,61,42
0,35,117,42
0,47,106,0
0,47,104,0
0,52,104,0
0,35,111,0
0,42,87,0
0,70,97,0
0,77,90,0
0,47,104,0
0,52,104,0
0,53,114,0
0,59,123,0
0,44,67,6
0,70,49,0
0,44,56,90
0,47,120,0
0,70,56,0
0,35,113,14
0,47,109,0
0,47,95,0
0,52,95,0
0,42,73,0
0,70,64,0
0,77,80,0
0,47,95,0
0,52,95,0
0,53,112,0
0,59,116,0
0,38,94,6
0,44,67,0
0,47,127,0
0,70,91,0
0,44,67,90
0,70,67,0
0,35,117,90
0,47,113,0
0,35,85,0
0,42,82,0
0,70,67,0
0,53,120,0
0,59,123,0
0,70,51,42
0,35,113,90
0,70,95,0
0,44,77,90
0,48,112,0
0,70,58,0
0,77,73,0
0,70,48,90
0,70,67,90
0,77,75,0
0,38,96,90
0,41,127,0
0,70,101,0
0,70,64,90
0,77,71,0
0,30,96,90
0,42,104,0
0,42,84,0
0,42,67,0
0,70,44,0
0,42,84,0
0,48,94,0
0,54,97,0
0,70,72,50
0,35,117,90
0,47,117,0
0,47,94,0
0,52,103,0
0,35,111,0
0,42,79,0
0,70,97,0
0,77,83,0
0,47,94,0
0,52,103,0
0,53,114,0
0,59,127,0
0,44,65,11
0,47,80,0
0,70,58,0
0,44,54,90
0,47,98,0
0,70,56,0
0,35,117,90
0,47,113,0
0,35,72,0
0,42,68,0
0,70,61,0
0,77,77,0
0,53,108,0
0,59,123,0
0,38,96,0
0,44,72,0
0,47,127,0
0,70,93,0
0,44,67,9
0,70,61,0
0,35,96,90
0,42,85,0
0,70,56,0
0,70,61,90
0,35,113,90
0,70,89,0
0,48,114,90
0,70,63,0
0,77,83,0
0,70,62,21
0,70,65,1
0,38,96,90
0,41,127,0
0,70,97,0
0,77,80,0
0,70,81,90
0,70,93,71
0,77,84,0
0,82,65,35
0,35,111,90
0,42,78,0
0,82,70,0
0,44,58,90
0,50,60,0
0,39,76,0
0,37,110,72
0,49,94,0
0,44,61,0
0,69,43,0
0,43,105,0
0,55,97,0
0,44,92,0
0,42,54,52
0,41,93,0
0,53,70,0
0,42,81,0
0,37,112,34
0,49,92,0
0,78,127,0
0,28,87,0
0,38,94,0
0,44,87,0
0,82,59,0
0,43,99,0
0,55,94,0
0,44,108,0
0,43,97,9
0,55,87,0
0,44,106,0
0,35,107,52
0,47,89,0
0,35,85,0
0,42,89,0
0,69,56,0
0,41,102,0
0,53,88,0
0,42,102,0
0,37,112,5
0,49,88,0
0,43,114,0
0,55,117,0
0,44,127,0
0,35,113,3
0,82,62,0
0,78,122,171
0,69,47,0
0,28,85,22
0,38,96,0
0,82,54,0
0,42,73,186
0,69,46,0
0,76,113,186
0,35,111,0
0,42,85,0
0,82,56,0
0,44,70,90
0,38,99,0
0,50,89,0
0,39,95,0
0,37,110,26
0,49,91,0
0,44,64,0
0,69,48,0
0,43,103,0
0,55,89,0
0,44,104,0
0,35,72,46
0,42,74,0
0,41,91,0
0,53,75,0
0,42,102,0
0,37,110,34
0,49,94,0
0,78,104,0
0,28,94,0
0,38,96,0
0,44,87,0
0,82,53,0
0,43,107,0
0,55,97,0
0,44,110,0
0,43,101,46
0,55,89,0
0,44,104,0
0,35,113,26
0,47,97,0
0,35,96,0
0,42,91,0
0,69,48,0
0,41,96,0
0,53,92,0
0,42,104,0
0,37,117,44
0,49,91,0
0,43,111,0
0,55,101,0
0,44,127,0
0,76,110,4
0,35,113,0
0,82,56,0
0,28,92,22
0,69,47,0
0,78,110,186
0,38,96,0
0,82,54,0
0,69,56,20
0,76,116,27
0,35,111,49
0,47,110,0
0,57,58,0
0,54,80,0
0,59,84,0
0,61,85,0
0,35,111,0
0,42,78,0
0,82,70,0
0,47,104,0
0,52,104,0
0,42,120,0
0,59,127,0
0,44,58,90
0,76,101,28
0,44,61,0
0,69,43,0
0,35,116,14
0,47,113,0
0,42,54,0
0,47,95,0
0,52,95,0
0,42,104,0
0,59,127,0
0,76,116,2
0,28,95,0
0,38,94,0
0,44,87,0
0,82,59,0
0,76,116,118
0,35,85,0
0,42,89,0
0,69,56,0
0,78,108,136
0,35,113,0
0,77,76,0
0,82,62,0
0,77,67,6
0,62,55,42
0,69,47,0
0,78,108,90
0,77,80,0
0,28,98,35
0,38,96,0
0,82,54,0
0,30,97,7
0,42,98,0
0,78,106,0
0,54,79,0
0,42,73,0
0,69,46,0
0,42,84,0
0,37,86,0
0,54,91,0
0,35,112,137
0,47,113,0
0,57,56,0
0,59,57,0
0,61,64,0
0,54,87,0
0,59,93,0
0,61,92,0
0,64,87,0
0,35,111,0
0,42,85,0
0,82,56,0
0,47,94,0
0,52,103,0
0,42,110,0
0,59,127,0
0,44,70,11
0,76,78,32
0,44,64,0
0,69,48,0
0,35,107,42
0,47,116,0
0,35,72,0
0,42,74,0
0,42,104,0
0,59,127,0
0,28,98,0
0,38,96,0
0,44,87,0
0,82,53,0
0,35,96,78
0,42,91,0
0,69,48,0
0,77,74,0
0,77,64,90
0,35,113,90
0,62,62,0
0,82,56,0
0,48,127,90
0,77,68,0
0,69,47,90
0,77,73,42
0,71,95,3
0,28,106,0
0,38,96,0
0,45,127,0
0,82,54,0
0,77,79,25
0,69,56,90
0,42,87,42
0,42,74,42
0,42,61,42
0,68,106,12
0,35,111,0
0,42,78,0
0,82,70,0
0,44,58,90
0,50,60,0
0,39,76,0
0,37,110,72
0,49,94,0
0,44,61,0
0,69,43,0
0,43,105,0
0,55,97,0
0,44,92,0
0,42,54,34
0,41,93,0
0,53,70,0
0,42,81,0
0,37,112,34
0,49,92,0
