track,note,velocity,time
1,45,55,1184
1,52,53,64
1,57,52,72
1,64,54,56
1,69,55,72
1,73,59,64
1,76,61,88
1,73,89,96
1,71,91,28
1,69,89,0
1,68,93,0
1,69,73,12
1,64,75,16
1,66,66,0
1,73,86,308
1,71,85,52
1,69,69,12
1,68,87,4
1,69,77,28
1,62,73,12
1,64,61,96
1,73,85,372
1,71,93,76
1,69,97,36
1,68,81,60
1,69,97,60
1,62,76,28
1,64,71,96
1,47,76,88
1,66,72,0
1,57,70,0
1,62,77,4
1,57,66,60
1,59,102,76
1,47,73,144
1,61,73,0
1,52,81,0
1,57,85,4
1,54,67,116
1,57,80,0
1,62,91,0
1,61,75,8
1,45,65,0
1,57,85,0
1,52,78,0
1,52,54,0
1,61,54,4
1,52,55,24
1,54,73,140
1,62,92,0
1,45,68,0
1,57,73,0
1,57,68,148
1,61,58,0
1,45,62,0
1,52,64,0
1,52,65,160
1,61,49,108
1,61,61,4
1,54,61,4
1,57,70,0
1,42,58,4
1,54,64,136
1,66,61,4
1,68,67,4
1,69,85,8
1,40,77,8
1,68,91,4
1,64,83,188
1,52,73,8
1,61,77,0
1,64,79,116
1,38,65,140
1,66,70,0
1,57,68,0
1,62,80,0
1,50,61,0
1,52,78,4
1,40,85,0
1,68,67,0
1,59,66,0
1,64,73,0
1,64,106,4
1,59,91,0
1,68,84,8
1,64,75,4
1,45,74,0
1,57,63,0
1,61,58,4
1,69,77,0
1,57,52,64
1,57,53,36
1,69,95,56
1,71,102,40
1,68,77,64
1,64,81,0
1,45,80,0
1,61,84,0
1,57,69,0
1,56,82,156
1,59,92,0
1,64,98,0
1,57,82,68
1,59,80,40
1,45,75,4
1,57,77,0
1,64,79,0
1,61,95,0
1,57,52,124
1,69,80,84
1,66,65,24
1,61,63,0
1,69,74,0
1,54,62,0
1,68,73,156
1,61,67,0
1,64,79,0
1,52,70,0
1,61,64,8
1,68,64,120
1,61,89,12
1,66,81,0
1,50,84,0
1,57,94,0
1,57,70,28
1,66,74,0
1,61,55,4
1,64,73,4
1,52,79,0
1,59,80,0
1,52,80,92
1,64,86,80
1,68,87,0
1,69,94,4
1,66,87,0
1,68,110,4
1,71,112,0
1,64,94,8
1,73,87,0
1,69,97,0
1,45,97,4
1,57,85,0
1,73,63,48
1,64,50,0
1,57,83,0
1,66,82,168
1,69,91,0
1,61,84,0
1,54,95,0
1,61,56,48
1,69,90,44
1,66,89,0
1,61,85,0
1,61,55,0
1,62,92,156
1,50,92,0
1,66,85,0
1,57,85,0
1,57,62,24
1,66,72,124
1,62,76,0
1,57,73,4
1,57,56,76
1,50,44,28
1,64,100,52
1,59,87,0
1,68,101,0
1,52,86,0
1,59,65,12
1,68,81,140
1,64,91,0
1,59,79,0
1,52,55,36
1,57,69,168
1,64,79,0
1,69,90,0
1,73,80,0
1,45,110,4
1,64,85,48
1,57,81,8
1,54,97,0
1,66,85,0
1,61,89,4
1,69,91,0
1,66,59,120
1,61,66,0
1,69,65,0
1,54,61,92
1,50,83,148
1,66,84,0
1,57,87,0
1,62,98,0
1,66,87,84
1,62,90,0
1,57,87,4
1,50,73,92
1,57,62,4
1,68,78,20
1,64,80,0
1,59,84,0
1,52,80,4
1,64,78,116
1,68,74,0
1,59,77,0
1,52,55,0
1,61,95,160
1,64,92,0
1,57,100,0
1,45,88,4
1,57,73,156
1,52,80,8
1,61,99,20
1,64,102,0
1,57,98,0
1,52,106,4
1,66,95,48
1,57,76,0
1,62,102,0
1,45,117,4
1,66,104,48
1,45,108,0
1,57,102,0
1,62,108,0
1,57,80,88
1,59,86,36
1,61,104,12
1,57,106,0
1,45,117,4
1,61,103,56
1,57,86,0
1,62,90,4
1,64,91,8
1,64,102,24
1,61,82,0
1,56,104,0
1,59,106,0
1,40,112,0
1,52,80,0
1,60,108,12
1,58,93,0
1,63,104,0
1,55,95,4
1,40,98,0
1,54,101,112
1,59,100,0
1,57,97,4
1,62,108,0
1,40,117,0
1,45,108,8
1,57,100,4
1,61,99,0
1,64,106,0
1,61,66,112
1,57,66,0
1,64,71,0
1,57,59,96
1,66,97,12
1,57,108,0
1,62,104,0
1,45,114,0
1,66,104,52
1,57,108,0
1,62,106,0
1,61,104,4
1,64,110,0
1,45,117,0
1,57,117,0
1,73,87,20
1,64,92,0
1,69,83,4
1,66,99,68
1,69,102,0
1,74,112,0
1,45,106,68
1,73,107,0
1,69,108,0
1,57,120,4
1,64,125,0
1,56,116,4
1,44,104,0
1,68,110,4
1,71,110,0
1,64,112,0
1,66,97,8
1,69,106,0
1,61,97,0
1,54,104,0
1,61,104,0
1,68,91,16
1,61,93,0
1,64,100,0
1,52,98,0
1,61,70,32
1,68,58,60
1,50,100,20
1,66,99,0
1,62,106,0
1,57,102,0
1,68,110,4
1,52,108,0
1,64,114,0
1,59,117,0
1,69,117,44
1,61,119,0
1,64,117,0
1,52,114,0
1,68,113,4
1,71,125,0
1,64,122,0
1,45,97,20
1,57,97,0
1,64,102,0
1,69,95,0
1,73,95,0
1,73,110,52
1,69,73,0
1,64,60,176
1,57,66,0
1,69,66,0
1,71,94,128
1,68,91,0
1,64,92,0
1,57,97,4
1,45,92,0
1,71,85,56
1,68,77,0
1,64,79,0
1,61,97,4
1,69,97,0
1,64,95,0
1,45,91,0
1,57,97,0
1,69,63,64
1,61,99,0
1,57,95,92
1,64,98,32
1,69,98,16
1,68,93,4
1,61,104,0
1,64,108,0
1,56,107,0
1,49,101,0
1,61,87,84
1,66,85,64
1,61,95,0
1,54,93,0
1,69,95,0
1,69,97,48
1,61,99,0
1,66,91,0
1,61,45,0
1,68,89,0
1,61,95,0
1,52,80,0
1,64,104,0
1,68,74,92
1,61,68,0
1,66,85,12
1,61,95,0
1,57,91,0
1,50,80,0
1,57,73,84
1,52,78,112
1,64,90,0
1,56,74,0
1,59,87,0
1,56,93,64
1,59,70,48
1,64,56,92
1,61,58,52
1,45,79,0
1,64,73,0
1,57,66,0
1,57,66,24
1,61,78,144
1,64,81,4
1,57,62,84
1,61,40,56
1,64,53,0
1,57,48,0
1,45,70,148
1,66,101,4
1,74,110,0
1,69,104,0
1,45,80,0
1,57,102,4
1,57,92,0
1,69,83,80
1,71,90,0
1,73,104,4
1,69,102,0
1,64,95,4
1,45,100,0
1,57,94,4
1,45,95,32
1,73,95,76
1,69,104,0
1,64,94,4
1,66,99,52
1,74,100,0
1,69,97,0
1,45,104,0
1,45,98,4
1,73,95,0
1,64,110,0
1,69,110,0
1,57,114,0
1,64,86,20
1,57,108,24
1,68,104,40
1,56,116,0
1,71,112,0
1,64,112,0
1,64,75,92
1,56,75,16
1,61,85,0
1,69,88,0
1,66,91,0
1,54,107,4
1,54,67,56
1,61,67,8
1,68,71,32
1,69,102,16
1,68,116,28
1,52,95,0
1,64,81,188
1,61,72,0
1,68,101,8
1,64,98,12
1,52,66,52
1,66,81,4
1,57,85,0
1,62,98,0
1,50,90,0
1,66,36,44
1,62,59,4
1,57,42,4
1,57,70,84
1,50,63,8
1,68,97,0
1,64,117,0
1,59,102,0
1,52,106,4
1,69,91,8
1,52,100,0
1,64,108,0
1,61,113,0
1,64,117,24
1,68,101,0
1,52,110,0
1,71,117,0
1,57,102,8
1,45,102,0
1,73,107,0
1,64,108,0
1,69,110,0
1,69,80,68
1,73,71,0
1,64,70,128
1,57,61,8
1,68,97,56
1,64,98,0
1,71,97,0
1,57,81,4
1,45,88,0
1,64,50,8
1,71,73,128
1,68,66,0
1,64,63,4
1,57,38,60
1,61,67,8
1,69,81,0
1,64,81,0
1,57,85,0
1,45,91,4
1,61,58,120
1,64,73,44
1,69,91,12
1,64,68,8
1,71,112,4
1,68,101,0
1,64,106,0
1,49,99,0
1,68,67,52
1,64,75,0
1,71,77,0
1,54,91,8
1,69,97,0
1,66,85,0
1,61,93,0
1,61,53,40
1,61,104,152
1,66,97,0
1,69,104,0
1,61,61,12
1,68,72,16
1,64,88,0
1,61,72,0
1,52,85,0
1,61,74,16
1,50,91,24
1,66,87,0
1,61,91,0
1,57,86,0
1,64,73,0
1,56,65,0
1,59,77,0
1,52,68,0
1,54,72,128
1,56,63,52
1,59,71,72
1,68,59,300
1,59,100,328
1,63,107,0
1,66,101,0
1,71,112,0
1,63,95,152
1,68,95,196
1,71,102,0
1,63,95,0
1,56,101,0
1,63,45,16
1,71,77,4
1,68,66,0
1,63,74,0
1,63,91,4
1,68,84,0
1,71,97,0
1,52,95,0
1,63,72,84
1,63,84,64
1,59,73,0
1,61,104,164
1,70,99,0
1,66,91,0
1,54,99,0
1,61,59,24
1,61,91,4
1,66,79,0
1,70,87,0
1,61,81,16
1,63,104,148
1,71,102,0
1,66,87,0
1,59,92,0
1,63,56,12
1,71,85,128
1,66,75,192
1,63,79,0
1,56,113,92
1,68,97,4
1,63,99,0
1,71,102,0
1,71,80,100
1,63,72,0
1,68,70,0
1,63,71,104
1,68,89,156
1,61,104,0
1,71,108,0
1,64,97,4
1,49,91,0
1,68,73,112
1,61,81,0
1,64,88,0
1,71,86,0
1,61,64,128
1,61,107,88
1,70,107,0
1,54,99,0
1,66,87,0
1,61,61,8
1,70,85,136
1,66,75,4
1,61,75,0
1,61,79,72
1,54,72,12
1,66,93,16
1,63,107,0
1,71,108,0
1,59,90,4
1,71,92,4
1,66,82,0
1,63,84,0
1,63,61,108
1,59,75,0
1,71,100,52
1,63,101,0
1,68,91,0
1,56,104,0
1,63,73,104
1,68,67,0
1,71,74,0
1,63,39,0
1,68,93,172
1,63,97,0
1,71,102,0
1,59,94,0
1,52,90,0
1,68,52,108
1,63,56,4
1,71,61,0
1,63,65,128
1,70,91,4
1,66,89,0
1,61,99,0
1,54,99,0
1,61,58,12
1,70,89,140
1,61,89,0
1,66,79,0
1,61,75,4
1,63,99,148
1,71,108,4
1,66,93,0
1,59,102,0
1,71,86,72
1,66,82,192
1,63,79,0
1,63,97,44
1,71,106,0
1,56,110,0
1,68,95,0
1,63,71,36
1,63,95,156
1,71,102,0
1,68,85,0
1,63,57,4
1,61,101,152
1,71,95,0
1,68,82,0
1,64,97,0
1,49,99,0
1,61,91,100
1,61,95,56
1,68,84,0
1,71,97,0
1,64,102,0
1,51,104,0
1,68,58,8
1,71,68,0
1,64,84,0
1,61,73,4
1,52,87,4
1,66,95,28
1,61,97,0
1,70,104,0
1,54,107,0
1,61,74,80
1,70,101,112
1,61,104,0
1,66,97,0
1,71,110,12
1,63,99,0
1,59,112,0
1,66,91,0
1,66,4,64
1,63,60,0
1,63,87,80
1,66,61,52
1,63,52,0
1,59,60,8
1,68,95,52
1,63,101,0
1,56,107,0
1,71,104,0
1,63,68,12
1,63,67,124
1,68,64,0
1,71,62,4
1,56,63,144
1,63,93,120
1,68,91,0
1,71,98,0
1,59,94,0
1,52,94,0
1,68,72,116
1,71,83,0
1,63,74,0
1,63,53,24
1,61,97,4
1,66,95,0
1,70,97,0
1,54,85,0
1,61,67,16
1,61,104,0
1,66,104,0
1,70,107,0
1,61,43,8
1,71,104,8
1,63,97,0
1,66,91,0
1,59,91,0
1,71,71,68
1,63,59,0
1,66,64,196
1,63,95,8
1,68,91,0
1,71,108,0
1,56,101,0
1,71,85,108
1,68,71,0
1,63,78,0
1,56,87,100
1,63,89,4
1,68,87,0
1,52,98,0
1,59,100,0
1,71,97,0
1,63,93,100
1,68,85,0
1,71,102,0
1,59,72,0
1,58,70,36
1,66,67,0
1,54,78,0
1,70,74,0
1,59,73,12
1,56,74,0
1,71,75,0
1,68,73,0
1,73,68,4
1,58,67,0
1,70,72,0
1,61,61,0
1,75,96,4
1,66,85,96
1,73,95,84
1,71,86,76
1,70,83,4
1,73,95,68
1,66,81,88
1,68,72,60
1,75,99,24
1,66,85,0
1,73,100,20
1,71,87,0
1,70,95,4
1,71,88,4
1,64,87,16
1,66,66,96
1,75,95,64
1,66,83,16
1,73,89,88
1,71,73,4
1,70,77,96
1,71,88,84
1,63,74,4
1,64,65,8
1,66,67,36
1,54,42,2336
1,59,56,16
1,61,65,24
1,63,73,24
1,35,83,32
1,71,40,348
1,73,50,44
1,75,67,56
1,83,37,432
1,85,41,44
1,87,55,16
2,26,108,30300
2,26,108,72
2,33,108,96
2,38,108,76
2,37,108,0
2,35,108,4
2,33,108,4
2,33,108,56
2,33,108,72
2,33,108,60
2,33,108,52
2,32,108,4
2,30,108,40
2,30,108,48
2,28,108,192
2,26,108,764
2,26,108,76
2,28,108,4
2,30,108,672
2,32,108,8
2,33,108,44
2,33,108,56
2,33,108,60
2,28,108,384
2,30,108,280
2,32,108,4
2,33,108,12
2,33,108,100
2,33,108,72
2,32,108,384
2,30,108,4
2,30,108,72
2,28,108,16
2,28,108,56
2,26,108,0
2,26,108,32
2,28,108,0
2,28,108,28
2,33,108,16
2,32,108,12
2,30,108,192
2,28,108,0
2,26,108,192
2,26,108,48
2,28,108,0
2,30,108,672
2,32,108,40
2,33,108,4
2,32,108,8
2,30,108,192
2,28,108,4
2,26,108,192
2,26,108,44
2,28,108,12
2,28,108,24
2,33,108,192
2,33,108,64
2,33,108,96
2,28,108,576
2,33,108,188
2,28,108,764
2,33,108,32
2,33,108,56
2,33,108,72
2,33,108,52
2,33,108,52
2,33,108,52
2,32,108,4
2,30,108,40
2,30,108,48
2,28,108,192
2,26,108,764
2,26,108,76
2,28,108,4
2,30,108,672
2,32,108,8
2,33,108,44
2,33,108,56
2,33,108,60
2,28,108,384
2,30,108,280
2,32,108,4
2,33,108,12
2,33,108,56
2,35,108,96
2,37,108,88
2,37,108,48
2,32,108,48
2,25,108,8
2,25,108,32
2,30,108,4
2,30,108,28
2,28,108,4
2,28,108,32
2,26,108,192
2,26,108,52
2,28,108,192
2,28,108,36
2,33,108,32
2,33,108,56
2,33,108,72
2,33,108,52
2,33,108,100
2,33,108,52
2,32,108,4
2,30,108,40
2,30,108,48
2,28,108,192
2,26,108,764
2,26,108,76
2,28,108,4
2,30,108,672
2,32,108,8
2,33,108,44
2,33,108,60
2,33,108,88
2,25,108,28
2,28,108,36
2,30,108,48
2,33,108,28
2,33,108,72
2,35,108,20
2,37,108,28
2,25,108,40
2,30,108,64
2,30,108,32
2,28,108,0
2,26,108,768
2,28,108,760
2,35,108,48
2,34,108,8
2,32,108,192
2,30,108,8
2,28,108,192
2,28,108,52
2,30,108,192
2,30,108,24
2,35,108,8
2,23,108,44
2,30,108,8
2,32,108,192
2,30,108,0
2,25,108,36
2,25,108,36
2,30,108,192
2,35,108,4
2,34,108,8
2,32,108,192
2,30,108,8
2,28,108,192
2,28,108,52
2,30,108,192
2,30,108,24
2,35,108,8
2,23,108,44
2,30,108,8
2,32,108,192
2,30,108,0
2,25,108,36
2,25,108,44
2,27,108,16
2,28,108,192
2,30,108,0
2,30,108,80
2,42,108,96
2,37,108,8
2,32,108,8
2,30,108,0
2,35,108,96
2,34,108,32
2,32,108,4
2,30,108,576
2,28,108,4
2,28,108,36
2,30,108,8
2,32,108,8
2,34,108,20
2,35,108,32
2,34,108,44
2,32,108,192
2,30,108,0
2,28,108,0
2,30,108,768
2,32,108,0
2,34,108,4
2,35,108,32
2,40,108,0
2,35,108,16
2,42,108,8
2,40,108,0
2,39,108,96
2,42,108,1532
2,30,108,24
2,23,108,2304
3,57,59,21068
3,61,45,0
3,45,55,0
3,52,51,0
3,54,60,4
3,42,56,0
3,54,56,4
3,38,58,0
3,57,58,0
3,56,56,4
3,40,63,0
3,59,63,8
3,57,67,4
3,52,60,0
3,45,53,0
3,61,56,4
3,42,59,4
3,54,60,4
3,38,63,0
3,57,62,0
3,54,61,0
3,66,60,4
3,56,62,0
3,59,63,0
3,64,72,4
3,40,60,4
3,81,56,0
3,69,68,0
3,61,58,4
3,57,60,0
3,52,58,0
3,45,57,0
3,93,46,156
3,73,79,2376
3,85,77,0
3,76,86,196
3,88,92,0
3,85,80,180
3,97,90,0
3,83,85,0
3,95,73,4
3,81,73,4
3,93,66,0
3,61,87,4916
3,57,86,0
