track,note,velocity,time
0,70,86,2492
0,39,115,0
0,75,106,0
0,51,104,0
0,79,96,0
0,70,97,136
0,75,110,150
0,51,112,0
0,79,107,0
0,72,99,0
0,51,101,0
0,68,85,0
0,80,96,0
0,39,109,0
0,75,106,0
0,75,102,0
0,72,103,0
0,51,98,0
0,68,106,0
0,70,67,384
0,51,112,0
0,39,121,0
0,72,120,0
0,74,112,12
0,70,112,0
0,77,120,2
0,51,115,164
0,74,119,166
0,70,118,0
0,51,115,0
0,39,120,0
0,68,115,0
0,63,100,84
0,60,107,146
0,72,126,140
0,51,124,54
0,68,118,164
0,63,109,192
0,39,123,0
0,67,105,0
0,39,110,0
0,51,82,0
0,58,74,54
0,67,87,6
0,63,113,28
0,58,108,74
0,79,99,0
0,77,99,104
0,70,126,0
0,79,99,120
0,51,110,0
0,67,104,4
0,77,99,0
0,79,99,110
0,63,115,0
0,79,99,0
0,51,87,0
0,67,106,0
0,44,110,0
0,60,77,0
0,44,124,0
0,67,91,0
0,79,99,62
0,51,117,0
0,60,108,34
0,67,114,192
0,65,70,0
0,65,114,0
0,63,81,0
0,63,117,0
0,44,121,0
0,38,119,0
0,38,110,0
0,62,118,0
0,50,87,0
0,58,81,0
0,65,84,76
0,53,117,68
0,77,99,144
0,58,115,0
0,62,120,86
0,77,99,0
0,38,112,58
0,82,99,0
0,53,115,0
0,38,110,0
0,77,99,78
0,41,110,0
0,58,118,0
0,42,110,64
0,79,99,0
0,58,75,0
0,50,77,0
0,43,110,0
0,67,120,0
0,43,125,0
0,67,87,0
0,58,111,66
0,62,109,38
0,67,110,8
0,80,99,0
0,79,99,18
0,43,115,0
0,77,99,0
0,58,68,0
0,58,106,0
0,65,85,192
0,65,120,0
0,58,110,0
0,48,127,0
0,36,110,0
0,67,94,0
0,55,117,36
0,63,72,0
0,60,108,8
0,60,77,0
0,48,96,4
0,67,99,0
0,72,122,0
0,67,107,0
0,75,99,90
0,75,99,0
0,31,110,0
0,63,118,0
0,36,110,0
0,74,99,0
0,60,123,0
0,48,108,102
0,75,99,0
0,46,124,0
0,34,110,0
0,67,106,0
0,63,89,44
0,60,115,0
0,60,77,16
0,63,113,0
0,46,90,192
0,75,99,0
0,72,127,0
0,67,112,134
0,75,99,0
0,36,110,94
0,63,117,0
0,60,117,40
0,34,110,0
0,45,127,0
0,67,95,0
0,33,110,0
0,63,84,36
0,60,117,0
0,60,81,8
0,75,99,0
0,63,115,0
0,79,99,80
0,45,80,0
0,72,127,0
0,45,101,54
0,67,116,0
0,75,99,0
0,63,110,66
0,77,99,8
0,60,88,0
0,33,110,0
0,79,99,6
0,44,127,0
0,32,110,0
0,44,85,0
0,63,122,0
0,77,99,0
0,60,109,38
0,75,99,0
0,60,76,4
0,56,105,0
0,65,127,14
0,70,99,0
0,67,84,0
0,72,99,44
0,44,111,0
0,32,110,34
0,60,61,0
0,56,102,0
0,75,99,0
0,67,75,56
0,63,124,0
0,56,108,88
0,32,110,0
0,63,127,0
0,34,110,0
0,46,127,0
0,67,88,0
0,63,82,26
0,58,76,62
0,51,118,0
0,55,109,102
0,67,83,0
0,58,116,0
0,46,120,54
0,46,77,0
0,75,99,0
0,63,68,132
0,58,105,0
0,75,99,0
0,58,61,22
0,75,99,0
0,63,122,0
0,46,120,0
0,34,110,0
0,34,110,0
0,46,86,0
0,79,99,0
0,46,125,0
0,62,112,0
0,53,89,100
0,77,99,0
0,53,124,0
0,62,86,60
0,58,120,0
0,70,127,192
0,70,94,0
0,65,115,142
0,62,112,32
0,75,99,0
0,62,79,0
0,58,124,0
0,53,79,0
0,77,99,0
0,33,110,0
0,53,116,0
0,34,110,0
0,35,110,0
0,67,99,0
0,55,111,0
0,47,127,0
0,62,87,80
0,59,113,0
0,55,75,114
0,62,107,0
0,79,99,0
0,83,99,88
0,67,127,0
0,47,92,0
0,47,113,78
0,55,111,156
0,83,99,0
0,31,110,8
0,84,99,0
0,65,127,0
0,55,102,36
0,60,114,0
0,79,99,0
0,48,123,0
0,36,110,0
0,67,96,0
0,75,99,134
0,63,113,0
0,55,112,0
0,63,92,0
0,67,113,92
0,48,100,166
0,72,127,0
0,55,110,86
0,67,119,108
0,63,117,192
0,38,110,6
0,60,107,0
0,39,110,0
0,55,94,0
0,58,109,0
0,39,123,0
0,51,122,0
0,67,119,0
0,67,96,0
0,51,115,22
0,58,60,0
0,58,114,0
0,67,88,146
0,67,127,0
0,55,96,0
0,75,99,0
0,51,110,32
0,79,99,0
0,58,112,0
0,43,110,104
0,82,99,0
0,63,124,0
0,58,70,0
0,67,116,0
0,68,122,0
0,41,110,0
0,56,106,0
0,68,94,0
0,60,109,0
0,41,122,0
0,84,99,0
0,53,118,74
0,60,86,46
0,60,119,0
0,68,80,42
0,68,127,0
0,56,106,0
0,79,99,0
0,77,99,8
0,75,99,12
0,53,112,0
0,77,99,0
0,60,112,0
0,68,126,54
0,60,71,0
0,41,101,0
0,55,86,0
0,31,110,0
0,60,62,0
0,51,98,0
0,44,127,0
0,68,96,0
0,32,110,0
0,56,127,0
0,60,127,0
0,60,93,10
0,51,118,128
0,72,99,0
0,51,93,0
0,60,111,66
0,68,96,0
0,75,99,0
0,63,124,0
0,44,127,0
0,60,113,192
0,60,78,0
0,75,99,0
0,51,63,42
0,56,116,0
0,32,110,0
0,44,124,0
0,58,120,0
0,70,82,0
0,62,116,0
0,34,110,0
0,65,114,0
0,46,127,0
0,77,99,0
0,62,88,80
0,53,112,26
0,53,91,0
0,62,116,20
0,70,106,0
0,58,119,0
0,34,110,0
0,46,127,192
0,62,89,0
0,53,118,0
0,34,110,56
0,58,123,0
0,63,90,0
0,63,127,0
0,46,125,124
0,58,117,80
0,63,114,0
0,53,100,0
0,34,110,0
0,46,105,10
0,53,115,0
0,62,124,142
0,58,122,0
0,62,97,0
0,53,83,14
0,46,127,0
0,38,110,0
0,53,69,0
0,53,106,118
0,34,110,44
0,46,120,0
0,58,111,6
0,58,87,0
0,51,87,0
0,55,87,0
0,51,82,0
0,67,105,0
0,67,87,0
0,58,74,0
0,39,87,0
0,39,123,0
0,39,110,0
0,63,113,102
0,58,108,74
0,70,126,162
0,70,99,0
0,51,110,110
0,79,99,0
0,67,104,4
0,79,99,0
0,63,115,78
0,77,99,0
0,79,99,96
0,60,77,0
0,44,110,0
0,44,124,0
0,67,106,0
0,60,87,0
0,67,91,0
0,44,87,0
0,51,87,0
0,51,117,62
0,79,99,0
0,60,108,34
0,67,114,192
0,65,114,0
0,65,70,0
0,63,81,0
0,63,117,0
0,44,121,0
0,38,119,0
0,65,84,0
0,62,118,0
0,50,87,0
0,38,110,0
0,38,87,0
0,58,87,0
0,58,81,0
0,53,87,0
0,53,117,68
0,58,115,144
0,77,99,86
0,62,120,0
0,77,99,112
0,38,112,0
0,82,99,0
0,53,115,0
0,38,110,0
0,58,118,78
0,77,99,0
0,41,110,0
0,42,110,64
0,43,110,0
0,58,75,0
0,50,77,0
0,55,87,0
0,67,87,0
0,67,120,0
0,43,125,0
0,43,87,0
0,79,99,66
0,58,111,0
0,62,109,38
0,67,110,8
0,53,87,0
0,43,115,0
0,58,106,0
0,58,68,0
0,65,85,192
0,65,120,0
0,58,110,0
0,75,99,0
0,74,99,4
0,60,87,0
0,75,99,0
0,55,87,0
0,48,127,0
0,36,110,0
0,67,94,0
0,48,87,0
0,51,87,0
0,63,72,36
0,55,117,0
0,60,108,8
0,60,77,0
0,67,107,4
0,72,122,0
0,48,96,0
0,63,118,0
0,31,110,0
0,75,99,0
0,36,110,0
0,75,99,0
0,60,123,0
0,48,108,192
0,34,110,0
0,46,87,0
0,67,106,0
0,46,124,0
0,75,99,0
0,63,89,44
0,75,99,0
0,60,115,0
0,63,113,16
0,60,77,0
0,72,127,192
0,46,90,0
0,75,99,0
0,75,99,134
0,67,112,0
0,36,110,104
0,63,117,0
0,34,110,40
0,60,117,0
0,45,87,0
0,33,110,0
0,45,127,0
0,67,95,0
0,63,84,36
0,60,117,0
0,63,115,8
0,60,81,0
0,45,80,192
0,72,127,0
0,45,101,80
0,75,99,0
0,79,99,0
0,67,116,0
0,75,99,38
0,63,110,0
0,33,110,8
0,60,88,0
0,77,99,0
0,79,99,6
0,77,99,0
0,63,122,0
0,44,127,0
0,63,87,0
0,44,87,0
0,44,85,0
0,32,110,0
0,60,109,82
0,75,99,0
0,60,76,4
0,56,105,0
0,67,84,14
0,65,127,0
0,70,99,0
0,72,99,52
0,44,111,0
0,32,110,34
0,75,99,0
0,60,61,0
0,56,102,0
0,67,75,56
0,63,124,0
0,32,110,88
0,56,108,0
0,46,87,0
0,63,87,0
0,46,127,0
0,55,87,0
0,63,127,0
0,67,88,0
0,34,110,0
0,63,82,26
0,58,76,62
0,51,118,0
0,55,109,102
0,67,83,0
0,58,116,0
0,75,99,54
0,46,77,0
0,46,120,0
0,75,99,120
0,63,68,0
0,58,105,0
0,58,61,22
0,75,99,0
0,63,122,0
0,46,120,0
0,77,99,0
0,34,110,0
0,79,99,32
0,34,110,0
0,46,87,0
0,53,87,0
0,62,87,0
0,46,86,0
0,77,99,0
0,46,125,0
0,62,112,0
0,53,124,134
0,53,89,0
0,62,86,46
0,58,120,0
0,70,127,192
0,70,94,0
0,65,115,142
0,62,112,32
0,75,99,0
0,62,79,0
0,58,124,0
0,33,110,0
0,77,99,0
0,53,79,0
0,34,110,0
0,79,99,0
0,53,116,0
0,55,111,0
0,47,87,0
0,55,87,0
0,67,99,0
0,47,127,0
0,62,87,0
0,35,110,0
0,62,87,80
0,59,113,0
0,62,107,114
0,55,75,0
0,47,92,156
0,67,127,0
0,83,99,0
0,47,113,78
0,55,111,156
0,84,99,0
0,31,110,8
0,65,127,0
0,55,102,36
0,77,99,0
0,48,123,0
0,48,87,0
0,36,110,0
0,60,114,0
0,67,96,0
0,55,112,160
0,63,92,0
0,63,113,0
0,75,99,0
0,72,99,78
0,67,113,0
0,48,100,76
0,72,127,0
0,55,110,86
0,67,119,108
0,63,117,192
0,38,110,6
0,60,107,0
0,55,94,0
0,58,109,0
0,39,110,0
0,67,119,0
0,55,87,0
0,39,123,0
0,51,122,0
0,46,87,0
0,39,87,0
0,67,96,0
0,51,115,22
0,58,60,0
0,58,114,0
0,75,99,0
0,67,127,82
0,75,99,0
0,55,96,0
0,67,88,0
0,51,110,32
0,58,112,0
0,79,99,0
0,82,99,98
0,43,110,0
0,67,116,0
0,58,70,0
0,63,124,0
0,60,109,0
0,41,110,0
0,84,99,0
0,41,87,0
0,68,122,0
0,48,87,0
0,68,94,0
0,41,122,0
0,53,87,0
0,56,106,0
0,53,118,54
0,55,87,0
0,56,87,46
0,60,119,0
0,60,86,0
0,68,80,42
0,79,99,0
0,56,106,0
0,68,127,0
0,77,99,0
0,75,99,0
0,53,112,0
0,77,99,0
0,60,112,0
0,68,126,46
0,60,71,0
0,55,86,0
0,60,62,0
0,41,101,0
0,31,110,0
0,60,87,0
0,51,87,0
0,44,87,0
0,44,127,0
0,60,127,0
0,68,96,0
0,56,127,0
0,51,98,0
0,32,110,0
0,60,93,10
0,72,99,138
0,51,118,0
0,51,93,0
0,63,124,88
0,68,96,0
0,60,111,0
0,75,99,0
0,44,127,0
0,60,78,192
0,75,99,0
0,60,113,0
0,75,99,42
0,51,63,0
0,56,116,0
0,44,124,0
0,32,110,0
0,67,106,0
0,67,99,0
0,39,87,0
0,58,87,0
0,39,110,0
0,51,87,0
0,39,102,0
0,58,94,0
0,55,87,0
0,63,92,120
0,58,100,0
0,51,106,2
0,58,95,0
0,51,87,56
0,55,87,0
0,51,106,0
0,67,108,0
0,58,102,0
0,67,106,0
0,39,110,0
0,58,87,0
0,63,91,4
0,58,82,0
0,58,86,4
0,51,100,0
0,65,86,0
0,51,87,0
0,60,87,0
0,39,110,0
0,56,87,0
0,51,107,0
0,58,104,0
0,68,108,0
0,51,87,8
0,58,84,0
0,65,97,0
0,51,113,0
0,39,117,0
0,39,110,0
0,39,87,0
0,68,113,0
0,58,113,0
0,56,92,112
0,55,87,0
0,63,90,0
0,51,91,0
0,58,87,0
0,58,90,0
0,58,95,0
0,63,89,0
0,67,115,0
0,63,87,0
0,43,87,0
0,55,106,0
0,43,110,0
0,43,127,0
0,63,97,124
0,58,108,0
0,39,110,0
0,67,99,0
0,51,106,0
0,67,87,0
0,39,87,0
0,39,122,0
0,63,92,10
0,63,98,0
0,38,110,0
0,58,87,0
0,62,109,0
0,50,127,0
0,53,100,0
0,70,91,0
0,65,87,0
0,70,87,0
0,50,87,0
0,58,97,28
0,65,70,0
0,62,76,78
0,79,99,4
0,58,71,0
0,53,101,0
0,82,99,10
0,62,114,0
0,53,112,0
0,53,87,0
0,50,110,52
0,50,108,0
0,70,88,0
0,58,97,140
0,79,99,0
0,53,74,0
0,65,79,0
0,82,99,56
0,38,110,0
0,62,72,0
0,62,108,0
0,58,100,58
0,58,82,0
0,48,87,0
0,55,87,0
0,63,87,0
0,63,108,0
0,36,110,0
0,55,106,0
0,48,106,0
0,72,87,0
0,48,127,0
0,84,99,0
0,58,91,62
0,55,100,0
0,58,102,20
0,63,97,0
0,82,99,0
0,63,110,114
0,55,106,0
0,79,99,0
0,77,99,34
0,75,99,64
0,48,107,0
0,77,99,140
0,55,93,0
0,58,96,0
0,63,96,14
0,63,113,0
0,55,90,0
0,55,96,52
0,58,99,0
0,55,82,0
0,39,110,0
0,53,100,0
0,65,87,0
0,41,107,0
0,72,87,0
0,60,104,0
0,53,87,0
0,68,87,0
0,41,110,0
0,68,108,0
0,72,85,54
0,53,89,0
0,53,96,68
0,65,95,0
0,65,84,0
0,53,94,26
0,60,91,0
0,72,114,110
0,68,94,0
0,53,92,120
0,41,76,0
0,72,99,0
0,41,110,0
0,75,99,32
0,68,99,0
0,65,84,0
0,43,110,34
0,68,70,0
0,65,103,0
0,72,99,0
0,53,76,0
0,43,102,36
0,55,96,0
0,77,99,0
0,79,99,2
0,68,93,0
0,44,110,0
0,44,124,0
0,68,108,0
0,63,87,0
0,60,84,0
0,77,99,0
0,51,92,0
0,56,87,0
0,63,76,0
0,75,99,36
0,51,82,0
0,63,103,0
0,63,79,0
0,60,100,38
0,51,90,0
0,60,98,132
0,72,114,0
0,44,99,102
0,51,89,0
0,68,101,66
0,68,93,0
0,63,97,192
0,63,89,0
0,60,100,14
0,60,88,0
0,65,87,0
0,50,87,0
0,58,87,0
0,53,100,0
0,38,110,0
0,50,127,0
0,70,87,0
0,62,109,0
0,70,91,0
0,50,99,44
0,58,99,38
0,62,99,2
0,58,97,14
0,65,70,0
0,65,99,34
0,62,76,32
0,70,99,30
0,53,101,4
0,58,71,0
0,53,87,10
0,62,114,0
0,53,112,0
0,79,99,0
0,82,99,84
0,70,88,0
0,50,108,0
0,50,110,0
0,65,79,94
0,53,74,0
0,79,99,0
0,58,97,0
0,62,72,56
0,62,108,0
0,82,99,0
0,38,110,0
0,82,99,58
0,58,100,0
0,58,82,0
0,84,99,2
0,63,108,0
0,48,127,0
0,36,110,0
0,55,87,0
0,55,106,0
0,72,87,0
0,63,87,0
0,48,87,0
0,48,106,0
0,48,99,30
0,58,91,82
0,82,99,0
0,55,100,0
0,58,102,20
0,63,97,0
0,55,106,114
0,63,110,0
0,79,99,0
0,55,99,18
0,77,99,24
0,48,107,32
0,75,99,0
0,58,96,96
0,55,93,0
0,77,99,0
0,63,96,14
0,63,113,0
0,55,90,0
0,39,110,52
0,55,96,0
0,58,99,0
0,55,82,0
0,41,107,0
0,53,87,0
0,68,87,0
0,41,110,0
0,68,108,0
0,60,104,0
0,72,87,0
0,53,100,0
0,77,87,0
0,53,99,20
0,53,89,22
0,72,85,0
0,56,99,16
0,53,96,40
0,65,95,0
0,60,99,2
0,65,84,0
0,65,99,16
0,53,94,26
0,60,91,0
0,68,94,110
0,72,114,0
0,72,99,120
0,41,76,0
0,41,110,0
0,53,92,0
0,68,99,32
0,65,84,0
0,75,99,0
