track,note,velocity,time
0,42,127,234
0,42,0,3
0,42,127,93
0,42,0,3
0,42,127,93
0,42,0,3
0,42,127,93
0,42,0,3
0,70,127,93
0,61,127,0
0,53,127,3
0,49,127,0
0,67,127,4
0,72,127,10
0,70,0,5
0,72,0,2
0,70,127,3
0,70,127,4
0,70,127,0
0,70,0,10
0,72,127,3
0,70,0,2
0,68,127,0
0,68,127,0
0,72,0,5
0,70,127,0
0,68,0,4
0,65,127,2
0,65,127,0
0,72,127,10
0,70,0,1
0,72,0,15
0,70,127,0
0,67,127,2
0,67,127,0
0,70,0,2
0,72,127,0
0,65,0,1
0,72,0,5
0,70,127,1
0,72,127,8
0,70,0,1
0,70,0,4
0,67,0,1
0,70,127,0
0,70,127,0
0,72,0,4
0,70,127,1
0,70,0,12
0,72,127,0
0,68,0,2
0,68,127,1
0,68,127,0
0,70,0,5
0,72,0,9
0,70,127,0
0,68,0,7
0,63,127,1
0,63,127,0
0,70,0,6
0,72,127,1
0,72,0,2
0,70,127,0
0,70,0,5
0,72,127,0
0,65,0,7
0,65,127,1
0,65,127,0
0,63,0,1
0,72,0,5
0,70,127,0
0,70,0,7
0,72,127,0
0,72,0,6
0,70,127,1
0,70,0,3
0,65,0,1
0,70,127,0
0,70,127,0
0,72,127,1
0,70,0,1
0,72,0,5
0,70,127,2
0,68,0,3
0,68,127,1
0,68,127,0
0,70,0,1
0,70,0,4
0,72,127,0
0,72,0,4
0,70,127,1
0,68,0,1
0,65,0,0
0,65,127,1
0,65,127,0
0,70,0,1
0,72,127,1
0,72,0,2
0,70,127,1
0,70,0,12
0,72,127,2
0,67,0,8
0,67,127,1
0,67,127,0
0,72,0,3
0,65,0,0
0,70,127,0
0,70,0,12
0,72,127,1
0,72,0,12
0,70,127,1
0,70,0,13
0,72,127,0
0,70,0,1
0,70,127,1
0,70,127,0
0,67,0,3
0,72,0,8
0,70,127,0
0,68,0,8
0,70,0,1
0,68,127,0
0,68,127,0
0,72,127,2
0,70,0,1
0,72,0,10
0,70,127,0
0,68,0,3
0,63,0,0
0,63,127,1
0,63,127,0
0,70,0,6
0,72,127,1
0,72,0,9
0,70,127,1
0,70,0,8
0,72,127,1
0,72,0,8
0,70,127,0
0,65,0,2
0,65,127,1
0,65,127,0
0,63,0,1
0,70,0,8
0,72,127,1
0,72,0,7
0,70,127,0
0,70,0,7
0,72,127,0
0,70,0,8
0,70,127,1
0,70,127,0
0,65,0,1
0,72,0,4
0,70,127,1
0,70,0,4
0,72,127,2
0,68,0,1
0,68,127,1
0,68,127,0
0,70,0,5
0,72,0,5
0,70,127,2
0,68,0,3
0,65,0,0
0,65,127,1
0,65,127,0
0,70,0,1
0,72,127,2
0,72,0,5
0,70,127,3
0,70,0,4
0,72,127,1
0,72,0,4
0,70,127,2
0,67,0,2
0,67,127,1
0,67,127,0
0,65,0,2
0,70,0,1
0,72,127,3
0,72,0,1
0,70,127,2
0,70,0,11
0,72,127,3
0,70,0,8
0,70,127,1
0,70,127,0
0,67,0,2
0,72,0,1
0,70,127,1
0,70,0,11
0,72,127,1
0,68,0,6
0,68,127,1
0,68,127,0
0,70,0,4
0,72,0,1
0,70,127,0
0,70,0,11
0,68,0,2
0,72,127,0
0,63,0,1
0,63,127,1
0,63,127,0
0,72,0,8
0,70,127,2
0,70,0,8
0,72,127,2
0,72,0,6
0,70,127,1
0,70,0,4
0,72,127,0
0,63,0,2
0,65,0,0
0,65,127,1
0,65,127,0
0,72,0,1
0,70,127,2
0,70,0,1
0,72,127,1
0,72,0,12
0,70,127,2
0,70,0,7
0,65,0,1
0,70,127,0
0,70,127,0
0,70,0,3
0,72,127,2
0,72,0,12
0,70,127,1
0,70,0,2
0,68,0,2
0,68,127,1
0,68,127,0
0,72,127,7
0,70,0,1
0,68,0,9
0,72,0,2
0,65,0,0
0,65,127,1
0,65,127,0
0,70,127,1
0,72,127,11
0,70,0,1
0,72,0,9
0,70,127,3
0,72,127,10
0,70,0,1
0,67,0,3
0,65,0,1
0,67,127,0
0,67,127,0
0,72,0,4
0,70,127,3
0,70,0,10
0,72,127,0
0,72,0,7
0,70,127,4
0,70,0,7
0,70,0,1
0,72,127,0
0,70,127,0
0,70,127,0
0,67,0,1
0,72,0,7
0,70,127,2
0,49,0,1
0,68,0,1
0,68,127,1
0,68,127,0
0,70,0,3
0,72,127,0
0,70,0,1
0,72,0,6
0,70,127,1
0,68,0,3
0,46,127,1
0,63,0,1
0,63,127,1
0,63,127,0
0,46,0,1
0,72,127,5
0,53,0,1
0,61,0,0
0,70,0,1
0,46,127,2
0,46,0,3
0,72,0,5
0,70,127,1
0,46,127,6
0,46,0,3
0,72,127,4
0,70,0,1
0,63,0,6
0,67,0,3
0,46,127,0
0,65,0,1
0,56,127,0
0,65,127,0
0,60,127,0
0,72,0,1
0,46,0,0
0,65,127,0
0,65,127,0
0,56,127,0
0,60,127,1
0,65,127,0
0,29,127,0
0,63,0,1
0,41,127,0
0,70,127,1
0,70,0,10
0,67,0,4
0,65,0,81
0,65,127,3
0,65,0,38
0,65,127,4
0,65,0,44
0,70,0,4
0,68,0,0
0,65,0,0
0,65,127,0
0,65,0,47
0,65,0,1
0,67,127,1
0,67,127,2
0,60,0,17
0,67,0,22
0,68,127,3
0,68,127,4
0,67,0,3
0,29,0,5
0,56,0,15
0,68,0,16
0,65,127,3
0,68,127,0
0,29,127,3
0,56,0,4
0,29,0,1
0,65,0,0
0,60,0,1
0,41,0,15
0,56,127,19
0,60,127,1
0,65,127,0
0,37,127,1
0,49,127,0
0,65,0,8
0,68,0,2
0,70,127,5
0,56,0,12
0,60,0,2
0,70,0,6
0,68,127,2
0,37,0,12
0,49,0,8
0,65,0,2
0,63,127,1
0,58,127,1
0,55,127,0
0,48,127,1
0,67,127,0
0,68,0,1
0,63,127,0
0,58,127,0
0,67,127,1
0,36,127,0
0,68,0,2
0,67,0,6
0,65,127,1
0,36,0,2
0,63,0,17
0,58,0,1
0,55,0,1
0,63,127,0
0,65,0,4
0,36,127,1
0,58,0,10
0,63,0,7
0,48,0,3
0,36,0,0
0,61,127,0
0,56,127,0
0,61,127,0
0,65,127,0
0,67,0,3
0,53,127,0
0,46,127,0
0,61,127,0
0,56,127,0
0,34,127,1
0,63,0,1
0,61,0,90
0,68,127,5
0,68,0,3
0,34,0,7
0,56,0,5
0,53,0,0
0,61,0,6
0,65,127,20
0,46,0,11
0,34,127,8
0,67,127,5
0,56,0,1
0,65,0,2
0,67,127,1
0,61,0,2
0,34,0,4
0,65,0,3
0,67,0,6
0,39,127,0
0,61,127,3
0,68,127,1
0,65,127,0
0,51,127,1
0,68,127,0
0,65,127,1
0,68,127,1
0,61,127,1
0,67,0,4
0,61,0,63
0,68,0,14
0,61,0,1
0,65,0,4
0,70,127,5
0,63,127,0
0,67,127,0
0,68,0,2
0,70,127,1
0,63,127,1
0,70,127,0
0,67,127,0
0,68,0,3
0,65,0,0
0,70,0,41
0,72,127,1
0,70,127,12
0,72,0,6
0,70,0,2
0,68,127,0
0,63,0,4
0,63,0,5
0,70,127,5
0,68,0,4
0,67,0,4
0,70,0,1
0,70,0,5
0,72,127,0
0,72,127,2
0,68,127,0
0,65,127,1
0,72,127,0
0,68,127,0
0,65,127,0
0,67,0,2
0,70,0,2
0,68,0,12
0,39,0,2
0,65,0,1
0,72,0,3
0,68,0,4
0,27,127,1
0,70,127,1
0,70,127,0
0,70,127,1
0,72,0,3
0,72,0,6
0,68,127,13
0,68,127,0
0,65,0,1
0,68,127,0
0,70,0,1
0,27,0,0
0,70,0,5
0,51,0,7
0,70,0,4
0,68,0,3
0,68,0,2
0,65,127,0
0,46,127,1
0,61,127,0
0,65,127,1
0,34,127,0
0,36,127,0
0,68,0,1
0,36,0,2
0,61,127,0
0,65,127,1
0,61,127,40
0,61,0,33
0,61,127,18
0,39,127,1
0,39,0,3
0,34,0,11
0,46,0,8
0,61,0,8
0,36,127,18
0,61,127,2
0,34,127,0
0,46,127,0
0,36,0,1
0,61,0,24
0,34,0,18
0,61,127,4
0,58,127,1
0,65,0,3
0,61,0,8
0,61,127,2
0,61,0,14
0,56,127,6
0,42,127,2
0,61,127,0
0,42,0,3
0,61,0,12
0,61,0,4
0,63,127,0
0,63,127,2
0,56,0,6
0,65,0,3
0,36,127,5
0,36,0,3
0,34,127,2
0,46,0,15
0,34,0,3
0,56,127,1
0,61,127,0
0,61,127,1
0,36,127,0
0,53,127,1
0,53,127,0
0,63,0,1
0,36,0,1
0,58,0,0
0,63,0,1
0,29,127,0
0,61,0,41
0,61,0,1
0,56,127,1
0,60,127,0
0,60,127,1
0,60,127,0
0,61,0,6
0,39,127,42
0,39,0,3
0,29,0,7
0,56,0,36
0,68,127,2
0,68,127,0
0,36,127,1
0,29,127,2
0,36,0,1
0,60,0,4
0,60,0,28
0,65,0,18
0,60,127,42
0,68,0,6
0,75,127,18
0,75,0,3
0,29,0,6
0,65,127,13
0,42,127,2
0,42,0,3
0,68,0,16
0,60,127,5
0,60,0,3
0,68,127,17
0,68,127,3
0,55,127,1
0,41,127,1
0,55,0,2
0,65,0,2
0,60,0,1
0,68,0,12
0,48,127,6
0,36,127,1
0,48,0,2
0,36,0,1
0,53,0,16
0,53,0,0
0,58,127,0
0,58,127,0
0,51,127,1
0,63,127,0
0,63,127,0
0,68,127,1
0,41,0,1
0,39,127,0
0,36,127,2
0,60,0,2
0,36,0,1
0,68,0,40
0,67,127,1
0,67,127,2
0,68,0,3
0,55,127,5
0,56,0,1
0,67,0,33
0,39,0,6
0,67,127,0
0,39,127,0
0,39,0,3
0,58,0,13
0,63,0,3
0,67,0,22
0,67,127,9
0,58,127,0
0,63,127,0
0,36,127,0
0,39,127,1
0,36,0,2
0,51,0,28
0,51,127,68
0,58,0,15
0,63,0,20
0,42,127,10
0,39,0,2
0,42,0,1
0,67,0,0
0,58,127,0
0,67,0,23
0,63,127,0
0,58,0,22
0,67,127,0
0,63,0,3
0,67,127,0
0,55,0,1
0,63,0,7
0,67,0,6
0,39,127,5
0,36,127,0
0,36,0,3
0,67,0,7
0,51,0,4
0,39,0,1
0,63,127,8
0,58,127,1
0,55,127,0
0,63,127,1
0,37,127,0
0,36,127,0
0,67,127,0
0,49,127,1
0,36,0,2
0,67,127,3
0,37,0,82
0,68,127,6
0,65,127,0
0,39,127,3
0,68,127,0
0,39,0,3
0,67,0,0
0,63,0,0
0,67,0,1
0,63,0,0
0,55,0,1
0,58,0,0
0,58,0,7
0,61,127,34
0,53,127,1
0,37,127,1
0,36,127,0
0,65,127,0
0,61,127,0
0,56,127,0
0,36,0,3
0,68,0,0
0,65,127,2
0,68,0,3
0,49,0,46
0,49,127,44
0,56,0,9
0,61,0,4
0,75,127,7
0,75,0,3
0,65,0,8
0,37,0,13
0,42,127,2
0,63,127,2
0,42,0,1
0,63,0,20
0,60,127,1
0,53,127,1
0,60,0,2
0,55,127,21
0,61,127,2
0,37,127,0
0,55,0,1
0,65,0,1
0,61,0,15
0,61,0,3
0,53,0,0
0,60,127,1
0,37,0,1
0,36,127,0
0,48,127,0
0,36,127,1
0,48,0,2
0,36,0,0
0,49,0,6
0,60,0,10
0,65,0,3
0,61,127,1
0,36,127,1
0,46,127,0
0,61,127,0
0,53,127,0
0,56,127,0
0,56,127,0
0,34,127,1
0,36,0,1
0,36,0,1
0,61,127,41
0,61,0,15
0,61,127,35
0,39,127,1
0,34,0,1
0,39,0,2
0,61,0,19
0,46,0,1
0,61,127,25
0,46,127,1
0,36,127,0
0,34,127,1
0,36,0,2
0,61,0,14
0,61,127,30
0,53,0,19
0,61,0,6
0,61,127,22
0,53,127,4
0,61,0,7
0,34,0,10
0,61,0,7
0,61,127,20
0,61,127,0
0,42,127,2
0,42,0,3
0,63,127,42
0,61,0,3
0,63,127,1
0,61,0,5
0,56,0,0
0,53,0,13
0,36,127,3
0,36,0,3
0,34,127,0
0,53,0,7
0,56,0,0
0,46,0,9
0,61,127,2
0,34,0,2
0,56,127,0
0,53,127,1
0,29,127,1
0,53,127,0
0,36,127,0
0,41,127,0
0,61,127,0
0,63,0,2
0,63,0,0
0,36,0,1
0,61,0,41
0,60,127,2
0,60,127,0
0,60,127,2
0,61,0,1
0,61,0,2
0,53,0,4
0,29,0,41
0,39,127,0
0,39,0,3
0,41,0,42
0,68,127,0
0,56,127,2
0,60,0,2
0,36,127,0
0,53,127,0
0,29,127,2
0,36,0,1
0,60,0,74
0,60,127,18
0,42,127,1
0,42,0,3
0,75,127,20
0,75,0,3
0,46,127,22
0,65,127,1
0,46,0,2
0,29,0,2
0,60,127,19
0,68,0,1
0,60,0,2
0,68,127,16
0,68,127,3
0,55,127,2
0,55,0,3
0,65,0,3
0,56,0,2
0,60,0,5
0,68,0,1
0,56,0,1
0,53,0,2
0,29,127,6
0,48,127,1
0,36,127,0
0,36,0,3
0,48,0,0
0,68,0,9
0,29,0,3
0,53,0,5
0,56,127,0
0,63,127,1
0,51,127,1
0,58,127,0
0,27,127,1
0,36,127,1
0,58,127,0
0,68,127,0
0,68,127,0
0,63,127,0
0,60,0,1
0,36,0,2
0,56,0,40
0,55,127,2
0,67,127,45
0,68,0,4
0,39,127,1
0,39,0,3
0,67,127,1
0,67,0,1
0,68,0,4
0,27,0,1
0,51,0,3
0,58,0,15
0,63,0,7
0,67,127,11
0,36,127,3
0,51,127,2
0,58,127,0
0,63,127,0
0,36,0,1
0,39,127,1
0,67,0,60
0,65,127,4
0,63,127,23
0,65,0,3
0,42,127,50
0,42,0,3
0,39,0,0
0,67,0,15
0,63,0,27
0,67,127,2
0,67,127,1
0,63,0,6
0,58,0,10
0,58,0,1
0,36,127,5
0,36,0,3
0,63,0,0
0,67,0,1
0,67,0,1
0,51,0,2
0,63,127,17
0,67,127,0
0,67,127,1
0,49,127,0
0,58,127,0
0,67,127,0
0,63,127,0
0,36,127,0
0,58,127,0
0,55,0,1
0,37,127,1
0,36,0,1
0,67,0,68
0,68,127,1
0,37,0,17
0,67,0,2
0,68,127,4
0,39,127,0
0,39,0,3
0,49,0,4
0,63,0,2
0,58,0,7
0,63,0,16
0,67,0,12
0,58,0,1
0,68,0,3
0,65,127,0
0,65,127,1
0,61,127,0
0,36,127,1
0,61,127,0
0,65,127,1
0,49,127,0
0,37,127,1
0,36,0,1
0,68,0,1
0,75,127,114
0,75,0,3
0,42,127,23
0,42,0,3
0,37,0,1
0,65,0,11
0,65,0,2
0,60,127,6
0,60,0,3
0,65,127,19
0,65,127,1
0,55,127,1
0,46,127,1
0,55,0,2
0,61,0,0
0,46,0,1
0,49,0,7
0,65,0,0
0,61,0,6
0,65,0,3
0,48,127,4
0,36,127,1
0,48,0,2
0,36,0,1
0,37,127,0
0,58,127,16
0,62,127,1
0,58,127,0
0,65,127,0
0,62,127,0
0,48,127,1
0,37,0,1
0,65,127,0
0,36,127,2
0,36,127,2
0,36,0,1
0,65,0,66
0,67,127,2
0,58,0,12
0,67,127,9
0,46,127,3
0,62,0,1
0,36,0,1
0,65,0,0
0,46,0,1
0,48,0,7
0,58,0,4
0,62,0,1
0,67,0,32
0,55,127,0
0,60,127,0
0,60,127,0
0,64,127,0
0,64,127,0
0,36,127,1
0,64,127,0
0,48,127,0
0,55,127,0
0,36,127,1
0,65,0,1
0,67,0,2
0,36,0,0
0,42,127,91
0,42,0,3
0,46,127,47
0,46,0,3
0,36,0,36
0,55,0,7
0,55,0,2
0,60,0,2
0,60,0,1
0,64,0,2
0,64,0,0
0,64,0,0
0,48,0,4
0,36,127,15
0,36,0,3
0,65,127,20
0,62,127,0
0,62,127,0
0,58,127,0
0,36,127,0
0,66,127,0
0,65,127,0
0,36,127,1
0,66,0,1
0,36,0,2
0,36,127,0
0,62,0,26
0,65,0,2
0,36,0,0
0,58,0,6
0,65,0,2
0,62,0,2
0,48,127,30
0,45,127,1
0,48,0,2
0,45,0,1
0,64,127,16
0,64,0,1
0,36,0,0
