track,note,velocity,time
2,36,116,11310
2,36,107,24
2,36,110,16
2,36,113,16
2,36,110,16
2,36,105,8
2,43,116,0
2,43,100,24
2,43,113,24
2,43,116,24
2,43,102,24
2,43,102,40
2,36,116,384
2,36,107,24
2,36,113,24
2,40,119,192
2,41,110,0
2,41,102,24
2,41,100,32
2,40,93,288
2,41,102,0
2,43,110,8
2,43,102,24
2,41,91,96
2,43,107,184
2,36,105,8
2,36,82,24
2,36,89,24
2,35,100,288
2,33,105,96
2,33,85,32
2,33,93,32
2,33,87,16
2,35,87,48
2,36,100,40
2,38,95,0
2,38,95,24
2,38,95,24
2,38,87,24
2,40,98,48
2,41,98,32
2,43,102,0
2,43,95,24
2,43,95,24
2,43,82,16
2,41,95,96
2,41,98,24
2,43,95,0
2,43,98,32
2,36,98,96
2,35,91,8
2,33,105,192
2,33,102,16
2,35,98,48
2,36,102,0
2,38,100,0
2,38,98,16
2,38,85,24
2,38,82,24
2,40,93,0
2,41,93,0
2,43,107,0
2,43,95,16
2,43,93,16
2,43,100,24
2,36,110,96
2,36,87,32
2,36,105,16
2,35,105,192
2,33,107,192
2,33,100,32
2,33,100,32
2,33,89,24
2,35,89,48
2,36,102,0
2,38,102,8
2,38,105,24
2,38,89,32
2,38,87,32
2,40,85,0
2,41,102,0
2,43,107,8
2,43,100,24
2,43,93,24
2,43,102,16
2,41,100,96
2,41,100,32
2,43,100,0
2,43,98,40
2,36,102,96
2,35,102,8
2,33,113,192
2,33,95,8
2,35,89,48
2,36,95,32
2,38,107,0
2,38,89,32
2,38,98,24
2,38,93,16
2,40,102,48
2,41,107,0
2,43,113,8
2,43,107,24
2,43,100,32
2,43,100,16
2,38,85,48
2,36,107,48
2,36,102,56
2,36,107,32
2,36,105,40
2,33,100,96
2,33,110,24
2,43,102,0
2,36,113,64
2,36,85,32
2,36,98,24
2,36,100,16
2,36,87,40
2,36,100,48
2,40,116,0
2,43,107,0
2,43,105,32
2,43,100,32
2,43,102,24
2,43,102,32
2,43,102,32
2,35,107,192
2,36,102,0
2,36,105,32
2,36,102,48
2,40,113,192
2,41,107,0
2,41,102,32
2,41,102,32
2,40,85,8
2,41,102,48
2,43,116,0
2,43,102,32
2,43,100,32
2,43,95,8
2,36,105,32
2,36,82,24
2,36,89,24
2,35,100,288
2,33,105,96
2,33,85,32
2,33,93,32
2,33,87,16
2,35,87,48
2,36,100,40
2,38,95,0
2,38,95,24
2,38,95,24
2,38,87,24
2,40,98,48
2,41,98,32
2,43,102,0
2,43,95,24
2,43,95,24
2,43,82,16
2,41,95,96
2,41,98,24
2,43,95,0
2,43,98,32
2,36,98,96
2,35,91,8
2,33,105,192
2,33,102,16
2,35,98,48
2,36,102,0
2,38,100,0
2,38,98,16
2,38,85,24
2,38,82,24
2,40,93,0
2,41,93,0
2,43,107,0
2,43,95,16
2,43,93,16
2,43,100,24
2,36,110,96
2,36,87,32
2,36,105,16
2,35,105,192
2,33,107,192
2,33,100,32
2,33,100,32
2,33,89,24
2,35,89,48
2,36,102,0
2,38,102,8
2,38,105,24
2,38,89,32
2,38,87,32
2,40,85,0
2,41,102,0
2,43,107,8
2,43,100,24
2,43,93,24
2,43,102,16
2,41,100,96
2,41,100,32
2,43,100,0
2,43,98,40
2,36,102,96
2,35,102,8
2,33,113,192
2,33,95,8
2,35,89,48
2,36,95,32
2,38,107,0
2,38,89,32
2,38,98,24
2,38,93,16
2,40,102,48
2,41,107,0
2,43,113,8
2,43,107,24
2,43,100,32
2,43,100,16
2,38,85,48
2,48,98,0
2,48,87,40
2,47,85,48
2,46,78,8
2,45,66,8
2,44,91,48
2,44,95,24
2,45,62,0
2,46,78,0
2,47,68,0
2,48,78,8
2,48,85,24
2,47,80,48
2,46,76,48
2,45,64,48
2,44,89,48
2,44,70,32
2,44,64,16
2,44,98,24
2,44,95,16
2,44,100,40
2,43,116,24
2,43,105,40
2,43,102,32
2,43,116,32
2,43,107,24
2,43,105,24
2,43,107,24
2,43,110,16
2,43,107,16
2,43,113,24
2,43,105,24
2,43,110,24
2,44,116,0
2,44,105,40
2,44,102,32
2,44,116,32
2,44,107,24
2,44,105,24
2,44,107,24
2,44,110,16
2,44,107,16
2,44,113,24
2,44,105,24
2,44,110,24
2,37,105,48
2,37,82,24
2,37,89,24
2,36,100,288
2,34,105,96
2,34,85,32
2,34,93,32
2,34,87,16
2,36,87,48
2,37,100,40
2,39,95,0
2,39,95,24
2,39,95,24
2,39,87,24
2,41,98,48
2,42,98,32
2,44,102,0
2,44,95,24
2,44,95,24
2,44,82,16
2,42,95,96
2,42,98,24
2,44,95,0
2,44,98,32
2,37,98,96
2,36,91,184
2,34,105,192
2,34,102,16
2,36,98,48
2,37,102,0
2,39,100,0
2,39,98,16
2,39,85,24
2,39,82,24
2,41,93,48
2,42,93,0
2,44,107,0
2,44,95,16
2,44,93,16
2,44,100,16
2,37,110,96
2,37,87,32
2,37,105,16
2,36,105,192
2,34,107,192
2,34,100,32
2,34,100,24
2,34,89,24
2,36,89,48
2,37,102,0
2,39,102,8
2,39,105,24
2,39,89,24
2,39,87,32
2,41,85,0
2,42,102,0
2,44,107,8
2,44,100,16
2,44,93,24
2,44,102,16
2,42,100,96
2,42,100,32
2,44,100,0
2,44,98,40
2,37,102,96
2,36,102,8
2,34,113,192
2,34,95,8
2,36,89,48
2,37,95,32
2,39,107,0
2,39,89,32
2,39,98,24
2,39,93,16
2,41,102,48
2,42,107,0
2,44,113,8
2,44,107,24
2,44,100,32
2,44,100,16
2,39,85,0
2,37,127,48
2,36,105,576
2,34,122,192
2,32,113,576
2,30,102,192
2,32,113,376
2,25,100,360
3,55,64,1324
3,60,63,0
3,64,85,8
3,72,82,80
3,71,82,32
3,72,70,0
3,67,62,104
3,72,66,48
3,71,76,32
3,72,70,8
3,57,66,24
3,60,57,8
3,64,78,0
3,72,72,48
3,71,87,96
3,72,70,0
3,54,54,16
3,57,55,0
3,60,57,0
3,69,85,8
3,50,35,128
3,57,57,8
3,65,66,0
3,69,68,16
3,76,66,8
3,74,80,32
3,65,82,32
3,69,87,0
3,74,85,0
3,72,85,24
3,72,87,32
3,65,74,8
3,69,74,0
3,65,59,16
3,55,58,0
3,69,87,8
3,76,82,8
3,74,98,32
3,65,93,32
3,74,95,0
3,69,85,8
3,72,100,32
3,69,82,40
3,72,87,0
3,65,87,8
3,71,82,192
3,48,64,96
3,55,58,16
3,60,66,8
3,64,61,8
3,67,76,16
3,72,87,0
3,86,49,64
3,88,45,8
3,89,39,0
3,91,51,0
3,60,78,24
3,64,80,0
3,48,68,8
3,55,47,8
3,64,66,80
3,60,74,8
3,55,45,80
3,60,70,72
3,64,59,0
3,55,53,96
3,60,61,8
3,64,60,0
3,55,51,88
3,60,68,8
3,64,64,0
3,55,57,96
3,60,70,80
3,64,68,0
3,55,58,88
3,60,78,88
3,64,70,0
3,55,57,88
3,60,78,80
3,64,72,0
3,55,56,96
3,43,64,8
3,62,78,0
3,59,70,8
3,55,53,40
3,59,57,0
3,62,58,0
3,55,53,104
3,59,57,8
3,62,60,0
3,55,48,8
3,59,57,0
3,62,59,0
3,55,55,88
3,59,56,8
3,62,57,0
3,55,55,8
3,59,70,0
3,62,63,0
3,55,58,8
3,59,80,8
3,62,72,8
3,55,52,88
3,62,85,0
3,65,91,0
3,47,85,8
3,59,87,0
3,55,64,8
3,48,68,0
3,60,89,0
3,64,87,0
3,55,56,8
3,60,87,16
3,64,80,0
3,55,55,88
3,60,80,0
3,64,80,0
3,55,57,8
3,40,85,88
3,60,89,0
3,64,82,8
3,55,63,40
3,41,82,0
3,60,82,8
3,65,82,0
3,57,63,48
3,60,89,8
3,65,78,0
3,57,60,8
3,65,78,8
3,60,89,8
3,57,57,8
3,60,89,0
3,65,80,0
3,57,64,96
3,43,70,0
3,59,66,0
3,62,64,0
3,55,55,8
3,62,58,0
3,59,58,8
3,55,52,8
3,59,55,8
3,62,53,0
3,55,53,8
3,59,57,8
3,62,57,0
3,55,43,8
3,62,60,8
3,59,60,8
3,55,49,8
3,62,56,0
3,59,55,8
3,55,51,8
3,59,85,16
3,62,74,0
3,55,64,8
3,47,91,0
3,62,87,0
3,65,87,0
3,59,87,8
3,55,78,40
3,48,82,8
3,64,85,0
3,60,87,8
3,55,63,40
3,60,70,0
3,64,66,0
3,55,62,8
3,60,66,88
3,64,70,0
3,55,58,88
3,60,78,0
3,64,74,0
3,55,64,8
3,60,74,0
3,64,68,0
3,48,68,8
3,55,53,8
3,64,63,88
3,60,66,0
3,55,58,96
3,60,82,0
3,64,82,8
3,55,47,88
3,60,80,8
3,64,76,0
3,55,66,96
3,59,80,0
3,62,70,0
3,43,74,8
3,55,49,32
3,59,63,0
3,62,70,8
3,55,52,8
3,59,57,24
3,62,56,0
3,55,59,8
3,59,72,16
3,62,66,0
3,55,59,96
3,43,78,8
3,62,68,0
3,59,72,8
3,55,51,24
3,59,62,24
3,62,70,0
3,55,57,8
3,62,66,16
3,59,85,8
3,55,78,88
3,47,82,0
3,59,95,0
3,62,87,0
3,65,91,8
3,55,78,40
3,48,80,8
3,60,100,0
3,64,91,0
3,55,64,8
3,60,82,16
3,64,80,8
3,55,61,88
3,60,80,16
3,64,82,0
3,55,62,88
3,60,91,0
3,64,87,0
3,40,93,8
3,55,62,40
3,41,91,8
3,60,95,8
3,65,89,0
3,57,70,40
3,60,89,8
3,65,80,0
3,57,59,88
3,65,87,8
3,60,78,8
3,57,62,88
3,65,74,8
3,60,91,8
3,57,78,96
3,43,72,0
3,59,66,0
3,62,62,0
3,55,51,8
3,59,64,8
3,62,58,0
3,55,48,8
3,53,80,0
3,60,78,0
3,57,85,8
3,59,80,24
3,62,80,0
3,55,72,8
3,48,91,16
3,55,98,0
3,64,100,0
3,60,105,8
3,55,87,88
3,60,102,8
3,64,100,0
3,55,100,8
3,60,102,0
3,62,100,0
3,55,102,24
3,60,110,0
3,64,107,0
3,47,98,16
3,60,100,16
3,67,95,0
3,55,100,8
3,45,82,24
3,52,102,0
3,57,107,8
3,60,102,0
3,67,100,96
3,72,85,0
3,64,93,8
3,64,100,96
3,67,98,8
3,74,89,0
3,67,89,112
3,64,91,8
3,76,93,0
3,38,68,120
3,50,60,0
3,57,95,0
3,60,91,0
3,65,87,0
3,57,98,72
3,60,105,0
3,65,95,0
3,50,91,16
3,57,85,0
3,60,85,0
3,64,100,0
3,57,98,40
3,60,107,0
3,65,102,8
3,50,110,8
3,55,102,16
3,67,110,0
3,62,100,8
3,71,105,0
3,62,105,56
3,67,110,0
3,71,116,0
3,72,100,88
3,62,102,8
3,67,107,0
3,62,105,104
3,67,113,0
3,74,105,0
3,60,102,8
3,65,105,0
3,53,102,8
3,69,105,0
3,60,102,56
3,65,107,0
3,69,110,0
3,55,107,0
3,62,100,0
3,67,110,0
3,71,102,0
3,69,105,40
3,60,100,8
3,59,100,72
3,62,102,0
3,67,93,8
3,48,82,40
3,55,98,0
3,60,95,0
3,64,95,0
3,67,102,0
3,55,95,24
3,60,102,0
3,64,110,8
3,55,102,0
3,62,107,0
3,47,100,8
3,57,102,8
3,60,102,0
3,45,91,8
3,64,102,0
3,57,98,40
3,60,105,0
3,62,100,0
3,57,32,0
3,60,58,0
3,64,95,0
3,38,91,24
3,57,93,0
3,60,102,0
3,65,107,0
3,60,107,120
3,65,100,0
3,57,98,8
3,57,100,32
3,60,107,8
3,64,102,0
3,38,91,8
3,60,116,48
3,57,105,8
3,43,91,0
3,55,89,0
3,62,98,0
3,59,100,8
3,59,105,48
3,62,107,0
3,55,102,8
3,43,102,8
3,43,105,8
3,53,105,0
3,57,110,0
3,60,102,0
3,43,107,24
3,55,102,0
3,59,107,0
3,62,110,0
3,55,100,8
3,64,100,0
3,48,89,8
3,60,105,0
3,55,98,96
3,60,100,0
3,64,102,0
3,60,89,24
3,62,98,0
3,55,105,8
3,55,107,24
3,60,110,0
3,64,110,0
3,47,95,16
3,67,105,32
3,55,102,8
3,60,102,0
3,45,98,72
3,52,100,0
3,57,95,0
3,60,98,0
3,64,102,96
3,72,95,0
3,67,110,8
3,64,100,8
3,74,105,0
3,67,107,8
3,64,105,80
3,67,107,0
3,76,107,0
3,50,102,8
3,60,98,0
3,69,102,0
3,65,102,8
3,60,105,104
3,65,100,0
3,69,107,8
3,60,105,32
3,65,102,0
3,71,110,0
3,60,100,8
3,65,98,0
3,72,102,0
3,67,107,0
3,55,95,8
3,62,98,0
3,71,107,0
3,62,100,80
3,67,107,8
3,71,110,0
3,62,102,16
3,67,107,0
3,72,113,0
3,62,98,16
3,67,107,0
3,74,102,0
3,55,87,16
3,60,102,8
3,69,102,0
3,53,76,8
3,65,105,0
3,53,95,24
3,60,102,0
3,65,107,0
3,69,107,0
3,55,87,8
3,62,100,0
3,71,93,0
3,67,105,8
3,67,105,24
3,62,100,8
3,72,105,0
3,62,107,56
3,67,110,0
3,74,105,8
3,48,91,8
3,67,107,0
3,64,100,8
3,72,98,0
3,64,107,40
3,67,110,0
3,60,107,120
3,64,105,8
3,45,89,8
3,57,89,0
3,60,82,0
3,64,80,0
3,69,87,0
3,57,105,56
3,60,113,0
3,64,105,8
3,45,100,8
3,50,102,8
3,57,105,0
3,60,107,0
3,65,107,8
3,65,110,104
3,60,105,8
3,69,113,0
3,72,102,0
3,65,107,112
3,69,110,0
3,77,105,0
3,72,102,8
3,69,95,160
3,72,95,0
3,77,91,0
3,81,91,0
3,50,72,72
3,67,107,0
3,71,110,0
3,74,105,0
3,79,102,0
3,67,105,0
3,71,113,0
3,74,113,0
3,71,107,128
3,62,100,8
3,67,110,0
3,55,102,88
3,60,70,32
3,64,78,8
3,67,76,0
3,72,80,96
3,71,85,88
3,72,89,88
3,67,82,8
3,72,93,96
3,71,102,72
3,72,89,48
3,60,66,8
3,64,95,0
3,57,70,8
3,72,100,48
3,71,105,96
3,72,93,8
3,65,66,64
3,69,68,0
3,72,80,0
3,76,76,0
3,55,64,8
3,48,80,8
3,60,82,8
3,64,89,0
3,55,57,96
3,64,59,16
3,60,66,8
3,55,57,8
3,64,76,0
3,60,78,8
3,55,64,96
3,60,68,72
3,64,60,0
3,55,58,88
3,60,66,24
3,64,63,0
3,55,55,64
3,60,72,88
3,64,68,0
3,55,57,8
3,60,82,8
3,64,72,0
3,55,58,8
3,60,80,16
3,64,74,0
3,48,80,8
3,55,61,8
3,43,82,16
3,59,66,8
3,62,70,0
3,55,57,8
3,59,64,0
3,62,62,0
3,55,57,8
3,59,64,0
3,62,66,0
3,55,64,96
3,59,72,0
3,62,68,0
3,55,62,96
3,59,78,0
3,62,68,0
3,55,52,8
3,59,72,0
3,62,64,0
3,55,60,8
3,59,74,24
3,62,70,0
3,55,68,8
3,62,102,0
3,65,98,0
3,47,100,8
3,59,105,0
3,55,80,48
3,48,80,16
3,60,100,0
3,64,100,0
3,55,61,48
3,60,82,16
3,64,85,8
3,55,60,8
3,64,98,16
3,60,91,8
3,55,59,8
3,40,105,16
3,64,105,0
3,60,100,8
3,55,80,8
3,41,91,32
3,60,100,0
3,65,95,0
3,57,62,8
3,60,76,0
3,65,80,0
3,57,66,16
3,60,78,24
3,65,78,8
3,57,59,16
3,60,87,0
3,65,85,0
3,57,70,8
3,43,78,8
3,59,76,0
3,62,82,0
3,55,63,64
3,62,80,24
3,59,85,8
3,55,72,8
3,43,89,72
3,57,102,0
3,53,100,8
3,60,98,0
3,59,110,72
3,43,93,8
3,55,98,0
3,62,102,0
3,48,91,24
3,64,100,0
3,55,98,8
3,60,105,0
3,60,102,88
3,64,100,0
3,55,87,8
3,60,102,24
3,55,100,8
3,62,100,0
3,60,110,24
3,64,107,0
3,55,102,8
3,47,98,8
3,55,100,16
3,67,95,0
3,60,100,8
3,52,102,24
3,57,107,0
3,45,82,8
3,60,102,0
3,67,100,96
3,72,85,0
3,64,93,8
3,64,100,96
3,74,89,0
3,67,98,8
3,76,93,112
3,64,91,8
