track,note,velocity,time
1,81,58,2184
1,80,54,0
1,64,45,0
1,71,43,0
1,78,63,248
1,62,43,28
1,76,61,0
1,71,48,0
1,74,64,12
1,76,56,20
1,71,46,0
1,61,37,0
1,69,50,124
1,71,56,4
1,69,50,0
1,64,43,0
1,54,36,0
1,57,51,144
1,61,48,116
1,64,61,20
1,76,64,212
1,66,49,28
1,61,46,8
1,62,40,0
1,59,45,24
1,68,60,116
1,71,64,36
1,80,65,16
1,64,40,0
1,78,68,96
1,62,45,20
1,76,57,0
1,74,61,152
1,76,49,16
1,71,46,0
1,61,37,0
1,68,34,0
1,64,34,0
1,64,60,280
1,68,59,136
1,69,55,32
1,71,58,0
1,69,51,16
1,64,47,0
1,54,42,0
1,57,44,144
1,61,59,116
1,69,65,100
1,61,45,176
1,62,49,28
1,47,43,0
1,61,44,0
1,54,48,28
1,57,58,36
1,59,58,8
1,61,48,136
1,69,48,20
1,78,67,108
1,81,63,88
1,80,68,16
1,71,58,0
1,52,45,8
1,59,41,0
1,78,72,0
1,64,50,0
1,69,61,0
1,59,41,48
1,76,70,28
1,50,49,0
1,68,58,0
1,59,44,8
1,66,59,104
1,74,61,0
1,62,48,0
1,59,46,0
1,76,58,28
1,49,52,0
1,64,34,0
1,59,51,136
1,64,40,120
1,64,59,56
1,68,52,144
1,69,44,144
1,71,61,36
1,69,54,16
1,64,41,0
1,54,38,0
1,57,51,148
1,61,52,20
1,69,50,4
1,61,58,248
1,73,53,24
1,62,43,0
1,66,45,0
1,59,36,0
1,71,61,276
1,73,58,68
1,74,54,12
1,62,40,0
1,66,43,4
1,52,36,0
1,69,48,0
1,40,53,124
1,73,51,64
1,69,47,8
1,61,45,0
1,45,48,4
1,52,34,0
1,61,61,100
1,61,58,96
1,61,64,96
1,61,54,180
1,61,57,92
1,53,43,24
1,61,50,40
1,61,57,96
1,61,51,108
1,59,46,20
1,57,52,8
1,66,37,12
1,45,34,0
1,61,38,0
1,54,34,0
1,61,63,96
1,61,73,96
1,59,63,36
1,57,68,16
1,66,63,24
1,61,50,20
1,55,43,0
1,64,60,136
1,61,64,8
1,59,53,0
1,45,34,20
1,57,56,0
1,54,49,12
1,38,34,0
1,45,34,0
1,66,61,156
1,66,65,80
1,66,70,80
1,66,64,112
1,66,65,80
1,58,43,4
1,54,38,0
1,46,34,0
1,66,52,28
1,66,55,80
1,66,68,88
1,64,60,136
1,62,56,12
1,66,62,0
1,62,37,8
1,54,34,0
1,47,34,0
1,59,35,0
1,58,41,20
1,54,36,0
1,46,34,0
1,45,39,8
1,66,60,0
1,57,56,0
1,66,70,48
1,62,57,4
1,64,61,20
1,37,41,0
1,59,47,0
1,47,48,136
1,52,49,140
1,66,70,4
1,57,67,8
1,42,40,76
1,52,43,36
1,57,48,136
1,57,65,236
1,59,60,4
1,61,64,4
1,61,58,40
1,57,41,8
1,47,44,0
1,54,47,84
1,59,53,0
1,59,58,40
1,57,46,0
1,62,50,20
1,47,40,0
1,69,45,144
1,68,52,28
1,52,34,0
1,68,73,88
1,66,63,144
1,59,52,52
1,64,56,0
1,50,41,4
1,62,63,20
1,59,68,8
1,64,67,0
1,49,50,40
1,59,37,20
1,64,52,144
1,56,53,224
1,57,56,144
1,59,45,20
1,57,50,56
1,42,34,0
1,52,39,36
1,57,55,140
1,57,57,360
1,61,57,0
1,61,59,36
1,57,49,0
1,54,40,0
1,47,43,0
1,59,57,8
1,59,58,60
1,61,64,0
1,62,55,0
1,54,38,0
1,57,45,0
1,52,35,8
1,40,38,40
1,61,68,144
1,57,59,144
1,45,38,68
1,52,42,64
1,57,56,36
1,73,63,0
1,73,54,72
1,61,46,4
1,73,65,60
1,64,52,8
1,73,70,116
1,73,70,76
1,45,46,56
1,73,61,56
1,53,46,0
1,57,53,44
1,73,70,0
1,73,68,72
1,61,50,0
1,65,46,20
1,71,64,0
1,69,61,240
1,45,46,44
1,54,50,20
1,57,55,12
1,73,63,0
1,73,63,28
1,61,63,0
1,71,72,56
1,66,51,0
1,69,64,252
1,78,70,128
1,45,46,64
1,55,46,28
1,76,64,0
1,61,55,0
1,73,70,144
1,64,56,0
1,71,70,248
1,45,52,0
1,69,68,0
1,38,53,28
1,45,48,140
1,50,56,28
1,78,70,0
1,54,48,80
1,78,72,8
1,78,80,12
1,57,54,0
1,78,70,116
1,78,73,84
1,38,43,64
1,70,57,0
1,46,40,48
1,78,67,0
1,78,72,0
1,49,56,0
1,78,65,80
1,54,46,0
1,58,57,100
1,76,72,0
1,74,70,228
1,78,76,44
1,74,54,4
1,38,43,0
1,66,44,4
1,71,46,0
1,47,40,140
1,50,52,40
1,54,43,32
1,59,45,0
1,66,43,20
1,90,58,0
1,71,43,0
1,86,61,0
1,78,57,0
1,88,56,0
1,90,60,32
1,78,56,0
1,38,42,0
1,66,43,0
1,70,44,4
1,73,44,0
1,46,45,12
1,49,48,8
1,46,41,12
1,78,76,36
1,38,45,0
1,74,59,0
1,69,65,0
1,45,42,8
1,50,56,124
1,74,76,16
1,45,44,0
1,76,76,4
1,64,64,0
1,71,57,0
1,37,50,4
1,47,56,4
1,52,57,28
1,56,51,76
1,59,52,12
1,64,56,16
1,71,61,8
1,78,70,140
1,69,65,20
1,42,48,0
1,52,51,20
1,57,61,76
1,61,54,48
1,64,58,16
1,69,60,144
1,69,73,96
1,71,65,12
1,73,68,20
1,47,50,0
1,66,50,0
1,62,49,0
1,54,46,8
1,57,61,8
1,71,72,0
1,59,41,48
1,71,84,144
1,62,48,0
1,73,70,0
1,74,76,40
1,69,58,20
1,66,61,0
1,52,45,8
1,40,42,56
1,68,55,0
1,66,48,0
1,62,45,0
1,73,67,8
1,69,58,32
1,62,54,0
1,38,41,0
1,66,51,0
1,45,48,0
1,50,54,124
1,81,72,16
1,54,56,64
1,81,69,0
1,81,64,68
1,57,59,8
1,62,56,144
1,66,53,4
1,81,76,4
1,80,73,8
1,62,53,0
1,37,46,12
1,64,56,0
1,52,51,0
1,57,46,4
1,62,36,0
1,45,43,116
1,49,60,144
1,81,71,0
1,52,52,60
1,81,74,8
1,57,65,136
1,61,59,144
1,64,63,32
1,81,69,56
1,61,59,0
1,80,76,24
1,66,55,12
1,35,43,0
1,62,45,0
1,57,46,0
1,47,50,16
1,81,76,0
1,57,67,20
1,81,79,72
1,62,51,16
1,66,60,144
1,69,60,0
1,66,58,40
1,83,76,4
1,62,53,100
1,85,76,36
1,69,61,4
1,52,41,0
1,40,40,0
1,66,48,0
1,57,51,4
1,62,50,40
1,57,57,16
1,83,78,0
1,62,54,68
1,68,59,68
1,52,42,0
1,59,52,0
1,81,79,0
1,64,51,0
1,59,46,0
1,80,78,8
1,64,48,0
1,38,43,28
1,69,56,0
1,57,45,0
1,66,44,4
1,45,43,0
1,80,83,40
1,50,56,20
1,81,81,20
1,57,70,32
1,81,81,64
1,62,60,8
1,66,63,148
1,69,64,40
1,66,61,96
1,81,69,0
1,80,78,20
1,69,63,0
1,57,51,8
1,37,48,0
1,64,51,0
1,61,48,4
1,45,40,108
1,49,57,124
1,81,74,0
1,57,58,68
1,81,73,12
1,61,61,132
1,64,55,140
1,69,59,32
1,64,58,12
1,81,78,0
1,80,81,8
1,57,50,8
1,66,61,0
1,35,47,0
1,62,52,0
1,47,48,132
1,81,78,28
1,57,65,8
1,62,58,72
1,81,76,4
1,66,67,136
1,69,59,12
1,83,81,0
1,66,56,0
1,85,81,56
1,62,57,12
1,66,58,36
1,57,54,0
1,52,43,8
1,40,40,0
1,62,50,20
1,83,75,60
1,57,60,16
1,62,51,0
1,81,78,8
1,68,61,12
1,59,48,0
1,52,47,0
1,64,51,0
1,52,53,8
1,64,62,0
1,68,67,0
1,59,60,0
1,40,34,4
1,80,88,4
1,40,50,8
1,57,64,8
1,38,59,0
1,62,63,0
1,66,62,0
1,80,91,12
1,45,64,76
1,54,68,20
1,81,90,16
1,57,67,60
1,62,69,0
1,81,88,20
1,93,77,116
1,54,57,8
1,90,69,76
1,57,69,0
1,81,87,0
1,86,64,20
1,62,73,0
1,88,72,8
1,37,77,0
1,80,87,0
1,45,68,4
1,52,69,112
1,81,88,4
1,57,75,100
1,64,75,4
1,100,82,52
1,81,87,8
1,52,63,108
1,97,81,20
1,57,73,0
1,81,84,104
1,80,87,64
1,98,85,0
1,47,69,0
1,59,70,8
1,62,70,0
1,54,68,36
1,81,88,4
1,57,66,100
1,81,91,20
1,83,90,88
1,59,70,0
1,62,73,0
1,57,68,0
1,62,65,4
1,40,75,4
1,66,67,0
1,52,62,0
1,85,90,0
1,47,67,16
1,52,67,12
1,83,90,0
1,66,75,212
1,81,91,0
1,57,72,116
1,62,75,68
1,66,77,8
1,40,72,48
1,59,55,0
1,66,77,0
1,62,66,0
1,52,73,0
1,69,81,4
1,81,91,20
1,68,85,144
1,50,82,0
1,64,78,0
1,38,81,0
1,80,94,0
1,81,62,100
1,59,81,48
1,83,60,8
1,85,64,24
1,86,76,40
1,64,81,36
1,78,91,0
1,88,69,4
1,90,60,0
1,92,61,0
1,68,82,8
1,93,73,4
1,95,69,20
1,97,66,56
1,49,77,20
1,37,75,0
1,56,77,0
1,64,78,0
1,61,65,0
1,76,91,4
1,98,71,0
1,100,82,0
1,49,63,12
1,56,75,60
1,52,70,0
1,49,70,8
1,61,72,16
1,78,81,136
1,56,72,4
1,54,70,4
1,57,67,0
1,42,62,0
1,69,68,4
1,56,88,28
1,61,77,0
1,57,82,136
1,59,75,136
1,54,63,24
1,57,67,0
1,61,67,0
1,49,62,52
1,59,70,12
1,62,72,0
1,47,67,0
1,73,75,0
1,54,65,68
1,71,72,0
1,71,78,76
1,59,75,288
1,62,70,140
1,66,70,0
1,47,61,36
1,64,75,24
1,59,68,0
1,52,69,0
1,40,66,8
1,56,63,0
1,59,82,116
1,76,75,0
1,80,77,0
1,64,85,8
1,78,75,0
1,74,70,0
1,64,82,0
1,59,85,0
1,50,82,0
1,38,75,4
1,73,72,0
1,76,78,0
1,56,82,116
1,59,81,72
1,71,67,0
1,74,77,0
1,64,77,4
1,73,66,0
1,76,84,4
1,64,73,68
1,61,70,0
1,56,65,0
1,49,72,0
1,37,69,8
1,49,68,128
1,56,62,144
1,52,56,8
1,92,73,76
1,56,66,0
1,52,61,4
1,59,67,0
1,95,70,4
1,92,72,0
1,37,61,4
1,57,60,0
1,61,61,0
1,54,63,4
1,42,55,0
1,93,77,0
1,97,73,76
1,68,73,124
1,57,43,0
1,61,51,0
1,100,77,8
1,66,67,0
1,61,68,112
1,97,75,136
1,49,55,32
1,59,55,40
1,98,67,8
1,47,56,0
1,62,55,0
1,54,60,52
1,61,81,280
1,66,82,4
1,62,75,136
1,78,75,4
1,81,70,0
1,59,67,0
1,80,85,8
1,76,82,0
1,68,75,0
1,52,77,0
1,64,68,8
1,40,72,0
1,59,55,0
1,64,82,28
1,68,88,124
1,50,81,16
1,66,84,0
1,38,75,0
1,78,78,0
1,74,72,0
1,56,64,120
1,59,67,48
1,76,75,8
1,80,77,0
1,66,72,60
1,49,65,60
1,56,57,0
1,61,62,0
1,37,61,0
1,64,62,4
1,76,81,0
1,73,73,0
1,49,70,160
1,56,64,88
1,52,59,0
1,59,68,32
1,52,62,0
1,78,77,0
1,69,65,0
1,56,66,136
1,69,77,8
1,66,66,4
1,61,68,8
1,57,68,0
1,42,63,0
1,49,77,0
1,61,67,28
1,56,72,0
1,54,62,8
1,61,65,0
1,57,64,0
1,93,63,4
1,92,68,60
1,90,68,128
1,42,70,0
1,88,67,104
1,86,65,84
1,47,63,0
1,62,67,0
1,54,52,0
1,57,53,4
1,73,75,0
1,64,59,0
1,71,72,0
1,54,67,76
1,71,75,0
1,62,61,0
1,59,69,184
1,66,73,0
1,61,73,0
1,73,75,4
1,64,66,0
1,74,75,8
1,66,67,0
1,52,61,8
1,40,61,0
1,57,57,0
1,62,53,0
1,40,53,20
1,56,67,0
1,64,65,0
1,59,63,0
1,52,58,4
1,73,70,52
1,45,51,28
1,69,70,0
1,61,60,0
1,64,62,0
1,57,68,0
1,69,64,64
1,81,64,4
1,71,69,24
1,83,72,8
1,55,82,20
1,86,85,36
1,59,68,0
1,62,75,0
1,74,84,8
1,45,55,36
1,85,85,0
1,52,56,0
1,57,75,0
1,61,68,0
1,64,70,0
1,73,72,0
1,62,68,4
1,55,59,0
1,59,60,0
1,45,60,4
1,83,85,0
1,71,75,4
1,61,72,220
1,64,72,0
1,54,66,0
1,57,65,0
1,42,61,0
1,69,75,4
1,81,88,0
1,49,60,96
1,61,72,80
1,57,70,0
1,64,67,68
1,57,57,0
1,54,57,0
1,74,84,20
1,86,85,16
1,47,70,0
1,59,59,0
1,62,62,4
1,54,57,0
1,59,69,72
1,66,78,144
1,61,78,0
1,62,72,144
1,61,67,124
1,59,64,136
1,54,69,0
1,40,63,8
1,59,63,0
1,62,64,4
1,47,66,4
1,52,75,88
1,57,78,144
1,64,75,0
1,64,72,88
1,55,73,0
1,52,67,0
1,88,84,0
1,45,61,0
1,57,59,0
1,64,60,0
1,61,53,0
1,76,66,4
1,73,67,120
1,85,75,4
1,71,68,4
1,83,75,0
1,61,77,128
1,64,77,0
1,43,75,4
1,81,77,0
1,69,70,0
1,57,77,132
1,79,77,104
1,59,84,0
1,67,67,0
1,81,77,0
1,69,70,0
1,61,73,0
1,61,70,4
1,57,64,0
1,42,62,4
1,49,59,32
1,54,68,136
1,97,72,280
1,57,57,0
1,64,61,8
1,100,72,36
1,61,53,0
1,69,65,0
1,97,72,56
1,59,56,8
1,98,75,4
1,62,56,0
1,66,56,0
1,47,56,0
1,54,75,88
1,57,77,144
1,62,81,0
1,90,64,56
1,59,82,0
1,62,81,8
1,91,70,124
1,93,73,0
1,59,68,4
1,55,61,0
1,40,62,0
1,95,75,0
1,52,56,4
1,47,57,52
1,59,69,96
1,55,66,8
1,86,78,116
1,74,75,0
1,62,75,0
1,55,70,0
1,40,67,0
1,85,81,0
1,73,69,0
1,57,72,4
1,61,75,0
1,64,75,4
1,45,77,0
1,52,78,12
1,57,77,52
1,61,69,0
1,83,81,60
1,71,75,0
1,64,73,0
1,55,77,0
1,43,75,4
1,57,56,0
1,57,63,76
1,61,66,44
1,81,77,120
1,69,72,8
1,57,61,0
1,61,59,0
1,64,57,0
1,54,66,4
1,42,60,0
1,61,70,88
1,100,65,84
1,97,69,96
1,83,72,116
1,71,72,8
1,93,75,0
1,64,69,0
1,57,63,0
1,74,72,0
1,62,70,0
1,97,75,0
1,98,81,0
1,59,61,8
1,47,69,0
1,54,69,8
1,61,75,144
1,66,72,0
1,62,67,144
1,97,70,76
1,64,73,0
1,95,69,68
1,66,68,0
1,93,70,4
1,78,73,48
1,91,66,4
1,62,63,0
1,59,58,0
1,40,67,0
1,66,69,0
1,47,77,28
1,64,67,124
1,76,77,0
1,76,78,80
1,64,70,8
1,54,75,0
1,59,70,0
1,55,75,280
1,78,75,0
1,66,61,8
1,52,72,0
1,47,68,0
1,79,77,112
1,67,69,0
1,45,66,0
1,59,68,0
1,55,61,0
1,62,69,4
1,45,55,116
1,52,56,144
1,61,59,0
1,64,62,0
1,57,65,0
1,78,75,0
1,66,67,8
1,57,62,232
1,38,62,0
1,62,59,8
1,74,77,4
1,45,53,124
1,50,65,8
1,69,68,8
1,61,57,0
1,64,60,0
1,50,57,48
1,67,66,0
1,59,57,0
1,62,60,4
1,57,61,52
1,66,60,0
1,62,61,4
1,50,48,4
1,38,53,0
1,45,37,840
1,61,48,0
1,52,37,16
1,64,45,0
1,57,45,144
1,73,61,0
1,73,63,104
1,52,34,0
1,73,67,92
1,57,44,4
1,73,61,12
1,73,64,68
1,65,49,16
1,45,38,0
1,61,47,0
1,73,56,0
1,53,40,0
1,73,62,68
1,57,48,0
1,73,68,84
1,53,41,0
1,71,62,64
1,57,40,0
1,61,51,4
1,69,62,32
1,85,55,132
1,66,48,20
1,61,46,0
1,45,41,0
1,97,65,4
1,54,46,132
