track,note,velocity,time
0,42,90,0
0,42,70,93
0,42,70,93
0,42,70,93
0,57,68,93
0,64,78,0
0,45,96,1
0,45,84,25
0,45,92,25
0,45,68,25
0,45,92,25
0,45,74,25
0,45,100,25
0,45,80,25
0,45,88,25
0,45,80,25
0,45,96,25
0,66,88,17
0,59,74,1
0,45,84,7
0,45,92,25
0,62,74,16
0,45,84,9
0,55,84,0
0,45,92,25
0,64,92,0
0,57,68,1
0,45,84,1
0,45,96,25
0,45,74,25
0,45,92,25
0,45,84,25
0,45,88,25
0,45,80,25
0,45,100,25
0,45,84,25
0,45,88,25
0,45,84,25
0,45,88,25
0,66,82,20
0,59,74,1
0,45,100,2
0,98,100,24
0,45,84,1
0,45,96,25
0,62,74,0
0,55,88,1
0,97,100,0
0,45,84,25
0,93,78,0
0,45,92,1
0,88,92,0
0,57,74,1
0,64,84,1
0,45,88,25
0,45,70,25
0,45,96,25
0,69,120,0
0,45,84,25
0,45,84,25
0,45,84,25
0,69,120,0
0,45,92,25
0,45,74,25
0,45,92,21
0,69,126,0
0,69,68,20
0,45,80,5
0,45,92,25
0,45,88,25
0,69,126,0
0,45,96,25
0,45,84,25
0,45,96,25
0,69,126,0
0,45,80,25
0,45,92,6
0,71,84,20
0,76,70,1
0,45,92,4
0,69,126,0
0,45,96,25
0,45,92,25
0,45,92,25
0,69,126,0
0,45,84,25
0,45,100,25
0,45,88,25
0,69,120,0
0,45,96,25
0,81,80,16
0,45,100,2
0,45,100,25
0,69,126,0
0,45,100,25
0,93,88,20
0,88,92,2
0,45,100,3
0,45,110,25
0,45,110,25
0,38,126,0
0,42,126,0
0,49,126,0
0,69,126,0
0,33,126,25
0,45,110,0
0,45,120,4
0,36,126,1
0,42,126,0
0,91,106,1
0,86,96,2
0,45,84,1
0,33,126,2
0,42,116,0
0,36,110,0
0,45,100,3
0,38,126,1
0,42,126,0
0,45,62,5
0,33,120,2
0,42,110,0
0,45,80,7
0,43,116,1
0,42,116,0
0,36,126,0
0,45,110,9
0,45,80,0
0,36,110,1
0,42,110,0
0,45,106,1
0,42,126,2
0,38,126,0
0,45,80,13
0,46,126,0
0,33,120,2
0,36,126,0
0,45,80,16
0,42,126,1
0,33,126,3
0,45,84,0
0,36,120,0
0,42,116,0
0,45,106,1
0,38,126,0
0,42,126,0
0,33,116,24
0,45,62,1
0,42,110,0
0,43,120,0
0,45,96,1
0,42,126,1
0,36,116,0
0,45,110,1
0,45,84,2
0,42,110,0
0,45,100,1
0,38,126,2
0,42,126,0
0,45,96,25
0,33,110,2
0,46,116,0
0,45,92,25
0,36,126,2
0,42,116,0
0,45,88,23
0,33,116,2
0,42,116,0
0,45,106,25
0,38,126,2
0,42,126,0
0,33,120,23
0,45,92,0
0,42,110,2
0,43,120,1
0,45,92,0
0,36,126,1
0,42,116,1
0,45,110,1
0,45,80,0
0,42,110,0
0,45,106,1
0,42,126,1
0,38,126,0
0,45,96,25
0,71,100,1
0,36,120,0
0,46,126,0
0,33,116,1
0,45,84,26
0,42,116,0
0,45,92,23
0,76,96,0
0,36,126,1
0,33,120,1
0,42,126,0
0,45,106,0
0,38,126,1
0,42,116,0
0,33,116,24
0,45,92,0
0,42,110,2
0,71,92,1
0,43,120,1
0,45,106,0
0,36,120,0
0,42,126,1
0,45,116,1
0,52,110,0
0,45,116,0
0,38,120,0
0,42,116,0
0,69,88,22
0,45,92,3
0,42,126,0
0,38,126,0
0,64,92,22
0,45,100,3
0,52,120,0
0,46,126,0
0,36,120,0
0,33,126,1
0,45,84,6
0,36,120,0
0,42,126,0
0,61,110,19
0,52,96,1
0,57,100,0
0,42,116,4
0,69,106,0
0,33,120,1
0,45,80,1
0,45,106,23
0,52,106,0
0,38,126,1
0,69,106,0
0,42,126,1
0,33,116,24
0,45,66,0
0,69,100,0
0,42,110,2
0,59,96,23
0,55,110,0
0,50,106,0
0,43,126,1
0,45,100,0
0,69,106,0
0,42,116,1
0,36,120,0
0,45,116,1
0,45,100,0
0,52,110,0
0,42,116,0
0,81,116,0
0,45,74,25
0,38,126,0
0,69,106,0
0,42,126,1
0,45,106,1
0,46,126,0
0,69,116,0
0,33,120,1
0,36,126,0
0,45,92,0
0,42,116,0
0,45,88,25
0,42,110,1
0,36,110,0
0,33,120,1
0,69,110,0
0,45,110,23
0,52,100,0
0,42,126,0
0,38,126,0
0,69,100,1
0,33,110,23
0,45,70,0
0,42,110,1
0,69,106,0
0,43,126,1
0,45,84,0
0,36,120,0
0,42,116,0
0,69,106,0
0,45,116,1
0,45,106,0
0,52,110,0
0,42,116,0
0,81,110,0
0,45,70,25
0,38,126,0
0,42,126,0
0,69,110,0
0,33,120,25
0,45,110,0
0,46,126,0
0,36,120,0
0,69,110,0
0,45,74,25
0,42,126,0
0,38,126,25
0,42,126,0
0,45,96,1
0,69,110,0
0,33,120,1
0,54,102,2
0,57,88,0
0,62,88,1
0,45,106,6
0,52,116,0
0,61,78,0
0,57,74,0
0,52,100,0
0,42,126,0
0,69,100,0
0,33,110,25
0,45,78,0
0,36,116,0
0,42,126,0
0,69,106,0
0,43,126,1
0,45,96,0
0,38,120,0
0,42,116,1
0,69,116,1
0,45,120,1
0,45,106,0
0,52,106,0
0,38,120,0
0,45,116,0
0,81,110,0
0,45,84,25
0,41,116,0
0,38,120,0
0,69,116,0
0,45,88,1
0,61,126,0
0,57,92,0
0,52,96,0
0,49,116,0
0,36,126,0
0,69,120,0
0,30,126,2
0,42,102,25
0,42,96,0
0,42,82,25
0,42,126,0
0,42,116,25
0,42,126,2
0,38,126,0
0,59,96,22
0,48,116,1
0,55,88,0
0,36,126,0
0,49,116,0
0,36,116,2
0,48,100,25
0,42,116,0
0,48,96,25
0,48,110,0
0,38,126,0
0,48,116,25
0,45,110,0
0,38,126,0
0,61,88,8
0,57,88,1
0,45,116,2
0,36,126,0
0,49,126,0
0,33,120,1
0,81,116,24
0,69,126,0
0,45,100,1
0,42,110,0
0,69,116,1
0,64,110,0
0,61,116,0
0,81,120,1
0,69,126,0
0,45,96,14
0,33,116,1
0,42,116,0
0,45,110,25
0,52,96,0
0,38,126,2
0,42,126,0
0,69,126,1
0,45,80,24
0,33,120,1
0,42,116,0
0,69,126,22
0,45,100,0
0,43,116,1
0,36,120,0
0,42,126,0
0,45,100,24
0,45,116,0
0,52,116,0
0,42,110,1
0,45,88,1
0,67,126,0
0,42,126,2
0,38,126,0
0,45,106,4
0,69,116,0
0,33,120,1
0,46,126,0
0,36,126,0
0,45,74,7
0,42,116,1
0,45,96,23
0,33,110,2
0,42,110,0
0,36,120,0
0,45,106,25
0,42,126,1
0,38,126,0
0,45,92,25
0,88,100,0
0,33,116,2
0,42,116,0
0,86,96,1
0,45,96,0
0,42,126,0
0,43,116,1
0,36,126,0
0,45,110,1
0,45,106,0
0,52,116,0
0,85,102,0
0,42,116,0
0,45,78,1
0,81,110,0
0,38,126,1
0,42,126,1
0,45,116,1
0,88,100,0
0,46,126,1
0,33,120,1
0,36,126,0
0,45,74,25
0,42,126,0
0,45,110,25
0,36,110,1
0,33,116,1
0,42,116,0
0,45,110,25
0,38,126,0
0,42,126,1
0,33,110,25
0,45,96,0
0,42,116,2
0,43,126,1
0,45,110,0
0,36,126,1
0,42,126,0
0,45,116,1
0,45,100,0
0,52,116,0
0,42,110,0
0,45,96,25
0,38,126,0
0,42,126,1
0,76,106,21
0,33,126,4
0,45,116,0
0,46,126,0
0,36,126,0
0,83,106,4
0,45,88,4
0,42,126,0
0,45,92,11
0,42,126,1
0,33,120,1
0,36,110,0
0,81,106,24
0,45,106,1
0,42,126,2
0,38,126,0
0,76,100,3
0,45,100,1
0,33,110,1
0,42,110,0
0,45,100,0
0,43,120,1
0,36,116,0
0,42,116,0
0,74,92,5
0,45,110,0
0,45,106,0
0,52,120,0
0,38,106,0
0,38,24,1
0,73,110,0
0,45,92,3
0,38,126,0
0,69,96,0
0,33,116,5
0,45,110,0
0,36,126,2
0,45,106,25
0,49,116,0
0,36,126,1
0,45,100,25
0,33,116,2
0,42,88,0
0,45,106,25
0,52,110,1
0,38,126,0
0,42,126,0
0,69,126,2
0,45,80,3
0,42,116,0
0,33,116,1
0,45,100,24
0,69,126,0
0,42,116,0
0,36,120,0
0,43,116,1
0,52,116,25
0,42,116,0
0,45,100,0
0,45,110,1
0,45,80,24
0,67,126,0
0,38,126,2
0,42,126,0
0,45,106,25
0,33,126,1
0,69,120,0
0,46,126,0
0,36,120,0
0,45,78,2
0,42,116,2
0,45,96,23
0,33,126,2
0,42,126,0
0,45,106,19
0,38,126,1
0,42,126,0
0,45,92,25
0,33,110,2
0,64,120,0
0,42,116,0
0,45,100,23
0,36,120,0
0,43,126,1
0,86,110,0
0,42,116,0
0,52,106,25
0,45,110,0
0,42,110,0
0,45,116,1
0,85,110,0
0,45,78,25
0,81,100,1
0,38,126,0
0,42,116,0
0,45,100,23
0,33,120,0
0,81,106,1
0,46,126,0
0,36,120,0
0,45,88,25
0,42,126,1
0,45,92,24
0,33,120,2
0,42,116,0
0,52,110,25
0,45,110,0
0,38,126,1
0,42,126,1
0,33,116,23
0,45,74,0
0,42,126,0
0,43,126,1
0,45,100,0
0,42,110,0
0,36,120,0
0,45,110,1
0,52,106,0
0,38,120,0
0,48,96,0
0,45,120,1
0,45,88,25
0,45,110,0
0,38,126,1
0,45,66,24
0,30,126,1
0,61,78,0
0,36,126,0
0,49,126,0
0,57,68,1
0,42,110,25
0,42,102,0
0,42,88,25
0,42,110,1
0,42,126,0
0,38,126,2
0,42,116,0
0,59,80,23
0,55,74,1
0,43,120,1
0,36,120,1
0,36,126,1
0,42,126,0
0,43,74,25
0,60,126,0
0,42,116,2
0,43,110,1
0,59,116,0
0,38,126,2
0,45,110,0
0,48,110,1
0,57,116,0
0,38,120,1
0,41,106,0
0,61,102,24
0,45,110,1
0,57,92,0
0,57,116,1
0,36,126,0
0,33,120,1
0,49,102,0
0,45,80,25
0,42,102,2
0,67,110,22
0,45,116,1
0,33,110,2
0,36,110,0
0,42,116,0
0,67,110,16
0,45,110,3
0,52,116,0
0,61,126,1
0,57,80,0
0,61,116,0
0,64,110,0
0,69,120,0
0,38,126,0
0,42,126,0
0,67,106,19
0,45,78,3
0,33,110,1
0,42,110,0
0,67,110,12
0,43,120,0
0,45,106,0
0,36,126,1
0,42,126,0
0,45,110,0
0,52,116,0
0,61,102,0
0,64,116,0
0,69,110,0
0,45,116,1
0,61,110,1
0,57,80,0
0,42,116,0
0,45,68,1
0,66,126,1
0,38,126,1
0,42,126,0
0,45,110,24
0,61,96,0
0,64,96,0
0,69,116,0
0,33,116,2
0,61,110,0
0,36,120,0
0,46,126,0
0,57,80,1
0,67,120,21
0,45,78,5
0,42,126,1
0,66,110,22
0,45,88,1
0,33,120,2
0,42,110,0
0,36,116,0
0,64,110,11
0,45,106,4
0,64,110,0
0,61,110,0
0,61,102,0
0,69,120,0
0,38,120,0
0,42,126,1
0,57,80,1
0,45,96,3
0,33,110,1
0,42,110,0
0,45,100,0
0,36,120,0
0,43,120,1
0,42,110,0
0,45,100,25
0,45,110,0
0,42,110,0
0,52,120,0
0,61,126,0
0,57,84,0
0,69,110,0
0,64,116,0
0,45,70,24
0,38,126,0
0,42,126,1
0,61,126,0
0,57,78,0
0,45,110,1
0,42,110,0
0,33,120,2
0,64,116,0
0,69,116,0
0,45,106,25
0,61,116,1
0,36,126,0
0,42,126,0
0,45,96,23
0,33,116,2
0,64,110,0
0,42,110,0
0,61,126,21
0,45,116,1
0,52,110,0
0,64,110,0
0,69,110,0
0,64,120,0
0,57,78,0
0,38,126,1
0,42,126,0
0,33,120,1
0,45,84,0
0,66,116,0
0,42,116,1
0,43,120,1
0,45,106,0
0,67,110,0
0,36,120,1
0,42,126,1
0,61,102,0
0,45,106,1
0,66,116,0
0,57,92,0
0,64,92,0
0,45,120,1
0,64,120,0
0,69,116,0
0,42,110,1
0,45,100,1
0,64,116,0
0,38,126,2
0,42,116,0
0,59,106,23
0,62,96,0
0,64,92,0
0,31,126,0
0,43,110,0
0,66,126,0
0,69,110,0
0,64,116,0
0,62,106,0
0,36,126,0
0,49,96,0
0,43,100,3
0,42,102,0
0,43,106,4
0,42,82,1
0,43,120,25
0,64,110,2
0,62,116,0
0,38,126,0
0,42,126,0
0,31,126,23
0,43,106,1
0,42,110,0
0,43,110,24
0,31,126,2
0,36,120,0
0,42,116,0
0,43,106,25
0,62,106,0
0,64,116,0
0,69,106,0
0,38,126,0
0,46,116,2
0,43,110,25
0,38,126,1
0,42,126,1
0,64,88,19
0,57,74,0
0,45,116,1
0,61,78,0
0,64,126,1
0,69,116,0
0,49,116,0
0,36,126,0
0,33,120,1
0,45,96,25
0,42,116,0
0,45,96,23
0,67,106,1
0,42,116,0
0,33,116,1
0,45,110,9
0,52,106,0
0,67,106,0
0,61,96,1
0,64,100,0
0,64,120,0
0,69,110,0
0,57,78,1
0,38,126,0
0,42,126,0
0,45,84,5
0,33,110,2
0,42,110,0
0,45,106,25
0,67,116,0
0,43,120,1
0,36,120,0
0,42,126,0
0,52,116,25
0,45,110,0
0,45,110,0
0,61,102,0
0,57,78,0
0,57,78,0
0,64,88,1
0,42,116,0
0,45,78,24
0,66,126,2
0,64,96,0
0,69,110,0
0,38,126,0
0,42,126,0
0,45,120,1
0,64,116,0
0,69,120,0
0,61,88,1
0,33,126,1
0,64,106,0
0,64,92,0
0,57,74,0
0,46,126,0
0,36,126,0
0,45,116,25
0,67,110,2
0,42,126,0
0,45,106,23
0,42,126,1
0,33,120,1
0,66,110,0
0,64,110,3
0,45,116,2
0,52,116,0
0,64,120,2
0,69,116,0
0,38,126,0
0,42,126,0
0,61,102,3
0,64,96,1
0,45,96,14
0,33,116,2
0,42,110,0
0,64,120,1
0,43,120,0
0,45,100,0
0,36,126,1
0,42,126,0
0,45,116,0
0,45,120,0
0,52,120,0
0,57,120,0
0,42,110,2
0,61,102,1
0,57,84,1
0,64,100,0
0,45,88,17
0,69,110,1
0,64,120,0
0,38,126,0
0,42,126,0
0,61,88,22
0,33,126,1
0,45,116,0
0,57,80,1
0,64,96,0
0,64,126,1
0,69,120,0
0,36,120,0
0,42,126,0
0,45,116,25
0,42,126,2
0,61,116,1
0,45,116,5
0,42,116,0
0,33,120,1
0,64,110,0
0,36,120,1
0,64,116,12
0,52,110,3
0,45,110,0
0,69,110,0
0,64,120,0
0,38,126,2
0,42,126,0
0,61,96,1
0,64,100,0
0,66,116,1
0,64,22,4
0,33,110,1
0,45,100,0
0,42,110,1
0,67,116,8
0,43,126,1
0,45,100,0
0,36,126,0
0,42,126,1
0,66,116,22
0,45,116,1
0,52,110,0
0,61,102,0
0,42,116,0
0,64,100,1
0,57,92,0
0,45,110,1
0,64,116,9
0,45,110,4
0,38,126,0
0,46,110,1
0,64,120,1
0,69,120,0
0,64,116,18
0,61,88,4
0,42,116,1
0,57,88,0
0,52,96,0
0,64,96,0
0,54,126,0
0,57,116,0
0,49,110,0
0,36,126,0
0,30,126,1
0,42,72,25
0,42,116,0
0,42,116,25
0,42,126,2
0,42,126,8
0,38,126,2
0,42,126,0
0,48,126,19
0,36,116,0
0,59,100,1
0,64,110,0
0,55,92,0
0,36,126,1
0,59,126,0
0,64,120,0
0,49,116,0
0,35,48,0
0,48,106,25
0,42,116,0
0,48,120,25
0,38,126,0
0,48,126,1
0,48,116,24
0,45,120,0
0,38,126,0
0,61,88,21
0,64,100,1
0,57,78,0
0,45,116,1
0,57,116,0
0,64,116,0
0,36,120,0
0,49,126,0
0,33,126,2
0,45,106,25
0,42,110,0
0,45,100,23
0,42,126,1
0,33,116,1
0,36,106,0
0,67,120,1
0,45,110,1
0,52,120,0
0,61,96,1
0,64,126,0
0,69,126,0
0,38,126,0
0,42,126,0
0,64,96,1
0,57,80,0
0,33,110,23
0,45,92,1
0,42,116,1
0,43,120,1
0,45,106,0
0,67,126,1
0,36,126,1
