track,note,velocity,time
1,40,127,8796
1,40,108,28
1,40,127,8
1,40,127,104
1,38,127,104
1,40,118,20
1,38,127,104
1,40,118,104
1,38,127,296
1,40,127,124
1,38,127,104
1,38,127,8
1,40,127,8
1,38,127,104
1,40,118,20
1,40,127,104
1,40,108,28
1,40,127,8
1,40,127,104
1,38,127,104
1,40,118,20
1,38,127,104
1,40,127,20
1,38,127,296
1,40,127,40
1,38,127,104
1,38,91,8
1,40,127,8
1,38,127,104
1,40,127,20
1,43,127,104
1,43,118,8
1,43,127,8
1,43,108,8
1,43,127,8
1,43,127,104
1,43,127,104
1,43,127,116
1,43,127,28
1,45,127,104
1,45,108,8
1,45,127,8
1,45,118,8
1,45,127,8
1,45,108,104
1,48,127,104
1,50,127,124
1,40,127,296
1,40,118,28
1,40,127,8
1,38,127,104
1,38,127,104
1,40,127,104
1,38,127,104
1,40,127,20
1,38,127,296
1,40,127,124
1,38,127,104
1,38,127,8
1,40,127,8
1,38,127,104
1,40,127,104
1,40,127,104
1,40,108,28
1,40,127,8
1,40,127,104
1,38,127,104
1,40,127,104
1,38,127,104
1,40,127,104
1,38,127,296
1,40,127,40
1,38,127,104
1,38,127,8
1,40,127,8
1,38,127,104
1,40,127,104
1,40,127,104
1,40,118,28
1,40,127,8
1,40,127,104
1,38,127,104
1,40,127,20
1,38,127,104
1,40,127,104
1,40,127,296
1,40,127,40
1,38,127,104
1,40,127,104
1,38,127,104
1,40,127,20
1,43,127,104
1,43,118,28
1,43,127,8
1,43,127,104
1,43,127,296
1,43,127,20
1,43,127,104
1,45,127,104
1,45,108,28
1,45,127,8
1,45,127,104
1,45,127,296
1,43,127,104
1,45,127,20
1,40,127,104
1,40,108,28
1,40,127,8
1,40,127,104
1,38,127,104
1,40,127,104
1,38,127,104
1,40,127,104
1,38,127,296
1,40,127,40
1,38,127,104
1,38,127,8
1,40,127,8
1,38,127,104
1,40,127,104
1,40,127,104
1,40,108,28
1,40,127,8
1,40,127,104
1,38,127,104
1,40,127,104
1,38,127,104
1,40,127,104
1,38,127,296
1,40,127,40
1,38,127,104
1,38,127,8
1,40,127,8
1,38,127,104
1,40,127,104
1,40,127,104
1,40,118,28
1,40,127,8
1,40,127,104
1,38,127,104
1,40,127,20
1,38,127,104
1,40,127,104
1,40,127,296
1,40,127,40
1,38,127,104
1,40,127,104
1,38,127,104
1,40,127,20
1,43,127,104
1,43,118,28
1,43,127,8
1,43,127,104
1,43,127,296
1,43,127,20
1,43,127,104
1,45,127,104
1,45,108,28
1,45,127,8
1,45,127,104
1,45,127,296
1,43,127,104
1,45,127,20
1,40,127,104
1,40,108,28
1,40,127,8
1,40,127,104
1,38,127,104
1,40,127,104
1,38,127,104
1,40,127,104
1,38,127,296
1,40,127,40
1,38,127,104
1,38,127,8
1,40,127,8
1,38,127,104
1,40,127,104
1,35,127,104
1,35,127,104
1,35,127,212
1,35,127,104
1,35,127,144
1,40,127,104
1,40,118,8
1,40,127,8
1,40,127,392
1,42,127,8
1,42,127,104
1,42,127,116
1,42,127,8
1,43,127,104
1,43,127,8
1,43,127,8
1,43,127,296
1,45,127,104
1,45,127,116
1,45,127,104
1,45,127,8
1,48,127,104
1,48,118,8
1,48,127,8
1,48,127,104
1,45,127,104
1,43,127,104
1,45,127,116
1,43,127,200
1,45,127,8
1,48,127,8
1,36,127,1364
1,35,127,20
1,36,127,20
1,38,127,20
1,38,127,296
1,36,127,40
1,35,127,20
1,38,127,20
1,42,127,20
1,40,127,20
1,40,127,212
1,38,127,40
1,33,118,20
1,33,99,8
1,36,127,8
1,40,127,104
1,38,127,104
1,38,127,124
1,39,127,40
1,40,99,20
1,40,118,8
1,35,127,8
1,28,127,104
1,40,127,104
1,40,127,116
1,28,127,8
1,28,127,8
1,40,127,8
1,40,127,8
1,28,127,8
1,28,127,8
1,36,127,8
1,35,99,20
1,36,127,20
1,38,127,20
1,38,127,296
1,36,127,40
1,35,127,104
1,38,127,20
1,42,127,20
1,40,127,20
1,40,127,296
1,38,127,40
1,33,127,20
1,33,127,104
1,35,127,104
1,35,127,220
1,33,127,8
1,35,127,8
1,38,127,8
1,33,127,8
1,38,127,8
1,40,127,692
1,40,118,28
1,40,127,8
1,40,127,104
1,38,127,104
1,40,127,20
1,38,127,20
1,40,127,20
1,38,127,296
1,40,118,40
1,38,127,20
1,38,127,8
1,40,108,8
1,38,127,104
1,40,127,20
1,40,127,104
1,40,118,28
1,40,127,8
1,40,127,104
1,38,127,104
1,40,127,20
1,38,127,104
1,40,127,20
1,38,127,296
1,40,127,40
1,38,127,20
1,38,127,8
1,40,127,8
1,38,127,104
1,40,127,20
1,40,127,20
1,40,108,28
1,40,127,8
1,40,127,104
1,38,127,104
1,40,127,104
1,38,127,104
1,40,127,104
1,38,127,296
1,40,127,40
1,38,127,104
1,38,127,8
1,40,127,8
1,38,127,104
1,40,127,104
1,40,127,104
1,40,118,28
1,40,127,8
1,40,127,104
1,38,127,104
1,40,127,20
1,38,127,104
1,40,127,104
1,40,127,296
1,40,127,40
1,38,127,104
1,40,127,104
1,38,127,104
1,40,127,20
1,43,127,104
1,43,118,28
1,43,127,8
1,43,127,104
1,43,127,296
1,43,127,20
1,43,127,104
1,45,127,104
1,45,108,28
1,45,127,8
1,45,127,104
1,45,127,296
1,43,127,104
1,45,127,20
1,40,127,104
1,40,108,28
1,40,127,8
1,40,127,104
1,38,127,104
1,40,127,104
1,38,127,104
1,40,127,104
1,38,127,296
1,40,127,40
1,38,127,104
1,38,127,8
1,40,127,8
1,38,127,104
1,40,127,104
1,35,127,104
1,35,127,104
1,35,127,212
1,35,127,104
1,35,127,144
1,40,127,104
1,40,118,8
1,40,127,8
1,40,127,392
1,42,127,8
1,42,127,104
1,42,127,116
1,42,127,8
1,43,127,104
1,43,127,8
1,43,127,8
1,43,127,296
1,45,127,104
1,45,127,116
1,45,127,104
1,45,127,8
1,48,127,104
1,48,118,8
1,48,127,8
1,48,127,104
1,45,127,104
1,43,127,104
1,45,127,116
1,43,127,200
1,45,127,8
1,48,127,8
1,36,127,1364
1,35,127,20
1,36,127,20
1,38,127,20
1,38,127,296
1,36,127,40
1,35,127,20
1,38,127,20
1,42,127,20
1,40,127,20
1,40,127,212
1,38,127,40
1,33,118,20
1,33,99,8
1,36,127,8
1,40,127,104
1,38,127,104
1,38,127,124
1,39,127,40
1,40,99,20
1,40,118,8
1,35,127,8
1,28,127,104
1,40,127,104
1,40,127,116
1,28,127,8
1,28,127,8
1,40,127,8
1,40,127,8
1,28,127,8
1,28,127,8
1,36,127,8
1,35,99,20
1,36,127,20
1,38,127,20
1,38,127,296
1,36,127,40
1,35,127,104
1,38,127,20
1,42,127,20
1,40,127,20
1,40,127,296
1,38,127,40
1,33,127,20
1,33,127,104
1,35,127,104
1,35,127,220
1,33,127,8
1,35,127,8
1,38,127,8
1,33,127,8
1,38,127,8
1,36,127,344
1,35,127,20
1,36,127,20
1,38,127,20
1,38,127,296
1,36,127,40
1,35,127,20
1,38,127,20
1,42,127,20
1,40,127,20
1,40,127,212
1,38,127,40
1,33,118,20
1,33,99,8
1,36,127,8
1,40,127,104
1,38,127,104
1,38,127,124
1,39,127,40
1,40,99,20
1,40,118,8
1,35,127,8
1,28,127,104
1,40,127,104
1,40,127,116
1,28,127,8
1,28,127,8
1,40,127,8
1,40,127,8
1,28,127,8
1,28,127,8
1,36,127,8
1,35,99,20
1,36,127,20
1,38,127,20
1,38,127,296
1,36,127,40
1,35,127,104
1,38,127,20
1,42,127,20
1,40,127,20
1,40,127,296
1,38,127,40
1,33,127,20
1,33,127,104
1,35,127,104
1,35,127,220
1,33,127,8
1,35,127,8
1,38,127,8
1,33,127,8
1,38,127,8
1,40,126,692
1,40,127,4
1,40,108,28
1,40,127,8
1,40,127,104
1,38,127,104
1,40,127,104
1,38,127,104
1,40,127,104
1,38,127,296
1,40,127,40
1,38,127,104
1,38,127,8
1,40,127,8
1,38,127,104
1,40,127,104
1,40,127,104
1,40,118,28
1,40,127,8
1,40,127,104
1,38,127,104
1,40,127,20
1,38,127,104
1,40,127,104
1,40,127,296
1,40,127,40
1,38,127,104
1,40,127,104
1,38,127,104
1,40,127,20
1,43,127,104
1,43,118,28
1,43,127,8
1,43,127,104
1,43,127,296
1,43,127,20
1,43,127,104
1,45,127,104
1,45,108,28
1,45,127,8
1,45,127,104
1,45,127,296
1,43,127,104
1,45,127,20
1,40,127,104
1,40,108,28
1,40,127,8
1,40,127,104
1,38,127,104
1,40,127,104
1,38,127,104
1,40,127,104
1,38,127,296
1,40,127,40
1,38,127,104
1,38,127,8
1,40,127,8
1,38,127,104
1,40,127,104
1,35,127,104
1,35,127,104
1,35,127,212
1,35,127,104
1,35,127,144
1,40,127,104
1,40,118,8
1,40,127,8
1,40,127,392
1,42,127,8
1,42,127,104
1,42,127,116
1,42,127,8
1,43,127,104
1,43,127,8
1,43,127,8
1,43,127,296
1,45,127,104
1,45,127,116
1,45,127,104
1,45,127,8
1,48,127,104
1,48,118,8
1,48,127,8
1,48,127,104
1,45,127,104
1,43,127,104
1,45,127,116
1,43,127,200
1,45,127,8
1,48,127,8
1,36,127,1364
1,35,127,20
1,36,127,20
1,38,127,20
1,38,127,296
1,36,127,40
1,35,127,20
1,38,127,20
1,42,127,20
1,40,127,20
1,40,127,212
1,38,127,40
1,33,118,20
1,33,99,8
1,36,127,8
1,40,127,104
1,38,127,104
1,38,127,124
1,39,127,40
1,40,99,20
1,40,118,8
1,35,127,8
1,28,127,104
1,40,127,104
1,40,127,116
1,28,127,8
1,28,127,8
1,40,127,8
1,40,127,8
1,28,127,8
1,28,127,8
1,36,127,8
1,35,99,20
1,36,127,20
1,38,127,20
1,38,127,296
1,36,127,40
1,35,127,104
1,38,127,20
1,42,127,20
1,40,127,20
1,40,127,296
1,38,127,40
1,33,127,20
1,33,127,104
1,35,127,104
1,35,127,220
1,33,127,8
1,35,127,8
1,38,127,8
1,33,127,8
1,38,127,8
1,36,127,692
1,35,127,20
1,36,127,20
1,38,127,20
1,38,127,296
1,36,127,40
1,35,127,20
1,38,127,20
1,42,127,20
1,40,127,20
1,40,127,212
1,38,127,40
1,33,118,20
1,33,99,8
1,36,127,8
1,40,127,104
1,38,127,104
1,38,127,124
1,39,127,40
1,40,99,20
1,40,118,8
1,35,127,8
1,28,127,104
1,40,127,104
1,40,127,116
1,28,127,8
1,28,127,8
1,40,127,8
1,40,127,8
1,28,127,8
1,28,127,8
1,36,127,8
1,35,99,20
1,36,127,20
1,38,127,20
1,38,127,296
1,36,127,40
1,35,127,104
1,38,127,20
1,42,127,20
1,40,127,20
1,40,127,296
1,38,127,40
1,33,127,20
1,33,127,104
1,35,127,104
1,35,127,220
1,33,127,8
1,35,127,8
1,38,127,8
1,33,127,8
1,38,127,8
1,36,127,4
1,35,127,20
1,36,127,20
1,38,127,20
1,38,127,4
1,36,127,40
1,35,127,20
1,38,127,4
1,42,127,20
1,40,127,20
1,40,127,4
1,38,127,40
1,33,118,20
1,33,99,8
1,36,127,8
1,40,127,4
1,38,127,4
1,38,127,4
1,39,127,40
1,40,99,20
1,40,118,8
1,35,127,8
1,28,127,4
1,40,127,104
1,40,127,116
1,28,127,8
1,28,127,8
1,40,127,8
1,40,127,8
1,28,127,8
1,28,127,8
1,36,127,8
1,35,99,20
1,36,127,4
1,38,127,20
1,38,127,4
1,36,127,40
1,35,127,4
1,38,127,20
1,42,127,20
1,40,127,20
1,40,127,4
1,38,127,40
1,33,127,20
1,33,127,104
1,35,127,4
1,35,127,4
1,33,127,8
1,35,127,8
1,38,127,8
1,33,127,8
1,38,127,8
2,78,126,45652
2,69,100,192
2,74,106,196
2,78,116,156
2,74,110,156
2,76,126,168
2,78,116,164
2,79,126,112
2,71,116,184
2,76,106,192
2,81,110,28
2,79,60,12
2,74,96,336
2,78,116,172
2,83,120,40
2,74,110,384
2,79,96,188
2,85,110,20
2,76,110,372
2,81,70,200
2,85,88,176
2,84,106,56
2,76,80,188
2,79,84,200
2,76,78,48
2,79,116,20
2,86,116,12
2,86,116,400
2,79,116,204
2,74,116,76
2,81,100,920
2,86,110,208
2,81,58,112
2,83,100,20
2,79,88,100
2,74,106,192
2,79,80,196
2,86,110,212
2,79,96,192
2,74,116,0
2,81,116,572
2,74,88,168
2,83,106,48
2,79,74,108
2,74,88,184
2,83,110,160
2,76,70,320
2,79,92,180
2,76,80,28
2,86,120,4
2,79,74,120
2,76,100,184
2,81,106,188
2,74,100,372
2,86,110,196
2,81,78,172
2,86,110,184
2,81,80,156
2,78,96,160
2,83,116,4
2,79,110,356
2,74,100,8
2,79,100,184
2,76,116,192
2,74,116,156
2,78,116,20724
2,74,92,180
2,69,96,204
2,74,106,32
2,76,116,376
2,78,116,176
2,79,120,120
2,71,100,188
2,76,106,184
2,81,116,20
2,74,96,360
2,78,116,20
2,83,120,28
2,74,116,364
2,79,120,60
2,85,110,12
2,76,110,368
2,81,100,192
2,76,110,152
2,84,106,0
2,79,110,212
2,76,116,180
2,86,120,136
2,76,120,0
2,79,126,0
2,84,120,0
2,86,116,668
2,79,120,192
2,74,126,0
2,86,120,1148
2,81,116,52
2,83,116,168
2,79,100,328
2,74,116,196
2,86,116,252
2,79,96,196
2,81,110,12
2,74,116,348
2,81,56,92
2,74,110,132
2,83,120,144
2,79,92,80
2,74,100,184
2,83,126,156
2,86,116,344
2,79,120,196
2,74,120,20
2,81,100,376
2,78,110,192
2,74,106,160
2,81,106,152
2,78,116,136
2,74,110,192
2,83,126,140
2,79,120,328
2,74,116,8
2,79,106,120
2,76,120,152
2,79,126,244
2,74,120,0
2,79,126,168
2,74,126,0
2,72,126,0
2,78,126,108
2,74,120,0
2,86,116,260
2,79,120,204
2,74,120,12
2,81,120,212
2,78,116,196
2,83,120,16
2,79,116,360
2,74,116,0
2,79,110,196
2,86,116,232
2,79,110,196
2,81,106,188
2,83,126,412
2,79,120,200
2,74,120,188
2,86,116,424
2,79,120,204
2,81,110,192
2,74,116,348
2,81,116,164
2,74,116,148
2,81,106,160
2,78,116,184
2,74,116,184
2,83,126,136
2,79,116,352
2,74,110,16
2,79,116,152
2,79,120,140
2,76,126,0
2,79,126,256
2,74,120,0
2,79,116,148
2,74,126,0
2,72,120,0
2,78,126,28
2,74,116,0
2,76,126,12
2,71,116,0
2,86,110,12096
2,79,120,192
2,76,116,188
2,86,116,4788
2,79,120,180
2,74,120,148
2,85,126,500
2,81,116,192
2,76,126,92
2,83,120,504
2,79,120,196
2,74,120,192
2,78,126,1724
2,74,110,196
2,69,100,180
2,74,116,24
2,76,120,368
2,78,126,176
2,79,120,116
2,76,110,204
2,71,110,192
2,81,110,8
2,78,126,376
2,74,126,0
2,83,120,4
2,79,120,380
2,74,110,4
2,85,126,12
2,81,106,364
2,76,110,8
2,81,96,8
2,86,110,24
2,79,110,148
2,76,126,180
2,79,120,156
2,76,116,24
2,79,120,20
2,76,120,4
2,86,120,192
2,86,116,1036
2,79,116,192
2,74,126,184
2,81,126,136
2,74,116,212
2,78,110,196
2,79,120,48
2,74,120,0
2,83,120,188
2,79,110,172
2,86,110,116
2,79,120,196
2,74,126,0
2,74,116,60
2,81,110,196
2,78,110,176
2,83,120,16
2,79,110,196
2,76,80,184
2,83,120,44
2,79,106,360
2,76,92,0
2,79,84,28
2,86,116,260
2,79,116,196
2,74,126,88
2,74,120,156
2,79,116,184
2,74,116,160
2,81,116,180
2,78,116,128
2,74,110,184
2,83,126,136
2,79,106,344
2,74,120,8
2,79,96,184
2,79,116,156
2,72,120,0
2,74,120,224
2,79,126,0
2,79,116,224
2,74,126,0
2,86,116,680
2,79,120,192
2,74,126,152
2,74,110,52
2,81,110,204
2,74,110,172
2,81,110,176
2,78,110,172
2,74,110,188
2,83,126,172
2,79,100,352
2,74,116,8
2,79,110,196
2,86,110,268
2,79,120,188
2,74,120,112
2,74,88,36
2,81,120,208
2,74,100,164
2,81,100,172
