track,note,velocity,time
0,42,66,0
0,42,46,93
0,42,46,93
0,42,46,93
0,56,127,93
0,36,117,0
0,36,117,69
0,37,126,21
0,38,127,69
0,56,127,21
0,36,117,0
0,38,127,45
0,37,126,45
0,56,127,93
0,36,117,0
0,38,127,45
0,38,108,21
0,36,117,0
0,38,127,21
0,37,126,0
0,38,127,93
0,56,127,0
0,36,117,0
0,38,118,21
0,38,127,21
0,36,117,21
0,37,126,21
0,56,127,93
0,36,117,0
0,36,117,69
0,37,126,21
0,38,127,69
0,56,127,21
0,36,117,0
0,38,127,45
0,37,126,45
0,56,127,93
0,36,117,0
0,38,127,45
0,38,108,21
0,36,117,0
0,38,127,21
0,37,126,0
0,38,127,93
0,56,127,0
0,36,117,0
0,38,118,21
0,36,117,0
0,38,127,21
0,36,117,0
0,36,117,21
0,38,127,21
0,37,126,0
0,38,108,21
0,38,127,21
0,38,127,21
0,40,127,21
0,76,127,0
0,67,127,0
0,56,127,0
0,42,103,0
0,36,117,0
0,67,126,1
0,71,126,0
0,62,110,0
0,76,127,7
0,67,119,0
0,42,84,0
0,76,127,7
0,67,119,0
0,42,103,0
0,40,108,4
0,76,127,0
0,67,127,0
0,42,94,0
0,36,117,0
0,62,116,3
0,71,126,0
0,67,120,0
0,38,127,1
0,40,127,1
0,76,127,0
0,67,127,0
0,56,127,0
0,42,103,0
0,36,117,25
0,40,127,1
0,76,127,0
0,67,127,0
0,42,103,0
0,76,127,2
0,67,127,0
0,42,54,0
0,42,103,6
0,36,117,0
0,38,127,1
0,56,127,0
0,76,127,21
0,67,127,0
0,42,84,0
0,42,103,4
0,40,118,1
0,74,127,0
0,66,127,0
0,76,127,2
0,67,111,0
0,38,127,6
0,38,127,1
0,79,127,0
0,71,127,0
0,56,127,0
0,42,103,0
0,67,126,1
0,62,120,0
0,71,126,0
0,78,127,2
0,69,119,0
0,40,118,7
0,76,127,0
0,67,127,0
0,62,120,2
0,71,126,0
0,67,126,0
0,76,127,2
0,67,127,0
0,56,127,0
0,42,103,0
0,36,117,0
0,67,127,7
0,76,127,0
0,42,84,0
0,38,127,7
0,76,127,0
0,67,119,0
0,42,103,0
0,76,127,7
0,67,127,0
0,42,94,0
0,36,117,0
0,38,127,6
0,76,127,1
0,67,127,0
0,56,127,0
0,42,103,0
0,36,117,30
0,40,127,1
0,76,127,0
0,67,127,0
0,42,103,0
0,42,54,2
0,42,103,20
0,36,117,0
0,38,127,1
0,56,127,0
0,38,127,2
0,42,84,0
0,42,103,1
0,40,127,1
0,76,127,0
0,67,127,0
0,38,127,25
0,38,127,1
0,79,127,0
0,71,127,0
0,56,127,0
0,42,103,0
0,69,116,1
0,73,126,0
0,64,120,0
0,78,127,6
0,69,127,0
0,40,118,5
0,76,127,0
0,67,127,0
0,40,127,1
0,67,127,0
0,76,127,0
0,71,116,0
0,67,120,0
0,62,110,0
0,56,127,0
0,42,103,0
0,36,117,0
0,76,127,7
0,67,111,0
0,42,84,0
0,76,127,7
0,67,119,0
0,42,103,0
0,40,108,7
0,76,127,0
0,67,127,0
0,42,94,0
0,36,117,0
0,67,120,1
0,62,116,0
0,71,126,0
0,38,127,0
0,40,127,1
0,76,127,0
0,67,127,0
0,56,127,0
0,42,103,0
0,76,127,2
0,67,111,0
0,36,117,6
0,40,127,1
0,76,127,0
0,67,127,0
0,42,103,0
0,42,54,2
0,42,103,20
0,36,117,0
0,38,127,1
0,56,127,0
0,76,127,21
0,67,127,0
0,42,84,0
0,42,103,4
0,40,118,1
0,74,104,0
0,66,119,0
0,76,104,2
0,67,119,0
0,38,127,6
0,38,127,1
0,79,127,0
0,71,127,0
0,62,120,0
0,67,116,0
0,71,126,0
0,56,127,0
0,42,103,0
0,78,127,7
0,69,127,0
0,40,127,5
0,76,127,0
0,67,127,0
0,71,120,1
0,62,120,0
0,67,120,0
0,67,127,25
0,76,127,0
0,56,127,0
0,42,103,0
0,36,117,0
0,76,111,7
0,67,104,0
0,42,84,0
0,38,127,7
0,76,127,0
0,67,119,0
0,42,103,0
0,76,127,7
0,67,119,0
0,42,94,0
0,36,117,0
0,38,127,6
0,76,127,1
0,67,127,0
0,56,127,0
0,42,103,0
0,36,117,9
0,40,127,1
0,76,127,0
0,67,127,0
0,42,103,0
0,42,54,2
0,42,103,20
0,36,117,0
0,38,127,1
0,56,127,0
0,38,91,2
0,76,127,0
0,67,127,0
0,42,84,0
0,42,103,1
0,40,127,1
0,74,119,0
0,66,127,0
0,76,119,2
0,67,111,0
0,38,127,6
0,38,127,1
0,79,127,0
0,71,127,0
0,40,100,0
0,56,127,0
0,42,103,0
0,41,80,2
0,43,70,3
0,45,56,3
0,78,127,3
0,69,127,0
0,47,78,3
0,48,96,3
0,50,84,3
0,40,127,2
0,76,127,0
0,67,127,0
0,52,92,4
0,53,100,1
0,55,96,6
0,57,88,5
0,59,80,0
0,71,126,1
0,62,126,0
0,67,126,0
0,43,127,1
0,71,127,0
0,79,127,0
0,56,127,0
0,42,103,0
0,36,117,0
0,43,118,2
0,42,84,0
0,43,127,2
0,79,127,0
0,71,127,0
0,42,103,0
0,43,108,2
0,79,127,0
0,71,104,0
0,42,94,0
0,36,117,0
0,38,127,1
0,43,127,1
0,79,127,0
0,71,127,0
0,56,127,0
0,42,103,0
0,36,117,25
0,43,127,1
0,79,127,0
0,71,127,0
0,42,103,0
0,42,54,2
0,42,103,20
0,36,117,0
0,43,127,1
0,56,127,0
0,79,127,21
0,71,127,0
0,42,84,0
0,42,103,4
0,79,127,1
0,71,119,0
0,43,127,7
0,71,111,0
0,79,119,0
0,38,127,6
0,79,127,1
0,71,127,0
0,56,127,0
0,42,103,0
0,71,119,7
0,79,127,0
0,43,127,7
0,79,127,0
0,71,119,0
0,79,127,2
0,71,119,0
0,45,127,7
0,81,127,0
0,73,127,0
0,64,120,0
0,73,126,0
0,69,120,0
0,56,127,0
0,42,103,0
0,36,117,0
0,45,108,2
0,81,127,0
0,73,111,0
0,42,84,0
0,45,127,2
0,73,127,0
0,81,127,0
0,42,103,0
0,45,118,2
0,73,127,0
0,81,127,0
0,42,94,0
0,36,117,0
0,38,127,1
0,45,127,1
0,73,127,0
0,81,127,0
0,56,127,0
0,42,103,0
0,36,117,1
0,45,108,1
0,73,127,0
0,81,127,0
0,42,103,0
0,73,119,2
0,81,127,0
0,42,54,0
0,42,103,6
0,36,117,0
0,48,127,1
0,76,127,0
0,72,127,0
0,56,127,0
0,67,126,1
0,76,126,0
0,72,126,0
0,72,111,7
0,76,127,0
0,42,84,0
0,42,103,6
0,72,127,1
0,76,127,0
0,38,127,30
0,50,127,1
0,78,127,0
0,74,127,0
0,56,127,0
0,42,103,0
0,74,116,1
0,69,126,0
0,78,126,0
0,78,127,2
0,74,127,0
0,78,127,7
0,74,127,0
0,40,127,31
0,76,127,0
0,67,127,0
0,56,127,0
0,42,103,0
0,36,117,0
0,71,126,2
0,76,126,0
0,67,126,0
0,76,127,7
0,67,127,0
0,42,84,0
0,67,119,7
0,76,127,0
0,42,103,0
0,40,118,7
0,67,119,0
0,76,127,0
0,42,94,0
0,36,117,0
0,38,127,1
0,40,127,1
0,76,127,0
0,67,127,0
0,56,127,0
0,42,103,0
0,36,117,25
0,38,127,1
0,76,127,0
0,67,127,0
0,42,103,0
0,42,54,2
0,42,103,20
0,36,117,0
0,38,127,1
0,76,127,0
0,67,127,0
0,56,127,0
0,76,127,2
0,67,127,0
0,42,84,0
0,42,103,6
0,40,127,1
0,74,127,0
0,66,127,0
0,76,127,2
0,67,127,0
0,38,127,6
0,38,127,1
0,79,127,0
0,71,127,0
0,67,126,0
0,76,126,0
0,71,126,0
0,56,127,0
0,42,103,0
0,78,127,7
0,69,127,0
0,40,127,5
0,76,127,0
0,67,127,0
0,76,126,1
0,71,126,1
0,76,127,2
0,67,127,0
0,56,127,0
0,42,103,0
0,36,117,0
0,76,127,7
0,67,119,0
0,42,84,0
0,38,127,7
0,76,127,0
0,67,127,0
0,42,103,0
0,76,127,7
0,67,127,0
0,42,94,0
0,36,117,0
0,38,127,6
0,76,127,1
0,67,127,0
0,56,127,0
0,42,103,0
0,36,117,30
0,40,127,1
0,76,127,0
0,67,127,0
0,42,103,0
0,42,54,2
0,42,103,20
0,36,117,0
0,38,127,1
0,76,127,0
0,67,127,0
0,56,127,0
0,38,127,2
0,76,127,0
0,67,127,0
0,42,84,0
0,42,103,1
0,40,127,1
0,74,119,0
0,66,127,0
0,76,127,2
0,67,119,0
0,38,127,6
0,38,127,1
0,79,127,0
0,71,127,0
0,56,127,0
0,42,103,0
0,67,126,2
0,62,120,0
0,71,120,0
0,69,127,2
0,78,127,0
0,40,127,7
0,76,127,0
0,67,127,0
0,40,127,14
0,56,127,0
0,42,103,0
0,36,117,0
0,67,120,3
0,42,84,18
0,42,103,21
0,40,108,7
0,42,94,0
0,36,117,0
0,38,127,1
0,40,127,1
0,67,116,0
0,56,127,0
0,42,103,0
0,36,117,25
0,40,127,1
0,42,103,0
0,42,54,2
0,67,120,20
0,42,103,0
0,36,117,0
0,38,127,1
0,56,127,0
0,42,84,2
0,42,103,20
0,40,127,1
0,66,116,1
0,64,100,6
0,38,127,0
0,38,127,1
0,56,127,0
0,42,103,0
0,40,127,13
0,66,126,0
0,56,127,26
0,42,103,0
0,36,117,0
0,42,84,10
0,38,127,21
0,42,103,0
0,64,120,2
0,42,94,19
0,36,117,0
0,38,127,1
0,56,127,1
0,42,103,0
0,62,120,9
0,36,117,0
0,40,127,1
0,42,103,0
0,42,54,2
0,64,106,4
0,42,103,0
0,36,117,0
0,38,127,1
0,56,127,0
0,38,127,2
0,42,84,0
0,42,103,1
0,40,127,1
0,64,116,0
0,38,127,25
0,38,127,1
0,66,126,0
0,56,127,0
0,42,103,0
0,40,127,26
0,40,127,15
0,71,126,0
0,62,126,0
0,67,126,0
0,56,127,0
0,42,103,0
0,36,117,0
0,42,84,21
0,64,80,20
0,42,103,1
0,40,118,1
0,42,94,0
0,36,117,0
0,38,127,1
0,40,127,1
0,66,110,0
0,56,127,0
0,42,103,0
0,67,106,3
0,36,117,0
0,40,127,1
0,42,103,0
0,42,54,2
0,67,116,20
0,42,103,0
0,36,117,0
0,38,127,1
0,56,127,0
0,42,84,21
0,42,103,4
0,40,127,1
0,66,102,1
0,66,96,25
0,38,127,1
0,38,127,0
0,56,127,0
0,42,103,0
0,66,116,25
0,40,127,1
0,56,127,0
0,42,103,0
0,36,117,0
0,66,116,1
0,42,84,2
0,40,127,5
0,42,103,0
0,42,94,21
0,36,117,0
0,64,116,0
0,38,127,2
0,56,127,1
0,42,103,0
0,64,110,9
0,36,117,0
0,40,127,1
0,42,103,0
0,42,54,2
0,42,103,20
0,36,117,0
0,38,127,1
0,56,127,0
0,42,84,2
0,42,103,20
0,40,127,1
0,38,127,25
0,38,127,1
0,56,127,0
0,42,103,0
0,40,127,5
0,43,127,26
0,62,120,0
0,67,120,0
0,71,126,0
0,56,127,0
0,42,103,0
0,36,117,0
0,42,84,21
0,42,103,21
0,43,118,7
0,42,94,0
0,36,117,0
0,38,127,1
0,43,127,1
0,79,104,0
0,71,119,0
0,56,127,0
0,42,103,0
0,67,116,1
0,79,98,1
0,71,68,0
0,67,100,4
0,36,117,4
0,43,127,1
0,67,106,0
0,74,104,0
0,79,104,0
0,42,103,0
0,67,96,2
0,71,89,0
0,79,111,0
0,42,54,0
0,67,106,4
0,42,103,2
0,36,117,0
0,79,127,1
0,71,119,0
0,56,127,0
0,42,84,7
0,42,103,20
0,43,127,1
0,67,126,3
0,38,127,1
0,43,127,1
0,56,127,0
0,42,103,0
0,43,127,26
0,69,116,1
0,45,127,2
0,73,116,0
0,69,120,0
0,64,120,0
0,56,127,0
0,42,103,0
0,36,117,0
0,42,84,0
0,42,103,11
0,45,108,7
0,42,94,0
0,36,117,0
0,64,116,17
0,38,127,1
0,45,127,1
0,73,127,0
0,76,127,0
0,56,127,0
0,42,103,0
0,76,127,2
0,73,119,0
0,64,110,3
0,36,117,3
0,45,127,1
0,73,127,0
0,76,127,0
0,42,103,0
0,42,54,2
0,42,103,1
0,36,117,0
0,56,127,1
0,42,84,8
0,42,103,7
0,45,127,1
0,64,120,1
0,38,127,4
0,43,127,1
0,56,127,0
0,42,103,0
0,64,92,18
0,45,127,5
0,66,126,6
0,67,120,2
0,40,127,1
0,62,126,0
0,67,116,0
0,71,126,0
0,56,127,0
0,42,103,0
0,36,117,0
0,42,84,16
0,42,103,21
0,40,108,4
0,42,94,0
0,36,117,0
0,67,120,0
0,38,127,1
0,40,127,1
0,56,127,0
0,42,103,0
0,36,117,25
0,40,127,1
0,42,103,0
0,42,54,2
0,42,103,20
0,36,117,0
0,38,127,1
0,56,127,0
0,64,110,1
0,42,84,2
0,64,110,17
0,42,103,1
0,40,127,1
0,62,96,4
0,38,127,1
0,38,127,1
0,56,127,0
0,42,103,0
0,40,127,8
0,64,110,0
0,56,127,26
0,42,103,0
0,36,117,0
0,42,84,21
0,38,127,21
0,42,103,0
0,67,126,2
0,42,94,2
0,36,117,0
0,38,127,7
0,56,127,1
0,42,103,0
0,36,117,9
0,40,127,1
0,42,103,0
0,42,54,2
0,42,103,20
0,36,117,0
0,38,127,1
0,56,127,0
0,38,127,2
0,42,84,0
0,42,103,1
0,40,127,1
0,38,127,25
0,38,127,1
0,71,127,0
0,76,119,0
0,56,127,0
0,42,103,0
0,76,119,2
0,71,127,0
0,40,127,7
0,76,111,0
0,71,127,0
0,67,120,25
0,40,127,1
0,67,120,0
0,71,120,0
0,62,126,0
0,56,127,0
0,42,103,0
0,36,117,0
0,42,84,21
0,42,103,9
0,40,108,7
0,42,94,0
0,36,117,0
0,38,127,1
0,40,127,1
0,67,120,0
0,56,127,0
0,42,103,0
0,36,117,0
0,40,127,1
0,42,103,0
0,42,54,2
0,67,120,20
0,42,103,0
0,36,117,0
0,38,127,1
0,56,127,0
0,42,84,2
0,67,106,15
0,42,103,1
0,40,127,1
0,38,127,4
0,38,127,1
0,56,127,0
0,42,103,0
0,66,82,1
0,64,84,4
0,40,127,3
0,66,110,2
0,56,127,3
0,42,103,0
0,36,117,0
0,42,84,21
0,64,96,3
0,38,127,3
0,42,103,0
0,42,94,12
0,36,117,0
0,38,127,20
0,64,120,1
0,56,127,0
0,42,103,0
0,36,117,3
0,40,127,1
0,42,103,0
0,42,54,2
0,64,116,18
0,42,103,2
0,36,117,0
0,38,127,1
0,56,127,0
0,38,127,2
0,42,84,0
0,42,103,1
0,40,127,1
0,66,126,17
0,38,127,2
0,38,127,1
0,56,127,0
0,42,103,0
0,40,127,26
0,71,126,25
0,67,120,0
0,62,126,0
0,40,127,1
0,56,127,0
0,42,103,0
0,36,117,0
0,42,84,21
0,42,103,21
0,40,118,7
0,42,94,0
0,36,117,0
0,38,127,1
0,40,127,1
0,67,126,0
0,56,127,0
0,42,103,0
0,67,100,1
0,67,106,7
0,36,117,2
0,40,127,1
0,42,103,0
0,67,80,7
0,42,54,2
0,67,110,9
0,42,103,2
0,36,117,0
0,38,127,1
0,56,127,0
0,42,84,21
0,42,103,4
0,40,127,1
0,66,126,2
0,38,127,20
0,38,127,1
0,56,127,0
0,42,103,0
0,40,127,26
0,66,126,1
0,56,127,0
0,42,103,0
0,36,117,0
0,42,84,21
0,64,116,4
0,40,127,1
0,42,103,0
0,42,94,21
0,36,117,0
0,38,127,12
0,56,127,1
0,42,103,0
0,36,117,9
0,40,127,1
0,42,103,0
0,64,110,1
0,42,54,2
0,42,103,1
0,36,117,0
0,38,127,1
0,56,127,0
0,42,84,2
0,42,103,4
0,40,127,1
0,38,127,19
0,38,127,1
0,56,127,0
0,42,103,0
0,40,127,5
0,43,127,26
0,67,120,0
0,62,120,0
0,71,126,0
0,56,127,0
0,42,103,0
0,36,117,0
0,42,84,21
0,67,116,1
0,42,103,3
0,43,118,7
0,42,94,0
0,36,117,0
0,67,116,0
0,38,127,1
