track,note,velocity,time
15,40,88,4608
15,36,75,0
15,51,88,0
15,51,80,295
15,42,70,0
15,51,60,176
15,51,80,48
15,40,88,304
15,36,75,0
15,51,88,0
15,37,70,0
15,42,70,0
15,51,80,295
15,51,90,304
15,42,70,0
15,51,60,176
15,40,88,48
15,36,75,0
15,51,88,0
15,51,90,295
15,37,70,0
15,42,70,0
15,51,60,176
15,51,80,48
15,40,88,304
15,36,75,0
15,51,88,0
15,42,70,0
15,51,60,167
15,51,80,48
15,40,69,176
15,42,103,4
15,35,72,0
15,42,64,116
15,51,90,0
15,37,70,0
15,42,70,0
15,51,60,176
15,35,68,8
15,35,74,48
15,57,120,0
15,40,100,240
15,40,20,124
15,40,41,120
15,40,43,116
15,50,101,124
15,40,35,116
15,40,68,124
15,47,77,120
15,40,63,120
15,40,65,120
15,51,88,116
15,36,75,0
15,40,88,0
15,43,120,8
15,42,70,295
15,51,80,0
15,51,80,304
15,42,70,304
15,37,70,0
15,51,88,0
15,36,75,0
15,40,88,0
15,51,80,295
15,42,70,304
15,51,90,0
15,51,60,176
15,51,88,48
15,36,75,0
15,40,88,0
15,42,70,295
15,37,70,0
15,51,90,0
15,51,60,176
15,51,80,48
15,36,98,152
15,36,91,52
15,40,127,80
15,42,70,4
15,51,88,0
15,36,75,0
15,40,54,295
15,51,80,0
15,40,127,180
15,36,72,0
15,42,103,0
15,42,70,116
15,37,70,0
15,51,90,0
15,42,64,0
15,40,77,176
15,51,60,0
15,36,68,0
15,40,88,48
15,40,91,167
15,40,21,244
15,40,54,128
15,49,101,120
15,40,115,0
15,40,127,252
15,51,94,112
15,40,94,0
15,36,94,0
15,51,94,288
15,40,94,0
15,36,94,0
15,36,94,1056
15,51,94,288
15,40,94,0
15,36,94,0
15,36,94,1056
15,51,94,288
15,40,94,0
15,36,94,0
15,36,94,672
15,51,94,288
15,40,94,0
15,36,94,0
15,51,94,288
15,40,94,0
15,36,94,0
15,36,94,672
15,51,94,288
15,40,94,0
15,36,94,0
15,51,94,288
15,40,94,0
15,36,94,0
15,51,94,1056
15,40,94,0
15,36,94,0
15,51,94,288
15,40,94,0
15,36,94,0
15,51,94,288
15,40,94,0
15,36,94,0
15,51,94,288
15,40,94,0
15,36,94,0
15,51,94,288
15,40,94,0
15,36,94,0
15,51,94,288
15,40,94,0
15,36,94,0
15,51,84,0
15,35,42,0
15,51,63,176
15,51,74,48
15,42,63,0
15,51,84,176
15,38,53,0
15,51,84,48
15,42,74,0
15,51,95,176
15,51,84,48
15,42,84,0
15,51,63,176
15,51,84,48
15,35,81,0
15,51,84,295
15,42,74,0
15,35,81,176
15,51,84,0
15,51,84,39
15,51,95,304
15,40,74,0
15,42,74,0
15,35,81,0
15,51,63,167
15,51,84,48
15,51,95,304
15,51,63,176
15,51,84,48
15,51,95,304
15,51,63,176
15,51,84,48
15,51,95,304
15,51,63,176
15,51,84,48
15,51,95,304
15,51,63,176
15,35,42,48
15,51,84,0
15,51,63,176
15,42,63,48
15,51,74,0
15,38,53,176
15,51,84,0
15,42,74,48
15,51,84,0
15,51,95,176
15,42,84,48
15,51,84,0
15,51,63,176
15,35,81,48
15,51,84,0
15,42,74,295
15,51,84,0
15,35,81,176
15,51,84,0
15,51,84,39
15,35,81,304
15,42,74,0
15,40,74,0
15,51,95,0
15,51,63,167
15,51,84,48
15,51,74,304
15,51,95,176
15,51,63,48
15,51,95,176
15,51,95,48
15,51,63,176
15,51,84,48
15,51,95,304
15,51,53,176
15,51,95,48
15,51,95,304
15,51,63,176
15,51,84,48
15,35,42,0
15,51,63,176
15,51,74,48
15,42,63,0
15,51,84,176
15,38,53,0
15,51,84,48
15,42,74,0
15,51,95,176
15,51,84,48
15,42,84,0
15,51,63,176
15,51,84,48
15,35,81,0
15,51,84,295
15,42,74,0
15,35,81,176
15,51,84,0
15,51,84,39
15,51,95,304
15,40,74,0
15,42,74,0
15,35,81,0
15,51,63,167
15,51,84,48
15,51,95,304
15,51,63,176
15,51,84,48
15,51,95,304
15,51,63,176
15,51,84,48
15,51,95,304
15,51,63,176
15,51,84,48
15,51,95,304
15,51,63,176
15,35,42,48
15,51,84,0
15,51,63,176
15,42,63,48
15,51,74,0
15,38,53,176
15,51,84,0
15,42,74,48
15,51,84,0
15,51,95,176
15,42,84,48
15,51,84,0
15,51,63,176
15,35,81,48
15,51,84,0
15,42,74,295
15,51,84,0
15,35,81,176
15,51,84,0
15,51,84,39
15,35,81,304
15,42,74,0
15,40,74,0
15,51,95,0
15,51,63,167
15,51,84,48
15,51,74,304
15,51,95,176
15,51,63,48
15,51,95,176
15,51,95,48
15,51,63,176
15,51,84,48
15,51,95,304
15,51,53,176
15,51,95,48
15,51,95,304
15,51,63,176
15,51,84,48
15,51,95,304
15,42,74,0
15,51,63,176
15,51,84,48
15,51,95,304
15,37,74,0
15,42,74,0
15,51,63,176
15,51,84,48
15,51,95,304
15,42,74,0
15,51,63,176
15,51,84,48
15,51,95,304
15,37,74,0
15,42,74,0
15,51,63,176
15,40,99,0
15,51,84,20
15,51,95,304
15,42,74,0
15,51,63,176
15,51,84,48
15,51,95,304
15,37,74,0
15,42,74,0
15,51,63,176
15,51,84,48
15,51,95,304
15,42,74,0
15,51,63,176
15,51,84,48
15,51,95,304
15,37,74,0
15,42,74,0
15,51,63,176
15,51,84,48
15,51,84,304
15,42,74,0
15,51,84,304
15,51,95,304
15,37,74,0
15,42,74,0
15,51,84,304
15,35,42,0
15,51,84,304
15,42,74,0
15,35,53,204
15,51,84,20
15,40,127,176
15,51,95,120
15,42,70,0
15,57,120,176
15,35,79,0
15,40,74,4
15,51,84,20
15,35,42,0
15,51,84,304
15,42,74,0
15,35,53,204
15,51,84,20
15,40,99,0
15,51,95,298
15,35,74,0
15,42,74,0
15,49,124,176
15,35,79,0
15,40,99,0
15,51,84,23
15,51,95,304
15,42,74,0
15,40,38,172
15,51,63,4
15,40,108,44
15,51,84,4
15,40,43,44
15,47,104,25
15,40,34,120
15,51,95,4
15,37,74,0
15,42,74,0
15,40,50,40
15,40,47,120
15,51,63,0
15,40,84,48
15,35,42,0
15,35,78,0
15,57,126,0
15,51,63,176
15,51,74,48
15,42,63,0
15,51,84,176
15,38,53,0
15,51,84,48
15,42,74,0
15,51,95,176
15,51,84,48
15,42,84,0
15,51,63,176
15,51,84,48
15,35,81,0
15,51,84,295
15,42,74,0
15,35,81,176
15,51,84,0
15,51,84,39
15,51,95,304
15,40,74,0
15,42,74,0
15,35,81,0
15,51,63,167
15,51,84,48
15,51,95,304
15,51,63,176
15,51,84,48
15,51,95,304
15,51,63,176
15,51,84,48
15,51,95,304
15,51,63,176
15,51,84,48
15,51,95,304
15,51,63,176
15,35,42,48
15,51,84,0
15,51,63,176
15,42,63,48
15,51,74,0
15,38,53,176
15,51,84,0
15,42,74,48
15,51,84,0
15,51,95,176
15,42,84,48
15,51,84,0
15,51,63,176
15,35,81,48
15,51,84,0
15,42,74,295
15,51,84,0
15,35,81,176
15,51,84,0
15,51,84,39
15,35,81,304
15,42,74,0
15,40,74,0
15,51,95,0
15,51,63,167
15,51,84,48
15,51,74,304
15,51,95,176
15,51,63,48
15,51,95,176
15,51,95,48
15,51,63,176
15,51,84,48
15,51,95,304
15,40,38,172
15,51,53,4
15,40,108,44
15,51,95,4
15,40,43,44
15,47,104,120
15,40,34,120
15,42,74,4
15,37,74,0
15,40,50,40
15,40,47,120
15,51,80,128
15,35,40,0
15,35,74,0
15,35,40,0
15,40,80,0
15,57,120,0
15,51,80,304
15,42,70,0
15,35,50,204
15,51,80,20
15,51,90,304
15,37,70,0
15,42,70,0
15,51,80,304
15,51,80,304
15,42,70,0
15,51,80,304
15,51,90,304
15,37,70,0
15,42,70,0
15,51,80,304
15,51,90,304
15,42,70,0
15,51,60,176
15,35,75,48
15,40,88,0
15,51,80,0
15,51,90,295
15,37,70,0
15,42,70,0
15,35,78,176
15,40,88,0
15,51,60,0
15,51,80,39
15,40,127,180
15,51,80,116
15,42,70,0
15,40,30,4
15,40,36,64
15,40,117,108
15,51,80,116
15,40,88,176
15,35,81,0
15,51,90,32
15,49,121,176
15,35,75,0
15,51,80,48
15,35,40,0
15,51,70,304
15,42,60,0
15,51,90,176
15,38,50,0
15,51,60,48
15,42,60,0
15,51,90,176
15,51,90,48
15,42,60,0
15,35,60,176
15,51,60,0
15,35,40,48
15,51,80,0
15,40,127,176
15,51,80,120
15,42,70,0
15,40,21,4
15,44,102,0
15,40,21,52
15,40,30,120
15,51,80,116
15,50,110,4
15,40,49,176
15,40,117,120
15,51,90,0
15,35,70,0
15,42,70,0
15,57,120,176
15,35,75,0
15,51,80,48
15,51,90,304
15,42,70,0
15,51,50,176
15,40,75,48
15,51,90,0
15,35,70,295
15,40,69,0
15,51,90,0
15,35,75,167
15,49,120,0
15,40,81,0
15,51,60,0
15,35,85,295
15,40,63,0
15,46,53,4
15,44,110,120
15,50,64,0
15,42,74,0
15,40,44,116
15,40,44,120
15,42,84,0
15,47,100,128
15,40,52,112
15,43,109,124
15,40,127,112
15,44,126,0
15,50,36,128
15,47,45,48
15,51,110,52
15,47,54,8
15,43,67,56
15,51,80,48
15,35,125,4
15,35,81,176
15,40,81,0
15,51,70,0
15,51,90,39
15,42,70,0
15,35,81,304
15,40,81,0
15,51,80,0
15,51,70,167
15,51,90,48
15,42,70,0
15,40,81,304
15,51,80,0
15,35,40,0
15,51,80,295
15,42,70,0
15,40,81,176
15,35,50,28
15,51,80,20
15,40,75,304
15,51,90,0
15,35,70,0
15,35,81,167
15,51,81,0
15,40,81,0
15,51,80,3111
15,35,125,4
15,51,70,176
15,40,81,0
15,35,81,0
15,42,70,39
15,51,90,0
15,51,80,304
15,40,81,0
15,35,81,0
15,51,70,167
15,42,70,48
15,51,90,0
15,35,40,304
15,51,80,0
15,40,81,0
15,42,70,295
15,51,80,0
15,40,81,176
15,35,50,28
15,51,80,20
15,35,70,304
15,49,90,0
15,40,75,0
15,40,81,167
15,57,81,0
15,35,81,0
15,35,65,3111
15,40,89,8
15,49,120,0
15,51,100,304
15,42,70,0
15,35,75,0
15,51,80,298
15,51,100,304
15,37,70,0
15,42,70,0
15,35,75,0
15,38,70,170
15,51,80,48
15,51,90,304
15,42,70,0
15,35,75,0
15,51,60,170
15,51,80,48
15,51,90,304
15,37,70,0
15,42,70,0
15,35,75,0
15,51,60,170
15,51,80,48
15,51,80,304
15,42,70,0
15,35,75,0
15,51,80,298
15,51,90,304
15,37,70,0
15,42,70,0
15,35,75,0
15,51,80,298
15,51,90,304
15,42,70,0
15,35,75,0
15,51,60,170
15,51,80,48
15,51,90,304
15,37,70,0
15,42,70,0
15,35,75,0
15,51,60,170
15,51,80,48
15,51,90,304
15,42,70,0
15,35,75,0
15,51,60,170
15,51,80,48
15,51,90,304
15,37,70,0
15,42,70,0
15,35,75,0
15,51,60,170
15,51,80,48
15,51,80,304
15,42,70,0
15,35,75,0
15,51,80,298
15,35,70,304
15,49,88,0
15,40,88,0
15,49,88,148
15,40,88,0
15,40,20,4
15,40,41,36
15,40,43,64
15,50,127,4
15,40,35,32
15,40,68,68
15,47,77,4
15,40,63,36
15,40,65,68
15,35,80,20
15,49,120,8
15,43,120,0
15,51,80,304
15,42,70,0
15,35,50,204
15,51,80,20
15,51,90,304
15,37,70,0
15,42,70,0
15,51,80,304
15,51,100,304
15,42,70,0
15,51,80,304
15,51,100,304
15,37,70,0
15,42,70,0
15,40,88,304
15,51,80,0
15,51,70,170
15,51,90,48
15,42,70,0
15,40,88,176
15,51,80,58
15,51,80,176
15,51,90,48
15,37,60,0
15,42,70,0
15,51,80,304
15,51,80,304
15,42,70,0
15,51,80,304
15,51,90,304
15,37,70,0
15,42,70,0
15,51,80,304
15,51,90,304
15,42,70,0
15,51,60,176
15,51,80,48
15,51,90,304
15,37,70,0
15,42,70,0
15,51,60,176
15,51,80,48
15,51,80,304
15,42,70,0
15,51,80,304
15,51,90,304
15,37,70,0
15,42,70,0
15,51,80,304
15,51,90,304
15,42,70,0
15,51,60,179
15,51,80,45
15,51,90,304
15,37,60,0
15,42,70,0
15,51,60,179
15,51,80,45
15,51,90,304
15,42,70,0
15,51,60,176
15,38,60,0
15,51,80,48
15,38,50,0
15,51,90,304
15,42,70,0
15,38,70,0
15,51,60,176
15,49,50,48
15,38,50,0
15,35,75,176
15,40,75,0
15,51,100,39
15,42,70,0
15,35,75,304
15,40,75,0
15,51,80,0
15,51,100,295
15,42,70,0
15,35,75,176
15,40,75,0
15,51,80,39
15,35,40,0
15,51,80,304
15,42,70,0
15,35,50,204
15,51,80,20
15,51,90,304
15,37,70,0
15,42,70,0
15,40,88,304
15,51,80,0
15,35,40,0
15,51,60,170
15,51,70,48
15,42,60,0
15,40,88,176
15,51,80,0
15,35,50,0
15,51,80,48
15,42,70,0
15,51,90,176
15,51,80,48
15,42,80,0
15,51,80,304
15,51,80,304
15,42,70,0
15,51,80,304
15,51,90,304
15,37,70,0
15,42,70,0
15,51,80,304
15,51,80,304
15,42,70,0
15,51,80,304
15,51,90,304
15,37,70,0
15,42,70,0
15,51,80,304
15,51,80,304
15,42,70,0
15,51,80,304
15,51,90,304
15,37,70,0
15,42,70,0
15,51,80,304
15,51,80,304
15,42,70,0
15,51,80,304
15,51,90,304
15,37,70,0
15,42,70,0
15,51,90,304
15,38,40,0
15,51,90,304
15,42,70,0
15,38,70,112
15,51,90,112
15,35,87,176
15,42,70,120
15,40,67,0
15,40,41,52
15,40,100,116
15,35,70,0
15,35,80,112
15,105,94,0
15,49,120,8
15,51,100,304
15,42,70,0
15,51,80,304
15,51,100,304
15,37,70,0
15,42,70,0
15,51,80,304
15,51,100,304
15,42,70,0
15,51,80,304
15,51,100,304
15,37,70,0
15,42,70,0
15,51,80,304
15,51,80,304
15,42,70,0
15,51,80,304
15,51,90,304
15,37,70,0
15,42,70,0
15,40,88,304
15,35,75,0
15,51,80,0
15,51,80,295
15,42,70,0
15,40,94,176
15,35,81,0
15,51,80,39
15,51,90,304
15,37,70,0
15,42,70,0
15,51,80,304
15,51,90,304
15,42,70,0
15,51,60,179
15,51,80,45
15,51,90,304
15,37,60,0
15,42,70,0
15,51,60,179
15,51,80,45
15,51,80,304
15,42,70,0
15,51,80,304
15,51,90,304
15,37,70,0
15,42,70,0
15,51,80,304
15,51,70,176
15,51,90,48
15,42,70,0
15,51,80,304
15,51,80,176
15,51,90,48
15,37,60,0
15,42,70,0
15,51,80,304
15,40,127,176
15,51,90,120
15,42,70,0
15,35,102,4
15,40,21,0
15,40,21,52
15,51,60,116
15,40,30,4
15,51,80,48
15,50,110,4
15,40,49,176
15,35,117,120
15,51,90,0
15,42,70,0
15,40,37,176
15,51,60,0
15,35,80,48
15,40,120,8
15,49,120,0
15,51,100,304
15,42,70,0
15,51,80,304
15,51,100,304
15,37,70,0
15,42,70,0
15,38,70,176
15,35,69,48
15,40,106,0
15,51,80,0
15,51,80,276
15,42,70,0
15,35,68,176
15,40,106,0
15,51,80,20
15,35,71,304
15,40,106,0
15,51,90,0
15,37,70,0
15,42,70,0
15,51,80,276
15,51,70,176
15,51,90,48
15,42,70,0
15,51,80,304
15,51,80,176
15,51,90,48
15,37,60,0
15,42,70,0
15,51,80,304
15,51,80,304
15,42,70,0
15,51,80,304
15,51,90,304
15,37,70,0
15,42,70,0
15,51,80,304
15,51,100,304
15,42,70,0
15,51,80,304
15,51,100,304
15,37,70,0
15,42,70,0
15,51,80,304
15,51,80,304
15,42,70,0
15,51,80,304
15,51,90,304
15,37,70,0
15,42,70,0
15,51,80,304
15,51,90,304
15,42,70,0
15,51,60,176
15,51,80,48
15,51,90,304
15,37,70,0
15,42,70,0
15,51,60,176
15,51,90,0
15,38,40,0
15,40,113,176
15,51,90,116
15,42,70,0
15,40,20,4
15,40,41,52
15,40,43,116
15,51,90,0
15,50,127,4
15,40,35,48
15,40,68,124
15,42,70,116
15,47,77,4
