track,note,velocity,time
0,67,118,559
0,72,112,12
0,48,100,4
0,48,127,1
0,76,127,3
0,67,126,16
0,71,127,1
0,74,127,0
0,72,116,7
0,50,98,1
0,69,127,0
0,48,127,3
0,50,83,1
0,52,101,3
0,62,120,2
0,52,127,1
0,67,127,4
0,71,122,12
0,72,114,8
0,67,107,0
0,62,114,2
0,62,120,4
0,67,124,0
0,71,122,0
0,52,127,2
0,52,97,21
0,48,120,0
0,60,107,5
0,65,122,15
0,53,96,5
0,53,127,2
0,69,120,8
0,53,97,1
0,53,102,1
0,60,127,3
0,65,127,10
0,52,95,3
0,65,122,23
0,60,127,0
0,67,118,6
0,69,127,7
0,50,94,7
0,52,116,0
0,67,114,18
0,65,126,20
0,50,108,3
0,48,94,30
0,55,124,1
0,48,127,0
0,60,127,1
0,64,120,1
0,64,112,7
0,72,127,1
0,76,127,3
0,50,90,25
0,48,127,3
0,50,84,3
0,62,127,3
0,67,126,2
0,52,100,4
0,52,127,0
0,71,114,0
0,72,127,4
0,69,124,2
0,52,127,5
0,67,124,1
0,71,120,1
0,52,87,16
0,48,127,1
0,60,105,7
0,53,96,9
0,65,105,1
0,53,120,1
0,69,126,4
0,53,92,1
0,57,104,8
0,42,47,4
0,60,106,14
0,60,114,6
0,42,51,1
0,57,107,0
0,65,126,1
0,53,102,1
0,65,114,1
0,42,69,4
0,60,116,1
0,65,127,1
0,53,127,0
0,60,127,2
0,57,122,1
0,46,65,43
0,52,127,2
0,50,124,1
0,65,127,0
0,60,127,0
0,57,126,0
0,35,124,35
0,43,107,0
0,44,95,1
0,62,37,0
0,67,51,0
0,71,25,0
0,55,110,0
0,59,116,0
0,62,118,0
0,71,114,0
0,67,126,0
0,42,50,14
0,71,9,1
0,62,19,1
0,67,29,0
0,62,31,23
0,42,48,1
0,67,45,0
0,71,31,0
0,50,108,0
0,44,90,1
0,40,113,0
0,62,49,0
0,67,63,0
0,71,57,0
0,55,114,0
0,67,94,0
0,62,90,0
0,71,88,1
0,57,111,0
0,62,41,1
0,67,45,0
0,71,27,0
0,42,52,1
0,59,111,0
0,38,105,0
0,67,65,1
0,62,57,0
0,71,59,0
0,42,46,1
0,35,38,0
0,50,93,1
0,43,107,13
0,44,82,1
0,62,71,0
0,67,81,0
0,71,71,0
0,59,114,0
0,35,84,0
0,43,110,1
0,62,107,12
0,42,52,1
0,62,37,1
0,71,6,0
0,67,101,30
0,67,57,0
0,62,33,0
0,42,54,1
0,71,21,1
0,62,124,8
0,59,122,0
0,67,127,0
0,62,57,0
0,44,90,1
0,40,112,0
0,67,65,0
0,71,65,0
0,71,127,1
0,67,98,1
0,62,88,0
0,71,84,2
0,42,54,6
0,62,59,0
0,67,49,3
0,38,103,1
0,42,52,1
0,35,55,1
0,50,71,0
0,59,105,0
0,67,29,23
0,59,45,1
0,64,51,0
0,44,80,2
0,35,100,0
0,40,107,0
0,52,104,1
0,59,116,0
0,59,118,2
0,71,120,0
0,64,127,1
0,67,124,0
0,57,114,0
0,59,21,0
0,42,56,1
0,64,35,0
0,67,9,2
0,57,112,0
0,42,48,7
0,59,49,0
0,64,59,0
0,67,45,1
0,59,49,11
0,67,45,0
0,64,61,1
0,44,87,1
0,40,113,0
0,52,120,2
0,67,100,0
0,64,92,0
0,71,90,0
0,59,94,2
0,59,53,17
0,64,127,1
0,67,45,0
0,64,59,0
0,42,54,1
0,67,126,0
0,55,127,1
0,59,73,20
0,59,69,1
0,64,77,0
0,67,67,1
0,42,56,1
0,35,59,0
0,55,115,0
0,48,124,0
0,65,61,18
0,60,63,1
0,69,53,0
0,44,87,0
0,35,104,0
0,41,108,0
0,69,112,0
0,60,122,0
0,65,120,1
0,57,120,0
0,53,126,0
0,60,29,21
0,65,15,1
0,42,52,1
0,69,7,0
0,60,53,24
0,65,53,0
0,42,56,1
0,69,41,0
0,60,83,23
0,65,79,0
0,69,71,0
0,40,113,2
0,44,92,0
0,60,98,0
0,69,90,0
0,65,102,0
0,67,126,4
0,64,127,0
0,60,81,0
0,69,77,0
0,42,91,2
0,40,108,0
0,65,69,0
0,55,114,0
0,52,116,1
0,65,112,0
0,65,77,1
0,69,63,0
0,53,114,1
0,60,67,0
0,46,91,2
0,38,104,0
0,50,127,1
0,42,60,2
0,35,116,0
0,36,106,0
0,60,85,0
0,64,79,0
0,48,77,0
0,55,75,0
0,55,110,0
0,60,126,0
0,67,127,0
0,64,127,0
0,48,108,0
0,52,95,0
0,50,107,0
0,42,74,2
0,52,111,0
0,36,97,1
0,42,48,1
0,60,75,1
0,60,53,0
0,60,70,1
0,57,61,10
0,48,49,0
0,60,77,0
0,65,63,0
0,43,106,1
0,44,91,0
0,40,114,0
0,45,106,0
0,60,32,1
0,65,127,0
0,69,127,0
0,48,114,0
0,53,114,0
0,65,76,0
0,69,90,0
0,42,72,28
0,42,58,14
0,35,59,0
0,60,62,2
0,55,61,2
0,48,71,0
0,60,75,0
0,43,107,1
0,64,69,0
0,44,84,1
0,35,110,0
0,67,116,2
0,48,97,0
0,52,97,0
0,64,127,0
0,64,70,1
0,67,68,0
0,42,62,3
0,36,98,23
0,42,56,1
0,60,65,0
0,60,73,2
0,60,68,1
0,44,88,3
0,40,113,0
0,45,111,0
0,43,92,0
0,48,69,1
0,57,77,0
0,60,81,0
0,65,65,0
0,65,127,1
0,69,127,0
0,48,122,0
0,53,110,0
0,65,68,0
0,69,74,0
0,42,64,32
0,42,56,44
0,43,106,0
0,60,90,2
0,55,65,5
0,44,88,1
0,36,98,0
0,60,81,0
0,64,77,0
0,35,127,1
0,48,71,0
0,52,106,1
0,48,110,0
0,64,122,0
0,67,107,0
0,64,64,0
0,67,32,1
0,42,74,13
0,36,97,9
0,42,54,1
0,60,45,0
0,60,92,2
0,60,70,0
0,43,108,3
0,48,71,0
0,57,77,0
0,60,81,0
0,65,73,0
0,44,90,1
0,40,113,0
0,45,105,0
0,65,127,2
0,69,127,0
0,60,118,0
0,48,108,0
0,53,102,0
0,65,70,1
0,69,76,0
0,42,68,19
0,55,114,0
0,42,64,3
0,60,56,0
0,48,63,1
0,55,63,0
0,59,113,0
0,43,110,0
0,60,83,0
0,64,73,0
0,44,91,1
0,35,114,0
0,67,122,2
0,64,126,0
0,48,97,0
0,52,104,0
0,64,64,0
0,67,68,0
0,42,66,45
0,55,69,2
0,60,87,0
0,64,85,0
0,48,75,0
0,42,58,1
0,60,115,0
0,67,127,0
0,60,127,0
0,64,127,0
0,48,126,0
0,52,114,0
0,40,107,45
0,44,90,1
0,40,113,0
0,62,107,0
0,38,107,0
0,60,95,0
0,42,93,0
0,64,97,0
0,48,85,0
0,55,81,0
0,67,120,0
0,48,127,0
0,52,124,0
0,60,124,1
0,64,127,0
0,35,94,2
0,46,93,0
0,60,108,0
0,43,108,0
0,44,84,1
0,35,127,0
0,67,67,0
0,71,45,0
0,59,110,0
0,62,120,0
0,71,122,0
0,67,127,0
0,55,116,0
0,62,57,0
0,62,107,0
0,42,78,20
0,42,46,23
0,67,25,4
0,71,13,0
0,62,6,1
0,44,93,23
0,40,113,1
0,59,70,1
0,62,29,0
0,67,35,0
0,71,21,0
0,62,90,0
0,71,92,0
0,67,98,0
0,42,80,21
0,62,33,0
0,71,25,0
0,67,39,1
0,62,90,1
0,38,100,3
0,67,53,0
0,62,39,0
0,71,37,0
0,42,54,1
0,67,105,1
0,50,95,0
0,67,63,24
0,71,59,0
0,62,57,1
0,43,108,0
0,35,122,1
0,44,90,0
0,59,118,1
0,71,127,0
0,43,106,0
0,62,19,14
0,67,15,0
0,55,112,0
0,42,56,0
0,55,110,0
0,67,33,0
0,62,31,1
0,71,25,0
0,42,50,1
0,62,51,15
0,67,59,0
0,59,115,0
0,71,49,0
0,44,87,1
0,40,113,0
0,59,94,1
0,67,98,1
0,71,88,0
0,62,86,1
0,62,53,2
0,67,61,0
0,71,51,0
0,60,114,0
0,38,106,0
0,42,66,1
0,62,107,1
0,50,106,0
0,62,111,0
0,62,67,1
0,67,77,0
0,71,71,0
0,36,107,2
0,42,58,1
0,67,103,1
0,48,112,0
0,66,57,9
0,62,57,0
0,71,65,1
0,35,110,2
0,64,112,0
0,44,89,0
0,35,114,0
0,59,107,0
0,62,39,0
0,66,114,0
0,47,112,0
0,71,27,23
0,62,111,1
0,62,21,1
0,66,25,1
0,42,62,1
0,42,58,19
0,62,27,1
0,66,37,0
0,71,33,1
0,71,61,13
0,62,57,1
0,66,53,0
0,44,89,1
0,40,113,0
0,59,112,0
0,62,80,0
0,66,88,0
0,71,84,0
0,66,53,11
0,71,65,0
0,42,102,1
0,62,63,0
0,42,52,1
0,62,110,1
0,71,69,12
0,66,65,0
0,55,110,0
0,62,73,0
0,42,54,1
0,38,108,0
0,35,59,1
0,66,107,0
0,47,108,0
0,58,114,0
0,41,104,0
0,44,86,1
0,35,112,0
0,60,112,0
0,69,127,0
0,65,127,0
0,53,104,0
0,69,6,0
0,57,99,2
0,42,70,2
0,65,33,1
0,60,29,0
0,69,11,0
0,55,107,0
0,42,58,1
0,60,33,0
0,65,37,0
0,69,25,1
0,60,67,1
0,65,79,0
0,69,69,0
0,40,113,1
0,57,112,0
0,44,92,0
0,60,126,0
0,69,127,0
0,65,127,0
0,69,82,1
0,60,84,0
0,65,98,0
0,60,69,5
0,65,77,0
0,69,69,0
0,55,106,0
0,42,90,0
0,40,110,0
0,65,116,0
0,52,109,0
0,60,79,2
0,65,89,0
0,69,81,0
0,46,93,2
0,38,107,0
0,53,104,1
0,44,82,1
0,35,114,0
0,36,107,0
0,60,81,0
0,64,81,0
0,55,69,0
0,48,69,0
0,55,113,0
0,60,126,1
0,64,127,0
0,67,127,0
0,48,120,0
0,52,104,0
0,50,94,0
0,42,74,1
0,52,108,2
0,60,35,2
0,36,100,1
0,42,56,1
0,60,69,1
0,60,72,1
0,60,77,20
0,65,67,0
0,48,67,0
0,57,73,0
0,43,101,2
0,44,93,1
0,40,112,0
0,45,110,0
0,69,127,1
0,60,124,0
0,65,127,0
0,53,106,0
0,48,114,0
0,65,74,1
0,69,84,0
0,42,64,19
0,42,58,21
0,60,73,1
0,55,67,1
0,36,104,1
0,48,79,0
0,44,84,1
0,35,108,0
0,60,85,0
0,64,79,0
0,64,127,0
0,67,127,0
0,48,114,0
0,52,108,0
0,64,70,1
0,67,70,0
0,42,62,45
0,43,98,14
0,42,54,1
0,60,67,0
0,60,65,1
0,60,52,0
0,45,110,2
0,44,84,1
0,40,113,0
0,48,71,0
0,57,73,0
0,65,67,1
0,53,104,0
0,48,102,0
0,69,127,0
0,65,127,0
0,60,83,0
0,65,80,0
0,69,84,0
0,42,46,35
0,35,67,26
0,42,54,0
0,60,36,0
0,55,59,7
0,48,71,1
0,60,81,0
0,64,81,0
0,44,93,1
0,35,112,0
0,36,106,0
0,67,127,2
0,64,127,0
0,48,108,0
0,52,104,0
0,67,60,0
0,64,54,0
0,42,76,2
0,36,103,27
0,60,55,0
0,42,60,2
0,60,79,1
0,60,50,0
0,43,103,16
0,48,65,0
0,57,71,0
0,44,90,1
0,40,113,0
0,45,110,0
0,60,89,0
0,65,87,0
0,65,127,2
0,69,127,0
0,53,95,0
0,48,110,0
0,65,64,0
0,69,72,0
0,42,58,29
0,50,111,0
0,35,48,4
0,42,62,1
0,60,56,1
0,48,71,5
0,55,65,0
0,60,81,0
0,40,111,1
0,64,81,0
0,44,93,1
0,35,118,0
0,48,26,1
0,52,108,0
0,60,120,1
0,67,127,0
0,64,127,0
0,60,88,0
0,67,76,0
0,64,80,0
0,59,115,0
0,42,62,36
0,43,110,11
0,40,111,1
0,60,89,0
0,44,82,1
0,64,95,0
0,55,77,0
0,48,83,0
0,60,127,0
0,67,127,0
0,64,127,0
0,48,118,0
0,52,114,0
0,60,115,0
0,40,114,41
0,44,95,1
0,43,111,22
0,60,101,0
0,48,83,0
0,64,103,0
0,35,82,1
0,42,84,0
0,55,81,0
0,62,115,0
0,48,118,0
0,52,116,0
0,60,127,0
0,67,127,0
0,64,127,0
0,60,107,3
0,35,120,5
0,40,114,0
0,44,96,1
0,62,107,0
0,71,121,7
0,67,101,0
0,35,122,0
0,31,109,0
0,49,93,0
0,62,67,0
0,67,67,0
0,71,63,0
0,71,107,0
0,62,118,0
0,59,118,0
0,43,114,0
0,55,70,1
0,42,56,15
0,62,29,7
0,71,27,0
0,42,50,1
0,31,107,0
0,67,35,0
0,55,64,0
0,62,45,28
0,35,105,1
0,67,33,0
0,71,31,0
0,42,62,1
0,44,76,0
0,40,114,0
0,59,105,0
0,59,68,0
0,38,104,24
0,62,51,0
0,67,53,0
0,71,37,0
0,42,50,1
0,62,103,2
0,62,64,0
0,43,105,3
0,67,45,0
0,62,45,0
0,71,41,0
0,42,48,1
0,35,42,0
0,67,75,2
0,43,95,0
0,67,78,0
0,43,110,2
0,62,41,0
0,67,55,0
0,71,41,0
0,44,76,1
0,35,112,0
0,62,124,0
0,67,127,0
0,71,126,0
0,59,120,0
0,43,108,0
0,62,31,12
0,42,33,2
0,67,6,0
0,67,73,23
0,62,65,0
0,71,63,0
0,42,50,1
0,38,107,15
0,44,80,1
0,40,113,0
0,62,35,0
0,59,81,2
0,66,101,18
0,62,57,0
0,67,67,0
0,71,57,0
0,69,103,0
0,42,46,0
0,62,124,1
0,67,127,0
0,71,127,0
0,43,114,0
0,71,111,7
0,67,95,0
0,42,52,1
0,35,31,0
0,45,126,0
0,59,99,0
0,69,95,3
0,66,95,0
0,35,110,0
0,44,76,1
0,35,110,0
0,66,53,0
0,63,49,0
0,71,55,0
0,59,113,0
0,47,114,0
0,66,97,0
0,63,97,0
0,69,110,0
0,59,74,1
0,42,43,21
0,66,37,16
0,63,33,1
0,71,33,0
0,35,107,1
0,42,54,1
0,59,66,0
0,57,114,0
0,39,102,25
0,63,43,0
0,66,43,0
0,71,33,0
0,40,113,1
0,44,80,0
0,63,68,1
0,42,107,21
0,66,51,1
0,63,49,0
0,71,53,0
0,42,41,1
0,63,92,1
0,55,107,0
0,66,44,0
0,57,108,0
0,66,63,8
0,71,63,0
0,63,61,0
0,47,107,2
0,42,54,1
0,47,93,2
0,71,70,0
0,63,77,0
0,66,83,0
0,71,81,0
0,45,110,2
0,44,76,1
0,35,122,0
0,47,116,0
0,63,32,0
0,66,94,0
0,69,120,0
0,69,64,0
0,63,23,12
0,42,60,2
0,66,57,7
0,71,67,1
0,63,49,0
0,42,50,1
0,55,114,0
0,63,67,23
0,71,73,0
0,66,67,0
0,42,108,1
0,40,113,1
0,44,82,0
0,59,114,0
0,42,56,23
0,66,94,0
0,63,90,0
0,47,124,0
0,57,112,0
0,42,60,1
0,35,82,0
0,59,120,0
0,59,67,2
0,67,48,0
0,64,63,5
0,71,68,1
0,67,108,4
0,64,95,0
0,67,81,0
0,44,82,0
0,35,120,0
0,40,110,0
0,67,114,1
0,64,124,1
0,59,116,0
0,52,108,0
0,55,111,0
0,76,64,0
0,79,76,7
0,42,54,30
0,42,52,10
0,59,51,2
0,44,74,11
0,40,113,0
0,59,116,2
0,42,19,15
0,59,127,2
0,67,127,0
0,64,127,0
0,40,108,10
0,42,56,1
0,35,79,0
0,52,104,1
0,59,97,0
0,65,54,0
0,62,85,2
0,57,73,1
0,71,64,3
0,74,36,2
0,62,95,1
0,38,110,0
0,65,105,1
0,44,82,0
0,35,112,0
0,65,87,0
0,50,120,1
0,59,112,0
0,65,116,0
0,62,126,0
0,77,68,3
0,55,117,0
0,42,50,7
0,57,112,0
0,42,54,5
0,40,113,6
0,44,78,1
0,59,114,0
0,59,107,0
0,42,20,16
0,55,105,1
0,59,127,0
0,62,127,0
0,67,127,0
0,65,127,0
0,50,127,0
0,38,110,2
0,42,56,1
0,35,57,0
0,59,90,0
0,57,112,0
0,64,48,11
0,60,37,2
0,67,68,0
0,67,69,1
0,64,67,0
0,64,95,1
0,60,91,0
0,36,108,0
0,72,40,0
0,44,82,1
0,35,110,0
