track,note,velocity,time
0,58,75,2206
0,61,75,0
0,65,75,0
0,35,107,32
0,42,77,0
0,46,112,0
0,46,118,0
0,49,72,0
0,58,118,0
0,82,36,2
0,34,94,2
0,61,109,4
0,65,100,0
0,70,99,0
0,61,93,2
0,65,92,0
0,70,102,0
0,69,47,86
0,42,69,2
0,54,57,2
0,61,91,2
0,65,78,0
0,70,77,0
0,58,90,2
0,61,87,0
0,65,83,0
0,61,68,2
0,65,73,0
0,70,96,0
0,40,97,88
0,42,73,0
0,82,51,2
0,34,94,2
0,61,94,2
0,65,88,0
0,70,82,0
0,61,70,0
0,65,75,0
0,70,87,0
0,42,69,88
0,49,113,0
0,49,118,0
0,61,118,0
0,54,54,2
0,82,51,0
0,61,96,2
0,65,82,0
0,70,86,0
0,58,90,2
0,61,90,0
0,65,83,0
0,57,75,4
0,60,75,0
0,69,44,0
0,35,107,0
0,42,75,0
0,48,119,0
0,48,118,0
0,60,118,0
0,41,94,4
0,60,108,4
0,65,104,0
0,69,102,0
0,60,90,2
0,65,90,0
0,69,102,0
0,42,69,2
0,51,109,0
0,51,118,0
0,63,118,0
0,54,59,2
0,82,51,0
0,60,87,2
0,65,78,0
0,69,78,0
0,57,85,2
0,63,87,0
0,65,85,0
0,60,73,2
0,65,77,0
0,69,96,0
0,69,46,86
0,40,97,2
0,42,73,0
0,41,94,4
0,60,103,2
0,65,80,0
0,69,80,0
0,60,71,2
0,65,78,0
0,69,97,0
0,69,50,86
0,46,64,2
0,51,106,0
0,51,118,0
0,63,118,0
0,54,62,2
0,60,103,2
0,65,80,0
0,69,82,0
0,57,87,2
0,63,87,0
0,65,85,0
0,48,105,0
0,48,118,0
0,60,118,0
0,58,75,4
0,61,75,0
0,35,107,24
0,42,77,0
0,46,112,0
0,46,118,0
0,58,118,0
0,82,43,2
0,34,94,2
0,61,109,4
0,65,100,0
0,70,99,0
0,61,93,2
0,65,92,0
0,70,102,0
0,69,57,86
0,42,69,2
0,54,58,2
0,61,91,2
0,65,78,0
0,70,77,0
0,58,85,2
0,61,85,0
0,65,81,0
0,61,68,2
0,65,73,0
0,70,96,0
0,40,97,88
0,42,73,0
0,82,54,2
0,34,94,2
0,61,94,2
0,65,88,0
0,70,82,0
0,61,70,0
0,65,75,0
0,70,87,0
0,42,69,88
0,49,113,0
0,49,118,0
0,61,118,0
0,54,62,2
0,82,45,0
0,61,96,2
0,65,82,0
0,70,86,0
0,58,90,2
0,61,85,0
0,65,81,0
0,57,75,4
0,60,75,0
0,69,55,0
0,35,107,0
0,42,75,0
0,48,119,0
0,48,118,0
0,60,118,0
0,41,94,4
0,60,108,4
0,65,104,0
0,69,102,0
0,60,90,2
0,65,90,0
0,69,102,0
0,42,69,2
0,51,109,0
0,51,118,0
0,63,118,0
0,54,63,2
0,82,54,0
0,60,87,2
0,65,78,0
0,69,78,0
0,57,85,2
0,63,87,0
0,65,83,0
0,60,73,2
0,65,77,0
0,69,96,0
0,69,50,86
0,40,97,2
0,42,73,0
0,41,94,4
0,60,103,2
0,65,80,0
0,69,80,0
0,60,71,2
0,65,78,0
0,69,97,0
0,69,63,86
0,46,64,2
0,51,106,0
0,51,118,0
0,63,118,0
0,54,58,2
0,60,103,2
0,65,80,0
0,69,82,0
0,57,83,2
0,63,87,0
0,65,85,0
0,48,105,4
0,48,118,0
0,60,118,0
0,58,75,4
0,61,75,0
0,35,107,24
0,42,77,0
0,46,112,0
0,46,118,0
0,58,118,0
0,82,39,2
0,34,94,2
0,61,109,4
0,65,100,0
0,70,99,0
0,61,93,2
0,65,92,0
0,70,102,0
0,69,48,86
0,42,69,2
0,54,59,2
0,61,91,2
0,65,78,0
0,70,77,0
0,58,87,2
0,61,83,0
0,65,85,0
0,61,68,2
0,65,73,0
0,70,96,0
0,40,97,88
0,42,73,0
0,82,54,2
0,34,94,2
0,61,94,2
0,65,88,0
0,70,82,0
0,61,70,0
0,65,75,0
0,70,87,0
0,42,69,88
0,49,113,0
0,49,118,0
0,61,118,0
0,54,61,2
0,82,45,0
0,61,96,2
0,65,82,0
0,70,86,0
0,58,87,2
0,61,85,0
0,65,81,0
0,57,75,4
0,60,75,0
0,69,50,0
0,35,107,0
0,42,75,0
0,48,119,0
0,48,118,0
0,60,118,0
0,41,94,4
0,60,108,4
0,65,104,0
0,69,102,0
0,60,90,2
0,65,90,0
0,69,102,0
0,42,69,0
0,51,109,0
0,51,118,0
0,63,118,0
0,54,58,2
0,82,54,0
0,60,87,2
0,65,78,0
0,69,78,0
0,57,85,2
0,63,90,0
0,65,83,0
0,60,73,2
0,65,77,0
0,69,96,0
0,69,61,86
0,40,97,2
0,42,73,0
0,41,94,4
0,60,103,2
0,65,80,0
0,69,80,0
0,60,71,2
0,65,78,0
0,69,97,0
0,69,59,86
0,46,64,2
0,51,106,0
0,51,118,0
0,63,118,0
0,54,62,2
0,60,103,2
0,65,80,0
0,69,82,0
0,57,83,2
0,63,85,0
0,65,81,0
0,48,105,0
0,48,118,0
0,60,118,0
0,58,75,4
0,61,75,0
0,65,75,0
0,82,96,22
0,35,107,2
0,42,77,0
0,57,72,0
0,58,112,0
0,58,115,0
0,70,118,0
0,34,94,4
0,61,109,4
0,65,100,0
0,70,99,0
0,69,47,170
0,40,97,46
0,34,94,4
0,69,46,170
0,40,88,78
0,82,91,4
0,40,97,6
0,34,94,4
0,81,91,38
0,80,90,64
0,79,90,4
0,69,47,4
0,40,97,2
0,78,89,4
0,77,89,4
0,76,88,4
0,40,97,6
0,34,94,4
0,75,88,4
0,40,88,38
0,74,87,4
0,73,83,4
0,69,51,4
0,40,97,2
0,72,76,4
0,40,91,38
0,71,70,0
0,58,75,34
0,61,75,0
0,65,75,0
0,70,88,4
0,73,88,0
0,35,107,14
0,42,77,0
0,46,102,0
0,46,98,0
0,49,72,0
0,65,100,0
0,82,40,2
0,34,94,2
0,69,57,76
0,42,69,2
0,61,90,10
0,65,87,0
0,70,83,0
0,40,97,72
0,42,73,0
0,65,98,0
0,54,65,2
0,82,41,0
0,34,94,2
0,42,69,48
0,49,100,0
0,49,96,0
0,65,92,0
0,82,49,2
0,61,90,8
0,65,90,0
0,70,83,0
0,57,75,4
0,60,75,0
0,69,85,2
0,72,85,0
0,69,49,2
0,35,107,2
0,42,75,0
0,48,103,0
0,48,99,0
0,65,97,0
0,41,94,4
0,42,69,2
0,51,102,0
0,51,98,0
0,63,94,0
0,82,46,2
0,60,85,8
0,63,87,0
0,69,85,0
0,69,49,22
0,40,97,2
0,42,73,0
0,61,99,0
0,54,71,2
0,41,94,2
0,69,47,0
0,42,69,2
0,51,100,0
0,51,96,0
0,63,93,0
0,60,87,10
0,63,87,0
0,69,85,0
0,48,98,0
0,48,94,0
0,58,75,4
0,61,75,0
0,70,92,2
0,73,92,0
0,35,107,2
0,42,77,0
0,46,102,0
0,46,98,0
0,65,97,0
0,82,41,2
0,34,94,2
0,69,47,168
0,42,69,2
0,61,85,10
0,65,85,0
0,70,81,0
0,40,97,68
0,42,73,0
0,65,98,0
0,54,70,2
0,82,45,0
0,34,94,2
0,42,69,150
0,49,100,0
0,49,96,0
0,82,34,2
0,61,90,8
0,65,85,0
0,70,81,0
0,57,75,4
0,60,75,0
0,69,84,2
0,72,84,0
0,69,47,2
0,35,107,2
0,42,75,0
0,48,103,0
0,48,99,0
0,41,94,4
0,42,69,2
0,51,102,0
0,51,98,0
0,66,96,0
0,82,51,2
0,60,85,8
0,63,87,0
0,69,83,0
0,69,46,4
0,40,97,2
0,42,73,0
0,68,100,0
0,54,66,2
0,41,94,2
0,69,47,0
0,42,69,2
0,51,100,0
0,51,96,0
0,66,94,0
0,60,83,10
0,63,87,0
0,69,85,0
0,48,98,4
0,48,94,0
0,58,75,4
0,61,75,0
0,70,90,2
0,73,90,0
0,35,107,2
0,42,77,0
0,46,102,0
0,46,98,0
0,65,100,0
0,82,41,2
0,34,94,2
0,69,44,168
0,42,69,2
0,61,87,10
0,65,83,0
0,70,85,0
0,40,97,44
0,42,73,0
0,65,96,0
0,54,68,2
0,82,49,0
0,34,94,2
0,42,69,150
0,49,100,0
0,49,96,0
0,82,41,2
0,61,87,8
0,65,85,0
0,70,81,0
0,57,75,4
0,60,75,0
0,69,89,2
0,72,89,0
0,69,51,2
0,35,107,2
0,42,75,0
0,48,103,0
0,48,99,0
0,41,94,4
0,42,69,2
0,51,102,0
0,51,98,0
0,63,100,0
0,82,45,2
0,60,85,8
0,63,90,0
0,69,83,0
0,69,59,58
0,40,97,2
0,42,73,0
0,66,98,0
0,54,66,2
0,41,94,2
0,63,88,2
0,69,59,94
0,42,69,2
0,51,100,0
0,51,96,0
0,60,83,10
0,63,85,0
0,69,81,0
0,48,98,0
0,48,94,0
0,58,75,4
0,61,75,0
0,65,75,0
0,70,112,0
0,82,118,0
0,35,107,2
0,42,77,0
0,46,101,0
0,46,97,0
0,65,94,0
0,82,45,2
0,34,94,2
0,69,55,168
0,42,69,2
0,61,90,10
0,65,87,0
0,70,83,0
0,70,110,60
0,82,116,0
0,40,97,6
0,42,73,0
0,54,66,2
0,82,43,0
0,34,94,2
0,42,69,170
0,82,45,2
0,61,90,8
0,65,90,0
0,70,83,0
0,70,111,54
0,82,117,0
0,69,57,4
0,35,107,2
0,42,75,0
0,34,94,4
0,68,107,2
0,80,113,2
0,65,108,0
0,77,114,2
0,42,69,4
0,82,45,2
0,61,85,8
0,65,87,0
0,70,85,0
0,65,108,46
0,77,114,0
0,69,50,4
0,40,97,2
0,42,73,0
0,54,71,2
0,34,94,2
0,69,51,168
0,42,69,2
0,61,87,10
0,65,87,0
0,70,85,0
0,58,75,34
0,63,75,0
0,66,75,0
0,63,87,18
0,66,92,0
0,35,107,14
0,42,77,0
0,51,102,0
0,51,98,0
0,70,100,0
0,82,45,2
0,39,94,2
0,69,61,168
0,42,69,2
0,63,90,10
0,66,87,0
0,70,83,0
0,40,97,72
0,42,73,0
0,70,92,0
0,54,68,2
0,82,45,0
0,39,94,2
0,42,69,42
0,54,100,0
0,54,96,0
0,70,94,0
0,82,53,2
0,63,90,8
0,66,90,0
0,70,83,0
0,62,75,4
0,65,75,0
0,62,90,18
0,65,94,0
0,69,55,2
0,35,107,2
0,42,75,0
0,53,103,0
0,53,99,0
0,70,99,0
0,34,94,4
0,42,69,2
0,58,102,0
0,58,98,0
0,68,94,0
0,82,43,2
0,62,85,8
0,65,87,0
0,70,85,0
0,69,51,0
0,40,97,2
0,42,73,0
0,66,92,0
0,54,71,2
0,34,94,2
0,69,50,0
0,42,69,2
0,56,100,0
0,56,96,0
0,68,96,0
0,62,87,10
0,65,87,0
0,70,85,0
0,53,98,0
0,53,94,0
0,63,75,4
0,66,75,0
0,63,86,14
0,66,83,0
0,35,107,0
0,42,77,0
0,51,102,0
0,51,98,0
0,70,100,0
0,82,53,2
0,39,94,2
0,69,53,168
0,42,69,2
0,63,85,10
0,66,85,0
0,70,81,0
0,40,97,64
0,42,73,0
0,70,92,0
0,54,68,2
0,82,45,0
0,39,94,2
0,42,69,150
0,54,100,0
0,54,96,0
0,82,43,2
0,63,90,8
0,66,85,0
0,70,81,0
0,62,75,4
0,65,75,0
0,62,90,18
0,65,92,0
0,69,46,2
0,35,107,2
0,42,75,0
0,53,103,0
0,53,99,0
0,34,94,4
0,42,69,2
0,58,102,0
0,58,98,0
0,71,100,0
0,82,46,2
0,62,85,8
0,65,87,0
0,70,83,0
0,69,47,0
0,40,97,2
0,42,73,0
0,73,99,0
0,54,64,2
0,34,94,2
0,69,51,0
0,42,69,2
0,56,100,0
0,56,96,0
0,71,98,0
0,62,83,10
0,65,87,0
0,70,85,0
0,53,98,4
0,53,94,0
0,63,75,4
0,66,75,0
0,63,87,14
0,66,85,0
0,35,107,2
0,42,77,0
0,51,102,0
0,51,98,0
0,70,98,0
0,82,51,2
0,39,94,2
0,69,51,168
0,42,69,2
0,63,87,10
0,66,83,0
0,70,85,0
0,40,97,60
0,42,73,0
0,70,100,0
0,54,64,2
0,82,45,0
0,39,94,2
0,42,69,150
0,54,100,0
0,54,96,0
0,82,45,2
0,63,87,8
0,66,85,0
0,70,81,0
0,62,75,4
0,65,75,0
0,62,92,18
0,65,92,0
0,69,50,2
0,35,107,2
0,42,75,0
0,53,103,0
0,53,99,0
0,34,94,4
0,42,69,0
0,58,102,0
0,58,98,0
0,68,98,0
0,82,49,2
0,62,85,8
0,65,90,0
0,70,83,0
0,69,59,0
0,40,97,2
0,42,73,0
0,71,101,0
0,54,68,2
0,34,94,2
0,69,47,0
0,42,69,2
0,56,100,0
0,56,96,0
0,68,96,0
0,62,83,10
0,65,85,0
0,70,81,0
0,53,98,0
0,53,94,0
0,58,75,4
0,63,75,0
0,66,75,0
0,63,86,14
0,66,86,0
0,35,107,2
0,42,77,0
0,51,96,0
0,51,92,0
0,70,98,0
0,82,51,2
0,39,94,2
0,69,57,168
0,42,69,2
0,63,90,10
0,66,87,0
0,70,83,0
0,40,97,76
0,42,73,0
0,54,70,2
0,82,45,0
0,39,94,2
0,42,69,102
0,82,41,2
0,78,96,4
0,63,90,4
0,66,90,0
0,70,83,0
0,69,55,26
0,35,107,2
0,42,75,0
0,51,94,0
0,51,90,0
0,39,94,4
0,75,110,2
0,78,99,2
0,42,69,90
0,82,48,2
0,82,97,2
0,63,85,4
0,66,87,0
0,70,85,0
0,69,59,30
0,40,97,2
0,42,73,0
0,51,88,0
0,51,84,0
0,54,72,2
0,39,94,2
0,78,110,2
0,82,100,2
0,69,53,88
0,42,69,2
0,87,96,2
0,63,87,4
0,66,87,0
0,70,85,0
0,58,75,4
0,62,75,0
0,65,75,0
0,82,79,10
0,86,93,0
0,35,107,14
0,42,77,0
0,46,101,0
0,46,97,0
0,65,99,0
0,82,53,2
0,34,94,2
0,69,57,168
0,42,69,2
0,62,77,10
0,65,85,0
0,70,85,0
0,40,97,48
0,42,73,0
0,65,96,0
0,54,71,2
0,82,43,0
0,34,94,2
0,42,69,2
0,46,96,0
0,46,92,0
0,67,94,0
0,82,41,2
0,62,83,8
0,65,83,0
0,70,85,0
0,57,75,4
0,60,75,0
0,81,76,2
0,84,90,0
0,69,59,0
0,35,107,2
0,41,98,0
0,41,94,0
0,42,75,0
0,65,96,0
0,29,94,4
0,42,69,2
0,63,90,0
0,82,51,2
0,60,83,8
0,65,85,0
0,69,83,0
0,69,57,0
0,40,97,2
0,42,73,0
0,62,94,0
0,54,70,2
0,29,94,2
0,69,50,0
0,42,69,2
0,48,103,0
0,48,99,0
0,63,98,0
0,60,85,10
0,65,83,0
0,69,85,0
0,49,101,2
0,49,97,0
0,81,76,16
0,84,90,0
0,35,107,2
0,42,77,0
0,50,101,0
0,50,97,0
0,65,95,0
0,82,48,2
0,38,94,2
0,69,53,168
0,42,69,2
0,62,81,10
0,65,83,0
0,69,85,0
0,40,97,54
0,42,73,0
0,65,92,0
0,54,71,2
0,82,45,0
0,38,94,2
0,42,69,132
0,50,101,0
0,50,97,0
0,82,39,2
0,62,79,8
0,65,83,0
0,69,85,0
0,55,75,4
0,59,75,0
0,79,84,2
0,83,98,0
0,69,49,0
0,35,107,2
0,42,75,0
0,43,92,0
0,43,88,0
0,31,94,4
0,42,69,2
0,63,96,0
0,82,46,2
0,59,83,8
0,62,81,0
0,67,77,0
0,69,50,0
0,40,97,2
0,42,73,0
0,65,100,0
0,54,70,2
0,31,94,2
0,69,57,0
0,42,69,2
0,43,96,0
0,43,92,0
0,63,90,0
0,59,83,10
0,62,85,0
0,67,81,0
0,55,75,4
0,60,75,0
0,64,75,0
0,72,86,12
0,84,98,0
0,35,107,2
0,42,77,0
0,48,103,0
0,48,99,0
0,62,92,0
0,82,48,2
0,36,96,2
0,69,51,168
0,42,69,2
0,58,77,10
0,64,85,0
0,67,85,0
0,40,97,32
0,42,73,0
0,62,88,0
0,54,71,2
0,82,43,0
0,36,94,2
0,42,69,68
0,48,96,0
0,48,92,0
