track,note,velocity,time
1,42,89,120
1,42,0,29
1,42,99,91
1,42,0,29
1,42,99,91
1,42,0,29
1,42,99,89
1,36,111,0
1,36,0,29
1,42,0,0
1,42,66,31
1,42,0,29
1,40,127,31
1,42,89,0
1,42,0,29
1,40,0,0
1,42,74,31
1,42,0,29
1,40,51,1
1,40,0,29
1,36,102,1
1,42,124,0
1,42,0,29
1,36,0,0
1,36,89,31
1,42,69,0
1,42,0,29
1,36,0,0
1,40,127,31
1,42,99,0
1,42,0,29
1,40,0,0
1,42,99,31
1,42,0,29
1,42,99,31
1,36,111,0
1,36,0,29
1,42,0,0
1,42,66,31
1,42,0,29
1,40,127,31
1,42,89,0
1,42,0,29
1,40,0,0
1,42,74,31
1,42,0,29
1,40,51,1
1,40,0,29
1,36,102,1
1,42,99,0
1,42,0,29
1,36,0,0
1,36,89,31
1,42,69,0
1,42,0,29
1,36,0,0
1,40,127,31
1,42,99,0
1,42,0,29
1,40,0,0
1,42,99,31
1,42,0,29
1,42,99,31
1,36,111,0
1,36,0,29
1,42,0,0
1,42,66,31
1,42,0,29
1,40,127,31
1,42,89,0
1,42,0,29
1,40,0,0
1,42,74,31
1,42,0,29
1,40,60,1
1,40,0,29
1,36,102,1
1,42,124,0
1,42,0,29
1,36,0,0
1,36,89,31
1,42,69,0
1,42,0,29
1,36,0,0
1,40,127,31
1,42,99,0
1,42,0,29
1,40,0,0
1,42,99,31
1,42,0,29
1,42,99,31
1,36,111,0
1,36,0,29
1,42,0,0
1,42,66,31
1,42,0,29
1,40,127,31
1,42,89,0
1,42,0,29
1,40,0,0
1,42,74,31
1,42,0,29
1,40,48,1
1,40,0,29
1,36,102,1
1,42,99,0
1,42,0,29
1,36,0,0
1,36,89,31
1,42,69,0
1,42,0,29
1,36,0,0
1,40,127,31
1,42,99,0
1,42,0,29
1,40,0,0
1,42,99,31
1,42,0,29
1,42,99,31
1,36,111,0
1,36,0,29
1,42,0,0
1,42,66,31
1,42,0,29
1,40,127,31
1,42,89,0
1,42,0,29
1,40,0,0
1,42,74,31
1,42,0,29
1,40,55,1
1,40,0,29
1,36,102,1
1,42,99,0
1,42,0,29
1,36,0,0
1,36,89,31
1,42,69,0
1,42,0,29
1,36,0,0
1,40,127,31
1,42,99,0
1,42,0,29
1,40,0,0
1,42,99,31
1,42,0,29
1,42,99,31
1,36,111,0
1,36,0,29
1,42,0,0
1,42,66,31
1,42,0,29
1,40,127,31
1,42,89,0
1,42,0,29
1,40,0,0
1,42,74,31
1,42,0,29
1,40,51,1
1,40,0,29
1,36,102,1
1,42,124,0
1,42,0,29
1,36,0,0
1,36,89,31
1,42,69,0
1,42,0,29
1,36,0,0
1,40,127,31
1,42,99,0
1,42,0,29
1,40,0,0
1,42,99,31
1,42,0,29
1,42,99,31
1,36,111,0
1,36,0,29
1,42,0,0
1,42,66,31
1,42,0,29
1,40,127,31
1,42,89,0
1,42,0,29
1,40,0,0
1,42,74,31
1,42,0,29
1,40,49,1
1,40,0,29
1,36,102,1
1,42,124,0
1,42,0,29
1,36,0,0
1,36,89,31
1,42,69,0
1,42,0,29
1,36,0,0
1,40,127,31
1,42,99,0
1,42,0,29
1,40,0,0
1,42,99,31
1,42,0,29
1,42,99,31
1,36,111,0
1,36,0,29
1,42,0,0
1,42,66,31
1,42,0,29
1,40,127,31
1,42,89,0
1,42,0,29
1,40,0,0
1,42,74,31
1,42,0,29
1,40,51,1
1,40,0,29
1,36,102,1
1,42,124,0
1,42,0,29
1,36,0,0
1,36,89,31
1,42,69,0
1,42,0,29
1,36,0,0
1,40,127,0
1,40,0,29
1,42,99,0
1,36,111,0
1,36,0,29
1,42,0,0
1,42,66,31
1,42,0,29
1,40,127,31
1,42,89,0
1,42,0,29
1,40,0,0
1,42,74,31
1,42,0,29
1,40,51,1
1,40,0,29
1,36,102,1
1,42,99,0
1,42,0,29
1,36,0,0
1,36,89,31
1,42,69,0
1,42,0,29
1,36,0,0
1,40,127,31
1,42,99,0
1,42,0,29
1,40,0,0
1,42,99,31
1,42,0,29
1,42,99,31
1,36,111,0
1,36,0,29
1,42,0,0
1,42,66,31
1,42,0,29
1,40,127,31
1,42,89,0
1,42,0,29
1,40,0,0
1,42,74,31
1,42,0,29
1,40,51,1
1,40,0,29
1,36,102,1
1,42,124,0
1,42,0,29
1,36,0,0
1,36,89,31
1,42,69,0
1,42,0,29
1,36,0,0
1,40,127,31
1,42,99,0
1,42,0,29
1,40,0,0
1,42,99,31
1,42,0,29
1,42,99,31
1,36,111,0
1,36,0,29
1,42,0,0
1,42,66,31
1,42,0,29
1,40,127,31
1,42,89,0
1,42,0,29
1,40,0,0
1,42,74,31
1,42,0,29
1,40,51,1
1,40,0,29
1,36,102,1
1,42,124,0
1,42,0,29
1,36,0,0
1,36,89,31
1,42,69,0
1,42,0,29
1,36,0,0
1,40,127,31
1,42,99,0
1,42,0,29
1,40,0,0
1,42,99,31
1,42,0,29
1,42,99,31
1,36,111,0
1,36,0,29
1,42,0,0
1,42,66,31
1,42,0,29
1,40,127,31
1,42,89,0
1,42,0,29
1,40,0,0
1,42,74,31
1,42,0,29
1,40,51,1
1,40,0,29
1,36,102,1
1,42,99,0
1,42,0,29
1,36,0,0
1,36,89,31
1,42,69,0
1,42,0,29
1,36,0,0
1,40,127,31
1,42,99,0
1,42,0,29
1,40,0,0
1,42,99,31
1,42,0,29
1,42,99,31
1,36,111,0
1,36,0,29
1,42,0,0
1,42,66,31
1,42,0,29
1,40,127,31
1,42,89,0
1,42,0,29
1,40,0,0
1,42,74,31
1,42,0,29
1,40,51,1
1,40,0,29
1,36,102,1
1,42,99,0
1,42,0,29
1,36,0,0
1,36,89,31
1,42,69,0
1,42,0,29
1,36,0,0
1,40,127,31
1,42,99,0
1,42,0,29
1,40,0,0
1,42,99,31
1,42,0,29
1,42,99,31
1,36,111,0
1,36,0,29
1,42,0,0
1,42,66,31
1,42,0,29
1,40,127,31
1,42,89,0
1,42,0,29
1,40,0,0
1,42,74,31
1,42,0,29
1,40,51,1
1,40,0,29
1,36,102,1
1,42,99,0
1,42,0,29
1,36,0,0
1,36,89,31
1,42,69,0
1,42,0,29
1,36,0,0
1,40,127,31
1,42,99,0
1,42,0,29
1,40,0,0
1,42,99,31
1,42,0,29
1,42,99,31
1,36,111,0
1,36,0,29
1,42,0,0
1,42,66,31
1,42,0,29
1,40,127,31
1,42,89,0
1,42,0,29
1,40,0,0
1,42,74,31
1,42,0,29
1,40,51,1
1,40,0,29
1,36,102,1
1,42,99,0
1,42,0,29
1,36,0,0
1,36,89,31
1,42,69,0
1,42,0,29
1,36,0,0
1,40,127,31
1,42,99,0
1,42,0,29
1,40,0,0
1,42,99,31
1,42,0,29
1,42,99,31
1,36,111,0
1,36,0,29
1,42,0,0
1,42,66,31
1,42,0,29
1,40,127,31
1,42,89,0
1,42,0,29
1,40,0,0
1,42,74,31
1,42,0,29
1,40,51,1
1,40,0,29
1,36,102,1
1,42,99,0
1,42,0,29
1,36,0,0
1,36,89,31
1,42,69,0
1,42,0,29
1,36,0,0
1,40,127,31
1,42,99,0
1,42,0,29
1,40,0,0
1,42,99,31
1,42,0,29
1,42,99,31
1,36,111,0
1,36,0,29
1,42,0,0
1,42,66,31
1,42,0,29
1,40,127,31
1,42,89,0
1,42,0,29
1,40,0,0
1,42,74,31
1,42,0,29
1,40,51,1
1,40,0,29
1,36,102,1
1,42,99,0
1,42,0,29
1,36,0,0
1,36,89,31
1,42,69,0
1,42,0,29
1,36,0,0
1,40,127,31
1,42,99,0
1,42,0,29
1,40,0,0
1,42,99,31
1,42,0,29
1,42,99,31
1,36,111,0
1,36,0,29
1,42,0,0
1,42,66,31
1,42,0,29
1,40,127,31
1,42,89,0
1,42,0,29
1,40,0,0
1,42,74,31
1,42,0,29
1,40,51,1
1,40,0,29
1,36,102,1
1,42,99,0
1,42,0,29
1,36,0,0
1,36,89,31
1,42,69,0
1,42,0,29
1,36,0,0
1,40,127,31
1,42,99,0
1,42,0,29
1,40,0,0
1,42,99,31
1,42,0,29
1,42,99,31
1,36,111,0
1,36,0,29
1,42,0,0
1,42,66,31
1,42,0,29
1,40,127,31
1,42,89,0
1,42,0,29
1,40,0,0
1,42,74,31
1,42,0,29
1,40,51,1
1,40,0,29
1,36,102,1
1,42,99,0
1,42,0,29
1,36,0,0
1,36,89,31
1,42,69,0
1,42,0,29
1,36,0,0
1,40,127,31
1,42,99,0
1,42,0,29
1,40,0,0
1,42,99,31
1,42,0,29
1,42,99,31
1,36,111,0
1,36,0,29
1,42,0,0
1,42,66,31
1,42,0,29
1,40,127,31
1,42,89,0
1,42,0,29
1,40,0,0
1,42,74,31
1,42,0,29
1,40,51,1
1,40,0,29
1,36,102,1
1,42,124,0
1,42,0,29
1,36,0,0
1,36,89,31
1,42,69,0
1,42,0,29
1,36,0,0
1,40,127,31
1,42,99,0
1,42,0,29
1,40,0,0
1,42,99,31
1,42,0,29
1,42,99,31
1,36,111,0
1,36,0,29
1,42,0,0
1,42,66,31
1,42,0,29
1,40,127,31
1,42,89,0
1,42,0,29
1,40,0,0
1,42,74,31
1,42,0,29
1,40,51,1
1,40,0,29
1,36,102,1
1,42,99,0
1,42,0,29
1,36,0,0
1,36,89,31
1,42,69,0
1,42,0,29
1,36,0,0
1,40,127,31
1,42,99,0
1,42,0,29
1,40,0,0
1,42,99,31
1,42,0,29
1,42,99,31
1,36,111,0
1,36,0,29
1,42,0,0
1,42,66,31
1,42,0,29
1,40,127,31
1,42,89,0
1,42,0,29
1,40,0,0
1,42,74,31
1,42,0,29
1,40,51,1
1,40,0,29
1,36,102,1
1,42,99,0
1,42,0,29
1,36,0,0
1,36,89,31
1,42,69,0
1,42,0,29
1,36,0,0
1,40,127,31
1,42,99,0
1,42,0,29
1,40,0,0
1,42,99,31
1,42,0,29
1,42,99,31
1,36,111,0
1,36,0,29
1,42,0,0
1,42,66,31
1,42,0,29
1,40,127,31
1,42,89,0
1,42,0,29
1,40,0,0
1,42,74,31
1,42,0,29
1,40,51,1
1,40,0,29
1,36,102,1
1,42,99,0
1,42,0,29
1,36,0,0
1,36,89,31
1,42,69,0
1,42,0,29
1,36,0,0
1,40,127,31
1,42,99,0
1,42,0,29
1,40,0,0
1,42,99,31
1,42,0,29
1,42,99,31
1,36,111,0
1,36,0,29
1,42,0,0
1,42,66,31
1,42,0,29
1,40,127,31
1,42,89,0
1,42,0,29
1,40,0,0
1,42,74,31
1,42,0,29
1,40,51,1
1,40,0,29
1,36,102,1
1,42,99,0
1,42,0,29
1,36,0,0
1,36,89,31
1,42,69,0
1,42,0,29
1,36,0,0
1,40,127,31
1,42,99,0
1,42,0,29
1,40,0,0
1,42,99,31
1,42,0,29
1,59,111,31
1,36,89,0
1,36,0,58
1,59,0,0
1,59,60,60
1,37,120,0
1,37,0,60
1,59,0,0
1,59,60,60
1,36,89,0
1,36,0,29
1,59,0,0
1,36,96,31
1,36,0,29
1,37,120,31
1,59,60,0
1,59,0,29
1,37,0,0
1,36,108,91
1,59,60,0
1,59,0,29
1,36,0,0
1,37,120,91
1,59,60,0
1,59,0,29
1,37,0,0
1,36,96,91
1,59,60,0
1,59,0,29
1,36,0,0
1,36,89,31
1,36,0,29
1,37,124,31
1,59,60,0
1,59,0,29
1,37,0,0
1,36,102,91
1,59,60,0
1,59,0,29
1,36,0,0
1,37,120,91
1,59,60,0
1,59,0,29
1,37,0,0
1,36,89,91
1,59,60,0
1,59,0,29
1,36,0,0
1,36,84,31
1,36,0,29
1,37,120,31
1,59,70,0
1,59,0,29
1,37,0,0
1,36,81,91
1,59,60,0
1,59,0,29
1,36,0,31
1,37,120,60
1,59,70,0
1,59,0,29
1,37,0,0
1,36,77,91
1,59,60,0
1,59,0,29
1,36,0,0
1,36,79,31
1,36,0,29
1,37,126,31
1,59,70,0
1,59,0,29
1,37,0,0
1,36,99,91
1,59,60,0
1,59,0,29
1,36,0,0
1,37,120,91
1,59,70,0
1,59,0,29
1,37,0,0
1,59,60,91
1,36,89,0
1,36,0,29
1,59,0,0
1,36,64,31
1,36,0,29
1,37,120,31
1,59,70,0
1,59,0,29
1,37,0,0
1,36,89,91
1,59,60,0
1,59,0,29
1,36,0,0
1,37,120,91
1,59,70,0
1,59,0,29
1,37,0,0
1,36,77,91
1,59,60,0
1,59,0,29
1,36,0,0
1,36,79,31
1,36,0,29
1,37,120,31
1,59,70,0
1,59,0,29
1,37,0,0
1,36,111,91
1,59,60,0
1,59,0,29
1,36,0,0
1,37,120,91
1,59,70,0
1,59,0,29
1,37,0,0
1,36,81,91
1,59,60,0
1,59,0,29
1,36,0,0
1,36,79,31
1,36,0,29
1,37,120,31
1,59,70,0
1,59,0,29
1,37,0,0
1,36,89,91
1,59,60,0
1,59,0,29
1,36,0,0
1,59,70,91
1,37,124,0
1,37,0,29
1,59,0,0
1,59,60,91
1,36,102,0
1,36,0,29
1,59,0,0
1,36,84,31
1,36,0,29
1,37,127,31
1,59,70,0
1,59,0,29
1,37,0,0
1,36,81,91
1,59,60,0
1,59,0,29
1,36,0,0
1,37,120,91
1,59,70,0
1,59,0,29
1,37,0,0
1,36,86,91
1,59,60,0
1,59,0,29
1,36,0,0
1,36,74,31
1,36,0,29
1,37,127,31
1,59,70,0
1,59,0,29
1,37,0,0
1,36,102,91
1,59,60,0
1,59,0,29
1,36,0,0
1,59,70,91
1,37,120,0
1,37,0,29
1,59,0,0
1,36,79,91
1,59,60,0
1,59,0,29
1,36,0,0
1,36,79,31
1,36,0,29
1,37,120,31
1,59,70,0
1,59,0,29
1,37,0,0
1,36,111,91
1,59,60,0
1,59,0,29
1,36,0,0
1,37,120,91
1,59,60,0
1,59,0,29
1,37,0,0
1,36,72,91
1,59,50,0
1,59,0,29
1,36,0,0
1,36,66,31
1,36,0,29
1,37,120,31
1,59,70,0
1,59,0,29
1,37,0,0
1,36,102,91
1,59,60,0
1,59,0,29
1,36,0,0
1,37,120,91
1,59,60,0
1,59,0,29
1,37,0,0
1,36,77,91
1,59,50,0
1,59,0,29
1,36,0,0
1,36,61,31
1,36,0,29
1,37,120,31
1,59,60,0
1,59,0,29
1,37,0,0
1,36,102,91
1,59,70,0
1,59,0,29
1,36,0,0
1,37,120,91
1,59,60,0
1,59,0,29
1,37,0,0
1,36,84,91
1,59,70,0
1,59,0,29
1,36,0,0
1,36,72,31
1,36,0,29
1,59,70,31
1,37,120,0
1,37,0,29
1,59,0,0
1,42,127,91
1,36,111,0
1,36,0,27
1,42,0,0
1,42,66,31
1,42,0,29
1,40,127,31
1,42,89,0
1,42,0,29
1,40,0,0
1,42,74,31
1,42,0,29
1,40,51,1
1,40,0,29
1,36,102,1
1,42,99,0
1,42,0,29
1,36,0,0
1,36,89,31
1,42,69,0
1,42,0,29
1,36,0,0
1,40,127,31
1,42,99,0
1,42,0,29
1,40,0,0
1,42,99,31
1,42,0,29
1,42,99,31
1,36,111,0
1,36,0,29
1,42,0,0
1,42,66,31
1,42,0,29
1,40,127,31
1,42,89,0
1,42,0,29
1,40,0,0
1,42,74,31
1,42,0,29
1,40,51,1
1,40,0,29
1,36,102,1
1,42,99,0
1,42,0,29
1,36,0,0
1,36,89,31
1,42,69,0
1,42,0,29
1,36,0,0
1,40,127,31
1,42,99,0
1,42,0,29
1,40,0,0
1,42,99,31
1,42,0,29
1,42,99,31
1,36,111,0
1,36,0,29
1,42,0,0
1,42,66,31
1,42,0,29
1,40,127,31
1,42,89,0
1,42,0,29
1,40,0,0
1,42,74,31
1,42,0,29
1,40,51,1
1,40,0,29
1,36,102,1
1,42,99,0
1,42,0,29
1,36,0,0
1,36,89,31
1,42,69,0
1,42,0,29
1,36,0,0
1,40,127,31
1,42,99,0
1,42,0,29
1,40,0,0
1,42,99,31
1,42,0,29
1,42,99,31
1,36,111,0
1,36,0,29
1,42,0,0
1,42,66,31
1,42,0,29
1,40,127,31
1,42,89,0
