track,note,velocity,time
5,64,80,480
5,64,0,60
5,64,100,0
5,64,0,60
5,68,100,0
5,68,0,60
5,71,100,0
5,71,0,60
5,59,100,0
5,63,100,60
5,63,0,60
5,71,100,0
5,71,0,60
5,66,100,0
5,66,0,60
5,59,0,0
5,57,100,0
5,64,100,60
5,64,0,60
5,69,100,0
5,69,0,60
5,73,100,0
5,73,0,60
5,57,0,0
5,59,100,0
5,71,100,0
5,71,0,60
5,69,100,0
5,69,0,60
5,68,100,0
5,68,0,60
5,66,100,0
5,66,0,60
5,59,0,0
5,64,80,0
5,64,0,60
5,64,100,0
5,64,0,60
5,68,100,0
5,68,0,60
5,71,100,0
5,71,0,60
5,59,100,0
5,63,100,60
5,63,0,60
5,66,100,0
5,66,0,60
5,71,100,0
5,71,0,60
5,59,0,0
5,57,100,0
5,64,100,60
5,64,0,60
5,69,100,0
5,69,0,60
5,73,100,0
5,73,0,60
5,57,0,0
5,59,100,0
5,71,100,0
5,71,0,60
5,69,100,0
5,69,0,60
5,68,100,0
5,68,0,60
5,66,100,0
5,66,0,60
5,59,0,0
5,64,80,0
5,64,0,60
5,64,100,0
5,64,0,60
5,68,100,0
5,68,0,60
5,71,100,0
5,71,0,60
5,59,100,0
5,63,100,60
5,63,0,60
5,66,100,0
5,66,0,60
5,71,100,0
5,71,0,60
5,59,0,0
5,57,100,0
5,64,100,60
5,64,0,60
5,69,100,0
5,69,0,60
5,73,100,0
5,73,0,60
5,57,0,0
5,59,100,0
5,71,100,0
5,71,0,60
5,69,100,0
5,69,0,60
5,68,100,0
5,68,0,60
5,66,100,0
5,66,0,60
5,59,0,0
5,64,80,0
5,64,0,60
5,64,100,0
5,64,0,60
5,68,100,0
5,68,0,60
5,71,100,0
5,71,0,60
5,59,100,0
5,63,100,60
5,63,0,60
5,66,100,0
5,66,0,60
5,71,100,0
5,71,0,60
5,59,0,0
5,57,100,0
5,64,100,60
5,64,0,60
5,69,100,0
5,69,0,60
5,73,100,0
5,73,0,60
5,57,0,0
5,59,100,0
5,71,100,0
5,71,0,60
5,69,100,0
5,69,0,60
5,68,100,0
5,68,0,60
5,66,100,0
5,66,0,60
5,59,0,0
5,64,80,0
5,64,0,60
5,64,100,0
5,64,0,60
5,68,100,0
5,68,0,60
5,71,100,0
5,71,0,60
5,59,100,0
5,63,100,60
5,63,0,60
5,66,100,0
5,66,0,60
5,71,100,0
5,71,0,60
5,59,0,0
5,57,100,0
5,64,100,60
5,64,0,60
5,69,100,0
5,69,0,60
5,73,100,0
5,73,0,60
5,57,0,0
5,59,100,0
5,71,100,0
5,71,0,60
5,69,100,0
5,69,0,60
5,68,100,0
5,68,0,60
5,66,100,0
5,66,0,60
5,59,0,0
5,64,80,0
5,64,0,60
5,64,100,0
5,64,0,60
5,68,100,0
5,68,0,60
5,71,100,0
5,71,0,60
5,59,100,0
5,63,100,60
5,63,0,60
5,66,100,0
5,66,0,60
5,71,100,0
5,71,0,60
5,59,0,0
5,57,100,0
5,64,100,60
5,64,0,60
5,69,100,0
5,69,0,60
5,73,100,0
5,73,0,60
5,57,0,0
5,59,100,0
5,71,100,0
5,71,0,60
5,69,100,0
5,69,0,60
5,68,100,0
5,68,0,60
5,66,100,0
5,66,0,60
5,59,0,0
5,64,80,0
5,64,0,60
5,64,100,0
5,64,0,60
5,68,100,0
5,68,0,60
5,71,100,0
5,71,0,60
5,59,100,0
5,63,100,60
5,63,0,60
5,66,100,0
5,66,0,60
5,71,100,0
5,71,0,60
5,59,0,0
5,57,100,0
5,64,100,60
5,64,0,60
5,69,100,0
5,69,0,60
5,73,100,0
5,73,0,60
5,57,0,0
5,59,100,0
5,71,100,0
5,71,0,60
5,69,100,0
5,69,0,60
5,68,100,0
5,68,0,60
5,66,100,0
5,66,0,60
5,59,0,0
5,64,80,0
5,64,0,60
5,64,100,0
5,64,0,60
5,68,100,0
5,68,0,60
5,71,100,0
5,71,0,60
5,59,100,0
5,63,100,60
5,63,0,60
5,66,100,0
5,66,0,60
5,71,100,0
5,71,0,60
5,59,0,0
5,57,100,0
5,64,100,60
5,64,0,60
5,69,100,0
5,69,0,60
5,73,100,0
5,73,0,60
5,57,0,0
5,59,100,0
5,71,100,0
5,71,0,60
5,69,100,0
5,69,0,60
5,68,100,0
5,68,0,60
5,66,100,0
5,66,0,60
5,59,0,0
5,64,80,0
5,64,0,60
5,64,100,0
5,64,0,60
5,68,100,0
5,68,0,60
5,71,100,0
5,71,0,60
5,59,100,0
5,63,100,60
5,63,0,60
5,66,100,0
5,66,0,60
5,71,100,0
5,71,0,60
5,59,0,0
5,57,100,0
5,64,100,60
5,64,0,60
5,69,100,0
5,69,0,60
5,73,100,0
5,73,0,60
5,57,0,0
5,59,100,0
5,71,100,0
5,71,0,60
5,69,100,0
5,69,0,60
5,68,100,0
5,68,0,60
5,66,100,0
5,66,0,60
5,59,0,0
5,64,80,0
5,64,0,60
5,64,100,0
5,64,0,60
5,68,100,0
5,68,0,60
5,71,100,0
5,71,0,60
5,59,100,0
5,63,100,60
5,63,0,60
5,66,100,0
5,66,0,60
5,71,100,0
5,71,0,60
5,59,0,0
5,57,100,0
5,64,100,60
5,64,0,60
5,69,100,0
5,69,0,60
5,73,100,0
5,73,0,60
5,57,0,0
5,59,100,0
5,71,100,0
5,71,0,60
5,69,100,0
5,69,0,60
5,68,100,0
5,68,0,60
5,66,100,0
5,66,0,60
5,59,0,0
5,64,80,0
5,64,0,60
5,64,100,0
5,64,0,60
5,68,100,0
5,68,0,60
5,71,100,0
5,71,0,60
5,59,100,0
5,63,100,60
5,63,0,60
5,66,100,0
5,66,0,60
5,71,100,0
5,71,0,60
5,59,0,0
5,57,100,0
5,64,100,60
5,64,0,60
5,69,100,0
5,69,0,60
5,73,100,0
5,73,0,60
5,57,0,0
5,59,100,0
5,71,100,0
5,71,0,60
5,69,100,0
5,69,0,60
5,68,100,0
5,68,0,60
5,66,100,0
5,66,0,60
5,59,0,0
5,64,80,0
5,64,0,60
5,64,100,0
5,64,0,60
5,68,100,0
5,68,0,60
5,71,100,0
5,71,0,60
5,59,100,0
5,63,100,60
5,63,0,60
5,66,100,0
5,66,0,60
5,71,100,0
5,71,0,60
5,59,0,0
5,57,100,0
5,64,100,60
5,64,0,60
5,69,100,0
5,69,0,60
5,73,100,0
5,73,0,60
5,57,0,0
5,59,100,0
5,71,100,0
5,71,0,60
5,69,100,0
5,69,0,60
5,68,100,0
5,68,0,60
5,66,100,0
5,66,0,60
5,59,0,0
5,64,80,0
5,64,0,60
5,64,100,0
5,64,0,60
5,68,100,0
5,68,0,60
5,71,100,0
5,71,0,60
5,59,100,0
5,63,100,60
5,63,0,60
5,66,100,0
5,66,0,60
5,71,100,0
5,71,0,60
5,59,0,0
5,57,100,0
5,64,100,60
5,64,0,60
5,69,100,0
5,69,0,60
5,64,100,0
5,64,0,60
5,57,0,0
5,66,100,0
5,59,100,0
5,59,0,60
5,66,0,0
5,64,80,180
5,64,0,60
5,64,100,0
5,64,0,60
5,68,100,0
5,68,0,60
5,71,100,0
5,71,0,60
5,59,100,0
5,63,100,60
5,63,0,60
5,66,100,0
5,66,0,60
5,71,100,0
5,71,0,60
5,59,0,0
5,57,100,0
5,64,100,60
5,64,0,60
5,69,100,0
5,69,0,60
5,73,100,0
5,73,0,60
5,57,0,0
5,59,100,0
5,71,100,0
5,71,0,60
5,69,100,0
5,69,0,60
5,68,100,0
5,68,0,60
5,66,100,0
5,66,0,60
5,59,0,0
5,64,80,0
5,64,0,60
5,64,100,0
5,64,0,60
5,68,100,0
5,68,0,60
5,71,100,0
5,71,0,60
5,59,100,0
5,63,100,60
5,63,0,60
5,66,100,0
5,66,0,60
5,71,100,0
5,71,0,60
5,59,0,0
5,57,100,0
5,64,100,60
5,64,0,60
5,69,100,0
5,69,0,60
5,73,100,0
5,73,0,60
5,57,0,0
5,59,100,0
5,71,100,0
5,71,0,60
5,69,100,0
5,69,0,60
5,68,100,0
5,68,0,60
5,66,100,0
5,66,0,60
5,59,0,0
5,64,80,0
5,64,0,60
5,64,100,0
5,64,0,60
5,68,100,0
5,68,0,60
5,71,100,0
5,71,0,60
5,59,100,0
5,63,100,60
5,63,0,60
5,66,100,0
5,66,0,60
5,71,100,0
5,71,0,60
5,59,0,0
5,57,100,0
5,64,100,60
5,64,0,60
5,69,100,0
5,69,0,60
5,73,100,0
5,73,0,60
5,57,0,0
5,59,100,0
5,71,100,0
5,71,0,60
5,69,100,0
5,69,0,60
5,68,100,0
5,68,0,60
5,66,100,0
5,66,0,60
5,59,0,0
5,64,80,0
5,64,0,60
5,64,100,0
5,64,0,60
5,68,100,0
5,68,0,60
5,71,100,0
5,71,0,60
5,59,100,0
5,63,100,60
5,63,0,60
5,66,100,0
5,66,0,60
5,71,100,0
5,71,0,60
5,59,0,0
5,57,100,0
5,64,100,60
5,64,0,60
5,69,100,0
5,69,0,60
5,73,100,0
5,73,0,30
5,57,0,30
5,76,80,120
5,76,0,240
5,75,80,0
5,75,0,240
5,76,80,0
5,76,0,240
5,71,80,0
5,71,0,240
5,76,80,0
5,76,0,240
5,75,80,0
5,75,0,240
5,76,80,0
5,76,0,240
5,71,80,0
5,71,0,240
5,76,80,960
5,76,0,120
5,75,80,120
5,75,0,120
5,76,80,120
5,76,0,120
5,71,80,120
5,71,0,120
5,64,80,5880
5,64,0,60
5,64,100,0
5,64,0,60
5,68,100,0
5,68,0,60
5,71,100,0
5,71,0,60
5,59,100,0
5,63,100,60
5,63,0,60
5,66,100,0
5,66,0,60
5,71,100,0
5,71,0,60
5,59,0,0
5,57,100,0
5,64,100,60
5,64,0,60
5,69,100,0
5,69,0,60
5,73,100,0
5,73,0,60
5,57,0,0
5,59,100,0
5,71,100,0
5,71,0,60
5,69,100,0
5,69,0,60
5,68,100,0
5,68,0,60
5,66,100,0
5,66,0,60
5,59,0,0
5,64,80,0
5,64,0,60
5,64,100,0
5,64,0,60
5,68,100,0
5,68,0,60
5,71,100,0
5,71,0,60
5,59,100,0
5,63,100,60
5,63,0,60
5,66,100,0
5,66,0,60
5,71,100,0
5,71,0,60
5,59,0,0
5,57,100,0
5,64,100,60
5,64,0,60
5,69,100,0
5,69,0,60
5,73,100,0
5,73,0,60
5,57,0,0
5,59,100,0
5,71,100,0
5,71,0,60
5,69,100,0
5,69,0,60
5,68,100,0
5,68,0,60
5,66,100,0
5,66,0,60
5,59,0,0
5,64,80,0
5,64,0,60
5,64,100,0
5,64,0,60
5,68,100,0
5,68,0,60
5,71,100,0
5,71,0,60
5,59,100,0
5,63,100,60
5,63,0,60
5,66,100,0
5,66,0,60
5,71,100,0
5,71,0,60
5,59,0,0
5,57,100,0
5,64,100,60
5,64,0,60
5,69,100,0
5,69,0,60
5,73,100,0
5,73,0,60
5,57,0,0
5,59,100,0
5,71,100,0
5,71,0,60
5,69,100,0
5,69,0,60
5,68,100,0
5,68,0,60
5,66,100,0
5,66,0,60
5,59,0,0
5,64,80,0
5,64,0,60
5,64,100,0
5,64,0,60
5,68,100,0
5,68,0,60
5,71,100,0
5,71,0,60
5,59,100,0
5,63,100,60
5,63,0,60
5,66,100,0
5,66,0,60
5,71,100,0
5,71,0,60
5,59,0,0
5,57,100,0
5,64,100,60
5,64,0,60
5,69,100,0
5,69,0,60
5,73,100,0
5,73,0,60
5,57,0,0
5,59,100,0
5,71,100,0
5,71,0,60
5,69,100,0
5,69,0,60
5,68,100,0
5,68,0,60
5,66,100,0
5,66,0,60
5,59,0,0
5,64,80,0
5,64,0,60
5,64,100,0
5,64,0,60
5,68,100,0
5,68,0,60
5,71,100,0
5,71,0,60
5,59,100,0
5,63,100,60
5,63,0,60
5,66,100,0
5,66,0,60
5,71,100,0
5,71,0,60
5,59,0,0
5,57,100,0
5,64,100,60
5,64,0,60
5,69,100,0
5,69,0,60
5,73,100,0
5,73,0,60
5,57,0,0
5,59,100,0
5,71,100,0
5,71,0,60
5,69,100,0
5,69,0,60
5,68,100,0
5,68,0,60
5,66,100,0
5,66,0,60
5,59,0,0
5,64,80,0
5,64,0,60
5,64,100,0
5,64,0,60
5,68,100,0
5,68,0,60
5,71,100,0
5,71,0,60
5,59,100,0
5,63,100,60
5,63,0,60
5,66,100,0
5,66,0,60
5,71,100,0
5,71,0,60
5,59,0,0
5,57,100,0
5,64,100,60
5,64,0,60
5,69,100,0
5,69,0,60
5,73,100,0
5,73,0,60
5,57,0,0
5,59,100,0
5,71,100,0
5,71,0,60
5,69,100,0
5,69,0,60
5,68,100,0
5,68,0,60
5,66,100,0
5,66,0,60
5,59,0,0
5,64,80,0
5,64,0,60
5,64,100,0
5,64,0,60
5,68,100,0
5,68,0,60
5,71,100,0
5,71,0,60
5,59,100,0
5,63,100,60
5,63,0,60
5,66,100,0
5,66,0,60
5,71,100,0
5,71,0,60
5,59,0,0
5,57,100,0
5,64,100,60
5,64,0,60
5,69,100,0
5,69,0,60
5,73,100,0
5,73,0,60
5,57,0,0
5,59,100,0
5,71,100,0
5,71,0,60
5,69,100,0
5,69,0,60
5,68,100,0
5,68,0,60
5,66,100,0
5,66,0,60
5,59,0,0
5,64,80,0
5,64,0,60
5,64,100,0
5,64,0,60
5,68,100,0
5,68,0,60
5,71,100,0
5,71,0,60
5,59,100,0
5,63,100,60
5,63,0,60
5,66,100,0
5,66,0,60
5,71,100,0
5,71,0,60
5,59,0,0
5,57,100,0
5,64,100,60
5,64,0,60
5,69,100,0
5,69,0,60
5,73,100,0
5,73,0,60
5,57,0,0
5,59,100,0
5,71,100,0
5,71,0,60
5,69,100,0
5,69,0,60
5,68,100,0
5,68,0,60
5,66,100,0
5,66,0,60
5,59,0,0
5,64,80,0
5,64,0,60
5,64,100,0
5,64,0,60
5,68,100,0
5,68,0,60
5,71,100,0
5,71,0,60
5,59,100,0
5,63,100,60
5,63,0,60
5,66,100,0
5,66,0,60
5,71,100,0
5,71,0,60
5,59,0,0
5,57,100,0
5,64,100,60
5,64,0,60
5,69,100,0
5,69,0,60
5,73,100,0
5,73,0,60
5,57,0,0
5,59,100,0
5,71,100,0
5,71,0,60
5,69,100,0
5,69,0,60
5,68,100,0
5,68,0,60
5,66,100,0
5,66,0,60
5,59,0,0
5,64,80,0
5,64,0,60
5,64,100,0
5,64,0,60
5,68,100,0
5,68,0,60
5,71,100,0
5,71,0,60
5,59,100,0
5,63,100,60
5,63,0,60
5,66,100,0
5,66,0,60
5,71,100,0
5,71,0,60
5,59,0,0
5,57,100,0
5,64,100,60
5,64,0,60
5,69,100,0
5,69,0,60
5,73,100,0
5,73,0,60
5,57,0,0
5,59,100,0
5,71,100,0
5,71,0,60
5,69,100,0
5,69,0,60
5,68,100,0
5,68,0,60
5,66,100,0
5,66,0,60
5,59,0,0
5,64,80,0
5,64,0,60
5,64,100,0
5,64,0,60
5,68,100,0
5,68,0,60
5,71,100,0
5,71,0,60
5,59,100,0
5,63,100,60
5,63,0,60
5,66,100,0
5,66,0,60
5,71,100,0
5,71,0,60
5,59,0,0
5,57,100,0
5,64,100,60
5,64,0,60
5,69,100,0
5,69,0,60
5,73,100,0
5,73,0,60
5,57,0,0
5,59,100,0
5,71,100,0
5,71,0,60
5,69,100,0
5,69,0,60
5,68,100,0
5,68,0,60
5,66,100,0
5,66,0,60
5,59,0,0
5,64,80,0
5,64,0,60
5,64,100,0
5,64,0,60
5,68,100,0
5,68,0,60
5,71,100,0
5,71,0,60
5,59,100,0
5,63,100,60
5,63,0,60
5,66,100,0
5,66,0,60
5,71,100,0
5,71,0,60
5,59,0,0
5,57,100,0
5,64,100,60
5,64,0,60
5,69,100,0
5,69,0,60
5,73,100,0
5,73,0,60
5,57,0,0
5,59,100,0
5,71,100,0
5,71,0,60
5,69,100,0
5,69,0,60
5,68,100,0
5,68,0,60
5,66,100,0
5,66,0,60
5,59,0,0
5,59,100,0
5,64,100,0
5,64,0,240
5,59,0,0
6,64,100,480
6,64,0,14
