track,note,velocity,time
1,38,99,16
1,38,99,0
1,38,99,0
1,38,99,0
1,38,99,4
1,38,99,0
1,38,99,0
1,38,99,0
1,38,99,4
1,38,99,0
1,38,99,4
1,38,99,0
1,50,99,0
1,38,99,0
1,38,99,4
1,38,99,0
1,38,99,4
1,38,99,0
1,38,99,4
1,38,99,0
1,38,99,4
1,38,99,0
1,38,99,0
1,38,99,0
1,38,99,0
1,38,99,0
1,38,99,4
1,38,99,0
1,50,99,0
1,38,99,4
1,38,99,0
1,38,99,0
1,38,99,4
1,38,99,0
1,38,99,0
1,38,99,0
1,38,99,4
1,38,99,0
1,38,99,0
1,38,99,4
1,38,99,4
1,38,99,0
1,38,99,0
1,38,99,0
1,50,99,0
1,38,99,4
1,38,99,0
1,38,99,0
1,38,99,4
1,38,99,0
1,38,99,0
1,38,99,0
1,38,99,0
1,38,99,4
1,38,99,0
1,38,99,0
1,38,99,4
1,38,99,0
1,38,99,4
1,38,99,0
1,50,99,0
1,38,99,0
1,38,99,0
1,38,99,4
1,26,99,4
1,38,99,4
1,26,99,0
1,38,99,4
1,26,99,0
1,38,99,0
1,26,99,0
1,38,99,0
1,29,99,4
1,41,99,0
1,29,99,0
1,41,99,0
1,29,99,0
1,41,99,4
1,29,99,0
1,41,99,0
1,24,99,4
1,36,99,0
1,24,99,0
1,36,99,4
1,24,99,4
1,36,99,0
1,24,99,0
1,36,99,0
1,24,99,0
1,36,99,0
1,24,99,0
1,36,99,4
1,24,99,4
1,36,99,4
1,24,99,4
1,36,99,0
1,27,99,4
1,39,99,0
1,27,99,0
1,39,99,0
1,27,99,4
1,39,99,0
1,27,99,0
1,39,99,0
1,27,99,0
1,39,99,0
1,27,99,0
1,39,99,0
1,27,99,4
1,39,99,0
1,27,99,0
1,39,99,0
1,36,99,4
1,48,99,0
1,36,99,0
1,48,99,0
1,36,99,4
1,48,99,4
1,36,99,0
1,48,99,0
1,31,99,4
1,43,99,0
1,31,99,4
1,43,99,0
1,31,99,4
1,43,99,0
1,31,99,0
1,43,99,0
1,26,99,4
1,38,99,0
1,26,99,0
1,38,99,0
1,26,99,0
1,38,99,4
1,26,99,0
1,38,99,0
1,29,99,4
1,41,99,4
1,29,99,0
1,41,99,0
1,29,99,4
1,41,99,0
1,29,99,0
1,41,99,0
1,36,99,4
1,48,99,0
1,36,99,4
1,48,99,4
1,36,99,4
1,48,99,4
1,36,99,0
1,48,99,0
1,36,99,0
1,48,99,0
1,36,99,0
1,48,99,0
1,36,99,4
1,48,99,0
1,36,99,0
1,48,99,0
1,27,99,4
1,39,99,0
1,27,99,0
1,39,99,0
1,27,99,4
1,39,99,0
1,27,99,0
1,39,99,0
1,27,99,0
1,39,99,0
1,27,99,0
1,39,99,0
1,27,99,4
1,39,99,0
1,27,99,0
1,39,99,0
1,36,99,4
1,48,99,0
1,36,99,4
1,48,99,0
1,36,99,4
1,48,99,4
1,36,99,0
1,48,99,4
1,31,99,4
1,43,99,0
1,31,99,0
1,43,99,0
1,31,99,4
1,43,99,4
1,31,99,0
1,43,99,0
1,26,99,4
1,38,99,0
1,26,99,0
1,38,99,0
1,26,99,4
1,38,99,0
1,26,99,0
1,38,99,0
1,26,99,4
1,38,99,0
1,26,99,0
1,38,99,0
1,26,99,4
1,38,99,0
1,26,99,0
1,38,99,0
1,26,99,4
1,38,99,0
1,26,99,0
1,38,99,0
1,26,99,4
1,38,99,0
1,26,99,0
1,38,99,4
1,26,99,4
1,38,99,4
1,26,99,0
1,38,99,0
1,26,99,0
1,38,99,4
1,26,99,0
1,38,99,0
1,26,99,4
1,38,99,4
1,26,99,0
1,38,99,0
1,26,99,4
1,38,99,0
1,26,99,0
1,38,99,0
1,29,99,4
1,41,99,4
1,29,99,0
1,41,99,0
1,29,99,4
1,41,99,0
1,29,99,0
1,41,99,0
1,24,99,4
1,36,99,0
1,24,99,0
1,36,99,0
1,24,99,4
1,36,99,0
1,24,99,0
1,36,99,4
1,24,99,4
1,36,99,4
1,24,99,0
1,36,99,0
1,24,99,4
1,36,99,0
1,24,99,0
1,36,99,0
1,27,99,4
1,39,99,0
1,27,99,0
1,39,99,0
1,27,99,0
1,39,99,0
1,27,99,0
1,39,99,0
1,27,99,4
1,39,99,0
1,27,99,0
1,39,99,4
1,27,99,4
1,39,99,4
1,27,99,0
1,39,99,4
1,36,99,4
1,48,99,0
1,36,99,0
1,48,99,0
1,36,99,4
1,48,99,0
1,36,99,0
1,48,99,0
1,31,99,4
1,43,99,0
1,31,99,0
1,43,99,0
1,31,99,0
1,43,99,0
1,31,99,0
1,43,99,0
1,26,99,4
1,38,99,0
1,26,99,0
1,38,99,0
1,26,99,0
1,38,99,0
1,26,99,0
1,38,99,0
1,29,99,0
1,41,99,0
1,29,99,0
1,41,99,0
1,29,99,0
1,41,99,0
1,29,99,0
1,41,99,0
1,36,99,4
1,48,99,0
1,36,99,0
1,48,99,0
1,36,99,4
1,48,99,0
1,36,99,0
1,48,99,0
1,36,99,4
1,48,99,0
1,36,99,0
1,48,99,0
1,36,99,4
1,48,99,0
1,36,99,0
1,48,99,0
1,27,99,4
1,39,99,0
1,27,99,0
1,39,99,0
1,27,99,4
1,39,99,0
1,27,99,0
1,39,99,0
1,27,99,0
1,39,99,0
1,27,99,0
1,39,99,0
1,27,99,4
1,39,99,0
1,27,99,0
1,39,99,0
1,36,99,4
1,48,99,0
1,36,99,0
1,48,99,0
1,36,99,0
1,48,99,0
1,36,99,0
1,48,99,0
1,31,99,4
1,43,99,4
1,31,99,0
1,43,99,0
1,31,99,4
1,43,99,0
1,31,99,0
1,43,99,0
1,26,99,4
1,38,99,0
1,26,99,0
1,38,99,0
1,26,99,0
1,38,99,0
1,26,99,0
1,38,99,4
1,26,99,4
1,38,99,0
1,26,99,0
1,38,99,0
1,26,99,4
1,38,99,0
1,26,99,0
1,38,99,0
1,26,99,4
1,38,99,0
1,26,99,0
1,38,99,0
1,26,99,4
1,38,99,0
1,26,99,0
1,38,99,0
1,26,99,4
1,38,99,0
1,26,99,4
1,38,99,0
1,26,99,4
1,38,99,0
1,26,99,0
1,38,99,0
1,26,99,4
1,38,99,0
1,26,99,0
1,38,99,0
1,26,99,4
1,38,99,0
1,26,99,0
1,38,99,0
1,29,99,4
1,41,99,0
1,29,99,0
1,41,99,4
1,29,99,4
1,41,99,0
1,29,99,0
1,41,99,0
1,24,99,4
1,36,99,0
1,24,99,0
1,36,99,0
1,24,99,4
1,36,99,0
1,24,99,0
1,36,99,0
1,24,99,4
1,36,99,0
1,24,99,0
1,36,99,0
1,24,99,4
1,36,99,0
1,24,99,0
1,36,99,0
1,27,99,4
1,39,99,0
1,27,99,0
1,39,99,0
1,27,99,4
1,39,99,0
1,27,99,0
1,39,99,0
1,27,99,4
1,39,99,0
1,27,99,0
1,39,99,0
1,27,99,0
1,39,99,0
1,27,99,0
1,39,99,0
1,36,99,4
1,48,99,0
1,36,99,0
1,48,99,0
1,36,99,4
1,48,99,0
1,36,99,0
1,48,99,0
1,31,99,4
1,43,99,0
1,31,99,0
1,43,99,0
1,31,99,4
1,43,99,4
1,31,99,0
1,43,99,0
1,26,99,4
1,38,99,0
1,26,99,0
1,38,99,0
1,26,99,0
1,38,99,4
1,26,99,0
1,38,99,0
1,29,99,4
1,41,99,0
1,29,99,0
1,41,99,0
1,29,99,4
1,41,99,0
1,29,99,0
1,41,99,4
1,36,99,4
1,48,99,0
1,36,99,0
1,48,99,0
1,36,99,4
1,48,99,4
1,36,99,0
1,48,99,0
1,36,99,4
1,48,99,0
1,36,99,0
1,48,99,0
1,36,99,4
1,48,99,0
1,36,99,0
1,48,99,0
1,27,99,4
1,39,99,0
1,27,99,0
1,39,99,0
1,27,99,4
1,39,99,0
1,27,99,0
1,39,99,4
1,27,99,0
1,39,99,4
1,27,99,0
1,39,99,0
1,27,99,0
1,39,99,0
1,27,99,4
1,39,99,0
1,36,99,4
1,48,99,4
1,36,99,0
1,48,99,0
1,36,99,4
1,48,99,0
1,36,99,0
1,48,99,0
1,31,99,4
1,43,99,0
1,31,99,0
1,43,99,0
1,31,99,4
1,43,99,0
1,31,99,0
1,43,99,0
1,26,99,4
1,38,99,0
1,26,99,0
1,38,99,4
1,26,99,4
1,38,99,0
1,26,99,0
1,38,99,0
1,26,99,0
1,38,99,0
1,26,99,4
1,38,99,0
1,26,99,4
1,38,99,0
1,26,99,0
1,38,99,0
1,26,99,4
1,38,99,0
1,26,99,0
1,38,99,4
1,26,99,0
1,38,99,0
1,26,99,0
1,38,99,0
1,26,99,4
1,38,99,0
1,26,99,0
1,38,99,0
1,26,99,4
1,38,99,0
1,26,99,0
1,38,99,0
1,26,99,8
1,38,99,0
1,26,99,4
1,38,99,0
1,26,99,4
1,38,99,0
1,26,99,4
1,38,99,0
1,29,99,4
1,41,99,0
1,29,99,0
1,41,99,0
1,29,99,0
1,41,99,0
1,29,99,0
1,41,99,0
1,24,99,4
1,36,99,0
1,24,99,0
1,36,99,0
1,24,99,0
1,36,99,0
1,24,99,0
1,36,99,0
1,24,99,4
1,36,99,0
1,24,99,0
1,36,99,4
1,24,99,4
1,36,99,0
1,24,99,4
1,36,99,0
1,27,99,4
1,39,99,0
1,27,99,0
1,39,99,4
1,27,99,4
1,39,99,0
1,27,99,0
1,39,99,4
1,27,99,4
1,39,99,0
1,27,99,0
1,39,99,0
1,27,99,0
1,39,99,0
1,27,99,0
1,39,99,4
1,36,99,4
1,48,99,0
1,36,99,4
1,48,99,0
1,36,99,4
1,48,99,0
1,36,99,0
1,48,99,4
1,31,99,4
1,43,99,0
1,31,99,4
1,43,99,0
1,31,99,4
1,43,99,4
1,31,99,0
1,43,99,0
1,26,99,4
1,38,99,0
1,26,99,0
1,38,99,0
1,26,99,4
1,38,99,0
1,26,99,0
1,38,99,4
1,29,99,4
1,41,99,0
1,29,99,4
1,41,99,0
1,29,99,4
1,41,99,0
1,29,99,4
1,41,99,0
1,36,99,4
1,48,99,0
1,36,99,0
1,48,99,0
1,36,99,4
1,48,99,0
1,36,99,0
1,48,99,0
1,36,99,4
1,48,99,0
1,36,99,0
1,48,99,0
1,36,99,4
1,48,99,0
1,36,99,4
1,48,99,0
1,27,99,4
1,39,99,0
1,27,99,0
1,39,99,0
1,27,99,0
1,39,99,0
1,27,99,0
1,39,99,0
1,27,99,4
1,39,99,0
1,27,99,0
1,39,99,0
1,27,99,0
1,39,99,0
1,27,99,0
1,39,99,0
1,27,109,4
1,39,109,0
1,27,109,0
1,39,109,0
1,27,109,4
1,39,109,0
1,27,109,0
1,39,109,0
1,34,109,4
1,46,109,0
1,34,109,0
1,46,109,0
1,34,109,4
1,46,109,0
1,34,109,0
1,46,109,0
1,29,109,4
1,41,109,0
1,29,109,0
1,41,109,0
1,29,109,0
1,41,109,0
1,29,109,0
1,41,109,0
1,29,109,4
1,41,109,0
1,29,109,0
1,41,109,4
1,29,109,0
1,41,109,4
1,29,109,0
1,41,109,0
1,29,109,4
1,41,109,0
1,29,109,0
1,41,109,0
1,29,109,0
1,41,109,4
1,29,109,0
1,41,109,0
1,29,109,0
1,41,109,4
1,29,109,0
1,41,109,0
1,29,109,4
1,41,109,0
1,29,109,0
1,41,109,0
1,29,119,4
1,29,119,0
1,29,119,0
1,29,119,0
1,29,119,4
1,29,119,0
1,29,119,0
1,41,119,0
1,29,119,0
1,29,119,0
1,29,119,0
1,29,119,0
1,29,119,4
1,29,119,0
1,29,119,0
1,29,119,0
1,29,119,4
1,29,119,0
1,29,119,0
1,29,119,0
1,29,119,0
1,29,119,0
1,29,119,4
1,41,119,0
1,29,119,4
1,29,119,4
1,29,119,0
1,29,119,4
1,29,119,0
1,29,119,0
1,29,119,0
1,29,119,0
1,29,119,4
1,29,119,0
1,29,119,0
1,29,119,0
1,29,119,4
1,29,119,4
1,29,119,0
1,41,119,0
1,29,119,4
1,29,119,0
1,29,119,0
1,29,119,0
1,29,119,4
1,29,119,4
1,29,119,0
1,29,119,0
1,29,119,4
1,29,119,4
1,29,119,0
1,29,119,0
1,29,119,0
1,29,119,0
1,29,119,0
1,41,119,0
1,29,119,0
1,29,119,0
1,29,119,0
1,29,119,4
1,29,119,4
1,29,119,0
1,29,119,0
1,29,119,0
1,29,119,4
1,29,119,0
1,29,119,0
1,29,119,0
1,29,119,4
1,29,119,0
1,29,119,0
1,41,119,0
1,29,119,4
1,29,119,0
1,29,119,0
1,29,119,4
1,29,119,4
1,29,119,0
1,29,119,0
1,29,119,0
1,33,119,8
1,45,119,16
1,33,119,16
1,45,119,16
1,33,119,16
1,33,119,16
1,33,119,20
1,33,119,16
1,33,119,16
1,33,119,16
1,33,119,16
1,33,119,16
1,33,119,20
1,33,119,16
1,33,119,16
1,33,119,16
1,26,99,20
1,38,99,0
1,26,99,0
1,38,99,0
1,26,99,4
1,38,99,0
1,26,99,0
1,38,99,4
1,29,99,4
1,41,99,0
1,29,99,0
1,41,99,0
1,29,99,4
1,41,99,0
1,29,99,0
1,41,99,0
1,24,99,4
1,36,99,0
1,24,99,0
1,36,99,0
1,24,99,4
1,36,99,4
1,24,99,0
1,36,99,0
1,24,99,0
1,36,99,0
1,24,99,0
1,36,99,0
1,24,99,4
1,36,99,4
1,24,99,0
1,36,99,0
1,27,99,4
1,39,99,0
1,27,99,0
1,39,99,0
1,27,99,0
1,39,99,0
1,27,99,0
1,39,99,0
1,27,99,0
1,39,99,0
1,27,99,0
1,39,99,0
1,27,99,4
1,39,99,0
1,27,99,0
1,39,99,0
1,36,99,4
1,48,99,0
1,36,99,4
1,48,99,0
1,36,99,4
1,48,99,4
1,36,99,0
1,48,99,4
1,31,99,0
1,43,99,0
1,31,99,0
1,43,99,0
1,31,99,4
1,43,99,0
1,31,99,0
1,43,99,0
1,26,99,4
1,38,99,0
1,26,99,0
1,38,99,0
1,26,99,4
1,38,99,0
1,26,99,0
1,38,99,0
1,29,99,4
1,41,99,0
1,29,99,0
1,41,99,0
1,29,99,0
1,41,99,4
1,29,99,0
1,41,99,0
1,36,99,4
1,48,99,0
1,36,99,4
1,48,99,0
1,36,99,4
1,48,99,0
1,36,99,0
1,48,99,4
1,36,99,0
1,48,99,0
1,36,99,0
1,48,99,0
1,36,99,4
1,48,99,0
1,36,99,0
1,48,99,4
1,27,99,4
1,39,99,0
1,27,99,0
1,39,99,0
1,27,99,4
1,39,99,0
1,27,99,0
1,39,99,0
1,27,99,4
1,39,99,0
1,27,99,0
1,39,99,0
1,27,99,0
1,39,99,0
1,27,99,0
1,39,99,0
1,36,99,8
1,48,99,0
1,36,99,0
1,48,99,0
1,36,99,4
1,48,99,0
1,36,99,0
1,48,99,4
1,31,99,4
1,43,99,0
1,31,99,0
1,43,99,0
1,31,99,4
1,43,99,0
1,31,99,4
1,43,99,0
1,26,99,4
1,38,99,4
1,26,99,0
1,38,99,0
1,26,99,4
1,38,99,4
1,26,99,0
1,38,99,4
1,26,99,0
1,38,99,4
1,26,99,0
1,38,99,0
1,26,99,0
1,38,99,4
1,26,99,0
1,38,99,0
1,26,99,4
1,38,99,0
1,26,99,0
1,38,99,4
1,26,99,4
1,38,99,0
1,26,99,0
1,38,99,0
1,26,99,4
1,38,99,0
1,26,99,0
1,38,99,0
1,26,99,4
1,38,99,0
1,26,99,0
1,38,99,0
1,26,99,4
1,38,99,0
1,26,99,0
1,38,99,0
1,26,99,4
1,38,99,0
1,26,99,0
1,38,99,0
1,29,99,4
1,41,99,0
1,29,99,0
1,41,99,4
1,29,99,4
1,41,99,0
1,29,99,0
1,41,99,0
1,24,99,4
1,36,99,0
1,24,99,0
1,36,99,4
1,24,99,4
1,36,99,0
1,24,99,0
1,36,99,0
1,24,99,0
1,36,99,0
1,24,99,4
1,36,99,0
1,24,99,4
1,36,99,4
1,24,99,0
1,36,99,0
1,27,99,4
1,39,99,4
1,27,99,0
1,39,99,0
1,27,99,4
1,39,99,0
1,27,99,0
1,39,99,4
