track,note,velocity,time
0,69,51,189
0,40,84,1
0,40,109,1
0,35,40,0
0,69,0,15
0,40,0,12
0,40,0,0
0,69,25,0
0,28,109,1
0,28,84,0
0,69,0,16
0,35,0,7
0,28,0,4
0,28,0,0
0,42,70,0
0,69,34,0
0,28,109,1
0,28,84,0
0,42,0,6
0,69,0,5
0,28,0,16
0,28,0,1
0,42,70,0
0,69,25,0
0,28,84,1
0,28,109,0
0,42,0,12
0,69,0,5
0,28,0,10
0,28,0,0
0,40,109,1
0,40,84,0
0,35,40,1
0,69,45,0
0,69,0,12
0,40,0,14
0,40,0,1
0,28,84,0
0,69,27,0
0,28,109,1
0,69,0,18
0,35,0,3
0,28,0,6
0,28,0,0
0,42,70,1
0,40,84,0
0,40,109,1
0,69,34,0
0,42,0,8
0,69,0,3
0,69,23,15
0,40,0,1
0,40,0,0
0,42,70,1
0,40,109,0
0,40,84,0
0,42,0,10
0,69,0,6
0,40,0,10
0,40,0,1
0,28,84,0
0,28,109,0
0,69,45,1
0,35,40,0
0,69,0,16
0,28,0,12
0,28,0,0
0,69,21,1
0,40,109,0
0,40,84,0
0,69,0,19
0,35,0,3
0,40,0,4
0,40,0,1
0,42,70,0
0,28,84,0
0,69,35,1
0,28,109,0
0,42,0,7
0,69,0,8
0,28,0,11
0,28,0,1
0,42,70,2
0,28,84,0
0,69,23,0
0,28,109,0
0,42,0,12
0,69,0,6
0,28,0,8
0,28,0,1
0,69,40,0
0,35,40,0
0,28,109,1
0,28,84,0
0,69,0,12
0,28,0,14
0,28,0,1
0,69,46,0
0,28,109,1
0,28,84,0
0,69,0,19
0,69,29,7
0,28,0,2
0,28,0,0
0,42,70,0
0,35,0,1
0,28,84,0
0,28,109,0
0,42,0,8
0,69,0,4
0,28,0,15
0,28,0,1
0,40,109,0
0,40,84,0
0,42,70,1
0,69,38,0
0,42,0,12
0,69,0,7
0,40,0,7
0,40,0,0
0,69,34,1
0,28,109,0
0,28,84,0
0,35,40,0
0,69,0,13
0,28,0,15
0,28,0,1
0,28,109,0
0,69,26,1
0,28,84,0
0,69,0,16
0,35,0,4
0,28,0,6
0,28,0,0
0,42,70,1
0,69,22,0
0,40,84,0
0,40,109,1
0,42,0,10
0,69,0,4
0,40,0,12
0,42,70,0
0,40,0,1
0,69,31,0
0,28,109,1
0,28,84,1
0,42,0,9
0,69,0,8
0,69,40,8
0,28,0,1
0,28,0,0
0,35,40,1
0,28,84,0
0,28,109,0
0,69,0,12
0,28,0,15
0,28,0,1
0,40,84,1
0,69,55,0
0,40,109,0
0,69,0,22
0,35,0,2
0,40,0,3
0,40,0,1
0,28,109,0
0,69,32,0
0,28,84,0
0,42,70,0
0,42,0,10
0,69,0,4
0,28,0,13
0,28,0,1
0,42,70,0
0,69,23,0
0,28,109,1
0,28,84,0
0,42,0,12
0,69,0,5
0,28,0,10
0,28,0,0
0,28,120,1
0,28,95,0
0,69,31,1
0,35,40,0
0,28,0,12
0,28,0,0
0,40,38,1
0,69,0,1
0,40,63,0
0,40,0,12
0,40,0,1
0,28,109,1
0,69,31,0
0,28,84,1
0,69,0,17
0,35,0,5
0,28,0,4
0,28,0,0
0,42,70,1
0,28,84,0
0,28,109,0
0,69,31,1
0,42,0,8
0,69,0,3
0,28,0,15
0,28,0,1
0,28,84,0
0,28,109,1
0,42,70,1
0,69,31,0
0,42,0,10
0,69,0,8
0,28,0,8
0,28,0,0
0,35,40,0
0,40,84,1
0,69,55,0
0,40,109,0
0,69,0,12
0,40,0,15
0,40,0,0
0,69,31,0
0,28,84,1
0,28,109,1
0,69,0,16
0,35,0,8
0,28,0,3
0,28,0,0
0,40,84,1
0,42,70,0
0,40,109,0
0,69,31,1
0,42,0,9
0,69,0,6
0,40,0,11
0,40,0,1
0,42,70,0
0,40,109,1
0,69,47,0
0,40,84,0
0,42,0,12
0,69,0,7
0,69,31,8
0,28,127,0
0,40,127,0
0,40,0,1
0,40,0,0
0,35,40,1
0,40,109,0
0,40,84,0
0,40,127,3
0,69,0,9
0,40,0,14
0,40,0,1
0,28,109,1
0,28,84,0
0,69,49,1
0,35,0,16
0,69,0,1
0,28,0,9
0,28,0,0
0,42,70,0
0,28,84,1
0,69,31,0
0,28,109,0
0,42,0,9
0,69,0,8
0,28,0,10
0,28,0,1
0,69,31,0
0,28,84,1
0,28,109,0
0,42,70,1
0,42,0,14
0,69,0,5
0,28,0,7
0,28,0,0
0,35,40,0
0,40,84,1
0,40,109,0
0,69,53,1
0,69,0,16
0,40,0,10
0,40,0,0
0,69,31,1
0,28,84,0
0,28,109,1
0,69,0,17
0,35,0,6
0,28,0,4
0,28,0,0
0,69,31,0
0,40,109,1
0,42,70,0
0,40,84,0
0,42,0,9
0,69,0,5
0,40,0,13
0,40,0,0
0,69,55,1
0,40,84,0
0,42,70,0
0,40,109,1
0,42,0,12
0,69,0,3
0,40,0,12
0,40,0,0
0,35,40,0
0,69,31,1
0,28,84,0
0,28,109,0
0,69,0,16
0,28,0,11
0,28,0,0
0,69,31,0
0,40,84,1
0,40,109,1
0,69,0,16
0,35,0,2
0,42,70,8
0,40,0,1
0,40,0,0
0,69,31,1
0,28,109,0
0,28,84,0
0,42,0,8
0,69,0,5
0,28,0,13
0,28,0,1
0,42,70,0
0,28,84,1
0,69,51,1
0,28,109,0
0,42,0,10
0,69,0,10
0,28,0,7
0,28,0,0
0,69,31,1
0,28,109,0
0,28,84,0
0,35,40,1
0,69,0,19
0,28,0,6
0,28,0,1
0,28,84,0
0,69,31,0
0,28,109,1
0,69,0,19
0,35,0,3
0,69,31,4
0,28,0,2
0,28,0,0
0,42,70,1
0,28,84,0
0,28,109,0
0,42,0,8
0,69,0,7
0,28,0,12
0,28,0,0
0,40,84,1
0,40,109,0
0,69,54,0
0,42,70,1
0,42,0,10
0,69,0,8
0,40,0,8
0,40,0,0
0,35,40,1
0,28,84,1
0,28,109,0
0,69,31,0
0,69,0,15
0,28,0,12
0,28,0,0
0,28,84,1
0,69,56,1
0,28,109,0
0,69,0,15
0,35,0,4
0,28,0,7
0,28,0,1
0,40,109,0
0,69,31,0
0,42,70,0
0,40,84,1
0,42,0,8
0,69,0,5
0,40,0,13
0,40,0,0
0,28,84,1
0,69,31,0
0,42,70,2
0,28,109,0
0,42,0,10
0,69,0,6
0,69,31,9
0,28,0,1
0,28,0,1
0,35,40,0
0,28,109,0
0,28,84,1
0,69,0,14
0,28,0,12
0,28,0,0
0,40,84,1
0,69,31,0
0,40,109,1
0,69,0,18
0,35,0,7
0,40,0,3
0,40,0,0
0,28,109,0
0,28,84,1
0,42,70,1
0,69,47,0
0,42,0,10
0,69,0,5
0,28,0,10
0,28,0,1
0,28,84,0
0,28,109,1
0,42,70,0
0,69,31,1
0,42,0,11
0,69,0,9
0,35,40,5
0,28,0,1
0,28,0,0
0,69,31,0
0,28,109,1
0,28,84,0
0,69,0,17
0,28,0,10
0,28,0,1
0,69,56,0
0,28,84,1
0,28,109,0
0,69,0,17
0,35,0,2
0,28,0,8
0,28,0,0
0,28,99,1
0,28,124,0
0,69,31,1
0,42,70,0
0,42,0,12
0,40,38,1
0,40,63,0
0,28,0,1
0,28,0,0
0,69,0,1
0,42,70,10
0,40,0,1
0,40,0,0
0,28,84,1
0,69,31,1
0,28,109,1
0,42,0,11
0,69,0,7
0,28,0,8
0,28,0,0
0,40,84,1
0,40,109,0
0,35,40,0
0,69,53,1
0,69,0,18
0,28,109,9
0,28,84,0
0,69,31,1
0,40,0,5
0,40,0,0
0,35,0,1
0,69,0,13
0,28,0,8
0,28,0,1
0,40,84,0
0,42,71,0
0,69,31,0
0,40,109,1
0,42,0,10
0,69,0,6
0,40,0,10
0,40,0,0
0,40,109,1
0,40,84,0
0,42,70,0
0,69,53,1
0,42,0,9
0,69,0,8
0,28,0,8
0,40,0,0
0,40,0,2
0,40,0,0
0,67,80,1
0,76,80,0
0,64,80,0
0,69,50,0
0,55,80,0
0,28,109,1
0,35,40,0
0,28,84,0
0,69,0,17
0,28,0,9
0,28,0,0
0,28,84,1
0,28,109,1
0,69,31,1
0,40,0,13
0,69,0,4
0,35,0,5
0,28,0,4
0,28,0,0
0,42,70,0
0,40,84,1
0,69,31,0
0,40,109,0
0,42,0,6
0,69,0,6
0,40,0,15
0,40,0,0
0,69,49,0
0,28,84,1
0,42,70,1
0,28,109,0
0,42,0,12
0,69,0,4
0,28,0,11
0,28,0,0
0,35,40,0
0,40,109,1
0,40,84,0
0,69,38,1
0,69,0,12
0,40,0,14
0,40,0,0
0,40,84,1
0,69,48,0
0,40,109,1
0,69,0,18
0,35,0,1
0,40,0,8
0,40,0,0
0,42,70,1
0,28,109,0
0,69,31,0
0,28,84,0
0,42,0,8
0,69,0,3
0,42,70,15
0,28,0,1
0,28,0,0
0,40,109,1
0,40,84,0
0,69,31,1
0,42,0,8
0,69,0,11
0,64,0,8
0,76,0,0
0,55,0,0
0,67,0,0
0,40,0,0
0,40,0,1
0,31,109,0
0,69,31,0
0,55,80,0
0,67,80,0
0,62,80,0
0,74,80,0
0,31,84,1
0,35,40,0
0,69,0,14
0,31,0,12
0,31,0,0
0,43,84,1
0,43,109,0
0,69,53,1
0,69,0,20
0,35,0,2
0,43,0,4
0,43,0,1
0,31,109,1
0,31,84,0
0,42,70,0
0,69,31,1
0,42,0,8
0,69,0,7
0,42,70,10
0,31,0,1
0,31,0,0
0,69,48,0
0,31,84,1
0,31,109,0
0,42,0,10
0,69,0,9
0,31,0,8
0,69,31,0
0,31,0,1
0,35,40,0
0,43,84,1
0,43,109,0
0,69,0,11
0,43,0,16
0,43,0,0
0,31,109,1
0,31,84,0
0,69,51,1
0,69,0,21
0,31,0,4
0,35,0,2
0,31,0,0
0,69,31,0
0,43,84,1
0,43,109,0
0,42,70,0
0,42,0,9
0,69,0,4
0,43,0,14
0,43,0,0
0,42,70,1
0,69,31,0
0,43,84,0
0,43,109,1
0,42,0,12
0,69,0,6
0,55,0,8
0,74,0,1
0,67,0,0
0,43,0,0
0,62,0,0
0,43,0,0
0,26,84,0
0,69,51,0
0,74,80,1
0,62,80,0
0,66,80,0
0,26,109,0
0,35,40,0
0,54,80,0
0,69,0,11
0,26,0,16
0,26,0,0
0,26,109,1
0,26,84,0
0,69,31,1
0,69,0,17
0,35,0,4
0,26,0,5
0,42,70,0
0,26,0,1
0,38,109,1
0,38,84,0
0,69,31,0
0,42,0,9
0,69,0,6
0,42,70,10
0,38,0,1
0,38,0,1
0,26,109,0
0,26,84,1
0,69,50,1
0,42,0,8
0,69,0,11
0,26,0,7
0,26,0,1
0,69,31,0
0,38,84,1
0,35,40,0
0,38,109,0
0,69,0,13
0,38,0,13
0,38,0,1
0,38,109,0
0,38,84,1
0,69,50,0
0,69,0,23
0,35,0,2
0,38,0,1
0,38,0,2
0,69,31,1
0,26,109,0
0,26,84,0
0,42,70,0
0,42,0,11
0,69,0,4
0,26,0,12
0,26,0,0
0,42,70,0
0,38,109,0
0,38,84,1
0,69,31,0
0,42,0,11
0,69,0,8
0,38,0,7
0,38,0,1
0,26,84,0
0,35,40,0
0,26,109,1
0,69,54,1
0,69,0,14
0,26,0,13
0,26,0,0
0,69,31,0
0,38,109,1
0,38,84,0
0,69,0,17
0,35,0,3
0,38,0,6
0,38,0,1
0,26,109,1
0,69,31,0
0,42,70,1
0,26,84,0
0,42,0,9
0,69,0,1
0,42,70,15
0,26,0,1
0,26,0,0
0,26,109,1
0,26,84,0
0,69,31,0
0,42,0,8
0,69,0,9
0,26,0,11
0,26,0,1
0,35,40,0
0,69,31,0
0,38,109,1
0,38,84,0
0,69,0,11
0,38,0,15
0,38,0,0
0,26,84,1
0,26,109,0
0,69,31,0
0,69,0,18
0,35,0,7
0,26,0,2
0,26,0,0
0,69,52,3
0,42,70,0
0,38,109,0
0,38,84,0
0,42,0,11
0,69,0,3
0,38,0,12
0,38,0,1
0,38,109,0
0,42,70,0
0,69,31,0
0,38,84,0
0,42,0,12
0,69,0,6
0,66,0,9
0,54,0,0
0,62,0,0
0,38,0,1
0,38,0,0
0,74,0,0
0,69,80,1
0,72,80,0
0,57,80,0
0,60,80,0
0,29,84,1
0,29,109,0
0,69,31,0
0,35,40,0
0,69,0,13
0,29,0,13
0,29,0,1
0,69,53,0
0,29,109,1
0,29,84,0
0,35,0,16
0,69,0,1
0,29,0,9
0,29,0,0
0,69,31,1
0,41,84,1
0,42,70,0
0,41,109,1
0,42,0,9
0,69,0,5
0,69,31,11
0,41,0,1
0,41,0,0
0,42,70,0
0,29,84,1
0,29,109,0
0,42,0,14
0,69,0,6
0,29,0,7
0,29,0,1
0,69,52,0
0,35,40,1
0,41,84,0
0,41,109,1
0,69,0,15
0,69,31,10
0,41,0,1
0,41,0,0
0,41,109,1
0,41,84,0
0,69,0,16
0,35,0,8
0,41,0,3
0,69,31,0
0,41,0,1
0,29,84,1
0,29,109,0
0,42,70,1
0,42,0,11
0,69,0,1
0,29,0,14
0,29,0,0
0,41,84,1
0,42,70,0
0,41,109,0
0,69,31,1
0,42,0,11
0,69,0,6
0,41,0,9
0,35,40,0
0,41,0,1
0,69,50,1
0,29,84,0
0,29,109,0
0,69,0,15
0,29,0,12
0,29,0,0
0,41,109,1
0,41,84,0
0,69,31,1
0,69,0,18
0,35,0,0
0,41,0,8
0,41,0,1
0,29,84,0
0,69,31,1
0,42,70,0
0,29,109,0
0,42,0,9
0,69,0,4
0,29,0,14
0,29,0,0
0,69,46,0
0,29,84,1
0,42,70,0
0,29,109,0
0,42,0,12
0,69,0,9
0,29,0,6
0,29,0,0
0,69,31,1
0,41,84,0
0,35,40,1
0,41,109,0
0,69,0,18
0,41,0,9
0,41,0,0
0,29,84,1
0,29,109,0
0,69,50,1
0,69,0,21
0,35,0,0
0,29,0,5
0,29,0,0
0,42,70,0
0,69,31,1
0,41,84,0
0,41,109,1
0,42,0,7
0,69,0,8
0,69,31,11
0,41,0,1
0,41,0,0
0,42,70,0
0,41,84,1
0,41,109,0
0,42,0,9
0,69,0,8
0,41,0,10
0,41,0,0
0,60,0,1
0,72,0,0
0,26,84,0
0,26,109,1
0,69,80,0
0,77,80,0
0,65,80,0
0,57,80,0
0,35,40,1
0,69,48,0
0,69,0,14
0,26,0,12
0,26,0,0
0,26,84,1
0,26,109,0
0,69,31,0
0,69,0,16
0,35,0,5
0,26,0,6
0,26,0,0
0,38,84,1
0,69,31,0
0,42,70,1
0,38,109,0
0,42,0,9
0,69,0,4
0,38,0,14
0,38,0,0
0,26,84,1
0,26,109,0
0,42,70,0
0,69,31,1
0,42,0,10
0,69,0,9
0,26,0,7
0,26,0,0
0,69,31,0
0,38,84,2
0,38,109,0
0,35,40,1
0,69,0,13
0,38,0,13
0,38,0,0
0,38,109,1
0,38,84,0
0,69,52,1
0,69,0,19
0,35,0,6
0,38,0,1
0,38,0,1
0,42,70,0
0,26,84,0
0,26,109,1
0,69,31,0
0,42,0,8
0,69,0,7
0,42,70,11
0,26,0,1
0,26,0,0
0,38,109,1
0,38,84,0
0,69,38,1
0,42,0,10
0,69,0,10
0,38,0,6
0,38,0,0
0,77,0,1
0,57,0,0
0,69,0,0
0,65,0,0
0,33,84,0
0,35,40,0
0,64,80,1
0,57,80,0
0,33,109,0
0,69,54,0
0,69,80,0
0,76,80,0
0,69,0,17
0,33,0,10
0,33,0,0
0,45,84,1
0,45,109,0
0,69,31,1
0,69,0,18
0,35,0,1
0,45,0,7
0,45,0,0
0,69,31,0
0,33,84,1
0,42,70,1
0,33,109,0
0,42,0,12
0,69,0,0
0,33,0,14
0,33,0,1
0,33,84,0
0,33,109,1
0,69,31,1
0,42,70,0
0,42,0,15
0,69,0,4
0,33,0,7
0,33,0,0
0,35,40,0
0,69,31,1
0,45,84,0
0,45,109,1
0,69,0,16
0,45,0,10
0,45,0,1
0,69,31,0
0,33,84,0
0,33,109,1
0,35,0,5
0,69,0,13
0,33,0,8
0,33,0,1
