track,note,velocity,time
1,66,111,384
1,64,83,4
1,57,111,4
1,59,75,4
1,57,107,4
1,64,123,384
1,66,71,4
1,64,103,4
1,61,87,4
1,59,55,4
1,57,75,4
1,52,99,4
1,54,67,4
1,57,103,4
1,62,115,768
1,64,91,4
1,62,79,4
1,59,95,4
1,55,111,4
1,57,59,4
1,55,107,4
1,66,111,384
1,64,83,4
1,57,111,4
1,59,75,4
1,57,107,4
1,64,123,384
1,66,71,4
1,64,103,4
1,61,87,4
1,59,55,4
1,57,75,4
1,52,99,4
1,54,67,4
1,57,103,4
1,62,115,768
1,64,91,4
1,62,79,4
1,59,95,4
1,55,111,4
1,57,59,4
1,55,107,4
2,48,107,0
2,48,79,0
2,36,59,0
2,46,115,0
2,48,67,0
2,43,103,0
2,48,55,0
2,48,95,0
2,48,99,0
2,50,67,0
2,48,103,0
2,41,67,0
2,41,103,0
2,36,91,0
2,48,67,0
2,48,107,0
2,43,59,0
2,48,115,0
2,48,87,0
2,50,107,0
2,48,51,0
2,36,111,0
2,48,55,0
2,48,87,0
2,50,51,0
2,48,115,0
2,43,91,0
2,46,103,0
2,36,75,0
2,48,111,0
2,48,67,0
2,36,107,0
2,45,47,0
2,45,111,0
2,43,55,0
2,38,107,0
2,45,67,0
2,45,99,0
2,33,59,0
2,45,115,0
2,45,91,0
2,45,79,0
2,43,103,0
2,45,55,0
2,47,103,0
2,45,75,0
2,40,87,0
2,45,119,0
2,45,67,0
2,45,107,0
2,33,67,0
2,45,99,0
2,45,71,0
2,38,107,0
2,45,43,0
2,43,63,0
2,33,103,0
2,45,55,0
2,45,95,0
2,47,103,0
2,45,55,0
2,45,103,0
2,33,103,0
2,45,111,0
2,45,51,0
2,43,95,0
2,38,87,0
2,45,107,0
2,45,67,0
2,33,91,0
2,45,107,0
2,45,43,0
2,45,107,0
2,43,75,0
2,45,115,0
2,47,91,0
2,45,107,0
2,40,59,0
2,45,99,0
2,45,63,0
2,45,107,0
2,33,59,0
2,45,107,0
2,45,87,0
2,38,67,0
2,45,107,0
2,43,95,0
2,33,75,0
2,45,107,0
2,45,51,0
2,47,83,0
2,45,103,0
2,45,55,0
2,33,99,0
2,45,63,0
2,45,55,0
2,36,107,0
2,43,71,0
2,45,95,0
2,40,75,0
2,45,99,0
2,45,55,0
2,45,95,0
2,47,91,0
2,45,59,0
2,38,83,0
2,38,103,0
2,33,87,0
2,45,59,0
2,45,115,0
2,40,79,0
2,45,71,0
2,45,111,0
2,47,83,0
2,45,95,0
2,33,55,0
2,45,103,0
2,45,63,0
2,47,91,0
2,45,107,0
2,40,83,0
2,43,55,0
2,33,111,0
2,45,55,0
2,45,115,0
2,33,59,0
2,45,79,0
2,45,99,0
2,33,67,0
2,43,95,0
2,45,99,0
2,33,67,0
2,45,103,0
2,45,91,0
2,45,51,0
2,47,91,0
2,45,75,0
2,38,111,0
2,38,75,0
2,33,95,0
2,45,119,0
2,45,83,0
2,40,107,0
2,45,67,0
2,45,95,0
2,47,55,0
2,45,91,0
2,33,107,0
2,45,63,0
2,45,103,0
2,47,75,0
2,45,111,0
2,40,59,0
2,43,71,0
2,33,103,0
2,45,91,0
2,45,75,0
2,33,107,0
2,43,75,0
2,43,119,0
2,41,55,0
2,36,99,0
2,43,79,0
2,43,71,0
2,31,111,0
2,43,83,0
2,43,115,0
2,43,99,0
2,41,119,0
2,43,75,0
2,45,111,0
2,43,63,0
2,38,99,0
2,43,67,0
2,43,99,0
2,43,95,0
2,31,95,0
2,43,67,0
2,43,99,0
2,36,79,0
2,43,91,0
2,41,111,0
2,31,95,0
2,43,83,0
2,43,59,0
2,45,95,0
2,43,91,0
2,43,55,0
2,31,111,0
2,43,55,0
2,43,111,0
2,41,103,0
2,36,67,0
2,43,107,0
2,43,71,0
2,31,107,0
2,43,83,0
2,43,111,0
2,43,83,0
2,41,99,0
2,43,107,0
2,45,75,0
2,43,87,0
2,36,111,0
2,43,107,0
2,43,71,0
2,43,103,0
2,31,63,0
2,43,71,0
2,43,119,0
2,38,99,0
2,41,95,0
2,43,63,0
2,31,107,0
2,43,103,0
2,43,91,0
2,41,99,0
2,43,115,0
2,43,87,0
2,43,91,0
2,45,75,0
2,45,115,0
2,45,83,0
2,33,107,0
2,45,71,0
2,45,83,96
2,45,99,0
2,45,87,0
2,33,67,0
2,45,99,0
2,45,103,96
2,45,83,0
2,45,95,0
2,33,91,0
2,45,67,0
2,45,107,0
2,45,99,0
2,33,63,0
2,45,103,0
2,45,79,96
2,45,87,0
2,45,107,0
2,33,83,0
2,45,75,0
2,45,95,96
2,45,91,0
2,45,71,0
2,33,107,0
2,45,67,0
2,45,99,0
2,45,107,0
2,33,83,0
2,45,63,0
2,45,103,96
2,45,79,0
2,45,95,0
2,33,71,0
2,45,91,0
2,45,103,96
2,45,67,0
2,45,107,0
2,33,107,0
2,45,71,0
2,45,107,0
2,45,75,0
2,33,83,0
2,45,91,0
2,45,55,96
2,45,111,0
2,45,71,0
2,33,115,0
2,45,83,0
2,45,59,96
2,45,115,0
2,45,99,0
2,33,103,0
2,45,63,0
2,45,103,0
2,45,79,0
2,33,111,0
2,45,75,0
2,45,83,96
2,45,99,0
2,45,79,0
2,33,87,0
2,45,99,0
2,45,51,96
2,45,95,0
2,45,107,0
2,33,63,0
2,45,107,0
2,45,67,0
2,45,99,0
2,33,103,0
2,45,91,0
2,45,79,96
2,45,95,0
2,45,111,0
2,33,99,0
2,45,87,0
2,45,95,96
2,45,47,0
2,45,99,0
2,33,91,0
2,45,95,0
2,45,95,0
2,45,87,0
2,33,111,0
2,45,67,0
2,45,103,96
2,45,115,0
2,45,95,0
2,33,51,0
2,45,111,0
2,45,63,96
2,45,103,0
2,45,79,0
2,33,55,0
2,45,87,0
2,45,103,0
2,45,83,0
2,33,103,0
2,45,87,0
2,45,95,96
2,45,107,0
2,45,51,0
2,33,75,0
2,45,103,0
2,45,119,96
2,45,63,0
2,45,99,0
2,33,119,0
2,43,63,0
2,43,91,0
2,43,103,0
2,31,91,0
2,43,51,0
2,43,95,96
2,43,103,0
2,43,43,0
2,31,103,0
2,43,115,0
2,43,87,96
2,43,71,0
2,43,87,0
2,31,107,0
2,43,79,0
2,43,95,0
2,43,59,0
2,31,103,0
2,43,83,0
2,43,63,96
2,43,99,0
2,43,79,0
2,31,51,0
2,43,67,0
2,43,111,96
2,43,71,0
2,43,111,0
2,31,67,0
2,43,91,0
2,43,95,0
2,43,67,0
2,31,83,0
2,43,95,0
2,43,87,96
2,43,47,0
2,43,107,0
2,31,59,0
2,43,107,0
2,43,103,96
2,43,67,0
2,43,103,0
2,31,79,0
2,43,79,0
2,43,103,0
2,43,107,0
2,31,87,0
2,43,91,0
2,43,51,96
2,43,99,0
2,43,67,0
2,31,87,0
2,43,115,0
2,43,47,96
2,43,87,0
2,43,71,0
2,31,91,0
2,48,107,0
2,48,87,0
2,48,47,0
2,36,95,0
2,48,83,0
2,48,103,96
2,48,87,0
2,48,71,0
2,36,95,0
2,48,111,0
2,48,71,96
2,48,75,0
2,48,107,0
2,36,83,0
2,48,99,0
2,48,55,0
2,48,87,0
2,36,95,0
2,48,79,0
2,48,75,96
2,48,59,0
2,48,103,0
2,36,67,0
2,48,95,0
2,48,107,96
2,48,63,0
2,48,107,0
2,36,79,0
2,48,111,0
2,48,63,0
2,48,95,0
2,36,75,0
2,48,99,0
2,48,103,96
2,48,63,0
2,48,87,0
2,36,95,0
2,48,87,0
2,48,111,96
2,48,71,0
2,48,99,0
2,36,103,0
2,48,99,0
2,48,47,0
2,48,99,0
2,36,59,0
2,48,95,0
2,48,91,96
2,48,91,0
2,48,63,0
2,36,71,0
2,48,111,0
2,48,87,96
2,48,59,0
2,48,111,0
2,36,79,0
2,45,47,0
2,45,111,0
2,43,55,0
2,38,107,0
2,45,67,0
2,45,99,0
2,33,59,0
2,45,115,0
2,45,91,0
2,45,79,0
2,43,103,0
2,45,55,0
2,47,103,0
2,45,75,0
2,40,87,0
2,45,119,0
2,45,67,0
2,45,107,0
2,33,67,0
2,45,99,0
2,45,71,0
2,38,107,0
2,45,43,0
2,43,63,0
2,33,103,0
2,45,55,0
2,45,95,0
2,47,103,0
2,45,55,0
2,45,103,0
2,33,103,0
2,45,111,0
2,45,51,0
2,43,95,0
2,38,87,0
2,45,107,0
2,45,67,0
2,33,91,0
2,45,107,0
2,45,43,0
2,45,107,0
2,43,75,0
2,45,115,0
2,47,91,0
2,45,107,0
2,40,59,0
2,45,99,0
2,45,63,0
2,45,107,0
2,33,59,0
2,45,107,0
2,45,87,0
2,38,67,0
2,45,107,0
2,43,95,0
2,33,75,0
2,45,107,0
2,45,51,0
2,47,83,0
2,45,103,0
2,45,55,0
2,33,99,0
2,45,63,0
2,45,55,0
2,36,107,0
2,43,71,0
2,45,95,0
2,40,75,0
2,45,99,0
2,45,55,0
2,45,95,0
2,47,91,0
2,45,59,0
2,38,83,0
2,38,103,0
2,33,87,0
2,45,59,0
2,45,115,0
2,40,79,0
2,45,71,0
2,45,111,0
2,47,83,0
2,45,95,0
2,33,55,0
2,45,103,0
2,45,63,0
2,47,91,0
2,45,107,0
2,40,83,0
2,43,55,0
2,33,111,0
2,45,55,0
2,45,115,0
2,33,59,0
2,45,79,0
2,45,99,0
2,33,67,0
2,43,95,0
2,45,99,0
2,33,67,0
2,45,103,0
2,45,91,0
2,45,51,0
2,47,91,0
2,45,75,0
2,38,111,0
2,38,75,0
2,33,95,0
2,45,119,0
2,45,83,0
2,40,107,0
2,45,67,0
2,45,95,0
2,47,55,0
2,45,91,0
2,33,107,0
2,45,63,0
2,45,103,0
2,47,75,0
2,45,111,0
2,40,59,0
2,43,71,0
2,33,103,0
2,45,91,0
2,45,75,0
2,33,107,0
2,43,75,0
2,43,119,0
2,41,55,0
2,36,99,0
2,43,79,0
2,43,71,0
2,31,111,0
2,43,83,0
2,43,115,0
2,43,99,0
2,41,119,0
2,43,75,0
2,45,111,0
2,43,63,0
2,38,99,0
2,43,67,0
2,43,99,0
2,43,95,0
2,31,95,0
2,43,67,0
2,43,99,0
2,36,79,0
2,43,91,0
2,41,111,0
2,31,95,0
2,43,83,0
2,43,59,0
2,45,95,0
2,43,91,0
2,43,55,0
2,31,111,0
2,43,55,0
2,43,111,0
2,41,103,0
2,36,67,0
2,43,107,0
2,43,71,0
2,31,107,0
2,43,83,0
2,43,111,0
2,43,83,0
2,41,99,0
2,43,107,0
2,45,75,0
2,43,87,0
2,36,111,0
2,43,107,0
2,43,71,0
2,43,103,0
2,31,63,0
2,43,71,0
2,43,119,0
2,38,99,0
2,41,95,0
2,43,63,0
2,31,107,0
2,43,103,0
2,43,91,0
2,41,99,0
2,43,115,0
2,43,87,0
2,43,91,0
2,45,75,0
2,45,115,0
2,45,83,0
2,33,107,0
2,45,71,0
2,45,83,96
2,45,99,0
2,45,87,0
2,33,67,0
2,45,99,0
2,45,103,96
2,45,83,0
2,45,95,0
2,33,91,0
2,45,67,0
2,45,107,0
2,45,99,0
2,33,63,0
2,45,103,0
2,45,79,96
2,45,87,0
2,45,107,0
2,33,83,0
2,45,75,0
2,45,95,96
2,45,91,0
2,45,71,0
2,33,107,0
2,45,67,0
2,45,99,0
2,45,107,0
2,33,83,0
2,45,63,0
2,45,103,96
2,45,79,0
2,45,95,0
2,33,71,0
2,45,91,0
2,45,103,96
2,45,67,0
2,45,107,0
2,33,107,0
2,45,71,0
2,45,107,0
2,45,75,0
2,33,83,0
2,45,91,0
2,45,55,96
2,45,111,0
2,45,71,0
2,33,115,0
2,45,83,0
2,45,59,96
2,45,115,0
2,45,99,0
2,33,103,0
2,45,63,0
2,45,103,0
2,45,79,0
2,33,111,0
2,45,75,0
2,45,83,96
2,45,99,0
2,45,79,0
2,33,87,0
2,45,99,0
2,45,51,96
2,45,95,0
2,45,107,0
2,33,63,0
2,45,107,0
2,45,67,0
2,45,99,0
2,33,103,0
2,45,91,0
2,45,79,96
2,45,95,0
2,45,111,0
2,33,99,0
2,45,87,0
2,45,95,96
2,45,47,0
2,45,99,0
2,33,91,0
2,45,95,0
2,45,95,0
2,45,87,0
2,33,111,0
2,45,67,0
2,45,103,96
2,45,115,0
2,45,95,0
2,33,51,0
2,45,111,0
2,45,63,96
2,45,103,0
2,45,79,0
2,33,55,0
2,45,87,0
2,45,103,0
2,45,83,0
2,33,103,0
2,45,87,0
2,45,95,96
2,45,107,0
2,45,51,0
2,33,75,0
2,45,103,0
2,45,119,96
2,45,63,0
2,45,99,0
2,33,119,0
2,43,63,0
2,43,91,0
2,43,103,0
2,31,91,0
2,43,51,0
2,43,95,96
2,43,103,0
2,43,43,0
2,31,103,0
2,43,115,0
2,43,87,96
2,43,71,0
2,43,87,0
2,31,107,0
2,43,79,0
2,43,95,0
2,43,59,0
2,31,103,0
2,43,83,0
2,43,63,96
2,43,99,0
2,43,79,0
2,31,51,0
2,43,67,0
2,43,111,96
2,43,71,0
2,43,111,0
2,31,67,0
2,43,91,0
2,43,95,0
2,43,67,0
2,31,83,0
2,43,95,0
2,43,87,96
2,43,47,0
2,43,107,0
2,31,59,0
2,43,107,0
2,43,103,96
2,43,67,0
2,43,103,0
2,31,79,0
2,43,79,0
2,43,103,0
2,43,107,0
2,31,87,0
2,43,91,0
2,43,51,96
2,43,99,0
2,43,67,0
2,31,87,0
2,43,115,0
2,43,47,96
2,43,87,0
2,43,71,0
2,31,91,0
2,48,107,0
2,48,87,0
2,48,47,0
2,36,95,0
2,48,83,0
2,48,103,96
2,48,87,0
2,48,71,0
2,36,95,0
2,48,111,0
2,48,71,96
2,48,75,0
2,48,107,0
2,36,83,0
2,48,99,0
2,48,55,0
2,48,87,0
2,36,95,0
2,48,79,0
2,48,75,96
2,48,59,0
2,48,103,0
2,36,67,0
2,48,95,0
2,48,107,96
2,48,63,0
2,48,107,0
2,36,79,0
2,48,111,0
2,48,63,0
2,48,95,0
2,36,75,0
2,48,99,0
2,48,103,96
2,48,63,0
2,48,87,0
2,36,95,0
2,48,87,0
2,48,111,96
2,48,71,0
2,48,99,0
2,36,103,0
2,48,99,0
2,48,47,0
2,48,99,0
2,36,59,0
2,48,95,0
2,48,91,96
2,48,91,0
2,48,63,0
2,36,71,0
2,48,111,0
2,48,87,96
2,48,59,0
2,48,111,0
2,36,79,0
3,45,47,0
3,45,91,0
3,45,111,0
3,45,55,0
3,45,99,0
3,45,103,0
3,57,59,0
3,45,103,0
3,45,91,0
3,45,59,0
3,45,99,0
3,45,75,0
3,45,51,0
3,45,115,0
3,45,71,0
3,45,103,0
3,45,107,0
3,45,63,0
3,45,103,0
3,57,115,0
3,45,103,0
3,45,103,0
3,45,59,0
3,45,107,0
3,43,55,0
3,43,107,0
3,43,59,0
3,43,111,0
3,43,83,0
3,43,99,0
3,55,107,0
3,43,63,0
3,43,87,0
3,43,111,0
3,43,63,0
3,43,79,0
3,43,111,0
3,43,79,0
3,43,39,0
3,46,103,0
3,50,47,0
3,48,119,0
3,48,83,0
3,48,103,0
3,48,75,0
3,48,99,0
3,36,111,0
3,48,59,0
3,36,107,0
3,48,87,0
3,48,103,0
3,48,71,0
3,48,103,0
3,36,115,0
3,48,67,0
3,45,111,0
3,45,111,0
3,45,83,0
3,45,99,0
3,45,111,0
3,33,71,0
3,45,111,0
3,33,79,0
3,45,115,0
3,45,67,0
3,45,107,0
3,45,119,0
3,45,71,0
3,45,115,0
3,43,87,0
3,43,115,0
3,43,75,0
3,43,111,0
3,43,95,0
3,45,59,384
3,43,119,0
3,40,63,0
3,38,107,0
3,36,103,0
3,48,99,0
3,45,47,0
3,45,91,0
3,45,111,0
3,45,55,0
3,45,99,0
3,45,103,0
3,57,59,0
3,45,103,0
3,45,91,0
3,45,59,0
3,45,99,0
3,45,75,0
3,45,51,0
3,45,115,0
3,45,71,0
3,45,103,0
3,45,107,0
3,45,63,0
3,45,103,0
3,57,115,0
3,45,103,0
3,45,103,0
