track,note,velocity,time
1,29,98,2304
1,29,0,172
1,33,72,20
1,33,0,184
1,36,102,8
1,36,0,180
1,38,86,12
1,38,0,126
1,36,64,2
1,29,98,64
1,36,0,4
1,33,72,188
1,29,0,4
1,33,0,184
1,36,102,4
1,36,0,182
1,38,106,10
1,38,0,112
1,36,79,16
1,36,0,46
1,29,110,18
1,33,83,192
1,29,0,4
1,33,0,180
1,36,102,8
1,36,0,184
1,38,102,8
1,38,0,118
1,36,79,10
1,36,0,46
1,29,102,18
1,33,79,192
1,29,0,2
1,36,106,190
1,33,0,4
1,36,0,184
1,38,110,4
1,38,0,112
1,36,79,16
1,36,0,54
1,34,110,10
1,34,0,172
1,38,72,20
1,38,0,184
1,41,106,8
1,41,0,180
1,43,106,12
1,43,0,126
1,41,72,2
1,34,98,64
1,41,0,4
1,38,72,188
1,34,0,4
1,38,0,184
1,41,102,4
1,41,0,182
1,43,98,10
1,43,0,112
1,41,79,16
1,41,0,46
1,29,94,18
1,33,102,192
1,29,0,4
1,33,0,180
1,36,83,8
1,36,0,184
1,38,110,8
1,38,0,118
1,36,79,10
1,36,0,56
1,29,102,8
1,33,79,192
1,29,0,2
1,36,94,190
1,33,0,4
1,36,0,184
1,38,102,4
1,38,0,112
1,36,72,16
1,36,0,54
1,36,102,10
1,40,79,192
1,36,0,2
1,43,102,190
1,40,0,4
1,43,0,184
1,45,94,4
1,45,0,112
1,43,79,16
1,43,0,54
1,34,98,10
1,38,79,192
1,34,0,2
1,41,94,190
1,38,0,4
1,41,0,184
1,43,94,4
1,43,0,112
1,41,68,16
1,41,0,54
1,41,98,10
1,41,0,64
1,29,98,1472
1,29,0,172
1,33,72,20
1,33,0,184
1,36,102,8
1,36,0,180
1,38,86,12
1,38,0,126
1,36,64,2
1,29,98,64
1,36,0,4
1,33,72,188
1,29,0,4
1,33,0,184
1,36,102,4
1,36,0,182
1,38,106,10
1,38,0,112
1,36,79,16
1,36,0,46
1,29,110,18
1,33,83,192
1,29,0,4
1,33,0,180
1,36,102,8
1,36,0,184
1,38,102,8
1,38,0,118
1,36,79,10
1,36,0,46
1,29,102,18
1,33,79,192
1,29,0,2
1,36,106,190
1,33,0,4
1,36,0,184
1,38,110,4
1,38,0,112
1,36,79,16
1,36,0,54
1,34,110,10
1,34,0,172
1,38,72,20
1,38,0,184
1,41,106,8
1,41,0,180
1,43,106,12
1,43,0,126
1,41,72,2
1,34,98,64
1,41,0,4
1,38,72,188
1,34,0,4
1,38,0,184
1,41,102,4
1,41,0,182
1,43,98,10
1,43,0,112
1,41,79,16
1,41,0,46
1,29,94,18
1,33,102,192
1,29,0,4
1,33,0,180
1,36,83,8
1,36,0,184
1,38,110,8
1,38,0,118
1,36,79,10
1,36,0,56
1,29,102,8
1,33,79,192
1,29,0,2
1,36,94,190
1,33,0,4
1,36,0,184
1,38,102,4
1,38,0,112
1,36,72,16
1,36,0,54
1,41,64,10
1,41,0,108
1,41,91,660
1,41,0,72
1,41,91,696
1,41,0,84
1,41,91,300
1,41,0,84
1,29,98,1068
1,29,0,172
1,33,72,20
1,33,0,184
1,36,102,8
1,36,0,180
1,38,86,12
1,38,0,126
1,36,64,2
1,29,98,64
1,36,0,4
1,33,72,188
1,29,0,4
1,33,0,184
1,36,102,4
1,36,0,182
1,38,106,10
1,38,0,112
1,36,79,16
1,36,0,46
1,29,110,18
1,33,83,192
1,29,0,4
1,33,0,180
1,36,102,8
1,36,0,184
1,38,102,8
1,38,0,118
1,36,79,10
1,36,0,46
1,29,102,18
1,33,79,192
1,29,0,2
1,36,106,190
1,33,0,4
1,36,0,184
1,38,110,4
1,38,0,112
1,36,79,16
1,36,0,54
1,34,110,10
1,34,0,172
1,38,72,20
1,38,0,184
1,41,106,8
1,41,0,180
1,43,106,12
1,43,0,126
1,41,72,2
1,34,98,64
1,41,0,4
1,38,72,188
1,34,0,4
1,38,0,184
1,41,102,4
1,41,0,182
1,43,98,10
1,43,0,112
1,41,79,16
1,41,0,46
1,29,94,18
1,33,102,192
1,29,0,4
1,33,0,180
1,36,83,8
1,36,0,184
1,38,110,8
1,38,0,118
1,36,79,10
1,36,0,56
1,29,102,8
1,33,79,192
1,29,0,2
1,36,94,190
1,33,0,4
1,36,0,184
1,38,102,4
1,38,0,112
1,36,72,16
1,36,0,54
1,36,102,10
1,40,79,192
1,36,0,2
1,43,102,190
1,40,0,4
1,43,0,184
1,45,94,4
1,45,0,112
1,43,79,16
1,43,0,54
1,34,98,10
1,38,79,192
1,34,0,2
1,41,94,190
1,38,0,4
1,41,0,184
1,43,94,4
1,43,0,112
1,41,68,16
1,41,0,54
1,41,81,10
1,41,0,64
1,29,98,1472
1,29,0,172
1,33,72,20
1,33,0,184
1,36,102,8
1,36,0,180
1,38,86,12
1,38,0,126
1,36,64,2
1,29,98,64
1,36,0,4
1,33,72,188
1,29,0,4
1,33,0,184
1,36,102,4
1,36,0,182
1,38,106,10
1,38,0,112
1,36,79,16
1,36,0,46
1,29,110,18
1,33,83,192
1,29,0,4
1,33,0,180
1,36,102,8
1,36,0,184
1,38,102,8
1,38,0,118
1,36,79,10
1,36,0,46
1,29,102,18
1,33,79,192
1,29,0,2
1,36,106,190
1,33,0,4
1,36,0,184
1,38,110,4
1,38,0,112
1,36,79,16
1,36,0,54
1,34,110,10
1,34,0,172
1,38,72,20
1,38,0,184
1,41,106,8
1,41,0,180
1,43,106,12
1,43,0,126
1,41,72,2
1,34,98,64
1,41,0,4
1,38,72,188
1,34,0,4
1,38,0,184
1,41,102,4
1,41,0,182
1,43,98,10
1,43,0,112
1,41,79,16
1,41,0,46
1,29,94,18
1,33,102,192
1,29,0,4
1,33,0,180
1,36,83,8
1,36,0,184
1,38,110,8
1,38,0,118
1,36,79,10
1,36,0,56
1,29,102,8
1,33,79,192
1,29,0,2
1,36,94,190
1,33,0,4
1,36,0,184
1,38,102,4
1,38,0,112
1,36,72,16
1,36,0,54
1,41,64,10
1,41,0,108
1,41,86,660
1,41,0,120
1,41,83,648
1,41,0,84
1,41,83,300
1,41,0,84
1,29,98,1068
1,29,0,172
1,33,72,20
1,33,0,184
1,36,102,8
1,36,0,180
1,38,86,12
1,38,0,126
1,36,64,2
1,29,98,64
1,36,0,4
1,33,72,188
1,29,0,4
1,33,0,184
1,36,102,4
1,36,0,182
1,38,106,10
1,38,0,112
1,36,79,16
1,36,0,46
1,29,110,18
1,33,83,192
1,29,0,4
1,33,0,180
1,36,102,8
1,36,0,184
1,38,102,8
1,38,0,118
1,36,79,10
1,36,0,46
1,29,102,18
1,33,79,192
1,29,0,2
1,36,106,190
1,33,0,4
1,36,0,184
1,38,110,4
1,38,0,112
1,36,79,16
1,36,0,54
1,34,110,10
1,34,0,172
1,38,72,20
1,38,0,184
1,41,106,8
1,41,0,180
1,43,106,12
1,43,0,126
1,41,72,2
1,34,98,64
1,41,0,4
1,38,72,188
1,34,0,4
1,38,0,184
1,41,102,4
1,41,0,182
1,43,98,10
1,43,0,112
1,41,79,16
1,41,0,46
1,29,94,18
1,33,102,192
1,29,0,4
1,33,0,180
1,36,83,8
1,36,0,184
1,38,110,8
1,38,0,118
1,36,79,10
1,36,0,56
1,29,102,8
1,33,79,192
1,29,0,2
1,36,94,190
1,33,0,4
1,36,0,184
1,38,102,4
1,38,0,112
1,36,72,16
1,36,0,54
1,36,102,10
1,40,79,192
1,36,0,2
1,43,102,190
1,40,0,4
1,43,0,184
1,45,94,4
1,45,0,112
1,43,79,16
1,43,0,54
1,34,98,10
1,38,79,192
1,34,0,2
1,41,94,190
1,38,0,4
1,41,0,184
1,43,94,4
1,43,0,112
1,41,68,16
1,41,0,54
1,41,81,10
1,41,0,64
1,36,69,1280
1,36,0,176
1,29,79,16
1,29,0,172
1,33,72,20
1,33,0,184
1,36,79,8
1,36,0,180
1,38,75,12
1,38,0,126
1,36,64,2
1,29,72,64
1,36,0,4
1,33,72,188
1,29,0,4
1,33,0,184
1,36,69,4
1,36,0,182
1,38,72,10
1,38,0,112
1,36,79,16
1,36,0,46
1,29,72,18
1,33,83,192
1,29,0,4
1,33,0,164
1,36,83,24
1,36,0,152
1,38,69,40
1,38,0,118
1,36,79,10
1,36,0,46
1,29,72,18
1,33,79,192
1,29,0,2
1,36,69,190
1,33,0,4
1,36,0,184
1,38,75,4
1,38,0,112
1,36,79,16
1,36,0,54
1,34,79,10
1,34,0,172
1,38,72,20
1,38,0,184
1,41,79,8
1,41,0,180
1,43,75,12
1,43,0,126
1,41,64,2
1,34,72,64
1,41,0,4
1,38,72,188
1,34,0,4
1,38,0,184
1,41,69,4
1,41,0,182
1,43,72,10
1,43,0,112
1,41,79,16
1,41,0,46
1,29,72,18
1,33,83,192
1,29,0,4
1,33,0,164
1,36,83,24
1,36,0,152
1,38,69,40
1,38,0,118
1,36,79,10
1,36,0,46
1,29,72,18
1,33,79,192
1,29,0,2
1,36,69,190
1,33,0,4
1,36,0,184
1,38,75,4
1,38,0,112
1,36,79,16
1,36,0,54
1,36,72,10
1,40,79,192
1,36,0,2
1,43,69,190
1,40,0,4
1,43,0,184
1,45,75,4
1,45,0,112
1,43,79,16
1,43,0,54
1,34,72,10
1,38,79,192
1,34,0,2
1,41,69,190
1,38,0,4
1,41,0,184
1,43,75,4
1,43,0,112
1,41,79,16
1,41,0,54
1,41,81,10
1,41,0,384
1,36,64,384
1,36,0,98
1,36,53,94
1,36,0,92
1,36,72,100
1,36,0,96
1,36,56,96
1,36,0,88
1,29,98,104
1,29,0,172
1,33,72,20
1,33,0,184
1,36,102,8
1,36,0,180
1,38,86,12
1,38,0,126
1,36,64,2
1,29,98,64
1,36,0,4
1,33,72,188
1,29,0,4
1,33,0,184
1,36,102,4
1,36,0,182
1,38,106,10
1,38,0,112
1,36,79,16
1,36,0,46
1,29,110,18
1,33,83,192
1,29,0,4
1,33,0,180
1,36,102,8
1,36,0,184
1,38,102,8
1,38,0,118
1,36,79,10
1,36,0,46
1,29,102,18
1,33,79,192
1,29,0,2
1,36,106,190
1,33,0,4
1,36,0,184
1,38,110,4
1,38,0,112
1,36,79,16
1,36,0,54
1,34,110,10
1,34,0,172
1,38,72,20
1,38,0,184
1,41,106,8
1,41,0,180
1,43,106,12
1,43,0,126
1,41,72,2
1,34,98,64
1,41,0,4
1,38,72,188
1,34,0,4
1,38,0,184
1,41,102,4
1,41,0,182
1,43,98,10
1,43,0,112
1,41,79,16
1,41,0,46
1,29,94,18
1,33,102,192
1,29,0,4
1,33,0,180
1,36,83,8
1,36,0,184
1,38,110,8
1,38,0,118
1,36,79,10
1,36,0,56
1,29,102,8
1,33,79,192
1,29,0,2
1,36,94,190
1,33,0,4
1,36,0,184
1,38,102,4
1,38,0,112
1,36,72,16
1,36,0,54
1,36,102,10
1,40,79,192
1,36,0,2
1,43,102,190
1,40,0,4
1,43,0,184
1,45,94,4
1,45,0,112
1,43,79,16
1,43,0,54
1,34,98,10
1,38,79,192
1,34,0,2
1,41,94,190
1,38,0,4
1,41,0,184
1,43,94,4
1,43,0,112
1,41,68,16
1,41,0,54
1,41,81,10
1,41,0,64
1,29,98,1472
1,29,0,172
1,33,72,20
1,33,0,184
1,36,102,8
1,36,0,180
1,38,86,12
1,38,0,126
1,36,64,2
1,29,98,64
1,36,0,4
1,33,72,188
1,29,0,4
1,33,0,184
1,36,102,4
1,36,0,182
1,38,106,10
1,38,0,112
1,36,79,16
1,36,0,46
1,29,110,18
1,33,83,192
1,29,0,4
1,33,0,180
1,36,102,8
1,36,0,184
1,38,102,8
1,38,0,118
1,36,79,10
1,36,0,46
1,29,102,18
1,33,79,192
1,29,0,2
1,36,106,190
1,33,0,4
1,36,0,184
1,38,110,4
1,38,0,112
1,36,79,16
1,36,0,54
1,34,110,10
1,34,0,172
1,38,72,20
1,38,0,184
1,41,106,8
1,41,0,180
1,43,106,12
1,43,0,126
1,41,72,2
1,34,98,64
1,41,0,4
1,38,72,188
1,34,0,4
1,38,0,184
1,41,102,4
1,41,0,182
1,43,98,10
1,43,0,112
1,41,79,16
1,41,0,46
1,29,94,18
1,33,102,192
1,29,0,4
1,33,0,180
1,36,83,8
1,36,0,184
1,38,110,8
1,38,0,118
1,36,79,10
1,36,0,56
1,29,102,8
1,33,79,192
1,29,0,2
1,36,94,190
1,33,0,4
1,36,0,184
1,38,102,4
1,38,0,112
1,36,72,16
1,36,0,54
1,41,64,10
1,41,0,108
1,41,86,660
1,41,0,120
1,41,83,648
1,41,0,84
1,41,83,300
1,41,0,84
1,29,98,1068
1,29,0,172
1,33,72,20
1,33,0,184
1,36,102,8
1,36,0,180
1,38,86,12
1,38,0,126
1,36,64,2
1,29,98,64
1,36,0,4
1,33,72,188
1,29,0,4
1,33,0,184
1,36,102,4
1,36,0,182
1,38,106,10
1,38,0,112
1,36,79,16
1,36,0,46
1,29,110,18
1,33,83,192
1,29,0,4
1,33,0,180
1,36,102,8
1,36,0,184
1,38,102,8
1,38,0,118
1,36,79,10
1,36,0,46
1,29,102,18
1,33,79,192
1,29,0,2
1,36,106,190
1,33,0,4
1,36,0,184
1,38,110,4
1,38,0,112
1,36,79,16
1,36,0,54
1,34,110,10
1,34,0,172
1,38,72,20
1,38,0,184
1,41,106,8
1,41,0,180
1,43,106,12
1,43,0,126
1,41,72,2
1,34,98,64
1,41,0,4
1,38,72,188
1,34,0,4
1,38,0,184
1,41,102,4
1,41,0,182
1,43,98,10
1,43,0,112
1,41,79,16
1,41,0,46
1,29,94,18
1,33,102,192
1,29,0,4
1,33,0,180
1,36,83,8
1,36,0,184
1,38,110,8
1,38,0,118
1,36,79,10
1,36,0,56
1,29,102,8
1,33,79,192
1,29,0,2
1,36,94,190
1,33,0,4
1,36,0,184
1,38,102,4
1,38,0,112
1,36,72,16
1,36,0,54
1,36,102,10
1,40,79,192
1,36,0,2
1,43,102,190
1,40,0,4
1,43,0,184
1,45,94,4
1,45,0,112
1,43,79,16
1,43,0,54
1,34,98,10
1,38,79,192
1,34,0,2
1,41,94,190
1,38,0,4
1,41,0,184
1,43,94,4
1,43,0,112
1,41,68,16
1,41,0,54
1,29,98,10
1,33,79,192
1,29,0,2
1,34,94,190
1,33,0,4
1,34,0,184
1,35,94,4
1,35,0,192
1,36,68,0
1,36,0,192
1,34,79,0
1,33,94,96
1,34,0,8
1,33,0,272
1,29,94,8
1,29,0,1680
1,29,117,48
1,29,0,64
2,29,91,2304
2,29,0,104
2,29,60,8
2,29,0,56
2,32,75,24
2,32,0,8
2,33,49,4
2,33,0,56
2,36,94,24
2,36,0,104
2,36,60,8
2,36,0,56
2,38,75,24
2,38,0,96
2,36,51,16
2,36,0,68
2,29,91,12
2,29,0,104
2,29,60,8
2,29,0,56
2,32,75,24
2,32,0,8
2,33,49,4
2,33,0,56
2,36,94,24
2,36,0,104
2,36,60,8
2,36,0,56
2,38,75,24
2,38,0,96
2,36,51,16
2,36,0,68
2,29,91,12
2,29,0,104
2,29,60,8
2,29,0,56
2,32,75,24
2,32,0,8
2,33,49,4
2,33,0,56
2,36,94,24
2,36,0,104
2,36,60,8
2,36,0,56
2,38,75,24
2,38,0,96
2,36,51,16
2,36,0,68
2,29,91,12
2,29,0,104
2,29,60,8
2,29,0,56
2,32,75,24
2,32,0,8
2,33,49,4
2,33,0,56
2,36,94,24
2,36,0,104
2,36,60,8
2,36,0,56
2,38,75,24
2,38,0,96
2,36,51,16
2,36,0,68
2,34,95,12
2,34,0,96
2,34,51,16
2,34,0,48
2,38,72,32
2,38,0,12
2,39,41,4
2,39,0,56
2,41,95,24
2,41,0,96
2,41,52,16
2,41,0,56
2,43,70,24
2,43,0,96
2,41,39,16
2,41,0,56
2,34,94,24
2,34,0,96
2,34,51,16
2,34,0,56
2,38,72,24
2,38,0,12
2,39,39,4
2,39,0,48
2,41,94,32
2,41,0,96
2,41,51,16
2,41,0,56
2,43,75,24
2,43,0,84
2,41,41,28
2,41,0,56
2,29,94,24
2,29,0,96
