track,note,velocity,time
0,67,91,286
0,68,78,2
0,67,87,2
0,65,99,2
0,60,96,0
0,57,103,0
0,29,112,0
0,53,66,0
0,36,77,0
0,40,85,0
0,44,75,0
0,41,83,1
0,53,104,2
0,48,103,4
0,68,99,2
0,67,88,2
0,68,90,2
0,67,100,2
0,29,109,2
0,53,66,0
0,40,77,0
0,36,85,0
0,44,85,0
0,57,106,0
0,60,104,0
0,65,106,0
0,41,108,0
0,53,111,0
0,48,98,0
0,68,100,2
0,68,84,25
0,67,87,2
0,67,89,51
0,29,117,16
0,53,68,0
0,40,77,0
0,36,85,0
0,44,93,0
0,65,106,0
0,60,108,0
0,57,113,0
0,41,115,0
0,53,95,0
0,48,98,0
0,67,88,0
0,68,82,2
0,68,86,7
0,68,80,2
0,67,85,14
0,68,82,10
0,68,78,7
0,68,82,2
0,67,87,20
0,68,81,2
0,68,82,2
0,68,77,2
0,67,85,2
0,67,90,2
0,40,77,2
0,40,77,8
0,40,77,18
0,40,53,23
0,51,74,4
0,34,106,2
0,53,68,0
0,58,100,0
0,62,92,0
0,65,97,0
0,46,91,0
0,53,88,0
0,36,77,0
0,65,75,0
0,41,103,1
0,53,70,3
0,46,81,0
0,53,74,0
0,58,92,0
0,62,89,0
0,65,86,1
0,41,96,3
0,40,37,4
0,51,90,3
0,44,95,1
0,34,83,3
0,55,69,0
0,55,91,0
0,46,94,0
0,62,89,0
0,65,95,0
0,58,97,0
0,40,85,0
0,43,92,2
0,68,96,2
0,69,68,4
0,65,90,1
0,70,57,0
0,46,95,1
0,58,94,0
0,55,68,1
0,55,88,0
0,62,85,0
0,71,49,1
0,43,88,3
0,34,84,4
0,36,77,0
0,53,71,0
0,46,90,0
0,58,91,0
0,62,83,0
0,65,91,0
0,51,70,1
0,53,91,0
0,41,104,1
0,46,81,16
0,53,88,0
0,65,86,0
0,62,78,0
0,58,90,1
0,53,70,1
0,41,97,0
0,40,37,12
0,51,89,6
0,34,83,3
0,55,97,0
0,55,68,0
0,58,92,0
0,65,87,0
0,40,85,0
0,62,80,0
0,46,96,1
0,44,97,0
0,43,96,1
0,46,86,21
0,55,98,0
0,58,92,0
0,65,89,1
0,55,69,2
0,62,84,0
0,43,87,1
0,65,75,10
0,51,73,1
0,34,85,1
0,46,87,0
0,53,103,0
0,53,68,0
0,58,94,0
0,62,83,0
0,71,96,0
0,36,77,0
0,65,93,0
0,41,104,0
0,41,99,5
0,53,82,1
0,65,89,0
0,53,67,1
0,58,94,0
0,62,84,0
0,46,86,1
0,40,37,12
0,51,90,3
0,34,83,0
0,55,68,0
0,65,91,0
0,62,87,0
0,43,97,0
0,55,108,0
0,40,85,0
0,44,95,0
0,58,98,0
0,46,103,0
0,70,82,2
0,58,90,1
0,55,69,1
0,46,87,1
0,55,109,0
0,62,79,0
0,65,85,1
0,43,93,2
0,68,85,2
0,51,70,2
0,34,100,2
0,53,68,0
0,58,95,0
0,41,110,0
0,36,77,0
0,53,103,0
0,62,85,0
0,46,90,1
0,65,90,0
0,58,98,13
0,62,83,0
0,46,87,1
0,53,103,0
0,65,89,0
0,41,100,0
0,53,68,1
0,67,87,2
0,40,37,2
0,51,89,0
0,43,96,2
0,44,98,0
0,65,68,1
0,34,96,0
0,55,67,0
0,58,91,0
0,40,85,0
0,62,81,0
0,55,87,0
0,46,91,0
0,65,87,0
0,62,84,1
0,65,92,1
0,46,87,1
0,58,95,0
0,55,117,1
0,55,69,1
0,43,99,0
0,63,68,2
0,51,69,4
0,36,96,0
0,29,100,0
0,41,91,0
0,48,88,0
0,36,77,0
0,57,83,0
0,48,68,0
0,65,91,0
0,60,87,1
0,65,73,2
0,57,84,2
0,60,82,1
0,48,67,2
0,65,89,0
0,36,104,4
0,41,81,8
0,48,74,0
0,40,37,0
0,51,89,9
0,44,94,0
0,29,94,1
0,60,85,0
0,41,94,0
0,50,105,0
0,40,85,0
0,50,68,0
0,57,93,0
0,65,91,0
0,68,86,2
0,38,110,6
0,69,63,2
0,70,69,1
0,57,86,3
0,50,76,1
0,50,69,0
0,60,82,0
0,41,80,0
0,65,90,0
0,71,75,1
0,38,100,2
0,51,65,7
0,29,95,1
0,48,70,0
0,57,87,0
0,36,77,0
0,41,90,0
0,60,84,0
0,48,105,1
0,65,91,0
0,36,101,9
0,57,86,13
0,48,68,1
0,48,88,0
0,65,89,0
0,41,81,1
0,60,81,0
0,36,103,4
0,40,37,6
0,51,90,7
0,44,95,0
0,29,99,1
0,50,69,0
0,40,85,0
0,50,112,0
0,57,86,0
0,41,96,1
0,60,81,0
0,65,88,1
0,38,108,2
0,57,85,17
0,65,86,3
0,60,77,1
0,50,98,1
0,50,68,1
0,38,99,0
0,41,86,0
0,75,106,2
0,51,66,4
0,29,99,0
0,48,67,0
0,65,91,0
0,57,85,0
0,41,87,0
0,36,77,0
0,60,81,1
0,48,103,0
0,36,103,2
0,57,88,1
0,65,87,3
0,41,88,2
0,60,80,0
0,36,101,0
0,48,68,1
0,48,84,0
0,40,37,12
0,44,94,4
0,51,89,0
0,29,89,1
0,57,85,0
0,60,80,0
0,50,69,0
0,50,108,0
0,40,85,0
0,65,95,0
0,38,108,0
0,75,104,1
0,41,103,0
0,57,84,3
0,60,80,2
0,50,68,2
0,41,87,0
0,50,109,0
0,65,89,0
0,38,101,3
0,29,96,8
0,36,77,0
0,51,68,0
0,48,67,0
0,48,103,0
0,60,83,0
0,57,92,0
0,65,92,0
0,41,90,0
0,36,97,0
0,72,103,0
0,41,114,20
0,57,89,0
0,48,68,1
0,48,103,0
0,60,78,0
0,65,90,1
0,36,101,1
0,40,37,2
0,44,95,6
0,51,90,0
0,29,103,0
0,57,92,0
0,40,85,0
0,50,115,0
0,65,88,0
0,50,69,1
0,68,97,0
0,41,91,0
0,60,81,0
0,38,106,4
0,57,90,2
0,60,76,1
0,65,90,2
0,50,68,1
0,50,117,0
0,41,103,0
0,38,100,3
0,51,70,10
0,36,107,2
0,55,68,0
0,48,91,0
0,55,99,0
0,60,91,0
0,64,87,0
0,36,77,0
0,65,98,0
0,43,93,0
0,67,93,0
0,55,90,2
0,55,69,1
0,67,93,0
0,43,80,0
0,48,93,0
0,64,89,1
0,60,92,1
0,40,37,2
0,44,94,5
0,51,89,0
0,36,100,0
0,57,68,0
0,48,99,0
0,57,99,0
0,40,85,0
0,60,88,0
0,64,86,1
0,67,91,0
0,64,87,1
0,45,101,1
0,60,87,5
0,57,76,0
0,64,87,0
0,48,80,0
0,57,69,0
0,67,92,0
0,45,99,1
0,60,66,1
0,36,108,9
0,36,77,0
0,51,68,0
0,55,105,0
0,48,90,0
0,55,68,0
0,60,88,0
0,64,88,1
0,67,95,1
0,43,100,8
0,60,93,12
0,48,81,0
0,55,88,1
0,55,69,1
0,64,88,0
0,67,89,0
0,43,95,8
0,40,37,4
0,51,89,6
0,44,97,1
0,36,108,1
0,57,68,0
0,67,81,0
0,40,85,0
0,57,97,0
0,64,84,0
0,48,96,1
0,60,84,0
0,45,103,4
0,57,98,19
0,60,91,0
0,48,86,1
0,64,83,0
0,57,69,1
0,67,86,0
0,45,103,4
0,60,68,0
0,51,71,0
0,34,102,0
0,53,67,0
0,58,92,0
0,60,79,0
0,36,77,0
0,46,87,0
0,41,99,0
0,53,99,0
0,65,96,0
0,62,73,2
0,41,100,5
0,46,99,1
0,53,95,0
0,62,84,1
0,48,64,0
0,53,68,0
0,65,86,0
0,58,86,2
0,62,73,2
0,40,37,2
0,43,99,6
0,44,93,0
0,51,90,2
0,65,79,0
0,34,92,0
0,46,97,0
0,62,87,0
0,58,97,0
0,40,85,0
0,55,69,0
0,55,95,0
0,65,95,0
0,43,100,17
0,46,87,6
0,55,94,0
0,58,92,0
0,55,68,1
0,62,84,0
0,65,93,1
0,68,91,0
0,41,104,2
0,34,101,4
0,36,77,0
0,51,66,0
0,53,94,0
0,53,69,0
0,62,87,0
0,46,90,0
0,58,92,0
0,65,96,1
0,67,89,10
0,41,97,6
0,53,68,5
0,53,103,0
0,46,104,0
0,58,95,0
0,62,83,0
0,65,92,0
0,40,37,6
0,44,98,7
0,51,91,3
0,34,105,1
0,55,69,0
0,46,91,0
0,58,97,0
0,40,85,0
0,43,101,0
0,55,115,1
0,65,92,0
0,62,82,1
0,55,68,0
0,62,84,0
0,58,91,0
0,55,117,1
0,46,103,0
0,65,93,0
0,43,100,0
0,65,75,2
0,51,63,3
0,36,101,0
0,29,109,3
0,48,67,0
0,41,98,0
0,48,97,0
0,36,77,0
0,65,88,0
0,57,89,0
0,60,92,0
0,60,75,2
0,36,99,4
0,65,91,4
0,60,82,1
0,41,92,1
0,48,91,0
0,57,91,0
0,48,68,1
0,40,37,10
0,44,100,3
0,51,91,1
0,29,104,3
0,41,96,0
0,50,99,0
0,38,103,0
0,40,85,0
0,65,93,0
0,50,69,1
0,60,81,0
0,57,90,1
0,60,84,11
0,50,76,1
0,65,96,0
0,38,100,0
0,41,92,1
0,57,90,0
0,50,69,1
0,51,74,7
0,29,106,1
0,41,95,0
0,48,68,0
0,36,77,0
0,57,87,0
0,48,97,0
0,60,83,1
0,65,96,1
0,36,108,3
0,57,90,14
0,65,95,2
0,41,96,1
0,60,81,0
0,48,97,1
0,48,67,0
0,36,103,1
0,40,37,11
0,44,101,2
0,51,91,5
0,29,110,1
0,50,98,0
0,40,85,0
0,57,85,0
0,50,69,1
0,41,96,0
0,65,95,0
0,60,81,1
0,38,108,1
0,64,81,2
0,50,69,2
0,41,86,0
0,65,95,0
0,50,98,1
0,60,81,0
0,38,103,0
0,57,92,0
0,51,75,4
0,29,108,1
0,41,96,0
0,48,97,0
0,36,77,0
0,57,90,0
0,48,68,0
0,65,97,0
0,60,85,1
0,36,97,0
0,63,81,2
0,60,78,0
0,57,92,17
0,48,93,1
0,48,69,0
0,65,96,0
0,41,95,1
0,60,80,0
0,36,99,0
0,40,37,8
0,44,93,5
0,51,90,1
0,29,108,3
0,41,99,0
0,57,89,0
0,40,85,0
0,50,99,0
0,65,95,0
0,50,68,1
0,60,81,0
0,38,104,0
0,65,95,20
0,60,80,2
0,50,99,1
0,57,90,0
0,38,99,0
0,41,87,1
0,50,67,1
0,51,72,3
0,29,104,3
0,36,103,0
0,48,99,0
0,36,77,0
0,48,68,0
0,65,96,0
0,41,90,0
0,60,83,1
0,57,92,1
0,36,99,18
0,57,89,1
0,65,93,0
0,48,67,1
0,48,99,0
0,60,80,0
0,41,99,1
0,67,91,2
0,40,37,2
0,44,97,4
0,51,91,0
0,29,105,0
0,40,85,0
0,65,96,0
0,38,115,0
0,50,97,0
0,50,68,1
0,57,90,0
0,41,91,0
0,60,81,1
0,38,111,2
0,57,95,1
0,65,96,1
0,50,69,1
0,50,117,0
0,41,103,0
0,60,86,0
0,29,112,10
0,36,77,0
0,40,85,0
0,53,66,0
0,65,99,0
0,60,96,0
0,57,103,0
0,44,81,0
0,41,83,0
0,53,104,0
0,68,89,2
0,48,103,0
0,67,87,2
0,68,88,2
0,67,88,2
0,29,109,4
0,53,66,0
0,40,77,0
0,36,85,0
0,44,100,0
0,57,106,0
0,60,104,0
0,65,106,0
0,41,108,0
0,53,111,0
0,48,98,3
0,68,93,2
0,68,86,2
0,67,89,2
0,65,69,2
0,63,73,3
0,60,61,2
0,44,100,49
0,29,117,1
0,53,68,0
0,65,106,0
0,60,108,0
0,57,113,0
0,41,115,0
0,53,95,0
0,48,98,0
0,40,77,0
0,36,85,0
0,67,85,2
0,68,81,2
0,67,84,2
0,67,84,2
0,67,84,2
0,68,82,2
0,67,86,2
0,67,85,2
0,67,87,2
0,40,77,2
0,40,77,2
0,40,77,20
0,40,53,8
0,51,74,4
0,34,106,7
0,53,68,0
0,58,100,0
0,62,92,0
0,65,97,0
0,46,91,0
0,53,88,0
0,36,77,0
0,41,103,1
0,68,84,1
0,53,70,17
0,46,81,0
0,53,74,0
0,58,92,0
0,62,89,1
0,65,86,1
0,41,96,3
0,40,37,4
0,51,90,1
0,44,101,1
0,34,83,0
0,55,69,0
0,55,91,0
0,46,94,0
0,62,89,0
0,65,95,0
0,58,97,0
0,40,85,0
0,65,70,2
0,43,92,0
0,65,90,10
0,46,95,1
0,58,94,0
0,55,68,1
0,55,88,0
0,62,85,0
0,43,88,5
0,34,84,4
0,36,77,0
0,53,71,0
0,46,90,0
0,58,91,0
0,62,83,0
0,65,91,0
0,51,70,0
0,53,91,0
0,41,104,0
0,46,81,4
0,53,88,0
0,65,86,0
0,62,78,0
0,58,90,1
0,53,70,0
0,41,97,0
0,40,37,10
0,51,89,6
0,44,98,1
0,34,83,1
0,55,97,0
0,55,68,0
0,58,92,0
0,65,87,0
0,40,85,0
0,62,80,0
0,46,96,1
0,43,96,2
0,46,86,0
0,55,98,0
0,58,92,0
0,65,89,1
0,55,69,1
0,62,84,0
0,43,87,1
0,71,93,4
0,51,73,1
0,34,85,1
0,46,87,0
0,53,103,0
0,53,68,0
0,58,94,0
0,62,83,0
0,36,77,0
0,65,93,1
0,41,104,0
0,41,99,7
0,53,82,0
0,65,89,0
0,53,67,1
0,58,94,0
0,62,84,0
0,46,86,1
0,40,37,12
0,51,90,0
0,70,96,1
0,34,83,0
0,55,68,0
0,65,91,0
0,62,87,0
0,43,97,0
0,55,108,0
0,40,85,0
0,44,97,0
0,58,98,0
0,46,103,0
0,58,90,2
0,55,69,1
0,46,87,1
0,55,109,0
0,62,79,0
0,65,85,0
0,43,93,2
0,68,82,2
0,51,70,2
0,34,100,3
0,53,68,0
0,58,95,0
0,41,110,0
0,36,77,0
0,53,103,0
0,62,85,0
0,46,90,1
0,65,90,0
0,58,98,2
0,62,83,1
0,46,87,1
0,53,103,0
0,65,89,0
0,41,100,0
0,53,68,1
0,40,37,2
0,51,89,2
0,43,96,3
0,44,98,0
0,34,96,1
0,55,67,0
0,58,91,0
0,40,85,0
0,62,81,0
0,55,87,1
0,46,91,0
0,65,87,0
0,65,69,2
0,62,84,20
0,65,92,1
0,46,87,1
0,58,95,0
0,55,117,1
0,55,69,1
0,43,99,0
0,63,67,2
0,51,69,0
0,36,96,0
0,29,100,0
0,41,91,0
0,48,88,0
0,36,77,0
0,57,83,0
0,48,68,0
0,65,91,0
0,65,72,1
0,60,87,0
0,57,84,6
0,60,82,1
0,48,67,2
0,65,89,0
0,36,104,3
0,41,81,2
0,48,74,0
0,40,37,0
0,51,89,4
0,44,94,0
0,29,94,2
0,60,85,0
0,41,94,0
0,50,105,0
0,40,85,0
0,67,85,0
0,50,68,0
0,57,93,0
0,65,91,0
0,38,110,2
0,57,86,1
0,50,76,1
0,50,69,0
0,60,82,0
0,41,80,1
0,65,90,0
0,38,100,1
0,51,65,4
0,29,95,0
0,48,70,0
0,57,87,0
0,36,77,0
0,41,90,0
0,60,84,0
0,48,105,0
0,65,91,0
0,36,101,5
0,57,86,13
0,48,68,1
0,48,88,0
0,65,89,0
0,41,81,1
0,60,81,0
0,36,103,4
0,40,37,6
0,51,90,7
0,44,95,0
0,29,99,1
0,50,69,0
0,40,85,0
0,50,112,0
0,57,86,0
0,41,96,1
0,60,81,0
0,65,88,1
0,38,108,2
0,57,85,17
0,65,86,3
0,60,77,1
0,50,98,1
0,50,68,1
0,38,99,0
0,41,86,0
0,75,97,2
0,51,66,2
0,29,99,1
0,48,67,0
0,65,91,0
0,57,85,0
0,41,87,0
0,36,77,0
0,60,81,1
0,48,103,0
0,36,103,2
0,57,88,17
0,65,87,3
0,41,88,2
0,60,80,0
0,36,101,0
0,48,68,1
0,48,84,0
0,40,37,12
0,44,100,2
0,75,95,1
0,51,89,0
0,29,89,0
0,57,85,0
0,60,80,0
0,50,69,0
0,50,108,0
0,40,85,0
0,65,95,0
0,38,108,0
0,41,103,0
0,57,84,5
0,60,80,3
0,50,68,2
0,41,87,0
0,50,109,0
0,65,89,0
0,38,101,0
0,72,95,2
0,29,96,2
0,36,77,0
0,51,68,0
0,48,67,0
0,48,103,0
