track,note,velocity,time
1,79,123,2468
1,80,127,44
1,79,57,28
1,77,82,20
1,80,127,0
1,80,127,72
1,77,127,596
1,74,112,28
1,77,127,84
1,77,127,64
1,77,104,660
1,79,127,4
1,80,127,0
1,80,127,140
1,80,127,84
1,77,127,624
1,74,108,24
1,77,127,76
1,77,127,72
1,77,89,676
1,80,127,4
1,77,73,36
1,80,127,40
1,80,127,60
1,77,127,592
1,74,96,28
1,77,127,56
1,77,127,68
1,79,127,704
1,80,127,36
1,77,72,92
1,80,127,4
1,80,127,72
1,77,127,592
1,74,119,36
1,77,127,64
1,77,125,60
1,77,127,644
1,77,127,80
1,78,127,140
1,79,127,28
1,79,127,60
1,79,127,560
1,79,56,64
1,79,127,180
1,77,127,12
1,77,127,64
1,77,127,612
1,74,127,20
1,77,127,64
1,77,127,160
1,77,127,108
1,77,127,92
1,74,125,60
1,77,127,92
1,77,127,152
1,77,127,132
1,79,127,80
1,80,127,44
1,79,117,84
1,80,127,32
1,77,127,732
1,74,110,36
1,77,127,64
1,77,115,712
1,79,127,20
1,80,127,28
1,77,78,20
1,80,127,24
1,80,127,108
1,80,127,128
1,80,127,116
1,77,127,32
1,77,127,812
1,77,125,124
1,80,102,12
1,82,119,40
1,84,127,56
1,82,127,20
1,82,127,108
1,80,127,24
1,77,127,132
1,77,125,620
1,77,119,96
1,79,115,32
1,80,127,20
1,80,127,136
1,80,127,168
1,80,127,108
1,77,127,28
1,77,127,156
1,77,104,120
1,72,123,596
1,74,121,28
1,77,127,20
1,77,127,176
1,77,127,144
1,74,127,352
1,77,127,68
1,77,117,128
1,80,127,240
1,77,127,648
1,80,127,4
1,80,127,172
1,80,127,160
1,77,127,96
1,82,115,68
1,81,66,12
1,84,127,4
1,82,127,184
1,80,127,180
1,79,119,120
1,80,127,12
1,79,57,84
1,80,127,24
1,80,127,64
1,77,127,624
1,74,88,16
1,77,127,84
1,77,127,40
1,79,127,604
1,77,115,12
1,80,127,20
1,80,127,100
1,80,127,52
1,77,127,616
1,74,127,32
1,77,127,72
1,77,127,60
1,79,127,544
1,80,127,44
1,79,90,60
1,80,127,44
1,79,77,72
1,80,127,36
1,80,127,84
1,77,123,516
1,74,123,20
1,77,127,48
1,77,123,56
1,80,127,636
1,77,88,44
1,80,127,8
1,80,127,96
1,77,127,568
1,74,121,16
1,77,127,52
1,77,117,48
1,77,127,576
1,77,127,92
1,78,127,16
1,79,127,40
1,79,127,64
1,78,127,536
1,77,123,8
1,79,127,12
1,79,127,92
1,77,127,56
1,77,127,64
1,77,127,592
1,74,96,24
1,77,127,68
1,77,127,136
1,77,127,104
1,77,127,60
1,74,127,148
1,77,127,100
1,77,127,148
1,77,127,148
1,79,127,68
1,80,127,52
1,79,83,72
1,80,127,32
1,77,127,788
1,74,112,4
1,77,127,68
1,79,127,756
1,80,127,24
1,80,127,100
1,80,127,104
1,80,127,104
1,77,127,32
1,77,127,72
1,77,127,896
1,82,127,20
1,80,127,4
1,84,127,24
1,82,127,16
1,82,127,68
1,82,127,80
1,80,127,56
1,77,127,24
1,77,127,568
1,77,127,100
1,79,119,4
1,80,127,40
1,80,127,104
1,80,127,112
1,77,127,28
1,77,127,120
1,77,127,132
1,74,127,580
1,72,112,28
1,77,127,60
1,77,127,124
1,77,127,140
1,74,127,368
1,77,127,60
1,77,127,140
1,79,98,76
1,80,127,8
1,77,127,272
1,80,127,56
1,80,127,168
1,80,127,156
1,80,127,104
1,80,127,168
1,80,127,136
1,80,127,112
1,77,83,80
1,79,85,12
1,80,127,24
1,80,127,108
1,80,121,28
1,77,127,592
1,74,100,20
1,77,127,48
1,77,127,60
1,79,127,624
1,77,94,4
1,80,127,36
1,77,73,84
1,79,102,20
1,80,127,32
1,80,127,56
1,77,127,580
1,74,112,24
1,77,127,80
1,77,127,64
1,79,127,588
1,80,127,36
1,77,110,8
1,80,127,28
1,80,117,36
1,77,127,536
1,74,123,16
1,77,127,72
1,77,125,48
1,79,127,624
1,80,127,28
1,80,127,104
1,80,123,52
1,77,127,596
1,74,117,36
1,77,127,116
1,77,127,64
1,77,127,608
1,77,121,100
1,78,127,164
1,79,127,32
1,79,119,48
1,78,125,564
1,79,127,4
1,78,93,80
1,79,127,12
1,77,127,44
1,77,127,64
1,77,127,948
1,77,127,188
1,77,127,124
1,77,127,148
1,77,127,76
1,77,127,188
1,77,127,108
1,77,127,168
1,77,127,152
1,76,87,216
1,74,102,32
1,72,115,16
1,71,121,4
1,69,127,0
1,67,127,24
1,65,127,24
1,64,127,24
1,62,127,20
1,60,127,28
1,59,127,24
1,57,127,28
1,55,127,4
1,53,125,0
1,52,110,16
1,79,106,17228
1,80,127,24
1,80,127,80
1,79,83,4
1,80,127,80
1,79,67,4
1,80,127,84
1,80,127,84
1,77,127,620
1,74,112,0
1,77,127,64
1,77,117,44
1,79,127,640
1,76,90,16
1,77,88,4
1,80,127,20
1,77,104,8
1,80,127,36
1,80,127,56
1,77,127,600
1,74,108,408
1,77,127,68
1,77,127,56
1,77,87,660
1,80,127,28
1,77,93,8
1,80,127,24
1,80,127,72
1,77,127,548
1,74,117,4
1,77,127,56
1,77,127,44
1,77,98,604
1,79,127,12
1,80,127,20
1,77,100,12
1,80,127,16
1,80,127,52
1,77,127,584
1,74,125,428
1,77,127,64
1,77,119,52
1,77,127,648
1,77,127,96
1,78,127,16
1,79,127,60
1,79,123,68
1,77,121,12
1,78,127,552
1,79,127,4
1,79,127,88
1,78,71,16
1,77,127,44
1,77,127,76
1,77,127,584
1,74,119,140
1,77,127,64
1,77,127,156
1,77,127,156
1,77,127,48
1,74,127,156
1,77,127,56
1,77,127,156
1,77,127,124
1,79,127,72
1,80,127,20
1,79,90,92
1,80,127,16
1,77,127,704
1,77,127,116
1,77,127,1212
1,80,127,68
1,80,127,128
1,80,127,136
1,80,127,64
1,80,127,72
1,77,127,176
1,77,127,460
1,77,127,148
1,80,127,72
1,82,125,32
1,84,112,24
1,82,127,16
1,82,127,84
1,80,127,52
1,77,127,200
1,72,127,964
1,74,127,52
1,77,127,48
1,77,127,88
1,74,94,40
1,72,77,16
1,77,127,148
1,77,127,112
1,74,106,32
1,77,104,80
1,79,127,12
1,79,127,116
1,77,127,84
1,77,127,96
1,74,98,8
1,77,127,64
1,77,127,112
1,77,127,132
1,74,127,392
1,77,127,76
1,77,127,124
1,80,127,40
1,77,94,408
1,79,83,68
1,77,84,4
1,80,127,8
1,80,127,104
1,80,127,112
1,80,127,108
1,80,127,96
1,80,127,96
1,80,127,96
1,77,89,88
1,79,123,4
1,80,127,12
1,77,117,60
1,79,78,52
1,80,127,4
1,80,127,48
1,77,127,548
1,74,119,20
1,77,127,76
1,77,115,48
1,77,119,584
1,80,127,16
1,79,69,128
1,80,127,4
1,80,127,80
1,77,127,580
1,74,127,16
1,77,127,84
1,77,127,60
1,79,117,572
1,80,127,32
1,77,108,12
1,80,127,60
1,80,127,48
1,77,127,556
1,74,112,24
1,77,127,88
1,77,127,60
1,77,102,620
1,80,127,4
1,77,108,16
1,80,127,24
1,80,127,60
1,77,127,544
1,74,108,4
1,77,127,80
1,77,127,52
1,77,127,616
1,77,127,100
1,78,127,16
1,79,127,52
1,79,127,56
1,78,127,584
1,79,127,0
1,79,117,84
1,77,127,64
1,77,127,72
1,77,127,620
1,74,117,384
1,77,127,64
1,77,127,140
1,77,127,112
1,77,127,48
1,74,127,164
1,77,127,68
1,77,127,144
1,77,127,124
1,84,127,576
1,77,127,0
1,89,127,8
1,86,90,12
1,83,79,20
1,81,102,20
2,29,127,3456
2,33,127,24
2,36,127,56
2,38,127,16
2,41,127,4
2,38,127,72
2,36,127,68
2,31,120,64
2,33,122,0
2,29,127,56
2,33,127,68
2,36,127,36
2,38,127,16
2,45,77,384
2,41,127,0
2,39,127,72
2,38,125,52
2,36,125,88
2,34,127,80
2,38,127,16
2,41,127,24
2,43,127,60
2,46,120,60
2,43,125,60
2,41,127,68
2,38,127,48
2,29,115,84
2,33,118,36
2,36,127,8
2,38,127,68
2,41,127,48
2,38,127,40
2,36,127,80
2,34,127,56
2,36,127,52
2,40,127,56
2,43,127,52
2,36,127,32
2,34,127,60
2,38,127,28
2,41,115,80
2,46,127,112
2,29,127,84
2,29,122,2820
2,33,122,384
2,36,111,8
2,38,125,384
2,41,127,376
2,38,127,36
2,36,120,384
2,33,105,24
2,29,125,384
2,33,127,368
2,36,125,8
2,38,125,0
2,41,111,8
2,38,122,384
2,36,125,44
2,33,111,16
2,34,127,384
2,32,115,372
2,31,127,372
2,29,127,12
2,34,127,36
2,32,125,384
2,31,127,292
2,29,127,372
2,29,127,60
2,33,127,32
2,36,127,20
2,38,127,12
2,41,127,384
2,38,127,360
2,36,127,0
2,33,120,8
2,29,127,384
2,29,127,1300
2,29,127,1296
2,33,64,2756
2,36,72,0
2,29,125,16
2,33,127,24
2,36,118,384
2,38,127,12
2,41,127,384
2,38,125,12
2,36,125,24
2,33,107,12
2,29,125,44
2,33,127,384
2,36,122,376
2,38,127,380
2,41,127,0
2,38,127,384
2,36,127,36
2,33,122,4
2,34,127,12
2,38,125,20
2,41,120,384
2,38,115,316
2,34,127,380
2,32,127,8
2,31,122,384
2,29,127,352
2,29,111,104
2,33,127,20
2,36,125,8
2,38,125,0
2,41,122,384
2,38,122,12
2,36,125,384
2,33,125,44
2,36,125,384
2,40,122,368
2,43,125,332
2,36,127,368
2,34,125,76
2,38,127,384
2,41,125,372
2,38,125,348
2,29,120,24
2,29,122,2780
2,33,122,384
2,36,111,8
2,38,125,384
2,41,127,376
2,38,127,36
2,36,120,384
2,33,105,24
2,29,125,384
2,33,127,368
2,36,125,8
2,38,125,0
2,41,111,8
2,38,122,384
2,36,125,44
2,33,111,16
2,34,127,384
2,32,115,372
2,31,127,372
2,29,127,12
2,34,127,36
2,32,125,384
2,31,127,292
2,29,127,372
2,29,127,60
2,33,127,32
2,36,127,20
2,38,127,12
2,41,127,384
2,38,127,360
2,36,127,0
2,33,120,8
2,29,127,384
2,29,127,1300
2,29,127,1296
2,33,64,2756
2,36,72,0
2,29,125,16
2,33,127,24
2,36,118,384
2,38,127,12
2,41,127,384
2,38,125,12
2,36,125,24
2,33,107,12
2,29,125,44
2,33,127,384
2,36,122,376
2,38,127,380
2,41,127,0
2,38,127,384
2,36,127,36
2,33,122,4
2,34,127,12
2,38,125,20
2,41,120,384
2,38,115,316
2,34,127,380
2,32,127,8
2,31,122,384
2,29,127,352
2,29,111,104
2,33,127,20
2,36,125,8
2,38,125,0
2,41,122,384
2,38,122,12
2,36,125,384
2,33,125,44
2,36,125,384
2,40,122,368
2,43,125,332
2,36,127,368
2,34,125,76
2,38,127,384
2,41,125,372
2,38,125,348
2,29,120,24
2,29,127,2780
2,33,127,28
2,36,127,68
2,38,127,52
2,41,127,12
2,38,127,56
2,36,125,92
2,33,111,80
2,29,125,384
2,33,127,28
2,36,127,40
2,38,127,28
2,39,127,52
2,38,125,28
2,36,127,72
2,33,118,16
2,34,115,28
2,36,127,384
2,38,127,24
2,41,127,16
2,46,122,44
2,44,127,52
2,43,127,32
2,41,127,68
2,29,120,384
2,33,127,8
2,36,122,28
2,38,127,20
2,41,127,16
2,38,127,20
2,36,125,96
2,33,107,24
2,36,127,384
2,40,127,36
2,43,122,40
2,45,127,52
2,34,127,20
2,38,127,384
2,41,120,100
2,43,127,4
2,29,118,40
2,33,127,20
2,36,122,32
2,38,127,56
2,41,127,20
2,38,122,52
2,36,127,44
2,33,127,44
2,29,125,32
2,33,127,24
2,36,118,384
2,38,127,12
2,41,127,384
2,38,125,12
2,36,125,24
2,33,107,12
2,29,125,44
2,33,127,384
2,36,122,376
2,38,127,380
2,41,127,0
2,38,127,384
2,36,127,36
2,33,122,4
2,34,127,12
2,38,125,20
2,41,120,384
2,38,115,316
2,34,127,380
2,32,127,8
2,31,122,384
2,29,127,352
2,29,111,104
2,33,127,20
2,36,125,8
2,38,125,0
2,41,122,384
2,38,122,12
2,36,125,384
2,33,125,44
2,36,125,384
2,40,122,368
2,43,125,332
2,36,127,368
2,34,125,76
2,38,127,384
2,41,125,372
2,38,125,348
2,29,120,24
2,29,122,2780
2,33,122,384
2,36,111,8
2,38,125,384
2,41,127,376
2,38,127,36
2,36,120,384
2,33,105,24
2,29,125,384
2,33,127,368
2,36,125,8
2,38,125,0
2,41,111,8
2,38,122,384
2,36,125,44
2,33,111,16
2,34,127,384
2,32,115,372
2,31,127,372
2,29,127,12
2,34,127,36
2,32,125,384
2,31,127,292
2,29,127,372
2,29,127,60
2,33,127,32
2,36,127,20
2,38,127,12
2,41,127,384
2,38,127,360
2,36,127,0
2,33,120,8
2,29,127,384
2,29,127,1300
2,29,127,1296
2,33,64,2756
2,36,72,0
2,29,125,16
2,33,127,24
2,36,118,384
2,38,127,12
2,41,127,384
2,38,125,12
2,36,125,24
2,33,107,12
2,29,125,44
2,33,127,384
2,36,122,376
2,38,127,380
2,41,127,0
2,38,127,384
2,36,127,36
2,33,122,4
2,34,127,12
2,38,125,20
2,41,120,384
2,38,115,316
2,34,127,380
2,32,127,8
2,31,122,384
2,29,127,352
2,29,111,104
2,33,127,20
2,36,125,8
2,38,125,0
2,41,122,384
2,38,122,12
2,36,125,384
2,33,125,44
2,36,125,384
2,40,122,368
2,43,125,332
2,36,127,368
2,34,125,76
2,38,127,384
2,41,125,372
2,38,125,348
2,29,120,24
2,29,127,2804
3,103,90,36
3,101,77,24
3,100,90,0
3,98,97,0
3,96,100,20
3,95,100,16
3,93,97,16
3,91,97,16
3,89,95,12
3,88,92,12
3,86,92,12
3,84,92,16
3,83,92,12
3,81,90,8
3,79,90,16
3,77,92,16
3,76,90,16
3,74,88,0
3,72,90,16
3,71,95,12
3,69,92,0
3,67,90,20
3,65,92,0
3,64,88,0
3,62,95,16
3,60,90,16
3,59,92,16
3,57,95,0
3,55,92,16
3,53,100,16
3,52,100,0
3,50,103,0
3,48,103,8
3,47,95,0
3,45,97,24
3,43,88,20
3,41,83,0
3,40,75,0
3,38,75,0
3,36,75,0
3,65,70,0
3,69,83,0
3,72,77,0
3,35,95,0
3,36,92,0
3,72,79,96
3,69,79,0
3,65,66,0
3,70,95,92
3,74,79,0
3,65,60,0
3,71,85,68
3,68,88,0
3,65,62,0
3,72,85,80
3,65,56,0
3,69,81,0
3,72,72,88
3,69,77,0
3,65,60,0
3,70,92,80
3,74,79,0
3,65,45,0
3,71,88,64
3,68,90,0
3,65,54,0
3,72,88,68
3,69,81,0
3,65,52,0
3,69,81,92
3,72,75,0
3,65,54,0
3,70,92,80
3,74,75,0
3,65,45,0
3,71,81,60
3,68,88,0
3,65,56,0
3,72,90,72
3,69,81,0
3,65,47,0
3,65,60,88
3,69,77,0
3,72,70,0
3,70,92,72
3,74,75,0
3,65,48,0
3,71,77,56
3,68,90,0
3,65,49,0
3,72,81,68
3,69,79,0
3,65,49,0
3,65,58,96
3,69,75,0
3,72,70,0
3,70,92,84
3,74,75,0
3,65,45,0
3,71,81,68
3,68,79,0
3,65,51,0
3,72,85,64
3,69,81,0
3,65,38,0
3,65,72,100
3,72,75,0
3,69,83,0
3,70,92,96
3,74,72,0
3,65,51,0
3,71,83,72
3,65,58,0
3,68,90,0
3,72,88,68
3,69,85,0
3,65,54,0
3,69,79,92
3,65,60,0
3,72,77,0
3,70,97,72
3,74,75,0
3,65,50,0
3,68,90,44
3,71,75,0
3,65,49,0
3,65,52,72
3,72,56,96
3,69,77,0
3,72,85,4
3,69,85,0
3,65,75,0
3,70,92,96
3,74,72,0
3,65,44,0
3,71,85,0
3,68,79,0
3,65,58,0
3,77,85,0
3,74,100,0
3,70,70,0
3,78,49,0
3,70,92,0
3,77,56,0
3,74,77,0
3,79,81,0
3,75,83,0
3,70,77,0
3,76,72,64
3,77,60,0
3,70,66,0
3,73,83,0
3,74,97,60
3,77,95,0
3,77,75,76
3,74,77,0
3,70,70,0
3,75,83,68
3,79,81,0
3,70,58,0
