track,note,velocity,time
1,51,113,1536
1,39,127,0
1,63,104,1520
1,67,104,0
1,70,104,0
1,63,104,16
1,67,104,0
1,70,104,0
1,62,104,0
1,67,104,0
1,70,104,0
1,62,104,768
1,67,104,0
1,70,104,0
1,63,104,16
1,68,104,0
1,72,104,0
1,63,104,768
1,68,104,0
1,72,104,0
1,65,104,16
1,70,104,0
1,74,104,0
1,65,104,768
1,70,104,0
1,74,104,0
1,63,104,16
1,67,104,0
1,70,104,0
1,63,104,16
1,67,104,0
1,70,104,0
1,62,104,0
1,67,104,0
1,70,104,0
1,62,104,16
1,67,104,0
1,70,104,0
1,63,104,16
1,68,104,0
1,72,104,0
1,63,104,768
1,68,104,0
1,72,104,0
1,65,104,16
1,70,104,0
1,74,104,0
1,65,104,768
1,70,104,0
1,74,104,0
1,60,104,16
1,63,104,0
1,67,104,0
1,60,104,16
1,63,104,0
1,67,104,0
1,60,104,16
1,63,104,0
1,67,104,0
1,60,104,32
1,63,104,0
1,67,104,0
1,60,104,16
1,63,104,0
1,65,104,0
1,58,104,0
1,63,104,0
1,67,104,0
1,58,104,768
1,63,104,0
1,67,104,0
1,58,104,752
1,63,104,0
1,67,104,0
1,58,104,752
1,63,104,0
1,67,104,0
1,60,104,0
1,63,104,0
1,67,104,0
1,60,104,768
1,63,104,0
1,67,104,0
1,60,104,752
1,63,104,0
1,67,104,0
1,60,104,752
1,63,104,0
1,67,104,0
1,56,104,16
1,60,104,0
1,63,104,0
1,58,104,0
1,62,104,0
1,65,104,0
1,58,104,768
1,62,104,0
1,65,104,0
1,58,104,752
1,62,104,0
1,65,104,0
1,58,104,752
1,62,104,0
1,65,104,0
1,60,104,0
1,63,104,0
1,67,104,0
1,60,104,768
1,63,104,0
1,67,104,0
1,60,104,752
1,63,104,0
1,67,104,0
1,60,104,16
1,63,104,0
1,67,104,0
1,60,104,16
1,63,104,0
1,65,104,0
1,58,104,16
1,63,104,0
1,67,104,0
1,58,104,16
1,63,104,0
1,67,104,0
1,58,104,768
1,63,104,0
1,67,104,0
1,58,104,752
1,63,104,0
1,67,104,0
1,60,104,0
1,63,104,0
1,67,104,0
1,60,104,16
1,63,104,0
1,67,104,0
1,60,104,16
1,63,104,0
1,67,104,0
1,60,104,16
1,63,104,0
1,67,104,0
1,56,104,16
1,60,104,0
1,63,104,0
1,58,104,0
1,62,104,0
1,65,104,0
1,58,104,768
1,62,104,0
1,65,104,0
1,58,104,752
1,62,104,0
1,65,104,0
1,58,104,16
1,62,104,0
1,65,104,0
1,63,104,0
1,67,104,0
1,70,104,0
1,63,104,16
1,67,104,0
1,70,104,0
1,62,104,16
1,67,104,0
1,70,104,0
1,62,104,16
1,67,104,0
1,70,104,0
1,63,104,0
1,68,104,0
1,72,104,0
1,63,104,768
1,68,104,0
1,72,104,0
1,65,104,16
1,70,104,0
1,74,104,0
1,65,104,768
1,70,104,0
1,74,104,0
1,63,104,0
1,67,104,0
1,70,104,0
1,63,104,16
1,67,104,0
1,70,104,0
1,62,104,16
1,67,104,0
1,70,104,0
1,62,104,16
1,67,104,0
1,70,104,0
1,63,104,0
1,68,104,0
1,72,104,0
1,63,104,768
1,68,104,0
1,72,104,0
1,65,104,16
1,70,104,0
1,74,104,0
1,65,104,768
1,70,104,0
1,74,104,0
1,60,104,784
1,63,104,0
1,67,104,0
1,60,104,16
1,63,104,0
1,67,104,0
1,60,104,16
1,63,104,0
1,67,104,0
1,60,104,768
1,63,104,0
1,67,104,0
1,60,104,16
1,63,104,0
1,65,104,0
1,58,104,0
1,63,104,0
1,67,104,0
1,58,104,768
1,63,104,0
1,67,104,0
1,58,104,752
1,63,104,0
1,67,104,0
1,58,104,752
1,63,104,0
1,67,104,0
1,60,104,0
1,63,104,0
1,67,104,0
1,60,104,768
1,63,104,0
1,67,104,0
1,60,104,752
1,63,104,0
1,67,104,0
1,60,104,752
1,63,104,0
1,67,104,0
1,56,104,16
1,60,104,0
1,63,104,0
1,58,104,0
1,62,104,0
1,65,104,0
1,58,104,768
1,62,104,0
1,65,104,0
1,58,104,752
1,62,104,0
1,65,104,0
1,58,104,752
1,62,104,0
1,65,104,0
1,60,104,0
1,63,104,0
1,67,104,0
1,60,104,768
1,63,104,0
1,67,104,0
1,60,104,752
1,63,104,0
1,67,104,0
1,60,104,16
1,63,104,0
1,67,104,0
1,60,104,16
1,63,104,0
1,65,104,0
1,58,104,16
1,63,104,0
1,67,104,0
1,58,104,16
1,63,104,0
1,67,104,0
1,58,104,768
1,63,104,0
1,67,104,0
1,58,104,752
1,63,104,0
1,67,104,0
1,60,104,0
1,63,104,0
1,67,104,0
1,60,104,16
1,63,104,0
1,67,104,0
1,60,104,16
1,63,104,0
1,67,104,0
1,60,104,16
1,63,104,0
1,67,104,0
1,56,104,16
1,60,104,0
1,63,104,0
1,58,104,0
1,62,104,0
1,65,104,0
1,58,104,768
1,62,104,0
1,65,104,0
1,58,104,752
1,62,104,0
1,65,104,0
1,58,104,16
1,62,104,0
1,65,104,0
1,63,104,0
1,67,104,0
1,70,104,0
1,63,104,16
1,67,104,0
1,70,104,0
1,62,104,16
1,67,104,0
1,70,104,0
1,62,104,16
1,67,104,0
1,70,104,0
1,63,104,0
1,68,104,0
1,72,104,0
1,63,104,768
1,68,104,0
1,72,104,0
1,65,104,16
1,70,104,0
1,74,104,0
1,65,104,768
1,70,104,0
1,74,104,0
1,63,104,0
1,67,104,0
1,70,104,0
1,63,104,16
1,67,104,0
1,70,104,0
1,62,104,16
1,67,104,0
1,70,104,0
1,62,104,16
1,67,104,0
1,70,104,0
1,63,104,0
1,68,104,0
1,72,104,0
1,63,104,768
1,68,104,0
1,72,104,0
1,65,104,16
1,70,104,0
1,74,104,0
1,65,104,768
1,70,104,0
1,74,104,0
1,63,104,0
1,67,104,0
1,70,104,0
1,63,104,16
1,67,104,0
1,70,104,0
1,62,104,16
1,67,104,0
1,70,104,0
1,62,104,16
1,67,104,0
1,70,104,0
1,63,104,0
1,68,104,0
1,72,104,0
1,63,104,768
1,68,104,0
1,72,104,0
1,65,104,16
1,70,104,0
1,74,104,0
1,65,104,768
1,70,104,0
1,74,104,0
1,63,104,0
1,67,104,0
1,70,104,0
1,63,104,16
1,67,104,0
1,70,104,0
1,62,104,16
1,67,104,0
1,70,104,0
1,62,104,16
1,67,104,0
1,70,104,0
1,63,104,0
1,68,104,0
1,72,104,0
1,63,104,768
1,68,104,0
1,72,104,0
1,65,104,16
1,70,104,0
1,74,104,0
1,65,104,768
1,70,104,0
1,74,104,0
1,68,127,0
1,72,127,208
1,75,127,48
1,75,127,16
1,73,127,0
1,72,127,32
1,68,127,0
1,72,127,0
1,70,127,304
1,68,127,208
1,68,127,80
1,72,127,704
1,70,127,256
1,68,127,224
1,68,127,112
1,68,127,96
1,68,127,80
1,72,127,2528
1,75,127,288
1,75,127,144
1,73,127,864
1,72,127,16
1,68,127,0
1,72,127,0
1,70,127,304
1,68,127,208
1,68,127,96
1,72,127,704
1,70,127,256
1,68,127,224
1,68,127,96
1,68,127,96
1,60,104,3152
1,63,104,0
1,67,104,0
1,60,104,768
1,63,104,0
1,67,104,0
1,60,104,752
1,63,104,0
1,67,104,0
1,60,104,16
1,63,104,0
1,67,104,0
1,60,104,16
1,63,104,0
1,65,104,0
1,58,104,16
1,63,104,0
1,67,104,0
1,58,104,16
1,63,104,0
1,67,104,0
1,58,104,768
1,63,104,0
1,67,104,0
1,58,104,752
1,63,104,0
1,67,104,0
1,60,104,0
1,63,104,0
1,67,104,0
1,60,104,16
1,63,104,0
1,67,104,0
1,60,104,16
1,63,104,0
1,67,104,0
1,60,104,16
1,63,104,0
1,67,104,0
1,56,104,16
1,60,104,0
1,63,104,0
1,58,104,0
1,62,104,0
1,65,104,0
1,58,104,768
1,62,104,0
1,65,104,0
1,58,104,752
1,62,104,0
1,65,104,0
1,58,104,16
1,62,104,0
1,65,104,0
1,63,104,0
1,67,104,0
1,70,104,0
1,63,104,16
1,67,104,0
1,70,104,0
1,62,104,16
1,67,104,0
1,70,104,0
1,62,104,16
1,67,104,0
1,70,104,0
1,63,104,0
1,68,104,0
1,72,104,0
1,63,104,768
1,68,104,0
1,72,104,0
1,65,104,16
1,70,104,0
1,74,104,0
1,65,104,768
1,70,104,0
1,74,104,0
1,63,104,0
1,67,104,0
1,70,104,0
1,63,104,16
1,67,104,0
1,70,104,0
1,62,104,16
1,67,104,0
1,70,104,0
1,62,104,16
1,67,104,0
1,70,104,0
1,63,104,0
1,68,104,0
1,72,104,0
1,63,104,768
1,68,104,0
1,72,104,0
1,65,104,16
1,70,104,0
1,74,104,0
1,65,104,768
1,70,104,0
1,74,104,0
1,63,104,0
1,67,104,0
1,70,104,0
1,63,104,16
1,67,104,0
1,70,104,0
1,62,104,16
1,67,104,0
1,70,104,0
1,62,104,16
1,67,104,0
1,70,104,0
1,63,104,0
1,68,104,0
1,72,104,0
1,63,104,768
1,68,104,0
1,72,104,0
1,65,104,16
1,70,104,0
1,74,104,0
1,65,104,768
1,70,104,0
1,74,104,0
1,63,104,0
1,67,104,0
1,70,104,0
1,63,104,16
1,67,104,0
1,70,104,0
1,62,104,16
1,67,104,0
1,70,104,0
1,62,104,16
1,67,104,0
1,70,104,0
1,63,104,0
1,68,104,0
1,72,104,0
1,63,104,768
1,68,104,0
1,72,104,0
1,65,104,16
1,70,104,0
1,74,104,0
1,65,104,768
1,70,104,0
1,74,104,0
1,63,104,0
1,67,104,0
1,70,104,0
1,63,104,16
1,67,104,0
1,70,104,0
1,62,104,16
1,67,104,0
1,70,104,0
1,62,104,16
1,67,104,0
1,70,104,0
1,63,104,0
1,68,104,0
1,72,104,0
1,63,104,768
1,68,104,0
1,72,104,0
1,65,104,16
1,70,104,0
1,74,104,0
1,65,104,768
1,70,104,0
1,74,104,0
1,63,104,0
1,67,104,0
1,70,104,0
1,63,104,16
1,67,104,0
1,70,104,0
1,62,104,16
1,67,104,0
1,70,104,0
1,62,104,16
1,67,104,0
1,70,104,0
1,63,104,0
1,68,104,0
1,72,104,0
1,63,104,768
1,68,104,0
1,72,104,0
1,65,104,16
1,70,104,0
1,74,104,0
1,65,104,768
1,70,104,0
1,74,104,0
1,68,127,0
1,72,127,208
1,75,127,48
1,75,127,16
1,73,127,0
1,72,127,32
1,68,127,0
1,72,127,0
1,70,127,304
1,68,127,208
1,68,127,80
1,72,127,704
1,70,127,256
1,68,127,224
1,68,127,112
1,68,127,96
1,68,127,80
1,72,127,2496
1,75,127,48
1,75,127,16
1,73,127,0
1,72,127,32
1,68,127,0
1,72,127,0
1,70,127,304
1,68,127,208
1,68,127,80
1,72,127,704
1,70,127,256
1,68,127,224
1,68,127,112
1,68,127,96
1,68,127,80
1,72,127,2496
1,75,127,48
1,75,127,16
1,73,127,0
1,72,127,32
1,68,127,0
1,72,127,0
1,70,127,304
1,68,127,208
1,68,127,80
1,72,127,704
1,70,127,256
1,68,127,224
1,68,127,112
1,68,127,96
1,68,127,80
1,72,127,2528
1,75,127,288
1,75,127,144
1,73,127,864
1,72,127,16
1,68,127,0
1,72,127,0
1,70,127,304
1,68,127,208
1,68,127,96
1,72,127,704
1,70,127,256
1,68,127,224
1,68,127,96
1,68,127,96
1,68,91,3152
1,72,91,0
1,75,91,0
2,70,127,4608
2,75,127,0
2,80,127,0
2,70,127,32
2,75,127,0
2,80,127,0
2,70,127,32
2,75,127,0
2,80,127,0
2,70,127,272
2,75,127,0
2,80,127,0
2,70,127,16
2,75,127,16
2,80,127,0
2,70,127,368
2,75,127,0
2,80,127,0
2,70,127,32
2,75,127,0
2,80,127,0
2,60,127,1184
2,72,127,0
2,62,127,1952
2,74,127,0
2,63,127,0
2,75,127,0
2,63,127,768
2,75,127,16
2,65,127,0
2,77,127,0
2,60,127,0
2,72,127,0
2,56,127,1552
2,68,127,0
2,58,127,0
2,70,127,0
2,60,127,0
2,72,127,0
2,62,127,0
2,74,127,0
2,65,127,0
2,77,127,0
2,60,127,0
2,72,127,0
2,62,127,1920
2,74,127,16
2,63,127,16
2,75,127,0
2,67,127,784
2,79,127,0
2,65,127,16
2,77,127,0
2,63,127,0
2,75,127,0
2,65,127,16
2,77,127,0
2,60,127,0
2,72,127,0
2,56,127,1552
2,68,127,16
2,58,127,0
2,70,127,0
2,77,127,1536
2,84,127,384
2,82,127,48
2,75,127,16
2,84,127,544
2,82,127,32
2,75,127,32
2,84,127,528
2,82,127,32
2,75,127,32
2,84,127,528
2,82,127,368
2,82,127,112
2,84,127,16
2,79,127,192
2,80,127,0
2,82,127,16
2,75,127,16
2,84,127,544
2,82,127,32
2,75,127,32
2,84,127,528
2,82,127,32
2,75,127,32
2,84,127,528
2,82,127,368
2,82,127,112
2,84,127,16
2,79,127,192
2,80,127,0
2,62,127,2496
2,74,127,0
2,86,127,0
2,63,127,32
2,75,127,0
2,87,127,0
2,65,127,32
2,77,127,0
2,89,127,16
2,60,127,64
2,72,127,0
2,62,127,1952
2,74,127,0
2,63,127,0
2,75,127,0
2,63,127,768
2,75,127,16
2,65,127,0
2,77,127,0
2,60,127,0
2,72,127,0
2,56,127,1552
2,68,127,0
2,58,127,0
2,70,127,0
2,60,127,0
2,72,127,0
2,62,127,0
2,74,127,0
2,65,127,0
2,77,127,0
2,60,127,0
2,72,127,0
2,62,127,1920
2,74,127,16
2,63,127,16
2,75,127,0
2,67,127,784
2,79,127,0
2,65,127,16
2,77,127,0
2,63,127,0
2,75,127,0
2,65,127,16
2,77,127,0
2,60,127,0
2,72,127,0
2,56,127,1552
2,68,127,16
2,58,127,0
2,70,127,0
2,77,127,1536
2,84,127,384
2,82,127,48
2,75,127,16
2,84,127,544
2,82,127,32
2,75,127,32
2,84,127,528
2,82,127,32
2,75,127,32
2,84,127,528
2,82,127,368
2,82,127,112
2,84,127,16
2,79,127,192
2,80,127,0
2,82,127,16
2,75,127,16
2,84,127,544
2,82,127,32
2,75,127,32
2,84,127,528
2,82,127,32
2,75,127,32
2,84,127,528
2,82,127,368
2,82,127,112
2,84,127,16
2,79,127,192
2,80,127,0
2,82,127,16
2,75,127,16
2,84,127,544
2,82,127,32
2,75,127,32
2,84,127,528
2,82,127,32
2,75,127,32
2,84,127,528
2,82,127,368
2,82,127,112
2,84,127,16
2,79,127,192
2,80,127,0
2,82,127,16
2,75,127,16
2,84,127,544
2,82,127,32
2,75,127,32
2,84,127,528
2,82,127,32
2,75,127,32
2,84,127,528
2,82,127,368
2,82,127,112
2,84,127,16
2,79,127,192
2,80,127,0
2,68,127,0
2,80,127,0
2,63,127,128
2,75,115,0
2,65,126,112
2,77,126,0
2,78,127,96
2,66,127,16
2,65,127,128
2,77,126,0
2,76,127,80
2,64,127,16
2,63,126,336
2,75,127,0
2,80,127,128
2,68,127,0
2,63,127,176
2,75,126,0
2,65,126,128
2,77,127,16
2,66,127,128
2,78,127,0
2,75,91,0
2,65,127,128
2,77,115,0
2,64,127,96
2,76,127,16
2,75,127,96
2,63,127,0
2,80,127,80
2,68,127,0
2,75,115,144
2,63,126,16
2,65,127,128
2,77,127,0
2,66,127,128
2,78,127,0
2,75,80,16
2,65,127,112
2,77,127,0
2,64,127,112
2,76,127,0
2,75,127,112
2,63,127,0
2,76,126,0
2,68,127,80
2,80,127,0
2,63,127,128
2,75,126,0
2,65,127,112
2,77,126,0
2,78,127,112
2,66,127,0
2,75,68,16
2,65,127,144
2,77,127,16
2,64,127,96
2,76,127,0
2,66,91,16
2,75,127,128
2,63,126,0
2,63,127,80
2,75,126,0
2,63,115,80
2,75,103,0
2,75,126,256
2,63,127,16
2,63,91,48
2,75,127,288
2,63,127,16
2,75,91,16
2,63,91,16
2,60,127,1776
2,72,127,0
2,62,127,1920
2,74,127,16
2,63,127,16
2,75,127,0
2,67,127,784
2,79,127,0
2,65,127,16
2,77,127,0
2,63,127,0
2,75,127,0
2,65,127,16
2,77,127,0
2,60,127,0
2,72,127,0
2,56,127,1552
2,68,127,16
2,58,127,0
