track,note,velocity,time
0,38,114,1172
0,38,118,28
0,38,118,36
0,39,99,0
0,70,66,0
0,30,110,0
0,70,68,16
0,32,116,0
0,47,111,16
0,70,64,0
0,35,112,0
0,32,115,12
0,36,121,16
0,70,65,0
0,35,112,0
0,75,104,0
0,51,98,0
0,70,69,72
0,54,94,0
0,42,64,72
0,69,52,0
0,70,66,0
0,59,85,0
0,63,87,0
0,66,90,0
0,56,94,0
0,69,54,16
0,70,65,0
0,59,96,0
0,38,112,16
0,42,60,0
0,69,56,0
0,39,96,0
0,70,70,0
0,66,105,0
0,70,62,92
0,59,99,0
0,36,89,16
0,42,63,0
0,69,51,0
0,70,70,0
0,35,113,0
0,54,90,0
0,59,90,0
0,63,93,0
0,68,102,0
0,56,97,0
0,69,49,16
0,70,67,0
0,54,97,0
0,36,127,72
0,42,61,0
0,69,57,0
0,70,69,0
0,37,112,0
0,59,102,0
0,70,64,72
0,59,98,0
0,42,67,72
0,69,55,0
0,70,65,0
0,56,86,0
0,61,86,0
0,64,93,0
0,56,100,0
0,69,53,16
0,70,61,0
0,38,109,16
0,42,67,0
0,69,49,0
0,39,101,0
0,70,63,0
0,75,110,0
0,70,65,92
0,36,125,16
0,42,66,0
0,69,53,0
0,70,68,0
0,37,109,0
0,52,92,0
0,56,86,0
0,61,85,0
0,73,102,0
0,69,51,16
0,70,61,0
0,36,125,60
0,42,60,0
0,69,58,0
0,70,68,0
0,40,109,0
0,80,98,0
0,76,100,0
0,70,65,0
0,42,62,16
0,69,50,0
0,70,68,0
0,56,90,0
0,59,86,0
0,64,86,0
0,75,108,0
0,69,49,16
0,70,70,0
0,76,94,0
0,80,95,0
0,38,117,0
0,42,64,0
0,69,49,0
0,39,95,0
0,70,61,0
0,70,66,92
0,36,89,92
0,42,61,0
0,69,54,0
0,70,61,0
0,40,110,0
0,56,87,0
0,59,85,0
0,64,92,0
0,69,51,16
0,70,69,0
0,36,127,92
0,42,60,0
0,69,54,0
0,70,69,0
0,42,116,0
0,76,109,0
0,70,64,16
0,42,66,92
0,69,49,0
0,70,70,0
0,56,90,0
0,59,87,0
0,64,91,0
0,76,107,0
0,69,50,16
0,70,65,0
0,36,127,92
0,38,117,0
0,42,61,0
0,69,56,0
0,39,94,0
0,70,61,0
0,40,114,0
0,76,101,0
0,70,66,16
0,42,67,92
0,69,57,0
0,70,68,0
0,56,94,0
0,59,85,0
0,64,87,0
0,75,102,0
0,69,57,12
0,70,66,0
0,36,121,92
0,42,63,0
0,69,51,0
0,70,62,0
0,35,112,0
0,51,102,0
0,68,116,0
0,70,68,24
0,54,96,0
0,42,62,72
0,69,49,0
0,70,63,0
0,54,85,0
0,59,86,0
0,63,89,0
0,56,99,0
0,69,55,16
0,70,65,0
0,59,103,0
0,38,115,12
0,42,67,0
0,39,101,0
0,69,53,0
0,70,63,0
0,66,103,0
0,66,115,0
0,70,69,92
0,59,100,0
0,36,85,16
0,42,63,0
0,69,51,0
0,70,68,0
0,35,110,0
0,54,90,0
0,59,94,0
0,63,89,0
0,68,102,0
0,56,101,0
0,69,53,16
0,70,65,0
0,54,94,0
0,36,123,12
0,42,60,0
0,69,50,0
0,70,61,0
0,37,110,0
0,59,95,0
0,63,116,0
0,70,66,72
0,59,103,0
0,42,66,16
0,69,54,0
0,70,61,0
0,56,92,0
0,61,93,0
0,64,88,0
0,56,98,0
0,69,53,32
0,70,62,0
0,38,112,12
0,42,65,0
0,39,96,0
0,69,49,0
0,70,64,0
0,61,112,0
0,70,65,4
0,59,116,0
0,42,65,92
0,69,55,0
0,70,67,0
0,52,87,0
0,56,93,0
0,61,91,0
0,36,124,12
0,69,54,0
0,70,68,0
0,42,116,0
0,42,61,12
0,69,49,0
0,70,65,0
0,56,116,0
0,36,119,92
0,70,64,0
0,40,109,0
0,36,121,16
0,42,68,0
0,69,58,0
0,70,62,0
0,42,109,0
0,56,86,0
0,59,85,0
0,64,91,0
0,69,53,32
0,70,68,0
0,38,113,92
0,42,61,0
0,69,55,0
0,39,101,0
0,70,69,0
0,70,66,16
0,36,91,12
0,42,64,0
0,69,51,0
0,70,70,0
0,39,114,0
0,56,88,0
0,59,93,0
0,64,91,0
0,69,50,16
0,70,61,0
0,36,122,92
0,42,61,0
0,69,52,0
0,70,69,0
0,40,111,0
0,59,115,0
0,70,65,4
0,42,64,92
0,69,50,0
0,70,64,0
0,56,87,0
0,59,89,0
0,64,92,0
0,59,117,0
0,69,49,16
0,70,69,0
0,36,125,12
0,38,117,0
0,42,63,0
0,39,94,0
0,69,53,0
0,70,68,0
0,39,110,0
0,61,109,0
0,38,112,4
0,39,101,0
0,70,69,0
0,63,117,0
0,36,123,4
0,42,68,0
0,69,50,0
0,70,63,0
0,56,92,0
0,59,85,0
0,64,94,0
0,69,57,32
0,70,62,0
0,63,116,0
0,36,121,92
0,42,61,0
0,54,74,0
0,69,55,0
0,70,70,0
0,35,118,0
0,70,61,16
0,42,60,12
0,69,53,0
0,70,65,0
0,35,116,0
0,59,86,0
0,63,89,0
0,66,85,0
0,59,118,0
0,69,57,16
0,70,69,0
0,35,110,0
0,38,111,16
0,42,63,0
0,69,55,0
0,39,95,0
0,70,67,0
0,35,116,0
0,70,68,16
0,35,118,0
0,36,90,12
0,42,63,0
0,69,51,0
0,70,67,0
0,39,117,0
0,59,94,0
0,63,89,0
0,66,88,0
0,61,115,0
0,69,55,16
0,70,64,0
0,36,121,92
0,42,68,0
0,69,56,0
0,70,70,0
0,40,111,0
0,70,64,92
0,42,61,12
0,69,55,0
0,70,70,0
0,56,87,0
0,59,88,0
0,64,85,0
0,63,112,0
0,69,54,4
0,70,66,0
0,38,110,92
0,42,60,0
0,69,55,0
0,39,100,0
0,70,65,0
0,70,68,92
0,36,120,92
0,42,65,0
0,69,55,0
0,70,64,0
0,40,115,0
0,56,92,0
0,59,94,0
0,64,89,0
0,69,58,16
0,70,61,0
0,36,127,92
0,42,68,0
0,69,57,0
0,70,69,0
0,42,111,0
0,70,64,92
0,42,59,16
0,69,50,0
0,70,69,0
0,58,86,0
0,61,94,0
0,66,87,0
0,69,57,32
0,70,70,0
0,38,115,92
0,42,61,0
0,39,94,0
0,69,54,0
0,70,62,0
0,70,67,92
0,36,90,92
0,42,63,0
0,69,53,0
0,70,66,0
0,42,111,0
0,58,86,0
0,61,91,0
0,66,92,0
0,61,109,0
0,69,50,16
0,70,61,0
0,36,119,12
0,42,64,0
0,69,54,0
0,70,67,0
0,40,115,0
0,61,117,0
0,70,63,92
0,42,65,12
0,69,56,0
0,70,63,0
0,56,93,0
0,59,86,0
0,64,94,0
0,59,110,0
0,69,57,16
0,70,65,0
0,36,122,12
0,38,116,0
0,42,65,0
0,69,50,0
0,39,94,0
0,70,65,0
0,39,109,0
0,61,110,0
0,70,63,24
0,42,68,12
0,69,57,0
0,70,65,0
0,56,85,0
0,59,94,0
0,64,89,0
0,63,110,0
0,69,51,32
0,70,61,0
0,36,124,12
0,42,59,0
0,69,50,0
0,70,62,0
0,35,116,0
0,59,113,0
0,70,65,16
0,42,68,92
0,69,52,0
0,70,70,0
0,35,113,0
0,59,92,0
0,63,94,0
0,66,85,0
0,69,54,16
0,70,63,0
0,35,110,0
0,38,113,16
0,42,65,0
0,39,96,0
0,69,55,0
0,70,70,0
0,35,115,0
0,70,69,16
0,35,117,0
0,36,91,16
0,42,67,0
0,69,58,0
0,70,68,0
0,39,118,0
0,59,87,0
0,63,92,0
0,66,93,0
0,69,55,16
0,70,64,0
0,36,127,12
0,42,60,0
0,69,51,0
0,70,65,0
0,40,116,0
0,61,118,0
0,70,68,4
0,59,113,0
0,42,67,4
0,69,57,0
0,70,65,0
0,56,85,0
0,59,86,0
0,64,88,0
0,56,113,0
0,69,55,32
0,70,66,0
0,38,115,92
0,42,61,0
0,39,97,0
0,69,58,0
0,70,63,0
0,70,62,92
0,42,68,92
0,69,51,0
0,70,69,0
0,56,92,0
0,59,91,0
0,64,93,0
0,36,121,32
0,69,57,0
0,70,62,0
0,42,116,0
0,42,65,12
0,69,50,0
0,70,65,0
0,36,123,92
0,70,69,0
0,40,114,0
0,36,120,16
0,42,59,0
0,69,58,0
0,70,70,0
0,42,110,0
0,58,92,0
0,61,87,0
0,66,86,0
0,69,56,32
0,70,62,0
0,38,115,16
0,42,63,0
0,39,98,0
0,69,54,0
0,70,67,0
0,70,70,92
0,36,88,92
0,42,59,0
0,69,53,0
0,70,67,0
0,39,116,0
0,58,86,0
0,61,91,0
0,66,90,0
0,59,110,0
0,69,53,16
0,70,64,0
0,36,127,12
0,42,65,0
0,69,54,0
0,70,68,0
0,40,115,0
0,59,116,0
0,70,66,24
0,42,63,12
0,69,49,0
0,70,61,0
0,56,90,0
0,59,93,0
0,64,87,0
0,59,115,0
0,69,58,32
0,70,70,0
0,36,119,12
0,38,111,0
0,42,68,0
0,69,54,0
0,39,98,0
0,70,67,0
0,39,113,0
0,61,111,0
0,39,99,4
0,70,61,0
0,63,112,0
0,36,123,4
0,42,61,0
0,69,55,0
0,70,61,0
0,56,93,0
0,59,88,0
0,64,85,0
0,69,58,32
0,70,62,0
0,63,112,0
0,36,121,92
0,42,64,0
0,69,51,0
0,70,69,0
0,35,117,0
0,70,67,12
0,61,116,0
0,42,61,4
0,69,52,0
0,70,62,0
0,35,117,0
0,59,94,0
0,63,91,0
0,66,87,0
0,59,116,0
0,69,53,16
0,70,68,0
0,35,115,0
0,38,111,16
0,42,59,0
0,69,56,0
0,39,96,0
0,70,64,0
0,35,116,0
0,70,63,16
0,35,110,0
0,36,87,12
0,42,61,0
0,69,58,0
0,70,63,0
0,39,112,0
0,59,92,0
0,63,94,0
0,66,93,0
0,61,114,0
0,69,49,16
0,70,64,0
0,36,124,92
0,42,64,0
0,69,58,0
0,70,66,0
0,40,118,0
0,70,61,92
0,42,62,12
0,69,49,0
0,70,61,0
0,56,93,0
0,59,91,0
0,64,93,0
0,63,114,0
0,69,51,4
0,70,70,0
0,38,110,92
0,42,66,0
0,69,53,0
0,39,95,0
0,70,64,0
0,70,62,92
0,36,123,92
0,42,61,0
0,69,52,0
0,70,67,0
0,40,116,0
0,56,92,0
0,59,89,0
0,64,90,0
0,69,53,16
0,70,69,0
0,36,122,92
0,42,68,0
0,69,51,0
0,70,64,0
0,42,115,0
0,70,62,92
0,42,62,16
0,69,55,0
0,70,67,0
0,58,87,0
0,61,88,0
0,66,85,0
0,69,58,32
0,70,69,0
0,38,112,92
0,42,63,0
0,39,100,0
0,69,49,0
0,70,63,0
0,70,62,92
0,36,85,92
0,42,68,0
0,69,50,0
0,70,61,0
0,42,111,0
0,58,94,0
0,61,89,0
0,66,87,0
0,69,57,16
0,70,63,0
0,36,122,92
0,42,65,0
0,69,56,0
0,70,63,0
0,40,114,0
0,59,114,0
0,70,65,24
0,42,62,16
0,69,58,0
0,70,68,0
0,56,92,0
0,59,90,0
0,64,91,0
0,69,49,32
0,70,68,0
0,36,120,12
0,38,110,0
0,42,61,0
0,69,51,0
0,39,101,0
0,70,64,0
0,39,109,0
0,56,114,0
0,70,62,92
0,42,65,12
0,69,55,0
0,70,64,0
0,56,89,0
0,59,88,0
0,64,89,0
0,59,111,0
0,69,53,32
0,70,63,0
0,36,120,12
0,42,63,0
0,69,52,0
0,70,67,0
0,35,110,0
0,59,112,0
0,70,64,4
0,59,114,0
0,42,62,4
0,69,52,0
0,70,62,0
0,35,117,0
0,59,89,0
0,63,85,0
0,66,94,0
0,59,109,0
0,69,50,16
0,70,66,0
0,35,112,0
0,38,109,12
0,42,60,0
0,39,102,0
0,69,56,0
0,70,68,0
0,35,114,0
0,56,116,0
0,70,61,16
0,35,115,0
0,36,85,12
0,42,66,0
0,69,55,0
0,70,67,0
0,39,109,0
0,59,89,0
0,63,94,0
0,66,86,0
0,54,115,0
0,69,52,16
0,70,63,0
0,36,124,12
0,42,61,0
0,69,49,0
0,70,63,0
0,40,111,0
0,70,61,92
0,42,65,16
0,69,55,0
0,70,66,0
0,56,91,0
0,59,89,0
0,64,87,0
0,69,49,32
0,70,64,0
0,38,118,92
0,42,64,0
0,39,98,0
0,69,52,0
0,70,70,0
0,70,64,92
0,42,64,92
0,69,52,0
0,70,63,0
0,56,86,0
0,59,90,0
0,64,93,0
0,36,119,32
0,69,56,0
0,70,67,0
0,42,113,0
0,42,68,16
0,69,58,0
0,70,63,0
0,36,125,92
0,70,63,0
0,40,110,0
0,36,127,16
0,42,64,0
0,69,52,0
0,70,69,0
0,42,116,0
0,58,90,0
0,61,94,0
0,66,94,0
0,69,55,32
0,70,66,0
0,38,116,16
0,42,65,0
0,39,101,0
0,69,54,0
0,70,62,0
0,70,67,92
0,36,83,92
0,42,63,0
0,69,55,0
0,70,65,0
0,39,115,0
0,58,89,0
0,61,88,0
0,66,91,0
0,69,52,16
0,70,61,0
0,36,127,92
0,42,68,0
0,69,53,0
0,70,69,0
0,40,115,0
0,70,67,92
0,42,66,92
0,69,51,0
0,70,67,0
0,56,92,0
0,59,94,0
0,64,90,0
0,64,109,0
0,69,51,4
0,70,69,0
0,36,124,92
0,38,113,0
0,42,68,0
0,69,51,0
0,39,98,0
0,70,65,0
0,47,114,0
0,64,115,0
0,39,103,4
0,70,62,0
0,47,115,0
0,63,113,0
0,36,125,4
0,42,67,0
0,69,56,0
0,70,61,0
0,47,112,0
0,56,89,0
0,59,86,0
0,64,94,0
0,61,116,0
0,69,50,4
0,70,68,0
0,47,111,0
0,59,109,0
0,36,127,4
0,42,64,0
0,69,54,0
0,70,69,0
0,40,113,0
0,64,60,0
0,68,58,0
0,71,59,0
0,75,56,0
0,70,68,92
0,42,66,16
0,69,58,0
0,70,70,0
0,52,89,0
0,56,89,0
0,59,85,0
0,56,103,0
0,64,111,0
0,69,51,4
0,70,62,0
0,38,118,16
0,42,67,0
0,39,100,0
0,69,49,0
0,70,67,0
0,59,102,0
0,64,109,0
0,70,62,4
0,63,112,0
0,36,91,4
0,42,65,0
0,69,53,0
0,70,64,0
0,40,115,0
0,52,94,0
0,56,86,0
0,59,88,0
0,63,105,0
0,61,115,0
0,69,57,4
0,70,64,0
0,59,111,0
0,36,127,4
0,42,66,0
0,69,55,0
0,70,69,0
0,40,110,0
0,70,70,92
0,42,62,16
0,69,57,0
0,70,70,0
0,52,85,0
0,56,93,0
0,59,91,0
0,64,114,0
0,69,56,4
0,70,67,0
0,38,110,92
0,42,67,0
0,39,96,0
0,69,58,0
0,70,63,0
0,37,109,0
0,64,117,0
0,70,62,4
0,37,118,0
0,63,113,0
0,42,66,4
0,69,58,0
0,70,66,0
0,37,118,0
0,52,87,0
0,56,91,0
0,59,89,0
0,61,117,0
0,69,58,4
0,70,61,0
0,37,116,0
0,59,115,0
0,36,124,4
0,42,66,0
0,69,55,0
0,70,63,0
0,42,109,0
0,61,103,0
0,66,63,0
0,71,59,0
0,73,56,0
0,70,66,92
0,42,60,16
0,69,53,0
0,70,70,0
0,54,88,0
0,59,86,0
0,61,92,0
0,56,110,0
0,69,52,4
0,70,65,0
0,38,115,92
0,42,61,0
0,69,50,0
0,39,99,0
0,70,70,0
0,59,114,0
0,70,64,4
0,36,87,92
0,42,60,0
0,69,58,0
0,70,62,0
0,42,117,0
0,54,86,0
0,59,90,0
0,61,91,0
0,59,110,0
0,69,49,4
0,70,68,0
0,56,114,0
0,36,120,92
0,42,60,0
0,69,57,0
0,70,63,0
0,42,111,0
0,70,69,12
0,42,68,92
0,69,49,0
0,70,67,0
0,54,87,0
0,59,86,0
0,61,90,0
0,69,57,32
0,70,62,0
0,38,115,92
0,42,67,0
0,39,95,0
0,69,52,0
0,70,63,0
0,47,111,0
0,64,114,0
0,70,64,16
0,47,115,0
0,63,112,24
0,42,60,16
0,69,53,0
0,70,66,0
0,47,117,0
0,54,88,0
0,59,86,0
0,61,85,0
0,61,114,0
0,69,52,16
0,70,63,0
0,47,118,0
0,36,119,16
0,42,65,0
0,69,56,0
