track,note,velocity,time
1,54,84,2288
1,55,84,108
1,58,84,0
1,63,111,16
1,27,111,0
1,39,111,0
1,51,111,0
1,55,111,0
1,60,73,12
1,63,68,0
1,58,104,0
1,51,75,0
1,55,87,0
1,39,91,40
1,63,96,96
1,60,94,4
1,51,94,0
1,55,93,0
1,58,117,0
1,39,80,16
1,63,96,72
1,60,91,0
1,55,91,4
1,51,90,0
1,58,117,0
1,39,82,4
1,63,94,184
1,60,92,4
1,55,91,0
1,51,89,0
1,58,117,0
1,27,86,140
1,39,90,4
1,63,94,52
1,51,92,4
1,60,90,4
1,55,92,0
1,58,116,0
1,60,90,8
1,39,95,0
1,55,89,0
1,51,85,8
1,58,114,4
1,54,104,0
1,51,95,0
1,55,85,92
1,39,101,0
1,51,79,28
1,55,90,76
1,39,102,20
1,51,100,0
1,56,115,4
1,60,90,0
1,51,94,16
1,58,113,4
1,55,99,0
1,27,102,116
1,39,102,0
1,51,84,52
1,39,125,116
1,60,116,8
1,51,116,0
1,55,115,0
1,58,125,0
1,63,101,0
1,39,107,132
1,63,90,4
1,51,88,0
1,60,88,0
1,58,112,0
1,55,88,0
1,63,77,40
1,60,77,0
1,55,77,0
1,58,77,0
1,51,77,0
1,39,84,12
1,63,91,96
1,60,90,0
1,51,87,4
1,58,114,0
1,55,90,0
1,39,91,4
1,63,91,184
1,51,88,4
1,55,85,0
1,60,86,0
1,58,102,4
1,39,92,4
1,60,90,8
1,55,85,0
1,51,84,0
1,58,97,88
1,51,90,0
1,54,96,0
1,55,80,108
1,39,89,4
1,51,75,60
1,39,113,152
1,56,119,0
1,60,100,0
1,51,119,4
1,58,114,36
1,51,89,0
1,55,98,0
1,58,98,4
1,54,92,0
1,51,90,0
1,27,100,0
1,55,74,180
1,51,70,4
1,58,100,312
1,51,113,0
1,54,117,0
1,55,60,188
1,39,90,40
1,63,79,104
1,27,89,0
1,51,94,0
1,55,87,0
1,60,76,0
1,39,111,0
1,58,94,0
1,63,87,208
1,51,83,0
1,58,88,0
1,55,76,0
1,60,73,0
1,39,96,36
1,51,108,192
1,58,103,0
1,54,117,0
1,55,71,0
1,51,79,108
1,39,87,4
1,54,75,28
1,56,100,44
1,44,111,0
1,32,76,0
1,63,103,4
1,59,122,0
1,60,72,16
1,44,78,64
1,44,92,112
1,63,99,84
1,56,108,0
1,59,121,0
1,60,72,184
1,44,79,64
1,68,98,136
1,44,108,0
1,60,92,0
1,32,82,0
1,56,98,0
1,65,88,0
1,63,96,0
1,56,98,272
1,68,92,0
1,65,90,0
1,60,103,0
1,63,96,4
1,65,71,36
1,60,71,0
1,68,64,0
1,63,83,0
1,44,79,80
1,60,122,108
1,65,111,0
1,56,117,0
1,63,121,0
1,68,108,0
1,68,62,92
1,65,71,0
1,60,71,0
1,63,84,0
1,44,96,4
1,65,73,180
1,56,75,0
1,68,67,0
1,60,73,0
1,63,89,0
1,34,92,100
1,61,121,4
1,65,98,0
1,46,122,0
1,58,111,4
1,62,81,4
1,46,87,120
1,65,117,96
1,62,122,0
1,58,122,0
1,46,80,156
1,58,73,12
1,34,96,84
1,46,111,4
1,58,103,0
1,70,100,8
1,65,122,0
1,62,122,0
1,67,108,4
1,70,84,144
1,67,82,0
1,58,86,0
1,62,86,0
1,65,83,0
1,46,99,132
1,70,106,68
1,65,122,4
1,67,117,0
1,62,122,0
1,58,122,0
1,58,80,4
1,46,103,8
1,56,100,212
1,63,87,0
1,44,113,0
1,59,117,0
1,32,94,0
1,60,67,52
1,44,73,264
1,56,108,128
1,63,103,0
1,60,122,4
1,60,75,56
1,63,73,0
1,44,108,40
1,44,65,4
1,54,90,4
1,55,96,132
1,39,96,16
1,55,75,20
1,63,99,0
1,51,94,40
1,63,100,104
1,55,92,0
1,51,96,192
1,63,98,72
1,55,83,4
1,60,79,188
1,54,99,144
1,55,101,156
1,39,101,0
1,51,101,0
1,55,76,40
1,63,100,0
1,51,67,16
1,63,112,104
1,55,112,0
1,51,73,0
1,63,92,16
1,55,121,4
1,51,72,0
1,39,80,168
1,49,81,0
1,51,108,200
1,58,94,0
1,54,99,0
1,55,71,4
1,51,68,24
1,58,111,20
1,61,98,8
1,46,90,0
1,51,94,0
1,51,98,120
1,60,96,0
1,56,99,0
1,49,74,0
1,39,71,4
1,51,88,76
1,58,103,0
1,54,90,0
1,49,78,0
1,46,77,8
1,55,72,72
1,46,74,52
1,60,73,200
1,51,88,0
1,55,86,0
1,63,89,0
1,58,108,0
1,49,72,0
1,60,83,92
1,58,103,0
1,63,90,0
1,55,83,0
1,51,85,0
1,49,80,176
1,46,76,4
1,39,67,0
1,51,87,92
1,51,85,96
1,44,76,4
1,56,103,204
1,63,96,0
1,59,117,0
1,60,72,16
1,44,80,80
1,63,92,0
1,56,87,0
1,60,83,4
1,54,75,0
1,51,71,0
1,65,97,212
1,56,97,0
1,44,97,0
1,61,97,4
1,54,97,0
1,51,96,8
1,56,94,124
1,63,106,0
1,59,100,0
1,44,83,0
1,54,81,0
1,51,83,4
1,60,72,36
1,51,72,0
1,65,89,144
1,68,98,0
1,60,98,0
1,56,100,0
1,63,106,0
1,44,74,8
1,54,73,0
1,65,78,184
1,56,87,8
1,60,81,0
1,68,82,0
1,63,103,0
1,51,90,184
1,56,85,24
1,53,100,4
1,46,96,0
1,56,87,0
1,65,87,0
1,61,111,0
1,58,103,12
1,62,100,0
1,58,99,72
1,67,94,0
1,63,113,0
1,67,89,84
1,63,98,8
1,58,98,0
1,53,108,0
1,65,78,24
1,61,90,0
1,46,96,24
1,62,74,8
1,67,90,48
1,58,108,0
1,63,113,4
1,56,89,0
1,53,89,0
1,53,94,12
1,58,112,192
1,67,112,0
1,63,112,8
1,53,89,4
1,67,96,4
1,58,99,4
1,63,90,0
1,65,92,44
1,61,99,0
1,46,100,8
1,56,90,0
1,62,89,40
1,51,98,60
1,56,100,28
1,63,94,0
1,59,111,0
1,60,68,32
1,56,72,28
1,51,122,56
1,56,94,8
1,63,96,0
1,60,122,8
1,44,79,72
1,63,77,0
1,56,76,12
1,60,76,0
1,56,73,88
1,39,84,96
1,46,94,4
1,63,100,148
1,58,108,0
1,55,85,8
1,60,86,0
1,55,86,228
1,66,90,0
1,61,100,0
1,55,71,40
1,55,90,92
1,58,94,0
1,63,90,0
1,60,72,8
1,60,84,324
1,66,89,8
1,55,78,0
1,61,94,8
1,55,66,40
1,63,80,184
1,60,73,0
1,58,106,0
1,65,95,28
1,61,95,0
1,58,95,0
1,62,97,8
1,65,87,92
1,58,88,0
1,62,86,0
1,46,80,16
1,56,77,0
1,65,99,156
1,68,80,4
1,58,106,0
1,53,78,20
1,67,99,24
1,58,100,0
1,63,108,4
1,56,82,0
1,46,77,8
1,58,98,152
1,65,82,0
1,61,92,0
1,62,72,192
1,53,75,32
1,58,99,204
1,62,122,0
1,70,111,0
1,65,117,4
1,56,73,0
1,70,92,112
1,62,80,0
1,58,88,0
1,65,85,0
1,56,80,32
1,58,72,0
1,44,87,16
1,56,62,396
1,51,78,144
1,56,117,100
1,63,106,0
1,59,122,0
1,60,69,200
1,51,75,24
1,63,87,188
1,55,75,0
1,58,92,0
1,39,77,36
1,55,75,176
1,58,96,0
1,63,87,8
1,46,73,8
1,51,76,8
1,54,94,188
1,63,90,0
1,55,88,0
1,63,74,60
1,51,77,0
1,58,106,4
1,63,87,84
1,55,84,8
1,58,103,0
1,39,76,0
1,51,77,0
1,54,87,196
1,63,96,0
1,55,89,188
1,63,87,52
1,58,103,4
1,51,74,4
1,63,80,116
1,55,77,8
1,58,92,4
1,54,94,200
1,58,96,0
1,63,86,0
1,55,69,0
1,58,99,48
1,63,90,0
1,55,83,4
1,56,76,48
1,63,87,0
1,51,86,0
1,60,76,0
1,56,71,32
1,46,90,0
1,56,85,0
1,65,106,0
1,61,111,0
1,58,121,0
1,62,75,176
1,65,80,88
1,58,78,0
1,62,76,0
1,65,89,68
1,58,87,0
1,62,82,4
1,65,106,92
1,58,106,4
1,62,121,0
1,65,98,80
1,62,121,0
1,58,94,12
1,58,87,16
1,65,122,80
1,68,108,0
1,58,84,0
1,56,77,8
1,46,79,0
1,58,86,52
1,67,98,0
1,63,99,4
1,58,76,8
1,53,113,68
1,58,106,8
1,65,111,0
1,61,106,0
1,62,77,60
1,56,74,16
1,55,75,108
1,39,84,84
1,55,108,0
1,63,94,0
1,58,111,0
1,55,70,92
1,58,76,8
1,51,76,28
1,55,122,196
1,63,122,0
1,58,88,96
1,46,87,44
1,63,86,112
1,56,98,0
1,60,106,0
1,44,78,124
1,63,78,120
1,56,74,0
1,60,80,0
1,51,72,40
1,63,108,116
1,56,113,0
1,60,122,0
1,51,87,40
1,56,72,16
1,63,103,64
1,55,122,0
1,39,92,8
1,58,121,0
1,65,99,376
1,38,85,0
1,55,87,0
1,62,84,0
1,50,87,0
1,58,111,8
1,63,111,284
1,55,94,12
1,58,117,0
1,48,94,0
1,60,87,0
1,63,108,52
1,46,103,0
1,55,87,4
1,58,113,0
1,56,87,40
1,63,94,0
1,59,88,0
1,54,79,4
1,44,81,0
1,60,78,188
1,51,71,116
1,60,81,108
1,63,94,0
1,56,87,4
1,63,94,124
1,60,84,0
1,56,86,0
1,51,79,16
1,56,55,48
1,39,84,40
1,63,82,4
1,55,96,0
1,58,106,4
1,55,63,68
1,58,78,4
1,51,87,12
1,55,117,192
1,63,113,0
1,58,94,16
1,51,71,108
1,58,74,136
1,46,84,48
1,58,60,0
1,53,74,0
1,65,92,8
1,56,87,0
1,61,98,0
1,62,79,24
1,65,75,24
1,58,71,4
1,62,76,8
1,62,78,48
1,65,106,92
1,62,106,8
1,58,122,0
1,53,88,0
1,46,84,84
1,55,72,92
1,39,83,24
1,63,106,8
1,55,106,0
1,51,77,0
1,58,103,0
1,46,72,4
1,51,72,16
1,54,121,192
1,55,81,192
1,58,94,144
1,58,108,64
1,63,106,0
1,55,87,0
1,51,71,0
1,55,87,96
1,63,86,0
1,58,103,4
1,51,66,20
1,54,117,236
1,63,52,0
1,55,87,120
1,63,52,0
1,51,78,4
1,63,94,28
1,55,86,0
1,58,113,4
1,51,78,172
1,63,111,188
1,54,122,8
1,55,74,28
1,53,89,172
1,60,82,4
1,57,79,4
1,57,103,104
1,60,103,0
1,53,103,0
1,51,92,388
1,53,117,32
1,56,122,0
1,60,106,8
1,57,83,12
1,56,90,32
1,59,96,48
1,63,88,0
1,56,108,0
1,60,76,24
1,56,76,44
1,63,88,8
1,60,82,0
1,63,89,52
1,56,83,0
1,60,96,8
1,54,98,92
1,56,98,8
1,63,98,0
1,60,98,8
1,63,98,68
1,54,113,0
1,51,82,12
1,55,92,0
1,51,97,76
1,63,97,0
1,56,97,0
1,60,97,0
1,63,106,28
1,58,106,0
1,55,106,8
1,54,73,0
1,51,106,20
1,54,111,12
1,63,98,8
1,55,117,16
1,46,90,16
1,51,90,8
1,63,113,16
1,55,122,12
1,58,122,0
1,51,92,4
1,53,99,12
1,56,100,0
1,60,79,4
1,57,78,12
1,53,82,48
1,57,87,4
1,60,78,4
1,53,82,8
1,57,79,0
1,60,78,4
1,56,119,44
1,53,119,0
1,60,119,12
1,57,83,184
1,51,98,168
1,58,88,16
1,56,108,16
1,53,108,0
1,58,108,0
1,65,108,0
1,61,108,0
1,62,79,0
1,53,117,16
1,56,84,16
1,68,108,24
1,58,117,0
1,65,122,0
1,65,74,16
1,68,73,0
1,58,73,0
1,67,100,0
1,58,122,0
1,63,121,0
1,53,87,116
1,65,122,136
1,58,122,0
1,61,122,0
1,62,80,12
1,46,87,104
1,56,84,8
1,58,102,40
1,70,102,0
1,62,102,0
1,67,102,4
1,65,102,0
1,62,99,8
1,58,99,0
1,70,99,0
1,65,99,0
1,67,99,0
1,53,78,144
1,56,78,0
1,58,76,4
1,51,121,32
1,39,89,0
1,55,103,380
1,58,108,0
1,63,88,0
1,46,90,8
1,55,122,32
1,63,117,0
1,58,88,44
1,51,87,4
1,56,111,20
1,57,113,0
1,60,94,0
1,41,96,164
1,53,94,140
1,57,80,0
1,60,78,0
1,48,85,0
1,51,94,128
1,53,122,192
1,57,122,0
1,60,111,0
1,48,99,16
1,56,78,76
1,44,94,32
1,54,106,0
1,63,98,0
1,56,122,0
1,59,122,0
1,60,78,180
1,60,83,48
1,63,88,8
1,56,80,0
1,56,87,40
1,63,90,0
1,60,90,12
1,51,81,172
1,56,122,160
1,60,122,0
1,54,122,8
1,56,75,80
1,39,90,112
1,63,108,0
1,51,108,12
1,58,122,0
1,55,122,0
1,55,75,48
1,46,87,68
1,63,99,64
1,56,121,0
1,60,87,12
1,55,85,20
1,58,96,20
1,51,100,24
1,55,72,32
1,51,99,108
1,63,113,0
1,39,106,0
1,58,122,0
1,55,122,0
1,55,122,72
1,65,122,0
1,58,122,0
1,62,103,0
1,50,100,0
1,38,98,0
1,63,106,480
1,48,92,0
1,55,94,0
1,58,121,0
1,60,83,4
1,46,108,16
1,63,111,4
1,55,111,0
1,58,122,4
1,44,89,72
1,54,96,12
1,56,121,0
1,59,122,0
1,63,108,0
1,60,72,184
1,51,75,0
1,63,86,40
1,60,92,0
1,56,82,0
1,56,96,16
1,60,100,0
1,63,90,0
1,54,98,16
1,56,74,52
1,39,89,16
1,46,111,0
1,51,100,4
1,55,70,4
1,63,56,4
1,56,81,60
1,51,72,4
1,55,55,0
1,46,71,4
1,51,54,8
1,58,66,0
1,51,64,92
1,51,91,192
1,46,65,148
1,51,66,76
1,46,58,152
1,46,66,100
1,48,92,88
1,51,72,16
1,46,66,0
1,39,70,4
1,46,70,0
1,51,71,376
1,56,71,0
1,55,60,32
1,58,65,56
1,46,66,0
1,51,63,0
1,51,64,36
1,46,58,84
1,51,79,144
1,46,66,64
1,51,81,84
1,46,73,48
1,48,97,92
1,46,69,40
1,51,76,4
1,39,80,116
1,49,81,0
1,51,108,200
1,58,94,0
1,54,99,0
1,55,71,4
1,51,68,24
1,58,111,20
1,61,98,8
1,46,90,0
1,51,94,0
1,51,98,120
1,60,96,0
1,56,99,0
1,49,74,0
1,39,71,4
1,51,88,76
1,58,103,0
1,54,90,0
1,49,78,0
1,46,77,8
1,55,72,72
1,46,74,52
1,60,73,200
1,51,88,0
1,55,86,0
1,63,89,0
1,58,108,0
1,49,72,0
1,60,83,92
1,58,103,0
1,63,90,0
1,55,83,0
1,51,85,0
1,49,80,176
1,46,76,4
1,39,67,0
1,51,87,92
1,51,85,96
1,44,76,4
1,56,103,204
1,63,96,0
1,59,117,0
1,60,72,16
1,44,80,80
1,63,92,0
1,56,87,0
1,60,83,4
1,54,75,0
1,51,71,0
1,65,97,212
1,56,97,0
1,44,97,0
1,61,97,4
1,54,97,0
1,51,96,8
1,56,94,124
1,63,106,0
1,59,100,0
1,44,83,0
1,54,81,0
1,51,83,4
1,60,72,36
1,51,72,0
1,65,89,144
1,68,98,0
1,60,98,0
1,56,100,0
1,63,106,0
1,44,74,8
1,54,73,0
1,65,78,184
1,56,87,8
1,60,81,0
1,68,82,0
1,63,103,0
1,51,90,184
1,56,85,24
1,53,100,4
1,46,96,0
1,56,87,0
1,65,87,0
1,61,111,0
1,58,103,12
1,62,100,0
1,58,99,72
1,67,94,0
1,63,113,0
1,67,89,84
1,63,98,8
1,58,98,0
1,53,108,0
1,65,78,24
1,61,90,0
1,46,96,24
1,62,74,8
1,67,90,48
1,58,108,0
1,63,113,4
1,56,89,0
1,53,89,0
1,53,94,12
1,58,112,192
1,67,112,0
1,63,112,8
1,53,89,4
1,67,96,4
1,58,99,4
1,63,90,0
1,65,92,44
1,61,99,0
1,46,100,8
1,56,90,0
1,62,89,40
1,51,98,60
1,56,100,28
1,63,94,0
1,59,111,0
1,60,68,32
1,56,72,28
1,51,122,56
1,56,94,8
1,63,96,0
1,60,122,8
1,44,79,72
1,63,77,0
1,56,76,12
1,60,76,0
1,56,73,88
1,39,84,96
1,46,94,4
1,63,100,148
1,58,108,0
1,55,85,8
