track,note,velocity,time
1,71,79,0
1,55,79,0
1,62,79,0
1,67,79,0
1,55,79,0
1,62,79,0
1,71,79,0
1,72,79,0
1,60,79,0
1,55,79,0
1,71,79,0
1,62,79,0
1,79,79,0
1,55,79,0
1,71,79,0
1,67,79,0
1,71,79,0
1,62,79,0
1,69,79,0
1,78,79,0
1,74,79,0
1,69,79,0
1,78,79,0
1,78,79,0
1,74,79,0
1,69,79,0
1,62,79,0
1,36,79,0
1,36,79,0
1,42,127,288
1,42,127,0
1,36,79,288
1,36,79,0
1,42,127,96
1,42,127,0
1,42,127,96
1,42,127,0
1,71,79,0
1,55,79,0
1,62,79,0
1,67,79,0
1,55,79,0
1,62,79,0
1,71,79,0
1,72,79,0
1,60,79,0
1,55,79,0
1,71,79,0
1,62,79,0
1,79,79,0
1,55,79,0
1,71,79,0
1,67,79,0
1,71,79,0
1,62,79,0
1,69,79,0
1,74,79,0
1,78,79,0
1,62,79,0
1,74,79,0
1,69,79,0
1,74,79,0
1,64,79,0
1,67,79,0
1,79,79,0
1,64,79,0
1,79,79,0
1,67,79,0
1,79,79,0
1,60,79,0
1,64,79,0
1,67,79,0
1,72,79,0
1,64,79,0
1,72,79,0
1,67,79,0
1,67,79,0
1,54,79,0
1,55,79,0
1,62,79,0
1,79,79,0
1,55,79,0
1,71,79,0
1,67,79,0
1,71,79,0
1,62,79,0
1,69,79,0
1,78,79,0
1,62,79,0
1,74,79,0
1,69,79,0
1,74,79,0
1,55,79,0
1,62,79,0
1,67,79,0
1,55,79,0
1,71,79,0
1,62,79,0
1,72,79,0
1,60,79,0
1,71,79,0
1,55,79,0
1,79,79,0
1,62,79,0
1,67,79,0
1,71,79,0
1,55,79,0
1,62,79,0
1,67,79,0
1,55,79,0
1,62,79,0
1,71,79,0
1,72,79,0
1,60,79,0
1,55,79,0
1,71,79,0
1,62,79,0
1,79,79,0
1,55,79,0
1,71,79,0
1,67,79,0
1,71,79,0
1,62,79,0
1,69,79,0
1,74,79,0
1,78,79,0
1,62,79,0
1,74,79,0
1,69,79,0
1,74,79,0
1,64,79,0
1,67,79,0
1,79,79,0
1,64,79,0
1,79,79,0
1,67,79,0
1,79,79,0
1,60,79,0
1,64,79,0
1,67,79,0
1,72,79,0
1,64,79,0
1,72,79,0
1,67,79,0
1,67,79,0
1,54,79,0
1,55,79,0
1,62,79,0
1,79,79,0
1,55,79,0
1,71,79,0
1,67,79,0
1,71,79,0
1,62,79,0
1,69,79,0
1,78,79,0
1,62,79,0
1,74,79,0
1,69,79,0
1,74,79,0
1,55,79,0
1,62,79,0
1,67,79,0
1,55,79,0
1,71,79,0
1,62,79,0
1,72,79,0
1,60,79,0
1,55,79,0
1,71,79,0
1,62,79,0
1,67,79,0
1,55,79,0
1,62,79,0
1,71,79,0
1,59,79,0
1,59,79,0
1,60,79,0
1,64,79,0
1,67,79,0
1,64,79,0
1,72,79,0
1,67,79,0
1,52,79,0
1,62,79,0
1,69,79,0
1,78,79,0
1,69,79,0
1,74,79,0
1,69,79,0
1,74,79,0
1,55,79,0
1,62,79,0
1,79,79,0
1,55,79,0
1,71,79,0
1,54,79,0
1,71,79,0
1,52,79,0
1,64,79,0
1,76,79,0
1,64,79,0
1,71,79,0
1,67,79,0
1,71,79,0
1,60,79,0
1,64,79,0
1,72,79,0
1,64,79,0
1,72,79,0
1,64,79,0
1,72,79,0
1,62,79,0
1,69,79,0
1,78,79,0
1,74,79,0
1,74,79,0
1,69,79,0
1,74,79,0
1,71,79,0
1,55,79,0
1,62,79,0
1,79,79,0
1,55,79,0
1,71,79,0
1,71,79,0
1,59,79,0
1,55,79,0
1,71,79,0
1,62,79,0
1,67,79,0
1,55,79,0
1,59,79,0
1,62,79,0
1,59,79,0
1,60,79,0
1,64,79,0
1,67,79,0
1,64,79,0
1,76,79,0
1,67,79,0
1,64,79,0
1,62,79,0
1,69,79,0
1,78,79,0
1,74,79,0
1,74,79,0
1,69,79,0
1,74,79,0
1,55,79,0
1,62,79,0
1,79,79,0
1,55,79,0
1,71,79,0
1,54,79,0
1,71,79,0
1,52,79,0
1,64,79,0
1,76,79,0
1,76,79,0
1,71,79,0
1,76,79,0
1,74,79,0
1,69,79,0
1,62,79,0
1,78,79,0
1,78,79,0
1,74,79,0
1,69,79,0
1,62,79,0
1,78,79,0
1,74,79,0
1,69,79,0
1,62,79,0
1,78,79,0
1,74,79,0
1,69,79,0
1,62,79,0
1,78,79,0
1,74,79,0
1,69,79,0
1,62,79,0
1,78,79,0
1,74,79,0
1,69,79,0
1,62,79,0
1,76,79,0
1,67,79,0
1,64,79,0
1,72,79,0
1,60,79,0
1,62,79,0
1,64,79,0
1,67,79,0
1,72,79,0
1,64,79,0
1,71,100,0
1,74,100,0
1,69,100,0
1,72,100,0
1,67,100,0
1,72,100,0
1,65,100,0
1,62,79,0
1,67,100,0
1,64,100,0
1,67,100,0
1,57,100,0
1,59,100,0
1,71,79,0
1,55,79,0
1,62,79,0
1,67,79,0
1,55,79,0
1,62,79,0
1,71,79,0
1,72,79,0
1,60,79,0
1,55,79,0
1,71,79,0
1,62,79,0
1,79,79,0
1,55,79,0
1,71,79,0
1,67,79,0
1,71,79,0
1,62,79,0
1,69,79,0
1,74,79,0
1,78,79,0
1,62,79,0
1,74,79,0
1,69,79,0
1,74,79,0
1,64,79,0
1,67,79,0
1,79,79,0
1,64,79,0
1,79,79,0
1,67,79,0
1,79,79,0
1,60,79,0
1,64,79,0
1,67,79,0
1,72,79,0
1,64,79,0
1,72,79,0
1,67,79,0
1,67,79,0
1,54,79,0
1,55,79,0
1,62,79,0
1,79,79,0
1,55,79,0
1,71,79,0
1,67,79,0
1,71,79,0
1,62,79,0
1,69,79,0
1,78,79,0
1,62,79,0
1,74,79,0
1,69,79,0
1,74,79,0
1,55,79,0
1,62,79,0
1,67,79,0
1,55,79,0
1,71,79,0
1,62,79,0
1,72,79,0
1,60,79,0
1,71,79,0
1,55,79,0
1,79,79,0
1,62,79,0
1,67,79,0
1,71,79,0
1,55,79,0
1,62,79,0
1,67,79,0
1,55,79,0
1,62,79,0
1,71,79,0
1,72,79,0
1,60,79,0
1,55,79,0
1,71,79,0
1,62,79,0
1,79,79,0
1,55,79,0
1,71,79,0
1,67,79,0
1,71,79,0
1,62,79,0
1,69,79,0
1,74,79,0
1,78,79,0
1,62,79,0
1,74,79,0
1,69,79,0
1,74,79,0
1,64,79,0
1,67,79,0
1,79,79,0
1,64,79,0
1,79,79,0
1,67,79,0
1,79,79,0
1,60,79,0
1,64,79,0
1,67,79,0
1,72,79,0
1,64,79,0
1,72,79,0
1,67,79,0
1,67,79,0
1,54,79,0
1,55,79,0
1,62,79,0
1,79,79,0
1,55,79,0
1,71,79,0
1,67,79,0
1,71,79,0
1,62,79,0
1,69,79,0
1,78,79,0
1,62,79,0
1,74,79,0
1,69,79,0
1,74,79,0
1,55,79,0
1,62,79,0
1,67,79,0
1,55,79,0
1,71,79,0
1,62,79,0
1,72,79,0
1,60,79,0
1,55,79,0
1,71,79,0
1,62,79,0
1,67,79,0
1,55,79,0
1,62,79,0
1,71,79,0
1,59,79,0
1,59,79,0
1,60,79,0
1,64,79,0
1,67,79,0
1,64,79,0
1,72,79,0
1,67,79,0
1,52,79,0
1,62,79,0
1,69,79,0
1,78,79,0
1,69,79,0
1,74,79,0
1,69,79,0
1,74,79,0
1,55,79,0
1,62,79,0
1,79,79,0
1,55,79,0
1,71,79,0
1,54,79,0
1,71,79,0
1,52,79,0
1,64,79,0
1,76,79,0
1,64,79,0
1,71,79,0
1,67,79,0
1,71,79,0
1,60,79,0
1,64,79,0
1,72,79,0
1,64,79,0
1,72,79,0
1,64,79,0
1,72,79,0
1,62,79,0
1,69,79,0
1,78,79,0
1,74,79,0
1,74,79,0
1,69,79,0
1,74,79,0
1,71,79,0
1,55,79,0
1,62,79,0
1,79,79,0
1,55,79,0
1,71,79,0
1,71,79,0
1,59,79,0
1,55,79,0
1,71,79,0
1,62,79,0
1,67,79,0
1,55,79,0
1,59,79,0
1,62,79,0
1,59,79,0
1,60,79,0
1,64,79,0
1,67,79,0
1,64,79,0
1,76,79,0
1,67,79,0
1,64,79,0
1,62,79,0
1,69,79,0
1,78,79,0
1,74,79,0
1,74,79,0
1,69,79,0
1,74,79,0
1,55,79,0
1,62,79,0
1,79,79,0
1,55,79,0
1,71,79,0
1,54,79,0
1,71,79,0
1,52,79,0
1,64,79,0
1,76,79,0
1,76,79,0
1,71,79,0
1,76,79,0
1,74,79,0
1,69,79,0
1,62,79,0
1,78,79,0
1,78,79,0
1,74,79,0
1,69,79,0
1,62,79,0
1,78,79,0
1,74,79,0
1,69,79,0
1,62,79,0
1,78,79,0
1,74,79,0
1,69,79,0
1,62,79,0
1,78,79,0
1,74,79,0
1,69,79,0
1,62,79,0
1,78,79,0
1,74,79,0
1,69,79,0
1,62,79,0
1,76,79,0
1,67,79,0
1,64,79,0
1,72,79,0
1,60,79,0
1,62,79,0
1,64,79,0
1,67,79,0
1,72,79,0
1,64,79,0
1,71,100,0
1,74,100,0
1,69,100,0
1,72,100,0
1,67,100,0
1,72,100,0
1,65,100,0
1,62,79,0
1,67,100,0
1,64,100,0
1,67,100,0
1,57,100,0
1,59,100,0
1,71,79,0
1,55,79,0
1,62,79,0
1,67,79,0
1,55,79,0
1,62,79,0
1,71,79,0
1,72,79,0
1,60,79,0
1,55,79,0
1,71,79,0
1,62,79,0
1,79,79,0
1,55,79,0
1,71,79,0
1,67,79,0
1,71,79,0
1,62,79,0
1,69,79,0
1,74,79,0
1,78,79,0
1,62,79,0
1,74,79,0
1,69,79,0
1,74,79,0
1,64,79,0
1,67,79,0
1,79,79,0
1,64,79,0
1,79,79,0
1,67,79,0
1,79,79,0
1,60,79,0
1,64,79,0
1,67,79,0
1,72,79,0
1,64,79,0
1,72,79,0
1,67,79,0
1,67,79,0
1,54,79,0
1,55,79,0
1,62,79,0
1,79,79,0
1,55,79,0
1,71,79,0
1,67,79,0
1,71,79,0
1,62,79,0
1,69,79,0
1,78,79,0
1,62,79,0
1,74,79,0
1,69,79,0
1,74,79,0
1,55,79,0
1,62,79,0
1,67,79,0
1,55,79,0
1,71,79,0
1,62,79,0
1,72,79,0
1,60,79,0
1,71,79,0
1,55,79,0
1,79,79,0
1,62,79,0
1,67,79,0
1,71,79,0
1,67,79,0
1,62,79,0
1,59,79,0
1,55,79,0
1,78,79,0
1,74,79,0
1,69,79,0
1,62,79,0
1,64,79,0
1,67,79,0
1,71,79,0
1,76,79,0
1,59,79,0
1,60,79,0
1,64,79,0
1,67,79,0
1,72,79,0
1,64,79,0
1,67,79,0
1,72,79,0
1,67,79,0
1,55,79,0
1,55,79,0
1,62,79,0
1,79,79,0
1,55,79,0
1,71,79,0
1,67,79,0
1,71,79,0
1,62,79,0
1,69,79,0
1,78,79,0
1,62,79,0
1,74,79,0
1,69,79,0
1,74,79,0
1,55,79,0
1,71,79,0
1,62,79,0
1,67,79,0
1,55,79,0
1,62,79,0
1,71,79,0
1,72,79,0
1,60,79,0
1,79,79,0
1,71,79,0
1,67,79,0
1,62,79,0
1,59,79,0
1,55,79,0
2,62,100,5184
2,67,100,0
2,69,100,0
2,71,100,4
2,71,100,4
2,71,100,4
2,71,100,0
2,71,100,4
2,72,100,0
2,71,100,0
2,72,100,196
2,72,100,0
2,71,100,0
2,69,100,0
2,69,100,0
2,69,100,4
2,69,100,0
2,69,100,0
2,69,100,0
2,69,100,0
2,71,100,0
2,71,100,0
2,71,100,1732
2,71,100,0
2,69,100,0
2,67,100,0
2,65,100,1732
2,65,100,0
2,64,100,0
2,62,100,0
2,62,100,1732
2,67,100,0
2,69,100,0
2,71,100,0
2,71,100,4
2,71,100,4
2,71,100,0
2,71,100,4
2,72,100,0
2,71,100,0
2,72,100,196
2,72,100,0
2,71,100,0
2,69,100,0
2,69,100,0
2,69,100,4
2,69,100,0
2,69,100,0
2,69,100,0
2,69,100,0
2,71,100,0
2,71,100,0
2,71,100,1732
2,71,100,0
2,69,100,0
2,67,100,0
2,65,100,1732
2,65,100,0
2,64,100,0
2,62,100,0
2,67,100,1732
2,71,100,0
2,74,100,0
2,74,100,0
2,71,100,192
2,74,100,0
2,74,100,0
2,74,100,4
2,76,100,0
2,74,100,0
2,71,100,580
2,71,100,0
2,74,100,0
2,74,100,0
2,74,100,0
2,74,100,0
2,74,100,0
2,74,100,4
2,76,100,0
2,74,100,0
2,72,100,0
2,71,100,0
2,69,100,0
2,67,100,4
2,69,100,0
2,69,100,0
2,62,100,2116
2,71,100,0
2,71,100,0
2,74,100,4
2,67,100,1728
2,71,100,0
2,74,100,0
2,74,100,0
2,74,100,192
2,74,100,0
2,74,100,0
2,74,100,0
2,76,100,192
2,74,100,0
2,76,100,580
2,78,100,0
2,79,100,0
2,74,100,4
2,74,100,0
2,76,100,196
2,76,100,0
2,71,100,4
2,71,100,0
2,74,100,4
2,74,100,0
2,71,100,4
2,71,100,2304
2,72,100,0
2,67,100,4
2,67,100,1920
2,69,100,0
2,71,100,0
2,71,100,0
2,71,100,192
2,71,100,4
2,71,100,0
2,71,100,4
2,72,100,0
2,71,100,0
2,72,100,196
2,72,100,0
2,71,100,0
2,69,100,0
2,69,100,0
2,69,100,4
2,69,100,0
2,69,100,0
2,69,100,0
2,69,100,0
2,71,100,0
2,71,100,0
2,71,100,1732
2,71,100,0
2,69,100,0
2,67,100,0
2,65,100,1732
2,65,100,0
2,65,100,0
2,64,100,0
2,62,100,0
2,62,100,4
2,62,100,1732
2,67,100,0
2,69,100,0
2,71,100,0
2,71,100,4
2,71,100,4
2,71,100,0
2,71,100,4
2,72,100,0
2,71,100,0
2,72,100,196
2,72,100,0
2,71,100,0
2,69,100,0
2,69,100,0
2,69,100,4
2,69,100,0
2,69,100,0
2,69,100,0
2,69,100,0
2,71,100,0
2,71,100,0
2,71,100,1732
2,71,100,0
2,69,100,0
2,67,100,0
2,62,100,196
2,64,100,0
2,62,100,0
2,65,100,580
2,65,100,0
2,64,100,0
2,62,100,0
2,67,100,1732
2,71,100,0
2,74,100,0
2,74,100,0
2,71,100,192
2,74,100,0
2,74,100,0
2,74,100,4
2,76,100,0
2,74,100,0
2,71,100,580
2,71,100,0
2,74,100,0
2,74,100,0
2,74,100,0
2,74,100,0
2,74,100,0
2,74,100,4
2,76,100,0
2,74,100,0
2,72,100,0
2,71,100,0
2,69,100,0
2,67,100,4
2,69,100,0
2,69,100,0
2,62,100,2116
2,71,100,0
2,71,100,0
2,74,100,4
2,67,100,1728
2,71,100,0
2,74,100,0
2,74,100,0
2,74,100,192
2,74,100,0
2,74,100,0
2,74,100,0
2,76,100,192
2,74,100,0
2,76,100,580
2,78,100,0
2,79,100,0
2,74,100,4
2,74,100,0
2,76,100,196
2,76,100,0
2,71,100,4
2,71,100,0
2,74,100,4
2,74,100,0
2,71,100,4
2,71,100,2304
2,72,100,0
2,67,100,4
2,67,100,1920
2,69,100,0
2,71,100,0
2,71,100,0
2,71,100,192
2,71,100,4
2,71,100,0
2,71,100,4
2,72,100,0
2,71,100,0
2,72,100,196
2,72,100,0
2,71,100,0
2,69,100,0
2,69,100,0
2,69,100,4
2,69,100,0
2,69,100,0
2,69,100,0
2,69,100,0
2,71,100,0
2,71,100,0
2,71,100,1732
2,71,100,0
2,69,100,0
2,67,100,0
2,65,100,1732
2,65,100,0
2,64,100,0
2,62,100,0
2,62,100,1732
2,67,100,0
2,69,100,0
2,71,100,0
2,71,100,384
2,71,100,4
2,71,100,4
2,72,100,0
2,71,100,0
2,62,100,196
2,72,100,0
2,71,100,0
2,71,100,0
2,69,100,4
2,69,100,0
2,69,100,0
2,69,100,0
2,71,100,0
2,71,100,0
3,36,79,5376
3,42,127,96
3,42,127,96
3,36,79,288
3,42,127,288
3,36,79,288
3,42,127,96
3,42,127,96
3,36,79,288
3,42,127,288
3,36,79,288
3,42,127,96
3,42,127,96
3,36,79,288
3,42,127,288
