track,note,velocity,time
10,74,127,0
11,74,100,3360
11,69,100,0
11,74,100,1200
11,69,100,0
11,74,100,1440
11,69,100,0
11,74,100,1680
11,69,100,0
11,74,100,1440
11,69,100,0
11,74,100,1680
11,69,100,0
11,74,100,1440
11,69,100,0
11,74,127,151440
11,69,127,0
11,74,127,1200
11,69,127,0
11,74,127,1440
11,69,127,0
11,74,127,1680
11,69,127,0
11,74,127,1440
11,69,127,0
11,74,115,1680
11,69,110,0
11,74,80,1440
11,69,75,0
11,74,50,1680
11,69,45,0
11,74,25,1440
11,69,20,0
12,67,120,240
12,55,120,0
12,62,120,0
12,62,120,20
12,60,120,0
12,64,120,0
12,62,120,0
12,61,120,0
12,62,120,0
12,60,120,0
12,57,120,0
12,62,120,0
12,64,120,0
12,57,120,0
12,60,120,0
12,55,120,0
12,60,120,0
12,60,120,20
12,62,120,0
12,62,120,20
12,60,120,0
12,62,120,0
12,62,120,20
12,62,120,20
12,62,120,20
12,64,120,0
12,62,120,0
12,61,120,0
12,62,120,0
12,61,120,0
12,60,120,0
12,57,120,0
12,55,120,0
12,60,120,0
12,62,120,0
12,57,120,0
12,60,120,0
12,62,120,0
12,60,120,0
12,57,120,0
12,55,120,0
12,57,120,0
12,60,120,0
12,55,120,0
12,64,120,0
12,57,120,0
12,59,120,0
12,57,120,0
12,62,120,0
12,57,120,0
12,60,120,0
12,60,120,20
12,61,120,0
12,62,120,0
12,62,120,20
12,60,120,0
12,64,120,0
12,57,120,0
12,57,120,20
12,55,120,0
12,60,120,0
12,62,120,0
12,62,120,20
12,60,120,0
12,67,120,0
12,62,120,0
12,65,120,0
12,62,120,0
12,62,120,20
12,64,120,0
12,62,120,0
12,64,120,0
12,64,120,20
12,62,120,0
12,60,120,0
12,60,120,20
12,60,120,20
12,62,120,0
12,60,120,0
12,55,120,0
12,62,120,0
12,60,120,0
12,60,120,20
12,62,120,0
12,64,120,0
12,60,120,0
12,59,120,0
12,60,120,0
12,65,120,0
12,62,120,0
12,64,120,0
12,55,120,0
12,64,120,0
12,62,120,0
12,62,120,20
12,62,120,20
12,62,120,20
12,65,120,0
12,65,120,20
12,55,120,0
12,62,120,0
12,62,120,20
12,62,120,20
12,65,120,0
12,55,120,0
12,53,120,0
12,64,120,0
12,65,120,0
12,62,120,0
12,64,120,0
12,62,120,0
12,64,120,0
12,55,120,0
12,65,120,0
12,64,120,0
12,64,120,20
12,62,120,0
12,64,120,0
12,64,120,20
12,62,120,0
12,55,120,0
12,55,120,20
12,62,120,0
12,61,120,0
12,60,120,0
12,59,120,0
12,62,120,0
12,60,120,0
12,55,120,0
12,67,120,0
12,65,120,0
12,64,120,0
12,60,120,0
12,59,120,0
12,62,120,0
12,64,120,0
12,65,120,0
12,55,120,0
12,53,120,0
12,64,120,0
12,60,120,0
12,62,120,0
12,62,120,20
12,64,120,0
12,64,120,20
12,60,120,0
12,60,120,0
12,59,120,0
12,60,120,0
12,62,120,0
12,60,120,0
12,62,120,0
12,65,120,0
12,64,120,0
12,62,120,0
12,67,120,0
12,64,120,0
12,62,120,0
12,65,120,0
12,65,120,20
12,64,120,0
12,62,120,0
12,62,120,20
12,64,120,0
12,64,120,20
12,65,120,0
12,57,120,0
12,55,120,0
12,64,120,0
12,62,120,0
12,65,120,0
12,62,120,0
12,64,120,0
12,65,120,0
12,62,120,0
12,55,120,0
12,60,120,0
12,67,120,0
12,62,120,0
12,65,120,0
12,62,120,0
12,64,120,0
12,64,120,20
12,60,120,0
12,62,120,0
12,61,120,0
12,57,120,0
12,67,120,0
12,62,120,0
12,62,120,20
12,62,120,20
12,64,120,0
12,67,120,0
12,64,120,0
12,67,120,0
12,65,120,0
12,64,120,0
12,67,120,0
12,66,120,0
12,65,120,0
12,66,120,0
12,67,120,0
12,64,120,0
12,57,120,0
12,60,120,0
12,60,120,20
12,60,120,20
12,62,120,0
12,62,120,20
12,60,120,0
12,64,120,0
12,62,120,0
12,64,120,0
12,67,120,0
12,65,120,0
12,62,120,0
12,55,120,0
12,65,120,0
12,67,120,0
12,55,120,0
12,64,120,0
12,62,120,0
12,62,120,20
12,65,120,0
12,62,120,0
12,64,120,0
12,65,120,0
12,65,120,20
12,65,120,20
12,64,120,0
12,62,120,0
12,67,120,0
12,60,120,0
12,60,120,20
12,62,120,0
12,62,120,20
12,64,120,0
12,62,120,0
12,62,120,20
12,62,120,20
12,60,120,0
12,64,120,0
12,57,120,0
12,62,120,0
12,61,120,0
12,62,120,0
12,64,120,0
12,64,120,20
12,62,120,0
12,57,120,0
12,59,120,0
12,62,120,0
12,62,120,20
12,62,120,20
12,55,127,76800
12,64,127,0
12,62,127,0
12,64,127,0
12,55,127,0
12,64,127,0
12,60,127,0
12,62,127,0
12,62,127,20
12,55,127,0
12,60,127,0
12,64,127,0
12,62,127,0
12,63,127,0
12,60,127,0
12,64,127,0
12,62,127,0
12,64,127,0
12,67,127,0
12,65,127,0
12,62,127,0
12,60,127,0
12,60,127,20
12,60,127,20
12,62,127,0
12,53,127,0
12,57,127,0
12,60,127,0
12,62,127,0
12,64,127,0
12,62,127,0
12,60,127,0
12,62,127,0
12,55,127,0
12,60,127,0
12,65,127,0
12,55,127,0
12,62,127,0
12,64,127,0
12,62,127,0
12,65,127,0
12,62,127,0
12,55,127,0
12,60,127,0
12,57,127,0
12,57,127,20
12,60,127,0
12,62,127,0
12,65,127,0
12,64,127,0
12,67,127,0
12,60,127,0
12,55,127,0
12,60,127,0
12,63,127,0
12,63,127,20
12,62,127,0
12,62,127,20
12,63,127,0
12,60,127,0
12,55,127,0
12,63,127,0
12,62,127,0
12,60,127,0
12,67,127,0
12,62,127,0
12,60,127,0
12,64,127,0
12,62,127,0
12,62,127,20
12,64,127,0
12,60,127,0
12,55,127,0
12,55,127,20
12,60,127,0
12,55,127,0
12,57,127,0
12,62,127,0
12,64,127,0
12,62,127,0
12,57,127,0
12,55,127,0
12,55,127,20
12,53,127,0
12,53,127,20
12,57,127,0
12,55,127,0
12,55,127,20
12,55,127,20
12,53,127,0
12,57,127,0
12,55,127,0
12,57,127,0
12,55,127,0
12,60,127,0
12,60,127,20
12,60,127,20
12,60,127,20
12,64,127,0
12,62,127,0
12,67,127,0
12,65,127,0
12,64,127,0
12,62,127,0
12,60,127,0
12,62,127,0
12,62,127,20
12,62,127,20
12,63,127,0
12,64,127,0
12,57,127,0
12,55,127,0
12,62,127,0
12,62,127,20
12,67,127,0
12,65,127,0
12,67,127,0
12,55,127,0
12,65,127,0
12,62,127,0
12,60,127,0
12,62,127,0
12,67,127,0
12,65,127,0
12,67,127,0
12,55,127,0
12,65,127,0
12,62,127,0
12,60,109,5760
12,62,111,0
12,62,113,20
12,55,115,0
12,55,117,20
12,60,119,0
12,64,121,0
12,62,123,0
12,60,125,0
12,67,127,0
12,67,127,20
12,65,127,0
12,65,127,20
12,60,127,0
12,64,127,0
12,62,127,0
12,67,100,0
12,55,99,3720
12,60,101,0
12,62,103,0
12,67,105,0
12,55,107,0
12,65,109,0
12,62,111,0
12,64,113,0
12,55,115,0
12,65,117,0
12,64,119,0
12,62,121,0
12,57,123,0
12,57,125,20
12,60,127,0
12,62,127,0
12,55,127,0
12,62,127,0
12,67,127,0
12,55,127,0
12,60,127,0
12,62,127,0
12,60,127,0
12,64,127,0
12,62,127,0
12,60,127,0
12,62,127,0
12,60,127,0
12,59,127,0
12,59,127,20
12,57,127,0
12,55,127,0
12,67,100,240
12,64,127,38040
12,62,127,0
12,62,127,20
12,55,127,0
12,67,127,0
12,55,127,0
12,64,127,0
12,62,127,0
12,67,127,0
12,55,127,0
12,69,127,0
12,67,127,0
12,65,127,0
12,64,127,0
12,55,127,0
12,62,127,0
12,60,127,0
12,62,127,0
12,65,127,0
12,67,127,0
12,55,127,0
12,64,127,0
12,60,127,0
12,62,127,0
12,62,127,20
12,57,127,0
12,60,127,0
12,57,127,0
12,69,127,0
12,67,127,0
12,62,127,0
12,55,127,0
12,64,127,0
12,57,127,0
12,67,127,0
12,55,127,0
12,65,127,0
12,55,127,0
12,64,127,0
12,62,127,0
12,62,127,20
12,64,127,0
12,60,127,0
12,62,127,0
12,55,127,0
12,67,127,0
12,60,127,0
12,60,127,20
12,57,127,0
12,64,127,0
12,62,127,0
12,62,127,20
12,57,127,0
12,55,127,0
12,60,127,0
12,62,127,0
12,55,127,0
12,62,127,0
12,64,127,0
12,62,127,0
12,60,127,0
12,67,127,0
12,65,127,0
12,64,127,0
12,55,127,0
12,64,127,0
12,62,127,0
12,62,127,20
12,55,127,0
12,60,127,0
12,57,127,0
12,60,127,0
12,55,127,0
12,62,127,0
12,62,127,20
12,62,127,20
12,55,127,0
12,60,127,0
12,60,127,20
12,60,127,20
12,55,127,0
12,60,127,0
12,62,127,0
12,60,127,0
12,57,127,0
12,55,127,0
12,62,127,0
12,64,127,0
12,55,127,0
12,64,127,0
12,62,127,0
12,62,127,20
12,62,127,20
12,60,127,0
12,62,127,0
12,64,127,0
12,55,127,0
12,57,127,0
12,60,127,0
12,62,127,0
12,55,127,0
12,57,127,0
12,62,127,0
12,57,127,0
12,55,127,0
12,62,127,0
12,57,127,0
12,62,127,0
12,60,127,0
12,64,127,0
12,60,127,0
12,60,127,20
12,55,127,0
12,62,127,0
12,62,127,20
12,60,127,0
12,55,127,0
12,60,127,0
12,67,127,0
12,55,127,0
12,60,127,0
12,64,127,0
12,60,127,0
12,62,127,0
12,55,127,0
12,67,127,0
12,64,127,0
12,62,127,0
12,55,127,0
12,67,127,0
12,69,127,0
12,64,127,0
12,60,127,0
12,62,127,0
12,64,127,0
12,62,127,0
12,64,127,0
12,67,127,0
12,62,127,0
12,62,127,20
12,62,127,20
12,60,127,0
12,62,127,0
12,64,127,0
12,60,127,0
12,62,127,0
12,57,127,0
12,62,127,0
12,55,127,0
12,62,127,0
12,60,127,0
12,64,127,0
12,62,127,0
12,60,127,0
12,67,127,0
12,55,127,0
12,62,127,0
12,62,127,20
12,64,127,0
12,60,127,0
12,62,127,0
12,64,127,0
12,67,127,0
12,64,127,0
12,60,127,0
12,64,127,0
12,62,127,0
12,62,127,20
12,64,127,0
12,60,127,0
12,62,127,0
12,55,127,0
12,62,127,0
12,67,127,0
12,60,127,0
12,62,127,0
12,62,127,20
12,64,127,0
12,60,127,0
12,55,127,0
12,62,127,0
12,64,127,0
12,62,127,0
12,62,127,20
12,60,127,0
12,55,127,0
12,64,127,0
12,62,127,0
12,55,127,0
12,62,127,0
12,64,127,0
12,62,126,0
12,60,125,0
12,60,124,20
12,62,123,0
12,55,122,0
12,62,121,0
12,55,120,0
12,62,119,0
12,64,118,0
12,62,117,0
12,67,116,0
12,65,115,0
12,64,114,0
12,62,113,0
12,69,112,0
12,67,111,0
12,60,110,0
12,62,109,0
12,69,108,0
12,60,107,0
12,55,106,0
12,55,105,20
12,55,104,20
12,67,103,0
12,62,102,0
12,64,101,0
12,65,100,0
12,67,99,0
12,62,98,0
12,64,97,0
12,62,96,0
12,60,95,0
12,62,94,0
12,55,93,0
12,62,92,0
12,64,91,0
12,64,90,20
12,62,89,0
12,62,88,20
12,62,87,20
12,55,86,0
12,67,85,0
12,62,84,0
12,60,83,0
12,60,82,20
12,62,81,0
12,64,80,0
12,60,79,0
12,62,78,0
12,62,77,20
12,62,76,20
12,57,75,0
12,55,74,0
12,57,73,0
12,60,72,0
12,64,71,0
12,60,70,0
12,62,69,0
12,62,68,20
12,55,67,0
12,62,66,0
12,55,65,0
12,60,64,0
12,64,63,0
12,62,62,0
12,67,61,0
12,60,60,0
12,64,59,0
12,62,58,0
12,55,57,0
12,64,56,0
12,62,55,0
12,60,54,0
12,67,53,0
12,60,52,0
12,62,51,0
12,69,50,0
12,55,49,0
12,64,48,0
12,62,47,0
12,64,46,0
12,55,45,0
12,60,44,0
12,69,43,0
12,64,42,0
12,62,41,0
12,55,40,0
12,62,39,0
12,64,38,0
12,62,37,0
12,60,36,0
12,62,35,0
12,55,34,0
12,64,33,0
12,64,32,20
12,62,31,0
12,60,30,0
12,62,29,0
12,62,28,20
12,55,27,0
12,57,26,0
12,62,25,0
12,64,24,0
12,60,23,0
12,62,22,0
12,55,21,0
12,67,20,0
12,65,19,0
12,64,18,0
12,60,17,0
12,62,16,0
12,64,15,0
12,62,14,0
12,55,13,0
12,60,12,0
12,62,11,0
12,67,10,0
12,55,9,0
12,65,8,0
12,62,7,0
12,64,6,0
12,55,5,0
12,65,4,0
12,64,3,0
12,62,2,0
12,57,1,0
12,57,1,0
12,60,1,0
12,62,1,0
13,45,127,30720
13,43,127,0
13,45,127,0
13,43,127,0
13,45,127,0
13,48,127,0
13,50,127,0
13,43,100,0
13,48,100,0
13,50,100,0
13,48,100,0
13,43,100,0
13,48,100,0
13,50,100,0
13,48,100,0
13,43,100,0
13,48,100,0
13,50,100,0
13,48,100,0
13,43,100,0
13,48,100,0
13,50,100,0
13,45,127,0
13,43,127,0
13,45,127,0
13,43,127,0
13,45,127,0
13,48,127,0
13,50,127,0
13,43,100,0
13,48,100,0
13,50,100,0
13,48,100,0
13,43,100,0
13,48,100,0
13,50,100,0
13,48,100,0
13,43,100,0
13,48,100,0
13,50,100,0
13,48,100,0
13,43,100,0
13,48,100,0
13,50,100,0
13,45,127,15360
13,43,127,0
13,45,127,0
13,43,127,0
13,45,127,0
13,48,127,0
13,50,127,0
13,43,100,0
13,48,100,0
13,50,100,0
13,48,100,0
13,43,100,0
13,48,100,0
13,50,100,0
13,48,100,0
13,43,100,0
13,48,100,0
13,50,100,0
13,48,100,0
13,43,100,0
13,48,100,0
13,50,100,0
13,43,100,0
13,48,100,0
13,50,100,0
13,48,100,0
13,43,100,0
13,48,100,0
13,50,100,0
13,48,100,0
13,43,100,0
13,48,100,0
13,50,100,0
13,48,100,0
13,43,100,0
13,48,100,0
13,50,100,0
13,45,127,0
13,45,125,0
13,45,121,0
13,45,117,0
13,45,113,0
13,45,109,0
13,45,105,0
13,45,101,0
13,45,97,0
13,45,93,0
13,45,89,0
13,45,85,0
13,45,81,0
13,45,77,0
13,45,73,0
13,45,69,0
13,45,65,0
13,45,61,0
13,45,57,0
13,45,53,0
13,45,49,0
13,45,45,0
13,45,41,0
13,45,37,0
13,45,33,0
13,45,29,0
13,45,25,0
13,45,21,0
13,45,17,0
13,45,13,0
13,45,9,0
13,45,5,0
13,45,1,0
14,43,127,53760
14,48,127,0
14,50,127,0
14,48,127,0
14,43,127,0
14,48,127,0
14,50,127,0
14,48,127,0
14,43,127,0
14,48,127,0
14,50,127,0
14,48,127,0
14,43,127,0
14,48,127,0
14,50,127,0
14,43,127,23040
14,48,127,0
14,50,127,0
14,48,127,0
14,43,127,0
14,48,127,0
14,50,127,0
14,48,127,0
14,43,127,0
14,48,127,0
14,50,127,0
14,48,127,0
14,43,127,0
14,48,127,0
14,50,127,0
14,43,127,38400
14,48,127,0
14,50,127,0
14,48,127,0
14,43,127,0
14,48,127,0
14,50,127,0
14,48,127,0
14,43,127,0
14,48,127,0
14,50,127,0
14,48,127,0
14,43,127,0
14,48,127,0
14,50,127,0
14,43,127,0
14,48,127,0
14,50,127,0
14,48,127,0
14,43,127,0
14,48,127,0
14,50,127,0
14,48,127,0
14,43,127,0
14,48,127,0
14,50,127,0
14,48,127,0
14,43,127,0
14,48,127,0
14,50,127,0
15,69,127,30720
15,67,127,0
15,69,127,120
15,67,127,0
15,69,127,60
15,67,127,0
15,69,127,120
15,67,127,0
15,69,127,0
15,67,127,120
15,69,127,0
15,67,127,120
15,69,127,60
15,67,127,0
15,69,127,0
15,67,127,0
15,71,127,0
15,67,127,0
15,69,127,3120
15,67,127,0
15,69,127,60
15,67,127,0
15,69,127,120
15,67,127,0
15,69,127,120
15,69,127,240
15,67,127,0
15,69,127,60
15,67,127,0
15,69,127,60
15,67,127,0
15,69,127,0
15,67,127,0
15,71,127,0
15,67,127,0
15,67,127,240
15,69,127,2640
15,73,80,0
15,76,60,0
15,67,127,0
15,69,127,60
