track,note,velocity,time
3.0,67.0,64.0,0.0
3.0,67.0,64.0,4.0
3.0,69.0,64.0,4.0
3.0,62.0,64.0,4.0
3.0,67.0,64.0,0.0
3.0,71.0,64.0,0.0
3.0,69.0,64.0,4.0
3.0,69.0,64.0,4.0
3.0,62.0,64.0,0.0
3.0,59.0,64.0,0.0
3.0,62.0,64.0,4.0
3.0,59.0,64.0,0.0
3.0,69.0,64.0,0.0
3.0,67.0,64.0,4.0
3.0,69.0,64.0,4.0
3.0,62.0,64.0,4.0
3.0,67.0,64.0,0.0
3.0,71.0,64.0,0.0
3.0,69.0,64.0,4.0
3.0,69.0,64.0,4.0
3.0,62.0,64.0,0.0
3.0,59.0,64.0,0.0
3.0,62.0,64.0,4.0
3.0,59.0,64.0,0.0
3.0,69.0,64.0,0.0
3.0,67.0,64.0,4.0
3.0,69.0,64.0,4.0
3.0,69.0,64.0,4.0
3.0,64.0,64.0,0.0
3.0,72.0,64.0,0.0
3.0,71.0,64.0,4.0
3.0,71.0,64.0,4.0
3.0,60.0,64.0,4.0
3.0,64.0,64.0,0.0
3.0,71.0,64.0,0.0
3.0,69.0,64.0,4.0
3.0,71.0,64.0,4.0
3.0,66.0,64.0,4.0
3.0,62.0,64.0,0.0
3.0,72.0,64.0,0.0
3.0,71.0,64.0,4.0
3.0,69.0,64.0,4.0
3.0,69.0,64.0,4.0
3.0,60.0,64.0,0.0
3.0,62.0,64.0,0.0
3.0,66.0,64.0,4.0
3.0,66.0,64.0,4.0
3.0,67.0,64.0,4.0
3.0,69.0,64.0,4.0
3.0,62.0,64.0,4.0
3.0,67.0,64.0,0.0
3.0,71.0,64.0,0.0
3.0,69.0,64.0,4.0
3.0,69.0,64.0,4.0
3.0,62.0,64.0,0.0
3.0,59.0,64.0,0.0
3.0,62.0,64.0,4.0
3.0,59.0,64.0,0.0
3.0,69.0,64.0,0.0
3.0,67.0,64.0,8.0
3.0,62.0,64.0,4.0
3.0,67.0,64.0,0.0
3.0,71.0,64.0,0.0
3.0,69.0,64.0,4.0
3.0,69.0,64.0,4.0
3.0,62.0,64.0,0.0
3.0,59.0,64.0,0.0
3.0,62.0,64.0,4.0
3.0,59.0,64.0,0.0
3.0,69.0,64.0,0.0
3.0,67.0,64.0,196.0
3.0,64.0,64.0,4.0
3.0,72.0,64.0,0.0
3.0,69.0,64.0,0.0
3.0,71.0,64.0,4.0
3.0,60.0,64.0,4.0
3.0,64.0,64.0,0.0
3.0,71.0,64.0,0.0
3.0,69.0,64.0,4.0
3.0,71.0,64.0,4.0
3.0,62.0,64.0,4.0
3.0,66.0,64.0,0.0
3.0,72.0,64.0,0.0
3.0,71.0,64.0,4.0
3.0,62.0,64.0,4.0
3.0,66.0,64.0,0.0
3.0,69.0,64.0,0.0
3.0,69.0,64.0,4.0
3.0,66.0,64.0,0.0
3.0,74.0,64.0,0.0
3.0,69.0,64.0,4.0
3.0,66.0,64.0,0.0
3.0,74.0,64.0,0.0
3.0,62.0,64.0,4.0
3.0,67.0,64.0,0.0
3.0,71.0,64.0,0.0
3.0,74.0,64.0,0.0
3.0,74.0,64.0,4.0
3.0,74.0,64.0,4.0
3.0,59.0,64.0,4.0
3.0,64.0,64.0,0.0
3.0,67.0,64.0,0.0
3.0,74.0,64.0,196.0
3.0,62.0,64.0,4.0
3.0,67.0,64.0,0.0
3.0,74.0,64.0,0.0
3.0,74.0,64.0,4.0
3.0,74.0,64.0,4.0
3.0,62.0,64.0,4.0
3.0,67.0,64.0,0.0
3.0,71.0,64.0,0.0
3.0,74.0,64.0,4.0
3.0,67.0,64.0,4.0
3.0,62.0,64.0,0.0
3.0,74.0,64.0,0.0
3.0,74.0,64.0,4.0
3.0,64.0,64.0,4.0
3.0,74.0,64.0,0.0
3.0,69.0,64.0,0.0
3.0,72.0,64.0,4.0
3.0,69.0,64.0,0.0
3.0,64.0,64.0,0.0
3.0,60.0,64.0,4.0
3.0,64.0,64.0,0.0
3.0,71.0,64.0,0.0
3.0,67.0,64.0,4.0
3.0,74.0,64.0,196.0
3.0,74.0,64.0,4.0
3.0,64.0,64.0,0.0
3.0,67.0,64.0,0.0
3.0,72.0,64.0,4.0
3.0,71.0,64.0,4.0
3.0,67.0,64.0,0.0
3.0,64.0,64.0,0.0
3.0,67.0,64.0,4.0
3.0,60.0,64.0,4.0
3.0,64.0,64.0,0.0
3.0,67.0,64.0,0.0
3.0,67.0,64.0,4.0
3.0,60.0,64.0,4.0
3.0,64.0,64.0,0.0
3.0,66.0,64.0,0.0
3.0,67.0,64.0,4.0
3.0,69.0,64.0,4.0
3.0,60.0,64.0,4.0
3.0,64.0,64.0,0.0
3.0,67.0,64.0,0.0
3.0,59.0,64.0,4.0
3.0,64.0,64.0,0.0
3.0,67.0,64.0,0.0
3.0,67.0,64.0,4.0
3.0,62.0,64.0,4.0
3.0,66.0,64.0,0.0
3.0,67.0,64.0,4.0
3.0,67.0,64.0,4.0
3.0,62.0,64.0,0.0
3.0,67.0,64.0,0.0
3.0,69.0,64.0,4.0
3.0,67.0,64.0,4.0
3.0,62.0,64.0,0.0
3.0,69.0,64.0,0.0
3.0,71.0,64.0,4.0
3.0,74.0,64.0,196.0
3.0,74.0,64.0,4.0
3.0,69.0,64.0,4.0
3.0,64.0,64.0,0.0
3.0,74.0,64.0,0.0
3.0,72.0,64.0,4.0
3.0,64.0,64.0,8.0
3.0,67.0,64.0,0.0
3.0,71.0,64.0,0.0
3.0,74.0,64.0,4.0
3.0,74.0,64.0,4.0
3.0,74.0,64.0,4.0
3.0,67.0,64.0,0.0
3.0,64.0,64.0,0.0
3.0,72.0,64.0,4.0
3.0,72.0,64.0,4.0
3.0,64.0,64.0,4.0
3.0,67.0,64.0,0.0
3.0,72.0,64.0,0.0
3.0,71.0,64.0,4.0
3.0,60.0,64.0,4.0
3.0,64.0,64.0,0.0
3.0,71.0,64.0,0.0
3.0,69.0,64.0,4.0
3.0,67.0,64.0,196.0
3.0,66.0,64.0,4.0
3.0,64.0,64.0,0.0
3.0,60.0,64.0,0.0
3.0,62.0,64.0,4.0
3.0,60.0,64.0,0.0
3.0,67.0,64.0,0.0
3.0,67.0,64.0,4.0
3.0,59.0,64.0,4.0
3.0,67.0,64.0,0.0
3.0,62.0,64.0,4.0
3.0,62.0,64.0,4.0
3.0,59.0,64.0,4.0
3.0,62.0,64.0,0.0
3.0,67.0,64.0,0.0
3.0,67.0,64.0,4.0
3.0,66.0,64.0,4.0
3.0,62.0,64.0,0.0
3.0,59.0,64.0,0.0
3.0,60.0,64.0,4.0
3.0,64.0,64.0,0.0
3.0,67.0,64.0,0.0
3.0,67.0,64.0,4.0
3.0,69.0,64.0,4.0
3.0,60.0,64.0,4.0
3.0,64.0,64.0,0.0
3.0,67.0,64.0,0.0
3.0,62.0,64.0,4.0
3.0,60.0,64.0,4.0
3.0,64.0,64.0,0.0
3.0,67.0,64.0,0.0
3.0,67.0,64.0,4.0
3.0,66.0,64.0,4.0
3.0,64.0,64.0,0.0
3.0,60.0,64.0,0.0
3.0,59.0,64.0,4.0
3.0,62.0,64.0,0.0
3.0,67.0,64.0,0.0
3.0,69.0,64.0,4.0
3.0,59.0,64.0,4.0
3.0,62.0,64.0,0.0
3.0,67.0,64.0,0.0
3.0,59.0,64.0,4.0
3.0,62.0,64.0,0.0
3.0,67.0,64.0,0.0
3.0,67.0,64.0,4.0
3.0,59.0,64.0,4.0
3.0,64.0,64.0,0.0
3.0,66.0,64.0,0.0
3.0,67.0,64.0,4.0
3.0,69.0,64.0,4.0
3.0,59.0,64.0,4.0
3.0,64.0,64.0,0.0
3.0,67.0,64.0,0.0
3.0,67.0,64.0,4.0
3.0,71.0,64.0,0.0
3.0,74.0,64.0,0.0
3.0,64.0,64.0,0.0
3.0,74.0,64.0,4.0
3.0,64.0,64.0,4.0
3.0,67.0,64.0,0.0
3.0,72.0,64.0,192.0
3.0,67.0,64.0,8.0
3.0,64.0,64.0,0.0
3.0,60.0,64.0,4.0
3.0,67.0,64.0,4.0
3.0,60.0,64.0,4.0
3.0,67.0,64.0,4.0
3.0,64.0,64.0,0.0
3.0,64.0,64.0,4.0
3.0,67.0,64.0,0.0
3.0,60.0,64.0,4.0
3.0,60.0,64.0,4.0
3.0,64.0,64.0,0.0
3.0,67.0,64.0,0.0
3.0,69.0,64.0,4.0
3.0,66.0,64.0,0.0
3.0,62.0,64.0,0.0
3.0,62.0,64.0,8.0
3.0,67.0,64.0,0.0
3.0,71.0,64.0,0.0
3.0,62.0,64.0,4.0
3.0,71.0,64.0,4.0
3.0,62.0,64.0,4.0
3.0,71.0,64.0,4.0
3.0,67.0,64.0,0.0
3.0,62.0,64.0,0.0
3.0,69.0,64.0,240.0
3.0,71.0,64.0,228.0
3.0,62.0,64.0,4.0
3.0,67.0,64.0,0.0
3.0,71.0,64.0,0.0
3.0,62.0,64.0,4.0
3.0,71.0,64.0,4.0
3.0,62.0,64.0,4.0
3.0,71.0,64.0,4.0
3.0,67.0,64.0,0.0
3.0,62.0,64.0,0.0
3.0,69.0,64.0,8.0
3.0,67.0,64.0,4.0
3.0,64.0,64.0,0.0
3.0,60.0,64.0,0.0
3.0,55.0,64.0,4.0
3.0,60.0,64.0,4.0
3.0,64.0,64.0,4.0
3.0,67.0,64.0,4.0
3.0,60.0,64.0,4.0
3.0,71.0,64.0,4.0
3.0,67.0,64.0,4.0
3.0,55.0,64.0,4.0
3.0,60.0,64.0,4.0
3.0,60.0,64.0,4.0
3.0,64.0,64.0,0.0
3.0,67.0,64.0,0.0
3.0,69.0,64.0,4.0
3.0,66.0,64.0,0.0
3.0,62.0,64.0,0.0
3.0,62.0,64.0,8.0
3.0,67.0,64.0,0.0
3.0,71.0,64.0,0.0
3.0,62.0,64.0,4.0
3.0,71.0,64.0,4.0
3.0,62.0,64.0,4.0
3.0,71.0,64.0,4.0
3.0,67.0,64.0,0.0
3.0,62.0,64.0,0.0
3.0,69.0,64.0,240.0
3.0,71.0,64.0,228.0
3.0,62.0,64.0,4.0
3.0,67.0,64.0,0.0
3.0,71.0,64.0,0.0
3.0,62.0,64.0,4.0
3.0,71.0,64.0,4.0
3.0,62.0,64.0,4.0
3.0,71.0,64.0,4.0
3.0,67.0,64.0,0.0
3.0,62.0,64.0,0.0
3.0,69.0,64.0,8.0
3.0,67.0,64.0,4.0
3.0,64.0,64.0,0.0
3.0,60.0,64.0,0.0
3.0,55.0,64.0,4.0
3.0,60.0,64.0,4.0
3.0,64.0,64.0,4.0
3.0,67.0,64.0,4.0
3.0,60.0,64.0,4.0
3.0,71.0,64.0,4.0
3.0,67.0,64.0,4.0
3.0,55.0,64.0,4.0
3.0,60.0,64.0,4.0
3.0,64.0,64.0,4.0
3.0,60.0,64.0,0.0
3.0,67.0,64.0,0.0
3.0,69.0,64.0,4.0
3.0,62.0,64.0,0.0
3.0,62.0,64.0,0.0
3.0,67.0,64.0,4.0
3.0,69.0,64.0,4.0
3.0,62.0,64.0,4.0
3.0,67.0,64.0,0.0
3.0,71.0,64.0,0.0
3.0,69.0,64.0,4.0
3.0,69.0,64.0,4.0
3.0,62.0,64.0,0.0
3.0,59.0,64.0,0.0
3.0,62.0,64.0,4.0
3.0,59.0,64.0,0.0
3.0,69.0,64.0,0.0
3.0,67.0,64.0,4.0
3.0,69.0,64.0,4.0
3.0,62.0,64.0,4.0
3.0,67.0,64.0,0.0
3.0,71.0,64.0,0.0
3.0,69.0,64.0,4.0
3.0,69.0,64.0,4.0
3.0,62.0,64.0,0.0
3.0,59.0,64.0,0.0
3.0,62.0,64.0,4.0
3.0,59.0,64.0,0.0
3.0,69.0,64.0,0.0
3.0,67.0,64.0,4.0
3.0,69.0,64.0,4.0
3.0,64.0,64.0,4.0
3.0,69.0,64.0,0.0
3.0,72.0,64.0,0.0
3.0,71.0,64.0,4.0
3.0,71.0,64.0,4.0
3.0,60.0,64.0,4.0
3.0,64.0,64.0,0.0
3.0,71.0,64.0,0.0
3.0,69.0,64.0,4.0
3.0,71.0,64.0,4.0
3.0,62.0,64.0,4.0
3.0,66.0,64.0,0.0
3.0,72.0,64.0,0.0
3.0,71.0,64.0,4.0
3.0,69.0,64.0,4.0
3.0,69.0,64.0,4.0
3.0,60.0,64.0,0.0
3.0,62.0,64.0,0.0
3.0,66.0,64.0,4.0
3.0,66.0,64.0,4.0
3.0,67.0,64.0,4.0
3.0,69.0,64.0,4.0
3.0,62.0,64.0,4.0
3.0,67.0,64.0,0.0
3.0,71.0,64.0,0.0
3.0,69.0,64.0,4.0
3.0,69.0,64.0,4.0
3.0,62.0,64.0,0.0
3.0,59.0,64.0,0.0
3.0,62.0,64.0,4.0
3.0,59.0,64.0,0.0
3.0,69.0,64.0,0.0
3.0,67.0,64.0,8.0
3.0,62.0,64.0,4.0
3.0,67.0,64.0,0.0
3.0,71.0,64.0,0.0
3.0,69.0,64.0,4.0
3.0,69.0,64.0,4.0
3.0,62.0,64.0,0.0
3.0,59.0,64.0,0.0
3.0,62.0,64.0,4.0
3.0,59.0,64.0,0.0
3.0,69.0,64.0,0.0
3.0,67.0,64.0,196.0
3.0,64.0,64.0,4.0
3.0,69.0,64.0,0.0
3.0,72.0,64.0,0.0
3.0,71.0,64.0,4.0
3.0,60.0,64.0,4.0
3.0,64.0,64.0,0.0
3.0,71.0,64.0,0.0
3.0,69.0,64.0,4.0
3.0,71.0,64.0,4.0
3.0,62.0,64.0,4.0
3.0,66.0,64.0,0.0
3.0,72.0,64.0,0.0
3.0,71.0,64.0,4.0
3.0,62.0,64.0,4.0
3.0,66.0,64.0,0.0
3.0,69.0,64.0,0.0
3.0,69.0,64.0,4.0
3.0,66.0,64.0,0.0
3.0,74.0,64.0,0.0
3.0,69.0,64.0,4.0
3.0,66.0,64.0,0.0
3.0,74.0,64.0,0.0
3.0,62.0,64.0,4.0
3.0,67.0,64.0,0.0
3.0,71.0,64.0,0.0
3.0,74.0,64.0,0.0
3.0,74.0,64.0,4.0
3.0,74.0,64.0,4.0
3.0,59.0,64.0,4.0
3.0,64.0,64.0,0.0
3.0,67.0,64.0,0.0
3.0,74.0,64.0,196.0
3.0,62.0,64.0,4.0
3.0,67.0,64.0,0.0
3.0,74.0,64.0,0.0
3.0,74.0,64.0,4.0
3.0,74.0,64.0,4.0
3.0,62.0,64.0,4.0
3.0,67.0,64.0,0.0
3.0,71.0,64.0,0.0
3.0,74.0,64.0,4.0
3.0,67.0,64.0,4.0
3.0,62.0,64.0,0.0
3.0,74.0,64.0,0.0
3.0,74.0,64.0,4.0
3.0,64.0,64.0,4.0
3.0,74.0,64.0,0.0
3.0,69.0,64.0,0.0
3.0,72.0,64.0,4.0
3.0,69.0,64.0,0.0
3.0,64.0,64.0,0.0
3.0,60.0,64.0,4.0
3.0,64.0,64.0,0.0
3.0,71.0,64.0,0.0
3.0,67.0,64.0,4.0
3.0,74.0,64.0,196.0
3.0,74.0,64.0,4.0
3.0,64.0,64.0,0.0
3.0,67.0,64.0,0.0
3.0,72.0,64.0,4.0
3.0,71.0,64.0,4.0
3.0,67.0,64.0,0.0
3.0,64.0,64.0,0.0
3.0,67.0,64.0,4.0
3.0,60.0,64.0,4.0
3.0,64.0,64.0,0.0
3.0,67.0,64.0,0.0
3.0,67.0,64.0,4.0
3.0,60.0,64.0,4.0
3.0,64.0,64.0,0.0
3.0,66.0,64.0,0.0
3.0,67.0,64.0,4.0
3.0,69.0,64.0,4.0
3.0,60.0,64.0,4.0
3.0,64.0,64.0,0.0
3.0,67.0,64.0,0.0
3.0,59.0,64.0,4.0
3.0,64.0,64.0,0.0
3.0,67.0,64.0,0.0
3.0,67.0,64.0,4.0
3.0,62.0,64.0,4.0
3.0,66.0,64.0,0.0
3.0,67.0,64.0,4.0
3.0,67.0,64.0,4.0
3.0,62.0,64.0,0.0
3.0,67.0,64.0,0.0
3.0,69.0,64.0,4.0
3.0,67.0,64.0,4.0
3.0,62.0,64.0,0.0
3.0,69.0,64.0,0.0
3.0,71.0,64.0,4.0
3.0,74.0,64.0,196.0
3.0,74.0,64.0,4.0
3.0,69.0,64.0,4.0
3.0,64.0,64.0,0.0
3.0,74.0,64.0,0.0
3.0,72.0,64.0,4.0
3.0,64.0,64.0,8.0
3.0,67.0,64.0,0.0
3.0,71.0,64.0,0.0
3.0,74.0,64.0,4.0
3.0,74.0,64.0,4.0
3.0,74.0,64.0,4.0
3.0,67.0,64.0,0.0
3.0,64.0,64.0,0.0
3.0,72.0,64.0,4.0
3.0,72.0,64.0,4.0
3.0,64.0,64.0,4.0
3.0,67.0,64.0,0.0
3.0,72.0,64.0,0.0
3.0,71.0,64.0,4.0
3.0,60.0,64.0,4.0
3.0,64.0,64.0,0.0
3.0,71.0,64.0,0.0
3.0,69.0,64.0,4.0
3.0,67.0,64.0,196.0
3.0,66.0,64.0,4.0
3.0,64.0,64.0,0.0
3.0,60.0,64.0,0.0
3.0,62.0,64.0,4.0
3.0,60.0,64.0,0.0
3.0,67.0,64.0,0.0
3.0,67.0,64.0,4.0
3.0,59.0,64.0,4.0
3.0,67.0,64.0,0.0
3.0,62.0,64.0,4.0
3.0,62.0,64.0,4.0
3.0,59.0,64.0,4.0
3.0,62.0,64.0,0.0
3.0,67.0,64.0,0.0
3.0,67.0,64.0,4.0
3.0,66.0,64.0,4.0
3.0,62.0,64.0,0.0
3.0,59.0,64.0,0.0
3.0,67.0,64.0,4.0
3.0,60.0,64.0,0.0
3.0,64.0,64.0,0.0
3.0,60.0,64.0,4.0
3.0,64.0,64.0,0.0
3.0,67.0,64.0,0.0
3.0,62.0,64.0,4.0
3.0,60.0,64.0,4.0
3.0,64.0,64.0,0.0
3.0,67.0,64.0,0.0
3.0,67.0,64.0,4.0
3.0,66.0,64.0,4.0
3.0,64.0,64.0,0.0
3.0,60.0,64.0,0.0
3.0,59.0,64.0,4.0
3.0,62.0,64.0,0.0
3.0,67.0,64.0,0.0
3.0,69.0,64.0,4.0
3.0,59.0,64.0,4.0
3.0,62.0,64.0,0.0
3.0,67.0,64.0,0.0
3.0,59.0,64.0,4.0
3.0,62.0,64.0,0.0
3.0,67.0,64.0,0.0
3.0,67.0,64.0,4.0
3.0,59.0,64.0,4.0
3.0,64.0,64.0,0.0
3.0,66.0,64.0,0.0
3.0,67.0,64.0,4.0
3.0,69.0,64.0,4.0
3.0,59.0,64.0,4.0
3.0,64.0,64.0,0.0
3.0,67.0,64.0,0.0
3.0,67.0,64.0,4.0
3.0,74.0,64.0,0.0
3.0,64.0,64.0,0.0
3.0,71.0,64.0,0.0
3.0,74.0,64.0,4.0
3.0,64.0,64.0,4.0
3.0,67.0,64.0,0.0
3.0,72.0,64.0,192.0
3.0,67.0,64.0,8.0
3.0,64.0,64.0,0.0
3.0,60.0,64.0,4.0
3.0,67.0,64.0,4.0
3.0,60.0,64.0,4.0
3.0,67.0,64.0,4.0
3.0,64.0,64.0,0.0
3.0,64.0,64.0,4.0
3.0,67.0,64.0,0.0
3.0,60.0,64.0,4.0
3.0,60.0,64.0,4.0
3.0,64.0,64.0,0.0
3.0,67.0,64.0,0.0
3.0,69.0,64.0,4.0
3.0,66.0,64.0,0.0
3.0,62.0,64.0,0.0
3.0,62.0,64.0,8.0
3.0,67.0,64.0,0.0
3.0,71.0,64.0,0.0
3.0,62.0,64.0,4.0
3.0,71.0,64.0,4.0
3.0,62.0,64.0,4.0
3.0,71.0,64.0,4.0
3.0,67.0,64.0,0.0
3.0,62.0,64.0,0.0
3.0,69.0,64.0,240.0
3.0,71.0,64.0,228.0
3.0,62.0,64.0,4.0
3.0,67.0,64.0,0.0
3.0,71.0,64.0,0.0
3.0,62.0,64.0,4.0
3.0,71.0,64.0,4.0
3.0,62.0,64.0,4.0
3.0,71.0,64.0,4.0
3.0,67.0,64.0,0.0
3.0,62.0,64.0,0.0
3.0,69.0,64.0,8.0
3.0,67.0,64.0,4.0
3.0,64.0,64.0,0.0
3.0,60.0,64.0,0.0
3.0,55.0,64.0,4.0
3.0,60.0,64.0,4.0
3.0,64.0,64.0,4.0
3.0,67.0,64.0,4.0
3.0,60.0,64.0,4.0
3.0,71.0,64.0,4.0
3.0,67.0,64.0,4.0
3.0,55.0,64.0,4.0
3.0,60.0,64.0,4.0
3.0,60.0,64.0,4.0
3.0,64.0,64.0,0.0
3.0,67.0,64.0,0.0
3.0,69.0,64.0,4.0
3.0,66.0,64.0,0.0
3.0,62.0,64.0,0.0
3.0,62.0,64.0,8.0
3.0,67.0,64.0,0.0
3.0,71.0,64.0,0.0
3.0,62.0,64.0,4.0
3.0,71.0,64.0,4.0
3.0,62.0,64.0,4.0
3.0,71.0,64.0,4.0
3.0,67.0,64.0,0.0
3.0,62.0,64.0,0.0
3.0,69.0,64.0,240.0
3.0,71.0,64.0,228.0
3.0,62.0,64.0,4.0
3.0,67.0,64.0,0.0
3.0,71.0,64.0,0.0
3.0,62.0,64.0,4.0
3.0,71.0,64.0,4.0
3.0,62.0,64.0,4.0
3.0,71.0,64.0,4.0
3.0,67.0,64.0,0.0
3.0,62.0,64.0,0.0
3.0,69.0,64.0,8.0
3.0,67.0,64.0,4.0
3.0,64.0,64.0,0.0
3.0,60.0,64.0,0.0
3.0,55.0,64.0,4.0
3.0,60.0,64.0,4.0
3.0,64.0,64.0,4.0
3.0,67.0,64.0,4.0
3.0,60.0,64.0,4.0
3.0,71.0,64.0,4.0
3.0,67.0,64.0,4.0
3.0,55.0,64.0,4.0
3.0,60.0,64.0,4.0
3.0,64.0,64.0,4.0
3.0,60.0,64.0,0.0
3.0,67.0,64.0,0.0
3.0,69.0,64.0,4.0
3.0,66.0,64.0,0.0
3.0,62.0,64.0,0.0
3.0,62.0,64.0,8.0
3.0,67.0,64.0,0.0
3.0,71.0,64.0,0.0
3.0,62.0,64.0,4.0
3.0,71.0,64.0,4.0
3.0,62.0,64.0,4.0
3.0,71.0,64.0,4.0
3.0,67.0,64.0,0.0
3.0,62.0,64.0,0.0
3.0,69.0,64.0,240.0
3.0,71.0,64.0,228.0
3.0,62.0,64.0,4.0
3.0,67.0,64.0,0.0
3.0,71.0,64.0,0.0
3.0,62.0,64.0,4.0
3.0,71.0,64.0,4.0
3.0,62.0,64.0,4.0
3.0,71.0,64.0,4.0
3.0,67.0,64.0,0.0
3.0,62.0,64.0,0.0
3.0,69.0,64.0,8.0
3.0,67.0,64.0,4.0
3.0,64.0,64.0,0.0
3.0,60.0,64.0,0.0
3.0,55.0,64.0,4.0
3.0,60.0,64.0,4.0
3.0,64.0,64.0,4.0
3.0,67.0,64.0,4.0
3.0,60.0,64.0,4.0
3.0,71.0,64.0,4.0
3.0,67.0,64.0,4.0
3.0,55.0,64.0,4.0
3.0,60.0,64.0,4.0
3.0,60.0,64.0,4.0
3.0,64.0,64.0,0.0
3.0,67.0,64.0,0.0
3.0,69.0,64.0,4.0
3.0,66.0,64.0,0.0
3.0,62.0,64.0,0.0
3.0,62.0,64.0,8.0
3.0,67.0,64.0,0.0
3.0,71.0,64.0,0.0
3.0,62.0,64.0,4.0
3.0,71.0,64.0,4.0
3.0,62.0,64.0,4.0
3.0,71.0,64.0,4.0
3.0,67.0,64.0,0.0
3.0,62.0,64.0,0.0
3.0,69.0,64.0,240.0
3.0,71.0,64.0,228.0
3.0,62.0,64.0,4.0
3.0,67.0,64.0,0.0
3.0,71.0,64.0,0.0
3.0,62.0,64.0,4.0
3.0,71.0,64.0,4.0
3.0,62.0,64.0,4.0
3.0,71.0,64.0,4.0
3.0,67.0,64.0,0.0
3.0,62.0,64.0,0.0
3.0,69.0,64.0,8.0
3.0,67.0,64.0,4.0
3.0,64.0,64.0,0.0
3.0,60.0,64.0,0.0
3.0,55.0,64.0,4.0
3.0,60.0,64.0,4.0
3.0,64.0,64.0,4.0
3.0,67.0,64.0,4.0
3.0,60.0,64.0,4.0
3.0,71.0,64.0,4.0
3.0,67.0,64.0,4.0
3.0,55.0,64.0,4.0
3.0,60.0,64.0,4.0
3.0,64.0,64.0,4.0
3.0,60.0,64.0,0.0
3.0,67.0,64.0,0.0
3.0,69.0,64.0,4.0
3.0,66.0,64.0,0.0
3.0,62.0,64.0,0.0
3.0,62.0,64.0,8.0
3.0,67.0,64.0,0.0
3.0,71.0,64.0,0.0
4.0,43.0,64.0,576.0
4.0,43.0,64.0,4.0
4.0,50.0,64.0,4.0
4.0,43.0,64.0,4.0
4.0,43.0,64.0,4.0
4.0,43.0,64.0,4.0
4.0,50.0,64.0,4.0
4.0,43.0,64.0,4.0
4.0,45.0,64.0,4.0
4.0,45.0,64.0,4.0
4.0,52.0,64.0,4.0
4.0,45.0,64.0,4.0
4.0,50.0,64.0,4.0
4.0,50.0,64.0,4.0
4.0,38.0,64.0,4.0
4.0,43.0,64.0,4.0
4.0,43.0,64.0,4.0
4.0,50.0,64.0,4.0
4.0,43.0,64.0,4.0
4.0,43.0,64.0,4.0
4.0,43.0,64.0,4.0
4.0,50.0,64.0,4.0
4.0,43.0,64.0,4.0
4.0,45.0,64.0,4.0
4.0,45.0,64.0,4.0
4.0,52.0,64.0,4.0
4.0,45.0,64.0,4.0
4.0,50.0,64.0,4.0
4.0,50.0,64.0,4.0
4.0,38.0,64.0,4.0
4.0,48.0,64.0,4.0
4.0,48.0,64.0,4.0
4.0,55.0,64.0,4.0
4.0,48.0,64.0,4.0
4.0,47.0,64.0,4.0
4.0,47.0,64.0,4.0
4.0,47.0,64.0,4.0
4.0,45.0,64.0,4.0
4.0,45.0,64.0,4.0
4.0,45.0,64.0,4.0
4.0,48.0,64.0,4.0
4.0,48.0,64.0,4.0
4.0,48.0,64.0,388.0
4.0,48.0,64.0,4.0
4.0,48.0,64.0,4.0
4.0,47.0,64.0,4.0
4.0,47.0,64.0,4.0
4.0,47.0,64.0,4.0
4.0,45.0,64.0,4.0
4.0,45.0,64.0,4.0
4.0,45.0,64.0,4.0
4.0,48.0,64.0,4.0
4.0,48.0,64.0,4.0
4.0,48.0,64.0,4.0
4.0,43.0,64.0,4.0
4.0,43.0,64.0,4.0
4.0,43.0,64.0,8.0
4.0,43.0,64.0,4.0
4.0,48.0,64.0,4.0
4.0,48.0,64.0,4.0
4.0,48.0,64.0,8.0
4.0,48.0,64.0,4.0
4.0,43.0,64.0,4.0
4.0,43.0,64.0,4.0
4.0,40.0,64.0,4.0
4.0,40.0,64.0,8.0
4.0,38.0,64.0,4.0
4.0,36.0,64.0,8.0
4.0,36.0,64.0,4.0
4.0,36.0,64.0,8.0
4.0,38.0,64.0,8.0
4.0,43.0,64.0,4.0
4.0,43.0,64.0,4.0
4.0,36.0,64.0,4.0
4.0,36.0,64.0,4.0
4.0,38.0,64.0,4.0
4.0,43.0,64.0,8.0
4.0,43.0,64.0,4.0
4.0,36.0,64.0,4.0
4.0,36.0,64.0,4.0
4.0,38.0,64.0,4.0
4.0,43.0,64.0,8.0
4.0,43.0,64.0,4.0
4.0,50.0,64.0,4.0
4.0,43.0,64.0,4.0
4.0,43.0,64.0,4.0
4.0,43.0,64.0,4.0
4.0,50.0,64.0,4.0
4.0,43.0,64.0,4.0
4.0,45.0,64.0,4.0
4.0,45.0,64.0,4.0
4.0,52.0,64.0,4.0
4.0,45.0,64.0,4.0
4.0,50.0,64.0,4.0
4.0,50.0,64.0,4.0
4.0,38.0,64.0,4.0
4.0,43.0,64.0,4.0
4.0,43.0,64.0,4.0
4.0,50.0,64.0,4.0
4.0,43.0,64.0,4.0
4.0,43.0,64.0,4.0
4.0,43.0,64.0,4.0
4.0,50.0,64.0,4.0
4.0,43.0,64.0,4.0
4.0,45.0,64.0,4.0
4.0,45.0,64.0,4.0
4.0,52.0,64.0,4.0
4.0,45.0,64.0,4.0
4.0,50.0,64.0,4.0
4.0,50.0,64.0,4.0
4.0,38.0,64.0,4.0
4.0,48.0,64.0,4.0
4.0,48.0,64.0,4.0
4.0,55.0,64.0,4.0
4.0,48.0,64.0,4.0
4.0,47.0,64.0,4.0
4.0,47.0,64.0,4.0
4.0,47.0,64.0,4.0
4.0,45.0,64.0,4.0
4.0,45.0,64.0,4.0
4.0,45.0,64.0,4.0
4.0,48.0,64.0,4.0
4.0,48.0,64.0,4.0
4.0,48.0,64.0,388.0
4.0,48.0,64.0,4.0
4.0,48.0,64.0,4.0
4.0,47.0,64.0,4.0
4.0,47.0,64.0,4.0
4.0,47.0,64.0,4.0
4.0,45.0,64.0,4.0
4.0,45.0,64.0,4.0
4.0,45.0,64.0,4.0
4.0,48.0,64.0,4.0
4.0,48.0,64.0,4.0
4.0,48.0,64.0,4.0
4.0,43.0,64.0,4.0
4.0,43.0,64.0,4.0
4.0,43.0,64.0,8.0
4.0,43.0,64.0,4.0
4.0,48.0,64.0,4.0
4.0,48.0,64.0,4.0
4.0,48.0,64.0,8.0
4.0,48.0,64.0,4.0
4.0,43.0,64.0,4.0
4.0,43.0,64.0,4.0
4.0,40.0,64.0,4.0
4.0,40.0,64.0,8.0
4.0,38.0,64.0,4.0
4.0,36.0,64.0,8.0
4.0,36.0,64.0,4.0
4.0,36.0,64.0,8.0
4.0,38.0,64.0,8.0
4.0,43.0,64.0,4.0
4.0,43.0,64.0,4.0
4.0,36.0,64.0,4.0
4.0,36.0,64.0,4.0
4.0,38.0,64.0,4.0
4.0,43.0,64.0,8.0
4.0,43.0,64.0,4.0
4.0,36.0,64.0,4.0
4.0,36.0,64.0,4.0
4.0,38.0,64.0,4.0
4.0,43.0,64.0,8.0
4.0,43.0,64.0,4.0
4.0,36.0,64.0,4.0
4.0,36.0,64.0,4.0
4.0,38.0,64.0,4.0
4.0,43.0,64.0,8.0
4.0,43.0,64.0,4.0
4.0,36.0,64.0,4.0
4.0,36.0,64.0,4.0
4.0,38.0,64.0,4.0
4.0,43.0,64.0,8.0
0.0,0.0,0.0,0.0
0.0,0.0,0.0,0.0
0.0,0.0,0.0,0.0
0.0,0.0,0.0,0.0
0.0,0.0,0.0,0.0
0.0,0.0,0.0,0.0
0.0,0.0,0.0,0.0
0.0,0.0,0.0,0.0
0.0,0.0,0.0,0.0
0.0,0.0,0.0,0.0
0.0,0.0,0.0,0.0
0.0,0.0,0.0,0.0
0.0,0.0,0.0,0.0
0.0,0.0,0.0,0.0
0.0,0.0,0.0,0.0
0.0,0.0,0.0,0.0
0.0,0.0,0.0,0.0
0.0,0.0,0.0,0.0
0.0,0.0,0.0,0.0
0.0,0.0,0.0,0.0
0.0,0.0,0.0,0.0
0.0,0.0,0.0,0.0
0.0,0.0,0.0,0.0
0.0,0.0,0.0,0.0
0.0,0.0,0.0,0.0
0.0,0.0,0.0,0.0
0.0,0.0,0.0,0.0
0.0,0.0,0.0,0.0
0.0,0.0,0.0,0.0
0.0,0.0,0.0,0.0
0.0,0.0,0.0,0.0
0.0,0.0,0.0,0.0
0.0,0.0,0.0,0.0
0.0,0.0,0.0,0.0
0.0,0.0,0.0,0.0
0.0,0.0,0.0,0.0
0.0,0.0,0.0,0.0
0.0,0.0,0.0,0.0
0.0,0.0,0.0,0.0
0.0,0.0,0.0,0.0
0.0,0.0,0.0,0.0
0.0,0.0,0.0,0.0
0.0,0.0,0.0,0.0
0.0,0.0,0.0,0.0
0.0,0.0,0.0,0.0
0.0,0.0,0.0,0.0
0.0,0.0,0.0,0.0
0.0,0.0,0.0,0.0
0.0,0.0,0.0,0.0
0.0,0.0,0.0,0.0
0.0,0.0,0.0,0.0
0.0,0.0,0.0,0.0
0.0,0.0,0.0,0.0
0.0,0.0,0.0,0.0
0.0,0.0,0.0,0.0
0.0,0.0,0.0,0.0
0.0,0.0,0.0,0.0
0.0,0.0,0.0,0.0
0.0,0.0,0.0,0.0
0.0,0.0,0.0,0.0
0.0,0.0,0.0,0.0
0.0,0.0,0.0,0.0
0.0,0.0,0.0,0.0
0.0,0.0,0.0,0.0
0.0,0.0,0.0,0.0
