track,note,velocity,time
0,67,64,0
0,67,64,0
0,67,0,188
0,69,64,0
0,69,0,188
0,62,64,0
0,67,64,0
0,71,64,0
0,43,64,0
0,71,0,188
0,69,64,0
0,62,0,188
0,67,0,0
0,69,0,0
0,69,64,0
0,62,64,0
0,59,64,0
0,69,0,188
0,62,0,0
0,59,0,0
0,62,64,0
0,59,64,0
0,69,64,0
0,43,0,188
0,43,64,4
0,43,0,188
0,50,64,4
0,69,0,188
0,50,0,0
0,67,64,0
0,43,64,0
0,67,0,188
0,69,64,0
0,62,0,188
0,59,0,0
0,69,0,0
0,43,0,0
0,62,64,0
0,67,64,0
0,71,64,0
0,43,64,0
0,71,0,188
0,69,64,0
0,62,0,188
0,67,0,0
0,69,0,0
0,69,64,0
0,62,64,0
0,59,64,0
0,69,0,188
0,62,0,0
0,59,0,0
0,62,64,0
0,59,64,0
0,69,64,0
0,43,0,188
0,43,64,4
0,43,0,188
0,50,64,4
0,69,0,188
0,50,0,0
0,67,64,0
0,43,64,0
0,67,0,188
0,69,64,0
0,62,0,188
0,59,0,0
0,69,0,0
0,43,0,0
0,69,64,0
0,64,64,0
0,72,64,0
0,45,64,0
0,72,0,92
0,71,64,0
0,71,0,92
0,71,64,0
0,69,0,376
0,64,0,0
0,71,0,4
0,60,64,0
0,64,64,0
0,71,64,0
0,45,0,188
0,45,64,4
0,45,0,188
0,52,64,4
0,71,0,188
0,52,0,0
0,69,64,0
0,45,64,0
0,69,0,188
0,71,64,0
0,60,0,188
0,64,0,0
0,71,0,0
0,45,0,0
0,66,64,0
0,62,64,0
0,72,64,0
0,50,64,0
0,72,0,188
0,71,64,0
0,71,0,188
0,69,64,0
0,66,0,184
0,62,0,0
0,69,0,4
0,69,64,0
0,60,64,0
0,62,64,0
0,69,0,188
0,50,0,0
0,66,64,0
0,50,64,0
0,66,0,188
0,66,64,0
0,66,0,188
0,50,0,0
0,67,64,0
0,38,64,0
0,67,0,188
0,69,64,0
0,60,0,188
0,62,0,0
0,69,0,0
0,38,0,0
0,62,64,0
0,67,64,0
0,71,64,0
0,43,64,0
0,71,0,188
0,69,64,0
0,62,0,188
0,67,0,0
0,69,0,0
0,69,64,0
0,62,64,0
0,59,64,0
0,69,0,188
0,62,0,0
0,59,0,0
0,62,64,0
0,59,64,0
0,69,64,0
0,43,0,188
0,43,64,4
0,43,0,188
0,50,64,4
0,50,0,188
0,43,64,4
0,69,0,184
0,67,64,0
0,62,0,188
0,59,0,0
0,67,0,0
0,43,0,0
0,62,64,0
0,67,64,0
0,71,64,0
0,43,64,0
0,71,0,188
0,69,64,0
0,62,0,188
0,67,0,0
0,69,0,0
0,69,64,0
0,62,64,0
0,59,64,0
0,69,0,188
0,62,0,0
0,59,0,0
0,62,64,0
0,59,64,0
0,69,64,0
0,43,0,188
0,43,64,4
0,43,0,188
0,50,64,4
0,69,0,188
0,50,0,0
0,43,64,4
0,67,64,0
0,62,0,188
0,59,0,0
0,67,0,0
0,43,0,0
0,64,64,0
0,72,64,0
0,69,64,0
0,45,64,0
0,72,0,188
0,71,64,0
0,64,0,376
0,69,0,0
0,71,0,4
0,60,64,0
0,64,64,0
0,71,64,0
0,45,0,188
0,45,64,4
0,45,0,188
0,52,64,4
0,71,0,188
0,52,0,0
0,69,64,0
0,45,64,0
0,69,0,188
0,71,64,0
0,60,0,188
0,64,0,0
0,71,0,0
0,45,0,0
0,62,64,0
0,66,64,0
0,72,64,0
0,50,64,0
0,72,0,380
0,71,64,0
0,62,0,184
0,66,0,0
0,71,0,4
0,62,64,0
0,66,64,0
0,69,64,0
0,50,0,188
0,50,64,4
0,62,0,188
0,66,0,0
0,69,0,0
0,69,64,0
0,66,64,0
0,74,64,0
0,50,0,188
0,38,64,4
0,69,0,188
0,66,0,0
0,74,0,0
0,69,64,0
0,66,64,0
0,74,64,0
0,69,0,188
0,66,0,0
0,74,0,0
0,38,0,0
0,62,64,0
0,67,64,0
0,71,64,0
0,74,64,0
0,48,64,0
0,74,0,188
0,74,64,0
0,74,0,188
0,74,64,0
0,62,0,184
0,67,0,0
0,71,0,0
0,74,0,4
0,59,64,0
0,64,64,0
0,67,64,0
0,48,0,188
0,48,64,4
0,48,0,188
0,55,64,4
0,67,0,188
0,55,0,0
0,48,64,4
0,74,64,0
0,59,0,188
0,64,0,0
0,74,0,0
0,48,0,0
0,62,64,0
0,67,64,0
0,74,64,0
0,47,64,0
0,74,0,188
0,74,64,0
0,74,0,188
0,74,64,0
0,62,0,184
0,67,0,0
0,74,0,4
0,62,64,0
0,67,64,0
0,71,64,0
0,47,0,188
0,47,64,4
0,71,0,188
0,74,64,0
0,62,0,188
0,67,0,0
0,74,0,0
0,47,0,0
0,67,64,0
0,62,64,0
0,74,64,0
0,47,64,0
0,74,0,188
0,74,64,0
0,67,0,188
0,62,0,0
0,74,0,0
0,47,0,0
0,64,64,0
0,74,64,0
0,69,64,0
0,45,64,0
0,64,0,380
0,74,0,0
0,69,0,0
0,72,64,0
0,69,64,0
0,64,64,0
0,72,0,380
0,69,0,0
0,64,0,0
0,45,0,0
0,60,64,0
0,64,64,0
0,71,64,0
0,45,64,0
0,71,0,188
0,67,64,0
0,67,0,188
0,45,0,0
0,45,64,4
0,74,64,0
0,60,0,188
0,64,0,0
0,74,0,0
0,45,0,0
0,74,64,0
0,64,64,0
0,67,64,0
0,48,64,0
0,74,0,380
0,72,64,0
0,64,0,184
0,67,0,0
0,72,0,4
0,71,64,0
0,67,64,0
0,64,64,0
0,48,0,188
0,48,64,4
0,71,0,188
0,67,64,0
0,67,0,188
0,64,0,0
0,67,0,0
0,48,0,0
0,60,64,0
0,64,64,0
0,67,64,0
0,67,0,188
0,67,64,0
0,60,0,188
0,64,0,0
0,67,0,0
0,60,64,0
0,64,64,0
0,66,64,0
0,48,64,0
0,66,0,188
0,67,64,0
0,67,0,188
0,48,0,0
0,69,64,0
0,48,64,0
0,60,0,184
0,64,0,0
0,69,0,4
0,60,64,0
0,64,64,0
0,67,64,0
0,60,0,572
0,64,0,0
0,67,0,0
0,48,0,0
0,59,64,0
0,64,64,0
0,67,64,0
0,48,64,0
0,67,0,188
0,67,64,0
0,59,0,188
0,64,0,0
0,67,0,0
0,48,0,0
0,62,64,0
0,66,64,0
0,47,64,0
0,66,0,188
0,67,64,0
0,62,0,188
0,67,0,0
0,67,64,0
0,62,64,0
0,67,64,0
0,67,0,188
0,69,64,0
0,62,0,188
0,67,0,0
0,69,0,0
0,47,0,0
0,67,64,0
0,62,64,0
0,69,64,0
0,47,64,0
0,69,0,188
0,71,64,0
0,67,0,188
0,62,0,0
0,71,0,0
0,47,0,0
0,47,64,4
0,74,64,0
0,74,0,92
0,74,64,0
0,74,0,92
0,47,0,0
0,69,64,0
0,64,64,0
0,74,64,0
0,45,64,0
0,74,0,188
0,72,64,0
0,72,0,188
0,69,0,188
0,64,0,0
0,64,64,0
0,67,64,0
0,71,64,0
0,45,0,188
0,45,64,4
0,71,0,188
0,74,64,0
0,45,0,188
0,45,64,4
0,74,0,188
0,74,64,0
0,64,0,188
0,67,0,0
0,74,0,0
0,45,0,0
0,74,64,0
0,67,64,0
0,64,64,0
0,48,64,0
0,74,0,188
0,72,64,0
0,72,0,92
0,72,64,0
0,67,0,92
0,64,0,0
0,72,0,0
0,64,64,0
0,67,64,0
0,72,64,0
0,72,0,188
0,71,64,0
0,64,0,188
0,67,0,0
0,71,0,0
0,48,0,0
0,60,64,0
0,64,64,0
0,71,64,0
0,48,64,0
0,71,0,188
0,69,64,0
0,69,0,188
0,67,64,0
0,60,0,188
0,64,0,0
0,67,0,0
0,48,0,0
0,66,64,0
0,64,64,0
0,60,64,0
0,48,64,0
0,66,0,188
0,64,0,0
0,60,0,0
0,48,0,0
0,62,64,0
0,60,64,0
0,67,64,0
0,43,64,0
0,67,0,188
0,67,64,0
0,62,0,188
0,60,0,0
0,67,0,0
0,43,0,0
0,59,64,0
0,67,64,0
0,43,64,0
0,67,0,188
0,62,64,0
0,62,0,188
0,62,64,0
0,43,0,184
0,59,0,4
0,62,0,0
0,59,64,0
0,62,64,0
0,67,64,0
0,43,64,0
0,67,0,188
0,67,64,0
0,59,0,188
0,62,0,0
0,67,0,0
0,43,0,0
0,66,64,0
0,62,64,0
0,59,64,0
0,43,64,0
0,66,0,188
0,62,0,0
0,59,0,0
0,43,0,0
0,60,64,0
0,64,64,0
0,67,64,0
0,48,64,0
0,67,0,188
0,67,64,0
0,67,0,92
0,69,64,0
0,60,0,92
0,64,0,0
0,69,0,0
0,48,0,0
0,60,64,0
0,64,64,0
0,67,64,0
0,48,64,0
0,67,0,380
0,62,64,0
0,48,0,184
0,60,0,4
0,64,0,0
0,62,0,0
0,60,64,0
0,64,64,0
0,67,64,0
0,48,64,0
0,67,0,188
0,67,64,0
0,60,0,188
0,64,0,0
0,67,0,0
0,48,0,0
0,66,64,0
0,64,64,0
0,60,64,0
0,48,64,0
0,66,0,188
0,64,0,0
0,60,0,0
0,48,0,0
0,59,64,0
0,62,64,0
0,67,64,0
0,43,64,0
0,67,0,188
0,69,64,0
0,59,0,188
0,62,0,0
0,69,0,0
0,43,0,0
0,59,64,0
0,62,64,0
0,67,64,0
0,43,64,0
0,59,0,572
0,62,0,0
0,67,0,0
0,59,64,0
0,62,64,0
0,67,64,0
0,67,0,188
0,67,64,0
0,59,0,188
0,62,0,0
0,67,0,0
0,43,0,0
0,59,64,0
0,64,64,0
0,66,64,0
0,40,64,0
0,66,0,188
0,67,64,0
0,67,0,188
0,69,64,0
0,59,0,184
0,64,0,0
0,40,0,0
0,69,0,4
0,59,64,0
0,64,64,0
0,67,64,0
0,40,64,0
0,40,0,380
0,38,64,4
0,59,0,188
0,64,0,0
0,67,0,0
0,67,64,4
0,71,64,0
0,74,64,0
0,64,64,0
0,74,0,188
0,74,64,4
0,38,0,184
0,67,0,4
0,71,0,0
0,64,0,0
0,74,0,0
0,64,64,4
0,67,64,0
0,36,64,0
0,72,64,192
0,64,0,376
0,67,0,0
0,67,64,8
0,64,64,0
0,72,0,184
0,67,0,196
0,64,0,0
0,60,64,4
0,60,0,188
0,67,64,4
0,67,0,188
0,60,64,4
0,60,0,188
0,36,0,0
0,67,64,4
0,64,64,0
0,36,64,0
0,67,0,380
0,64,0,0
0,64,64,4
0,67,64,0
0,36,0,184
0,64,0,4
0,67,0,0
0,60,64,4
0,36,64,0
0,60,0,188
0,60,64,4
0,64,64,0
0,67,64,0
0,60,0,188
0,64,0,0
0,67,0,0
0,69,64,4
0,66,64,0
0,62,64,0
0,36,0,184
0,38,64,8
0,69,0,376
0,66,0,0
0,62,0,0
0,38,0,4
0,62,64,4
0,67,64,0
0,71,64,0
0,43,64,0
0,62,0,188
0,67,0,0
0,71,0,0
0,62,64,4
0,62,0,188
0,71,64,4
0,71,0,188
0,62,64,4
0,62,0,188
0,71,64,4
0,67,64,0
0,62,64,0
0,69,64,240
0,71,0,12
0,67,0,0
0,71,64,228
0,69,0,12
0,71,0,240
0,62,0,32
0,43,0,0
0,62,64,4
0,67,64,0
0,71,64,0
0,43,64,0
0,62,0,188
0,67,0,0
0,71,0,0
0,62,64,4
0,62,0,188
0,71,64,4
0,71,0,188
0,62,64,4
0,62,0,188
0,71,64,4
0,67,64,0
0,62,64,0
0,71,0,280
0,69,64,8
0,67,0,280
0,62,0,0
0,69,0,4
0,67,64,4
0,64,64,0
0,60,64,0
0,43,0,188
0,36,64,4
0,60,0,188
0,64,0,0
0,67,0,0
0,55,64,4
0,55,0,188
0,60,64,4
0,60,0,188
0,64,64,4
0,64,0,188
0,67,64,4
0,67,0,188
0,60,64,4
0,60,0,188
0,71,64,4
0,71,0,188
0,67,64,4
0,36,0,188
0,36,64,4
0,67,0,380
0,55,64,4
0,55,0,188
0,60,64,4
0,60,0,188
0,60,64,4
0,64,64,0
0,67,64,0
0,60,0,188
0,64,0,0
0,67,0,0
0,36,0,0
0,69,64,4
0,66,64,0
0,62,64,0
0,38,64,0
0,69,0,568
0,66,0,0
0,62,0,0
0,38,0,0
0,62,64,8
0,67,64,0
0,71,64,0
0,43,64,0
0,62,0,188
0,67,0,0
0,71,0,0
0,62,64,4
0,62,0,188
0,71,64,4
0,71,0,188
0,62,64,4
0,62,0,188
0,71,64,4
0,67,64,0
0,62,64,0
0,69,64,240
0,71,0,12
0,67,0,0
0,71,64,228
0,69,0,12
0,71,0,240
0,62,0,32
0,43,0,0
0,62,64,4
0,67,64,0
0,71,64,0
0,43,64,0
0,62,0,188
0,67,0,0
0,71,0,0
0,62,64,4
0,62,0,188
0,71,64,4
0,71,0,188
0,62,64,4
0,62,0,188
0,71,64,4
0,67,64,0
0,62,64,0
0,71,0,280
0,69,64,8
0,67,0,280
0,62,0,0
0,69,0,4
0,67,64,4
0,64,64,0
0,60,64,0
0,43,0,188
0,36,64,4
0,60,0,188
0,64,0,0
0,67,0,0
0,55,64,4
0,55,0,188
0,60,64,4
0,60,0,188
0,64,64,4
0,64,0,188
0,67,64,4
0,67,0,188
0,60,64,4
0,60,0,188
0,71,64,4
0,71,0,188
0,67,64,4
0,36,0,188
0,36,64,4
0,67,0,380
0,55,64,4
0,55,0,188
0,60,64,4
0,60,0,188
0,64,64,4
0,60,64,0
0,67,64,0
0,64,0,188
0,60,0,0
0,67,0,0
0,36,0,0
0,69,64,4
0,62,64,0
0,62,64,0
0,38,64,0
0,62,0,188
0,67,64,0
0,67,0,188
0,69,64,0
0,69,0,184
0,62,0,0
0,38,0,0
0,69,0,4
0,62,64,0
0,67,64,0
0,71,64,0
0,43,64,0
0,71,0,188
0,69,64,0
0,62,0,188
0,67,0,0
0,69,0,0
0,69,64,0
0,62,64,0
0,59,64,0
0,69,0,188
0,62,0,0
0,59,0,0
0,62,64,0
0,59,64,0
0,69,64,0
0,43,0,188
0,43,64,4
0,43,0,188
0,50,64,4
0,69,0,188
0,50,0,0
0,67,64,0
0,43,64,0
0,67,0,188
0,69,64,0
0,62,0,188
0,59,0,0
0,69,0,0
0,43,0,0
0,62,64,0
0,67,64,0
0,71,64,0
0,43,64,0
0,71,0,188
0,69,64,0
0,62,0,188
0,67,0,0
0,69,0,0
0,69,64,0
0,62,64,0
0,59,64,0
0,69,0,188
0,62,0,0
0,59,0,0
0,62,64,0
0,59,64,0
0,69,64,0
0,43,0,188
0,43,64,4
0,43,0,188
0,50,64,4
0,69,0,188
0,50,0,0
0,67,64,0
0,43,64,0
0,67,0,188
0,69,64,0
0,62,0,188
0,59,0,0
0,69,0,0
0,43,0,0
0,64,64,0
0,69,64,0
0,72,64,0
0,45,64,0
0,72,0,92
0,71,64,0
0,71,0,92
0,71,64,0
0,64,0,376
0,69,0,0
0,71,0,4
0,60,64,0
0,64,64,0
0,71,64,0
0,45,0,188
0,45,64,4
0,45,0,188
0,52,64,4
0,71,0,188
0,52,0,0
0,69,64,0
0,45,64,0
0,69,0,188
0,71,64,0
0,60,0,188
0,64,0,0
0,71,0,0
0,45,0,0
0,62,64,0
0,66,64,0
0,72,64,0
0,50,64,0
0,72,0,188
0,71,64,0
0,71,0,188
0,69,64,0
0,62,0,184
0,66,0,0
0,69,0,4
0,69,64,0
0,60,64,0
0,62,64,0
0,69,0,188
0,50,0,0
0,66,64,0
0,50,64,0
0,66,0,188
0,66,64,0
0,66,0,188
0,50,0,0
0,67,64,0
0,38,64,0
0,67,0,188
0,69,64,0
0,60,0,188
0,62,0,0
0,69,0,0
0,38,0,0
0,62,64,0
0,67,64,0
0,71,64,0
0,43,64,0
0,71,0,188
0,69,64,0
0,62,0,188
0,67,0,0
0,69,0,0
0,69,64,0
0,62,64,0
0,59,64,0
0,69,0,188
0,62,0,0
0,59,0,0
0,62,64,0
0,59,64,0
0,69,64,0
0,43,0,188
0,43,64,4
0,43,0,188
0,50,64,4
0,50,0,188
0,43,64,4
0,69,0,184
0,67,64,0
0,62,0,188
0,59,0,0
0,67,0,0
