track,note,velocity,time
1,35,90,0
1,35,90,96
1,35,90,96
1,35,90,96
1,35,90,96
1,35,90,96
1,35,90,96
1,35,90,96
1,35,90,96
1,35,90,96
1,35,90,96
1,35,90,96
1,35,90,96
1,35,90,96
1,35,90,96
1,35,90,96
1,35,90,96
1,35,90,96
1,35,90,96
1,35,90,96
1,35,90,96
1,35,90,96
1,35,90,96
1,35,90,96
1,35,90,96
1,35,90,96
1,35,90,96
1,35,90,96
1,35,90,96
1,35,90,96
1,35,90,96
1,35,90,96
1,35,90,96
1,35,90,96
1,35,90,96
1,35,90,96
1,35,90,96
1,35,90,96
1,35,90,96
1,35,90,96
1,35,90,96
1,35,90,96
1,35,90,96
1,35,90,96
1,35,90,96
1,35,90,96
1,35,90,96
1,35,90,96
1,35,90,96
1,35,90,96
1,35,90,96
1,35,90,96
1,35,90,96
1,35,90,96
1,35,90,96
1,35,90,96
1,35,90,96
1,35,90,96
1,35,90,96
1,35,90,96
1,35,90,96
1,35,90,96
1,35,90,96
1,35,90,96
1,35,90,96
1,35,90,96
1,35,90,96
1,35,90,96
1,35,90,96
1,35,90,96
1,35,90,96
1,35,90,96
1,35,90,96
1,35,90,96
1,35,90,96
1,35,90,96
1,35,90,96
1,35,90,96
1,35,90,96
1,35,90,96
1,35,90,3168
1,35,90,96
1,35,90,96
1,35,90,96
1,35,90,96
1,35,90,96
1,35,90,96
1,35,90,96
1,35,90,96
1,35,90,96
1,35,90,96
1,35,90,96
1,35,90,96
1,35,90,96
1,35,90,96
1,35,90,96
1,35,90,96
1,35,90,96
1,35,90,96
1,35,90,96
1,35,90,96
1,35,90,96
1,35,90,96
1,35,90,96
1,35,90,96
1,35,90,96
1,35,90,96
1,35,90,96
1,35,90,96
1,35,90,96
1,35,90,96
1,35,90,96
1,35,90,96
1,35,90,96
1,35,90,96
1,35,90,96
1,35,90,96
1,35,90,96
1,35,90,96
1,35,90,96
1,35,90,96
1,35,90,96
1,35,90,96
1,35,90,96
1,35,90,96
1,35,90,96
1,35,90,96
1,35,90,96
1,35,90,96
1,35,90,96
1,35,90,96
1,35,90,96
1,35,90,96
1,35,90,96
1,35,90,96
1,35,90,96
1,35,90,96
1,35,90,96
1,35,90,96
1,35,90,96
1,35,90,96
1,35,90,96
1,35,90,96
1,35,90,96
1,35,90,3168
1,35,90,96
1,35,90,96
1,35,90,96
1,35,90,96
1,35,90,96
1,35,90,96
1,35,90,96
1,35,90,96
1,35,90,96
1,35,90,96
1,35,90,96
1,35,90,96
1,35,90,96
1,35,90,96
1,35,90,96
1,35,90,96
1,35,90,96
1,35,90,96
1,35,90,96
1,35,90,96
1,35,90,96
1,35,90,96
1,35,90,96
1,35,90,96
1,35,90,96
1,35,90,96
1,35,90,96
1,35,90,96
1,35,90,96
1,35,90,96
1,35,90,96
1,35,90,96
1,35,90,96
1,35,90,96
1,35,90,96
1,35,90,96
1,35,90,96
1,35,90,96
1,35,90,96
1,35,90,96
1,35,90,96
1,35,90,96
1,35,90,96
1,35,90,96
1,35,90,96
1,35,90,96
1,35,90,96
1,35,90,96
1,35,90,96
1,35,90,96
1,35,90,96
1,35,90,96
1,35,90,96
1,35,90,96
1,35,90,96
1,35,90,96
1,35,90,96
1,35,90,96
1,35,90,96
1,35,90,96
1,35,90,96
1,35,90,96
1,35,90,96
1,35,90,96
1,35,90,96
1,35,90,96
1,35,90,96
1,35,90,96
1,35,90,96
1,35,90,96
1,35,90,96
1,35,90,96
1,35,90,96
1,35,90,96
1,35,90,96
1,35,90,96
1,35,90,96
1,35,90,96
1,35,90,96
1,35,90,3168
1,35,90,96
1,35,90,96
1,35,90,96
1,35,90,96
1,35,90,96
1,35,90,96
1,35,90,96
1,35,90,96
1,35,90,96
1,35,90,96
1,35,90,96
1,35,90,96
1,35,90,96
1,35,90,96
1,35,90,96
1,35,90,96
1,35,90,96
1,35,90,96
1,35,90,96
1,35,90,96
1,35,90,96
1,35,90,96
1,35,90,96
1,35,90,96
1,35,90,96
1,35,90,96
1,35,90,96
1,35,90,96
1,35,90,96
1,35,90,96
1,35,90,96
1,35,90,96
1,35,90,96
1,35,90,96
1,35,90,96
1,35,90,96
1,35,90,96
1,35,90,96
1,35,90,96
1,35,90,96
1,35,90,96
1,35,90,96
1,35,90,96
1,35,90,96
1,35,90,96
1,35,90,96
1,35,90,96
1,35,90,96
1,35,90,96
1,35,90,96
1,35,90,96
1,35,90,96
1,35,90,96
1,35,90,96
1,35,90,96
1,35,90,96
1,35,90,96
1,35,90,96
1,35,90,96
1,35,90,96
1,35,90,96
1,35,90,96
1,35,90,96
1,35,90,96
1,35,90,96
1,35,90,96
1,35,90,96
1,35,90,96
1,35,90,96
1,35,90,96
1,35,90,96
1,35,90,96
1,35,90,96
1,35,90,96
1,35,90,96
1,35,90,96
1,35,90,96
1,35,90,96
1,35,90,96
1,35,90,0
1,35,90,24
1,35,90,24
1,35,90,24
1,35,90,24
1,35,90,24
1,35,90,24
1,35,90,24
1,35,90,24
1,35,90,24
1,35,90,24
1,35,90,24
1,35,90,24
1,35,90,24
1,35,90,24
1,35,90,24
1,35,90,24
1,35,90,0
1,35,90,0
1,35,90,0
1,35,90,0
1,35,90,0
1,35,90,0
1,35,90,0
1,35,90,0
1,35,90,0
1,35,90,0
1,35,90,0
1,35,90,0
1,35,90,0
1,35,90,0
1,35,90,0
2,40,90,6336
2,40,90,336
2,40,90,336
2,40,90,336
2,40,90,336
2,40,90,336
2,40,90,336
2,40,90,336
2,40,90,336
2,40,90,336
2,40,90,336
2,40,90,336
2,40,90,336
2,40,90,336
2,40,90,336
2,40,90,336
2,40,90,336
2,40,90,336
2,40,90,336
2,40,90,336
2,40,90,336
2,40,90,336
2,40,90,336
2,40,90,336
2,40,90,3408
2,40,90,336
2,40,90,336
2,40,90,336
2,40,90,336
2,40,90,336
2,40,90,336
2,40,90,336
2,40,90,336
2,40,90,336
2,40,90,336
2,40,90,336
2,40,90,336
2,40,90,336
2,40,90,336
2,40,90,336
2,40,90,336
2,40,90,336
2,40,90,336
2,40,90,336
2,40,90,336
2,40,90,336
2,40,90,336
2,40,90,336
2,40,90,336
2,40,90,336
2,40,90,336
2,40,90,336
2,40,90,336
2,40,90,336
2,40,90,336
2,40,90,336
2,40,90,3408
2,40,90,336
2,40,90,336
2,40,90,336
2,40,90,336
2,40,90,336
2,40,90,336
2,40,90,336
2,40,90,336
2,40,90,336
2,40,90,336
2,40,90,336
2,40,90,336
2,40,90,336
2,40,90,336
2,40,90,336
2,40,90,336
2,40,90,336
2,40,90,336
2,40,90,336
2,40,90,336
2,40,90,336
2,40,90,336
2,40,90,336
2,40,90,336
2,40,90,336
2,40,90,336
2,40,90,336
2,40,90,336
2,40,90,336
2,40,90,336
2,40,90,336
2,40,90,336
2,40,90,336
2,40,90,336
2,40,90,336
2,40,90,336
2,40,90,336
2,40,90,336
2,40,90,336
2,40,90,3408
2,40,90,336
2,40,90,336
2,40,90,336
2,40,90,336
2,40,90,336
2,40,90,336
2,40,90,336
2,40,90,336
2,40,90,336
2,40,90,336
2,40,90,336
2,40,90,336
2,40,90,336
2,40,90,336
2,40,90,336
2,40,90,336
2,40,90,336
2,40,90,336
2,40,90,336
2,40,90,336
2,40,90,336
2,40,90,336
2,40,90,336
2,40,90,336
2,40,90,336
2,40,90,336
2,40,90,336
2,40,90,336
2,40,90,336
2,40,90,336
2,40,90,336
2,40,90,336
2,40,90,336
2,40,90,336
2,40,90,336
2,40,90,336
2,40,90,336
2,40,90,336
2,40,90,336
2,40,90,24
2,40,90,24
2,40,90,24
2,40,90,24
2,40,90,24
2,40,90,24
2,40,90,24
2,40,90,24
2,40,90,0
2,40,90,0
2,40,90,0
2,40,90,0
2,40,90,0
2,40,90,0
2,40,90,0
2,40,90,0
3,42,90,3168
3,42,90,144
3,42,90,144
3,42,90,0
3,42,90,96
3,42,90,144
3,42,90,144
3,42,90,144
3,42,90,0
3,42,90,96
3,42,90,144
3,42,90,144
3,42,90,144
3,42,90,0
3,42,90,96
3,42,90,144
3,42,90,144
3,42,90,144
3,42,90,0
3,42,90,96
3,42,90,144
3,42,90,144
3,42,90,144
3,42,90,0
3,42,90,96
3,42,90,144
3,42,90,144
3,42,90,144
3,42,90,0
3,42,90,96
3,42,90,144
3,42,90,144
3,42,90,144
3,42,90,0
3,42,90,96
3,42,90,144
3,42,90,144
3,42,90,144
3,42,90,0
3,42,90,96
3,42,90,144
3,42,90,144
3,42,90,144
3,42,90,0
3,42,90,96
3,42,90,144
3,42,90,144
3,42,90,144
3,42,90,0
3,42,90,96
3,42,90,144
3,42,90,144
3,42,90,144
3,42,90,0
3,42,90,96
3,42,90,144
3,42,90,144
3,42,90,144
3,42,90,0
3,42,90,96
3,42,90,144
3,42,90,144
3,42,90,144
3,42,90,0
3,42,90,96
3,42,90,144
3,42,90,144
3,42,90,144
3,42,90,0
3,42,90,96
3,42,90,144
3,42,90,144
3,42,90,144
3,42,90,0
3,42,90,96
3,42,90,144
3,42,90,144
3,42,90,144
3,42,90,0
3,42,90,96
3,42,90,3216
3,42,90,144
3,42,90,144
3,42,90,0
3,42,90,96
3,42,90,144
3,42,90,144
3,42,90,144
3,42,90,0
3,42,90,96
3,42,90,144
3,42,90,144
3,42,90,144
3,42,90,0
3,42,90,96
3,42,90,144
3,42,90,144
3,42,90,144
3,42,90,0
3,42,90,96
3,42,90,144
3,42,90,144
3,42,90,144
3,42,90,0
3,42,90,96
3,42,90,144
3,42,90,144
3,42,90,144
3,42,90,0
3,42,90,96
3,42,90,144
3,42,90,144
3,42,90,144
3,42,90,0
3,42,90,96
3,42,90,144
3,42,90,144
3,42,90,144
3,42,90,0
3,42,90,96
3,42,90,144
3,42,90,144
3,42,90,144
3,42,90,0
3,42,90,96
3,42,90,144
3,42,90,144
3,42,90,144
3,42,90,0
3,42,90,96
3,42,90,144
3,42,90,144
3,42,90,144
3,42,90,0
3,42,90,96
3,42,90,144
3,42,90,144
3,42,90,144
3,42,90,0
3,42,90,96
3,42,90,144
3,42,90,144
3,42,90,144
3,42,90,0
3,42,90,96
3,42,90,144
3,42,90,144
3,42,90,144
3,42,90,0
3,42,90,96
3,42,90,144
3,42,90,144
3,42,90,144
3,42,90,0
3,42,90,96
3,42,90,144
3,42,90,144
3,42,90,144
3,42,90,0
3,42,90,96
3,42,90,3216
3,42,90,144
3,42,90,144
3,42,90,0
3,42,90,96
3,42,90,144
3,42,90,144
3,42,90,144
3,42,90,0
3,42,90,96
3,42,90,144
3,42,90,144
3,42,90,144
3,42,90,0
3,42,90,96
3,42,90,144
3,42,90,144
3,42,90,144
3,42,90,0
3,42,90,96
3,42,90,144
3,42,90,144
3,42,90,144
3,42,90,0
3,42,90,96
3,42,90,144
3,42,90,144
3,42,90,144
3,42,90,0
3,42,90,96
3,42,90,144
3,42,90,144
3,42,90,144
3,42,90,0
3,42,90,96
3,42,90,144
3,42,90,144
3,42,90,144
3,42,90,0
3,42,90,96
3,42,90,144
3,42,90,144
3,42,90,144
3,42,90,0
3,42,90,96
3,42,90,144
3,42,90,144
3,42,90,144
3,42,90,0
3,42,90,96
3,42,90,144
3,42,90,144
3,42,90,144
3,42,90,0
3,42,90,96
3,42,90,144
3,42,90,144
3,42,90,144
3,42,90,0
3,42,90,96
3,42,90,144
3,42,90,144
3,42,90,144
3,42,90,0
3,42,90,96
3,42,90,144
3,42,90,144
3,42,90,144
3,42,90,0
3,42,90,96
3,42,90,144
3,42,90,144
3,42,90,144
3,42,90,0
3,42,90,96
3,42,90,144
3,42,90,144
3,42,90,144
3,42,90,0
3,42,90,96
3,42,90,144
3,42,90,144
3,42,90,144
3,42,90,0
3,42,90,96
3,42,90,144
3,42,90,144
3,42,90,144
3,42,90,0
3,42,90,96
3,42,90,144
3,42,90,192
3,42,90,96
3,42,90,0
3,42,90,96
3,42,90,144
3,42,90,144
3,42,90,144
3,42,90,0
3,42,90,96
3,42,90,3216
3,42,90,144
3,42,90,144
3,42,90,0
3,42,90,96
3,42,90,144
3,42,90,144
3,42,90,144
3,42,90,0
3,42,90,96
3,42,90,144
3,42,90,144
3,42,90,144
3,42,90,0
3,42,90,96
3,42,90,144
3,42,90,144
3,42,90,144
3,42,90,0
3,42,90,96
3,42,90,144
3,42,90,144
3,42,90,144
3,42,90,0
3,42,90,96
3,42,90,144
3,42,90,144
3,42,90,144
3,42,90,0
3,42,90,96
3,42,90,144
3,42,90,144
3,42,90,144
3,42,90,0
3,42,90,96
3,42,90,144
3,42,90,144
3,42,90,144
3,42,90,0
3,42,90,96
3,42,90,144
3,42,90,144
3,42,90,144
3,42,90,0
3,42,90,96
3,42,90,144
3,42,90,144
3,42,90,144
3,42,90,0
3,42,90,96
3,42,90,144
3,42,90,144
3,42,90,144
3,42,90,0
3,42,90,96
3,42,90,144
3,42,90,144
3,42,90,144
3,42,90,0
3,42,90,96
3,42,90,144
3,42,90,144
3,42,90,144
3,42,90,0
3,42,90,96
3,42,90,144
3,42,90,144
3,42,90,144
3,42,90,0
3,42,90,96
3,42,90,144
3,42,90,144
3,42,90,144
3,42,90,0
3,42,90,96
3,42,90,144
3,42,90,144
3,42,90,144
3,42,90,0
3,42,90,96
3,42,90,144
3,42,90,144
3,42,90,144
3,42,90,0
3,42,90,96
3,42,90,144
3,42,90,144
3,42,90,144
3,42,90,0
3,42,90,96
3,42,90,144
3,42,90,192
3,42,90,96
3,42,90,0
3,42,90,96
3,42,90,144
3,42,90,144
3,42,90,144
3,42,90,0
3,42,90,96
3,42,90,24
3,42,90,24
3,42,90,24
3,42,90,0
3,42,90,24
3,42,90,24
3,42,90,24
3,42,90,24
3,42,90,0
3,42,90,24
3,42,90,24
3,42,90,24
3,42,90,24
3,42,90,0
3,42,90,24
3,42,90,24
3,42,90,24
3,42,90,24
3,42,90,0
3,42,90,24
3,42,90,0
3,42,90,0
3,42,90,0
3,42,90,0
3,42,90,0
3,42,90,0
3,42,90,0
3,42,90,0
3,42,90,0
3,42,90,0
3,42,90,0
3,42,90,0
3,42,90,0
3,42,90,0
3,42,90,0
3,42,90,0
3,42,90,0
3,42,90,0
3,42,90,0
3,42,90,0
4,31,90,3072
4,36,90,96
4,38,90,0
4,31,90,0
4,36,90,96
4,38,90,0
4,36,90,0
4,41,90,96
4,43,90,0
4,36,90,0
4,41,90,96
4,43,90,0
4,31,90,0
4,36,90,96
4,38,90,0
4,31,90,0
4,36,90,96
4,38,90,0
4,36,90,0
4,41,90,96
4,43,90,0
4,36,90,0
4,41,90,96
4,43,90,0
4,31,90,0
4,36,90,96
4,38,90,0
4,31,90,0
4,36,90,96
4,38,90,0
4,36,90,0
4,29,90,96
4,31,90,0
4,31,90,48
4,29,90,96
4,31,90,0
4,31,90,48
4,36,90,96
4,38,90,0
4,31,90,0
4,36,90,96
4,38,90,0
4,36,90,0
4,29,90,96
4,31,90,0
4,36,90,0
4,29,90,96
4,31,90,0
4,38,90,0
4,45,90,0
4,38,90,0
4,40,90,0
4,47,90,48
4,40,90,48
4,36,90,48
4,36,90,48
4,36,90,48
4,36,90,48
4,36,90,48
4,36,90,48
4,31,90,48
4,36,90,96
4,38,90,0
4,31,90,0
4,36,90,96
4,38,90,0
4,36,90,0
4,41,90,96
4,43,90,0
4,36,90,0
4,41,90,96
4,43,90,0
4,31,90,0
4,36,90,96
4,38,90,0
4,31,90,0
4,36,90,96
4,38,90,0
4,36,90,0
4,41,90,96
4,43,90,0
4,36,90,0
4,41,90,96
4,43,90,0
4,31,90,0
4,36,90,96
4,38,90,0
4,31,90,0
4,36,90,96
4,38,90,0
4,36,90,0
4,29,90,96
4,31,90,0
4,31,90,48
4,29,90,96
4,31,90,0
4,31,90,48
4,36,90,96
4,38,90,0
4,31,90,0
4,36,90,96
4,38,90,0
4,36,90,0
4,29,90,96
4,31,90,0
4,36,90,0
4,29,90,96
4,31,90,0
4,38,90,0
4,45,90,0
4,38,90,0
4,40,90,0
