track,note,velocity,time
1,45,101,768
1,45,0,24
1,45,101,0
1,45,0,48
1,45,101,0
1,45,0,24
1,45,101,0
1,45,0,96
1,45,101,0
1,45,0,24
1,45,101,0
1,45,0,48
1,45,101,0
1,45,0,24
1,45,101,0
1,45,0,96
1,45,101,0
1,45,0,24
1,45,101,0
1,45,0,48
1,45,101,0
1,45,0,24
1,45,101,0
1,45,0,96
1,45,101,0
1,45,0,24
1,45,101,0
1,45,0,48
1,45,101,0
1,45,0,24
1,45,101,0
1,45,0,96
1,45,101,0
1,45,0,24
1,45,101,0
1,45,0,48
1,45,101,0
1,45,0,24
1,45,101,0
1,45,0,96
1,45,101,0
1,45,0,24
1,45,101,0
1,45,0,48
1,45,101,0
1,45,0,24
1,45,101,0
1,45,0,96
1,45,101,0
1,45,0,24
1,45,101,0
1,45,0,48
1,45,101,0
1,45,0,24
1,45,101,0
1,45,0,96
1,45,101,0
1,45,0,24
1,45,101,0
1,45,0,48
1,45,101,0
1,45,0,24
1,57,101,0
1,57,0,48
1,52,101,0
1,52,0,48
1,45,101,0
1,45,0,24
1,45,101,0
1,45,0,48
1,45,101,0
1,45,0,24
1,45,101,0
1,45,0,96
1,45,101,0
1,45,0,24
1,45,101,0
1,45,0,48
1,45,101,0
1,45,0,24
1,45,101,0
1,45,0,96
1,45,101,0
1,45,0,24
1,45,101,0
1,45,0,48
1,45,101,0
1,45,0,24
1,45,101,0
1,45,0,96
1,45,101,0
1,45,0,24
1,45,101,0
1,45,0,48
1,45,101,0
1,45,0,24
1,45,101,0
1,45,0,96
1,45,101,0
1,45,0,24
1,45,101,0
1,45,0,48
1,45,101,0
1,45,0,24
1,45,101,0
1,45,0,96
1,45,101,0
1,45,0,24
1,45,101,0
1,45,0,48
1,45,101,0
1,45,0,24
1,45,101,0
1,45,0,96
1,45,101,0
1,45,0,24
1,45,101,0
1,45,0,48
1,45,101,0
1,45,0,24
1,45,101,0
1,45,0,96
1,45,101,0
1,45,0,24
1,45,101,0
1,45,0,48
1,45,101,0
1,45,0,24
1,45,101,0
1,45,0,96
1,57,101,0
1,57,0,12
1,45,101,0
1,45,0,12
1,60,101,0
1,60,0,12
1,48,101,0
1,48,0,12
1,64,101,0
1,64,0,12
1,52,101,0
1,52,0,12
1,69,101,0
1,69,0,12
1,57,101,0
1,57,0,12
1,57,101,0
1,57,0,12
1,45,101,0
1,45,0,12
1,60,101,0
1,60,0,12
1,48,101,0
1,48,0,12
1,64,101,0
1,64,0,12
1,52,101,0
1,52,0,12
1,69,101,0
1,69,0,12
1,57,101,0
1,57,0,12
1,57,101,0
1,57,0,12
1,45,101,0
1,45,0,12
1,60,101,0
1,60,0,12
1,48,101,0
1,48,0,12
1,64,101,0
1,64,0,12
1,52,101,0
1,52,0,12
1,69,101,0
1,69,0,12
1,57,101,0
1,57,0,12
1,57,101,0
1,57,0,12
1,45,101,0
1,45,0,12
1,60,101,0
1,60,0,12
1,48,101,0
1,48,0,12
1,64,101,0
1,64,0,12
1,52,101,0
1,52,0,12
1,69,101,0
1,69,0,12
1,57,101,0
1,57,0,12
1,57,101,0
1,57,0,12
1,45,101,0
1,45,0,12
1,60,101,0
1,60,0,12
1,48,101,0
1,48,0,12
1,64,101,0
1,64,0,12
1,52,101,0
1,52,0,12
1,69,101,0
1,69,0,12
1,57,101,0
1,57,0,12
1,57,101,0
1,57,0,12
1,45,101,0
1,45,0,12
1,60,101,0
1,60,0,12
1,48,101,0
1,48,0,12
1,64,101,0
1,64,0,12
1,52,101,0
1,52,0,12
1,69,101,0
1,69,0,12
1,57,101,0
1,57,0,12
1,57,101,0
1,57,0,12
1,45,101,0
1,45,0,12
1,60,101,0
1,60,0,12
1,48,101,0
1,48,0,12
1,64,101,0
1,64,0,12
1,52,101,0
1,52,0,12
1,69,101,0
1,69,0,12
1,57,101,0
1,57,0,12
1,57,101,0
1,57,0,12
1,45,101,0
1,45,0,12
1,60,101,0
1,60,0,12
1,48,101,0
1,48,0,12
1,64,101,0
1,64,0,12
1,52,101,0
1,52,0,12
1,69,101,0
1,69,0,12
1,57,101,0
1,57,0,12
1,57,101,0
1,57,0,12
1,45,101,0
1,45,0,12
1,60,101,0
1,60,0,12
1,48,101,0
1,48,0,12
1,64,101,0
1,64,0,12
1,52,101,0
1,52,0,12
1,69,101,0
1,69,0,12
1,57,101,0
1,57,0,12
1,57,101,0
1,57,0,12
1,45,101,0
1,45,0,12
1,60,101,0
1,60,0,12
1,48,101,0
1,48,0,12
1,64,101,0
1,64,0,12
1,52,101,0
1,52,0,12
1,69,101,0
1,69,0,12
1,57,101,0
1,57,0,12
1,52,101,0
1,52,0,12
1,40,101,0
1,40,0,12
1,55,101,0
1,55,0,12
1,43,101,0
1,43,0,12
1,59,101,0
1,59,0,12
1,47,101,0
1,47,0,12
1,64,101,0
1,64,0,12
1,52,101,0
1,52,0,12
1,52,101,0
1,52,0,12
1,40,101,0
1,40,0,12
1,55,101,0
1,55,0,12
1,43,101,0
1,43,0,12
1,59,101,0
1,59,0,12
1,47,101,0
1,47,0,12
1,64,101,0
1,64,0,12
1,52,101,0
1,52,0,12
1,53,101,0
1,53,0,12
1,41,101,0
1,41,0,12
1,57,101,0
1,57,0,12
1,45,101,0
1,45,0,12
1,60,101,0
1,60,0,12
1,48,101,0
1,48,0,12
1,65,101,0
1,65,0,12
1,53,101,0
1,53,0,12
1,53,101,0
1,53,0,12
1,41,101,0
1,41,0,12
1,57,101,0
1,57,0,12
1,45,101,0
1,45,0,12
1,60,101,0
1,60,0,12
1,48,101,0
1,48,0,12
1,65,101,0
1,65,0,12
1,53,101,0
1,53,0,12
1,48,101,0
1,48,0,12
1,36,101,0
1,36,0,12
1,52,101,0
1,52,0,12
1,40,101,0
1,40,0,12
1,56,101,0
1,56,0,12
1,44,101,0
1,44,0,12
1,59,101,0
1,59,0,12
1,47,101,0
1,47,0,12
1,52,101,0
1,52,0,12
1,40,101,0
1,40,0,12
1,56,101,0
1,56,0,12
1,44,101,0
1,44,0,12
1,59,101,0
1,59,0,12
1,47,101,0
1,47,0,12
1,60,101,0
1,60,0,12
1,48,101,0
1,48,0,12
1,57,101,0
1,57,0,12
1,45,101,0
1,45,0,12
1,60,101,0
1,60,0,12
1,48,101,0
1,48,0,12
1,64,101,0
1,64,0,12
1,52,101,0
1,52,0,12
1,69,101,0
1,69,0,12
1,57,101,0
1,57,0,12
1,57,101,0
1,57,0,12
1,45,101,0
1,45,0,12
1,60,101,0
1,60,0,12
1,48,101,0
1,48,0,12
1,64,101,0
1,64,0,12
1,52,101,0
1,52,0,12
1,69,101,0
1,69,0,12
1,57,101,0
1,57,0,12
1,52,101,0
1,52,0,12
1,40,101,0
1,40,0,12
1,55,101,0
1,55,0,12
1,43,101,0
1,43,0,12
1,59,101,0
1,59,0,12
1,47,101,0
1,47,0,12
1,64,101,0
1,64,0,12
1,52,101,0
1,52,0,12
1,52,101,0
1,52,0,12
1,40,101,0
1,40,0,12
1,55,101,0
1,55,0,12
1,43,101,0
1,43,0,12
1,59,101,0
1,59,0,12
1,47,101,0
1,47,0,12
1,64,101,0
1,64,0,12
1,52,101,0
1,52,0,12
1,53,101,0
1,53,0,12
1,41,101,0
1,41,0,12
1,57,101,0
1,57,0,12
1,45,101,0
1,45,0,12
1,60,101,0
1,60,0,12
1,48,101,0
1,48,0,12
1,65,101,0
1,65,0,12
1,53,101,0
1,53,0,12
1,53,101,0
1,53,0,12
1,41,101,0
1,41,0,12
1,57,101,0
1,57,0,12
1,45,101,0
1,45,0,12
1,60,101,0
1,60,0,12
1,48,101,0
1,48,0,12
1,65,101,0
1,65,0,12
1,53,101,0
1,53,0,12
1,48,101,0
1,48,0,12
1,36,101,0
1,36,0,12
1,52,101,0
1,52,0,12
1,40,101,0
1,40,0,12
1,56,101,0
1,56,0,12
1,44,101,0
1,44,0,12
1,59,101,0
1,59,0,12
1,47,101,0
1,47,0,12
1,52,101,0
1,52,0,12
1,40,101,0
1,40,0,12
1,56,101,0
1,56,0,12
1,44,101,0
1,44,0,12
1,59,101,0
1,59,0,12
1,47,101,0
1,47,0,12
1,60,101,0
1,60,0,12
1,48,101,0
1,48,0,12
1,57,101,0
1,57,0,12
1,45,101,0
1,45,0,12
1,60,101,0
1,60,0,12
1,48,101,0
1,48,0,12
1,64,101,0
1,64,0,12
1,52,101,0
1,52,0,12
1,69,101,0
1,69,0,12
1,57,101,0
1,57,0,12
1,57,101,0
1,57,0,12
1,45,101,0
1,45,0,12
1,60,101,0
1,60,0,12
1,48,101,0
1,48,0,12
1,64,101,0
1,64,0,12
1,52,101,0
1,52,0,12
1,69,101,0
1,69,0,12
1,57,101,0
1,57,0,12
1,57,101,0
1,57,0,12
1,45,101,0
1,45,0,12
1,60,101,0
1,60,0,12
1,48,101,0
1,48,0,12
1,64,101,0
1,64,0,12
1,52,101,0
1,52,0,12
1,69,101,0
1,69,0,12
1,57,101,0
1,57,0,12
1,57,101,0
1,57,0,12
1,45,101,0
1,45,0,12
1,60,101,0
1,60,0,12
1,48,101,0
1,48,0,12
1,64,101,0
1,64,0,12
1,52,101,0
1,52,0,12
1,69,101,0
1,69,0,12
1,57,101,0
1,57,0,12
1,57,101,0
1,57,0,12
1,45,101,0
1,45,0,12
1,60,101,0
1,60,0,12
1,48,101,0
1,48,0,12
1,64,101,0
1,64,0,12
1,52,101,0
1,52,0,12
1,69,101,0
1,69,0,12
1,57,101,0
1,57,0,12
1,57,101,0
1,57,0,12
1,45,101,0
1,45,0,12
1,60,101,0
1,60,0,12
1,48,101,0
1,48,0,12
1,64,101,0
1,64,0,12
1,52,101,0
1,52,0,12
1,69,101,0
1,69,0,12
1,57,101,0
1,57,0,12
1,57,101,0
1,57,0,12
1,45,101,0
1,45,0,12
1,60,101,0
1,60,0,12
1,48,101,0
1,48,0,12
1,64,101,0
1,64,0,12
1,52,101,0
1,52,0,12
1,69,101,0
1,69,0,12
1,57,101,0
1,57,0,12
1,57,101,0
1,57,0,12
1,45,101,0
1,45,0,12
1,60,101,0
1,60,0,12
1,48,101,0
1,48,0,12
1,64,101,0
1,64,0,12
1,52,101,0
1,52,0,12
1,69,101,0
1,69,0,12
1,57,101,0
1,57,0,12
1,57,101,0
1,57,0,12
1,45,101,0
1,45,0,12
1,60,101,0
1,60,0,12
1,48,101,0
1,48,0,12
1,64,101,0
1,64,0,12
1,52,101,0
1,52,0,12
1,69,101,0
1,69,0,12
1,57,101,0
1,57,0,12
1,57,101,0
1,57,0,12
1,45,101,0
1,45,0,12
1,60,101,0
1,60,0,12
1,48,101,0
1,48,0,12
1,64,101,0
1,64,0,12
1,52,101,0
1,52,0,12
1,69,101,0
1,69,0,12
1,57,101,0
1,57,0,12
1,57,101,0
1,57,0,12
1,45,101,0
1,45,0,12
1,60,101,0
1,60,0,12
1,48,101,0
1,48,0,12
1,64,101,0
1,64,0,12
1,52,101,0
1,52,0,12
1,69,101,0
1,69,0,12
1,57,101,0
1,57,0,12
1,57,101,0
1,57,0,12
1,45,101,0
1,45,0,12
1,60,101,0
1,60,0,12
1,48,101,0
1,48,0,12
1,64,101,0
1,64,0,12
1,52,101,0
1,52,0,12
1,69,101,0
1,69,0,12
1,57,101,0
1,57,0,12
1,57,101,0
1,57,0,12
1,45,101,0
1,45,0,12
1,60,101,0
1,60,0,12
1,48,101,0
1,48,0,12
1,64,101,0
1,64,0,12
1,52,101,0
1,52,0,12
1,69,101,0
1,69,0,12
1,57,101,0
1,57,0,12
1,57,101,0
1,57,0,12
1,45,101,0
1,45,0,12
1,60,101,0
1,60,0,12
1,48,101,0
1,48,0,12
1,64,101,0
1,64,0,12
1,52,101,0
1,52,0,12
1,69,101,0
1,69,0,12
1,57,101,0
1,57,0,12
1,57,101,0
1,57,0,12
1,45,101,0
1,45,0,12
1,60,101,0
1,60,0,12
1,48,101,0
1,48,0,12
1,64,101,0
1,64,0,12
1,52,101,0
1,52,0,12
1,69,101,0
1,69,0,12
1,57,101,0
1,57,0,12
1,57,101,0
1,57,0,12
1,45,101,0
1,45,0,12
1,60,101,0
1,60,0,12
1,48,101,0
1,48,0,12
1,64,101,0
1,64,0,12
1,52,101,0
1,52,0,12
1,69,101,0
1,69,0,12
1,57,101,0
1,57,0,12
1,57,101,0
1,57,0,12
1,45,101,0
1,45,0,12
1,60,101,0
1,60,0,12
1,48,101,0
1,48,0,12
1,64,101,0
1,64,0,12
1,52,101,0
1,52,0,12
1,69,101,0
1,69,0,12
1,57,101,0
1,57,0,12
1,57,101,0
1,57,0,12
1,45,101,0
1,45,0,12
1,60,101,0
1,60,0,12
1,48,101,0
1,48,0,12
1,64,101,0
1,64,0,12
1,52,101,0
1,52,0,12
1,69,101,0
1,69,0,12
1,57,101,0
1,57,0,12
1,52,101,0
1,52,0,12
1,40,101,0
1,40,0,12
1,55,101,0
1,55,0,12
1,43,101,0
1,43,0,12
1,59,101,0
1,59,0,12
1,47,101,0
1,47,0,12
1,64,101,0
1,64,0,12
1,52,101,0
1,52,0,12
1,52,101,0
1,52,0,12
1,40,101,0
1,40,0,12
1,55,101,0
1,55,0,12
1,43,101,0
1,43,0,12
1,59,101,0
1,59,0,12
1,47,101,0
1,47,0,12
1,64,101,0
1,64,0,12
1,52,101,0
1,52,0,12
1,53,101,0
1,53,0,12
1,41,101,0
1,41,0,12
1,57,101,0
1,57,0,12
1,45,101,0
1,45,0,12
1,60,101,0
1,60,0,12
1,48,101,0
1,48,0,12
1,65,101,0
1,65,0,12
1,53,101,0
1,53,0,12
1,53,101,0
1,53,0,12
1,41,101,0
1,41,0,12
1,57,101,0
1,57,0,12
1,45,101,0
1,45,0,12
1,60,101,0
1,60,0,12
1,48,101,0
1,48,0,12
1,65,101,0
1,65,0,12
1,53,101,0
1,53,0,12
1,48,101,0
1,48,0,12
1,36,101,0
1,36,0,12
1,52,101,0
1,52,0,12
1,40,101,0
1,40,0,12
1,56,101,0
1,56,0,12
1,44,101,0
1,44,0,12
1,59,101,0
1,59,0,12
1,47,101,0
1,47,0,12
1,52,101,0
1,52,0,12
1,40,101,0
1,40,0,12
1,56,101,0
1,56,0,12
1,44,101,0
1,44,0,12
1,59,101,0
1,59,0,12
1,47,101,0
1,47,0,12
1,60,101,0
1,60,0,12
1,48,101,0
1,48,0,12
1,57,101,0
1,57,0,12
1,45,101,0
1,45,0,12
1,60,101,0
1,60,0,12
1,48,101,0
1,48,0,12
1,64,101,0
1,64,0,12
1,52,101,0
1,52,0,12
1,69,101,0
1,69,0,12
1,57,101,0
1,57,0,12
1,57,101,0
1,57,0,12
1,45,101,0
1,45,0,12
1,60,101,0
1,60,0,12
1,48,101,0
1,48,0,12
1,64,101,0
1,64,0,12
1,52,101,0
1,52,0,12
1,69,101,0
1,69,0,12
1,57,101,0
1,57,0,12
1,52,101,0
1,52,0,12
1,40,101,0
1,40,0,12
1,55,101,0
1,55,0,12
1,43,101,0
1,43,0,12
1,59,101,0
1,59,0,12
1,47,101,0
1,47,0,12
1,64,101,0
1,64,0,12
1,52,101,0
1,52,0,12
1,52,101,0
1,52,0,12
1,40,101,0
1,40,0,12
1,55,101,0
1,55,0,12
1,43,101,0
1,43,0,12
1,59,101,0
1,59,0,12
1,47,101,0
1,47,0,12
1,64,101,0
1,64,0,12
1,52,101,0
1,52,0,12
1,53,101,0
1,53,0,12
1,41,101,0
1,41,0,12
1,57,101,0
1,57,0,12
1,45,101,0
1,45,0,12
1,60,101,0
1,60,0,12
1,48,101,0
1,48,0,12
1,65,101,0
1,65,0,12
1,53,101,0
1,53,0,12
1,53,101,0
1,53,0,12
1,41,101,0
1,41,0,12
1,57,101,0
1,57,0,12
1,45,101,0
1,45,0,12
1,60,101,0
1,60,0,12
1,48,101,0
1,48,0,12
1,65,101,0
1,65,0,12
1,53,101,0
1,53,0,12
1,48,101,0
1,48,0,12
1,36,101,0
1,36,0,12
1,52,101,0
1,52,0,12
