track,note,velocity,time
1,66,64,0
1,71,64,0
1,71,0,119
1,66,0,0
1,69,64,1
1,74,64,0
1,74,0,59
1,76,64,1
1,76,0,59
1,69,0,0
1,71,64,61
1,78,64,0
1,78,0,59
1,71,0,0
1,71,64,61
1,78,64,0
1,78,0,59
1,76,64,1
1,76,0,59
1,74,64,1
1,71,0,58
1,74,0,1
1,69,64,1
1,76,64,0
1,76,0,59
1,78,64,1
1,78,0,59
1,69,0,0
1,66,64,61
1,71,64,0
1,71,0,59
1,66,0,0
1,71,64,121
1,71,0,29
1,71,64,1
1,71,0,29
1,71,64,1
1,71,0,29
1,71,64,1
1,71,0,29
1,74,64,1
1,74,0,59
1,71,64,1
1,71,0,59
1,59,64,121
1,64,64,0
1,64,0,88
1,59,0,0
1,59,64,2
1,64,64,0
1,59,0,88
1,64,0,1
1,59,64,1
1,59,0,59
1,57,64,1
1,62,64,0
1,62,0,59
1,57,0,0
1,59,64,1
1,59,0,59
1,66,64,241
1,71,64,0
1,71,0,119
1,66,0,0
1,69,64,1
1,74,64,0
1,74,0,59
1,76,64,1
1,76,0,59
1,69,0,0
1,71,64,61
1,78,64,0
1,78,0,59
1,71,0,0
1,71,64,61
1,78,64,0
1,78,0,59
1,76,64,1
1,76,0,59
1,74,64,1
1,71,0,58
1,74,0,1
1,69,64,1
1,76,64,0
1,76,0,59
1,78,64,1
1,78,0,59
1,69,0,0
1,66,64,61
1,71,64,0
1,71,0,59
1,66,0,0
1,71,64,121
1,71,0,29
1,71,64,1
1,71,0,29
1,71,64,1
1,71,0,29
1,71,64,1
1,71,0,29
1,74,64,1
1,74,0,59
1,71,64,1
1,71,0,59
1,59,64,121
1,64,64,0
1,64,0,88
1,59,0,0
1,59,64,2
1,64,64,0
1,59,0,88
1,64,0,1
1,59,64,1
1,59,0,59
1,57,64,1
1,62,64,0
1,62,0,59
1,57,0,0
1,59,64,1
1,59,0,59
1,66,64,121
1,71,64,0
1,71,0,59
1,71,64,1
1,71,0,59
1,69,64,1
1,66,0,58
1,69,0,1
1,66,64,1
1,71,64,0
1,71,0,119
1,66,0,0
1,54,64,1
1,59,64,0
1,59,0,59
1,59,64,1
1,59,0,59
1,59,64,1
1,54,0,58
1,59,0,1
1,59,64,1
1,64,64,0
1,64,0,59
1,66,64,1
1,59,0,118
1,66,0,1
1,57,64,1
1,62,64,0
1,62,0,178
1,57,0,1
1,69,64,61
1,69,64,0
1,69,0,59
1,69,0,0
1,66,64,1
1,71,64,0
1,71,0,119
1,71,64,1
1,71,0,119
1,66,0,0
1,66,64,1
1,71,64,0
1,71,0,59
1,71,64,1
1,66,0,118
1,71,0,1
1,66,64,1
1,66,64,0
1,66,0,59
1,66,0,0
1,62,64,1
1,69,64,0
1,69,0,59
1,66,64,1
1,66,0,59
1,64,64,1
1,62,0,58
1,64,0,1
1,61,64,1
1,66,64,0
1,66,0,178
1,61,0,1
1,66,64,61
1,66,64,0
1,66,0,59
1,66,0,0
1,66,64,1
1,71,64,0
1,71,0,59
1,71,64,1
1,71,0,59
1,71,64,1
1,71,0,59
1,69,64,1
1,69,0,59
1,66,0,0
1,66,64,1
1,71,64,0
1,71,0,119
1,66,0,0
1,59,64,1
1,59,64,0
1,59,0,59
1,59,0,0
1,59,64,1
1,59,64,0
1,59,0,59
1,59,0,0
1,59,64,1
1,64,64,0
1,64,0,59
1,64,64,1
1,64,0,59
1,66,64,1
1,59,0,58
1,66,0,1
1,59,64,1
1,67,64,0
1,67,0,298
1,59,0,1
1,66,64,121
1,71,64,0
1,71,0,119
1,66,0,0
1,66,64,1
1,69,64,0
1,69,0,59
1,71,64,1
1,71,0,59
1,66,0,0
1,59,64,121
1,64,64,0
1,64,0,88
1,59,0,0
1,59,64,2
1,64,64,0
1,64,0,89
1,66,64,1
1,66,0,59
1,59,0,0
1,57,64,1
1,62,64,0
1,62,0,59
1,64,64,1
1,64,0,59
1,57,0,0
1,66,64,241
1,71,64,0
1,71,0,119
1,66,0,0
1,66,64,1
1,69,64,0
1,69,0,59
1,71,64,1
1,71,0,59
1,66,0,0
1,59,64,121
1,64,64,0
1,64,0,88
1,59,0,0
1,59,64,2
1,64,64,0
1,64,0,89
1,66,64,1
1,66,0,59
1,59,0,0
1,57,64,1
1,62,64,0
1,62,0,59
1,64,64,1
1,64,0,59
1,57,0,0
1,66,64,241
1,71,64,0
1,71,0,119
1,66,0,0
1,69,64,1
1,74,64,0
1,74,0,59
1,76,64,1
1,76,0,59
1,69,0,0
1,71,64,61
1,78,64,0
1,78,0,59
1,71,0,0
1,71,64,61
1,78,64,0
1,78,0,59
1,76,64,1
1,76,0,59
1,74,64,1
1,71,0,58
1,74,0,1
1,76,64,1
1,76,0,59
1,78,64,1
1,78,0,59
1,66,64,61
1,71,64,0
1,71,0,59
1,66,0,0
1,71,64,121
1,71,0,29
1,71,64,1
1,71,0,29
1,71,64,1
1,71,0,29
1,71,64,1
1,71,0,29
1,74,64,1
1,74,0,59
1,71,64,1
1,71,0,59
1,59,64,121
1,64,64,0
1,64,0,88
1,59,0,0
1,59,64,2
1,64,64,0
1,59,0,88
1,64,0,1
1,59,64,1
1,59,0,59
1,57,64,1
1,62,64,0
1,62,0,59
1,57,0,0
1,59,64,1
1,59,0,59
1,62,64,121
1,66,64,0
1,71,64,0
1,71,0,59
1,71,64,1
1,71,0,59
1,69,64,1
1,66,0,58
1,62,0,0
1,69,0,1
1,62,64,1
1,66,64,0
1,71,64,0
1,71,0,178
1,66,0,60
1,62,0,0
1,59,64,2
1,59,64,0
1,59,0,59
1,59,0,0
1,59,64,1
1,64,64,0
1,64,0,59
1,64,64,1
1,64,0,59
1,59,0,0
1,59,64,1
1,66,64,0
1,66,0,59
1,54,64,1
1,66,64,0
1,66,0,59
1,59,0,0
1,59,64,1
1,62,64,0
1,54,0,118
1,62,0,1
1,59,0,59
1,66,64,2
1,66,64,0
1,66,0,59
1,66,0,0
1,62,64,1
1,66,64,0
1,71,64,0
1,71,0,59
1,71,64,1
1,71,0,59
1,69,64,1
1,66,0,58
1,62,0,0
1,69,0,1
1,62,64,1
1,66,64,0
1,71,64,0
1,71,0,238
1,66,0,0
1,62,0,0
1,66,64,2
1,66,64,0
1,66,0,59
1,66,0,0
1,62,64,1
1,69,64,0
1,69,0,59
1,66,64,1
1,66,0,59
1,64,64,1
1,62,0,58
1,64,0,1
1,61,64,1
1,66,64,0
1,66,0,178
1,61,0,0
1,66,64,62
1,66,0,59
1,62,64,1
1,66,64,0
1,71,64,0
1,71,0,59
1,71,64,1
1,71,0,59
1,69,64,1
1,66,0,58
1,62,0,0
1,69,0,1
1,62,64,1
1,66,64,0
1,71,64,0
1,71,0,178
1,66,0,60
1,62,0,0
1,66,64,2
1,59,64,0
1,59,0,59
1,66,0,0
1,56,64,1
1,59,64,0
1,64,64,0
1,64,0,59
1,66,64,1
1,59,0,118
1,56,0,0
1,66,0,1
1,55,64,1
1,59,64,0
1,67,64,0
1,67,0,299
1,59,0,0
1,55,0,0
1,66,64,121
1,71,64,0
1,71,0,119
1,66,0,0
1,66,64,1
1,71,64,0
1,71,0,119
1,66,0,0
1,59,64,121
1,64,64,0
1,64,0,88
1,59,0,0
1,59,64,2
1,64,64,0
1,64,0,89
1,66,64,1
1,66,0,59
1,59,0,0
1,57,64,1
1,62,64,0
1,62,0,59
1,64,64,1
1,64,0,59
1,57,0,0
1,66,64,241
1,71,64,0
1,71,0,119
1,66,0,0
1,66,64,1
1,71,64,0
1,71,0,119
1,66,0,0
1,59,64,121
1,64,64,0
1,64,0,88
1,59,0,0
1,59,64,2
1,64,64,0
1,64,0,88
1,66,64,2
1,66,0,59
1,59,0,0
1,57,64,1
1,62,64,0
1,62,0,59
1,64,64,1
1,64,0,59
1,57,0,0
1,59,64,0
1,59,0,59
1,63,64,1
1,63,0,59
1,64,64,1
1,64,0,59
1,63,64,1
1,63,0,59
1,66,64,1
1,66,0,59
1,64,64,1
1,64,0,59
1,69,64,1
1,69,0,59
1,71,64,1
1,71,0,59
1,75,64,1
1,75,0,59
1,76,64,1
1,76,0,59
1,78,64,1
1,78,0,59
1,83,64,1
1,83,0,59
1,83,64,1
1,83,0,119
1,64,64,0
1,64,0,59
1,62,64,1
1,62,0,59
1,64,64,1
1,59,64,0
1,64,0,59
1,64,64,1
1,64,0,59
1,62,64,1
1,59,0,58
1,62,0,1
1,59,64,1
1,64,64,0
1,64,0,238
1,59,0,0
1,59,64,2
1,62,64,0
1,62,0,59
1,59,0,0
1,59,64,1
1,64,64,0
1,64,0,119
1,59,0,0
1,59,64,1
1,64,64,0
1,64,0,59
1,66,64,1
1,66,0,59
1,59,0,0
1,59,64,1
1,62,64,0
1,62,0,59
1,61,64,1
1,61,0,59
1,59,0,0
1,54,64,1
1,59,64,0
1,59,0,59
1,59,64,1
1,59,0,59
1,54,0,0
1,59,64,1
1,64,64,0
1,64,0,59
1,62,64,1
1,59,0,118
1,62,0,1
1,59,64,1
1,64,64,0
1,64,0,238
1,59,0,0
1,59,64,2
1,62,64,0
1,62,0,59
1,59,0,0
1,59,64,1
1,64,64,0
1,64,0,59
1,64,64,1
1,64,0,59
1,59,0,0
1,59,64,1
1,66,64,0
1,66,0,119
1,59,0,0
1,62,64,1
1,62,0,59
1,61,64,1
1,61,0,59
1,59,64,1
1,59,0,59
1,57,64,1
1,57,0,59
1,59,64,1
1,59,0,59
1,59,64,1
1,59,0,59
1,59,64,1
1,59,0,59
1,55,64,1
1,62,64,0
1,62,0,299
1,55,0,0
1,62,64,421
1,62,0,59
1,61,64,1
1,61,0,59
1,61,64,1
1,61,0,59
1,61,64,1
1,61,0,59
1,61,64,1
1,64,64,0
1,64,0,539
1,61,0,0
1,83,64,121
1,83,0,29
1,81,64,1
1,81,0,29
1,78,64,1
1,78,0,29
1,76,64,1
1,76,0,29
1,75,64,1
1,75,0,119
1,66,64,1
1,71,64,0
1,71,0,119
1,66,0,0
1,69,64,1
1,74,64,0
1,74,0,119
1,69,0,0
1,76,64,1
1,76,0,59
1,71,64,1
1,78,64,0
1,78,0,59
1,71,0,0
1,71,64,61
1,78,64,0
1,78,0,59
1,76,64,1
1,76,0,59
1,74,64,1
1,71,0,58
1,74,0,1
1,76,64,1
1,76,0,59
1,78,64,1
1,78,0,59
1,66,64,61
1,71,64,0
1,71,0,59
1,66,0,0
1,71,64,121
1,71,0,29
1,71,64,1
1,71,0,29
1,71,64,1
1,71,0,29
1,71,64,1
1,71,0,29
1,74,64,1
1,74,0,59
1,71,64,1
1,71,0,59
1,59,64,121
1,64,64,0
1,64,0,88
1,59,0,0
1,59,64,2
1,64,64,0
1,59,0,88
1,64,0,1
1,59,64,1
1,59,0,59
1,57,64,1
1,62,64,0
1,62,0,59
1,57,0,0
1,59,64,1
1,59,0,59
1,62,64,121
1,66,64,0
1,71,64,0
1,71,0,59
1,71,64,1
1,71,0,59
1,69,64,1
1,66,0,58
1,62,0,0
1,69,0,1
1,62,64,1
1,66,64,0
1,71,64,0
1,71,0,178
1,66,0,60
1,62,0,0
1,59,64,2
1,59,64,0
1,59,0,59
1,59,0,0
1,59,64,1
1,64,64,0
1,64,0,59
1,64,64,1
1,64,0,59
1,59,0,0
1,59,64,1
1,66,64,0
1,66,0,59
1,54,64,1
1,66,64,0
1,66,0,59
1,59,0,0
1,59,64,1
1,62,64,0
1,54,0,118
1,62,0,1
1,59,0,59
1,66,64,2
1,66,64,0
1,66,0,59
1,66,0,0
1,62,64,1
1,66,64,0
1,71,64,0
1,71,0,59
1,71,64,1
1,71,0,59
1,69,64,1
1,66,0,58
1,62,0,0
1,69,0,1
1,62,64,1
1,66,64,0
1,71,64,0
1,71,0,238
1,66,0,0
1,62,0,0
1,66,64,2
1,66,64,0
1,66,0,59
1,66,0,0
1,62,64,1
1,69,64,0
1,69,0,59
1,66,64,1
1,66,0,59
1,64,64,1
1,62,0,58
1,64,0,1
1,61,64,1
1,66,64,0
1,66,0,178
1,61,0,0
1,66,64,62
1,66,0,59
1,62,64,1
1,66,64,0
1,71,64,0
1,71,0,59
1,71,64,1
1,71,0,59
1,69,64,1
1,66,0,58
1,62,0,0
1,69,0,1
1,62,64,1
1,66,64,0
1,71,64,0
1,71,0,178
1,66,0,60
1,62,0,0
1,66,64,2
1,59,64,0
1,59,0,59
1,66,0,0
1,56,64,1
1,59,64,0
1,64,64,0
1,64,0,59
1,66,64,1
1,59,0,118
1,56,0,0
1,66,0,1
1,55,64,1
1,59,64,0
1,67,64,0
1,67,0,299
1,59,0,0
1,55,0,0
1,66,64,121
1,71,64,0
1,71,0,119
1,66,0,0
1,66,64,1
1,71,64,0
1,71,0,119
1,66,0,0
1,59,64,121
1,64,64,0
1,64,0,88
1,59,0,0
1,59,64,2
1,64,64,0
1,64,0,89
1,66,64,1
1,66,0,59
1,59,0,0
1,57,64,1
1,62,64,0
1,62,0,59
1,64,64,1
1,64,0,59
1,57,0,0
1,66,64,241
1,71,64,0
1,71,0,119
1,66,0,0
1,66,64,1
1,71,64,0
1,71,0,119
1,66,0,0
1,59,64,121
1,64,64,0
1,64,0,88
1,59,0,0
1,59,64,2
1,64,64,0
1,64,0,88
1,66,64,2
1,66,0,59
1,59,0,0
1,57,64,1
1,62,64,0
1,62,0,59
1,64,64,1
1,64,0,59
1,57,0,0
1,59,64,0
1,59,0,59
1,63,64,1
1,63,0,59
1,64,64,1
1,64,0,59
1,63,64,1
1,63,0,59
1,66,64,1
1,66,0,59
1,64,64,1
1,64,0,59
1,69,64,1
1,69,0,59
1,71,64,1
1,71,0,59
1,75,64,1
1,75,0,59
1,76,64,1
1,76,0,59
1,78,64,1
1,78,0,59
1,83,64,1
1,83,0,299
1,61,64,0
1,61,0,59
1,65,64,1
1,65,0,59
1,66,64,1
1,66,0,59
1,61,64,1
1,61,0,59
1,68,64,1
1,68,0,119
1,64,64,1
1,71,64,0
1,71,0,59
1,64,0,0
1,66,64,1
1,73,64,0
1,73,0,119
1,66,0,0
1,76,64,1
1,76,0,59
1,78,64,1
1,78,0,59
1,73,64,1
1,73,0,59
1,71,64,1
1,76,64,0
1,76,0,59
1,71,0,0
1,71,64,1
1,76,64,0
1,76,0,59
1,71,0,0
1,71,64,1
1,76,64,0
1,76,0,119
1,71,0,0
1,73,64,1
1,73,0,59
1,73,64,1
1,73,0,59
1,73,64,1
1,73,0,59
1,80,64,1
1,80,0,59
1,80,64,1
1,80,0,59
1,80,64,1
1,80,0,59
1,73,64,1
1,73,0,119
1,66,64,1
1,73,64,0
1,73,0,88
1,66,0,0
1,66,64,2
1,73,64,0
1,73,0,88
1,66,0,0
1,66,64,2
1,73,64,0
1,73,0,59
1,66,0,0
1,71,64,1
1,76,64,0
1,76,0,59
1,71,0,0
1,73,64,1
1,73,0,59
1,61,64,121
1,61,0,59
1,65,64,1
1,65,0,59
1,66,64,1
1,66,0,59
1,61,64,1
1,61,0,59
1,68,64,1
1,68,0,119
1,64,64,1
1,71,64,0
1,71,0,59
1,64,0,0
1,66,64,1
1,73,64,0
1,73,0,119
1,66,0,0
1,76,64,1
1,76,0,59
1,78,64,1
1,78,0,59
1,73,64,1
1,73,0,59
1,71,64,1
1,76,64,0
1,76,0,59
1,71,0,0
1,71,64,1
1,76,64,0
1,76,0,59
1,71,0,0
1,71,64,1
1,76,64,0
1,76,0,119
1,71,0,0
1,73,64,1
1,73,0,59
1,73,64,1
1,73,0,59
1,73,64,1
1,73,0,59
1,80,64,1
1,80,0,59
1,80,64,1
1,80,0,59
1,80,64,1
1,80,0,59
1,73,64,1
1,73,0,119
1,66,64,1
1,73,64,0
1,73,0,88
1,66,0,0
1,66,64,2
1,73,64,0
1,73,0,88
1,66,0,0
1,66,64,2
1,73,64,0
1,73,0,59
1,66,0,0
1,71,64,1
1,76,64,0
1,76,0,59
1,71,0,0
1,73,64,1
1,73,0,59
1,61,64,121
1,61,0,59
1,65,64,1
1,65,0,59
