track,note,velocity,time
1,67,75,0
1,67,75,32
1,67,75,0
1,67,75,16
1,67,75,8
1,67,75,16
1,67,75,8
1,69,75,16
1,71,75,16
1,67,75,16
1,67,75,32
1,67,75,16
1,67,75,8
1,67,75,16
1,67,75,8
1,69,75,16
1,71,75,16
1,67,75,16
1,67,75,32
1,67,75,0
1,67,75,16
1,67,75,8
1,67,75,16
1,67,75,8
1,69,75,16
1,71,75,16
1,72,75,16
1,71,75,32
1,69,75,32
1,71,75,32
1,67,75,32
1,67,75,32
1,67,75,0
1,67,75,16
1,67,75,8
1,67,75,16
1,67,75,8
1,69,75,16
1,71,75,16
1,67,75,16
1,67,75,32
1,67,75,16
1,67,75,8
1,67,75,16
1,67,75,8
1,69,75,16
1,71,75,16
1,67,75,16
1,67,75,32
1,67,75,0
1,67,75,16
1,67,75,8
1,67,75,16
1,67,75,8
1,69,75,16
1,71,75,16
1,67,75,16
1,67,75,32
1,67,75,8
1,72,75,8
1,72,75,24
1,71,75,8
1,69,75,16
1,71,75,16
1,67,75,16
1,67,75,32
1,67,75,0
1,67,75,16
1,67,75,8
1,67,75,16
1,67,75,8
1,69,75,16
1,71,75,16
1,67,75,16
1,67,75,32
1,67,75,16
1,67,75,8
1,67,75,16
1,67,75,8
1,69,75,16
1,71,75,16
1,67,75,16
1,67,75,32
1,67,75,0
1,67,75,16
1,67,75,8
1,67,75,16
1,67,75,8
1,69,75,16
1,71,75,16
1,67,75,16
1,67,75,32
1,67,75,8
1,72,75,8
1,72,75,24
1,71,75,8
1,69,75,16
1,71,75,16
1,67,75,4992
1,67,75,32
1,67,75,0
1,67,75,16
1,67,75,8
1,67,75,16
1,67,75,8
1,69,75,16
1,71,75,16
1,67,75,16
1,67,75,32
1,67,75,16
1,67,75,8
1,67,75,16
1,67,75,8
1,69,75,16
1,71,75,16
1,67,75,16
1,67,75,32
1,67,75,0
1,67,75,16
1,67,75,8
1,67,75,16
1,67,75,8
1,69,75,16
1,71,75,16
1,67,75,16
1,67,75,32
1,67,75,8
1,72,75,8
1,72,75,24
1,71,75,8
1,69,75,16
1,71,75,16
1,67,75,16
1,67,75,32
1,67,75,0
1,67,75,16
1,67,75,8
1,67,75,16
1,67,75,8
1,69,75,16
1,71,75,16
1,67,75,16
1,67,75,32
1,67,75,16
1,67,75,8
1,67,75,16
1,67,75,8
1,69,75,16
1,71,75,16
1,67,75,16
1,67,75,32
1,67,75,0
1,67,75,16
1,67,75,8
1,67,75,16
1,67,75,8
1,69,75,16
1,71,75,16
1,67,75,16
1,67,75,32
1,67,75,8
1,72,75,8
1,72,75,24
1,71,75,8
1,69,75,16
1,71,75,16
1,67,75,4624
1,67,75,32
1,67,75,0
1,67,75,16
1,67,75,8
1,67,75,16
1,67,75,8
1,69,75,16
1,71,75,16
1,67,75,16
1,67,75,32
1,67,75,16
1,67,75,8
1,67,75,16
1,67,75,8
1,69,75,16
1,71,75,16
1,67,75,16
1,67,75,32
1,67,75,0
1,67,75,16
1,67,75,8
1,67,75,16
1,67,75,8
1,69,75,16
1,71,75,16
1,67,75,16
1,67,75,32
1,67,75,8
1,72,75,8
1,72,75,24
1,71,75,8
1,69,75,16
1,71,75,16
1,67,75,16
1,67,75,32
1,67,75,0
1,67,75,16
1,67,75,8
1,67,75,16
1,67,75,8
1,69,75,16
1,71,75,16
1,67,75,16
1,67,75,32
1,67,75,16
1,67,75,8
1,67,75,16
1,67,75,8
1,69,75,16
1,71,75,16
1,67,75,16
1,67,75,32
1,67,75,0
1,67,75,16
1,67,75,8
1,67,75,16
1,67,75,8
1,69,75,16
1,71,75,16
1,67,75,16
1,67,75,32
1,67,75,8
1,72,75,8
1,72,75,24
1,71,75,8
1,69,75,16
1,71,75,16
1,69,64,16
1,73,64,32
1,74,64,24
1,74,64,16
1,76,64,8
1,73,64,16
1,69,64,16
1,62,64,16
1,66,64,32
1,67,64,24
1,67,64,16
1,69,64,8
1,66,64,16
1,62,64,16
1,69,64,16
1,73,64,32
1,74,64,24
1,74,64,16
1,76,64,8
1,73,64,16
1,69,64,16
1,74,64,16
1,74,64,32
1,74,64,24
1,74,64,8
1,74,64,16
1,74,64,16
1,74,64,8
1,67,75,10776
1,67,75,32
1,67,75,0
1,67,75,16
1,67,75,8
1,67,75,16
1,67,75,8
1,69,75,16
1,71,75,16
1,67,75,16
1,67,75,32
1,67,75,16
1,67,75,8
1,67,75,16
1,67,75,8
1,69,75,16
1,71,75,16
1,67,75,16
1,67,75,32
1,67,75,0
1,67,75,16
1,67,75,8
1,67,75,16
1,67,75,8
1,69,75,16
1,71,75,16
1,67,75,16
1,67,75,32
1,67,75,8
1,72,75,8
1,72,75,24
1,71,75,8
1,69,75,16
1,71,75,16
1,67,75,16
1,67,75,32
1,67,75,0
1,67,75,16
1,67,75,8
1,67,75,16
1,67,75,8
1,69,75,16
1,71,75,16
1,67,75,16
1,67,75,32
1,67,75,16
1,67,75,8
1,67,75,16
1,67,75,8
1,69,75,16
1,71,75,16
1,67,75,16
1,67,75,32
1,67,75,0
1,67,75,16
1,67,75,8
1,67,75,16
1,67,75,8
1,69,75,16
1,71,75,16
1,67,75,16
1,67,75,32
1,67,75,8
1,72,75,8
1,72,75,24
1,71,75,8
1,69,75,16
1,71,75,16
1,69,64,16
1,73,64,32
1,74,64,24
1,74,64,16
1,76,64,8
1,73,64,16
1,69,64,16
1,62,64,16
1,66,64,32
1,67,64,24
1,67,64,16
1,69,64,8
1,66,64,16
1,62,64,16
1,69,64,16
1,73,64,32
1,74,64,24
1,74,64,16
1,76,64,8
1,73,64,16
1,69,64,16
1,74,64,16
1,74,64,32
1,74,64,24
1,74,64,8
1,74,64,16
1,74,64,16
1,74,64,8
2,31,90,1536
2,36,90,112
2,38,90,32
2,31,90,16
2,36,90,112
2,38,90,32
2,36,90,16
2,41,90,112
2,43,90,32
2,36,90,16
2,41,90,112
2,43,90,32
2,31,90,16
2,36,90,112
2,38,90,32
2,31,90,16
2,36,90,112
2,38,90,32
2,36,90,16
2,41,90,112
2,43,90,32
2,36,90,16
2,41,90,112
2,43,90,32
2,31,90,0
2,31,90,32
2,38,90,0
2,38,90,8
2,38,90,8
2,38,90,8
2,38,90,8
2,38,90,16
2,38,90,16
2,38,90,8
2,38,90,8
2,38,90,8
2,38,90,8
2,38,90,16
2,31,90,1552
2,36,90,112
2,38,90,32
2,31,90,16
2,36,90,112
2,38,90,32
2,36,90,16
2,29,90,112
2,31,90,32
2,36,90,16
2,29,90,112
2,31,90,32
2,26,90,16
2,38,90,16
2,26,90,16
2,38,90,16
2,33,90,16
2,35,90,16
2,26,90,16
2,38,90,16
2,28,90,16
2,40,90,16
2,28,90,16
2,40,90,16
2,35,90,16
2,41,90,16
2,28,90,16
2,41,90,16
2,36,90,16
2,36,90,32
2,28,90,32
2,36,90,32
2,36,90,32
2,26,90,32
2,28,90,32
2,30,90,32
2,31,90,7712
2,36,90,112
2,38,90,32
2,31,90,16
2,36,90,112
2,38,90,32
2,36,90,16
2,41,90,112
2,43,90,32
2,36,90,16
2,41,90,112
2,43,90,32
2,31,90,16
2,36,90,112
2,38,90,32
2,31,90,16
2,36,90,112
2,38,90,32
2,36,90,16
2,41,90,112
2,43,90,32
2,36,90,16
2,41,90,112
2,43,90,32
2,31,64,6160
2,38,64,32
2,40,64,8
2,31,64,8
2,31,64,208
2,38,64,32
2,40,64,8
2,31,64,8
2,24,64,208
2,29,64,32
2,31,64,8
2,24,64,8
2,24,64,208
2,29,64,32
2,31,64,8
2,24,64,8
2,31,64,208
2,38,64,32
2,40,64,8
2,31,64,8
2,31,64,208
2,38,64,32
2,40,64,8
2,31,64,8
2,24,64,208
2,29,64,32
2,31,64,8
2,24,64,8
2,24,64,208
2,29,64,32
2,31,64,8
2,24,64,8
2,31,64,208
2,38,64,32
2,40,64,8
2,31,64,8
2,31,64,208
2,38,64,32
2,40,64,8
2,31,64,8
2,24,64,208
2,29,64,32
2,31,64,8
2,24,64,8
2,24,64,208
2,29,64,32
2,31,64,8
2,24,64,8
2,26,90,208
2,38,90,16
2,26,90,16
2,38,90,16
2,33,90,16
2,35,90,16
2,26,90,16
2,38,90,16
2,28,90,16
2,40,90,16
2,28,90,16
2,40,90,16
2,35,90,16
2,41,90,16
2,28,90,16
2,41,90,16
2,36,90,16
2,36,90,32
2,28,90,32
2,36,90,32
2,36,90,32
2,26,90,32
2,28,90,32
2,30,90,32
2,31,90,32
2,36,90,112
2,38,90,32
2,31,90,16
2,36,90,112
2,38,90,32
2,36,90,16
2,41,90,112
2,43,90,32
2,36,90,16
2,41,90,112
2,43,90,32
2,31,90,16
2,36,90,112
2,38,90,32
2,31,90,16
2,36,90,112
2,38,90,32
2,36,90,16
2,41,90,112
2,43,90,32
2,36,90,16
2,41,90,112
2,43,90,32
2,33,64,16
2,38,64,112
2,40,64,32
2,26,64,16
2,43,64,112
2,45,64,32
2,33,64,16
2,38,64,112
2,40,64,32
2,26,64,16
2,26,64,32
2,26,64,72
2,26,64,0
2,26,64,16
2,26,64,16
2,26,64,8
2,31,64,24
3,67,127,1536
3,67,127,112
3,69,127,32
3,67,127,16
3,67,127,112
3,71,127,32
3,72,127,16
3,72,127,112
3,71,127,32
3,72,127,16
3,67,127,112
3,69,127,32
3,67,127,16
3,67,127,112
3,69,127,32
3,67,127,16
3,67,127,112
3,71,127,32
3,72,127,16
3,72,127,112
3,71,127,32
3,72,127,16
3,67,127,112
3,69,127,32
3,67,127,12672
3,67,127,112
3,69,127,32
3,67,127,16
3,67,127,112
3,71,127,32
3,72,127,16
3,72,127,112
3,71,127,32
3,72,127,16
3,67,127,112
3,69,127,32
3,67,127,16
3,67,127,112
3,69,127,32
3,67,127,16
3,67,127,112
3,71,127,32
3,72,127,16
3,72,127,112
3,71,127,32
3,72,127,16
3,67,127,112
3,69,127,32
3,55,93,7696
3,67,93,16
3,55,93,16
3,67,93,16
3,55,93,16
3,67,93,16
3,55,93,16
3,67,93,16
3,55,93,16
3,67,93,16
3,55,93,16
3,67,93,16
3,55,93,16
3,67,93,16
3,55,93,16
3,67,93,16
3,60,93,16
3,72,93,16
3,60,93,16
3,72,93,16
3,60,93,16
3,72,93,16
3,60,93,16
3,72,93,16
3,60,93,16
3,72,93,16
3,60,93,16
3,72,93,16
3,60,93,16
3,72,93,16
3,60,93,16
3,72,93,16
3,55,93,16
3,67,93,16
3,71,93,0
3,55,93,16
3,67,93,16
3,72,93,0
3,55,93,16
3,67,93,16
3,71,93,0
3,55,93,16
3,67,93,16
3,72,93,0
3,55,93,16
3,67,93,16
3,71,93,0
3,55,93,16
3,67,93,16
3,72,93,0
3,55,93,16
3,67,93,16
3,71,93,0
3,55,93,16
3,67,93,16
3,72,93,0
3,60,93,16
3,72,93,16
3,76,93,0
3,60,93,16
3,72,93,16
3,76,93,0
3,60,93,16
3,72,93,16
3,77,93,0
3,60,93,16
3,72,93,16
3,77,93,0
3,60,93,16
3,72,93,16
3,77,93,0
3,60,93,16
3,72,93,16
3,74,93,0
3,60,93,16
3,72,93,16
3,76,93,0
3,60,93,16
3,72,93,16
3,76,93,0
3,67,127,1552
3,67,127,112
3,69,127,32
3,67,127,16
3,67,127,112
3,71,127,32
3,72,127,16
3,72,127,112
3,71,127,32
3,72,127,16
3,67,127,112
3,69,127,32
3,67,127,16
3,67,127,112
3,69,127,32
3,67,127,16
3,67,127,112
3,71,127,32
3,72,127,16
3,72,127,112
3,71,127,32
3,72,127,16
3,67,127,112
3,69,127,32
3,67,93,1552
3,55,93,0
4,36,115,1536
4,36,115,32
4,36,115,32
4,36,115,32
4,36,115,32
4,36,115,32
4,36,115,32
4,36,115,32
4,36,115,32
4,36,115,32
4,36,115,32
4,36,115,32
4,36,115,32
4,36,115,32
4,36,115,32
4,36,115,32
4,36,115,32
4,36,115,32
4,36,115,32
4,36,115,32
4,36,115,32
4,36,115,32
4,36,115,32
4,36,115,32
4,36,115,32
4,36,115,32
4,36,115,32
4,36,115,32
4,36,115,32
4,36,115,32
4,36,115,32
4,36,115,32
4,36,115,0
4,36,115,32
4,36,115,0
4,36,115,96
4,36,115,32
4,36,115,96
4,36,115,32
4,36,115,32
4,36,115,32
4,36,115,32
4,36,115,32
4,36,115,32
4,36,115,32
4,36,115,32
4,36,115,32
4,36,115,32
4,36,115,32
4,36,115,32
4,36,115,32
4,36,115,96
4,36,115,32
4,36,115,96
4,36,115,32
4,36,115,32
4,36,115,32
4,36,115,32
4,36,115,32
4,36,115,32
4,36,115,32
4,36,115,32
4,36,115,32
4,36,115,32
4,36,115,32
4,36,115,32
4,36,115,32
4,36,115,96
4,36,115,32
4,36,115,96
4,38,57,0
4,36,115,32
4,36,115,32
4,38,57,0
4,36,115,32
4,36,115,32
4,38,57,0
4,36,115,32
4,36,115,32
4,38,57,0
4,36,115,32
4,36,115,32
4,38,57,0
4,36,115,32
4,36,115,32
4,36,115,32
4,36,115,32
4,36,115,32
4,38,57,0
4,38,57,8
4,36,115,56
4,38,57,0
4,38,57,8
4,36,115,32
4,38,57,0
4,38,57,8
4,38,57,8
4,38,57,8
4,36,115,8
4,38,57,0
4,38,57,8
4,38,57,8
4,38,57,8
4,36,115,8
4,36,115,32
4,36,115,32
4,36,115,32
4,36,115,32
4,36,115,32
4,36,115,32
4,36,115,32
4,36,115,32
4,36,115,32
4,36,115,32
4,36,115,32
4,36,115,32
4,36,115,32
4,36,115,32
4,36,115,32
4,36,115,32
4,36,115,32
4,36,115,32
4,36,115,32
4,36,115,32
4,36,115,32
4,36,115,32
4,36,115,32
4,36,115,32
4,36,115,32
4,36,115,32
4,36,115,32
4,36,115,32
4,36,115,32
4,36,115,32
4,36,115,32
4,36,115,48
4,36,115,8
4,38,115,0
4,36,115,8
4,36,115,48
4,38,115,32
4,36,115,0
4,36,115,16
4,36,115,16
4,36,115,16
4,36,115,16
4,38,115,0
4,36,115,16
4,36,115,24
4,38,115,0
4,36,115,8
4,36,115,48
4,38,115,32
4,36,115,0
4,36,115,16
4,36,115,16
4,36,115,16
4,36,115,16
4,38,115,0
4,36,115,16
4,36,115,24
4,38,115,0
4,36,115,8
4,36,115,48
4,38,115,32
4,36,115,0
4,36,115,16
4,36,115,16
4,36,115,16
4,36,115,16
4,38,115,0
4,36,115,16
4,36,115,24
4,38,115,0
4,36,115,8
4,36,115,48
4,38,115,32
4,36,115,0
4,36,115,16
4,36,115,16
4,36,115,16
4,36,115,16
4,38,115,0
4,36,115,16
4,36,115,24
4,38,115,0
4,36,115,8
4,36,115,48
4,38,115,32
4,36,115,0
4,36,115,16
4,36,115,16
4,36,115,16
4,36,115,16
4,38,115,0
4,36,115,16
4,36,115,24
4,38,115,0
4,36,115,8
4,36,115,48
4,38,115,32
4,36,115,0
4,36,115,16
4,36,115,16
4,36,115,16
4,36,115,16
4,38,115,0
4,36,115,16
4,36,115,24
4,38,115,0
4,36,115,8
4,36,115,48
4,38,115,32
4,36,115,0
4,36,115,16
4,36,115,16
4,36,115,16
4,36,115,16
4,38,115,0
4,36,115,16
4,36,115,24
4,38,115,0
4,36,115,8
4,36,115,48
4,38,115,32
4,36,115,0
4,36,115,16
4,36,115,16
4,36,115,16
4,36,115,16
4,38,115,0
4,36,115,16
4,36,115,24
4,38,115,0
4,36,115,8
4,36,115,48
4,38,115,32
4,36,115,0
4,36,115,16
4,36,115,16
4,36,115,16
4,36,115,16
4,38,115,0
4,36,115,16
4,36,115,24
4,38,115,0
4,36,115,8
4,36,115,48
4,38,115,32
4,36,115,0
4,36,115,16
4,36,115,16
4,36,115,16
4,36,115,16
4,38,115,0
4,36,115,16
4,36,115,24
4,38,115,0
4,36,115,8
4,36,115,48
4,38,115,32
4,36,115,0
4,36,115,16
4,36,115,16
4,36,115,16
4,36,115,16
4,38,115,0
4,36,115,16
4,36,115,24
4,38,115,0
4,36,115,8
4,36,115,48
4,38,115,32
4,36,115,0
4,36,115,16
4,36,115,16
4,36,115,16
