track,note,velocity,time
1,40,81,0
1,52,81,0
1,52,0,320
1,40,0,0
1,40,81,256
1,52,81,0
1,52,0,160
1,40,0,0
1,40,81,800
1,52,81,0
1,52,0,320
1,40,0,0
1,40,81,256
1,52,81,0
1,52,0,160
1,40,0,0
1,40,81,224
1,52,81,0
1,52,0,160
1,40,0,0
1,48,81,416
1,36,81,0
1,36,0,284
1,48,0,0
1,36,81,292
1,48,81,0
1,48,0,160
1,36,0,0
1,45,81,800
1,45,0,320
1,45,81,256
1,45,0,160
1,43,81,224
1,43,0,320
1,50,81,64
1,50,0,160
1,40,81,32
1,52,81,0
1,52,0,320
1,40,0,0
1,40,81,256
1,52,81,0
1,52,0,160
1,40,0,0
1,40,81,800
1,52,81,0
1,52,0,320
1,40,0,0
1,40,81,256
1,52,81,0
1,52,0,160
1,40,0,0
1,40,81,224
1,52,81,0
1,52,0,160
1,40,0,0
1,36,81,416
1,48,81,0
1,48,0,320
1,36,0,0
1,36,81,256
1,48,81,0
1,48,0,160
1,36,0,0
1,33,81,800
1,45,81,0
1,45,0,320
1,33,0,0
1,45,81,256
1,33,81,0
1,33,0,160
1,45,0,0
1,40,81,800
1,40,0,380
1,40,81,196
1,40,0,188
1,40,81,388
1,40,0,380
1,40,81,4
1,40,0,380
1,40,81,196
1,40,0,188
1,40,81,388
1,40,0,380
1,36,81,4
1,36,0,380
1,36,81,196
1,36,0,188
1,36,81,388
1,36,0,380
1,38,81,4
1,38,0,380
1,38,81,196
1,38,0,188
1,35,81,388
1,35,0,380
1,40,81,4
1,40,0,380
1,40,81,196
1,40,0,188
1,40,81,388
1,40,0,380
1,40,81,4
1,40,0,380
1,40,81,196
1,40,0,188
1,40,81,388
1,40,0,380
1,36,81,4
1,36,0,380
1,36,81,196
1,36,0,188
1,36,81,388
1,36,0,380
1,38,81,4
1,38,0,380
1,38,81,196
1,38,0,188
1,35,81,388
1,35,0,380
1,40,81,4
1,40,0,380
1,40,81,196
1,40,0,188
1,40,81,388
1,40,0,380
1,40,81,4
1,40,0,380
1,40,81,196
1,40,0,572
1,40,81,4
1,40,0,380
1,36,81,4
1,36,0,380
1,36,81,196
1,36,0,188
1,36,81,388
1,36,0,380
1,38,81,4
1,38,0,380
1,38,81,196
1,38,0,188
1,35,81,388
1,35,0,380
1,40,81,4
1,40,0,380
1,40,81,196
1,40,0,188
1,40,81,388
1,40,0,380
1,38,81,4
1,38,0,380
1,38,81,196
1,38,0,188
1,38,81,388
1,38,0,380
1,40,81,4
1,40,0,380
1,40,81,196
1,40,0,188
1,40,81,388
1,40,0,380
1,36,81,4
1,36,0,380
1,38,81,196
1,38,0,188
1,38,81,196
1,38,0,380
1,35,81,4
1,35,0,188
1,40,81,4
1,40,0,188
1,35,81,4
1,35,0,188
1,38,81,4
1,38,0,188
1,40,81,4
1,40,0,572
1,33,81,388
1,33,0,380
1,38,81,196
1,38,0,188
1,38,81,388
1,38,0,380
1,40,81,4
1,40,0,188
1,35,81,4
1,35,0,188
1,38,81,4
1,38,0,188
1,40,81,4
1,40,0,572
1,33,81,388
1,33,0,380
1,38,81,196
1,38,0,188
1,38,81,196
1,38,0,380
1,35,81,4
1,35,0,188
1,40,81,4
1,40,0,188
1,35,81,4
1,35,0,188
1,38,81,4
1,38,0,188
1,40,81,4
1,40,0,572
1,33,81,388
1,33,0,380
1,38,81,196
1,38,0,188
1,38,81,388
1,38,0,380
1,40,81,4
1,40,0,380
1,40,81,196
1,40,0,188
1,40,81,388
1,40,0,380
1,33,81,4
1,33,0,380
1,38,81,196
1,38,0,188
1,38,81,388
1,38,0,380
1,43,81,4
1,43,0,380
1,43,81,196
1,43,0,188
1,43,81,388
1,43,0,380
1,36,81,4
1,36,0,380
1,38,81,4
1,38,0,188
1,38,81,4
1,38,0,188
1,52,81,4
1,40,81,0
1,40,0,320
1,52,0,0
1,52,81,256
1,40,81,0
1,40,0,160
1,52,0,0
1,40,81,800
1,52,81,0
1,52,0,320
1,40,0,0
1,40,81,256
1,52,81,0
1,52,0,160
1,40,0,0
1,52,81,224
1,40,81,0
1,40,0,160
1,52,0,0
1,48,81,416
1,36,81,0
1,36,0,320
1,48,0,0
1,48,81,256
1,36,81,0
1,36,0,160
1,48,0,0
1,33,81,800
1,45,81,0
1,45,0,320
1,33,0,0
1,33,81,256
1,45,81,0
1,45,0,160
1,33,0,0
1,40,81,800
1,40,0,380
1,40,81,196
1,40,0,188
1,40,81,388
1,40,0,380
1,40,81,4
1,40,0,380
1,40,81,196
1,40,0,188
1,40,81,388
1,40,0,380
1,36,81,4
1,36,0,380
1,36,81,196
1,36,0,188
1,36,81,388
1,36,0,380
1,38,81,4
1,38,0,380
1,38,81,196
1,38,0,188
1,35,81,388
1,35,0,380
1,40,81,4
1,40,0,380
1,40,81,196
1,40,0,188
1,40,81,388
1,40,0,380
1,40,81,4
1,40,0,380
1,40,81,196
1,40,0,188
1,40,81,388
1,40,0,380
1,36,81,4
1,36,0,380
1,36,81,196
1,36,0,188
1,36,81,388
1,36,0,380
1,38,81,4
1,38,0,380
1,38,81,196
1,38,0,188
1,35,81,388
1,35,0,380
1,40,81,4
1,40,0,380
1,40,81,196
1,40,0,188
1,40,81,388
1,40,0,380
1,40,81,4
1,40,0,380
1,40,81,196
1,40,0,188
1,40,81,388
1,40,0,380
1,36,81,4
1,36,0,380
1,36,81,196
1,36,0,188
1,36,81,388
1,36,0,380
1,38,81,4
1,38,0,380
1,38,81,196
1,38,0,188
1,35,81,388
1,35,0,380
1,40,81,4
1,40,0,380
1,40,81,196
1,40,0,188
1,40,81,388
1,40,0,380
1,38,81,4
1,38,0,380
1,38,81,196
1,38,0,188
1,38,81,388
1,38,0,380
1,40,81,4
1,40,0,380
1,40,81,196
1,40,0,188
1,40,81,388
1,40,0,380
1,36,81,4
1,36,0,380
1,38,81,196
1,38,0,188
1,38,81,196
1,38,0,380
1,38,81,4
1,38,0,188
1,40,81,4
1,40,0,380
1,40,81,196
1,40,0,188
1,40,81,388
1,40,0,380
1,40,81,4
1,40,0,380
1,40,81,196
1,40,0,188
1,40,81,388
1,40,0,380
1,36,81,4
1,36,0,380
1,36,81,196
1,36,0,188
1,36,81,388
1,36,0,380
1,33,81,4
1,33,0,380
1,45,81,196
1,45,0,188
1,43,81,388
1,43,0,380
1,40,81,4
1,40,0,380
1,40,81,196
1,40,0,188
1,40,81,388
1,40,0,380
1,40,81,4
1,40,0,380
1,40,81,196
1,40,0,188
1,40,81,388
1,40,0,380
1,36,81,4
1,36,0,380
1,36,81,196
1,36,0,188
1,36,81,388
1,36,0,380
1,33,81,4
1,33,0,380
1,45,81,196
1,45,0,188
1,43,81,388
1,43,0,380
1,40,81,4
1,40,0,188
1,35,81,4
1,35,0,188
1,38,81,4
1,38,0,188
1,40,81,4
1,40,0,572
1,33,81,388
1,33,0,380
1,38,81,196
1,38,0,188
1,38,81,388
1,38,0,380
1,40,81,4
1,40,0,188
1,35,81,4
1,35,0,188
1,38,81,4
1,38,0,188
1,40,81,4
1,40,0,572
1,33,81,388
1,33,0,380
1,38,81,196
1,38,0,188
1,38,81,196
1,38,0,380
1,35,81,4
1,35,0,188
1,40,81,4
1,40,0,188
1,35,81,4
1,35,0,188
1,38,81,4
1,38,0,188
1,40,81,4
1,40,0,572
1,33,81,388
1,33,0,380
1,38,81,196
1,38,0,188
1,38,81,388
1,38,0,380
1,40,81,4
1,40,0,188
1,35,81,4
1,35,0,188
1,38,81,4
1,38,0,188
1,40,81,4
1,40,0,572
1,33,81,388
1,33,0,380
1,38,81,196
1,38,0,188
1,38,81,388
1,38,0,380
1,40,81,4
1,40,0,188
1,35,81,4
1,35,0,188
1,38,81,4
1,38,0,188
1,40,81,4
1,40,0,572
1,33,81,388
1,33,0,380
1,38,81,196
1,38,0,188
1,38,81,196
1,38,0,380
1,35,81,4
1,35,0,188
1,40,81,4
1,40,0,188
1,35,81,4
1,35,0,188
1,38,81,4
1,38,0,188
1,40,81,4
1,40,0,572
1,33,81,388
1,33,0,380
1,38,81,196
1,38,0,188
1,38,81,388
1,38,0,380
1,40,81,4
1,40,0,188
1,35,81,4
1,35,0,188
1,38,81,4
1,38,0,188
1,40,81,4
1,40,0,572
1,33,81,388
1,33,0,380
1,38,81,196
1,38,0,188
1,38,81,388
1,38,0,380
1,40,81,4
1,40,0,188
1,35,81,4
1,35,0,188
1,38,81,4
1,38,0,188
1,40,81,4
1,40,0,572
1,33,81,388
1,33,0,380
1,38,81,196
1,38,0,188
1,38,81,196
1,38,0,380
1,35,81,4
1,35,0,188
1,40,81,4
1,40,0,188
1,35,81,4
1,35,0,188
1,38,81,4
1,38,0,188
1,40,81,4
1,40,0,572
1,33,81,388
1,33,0,380
1,38,81,196
1,38,0,188
1,38,81,388
1,38,0,380
1,40,81,4
1,40,0,188
1,35,81,4
1,35,0,188
1,38,81,4
1,38,0,188
1,40,81,4
1,40,0,572
1,33,81,388
1,33,0,380
1,38,81,196
1,38,0,188
1,38,81,388
1,38,0,380
1,40,81,4
1,40,0,188
1,35,81,4
1,35,0,188
1,38,81,4
1,38,0,188
1,40,81,4
1,40,0,572
1,33,81,388
1,33,0,380
1,38,81,196
1,38,0,188
1,38,81,196
1,38,0,380
1,35,81,4
1,35,0,188
1,40,81,4
1,40,0,188
1,35,81,4
1,35,0,188
1,38,81,4
1,38,0,188
1,40,81,4
1,40,0,572
1,33,81,388
1,33,0,380
1,38,81,196
1,38,0,188
1,38,81,388
1,38,0,380
2,52,85,0
2,64,85,192
2,52,0,128
2,64,0,32
2,67,85,32
2,67,0,160
2,52,85,32
2,64,85,0
2,64,0,160
2,52,0,0
2,69,85,32
2,69,0,380
2,67,85,4
2,67,0,160
2,64,85,32
2,64,0,160
2,52,85,32
2,64,85,192
2,52,0,128
2,64,0,32
2,67,85,32
2,67,0,160
2,52,85,32
2,64,85,0
2,64,0,160
2,52,0,0
2,69,85,32
2,69,0,160
2,52,85,32
2,69,85,0
2,69,0,160
2,52,0,0
2,67,85,32
2,67,0,160
2,64,85,32
2,64,0,160
2,48,85,32
2,64,85,192
2,48,0,92
2,64,0,68
2,67,85,32
2,67,0,160
2,48,85,32
2,64,85,0
2,64,0,160
2,48,0,0
2,69,85,32
2,69,0,380
2,67,85,4
2,67,0,160
2,64,85,32
2,64,0,160
2,45,85,32
2,64,85,192
2,45,0,128
2,64,0,32
2,67,85,32
2,67,0,160
2,45,85,32
2,64,85,0
2,64,0,160
2,45,0,0
2,74,85,32
2,74,0,160
2,74,85,32
2,74,0,160
2,71,85,32
2,71,0,160
2,50,85,32
2,67,85,0
2,67,0,160
2,50,0,0
2,52,85,32
2,64,85,192
2,52,0,128
2,64,0,32
2,67,85,32
2,67,0,160
2,52,85,32
2,64,85,0
2,64,0,160
2,52,0,0
2,69,85,32
2,69,0,380
2,67,85,4
2,67,0,160
2,64,85,32
2,64,0,160
2,52,85,32
2,64,85,192
2,52,0,128
2,64,0,32
2,67,85,32
2,67,0,160
2,52,85,32
2,64,85,0
2,64,0,160
2,52,0,0
2,69,85,32
2,69,0,160
2,52,85,32
2,69,85,0
2,69,0,160
2,52,0,0
2,67,85,32
2,67,0,160
2,64,85,32
2,64,0,160
2,48,85,32
2,64,85,192
2,48,0,128
2,64,0,32
2,67,85,32
2,67,0,160
2,48,85,32
2,64,85,0
2,64,0,160
2,48,0,0
2,69,85,32
2,69,0,380
2,67,85,4
2,67,0,160
2,64,85,32
2,64,0,160
2,45,85,32
2,64,85,192
2,45,0,128
2,64,0,32
2,67,85,32
2,67,0,160
2,45,85,32
2,64,85,0
2,64,0,160
2,45,0,0
2,74,85,32
2,74,0,160
2,64,85,32
2,64,0,160
2,64,85,32
2,64,0,188
2,71,85,4
2,67,85,0
2,64,85,0
2,64,0,944
2,67,0,0
2,71,0,0
2,64,85,208
2,64,0,188
2,64,85,4
2,64,0,188
2,71,85,4
2,67,85,0
2,64,85,0
2,64,0,944
2,67,0,0
2,71,0,0
2,64,85,400
2,64,0,188
2,74,85,4
2,67,85,0
2,64,85,0
2,64,0,336
2,67,0,0
2,74,0,0
2,72,85,48
2,67,85,0
2,64,85,0
2,64,0,380
2,67,0,0
2,72,0,0
2,67,85,4
2,64,85,0
2,71,85,0
2,71,0,380
2,64,0,0
2,67,0,0
2,64,85,4
2,64,0,380
2,64,85,4
2,64,0,188
2,62,85,4
2,66,85,0
2,74,85,0
2,74,0,188
2,66,0,0
2,62,0,0
2,62,85,4
2,66,85,0
2,72,85,0
2,72,0,380
2,66,0,0
2,62,0,0
2,71,85,4
2,66,85,0
2,62,85,0
2,62,0,380
2,66,0,0
2,71,0,0
2,64,85,4
2,64,0,188
2,64,85,4
2,64,0,188
2,71,85,4
2,67,85,0
2,64,85,0
2,64,0,956
2,67,0,0
2,71,0,0
2,64,85,388
2,64,0,188
2,64,85,4
2,67,85,0
2,71,85,0
2,71,0,956
2,67,0,0
2,64,0,0
2,64,85,196
2,64,0,188
2,64,85,4
2,64,0,188
2,64,85,4
2,64,0,188
2,74,85,4
2,67,85,0
2,64,85,0
2,64,0,188
2,67,0,0
2,74,0,0
2,64,85,4
2,67,85,0
2,74,85,0
2,74,0,188
2,67,0,0
2,64,0,0
2,67,85,4
2,64,85,0
2,72,85,0
2,72,0,380
2,64,0,0
2,67,0,0
2,71,85,4
2,67,85,0
2,64,85,0
2,64,0,380
2,67,0,0
2,71,0,0
2,64,85,4
2,64,0,380
2,67,85,4
2,62,85,0
2,62,0,188
2,67,0,0
2,69,85,4
2,66,85,0
2,62,85,0
2,62,0,380
2,66,0,0
2,69,0,0
2,62,85,4
2,66,85,0
2,71,85,0
2,71,0,380
2,66,0,0
2,62,0,0
2,64,85,4
2,64,0,188
2,64,85,4
2,64,0,188
2,64,85,4
2,64,0,188
2,67,85,4
2,64,85,0
2,59,85,0
2,59,0,188
2,64,0,0
2,67,0,0
2,59,85,4
2,64,85,0
2,67,85,0
2,67,0,188
2,64,0,0
2,59,0,0
2,66,85,4
2,59,85,0
2,59,0,188
2,66,0,0
2,59,85,4
2,66,85,0
2,66,0,188
2,59,0,0
2,59,85,4
2,64,85,0
2,64,0,380
2,59,0,0
2,59,85,4
2,59,0,188
2,59,85,4
2,59,0,188
2,67,85,4
2,64,85,0
2,59,85,0
2,59,0,188
2,64,0,0
2,67,0,0
2,66,85,4
2,59,85,0
2,59,0,380
2,66,0,0
2,64,85,4
2,59,85,0
2,59,0,568
2,64,0,0
2,59,85,8
2,59,0,188
2,60,85,4
2,64,85,0
2,69,85,0
2,69,0,380
2,64,0,0
2,60,0,0
2,60,85,4
2,64,85,0
2,69,85,0
2,69,0,188
2,64,0,0
2,60,0,0
2,67,85,4
2,64,85,0
2,60,85,0
2,60,0,188
2,64,0,0
2,67,0,0
2,60,85,4
2,64,85,0
2,67,85,0
2,67,0,188
2,64,0,0
2,60,0,0
2,66,85,4
2,60,85,0
2,60,0,188
2,66,0,0
2,60,85,4
2,62,85,0
2,62,0,568
2,60,0,0
2,62,85,8
2,66,85,0
2,69,85,0
2,69,0,188
2,66,0,0
2,62,0,0
2,62,85,4
2,67,85,0
2,67,0,380
2,62,0,0
2,66,85,4
2,62,85,0
2,62,0,380
2,66,0,0
2,71,85,4
2,71,0,380
2,69,85,4
2,69,0,188
2,71,85,4
2,67,85,0
2,64,85,0
2,64,0,764
2,67,0,0
2,71,0,0
2,64,85,4
2,64,0,380
2,64,85,4
2,67,85,0
2,71,85,0
2,71,0,380
2,67,0,0
2,64,0,0
2,69,85,4
2,66,85,0
2,62,85,0
2,62,0,764
2,66,0,0
2,69,0,0
2,54,85,4
2,57,85,0
2,62,85,0
2,62,0,764
2,57,0,0
2,54,0,0
2,64,85,4
2,59,85,0
2,55,85,0
2,55,0,1532
2,59,0,0
2,64,0,0
2,62,85,4
2,67,85,0
2,74,85,0
2,74,0,380
2,67,0,0
2,62,0,0
2,64,85,4
2,67,85,0
