track,note,velocity,time
3,62,105,18080
3,62,0,713
3,65,105,7
3,65,0,656
3,62,105,784
3,64,105,240
3,62,0,8
3,64,0,213
3,65,105,19
3,67,105,480
3,65,0,16
3,69,105,224
3,67,0,11
3,69,0,204
3,70,105,25
3,70,0,1355
3,69,105,1525
3,69,0,228
3,67,105,12
3,65,105,240
3,67,0,11
3,69,105,709
3,65,0,7
3,69,0,671
3,67,105,42
3,67,0,995
3,60,105,445
3,62,105,240
3,60,0,11
3,62,0,210
3,64,105,19
3,65,105,480
3,64,0,3
3,65,0,177
3,69,105,540
3,69,0,701
3,67,105,19
3,65,105,480
3,67,0,55
3,65,0,128
3,69,105,297
3,67,105,480
3,69,0,25
3,67,0,158
3,67,105,777
3,67,0,237
3,65,105,3
3,65,0,198
3,62,105,42
3,62,0,538
3,65,105,1622
3,65,0,575
3,74,105,145
3,74,0,915
3,72,105,45
3,72,0,942
3,62,105,3138
3,62,0,690
3,65,105,30
3,65,0,508
3,62,105,1412
3,62,0,181
3,62,105,59
3,62,0,233
3,65,105,7
3,69,105,240
3,65,0,12
3,69,0,215
3,70,105,13
3,70,0,687
3,58,105,1713
3,58,0,210
3,69,105,30
3,69,0,226
3,67,105,14
3,65,105,480
3,67,0,5
3,65,0,448
3,69,105,27
3,67,105,480
3,69,0,22
3,67,0,320
3,67,105,138
3,67,0,555
3,60,105,885
3,62,105,240
3,60,0,18
3,62,0,217
3,64,105,5
3,65,105,480
3,64,0,6
3,67,105,234
3,65,0,11
3,67,0,205
3,69,105,24
3,69,0,757
3,67,105,443
3,65,105,240
3,67,0,23
3,65,0,455
3,69,105,2
3,67,105,480
3,69,0,21
3,67,0,266
3,67,105,673
3,67,0,240
3,65,105,0
3,65,0,222
3,62,105,18
3,62,0,518
3,65,105,1642
3,74,105,720
3,65,0,26
3,74,0,895
3,72,105,39
3,72,0,800
3,72,105,2800
3,72,0,168
3,72,105,72
3,73,105,120
3,72,0,25
3,73,0,430
3,75,105,745
3,73,105,240
3,75,0,23
3,73,0,159
3,73,105,58
3,73,0,238
3,72,105,2
3,72,0,497
3,72,105,463
3,73,105,240
3,72,0,36
3,73,0,194
3,72,105,10
3,72,0,191
3,72,105,49
3,70,105,240
3,72,0,15
3,70,0,485
3,70,105,220
3,70,0,153
3,70,105,87
3,68,105,240
3,70,0,21
3,70,105,219
3,68,0,37
3,72,105,203
3,70,0,20
3,72,0,330
3,68,105,130
3,68,0,182
3,68,105,58
3,68,0,191
3,68,105,49
3,68,0,177
3,68,105,63
3,70,105,240
3,68,0,8
3,72,105,232
3,70,0,28
3,72,0,179
3,73,105,33
3,73,0,406
3,73,105,314
3,73,0,162
3,73,105,78
3,73,0,156
3,73,105,84
3,75,105,240
3,73,0,23
3,73,105,217
3,75,0,22
3,73,0,208
3,72,105,10
3,72,0,456
3,72,105,312
3,72,0,135
3,77,105,105
3,75,105,480
3,77,0,35
3,75,0,185
3,72,105,20
3,72,0,163
3,72,105,77
3,72,0,597
3,77,105,363
3,75,105,480
3,77,0,32
3,75,0,190
3,72,105,18
3,72,0,161
3,72,105,79
3,72,0,677
3,77,105,283
3,75,105,480
3,77,0,33
3,75,0,192
3,72,105,15
3,72,0,173
3,72,105,67
3,72,0,715
3,77,105,485
3,77,0,1771
3,77,105,149
3,76,105,1680
3,77,0,5
3,74,105,475
3,76,0,26
3,72,105,214
3,74,0,1
3,72,0,560
3,62,105,6467
3,62,0,581
3,65,105,139
3,65,0,423
3,65,105,57
3,65,0,201
3,69,105,39
3,69,0,532
3,62,105,668
3,62,0,172
3,62,105,68
3,65,105,240
3,62,0,25
3,69,105,215
3,65,0,11
3,69,0,206
3,70,105,23
3,70,0,620
3,69,105,2020
3,69,0,233
3,67,105,7
3,67,0,453
3,65,105,27
3,65,0,565
3,69,105,155
3,67,105,720
3,69,0,17
3,67,0,488
3,60,105,935
3,60,0,233
3,62,105,7
3,62,0,230
3,64,105,10
3,65,105,480
3,64,0,8
3,67,105,232
3,65,0,17
3,67,0,374
3,69,105,89
3,69,0,705
3,67,105,15
3,67,0,611
3,67,105,109
3,69,105,240
3,67,0,2
3,67,105,478
3,69,0,8
3,67,0,490
3,67,105,462
3,65,105,240
3,67,0,2
3,65,0,195
3,62,105,43
3,62,0,606
3,65,105,1554
3,65,0,711
3,74,105,9
3,74,0,945
3,72,105,15
3,72,0,855
3,72,105,240
3,72,0,225
3,73,105,15
3,73,0,467
3,75,105,973
3,75,0,238
3,73,105,2
3,73,0,163
3,73,105,77
3,73,0,232
3,72,105,8
3,72,0,442
3,72,105,518
3,73,105,240
3,72,0,25
3,73,0,198
3,72,105,17
3,72,0,162
3,72,105,78
3,72,0,228
3,70,105,12
3,70,0,468
3,70,105,252
3,70,0,138
3,70,105,102
3,68,105,240
3,70,0,17
3,70,105,223
3,68,0,17
3,70,0,133
3,70,105,90
3,70,0,236
3,72,105,4
3,72,0,218
3,68,105,22
3,68,0,127
3,68,105,113
3,68,0,118
3,68,105,122
3,68,0,113
3,68,105,127
3,70,105,240
3,68,0,18
3,72,105,222
3,70,0,16
3,72,0,191
3,73,105,33
3,73,0,256
3,73,105,464
3,73,0,138
3,73,105,102
3,73,0,115
3,73,105,125
3,75,105,240
3,73,0,16
3,73,105,224
3,75,0,3
3,73,0,205
3,72,105,32
3,72,0,573
3,72,105,740
3,72,0,125
3,77,105,115
3,75,105,480
3,77,0,47
3,75,0,156
3,72,105,37
3,72,0,150
3,72,105,90
3,72,0,486
3,77,105,474
3,75,105,480
3,77,0,18
3,75,0,190
3,72,105,32
3,72,0,121
3,72,105,119
3,72,0,548
3,73,105,652
3,73,0,421
3,75,105,779
3,75,0,231
3,73,105,9
3,73,0,156
3,73,105,84
3,73,0,222
3,72,105,18
3,72,0,471
3,72,105,489
3,73,105,240
3,72,0,12
3,73,0,216
3,72,105,12
3,72,0,151
3,72,105,89
3,72,0,221
3,70,105,19
3,70,0,483
3,70,105,237
3,70,0,131
3,70,105,109
3,68,105,240
3,70,0,26
3,70,105,214
3,68,0,13
3,70,0,170
3,70,105,57
3,72,105,240
3,70,0,6
3,68,105,234
3,72,0,45
3,68,0,75
3,68,105,120
3,68,0,120
3,68,105,120
3,68,0,107
3,68,105,133
3,70,105,240
3,68,0,48
3,72,105,192
3,70,0,1
3,72,0,149
3,72,105,90
3,73,105,240
3,72,0,28
3,73,0,330
3,73,105,122
3,73,0,142
3,73,105,98
3,73,0,113
3,73,105,127
3,75,105,240
3,73,0,15
3,75,0,187
3,73,105,38
3,73,0,201
3,72,105,39
3,72,0,995
3,72,105,685
3,72,0,107
3,77,105,133
3,75,105,480
3,77,0,21
3,75,0,201
3,72,105,18
3,72,0,140
3,72,105,100
3,72,0,676
3,77,105,284
3,75,105,480
3,77,0,48
3,75,0,180
3,72,105,12
3,72,0,130
3,72,105,110
3,72,0,876
3,77,105,84
3,75,105,480
3,77,0,41
3,75,0,166
3,72,105,33
3,72,0,136
3,72,105,104
3,72,0,978
3,77,105,222
3,77,0,1743
3,77,105,177
3,76,105,1680
3,77,0,10
3,74,105,470
3,76,0,40
3,74,0,193
3,72,105,7
3,72,0,553
3,77,105,16247
3,77,0,1710
3,77,105,210
3,77,0,1663
3,76,105,17
3,74,105,480
3,76,0,31
3,72,105,209
3,74,0,17
3,72,0,516
3,77,105,16267
3,77,0,1780
3,77,105,140
3,77,0,1670
3,76,105,10
3,74,105,480
3,76,0,17
3,74,0,219
3,72,105,4
3,72,0,590
3,77,105,16210
3,77,0,1787
3,77,105,133
3,77,0,1658
3,76,105,22
3,74,105,480
3,76,0,32
3,74,0,196
3,72,105,12
3,72,0,795
5,38,95,2830
5,38,0,3817
5,31,95,23
5,31,0,2875
5,38,95,5
5,38,0,953
5,36,100,7
5,36,0,3803
5,26,115,37
5,38,103,3840
5,26,0,16
5,38,0,3310
5,33,95,34
5,33,0,446
5,31,100,34
5,43,85,3360
5,31,0,26
5,38,90,214
5,43,0,18
5,38,0,218
5,36,100,4
5,36,0,1148
5,36,95,52
5,36,0,360
5,31,95,120
5,31,0,187
5,36,95,53
5,36,0,1886
5,33,100,34
5,33,0,1641
5,28,105,39
5,28,0,226
5,33,95,14
5,34,100,1920
5,33,0,6
5,34,0,1381
5,34,100,53
5,34,0,457
5,41,95,23
5,41,0,1911
5,36,105,9
5,36,0,680
5,36,95,40
5,36,0,173
5,36,100,67
5,36,0,691
5,31,101,29
5,31,0,233
5,36,103,7
5,36,0,637
5,36,106,83
5,36,0,230
5,24,122,10
5,24,0,230
5,36,120,10
5,38,95,720
5,36,0,8
5,38,0,712
5,33,105,0
5,33,0,205
5,33,105,35
5,33,0,453
5,26,111,27
5,26,0,441
5,26,121,39
5,26,0,1907
5,31,105,13
5,31,0,1660
5,38,105,20
5,31,105,240
5,38,0,20
5,38,95,1420
5,31,0,6
5,36,100,474
5,38,0,2
5,36,0,1641
5,31,95,37
5,31,0,213
5,36,95,27
5,36,0,910
5,36,90,50
5,36,0,536
5,31,100,184
5,31,0,205
5,33,100,35
5,33,0,1805
5,33,100,115
5,33,0,1371
5,33,100,69
5,33,0,468
5,34,100,12
5,34,0,1433
5,36,90,7
5,40,90,240
5,36,0,1
5,41,95,239
5,40,0,13
5,41,0,668
5,29,115,39
5,29,0,198
5,29,105,42
5,36,95,960
5,29,0,3
5,36,0,639
5,36,93,78
5,36,0,187
5,36,95,53
5,36,0,681
5,31,95,39
5,36,95,240
5,31,0,2
5,36,0,644
5,36,95,74
5,24,110,240
5,36,0,11
5,24,0,224
5,36,95,5
5,32,85,480
5,36,0,22
5,32,0,218
5,37,105,0
5,37,0,626
5,37,105,94
5,37,0,632
5,37,105,88
5,37,0,398
5,32,105,82
5,32,0,652
5,32,105,68
5,32,0,670
5,32,105,50
5,32,0,413
5,39,105,67
5,39,0,610
5,39,102,110
5,39,0,677
5,39,102,43
5,39,0,410
5,32,105,70
5,32,0,610
5,32,105,110
5,32,0,652
5,32,105,68
5,32,0,480
5,34,100,0
5,34,0,592
5,34,100,128
5,34,0,660
5,34,100,60
5,34,0,393
5,36,100,87
5,36,0,620
5,36,100,100
5,36,0,200
5,36,100,40
5,36,0,456
5,36,100,24
5,36,0,472
5,41,107,8
5,41,0,582
5,41,104,138
5,36,100,480
5,41,0,27
5,36,0,201
5,41,102,12
5,41,0,217
5,39,100,23
5,39,0,842
5,39,104,118
5,39,0,193
5,39,100,47
5,39,0,455
5,39,100,25
5,38,107,240
5,39,0,11
5,31,116,229
5,38,0,5
5,31,0,613
5,31,111,102
5,31,0,666
5,31,111,54
5,31,0,8
5,32,111,57
5,32,0,1
5,29,114,60
5,29,0,1887
5,36,100,33
5,36,0,658
5,36,100,62
5,36,0,676
5,36,100,44
5,36,0,437
5,36,100,43
5,36,0,661
5,36,100,59
5,36,0,671
5,36,100,49
5,36,0,467
5,38,103,13
5,38,0,3120
5,50,114,0
5,50,0,48
5,33,104,192
5,33,0,8
5,31,107,2
5,31,0,2880
5,38,90,0
5,38,0,960
5,36,100,0
5,36,0,1680
5,31,95,0
5,31,0,240
5,36,95,0
5,36,0,1680
5,29,95,0
5,29,0,240
5,38,95,0
5,38,0,1680
5,33,100,0
5,33,0,240
5,38,95,0
5,38,0,422
5,38,95,58
5,38,0,686
5,38,95,34
5,38,0,720
5,31,107,0
5,31,0,1680
5,26,117,0
5,26,0,240
5,31,100,0
5,31,0,1440
5,38,90,0
5,38,0,480
5,36,100,0
5,36,0,1148
5,36,95,52
5,36,0,360
5,31,95,120
5,31,0,187
5,36,95,53
5,36,0,1320
5,31,100,120
5,31,0,202
5,32,100,38
5,32,0,212
5,33,100,28
5,33,0,666
5,33,100,54
5,33,0,1105
5,33,100,95
5,33,0,648
5,33,100,72
5,33,0,1200
5,34,100,0
5,34,0,1200
5,46,90,0
5,46,0,88
5,36,100,152
5,36,0,218
5,40,100,22
5,40,0,226
5,41,100,14
5,41,0,696
5,29,100,24
5,29,0,1196
5,36,105,4
5,36,0,680
5,36,95,40
5,36,0,202
5,36,100,38
5,36,0,691
5,31,101,29
5,31,0,233
5,36,103,7
5,36,0,637
5,36,106,83
5,36,0,230
5,24,122,10
5,24,0,230
5,36,120,10
5,37,105,720
5,36,0,8
5,37,0,618
5,37,105,94
5,37,0,632
5,37,105,88
5,37,0,398
5,32,105,82
5,32,0,652
5,32,105,68
5,32,0,670
5,32,105,50
5,32,0,413
5,39,105,67
5,39,0,610
5,39,102,110
5,39,0,677
5,39,102,43
5,39,0,410
5,32,105,70
5,32,0,610
5,32,105,110
5,32,0,652
5,32,105,68
5,32,0,480
5,34,100,0
5,34,0,592
5,34,100,128
5,34,0,660
5,34,100,60
5,34,0,393
5,36,100,87
5,36,0,620
5,36,100,100
5,36,0,178
5,36,100,62
5,36,0,456
5,36,100,24
5,36,0,472
5,41,100,8
5,41,0,582
5,41,100,138
5,36,100,480
5,41,0,27
5,36,0,201
5,41,100,12
5,41,0,217
5,39,100,23
5,39,0,842
5,39,100,118
5,39,0,960
5,32,107,0
5,37,100,240
5,32,0,5
5,37,0,667
5,37,100,48
5,37,0,198
5,37,100,42
5,37,0,233
5,36,100,7
5,36,0,215
5,37,100,25
5,37,0,465
5,32,100,15
5,32,0,627
5,32,100,93
5,32,0,193
5,32,100,47
5,32,0,175
5,32,100,65
5,32,0,220
5,32,100,20
5,32,0,455
5,39,100,25
5,39,0,671
5,39,100,49
5,39,0,200
5,39,100,40
5,39,0,195
5,39,100,45
5,39,0,206
5,39,100,34
5,39,0,455
5,32,100,25
5,32,0,623
5,32,100,97
5,32,0,187
5,32,100,53
5,32,0,420
5,32,100,60
5,34,100,2
5,32,0,18
5,34,0,619
5,34,100,83
5,34,0,662
5,34,100,58
5,34,0,398
5,36,100,82
5,36,0,661
5,36,100,59
5,36,0,655
5,36,100,65
5,29,122,480
5,36,0,2
5,29,0,238
5,48,102,0
5,48,0,480
5,53,104,0
5,55,100,480
5,53,0,27
5,55,0,213
5,56,100,0
5,56,0,240
5,58,102,0
5,58,0,480
5,55,102,0
5,55,0,480
5,51,102,0
5,51,0,480
5,48,100,0
5,48,0,2
5,31,109,0
5,31,0,618
5,31,105,102
5,31,0,666
5,31,105,54
5,31,0,8
5,32,105,57
5,32,0,618
5,32,105,102
5,32,0,666
5,32,105,54
5,32,0,13
5,29,105,60
5,29,0,618
5,29,105,102
5,29,0,666
5,29,105,54
5,29,0,418
5,36,100,62
5,24,123,720
5,36,0,18
5,24,0,187
5,36,100,35
5,36,0,443
5,36,100,37
5,36,0,407
5,36,100,73
5,36,0,703
5,24,123,17
5,24,0,237
5,36,100,3
5,36,0,418
5,36,100,62
5,36,0,480
5,38,100,0
5,38,0,1893
5,34,100,27
5,34,0,1878
5,36,100,42
5,36,0,675
5,36,100,45
5,36,0,200
5,36,100,40
5,36,0,437
5,36,100,43
5,36,0,387
5,36,100,93
5,36,0,648
5,36,100,72
5,36,0,201
5,36,100,39
5,36,0,432
5,36,100,48
5,29,118,480
5,36,0,8
5,29,0,1827
5,27,116,85
5,27,0,638
5,27,118,82
5,31,100,1200
5,27,0,35
5,31,0,1365
5,32,107,40
5,32,0,171
5,33,114,69
5,33,0,233
5,34,111,7
5,34,0,1166
5,34,104,34
5,34,0,172
5,34,100,68
5,36,100,240
5,34,0,5
5,29,100,235
5,36,0,3
5,29,0,662
5,36,100,55
5,36,0,233
5,29,100,7
5,31,102,480
5,29,0,13
5,35,104,227
5,31,0,5
5,36,100,235
5,35,0,7
5,36,0,594
5,36,100,119
5,36,0,203
5,36,100,37
5,36,0,436
5,36,100,44
5,36,0,398
5,36,100,82
5,36,0,656
5,36,100,64
5,36,0,182
5,36,100,58
5,36,0,436
5,36,100,44
5,36,0,475
5,38,100,5
5,38,0,1893
5,34,100,27
5,34,0,1878
5,36,104,42
5,36,0,675
5,36,100,45
5,36,0,200
5,36,100,40
5,36,0,437
5,36,100,43
5,36,0,387
5,36,100,93
5,36,0,648
5,36,100,72
5,36,0,190
5,36,100,50
5,36,0,190
5,36,100,50
5,36,0,198
5,36,100,42
5,36,0,480
