track,note,velocity,time
1,60,127,0
1,72,127,0
1,72,124,108
1,60,124,2
1,72,127,102
1,60,127,2
1,72,127,710
1,60,127,2
1,60,127,118
1,72,127,0
1,70,127,1178
1,82,127,8
1,73,127,122
1,85,127,6
1,82,127,1294
1,70,127,8
1,85,127,116
1,73,127,14
1,70,127,1308
1,82,127,8
1,73,127,112
1,85,127,6
1,70,127,1236
1,82,127,12
1,73,127,116
1,85,127,8
1,82,127,12402
1,82,127,100
1,80,127,46
1,82,127,106
1,77,127,184
1,73,127,36
1,75,127,38
1,77,127,0
1,73,127,4
1,80,127,318
1,82,127,98
1,82,127,70
1,82,127,138
1,77,127,10
1,77,127,76
1,80,127,64
1,85,127,192
1,77,127,134
1,77,127,16
1,82,127,46
1,82,127,100
1,80,127,18
1,82,127,88
1,77,127,6
1,73,127,114
1,75,127,54
1,77,127,42
1,78,127,18
1,70,127,516
1,82,127,120
1,80,127,86
1,82,127,42
1,75,127,162
1,75,127,114
1,77,127,44
1,73,127,22
1,75,127,192
1,70,127,500
1,82,127,122
1,80,127,86
1,82,127,42
1,75,127,170
1,75,127,116
1,77,127,46
1,73,127,26
1,75,127,190
1,82,127,6088
1,80,127,54
1,82,127,36
1,82,127,100
1,80,127,40
1,82,127,106
1,75,127,566
1,75,127,0
1,77,127,4
1,77,127,0
1,73,127,44
1,80,127,322
1,82,127,98
1,82,127,4
1,80,127,70
1,82,127,102
1,77,127,86
1,80,127,64
1,77,127,192
1,75,127,52
1,77,127,134
1,77,127,16
1,82,127,46
1,82,127,98
1,80,127,18
1,82,127,88
1,73,127,112
1,75,127,52
1,77,127,40
1,78,127,18
1,82,127,710
1,82,127,84
1,75,127,322
1,75,127,116
1,77,127,46
1,73,127,24
1,75,127,192
1,82,127,694
1,82,127,86
1,75,127,322
1,75,127,116
1,77,127,46
1,73,127,24
1,75,127,192
1,75,127,3012
1,73,127,102
1,75,127,38
1,75,127,74
1,73,127,16
1,75,127,34
1,73,127,44
1,75,127,102
1,75,127,78
1,77,127,24
1,73,127,2
1,72,88,0
1,70,127,112
1,75,127,52
1,75,127,2
1,73,127,192
1,75,127,112
1,73,127,14
1,75,127,108
1,77,127,82
1,73,127,56
1,72,127,8
1,70,127,76
1,70,127,40
1,70,127,84
1,70,127,88
1,73,127,80
1,70,127,840
1,72,127,122
1,72,127,116
1,72,127,116
1,75,127,84
1,82,127,7410
1,80,127,58
1,82,115,450
1,80,103,172
1,82,115,84
1,77,115,12
1,73,96,106
1,75,90,34
1,75,96,68
1,77,103,62
1,76,60,10
1,73,103,42
1,77,127,540
1,82,103,62
1,80,90,0
1,82,115,82
1,77,121,22
1,80,103,34
1,77,96,150
1,75,96,90
1,77,121,22
1,73,103,236
1,73,109,4
1,72,96,58
1,70,109,38
1,70,103,110
1,68,96,106
1,70,103,112
1,70,115,26
1,75,90,22
1,75,96,66
1,77,121,62
1,78,103,16
1,82,127,468
1,82,127,190
1,75,127,116
1,75,127,50
1,75,48,50
1,77,127,0
1,73,127,38
1,75,96,192
1,82,127,452
1,82,127,188
1,75,127,118
1,75,127,52
1,75,48,48
1,77,127,0
1,73,127,38
1,75,96,194
1,75,127,2774
1,73,127,102
1,60,127,16932
1,60,127,0
1,60,127,0
1,63,127,2
1,60,127,198
1,72,127,1210
1,72,127,128
1,72,127,138
1,72,127,782
1,72,127,118
1,72,127,146
1,72,127,774
1,72,127,156
1,72,127,162
1,72,127,778
1,72,127,138
1,72,127,816
1,72,127,128
1,72,127,138
1,72,127,780
1,72,127,116
1,72,127,148
1,72,127,774
1,72,127,156
1,72,127,162
1,60,127,10
1,72,127,0
1,60,127,98
1,72,127,0
1,60,127,0
1,72,127,0
1,63,127,0
1,75,127,0
1,60,127,202
1,72,127,0
1,72,127,1210
1,72,127,128
1,72,127,138
1,72,127,782
1,72,127,118
1,72,127,148
1,72,127,774
1,72,127,156
1,72,127,162
1,72,127,778
1,60,127,2
1,77,127,98
1,72,127,2
1,60,127,2
1,75,127,0
1,77,127,4
1,77,127,76
1,75,127,14
1,77,127,34
1,75,127,42
1,77,127,102
1,77,127,80
1,79,127,24
1,75,127,4
1,74,88,0
1,72,127,112
1,77,127,52
1,77,127,2
1,75,127,192
1,77,127,110
1,75,127,8
1,77,127,108
1,79,127,82
1,75,127,56
1,74,127,10
1,72,127,76
1,72,127,38
1,72,127,86
1,72,127,82
1,75,127,80
1,72,127,840
1,74,127,122
1,74,127,118
1,74,127,114
1,77,127,84
1,84,127,7410
1,82,127,52
1,79,127,416
1,72,127,92
1,79,127,292
1,79,127,0
1,77,127,28
1,75,127,16
1,77,127,86
1,79,127,70
1,80,1,44
1,72,127,70
1,79,127,360
1,81,12,0
1,72,127,78
1,60,127,412
1,60,127,2
1,60,127,0
1,63,127,0
1,60,127,202
1,79,127,822
1,72,127,118
1,79,127,384
1,79,127,0
1,77,127,28
1,75,127,16
1,77,127,86
1,79,127,72
1,80,1,44
1,72,127,68
1,79,127,362
1,81,12,0
1,72,127,78
1,60,127,410
1,60,127,2
1,60,127,0
1,63,127,0
1,60,127,198
1,79,127,822
1,72,127,92
1,79,127,294
1,79,127,0
1,77,127,32
1,75,127,14
1,77,127,86
1,79,127,70
1,80,1,44
1,72,127,64
1,79,127,362
1,81,12,0
1,72,127,76
1,60,127,410
1,60,127,2
1,60,127,0
1,63,127,0
1,60,127,200
2,83,127,762
2,71,100,2
2,84,127,86
2,72,101,24
2,84,127,118
2,72,114,2
2,77,127,48290
2,80,127,0
2,77,127,74
2,80,127,0
2,79,127,24
2,76,127,2
2,75,127,94
2,78,127,0
2,82,127,808
2,77,127,4
2,77,127,116
2,82,127,0
2,75,127,382
2,70,127,2
2,75,127,100
2,70,127,2
2,77,127,88
2,70,120,2
2,73,88,94
2,70,127,2
2,75,120,54
2,70,120,2
2,82,127,644
2,77,127,2
2,82,127,116
2,77,127,2
2,75,127,382
2,70,127,2
2,70,127,102
2,75,127,0
2,70,120,88
2,77,127,0
2,70,127,94
2,73,88,0
2,75,120,54
2,70,120,2
2,58,127,3908
2,63,127,0
2,70,127,0
2,70,127,196
2,58,127,2
2,63,127,0
2,68,127,4
2,56,127,2
2,61,127,0
2,70,127,196
2,58,127,2
2,63,127,0
2,61,127,766
2,58,127,580
2,63,127,0
2,70,127,0
2,70,127,196
2,58,127,2
2,63,127,0
2,56,127,0
2,61,127,0
2,68,127,0
2,70,127,142
2,58,127,2
2,63,127,0
2,72,127,194
2,60,127,2
2,65,127,0
2,51,127,46
2,58,127,0
2,60,127,2
2,53,127,4
2,77,127,15362
2,80,127,0
2,77,127,72
2,80,127,0
2,79,127,24
2,76,127,2
2,78,127,94
2,75,127,4
2,82,127,806
2,77,127,2
2,77,127,116
2,82,127,0
2,75,127,382
2,70,127,4
2,75,127,100
2,70,127,2
2,70,120,88
2,77,127,0
2,70,127,94
2,73,88,0
2,75,120,54
2,70,120,2
2,77,127,646
2,82,127,0
2,82,127,114
2,77,127,2
2,75,127,384
2,70,127,2
2,75,127,100
2,70,127,2
2,70,120,88
2,77,127,0
2,73,88,92
2,70,127,2
2,70,120,54
2,75,120,0
2,84,127,4140
2,84,127,2
2,84,127,4158
2,84,127,6
2,84,127,6180
2,84,127,120
2,84,127,102
2,84,127,658
2,84,127,134
2,84,127,126
2,84,103,510
2,84,127,0
2,84,127,18
2,84,127,64
2,84,127,246
2,84,127,146
2,84,127,156
2,84,103,486
2,84,127,4
2,84,127,22
2,84,127,78
2,84,127,332
2,84,127,164
2,84,127,156
2,84,103,464
2,84,127,2
2,84,127,22
2,84,127,78
2,84,127,334
2,84,127,154
2,84,127,160
2,84,103,362
2,84,127,4
2,84,127,22
2,84,127,78
2,84,127,330
2,84,127,162
2,84,127,156
2,84,103,464
2,84,127,0
2,84,127,22
2,84,127,78
2,84,127,334
2,84,127,152
2,84,127,160
2,84,103,362
2,60,127,288
2,65,127,0
2,72,127,0
2,72,127,196
2,60,127,2
2,65,127,0
2,70,127,4
2,58,127,2
2,63,127,0
2,72,127,198
2,60,127,2
2,65,127,0
2,63,127,766
2,60,127,578
2,65,127,0
2,72,127,0
2,72,127,196
2,60,127,2
2,65,127,0
2,58,127,0
2,63,127,0
2,70,127,0
2,72,127,142
2,60,127,2
2,65,127,0
2,74,127,192
2,62,127,2
2,67,127,0
2,53,127,46
2,60,127,0
2,62,127,0
2,55,127,8
2,87,127,7330
2,87,127,4
2,84,115,64
2,84,121,2116
2,84,115,148
2,84,121,2250
2,84,121,140
2,84,121,2236
2,84,121,152
2,84,121,2246
2,84,115,214
2,84,121,2188
2,84,115,146
2,84,121,2250
2,84,121,142
2,60,125,134
2,60,119,64
2,60,110,306
2,60,107,42
2,60,101,130
2,60,92,306
2,60,89,42
2,60,83,130
2,60,74,302
2,60,71,112
2,60,65,108
2,60,56,310
2,60,53,42
2,60,47,130
2,60,38,302
2,60,35,112
2,60,29,108
2,60,20,310
2,60,17,42
2,60,11,130
2,60,2,302
2,60,15,112
2,60,10,108
3,82,127,13048
3,75,127,2
3,70,127,2
3,51,127,2
3,63,127,0
3,82,127,4
3,75,127,2
3,70,127,2
3,63,127,2
3,51,127,2
3,75,127,106
3,82,127,0
3,51,127,4
3,63,127,0
3,70,127,0
3,82,127,6
3,75,127,2
3,70,127,2
3,51,127,2
3,63,127,0
3,82,127,94
3,75,127,2
3,51,127,2
3,63,127,0
3,70,127,0
3,82,127,136
3,85,127,0
3,75,127,4
3,73,127,2
3,70,127,2
3,49,127,2
3,61,127,0
3,82,127,44
3,70,127,2
3,58,127,2
3,46,127,2
3,70,127,5000
3,75,127,0
3,82,127,0
3,63,127,6
3,51,127,2
3,75,127,96
3,82,127,0
3,63,127,6
3,70,127,0
3,51,127,4
3,82,127,32
3,75,127,2
3,70,127,2
3,63,127,2
3,51,127,2
3,82,127,92
3,75,127,2
3,70,127,2
3,51,127,2
3,63,127,0
3,85,127,2
3,82,127,2
3,75,127,2
3,73,127,2
3,49,127,2
3,58,127,0
3,61,127,0
3,70,127,0
3,82,127,42
3,70,127,2
3,58,127,2
3,46,127,2
3,70,104,2512
3,73,127,210
3,73,116,70
3,70,104,26
3,73,1,12
3,70,127,1780
3,70,127,154
3,70,66,108
3,82,116,108
3,82,127,12650
3,77,127,2
3,70,127,2
3,97,127,72
3,92,88,4
3,73,127,2
3,85,127,0
3,65,127,1572
3,61,127,192
3,63,127,96
3,63,127,134
3,73,127,72
3,73,120,118
3,72,127,102
3,70,127,118
3,68,60,1070
3,70,88,384
3,65,127,14
3,63,120,192
3,65,127,104
3,68,127,768
3,73,127,126
3,68,127,1666
3,68,120,54
3,67,127,0
3,66,127,74
3,70,88,6468
3,74,88,192
3,75,84,192
3,76,84,138
3,77,92,138
3,80,100,136
3,81,112,134
3,82,116,136
3,86,120,138
3,87,127,136
3,89,127,136
3,94,127,138
3,70,127,13028
3,82,96,10
3,77,127,8
3,51,127,2230
3,63,127,0
3,70,127,0
3,75,127,0
3,82,127,0
3,51,127,34
3,63,127,0
3,70,127,0
3,75,127,0
3,82,127,0
3,51,127,0
3,63,127,0
3,70,127,0
3,75,127,0
3,82,127,0
3,51,127,0
3,63,127,0
3,70,127,0
3,75,127,0
3,82,127,0
3,49,127,0
3,58,127,0
3,61,127,0
3,70,127,0
3,73,127,0
3,77,127,0
3,82,127,0
3,85,127,0
3,82,127,2
3,70,127,2
3,58,127,2
3,46,127,2
3,65,127,1552
3,61,127,190
3,63,127,94
3,63,127,134
3,73,127,72
3,73,120,120
3,72,127,102
3,70,127,118
3,68,60,1068
3,70,88,386
3,65,127,12
3,63,120,194
3,65,127,104
3,68,127,766
3,73,127,126
3,68,127,1666
3,68,120,54
3,67,127,0
3,66,127,74
3,70,88,6466
3,74,88,190
3,75,84,192
3,76,84,136
3,77,92,138
3,80,100,136
3,81,112,136
3,82,116,136
3,86,120,136
3,87,127,138
3,89,127,136
3,94,127,134
3,94,96,136
3,70,127,160
3,77,127,10
3,82,127,10
3,80,96,10
3,70,127,96
3,77,127,10
3,82,127,8
3,51,127,1730
3,63,127,0
3,51,127,108
3,63,127,0
3,63,127,44
3,51,127,2
3,51,127,118
3,63,127,0
3,50,127,76
3,61,127,0
3,49,127,112
3,61,127,0
3,46,120,36
3,58,127,0
3,70,127,360
3,77,127,12
3,82,127,8
3,51,127,1730
3,63,127,0
3,51,127,108
3,63,127,0
3,51,127,44
3,63,127,0
3,63,127,118
3,51,127,2
3,50,127,78
3,61,127,0
3,49,127,110
3,61,127,0
3,46,120,38
3,58,127,0
3,70,127,358
3,77,127,12
3,82,127,8
3,51,127,1730
3,63,127,0
3,70,127,0
3,75,127,0
3,82,127,0
3,51,127,72
3,63,127,0
3,70,127,0
3,75,127,0
3,82,127,0
3,51,127,0
3,63,127,0
3,70,127,0
3,75,127,0
3,82,127,0
3,73,127,0
3,77,127,0
3,82,127,0
3,85,127,0
3,70,127,2
3,61,127,6
3,58,127,4
3,49,127,10
3,46,127,0
3,58,127,0
3,70,127,0
3,82,127,0
3,46,127,11142
3,61,127,0
3,70,127,0
3,73,127,0
3,82,127,0
3,73,127,74
3,82,127,0
3,70,127,4
3,61,127,0
3,46,127,4
3,46,127,0
3,61,127,0
3,70,127,0
3,73,127,0
3,82,127,0
3,49,127,0
3,58,127,0
3,61,127,0
3,70,127,0
3,73,127,0
3,77,127,0
3,82,127,0
3,85,127,0
3,46,127,2
3,58,127,0
3,70,127,0
3,82,127,0
3,72,127,22274
3,79,127,0
3,84,127,0
3,99,127,74
3,94,88,2
3,75,127,2
3,87,127,0
3,70,95,96
3,77,95,8
3,82,95,8
3,51,95,1732
3,63,95,0
3,70,95,0
3,75,95,0
3,82,95,0
3,63,95,74
3,70,95,0
3,75,95,0
3,82,95,0
3,51,95,8
3,51,95,0
3,63,95,0
3,70,95,0
3,75,95,0
3,82,95,0
3,49,95,0
3,58,95,0
3,61,95,0
3,70,95,0
3,73,95,0
3,77,95,0
3,82,95,0
3,85,95,0
3,46,95,4
3,58,95,0
3,70,95,0
3,82,95,0
3,70,95,450
3,77,95,10
3,82,95,6
3,51,95,1734
3,63,95,0
3,70,95,0
3,75,95,0
3,82,95,0
3,70,95,74
3,75,95,0
3,82,95,0
3,63,95,6
3,51,95,2
3,51,95,0
3,63,95,0
3,70,95,0
3,75,95,0
3,82,95,0
3,49,95,0
3,58,95,0
3,61,95,0
3,70,95,0
3,73,95,0
3,77,95,0
3,82,95,0
3,85,95,0
3,46,95,2
3,58,95,0
3,70,95,0
3,82,95,0
3,70,95,450
3,77,95,8
3,82,95,8
3,51,95,1736
3,63,95,0
3,70,95,0
3,75,95,0
3,82,95,0
3,51,95,74
3,63,95,0
3,70,95,0
3,75,95,0
3,82,95,0
3,51,95,0
3,63,95,0
3,70,95,0
3,75,95,0
3,82,95,0
3,49,95,0
3,58,95,0
3,61,95,0
3,70,95,0
3,73,95,0
3,77,95,0
3,82,95,0
3,85,95,0
3,46,95,2
3,58,95,0
3,70,95,0
3,82,95,0
4,82,127,13048
4,75,127,2
4,70,127,2
4,51,127,2
4,63,127,0
4,82,127,4
4,75,127,2
4,70,127,2
4,63,127,2
4,51,127,2
4,75,127,106
4,82,127,0
4,51,127,4
4,63,127,0
4,70,127,0
4,82,127,6
4,75,127,2
4,70,127,2
4,51,127,2
4,63,127,0
4,82,127,94
4,75,127,2
4,51,127,2
4,63,127,0
4,70,127,0
4,82,127,136
4,75,127,4
4,73,127,2
4,70,127,2
4,49,127,2
4,61,127,0
4,82,127,44
4,70,127,2
4,58,127,2
4,46,127,2
4,70,127,5000
4,75,127,0
4,82,127,0
4,63,127,6
4,51,127,2
4,75,127,96
4,82,127,0
4,63,127,6
4,70,127,0
4,51,127,4
4,82,127,32
4,75,127,2
4,70,127,2
4,63,127,2
4,51,127,2
4,82,127,92
4,75,127,2
4,70,127,2
4,51,127,2
4,63,127,0
4,82,127,4
4,75,127,2
4,73,127,2
4,49,127,2
4,58,127,0
4,61,127,0
4,70,127,0
4,82,127,42
4,70,127,2
4,58,127,2
