track,note,velocity,time
1,67,126,208
1,62,126,0
2,67,127,762
2,67,127,288
2,67,127,96
2,67,127,0
2,67,127,96
2,67,127,0
2,69,127,96
2,71,127,96
2,67,127,96
2,67,127,288
2,67,127,96
2,67,127,0
2,67,127,96
2,67,127,0
2,69,127,96
2,71,127,96
2,67,127,96
2,67,127,288
2,67,127,96
2,67,127,0
2,67,127,96
2,67,127,0
2,69,127,96
2,71,127,96
2,72,127,96
2,84,127,0
2,71,127,0
2,83,127,0
2,69,127,0
2,81,127,0
2,71,127,0
2,83,127,0
2,67,127,0
2,67,127,288
2,67,127,96
2,67,127,0
2,67,127,96
2,67,127,0
2,69,127,96
2,71,127,96
2,67,127,96
2,67,127,288
2,67,127,96
2,67,127,0
2,67,127,96
2,67,127,0
2,69,127,96
2,71,127,96
2,67,127,96
2,67,127,288
2,67,127,96
2,67,127,0
2,67,127,96
2,67,127,0
2,69,127,96
2,71,127,96
2,67,127,96
2,67,127,288
2,67,127,96
2,72,127,0
2,72,127,96
2,71,127,0
2,69,127,96
2,71,127,96
2,67,127,96
2,67,127,288
2,67,127,96
2,67,127,0
2,67,127,96
2,67,127,0
2,69,127,96
2,71,127,96
2,67,127,96
2,67,127,288
2,67,127,96
2,67,127,0
2,67,127,96
2,67,127,0
2,69,127,96
2,71,127,96
2,67,127,96
2,67,127,288
2,67,127,96
2,67,127,0
2,67,127,96
2,67,127,0
2,69,127,96
2,71,127,96
2,67,127,96
2,67,127,288
2,67,127,96
2,72,127,0
2,72,127,96
2,71,127,0
2,69,127,96
2,71,127,96
2,67,127,18528
2,67,127,288
2,67,127,96
2,67,127,0
2,67,127,96
2,67,127,0
2,69,127,96
2,71,127,96
2,67,127,96
2,67,127,288
2,67,127,96
2,67,127,0
2,67,127,96
2,67,127,0
2,69,127,96
2,71,127,96
2,67,127,96
2,67,127,288
2,67,127,96
2,67,127,0
2,67,127,96
2,67,127,0
2,69,127,96
2,71,127,96
2,67,127,96
2,67,127,288
2,67,127,96
2,72,127,0
2,72,127,96
2,71,127,0
2,69,127,96
2,71,127,96
2,67,127,96
2,67,127,288
2,67,127,96
2,67,127,0
2,67,127,96
2,67,127,0
2,69,127,96
2,71,127,96
2,67,127,96
2,67,127,288
2,67,127,96
2,67,127,0
2,67,127,96
2,67,127,0
2,69,127,96
2,71,127,96
2,67,127,96
2,67,127,288
2,67,127,96
2,67,127,0
2,67,127,96
2,67,127,0
2,69,127,96
2,71,127,96
2,67,127,96
2,67,127,288
2,67,127,96
2,72,127,0
2,72,127,96
2,71,127,0
2,69,127,96
2,71,127,96
2,67,127,18528
2,67,127,288
2,67,127,96
2,67,127,0
2,67,127,96
2,67,127,0
2,69,127,96
2,71,127,96
2,67,127,96
2,67,127,288
2,67,127,96
2,67,127,0
2,67,127,96
2,67,127,0
2,69,127,96
2,71,127,96
2,67,127,96
2,67,127,288
2,67,127,96
2,67,127,0
2,67,127,96
2,67,127,0
2,69,127,96
2,71,127,96
2,67,127,96
2,67,127,288
2,67,127,96
2,72,127,0
2,72,127,96
2,71,127,0
2,69,127,96
2,71,127,96
2,67,127,96
2,67,127,288
2,67,127,96
2,67,127,0
2,67,127,96
2,67,127,0
2,69,127,96
2,71,127,96
2,67,127,96
2,67,127,288
2,67,127,96
2,67,127,0
2,67,127,96
2,67,127,0
2,69,127,96
2,71,127,96
2,67,127,96
2,67,127,288
2,67,127,96
2,67,127,0
2,67,127,96
2,67,127,0
2,69,127,96
2,71,127,96
2,67,127,96
2,67,127,288
2,67,127,96
2,72,127,0
2,72,127,96
2,71,127,0
2,69,127,96
2,71,127,96
2,91,127,6240
2,67,127,18048
2,67,127,288
2,67,127,96
2,67,127,0
2,67,127,96
2,67,127,0
2,69,127,96
2,71,127,96
2,67,127,96
2,67,127,288
2,67,127,96
2,67,127,0
2,67,127,96
2,67,127,0
2,69,127,96
2,71,127,96
2,67,127,96
2,67,127,288
2,67,127,96
2,67,127,0
2,67,127,96
2,67,127,0
2,69,127,96
2,71,127,96
2,67,127,96
2,67,127,288
2,67,127,96
2,72,127,0
2,72,127,96
2,71,127,0
2,69,127,96
2,71,127,96
2,79,127,96
2,67,127,18052
2,67,127,288
2,67,127,96
2,67,127,0
2,67,127,96
2,67,127,0
2,69,127,96
2,71,127,96
2,67,127,96
2,67,127,288
2,67,127,96
2,67,127,0
2,67,127,96
2,67,127,0
2,69,127,96
2,71,127,96
2,67,127,96
2,67,127,288
2,67,127,96
2,67,127,0
2,67,127,96
2,67,127,0
2,69,127,96
2,71,127,96
2,67,127,96
2,67,127,288
2,67,127,96
2,72,127,0
2,72,127,96
2,71,127,0
2,69,127,96
2,71,127,96
2,67,127,96
2,67,127,288
2,67,127,96
2,67,127,0
2,67,127,96
2,67,127,0
2,69,127,96
2,71,127,96
2,67,127,96
2,67,127,288
2,67,127,96
2,67,127,0
2,67,127,96
2,67,127,0
2,69,127,96
2,71,127,96
2,67,127,96
2,67,127,288
2,67,127,96
2,67,127,0
2,67,127,96
2,67,127,0
2,69,127,96
2,71,127,96
2,67,127,96
2,67,127,288
2,67,127,96
2,72,127,0
2,72,127,96
2,71,127,0
2,69,127,96
2,71,127,96
2,67,127,6240
2,91,127,0
2,67,127,192
2,67,127,96
2,67,127,0
2,67,127,96
2,67,127,0
2,69,127,96
2,71,127,96
2,67,127,96
2,67,127,288
2,67,127,96
2,67,127,0
2,67,127,96
2,67,127,0
2,69,127,96
2,71,127,96
2,67,127,96
2,67,127,288
2,67,127,96
2,67,127,0
2,67,127,96
2,67,127,0
2,69,127,96
2,71,127,96
2,67,127,96
2,67,127,288
2,67,127,96
2,72,127,0
2,72,127,96
2,71,127,0
2,69,127,96
2,71,127,96
2,67,127,96
2,91,127,0
2,67,127,192
2,67,127,96
2,67,127,0
2,67,127,96
2,67,127,0
2,69,127,96
2,71,127,96
2,67,127,96
2,67,127,288
2,67,127,96
2,67,127,0
2,67,127,96
2,67,127,0
2,69,127,96
2,71,127,96
2,67,127,96
2,67,127,288
2,67,127,96
2,67,127,0
2,67,127,96
2,67,127,0
2,69,127,96
2,71,127,96
2,67,127,96
2,67,127,288
2,67,127,96
2,72,127,0
2,72,127,96
2,71,127,0
2,69,127,96
2,71,127,96
2,67,127,96
2,67,127,288
2,67,127,96
2,67,127,0
2,67,127,96
2,67,127,0
2,69,127,96
2,71,127,96
2,67,127,96
2,67,127,288
2,67,127,96
2,67,127,0
2,67,127,96
2,67,127,0
2,69,127,96
2,71,127,96
2,67,127,96
2,67,127,288
2,67,127,96
2,67,127,0
2,67,127,96
2,67,127,0
2,69,127,96
2,71,127,96
2,67,127,96
2,67,127,288
2,67,127,96
2,72,127,0
2,72,127,96
2,71,127,0
2,69,127,96
2,71,127,96
2,67,127,96
2,67,127,288
2,67,127,96
2,67,127,0
2,67,127,96
2,67,127,0
2,69,127,96
2,71,127,96
2,67,127,96
2,67,127,288
2,67,127,96
2,67,127,0
2,67,127,96
2,67,127,0
2,69,127,96
2,71,127,96
2,67,127,96
2,67,127,288
2,67,127,96
2,67,127,0
2,67,127,96
2,67,127,0
2,69,127,96
2,71,127,96
2,67,127,96
2,67,127,288
2,67,127,96
2,72,127,0
2,72,127,96
2,71,127,0
2,69,127,96
2,71,127,96
2,67,127,96
2,67,127,288
2,67,127,96
2,67,127,0
2,67,127,96
2,67,127,0
2,69,127,96
2,71,127,96
2,67,127,96
2,67,123,288
2,67,120,96
2,67,120,0
2,67,117,96
2,67,115,0
2,69,114,96
2,71,111,96
2,67,108,96
2,67,103,288
2,67,102,96
2,67,100,0
2,67,97,96
2,67,97,0
2,69,96,96
2,71,94,96
2,67,91,96
2,67,87,288
2,67,84,96
2,72,84,0
2,72,81,96
2,71,79,0
2,69,78,96
2,71,75,96
2,67,72,96
2,67,67,288
2,67,66,96
2,67,64,0
2,67,61,96
2,67,61,0
2,69,58,96
2,71,57,96
2,67,54,96
2,67,49,288
2,67,48,96
2,67,48,0
2,67,45,96
2,67,43,0
2,69,42,96
2,71,39,96
2,67,36,96
2,67,31,288
2,67,30,96
2,67,28,0
2,67,25,96
2,67,25,0
2,69,22,96
2,71,21,96
2,67,18,96
2,67,13,288
2,67,10,96
2,72,10,0
2,72,7,96
2,71,6,0
2,69,4,96
2,71,1,96
3,31,110,6900
3,31,110,0
3,36,110,576
3,35,110,192
3,31,110,0
3,31,110,0
3,36,110,576
3,35,110,192
3,36,110,0
3,36,110,0
3,41,110,576
3,40,110,192
3,36,110,0
3,36,110,0
3,36,110,576
3,36,110,192
3,31,110,0
3,31,110,0
3,36,110,576
3,35,110,192
3,31,110,0
3,31,110,0
3,36,110,576
3,35,110,192
3,36,110,0
3,36,110,0
3,41,110,576
3,40,110,192
3,36,110,0
3,36,110,0
3,36,110,576
3,36,110,192
3,31,110,0
3,31,110,0
3,36,110,576
3,35,110,192
3,31,110,0
3,31,110,0
3,36,110,576
3,35,110,192
3,36,110,0
3,36,110,0
3,41,110,576
3,40,110,192
3,36,110,0
3,36,110,0
3,36,110,576
3,36,110,192
3,31,110,0
3,31,110,0
3,36,110,576
3,35,110,192
3,31,110,0
3,31,110,0
3,36,110,576
3,35,110,192
3,36,110,0
3,36,110,0
3,41,110,576
3,40,110,192
3,36,110,0
3,36,110,0
3,36,110,576
3,36,110,192
3,38,110,0
3,38,110,0
3,38,110,576
3,38,110,192
3,40,110,0
3,40,110,0
3,40,110,576
3,40,110,192
3,36,110,0
3,36,110,0
3,36,110,576
3,36,110,192
3,38,110,0
3,38,110,0
3,38,110,576
3,38,110,192
3,31,110,0
3,31,110,0
3,36,110,576
3,35,110,192
3,31,110,0
3,31,110,0
3,36,110,576
3,35,110,192
3,36,110,0
3,36,110,0
3,41,110,576
3,40,110,192
3,36,110,0
3,36,110,0
3,36,110,576
3,36,110,192
3,31,110,0
3,31,110,0
3,36,110,576
3,35,110,192
3,31,110,0
3,31,110,0
3,36,110,576
3,35,110,192
3,36,110,0
3,36,110,0
3,41,110,576
3,40,110,192
3,36,110,0
3,36,110,0
3,36,110,576
3,36,110,192
3,31,110,0
3,31,110,0
3,36,110,576
3,35,110,192
3,31,110,0
3,31,110,0
3,36,110,576
3,35,110,192
3,36,110,0
3,36,110,0
3,41,110,576
3,40,110,192
3,36,110,0
3,36,110,0
3,36,110,576
3,36,110,192
3,31,110,0
3,31,110,0
3,36,110,576
3,35,110,192
3,31,110,0
3,31,110,0
3,36,110,576
3,35,110,192
3,36,110,0
3,36,110,0
3,41,110,576
3,40,110,192
3,36,110,0
3,36,110,0
3,36,110,576
3,36,110,192
3,38,110,0
3,38,110,0
3,38,110,576
3,38,110,192
3,40,110,0
3,40,110,0
3,40,110,576
3,40,110,192
3,36,110,0
3,36,110,0
3,36,110,576
3,36,110,192
3,38,110,0
3,38,110,0
3,38,110,576
3,38,110,192
3,31,110,0
3,31,110,0
3,36,110,576
3,35,110,192
3,31,110,0
3,31,110,0
3,36,110,576
3,35,110,192
3,36,110,0
3,36,110,0
3,41,110,576
3,40,110,192
3,36,110,0
3,36,110,0
3,36,110,576
3,36,110,192
3,31,110,0
3,31,110,0
3,36,110,576
3,35,110,192
3,31,110,0
3,31,110,0
3,36,110,576
3,35,110,192
3,36,110,0
3,36,110,0
3,41,110,576
3,40,110,192
3,36,110,0
3,36,110,0
3,36,110,576
3,36,110,192
3,33,110,0
3,33,110,0
3,33,110,576
3,33,110,192
3,38,110,0
3,38,110,0
3,38,110,576
3,38,110,192
3,33,110,0
3,33,110,0
3,33,110,576
3,33,110,192
3,26,110,0
3,28,110,0
3,29,110,0
3,30,110,0
3,31,110,0
3,31,110,0
3,36,110,576
3,35,110,192
3,31,110,0
3,31,110,0
3,36,110,576
3,35,110,192
3,36,110,0
3,36,110,0
3,41,110,576
3,40,110,192
3,36,110,0
3,36,110,0
3,36,110,576
3,36,110,192
3,31,110,0
3,31,110,0
3,36,110,576
3,35,110,192
3,31,110,0
3,31,110,0
3,36,110,576
3,35,110,192
3,36,110,0
3,36,110,0
3,41,110,576
3,40,110,192
3,36,110,0
3,36,110,0
3,36,110,576
3,36,110,192
3,31,110,0
3,31,110,0
3,36,110,576
3,35,110,192
3,31,110,0
3,31,110,0
3,36,110,576
3,35,110,192
3,36,110,0
3,36,110,0
3,41,110,576
3,40,110,192
3,36,110,0
3,36,110,0
3,36,110,576
3,36,110,192
3,31,110,0
3,31,110,0
3,36,110,576
3,35,110,192
3,31,110,0
3,31,110,0
3,36,110,576
3,35,110,192
3,36,110,0
3,36,110,0
3,41,110,576
3,40,110,192
3,36,110,0
3,36,110,0
3,36,110,576
3,36,110,192
3,38,110,12288
3,38,110,0
3,38,110,576
3,38,110,192
3,40,110,0
3,40,110,0
3,40,110,576
3,40,110,192
3,36,110,0
3,36,110,0
3,36,110,576
3,36,110,192
3,38,110,0
3,38,110,0
3,38,110,576
3,38,110,192
3,31,110,0
3,31,110,0
3,36,110,576
3,35,110,192
3,31,110,0
3,31,110,0
3,36,110,576
3,35,110,192
3,36,110,0
3,36,110,0
3,41,110,576
3,40,110,192
3,36,110,0
3,36,110,0
3,36,110,576
3,36,110,192
3,31,110,0
3,31,110,0
3,36,110,576
3,35,110,192
3,31,110,0
3,31,110,0
3,36,110,576
3,35,110,192
3,36,110,0
3,36,110,0
3,41,110,576
3,40,110,192
3,36,110,0
3,36,110,0
3,36,110,576
3,36,110,192
3,33,110,0
3,33,110,0
3,33,110,576
3,33,110,192
3,38,110,0
3,38,110,0
3,38,110,576
3,38,110,192
3,33,110,0
3,33,110,0
3,33,110,576
3,33,110,192
3,26,110,0
3,28,110,0
3,29,110,0
3,30,110,0
3,31,110,0
3,31,110,0
3,36,110,576
3,35,110,192
3,31,110,0
3,31,110,0
3,36,110,576
3,35,110,192
3,36,110,0
3,36,110,0
3,41,110,576
3,40,110,192
3,36,110,0
3,36,110,0
3,36,110,576
3,36,110,192
3,31,110,0
3,31,110,0
3,36,110,576
3,35,110,192
3,31,110,0
3,31,110,0
3,36,110,576
3,35,110,192
3,36,110,0
3,36,110,0
3,41,110,576
3,40,110,192
3,36,110,0
3,36,110,0
3,36,110,576
3,36,110,192
3,31,110,0
3,31,110,0
3,36,110,576
3,35,110,192
3,31,110,0
3,31,110,0
3,36,110,576
3,35,110,192
3,36,110,0
3,36,110,0
3,41,110,576
3,40,110,192
3,36,110,0
3,36,110,0
3,36,110,576
3,36,110,192
3,31,110,0
3,31,110,0
3,36,110,576
3,35,110,192
3,31,110,0
3,31,110,0
3,36,110,576
3,35,110,192
3,36,110,0
3,36,110,0
3,41,110,576
3,40,110,192
3,36,110,0
3,36,110,0
3,36,110,576
3,36,110,192
3,31,110,0
3,31,107,0
3,36,101,576
3,35,98,192
3,31,95,0
3,31,93,0
3,36,87,576
3,35,83,192
3,36,81,0
3,36,80,0
3,41,73,576
3,40,70,192
3,36,68,0
3,36,66,0
3,36,60,576
3,36,56,192
3,31,55,192
3,31,52,0
3,36,46,576
3,35,43,192
3,31,40,0
3,31,38,0
3,36,32,384
3,35,28,192
3,36,26,0
3,36,25,0
3,41,18,576
3,40,15,192
3,36,13,0
3,36,11,0
3,36,5,576
3,36,1,192
4,55,100,19182
4,67,100,0
4,55,100,0
4,67,100,0
4,55,100,0
4,67,100,0
4,55,100,0
4,64,100,0
4,62,100,0
4,55,100,0
4,67,100,0
4,55,100,0
4,67,100,0
4,55,100,0
4,67,100,0
4,55,100,0
4,64,100,0
4,62,100,0
4,48,100,0
4,60,100,0
4,48,100,0
4,60,100,0
4,48,100,0
4,60,100,0
4,48,100,0
4,60,100,0
4,48,100,0
4,60,100,0
4,48,100,0
4,60,100,0
4,48,100,0
4,60,100,0
4,48,100,0
4,60,100,0
4,48,100,0
4,60,100,0
4,48,100,0
4,60,100,0
4,55,100,0
4,67,100,0
4,55,100,0
4,67,100,0
4,55,100,0
4,67,100,0
4,55,100,0
4,64,100,0
4,62,100,0
4,55,100,0
4,67,100,0
4,55,100,0
