track,note,velocity,time
11,79,127,0
11,81,127,0
11,84,127,0
11,83,127,0
11,81,127,0
11,79,127,0
11,79,127,20
11,79,127,20
11,76,127,0
11,74,127,0
11,76,127,0
11,74,127,0
11,79,127,120
11,81,127,0
11,84,127,0
11,83,127,0
11,81,127,0
11,79,127,0
11,79,127,20
11,79,127,20
11,86,127,0
11,79,127,12120
11,81,127,0
11,84,127,0
11,83,127,0
11,81,127,0
11,79,127,0
11,79,127,240
11,79,127,240
11,76,127,0
11,74,127,0
11,76,127,0
11,74,127,0
11,79,127,120
11,81,127,0
11,84,127,0
11,83,127,0
11,81,127,0
11,79,127,0
11,79,127,240
11,79,127,240
11,88,127,0
11,86,127,0
11,88,127,0
11,86,127,0
11,79,127,11640
11,81,127,0
11,84,127,0
11,83,127,0
11,81,127,0
11,79,127,0
11,79,127,240
11,79,127,240
11,76,127,0
11,74,127,0
11,76,127,0
11,74,127,0
11,79,127,120
11,81,127,0
11,84,127,0
11,83,127,0
11,81,127,0
11,79,127,0
11,79,127,240
11,79,127,240
11,88,127,0
11,86,127,0
11,88,127,0
11,86,127,0
11,79,127,21240
11,81,127,0
11,84,127,0
11,83,127,0
11,81,127,0
11,79,127,0
11,79,127,240
11,79,127,240
11,76,127,0
11,74,127,0
11,76,127,0
11,74,127,0
11,79,127,120
11,81,127,0
11,84,127,0
11,83,127,0
11,81,127,0
11,79,127,0
11,79,127,240
11,79,127,240
11,88,127,0
11,86,127,0
11,88,127,0
11,86,127,0
11,79,127,11640
11,81,127,0
11,84,127,0
11,83,127,0
11,81,127,0
11,79,127,0
11,79,127,240
11,79,127,240
11,76,127,0
11,74,127,0
11,76,127,0
11,74,127,0
11,79,127,120
11,81,127,0
11,84,127,0
11,83,127,0
11,81,127,0
11,79,127,0
11,79,127,240
11,79,127,240
11,88,127,0
11,86,127,0
11,88,127,0
11,86,127,0
11,79,127,120
11,81,127,0
11,84,127,0
11,83,127,0
11,81,127,0
11,79,127,0
11,79,127,240
11,79,127,240
11,76,127,0
11,74,127,0
11,76,127,0
11,74,127,0
11,79,127,120
11,81,127,0
11,84,127,0
11,83,127,0
11,81,127,0
11,79,127,0
11,79,127,240
11,79,127,240
11,88,127,0
11,86,127,0
11,88,127,0
11,86,127,0
11,79,127,120
11,81,127,0
11,84,127,0
11,83,127,0
11,81,127,0
11,79,127,0
11,79,127,240
11,79,127,240
11,76,127,0
11,74,127,0
11,76,127,0
11,74,127,0
11,79,127,120
11,81,127,0
11,84,127,0
11,83,127,0
11,81,127,0
11,79,127,0
11,79,127,240
11,79,127,240
11,88,127,0
11,86,127,0
11,88,127,0
11,86,127,0
11,79,127,120
11,81,127,0
11,84,127,0
11,83,127,0
11,81,127,0
11,79,127,0
11,79,127,240
11,79,127,240
11,76,127,0
11,74,127,0
11,76,127,0
11,74,127,0
11,79,127,120
11,81,127,0
11,84,127,0
11,83,127,0
11,81,127,0
11,79,127,0
11,79,127,240
11,79,127,240
11,88,127,0
11,86,127,0
11,88,127,0
11,86,127,0
11,79,127,120
11,81,127,0
11,84,127,0
11,83,127,0
11,81,127,0
11,79,127,0
11,79,127,240
11,79,126,240
11,76,124,0
11,74,122,0
11,76,120,0
11,74,118,0
11,79,114,120
11,81,113,0
11,84,112,0
11,83,110,0
11,81,108,0
11,79,106,0
11,79,104,240
11,79,102,240
11,88,100,0
11,86,98,0
11,88,96,0
11,86,94,0
11,79,90,120
11,81,89,0
11,84,88,0
11,83,86,0
11,81,84,0
11,79,82,0
11,79,80,240
11,79,78,240
11,76,76,0
11,74,74,0
11,76,72,0
11,74,70,0
11,79,66,120
11,81,65,0
11,84,64,0
11,83,62,0
11,81,60,0
11,79,58,0
11,79,56,240
11,79,54,240
11,88,52,0
11,86,50,0
11,88,48,0
11,86,46,0
11,79,42,120
11,81,41,0
11,84,40,0
11,83,38,0
11,81,36,0
11,79,34,0
11,79,32,240
11,79,30,240
11,76,28,0
11,74,26,0
11,76,24,0
11,74,22,0
11,79,18,120
11,81,17,0
11,84,16,0
11,83,14,0
11,81,12,0
11,79,10,0
11,79,8,240
11,79,6,240
11,88,4,0
11,86,2,0
11,88,1,0
11,86,1,0
12,79,127,0
12,81,127,0
12,84,127,0
12,83,127,0
12,81,127,0
12,79,127,0
12,79,127,20
12,79,127,20
12,76,120,0
12,74,120,0
12,76,120,0
12,74,120,0
12,79,127,120
12,81,127,0
12,84,127,0
12,83,127,0
12,81,127,0
12,79,127,0
12,79,127,20
12,79,127,20
12,86,127,0
12,79,127,12120
12,81,127,0
12,84,127,0
12,83,127,0
12,81,127,0
12,79,127,0
12,79,127,240
12,79,127,240
12,76,127,0
12,74,127,0
12,76,127,0
12,74,127,0
12,79,127,120
12,81,127,0
12,84,127,0
12,83,127,0
12,81,127,0
12,79,127,0
12,79,127,240
12,79,127,240
12,88,127,0
12,86,127,0
12,88,127,0
12,86,127,0
12,79,127,11640
12,81,127,0
12,84,127,0
12,83,127,0
12,81,127,0
12,79,127,0
12,79,127,240
12,79,127,240
12,76,127,0
12,74,127,0
12,76,127,0
12,74,127,0
12,79,127,120
12,81,127,0
12,84,127,0
12,83,127,0
12,81,127,0
12,79,127,0
12,79,127,240
12,79,127,240
12,88,127,0
12,86,127,0
12,88,127,0
12,86,127,0
12,79,127,21240
12,81,127,0
12,84,127,0
12,83,127,0
12,81,127,0
12,79,127,0
12,79,127,240
12,79,127,240
12,76,127,0
12,74,127,0
12,76,127,0
12,74,127,0
12,79,127,120
12,81,127,0
12,84,127,0
12,83,127,0
12,81,127,0
12,79,127,0
12,79,127,240
12,79,127,240
12,88,127,0
12,86,127,0
12,88,127,0
12,86,127,0
12,79,127,11640
12,81,127,0
12,84,127,0
12,83,127,0
12,81,127,0
12,79,127,0
12,79,127,240
12,79,127,240
12,76,127,0
12,74,127,0
12,76,127,0
12,74,127,0
12,79,127,120
12,81,127,0
12,84,127,0
12,83,127,0
12,81,127,0
12,79,127,0
12,79,127,240
12,79,127,240
12,88,127,0
12,86,127,0
12,88,127,0
12,86,127,0
12,79,127,120
12,81,127,0
12,84,127,0
12,83,127,0
12,81,127,0
12,79,127,0
12,79,127,240
12,79,127,240
12,76,127,0
12,74,127,0
12,76,127,0
12,74,127,0
12,79,127,120
12,81,127,0
12,84,127,0
12,83,127,0
12,81,127,0
12,79,127,0
12,79,127,240
12,79,127,240
12,88,127,0
12,86,127,0
12,88,127,0
12,86,127,0
12,79,127,120
12,81,127,0
12,84,127,0
12,83,127,0
12,81,127,0
12,79,127,0
12,79,127,240
12,79,127,240
12,76,127,0
12,74,127,0
12,76,127,0
12,74,127,0
12,79,127,120
12,81,127,0
12,84,127,0
12,83,127,0
12,81,127,0
12,79,127,0
12,79,127,240
12,79,127,240
12,88,127,0
12,86,127,0
12,88,127,0
12,86,127,0
12,79,127,120
12,81,127,0
12,84,127,0
12,83,127,0
12,81,127,0
12,79,127,0
12,79,127,240
12,79,127,240
12,76,127,0
12,74,127,0
12,76,127,0
12,74,127,0
12,79,127,120
12,81,127,0
12,84,127,0
12,83,127,0
12,81,127,0
12,79,127,0
12,79,127,240
12,79,127,240
12,88,127,0
12,86,127,0
12,88,127,0
12,86,127,0
12,79,127,120
12,81,127,0
12,84,127,0
12,83,127,0
12,81,127,0
12,79,127,0
12,79,127,240
12,79,126,240
12,76,124,0
12,74,122,0
12,76,120,0
12,74,118,0
12,79,114,120
12,81,113,0
12,84,112,0
12,83,110,0
12,81,108,0
12,79,106,0
12,79,104,240
12,79,102,240
12,88,100,0
12,86,98,0
12,88,96,0
12,86,94,0
12,79,90,120
12,81,89,0
12,84,88,0
12,83,86,0
12,81,84,0
12,79,82,0
12,79,80,240
12,79,78,240
12,76,76,0
12,74,74,0
12,76,72,0
12,74,70,0
12,79,66,120
12,81,65,0
12,84,64,0
12,83,62,0
12,81,60,0
12,79,58,0
12,79,56,240
12,79,54,240
12,88,52,0
12,86,50,0
12,88,48,0
12,86,46,0
12,79,42,120
12,81,41,0
12,84,40,0
12,83,38,0
12,81,36,0
12,79,34,0
12,79,32,240
12,79,30,240
12,76,28,0
12,74,26,0
12,76,24,0
12,74,22,0
12,79,18,120
12,81,17,0
12,84,16,0
12,83,14,0
12,81,12,0
12,79,10,0
12,79,8,240
12,79,6,240
12,88,4,0
12,86,2,0
12,88,1,0
12,86,1,0
13,79,127,0
13,81,127,0
13,84,127,0
13,83,127,0
13,81,127,0
13,79,127,0
13,79,127,20
13,79,127,20
13,76,115,0
13,74,115,0
13,76,115,0
13,74,115,0
13,79,127,0
13,81,127,0
13,84,127,0
13,83,127,0
13,81,127,0
13,79,127,0
13,79,127,20
13,79,127,20
13,86,127,0
13,79,127,12000
13,81,127,0
13,84,127,0
13,83,127,0
13,81,127,0
13,79,127,0
13,79,127,120
13,79,127,120
13,76,127,0
13,74,127,0
13,76,127,0
13,74,127,0
13,79,127,120
13,81,127,0
13,84,127,0
13,83,127,0
13,81,127,0
13,79,127,0
13,79,127,120
13,79,127,120
13,88,127,0
13,86,127,0
13,88,127,0
13,86,127,0
13,79,127,11640
13,81,127,0
13,84,127,0
13,83,127,0
13,81,127,0
13,79,127,0
13,79,127,120
13,79,127,120
13,76,127,0
13,74,127,0
13,76,127,0
13,74,127,0
13,79,127,120
13,81,127,0
13,84,127,0
13,83,127,0
13,81,127,0
13,79,127,0
13,79,127,120
13,79,127,120
13,88,127,0
13,86,127,0
13,88,127,0
13,86,127,0
13,79,127,21240
13,81,127,0
13,84,127,0
13,83,127,0
13,81,127,0
13,79,127,0
13,79,127,120
13,79,127,120
13,76,127,0
13,74,127,0
13,76,127,0
13,74,127,0
13,79,127,120
13,81,127,0
13,84,127,0
13,83,127,0
13,81,127,0
13,79,127,0
13,79,127,120
13,79,127,120
13,88,127,0
13,86,127,0
13,88,127,0
13,86,127,0
13,79,127,11640
13,81,127,0
13,84,127,0
13,83,127,0
13,81,127,0
13,79,127,0
13,79,127,120
13,79,127,120
13,76,127,0
13,74,127,0
13,76,127,0
13,74,127,0
13,79,127,120
13,81,127,0
13,84,127,0
13,83,127,0
13,81,127,0
13,79,127,0
13,79,127,120
13,79,127,120
13,88,127,0
13,86,127,0
13,88,127,0
13,86,127,0
13,79,127,120
13,81,127,0
13,84,127,0
13,83,127,0
13,81,127,0
13,79,127,0
13,79,127,120
13,79,127,120
13,76,127,0
13,74,127,0
13,76,127,0
13,74,127,0
13,79,127,120
13,81,127,0
13,84,127,0
13,83,127,0
13,81,127,0
13,79,127,0
13,79,127,120
13,79,127,120
13,88,127,0
13,86,127,0
13,88,127,0
13,86,127,0
13,79,127,120
13,81,127,0
13,84,127,0
13,83,127,0
13,81,127,0
13,79,127,0
13,79,127,120
13,79,127,120
13,76,127,0
13,74,127,0
13,76,127,0
13,74,127,0
13,79,127,120
13,81,127,0
13,84,127,0
13,83,127,0
13,81,127,0
13,79,127,0
13,79,127,120
13,79,127,120
13,88,127,0
13,86,127,0
13,88,127,0
13,86,127,0
13,79,127,120
13,81,127,0
13,84,127,0
13,83,127,0
13,81,127,0
13,79,127,0
13,79,127,120
13,79,127,120
13,76,127,0
13,74,127,0
13,76,127,0
13,74,127,0
13,79,127,120
13,81,127,0
13,84,127,0
13,83,127,0
13,81,127,0
13,79,127,0
13,79,127,120
13,79,127,120
13,88,127,0
13,86,127,0
13,88,127,0
13,86,127,0
13,79,127,120
13,81,127,0
13,84,127,0
13,83,127,0
13,81,127,0
13,79,127,0
13,79,127,120
13,79,126,120
13,76,124,0
13,74,122,0
13,76,120,0
13,74,118,0
13,79,114,120
13,81,113,0
13,84,112,0
13,83,110,0
13,81,108,0
13,79,106,0
13,79,104,120
13,79,102,120
13,88,100,0
13,86,98,0
13,88,96,0
13,86,94,0
13,79,90,120
13,81,89,0
13,84,88,0
13,83,86,0
13,81,84,0
13,79,82,0
13,79,80,120
13,79,78,120
13,76,76,0
13,74,74,0
13,76,72,0
13,74,70,0
13,79,66,120
13,81,65,0
13,84,64,0
13,83,62,0
13,81,60,0
13,79,58,0
13,79,56,120
13,79,54,120
13,88,52,0
13,86,50,0
13,88,48,0
13,86,46,0
13,79,42,120
13,81,41,0
13,84,40,0
13,83,38,0
13,81,36,0
13,79,34,0
13,79,32,120
13,79,30,120
13,76,28,0
13,74,26,0
13,76,24,0
13,74,22,0
13,79,18,120
13,81,17,0
13,84,16,0
13,83,14,0
13,81,12,0
13,79,10,0
13,79,8,120
13,79,6,120
13,88,4,0
13,86,2,0
13,88,1,0
13,86,1,0
14,74,127,7860
14,71,127,80
14,69,127,120
14,71,127,0
14,69,127,0
14,67,127,240
14,67,127,40
14,67,127,40
14,69,127,0
14,71,127,60
14,74,85,440
14,74,127,20
14,74,127,20
14,71,127,80
14,69,127,247
14,71,127,0
14,69,127,0
14,67,127,300
14,67,127,40
14,67,127,40
14,69,127,0
14,71,127,60
14,69,127,560
14,69,127,10
14,69,127,20
14,69,127,20
14,71,127,0
14,71,127,10
14,71,127,20
14,71,127,60
14,72,127,0
14,72,127,10
14,72,127,20
14,72,127,20
14,74,127,0
14,74,127,10
14,74,127,20
14,74,127,7860
14,71,127,80
14,69,127,120
14,71,127,0
14,69,127,0
14,67,127,240
14,67,127,40
14,67,127,20
14,69,127,20
14,71,127,60
14,74,85,400
14,74,127,20
14,71,127,80
14,69,127,120
14,71,127,0
14,69,127,0
14,67,127,300
14,67,127,40
14,67,127,40
14,69,127,40
14,71,127,0
14,69,127,560
14,69,127,20
14,69,127,20
14,69,127,20
14,71,127,0
14,71,127,10
14,71,127,20
14,71,127,60
14,72,127,0
14,72,127,20
14,72,127,20
14,72,127,20
14,74,127,0
14,74,127,20
14,74,127,20
14,74,127,36660
14,71,127,80
14,69,127,120
14,71,127,0
14,69,127,0
14,67,127,240
14,67,127,20
14,67,127,40
14,69,127,0
14,71,127,0
14,74,85,400
14,74,127,20
14,71,127,80
14,69,127,120
14,71,127,0
14,69,127,0
14,67,127,300
14,67,127,40
14,67,127,40
14,69,127,40
14,71,127,0
14,69,127,560
14,69,127,20
14,69,127,20
14,69,127,20
14,71,127,0
14,71,127,10
14,71,127,20
14,71,127,60
14,72,127,0
14,72,127,20
14,72,127,20
14,72,127,20
14,74,127,0
14,74,127,20
14,74,127,20
15,64,89,15560
15,64,91,10
15,64,93,20
15,64,95,20
15,66,97,0
15,66,99,10
15,66,101,20
15,66,103,60
15,67,105,0
15,67,107,10
15,67,109,20
15,67,111,20
15,69,113,0
15,69,115,10
15,69,117,20
15,64,89,15560
15,64,91,20
15,64,93,20
15,64,95,20
15,66,97,0
15,66,99,10
15,66,101,20
15,66,103,60
15,67,105,0
15,67,107,20
15,67,109,20
15,67,111,20
15,69,113,0
15,69,115,20
15,69,117,20
15,67,120,39600
15,67,120,20
15,67,120,40
15,69,120,0
15,71,120,0
15,69,120,1080
15,72,120,0
15,67,120,0
15,71,120,0
15,64,127,920
15,64,91,20
15,64,93,20
15,64,95,20
15,66,97,0
15,66,99,10
15,66,101,20
15,66,103,60
15,67,105,0
15,67,107,20
15,67,109,20
15,67,111,20
15,69,113,0
15,69,115,20
15,69,117,20
16,67,127,7920
16,62,127,600
16,60,127,720
16,67,127,720
16,67,127,720
16,62,127,720
16,60,127,720
16,67,127,720
16,57,127,720
16,59,127,720
16,60,127,720
16,62,127,720
16,67,127,8520
16,62,127,600
16,60,127,720
16,67,127,720
16,67,127,720
16,62,127,720
16,60,127,720
16,67,127,720
16,57,127,720
16,59,127,720
16,60,127,720
16,62,127,720
16,67,127,37320
16,62,127,600
16,60,127,720
16,67,127,720
16,67,127,720
16,62,127,720
16,60,127,720
16,67,127,720
16,57,127,720
16,59,127,720
16,60,127,720
16,62,127,720
17,67,127,8400
17,67,127,40
17,55,127,0
17,62,127,720
17,62,127,40
17,50,127,0
17,60,127,720
17,60,127,40
17,48,127,0
17,67,127,720
17,67,127,40
17,55,127,0
17,67,127,720
17,67,127,40
17,55,127,0
17,62,127,720
17,62,127,40
17,50,127,0
