track,note,velocity,time
10,62,64,0
10,72,68,0
10,62,72,0
10,71,76,0
10,69,80,0
10,62,84,0
10,72,88,0
10,62,92,0
10,71,96,0
10,69,100,0
10,62,100,0
10,72,100,0
10,62,100,0
10,71,100,0
10,69,100,0
10,62,100,0
10,72,100,0
10,62,100,0
10,71,100,0
10,69,100,0
10,62,100,0
10,72,100,0
10,62,100,0
10,71,100,0
10,69,100,0
10,62,100,0
10,72,100,0
10,62,100,0
10,71,100,0
10,69,100,0
10,62,100,0
10,72,100,0
10,62,100,0
10,71,100,0
10,69,100,0
10,62,100,0
10,72,100,0
10,62,100,0
10,71,100,0
10,69,100,0
10,69,127,14640
10,71,127,0
10,72,127,0
10,71,127,720
10,66,127,720
10,67,127,0
10,69,127,0
10,74,127,0
10,69,127,720
10,71,127,0
10,72,127,0
10,71,127,720
10,66,127,720
10,67,127,0
10,69,127,0
10,62,127,0
10,69,127,720
10,71,127,0
10,72,127,0
10,71,127,720
10,66,127,720
10,67,127,0
10,69,127,0
10,74,127,0
10,69,127,720
10,71,127,0
10,72,127,0
10,71,127,720
10,66,127,720
10,67,127,0
10,69,127,0
10,62,127,0
10,69,127,31440
10,71,127,0
10,72,127,0
10,71,127,720
10,66,127,720
10,67,127,0
10,69,127,0
10,74,127,0
10,69,127,720
10,71,127,0
10,72,127,0
10,71,127,720
10,66,127,720
10,67,127,0
10,69,127,0
10,62,127,0
10,69,127,720
10,71,127,0
10,72,127,0
10,71,127,720
10,66,127,720
10,67,127,0
10,69,127,0
10,74,127,0
10,69,127,720
10,71,127,0
10,72,127,0
10,71,127,720
10,66,127,720
10,67,127,0
10,69,127,0
10,62,127,0
10,69,127,77520
10,71,127,0
10,72,127,0
10,71,127,720
10,66,127,720
10,67,127,0
10,69,127,0
10,74,127,0
10,69,127,720
10,71,127,0
10,72,127,0
10,71,127,720
10,66,127,720
10,67,127,0
10,69,127,0
10,62,127,0
10,69,127,720
10,71,127,0
10,72,127,0
10,71,127,720
10,66,127,720
10,67,127,0
10,69,127,0
10,74,127,0
10,69,127,720
10,71,127,0
10,72,127,0
10,71,127,720
10,66,127,720
10,67,127,0
10,69,127,0
10,62,127,0
11,38,127,29520
11,38,127,20
11,38,127,20
11,38,127,20
11,38,127,2880
11,38,127,20
11,38,127,20
11,38,127,20
11,38,127,2880
11,38,127,20
11,38,127,20
11,38,127,20
11,38,127,2880
11,38,127,20
11,38,127,20
11,38,127,20
11,38,127,37440
11,38,127,20
11,38,127,20
11,38,127,20
11,38,127,2880
11,38,127,20
11,38,127,20
11,38,127,20
11,38,127,2880
11,38,127,20
11,38,127,20
11,38,127,20
11,38,127,37440
11,38,127,20
11,38,127,20
11,38,127,20
11,38,127,2880
11,38,127,20
11,38,127,20
11,38,127,20
11,38,127,2880
11,38,127,20
11,38,127,20
11,38,127,20
11,38,127,33600
11,38,127,20
11,38,127,20
11,38,127,20
11,38,127,2880
11,38,127,20
11,38,127,20
11,38,127,20
11,38,127,2880
11,38,127,20
11,38,127,20
11,38,127,20
11,38,127,2880
11,38,127,20
11,38,127,20
11,38,127,20
11,38,127,37440
11,38,127,20
11,38,127,20
11,38,127,20
11,38,127,2880
11,38,127,20
11,38,127,20
11,38,127,20
11,38,127,2880
11,38,127,20
11,38,127,20
11,38,127,20
11,38,127,2880
11,38,127,20
11,38,127,20
11,38,127,20
11,38,127,2880
11,38,127,20
11,38,127,20
11,38,127,20
11,38,127,2880
11,38,127,20
11,38,127,20
11,38,127,20
11,38,127,2880
11,38,127,20
11,38,127,20
11,38,127,20
11,38,127,2880
11,38,127,20
11,38,127,20
11,38,127,20
11,38,127,2880
11,38,127,20
11,38,127,20
11,38,127,20
11,38,127,2880
11,38,127,20
11,38,127,20
11,38,127,20
11,38,117,2880
11,38,116,20
11,38,115,20
11,38,114,20
11,38,101,2880
11,38,100,20
11,38,99,20
11,38,98,20
11,38,85,2880
11,38,84,20
11,38,83,20
11,38,82,20
11,38,69,2880
11,38,68,20
11,38,67,20
11,38,66,20
11,38,53,2880
11,38,52,20
11,38,51,20
11,38,50,20
11,38,37,2880
11,38,36,20
11,38,35,20
11,38,34,20
11,38,21,2880
11,38,20,20
11,38,19,20
11,38,18,20
11,38,5,2880
11,38,4,20
11,38,3,20
11,38,2,20
12,50,127,30240
12,50,127,120
12,50,127,360
12,50,127,120
12,50,127,120
12,50,127,360
12,50,127,120
12,50,127,120
12,50,127,360
12,50,127,120
12,50,127,120
12,50,127,120
12,50,127,120
12,50,127,120
12,50,127,120
12,50,127,360
12,50,127,120
12,50,127,120
12,50,127,360
12,50,127,120
12,50,127,120
12,50,127,360
12,50,127,120
12,50,127,120
12,50,127,120
12,50,127,120
12,48,127,120
12,48,127,120
12,48,127,360
12,43,127,120
12,43,127,120
12,43,127,360
12,50,127,120
12,50,127,120
12,50,127,360
12,50,127,120
12,50,127,120
12,50,127,120
12,50,127,120
12,48,127,120
12,48,127,120
12,48,127,360
12,43,127,120
12,43,127,120
12,43,127,360
12,50,127,120
12,50,127,120
12,50,127,360
12,50,127,120
12,50,127,120
12,50,127,120
12,50,127,120
12,48,127,120
12,48,127,120
12,48,127,360
12,43,127,120
12,43,127,120
12,43,127,360
12,50,127,120
12,50,127,120
12,50,127,360
12,50,127,120
12,50,127,120
12,50,127,120
12,50,127,120
12,48,127,120
12,48,127,120
12,48,127,360
12,43,127,120
12,43,127,120
12,43,127,360
12,50,127,120
12,50,127,120
12,50,127,360
12,50,127,120
12,50,127,120
12,50,127,120
12,50,127,120
12,48,127,120
12,48,127,120
12,48,127,360
12,43,127,120
12,43,127,120
12,43,127,360
12,50,127,120
12,50,127,120
12,50,127,360
12,50,127,120
12,50,127,120
12,50,127,120
12,50,127,120
12,48,127,120
12,48,127,120
12,48,127,360
12,43,127,120
12,43,127,120
12,43,127,360
12,50,127,120
12,50,127,120
12,50,127,360
12,50,127,120
12,50,127,120
12,50,127,120
12,50,127,120
12,45,127,120
12,45,127,120
12,48,127,120
12,45,127,120
12,52,127,120
12,45,127,120
12,48,127,120
12,45,127,120
12,48,127,120
12,48,127,120
12,52,127,120
12,48,127,120
12,55,127,120
12,48,127,120
12,52,127,120
12,43,127,120
12,43,127,120
12,43,127,120
12,47,127,120
12,43,127,120
12,50,127,120
12,43,127,120
12,47,127,120
12,43,127,120
12,43,127,120
12,43,127,120
12,47,127,120
12,43,127,120
12,50,127,120
12,43,127,120
12,47,127,120
12,43,127,120
12,45,127,120
12,45,127,120
12,48,127,120
12,45,127,120
12,52,127,120
12,45,127,120
12,48,127,120
12,45,127,120
12,48,127,120
12,48,127,120
12,52,127,120
12,48,127,120
12,55,127,120
12,48,127,120
12,52,127,120
12,43,127,120
12,43,127,120
12,43,127,120
12,47,127,120
12,43,127,120
12,50,127,120
12,43,127,120
12,47,127,120
12,43,127,120
12,43,127,120
12,43,127,120
12,47,127,120
12,43,127,120
12,50,127,120
12,43,127,120
12,47,127,120
12,43,127,120
12,50,127,120
12,50,127,120
12,50,127,360
12,50,127,120
12,50,127,120
12,50,127,360
12,50,127,120
12,50,127,120
12,50,127,360
12,50,127,120
12,50,127,120
12,50,127,120
12,50,127,120
12,50,127,120
12,50,127,120
12,50,127,360
12,50,127,120
12,50,127,120
12,50,127,360
12,50,127,120
12,50,127,120
12,50,127,360
12,50,127,120
12,50,127,120
12,50,127,120
12,50,127,120
12,48,127,120
12,48,127,120
12,48,127,360
12,43,127,120
12,43,127,120
12,43,127,360
12,50,127,120
12,50,127,120
12,50,127,360
12,50,127,120
12,50,127,120
12,50,127,120
12,50,127,120
12,48,127,120
12,48,127,120
12,48,127,360
12,43,127,120
12,43,127,120
12,43,127,360
12,50,127,120
12,50,127,120
12,50,127,360
12,50,127,120
12,50,127,120
12,50,127,120
12,50,127,120
12,48,127,120
12,48,127,120
12,48,127,360
12,43,127,120
12,43,127,120
12,43,127,360
12,50,127,120
12,50,127,120
12,50,127,360
12,50,127,120
12,50,127,120
12,50,127,120
12,50,127,120
12,48,127,120
12,48,127,120
12,48,127,360
12,43,127,120
12,43,127,120
12,43,127,360
12,50,127,120
12,50,127,120
12,50,127,360
12,50,127,120
12,50,127,120
12,50,127,120
12,50,127,120
12,48,127,120
12,48,127,120
12,48,127,360
12,43,127,120
12,43,127,120
12,43,127,360
12,50,127,120
12,50,127,120
12,50,127,360
12,50,127,120
12,50,127,120
12,50,127,120
12,50,127,120
12,48,127,120
12,48,127,120
12,48,127,360
12,43,127,120
12,43,127,120
12,43,127,360
12,50,127,120
12,50,127,120
12,50,127,360
12,50,127,120
12,50,127,120
12,50,127,120
12,50,127,120
12,45,127,120
12,45,127,120
12,48,127,120
12,45,127,120
12,52,127,120
12,45,127,120
12,48,127,120
12,45,127,120
12,48,127,120
12,48,127,120
12,52,127,120
12,48,127,120
12,55,127,120
12,48,127,120
12,52,127,120
12,43,127,120
12,43,127,120
12,43,127,120
12,47,127,120
12,43,127,120
12,50,127,120
12,43,127,120
12,47,127,120
12,43,127,120
12,43,127,120
12,43,127,120
12,47,127,120
12,43,127,120
12,50,127,120
12,43,127,120
12,47,127,120
12,43,127,120
12,45,127,120
12,45,127,120
12,48,127,120
12,45,127,120
12,52,127,120
12,45,127,120
12,48,127,120
12,45,127,120
12,48,127,120
12,48,127,120
12,52,127,120
12,48,127,120
12,55,127,120
12,48,127,120
12,52,127,120
12,43,127,120
12,43,127,120
12,43,127,120
12,47,127,120
12,43,127,120
12,50,127,120
12,43,127,120
12,47,127,120
12,43,127,120
12,43,127,120
12,43,127,120
12,47,127,120
12,43,127,120
12,50,127,120
12,43,127,120
12,47,127,120
12,43,127,120
12,50,127,120
12,50,127,120
12,50,127,360
12,50,127,120
12,50,127,120
12,50,127,360
12,50,127,120
12,50,127,120
12,50,127,360
12,50,127,120
12,50,127,120
12,50,127,120
12,50,127,120
12,50,127,120
12,50,127,120
12,50,127,360
12,50,127,120
12,50,127,120
12,50,127,360
12,50,127,120
12,50,127,120
12,50,127,360
12,50,127,120
12,50,127,120
12,50,127,120
12,50,127,120
12,48,127,120
12,48,127,120
12,48,127,360
12,43,127,120
12,43,127,120
12,43,127,360
12,50,127,120
12,50,127,120
12,50,127,360
12,50,127,120
12,50,127,120
12,50,127,120
12,50,127,120
12,48,127,120
12,48,127,120
12,48,127,360
12,43,127,120
12,43,127,120
12,43,127,360
12,50,127,120
12,50,127,120
12,50,127,360
12,50,127,120
12,50,127,120
12,50,127,120
12,50,127,120
12,50,127,30840
12,50,127,120
12,50,127,360
12,50,127,120
12,50,127,120
12,50,127,360
12,50,127,120
12,50,127,120
12,50,127,360
12,50,127,120
12,50,127,120
12,50,127,120
12,50,127,120
12,50,127,120
12,50,127,120
12,50,127,360
12,50,127,120
12,50,127,120
12,50,127,360
12,50,127,120
12,50,127,120
12,50,127,360
12,50,127,120
12,50,127,120
12,50,127,120
12,50,127,120
12,48,127,120
12,48,127,120
12,48,127,360
12,43,127,120
12,43,127,120
12,43,127,360
12,50,127,120
12,50,127,120
12,50,127,360
12,50,127,120
12,50,127,120
12,50,127,120
12,50,127,120
12,48,127,120
12,48,127,120
12,48,127,360
12,43,127,120
12,43,127,120
12,43,127,360
12,50,127,120
12,50,127,120
12,50,127,360
12,50,127,120
12,50,127,120
12,50,127,120
12,50,127,120
12,48,127,120
12,48,127,120
12,48,127,360
12,43,127,120
12,43,127,120
12,43,127,360
12,50,127,120
12,50,127,120
12,50,127,360
12,50,127,120
12,50,127,120
12,50,127,120
12,50,127,120
12,48,127,120
12,48,127,120
12,48,127,360
12,43,127,120
12,43,127,120
12,43,127,360
12,50,127,120
12,50,127,120
12,50,127,360
12,50,127,120
12,50,127,120
12,50,127,120
12,50,127,120
12,48,127,120
12,48,127,120
12,48,127,360
12,43,127,120
12,43,127,120
12,43,127,360
12,50,127,120
12,50,127,120
12,50,127,360
12,50,127,120
12,50,127,120
12,50,127,120
12,50,127,120
12,48,127,120
12,48,127,120
12,48,127,360
12,43,127,120
12,43,127,120
12,43,127,360
12,50,127,120
12,50,127,120
12,50,127,360
12,50,127,120
12,50,127,120
12,50,127,120
12,50,127,120
12,45,127,120
12,45,127,120
12,48,127,120
12,45,127,120
12,52,127,120
12,45,127,120
12,48,127,120
12,45,127,120
12,48,127,120
12,48,127,120
12,52,127,120
12,48,127,120
12,55,127,120
12,48,127,120
12,52,127,120
12,43,127,120
12,43,127,120
12,43,127,120
12,47,127,120
12,43,127,120
12,50,127,120
12,43,127,120
12,47,127,120
12,43,127,120
12,43,127,120
12,43,127,120
12,47,127,120
12,43,127,120
12,50,127,120
12,43,127,120
12,47,127,120
12,43,127,120
12,45,127,120
12,45,127,120
12,48,127,120
12,45,127,120
12,52,127,120
12,45,127,120
12,48,127,120
12,45,127,120
12,48,127,120
12,48,127,120
12,52,127,120
12,48,127,120
12,55,127,120
12,48,127,120
12,52,127,120
12,43,127,120
12,43,127,120
12,43,127,120
12,47,127,120
12,43,127,120
12,50,127,120
12,43,127,120
12,47,127,120
12,43,127,120
12,43,127,120
12,43,127,120
12,47,127,120
12,43,127,120
12,50,127,120
12,43,127,120
12,47,127,120
12,43,127,120
12,50,127,120
12,50,127,120
12,50,127,360
12,50,127,120
12,50,127,120
12,50,127,360
12,50,127,120
12,50,127,120
12,50,127,360
12,50,127,120
12,50,127,120
12,50,127,120
12,50,127,120
12,50,127,120
12,50,127,120
12,50,127,360
12,50,127,120
12,50,127,120
12,50,127,360
12,50,127,120
12,50,127,120
12,50,127,360
12,50,127,120
12,50,127,120
12,50,127,120
12,50,127,120
12,50,127,120
12,50,127,120
12,50,127,360
12,50,127,120
12,50,127,120
12,50,127,360
12,50,127,120
12,50,127,120
12,50,127,360
12,50,127,120
12,50,127,120
12,50,127,120
12,50,127,120
12,50,127,120
12,50,127,120
12,50,127,360
12,50,127,120
12,50,127,120
12,50,127,360
12,50,127,120
12,50,127,120
12,50,127,360
12,50,127,120
12,50,127,120
12,50,127,120
12,50,127,120
12,50,127,120
12,50,127,120
12,50,127,360
12,50,127,120
12,50,127,120
12,50,127,360
12,50,127,120
12,50,127,120
12,50,127,360
12,50,127,120
12,50,127,120
12,50,127,120
12,50,127,120
12,50,127,120
12,50,127,120
12,50,127,360
12,50,127,120
12,50,127,120
12,50,127,360
12,50,127,120
12,50,127,120
12,50,127,360
12,50,127,120
12,50,127,120
12,50,127,120
12,50,127,120
12,50,127,120
12,50,127,120
12,50,127,360
12,50,127,120
12,50,127,120
12,50,127,360
12,50,127,120
12,50,127,120
12,50,127,360
12,50,127,120
12,50,127,120
12,50,127,120
12,50,127,120
12,50,127,120
12,50,127,120
12,50,127,360
12,50,127,120
12,50,127,120
12,50,127,360
12,50,127,120
12,50,127,120
12,50,127,360
12,50,127,120
12,50,127,120
12,50,127,120
12,50,127,120
12,50,127,120
12,50,127,120
12,50,127,360
12,50,127,120
12,50,127,120
12,50,127,360
12,50,127,120
12,50,127,120
12,50,127,360
12,50,127,120
12,50,127,120
12,50,127,120
12,50,127,120
12,50,127,120
12,50,127,120
12,50,127,360
12,50,127,120
12,50,127,120
12,50,127,360
12,50,127,120
12,50,127,120
12,50,127,360
12,50,127,120
12,50,127,120
12,50,127,120
12,50,127,120
12,50,127,120
12,50,127,120
12,50,127,360
12,50,126,120
12,50,125,120
12,50,123,360
12,50,122,120
12,50,121,120
12,50,119,360
12,50,118,120
12,50,117,120
12,50,116,120
12,50,115,120
12,50,114,120
12,50,113,120
12,50,111,360
12,50,110,120
12,50,109,120
12,50,107,360
12,50,106,120
12,50,105,120
12,50,103,360
12,50,102,120
12,50,101,120
12,50,100,120
12,50,99,120
12,50,98,120
12,50,97,120
12,50,95,360
12,50,94,120
12,50,93,120
12,50,91,360
12,50,90,120
12,50,89,120
12,50,87,360
12,50,86,120
12,50,85,120
12,50,84,120
12,50,83,120
12,50,82,120
12,50,81,120
12,50,79,360
12,50,78,120
12,50,77,120
12,50,75,360
12,50,74,120
12,50,73,120
12,50,71,360
12,50,70,120
12,50,69,120
