track,note,velocity,time
11,31,127,0
11,31,127,120
11,31,127,1560
11,31,127,120
11,31,127,120
11,31,127,1560
11,31,127,120
11,31,127,120
11,31,127,1560
11,31,127,120
11,31,127,120
11,31,127,1560
11,31,127,120
11,31,127,120
11,31,127,1560
11,35,127,120
11,35,127,120
11,35,127,1560
11,31,127,120
11,31,127,120
11,31,127,1560
11,35,127,120
11,35,127,120
11,35,127,1560
11,31,127,120
11,31,127,120
11,31,127,1560
11,35,127,120
11,35,127,120
11,35,127,1560
11,31,127,120
11,31,127,120
11,31,127,1560
11,35,127,120
11,35,127,120
11,35,127,1560
11,31,127,120
11,31,127,120
11,31,127,1560
11,35,127,120
11,35,127,120
11,35,127,1560
11,31,127,120
11,31,127,120
11,31,127,1560
11,35,127,120
11,35,127,120
11,35,127,1560
11,31,127,120
11,31,127,120
11,31,127,1560
11,35,127,120
11,35,127,120
11,35,127,1560
11,31,127,120
11,31,127,120
11,31,127,1560
11,35,127,120
11,35,127,120
11,35,127,1560
11,36,127,120
11,36,127,120
11,36,127,1560
11,38,127,120
11,38,127,120
11,38,127,1560
11,29,127,120
11,29,127,120
11,29,127,1560
11,33,127,120
11,33,127,120
11,33,127,1560
11,31,127,120
11,31,127,120
11,31,127,1560
11,35,127,120
11,35,127,120
11,35,127,1560
11,31,127,120
11,31,127,120
11,31,127,1560
11,35,127,120
11,35,127,120
11,35,127,1560
11,31,127,120
11,31,127,120
11,31,127,1560
11,35,127,120
11,35,127,120
11,35,127,1560
11,31,127,120
11,31,127,120
11,31,127,1560
11,35,127,120
11,35,127,120
11,35,127,1560
11,31,127,120
11,31,127,120
11,31,127,1560
11,35,127,120
11,35,127,120
11,35,127,1560
11,31,127,120
11,31,127,120
11,31,127,1560
11,35,127,120
11,35,127,120
11,35,127,1560
11,31,127,120
11,31,127,120
11,31,127,1560
11,35,127,120
11,35,127,120
11,35,127,1560
11,31,127,120
11,31,127,120
11,31,127,1560
11,35,127,120
11,35,127,120
11,35,127,1560
11,31,127,120
11,31,127,120
11,31,127,1560
11,35,127,120
11,35,127,120
11,35,127,1560
11,31,127,120
11,31,127,120
11,31,127,1560
11,35,127,120
11,35,127,120
11,35,127,1560
11,36,127,120
11,36,127,120
11,36,127,1560
11,38,127,120
11,38,127,120
11,38,127,1560
11,29,127,120
11,29,127,120
11,29,127,1560
11,33,127,120
11,33,127,120
11,33,127,1560
11,31,127,120
11,31,127,120
11,31,127,1560
11,31,127,120
11,31,127,120
11,31,127,1560
11,31,127,120
11,31,127,120
11,31,127,1560
11,31,127,120
11,31,127,120
11,31,127,1560
11,31,127,120
11,31,127,120
11,31,127,1560
11,31,127,120
11,31,127,120
11,31,127,1560
11,31,127,120
11,31,127,120
11,31,127,1560
11,31,127,120
11,31,127,120
12,31,127,0
12,31,127,120
12,31,127,1560
12,31,127,120
12,31,127,120
12,31,127,1560
12,31,127,120
12,31,127,120
12,31,127,1560
12,31,127,120
12,31,127,120
12,31,127,1560
12,31,127,120
12,31,127,120
12,31,127,1560
12,35,127,120
12,35,127,120
12,35,127,1560
12,31,127,120
12,31,127,120
12,31,127,1560
12,35,127,120
12,35,127,120
12,35,127,1560
12,31,127,120
12,31,127,120
12,31,127,1560
12,35,127,120
12,35,127,120
12,35,127,1560
12,31,127,120
12,31,127,120
12,31,127,1560
12,35,127,120
12,35,127,120
12,35,127,1560
12,31,127,120
12,31,127,120
12,31,127,1560
12,35,127,120
12,35,127,120
12,35,127,1560
12,31,127,120
12,31,127,120
12,31,127,1560
12,35,127,120
12,35,127,120
12,35,127,1560
12,31,127,120
12,31,127,120
12,31,127,1560
12,35,127,120
12,35,127,120
12,35,127,1560
12,31,127,120
12,31,127,120
12,31,127,1560
12,35,127,120
12,35,127,120
12,35,127,1560
12,36,127,120
12,36,127,120
12,36,127,1560
12,38,127,120
12,38,127,120
12,38,127,1560
12,29,127,120
12,29,127,120
12,29,127,1560
12,33,127,120
12,33,127,120
12,33,127,1560
12,31,127,120
12,31,127,120
12,31,127,1560
12,35,127,120
12,35,127,120
12,35,127,1560
12,31,127,120
12,31,127,120
12,31,127,1560
12,35,127,120
12,35,127,120
12,35,127,1560
12,31,127,120
12,31,127,120
12,31,127,1560
12,35,127,120
12,35,127,120
12,35,127,1560
12,31,127,120
12,31,127,120
12,31,127,1560
12,35,127,120
12,35,127,120
12,35,127,1560
12,31,127,120
12,31,127,120
12,31,127,1560
12,35,127,120
12,35,127,120
12,35,127,1560
12,31,127,120
12,31,127,120
12,31,127,1560
12,35,127,120
12,35,127,120
12,35,127,1560
12,31,127,120
12,31,127,120
12,31,127,1560
12,35,127,120
12,35,127,120
12,35,127,1560
12,31,127,120
12,31,127,120
12,31,127,1560
12,35,127,120
12,35,127,120
12,35,127,1560
12,31,127,120
12,31,127,120
12,31,127,1560
12,35,127,120
12,35,127,120
12,35,127,1560
12,31,127,120
12,31,127,120
12,31,127,1560
12,35,127,120
12,35,127,120
12,35,127,1560
12,36,127,120
12,36,127,120
12,36,127,1560
12,38,127,120
12,38,127,120
12,38,127,1560
12,29,127,120
12,29,127,120
12,29,127,1560
12,33,127,120
12,33,127,120
12,33,127,1560
12,31,127,120
12,31,127,120
12,31,127,1560
12,31,127,120
12,31,127,120
12,31,127,1560
12,31,127,120
12,31,127,120
12,31,127,1560
12,31,127,120
12,31,127,120
12,31,127,1560
12,31,127,120
12,31,127,120
12,31,127,1560
12,31,127,120
12,31,127,120
12,31,127,1560
12,31,127,120
12,31,127,120
12,31,127,1560
12,31,127,120
12,31,127,120
13,79,127,0
13,74,127,140
13,79,127,140
13,76,127,140
13,79,127,380
13,74,127,140
13,79,127,140
13,86,127,140
13,79,127,140
13,88,127,140
13,86,127,140
13,79,127,620
13,76,127,140
13,79,127,140
13,74,127,140
13,79,127,140
13,76,127,140
13,79,127,380
13,74,127,140
13,79,127,140
13,86,127,140
13,79,127,140
13,88,127,140
13,86,127,140
13,79,127,620
13,76,127,140
13,79,127,140
13,74,127,140
13,79,127,140
13,76,127,140
13,79,127,380
13,74,127,140
13,79,127,140
13,86,127,140
13,79,127,140
13,88,127,140
13,86,127,140
13,79,127,620
13,76,127,140
13,79,127,140
13,74,127,140
13,79,127,140
13,76,127,140
13,79,127,380
13,74,127,140
13,79,127,140
13,86,127,140
13,79,127,140
13,88,127,140
13,86,127,140
13,79,127,620
13,76,127,140
13,79,127,140
13,74,127,140
13,79,127,140
13,76,127,140
13,79,127,380
13,74,127,140
13,79,127,140
13,86,127,140
13,79,127,140
13,88,127,140
13,86,127,140
13,79,127,620
13,76,127,140
13,79,127,140
13,74,127,140
13,79,127,140
13,76,127,140
13,79,127,380
13,74,127,140
13,79,127,140
13,86,127,140
13,79,127,140
13,88,127,140
13,86,127,140
13,79,127,620
13,76,127,140
13,79,127,140
13,74,127,140
13,79,127,140
13,76,127,140
13,79,127,380
13,74,127,140
13,79,127,140
13,86,127,140
13,79,127,140
13,88,127,140
13,86,127,140
13,79,127,620
13,76,127,140
13,79,127,140
13,74,127,140
13,79,127,140
13,76,127,140
13,79,127,380
13,74,127,140
13,79,127,140
13,86,127,140
13,79,127,140
13,88,127,140
13,86,127,140
13,79,127,620
13,76,127,140
13,79,127,140
13,74,127,140
13,79,127,140
13,76,127,140
13,79,127,380
13,74,127,140
13,79,127,140
13,86,127,140
13,79,127,140
13,88,127,140
13,86,127,140
13,79,127,620
13,76,127,140
13,79,127,140
13,74,127,140
13,79,127,140
13,76,127,140
13,79,127,380
13,74,127,140
13,79,127,140
13,86,127,140
13,79,127,140
13,88,127,140
13,86,127,140
13,79,127,620
13,76,127,140
13,79,127,140
13,74,127,140
13,79,127,140
13,76,127,140
13,79,127,380
13,74,127,140
13,79,127,140
13,86,127,140
13,79,127,140
13,88,127,140
13,86,127,140
13,79,127,620
13,76,127,140
13,79,127,140
13,74,127,140
13,79,127,140
13,76,127,140
13,79,127,380
13,74,127,140
13,79,127,140
13,86,127,140
13,79,127,140
13,88,127,140
13,86,127,140
13,79,127,620
13,76,127,140
13,79,127,140
13,74,127,140
13,79,127,140
13,76,127,140
13,79,127,380
13,74,127,140
13,79,127,140
13,86,127,140
13,79,127,140
13,88,127,140
13,86,127,140
13,79,127,620
13,76,127,140
13,79,127,140
13,74,127,140
13,79,127,140
13,76,127,140
13,79,127,380
13,74,127,140
13,79,127,140
13,86,127,140
13,79,127,140
13,88,127,140
13,86,127,140
13,79,127,620
13,76,127,140
13,79,127,140
13,74,127,140
13,79,127,140
13,76,127,140
13,79,127,380
13,74,127,140
13,79,127,140
13,86,127,140
13,79,127,140
13,88,127,140
13,86,127,140
13,79,127,620
13,76,127,140
13,79,127,140
13,74,127,140
13,79,127,140
13,76,127,140
13,79,127,380
13,74,127,140
13,79,127,140
13,86,127,140
13,79,127,140
13,88,127,140
13,86,127,140
13,79,127,620
13,76,127,140
13,79,127,140
13,74,127,140
13,79,127,140
13,76,127,140
13,79,127,380
13,74,127,140
13,79,127,140
13,86,127,140
13,79,127,140
13,88,127,140
13,86,127,140
13,79,127,620
13,76,127,140
13,79,127,140
13,74,127,140
13,79,127,140
13,76,127,140
13,79,127,380
13,74,127,140
13,79,127,140
13,86,127,140
13,79,127,140
13,88,127,140
13,86,127,140
13,79,127,620
13,76,127,140
13,79,127,140
13,74,127,140
13,79,127,140
13,76,127,140
13,79,127,380
13,74,127,140
13,79,127,140
13,86,127,140
13,79,127,140
13,88,127,140
13,86,127,140
13,79,127,620
13,76,127,140
13,79,127,140
13,74,127,140
13,79,127,140
13,76,127,140
13,79,127,380
13,74,127,140
13,79,127,140
13,86,127,140
13,79,127,140
13,88,127,140
13,86,127,140
13,79,127,620
13,76,127,140
13,79,127,140
13,74,127,140
13,79,127,140
13,76,127,140
13,79,127,380
13,74,127,140
13,79,127,140
13,86,127,140
13,79,127,140
13,88,127,140
13,86,127,140
13,79,127,620
13,76,127,140
13,79,127,140
13,74,127,140
13,79,127,140
13,76,127,140
13,79,127,380
13,74,127,140
13,79,127,140
13,86,127,140
13,79,127,140
13,88,127,140
13,86,127,140
13,79,127,620
13,76,127,140
13,79,127,140
13,74,127,140
13,79,127,140
13,76,127,140
13,79,127,380
13,74,127,140
13,79,127,140
13,86,127,140
13,79,127,140
13,88,127,140
13,86,127,140
13,79,127,620
13,76,127,140
13,79,127,140
13,74,127,140
13,79,127,140
13,76,127,140
13,79,127,380
13,74,127,140
13,79,127,140
13,86,127,140
13,79,127,140
13,88,127,140
13,86,127,140
13,79,127,620
13,76,127,140
13,79,127,140
13,74,127,140
13,79,127,140
13,76,127,140
13,79,127,380
13,74,127,140
13,79,127,140
13,86,127,140
13,79,127,140
13,88,127,140
13,86,127,140
13,79,127,620
13,76,127,140
13,79,127,140
13,74,127,140
13,79,127,140
13,76,127,140
13,79,127,380
13,74,127,140
13,79,127,140
13,86,127,140
13,79,127,140
13,88,127,140
13,86,127,140
13,79,127,620
13,76,127,140
13,79,127,140
13,74,127,140
13,79,127,140
13,76,127,140
13,79,127,380
13,74,127,140
13,79,127,140
13,86,127,140
13,79,127,140
13,88,127,140
13,86,127,140
13,79,127,620
13,76,127,140
13,79,127,140
13,74,127,140
13,79,127,140
13,76,127,140
13,79,127,380
13,74,127,140
13,79,127,140
13,86,127,140
13,79,127,140
13,88,127,140
13,86,127,140
13,79,127,620
13,76,127,140
13,79,127,140
13,74,127,140
13,79,127,140
13,76,127,140
13,79,127,380
13,74,127,140
13,79,127,140
13,86,127,140
13,79,127,140
13,88,127,140
13,86,127,140
13,79,127,620
13,76,127,140
13,79,127,140
13,74,127,140
13,79,127,140
13,76,127,140
13,79,127,380
13,74,127,140
13,79,127,140
13,86,127,140
13,79,127,140
13,88,127,140
13,86,127,140
13,79,127,620
13,76,127,140
13,79,127,140
13,74,127,140
13,79,127,140
13,76,127,140
13,79,127,380
13,74,127,140
13,79,127,140
13,86,127,140
13,79,127,140
13,88,127,140
13,86,127,140
13,79,127,620
13,76,127,140
13,79,127,140
13,74,127,140
13,79,127,140
13,76,127,140
13,79,127,380
13,74,127,140
13,79,127,140
13,86,127,140
13,79,127,140
13,88,127,140
13,86,127,140
13,79,127,620
13,76,127,140
13,79,127,140
13,74,127,140
13,79,127,140
13,76,127,140
13,79,127,380
13,74,127,140
13,79,127,140
13,86,127,140
13,79,127,140
13,88,127,140
13,86,127,140
13,79,127,620
13,76,127,140
13,79,127,140
13,74,127,140
13,79,127,140
13,76,127,140
13,79,127,380
13,74,127,140
13,79,127,140
13,86,127,140
13,79,127,140
13,88,127,140
13,86,127,140
13,79,127,620
13,76,127,140
13,79,127,140
13,74,127,140
13,79,127,140
13,76,127,140
13,79,127,380
13,74,127,140
13,79,127,140
13,86,127,140
13,79,127,140
13,88,127,140
13,86,127,140
13,79,127,620
13,76,127,140
13,79,127,140
13,74,127,140
13,79,127,140
13,76,127,140
13,79,127,380
13,74,127,140
13,79,127,140
13,86,127,140
13,79,127,140
13,88,127,140
13,86,127,140
13,79,127,620
13,76,127,140
13,79,127,140
13,74,127,140
13,79,127,140
13,76,127,140
13,79,127,380
13,74,127,140
13,79,127,140
13,86,127,140
13,79,127,140
13,88,127,140
13,86,127,140
13,79,127,620
13,76,127,140
13,79,127,140
13,74,127,140
13,79,127,140
13,76,127,140
13,79,127,380
13,74,127,140
13,79,127,140
13,86,127,140
13,79,127,140
13,88,127,140
13,86,127,140
13,79,127,620
13,76,127,140
13,79,127,140
13,74,127,140
13,79,127,140
13,76,127,140
13,79,127,380
13,74,127,140
13,79,127,140
13,86,127,140
13,79,127,140
13,88,127,140
13,86,127,140
13,79,127,620
13,76,127,140
13,79,127,140
13,74,127,140
13,79,127,140
13,76,127,140
13,79,127,380
13,74,127,140
13,79,127,140
13,86,127,140
13,79,127,140
13,88,127,140
13,86,127,140
13,79,127,620
13,76,127,140
13,79,127,140
13,74,127,140
13,79,127,140
13,76,127,140
13,79,127,380
13,74,127,140
13,79,127,140
13,86,127,140
13,79,127,140
13,88,127,140
13,86,127,140
13,79,127,620
13,76,127,140
13,79,127,140
13,74,127,140
13,79,127,140
13,76,127,140
13,79,127,380
13,74,127,140
13,79,127,140
13,86,127,140
13,79,127,140
13,88,127,140
13,86,127,140
13,79,127,620
13,76,127,140
13,79,127,140
13,74,127,140
13,79,127,140
13,76,127,140
13,79,127,380
13,74,127,140
13,79,127,140
13,86,127,140
13,79,127,140
13,88,127,140
13,86,127,140
13,79,127,620
13,76,127,140
13,79,127,140
13,74,127,140
13,79,127,140
13,76,127,140
13,79,127,380
13,74,127,140
13,79,127,140
13,86,127,140
13,79,127,140
13,88,127,140
13,86,127,140
13,79,127,620
13,76,127,140
13,79,127,140
13,74,127,140
13,79,127,140
13,76,127,140
13,79,127,380
13,74,127,140
13,79,127,140
13,86,127,140
13,79,127,140
13,88,127,140
13,86,127,140
13,79,127,620
13,76,127,140
13,79,127,140
13,74,127,140
13,79,127,140
13,76,127,140
13,79,127,380
13,74,127,140
13,79,127,140
13,86,127,140
13,79,127,140
13,88,127,140
13,86,127,140
13,79,127,620
13,76,127,140
13,79,127,140
13,74,127,140
13,79,127,140
13,76,127,140
13,79,127,380
13,74,127,140
13,79,127,140
13,86,127,140
13,79,127,140
13,88,127,140
13,86,127,140
13,79,127,620
13,76,127,140
13,79,127,140
13,74,127,140
13,79,127,140
13,76,127,140
13,79,127,380
13,74,127,140
13,79,127,140
13,86,127,140
13,79,127,140
13,88,127,140
13,86,127,140
14,71,127,16320
14,71,127,20
14,72,127,0
14,71,127,720
14,69,127,0
14,67,127,0
14,71,127,0
14,71,127,20
14,71,127,20
14,71,127,20
14,71,127,20
14,67,127,720
14,71,127,0
14,67,127,0
14,71,127,5760
14,71,127,20
14,72,127,0
14,71,127,720
14,69,127,0
14,67,127,0
14,71,127,0
14,71,127,20
14,71,127,20
14,71,127,20
14,72,127,0
14,71,127,720
14,69,127,0
14,67,127,0
14,71,127,0
14,71,127,120
14,67,127,0
14,62,127,5760
14,62,127,20
14,67,127,0
14,67,127,20
14,62,127,0
14,62,127,20
14,71,127,0
14,71,127,20
14,67,127,0
14,67,127,20
14,71,127,0
14,71,127,20
14,67,127,0
