track,note,velocity,time
1,40,81,0
1,52,81,0
1,40,81,256
1,52,81,0
1,40,81,800
1,52,81,0
1,40,81,256
1,52,81,0
1,40,81,224
1,52,81,0
1,48,81,416
1,36,81,0
1,36,81,292
1,48,81,0
1,45,81,800
1,45,81,256
1,43,81,224
1,50,81,64
1,40,81,32
1,52,81,0
1,40,81,256
1,52,81,0
1,40,81,800
1,52,81,0
1,40,81,256
1,52,81,0
1,40,81,224
1,52,81,0
1,36,81,416
1,48,81,0
1,36,81,256
1,48,81,0
1,33,81,800
1,45,81,0
1,45,81,256
1,33,81,0
1,40,81,800
1,40,81,196
1,40,81,388
1,40,81,4
1,40,81,196
1,40,81,388
1,36,81,4
1,36,81,196
1,36,81,388
1,38,81,4
1,38,81,196
1,35,81,388
1,40,81,4
1,40,81,196
1,40,81,388
1,40,81,4
1,40,81,196
1,40,81,388
1,36,81,4
1,36,81,196
1,36,81,388
1,38,81,4
1,38,81,196
1,35,81,388
1,40,81,4
1,40,81,196
1,40,81,388
1,40,81,4
1,40,81,196
1,40,81,4
1,36,81,4
1,36,81,196
1,36,81,388
1,38,81,4
1,38,81,196
1,35,81,388
1,40,81,4
1,40,81,196
1,40,81,388
1,38,81,4
1,38,81,196
1,38,81,388
1,40,81,4
1,40,81,196
1,40,81,388
1,36,81,4
1,38,81,196
1,38,81,196
1,35,81,4
1,40,81,4
1,35,81,4
1,38,81,4
1,40,81,4
1,33,81,388
1,38,81,196
1,38,81,388
1,40,81,4
1,35,81,4
1,38,81,4
1,40,81,4
1,33,81,388
1,38,81,196
1,38,81,196
1,35,81,4
1,40,81,4
1,35,81,4
1,38,81,4
1,40,81,4
1,33,81,388
1,38,81,196
1,38,81,388
1,40,81,4
1,40,81,196
1,40,81,388
1,33,81,4
1,38,81,196
1,38,81,388
1,43,81,4
1,43,81,196
1,43,81,388
1,36,81,4
1,38,81,4
1,38,81,4
1,52,81,4
1,40,81,0
1,52,81,256
1,40,81,0
1,40,81,800
1,52,81,0
1,40,81,256
1,52,81,0
1,52,81,224
1,40,81,0
1,48,81,416
1,36,81,0
1,48,81,256
1,36,81,0
1,33,81,800
1,45,81,0
1,33,81,256
1,45,81,0
1,40,81,800
1,40,81,196
1,40,81,388
1,40,81,4
1,40,81,196
1,40,81,388
1,36,81,4
1,36,81,196
1,36,81,388
1,38,81,4
1,38,81,196
1,35,81,388
1,40,81,4
1,40,81,196
1,40,81,388
1,40,81,4
1,40,81,196
1,40,81,388
1,36,81,4
1,36,81,196
1,36,81,388
1,38,81,4
1,38,81,196
1,35,81,388
1,40,81,4
1,40,81,196
1,40,81,388
1,40,81,4
1,40,81,196
1,40,81,388
1,36,81,4
1,36,81,196
1,36,81,388
1,38,81,4
1,38,81,196
1,35,81,388
1,40,81,4
1,40,81,196
1,40,81,388
1,38,81,4
1,38,81,196
1,38,81,388
1,40,81,4
1,40,81,196
1,40,81,388
1,36,81,4
1,38,81,196
1,38,81,196
1,38,81,4
1,40,81,4
1,40,81,196
1,40,81,388
1,40,81,4
1,40,81,196
1,40,81,388
1,36,81,4
1,36,81,196
1,36,81,388
1,33,81,4
1,45,81,196
1,43,81,388
1,40,81,4
1,40,81,196
1,40,81,388
1,40,81,4
1,40,81,196
1,40,81,388
1,36,81,4
1,36,81,196
1,36,81,388
1,33,81,4
1,45,81,196
1,43,81,388
1,40,81,4
1,35,81,4
1,38,81,4
1,40,81,4
1,33,81,388
1,38,81,196
1,38,81,388
1,40,81,4
1,35,81,4
1,38,81,4
1,40,81,4
1,33,81,388
1,38,81,196
1,38,81,196
1,35,81,4
1,40,81,4
1,35,81,4
1,38,81,4
1,40,81,4
1,33,81,388
1,38,81,196
1,38,81,388
1,40,81,4
1,35,81,4
1,38,81,4
1,40,81,4
1,33,81,388
1,38,81,196
1,38,81,388
1,40,81,4
1,35,81,4
1,38,81,4
1,40,81,4
1,33,81,388
1,38,81,196
1,38,81,196
1,35,81,4
1,40,81,4
1,35,81,4
1,38,81,4
1,40,81,4
1,33,81,388
1,38,81,196
1,38,81,388
1,40,81,4
1,35,81,4
1,38,81,4
1,40,81,4
1,33,81,388
1,38,81,196
1,38,81,388
1,40,81,4
1,35,81,4
1,38,81,4
1,40,81,4
1,33,81,388
1,38,81,196
1,38,81,196
1,35,81,4
1,40,81,4
1,35,81,4
1,38,81,4
1,40,81,4
1,33,81,388
1,38,81,196
1,38,81,388
1,40,81,4
1,35,81,4
1,38,81,4
1,40,81,4
1,33,81,388
1,38,81,196
1,38,81,388
1,40,81,4
1,35,81,4
1,38,81,4
1,40,81,4
1,33,81,388
1,38,81,196
1,38,81,196
1,35,81,4
1,40,81,4
1,35,81,4
1,38,81,4
1,40,81,4
1,33,81,388
1,38,81,196
1,38,81,388
2,52,85,0
2,64,85,192
2,67,85,32
2,52,85,32
2,64,85,0
2,69,85,32
2,67,85,4
2,64,85,32
2,52,85,32
2,64,85,192
2,67,85,32
2,52,85,32
2,64,85,0
2,69,85,32
2,52,85,32
2,69,85,0
2,67,85,32
2,64,85,32
2,48,85,32
2,64,85,192
2,67,85,32
2,48,85,32
2,64,85,0
2,69,85,32
2,67,85,4
2,64,85,32
2,45,85,32
2,64,85,192
2,67,85,32
2,45,85,32
2,64,85,0
2,74,85,32
2,74,85,32
2,71,85,32
2,50,85,32
2,67,85,0
2,52,85,32
2,64,85,192
2,67,85,32
2,52,85,32
2,64,85,0
2,69,85,32
2,67,85,4
2,64,85,32
2,52,85,32
2,64,85,192
2,67,85,32
2,52,85,32
2,64,85,0
2,69,85,32
2,52,85,32
2,69,85,0
2,67,85,32
2,64,85,32
2,48,85,32
2,64,85,192
2,67,85,32
2,48,85,32
2,64,85,0
2,69,85,32
2,67,85,4
2,64,85,32
2,45,85,32
2,64,85,192
2,67,85,32
2,45,85,32
2,64,85,0
2,74,85,32
2,64,85,32
2,64,85,32
2,71,85,4
2,67,85,0
2,64,85,0
2,64,85,208
2,64,85,4
2,71,85,4
2,67,85,0
2,64,85,0
2,64,85,400
2,74,85,4
2,67,85,0
2,64,85,0
2,72,85,48
2,67,85,0
2,64,85,0
2,67,85,4
2,64,85,0
2,71,85,0
2,64,85,4
2,64,85,4
2,62,85,4
2,66,85,0
2,74,85,0
2,62,85,4
2,66,85,0
2,72,85,0
2,71,85,4
2,66,85,0
2,62,85,0
2,64,85,4
2,64,85,4
2,71,85,4
2,67,85,0
2,64,85,0
2,64,85,388
2,64,85,4
2,67,85,0
2,71,85,0
2,64,85,196
2,64,85,4
2,64,85,4
2,74,85,4
2,67,85,0
2,64,85,0
2,64,85,4
2,67,85,0
2,74,85,0
2,67,85,4
2,64,85,0
2,72,85,0
2,71,85,4
2,67,85,0
2,64,85,0
2,64,85,4
2,67,85,4
2,62,85,0
2,69,85,4
2,66,85,0
2,62,85,0
2,62,85,4
2,66,85,0
2,71,85,0
2,64,85,4
2,64,85,4
2,64,85,4
2,67,85,4
2,64,85,0
2,59,85,0
2,59,85,4
2,64,85,0
2,67,85,0
2,66,85,4
2,59,85,0
2,59,85,4
2,66,85,0
2,59,85,4
2,64,85,0
2,59,85,4
2,59,85,4
2,67,85,4
2,64,85,0
2,59,85,0
2,66,85,4
2,59,85,0
2,64,85,4
2,59,85,0
2,59,85,8
2,60,85,4
2,64,85,0
2,69,85,0
2,60,85,4
2,64,85,0
2,69,85,0
2,67,85,4
2,64,85,0
2,60,85,0
2,60,85,4
2,64,85,0
2,67,85,0
2,66,85,4
2,60,85,0
2,60,85,4
2,62,85,0
2,62,85,8
2,66,85,0
2,69,85,0
2,62,85,4
2,67,85,0
2,66,85,4
2,62,85,0
2,71,85,4
2,69,85,4
2,71,85,4
2,67,85,0
2,64,85,0
2,64,85,4
2,64,85,4
2,67,85,0
2,71,85,0
2,69,85,4
2,66,85,0
2,62,85,0
2,54,85,4
2,57,85,0
2,62,85,0
2,64,85,4
2,59,85,0
2,55,85,0
2,62,85,4
2,67,85,0
2,74,85,0
2,64,85,4
2,67,85,0
2,72,85,0
2,74,85,4
2,71,85,4
2,66,85,0
2,62,85,0
2,67,85,4
2,64,85,4
2,71,85,4
2,67,85,0
2,64,85,0
2,64,85,4
2,64,85,0
2,66,85,192
2,67,85,148
2,71,85,148
2,60,85,4
2,64,85,0
2,66,85,240
2,67,85,228
2,66,85,4
2,62,85,0
2,62,85,4
2,59,85,4
2,71,85,196
2,67,85,0
2,64,85,0
2,64,85,8
2,64,85,0
2,66,85,192
2,67,85,148
2,69,85,148
2,64,85,4
2,74,85,0
2,71,85,0
2,72,85,240
2,69,85,0
2,71,85,228
2,74,85,0
2,62,85,4
2,66,85,0
2,71,85,0
2,67,85,4
2,64,85,4
2,71,85,196
2,67,85,0
2,64,85,0
2,64,85,8
2,64,85,0
2,66,85,192
2,67,85,148
2,69,85,148
2,60,85,388
2,64,85,0
2,60,85,4
2,64,85,0
2,62,85,4
2,71,85,0
2,69,85,4
2,64,85,4
2,71,85,4
2,67,85,0
2,64,85,0
2,64,85,4
2,64,85,4
2,66,85,4
2,67,85,4
2,60,85,4
2,64,85,0
2,64,85,4
2,60,85,0
2,64,85,4
2,66,85,4
2,62,85,0
2,67,85,4
2,59,85,4
2,62,85,0
2,62,85,4
2,66,85,4
2,59,85,0
2,66,85,4
2,59,85,4
2,67,85,0
2,60,85,4
2,62,85,4
2,62,85,4
2,52,85,4
2,62,85,0
2,64,85,4
2,62,85,0
2,67,85,4
2,62,85,0
2,52,85,4
2,64,85,0
2,69,85,4
2,67,85,4
2,64,85,32
2,52,85,4
2,64,85,192
2,67,85,4
2,52,85,32
2,64,85,0
2,69,85,4
2,52,85,32
2,69,85,0
2,67,85,32
2,64,85,32
2,48,85,4
2,64,85,192
2,67,85,4
2,48,85,32
2,64,85,0
2,69,85,4
2,67,85,4
2,64,85,32
2,45,85,4
2,64,85,192
2,67,85,4
2,45,85,32
2,64,85,0
2,74,85,4
2,64,85,32
2,64,85,4
2,67,85,4
2,71,85,0
2,64,85,0
2,64,85,196
2,64,85,4
2,71,85,4
2,67,85,0
2,64,85,0
2,64,85,196
2,64,85,4
2,64,85,4
2,64,85,4
2,67,85,0
2,74,85,0
2,64,85,4
2,67,85,0
2,72,85,0
2,64,85,4
2,67,85,0
2,71,85,0
2,64,85,4
2,64,85,4
2,74,85,4
2,69,85,0
2,66,85,0
2,74,85,4
2,72,85,4
2,62,85,4
2,66,85,0
2,71,85,0
2,64,85,4
2,64,85,4
2,71,85,4
2,67,85,0
2,64,85,0
2,64,85,388
2,71,85,4
2,67,85,0
2,64,85,0
2,64,85,196
2,64,85,4
2,64,85,4
2,67,85,4
2,64,85,0
2,74,85,0
2,72,85,4
2,67,85,0
2,64,85,0
2,71,85,4
2,67,85,0
2,64,85,0
2,64,85,4
2,67,85,4
2,64,85,0
2,69,85,4
2,66,85,0
2,66,85,4
2,71,85,0
2,64,85,4
2,64,85,4
2,59,85,4
2,64,85,0
2,67,85,0
2,67,85,4
2,66,85,4
2,64,85,4
2,59,85,0
2,59,85,4
2,59,85,4
2,59,85,4
2,59,85,4
2,64,85,0
2,67,85,0
2,66,85,4
2,64,85,4
2,59,85,0
2,59,85,4
2,59,85,4
2,59,85,4
2,69,85,4
2,64,85,0
2,60,85,0
2,60,85,4
2,64,85,0
2,69,85,0
2,67,85,4
2,64,85,4
2,60,85,0
2,66,85,0
2,62,85,4
2,62,85,4
2,62,85,4
2,69,85,4
2,66,85,0
2,62,85,0
2,62,85,4
2,66,85,0
2,69,85,0
2,67,85,4
2,66,85,4
2,62,85,0
2,62,85,4
2,66,85,0
2,71,85,0
2,69,85,4
2,71,85,4
2,67,85,0
2,64,85,0
2,64,85,4
2,64,85,4
2,67,85,0
2,71,85,0
2,69,85,4
2,66,85,0
2,62,85,0
2,54,85,4
2,57,85,0
2,62,85,0
2,55,85,4
2,59,85,0
2,64,85,0
2,64,85,4
2,67,85,0
2,74,85,0
2,64,85,4
2,67,85,0
2,72,85,0
2,74,85,4
2,71,85,4
2,66,85,0
2,62,85,0
2,67,85,4
2,64,85,4
2,64,85,4
2,59,85,196
2,62,85,4
2,62,85,4
2,62,85,4
2,64,85,4
2,59,85,580
2,62,85,4
2,62,85,4
2,62,85,4
2,64,85,4
2,60,85,0
2,67,85,196
2,64,85,0
2,64,85,580
2,67,85,32
2,45,85,32
2,64,85,0
2,74,85,4
2,74,85,32
2,71,85,32
2,67,85,32
2,64,85,32
2,59,85,196
2,62,85,4
2,62,85,4
2,62,85,4
2,64,85,4
2,59,85,580
2,62,85,4
2,62,85,4
2,62,85,4
2,64,85,4
2,60,85,0
2,67,85,196
2,64,85,0
2,64,85,580
2,67,85,32
2,45,85,32
2,64,85,0
2,74,85,4
2,74,85,32
2,71,85,32
2,67,85,32
2,71,85,32
2,67,85,0
2,64,85,0
2,64,85,4
2,64,85,0
2,66,85,192
2,67,85,148
2,71,85,148
2,60,85,4
2,64,85,0
2,66,85,240
2,67,85,228
2,62,85,4
2,66,85,0
2,62,85,4
2,59,85,4
2,71,85,196
2,67,85,0
2,64,85,0
2,64,85,8
2,64,85,0
2,66,85,192
2,67,85,148
2,69,85,148
2,74,85,4
2,71,85,0
2,64,85,0
2,72,85,240
2,69,85,0
2,74,85,228
2,71,85,0
2,62,85,4
2,66,85,0
2,71,85,0
2,67,85,4
2,64,85,4
2,71,85,196
2,67,85,0
2,64,85,0
2,64,85,8
2,64,85,0
2,66,85,192
2,67,85,148
2,72,85,148
2,64,85,388
2,60,85,0
2,60,85,4
2,64,85,0
2,71,85,4
2,62,85,0
2,69,85,4
2,64,85,4
2,71,85,4
2,71,85,4
2,67,85,0
2,64,85,0
2,64,85,4
2,64,85,0
2,66,85,192
2,67,85,148
2,71,85,148
2,60,85,4
2,64,85,0
2,66,85,240
2,67,85,228
2,62,85,4
2,66,85,0
2,62,85,4
2,59,85,4
2,71,85,196
2,67,85,0
2,64,85,0
2,64,85,8
2,64,85,0
2,66,85,192
2,67,85,148
2,69,85,148
2,74,85,4
2,71,85,0
2,64,85,0
2,69,85,240
2,72,85,0
2,74,85,228
2,71,85,0
2,62,85,4
2,66,85,0
2,71,85,0
2,67,85,4
2,64,85,4
2,71,85,196
2,67,85,0
2,64,85,0
2,64,85,8
2,64,85,0
2,66,85,192
2,67,85,148
2,72,85,148
2,64,85,388
2,60,85,0
2,60,85,4
2,64,85,0
2,71,85,4
2,62,85,0
2,69,85,4
2,64,85,4
2,71,85,4
2,71,85,4
2,67,85,0
2,64,85,0
2,64,85,4
2,64,85,0
2,66,85,192
2,67,85,148
2,71,85,148
2,60,85,4
2,64,85,0
2,66,85,240
2,67,85,228
2,62,85,4
2,66,85,0
2,62,85,4
2,59,85,4
2,71,85,196
2,67,85,0
2,64,85,0
2,64,85,8
2,64,85,0
2,66,85,192
2,67,85,148
2,69,85,148
2,74,85,4
2,71,85,0
2,64,85,0
2,72,85,240
2,69,85,0
2,74,85,228
2,71,85,0
2,62,85,4
2,66,85,0
2,71,85,0
2,67,85,4
2,64,85,4
2,71,85,196
2,67,85,0
2,64,85,0
2,64,85,8
2,64,85,0
2,66,85,192
2,67,85,148
2,72,85,148
2,64,85,388
2,60,85,0
2,60,85,4
2,64,85,0
2,71,85,4
2,62,85,0
2,69,85,4
2,64,85,4
2,71,85,4
2,71,85,4
2,67,85,0
2,64,85,0
2,64,85,4
2,64,85,0
2,66,85,192
2,67,85,148
2,71,85,148
2,60,85,4
2,64,85,0
2,66,85,240
2,67,85,228
2,62,85,4
2,66,85,0
2,62,85,4
2,59,85,4
2,71,85,196
2,67,85,0
2,64,85,0
2,64,85,8
2,64,85,0
2,66,85,192
2,67,85,148
2,69,85,148
2,74,85,4
2,71,85,0
2,64,85,0
2,69,85,240
2,72,85,0
2,74,85,228
2,71,85,0
2,62,85,4
2,66,85,0
2,71,85,0
2,67,85,4
2,64,85,4
2,71,85,196
2,67,85,0
2,64,85,0
2,64,85,8
2,64,85,0
