track,note,velocity,time
0,42,108,239
0,42,0,59
0,42,73,37
0,42,0,22
0,42,82,73
0,42,0,22
0,42,71,74
0,42,0,19
0,48,52,75
0,52,63,1
0,36,58,0
0,46,102,0
0,48,57,0
0,67,63,0
0,55,63,0
0,36,93,0
0,76,63,1
0,46,0,22
0,36,0,72
0,44,73,1
0,48,0,2
0,44,0,18
0,55,0,2
0,52,0,1
0,48,54,24
0,36,41,1
0,36,0,29
0,55,66,18
0,38,93,1
0,52,66,0
0,42,96,1
0,72,79,1
0,72,0,22
0,42,0,8
0,72,70,16
0,72,0,26
0,38,0,18
0,72,62,3
0,42,87,2
0,72,0,19
0,52,0,6
0,55,0,2
0,42,0,2
0,48,0,11
0,72,73,5
0,36,48,2
0,36,0,8
0,36,0,6
0,55,46,34
0,36,87,1
0,46,102,0
0,52,46,0
0,36,60,1
0,48,40,0
0,72,0,3
0,46,0,16
0,72,79,4
0,72,0,8
0,36,0,27
0,44,73,3
0,72,75,0
0,52,0,8
0,55,0,3
0,48,0,2
0,72,0,10
0,44,0,2
0,72,80,23
0,36,62,0
0,36,0,25
0,48,46,22
0,55,50,0
0,42,102,1
0,52,51,0
0,38,102,0
0,42,0,34
0,71,78,14
0,52,0,29
0,72,0,4
0,38,0,4
0,55,0,4
0,69,74,5
0,71,0,1
0,48,0,0
0,42,87,1
0,42,0,22
0,65,64,24
0,36,50,2
0,69,0,3
0,36,0,14
0,76,0,7
0,67,0,0
0,69,38,8
0,74,45,3
0,48,0,3
0,36,0,3
0,50,57,1
0,38,74,5
0,46,96,1
0,36,82,0
0,57,62,1
0,53,52,0
0,50,42,1
0,46,0,1
0,42,69,42
0,36,0,2
0,50,0,13
0,42,0,13
0,57,0,7
0,53,0,6
0,36,64,6
0,50,61,0
0,36,0,28
0,57,62,21
0,38,96,0
0,44,93,1
0,53,46,0
0,44,0,19
0,50,0,23
0,57,0,6
0,53,0,9
0,38,0,8
0,42,82,10
0,42,0,36
0,36,53,14
0,36,0,11
0,65,0,29
0,26,85,3
0,38,0,1
0,50,77,1
0,42,102,3
0,38,59,0
0,36,93,0
0,42,0,31
0,36,0,5
0,38,0,4
0,52,82,6
0,40,67,0
0,38,93,1
0,28,87,0
0,50,0,2
0,26,0,28
0,42,93,12
0,38,0,2
0,52,0,33
0,42,0,2
0,40,0,7
0,28,0,1
0,29,85,1
0,41,71,1
0,53,91,0
0,38,108,0
0,42,93,9
0,38,0,5
0,53,0,34
0,41,0,4
0,42,0,3
0,54,83,0
0,42,67,1
0,38,99,0
0,30,89,3
0,50,0,18
0,29,0,6
0,54,64,9
0,42,93,2
0,38,0,4
0,42,0,27
0,54,0,4
0,42,0,4
0,36,82,9
0,30,0,6
0,36,0,8
0,74,0,4
0,69,0,7
0,67,61,13
0,74,53,1
0,55,71,8
0,36,102,1
0,55,61,0
0,43,58,0
0,46,93,1
0,31,87,0
0,54,0,7
0,46,0,15
0,36,0,37
0,67,66,3
0,71,80,0
0,42,82,1
0,71,0,18
0,42,0,6
0,67,0,1
0,43,0,8
0,55,0,5
0,71,73,9
0,36,53,1
0,67,52,0
0,67,0,15
0,71,0,5
0,36,0,6
0,71,91,21
0,67,76,0
0,55,72,1
0,42,102,1
0,43,50,0
0,38,102,0
0,42,0,25
0,38,0,18
0,71,0,2
0,67,0,9
0,42,87,5
0,69,67,1
0,72,84,0
0,55,0,23
0,42,0,9
0,43,0,2
0,36,60,13
0,31,0,1
0,69,0,0
0,74,90,0
0,71,81,0
0,72,0,3
0,36,0,12
0,55,0,28
0,59,60,2
0,42,105,3
0,36,90,0
0,55,58,0
0,31,87,0
0,43,44,1
0,42,0,27
0,74,0,0
0,71,0,0
0,71,96,0
0,67,82,0
0,36,0,34
0,42,93,2
0,55,0,17
0,43,0,10
0,42,0,26
0,67,0,17
0,71,0,1
0,43,47,24
0,38,102,0
0,55,56,0
0,42,93,1
0,69,88,0
0,42,0,11
0,38,0,23
0,42,90,17
0,67,89,0
0,55,0,1
0,43,0,0
0,69,0,10
0,42,0,7
0,36,63,31
0,36,0,12
0,67,0,21
0,68,61,10
0,76,63,1
0,62,57,2
0,56,51,1
0,59,0,1
0,52,60,0
0,36,102,0
0,62,63,0
0,46,93,0
0,76,99,1
0,28,87,0
0,74,0,4
0,31,0,1
0,46,0,12
0,67,0,7
0,77,88,21
0,76,0,9
0,36,0,8
0,76,91,22
0,42,87,2
0,77,0,6
0,62,0,3
0,56,0,11
0,42,0,4
0,52,0,8
0,74,101,14
0,36,93,2
0,76,0,3
0,36,0,28
0,28,0,7
0,32,68,8
0,62,72,2
0,56,52,0
0,38,102,0
0,42,93,1
0,52,50,0
0,42,0,18
0,38,0,7
0,76,89,18
0,42,62,2
0,74,0,5
0,42,0,2
0,56,0,33
0,74,79,0
0,76,0,3
0,74,95,1
0,42,82,2
0,76,0,3
0,42,0,6
0,62,0,2
0,52,0,27
0,74,0,3
0,72,85,4
0,69,64,1
0,46,96,1
0,46,0,7
0,69,61,28
0,68,0,1
0,72,63,1
0,74,0,1
0,60,55,8
0,62,0,2
0,33,74,0
0,36,102,1
0,42,102,0
0,52,50,0
0,60,67,1
0,57,49,0
0,32,0,10
0,42,0,5
0,42,36,29
0,42,0,3
0,57,0,20
0,42,82,19
0,42,0,9
0,52,0,5
0,69,0,16
0,72,0,2
0,42,11,16
0,72,77,1
0,42,0,1
0,36,0,6
0,60,0,35
0,59,59,1
0,72,0,3
0,31,82,0
0,55,62,0
0,38,105,0
0,42,96,1
0,43,47,0
0,74,88,1
0,33,0,11
0,60,0,1
0,42,0,8
0,72,89,24
0,74,0,4
0,38,0,10
0,67,58,15
0,71,64,3
0,72,0,1
0,69,0,1
0,42,93,4
0,71,92,1
0,43,0,6
0,72,0,8
0,42,0,8
0,36,73,24
0,36,0,15
0,57,64,27
0,69,58,1
0,65,53,1
0,71,0,1
0,53,59,1
0,71,0,1
0,69,81,0
0,41,45,0
0,29,74,0
0,67,0,1
0,59,0,1
0,42,93,0
0,36,93,0
0,55,0,5
0,31,0,3
0,42,0,12
0,36,0,13
0,42,87,19
0,42,0,17
0,53,0,0
0,41,0,16
0,69,0,48
0,53,58,13
0,41,46,1
0,69,73,0
0,72,88,1
0,38,102,1
0,42,105,0
0,42,0,3
0,72,0,6
0,69,0,5
0,69,69,14
0,72,74,0
0,42,61,1
0,42,0,4
0,69,0,9
0,72,0,2
0,29,0,4
0,38,0,1
0,69,78,19
0,29,61,1
0,72,86,0
0,42,87,2
0,42,0,11
0,53,0,23
0,41,0,1
0,69,0,11
0,71,79,0
0,74,91,0
0,72,0,2
0,46,99,0
0,46,0,10
0,57,0,33
0,69,0,2
0,55,65,0
0,71,58,0
0,59,57,0
0,43,57,1
0,65,0,1
0,31,68,0
0,67,56,0
0,29,0,1
0,36,96,1
0,42,61,31
0,42,0,7
0,71,0,1
0,36,0,37
0,42,73,1
0,71,88,1
0,42,0,11
0,55,0,2
0,74,0,1
0,43,0,4
0,71,0,26
0,69,76,2
0,36,93,1
0,36,0,38
0,55,70,7
0,43,47,1
0,71,90,1
0,42,96,2
0,38,102,0
0,69,0,1
0,42,0,16
0,69,82,3
0,71,0,2
0,38,0,18
0,69,0,27
0,67,81,0
0,42,87,3
0,42,0,15
0,43,0,9
0,55,0,10
0,64,74,13
0,36,76,0
0,67,0,1
0,69,81,0
0,60,71,1
0,36,0,10
0,67,0,6
0,69,23,11
0,72,64,1
0,64,56,2
0,60,64,0
0,71,0,3
0,45,63,2
0,57,68,0
0,36,87,1
0,31,0,1
0,33,68,0
0,42,93,0
0,59,0,2
0,42,0,17
0,57,0,1
0,45,0,2
0,57,59,23
0,45,42,1
0,45,0,16
0,57,0,1
0,57,55,30
0,45,53,0
0,42,90,4
0,36,0,6
0,45,0,4
0,57,0,0
0,42,0,5
0,57,70,27
0,45,57,0
0,36,69,4
0,45,0,9
0,57,0,7
0,36,0,6
0,45,56,11
0,57,65,0
0,38,99,4
0,42,99,1
0,42,0,4
0,57,0,20
0,55,65,4
0,38,0,23
0,74,64,24
0,45,0,4
0,42,87,2
0,72,0,1
0,42,0,12
0,55,0,23
0,57,74,5
0,45,43,1
0,36,76,5
0,36,0,4
0,74,0,5
0,76,63,1
0,46,99,2
0,36,99,0
0,46,0,14
0,36,0,10
0,55,67,21
0,45,0,2
0,57,0,5
0,45,56,41
0,57,73,0
0,42,73,2
0,64,0,1
0,60,0,0
0,69,0,0
0,55,0,2
0,42,0,6
0,36,87,6
0,36,0,21
0,76,0,18
0,79,64,2
0,71,88,7
0,38,102,1
0,42,93,0
0,45,0,7
0,57,0,1
0,42,0,8
0,38,0,43
0,71,0,30
0,28,78,4
0,59,64,1
0,42,93,1
0,33,0,2
0,72,94,0
0,60,0,1
0,42,0,11
0,36,76,34
0,36,0,9
0,64,0,24
0,72,61,2
0,81,61,2
0,69,0,1
0,79,0,3
0,59,0,4
0,29,64,1
0,72,0,1
0,57,62,0
0,36,102,1
0,42,96,0
0,53,66,0
0,41,57,1
0,71,74,1
0,74,92,0
0,28,0,3
0,42,0,16
0,36,0,9
0,71,0,7
0,74,0,6
0,76,98,3
0,72,76,1
0,42,93,34
0,42,0,13
0,72,0,3
0,53,0,7
0,41,0,8
0,69,79,18
0,72,89,0
0,76,0,8
0,69,0,38
0,38,90,0
0,42,90,1
0,41,52,0
0,53,64,0
0,42,0,1
0,72,0,23
0,69,81,1
0,65,68,0
0,38,0,21
0,42,87,26
0,42,0,11
0,53,0,19
0,41,0,0
0,36,67,17
0,36,0,13
0,65,0,18
0,69,0,2
0,29,0,11
0,53,60,5
0,36,105,0
0,42,102,0
0,41,46,1
0,29,70,1
0,42,0,11
0,77,69,35
0,81,61,0
0,36,0,28
0,77,0,18
0,42,93,0
0,79,90,0
0,76,70,1
0,81,0,6
0,42,0,7
0,41,0,16
0,53,0,1
0,36,79,17
0,74,81,0
0,77,87,3
0,76,0,9
0,79,0,9
0,36,0,12
0,53,70,4
0,38,93,0
0,41,61,0
0,42,99,1
0,42,0,14
0,74,0,6
0,76,82,19
0,72,57,1
0,77,0,1
0,38,0,22
0,29,0,10
0,42,102,6
0,29,82,0
0,42,0,14
0,41,0,33
0,53,0,0
0,36,69,0
0,54,75,0
0,42,55,0
0,30,85,1
0,36,0,11
0,29,0,0
0,72,0,16
0,79,82,3
0,71,58,1
0,72,0,4
0,81,0,2
0,55,59,3
0,71,57,3
0,74,74,0
0,57,0,1
0,42,0,1
0,76,0,0
0,54,0,0
0,31,54,0
0,55,78,0
0,30,0,1
0,36,90,0
0,51,102,0
0,43,62,0
0,71,0,36
0,51,0,18
0,51,102,33
0,74,0,13
0,67,91,35
0,51,0,3
0,43,0,7
0,55,0,12
0,55,74,25
0,43,54,2
0,51,105,1
0,67,0,5
0,67,74,2
0,51,0,2
0,67,0,21
0,67,85,25
0,51,99,1
0,67,0,20
0,43,0,13
0,55,0,4
0,69,79,10
0,77,96,1
0,51,0,6
0,36,0,2
0,31,0,5
0,77,87,27
0,79,0,3
0,31,87,2
0,43,46,3
0,36,93,0
0,55,69,0
0,51,102,0
0,51,0,25
0,77,0,8
0,69,0,0
0,67,74,2
0,76,89,1
0,51,99,44
0,55,0,19
0,67,0,3
0,43,0,2
0,51,0,13
0,76,0,11
0,72,89,0
0,64,77,1
0,36,0,37
0,55,64,9
0,43,54,1
0,51,93,0
0,51,0,14
0,31,0,25
0,45,87,2
0,43,0,19
0,45,0,13
0,31,89,14
0,43,102,1
0,41,79,0
0,64,0,1
0,72,0,0
0,65,68,0
0,74,94,0
0,41,0,3
0,55,0,0
0,43,0,22
0,35,82,21
0,31,0,1
0,41,87,0
0,41,0,16
0,65,0,24
0,55,0,4
0,71,0,0
0,74,0,1
0,72,71,0
0,60,54,1
0,55,64,0
0,76,76,1
0,36,74,0
0,52,67,1
0,48,56,0
0,36,96,0
0,51,93,0
0,35,0,1
0,72,85,0
0,64,75,0
0,48,71,1
0,77,0,3
0,51,0,32
0,55,61,8
0,60,58,47
0,51,99,1
0,55,0,16
0,36,0,1
0,52,0,2
0,48,0,5
0,55,64,24
0,36,76,0
0,64,53,0
0,48,55,0
0,52,53,1
0,51,0,8
0,48,0,2
0,52,0,3
0,55,0,5
0,64,0,6
0,72,0,3
0,36,0,1
0,48,55,1
0,67,73,0
0,38,102,0
0,55,56,0
0,64,0,1
0,51,99,0
0,52,44,1
0,67,0,15
0,60,0,1
0,64,64,0
0,51,0,5
0,48,0,22
0,38,0,6
0,48,0,6
0,51,102,8
0,43,44,0
0,60,71,1
0,55,0,2
0,55,0,5
0,52,0,1
0,64,0,36
0,51,0,2
0,55,56,1
0,36,34,1
0,36,0,13
0,36,0,24
0,36,41,8
0,55,61,1
0,52,50,0
0,43,0,1
0,48,49,0
0,51,102,1
0,48,64,1
0,36,93,0
0,60,0,2
0,55,0,1
0,55,58,4
0,51,0,1
0,67,76,42
0,60,0,1
0,76,94,2
0,67,75,0
0,51,93,2
0,60,66,1
0,52,0,4
0,48,0,2
0,36,0,4
0,55,0,1
0,36,73,36
0,64,56,0
0,51,0,8
0,36,0,13
0,67,0,13
0,67,0,6
0,64,0,2
0,65,58,0
0,67,79,2
0,36,71,0
0,38,93,0
0,65,77,1
0,74,95,0
0,51,99,0
0,76,0,8
0,36,0,15
0,60,0,8
0,67,0,14
0,64,52,2
0,51,0,1
0,64,67,0
0,72,87,0
0,65,0,1
0,74,0,1
0,64,60,40
0,65,0,1
0,55,0,3
0,51,96,1
0,38,0,1
0,60,69,0
0,28,74,1
0,48,0,1
0,64,0,7
0,36,0,11
0,51,0,15
0,36,64,12
0,55,53,0
0,36,0,15
0,55,0,2
0,72,0,12
0,76,0,5
0,72,58,8
0,64,0,2
0,69,71,1
0,53,52,2
0,65,72,0
0,60,53,1
0,57,34,0
0,36,87,0
0,53,69,1
0,49,76,0
0,64,0,1
0,29,66,0
0,60,0,2
0,28,0,3
0,72,0,3
0,49,0,27
0,60,50,12
0,60,0,33
0,57,0,2
0,53,0,9
0,51,79,2
0,69,68,0
0,65,50,1
0,36,0,10
0,51,0,31
0,72,78,5
0,36,82,1
0,69,61,1
0,69,0,2
0,36,0,23
0,60,59,22
0,57,46,0
0,53,40,0
0,51,99,1
0,38,99,0
0,72,84,0
0,69,0,2
0,65,0,27
0,72,0,1
0,51,0,3
0,69,56,1
0,38,0,26
0,60,0,6
0,57,0,1
0,60,0,8
0,53,0,2
0,74,85,2
0,51,99,1
0,65,76,1
0,72,0,1
0,53,0,4
0,36,71,41
0,60,53,0
0,51,0,3
0,36,0,12
0,29,0,8
0,69,0,2
0,65,0,18
0,57,40,2
0,60,53,0
0,53,48,1
0,53,62,1
0,29,68,0
0,60,0,1
0,72,73,0
0,36,93,1
0,51,99,0
0,74,0,4
0,69,62,4
0,60,58,0
0,72,0,1
0,51,0,4
0,36,0,28
0,65,63,16
0,51,105,1
0,57,0,1
0,60,0,1
0,53,0,9
0,69,52,35
0,36,69,1
0,51,0,11
0,72,0,4
0,36,0,11
0,69,0,1
0,65,0,10
0,64,78,5
0,69,0,2
0,57,38,2
0,72,73,1
0,53,40,0
0,60,62,0
0,38,96,1
0,51,96,0
0,77,67,2
0,65,0,13
0,72,0,27
0,69,62,3
0,51,0,1
0,69,71,1
0,53,0,23
0,60,0,4
0,69,0,2
0,57,0,1
0,60,0,4
0,38,0,7
0,62,74,0
0,64,0,5
0,65,67,0
0,51,99,1
0,72,79,1
0,38,47,2
0,69,0,3
0,53,0,6
0,29,0,7
0,65,0,26
0,60,42,2
0,51,0,10
0,60,0,6
0,72,42,16
0,69,0,2
0,76,58,1
0,77,0,2
0,62,0,1
0,64,70,4
0,55,61,4
0,36,70,3
0,48,69,0
0,52,53,1
0,36,99,0
0,51,93,0
0,48,51,0
0,38,0,3
0,72,0,14
0,55,62,4
0,51,0,11
0,52,0,13
0,55,0,4
0,67,70,19
0,76,86,0
0,51,69,2
0,60,67,0
