track,note,velocity,time
1,40,120,480
1,40,0,55
1,52,116,5
1,40,116,60
1,52,0,2
1,40,0,53
1,52,116,5
1,40,116,60
1,52,0,6
1,52,116,54
1,40,0,1
1,40,116,59
1,52,0,3
1,52,120,57
1,40,0,1
1,40,116,59
1,52,0,1
1,40,0,59
1,52,112,0
1,40,116,60
1,52,0,1
1,40,0,58
1,52,112,1
1,52,0,60
1,40,120,0
1,40,0,60
1,52,124,0
1,40,120,60
1,52,0,3
1,40,0,54
1,52,112,3
1,52,0,60
1,40,120,0
1,40,0,55
1,52,116,5
1,40,116,60
1,52,0,2
1,40,0,53
1,52,116,5
1,40,116,60
1,52,0,6
1,52,116,54
1,40,0,1
1,40,116,59
1,52,0,3
1,52,120,57
1,40,0,1
1,40,116,59
1,52,0,1
1,40,0,59
1,52,112,0
1,40,116,60
1,52,0,1
1,40,0,58
1,52,112,1
1,52,0,60
1,40,120,0
1,40,0,60
1,52,124,0
1,40,120,60
1,52,0,3
1,40,0,54
1,52,112,3
1,52,0,60
1,40,120,0
1,40,0,55
1,52,116,5
1,40,116,60
1,52,0,2
1,40,0,53
1,52,116,5
1,40,116,60
1,52,0,6
1,52,116,54
1,40,0,1
1,40,116,59
1,52,0,3
1,52,120,57
1,40,0,1
1,40,116,59
1,52,0,1
1,40,0,59
1,52,112,0
1,40,116,60
1,52,0,1
1,40,0,58
1,52,112,1
1,52,0,60
1,40,120,0
1,40,0,60
1,52,124,0
1,40,120,60
1,52,0,3
1,40,0,54
1,52,112,3
1,52,0,60
1,40,120,0
1,40,0,55
1,52,116,5
1,40,116,60
1,52,0,2
1,40,0,53
1,52,116,5
1,40,116,60
1,52,0,6
1,52,116,54
1,40,0,1
1,40,116,59
1,52,0,3
1,52,120,57
1,40,0,1
1,40,116,59
1,52,0,1
1,40,0,59
1,52,112,0
1,40,116,60
1,52,0,1
1,40,0,58
1,52,112,1
1,52,0,60
1,40,120,0
1,40,0,60
1,52,124,0
1,40,120,60
1,52,0,3
1,40,0,54
1,52,112,3
1,52,0,60
1,40,120,0
1,40,0,55
1,52,116,5
1,40,116,60
1,52,0,2
1,40,0,53
1,52,116,5
1,40,116,60
1,52,0,6
1,52,116,54
1,40,0,1
1,40,116,59
1,52,0,3
1,52,120,57
1,40,0,1
1,40,116,59
1,52,0,1
1,40,0,59
1,52,112,0
1,40,116,60
1,52,0,1
1,40,0,58
1,52,112,1
1,52,0,60
1,40,120,0
1,40,0,60
1,52,124,0
1,40,120,60
1,52,0,3
1,40,0,54
1,52,112,3
1,52,0,60
1,40,120,0
1,40,0,55
1,52,116,5
1,40,116,60
1,52,0,2
1,40,0,53
1,52,116,5
1,40,116,60
1,52,0,6
1,52,116,54
1,40,0,1
1,40,116,59
1,52,0,3
1,52,120,57
1,40,0,1
1,40,116,59
1,52,0,1
1,40,0,59
1,52,112,0
1,40,116,60
1,52,0,1
1,40,0,58
1,52,112,1
1,52,0,60
1,40,120,0
1,40,0,60
1,52,124,0
1,40,120,60
1,52,0,3
1,40,0,54
1,52,112,3
1,52,0,60
1,40,120,0
1,40,0,55
1,52,116,5
1,40,116,60
1,52,0,2
1,40,0,53
1,52,116,5
1,40,116,60
1,52,0,6
1,52,116,54
1,40,0,1
1,40,116,59
1,52,0,3
1,52,120,57
1,40,0,1
1,40,116,59
1,52,0,1
1,40,0,59
1,52,112,0
1,40,116,60
1,52,0,1
1,40,0,58
1,52,112,1
1,52,0,60
1,40,120,0
1,40,0,60
1,52,124,0
1,40,120,60
1,52,0,3
1,40,0,54
1,52,112,3
1,52,0,60
1,40,120,0
1,40,0,55
1,52,116,5
1,40,116,60
1,52,0,2
1,40,0,53
1,52,116,5
1,40,116,60
1,52,0,6
1,52,116,54
1,40,0,1
1,40,116,59
1,52,0,3
1,52,120,57
1,40,0,1
1,40,116,59
1,52,0,1
1,40,0,59
1,52,112,0
1,40,116,60
1,52,0,1
1,40,0,58
1,52,112,1
1,52,0,60
1,40,120,0
1,40,0,60
1,52,124,0
1,40,120,60
1,52,0,3
1,40,0,54
1,52,112,3
1,52,0,60
1,40,120,0
1,40,0,55
1,52,116,5
1,40,116,60
1,52,0,2
1,40,0,53
1,52,116,5
1,40,116,60
1,52,0,6
1,52,116,54
1,40,0,1
1,40,116,59
1,52,0,3
1,52,120,57
1,40,0,1
1,40,116,59
1,52,0,1
1,40,0,59
1,52,112,0
1,40,116,60
1,52,0,1
1,40,0,58
1,52,112,1
1,52,0,60
1,40,120,0
1,40,0,60
1,52,124,0
1,40,120,60
1,52,0,3
1,40,0,54
1,52,112,3
1,52,0,60
1,40,120,0
1,40,0,55
1,52,116,5
1,40,116,60
1,52,0,2
1,40,0,53
1,52,116,5
1,40,116,60
1,52,0,6
1,52,116,54
1,40,0,1
1,40,116,59
1,52,0,3
1,52,120,57
1,40,0,1
1,40,116,59
1,52,0,1
1,40,0,59
1,52,112,0
1,40,116,60
1,52,0,1
1,40,0,58
1,52,112,1
1,52,0,60
1,40,120,0
1,40,0,60
1,52,124,0
1,40,120,60
1,52,0,3
1,40,0,54
1,52,112,3
1,52,0,60
1,40,120,0
1,40,0,55
1,52,116,5
1,40,116,60
1,52,0,2
1,40,0,53
1,52,116,5
1,40,116,60
1,52,0,6
1,52,116,54
1,40,0,1
1,40,116,59
1,52,0,3
1,52,120,57
1,40,0,1
1,36,116,59
1,52,0,1
1,36,0,59
1,48,112,0
1,36,116,60
1,48,0,1
1,36,0,58
1,48,112,1
1,48,0,60
1,36,120,0
1,36,0,60
1,48,124,0
1,36,120,60
1,48,0,3
1,36,0,54
1,48,112,3
1,48,0,60
1,38,116,0
1,38,0,60
1,50,112,0
1,38,116,60
1,50,0,1
1,38,0,58
1,50,112,1
1,50,0,60
1,38,120,0
1,38,0,60
1,50,124,0
1,38,120,60
1,50,0,3
1,38,0,54
1,50,112,3
1,50,0,60
1,40,120,0
1,40,0,55
1,52,116,5
1,40,116,60
1,52,0,2
1,40,0,53
1,52,116,5
1,40,116,60
1,52,0,6
1,52,116,54
1,40,0,1
1,40,116,59
1,52,0,3
1,52,120,57
1,40,0,1
1,40,120,59
1,52,0,1
1,40,0,54
1,52,116,5
1,40,116,60
1,52,0,2
1,40,0,53
1,52,116,5
1,40,116,60
1,52,0,6
1,52,116,54
1,40,0,1
1,40,116,59
1,52,0,3
1,52,120,57
1,40,0,1
1,36,116,59
1,52,0,1
1,36,0,59
1,48,112,0
1,36,116,60
1,48,0,1
1,36,0,58
1,48,112,1
1,48,0,60
1,36,120,0
1,36,0,60
1,48,124,0
1,36,120,60
1,48,0,3
1,36,0,54
1,48,112,3
1,48,0,60
1,38,116,0
1,38,0,60
1,50,112,0
1,38,116,60
1,50,0,1
1,38,0,58
1,50,112,1
1,50,0,60
1,38,120,0
1,38,0,60
1,50,124,0
1,38,120,60
1,50,0,3
1,38,0,54
1,50,112,3
1,50,0,60
1,40,120,0
1,40,0,55
1,52,116,5
1,40,116,60
1,52,0,2
1,40,0,53
1,52,116,5
1,40,116,60
1,52,0,6
1,52,116,54
1,40,0,1
1,40,116,59
1,52,0,3
1,52,120,57
1,40,0,1
1,40,120,59
1,52,0,1
1,40,0,54
1,52,116,5
1,40,116,60
1,52,0,2
1,40,0,53
1,52,116,5
1,40,116,60
1,52,0,6
1,52,116,54
1,40,0,1
1,40,116,59
1,52,0,3
1,52,120,57
1,40,0,1
1,36,116,59
1,52,0,1
1,36,0,59
1,48,112,0
1,36,116,60
1,48,0,1
1,36,0,58
1,48,112,1
1,48,0,60
1,36,120,0
1,36,0,60
1,48,124,0
1,36,120,60
1,48,0,3
1,36,0,54
1,48,112,3
1,48,0,60
1,38,116,0
1,38,0,60
1,50,112,0
1,38,116,60
1,50,0,1
1,38,0,58
1,50,112,1
1,50,0,60
1,38,120,0
1,38,0,60
1,50,124,0
1,38,120,60
1,50,0,3
1,38,0,54
1,50,112,3
1,50,0,60
1,40,120,0
1,40,0,55
1,52,116,5
1,40,116,60
1,52,0,2
1,40,0,53
1,52,116,5
1,40,116,60
1,52,0,6
1,52,116,54
1,40,0,1
1,40,116,59
1,52,0,3
1,52,120,57
1,40,0,1
1,40,120,59
1,52,0,1
1,40,0,54
1,52,116,5
1,40,116,60
1,52,0,2
1,40,0,53
1,52,116,5
1,40,116,60
1,52,0,6
1,52,116,54
1,40,0,1
1,40,116,59
1,52,0,3
1,52,120,57
1,40,0,1
1,36,116,59
1,52,0,1
1,36,0,59
1,48,112,0
1,36,116,60
1,48,0,1
1,36,0,58
1,48,112,1
1,48,0,60
1,36,120,0
1,36,0,60
1,48,124,0
1,36,120,60
1,48,0,3
1,36,0,54
1,48,112,3
1,48,0,60
1,38,116,0
1,38,0,60
1,50,112,0
1,38,116,60
1,50,0,1
1,38,0,58
1,50,112,1
1,50,0,60
1,38,120,0
1,38,0,60
1,50,124,0
1,38,120,60
1,50,0,3
1,38,0,54
1,50,112,3
1,50,0,60
1,40,120,0
1,40,0,55
1,52,116,5
1,40,116,60
1,52,0,2
1,40,0,53
1,52,116,5
1,40,116,60
1,52,0,6
1,52,116,54
1,40,0,1
1,40,116,59
1,52,0,3
1,52,120,57
1,40,0,1
1,40,116,59
1,52,0,1
1,52,112,59
1,40,0,1
1,40,108,59
1,52,0,10
1,52,120,50
1,40,0,7
1,43,108,53
1,52,0,7
1,55,112,53
1,43,0,7
1,43,112,53
1,55,0,11
1,55,112,49
1,43,0,8
1,45,120,52
1,55,0,8
1,57,116,52
1,45,0,5
1,45,112,55
1,57,0,11
1,57,116,49
1,45,0,5
1,46,112,55
1,57,0,3
1,58,116,57
1,46,0,7
1,46,112,53
1,58,0,5
1,58,124,55
1,46,0,3
1,45,112,57
1,58,0,3
1,45,0,56
1,57,120,1
1,45,112,60
1,57,0,5
1,57,116,55
1,45,0,4
1,45,116,56
1,57,0,5
1,45,0,54
1,57,116,1
1,45,112,60
1,57,0,3
1,57,120,57
1,45,0,13
1,43,112,47
1,57,0,11
1,55,120,49
1,43,0,7
1,43,112,53
1,55,0,7
1,55,120,53
1,43,0,9
1,43,116,51
1,55,0,7
1,55,116,53
1,43,0,6
1,43,112,54
1,55,0,3
1,55,112,57
1,43,0,6
1,40,116,54
1,55,0,3
1,52,112,57
1,40,0,5
1,40,112,55
1,52,0,9
1,52,116,51
1,40,0,9
1,43,116,51
1,52,0,4
1,55,116,56
1,43,0,6
1,43,116,54
1,55,0,8
1,55,116,52
1,43,0,7
1,45,116,53
1,55,0,7
1,57,116,53
1,45,0,5
1,45,116,55
1,57,0,11
1,57,120,49
1,45,0,7
1,46,116,53
1,57,0,3
1,58,120,57
1,46,0,2
1,46,116,58
1,58,0,9
1,58,120,51
1,46,0,5
1,45,112,55
1,58,0,8
1,57,116,52
1,45,0,2
1,45,112,58
1,57,0,4
1,57,116,56
1,45,0,6
1,45,108,54
1,57,0,3
1,57,116,57
1,45,0,1
1,45,112,59
1,57,0,3
1,57,120,57
1,45,0,10
1,57,0,50
1,43,112,0
1,55,116,60
1,43,0,4
1,43,116,56
1,55,0,3
1,55,116,57
1,43,0,6
1,43,116,54
1,55,0,1
1,55,116,59
1,43,0,4
1,43,112,56
1,55,0,3
1,55,120,57
1,43,0,2
1,55,0,47
1,40,120,11
1,40,0,55
1,52,116,5
1,40,116,60
1,52,0,2
1,40,0,53
1,52,116,5
1,40,116,60
1,52,0,6
1,52,116,54
1,40,0,1
1,40,116,59
1,52,0,3
1,52,120,57
1,40,0,1
1,40,116,59
1,52,0,1
1,40,0,59
1,52,112,0
1,40,116,60
1,52,0,1
1,40,0,58
1,52,112,1
1,52,0,60
1,40,120,0
1,40,0,60
1,52,124,0
1,40,120,60
1,52,0,3
1,40,0,54
1,52,112,3
1,52,0,60
1,40,120,0
1,40,0,55
1,52,116,5
1,40,116,60
1,52,0,2
1,40,0,53
1,52,116,5
1,40,116,60
1,52,0,6
1,52,116,54
1,40,0,1
1,40,116,59
1,52,0,3
1,52,120,57
1,40,0,1
1,40,116,59
1,52,0,1
1,40,0,59
1,52,112,0
1,40,116,60
1,52,0,1
1,40,0,58
1,52,112,1
1,52,0,60
1,40,120,0
1,40,0,60
1,52,124,0
1,40,120,60
1,52,0,3
1,40,0,54
1,52,112,3
1,52,0,60
1,40,120,0
1,40,0,55
1,52,116,5
1,40,116,60
1,52,0,2
1,40,0,53
1,52,116,5
1,40,116,60
1,52,0,6
1,52,116,54
1,40,0,1
1,40,116,59
1,52,0,3
1,52,120,57
1,40,0,1
1,40,116,59
1,52,0,1
1,40,0,59
1,52,112,0
1,40,116,60
1,52,0,1
1,40,0,58
1,52,112,1
1,52,0,60
1,40,120,0
1,40,0,60
1,52,124,0
1,40,120,60
1,52,0,3
1,40,0,54
1,52,112,3
1,52,0,60
1,40,120,0
1,40,0,55
1,52,116,5
1,40,116,60
1,52,0,2
1,40,0,53
1,52,116,5
1,40,116,60
1,52,0,6
1,52,116,54
1,40,0,1
1,40,116,59
1,52,0,3
1,52,120,57
1,40,0,1
1,40,116,59
1,52,0,1
1,40,0,59
1,52,112,0
1,40,116,60
1,52,0,1
1,40,0,58
1,52,112,1
1,52,0,60
1,40,120,0
1,40,0,60
1,52,124,0
1,40,120,60
1,52,0,3
1,40,0,54
1,52,112,3
1,52,0,60
1,40,120,0
1,40,0,55
1,52,116,5
1,40,116,60
1,52,0,2
1,40,0,53
1,52,116,5
1,40,116,60
1,52,0,6
1,52,116,54
1,40,0,1
1,40,116,59
1,52,0,3
1,52,120,57
1,40,0,1
1,40,116,59
1,52,0,1
1,40,0,59
1,52,112,0
1,40,116,60
1,52,0,1
1,40,0,58
1,52,112,1
1,52,0,60
1,40,120,0
1,40,0,60
1,52,124,0
1,40,120,60
1,52,0,3
1,40,0,54
1,52,112,3
1,52,0,60
1,40,120,0
1,40,0,55
1,52,116,5
1,40,116,60
1,52,0,2
1,40,0,53
1,52,116,5
1,40,116,60
1,52,0,6
1,52,116,54
1,40,0,1
1,40,116,59
1,52,0,3
1,52,120,57
1,40,0,1
1,36,116,59
1,52,0,1
1,36,0,59
1,48,112,0
1,36,116,60
1,48,0,1
1,36,0,58
1,48,112,1
1,48,0,60
1,36,120,0
1,36,0,60
1,48,124,0
1,36,120,60
1,48,0,3
1,36,0,54
1,48,112,3
1,48,0,60
1,38,116,0
1,38,0,60
1,50,112,0
1,38,116,60
1,50,0,1
1,38,0,58
1,50,112,1
1,50,0,60
1,38,120,0
1,38,0,60
1,50,124,0
1,38,120,60
1,50,0,3
1,38,0,54
1,50,112,3
1,50,0,60
1,40,120,0
1,40,0,55
1,52,116,5
1,40,116,60
1,52,0,2
1,40,0,53
1,52,116,5
1,40,116,60
1,52,0,6
1,52,116,54
1,40,0,1
1,40,116,59
1,52,0,3
1,52,120,57
1,40,0,1
1,40,120,59
1,52,0,1
1,40,0,54
1,52,116,5
1,40,116,60
1,52,0,2
1,40,0,53
1,52,116,5
1,40,116,60
1,52,0,6
1,52,116,54
1,40,0,1
1,40,116,59
1,52,0,3
1,52,120,57
1,40,0,1
1,36,116,59
1,52,0,1
1,36,0,59
1,48,112,0
1,36,116,60
1,48,0,1
1,36,0,58
1,48,112,1
1,48,0,60
1,36,120,0
1,36,0,60
1,48,124,0
1,36,120,60
1,48,0,3
1,36,0,54
1,48,112,3
1,48,0,60
1,38,116,0
1,38,0,60
1,50,112,0
1,38,116,60
1,50,0,1
1,38,0,58
1,50,112,1
1,50,0,60
1,38,120,0
1,38,0,60
1,50,124,0
1,38,120,60
1,50,0,3
1,38,0,54
1,50,112,3
1,50,0,60
1,40,120,0
1,40,0,55
1,52,116,5
1,40,116,60
1,52,0,2
1,40,0,53
1,52,116,5
1,40,116,60
1,52,0,6
1,52,116,54
1,40,0,1
1,40,116,59
1,52,0,3
1,52,120,57
1,40,0,1
1,40,120,59
1,52,0,1
1,40,0,54
1,52,116,5
1,40,116,60
1,52,0,2
1,40,0,53
1,52,116,5
1,40,116,60
