track,note,velocity,time
1,43,64,240
1,43,0,16
1,43,64,219
1,43,0,18
1,43,64,227
1,43,0,17
1,43,64,220
1,43,0,22
1,43,64,216
1,43,0,21
1,43,64,217
1,43,0,20
1,43,64,224
1,43,0,20
1,43,64,221
1,43,0,20
1,43,64,217
1,43,0,20
1,43,64,216
1,43,0,22
1,43,64,217
1,43,0,20
1,43,64,221
1,43,0,20
1,43,64,224
1,43,0,22
1,43,64,218
1,43,0,22
1,43,64,216
1,43,0,20
1,43,64,220
1,43,0,20
1,43,64,219
1,43,0,18
1,43,64,222
1,43,0,18
1,43,64,220
1,43,0,21
1,43,64,220
1,43,0,21
1,43,64,225
1,43,0,20
1,43,64,221
1,43,0,18
1,43,64,217
1,43,0,21
1,43,64,217
1,43,0,21
1,43,64,219
1,43,0,18
1,43,64,221
1,43,0,18
1,43,64,223
1,43,0,20
1,43,64,227
1,43,0,18
1,43,64,219
1,43,0,17
1,43,64,220
1,43,0,17
1,43,64,223
1,43,0,18
1,43,64,230
1,43,0,20
1,43,64,218
1,43,0,18
1,43,64,222
1,43,0,18
1,43,64,220
1,43,0,18
1,43,64,219
1,43,0,21
1,43,64,226
1,43,0,18
1,43,64,217
1,43,0,20
1,43,64,217
1,43,0,18
1,43,64,223
1,43,0,18
1,43,64,219
1,43,0,18
1,43,64,225
1,43,0,18
1,43,64,225
1,43,0,18
1,43,64,217
1,43,0,20
1,43,64,222
1,43,0,18
1,43,64,222
1,43,0,20
1,43,64,217
1,43,0,20
1,43,64,218
1,43,0,20
1,43,64,219
1,43,0,20
1,43,64,224
1,43,0,18
1,43,64,223
1,43,0,17
1,43,64,222
1,43,0,21
1,43,64,226
1,43,0,20
1,43,64,215
1,43,0,18
1,43,64,226
1,43,0,17
1,43,64,216
1,43,64,1
1,43,0,17
1,43,0,0
1,43,64,224
1,43,64,0
1,43,0,18
1,43,0,0
1,43,64,222
1,43,64,3
1,43,0,17
1,43,0,0
1,43,64,224
1,43,0,18
1,43,64,227
1,43,0,18
1,43,64,219
1,43,0,20
1,43,64,217
1,43,0,17
1,43,64,224
1,43,0,20
1,43,64,219
1,43,0,18
1,43,64,224
1,43,0,20
1,43,64,215
1,43,0,18
1,43,64,223
1,43,0,20
1,43,64,218
1,43,0,18
1,43,64,223
1,43,0,17
1,43,64,224
1,43,0,18
1,43,64,225
1,43,0,17
1,43,64,224
1,43,0,18
1,43,64,227
1,43,0,18
1,43,64,220
1,43,0,20
1,43,64,216
1,43,0,17
1,43,64,224
1,43,0,20
1,43,64,219
1,43,0,18
1,43,64,224
1,43,0,20
1,43,64,215
1,43,0,18
1,43,64,224
1,43,0,20
1,43,64,217
1,43,0,18
1,43,64,223
1,43,0,17
1,43,64,225
1,43,0,18
1,43,64,224
1,43,0,17
1,43,64,224
1,43,0,18
1,43,64,227
1,43,0,18
1,43,64,220
1,43,0,20
1,43,64,216
1,43,0,17
1,43,64,224
1,43,0,20
1,43,64,219
1,43,0,18
1,43,64,225
1,43,0,20
1,43,64,215
1,43,0,18
1,43,64,223
1,43,0,20
1,43,64,217
1,43,0,18
1,43,64,224
1,43,0,17
1,43,64,224
1,43,0,18
1,43,64,224
1,43,0,17
1,43,64,225
1,43,0,18
1,43,64,227
1,43,0,18
1,43,64,219
1,43,0,20
1,43,64,216
1,43,0,17
1,43,64,225
1,43,0,20
1,43,64,218
1,43,0,18
1,43,64,225
1,43,0,20
1,43,64,215
1,43,0,18
1,43,64,223
1,43,0,20
1,43,64,218
1,43,0,18
1,43,64,223
1,43,0,17
1,43,64,224
1,43,0,18
1,43,64,225
1,43,0,17
1,43,64,224
1,43,0,18
1,43,64,227
1,43,0,18
1,43,64,219
1,43,0,20
1,43,64,217
1,43,0,17
1,43,64,224
1,43,0,20
1,43,64,219
1,43,0,18
1,43,64,224
1,43,0,20
1,43,64,215
1,43,0,18
1,43,64,223
1,43,0,20
1,43,64,218
1,43,0,18
1,43,64,223
1,43,0,17
1,43,64,224
1,43,0,18
1,43,64,225
1,43,0,17
1,43,64,224
1,43,0,18
1,43,64,227
1,43,0,18
1,43,64,220
1,43,0,20
1,43,64,216
1,43,0,17
1,43,64,224
1,43,0,20
1,43,64,219
1,43,0,18
1,43,64,224
1,43,0,20
1,43,64,215
1,43,0,18
1,43,64,224
1,43,0,20
1,43,64,217
1,43,0,18
1,43,64,223
1,43,0,17
1,43,64,225
1,43,0,18
1,43,64,224
1,43,0,17
1,43,64,224
1,43,0,18
1,43,64,227
1,43,0,18
1,43,64,220
1,43,0,20
1,43,64,216
1,43,0,17
1,43,64,224
1,43,0,20
1,43,64,219
1,43,0,18
1,43,64,225
1,43,0,20
1,43,64,215
1,43,0,18
1,43,64,223
1,43,0,20
1,43,64,217
1,43,0,18
1,43,64,224
1,43,0,17
1,43,64,224
1,43,0,18
1,43,64,224
1,43,0,17
1,43,64,225
1,43,0,18
1,43,64,227
1,43,0,18
1,43,64,217
1,43,0,23
1,43,64,215
1,43,0,22
1,43,64,213
1,43,0,25
1,43,64,149
1,43,0,23
1,43,64,35
1,43,0,22
1,43,64,31
1,43,0,21
1,43,64,166
1,43,0,20
1,43,64,231
1,43,0,22
1,43,64,218
1,43,0,25
1,43,64,154
1,43,0,22
1,43,64,31
1,43,0,22
1,43,64,35
1,43,0,21
1,43,64,167
1,43,0,22
1,43,64,225
1,43,0,22
1,43,64,213
1,43,0,26
1,43,64,151
1,43,0,22
1,43,64,37
1,43,0,21
1,43,64,35
1,43,0,21
1,43,64,162
1,43,0,20
1,43,64,220
1,43,0,22
1,43,64,215
1,43,0,26
1,43,64,158
1,43,0,22
1,43,64,33
1,43,0,21
1,43,64,35
1,43,0,22
1,43,64,164
1,43,0,25
1,43,64,225
1,43,0,22
1,43,64,216
1,43,0,23
1,43,64,161
1,43,0,22
1,43,64,34
1,43,0,23
1,43,64,32
1,43,0,23
1,43,64,159
1,43,0,22
1,43,64,212
1,43,0,23
1,43,64,213
1,43,0,25
1,43,64,152
1,43,0,22
1,43,64,34
1,43,0,22
1,43,64,33
1,43,0,22
1,43,64,167
1,43,0,21
1,43,64,225
1,43,0,23
1,43,64,214
1,43,0,22
1,43,64,165
1,43,0,21
1,43,64,36
1,43,0,21
1,43,64,34
1,43,0,20
1,43,64,164
1,43,0,22
1,43,64,217
1,43,0,22
1,43,64,219
1,43,0,25
1,43,64,156
1,43,0,21
1,43,64,35
1,43,0,20
1,43,64,38
1,43,0,21
1,43,64,170
1,43,0,17
1,43,64,224
1,43,0,20
1,43,64,219
1,43,0,18
1,43,64,225
1,43,0,20
1,43,64,215
1,43,0,18
1,43,64,223
1,43,0,20
1,43,64,217
1,43,0,18
1,43,64,224
1,43,0,17
1,43,64,224
1,43,0,18
1,43,64,224
1,43,0,17
1,43,64,225
1,43,0,18
1,43,64,227
1,43,0,18
1,43,64,219
1,43,0,20
1,43,64,216
1,43,0,17
1,43,64,225
1,43,0,20
1,43,64,218
1,43,0,18
1,43,64,225
1,43,0,20
1,43,64,215
1,43,0,18
1,43,64,223
1,43,0,20
1,43,64,218
1,43,0,18
1,43,64,223
1,43,0,17
1,43,64,224
1,43,0,18
1,43,64,225
1,43,0,17
1,43,64,224
1,43,0,18
1,43,64,227
1,43,0,18
1,43,64,219
1,43,0,20
1,43,64,217
1,43,0,17
1,43,64,224
1,43,0,20
1,43,64,219
1,43,0,18
1,43,64,224
1,43,0,20
1,43,64,215
1,43,0,18
1,43,64,223
1,43,0,20
1,43,64,218
1,43,0,18
1,43,64,223
1,43,0,17
1,43,64,224
1,43,0,18
1,43,64,225
1,43,0,17
1,43,64,224
1,43,0,18
1,43,64,227
1,43,0,18
1,43,64,220
1,43,0,20
1,43,64,216
1,43,0,17
1,43,64,224
1,43,0,20
1,43,64,219
1,43,0,18
1,43,64,224
1,43,0,20
1,43,64,215
1,43,0,18
1,43,64,224
1,43,0,20
1,43,64,217
1,43,0,18
1,43,64,223
1,43,0,17
1,43,64,225
1,43,0,18
1,43,64,224
1,43,0,17
1,43,64,224
1,43,0,18
1,43,64,227
1,43,0,18
1,43,64,220
1,43,0,20
1,43,64,216
1,43,0,17
1,43,64,224
1,43,0,20
1,43,64,219
1,43,0,18
1,43,64,225
1,43,0,20
1,43,64,215
1,43,0,18
1,43,64,223
1,43,0,20
1,43,64,217
1,43,0,18
1,43,64,224
1,43,0,17
1,43,64,224
1,43,0,18
1,43,64,224
1,43,0,17
1,43,64,225
1,43,0,18
1,43,64,218
1,43,64,9
1,43,0,9
1,43,0,1
1,43,64,223
1,43,0,17
1,43,64,225
1,43,0,18
1,43,64,227
1,43,0,18
1,43,64,219
1,43,0,20
1,43,64,216
1,43,0,17
1,43,64,225
1,43,0,20
1,43,64,218
1,43,0,18
1,43,64,225
1,43,0,20
1,43,64,215
1,43,0,18
1,43,64,223
1,43,0,20
1,43,64,218
1,43,0,18
1,43,64,223
1,43,0,17
1,43,64,224
1,43,0,18
1,43,64,225
1,43,0,17
1,43,64,224
1,43,0,18
1,43,64,218
1,43,0,18
1,43,64,225
1,43,0,17
1,43,64,224
1,43,0,18
1,43,64,227
1,43,0,18
1,43,64,219
1,43,0,20
1,43,64,217
1,43,0,17
1,43,64,224
1,43,0,20
1,43,64,219
1,43,0,18
1,43,64,224
1,43,0,20
1,43,64,215
1,43,0,18
1,43,64,223
1,43,0,20
1,43,64,218
1,43,0,18
1,43,64,223
1,43,0,17
1,43,64,224
1,43,0,18
1,43,63,225
1,43,0,17
1,43,62,224
1,43,0,18
1,43,61,218
1,43,0,18
1,43,60,225
1,43,0,17
1,43,59,224
1,43,0,18
1,43,58,227
1,43,0,18
1,43,57,220
1,43,0,20
1,43,57,216
1,43,0,17
1,43,56,224
1,43,0,20
1,43,55,219
1,43,0,18
1,43,54,224
1,43,0,20
1,43,53,215
1,43,0,18
1,43,52,224
1,43,0,20
1,43,51,217
1,43,0,18
1,43,50,223
1,43,0,17
1,43,49,225
1,43,0,18
1,43,48,224
1,43,0,17
1,43,47,224
1,43,0,18
1,43,46,219
1,43,0,18
1,43,45,224
1,43,0,17
1,43,45,224
1,43,0,18
1,43,44,227
1,43,0,18
1,43,43,220
1,43,0,20
1,43,42,216
1,43,0,17
1,43,41,224
1,43,0,20
1,43,40,219
1,43,0,18
1,43,39,225
1,43,0,20
1,43,38,215
1,43,0,18
1,43,37,223
1,43,0,20
1,43,36,217
1,43,0,18
1,43,35,224
1,43,0,17
1,43,34,224
1,43,0,18
1,43,33,224
1,43,0,17
1,43,33,225
1,43,0,18
1,43,32,218
1,43,0,18
1,43,31,224
1,43,0,17
1,43,30,225
1,43,0,18
1,43,29,227
1,43,0,18
1,43,28,219
1,43,0,20
1,43,27,216
1,43,0,17
1,43,26,225
1,43,0,20
1,43,25,218
1,43,0,18
1,43,24,225
1,43,0,20
1,43,23,215
1,43,0,18
1,43,22,223
1,43,0,20
1,43,22,218
1,43,0,18
1,43,21,223
1,43,0,17
1,43,20,224
1,43,0,18
1,43,19,225
1,43,0,17
1,43,18,224
1,43,0,18
1,43,17,218
1,43,0,18
1,43,16,225
1,43,0,17
1,43,15,224
1,43,0,18
1,43,14,227
1,43,0,18
1,43,13,219
1,43,0,20
1,43,12,217
1,43,0,17
1,43,11,224
1,43,0,20
1,43,10,219
1,43,0,18
1,43,9,224
1,43,0,20
1,43,9,215
1,43,0,18
1,43,8,223
1,43,0,20
1,43,7,218
1,43,0,18
1,43,6,223
1,43,0,17
1,43,5,224
1,43,0,18
1,43,4,225
1,43,0,17
1,43,3,224
1,43,0,18
2,38,64,63
2,38,0,22
2,38,64,33
2,38,0,22
2,38,64,36
2,38,0,21
2,38,64,100
2,38,0,23
2,38,64,36
2,38,0,22
2,38,64,34
2,38,0,21
2,38,64,102
2,38,0,25
2,38,64,35
2,38,0,22
2,38,64,33
2,38,0,23
2,38,64,104
2,38,0,22
2,38,64,36
2,38,0,23
2,38,64,30
2,38,0,22
2,38,64,103
2,38,0,23
2,38,64,36
2,38,0,23
2,38,64,33
2,38,0,22
2,38,64,102
2,38,0,23
2,38,64,36
2,38,0,25
2,38,64,34
2,38,0,21
2,38,64,101
2,38,0,25
2,38,64,31
2,38,0,25
2,38,64,32
2,38,0,23
2,38,64,107
2,38,0,22
2,38,64,34
2,38,0,25
2,38,64,31
2,38,0,22
2,38,64,103
2,38,0,25
2,38,64,34
2,38,0,25
2,38,64,34
2,38,0,22
2,38,64,99
2,38,0,23
2,38,64,36
2,38,0,22
2,38,64,36
2,38,0,21
2,38,64,99
2,38,0,22
2,38,64,37
2,38,0,22
2,38,64,36
2,38,0,22
2,38,64,96
2,38,0,22
2,38,64,38
2,38,0,22
2,38,64,33
2,38,0,22
2,38,64,102
2,38,0,22
2,38,64,37
2,38,0,22
2,38,64,35
2,38,0,22
2,38,64,103
2,38,0,22
2,38,64,38
2,38,0,21
2,38,64,34
2,38,0,21
2,38,64,113
2,38,0,22
2,38,64,36
2,38,0,22
2,38,64,36
2,38,0,21
2,38,64,99
2,38,0,23
2,38,64,39
2,38,0,22
2,38,64,34
2,38,0,21
2,38,64,106
2,38,0,22
2,38,64,36
2,38,0,22
2,38,64,34
2,38,0,21
2,38,64,100
2,38,0,21
2,38,64,39
2,38,0,21
2,38,64,39
2,38,0,18
2,38,64,105
2,38,0,20
2,38,64,39
2,38,0,21
2,38,64,36
2,38,0,20
2,38,64,99
2,38,0,21
2,38,64,41
2,38,0,21
2,38,64,34
2,38,0,22
2,38,64,100
2,38,0,23
2,38,64,37
2,38,0,22
2,38,64,34
2,38,0,25
2,38,64,100
2,38,0,23
2,38,64,37
2,38,0,22
2,38,64,35
2,38,0,23
2,38,64,105
2,38,0,23
2,38,64,37
2,38,0,22
2,38,64,39
2,38,0,22
2,38,64,101
2,38,0,23
2,38,64,37
2,38,0,22
2,38,64,35
2,38,0,20
2,38,64,99
2,38,0,22
2,38,64,37
2,38,0,22
2,38,64,36
2,38,0,21
2,38,64,103
2,38,0,21
2,38,64,38
2,38,0,21
2,38,64,39
2,38,0,20
2,38,64,105
2,38,0,21
2,38,64,35
2,38,0,22
2,38,64,36
2,38,0,21
2,38,64,102
2,38,0,21
2,38,64,37
2,38,0,22
2,38,64,37
2,38,0,20
2,38,64,100
2,38,0,23
2,38,64,35
2,38,0,22
2,38,64,40
2,38,0,20
2,38,64,112
2,38,0,21
2,38,64,37
2,38,0,22
2,38,64,36
2,38,0,20
2,38,64,98
2,38,0,20
2,38,64,36
2,38,0,21
2,38,64,37
2,38,0,20
2,38,64,101
2,38,0,22
2,38,64,34
2,38,0,22
2,38,64,36
2,38,0,22
2,38,64,101
2,38,0,21
2,38,64,39
2,38,0,22
2,38,64,38
2,38,0,20
2,38,64,104
2,38,0,22
2,38,64,38
2,38,0,22
2,38,64,41
2,38,0,20
2,38,64,106
2,38,0,22
2,38,64,37
2,38,0,21
2,38,64,37
2,38,0,21
2,38,64,98
2,38,0,22
2,38,64,38
2,38,0,21
2,38,64,38
2,38,0,21
2,38,64,98
2,38,0,21
2,38,64,37
2,38,0,22
2,38,64,38
2,38,0,20
2,38,64,104
2,38,0,21
2,38,64,35
2,38,0,21
2,38,64,38
2,38,0,22
2,38,64,102
2,38,0,22
2,38,64,35
2,38,0,22
2,38,64,38
2,38,0,20
2,38,64,99
2,38,0,21
2,38,64,39
2,38,0,21
2,38,64,37
2,38,0,20
2,38,64,105
2,38,0,23
2,38,64,34
2,38,0,22
2,38,64,34
2,38,0,20
2,38,64,99
2,38,0,22
2,38,64,36
2,38,0,21
2,38,64,35
2,38,0,21
2,38,64,109
2,38,0,21
2,38,64,36
2,38,0,21
2,38,64,36
2,38,0,18
2,38,64,113
2,38,0,21
2,38,64,35
2,38,0,22
2,38,64,36
2,38,0,20
2,38,64,105
2,38,0,21
2,38,64,35
2,38,0,21
2,38,64,36
2,38,0,20
2,38,64,104
2,38,0,21
2,38,64,37
2,38,0,22
2,38,64,34
2,38,0,21
