track,note,velocity,time
10,69,127,0
10,72,127,0
10,76,127,0
10,81,127,0
10,64,127,0
10,67,127,0
10,71,127,0
10,76,127,0
10,65,127,0
10,69,127,0
10,72,127,0
10,77,127,0
10,60,127,0
10,64,127,0
10,68,127,0
10,71,127,0
10,72,127,0
10,69,127,0
10,72,127,0
10,76,127,0
10,81,127,0
10,69,127,0
10,72,127,0
10,76,127,0
10,81,127,0
10,69,127,0
10,72,127,0
10,76,127,0
10,81,127,0
10,69,127,0
10,72,127,0
10,76,127,0
10,81,127,0
10,69,127,0
10,72,127,0
10,76,127,0
10,81,127,0
10,69,127,0
10,72,127,0
10,76,127,0
10,81,127,0
10,69,127,0
10,72,127,0
10,76,127,0
10,81,127,0
10,69,127,0
10,72,127,0
10,76,127,0
10,81,127,0
10,69,127,15360
10,72,127,0
10,76,127,0
10,81,127,0
10,69,127,0
10,72,127,0
10,76,127,0
10,81,127,0
10,69,127,0
10,72,127,0
10,76,127,0
10,81,127,0
10,69,127,0
10,72,127,0
10,76,127,0
10,81,127,0
10,69,127,0
10,72,127,0
10,76,127,0
10,81,127,0
10,69,127,0
10,72,127,0
10,76,127,0
10,81,127,0
10,69,127,0
10,72,127,0
10,76,127,0
10,81,127,0
10,69,127,0
10,72,127,0
10,76,127,0
10,81,127,0
10,69,127,0
10,72,127,0
10,76,127,0
10,81,127,0
10,69,127,0
10,72,127,0
10,76,127,0
10,81,127,0
10,69,127,0
10,72,127,0
10,76,127,0
10,81,127,0
10,69,127,0
10,72,127,0
10,76,127,0
10,81,127,0
10,69,127,0
10,72,127,0
10,76,127,0
10,81,127,0
10,69,127,0
10,72,127,0
10,76,127,0
10,81,127,0
10,69,127,0
10,72,127,0
10,76,127,0
10,81,127,0
10,69,127,0
10,72,127,0
10,76,127,0
10,81,127,0
10,69,127,15360
10,72,127,0
10,76,127,0
10,81,127,0
10,69,127,0
10,72,127,0
10,76,127,0
10,81,127,0
10,69,127,0
10,72,127,0
10,76,127,0
10,81,127,0
10,69,127,0
10,72,127,0
10,76,127,0
10,81,127,0
10,69,127,0
10,72,127,0
10,76,127,0
10,81,127,0
10,69,127,0
10,72,127,0
10,76,127,0
10,81,127,0
10,69,127,0
10,72,127,0
10,76,127,0
10,81,127,0
10,69,127,0
10,72,127,0
10,76,127,0
10,81,127,0
10,69,127,0
10,72,127,0
10,76,127,0
10,81,127,0
10,69,127,0
10,72,127,0
10,76,127,0
10,81,127,0
10,69,127,0
10,72,127,0
10,76,127,0
10,81,127,0
10,69,127,0
10,72,127,0
10,76,127,0
10,81,127,0
10,69,127,0
10,72,127,0
10,76,127,0
10,81,127,0
10,69,127,0
10,72,127,0
10,76,127,0
10,81,127,0
10,69,127,0
10,72,127,0
10,76,127,0
10,81,127,0
10,69,127,0
10,72,127,0
10,76,127,0
10,81,127,0
10,69,127,15360
10,72,127,0
10,76,127,0
10,81,127,0
10,69,127,0
10,72,127,0
10,76,127,0
10,81,127,0
10,69,127,0
10,72,127,0
10,76,127,0
10,81,127,0
10,69,127,0
10,72,127,0
10,76,127,0
10,81,127,0
10,69,127,0
10,72,127,0
10,76,127,0
10,81,127,0
10,69,127,0
10,72,127,0
10,76,127,0
10,81,127,0
10,69,127,0
10,72,127,0
10,76,127,0
10,81,127,0
10,69,127,0
10,72,127,0
10,76,127,0
10,81,127,0
10,69,127,0
10,72,127,0
10,76,127,0
10,81,127,0
10,69,127,0
10,72,127,0
10,76,127,0
10,81,127,0
10,69,127,0
10,72,127,0
10,76,127,0
10,81,127,0
10,69,127,0
10,72,127,0
10,76,127,0
10,81,127,0
10,69,127,0
10,72,127,0
10,76,127,0
10,81,127,0
10,69,127,0
10,72,127,0
10,76,127,0
10,81,127,0
10,69,127,0
10,72,127,0
10,76,127,0
10,81,127,0
10,69,127,0
10,72,127,0
10,76,127,0
10,81,127,0
10,69,127,0
10,72,127,0
10,76,127,0
10,81,127,0
10,69,127,0
10,72,127,0
10,76,127,0
10,81,127,0
10,69,127,0
10,72,127,0
10,76,127,0
10,81,127,0
10,69,127,0
10,72,127,0
10,76,127,0
10,81,127,0
10,69,127,0
10,72,127,0
10,76,127,0
10,81,127,0
10,69,127,0
10,72,127,0
10,76,127,0
10,81,127,0
10,69,127,0
10,72,127,0
10,76,127,0
10,81,127,0
10,69,127,0
10,72,127,0
10,76,127,0
10,81,127,0
10,69,127,0
10,72,127,0
10,76,127,0
10,81,127,0
10,69,127,0
10,72,127,0
10,76,127,0
10,81,127,0
10,69,127,0
10,72,127,0
10,76,127,0
10,81,127,0
10,69,127,0
10,72,127,0
10,76,127,0
10,81,127,0
10,69,127,0
10,72,127,0
10,76,127,0
10,81,127,0
10,69,127,0
10,72,127,0
10,76,127,0
10,81,127,0
10,69,127,0
10,72,127,0
10,76,127,0
10,81,127,0
10,69,127,0
10,72,127,0
10,76,127,0
10,81,127,0
10,69,127,15360
10,72,127,0
10,76,127,0
10,81,127,0
10,69,127,0
10,72,127,0
10,76,127,0
10,81,127,0
10,69,127,0
10,72,127,0
10,76,127,0
10,81,127,0
10,69,127,0
10,72,127,0
10,76,127,0
10,81,127,0
10,69,127,0
10,72,127,0
10,76,127,0
10,81,127,0
10,69,127,0
10,72,127,0
10,76,127,0
10,81,127,0
10,69,127,0
10,72,127,0
10,76,127,0
10,81,127,0
10,69,127,0
10,72,127,0
10,76,127,0
10,81,127,0
10,69,127,0
10,72,127,0
10,76,127,0
10,81,127,0
10,69,127,0
10,72,127,0
10,76,127,0
10,81,127,0
10,69,127,0
10,72,127,0
10,76,127,0
10,81,127,0
10,69,127,0
10,72,127,0
10,76,127,0
10,81,127,0
10,69,127,0
10,72,127,0
10,76,127,0
10,81,127,0
10,69,127,0
10,72,127,0
10,76,127,0
10,81,127,0
10,69,127,0
10,72,127,0
10,76,127,0
10,81,127,0
10,69,127,0
10,72,127,0
10,76,127,0
10,81,127,0
10,69,127,0
10,57,100,0
10,72,127,1920
10,76,127,0
10,81,127,0
10,64,127,0
10,52,100,0
10,67,127,1920
10,71,127,0
10,76,127,0
10,65,127,0
10,53,100,0
10,69,127,1920
10,72,127,0
10,77,127,0
10,60,127,0
10,48,100,0
10,64,127,1920
10,68,127,0
10,71,127,0
10,72,127,0
10,69,127,0
10,72,127,0
10,76,127,0
10,81,127,0
10,69,127,0
10,72,127,0
10,76,127,0
10,81,127,0
10,69,127,0
10,72,127,0
10,76,127,0
10,81,127,0
10,69,127,0
10,72,127,0
10,76,127,0
10,81,127,0
10,69,127,0
10,72,127,0
10,76,127,0
10,81,127,0
10,69,127,0
10,72,127,0
10,76,127,0
10,81,127,0
10,69,127,0
10,72,127,0
10,76,127,0
10,81,127,0
10,69,127,0
10,72,127,0
10,76,127,0
10,81,127,0
10,69,127,0
10,72,127,0
10,76,127,0
10,81,127,0
10,69,127,0
10,72,127,0
10,76,127,0
10,81,127,0
10,69,127,0
10,72,127,0
10,76,127,0
10,81,127,0
10,69,127,0
10,72,127,0
10,76,127,0
10,81,127,0
10,69,127,0
10,72,127,0
10,76,127,0
10,81,127,0
10,69,127,0
10,72,127,0
10,76,127,0
10,81,127,0
10,69,127,0
10,72,127,0
10,76,127,0
10,81,127,0
10,69,127,0
10,72,127,0
10,76,127,0
10,81,127,0
10,69,127,0
10,57,70,0
10,72,127,0
10,76,127,0
10,81,127,0
10,69,127,0
10,72,127,0
10,76,127,0
10,81,127,0
10,69,127,0
10,72,127,0
10,76,127,0
10,81,127,0
10,69,127,0
10,72,127,0
10,76,127,0
10,81,127,0
10,69,127,0
10,72,127,0
10,76,127,0
10,81,127,0
10,69,127,0
10,72,127,0
10,76,127,0
10,81,127,0
10,69,127,0
10,72,127,0
10,76,127,0
10,81,127,0
10,69,127,0
10,72,127,0
10,76,127,0
10,81,127,0
10,69,127,0
10,72,127,0
10,76,127,0
10,81,127,0
10,69,127,0
10,72,127,0
10,76,127,0
10,81,127,0
10,69,110,0
11,45,100,0
11,45,100,20
11,45,100,20
11,45,101,20
11,45,102,20
11,45,102,20
11,45,102,20
11,45,103,20
11,45,104,20
11,45,104,20
11,45,104,20
11,45,105,20
11,45,106,20
11,45,106,20
11,45,106,20
11,45,107,20
11,45,108,20
11,45,108,20
11,45,108,20
11,45,109,20
11,45,110,20
11,45,110,20
11,45,110,20
11,45,111,20
11,45,112,20
11,45,112,20
11,45,112,20
11,45,113,20
11,45,114,20
11,45,114,20
11,45,114,20
11,45,115,20
11,45,116,20
11,45,116,20
11,45,116,20
11,45,117,20
11,45,118,20
11,45,118,20
11,45,118,20
11,45,119,20
11,45,120,20
11,45,120,20
11,45,120,20
11,45,121,20
11,45,122,20
11,45,122,20
11,45,122,20
11,45,123,20
11,45,124,20
11,45,124,20
11,45,124,20
11,45,125,20
11,45,126,20
11,45,126,20
11,45,126,20
11,45,127,20
11,45,127,20
11,45,127,20
11,45,127,20
11,45,127,20
11,45,127,20
11,45,127,20
11,45,127,20
11,45,127,20
11,45,127,20
11,45,127,20
11,57,127,0
11,57,127,20
11,45,127,0
11,45,127,0
11,52,127,240
11,57,127,0
11,45,127,0
11,45,127,20
11,57,127,0
11,57,127,20
11,45,127,0
11,45,127,20
11,52,127,240
11,57,127,0
11,45,127,0
11,45,127,20
11,57,127,0
11,57,127,20
11,45,127,0
11,45,127,20
11,52,127,0
11,57,127,0
11,45,127,0
11,45,127,20
11,57,127,0
11,57,127,20
11,45,127,0
11,45,127,20
11,52,127,240
11,57,127,0
11,45,127,0
11,45,127,20
11,57,127,0
11,57,127,20
11,45,127,0
11,45,127,20
11,52,127,240
11,57,127,0
11,40,127,0
11,40,127,20
11,52,127,0
11,52,127,20
11,40,127,0
11,40,127,20
11,47,127,0
11,52,127,0
11,41,127,0
11,41,127,20
11,53,127,0
11,53,127,20
11,41,127,0
11,41,127,20
11,48,127,0
11,53,127,0
11,36,127,0
11,36,127,20
11,48,127,0
11,48,127,20
11,40,127,0
11,40,127,20
11,47,127,0
11,52,127,0
11,45,127,0
11,45,127,20
11,57,127,0
11,57,127,20
11,45,127,0
11,45,127,20
11,52,127,240
11,57,127,0
11,40,127,0
11,40,127,20
11,52,127,0
11,52,127,20
11,40,127,0
11,40,127,20
11,47,127,0
11,52,127,0
11,41,127,0
11,41,127,20
11,53,127,0
11,53,127,20
11,41,127,0
11,41,127,20
11,48,127,0
11,53,127,0
11,36,127,0
11,36,127,20
11,48,127,0
11,48,127,20
11,40,127,0
11,40,127,20
11,47,127,0
11,52,127,0
11,45,127,0
11,45,127,20
11,57,127,0
11,57,127,20
11,41,127,0
11,41,127,20
11,53,127,0
11,53,127,20
11,43,127,0
11,43,127,20
11,55,127,0
11,55,127,20
11,43,127,0
11,43,127,20
11,50,127,0
11,55,127,0
11,45,127,0
11,45,127,20
11,57,127,0
11,57,127,20
11,41,127,0
11,41,127,20
11,53,127,0
11,53,127,20
11,43,127,0
11,43,127,20
11,55,127,0
11,55,127,20
11,43,127,0
11,43,127,20
11,50,127,0
11,55,127,0
11,45,127,0
11,45,127,20
11,57,127,0
11,57,127,20
11,41,127,0
11,41,127,20
11,53,127,0
11,53,127,20
11,43,127,0
11,43,127,20
11,55,127,0
11,55,127,20
11,43,127,0
11,43,127,20
11,50,127,0
11,55,127,0
11,45,127,0
11,45,127,20
11,57,127,0
11,57,127,20
11,41,127,0
11,41,127,20
11,53,127,0
11,53,127,20
11,43,127,0
11,43,127,20
11,55,127,0
11,55,127,20
11,43,127,0
11,43,127,20
11,50,127,0
11,55,127,0
11,45,127,0
11,45,127,20
11,57,127,0
11,57,127,20
11,45,127,0
11,45,127,20
11,52,127,240
11,57,127,0
11,40,127,0
11,40,127,20
11,52,127,0
11,52,127,20
11,40,127,0
11,40,127,20
11,47,127,0
11,52,127,0
11,41,127,0
11,41,127,20
11,53,127,0
11,53,127,20
11,41,127,0
11,41,127,20
11,48,127,0
11,53,127,0
11,36,127,0
11,36,127,20
11,48,127,0
11,48,127,20
11,40,127,0
11,40,127,20
11,47,127,0
11,52,127,0
11,45,127,0
11,45,127,20
11,57,127,0
11,57,127,20
11,45,127,0
11,45,127,20
11,52,127,240
11,57,127,0
11,40,127,0
11,40,127,20
11,52,127,0
11,52,127,20
11,40,127,0
11,40,127,20
11,47,127,0
11,52,127,0
11,41,127,0
11,41,127,20
11,53,127,0
11,53,127,20
11,41,127,0
11,41,127,20
11,48,127,0
11,53,127,0
11,36,127,0
11,36,127,20
11,48,127,0
11,48,127,20
11,40,127,0
11,40,127,20
11,47,127,0
11,52,127,0
11,45,127,0
11,45,127,20
11,57,127,0
11,57,127,20
11,41,127,0
11,41,127,20
11,53,127,0
11,53,127,20
11,43,127,0
11,43,127,20
11,55,127,0
11,55,127,20
11,43,127,0
11,43,127,20
11,50,127,0
11,55,127,0
11,45,127,0
11,45,127,20
11,57,127,0
11,57,127,20
11,41,127,0
11,41,127,20
11,53,127,0
11,53,127,20
11,43,127,0
11,43,127,20
11,55,127,0
11,55,127,20
11,43,127,0
11,43,127,20
11,50,127,0
11,55,127,0
11,45,127,0
11,45,127,20
11,57,127,0
11,57,127,20
11,41,127,0
11,41,127,20
11,53,127,0
11,53,127,20
11,43,127,0
11,43,127,20
11,55,127,0
11,55,127,20
11,43,127,0
11,43,127,20
11,50,127,0
11,55,127,0
11,45,127,0
11,45,127,20
11,57,127,0
11,57,127,20
11,41,127,0
11,41,127,20
11,53,127,0
11,53,127,20
11,43,127,0
11,43,127,20
11,55,127,0
11,55,127,20
11,43,127,0
11,43,127,20
11,50,127,0
11,55,127,0
11,45,127,0
11,45,127,20
11,45,127,20
11,45,127,20
11,45,127,20
11,45,127,20
11,45,127,20
11,45,127,20
11,45,127,20
11,45,127,20
11,45,127,20
11,45,127,20
11,45,127,20
11,45,127,20
11,45,127,20
11,45,127,20
11,45,127,20
11,45,127,20
11,45,127,20
11,45,127,20
11,45,127,20
11,45,127,20
11,45,127,20
11,45,127,20
11,45,127,20
11,45,127,20
11,45,127,20
11,45,127,20
11,45,127,20
11,45,127,20
11,45,127,20
11,45,127,20
11,45,127,20
11,45,127,20
11,57,127,0
11,57,127,20
11,45,127,0
11,45,127,20
11,52,127,240
11,57,127,0
11,40,127,0
11,40,127,20
11,52,127,0
11,52,127,20
11,40,127,0
11,40,127,20
11,47,127,0
11,52,127,0
11,41,127,0
11,41,127,20
11,53,127,0
11,53,127,20
11,41,127,0
11,41,127,20
11,48,127,0
11,53,127,0
11,36,127,0
11,36,127,20
11,48,127,0
11,48,127,20
11,40,127,0
11,40,127,20
11,47,127,0
11,52,127,0
11,45,127,0
11,45,127,20
11,57,127,0
11,57,127,20
11,45,127,0
11,45,127,20
11,52,127,240
11,57,127,0
11,40,127,0
11,40,127,20
11,52,127,0
11,52,127,20
11,40,127,0
11,40,127,20
11,47,127,0
11,52,127,0
11,41,127,0
11,41,127,20
11,53,127,0
11,53,127,20
11,41,127,0
11,41,127,20
11,48,127,0
11,53,127,0
11,36,127,0
11,36,127,20
11,48,127,0
11,48,127,20
11,40,127,0
11,40,127,20
11,47,127,0
11,52,127,0
11,45,127,0
11,45,127,20
11,57,127,0
11,57,127,20
11,41,127,0
11,41,127,20
11,53,127,0
11,53,127,20
11,43,127,0
11,43,127,20
11,55,127,0
11,55,127,20
11,43,127,0
11,43,127,20
11,50,127,0
11,55,127,0
11,45,127,0
11,45,127,20
11,57,127,0
11,57,127,20
11,41,127,0
11,41,127,20
11,53,127,0
11,53,127,20
11,43,127,0
11,43,127,20
11,55,127,0
11,55,127,20
11,43,127,0
11,43,127,20
11,50,127,0
11,55,127,0
11,45,127,0
11,45,127,20
11,57,127,0
11,57,127,20
11,41,127,0
11,41,127,20
11,53,127,0
11,53,127,20
11,43,127,0
11,43,127,20
11,55,127,0
11,55,127,20
11,43,127,0
11,43,127,20
11,50,127,0
11,55,127,0
11,45,127,0
11,45,127,20
11,57,127,0
11,57,127,20
11,41,127,0
11,41,127,20
11,53,127,0
11,53,127,20
