track,note,velocity,time
1,36,64,0
1,36,64,24
1,36,64,120
1,48,64,24
1,36,64,24
1,48,64,24
1,36,64,24
1,36,64,24
1,36,64,120
1,48,64,24
1,36,64,24
1,48,64,24
1,32,64,24
1,32,64,24
1,32,64,120
1,44,64,24
1,32,64,24
1,44,64,24
1,32,64,24
1,32,64,24
1,32,64,120
1,44,64,24
1,32,64,24
1,44,64,24
1,36,64,24
1,36,64,24
1,36,64,120
1,48,64,24
1,36,64,24
1,48,64,24
1,36,64,24
1,36,64,24
1,36,64,120
1,48,64,24
1,36,64,24
1,48,64,24
1,32,64,24
1,32,64,24
1,32,64,120
1,44,64,24
1,32,64,24
1,44,64,24
1,32,64,24
1,32,64,24
1,32,64,120
1,44,64,24
1,32,64,24
1,44,64,24
1,36,64,24
1,36,64,12
1,36,64,120
1,48,64,12
1,36,64,24
1,48,64,12
1,36,64,12
1,36,64,12
1,36,64,120
1,48,64,12
1,36,64,24
1,48,64,12
1,44,64,12
1,44,64,12
1,44,64,120
1,44,64,12
1,44,64,24
1,44,64,24
1,44,64,24
1,44,64,12
1,44,64,120
1,44,64,12
1,44,64,24
1,44,64,24
1,36,64,24
1,36,64,12
1,36,64,120
1,48,64,12
1,36,64,24
1,48,64,12
1,36,64,12
1,36,64,12
1,36,64,120
1,48,64,12
1,36,64,24
1,48,64,12
1,44,64,12
1,44,64,12
1,44,64,120
1,44,64,12
1,44,64,24
1,44,64,24
1,44,64,24
1,44,64,12
1,44,64,120
1,44,64,12
1,44,64,24
1,44,64,24
1,36,64,24
1,36,64,12
1,36,64,120
1,48,64,12
1,36,64,24
1,48,64,12
1,44,64,12
1,44,64,12
1,44,64,120
1,44,64,12
1,44,64,24
1,44,64,24
1,36,64,24
1,36,64,12
1,36,64,120
1,48,64,12
1,36,64,24
1,48,64,12
1,44,64,12
1,44,64,12
1,44,64,120
1,44,64,12
1,44,64,24
1,44,64,24
1,36,64,24
1,36,64,12
1,36,64,120
1,48,64,12
1,48,64,24
1,48,64,24
1,44,64,24
1,53,64,0
1,51,64,12
1,44,64,0
1,53,64,12
1,44,64,12
1,51,64,0
1,44,64,12
1,53,64,0
1,44,64,24
1,48,64,0
1,44,64,24
1,36,64,24
1,36,64,12
1,36,64,120
1,48,64,12
1,48,64,24
1,48,64,24
1,44,64,24
1,53,64,0
1,53,64,12
1,44,64,0
1,51,64,12
1,44,64,12
1,53,64,0
1,44,64,12
1,44,64,24
1,55,64,0
1,44,64,24
1,36,64,24
1,36,64,12
1,36,64,120
1,48,64,12
1,48,64,24
1,48,64,24
1,44,64,24
1,44,64,12
1,44,64,120
1,44,64,12
1,44,64,24
1,44,64,24
1,36,64,24
1,36,64,12
1,48,64,120
1,36,64,12
1,44,64,24
1,44,64,24
1,44,64,24
1,44,64,12
1,44,64,120
1,44,64,12
1,44,64,24
1,44,64,24
1,36,64,24
1,36,64,12
1,36,64,120
1,48,64,12
1,36,64,24
1,48,64,12
1,36,64,12
1,36,64,12
1,36,64,120
1,48,64,12
1,36,64,24
1,48,64,12
1,44,64,12
1,44,64,12
1,44,64,120
1,44,64,12
1,44,64,24
1,44,64,24
1,44,64,24
1,44,64,12
1,44,64,120
1,44,64,12
1,44,64,24
1,44,64,24
1,36,64,24
1,36,64,12
1,36,64,120
1,48,64,12
1,36,64,24
1,48,64,12
1,36,64,12
1,36,64,12
1,36,64,120
1,48,64,12
1,36,64,24
1,48,64,12
1,44,64,12
1,44,64,12
1,44,64,120
1,44,64,12
1,44,64,24
1,44,64,24
1,44,64,24
1,44,64,12
1,44,64,120
1,44,64,12
1,44,64,24
1,44,64,24
1,36,64,24
1,36,64,12
1,36,64,120
1,48,64,12
1,36,64,24
1,48,64,12
1,44,64,12
1,44,64,12
1,44,64,120
1,44,64,12
1,44,64,24
1,44,64,24
1,36,64,24
1,36,64,12
1,36,64,120
1,48,64,12
1,36,64,24
1,48,64,12
1,44,64,12
1,44,64,12
1,44,64,120
1,44,64,12
1,44,64,24
1,44,64,24
1,36,64,24
1,36,64,12
1,36,64,120
1,48,64,12
1,48,64,24
1,48,64,24
1,44,64,24
1,53,64,0
1,51,64,12
1,44,64,0
1,53,64,12
1,44,64,12
1,51,64,0
1,44,64,12
1,53,64,0
1,44,64,24
1,48,64,0
1,44,64,24
1,36,64,24
1,36,64,12
1,36,64,120
1,48,64,12
1,48,64,24
1,48,64,24
1,44,64,24
1,53,64,0
1,53,64,12
1,44,64,0
1,51,64,12
1,44,64,12
1,53,64,0
1,44,64,12
1,44,64,24
1,56,64,0
1,44,64,24
1,36,64,24
1,36,64,12
1,36,64,120
1,48,64,12
1,48,64,24
1,48,64,24
1,44,64,24
1,44,64,12
1,44,64,120
1,44,64,12
1,44,64,24
1,44,64,24
1,36,64,24
1,36,64,12
1,48,64,120
1,36,64,12
1,44,64,24
1,44,64,24
1,44,64,24
1,44,64,12
1,44,64,120
1,44,64,12
1,44,64,24
1,44,64,24
1,41,64,24
1,41,64,12
1,41,64,120
1,46,64,12
1,46,64,24
1,46,64,12
1,36,64,24
1,36,64,12
1,36,64,120
1,48,64,12
1,36,64,24
1,48,64,12
1,41,64,12
1,41,64,12
1,41,64,120
1,46,64,24
1,46,64,24
1,46,64,12
1,36,64,24
1,36,64,12
1,36,64,120
1,48,64,12
1,36,64,24
1,48,64,12
1,41,64,12
1,41,64,12
1,41,64,120
1,46,64,12
1,46,64,24
1,46,64,12
1,36,64,24
1,36,64,12
1,36,64,120
1,48,64,12
1,36,64,24
1,48,64,12
1,44,64,12
1,44,64,12
1,44,64,120
1,44,64,12
1,44,64,24
1,44,64,24
1,44,64,24
1,44,64,12
1,44,64,120
1,44,64,12
1,44,64,24
1,44,64,24
1,36,64,24
1,36,64,12
1,36,64,120
1,48,64,12
1,36,64,24
1,48,64,12
1,44,64,12
1,44,64,12
1,44,64,120
1,44,64,12
1,44,64,24
1,44,64,24
1,36,64,24
1,36,64,12
1,48,64,120
1,36,64,12
1,48,64,24
1,48,64,12
1,44,64,24
1,44,64,12
1,44,64,120
1,44,64,12
1,44,64,24
1,44,64,24
1,36,64,24
1,36,64,12
1,36,64,120
1,48,64,12
1,36,64,24
1,48,64,12
1,36,64,12
1,36,64,12
1,36,64,120
1,48,64,12
1,36,64,24
1,48,64,12
1,44,64,12
1,44,64,12
1,44,64,120
1,44,64,12
1,44,64,24
1,44,64,24
1,44,64,24
1,44,64,12
1,44,64,120
1,44,64,12
1,44,64,24
1,44,64,24
1,36,64,24
1,36,64,12
1,36,64,120
1,48,64,12
1,36,64,24
1,48,64,12
1,36,64,12
1,36,64,12
1,36,64,120
1,48,64,12
1,36,64,24
1,48,64,12
1,44,64,12
1,44,64,12
1,44,64,120
1,44,64,12
1,44,64,24
1,44,64,24
1,44,64,24
1,44,64,12
1,44,64,120
1,44,64,12
1,44,64,24
1,44,64,24
1,36,64,24
1,36,64,12
1,36,64,120
1,48,64,12
1,36,64,24
1,48,64,12
1,44,64,12
1,44,64,12
1,44,64,120
1,44,64,12
1,44,64,24
1,44,64,24
1,36,64,24
1,36,64,12
1,36,64,120
1,48,64,12
1,36,64,24
1,48,64,12
1,44,64,12
1,44,64,12
1,44,64,120
1,44,64,12
1,44,64,24
1,44,64,24
1,36,64,24
1,36,64,12
1,36,64,120
1,48,64,12
1,48,64,24
1,48,64,24
1,44,64,24
1,53,64,0
1,51,64,12
1,44,64,0
1,53,64,12
1,44,64,12
1,51,64,0
1,44,64,12
1,53,64,0
1,44,64,24
1,48,64,0
1,44,64,24
1,36,64,24
1,36,64,12
1,36,64,120
1,48,64,12
1,48,64,24
1,48,64,24
1,44,64,24
1,53,64,0
1,53,64,12
1,44,64,0
1,51,64,12
1,44,64,12
1,53,64,0
1,44,64,12
1,44,64,24
1,56,64,0
1,44,64,24
1,36,100,24
1,36,98,12
1,36,93,120
1,48,91,12
1,48,86,24
1,48,84,24
1,44,82,24
1,44,79,12
1,44,74,120
1,44,72,12
1,44,67,24
1,44,65,24
1,36,63,0
1,36,60,0
1,48,56,48
1,36,53,0
1,44,48,24
1,44,46,24
1,44,44,0
1,44,41,0
1,44,37,48
1,44,34,0
1,44,30,24
1,44,27,24
1,36,25,0
1,36,22,0
1,36,18,48
1,48,15,0
1,48,11,24
1,48,8,24
1,44,6,0
1,44,4,0
1,44,1,48
1,44,1,0
1,44,1,24
1,44,1,24
1,36,1,0
1,36,1,0
1,48,1,48
1,36,1,0
1,44,1,24
1,44,1,24
1,44,1,0
1,44,1,0
1,44,1,48
1,44,1,0
1,44,1,24
1,44,1,24
1,36,1,0
1,36,1,0
1,36,1,48
1,48,1,0
1,48,1,24
1,48,1,24
1,44,1,0
1,44,1,0
1,44,1,48
1,44,1,0
1,44,1,24
1,44,1,24
1,36,1,0
1,36,1,0
1,48,1,48
1,36,1,0
1,44,1,24
1,44,1,24
1,44,1,0
1,44,1,0
1,44,1,48
1,44,1,0
1,44,1,24
1,44,1,24
2,60,64,6048
2,67,64,12
2,65,64,12
2,67,64,12
2,65,64,12
2,67,64,24
2,65,64,24
2,67,64,12
2,65,64,12
2,67,64,12
2,67,64,24
2,63,64,24
2,60,64,876
2,67,64,12
2,65,64,12
2,67,64,12
2,65,64,12
2,67,64,24
2,65,64,24
2,67,64,12
2,65,64,12
2,67,64,12
2,67,64,24
2,63,64,24
2,65,64,876
2,67,64,12
2,67,64,12
2,65,64,12
2,67,64,36
2,67,64,24
2,65,64,24
2,63,64,24
2,67,64,192
2,67,64,12
2,65,64,12
2,67,64,36
2,67,64,24
2,65,64,24
2,63,64,24
2,67,64,192
2,67,64,12
2,65,64,24
2,67,64,12
2,72,64,24
2,70,64,12
2,63,64,0
2,65,64,12
2,63,64,12
2,65,64,12
2,63,64,24
2,65,64,12
2,60,64,0
2,67,64,24
2,67,64,12
2,65,64,12
2,67,64,24
2,65,64,24
2,63,64,12
2,60,64,0
2,65,64,24
2,65,64,24
2,65,64,108
2,67,64,0
2,65,64,3000
2,67,64,12
2,65,64,12
2,67,64,12
2,65,64,12
2,67,64,24
2,65,64,24
2,67,64,12
2,65,64,12
2,67,64,12
2,67,64,24
2,63,64,24
2,60,64,876
2,67,64,12
2,65,64,12
2,67,64,12
2,65,64,12
2,67,64,24
2,65,64,24
2,67,64,12
2,65,64,12
2,67,64,12
2,67,64,24
2,63,64,24
2,65,64,876
2,67,64,12
2,67,64,12
2,65,64,24
2,67,64,24
2,67,64,24
2,65,64,24
2,67,64,96
2,63,64,24
2,67,64,12
2,67,64,24
2,67,64,264
2,67,64,12
2,65,64,24
2,67,64,24
2,67,64,24
2,65,64,24
2,67,64,96
2,63,64,24
2,67,64,12
2,67,64,24
2,67,64,264
2,67,64,12
2,65,64,24
2,67,64,12
2,72,64,24
2,70,64,12
2,63,64,0
2,65,64,12
2,63,64,12
2,65,64,12
2,63,64,24
2,65,64,12
2,60,64,0
2,67,64,24
2,67,64,12
2,65,64,12
2,67,64,24
2,65,64,24
2,63,64,12
2,60,64,0
2,65,64,24
2,65,64,24
2,65,64,108
2,67,64,0
2,67,64,3000
2,68,64,12
2,68,64,12
2,67,64,24
2,67,64,24
2,67,64,24
2,67,64,12
2,68,64,204
2,68,64,24
2,68,64,12
2,67,64,24
2,63,64,12
2,63,64,24
2,63,64,12
2,68,64,192
2,68,64,24
2,67,64,12
2,67,64,12
2,67,64,24
2,63,64,12
2,65,64,24
2,60,64,0
2,65,64,36
2,65,64,12
2,65,64,24
2,67,64,24
2,60,64,12
2,60,64,12
2,65,64,3168
2,67,64,12
2,65,64,12
2,67,64,12
2,65,64,12
2,67,64,24
2,65,64,24
2,67,64,12
2,65,64,12
2,67,64,12
2,67,64,24
2,63,64,24
2,60,64,876
2,67,64,12
2,65,64,12
2,67,64,12
2,65,64,12
2,67,64,24
2,65,64,24
2,67,64,12
2,65,64,12
2,67,64,12
2,67,64,24
2,63,64,24
2,65,64,876
2,67,64,12
2,67,64,12
2,65,64,24
2,67,64,24
2,67,64,24
2,65,64,24
2,67,64,96
2,63,64,24
2,67,64,12
2,67,64,24
2,67,64,264
2,67,64,12
2,65,64,24
2,67,64,24
2,67,64,24
2,65,64,24
2,67,64,96
2,63,64,24
2,67,64,12
2,67,64,24
2,67,64,264
2,67,64,12
2,65,64,24
2,67,64,12
2,72,64,24
2,70,64,12
2,63,64,0
2,65,64,12
2,63,64,12
2,65,64,12
2,63,64,24
2,65,64,12
2,60,64,0
2,67,64,24
2,67,64,12
2,65,64,12
2,67,64,24
2,65,64,24
2,63,64,12
2,60,64,0
2,65,64,24
2,65,64,24
2,65,64,108
2,67,64,0
2,67,44,0
2,67,40,0
2,65,33,0
2,67,30,0
2,67,26,0
2,65,22,0
2,63,15,24
2,67,1,24
2,67,1,12
2,65,1,24
2,67,1,0
2,67,1,0
2,65,1,0
2,63,1,0
3,48,64,0
3,55,64,0
3,60,64,0
3,56,64,12
3,60,64,0
3,48,64,0
3,48,64,36
3,55,64,0
3,60,64,0
3,48,64,24
3,56,64,0
3,60,64,0
3,53,64,108
3,48,64,0
3,55,64,0
3,53,64,12
3,55,64,12
3,53,64,12
3,55,64,12
3,53,64,24
3,55,64,12
3,53,64,12
3,55,64,12
3,55,64,24
3,51,64,24
3,46,64,12
3,48,64,24
3,41,64,12
3,39,64,12
3,39,64,12
3,53,64,24
3,48,64,12
3,55,64,0
3,53,64,12
3,55,64,12
3,53,64,12
3,55,64,12
3,53,64,24
3,55,64,12
3,53,64,12
3,55,64,12
3,55,64,24
3,51,64,24
3,46,64,12
3,48,64,24
3,41,64,12
3,39,64,12
3,39,64,12
3,46,64,12
3,48,64,12
3,53,64,12
3,51,64,12
3,55,64,0
3,55,64,12
3,51,64,0
3,53,64,24
3,50,64,0
3,55,64,24
3,51,64,0
3,55,64,24
3,51,64,0
3,53,64,24
3,50,64,0
3,51,64,24
3,48,64,0
3,43,64,0
3,51,64,12
3,55,64,0
3,55,64,12
3,51,64,0
3,53,64,24
3,50,64,0
3,55,64,24
3,51,64,0
3,55,64,24
3,51,64,0
3,53,64,24
3,50,64,0
3,51,64,24
3,48,64,0
3,43,64,0
3,51,64,12
3,55,64,0
3,55,64,12
3,51,64,0
3,53,64,24
3,50,64,0
3,55,64,24
3,51,64,0
3,51,64,24
3,60,64,0
3,48,64,24
3,58,64,0
3,51,64,192
3,55,64,0
3,55,64,12
3,51,64,0
3,53,64,24
3,50,64,0
3,55,64,24
3,51,64,0
3,50,64,24
3,53,64,0
3,48,64,24
3,51,64,0
3,55,64,96
3,55,64,0
3,63,64,0
3,63,64,12
3,63,64,12
3,60,64,12
3,65,64,12
3,67,64,12
3,55,64,12
3,55,64,12
3,63,64,0
3,63,64,12
3,63,64,12
3,62,64,12
3,58,64,12
3,60,64,12
3,55,64,12
3,55,64,12
3,63,64,0
3,63,64,12
3,63,64,12
3,60,64,12
3,65,64,12
3,67,64,12
3,55,64,12
3,55,64,12
3,63,64,0
3,63,64,12
3,63,64,12
3,62,64,12
3,58,64,12
3,60,64,12
3,53,64,12
3,48,64,12
3,55,64,0
3,53,64,12
3,55,64,12
3,53,64,12
3,55,64,12
3,53,64,24
3,55,64,12
3,53,64,12
3,55,64,12
3,55,64,24
3,51,64,24
3,46,64,12
3,48,64,24
3,41,64,12
3,39,64,12
3,39,64,12
3,53,64,24
3,48,64,12
3,55,64,0
3,53,64,12
3,55,64,12
3,53,64,12
3,55,64,12
3,53,64,24
3,55,64,12
3,53,64,12
3,55,64,12
3,55,64,24
3,51,64,24
3,46,64,12
3,48,64,24
3,41,64,12
3,39,64,12
3,39,64,12
3,46,64,12
3,48,64,12
3,53,64,12
3,51,64,12
3,55,64,0
3,55,64,12
3,51,64,0
3,53,64,24
3,50,64,0
3,55,64,24
3,51,64,0
3,55,64,24
3,51,64,0
3,53,64,24
3,50,64,0
3,51,64,24
3,48,64,0
3,43,64,0
3,51,64,12
3,55,64,0
3,55,64,12
3,51,64,0
3,53,64,24
