track,note,velocity,time
10,73,30,120
10,63,30,0
10,69,30,0
10,63,60,3000
10,73,60,0
10,69,60,0
10,63,90,3000
10,73,90,0
10,69,90,0
10,63,105,3000
10,73,105,0
10,69,105,0
10,63,115,3000
10,73,115,0
10,69,115,0
10,69,120,3000
10,63,120,0
10,73,120,0
10,63,120,3000
10,69,120,0
10,73,120,0
10,62,127,480
10,65,127,0
10,74,127,0
10,75,127,0
10,74,127,0
10,62,127,0
10,65,127,0
10,74,127,0
10,75,127,0
10,74,127,0
10,62,127,46080
10,65,127,0
10,74,127,0
10,75,127,0
10,74,127,0
10,62,127,0
10,65,127,0
10,74,127,0
10,75,127,0
10,74,127,0
10,73,127,3120
10,78,127,0
10,73,127,2880
10,78,127,0
10,73,127,2880
10,78,127,0
10,73,127,2880
10,78,127,0
10,73,127,3120
10,78,127,0
10,73,127,2880
10,78,127,0
10,73,127,3120
10,78,127,0
10,73,127,2880
10,78,127,0
10,73,127,3120
10,78,127,0
10,73,127,2880
10,78,127,0
10,73,127,3120
10,78,127,0
10,73,127,2880
10,78,127,0
10,73,127,3120
10,78,127,0
10,73,127,2880
10,78,127,0
10,73,125,3120
10,78,125,0
10,73,105,2880
10,78,105,0
10,73,85,3120
10,78,85,0
10,73,65,2880
10,78,65,0
10,73,45,3120
10,78,45,0
10,73,25,2880
10,78,25,0
10,73,5,3120
10,78,5,0
11,45,127,25320
11,45,127,120
11,50,127,0
11,46,127,0
11,46,127,120
11,50,127,0
11,45,127,0
11,45,127,120
11,50,127,0
11,46,127,0
11,46,127,120
11,50,127,0
11,45,127,0
11,45,127,120
11,50,127,0
11,46,127,0
11,46,127,120
11,50,127,0
11,45,127,0
11,45,127,120
11,50,127,0
11,46,127,0
11,46,127,120
11,50,127,0
11,45,127,0
11,45,127,120
11,50,127,0
11,46,127,0
11,46,127,120
11,50,127,0
11,45,127,0
11,45,127,120
11,50,127,0
11,46,127,0
11,46,127,120
11,50,127,0
11,45,127,0
11,45,127,120
11,50,127,0
11,46,127,0
11,46,127,120
11,50,127,0
11,45,127,0
11,45,127,120
11,50,127,0
11,46,127,0
11,46,127,120
11,50,127,0
11,45,127,46080
11,45,127,120
11,50,127,0
11,46,127,0
11,46,127,120
11,50,127,0
11,45,127,0
11,45,127,120
11,50,127,0
11,46,127,0
11,46,127,120
11,50,127,0
11,45,127,0
11,45,127,120
11,50,127,0
11,46,127,0
11,46,127,120
11,50,127,0
11,45,127,0
11,45,127,120
11,50,127,0
11,46,127,0
11,46,127,120
11,50,127,0
11,45,127,46080
11,45,127,120
11,50,127,0
11,46,127,0
11,46,127,120
11,50,127,0
11,45,127,0
11,45,127,120
11,50,127,0
11,46,127,0
11,46,127,120
11,50,127,0
11,45,127,0
11,45,127,120
11,50,127,0
11,46,127,0
11,46,127,120
11,50,127,0
11,45,127,0
11,45,127,120
11,50,127,0
11,46,127,0
11,46,127,120
11,50,127,0
12,45,127,25320
12,33,127,0
12,45,127,120
12,33,127,0
12,50,127,0
12,38,127,0
12,46,127,0
12,34,127,0
12,46,127,120
12,34,127,0
12,50,127,0
12,38,127,0
12,45,127,0
12,33,127,0
12,45,127,120
12,33,127,0
12,50,127,0
12,38,127,0
12,46,127,0
12,34,127,0
12,46,127,120
12,34,127,0
12,50,127,0
12,38,127,0
12,45,127,0
12,33,127,0
12,45,127,120
12,33,127,0
12,50,127,0
12,38,127,0
12,46,127,0
12,34,127,0
12,46,127,120
12,34,127,0
12,38,127,0
12,50,127,0
12,45,127,0
12,33,127,0
12,45,127,120
12,33,127,0
12,38,127,0
12,50,127,0
12,46,127,0
12,34,127,0
12,46,127,120
12,34,127,0
12,38,127,0
12,50,127,0
12,45,127,0
12,33,127,0
12,45,127,120
12,33,127,0
12,38,127,0
12,50,127,0
12,46,127,0
12,34,127,0
12,46,127,120
12,34,127,0
12,38,127,0
12,50,127,0
12,45,127,0
12,33,127,0
12,45,127,120
12,33,127,0
12,38,127,0
12,50,127,0
12,46,127,0
12,34,127,0
12,46,127,120
12,34,127,0
12,50,127,0
12,38,127,0
12,45,127,0
12,33,127,0
12,45,127,120
12,33,127,0
12,38,127,0
12,50,127,0
12,46,127,0
12,34,127,0
12,46,127,120
12,34,127,0
12,38,127,0
12,50,127,0
12,45,127,0
12,33,127,0
12,45,127,120
12,33,127,0
12,38,127,0
12,50,127,0
12,46,127,0
12,34,127,0
12,46,127,120
12,34,127,0
12,38,127,0
12,50,127,0
12,33,127,46080
12,45,127,0
12,45,127,120
12,33,127,0
12,38,127,0
12,50,127,0
12,46,127,0
12,34,127,0
12,46,127,120
12,34,127,0
12,38,127,0
12,50,127,0
12,45,127,0
12,33,127,0
12,45,127,120
12,33,127,0
12,38,127,0
12,50,127,0
12,46,127,0
12,34,127,0
12,46,127,120
12,34,127,0
12,50,127,0
12,38,127,0
12,45,127,0
12,33,127,0
12,45,127,120
12,33,127,0
12,38,127,0
12,50,127,0
12,46,127,0
12,34,127,0
12,46,127,120
12,34,127,0
12,38,127,0
12,50,127,0
12,45,127,0
12,33,127,0
12,45,127,120
12,33,127,0
12,38,127,0
12,50,127,0
12,46,127,0
12,34,127,0
12,46,127,120
12,34,127,0
12,38,127,0
12,50,127,0
12,33,127,46080
12,45,127,0
12,45,127,120
12,33,127,0
12,38,127,0
12,50,127,0
12,46,127,0
12,34,127,0
12,46,127,120
12,34,127,0
12,38,127,0
12,50,127,0
12,45,127,0
12,33,127,0
12,45,127,120
12,33,127,0
12,38,127,0
12,50,127,0
12,46,127,0
12,34,127,0
12,46,127,120
12,34,127,0
12,50,127,0
12,38,127,0
12,45,127,0
12,33,127,0
12,45,127,120
12,33,127,0
12,38,127,0
12,50,127,0
12,46,127,0
12,34,127,0
12,46,127,120
12,34,127,0
12,38,127,0
12,50,127,0
12,45,127,0
12,33,127,0
12,45,127,120
12,33,127,0
12,38,127,0
12,50,127,0
12,46,127,0
12,34,127,0
12,46,127,120
12,34,127,0
12,38,127,0
12,50,127,0
13,69,127,40680
13,81,127,0
13,76,127,0
13,79,127,0
13,78,127,0
13,74,127,0
13,80,127,0
13,77,127,30
13,75,127,0
13,74,127,0
13,70,127,20
13,69,127,0
13,81,127,0
13,76,127,0
13,79,127,0
13,78,127,0
13,74,127,0
13,80,127,0
13,77,127,30
13,75,127,0
13,74,127,0
13,70,127,20
13,69,127,0
13,81,127,0
13,76,127,0
13,79,127,0
13,78,127,0
13,74,127,0
13,80,127,0
13,77,127,30
13,75,127,0
13,74,127,0
13,70,127,20
13,69,127,0
13,81,127,0
13,76,127,0
13,79,127,0
13,78,127,0
13,74,127,0
13,80,127,0
13,77,127,30
13,75,127,0
13,74,127,0
13,70,127,20
13,66,127,0
13,64,127,0
13,66,127,0
13,64,127,0
13,61,127,0
13,64,127,0
13,61,127,0
13,59,127,0
13,61,127,0
13,59,127,0
13,66,127,0
13,64,127,0
13,66,127,0
13,64,127,0
13,61,127,0
13,64,127,0
13,61,127,0
13,59,127,0
13,61,127,0
13,59,127,0
13,71,127,0
13,83,80,0
13,66,127,0
13,69,127,480
13,81,127,0
13,76,127,0
13,79,127,0
13,78,127,0
13,74,127,0
13,80,127,0
13,77,127,30
13,75,127,0
13,74,127,0
13,70,127,20
13,69,127,0
13,81,127,0
13,76,127,0
13,79,127,0
13,78,127,0
13,74,127,0
13,80,127,0
13,77,127,30
13,75,127,0
13,74,127,0
13,70,127,20
13,69,127,0
13,81,127,0
13,76,127,0
13,79,127,0
13,78,127,0
13,74,127,0
13,80,127,0
13,77,127,30
13,75,127,0
13,74,127,0
13,70,127,20
13,69,127,0
13,81,127,0
13,76,127,0
13,79,127,0
13,78,127,0
13,74,127,0
13,80,127,0
13,77,127,30
13,75,127,0
13,74,127,0
13,70,127,20
13,66,127,0
13,64,127,0
13,66,127,0
13,64,127,0
13,61,127,0
13,64,127,0
13,61,127,0
13,59,127,0
13,61,127,0
13,59,127,0
13,66,127,0
13,64,127,0
13,66,127,0
13,64,127,0
13,61,127,0
13,64,127,0
13,61,127,0
13,59,127,0
13,61,127,0
13,59,127,0
13,83,80,0
13,71,127,0
13,66,127,0
13,69,127,480
13,81,127,0
13,76,127,0
13,79,127,0
13,78,127,0
13,74,127,0
13,80,127,0
13,77,127,30
13,75,127,0
13,74,127,0
13,70,127,20
13,69,127,0
13,81,127,0
13,76,127,0
13,79,127,0
13,78,127,0
13,74,127,0
13,80,127,0
13,77,127,30
13,75,127,0
13,74,127,0
13,70,127,20
13,69,127,0
13,81,127,0
13,76,127,0
13,79,127,0
13,78,127,0
13,74,127,0
13,80,127,0
13,77,127,30
13,75,127,0
13,74,127,0
13,70,127,20
13,69,127,0
13,81,127,0
13,76,127,0
13,79,127,0
13,78,127,0
13,74,127,0
13,80,127,0
13,77,127,30
13,75,127,0
13,74,127,0
13,70,127,20
13,66,127,0
13,64,127,0
13,66,127,0
13,64,127,0
13,61,127,0
13,64,127,0
13,61,127,0
13,59,127,0
13,61,127,0
13,59,127,0
13,66,127,0
13,64,127,0
13,66,127,0
13,64,127,0
13,61,127,0
13,64,127,0
13,61,127,0
13,59,127,0
13,61,127,0
13,59,127,0
13,66,127,0
13,64,127,0
13,66,127,0
13,64,127,0
13,61,127,0
13,64,127,0
13,61,127,0
13,59,127,0
13,61,127,0
13,59,127,0
13,66,127,0
13,64,127,0
13,66,127,0
13,64,127,0
13,61,127,0
13,64,127,0
13,61,127,0
13,59,127,0
13,61,127,0
13,59,127,0
13,66,127,0
13,64,127,0
13,66,127,0
13,64,127,0
13,61,127,0
13,64,127,0
13,61,127,0
13,59,127,0
13,61,127,0
13,59,127,0
13,66,127,0
13,64,127,0
13,66,127,0
13,64,127,0
13,61,127,0
13,64,127,0
13,61,127,0
13,59,127,0
13,61,127,0
13,59,127,0
13,66,127,0
13,64,127,0
13,66,127,0
13,64,127,0
13,61,127,0
13,64,127,0
13,61,127,0
13,59,127,0
13,61,127,0
13,59,127,0
13,66,127,0
13,64,127,0
13,66,127,0
13,64,127,0
13,61,123,0
13,64,122,0
13,61,121,0
13,59,111,0
13,61,110,0
13,59,109,0
13,66,101,0
13,64,91,0
13,66,90,0
13,64,89,0
13,61,83,0
13,64,82,0
13,61,81,0
13,59,71,0
13,61,70,0
13,59,69,0
13,66,61,0
13,64,51,0
13,66,50,0
13,64,49,0
13,61,43,0
13,64,42,0
13,61,41,0
13,59,31,0
13,61,30,0
13,59,29,0
13,66,21,0
13,64,11,0
13,66,10,0
13,64,9,0
13,61,3,0
13,64,2,0
13,61,1,0
14,30,127,56040
14,30,127,120
14,30,127,120
14,33,127,240
14,33,127,120
14,33,127,20
14,30,127,0
14,30,127,120
14,30,127,120
14,25,127,240
14,25,127,120
14,28,127,0
14,30,127,0
14,30,127,120
14,30,127,120
14,33,127,240
14,33,127,120
14,33,127,20
14,30,127,0
14,30,127,120
14,30,127,120
14,25,127,240
14,25,127,120
14,28,127,0
14,30,127,0
14,30,127,120
14,30,127,120
14,33,127,240
14,33,127,120
14,33,127,20
14,30,127,0
14,30,127,120
14,30,127,120
14,25,127,240
14,25,127,120
14,28,127,0
14,30,127,0
14,30,127,120
14,30,127,120
14,33,127,240
14,33,127,120
14,33,127,20
14,30,127,0
14,30,127,120
14,30,127,120
14,25,127,240
14,25,127,120
14,28,127,0
14,26,120,15360
14,38,120,120
14,26,120,120
14,26,120,40
14,26,120,240
14,26,120,120
14,33,120,0
14,34,120,0
14,46,120,120
14,34,120,120
14,34,120,40
14,34,120,240
14,34,120,120
14,38,120,0
14,39,120,0
14,51,120,120
14,39,120,120
14,39,120,40
14,39,120,240
14,39,120,120
14,39,120,40
14,38,120,0
14,50,120,120
14,38,120,120
14,38,120,40
14,38,120,240
14,38,120,120
14,38,120,40
14,26,120,0
14,38,120,120
14,26,120,120
14,26,120,40
14,26,120,240
14,26,120,120
14,33,120,0
14,34,120,0
14,46,120,120
14,34,120,120
14,34,120,40
14,34,120,240
14,34,120,120
14,38,120,0
14,39,120,0
14,51,120,120
14,39,120,120
14,39,120,40
14,39,120,240
14,39,120,120
14,39,120,40
14,38,120,0
14,50,120,120
14,38,120,120
14,38,120,40
14,38,120,240
14,38,120,120
14,38,120,40
14,33,127,0
14,33,127,120
14,33,127,120
14,33,127,240
14,33,127,120
14,38,127,20
14,34,127,0
14,34,127,120
14,34,127,120
14,34,127,240
14,34,127,120
14,38,127,20
14,33,127,0
14,33,127,120
14,33,127,120
14,33,127,240
14,33,127,120
14,38,127,20
14,34,127,0
14,34,127,120
14,34,127,120
14,34,127,240
14,34,127,120
14,38,127,20
14,33,127,0
14,33,127,120
14,33,127,120
14,33,127,240
14,33,127,120
14,38,127,20
14,34,127,0
14,34,127,120
14,34,127,120
14,34,127,240
14,34,127,120
14,38,127,20
14,33,127,0
14,33,127,120
14,33,127,120
14,33,127,240
14,33,127,120
14,38,127,20
14,34,127,0
14,34,127,120
14,34,127,120
14,34,127,240
14,34,127,120
14,38,127,20
14,30,127,0
14,30,127,120
14,30,127,120
14,33,127,240
14,33,127,120
14,33,127,20
14,30,127,0
14,30,127,120
14,30,127,120
14,25,127,240
14,25,127,120
14,28,127,0
14,30,127,0
14,30,127,120
14,30,127,120
14,33,127,240
14,33,127,120
14,33,127,20
14,30,127,0
14,30,127,120
14,30,127,120
14,25,127,240
14,25,127,120
14,28,127,0
14,30,127,0
14,30,127,120
14,30,127,120
14,33,127,240
14,33,127,120
14,33,127,20
14,30,127,0
14,30,127,120
14,30,127,120
14,25,127,240
14,25,127,120
14,28,127,0
14,30,127,0
14,30,127,120
14,30,127,120
14,33,127,240
14,33,127,120
14,33,127,20
14,30,127,0
14,30,127,120
14,30,127,120
14,25,127,240
14,25,127,120
14,28,127,0
14,26,120,15360
14,38,120,120
14,26,120,120
14,26,120,40
14,26,120,240
14,26,120,120
14,33,120,0
14,34,120,0
14,46,120,120
14,34,120,120
14,34,120,40
14,34,120,240
14,34,120,120
14,38,120,0
14,39,120,0
14,51,120,120
14,39,120,120
14,39,120,40
14,39,120,240
14,39,120,120
14,39,120,40
14,38,120,0
14,50,120,120
14,38,120,120
14,38,120,40
14,38,120,240
14,38,120,120
14,38,120,40
14,26,120,0
14,38,120,120
14,26,120,120
14,26,120,40
14,26,120,240
14,26,120,120
14,33,120,0
14,34,120,0
14,46,120,120
14,34,120,120
14,34,120,40
14,34,120,240
14,34,120,120
14,38,120,0
14,39,120,0
14,51,120,120
14,39,120,120
14,39,120,40
14,39,120,240
14,39,120,120
14,39,120,40
14,38,120,0
14,50,120,120
14,38,120,120
14,38,120,40
14,38,120,240
14,38,120,120
14,38,120,40
14,33,127,7680
14,33,127,120
14,33,127,120
14,33,127,240
14,33,127,120
14,38,127,20
14,34,127,0
14,34,127,120
14,34,127,120
14,34,127,240
14,34,127,120
14,38,127,20
14,33,127,0
14,33,127,120
14,33,127,120
14,33,127,240
14,33,127,120
14,38,127,20
14,34,127,0
14,34,127,120
14,34,127,120
14,34,127,240
14,34,127,120
14,38,127,20
14,30,127,0
14,30,127,120
14,30,127,120
14,33,127,240
14,33,127,120
14,33,127,20
14,30,127,0
14,30,127,120
14,30,127,120
14,25,127,240
14,25,127,120
14,28,127,0
14,30,127,0
14,30,127,120
14,30,127,120
14,33,127,240
14,33,127,120
14,33,127,20
14,30,127,0
14,30,127,120
14,30,127,120
14,25,127,240
14,25,127,120
14,28,127,0
14,30,127,0
14,30,127,120
14,30,127,120
14,33,127,240
14,33,127,120
14,33,127,20
14,30,127,0
14,30,127,120
14,30,127,120
14,25,127,240
14,25,127,120
14,28,127,0
14,30,127,0
14,30,127,120
14,30,127,120
14,33,127,240
14,33,127,120
14,33,127,20
14,30,127,0
14,30,127,120
14,30,127,120
14,25,127,240
14,25,127,120
14,28,127,0
14,30,127,0
14,30,127,120
14,30,127,120
14,33,127,240
14,33,127,120
14,33,127,20
14,30,127,0
14,30,127,120
14,30,127,120
14,25,127,240
14,25,127,120
14,28,127,0
14,30,127,0
14,30,127,120
14,30,127,120
14,33,127,240
