track,note,velocity,time
1,54,32,0
1,62,32,0
1,54,32,0
1,61,32,0
1,61,32,0
1,59,32,0
1,62,32,0
1,54,32,96
1,62,32,0
1,54,32,0
1,57,32,0
1,57,32,0
1,54,32,0
1,59,32,0
1,54,32,96
1,62,32,0
1,54,32,0
1,61,32,0
1,61,32,0
1,59,32,0
1,62,32,0
1,62,32,96
1,62,32,0
1,55,32,0
1,62,32,0
1,62,32,0
1,55,32,0
1,62,32,0
1,54,32,96
1,62,32,0
1,54,32,0
1,61,32,0
1,61,32,0
1,59,32,0
1,62,32,0
1,54,32,96
1,62,32,0
1,54,32,0
1,57,32,0
1,57,32,0
1,54,32,0
1,59,32,0
1,54,32,96
1,62,32,0
1,54,32,0
1,61,32,0
1,61,32,0
1,59,32,0
1,62,32,0
1,62,32,96
1,62,32,0
1,55,32,0
1,62,32,0
1,62,32,0
1,55,32,0
1,62,32,0
1,69,78,12288
1,69,4,88
1,69,6,103
1,67,78,293
1,67,18,81
1,67,15,123
1,66,47,317
1,74,72,192
1,66,72,0
1,73,72,19
1,73,72,0
1,71,72,0
1,74,72,0
1,66,72,96
1,74,72,0
1,66,72,0
1,69,72,0
1,69,72,0
1,66,72,0
1,71,72,0
1,66,72,96
1,74,72,0
1,66,72,0
1,73,72,0
1,73,72,0
1,71,72,0
1,74,72,0
1,74,72,96
1,74,72,0
1,67,72,0
1,74,72,0
1,74,72,0
1,67,72,0
1,74,72,0
1,66,72,96
1,74,72,0
1,66,72,0
1,73,72,0
1,73,72,0
1,71,72,0
1,74,72,0
1,66,72,96
1,74,72,0
1,66,72,0
1,69,72,0
1,69,72,0
1,66,72,0
1,71,72,0
1,66,72,96
1,74,72,0
1,66,72,0
1,73,72,0
1,73,72,0
1,71,72,0
1,74,72,0
1,74,72,96
1,74,72,0
1,67,72,0
1,74,72,0
1,74,72,0
1,67,72,0
1,74,72,0
1,69,114,12288
1,69,40,88
1,69,42,103
1,67,114,293
1,67,54,81
1,67,51,123
1,66,116,317
1,66,52,0
1,66,53,0
1,66,98,7104
1,74,47,192
1,66,47,0
1,73,47,19
1,73,47,0
1,71,47,0
1,74,47,0
1,66,47,96
1,74,47,0
1,66,47,0
1,69,47,0
1,69,47,0
1,66,47,0
1,71,47,0
1,66,47,96
1,74,47,0
1,66,47,0
1,73,47,0
1,73,47,0
1,71,47,0
1,74,47,0
1,74,47,96
1,74,47,0
1,67,47,0
1,74,47,0
1,74,47,0
1,67,47,0
1,74,47,0
1,66,47,96
1,74,47,0
1,66,47,0
1,73,47,0
1,73,47,0
1,71,47,0
1,74,47,0
1,66,47,96
1,74,47,0
1,66,47,0
1,69,47,0
1,69,47,0
1,66,47,0
1,71,47,0
1,66,47,96
1,74,47,0
1,66,47,0
1,73,47,0
1,73,47,0
1,71,47,0
1,74,47,0
1,74,47,96
1,74,47,0
1,67,47,0
1,74,47,0
1,74,47,0
1,67,47,0
1,74,47,0
1,69,114,12288
1,69,40,88
1,69,42,103
1,67,114,293
1,67,54,81
1,67,51,123
1,66,116,317
1,66,52,0
1,66,53,0
1,74,32,10368
1,66,32,0
1,73,32,0
1,73,32,0
1,71,32,0
1,74,32,0
1,66,32,96
1,74,32,0
1,66,32,0
1,69,32,0
1,69,32,0
1,66,32,0
1,71,32,0
1,66,32,96
1,74,32,0
1,66,32,0
1,73,32,0
1,73,32,0
1,71,32,0
1,74,32,0
1,74,32,96
1,74,32,0
1,67,32,0
1,74,32,0
1,74,32,0
1,67,32,0
1,74,32,0
1,66,32,96
1,74,32,0
1,66,32,0
1,73,32,0
1,73,32,0
1,71,32,0
1,74,32,0
1,66,32,96
1,74,32,0
1,66,32,0
1,69,32,0
1,69,32,0
1,66,32,0
1,71,32,0
1,66,32,96
1,74,32,0
1,66,32,0
1,73,32,0
1,73,32,0
1,71,32,0
1,74,32,0
1,74,32,96
1,74,32,0
1,67,32,0
1,74,32,0
1,74,32,0
1,67,32,0
1,74,32,0
1,66,83,0
1,74,32,192
1,66,32,0
1,73,32,19
1,73,32,0
1,71,32,0
1,74,32,0
1,66,32,96
1,74,32,0
1,66,32,0
1,69,32,0
1,69,32,0
1,66,32,0
1,71,32,0
1,66,32,96
1,74,32,0
1,66,32,0
1,73,32,0
1,73,32,0
1,71,32,0
1,74,32,0
1,74,32,96
1,74,32,0
1,67,32,0
1,74,32,0
1,74,32,0
1,67,32,0
1,74,32,0
1,66,32,96
1,74,32,0
1,66,32,0
1,73,32,0
1,73,32,0
1,71,32,0
1,74,32,0
1,66,32,96
1,74,32,0
1,66,32,0
1,69,32,0
1,69,32,0
1,66,32,0
1,71,32,0
1,66,32,96
1,74,32,0
1,66,32,0
1,73,32,0
1,73,32,0
1,71,32,0
1,74,32,0
1,74,32,96
1,74,32,0
1,67,32,0
1,74,32,0
1,74,32,0
1,67,32,0
1,74,32,0
1,66,83,0
1,74,32,192
1,66,32,0
1,73,32,19
1,73,32,0
1,71,32,0
1,74,32,0
1,66,32,96
1,74,32,0
1,66,32,0
1,69,32,0
1,69,32,0
1,66,32,0
1,71,32,0
1,66,32,96
1,74,32,0
1,66,32,0
1,73,32,0
1,73,32,0
1,71,32,0
1,74,32,0
1,74,32,96
1,74,32,0
1,67,32,0
1,74,32,0
1,74,32,0
1,67,32,0
1,74,32,0
1,66,32,96
1,74,32,0
1,66,32,0
1,73,32,0
1,73,32,0
1,71,32,0
1,74,32,0
1,66,32,96
1,74,32,0
1,66,32,0
1,69,32,0
1,69,32,0
1,66,32,0
1,71,32,0
1,66,32,96
1,74,32,0
1,66,32,0
1,73,32,0
1,73,32,0
1,71,32,0
1,74,32,0
1,74,32,96
1,74,32,0
1,67,32,0
1,74,32,0
1,74,32,0
1,67,32,0
1,74,32,0
1,66,83,0
1,74,32,192
1,66,32,0
1,73,32,19
1,73,32,0
1,71,32,0
1,74,32,0
1,66,32,96
1,74,32,0
1,66,32,0
1,69,32,0
1,69,32,0
1,66,32,0
1,71,32,0
1,66,32,96
1,74,32,0
1,66,32,0
1,73,32,0
1,73,32,0
1,71,32,0
1,74,32,0
1,74,32,96
1,74,32,0
1,67,32,0
1,74,32,0
1,74,32,0
1,67,32,0
1,74,32,0
1,66,32,96
1,74,32,0
1,66,32,0
1,73,32,0
1,73,32,0
1,71,32,0
1,74,32,0
1,66,32,96
1,74,32,0
1,66,32,0
1,69,32,0
1,69,32,0
1,66,32,0
1,71,32,0
1,66,32,96
1,74,32,0
1,66,32,0
1,73,32,0
1,73,32,0
1,71,32,0
1,74,32,0
1,74,32,96
1,74,32,0
1,67,32,0
1,74,32,0
1,74,32,0
1,67,32,0
1,74,32,0
1,66,83,0
1,74,32,192
1,66,32,0
1,73,32,19
1,73,32,0
1,71,32,0
1,74,32,0
1,66,32,96
1,74,32,0
1,66,32,0
1,69,32,0
1,69,32,0
1,66,32,0
1,71,32,0
1,66,32,96
1,74,32,0
1,66,32,0
1,73,32,0
1,73,32,0
1,71,32,0
1,74,32,0
1,74,32,96
1,74,32,0
1,67,32,0
1,74,32,0
1,74,32,0
1,67,32,0
1,74,32,0
1,66,32,96
1,74,32,0
1,66,32,0
1,73,32,0
1,73,32,0
1,71,32,0
1,74,32,0
1,66,32,96
1,74,32,0
1,66,32,0
1,69,32,0
1,69,32,0
1,66,32,0
1,71,32,0
1,66,32,96
1,74,32,0
1,66,32,0
1,73,32,0
1,73,32,0
1,71,32,0
1,74,32,0
1,74,32,96
1,74,32,0
1,67,32,0
1,74,32,0
1,74,32,0
1,67,32,0
1,74,32,0
2,62,80,3072
2,61,80,0
2,66,80,0
2,62,80,0
2,62,101,19964
2,61,101,1236
2,62,101,1305
2,66,95,1223
2,62,114,279
2,62,64,15836
2,61,64,0
2,66,64,0
2,62,64,0
2,62,64,0
2,61,64,0
2,66,64,0
2,62,64,0
2,62,98,0
2,61,114,1152
2,62,121,1144
2,66,115,1223
2,62,6,279
2,62,72,18908
2,61,72,0
2,66,72,0
2,62,72,0
2,62,72,0
2,61,72,0
2,66,72,0
2,62,72,0
2,62,72,0
2,61,72,0
2,66,72,0
2,62,72,0
2,62,72,0
2,61,72,0
2,66,72,0
2,62,72,0
2,62,72,0
2,61,72,0
2,66,72,0
2,62,72,0
2,62,72,0
2,61,72,0
2,66,72,0
2,62,72,0
2,62,72,0
2,61,72,0
2,66,72,0
2,62,72,0
2,62,72,0
2,61,72,0
2,66,72,0
2,62,72,0
2,62,72,0
2,61,72,0
2,66,72,0
2,62,72,0
2,62,72,0
2,61,72,0
2,66,69,0
2,62,81,0
3,54,62,0
3,62,62,0
3,54,62,0
3,61,62,0
3,61,62,0
3,59,62,0
3,62,62,0
3,54,62,96
3,62,62,0
3,54,62,0
3,57,62,0
3,57,62,0
3,54,62,0
3,59,62,0
3,54,62,96
3,62,62,0
3,54,62,0
3,61,62,0
3,61,62,0
3,59,62,0
3,62,62,0
3,62,62,96
3,62,62,0
3,55,62,0
3,62,62,0
3,62,62,0
3,55,62,0
3,62,62,0
3,54,62,96
3,62,62,0
3,54,62,0
3,61,62,0
3,61,62,0
3,59,62,0
3,62,62,0
3,54,62,96
3,62,62,0
3,54,62,0
3,57,62,0
3,57,62,0
3,54,62,0
3,59,62,0
3,54,62,96
3,62,62,0
3,54,62,0
3,61,62,0
3,61,62,0
3,59,62,0
3,62,62,0
3,62,62,96
3,62,62,0
3,55,62,0
3,62,62,0
3,62,62,0
3,55,62,0
3,62,62,0
3,69,114,12288
3,69,40,88
3,69,42,103
3,67,114,293
3,67,54,81
3,67,51,123
3,66,116,317
3,71,32,211
3,74,32,0
3,66,32,96
3,74,32,0
3,66,32,0
3,69,32,0
3,69,32,0
3,66,32,0
3,71,32,0
3,66,32,96
3,74,32,0
3,66,32,0
3,73,32,0
3,73,32,0
3,71,32,0
3,74,32,0
3,74,32,96
3,74,32,0
3,67,32,0
3,74,32,0
3,74,32,0
3,67,32,0
3,74,32,0
3,66,32,96
3,74,32,0
3,66,32,0
3,73,32,0
3,73,32,0
3,71,32,0
3,74,32,0
3,66,32,96
3,74,32,0
3,66,32,0
3,69,32,0
3,69,32,0
3,66,32,0
3,71,32,0
3,66,32,96
3,74,32,0
3,66,32,0
3,73,32,0
3,73,32,0
3,71,32,0
3,74,32,0
3,74,32,96
3,74,32,0
3,67,32,0
3,74,32,0
3,74,32,0
3,67,32,0
3,74,32,0
3,69,127,12288
3,69,70,88
3,69,72,103
3,67,127,293
3,67,84,81
3,67,81,123
3,66,127,317
3,66,82,0
3,66,83,0
3,66,113,7104
3,71,62,211
3,74,62,0
3,66,62,96
3,74,62,0
3,66,62,0
3,69,62,0
3,69,62,0
3,66,62,0
3,71,62,0
3,66,62,96
3,74,62,0
3,66,62,0
3,73,62,0
3,73,62,0
3,71,62,0
3,74,62,0
3,74,62,96
3,74,62,0
3,67,62,0
3,74,62,0
3,74,62,0
3,67,62,0
3,74,62,0
3,66,62,96
3,74,62,0
3,66,62,0
3,73,62,0
3,73,62,0
3,71,62,0
3,74,62,0
3,66,62,96
3,74,62,0
3,66,62,0
3,69,62,0
3,69,62,0
3,66,62,0
3,71,62,0
3,66,62,96
3,74,62,0
3,66,62,0
3,73,62,0
3,73,62,0
3,71,62,0
3,74,62,0
3,74,62,96
3,74,62,0
3,67,62,0
3,74,62,0
3,74,62,0
3,67,62,0
3,74,62,0
3,69,127,12288
3,69,70,88
3,69,72,103
3,67,127,293
3,67,84,81
3,67,81,123
3,66,127,317
3,66,82,0
3,66,83,0
3,71,50,10752
3,74,50,0
3,66,50,96
3,74,50,0
3,66,50,0
3,69,50,0
3,69,50,0
3,66,50,0
3,71,50,0
3,66,50,96
3,74,50,0
3,66,50,0
3,73,50,0
3,73,50,0
3,71,50,0
3,74,50,0
3,74,50,96
3,74,50,0
3,67,50,0
3,74,50,0
3,74,50,0
3,67,50,0
3,74,50,0
3,66,50,96
3,74,50,0
3,66,50,0
3,73,50,0
3,73,50,0
3,71,50,0
3,74,50,0
3,66,50,96
3,74,50,0
3,66,50,0
3,69,50,0
3,69,50,0
3,66,50,0
3,71,50,0
3,66,50,96
3,74,50,0
3,66,50,0
3,73,50,0
3,73,50,0
3,71,50,0
3,74,50,0
3,74,50,96
3,74,50,0
3,67,50,0
3,74,50,0
3,74,50,0
3,67,50,0
3,74,50,0
3,66,101,0
3,71,50,211
3,74,50,0
3,66,50,96
3,74,50,0
3,66,50,0
3,69,50,0
3,69,50,0
3,66,50,0
3,71,50,0
3,66,50,96
3,74,50,0
3,66,50,0
3,73,50,0
3,73,50,0
3,71,50,0
3,74,50,0
3,74,50,96
3,74,50,0
3,67,50,0
3,74,50,0
3,74,50,0
3,67,50,0
3,74,50,0
3,66,50,96
3,74,50,0
3,66,50,0
3,73,50,0
3,73,50,0
3,71,50,0
3,74,50,0
3,66,50,96
3,74,50,0
3,66,50,0
3,69,50,0
3,69,50,0
3,66,50,0
3,71,50,0
3,66,50,96
3,74,50,0
3,66,50,0
3,73,50,0
3,73,50,0
3,71,50,0
3,74,50,0
3,74,50,96
3,74,50,0
3,67,50,0
3,74,50,0
3,74,50,0
3,67,50,0
3,74,50,0
3,66,101,0
3,71,50,211
3,74,50,0
3,66,50,96
3,74,50,0
3,66,50,0
3,69,50,0
3,69,50,0
3,66,50,0
3,71,50,0
3,66,50,96
3,74,50,0
3,66,50,0
3,73,50,0
3,73,50,0
3,71,50,0
3,74,50,0
3,74,50,96
3,74,50,0
3,67,50,0
3,74,50,0
3,74,50,0
3,67,50,0
3,74,50,0
3,66,50,96
3,74,50,0
3,66,50,0
3,73,50,0
3,73,50,0
3,71,50,0
3,74,50,0
3,66,50,96
3,74,50,0
3,66,50,0
3,69,50,0
3,69,50,0
3,66,50,0
3,71,50,0
3,66,50,96
3,74,50,0
3,66,50,0
3,73,50,0
3,73,50,0
3,71,50,0
3,74,50,0
3,74,50,96
3,74,50,0
3,67,50,0
3,74,50,0
3,74,50,0
3,67,50,0
3,74,50,0
3,66,101,0
3,71,50,211
3,74,50,0
3,66,50,96
3,74,50,0
3,66,50,0
3,69,50,0
3,69,50,0
3,66,50,0
3,71,50,0
3,66,50,96
3,74,50,0
3,66,50,0
3,73,50,0
3,73,50,0
3,71,50,0
3,74,50,0
3,74,50,96
3,74,50,0
3,67,50,0
3,74,50,0
3,74,50,0
3,67,50,0
3,74,50,0
3,66,50,96
3,74,50,0
3,66,50,0
3,73,50,0
3,73,50,0
3,71,50,0
3,74,50,0
3,66,50,96
3,74,50,0
3,66,50,0
3,69,50,0
3,69,50,0
3,66,50,0
3,71,50,0
3,66,50,96
3,74,50,0
3,66,50,0
3,73,50,0
3,73,50,0
3,71,50,0
3,74,50,0
3,74,50,96
3,74,50,0
3,67,50,0
3,74,50,0
3,74,50,0
3,67,50,0
3,74,50,0
3,66,101,0
3,71,50,211
3,74,50,0
3,66,50,96
3,74,50,0
3,66,50,0
3,69,50,0
3,69,50,0
3,66,50,0
3,71,50,0
3,66,50,96
3,74,50,0
3,66,50,0
3,73,50,0
3,73,50,0
3,71,50,0
3,74,50,0
3,74,50,96
3,74,50,0
3,67,50,0
3,74,50,0
3,74,50,0
3,67,50,0
3,74,50,0
3,66,50,96
3,74,50,0
3,66,50,0
3,73,50,0
3,73,50,0
3,71,50,0
3,74,50,0
3,66,50,96
3,74,50,0
3,66,50,0
3,69,50,0
3,69,50,0
3,66,50,0
3,71,50,0
3,66,50,96
3,74,50,0
3,66,50,0
3,73,50,0
3,73,50,0
3,71,50,0
3,74,50,0
3,74,50,96
3,74,50,0
3,67,50,0
3,74,50,0
3,74,50,0
3,67,50,0
3,74,50,0
4,38,78,0
4,42,71,2
4,38,67,15
4,38,78,394
4,38,74,48
4,42,52,12
4,38,74,15
4,42,83,480
4,45,78,20
4,42,61,12
4,42,94,389
4,42,83,51
4,45,74,13
4,42,63,22
4,43,78,483
4,47,60,21
4,43,63,18
4,43,83,371
4,43,74,50
4,47,63,5
4,43,57,15
4,43,59,394
4,47,83,44
4,50,65,23
