track,note,velocity,time
0,35,84,287
0,42,54,0
0,42,54,0
0,37,71,37
0,42,54,0
0,42,54,0
0,35,77,16
0,42,63,15
0,42,63,0
0,37,71,19
0,35,82,15
0,42,58,0
0,42,58,0
0,35,88,41
0,42,58,0
0,42,58,0
0,42,63,40
0,42,63,0
0,35,77,22
0,37,91,18
0,42,54,0
0,42,54,0
0,82,88,41
0,42,63,0
0,42,63,0
0,82,93,14
0,35,86,14
0,42,54,0
0,42,54,0
0,37,83,42
0,42,54,0
0,42,54,0
0,35,86,15
0,42,63,17
0,42,63,0
0,37,80,19
0,35,89,15
0,42,58,0
0,42,58,0
0,35,77,41
0,42,58,0
0,42,58,0
0,42,63,42
0,42,63,0
0,35,86,22
0,37,96,17
0,42,54,0
0,42,54,0
0,82,91,40
0,42,63,0
0,42,63,0
0,54,65,15
0,35,84,2
0,48,70,0
0,36,78,0
0,64,78,0
0,55,88,0
0,60,83,0
0,42,54,1
0,42,54,0
0,37,71,37
0,42,54,0
0,42,54,0
0,35,77,16
0,42,63,15
0,42,63,0
0,37,71,19
0,35,82,15
0,42,58,0
0,42,58,0
0,35,88,14
0,48,70,0
0,36,80,0
0,42,58,0
0,42,58,0
0,60,76,16
0,55,78,0
0,64,85,0
0,65,61,24
0,42,63,0
0,42,63,0
0,35,77,5
0,36,80,0
0,48,74,0
0,67,93,0
0,55,76,0
0,60,91,0
0,37,91,17
0,42,54,0
0,42,54,0
0,64,80,10
0,55,66,0
0,82,88,9
0,36,76,0
0,48,76,0
0,60,70,1
0,42,63,0
0,42,63,0
0,82,93,3
0,35,86,2
0,47,93,0
0,35,85,1
0,59,98,0
0,64,93,0
0,55,102,0
0,42,54,0
0,42,54,0
0,37,83,1
0,42,54,0
0,42,54,0
0,35,86,3
0,47,88,0
0,35,83,0
0,62,93,1
0,55,93,0
0,59,96,0
0,42,63,16
0,42,63,0
0,37,80,19
0,35,89,15
0,42,58,0
0,42,58,0
0,35,77,2
0,35,85,0
0,47,91,0
0,42,58,0
0,42,58,0
0,62,88,12
0,59,88,0
0,55,78,0
0,64,59,24
0,42,63,0
0,42,63,0
0,35,86,5
0,47,88,0
0,35,80,0
0,65,93,0
0,55,93,0
0,59,96,0
0,37,96,17
0,42,54,0
0,42,54,0
0,64,80,11
0,59,80,0
0,55,78,0
0,82,91,7
0,35,85,0
0,47,85,0
0,62,74,1
0,42,63,0
0,42,63,0
0,54,65,1
0,35,84,1
0,46,78,0
0,34,93,0
0,53,96,1
0,62,93,0
0,58,91,0
0,42,54,0
0,42,54,0
0,37,71,38
0,42,54,0
0,42,54,0
0,35,77,16
0,42,63,15
0,42,63,0
0,37,71,19
0,35,82,15
0,42,58,0
0,42,58,0
0,35,88,1
0,34,105,0
0,46,64,0
0,42,58,0
0,42,58,0
0,53,96,16
0,62,96,0
0,58,91,0
0,64,68,24
0,42,63,0
0,42,63,0
0,35,77,11
0,46,78,0
0,34,105,0
0,65,93,0
0,53,91,0
0,58,88,0
0,37,91,17
0,42,54,0
0,42,54,0
0,53,96,15
0,64,93,0
0,58,85,0
0,82,88,13
0,34,98,0
0,46,78,0
0,62,74,0
0,42,63,0
0,42,63,0
0,82,93,3
0,35,86,15
0,41,93,0
0,29,93,0
0,53,98,1
0,62,96,0
0,58,91,0
0,42,54,0
0,42,54,0
0,37,83,0
0,42,54,0
0,42,54,0
0,35,86,14
0,41,93,0
0,29,96,0
0,60,96,1
0,53,98,0
0,57,98,0
0,42,63,16
0,42,63,0
0,37,80,19
0,35,89,15
0,42,58,0
0,42,58,0
0,35,77,42
0,42,58,0
0,42,58,0
0,42,63,9
0,42,63,0
0,35,86,22
0,36,88,0
0,48,78,0
0,60,70,0
0,65,74,0
0,69,70,0
0,37,96,11
0,48,96,0
0,36,88,0
0,69,102,0
0,65,109,0
0,60,93,0
0,42,54,0
0,42,54,1
0,82,91,25
0,36,93,0
0,48,96,0
0,60,93,0
0,69,93,0
0,65,105,0
0,42,63,1
0,42,63,0
0,54,65,8
0,35,84,14
0,48,96,0
0,36,98,0
0,64,93,1
0,55,102,0
0,60,96,0
0,42,54,0
0,42,54,0
0,37,71,38
0,42,54,0
0,42,54,1
0,35,77,16
0,42,63,15
0,42,63,0
0,37,71,19
0,35,82,15
0,42,58,0
0,42,58,0
0,35,88,2
0,48,91,0
0,36,93,0
0,42,58,0
0,42,58,0
0,55,96,16
0,64,96,0
0,60,88,0
0,65,66,24
0,42,63,0
0,42,63,0
0,35,77,7
0,36,96,0
0,48,88,0
0,60,96,0
0,67,98,0
0,55,98,0
0,37,91,17
0,42,54,0
0,42,54,0
0,60,37,17
0,64,88,0
0,55,93,0
0,82,88,9
0,36,93,0
0,48,80,0
0,60,59,0
0,42,63,0
0,42,63,0
0,82,93,3
0,35,86,15
0,35,96,0
0,47,96,0
0,64,91,0
0,59,93,0
0,55,93,1
0,42,54,0
0,42,54,0
0,37,83,0
0,42,54,0
0,42,54,0
0,35,86,10
0,47,98,0
0,35,93,1
0,62,96,0
0,59,96,0
0,55,102,0
0,42,63,16
0,42,63,0
0,37,80,19
0,35,89,15
0,42,58,0
0,42,58,0
0,35,77,15
0,47,76,0
0,35,78,0
0,42,58,0
0,42,58,0
0,62,93,17
0,55,96,0
0,59,96,0
0,64,59,24
0,42,63,0
0,42,63,0
0,35,86,12
0,35,93,0
0,47,93,1
0,65,96,0
0,59,93,0
0,55,93,0
0,37,96,18
0,42,54,0
0,42,54,0
0,64,91,12
0,55,88,0
0,59,91,0
0,82,91,7
0,35,96,0
0,47,78,0
0,62,70,0
0,42,63,0
0,42,63,0
0,54,65,1
0,35,84,13
0,46,85,0
0,34,93,0
0,53,96,0
0,62,93,0
0,58,93,0
0,42,54,1
0,42,54,0
0,37,71,38
0,42,54,0
0,42,54,0
0,35,77,16
0,42,63,15
0,42,63,0
0,37,71,19
0,35,82,15
0,42,58,0
0,42,58,0
0,35,88,3
0,46,52,1
0,34,98,0
0,42,58,0
0,42,58,0
0,53,88,17
0,62,91,0
0,58,85,0
0,64,57,24
0,42,63,0
0,42,63,0
0,35,77,9
0,46,55,0
0,34,102,0
0,65,93,0
0,53,88,0
0,58,91,1
0,37,91,17
0,42,54,0
0,42,54,0
0,58,85,14
0,64,88,0
0,53,91,0
0,82,88,17
0,34,98,0
0,46,70,0
0,62,70,0
0,42,63,1
0,42,63,0
0,82,93,11
0,35,86,14
0,41,93,0
0,29,93,0
0,53,98,0
0,58,91,0
0,62,93,0
0,42,54,1
0,42,54,0
0,37,83,2
0,42,54,0
0,42,54,0
0,35,86,15
0,41,102,0
0,29,98,0
0,60,93,1
0,57,96,0
0,53,98,0
0,42,63,7
0,42,63,0
0,37,80,19
0,35,89,15
0,42,58,0
0,42,58,0
0,35,77,41
0,42,58,0
0,42,58,0
0,42,63,10
0,42,63,0
0,35,86,22
0,37,96,18
0,42,54,0
0,42,54,0
0,82,91,19
0,42,63,0
0,42,63,0
0,54,65,4
0,35,84,13
0,48,70,0
0,36,85,0
0,64,74,0
0,60,78,0
0,55,47,0
0,42,54,0
0,42,54,1
0,64,49,11
0,60,66,0
0,55,57,0
0,37,71,14
0,60,39,0
0,55,57,0
0,64,49,0
0,42,54,1
0,42,54,0
0,35,77,15
0,62,91,0
0,53,88,0
0,57,88,0
0,42,63,5
0,42,63,0
0,37,71,19
0,53,91,0
0,62,91,0
0,57,88,1
0,35,82,0
0,45,80,0
0,42,58,0
0,42,58,1
0,43,42,6
0,35,88,23
0,36,70,0
0,48,55,0
0,60,85,1
0,52,93,0
0,55,93,0
0,42,58,0
0,42,58,0
0,42,63,40
0,42,63,0
0,35,77,22
0,62,103,0
0,37,91,9
0,64,107,0
0,42,54,0
0,42,54,0
0,64,70,17
0,82,88,9
0,62,115,0
0,42,63,0
0,42,63,0
0,82,93,10
0,35,86,2
0,48,83,0
0,36,93,0
0,64,91,0
0,60,91,0
0,55,38,0
0,42,54,0
0,42,54,1
0,64,64,6
0,55,61,0
0,60,70,0
0,37,83,14
0,55,64,0
0,64,66,0
0,60,57,0
0,42,54,0
0,42,54,0
0,35,86,9
0,62,88,0
0,53,83,0
0,57,88,0
0,42,63,12
0,42,63,0
0,37,80,19
0,53,96,0
0,62,96,0
0,57,93,1
0,35,89,3
0,45,70,0
0,42,58,0
0,42,58,1
0,43,64,0
0,35,77,3
0,48,50,0
0,36,70,0
0,60,85,1
0,52,88,0
0,55,93,0
0,42,58,0
0,42,58,0
0,42,63,41
0,42,63,0
0,35,86,15
0,48,70,0
0,36,78,0
0,37,96,11
0,36,93,0
0,48,78,0
0,42,54,0
0,42,54,0
0,82,91,40
0,42,63,0
0,42,63,0
0,54,65,11
0,35,84,13
0,41,76,0
0,29,78,0
0,53,91,0
0,60,76,0
0,57,80,0
0,42,54,0
0,42,54,1
0,60,59,12
0,53,64,0
0,57,70,0
0,37,71,15
0,53,61,0
0,57,55,0
0,60,61,0
0,42,54,0
0,42,54,0
0,35,77,14
0,50,93,0
0,59,93,0
0,55,96,0
0,42,63,4
0,42,63,0
0,37,71,19
0,50,93,0
0,59,93,0
0,55,96,0
0,35,82,15
0,42,58,0
0,42,58,1
0,35,88,15
0,41,74,0
0,29,83,0
0,48,93,1
0,57,88,0
0,53,96,0
0,42,58,0
0,42,58,0
0,42,63,40
0,42,63,0
0,35,77,22
0,36,93,0
0,37,91,17
0,42,54,0
0,42,54,0
0,55,57,16
0,82,88,13
0,48,85,0
0,57,91,0
0,53,91,0
0,42,63,0
0,42,63,0
0,82,93,2
0,63,80,13
0,35,86,2
0,36,91,0
0,48,80,0
0,64,80,0
0,42,54,0
0,42,54,0
0,37,83,3
0,42,54,0
0,42,54,0
0,35,86,15
0,60,88,0
0,52,98,0
0,55,102,0
0,42,63,17
0,42,63,0
0,37,80,19
0,35,89,15
0,42,58,0
0,42,58,0
0,35,77,41
0,42,58,0
0,42,58,0
0,42,63,42
0,42,63,0
0,35,86,22
0,64,91,0
0,37,96,13
0,62,105,0
0,42,54,0
0,42,54,1
0,62,111,15
0,82,91,13
0,64,111,0
0,42,63,0
0,42,63,0
0,54,65,1
0,35,84,2
0,48,76,0
0,36,80,0
0,64,85,0
0,60,88,0
0,55,55,0
0,42,54,1
0,42,54,0
0,64,59,3
0,60,68,0
0,37,71,5
0,55,55,0
0,60,50,0
0,64,57,0
0,42,54,0
0,42,54,0
0,35,77,12
0,57,91,0
0,62,91,0
0,53,93,0
0,42,63,1
0,42,63,0
0,37,71,19
0,53,98,0
0,62,96,0
0,57,96,0
0,35,82,2
0,45,80,0
0,42,58,0
0,42,58,0
0,43,66,0
0,35,88,5
0,48,46,0
0,36,78,0
0,60,91,1
0,52,96,0
0,55,102,0
0,42,58,0
0,42,58,0
0,42,63,40
0,42,63,0
0,35,77,22
0,62,98,0
0,37,91,7
0,64,98,0
0,42,54,0
0,42,54,1
0,64,111,16
0,82,88,17
0,62,119,0
0,42,63,0
0,42,63,1
0,82,93,2
0,35,86,14
0,36,85,0
0,48,74,0
0,64,83,0
0,60,93,0
0,55,74,0
0,42,54,0
0,42,54,1
0,64,52,10
0,60,70,0
0,37,83,11
0,55,59,0
0,60,47,0
0,64,61,0
0,42,54,0
0,42,54,0
0,35,86,11
0,62,96,0
0,53,98,0
0,57,96,0
0,42,63,4
0,42,63,0
0,37,80,19
0,53,96,0
0,62,91,0
0,57,96,0
0,35,89,3
0,45,93,0
0,42,58,0
0,42,58,0
0,43,55,1
0,35,77,2
0,48,55,0
0,36,78,0
0,60,85,0
0,52,93,0
0,55,98,0
0,42,58,1
0,42,58,0
0,42,63,41
0,42,63,0
0,35,86,15
0,48,78,0
0,36,78,0
0,37,96,13
0,48,78,0
0,36,96,0
0,42,54,1
0,42,54,0
0,82,91,40
0,42,63,0
0,42,63,0
0,54,65,3
0,35,84,2
0,29,88,0
0,41,76,0
0,53,91,0
0,60,76,0
0,57,88,0
0,42,54,0
0,42,54,1
0,60,59,13
0,57,55,0
0,53,74,0
0,37,71,15
0,57,44,0
0,53,52,0
0,60,48,0
0,42,54,0
0,42,54,0
0,35,77,15
0,41,88,0
0,29,96,0
0,50,105,0
0,59,91,0
0,55,93,1
0,29,102,1
0,41,91,0
0,42,63,0
0,42,63,0
0,37,71,19
0,50,93,0
0,55,93,0
0,59,93,0
0,35,82,15
0,42,58,0
0,42,58,0
0,35,88,8
0,29,96,0
0,41,91,0
0,48,93,0
0,57,93,0
0,53,98,0
0,42,58,1
0,42,58,0
0,42,63,40
0,42,63,0
0,35,77,22
0,36,109,0
0,37,91,18
0,42,54,0
0,42,54,0
0,55,74,0
0,82,88,8
0,53,74,0
0,57,55,0
0,42,63,1
0,42,63,0
0,82,93,7
0,63,74,13
0,35,86,2
0,60,91,0
0,48,93,0
0,64,78,1
0,42,54,0
0,42,54,0
0,37,83,7
0,42,54,0
0,42,54,0
0,35,86,15
0,52,85,0
0,55,96,0
0,60,80,0
0,42,63,17
0,42,63,0
0,37,80,19
0,35,89,1
0,42,58,0
0,42,58,0
0,35,77,42
0,42,58,0
0,42,58,0
0,42,63,26
0,42,63,0
0,35,86,9
0,64,96,0
0,48,96,0
0,60,74,1
0,52,88,0
0,43,96,0
0,48,78,0
0,37,96,15
0,62,96,0
0,53,78,1
0,42,54,0
0,42,54,0
0,62,113,14
0,52,98,0
0,55,98,0
0,48,98,1
0,82,91,6
0,64,121,0
0,60,98,0
0,48,98,1
0,42,63,0
0,42,63,0
0,54,65,5
0,35,84,14
0,58,74,0
0,46,70,0
0,67,64,1
0,74,78,0
0,79,74,0
0,70,70,0
0,42,54,0
0,42,54,0
0,58,66,3
0,55,44,1
0,62,74,1
0,74,64,11
0,70,55,0
0,79,57,0
0,67,52,1
0,70,61,12
0,74,66,1
0,79,55,0
0,67,52,0
0,37,71,2
0,42,54,0
0,42,54,0
0,70,91,11
0,74,96,0
0,67,96,0
0,79,93,0
0,35,77,3
0,46,83,0
0,58,64,0
0,58,85,10
0,46,88,0
0,42,63,0
0,42,63,0
0,70,50,7
0,67,41,0
0,77,52,0
0,74,61,1
0,37,71,0
0,77,52,13
0,74,68,1
0,67,59,0
0,70,50,0
0,35,82,1
0,42,58,0
0,42,58,0
0,67,96,14
0,70,91,0
0,74,96,0
0,77,93,0
0,35,88,2
0,46,88,0
0,58,80,0
0,42,58,0
0,42,58,0
0,42,63,40
0,42,63,0
0,35,77,11
0,62,115,0
0,46,85,0
0,58,70,0
0,37,91,9
0,64,119,0
0,46,91,0
0,58,88,1
0,42,54,0
0,42,54,0
0,64,115,16
0,82,88,13
0,62,127,0
0,42,63,0
0,42,63,1
0,82,93,6
0,69,57,2
0,74,83,1
0,57,88,1
0,53,51,1
0,35,86,0
0,57,88,1
0,45,80,0
0,42,54,0
0,42,54,0
0,79,80,0
0,74,68,9
0,69,68,0
0,79,74,0
0,74,66,16
0,69,55,0
0,79,70,0
0,37,83,1
0,42,54,0
0,42,54,0
0,69,102,14
0,79,91,1
0,74,96,0
0,35,86,0
0,57,80,0
0,45,78,0
0,45,91,11
0,57,93,0
0,42,63,0
0,42,63,0
0,77,57,12
0,37,80,1
0,69,43,0
0,74,47,0
0,77,68,13
0,69,59,1
0,74,59,0
0,35,89,0
0,42,58,0
0,42,58,0
0,77,102,17
0,74,105,0
0,69,98,0
0,35,77,2
0,45,78,0
0,57,93,0
0,42,58,0
0,42,58,0
0,42,63,11
0,42,63,0
0,35,86,16
0,57,88,0
0,45,85,0
0,57,105,1
0,64,96,0
0,62,105,0
0,37,96,10
0,45,98,0
0,57,91,0
0,42,54,0
0,42,54,0
0,62,98,15
0,65,98,1
0,57,93,0
0,82,91,21
0,42,63,0
0,42,63,0
0,54,65,15
0,61,73,9
0,64,80,1
0,35,84,1
0,45,93,0
0,57,91,0
0,42,54,1
0,42,54,0
0,79,80,1
0,69,98,0
0,76,96,0
0,73,91,0
0,76,66,10
0,73,59,0
0,69,55,0
0,79,50,0
0,37,71,16
