track,note,velocity,time
1,25,57,2188
1,25,57,1316
1,25,57,1316
1,25,57,1316
1,25,57,1316
1,25,57,1316
1,25,57,1316
1,25,57,1320
1,25,57,1316
1,25,57,1324
1,25,57,1316
1,25,57,1320
1,25,57,1320
1,25,57,1316
1,25,57,1316
1,25,57,1320
1,25,57,1316
1,25,57,1320
1,25,57,1320
1,25,57,1320
1,25,57,1320
1,25,57,1320
1,25,57,1324
1,25,57,1320
1,25,57,1324
1,25,57,1320
1,25,57,1324
1,25,57,1320
1,25,57,1320
1,29,57,1320
1,29,57,1320
1,33,57,1320
1,33,57,1320
1,30,57,1320
1,30,57,1324
1,25,57,1316
1,25,57,1320
1,25,57,1320
1,25,57,1320
1,25,57,1320
1,25,57,1324
1,25,57,1332
1,25,57,1320
1,28,109,36
1,25,97,0
1,25,97,56
1,25,100,44
1,25,97,36
1,28,94,36
1,25,97,0
1,25,97,52
1,25,100,48
1,25,97,32
1,28,100,4
1,25,100,4
1,25,100,40
1,25,100,36
1,25,100,20
1,28,94,8
1,25,97,104
1,25,97,32
1,25,103,48
1,25,103,40
1,28,91,16
1,25,97,16
1,25,97,56
1,25,100,44
1,25,97,36
1,28,94,36
1,25,97,4
1,25,97,52
1,25,100,48
1,25,97,28
1,28,100,4
1,25,100,0
1,25,100,36
1,25,100,36
1,25,100,28
1,28,94,8
1,25,97,104
1,25,97,32
1,25,103,44
1,25,103,40
1,28,91,16
1,25,97,16
1,25,97,52
1,25,100,44
1,25,97,36
1,28,94,36
1,25,97,4
1,25,97,68
1,25,100,52
1,25,97,32
1,28,100,4
1,25,100,0
1,25,100,36
1,25,100,36
1,25,100,20
1,28,94,8
1,25,97,4
1,25,97,44
1,25,103,44
1,25,103,40
1,28,91,16
1,25,97,16
1,25,97,52
1,25,100,44
1,25,97,36
1,28,94,36
1,29,94,0
1,29,94,56
1,29,103,36
1,27,97,156
1,29,100,20
1,29,103,36
1,29,100,40
1,29,103,4
1,27,100,112
1,33,85,32
1,33,76,68
1,33,82,44
1,33,73,136
1,33,79,64
1,33,76,40
1,33,91,36
1,33,73,16
1,33,85,60
1,30,94,100
1,30,100,52
1,30,94,40
1,30,88,68
1,30,97,20
1,30,76,40
1,30,88,40
1,30,46,4
1,35,97,20
1,37,103,0
1,37,79,44
1,35,91,16
1,37,91,36
1,37,103,56
1,35,88,288
1,37,91,40
1,37,100,56
1,35,88,4
1,37,88,40
1,37,85,36
1,28,94,8
1,30,94,20
1,30,97,24
1,28,82,20
1,30,94,40
1,30,94,48
1,28,91,20
1,30,94,40
1,30,100,36
1,28,85,32
1,30,97,28
1,30,97,56
1,35,100,40
1,37,100,4
1,37,103,60
1,35,91,20
1,37,100,16
1,37,100,44
1,35,91,4
1,37,97,20
1,37,88,28
1,35,97,12
1,37,91,32
1,37,100,28
1,28,97,20
1,30,103,12
1,30,100,24
1,28,91,32
1,30,97,28
1,30,97,24
1,28,91,28
1,30,103,20
1,30,100,36
1,28,85,12
1,30,100,12
1,30,91,24
1,35,100,12
1,37,97,8
1,37,103,32
1,35,91,36
1,37,94,28
1,37,100,20
1,35,97,24
1,37,97,8
1,37,103,12
1,35,97,40
1,37,97,20
1,37,103,40
1,28,85,288
1,30,97,16
1,30,100,36
1,28,88,32
1,30,94,192
1,30,100,28
1,28,85,20
1,30,97,0
1,30,97,16
1,28,88,28
1,30,97,192
1,30,100,32
1,35,100,28
1,37,103,24
1,37,103,48
1,35,91,20
1,37,97,40
1,37,97,56
1,35,88,12
1,37,97,36
1,37,100,64
1,35,88,8
1,37,94,28
1,37,100,56
1,37,88,8
1,35,91,32
1,35,103,68
1,35,106,4
1,35,103,40
1,35,100,56
1,37,97,20
1,37,97,64
1,35,91,8
1,37,97,28
1,37,100,56
1,35,100,12
1,37,103,28
1,37,103,44
1,35,91,20
1,37,97,40
1,37,97,56
1,35,88,12
1,37,97,36
1,37,100,64
1,35,88,8
1,37,94,28
1,37,100,56
1,37,88,8
1,35,91,32
1,35,103,68
1,35,106,4
1,35,103,40
1,35,100,56
1,37,97,20
1,37,97,64
1,35,91,8
1,37,97,28
1,37,100,56
1,35,100,12
1,37,103,28
1,37,103,44
1,35,91,20
1,37,97,40
1,37,97,60
1,35,88,12
1,37,97,36
1,37,100,64
1,35,88,8
1,37,94,28
1,37,100,56
1,37,88,8
1,35,91,32
1,35,103,68
1,35,106,4
1,35,103,40
1,35,100,56
1,37,97,20
1,37,97,64
1,35,91,8
1,37,97,28
1,37,100,56
1,35,100,12
1,37,106,28
1,37,94,56
1,37,82,44
1,35,91,16
1,37,100,20
1,37,55,16
1,37,91,52
1,35,88,24
1,37,100,40
1,37,100,52
1,37,73,44
1,35,94,16
1,37,97,44
1,37,97,16
1,37,88,40
1,35,91,36
1,37,97,44
1,37,97,48
1,37,61,40
1,35,88,24
1,37,94,32
1,37,97,24
1,37,97,44
1,35,88,36
1,37,97,44
1,37,100,32
1,37,85,48
1,35,85,32
1,37,97,44
1,37,94,36
1,37,94,44
1,35,94,48
1,25,97,36
1,25,97,56
1,25,100,48
1,25,97,40
1,28,94,36
1,25,97,0
1,25,97,56
1,25,100,48
1,25,97,36
1,28,100,4
1,25,100,4
1,25,100,44
1,25,100,36
1,25,100,28
1,28,94,8
1,25,97,8
1,25,97,36
1,25,103,48
1,25,103,44
1,28,91,16
1,25,97,24
1,25,97,68
1,25,100,52
1,25,97,44
1,28,94,36
1,25,97,4
1,25,97,56
1,25,100,48
1,25,97,36
1,28,100,4
1,25,100,8
1,25,100,44
1,25,100,40
1,25,100,36
1,28,94,8
1,25,97,12
1,25,97,40
1,25,103,44
1,25,103,36
1,28,91,16
1,25,97,28
1,25,97,60
1,25,100,48
1,25,97,36
1,28,94,36
1,25,97,8
1,25,97,68
1,25,100,48
1,25,97,36
1,28,100,4
1,25,100,4
1,25,100,40
1,25,100,36
1,25,100,28
1,28,94,8
1,25,97,16
1,25,97,52
1,25,103,44
1,25,103,36
1,28,91,16
1,25,97,24
1,25,97,60
1,25,100,48
1,25,97,36
1,28,94,36
1,29,94,4
1,29,94,56
1,29,103,32
1,27,97,152
1,29,100,24
1,29,103,36
1,29,100,36
1,29,103,8
1,27,100,108
1,33,85,28
1,33,76,72
1,33,82,40
1,33,73,128
1,33,79,64
1,33,76,44
1,33,91,32
1,33,73,12
1,33,85,60
1,30,94,96
1,30,100,52
1,30,94,40
1,30,88,68
1,30,97,28
1,30,76,44
1,32,88,36
1,32,46,8
1,35,97,16
1,37,103,0
1,37,79,44
1,35,91,12
1,37,91,28
1,37,103,56
1,35,88,288
1,37,91,44
1,37,100,60
1,35,88,4
1,37,88,36
1,37,85,36
1,28,94,8
1,30,94,20
1,30,97,24
1,28,82,20
1,30,94,40
1,30,94,48
1,28,91,20
1,30,94,44
1,30,100,36
1,28,85,24
1,30,97,28
1,30,97,56
1,35,100,40
1,37,100,8
1,37,103,60
1,35,91,16
1,37,100,8
1,37,100,44
1,35,91,4
1,37,97,24
1,37,88,32
1,35,97,8
1,37,91,28
1,37,100,28
1,28,97,20
1,30,103,12
1,30,100,24
1,28,91,32
1,30,97,28
1,30,97,24
1,28,91,28
1,30,103,24
1,30,100,36
1,28,85,8
1,30,100,12
1,30,91,24
1,35,100,12
1,37,97,8
1,37,103,36
1,35,91,36
1,37,94,24
1,37,100,20
1,35,97,24
1,37,97,8
1,37,103,16
1,35,97,36
1,37,97,20
1,37,103,40
1,28,85,288
1,30,97,16
1,30,100,36
1,28,88,28
1,30,94,192
1,30,100,28
1,28,85,20
1,30,97,8
1,30,97,16
1,28,88,24
1,30,97,192
1,30,100,28
1,35,100,24
1,37,97,20
1,37,103,40
1,35,91,32
1,37,94,24
1,37,100,24
1,35,97,24
1,37,97,8
1,37,103,16
1,35,97,36
1,37,97,20
1,37,103,36
1,28,85,288
1,30,97,16
1,30,100,36
1,28,88,28
1,30,94,192
1,30,100,32
1,28,85,20
1,30,97,8
1,30,97,16
1,28,88,24
1,30,97,192
1,30,100,32
1,35,100,20
1,37,103,28
1,37,103,52
1,35,91,16
1,37,97,32
1,37,97,56
1,35,88,12
1,37,97,36
1,37,100,72
1,35,88,4
1,37,94,24
1,37,100,60
1,37,88,8
1,35,91,24
1,35,103,68
1,35,106,0
1,35,103,40
1,35,100,56
1,37,97,24
1,37,97,64
1,35,91,4
1,37,97,28
1,37,100,56
1,35,100,12
1,37,103,20
1,37,103,52
1,35,91,16
1,37,97,32
1,37,97,56
1,35,88,12
1,37,97,36
1,37,100,72
1,35,88,4
1,37,94,24
1,37,100,60
1,37,88,8
1,35,91,24
1,35,103,68
1,35,106,0
1,35,103,40
1,35,100,56
1,37,97,24
1,37,97,64
1,35,91,4
1,37,97,28
1,37,100,56
1,35,100,12
1,37,103,20
1,37,103,48
1,35,91,16
1,37,97,32
1,37,97,60
1,35,88,12
1,37,97,36
1,37,100,64
1,35,88,4
1,37,94,24
1,37,100,60
1,37,88,8
1,35,91,24
1,35,103,68
1,35,106,0
1,35,103,40
1,35,100,56
1,37,97,28
1,37,97,60
1,35,91,4
1,37,97,28
1,37,100,56
1,35,100,12
1,37,103,20
1,37,103,48
1,35,91,16
1,37,97,32
1,37,97,56
1,35,88,12
1,37,97,36
1,37,100,72
1,35,88,4
1,37,94,24
1,37,100,60
1,37,88,8
1,35,91,24
1,35,103,68
1,35,106,0
1,35,103,40
1,35,100,56
1,37,97,24
1,37,97,64
1,35,91,4
1,37,97,28
1,37,100,56
1,35,100,12
1,37,103,20
1,37,103,52
1,35,91,16
1,37,97,32
1,37,97,56
1,35,88,12
1,37,97,36
1,37,100,72
1,35,88,4
1,37,94,24
1,37,100,60
1,37,88,8
1,35,91,24
1,35,103,68
1,35,106,0
1,35,103,40
1,35,100,56
1,37,97,24
1,37,97,64
1,35,91,8
1,37,97,28
1,37,100,56
1,35,100,12
1,37,103,20
1,37,103,48
1,35,91,16
1,37,97,32
1,37,97,60
1,35,88,12
1,37,97,36
1,37,100,64
1,35,88,12
1,37,94,24
1,37,100,60
1,37,88,8
1,35,91,24
1,35,103,68
1,35,106,0
1,35,103,40
1,35,100,20
1,37,97,32
1,37,97,60
1,35,91,8
1,37,97,28
1,37,100,56
1,35,100,12
1,37,103,28
1,37,103,48
1,35,91,16
1,37,97,32
1,37,97,56
1,35,88,12
1,37,97,36
1,37,100,76
1,35,88,4
1,37,94,24
1,37,100,60
1,37,88,8
1,35,91,24
1,35,103,68
1,35,106,0
1,35,103,48
1,35,100,56
1,37,97,24
1,37,97,28
1,35,91,4
1,37,97,28
1,37,100,60
1,35,100,12
1,37,103,16
1,37,103,52
1,35,91,16
1,37,97,32
1,37,97,56
1,35,88,16
1,37,97,36
1,37,100,72
1,35,88,4
1,37,94,24
1,37,100,60
1,37,88,8
1,35,91,24
1,35,103,68
1,35,106,12
1,35,103,40
1,35,100,56
1,37,97,24
1,37,97,64
1,35,91,16
1,37,97,28
1,37,100,56
1,35,100,16
1,37,103,20
1,37,103,4
1,35,91,16
1,37,97,40
1,37,97,68
1,35,88,12
1,37,97,40
1,37,100,64
1,35,88,12
1,37,94,24
1,37,100,60
1,37,88,4
2,25,89,1324
2,25,88,268
2,25,89,132
2,25,89,304
2,25,89,128
2,25,89,292
2,25,88,268
2,25,89,132
2,25,89,304
2,25,89,128
2,25,89,292
2,25,88,268
2,25,89,132
2,25,89,304
2,25,89,128
2,25,89,292
2,25,88,268
2,25,89,132
2,25,89,304
2,25,89,128
2,25,89,292
2,25,88,272
2,25,89,132
2,25,89,304
2,25,89,128
2,25,89,292
2,25,88,272
2,25,89,132
2,25,89,304
2,25,89,128
2,25,89,296
2,25,88,272
2,25,89,132
2,25,89,304
2,25,89,128
2,25,89,292
2,25,88,272
2,25,89,132
2,25,89,304
2,25,89,128
2,25,89,292
2,25,88,272
2,25,89,132
2,25,89,304
2,25,89,132
2,25,89,292
2,25,88,272
2,25,89,132
2,25,89,304
2,25,89,128
2,25,89,292
2,25,88,272
2,25,89,132
2,25,89,304
2,25,89,128
2,25,89,292
2,25,88,272
2,25,89,132
2,25,89,304
2,25,89,128
2,25,89,292
2,25,88,268
2,25,89,132
2,25,89,304
2,25,89,128
2,25,89,292
2,25,88,268
2,25,89,132
2,25,89,304
2,25,89,128
2,25,89,292
2,25,88,268
2,25,89,132
2,25,89,308
2,25,89,128
2,25,89,292
2,25,88,268
2,25,89,132
2,25,89,308
2,25,89,128
2,25,89,292
2,25,88,268
2,25,89,132
2,25,89,304
2,25,89,128
2,25,89,292
2,25,88,268
2,25,89,132
2,25,89,312
2,25,89,128
2,25,89,292
2,25,88,268
2,25,89,132
2,25,89,304
2,25,89,128
2,25,89,292
2,25,88,276
2,25,89,132
2,25,89,304
2,25,89,128
2,25,89,296
2,25,88,272
2,25,89,132
2,25,89,304
2,25,89,128
2,25,89,292
2,25,88,268
2,25,89,132
2,25,89,304
2,25,89,132
2,25,89,296
2,25,88,272
2,25,89,132
2,25,89,304
2,25,89,128
2,25,89,292
2,25,88,272
2,25,89,132
2,25,89,304
2,25,89,128
2,25,89,292
2,25,88,268
2,25,89,132
2,25,89,304
2,25,89,128
2,25,89,292
2,25,88,268
2,25,89,132
2,25,89,308
2,25,89,132
2,25,89,296
2,25,88,276
2,25,89,132
2,25,89,304
2,25,89,128
2,25,89,292
2,25,88,272
2,25,89,132
2,25,89,308
2,25,89,128
2,25,89,292
2,25,88,268
2,25,89,132
2,25,89,304
2,25,89,128
2,29,89,292
2,29,88,272
2,29,89,132
2,29,89,304
2,29,89,128
2,29,89,292
2,29,88,268
2,29,89,132
2,29,89,304
2,29,89,128
2,33,89,292
2,33,88,268
2,33,89,132
2,33,89,304
2,33,89,128
2,33,89,296
2,33,88,268
2,33,89,132
2,33,89,304
2,33,89,128
2,33,89,292
2,30,88,276
2,30,89,132
2,30,89,304
2,30,89,128
2,30,89,292
2,30,88,268
2,30,89,136
2,32,89,304
2,32,89,128
2,25,89,292
2,25,88,280
2,25,89,136
2,25,89,312
2,25,89,128
2,25,89,292
2,25,88,272
2,25,89,132
2,25,89,308
2,25,89,128
2,25,89,292
2,25,88,268
2,25,89,132
2,25,89,312
2,25,89,128
2,25,89,292
2,25,88,268
2,25,89,132
2,25,89,304
2,25,89,132
2,25,89,292
2,25,88,272
2,25,89,132
2,25,89,312
2,25,89,128
2,25,89,292
2,25,88,272
2,25,89,132
2,25,89,308
2,25,89,128
2,25,89,296
2,25,88,268
2,25,89,132
2,25,89,304
2,25,89,128
2,25,89,300
2,25,88,272
2,25,89,132
2,25,89,304
2,25,89,132
3,69,74,24844
3,68,70,8
3,66,67,24
3,68,68,32
3,69,71,20
3,68,70,20
3,66,62,24
3,68,49,48
3,68,71,1240
3,71,73,196
3,64,70,164
3,64,58,60
3,64,50,72
3,68,67,1240
3,68,65,76
3,68,64,80
3,69,67,56
3,68,59,20
3,66,67,20
3,66,59,1692
3,66,59,72
3,66,56,64
3,66,65,96
3,64,53,68
3,64,59,100
3,68,71,1300
3,68,76,68
3,68,71,48
3,68,71,68
3,64,70,36
3,68,70,224
3,68,71,80
3,68,70,40
3,68,64,92
3,60,62,12
3,64,64,500
3,66,76,64
3,64,61,36
3,63,70,60
3,64,56,32
3,66,67,24
3,66,70,608
3,66,71,72
3,64,62,68
3,63,67,8
3,66,65,0
3,69,74,13036
3,68,71,100
3,66,71,24
3,68,65,20
3,68,73,620
3,69,79,92
3,68,71,424
3,66,68,28
3,68,67,20
3,68,71,592
3,68,73,44
3,71,71,40
3,64,73,36
3,64,64,56
3,64,64,52
3,68,70,1448
3,68,65,48
3,68,62,52
3,68,65,48
3,69,68,16
3,68,71,24
3,66,70,20
3,64,68,2196
3,66,71,28
3,66,71,48
3,66,67,60
3,64,65,32
3,64,68,56
3,68,76,804
3,68,73,56
3,68,68,68
3,68,64,56
3,64,70,16
3,68,74,692
3,68,74,48
3,68,70,48
3,60,77,64
3,64,71,1484
3,66,76,28
3,64,70,36
3,63,65,44
3,64,70,1548
3,66,76,36
3,63,70,44
3,66,71,4
3,61,73,2148
