track,note,velocity,time
1,52,127,964
1,52,0,24
1,52,127,35
1,52,0,14
1,52,127,15
1,52,0,19
1,52,127,130
1,52,0,22
1,64,127,34
1,64,0,22
1,64,127,37
1,64,0,13
1,64,127,16
1,64,0,16
1,52,127,23
1,52,0,24
1,52,127,35
1,52,0,14
1,52,127,15
1,52,0,19
1,52,127,30
1,52,0,22
1,64,127,34
1,64,0,22
1,64,127,37
1,64,0,13
1,64,127,16
1,64,0,16
1,52,127,68
1,52,0,24
1,52,127,35
1,52,0,14
1,52,127,15
1,52,0,19
1,52,127,20
1,52,0,22
1,64,127,34
1,64,0,22
1,64,127,37
1,64,0,13
1,64,127,16
1,64,0,16
1,52,127,48
1,52,0,24
1,52,127,35
1,52,0,14
1,52,127,15
1,52,0,19
1,52,127,90
1,52,0,22
1,64,127,34
1,64,0,22
1,64,127,37
1,64,0,13
1,64,127,16
1,64,0,16
1,52,127,78
1,52,0,24
1,52,127,35
1,52,0,14
1,52,127,15
1,52,0,19
1,52,127,0
1,52,0,22
1,64,127,34
1,64,0,22
1,64,127,37
1,64,0,13
1,64,127,16
1,64,0,16
1,52,127,74
1,52,0,24
1,52,127,35
1,52,0,14
1,52,127,15
1,52,0,19
1,52,127,100
1,52,0,22
1,64,127,34
1,64,0,22
1,64,127,37
1,64,0,13
1,64,127,16
1,64,0,11
1,52,127,83
1,52,0,24
1,52,127,35
1,52,0,14
1,52,127,15
1,52,0,19
1,52,127,100
1,52,0,22
1,64,127,34
1,64,0,22
1,64,127,37
1,64,0,13
1,64,127,16
1,64,0,16
1,52,127,72
1,52,0,24
1,52,127,35
1,52,0,14
1,52,127,15
1,52,0,19
1,52,127,75
1,52,0,22
1,64,127,34
1,64,0,22
1,64,127,37
1,64,0,13
1,64,127,16
1,64,0,16
1,52,127,83
1,52,0,24
1,52,127,35
1,52,0,14
1,52,127,15
1,52,0,19
1,52,127,95
1,52,0,22
1,64,127,34
1,64,0,22
1,64,127,2
1,64,0,13
1,64,127,16
1,64,0,16
1,52,127,83
1,52,0,24
1,52,127,35
1,52,0,14
1,52,127,15
1,52,0,19
1,52,127,110
1,52,0,22
1,64,127,34
1,64,0,22
1,64,127,7
1,64,0,13
1,64,127,16
1,64,0,16
1,52,127,83
1,52,0,24
1,52,127,35
1,52,0,14
1,52,127,15
1,52,0,19
1,52,127,110
1,52,0,22
1,64,127,34
1,64,0,22
1,64,127,37
1,64,0,13
1,64,127,5
1,64,0,16
1,52,127,62
1,52,0,24
1,52,127,0
1,52,0,6
1,52,127,15
1,52,0,19
1,52,127,24
1,52,0,22
1,64,127,34
1,64,0,22
1,64,127,0
1,64,0,3
1,64,127,11
1,64,0,16
1,52,127,0
1,52,0,14
1,52,127,5
1,52,0,4
1,52,127,0
1,52,0,9
1,52,127,0
1,52,0,22
1,64,127,34
1,64,0,22
1,64,127,0
1,64,0,3
1,64,127,16
1,64,0,16
1,52,127,49
1,52,0,24
1,52,127,35
1,52,0,14
1,52,127,15
1,52,0,19
1,52,127,0
1,52,0,22
1,64,127,4
1,64,0,22
1,64,127,37
1,64,0,13
1,64,127,11
1,64,0,16
1,52,127,15
1,52,0,24
1,52,127,5
1,52,0,14
1,52,127,15
1,52,0,19
1,52,127,21
1,52,0,22
1,64,127,34
1,64,0,22
1,64,127,27
1,64,0,13
1,64,127,16
1,64,0,16
1,52,127,6488
1,52,0,24
1,52,127,35
1,52,0,14
1,52,127,15
1,52,0,19
1,52,127,130
1,52,0,22
1,64,127,34
1,64,0,22
1,64,127,37
1,64,0,13
1,64,127,16
1,64,0,16
1,52,127,23
1,52,0,24
1,52,127,35
1,52,0,14
1,52,127,15
1,52,0,19
1,52,127,30
1,52,0,22
1,64,127,34
1,64,0,22
1,64,127,37
1,64,0,13
1,64,127,16
1,64,0,16
1,52,127,68
1,52,0,24
1,52,127,35
1,52,0,14
1,52,127,15
1,52,0,19
1,52,127,20
1,52,0,22
1,64,127,34
1,64,0,22
1,64,127,37
1,64,0,13
1,64,127,16
1,64,0,16
1,52,127,48
1,52,0,24
1,52,127,35
1,52,0,14
1,52,127,15
1,52,0,19
1,52,127,90
1,52,0,22
1,64,127,34
1,64,0,22
1,64,127,37
1,64,0,13
1,64,127,16
1,64,0,16
1,52,127,78
1,52,0,24
1,52,127,35
1,52,0,14
1,52,127,15
1,52,0,19
1,52,127,0
1,52,0,22
1,64,127,34
1,64,0,22
1,64,127,37
1,64,0,13
1,64,127,16
1,64,0,16
1,52,127,74
1,52,0,24
1,52,127,35
1,52,0,14
1,52,127,15
1,52,0,19
1,52,127,100
1,52,0,22
1,64,127,34
1,64,0,22
1,64,127,37
1,64,0,13
1,64,127,16
1,64,0,11
2,40,127,6720
2,40,0,119
2,40,127,32
2,40,0,31
2,40,127,35
2,40,0,104
2,52,127,19
2,52,0,85
2,42,127,37
2,42,0,127
2,42,127,59
2,42,0,37
2,42,127,25
2,42,0,109
2,54,127,5
2,54,0,88
2,40,127,37
2,40,0,131
2,40,127,48
2,40,0,32
2,40,127,32
2,40,0,109
2,52,127,11
2,52,0,58
2,37,127,56
2,37,0,133
2,37,127,40
2,37,0,35
2,37,127,29
2,49,127,119
2,37,0,9
2,49,0,100
2,42,127,29
2,42,0,132
2,42,127,43
2,42,0,42
2,40,127,21
2,52,127,111
2,40,0,10
2,52,0,53
2,42,127,69
2,42,0,132
2,42,127,43
2,42,0,42
2,40,127,21
2,52,127,111
2,40,0,10
2,52,0,53
2,32,127,56
2,32,0,139
2,32,127,37
2,32,0,42
2,32,127,22
2,32,0,120
2,44,127,5
2,44,0,120
2,32,127,0
2,32,0,136
2,32,127,45
2,32,0,43
2,32,127,16
2,32,0,116
2,44,127,6
2,44,0,58
2,40,127,59
2,40,0,135
2,40,127,44
2,40,0,37
2,40,127,24
2,40,0,114
2,52,127,1
2,52,0,103
2,42,127,19
2,42,0,136
2,42,127,45
2,42,0,34
2,42,127,24
2,42,0,115
2,54,127,2
2,54,0,69
2,40,127,54
2,40,0,133
2,40,127,40
2,40,0,38
2,40,127,26
2,40,0,115
2,52,127,5
2,52,0,50
2,37,127,75
2,37,0,135
2,37,127,49
2,37,0,37
2,37,127,21
2,49,127,114
2,37,0,8
2,49,0,88
2,42,127,21
2,42,0,118
2,42,127,51
2,42,0,29
2,40,127,37
2,40,0,120
2,52,127,3
2,52,0,125
2,42,127,5
2,42,0,139
2,42,127,47
2,42,0,35
2,40,127,27
2,52,127,116
2,40,0,8
2,52,0,65
2,32,127,48
2,32,0,162
2,32,127,19
2,32,0,32
2,32,127,27
2,32,0,239
2,44,127,5
2,44,0,144
2,44,127,32
2,44,0,37
2,44,127,25
2,44,0,223
2,33,127,18
2,33,0,137
2,33,127,29
2,33,0,37
2,33,127,29
2,45,127,113
2,33,0,8
2,45,0,101
2,35,127,5
2,35,0,151
2,35,127,33
2,35,0,39
2,35,127,25
2,47,127,112
2,35,0,2
2,47,0,121
2,32,127,0
2,32,0,135
2,32,127,51
2,32,0,37
2,32,127,27
2,44,127,121
2,32,0,12
2,37,127,106
2,44,0,8
2,37,0,144
2,37,127,27
2,37,0,39
2,37,127,22
2,49,127,117
2,37,0,8
2,49,0,43
2,33,127,69
2,33,0,183
2,31,127,46
2,43,127,128
2,31,0,5
2,36,127,106
2,43,0,3
2,36,0,149
2,36,127,27
2,36,0,40
2,33,127,24
2,45,127,119
2,33,0,16
2,45,0,107
2,35,127,3
2,35,0,160
2,35,127,31
2,35,0,40
2,35,127,22
2,35,0,122
2,47,127,0
2,35,127,115
2,47,0,5
2,35,0,130
2,35,127,32
2,35,0,46
2,35,127,18
2,47,127,123
2,35,0,11
2,47,0,58
2,28,127,53
2,28,0,130
2,28,127,37
2,28,0,38
2,28,127,29
2,28,0,131
2,40,127,0
2,40,0,109
2,28,127,8
2,28,0,140
2,28,127,33
2,28,0,39
2,28,127,32
2,28,0,120
2,40,127,1
2,40,0,85
2,33,127,13478
2,33,0,137
2,33,127,29
2,33,0,37
2,33,127,29
2,45,127,113
2,33,0,8
2,45,0,101
2,35,127,5
2,35,0,151
2,35,127,33
2,35,0,39
2,35,127,25
2,47,127,112
2,35,0,2
2,47,0,121
2,32,127,0
2,32,0,135
2,32,127,51
2,32,0,37
2,32,127,27
2,44,127,121
2,32,0,12
2,37,127,106
2,44,0,8
2,37,0,144
2,37,127,27
2,37,0,39
2,37,127,22
2,49,127,117
2,37,0,8
2,49,0,43
2,33,127,69
2,33,0,183
2,31,127,46
2,43,127,128
2,31,0,5
2,36,127,106
2,43,0,3
2,36,0,149
2,36,127,27
2,36,0,40
2,33,127,24
2,45,127,119
2,33,0,16
2,45,0,107
2,35,127,3
2,35,0,160
2,35,127,31
2,35,0,40
2,35,127,22
2,35,0,122
2,47,127,0
2,35,127,115
2,47,0,5
2,35,0,130
2,35,127,32
2,35,0,46
2,35,127,18
2,47,127,123
2,35,0,11
2,47,0,58
2,33,127,63
2,33,0,137
2,33,127,29
2,33,0,37
2,33,127,29
2,45,127,113
2,33,0,8
2,45,0,101
2,35,127,5
2,35,0,151
2,35,127,33
2,35,0,39
2,35,127,25
2,47,127,112
2,35,0,2
2,47,0,121
2,32,127,0
2,32,0,135
2,32,127,51
2,32,0,37
2,32,127,27
2,44,127,121
2,32,0,12
2,37,127,106
2,44,0,8
2,37,0,144
2,37,127,27
2,37,0,39
2,37,127,22
2,49,127,117
2,37,0,8
2,49,0,43
2,33,127,69
2,33,0,183
2,31,127,46
2,43,127,128
2,31,0,5
2,36,127,106
2,43,0,3
2,36,0,149
2,36,127,27
2,36,0,40
2,33,127,24
2,45,127,119
2,33,0,16
2,45,0,107
2,35,127,3
2,35,0,160
2,35,127,31
2,35,0,40
2,35,127,22
2,35,0,122
2,47,127,0
2,35,127,115
2,47,0,5
2,35,0,130
2,35,127,32
2,35,0,46
2,35,127,18
2,47,127,123
2,35,0,11
2,47,0,58
2,33,127,63
2,33,0,137
2,33,127,29
2,33,0,37
2,33,127,29
2,45,127,113
2,33,0,8
2,45,0,101
2,35,127,5
2,35,0,151
2,35,127,33
2,35,0,39
2,35,127,25
2,47,127,112
2,35,0,2
2,47,0,121
2,32,127,0
2,32,0,135
2,32,127,51
2,32,0,37
2,32,127,27
2,44,127,121
2,32,0,12
2,37,127,106
2,44,0,8
2,37,0,144
2,37,127,27
2,37,0,39
2,37,127,22
2,49,127,117
2,37,0,8
2,49,0,43
2,33,127,69
2,33,0,183
2,31,127,46
2,43,127,128
2,31,0,5
2,36,127,106
2,43,0,3
2,36,0,149
2,36,127,27
2,36,0,40
2,33,127,24
2,45,127,119
2,33,0,16
2,45,0,107
2,35,127,3
2,35,0,160
2,35,127,31
2,35,0,40
2,35,127,22
2,35,0,122
2,47,127,0
2,35,127,115
2,47,0,5
2,35,0,130
2,35,127,32
2,35,0,46
2,35,127,18
2,47,127,123
2,35,0,11
2,47,0,58
2,33,127,63
2,33,0,137
2,33,127,29
2,33,0,37
2,33,127,29
2,45,127,113
2,33,0,8
2,45,0,101
2,35,127,5
2,35,0,151
2,35,127,33
2,35,0,39
2,35,127,25
2,47,127,112
2,35,0,2
2,47,0,121
2,32,127,0
2,32,0,135
2,32,127,51
2,32,0,37
2,32,127,27
2,44,127,121
2,32,0,12
2,37,127,106
2,44,0,8
2,37,0,144
2,37,127,27
2,37,0,39
2,37,127,22
2,49,127,117
2,37,0,8
2,49,0,43
2,33,127,69
2,33,0,183
2,31,127,46
2,43,127,128
2,31,0,5
2,36,127,106
2,43,0,3
2,36,0,149
2,36,127,27
2,36,0,40
2,33,127,24
2,45,127,119
2,33,0,16
2,45,0,107
2,35,127,3
2,35,0,160
2,35,127,31
2,35,0,40
2,35,127,22
2,35,0,122
2,47,127,0
2,35,127,115
2,47,0,5
2,35,0,130
2,35,127,32
2,35,0,46
2,35,127,18
2,47,127,123
2,35,0,11
2,47,0,58
2,33,127,63
2,33,0,137
2,33,127,29
2,33,0,37
2,33,127,29
2,45,127,113
2,33,0,8
2,45,0,101
2,35,127,5
2,35,0,151
2,35,127,33
2,35,0,39
2,35,127,25
2,47,127,112
2,35,0,2
2,47,0,121
2,32,127,0
2,32,0,135
2,32,127,51
2,32,0,37
2,32,127,27
2,44,127,121
2,32,0,12
2,37,127,106
2,44,0,8
2,37,0,144
2,37,127,27
2,37,0,39
2,37,127,22
2,49,127,117
2,37,0,8
2,49,0,43
2,33,127,69
2,33,0,183
2,31,127,46
2,43,127,128
2,31,0,5
2,36,127,106
2,43,0,3
2,36,0,149
2,36,127,27
2,36,0,40
2,33,127,24
2,45,127,119
2,33,0,16
2,45,0,107
2,35,127,3
2,35,0,160
2,35,127,31
2,35,0,40
2,35,127,22
2,35,0,122
2,47,127,0
2,35,127,115
2,47,0,5
2,35,0,130
2,35,127,32
2,35,0,46
2,35,127,18
2,47,127,123
2,35,0,11
2,47,0,58
3,28,127,2873
3,40,127,0
3,40,0,71
3,28,0,0
3,28,127,117
3,40,127,1
3,40,0,21
3,28,0,2
3,28,127,41
3,40,127,0
3,28,0,34
3,40,0,3
3,52,127,85
3,52,0,37
3,28,127,75
3,40,127,0
3,40,0,71
3,28,0,0
3,28,127,117
3,40,127,1
3,40,0,21
3,28,0,2
3,28,127,41
3,40,127,0
3,28,0,34
3,40,0,3
3,52,127,85
3,52,0,37
3,28,127,68
3,40,127,0
3,40,0,71
3,28,0,0
3,28,127,117
3,40,127,1
3,40,0,21
3,28,0,2
3,28,127,41
3,40,127,0
3,28,0,34
3,40,0,3
3,52,127,85
3,52,0,37
3,28,127,68
3,40,127,0
3,40,0,71
3,28,0,0
3,28,127,117
3,40,127,1
3,40,0,21
3,28,0,2
3,28,127,41
3,40,127,0
3,28,0,34
3,40,0,3
3,52,127,85
3,52,0,37
3,28,127,68
3,40,127,0
3,40,0,71
3,28,0,0
3,28,127,117
3,40,127,1
3,40,0,21
3,28,0,2
3,28,127,41
3,40,127,0
3,28,0,34
3,40,0,3
3,52,127,85
3,52,0,37
3,28,127,68
3,40,127,0
3,40,0,71
3,28,0,0
3,28,127,117
3,40,127,1
3,40,0,21
3,28,0,2
3,28,127,41
3,40,127,0
3,28,0,34
3,40,0,3
3,52,127,85
3,52,0,37
3,28,127,68
3,40,127,0
3,40,0,71
3,28,0,0
3,28,127,117
3,40,127,1
3,40,0,21
3,28,0,2
3,28,127,41
3,40,127,0
3,28,0,34
3,40,0,3
3,52,127,85
3,52,0,37
3,28,127,68
3,40,127,0
3,40,0,71
3,28,0,0
3,28,127,117
3,40,127,1
3,40,0,21
3,28,0,2
3,28,127,41
3,40,127,0
3,28,0,34
3,40,0,3
3,52,127,85
3,52,0,37
3,40,127,12548
3,40,0,119
3,40,127,32
3,40,0,31
3,40,127,35
3,40,0,104
3,52,127,19
3,52,0,85
3,42,127,37
3,42,0,127
3,42,127,59
3,42,0,37
3,42,127,25
3,42,0,109
3,54,127,5
3,54,0,88
3,40,127,37
3,40,0,131
3,40,127,48
3,40,0,32
3,40,127,32
3,40,0,109
3,52,127,11
3,52,0,58
3,37,127,56
3,37,0,133
3,37,127,40
3,37,0,35
3,37,127,29
3,49,127,119
3,37,0,9
3,49,0,100
3,42,127,29
3,42,0,132
3,42,127,43
3,42,0,42
3,40,127,21
3,52,127,111
3,40,0,10
3,52,0,53
3,42,127,69
3,42,0,132
3,42,127,43
3,42,0,42
3,40,127,21
3,52,127,111
3,40,0,10
3,52,0,53
3,32,127,56
3,32,0,139
3,32,127,37
3,32,0,42
3,32,127,22
3,32,0,120
3,44,127,5
3,44,0,120
3,32,127,0
3,32,0,136
3,32,127,45
3,32,0,43
3,32,127,16
3,32,0,116
3,44,127,6
3,44,0,58
3,40,127,59
3,40,0,135
3,40,127,44
3,40,0,37
3,40,127,24
3,40,0,114
3,52,127,1
3,52,0,103
3,42,127,19
3,42,0,136
3,42,127,45
3,42,0,34
3,42,127,24
3,42,0,115
3,54,127,2
3,54,0,69
3,40,127,54
3,40,0,133
