track,note,velocity,time
1,26,103,1136
1,38,100,0
1,57,79,188
1,62,100,192
1,60,92,192
1,65,92,0
1,31,103,196
1,43,97,0
1,58,61,192
1,65,89,192
1,69,103,192
1,34,106,4
1,46,115,0
1,62,72,192
1,69,95,192
1,72,95,192
1,38,106,4
1,57,84,192
1,62,92,192
1,65,92,192
1,43,103,196
1,58,66,192
1,65,100,192
1,69,97,192
1,46,101,4
1,62,77,192
1,69,103,192
1,72,84,192
1,38,110,196
1,57,82,192
1,62,97,192
1,65,100,192
1,26,106,4612
1,38,92,0
1,26,106,96
1,38,103,0
1,26,103,1540
1,38,97,0
1,38,95,96
1,26,106,0
1,26,100,1540
1,38,95,0
1,26,110,4
1,38,110,0
1,53,110,96
1,41,103,0
1,49,106,768
1,37,115,0
1,46,95,1520
1,34,106,0
1,31,114,1504
1,43,103,0
1,26,114,0
1,38,117,0
1,37,120,292
1,25,125,0
1,34,123,676
1,22,125,0
1,19,123,580
1,31,120,0
1,34,119,292
1,22,120,0
1,24,120,388
1,36,114,0
1,38,106,4
1,57,84,192
1,62,92,192
1,65,92,192
1,43,103,196
1,58,66,192
1,65,100,192
1,69,97,192
1,46,101,4
1,62,77,192
1,69,103,192
1,72,84,192
1,38,110,196
1,57,82,192
1,62,97,192
1,65,100,192
1,26,106,1540
1,38,92,0
1,26,106,96
1,38,103,0
1,26,103,1540
1,38,97,0
1,38,95,96
1,26,106,0
1,26,100,1540
1,38,95,0
1,26,110,4
1,38,110,0
1,53,110,96
1,41,103,0
1,49,106,768
1,37,115,0
1,46,95,1520
1,34,106,0
1,31,114,1504
1,43,103,0
1,26,114,0
1,38,117,0
1,37,120,292
1,25,125,0
1,34,123,676
1,22,125,0
1,19,123,580
1,31,120,0
1,34,119,292
1,22,120,0
1,24,120,388
1,36,114,0
1,34,119,4
1,22,120,0
1,24,120,388
1,36,114,0
1,38,110,4
1,50,103,0
1,37,101,196
1,49,110,0
1,34,97,580
1,46,91,0
1,31,106,772
1,43,95,0
1,36,103,20
1,48,100,0
1,38,114,28
1,50,110,0
1,36,114,8
1,48,103,0
1,38,110,16
1,50,100,0
1,48,89,16
1,36,110,0
1,50,103,196
1,38,106,0
1,36,110,196
1,48,106,0
1,38,110,196
1,50,103,0
1,36,106,388
1,48,103,0
1,41,106,964
1,53,110,0
1,37,97,388
1,49,101,0
1,34,106,388
1,46,97,0
1,46,97,196
1,34,106,0
1,31,106,580
1,43,97,0
1,31,106,4
1,43,106,0
1,38,103,964
1,50,89,0
1,37,97,580
1,49,101,0
1,34,106,580
1,46,83,0
1,31,106,772
1,43,103,0
1,34,101,580
1,46,97,0
1,36,106,580
1,48,95,0
1,38,110,772
1,50,103,0
1,37,97,388
1,49,101,0
1,34,101,580
1,46,95,0
1,31,103,772
1,43,97,0
1,34,106,388
1,46,101,0
1,36,103,964
1,48,97,0
1,46,97,196
1,34,110,0
1,48,97,580
1,36,103,0
1,34,101,580
1,46,97,0
1,36,100,772
1,48,97,0
1,38,103,772
1,50,95,0
1,37,101,580
1,49,95,0
1,46,95,580
1,34,115,0
1,31,106,964
1,43,103,0
1,34,106,388
1,46,106,0
1,48,103,388
1,36,110,0
1,50,106,16
1,38,114,0
1,49,101,196
1,37,110,0
1,46,110,196
1,34,106,0
1,43,103,388
1,31,114,0
1,34,101,4
1,46,110,0
1,48,114,388
1,36,114,0
1,38,110,4
1,50,110,0
1,37,106,32
1,49,101,0
1,34,101,32
1,46,101,0
1,43,103,64
1,31,117,0
1,34,115,96
1,46,110,0
1,48,103,32
1,36,110,0
1,66,95,8
1,38,114,0
1,62,114,0
1,57,106,0
2,26,107,7260
2,26,112,4
2,24,104,96
2,26,107,4
2,29,101,4
2,26,107,4
2,29,101,4
2,26,104,4
2,29,101,4
2,24,115,4
2,26,122,4
2,26,112,4
2,24,115,96
2,26,115,4
2,29,118,4
2,26,107,4
2,29,109,4
2,26,109,4
2,29,101,4
2,24,112,4
2,26,118,4
2,26,115,4
2,24,115,96
2,26,112,4
2,29,115,4
2,26,112,4
2,29,101,4
2,26,107,4
2,29,112,4
2,24,112,4
2,26,118,4
2,26,112,4
2,24,112,96
2,26,112,4
2,29,101,4
2,26,112,4
2,29,104,4
2,26,109,4
2,29,107,4
2,24,112,4
2,26,115,4
2,26,112,4
2,24,115,96
2,26,115,4
2,29,112,4
2,26,115,4
2,29,104,4
2,26,112,4
2,29,109,4
2,24,112,4
2,26,112,4
2,26,118,4
2,24,112,96
2,26,107,4
2,29,118,4
2,26,112,4
2,29,112,4
2,26,109,4
2,29,109,4
2,24,112,4
2,26,107,4
2,26,112,4
2,24,101,96
2,26,109,4
2,29,107,4
2,26,112,4
2,29,104,4
2,26,115,4
2,29,109,4
2,24,112,4
2,26,118,4
2,26,109,4
2,24,107,96
2,26,112,4
2,29,115,4
2,26,112,4
2,29,112,4
2,26,104,4
2,29,99,4
2,24,118,4
2,31,112,4
2,29,112,4
2,31,104,4
2,29,109,4
2,31,101,4
2,29,107,4
2,31,107,4
2,29,99,4
2,31,112,4
2,29,115,4
2,26,115,100
2,26,104,4
2,24,112,96
2,26,104,4
2,29,94,4
2,26,112,4
2,29,101,4
2,26,109,4
2,29,112,4
2,24,104,4
2,26,112,4
2,26,109,4
2,24,109,96
2,26,112,4
2,29,104,4
2,26,112,4
2,29,104,4
2,26,112,4
2,29,115,4
2,24,89,4
2,26,112,4
2,26,109,4
2,24,112,96
2,26,101,4
2,29,104,4
2,26,112,4
2,29,104,4
2,26,107,4
2,29,115,4
2,24,112,4
2,31,109,4
2,29,84,4
2,31,107,4
2,29,96,4
2,31,104,4
2,29,107,4
2,31,101,4
2,29,101,4
2,31,96,4
2,29,118,4
2,26,115,100
2,26,115,4
2,24,104,96
2,26,112,4
2,29,101,4
2,26,107,4
2,29,101,4
2,26,109,4
2,29,112,4
2,24,101,4
2,26,107,4
2,26,107,4
2,24,112,96
2,26,104,4
2,29,101,4
2,26,112,4
2,29,104,4
2,26,107,4
2,29,107,4
2,24,104,4
2,26,109,4
2,26,104,4
2,24,112,96
2,26,109,4
2,29,101,4
2,26,107,4
2,29,109,4
2,26,109,4
2,29,112,4
2,24,107,4
2,26,109,4
2,26,104,4
2,24,112,4
2,26,109,4
2,29,101,4
2,26,107,4
2,29,109,4
2,26,109,4
2,29,112,4
2,24,107,4
2,26,109,4
2,26,104,4
2,24,112,4
2,26,109,4
2,29,101,4
2,26,107,4
2,29,109,4
2,26,109,4
2,29,112,4
2,24,107,4
2,26,109,4
2,26,104,4
2,24,112,4
2,26,109,4
2,29,101,4
2,26,107,4
2,29,109,4
2,26,109,4
2,29,112,4
2,24,107,4
2,26,109,4
2,26,104,4
2,24,112,4
2,26,109,4
2,29,101,4
2,26,107,4
2,29,109,4
2,26,109,4
2,29,112,4
2,24,107,4
2,26,109,4
2,26,104,4
2,24,112,4
2,26,109,4
2,29,101,4
2,26,107,4
2,29,109,4
2,26,109,4
2,29,112,4
2,24,107,4
2,29,122,4
2,27,95,4
2,29,115,4
2,27,71,4
2,29,118,4
2,25,113,100
2,23,99,4
2,25,122,4
2,23,91,4
2,25,127,4
2,34,127,100
2,32,91,4
2,34,122,4
2,37,88,4
2,34,113,4
2,34,115,4
2,34,109,4
2,34,113,4
2,34,116,4
2,34,113,4
2,32,85,36
2,34,118,4
2,37,88,4
2,34,122,4
2,34,122,4
2,34,113,4
2,34,127,4
2,34,122,4
2,31,127,36
2,29,94,4
2,31,122,4
2,34,99,4
2,31,126,4
2,31,126,4
2,31,126,4
2,31,127,4
2,31,127,4
2,31,127,4
2,29,101,72
2,31,127,4
2,34,109,4
2,31,115,4
2,31,127,4
2,31,122,4
2,31,127,4
2,31,127,4
2,38,113,36
2,38,104,4
2,38,108,4
2,38,103,4
2,38,93,4
2,38,105,4
2,38,103,4
2,38,102,4
2,37,94,4
2,37,95,4
2,37,104,4
2,37,100,4
2,37,94,4
2,37,96,4
2,37,113,4
2,37,107,4
2,34,107,4
2,34,104,4
2,34,109,4
2,34,109,4
2,34,103,4
2,34,103,4
2,34,113,4
2,34,107,4
2,31,112,4
2,31,104,4
2,31,115,4
2,31,99,4
2,31,96,4
2,31,94,4
2,31,112,4
2,31,99,4
2,34,81,4
2,34,99,4
2,34,113,4
2,34,107,4
2,34,103,4
2,34,103,4
2,34,109,4
2,34,107,4
2,36,107,4
2,36,99,4
2,36,118,4
2,36,109,4
2,36,104,4
2,36,104,4
2,36,112,4
2,36,115,4
2,26,107,4
2,26,101,4
2,24,104,96
2,26,107,4
2,29,101,4
2,26,107,4
2,29,101,4
2,26,104,4
2,29,101,4
2,24,115,4
2,26,122,4
2,26,112,4
2,24,115,96
2,26,115,4
2,29,118,4
2,26,107,4
2,29,109,4
2,26,109,4
2,29,101,4
2,24,112,4
2,26,118,4
2,26,115,4
2,24,115,96
2,26,112,4
2,29,115,4
2,26,112,4
2,29,101,4
2,26,107,4
2,29,112,4
2,24,112,4
2,26,118,4
2,26,112,4
2,24,112,96
2,26,112,4
2,29,101,4
2,26,112,4
2,29,104,4
2,26,109,4
2,29,107,4
2,24,112,4
2,26,115,4
2,26,112,4
2,24,115,96
2,26,115,4
2,29,112,4
2,26,115,4
2,29,104,4
2,26,112,4
2,29,109,4
2,24,112,4
2,26,112,4
2,26,118,4
2,24,112,96
2,26,107,4
2,29,118,4
2,26,112,4
2,29,112,4
2,26,109,4
2,29,109,4
2,24,112,4
2,31,112,4
2,29,112,4
2,31,104,4
2,29,109,4
2,31,101,4
2,29,107,4
2,31,107,4
2,29,99,4
2,31,112,4
2,29,115,4
2,26,115,100
2,26,104,4
2,24,112,96
2,26,104,4
2,29,94,4
2,26,112,4
2,29,101,4
2,26,109,4
2,29,112,4
2,24,104,4
2,26,112,4
2,26,109,4
2,24,109,96
2,26,112,4
2,29,104,4
2,26,112,4
2,29,104,4
2,26,112,4
2,29,115,4
2,24,89,4
2,26,112,4
2,26,109,4
2,24,112,96
2,26,101,4
2,29,104,4
2,26,112,4
2,29,104,4
2,26,107,4
2,29,115,4
2,24,112,4
2,31,109,4
2,29,84,4
2,31,107,4
2,29,96,4
2,31,104,4
2,29,107,4
2,31,101,4
2,29,101,4
2,31,96,4
2,29,118,4
2,26,115,100
2,26,115,4
2,24,104,96
2,26,112,4
2,29,101,4
2,26,107,4
2,29,101,4
2,26,109,4
2,29,112,4
2,24,101,4
2,26,107,4
2,26,107,4
2,24,112,96
2,26,104,4
2,29,101,4
2,26,112,4
2,29,104,4
2,26,107,4
2,29,107,4
2,24,104,4
2,26,109,4
2,26,104,4
2,24,112,96
2,26,109,4
2,29,101,4
2,26,107,4
2,29,109,4
2,26,109,4
2,29,112,4
2,24,107,4
2,26,109,4
2,26,104,4
2,24,112,4
2,26,109,4
2,29,101,4
2,26,107,4
2,29,109,4
2,26,109,4
2,29,112,4
2,24,107,4
2,26,109,4
2,26,104,4
2,24,112,4
2,26,109,4
2,29,101,4
2,26,107,4
2,29,109,4
2,26,109,4
2,29,112,4
2,24,107,4
2,26,109,4
2,26,104,4
2,24,112,4
2,26,109,4
2,29,101,4
2,26,107,4
2,29,109,4
2,26,109,4
2,29,112,4
2,24,107,4
2,26,109,4
2,26,104,4
2,24,112,4
2,26,109,4
2,29,101,4
2,26,107,4
2,29,109,4
2,26,109,4
2,29,112,4
2,24,107,4
2,26,109,4
2,26,104,4
2,24,112,4
2,26,109,4
2,29,101,4
2,26,107,4
2,29,109,4
2,26,109,4
2,29,112,4
2,24,107,4
2,29,115,4
2,27,95,4
2,29,126,4
2,27,107,4
2,29,122,4
2,25,109,100
2,23,107,4
2,25,127,4
2,23,104,4
2,25,127,4
2,34,127,4
2,32,91,4
2,34,122,4
2,37,88,4
2,34,113,4
2,34,115,4
2,34,109,4
2,34,113,4
2,34,116,4
2,34,113,4
2,32,85,36
2,34,118,4
2,37,88,4
2,34,122,4
2,34,122,4
2,34,113,4
2,34,127,4
2,34,122,4
2,31,127,36
2,29,94,4
2,31,122,4
2,34,99,4
2,31,126,4
2,31,126,4
2,31,126,4
2,31,127,4
2,31,127,4
2,31,127,4
2,29,101,72
2,31,127,4
2,34,109,4
2,31,115,4
2,31,127,4
2,31,122,4
2,31,127,4
2,31,127,4
2,38,113,36
2,38,104,4
2,38,108,4
2,38,103,4
2,38,93,4
2,38,105,4
2,38,103,4
2,38,102,4
2,37,94,4
2,37,95,4
2,37,104,4
2,37,100,4
2,37,94,4
2,37,96,4
2,37,113,4
2,37,107,4
2,34,107,4
2,34,104,4
2,34,109,4
2,34,109,4
2,34,103,4
2,34,103,4
2,34,113,4
2,34,107,4
2,31,112,4
2,31,104,4
2,31,115,4
2,31,99,4
2,31,96,4
2,31,94,4
2,31,112,4
2,31,99,4
2,34,81,4
2,34,99,4
2,34,113,4
2,34,107,4
2,34,103,4
2,34,103,4
2,34,109,4
2,34,107,4
2,36,107,4
2,36,99,4
2,36,118,4
2,36,109,4
2,36,104,4
2,36,104,4
2,36,112,4
2,36,115,4
2,34,81,4
2,34,99,4
2,34,113,4
2,34,107,4
2,34,103,4
2,34,103,4
2,34,109,4
2,34,107,4
2,36,107,4
2,36,99,4
2,36,118,4
2,36,109,4
2,36,104,4
2,36,104,4
2,36,112,4
2,36,115,4
2,38,104,4
2,38,86,4
2,38,107,4
2,38,91,4
2,38,101,4
2,38,91,4
2,38,99,4
2,38,107,4
2,37,95,4
2,37,99,4
2,37,107,4
2,37,91,4
2,37,99,4
2,37,91,4
2,37,107,4
2,37,81,4
2,34,103,4
2,34,85,4
2,34,107,4
2,34,95,4
2,34,95,4
2,34,103,4
2,34,103,4
2,34,91,4
2,31,107,4
2,31,107,4
2,31,107,4
2,31,104,4
2,31,101,4
2,31,101,4
2,31,101,4
2,31,101,4
2,36,101,4
2,36,99,4
2,36,91,4
2,36,104,4
2,36,99,4
2,36,104,4
2,36,104,4
2,36,94,4
2,38,101,4
2,38,99,4
2,38,99,4
2,38,86,4
2,38,99,4
2,38,91,4
2,38,94,4
2,38,99,4
2,36,101,4
2,36,89,4
2,36,101,4
2,36,99,4
2,36,104,4
2,36,107,4
2,36,101,4
2,36,86,4
2,38,101,4
2,38,99,4
2,38,104,4
2,38,99,4
2,38,101,4
2,38,107,4
2,38,101,4
2,38,99,4
2,36,104,4
2,36,96,4
2,36,104,4
2,36,104,4
2,36,107,4
2,36,104,4
2,36,101,4
2,36,104,4
2,38,107,4
2,38,101,4
2,38,107,4
2,38,101,4
2,38,104,4
2,38,104,4
2,38,104,4
2,38,104,4
2,36,109,4
2,36,101,4
2,36,115,4
2,36,104,4
2,36,101,4
2,36,109,4
2,36,99,4
2,36,101,4
2,38,112,4
2,38,107,4
2,38,104,4
2,38,96,4
2,38,104,4
2,38,104,4
2,38,104,4
2,38,104,4
2,36,107,4
2,36,99,4
2,36,107,4
2,36,101,4
2,36,101,4
2,36,101,4
2,36,101,4
2,36,99,4
2,41,115,4
2,41,107,4
2,41,115,4
2,41,104,4
2,37,99,4
2,37,109,4
2,37,109,4
2,37,99,4
2,34,109,4
2,34,91,4
2,34,109,4
2,34,95,4
2,34,95,4
2,34,103,4
2,34,107,4
2,34,103,4
2,34,103,4
2,34,91,4
2,34,107,4
2,34,88,4
2,34,103,4
2,34,109,4
2,34,107,4
2,34,103,4
2,31,115,4
2,31,109,4
2,31,109,4
2,31,101,4
2,31,104,4
2,31,107,4
2,31,109,4
2,31,107,4
2,31,104,4
2,31,99,4
2,31,109,4
2,31,104,4
2,31,104,4
2,31,104,4
2,31,107,4
2,31,107,4
2,38,107,4
2,38,86,4
2,38,101,4
2,38,86,4
2,38,101,4
2,38,96,4
2,38,99,4
2,38,91,4
2,37,103,4
2,37,91,4
2,37,107,4
2,37,91,4
2,37,107,4
2,37,99,4
2,37,107,4
2,37,85,4
2,34,107,4
2,34,103,4
2,34,107,4
2,34,107,4
2,34,95,4
2,34,99,4
2,34,103,4
2,34,103,4
2,31,109,4
2,31,107,4
