track,note,velocity,time
1,56,110,6528
1,56,0,94
1,56,110,2
1,56,0,190
1,54,110,2
1,54,0,94
1,49,110,2
1,49,0,94
1,49,110,2
1,49,0,94
1,52,110,2
1,52,0,336
1,49,110,336
1,49,0,94
1,52,110,2
1,52,0,94
1,56,110,2
1,56,0,94
1,55,110,2
1,55,0,94
1,56,110,2
1,56,0,190
1,54,110,2
1,54,0,94
1,49,110,2
1,49,0,94
1,49,110,2
1,49,0,432
1,56,110,528
1,56,0,94
1,55,110,2
1,55,0,94
1,56,110,2
1,56,0,190
1,54,110,2
1,54,0,94
1,49,110,2
1,49,0,94
1,52,110,2
1,52,0,432
1,49,110,432
1,49,0,94
1,56,110,2
1,56,0,94
1,56,110,2
1,56,0,94
1,55,110,2
1,55,0,94
1,56,110,2
1,56,0,94
1,54,110,2
1,54,0,190
1,49,110,2
1,49,0,432
1,56,110,528
1,56,0,94
1,54,110,2
1,54,0,160
1,54,110,32
1,54,0,286
1,52,110,2
1,52,0,94
1,56,110,2
1,56,0,256
1,54,110,32
1,54,0,94
1,54,110,2
1,54,0,286
1,52,110,2
1,52,0,94
1,56,110,2
1,56,0,160
1,54,110,32
1,54,0,160
1,54,110,32
1,54,0,160
1,52,110,32
1,52,0,160
1,56,110,32
1,56,0,256
1,54,110,32
1,54,0,94
1,54,110,2
1,54,0,286
1,52,110,2
1,52,0,94
1,54,110,2
1,54,0,94
1,56,110,2
1,56,0,190
1,54,110,2
1,54,0,94
1,54,110,2
1,54,0,160
1,54,110,32
1,54,0,160
1,52,110,32
1,52,0,256
1,54,110,32
1,54,0,94
1,52,110,2
1,52,0,94
1,54,110,2
1,54,0,94
1,52,110,2
1,52,0,160
1,56,110,32
1,56,0,160
1,52,110,32
1,52,0,160
1,52,110,32
1,52,0,352
1,49,110,2240
1,49,0,94
1,52,110,2
1,52,0,94
1,56,110,2
1,56,0,190
1,56,110,2
1,56,0,190
1,54,110,2
1,54,0,94
1,52,110,2
1,52,0,94
1,56,110,2
1,56,0,432
1,49,110,240
1,49,0,94
1,49,110,2
1,49,0,94
1,52,110,2
1,52,0,94
1,56,110,2
1,56,0,190
1,56,110,2
1,56,0,190
1,54,110,2
1,54,0,94
1,49,110,2
1,49,0,94
1,49,110,2
1,49,0,190
1,49,110,2
1,49,0,256
1,56,110,512
1,56,0,94
1,56,110,2
1,56,0,94
1,55,110,2
1,55,0,94
1,56,110,2
1,56,0,94
1,54,110,2
1,54,0,94
1,49,110,2
1,49,0,94
1,52,110,2
1,52,0,432
1,49,110,240
1,49,0,94
1,49,110,2
1,49,0,94
1,52,110,2
1,52,0,94
1,56,110,2
1,56,0,190
1,55,110,2
1,55,0,94
1,56,110,2
1,56,0,94
1,54,110,2
1,54,0,94
1,49,110,2
1,49,0,94
1,49,110,2
1,49,0,432
1,56,110,528
1,56,0,190
1,54,110,2
1,54,0,94
1,54,110,2
1,54,0,286
1,52,110,2
1,52,0,94
1,56,110,2
1,56,0,256
1,54,110,32
1,54,0,94
1,54,110,2
1,54,0,286
1,52,110,2
1,52,0,94
1,56,110,2
1,56,0,256
1,54,110,32
1,54,0,94
1,54,110,2
1,54,0,286
1,52,110,2
1,52,0,94
1,56,110,2
1,56,0,160
1,54,110,32
1,54,0,160
1,54,110,32
1,54,0,286
1,52,110,2
1,52,0,94
1,52,110,2
1,52,0,94
1,56,110,2
1,56,0,94
1,54,110,2
1,54,0,160
1,54,110,32
1,54,0,160
1,54,110,32
1,54,0,160
1,52,110,32
1,52,0,256
1,54,110,32
1,54,0,94
1,52,110,2
1,52,0,94
1,54,110,2
1,54,0,94
1,52,110,2
1,52,0,160
1,56,110,32
1,56,0,160
1,52,110,32
1,52,0,160
1,52,110,32
1,52,0,352
1,56,110,2432
1,56,0,94
1,54,110,2
1,54,0,94
1,52,110,2
1,52,0,94
1,49,110,2
1,49,0,286
1,56,110,2
1,56,0,94
1,54,110,2
1,54,0,160
1,52,110,32
1,52,0,160
1,49,110,32
1,49,0,286
1,56,110,2
1,56,0,94
1,54,110,2
1,54,0,160
1,52,110,32
1,52,0,94
1,56,110,2
1,56,0,448
1,56,110,896
1,56,0,94
1,54,110,2
1,54,0,94
1,52,110,2
1,52,0,94
1,49,110,2
1,49,0,286
1,56,110,2
1,56,0,94
1,54,110,2
1,54,0,160
1,52,110,32
1,52,0,160
1,49,110,32
1,49,0,286
1,56,110,2
1,56,0,94
1,54,110,2
1,54,0,160
1,52,110,32
1,52,0,94
1,52,110,2
1,52,0,448
1,49,110,3776
1,49,0,94
1,52,110,2
1,52,0,94
1,56,110,2
1,56,0,190
1,55,110,2
1,55,0,94
1,56,110,2
1,56,0,94
1,54,110,2
1,54,0,94
1,49,110,2
1,49,0,94
1,52,110,2
1,52,0,432
1,49,110,240
1,49,0,94
1,49,110,2
1,49,0,94
1,52,110,2
1,52,0,94
1,56,110,2
1,56,0,190
1,56,110,2
1,56,0,190
1,54,110,2
1,54,0,94
1,49,110,2
1,49,0,94
1,49,110,2
1,49,0,432
1,56,110,528
1,56,0,190
1,55,110,2
1,55,0,94
1,56,110,2
1,56,0,94
1,54,110,2
1,54,0,94
1,49,110,2
1,49,0,94
1,52,110,2
1,52,0,432
1,49,110,432
1,49,0,94
1,56,110,2
1,56,0,190
1,55,110,2
1,55,0,94
1,56,110,2
1,56,0,94
1,54,110,2
1,54,0,94
1,49,110,2
1,49,0,94
1,49,110,2
1,49,0,432
1,49,110,336
1,49,0,94
1,54,110,2
1,54,0,256
1,54,110,32
1,54,0,94
1,54,110,2
1,54,0,160
1,52,110,32
1,52,0,160
1,56,110,32
1,56,0,256
1,54,110,32
1,54,0,94
1,54,110,2
1,54,0,286
1,52,110,2
1,52,0,94
1,56,110,2
1,56,0,160
1,54,110,32
1,54,0,160
1,54,110,32
1,54,0,160
1,52,110,32
1,52,0,160
1,56,110,32
1,56,0,256
1,54,110,32
1,54,0,94
1,54,110,2
1,54,0,352
1,52,110,32
1,52,0,94
1,56,110,2
1,56,0,190
1,54,110,2
1,54,0,94
1,54,110,2
1,54,0,160
1,54,110,32
1,54,0,160
1,52,110,32
1,52,0,336
1,52,110,48
1,52,0,94
1,54,110,2
1,54,0,94
1,52,110,2
1,52,0,160
1,56,110,32
1,56,0,160
1,52,110,32
1,52,0,160
1,52,110,32
1,52,0,352
1,56,110,896
1,56,0,94
1,54,110,2
1,54,0,94
1,52,110,2
1,52,0,94
1,49,110,2
1,49,0,286
1,56,110,2
1,56,0,94
1,54,110,2
1,54,0,160
1,52,110,32
1,52,0,160
1,49,110,32
1,49,0,286
1,56,110,2
1,56,0,94
1,54,110,2
1,54,0,160
1,52,110,32
1,52,0,94
1,52,110,2
1,52,0,448
1,56,110,896
1,56,0,94
1,54,110,2
1,54,0,94
1,52,110,2
1,52,0,94
1,49,110,2
1,49,0,286
1,56,110,2
1,56,0,94
1,54,110,2
1,54,0,160
1,52,110,32
1,52,0,160
1,49,110,32
1,49,0,286
1,56,110,2
1,56,0,94
1,54,110,2
1,54,0,160
1,52,110,32
1,52,0,94
1,56,110,2
1,56,0,448
1,56,110,896
1,56,0,94
1,54,110,2
1,54,0,94
1,52,110,2
1,52,0,94
1,49,110,2
1,49,0,286
1,56,110,2
1,56,0,94
1,54,110,2
1,54,0,160
1,52,110,32
1,52,0,160
1,49,110,32
1,49,0,286
1,56,110,2
1,56,0,94
1,54,110,2
1,54,0,160
1,52,110,32
1,52,0,94
1,52,110,2
1,52,0,448
1,56,110,896
1,56,0,94
1,54,110,2
1,54,0,94
1,52,110,2
1,52,0,94
1,49,110,2
1,49,0,286
1,56,110,2
1,56,0,94
1,54,110,2
1,54,0,160
1,52,110,32
1,52,0,160
1,49,110,32
1,49,0,286
1,56,110,2
1,56,0,94
1,54,110,2
1,54,0,160
1,52,110,32
1,52,0,94
1,56,110,2
1,56,0,448
2,61,110,3840
2,61,0,94
2,64,110,2
2,64,0,94
2,61,110,2
2,69,110,0
2,61,0,160
2,69,0,0
2,61,110,32
2,69,110,0
2,61,0,94
2,69,0,0
2,61,110,2
2,68,110,0
2,61,0,94
2,68,0,0
2,64,110,2
2,64,0,94
2,61,110,2
2,64,110,0
2,68,110,0
2,61,0,256
2,64,0,0
2,68,0,0
2,61,110,608
2,61,0,94
2,64,110,2
2,64,0,94
2,61,110,2
2,69,110,0
2,61,0,160
2,69,0,0
2,61,110,32
2,69,110,0
2,61,0,94
2,69,0,0
2,61,110,2
2,68,110,0
2,61,0,94
2,68,0,0
2,64,110,2
2,64,0,94
2,61,110,2
2,64,110,0
2,68,110,0
2,61,0,256
2,64,0,0
2,68,0,0
2,64,110,224
2,68,110,0
2,64,0,94
2,68,0,0
2,64,110,2
2,68,110,0
2,64,0,190
2,68,0,0
2,61,110,2
2,66,110,0
2,61,0,94
2,66,0,0
2,61,110,2
2,61,0,94
2,61,110,2
2,61,0,94
2,61,110,2
2,64,110,0
2,61,0,336
2,64,0,0
2,61,110,336
2,61,0,94
2,64,110,2
2,64,0,94
2,64,110,2
2,68,110,0
2,64,0,94
2,68,0,0
2,67,110,2
2,67,0,94
2,64,110,2
2,68,110,0
2,64,0,190
2,68,0,0
2,61,110,2
2,66,110,0
2,61,0,94
2,66,0,0
2,61,110,2
2,61,0,94
2,61,110,2
2,61,0,432
2,64,110,528
2,68,110,0
2,64,0,94
2,68,0,0
2,67,110,2
2,67,0,94
2,64,110,2
2,68,110,0
2,64,0,190
2,68,0,0
2,61,110,2
2,66,110,0
2,61,0,94
2,66,0,0
2,61,110,2
2,61,0,94
2,61,110,2
2,64,110,0
2,61,0,432
2,64,0,0
2,61,110,432
2,61,0,94
2,68,110,2
2,68,0,94
2,68,110,2
2,68,0,94
2,67,110,2
2,67,0,94
2,68,110,2
2,68,0,94
2,66,110,2
2,66,0,190
2,61,110,2
2,61,0,432
2,59,110,528
2,61,110,0
2,68,110,0
2,59,0,94
2,61,0,0
2,68,0,0
2,57,110,2
2,61,110,0
2,66,110,0
2,57,0,160
2,61,0,0
2,66,0,0
2,57,110,32
2,61,110,0
2,66,110,0
2,57,0,94
2,61,0,0
2,66,0,0
2,57,110,2
2,61,110,0
2,66,110,0
2,57,0,190
2,61,0,0
2,66,0,0
2,56,110,2
2,61,110,0
2,64,110,0
2,56,0,94
2,61,0,0
2,64,0,0
2,59,110,2
2,61,110,0
2,68,110,0
2,59,0,256
2,61,0,0
2,68,0,0
2,57,110,32
2,61,110,0
2,66,110,0
2,57,0,94
2,61,0,0
2,66,0,0
2,57,110,2
2,61,110,0
2,66,110,0
2,57,0,286
2,61,0,0
2,66,0,0
2,56,110,2
2,61,110,0
2,64,110,0
2,56,0,94
2,61,0,0
2,64,0,0
2,59,110,2
2,61,110,0
2,68,110,0
2,59,0,160
2,61,0,0
2,68,0,0
2,57,110,32
2,61,110,0
2,66,110,0
2,57,0,160
2,61,0,0
2,66,0,0
2,57,110,32
2,61,110,0
2,66,110,0
2,57,0,160
2,61,0,0
2,66,0,0
2,56,110,32
2,61,110,0
2,64,110,0
2,56,0,160
2,61,0,0
2,64,0,0
2,59,110,32
2,61,110,0
2,68,110,0
2,59,0,256
2,61,0,0
2,68,0,0
2,57,110,32
2,61,110,0
2,66,110,0
2,57,0,94
2,61,0,0
2,66,0,0
2,57,110,2
2,61,110,0
2,66,110,0
2,57,0,286
2,61,0,0
2,66,0,0
2,57,110,2
2,61,110,0
2,64,110,0
2,57,0,94
2,61,0,0
2,64,0,0
2,66,110,2
2,66,0,94
2,59,110,2
2,63,110,0
2,68,110,0
2,59,0,190
2,63,0,0
2,68,0,0
2,57,110,2
2,63,110,0
2,66,110,0
2,57,0,94
2,63,0,0
2,66,0,0
2,57,110,2
2,63,110,0
2,66,110,0
2,57,0,160
2,63,0,0
2,66,0,0
2,57,110,32
2,63,110,0
2,66,110,0
2,57,0,160
2,63,0,0
2,66,0,0
2,56,110,32
2,60,110,0
2,64,110,0
2,56,0,256
2,60,0,0
2,64,0,0
2,56,110,32
2,60,110,0
2,66,110,0
2,56,0,94
2,60,0,0
2,66,0,0
2,56,110,2
2,60,110,0
2,64,110,0
2,56,0,94
2,60,0,0
2,64,0,0
2,56,110,2
2,60,110,0
2,66,110,0
2,56,0,94
2,60,0,0
2,66,0,0
2,56,110,2
2,60,110,0
2,64,110,0
2,56,0,160
2,60,0,0
2,64,0,0
2,61,110,32
2,64,110,0
2,68,110,0
2,61,0,160
2,64,0,0
2,68,0,0
2,61,110,32
2,64,110,0
2,61,0,160
2,64,0,0
2,61,110,32
2,64,110,0
2,61,0,160
2,64,0,0
2,61,110,32
2,61,0,94
2,64,110,2
2,64,0,94
2,61,110,2
2,66,110,0
2,69,110,0
2,61,0,94
2,66,0,0
2,69,0,0
2,61,110,2
2,66,110,0
2,69,110,0
2,61,0,94
2,66,0,0
2,69,0,0
2,61,110,2
2,66,110,0
2,69,110,0
2,61,0,94
2,66,0,0
2,69,0,0
2,61,110,2
2,68,110,0
2,61,0,94
2,68,0,0
2,64,110,2
2,64,0,94
2,61,110,2
2,64,110,0
2,68,110,0
2,61,0,256
2,64,0,0
2,68,0,0
2,61,110,608
2,61,0,94
2,64,110,2
2,64,0,94
2,61,110,2
2,66,110,0
2,69,110,0
2,61,0,160
2,66,0,0
2,69,0,0
2,61,110,32
2,66,110,0
2,69,110,0
2,61,0,94
2,66,0,0
2,69,0,0
2,61,110,2
2,68,110,0
2,61,0,94
2,68,0,0
2,64,110,2
2,64,0,94
2,61,110,2
2,64,110,0
2,68,110,0
2,61,0,190
2,64,0,0
2,68,0,0
2,61,110,2
2,61,0,94
2,64,110,2
2,64,0,94
2,64,110,2
2,68,110,0
2,64,0,190
2,68,0,0
2,64,110,2
2,68,110,0
2,64,0,190
2,68,0,0
2,61,110,2
2,66,110,0
2,61,0,94
2,66,0,0
2,61,110,2
2,61,0,94
2,61,110,2
2,64,110,0
2,61,0,432
2,64,0,0
2,61,110,240
2,61,0,94
2,61,110,2
2,61,0,94
2,64,110,2
2,64,0,94
2,64,110,2
2,68,110,0
2,64,0,190
2,68,0,0
2,64,110,2
2,68,110,0
2,64,0,190
2,68,0,0
2,61,110,2
2,66,110,0
2,61,0,94
2,66,0,0
2,61,110,2
2,61,0,94
2,61,110,2
2,61,0,190
2,61,110,2
2,61,0,256
2,64,110,512
2,68,110,0
2,64,0,94
2,68,0,0
2,64,110,2
2,68,110,0
2,64,0,94
2,68,0,0
2,67,110,2
2,67,0,94
2,64,110,2
2,68,110,0
2,64,0,94
2,68,0,0
2,61,110,2
2,66,110,0
2,61,0,94
2,66,0,0
2,61,110,2
2,61,0,94
2,61,110,2
2,64,110,0
2,61,0,432
2,64,0,0
2,61,110,240
2,61,0,94
2,61,110,2
2,61,0,94
2,64,110,2
2,64,0,94
2,64,110,2
2,68,110,0
2,64,0,190
2,68,0,0
2,67,110,2
2,67,0,94
2,64,110,2
2,68,110,0
2,64,0,94
2,68,0,0
2,61,110,2
2,66,110,0
2,61,0,94
2,66,0,0
2,61,110,2
2,61,0,94
2,61,110,2
2,61,0,432
2,59,110,528
2,61,110,0
2,68,110,0
2,59,0,190
2,61,0,0
2,68,0,0
2,57,110,2
2,61,110,0
2,66,110,0
2,57,0,94
2,61,0,0
2,66,0,0
2,57,110,2
2,61,110,0
2,66,110,0
2,57,0,286
2,61,0,0
2,66,0,0
2,56,110,2
2,61,110,0
2,64,110,0
2,56,0,94
2,61,0,0
2,64,0,0
2,59,110,2
2,61,110,0
2,68,110,0
2,59,0,256
2,61,0,0
2,68,0,0
2,57,110,32
2,61,110,0
2,66,110,0
2,57,0,94
2,61,0,0
2,66,0,0
2,57,110,2
2,61,110,0
2,66,110,0
2,57,0,286
2,61,0,0
2,66,0,0
2,56,110,2
2,61,110,0
2,64,110,0
2,56,0,94
2,61,0,0
2,64,0,0
2,59,110,2
2,61,110,0
2,68,110,0
2,59,0,256
2,61,0,0
2,68,0,0
2,57,110,32
2,61,110,0
