track,note,velocity,time
1,52,70,0
1,40,70,0
1,38,70,0
1,50,70,0
1,52,70,0
1,40,70,0
1,38,70,0
1,50,70,0
1,52,70,0
1,40,70,0
1,38,70,0
1,50,70,0
1,52,70,0
1,40,70,0
1,38,70,0
1,50,70,0
1,52,70,0
1,40,70,0
1,38,70,0
1,50,70,0
1,52,70,0
1,40,70,0
1,38,70,0
1,50,70,0
1,52,70,0
1,40,70,0
1,38,70,0
1,50,70,0
1,52,70,0
1,40,70,0
1,38,70,0
1,50,70,0
1,52,70,0
1,40,70,0
1,38,70,0
1,50,70,0
1,52,70,0
1,40,70,0
1,38,70,0
1,50,70,0
1,52,70,0
1,40,70,0
1,38,70,0
1,50,70,0
1,52,70,0
1,40,70,0
1,38,70,0
1,50,70,0
1,52,70,0
1,40,70,0
1,38,70,0
1,50,70,0
1,52,70,0
1,40,70,0
1,38,70,0
1,50,70,0
1,52,70,0
1,40,70,0
1,38,70,0
1,50,70,0
1,52,70,0
1,40,70,0
1,38,70,0
1,50,70,0
1,52,70,0
1,40,70,0
1,38,70,0
1,50,70,0
1,52,70,0
1,40,70,0
1,38,70,0
1,50,70,0
1,52,70,0
1,40,70,0
1,38,70,0
1,50,70,0
1,52,70,0
1,40,70,0
1,38,70,0
1,50,70,0
1,52,70,0
1,40,70,0
1,38,70,0
1,50,70,0
1,52,70,0
1,40,70,0
1,38,70,0
1,50,70,0
1,52,70,0
1,40,70,0
1,38,70,0
1,50,70,0
1,52,70,0
1,40,70,0
1,38,70,0
1,50,70,0
1,52,70,0
1,40,70,0
1,38,70,0
1,50,70,0
1,52,70,0
1,40,70,0
1,38,70,0
1,50,70,0
1,52,70,0
1,40,70,0
1,38,70,0
1,50,70,0
1,52,70,0
1,40,70,0
1,38,70,0
1,50,70,0
1,52,70,0
1,40,70,0
1,38,70,0
1,50,70,0
1,52,70,0
1,40,70,0
1,38,70,0
1,50,70,0
1,52,70,0
1,40,70,0
1,38,70,0
1,50,70,0
1,52,70,0
1,40,70,0
1,38,70,0
1,50,70,0
1,52,70,0
1,40,70,0
1,38,70,0
1,50,70,0
1,52,70,0
1,40,70,0
1,38,70,0
1,50,70,0
1,52,70,0
1,40,70,0
1,38,70,0
1,50,70,0
1,52,70,0
1,40,70,0
1,38,70,0
1,50,70,0
1,52,70,0
1,40,70,0
1,38,70,0
1,50,70,0
1,52,70,0
1,40,70,0
1,38,70,0
1,50,70,0
1,52,70,0
1,40,70,0
1,38,70,0
1,50,70,0
1,52,70,0
1,40,70,0
1,38,70,0
1,50,70,0
1,52,70,0
1,40,70,0
1,38,70,0
1,50,70,0
1,52,70,0
1,40,70,0
1,38,70,0
1,50,70,0
1,52,70,0
1,40,70,0
1,38,70,0
1,50,70,0
1,52,70,0
1,40,70,0
1,38,70,0
1,50,70,0
1,52,70,0
1,40,70,0
1,38,70,0
1,50,70,0
1,52,70,0
1,40,70,0
1,38,70,0
1,50,70,0
1,52,70,0
1,40,70,0
1,38,70,0
1,50,70,0
1,52,70,0
1,40,70,0
1,38,70,0
1,50,70,0
1,52,70,0
1,40,70,0
1,38,70,0
1,50,70,0
1,52,70,0
1,40,70,0
1,38,70,0
1,50,70,0
1,52,70,0
1,40,70,0
1,38,70,0
1,50,70,0
1,52,70,0
1,40,70,0
1,38,70,0
1,50,70,0
1,52,70,0
1,40,70,0
1,38,70,0
1,50,70,0
1,52,70,0
1,40,70,0
1,38,70,0
1,50,70,0
1,52,70,0
1,40,70,0
1,38,70,0
1,50,70,0
1,52,70,0
1,40,70,0
1,38,70,0
1,50,70,0
1,52,70,0
1,40,70,0
1,38,70,0
1,50,70,0
1,52,70,0
1,40,70,0
1,38,70,0
1,50,70,0
1,52,70,0
1,40,70,0
1,38,70,0
1,50,70,0
1,52,70,0
1,40,70,0
1,38,70,0
1,50,70,0
1,52,70,0
1,40,70,0
1,38,70,0
1,50,70,0
1,52,70,0
1,40,70,0
1,38,70,0
1,50,70,0
1,52,70,0
1,40,70,0
1,38,70,0
1,50,70,0
1,52,70,0
1,40,70,0
1,38,70,0
1,50,70,0
2,86,70,288
2,84,70,0
2,83,70,0
2,83,70,48
2,84,70,0
2,79,70,0
2,83,70,48
2,81,70,432
2,81,70,48
2,79,70,48
2,76,70,48
2,86,70,336
2,84,70,0
2,83,70,0
2,83,70,48
2,84,70,0
2,79,70,0
2,83,70,48
2,81,70,432
2,81,70,48
2,79,70,48
2,76,70,48
2,86,70,336
2,84,70,0
2,83,70,0
2,83,70,48
2,84,70,0
2,79,70,0
2,83,70,48
2,81,70,432
2,81,70,48
2,79,70,48
2,76,70,48
2,86,70,336
2,84,70,0
2,83,70,0
2,83,70,48
2,84,70,0
2,79,70,0
2,83,70,48
2,81,70,432
2,81,70,48
2,79,70,48
2,76,70,48
2,86,70,11088
2,84,70,0
2,83,70,0
2,83,70,48
2,84,70,0
2,79,70,0
2,83,70,48
2,81,70,432
2,81,70,48
2,79,70,48
2,76,70,48
2,86,70,336
2,84,70,0
2,83,70,0
2,83,70,48
2,84,70,0
2,79,70,0
2,83,70,48
2,81,70,432
2,81,70,48
2,79,70,48
2,76,70,48
2,86,70,336
2,84,70,0
2,83,70,0
2,83,70,48
2,84,70,0
2,79,70,0
2,83,70,48
2,81,70,432
2,81,70,48
2,79,70,48
2,76,70,48
2,86,70,336
2,84,70,0
2,83,70,0
2,83,70,48
2,84,70,0
2,79,70,0
2,83,70,48
2,81,70,432
2,81,70,48
2,79,70,48
2,76,70,48
2,86,70,336
2,84,70,0
2,83,70,0
2,83,70,48
2,84,70,0
2,79,70,0
2,83,70,48
2,81,70,432
2,81,70,48
2,79,70,48
2,76,70,48
2,86,70,11088
2,84,70,0
2,83,70,0
2,83,70,48
2,84,70,0
2,79,70,0
2,83,70,48
2,81,70,432
2,81,70,48
2,79,70,48
2,76,70,48
2,86,70,336
2,84,70,0
2,83,70,0
2,83,70,48
2,84,70,0
2,79,70,0
2,83,70,48
2,81,70,432
2,81,70,48
2,79,70,48
2,76,70,48
2,86,70,336
2,84,70,0
2,83,70,0
2,83,70,48
2,84,70,0
2,79,70,0
2,83,70,48
2,81,70,432
2,81,70,48
2,79,70,48
2,76,70,48
2,86,70,336
2,84,70,0
2,83,70,0
2,83,70,48
2,84,70,0
2,79,70,0
2,83,70,48
2,81,70,432
2,81,70,48
2,79,70,48
2,76,70,48
2,86,70,336
2,84,70,0
2,83,70,0
2,83,70,48
2,84,70,0
2,79,70,0
2,83,70,48
2,81,70,432
2,81,70,48
2,79,70,48
2,76,70,48
2,86,70,336
2,84,70,0
2,83,70,0
2,83,70,48
2,84,70,0
2,79,70,0
2,83,70,48
2,81,70,432
2,81,70,48
2,79,70,48
2,76,70,48
2,86,70,336
2,84,70,0
2,83,70,0
2,83,70,48
2,84,70,0
2,79,70,0
2,83,70,48
2,81,70,432
2,81,70,48
2,79,70,48
2,76,70,48
2,86,70,336
2,84,70,0
2,83,70,0
2,83,70,48
2,84,70,0
2,79,70,0
2,83,70,48
2,81,70,432
2,81,70,48
2,79,70,48
2,76,70,48
2,86,70,336
2,84,70,0
2,83,70,0
2,83,70,48
2,84,70,0
2,79,70,0
2,83,70,48
2,81,70,432
2,81,70,48
2,79,70,48
2,76,70,48
2,86,70,336
2,84,70,0
2,83,70,0
2,83,70,48
2,84,70,0
2,79,70,0
2,83,70,48
2,81,70,432
2,81,70,48
2,79,70,48
2,76,70,48
2,86,70,336
2,84,70,0
2,83,70,0
2,83,70,48
2,84,70,0
2,79,70,0
2,83,70,48
2,81,70,432
2,81,70,48
2,79,70,48
2,76,70,48
2,86,70,336
2,84,70,0
2,83,70,0
2,83,70,48
2,84,70,0
2,79,70,0
2,83,70,48
3,35,70,0
3,35,70,0
3,46,70,192
3,35,70,0
3,35,70,0
3,46,70,192
3,35,70,0
3,35,70,0
3,46,70,192
3,35,70,0
3,35,70,0
3,46,70,192
3,35,70,0
3,35,70,0
3,46,70,192
3,35,70,0
3,35,70,0
3,46,70,192
3,35,70,0
3,35,70,0
3,46,70,192
3,35,70,0
3,35,70,0
3,46,70,192
3,35,70,0
3,35,70,0
3,46,70,192
3,35,70,0
3,35,70,0
3,46,70,192
3,35,70,0
3,35,70,0
3,46,70,192
3,35,70,0
3,35,70,0
3,46,70,192
3,35,70,0
3,35,70,0
3,46,70,192
3,35,70,0
3,35,70,0
3,46,70,192
3,35,70,0
3,35,70,0
3,46,70,192
3,35,70,0
3,35,70,0
3,46,70,192
3,35,70,0
3,35,70,0
3,46,70,192
3,35,70,0
3,35,70,0
3,46,70,192
3,35,70,0
3,35,70,0
3,46,70,192
3,35,70,0
3,35,70,0
3,46,70,192
3,35,70,0
3,35,70,0
3,46,70,192
3,35,70,0
3,35,70,0
3,46,70,192
3,35,70,0
3,35,70,0
3,46,70,192
3,35,70,0
3,35,70,0
3,46,70,192
3,35,70,0
3,35,70,0
3,46,70,192
3,35,70,0
3,35,70,0
3,46,70,192
3,35,70,0
3,35,70,0
3,46,70,192
3,35,70,0
3,35,70,0
3,46,70,192
3,35,70,0
3,35,70,0
3,46,70,192
3,35,70,0
3,35,70,0
3,46,70,192
3,35,70,0
3,35,70,0
3,46,70,192
3,35,70,0
3,35,70,0
3,46,70,192
3,35,70,0
3,35,70,0
3,46,70,192
3,35,70,0
3,35,70,0
3,46,70,192
3,35,70,0
3,35,70,0
3,46,70,192
3,35,70,0
3,35,70,0
3,46,70,192
3,35,70,0
3,35,70,0
3,46,70,192
3,35,70,0
3,35,70,0
3,46,70,192
3,35,70,0
3,35,70,0
3,46,70,192
3,35,70,0
3,35,70,0
3,46,70,192
3,35,70,0
3,35,70,0
3,46,70,192
3,35,70,0
3,35,70,0
3,46,70,192
3,35,70,0
3,35,70,0
3,46,70,192
3,35,70,0
3,35,70,0
3,46,70,192
3,35,70,0
3,35,70,0
3,46,70,192
3,35,70,0
3,35,70,0
3,46,70,192
3,35,70,0
3,35,70,0
3,46,70,192
3,35,70,0
3,35,70,0
3,46,70,192
3,35,70,0
3,35,70,0
3,46,70,192
3,35,70,0
3,35,70,0
3,46,70,192
3,35,70,0
3,35,70,0
3,46,70,192
3,35,70,0
3,35,70,0
3,46,70,192
3,35,70,0
3,35,70,0
3,46,70,192
3,35,70,0
3,35,70,0
3,46,70,192
3,35,70,0
3,35,70,0
3,46,70,192
3,35,70,0
3,35,70,0
3,46,70,192
3,35,70,0
3,35,70,0
3,46,70,192
3,35,70,0
3,35,70,0
3,46,70,192
3,35,70,0
3,35,70,0
3,46,70,192
3,35,70,0
3,35,70,0
3,46,70,192
3,35,70,0
3,35,70,0
3,46,70,192
3,35,70,0
3,35,70,0
3,46,70,192
3,35,70,0
3,35,70,0
3,46,70,192
3,35,70,0
3,35,70,0
3,46,70,192
4,73,70,192
4,73,70,47
4,73,70,47
4,73,70,47
4,73,70,623
4,73,70,47
4,73,70,47
4,73,70,47
4,73,70,623
4,73,70,47
4,73,70,47
4,73,70,47
4,73,70,623
4,73,70,47
4,73,70,47
4,73,70,47
4,73,70,623
4,73,70,47
4,73,70,47
4,73,70,47
4,73,70,623
4,73,70,47
4,73,70,47
4,73,70,47
4,73,70,623
4,73,70,47
4,73,70,47
4,73,70,47
4,73,70,623
4,73,70,47
4,73,70,47
4,73,70,47
4,73,70,623
4,73,70,47
4,73,70,47
4,73,70,47
4,73,70,623
4,73,70,47
4,73,70,47
4,73,70,47
4,73,70,623
4,73,70,47
4,73,70,47
4,73,70,47
4,73,70,623
4,73,70,47
4,73,70,47
4,73,70,47
4,73,70,623
4,73,70,47
4,73,70,47
4,73,70,47
4,73,70,623
4,73,70,47
4,73,70,47
4,73,70,47
4,73,70,623
4,73,70,47
4,73,70,47
4,73,70,47
4,73,70,623
4,73,70,47
4,73,70,47
4,73,70,47
4,73,70,623
4,73,70,47
4,73,70,47
4,73,70,47
4,73,70,623
4,73,70,47
4,73,70,47
4,73,70,47
4,73,70,623
4,73,70,47
4,73,70,47
4,73,70,47
4,73,70,623
4,73,70,47
4,73,70,47
4,73,70,47
4,73,70,623
4,73,70,47
4,73,70,47
4,73,70,47
4,73,70,623
4,73,70,47
4,73,70,47
4,73,70,47
4,73,70,623
4,73,70,47
4,73,70,47
4,73,70,47
4,73,70,623
4,73,70,47
4,73,70,47
4,73,70,47
4,73,70,623
4,73,70,47
4,73,70,47
4,73,70,47
4,73,70,623
4,73,70,47
4,73,70,47
4,73,70,47
4,73,70,623
4,73,70,47
4,73,70,47
4,73,70,47
4,73,70,623
4,73,70,47
4,73,70,47
4,73,70,47
4,73,70,623
4,73,70,47
4,73,70,47
4,73,70,47
4,73,70,623
4,73,70,47
4,73,70,47
4,73,70,47
4,73,70,623
4,73,70,47
4,73,70,47
4,73,70,47
4,73,70,623
4,73,70,47
4,73,70,47
4,73,70,47
4,73,70,623
4,73,70,47
4,73,70,47
4,73,70,47
4,73,70,623
4,73,70,47
4,73,70,47
4,73,70,47
4,73,70,623
4,73,70,47
4,73,70,47
4,73,70,47
4,73,70,623
4,73,70,47
4,73,70,47
4,73,70,47
4,73,70,623
4,73,70,47
4,73,70,47
4,73,70,47
4,73,70,623
4,73,70,47
4,73,70,47
4,73,70,47
4,73,70,623
4,73,70,47
4,73,70,47
4,73,70,47
4,73,70,623
4,73,70,47
4,73,70,47
4,73,70,47
4,73,70,623
4,73,70,47
4,73,70,47
4,73,70,47
4,73,70,623
4,73,70,47
4,73,70,47
4,73,70,47
4,73,70,623
4,73,70,47
4,73,70,47
4,73,70,47
4,73,70,623
4,73,70,47
4,73,70,47
4,73,70,47
4,73,70,623
4,73,70,47
4,73,70,47
4,73,70,47
4,73,70,623
4,73,70,47
4,73,70,47
4,73,70,47
4,73,70,623
4,73,70,47
4,73,70,47
4,73,70,47
4,73,70,623
4,73,70,47
4,73,70,47
4,73,70,47
4,73,70,623
4,73,70,47
4,73,70,47
4,73,70,47
4,73,70,623
4,73,70,47
4,73,70,47
4,73,70,47
4,73,70,623
4,73,70,47
4,73,70,47
4,73,70,47
4,73,70,623
4,73,70,47
4,73,70,47
4,73,70,47
4,73,70,623
4,73,70,47
4,73,70,47
4,73,70,47
4,73,70,623
4,73,70,47
4,73,70,47
4,73,70,47
4,73,70,623
4,73,70,47
4,73,70,47
4,73,70,47
4,73,70,623
4,73,70,47
4,73,70,47
4,73,70,47
4,73,70,623
4,73,70,47
4,73,70,47
4,73,70,47
4,73,70,623
4,73,70,47
4,73,70,47
4,73,70,47
4,73,70,623
4,73,70,47
4,73,70,47
4,73,70,47
4,73,70,623
4,73,70,47
4,73,70,47
4,73,70,47
4,73,70,623
4,73,70,47
4,73,70,47
4,73,70,47
4,73,70,623
4,73,70,47
4,73,70,47
4,73,70,47
4,73,70,623
4,73,70,47
4,73,70,47
4,73,70,47
4,73,70,623
4,73,70,47
4,73,70,47
4,73,70,47
5,76,10,0
5,76,20,48
5,76,30,48
5,76,40,48
5,76,40,48
5,76,40,48
5,76,50,48
5,76,50,48
5,76,40,48
5,76,50,48
5,76,50,48
5,76,10,1536
5,76,20,48
5,76,30,48
5,76,40,48
5,76,40,48
5,76,40,48
5,76,50,48
5,76,50,48
5,76,40,48
5,76,50,48
5,76,50,48
5,76,10,32256
5,76,20,48
5,76,30,48
5,76,40,48
5,76,40,48
5,76,40,48
5,76,50,48
5,76,50,48
5,76,40,48
5,76,50,48
5,76,50,48
5,76,10,1536
5,76,20,48
5,76,30,48
5,76,40,48
5,76,40,48
5,76,40,48
5,76,50,48
5,76,50,48
5,76,40,48
5,76,50,48
5,76,50,48
5,76,10,1536
5,76,20,48
5,76,30,48
5,76,40,48
5,76,40,48
5,76,40,48
5,76,50,48
5,76,50,48
5,76,40,48
5,76,50,48
5,76,50,48
5,76,10,1536
5,76,20,48
5,76,30,48
5,76,40,48
5,76,40,48
5,76,40,48
5,76,50,48
5,76,50,48
5,76,40,48
5,76,50,48
5,76,50,48
5,76,10,0
5,76,20,48
5,76,30,48
