track,note,velocity,time
1,67,126,65
1,62,126,0
1,62,0,95
1,67,0,0
2,67,127,238
2,67,0,30
2,67,127,90
2,67,0,30
2,67,127,30
2,67,0,30
2,67,127,0
2,67,0,30
2,67,127,30
2,67,0,30
2,67,127,0
2,67,0,30
2,69,127,30
2,69,0,30
2,71,127,30
2,71,0,30
2,67,127,30
2,67,0,30
2,67,127,90
2,67,0,30
2,67,127,30
2,67,0,30
2,67,127,0
2,67,0,30
2,67,127,30
2,67,0,30
2,67,127,0
2,67,0,30
2,69,127,30
2,69,0,30
2,71,127,30
2,71,0,30
2,67,127,30
2,67,0,30
2,67,127,90
2,67,0,30
2,67,127,30
2,67,0,30
2,67,127,0
2,67,0,30
2,67,127,30
2,67,0,30
2,67,127,0
2,67,0,30
2,69,127,30
2,69,0,30
2,71,127,30
2,71,0,30
2,72,127,30
2,84,127,0
2,72,0,30
2,84,0,90
2,71,127,0
2,83,127,0
2,71,0,30
2,83,0,90
2,69,127,0
2,81,127,0
2,69,0,90
2,81,0,30
2,71,127,0
2,83,127,0
2,71,0,30
2,83,0,90
2,67,127,0
2,67,0,30
2,67,127,90
2,67,0,30
2,67,127,30
2,67,0,30
2,67,127,0
2,67,0,30
2,67,127,30
2,67,0,30
2,67,127,0
2,67,0,30
2,69,127,30
2,69,0,30
2,71,127,30
2,71,0,30
2,67,127,30
2,67,0,30
2,67,127,90
2,67,0,30
2,67,127,30
2,67,0,30
2,67,127,0
2,67,0,30
2,67,127,30
2,67,0,30
2,67,127,0
2,67,0,30
2,69,127,30
2,69,0,30
2,71,127,30
2,71,0,30
2,67,127,30
2,67,0,30
2,67,127,90
2,67,0,30
2,67,127,30
2,67,0,30
2,67,127,0
2,67,0,30
2,67,127,30
2,67,0,30
2,67,127,0
2,67,0,30
2,69,127,30
2,69,0,30
2,71,127,30
2,71,0,30
2,67,127,30
2,67,0,30
2,67,127,90
2,67,0,30
2,67,127,30
2,67,0,30
2,72,127,0
2,72,0,30
2,72,127,30
2,72,0,30
2,71,127,0
2,71,0,30
2,69,127,30
2,69,0,30
2,71,127,30
2,71,0,30
2,67,127,30
2,67,0,30
2,67,127,90
2,67,0,30
2,67,127,30
2,67,0,30
2,67,127,0
2,67,0,30
2,67,127,30
2,67,0,30
2,67,127,0
2,67,0,30
2,69,127,30
2,69,0,30
2,71,127,30
2,71,0,30
2,67,127,30
2,67,0,30
2,67,127,90
2,67,0,30
2,67,127,30
2,67,0,30
2,67,127,0
2,67,0,30
2,67,127,30
2,67,0,30
2,67,127,0
2,67,0,30
2,69,127,30
2,69,0,30
2,71,127,30
2,71,0,30
2,67,127,30
2,67,0,30
2,67,127,90
2,67,0,30
2,67,127,30
2,67,0,30
2,67,127,0
2,67,0,30
2,67,127,30
2,67,0,30
2,67,127,0
2,67,0,30
2,69,127,30
2,69,0,30
2,71,127,30
2,71,0,30
2,67,127,30
2,67,0,30
2,67,127,90
2,67,0,30
2,67,127,30
2,67,0,30
2,72,127,0
2,72,0,30
2,72,127,30
2,72,0,30
2,71,127,0
2,71,0,30
2,69,127,30
2,69,0,30
2,71,127,30
2,71,0,30
2,67,127,5790
2,67,0,30
2,67,127,90
2,67,0,30
2,67,127,30
2,67,0,30
2,67,127,0
2,67,0,30
2,67,127,30
2,67,0,30
2,67,127,0
2,67,0,30
2,69,127,30
2,69,0,30
2,71,127,30
2,71,0,30
2,67,127,30
2,67,0,30
2,67,127,90
2,67,0,30
2,67,127,30
2,67,0,30
2,67,127,0
2,67,0,30
2,67,127,30
2,67,0,30
2,67,127,0
2,67,0,30
2,69,127,30
2,69,0,30
2,71,127,30
2,71,0,30
2,67,127,30
2,67,0,30
2,67,127,90
2,67,0,30
2,67,127,30
2,67,0,30
2,67,127,0
2,67,0,30
2,67,127,30
2,67,0,30
2,67,127,0
2,67,0,30
2,69,127,30
2,69,0,30
2,71,127,30
2,71,0,30
2,67,127,30
2,67,0,30
2,67,127,90
2,67,0,30
2,67,127,30
2,67,0,30
2,72,127,0
2,72,0,30
2,72,127,30
2,72,0,30
2,71,127,0
2,71,0,30
2,69,127,30
2,69,0,30
2,71,127,30
2,71,0,30
2,67,127,30
2,67,0,30
2,67,127,90
2,67,0,30
2,67,127,30
2,67,0,30
2,67,127,0
2,67,0,30
2,67,127,30
2,67,0,30
2,67,127,0
2,67,0,30
2,69,127,30
2,69,0,30
2,71,127,30
2,71,0,30
2,67,127,30
2,67,0,30
2,67,127,90
2,67,0,30
2,67,127,30
2,67,0,30
2,67,127,0
2,67,0,30
2,67,127,30
2,67,0,30
2,67,127,0
2,67,0,30
2,69,127,30
2,69,0,30
2,71,127,30
2,71,0,30
2,67,127,30
2,67,0,30
2,67,127,90
2,67,0,30
2,67,127,30
2,67,0,30
2,67,127,0
2,67,0,30
2,67,127,30
2,67,0,30
2,67,127,0
2,67,0,30
2,69,127,30
2,69,0,30
2,71,127,30
2,71,0,30
2,67,127,30
2,67,0,30
2,67,127,90
2,67,0,30
2,67,127,30
2,67,0,30
2,72,127,0
2,72,0,30
2,72,127,30
2,72,0,30
2,71,127,0
2,71,0,30
2,69,127,30
2,69,0,30
2,71,127,30
2,71,0,30
2,67,127,5790
2,67,0,30
2,67,127,90
2,67,0,30
2,67,127,30
2,67,0,30
2,67,127,0
2,67,0,30
2,67,127,30
2,67,0,30
2,67,127,0
2,67,0,30
2,69,127,30
2,69,0,30
2,71,127,30
2,71,0,30
2,67,127,30
2,67,0,30
2,67,127,90
2,67,0,30
2,67,127,30
2,67,0,30
2,67,127,0
2,67,0,30
2,67,127,30
2,67,0,30
2,67,127,0
2,67,0,30
2,69,127,30
2,69,0,30
2,71,127,30
2,71,0,30
2,67,127,30
2,67,0,30
2,67,127,90
2,67,0,30
2,67,127,30
2,67,0,30
2,67,127,0
2,67,0,30
2,67,127,30
2,67,0,30
2,67,127,0
2,67,0,30
2,69,127,30
2,69,0,30
2,71,127,30
2,71,0,30
2,67,127,30
2,67,0,30
2,67,127,90
2,67,0,30
2,67,127,30
2,67,0,30
2,72,127,0
2,72,0,30
2,72,127,30
2,72,0,30
2,71,127,0
2,71,0,30
2,69,127,30
2,69,0,30
2,71,127,30
2,71,0,30
2,67,127,30
2,67,0,30
2,67,127,90
2,67,0,30
2,67,127,30
2,67,0,30
2,67,127,0
2,67,0,30
2,67,127,30
2,67,0,30
2,67,127,0
2,67,0,30
2,69,127,30
2,69,0,30
2,71,127,30
2,71,0,30
2,67,127,30
2,67,0,30
2,67,127,90
2,67,0,30
2,67,127,30
2,67,0,30
2,67,127,0
2,67,0,30
2,67,127,30
2,67,0,30
2,67,127,0
2,67,0,30
2,69,127,30
2,69,0,30
2,71,127,30
2,71,0,30
2,67,127,30
2,67,0,30
2,67,127,90
2,67,0,30
2,67,127,30
2,67,0,30
2,67,127,0
2,67,0,30
2,67,127,30
2,67,0,30
2,67,127,0
2,67,0,30
2,69,127,30
2,69,0,30
2,71,127,30
2,71,0,30
2,67,127,30
2,67,0,30
2,67,127,90
2,67,0,30
2,67,127,30
2,67,0,30
2,72,127,0
2,72,0,30
2,72,127,30
2,72,0,30
2,71,127,0
2,71,0,30
2,69,127,30
2,69,0,30
2,71,127,30
2,71,0,30
2,91,127,1950
2,91,0,120
2,67,127,5640
2,67,0,30
2,67,127,90
2,67,0,30
2,67,127,30
2,67,0,30
2,67,127,0
2,67,0,30
2,67,127,30
2,67,0,30
2,67,127,0
2,67,0,30
2,69,127,30
2,69,0,30
2,71,127,30
2,71,0,30
2,67,127,30
2,67,0,30
2,67,127,90
2,67,0,30
2,67,127,30
2,67,0,30
2,67,127,0
2,67,0,30
2,67,127,30
2,67,0,30
2,67,127,0
2,67,0,30
2,69,127,30
2,69,0,30
2,71,127,30
2,71,0,30
2,67,127,30
2,67,0,30
2,67,127,90
2,67,0,30
2,67,127,30
2,67,0,30
2,67,127,0
2,67,0,30
2,67,127,30
2,67,0,30
2,67,127,0
2,67,0,30
2,69,127,30
2,69,0,30
2,71,127,30
2,71,0,30
2,67,127,30
2,67,0,30
2,67,127,90
2,67,0,30
2,67,127,30
2,67,0,30
2,72,127,0
2,72,0,30
2,72,127,30
2,72,0,30
2,71,127,0
2,71,0,30
2,69,127,30
2,69,0,30
2,71,127,30
2,71,0,30
2,79,127,30
2,79,0,119
2,67,127,5641
2,67,0,30
2,67,127,90
2,67,0,30
2,67,127,30
2,67,0,30
2,67,127,0
2,67,0,30
2,67,127,30
2,67,0,30
2,67,127,0
2,67,0,30
2,69,127,30
2,69,0,30
2,71,127,30
2,71,0,30
2,67,127,30
2,67,0,30
2,67,127,90
2,67,0,30
2,67,127,30
2,67,0,30
2,67,127,0
2,67,0,30
2,67,127,30
2,67,0,30
2,67,127,0
2,67,0,30
2,69,127,30
2,69,0,30
2,71,127,30
2,71,0,30
2,67,127,30
2,67,0,30
2,67,127,90
2,67,0,30
2,67,127,30
2,67,0,30
2,67,127,0
2,67,0,30
2,67,127,30
2,67,0,30
2,67,127,0
2,67,0,30
2,69,127,30
2,69,0,30
2,71,127,30
2,71,0,30
2,67,127,30
2,67,0,30
2,67,127,90
2,67,0,30
2,67,127,30
2,67,0,30
2,72,127,0
2,72,0,30
2,72,127,30
2,72,0,30
2,71,127,0
2,71,0,30
2,69,127,30
2,69,0,30
2,71,127,30
2,71,0,30
2,67,127,30
2,67,0,30
2,67,127,90
2,67,0,30
2,67,127,30
2,67,0,30
2,67,127,0
2,67,0,30
2,67,127,30
2,67,0,30
2,67,127,0
2,67,0,30
2,69,127,30
2,69,0,30
2,71,127,30
2,71,0,30
2,67,127,30
2,67,0,30
2,67,127,90
2,67,0,30
2,67,127,30
2,67,0,30
2,67,127,0
2,67,0,30
2,67,127,30
2,67,0,30
2,67,127,0
2,67,0,30
2,69,127,30
2,69,0,30
2,71,127,30
2,71,0,30
2,67,127,30
2,67,0,30
2,67,127,90
2,67,0,30
2,67,127,30
2,67,0,30
2,67,127,0
2,67,0,30
2,67,127,30
2,67,0,30
2,67,127,0
2,67,0,30
2,69,127,30
2,69,0,30
2,71,127,30
2,71,0,30
2,67,127,30
2,67,0,30
2,67,127,90
2,67,0,30
2,67,127,30
2,67,0,30
2,72,127,0
2,72,0,30
2,72,127,30
2,72,0,30
2,71,127,0
2,71,0,30
2,69,127,30
2,69,0,30
2,71,127,30
2,71,0,30
2,67,127,1950
2,91,127,0
2,67,0,30
2,91,0,30
2,67,127,60
2,67,0,30
2,67,127,30
2,67,0,30
2,67,127,0
2,67,0,30
2,67,127,30
2,67,0,30
2,67,127,0
2,67,0,30
2,69,127,30
2,69,0,30
2,71,127,30
2,71,0,30
2,67,127,30
2,67,0,30
2,67,127,90
2,67,0,30
2,67,127,30
2,67,0,30
2,67,127,0
2,67,0,30
2,67,127,30
2,67,0,30
2,67,127,0
2,67,0,30
2,69,127,30
2,69,0,30
2,71,127,30
2,71,0,30
2,67,127,30
2,67,0,30
2,67,127,90
2,67,0,30
2,67,127,30
2,67,0,30
2,67,127,0
2,67,0,30
2,67,127,30
2,67,0,30
2,67,127,0
2,67,0,30
2,69,127,30
2,69,0,30
2,71,127,30
2,71,0,30
2,67,127,30
2,67,0,30
2,67,127,90
2,67,0,30
2,67,127,30
2,67,0,30
2,72,127,0
2,72,0,30
2,72,127,30
2,72,0,30
2,71,127,0
2,71,0,30
2,69,127,30
2,69,0,30
2,71,127,30
2,71,0,30
2,67,127,30
2,91,127,0
2,67,0,30
2,91,0,30
2,67,127,60
2,67,0,30
2,67,127,30
2,67,0,30
2,67,127,0
2,67,0,30
2,67,127,30
2,67,0,30
2,67,127,0
2,67,0,30
2,69,127,30
2,69,0,30
2,71,127,30
2,71,0,30
2,67,127,30
2,67,0,30
2,67,127,90
2,67,0,30
2,67,127,30
2,67,0,30
2,67,127,0
2,67,0,30
2,67,127,30
2,67,0,30
2,67,127,0
2,67,0,30
2,69,127,30
2,69,0,30
2,71,127,30
2,71,0,30
2,67,127,30
2,67,0,30
2,67,127,90
2,67,0,30
2,67,127,30
2,67,0,30
2,67,127,0
2,67,0,30
2,67,127,30
2,67,0,30
2,67,127,0
2,67,0,30
2,69,127,30
2,69,0,30
2,71,127,30
2,71,0,30
2,67,127,30
2,67,0,30
2,67,127,90
2,67,0,30
2,67,127,30
2,67,0,30
2,72,127,0
2,72,0,30
2,72,127,30
2,72,0,30
2,71,127,0
2,71,0,30
2,69,127,30
2,69,0,30
2,71,127,30
2,71,0,30
2,67,127,30
2,67,0,30
2,67,127,90
2,67,0,30
2,67,127,30
2,67,0,30
2,67,127,0
2,67,0,30
2,67,127,30
2,67,0,30
2,67,127,0
2,67,0,30
2,69,127,30
2,69,0,30
2,71,127,30
2,71,0,30
2,67,127,30
2,67,0,30
2,67,127,90
2,67,0,30
2,67,127,30
2,67,0,30
2,67,127,0
2,67,0,30
2,67,127,30
2,67,0,30
2,67,127,0
2,67,0,30
2,69,127,30
2,69,0,30
2,71,127,30
2,71,0,30
2,67,127,30
2,67,0,30
2,67,127,90
2,67,0,30
2,67,127,30
2,67,0,30
2,67,127,0
2,67,0,30
2,67,127,30
2,67,0,30
2,67,127,0
2,67,0,30
2,69,127,30
2,69,0,30
2,71,127,30
2,71,0,30
2,67,127,30
2,67,0,30
2,67,127,90
2,67,0,30
2,67,127,30
2,67,0,30
2,72,127,0
2,72,0,30
2,72,127,30
2,72,0,30
2,71,127,0
2,71,0,30
2,69,127,30
2,69,0,30
2,71,127,30
2,71,0,30
2,67,127,30
2,67,0,30
2,67,127,90
2,67,0,30
2,67,127,30
2,67,0,30
2,67,127,0
2,67,0,30
2,67,127,30
2,67,0,30
2,67,127,0
2,67,0,30
2,69,127,30
2,69,0,30
2,71,127,30
2,71,0,30
2,67,127,30
2,67,0,30
2,67,127,90
2,67,0,30
2,67,127,30
2,67,0,30
2,67,127,0
2,67,0,30
2,67,127,30
2,67,0,30
2,67,127,0
2,67,0,30
2,69,127,30
2,69,0,30
2,71,127,30
2,71,0,30
2,67,127,30
2,67,0,30
2,67,127,90
2,67,0,30
2,67,127,30
2,67,0,30
2,67,127,0
2,67,0,30
2,67,127,30
2,67,0,30
2,67,127,0
2,67,0,30
2,69,127,30
2,69,0,30
2,71,127,30
2,71,0,30
2,67,127,30
2,67,0,30
2,67,127,90
2,67,0,30
2,67,127,30
2,67,0,30
2,72,127,0
2,72,0,30
2,72,127,30
2,72,0,30
2,71,127,0
2,71,0,30
2,69,127,30
2,69,0,30
2,71,127,30
2,71,0,30
2,67,127,30
2,67,0,30
2,67,127,90
2,67,0,30
2,67,127,30
2,67,0,30
2,67,127,0
2,67,0,30
2,67,127,30
2,67,0,30
2,67,127,0
2,67,0,30
2,69,127,30
2,69,0,30
2,71,127,30
2,71,0,30
2,67,127,30
2,67,0,30
2,67,123,90
2,67,0,30
2,67,120,30
2,67,0,30
2,67,120,0
2,67,0,30
2,67,117,30
2,67,0,30
2,67,115,0
2,67,0,30
2,69,114,30
2,69,0,30
2,71,111,30
2,71,0,30
2,67,108,30
2,67,0,30
2,67,103,90
2,67,0,30
2,67,102,30
2,67,0,30
2,67,100,0
2,67,0,30
2,67,97,30
2,67,0,30
2,67,97,0
2,67,0,30
2,69,96,30
2,69,0,30
2,71,94,30
2,71,0,30
2,67,91,30
2,67,0,30
2,67,87,90
2,67,0,30
2,67,84,30
2,67,0,30
2,72,84,0
2,72,0,30
2,72,81,30
2,72,0,30
2,71,79,0
2,71,0,30
2,69,78,30
2,69,0,30
2,71,75,30
2,71,0,30
2,67,72,30
2,67,0,30
2,67,67,90
2,67,0,30
2,67,66,30
2,67,0,30
2,67,64,0
2,67,0,30
2,67,61,30
2,67,0,30
2,67,61,0
2,67,0,30
2,69,58,30
2,69,0,30
2,71,57,30
2,71,0,30
2,67,54,30
2,67,0,30
2,67,49,90
2,67,0,30
2,67,48,30
2,67,0,30
2,67,48,0
2,67,0,30
2,67,45,30
2,67,0,30
2,67,43,0
2,67,0,30
