track,note,velocity,time
1,51,91,6144
1,63,91,12
1,60,96,176
1,72,96,16
1,51,81,224
1,63,81,16
1,62,100,146
1,74,100,22
1,51,80,46
1,63,80,18
1,60,103,176
1,72,103,14
1,51,78,322
1,63,78,14
1,58,96,142
1,70,96,18
1,51,87,136
1,63,87,14
1,60,100,176
1,72,100,16
1,51,78,6
1,63,78,18
1,62,103,174
1,74,103,16
1,51,80,0
1,63,80,12
1,60,96,176
1,72,96,16
1,51,80,122
1,63,80,18
1,58,96,48
1,70,96,18
1,48,98,362
1,60,98,14
1,56,106,180
1,68,106,12
1,46,94,94
1,58,94,12
1,55,100,148
1,67,100,14
1,51,91,240
1,63,91,22
1,60,103,174
1,72,103,12
1,50,91,50
1,62,91,20
1,58,100,58
1,70,100,16
1,48,100,260
1,60,100,12
1,56,94,180
1,68,94,14
1,46,94,112
1,58,94,16
1,55,103,172
1,67,103,2
1,51,84,272
1,63,84,22
1,60,98,170
1,72,98,20
1,48,73,60
1,60,70,12
1,55,76,14
1,67,69,18
1,51,91,29504
1,63,91,12
1,60,96,176
1,72,96,16
1,51,81,224
1,63,81,16
1,62,100,146
1,74,100,22
1,51,80,46
1,63,80,18
1,60,103,176
1,72,103,14
1,51,78,322
1,63,78,14
1,58,96,142
1,70,96,18
1,51,87,136
1,63,87,14
1,60,100,176
1,72,100,16
1,51,78,6
1,63,78,18
1,62,103,174
1,74,103,16
1,51,80,0
1,63,80,12
1,60,96,176
1,72,96,16
1,51,80,122
1,63,80,18
1,58,96,48
1,70,96,18
1,48,98,362
1,60,98,14
1,56,106,180
1,68,106,12
1,46,94,94
1,58,94,12
1,55,100,148
1,67,100,14
1,51,91,240
1,63,91,22
1,60,103,174
1,72,103,12
1,50,91,50
1,62,91,20
1,58,100,58
1,70,100,16
1,48,100,260
1,60,100,12
1,56,94,180
1,68,94,14
1,46,94,112
1,58,94,16
1,55,103,172
1,67,103,2
1,51,84,272
1,63,84,22
1,60,98,170
1,72,98,20
1,48,73,60
1,60,70,12
1,55,76,14
1,67,69,18
1,63,101,26432
1,72,105,188
1,63,97,328
1,74,105,168
1,63,101,88
1,75,106,188
1,63,101,164
1,70,104,16
1,63,101,326
1,70,106,192
1,63,101,138
1,67,106,180
1,63,103,10
1,70,108,192
1,63,102,122
1,67,104,46
1,63,101,352
1,72,105,186
1,63,97,320
1,74,105,170
1,63,101,84
1,75,106,192
1,63,101,162
1,70,104,16
1,63,101,320
1,70,106,194
1,63,101,144
1,67,106,172
1,63,103,18
1,70,108,194
1,63,102,122
1,67,104,46
1,51,91,346
1,63,91,12
1,60,96,176
1,72,96,16
1,51,81,224
1,63,81,16
1,62,100,146
1,74,100,22
1,51,80,46
1,63,80,18
1,60,103,176
1,72,103,14
1,51,78,322
1,63,78,14
1,58,96,142
1,70,96,18
1,51,87,136
1,63,87,14
1,60,100,176
1,72,100,16
1,51,78,6
1,63,78,18
1,62,103,174
1,74,103,16
1,51,80,0
1,63,80,12
1,60,96,176
1,72,96,16
1,51,80,122
1,63,80,18
1,58,96,48
1,70,96,18
1,48,98,362
1,60,98,14
1,56,106,180
1,68,106,12
1,46,94,94
1,58,94,12
1,55,100,148
1,67,100,14
1,51,91,240
1,63,91,22
1,60,103,174
1,72,103,12
1,50,91,50
1,62,91,20
1,58,100,58
1,70,100,16
1,48,100,260
1,60,100,12
1,56,94,180
1,68,94,14
1,46,94,112
1,58,94,16
1,55,103,172
1,67,103,2
1,51,84,272
1,63,84,22
1,60,98,170
1,72,98,20
1,48,73,60
1,60,70,12
1,55,76,14
1,67,69,18
1,63,101,26432
1,72,105,188
1,63,97,328
1,74,105,168
1,63,101,88
1,75,106,188
1,63,101,164
1,70,104,16
1,63,101,326
1,70,106,192
1,63,101,138
1,67,106,180
1,63,103,10
1,70,108,192
1,63,102,122
1,67,104,46
1,63,101,352
1,72,105,186
1,63,97,320
1,74,105,170
1,63,101,84
1,75,106,192
1,63,101,162
1,70,104,16
1,63,101,320
1,70,106,194
1,63,101,144
1,67,106,172
1,63,103,18
1,70,108,194
1,63,102,122
1,67,104,46
1,63,101,346
1,72,105,188
1,63,97,328
1,74,105,168
1,63,101,88
1,75,106,188
1,63,101,164
1,70,104,16
1,63,101,326
1,70,106,192
1,63,101,138
1,67,106,180
1,63,103,10
1,70,108,192
1,63,102,122
1,67,104,46
1,63,101,352
1,72,105,186
1,63,97,320
1,74,105,170
1,63,101,84
1,75,106,192
1,63,101,162
1,70,104,16
1,63,101,320
1,70,106,194
1,63,101,144
1,67,106,172
1,63,103,18
1,70,108,194
1,63,102,122
1,67,104,46
1,63,101,346
1,72,105,188
1,63,97,328
1,74,105,168
1,63,101,88
1,75,106,188
1,63,101,164
1,70,104,16
1,63,101,326
1,70,106,192
1,63,101,138
1,67,106,180
1,63,103,10
1,70,108,192
1,63,102,122
1,67,104,46
1,63,101,352
1,72,105,186
1,63,97,320
1,74,105,170
1,63,101,84
1,75,106,192
1,63,101,162
1,70,104,16
1,63,101,320
1,70,106,194
1,63,101,144
1,67,106,172
1,63,103,18
1,70,108,194
1,63,102,122
1,67,104,46
1,63,101,346
1,72,105,188
1,63,97,328
1,74,105,168
1,63,101,88
1,75,106,188
1,63,101,164
1,70,104,16
1,63,101,326
1,70,106,192
1,63,101,138
1,67,106,180
1,63,103,10
1,70,108,192
1,63,102,122
1,67,104,46
1,63,101,352
1,72,105,186
1,63,97,320
1,74,105,170
1,63,101,84
1,75,106,192
1,63,101,162
1,70,104,16
1,63,101,320
1,70,106,194
1,63,101,144
1,67,106,172
1,63,103,18
1,70,108,194
1,63,102,122
1,67,104,46
2,36,127,0
2,36,127,126
2,36,116,0
2,36,124,0
2,36,110,0
2,36,124,0
2,36,124,102
2,36,110,0
2,36,124,68
2,36,121,0
2,36,127,0
2,36,116,0
2,39,121,76
2,39,112,0
2,39,124,92
2,39,116,4
2,39,118,62
2,39,112,0
2,39,121,0
2,39,112,0
2,39,124,0
2,39,124,96
2,39,124,80
2,39,116,0
2,36,124,2
2,36,121,0
2,36,124,0
2,36,127,78
2,36,121,0
2,36,127,68
2,36,121,0
2,36,127,72
2,36,124,92
2,36,116,0
2,36,121,0
2,39,124,94
2,39,112,2
2,39,124,82
2,39,110,4
2,39,121,0
2,39,118,0
2,39,124,86
2,39,114,6
2,39,124,78
2,39,121,0
2,39,124,78
2,39,116,0
2,36,127,96
2,36,127,126
2,36,116,0
2,36,124,0
2,36,110,0
2,36,124,0
2,36,124,102
2,36,110,0
2,36,124,68
2,36,121,0
2,36,127,0
2,36,116,0
2,39,121,76
2,39,112,0
2,39,124,92
2,39,116,4
2,39,118,62
2,39,112,0
2,39,121,0
2,39,112,0
2,39,124,0
2,39,124,96
2,39,124,80
2,39,116,0
2,36,124,2
2,36,121,0
2,36,124,0
2,36,127,78
2,36,121,0
2,36,127,68
2,36,121,0
2,36,127,72
2,36,124,92
2,36,116,0
2,36,121,0
2,39,124,94
2,39,112,2
2,39,124,82
2,39,110,4
2,39,121,0
2,39,118,0
2,39,124,86
2,39,114,6
2,39,124,78
2,39,121,0
2,39,124,78
2,39,116,0
2,36,127,96
2,36,127,126
2,36,116,0
2,36,124,0
2,36,110,0
2,36,124,0
2,36,124,102
2,36,110,0
2,36,124,68
2,36,121,0
2,36,127,0
2,36,116,0
2,39,121,76
2,39,112,0
2,39,124,92
2,39,116,4
2,39,118,62
2,39,112,0
2,39,121,0
2,39,112,0
2,39,124,0
2,39,124,96
2,39,124,80
2,39,116,0
2,36,124,2
2,36,121,0
2,36,124,0
2,36,127,78
2,36,121,0
2,36,127,68
2,36,121,0
2,36,127,72
2,36,124,92
2,36,116,0
2,36,121,0
2,39,124,94
2,39,112,2
2,39,124,82
2,39,110,4
2,39,121,0
2,39,118,0
2,39,124,86
2,39,114,6
2,39,124,78
2,39,121,0
2,39,124,78
2,39,116,0
2,36,127,96
2,36,127,126
2,36,116,0
2,36,124,0
2,36,110,0
2,36,124,0
2,36,124,102
2,36,110,0
2,36,124,68
2,36,121,0
2,36,127,0
2,36,116,0
2,39,121,76
2,39,112,0
2,39,124,92
2,39,116,4
2,39,118,62
2,39,112,0
2,39,121,0
2,39,112,0
2,39,124,0
2,39,124,96
2,39,124,80
2,39,116,0
2,32,124,2
2,32,121,0
2,32,124,0
2,32,127,78
2,32,121,0
2,32,127,68
2,32,121,0
2,32,127,72
2,32,124,92
2,32,116,0
2,32,121,0
2,32,124,94
2,32,112,2
2,32,124,82
2,32,110,4
2,32,121,0
2,32,118,0
2,32,124,86
2,32,114,6
2,32,124,78
2,32,121,0
2,32,124,78
2,32,116,0
2,36,127,96
2,36,127,126
2,36,116,0
2,36,124,0
2,36,110,0
2,36,124,0
2,36,124,102
2,36,110,0
2,36,124,68
2,36,121,0
2,36,127,0
2,36,116,0
2,39,121,76
2,39,112,0
2,39,124,92
2,39,116,4
2,39,118,62
2,39,112,0
2,39,121,0
2,39,112,0
2,39,124,0
2,39,124,96
2,39,124,80
2,39,116,0
2,32,124,2
2,32,121,0
2,32,124,0
2,32,127,78
2,32,121,0
2,32,127,68
2,32,121,0
2,32,127,72
2,32,124,92
2,32,116,0
2,32,121,0
2,32,124,94
2,32,112,2
2,32,124,82
2,32,110,4
2,32,121,0
2,32,118,0
2,32,124,86
2,32,114,6
2,32,124,78
2,32,121,0
2,32,124,78
2,32,116,0
2,29,127,96
2,29,127,126
2,29,116,0
2,29,124,0
2,29,110,0
2,29,124,0
2,29,124,102
2,29,110,0
2,29,124,68
2,29,121,0
2,29,127,0
2,29,116,0
2,32,121,76
2,32,112,0
2,32,124,92
2,32,116,4
2,32,118,62
2,32,112,0
2,32,121,0
2,32,112,0
2,32,124,0
2,32,124,96
2,32,124,80
2,32,116,0
2,36,124,2
2,36,121,0
2,36,124,0
2,36,127,78
2,36,121,0
2,36,127,68
2,36,121,0
2,36,127,72
2,36,124,92
2,36,116,0
2,36,121,0
2,34,124,94
2,34,112,2
2,34,124,82
2,34,110,4
2,34,121,0
2,34,118,0
2,34,124,86
2,34,114,6
2,34,124,78
2,34,121,0
2,34,124,78
2,34,116,0
2,29,127,96
2,29,127,126
2,29,116,0
2,29,124,0
2,29,110,0
2,29,124,0
2,29,124,102
2,29,110,0
2,29,124,68
2,29,121,0
2,29,127,0
2,29,116,0
2,32,121,76
2,32,112,0
2,32,124,92
2,32,116,4
2,32,118,62
2,32,112,0
2,32,121,0
2,32,112,0
2,32,124,0
2,32,124,96
2,32,124,80
2,32,116,0
2,36,124,2
2,36,121,0
2,36,124,0
2,36,127,78
2,36,121,0
2,36,127,68
2,36,121,0
2,36,127,72
2,36,124,92
2,36,116,0
2,36,121,0
2,35,124,94
2,35,112,2
2,35,124,82
2,35,110,4
2,35,121,0
2,35,118,0
2,35,124,86
2,35,114,6
2,35,124,78
2,35,121,0
2,35,124,78
2,35,116,0
2,35,124,96
2,35,112,0
2,35,124,82
2,35,110,4
2,35,121,0
2,35,118,0
2,35,124,86
2,35,114,6
2,35,124,78
2,35,121,0
2,35,124,78
2,35,116,0
2,36,127,3058
2,36,127,126
2,36,116,0
2,36,124,0
2,36,110,0
2,36,124,0
2,36,124,102
2,36,110,0
2,36,124,68
2,36,121,0
2,36,127,0
2,36,116,0
2,39,121,76
2,39,112,0
2,39,124,92
2,39,116,4
2,39,118,62
2,39,112,0
2,39,121,0
2,39,112,0
2,39,124,0
2,39,124,96
2,39,124,80
2,39,116,0
2,36,124,2
2,36,121,0
2,36,124,0
2,36,127,78
2,36,121,0
2,36,127,68
2,36,121,0
2,36,127,72
2,36,124,92
2,36,116,0
2,36,121,0
2,39,124,94
2,39,112,2
2,39,124,82
2,39,110,4
2,39,121,0
2,39,118,0
2,39,124,86
2,39,114,6
2,39,124,78
2,39,121,0
2,39,124,78
2,39,116,0
2,36,127,96
2,36,127,126
2,36,116,0
2,36,124,0
2,36,110,0
2,36,124,0
2,36,124,102
2,36,110,0
2,36,124,68
2,36,121,0
2,36,127,0
2,36,116,0
2,39,121,76
2,39,112,0
2,39,124,92
2,39,116,4
2,39,118,62
2,39,112,0
2,39,121,0
2,39,112,0
2,39,124,0
2,39,124,96
2,39,124,80
2,39,116,0
2,36,124,2
2,36,121,0
2,36,124,0
2,36,127,78
2,36,121,0
2,36,127,68
2,36,121,0
2,36,127,72
2,36,124,92
2,36,116,0
2,36,121,0
2,39,124,94
2,39,112,2
2,39,124,82
2,39,110,4
2,39,121,0
2,39,118,0
2,39,124,86
2,39,114,6
2,39,124,78
2,39,121,0
2,39,124,78
2,39,116,0
2,36,127,96
2,36,127,126
2,36,116,0
2,36,124,0
2,36,110,0
2,36,124,0
2,36,124,102
2,36,110,0
2,36,124,68
2,36,121,0
2,36,127,0
2,36,116,0
2,39,121,76
2,39,112,0
2,39,124,92
2,39,116,4
2,39,118,62
2,39,112,0
2,39,121,0
2,39,112,0
2,39,124,0
2,39,124,96
2,39,124,80
2,39,116,0
2,32,124,2
2,32,121,0
2,32,124,0
2,32,127,78
2,32,121,0
2,32,127,68
2,32,121,0
2,32,127,72
2,32,124,92
2,32,116,0
2,32,121,0
2,32,124,94
2,32,112,2
2,32,124,82
2,32,110,4
2,32,121,0
2,32,118,0
2,32,124,86
2,32,114,6
2,32,124,78
2,32,121,0
2,32,124,78
2,32,116,0
2,36,127,96
2,36,127,126
2,36,116,0
2,36,124,0
2,36,110,0
2,36,124,0
2,36,124,102
2,36,110,0
2,36,124,68
2,36,121,0
2,36,127,0
2,36,116,0
2,39,121,76
2,39,112,0
2,39,124,92
2,39,116,4
2,39,118,62
2,39,112,0
2,39,121,0
2,39,112,0
2,39,124,0
2,39,124,96
2,39,124,80
2,39,116,0
2,32,124,2
2,32,121,0
2,32,124,0
2,32,127,78
2,32,121,0
2,32,127,68
2,32,121,0
2,32,127,72
2,32,124,92
2,32,116,0
2,32,121,0
2,32,124,94
2,32,112,2
2,32,124,82
2,32,110,4
2,32,121,0
2,32,118,0
2,32,124,86
2,32,114,6
2,32,124,78
2,32,121,0
2,32,124,78
2,32,116,0
2,29,127,96
2,29,127,126
2,29,116,0
2,29,124,0
2,29,110,0
2,29,124,0
2,29,124,102
2,29,110,0
2,29,124,68
2,29,121,0
2,29,127,0
2,29,116,0
2,32,121,76
2,32,112,0
2,32,124,92
2,32,116,4
2,32,118,62
2,32,112,0
2,32,121,0
2,32,112,0
2,32,124,0
2,32,124,96
2,32,124,80
2,32,116,0
2,36,124,2
2,36,121,0
2,36,124,0
2,36,127,78
2,36,121,0
2,36,127,68
2,36,121,0
2,36,127,72
2,36,124,92
2,36,116,0
2,36,121,0
2,34,124,94
2,34,112,2
2,34,124,82
2,34,110,4
2,34,121,0
2,34,118,0
2,34,124,86
2,34,114,6
2,34,124,78
2,34,121,0
2,34,124,78
2,34,116,0
2,29,127,96
2,29,127,126
2,29,116,0
2,29,124,0
2,29,110,0
2,29,124,0
2,29,124,102
2,29,110,0
2,29,124,68
2,29,121,0
2,29,127,0
2,29,116,0
2,32,121,76
2,32,112,0
2,32,124,92
2,32,116,4
2,32,118,62
2,32,112,0
2,32,121,0
2,32,112,0
2,32,124,0
2,32,124,96
2,32,124,80
2,32,116,0
2,36,124,2
2,36,121,0
2,36,124,0
2,36,127,78
2,36,121,0
2,36,127,68
2,36,121,0
2,36,127,72
2,36,124,92
2,36,116,0
2,36,121,0
2,35,124,94
2,35,112,2
2,35,124,82
2,35,110,4
2,35,121,0
2,35,118,0
2,35,124,86
2,35,114,6
2,35,124,78
2,35,121,0
2,35,124,78
2,35,116,0
2,35,124,96
2,35,112,0
2,35,124,82
2,35,110,4
2,35,121,0
2,35,118,0
2,35,124,86
2,35,114,6
2,35,124,78
2,35,121,0
2,35,124,78
2,35,116,0
2,29,127,96
2,29,127,126
2,29,116,0
2,29,124,0
2,29,110,0
2,29,124,0
2,29,124,102
2,29,110,0
2,29,124,68
2,29,121,0
2,29,127,0
2,29,116,0
2,32,121,76
