track,note,velocity,time
10,84,120,0
10,91,127,360
10,89,100,720
10,89,100,120
10,88,110,1560
10,86,110,120
10,84,120,120
10,91,127,360
10,89,100,720
10,89,100,120
10,88,110,1560
10,86,110,120
10,84,120,120
10,91,127,360
10,89,100,720
10,89,100,120
10,88,110,1560
10,86,110,120
10,84,120,120
10,91,127,360
10,89,100,720
10,89,100,120
10,88,110,1560
10,86,110,120
10,84,120,120
10,91,127,360
10,89,100,720
10,89,100,120
10,88,110,1560
10,86,110,120
10,84,120,120
10,91,127,360
10,89,100,720
10,89,100,120
10,88,110,1560
10,86,110,120
10,84,120,120
10,91,127,360
10,89,100,720
10,89,100,120
10,88,110,1560
10,86,110,120
10,84,120,120
10,91,127,360
10,89,100,720
10,89,100,120
10,88,110,1560
10,86,110,120
10,84,120,120
10,91,127,360
10,89,100,720
10,89,100,120
10,88,110,1560
10,86,110,120
10,84,120,120
10,91,127,360
10,89,100,720
10,89,100,120
10,88,110,1560
10,86,110,120
10,84,120,120
10,91,127,360
10,89,100,720
10,89,100,120
10,88,110,1560
10,86,110,120
10,84,120,120
10,91,127,360
10,89,100,720
10,89,100,120
10,88,110,1560
10,86,110,120
10,84,120,120
10,91,127,360
10,89,100,720
10,89,100,120
10,88,110,1560
10,86,110,120
10,84,120,120
10,91,127,360
10,89,100,720
10,89,100,120
10,88,110,1560
10,86,110,120
10,84,120,120
10,91,127,360
10,89,100,720
10,89,100,120
10,88,110,1560
10,86,110,120
10,84,120,120
10,91,127,360
10,89,100,720
10,89,100,120
10,88,110,1560
10,86,110,120
10,84,120,120
10,91,127,360
10,89,100,720
10,89,100,120
10,88,110,1560
10,86,110,120
10,84,120,120
10,91,127,360
10,89,100,720
10,89,100,120
10,88,110,1560
10,86,110,120
10,84,120,120
10,91,127,360
10,89,100,720
10,89,100,120
10,88,110,1560
10,86,110,120
10,84,120,120
10,91,127,360
10,89,100,720
10,89,100,120
10,88,110,1560
10,86,110,120
10,84,120,120
10,91,127,360
10,89,100,720
10,89,100,120
10,88,110,1560
10,86,110,120
10,84,120,120
10,91,127,360
10,89,100,720
10,89,100,120
10,88,110,1560
10,86,110,120
10,84,120,120
10,91,127,360
10,89,100,720
10,89,100,120
10,88,110,1560
10,86,110,120
10,84,120,120
10,91,127,360
10,89,100,720
10,89,100,120
10,88,110,1560
10,86,110,120
10,84,120,120
10,91,127,360
10,89,100,720
10,89,100,120
10,88,110,1560
10,86,110,120
10,84,120,120
10,91,127,360
10,89,100,720
10,89,100,120
10,88,110,1560
10,86,110,120
10,84,120,120
10,91,127,360
10,89,100,720
10,89,100,120
10,88,110,1560
10,86,110,120
10,84,120,120
10,91,127,360
10,89,100,720
10,89,100,120
10,88,110,1560
10,86,110,120
10,84,120,120
10,91,127,360
10,89,100,720
10,89,100,120
10,88,110,1560
10,86,110,120
10,84,120,120
10,91,127,360
10,89,100,720
10,89,100,120
10,88,110,1560
10,86,110,120
10,84,120,120
10,91,127,360
10,89,100,720
10,89,100,120
10,88,110,1560
10,86,110,120
10,84,120,120
10,91,127,360
10,89,100,720
10,89,100,120
10,88,110,1560
10,86,110,120
10,84,120,120
10,91,127,360
10,89,100,720
10,89,100,120
10,88,110,1560
10,86,110,120
10,84,120,120
10,91,127,360
10,89,100,720
10,89,100,120
10,88,110,1560
10,86,110,120
10,84,120,120
10,91,127,360
10,89,100,720
10,89,100,120
10,88,110,1560
10,86,110,120
10,84,120,120
10,91,127,360
10,89,100,720
10,89,100,120
10,88,110,1560
10,86,110,120
10,84,120,120
10,91,127,360
10,89,100,720
10,89,100,120
10,88,110,1560
10,86,110,120
10,84,120,120
10,91,127,360
10,89,100,720
10,89,100,120
10,88,110,1560
10,86,110,120
10,84,120,120
10,91,127,360
10,89,100,720
10,89,100,120
10,88,110,1560
10,86,110,120
10,84,120,120
10,91,127,360
10,89,100,720
10,89,100,120
10,88,110,1560
10,86,110,120
10,84,120,120
10,91,127,360
10,89,100,720
10,89,100,120
10,88,110,1560
10,86,110,120
10,84,120,120
10,91,127,360
10,89,100,720
10,89,100,120
10,88,110,1560
10,86,110,120
10,84,120,120
10,91,127,360
10,89,100,720
10,89,100,120
10,88,110,1560
10,86,110,120
10,84,120,120
10,91,127,360
10,89,100,720
10,89,100,120
10,88,110,1560
10,86,110,120
10,84,120,120
10,91,127,360
10,89,100,720
10,89,100,120
10,88,110,1560
10,86,110,120
10,84,120,120
10,91,127,360
10,89,100,720
10,89,100,120
10,88,110,1560
10,86,110,120
10,84,120,42360
10,91,127,360
10,89,100,720
10,89,100,120
10,88,110,1560
10,86,110,120
10,84,120,3960
10,91,127,360
10,89,100,720
10,89,100,120
10,88,110,1560
10,86,110,120
10,84,120,120
10,91,127,360
10,89,100,720
10,89,100,120
10,88,110,1560
10,86,110,120
10,84,120,120
10,91,127,360
10,89,100,720
10,89,100,120
10,88,110,1560
10,86,110,120
10,84,120,120
10,91,127,360
10,89,100,720
10,89,100,120
10,88,110,1560
10,86,110,120
10,84,120,120
10,91,127,360
10,89,100,720
10,89,100,120
10,88,110,1560
10,86,110,120
10,84,120,120
10,91,127,360
10,89,100,720
10,89,100,120
10,88,110,1560
10,86,110,120
10,84,120,120
10,91,127,360
10,89,100,720
10,89,100,120
10,88,110,1560
10,86,110,120
10,84,120,120
10,91,127,360
10,89,100,720
10,89,100,120
10,88,110,1560
10,86,110,120
10,84,120,120
10,91,127,360
10,89,100,720
10,89,100,120
10,88,110,1560
10,86,110,120
10,84,120,120
10,91,127,360
10,89,100,720
10,89,100,120
10,88,110,1560
10,86,110,120
10,84,120,120
10,91,127,360
10,89,100,720
10,89,100,120
10,88,110,1560
10,86,110,120
10,84,120,120
10,91,127,360
10,89,100,720
10,89,100,120
10,88,110,1560
10,86,110,120
10,84,120,120
10,91,127,360
10,89,100,720
10,89,100,120
10,88,110,1560
10,86,110,120
10,84,120,120
10,91,127,360
10,89,100,720
10,89,100,120
10,88,110,1560
10,86,110,120
10,84,120,120
10,91,127,360
10,89,100,720
10,89,100,120
10,88,110,1560
10,86,110,120
10,84,120,120
10,91,127,360
10,89,100,720
10,89,100,120
10,88,110,1560
10,86,110,120
10,84,120,120
10,91,127,360
10,89,100,720
10,89,100,120
10,88,110,1560
10,86,110,120
10,84,120,120
10,91,127,360
10,89,100,720
10,89,100,120
10,88,110,1560
10,86,110,120
10,84,120,120
10,91,127,360
10,89,100,720
10,89,100,120
10,88,110,1560
10,86,110,120
10,84,120,120
10,91,127,360
10,89,100,720
10,89,100,120
10,88,110,1560
10,86,110,120
10,84,120,120
10,91,127,360
10,89,100,720
10,89,100,120
10,88,110,1560
10,86,110,120
10,84,120,120
10,91,127,360
10,89,100,720
10,89,100,120
10,88,110,1560
10,86,110,120
10,84,120,120
10,91,127,360
10,89,100,720
10,89,100,120
10,88,110,1560
10,86,110,120
10,84,120,120
10,91,127,360
10,89,100,720
10,89,100,120
10,88,110,1560
10,86,110,120
10,84,120,120
10,91,127,360
10,89,100,720
10,89,100,120
10,88,110,1560
10,86,110,120
10,84,120,120
10,91,127,360
10,89,100,720
10,89,100,120
10,88,110,1560
10,86,110,120
10,84,120,120
10,91,127,360
10,89,100,720
10,89,100,120
10,88,110,1560
10,86,110,120
10,84,120,120
10,91,127,360
10,89,100,720
10,89,100,120
10,88,110,1560
10,86,110,120
10,84,120,120
10,91,127,360
10,89,100,720
10,89,100,120
10,88,110,1560
10,86,110,120
10,84,120,120
10,91,127,360
10,89,100,720
10,89,100,120
10,88,110,1560
10,86,110,120
10,84,120,120
10,91,127,360
10,89,100,720
10,89,100,120
10,88,110,1560
10,86,110,120
10,84,120,120
10,91,127,360
10,89,100,720
10,89,100,120
10,88,110,1560
10,86,110,120
10,84,120,120
10,91,127,360
10,89,100,720
10,89,100,120
10,88,110,1560
10,86,110,120
10,84,120,120
10,91,127,360
10,89,100,720
10,89,100,120
10,88,110,1560
10,86,110,120
10,84,120,120
10,91,127,360
10,89,100,720
10,89,100,120
10,88,110,1560
10,86,110,120
10,84,120,120
10,91,127,360
10,89,100,720
10,89,100,120
10,88,110,1560
10,86,110,120
10,84,120,120
10,91,127,360
10,89,100,720
10,89,100,120
10,88,110,1560
10,86,110,120
10,84,120,120
10,91,127,360
10,89,100,720
10,89,100,120
10,88,110,1560
10,86,110,120
10,84,120,120
10,91,127,360
10,89,100,720
10,89,100,120
10,88,110,1560
10,86,110,120
10,84,120,42360
10,91,127,360
10,89,100,720
10,89,100,120
10,88,110,1560
10,86,110,120
10,84,120,3960
10,91,127,360
10,89,100,720
10,89,100,120
10,88,110,1560
10,86,110,120
10,84,120,120
10,91,127,360
10,89,100,720
10,89,100,120
10,88,110,1560
10,86,110,120
10,84,120,120
10,91,127,360
10,89,100,720
10,89,100,120
10,88,110,1560
10,86,110,120
10,84,120,120
10,91,127,360
10,89,100,720
10,89,100,120
10,88,110,1560
10,86,110,120
10,84,120,120
10,91,127,360
10,89,100,720
10,89,100,120
10,88,110,1560
10,86,110,120
10,84,120,120
10,91,127,360
10,89,100,720
10,89,100,120
10,88,110,1560
10,86,110,120
10,84,120,120
10,91,127,360
10,89,100,720
10,89,100,120
10,88,110,1560
10,86,110,120
10,84,120,120
10,91,127,360
10,89,100,720
10,89,100,120
10,88,110,1560
10,86,110,120
10,84,120,120
10,91,127,360
10,89,100,720
10,89,100,120
10,88,110,1560
10,86,110,120
10,84,120,120
10,91,127,360
10,89,100,720
10,89,100,120
10,88,110,1560
10,86,110,120
10,84,120,120
10,91,127,360
10,89,100,720
10,89,100,120
10,88,110,1560
10,86,110,120
10,84,120,120
10,91,127,360
10,89,100,720
10,89,100,120
10,88,110,1560
10,86,110,120
10,84,120,120
10,91,127,360
10,89,100,720
10,89,100,120
10,88,110,1560
10,86,110,120
10,84,120,120
10,91,127,360
10,89,100,720
10,89,100,120
10,88,110,1560
10,86,110,120
10,84,120,120
10,91,127,360
10,89,100,720
10,89,100,120
10,88,110,1560
10,86,110,120
10,84,120,120
10,91,127,360
10,89,100,720
10,89,100,120
10,88,110,1560
10,86,110,120
10,84,120,120
10,91,127,360
10,89,100,720
10,89,100,120
10,88,110,1560
10,86,110,120
10,84,120,120
10,91,127,360
10,89,100,720
10,89,100,120
10,88,110,1560
10,86,110,120
10,84,120,120
10,91,127,360
10,89,100,720
10,89,100,120
10,88,110,1560
10,86,110,120
10,84,120,120
10,91,127,360
10,89,100,720
10,89,100,120
10,88,110,1560
10,86,110,120
10,84,120,120
10,91,127,360
10,89,100,720
10,89,100,120
10,88,110,1560
10,86,110,120
10,84,120,120
10,91,127,360
10,89,100,720
10,89,100,120
10,88,110,1560
10,86,110,120
10,84,120,120
10,91,127,360
10,89,100,720
10,89,100,120
10,88,110,1560
10,86,110,120
10,84,120,120
10,91,127,360
10,89,100,720
10,89,100,120
10,88,110,1560
10,86,110,120
10,84,120,120
10,91,127,360
10,89,100,720
10,89,100,120
10,88,110,1560
10,86,110,120
10,84,120,120
10,91,127,360
10,89,100,720
10,89,100,120
10,88,110,1560
10,86,110,120
10,84,120,120
10,91,127,360
10,89,100,720
10,89,100,120
10,88,110,1560
10,86,110,120
10,84,120,120
10,91,127,360
10,89,100,720
10,89,100,120
10,88,110,1560
10,86,110,120
10,84,120,120
10,91,127,360
10,89,100,720
10,89,100,120
10,88,110,1560
10,86,110,120
10,84,120,120
10,91,127,360
10,89,100,720
10,89,100,120
10,88,110,1560
10,86,110,120
10,84,120,120
10,91,127,360
10,89,100,720
10,89,100,120
10,88,110,1560
10,86,110,120
10,84,120,120
10,91,127,360
10,89,100,720
10,89,100,120
10,88,110,1560
10,86,110,120
10,84,120,120
10,91,127,360
10,89,100,720
10,89,100,120
10,88,110,1560
10,86,110,120
10,84,120,120
10,91,127,360
10,89,100,720
10,89,100,120
10,88,110,1560
10,86,110,120
10,84,120,120
10,91,127,360
10,89,100,720
10,89,100,120
10,88,110,1560
10,86,110,120
10,84,120,120
10,91,127,360
10,89,100,720
10,89,100,120
10,88,110,1560
10,86,110,120
10,84,120,120
10,91,127,360
10,89,100,720
10,89,100,120
10,88,110,1560
10,86,110,120
10,84,120,120
10,91,127,360
10,89,100,720
10,89,100,120
10,88,110,1560
10,86,110,120
10,84,120,120
11,75,115,0
11,82,115,240
11,80,120,720
11,80,120,0
11,80,120,1440
11,77,120,0
11,75,115,0
11,82,115,240
11,80,120,720
11,80,120,0
11,80,120,1440
11,77,120,0
11,75,115,0
11,82,115,240
11,80,120,720
11,80,120,0
11,80,120,1440
11,77,120,0
11,75,115,0
11,82,115,240
11,80,120,720
11,80,120,0
11,80,120,1440
11,77,120,0
11,75,115,0
11,82,115,240
11,80,120,720
11,80,120,0
11,80,120,1440
11,77,120,0
11,75,115,0
11,82,115,240
11,80,120,720
11,80,120,0
11,80,120,1440
11,77,120,0
11,75,115,0
11,82,115,240
11,80,120,720
11,80,120,0
11,80,120,1440
11,77,120,0
11,75,115,0
11,82,115,240
11,80,120,720
11,80,120,0
11,80,120,1440
11,77,120,0
11,75,115,0
11,82,115,240
11,80,120,720
11,80,120,0
11,80,120,1440
11,77,120,0
11,75,115,0
11,82,115,240
11,80,120,720
11,80,120,0
11,80,120,1440
11,77,120,0
11,75,115,0
11,82,115,240
11,80,120,720
11,80,120,0
11,80,120,1440
11,77,120,0
11,75,115,0
11,82,115,240
11,80,120,720
11,80,120,0
11,80,120,1440
11,77,120,0
11,75,115,0
11,82,115,240
11,80,120,720
11,80,120,0
11,80,120,1440
11,77,120,0
11,75,115,0
11,82,115,240
11,80,120,720
11,80,120,0
11,80,120,1440
11,77,120,0
11,75,115,0
11,82,115,240
11,80,120,720
11,80,120,0
11,80,120,1440
11,77,120,0
11,75,115,0
11,82,115,240
11,80,120,720
11,80,120,0
11,80,120,1440
11,77,120,0
11,75,115,0
11,82,115,240
11,80,120,720
11,80,120,0
11,80,120,1440
11,77,120,0
11,75,115,0
11,82,115,240
11,80,120,720
11,80,120,0
11,80,120,1440
11,77,120,0
11,75,115,0
11,82,115,240
11,80,120,720
11,80,120,0
11,80,120,1440
11,77,120,0
11,75,115,0
11,82,115,240
11,80,120,720
11,80,120,0
11,80,120,1440
11,77,120,0
11,75,115,0
11,82,115,240
11,80,120,720
11,80,120,0
11,80,120,1440
11,77,120,0
11,75,115,0
11,82,115,240
11,80,120,720
11,80,120,0
11,80,120,1440
11,77,120,0
11,75,115,0
11,82,115,240
11,80,120,720
11,80,120,0
11,80,120,1440
11,77,120,0
11,75,115,0
11,82,115,240
11,80,120,720
11,80,120,0
11,80,120,1440
11,77,120,0
11,75,115,0
11,82,115,240
11,80,120,720
11,80,120,0
11,80,120,1440
11,77,120,0
11,75,115,0
11,82,115,240
11,80,120,720
11,80,120,0
11,80,120,1440
11,77,120,0
11,75,115,0
11,82,115,240
11,80,120,720
11,80,120,0
11,80,120,1440
11,77,120,0
11,75,115,0
11,82,115,240
11,80,120,720
11,80,120,0
11,80,120,1440
11,77,120,0
11,75,115,0
11,82,115,240
11,80,120,720
11,80,120,0
11,80,120,1440
11,77,120,0
11,75,115,0
11,82,115,240
11,80,120,720
11,80,120,0
11,80,120,1440
11,77,120,0
11,75,115,0
11,82,115,240
11,80,120,720
11,80,120,0
11,80,120,1440
11,77,120,0
11,75,115,0
11,82,115,240
11,80,120,720
11,80,120,0
11,80,120,1440
11,77,120,0
11,75,115,0
11,82,115,240
11,80,120,720
11,80,120,0
11,80,120,1440
11,77,120,0
11,75,115,0
11,82,115,240
11,80,120,720
11,80,120,0
11,80,120,1440
11,77,120,0
11,75,115,0
11,82,115,240
11,80,120,720
11,80,120,0
11,80,120,1440
11,77,120,0
11,75,115,0
11,82,115,240
11,80,120,720
11,80,120,0
11,80,120,1440
11,77,120,0
11,75,115,0
11,82,115,240
11,80,120,720
11,80,120,0
11,80,120,1440
11,77,120,0
11,75,115,0
11,82,115,240
11,80,120,720
11,80,120,0
11,80,120,1440
11,77,120,0
11,75,115,0
11,82,115,240
11,80,120,720
11,80,120,0
11,80,120,1440
11,77,120,0
11,75,115,0
11,82,115,240
11,80,120,720
11,80,120,0
11,80,120,1440
11,77,120,0
11,75,115,0
11,82,115,240
11,80,120,720
11,80,120,0
11,80,120,1440
11,77,120,0
11,75,115,0
11,82,115,240
11,80,120,720
