track,note,velocity,time
10,65,127,17280
10,67,127,120
10,67,127,120
10,65,127,120
10,67,127,0
10,70,127,120
10,70,127,30
10,70,127,40
10,65,127,0
10,67,127,120
10,67,127,120
10,65,127,120
10,67,127,0
10,62,127,120
10,62,127,30
10,62,127,40
10,65,127,0
10,67,127,120
10,67,127,120
10,65,127,120
10,67,127,0
10,70,127,120
10,70,127,30
10,70,127,40
10,65,127,0
10,67,127,120
10,67,127,120
10,65,127,120
10,67,127,0
10,62,127,120
10,62,127,30
10,62,127,40
10,65,127,26880
10,67,127,120
10,67,127,120
10,65,127,120
10,67,127,0
10,70,127,120
10,70,127,30
10,70,127,40
10,65,127,0
10,67,127,120
10,67,127,120
10,65,127,120
10,67,127,0
10,62,127,120
10,62,127,30
10,62,127,40
10,65,127,0
10,67,127,120
10,67,127,120
10,65,127,120
10,67,127,0
10,70,127,120
10,70,127,30
10,70,127,40
10,65,127,0
10,67,127,120
10,67,127,120
10,65,127,120
10,67,127,0
10,62,127,120
10,62,127,30
10,62,127,40
10,65,127,65280
10,67,127,120
10,67,127,120
10,65,127,120
10,67,127,0
10,70,127,120
10,70,127,30
10,70,127,40
10,65,127,0
10,67,127,120
10,67,127,120
10,65,127,120
10,67,127,0
10,62,127,120
10,62,127,30
10,62,127,40
10,65,127,0
10,67,127,120
10,67,127,120
10,65,127,120
10,67,127,0
10,70,127,120
10,70,127,30
10,70,127,40
10,65,127,0
10,67,127,120
10,67,127,120
10,65,127,120
10,67,127,0
10,62,127,120
10,62,127,30
10,62,127,40
10,65,127,0
10,67,127,120
10,67,127,120
10,65,127,120
10,67,127,0
10,70,127,120
10,70,127,30
10,70,127,40
10,65,127,0
10,67,127,120
10,67,127,120
10,65,127,120
10,67,127,0
10,62,127,120
10,62,127,30
10,62,127,40
10,65,127,0
10,67,127,120
10,67,127,120
10,65,127,120
10,67,127,0
10,70,127,120
10,70,127,30
10,70,127,40
10,65,127,0
10,67,127,120
10,67,127,120
10,65,127,120
10,67,127,0
10,62,127,120
10,62,127,30
10,62,127,40
11,65,127,17280
11,67,127,120
11,67,127,120
11,65,127,120
11,67,127,0
11,70,127,120
11,70,127,30
11,70,127,40
11,65,127,0
11,67,127,120
11,67,127,120
11,65,127,120
11,67,127,0
11,62,127,120
11,62,127,30
11,62,127,40
11,65,127,0
11,67,127,120
11,67,127,120
11,65,127,120
11,67,127,0
11,70,127,120
11,70,127,30
11,70,127,40
11,65,127,0
11,67,127,120
11,67,127,120
11,65,127,120
11,67,127,0
11,62,127,120
11,62,127,30
11,62,127,40
11,65,127,26880
11,67,127,120
11,67,127,120
11,65,127,120
11,67,127,0
11,70,127,120
11,70,127,30
11,70,127,40
11,65,127,0
11,67,127,120
11,67,127,120
11,65,127,120
11,67,127,0
11,62,127,120
11,62,127,30
11,62,127,40
11,65,127,0
11,67,127,120
11,67,127,120
11,65,127,120
11,67,127,0
11,70,127,120
11,70,127,30
11,70,127,40
11,65,127,0
11,67,127,120
11,67,127,120
11,65,127,120
11,67,127,0
11,62,127,120
11,62,127,30
11,62,127,40
11,65,127,65280
11,67,127,120
11,67,127,120
11,65,127,120
11,67,127,0
11,70,127,120
11,70,127,30
11,70,127,40
11,65,127,0
11,67,127,120
11,67,127,120
11,65,127,120
11,67,127,0
11,62,127,120
11,62,127,30
11,62,127,40
11,65,127,0
11,67,127,120
11,67,127,120
11,65,127,120
11,67,127,0
11,70,127,120
11,70,127,30
11,70,127,40
11,65,127,0
11,67,127,120
11,67,127,120
11,65,127,120
11,67,127,0
11,62,127,120
11,62,127,30
11,62,127,40
11,65,127,0
11,67,127,120
11,67,127,120
11,65,127,120
11,67,127,0
11,70,127,120
11,70,127,30
11,70,127,40
11,65,127,0
11,67,127,120
11,67,127,120
11,65,127,120
11,67,127,0
11,62,127,120
11,62,127,30
11,62,127,40
11,65,127,0
11,67,127,120
11,67,127,120
11,65,127,120
11,67,127,0
11,70,127,120
11,70,127,30
11,70,127,40
11,65,127,0
11,67,127,120
11,67,127,120
11,65,127,120
11,67,127,0
11,62,127,120
11,62,127,30
11,62,127,40
12,31,127,17280
12,43,127,240
12,38,127,360
12,39,127,0
12,38,127,0
12,34,127,0
12,33,127,0
12,31,127,0
12,43,127,240
12,38,127,360
12,39,127,0
12,38,127,0
12,34,127,0
12,33,127,0
12,31,127,0
12,43,127,240
12,38,127,360
12,39,127,0
12,38,127,0
12,34,127,0
12,33,127,0
12,31,127,0
12,43,127,240
12,38,127,360
12,39,127,0
12,38,127,0
12,34,127,0
12,33,127,0
12,31,127,0
12,43,127,240
12,38,127,360
12,39,127,0
12,34,127,0
12,33,127,0
12,31,127,0
12,43,127,240
12,38,127,360
12,39,127,0
12,34,127,0
12,33,127,0
12,36,127,0
12,36,127,120
12,36,127,120
12,36,127,120
12,36,127,120
12,36,127,120
12,36,127,120
12,38,127,0
12,31,127,240
12,43,127,240
12,38,127,360
12,39,127,0
12,34,127,0
12,33,127,0
12,31,127,0
12,43,127,240
12,38,127,360
12,39,127,0
12,34,127,0
12,33,127,0
12,31,127,0
12,43,127,240
12,38,127,360
12,39,127,0
12,34,127,0
12,33,127,0
12,36,127,0
12,36,127,120
12,36,127,120
12,36,127,120
12,36,127,120
12,36,127,120
12,36,127,120
12,38,127,0
12,31,127,240
12,43,127,240
12,38,127,360
12,39,127,0
12,34,127,0
12,33,127,0
12,29,127,0
12,29,127,240
12,29,127,360
12,29,127,20
12,29,127,20
12,29,127,20
12,31,127,0
12,31,127,240
12,31,127,360
12,31,127,20
12,34,127,0
12,31,127,0
12,29,127,0
12,29,127,240
12,29,127,360
12,29,127,20
12,29,127,360
12,31,127,0
12,31,127,240
12,31,127,360
12,31,127,20
12,34,127,0
12,31,127,0
12,29,127,0
12,29,127,240
12,29,127,360
12,29,127,20
12,29,127,20
12,29,127,20
12,26,127,0
12,26,127,240
12,26,127,240
12,26,127,20
12,26,127,120
12,26,127,20
12,31,127,0
12,43,127,240
12,38,127,360
12,39,127,0
12,38,127,0
12,34,127,0
12,33,127,0
12,31,127,0
12,43,127,240
12,38,127,360
12,39,127,0
12,38,127,0
12,34,127,0
12,33,127,0
12,31,127,0
12,43,127,240
12,38,127,360
12,39,127,0
12,38,127,0
12,34,127,0
12,33,127,0
12,31,127,0
12,43,127,240
12,38,127,360
12,39,127,0
12,38,127,0
12,34,127,0
12,33,127,0
12,31,127,0
12,43,127,240
12,38,127,360
12,39,127,0
12,34,127,0
12,33,127,0
12,31,127,0
12,43,127,240
12,38,127,360
12,39,127,0
12,34,127,0
12,33,127,0
12,36,127,0
12,36,127,120
12,36,127,120
12,36,127,120
12,36,127,120
12,36,127,120
12,36,127,120
12,38,127,0
12,31,127,240
12,43,127,240
12,38,127,360
12,39,127,0
12,34,127,0
12,33,127,0
12,31,127,0
12,43,127,240
12,38,127,360
12,39,127,0
12,34,127,0
12,33,127,0
12,31,127,0
12,43,127,240
12,38,127,360
12,39,127,0
12,34,127,0
12,33,127,0
12,36,127,0
12,36,127,120
12,36,127,120
12,36,127,120
12,36,127,120
12,36,127,120
12,36,127,120
12,38,127,0
12,31,127,240
12,43,127,240
12,38,127,360
12,39,127,0
12,34,127,0
12,33,127,0
12,29,127,0
12,29,127,240
12,29,127,360
12,29,127,20
12,29,127,20
12,29,127,20
12,31,127,0
12,31,127,240
12,31,127,360
12,31,127,20
12,34,127,0
12,31,127,0
12,29,127,0
12,29,127,240
12,29,127,360
12,29,127,20
12,29,127,360
12,31,127,0
12,31,127,240
12,31,127,360
12,31,127,20
12,34,127,0
12,31,127,0
12,29,127,0
12,29,127,240
12,29,127,360
12,29,127,20
12,29,127,20
12,29,127,20
12,26,127,0
12,26,127,240
12,26,127,240
12,26,127,20
12,26,127,120
12,26,127,20
12,31,127,0
12,43,127,240
12,38,127,360
12,39,127,0
12,34,127,0
12,33,127,0
12,31,127,0
12,43,127,240
12,38,127,360
12,39,127,0
12,34,127,0
12,33,127,0
12,31,127,0
12,43,127,240
12,38,127,360
12,39,127,0
12,34,127,0
12,33,127,0
12,31,127,0
12,43,127,240
12,38,127,360
12,39,127,0
12,34,127,0
12,33,127,0
12,31,127,30720
12,43,127,240
12,38,127,360
12,39,127,0
12,38,127,0
12,34,127,0
12,33,127,0
12,31,127,0
12,43,127,240
12,38,127,360
12,39,127,0
12,38,127,0
12,34,127,0
12,33,127,0
12,31,127,0
12,43,127,240
12,38,127,360
12,39,127,0
12,38,127,0
12,34,127,0
12,33,127,0
12,31,127,0
12,43,127,240
12,38,127,360
12,39,127,0
12,38,127,0
12,34,127,0
12,33,127,0
12,31,127,0
12,43,127,240
12,38,127,360
12,39,127,0
12,38,127,0
12,34,127,0
12,33,127,0
12,31,127,0
12,43,127,240
12,38,127,360
12,39,127,0
12,38,127,0
12,34,127,0
12,33,127,0
12,31,127,0
12,43,127,240
12,38,127,360
12,39,127,0
12,38,127,0
12,34,127,0
12,33,127,0
12,31,127,0
12,43,127,240
12,38,127,360
12,39,127,0
12,38,127,0
12,34,127,0
12,33,127,0
12,31,127,0
12,43,127,240
12,38,127,360
12,39,127,0
12,34,127,0
12,33,127,0
12,31,127,0
12,43,127,240
12,38,127,360
12,39,127,0
12,34,127,0
12,33,127,0
12,36,127,0
12,36,127,120
12,36,127,120
12,36,127,120
12,36,127,120
12,36,127,120
12,36,127,120
12,38,127,0
12,31,127,240
12,43,127,240
12,38,127,360
12,39,127,0
12,34,127,0
12,33,127,0
12,31,127,0
12,43,127,240
12,38,127,360
12,39,127,0
12,34,127,0
12,33,127,0
12,31,127,0
12,43,127,240
12,38,127,360
12,39,127,0
12,34,127,0
12,33,127,0
12,36,127,0
12,36,127,120
12,36,127,120
12,36,127,120
12,36,127,120
12,36,127,120
12,36,127,120
12,38,127,0
12,31,127,240
12,43,127,240
12,38,127,360
12,39,127,0
12,34,127,0
12,33,127,0
12,29,127,0
12,29,127,240
12,29,127,360
12,29,127,20
12,29,127,20
12,29,127,20
12,31,127,0
12,31,127,240
12,31,127,360
12,31,127,20
12,34,127,0
12,31,127,0
12,29,127,0
12,29,127,240
12,29,127,360
12,29,127,20
12,29,127,360
12,31,127,0
12,31,127,240
12,31,127,360
12,31,127,20
12,34,127,0
12,31,127,0
12,29,127,0
12,29,127,240
12,29,127,360
12,29,127,20
12,29,127,20
12,29,127,20
12,26,127,0
12,26,127,240
12,26,127,240
12,26,127,20
12,26,127,120
12,26,127,20
12,31,127,0
12,43,127,240
12,38,127,360
12,39,127,0
12,38,127,0
12,34,127,0
12,33,127,0
12,31,127,0
12,43,127,240
12,38,127,360
12,39,127,0
12,38,127,0
12,34,127,0
12,33,127,0
12,31,127,0
12,43,127,240
12,38,127,360
12,39,127,0
12,38,127,0
12,34,127,0
12,33,127,0
12,31,127,0
12,43,127,240
12,38,127,360
12,39,127,0
12,38,127,0
12,34,127,0
12,33,127,0
12,31,127,0
12,43,127,240
12,38,127,360
12,39,127,0
12,38,127,0
12,34,127,0
12,33,127,0
12,31,127,0
12,43,127,240
12,38,127,360
12,39,127,0
12,38,127,0
12,34,127,0
12,33,127,0
12,31,127,0
12,43,127,240
12,38,127,360
12,39,127,0
12,38,127,0
12,34,127,0
12,33,127,0
12,31,127,0
12,43,127,240
12,38,127,360
12,39,127,0
12,38,127,0
12,34,127,0
12,33,127,0
12,31,123,0
12,43,119,240
12,38,114,360
12,39,113,0
12,38,112,0
12,34,111,0
12,33,109,0
12,31,107,0
12,43,103,240
12,38,98,360
12,39,97,0
12,38,96,0
12,34,95,0
12,33,93,0
12,31,91,0
12,43,87,240
12,38,82,360
12,39,81,0
12,38,80,0
12,34,79,0
12,33,77,0
12,31,75,0
12,43,71,240
12,38,66,360
12,39,65,0
12,38,64,0
12,34,63,0
12,33,61,0
12,43,59,0
12,55,55,240
12,50,50,360
12,51,49,0
12,50,48,0
12,46,47,0
12,45,45,0
12,43,43,0
12,55,39,240
12,50,34,360
12,51,33,0
12,50,32,0
12,46,31,0
12,45,29,0
12,43,27,0
12,55,23,240
12,50,18,360
12,51,17,0
12,50,16,0
12,46,15,0
12,45,13,0
12,43,11,0
12,55,7,240
12,50,2,360
12,51,1,0
12,50,1,0
12,46,1,0
12,45,1,0
12,43,1,0
13,55,127,17280
13,67,127,240
13,62,127,360
13,63,127,0
13,62,127,0
13,58,127,0
13,57,127,0
13,55,127,0
13,67,127,240
13,62,127,360
13,63,127,0
13,62,127,0
13,58,127,0
13,57,127,0
13,55,127,0
13,67,127,240
13,62,127,360
13,63,127,0
13,62,127,0
13,58,127,0
13,57,127,0
13,55,127,0
13,67,127,240
13,62,127,360
13,63,127,0
13,62,127,0
13,58,127,0
13,57,127,0
13,55,127,0
13,67,127,240
13,62,127,360
13,63,127,0
13,58,127,0
13,57,127,0
13,55,127,0
13,67,127,240
13,62,127,360
13,63,127,0
13,58,127,0
13,57,127,0
13,60,127,0
13,60,127,120
13,60,127,120
13,60,127,120
13,60,127,120
13,60,127,120
13,60,127,120
13,62,127,0
13,55,127,240
13,67,127,240
13,62,127,360
13,63,127,0
13,58,127,0
13,57,127,0
13,55,127,0
13,67,127,240
13,62,127,360
13,63,127,0
13,58,127,0
13,57,127,0
13,55,127,0
13,67,127,240
13,62,127,360
13,63,127,0
13,58,127,0
13,57,127,0
13,60,127,0
13,60,127,120
13,60,127,120
13,60,127,120
13,60,127,120
13,60,127,120
13,60,127,120
13,62,127,0
13,55,127,240
13,67,127,240
13,62,127,360
13,63,127,0
13,58,127,0
13,57,127,0
13,41,127,0
13,41,127,240
13,41,127,360
13,41,127,20
13,41,127,20
13,41,127,20
13,43,127,0
13,43,127,240
13,43,127,360
13,43,127,20
13,46,127,0
13,43,127,0
13,41,127,0
13,41,127,240
13,41,127,360
13,41,127,20
13,41,127,360
13,43,127,0
13,43,127,240
13,43,127,360
13,43,127,20
13,46,127,0
13,43,127,0
13,41,127,0
13,41,127,240
13,41,127,360
13,41,127,20
13,41,127,20
13,41,127,20
13,38,127,0
13,38,127,240
13,38,127,240
13,38,127,20
13,38,127,120
13,38,127,20
13,55,127,0
13,67,127,240
13,62,127,360
13,63,127,0
13,62,127,0
13,58,127,0
13,57,127,0
13,55,127,0
13,67,127,240
13,62,127,360
13,63,127,0
13,62,127,0
13,58,127,0
13,57,127,0
13,55,127,0
13,67,127,240
13,62,127,360
13,63,127,0
13,62,127,0
13,58,127,0
13,57,127,0
13,55,127,0
13,67,127,240
13,62,127,360
13,63,127,0
13,62,127,0
13,58,127,0
13,57,127,0
13,55,127,0
13,67,127,240
13,62,127,360
13,63,127,0
13,58,127,0
13,57,127,0
13,55,127,0
13,67,127,240
13,62,127,360
13,63,127,0
13,58,127,0
13,57,127,0
13,60,127,0
13,60,127,120
13,60,127,120
13,60,127,120
13,60,127,120
13,60,127,120
13,60,127,120
13,62,127,0
13,55,127,240
13,67,127,240
13,62,127,360
13,63,127,0
13,58,127,0
13,57,127,0
13,55,127,0
13,67,127,240
13,62,127,360
13,63,127,0
13,58,127,0
13,57,127,0
13,55,127,0
13,67,127,240
13,62,127,360
13,63,127,0
13,58,127,0
13,57,127,0
13,60,127,0
13,60,127,120
13,60,127,120
13,60,127,120
13,60,127,120
13,60,127,120
13,60,127,120
13,62,127,0
13,55,127,240
13,67,127,240
13,62,127,360
13,63,127,0
13,58,127,0
13,57,127,0
13,41,127,0
13,41,127,240
13,41,127,360
13,41,127,20
13,41,127,20
13,41,127,20
13,43,127,0
13,43,127,240
13,43,127,360
13,43,127,20
13,46,127,0
13,43,127,0
13,41,127,0
13,41,127,240
13,41,127,360
13,41,127,20
13,41,127,360
13,43,127,0
13,43,127,240
13,43,127,360
13,43,127,20
13,46,127,0
13,43,127,0
13,41,127,0
13,41,127,240
13,41,127,360
13,41,127,20
13,41,127,20
13,41,127,20
13,38,127,0
13,38,127,240
13,38,127,240
13,38,127,20
13,38,127,120
13,38,127,20
13,55,127,0
13,67,127,240
13,62,127,360
13,63,127,0
