track,note,velocity,time
1,40,120,0
1,40,0,45
1,40,120,15
1,40,0,43
1,40,110,17
1,40,0,42
1,40,110,18
1,40,0,40
1,40,100,20
1,40,0,45
1,40,100,15
1,40,0,43
1,40,100,17
1,40,0,42
1,40,100,18
1,40,0,40
1,40,100,20
1,40,0,45
1,40,100,15
1,40,0,43
1,40,100,17
1,40,0,42
1,40,100,18
1,40,0,40
1,40,100,20
1,40,0,45
1,40,100,15
1,40,0,43
1,40,100,17
1,40,0,42
1,40,100,18
1,40,0,40
1,40,100,20
1,40,0,45
1,40,100,15
1,40,0,43
1,40,100,17
1,40,0,42
1,40,100,18
1,40,0,40
1,40,100,20
1,40,0,45
1,40,100,15
1,40,0,43
1,40,100,17
1,40,0,42
1,40,100,18
1,40,0,40
1,40,100,20
1,40,0,45
1,40,100,15
1,40,0,43
1,40,100,17
1,40,0,42
1,40,100,18
1,40,0,40
1,40,100,20
1,40,0,45
1,40,100,15
1,40,0,43
1,40,100,17
1,40,0,42
1,40,100,18
1,40,0,40
1,40,100,20
1,40,0,45
1,40,100,15
1,40,0,43
1,40,100,17
1,40,0,42
1,40,100,18
1,40,0,40
1,40,100,20
1,40,0,45
1,40,100,15
1,40,0,43
1,40,100,17
1,40,0,42
1,40,100,18
1,40,0,40
1,40,100,20
1,40,0,45
1,40,100,15
1,40,0,43
1,40,100,17
1,40,0,42
1,40,100,18
1,40,0,40
1,40,100,20
1,40,0,45
1,40,100,15
1,40,0,43
1,40,100,17
1,40,0,42
1,40,100,18
1,40,0,40
1,40,100,20
1,40,0,45
1,40,100,15
1,40,0,43
1,40,100,17
1,40,0,42
1,40,100,18
1,40,0,40
1,40,100,20
1,40,0,45
1,40,100,15
1,40,0,43
1,40,100,17
1,40,0,42
1,40,100,18
1,40,0,40
1,40,100,20
1,40,0,45
1,40,100,15
1,40,0,43
1,40,100,17
1,40,0,42
1,40,100,18
1,40,0,40
1,40,100,20
1,40,0,45
1,40,100,15
1,40,0,43
1,40,100,17
1,40,0,42
1,40,100,18
1,40,0,40
1,40,127,20
1,40,0,58
1,40,120,2
1,40,0,43
1,40,120,17
1,40,0,42
1,40,120,18
1,40,0,40
1,40,120,20
1,40,0,45
1,40,120,15
1,40,0,43
1,40,120,17
1,40,0,42
1,40,120,18
1,40,0,40
1,40,120,20
1,40,0,45
1,40,120,15
1,40,0,43
1,40,120,17
1,40,0,42
1,40,120,18
1,40,0,40
1,40,120,20
1,40,0,45
1,40,120,15
1,40,0,43
1,40,120,17
1,40,0,42
1,40,120,18
1,40,0,40
1,40,120,20
1,40,0,45
1,40,120,15
1,40,0,43
1,40,120,17
1,40,0,42
1,40,120,18
1,40,0,40
1,40,120,20
1,40,0,45
1,40,120,15
1,40,0,43
1,40,120,17
1,40,0,42
1,40,120,18
1,40,0,40
1,40,120,20
1,40,0,45
1,40,120,15
1,40,0,43
1,40,120,17
1,40,0,42
1,40,120,18
1,40,0,40
1,40,120,20
1,40,0,45
1,40,120,15
1,40,0,43
1,40,120,17
1,40,0,42
1,40,120,18
1,40,0,40
1,40,120,20
1,40,0,45
1,40,120,15
1,40,0,43
1,40,120,17
1,40,0,42
1,40,120,18
1,40,0,40
1,40,120,20
1,40,0,45
1,40,120,15
1,40,0,43
1,40,120,17
1,40,0,42
1,40,120,18
1,40,0,40
1,40,120,20
1,40,0,45
1,40,120,15
1,40,0,43
1,40,120,17
1,40,0,42
1,40,120,18
1,40,0,40
1,40,120,20
1,40,0,45
1,40,120,15
1,40,0,43
1,40,120,17
1,40,0,42
1,40,120,18
1,40,0,40
1,40,120,20
1,40,0,45
1,40,120,15
1,40,0,43
1,40,120,17
1,40,0,42
1,40,120,18
1,40,0,40
1,40,120,20
1,40,0,45
1,40,120,15
1,40,0,43
1,40,120,17
1,40,0,42
1,40,120,18
1,40,0,40
1,40,120,20
1,40,0,45
1,40,120,15
1,40,0,43
1,40,120,17
1,40,0,42
1,40,120,18
1,40,0,40
1,40,120,20
1,40,0,45
1,40,120,15
1,40,0,43
1,40,120,17
1,40,0,42
1,40,120,18
1,40,0,40
1,40,120,20
1,40,0,45
1,40,120,15
1,40,0,43
1,40,120,17
1,40,0,42
1,40,120,18
1,40,0,40
1,40,120,20
1,40,0,45
1,40,120,15
1,40,0,43
1,40,120,17
1,40,0,42
1,40,120,18
1,40,0,40
1,40,120,20
1,40,0,45
1,40,120,15
1,40,0,43
1,40,120,17
1,40,0,42
1,40,120,18
1,40,0,40
1,40,120,20
1,40,0,45
1,40,120,15
1,40,0,43
1,40,120,17
1,40,0,42
1,40,120,18
1,40,0,40
1,40,120,20
1,40,0,45
1,40,120,15
1,40,0,43
1,40,120,17
1,40,0,42
1,40,120,18
1,40,0,40
1,40,120,20
1,40,0,45
1,40,120,15
1,40,0,43
1,40,120,17
1,40,0,42
1,40,120,18
1,40,0,40
1,40,120,20
1,40,0,45
1,40,120,15
1,40,0,43
1,40,120,17
1,40,0,42
1,40,120,18
1,40,0,40
1,40,120,20
1,40,0,45
1,40,120,15
1,40,0,43
1,40,120,17
1,40,0,42
1,40,120,18
1,40,0,40
1,40,120,20
1,40,0,45
1,40,120,15
1,40,0,43
1,40,120,17
1,40,0,42
1,40,120,18
1,40,0,40
1,40,120,20
1,40,0,45
1,40,120,15
1,40,0,43
1,40,120,17
1,40,0,42
1,40,120,18
1,40,0,40
1,40,120,20
1,40,0,45
1,40,120,15
1,40,0,43
1,40,120,17
1,40,0,42
1,40,120,18
1,40,0,40
1,40,120,20
1,40,0,45
1,40,120,15
1,40,0,43
1,40,120,17
1,40,0,42
1,40,120,18
1,40,0,40
1,40,120,20
1,40,0,45
1,40,120,15
1,40,0,43
1,40,120,17
1,40,0,42
1,40,120,18
1,40,0,40
1,40,120,20
1,40,0,45
1,40,120,15
1,40,0,43
1,40,120,17
1,40,0,42
1,40,120,18
1,40,0,40
1,40,120,20
1,40,0,45
1,40,120,15
1,40,0,43
1,40,120,17
1,40,0,42
1,40,120,18
1,40,0,40
1,40,120,20
1,40,0,45
1,40,120,15
1,40,0,43
1,40,120,17
1,40,0,42
1,40,120,18
1,40,0,40
1,40,120,20
1,40,0,45
1,40,120,15
1,40,0,43
1,40,120,17
1,40,0,42
1,40,120,18
1,40,0,40
1,40,120,20
1,40,0,45
1,40,120,15
1,40,0,43
1,40,120,17
1,40,0,42
1,40,120,18
1,40,0,40
1,40,120,20
1,40,0,45
1,40,120,15
1,40,0,43
1,40,120,17
1,40,0,42
1,40,120,18
1,40,0,40
1,40,120,20
1,40,0,45
1,40,120,15
1,40,0,43
1,40,120,17
1,40,0,42
1,40,120,18
1,40,0,40
1,40,120,20
1,40,0,45
1,40,120,15
1,40,0,43
1,40,120,17
1,40,0,42
1,40,120,18
1,40,0,40
1,40,120,20
1,40,0,45
1,40,120,15
1,40,0,43
1,40,120,17
1,40,0,42
1,40,120,18
1,40,0,40
1,40,120,20
1,40,0,45
1,40,120,15
1,40,0,43
1,40,120,17
1,40,0,42
1,40,120,18
1,40,0,40
1,40,120,20
1,40,0,45
1,40,120,15
1,40,0,43
1,40,120,17
1,40,0,42
1,40,120,18
1,40,0,40
1,40,120,20
1,40,0,45
1,40,120,15
1,40,0,43
1,40,120,17
1,40,0,42
1,40,120,18
1,40,0,40
1,40,120,20
1,40,0,45
1,40,120,15
1,40,0,43
1,40,120,17
1,40,0,42
1,40,120,18
1,40,0,40
1,40,120,20
1,40,0,45
1,40,120,15
1,40,0,43
1,40,120,17
1,40,0,42
1,40,120,18
1,40,0,40
1,40,120,20
1,40,0,45
1,40,120,15
1,40,0,43
1,40,120,17
1,40,0,42
1,40,120,18
1,40,0,40
1,40,120,20
1,40,0,45
1,40,120,15
1,40,0,43
1,40,120,17
1,40,0,42
1,40,120,18
1,40,0,40
1,40,120,20
1,40,0,45
1,40,120,15
1,40,0,43
1,40,120,17
1,40,0,42
1,40,120,18
1,40,0,40
1,40,120,20
1,40,0,45
1,40,120,15
1,40,0,43
1,40,120,17
1,40,0,42
1,40,120,18
1,40,0,40
1,40,120,20
1,40,0,45
1,40,120,15
1,40,0,43
1,40,120,17
1,40,0,42
1,40,120,18
1,40,0,40
1,40,120,20
1,40,0,45
1,40,120,15
1,40,0,43
1,40,120,17
1,40,0,42
1,40,120,18
1,40,0,40
1,40,120,20
1,40,0,45
1,40,120,15
1,40,0,43
1,40,120,17
1,40,0,42
1,40,120,18
1,40,0,40
1,40,120,20
1,40,0,45
1,40,120,15
1,40,0,43
1,40,120,17
1,40,0,42
1,40,120,18
1,40,0,40
1,40,120,20
1,40,0,45
1,40,120,15
1,40,0,43
1,40,120,17
1,40,0,42
1,40,120,18
1,40,0,40
1,40,120,20
1,40,0,45
1,40,120,15
1,40,0,43
1,40,120,17
1,40,0,42
1,40,120,18
1,40,0,40
1,40,120,20
1,40,0,45
1,40,120,15
1,40,0,43
1,40,120,17
1,40,0,42
1,40,120,18
1,40,0,40
1,40,120,20
1,40,0,45
1,40,120,15
1,40,0,43
1,40,120,17
1,40,0,42
1,40,120,18
1,40,0,40
1,40,120,20
1,40,0,45
1,40,120,15
1,40,0,43
1,40,120,17
1,40,0,42
1,40,120,18
1,40,0,40
1,40,120,20
1,40,0,45
1,40,120,15
1,40,0,43
1,40,120,17
1,40,0,42
1,40,120,18
1,40,0,40
1,40,120,20
1,40,0,45
1,40,120,15
1,40,0,43
1,40,120,17
1,40,0,42
1,40,120,18
1,40,0,40
1,40,120,20
1,40,0,45
1,40,120,15
1,40,0,43
1,40,120,17
1,40,0,42
1,40,120,18
1,40,0,40
1,40,120,20
1,40,0,45
1,40,120,15
1,40,0,43
1,40,120,17
1,40,0,42
1,40,120,18
1,40,0,40
1,40,120,20
1,40,0,45
1,40,120,15
1,40,0,43
1,40,120,17
1,40,0,42
1,40,120,18
1,40,0,40
1,40,120,20
1,40,0,45
1,40,120,15
1,40,0,43
1,40,120,17
1,40,0,42
1,40,120,18
1,40,0,40
1,40,120,20
1,40,0,45
1,40,120,15
1,40,0,43
1,40,120,17
1,40,0,42
1,40,120,18
1,40,0,40
1,40,120,20
1,40,0,45
1,40,120,15
1,40,0,43
1,40,120,17
1,40,0,42
1,40,120,18
1,40,0,40
1,40,120,20
1,40,0,45
1,40,120,15
1,40,0,43
1,40,120,17
1,40,0,42
1,40,120,18
1,40,0,40
1,40,120,20
1,40,0,45
1,40,120,15
1,40,0,43
1,40,120,17
1,40,0,42
1,40,120,18
1,40,0,40
1,40,120,20
1,40,0,45
1,40,120,15
1,40,0,43
1,40,120,17
1,40,0,42
1,40,120,18
1,40,0,40
1,40,120,20
1,40,0,45
1,40,120,15
1,40,0,43
1,40,120,17
1,40,0,42
1,40,120,18
1,40,0,40
1,40,120,20
1,40,0,45
1,40,120,15
1,40,0,43
1,40,120,17
1,40,0,42
1,40,120,18
1,40,0,40
1,40,120,20
1,40,0,45
1,40,120,15
1,40,0,43
1,40,120,17
1,40,0,42
1,40,120,18
1,40,0,40
1,40,120,20
1,40,0,45
1,40,120,15
1,40,0,43
1,40,120,17
1,40,0,42
1,40,120,18
1,40,0,40
1,40,120,20
1,40,0,45
1,40,120,15
1,40,0,43
1,40,120,17
1,40,0,42
1,40,120,18
1,40,0,40
1,40,120,20
1,40,0,45
1,40,120,15
1,40,0,43
1,40,120,17
1,40,0,42
1,40,120,18
1,40,0,40
1,40,120,20
1,40,0,45
1,40,120,15
1,40,0,43
1,40,120,17
1,40,0,42
1,40,120,18
1,40,0,40
1,40,120,20
1,40,0,45
1,40,120,15
1,40,0,43
1,40,120,17
1,40,0,42
1,40,120,18
1,40,0,40
1,40,120,20
1,40,0,45
1,40,120,15
1,40,0,43
1,40,120,17
1,40,0,42
1,40,120,18
1,40,0,40
1,40,120,20
1,40,0,45
1,40,120,15
1,40,0,43
1,40,120,17
1,40,0,42
1,40,120,18
1,40,0,40
1,40,120,20
1,40,0,45
1,40,120,15
1,40,0,43
1,40,120,17
1,40,0,42
1,40,120,18
1,40,0,40
1,40,120,20
1,40,0,45
1,40,120,15
1,40,0,43
1,40,120,17
1,40,0,42
1,40,120,18
1,40,0,40
1,40,120,20
1,40,0,45
1,40,120,15
1,40,0,43
1,40,120,17
1,40,0,42
1,40,120,18
1,40,0,40
1,40,120,20
1,40,0,45
1,40,120,15
1,40,0,43
1,40,120,17
1,40,0,42
1,40,120,18
1,40,0,40
1,40,120,20
1,40,0,45
1,40,120,15
1,40,0,43
1,40,120,17
1,40,0,42
1,40,120,18
1,40,0,40
1,40,120,20
1,40,0,45
1,40,120,15
1,40,0,43
1,40,120,17
1,40,0,42
1,40,120,18
1,40,0,40
1,40,120,20
1,40,0,45
1,40,120,15
1,40,0,43
1,40,120,17
1,40,0,42
1,40,120,18
1,40,0,40
1,40,120,20
1,40,0,45
1,40,120,15
1,40,0,43
1,40,120,17
1,40,0,42
1,40,120,18
1,40,0,40
1,40,120,20
1,40,0,45
1,40,120,15
1,40,0,43
1,40,120,17
1,40,0,42
1,40,120,18
1,40,0,40
1,40,120,20
1,40,0,45
1,40,120,15
1,40,0,43
1,40,120,17
1,40,0,42
1,40,120,18
1,40,0,40
1,40,120,20
1,40,0,45
1,40,120,15
1,40,0,43
1,40,120,17
1,40,0,42
1,40,120,18
1,40,0,40
1,40,110,20
1,40,0,211
1,40,110,29
1,40,0,214
1,40,110,26
1,40,0,176
1,40,110,64
1,40,0,203
1,40,110,37
1,40,0,186
1,40,110,54
1,40,0,182
1,40,110,58
1,40,0,179
1,40,110,61
1,40,0,146
1,40,110,94
1,40,0,211
1,40,110,29
1,40,0,214
1,40,110,26
1,40,0,176
1,40,110,64
1,40,0,203
1,40,110,37
1,40,0,186
1,40,110,54
1,40,0,182
1,40,110,58
1,40,0,179
1,40,110,61
1,40,0,146
1,40,32,574
1,40,0,36
1,40,29,24
1,40,0,42
1,40,36,18
1,40,0,37
1,40,54,23
1,40,0,45
1,40,26,15
1,40,0,43
1,40,43,17
1,40,0,37
1,40,48,23
1,40,0,35
1,40,60,25
1,40,0,38
1,40,63,22
1,40,0,35
1,40,74,25
1,40,0,33
1,40,82,27
1,40,0,32
1,40,82,28
1,40,0,32
1,40,101,28
1,40,0,33
1,40,101,27
1,40,0,32
1,40,116,28
1,40,0,32
1,40,108,28
1,40,0,30
1,40,124,30
1,40,0,33
1,40,124,27
1,40,0,27
1,40,127,33
1,40,0,28
1,40,124,32
1,40,0,26
1,40,124,34
1,40,0,28
1,40,116,32
1,40,0,33
1,40,124,27
1,40,0,29
1,40,127,31
1,40,0,41
1,45,70,19
1,45,0,29
1,45,70,31
1,45,0,33
1,45,70,27
1,45,0,32
1,45,70,28
1,45,0,33
1,45,70,27
1,45,0,31
1,45,70,29
1,45,0,29
1,45,70,31
1,45,0,31
1,45,70,29
1,45,0,34
1,45,70,26
1,45,0,29
1,45,70,31
1,45,0,26
1,45,70,34
1,45,0,26
1,45,70,34
1,45,0,32
1,45,70,28
1,45,0,31
1,45,70,29
1,45,0,28
1,45,70,32
1,45,0,25
1,45,70,35
1,45,0,29
1,43,70,31
1,43,0,29
1,43,70,31
1,43,0,31
1,43,70,29
1,43,0,27
1,43,70,33
1,43,0,26
1,43,70,34
1,43,0,32
1,43,70,28
1,43,0,28
1,43,70,32
1,43,0,24
1,43,70,36
1,43,0,35
1,42,70,25
1,42,0,35
1,42,70,25
1,42,0,41
1,42,70,19
1,42,0,41
1,42,70,19
1,42,0,35
1,42,70,25
1,42,0,31
1,42,70,29
1,42,0,33
1,42,70,27
1,42,0,26
1,42,70,34
1,42,0,29
1,40,5,2911
1,40,0,45
1,40,10,15
1,40,0,43
1,40,15,17
1,40,0,42
1,40,20,18
1,40,0,40
1,40,25,20
1,40,0,45
1,40,30,15
1,40,0,43
1,40,35,17
1,40,0,42
1,40,40,18
1,40,0,40
1,40,45,20
1,40,0,45
1,40,50,15
1,40,0,43
1,40,55,17
1,40,0,42
1,40,60,18
1,40,0,40
