track,note,velocity,time
1,40,88,8
1,40,0,21
1,40,88,33
1,40,0,26
1,40,88,33
1,40,0,29
1,40,88,30
1,40,0,30
1,40,88,32
1,40,0,27
1,40,88,32
1,40,0,27
1,40,88,33
1,40,0,29
1,40,88,30
1,40,0,29
1,40,88,33
1,40,0,27
1,40,88,29
1,40,0,33
1,40,88,29
1,40,0,30
1,40,88,30
1,40,0,29
1,40,88,33
1,40,0,26
1,40,88,33
1,40,0,30
1,40,88,29
1,40,0,30
1,40,88,32
1,40,0,27
1,40,88,33
1,40,0,26
1,40,88,33
1,40,0,29
1,40,88,30
1,40,0,30
1,40,88,32
1,40,0,27
1,40,88,32
1,40,0,27
1,40,88,32
1,40,0,27
1,40,88,33
1,40,0,29
1,40,88,33
1,40,0,26
1,40,88,33
1,40,0,30
1,40,88,29
1,40,0,30
1,40,88,32
1,40,0,27
1,40,88,33
1,40,0,26
1,40,88,33
1,40,0,29
1,40,88,30
1,40,0,30
1,40,88,32
1,40,0,27
1,40,88,32
1,40,0,27
1,40,88,33
1,40,0,29
1,40,88,30
1,40,0,29
1,40,88,33
1,40,0,27
1,40,88,29
1,40,0,30
1,40,88,32
1,40,0,30
1,40,88,30
1,40,0,29
1,40,88,33
1,40,0,26
1,40,88,33
1,40,0,29
1,36,88,30
1,36,0,30
1,36,88,29
1,36,0,30
1,36,88,32
1,36,0,27
1,36,88,33
1,36,0,29
1,36,88,30
1,36,0,29
1,36,88,30
1,36,0,30
1,36,88,32
1,36,0,27
1,36,88,32
1,36,0,30
1,38,88,30
1,38,0,29
1,38,88,33
1,38,0,26
1,38,88,33
1,38,0,27
1,38,88,32
1,38,0,30
1,38,88,29
1,38,0,30
1,38,88,33
1,38,0,26
1,38,88,30
1,38,0,32
1,38,88,30
1,38,0,30
1,40,88,32
1,40,0,27
1,40,88,32
1,40,0,27
1,40,88,32
1,40,0,30
1,40,88,30
1,40,0,29
1,40,88,33
1,40,0,26
1,40,88,33
1,40,0,27
1,40,88,32
1,40,0,30
1,40,88,29
1,40,0,30
1,40,88,33
1,40,0,26
1,40,88,30
1,40,0,29
1,40,88,33
1,40,0,30
1,40,88,29
1,40,0,30
1,40,88,32
1,40,0,27
1,40,88,33
1,40,0,26
1,40,88,33
1,40,0,29
1,40,88,30
1,40,0,30
1,36,88,29
1,36,0,30
1,36,88,32
1,36,0,30
1,36,88,30
1,36,0,29
1,36,88,33
1,36,0,26
1,36,88,33
1,36,0,27
1,36,88,32
1,36,0,30
1,36,88,29
1,36,0,30
1,36,88,32
1,36,0,27
1,38,88,33
1,38,0,26
1,38,88,33
1,38,0,29
1,38,88,30
1,38,0,30
1,38,88,32
1,38,0,27
1,38,88,32
1,38,0,27
1,38,88,33
1,38,0,29
1,38,88,33
1,38,0,26
1,38,88,33
1,38,0,27
1,40,88,32
1,40,0,30
1,40,88,29
1,40,0,30
1,40,88,33
1,40,0,26
1,40,88,33
1,40,0,26
1,40,88,33
1,40,0,30
1,40,88,29
1,40,0,30
1,40,88,32
1,40,0,27
1,40,88,30
1,40,0,29
1,40,88,33
1,40,0,29
1,40,88,30
1,40,0,29
1,40,88,33
1,40,0,27
1,40,88,29
1,40,0,30
1,40,88,32
1,40,0,30
1,40,88,30
1,40,0,29
1,40,88,33
1,40,0,26
1,40,88,33
1,40,0,30
1,36,88,29
1,36,0,30
1,36,88,29
1,36,0,30
1,36,88,33
1,36,0,26
1,36,88,33
1,36,0,29
1,36,88,30
1,36,0,30
1,36,88,32
1,36,0,27
1,36,88,29
1,36,0,30
1,36,88,33
1,36,0,29
1,38,88,33
1,38,0,26
1,38,88,33
1,38,0,27
1,38,88,32
1,38,0,27
1,38,88,32
1,38,0,30
1,38,88,32
1,38,0,27
1,38,88,33
1,38,0,26
1,38,88,33
1,38,0,29
1,38,88,30
1,38,0,30
1,40,88,32
1,40,0,27
1,40,88,32
1,40,0,27
1,40,88,33
1,40,0,29
1,40,88,30
1,40,0,29
1,40,88,33
1,40,0,27
1,40,88,29
1,40,0,30
1,40,88,32
1,40,0,30
1,40,88,30
1,40,0,29
1,40,88,33
1,40,0,26
1,40,88,33
1,40,0,27
1,40,88,32
1,40,0,30
1,40,88,29
1,40,0,30
1,40,88,32
1,40,0,27
1,40,88,33
1,40,0,29
1,40,88,30
1,40,0,29
1,40,88,30
1,40,0,30
1,36,88,32
1,36,0,27
1,36,88,32
1,36,0,30
1,36,88,30
1,36,0,29
1,36,88,33
1,36,0,26
1,36,88,30
1,36,0,30
1,36,88,32
1,36,0,27
1,36,88,32
1,36,0,30
1,36,88,33
1,36,0,26
1,38,88,33
1,38,0,26
1,38,88,33
1,38,0,30
1,38,88,32
1,38,0,27
1,38,88,32
1,38,0,27
1,38,88,33
1,38,0,29
1,38,88,30
1,38,0,29
1,38,88,33
1,38,0,27
1,38,88,32
1,38,0,27
1,40,88,32
1,40,0,30
1,40,88,29
1,40,0,30
1,40,88,33
1,40,0,26
1,40,88,30
1,40,0,29
1,40,88,33
1,40,0,27
1,40,88,32
1,40,0,30
1,40,88,32
1,40,0,27
1,40,88,33
1,40,0,26
1,40,88,36
1,40,0,26
1,40,88,30
1,40,0,30
1,40,88,32
1,40,0,27
1,40,88,32
1,40,0,30
1,43,88,30
1,43,0,29
1,43,88,30
1,43,0,29
1,43,88,33
1,43,0,27
1,43,88,32
1,43,0,30
1,45,88,32
1,45,0,27
1,45,88,32
1,45,0,27
1,45,88,30
1,45,0,29
1,45,88,33
1,45,0,27
1,46,88,32
1,46,0,30
1,46,88,32
1,46,0,27
1,46,88,32
1,46,0,27
1,46,88,33
1,46,0,29
1,45,88,33
1,45,0,26
1,45,88,33
1,45,0,27
1,45,88,32
1,45,0,30
1,45,88,29
1,45,0,30
1,45,88,33
1,45,0,26
1,45,88,33
1,45,0,26
1,45,88,33
1,45,0,30
1,45,88,29
1,45,0,30
1,43,88,32
1,43,0,27
1,43,88,33
1,43,0,26
1,43,88,33
1,43,0,26
1,43,88,33
1,43,0,30
1,43,88,32
1,43,0,27
1,43,88,32
1,43,0,27
1,43,88,32
1,43,0,30
1,43,88,33
1,43,0,26
1,40,88,33
1,40,0,26
1,40,88,33
1,40,0,30
1,40,88,29
1,40,0,30
1,40,88,32
1,40,0,27
1,43,88,33
1,43,0,26
1,43,88,33
1,43,0,29
1,43,88,30
1,43,0,30
1,43,88,32
1,43,0,27
1,45,88,32
1,45,0,27
1,45,88,33
1,45,0,26
1,45,88,33
1,45,0,29
1,45,88,33
1,45,0,27
1,46,88,32
1,46,0,27
1,46,88,32
1,46,0,30
1,46,88,30
1,46,0,29
1,46,88,33
1,46,0,26
1,45,88,33
1,45,0,29
1,45,88,30
1,45,0,30
1,45,88,32
1,45,0,27
1,45,88,32
1,45,0,27
1,45,88,33
1,45,0,29
1,45,88,30
1,45,0,29
1,45,88,33
1,45,0,27
1,45,88,29
1,45,0,30
1,43,88,32
1,43,0,27
1,43,88,33
1,43,0,29
1,43,88,33
1,43,0,26
1,43,88,30
1,43,0,30
1,43,88,32
1,43,0,30
1,43,88,29
1,43,0,30
1,43,88,33
1,43,0,26
1,43,88,33
1,43,0,29
1,40,88,30
1,40,0,30
1,40,88,32
1,40,0,27
1,40,88,32
1,40,0,27
1,40,88,32
1,40,0,30
1,40,88,30
1,40,0,29
1,40,88,33
1,40,0,26
1,40,88,30
1,40,0,30
1,40,88,32
1,40,0,27
1,40,88,35
1,40,0,27
1,40,88,33
1,40,0,26
1,40,88,33
1,40,0,26
1,40,88,33
1,40,0,30
1,40,88,32
1,40,0,27
1,40,88,32
1,40,0,27
1,40,88,33
1,40,0,29
1,40,88,30
1,40,0,29
1,40,88,33
1,40,0,27
1,40,88,32
1,40,0,27
1,40,88,32
1,40,0,30
1,40,88,30
1,40,0,29
1,40,88,33
1,40,0,26
1,40,88,33
1,40,0,27
1,40,88,32
1,40,0,27
1,40,88,32
1,40,0,30
1,40,88,32
1,40,0,27
1,40,88,30
1,40,0,29
1,40,88,33
1,40,0,29
1,40,88,30
1,40,0,30
1,40,88,32
1,40,0,27
1,40,88,32
1,40,0,30
1,40,88,30
1,40,0,29
1,40,88,30
1,40,0,29
1,40,88,33
1,40,0,27
1,40,88,32
1,40,0,30
1,40,88,29
1,40,0,30
1,40,88,33
1,40,0,26
1,40,88,33
1,40,0,26
1,40,88,33
1,40,0,27
1,40,88,32
1,40,0,30
1,40,88,32
1,40,0,27
1,40,88,32
1,40,0,27
1,40,88,33
1,40,0,29
1,40,88,30
1,40,0,29
1,40,88,33
1,40,0,27
1,40,88,32
1,40,0,30
1,40,88,29
1,40,0,30
1,40,88,33
1,40,0,26
1,40,88,33
1,40,0,26
1,40,88,33
1,40,0,30
1,40,88,29
1,40,0,30
1,40,88,32
1,40,0,27
1,40,88,33
1,40,0,26
1,40,88,33
1,40,0,26
1,40,88,33
1,40,0,30
1,40,88,32
1,40,0,27
1,40,88,29
1,40,0,30
1,40,88,33
1,40,0,29
1,40,88,30
1,40,0,29
1,40,88,33
1,40,0,27
1,40,88,32
1,40,0,30
1,40,88,29
1,40,0,30
1,40,88,29
1,40,0,30
1,40,88,33
1,40,0,26
1,40,88,33
1,40,0,29
1,40,88,30
1,40,0,30
1,40,88,32
1,40,0,27
1,40,88,32
1,40,0,27
1,40,88,33
1,40,0,29
1,40,88,30
1,40,0,29
1,40,88,33
1,40,0,27
1,40,88,29
1,40,0,30
1,40,88,32
1,40,0,30
1,40,88,33
1,40,0,26
1,40,88,33
1,40,0,26
1,40,88,33
1,40,0,30
1,40,88,29
1,40,0,30
1,40,88,32
1,40,0,27
1,40,88,32
1,40,0,27
1,40,88,33
1,40,0,29
1,40,88,30
1,40,0,29
1,40,88,33
1,40,0,27
1,40,88,32
1,40,0,27
1,40,88,32
1,40,0,30
1,40,88,30
1,40,0,29
1,40,88,33
1,40,0,26
1,40,88,33
1,40,0,27
1,40,88,32
1,40,0,30
1,40,88,29
1,40,0,30
1,36,88,33
1,36,0,26
1,36,88,33
1,36,0,29
1,36,88,30
1,36,0,30
1,36,88,32
1,36,0,27
1,36,88,32
1,36,0,27
1,36,88,33
1,36,0,29
1,36,88,36
1,36,0,23
1,36,88,33
1,36,0,27
1,38,88,32
1,38,0,27
1,38,88,32
1,38,0,30
1,38,88,35
1,38,0,24
1,38,88,33
1,38,0,26
1,38,88,30
1,38,0,29
1,38,88,33
1,38,0,30
1,38,88,32
1,38,0,27
1,38,88,32
1,38,0,27
1,40,88,33
1,40,0,29
1,40,88,30
1,40,0,29
1,40,88,33
1,40,0,27
1,40,88,32
1,40,0,27
1,40,88,32
1,40,0,30
1,40,88,30
1,40,0,29
1,40,88,33
1,40,0,26
1,40,88,33
1,40,0,27
1,40,88,32
1,40,0,30
1,40,88,29
1,40,0,30
1,40,88,32
1,40,0,27
1,40,88,33
1,40,0,26
1,40,88,33
1,40,0,29
1,40,88,30
1,40,0,30
1,40,88,32
1,40,0,27
1,40,88,32
1,40,0,30
1,36,88,30
1,36,0,29
1,36,88,30
1,36,0,29
1,36,88,33
1,36,0,27
1,36,88,32
1,36,0,30
1,36,88,29
1,36,0,30
1,36,88,33
1,36,0,26
1,36,88,33
1,36,0,26
1,36,88,33
1,36,0,27
1,38,88,35
1,38,0,27
1,38,88,32
1,38,0,27
1,38,88,30
1,38,0,29
1,38,88,33
1,38,0,29
1,38,88,33
1,38,0,27
1,38,88,32
1,38,0,27
1,38,88,32
1,38,0,30
1,38,88,29
1,38,0,30
1,40,88,33
1,40,0,26
1,40,88,33
1,40,0,26
1,40,88,33
1,40,0,30
1,40,88,29
1,40,0,30
1,40,88,32
1,40,0,27
1,40,88,33
1,40,0,26
1,40,88,33
1,40,0,26
1,40,88,33
1,40,0,30
1,40,88,32
1,40,0,27
1,40,88,32
1,40,0,27
1,40,88,33
1,40,0,26
1,40,88,33
1,40,0,29
1,40,88,33
1,40,0,27
1,40,88,32
1,40,0,30
1,40,88,29
1,40,0,30
1,40,88,32
1,40,0,27
1,36,88,33
1,36,0,26
1,36,88,33
1,36,0,29
1,36,88,33
1,36,0,27
1,36,88,32
1,36,0,27
1,36,88,32
1,36,0,27
1,36,88,33
1,36,0,26
1,36,88,36
1,36,0,26
1,36,88,33
1,36,0,27
1,38,88,32
1,38,0,27
1,38,88,32
1,38,0,30
1,38,88,33
1,38,0,26
1,38,88,33
1,38,0,26
1,38,88,33
1,38,0,30
1,38,88,29
1,38,0,30
1,38,88,32
1,38,0,27
1,38,88,33
1,38,0,26
1,40,88,33
1,40,0,29
1,40,88,30
1,40,0,30
1,40,88,32
1,40,0,27
1,40,88,32
1,40,0,27
1,40,88,32
1,40,0,30
1,40,88,30
1,40,0,29
1,40,88,33
1,40,0,26
1,40,88,33
1,40,0,27
1,40,88,32
1,40,0,30
1,40,88,29
1,40,0,30
1,40,88,33
1,40,0,26
1,40,88,33
1,40,0,29
1,40,88,30
1,40,0,27
1,40,88,35
1,40,0,27
1,40,88,32
1,40,0,27
1,40,88,33
1,40,0,29
1,36,88,33
1,36,0,26
1,36,88,33
1,36,0,27
1,36,88,32
1,36,0,27
1,36,88,32
1,36,0,30
1,36,88,32
1,36,0,27
1,36,88,33
1,36,0,26
1,36,88,33
1,36,0,27
1,36,88,32
1,36,0,30
1,38,88,32
1,38,0,27
1,38,88,32
1,38,0,27
1,38,88,33
1,38,0,29
1,38,88,30
1,38,0,29
1,38,88,33
1,38,0,27
1,38,88,32
1,38,0,27
1,38,88,32
1,38,0,30
1,38,88,30
1,38,0,29
1,40,88,33
1,40,0,26
1,40,88,33
1,40,0,27
1,40,88,32
1,40,0,30
1,40,88,29
1,40,0,30
1,40,88,33
1,40,0,26
1,40,88,33
1,40,0,26
1,40,88,33
1,40,0,30
1,40,88,29
1,40,0,30
1,40,88,32
1,40,0,27
1,40,88,32
1,40,0,30
1,40,88,30
1,40,0,29
1,40,88,33
1,40,0,26
1,43,88,33
1,43,0,27
1,43,88,32
1,43,0,30
1,43,88,29
1,43,0,30
1,43,88,33
1,43,0,26
1,45,88,33
1,45,0,26
1,45,88,33
1,45,0,30
1,45,88,29
1,45,0,30
1,45,88,32
1,45,0,27
1,46,88,33
1,46,0,26
1,46,88,33
1,46,0,29
1,46,88,33
1,46,0,27
1,46,88,32
1,46,0,27
1,45,88,32
1,45,0,30
1,45,88,30
1,45,0,29
1,45,88,33
1,45,0,26
1,45,88,33
1,45,0,27
1,45,88,32
1,45,0,30
1,45,88,29
1,45,0,30
1,45,88,32
1,45,0,27
1,45,88,33
1,45,0,26
1,43,88,33
1,43,0,29
1,43,88,30
1,43,0,30
1,43,88,32
1,43,0,27
1,43,88,29
1,43,0,30
1,43,88,33
1,43,0,29
1,43,88,30
1,43,0,29
1,43,88,33
1,43,0,27
1,43,88,32
1,43,0,30
1,40,88,35
1,40,0,24
1,40,88,30
1,40,0,29
1,40,88,33
1,40,0,26
1,40,88,33
1,40,0,30
1,43,88,29
1,43,0,30
1,43,88,29
1,43,0,30
1,43,88,32
1,43,0,27
1,43,88,33
1,43,0,29
1,45,88,33
1,45,0,26
1,45,88,33
1,45,0,27
1,45,88,32
1,45,0,27
1,45,88,32
1,45,0,27
1,46,88,33
1,46,0,29
1,46,88,33
1,46,0,26
1,46,88,33
1,46,0,27
1,46,88,32
1,46,0,30
1,45,88,32
1,45,0,27
1,45,88,33
1,45,0,26
1,45,88,33
1,45,0,29
1,45,88,30
1,45,0,30
1,45,88,32
1,45,0,27
1,45,88,32
1,45,0,27
1,45,88,33
1,45,0,29
1,45,88,30
1,45,0,29
1,43,88,33
1,43,0,27
1,43,88,29
1,43,0,30
1,43,88,32
1,43,0,30
1,43,88,29
1,43,0,30
1,43,88,33
1,43,0,26
1,43,88,33
1,43,0,26
1,43,88,33
1,43,0,30
1,43,88,32
1,43,0,27
1,40,88,29
1,40,0,30
1,40,88,33
1,40,0,29
1,40,88,30
1,40,0,29
1,40,88,30
1,40,0,30
