track,note,velocity,time
10,67,127,3840
10,73,127,0
10,67,127,0
10,73,127,0
10,67,127,0
10,73,127,0
10,67,127,0
10,73,127,0
11,69,127,11520
11,69,127,120
11,71,127,120
11,73,127,120
11,71,127,120
11,69,127,120
11,71,127,120
11,73,127,120
11,69,127,360
11,71,127,120
11,73,127,120
11,71,127,120
11,69,127,120
11,71,127,120
11,69,127,120
11,69,127,360
11,71,127,120
11,69,127,120
11,71,127,120
11,69,127,120
11,71,127,120
11,69,127,120
11,69,127,360
11,71,127,120
11,69,127,120
11,71,127,120
11,69,127,120
11,71,127,120
11,69,127,120
11,69,127,360
11,71,127,20
11,73,127,20
11,71,127,20
11,69,127,20
11,71,127,20
11,73,127,20
11,69,127,260
11,71,127,20
11,73,127,20
11,71,127,20
11,69,127,20
11,71,127,20
11,69,127,20
11,69,127,260
11,71,127,20
11,69,127,20
11,71,127,20
11,69,127,20
11,71,127,20
11,69,127,20
11,69,127,260
11,71,127,20
11,69,127,20
11,71,127,20
11,69,127,20
11,71,127,20
11,69,127,20
11,69,127,28820
11,69,127,20
11,71,127,20
11,73,127,20
11,71,127,20
11,69,127,20
11,71,127,20
11,73,127,20
11,69,127,260
11,71,127,20
11,73,127,20
11,71,127,20
11,69,127,20
11,71,127,20
11,69,127,20
11,69,127,260
11,71,127,20
11,69,127,20
11,71,127,20
11,69,127,20
11,71,127,20
11,69,127,20
11,69,127,260
11,71,127,20
11,69,127,20
11,71,127,20
11,69,127,20
11,71,127,20
11,69,127,20
11,69,127,260
11,71,127,20
11,73,127,20
11,71,127,20
11,69,127,20
11,71,127,20
11,73,127,20
11,69,127,260
11,71,127,20
11,73,127,20
11,71,127,20
11,69,127,20
11,71,127,20
11,69,127,20
11,69,127,260
11,71,127,20
11,69,127,20
11,71,127,20
11,69,127,20
11,71,127,20
11,69,127,20
11,69,127,260
11,71,127,20
11,69,127,20
11,71,127,20
11,69,127,20
11,71,127,20
11,69,127,20
11,69,127,28820
11,69,127,20
11,71,127,20
11,73,127,20
11,71,127,20
11,69,127,20
11,71,127,20
11,73,127,20
11,69,127,260
11,71,127,20
11,73,127,20
11,71,127,20
11,69,127,20
11,71,127,20
11,69,127,20
11,69,127,260
11,71,127,20
11,69,127,20
11,71,127,20
11,69,127,20
11,71,127,20
11,69,127,20
11,69,127,260
11,71,127,20
11,69,127,20
11,71,127,20
11,69,127,20
11,71,127,20
11,69,127,20
11,69,127,260
11,71,127,20
11,73,127,20
11,71,127,20
11,69,127,20
11,71,127,20
11,73,127,20
11,69,127,260
11,71,127,20
11,73,127,20
11,71,127,20
11,69,127,20
11,71,127,20
11,69,127,20
11,69,127,260
11,71,127,20
11,69,127,20
11,71,127,20
11,69,127,20
11,71,127,20
11,69,127,20
11,69,127,260
11,71,127,20
11,69,127,20
11,71,127,20
11,69,127,20
11,71,127,20
11,69,127,19460
11,69,127,20
11,71,127,20
11,73,127,20
11,71,127,20
11,69,127,20
11,71,127,20
11,73,127,20
11,69,127,260
11,71,127,20
11,73,127,20
11,71,127,20
11,69,127,20
11,71,127,20
11,69,127,20
11,69,127,260
11,71,127,20
11,69,127,20
11,71,127,20
11,69,127,20
11,71,127,20
11,69,127,20
11,69,127,260
11,71,127,20
11,69,127,20
11,71,127,20
11,69,127,20
11,71,127,20
11,69,127,20
11,69,127,260
11,71,127,20
11,73,127,20
11,71,127,20
11,69,127,20
11,71,127,20
11,73,127,20
11,69,127,260
11,71,127,20
11,73,127,20
11,71,127,20
11,69,127,20
11,71,127,20
11,69,127,20
11,69,127,260
11,71,127,20
11,69,127,20
11,71,127,20
11,69,127,20
11,71,127,20
11,69,127,20
11,69,127,260
11,71,127,20
11,69,127,20
11,71,127,20
11,69,127,20
11,71,127,20
11,69,127,20
11,69,127,28820
11,69,127,20
11,71,127,20
11,73,127,20
11,71,127,20
11,69,127,20
11,71,127,20
11,73,127,20
11,69,127,260
11,71,127,20
11,73,127,20
11,71,127,20
11,69,127,20
11,71,127,20
11,69,127,20
11,69,127,260
11,71,127,20
11,69,127,20
11,71,127,20
11,69,127,20
11,71,127,20
11,69,127,20
11,69,127,260
11,71,127,20
11,69,127,20
11,71,127,20
11,69,127,20
11,71,127,20
11,69,127,20
11,69,127,260
11,71,127,20
11,73,127,20
11,71,127,20
11,69,127,20
11,71,127,20
11,73,127,20
11,69,127,260
11,71,127,20
11,73,127,20
11,71,127,20
11,69,127,20
11,71,127,20
11,69,127,20
11,69,127,260
11,71,127,20
11,69,127,20
11,71,127,20
11,69,127,20
11,71,127,20
11,69,127,20
11,69,127,260
11,71,127,20
11,69,127,20
11,71,127,20
11,69,127,20
11,71,127,20
11,69,127,20
11,69,127,260
11,71,127,20
11,73,127,20
11,71,127,20
11,69,127,20
11,71,127,20
11,73,127,20
11,69,127,260
11,71,127,20
11,73,127,20
11,71,127,20
11,69,127,20
11,71,127,20
11,69,127,20
11,69,127,260
11,71,127,20
11,69,127,20
11,71,127,20
11,69,127,20
11,71,127,20
11,69,127,20
11,69,127,260
11,71,127,20
11,69,127,20
11,71,127,20
11,69,127,20
11,71,127,20
11,69,127,20
11,69,127,260
11,71,127,20
11,73,127,20
11,71,127,20
11,69,127,20
11,71,127,20
11,73,127,20
11,69,127,260
11,71,127,20
11,73,127,20
11,71,127,20
11,69,127,20
11,71,127,20
11,69,127,20
11,69,127,260
11,71,127,20
11,69,127,20
11,71,127,20
11,69,127,20
11,71,127,20
11,69,127,20
11,69,127,260
11,71,127,20
11,69,127,20
11,71,127,20
11,69,127,20
11,71,127,20
11,69,127,20
11,69,127,260
11,71,127,20
11,73,127,20
11,71,127,20
11,69,127,20
11,71,127,20
11,73,127,20
11,69,127,260
11,71,127,20
11,73,127,20
11,71,127,20
11,69,127,20
11,71,127,20
11,69,127,20
11,69,127,260
11,71,127,20
11,69,127,20
11,71,127,20
11,69,127,20
11,71,127,20
11,69,127,20
11,69,127,260
11,71,127,20
11,69,127,20
11,71,127,20
11,69,127,20
11,71,127,20
11,69,127,20
11,69,123,260
11,71,122,20
11,73,120,20
11,71,118,20
11,69,116,20
11,71,115,20
11,73,113,20
11,69,109,260
11,71,108,20
11,73,106,20
11,71,104,20
11,69,102,20
11,71,101,20
11,69,99,20
11,69,95,260
11,71,93,20
11,69,92,20
11,71,90,20
11,69,88,20
11,71,86,20
11,69,85,20
11,69,81,260
11,71,79,20
11,69,78,20
11,71,76,20
11,69,74,20
11,71,72,20
11,69,71,20
11,69,67,260
11,71,65,20
11,73,64,20
11,71,62,20
11,69,60,20
11,71,58,20
11,73,56,20
11,69,53,260
11,71,51,20
11,73,49,20
11,71,48,20
11,69,46,20
11,71,44,20
11,69,42,20
11,69,39,260
11,71,37,20
11,69,35,20
11,71,34,20
11,69,32,20
11,71,30,20
11,69,28,20
11,69,25,260
11,71,23,20
11,69,21,20
11,71,19,20
11,69,18,20
11,71,16,20
11,69,14,20
11,69,12,260
11,71,11,20
11,73,9,20
11,71,7,20
11,69,5,20
11,71,3,20
11,73,1,20
12,69,127,11520
12,69,127,20
12,69,127,20
12,69,127,20
12,71,127,0
12,71,127,20
12,73,127,0
12,73,127,20
12,71,127,0
12,71,127,20
12,71,127,20
12,69,127,0
12,71,127,0
12,71,127,20
12,73,127,0
12,73,127,20
12,69,127,240
12,69,127,20
12,71,127,0
12,71,127,20
12,73,127,0
12,73,127,20
12,71,127,0
12,71,127,20
12,71,127,20
12,69,127,0
12,71,127,0
12,71,127,20
12,69,127,0
12,69,127,20
12,69,127,240
12,69,127,20
12,71,127,0
12,71,127,20
12,69,127,0
12,69,127,20
12,71,127,0
12,71,127,20
12,71,127,20
12,69,127,0
12,71,127,0
12,71,127,20
12,69,127,0
12,69,127,20
12,69,127,240
12,69,127,20
12,71,127,0
12,71,127,20
12,69,127,0
12,69,127,20
12,71,127,0
12,71,127,20
12,71,127,20
12,69,127,0
12,71,127,0
12,71,127,20
12,69,127,0
12,69,127,20
12,69,127,240
12,69,127,20
12,71,127,0
12,71,127,20
12,73,127,0
12,73,127,20
12,71,127,0
12,71,127,20
12,71,127,20
12,69,127,0
12,71,127,0
12,71,127,20
12,73,127,0
12,73,127,20
12,69,127,240
12,69,127,20
12,71,127,0
12,71,127,20
12,73,127,0
12,73,127,20
12,71,127,0
12,71,127,20
12,71,127,20
12,69,127,0
12,71,127,0
12,71,127,20
12,69,127,0
12,69,127,20
12,69,127,240
12,69,127,20
12,71,127,0
12,71,127,20
12,69,127,0
12,69,127,20
12,71,127,0
12,71,127,20
12,71,127,20
12,69,127,0
12,71,127,0
12,71,127,20
12,69,127,0
12,69,127,20
12,69,127,240
12,69,127,20
12,71,127,0
12,71,127,20
12,69,127,0
12,69,127,20
12,71,127,0
12,71,127,20
12,71,127,20
12,69,127,0
12,71,127,0
12,71,127,20
12,69,127,0
12,69,127,20
12,69,127,28800
12,69,127,20
12,69,127,20
12,69,127,20
12,71,127,0
12,71,127,20
12,73,127,0
12,73,127,20
12,71,127,0
12,71,127,20
12,71,127,20
12,69,127,0
12,71,127,0
12,71,127,20
12,73,127,0
12,73,127,20
12,69,127,240
12,69,127,20
12,71,127,0
12,71,127,20
12,73,127,0
12,73,127,20
12,71,127,0
12,71,127,20
12,71,127,20
12,69,127,0
12,71,127,0
12,71,127,20
12,69,127,0
12,69,127,20
12,69,127,240
12,69,127,20
12,71,127,0
12,71,127,20
12,69,127,0
12,69,127,20
12,71,127,0
12,71,127,20
12,71,127,20
12,69,127,0
12,71,127,0
12,71,127,20
12,69,127,0
12,69,127,20
12,69,127,240
12,69,127,20
12,71,127,0
12,71,127,20
12,69,127,0
12,69,127,20
12,71,127,0
12,71,127,20
12,71,127,20
12,69,127,0
12,71,127,0
12,71,127,20
12,69,127,0
12,69,127,20
12,69,127,240
12,69,127,20
12,71,127,0
12,71,127,20
12,73,127,0
12,73,127,20
12,71,127,0
12,71,127,20
12,71,127,20
12,69,127,0
12,71,127,0
12,71,127,20
12,73,127,0
12,73,127,20
12,69,127,240
12,69,127,20
12,71,127,0
12,71,127,20
12,73,127,0
12,73,127,20
12,71,127,0
12,71,127,20
12,71,127,20
12,69,127,0
12,71,127,0
12,71,127,20
12,69,127,0
12,69,127,20
12,69,127,240
12,69,127,20
12,71,127,0
12,71,127,20
12,69,127,0
12,69,127,20
12,71,127,0
12,71,127,20
12,71,127,20
12,69,127,0
12,71,127,0
12,71,127,20
12,69,127,0
12,69,127,20
12,69,127,240
12,69,127,20
12,71,127,0
12,71,127,20
12,69,127,0
12,69,127,20
12,71,127,0
12,71,127,20
12,71,127,20
12,69,127,0
12,71,127,0
12,71,127,20
12,69,127,0
12,69,127,20
12,69,127,28800
12,69,127,20
12,69,127,20
12,69,127,20
12,71,127,0
12,71,127,20
12,73,127,0
12,73,127,20
12,71,127,0
12,71,127,20
12,71,127,20
12,69,127,0
12,71,127,0
12,71,127,20
12,73,127,0
12,73,127,20
12,69,127,240
12,69,127,20
12,71,127,0
12,71,127,20
12,73,127,0
12,73,127,20
12,71,127,0
12,71,127,20
12,71,127,20
12,69,127,0
12,71,127,0
12,71,127,20
12,69,127,0
12,69,127,20
12,69,127,240
12,69,127,20
12,71,127,0
12,71,127,20
12,69,127,0
12,69,127,20
12,71,127,0
12,71,127,20
12,71,127,20
12,69,127,0
12,71,127,0
12,71,127,20
12,69,127,0
12,69,127,20
12,69,127,240
12,69,127,20
12,71,127,0
12,71,127,20
12,69,127,0
12,69,127,20
12,71,127,0
12,71,127,20
12,71,127,20
12,69,127,0
12,71,127,0
12,71,127,20
12,69,127,0
12,69,127,20
12,69,127,240
12,69,127,20
12,71,127,0
12,71,127,20
12,73,127,0
12,73,127,20
12,71,127,0
12,71,127,20
12,71,127,20
12,69,127,0
12,71,127,0
12,71,127,20
12,73,127,0
12,73,127,20
12,69,127,240
12,69,127,20
12,71,127,0
12,71,127,20
12,73,127,0
12,73,127,20
12,71,127,0
12,71,127,20
12,71,127,20
12,69,127,0
12,71,127,0
12,71,127,20
12,69,127,0
12,69,127,20
12,69,127,240
12,69,127,20
12,71,127,0
12,71,127,20
12,69,127,0
12,69,127,20
12,71,127,0
12,71,127,20
12,71,127,20
12,69,127,0
12,71,127,0
12,71,127,20
12,69,127,0
12,69,127,20
12,69,127,240
12,69,127,20
12,71,127,0
12,71,127,20
12,69,127,0
12,69,127,20
12,71,127,0
12,71,127,20
12,71,127,20
12,69,127,0
12,71,127,0
12,71,127,20
12,69,127,19440
12,69,127,20
12,69,127,20
12,69,127,20
12,71,127,0
12,71,127,20
12,73,127,0
12,73,127,20
12,71,127,0
12,71,127,20
12,71,127,20
12,69,127,0
12,71,127,0
12,71,127,20
12,73,127,0
12,73,127,20
12,69,127,240
12,69,127,20
12,71,127,0
12,71,127,20
12,73,127,0
12,73,127,20
12,71,127,0
12,71,127,20
12,71,127,20
12,69,127,0
12,71,127,0
12,71,127,20
12,69,127,0
12,69,127,20
12,69,127,240
12,69,127,20
12,71,127,0
12,71,127,20
12,69,127,0
12,69,127,20
12,71,127,0
12,71,127,20
12,71,127,20
12,69,127,0
12,71,127,0
12,71,127,20
12,69,127,0
12,69,127,20
12,69,127,240
12,69,127,20
12,71,127,0
12,71,127,20
12,69,127,0
12,69,127,20
12,71,127,0
12,71,127,20
12,71,127,20
12,69,127,0
12,71,127,0
12,71,127,20
12,69,127,0
12,69,127,20
12,69,127,240
12,69,127,20
12,71,127,0
12,71,127,20
12,73,127,0
12,73,127,20
12,71,127,0
12,71,127,20
12,71,127,20
12,69,127,0
12,71,127,0
12,71,127,20
12,73,127,0
12,73,127,20
12,69,127,240
12,69,127,20
12,71,127,0
12,71,127,20
12,73,127,0
12,73,127,20
12,71,127,0
12,71,127,20
12,71,127,20
12,69,127,0
12,71,127,0
12,71,127,20
12,69,127,0
12,69,127,20
12,69,127,240
12,69,127,20
12,71,127,0
12,71,127,20
12,69,127,0
12,69,127,20
12,71,127,0
12,71,127,20
12,71,127,20
12,69,127,0
12,71,127,0
12,71,127,20
12,69,127,0
12,69,127,20
12,69,127,240
12,69,127,20
12,71,127,0
12,71,127,20
12,69,127,0
12,69,127,20
12,71,127,0
12,71,127,20
12,71,127,20
12,69,127,0
12,71,127,0
12,71,127,20
12,69,127,0
12,69,127,20
12,69,127,28800
12,69,127,20
12,69,127,20
12,69,127,20
12,71,127,0
12,71,127,20
12,73,127,0
12,73,127,20
12,71,127,0
12,71,127,20
12,71,127,20
12,69,127,0
12,71,127,0
12,71,127,20
12,73,127,0
12,73,127,20
12,69,127,240
12,69,127,20
12,71,127,0
12,71,127,20
12,73,127,0
12,73,127,20
12,71,127,0
12,71,127,20
12,71,127,20
12,69,127,0
12,71,127,0
12,71,127,20
12,69,127,0
12,69,127,20
12,69,127,240
12,69,127,20
12,71,127,0
12,71,127,20
12,69,127,0
12,69,127,20
12,71,127,0
12,71,127,20
12,71,127,20
12,69,127,0
12,71,127,0
12,71,127,20
12,69,127,0
12,69,127,20
12,69,127,240
12,69,127,20
12,71,127,0
12,71,127,20
12,69,127,0
12,69,127,20
12,71,127,0
12,71,127,20
12,71,127,20
12,69,127,0
12,71,127,0
12,71,127,20
12,69,127,0
12,69,127,20
12,69,127,240
12,69,127,20
12,71,127,0
12,71,127,20
12,73,127,0
12,73,127,20
12,71,127,0
12,71,127,20
12,71,127,20
12,69,127,0
12,71,127,0
12,71,127,20
12,73,127,0
12,73,127,20
12,69,127,240
12,69,127,20
12,71,127,0
12,71,127,20
12,73,127,0
12,73,127,20
12,71,127,0
12,71,127,20
12,71,127,20
12,69,127,0
12,71,127,0
12,71,127,20
12,69,127,0
12,69,127,20
12,69,127,240
12,69,127,20
12,71,127,0
12,71,127,20
12,69,127,0
12,69,127,20
12,71,127,0
12,71,127,20
12,71,127,20
12,69,127,0
12,71,127,0
12,71,127,20
12,69,127,0
12,69,127,20
12,69,127,240
12,69,127,20
12,71,127,0
12,71,127,20
12,69,127,0
12,69,127,20
12,71,127,0
