track,note,velocity,time
1,66,87,12672
1,71,87,0
1,69,87,4
1,74,87,0
1,76,87,4
1,71,87,196
1,78,87,0
1,71,87,196
1,78,87,0
1,76,87,4
1,74,87,4
1,69,87,4
1,76,87,0
1,78,87,4
1,66,87,196
1,71,87,0
1,71,87,388
1,71,87,4
1,71,87,4
1,71,87,4
1,74,87,4
1,71,87,4
1,59,87,388
1,64,87,0
1,59,87,8
1,64,87,0
1,59,87,4
1,57,87,4
1,62,87,0
1,59,87,4
1,66,87,772
1,71,87,0
1,69,87,4
1,74,87,0
1,76,87,4
1,71,87,196
1,78,87,0
1,71,87,196
1,78,87,0
1,76,87,4
1,74,87,4
1,69,87,4
1,76,87,0
1,78,87,4
1,66,87,196
1,71,87,0
1,71,87,388
1,71,87,4
1,71,87,4
1,71,87,4
1,74,87,4
1,71,87,4
1,59,87,388
1,64,87,0
1,59,87,8
1,64,87,0
1,59,87,4
1,57,87,4
1,62,87,0
1,59,87,4
1,66,87,388
1,71,87,0
1,71,87,4
1,69,87,4
1,66,87,4
1,71,87,0
1,54,87,4
1,59,87,0
1,59,87,4
1,59,87,4
1,59,87,4
1,64,87,0
1,66,87,4
1,57,87,4
1,62,87,0
1,69,87,196
1,69,87,0
1,66,87,4
1,71,87,0
1,71,87,4
1,66,87,4
1,71,87,0
1,71,87,4
1,66,87,4
1,66,87,0
1,62,87,4
1,69,87,0
1,66,87,4
1,64,87,4
1,61,87,4
1,66,87,0
1,66,87,196
1,66,87,0
1,66,87,4
1,71,87,0
1,71,87,4
1,71,87,4
1,69,87,4
1,66,87,4
1,71,87,0
1,59,87,4
1,59,87,0
1,59,87,4
1,59,87,0
1,59,87,4
1,64,87,0
1,64,87,4
1,66,87,4
1,59,87,4
1,67,87,0
1,66,87,388
1,71,87,0
1,66,87,4
1,69,87,0
1,71,87,4
1,59,87,388
1,64,87,0
1,59,87,8
1,64,87,0
1,66,87,4
1,57,87,4
1,62,87,0
1,64,87,4
1,66,87,772
1,71,87,0
1,66,87,4
1,69,87,0
1,71,87,4
1,59,87,388
1,64,87,0
1,59,87,8
1,64,87,0
1,66,87,4
1,57,87,4
1,62,87,0
1,64,87,4
1,66,87,772
1,71,87,0
1,69,87,4
1,74,87,0
1,76,87,4
1,71,87,196
1,78,87,0
1,71,87,196
1,78,87,0
1,76,87,4
1,74,87,4
1,76,87,4
1,78,87,4
1,66,87,196
1,71,87,0
1,71,87,388
1,71,87,4
1,71,87,4
1,71,87,4
1,74,87,4
1,71,87,4
1,59,87,388
1,64,87,0
1,59,87,8
1,64,87,0
1,59,87,4
1,57,87,4
1,62,87,0
1,59,87,4
1,62,87,388
1,66,87,0
1,71,87,0
1,71,87,4
1,69,87,4
1,62,87,4
1,66,87,0
1,71,87,0
1,59,87,8
1,59,87,0
1,59,87,4
1,64,87,0
1,64,87,4
1,59,87,4
1,66,87,0
1,54,87,4
1,66,87,0
1,59,87,4
1,62,87,0
1,66,87,8
1,66,87,0
1,62,87,4
1,66,87,0
1,71,87,0
1,71,87,4
1,69,87,4
1,62,87,4
1,66,87,0
1,71,87,0
1,66,87,8
1,66,87,0
1,62,87,4
1,69,87,0
1,66,87,4
1,64,87,4
1,61,87,4
1,66,87,0
1,66,87,200
1,62,87,4
1,66,87,0
1,71,87,0
1,71,87,4
1,69,87,4
1,62,87,4
1,66,87,0
1,71,87,0
1,66,87,8
1,59,87,0
1,56,87,4
1,59,87,0
1,64,87,0
1,66,87,4
1,55,87,4
1,59,87,0
1,67,87,0
1,66,87,388
1,71,87,0
1,66,87,4
1,71,87,0
1,59,87,388
1,64,87,0
1,59,87,8
1,64,87,0
1,66,87,4
1,57,87,4
1,62,87,0
1,64,87,4
1,66,87,772
1,71,87,0
1,66,87,4
1,71,87,0
1,59,87,388
1,64,87,0
1,59,87,8
1,64,87,0
1,66,87,8
1,57,87,4
1,62,87,0
1,64,87,4
1,59,87,388
1,63,87,4
1,64,87,4
1,63,87,4
1,66,87,4
1,64,87,4
1,69,87,4
1,71,87,4
1,75,87,4
1,76,87,4
1,78,87,4
1,83,87,4
1,83,87,4
1,64,87,4
1,62,87,4
1,64,87,4
1,59,87,0
1,64,87,4
1,62,87,4
1,59,87,4
1,64,87,0
1,59,87,8
1,62,87,0
1,59,87,4
1,64,87,0
1,59,87,4
1,64,87,0
1,66,87,4
1,59,87,4
1,62,87,0
1,61,87,4
1,54,87,4
1,59,87,0
1,59,87,4
1,59,87,4
1,64,87,0
1,62,87,4
1,59,87,4
1,64,87,0
1,59,87,8
1,62,87,0
1,59,87,4
1,64,87,0
1,64,87,4
1,59,87,4
1,66,87,0
1,62,87,4
1,61,87,4
1,59,87,4
1,57,87,4
1,59,87,4
1,59,87,4
1,59,87,4
1,55,87,4
1,62,87,0
1,62,87,1348
1,61,87,4
1,61,87,4
1,61,87,4
1,61,87,4
1,64,87,0
1,83,87,388
1,81,87,4
1,78,87,4
1,76,87,4
1,75,87,4
1,66,87,4
1,71,87,0
1,69,87,4
1,74,87,0
1,76,87,4
1,71,87,4
1,78,87,0
1,71,87,196
1,78,87,0
1,76,87,4
1,74,87,4
1,76,87,4
1,78,87,4
1,66,87,196
1,71,87,0
1,71,87,388
1,71,87,4
1,71,87,4
1,71,87,4
1,74,87,4
1,71,87,4
1,59,87,388
1,64,87,0
1,59,87,8
1,64,87,0
1,59,87,4
1,57,87,4
1,62,87,0
1,59,87,4
1,62,87,388
1,66,87,0
1,71,87,0
1,71,87,4
1,69,87,4
1,62,87,4
1,66,87,0
1,71,87,0
1,59,87,8
1,59,87,0
1,59,87,4
1,64,87,0
1,64,87,4
1,59,87,4
1,66,87,0
1,54,87,4
1,66,87,0
1,59,87,4
1,62,87,0
1,66,87,8
1,66,87,0
1,62,87,4
1,66,87,0
1,71,87,0
1,71,87,4
1,69,87,4
1,62,87,4
1,66,87,0
1,71,87,0
1,66,87,8
1,66,87,0
1,62,87,4
1,69,87,0
1,66,87,4
1,64,87,4
1,61,87,4
1,66,87,0
1,66,87,200
1,62,87,4
1,66,87,0
1,71,87,0
1,71,87,4
1,69,87,4
1,62,87,4
1,66,87,0
1,71,87,0
1,66,87,8
1,59,87,0
1,56,87,4
1,59,87,0
1,64,87,0
1,66,87,4
1,55,87,4
1,59,87,0
1,67,87,0
1,66,87,388
1,71,87,0
1,66,87,4
1,71,87,0
1,59,87,388
1,64,87,0
1,59,87,8
1,64,87,0
1,66,87,4
1,57,87,4
1,62,87,0
1,64,87,4
1,66,87,772
1,71,87,0
1,66,87,4
1,71,87,0
1,59,87,388
1,64,87,0
1,59,87,8
1,64,87,0
1,66,87,8
1,57,87,4
1,62,87,0
1,64,87,4
1,59,87,388
1,63,87,4
1,64,87,4
1,63,87,4
1,66,87,4
1,64,87,4
1,69,87,4
1,71,87,4
1,75,87,4
1,76,87,4
1,78,87,4
1,83,87,4
1,61,87,4
1,65,87,4
1,66,87,4
1,61,87,4
1,68,87,4
1,64,87,4
1,71,87,0
1,66,87,4
1,73,87,0
1,76,87,4
1,78,87,4
1,73,87,4
1,71,87,4
1,76,87,0
1,71,87,4
1,76,87,0
1,71,87,4
1,76,87,0
1,73,87,4
1,73,87,4
1,73,87,4
1,80,87,4
1,80,87,4
1,80,87,4
1,73,87,4
1,66,87,4
1,73,87,0
1,66,87,8
1,73,87,0
1,66,87,8
1,73,87,0
1,71,87,4
1,76,87,0
1,73,87,4
1,61,87,388
1,65,87,4
1,66,87,4
1,61,87,4
1,68,87,4
1,64,87,4
1,71,87,0
1,66,87,4
1,73,87,0
1,76,87,4
1,78,87,4
1,73,87,4
1,71,87,4
1,76,87,0
1,71,87,4
1,76,87,0
1,71,87,4
1,76,87,0
1,73,87,4
1,73,87,4
1,73,87,4
1,80,87,4
1,80,87,4
1,80,87,4
1,73,87,4
1,66,87,4
1,73,87,0
1,66,87,8
1,73,87,0
1,66,87,8
1,73,87,0
1,71,87,4
1,76,87,0
1,73,87,4
1,61,87,388
1,65,87,4
1,66,87,4
1,61,87,4
1,68,87,4
1,64,87,4
1,71,87,0
1,66,87,4
1,73,87,0
1,76,87,4
1,78,87,4
1,73,87,4
1,71,87,4
1,76,87,0
1,71,87,4
1,76,87,0
1,71,87,4
1,76,87,0
1,73,87,4
1,73,87,4
1,73,87,4
1,80,87,4
1,80,87,4
1,80,87,4
1,73,87,4
1,66,87,4
1,73,87,0
1,66,87,8
1,73,87,0
1,66,87,8
1,73,87,0
1,71,87,4
1,76,87,0
1,73,87,4
1,61,87,388
1,65,87,4
1,66,87,4
1,61,87,4
1,68,87,4
1,64,87,4
1,71,87,0
1,66,87,4
1,73,87,0
1,76,87,4
1,78,87,4
1,73,87,4
1,71,87,4
1,76,87,0
1,71,87,4
1,76,87,0
1,71,87,4
1,76,87,0
1,73,87,4
1,73,87,4
1,73,87,4
1,80,87,4
1,80,87,4
1,80,87,4
1,73,87,4
1,68,87,4
1,73,87,0
1,68,87,8
1,73,87,0
1,68,87,8
1,73,87,0
1,71,87,4
1,76,87,0
1,68,87,4
1,73,87,0
1,61,87,6532
1,66,87,0
1,66,87,4
1,64,87,4
1,61,87,4
1,66,87,0
1,61,87,8
1,64,87,0
1,61,87,4
1,66,87,0
1,61,87,4
1,66,87,0
1,68,87,4
1,61,87,4
1,64,87,0
1,63,87,4
1,56,87,4
1,61,87,0
1,61,87,4
1,61,87,4
1,66,87,0
1,66,87,4
1,64,87,4
1,61,87,4
1,66,87,0
1,61,87,8
1,64,87,0
1,61,87,4
1,66,87,0
1,66,87,4
1,61,87,4
1,68,87,0
1,64,87,4
1,63,87,4
1,61,87,4
1,59,87,4
1,61,87,4
1,61,87,4
1,61,87,4
1,57,87,4
1,64,87,0
1,64,87,1348
1,63,87,4
1,63,87,4
1,63,87,4
1,63,87,4
1,66,87,0
1,85,87,388
1,83,87,4
1,80,87,4
1,78,87,4
1,77,87,4
1,68,87,4
1,73,87,0
1,71,87,4
1,76,87,0
1,78,87,4
1,73,87,196
1,80,87,0
1,73,87,196
1,80,87,0
1,78,87,4
1,76,87,4
1,71,87,4
1,78,87,0
1,80,87,4
1,68,87,196
1,73,87,0
1,73,87,388
1,73,87,4
1,73,87,4
1,73,87,4
1,76,87,4
1,73,87,4
1,61,87,388
1,66,87,0
1,61,87,8
1,66,87,0
1,61,87,8
1,61,87,0
1,59,87,4
1,64,87,0
1,61,87,4
1,61,87,772
1,68,87,0
1,56,87,4
1,61,87,0
1,61,87,388
1,68,87,0
1,66,87,8
1,64,87,8
1,59,87,4
1,66,87,0
1,68,87,4
1,56,87,388
1,68,87,0
1,61,87,4
1,61,87,8
1,66,87,0
1,61,87,8
1,66,87,0
1,61,87,8
1,61,87,0
1,59,87,4
1,64,87,0
1,61,87,4
1,61,87,772
1,68,87,0
1,56,87,4
1,61,87,0
1,61,87,388
1,68,87,0
1,66,87,8
1,64,87,8
1,59,87,4
1,66,87,0
1,68,87,4
1,56,87,388
1,68,87,0
1,61,87,4
1,61,87,8
1,66,87,0
1,61,87,8
1,66,87,0
1,61,87,8
1,61,87,0
1,59,87,4
1,64,87,0
1,61,87,4
1,61,87,772
1,68,87,0
1,56,87,4
1,61,87,0
1,61,87,388
1,68,87,0
1,66,87,8
1,64,87,8
1,59,87,4
1,66,87,0
1,68,87,4
1,56,87,388
1,68,87,0
1,61,87,4
1,61,87,8
1,66,87,0
1,61,87,8
1,66,87,0
1,61,87,8
1,61,87,0
1,59,87,4
1,64,87,0
1,61,87,4
1,61,87,772
1,68,87,0
1,56,87,4
1,61,87,0
1,61,87,388
1,68,87,0
1,66,87,8
1,64,87,8
1,59,87,4
1,66,87,0
1,68,87,4
1,56,87,388
1,68,87,0
1,61,87,4
1,56,87,8
1,61,87,0
1,56,87,8
1,61,87,0
1,56,87,8
1,61,87,0
1,59,87,4
1,64,87,0
1,56,87,4
1,61,87,0
2,35,67,6144
2,47,67,0
2,35,67,8
2,47,67,0
2,33,67,4
2,45,67,0
2,35,67,4
2,47,67,0
2,38,67,4
2,50,67,0
2,35,67,4
2,47,67,0
2,35,67,388
2,47,67,0
2,35,67,8
2,47,67,0
2,33,67,4
2,45,67,0
2,35,67,4
2,47,67,0
2,38,67,4
2,50,67,0
2,35,67,4
2,47,67,0
2,35,67,388
2,47,67,0
2,35,67,8
2,47,67,0
2,33,67,4
2,45,67,0
2,35,67,4
2,47,67,0
2,38,67,4
2,50,67,0
2,35,67,4
2,47,67,0
2,35,67,388
2,47,67,0
2,35,67,8
2,47,67,0
2,33,67,4
2,45,67,0
2,35,67,4
2,47,67,0
2,38,67,4
2,50,67,0
2,35,67,4
2,47,67,0
2,35,67,388
2,47,67,4
2,35,67,4
2,47,67,4
2,35,67,4
2,47,67,4
2,35,67,4
2,47,67,4
2,40,67,4
2,52,67,4
2,40,67,4
2,52,67,4
2,38,67,4
2,50,67,4
2,37,67,4
2,49,67,4
2,35,67,4
2,47,67,4
2,35,67,4
2,47,67,4
2,35,67,4
2,47,67,4
2,35,67,4
2,47,67,4
2,40,67,4
2,40,67,0
2,40,67,4
2,40,67,0
2,38,67,4
2,38,67,0
2,38,67,4
2,38,67,0
2,35,67,4
2,47,67,4
2,35,67,4
2,47,67,4
2,35,67,4
2,47,67,4
2,35,67,4
2,47,67,4
2,40,67,4
2,52,67,4
2,40,67,4
2,52,67,4
2,38,67,4
2,50,67,4
2,37,67,4
2,49,67,4
2,35,67,4
2,47,67,4
2,35,67,4
2,47,67,4
2,35,67,4
2,47,67,4
2,35,67,4
2,47,67,4
2,40,67,4
2,40,67,0
2,40,67,4
2,40,67,0
2,38,67,4
2,38,67,0
2,38,67,4
2,38,67,0
2,35,67,4
2,47,67,4
2,45,67,4
2,42,67,4
2,35,67,4
2,47,67,4
2,35,67,4
2,47,67,4
2,40,67,4
2,52,67,4
2,40,67,4
2,52,67,4
2,38,67,4
2,50,67,4
2,37,67,4
2,49,67,4
2,38,67,4
2,47,67,4
2,45,67,4
2,42,67,4
2,35,67,4
2,47,67,4
2,35,67,4
2,47,67,4
2,38,67,4
2,50,67,4
2,38,67,4
2,50,67,4
2,38,67,4
2,50,67,4
2,38,67,4
2,50,67,4
2,35,67,4
2,47,67,4
2,45,67,4
2,42,67,4
2,35,67,4
2,47,67,4
2,35,67,4
2,47,67,4
2,40,67,4
2,52,67,4
2,40,67,4
2,52,67,4
2,40,67,4
2,52,67,4
2,40,67,4
2,52,67,4
2,35,67,4
2,47,67,4
2,35,67,4
2,47,67,4
2,35,67,4
2,47,67,4
2,35,67,4
2,47,67,4
2,40,67,4
2,52,67,4
2,40,67,4
2,52,67,4
2,40,67,4
2,50,67,4
2,40,67,4
2,50,67,4
2,35,67,4
2,47,67,4
2,35,67,4
2,47,67,4
2,35,67,4
2,47,67,4
2,35,67,4
2,47,67,4
2,40,67,4
2,52,67,4
2,40,67,4
2,52,67,4
2,40,67,4
2,50,67,4
2,40,67,4
2,50,67,4
2,35,67,4
2,47,67,4
2,35,67,4
2,47,67,4
2,35,67,4
2,47,67,4
2,35,67,4
2,47,67,4
2,35,67,4
2,47,67,4
2,35,67,4
2,47,67,4
2,35,67,4
2,47,67,4
2,35,67,4
2,47,67,4
2,35,67,4
2,47,67,4
2,35,67,4
2,47,67,4
2,35,67,4
2,47,67,4
2,35,67,4
2,47,67,4
2,40,67,4
2,40,67,0
2,40,67,4
2,40,67,0
2,38,67,4
2,38,67,0
2,38,67,4
2,38,67,0
2,35,67,4
2,47,67,4
2,35,67,4
2,47,67,4
2,35,67,4
2,47,67,4
2,35,67,4
2,47,67,4
2,40,67,4
2,52,67,4
2,40,67,4
2,52,67,4
2,49,67,192
2,47,67,148
2,35,67,340
2,42,67,0
2,47,67,4
2,35,67,4
2,47,67,4
2,35,67,4
2,47,67,4
2,35,67,4
2,47,67,4
2,38,67,4
2,50,67,4
2,42,67,4
2,54,67,4
2,45,67,4
2,57,67,0
2,50,67,4
2,62,67,0
2,47,67,4
2,59,67,0
