track,note,velocity,time
1,69,107,6848
1,69,0,44
1,69,103,20
1,69,0,40
1,69,105,20
1,69,0,40
1,69,103,16
1,69,0,40
1,69,105,20
1,69,0,40
1,69,107,16
1,70,113,64
1,69,0,4
1,70,0,120
1,67,99,0
1,69,109,60
1,67,0,8
1,69,0,308
1,69,111,92
1,69,0,48
1,69,109,20
1,69,0,40
1,69,107,20
1,69,0,48
1,69,103,20
1,69,0,48
1,69,105,20
1,69,0,36
1,69,109,20
1,70,113,52
1,69,0,4
1,70,0,104
1,67,103,0
1,69,109,60
1,67,0,4
1,69,0,212
1,69,105,212
1,69,0,44
1,69,107,16
1,69,0,36
1,69,105,20
1,69,0,44
1,69,103,16
1,69,0,44
1,69,105,24
1,69,0,36
1,69,107,16
1,70,111,60
1,69,0,4
1,67,93,112
1,70,0,4
1,69,107,68
1,67,0,4
1,69,0,220
1,69,103,196
1,69,0,36
1,69,101,16
1,69,0,32
1,69,105,28
1,69,0,40
1,69,101,20
1,69,0,36
1,69,103,24
1,69,0,32
1,69,101,24
1,70,109,60
1,69,0,4
1,70,0,112
1,67,105,0
1,67,0,72
1,69,109,0
1,69,0,220
1,74,109,200
1,74,0,40
1,74,107,16
1,74,0,40
1,74,107,20
1,74,0,44
1,74,103,16
1,74,0,36
1,74,101,20
1,74,0,44
1,74,103,20
1,74,0,108
1,74,107,20
1,74,0,100
1,74,105,16
1,74,0,40
1,74,103,20
1,74,0,60
1,72,105,0
1,74,105,64
1,72,0,8
1,74,0,112
1,75,113,120
1,75,0,32
1,75,109,20
1,75,0,52
1,77,103,4
1,75,109,120
1,77,0,12
1,75,0,60
1,74,107,0
1,72,105,132
1,74,0,4
1,72,0,56
1,74,107,0
1,72,105,172
1,74,0,8
1,74,107,48
1,72,0,8
1,74,0,188
1,74,101,36
1,74,0,44
1,74,105,16
1,74,0,40
1,74,107,20
1,74,0,40
1,74,105,20
1,74,0,36
1,74,103,20
1,74,0,40
1,74,105,20
1,74,0,108
1,74,105,16
1,74,0,100
1,74,101,24
1,74,0,40
1,74,107,20
1,72,105,60
1,74,0,4
1,74,109,52
1,72,0,8
1,74,0,164
1,75,111,72
1,75,0,36
1,75,109,24
1,75,0,60
1,77,105,0
1,75,111,120
1,77,0,4
1,75,0,60
1,74,107,0
1,72,101,124
1,74,0,8
1,74,107,52
1,72,0,4
1,72,107,176
1,74,0,8
1,74,109,48
1,72,0,4
1,74,0,96
1,66,107,2956
1,66,0,52
1,73,113,0
1,73,0,60
1,66,111,0
1,68,117,56
1,66,0,8
1,68,0,56
1,69,115,0
1,73,113,64
1,69,0,8
1,73,0,68
1,66,109,112
1,66,0,56
1,73,113,4
1,66,107,52
1,73,0,4
1,71,109,56
1,66,0,4
1,69,113,60
1,71,0,4
1,68,109,60
1,69,0,20
1,68,0,100
1,66,111,60
1,66,0,60
1,73,113,0
1,73,0,60
1,66,97,0
1,68,115,60
1,66,0,4
1,69,111,56
1,68,0,4
1,69,0,56
1,73,113,0
1,73,0,116
1,66,111,64
1,66,0,60
1,73,113,0
1,66,105,56
1,73,0,4
1,71,113,56
1,66,0,4
1,69,111,56
1,71,0,8
1,69,0,56
1,68,109,0
1,68,0,104
1,66,109,80
1,66,0,56
1,73,113,0
1,66,87,60
1,73,0,4
1,68,111,56
1,66,0,4
1,68,0,48
1,69,105,8
1,73,113,60
1,69,0,8
1,73,0,88
1,66,107,88
1,66,0,60
1,73,111,0
1,66,109,52
1,73,0,4
1,66,0,48
1,71,111,4
1,69,107,60
1,71,0,4
1,68,113,52
1,69,0,4
1,68,0,116
1,66,109,68
1,66,0,56
1,73,111,4
1,73,0,60
1,66,103,4
1,68,105,56
1,66,0,8
1,68,0,52
1,69,105,0
1,73,111,56
1,69,0,4
1,73,0,120
1,66,107,60
1,73,113,56
1,66,0,4
1,66,95,60
1,73,0,4
1,66,0,52
1,71,113,0
1,71,0,60
1,69,101,4
1,69,0,60
1,68,113,0
1,68,0,68
1,66,97,56
1,73,53,0
1,73,0,84
1,66,0,4
2,45,113,8
2,45,0,136
2,45,109,172
2,45,0,60
2,50,109,4
2,50,0,104
2,46,111,0
2,46,0,132
2,46,111,172
2,46,0,60
2,50,113,0
2,45,111,116
2,50,0,4
2,45,0,152
2,45,109,148
2,45,0,60
2,50,111,0
2,50,0,124
2,46,113,0
2,46,0,212
2,46,111,80
2,46,0,60
2,50,109,0
2,50,0,120
2,45,105,0
2,45,0,208
2,45,107,96
2,45,0,64
2,50,107,0
2,46,115,116
2,50,0,8
2,46,0,148
2,46,115,148
2,46,0,60
2,50,115,4
2,50,0,108
2,45,109,4
2,45,0,120
2,45,107,176
2,45,0,64
2,50,113,0
2,46,111,124
2,50,0,4
2,46,0,156
2,46,115,140
2,46,0,60
2,50,115,4
2,50,0,104
2,45,111,4
2,45,0,108
2,45,111,192
2,45,0,60
2,50,107,4
2,46,113,120
2,50,0,4
2,46,0,172
2,46,111,124
2,46,0,64
2,50,115,4
2,50,0,84
2,54,115,28
2,54,0,484
2,52,113,0
2,49,113,420
2,52,0,4
2,52,97,24
2,49,0,4
2,49,115,36
2,52,0,8
2,49,0,400
2,47,103,0
2,49,109,32
2,47,0,8
2,47,107,24
2,49,0,8
2,47,0,452
2,45,111,7684
2,45,0,160
2,45,107,148
2,45,0,64
2,50,107,0
2,46,111,124
2,50,0,4
2,46,0,152
2,46,115,144
2,46,0,60
2,50,109,0
2,45,109,112
2,50,0,4
2,45,0,136
2,45,107,164
2,45,0,60
2,50,109,4
2,46,113,112
2,50,0,4
2,46,0,164
2,46,113,136
2,46,0,56
2,50,111,4
2,45,111,124
2,50,0,8
2,45,0,124
2,45,109,164
2,45,0,56
2,50,109,0
2,46,115,128
2,50,0,4
2,46,0,120
2,46,111,172
2,46,0,60
2,50,111,4
2,50,0,104
2,54,115,4
2,54,0,428
2,52,109,0
2,54,111,24
2,52,0,8
2,54,0,28
2,52,115,0
2,49,113,420
2,52,0,4
2,52,105,24
2,49,0,4
2,49,107,28
2,52,0,12
2,49,0,404
2,47,99,0
2,49,101,28
2,47,0,8
2,49,0,28
2,47,111,4
2,47,0,388
2,54,115,88
2,54,0,420
2,52,105,8
2,54,95,28
2,52,0,8
2,54,0,28
2,52,109,0
2,49,109,412
2,52,0,4
2,49,0,24
2,52,93,0
2,49,111,32
2,52,0,8
2,49,0,404
2,47,105,4
2,49,105,24
2,47,0,8
2,49,0,24
2,47,107,4
2,54,111,476
2,47,0,4
2,54,0,316
3,45,97,1924
3,45,0,40
3,45,113,52
3,45,0,20
3,45,113,4
3,45,0,32
3,45,117,32
3,45,0,40
3,45,111,88
3,45,0,28
3,45,111,60
3,45,0,20
3,45,113,4
3,45,0,20
3,45,119,44
3,45,0,28
3,46,117,68
3,46,0,16
3,46,107,16
3,46,0,16
3,46,119,48
3,46,0,20
3,46,119,104
3,46,0,28
3,46,121,64
3,46,0,12
3,46,119,20
3,46,0,12
3,45,117,44
3,45,0,20
3,45,115,68
3,45,0,20
3,45,119,8
3,45,0,24
3,45,117,40
3,45,0,28
3,45,115,88
3,45,0,24
3,45,119,68
3,45,0,20
3,45,117,4
3,45,0,16
3,46,121,40
3,46,0,32
3,46,119,64
3,46,0,20
3,46,119,8
3,46,0,20
3,46,123,40
3,46,0,32
3,46,121,84
3,46,0,28
3,46,117,72
3,46,0,4
3,46,117,16
3,46,0,16
3,45,119,52
3,45,0,24
3,45,113,56
3,45,0,20
3,45,121,8
3,45,0,24
3,45,117,40
3,45,0,24
3,45,119,88
3,45,0,28
3,45,115,68
3,45,0,16
3,45,117,4
3,45,0,20
3,46,119,44
3,46,0,36
3,46,117,60
3,46,0,16
3,46,117,12
3,46,0,20
3,46,119,40
3,46,0,24
3,46,119,92
3,46,0,24
3,46,115,76
3,46,0,8
3,46,113,12
3,46,0,16
3,42,121,52
3,42,0,28
3,42,121,68
3,42,0,12
3,42,121,12
3,42,0,20
3,42,121,40
3,42,0,24
3,45,113,80
3,45,0,28
3,45,117,64
3,45,0,20
3,45,117,4
3,45,0,24
3,42,121,44
3,42,0,36
3,42,119,60
3,42,0,12
3,42,113,16
3,42,0,16
3,42,121,40
3,42,0,36
3,38,115,84
3,38,0,20
3,38,117,76
3,38,0,20
3,38,107,12
3,38,0,16
3,42,119,32
3,42,0,24
3,42,119,80
3,42,0,12
3,42,119,8
3,42,0,20
3,42,121,48
3,42,0,28
3,45,117,92
3,45,0,24
3,45,117,56
3,45,0,16
3,45,117,8
3,45,0,24
3,42,121,36
3,42,0,44
3,42,119,64
3,42,0,8
3,42,115,16
3,42,0,16
3,42,121,44
3,42,0,36
3,38,113,96
3,38,0,24
3,38,115,60
3,38,0,16
3,38,117,8
3,38,0,28
3,50,117,3888
3,50,0,16
3,50,115,36
3,50,0,20
3,50,119,44
3,50,0,20
3,50,115,40
3,50,0,20
3,50,115,40
3,50,0,20
3,50,115,36
3,50,0,20
3,50,117,40
3,50,0,20
3,50,101,40
3,50,0,4
3,38,111,0
3,38,0,32
3,38,111,16
3,38,0,32
3,38,115,36
3,38,0,28
3,38,111,36
3,38,0,28
3,38,113,32
3,38,0,32
3,38,113,28
3,38,0,32
3,38,109,24
3,38,0,32
3,38,113,28
3,38,0,32
3,38,107,28
3,38,0,40
3,51,119,20
3,51,0,24
3,51,117,36
3,51,0,24
3,51,119,36
3,51,0,24
3,51,117,40
3,51,0,24
3,51,119,40
3,51,0,20
3,51,117,32
3,51,0,24
3,51,117,36
3,51,0,24
3,51,119,32
3,51,0,24
3,50,119,36
3,50,0,24
3,50,117,36
3,50,0,24
3,50,115,44
3,50,0,20
3,50,115,44
3,50,0,20
3,50,115,44
3,50,0,20
3,50,115,40
3,50,0,20
3,50,117,40
3,50,0,20
3,50,117,36
3,50,0,16
3,50,117,40
3,50,0,20
3,50,117,36
3,50,0,20
3,50,117,40
3,50,0,24
3,50,117,40
3,50,0,20
3,50,117,40
3,50,0,20
3,50,117,40
3,50,0,16
3,50,119,44
3,50,0,32
3,38,113,24
3,38,0,32
3,38,113,28
3,38,0,24
3,38,115,36
3,38,0,28
3,38,117,32
3,38,0,24
3,38,117,36
3,38,0,20
3,38,115,40
3,38,0,24
3,38,117,28
3,38,0,28
3,38,117,40
3,38,0,28
3,38,117,36
3,38,0,40
3,51,121,16
3,51,0,28
3,51,117,32
3,51,0,24
3,51,115,36
3,51,0,24
3,51,119,40
3,51,0,20
3,51,119,40
3,51,0,20
3,51,119,36
3,51,0,20
3,51,119,44
3,51,0,20
3,51,117,40
3,51,0,20
3,50,119,36
3,50,0,20
3,50,113,44
3,50,0,20
3,50,115,40
3,50,0,20
3,50,113,40
3,50,0,24
3,50,115,40
3,50,0,24
3,50,113,36
3,50,0,20
3,50,115,36
3,50,0,20
3,50,113,32
3,50,0,24
3,45,117,40
3,45,0,28
3,45,109,56
3,45,0,20
3,45,115,8
3,45,0,20
3,45,119,48
3,45,0,28
3,46,119,92
3,46,0,24
3,46,101,84
3,46,0,4
3,46,119,60
3,46,0,20
3,46,117,88
3,46,0,16
3,46,115,12
3,46,0,16
3,46,121,44
3,46,0,24
3,46,119,100
3,46,0,16
3,46,119,68
3,46,0,16
3,46,115,8
3,46,0,16
3,45,119,52
3,45,0,20
3,45,113,60
3,45,0,20
3,45,115,12
3,45,0,24
3,45,117,40
3,45,0,16
3,45,117,100
3,45,0,24
3,45,115,68
3,45,0,12
3,45,119,12
3,45,0,20
3,46,119,48
3,46,0,16
3,46,117,76
3,46,0,16
3,46,119,12
3,46,0,12
3,46,119,48
3,46,0,20
3,46,119,108
3,46,0,16
3,46,119,64
3,46,0,12
3,46,117,16
3,46,0,12
3,45,115,48
3,45,0,20
3,45,113,76
3,45,0,12
3,45,109,16
3,45,0,20
3,45,115,40
3,45,0,16
3,45,117,96
3,45,0,24
3,45,115,80
3,45,0,12
3,45,117,8
3,45,0,20
3,46,121,44
3,46,0,16
3,46,117,84
3,46,0,16
3,46,119,8
3,46,0,16
3,46,121,44
3,46,0,24
3,46,119,100
3,46,0,12
3,46,119,68
3,46,0,16
3,46,119,12
3,46,0,20
3,42,119,40
3,42,0,24
3,42,121,68
3,42,0,16
3,42,121,12
3,42,0,24
3,42,121,36
3,42,0,24
3,45,117,88
3,45,0,24
3,45,115,68
3,45,0,16
3,45,119,4
3,45,0,24
3,42,119,40
3,42,0,36
3,42,121,64
3,42,0,16
3,42,119,8
3,42,0,16
3,42,121,48
3,42,0,20
3,38,117,104
3,38,0,20
3,38,117,64
3,38,0,16
3,38,115,8
3,38,0,16
3,42,119,52
3,42,0,20
3,42,119,68
3,42,0,12
3,42,117,12
3,42,0,20
3,42,121,44
3,42,0,24
3,45,115,96
3,45,0,24
3,45,107,76
3,45,0,12
3,45,115,8
3,45,0,20
3,42,121,40
3,42,0,24
3,42,121,84
3,42,0,16
3,42,121,4
3,42,0,20
3,42,121,48
3,42,0,20
3,38,115,92
3,38,0,20
3,38,113,80
3,38,0,16
3,38,113,8
3,38,0,16
3,42,119,48
3,42,0,16
3,42,121,72
3,42,0,12
3,42,119,8
3,42,0,16
3,42,121,44
3,42,0,24
3,45,115,100
3,45,0,16
3,45,117,80
3,45,0,16
3,45,115,8
3,45,0,16
3,42,119,40
3,42,0,28
3,42,121,76
3,42,0,12
3,42,121,4
3,42,0,20
3,42,123,48
3,42,0,28
3,38,117,96
3,38,0,20
3,38,117,60
3,38,0,20
3,38,117,4
3,38,0,16
3,42,119,48
3,42,0,20
3,42,119,80
3,42,0,16
3,42,119,8
3,42,0,16
3,42,121,48
3,42,0,24
3,45,115,96
3,45,0,16
3,45,115,64
3,45,0,16
3,45,115,8
3,45,0,16
3,42,119,44
3,42,0,28
3,42,121,84
3,42,0,12
3,42,119,4
3,42,0,16
3,42,121,44
3,42,0,24
3,38,117,96
3,38,0,20
3,38,111,72
3,38,0,16
3,38,117,4
3,38,0,16
3,42,119,44
3,42,0,20
4,57,109,1924
4,57,0,60
4,69,95,0
4,64,105,60
4,69,0,8
4,67,107,52
4,64,0,4
4,66,111,56
4,67,0,12
4,66,0,108
4,62,107,0
4,68,115,124
4,62,0,8
4,65,107,52
4,68,0,8
4,63,109,52
4,65,0,8
4,63,0,56
4,62,113,0
4,62,0,120
4,58,111,0
4,57,107,180
4,58,0,4
4,69,107,48
4,57,0,8
4,64,103,52
4,69,0,8
4,67,105,52
4,64,0,4
4,66,113,56
4,67,0,8
4,66,0,120
4,62,107,0
4,68,113,124
4,62,0,4
4,65,109,44
4,68,0,4
4,63,109,60
4,65,0,8
4,63,0,52
4,62,113,0
4,58,113,124
4,62,0,8
4,57,111,172
4,58,0,4
4,57,0,44
4,69,111,0
4,64,105,60
4,69,0,8
4,67,107,48
4,64,0,4
4,66,111,60
4,67,0,8
4,66,0,116
4,62,105,0
4,68,113,128
4,62,0,4
4,65,111,44
4,68,0,8
4,63,109,56
4,65,0,8
4,62,111,56
4,63,0,4
4,58,111,124
4,62,0,8
4,58,0,152
4,66,111,4
4,64,109,420
4,66,0,4
4,66,111,20
4,64,0,8
4,64,113,32
4,66,0,4
4,61,109,424
4,64,0,4
4,64,101,20
4,61,0,4
4,61,97,32
4,64,0,8
4,59,107,408
4,61,0,4
4,61,115,20
4,59,0,8
4,59,111,24
4,61,0,8
4,59,0,412
4,57,111,7748
4,57,0,48
4,69,103,0
4,64,109,60
4,69,0,8
4,67,107,52
4,64,0,8
4,66,113,60
4,67,0,8
4,66,0,112
4,62,105,0
4,68,113,116
4,62,0,8
4,65,111,52
4,68,0,4
4,63,109,60
4,65,0,8
4,63,0,56
4,62,111,0
4,58,115,116
4,62,0,12
4,57,109,168
4,58,0,4
4,69,109,48
4,57,0,4
4,64,109,60
4,69,0,4
4,67,105,56
4,64,0,4
4,66,113,56
4,67,0,8
4,66,0,108
4,62,107,0
4,68,115,120
4,62,0,4
4,68,0,64
4,65,97,0
4,63,105,64
4,65,0,8
4,63,0,48
4,62,111,0
4,58,115,120
