track,note,velocity,time
1,40,116,611
1,40,0,29
1,40,108,31
1,40,0,29
1,40,112,6
1,40,0,29
1,40,112,26
1,40,0,29
1,40,116,31
1,40,0,4
1,40,108,6
1,40,0,9
1,40,116,31
1,40,0,29
1,40,112,0
1,40,0,14
1,40,112,0
1,40,0,9
1,40,112,16
1,40,0,14
1,40,116,11
1,40,0,14
1,40,112,6
1,40,0,14
1,40,112,6
1,40,0,4
1,40,112,26
1,40,0,9
1,40,112,0
1,40,0,29
1,40,112,10
1,40,0,29
1,40,112,15
1,40,0,4
1,40,108,0
1,40,0,9
1,40,112,31
1,40,0,24
1,40,104,21
1,40,0,14
1,40,116,6
1,40,0,4
1,40,108,31
1,40,0,29
1,40,112,31
1,40,0,9
1,40,112,5
1,40,0,9
1,40,112,5
1,40,0,29
1,40,108,31
1,40,0,29
1,40,112,6
1,40,0,9
1,40,108,6
1,40,0,19
1,40,112,6
1,40,0,14
1,40,108,0
1,40,0,9
1,40,112,0
1,40,0,14
1,40,112,5
1,40,0,19
1,40,116,5
1,40,0,14
1,40,108,0
1,40,0,29
1,40,112,31
1,40,0,9
1,40,112,6
1,40,0,29
1,40,112,6
1,40,0,24
1,40,104,31
1,40,0,29
1,40,112,31
1,40,0,29
1,40,112,31
1,40,0,29
1,40,116,0
1,40,0,29
1,40,108,31
1,40,0,19
1,40,112,31
1,40,0,29
1,40,112,31
1,40,0,29
1,40,112,31
1,40,0,29
1,40,116,31
1,40,0,29
1,40,116,31
1,40,0,29
1,40,112,31
1,40,0,29
1,38,116,31
1,38,0,29
1,38,112,31
1,38,0,29
1,38,124,31
1,38,0,29
1,38,116,31
1,38,0,29
1,38,120,31
1,38,0,29
1,38,116,31
1,38,0,29
1,38,124,31
1,38,0,29
1,38,116,31
1,38,0,29
1,40,116,31
1,40,0,29
1,40,112,31
1,40,0,29
1,40,116,31
1,40,0,29
1,40,112,31
1,40,0,29
1,40,112,31
1,40,0,29
1,40,108,31
1,40,0,29
1,40,112,31
1,40,0,29
1,40,112,31
1,40,0,29
1,40,116,31
1,40,0,29
1,40,116,31
1,40,0,29
1,40,116,31
1,40,0,29
1,40,112,31
1,40,0,29
1,40,112,31
1,40,0,29
1,40,112,31
1,40,0,29
1,40,112,31
1,40,0,29
1,40,116,31
1,40,0,29
1,40,112,31
1,40,0,29
1,40,108,31
1,40,0,29
1,40,112,31
1,40,0,29
1,40,112,31
1,40,0,29
1,40,116,31
1,40,0,29
1,40,112,31
1,40,0,29
1,40,116,31
1,40,0,29
1,40,112,31
1,40,0,29
1,38,120,31
1,38,0,29
1,38,112,31
1,38,0,29
1,38,112,31
1,38,0,29
1,38,112,31
1,38,0,29
1,38,120,31
1,38,0,29
1,38,112,31
1,38,0,29
1,38,120,31
1,38,0,29
1,38,116,31
1,38,0,29
1,40,116,31
1,40,0,29
1,40,116,31
1,40,0,29
1,40,120,31
1,40,0,29
1,40,116,31
1,40,0,29
1,40,116,31
1,40,0,29
1,40,108,31
1,40,0,29
1,40,108,31
1,40,0,29
1,40,104,31
1,40,0,29
1,45,108,31
1,45,0,29
1,45,108,31
1,45,0,29
1,45,112,31
1,45,0,29
1,45,108,31
1,45,0,29
1,45,108,31
1,45,0,29
1,45,104,31
1,45,0,29
1,45,108,31
1,45,0,29
1,45,108,31
1,45,0,29
1,45,108,31
1,45,0,29
1,45,100,31
1,45,0,29
1,45,112,31
1,45,0,29
1,45,104,31
1,45,0,29
1,45,108,31
1,45,0,29
1,45,104,31
1,45,0,29
1,45,112,31
1,45,0,29
1,45,108,31
1,45,0,29
1,47,108,31
1,47,0,29
1,47,104,31
1,47,0,29
1,47,112,31
1,47,0,29
1,47,104,31
1,47,0,29
1,47,108,31
1,47,0,29
1,47,100,31
1,47,0,29
1,47,112,31
1,47,0,29
1,47,108,31
1,47,0,29
1,47,108,31
1,47,0,29
1,47,112,31
1,47,0,29
1,47,104,31
1,47,0,29
1,47,108,31
1,47,0,29
1,47,112,31
1,47,0,29
1,47,108,31
1,47,0,29
1,47,108,31
1,47,0,29
1,47,108,31
1,47,0,29
1,40,104,31
1,40,0,960
1,40,120,0
1,40,0,210
1,40,120,30
1,40,0,210
1,36,120,30
1,36,0,150
1,36,116,30
1,36,0,300
1,38,120,0
1,38,0,210
1,38,120,30
1,38,0,210
1,40,120,30
1,40,0,150
1,40,116,30
1,40,0,270
1,40,120,30
1,40,0,210
1,40,120,30
1,40,0,210
1,36,120,30
1,36,0,150
1,36,116,30
1,36,0,300
1,38,120,0
1,38,0,210
1,38,120,30
1,38,0,210
1,40,120,30
1,40,0,150
1,40,116,30
1,40,0,270
1,40,116,30
1,40,0,29
1,40,108,31
1,40,0,29
1,40,112,31
1,40,0,29
1,40,112,31
1,40,0,29
1,40,112,31
1,40,0,29
1,40,104,31
1,40,0,29
1,40,112,31
1,40,0,29
1,40,112,31
1,40,0,29
1,40,116,31
1,40,0,29
1,40,108,31
1,40,0,29
1,40,112,31
1,40,0,29
1,40,112,31
1,40,0,29
1,40,112,31
1,40,0,29
1,40,116,31
1,40,0,29
1,40,116,31
1,40,0,29
1,40,112,31
1,40,0,29
1,38,116,31
1,38,0,29
1,38,112,31
1,38,0,29
1,38,124,31
1,38,0,29
1,38,116,31
1,38,0,29
1,38,120,31
1,38,0,29
1,38,116,31
1,38,0,29
1,38,124,31
1,38,0,29
1,38,116,31
1,38,0,29
1,40,116,31
1,40,0,29
1,40,112,31
1,40,0,29
1,40,116,31
1,40,0,29
1,40,112,31
1,40,0,29
1,40,112,31
1,40,0,29
1,40,108,31
1,40,0,29
1,40,112,31
1,40,0,29
1,40,112,31
1,40,0,29
1,40,116,31
1,40,0,29
1,40,116,31
1,40,0,29
1,40,116,31
1,40,0,29
1,40,112,31
1,40,0,29
1,40,112,31
1,40,0,29
1,40,112,31
1,40,0,29
1,40,112,31
1,40,0,29
1,40,116,31
1,40,0,29
1,40,112,31
1,40,0,29
1,40,108,31
1,40,0,29
1,40,112,31
1,40,0,29
1,40,112,31
1,40,0,29
1,40,116,31
1,40,0,29
1,40,112,31
1,40,0,29
1,40,116,31
1,40,0,29
1,40,112,31
1,40,0,29
1,38,120,31
1,38,0,29
1,38,112,31
1,38,0,29
1,38,112,31
1,38,0,29
1,38,112,31
1,38,0,29
1,38,120,31
1,38,0,29
1,38,112,31
1,38,0,29
1,38,120,31
1,38,0,29
1,38,116,31
1,38,0,29
1,40,116,31
1,40,0,29
1,40,116,31
1,40,0,29
1,40,120,31
1,40,0,29
1,40,116,31
1,40,0,29
1,40,116,31
1,40,0,29
1,40,108,31
1,40,0,29
1,40,108,31
1,40,0,29
1,40,104,31
1,40,0,29
1,45,108,31
1,45,0,29
1,45,108,31
1,45,0,29
1,45,112,31
1,45,0,29
1,45,108,31
1,45,0,29
1,45,108,31
1,45,0,29
1,45,104,31
1,45,0,29
1,45,108,31
1,45,0,29
1,45,108,31
1,45,0,29
1,45,108,31
1,45,0,29
1,45,100,31
1,45,0,29
1,45,112,31
1,45,0,29
1,45,104,31
1,45,0,29
1,45,108,31
1,45,0,29
1,45,104,31
1,45,0,29
1,45,112,31
1,45,0,29
1,45,108,31
1,45,0,29
1,47,108,31
1,47,0,29
1,47,104,31
1,47,0,29
1,47,112,31
1,47,0,29
1,47,104,31
1,47,0,29
1,47,108,31
1,47,0,29
1,47,100,31
1,47,0,29
1,47,112,31
1,47,0,29
1,47,108,31
1,47,0,29
1,47,108,31
1,47,0,29
1,47,112,31
1,47,0,29
1,47,104,31
1,47,0,29
1,47,108,31
1,47,0,29
1,47,112,31
1,47,0,29
1,47,108,31
1,47,0,29
1,47,108,31
1,47,0,29
1,47,108,31
1,47,0,29
1,40,104,31
1,40,0,960
1,40,120,0
1,40,0,210
1,40,120,30
1,40,0,210
1,36,120,30
1,36,0,150
1,36,116,30
1,36,0,300
1,38,120,0
1,38,0,210
1,38,120,30
1,38,0,210
1,40,120,30
1,40,0,150
1,40,116,30
1,40,0,270
1,40,120,30
1,40,0,210
1,40,120,30
1,40,0,210
1,36,120,30
1,36,0,150
1,36,116,30
1,36,0,300
1,38,120,0
1,38,0,210
1,38,120,30
1,38,0,210
1,40,120,30
1,40,0,150
1,40,116,30
1,40,0,270
1,45,112,30
1,57,120,120
1,57,0,59
1,57,112,1
1,57,0,59
1,57,116,121
1,57,0,59
1,57,112,1
1,57,0,59
1,45,0,1
1,40,120,0
1,52,116,120
1,52,0,59
1,52,116,1
1,52,0,59
1,52,120,121
1,52,0,59
1,52,112,1
1,52,0,59
1,40,0,1
1,45,116,0
1,57,124,120
1,57,0,59
1,57,112,1
1,57,0,59
1,57,120,121
1,57,0,59
1,57,108,1
1,57,0,59
1,45,0,1
1,40,112,0
1,52,112,120
1,52,0,59
1,52,108,1
1,52,0,59
1,52,116,121
1,52,0,59
1,52,108,1
1,52,0,59
1,40,0,1
1,45,124,0
1,57,116,120
1,57,0,59
1,57,112,1
1,57,0,59
1,57,116,121
1,57,0,59
1,57,108,1
1,57,0,59
1,45,0,1
1,40,116,0
1,52,116,120
1,52,0,59
1,52,108,1
1,52,0,59
1,52,116,121
1,52,0,59
1,52,112,1
1,52,0,59
1,40,0,1
1,38,116,0
1,50,116,120
1,50,0,59
1,50,112,1
1,50,0,59
1,50,120,121
1,50,0,59
1,50,108,1
1,50,0,59
1,38,0,1
1,40,112,0
1,52,112,120
1,52,0,59
1,52,112,1
1,52,0,59
1,52,116,121
1,52,0,59
1,52,116,1
1,40,0,60
1,40,120,0
1,52,0,60
1,40,0,150
1,40,120,30
1,40,0,210
1,36,120,30
1,36,0,150
1,36,116,30
1,36,0,300
1,38,120,0
1,38,0,210
1,38,120,30
1,38,0,210
1,40,120,30
1,40,0,150
1,40,116,30
1,40,0,270
1,40,120,30
1,40,0,210
1,40,120,30
1,40,0,210
1,36,120,30
1,36,0,150
1,36,116,30
1,36,0,300
1,38,120,0
1,38,0,210
1,38,120,30
1,38,0,210
1,40,120,30
1,40,0,150
1,40,116,30
1,40,0,270
1,40,120,30
1,40,0,210
1,40,120,30
1,40,0,210
1,36,120,30
1,36,0,150
1,36,116,30
1,36,0,300
1,38,120,0
1,38,0,210
1,38,120,30
1,38,0,210
1,40,120,30
1,40,0,150
1,40,116,30
1,40,0,270
1,40,120,30
1,40,0,210
1,40,120,30
1,40,0,210
1,36,120,30
1,36,0,150
1,36,116,30
1,36,0,300
1,38,120,0
1,38,0,210
1,38,120,30
1,38,0,210
1,40,120,30
1,40,0,150
1,40,116,30
1,40,0,270
1,40,116,30
1,40,0,29
1,40,108,31
1,40,0,29
1,40,112,31
1,40,0,29
1,40,112,31
1,40,0,29
1,40,116,31
1,40,0,29
1,40,108,31
1,40,0,29
1,40,116,31
1,40,0,29
1,40,112,31
1,40,0,29
1,40,112,31
1,40,0,29
1,40,112,31
1,40,0,29
1,40,116,31
1,40,0,29
1,40,112,31
1,40,0,29
1,40,112,31
1,40,0,29
1,40,112,31
1,40,0,29
1,40,112,31
1,40,0,29
1,40,112,31
1,40,0,29
1,40,112,31
1,40,0,29
1,40,108,31
1,40,0,29
1,40,112,31
1,40,0,29
1,40,104,31
1,40,0,29
1,40,116,31
1,40,0,29
1,40,108,31
1,40,0,29
1,40,112,31
1,40,0,29
1,40,112,31
1,40,0,29
1,40,112,31
1,40,0,29
1,40,108,31
1,40,0,29
1,40,112,31
1,40,0,29
1,40,108,31
1,40,0,29
1,40,112,31
1,40,0,29
1,40,108,31
1,40,0,29
1,40,112,31
1,40,0,29
1,40,112,31
1,40,0,29
1,40,116,31
1,40,0,29
1,40,108,31
1,40,0,29
1,40,112,31
1,40,0,29
1,40,112,31
1,40,0,29
1,40,116,31
1,40,0,29
1,40,108,31
1,40,0,29
1,40,116,31
1,40,0,29
1,40,112,31
1,40,0,29
1,40,112,31
1,40,0,29
1,40,112,31
1,40,0,29
1,40,116,31
1,40,0,29
1,40,112,31
1,40,0,29
1,40,112,31
1,40,0,29
1,40,112,31
1,40,0,29
1,40,112,31
1,40,0,29
1,40,112,31
1,40,0,29
1,40,112,31
1,40,0,29
1,40,108,31
1,40,0,29
1,40,112,31
1,40,0,29
1,40,104,31
1,40,0,29
1,40,116,31
1,40,0,29
1,40,108,31
1,40,0,29
1,40,112,31
1,40,0,29
1,40,112,31
1,40,0,29
1,40,112,31
1,40,0,29
1,40,108,31
1,40,0,29
1,40,112,31
1,40,0,29
1,40,108,31
1,40,0,29
1,40,112,31
1,40,0,29
1,40,108,31
1,40,0,29
1,40,112,31
1,40,0,29
1,40,112,31
1,40,0,29
1,40,116,31
1,40,0,29
1,40,108,31
1,40,0,29
1,40,112,31
1,40,0,29
1,40,112,31
1,40,0,29
1,40,112,31
1,40,0,29
1,40,104,31
1,40,0,29
1,40,112,31
1,40,0,29
1,40,112,31
1,40,0,29
1,40,116,31
1,40,0,29
1,40,108,31
1,40,0,29
1,40,112,31
1,40,0,29
1,40,112,31
1,40,0,29
1,40,112,31
1,40,0,29
1,40,116,31
1,40,0,29
1,40,116,31
1,40,0,29
1,40,112,31
1,40,0,29
1,38,116,31
1,38,0,29
1,38,112,31
1,38,0,29
1,38,124,31
1,38,0,29
1,38,116,31
1,38,0,29
1,38,120,31
1,38,0,29
1,38,116,31
1,38,0,29
1,38,124,31
1,38,0,29
1,38,116,31
1,38,0,29
1,40,116,31
1,40,0,29
1,40,112,31
1,40,0,29
1,40,116,31
1,40,0,29
1,40,112,31
1,40,0,29
1,40,112,31
1,40,0,29
1,40,108,31
1,40,0,29
1,40,112,31
1,40,0,29
1,40,112,31
1,40,0,29
1,40,116,31
1,40,0,29
1,40,116,31
1,40,0,29
1,40,116,31
1,40,0,29
1,40,112,31
1,40,0,29
1,40,112,31
1,40,0,29
1,40,112,31
1,40,0,29
1,40,112,31
1,40,0,29
1,40,116,31
1,40,0,29
1,40,112,31
1,40,0,29
1,40,108,31
1,40,0,29
1,40,112,31
1,40,0,29
1,40,112,31
1,40,0,29
1,40,116,31
1,40,0,29
1,40,112,31
1,40,0,29
1,40,116,31
1,40,0,29
1,40,112,31
1,40,0,29
1,38,120,31
1,38,0,29
1,38,112,31
1,38,0,29
1,38,112,31
1,38,0,29
1,38,112,31
1,38,0,29
1,38,120,31
1,38,0,29
1,38,112,31
1,38,0,29
1,38,120,31
1,38,0,29
1,38,116,31
1,38,0,29
1,40,116,31
1,40,0,29
1,40,116,31
1,40,0,29
1,40,120,31
1,40,0,29
1,40,116,31
1,40,0,29
1,40,116,31
1,40,0,29
1,40,108,31
1,40,0,29
1,40,108,31
1,40,0,29
1,40,104,31
1,40,0,29
1,45,108,31
1,45,0,29
1,45,108,31
1,45,0,29
1,45,112,31
1,45,0,29
1,45,108,31
1,45,0,29
1,45,108,31
1,45,0,29
1,45,104,31
1,45,0,29
1,45,108,31
1,45,0,29
1,45,108,31
1,45,0,29
1,45,108,31
1,45,0,29
1,45,100,31
1,45,0,29
1,45,112,31
1,45,0,29
1,45,104,31
1,45,0,29
1,45,108,31
1,45,0,29
1,45,104,31
1,45,0,29
1,45,112,31
1,45,0,29
1,45,108,31
1,45,0,29
1,47,108,31
1,47,0,29
1,47,104,31
1,47,0,29
1,47,112,31
1,47,0,29
1,47,104,31
1,47,0,29
1,47,108,31
1,47,0,29
1,47,100,31
1,47,0,29
1,47,112,31
1,47,0,29
1,47,108,31
1,47,0,29
1,47,108,31
1,47,0,29
1,47,112,31
1,47,0,29
1,47,104,31
1,47,0,29
1,47,108,31
1,47,0,29
1,47,112,31
1,47,0,29
1,47,108,31
1,47,0,29
1,47,108,31
1,47,0,29
1,47,108,31
1,47,0,29
1,40,104,31
1,40,0,960
1,40,120,0
1,40,0,210
1,40,120,30
1,40,0,210
1,36,120,30
1,36,0,150
1,36,116,30
1,36,0,300
1,38,120,0
1,38,0,210
1,38,120,30
1,38,0,210
1,40,120,30
1,40,0,150
1,40,116,30
1,40,0,270
1,40,120,30
1,40,0,210
