track,note,velocity,time
1,69,112,1152
1,71,112,64
1,72,112,64
1,72,112,192
1,71,112,192
1,69,112,508
1,67,112,64
1,69,112,64
1,67,112,128
1,66,112,128
1,67,112,128
1,67,112,128
1,67,112,128
1,67,112,128
1,67,112,128
1,62,112,128
1,81,112,4732
1,83,112,4
1,84,112,4
1,83,112,4
1,81,112,4
1,79,112,4
1,81,112,4
1,83,112,4
1,81,112,4
1,79,112,4
1,78,112,4
1,76,112,4
1,74,112,4
1,72,112,4
1,74,112,4
1,62,112,4
1,67,112,4
1,71,112,4
1,69,112,4
1,67,112,4
1,66,112,4
1,67,112,4
1,64,112,4
1,62,112,4
1,60,112,4
1,59,112,4
1,62,112,4
1,71,112,3844
1,62,112,0
1,69,112,384
1,57,112,0
1,62,112,0
1,55,112,384
1,67,112,0
1,62,112,0
1,69,112,384
1,71,112,64
1,72,112,64
1,69,112,0
1,64,112,0
1,72,112,192
1,69,112,0
1,64,112,0
1,71,112,192
1,67,112,0
1,62,112,0
1,69,112,128
1,67,112,64
1,69,112,64
1,62,112,0
1,66,112,0
1,71,112,192
1,62,112,0
1,66,112,0
1,67,112,192
1,62,112,0
1,64,112,124
1,62,112,128
1,64,112,32
1,62,112,32
1,60,112,32
1,62,112,32
1,59,112,0
1,67,112,384
1,71,112,0
1,72,112,128
1,69,112,0
1,71,112,192
1,67,112,0
1,69,112,192
1,67,112,0
1,67,112,64
1,62,112,0
1,67,112,64
1,67,112,384
1,69,112,508
1,71,112,64
1,72,112,64
1,69,112,0
1,64,112,0
1,72,112,192
1,69,112,0
1,64,112,0
1,71,112,192
1,67,112,0
1,62,112,0
1,69,112,128
1,67,112,64
1,69,112,64
1,62,112,0
1,66,112,0
1,71,112,192
1,62,112,0
1,66,112,0
1,67,112,192
1,62,112,0
1,64,112,124
1,62,112,128
1,64,112,32
1,62,112,32
1,60,112,32
1,62,112,32
1,59,112,0
1,67,112,384
1,71,112,0
1,72,112,128
1,69,112,0
1,71,112,192
1,67,112,0
1,69,112,192
1,67,112,0
1,67,112,64
1,62,112,0
1,67,112,64
1,67,112,384
1,72,112,892
1,69,112,0
1,64,112,0
1,72,112,256
1,69,112,0
1,64,112,0
1,72,112,128
1,64,112,0
1,69,112,0
1,71,112,64
1,67,112,0
1,62,112,0
1,71,112,192
1,67,112,0
1,62,112,0
1,71,112,256
1,67,112,0
1,62,112,0
1,71,112,128
1,69,112,64
1,67,112,256
1,69,112,64
1,66,112,0
1,62,112,0
1,67,112,128
1,59,112,64
1,67,112,0
1,62,112,0
1,67,112,1660
1,71,112,0
1,71,112,80
1,72,112,16
1,69,112,0
1,71,112,192
1,67,112,0
1,67,112,144
1,69,112,16
1,67,112,64
1,62,112,0
1,67,112,64
1,67,112,384
1,72,112,892
1,69,112,0
1,64,112,0
1,72,112,0
1,69,112,0
1,64,112,0
1,72,112,64
1,69,112,0
1,64,112,0
1,72,112,0
1,69,112,0
1,64,112,0
1,72,112,128
1,64,112,0
1,69,112,0
1,71,112,64
1,67,112,0
1,62,112,0
1,71,112,192
1,67,112,0
1,62,112,0
1,71,112,256
1,67,112,0
1,62,112,0
1,71,112,128
1,69,112,64
1,69,112,64
1,67,112,64
1,69,112,64
1,66,112,0
1,62,112,0
1,67,112,64
1,64,112,0
1,60,112,0
1,62,112,256
1,59,112,0
1,67,112,0
1,64,112,256
1,67,112,0
1,67,112,512
1,62,112,0
1,67,112,640
1,71,112,0
1,69,112,128
1,72,112,0
1,71,112,192
1,67,112,0
1,74,112,0
1,69,112,192
1,67,112,0
1,74,112,48
1,67,112,16
1,62,112,0
1,74,112,0
1,76,112,64
1,72,112,0
1,67,112,0
1,67,112,16
1,74,112,48
1,72,112,0
1,74,112,256
1,72,112,0
1,67,112,0
1,64,112,0
1,69,112,1984
1,71,112,192
1,79,112,64
1,67,112,768
1,69,112,64
1,76,112,64
1,62,112,256
1,64,112,64
1,72,112,64
1,69,112,2044
1,71,112,192
1,79,112,64
1,67,112,768
1,69,112,64
1,76,112,64
1,62,112,256
1,64,112,64
1,72,112,64
1,69,112,2044
1,71,112,192
1,79,112,64
1,67,112,768
1,69,112,64
1,76,112,64
1,62,112,256
1,64,112,64
1,72,112,64
1,69,112,2044
1,71,112,192
1,79,112,64
1,67,112,768
1,69,112,64
1,76,112,64
1,62,112,256
1,64,112,64
1,72,112,64
1,79,112,316
1,83,112,64
1,86,112,64
1,84,112,64
1,83,112,64
1,84,112,64
1,83,112,64
1,81,112,64
1,79,112,64
1,81,112,64
1,79,112,64
1,76,112,64
1,79,112,64
1,76,112,64
1,74,112,64
1,76,112,64
1,74,112,64
1,71,112,64
1,74,112,64
1,71,112,64
1,69,112,64
1,71,112,64
1,69,112,64
1,67,112,64
1,64,112,64
1,69,112,64
1,67,112,64
1,64,112,64
1,67,112,64
1,64,112,128
1,67,112,128
1,64,112,128
1,62,112,192
1,62,112,256
1,64,112,64
1,67,112,128
1,69,112,128
1,69,112,80
1,71,112,16
1,71,112,128
1,69,112,64
1,67,112,64
1,69,112,64
1,67,112,64
1,64,112,64
1,67,112,64
1,69,112,128
1,67,112,128
1,81,112,4028
1,86,112,4
1,83,112,4
1,86,112,4
1,83,112,4
1,86,112,4
1,88,112,4
1,88,112,4
1,86,112,4
1,86,112,4
1,83,112,4
1,83,112,4
1,81,112,4
1,81,112,4
1,79,112,4
1,79,112,4
1,76,112,4
1,76,112,4
1,76,112,4
1,74,112,4
1,74,112,4
1,71,112,4
1,71,112,4
1,71,112,4
1,69,112,4
1,67,112,132
1,64,112,132
1,67,112,132
1,67,112,128
1,62,112,448
1,64,112,64
1,67,112,64
1,72,112,64
1,64,112,0
1,71,112,192
1,62,112,0
1,79,112,196
1,71,112,0
1,78,112,320
1,69,112,0
1,84,112,448
1,76,112,0
1,83,112,4
1,74,112,0
1,81,112,4
1,72,112,0
1,79,112,4
1,71,112,0
1,78,112,4
1,69,112,0
1,76,112,4
1,67,112,0
1,74,112,4
1,67,112,0
1,74,112,4
1,67,112,0
1,86,112,2116
1,83,112,128
1,69,112,2624
1,71,112,64
1,72,112,64
1,69,112,0
1,64,112,0
1,72,112,192
1,69,112,0
1,64,112,0
1,71,112,192
1,67,112,0
1,62,112,0
1,69,112,128
1,67,112,64
1,69,112,64
1,62,112,0
1,66,112,0
1,71,112,192
1,62,112,0
1,66,112,0
1,67,112,192
1,62,112,0
1,64,112,124
1,62,112,128
1,59,112,0
1,67,112,4
1,71,112,0
1,72,112,128
1,69,112,0
1,71,112,192
1,67,112,0
1,69,112,192
1,66,112,0
1,67,112,4
1,64,112,0
1,67,112,4
1,62,112,0
1,62,112,4
1,67,112,0
1,57,112,4
1,59,112,192
1,67,110,64
1,55,107,768
1,57,106,64
1,64,105,64
1,50,101,256
1,52,100,64
1,60,100,64
1,57,84,772
1,59,84,192
1,67,82,64
1,55,79,768
1,57,78,64
1,64,77,64
1,50,73,256
1,52,72,64
1,60,72,64
1,57,56,4
1,59,56,192
1,67,54,64
1,55,51,768
1,57,50,64
1,64,49,64
1,50,45,256
1,52,44,64
1,60,44,64
1,57,28,4
1,59,28,192
1,67,26,64
1,55,23,768
1,57,22,64
1,64,21,64
1,50,17,256
1,52,16,64
1,60,16,64
2,64,93,1536
2,64,93,192
2,62,93,192
2,62,93,508
2,62,93,128
2,64,93,128
2,62,93,128
2,60,93,128
2,64,93,128
2,62,93,128
2,60,93,128
2,59,93,128
2,57,93,128
2,59,93,128
2,55,93,128
2,64,93,1792
2,62,93,4
2,69,93,4
2,76,93,0
2,71,93,384
2,74,93,0
2,74,93,508
2,66,93,0
2,72,93,384
2,67,93,0
2,59,93,1276
2,62,93,128
2,62,93,32
2,64,93,32
2,64,93,128
2,62,93,128
2,60,93,64
2,59,93,64
2,67,93,128
2,62,93,21628
2,64,93,0
2,62,93,192
2,62,93,192
2,62,93,128
2,62,93,384
2,64,93,384
2,62,93,8188
2,64,93,0
2,62,93,192
2,62,93,192
2,62,93,128
2,62,93,384
2,64,93,384
2,72,93,892
2,69,93,0
2,64,93,0
2,60,93,0
2,71,93,508
2,67,93,0
2,62,93,0
2,59,93,0
2,69,93,508
2,66,93,0
2,62,93,0
2,59,93,0
2,60,93,384
2,62,93,2044
2,64,93,0
2,62,93,192
2,62,93,192
2,62,93,128
2,64,93,384
2,72,93,1152
2,69,93,0
2,64,93,0
2,60,93,0
2,71,93,508
2,67,93,0
2,62,93,0
2,59,93,0
2,69,93,508
2,66,93,0
2,62,93,0
2,64,93,640
2,60,93,0
2,62,93,768
2,64,93,32
2,62,93,32
2,60,93,32
2,62,93,1184
2,64,93,0
2,62,93,192
2,62,93,192
2,62,93,128
2,64,93,384
2,60,93,48
2,62,93,1360
2,67,93,0
2,67,93,508
2,64,93,0
2,64,93,124
2,60,93,0
2,67,93,0
2,62,93,2428
2,67,93,0
2,67,93,508
2,64,93,0
2,64,93,124
2,60,93,0
2,67,93,0
2,62,93,2428
2,67,93,0
2,67,93,508
2,64,93,0
2,64,93,124
2,60,93,0
2,67,93,0
2,62,93,2428
2,67,93,0
2,67,93,508
2,64,93,0
2,64,93,124
2,60,93,0
2,67,93,0
2,50,93,51580
2,55,93,0
2,55,87,508
2,52,87,0
2,52,83,124
2,48,83,0
2,55,83,0
2,50,69,4
2,55,69,0
2,55,64,508
2,52,64,0
2,52,60,124
2,48,60,0
2,55,60,0
2,50,46,4
2,55,46,0
2,55,40,508
2,52,40,0
2,52,37,124
2,48,37,0
2,55,37,0
2,50,23,4
2,55,23,0
2,55,17,508
2,52,17,0
2,52,13,124
2,48,13,0
2,55,13,0
3,57,65,1536
3,55,65,384
3,62,65,86752
3,64,65,32
3,67,65,128
3,69,65,128
3,69,65,16
3,71,65,16
3,71,65,128
3,71,65,64
3,69,65,128
3,67,65,16
3,69,65,3856
3,71,65,32
3,72,65,128
3,74,65,80
3,74,65,112
3,76,65,128
3,74,65,64
3,62,65,4000
3,64,65,32
3,67,65,128
3,69,65,128
3,69,65,96
3,71,65,32
3,71,65,128
3,71,65,64
3,69,65,128
3,67,65,16
3,57,65,11632
3,74,65,2176
3,60,65,3136
3,59,65,4
3,55,65,4
3,62,65,4
3,57,65,4
3,57,65,4
3,64,65,4
3,57,65,4
3,62,65,4
3,62,65,4
3,67,65,4
3,74,65,4
3,69,65,4
3,64,65,4
3,69,65,4
3,74,65,4
3,76,65,4
3,69,65,4
3,74,65,4
3,76,65,4
3,78,65,4
3,74,65,4
3,69,65,4
3,79,65,4
3,86,65,1444
3,87,65,28
3,81,65,988
3,82,65,4
3,74,65,1636
3,75,65,4
3,71,65,5284
3,69,65,64
3,71,65,64
3,74,65,64
3,78,65,832
3,74,65,64
3,76,65,64
3,78,65,64
3,74,65,16
3,81,65,368
3,79,65,416
3,78,65,320
3,76,65,368
3,62,65,1760
3,62,65,4
3,67,65,4
3,74,65,4
3,74,65,4
3,76,65,4
3,69,65,4
3,74,65,4
3,74,65,4
3,81,65,64
3,74,65,64
3,79,65,64
3,86,65,64
3,83,65,128
3,79,65,128
3,74,65,128
3,74,65,192
3,71,65,64
3,67,65,128
3,62,65,128
3,69,39,22528
3,71,38,4
3,67,37,4
3,62,37,4
3,62,35,192
3,64,34,128
3,62,33,128
3,74,23,3712
3,79,22,64
3,83,22,64
3,86,21,64
3,84,21,64
3,83,20,64
3,79,20,64
3,76,19,64
3,74,18,64
3,71,18,64
3,67,18,64
3,64,17,64
3,62,16,64
3,70,3,4816
3,71,3,0
3,74,3,0
3,67,2,192
3,71,1,48
3,67,1,80
3,62,1,0
4,45,43,1536
4,40,43,4
4,38,43,4
4,36,43,4
4,62,43,1152
4,43,43,0
4,64,43,0
4,62,43,192
4,62,43,192
4,38,43,4
4,62,43,0
4,62,43,384
4,36,43,4
4,43,43,6148
4,38,43,4
4,36,43,4
5,69,59,1536
5,64,59,0
5,60,59,0
5,62,59,4
5,59,59,0
5,67,59,0
5,59,59,4
5,55,59,0
5,66,59,0
5,62,59,0
5,60,59,4
5,67,59,0
5,64,59,0
5,62,59,4
5,55,59,0
5,59,59,0
5,67,59,0
5,64,59,4
5,55,59,0
5,64,59,4
5,69,59,0
5,64,59,384
5,71,59,0
5,62,59,508
5,66,59,0
5,60,59,384
5,67,59,0
5,67,59,508
5,62,59,0
5,59,59,0
5,66,59,4
5,57,59,0
5,62,59,0
5,62,59,4
5,64,59,0
5,67,59,0
5,55,59,0
5,57,59,256
5,57,59,384
5,67,59,0
5,64,59,0
5,62,59,0
5,55,59,384
5,67,59,0
5,62,59,0
5,64,59,0
5,69,59,2304
5,64,59,0
5,67,59,508
5,62,59,0
5,66,59,508
5,62,59,0
5,64,59,508
5,62,59,0
5,62,59,508
5,69,59,508
5,64,59,0
5,67,59,508
5,62,59,0
5,66,59,508
5,62,59,0
5,64,59,508
5,62,59,0
5,62,59,508
5,69,59,49660
5,64,59,0
5,67,59,508
5,62,59,0
5,66,59,508
5,62,59,0
5,64,59,508
5,62,59,0
5,62,59,508
5,59,59,0
5,59,59,508
5,59,59,508
5,57,59,508
5,69,59,508
5,64,59,0
5,72,59,0
5,67,59,508
5,62,59,0
5,71,59,0
5,66,59,508
5,62,59,0
5,69,59,0
5,64,59,508
5,62,59,0
5,67,59,0
5,62,59,508
5,67,59,0
5,66,59,508
5,66,59,508
5,64,59,508
5,69,59,508
5,64,59,0
5,72,59,0
5,84,59,0
5,79,59,0
5,67,59,508
5,62,59,0
5,83,59,0
5,71,59,0
5,79,59,0
5,66,59,508
5,62,59,0
5,81,59,0
5,78,59,0
5,69,59,0
5,64,59,508
5,62,59,0
5,79,59,0
5,76,59,0
5,67,59,0
5,62,59,508
5,79,59,0
5,74,59,0
5,71,59,0
5,67,59,0
5,78,59,508
5,74,59,0
5,69,59,0
5,66,59,0
5,74,59,508
5,69,59,0
5,66,59,0
5,79,59,0
5,78,59,256
5,76,59,256
5,72,59,0
5,67,59,0
5,64,59,0
5,69,59,508
5,64,59,0
5,84,59,0
5,88,59,0
5,79,59,0
5,72,59,0
5,76,59,0
5,67,59,508
5,62,59,0
5,86,59,0
5,83,59,0
5,79,59,0
5,74,59,0
5,71,59,0
5,66,59,508
5,62,59,0
5,86,59,0
5,83,59,0
5,79,59,0
5,74,59,0
5,69,59,0
5,64,59,508
5,62,59,0
5,84,59,0
5,79,59,0
5,76,59,0
5,72,59,0
5,67,59,0
5,62,59,508
5,86,59,0
5,83,59,0
5,79,59,0
5,74,59,0
5,71,59,0
5,67,59,0
5,86,59,508
5,83,59,0
5,79,59,0
5,74,59,0
5,71,59,0
5,66,59,0
5,79,59,508
5,74,59,0
5,71,59,0
5,66,59,0
5,86,59,0
5,84,59,508
5,79,59,0
5,76,59,0
5,72,59,0
5,67,59,0
5,64,59,0
6,36,87,26112
6,36,87,192
6,38,87,64
6,36,87,256
6,36,87,256
6,38,87,640
6,36,87,256
6,36,87,256
6,36,87,4
6,38,87,64
6,36,87,256
6,36,87,256
6,38,87,640
6,36,87,256
6,36,87,256
6,36,87,192
6,38,87,64
6,36,87,256
6,36,87,256
6,38,87,640
6,36,87,256
6,36,87,256
6,36,87,192
6,38,87,64
6,36,87,256
6,36,87,256
6,38,87,640
6,36,87,256
6,36,87,256
6,36,87,192
6,38,87,64
6,36,87,256
6,36,87,256
6,38,87,640
6,36,87,256
6,36,87,256
6,36,87,192
6,38,87,64
6,36,87,256
6,36,87,256
6,38,87,640
6,36,87,256
6,36,87,256
6,36,87,192
6,38,87,64
6,36,87,256
6,36,87,256
6,38,87,640
6,36,87,256
6,36,87,256
6,36,87,192
6,38,87,64
6,36,87,256
6,36,87,256
6,38,87,640
6,36,87,256
6,36,87,256
6,36,87,192
6,38,87,64
6,36,87,256
6,36,87,256
6,38,87,640
6,36,87,256
6,36,87,256
6,36,87,192
6,38,87,64
6,36,87,256
6,36,87,256
6,38,87,640
6,36,87,256
6,36,87,256
6,36,87,192
6,38,87,64
6,36,87,256
6,36,87,256
6,38,87,640
6,36,87,256
6,36,87,256
6,36,87,192
6,38,87,64
