track,note,velocity,time
0,38,119,768
0,65,65,0
0,38,90,64
0,38,90,16
0,38,120,16
0,38,120,96
0,65,65,0
0,59,100,128
0,56,100,0
0,68,100,0
0,61,100,0
0,59,100,0
0,49,100,0
0,36,100,0
0,42,50,0
0,57,85,0
0,49,100,4
0,42,50,0
0,42,50,0
0,61,100,4
0,56,100,0
0,36,100,0
0,42,50,0
0,38,110,4
0,42,50,0
0,42,50,4
0,49,100,4
0,36,100,0
0,42,50,0
0,49,100,4
0,42,50,0
0,59,100,4
0,56,100,0
0,42,50,0
0,49,100,4
0,42,50,0
0,59,100,4
0,56,100,0
0,36,100,0
0,42,50,0
0,49,100,4
0,42,50,0
0,61,100,4
0,56,100,0
0,38,110,0
0,42,50,0
0,42,50,0
0,49,100,4
0,36,100,0
0,42,50,0
0,49,100,4
0,36,100,0
0,42,50,0
0,59,100,4
0,56,100,0
0,68,100,0
0,61,100,0
0,59,100,0
0,49,100,0
0,36,100,0
0,42,50,0
0,49,100,4
0,42,50,0
0,42,50,0
0,61,100,4
0,56,100,0
0,36,100,0
0,42,50,0
0,38,110,4
0,42,50,0
0,42,50,4
0,49,100,4
0,36,100,0
0,42,50,0
0,49,100,4
0,42,50,0
0,59,100,4
0,56,100,0
0,42,50,0
0,49,100,4
0,42,50,0
0,59,100,4
0,56,100,0
0,36,100,0
0,42,50,0
0,49,100,4
0,42,50,0
0,61,100,4
0,56,100,0
0,38,110,0
0,42,50,0
0,42,50,0
0,49,100,4
0,36,100,0
0,42,50,0
0,49,100,4
0,36,100,0
0,42,50,0
0,59,100,4
0,56,100,0
0,68,100,0
0,61,100,0
0,59,100,0
0,49,100,0
0,36,100,0
0,42,50,0
0,49,100,4
0,42,50,0
0,42,50,0
0,61,100,4
0,56,100,0
0,36,100,0
0,42,50,0
0,38,110,4
0,42,50,0
0,42,50,4
0,49,100,4
0,36,100,0
0,42,50,0
0,49,100,4
0,42,50,0
0,59,100,4
0,56,100,0
0,42,50,0
0,49,100,4
0,42,50,0
0,59,100,4
0,56,100,0
0,36,100,0
0,42,50,0
0,49,100,4
0,42,50,0
0,61,100,4
0,56,100,0
0,38,110,0
0,42,50,0
0,42,50,0
0,49,100,4
0,36,100,0
0,42,50,0
0,49,100,4
0,36,100,0
0,42,50,0
0,66,100,4
0,61,100,0
0,54,100,0
0,66,100,0
0,61,100,0
0,54,100,0
0,46,100,0
0,36,100,0
0,42,50,0
0,57,50,0
0,42,50,4
0,42,50,0
0,64,100,4
0,61,100,0
0,54,100,0
0,64,100,0
0,61,100,0
0,54,100,0
0,47,100,0
0,36,100,0
0,42,50,0
0,38,110,4
0,42,50,0
0,42,50,0
0,61,100,4
0,56,100,0
0,61,100,0
0,56,100,0
0,49,100,0
0,36,100,0
0,42,50,0
0,42,50,4
0,42,50,4
0,38,110,4
0,42,50,0
0,36,100,4
0,42,50,0
0,42,50,4
0,38,110,4
0,42,50,0
0,42,50,4
0,36,100,4
0,42,50,0
0,36,100,4
0,42,50,0
0,59,100,4
0,56,100,0
0,68,100,0
0,61,100,0
0,59,100,0
0,49,100,0
0,36,100,0
0,42,50,0
0,49,100,4
0,42,50,0
0,42,50,0
0,61,100,4
0,56,100,0
0,36,100,0
0,42,50,0
0,38,110,4
0,42,50,0
0,42,50,4
0,49,100,4
0,36,100,0
0,42,50,0
0,49,100,4
0,42,50,0
0,59,100,4
0,56,100,0
0,42,50,0
0,49,100,4
0,42,50,0
0,59,100,4
0,56,100,0
0,36,100,0
0,42,50,0
0,49,100,4
0,42,50,0
0,61,100,4
0,56,100,0
0,37,100,0
0,38,110,0
0,42,50,0
0,42,50,4
0,37,100,4
0,36,100,0
0,42,50,0
0,49,100,4
0,36,100,0
0,42,50,0
0,59,100,4
0,56,100,0
0,68,100,0
0,61,100,0
0,59,100,0
0,49,100,0
0,36,100,0
0,42,50,0
0,49,100,4
0,42,50,0
0,42,50,0
0,61,100,4
0,56,100,0
0,36,100,0
0,42,50,0
0,38,110,4
0,42,50,0
0,42,50,4
0,49,100,4
0,36,100,0
0,42,50,0
0,49,100,4
0,42,50,0
0,59,100,4
0,56,100,0
0,42,50,0
0,49,100,4
0,42,50,0
0,59,100,4
0,56,100,0
0,36,100,0
0,42,50,0
0,49,100,4
0,42,50,0
0,61,100,4
0,56,100,0
0,37,100,0
0,38,110,0
0,42,50,0
0,42,50,4
0,37,100,4
0,36,100,0
0,42,50,0
0,49,100,4
0,36,100,0
0,42,50,0
0,59,100,4
0,56,100,0
0,68,100,0
0,61,100,0
0,59,100,0
0,49,100,0
0,36,100,0
0,42,50,0
0,49,100,4
0,42,50,0
0,42,50,0
0,61,100,4
0,56,100,0
0,36,100,0
0,42,50,0
0,38,110,4
0,42,50,0
0,42,50,4
0,49,100,4
0,36,100,0
0,42,50,0
0,49,100,4
0,42,50,0
0,59,100,4
0,56,100,0
0,42,50,0
0,49,100,4
0,38,110,0
0,42,50,0
0,59,100,4
0,56,100,0
0,36,100,0
0,42,50,0
0,49,100,4
0,42,50,0
0,61,100,4
0,56,100,0
0,37,100,0
0,38,110,0
0,42,50,0
0,42,50,4
0,37,100,4
0,36,100,0
0,42,50,0
0,49,100,4
0,36,100,0
0,42,50,0
0,66,100,4
0,61,100,0
0,54,100,0
0,66,100,0
0,61,100,0
0,54,100,0
0,46,100,0
0,36,100,0
0,42,50,0
0,57,50,0
0,42,50,4
0,42,50,0
0,64,100,4
0,61,100,0
0,54,100,0
0,64,100,0
0,61,100,0
0,54,100,0
0,47,100,0
0,36,100,0
0,42,50,0
0,38,110,4
0,42,50,0
0,42,50,0
0,61,100,4
0,56,100,0
0,61,100,0
0,56,100,0
0,49,100,0
0,36,100,0
0,42,50,0
0,42,50,4
0,42,50,4
0,42,50,4
0,36,100,4
0,47,100,0
0,42,50,0
0,42,50,4
0,45,100,4
0,42,50,0
0,49,100,4
0,42,50,0
0,44,100,4
0,36,100,0
0,43,100,0
0,42,50,0
0,46,100,4
0,36,100,0
0,42,50,0
0,61,100,4
0,56,100,0
0,61,100,0
0,56,100,0
0,37,100,0
0,36,100,0
0,42,50,0
0,42,50,4
0,68,100,4
0,42,50,0
0,61,100,4
0,56,100,0
0,49,100,0
0,36,100,0
0,42,50,0
0,38,110,0
0,42,50,0
0,71,100,4
0,42,50,0
0,56,100,4
0,61,100,0
0,37,100,0
0,36,100,0
0,42,50,0
0,42,50,0
0,73,100,4
0,42,50,0
0,37,100,4
0,42,50,0
0,61,100,4
0,56,100,0
0,37,100,0
0,36,100,0
0,42,50,0
0,42,50,4
0,37,100,4
0,38,110,0
0,42,50,0
0,71,100,4
0,42,50,0
0,71,100,4
0,46,100,0
0,36,100,0
0,42,50,0
0,49,100,4
0,36,100,0
0,42,50,0
0,61,100,4
0,54,100,0
0,54,100,0
0,61,100,0
0,42,100,0
0,36,100,0
0,42,50,0
0,42,50,4
0,71,100,4
0,42,50,0
0,61,100,4
0,54,100,0
0,49,100,0
0,36,100,0
0,42,50,0
0,71,100,4
0,38,110,0
0,42,50,0
0,42,50,0
0,61,100,4
0,56,100,0
0,61,100,0
0,56,100,0
0,37,100,0
0,36,100,0
0,42,50,0
0,42,50,4
0,73,100,4
0,42,50,0
0,37,100,4
0,42,50,0
0,61,100,4
0,56,100,0
0,37,100,0
0,36,100,0
0,42,50,0
0,42,50,4
0,37,100,4
0,38,110,0
0,42,50,0
0,42,50,4
0,40,100,0
0,36,100,0
0,42,50,0
0,41,100,4
0,36,100,0
0,42,50,0
0,76,100,4
0,61,100,0
0,56,100,0
0,61,100,0
0,56,100,0
0,37,100,0
0,36,100,0
0,42,50,0
0,42,50,4
0,76,100,4
0,42,50,0
0,76,100,4
0,61,100,0
0,56,100,0
0,49,100,0
0,36,100,0
0,42,50,0
0,38,110,4
0,42,50,0
0,42,50,0
0,73,100,4
0,56,100,0
0,61,100,0
0,37,100,0
0,36,100,0
0,42,50,0
0,71,100,4
0,42,50,0
0,73,100,4
0,42,50,0
0,37,100,4
0,42,50,0
0,73,100,4
0,61,100,0
0,56,100,0
0,37,100,0
0,36,100,0
0,42,50,0
0,42,50,4
0,37,100,4
0,38,110,0
0,42,50,0
0,42,50,4
0,70,100,4
0,37,100,0
0,36,100,0
0,42,50,0
0,36,100,4
0,42,50,0
0,73,100,4
0,66,100,0
0,61,100,0
0,54,100,0
0,54,100,0
0,61,100,0
0,42,100,0
0,36,100,0
0,42,50,0
0,42,50,4
0,42,50,0
0,64,100,4
0,61,100,0
0,54,100,0
0,46,100,0
0,36,100,0
0,42,50,0
0,47,100,4
0,38,110,0
0,42,50,0
0,48,100,0
0,42,50,0
0,61,100,4
0,56,100,0
0,61,100,0
0,56,100,0
0,49,100,0
0,36,100,0
0,42,50,0
0,42,50,4
0,42,50,0
0,37,100,4
0,38,110,0
0,42,50,0
0,37,100,4
0,36,100,0
0,42,50,0
0,42,50,4
0,37,100,4
0,38,110,0
0,42,50,0
0,42,50,4
0,44,100,4
0,36,100,0
0,42,50,0
0,46,100,4
0,36,100,0
0,42,50,0
0,61,100,4
0,56,100,0
0,61,100,0
0,56,100,0
0,37,100,0
0,36,100,0
0,42,50,0
0,42,50,4
0,68,100,4
0,42,50,0
0,61,100,4
0,56,100,0
0,49,100,0
0,36,100,0
0,42,50,0
0,38,110,0
0,42,50,0
0,71,100,4
0,42,50,0
0,56,100,4
0,61,100,0
0,37,100,0
0,36,100,0
0,42,50,0
0,42,50,0
0,73,100,4
0,42,50,0
0,37,100,4
0,42,50,0
0,61,100,4
0,56,100,0
0,37,100,0
0,36,100,0
0,42,50,0
0,42,50,4
0,37,100,4
0,38,110,0
0,42,50,0
0,42,50,4
0,71,100,4
0,37,100,0
0,36,100,0
0,42,50,0
0,41,100,4
0,36,100,0
0,42,50,0
0,61,100,4
0,54,100,0
0,54,100,0
0,61,100,0
0,42,100,0
0,36,100,0
0,42,50,0
0,42,50,4
0,71,100,4
0,42,50,0
0,61,100,4
0,54,100,0
0,46,100,0
0,36,100,0
0,42,50,0
0,71,100,4
0,38,110,0
0,42,50,0
0,42,50,0
0,61,100,4
0,56,100,0
0,61,100,0
0,56,100,0
0,49,100,0
0,36,100,0
0,42,50,0
0,42,50,4
0,73,100,4
0,42,50,0
0,49,100,4
0,42,50,0
0,61,100,4
0,56,100,0
0,49,100,0
0,36,100,0
0,42,50,0
0,42,50,4
0,49,100,4
0,38,110,0
0,42,50,0
0,42,50,4
0,52,100,0
0,36,100,0
0,42,50,0
0,53,100,4
0,36,100,0
0,42,50,0
0,76,100,4
0,61,100,0
0,56,100,0
0,61,100,0
0,56,100,0
0,37,100,0
0,36,100,0
0,42,50,0
0,42,50,4
0,76,100,4
0,42,50,0
0,76,100,4
0,61,100,0
0,56,100,0
0,49,100,0
0,36,100,0
0,42,50,0
0,38,110,4
0,42,50,0
0,73,100,4
0,42,50,0
0,73,100,4
0,56,100,0
0,61,100,0
0,37,100,0
0,36,100,0
0,42,50,0
0,71,100,4
0,42,50,0
0,73,100,4
0,42,50,0
0,73,100,4
0,37,100,0
0,42,50,0
0,73,100,4
0,61,100,0
0,56,100,0
0,37,100,0
0,36,100,0
0,42,50,0
0,42,50,4
0,37,100,4
0,38,110,0
0,42,50,0
0,42,50,4
0,70,100,4
0,41,100,0
0,36,100,0
0,42,50,0
0,36,100,4
0,42,50,0
0,73,100,4
0,66,100,0
0,61,100,0
0,54,100,0
0,54,100,0
0,61,100,0
0,42,100,0
0,36,100,0
0,42,50,0
0,42,50,4
0,42,50,0
0,64,100,4
0,61,100,0
0,54,100,0
0,46,100,0
0,36,100,0
0,42,50,0
0,47,100,4
0,38,110,0
0,42,50,0
0,48,100,0
0,42,50,0
0,61,100,4
0,56,100,0
0,61,100,0
0,56,100,0
0,49,100,0
0,36,100,0
0,42,50,0
0,42,50,4
0,42,50,0
0,37,100,4
0,38,110,0
0,42,50,0
0,37,100,4
0,38,110,0
0,36,100,0
0,42,50,0
0,42,50,4
0,37,100,4
0,38,110,0
0,42,50,0
0,38,110,4
0,42,50,0
0,38,110,4
0,36,100,0
0,42,50,0
0,42,50,4
0,75,100,4
0,66,100,0
0,66,100,0
0,63,100,0
0,60,100,0
0,44,100,0
0,36,100,0
0,42,50,0
0,42,50,4
0,75,100,4
0,71,100,0
0,42,50,0
0,75,100,4
0,44,100,0
0,36,100,0
0,42,50,0
0,70,100,4
0,38,110,0
0,42,50,0
0,66,100,0
0,42,50,0
0,76,100,4
0,61,100,0
0,66,100,0
0,63,100,0
0,61,100,0
0,47,100,0
0,36,100,0
0,42,50,0
0,42,50,4
0,73,100,4
0,70,100,0
0,42,50,0
0,42,50,4
0,66,100,4
0,47,100,0
0,36,100,0
0,42,50,0
0,61,100,4
0,42,50,0
0,38,110,0
0,42,50,0
0,47,100,0
0,42,50,0
0,70,100,4
0,36,100,0
0,42,50,0
0,68,100,4
0,36,100,0
0,42,50,0
0,70,100,4
0,68,100,0
0,66,100,0
0,70,100,0
0,40,100,0
0,36,100,0
0,42,50,0
0,42,50,4
0,70,100,4
0,68,100,0
0,42,50,0
0,73,100,4
0,40,100,0
0,36,100,0
0,42,50,0
0,64,100,4
0,38,110,0
0,42,50,0
0,59,100,0
0,42,50,0
0,73,100,4
0,56,100,0
0,60,100,0
0,68,100,0
0,70,100,0
0,42,100,0
0,36,100,0
0,42,50,0
0,73,100,4
0,42,50,0
0,61,100,4
0,70,100,0
0,42,50,0
0,42,50,4
0,66,100,4
0,42,100,0
0,36,100,0
0,42,50,0
0,61,100,0
0,42,50,0
0,38,110,0
0,42,50,0
0,42,100,0
0,42,50,0
0,70,100,4
0,36,100,0
0,42,50,0
0,68,100,4
0,36,100,0
0,42,50,0
0,66,100,4
0,63,100,0
0,60,100,0
0,44,100,0
0,36,100,0
0,42,50,0
0,42,50,0
0,75,100,4
0,71,100,0
0,42,50,0
0,75,100,4
0,44,100,0
0,36,100,0
0,42,50,0
0,75,100,4
0,70,100,0
0,38,110,0
0,42,50,0
0,66,100,4
0,42,50,0
0,75,100,4
0,61,100,0
0,66,100,0
0,63,100,0
0,61,100,0
0,47,100,0
0,36,100,0
0,42,50,0
0,42,50,4
0,75,100,4
0,70,100,0
0,42,50,0
0,42,50,4
0,73,100,4
0,66,100,0
0,47,100,0
0,36,100,0
0,42,50,0
0,61,100,4
0,42,50,0
0,38,110,0
0,42,50,0
0,47,100,0
0,42,50,0
0,70,100,0
0,36,100,0
0,42,50,0
0,68,100,4
0,36,100,0
0,42,50,0
0,70,100,4
0,70,100,0
0,68,100,0
0,60,100,0
0,42,100,0
0,36,100,0
0,42,50,0
0,42,50,4
0,70,100,0
0,42,50,0
0,73,100,4
0,42,100,0
0,36,100,0
0,42,50,0
0,68,100,4
0,38,110,0
0,42,50,0
0,73,100,4
0,65,100,0
0,42,50,0
0,73,100,4
0,61,100,0
0,61,100,0
0,66,100,0
0,63,100,0
0,49,100,0
0,36,100,0
0,42,50,0
0,42,50,4
0,68,100,4
0,38,61,0
0,42,50,0
0,70,100,4
0,49,100,0
0,38,67,0
0,42,50,0
0,68,100,4
0,63,100,0
0,49,100,0
0,38,73,0
0,36,100,0
0,42,50,0
0,61,100,4
0,53,100,0
0,38,79,0
0,42,50,0
0,56,100,4
0,38,85,0
0,42,50,0
0,53,100,4
0,38,91,0
0,42,50,0
0,51,100,4
0,38,97,0
0,36,100,0
0,42,50,0
0,49,100,0
0,38,103,0
0,36,100,0
0,42,50,0
0,66,100,4
0,66,100,0
0,63,100,0
0,60,100,0
0,44,100,0
0,36,100,0
0,42,50,0
0,57,100,0
0,42,50,4
0,75,100,4
0,71,100,0
0,42,50,0
0,44,100,4
0,36,100,0
0,42,50,0
0,75,100,4
0,70,100,0
0,38,110,0
0,42,50,0
0,66,100,4
0,42,50,0
0,73,100,4
0,61,100,0
0,66,100,0
0,63,100,0
0,61,100,0
0,47,100,0
0,36,100,0
0,42,50,0
0,42,50,4
0,80,100,4
