track,note,velocity,time
0,62,76,0
0,46,76,0
0,53,76,0
0,58,76,0
0,62,76,5
0,53,76,0
0,58,76,70
0,62,76,10
0,51,76,0
0,55,76,125
0,58,76,135
0,62,76,0
0,55,76,5
0,58,76,85
0,46,76,155
0,62,76,5
0,53,76,30
0,58,76,150
0,62,76,150
0,53,76,5
0,58,76,5
0,51,76,0
0,62,76,0
0,86,64,0
0,82,64,0
0,55,76,5
0,58,76,40
0,62,76,45
0,55,76,0
0,58,76,0
0,62,76,0
0,46,76,0
0,70,105,0
0,53,76,0
0,82,105,0
0,58,76,0
0,62,76,25
0,77,93,5
0,53,76,0
0,58,76,10
0,79,93,0
0,62,76,15
0,51,76,0
0,74,105,0
0,55,76,0
0,58,76,20
0,62,76,30
0,55,76,5
0,70,97,0
0,58,76,85
0,72,105,10
0,58,52,115
0,62,76,5
0,46,76,0
0,74,97,5
0,70,52,20
0,53,76,5
0,58,76,135
0,62,76,135
0,65,52,135
0,53,76,5
0,67,52,70
0,58,76,5
0,62,52,60
0,51,76,10
0,62,76,5
0,55,76,0
0,58,76,155
0,62,76,5
0,58,52,125
0,55,76,0
0,60,52,75
0,58,76,10
0,62,76,135
0,62,52,0
0,46,76,5
0,53,76,5
0,58,76,130
0,62,76,155
0,65,97,0
0,53,76,145
0,67,105,5
0,70,93,20
0,58,76,5
0,51,76,0
0,62,76,0
0,74,105,15
0,55,76,25
0,58,76,130
0,62,76,0
0,55,76,5
0,70,101,0
0,58,76,30
0,72,105,0
0,46,76,125
0,62,76,0
0,74,97,5
0,53,76,5
0,58,76,120
0,53,52,20
0,62,76,0
0,55,52,150
0,53,76,0
0,58,52,75
0,58,76,0
0,62,76,150
0,51,76,0
0,62,52,0
0,55,76,5
0,58,76,100
0,62,76,10
0,58,52,145
0,55,76,5
0,60,52,0
0,58,76,0
0,62,76,0
0,46,76,0
0,62,52,0
0,53,76,0
0,58,76,10
0,62,76,0
0,53,76,55
0,58,76,5
0,51,76,20
0,55,76,30
0,58,76,30
0,62,76,5
0,41,95,8
0,46,95,77
0,48,95,15
0,48,95,25
0,62,76,25
0,53,76,0
0,34,53,5
0,50,95,43
0,50,95,15
0,53,76,15
0,58,76,5
0,62,76,5
0,70,74,5
0,53,76,10
0,72,74,15
0,58,76,0
0,34,53,5
0,55,76,50
0,62,76,0
0,74,74,0
0,39,53,5
0,55,76,15
0,58,76,10
0,62,76,10
0,55,76,0
0,51,95,8
0,58,76,10
0,51,95,5
0,50,95,10
0,50,95,28
0,53,76,12
0,62,76,0
0,34,53,0
0,46,95,0
0,41,95,10
0,53,76,22
0,58,76,35
0,62,76,5
0,53,76,25
0,77,74,0
0,58,76,15
0,79,74,0
0,39,53,0
0,62,76,0
0,55,76,0
0,74,74,0
0,55,76,25
0,58,76,10
0,62,76,5
0,55,76,10
0,41,95,15
0,58,76,5
0,46,95,10
0,48,95,0
0,48,95,25
0,34,53,5
0,62,76,0
0,53,76,0
0,50,95,2
0,50,95,23
0,53,76,10
0,58,76,30
0,62,76,114
0,53,76,10
0,70,74,0
0,58,76,10
0,72,74,5
0,39,53,45
0,55,76,0
0,62,76,0
0,74,74,5
0,55,76,25
0,58,76,40
0,62,76,5
0,55,76,5
0,55,95,30
0,58,76,0
0,55,95,18
0,53,95,67
0,53,76,5
0,60,76,0
0,41,53,5
0,53,95,3
0,50,95,13
0,53,76,20
0,48,95,2
0,57,76,152
0,60,76,0
0,65,52,87
0,53,76,5
0,62,52,0
0,58,76,0
0,60,52,0
0,60,76,0
0,53,76,0
0,41,53,0
0,53,76,0
0,57,76,5
0,60,76,160
0,58,52,30
0,41,53,20
0,53,76,5
0,48,95,10
0,57,52,60
0,36,53,15
0,57,76,0
0,50,95,3
0,51,95,58
0,44,53,0
0,60,76,0
0,50,95,0
0,56,52,5
0,51,95,5
0,51,76,45
0,48,95,10
0,56,76,75
0,60,76,150
0,51,76,125
0,39,53,0
0,58,76,0
0,55,52,130
0,32,53,5
0,60,76,0
0,51,76,115
0,55,76,50
0,56,52,135
0,60,76,5
0,44,53,0
0,51,76,100
0,48,95,3
0,50,95,80
0,56,76,2
0,51,95,54
0,55,95,59
0,57,52,0
0,41,53,5
0,60,76,5
0,53,95,35
0,53,95,28
0,53,76,7
0,41,53,70
0,57,76,0
0,58,52,20
0,41,53,10
0,60,76,0
0,53,76,5
0,41,53,70
0,58,76,0
0,41,53,40
0,60,76,0
0,60,52,0
0,53,76,5
0,41,53,50
0,57,76,0
0,60,76,40
0,41,53,5
0,53,76,0
0,86,68,0
0,82,68,0
0,41,95,15
0,46,95,70
0,41,53,0
0,57,76,5
0,48,95,5
0,53,76,0
0,48,95,0
0,62,76,5
0,34,53,0
0,34,61,0
0,46,53,0
0,53,85,0
0,62,101,0
0,50,95,0
0,53,76,10
0,53,85,5
0,53,66,0
0,50,95,3
0,62,74,0
0,58,76,0
0,62,85,0
0,62,76,5
0,53,76,0
0,46,53,0
0,53,85,0
0,53,64,0
0,58,76,0
0,39,69,65
0,58,65,0
0,55,61,5
0,62,73,0
0,55,56,0
0,39,53,0
0,62,76,0
0,55,76,0
0,55,85,0
0,55,76,5
0,58,76,15
0,62,76,10
0,51,95,8
0,55,76,0
0,51,95,32
0,58,76,0
0,50,95,2
0,50,95,30
0,62,89,45
0,62,76,0
0,53,76,0
0,34,53,0
0,34,57,0
0,46,53,0
0,53,69,0
0,46,95,30
0,53,76,35
0,53,85,5
0,53,58,0
0,41,95,20
0,58,76,35
0,62,85,5
0,62,69,0
0,62,76,5
0,46,53,0
0,53,76,0
0,53,85,0
0,53,59,0
0,58,76,0
0,55,76,0
0,62,76,0
0,39,61,0
0,55,57,0
0,58,65,0
0,62,77,0
0,39,53,0
0,55,85,0
0,55,62,0
0,55,76,0
0,58,76,10
0,62,76,0
0,55,76,0
0,41,95,5
0,46,95,15
0,41,53,5
0,58,76,0
0,48,95,25
0,48,95,5
0,53,76,15
0,34,53,0
0,62,76,0
0,34,65,0
0,46,65,0
0,53,73,0
0,62,89,0
0,50,95,15
0,53,76,10
0,53,85,0
0,53,62,0
0,50,95,13
0,58,76,30
0,62,85,0
0,62,69,0
0,62,76,49
0,46,53,0
0,53,76,0
0,53,85,0
0,53,64,0
0,58,76,10
0,62,76,0
0,55,76,0
0,39,53,0
0,55,85,0
0,55,56,0
0,39,73,0
0,55,69,0
0,58,73,0
0,62,85,0
0,55,76,30
0,58,76,25
0,62,76,5
0,55,76,0
0,63,97,5
0,55,95,5
0,58,76,0
0,55,95,5
0,62,105,0
0,53,95,8
0,53,95,10
0,53,76,5
0,60,76,0
0,60,101,0
0,41,65,5
0,41,53,0
0,50,95,3
0,53,49,0
0,53,76,0
0,48,95,23
0,57,76,0
0,60,76,5
0,60,93,0
0,53,76,0
0,58,76,5
0,41,53,5
0,60,76,15
0,53,76,5
0,41,53,0
0,60,93,0
0,53,76,0
0,57,76,5
0,60,76,145
0,36,53,5
0,53,76,0
0,53,85,5
0,53,59,0
0,48,95,3
0,50,95,5
0,57,76,0
0,41,53,5
0,51,95,45
0,50,95,0
0,44,53,0
0,60,76,0
0,51,85,0
0,44,77,0
0,60,97,0
0,51,59,0
0,51,95,13
0,51,77,45
0,51,76,5
0,48,95,68
0,56,76,75
0,60,76,15
0,32,53,57
0,51,76,0
0,58,76,140
0,44,53,135
0,67,97,0
0,60,76,0
0,51,76,70
0,55,76,65
0,60,95,135
0,57,95,5
0,53,95,0
0,32,53,0
0,60,76,0
0,68,99,0
0,51,76,0
0,48,95,8
0,50,95,8
0,56,76,7
0,51,95,15
0,55,95,0
0,65,109,5
0,69,93,0
0,41,53,0
0,60,76,0
0,53,95,10
0,53,76,5
0,53,95,0
0,57,76,5
0,60,76,5
0,53,76,5
0,41,53,0
0,58,76,0
0,67,97,0
0,70,101,0
0,55,95,0
0,41,53,0
0,60,76,0
0,58,95,0
0,53,76,0
0,57,76,50
0,69,97,25
0,60,76,0
0,41,53,5
0,72,101,0
0,51,95,5
0,53,95,0
0,57,95,5
0,53,76,15
0,46,95,13
0,57,76,77
0,51,95,8
0,50,95,4
0,51,95,0
0,58,76,0
0,58,95,0
0,55,97,0
0,58,93,0
0,63,101,0
0,39,53,0
0,55,95,0
0,51,95,0
0,50,95,75
0,51,76,64
0,51,95,3
0,55,76,0
0,63,77,5
0,58,76,0
0,63,85,0
0,51,76,155
0,55,76,160
0,65,85,0
0,65,77,0
0,58,76,85
0,39,53,5
0,67,85,0
0,67,77,0
0,63,52,0
0,51,76,25
0,65,52,5
0,55,76,5
0,63,95,50
0,58,105,10
0,63,93,0
0,58,76,0
0,39,53,0
0,55,101,0
0,67,52,0
0,51,95,3
0,51,95,32
0,51,76,0
0,55,76,10
0,50,95,60
0,50,95,37
0,58,95,0
0,62,95,0
0,53,95,5
0,53,101,5
0,62,93,0
0,34,53,0
0,58,76,0
0,48,95,33
0,50,95,35
0,50,76,12
0,53,76,160
0,58,76,110
0,62,85,0
0,62,77,0
0,50,76,150
0,53,76,0
0,63,85,5
0,63,77,0
0,58,73,0
0,62,93,0
0,58,76,0
0,34,53,5
0,65,85,0
0,53,97,0
0,62,52,0
0,65,77,0
0,50,76,140
0,63,52,0
0,53,76,5
0,65,52,60
0,34,53,5
0,58,76,0
0,50,76,20
0,50,95,18
0,53,76,5
0,51,95,10
0,50,95,23
0,56,93,20
0,60,76,0
0,41,53,0
0,48,95,0
0,53,101,0
0,60,97,0
0,56,95,0
0,60,95,0
0,53,95,2
0,46,95,42
0,44,95,35
0,51,76,2
0,56,76,55
0,60,77,5
0,60,76,0
0,60,85,0
0,51,76,40
0,62,85,0
0,62,77,0
0,56,76,0
0,60,76,45
0,41,53,5
0,63,85,0
0,63,77,0
0,53,97,0
0,56,93,0
0,60,109,0
0,60,52,0
0,51,76,5
0,62,52,0
0,56,76,0
0,34,53,25
0,60,76,0
0,63,52,0
0,48,95,5
0,51,76,20
0,48,95,10
0,53,18,60
0,56,76,0
0,46,95,80
0,51,105,0
0,55,109,0
0,58,76,0
0,39,53,0
0,58,109,0
0,55,95,0
0,58,95,0
0,51,95,0
0,46,95,3
0,46,95,0
0,51,76,35
0,46,95,23
0,55,76,122
0,58,85,140
0,58,77,0
0,58,76,0
0,51,76,35
0,55,76,0
0,62,85,0
0,62,77,0
0,58,52,0
0,63,77,0
0,58,76,0
0,63,85,0
0,51,76,40
0,55,76,15
0,62,52,0
0,39,53,5
0,58,76,0
0,39,53,5
0,63,52,0
0,39,53,35
0,51,76,0
0,55,105,23
0,55,76,45
0,39,53,5
0,57,105,8
0,58,105,0
0,62,115,0
0,58,115,0
0,55,115,0
0,62,97,0
0,57,105,3
0,43,53,2
0,43,93,0
0,58,95,5
0,55,95,0
0,62,95,2
0,58,105,40
0,50,85,60
0,58,115,0
0,62,115,0
0,55,105,0
0,58,115,20
0,55,95,0
0,62,102,0
0,55,95,5
0,58,115,5
0,62,95,0
0,55,105,0
0,55,95,40
0,58,95,0
0,62,115,0
0,62,95,10
0,55,95,0
0,58,95,5
0,43,56,0
0,62,97,0
0,50,89,55
0,62,95,0
0,58,115,0
0,55,95,0
0,58,115,35
0,55,95,0
0,62,115,0
0,43,58,40
0,58,115,0
0,55,115,0
0,62,115,0
0,55,105,0
0,62,95,30
0,58,103,0
0,55,95,0
0,62,115,20
0,55,115,0
0,43,109,0
0,62,105,0
0,58,115,0
0,43,60,0
0,62,95,5
0,58,115,0
0,55,115,0
0,50,105,5
0,67,95,0
0,62,95,30
0,55,115,0
0,58,95,5
0,55,115,40
0,62,97,0
0,58,115,0
0,55,101,5
0,62,115,25
0,58,115,0
0,55,95,0
0,62,115,5
0,55,115,5
0,58,95,0
0,43,63,0
0,62,105,0
0,55,95,35
0,62,115,0
0,50,101,0
0,58,95,5
0,43,64,0
0,55,115,5
0,62,95,0
0,58,95,5
0,58,105,10
0,58,95,15
0,55,115,0
0,55,105,0
0,62,95,5
0,43,65,0
0,58,115,35
0,62,115,0
0,55,115,0
0,53,115,5
0,62,105,0
0,58,95,0
0,60,95,0
0,41,94,0
0,65,94,0
0,35,127,0
0,58,95,0
0,65,95,0
0,53,95,5
0,60,95,0
0,41,67,0
0,60,105,5
0,53,115,15
0,60,99,0
0,58,95,0
0,53,85,0
0,58,105,10
0,58,115,15
0,53,115,5
0,60,96,0
0,47,102,0
0,60,105,0
0,58,101,35
0,58,95,5
0,53,95,0
0,60,95,0
0,53,115,15
0,60,115,0
0,58,95,0
0,70,95,15
0,65,109,5
0,45,102,5
0,41,70,0
0,58,108,0
0,53,115,0
0,60,95,0
0,53,89,45
0,58,95,0
0,53,95,0
0,60,115,5
0,53,115,5
0,58,95,0
0,43,102,0
0,60,95,5
0,53,115,40
0,60,115,0
0,58,115,0
0,58,93,0
0,41,72,0
0,53,95,27
0,60,95,0
0,58,115,0
0,57,95,15
0,72,95,5
0,41,101,5
0,41,74,0
0,53,115,0
0,60,95,0
0,57,95,0
0,65,101,0
0,35,127,0
0,60,115,50
0,53,95,0
0,57,115,5
0,53,105,0
0,57,115,45
0,60,95,0
0,53,112,0
0,45,102,0
0,57,115,5
0,60,115,0
0,53,115,0
0,41,76,0
0,35,127,0
0,57,97,0
0,53,115,25
0,57,115,5
0,60,95,0
0,38,76,20
0,38,87,0
0,58,95,15
0,53,115,0
0,58,95,0
0,77,95,0
0,41,77,0
0,60,115,0
0,38,99,0
0,65,77,0
0,77,94,0
0,53,105,3
0,60,101,10
0,58,115,0
0,53,96,5
0,41,78,0
0,45,102,0
0,58,105,8
0,53,95,5
0,58,95,0
0,60,95,5
0,60,95,30
0,58,95,0
0,53,115,0
0,41,80,0
0,43,102,0
0,60,105,5
0,53,115,30
0,58,95,0
0,60,115,5
0,34,82,0
0,35,127,0
0,49,69,0
0,46,101,5
0,53,93,0
0,58,93,0
0,62,105,0
0,65,95,0
0,74,95,0
0,70,95,0
0,46,115,0
0,53,115,0
0,50,115,0
0,60,105,3
0,53,70,7
0,50,70,0
0,62,105,0
0,53,97,35
0,46,95,0
0,53,112,0
0,50,95,0
0,51,53,0
0,62,105,0
0,53,115,35
0,46,98,0
0,50,95,0
0,46,115,40
0,53,115,0
0,50,115,5
0,51,67,0
0,58,89,0
0,50,115,15
0,46,115,0
0,53,115,0
0,50,115,20
0,46,115,0
0,53,95,5
0,53,105,0
0,58,85,0
0,62,93,0
0,51,67,0
0,38,96,0
0,46,95,40
0,50,114,0
0,53,95,0
0,53,97,0
0,51,63,5
0,46,115,5
0,50,115,0
0,53,115,5
0,50,115,5
0,46,115,0
0,53,95,0
0,46,82,0
0,51,67,0
0,35,127,0
0,58,93,0
0,50,115,30
0,46,95,0
0,53,115,5
0,46,115,5
0,55,115,0
0,75,95,0
0,55,70,5
0,39,93,0
0,55,109,0
0,58,109,0
0,63,109,0
0,35,127,0
0,51,67,0
0,51,115,0
0,39,82,0
0,51,70,5
0,67,95,0
0,55,77,15
0,51,115,0
0,46,95,0
0,55,115,0
0,51,60,5
0,55,115,40
0,51,95,0
0,46,95,5
0,46,115,5
0,55,115,0
0,51,95,0
0,51,53,0
0,58,89,0
0,55,95,5
0,46,96,0
0,51,104,0
0,46,107,5
0,51,95,0
0,55,115,0
0,55,109,0
0,58,89,0
0,63,109,0
0,51,66,0
0,38,96,0
0,63,105,15
0,46,115,5
0,55,95,0
0,51,95,0
0,63,105,5
0,55,109,0
0,51,70,0
0,39,82,5
0,55,95,0
0,51,95,0
0,46,115,5
0,51,115,40
0,55,95,0
0,58,97,0
0,41,82,0
0,46,115,0
0,51,70,0
0,51,115,35
0,46,99,0
0,55,95,0
0,35,127,0
0,62,105,13
0,70,95,0
0,74,95,5
0,65,95,0
0,53,95,0
0,34,82,0
0,46,115,0
0,50,95,0
0,35,127,0
0,51,69,0
0,46,101,0
0,58,93,0
0,62,105,0
0,53,109,0
0,53,70,0
0,50,70,0
0,62,105,18
0,58,105,3
0,53,115,14
0,50,97,0
