track,note,velocity,time
0,64,100,0
0,64,100,16
0,64,100,16
0,64,100,16
0,64,100,16
0,64,100,16
0,64,100,16
0,64,100,16
0,63,100,16
0,35,100,0
0,64,100,64
0,64,100,32
0,63,100,32
0,63,100,32
0,63,100,32
0,63,100,64
0,63,100,64
0,35,100,0
0,63,100,64
0,64,100,64
0,35,100,0
0,64,100,32
0,63,100,32
0,35,100,0
0,54,55,0
0,64,100,64
0,54,55,0
0,64,100,32
0,63,100,32
0,54,55,0
0,63,100,32
0,63,100,32
0,54,55,0
0,63,100,64
0,54,55,0
0,63,100,64
0,35,100,0
0,54,55,0
0,63,100,64
0,54,55,0
0,64,100,64
0,35,100,0
0,54,55,0
0,47,100,32
0,64,100,0
0,35,100,32
0,63,100,0
0,35,100,0
0,54,55,0
0,66,100,64
0,62,100,0
0,57,100,0
0,47,100,0
0,64,100,0
0,54,55,0
0,64,100,32
0,63,100,0
0,54,55,0
0,47,100,32
0,63,100,0
0,35,100,32
0,63,100,0
0,54,55,0
0,64,100,64
0,59,100,0
0,54,100,0
0,47,100,0
0,63,100,0
0,54,55,0
0,63,100,0
0,35,100,0
0,54,55,0
0,47,100,32
0,64,100,32
0,59,100,0
0,54,100,0
0,35,100,0
0,63,100,0
0,54,55,0
0,64,100,64
0,57,100,0
0,50,100,0
0,47,100,0
0,64,100,0
0,35,100,0
0,54,55,0
0,64,100,32
0,63,100,0
0,35,100,0
0,54,55,0
0,47,100,32
0,64,100,32
0,59,100,0
0,52,100,0
0,35,100,0
0,64,100,0
0,54,55,0
0,64,100,32
0,62,100,32
0,57,100,0
0,52,100,0
0,47,100,0
0,63,100,0
0,54,55,0
0,63,100,32
0,63,100,0
0,54,55,0
0,45,100,32
0,52,100,32
0,38,100,0
0,63,100,0
0,54,55,0
0,54,100,32
0,57,100,32
0,63,100,0
0,35,100,0
0,54,55,0
0,61,100,32
0,47,100,0
0,59,100,32
0,40,100,0
0,63,100,0
0,54,55,0
0,56,100,32
0,52,100,32
0,64,100,0
0,35,100,0
0,54,55,0
0,66,100,32
0,62,100,0
0,57,100,0
0,47,100,0
0,64,100,0
0,35,100,32
0,63,100,0
0,35,100,0
0,54,55,0
0,74,100,64
0,69,100,0
0,66,100,0
0,47,100,0
0,64,100,0
0,54,55,0
0,64,100,32
0,63,100,0
0,54,55,0
0,47,100,32
0,63,100,0
0,35,100,32
0,63,100,0
0,54,55,0
0,73,100,64
0,69,100,0
0,64,100,0
0,47,100,0
0,63,100,0
0,54,55,0
0,63,100,0
0,35,100,0
0,54,55,0
0,47,100,32
0,66,100,32
0,62,100,0
0,57,100,0
0,35,100,0
0,63,100,0
0,54,55,0
0,64,100,64
0,61,100,0
0,57,100,0
0,47,100,0
0,64,100,0
0,35,100,0
0,54,55,0
0,64,100,32
0,63,100,0
0,35,100,0
0,54,55,0
0,47,100,32
0,35,100,32
0,64,100,0
0,54,55,0
0,52,100,32
0,47,100,0
0,64,100,0
0,63,100,32
0,54,55,0
0,52,100,32
0,47,100,0
0,63,100,0
0,63,100,32
0,54,55,0
0,52,100,64
0,57,100,0
0,38,100,0
0,63,100,64
0,54,55,0
0,38,100,0
0,52,100,64
0,57,100,0
0,63,100,0
0,35,100,0
0,54,55,0
0,59,100,64
0,54,100,0
0,40,100,0
0,63,100,0
0,54,55,0
0,64,100,0
0,35,100,0
0,54,55,0
0,47,100,32
0,64,100,0
0,35,100,32
0,63,100,0
0,35,100,0
0,54,55,0
0,66,100,64
0,62,100,0
0,57,100,0
0,47,100,0
0,64,100,0
0,54,55,0
0,64,100,32
0,63,100,0
0,54,55,0
0,47,100,32
0,63,100,0
0,35,100,32
0,63,100,0
0,54,55,0
0,64,100,64
0,59,100,0
0,54,100,0
0,47,100,0
0,63,100,0
0,54,55,0
0,63,100,0
0,35,100,0
0,54,55,0
0,47,100,32
0,64,100,32
0,59,100,0
0,54,100,0
0,35,100,0
0,63,100,0
0,54,55,0
0,64,100,64
0,57,100,0
0,50,100,0
0,47,100,0
0,64,100,0
0,35,100,0
0,54,55,0
0,64,100,32
0,63,100,0
0,35,100,0
0,54,55,0
0,47,100,32
0,64,100,32
0,59,100,0
0,52,100,0
0,35,100,0
0,64,100,0
0,54,55,0
0,64,100,32
0,62,100,32
0,57,100,0
0,52,100,0
0,47,100,0
0,63,100,0
0,54,55,0
0,63,100,32
0,63,100,0
0,54,55,0
0,45,100,32
0,52,100,32
0,38,100,0
0,63,100,0
0,54,55,0
0,54,100,32
0,57,100,32
0,63,100,0
0,35,100,0
0,54,55,0
0,61,100,32
0,47,100,0
0,59,100,32
0,40,100,0
0,63,100,0
0,54,55,0
0,56,100,32
0,52,100,32
0,64,100,0
0,35,100,0
0,54,55,0
0,66,100,32
0,62,100,0
0,57,100,0
0,47,100,0
0,64,100,0
0,35,100,32
0,63,100,0
0,35,100,0
0,54,55,0
0,74,100,64
0,69,100,0
0,66,100,0
0,47,100,0
0,64,100,0
0,54,55,0
0,64,100,32
0,63,100,0
0,54,55,0
0,47,100,32
0,63,100,0
0,35,100,32
0,63,100,0
0,54,55,0
0,73,100,64
0,69,100,0
0,64,100,0
0,47,100,0
0,63,100,0
0,54,55,0
0,63,100,0
0,35,100,0
0,54,55,0
0,47,100,32
0,66,100,32
0,62,100,0
0,57,100,0
0,35,100,0
0,63,100,0
0,54,55,0
0,64,100,64
0,61,100,0
0,57,100,0
0,47,100,0
0,64,100,0
0,35,100,0
0,54,55,0
0,64,100,32
0,63,100,0
0,35,100,0
0,54,55,0
0,47,100,32
0,66,100,32
0,62,100,0
0,57,100,0
0,35,100,0
0,64,100,0
0,54,55,0
0,47,100,32
0,64,100,0
0,64,100,32
0,61,100,0
0,57,100,0
0,63,100,0
0,54,55,0
0,47,100,32
0,63,100,0
0,63,100,32
0,54,55,0
0,35,100,32
0,62,100,32
0,47,100,0
0,63,100,0
0,54,55,0
0,61,100,32
0,45,100,0
0,63,100,0
0,59,100,32
0,44,100,0
0,63,100,0
0,54,55,0
0,61,100,32
0,45,100,0
0,63,100,0
0,59,100,32
0,44,100,0
0,63,100,0
0,54,55,0
0,57,100,32
0,42,100,0
0,63,100,0
0,56,100,32
0,40,100,0
0,63,100,0
0,54,55,0
0,54,100,32
0,38,100,0
0,63,100,0
0,68,100,32
0,64,100,0
0,59,100,0
0,40,100,0
0,63,100,0
0,35,100,0
0,54,55,0
0,68,100,64
0,40,100,0
0,64,100,0
0,54,55,0
0,64,100,32
0,71,100,32
0,63,100,0
0,54,55,0
0,52,100,32
0,63,100,0
0,71,100,32
0,40,100,0
0,63,100,0
0,54,55,0
0,68,100,32
0,74,100,32
0,40,100,0
0,63,100,0
0,54,55,0
0,63,100,0
0,35,100,0
0,54,55,0
0,71,100,96
0,40,100,0
0,63,100,64
0,54,55,0
0,52,100,0
0,71,100,32
0,40,100,0
0,64,100,0
0,35,100,0
0,54,55,0
0,64,100,32
0,71,100,4
0,68,100,0
0,64,100,0
0,40,100,0
0,63,100,0
0,35,100,0
0,54,55,0
0,69,100,64
0,40,100,0
0,64,100,0
0,54,55,0
0,69,100,32
0,64,100,0
0,71,100,32
0,63,100,0
0,54,55,0
0,52,100,32
0,63,100,0
0,40,100,0
0,63,100,0
0,54,55,0
0,62,100,96
0,74,100,32
0,40,100,0
0,63,100,0
0,54,55,0
0,71,100,32
0,71,100,32
0,63,100,0
0,35,100,0
0,54,55,0
0,71,100,4
0,71,100,0
0,62,100,0
0,66,100,0
0,45,100,0
0,63,100,0
0,54,55,0
0,64,100,0
0,35,100,0
0,54,55,0
0,47,100,32
0,64,100,0
0,35,100,4
0,63,100,0
0,35,100,0
0,54,55,0
0,66,100,64
0,62,100,0
0,57,100,0
0,47,100,0
0,64,100,0
0,54,55,0
0,64,100,32
0,63,100,0
0,54,55,0
0,47,100,32
0,63,100,0
0,35,100,32
0,63,100,0
0,54,55,0
0,64,100,64
0,59,100,0
0,54,100,0
0,47,100,0
0,63,100,0
0,54,55,0
0,63,100,0
0,35,100,0
0,54,55,0
0,47,100,32
0,64,100,32
0,59,100,0
0,54,100,0
0,35,100,0
0,63,100,0
0,54,55,0
0,64,100,64
0,57,100,0
0,50,100,0
0,47,100,0
0,64,100,0
0,35,100,0
0,54,55,0
0,64,100,32
0,63,100,0
0,35,100,0
0,54,55,0
0,47,100,32
0,64,100,32
0,59,100,0
0,52,100,0
0,35,100,0
0,64,100,0
0,54,55,0
0,64,100,32
0,62,100,32
0,57,100,0
0,52,100,0
0,47,100,0
0,63,100,0
0,54,55,0
0,63,100,32
0,63,100,0
0,54,55,0
0,45,100,32
0,62,100,32
0,47,100,0
0,63,100,0
0,54,55,0
0,64,100,32
0,49,100,0
0,66,100,32
0,50,100,0
0,63,100,0
0,35,100,0
0,54,55,0
0,62,100,32
0,47,100,0
0,64,100,32
0,49,100,0
0,63,100,0
0,54,55,0
0,61,100,32
0,45,100,0
0,57,100,32
0,42,100,0
0,64,100,0
0,35,100,0
0,54,55,0
0,54,100,32
0,38,100,0
0,64,100,0
0,68,100,32
0,64,100,0
0,59,100,0
0,40,100,0
0,63,100,0
0,35,100,0
0,54,55,0
0,69,100,64
0,40,100,0
0,64,100,0
0,54,55,0
0,69,100,32
0,64,100,0
0,71,100,32
0,63,100,0
0,54,55,0
0,71,100,32
0,52,100,0
0,63,100,0
0,71,100,32
0,40,100,0
0,63,100,0
0,54,55,0
0,74,100,64
0,40,100,0
0,63,100,0
0,54,55,0
0,74,100,64
0,63,100,0
0,35,100,0
0,54,55,0
0,71,100,32
0,40,100,0
0,63,100,64
0,54,55,0
0,52,100,0
0,71,100,32
0,40,100,0
0,64,100,0
0,35,100,0
0,54,55,0
0,64,100,32
0,71,100,4
0,68,100,0
0,64,100,0
0,40,100,0
0,63,100,0
0,35,100,0
0,54,55,0
0,69,100,64
0,40,100,0
0,64,100,0
0,54,55,0
0,69,100,32
0,64,100,0
0,71,100,32
0,63,100,0
0,54,55,0
0,52,100,32
0,63,100,0
0,69,100,32
0,40,100,0
0,63,100,0
0,54,55,0
0,74,100,64
0,40,100,0
0,63,100,0
0,54,55,0
0,71,100,64
0,63,100,0
0,35,100,0
0,54,55,0
0,71,100,4
0,71,100,0
0,62,100,0
0,66,100,0
0,45,100,0
0,63,100,0
0,54,55,0
0,64,100,0
0,35,100,0
0,54,55,0
0,47,100,32
0,64,100,0
0,35,100,4
0,63,100,0
0,35,100,0
0,54,55,0
0,66,100,64
0,62,100,0
0,57,100,0
0,47,100,0
0,64,100,0
0,54,55,0
0,64,100,32
0,63,100,0
0,54,55,0
0,47,100,32
0,63,100,0
0,35,100,32
0,63,100,0
0,54,55,0
0,64,100,64
0,59,100,0
0,54,100,0
0,47,100,0
0,63,100,0
0,54,55,0
0,63,100,0
0,35,100,0
0,54,55,0
0,47,100,32
0,64,100,32
0,57,100,0
0,50,100,0
0,35,100,0
0,63,100,0
0,54,55,0
0,59,100,32
0,54,100,0
0,47,100,64
0,64,100,0
0,35,100,0
0,54,55,0
0,64,100,0
0,64,100,0
0,59,100,0
0,52,100,0
0,63,100,0
0,35,100,0
0,54,55,0
0,47,100,96
0,57,100,32
0,50,100,0
0,35,100,0
0,64,100,0
0,54,55,0
0,64,100,32
0,59,100,0
0,52,100,0
0,64,100,0
0,47,100,32
0,63,100,0
0,54,55,0
0,63,100,0
0,64,100,32
0,59,100,0
0,52,100,0
0,63,100,0
0,54,55,0
0,45,100,96
0,61,100,32
0,54,100,0
0,47,100,0
0,63,100,0
0,35,100,0
0,54,55,0
0,64,100,32
0,59,100,0
0,52,100,0
0,49,100,0
0,50,100,32
0,63,100,0
0,54,55,0
0,47,100,0
0,38,115,0
0,64,100,32
0,59,100,0
0,52,100,0
0,49,100,0
0,63,100,0
0,38,115,0
0,54,55,0
0,45,100,32
0,35,100,0
0,71,100,32
0,64,100,0
0,59,100,0
0,52,100,0
0,42,100,0
0,64,100,0
0,35,100,0
0,38,100,0
0,54,55,0
0,76,100,32
0,38,100,0
0,64,100,0
0,38,100,0
0,76,100,32
0,73,100,0
0,69,100,0
0,64,100,0
0,73,100,0
0,69,100,0
0,64,100,0
0,37,100,0
0,49,100,0
0,35,100,0
0,42,60,0
0,54,55,0
0,42,60,32
0,42,60,0
0,54,55,0
0,74,100,32
0,42,60,0
0,69,100,4
0,66,100,0
0,62,100,0
0,69,100,0
0,62,100,0
0,66,100,0
0,38,100,0
0,49,100,0
0,38,100,0
0,42,60,0
0,54,55,0
0,73,100,32
0,42,60,0
0,74,100,32
0,35,100,0
0,42,60,0
0,54,55,0
0,73,100,32
0,42,60,0
0,73,100,4
0,69,100,0
0,64,100,0
0,73,100,0
0,69,100,0
0,64,100,0
0,40,100,0
0,49,100,0
0,35,100,0
0,42,60,0
0,54,55,0
0,42,60,32
0,42,60,32
0,54,55,0
0,42,60,0
0,38,100,0
0,42,60,0
0,54,55,0
0,42,60,32
0,73,100,32
0,45,100,0
0,42,60,0
0,54,55,0
0,42,60,32
0,74,100,4
0,71,100,0
0,66,100,0
0,62,100,0
0,71,100,0
0,66,100,0
0,62,100,0
0,47,100,0
0,49,100,0
0,35,100,0
0,42,60,0
0,54,55,0
0,42,60,32
0,42,60,0
0,54,55,0
0,73,100,32
0,42,60,0
0,64,100,4
0,69,100,0
0,73,100,0
0,73,100,0
0,69,100,0
0,64,100,0
0,45,100,0
0,38,100,0
0,42,60,0
0,54,55,0
0,35,100,0
0,42,60,0
0,71,100,32
0,42,60,0
0,54,55,0
0,35,100,32
0,42,60,0
0,71,100,4
0,64,100,0
0,68,100,0
0,71,100,0
0,64,100,0
0,68,100,0
0,71,100,0
0,44,100,0
0,42,60,0
0,54,55,0
0,69,100,32
0,42,60,0
0,68,100,32
0,42,60,0
0,54,55,0
0,42,60,32
0,38,100,0
0,42,60,0
0,54,55,0
0,42,60,32
0,71,100,32
0,40,100,0
0,35,100,0
0,42,60,0
0,54,55,0
0,76,100,32
0,42,60,0
0,76,100,4
0,73,100,0
0,69,100,0
0,64,100,0
0,73,100,0
0,69,100,0
0,64,100,0
0,37,100,0
0,49,100,0
0,35,100,0
0,42,60,0
0,54,55,0
0,42,60,32
0,42,60,0
0,54,55,0
0,74,100,32
0,42,60,0
0,69,100,4
0,66,100,0
0,62,100,0
0,69,100,0
0,62,100,0
0,66,100,0
0,38,100,0
0,38,100,0
0,42,60,0
0,54,55,0
0,73,100,32
0,42,60,0
0,74,100,32
0,35,100,0
0,42,60,0
0,54,55,0
0,73,100,32
0,42,60,0
0,73,100,4
0,69,100,0
0,64,100,0
0,73,100,0
0,69,100,0
0,64,100,0
0,40,100,0
0,35,100,0
0,42,60,0
0,54,55,0
0,42,60,32
0,42,60,32
0,54,55,0
0,42,60,0
0,38,100,0
0,42,60,0
0,54,55,0
0,42,60,32
0,73,100,32
0,45,100,0
0,42,60,0
0,54,55,0
0,74,100,32
0,42,60,0
0,74,100,4
0,71,100,0
0,66,100,0
0,62,100,0
0,71,100,0
0,66,100,0
0,62,100,0
0,47,100,0
0,35,100,0
0,42,60,0
0,54,55,0
0,42,60,32
0,42,60,32
0,54,55,0
0,42,60,32
0,73,100,4
0,64,100,0
0,69,100,0
0,73,100,0
0,73,100,0
0,69,100,0
0,64,100,0
0,45,100,0
0,38,100,0
0,42,60,0
0,54,55,0
0,35,100,32
0,42,60,0
0,71,100,32
0,42,60,0
0,54,55,0
0,69,100,32
0,35,100,0
0,42,60,0
0,71,100,4
0,64,100,0
0,68,100,0
0,71,100,0
0,64,100,0
0,68,100,0
0,71,100,0
0,44,100,0
0,42,60,0
0,54,55,0
0,69,100,32
0,42,60,0
0,42,60,32
0,47,100,0
0,54,55,0
0,68,100,32
0,42,60,0
0,47,100,0
0,68,100,32
0,38,100,0
0,42,60,0
0,54,55,0
0,42,60,32
0,40,100,32
0,35,100,0
0,42,60,0
0,45,100,0
0,54,55,0
0,42,60,32
0,45,100,0
0,35,100,4
0,35,100,0
