track,note,velocity,time
0,60,100,0
0,55,100,0
0,60,100,0
0,67,100,0
0,43,100,0
0,59,100,0
0,36,100,0
0,49,100,0
0,62,100,32
0,64,100,32
0,62,100,32
0,55,100,0
0,59,100,0
0,59,100,96
0,38,100,0
0,59,100,64
0,36,100,0
0,43,100,32
0,43,100,32
0,59,100,96
0,59,100,64
0,59,100,96
0,38,100,0
0,59,100,32
0,36,100,0
0,62,100,4
0,55,100,0
0,60,100,0
0,67,100,0
0,43,100,0
0,59,100,0
0,36,100,0
0,64,100,32
0,65,100,0
0,64,100,32
0,55,100,0
0,59,100,0
0,59,100,96
0,38,100,0
0,59,100,64
0,36,100,0
0,43,100,32
0,43,100,32
0,59,100,96
0,59,100,64
0,59,100,96
0,38,100,0
0,62,100,64
0,59,100,0
0,36,100,0
0,64,100,32
0,65,100,4
0,55,100,0
0,60,100,0
0,67,100,0
0,43,100,0
0,59,100,0
0,36,100,0
0,64,100,96
0,55,100,0
0,59,100,0
0,59,100,96
0,38,100,0
0,59,100,32
0,36,100,0
0,62,100,32
0,55,100,0
0,43,100,0
0,43,100,32
0,59,100,96
0,60,100,64
0,55,100,0
0,59,100,0
0,59,100,96
0,38,100,0
0,59,100,32
0,36,100,0
0,59,100,32
0,67,100,4
0,60,100,0
0,43,100,0
0,45,100,0
0,36,100,0
0,57,100,32
0,55,100,32
0,55,100,4
0,67,100,0
0,62,100,0
0,60,100,0
0,55,100,0
0,36,100,0
0,47,100,0
0,47,100,32
0,38,100,0
0,36,100,128
0,48,100,0
0,36,100,32
0,48,100,0
0,50,100,128
0,50,100,0
0,50,100,32
0,38,100,64
0,60,100,64
0,55,100,0
0,60,100,0
0,67,100,0
0,43,100,0
0,59,100,0
0,36,100,0
0,49,100,0
0,62,100,32
0,64,100,32
0,62,100,32
0,55,100,0
0,59,100,0
0,59,100,96
0,38,100,0
0,59,100,64
0,36,100,0
0,43,100,32
0,43,100,32
0,59,100,96
0,59,100,64
0,59,100,96
0,38,100,0
0,59,100,32
0,36,100,0
0,62,100,4
0,55,100,0
0,60,100,0
0,67,100,0
0,43,100,0
0,59,100,0
0,36,100,0
0,64,100,32
0,65,100,0
0,64,100,32
0,55,100,0
0,59,100,0
0,59,100,96
0,38,100,0
0,59,100,64
0,36,100,0
0,43,100,32
0,43,100,32
0,59,100,96
0,59,100,64
0,59,100,96
0,38,100,0
0,62,100,64
0,59,100,0
0,36,100,0
0,64,100,32
0,65,100,4
0,55,100,0
0,60,100,0
0,67,100,0
0,43,100,0
0,59,100,0
0,36,100,0
0,64,100,96
0,55,100,0
0,59,100,0
0,59,100,96
0,38,100,0
0,59,100,32
0,36,100,0
0,62,100,32
0,55,100,0
0,43,100,0
0,43,100,32
0,59,100,96
0,60,100,64
0,55,100,0
0,59,100,0
0,59,100,96
0,38,100,0
0,59,100,32
0,36,100,0
0,59,100,32
0,67,100,4
0,60,100,0
0,43,100,0
0,59,100,0
0,36,100,0
0,57,100,32
0,55,100,32
0,55,100,4
0,67,100,0
0,62,100,0
0,60,100,0
0,55,100,0
0,36,100,0
0,59,100,0
0,59,100,96
0,38,100,0
0,59,100,32
0,36,100,0
0,36,100,32
0,36,100,32
0,59,100,96
0,59,100,0
0,59,100,96
0,38,100,0
0,59,100,64
0,36,100,0
0,47,100,0
0,60,100,64
0,65,100,0
0,69,100,0
0,41,100,0
0,36,100,0
0,42,50,0
0,42,50,32
0,42,50,32
0,59,120,32
0,42,50,0
0,38,100,32
0,42,50,0
0,42,50,32
0,45,70,0
0,42,50,4
0,43,70,0
0,59,120,4
0,42,50,0
0,41,70,0
0,41,100,4
0,36,100,0
0,42,50,0
0,72,100,32
0,42,50,0
0,74,100,32
0,42,50,0
0,77,100,32
0,59,120,0
0,42,50,0
0,38,100,32
0,42,50,0
0,42,50,0
0,74,100,32
0,36,100,0
0,42,50,0
0,39,60,0
0,74,100,32
0,59,120,0
0,42,50,0
0,72,100,4
0,62,100,0
0,67,100,0
0,43,100,0
0,36,100,0
0,42,50,0
0,71,100,32
0,42,50,0
0,67,100,32
0,42,50,0
0,59,120,32
0,42,50,0
0,67,100,4
0,60,100,0
0,67,100,0
0,62,100,0
0,48,100,0
0,38,100,0
0,42,50,0
0,42,50,32
0,45,70,0
0,42,50,4
0,43,70,0
0,59,120,4
0,42,50,0
0,41,70,0
0,48,100,4
0,36,100,0
0,42,50,0
0,42,50,32
0,42,50,32
0,59,120,32
0,42,50,0
0,38,100,32
0,42,50,0
0,42,50,32
0,65,100,32
0,36,100,0
0,42,50,0
0,75,85,0
0,67,100,32
0,59,120,0
0,42,50,0
0,70,100,4
0,70,100,0
0,63,100,0
0,65,100,0
0,39,100,0
0,36,100,0
0,42,50,0
0,42,50,32
0,42,50,0
0,67,100,32
0,59,120,0
0,42,50,0
0,38,100,32
0,42,50,0
0,65,100,32
0,42,50,0
0,45,70,0
0,67,100,4
0,42,50,0
0,43,70,0
0,59,120,4
0,42,50,0
0,41,70,0
0,39,100,4
0,36,100,0
0,42,50,0
0,42,50,32
0,42,50,32
0,59,120,32
0,42,50,0
0,38,100,32
0,42,50,0
0,42,50,32
0,36,100,32
0,42,50,0
0,39,60,0
0,67,100,32
0,59,120,0
0,42,50,0
0,74,100,4
0,70,100,0
0,65,100,0
0,62,100,0
0,38,100,0
0,36,100,0
0,42,50,0
0,42,50,32
0,42,50,0
0,72,100,32
0,59,120,0
0,42,50,0
0,38,100,32
0,42,50,0
0,70,100,32
0,42,50,0
0,45,70,0
0,67,100,4
0,42,50,0
0,43,70,0
0,59,120,4
0,42,50,0
0,41,70,0
0,70,100,4
0,67,100,0
0,64,100,0
0,60,100,0
0,40,100,0
0,36,100,0
0,42,50,0
0,67,100,32
0,42,50,0
0,67,100,32
0,42,50,0
0,59,120,32
0,42,50,0
0,67,100,32
0,38,100,0
0,42,50,0
0,42,50,32
0,36,100,32
0,42,50,0
0,75,85,0
0,59,120,32
0,42,50,0
0,60,100,4
0,65,100,0
0,69,100,0
0,41,100,0
0,36,100,0
0,42,50,0
0,42,50,32
0,42,50,32
0,59,120,32
0,42,50,0
0,38,100,32
0,42,50,0
0,42,50,32
0,45,70,0
0,42,50,4
0,43,70,0
0,59,120,4
0,42,50,0
0,41,70,0
0,41,100,4
0,36,100,0
0,42,50,0
0,72,100,32
0,42,50,0
0,74,100,32
0,42,50,0
0,77,100,32
0,59,120,0
0,42,50,0
0,38,100,32
0,42,50,0
0,42,50,0
0,74,100,32
0,36,100,0
0,42,50,0
0,39,60,0
0,59,120,32
0,42,50,0
0,72,100,4
0,62,100,0
0,67,100,0
0,43,100,0
0,36,100,0
0,42,50,0
0,71,100,32
0,42,50,0
0,67,100,32
0,42,50,0
0,59,120,32
0,42,50,0
0,67,100,4
0,60,100,0
0,67,100,0
0,62,100,0
0,48,100,0
0,38,100,0
0,42,50,0
0,42,50,32
0,45,70,0
0,42,50,4
0,43,70,0
0,59,120,4
0,42,50,0
0,41,70,0
0,48,100,4
0,36,100,0
0,42,50,0
0,42,50,32
0,42,50,32
0,59,120,32
0,42,50,0
0,38,100,32
0,42,50,0
0,42,50,32
0,36,100,32
0,42,50,0
0,75,85,0
0,59,120,32
0,42,50,0
0,70,100,4
0,70,100,0
0,63,100,0
0,65,100,0
0,39,100,0
0,36,100,0
0,42,50,0
0,42,50,32
0,42,50,0
0,67,100,32
0,59,120,0
0,42,50,0
0,38,100,32
0,42,50,0
0,65,100,32
0,42,50,0
0,45,70,0
0,67,100,4
0,42,50,0
0,43,70,0
0,59,120,4
0,42,50,0
0,41,70,0
0,39,100,4
0,36,100,0
0,42,50,0
0,42,50,32
0,42,50,32
0,59,120,32
0,42,50,0
0,38,100,32
0,42,50,0
0,42,50,32
0,70,100,32
0,36,100,0
0,42,50,0
0,39,60,0
0,72,100,32
0,59,120,0
0,42,50,0
0,74,100,4
0,70,100,0
0,65,100,0
0,62,100,0
0,38,100,0
0,36,100,0
0,42,50,0
0,74,100,32
0,42,50,0
0,74,100,32
0,42,50,0
0,38,100,0
0,74,100,32
0,59,120,0
0,42,50,0
0,72,100,4
0,42,50,0
0,48,100,0
0,38,100,0
0,70,100,32
0,42,50,0
0,67,100,4
0,42,50,0
0,65,100,32
0,59,120,0
0,42,50,0
0,43,100,0
0,67,100,4
0,64,100,0
0,60,100,0
0,67,100,0
0,40,100,0
0,36,100,0
0,42,50,0
0,43,100,0
0,42,50,4
0,42,50,32
0,50,100,0
0,50,100,0
0,42,50,32
0,50,100,16
0,65,100,4
0,69,100,0
0,60,100,0
0,41,100,0
0,38,100,0
0,42,50,0
0,48,100,0
0,48,100,0
0,42,50,32
0,48,100,0
0,42,50,16
0,47,100,0
0,47,100,0
0,42,50,32
0,47,100,16
0,60,100,4
0,55,100,0
0,60,100,0
0,67,100,0
0,43,100,0
0,59,100,0
0,36,100,0
0,49,100,0
0,62,100,32
0,64,100,32
0,62,100,32
0,55,100,0
0,59,100,0
0,59,100,96
0,38,100,0
0,59,100,64
0,36,100,0
0,43,100,32
0,72,100,32
0,43,100,0
0,74,100,32
0,59,100,0
0,76,100,32
0,72,100,32
0,59,100,0
0,74,100,32
0,59,100,0
0,38,100,0
0,71,100,32
0,59,100,0
0,36,100,0
0,62,100,4
0,55,100,0
0,60,100,0
0,67,100,0
0,43,100,0
0,59,100,0
0,36,100,0
0,64,100,32
0,65,100,0
0,64,100,32
0,55,100,0
0,59,100,0
0,59,100,96
0,38,100,0
0,59,100,64
0,36,100,0
0,43,100,32
0,74,100,32
0,43,100,0
0,76,100,32
0,59,100,0
0,77,100,32
0,77,100,32
0,59,100,0
0,76,100,32
0,59,100,0
0,38,100,0
0,74,100,64
0,62,100,0
0,59,100,0
0,36,100,0
0,76,100,32
0,64,100,0
0,77,100,4
0,65,100,0
0,55,100,0
0,60,100,0
0,67,100,0
0,43,100,0
0,59,100,0
0,36,100,0
0,76,100,96
0,64,100,0
0,55,100,0
0,59,100,0
0,59,100,96
0,38,100,0
0,59,100,32
0,36,100,0
0,74,100,32
0,62,100,0
0,55,100,0
0,43,100,0
0,74,100,32
0,43,100,0
0,59,100,96
0,72,100,64
0,60,100,0
0,55,100,0
0,59,100,0
0,59,100,96
0,38,100,0
0,76,100,32
0,59,100,0
0,36,100,0
0,74,100,32
0,59,100,0
0,67,100,4
0,60,100,0
0,43,100,0
0,59,100,0
0,36,100,0
0,74,100,0
0,57,100,0
0,71,100,32
0,55,100,0
0,55,100,4
0,67,100,0
0,62,100,0
0,60,100,0
0,55,100,0
0,36,100,0
0,59,100,0
0,71,100,64
0,59,100,0
0,38,100,0
0,49,100,0
0,69,100,32
0,67,100,32
0,59,100,0
0,36,100,0
0,36,100,32
0,36,100,32
0,59,100,96
0,38,100,96
0,49,100,0
0,59,100,0
0,59,100,64
0,59,100,64
0,36,100,0
0,38,100,0
0,49,100,0
0,60,100,64
0,55,100,0
0,60,100,0
0,67,100,0
0,43,100,0
0,59,100,0
0,36,100,0
0,49,100,0
0,62,100,32
0,64,100,32
0,62,100,32
0,55,100,0
0,59,100,0
0,59,100,96
0,38,100,0
0,59,100,64
0,36,100,0
0,43,100,32
0,72,100,32
0,43,100,0
0,76,100,32
0,59,100,0
0,74,100,64
0,59,100,0
0,74,100,32
0,59,100,0
0,38,100,0
0,71,100,32
0,59,100,0
0,36,100,0
0,62,100,4
0,55,100,0
0,60,100,0
0,67,100,0
0,43,100,0
0,59,100,0
0,36,100,0
0,64,100,32
0,65,100,0
0,64,100,32
0,55,100,0
0,59,100,0
0,59,100,96
0,38,100,0
0,59,100,64
0,36,100,0
0,43,100,32
0,74,100,32
0,43,100,0
0,76,100,32
0,59,100,0
0,77,100,32
0,77,100,32
0,59,100,0
0,76,100,32
0,59,100,0
0,38,100,0
0,74,100,64
0,62,100,0
0,59,100,0
0,36,100,0
0,76,100,32
0,64,100,0
0,77,100,4
0,65,100,0
0,55,100,0
0,60,100,0
0,67,100,0
0,43,100,0
0,59,100,0
0,36,100,0
0,76,100,96
0,64,100,0
0,55,100,0
0,59,100,0
0,59,100,96
0,38,100,0
0,59,100,32
0,36,100,0
0,74,100,32
0,62,100,0
0,55,100,0
0,43,100,0
0,74,100,32
0,43,100,0
0,59,100,96
0,72,100,64
0,60,100,0
0,55,100,0
0,59,100,0
0,59,100,96
0,38,100,0
0,76,100,32
0,59,100,0
0,36,100,0
0,74,100,32
0,59,100,0
0,67,100,4
0,60,100,0
0,43,100,0
0,59,100,0
0,36,100,0
0,71,100,0
0,57,100,0
0,55,100,32
0,71,100,4
0,55,100,0
0,67,100,0
0,62,100,0
0,60,100,0
0,55,100,0
0,36,100,0
0,59,100,0
0,71,100,32
0,59,100,0
0,38,100,0
0,69,100,32
0,67,100,32
0,59,100,0
0,36,100,0
0,36,100,32
0,36,100,32
0,59,100,96
0,59,100,0
0,59,100,64
0,38,100,0
0,59,100,64
0,36,100,0
0,39,70,0
0,65,100,64
0,60,100,0
0,57,100,0
0,65,100,0
0,60,100,0
0,57,100,0
0,50,100,0
0,59,100,0
0,36,100,0
0,64,100,4
0,60,100,0
0,55,100,0
0,64,100,0
0,60,100,0
0,55,100,0
0,48,100,0
0,59,100,0
0,59,100,96
0,38,100,0
0,64,100,32
0,59,100,0
0,36,100,0
0,67,100,32
0,70,100,32
0,48,100,0
0,70,100,32
0,59,100,0
0,69,100,32
0,67,100,4
0,59,100,0
0,67,100,32
0,67,100,0
0,57,100,0
0,60,100,0
0,41,100,0
0,59,100,0
0,38,100,0
0,67,100,64
0,59,100,0
0,36,100,0
0,67,100,4
0,67,100,0
0,62,100,0
0,43,100,0
0,59,100,0
0,36,100,0
0,59,100,160
0,59,100,96
0,38,100,0
0,59,100,64
0,36,100,0
0,43,100,32
0,43,100,0
0,77,100,96
0,59,100,0
0,76,100,32
0,59,100,64
0,74,100,64
0,59,100,0
0,38,100,0
0,72,100,64
0,59,100,0
0,36,100,0
0,71,100,64
0,43,100,0
0,59,100,0
0,36,100,0
0,72,100,32
0,74,100,32
0,67,100,4
0,67,100,0
0,62,100,0
0,60,100,0
0,59,100,0
0,48,100,96
0,59,100,0
0,38,100,0
0,59,100,64
0,36,100,0
0,48,100,64
0,48,100,96
0,45,100,32
0,41,100,64
0,36,100,64
0,60,100,64
0,65,100,0
0,69,100,0
0,41,100,0
0,36,100,0
0,42,50,0
0,42,50,32
0,42,50,32
0,59,120,32
0,42,50,0
0,38,100,32
0,42,50,0
0,42,50,32
0,45,70,0
0,42,50,4
0,43,70,0
0,59,120,4
0,42,50,0
0,41,70,0
0,41,100,4
0,36,100,0
0,42,50,0
0,72,100,32
0,42,50,0
0,74,100,32
0,42,50,0
0,77,100,32
0,59,120,0
0,42,50,0
0,38,100,32
0,42,50,0
0,42,50,0
0,74,100,32
0,36,100,0
0,42,50,0
0,39,60,0
0,74,100,32
0,59,120,0
0,42,50,0
0,72,100,4
0,62,100,0
0,67,100,0
0,43,100,0
0,36,100,0
0,42,50,0
0,71,100,32
0,42,50,0
0,67,100,32
0,42,50,0
0,59,120,32
0,42,50,0
0,67,100,4
0,60,100,0
0,67,100,0
0,62,100,0
0,48,100,0
0,38,100,0
0,42,50,0
0,42,50,32
0,45,70,0
0,42,50,4
0,43,70,0
0,59,120,4
0,42,50,0
0,41,70,0
0,48,100,4
0,36,100,0
0,42,50,0
0,42,50,32
0,42,50,32
0,59,120,32
0,42,50,0
0,38,100,32
0,42,50,0
0,42,50,32
0,65,100,32
0,36,100,0
0,42,50,0
0,75,85,0
0,67,100,32
0,59,120,0
0,42,50,0
0,70,100,4
0,70,100,0
0,63,100,0
0,65,100,0
0,39,100,0
0,36,100,0
0,42,50,0
0,42,50,32
0,42,50,0
0,67,100,32
0,59,120,0
0,42,50,0
0,38,100,32
0,42,50,0
0,65,100,32
0,42,50,0
0,45,70,0
0,67,100,4
0,42,50,0
0,43,70,0
0,59,120,4
0,42,50,0
0,41,70,0
0,39,100,4
