track,note,velocity,time
1,68,100,6180
1,68,0,59
1,72,100,1
1,72,0,59
1,75,100,1
1,75,0,119
1,75,100,1
1,75,0,179
1,72,100,1
1,72,0,59
1,75,100,1
1,75,0,179
1,70,100,1
1,70,0,59
1,72,100,1
1,72,0,179
1,72,100,1
1,72,0,59
1,73,100,1
1,73,0,179
1,73,100,1
1,73,0,59
1,73,100,1
1,73,0,179
1,72,100,1
1,72,0,59
1,72,100,1
1,72,0,119
1,72,100,1
1,72,0,119
1,72,100,1
1,72,0,29
1,70,100,1
1,70,0,29
1,68,100,1
1,68,0,119
1,72,100,241
1,72,0,59
1,75,100,1
1,75,0,59
1,75,100,1
1,75,0,119
1,72,100,1
1,72,0,59
1,75,100,1
1,75,0,119
1,70,100,1
1,70,0,59
1,70,100,1
1,70,0,59
1,72,100,1
1,72,0,29
1,70,100,1
1,70,0,29
1,68,100,1
1,68,0,119
1,68,100,61
1,68,0,59
1,73,100,1
1,73,0,59
1,73,100,1
1,73,0,59
1,73,100,1
1,73,0,59
1,73,100,1
1,73,0,119
1,72,100,1
1,72,0,119
1,70,100,1
1,70,0,119
1,70,100,1
1,70,0,119
1,72,100,1
1,72,0,59
1,70,100,1
1,70,0,119
1,68,100,61
1,68,0,59
1,72,100,1
1,72,0,59
1,75,100,1
1,75,0,59
1,75,100,1
1,75,0,59
1,75,100,1
1,75,0,179
1,72,100,1
1,72,0,59
1,75,100,1
1,75,0,119
1,70,100,1
1,70,0,119
1,72,100,1
1,72,0,179
1,72,100,1
1,72,0,59
1,72,100,1
1,72,0,59
1,72,100,61
1,72,0,59
1,73,100,1
1,73,0,59
1,73,100,1
1,73,0,179
1,72,100,1
1,72,0,179
1,70,100,1
1,70,0,59
1,68,100,1
1,68,0,59
1,68,100,1
1,68,0,119
1,68,100,121
1,68,0,59
1,72,100,1
1,72,0,59
1,75,100,1
1,75,0,119
1,75,100,1
1,75,0,119
1,75,100,1
1,75,0,119
1,75,100,1
1,75,0,179
1,70,100,1
1,70,0,59
1,72,100,1
1,72,0,179
1,68,100,61
1,68,0,59
1,72,100,1
1,72,0,59
1,68,100,1
1,68,0,119
1,68,100,1
1,68,0,179
1,72,100,1
1,72,0,59
1,70,100,1
1,70,0,179
1,72,100,241
1,72,0,29
1,70,100,1
1,70,0,29
1,68,100,1
1,68,0,59
1,68,100,1
1,68,0,119
1,68,100,1
1,68,0,59
1,68,100,1
1,68,0,59
1,72,100,1
1,72,0,119
1,75,100,1
1,75,0,119
1,77,100,1
1,77,0,119
1,77,100,1
1,77,0,119
1,77,100,1
1,77,0,119
1,72,100,121
1,72,0,59
1,77,100,1
1,77,0,89
1,75,100,1
1,75,0,89
1,72,100,1
1,72,0,119
1,72,100,1
1,72,0,179
1,70,100,1
1,70,0,179
1,68,100,301
1,68,0,59
1,68,100,1
1,68,0,59
1,68,100,1
1,68,0,59
1,72,100,1
1,72,0,119
1,75,100,1
1,75,0,59
1,77,100,1
1,77,0,179
1,77,100,1
1,77,0,119
1,77,100,1
1,77,0,119
1,75,100,1
1,75,0,59
1,75,100,1
1,75,0,59
1,77,100,1
1,77,0,119
1,75,100,1
1,75,0,119
1,72,100,1
1,72,0,119
1,68,100,1
1,68,0,59
1,72,100,1
1,72,0,119
1,70,100,1
1,70,0,179
1,68,100,121
1,68,0,59
1,70,100,1
1,70,0,59
1,72,100,1
1,72,0,59
1,72,100,1
1,72,0,119
1,72,100,1
1,72,0,119
1,70,100,1
1,70,0,119
1,68,100,1
1,68,0,179
1,68,100,1
1,68,0,59
1,70,100,1
1,70,0,179
1,68,100,61
1,68,0,59
1,72,100,1
1,72,0,59
1,75,100,1
1,75,0,119
1,75,100,1
1,75,0,119
1,75,100,1
1,75,0,119
1,75,100,1
1,75,0,59
1,77,100,1
1,77,0,59
1,75,100,1
1,75,0,59
1,75,100,1
1,75,0,59
1,72,100,1
1,72,0,29
1,70,100,1
1,70,0,29
1,68,100,1
1,68,0,119
1,72,100,121
1,72,0,59
1,75,100,1
1,75,0,119
1,75,100,1
1,75,0,119
1,75,100,1
1,75,0,119
1,77,100,1
1,77,0,119
1,75,100,1
1,75,0,119
1,72,100,1
1,72,0,179
1,63,100,61
1,63,0,59
1,65,100,1
1,65,0,59
1,68,100,1
1,68,0,59
1,68,100,1
1,68,0,59
1,72,100,1
1,72,0,179
1,65,100,601
1,65,0,59
1,68,100,1
1,68,0,59
1,68,100,1
1,68,0,59
1,72,100,1
1,72,0,239
1,73,100,1
1,73,0,29
1,72,100,1
1,72,0,29
1,68,100,1
1,68,0,59
1,70,100,1
1,70,0,299
1,70,100,1
1,70,0,59
1,68,100,1
1,68,0,59
1,70,100,1
1,70,0,59
1,68,100,1
1,68,0,59
1,68,100,1
1,68,0,119
1,68,100,2521
1,68,0,119
1,72,100,1
1,72,0,59
1,75,100,1
1,75,0,119
1,75,100,1
1,75,0,179
1,72,100,1
1,72,0,59
1,75,100,1
1,75,0,179
1,70,100,1
1,70,0,59
1,72,100,1
1,72,0,179
1,72,100,1
1,72,0,59
1,73,100,1
1,73,0,179
1,73,100,1
1,73,0,59
1,73,100,1
1,73,0,179
1,72,100,1
1,72,0,59
1,72,100,1
1,72,0,119
1,72,100,1
1,72,0,119
1,72,100,1
1,72,0,29
1,70,100,1
1,70,0,29
1,68,100,1
1,68,0,119
1,72,100,181
1,72,0,59
1,72,100,1
1,72,0,59
1,75,100,1
1,75,0,59
1,75,100,1
1,75,0,119
1,72,100,1
1,72,0,59
1,75,100,1
1,75,0,119
1,70,100,1
1,70,0,119
1,72,100,1
1,72,0,29
1,70,100,1
1,70,0,29
1,68,100,1
1,68,0,119
1,68,100,1
1,68,0,59
1,68,100,1
1,68,0,59
1,73,100,1
1,73,0,59
1,73,100,1
1,73,0,59
1,73,100,1
1,73,0,59
1,73,100,1
1,73,0,59
1,72,100,1
1,72,0,59
1,72,100,1
1,72,0,59
1,70,100,1
1,70,0,59
1,70,100,1
1,70,0,119
1,70,100,1
1,70,0,119
1,72,100,1
1,72,0,59
1,70,100,1
1,70,0,119
1,75,100,241
1,75,0,59
1,75,100,1
1,75,0,59
1,75,100,1
1,75,0,119
1,72,100,1
1,72,0,59
1,75,100,1
1,75,0,119
1,70,100,1
1,70,0,119
1,72,100,1
1,72,0,179
1,72,100,1
1,72,0,59
1,72,100,1
1,72,0,59
1,72,100,61
1,72,0,59
1,73,100,1
1,73,0,59
1,73,100,1
1,73,0,179
1,72,100,1
1,72,0,179
1,70,100,1
1,70,0,59
1,68,100,1
1,68,0,59
1,68,100,1
1,68,0,119
1,68,100,121
1,68,0,59
1,72,100,1
1,72,0,59
1,75,100,1
1,75,0,119
1,75,100,1
1,75,0,59
1,75,100,1
1,75,0,59
1,75,100,1
1,75,0,119
1,75,100,1
1,75,0,179
1,70,100,1
1,70,0,59
1,72,100,1
1,72,0,179
1,68,100,61
1,68,0,59
1,72,100,1
1,72,0,59
1,68,100,1
1,68,0,119
1,68,100,1
1,68,0,179
1,72,100,1
1,72,0,59
1,70,100,1
1,70,0,179
1,68,100,301
1,68,0,59
1,68,100,1
1,68,0,119
1,68,100,1
1,68,0,59
1,68,100,1
1,68,0,59
1,72,100,1
1,72,0,119
1,75,100,1
1,75,0,119
1,77,100,1
1,77,0,119
1,77,100,1
1,77,0,119
1,77,100,1
1,77,0,119
1,72,100,121
1,72,0,59
1,77,100,1
1,77,0,89
1,75,100,1
1,75,0,89
1,72,100,1
1,72,0,119
1,72,100,1
1,72,0,179
1,70,100,1
1,70,0,179
1,68,100,301
1,68,0,59
1,68,100,1
1,68,0,59
1,68,100,1
1,68,0,59
1,72,100,1
1,72,0,119
1,75,100,1
1,75,0,59
1,77,100,1
1,77,0,179
1,77,100,1
1,77,0,119
1,77,100,1
1,77,0,119
1,75,100,1
1,75,0,59
1,75,100,1
1,75,0,59
1,77,100,1
1,77,0,119
1,75,100,1
1,75,0,119
1,72,100,1
1,72,0,119
1,68,100,1
1,68,0,59
1,72,100,1
1,72,0,119
1,70,100,1
1,70,0,179
1,68,100,121
1,68,0,59
1,70,100,1
1,70,0,59
1,72,100,1
1,72,0,59
1,72,100,1
1,72,0,119
1,72,100,1
1,72,0,119
1,70,100,1
1,70,0,119
1,68,100,1
1,68,0,179
1,68,100,1
1,68,0,59
1,70,100,1
1,70,0,179
1,68,100,61
1,68,0,59
1,72,100,1
1,72,0,59
1,75,100,1
1,75,0,119
1,75,100,1
1,75,0,119
1,75,100,1
1,75,0,119
1,75,100,1
1,75,0,59
1,77,100,1
1,77,0,59
1,75,100,1
1,75,0,59
1,75,100,1
1,75,0,59
1,72,100,1
1,72,0,29
1,70,100,1
1,70,0,29
1,68,100,1
1,68,0,119
1,72,100,121
1,72,0,59
1,75,100,1
1,75,0,119
1,75,100,1
1,75,0,119
1,75,100,1
1,75,0,119
1,77,100,1
1,77,0,119
1,75,100,1
1,75,0,119
1,72,100,1
1,72,0,179
1,63,100,61
1,63,0,59
1,65,100,1
1,65,0,59
1,68,100,1
1,68,0,59
1,68,100,1
1,68,0,59
1,72,100,1
1,72,0,179
1,65,100,601
1,65,0,59
1,68,100,1
1,68,0,59
1,68,100,1
1,68,0,59
1,72,100,1
1,72,0,239
1,73,100,1
1,73,0,29
1,72,100,1
1,72,0,29
1,68,100,1
1,68,0,59
1,70,100,1
1,70,0,299
1,70,100,1
1,70,0,59
1,68,100,1
1,68,0,59
1,70,100,1
1,70,0,59
1,68,100,1
1,68,0,59
1,68,100,1
1,68,0,119
1,72,100,2641
1,72,0,59
1,75,100,1
1,75,0,119
1,75,100,1
1,75,0,179
1,72,100,1
1,72,0,59
1,75,100,1
1,75,0,179
1,70,100,1
1,70,0,59
1,72,100,1
1,72,0,179
1,72,100,1
1,72,0,59
1,73,100,1
1,73,0,179
1,73,100,1
1,73,0,59
1,73,100,1
1,73,0,179
1,72,100,1
1,72,0,59
1,72,100,1
1,72,0,119
1,72,100,1
1,72,0,119
1,72,100,1
1,72,0,29
1,70,100,1
1,70,0,29
1,68,100,1
1,68,0,119
1,72,100,241
1,72,0,59
1,75,100,1
1,75,0,59
1,75,100,1
1,75,0,119
1,72,100,1
1,72,0,59
1,75,100,1
1,75,0,119
1,70,100,1
1,70,0,59
1,70,100,1
1,70,0,59
1,72,100,1
1,72,0,29
1,70,100,1
1,70,0,29
1,68,100,1
1,68,0,119
1,68,100,61
1,68,0,59
1,73,100,1
1,73,0,119
1,73,100,1
1,73,0,59
1,73,100,1
1,73,0,119
1,72,100,1
1,72,0,119
1,70,100,1
1,70,0,119
1,70,100,1
1,70,0,119
1,72,100,1
1,72,0,59
1,70,100,1
1,70,0,119
1,75,100,241
1,75,0,59
1,75,100,1
1,75,0,179
1,72,100,1
1,72,0,59
1,75,100,1
1,75,0,59
1,75,100,1
1,75,0,59
1,70,100,1
1,70,0,119
1,72,100,1
1,72,0,179
1,72,100,1
1,72,0,59
1,72,100,1
1,72,0,59
1,72,100,61
1,72,0,59
1,73,100,1
1,73,0,59
1,73,100,1
1,73,0,239
1,70,100,121
1,70,0,59
1,68,100,1
1,68,0,59
1,68,100,1
1,68,0,119
1,68,100,121
1,68,0,59
1,72,100,1
1,72,0,59
1,75,100,1
1,75,0,119
1,75,100,1
1,75,0,119
1,75,100,1
1,75,0,119
1,75,100,1
1,75,0,179
1,70,100,1
1,70,0,59
1,72,100,1
1,72,0,179
1,68,100,61
1,68,0,59
1,72,100,1
1,72,0,59
1,68,100,1
1,68,0,119
1,68,100,1
1,68,0,179
1,72,100,1
1,72,0,59
1,70,100,1
1,70,0,179
1,68,100,241
1,68,0,119
1,72,100,1
1,72,0,59
1,72,100,1
1,72,0,119
1,72,100,1
1,72,0,119
1,70,100,1
1,70,0,119
1,68,100,1
1,68,0,179
1,68,100,1
1,68,0,59
1,70,100,1
1,70,0,179
1,68,100,61
1,68,0,59
1,72,100,1
1,72,0,59
1,75,100,1
1,75,0,119
1,75,100,1
1,75,0,119
1,75,100,1
1,75,0,119
1,75,100,1
1,75,0,59
1,77,100,1
1,77,0,59
1,75,100,1
1,75,0,59
1,75,100,1
1,75,0,59
1,72,100,1
1,72,0,29
1,70,100,1
1,70,0,29
1,68,100,1
1,68,0,119
1,72,100,121
1,72,0,59
1,75,100,1
1,75,0,119
1,75,100,1
1,75,0,119
1,75,100,1
1,75,0,119
1,77,100,1
1,77,0,119
1,75,100,1
1,75,0,119
1,72,100,1
1,72,0,179
1,63,100,61
1,63,0,59
1,65,100,1
1,65,0,59
1,68,100,1
1,68,0,59
1,68,100,1
1,68,0,59
1,72,100,1
1,72,0,179
1,65,100,601
1,65,0,59
1,68,100,1
1,68,0,59
1,68,100,1
1,68,0,59
1,72,100,1
1,72,0,239
1,73,100,1
1,73,0,29
1,72,100,1
1,72,0,29
1,68,100,1
1,68,0,59
1,70,100,1
1,70,0,299
1,70,100,1
1,70,0,59
1,68,100,1
1,68,0,59
1,70,100,1
1,70,0,59
1,68,100,1
1,68,0,59
1,68,100,1
1,68,0,119
2,56,100,300
2,60,100,0
2,63,100,0
2,63,0,119
2,60,0,0
2,56,0,0
2,63,100,1
2,60,100,0
2,56,100,0
2,56,0,239
2,60,0,0
2,63,0,0
2,58,100,1
2,56,100,0
2,63,100,0
2,63,0,59
2,56,0,0
2,58,0,0
2,56,100,1
2,58,100,0
2,63,100,0
2,63,0,179
2,58,0,0
2,56,0,0
2,56,100,1
2,60,100,0
2,63,100,0
2,63,0,59
2,60,0,0
2,56,0,0
2,63,100,1
2,60,100,0
2,56,100,0
2,56,0,179
2,60,0,0
2,63,0,0
2,56,100,1
2,58,100,0
2,63,100,0
2,63,0,59
2,58,0,0
2,56,0,0
2,56,100,1
2,58,100,0
2,63,100,0
2,63,0,179
2,58,0,0
2,56,0,0
2,56,100,1
2,61,100,0
2,63,100,0
2,63,0,59
2,61,0,0
2,56,0,0
2,56,100,1
2,61,100,0
2,63,100,0
2,63,0,179
2,61,0,0
2,56,0,0
2,56,100,1
2,60,100,0
2,63,100,0
2,63,0,59
2,60,0,0
2,56,0,0
2,63,100,1
2,60,100,0
2,56,100,0
2,56,0,179
2,60,0,0
2,63,0,0
2,58,100,1
2,55,100,0
2,63,100,0
2,63,0,59
2,55,0,0
2,58,0,0
2,55,100,1
2,58,100,0
2,63,100,0
2,63,0,179
2,58,0,0
2,55,0,0
2,56,100,1
2,53,100,0
2,63,100,0
2,63,0,59
2,53,0,0
2,56,0,0
2,63,100,1
2,56,100,0
2,53,100,0
2,53,0,179
2,56,0,0
2,63,0,0
2,51,100,1
2,55,100,0
2,58,100,0
2,63,100,0
2,63,0,59
2,51,0,0
2,55,0,0
2,58,0,0
2,51,100,1
2,55,100,0
2,58,100,0
2,63,100,0
2,63,0,179
2,51,0,0
2,55,0,0
2,58,0,0
2,53,100,1
2,56,100,0
2,61,100,0
2,63,100,0
2,63,0,59
2,53,0,0
2,56,0,0
2,61,0,0
2,53,100,1
2,56,100,0
2,61,100,0
2,63,100,0
2,63,0,359
2,53,0,0
2,56,0,0
2,61,0,0
2,58,100,1
2,58,0,29
2,60,100,1
2,60,0,29
2,63,100,1
2,63,0,59
2,58,100,1
2,63,100,0
2,58,0,29
2,60,100,1
2,60,0,29
2,63,0,0
2,63,100,1
2,56,100,0
2,56,0,59
2,63,0,0
2,56,100,1
2,63,100,0
2,63,0,59
2,56,0,0
2,56,100,1
2,60,100,0
2,63,100,0
2,63,0,59
2,60,0,0
2,56,0,0
2,56,100,1
2,60,100,0
2,63,100,0
2,63,0,179
2,60,0,0
2,56,0,0
2,58,100,1
2,56,100,0
2,63,100,0
2,63,0,59
2,56,0,0
2,58,0,0
2,56,100,1
2,58,100,0
2,63,100,0
2,63,0,179
2,58,0,0
2,56,0,0
2,56,100,1
2,60,100,0
2,63,100,0
2,63,0,59
2,60,0,0
2,56,0,0
2,63,100,1
2,60,100,0
2,56,100,0
2,56,0,179
2,60,0,0
2,63,0,0
