track,note,velocity,time
1,31,124,940
1,31,106,98
1,31,110,112
1,29,119,12
1,29,96,86
1,29,119,112
1,27,97,2
1,27,93,100
1,27,97,76
1,38,90,2
1,36,99,2
1,36,106,98
1,38,106,16
1,26,103,2
1,31,119,18
1,31,103,54
1,31,110,108
1,29,106,2
1,29,115,50
1,29,115,86
1,27,102,6
1,27,93,98
1,27,112,88
1,36,110,2
1,36,96,106
1,38,96,14
1,26,93,2
1,31,115,28
1,31,88,68
1,31,106,110
1,29,110,2
1,29,83,96
1,29,103,94
1,27,97,2
1,27,102,96
1,27,97,88
1,36,99,2
1,36,93,116
1,38,110,36
1,26,90,8
1,31,115,36
1,31,106,84
1,31,106,84
1,29,110,22
1,29,96,82
1,29,99,86
1,27,97,30
1,27,97,72
1,27,97,78
1,38,106,26
1,36,90,2
1,36,85,80
1,36,96,78
1,34,89,2
1,32,82,12
1,32,89,64
1,32,89,92
1,34,97,2
1,36,96,4
1,36,88,84
1,36,96,90
1,34,82,2
1,32,85,6
1,32,82,110
1,32,89,80
1,31,115,2
1,29,106,6
1,29,106,86
1,31,106,16
1,31,96,20
1,36,93,100
1,36,96,92
1,34,82,10
1,34,85,94
1,27,85,10
1,32,82,10
1,32,82,76
1,31,93,2
1,31,106,66
1,36,93,14
1,36,79,70
1,36,99,78
1,31,88,32
1,36,88,2
1,36,93,106
1,38,93,2
1,26,103,2
1,31,115,60
1,31,88,68
1,31,106,110
1,29,110,2
1,29,83,96
1,29,103,94
1,27,97,2
1,27,102,96
1,27,97,88
1,36,99,2
1,36,93,116
1,38,110,36
1,26,90,8
1,31,115,36
1,31,106,86
1,31,106,82
1,29,110,22
1,29,96,82
1,29,99,86
1,27,97,28
1,27,97,74
1,27,97,78
1,38,106,24
1,36,90,2
1,36,85,78
1,36,96,78
1,34,89,2
1,32,82,12
1,32,89,64
1,32,89,92
1,36,96,192
1,36,88,84
1,36,96,90
1,34,82,2
1,32,85,6
1,32,82,110
1,32,89,82
1,31,115,2
1,29,106,6
1,29,106,88
1,31,106,16
1,31,96,22
1,36,93,98
1,36,96,92
1,34,82,10
1,34,85,94
1,27,85,10
1,32,82,10
1,32,82,76
1,31,93,2
1,31,106,66
1,36,93,14
1,36,79,70
1,36,99,78
1,31,88,32
1,36,88,2
1,36,93,106
1,38,93,2
1,26,103,2
1,31,119,58
1,31,99,68
1,31,115,94
1,29,119,10
1,29,106,70
1,29,119,98
1,34,72,8
1,41,99,2
1,27,106,2
1,27,97,114
1,27,102,86
1,39,85,2
1,36,99,2
1,36,88,130
1,38,93,10
1,26,93,2
1,31,119,42
1,31,115,74
1,31,110,76
1,43,106,2
1,29,103,2
1,29,115,108
1,29,110,70
1,41,103,2
1,27,85,14
1,27,106,120
1,27,102,76
1,27,102,78
1,36,93,2
1,36,106,78
1,38,106,18
1,38,110,32
1,24,119,70
1,26,119,52
1,26,124,40
1,31,119,158
1,31,90,76
1,31,106,84
1,31,115,86
1,29,103,72
1,29,103,94
1,29,115,110
1,29,110,102
1,27,106,80
1,27,106,118
1,27,106,98
1,27,97,88
1,36,99,36
1,36,96,62
1,38,115,38
1,26,119,12
1,26,127,62
1,26,127,64
1,31,103,34
1,31,103,60
1,31,110,106
1,31,110,76
1,29,110,42
1,29,110,70
1,29,115,124
1,29,106,78
1,27,93,2
1,27,97,92
1,27,102,84
1,38,110,2
1,36,103,44
1,36,96,102
1,36,106,66
1,34,93,2
1,32,102,10
1,32,97,82
1,32,97,74
1,32,97,88
1,34,89,6
1,36,106,48
1,36,103,90
1,36,106,78
1,34,93,20
1,32,102,2
1,32,82,80
1,32,102,66
1,31,115,4
1,29,106,2
1,29,103,70
1,29,99,68
1,29,103,68
1,31,90,32
1,31,90,60
1,31,88,66
1,31,81,44
1,31,88,44
1,31,103,48
1,36,110,38
1,36,106,80
1,34,85,12
1,34,85,78
1,32,102,2
1,32,89,78
1,31,110,16
1,31,103,74
1,36,103,12
1,36,103,76
1,34,75,18
1,34,85,90
1,32,85,4
1,32,89,86
1,31,103,22
1,31,103,36
1,36,93,32
1,36,99,64
1,34,97,4
1,34,82,64
1,32,93,6
1,32,85,84
1,31,106,2
1,31,103,46
1,31,103,38
1,36,110,58
1,36,110,36
1,36,93,48
1,36,110,30
1,36,99,34
1,36,110,42
1,36,103,42
1,36,110,44
1,36,103,44
1,38,110,42
1,38,99,28
1,38,77,30
1,38,99,36
1,38,106,34
1,38,115,50
1,38,106,42
1,38,115,48
1,38,110,52
1,39,97,44
1,39,93,38
1,39,67,32
1,39,85,36
1,39,93,38
1,39,89,36
1,39,93,52
1,39,89,50
1,39,93,48
1,29,115,30
1,29,106,60
1,29,96,44
1,29,115,32
1,29,119,50
1,31,115,46
1,31,119,32
1,31,119,140
1,31,115,34
1,24,127,110
2,46,112,25108
2,53,112,0
2,44,112,4
2,51,112,0
2,46,112,1146
2,53,112,2
2,48,112,10
2,55,112,0
2,46,112,1150
2,53,112,0
2,44,112,6
2,51,112,2
2,43,112,6
2,50,112,0
2,41,112,2
2,48,112,0
2,43,112,4
2,50,112,0
2,55,87,192
2,60,99,182
2,63,99,196
2,67,79,198
2,53,83,6
2,58,83,86
2,63,99,4
2,51,111,2
2,56,99,80
2,60,91,174
2,51,83,132
2,59,107,214
2,55,111,2
2,60,95,162
2,59,107,184
2,55,83,4
2,60,94,170
2,63,103,206
2,67,83,202
2,50,91,100
2,57,91,0
2,57,127,4
2,50,127,2
2,46,121,11886
2,53,121,2
2,51,121,24
2,44,121,4
2,44,76,28
2,48,121,24
2,55,121,0
2,45,84,14
2,53,104,18
2,46,121,4
2,51,121,50
2,44,121,0
2,43,121,24
2,50,121,0
2,49,84,12
2,41,121,10
2,48,121,2
2,50,84,12
2,43,121,24
2,50,121,0
2,55,94,240
2,60,106,182
2,63,106,196
2,67,86,198
2,53,90,14
2,58,90,154
2,63,106,206
2,51,118,2
2,56,106,150
2,60,98,190
2,51,90,132
2,59,114,214
2,60,102,162
2,59,95,184
2,55,90,380
2,60,82,174
2,63,110,206
2,67,90,202
2,38,127,8
2,45,127,0
2,50,127,0
2,45,127,28
2,50,119,0
2,38,127,2
2,38,127,210
2,45,127,0
2,50,127,0
2,50,119,30
2,45,127,2
2,38,127,2
2,74,125,10
2,72,117,20
2,70,100,4
2,67,108,46
2,70,127,130
2,72,112,118
2,67,127,14
2,67,125,72
2,65,87,10
2,62,93,42
2,65,110,124
2,67,110,126
2,62,110,12
2,72,118,794
2,70,100,2
2,67,108,48
2,70,118,146
2,72,110,138
2,67,118,20
2,67,118,96
2,65,90,14
2,62,95,36
2,65,118,140
2,67,110,128
2,62,118,20
2,74,125,8
2,72,123,24
2,70,115,14
2,67,102,14
2,70,123,134
2,72,121,140
2,67,117,144
2,67,112,6
2,65,111,2
2,62,104,32
2,65,115,124
2,67,109,128
2,62,127,16
2,72,127,526
2,70,114,4
2,67,101,36
2,70,121,138
2,72,114,142
2,67,108,148
2,67,108,44
2,65,91,34
2,62,105,42
2,65,109,144
2,67,102,148
2,62,123,20
2,46,127,11950
2,53,127,0
2,51,114,8
2,44,127,26
2,44,96,36
2,51,95,0
2,46,127,66
2,53,123,0
2,48,123,4
2,55,125,2
2,46,127,32
2,53,112,0
2,44,127,62
2,51,115,0
2,43,127,22
2,51,119,0
2,41,127,44
2,48,119,0
2,43,123,54
2,50,127,0
2,55,115,2
2,48,125,46
2,55,106,204
2,60,112,198
2,63,103,176
2,46,127,8
2,55,106,0
2,60,109,210
2,63,92,194
2,44,115,16
2,51,112,14
2,56,99,182
2,60,98,190
2,43,114,0
2,50,85,46
2,60,101,6
2,59,98,184
2,60,95,178
2,48,121,168
2,55,85,186
2,60,111,166
2,63,104,194
2,46,119,20
2,55,85,112
2,60,105,186
2,63,100,186
2,44,115,14
2,51,107,98
2,56,97,168
2,60,99,192
2,43,108,36
2,60,101,40
2,50,94,2
2,59,101,184
2,60,100,178
2,48,115,16
2,55,88,184
2,60,102,176
2,63,97,188
2,46,127,10
2,55,94,10
2,60,105,170
2,63,99,198
2,44,119,18
2,51,103,128
2,56,103,196
2,60,100,186
2,43,106,16
2,50,100,40
2,60,102,0
2,59,102,188
2,60,86,168
2,60,99,186
2,67,98,200
2,72,107,174
2,60,86,70
2,67,101,110
2,62,107,2
2,62,57,16
2,71,102,182
2,74,99,180
2,62,105,78
2,71,111,86
2,63,102,362
2,67,94,2
2,58,67,184
2,63,80,94
2,72,104,186
2,63,107,84
2,60,92,8
2,65,117,6
2,62,117,76
2,67,117,0
2,67,86,14
2,62,98,2
2,62,117,200
2,67,117,0
2,62,117,46
2,67,117,0
2,48,117,4
2,55,117,2
3,58,125,13380
3,58,116,42
3,57,102,2
3,55,109,2
3,58,121,12
3,58,121,496
3,57,125,26
3,55,115,2
3,58,116,2
3,62,127,814
3,60,127,94
3,58,116,20
3,60,127,98
3,55,112,12
3,55,122,280
3,55,122,40
3,62,127,30
3,60,115,34
3,58,108,20
3,60,127,32
3,58,121,1058
3,55,98,4
3,58,116,62
3,55,98,2
3,58,121,32
3,53,96,2
3,55,112,4
3,58,125,762
3,55,107,6
3,62,127,30
3,62,127,452
3,60,107,6
3,60,127,118
3,58,112,16
3,60,125,88
3,58,112,2
3,55,127,16
3,55,127,84
3,58,116,20
3,62,127,90
3,60,118,4
3,58,104,84
3,60,125,12
3,63,116,754
3,63,121,54
3,62,127,12
3,60,127,84
3,62,127,82
3,60,122,8
3,63,104,158
3,63,112,66
3,62,127,20
3,60,122,72
3,62,127,62
3,60,118,2
3,63,112,138
3,62,98,10
3,60,109,12
3,62,109,56
3,60,122,68
3,63,101,224
3,62,115,2
3,60,104,2
3,63,101,82
3,62,109,2
3,60,127,206
3,63,125,8
3,62,127,2
3,60,127,8
3,63,121,98
3,60,107,10
3,63,121,2
3,63,125,66
3,60,107,2
3,63,121,2
3,58,116,6
3,60,109,2
3,58,116,2732
3,58,116,56
3,57,118,2
3,55,112,2
3,58,116,2
3,58,116,560
3,57,125,2
3,55,115,2
3,62,127,2
3,62,127,752
3,60,127,114
3,58,116,106
3,60,112,114
3,58,112,2
3,55,127,2
3,55,125,236
3,62,115,102
3,60,109,22
3,58,104,38
3,62,115,10
3,58,116,784
3,58,116,84
3,58,125,96
3,55,125,8
3,62,127,670
3,62,127,8
3,62,127,548
3,60,127,92
3,58,112,96
3,60,127,86
3,58,101,26
3,55,122,14
3,55,122,214
3,58,108,30
3,62,127,38
3,60,104,6
3,58,112,62
3,60,125,12
3,63,127,818
3,62,127,2
3,60,125,10
3,63,125,18
3,63,125,538
3,63,121,50
3,62,122,2
3,60,122,2
3,63,125,14
3,63,125,420
3,63,125,50
3,62,127,2
3,60,112,2
3,63,125,28
3,60,127,16
3,63,116,354
3,63,121,48
3,62,118,2
3,60,112,2
3,63,108,2
3,62,125,2
3,60,112,38
3,60,125,44
3,60,118,46
3,63,121,26
3,62,127,2
3,60,118,2
3,63,125,112
3,60,109,8
3,63,121,8
3,63,121,56
3,60,112,2
3,63,112,2
3,58,104,2
3,60,112,2
3,58,125,15110
3,58,121,52
3,55,127,6
3,58,121,28
3,62,127,550
3,60,127,2
3,58,116,78
3,62,127,16
3,62,127,426
3,60,118,2
3,58,97,12
3,60,127,28
3,62,127,740
3,60,122,4
3,58,125,50
3,62,127,58
3,58,121,686
3,58,121,58
3,55,127,10
3,58,116,26
3,62,127,692
3,60,122,4
3,58,121,74
3,60,127,56
3,55,125,6
3,62,127,624
3,60,122,2
3,60,125,48
3,58,94,2
3,60,127,22
3,55,122,336
3,58,108,4
3,62,127,46
3,58,116,44
3,60,125,26
3,58,97,10
3,63,121,614
3,63,125,60
3,60,109,6
3,63,121,26
3,63,112,14
3,62,115,8
3,60,118,116
3,63,104,10
3,60,125,470
3,63,125,68
3,63,112,58
3,63,125,72
3,63,121,138
3,60,107,36
3,63,125,48
3,63,121,374
3,60,96,2
3,63,108,26
3,63,94,36
3,63,112,58
3,63,116,50
3,65,127,54
3,63,112,58
3,62,112,2
3,60,118,76
3,60,125,52
3,60,115,90
3,63,121,24
3,62,107,6
3,60,112,2
3,63,112,146
3,60,104,8
3,63,112,12
3,63,116,328
3,60,104,10
3,63,116,6
3,62,112,2
3,60,112,2
3,63,101,82
3,60,104,2
3,63,112,4
3,63,112,346
3,60,100,6
3,63,116,10
3,62,125,2
3,60,115,8
3,63,112,80
3,60,112,12
3,63,116,8
3,63,116,388
3,60,81,22
3,63,116,20
3,58,108,2
3,60,104,4
4,58,99,880
4,62,99,0
4,67,99,0
4,55,93,964
4,62,125,2
4,58,113,10
4,63,99,2
4,67,117,0
4,60,99,1522
4,58,121,550
4,57,99,4
4,62,99,0
4,66,99,368
4,58,99,4
4,62,99,0
4,67,99,0
4,63,99,24
4,60,99,4
4,63,99,0
4,57,99,4
4,62,99,0
4,67,99,0
4,57,99,262
4,62,99,0
4,66,99,0
4,58,83,256
4,62,83,0
4,67,96,0
4,62,81,2
4,58,69,10
4,63,83,192
4,65,73,0
4,60,83,52
4,58,77,576
4,57,83,52
4,62,83,0
4,66,83,52
4,58,83,52
4,62,83,0
4,67,96,0
4,63,83,24
4,60,83,2
4,63,83,0
4,58,83,1144
4,65,83,0
4,62,83,0
4,56,107,24
4,60,107,2
4,63,107,0
4,58,95,26
4,62,123,0
4,65,119,4
4,63,115,42
4,67,119,0
4,60,123,2
4,65,123,22
4,58,119,2
4,62,123,0
4,60,127,30
4,63,119,0
4,56,107,6
4,55,115,22
4,58,115,0
4,62,127,0
4,60,119,38
4,53,115,4
4,56,111,0
4,60,99,30
4,62,119,4
4,55,119,2
4,59,107,10
4,60,119,12
4,63,119,0
4,67,123,2
4,58,115,734
4,62,119,4
4,56,115,12
4,60,119,2
4,63,115,2
4,55,107,88
4,60,123,2
4,62,123,2
4,59,123,380
4,60,123,0
4,63,123,0
4,67,123,0
4,62,84,4
4,66,84,0
4,69,84,6
4,58,104,4
4,62,109,0
4,67,109,0
4,63,100,18
4,60,108,112
4,62,84,20
4,57,80,2
4,66,88,384
4,58,108,0
4,67,100,2
4,65,72,92
4,67,88,1514
4,63,100,0
4,62,84,1122
4,60,100,384
4,63,104,2
4,72,109,4
4,62,84,12
4,65,100,6
4,58,100,2
4,63,100,18
4,75,109,2
4,56,104,2
4,60,109,0
4,62,76,4
4,58,100,4
4,63,115,22
4,60,115,2
4,67,115,0
4,72,115,2
4,58,115,10
4,62,115,2
4,65,115,4
4,56,115,26
4,60,115,6
4,63,115,0
4,58,115,26
4,62,115,0
4,55,115,2
4,60,115,26
4,53,115,2
4,56,115,0
4,55,115,44
4,62,115,0
4,60,115,2
4,59,115,368
4,60,115,10
4,63,115,2
4,67,115,2
4,58,115,26
4,62,115,0
4,63,115,2
4,60,112,8
4,56,115,24
4,60,115,2
4,63,115,0
4,60,115,18
4,62,115,0
4,55,115,2
4,59,115,28
4,60,115,76
4,63,115,2
4,67,115,0
4,62,127,84
4,66,127,0
4,69,127,0
4,74,112,0
4,72,127,2
4,62,121,42
4,66,123,0
4,69,125,0
4,74,117,0
4,69,127,230
4,62,127,2
4,66,127,0
4,74,127,0
4,62,125,32
4,66,125,0
4,69,125,0
4,74,119,0
4,55,105,12522
4,58,103,0
4,62,108,0
4,53,75,1512
4,51,109,34
4,60,100,12
4,57,94,10
4,62,104,4
4,54,97,42
4,62,115,74
4,67,104,0
4,58,90,4
4,63,103,92
4,63,106,28
4,55,104,4
4,60,111,2
4,58,104,28
4,65,111,0
4,62,121,2
4,56,88,28
4,63,119,2
4,60,109,2
4,58,115,96
4,65,111,4
4,62,119,2
4,60,92,54
4,63,104,2
4,67,94,2
4,62,89,22
4,58,85,6
4,65,91,2
4,63,100,4
4,60,95,8
4,56,77,8
4,55,112,38
4,58,106,0
4,60,115,44
4,53,114,2
4,56,110,0
4,60,117,36
4,62,119,2
4,55,115,4
4,59,121,24
4,60,119,54
4,63,119,0
4,67,101,0
4,58,112,0
4,62,117,2
4,60,111,44
