track,note,velocity,time
0,42,63,0
0,40,95,0
0,40,0,60
0,42,0,0
0,42,63,0
0,42,0,60
0,42,63,0
0,42,0,60
0,40,95,0
0,42,63,0
0,42,0,60
0,40,0,0
0,42,63,0
0,42,0,60
0,79,95,0
0,42,63,0
0,42,0,60
0,79,0,0
0,86,95,0
0,40,95,0
0,42,63,0
0,42,0,60
0,40,0,0
0,86,0,0
0,88,95,0
0,42,63,0
0,42,0,60
0,88,0,0
0,91,95,0
0,42,63,0
0,42,0,60
0,74,95,0
0,67,95,0
0,42,63,0
0,42,0,60
0,40,95,0
0,42,63,0
0,42,0,60
0,40,0,0
0,42,63,0
0,42,0,60
0,42,63,0
0,42,0,60
0,40,95,0
0,42,63,0
0,42,0,60
0,40,0,0
0,42,63,0
0,42,0,60
0,42,63,0
0,42,0,60
0,40,95,0
0,42,63,0
0,42,0,60
0,40,0,0
0,42,63,0
0,42,0,60
0,42,63,0
0,42,0,60
0,40,95,0
0,42,63,0
0,42,0,60
0,40,0,0
0,42,63,0
0,42,0,60
0,42,63,0
0,42,0,60
0,40,95,0
0,42,63,0
0,42,0,60
0,40,0,0
0,42,63,0
0,42,0,60
0,42,63,0
0,42,0,60
0,40,95,0
0,42,63,0
0,42,0,60
0,40,0,0
0,40,95,0
0,42,63,0
0,42,0,60
0,40,0,0
0,42,63,0
0,42,0,60
0,42,63,0
0,42,0,60
0,67,0,0
0,74,0,0
0,91,0,0
0,74,95,0
0,40,95,0
0,42,63,0
0,42,0,60
0,40,0,0
0,74,0,0
0,81,95,0
0,42,63,0
0,42,0,60
0,81,0,0
0,83,95,0
0,40,95,0
0,42,63,0
0,42,0,60
0,40,0,0
0,83,0,0
0,86,95,0
0,40,95,0
0,42,63,0
0,42,0,60
0,40,0,0
0,65,95,0
0,79,95,0
0,72,95,0
0,42,63,0
0,42,0,60
0,42,63,0
0,42,0,60
0,40,95,0
0,42,63,0
0,42,0,60
0,40,0,0
0,42,63,0
0,42,0,60
0,42,63,0
0,42,0,60
0,60,95,0
0,67,95,0
0,40,95,0
0,42,63,0
0,42,0,60
0,40,0,0
0,42,63,0
0,42,0,60
0,42,63,0
0,42,0,60
0,42,63,0
0,42,0,60
0,40,95,0
0,42,63,0
0,42,0,60
0,40,0,0
0,42,63,0
0,42,0,60
0,42,63,0
0,67,0,59
0,65,0,0
0,60,0,0
0,72,0,1
0,86,0,0
0,79,0,0
0,42,0,0
0,67,95,0
0,40,95,0
0,42,63,0
0,67,0,59
0,42,0,1
0,40,0,0
0,74,95,0
0,42,63,0
0,42,0,60
0,74,0,0
0,76,95,0
0,42,63,0
0,42,0,60
0,76,0,0
0,79,95,0
0,62,50,0
0,67,50,0
0,40,95,0
0,42,63,0
0,42,0,2
0,40,0,0
0,62,95,0
0,55,95,0
0,42,63,0
0,42,0,60
0,42,63,0
0,42,0,16
0,40,95,0
0,42,63,0
0,42,0,4
0,40,0,0
0,42,63,0
0,42,0,60
0,42,63,0
0,42,0,8
0,40,95,0
0,42,63,0
0,42,0,10
0,40,0,0
0,42,63,0
0,42,0,24
0,42,63,0
0,42,0,34
0,40,95,0
0,42,63,0
0,42,0,30
0,40,0,0
0,40,95,0
0,42,63,0
0,42,0,4
0,40,0,0
0,42,63,0
0,42,0,8
0,42,63,0
0,42,0,30
0,40,95,0
0,42,63,0
0,42,0,11
0,40,0,0
0,42,63,0
0,42,0,5
0,40,95,0
0,42,63,0
0,42,0,2
0,40,0,0
0,40,95,0
0,42,63,0
0,42,0,12
0,40,0,0
0,42,63,0
0,42,0,4
0,42,63,0
0,42,0,6
0,40,95,0
0,42,63,0
0,42,0,4
0,40,0,0
0,42,63,0
0,42,0,4
0,79,0,0
0,67,95,0
0,42,63,0
0,42,0,6
0,67,0,0
0,69,95,0
0,40,95,0
0,42,63,0
0,42,0,38
0,69,0,0
0,40,0,0
0,71,95,0
0,42,63,0
0,42,0,16
0,71,0,0
0,74,95,0
0,42,63,0
0,42,0,40
0,74,0,0
0,72,95,0
0,42,63,0
0,42,0,60
0,72,0,0
0,71,95,0
0,40,95,0
0,42,63,0
0,42,0,60
0,71,0,0
0,40,0,0
0,69,95,0
0,42,63,0
0,42,0,60
0,69,0,0
0,71,95,0
0,42,63,0
0,42,0,60
0,71,0,0
0,67,95,0
0,40,95,0
0,42,63,0
0,42,0,60
0,67,0,0
0,40,0,0
0,62,95,0
0,42,63,0
0,42,0,60
0,62,0,0
0,60,95,0
0,42,63,0
0,42,0,60
0,67,0,0
0,62,0,0
0,62,0,0
0,60,0,0
0,55,0,0
0,64,95,0
0,72,95,0
0,67,95,0
0,64,69,0
0,72,69,0
0,67,69,0
0,33,107,0
0,42,63,0
0,40,95,0
0,42,95,0
0,42,0,60
0,40,0,0
0,42,0,0
0,42,63,0
0,42,0,60
0,42,63,0
0,42,0,60
0,42,63,0
0,40,95,0
0,40,0,60
0,33,0,0
0,64,0,0
0,72,0,0
0,72,0,0
0,67,0,0
0,64,0,0
0,67,0,0
0,42,0,0
0,67,95,0
0,71,95,0
0,62,95,0
0,62,69,0
0,71,69,0
0,67,69,0
0,36,107,0
0,42,95,0
0,42,63,0
0,42,0,60
0,42,0,0
0,42,63,0
0,42,0,60
0,42,63,0
0,40,95,0
0,40,0,60
0,42,0,0
0,42,63,0
0,42,0,60
0,36,0,0
0,71,0,0
0,71,0,0
0,62,0,0
0,67,0,0
0,67,0,0
0,62,0,0
0,62,95,0
0,69,95,0
0,66,95,0
0,66,69,0
0,62,69,0
0,69,69,0
0,40,107,0
0,42,95,0
0,42,63,0
0,42,0,60
0,42,0,0
0,40,95,0
0,42,63,0
0,42,0,60
0,40,0,0
0,40,95,0
0,42,63,0
0,42,0,60
0,40,0,0
0,42,63,0
0,42,0,60
0,40,0,0
0,62,0,0
0,69,0,0
0,66,0,0
0,66,0,0
0,69,0,0
0,62,0,0
0,67,95,0
0,64,95,0
0,60,95,0
0,67,69,0
0,60,69,0
0,64,69,0
0,41,107,0
0,42,95,0
0,42,63,0
0,42,0,60
0,42,0,0
0,40,95,0
0,42,63,0
0,42,0,60
0,40,0,0
0,42,63,0
0,42,0,60
0,41,0,0
0,43,107,0
0,40,95,0
0,42,63,0
0,42,0,60
0,67,0,0
0,67,0,0
0,40,0,0
0,64,0,0
0,60,0,0
0,60,0,0
0,64,0,0
0,62,69,0
0,55,69,0
0,59,69,0
0,35,95,0
0,42,63,0
0,42,0,60
0,35,0,0
0,65,95,0
0,62,95,0
0,42,63,0
0,42,0,60
0,42,63,0
0,42,0,60
0,62,0,0
0,65,0,0
0,62,95,0
0,65,95,0
0,42,63,0
0,39,95,0
0,39,0,60
0,42,0,0
0,62,0,0
0,65,0,0
0,62,95,0
0,65,95,0
0,42,63,0
0,42,0,60
0,62,0,0
0,65,0,0
0,64,95,0
0,60,95,0
0,42,63,0
0,42,0,60
0,42,63,0
0,42,0,60
0,60,0,0
0,43,0,0
0,64,0,0
0,60,95,0
0,64,95,0
0,38,107,0
0,42,63,0
0,42,0,60
0,38,0,0
0,43,107,0
0,42,63,0
0,35,95,0
0,35,0,60
0,42,0,0
0,64,0,0
0,60,0,0
0,62,95,0
0,59,95,0
0,42,63,0
0,42,0,60
0,42,63,0
0,42,0,60
0,59,0,0
0,62,0,0
0,62,95,0
0,59,95,0
0,42,63,0
0,42,0,60
0,39,95,0
0,38,95,0
0,42,63,0
0,42,0,60
0,38,0,0
0,39,0,0
0,59,0,0
0,62,0,0
0,62,95,0
0,57,95,0
0,42,63,0
0,42,0,60
0,42,63,0
0,42,0,60
0,57,0,0
0,43,0,0
0,62,0,0
0,62,95,0
0,57,95,0
0,43,107,0
0,42,63,0
0,62,0,59
0,59,0,0
0,43,0,1
0,55,0,0
0,42,0,0
0,57,69,0
0,60,69,0
0,62,69,0
0,48,107,0
0,42,63,0
0,35,95,0
0,35,0,60
0,42,0,0
0,57,0,0
0,62,0,0
0,62,95,0
0,55,95,0
0,42,63,0
0,42,0,60
0,42,63,0
0,42,0,60
0,42,63,0
0,42,0,60
0,62,0,0
0,55,0,0
0,55,95,0
0,62,95,0
0,39,95,0
0,42,63,0
0,38,95,0
0,35,95,0
0,35,0,60
0,38,0,0
0,39,0,0
0,42,0,0
0,42,63,0
0,42,0,60
0,62,0,0
0,55,0,0
0,57,95,0
0,42,63,0
0,42,0,60
0,48,0,0
0,57,0,0
0,62,95,0
0,59,95,0
0,36,107,0
0,42,63,0
0,57,0,59
0,62,0,0
0,36,0,1
0,62,0,0
0,60,0,0
0,42,0,0
0,59,0,0
0,62,95,0
0,57,95,0
0,62,69,0
0,55,69,0
0,41,107,0
0,35,95,0
0,42,63,0
0,42,0,60
0,35,0,0
0,42,63,0
0,42,0,60
0,57,0,0
0,62,0,0
0,62,95,0
0,57,95,0
0,42,63,0
0,42,0,60
0,62,0,0
0,57,0,0
0,55,95,0
0,62,95,0
0,42,63,0
0,42,0,60
0,55,0,0
0,41,0,0
0,62,0,0
0,62,69,0
0,57,69,0
0,60,69,0
0,36,107,0
0,35,95,0
0,38,95,0
0,39,95,0
0,42,63,0
0,42,0,60
0,39,0,0
0,35,0,0
0,62,0,0
0,38,0,0
0,55,0,0
0,62,95,0
0,55,95,0
0,42,63,0
0,42,0,60
0,42,63,0
0,42,0,60
0,55,0,0
0,36,0,0
0,62,0,0
0,55,95,0
0,62,95,0
0,38,107,0
0,42,63,0
0,42,0,60
0,60,0,0
0,57,0,0
0,62,0,0
0,38,0,0
0,62,69,0
0,59,69,0
0,55,69,0
0,43,107,0
0,42,63,0
0,35,95,0
0,35,0,60
0,42,0,0
0,62,0,0
0,55,0,0
0,65,95,0
0,62,95,0
0,42,63,0
0,42,0,60
0,42,63,0
0,42,0,60
0,62,0,0
0,65,0,0
0,62,95,0
0,65,95,0
0,39,95,0
0,42,63,0
0,42,0,60
0,39,0,0
0,62,0,0
0,65,0,0
0,65,95,0
0,62,95,0
0,42,63,0
0,42,0,60
0,65,0,0
0,62,0,0
0,60,95,0
0,64,95,0
0,42,63,0
0,42,0,60
0,42,63,0
0,42,0,60
0,64,0,0
0,43,0,0
0,60,0,0
0,64,95,0
0,60,95,0
0,38,107,0
0,42,63,0
0,42,0,60
0,38,0,0
0,43,107,0
0,42,63,0
0,35,95,0
0,35,0,60
0,42,0,0
0,60,0,0
0,64,0,0
0,59,95,0
0,62,95,0
0,42,63,0
0,42,0,60
0,42,63,0
0,42,0,60
0,62,0,0
0,59,0,0
0,59,95,0
0,62,95,0
0,42,63,0
0,42,0,60
0,38,95,0
0,42,63,0
0,39,95,0
0,39,0,60
0,42,0,0
0,38,0,0
0,62,0,0
0,59,0,0
0,62,95,0
0,57,95,0
0,42,63,0
0,42,0,60
0,42,63,0
0,42,0,60
0,57,0,0
0,43,0,0
0,62,0,0
0,57,95,0
0,62,95,0
0,43,107,0
0,42,63,0
0,62,0,59
0,59,0,0
0,43,0,1
0,55,0,0
0,42,0,0
0,62,69,0
0,60,69,0
0,57,69,0
0,48,107,0
0,35,95,0
0,42,63,0
0,42,0,60
0,35,0,0
0,62,0,0
0,57,0,0
0,55,95,0
0,62,95,0
0,42,63,0
0,42,0,60
0,42,63,0
0,42,0,60
0,42,63,0
0,42,0,60
0,55,0,0
0,62,0,0
0,55,95,0
0,52,95,0
0,35,95,0
0,42,63,0
0,39,95,0
0,38,95,0
0,38,0,60
0,39,0,0
0,35,0,0
0,42,0,0
0,52,0,0
0,55,95,0
0,42,63,0
0,42,0,60
0,55,0,0
0,55,0,0
0,57,95,0
0,42,63,0
0,42,0,60
0,48,0,0
0,57,0,0
0,59,95,0
0,62,95,0
0,36,107,0
0,42,63,0
0,62,0,59
0,57,0,0
0,36,0,1
0,59,0,0
0,60,0,0
0,42,0,0
0,62,0,0
0,62,95,0
0,57,95,0
0,62,69,0
0,55,69,0
0,41,107,0
0,35,95,0
0,42,63,0
0,42,0,60
0,57,0,0
0,35,0,0
0,59,95,0
0,42,63,0
0,42,0,60
0,59,0,0
0,57,95,0
0,42,63,0
0,42,0,60
0,62,0,0
0,57,0,0
0,62,95,0
0,55,95,0
0,42,63,0
0,42,0,60
0,41,0,0
0,62,0,0
0,55,0,0
0,55,69,0
0,62,69,0
0,38,107,0
0,35,95,0
0,38,95,0
0,42,63,0
0,39,95,0
0,39,0,60
0,55,0,0
0,42,0,0
0,62,0,0
0,38,0,0
0,35,0,0
0,62,95,0
0,55,95,0
0,42,63,0
0,42,0,60
0,42,63,0
0,42,0,60
0,55,0,0
0,62,0,0
0,52,95,0
0,42,63,0
0,42,0,60
0,55,0,0
0,38,0,0
0,62,0,0
0,52,0,0
0,64,95,0
0,67,95,0
0,62,95,0
0,72,107,0
0,57,69,0
0,33,107,0
0,35,95,0
0,42,63,0
0,42,0,60
0,35,0,0
0,42,63,0
0,42,0,60
0,72,0,0
0,72,107,0
0,42,63,0
0,42,0,60
0,72,0,0
0,72,107,0
0,39,95,0
0,42,63,0
0,42,0,60
0,39,0,0
0,42,63,0
0,42,0,60
0,72,0,0
0,71,107,0
0,42,63,0
0,42,0,60
0,67,0,0
0,33,0,0
0,62,0,0
0,64,0,0
0,71,0,0
0,57,0,0
0,62,95,0
0,71,95,0
0,67,95,0
0,74,107,0
0,55,69,0
0,42,63,0
0,42,0,60
0,43,107,0
0,42,63,0
0,42,0,60
0,71,0,0
0,74,0,0
0,62,0,0
0,43,0,0
0,71,95,0
0,62,95,0
0,74,107,0
0,43,107,0
0,35,95,0
0,42,63,0
0,42,0,60
0,35,0,0
0,42,63,0
0,42,0,60
0,43,0,0
0,42,63,0
0,42,0,60
0,43,107,0
0,42,63,0
0,42,0,60
0,43,0,0
0,39,95,0
0,38,95,0
0,42,63,0
0,42,0,60
0,38,0,0
0,39,0,0
0,43,107,0
0,42,63,0
0,42,0,60
0,43,0,0
0,42,63,0
0,42,0,60
0,31,107,0
0,42,63,0
0,42,0,60
0,74,0,0
0,67,0,0
0,71,0,0
0,55,0,0
0,31,0,0
0,62,0,0
0,62,95,0
0,67,95,0
0,71,95,0
0,76,107,0
0,52,69,0
0,40,107,0
0,35,95,0
0,42,63,0
0,42,0,60
0,35,0,0
0,42,63,0
0,42,0,60
0,76,0,0
0,76,107,0
0,42,63,0
0,42,0,60
0,42,63,0
0,42,0,60
0,76,0,0
0,40,0,0
0,71,0,0
0,52,0,0
0,67,0,0
0,62,0,0
0,67,95,0
0,60,95,0
0,74,107,0
0,48,69,0
0,36,107,0
0,38,95,0
0,35,95,0
0,42,63,0
0,39,95,0
0,39,0,60
0,42,0,0
0,35,0,0
0,74,0,0
0,38,0,0
0,74,107,0
0,42,63,0
0,42,0,60
0,74,0,0
0,74,107,0
0,42,63,0
0,42,0,60
0,42,63,0
0,42,0,60
0,74,0,0
0,48,0,0
0,36,0,0
0,60,0,0
0,67,0,0
0,69,95,0
0,62,95,0
0,66,95,0
0,74,107,0
0,50,69,0
0,38,107,0
0,35,95,0
0,42,63,0
0,42,0,60
0,35,0,0
0,42,63,0
0,42,0,60
0,42,63,0
0,42,0,60
0,38,0,0
0,50,107,0
0,42,63,0
0,42,0,60
0,50,0,0
0,35,95,0
0,38,95,0
0,42,63,0
0,39,95,0
0,39,0,60
0,42,0,0
0,38,0,0
0,35,0,0
0,50,107,0
0,42,63,0
0,42,0,60
0,50,0,0
0,42,63,0
0,42,0,60
0,38,107,0
0,42,63,0
0,42,0,60
0,62,0,0
0,50,0,0
0,66,0,0
0,69,0,0
0,38,0,0
0,74,0,0
0,67,95,0
0,62,95,0
0,64,95,0
0,72,107,0
0,57,69,0
0,33,107,0
0,42,63,0
0,35,95,0
0,35,0,60
0,42,0,0
0,72,0,0
0,71,107,0
0,42,63,0
0,42,0,60
0,42,63,0
0,42,0,60
0,71,0,0
0,72,107,0
0,42,63,0
0,39,95,0
0,39,0,60
0,42,0,0
0,42,63,0
0,42,0,60
0,72,0,0
0,71,107,0
0,42,63,0
0,42,0,60
