track,note,velocity,time
0,81,80,0
0,69,80,0
0,88,80,64
0,86,80,64
0,69,80,0
0,71,80,0
0,74,80,0
0,74,80,192
0,69,80,0
0,74,80,64
0,69,80,0
0,67,80,0
0,81,80,64
0,78,80,64
0,74,80,0
0,69,80,0
0,76,80,192
0,71,80,0
0,76,80,64
0,71,80,0
0,57,80,0
0,81,80,64
0,78,80,64
0,74,80,0
0,67,80,0
0,69,80,192
0,69,80,64
0,64,80,0
0,62,80,0
0,59,80,0
0,74,80,64
0,69,80,64
0,66,80,0
0,62,80,0
0,67,80,0
0,52,80,0
0,81,80,192
0,81,80,64
0,71,80,0
0,69,80,0
0,88,80,64
0,86,80,64
0,69,80,0
0,71,80,0
0,74,80,0
0,74,80,192
0,69,80,0
0,74,80,64
0,69,80,0
0,67,80,0
0,81,80,64
0,78,80,64
0,74,80,0
0,69,80,0
0,76,80,192
0,71,80,0
0,76,80,64
0,71,80,0
0,57,80,0
0,81,80,64
0,78,80,64
0,74,80,0
0,67,80,0
0,69,80,192
0,69,80,64
0,62,80,0
0,59,80,0
0,76,80,0
0,62,80,0
0,57,80,0
0,47,80,0
0,40,80,0
0,69,80,0
0,59,80,0
0,64,80,0
0,54,80,0
0,38,80,0
0,64,81,0
0,59,81,0
0,57,81,0
0,69,80,64
0,64,80,64
0,59,80,0
0,57,80,0
0,62,100,4
0,57,100,0
0,50,100,0
0,43,100,0
0,62,100,0
0,57,100,0
0,61,100,4
0,57,100,0
0,52,100,0
0,45,100,0
0,61,100,0
0,57,100,0
0,74,80,4
0,69,80,0
0,66,80,0
0,55,80,0
0,59,80,0
0,62,80,0
0,69,80,0
0,67,80,0
0,66,80,0
0,83,80,64
0,81,80,64
0,79,81,64
0,81,81,4
0,78,81,0
0,69,81,0
0,54,81,0
0,47,81,0
0,69,81,0
0,66,81,0
0,62,81,0
0,81,82,64
0,76,82,0
0,81,82,64
0,74,82,0
0,74,83,64
0,69,83,0
0,74,83,0
0,73,83,0
0,50,83,0
0,43,83,0
0,67,83,0
0,62,83,0
0,59,83,0
0,74,84,64
0,71,84,0
0,74,84,64
0,69,84,0
0,74,85,64
0,67,85,0
0,74,85,0
0,69,85,0
0,62,85,0
0,54,85,0
0,45,85,0
0,74,85,0
0,69,85,0
0,62,85,0
0,69,87,4
0,59,87,0
0,62,87,0
0,67,87,0
0,45,87,0
0,69,87,0
0,67,87,0
0,62,87,0
0,59,87,0
0,69,87,64
0,59,87,0
0,66,87,0
0,69,88,64
0,59,88,0
0,64,88,0
0,69,88,64
0,59,88,0
0,62,88,0
0,69,89,4
0,62,89,0
0,59,89,0
0,50,89,0
0,43,89,0
0,69,89,0
0,62,89,0
0,59,89,0
0,74,90,256
0,69,90,0
0,62,90,0
0,55,90,0
0,74,91,64
0,73,91,0
0,69,91,0
0,62,91,0
0,74,91,64
0,71,91,0
0,62,91,0
0,74,92,64
0,69,92,0
0,62,92,0
0,69,92,0
0,67,92,0
0,62,92,0
0,57,92,0
0,45,92,0
0,69,92,0
0,67,92,0
0,62,92,0
0,59,92,0
0,57,93,24
0,69,93,0
0,66,93,0
0,57,93,48
0,69,93,0
0,64,93,0
0,57,94,64
0,69,94,0
0,62,94,0
0,59,94,12
0,66,94,0
0,69,94,0
0,54,94,0
0,59,95,36
0,64,95,0
0,52,95,0
0,57,95,60
0,62,95,0
0,50,95,0
0,57,95,0
0,59,95,0
0,47,95,0
0,62,96,4
0,57,96,0
0,50,96,0
0,43,96,0
0,57,96,0
0,62,96,0
0,36,100,0
0,42,60,0
0,42,60,32
0,42,60,32
0,42,60,32
0,39,100,32
0,42,60,0
0,42,60,32
0,36,100,32
0,42,60,0
0,42,60,32
0,42,60,32
0,42,60,32
0,42,60,32
0,42,60,32
0,38,108,32
0,42,60,0
0,36,100,0
0,42,60,32
0,42,60,32
0,36,100,32
0,42,60,0
0,36,100,32
0,42,60,0
0,42,60,32
0,81,100,32
0,76,100,0
0,74,100,0
0,86,100,0
0,42,60,0
0,42,60,32
0,39,100,32
0,42,60,0
0,42,60,32
0,36,100,0
0,42,60,0
0,42,60,32
0,42,60,32
0,42,60,32
0,42,60,32
0,42,60,32
0,38,108,32
0,42,60,0
0,36,100,0
0,42,60,32
0,81,100,32
0,83,100,0
0,42,60,0
0,86,100,32
0,74,100,0
0,36,100,0
0,42,60,0
0,43,100,4
0,62,100,0
0,59,100,0
0,67,100,0
0,36,100,0
0,42,60,0
0,42,60,32
0,42,60,32
0,42,60,32
0,50,100,32
0,39,100,0
0,42,60,0
0,42,60,32
0,88,100,32
0,76,100,0
0,43,100,0
0,36,100,0
0,42,60,0
0,74,100,32
0,86,100,0
0,42,60,0
0,42,60,32
0,42,60,0
0,88,100,32
0,76,100,0
0,42,60,0
0,86,100,32
0,74,100,0
0,42,60,0
0,50,100,32
0,38,108,0
0,42,60,0
0,36,100,0
0,42,60,0
0,76,100,32
0,88,100,0
0,42,60,0
0,86,100,32
0,74,100,0
0,43,100,0
0,36,100,0
0,42,60,0
0,43,100,32
0,36,100,0
0,42,60,0
0,42,60,0
0,76,100,32
0,42,60,0
0,74,100,32
0,42,60,0
0,50,100,32
0,39,100,0
0,42,60,0
0,42,60,32
0,43,100,32
0,36,100,0
0,42,60,0
0,42,60,32
0,42,60,0
0,57,100,32
0,42,60,0
0,59,100,32
0,42,60,0
0,62,100,32
0,42,60,0
0,62,100,32
0,38,108,0
0,42,60,0
0,36,100,0
0,62,100,32
0,59,100,0
0,42,60,0
0,64,100,32
0,61,100,0
0,45,100,0
0,42,60,0
0,36,100,32
0,42,60,0
0,66,100,4
0,62,100,0
0,57,100,0
0,66,100,0
0,62,100,0
0,57,100,0
0,38,100,0
0,36,100,0
0,42,60,0
0,42,60,32
0,42,60,0
0,66,100,32
0,62,100,0
0,42,60,0
0,50,100,32
0,39,100,0
0,42,60,0
0,57,100,32
0,42,60,0
0,71,100,4
0,67,100,0
0,62,100,0
0,59,100,0
0,67,100,0
0,62,100,0
0,59,100,0
0,43,100,0
0,36,100,0
0,42,60,0
0,42,60,32
0,42,60,32
0,42,60,32
0,50,100,32
0,42,60,0
0,42,60,32
0,57,100,32
0,38,108,0
0,42,60,0
0,36,100,0
0,59,100,32
0,42,60,0
0,62,100,32
0,42,60,0
0,66,100,32
0,36,100,0
0,42,60,0
0,64,100,4
0,61,100,0
0,57,100,0
0,64,100,0
0,61,100,0
0,57,100,0
0,45,100,0
0,36,100,0
0,42,60,0
0,42,60,32
0,42,60,0
0,61,100,32
0,57,100,0
0,42,60,0
0,52,100,32
0,39,100,0
0,42,60,0
0,57,100,32
0,42,60,0
0,59,100,4
0,59,100,0
0,62,100,0
0,69,100,0
0,47,100,0
0,36,100,0
0,42,60,0
0,62,100,32
0,57,100,0
0,55,100,0
0,42,60,0
0,42,60,32
0,59,100,32
0,57,100,0
0,64,100,0
0,42,60,0
0,42,60,0
0,66,100,32
0,62,100,0
0,57,100,0
0,42,60,0
0,67,100,4
0,62,100,0
0,59,100,0
0,43,100,0
0,38,108,0
0,42,60,0
0,36,100,0
0,67,100,32
0,62,100,0
0,59,100,0
0,42,60,0
0,42,60,32
0,69,100,32
0,66,100,0
0,62,100,0
0,57,100,0
0,36,100,0
0,42,60,0
0,66,100,4
0,62,100,0
0,57,100,0
0,38,100,0
0,36,100,0
0,42,60,0
0,42,60,0
0,66,100,32
0,62,100,0
0,42,60,0
0,62,100,32
0,42,60,0
0,50,100,32
0,39,100,0
0,42,60,0
0,62,100,32
0,57,100,0
0,42,60,0
0,71,100,4
0,67,100,0
0,62,100,0
0,59,100,0
0,67,100,0
0,62,100,0
0,59,100,0
0,43,100,0
0,36,100,0
0,42,60,0
0,42,60,32
0,42,60,32
0,42,60,32
0,42,60,0
0,69,100,32
0,62,100,0
0,67,100,0
0,42,60,0
0,50,100,32
0,38,108,0
0,42,60,0
0,36,100,0
0,42,60,0
0,69,100,32
0,66,100,0
0,62,100,0
0,42,60,0
0,36,100,32
0,42,60,0
0,69,100,4
0,66,100,0
0,62,100,0
0,64,100,0
0,61,100,0
0,57,100,0
0,45,100,0
0,36,100,0
0,42,60,0
0,69,100,32
0,64,100,0
0,61,100,0
0,42,60,0
0,42,60,32
0,69,100,32
0,64,100,0
0,61,100,0
0,42,60,0
0,57,100,32
0,39,100,0
0,42,60,0
0,42,60,0
0,69,100,4
0,66,100,0
0,62,100,0
0,59,100,0
0,62,100,0
0,69,100,0
0,47,100,0
0,36,100,0
0,42,60,0
0,42,60,32
0,69,100,32
0,66,100,0
0,64,100,0
0,42,60,0
0,69,100,32
0,66,100,0
0,62,100,0
0,42,60,0
0,69,100,32
0,66,100,0
0,64,100,0
0,42,60,0
0,69,100,32
0,66,100,0
0,62,100,0
0,42,60,0
0,67,100,4
0,62,100,0
0,59,100,0
0,43,100,0
0,38,108,0
0,42,60,0
0,36,100,0
0,42,60,0
0,66,100,32
0,59,100,0
0,69,100,0
0,42,60,0
0,69,100,32
0,66,100,0
0,62,100,0
0,36,100,0
0,42,60,0
0,66,100,4
0,62,100,0
0,57,100,0
0,38,100,0
0,36,100,0
0,42,60,0
0,42,60,0
0,71,100,32
0,66,100,0
0,62,100,0
0,42,60,0
0,69,100,32
0,66,100,0
0,62,100,0
0,42,60,0
0,50,100,32
0,39,100,0
0,42,60,0
0,42,60,0
0,71,100,4
0,67,100,0
0,62,100,0
0,67,100,0
0,62,100,0
0,59,100,0
0,43,100,0
0,36,100,0
0,42,60,0
0,42,60,32
0,42,60,0
0,69,100,32
0,67,100,0
0,62,100,0
0,42,60,0
0,42,60,0
0,42,60,0
0,69,100,32
0,74,100,0
0,55,100,0
0,38,108,0
0,42,60,0
0,36,100,0
0,74,100,32
0,73,100,0
0,69,100,0
0,42,60,0
0,74,100,32
0,71,100,0
0,42,60,0
0,69,100,32
0,64,100,0
0,36,100,0
0,42,60,0
0,64,100,4
0,61,100,0
0,57,100,0
0,45,100,0
0,36,100,0
0,42,60,0
0,42,60,0
0,71,100,32
0,64,100,0
0,42,60,0
0,69,100,32
0,64,100,0
0,42,60,0
0,57,100,32
0,39,100,0
0,42,60,0
0,64,100,32
0,42,60,0
0,66,100,4
0,62,100,0
0,59,100,0
0,62,100,0
0,69,100,0
0,47,100,0
0,36,100,0
0,42,60,0
0,67,100,32
0,62,100,0
0,42,60,0
0,42,60,32
0,66,100,32
0,59,100,0
0,42,60,0
0,64,100,32
0,59,100,0
0,42,60,0
0,62,100,32
0,59,100,0
0,42,60,0
0,64,100,4
0,59,100,0
0,55,100,0
0,67,100,0
0,62,100,0
0,59,100,0
0,43,100,0
0,38,108,0
0,42,60,0
0,36,100,0
0,62,100,32
0,59,100,0
0,55,100,0
0,42,60,0
0,64,100,32
0,59,100,0
0,55,100,0
0,42,60,0
0,62,100,32
0,57,100,0
0,54,100,0
0,36,100,0
0,42,60,0
0,66,100,4
0,62,100,0
0,57,100,0
0,38,100,0
0,36,100,0
0,42,60,0
0,42,60,0
0,66,100,32
0,62,100,0
0,57,100,0
0,42,60,0
0,66,100,32
0,62,100,0
0,57,100,0
0,42,60,0
0,50,100,32
0,39,100,0
0,42,60,0
0,62,100,32
0,42,60,0
0,62,100,4
0,59,100,0
0,67,100,0
0,67,100,0
0,62,100,0
0,59,100,0
0,43,100,0
0,36,100,0
0,42,60,0
0,42,60,32
0,42,60,0
0,66,100,32
0,62,100,0
0,59,100,0
0,42,60,0
0,69,100,32
0,42,60,0
0,71,100,32
0,42,60,0
0,55,100,32
0,38,108,0
0,42,60,0
0,36,100,0
0,76,100,32
0,71,100,0
0,42,60,0
0,42,60,32
0,76,100,32
0,73,100,0
0,69,100,0
0,36,100,0
0,42,60,0
0,64,100,4
0,61,100,0
0,57,100,0
0,45,100,0
0,36,100,0
0,42,60,0
0,76,100,32
0,73,100,0
0,69,100,0
0,42,60,0
0,42,60,32
0,74,100,32
0,69,100,0
0,42,60,0
0,74,100,32
0,69,100,0
0,57,100,0
0,39,100,0
0,42,60,0
0,69,100,32
0,74,100,0
0,42,60,0
0,74,100,4
0,69,100,0
0,59,100,0
0,62,100,0
0,69,100,0
0,47,100,0
0,36,100,0
0,42,60,0
0,69,100,32
0,74,100,0
0,42,60,0
0,74,100,32
0,71,100,0
0,42,60,0
0,42,60,32
0,69,100,32
0,66,100,0
0,42,60,0
0,69,100,32
0,66,100,0
0,42,60,0
0,67,100,4
0,62,100,0
0,59,100,0
0,43,100,0
0,38,108,0
0,42,60,0
0,36,100,0
0,62,100,32
0,66,100,0
0,42,60,0
0,64,100,32
0,67,100,0
0,42,60,0
0,69,100,32
0,66,100,0
0,62,100,0
0,36,100,0
0,42,60,0
0,50,100,4
0,57,100,0
0,54,100,0
0,38,100,0
0,36,100,0
0,42,60,0
0,42,60,32
0,42,60,32
0,42,60,0
0,66,100,32
0,57,100,0
0,39,100,0
0,42,60,0
0,66,100,32
0,42,60,0
0,71,100,4
0,59,100,0
0,55,100,0
0,62,100,0
0,43,100,0
0,36,100,0
0,42,60,0
0,42,60,32
0,42,60,0
0,71,100,32
0,42,60,0
0,69,100,32
0,42,60,0
0,42,60,32
0,38,108,32
0,42,60,0
0,36,100,0
0,42,60,32
0,42,60,32
0,36,100,32
0,42,60,0
0,61,100,4
0,57,100,0
0,52,100,0
0,45,100,0
0,36,100,0
0,42,60,0
0,42,60,32
0,42,60,32
0,42,60,32
0,69,100,32
0,57,100,0
0,39,100,0
0,42,60,0
0,71,100,32
0,42,60,0
0,66,100,4
0,59,100,0
0,62,100,0
0,47,100,0
0,36,100,0
0,42,60,0
0,42,60,32
0,42,60,32
0,74,100,32
0,42,60,0
0,76,100,32
0,42,60,0
0,42,60,32
0,62,100,0
0,59,100,0
0,55,100,0
0,43,100,0
0,38,108,0
0,42,60,0
0,36,100,0
0,78,100,32
0,42,60,0
0,76,100,32
0,42,60,0
0,74,100,32
0,36,100,0
0,42,60,0
0,50,100,4
0,57,100,0
0,54,100,0
0,50,100,0
0,36,100,0
0,42,60,0
0,42,60,32
0,42,60,32
0,42,60,32
0,57,100,32
0,39,100,0
0,42,60,0
0,42,60,32
0,78,100,4
0,59,100,0
0,55,100,0
0,62,100,0
0,43,100,0
0,36,100,0
0,42,60,0
0,78,100,32
0,42,60,0
0,78,100,32
0,42,60,0
0,42,60,32
0,76,100,32
0,42,60,0
0,76,100,32
0,42,60,0
0,38,108,32
0,42,60,0
0,36,100,0
0,78,100,32
0,42,60,0
0,42,60,32
0,36,100,32
0,42,60,0
0,61,100,4
0,57,100,0
0,52,100,0
0,45,100,0
0,36,100,0
0,42,60,0
0,42,60,32
0,42,60,32
0,42,60,32
0,57,100,32
0,39,100,0
0,42,60,0
0,42,60,32
0,74,100,4
0,66,100,0
0,59,100,0
0,62,100,0
0,47,100,0
0,36,100,0
0,42,60,0
0,74,100,32
0,42,60,0
0,74,100,32
0,42,60,0
0,42,60,0
0,69,100,32
0,42,60,0
0,67,100,32
0,42,60,32
0,69,100,4
0,62,100,0
0,59,100,0
0,55,100,0
0,43,100,0
0,38,108,0
0,42,60,0
0,36,100,0
0,42,60,32
0,42,60,32
0,36,100,32
0,42,60,0
0,50,100,4
0,57,100,0
0,54,100,0
0,38,100,0
0,36,100,0
0,42,60,0
0,42,60,32
0,66,100,32
0,42,60,0
0,69,100,32
0,42,60,0
0,69,100,32
0,57,100,0
0,39,100,0
0,42,60,0
0,42,60,32
0,69,100,4
0,59,100,0
0,55,100,0
0,62,100,0
0,43,100,0
0,36,100,0
0,42,60,0
0,69,100,32
0,42,60,0
0,71,100,32
0,42,60,0
0,42,60,32
0,42,60,0
0,71,100,32
0,42,60,0
0,69,100,32
0,38,108,0
0,42,60,0
0,36,100,0
0,42,60,32
0,42,60,32
0,36,100,32
0,42,60,0
0,61,100,4
0,57,100,0
0,52,100,0
0,45,100,0
0,36,100,0
0,42,60,0
0,42,60,32
0,69,100,32
0,42,60,0
0,69,100,32
0,42,60,0
