track,note,velocity,time
0,42,100,0
0,42,0,128
0,54,100,64
0,42,100,0
0,42,0,128
0,54,0,0
0,42,100,64
0,42,0,128
0,54,100,64
0,42,100,0
0,42,0,128
0,54,0,0
0,42,100,64
0,42,0,128
0,54,100,64
0,42,100,0
0,42,0,128
0,54,0,0
0,42,100,64
0,42,0,128
0,54,100,64
0,42,100,0
0,42,0,128
0,54,0,0
0,42,100,64
0,42,0,128
0,54,100,64
0,42,100,0
0,42,0,128
0,54,0,0
0,42,100,64
0,42,0,128
0,54,100,64
0,42,100,0
0,42,0,128
0,54,0,0
0,42,100,64
0,42,0,128
0,54,100,64
0,42,100,0
0,42,0,128
0,54,0,0
0,42,100,64
0,42,0,128
0,54,100,64
0,42,100,0
0,42,0,128
0,54,0,0
0,69,100,64
0,64,100,0
0,60,100,0
0,45,100,0
0,42,100,0
0,42,0,128
0,45,0,0
0,69,100,64
0,62,100,0
0,45,100,0
0,54,100,0
0,42,100,0
0,42,0,128
0,54,0,0
0,45,0,0
0,69,0,64
0,62,0,0
0,45,100,0
0,42,100,0
0,69,100,96
0,60,100,0
0,42,0,32
0,45,0,0
0,45,100,64
0,54,100,0
0,42,100,0
0,69,0,96
0,60,0,0
0,54,0,32
0,42,0,0
0,45,0,0
0,69,0,60
0,60,0,0
0,64,0,0
0,69,100,4
0,57,100,0
0,67,100,0
0,62,100,0
0,59,100,0
0,43,100,0
0,42,100,0
0,42,0,128
0,43,0,0
0,69,0,64
0,57,0,0
0,43,100,0
0,54,100,0
0,42,100,0
0,69,100,96
0,57,100,0
0,42,0,32
0,43,0,0
0,54,0,0
0,57,0,32
0,69,0,0
0,43,100,32
0,42,100,0
0,42,0,128
0,43,0,0
0,69,100,64
0,57,100,0
0,43,100,0
0,54,100,0
0,42,100,0
0,42,0,128
0,54,0,0
0,57,0,0
0,69,0,0
0,43,0,0
0,67,0,60
0,59,0,0
0,62,0,0
0,69,100,4
0,66,100,0
0,62,100,0
0,38,100,0
0,42,100,0
0,57,100,96
0,42,0,32
0,38,0,0
0,38,100,64
0,54,100,0
0,42,100,0
0,57,0,96
0,54,0,32
0,38,0,0
0,42,0,0
0,69,100,64
0,57,100,0
0,38,100,0
0,42,100,0
0,42,0,128
0,57,0,0
0,69,0,0
0,38,0,0
0,69,100,64
0,57,100,0
0,38,100,0
0,54,100,0
0,42,100,0
0,42,0,128
0,54,0,0
0,57,0,0
0,69,0,0
0,38,0,0
0,69,100,64
0,62,100,0
0,38,100,0
0,42,100,0
0,42,0,128
0,62,0,0
0,69,0,0
0,38,0,0
0,69,100,64
0,60,100,0
0,38,100,0
0,54,100,0
0,42,100,0
0,42,0,128
0,54,0,0
0,60,0,0
0,69,0,0
0,38,0,0
0,69,100,64
0,57,100,0
0,38,100,0
0,42,100,0
0,42,0,128
0,38,0,0
0,38,100,64
0,54,100,0
0,42,100,0
0,69,0,64
0,57,0,0
0,54,0,64
0,42,0,0
0,38,0,0
0,69,0,60
0,62,0,0
0,66,0,0
0,69,100,4
0,64,100,0
0,60,100,0
0,45,100,0
0,42,100,0
0,42,0,128
0,45,0,0
0,69,100,64
0,62,100,0
0,45,100,0
0,54,100,0
0,42,100,0
0,42,0,128
0,54,0,0
0,45,0,0
0,69,0,64
0,62,0,0
0,45,100,0
0,42,100,0
0,69,100,96
0,60,100,0
0,42,0,32
0,45,0,0
0,45,100,64
0,54,100,0
0,42,100,0
0,69,0,96
0,60,0,0
0,54,0,32
0,42,0,0
0,45,0,0
0,69,0,60
0,60,0,0
0,64,0,0
0,69,100,4
0,57,100,0
0,67,100,0
0,62,100,0
0,59,100,0
0,43,100,0
0,42,100,0
0,42,0,128
0,43,0,0
0,69,0,64
0,57,0,0
0,43,100,0
0,54,100,0
0,42,100,0
0,69,100,96
0,57,100,0
0,42,0,32
0,43,0,0
0,54,0,0
0,57,0,32
0,69,0,0
0,43,100,32
0,42,100,0
0,42,0,128
0,43,0,0
0,69,100,64
0,57,100,0
0,43,100,0
0,54,100,0
0,42,100,0
0,42,0,128
0,54,0,0
0,57,0,0
0,69,0,0
0,43,0,0
0,67,0,60
0,59,0,0
0,62,0,0
0,69,100,4
0,66,100,0
0,62,100,0
0,38,100,0
0,42,100,0
0,42,0,128
0,38,0,0
0,69,100,64
0,57,100,0
0,38,100,0
0,54,100,0
0,42,100,0
0,42,0,128
0,54,0,0
0,38,0,0
0,69,0,64
0,57,0,0
0,38,100,0
0,42,100,0
0,72,100,96
0,42,0,32
0,38,0,0
0,72,0,32
0,69,100,32
0,38,100,0
0,54,100,0
0,42,100,0
0,42,0,128
0,38,0,0
0,69,0,0
0,54,0,0
0,71,100,64
0,66,100,0
0,62,100,0
0,38,100,0
0,42,100,0
0,42,0,128
0,38,0,0
0,66,0,64
0,71,0,0
0,62,0,0
0,38,100,0
0,54,100,0
0,42,100,0
0,69,100,96
0,64,100,0
0,57,100,0
0,42,0,32
0,38,0,0
0,54,0,0
0,64,0,32
0,57,0,0
0,69,0,0
0,38,100,32
0,42,100,0
0,42,0,128
0,38,0,0
0,69,100,64
0,57,100,0
0,38,100,0
0,54,100,0
0,42,100,0
0,42,0,128
0,54,0,0
0,57,0,0
0,69,0,0
0,38,0,0
0,66,0,60
0,69,0,0
0,62,0,0
0,69,100,4
0,64,100,0
0,60,100,0
0,45,100,0
0,42,100,0
0,42,0,128
0,45,0,0
0,69,100,64
0,62,100,0
0,45,100,0
0,54,100,0
0,42,100,0
0,42,0,128
0,54,0,0
0,45,0,0
0,69,0,64
0,62,0,0
0,45,100,0
0,42,100,0
0,69,100,96
0,60,100,0
0,42,0,32
0,45,0,0
0,45,100,64
0,54,100,0
0,42,100,0
0,69,0,96
0,60,0,0
0,54,0,32
0,42,0,0
0,45,0,0
0,69,0,60
0,60,0,0
0,64,0,0
0,69,100,4
0,57,100,0
0,67,100,0
0,62,100,0
0,59,100,0
0,43,100,0
0,42,100,0
0,42,0,128
0,43,0,0
0,69,0,64
0,57,0,0
0,43,100,0
0,54,100,0
0,42,100,0
0,69,100,96
0,57,100,0
0,42,0,32
0,43,0,0
0,54,0,0
0,57,0,32
0,69,0,0
0,43,100,32
0,42,100,0
0,42,0,128
0,43,0,0
0,69,100,64
0,57,100,0
0,43,100,0
0,54,100,0
0,42,100,0
0,42,0,128
0,54,0,0
0,57,0,0
0,69,0,0
0,43,0,0
0,67,0,60
0,59,0,0
0,62,0,0
0,69,100,4
0,66,100,0
0,62,100,0
0,38,100,0
0,42,100,0
0,57,100,96
0,42,0,32
0,38,0,0
0,38,100,64
0,54,100,0
0,42,100,0
0,57,0,96
0,54,0,32
0,38,0,0
0,42,0,0
0,69,100,64
0,57,100,0
0,38,100,0
0,42,100,0
0,42,0,128
0,57,0,0
0,69,0,0
0,38,0,0
0,69,100,64
0,57,100,0
0,38,100,0
0,54,100,0
0,42,100,0
0,42,0,128
0,54,0,0
0,57,0,0
0,69,0,0
0,38,0,0
0,69,100,64
0,62,100,0
0,38,100,0
0,42,100,0
0,42,0,128
0,62,0,0
0,69,0,0
0,38,0,0
0,69,100,64
0,60,100,0
0,38,100,0
0,54,100,0
0,42,100,0
0,42,0,128
0,54,0,0
0,60,0,0
0,69,0,0
0,38,0,0
0,69,100,64
0,57,100,0
0,38,100,0
0,42,100,0
0,42,0,128
0,38,0,0
0,38,100,64
0,54,100,0
0,42,100,0
0,69,0,64
0,57,0,0
0,54,0,64
0,42,0,0
0,38,0,0
0,69,0,60
0,62,0,0
0,66,0,0
0,69,100,4
0,64,100,0
0,60,100,0
0,45,100,0
0,42,100,0
0,42,0,128
0,45,0,0
0,69,100,64
0,62,100,0
0,45,100,0
0,54,100,0
0,42,100,0
0,42,0,128
0,54,0,0
0,45,0,0
0,69,0,64
0,62,0,0
0,45,100,0
0,42,100,0
0,69,100,96
0,60,100,0
0,42,0,32
0,45,0,0
0,45,100,64
0,54,100,0
0,42,100,0
0,69,0,96
0,60,0,0
0,54,0,32
0,42,0,0
0,45,0,0
0,69,0,60
0,60,0,0
0,64,0,0
0,69,100,4
0,57,100,0
0,67,100,0
0,62,100,0
0,59,100,0
0,43,100,0
0,42,100,0
0,42,0,128
0,43,0,0
0,69,0,64
0,57,0,0
0,43,100,0
0,54,100,0
0,42,100,0
0,69,100,96
0,57,100,0
0,42,0,32
0,43,0,0
0,54,0,0
0,57,0,32
0,69,0,0
0,43,100,32
0,42,100,0
0,42,0,128
0,43,0,0
0,69,100,64
0,57,100,0
0,43,100,0
0,54,100,0
0,42,100,0
0,42,0,128
0,54,0,0
0,57,0,0
0,69,0,0
0,43,0,0
0,67,0,60
0,59,0,0
0,62,0,0
0,66,100,4
0,62,100,0
0,57,100,0
0,66,100,0
0,62,100,0
0,57,100,0
0,38,100,0
0,42,100,0
0,42,0,128
0,38,0,0
0,38,100,64
0,54,100,0
0,42,100,0
0,62,0,64
0,66,0,0
0,66,0,0
0,57,0,0
0,62,0,0
0,57,0,0
0,42,0,64
0,54,0,0
0,38,0,0
0,67,100,64
0,62,100,0
0,59,100,0
0,67,100,0
0,62,100,0
0,59,100,0
0,40,100,0
0,42,100,0
0,42,0,128
0,40,0,0
0,40,100,64
0,54,100,0
0,42,100,0
0,62,0,64
0,67,0,0
0,67,0,0
0,59,0,0
0,62,0,0
0,59,0,0
0,42,0,64
0,54,0,0
0,40,0,0
0,66,100,64
0,62,100,0
0,57,100,0
0,66,100,0
0,62,100,0
0,57,100,0
0,42,100,0
0,42,100,0
0,42,0,128
0,42,0,0
0,42,100,64
0,54,100,0
0,42,100,0
0,62,0,64
0,66,0,0
0,66,0,0
0,57,0,0
0,62,0,0
0,57,0,0
0,42,0,64
0,54,0,0
0,42,0,0
0,67,100,64
0,62,100,0
0,59,100,0
0,62,100,0
0,59,100,0
0,67,100,0
0,43,100,0
0,42,100,0
0,42,0,128
0,43,0,0
0,43,100,64
0,54,100,0
0,42,100,0
0,59,0,64
0,67,0,0
0,62,0,0
0,59,0,0
0,62,0,0
0,67,0,0
0,42,0,64
0,54,0,0
0,43,0,0
0,73,100,64
0,69,100,0
0,64,100,0
0,45,100,0
0,42,100,0
0,42,0,128
0,76,100,64
0,54,100,0
0,42,100,0
0,45,0,64
0,54,0,64
0,76,0,0
0,42,0,0
0,76,100,64
0,47,100,0
0,42,100,0
0,42,0,128
0,76,0,0
0,47,0,0
0,76,100,64
0,49,100,0
0,54,100,0
0,42,100,0
0,42,0,128
0,49,0,0
0,76,0,0
0,54,0,0
0,64,0,60
0,69,0,0
0,73,0,0
0,78,100,4
0,73,100,0
0,69,100,0
0,66,100,0
0,42,100,0
0,42,100,0
0,42,0,128
0,54,100,64
0,42,100,0
0,78,0,64
0,42,0,0
0,54,0,64
0,42,0,0
0,73,100,64
0,49,100,0
0,42,100,0
0,42,0,128
0,49,0,0
0,47,100,64
0,54,100,0
0,42,100,0
0,73,0,64
0,54,0,64
0,47,0,0
0,42,0,0
0,69,0,60
0,73,0,0
0,66,0,0
0,71,100,4
0,73,100,0
0,69,100,0
0,64,100,0
0,45,100,0
0,42,100,0
0,71,0,64
0,73,100,32
0,42,0,32
0,73,0,32
0,71,100,32
0,54,100,0
0,42,100,0
0,45,0,64
0,54,0,64
0,42,0,0
0,47,100,64
0,42,100,0
0,71,0,64
0,47,0,64
0,42,0,0
0,69,100,64
0,49,100,0
0,54,100,0
0,42,100,0
0,42,0,128
0,49,0,0
0,69,0,0
0,54,0,0
0,69,0,60
0,73,0,0
0,64,0,0
0,69,100,4
0,62,100,0
0,66,100,0
0,69,100,0
0,38,100,0
0,42,100,0
0,42,0,128
0,38,0,0
0,38,100,64
0,54,100,0
0,42,100,0
0,37,100,0
0,37,0,64
0,69,0,0
0,37,100,32
0,54,0,32
0,38,0,0
0,42,0,0
0,37,0,32
0,38,100,32
0,42,100,0
0,42,0,128
0,38,0,0
0,38,100,64
0,54,100,0
0,42,100,0
0,37,100,0
0,37,0,64
0,54,0,64
0,38,0,0
0,42,0,0
0,62,0,60
0,69,0,0
0,66,0,0
0,73,100,4
0,69,100,0
0,64,100,0
0,45,100,0
0,42,100,0
0,42,0,128
0,73,100,64
0,54,100,0
0,42,100,0
0,73,0,64
0,45,0,0
0,73,100,32
0,54,0,32
0,42,0,0
0,73,0,32
0,73,100,32
0,47,100,0
0,42,100,0
0,73,0,64
0,73,100,32
0,47,0,32
0,42,0,0
0,73,0,32
0,73,100,32
0,49,100,0
0,54,100,0
0,42,100,0
0,42,0,128
0,49,0,0
0,73,0,0
0,54,0,0
0,64,0,60
0,69,0,0
0,73,0,0
0,73,100,4
0,73,100,0
0,69,100,0
0,66,100,0
0,42,100,0
0,42,100,0
0,73,0,64
0,73,100,32
0,42,0,32
0,54,100,64
0,42,100,0
0,73,0,32
0,42,0,32
0,73,100,32
0,54,0,32
0,42,0,0
0,73,0,32
0,73,100,32
0,45,100,0
0,42,100,0
0,42,0,128
0,73,0,0
0,45,0,0
0,73,100,64
0,42,100,0
0,54,100,0
0,42,100,0
0,42,0,128
0,42,0,0
0,73,0,0
0,54,0,0
0,66,0,60
0,69,0,0
0,73,0,0
0,72,100,4
0,64,100,0
0,67,100,0
0,71,100,0
0,40,100,0
0,42,100,0
0,72,0,64
0,67,100,32
0,42,0,32
0,54,100,64
0,42,100,0
0,40,0,64
0,67,0,32
0,54,0,32
0,42,0,0
0,69,100,64
0,52,100,0
0,42,100,0
0,69,0,64
0,69,100,32
0,52,0,32
0,42,0,0
0,51,100,64
0,54,100,0
0,42,100,0
0,69,0,96
0,54,0,32
0,51,0,0
0,42,0,0
0,67,0,60
0,71,0,0
0,64,0,0
0,66,100,4
0,62,100,0
0,66,100,0
0,69,100,0
0,50,100,0
0,42,100,0
0,42,0,128
0,50,0,0
0,50,100,64
0,54,100,0
0,42,100,0
0,37,100,0
0,37,0,64
0,66,0,0
0,37,100,32
0,54,0,32
0,50,0,0
0,42,0,0
0,37,0,32
0,50,100,32
0,42,100,0
0,37,100,0
0,37,0,64
0,50,0,64
0,42,0,0
0,50,100,64
0,54,100,0
0,42,100,0
0,37,100,0
0,37,0,64
0,37,100,32
0,54,0,32
0,50,0,0
0,42,0,0
0,37,0,32
0,66,0,28
0,62,0,0
0,69,0,0
0,73,100,4
0,69,100,0
0,64,100,0
0,45,100,0
0,42,100,0
0,42,0,128
0,76,100,64
0,54,100,0
0,42,100,0
0,76,0,64
0,45,0,0
0,76,100,32
0,54,0,32
0,42,0,0
0,76,0,32
0,76,100,32
0,47,100,0
0,42,100,0
0,42,0,128
0,76,0,0
0,47,0,0
0,76,100,64
0,49,100,0
0,54,100,0
0,42,100,0
0,42,0,128
0,49,0,0
0,76,0,0
0,54,0,0
0,64,0,60
0,69,0,0
0,73,0,0
0,78,100,4
0,73,100,0
0,69,100,0
0,66,100,0
0,42,100,0
0,42,100,0
0,42,0,128
0,78,0,0
0,73,100,64
0,54,100,0
0,42,100,0
0,42,0,64
0,54,0,64
0,73,0,0
0,42,0,0
0,73,100,64
0,49,100,0
0,42,100,0
0,73,0,64
0,73,100,32
0,49,0,32
0,42,0,0
0,47,100,64
0,54,100,0
0,42,100,0
0,73,0,32
0,73,100,64
0,54,0,32
0,47,0,0
0,42,0,0
0,66,0,60
0,69,0,0
0,73,0,0
0,73,100,4
0,69,100,0
0,64,100,0
0,45,100,0
0,42,100,0
0,42,0,128
0,54,100,64
0,42,100,0
0,45,0,64
0,73,0,32
0,54,0,32
0,42,0,0
0,71,100,64
0,47,100,0
0,42,100,0
0,71,0,64
0,69,100,32
0,47,0,32
0,42,0,0
0,49,100,64
0,54,100,0
0,42,100,0
0,69,0,96
0,54,0,32
0,49,0,0
0,42,0,0
0,69,0,60
0,64,0,0
0,73,0,0
0,73,100,4
0,62,100,0
0,66,100,0
0,69,100,0
0,38,100,0
0,42,100,0
0,42,0,128
0,38,0,0
0,38,100,64
0,54,100,0
0,42,100,0
0,73,0,64
0,54,0,64
0,38,0,0
