track,note,velocity,time
1,73,100,2220
1,73,0,53
1,71,100,7
1,71,0,53
1,69,100,7
1,69,0,53
1,71,100,7
1,71,0,107
1,73,100,13
1,73,0,53
1,73,100,7
1,73,0,53
1,71,100,7
1,71,0,53
1,69,100,7
1,69,0,161
1,69,100,1219
1,69,0,72
1,71,100,8
1,71,0,72
1,73,100,8
1,73,0,72
1,74,100,8
1,74,0,72
1,73,100,8
1,73,0,72
1,71,100,8
1,71,0,72
1,69,100,8
1,69,0,216
1,64,100,564
1,64,0,53
1,66,100,7
1,66,0,53
1,69,100,7
1,69,0,53
1,71,100,7
1,71,0,53
1,69,100,7
1,69,0,53
1,64,100,7
1,64,0,53
1,74,100,7
1,74,0,107
1,73,100,13
1,73,0,53
1,71,100,7
1,71,0,53
1,69,100,7
1,69,0,161
1,71,100,19
1,71,0,53
1,73,100,7
1,73,0,53
1,71,100,7
1,71,0,107
1,69,100,13
1,69,0,53
1,66,100,7
1,66,0,161
1,64,100,679
1,64,0,53
1,66,100,7
1,66,0,53
1,69,100,7
1,69,0,53
1,71,100,7
1,71,0,53
1,69,100,7
1,69,0,53
1,64,100,7
1,64,0,53
1,74,100,7
1,74,0,107
1,73,100,13
1,73,0,53
1,71,100,7
1,71,0,54
1,69,100,6
1,69,0,107
1,71,100,13
1,71,0,53
1,73,100,7
1,73,0,107
1,71,100,13
1,71,0,107
1,69,100,13
1,69,0,53
1,66,100,7
1,66,0,80
1,67,100,10
1,67,0,26
1,66,100,4
1,66,0,53
1,64,100,7
1,64,0,107
1,74,100,553
1,74,0,108
1,74,100,12
1,74,0,108
1,73,100,12
1,73,0,107
1,73,100,13
1,71,100,140
1,73,0,3
1,71,0,68
1,69,100,9
1,69,0,71
1,73,100,9
1,73,0,215
1,73,100,85
1,73,0,107
1,73,100,13
1,73,0,107
1,71,100,13
1,71,0,53
1,69,100,7
1,69,0,53
1,68,100,7
1,68,0,53
1,66,100,7
1,66,0,161
1,64,100,19
1,64,0,53
1,66,100,7
1,66,0,215
1,74,100,85
1,74,0,108
1,74,100,12
1,74,0,108
1,73,100,12
1,73,0,53
1,73,100,7
1,73,0,53
1,73,100,7
1,73,0,107
1,71,100,13
1,71,0,53
1,71,100,7
1,71,0,53
1,69,100,7
1,69,0,53
1,73,100,7
1,73,0,215
1,73,100,85
1,73,0,107
1,73,100,13
1,73,0,107
1,71,100,13
1,71,0,53
1,69,100,7
1,69,0,53
1,68,100,7
1,68,0,53
1,66,100,7
1,66,0,161
1,64,100,19
1,64,0,53
1,66,100,7
1,66,0,215
1,69,100,105
1,69,0,71
1,71,100,9
1,71,0,71
1,71,100,9
1,71,0,161
1,69,100,19
1,71,100,140
1,69,0,3
1,71,0,68
1,73,100,9
1,73,0,71
1,73,100,9
1,73,0,215
1,73,100,105
1,73,0,71
1,74,100,9
1,74,0,71
1,73,100,9
1,73,0,71
1,71,100,9
1,71,0,71
1,69,100,9
1,69,0,71
1,71,100,9
1,71,0,161
1,69,100,19
1,69,0,26
1,66,100,4
1,66,0,26
1,69,100,4
1,69,0,215
1,69,100,105
1,69,0,71
1,71,100,9
1,71,0,71
1,71,100,9
1,71,0,161
1,71,100,19
1,71,0,53
1,69,100,7
1,69,0,53
1,71,100,7
1,71,0,53
1,73,100,7
1,73,0,107
1,73,100,13
1,73,0,161
1,76,100,19
1,74,100,140
1,76,0,3
1,74,0,68
1,73,100,9
1,73,0,71
1,74,100,9
1,74,0,71
1,73,100,9
1,73,0,71
1,71,100,9
1,71,0,71
1,71,100,9
1,71,0,161
1,73,100,19
1,73,0,26
1,71,100,4
1,71,0,26
1,73,100,4
1,73,0,26
1,71,100,4
1,71,0,26
1,69,100,4
1,69,0,161
1,73,100,799
1,73,0,53
1,71,100,7
1,71,0,53
1,69,100,7
1,69,0,53
1,71,100,7
1,71,0,107
1,73,100,13
1,73,0,53
1,73,100,7
1,73,0,53
1,71,100,7
1,71,0,53
1,69,100,7
1,69,0,161
1,64,100,559
1,64,0,53
1,66,100,7
1,66,0,53
1,69,100,7
1,69,0,53
1,71,100,7
1,71,0,53
1,69,100,7
1,69,0,53
1,64,100,7
1,64,0,53
1,74,100,7
1,74,0,107
1,73,100,13
1,73,0,53
1,71,100,7
1,71,0,53
1,69,100,7
1,69,0,161
1,71,100,19
1,71,0,53
1,73,100,7
1,73,0,53
1,71,100,7
1,71,0,107
1,69,100,13
1,69,0,53
1,66,100,7
1,66,0,161
1,64,100,679
1,64,0,53
1,66,100,7
1,66,0,53
1,69,100,7
1,69,0,53
1,71,100,7
1,71,0,53
1,69,100,7
1,69,0,53
1,64,100,7
1,64,0,53
1,74,100,7
1,74,0,107
1,73,100,13
1,73,0,53
1,71,100,7
1,71,0,107
1,76,100,13
1,76,0,80
1,74,100,10
1,74,0,80
1,73,100,10
1,73,0,53
1,71,100,7
1,71,0,107
1,69,100,13
1,69,0,53
1,66,100,7
1,66,0,80
1,67,100,10
1,67,0,26
1,66,100,4
1,66,0,53
1,64,100,7
1,64,0,107
1,74,100,553
1,74,0,108
1,74,100,12
1,74,0,108
1,73,100,12
1,73,0,107
1,73,100,13
1,71,100,140
1,73,0,3
1,71,0,68
1,69,100,9
1,69,0,71
1,73,100,9
1,73,0,215
1,73,100,85
1,73,0,107
1,73,100,13
1,73,0,107
1,71,100,13
1,71,0,53
1,69,100,7
1,69,0,53
1,68,100,7
1,68,0,53
1,66,100,7
1,66,0,161
1,64,100,19
1,64,0,53
1,66,100,7
1,66,0,215
1,74,100,85
1,74,0,108
1,74,100,12
1,74,0,108
1,73,100,12
1,73,0,107
1,73,100,13
1,73,0,107
1,71,100,13
1,71,0,53
1,71,100,7
1,71,0,107
1,73,100,13
1,73,0,215
1,73,100,85
1,73,0,107
1,73,100,13
1,73,0,107
1,71,100,13
1,71,0,53
1,69,100,7
1,69,0,53
1,68,100,7
1,68,0,53
1,66,100,7
1,66,0,161
1,64,100,19
1,64,0,53
1,66,100,7
1,66,0,215
1,69,100,105
1,69,0,71
1,71,100,9
1,71,0,71
1,71,100,9
1,71,0,161
1,69,100,19
1,71,100,140
1,69,0,3
1,71,0,68
1,73,100,9
1,73,0,71
1,73,100,9
1,73,0,215
1,73,100,105
1,73,0,71
1,74,100,9
1,74,0,71
1,73,100,9
1,73,0,71
1,71,100,9
1,71,0,71
1,69,100,9
1,69,0,71
1,71,100,9
1,71,0,161
1,69,100,19
1,69,0,26
1,66,100,4
1,66,0,26
1,69,100,4
1,69,0,215
1,69,100,105
1,69,0,71
1,71,100,9
1,71,0,71
1,71,100,9
1,71,0,161
1,71,100,19
1,71,0,53
1,69,100,7
1,69,0,53
1,71,100,7
1,71,0,53
1,73,100,7
1,73,0,107
1,73,100,13
1,73,0,161
1,76,100,19
1,74,100,140
1,76,0,3
1,74,0,68
1,73,100,9
1,73,0,71
1,74,100,9
1,74,0,71
1,73,100,9
1,73,0,71
1,71,100,9
1,71,0,71
1,71,100,9
1,71,0,161
1,73,100,19
1,73,0,26
1,71,100,4
1,71,0,26
1,73,100,4
1,73,0,26
1,71,100,4
1,71,0,26
1,69,100,4
1,69,0,161
1,74,100,5839
1,74,0,108
1,74,100,12
1,74,0,108
1,73,100,12
1,73,0,107
1,73,100,13
1,71,100,140
1,73,0,3
1,71,0,68
1,69,100,9
1,69,0,71
1,73,100,9
1,73,0,215
1,73,100,85
1,73,0,107
1,73,100,13
1,73,0,107
1,71,100,13
1,71,0,53
1,69,100,7
1,69,0,53
1,68,100,7
1,68,0,53
1,66,100,7
1,66,0,161
1,64,100,19
1,64,0,53
1,66,100,7
1,66,0,215
1,74,100,85
1,74,0,108
1,74,100,12
1,74,0,108
1,73,100,12
1,73,0,107
1,73,100,13
1,73,0,107
1,71,100,13
1,71,0,107
1,71,100,13
1,71,0,53
1,73,100,7
1,73,0,215
1,73,100,85
1,73,0,107
1,73,100,13
1,73,0,107
1,71,100,13
1,71,0,53
1,69,100,7
1,69,0,53
1,68,100,7
1,68,0,53
1,66,100,7
1,66,0,161
1,64,100,19
1,64,0,53
1,66,100,7
1,66,0,215
1,69,100,105
1,69,0,71
1,71,100,9
1,71,0,71
1,71,100,9
1,71,0,161
1,69,100,19
1,71,100,140
1,69,0,3
1,71,0,68
1,73,100,9
1,73,0,71
1,73,100,9
1,73,0,215
1,73,100,105
1,73,0,71
1,74,100,9
1,74,0,71
1,73,100,9
1,73,0,71
1,71,100,9
1,71,0,71
1,69,100,9
1,69,0,71
1,71,100,9
1,71,0,161
1,69,100,19
1,69,0,26
1,66,100,4
1,66,0,26
1,69,100,4
1,69,0,215
1,69,100,105
1,69,0,71
1,71,100,9
1,71,0,71
1,71,100,9
1,71,0,161
1,71,100,19
1,71,0,53
1,69,100,7
1,69,0,53
1,71,100,7
1,71,0,53
1,73,100,7
1,73,0,107
1,73,100,13
1,73,0,161
1,76,100,19
1,74,100,140
1,76,0,3
1,74,0,68
1,73,100,9
1,73,0,71
1,74,100,9
1,74,0,71
1,73,100,9
1,73,0,71
1,71,100,9
1,71,0,71
1,71,100,9
1,71,0,161
1,73,100,19
1,73,0,26
1,71,100,4
1,71,0,26
1,73,100,4
1,73,0,26
1,71,100,4
1,71,0,26
1,69,100,4
1,69,0,161
1,69,100,99
1,69,0,71
1,71,100,9
1,71,0,71
1,71,100,9
1,71,0,161
1,69,100,19
1,71,100,140
1,69,0,3
1,71,0,68
1,73,100,9
1,73,0,71
1,73,100,9
1,73,0,215
1,76,100,105
1,76,0,71
1,74,100,9
1,74,0,71
1,73,100,9
1,73,0,71
1,71,100,9
1,71,0,71
1,69,100,9
1,69,0,71
1,71,100,9
1,71,0,161
1,69,100,19
1,69,0,26
1,66,100,4
1,66,0,26
1,69,100,4
1,69,0,215
1,69,100,105
1,69,0,71
1,71,100,9
1,71,0,71
1,71,100,9
1,71,0,161
1,71,100,19
1,71,0,53
1,69,100,7
1,69,0,53
1,71,100,7
1,71,0,53
1,73,100,7
1,73,0,107
1,73,100,13
1,73,0,161
1,76,100,19
1,74,100,140
1,76,0,3
1,74,0,68
1,73,100,9
1,73,0,71
1,74,100,9
1,74,0,71
1,73,100,9
1,73,0,71
1,71,100,9
1,71,0,71
1,71,100,9
1,71,0,161
1,73,100,19
1,73,0,26
1,71,100,4
1,71,0,26
1,73,100,4
1,73,0,26
1,71,100,4
1,71,0,26
1,69,100,4
1,69,0,161
1,76,100,4579
1,76,0,72
1,74,100,7
1,74,0,72
1,73,100,10
1,73,0,72
1,74,100,7
1,74,0,72
1,73,100,9
1,73,0,72
1,71,100,8
1,71,0,72
1,69,100,7
1,69,0,216
1,78,100,1224
1,78,0,72
1,76,100,7
1,76,0,72
1,73,100,10
1,73,0,72
1,76,100,7
1,76,0,72
1,73,100,9
1,73,0,72
1,71,100,8
1,71,0,72
1,73,100,7
1,73,0,27
1,71,100,3
1,71,0,27
1,69,100,3
1,69,0,162
1,76,100,22
1,76,0,25
1,74,100,7
1,74,0,34
1,73,100,9
1,73,0,11
1,74,100,7
1,74,0,20
1,73,100,9
1,73,0,32
1,71,100,5
1,71,0,7
1,69,100,7
1,69,0,20
1,78,100,23
1,78,0,25
1,76,100,7
1,76,0,34
1,73,100,9
1,73,0,12
2,52,100,1500
2,52,0,59
2,57,100,1
2,57,0,59
2,59,100,1
2,59,0,299
2,59,100,241
2,62,100,0
2,62,0,59
2,59,0,0
2,57,100,1
2,61,100,0
2,61,0,59
2,57,0,0
2,54,100,1
2,59,100,0
2,59,0,59
2,54,0,0
2,57,100,1
2,57,0,59
2,59,100,1
2,55,100,0
2,55,0,119
2,59,0,0
2,57,100,1
2,57,0,59
2,54,100,1
2,57,100,0
2,57,0,119
2,54,0,0
2,50,100,1
2,50,0,119
2,47,100,1
2,47,0,119
2,50,100,1
2,50,0,59
2,55,100,1
2,55,0,119
2,54,100,1
2,54,0,59
2,50,100,1
2,50,0,59
2,45,100,1
2,45,0,59
2,52,100,1
2,52,0,59
2,52,100,61
2,52,0,59
2,57,100,1
2,57,0,59
2,59,100,1
2,59,0,299
2,59,100,241
2,62,100,0
2,62,0,59
2,59,0,0
2,57,100,1
2,61,100,0
2,61,0,59
2,57,0,0
2,54,100,1
2,59,100,0
2,59,0,59
2,54,0,0
2,57,100,1
2,57,0,59
2,59,100,1
2,55,100,0
2,55,0,119
2,59,0,0
2,57,100,1
2,57,0,59
2,54,100,1
2,57,100,0
2,57,0,119
2,54,0,0
2,50,100,1
2,50,0,119
2,47,100,1
2,47,0,119
2,50,100,1
2,50,0,59
2,55,100,1
2,55,0,119
2,54,100,1
2,54,0,59
2,50,100,1
2,50,0,59
2,45,100,1
2,45,0,59
2,52,100,1
2,52,0,59
2,52,100,11581
2,52,0,59
2,57,100,1
2,57,0,59
2,59,100,1
2,59,0,299
2,59,100,241
2,62,100,0
2,62,0,59
2,59,0,0
2,57,100,1
2,61,100,0
2,61,0,59
2,57,0,0
2,54,100,1
2,59,100,0
2,59,0,59
2,54,0,0
2,57,100,1
2,57,0,59
2,59,100,1
2,55,100,0
2,55,0,119
2,59,0,0
2,57,100,1
2,57,0,59
2,54,100,1
2,57,100,0
2,57,0,119
2,54,0,0
2,50,100,1
2,50,0,119
2,47,100,1
2,47,0,119
2,50,100,1
2,50,0,59
2,55,100,1
2,55,0,119
2,54,100,1
2,54,0,59
2,50,100,1
2,50,0,59
2,45,100,1
2,45,0,59
2,52,100,1
2,52,0,59
2,52,100,11581
2,57,100,0
2,57,0,89
2,52,0,0
2,54,100,1
2,57,100,0
2,57,0,89
2,54,0,0
2,57,100,1
2,54,100,0
2,54,0,179
2,57,0,0
2,52,100,1
2,57,100,0
2,57,0,119
2,52,0,0
2,50,100,1
2,50,0,59
2,52,100,1
2,52,0,59
2,54,100,1
2,54,0,59
2,55,100,1
2,55,0,59
2,57,100,1
2,57,0,59
2,59,100,1
2,59,0,59
2,62,100,1
2,62,0,59
2,61,100,1
2,61,0,119
2,57,100,1
2,57,0,59
2,59,100,1
2,59,0,239
2,50,100,1
2,50,0,119
2,55,100,1
2,55,0,59
2,59,100,1
2,59,0,119
2,57,100,1
2,57,0,59
2,54,100,1
2,54,0,59
2,50,100,1
2,50,0,59
2,57,100,1
2,52,100,0
2,52,0,59
2,57,0,0
2,52,100,61
2,57,100,0
2,57,0,89
2,52,0,0
2,54,100,1
2,57,100,0
2,57,0,89
2,54,0,0
2,57,100,1
2,54,100,0
2,54,0,179
2,57,0,0
2,52,100,1
2,57,100,0
2,57,0,119
2,52,0,0
2,50,100,1
2,50,0,59
2,52,100,1
2,52,0,59
2,54,100,1
2,54,0,59
2,55,100,1
2,55,0,59
2,57,100,1
2,57,0,59
2,59,100,1
2,59,0,59
2,62,100,1
2,62,0,59
2,64,100,1
2,64,0,59
2,61,100,1
2,61,0,59
2,57,100,1
2,57,0,59
2,59,100,1
2,59,0,239
2,50,100,1
2,50,0,119
2,55,100,1
2,55,0,59
2,59,100,1
2,59,0,119
2,57,100,1
2,57,0,59
2,54,100,1
2,54,0,59
2,50,100,1
2,50,0,59
2,57,100,1
2,52,100,0
2,52,0,119
2,57,0,0
2,52,100,1
2,57,100,0
2,57,0,89
2,52,0,0
2,54,100,1
2,57,100,0
2,57,0,89
2,54,0,0
2,55,100,1
2,57,100,0
2,57,0,119
2,55,0,0
2,57,100,1
2,54,100,0
2,54,0,59
2,57,0,0
2,52,100,1
2,57,100,0
2,57,0,119
2,52,0,0
2,50,100,1
2,50,0,59
2,52,100,1
2,52,0,59
2,54,100,1
2,54,0,59
2,55,100,1
2,55,0,59
2,57,100,1
2,57,0,59
2,59,100,1
2,59,0,59
2,62,100,1
2,62,0,59
2,61,100,1
2,61,0,119
2,57,100,1
2,57,0,59
2,61,100,1
2,61,0,59
2,59,100,1
2,59,0,179
2,50,100,1
2,50,0,119
2,55,100,1
2,55,0,59
2,59,100,1
2,59,0,59
2,57,100,1
2,57,0,119
2,54,100,1
2,54,0,59
2,50,100,1
2,50,0,59
