track,note,velocity,time
0,77,100,0
0,72,100,0
0,65,100,0
0,58,100,0
0,50,100,0
0,67,100,128
0,72,100,0
0,79,100,0
0,58,100,0
0,51,100,0
0,82,100,128
0,75,100,0
0,70,100,0
0,58,100,0
0,50,100,0
0,70,100,128
0,63,100,0
0,75,100,0
0,56,100,0
0,48,100,0
0,63,100,128
0,60,100,128
0,72,100,0
0,65,100,0
0,51,100,0
0,44,100,0
0,58,100,128
0,70,100,0
0,63,100,0
0,51,100,0
0,43,100,0
0,58,100,128
0,55,100,128
0,67,100,0
0,48,100,0
0,41,100,0
0,63,100,128
0,58,100,0
0,43,100,0
0,53,100,384
0,51,100,0
0,72,100,128
0,75,100,48
0,77,100,48
0,72,100,0
0,65,100,0
0,58,100,0
0,50,100,0
0,67,100,128
0,72,100,0
0,79,100,0
0,58,100,0
0,51,100,0
0,82,100,128
0,75,100,0
0,70,100,0
0,58,100,0
0,50,100,0
0,70,100,128
0,63,100,0
0,75,100,0
0,48,100,0
0,56,100,0
0,63,100,128
0,56,100,96
0,72,100,96
0,65,100,0
0,77,100,0
0,51,100,0
0,44,100,0
0,70,100,64
0,70,100,64
0,63,100,0
0,51,100,0
0,43,100,0
0,58,100,128
0,67,100,0
0,48,100,0
0,41,100,0
0,63,100,128
0,58,100,0
0,43,100,0
0,51,100,0
0,60,100,128
0,44,100,0
0,53,100,256
0,51,100,0
0,75,100,128
0,79,100,48
0,77,100,48
0,84,100,0
0,72,100,0
0,62,100,0
0,70,100,0
0,72,100,128
0,82,100,128
0,75,100,0
0,70,100,0
0,53,100,0
0,58,100,0
0,79,100,128
0,67,100,0
0,70,100,0
0,55,100,0
0,63,100,0
0,67,100,128
0,63,100,64
0,72,100,192
0,75,100,64
0,77,100,64
0,68,100,0
0,67,100,0
0,53,100,0
0,60,100,0
0,79,100,64
0,77,100,64
0,75,100,64
0,72,100,64
0,55,100,0
0,63,100,0
0,75,100,64
0,70,100,64
0,65,100,0
0,63,100,0
0,56,100,0
0,65,100,128
0,63,100,64
0,72,100,0
0,75,100,64
0,77,100,64
0,72,100,0
0,65,100,0
0,58,100,0
0,50,100,0
0,67,100,128
0,72,100,0
0,79,100,0
0,58,100,0
0,51,100,0
0,82,100,128
0,75,100,0
0,70,100,0
0,58,100,0
0,50,100,0
0,70,100,128
0,63,100,0
0,75,100,0
0,56,100,0
0,48,100,0
0,63,100,128
0,60,100,128
0,72,100,0
0,65,100,0
0,51,100,0
0,44,100,0
0,70,100,128
0,63,100,0
0,51,100,0
0,43,100,0
0,58,100,384
0,67,100,0
0,55,100,128
0,63,100,0
0,48,100,0
0,41,100,0
0,58,100,128
0,65,100,0
0,50,100,0
0,41,100,0
0,34,100,0
0,53,100,384
0,79,100,256
0,82,100,64
0,77,100,64
0,72,100,0
0,84,100,0
0,70,100,0
0,62,100,0
0,72,100,128
0,75,100,0
0,82,100,0
0,68,100,0
0,60,100,0
0,72,100,128
0,79,100,0
0,68,100,0
0,60,100,0
0,77,100,64
0,77,100,64
0,72,100,0
0,57,100,0
0,65,100,0
0,72,100,128
0,57,100,192
0,72,100,128
0,75,100,64
0,77,100,64
0,70,100,0
0,55,100,0
0,63,100,0
0,75,100,64
0,67,100,0
0,77,100,64
0,65,100,0
0,53,100,0
0,62,100,0
0,75,100,64
0,70,100,64
0,75,100,64
0,75,100,64
0,65,100,0
0,67,100,0
0,56,100,0
0,63,100,0
0,65,100,128
0,67,100,0
0,63,100,64
0,79,100,64
0,70,100,0
0,82,100,64
0,72,100,0
0,84,100,64
0,77,100,0
0,72,100,0
0,70,100,0
0,63,100,0
0,68,100,0
0,62,100,0
0,82,100,192
0,70,100,0
0,79,100,64
0,70,100,0
0,62,100,0
0,55,100,0
0,82,100,64
0,79,100,64
0,75,100,0
0,70,100,0
0,65,100,0
0,56,100,0
0,75,100,128
0,67,100,0
0,70,100,0
0,58,100,0
0,53,100,0
0,65,100,128
0,70,100,64
0,67,100,64
0,75,100,0
0,63,100,0
0,56,100,0
0,70,100,64
0,65,100,64
0,65,100,64
0,67,100,64
0,75,100,0
0,60,100,0
0,53,100,0
0,67,100,128
0,63,100,0
0,58,100,0
0,51,100,0
0,44,100,0
0,63,100,128
0,58,100,0
0,56,100,0
0,55,100,0
0,48,100,0
0,41,100,0
0,79,100,128
0,82,100,64
0,72,100,0
0,84,100,64
0,77,100,0
0,72,100,0
0,70,100,0
0,63,100,0
0,68,100,0
0,62,100,0
0,82,100,192
0,72,100,0
0,79,100,64
0,70,100,0
0,62,100,0
0,55,100,0
0,82,100,64
0,79,100,64
0,70,100,0
0,63,100,0
0,56,100,0
0,75,100,0
0,68,100,64
0,72,100,128
0,60,100,0
0,75,100,0
0,77,100,64
0,68,100,0
0,60,100,0
0,79,100,64
0,77,100,64
0,75,100,64
0,72,100,64
0,63,100,0
0,75,100,16
0,72,100,16
0,67,100,32
0,67,100,64
0,70,100,0
0,63,100,0
0,56,100,0
0,75,100,128
0,65,100,0
0,63,100,64
0,70,100,64
0,68,100,0
0,75,100,64
0,68,100,0
0,67,100,0
0,77,100,64
0,72,100,0
0,65,100,0
0,58,100,0
0,50,100,0
0,67,100,128
0,72,100,0
0,79,100,0
0,58,100,0
0,51,100,0
0,82,100,128
0,75,100,0
0,70,100,0
0,58,100,0
0,50,100,0
0,70,100,128
0,63,100,0
0,75,100,0
0,56,100,0
0,48,100,0
0,63,100,128
0,60,100,128
0,72,100,0
0,65,100,0
0,51,100,0
0,44,100,0
0,58,100,128
0,70,100,0
0,63,100,0
0,51,100,0
0,43,100,0
0,58,100,128
0,67,100,0
0,48,100,0
0,41,100,0
0,55,100,128
0,63,100,0
0,51,100,0
0,43,100,0
0,65,100,128
0,60,100,0
0,58,100,0
0,50,100,0
0,34,100,0
0,41,100,0
0,67,100,480
0,43,100,0
0,43,100,0
0,72,100,32
0,48,100,0
0,48,100,0
0,77,100,32
0,53,100,0
0,53,100,0
0,75,100,32
0,51,100,0
0,51,100,0
0,70,100,32
0,46,100,0
0,46,100,0
0,65,100,32
0,41,100,0
0,41,100,0
0,72,100,32
0,48,100,0
0,48,100,0
0,67,100,32
0,43,100,0
0,43,100,0
0,62,100,32
0,38,100,0
0,38,100,0
0,60,100,32
0,36,100,0
0,36,100,0
0,67,100,32
0,43,100,0
0,43,100,0
0,65,100,32
0,60,100,0
0,53,100,0
0,41,100,0
0,41,100,0
0,65,100,0
0,69,100,0
0,72,100,0
0,42,50,0
0,36,80,0
0,42,50,32
0,42,50,32
0,42,50,32
0,38,100,0
0,42,50,0
0,42,50,32
0,67,100,32
0,60,100,0
0,53,100,0
0,41,100,0
0,42,50,0
0,36,80,0
0,67,100,32
0,60,100,0
0,53,100,0
0,41,100,0
0,42,50,0
0,67,100,32
0,60,100,0
0,53,100,0
0,41,100,0
0,42,50,0
0,36,80,0
0,67,100,32
0,60,100,0
0,53,100,0
0,41,100,0
0,42,50,0
0,67,100,32
0,60,100,0
0,53,100,0
0,41,100,0
0,42,50,0
0,67,100,32
0,60,100,0
0,53,100,0
0,41,100,0
0,42,50,0
0,62,100,32
0,67,100,0
0,53,100,0
0,43,100,0
0,74,100,0
0,70,100,0
0,67,100,0
0,42,50,0
0,38,100,0
0,42,50,32
0,65,100,32
0,60,100,0
0,53,100,0
0,41,100,0
0,65,100,0
0,69,100,0
0,72,100,0
0,42,50,0
0,42,50,32
0,42,50,32
0,36,80,0
0,42,50,32
0,42,50,32
0,42,50,32
0,38,100,0
0,42,50,32
0,42,50,32
0,67,100,32
0,60,100,0
0,57,100,0
0,53,100,0
0,41,100,0
0,42,50,0
0,36,80,0
0,67,100,32
0,60,100,0
0,57,100,0
0,53,100,0
0,41,100,0
0,42,50,0
0,67,100,32
0,60,100,0
0,57,100,0
0,53,100,0
0,41,100,0
0,42,50,0
0,36,80,0
0,67,100,32
0,60,100,0
0,57,100,0
0,57,100,0
0,53,100,0
0,41,100,0
0,42,50,0
0,67,100,32
0,60,100,0
0,57,100,0
0,53,100,0
0,41,100,0
0,42,50,0
0,67,100,32
0,60,100,0
0,57,100,0
0,53,100,0
0,41,100,0
0,42,50,0
0,65,100,12
0,58,100,0
0,55,100,0
0,53,100,0
0,55,100,0
0,39,100,0
0,70,100,0
0,67,100,0
0,63,100,0
0,42,50,0
0,38,100,0
0,42,50,32
0,65,100,32
0,60,100,0
0,57,100,0
0,53,100,0
0,41,100,0
0,65,100,0
0,72,100,0
0,69,100,0
0,42,50,0
0,42,50,32
0,42,50,32
0,36,80,0
0,42,50,32
0,42,50,32
0,42,50,32
0,38,100,0
0,42,50,32
0,42,50,32
0,67,100,32
0,60,100,0
0,57,100,0
0,53,100,0
0,41,100,0
0,42,50,0
0,36,80,0
0,67,100,32
0,60,100,0
0,57,100,0
0,53,100,0
0,41,100,0
0,42,50,0
0,67,100,32
0,60,100,0
0,57,100,0
0,53,100,0
0,41,100,0
0,42,50,0
0,36,80,0
0,67,100,32
0,60,100,0
0,57,100,0
0,53,100,0
0,41,100,0
0,42,50,0
0,67,100,32
0,60,100,0
0,57,100,0
0,53,100,0
0,41,100,0
0,42,50,0
0,67,100,32
0,60,100,0
0,57,100,0
0,53,100,0
0,41,100,0
0,42,50,0
0,63,100,12
0,58,100,0
0,55,100,0
0,36,100,0
0,60,100,0
0,63,100,0
0,67,100,0
0,70,100,0
0,42,50,0
0,38,100,0
0,42,50,32
0,42,50,32
0,42,50,32
0,42,50,32
0,36,80,0
0,42,50,32
0,63,100,32
0,58,100,0
0,55,100,0
0,39,100,0
0,70,100,0
0,67,100,0
0,63,100,0
0,42,50,0
0,42,50,32
0,42,50,0
0,38,100,0
0,62,100,32
0,58,100,0
0,53,100,0
0,36,100,0
0,70,100,0
0,65,100,0
0,62,100,0
0,42,50,0
0,42,50,32
0,36,80,0
0,42,50,0
0,63,100,32
0,58,100,0
0,55,100,0
0,36,100,0
0,70,100,0
0,67,100,0
0,63,100,0
0,60,100,0
0,42,50,0
0,36,80,0
0,41,80,0
0,42,50,32
0,42,50,32
0,42,50,32
0,62,100,32
0,58,100,0
0,53,100,0
0,39,100,0
0,70,100,0
0,65,100,0
0,62,100,0
0,42,50,0
0,43,80,0
0,42,50,32
0,45,80,0
0,42,50,32
0,42,50,32
0,45,80,0
0,65,100,32
0,60,100,0
0,53,100,0
0,41,100,0
0,41,100,0
0,65,100,0
0,69,100,0
0,72,100,0
0,42,50,0
0,36,80,0
0,42,50,32
0,42,50,32
0,42,50,32
0,38,100,0
0,42,50,0
0,42,50,32
0,67,100,32
0,60,100,0
0,53,100,0
0,41,100,0
0,42,50,0
0,36,80,0
0,67,100,32
0,60,100,0
0,53,100,0
0,41,100,0
0,42,50,0
0,67,100,32
0,60,100,0
0,53,100,0
0,41,100,0
0,42,50,0
0,36,80,0
0,67,100,32
0,60,100,0
0,53,100,0
0,41,100,0
0,42,50,0
0,67,100,32
0,60,100,0
0,53,100,0
0,41,100,0
0,42,50,0
0,67,100,32
0,60,100,0
0,53,100,0
0,41,100,0
0,42,50,0
0,62,100,32
0,67,100,0
0,53,100,0
0,43,100,0
0,74,100,0
0,70,100,0
0,67,100,0
0,42,50,0
0,38,100,0
0,42,50,32
0,65,100,32
0,60,100,0
0,53,100,0
0,41,100,0
0,65,100,0
0,69,100,0
0,72,100,0
0,42,50,0
0,42,50,32
0,42,50,32
0,36,80,0
0,42,50,32
0,42,50,32
0,42,50,32
0,38,100,0
0,42,50,32
0,42,50,32
0,67,100,32
0,60,100,0
0,57,100,0
0,53,100,0
0,41,100,0
0,42,50,0
0,36,80,0
0,67,100,32
0,60,100,0
0,57,100,0
0,53,100,0
0,41,100,0
0,42,50,0
0,67,100,32
0,60,100,0
0,57,100,0
0,53,100,0
0,41,100,0
0,42,50,0
0,36,80,0
0,67,100,32
0,60,100,0
0,57,100,0
0,57,100,0
0,53,100,0
0,41,100,0
0,42,50,0
0,67,100,32
0,60,100,0
0,57,100,0
0,53,100,0
0,41,100,0
0,42,50,0
0,67,100,32
0,60,100,0
0,57,100,0
0,53,100,0
0,41,100,0
0,42,50,0
0,65,100,12
0,58,100,0
0,55,100,0
0,53,100,0
0,55,100,0
0,39,100,0
0,70,100,0
0,67,100,0
0,63,100,0
0,42,50,0
0,38,100,0
0,42,50,32
0,65,100,32
0,60,100,0
0,57,100,0
0,53,100,0
0,41,100,0
0,65,100,0
0,72,100,0
0,69,100,0
0,42,50,0
0,42,50,32
0,42,50,32
0,36,80,0
0,42,50,32
0,42,50,32
0,42,50,32
0,38,100,0
0,42,50,32
0,42,50,32
0,67,100,32
0,60,100,0
0,57,100,0
0,53,100,0
0,41,100,0
0,42,50,0
0,36,80,0
0,67,100,32
0,60,100,0
0,57,100,0
0,53,100,0
0,41,100,0
0,42,50,0
0,67,100,32
0,60,100,0
0,57,100,0
0,53,100,0
0,41,100,0
0,42,50,0
0,36,80,0
0,67,100,32
0,60,100,0
0,57,100,0
0,53,100,0
0,41,100,0
0,42,50,0
0,67,100,32
0,60,100,0
0,57,100,0
0,53,100,0
0,41,100,0
0,42,50,0
0,67,100,32
0,60,100,0
0,57,100,0
0,53,100,0
0,41,100,0
0,42,50,0
0,63,100,12
0,58,100,0
0,55,100,0
0,36,100,0
0,60,100,0
0,63,100,0
0,67,100,0
0,70,100,0
0,42,50,0
0,38,100,0
0,42,50,32
0,42,50,32
0,42,50,32
0,42,50,32
0,36,80,0
0,42,50,32
0,63,100,32
0,58,100,0
0,55,100,0
0,39,100,0
0,70,100,0
0,67,100,0
0,63,100,0
0,42,50,0
0,42,50,32
0,42,50,0
0,38,100,0
0,62,100,32
0,58,100,0
0,53,100,0
0,36,100,0
0,70,100,0
0,65,100,0
0,62,100,0
0,42,50,0
0,42,50,32
0,36,80,0
0,42,50,0
0,63,100,32
0,58,100,0
0,55,100,0
0,36,100,0
0,70,100,0
0,67,100,0
0,63,100,0
0,60,100,0
0,42,50,0
0,36,80,0
0,41,80,0
0,42,50,32
0,42,50,32
0,45,80,0
0,42,50,32
0,62,100,32
0,58,100,0
0,53,100,0
0,39,100,0
0,70,100,0
0,65,100,0
0,62,100,0
0,42,50,0
0,43,80,0
0,42,50,32
0,42,50,32
0,41,80,0
0,42,50,32
0,41,85,32
0,65,100,0
0,60,100,0
0,42,40,0
0,36,70,0
0,42,40,32
0,42,40,32
0,42,40,32
0,76,50,0
0,67,115,0
0,42,40,0
0,56,50,0
0,42,40,32
0,41,85,32
0,69,115,0
0,42,40,0
0,42,40,32
0,36,70,0
0,76,50,0
0,41,85,32
0,70,115,0
0,42,40,0
0,36,70,0
0,42,40,32
0,42,40,32
0,42,40,32
0,76,50,0
0,69,115,0
0,42,40,0
0,56,50,0
0,42,40,32
0,41,85,32
0,42,40,0
0,36,70,0
0,42,40,32
0,76,50,0
0,41,85,32
0,67,115,0
0,42,40,0
0,36,70,0
0,42,40,32
0,65,115,32
0,42,40,0
0,42,40,32
0,76,50,0
0,42,40,0
0,56,50,0
0,42,40,32
0,41,85,32
0,65,115,0
0,42,40,0
0,42,40,32
0,36,70,0
0,76,50,0
0,36,85,32
0,65,100,0
0,60,100,0
0,58,100,0
0,42,40,0
0,36,70,0
0,42,40,32
0,42,40,32
0,42,40,32
0,76,50,0
0,62,100,0
0,65,100,0
0,70,100,0
0,42,40,0
0,56,50,0
0,42,40,32
0,42,40,32
0,36,70,0
0,48,85,32
0,42,40,0
0,76,50,0
0,46,85,32
0,69,100,0
0,65,100,0
0,60,100,0
0,42,40,0
0,36,70,0
0,42,40,32
0,42,40,32
0,42,40,32
0,76,50,0
0,42,40,0
0,56,50,0
0,42,40,32
0,46,85,32
0,69,115,0
0,42,40,0
0,72,115,32
0,42,40,0
0,36,70,0
0,76,50,0
0,46,85,32
0,74,115,0
0,42,40,0
0,36,70,0
0,42,40,32
0,72,115,32
0,42,40,0
0,69,115,32
0,42,40,0
0,76,50,0
0,43,85,32
0,42,40,0
0,56,50,0
