track,note,velocity,time
1,52,121,4208
1,59,81,8
1,64,87,12
1,68,72,12
1,57,77,168
1,62,75,0
1,66,73,4
1,71,73,360
1,52,123,356
1,59,79,152
1,64,87,12
1,68,85,12
1,57,73,168
1,62,77,4
1,66,72,12
1,71,77,12
1,52,122,356
1,59,77,40
1,64,98,12
1,68,85,12
1,57,74,0
1,62,79,12
1,66,79,12
1,71,86,360
1,52,118,344
1,59,87,168
1,64,93,12
1,68,79,12
1,57,65,4
1,62,77,12
1,66,74,12
1,71,90,12
1,52,121,28
1,59,81,8
1,64,87,12
1,68,72,12
1,57,77,168
1,62,75,0
1,66,73,4
1,71,73,360
1,52,123,356
1,59,79,152
1,64,87,12
1,68,85,12
1,57,73,168
1,62,77,4
1,66,72,12
1,71,77,12
1,52,122,356
1,59,77,40
1,64,98,12
1,68,85,12
1,57,74,0
1,62,79,12
1,66,79,12
1,71,86,360
1,52,118,344
1,59,87,168
1,64,93,12
1,68,79,12
1,57,65,4
1,62,77,12
1,66,74,12
1,71,90,12
1,52,121,28
1,59,81,8
1,64,87,12
1,68,72,12
1,57,77,168
1,62,75,0
1,66,73,4
1,71,73,360
1,52,123,356
1,59,79,152
1,64,87,12
1,68,85,12
1,57,73,168
1,62,77,4
1,66,72,12
1,71,77,12
1,52,122,356
1,59,77,40
1,64,98,12
1,68,85,12
1,57,74,0
1,62,79,12
1,66,79,12
1,71,86,360
1,52,118,344
1,59,87,168
1,64,93,12
1,68,79,12
1,57,65,8
1,62,77,12
1,66,74,12
1,71,90,4
1,56,71,28
1,59,72,12
1,64,67,12
1,56,61,72
1,59,73,12
1,64,75,12
1,56,60,120
1,59,66,12
1,64,75,12
1,56,60,136
1,59,67,0
1,63,63,12
1,56,63,136
1,59,67,12
1,63,61,12
1,56,60,128
1,59,69,12
1,63,63,12
1,54,64,8
1,57,63,12
1,61,67,12
1,54,67,172
1,57,64,12
1,61,65,12
1,54,60,120
1,57,62,12
1,61,64,12
1,54,62,8
1,59,70,12
1,63,64,12
1,54,63,148
1,59,66,12
1,63,60,12
1,54,66,140
1,59,64,12
1,63,59,12
1,52,75,0
1,59,71,44
1,64,74,12
1,68,63,12
1,59,62,52
1,62,64,12
1,66,59,12
1,62,73,96
1,66,58,12
1,71,67,12
1,52,79,360
1,59,65,56
1,64,72,12
1,68,67,12
1,59,67,20
1,62,65,12
1,66,63,12
1,62,70,84
1,66,64,12
1,71,66,12
1,52,121,0
1,59,81,8
1,64,87,12
1,68,72,12
1,57,77,168
1,62,75,0
1,66,73,4
1,71,73,360
1,52,123,356
1,59,79,152
1,64,87,12
1,68,85,12
1,57,73,168
1,62,77,4
1,66,72,12
1,71,77,12
1,52,122,356
1,59,77,40
1,64,98,12
1,68,85,12
1,57,74,0
1,62,79,12
1,66,79,12
1,71,86,360
1,52,118,344
1,59,87,168
1,64,93,12
1,68,79,12
1,57,65,4
1,62,77,12
1,66,74,12
1,71,90,12
1,52,121,28
1,59,81,8
1,64,87,12
1,68,72,12
1,57,77,168
1,62,75,0
1,66,73,4
1,71,73,360
1,52,123,356
1,59,79,152
1,64,87,12
1,68,85,12
1,57,73,168
1,62,77,4
1,66,72,12
1,71,77,12
1,52,122,356
1,59,77,40
1,64,98,12
1,68,85,12
1,57,74,0
1,62,79,12
1,66,79,12
1,71,86,360
1,52,118,344
1,59,87,168
1,64,93,12
1,68,79,12
1,57,65,8
1,62,77,12
1,66,74,12
1,71,90,4
1,56,71,28
1,59,72,12
1,64,67,12
1,56,61,72
1,59,73,12
1,64,75,12
1,56,60,120
1,59,66,12
1,64,75,12
1,56,60,136
1,59,67,0
1,63,63,12
1,56,63,136
1,59,67,12
1,63,61,12
1,56,60,128
1,59,69,12
1,63,63,12
1,54,64,8
1,57,63,12
1,61,67,12
1,54,67,172
1,57,64,12
1,61,65,12
1,54,60,120
1,57,62,12
1,61,64,12
1,54,62,8
1,59,70,12
1,63,64,12
1,54,63,148
1,59,66,12
1,63,60,12
1,54,66,140
1,59,64,12
1,63,59,12
1,52,75,0
1,59,71,44
1,64,74,12
1,68,63,12
1,59,62,52
1,62,64,12
1,66,59,12
1,62,73,96
1,66,58,12
1,71,67,12
1,52,79,360
1,59,65,56
1,64,72,12
1,68,67,12
1,59,67,20
1,62,65,12
1,66,63,12
1,62,70,84
1,66,64,12
1,71,66,12
1,54,65,0
1,57,66,12
1,61,68,12
1,61,61,4
1,57,56,12
1,54,59,12
1,54,57,4
1,57,58,12
1,61,60,12
1,61,52,4
1,57,58,12
1,54,59,12
1,54,59,4
1,59,66,12
1,63,61,12
1,63,60,4
1,59,60,12
1,54,56,12
1,54,58,4
1,59,60,12
1,63,60,12
1,63,60,4
1,59,63,12
1,54,61,12
1,56,59,4
1,59,60,12
1,64,62,12
1,64,49,4
1,59,54,12
1,56,52,12
1,56,49,4
1,59,61,12
1,64,58,12
1,64,61,4
1,59,59,12
1,56,56,12
1,56,61,4
1,59,63,12
1,64,66,12
1,64,58,4
1,59,58,12
1,56,58,12
1,56,51,4
1,59,59,12
1,64,60,12
1,64,65,4
1,59,62,12
1,56,58,12
1,54,63,4
1,57,61,12
1,61,61,12
1,61,57,4
1,57,59,12
1,54,57,12
1,54,63,4
1,57,59,12
1,61,59,12
1,61,57,4
1,57,59,12
1,54,60,12
1,54,59,4
1,59,63,12
1,63,64,12
1,63,51,4
1,59,60,12
1,54,58,12
1,54,58,4
1,59,60,12
1,63,59,12
1,63,52,4
1,59,58,12
1,54,58,12
1,56,58,4
1,59,60,12
1,64,63,12
1,64,47,4
1,59,50,12
1,56,45,12
1,56,58,4
1,59,60,12
1,64,59,12
1,64,52,4
1,59,58,12
1,56,46,12
1,56,59,4
1,59,61,12
1,64,60,12
1,64,60,4
1,59,61,12
1,56,58,12
1,56,51,4
1,59,58,12
1,64,53,12
1,64,64,4
1,59,59,12
1,56,58,12
1,54,61,4
1,57,63,12
1,61,60,12
1,61,53,4
1,57,58,12
1,54,47,12
1,54,59,4
1,57,59,12
1,61,58,12
1,61,54,4
1,57,59,12
1,54,55,12
1,54,47,4
1,59,67,12
1,63,67,12
1,63,58,4
1,59,60,12
1,54,51,12
1,54,59,4
1,59,60,12
1,63,51,12
1,63,59,4
1,59,61,12
1,54,60,12
1,56,60,4
1,59,63,12
1,63,60,12
1,63,53,4
1,59,59,12
1,56,58,12
1,56,54,4
1,59,59,12
1,63,59,12
1,63,57,4
1,59,63,12
1,56,58,12
1,56,58,4
1,59,60,12
1,64,67,12
1,64,62,4
1,59,58,12
1,56,52,12
1,56,55,4
1,59,59,12
1,64,64,12
1,64,60,4
1,59,58,12
1,56,52,12
1,54,59,4
1,57,59,12
1,61,59,12
1,61,55,4
1,57,59,12
1,54,56,12
1,54,61,4
1,57,58,12
1,61,54,12
1,61,55,4
1,57,60,12
1,54,60,12
1,54,59,4
1,57,60,12
1,61,58,12
1,61,47,4
1,57,54,12
1,54,58,4
1,57,60,12
1,61,56,12
1,61,57,4
1,57,59,12
1,54,58,12
1,54,60,4
1,59,64,12
1,63,62,12
1,63,41,4
1,59,57,12
1,54,50,12
1,54,54,4
1,59,59,12
1,63,51,12
1,63,52,4
1,59,59,12
1,54,59,12
1,54,54,4
1,59,59,12
1,63,50,12
1,63,63,4
1,59,63,12
1,54,64,12
1,54,61,4
1,59,56,12
1,63,58,12
1,52,121,4
1,59,81,8
1,64,87,12
1,68,72,12
1,57,77,168
1,62,75,0
1,66,73,4
1,71,73,360
1,52,123,356
1,59,79,152
1,64,87,12
1,68,85,12
1,57,73,168
1,62,77,4
1,66,72,12
1,71,77,12
1,52,122,356
1,59,77,40
1,64,98,12
1,68,85,12
1,57,74,0
1,62,79,12
1,66,79,12
1,71,86,360
1,52,118,344
1,59,87,168
1,64,93,12
1,68,79,12
1,57,65,4
1,62,77,12
1,66,74,12
1,71,90,12
1,52,121,28
1,59,81,8
1,64,87,12
1,68,72,12
1,57,77,168
1,62,75,0
1,66,73,4
1,71,73,360
1,52,123,356
1,59,79,152
1,64,87,12
1,68,85,12
1,57,73,168
1,62,77,4
1,66,72,12
1,71,77,12
1,52,122,356
1,59,77,40
1,64,98,12
1,68,85,12
1,57,74,0
1,62,79,12
1,66,79,12
1,71,86,360
1,52,118,344
1,59,87,168
1,64,93,12
1,68,79,12
1,57,65,8
1,62,77,12
1,66,74,12
1,71,90,4
1,56,71,28
1,59,72,12
1,64,67,12
1,56,61,72
1,59,73,12
1,64,75,12
1,56,60,120
1,59,66,12
1,64,75,12
1,56,60,136
1,59,67,0
1,63,63,12
1,56,63,136
1,59,67,12
1,63,61,12
1,56,60,128
1,59,69,12
1,63,63,12
1,54,64,8
1,57,63,12
1,61,67,12
1,54,67,172
1,57,64,12
1,61,65,12
1,54,60,120
1,57,62,12
1,61,64,12
1,54,62,8
1,59,70,12
1,63,64,12
1,54,63,148
1,59,66,12
1,63,60,12
1,54,66,140
1,59,64,12
1,63,59,12
1,52,121,0
1,59,81,8
1,64,87,12
1,68,72,12
1,57,77,168
1,62,75,0
1,66,73,4
1,71,73,360
1,52,123,356
1,59,79,152
1,64,87,12
1,68,85,12
1,57,73,168
1,62,77,4
1,66,72,12
1,71,77,12
1,52,122,356
1,59,77,40
1,64,98,12
1,68,85,12
1,57,74,0
1,62,79,12
1,66,79,12
1,71,86,360
1,52,118,344
1,59,87,168
1,64,93,12
1,68,79,12
1,57,65,4
1,62,77,12
1,66,74,12
1,71,90,12
1,52,122,28
1,59,77,40
1,64,98,12
1,68,85,12
1,57,74,0
1,62,79,12
1,66,79,12
1,71,86,360
1,52,118,344
1,59,87,168
1,64,93,12
1,68,79,12
1,57,65,4
1,62,77,12
1,66,74,12
1,71,90,12
1,52,122,28
1,59,77,16
1,64,98,16
1,68,85,16
2,47,119,3796
2,40,99,0
2,49,89,544
2,47,105,200
2,35,93,364
2,40,100,352
2,49,93,0
2,47,105,204
2,35,97,360
2,40,102,8
2,49,91,8
2,47,112,200
2,35,102,0
2,40,105,372
2,49,91,0
2,47,113,192
2,35,119,8
2,40,99,8
2,49,89,544
2,47,105,200
2,35,93,364
2,40,100,352
2,49,93,0
2,47,105,204
2,35,97,360
2,40,102,8
2,49,91,8
2,47,112,200
2,35,102,0
2,40,105,372
2,49,91,0
2,47,113,192
2,35,119,8
2,40,99,8
2,49,89,544
2,47,105,200
2,35,93,364
2,40,100,352
2,49,93,0
2,47,105,204
2,35,97,360
2,40,102,8
2,49,91,8
2,47,112,200
2,35,102,0
2,40,105,16
2,49,91,8
2,47,113,192
2,35,119,364
2,40,90,64
2,40,84,172
2,35,91,200
2,40,88,160
2,42,87,4
2,43,95,8
2,44,91,4
2,44,93,124
2,39,111,204
2,44,93,32
2,43,86,4
2,42,85,8
2,42,92,132
2,37,93,200
2,42,100,40
2,35,100,8
2,35,91,176
2,42,92,204
2,35,99,380
2,40,116,80
2,49,86,16
2,47,100,204
2,35,100,8
2,40,93,8
2,49,87,32
2,47,99,196
2,35,109,4
2,40,99,8
2,49,89,544
2,47,105,200
2,35,93,364
2,40,100,352
2,49,93,0
2,47,105,204
2,35,97,360
2,40,102,8
2,49,91,8
2,47,112,200
2,35,102,0
2,40,105,372
2,49,91,0
2,47,113,192
2,35,119,8
2,40,99,8
2,49,89,544
2,47,105,200
2,35,93,364
2,40,100,352
2,49,93,0
2,47,105,204
2,35,97,360
2,40,102,8
2,49,91,8
2,47,112,200
2,35,102,0
2,40,105,16
2,49,91,8
2,47,113,192
2,35,119,364
2,40,90,64
2,40,84,172
2,35,91,200
2,40,88,160
2,42,87,4
2,43,95,8
2,44,91,4
2,44,93,124
2,39,111,204
2,44,93,32
2,43,86,4
2,42,85,8
2,42,92,132
2,37,93,200
2,42,100,40
2,35,100,8
2,35,91,176
2,42,92,204
2,35,99,380
2,40,116,80
2,49,86,16
2,47,100,204
2,35,100,8
2,40,93,8
2,49,87,32
2,47,99,196
2,35,109,4
2,42,109,32
2,42,91,188
2,47,100,0
2,47,112,208
2,40,94,200
2,40,98,200
2,35,93,200
2,40,89,20
2,41,93,192
2,42,100,176
2,42,93,220
2,47,100,200
2,47,111,260
2,40,88,200
2,40,98,228
2,35,98,196
2,40,93,32
2,41,89,188
2,42,99,184
2,42,84,264
2,47,103,192
2,47,107,204
2,45,91,0
2,44,102,200
2,44,93,260
2,40,92,8
2,44,96,376
2,42,94,376
2,42,91,212
2,37,102,0
2,42,93,20
2,47,107,392
2,47,103,84
2,45,100,16
2,45,103,68
2,44,100,12
2,44,98,76
2,42,89,20
2,42,87,60
2,40,99,8
2,49,89,544
2,47,105,200
2,35,93,364
2,40,100,352
2,49,93,0
2,47,105,204
2,35,97,360
2,40,102,8
2,49,91,8
2,47,112,200
2,35,102,0
2,40,105,372
2,49,91,0
2,47,113,192
2,35,119,8
2,40,99,8
2,49,89,544
2,47,105,200
2,35,93,364
2,40,100,352
2,49,93,0
2,47,105,204
2,35,97,360
2,40,102,8
2,49,91,8
2,47,112,200
2,35,102,0
2,40,105,16
2,49,91,8
2,47,113,192
2,35,119,364
2,40,90,64
2,40,84,172
2,35,91,200
2,40,88,160
2,42,87,4
2,43,95,8
2,44,91,4
2,44,93,124
2,39,111,204
2,44,93,32
2,43,86,4
2,42,85,8
2,42,92,132
2,37,93,200
2,42,100,40
2,35,100,8
2,35,91,176
2,42,92,204
2,35,99,380
2,40,99,8
2,49,89,544
2,47,105,200
2,35,93,364
2,40,100,352
2,49,93,0
2,47,105,204
2,35,97,360
2,40,102,8
2,49,91,8
2,47,112,200
2,35,102,0
2,40,105,372
2,49,91,0
2,47,113,192
2,35,119,8
2,40,102,56
2,49,91,8
2,47,112,200
2,35,102,0
2,40,105,372
2,49,91,0
2,47,113,192
2,35,119,8
2,40,102,56
3,76,71,22212
3,78,71,4
3,80,71,4
3,81,70,4
3,83,70,4
3,85,70,0
3,87,70,4
3,88,70,4
3,87,69,4
3,85,71,4
3,83,60,1524
3,71,73,1560
3,69,79,4
3,68,82,4
3,66,67,4
3,62,80,4
3,57,72,4
3,56,72,4
3,76,71,11136
3,78,71,4
3,80,71,4
3,81,70,4
3,83,70,4
3,85,70,0
3,87,70,4
3,88,70,4
3,87,69,4
3,85,71,4
3,83,60,1524
3,71,73,1560
3,69,79,4
3,68,82,4
3,66,67,4
3,62,80,4
3,57,72,4
3,56,72,12292
3,76,71,11136
3,78,71,4
3,80,71,4
3,81,70,4
3,83,70,4
3,85,70,0
3,87,70,4
3,88,70,4
3,87,69,4
3,85,71,4
3,83,60,1524
4,71,117,10292
4,69,109,4
4,71,125,4
4,74,126,0
4,71,109,4
4,69,113,4
4,71,126,4
4,71,127,400
4,69,109,0
4,71,123,4
4,74,127,4
4,71,113,4
4,69,107,4
4,71,127,4
4,71,125,296
4,76,116,0
4,71,117,4
4,76,119,4
4,78,108,4
4,75,110,4
4,71,105,0
4,71,115,72
4,75,108,4
4,73,115,4
4,71,103,4
4,69,108,0
4,73,107,4
4,71,121,4
4,71,103,144
4,68,99,4
4,66,99,0
4,68,103,4
4,71,117,284
4,69,109,4
4,71,125,4
4,74,126,0
4,71,109,4
4,69,113,4
4,71,126,4
4,71,127,400
4,69,109,0
4,71,123,4
4,74,127,4
4,71,113,4
4,69,107,4
4,71,127,4
4,71,127,296
4,76,120,4
4,71,117,4
4,76,119,4
4,78,108,4
4,75,110,4
4,71,105,0
4,75,108,248
4,73,115,4
4,71,103,4
4,69,108,0
4,73,107,4
4,71,121,4
4,71,103,144
4,68,99,4
4,66,99,0
4,68,103,4
4,66,113,280
4,66,115,16
4,68,116,48
4,69,117,4
4,71,110,4
4,69,101,4
4,68,108,4
4,64,111,4
4,66,111,392
4,66,111,84
4,68,106,4
4,69,116,4
4,71,116,4
4,68,108,4
4,66,117,736
4,68,113,4
4,69,121,4
4,71,125,4
4,73,112,12
4,75,114,44
4,71,119,20
4,68,108,20
4,73,113,216
4,73,116,48
4,73,105,80
4,73,114,100
4,71,116,4
4,73,111,8
