track,note,velocity,time
0,38,109,1340
0,60,107,0
0,64,107,0
0,72,118,0
0,76,127,0
0,35,125,4
0,59,71,4
0,38,103,64
0,59,71,4
0,38,108,72
0,59,102,0
0,62,99,0
0,71,113,0
0,74,120,0
0,59,71,4
0,38,96,4
0,38,112,96
0,59,71,4
0,35,122,64
0,38,103,0
0,57,97,0
0,60,102,0
0,69,108,0
0,72,123,0
0,59,71,4
0,38,103,64
0,59,71,4
0,59,71,96
0,38,115,0
0,55,97,0
0,59,97,0
0,67,108,0
0,71,118,0
0,38,103,4
0,38,106,92
0,59,71,4
0,38,112,64
0,54,97,0
0,57,99,0
0,66,108,0
0,69,120,0
0,35,122,4
0,59,71,4
0,59,71,64
0,38,103,0
0,55,94,0
0,59,94,0
0,67,105,0
0,71,116,0
0,38,114,72
0,59,71,4
0,38,100,4
0,38,107,96
0,57,97,0
0,60,97,0
0,69,108,0
0,72,118,0
0,59,71,4
0,38,103,64
0,35,123,4
0,59,71,4
0,38,103,24
0,57,87,0
0,60,87,0
0,59,71,4
0,38,112,40
0,57,87,0
0,60,87,0
0,59,71,4
0,38,105,4
0,38,110,40
0,57,87,0
0,60,87,0
0,35,119,4
0,59,71,0
0,38,114,40
0,60,107,0
0,64,107,0
0,72,118,0
0,76,127,0
0,35,120,4
0,59,71,4
0,38,103,64
0,59,71,4
0,38,106,72
0,59,97,0
0,62,99,0
0,71,108,0
0,74,120,0
0,59,71,4
0,38,103,4
0,38,110,96
0,59,71,4
0,35,122,64
0,38,103,0
0,57,97,0
0,60,97,0
0,69,108,0
0,72,118,0
0,59,71,4
0,38,103,64
0,59,71,4
0,59,71,96
0,38,109,0
0,55,97,0
0,59,102,0
0,67,108,0
0,71,123,0
0,38,104,4
0,38,109,92
0,59,71,4
0,38,115,64
0,54,97,0
0,57,99,0
0,66,108,0
0,69,120,0
0,38,99,4
0,35,125,4
0,38,97,12
0,38,103,64
0,55,94,0
0,59,94,0
0,67,105,0
0,71,116,0
0,38,96,4
0,38,98,88
0,38,111,72
0,35,120,4
0,47,86,4
0,47,86,0
0,38,115,92
0,57,99,0
0,60,97,0
0,69,110,0
0,72,118,0
0,47,86,4
0,47,86,92
0,35,123,64
0,38,103,0
0,45,86,4
0,45,86,88
0,38,103,48
0,45,86,4
0,45,86,4
0,38,112,88
0,50,118,0
0,35,116,4
0,43,86,4
0,43,86,0
0,38,108,88
0,43,86,4
0,43,86,28
0,43,113,36
0,55,92,0
0,59,88,0
0,62,96,0
0,62,119,0
0,35,101,4
0,59,71,4
0,59,71,136
0,59,71,92
0,55,77,44
0,59,84,0
0,62,82,0
0,38,100,4
0,59,71,4
0,43,107,68
0,55,72,0
0,59,77,0
0,62,80,0
0,59,118,0
0,38,99,4
0,59,71,4
0,47,109,24
0,59,82,0
0,62,84,0
0,66,85,0
0,35,98,4
0,59,71,4
0,59,71,48
0,59,70,44
0,62,81,0
0,66,72,0
0,50,122,0
0,38,105,4
0,59,71,4
0,47,114,64
0,59,77,0
0,62,80,0
0,66,74,0
0,59,71,4
0,45,114,24
0,57,85,0
0,60,82,0
0,64,81,0
0,62,121,0
0,35,103,4
0,59,71,4
0,59,71,136
0,57,70,44
0,60,78,0
0,64,77,0
0,59,71,4
0,38,101,4
0,45,107,36
0,57,76,0
0,60,74,0
0,64,80,0
0,59,120,0
0,59,71,4
0,38,101,4
0,38,116,24
0,54,87,0
0,57,87,0
0,62,88,0
0,35,113,4
0,59,71,4
0,59,71,48
0,35,113,144
0,59,71,0
0,38,116,0
0,54,87,0
0,57,87,0
0,62,87,0
0,38,113,4
0,59,71,184
0,43,111,144
0,55,77,0
0,59,83,0
0,62,79,0
0,35,113,4
0,59,71,4
0,62,120,176
0,59,71,4
0,55,75,64
0,59,82,0
0,62,84,0
0,62,119,0
0,59,71,4
0,38,104,0
0,43,109,12
0,55,66,0
0,59,75,0
0,62,82,0
0,59,122,0
0,59,71,4
0,38,98,4
0,38,109,24
0,55,62,0
0,59,83,0
0,62,84,0
0,62,126,0
0,35,104,4
0,59,71,4
0,59,71,180
0,55,75,8
0,59,92,0
0,62,93,0
0,59,119,0
0,59,71,4
0,38,104,0
0,38,106,52
0,55,70,0
0,59,85,0
0,62,79,0
0,59,71,4
0,43,115,24
0,55,77,0
0,59,83,0
0,62,79,0
0,62,125,0
0,35,101,4
0,59,71,4
0,59,71,180
0,55,75,68
0,59,82,0
0,62,84,0
0,59,71,4
0,38,96,0
0,55,66,76
0,59,75,0
0,62,82,0
0,62,122,0
0,59,71,4
0,38,103,4
0,38,115,8
0,55,62,0
0,59,83,0
0,62,84,0
0,64,124,0
0,35,105,4
0,59,71,4
0,66,121,0
0,59,71,4
0,43,112,24
0,55,75,0
0,59,92,0
0,62,93,0
0,64,123,0
0,59,71,4
0,38,96,4
0,55,70,52
0,59,85,0
0,62,79,0
0,59,71,4
0,40,106,72
0,55,77,0
0,59,83,0
0,64,79,0
0,35,100,4
0,59,71,4
0,64,127,16
0,62,119,0
0,59,71,4
0,67,127,24
0,55,75,0
0,59,82,0
0,64,84,0
0,59,126,0
0,59,71,4
0,38,105,0
0,40,112,24
0,69,127,0
0,55,66,0
0,59,75,0
0,64,82,0
0,59,71,4
0,69,127,16
0,70,127,0
0,35,108,0
0,67,127,0
0,71,127,0
0,76,77,0
0,55,82,0
0,59,83,0
0,64,84,0
0,38,105,4
0,55,82,16
0,59,80,0
0,64,82,0
0,38,96,4
0,55,82,16
0,59,82,0
0,64,82,0
0,38,97,4
0,55,82,8
0,59,82,0
0,64,82,0
0,38,97,4
0,35,114,8
0,69,127,0
0,71,127,0
0,76,77,0
0,55,82,0
0,59,92,0
0,64,93,0
0,38,103,4
0,67,127,24
0,55,82,0
0,59,85,0
0,64,82,0
0,38,97,4
0,40,110,72
0,64,127,0
0,76,77,0
0,55,92,0
0,59,92,0
0,64,92,0
0,35,112,4
0,59,71,4
0,59,123,400
0,59,126,64
0,57,117,16
0,55,124,12
0,36,107,64
0,55,77,0
0,60,83,0
0,64,79,0
0,52,117,0
0,35,101,4
0,59,71,4
0,59,71,180
0,55,88,68
0,60,98,0
0,64,93,0
0,55,75,0
0,60,82,0
0,64,84,0
0,52,119,0
0,59,71,4
0,38,96,0
0,36,112,56
0,55,73,0
0,60,92,0
0,64,92,0
0,55,66,0
0,60,75,0
0,64,82,0
0,59,71,4
0,38,103,4
0,35,102,8
0,31,115,0
0,55,62,0
0,60,83,0
0,64,84,0
0,57,123,0
0,59,71,4
0,59,71,8
0,59,126,0
0,59,71,16
0,31,112,0
0,55,94,0
0,60,97,0
0,64,100,0
0,55,75,0
0,60,92,0
0,64,93,0
0,57,124,0
0,38,100,4
0,55,70,24
0,60,85,0
0,64,79,0
0,59,71,4
0,36,107,28
0,55,77,0
0,60,83,0
0,64,79,0
0,55,123,0
0,35,104,4
0,59,71,4
0,59,71,180
0,55,88,68
0,60,98,0
0,64,93,0
0,55,75,0
0,60,82,0
0,64,84,0
0,59,71,4
0,38,104,0
0,36,107,56
0,55,73,0
0,60,92,0
0,64,92,0
0,55,66,0
0,60,75,0
0,64,82,0
0,59,71,4
0,38,100,4
0,31,108,24
0,55,62,0
0,60,83,0
0,64,84,0
0,57,126,0
0,35,104,4
0,59,71,4
0,59,118,8
0,59,71,4
0,31,110,12
0,55,94,0
0,60,97,0
0,64,100,0
0,55,75,0
0,60,92,0
0,64,93,0
0,57,122,0
0,59,71,4
0,38,104,4
0,59,71,12
0,55,70,0
0,60,85,0
0,64,79,0
0,55,119,0
0,36,106,64
0,55,77,0
0,60,83,0
0,64,79,0
0,52,118,0
0,35,98,4
0,59,71,4
0,59,71,180
0,55,88,68
0,60,98,0
0,64,93,0
0,55,75,0
0,60,82,0
0,64,84,0
0,52,117,0
0,59,71,4
0,38,96,4
0,59,71,56
0,36,114,0
0,55,73,0
0,60,92,0
0,64,92,0
0,55,66,0
0,60,75,0
0,64,82,0
0,38,97,4
0,31,112,12
0,55,62,0
0,60,83,0
0,64,84,0
0,57,124,0
0,35,104,4
0,59,71,4
0,59,124,8
0,59,71,4
0,31,110,8
0,55,94,0
0,60,97,0
0,64,100,0
0,55,75,0
0,60,92,0
0,64,93,0
0,57,117,0
0,59,71,4
0,38,99,4
0,55,70,24
0,60,85,0
0,64,79,0
0,59,71,4
0,36,113,8
0,55,77,0
0,60,83,0
0,64,79,0
0,55,120,0
0,35,105,4
0,59,71,4
0,59,71,180
0,55,93,68
0,60,98,0
0,64,100,0
0,55,75,0
0,60,82,0
0,64,84,0
0,55,121,0
0,59,71,4
0,38,102,4
0,59,71,64
0,36,109,0
0,55,78,0
0,60,100,0
0,64,98,0
0,55,66,0
0,60,75,0
0,64,82,0
0,55,117,0
0,38,100,4
0,38,111,24
0,57,62,0
0,62,83,0
0,66,84,0
0,57,124,0
0,35,96,4
0,59,71,4
0,55,122,12
0,59,71,4
0,38,109,44
0,57,97,0
0,62,98,0
0,66,88,0
0,57,75,0
0,62,92,0
0,66,93,0
0,59,71,4
0,57,120,0
0,38,97,4
0,57,70,0
0,62,85,0
0,66,79,0
0,59,71,4
0,43,107,68
0,55,77,0
0,59,83,0
0,62,79,0
0,59,118,0
0,35,103,4
0,59,71,4
0,62,121,24
0,59,71,4
0,59,96,68
0,62,100,0
0,67,93,0
0,55,75,0
0,59,82,0
0,62,84,0
0,59,71,4
0,38,96,0
0,59,96,52
0,62,101,0
0,67,101,0
0,55,66,0
0,59,75,0
0,62,82,0
0,59,71,4
0,38,97,40
0,38,106,0
0,55,82,0
0,59,83,0
0,62,84,0
0,38,105,0
0,55,82,12
0,59,80,0
0,62,82,0
0,38,97,8
0,62,101,4
0,55,82,0
0,59,82,0
0,62,82,0
0,38,96,8
0,55,82,4
0,59,82,0
0,62,82,0
0,38,99,8
0,43,111,0
0,59,85,0
0,62,105,0
0,67,96,0
0,55,82,0
0,59,92,0
0,62,93,0
0,55,82,16
0,59,85,0
0,62,82,0
0,38,103,8
0,38,118,72
0,50,103,0
0,54,113,0
0,57,111,0
0,54,92,0
0,57,92,0
0,62,92,0
0,35,112,4
0,59,71,4
0,38,116,72
0,50,111,0
0,54,111,0
0,57,111,0
0,54,97,0
0,57,97,0
0,62,97,0
0,59,87,4
0,35,112,4
0,43,70,4
0,50,126,272
0,38,116,4
0,43,108,8
0,55,92,0
0,59,88,0
0,62,96,0
0,62,117,0
0,35,104,4
0,59,71,4
0,59,71,136
0,55,77,44
0,59,84,0
0,62,82,0
0,59,71,4
0,38,96,0
0,43,110,72
0,55,72,0
0,59,77,0
0,62,80,0
0,59,123,0
0,59,71,4
0,38,96,4
0,47,109,24
0,59,82,0
0,62,84,0
0,66,85,0
0,35,104,4
0,59,71,4
0,59,71,48
0,59,70,44
0,62,81,0
0,66,72,0
0,50,122,0
0,59,71,4
0,38,102,0
0,47,109,64
0,59,77,0
0,62,80,0
0,66,74,0
0,59,71,4
0,45,110,4
0,57,85,0
0,60,82,0
0,64,81,0
0,62,121,0
0,35,99,4
0,59,71,4
0,59,71,136
0,57,70,44
0,60,78,0
0,64,77,0
0,59,71,4
0,38,98,4
0,45,112,44
0,57,76,0
0,60,74,0
0,64,80,0
0,59,119,0
0,59,71,4
0,38,98,4
0,38,116,24
0,54,87,0
0,57,87,0
0,62,88,0
0,35,113,4
0,59,71,4
0,59,71,48
0,35,113,144
0,59,71,0
0,38,116,0
0,54,87,0
0,57,87,0
0,62,87,0
0,38,113,4
0,59,71,184
0,43,114,144
0,55,77,0
0,59,83,0
0,62,79,0
0,35,113,4
0,59,71,4
0,62,124,176
0,59,71,4
0,55,75,64
0,59,82,0
0,62,84,0
0,62,118,0
0,59,71,4
0,38,102,0
0,43,114,5
0,55,66,0
0,59,75,0
0,62,82,0
0,59,126,0
0,59,71,4
0,38,104,4
0,35,97,24
0,38,115,0
0,55,62,0
0,59,83,0
0,62,84,0
0,62,125,0
0,59,71,4
0,59,71,184
0,55,75,44
0,59,92,0
0,62,93,0
0,59,118,0
0,59,71,4
0,38,103,4
0,38,114,52
0,55,70,0
0,59,85,0
0,62,79,0
0,59,71,4
0,43,113,4
0,55,77,0
0,59,83,0
0,62,79,0
0,62,120,0
0,35,96,4
0,59,71,4
0,59,71,180
0,55,75,44
0,59,82,0
0,62,84,0
0,59,71,4
0,38,97,4
0,55,66,80
0,59,75,0
0,62,82,0
0,62,121,0
0,59,71,4
0,38,97,4
0,38,115,8
0,55,62,0
0,59,83,0
0,62,84,0
0,64,124,0
0,35,98,4
0,59,71,4
0,66,121,0
0,59,71,4
0,43,108,24
0,55,75,0
0,59,92,0
0,62,93,0
0,64,121,0
0,59,71,4
0,38,98,4
0,55,70,52
0,59,85,0
0,62,79,0
0,59,71,4
0,40,108,72
0,55,77,0
0,59,83,0
0,64,79,0
0,35,97,4
0,59,71,4
0,64,127,32
0,62,117,0
0,59,71,4
0,59,71,24
0,67,127,0
0,55,75,0
0,59,82,0
0,64,84,0
0,59,118,0
0,38,98,4
0,59,71,24
0,40,110,0
0,69,127,0
0,55,66,0
0,59,75,0
0,64,82,0
0,69,127,16
0,70,127,0
0,35,107,0
0,67,127,0
0,71,127,0
0,76,77,0
0,55,82,0
0,59,83,0
0,64,84,0
0,38,99,4
0,55,82,16
0,59,80,0
0,64,82,0
0,38,98,4
0,38,97,16
0,55,82,0
0,59,82,0
0,64,82,0
0,55,82,8
0,59,82,0
0,64,82,0
0,38,105,4
0,35,106,8
0,69,127,0
0,71,127,0
0,76,77,0
0,55,82,0
0,59,92,0
0,64,93,0
0,38,102,4
0,67,127,24
0,55,82,0
0,59,85,0
0,64,82,0
0,38,97,4
0,40,110,72
0,64,127,0
0,76,77,0
0,55,92,0
0,59,92,0
0,64,92,0
0,35,112,4
0,59,71,4
0,59,125,528
0,59,126,76
0,57,119,12
0,55,125,8
0,36,110,96
0,55,77,0
0,60,83,0
0,64,79,0
0,52,120,0
0,35,98,4
0,59,71,4
0,59,71,180
0,55,88,68
0,60,98,0
0,64,93,0
0,55,75,0
0,60,82,0
0,64,84,0
0,52,124,0
0,59,71,4
0,38,97,0
0,36,110,56
0,55,73,0
0,60,92,0
0,64,92,0
0,55,66,0
0,60,75,0
0,64,82,0
0,59,71,4
0,38,97,4
0,31,115,24
0,55,62,0
0,60,83,0
0,64,84,0
0,57,117,0
0,35,99,4
0,59,71,4
0,59,120,8
0,59,71,4
0,59,71,4
0,31,109,0
0,55,94,0
0,60,97,0
0,64,100,0
0,55,75,0
0,60,92,0
0,64,93,0
0,57,122,0
0,38,105,4
0,55,70,24
0,60,85,0
0,64,79,0
0,59,71,4
0,36,111,8
0,55,77,0
0,60,83,0
0,64,79,0
0,55,125,0
0,35,99,4
0,59,71,4
0,59,71,180
0,55,88,68
0,60,98,0
0,64,93,0
0,55,75,0
0,60,82,0
0,64,84,0
0,59,71,4
0,38,103,4
0,59,71,56
0,36,111,0
0,55,73,0
0,60,92,0
0,64,92,0
0,55,66,0
0,60,75,0
0,64,82,0
0,38,98,4
0,31,106,24
0,55,62,0
0,60,83,0
0,64,84,0
0,57,122,0
0,35,96,4
0,59,71,4
0,59,71,8
0,59,120,0
0,31,110,8
0,55,94,0
0,60,97,0
0,64,100,0
0,55,75,0
0,60,92,0
0,64,93,0
0,57,122,0
0,59,71,4
0,38,101,4
0,59,71,8
0,55,70,0
0,60,85,0
0,64,79,0
0,55,121,0
0,36,110,72
0,55,77,0
0,60,83,0
0,64,79,0
0,52,120,0
0,35,98,4
0,59,71,4
0,59,71,180
0,55,88,68
0,60,98,0
0,64,93,0
0,55,75,0
0,60,82,0
0,64,84,0
0,52,123,0
0,59,71,4
0,38,98,4
0,36,113,56
0,55,73,0
0,60,92,0
0,64,92,0
0,55,66,0
0,60,75,0
0,64,82,0
0,59,71,4
0,38,98,4
0,31,108,24
0,55,62,0
0,60,83,0
0,64,84,0
0,57,120,0
0,35,104,4
0,59,71,4
0,59,122,8
0,59,71,4
