track,note,velocity,time
2,29,88,0
2,29,0,216
2,29,86,72
2,29,0,72
2,38,101,24
2,38,0,216
2,38,90,72
2,38,0,72
2,31,85,24
2,31,0,216
2,31,88,72
2,31,0,72
2,36,101,24
2,36,0,216
2,36,94,72
2,36,0,72
2,29,102,24
2,29,0,216
2,29,75,72
2,29,0,72
2,38,93,24
2,38,0,216
2,38,92,72
2,38,0,72
2,31,98,24
2,31,0,216
2,31,75,72
2,31,0,72
2,36,91,24
2,36,0,216
2,36,85,72
2,36,0,72
2,29,102,24
2,29,0,216
2,29,83,72
2,29,0,72
2,38,86,24
2,38,0,216
2,38,76,72
2,38,0,72
2,31,93,24
2,31,0,216
2,31,81,72
2,31,0,72
2,36,95,24
2,36,0,216
2,36,83,72
2,36,0,72
2,29,89,24
2,29,0,216
2,29,94,72
2,29,0,72
2,34,88,24
2,34,0,216
2,34,91,72
2,34,0,72
2,41,88,24
2,41,0,144
2,39,96,48
2,39,0,144
2,40,92,48
2,40,0,216
2,40,86,72
2,40,0,72
2,29,89,24
2,29,0,216
2,29,90,72
2,29,0,72
2,38,100,24
2,38,0,216
2,38,91,72
2,38,0,72
2,31,101,24
2,31,0,216
2,31,82,72
2,31,0,72
2,36,104,24
2,36,0,216
2,36,75,72
2,36,0,72
2,29,92,24
2,29,0,216
2,29,90,72
2,29,0,72
2,38,88,24
2,38,0,216
2,38,91,72
2,38,0,72
2,31,97,24
2,31,0,216
2,31,85,72
2,31,0,72
2,36,97,24
2,36,0,216
2,36,83,72
2,36,0,72
2,29,85,24
2,29,0,216
2,29,80,72
2,29,0,72
2,38,103,24
2,38,0,216
2,38,78,72
2,38,0,72
2,31,95,24
2,31,0,216
2,31,80,72
2,31,0,72
2,36,86,24
2,36,0,216
2,36,78,72
2,36,0,72
2,29,96,24
2,29,0,216
2,29,94,72
2,29,0,72
2,34,97,24
2,34,0,216
2,34,94,72
2,34,0,72
2,29,85,24
2,29,0,216
2,29,84,72
2,29,0,72
2,29,104,24
2,29,0,216
2,29,85,72
2,29,0,72
2,31,99,24
2,31,0,216
2,31,77,72
2,31,0,72
2,36,100,24
2,36,0,216
2,36,90,72
2,36,0,72
2,29,87,24
2,29,0,216
2,29,81,72
2,29,0,72
2,38,86,24
2,38,0,216
2,38,90,72
2,38,0,72
2,31,101,24
2,31,0,216
2,31,76,72
2,31,0,72
2,36,95,24
2,36,0,216
2,36,80,72
2,36,0,72
2,29,90,24
2,29,0,216
2,29,79,72
2,29,0,72
2,36,94,24
2,36,0,216
2,36,88,72
2,36,0,72
2,31,90,24
2,31,0,216
2,31,83,72
2,31,0,72
2,36,101,24
2,36,0,216
2,36,90,72
2,36,0,72
2,29,93,24
2,29,0,216
2,29,93,72
2,29,0,72
2,38,92,24
2,38,0,216
2,38,90,72
2,38,0,72
2,31,97,24
2,31,0,216
2,31,77,72
2,31,0,72
2,38,94,24
2,38,0,216
2,38,81,72
2,38,0,72
2,31,78,24
2,31,0,216
2,31,92,72
2,31,0,72
2,26,86,24
2,26,0,144
2,28,101,48
2,28,0,144
2,31,90,48
2,31,0,216
2,31,85,72
2,31,0,72
2,38,102,24
2,38,0,216
2,38,75,72
2,38,0,72
2,36,102,24
2,36,0,216
2,36,94,72
2,36,0,72
2,31,101,24
2,31,0,216
2,31,88,72
2,31,0,72
2,29,99,24
2,29,0,216
2,29,92,72
2,29,0,72
2,38,102,24
2,38,0,216
2,38,87,72
2,38,0,72
2,31,91,24
2,31,0,216
2,31,85,72
2,31,0,72
2,36,89,24
2,36,0,216
2,36,76,72
2,36,0,72
2,29,93,24
2,29,0,216
2,29,78,72
2,29,0,72
2,38,102,24
2,38,0,216
2,38,82,72
2,38,0,72
2,31,99,24
2,31,0,216
2,31,79,72
2,31,0,72
2,36,92,24
2,36,0,216
2,36,91,72
2,36,0,72
2,29,99,24
2,29,0,216
2,29,94,72
2,29,0,72
2,38,91,24
2,38,0,216
2,38,94,72
2,38,0,72
2,31,85,24
2,31,0,216
2,31,87,72
2,31,0,72
2,36,90,24
2,36,0,216
2,36,90,72
2,36,0,72
2,29,100,24
2,29,0,216
2,29,89,72
2,29,0,72
2,34,90,24
2,34,0,216
2,34,86,72
2,34,0,72
2,29,85,24
2,29,0,216
2,29,83,72
2,29,0,72
2,29,97,24
2,29,0,216
2,29,78,72
2,29,0,72
2,29,100,24
2,29,0,216
2,29,89,72
2,29,0,72
2,38,104,24
2,38,0,216
2,38,81,72
2,38,0,72
2,31,94,24
2,31,0,216
2,31,91,72
2,31,0,72
2,36,93,24
2,36,0,216
2,36,93,72
2,36,0,72
2,29,91,24
2,29,0,216
2,29,93,72
2,29,0,72
2,38,94,24
2,38,0,216
2,38,94,72
2,38,0,72
2,31,92,24
2,31,0,216
2,31,85,72
2,31,0,72
2,36,104,24
2,36,0,216
2,36,84,72
2,36,0,72
2,29,100,24
2,29,0,216
2,29,78,72
2,29,0,72
2,38,94,24
2,38,0,216
2,38,94,72
2,38,0,72
2,31,90,24
2,31,0,216
2,31,87,72
2,31,0,72
2,36,104,24
2,36,0,216
2,36,93,72
2,36,0,72
2,29,102,24
2,29,0,216
2,29,83,72
2,29,0,72
2,34,85,24
2,34,0,216
2,34,83,72
2,34,0,72
2,41,85,24
2,41,0,144
2,39,94,48
2,39,0,144
2,40,89,48
2,40,0,216
2,40,94,72
2,40,0,72
2,29,104,24
2,29,0,216
2,29,77,72
2,29,0,72
2,38,97,24
2,38,0,216
2,38,87,72
2,38,0,72
2,31,104,24
2,31,0,216
2,31,87,72
2,31,0,72
2,36,104,24
2,36,0,216
2,36,79,72
2,36,0,72
2,29,93,24
2,29,0,216
2,29,92,72
2,29,0,72
2,38,101,24
2,38,0,216
2,38,76,72
2,38,0,72
2,31,86,24
2,31,0,216
2,31,92,72
2,31,0,72
2,36,100,24
2,36,0,216
2,36,77,72
2,36,0,72
2,29,86,24
2,29,0,216
2,29,76,72
2,29,0,72
2,38,97,24
2,38,0,216
2,38,78,72
2,38,0,72
2,31,96,24
2,31,0,216
2,31,85,72
2,31,0,72
2,36,99,24
2,36,0,216
2,36,79,72
2,36,0,72
2,29,94,24
2,29,0,216
2,29,86,72
2,29,0,72
2,34,92,24
2,34,0,216
2,34,84,72
2,34,0,72
2,29,88,24
2,29,0,216
2,29,87,72
2,29,0,72
2,29,101,24
2,29,0,216
2,29,83,72
2,29,0,72
2,31,103,24
2,31,0,216
2,31,91,72
2,31,0,72
2,36,95,24
2,36,0,216
2,36,84,72
2,36,0,72
2,29,99,24
2,29,0,216
2,29,75,72
2,29,0,72
2,38,94,24
2,38,0,216
2,38,80,72
2,38,0,72
2,31,90,24
2,31,0,216
2,31,88,72
2,31,0,72
2,36,95,24
2,36,0,216
2,36,83,72
2,36,0,72
2,29,85,24
2,29,0,216
2,29,82,72
2,29,0,72
2,29,91,24
2,29,0,216
2,29,94,72
2,29,0,72
2,31,98,24
2,31,0,216
2,31,88,72
2,31,0,72
2,36,92,24
2,36,0,216
2,36,88,72
2,36,0,72
2,29,90,24
2,29,0,216
2,29,76,72
2,29,0,72
2,38,88,24
2,38,0,216
2,38,88,72
2,38,0,72
2,31,104,24
2,31,0,216
2,31,80,72
2,31,0,72
2,38,94,24
2,38,0,216
2,38,86,72
2,38,0,72
2,31,89,24
2,31,0,216
2,31,78,72
2,31,0,72
2,26,85,24
2,26,0,144
2,28,85,48
2,28,0,144
2,31,99,48
2,31,0,216
2,31,82,72
2,31,0,72
2,31,103,24
2,31,0,216
2,31,78,72
2,31,0,72
2,36,89,24
2,36,0,216
2,36,75,72
2,36,0,72
2,36,93,24
2,36,0,216
2,36,88,72
2,36,0,72
2,29,86,24
2,29,0,216
2,29,84,72
2,29,0,72
2,38,97,24
2,38,0,216
2,38,91,72
2,38,0,72
2,31,98,24
2,31,0,216
2,31,81,72
2,31,0,72
2,36,85,24
2,36,0,216
2,36,93,72
2,36,0,72
2,29,96,24
2,29,0,216
2,29,75,72
2,29,0,72
2,38,87,24
2,38,0,216
2,38,83,72
2,38,0,72
2,31,96,24
2,31,0,216
2,31,93,72
2,31,0,72
2,36,87,24
2,36,0,216
2,36,86,72
2,36,0,72
2,29,98,24
2,29,0,216
2,29,76,72
2,29,0,72
2,38,103,24
2,38,0,216
2,38,83,72
2,38,0,72
2,31,101,24
2,31,0,216
2,31,86,72
2,31,0,72
2,36,99,24
2,36,0,216
2,36,82,72
2,36,0,72
2,29,103,24
2,29,0,216
2,29,78,72
2,29,0,72
2,34,103,24
2,34,0,216
2,34,79,72
2,34,0,72
2,29,88,24
2,29,0,216
2,29,80,72
2,29,0,72
2,29,102,24
2,29,0,216
2,29,90,72
2,29,0,72
3,60,70,0
3,57,70,0
3,65,70,0
3,65,0,128
3,57,0,0
3,60,0,0
3,50,64,64
3,50,0,48
3,62,70,48
3,60,70,0
3,65,70,0
3,69,70,0
3,69,0,240
3,62,0,0
3,60,0,0
3,65,0,0
3,62,70,48
3,58,70,0
3,65,70,0
3,67,70,0
3,67,0,320
3,62,0,0
3,58,0,0
3,65,0,0
3,60,70,64
3,58,70,0
3,64,70,0
3,67,70,0
3,67,0,320
3,60,0,0
3,58,0,0
3,64,0,0
3,60,70,64
3,57,70,0
3,65,70,0
3,65,0,320
3,57,0,0
3,60,0,0
3,62,70,64
3,60,70,0
3,65,70,0
3,69,70,0
3,69,0,320
3,62,0,0
3,60,0,0
3,65,0,0
3,62,70,64
3,58,70,0
3,65,70,0
3,67,70,0
3,67,0,320
3,62,0,0
3,58,0,0
3,65,0,0
3,60,70,64
3,58,70,0
3,64,70,0
3,67,70,0
3,67,0,320
3,60,0,0
3,58,0,0
3,64,0,0
3,60,70,160
3,57,70,0
3,65,70,0
3,65,0,240
3,57,0,0
3,60,0,0
3,62,70,48
3,60,70,0
3,65,70,0
3,69,70,0
3,69,0,320
3,62,0,0
3,60,0,0
3,65,0,0
3,62,70,64
3,58,70,0
3,65,70,0
3,67,70,0
3,67,0,320
3,62,0,0
3,58,0,0
3,65,0,0
3,60,70,64
3,58,70,0
3,64,70,0
3,67,70,0
3,67,0,320
3,60,0,0
3,58,0,0
3,64,0,0
3,53,57,64
3,53,0,48
3,60,70,48
3,57,70,0
3,65,70,0
3,65,0,240
3,57,0,0
3,60,0,0
3,62,70,48
3,58,70,0
3,65,70,0
3,65,0,320
3,58,0,0
3,62,0,0
3,60,70,64
3,57,70,0
3,65,70,0
3,65,0,144
3,57,0,0
3,60,0,0
3,58,70,48
3,55,70,0
3,63,70,0
3,63,0,144
3,55,0,0
3,58,0,0
3,59,70,48
3,56,70,0
3,64,70,0
3,64,0,320
3,56,0,0
3,59,0,0
3,60,70,64
3,57,70,0
3,65,70,0
3,65,0,320
3,57,0,0
3,60,0,0
3,50,55,64
3,50,0,48
3,62,70,48
3,60,70,0
3,65,70,0
3,69,70,0
3,69,0,240
3,62,0,0
3,60,0,0
3,65,0,0
3,62,70,48
3,58,70,0
3,65,70,0
3,67,70,0
3,67,0,320
3,62,0,0
3,58,0,0
3,65,0,0
3,60,70,64
3,58,70,0
3,64,70,0
3,67,70,0
3,67,0,320
3,60,0,0
3,58,0,0
3,64,0,0
3,60,70,64
3,57,70,0
3,65,70,0
3,65,0,320
3,57,0,0
3,60,0,0
3,62,70,64
3,60,70,0
3,65,70,0
3,69,70,0
3,69,0,320
3,62,0,0
3,60,0,0
3,65,0,0
3,55,61,64
3,55,0,48
3,62,70,48
3,58,70,0
3,65,70,0
3,67,70,0
3,67,0,240
3,62,0,0
3,58,0,0
3,65,0,0
3,60,70,48
3,58,70,0
3,64,70,0
3,67,70,0
3,67,0,320
3,60,0,0
3,58,0,0
3,64,0,0
3,60,70,64
3,57,70,0
3,65,70,0
3,65,0,320
3,57,0,0
3,60,0,0
3,62,70,64
3,60,70,0
3,65,70,0
3,69,70,0
3,69,0,320
3,62,0,0
3,60,0,0
3,65,0,0
3,62,70,64
3,58,70,0
3,65,70,0
3,67,70,0
3,67,0,320
3,62,0,0
3,58,0,0
3,65,0,0
3,60,70,64
3,58,70,0
3,64,70,0
3,67,70,0
3,67,0,320
3,60,0,0
3,58,0,0
3,64,0,0
3,60,70,0
3,57,70,0
3,65,70,0
3,65,0,320
3,57,0,0
3,60,0,0
3,62,70,64
3,58,70,0
3,65,70,0
3,65,0,320
3,58,0,0
3,62,0,0
3,60,70,24
3,57,70,0
3,65,70,0
3,65,0,380
3,57,0,0
3,60,0,0
3,60,80,196
3,57,80,0
3,65,80,0
3,65,0,128
3,57,0,0
3,60,0,0
3,62,70,24
3,58,70,0
3,65,70,0
3,67,70,0
3,67,0,224
3,62,0,0
3,58,0,0
3,65,0,0
3,60,70,64
3,55,70,0
3,64,70,0
3,64,0,320
3,55,0,0
3,60,0,0
3,63,70,64
3,60,70,0
3,65,70,0
3,69,70,0
3,69,0,248
3,63,0,0
3,60,0,0
3,65,0,0
3,62,70,64
3,60,70,0
3,65,70,0
3,69,70,0
3,69,0,32
3,62,0,0
3,60,0,0
3,65,0,0
3,62,70,64
3,58,70,0
3,65,70,0
3,67,70,0
3,67,0,320
3,62,0,0
3,58,0,0
3,65,0,0
3,48,62,64
3,48,0,48
3,60,70,48
3,58,70,0
3,64,70,0
3,67,70,0
3,67,0,216
3,60,0,0
3,58,0,0
3,64,0,0
3,60,70,48
3,57,70,0
3,65,70,0
3,65,0,164
3,57,0,0
3,60,0,0
3,60,80,196
3,57,80,0
3,65,80,0
3,65,0,80
3,57,0,0
3,60,0,0
3,55,64,64
3,55,0,48
3,67,70,48
3,65,70,0
3,70,70,0
3,74,70,0
3,74,0,120
3,67,0,0
3,65,0,0
3,70,0,0
3,60,70,48
3,58,70,0
3,64,70,0
3,67,70,0
3,67,0,200
3,60,0,0
3,58,0,0
3,64,0,0
3,53,61,64
3,53,0,48
3,60,70,48
3,57,70,0
3,65,70,0
3,65,0,24
3,57,0,0
3,60,0,0
3,62,70,48
3,60,70,0
3,65,70,0
3,69,70,0
3,69,0,56
3,62,0,0
3,60,0,0
3,65,0,0
3,62,70,64
3,59,70,0
3,65,70,0
3,67,70,0
3,67,0,80
3,62,0,0
3,59,0,0
3,65,0,0
3,62,70,0
3,59,70,0
3,65,70,0
3,67,70,0
3,67,0,8
3,62,0,0
3,59,0,0
3,65,0,0
3,62,74,0
3,59,74,0
3,65,74,0
3,67,74,0
3,67,0,24
3,62,0,0
3,59,0,0
3,65,0,0
3,62,70,96
3,59,70,0
3,65,70,0
3,67,70,0
3,67,0,80
3,62,0,0
3,59,0,0
3,65,0,0
3,62,70,96
3,59,70,0
3,65,70,0
3,67,70,0
3,67,0,128
3,62,0,0
3,59,0,0
3,65,0,0
3,62,70,160
3,59,70,0
3,65,70,0
3,67,70,0
3,67,0,336
3,62,0,0
3,59,0,0
3,65,0,0
3,60,70,0
3,58,70,0
3,64,70,0
3,67,70,0
3,67,0,24
3,60,0,0
3,58,0,0
3,64,0,0
3,60,70,0
3,57,70,0
3,65,70,0
3,65,0,320
3,57,0,0
3,60,0,0
3,62,70,64
3,60,70,0
3,65,70,0
3,69,70,0
3,69,0,320
3,62,0,0
3,60,0,0
3,65,0,0
3,62,70,64
3,58,70,0
3,65,70,0
3,67,70,0
3,67,0,320
3,62,0,0
3,58,0,0
3,65,0,0
3,48,64,64
3,48,0,48
3,60,70,48
3,58,70,0
3,64,70,0
3,67,70,0
3,67,0,240
3,60,0,0
3,58,0,0
3,64,0,0
3,60,70,48
3,57,70,0
3,65,70,0
3,65,0,320
3,57,0,0
3,60,0,0
3,62,70,64
3,60,70,0
3,65,70,0
3,69,70,0
3,69,0,320
3,62,0,0
3,60,0,0
3,65,0,0
3,62,70,64
3,58,70,0
3,65,70,0
3,67,70,0
3,67,0,320
3,62,0,0
3,58,0,0
3,65,0,0
3,60,70,160
3,58,70,0
3,64,70,0
3,67,70,0
3,67,0,240
3,60,0,0
3,58,0,0
3,64,0,0
3,60,70,48
3,57,70,0
