track,note,velocity,time
1,78,88,1343
1,78,88,0
1,79,88,575
1,76,88,0
1,76,88,0
1,78,88,576
1,75,88,0
1,71,127,48
1,73,127,288
1,75,127,256
1,75,127,16
1,76,127,288
1,77,127,48
1,78,88,192
1,78,88,64
1,79,88,576
1,76,88,16
1,76,88,48
1,78,88,576
1,75,88,0
1,71,88,768
1,78,88,11904
1,78,88,0
1,79,88,0
1,76,88,0
1,76,88,0
1,78,88,576
1,75,88,0
1,71,88,48
1,73,88,288
1,75,88,256
1,75,88,16
1,76,88,288
1,77,88,48
1,78,88,192
1,78,88,64
1,79,88,576
1,76,88,16
1,76,88,48
1,78,88,576
1,75,88,0
1,71,88,768
1,78,88,11760
1,78,88,0
1,78,88,0
1,79,88,0
1,76,88,0
1,76,88,0
1,78,88,576
1,75,88,0
1,71,88,48
1,73,88,288
1,75,88,256
1,75,88,16
1,76,88,288
1,77,88,48
1,78,88,192
1,78,88,64
1,79,88,576
1,76,88,16
1,76,88,48
1,78,88,576
1,75,88,0
1,71,88,768
1,78,64,1504
1,74,64,0
1,81,64,0
1,81,64,32
1,74,64,0
1,78,64,0
1,78,64,128
1,81,64,0
1,74,64,0
1,78,64,128
1,74,64,0
1,81,64,0
1,78,64,128
1,74,64,0
1,81,64,0
1,74,64,128
1,81,64,0
1,78,64,0
1,78,64,128
1,74,64,0
1,81,64,0
1,81,64,128
1,74,64,0
1,78,64,0
1,79,64,128
1,76,64,0
1,72,64,0
1,72,64,128
1,76,64,0
1,79,64,0
1,72,64,128
1,79,64,0
1,76,64,0
1,72,64,128
1,79,64,0
1,76,64,0
1,79,64,128
1,76,64,0
1,81,64,0
1,81,64,128
1,79,64,0
1,76,64,0
1,81,64,128
1,79,64,0
1,76,64,0
1,81,64,128
1,76,64,0
1,79,64,0
1,78,64,128
1,81,64,0
1,74,64,0
1,78,64,128
1,74,64,0
1,81,64,0
1,74,64,128
1,78,64,0
1,81,64,0
1,74,64,128
1,81,64,0
1,78,64,0
1,81,64,144
1,78,64,0
1,74,64,0
1,81,64,128
1,78,64,0
1,74,64,0
1,74,64,128
1,81,64,0
1,78,64,0
1,74,64,144
1,78,64,0
1,81,64,0
1,79,64,128
1,76,64,0
1,72,64,0
1,72,64,128
1,76,64,0
1,79,64,0
1,79,64,128
1,76,64,0
1,72,64,0
1,79,64,128
1,76,64,0
1,72,64,0
1,79,64,144
1,76,64,0
1,81,64,0
1,81,64,128
1,76,64,0
1,79,64,0
1,79,64,144
1,76,64,0
1,81,64,0
1,81,64,128
1,76,64,0
1,79,64,0
1,74,64,128
1,81,64,0
1,78,64,0
1,78,64,112
1,81,64,0
1,74,64,0
1,74,64,128
1,81,64,0
1,78,64,0
1,74,64,144
1,81,64,0
1,78,64,0
1,74,64,144
1,78,64,0
1,81,64,0
1,74,64,128
1,81,64,0
1,78,64,0
1,74,64,144
1,81,64,0
1,78,64,0
1,74,64,144
1,81,64,0
1,78,64,0
1,76,64,144
1,72,64,0
1,79,64,0
1,72,64,128
1,79,64,0
1,76,64,0
1,72,86,144
1,76,86,0
1,72,64,144
1,76,64,0
1,76,64,0
1,81,64,96
1,76,64,0
1,79,64,0
1,76,64,144
1,81,64,0
1,79,64,0
1,81,64,144
1,79,64,0
1,76,64,0
1,74,64,144
1,78,64,0
1,81,64,0
1,78,64,128
1,74,64,0
1,81,64,0
1,74,64,144
1,81,64,0
1,78,64,0
1,74,64,128
1,78,64,0
1,81,64,0
1,74,64,144
1,81,64,0
1,78,64,0
1,74,64,144
1,81,64,0
1,78,64,0
1,74,64,144
1,81,64,0
1,78,64,0
1,74,64,128
1,81,64,0
1,78,64,0
1,72,64,128
1,76,64,0
1,79,64,0
1,76,64,128
1,72,64,0
1,79,64,0
1,76,64,144
1,79,64,0
1,72,64,0
1,76,64,128
1,72,64,0
1,79,64,0
1,79,64,128
1,76,64,0
1,81,64,0
1,76,64,128
1,79,64,0
1,81,64,0
1,76,64,144
1,79,64,0
1,81,64,0
1,79,64,128
1,76,64,0
1,81,64,0
1,75,64,128
1,71,64,0
1,78,64,0
1,78,64,112
1,71,64,0
1,75,64,0
1,78,64,96
1,75,64,0
1,71,64,0
1,78,64,144
1,75,64,0
1,71,64,0
1,78,64,144
1,75,64,0
1,71,64,0
1,78,64,128
1,71,64,0
1,75,64,0
1,75,64,128
1,78,64,0
1,71,64,0
1,71,64,128
1,75,64,0
1,78,64,0
1,78,64,144
1,71,64,0
1,75,64,0
1,78,64,128
1,75,64,0
1,71,64,0
1,71,64,144
1,75,64,0
1,78,64,0
1,78,64,128
1,71,64,0
1,75,64,0
1,71,64,128
1,75,64,0
1,78,64,0
1,78,64,128
1,71,64,0
1,75,64,0
1,75,64,144
1,71,64,0
1,78,64,0
1,75,64,144
1,71,64,0
1,78,64,0
1,78,88,128
1,78,88,0
1,79,88,0
1,76,88,0
1,76,88,0
1,78,88,576
1,75,88,0
1,71,88,48
1,73,88,288
1,75,88,256
1,75,88,16
1,76,88,288
1,77,88,48
1,78,88,192
1,78,88,64
1,79,88,576
1,76,88,16
1,76,88,48
1,78,88,576
1,75,88,0
1,71,88,768
1,78,88,11760
1,54,64,0
1,78,88,0
1,79,88,575
1,76,88,0
1,76,88,0
1,78,88,576
1,75,88,0
1,71,88,48
1,73,88,288
1,75,88,256
1,75,88,16
1,76,88,288
1,77,88,48
1,78,88,192
1,78,88,64
1,79,88,576
1,76,88,16
1,76,88,48
1,78,88,576
1,75,88,0
1,71,88,768
1,59,88,24576
1,64,88,192
1,67,88,0
1,71,88,0
1,52,88,832
1,78,88,18048
1,78,88,0
1,79,88,575
1,76,88,0
1,76,88,0
1,78,88,576
1,75,88,0
1,71,88,48
1,73,88,288
1,75,88,256
1,75,88,16
1,76,88,288
1,77,88,48
1,78,88,192
1,78,88,64
1,79,88,576
1,76,88,16
1,76,88,48
1,78,88,576
1,75,88,0
1,71,88,768
1,64,88,384
1,68,88,0
1,71,88,0
1,80,88,27648
1,80,88,0
1,81,88,0
1,78,88,0
1,78,88,0
1,80,88,576
1,77,88,0
1,73,127,48
1,75,127,288
1,77,127,256
1,77,127,16
1,78,127,288
1,79,127,48
1,80,88,192
1,80,88,0
1,81,88,0
1,78,88,0
1,78,88,0
1,80,88,576
1,77,88,0
1,73,127,48
1,75,127,288
1,77,127,256
1,77,127,16
1,78,127,288
1,79,127,48
1,80,88,192
1,80,88,0
1,81,88,0
1,78,88,0
1,78,88,0
1,80,88,576
1,77,88,0
1,73,127,48
1,75,127,288
1,77,127,256
1,77,127,16
1,78,127,288
1,79,127,48
1,80,88,192
1,80,88,0
1,81,88,0
1,78,88,0
1,78,88,0
1,80,88,576
1,77,88,0
1,73,127,48
1,75,127,288
1,77,127,256
1,77,127,16
1,78,127,288
1,79,127,48
1,80,127,192
1,64,127,112
1,68,127,0
1,71,127,0
1,76,127,0
1,68,127,0
1,76,127,0
1,71,127,16
1,71,127,16
1,68,127,0
1,76,127,16
1,68,127,32
1,71,127,16
1,64,127,0
1,76,127,16
1,68,127,32
1,62,127,16
1,69,127,0
1,69,127,16
1,62,127,16
1,67,127,0
1,69,127,0
1,66,127,176
1,66,127,16
1,62,127,0
1,66,127,16
1,74,127,0
1,66,127,32
1,69,127,0
1,62,127,16
1,69,127,16
1,66,127,0
1,62,127,0
1,66,127,32
1,61,127,0
1,68,127,16
1,61,127,32
1,66,127,0
1,68,127,0
1,66,127,16
1,65,127,80
1,68,127,16
1,73,127,48
1,65,127,16
1,73,127,0
1,68,127,32
1,73,127,16
1,65,127,0
1,80,127,48
1,73,127,0
1,65,127,0
1,73,127,0
1,75,127,192
1,77,127,288
1,77,127,16
1,78,127,288
1,79,127,48
1,68,127,240
1,64,127,0
1,59,127,0
1,68,127,16
1,68,127,16
1,76,127,16
1,71,127,0
1,68,127,32
1,71,127,0
1,76,127,0
1,68,127,48
1,71,127,0
1,76,127,0
1,64,127,32
1,68,127,0
1,71,127,16
1,68,127,32
1,62,127,0
1,69,127,16
1,69,127,0
1,66,127,160
1,69,127,16
1,62,127,0
1,66,127,0
1,74,127,16
1,66,127,16
1,69,127,16
1,74,127,16
1,66,127,0
1,69,127,32
1,74,127,0
1,66,127,0
1,73,127,96
1,68,127,16
1,66,127,0
1,66,127,48
1,61,127,0
1,68,127,0
1,73,127,32
1,65,127,48
1,68,127,16
1,73,127,0
1,65,127,16
1,73,127,32
1,68,127,0
1,65,127,0
1,73,127,16
1,68,127,0
1,73,127,128
1,58,127,256
1,59,127,16
1,60,127,0
1,61,127,0
1,62,127,16
1,64,127,16
1,65,127,0
1,67,127,16
1,69,127,16
1,71,127,0
1,72,127,16
1,74,127,0
1,76,127,16
1,77,127,0
1,79,127,0
1,81,127,0
1,83,127,0
1,84,127,0
1,86,127,16
1,88,127,0
1,89,127,0
1,91,127,16
1,93,127,32
1,93,127,16
1,95,127,0
2,38,127,634
2,33,127,0
2,42,127,0
2,38,127,0
2,33,127,0
2,42,127,0
2,33,127,0
2,38,127,48
2,42,127,0
2,38,127,64
2,33,127,48
2,42,127,0
2,38,127,0
2,36,127,48
2,31,127,0
2,42,127,0
2,36,127,32
2,31,127,0
2,42,127,0
2,31,127,0
2,36,127,48
2,40,127,0
2,36,127,80
2,31,127,48
2,40,127,0
2,36,127,16
2,35,127,48
2,30,127,0
2,40,127,0
2,35,127,16
2,30,127,0
2,40,127,0
2,29,127,288
2,35,127,32
2,39,127,0
2,35,127,48
2,39,127,48
2,29,127,192
2,35,127,0
2,38,127,464
2,42,127,0
2,38,127,0
2,42,127,0
2,33,127,288
2,38,127,0
2,42,127,0
2,38,127,64
2,33,127,48
2,42,127,0
2,38,127,0
2,36,127,48
2,42,127,0
2,36,127,32
2,42,127,0
2,31,127,304
2,36,127,0
2,40,127,0
2,36,127,80
2,31,127,48
2,40,127,0
2,36,127,16
2,35,127,48
2,40,127,0
2,35,127,16
2,40,127,0
2,29,127,288
2,35,127,32
2,39,127,0
2,35,127,48
2,39,127,48
2,29,127,192
2,35,127,0
2,38,88,0
2,38,88,0
2,33,88,287
2,38,88,0
2,38,88,64
2,33,88,192
2,38,88,0
2,36,88,48
2,36,88,16
2,31,88,304
2,36,88,0
2,36,88,80
2,31,88,192
2,36,88,16
2,35,88,128
2,35,88,16
2,29,88,288
2,35,88,32
2,35,88,48
2,29,88,384
2,35,88,0
2,38,88,464
2,38,88,48
2,33,88,288
2,38,88,0
2,33,88,96
2,38,88,32
2,36,88,48
2,36,88,48
2,31,88,288
2,36,88,16
2,36,88,64
2,31,88,192
2,36,88,80
2,35,88,48
2,35,88,16
2,29,88,288
2,35,88,16
2,35,88,64
2,29,88,16
2,35,88,192
2,33,88,6144
2,33,88,64
2,35,88,16
2,35,88,64
2,36,88,48
2,36,88,48
2,35,88,80
2,35,88,112
2,28,88,80
2,38,88,0
2,38,88,0
2,33,88,287
2,38,88,0
2,38,88,64
2,33,88,192
2,38,88,0
2,36,88,48
2,36,88,16
2,31,88,304
2,36,88,0
2,36,88,80
2,31,88,192
2,36,88,16
2,35,88,128
2,35,88,16
2,29,88,288
2,35,88,32
2,35,88,48
2,29,88,384
2,35,88,0
2,38,88,464
2,38,88,48
2,33,88,288
2,38,88,0
2,33,88,96
2,38,88,32
2,36,88,48
2,36,88,48
2,31,88,288
2,36,88,16
2,36,88,64
2,31,88,192
2,36,88,80
2,35,88,48
2,35,88,16
2,29,88,288
2,35,88,16
2,35,88,64
2,29,88,16
2,35,88,192
2,38,88,0
2,33,88,16
2,38,88,32
2,33,88,16
2,38,88,0
2,33,88,16
2,38,88,32
2,33,88,32
2,38,88,48
2,33,88,32
2,38,88,48
2,33,88,32
2,38,88,32
2,33,88,32
2,38,88,16
2,33,88,16
2,36,88,16
2,31,88,32
2,36,88,16
2,31,88,48
2,36,88,32
2,31,88,32
2,36,88,48
2,31,88,32
2,36,88,32
2,31,88,32
2,36,88,32
2,31,88,32
2,36,88,32
2,31,88,48
2,36,88,32
2,31,88,32
2,38,88,32
2,33,88,16
2,38,88,32
2,33,88,32
2,38,88,32
2,33,88,32
2,38,88,32
2,33,88,32
2,38,88,32
2,33,88,32
2,38,88,32
2,33,88,32
2,38,88,48
2,33,88,32
2,38,88,48
2,33,88,32
2,36,88,48
2,31,88,32
2,36,88,32
2,31,88,32
2,36,88,32
2,31,88,32
2,36,88,48
2,31,88,32
2,36,88,48
2,31,88,32
2,36,88,48
2,31,88,32
2,36,88,32
2,31,88,32
2,36,88,32
2,31,88,32
2,38,88,48
2,33,88,16
2,38,88,32
2,33,88,32
2,38,88,48
2,33,88,32
2,38,88,48
2,33,88,32
2,38,88,32
2,33,88,16
2,38,88,16
2,33,88,16
2,38,88,32
2,33,88,32
2,38,88,48
2,33,88,32
2,36,88,32
2,31,88,32
2,36,88,32
2,31,88,32
2,36,88,32
2,31,88,48
2,36,88,32
2,31,88,32
2,36,88,48
2,31,88,32
2,36,88,48
2,31,88,32
2,36,88,48
2,31,88,32
2,36,88,48
2,31,88,16
2,38,88,32
2,33,88,32
2,38,88,32
2,33,88,16
2,38,88,48
2,33,88,16
2,38,88,48
2,33,88,16
2,38,88,48
2,33,88,16
2,38,88,48
2,33,88,0
2,38,88,32
2,33,88,16
2,38,88,32
2,33,88,16
2,36,88,32
2,31,88,32
2,36,88,16
2,31,88,32
2,36,88,16
2,31,88,32
2,36,88,32
2,31,88,16
2,36,88,48
2,31,88,32
2,36,88,48
2,31,88,32
2,36,88,48
2,31,88,0
2,36,88,32
2,31,88,32
2,35,88,16
2,29,88,16
2,35,88,0
2,29,88,32
2,35,88,16
2,29,88,32
2,35,88,32
2,29,88,48
2,35,88,16
2,29,88,32
2,35,88,16
2,29,88,32
2,35,88,16
2,29,88,32
2,35,88,16
2,29,88,32
2,30,88,96
2,30,86,32
2,31,88,0
2,31,88,32
2,32,88,48
2,32,88,32
2,33,88,32
2,33,88,32
2,35,88,32
2,35,88,48
2,36,88,32
2,36,88,48
2,38,88,32
2,38,88,48
2,40,88,32
2,40,86,48
2,38,88,0
2,38,88,0
2,33,88,287
2,38,88,0
2,38,88,64
2,33,88,192
2,38,88,0
2,36,88,48
2,36,88,16
2,31,88,304
2,36,88,0
2,36,88,80
2,31,88,192
2,36,88,16
2,35,88,128
2,35,88,16
2,29,88,288
2,35,88,32
2,35,88,48
2,29,88,384
2,35,88,0
2,38,88,464
2,38,88,48
2,33,88,288
2,38,88,0
2,33,88,96
2,38,88,32
2,36,88,48
2,36,88,48
2,31,88,288
2,36,88,16
2,36,88,64
2,31,88,192
2,36,88,80
2,35,88,48
2,35,88,16
2,29,88,288
2,35,88,16
2,35,88,64
2,29,88,16
2,35,88,192
2,38,88,0
2,38,88,0
2,33,88,287
2,38,88,0
2,38,88,64
2,33,88,192
2,38,88,0
2,36,88,48
2,36,88,32
2,31,88,304
2,36,88,0
2,36,88,80
2,31,88,192
2,36,88,16
2,35,88,128
2,35,88,16
2,29,88,288
2,35,88,32
2,35,88,48
2,29,88,384
2,35,88,0
2,38,88,464
2,38,88,48
2,33,88,288
2,38,88,0
2,33,88,96
2,38,88,32
2,36,88,48
2,36,88,48
2,31,88,288
2,36,88,16
2,36,88,64
2,31,88,192
2,36,88,80
2,35,88,48
2,35,88,16
2,29,88,288
2,35,88,16
2,35,88,64
2,29,88,16
2,35,88,192
2,38,88,192
2,36,88,0
2,38,88,0
2,36,88,0
2,48,88,0
2,43,88,0
2,36,88,0
2,38,88,0
2,33,86,0
2,35,86,0
2,33,86,0
2,38,86,0
2,36,88,0
2,38,88,0
2,36,88,0
2,48,88,0
2,43,88,0
2,36,88,0
2,38,88,0
2,33,86,0
2,35,86,0
2,33,86,0
2,38,86,0
2,36,88,0
2,38,88,0
2,36,88,0
2,48,88,0
2,43,88,0
2,36,88,0
2,38,88,0
2,33,88,32
2,38,88,32
2,33,88,32
2,38,88,16
2,33,88,16
2,35,88,0
2,38,88,16
2,36,88,96
2,31,88,32
2,36,88,0
