track,note,velocity,time
0,31,82,1536
0,55,50,0
0,67,62,0
0,74,66,0
0,55,70,0
0,36,70,4
0,67,59,0
0,70,32,0
0,55,73,0
0,67,51,72
0,62,61,192
0,44,105,0
0,31,60,88
0,67,69,0
0,36,50,12
0,55,49,116
0,67,63,0
0,70,69,0
0,67,42,0
0,31,72,4
0,36,89,8
0,70,57,84
0,67,42,4
0,44,116,0
0,74,80,4
0,70,54,0
0,67,30,4
0,70,59,0
0,51,45,0
0,67,48,112
0,36,87,16
0,76,71,0
0,67,52,0
0,72,68,0
0,72,39,0
0,60,55,0
0,48,59,0
0,51,72,0
0,55,82,8
0,36,89,0
0,76,49,0
0,60,59,40
0,44,107,0
0,60,61,180
0,48,52,4
0,36,60,0
0,64,59,112
0,48,52,12
0,60,38,4
0,36,93,0
0,67,54,28
0,44,100,4
0,52,54,4
0,51,35,0
0,53,72,8
0,53,49,4
0,69,61,0
0,65,44,4
0,51,80,0
0,29,85,4
0,69,50,0
0,77,58,0
0,36,91,0
0,69,69,64
0,65,39,8
0,60,62,12
0,44,100,12
0,29,59,60
0,69,66,0
0,36,70,0
0,65,49,4
0,75,41,12
0,65,49,40
0,29,72,4
0,53,54,4
0,72,81,0
0,69,39,0
0,65,38,4
0,69,55,0
0,36,93,0
0,72,75,168
0,65,49,4
0,69,60,0
0,69,59,0
0,51,42,0
0,33,72,8
0,44,110,0
0,65,73,40
0,74,86,0
0,70,54,4
0,70,54,16
0,74,60,8
0,65,52,8
0,46,64,0
0,58,50,4
0,51,78,0
0,36,91,0
0,34,85,4
0,53,80,0
0,58,72,12
0,44,113,0
0,46,57,0
0,58,56,0
0,36,85,4
0,62,55,0
0,58,57,12
0,46,60,0
0,36,95,0
0,51,37,4
0,65,54,0
0,44,107,0
0,59,91,48
0,63,66,12
0,75,43,0
0,70,49,4
0,67,52,0
0,72,59,0
0,51,74,4
0,36,91,4
0,55,74,0
0,36,107,0
0,51,62,4
0,67,74,0
0,63,46,0
0,63,57,12
0,67,65,0
0,60,53,44
0,44,119,12
0,70,76,176
0,67,71,0
0,36,87,4
0,63,46,156
0,51,63,8
0,36,102,8
0,70,69,112
0,67,69,0
0,36,74,72
0,70,78,0
0,67,56,0
0,67,49,4
0,51,36,4
0,44,119,0
0,70,69,52
0,72,78,0
0,64,46,0
0,51,30,12
0,67,58,12
0,55,89,4
0,76,62,0
0,36,76,4
0,60,49,0
0,48,68,0
0,51,51,8
0,36,110,0
0,60,72,8
0,44,116,4
0,48,46,92
0,60,28,0
0,36,59,4
0,36,91,4
0,70,81,12
0,64,59,0
0,48,49,4
0,64,54,0
0,36,74,4
0,60,39,0
0,36,107,4
0,67,71,16
0,64,49,4
0,44,113,16
0,67,55,4
0,31,89,0
0,51,38,0
0,77,51,32
0,69,68,0
0,59,91,8
0,29,89,4
0,65,81,0
0,53,85,0
0,53,62,4
0,36,107,8
0,65,73,100
0,65,80,116
0,51,37,0
0,44,119,4
0,60,60,4
0,29,53,8
0,65,62,0
0,69,70,0
0,36,91,0
0,59,105,4
0,53,65,52
0,65,60,0
0,29,85,4
0,36,105,0
0,65,78,96
0,51,48,8
0,77,93,108
0,65,64,4
0,69,54,0
0,69,63,0
0,59,105,0
0,72,73,4
0,44,102,4
0,36,85,0
0,53,82,88
0,53,70,4
0,41,73,0
0,29,68,4
0,36,110,12
0,60,60,52
0,44,107,20
0,75,72,56
0,29,52,8
0,55,70,8
0,43,62,0
0,74,70,92
0,65,55,8
0,33,74,8
0,45,58,4
0,57,65,0
0,72,61,4
0,70,59,16
0,44,58,4
0,56,51,0
0,36,110,0
0,69,59,4
0,44,78,0
0,32,76,0
0,69,72,72
0,59,57,12
0,74,74,8
0,70,62,4
0,31,91,0
0,67,72,0
0,55,89,4
0,55,61,8
0,82,83,0
0,70,62,0
0,51,110,0
0,36,110,0
0,43,62,4
0,74,79,0
0,74,49,4
0,82,86,96
0,70,53,4
0,74,73,0
0,82,83,96
0,70,59,4
0,74,74,0
0,62,59,0
0,44,91,12
0,82,91,116
0,70,71,0
0,36,89,0
0,74,77,0
0,31,54,4
0,67,52,20
0,55,63,8
0,43,66,0
0,36,110,0
0,31,72,0
0,70,70,112
0,74,85,0
0,51,18,28
0,70,54,0
0,74,82,4
0,38,72,4
0,70,23,0
0,44,102,8
0,51,53,0
0,74,81,44
0,70,50,4
0,51,42,4
0,70,23,0
0,72,46,16
0,67,59,4
0,76,55,4
0,55,50,4
0,55,89,4
0,36,76,4
0,48,34,0
0,52,58,0
0,36,107,0
0,51,93,8
0,70,62,24
0,76,87,0
0,60,68,176
0,44,89,8
0,36,61,72
0,36,91,8
0,48,32,4
0,52,32,0
0,55,65,4
0,64,64,84
0,36,78,4
0,36,110,12
0,55,45,8
0,52,37,0
0,48,28,0
0,67,66,20
0,31,78,0
0,51,44,0
0,44,98,4
0,51,53,24
0,67,71,8
0,69,61,16
0,59,110,0
0,29,76,4
0,65,59,0
0,53,87,0
0,36,110,0
0,41,61,0
0,53,50,4
0,69,76,0
0,65,51,0
0,77,74,4
0,69,73,20
0,65,27,8
0,60,68,100
0,44,87,0
0,69,72,4
0,65,57,0
0,36,89,56
0,72,77,4
0,65,72,0
0,29,76,4
0,69,67,0
0,51,51,120
0,57,69,4
0,65,49,4
0,29,76,4
0,36,107,4
0,45,6,4
0,72,79,96
0,65,70,4
0,69,67,0
0,33,61,32
0,69,66,4
0,44,100,4
0,74,85,4
0,70,67,0
0,65,72,0
0,74,49,4
0,70,56,4
0,65,58,4
0,58,64,4
0,46,66,0
0,53,87,4
0,34,80,4
0,51,66,0
0,36,110,4
0,50,32,8
0,53,32,0
0,58,68,4
0,44,105,0
0,58,55,68
0,46,50,4
0,34,64,4
0,36,100,0
0,53,36,0
0,50,32,4
0,67,70,8
0,62,80,12
0,58,50,4
0,46,51,0
0,36,110,0
0,51,44,0
0,34,78,4
0,53,50,0
0,50,64,0
0,44,116,0
0,67,89,8
0,59,60,0
0,31,66,28
0,63,79,16
0,75,57,4
0,27,70,4
0,67,53,0
0,70,55,4
0,58,89,0
0,36,113,0
0,51,60,4
0,63,60,0
0,51,82,0
0,67,72,4
0,63,74,136
0,44,107,8
0,67,78,4
0,63,63,0
0,36,91,4
0,34,66,8
0,63,53,0
0,67,63,0
0,70,64,0
0,51,33,4
0,39,49,0
0,36,113,0
0,67,76,4
0,51,56,4
0,59,76,0
0,70,68,100
0,67,64,4
0,63,48,0
0,34,64,100
0,70,70,0
0,70,65,4
0,67,71,0
0,44,100,0
0,63,53,4
0,51,29,0
0,70,65,108
0,63,33,8
0,67,32,8
0,76,66,4
0,70,59,8
0,72,52,12
0,60,87,0
0,72,87,0
0,36,91,4
0,48,60,0
0,70,70,0
0,72,80,0
0,64,70,0
0,51,51,4
0,60,44,0
0,36,107,4
0,70,74,156
0,74,87,0
0,64,62,0
0,67,89,4
0,44,100,0
0,72,74,44
0,70,52,0
0,64,62,0
0,51,51,0
0,36,98,4
0,36,57,4
0,51,61,72
0,31,74,0
0,48,64,0
0,60,61,0
0,64,74,0
0,36,113,4
0,67,77,112
0,64,59,4
0,36,62,24
0,60,70,4
0,44,110,12
0,64,77,36
0,77,78,0
0,65,76,0
0,51,64,0
0,29,76,4
0,53,87,4
0,41,47,4
0,36,113,0
0,53,40,4
0,65,84,0
0,60,59,0
0,57,65,0
0,57,80,176
0,65,66,4
0,60,68,0
0,57,52,0
0,44,113,0
0,65,78,48
0,36,93,0
0,29,61,4
0,57,65,0
0,60,64,0
0,51,50,0
0,76,63,52
0,60,74,36
0,52,62,4
0,40,69,0
0,36,113,0
0,51,72,0
0,28,80,0
0,67,82,72
0,64,87,72
0,44,107,4
0,64,76,4
0,60,49,4
0,57,51,0
0,28,89,4
0,65,70,0
0,77,60,4
0,65,95,32
0,65,92,0
0,26,82,0
0,38,59,0
0,51,70,0
0,36,119,4
0,50,6,0
0,69,79,64
0,65,72,4
0,38,119,0
0,60,89,168
0,44,119,8
0,38,127,0
0,45,81,16
0,51,40,72
0,36,112,8
0,26,70,0
0,45,95,0
0,43,78,80
0,57,87,68
0,65,89,4
0,57,74,0
0,48,63,4
0,36,70,0
0,69,116,0
0,36,89,0
0,24,72,0
0,41,89,0
0,41,100,84
0,38,127,84
0,51,66,56
0,69,67,4
0,72,83,0
0,65,67,4
0,53,85,0
0,69,113,0
0,24,72,0
0,72,116,0
0,44,119,4
0,38,127,4
0,45,92,0
0,36,92,0
0,41,108,12
0,68,107,8
0,73,72,4
0,68,70,4
0,77,68,8
0,51,100,4
0,36,127,0
0,55,91,4
0,37,80,0
0,85,97,0
0,73,83,0
0,49,89,0
0,56,48,12
0,49,49,0
0,53,23,0
0,77,127,4
0,56,80,8
0,51,42,60
0,39,113,4
0,38,113,4
0,44,116,0
0,61,80,12
0,36,87,32
0,37,89,0
0,49,53,4
0,56,49,4
0,53,62,0
0,56,80,0
0,51,116,52
0,36,127,0
0,65,102,8
0,32,74,0
0,56,47,4
0,53,44,0
0,49,44,0
0,77,82,0
0,73,57,0
0,61,70,20
0,80,107,16
0,38,127,4
0,51,51,0
0,39,127,4
0,56,72,4
0,44,113,0
0,37,100,0
0,36,21,0
0,61,62,96
0,79,95,100
0,51,89,8
0,51,113,0
0,79,91,0
0,36,127,0
0,39,93,4
0,79,78,0
0,58,51,0
0,75,70,0
0,70,107,0
0,55,58,0
0,51,48,0
0,75,80,56
0,70,82,4
0,58,74,4
0,36,76,96
0,63,66,32
0,38,127,0
0,39,127,4
0,44,119,4
0,51,52,0
0,58,72,40
0,36,91,0
0,58,39,4
0,39,85,4
0,55,50,0
0,51,42,0
0,51,116,108
0,67,110,4
0,58,50,4
0,34,72,0
0,55,63,0
0,36,127,0
0,51,51,4
0,63,87,12
0,55,52,4
0,58,52,0
0,51,36,4
0,39,60,28
0,58,72,4
0,51,64,0
0,55,59,4
0,58,56,0
0,38,127,0
0,51,51,4
0,39,127,0
0,44,102,0
0,58,65,80
0,55,54,4
0,51,39,4
0,63,52,4
0,75,100,4
0,80,100,4
0,80,127,0
0,72,107,4
0,51,60,4
0,32,74,0
0,84,93,0
0,75,77,0
0,56,87,0
0,51,116,0
0,60,54,0
0,36,127,0
0,56,54,0
0,32,43,12
0,63,60,16
0,51,54,0
0,68,70,4
0,44,107,8
0,38,127,0
0,39,127,4
0,82,79,4
0,73,55,0
0,63,74,0
0,39,58,8
0,79,91,0
0,70,113,8
0,75,91,4
0,36,95,0
0,56,45,12
0,51,57,0
0,77,91,0
0,80,86,0
0,51,113,0
0,44,89,4
0,60,34,0
0,68,107,4
0,72,116,0
0,72,38,4
0,72,91,0
0,36,127,4
0,39,51,8
0,68,53,4
0,75,91,16
0,51,57,16
0,70,65,8
0,79,75,0
0,67,110,0
0,72,91,4
0,63,68,0
0,38,122,0
0,39,119,4
0,44,78,0
0,32,61,4
0,68,80,0
0,77,82,8
0,68,80,0
0,73,89,0
0,68,53,4
0,49,62,0
0,51,113,0
0,56,55,4
0,49,60,0
0,53,62,0
0,65,107,0
0,36,127,0
0,77,119,4
0,37,89,0
0,56,80,92
0,61,107,20
0,51,55,4
0,38,122,4
0,44,91,0
0,39,119,0
0,49,33,168
0,56,54,0
0,53,54,0
0,37,57,8
0,36,93,0
0,56,48,4
0,56,60,8
0,56,56,8
0,65,105,0
0,32,66,4
0,53,62,0
0,49,36,0
0,51,100,0
0,36,127,4
0,56,44,108
0,49,33,4
0,53,47,4
0,61,72,8
0,37,59,28
0,38,127,8
0,60,58,4
0,48,81,0
0,44,102,0
0,39,122,0
0,51,55,4
0,56,68,0
0,61,59,28
0,73,66,24
0,68,66,12
0,77,85,12
0,51,113,0
0,49,85,4
0,36,127,4
0,34,91,0
0,46,62,0
0,85,98,0
0,58,48,4
0,73,75,0
0,77,84,0
0,82,84,0
0,73,110,8
0,77,107,4
0,56,57,28
0,36,74,92
0,44,89,52
0,51,50,0
0,39,127,0
0,38,127,4
0,61,105,4
0,58,62,124
0,46,63,0
0,56,60,0
0,36,93,0
0,34,68,0
0,56,70,8
0,65,100,96
0,51,116,0
0,73,67,0
0,77,84,0
0,36,127,0
0,46,69,4
0,58,54,0
0,34,66,4
0,61,44,24
0,80,87,8
0,51,50,0
0,56,64,4
0,44,98,0
0,38,122,0
0,39,127,0
0,34,66,4
0,61,64,32
0,67,110,0
0,79,93,12
0,72,72,4
0,76,95,0
0,52,113,0
0,36,78,4
0,79,81,4
0,76,70,0
0,72,72,0
0,76,75,0
0,48,93,0
0,36,122,0
0,48,54,4
0,55,50,0
0,52,59,4
0,55,85,12
0,44,87,12
0,60,95,4
0,51,21,0
0,38,127,0
0,39,127,4
0,55,56,20
0,52,53,0
0,48,42,4
0,34,53,8
0,55,91,0
0,36,116,0
0,31,60,12
0,55,51,0
0,51,110,0
0,52,49,4
0,48,51,0
0,45,119,0
0,64,95,4
0,45,100,44
0,45,127,24
0,34,58,4
0,60,95,0
0,36,125,0
0,36,127,64
0,57,111,24
0,72,86,4
0,44,100,0
0,55,91,4
0,43,127,0
0,36,91,0
0,38,32,0
0,43,89,0
0,60,107,12
0,41,106,4
0,38,106,8
0,38,119,16
0,38,127,4
0,65,95,12
0,53,42,4
0,72,78,0
0,77,78,0
0,69,66,0
0,36,127,0
0,41,53,4
0,77,113,4
0,29,95,0
0,69,98,0
0,65,107,0
0,60,105,0
0,65,113,0
0,49,127,0
0,77,81,16
0,72,78,4
0,69,65,0
0,65,93,0
0,51,43,4
0,53,93,0
0,44,105,0
0,38,127,0
0,39,127,0
0,41,75,120
0,53,73,0
0,36,95,0
0,29,95,4
0,60,87,0
0,77,92,0
0,69,74,0
0,41,63,4
0,53,57,0
0,65,91,4
0,36,127,0
0,41,89,8
0,51,116,0
0,72,87,108
0,60,93,0
0,29,87,0
0,51,58,36
0,69,74,4
0,38,127,0
0,44,116,0
0,55,64,4
0,43,71,0
0,39,127,0
0,53,95,0
0,31,93,0
0,32,89,4
0,65,91,0
0,61,80,8
0,51,127,8
0,36,127,0
0,45,55,4
0,73,81,0
0,67,79,0
0,76,86,0
0,33,100,4
0,57,49,0
0,64,107,0
0,57,98,0
0,61,85,56
0,44,107,0
0,51,61,0
0,38,127,0
0,64,102,4
0,39,127,0
0,45,60,88
0,57,60,0
0,51,55,4
0,36,107,0
0,33,91,8
0,61,87,0
0,69,116,4
0,36,127,0
0,51,119,4
0,57,62,4
0,45,63,0
0,40,91,0
0,64,105,0
0,61,82,48
0,44,100,0
0,51,66,0
0,33,93,4
0,38,127,0
0,39,127,0
0,73,75,4
0,67,55,0
0,64,74,88
0,51,66,4
0,73,79,4
0,67,57,0
0,62,31,0
0,65,95,4
0,70,87,0
0,36,122,0
0,51,74,4
0,58,93,4
0,34,105,0
0,46,63,0
0,58,62,0
0,74,89,0
0,65,71,4
0,70,63,0
0,62,78,68
0,74,86,16
0,70,57,4
0,65,58,4
0,65,91,0
0,51,60,4
0,38,127,0
0,44,100,0
0,39,127,0
0,62,95,128
0,51,49,4
0,34,78,4
0,36,105,0
0,58,52,0
0,46,51,0
0,73,78,0
0,67,102,40
0,70,110,8
0,36,127,0
0,51,116,4
0,34,89,0
0,74,91,0
0,58,50,0
0,46,52,0
0,65,61,0
0,65,72,88
0,70,69,0
0,38,127,48
0,62,87,4
0,39,127,0
0,51,53,4
0,65,77,0
0,34,95,0
0,44,110,0
0,65,78,28
0,51,87,12
0,69,78,4
0,65,74,4
0,60,59,12
0,65,72,0
0,69,93,0
0,36,127,24
0,29,91,0
0,53,87,0
0,51,110,0
0,41,51,0
0,53,57,0
0,60,89,80
0,36,76,108
0,65,78,60
0,38,127,0
0,39,127,4
0,51,74,0
0,44,113,0
0,36,107,164
0,60,87,4
0,43,62,4
0,55,54,0
0,51,98,0
0,63,116,12
0,52,68,8
0,36,127,0
0,41,84,8
0,53,71,0
0,29,93,4
0,65,80,88
0,51,43,12
0,60,87,72
0,44,107,8
0,52,73,0
