track,note,velocity,time
1,60,50,0
1,60,0,240
1,59,50,0
1,59,0,240
1,57,50,0
1,57,0,210
1,52,50,30
1,52,0,240
1,60,50,0
1,60,0,240
1,59,50,0
1,59,0,240
1,57,50,0
1,57,0,210
1,52,50,30
1,52,0,240
1,60,50,0
1,60,0,240
1,59,50,0
1,59,0,240
1,57,50,0
1,57,0,210
1,52,50,30
1,52,0,240
1,60,50,0
1,60,0,240
1,59,50,0
1,59,0,240
1,57,50,0
1,57,0,210
1,52,50,30
1,52,0,240
1,60,50,0
1,60,0,240
1,59,50,0
1,59,0,240
1,57,50,0
1,57,0,210
1,52,50,30
1,52,0,240
1,60,50,0
1,60,0,240
1,59,50,0
1,59,0,240
1,57,50,0
1,57,0,210
1,52,50,30
1,52,0,240
1,60,50,0
1,60,0,240
1,59,50,0
1,59,0,240
1,57,50,0
1,57,0,210
1,52,50,30
1,52,0,240
1,60,50,0
1,60,0,240
1,59,50,0
1,59,0,240
1,57,50,0
1,57,0,210
1,52,50,30
1,52,0,240
1,60,50,0
1,60,0,240
1,59,50,0
1,59,0,240
1,57,50,0
1,57,0,210
1,52,50,30
1,52,0,240
1,57,50,0
1,57,0,210
1,52,50,30
1,52,0,240
1,57,50,0
1,57,0,210
1,52,50,30
1,52,0,240
1,60,50,0
1,60,0,240
1,59,50,0
1,59,0,240
1,57,50,0
1,57,0,210
1,52,50,30
1,52,0,240
1,60,50,0
1,60,0,240
1,59,50,0
1,59,0,240
1,57,50,0
1,57,0,210
1,52,50,30
1,52,0,240
1,60,50,0
1,60,0,240
1,59,50,0
1,59,0,240
1,57,50,0
1,57,0,210
1,52,50,30
1,52,0,240
1,60,50,0
1,60,0,240
1,59,50,0
1,59,0,240
1,57,50,0
1,57,0,210
1,52,50,30
1,52,0,240
1,60,50,0
1,59,50,240
1,60,0,240
1,59,0,240
2,64,51,390
2,69,51,90
2,64,0,30
2,69,0,90
2,76,51,0
2,76,0,450
2,64,51,0
2,64,0,150
2,65,51,0
2,65,0,150
2,64,51,0
2,69,51,90
2,64,0,30
2,69,0,90
2,76,51,0
2,76,0,450
2,64,51,0
2,64,0,150
2,65,51,0
2,65,0,180
2,64,51,2850
2,69,51,90
2,64,0,30
2,69,0,90
2,76,51,0
2,76,0,450
2,64,51,0
2,64,0,150
2,65,51,0
2,65,0,150
2,64,51,0
2,64,0,120
2,64,51,3720
2,69,51,90
2,64,0,30
2,69,0,90
2,76,51,0
2,76,0,450
2,76,51,150
2,81,51,40
2,76,0,24
2,84,51,16
2,81,0,106
2,83,51,254
2,81,51,40
2,83,0,10
2,84,0,70
2,81,0,40
2,76,51,0
2,74,51,363
2,76,51,117
2,76,0,1
2,74,0,2
2,76,0,117
2,69,51,16
2,64,51,108
2,69,0,12
2,60,51,224
2,64,0,4
2,62,51,59
2,60,0,4
2,62,0,49
2,60,51,4
2,60,0,372
2,59,51,5
2,57,51,83
2,59,0,37
2,55,51,343
2,57,0,100
2,57,51,0
2,55,0,20
2,64,51,390
2,57,0,70
2,69,51,20
2,64,0,30
2,69,0,90
2,76,51,0
2,76,0,480
2,64,51,6990
2,69,51,90
2,64,0,30
2,69,0,90
2,76,51,0
2,76,0,480
3,52,50,390
3,57,50,90
3,52,0,30
3,57,0,90
3,64,50,0
3,64,0,450
3,52,50,0
3,52,0,150
3,53,50,0
3,53,0,150
3,52,50,0
3,57,50,90
3,52,0,30
3,57,0,90
3,64,50,0
3,64,0,450
3,52,50,0
3,52,0,150
3,53,50,0
3,53,0,180
3,52,50,2850
3,57,50,90
3,52,0,30
3,57,0,90
3,64,50,0
3,64,0,450
3,52,50,0
3,52,0,150
3,53,50,0
3,53,0,150
3,52,50,0
3,52,0,120
3,52,50,3720
3,57,50,90
3,52,0,30
3,57,0,90
3,64,50,0
3,64,0,450
3,64,50,119
3,69,50,59
3,64,0,5
3,72,50,132
3,69,0,9
3,72,0,241
3,71,50,25
3,69,50,40
3,71,0,10
3,64,50,101
3,69,0,1
3,64,0,341
3,62,50,30
3,64,50,101
3,62,0,7
3,64,0,112
3,57,50,33
3,52,50,108
3,57,0,6
3,52,0,205
3,48,50,23
3,50,50,65
3,48,0,2
3,50,0,51
3,48,50,1
3,48,0,372
3,43,50,8
3,45,50,83
3,43,0,8
3,43,50,389
3,45,0,9
3,45,50,74
3,43,0,8
3,45,0,398
3,52,50,4
3,57,50,90
3,52,0,30
3,57,0,90
3,64,50,0
3,64,0,450
3,52,50,7020
3,57,50,90
3,52,0,30
3,57,0,90
3,64,50,0
3,64,0,450
4,53,88,3910
4,53,0,10
4,53,88,48
4,53,0,6
4,53,88,110
4,53,0,7
4,53,88,22
4,53,0,6
4,53,88,23
4,53,0,26
4,51,88,32
4,51,0,62
4,53,88,1502
4,53,0,11
4,53,88,53
4,53,0,7
4,53,88,55
4,53,0,14
4,53,88,44
4,53,0,5
4,53,88,58
4,53,0,10
4,53,88,19
4,53,0,9
4,53,88,17
4,53,0,12
4,51,88,50
4,51,0,34
4,53,88,138
4,50,50,0
4,50,0,30
4,53,0,0
4,53,88,30
4,50,50,0
4,50,0,30
4,53,0,0
4,53,88,90
4,50,50,0
4,50,0,30
4,53,0,0
4,53,88,30
4,50,50,0
4,50,0,30
4,53,0,0
4,53,88,90
4,50,50,0
4,50,0,30
4,53,0,0
4,50,50,30
4,50,0,13
4,50,50,17
4,50,0,10
4,48,50,20
4,48,0,11
4,47,50,19
4,47,0,10
4,45,50,20
4,45,0,41
4,50,50,79
4,50,0,13
4,50,50,17
4,50,0,10
4,50,50,20
4,50,0,10
4,48,50,20
4,48,0,10
4,50,50,20
4,50,0,31
4,80,88,11
4,80,0,22
4,53,88,116
4,50,50,0
4,50,0,30
4,53,0,0
4,53,88,30
4,50,50,0
4,50,0,30
4,53,0,0
4,53,88,90
4,50,50,0
4,50,0,30
4,53,0,0
4,53,88,30
4,50,50,0
4,50,0,30
4,53,0,0
4,53,88,90
4,50,50,0
4,50,0,30
4,53,0,0
4,50,50,30
4,50,0,13
4,50,50,17
4,50,0,10
4,50,50,20
4,50,0,11
4,48,50,19
4,48,0,10
4,50,50,20
4,50,0,41
4,50,50,79
4,50,0,13
4,50,50,17
4,50,0,10
4,50,50,20
4,50,0,10
4,48,50,20
4,48,0,10
4,50,50,20
4,50,0,31
4,81,88,15
4,81,0,54
4,53,88,80
4,50,50,0
4,50,0,30
4,53,0,0
4,53,88,30
4,50,50,0
4,50,0,30
4,53,0,0
4,53,88,90
4,50,50,0
4,50,0,30
4,53,0,0
4,53,88,30
4,50,50,0
4,50,0,30
4,53,0,0
4,53,88,90
4,50,50,0
4,50,0,30
4,53,0,0
4,50,50,30
4,50,0,13
4,50,50,17
4,50,0,10
4,48,50,20
4,48,0,11
4,47,50,19
4,47,0,10
4,45,50,20
4,45,0,41
4,50,50,79
4,50,0,13
4,50,50,17
4,50,0,10
4,50,50,20
4,50,0,10
4,48,50,20
4,48,0,10
4,50,50,20
4,50,0,31
4,81,88,28
4,81,0,52
4,53,88,69
4,50,50,0
4,50,0,30
4,53,0,0
4,53,88,30
4,50,50,0
4,50,0,30
4,53,0,0
4,53,88,90
4,50,50,0
4,50,0,30
4,53,0,0
4,53,88,30
4,50,50,0
4,50,0,30
4,53,0,0
4,53,88,90
4,50,50,0
4,50,0,30
4,53,0,0
4,50,50,30
4,50,0,13
4,50,50,17
4,50,0,10
4,50,50,20
4,50,0,11
4,48,50,19
4,48,0,10
4,50,50,20
4,50,0,41
4,50,50,79
4,50,0,13
4,50,50,17
4,50,0,10
4,50,50,20
4,50,0,10
4,48,50,20
4,48,0,10
4,50,50,20
4,50,0,31
4,53,88,149
4,53,0,30
4,53,88,30
4,53,0,30
4,53,88,30
4,53,0,30
4,59,88,30
4,59,0,30
4,53,88,0
4,53,0,30
4,51,88,0
4,51,0,30
4,53,88,210
4,53,0,30
4,53,88,30
4,53,0,30
4,53,88,30
4,53,0,30
4,59,88,30
4,59,0,30
4,53,88,0
4,53,0,30
4,51,88,0
4,51,0,30
4,53,88,210
4,53,0,30
4,53,88,30
4,53,0,30
4,53,88,30
4,53,0,30
4,59,88,30
4,59,0,30
4,53,88,0
4,53,0,30
4,51,88,0
4,51,0,30
4,53,88,210
4,53,0,30
4,53,88,30
4,53,0,30
4,53,88,30
4,53,0,30
4,59,88,30
4,59,0,30
4,53,88,0
4,53,0,30
4,51,88,0
4,51,0,30
4,53,88,210
4,53,0,30
4,53,88,30
4,53,0,30
4,53,88,30
4,53,0,30
4,59,88,30
4,59,0,30
4,53,88,0
4,53,0,30
4,51,88,0
4,51,0,30
4,53,88,210
4,53,0,30
4,53,88,30
4,53,0,30
4,53,88,30
4,53,0,30
4,59,88,30
4,59,0,30
4,53,88,0
4,53,0,30
4,51,88,0
4,51,0,30
4,53,88,210
4,53,0,30
4,53,88,30
4,53,0,30
4,53,88,30
4,53,0,30
4,59,88,30
4,59,0,30
4,53,88,0
4,53,0,30
4,51,88,0
4,51,0,30
4,59,88,210
4,59,0,30
4,51,88,30
4,51,0,30
4,53,88,30
4,53,0,30
4,59,88,30
4,59,0,30
4,51,88,0
4,51,0,30
4,53,88,0
4,53,0,30
4,59,88,30
4,59,0,30
4,59,88,150
4,59,0,30
4,51,88,30
4,51,0,30
4,53,88,30
4,53,0,30
4,59,88,30
4,59,0,30
4,51,88,0
4,51,0,30
4,53,88,0
4,53,0,30
4,59,88,30
4,59,0,30
4,59,88,150
4,59,0,30
4,51,88,30
4,51,0,30
4,53,88,30
4,53,0,30
4,59,88,30
4,59,0,30
4,51,88,0
4,51,0,30
4,53,88,0
4,53,0,30
4,59,88,30
4,59,0,30
4,59,88,150
4,59,0,30
4,51,88,30
4,51,0,30
4,53,88,30
4,53,0,30
4,59,88,30
4,59,0,30
4,51,88,0
4,51,0,30
4,53,88,0
4,53,0,30
4,59,88,30
4,59,0,30
4,59,88,150
4,59,0,30
4,51,88,30
4,51,0,30
4,53,88,30
4,53,0,30
4,59,88,30
4,59,0,30
4,51,88,0
4,51,0,30
4,53,88,0
4,53,0,30
4,59,88,30
4,59,0,30
4,59,88,150
4,59,0,30
4,51,88,30
4,51,0,30
4,53,88,30
4,53,0,30
4,59,88,30
4,59,0,30
4,51,88,0
4,51,0,30
4,53,88,0
4,53,0,30
4,59,88,30
4,59,0,30
4,59,88,150
4,59,0,30
4,51,88,30
4,51,0,30
4,53,88,30
4,53,0,30
4,59,88,30
4,59,0,30
4,51,88,0
4,51,0,30
4,53,88,0
4,53,0,30
4,59,88,30
4,59,0,30
4,59,88,150
4,59,0,30
4,51,88,30
4,51,0,30
4,53,88,30
4,53,0,30
4,59,88,30
4,59,0,30
4,51,88,0
4,51,0,30
4,53,88,0
4,53,0,30
4,59,88,30
4,59,0,30
4,59,88,90
4,59,0,30
4,51,88,10
4,51,0,30
4,53,88,10
4,53,0,30
4,57,60,10
4,57,0,30
4,51,88,10
4,51,0,30
4,53,88,10
4,53,0,30
4,57,60,10
4,57,0,30
4,57,60,10
4,57,0,30
4,57,60,10
4,57,0,30
4,57,60,10
4,57,0,30
4,53,88,150
4,50,50,0
4,50,0,30
4,53,0,0
4,53,88,30
4,50,50,0
4,50,0,30
4,53,0,0
4,53,88,90
4,50,50,0
4,50,0,30
4,53,0,0
4,53,88,30
4,50,50,0
4,50,0,30
4,53,0,0
4,53,88,90
4,50,50,0
4,50,0,30
4,53,0,0
4,50,50,30
4,50,0,13
4,50,50,17
4,50,0,10
4,48,50,20
4,48,0,11
4,47,50,19
4,47,0,10
4,45,50,20
4,45,0,41
4,50,50,79
4,50,0,13
4,50,50,17
4,50,0,10
4,50,50,20
4,50,0,10
4,48,50,20
4,48,0,10
4,50,50,20
4,50,0,31
4,44,88,11
4,44,0,22
4,53,88,116
4,50,50,0
4,50,0,30
4,53,0,0
4,53,88,30
4,50,50,0
4,50,0,30
4,53,0,0
4,53,88,90
4,50,50,0
4,50,0,30
4,53,0,0
4,53,88,30
4,50,50,0
4,50,0,30
4,53,0,0
4,53,88,90
4,50,50,0
4,50,0,30
4,53,0,0
4,50,50,30
4,50,0,13
4,50,50,17
4,50,0,10
4,50,50,20
4,50,0,11
4,48,50,19
4,48,0,10
4,50,50,20
4,50,0,41
4,50,50,79
4,50,0,13
4,50,50,17
4,50,0,10
4,50,50,20
4,50,0,10
4,48,50,20
4,48,0,10
4,50,50,20
4,50,0,31
4,81,88,15
4,81,0,54
4,53,88,80
4,50,50,0
4,50,0,30
4,53,0,0
4,53,88,30
4,50,50,0
4,50,0,30
4,53,0,0
4,53,88,90
4,50,50,0
4,50,0,30
4,53,0,0
4,53,88,30
4,50,50,0
4,50,0,30
4,53,0,0
4,53,88,90
4,50,50,0
4,50,0,30
4,53,0,0
4,50,50,30
4,50,0,13
4,50,50,17
4,50,0,10
4,48,50,20
4,48,0,11
4,47,50,19
4,47,0,10
4,45,50,20
4,45,0,41
4,50,50,79
4,50,0,13
4,50,50,17
4,50,0,10
4,50,50,20
4,50,0,10
4,48,50,20
4,48,0,10
4,50,50,20
4,50,0,31
4,81,88,28
4,81,0,52
4,53,88,69
4,50,50,0
4,50,0,30
4,53,0,0
4,53,88,30
4,50,50,0
4,50,0,30
4,53,0,0
4,53,88,90
4,50,50,0
4,50,0,30
4,53,0,0
4,53,88,30
4,50,50,0
4,50,0,30
4,53,0,0
4,53,88,90
4,50,50,0
4,50,0,30
4,53,0,0
5,69,88,600
5,69,0,5640
5,69,88,3960
5,69,88,3840
5,69,0,3720
5,69,0,13
5,69,88,0
5,69,0,1
6,69,88,6263
6,71,88,215
6,69,0,2
6,69,88,233
6,71,0,3
6,67,88,121
6,69,0,5
6,64,88,117
6,67,0,14
6,64,0,219
6,69,88,16
6,71,88,223
6,69,0,2
6,69,88,242
6,71,0,2
6,76,88,115
6,69,0,12
6,76,0,105
6,74,88,0
6,71,88,117
6,74,0,11
6,69,88,113
6,71,0,4
6,71,88,244
6,69,0,1
6,69,88,231
6,71,0,4
6,67,88,121
6,69,0,8
6,64,88,106
6,67,0,10
6,64,0,234
6,69,88,10
6,71,88,219
6,69,0,4
6,71,0,249
6,69,88,2
6,69,0,101
6,69,88,16
6,69,0,359
6,69,88,7710
6,71,88,215
6,69,0,2
6,69,88,233
6,71,0,3
6,67,88,121
6,69,0,5
6,64,88,117
6,67,0,14
6,64,0,219
6,69,88,16
6,71,88,223
6,69,0,2
6,69,88,242
6,71,0,2
6,76,88,115
6,69,0,12
6,76,0,105
6,74,88,0
6,71,88,117
6,74,0,11
6,69,88,113
6,71,0,4
6,71,88,244
6,69,0,1
6,69,88,231
6,71,0,4
6,67,88,121
6,69,0,8
6,64,88,106
6,67,0,10
6,64,0,234
6,69,88,10
6,71,88,219
6,69,0,4
6,71,0,249
6,69,88,2
6,69,0,101
6,69,88,16
6,69,0,359
7,57,64,0
7,60,64,121
7,64,64,5
7,57,0,57
7,56,64,55
7,60,0,66
7,64,0,5
7,64,64,42
7,69,64,6
7,56,0,54
7,56,64,0
7,69,0,22
7,64,0,3
7,56,0,10
7,55,64,30
7,60,64,58
7,64,64,49
7,69,64,6
7,55,0,54
7,60,0,3
7,64,0,2
7,69,0,1
7,50,64,6
7,54,64,56
7,50,0,1
7,54,0,6
7,54,64,0
7,54,0,55
7,60,64,4
7,64,64,61
7,69,64,6
7,60,0,45
7,69,0,1
7,64,0,3
7,57,64,70
7,57,0,12
7,60,64,107
7,64,64,3
7,69,64,4
7,69,0,63
7,64,0,2
7,60,0,0
7,55,64,55
7,55,0,6
7,56,64,0
7,60,64,100
7,64,64,3
7,69,64,4
7,69,0,56
7,64,0,4
7,60,0,1
7,56,0,5
7,55,64,46
7,64,64,112
7,69,64,4
7,55,0,44
7,64,0,4
7,69,0,1
7,54,64,70
7,60,64,123
7,64,64,2
7,54,0,33
7,64,0,21
7,60,0,2
7,57,64,56
7,69,64,17
7,60,64,44
7,60,0,67
7,60,64,0
7,64,64,4
7,57,0,51
7,69,0,17
