track,note,velocity,time
0,42,72,95
0,42,0,45
0,38,72,3
0,38,0,22
0,40,72,2
0,40,0,22
0,35,72,2
0,35,0,190
0,42,72,96
0,42,0,45
0,38,72,3
0,38,0,22
0,40,72,2
0,40,0,22
0,35,72,2
0,35,0,190
0,59,42,48
0,59,0,1
0,59,26,5
0,59,0,1
0,59,44,5
0,59,0,1
0,59,28,5
0,59,0,1
0,59,46,5
0,59,0,1
0,59,30,5
0,59,0,1
0,59,48,5
0,59,0,1
0,59,34,5
0,59,0,1
0,42,72,5
0,59,50,0
0,59,0,1
0,59,36,5
0,59,0,1
0,59,52,5
0,59,0,1
0,59,38,5
0,59,0,1
0,59,54,5
0,59,0,1
0,59,40,5
0,59,0,1
0,59,56,5
0,59,0,1
0,59,42,5
0,59,0,1
0,42,0,2
0,38,72,3
0,59,58,0
0,59,0,1
0,59,44,5
0,59,0,1
0,59,60,5
0,59,0,1
0,59,46,5
0,59,0,1
0,38,0,3
0,40,72,2
0,59,62,0
0,59,0,1
0,59,48,5
0,59,0,1
0,59,64,5
0,59,0,1
0,59,50,5
0,59,0,1
0,57,84,5
0,57,0,1
0,59,36,5
0,59,0,1
0,59,36,5
0,59,0,1
0,59,36,5
0,59,0,1
0,59,50,5
0,59,0,1
0,59,30,5
0,59,0,1
0,59,30,5
0,59,0,1
0,59,30,5
0,59,0,1
0,59,44,5
0,59,0,1
0,59,24,5
0,59,0,1
0,59,24,5
0,59,0,1
0,59,24,5
0,59,0,1
0,59,38,5
0,59,0,1
0,59,18,5
0,59,0,1
0,59,18,5
0,59,0,1
0,59,18,5
0,59,0,1
0,59,32,5
0,59,0,1
0,59,12,5
0,59,0,1
0,59,12,5
0,59,0,1
0,59,12,5
0,59,0,1
0,59,36,5
0,59,0,1
0,59,6,5
0,59,0,1
0,59,6,5
0,59,0,1
0,59,6,5
0,59,0,1
0,59,20,5
0,59,0,1
0,59,6,5
0,59,0,1
0,59,6,5
0,59,0,1
0,59,6,5
0,59,0,1
0,59,14,5
0,59,0,1
0,59,6,5
0,59,0,1
0,59,6,5
0,59,0,1
0,59,6,5
0,59,0,1
0,40,0,3
0,59,32,0
0,59,0,1
0,59,16,5
0,59,0,1
0,59,16,5
0,59,0,1
0,59,16,5
0,59,0,1
0,59,32,5
0,59,0,1
0,59,16,5
0,59,0,1
0,59,16,5
0,59,0,1
0,59,16,5
0,59,0,1
0,38,72,5
0,59,32,0
0,59,0,1
0,59,16,5
0,59,0,1
0,59,16,5
0,59,0,1
0,59,16,5
0,59,0,1
0,38,0,3
0,40,72,2
0,59,32,0
0,59,0,1
0,59,16,5
0,59,0,1
0,59,16,5
0,59,0,1
0,59,16,5
0,59,0,1
0,40,0,3
0,42,72,2
0,59,48,0
0,59,0,1
0,59,32,5
0,59,0,1
0,59,32,5
0,59,0,1
0,59,32,5
0,59,0,1
0,57,48,5
0,57,0,1
0,59,32,5
0,59,0,1
0,59,32,5
0,59,0,1
0,59,32,5
0,59,0,1
0,42,0,2
0,40,72,3
0,59,64,0
0,59,0,1
0,59,50,5
0,59,0,1
0,59,64,5
0,59,0,1
0,59,50,5
0,59,0,1
0,40,0,3
0,38,72,2
0,59,64,0
0,59,0,1
0,59,50,5
0,59,0,1
0,59,64,5
0,59,0,1
0,59,50,5
0,59,0,1
0,38,0,3
0,35,72,2
0,57,72,24
0,57,0,1
0,59,64,71
0,59,0,1
0,59,50,5
0,59,0,1
0,59,64,5
0,59,0,1
0,59,50,5
0,59,0,1
0,59,64,5
0,59,0,1
0,59,50,5
0,59,0,1
0,59,64,5
0,59,0,1
0,59,50,5
0,59,0,1
0,59,64,5
0,59,0,1
0,59,50,5
0,59,0,1
0,59,64,5
0,59,0,1
0,59,50,5
0,59,0,1
0,59,64,5
0,59,0,1
0,59,50,5
0,59,0,1
0,59,64,5
0,59,0,1
0,59,50,5
0,59,0,1
0,35,0,3
0,51,64,0
0,51,0,1
0,51,50,5
0,51,0,1
0,51,64,5
0,51,0,1
0,51,50,5
0,51,0,1
0,51,64,5
0,51,0,1
0,51,50,5
0,51,0,1
0,51,64,5
0,51,0,1
0,51,50,5
0,51,0,1
0,51,64,5
0,51,0,1
0,51,50,5
0,51,0,1
0,51,64,5
0,51,0,1
0,51,50,5
0,51,0,1
0,51,64,5
0,51,0,1
0,51,50,5
0,51,0,1
0,51,64,5
0,51,0,1
0,51,50,5
0,51,0,1
0,42,72,5
0,51,64,0
0,51,0,1
0,51,50,5
0,51,0,1
0,51,64,5
0,51,0,1
0,51,50,5
0,51,0,1
0,51,64,5
0,51,0,1
0,51,50,5
0,51,0,1
0,51,64,5
0,51,0,1
0,51,50,5
0,51,0,1
0,42,0,2
0,38,72,3
0,51,64,0
0,51,0,1
0,51,50,5
0,51,0,1
0,51,64,5
0,51,0,1
0,51,50,5
0,51,0,1
0,38,0,3
0,40,72,2
0,51,64,0
0,51,0,1
0,51,50,5
0,51,0,1
0,51,64,5
0,51,0,1
0,51,50,5
0,51,0,1
0,40,0,3
0,35,72,2
0,57,72,0
0,57,0,1
0,59,64,47
0,59,0,1
0,59,50,5
0,59,0,1
0,59,64,5
0,59,0,1
0,59,50,5
0,59,0,1
0,59,64,5
0,59,0,1
0,59,50,5
0,59,0,1
0,59,64,5
0,59,0,1
0,59,50,5
0,59,0,1
0,57,72,5
0,57,0,1
0,59,64,5
0,59,0,1
0,59,64,5
0,59,0,1
0,59,50,5
0,59,0,1
0,59,64,5
0,59,0,1
0,59,50,5
0,59,0,1
0,59,64,5
0,59,0,1
0,59,50,5
0,59,0,1
0,59,64,5
0,59,0,1
0,59,50,5
0,59,0,1
0,59,64,5
0,59,0,1
0,59,50,5
0,59,0,1
0,59,64,5
0,59,0,1
0,59,50,5
0,59,0,1
0,59,64,5
0,59,0,1
0,59,50,5
0,59,0,1
0,35,0,3
0,57,72,0
0,57,0,1
0,57,72,23
0,57,0,1
0,59,64,23
0,59,0,1
0,59,48,5
0,59,0,1
0,59,68,5
0,59,0,1
0,59,52,5
0,59,0,1
0,59,72,5
0,59,0,1
0,59,56,5
0,59,0,1
0,59,76,5
0,59,0,1
0,59,60,5
0,59,0,1
0,42,72,5
0,59,80,0
0,59,0,1
0,59,64,5
0,59,0,1
0,59,84,5
0,59,0,1
0,59,68,5
0,59,0,1
0,59,88,5
0,59,0,1
0,59,72,5
0,59,0,1
0,59,92,5
0,59,0,1
0,59,76,5
0,59,0,1
0,42,0,2
0,38,72,3
0,59,96,0
0,59,0,1
0,59,80,5
0,59,0,1
0,59,84,5
0,59,0,1
0,59,84,5
0,59,0,1
0,38,0,3
0,40,72,2
0,59,84,0
0,59,0,1
0,59,88,5
0,59,0,1
0,59,84,5
0,59,0,1
0,59,92,5
0,59,0,1
0,40,0,3
0,35,72,2
0,51,64,0
0,57,106,0
0,51,0,1
0,57,0,0
0,51,44,5
0,51,0,1
0,51,68,5
0,51,0,1
0,51,48,5
0,51,0,1
0,51,72,5
0,51,0,1
0,51,52,5
0,51,0,1
0,51,76,5
0,51,0,1
0,51,56,5
0,51,0,1
0,51,80,5
0,51,0,1
0,51,60,5
0,51,0,1
0,51,84,5
0,51,0,1
0,51,64,5
0,51,0,1
0,51,88,5
0,51,0,1
0,51,68,5
0,51,0,1
0,51,92,5
0,51,0,1
0,51,72,5
0,51,0,1
0,51,96,5
0,51,0,1
0,51,76,5
0,51,0,1
0,51,100,5
0,51,0,1
0,51,80,5
0,51,0,1
0,51,104,5
0,51,0,1
0,51,84,5
0,51,0,1
0,51,108,5
0,51,0,1
0,51,88,5
0,51,0,1
0,51,112,5
0,51,0,1
0,51,92,5
0,51,0,1
0,51,116,5
0,51,0,1
0,51,96,5
0,51,0,1
0,51,120,5
0,51,0,1
0,51,100,5
0,51,0,1
0,51,124,5
0,51,0,1
0,51,104,5
0,51,0,1
0,35,0,3
0,59,64,0
0,57,106,0
0,59,0,1
0,57,0,0
0,59,44,5
0,59,0,1
0,59,68,5
0,59,0,1
0,59,48,5
0,59,0,1
0,59,72,5
0,59,0,1
0,59,52,5
0,59,0,1
0,59,76,5
0,59,0,1
0,59,56,5
0,59,0,1
0,59,80,5
0,59,0,1
0,59,60,5
0,59,0,1
0,59,84,5
0,59,0,1
0,59,64,5
0,59,0,1
0,59,88,5
0,59,0,1
0,59,68,5
0,59,0,1
0,59,92,5
0,59,0,1
0,59,72,5
0,59,0,1
0,42,72,5
0,59,96,0
0,59,0,1
0,59,76,5
0,59,0,1
0,59,100,5
0,59,0,1
0,59,80,5
0,59,0,1
0,59,104,5
0,59,0,1
0,59,84,5
0,59,0,1
0,59,108,5
0,59,0,1
0,59,88,5
0,59,0,1
0,42,0,2
0,40,72,3
0,59,112,0
0,59,0,1
0,59,92,5
0,59,0,1
0,59,116,5
0,59,0,1
0,59,96,5
0,59,0,1
0,40,0,3
0,38,72,2
0,59,120,0
0,59,0,1
0,59,100,5
0,59,0,1
0,59,124,5
0,59,0,1
0,59,104,5
0,59,0,1
0,38,0,3
0,76,64,2
0,55,96,0
0,67,64,0
0,64,64,0
0,60,64,0
0,36,72,0
0,51,64,0
0,36,64,0
0,51,0,1
0,36,0,0
0,76,64,0
0,60,96,2
0,64,96,3
0,67,96,3
0,59,64,15
0,59,0,1
0,59,64,23
0,38,50,0
0,59,0,1
0,38,0,0
0,55,0,21
0,60,0,0
0,64,0,0
0,67,0,0
0,76,80,2
0,59,64,0
0,59,0,1
0,76,0,9
0,72,80,2
0,36,0,8
0,72,0,2
0,67,80,2
0,28,88,0
0,59,64,0
0,36,64,0
0,59,0,1
0,36,0,0
0,67,0,9
0,28,0,0
0,64,80,2
0,76,0,10
0,64,0,0
0,76,0,1
0,76,64,1
0,60,80,0
0,28,88,0
0,59,64,0
0,59,0,1
0,76,64,0
0,76,0,9
0,76,0,1
0,78,64,1
0,78,64,1
0,78,0,9
0,78,0,1
0,76,64,1
0,59,64,0
0,38,50,0
0,59,0,1
0,38,0,0
0,76,64,0
0,76,0,19
0,28,0,1
0,76,0,0
0,74,64,3
0,30,72,0
0,59,64,0
0,59,0,1
0,74,64,0
0,74,0,9
0,30,0,0
0,74,0,1
0,72,64,1
0,31,72,0
0,72,64,1
0,60,0,7
0,72,0,2
0,67,0,0
0,64,0,0
0,60,0,0
0,31,0,0
0,72,0,1
0,74,64,1
0,64,80,0
0,66,64,0
0,62,64,0
0,59,64,0
0,35,88,0
0,59,64,0
0,36,64,0
0,59,0,1
0,36,0,0
0,74,64,0
0,66,80,2
0,71,80,3
0,74,80,3
0,59,64,15
0,59,0,1
0,59,64,23
0,38,50,0
0,59,0,1
0,38,0,0
0,64,0,21
0,66,0,0
0,71,0,0
0,74,0,0
0,76,80,2
0,59,64,0
0,59,0,1
0,74,0,9
0,76,0,0
0,74,0,1
0,71,64,1
0,74,80,0
0,71,64,1
0,35,0,8
0,74,0,1
0,71,80,2
0,47,72,0
0,59,64,0
0,36,64,0
0,59,0,1
0,36,0,0
0,71,0,9
0,47,0,0
0,66,80,2
0,49,72,0
0,66,0,10
0,49,0,0
0,59,80,2
0,50,72,0
0,59,64,0
0,59,0,1
0,59,64,23
0,38,50,0
0,59,0,1
0,38,0,0
0,50,0,9
0,49,72,2
0,49,0,10
0,47,72,2
0,59,64,0
0,59,0,1
0,71,0,19
0,59,0,0
0,71,0,1
0,66,0,1
0,62,0,0
0,59,0,0
0,47,0,0
0,67,64,2
0,64,64,0
0,60,64,0
0,57,64,0
0,45,88,0
0,59,64,0
0,36,64,0
0,59,0,1
0,36,0,0
0,67,64,0
0,45,0,9
0,40,72,2
0,67,0,10
0,40,0,0
0,67,0,1
0,69,64,1
0,36,72,0
0,59,64,0
0,59,0,1
0,69,64,0
0,36,0,9
0,40,72,2
0,69,0,10
0,40,0,0
0,69,0,1
0,71,64,1
0,83,80,0
0,33,72,0
0,59,64,0
0,38,50,0
0,59,0,1
0,38,0,0
0,71,64,0
0,83,0,9
0,76,80,2
0,71,0,10
0,76,0,0
0,71,0,1
0,72,64,1
0,72,80,0
0,59,64,0
0,59,0,1
0,72,64,0
0,72,0,9
0,81,80,2
0,81,0,10
0,76,80,2
0,59,64,0
0,36,64,0
0,59,0,1
0,36,0,0
0,76,0,9
0,69,80,2
0,38,50,0
0,38,0,1
0,33,0,7
0,72,0,1
0,69,0,1
0,72,0,0
0,76,64,2
0,79,80,0
0,35,72,0
0,36,50,0
0,59,64,0
0,36,0,1
0,59,0,0
0,76,64,0
0,79,0,9
0,76,80,2
0,36,50,0
0,36,0,1
0,76,0,9
0,76,0,0
0,35,0,0
0,76,0,1
0,79,64,1
0,69,80,0
0,36,72,0
0,59,64,0
0,38,64,0
0,59,0,1
0,38,0,0
0,79,64,0
0,69,0,9
0,76,80,2
0,76,0,10
0,36,0,0
0,72,80,2
0,33,72,0
0,59,64,0
0,59,0,1
0,72,0,9
0,69,80,2
0,79,0,9
0,69,0,1
0,64,0,0
0,60,0,0
0,57,0,0
0,33,0,0
0,79,0,0
0,81,64,2
0,78,80,0
0,66,64,0
0,62,64,0
0,57,64,0
0,38,88,0
0,59,64,0
0,36,64,0
0,59,0,1
0,36,0,0
0,81,64,0
0,78,0,9
0,74,80,2
0,74,0,10
0,57,80,2
0,59,64,0
0,59,0,1
0,57,0,9
0,81,80,2
0,81,0,10
0,74,80,2
0,59,64,0
0,38,48,0
0,59,0,1
0,38,0,0
0,38,64,1
0,38,0,1
0,74,0,7
0,57,80,2
0,57,0,10
0,45,80,2
0,59,64,0
0,59,0,1
0,38,0,19
0,45,0,2
0,69,64,2
0,59,64,0
0,36,64,0
0,59,0,1
0,36,0,0
0,69,0,11
0,67,64,0
0,38,72,0
0,38,50,0
0,38,0,1
0,81,0,9
0,38,0,0
0,81,0,1
0,67,0,1
0,81,64,0
0,66,64,0
0,31,72,0
0,36,50,0
0,59,64,0
0,36,0,1
0,59,0,0
0,81,64,0
0,81,0,9
0,31,0,0
0,81,0,1
0,66,0,1
0,83,64,0
0,67,64,0
0,32,72,0
0,36,50,0
0,36,0,1
0,83,64,0
0,83,0,9
0,32,0,0
0,83,0,1
0,67,0,1
0,81,64,0
0,69,64,0
0,33,72,0
0,59,64,0
0,38,48,0
0,59,0,1
0,38,0,0
0,81,64,0
0,38,64,1
0,38,0,1
0,81,0,19
0,81,0,1
0,79,64,1
0,59,64,0
0,59,0,1
0,79,64,0
0,79,0,9
0,33,0,0
0,79,0,1
0,78,64,1
0,38,72,0
0,78,64,1
0,38,0,7
0,69,0,1
0,78,0,1
0,66,0,0
0,62,0,0
0,57,0,0
0,78,0,1
0,79,64,1
0,64,64,0
0,60,64,0
0,55,64,0
0,36,88,0
0,59,64,0
0,36,64,0
0,59,0,1
0,36,0,0
0,79,64,0
0,36,0,21
0,36,88,2
0,59,64,0
0,59,0,1
0,66,64,23
0,78,80,0
0,59,64,0
0,38,48,0
0,59,0,1
0,38,0,0
0,38,64,1
0,38,0,1
0,78,0,7
0,76,80,2
0,76,0,10
0,72,80,2
0,59,64,0
0,59,0,1
0,66,0,9
0,72,0,0
0,67,64,2
0,78,80,0
0,78,0,2
0,79,80,1
0,36,0,5
0,79,0,3
0,76,80,1
0,59,64,0
0,36,64,0
0,59,0,1
0,36,0,0
0,76,0,9
0,72,80,2
0,48,72,0
0,38,50,0
0,38,0,1
0,48,0,7
0,67,0,2
0,72,0,0
0,66,64,2
0,81,80,0
0,36,72,0
0,36,50,0
0,59,64,0
0,36,0,1
0,59,0,0
0,36,0,7
0,81,0,2
0,76,80,2
0,36,72,0
0,36,50,0
0,36,0,1
0,36,0,7
0,66,0,2
0,76,0,0
0,64,64,2
0,72,80,0
0,48,72,0
0,59,64,0
0,38,48,0
0,59,0,1
0,38,0,0
0,38,64,1
0,38,0,1
0,72,0,7
0,79,80,2
0,79,0,10
0,76,80,2
0,59,64,0
0,59,0,1
0,76,0,9
0,72,80,2
0,64,0,9
0,48,0,0
0,79,0,1
0,72,0,0
