track,note,velocity,time
1,57,80,917
1,48,80,20
1,45,80,20
1,60,80,20
1,50,80,20
1,57,80,20
1,48,80,20
1,45,80,20
1,60,80,20
1,50,80,20
1,57,80,20
1,48,80,20
1,45,80,20
1,60,80,20
1,50,80,20
1,57,80,20
1,48,80,20
1,45,80,20
1,60,80,20
1,50,80,20
1,57,80,20
1,48,80,20
1,45,80,20
1,60,80,20
1,50,80,20
1,57,80,20
1,48,80,20
1,45,80,20
1,60,80,20
1,50,80,20
1,57,80,20
1,48,80,20
1,45,80,20
1,60,80,20
1,50,80,20
1,57,80,20
1,48,80,20
1,45,80,20
1,60,80,20
1,50,80,20
1,57,80,20
1,48,80,20
1,45,80,20
1,60,80,20
1,50,80,20
1,57,80,20
1,48,80,20
1,45,80,20
1,60,80,20
1,50,80,20
1,57,80,20
1,48,80,20
1,45,80,20
1,60,80,20
1,50,80,20
1,57,80,20
1,48,80,20
1,45,80,20
1,60,80,20
1,50,80,20
1,57,80,20
1,48,80,20
1,45,80,20
1,60,80,20
1,50,80,20
1,57,80,20
1,48,80,20
1,45,80,20
1,60,80,20
1,50,80,20
1,57,80,20
1,48,80,20
1,45,80,20
1,60,80,20
1,50,80,20
1,57,80,20
1,48,80,20
1,45,80,20
1,60,80,20
1,50,80,20
1,57,80,20
1,48,80,20
1,45,80,20
1,60,80,20
1,50,80,20
1,57,80,20
1,48,80,20
1,45,80,20
1,60,80,20
1,50,80,20
1,57,80,20
1,48,80,20
1,45,80,20
1,60,80,20
1,50,80,20
1,57,80,20
1,48,80,20
1,45,80,20
1,60,80,20
1,50,80,20
1,57,80,20
1,48,80,20
1,45,80,20
1,60,80,20
1,50,80,20
1,57,80,20
1,48,80,20
1,45,80,20
1,60,80,20
1,50,80,20
1,57,80,20
1,48,80,20
1,45,80,20
1,60,80,20
1,50,80,20
1,57,80,20
1,48,80,20
1,45,80,20
1,60,80,20
1,50,80,20
1,57,80,20
1,48,80,20
1,45,80,20
1,60,80,20
1,50,80,20
1,57,80,20
1,48,80,20
1,45,80,20
1,60,80,20
1,50,80,20
1,57,80,20
1,48,80,20
1,45,80,20
1,60,80,20
1,50,80,20
1,57,80,20
1,48,80,20
1,45,80,20
1,60,80,20
1,50,80,20
1,57,80,20
1,48,80,20
1,45,80,20
1,60,80,20
1,50,80,20
1,57,80,20
1,48,80,20
1,45,80,20
1,60,80,20
1,50,80,20
1,57,80,20
1,48,80,20
1,45,80,20
1,60,80,20
1,50,80,20
1,57,80,20
1,48,80,20
1,45,80,20
1,60,80,20
1,50,80,20
1,63,80,20
1,56,80,15
1,51,80,15
1,61,80,15
1,56,80,15
1,59,80,15
1,56,80,15
1,51,80,15
1,63,80,15
1,56,80,15
1,61,80,15
1,56,80,15
1,59,80,15
1,56,80,15
1,51,80,15
1,51,80,15
1,63,80,15
1,56,80,15
1,51,80,15
1,61,80,15
1,56,80,15
1,59,80,15
1,56,80,15
1,51,80,15
1,63,80,15
1,56,80,15
1,61,80,15
1,56,80,15
1,59,80,15
1,56,80,15
1,51,80,15
1,51,80,15
1,63,80,15
1,56,80,15
1,51,80,15
1,61,80,15
1,56,80,15
1,59,80,15
1,56,80,15
1,51,80,15
1,63,80,15
1,56,80,15
1,61,80,15
1,56,80,15
1,59,80,15
1,56,80,15
1,51,80,15
1,51,80,15
1,63,80,15
1,56,80,15
1,51,80,15
1,61,80,15
1,56,80,15
1,59,80,15
1,56,80,15
1,51,80,15
1,63,80,15
1,56,80,15
1,61,80,15
1,56,80,15
1,59,80,15
1,56,80,15
1,51,80,15
1,51,80,15
1,63,80,15
1,56,80,15
1,51,80,15
1,61,80,15
1,56,80,15
1,59,80,15
1,56,80,15
1,51,80,15
1,63,80,15
1,56,80,15
1,61,80,15
1,56,80,15
1,59,80,15
1,56,80,15
1,51,80,15
1,51,80,15
1,63,80,15
1,56,80,15
1,51,80,15
1,61,80,15
1,56,80,15
1,59,80,15
1,56,80,15
1,51,80,15
1,63,80,15
1,56,80,15
1,61,80,15
1,56,80,15
1,59,80,15
1,56,80,15
1,51,80,15
1,51,80,15
1,63,80,15
1,56,80,15
1,51,80,15
1,61,80,15
1,56,80,15
1,59,80,15
1,56,80,15
1,51,80,15
1,63,80,15
1,56,80,15
1,61,80,15
1,56,80,15
1,59,80,15
1,56,80,15
1,51,80,15
1,51,80,15
1,63,80,15
1,56,80,15
1,51,80,15
1,61,80,15
1,56,80,15
1,59,80,15
1,56,80,15
1,51,80,15
1,63,80,15
1,56,80,15
1,61,80,15
1,56,80,15
1,59,80,15
1,56,80,15
1,51,80,15
1,51,80,15
1,57,80,15
1,48,80,30
1,45,80,30
1,60,80,30
1,50,80,30
1,57,80,30
1,48,80,30
1,45,80,30
1,60,80,30
1,50,80,30
1,57,80,30
1,48,80,30
1,45,80,30
1,60,80,30
1,50,80,30
1,57,80,30
1,48,80,30
1,45,80,30
1,60,80,30
1,57,80,30
1,48,80,30
1,45,80,30
1,60,80,30
1,50,80,30
1,57,80,30
1,48,80,30
1,45,80,30
1,60,80,30
1,50,80,30
1,57,80,30
1,48,80,30
1,45,80,30
1,60,80,30
1,57,80,30
1,48,80,30
1,45,80,30
1,60,80,30
1,50,80,30
1,57,80,30
1,48,80,30
1,45,80,30
1,60,80,30
1,57,80,30
1,48,80,30
1,45,80,30
1,60,80,30
1,50,80,30
1,57,80,30
1,48,80,30
1,45,80,30
1,60,80,30
1,57,80,30
1,48,80,30
1,45,80,30
1,60,80,30
1,50,80,30
1,57,80,30
1,48,80,30
1,45,80,30
1,60,80,30
1,57,80,30
1,48,80,30
1,45,80,30
1,60,80,30
1,50,80,30
1,57,80,30
1,48,80,30
1,45,80,30
1,60,80,30
1,50,80,30
1,57,80,30
1,48,80,30
1,45,80,30
1,60,80,30
1,50,80,30
1,57,80,30
1,48,80,30
1,45,80,30
1,60,80,30
1,50,80,30
1,63,80,30
1,56,80,15
1,51,80,15
1,61,80,15
1,56,80,15
1,59,80,15
1,56,80,15
1,51,80,15
1,63,80,15
1,56,80,15
1,61,80,15
1,56,80,15
1,59,80,15
1,56,80,15
1,51,80,15
1,51,80,15
1,63,80,15
1,56,80,15
1,51,80,15
1,61,80,15
1,56,80,15
1,59,80,15
1,56,80,15
1,51,80,15
1,63,80,15
1,56,80,15
1,61,80,15
1,56,80,15
1,59,80,15
1,56,80,15
1,51,80,15
1,51,80,15
1,63,80,15
1,56,80,15
1,51,80,15
1,61,80,15
1,56,80,15
1,59,80,15
1,56,80,15
1,51,80,15
1,63,80,15
1,56,80,15
1,61,80,15
1,56,80,15
1,59,80,15
1,56,80,15
1,51,80,15
1,51,80,15
1,63,80,15
1,56,80,15
1,51,80,15
1,61,80,15
1,56,80,15
1,59,80,15
1,56,80,15
1,51,80,15
1,63,80,15
1,56,80,15
1,61,80,15
1,56,80,15
1,59,80,15
1,56,80,15
1,51,80,15
1,51,80,15
1,63,80,15
1,56,80,15
1,51,80,15
1,61,80,15
1,56,80,15
1,59,80,15
1,56,80,15
1,51,80,15
1,63,80,15
1,56,80,15
1,61,80,15
1,56,80,15
1,59,80,15
1,56,80,15
1,51,80,15
1,51,80,15
1,63,80,15
1,56,80,15
1,51,80,15
1,61,80,15
1,56,80,15
1,59,80,15
1,56,80,15
1,51,80,15
1,63,80,15
1,56,80,15
1,61,80,15
1,56,80,15
1,59,80,15
1,56,80,15
1,51,80,15
1,51,80,15
1,63,80,15
1,56,80,15
1,51,80,15
1,61,80,15
1,56,80,15
1,59,80,15
1,56,80,15
1,51,80,15
1,63,80,15
1,56,80,15
1,61,80,15
1,56,80,15
1,59,80,15
1,56,80,15
1,51,80,15
1,51,80,15
1,63,80,15
1,56,80,15
1,51,80,15
1,61,80,15
1,56,80,15
1,59,80,15
1,56,80,15
1,51,80,15
1,63,80,15
1,56,80,15
1,61,80,15
1,56,80,15
1,59,80,15
1,56,80,15
1,51,80,15
1,51,80,15
1,66,80,15
1,61,80,15
1,54,80,15
1,64,80,15
1,59,80,15
1,66,80,15
1,61,80,15
1,54,80,15
1,64,80,15
1,59,80,15
1,66,80,15
1,61,80,15
1,54,80,15
1,69,80,15
1,59,80,15
1,66,80,15
1,61,80,15
1,54,80,15
1,64,80,15
1,59,80,15
1,66,80,15
1,61,80,15
1,54,80,15
1,64,80,15
1,59,80,15
1,66,80,15
1,61,80,15
1,54,80,15
1,69,80,15
1,59,80,15
1,66,80,15
1,61,80,15
1,54,80,15
1,64,80,15
1,59,80,15
1,66,80,15
1,61,80,15
1,54,80,15
1,64,80,15
1,59,80,15
1,66,80,15
1,61,80,15
1,54,80,15
1,69,80,15
1,59,80,15
1,66,80,15
1,61,80,15
1,54,80,15
1,64,80,15
1,59,80,15
1,66,80,15
1,61,80,15
1,54,80,15
1,64,80,15
1,59,80,15
1,66,80,15
1,61,80,15
1,54,80,15
1,69,80,15
1,66,80,15
1,61,80,15
1,54,80,15
1,64,80,15
1,59,80,15
1,66,80,15
1,61,80,15
1,54,80,15
1,64,80,15
1,59,80,15
1,66,80,15
1,61,80,15
1,54,80,15
1,69,80,15
1,66,80,15
1,61,80,15
1,54,80,15
1,64,80,15
1,59,80,15
1,66,80,15
1,61,80,15
1,54,80,15
1,64,80,15
1,59,80,15
1,66,80,15
1,61,80,15
1,54,80,15
1,69,80,15
1,66,80,15
1,61,80,15
1,54,80,15
1,64,80,15
1,59,80,15
1,66,80,15
1,61,80,15
1,54,80,15
1,64,80,15
1,59,80,15
1,66,80,15
1,61,80,15
1,54,80,15
1,69,80,15
1,66,80,15
1,61,80,15
1,54,80,15
1,64,80,15
1,59,80,15
1,66,80,15
1,61,80,15
1,54,80,15
1,64,80,15
1,59,80,15
1,66,80,15
1,61,80,15
1,54,80,15
1,69,80,15
1,66,80,15
1,61,80,15
1,54,80,15
1,64,80,15
1,59,80,15
1,66,80,15
1,61,80,15
1,54,80,15
1,64,80,15
1,59,80,15
1,66,80,15
1,61,80,15
1,54,80,15
1,69,80,15
1,66,80,15
1,61,80,15
1,54,80,15
1,64,80,15
1,59,80,15
1,66,80,15
1,61,80,15
1,54,80,15
1,64,80,15
1,59,80,15
1,66,80,15
1,61,80,15
1,54,80,15
1,69,80,15
1,66,80,15
1,61,80,15
1,54,80,15
1,64,80,15
1,59,80,15
1,66,80,15
1,61,80,15
1,54,80,15
1,64,80,15
1,59,80,15
1,66,80,15
1,61,80,15
1,54,80,15
1,69,80,15
1,66,80,15
1,61,80,15
1,54,80,15
1,64,80,15
1,59,80,15
1,66,80,15
1,61,80,15
1,54,80,15
1,64,80,15
1,59,80,15
1,66,80,15
1,61,80,15
1,54,80,15
1,69,80,15
1,66,80,15
1,61,80,15
1,54,80,15
1,64,80,15
1,59,80,15
1,66,80,15
1,61,80,15
1,54,80,15
1,64,80,15
1,59,80,15
1,66,80,15
1,61,80,15
1,54,80,15
1,69,80,15
1,66,80,15
1,61,80,15
1,54,80,15
1,64,80,15
1,59,80,15
1,66,80,15
1,61,80,15
1,54,80,15
1,69,80,15
1,59,80,15
1,66,80,15
1,61,80,15
1,54,80,15
1,64,80,19
1,59,80,11
1,66,80,15
1,61,80,15
1,54,80,15
1,64,80,15
1,59,80,15
1,66,80,15
1,61,80,15
1,54,80,15
1,69,80,15
1,59,80,15
1,66,80,15
1,61,80,15
1,54,80,15
1,64,80,15
1,59,80,15
1,66,80,15
1,61,80,15
1,54,80,15
1,64,80,15
1,59,80,15
1,66,80,15
1,61,80,15
1,54,80,15
1,69,80,15
1,59,80,15
1,66,80,15
1,61,80,15
1,54,80,15
1,64,80,15
1,59,80,15
1,66,80,15
1,61,80,15
1,54,80,15
1,64,80,15
1,59,80,15
1,66,80,15
1,61,80,15
1,54,80,15
1,69,80,15
1,59,80,15
1,69,80,109
1,64,80,15
1,60,80,15
1,67,80,15
1,62,80,15
1,64,80,15
1,60,80,15
1,55,80,15
1,62,80,15
1,57,80,15
1,57,80,15
1,52,80,15
1,55,80,15
1,50,80,15
1,52,80,15
1,48,80,15
1,50,80,15
1,45,80,15
1,69,80,135
1,64,80,15
1,60,80,15
1,67,80,15
1,62,80,15
1,64,80,15
1,60,80,15
1,55,80,15
1,62,80,15
1,57,80,15
1,57,80,15
1,52,80,15
1,55,80,15
1,50,80,15
1,52,80,15
1,48,80,15
1,50,80,15
1,45,80,15
1,69,80,135
1,64,80,15
1,60,80,15
1,67,80,15
1,62,80,15
1,64,80,15
1,60,80,15
1,55,80,15
1,62,80,15
1,57,80,15
1,57,80,15
1,52,80,15
1,55,80,15
1,50,80,15
1,52,80,15
1,48,80,15
1,50,80,15
1,45,80,15
1,69,80,135
1,64,80,15
1,60,80,15
1,67,80,15
1,62,80,15
1,64,80,15
1,60,80,15
1,55,80,15
1,62,80,15
1,57,80,15
1,57,80,15
1,52,80,15
1,55,80,15
1,50,80,15
1,52,80,15
1,48,80,15
1,50,80,15
1,45,80,15
1,72,80,15
1,67,80,15
1,63,80,15
1,70,80,15
1,65,80,15
1,67,80,15
1,63,80,15
1,58,80,15
1,65,80,15
1,60,80,15
1,63,80,15
1,58,80,15
1,60,80,19
1,55,80,11
1,58,80,15
1,53,80,15
1,55,80,15
1,51,80,15
1,48,80,15
1,72,80,75
1,67,80,15
1,63,80,15
1,70,80,15
1,65,80,15
1,67,80,15
1,63,80,15
1,58,80,15
1,65,80,15
1,60,80,15
1,63,80,15
1,58,80,15
1,60,80,19
1,55,80,11
1,58,80,15
1,53,80,15
1,55,80,15
1,51,80,15
1,48,80,15
1,72,80,75
1,67,80,15
1,63,80,15
1,70,80,15
1,65,80,15
1,67,80,15
1,63,80,15
1,58,80,15
1,65,80,15
1,60,80,15
1,63,80,15
1,58,80,15
1,60,80,19
1,55,80,11
1,58,80,15
1,53,80,15
1,55,80,15
1,51,80,15
1,48,80,15
1,72,80,75
1,67,80,15
1,63,80,15
1,70,80,15
1,65,80,15
1,67,80,15
1,63,80,15
1,58,80,15
1,65,80,15
1,60,80,15
1,63,80,15
1,58,80,15
1,60,80,19
1,55,80,11
1,58,80,15
1,53,80,15
1,55,80,15
1,51,80,15
1,48,80,15
1,72,80,75
1,67,80,15
1,63,80,15
1,70,80,15
1,65,80,15
1,67,80,15
1,63,80,15
1,58,80,15
1,65,80,15
1,60,80,15
1,63,80,15
1,58,80,15
1,60,80,19
1,55,80,11
1,58,80,15
1,53,80,15
1,55,80,15
1,51,80,15
1,48,80,15
1,72,80,75
1,67,80,15
1,63,80,15
1,70,80,15
1,65,80,15
1,67,80,15
1,63,80,15
1,58,80,15
1,65,80,15
1,60,80,15
1,63,80,15
1,58,80,15
1,60,80,19
1,55,80,11
1,58,80,15
1,53,80,15
1,55,80,15
1,51,80,15
1,48,80,15
1,72,80,75
1,67,80,15
1,63,80,15
1,70,80,15
1,65,80,15
1,67,80,15
1,63,80,15
1,58,80,15
1,65,80,15
1,60,80,15
1,63,80,15
1,58,80,15
1,60,80,19
1,55,80,11
1,58,80,15
1,53,80,15
1,55,80,15
1,51,80,15
1,48,80,15
1,72,80,75
1,67,80,15
1,63,80,15
1,70,80,15
1,65,80,15
1,67,80,15
1,63,80,15
1,58,80,15
1,65,80,15
1,60,80,15
1,63,80,15
1,58,80,15
1,60,80,19
1,55,80,11
1,58,80,15
1,53,80,15
1,55,80,15
1,51,80,15
1,48,80,15
1,72,80,75
1,67,80,15
1,60,80,15
1,70,80,15
1,65,80,15
1,72,80,15
1,67,80,15
1,60,80,15
1,70,80,15
1,65,80,15
1,72,80,15
1,67,80,15
1,60,80,15
1,75,80,15
1,65,80,15
1,72,80,15
1,67,80,15
1,60,80,15
1,70,80,15
1,65,80,15
1,72,80,15
1,67,80,15
1,60,80,15
1,70,80,15
1,65,80,15
1,72,80,15
1,67,80,15
1,60,80,15
1,75,80,15
1,72,80,15
1,67,80,15
1,60,80,15
1,70,80,15
1,65,80,15
1,72,80,15
1,67,80,15
1,60,80,15
1,70,80,15
1,65,80,15
1,72,80,15
