track,note,velocity,time
1,43,80,3072
1,41,80,0
1,38,80,0
1,39,80,0
1,43,80,0
1,41,80,0
1,38,80,0
1,39,80,0
1,43,80,0
1,41,80,0
1,38,80,0
1,39,80,0
1,43,80,0
1,41,80,0
1,38,80,0
1,39,80,0
1,38,84,0
1,43,79,306
1,38,79,124
1,38,72,102
1,43,79,128
1,36,87,328
1,41,87,212
1,36,84,126
1,36,75,172
1,41,100,192
1,38,79,290
1,41,94,292
1,38,87,106
1,38,75,134
1,41,87,192
1,39,87,14
1,43,84,384
1,39,79,286
1,43,87,350
1,41,79,156
1,43,87,0
1,43,85,12
1,38,79,46
1,43,87,8
1,43,79,122
1,43,82,34
1,41,57,100
1,43,75,32
1,43,82,6
1,38,87,180
1,41,80,296
1,41,100,0
1,41,87,72
1,36,79,0
1,41,84,118
1,41,80,18
1,36,72,84
1,41,68,20
1,41,79,0
1,36,94,116
1,41,85,122
1,38,79,0
1,41,79,510
1,38,69,16
1,41,79,134
1,39,75,16
1,43,75,516
1,41,79,2
1,43,79,10
1,43,85,12
1,38,94,46
1,43,87,8
1,43,79,146
1,43,82,2
1,43,64,94
1,41,57,6
1,43,82,38
1,38,87,84
1,41,100,0
1,38,87,0
1,36,87,322
1,41,87,120
1,41,75,168
1,36,94,128
1,38,84,4
1,38,79,92
1,38,82,34
1,36,57,98
1,38,75,224
1,50,98,128
1,39,100,144
1,39,94,78
1,41,87,576
1,39,87,52
1,44,79,158
1,39,84,4
1,44,87,172
1,39,100,20
1,44,87,188
1,39,100,8
1,44,79,180
1,39,87,16
1,44,94,192
1,39,79,20
1,44,84,194
1,39,87,182
1,44,84,180
1,39,87,180
1,44,79,160
1,39,100,4
1,43,84,180
1,39,87,184
1,43,75,178
1,39,87,184
1,43,75,166
1,39,100,172
1,43,84,40
1,41,84,216
1,38,94,0
1,39,100,88
1,40,94,156
1,41,75,8
1,39,79,10
1,44,63,194
1,39,100,14
1,44,84,186
1,39,87,4
1,44,79,186
1,39,79,4
1,44,84,184
1,39,87,4
1,44,84,188
1,39,79,14
1,44,84,180
1,39,75,4
1,44,79,192
1,39,87,176
1,44,84,168
1,39,87,40
1,43,79,196
1,39,84,180
1,43,79,184
1,39,79,170
1,43,75,166
1,39,87,170
1,43,87,170
1,41,84,0
1,41,84,114
1,43,74,104
1,41,79,160
1,41,79,138
1,45,75,184
1,41,74,96
1,45,87,194
1,41,75,150
1,45,75,184
1,41,75,4
1,45,84,130
1,41,74,132
1,45,74,172
1,41,72,146
1,45,74,154
1,41,72,136
1,45,84,154
1,41,67,148
1,45,75,112
1,42,75,4
1,45,75,132
1,42,87,170
1,45,79,132
1,42,79,168
1,45,84,6
1,42,84,178
1,45,79,102
1,46,87,30
1,45,87,360
1,43,67,338
1,45,79,186
1,46,75,144
1,45,75,132
1,43,84,0
1,45,60,0
1,38,75,304
1,43,100,64
1,43,75,182
1,38,87,192
1,41,80,2
1,41,100,0
1,41,87,72
1,36,87,0
1,41,87,152
1,41,80,14
1,36,72,84
1,41,68,20
1,41,84,0
1,36,94,191
1,41,85,98
1,38,80,2
1,38,94,0
1,38,87,72
1,41,79,0
1,38,100,66
1,38,80,26
1,33,72,112
1,38,68,20
1,38,74,0
1,41,87,118
1,38,85,6
1,39,87,0
1,43,84,320
1,39,79,12
1,43,87,350
1,41,79,32
1,43,80,0
1,43,79,0
1,43,87,72
1,38,87,0
1,43,87,110
1,43,80,28
1,38,72,84
1,43,68,20
1,43,69,0
1,38,87,191
1,43,85,88
1,41,80,8
1,41,100,0
1,41,87,72
1,36,79,0
1,41,94,192
1,41,80,12
1,36,72,84
1,41,68,20
1,41,79,0
1,36,87,112
1,41,85,96
1,38,80,2
1,38,84,0
1,38,87,72
1,41,79,192
1,38,80,2
1,33,72,0
1,38,68,20
1,38,69,0
1,41,79,176
1,38,85,0
1,39,87,0
1,43,84,384
1,39,79,2
1,43,87,152
1,41,79,90
1,43,82,0
1,43,61,0
1,43,87,74
1,38,69,20
1,43,74,4
1,43,74,2
1,41,57,82
1,43,87,36
1,43,72,0
1,38,72,28
1,43,85,106
1,41,80,42
1,41,79,0
1,41,87,56
1,36,69,0
1,41,84,168
1,41,80,0
1,36,72,84
1,41,68,20
1,41,79,0
1,36,79,2
1,41,85,120
1,38,80,24
1,38,79,0
1,38,87,40
1,41,84,0
1,38,84,104
1,38,80,2
1,33,72,88
1,38,68,20
1,38,75,0
1,41,79,118
1,38,85,110
1,39,84,0
1,41,79,0
1,43,87,370
1,39,87,116
1,39,75,156
1,43,72,192
1,41,72,142
1,39,87,20
1,44,79,118
1,39,84,4
1,44,87,172
1,39,100,20
1,44,87,188
1,39,100,8
1,44,79,180
1,39,87,16
1,44,94,192
1,39,79,20
1,44,84,194
1,39,87,182
1,44,84,180
1,39,87,180
1,44,79,160
1,39,100,4
1,43,84,180
1,39,87,92
1,43,75,178
1,39,87,184
1,43,75,166
1,39,100,172
1,43,84,40
1,41,84,216
1,38,94,0
1,39,100,378
1,40,94,156
1,41,75,8
1,39,87,34
1,44,79,198
1,39,84,4
1,44,87,172
1,39,100,20
1,44,87,188
1,39,100,8
1,44,79,180
1,39,87,16
1,44,94,192
1,39,79,20
1,44,84,194
1,39,87,182
1,44,84,180
1,39,87,180
1,44,79,160
1,39,100,4
1,39,87,0
1,39,98,80
1,39,85,56
1,34,78,106
1,39,80,26
1,39,85,52
1,31,80,94
1,43,80,0
1,41,87,0
1,38,85,0
1,36,87,0
1,43,87,0
1,41,87,0
1,38,85,0
1,39,87,0
1,43,85,0
1,43,82,58
1,43,87,62
1,38,52,112
1,43,89,42
1,43,100,48
1,41,87,90
1,41,98,80
1,41,85,56
1,36,78,106
1,41,80,26
1,41,85,52
1,38,85,94
1,38,82,58
1,38,87,62
1,33,52,112
1,38,89,42
1,38,100,48
1,36,87,90
1,36,98,80
1,36,85,56
1,31,78,106
1,36,80,26
1,36,85,52
1,43,85,94
1,43,82,58
1,43,87,62
1,38,52,112
1,43,89,42
1,43,100,48
1,41,85,90
1,41,82,58
1,41,87,62
1,36,52,112
1,41,89,42
1,41,100,48
1,38,87,90
1,38,98,80
1,38,85,56
1,33,78,106
1,38,80,26
1,38,85,52
1,36,85,94
1,36,82,58
1,36,87,62
1,31,52,112
1,36,89,42
1,36,100,48
1,43,87,90
1,43,85,64
1,43,89,58
1,41,68,104
1,43,91,40
1,38,80,14
1,41,85,120
1,41,82,58
1,41,87,62
1,36,52,112
1,41,89,42
1,41,100,48
1,38,87,90
1,38,85,64
1,38,89,58
1,36,68,104
1,38,91,40
1,33,80,14
1,36,87,120
1,36,98,80
1,36,85,56
1,31,78,106
1,36,80,26
1,36,85,52
1,39,87,114
1,44,79,198
1,39,84,4
1,44,87,172
1,39,100,20
1,44,87,188
1,39,100,8
1,44,79,180
1,39,87,16
1,44,94,192
1,39,79,20
1,44,84,194
1,39,87,182
1,44,84,180
1,39,87,180
1,44,79,160
1,39,100,4
1,39,85,0
1,39,82,58
1,39,87,62
1,34,52,112
1,39,89,42
1,39,100,48
1,34,87,90
1,34,98,80
1,34,85,56
1,29,78,106
1,34,80,26
1,34,85,52
1,39,87,114
1,44,79,198
1,39,84,4
1,44,87,172
1,39,100,20
1,44,87,188
1,39,100,8
1,44,79,180
1,39,87,16
1,44,94,192
1,39,79,20
1,44,84,194
1,39,87,182
1,44,84,180
1,39,87,180
1,44,79,160
1,39,100,4
1,39,87,0
1,39,98,80
1,39,85,56
1,34,78,106
1,39,80,26
1,39,85,52
1,34,87,94
1,34,98,80
1,34,85,56
1,29,78,106
1,34,80,26
1,34,85,52
1,41,79,110
1,45,75,184
1,41,74,158
1,45,87,194
1,41,75,150
1,45,75,184
1,41,75,4
1,45,84,192
1,41,74,178
1,45,74,198
1,41,72,160
1,45,74,184
1,41,72,166
1,45,84,180
1,41,67,176
1,45,75,164
1,42,75,4
1,45,75,190
1,42,87,170
1,45,79,184
1,42,79,168
1,45,84,6
1,42,84,178
1,45,79,152
1,38,84,0
1,38,84,100
1,38,84,128
1,36,84,88
1,36,84,80
1,36,84,116
1,38,84,192
1,43,87,110
1,43,85,64
1,43,89,58
1,41,68,104
1,43,91,40
1,38,80,14
1,41,87,120
1,41,98,80
1,41,85,56
1,36,78,106
1,41,80,26
1,41,85,52
1,38,87,94
1,38,98,80
1,38,85,56
1,33,78,106
1,38,80,26
1,38,85,52
1,36,87,94
1,36,98,80
1,36,85,56
1,31,78,106
1,36,80,26
1,36,85,52
1,43,87,94
1,43,85,64
1,43,89,58
1,41,68,104
1,43,91,40
1,38,80,14
1,41,87,120
1,41,98,80
1,41,85,56
1,36,78,106
1,41,80,26
1,41,85,52
1,38,85,94
1,38,82,58
1,38,87,62
1,33,52,112
1,38,89,42
1,38,100,48
1,36,87,90
1,36,98,80
1,36,85,56
1,31,78,106
1,36,80,26
1,36,85,52
1,43,87,94
1,43,85,64
1,43,89,58
1,41,68,104
1,43,91,40
1,38,80,14
1,41,85,120
1,41,82,58
1,41,87,62
1,36,52,112
1,41,89,42
1,41,100,48
1,38,87,90
1,38,85,64
1,38,89,58
1,36,68,104
1,38,91,40
1,33,80,14
1,36,85,120
1,36,82,58
1,36,87,62
1,31,52,112
1,36,89,42
1,36,100,48
1,43,85,90
1,43,82,58
1,43,87,62
1,38,52,112
1,43,89,42
1,43,100,48
1,41,85,90
1,41,82,58
1,41,87,62
1,36,52,112
1,41,89,42
1,41,100,48
1,38,85,90
1,38,82,58
1,38,87,62
1,33,52,112
1,38,89,42
1,38,100,48
1,36,87,90
1,36,85,64
1,36,89,58
1,34,68,104
1,36,91,40
1,31,80,14
1,43,87,120
1,43,98,80
1,43,85,56
1,38,78,106
1,43,80,26
1,43,85,52
1,41,87,94
1,41,98,80
1,41,85,56
1,36,78,106
1,41,80,26
1,41,85,52
1,38,87,94
1,38,98,80
1,38,85,56
1,33,78,106
1,38,80,26
1,38,85,52
1,36,85,94
1,36,82,58
1,36,87,62
1,31,52,112
1,36,89,42
1,36,100,48
1,43,87,90
1,43,85,64
1,43,89,58
1,41,68,104
1,43,91,40
1,38,80,14
1,41,87,120
1,41,98,80
1,41,85,56
1,36,78,106
1,41,80,26
1,41,85,52
1,38,87,94
1,38,85,64
1,38,89,58
1,36,68,104
1,38,91,40
1,33,80,14
1,36,87,120
1,36,85,64
1,36,89,58
1,34,68,104
1,36,91,40
1,31,80,14
1,43,87,120
1,43,85,64
1,43,89,58
1,41,68,104
1,43,91,40
1,38,80,14
1,41,87,120
1,41,98,80
1,41,85,56
1,36,78,106
1,41,80,26
1,41,85,52
1,38,87,94
1,38,98,80
1,38,85,56
1,33,78,106
1,38,80,26
1,38,85,52
1,36,87,94
1,36,98,80
1,36,85,56
1,31,78,106
1,36,80,26
1,36,85,52
1,43,87,94
1,43,98,80
1,43,85,56
1,38,78,106
1,43,80,26
1,43,85,52
1,41,87,94
1,41,85,64
1,41,89,58
1,41,68,104
1,41,91,40
1,36,80,14
1,38,87,120
1,38,98,80
1,38,85,56
1,33,78,106
1,38,80,26
1,38,85,52
1,36,87,94
1,36,98,80
1,36,85,56
1,31,78,106
1,36,80,26
1,36,85,52
1,43,85,94
1,43,82,58
1,43,87,62
1,38,52,112
1,43,89,42
1,43,100,48
1,41,87,90
1,41,98,80
1,41,85,56
1,36,78,106
1,41,80,26
1,41,85,52
1,38,85,94
1,38,82,58
1,38,87,62
1,33,52,112
1,38,89,42
1,38,100,48
1,36,87,90
1,36,85,64
1,36,89,58
1,34,68,104
1,36,91,40
1,31,80,14
1,43,85,120
1,43,82,58
1,43,87,62
1,38,52,112
1,43,89,42
1,43,100,48
1,41,87,90
1,41,98,80
1,41,85,56
1,36,78,106
1,41,80,26
1,41,85,52
1,38,87,94
1,38,85,64
1,38,89,58
1,36,68,104
1,38,91,40
1,33,80,14
1,36,85,120
1,36,82,58
1,36,87,62
1,31,52,112
1,36,89,42
1,36,100,48
1,36,64,90
1,36,64,88
1,36,64,94
1,31,64,106
1,31,64,58
1,34,64,78
1,36,64,40
1,36,64,104
2,67,80,3072
2,62,80,0
2,58,80,0
2,70,74,16
2,58,58,0
2,62,52,4
2,55,58,4
2,69,67,0
2,65,82,0
2,60,82,0
2,57,82,0
2,60,61,6
2,57,72,0
2,53,65,2
2,65,73,318
2,62,73,0
2,60,73,0
2,69,73,0
2,50,63,0
2,65,67,8
2,57,60,0
2,62,62,4
2,60,78,0
2,63,79,0
2,60,79,0
2,58,79,0
2,67,79,0
2,67,64,22
2,58,57,6
2,63,52,4
2,55,60,8
2,63,81,148
2,60,81,0
2,58,81,0
2,67,81,0
2,58,64,16
2,70,93,0
2,43,70,0
2,67,91,0
2,58,49,4
2,62,47,0
2,70,87,4
2,55,51,6
2,67,76,320
2,60,60,80
2,57,72,2
2,69,72,6
2,53,67,0
2,57,73,8
2,65,73,0
2,60,73,0
2,57,78,0
2,65,92,192
2,69,78,98
2,65,73,0
2,62,73,0
2,57,73,0
2,50,61,8
2,57,69,6
2,65,67,2
2,62,63,0
2,57,78,0
2,63,73,356
2,60,73,0
2,58,73,0
2,67,73,0
2,67,74,32
2,63,47,0
2,58,58,2
2,55,60,8
2,58,78,0
2,63,92,192
2,67,78,192
2,74,82,0
2,70,82,0
2,67,82,0
2,65,80,0
2,60,80,0
2,57,80,0
2,60,67,42
2,50,61,0
2,65,89,0
2,57,91,960
2,69,95,288
2,63,73,0
2,60,73,0
2,58,73,0
2,67,73,0
2,58,78,0
2,63,92,192
2,67,78,192
2,70,82,0
2,67,82,0
2,62,82,0
2,70,82,52
2,67,82,0
2,62,82,0
2,60,67,432
2,41,61,0
2,69,89,0
2,57,91,960
2,65,80,0
2,62,80,0
2,57,80,0
2,58,67,42
2,48,61,0
2,63,89,0
2,55,91,960
2,67,95,288
2,62,79,0
2,58,79,0
2,55,79,0
2,62,81,148
2,58,81,0
2,55,81,0
2,65,82,16
2,60,82,0
2,57,82,0
2,65,82,52
2,60,82,0
2,57,82,0
2,65,78,144
2,60,78,0
2,57,78,0
2,65,80,287
2,62,80,0
2,57,80,0
2,63,79,42
2,60,79,0
2,58,79,0
2,67,79,0
2,63,81,148
2,60,81,0
2,58,81,0
2,67,81,0
2,62,67,16
2,43,61,0
2,70,89,0
2,58,91,960
2,57,64,0
2,69,93,0
2,41,70,0
2,65,91,0
2,77,86,320
2,65,76,0
2,65,73,96
2,62,73,0
2,57,73,0
2,57,78,0
2,65,92,192
2,69,78,192
2,63,82,0
2,60,82,0
2,58,82,0
2,67,82,0
2,63,82,52
2,60,82,0
2,58,82,0
2,67,82,0
2,63,78,144
2,60,78,0
2,58,78,0
2,67,78,0
2,62,80,287
2,58,80,0
2,55,80,0
2,65,80,42
2,60,80,0
2,57,80,0
2,57,75,42
2,69,83,0
2,62,71,0
2,50,62,672
2,69,98,100
2,57,66,16
2,62,103,96
2,63,82,0
2,60,82,0
2,58,82,0
2,67,82,0
2,63,82,52
2,60,82,0
2,58,82,0
2,67,82,0
2,63,78,144
2,60,78,0
2,58,78,0
2,67,78,0
2,60,75,287
2,68,77,0
2,75,77,384
2,72,85,0
2,60,94,72
2,68,71,42
2,72,79,96
2,75,85,0
2,72,77,96
2,68,66,32
2,60,102,96
2,55,75,0
2,67,83,0
2,58,71,0
2,39,62,672
2,55,66,16
2,58,103,96
2,65,80,0
2,62,80,0
2,58,80,0
2,60,75,42
2,68,77,0
2,75,77,384
2,72,85,0
2,60,94,72
2,68,71,42
2,72,79,96
2,75,85,0
2,72,77,96
2,68,66,32
2,60,102,96
2,63,80,0
2,58,80,0
2,55,80,0
2,53,64,42
2,65,93,0
2,46,70,0
2,62,91,0
2,57,81,96
2,60,81,0
2,65,81,0
2,65,67,206
2,69,85,192
2,72,87,192
2,72,80,0
2,54,80,0
2,69,81,0
2,60,81,0
2,62,81,0
2,66,81,0
2,66,80,0
2,62,80,0
2,57,80,0
2,62,82,0
2,58,82,0
2,55,82,0
