track,note,velocity,time
1,74,105,1152
1,67,103,0
1,72,119,358
1,69,107,0
1,64,101,0
1,65,107,195
1,70,119,0
1,62,101,0
1,64,103,209
1,69,101,0
1,72,103,0
1,70,116,236
1,62,101,0
1,65,103,0
1,64,103,272
1,69,103,0
1,72,103,0
1,70,119,218
1,62,105,0
1,65,109,0
1,64,103,277
1,69,101,0
1,72,103,0
1,64,103,0
1,69,105,0
1,72,107,0
1,64,101,911
1,72,109,0
1,67,107,0
1,65,107,156
1,69,103,0
1,74,103,0
1,60,105,165
1,64,107,0
1,69,98,0
1,65,112,187
1,62,107,0
1,69,105,0
1,62,96,137
1,69,101,0
1,65,109,0
1,60,98,115
1,67,101,0
1,64,101,0
1,58,127,116
1,65,105,0
1,62,107,0
1,58,109,49
1,65,103,4
1,57,93,127
1,64,93,0
1,62,96,0
1,57,87,133
1,61,116,0
1,64,94,0
1,62,103,168
1,57,101,0
1,65,107,0
1,62,98,540
1,69,105,0
1,65,109,0
1,62,93,156
1,65,107,0
1,69,98,0
1,60,96,124
1,67,105,0
1,64,103,0
1,58,127,122
1,62,107,0
1,65,109,0
1,58,114,105
1,65,109,31
1,57,101,132
1,64,98,0
1,62,98,0
1,57,89,126
1,64,93,0
1,61,122,0
1,57,96,187
1,64,98,0
1,61,122,0
1,64,103,0
1,69,105,0
1,72,107,0
1,64,101,911
1,72,109,0
1,67,107,0
1,65,107,156
1,69,103,0
1,74,103,0
1,60,105,165
1,64,107,0
1,69,98,0
1,65,112,187
1,62,107,0
1,69,105,0
1,62,96,137
1,69,101,0
1,65,109,0
1,60,98,115
1,67,101,0
1,64,101,0
1,58,127,116
1,65,105,0
1,62,107,0
1,58,109,49
1,65,103,4
1,57,93,127
1,64,93,0
1,62,96,0
1,57,87,133
1,61,116,0
1,64,94,0
1,62,103,168
1,57,101,0
1,65,107,0
1,62,98,540
1,69,105,0
1,65,109,0
1,62,93,156
1,65,107,0
1,69,98,0
1,60,96,124
1,67,105,0
1,64,103,0
1,58,127,122
1,62,107,0
1,65,109,0
1,58,114,105
1,65,109,31
1,69,98,131
1,72,103,1
1,64,94,2
1,65,109,1921
1,69,96,278
1,72,109,5
1,74,105,0
1,71,101,0
1,67,105,0
1,67,116,174
1,71,93,192
1,74,103,373
1,71,94,383
1,67,105,10
1,64,105,131
1,73,119,0
1,69,103,0
1,73,119,107
1,69,84,192
1,64,91,5
1,69,98,192
1,73,116,94
1,69,87,192
1,64,82,158
1,63,116,84
1,69,98,5
1,72,116,0
1,64,107,357
1,72,107,384
1,69,103,0
1,71,98,220
1,67,107,0
1,62,96,0
1,71,98,5
1,67,101,192
1,62,103,182
1,67,107,177
1,71,101,52
1,67,98,192
1,62,82,3
1,65,112,124
1,70,122,0
1,74,103,0
1,65,112,61
1,74,103,192
1,70,119,0
1,67,112,174
1,72,101,0
1,64,105,0
1,72,109,98
1,67,101,192
1,64,96,168
1,57,103,136
1,62,103,0
1,64,101,0
1,64,94,102
1,61,119,0
1,57,93,0
1,57,98,148
1,62,107,0
1,65,112,0
1,57,101,93
1,65,112,192
1,62,101,0
1,65,109,229
1,62,103,0
1,69,103,0
1,65,105,159
1,62,98,0
1,69,101,0
1,60,101,121
1,64,103,0
1,67,103,0
1,65,107,108
1,62,107,0
1,58,124,0
1,58,124,143
1,65,116,6
1,64,103,0
1,69,105,0
1,72,107,0
1,64,101,911
1,72,109,0
1,67,107,0
1,65,107,156
1,69,103,0
1,74,103,0
1,60,105,165
1,64,107,0
1,69,98,0
1,65,112,187
1,62,107,0
1,69,105,0
1,62,96,137
1,69,101,0
1,65,109,0
1,60,98,115
1,67,101,0
1,64,101,0
1,58,127,116
1,65,105,0
1,62,107,0
1,58,109,49
1,65,103,4
1,57,93,127
1,64,93,0
1,62,96,0
1,57,87,133
1,61,116,0
1,64,94,0
1,62,103,168
1,57,101,0
1,65,107,0
1,62,98,540
1,69,105,0
1,65,109,0
1,62,93,156
1,65,107,0
1,69,98,0
1,60,96,124
1,67,105,0
1,64,103,0
1,58,127,122
1,62,107,0
1,65,109,0
1,58,114,105
1,65,109,31
1,57,101,132
1,64,98,0
1,62,98,0
1,57,89,126
1,64,93,0
1,61,122,0
1,57,96,187
1,64,98,0
1,61,122,0
1,65,107,0
1,62,105,0
1,69,101,0
1,62,93,117
1,69,98,0
1,65,107,0
1,60,98,122
1,67,103,0
1,64,103,0
1,65,107,104
1,62,109,0
1,58,105,960
1,65,98,17
1,64,98,185
1,69,87,0
1,72,107,0
1,65,101,211
1,70,116,0
1,62,103,0
1,72,101,259
1,64,101,0
1,69,101,0
1,70,116,202
1,65,105,0
1,62,101,0
1,64,98,333
1,69,103,0
1,72,103,0
1,70,114,305
1,62,105,0
1,65,109,0
1,64,105,251
1,72,109,0
1,69,103,0
2,41,124,0
2,36,109,1536
2,43,124,136
2,43,116,48
2,36,107,24
2,41,114,192
2,43,114,106
2,36,105,13
2,43,122,171
2,43,114,56
2,38,93,3
2,41,112,96
2,38,105,168
2,41,116,174
2,36,105,9
2,41,116,192
2,43,116,100
2,36,105,23
2,44,124,194
2,45,114,16
2,36,107,95
2,41,116,20
2,36,109,10
2,41,109,1
2,43,124,139
2,36,109,1
2,41,124,0
2,36,109,3
2,41,116,192
2,36,103,27
2,41,116,11
2,36,103,4
2,41,114,192
2,40,109,375
2,38,109,21
2,38,109,151
2,45,105,192
2,38,109,20
2,33,107,7
2,33,107,166
2,40,107,192
2,45,107,10
2,40,103,14
2,33,107,15
2,34,127,175
2,34,127,135
2,33,107,192
2,31,114,188
2,38,96,946
2,43,109,10
2,45,114,106
2,45,112,184
2,45,114,125
2,38,109,15
2,38,109,165
2,36,114,384
2,34,127,360
2,34,127,155
2,33,107,192
2,31,109,181
2,31,116,145
2,33,114,168
2,45,109,960
2,40,101,23
2,33,112,10
2,33,112,115
2,41,124,0
2,36,109,3
2,41,116,192
2,36,103,27
2,41,116,11
2,36,103,4
2,41,114,192
2,40,109,375
2,38,109,21
2,38,109,151
2,45,105,192
2,38,109,20
2,33,107,7
2,33,107,166
2,40,107,192
2,45,107,10
2,40,103,14
2,33,107,15
2,34,127,175
2,34,127,135
2,33,107,192
2,31,114,188
2,38,96,946
2,43,109,10
2,45,114,106
2,45,112,184
2,45,114,125
2,38,109,15
2,38,109,165
2,36,114,384
2,34,127,360
2,34,127,155
2,33,107,192
2,31,109,181
2,31,119,168
2,36,114,2
2,36,107,110
2,41,114,1
2,36,114,11
2,41,109,192
2,36,114,571
2,41,107,7
2,36,114,576
2,41,112,22
2,41,122,126
2,43,119,0
2,43,112,153
2,38,103,192
2,31,109,183
2,43,114,182
2,38,96,17
2,43,107,192
2,38,98,11
2,31,101,192
2,33,103,135
2,45,103,4
2,47,94,15
2,45,107,96
2,40,103,5
2,33,103,50
2,45,109,5
2,40,105,5
2,33,101,384
2,41,124,8
2,36,109,6
2,41,122,192
2,36,107,575
2,41,114,18
2,36,103,576
2,41,112,11
2,41,112,111
2,43,109,18
2,38,109,576
2,43,114,13
2,38,109,576
2,43,114,9
2,38,109,576
2,43,112,10
2,31,112,30
2,33,109,192
2,34,124,43
2,41,101,26
2,46,119,192
2,48,85,15
2,46,127,96
2,41,96,371
2,34,122,1
2,48,114,576
2,46,122,359
2,34,114,29
2,36,116,47
2,50,85,576
2,48,114,379
2,43,98,13
2,36,107,16
2,43,101,11
2,48,94,192
2,50,94,173
2,48,107,380
2,43,85,367
2,33,103,188
2,45,112,15
2,45,116,124
2,40,96,20
2,33,105,23
2,38,114,5
2,38,112,118
2,38,116,140
2,36,114,16
2,34,127,114
2,34,127,164
2,33,105,9
2,31,112,192
2,36,119,24
2,36,119,126
2,36,124,113
2,41,124,0
2,36,109,3
2,41,116,192
2,36,103,27
2,41,116,11
2,36,103,4
2,41,114,192
2,40,109,375
2,38,109,21
2,38,109,151
2,45,105,192
2,38,109,20
2,33,107,7
2,33,107,166
2,40,107,192
2,45,107,10
2,40,103,14
2,33,107,15
2,34,127,175
2,34,127,135
2,33,107,192
2,31,114,188
2,38,96,946
2,43,109,10
2,45,114,106
2,45,112,184
2,45,114,125
2,38,109,15
2,38,109,165
2,36,114,384
2,34,127,360
2,34,127,155
2,33,107,192
2,31,109,181
2,31,116,145
2,33,114,168
2,45,109,960
2,40,101,23
2,33,112,10
2,33,112,115
2,34,119,155
2,34,114,128
2,33,91,192
2,31,98,7
2,31,103,97
2,36,112,192
2,36,114,94
2,41,114,0
2,36,112,576
2,41,109,181
2,43,109,59
2,36,114,192
2,43,124,243
2,43,116,48
2,36,107,24
2,41,112,192
2,36,109,548
2,41,112,191
2,43,103,9
2,36,116,4
2,43,122,76
2,43,114,56
2,38,93,3
2,41,112,96
2,38,105,168
2,41,116,174
2,36,105,9
2,41,116,192
2,43,116,100
2,36,105,23
2,44,124,194
2,45,114,16
2,36,107,95
2,41,122,20
3,77,122,1536
3,72,98,19
3,74,105,192
3,69,98,186
3,72,127,5
3,67,98,3
3,69,119,192
3,62,101,162
3,60,116,11
3,70,119,675
3,74,116,102
3,81,116,182
3,79,116,6
3,81,105,788
3,79,114,13
3,77,109,15
3,86,107,111
3,84,119,384
3,81,103,605
3,79,112,384
3,77,112,354
3,74,107,373
3,72,127,382
3,72,114,1536
3,74,85,192
3,76,77,188
3,77,105,178
3,79,96,1
3,81,82,10
3,84,112,192
3,81,79,1602
3,79,87,1152
3,77,103,371
3,77,103,126
3,76,82,16
3,74,91,192
3,77,107,1340
3,76,89,14
3,77,76,31
3,82,112,228
3,82,107,121
3,81,79,5
3,79,96,2
3,70,94,960
3,77,96,384
3,76,79,8
3,72,114,1536
3,74,85,192
3,76,77,188
3,77,105,178
3,79,96,1
3,81,82,10
3,84,112,192
3,81,79,1602
3,79,87,1152
3,77,103,371
3,77,103,126
3,76,82,16
3,74,91,192
3,77,107,1340
3,76,89,14
3,77,76,31
3,82,112,228
3,82,107,121
3,81,79,5
3,79,96,2
3,70,94,960
3,77,96,384
3,76,79,8
3,65,109,633
3,69,96,399
3,74,114,363
3,67,91,480
3,71,72,14
3,74,75,14
3,71,77,9
3,67,77,5
3,72,107,3167
3,72,114,369
3,71,85,22
3,69,85,7
3,72,112,5
3,67,94,16
3,72,112,841
3,71,73,2
3,69,79,13
3,67,96,206
3,72,114,1536
3,74,85,192
3,76,77,188
3,77,105,178
3,79,96,1
3,81,82,10
3,84,112,192
3,81,79,1602
3,79,87,1152
3,77,103,371
3,77,103,126
3,76,82,16
3,74,91,192
3,77,107,1340
3,76,89,14
3,77,76,31
3,82,112,228
3,82,107,121
3,81,79,5
3,79,96,2
3,70,94,960
3,77,96,384
3,76,79,8
3,77,93,22
3,77,107,140
3,76,69,5
3,74,93,7
3,70,105,120
3,74,91,39
3,72,107,10
3,67,91,814
3,70,84,22
3,74,89,10
3,72,105,1
3,67,93,774
3,70,94,7
3,74,89,9
3,72,107,380
3,67,94,660
3,70,91,11
3,74,93,12
3,72,103,3
4,65,98,0
4,69,103,0
4,72,103,0
4,65,81,63
4,72,94,0
4,69,101,0
4,71,50,620
4,65,94,0
4,72,98,0
4,69,105,0
4,65,81,65
4,72,91,0
4,69,101,0
4,71,79,634
4,65,98,0
4,72,105,0
4,69,107,0
4,65,73,58
4,72,93,0
4,69,98,0
4,71,62,628
4,65,98,0
4,72,105,0
4,69,109,0
4,65,82,58
4,72,96,0
4,69,101,0
4,71,84,635
4,65,94,0
4,72,105,0
4,69,107,0
4,65,87,60
4,72,96,0
4,69,103,0
4,65,98,625
4,74,98,0
4,69,103,0
4,65,91,57
4,69,101,0
4,74,98,0
4,71,79,614
4,64,96,0
4,72,103,0
4,69,103,0
4,64,69,52
4,72,89,0
4,69,96,0
4,71,84,636
4,64,98,0
4,72,105,0
4,69,103,0
4,69,98,57
4,64,81,0
4,72,96,0
4,67,85,627
4,62,91,0
4,69,101,0
4,65,109,0
4,62,77,54
4,65,98,0
4,69,91,0
4,67,72,623
4,62,93,0
4,65,105,0
4,69,98,0
4,67,79,62
4,69,93,0
4,62,84,0
4,65,103,0
4,62,96,637
4,69,101,0
4,65,109,0
4,69,96,57
4,62,79,0
4,65,103,0
4,67,69,637
4,62,98,0
4,69,101,0
4,65,109,0
4,62,82,57
4,69,93,0
4,65,101,0
4,60,91,627
4,69,96,0
4,64,105,0
4,60,77,53
4,69,91,0
4,64,96,0
4,60,87,623
4,69,101,0
4,64,105,0
4,60,89,66
4,69,98,0
4,64,105,0
4,62,91,624
4,65,107,0
4,69,98,0
4,62,81,63
4,69,93,0
4,65,105,0
4,67,70,634
4,62,91,0
4,65,112,0
4,69,103,0
4,62,84,58
4,69,96,0
4,65,107,0
4,67,75,632
4,62,93,0
4,65,109,0
4,69,101,0
4,69,89,54
4,62,79,0
4,65,103,0
4,67,84,635
4,62,96,0
4,69,101,0
4,65,109,0
4,69,93,57
4,62,87,0
4,65,105,0
4,67,93,633
4,62,98,0
4,65,112,0
4,69,101,0
4,62,82,50
4,69,89,0
4,65,103,0
4,67,89,634
4,62,98,0
4,65,107,0
4,69,101,0
4,67,73,59
4,65,105,0
4,62,85,0
4,69,93,0
4,60,85,630
4,69,98,0
4,64,103,0
4,60,63,62
4,69,89,0
4,64,93,0
4,60,96,637
4,69,101,0
4,64,103,0
4,60,75,59
4,64,93,0
4,69,93,0
4,60,94,636
4,69,103,0
4,64,103,0
4,60,63,63
4,69,91,0
4,64,93,0
4,67,65,634
4,60,85,0
4,69,98,0
4,64,103,0
4,60,76,63
4,69,94,0
4,64,98,0
4,65,98,0
4,69,103,0
4,72,103,0
4,65,81,63
4,72,94,0
4,69,101,0
4,71,50,620
4,65,94,0
4,72,98,0
4,69,105,0
4,65,81,65
4,72,91,0
4,69,101,0
4,71,79,634
4,65,98,0
4,72,105,0
4,69,107,0
4,65,73,58
4,72,93,0
4,69,98,0
4,71,62,628
4,65,98,0
4,72,105,0
4,69,109,0
4,65,82,58
4,72,96,0
4,69,101,0
4,71,84,635
4,65,94,0
4,72,105,0
4,69,107,0
4,65,87,60
4,72,96,0
4,69,103,0
4,65,98,625
4,74,98,0
4,69,103,0
4,65,91,57
4,69,101,0
4,74,98,0
4,71,79,614
4,64,96,0
4,72,103,0
4,69,103,0
4,64,69,52
4,72,89,0
4,69,96,0
4,71,84,636
4,64,98,0
4,72,105,0
4,69,103,0
4,69,98,57
4,64,81,0
4,72,96,0
4,67,85,627
4,62,91,0
4,69,101,0
4,65,109,0
4,62,77,54
4,65,98,0
4,69,91,0
4,67,72,623
4,62,93,0
4,65,105,0
4,69,98,0
4,67,79,62
4,69,93,0
4,62,84,0
4,65,103,0
4,62,96,637
4,69,101,0
4,65,109,0
4,69,96,57
4,62,79,0
4,65,103,0
4,67,69,637
4,62,98,0
4,69,101,0
4,65,109,0
4,62,82,57
4,69,93,0
4,65,101,0
4,60,91,627
4,69,96,0
4,64,105,0
4,60,77,53
4,69,91,0
4,64,96,0
4,60,87,623
4,69,101,0
4,64,105,0
4,60,89,66
4,69,98,0
4,64,105,0
4,62,91,624
4,65,107,0
4,69,98,0
4,62,81,63
4,69,93,0
4,65,105,0
4,67,70,634
4,62,91,0
4,65,112,0
4,69,103,0
4,62,84,58
4,69,96,0
4,65,107,0
4,67,75,632
4,62,93,0
4,65,109,0
4,69,101,0
4,69,89,54
4,62,79,0
4,65,103,0
4,67,84,635
4,62,96,0
4,69,101,0
4,65,109,0
4,69,93,57
4,62,87,0
4,65,105,0
4,67,93,633
4,62,98,0
4,65,112,0
4,69,101,0
4,62,82,50
4,69,89,0
4,65,103,0
4,67,89,634
4,62,98,0
4,65,107,0
4,69,101,0
4,67,73,59
4,65,105,0
4,62,85,0
4,69,93,0
4,60,85,630
4,69,98,0
4,64,103,0
4,60,63,62
4,69,89,0
4,64,93,0
4,60,96,637
4,69,101,0
4,64,103,0
4,60,75,59
4,64,93,0
4,69,93,0
4,60,94,636
4,69,103,0
4,64,103,0
4,60,63,63
4,69,91,0
4,64,93,0
