track,note,velocity,time
0,44,64,96
0,44,0,4
0,44,70,188
0,44,0,4
0,44,62,188
0,44,0,4
0,44,69,188
0,44,0,4
0,64,105,187
0,33,102,1
0,61,111,0
0,64,127,0
0,69,116,0
0,57,93,1
0,61,91,1
0,61,0,22
0,64,0,1
0,57,0,4
0,57,69,66
0,57,121,1
0,61,68,0
0,64,78,0
0,61,0,22
0,64,0,4
0,57,0,1
0,69,0,46
0,61,0,2
0,64,0,1
0,57,0,18
0,61,97,2
0,64,117,0
0,69,111,0
0,44,91,0
0,64,110,0
0,61,90,1
0,57,99,1
0,44,0,2
0,61,0,25
0,57,0,5
0,64,0,3
0,64,78,58
0,57,122,1
0,57,74,1
0,61,63,0
0,61,0,28
0,57,0,4
0,64,0,3
0,69,0,32
0,64,0,1
0,61,0,3
0,33,0,9
0,57,0,12
0,57,104,2
0,30,108,1
0,61,98,0
0,66,108,0
0,69,117,0
0,61,98,0
0,66,95,0
0,61,0,28
0,57,0,3
0,66,0,4
0,57,77,59
0,61,72,0
0,66,70,1
0,57,127,1
0,61,0,26
0,57,0,4
0,66,0,4
0,69,0,36
0,61,0,2
0,66,0,2
0,57,0,19
0,57,103,2
0,61,109,1
0,66,107,0
0,69,125,0
0,44,86,0
0,61,96,2
0,66,92,0
0,44,0,2
0,57,0,26
0,61,0,0
0,66,0,4
0,61,67,60
0,57,80,1
0,57,127,1
0,66,60,0
0,61,0,26
0,57,0,4
0,66,0,2
0,69,0,35
0,61,0,3
0,66,0,0
0,30,0,7
0,57,0,13
0,64,102,4
0,61,100,1
0,37,105,1
0,61,93,0
0,64,125,0
0,68,101,0
0,56,86,2
0,61,0,21
0,64,0,3
0,56,0,1
0,64,70,67
0,61,78,1
0,56,112,1
0,56,57,0
0,61,0,23
0,56,0,2
0,64,0,1
0,64,0,43
0,61,0,3
0,68,0,1
0,56,90,21
0,61,93,2
0,64,118,0
0,68,102,0
0,44,85,0
0,61,103,0
0,64,104,2
0,56,0,2
0,44,0,0
0,61,0,17
0,56,0,3
0,64,0,16
0,56,114,56
0,56,71,0
0,61,79,0
0,64,79,0
0,61,0,21
0,56,0,5
0,64,0,12
0,61,0,39
0,37,0,2
0,64,0,0
0,68,0,0
0,56,0,14
0,61,104,1
0,64,97,1
0,37,117,1
0,61,98,0
0,64,124,0
0,68,108,0
0,56,90,2
0,61,0,19
0,56,0,4
0,64,0,6
0,56,62,63
0,61,74,0
0,56,112,2
0,64,68,2
0,56,0,19
0,61,0,0
0,64,0,13
0,61,0,40
0,64,0,2
0,68,0,1
0,56,0,17
0,56,83,0
0,61,105,2
0,64,127,0
0,68,106,0
0,44,84,0
0,64,110,0
0,61,99,1
0,44,0,3
0,61,0,18
0,56,0,1
0,64,0,8
0,61,76,63
0,64,83,1
0,56,116,1
0,56,64,0
0,61,0,19
0,56,0,6
0,64,0,5
0,37,0,20
0,64,0,26
0,68,0,0
0,61,0,1
0,56,0,13
0,64,99,4
0,55,94,0
0,60,103,0
0,52,127,1
0,60,114,0
0,64,114,0
0,67,113,0
0,55,69,16
0,60,73,1
0,64,76,0
0,50,120,1
0,55,127,0
0,55,0,24
0,60,0,2
0,64,0,6
0,50,0,26
0,67,0,11
0,64,0,1
0,60,0,6
0,55,0,16
0,60,103,2
0,64,105,0
0,48,127,2
0,60,116,0
0,64,124,0
0,67,114,0
0,44,81,0
0,55,101,0
0,44,0,4
0,60,0,22
0,55,0,1
0,64,0,4
0,48,0,27
0,55,71,36
0,60,75,1
0,47,125,1
0,55,126,0
0,64,77,1
0,55,0,24
0,60,0,2
0,64,0,7
0,67,0,40
0,60,0,3
0,64,0,3
0,55,0,10
0,47,0,3
0,66,90,1
0,45,123,2
0,62,112,0
0,66,108,0
0,69,119,0
0,57,99,0
0,62,111,1
0,57,0,22
0,62,0,0
0,66,0,3
0,45,0,27
0,62,88,42
0,43,124,1
0,57,127,0
0,57,72,0
0,66,67,2
0,62,0,19
0,57,0,2
0,66,0,7
0,43,0,28
0,62,0,10
0,66,0,4
0,69,0,2
0,57,0,18
0,62,110,2
0,66,91,0
0,42,110,2
0,62,120,0
0,66,100,0
0,69,115,0
0,44,87,0
0,57,101,1
0,44,0,3
0,62,0,15
0,66,0,2
0,57,0,3
0,42,0,29
0,66,63,41
0,62,84,1
0,38,127,1
0,57,127,0
0,57,75,0
0,62,0,20
0,66,0,1
0,57,0,2
0,62,0,48
0,66,0,1
0,69,0,1
0,38,0,3
0,57,0,12
0,64,100,7
0,33,104,0
0,73,127,0
0,61,97,0
0,64,117,0
0,69,113,0
0,57,92,1
0,61,89,1
0,64,0,43
0,61,0,0
0,57,0,6
0,61,67,43
0,64,74,0
0,57,109,2
0,57,68,2
0,61,0,39
0,64,0,3
0,57,0,8
0,73,0,18
0,69,0,7
0,61,0,1
0,64,0,2
0,61,85,15
0,73,119,0
0,61,97,0
0,64,118,0
0,69,120,0
0,44,89,0
0,64,103,1
0,57,99,1
0,44,0,2
0,57,0,5
0,61,0,31
0,64,0,4
0,57,0,2
0,57,112,50
0,57,76,0
0,61,63,1
0,64,78,0
0,61,0,41
0,57,0,2
0,64,0,0
0,73,0,21
0,64,0,11
0,69,0,5
0,61,0,2
0,33,0,6
0,57,108,5
0,61,93,0
0,66,94,0
0,30,99,0
0,73,122,0
0,61,95,0
0,66,101,0
0,69,101,0
0,57,0,2
0,61,0,38
0,66,0,5
0,57,0,1
0,66,70,48
0,57,109,2
0,61,72,0
0,57,76,2
0,57,101,2
0,61,102,2
0,66,106,0
0,69,123,0
0,44,90,0
0,61,102,1
0,66,94,0
0,44,0,3
0,57,0,6
0,57,0,29
0,61,0,1
0,66,0,0
0,69,111,0
0,69,0,20
0,69,123,0
0,57,119,0
0,57,80,0
0,61,77,2
0,66,68,0
0,69,0,39
0,57,0,0
0,61,0,0
0,66,0,0
0,71,104,0
0,66,0,26
0,69,0,0
0,30,0,1
0,71,0,1
0,61,0,5
0,57,0,8
0,28,85,0
0,73,117,0
0,59,117,0
0,64,112,0
0,68,99,0
0,56,80,1
0,64,109,0
0,59,112,1
0,59,0,30
0,56,0,6
0,64,0,0
0,73,0,38
0,56,56,19
0,59,89,0
0,71,109,0
0,52,113,0
0,64,86,0
0,71,0,22
0,59,0,7
0,56,0,7
0,64,0,1
0,71,127,0
0,59,0,22
0,68,0,3
0,64,0,3
0,64,100,18
0,59,114,2
0,64,111,0
0,68,100,0
0,44,84,0
0,52,0,1
0,59,109,0
0,56,74,1
0,44,0,2
0,59,0,20
0,64,0,2
0,56,0,4
0,56,49,45
0,59,79,0
0,52,105,2
0,64,78,1
0,71,0,14
0,59,0,6
0,56,0,5
0,64,0,3
0,59,0,48
0,64,0,4
0,56,78,11
0,59,113,2
0,64,115,0
0,68,87,0
0,59,106,0
0,64,97,0
0,52,0,17
0,56,0,9
0,59,0,2
0,64,0,6
0,64,72,61
0,52,108,1
0,59,76,0
0,56,54,2
0,59,0,26
0,56,0,2
0,64,0,3
0,68,0,40
0,64,0,1
0,59,0,2
0,56,83,18
0,59,111,2
0,64,102,0
0,68,93,0
0,44,90,0
0,64,115,0
0,59,115,2
0,44,0,2
0,52,0,9
0,56,0,11
0,59,0,2
0,64,0,11
0,59,90,58
0,52,104,1
0,64,86,1
0,56,57,1
0,59,0,21
0,56,0,5
0,64,0,10
0,28,0,28
0,59,0,6
0,68,0,2
0,64,0,2
0,64,100,18
0,61,97,1
0,37,98,1
0,61,106,0
0,64,125,0
0,68,100,0
0,56,78,2
0,52,0,7
0,61,0,17
0,64,0,5
0,56,0,4
0,64,75,59
0,52,111,2
0,56,53,0
0,61,73,2
0,61,0,27
0,64,0,2
0,56,0,2
0,68,108,0
0,68,0,13
0,61,0,10
0,68,0,3
0,64,0,4
0,73,119,0
0,61,92,0
0,64,121,0
0,68,102,0
0,44,93,0
0,61,91,0
0,56,80,1
0,64,110,0
0,44,0,3
0,52,0,7
0,61,0,15
0,56,0,4
0,64,0,2
0,73,0,30
0,61,70,33
0,73,116,0
0,52,110,0
0,56,56,1
0,64,81,1
0,61,0,23
0,56,0,5
0,64,0,3
0,73,0,28
0,61,0,9
0,68,0,0
0,64,0,8
0,37,0,8
0,52,0,6
0,61,96,2
0,42,88,0
0,73,112,0
0,61,103,0
0,66,97,0
0,69,114,0
0,57,97,1
0,66,96,0
0,61,0,25
0,66,0,6
0,57,0,3
0,57,74,59
0,61,67,0
0,66,64,0
0,54,108,2
0,61,0,26
0,66,0,3
0,57,0,3
0,73,0,2
0,69,0,42
0,61,0,4
0,66,0,0
0,57,104,14
0,61,98,2
0,66,99,0
0,69,124,0
0,44,87,0
0,61,97,0
0,66,86,2
0,44,0,2
0,54,0,7
0,57,0,18
0,61,0,1
0,66,0,2
0,69,91,0
0,69,0,16
0,66,57,30
0,69,99,0
0,54,108,0
0,57,78,0
0,61,77,2
0,66,0,26
0,69,0,2
0,57,0,1
0,61,0,1
0,71,78,0
0,71,0,19
0,61,0,9
0,42,0,1
0,66,0,0
0,69,0,1
0,54,0,14
0,57,103,2
0,38,101,0
0,73,121,0
0,57,113,0
0,62,117,0
0,66,93,0
0,54,81,1
0,62,112,0
0,57,0,21
0,54,0,11
0,62,0,2
0,73,0,31
0,62,83,29
0,71,90,0
0,50,114,0
0,54,54,0
0,57,79,0
0,71,0,18
0,57,0,6
0,54,0,8
0,62,0,1
0,71,107,0
0,66,0,22
0,57,0,2
0,62,0,6
0,54,75,16
0,57,109,2
0,62,118,0
0,66,102,0
0,44,90,0
0,57,107,1
0,62,99,0
0,44,0,3
0,50,0,3
0,54,0,15
0,57,0,3
0,62,0,7
0,62,71,48
0,57,81,1
0,50,111,1
0,54,51,0
0,71,0,21
0,57,0,2
0,54,0,1
0,62,0,5
0,57,0,48
0,66,0,0
0,62,0,3
0,38,0,1
0,38,108,15
0,57,101,0
0,62,117,0
0,66,90,0
0,54,78,0
0,62,95,0
0,57,101,2
0,50,0,8
0,54,59,51
0,57,71,1
0,50,111,1
0,62,72,1
0,54,0,34
0,57,0,1
0,62,0,8
0,57,0,28
0,62,0,4
0,66,0,1
0,57,107,17
0,62,101,1
0,57,115,1
0,62,113,0
0,66,93,0
0,44,85,0
0,54,85,2
0,44,0,2
0,50,0,10
0,57,0,17
0,54,0,4
0,62,0,4
0,54,62,55
0,62,82,0
0,57,83,1
0,50,110,1
0,57,0,29
0,54,0,2
0,66,0,1
0,57,0,0
0,62,0,2
0,62,0,4
0,38,0,27
0,56,77,30
0,59,96,0
0,37,94,1
0,56,96,0
0,59,120,0
0,65,110,0
0,50,0,1
0,65,96,1
0,59,0,29
0,56,0,1
0,65,0,5
0,65,67,58
0,53,101,1
0,56,47,1
0,59,70,0
0,59,0,32
0,65,0,1
0,56,0,0
0,68,97,0
0,68,0,12
0,65,0,7
0,56,0,1
0,59,0,7
0,56,85,20
0,68,113,0
0,56,99,0
0,59,124,0
0,65,121,0
0,44,95,0
0,65,106,1
0,59,110,1
0,44,0,2
0,59,0,23
0,56,0,2
0,65,0,7
0,53,0,25
0,68,0,2
0,68,107,0
0,53,111,0
0,56,63,0
0,59,82,0
0,65,76,0
0,59,0,25
0,56,0,5
0,65,0,5
0,68,0,25
0,56,0,6
0,65,0,0
0,59,0,7
0,37,0,4
0,65,97,17
0,37,105,0
0,73,116,0
0,56,99,0
0,59,122,0
0,65,114,0
0,56,73,0
0,59,112,0
0,59,0,28
0,65,0,2
0,56,0,1
0,53,0,32
0,65,76,31
0,53,98,2
0,56,53,2
0,59,83,0
0,65,0,28
0,59,0,0
0,56,0,3
0,56,0,33
0,59,0,4
0,65,0,6
0,56,81,18
0,59,112,0
0,56,92,2
0,59,119,0
0,65,116,0
0,44,88,0
0,65,100,0
0,44,0,4
0,59,0,19
0,56,0,1
0,73,0,4
0,65,0,5
0,53,0,40
0,56,59,21
0,61,113,0
0,53,99,0
0,59,81,2
0,65,71,0
0,56,0,22
0,59,0,3
0,65,0,8
0,61,0,9
0,59,0,33
0,37,0,3
0,65,0,1
0,56,0,2
0,53,0,12
0,61,98,0
0,42,105,0
0,69,120,0
0,57,111,0
0,61,113,0
0,66,106,0
0,66,95,0
0,57,96,1
0,61,0,23
0,66,0,4
0,57,0,6
0,54,109,62
0,57,69,0
0,61,71,0
0,66,71,1
0,61,0,24
0,66,0,4
0,57,0,4
0,57,0,35
0,61,0,2
0,66,0,0
0,69,0,11
0,66,96,13
0,57,100,1
0,69,115,0
0,57,113,0
0,61,107,0
0,66,96,0
0,44,81,0
0,61,98,0
0,44,0,4
0,61,0,25
0,66,0,4
0,57,0,4
0,54,0,41
0,61,77,16
0,54,97,2
0,66,71,0
0,57,80,2
0,61,0,25
0,66,0,8
0,57,0,5
0,69,0,30
0,57,0,4
0,61,0,1
0,66,0,0
0,42,0,3
0,57,100,17
0,42,94,0
0,68,101,0
0,57,109,0
0,61,106,0
0,66,102,0
0,61,96,0
0,66,95,1
0,61,0,23
0,66,0,7
0,57,0,6
0,68,0,19
0,54,0,14
0,57,74,24
0,69,107,0
0,54,101,0
0,61,73,1
0,66,68,0
0,61,0,24
0,66,0,6
0,57,0,5
0,57,0,43
0,61,0,1
0,66,0,1
0,57,116,15
0,61,103,0
0,66,103,0
0,44,89,0
0,66,82,1
0,57,94,1
0,61,93,0
0,44,0,2
0,66,0,24
0,61,0,1
0,57,0,2
0,54,0,41
0,42,0,6
0,61,69,16
0,57,70,1
0,42,105,1
0,54,102,0
0,66,52,2
0,61,0,23
0,57,0,3
0,66,0,1
0,69,0,10
0,54,0,29
0,66,0,4
0,61,0,2
0,42,0,8
0,57,0,2
0,64,94,11
0,47,126,1
0,47,114,0
0,54,110,0
0,59,111,0
0,64,112,0
0,69,114,0
0,59,102,0
0,54,84,2
0,59,0,28
0,64,0,3
0,54,0,0
0,59,74,62
0,64,72,1
0,54,59,1
0,59,0,28
0,54,0,3
0,64,0,2
0,69,0,43
0,54,0,4
0,47,0,1
0,59,0,0
0,64,0,0
0,64,103,12
0,71,120,0
0,47,117,0
0,54,100,0
0,59,107,0
0,64,107,0
0,69,114,0
0,44,88,0
0,59,112,0
0,54,86,1
0,44,0,3
0,59,0,21
0,64,0,4
0,54,0,0
0,71,0,11
0,73,106,0
0,73,0,28
0,64,83,18
0,54,61,1
0,71,114,0
0,59,83,1
0,59,0,25
0,54,0,1
0,64,0,2
0,47,0,37
0,64,0,8
0,59,0,5
0,69,0,1
0,54,0,2
0,54,82,13
0,59,112,0
0,47,111,1
0,54,105,0
0,59,111,0
0,63,103,0
0,69,106,0
0,63,101,1
0,54,0,22
0,59,0,2
0,63,0,9
0,71,0,50
0,54,60,12
0,63,77,0
0,59,82,1
0,54,0,23
0,59,0,3
0,63,0,6
0,63,0,39
0,69,0,2
0,47,0,4
0,59,0,0
0,54,0,1
0,63,95,16
0,47,107,1
0,54,102,0
0,59,101,0
0,63,93,0
0,69,104,0
0,44,90,0
0,54,89,1
0,59,112,1
0,44,0,2
0,54,0,22
0,59,0,4
0,63,0,1
0,69,114,0
0,54,59,0
0,59,84,2
0,63,76,0
0,54,0,23
0,59,0,5
0,47,0,3
0,63,0,1
0,42,94,14
0,69,0,2
0,47,0,18
0,54,0,9
0,59,0,2
0,63,0,6
0,69,0,0
0,42,0,1
0,59,108,9
0,47,121,0
0,73,116,0
0,47,111,0
0,54,109,0
0,57,117,0
0,62,122,0
0,66,88,0
0,54,81,1
0,62,111,0
0,62,0,35
0,59,0,1
0,54,0,1
0,48,109,10
0,48,0,4
0,59,86,42
0,54,56,1
0,47,113,1
0,62,88,2
0,47,0,2
0,59,0,32
0,54,0,0
0,62,0,1
0,73,0,21
0,66,0,13
0,47,0,4
0,57,0,0
0,62,0,2
0,54,0,5
0,73,121,0
0,47,111,0
0,54,101,0
0,57,116,0
0,62,120,0
0,66,100,0
0,44,87,0
0,47,120,0
0,54,87,0
0,62,106,1
0,59,114,1
0,44,0,2
0,47,0,0
0,59,0,23
