track,note,velocity,time
1,40,126,0
1,47,126,0
1,52,126,0
1,56,126,40
1,64,126,0
1,62,126,0
1,47,0,3
1,52,0,3
1,40,0,7
1,40,126,27
1,47,126,0
1,52,126,0
1,62,0,3
1,64,0,5
1,56,0,9
1,56,126,23
1,64,126,0
1,62,126,0
1,52,0,11
1,47,0,0
1,40,0,13
1,40,126,16
1,47,126,0
1,52,126,0
1,62,0,6
1,64,0,4
1,56,0,5
1,56,126,25
1,64,126,0
1,62,126,0
1,52,0,5
1,47,0,3
1,40,0,8
1,40,126,24
1,47,126,0
1,52,126,0
1,62,0,2
1,64,0,4
1,56,0,3
1,56,126,31
1,64,126,0
1,62,126,0
1,47,0,3
1,52,0,3
1,40,0,7
1,40,126,27
1,47,126,0
1,52,126,0
1,62,0,3
1,64,0,5
1,56,0,9
1,56,126,23
1,64,126,0
1,62,126,0
1,52,0,11
1,47,0,0
1,40,0,13
1,40,126,16
1,47,126,0
1,52,126,0
1,62,0,6
1,64,0,4
1,56,0,5
1,56,126,25
1,64,126,0
1,62,126,0
1,52,0,5
1,47,0,3
1,40,0,8
1,40,126,24
1,47,126,0
1,52,126,0
1,62,0,2
1,64,0,4
1,56,0,3
1,56,126,31
1,64,126,0
1,62,126,0
1,47,0,3
1,52,0,3
1,40,0,7
1,40,126,27
1,47,126,0
1,52,126,0
1,62,0,3
1,64,0,5
1,56,0,9
1,56,126,23
1,64,126,0
1,62,126,0
1,52,0,11
1,47,0,0
1,40,0,13
1,40,126,16
1,47,126,0
1,52,126,0
1,62,0,6
1,64,0,4
1,56,0,5
1,56,126,25
1,64,126,0
1,62,126,0
1,52,0,5
1,47,0,3
1,40,0,8
1,40,126,24
1,47,126,0
1,52,126,0
1,62,0,2
1,64,0,4
1,56,0,3
1,56,126,31
1,64,126,0
1,62,126,0
1,47,0,3
1,52,0,3
1,40,0,7
1,40,126,27
1,47,126,0
1,52,126,0
1,62,0,3
1,64,0,5
1,56,0,9
1,56,126,23
1,64,126,0
1,62,126,0
1,52,0,11
1,47,0,0
1,40,0,13
1,40,126,16
1,47,126,0
1,52,126,0
1,62,0,6
1,64,0,4
1,56,0,5
1,56,126,25
1,64,126,0
1,62,126,0
1,52,0,5
1,47,0,3
1,40,0,8
1,40,126,24
1,47,126,0
1,62,0,2
1,64,0,4
1,56,0,3
1,56,126,71
1,59,126,0
1,52,126,0
1,47,0,13
1,40,0,8
1,40,126,19
1,47,126,0
1,59,0,58
1,56,0,1
1,52,0,2
1,52,126,19
1,56,126,0
1,59,126,0
1,47,0,22
1,40,0,0
1,40,126,18
1,47,126,0
1,56,0,55
1,59,0,0
1,52,0,12
1,52,126,13
1,56,126,0
1,59,126,0
1,40,0,16
1,47,0,3
1,40,126,21
1,47,126,0
1,59,0,52
1,56,0,3
1,52,0,4
1,52,126,21
1,56,126,0
1,59,126,0
1,40,0,16
1,47,0,2
1,40,126,22
1,47,126,0
1,59,0,15
1,56,0,1
1,52,0,3
1,56,126,61
1,59,126,0
1,52,126,0
1,47,0,13
1,40,0,8
1,40,126,19
1,47,126,0
1,59,0,58
1,56,0,1
1,52,0,2
1,52,126,19
1,56,126,0
1,59,126,0
1,47,0,22
1,40,0,0
1,40,126,18
1,47,126,0
1,56,0,55
1,59,0,0
1,52,0,12
1,52,126,13
1,56,126,0
1,59,126,0
1,40,0,16
1,47,0,3
1,40,126,21
1,47,126,0
1,59,0,52
1,56,0,3
1,52,0,4
1,52,126,21
1,56,126,0
1,59,126,0
1,40,0,16
1,47,0,2
1,40,126,22
1,47,126,0
1,59,0,15
1,56,0,1
1,52,0,3
1,56,126,61
1,59,126,0
1,52,126,0
1,47,0,13
1,40,0,8
1,40,126,19
1,47,126,0
1,59,0,58
1,56,0,1
1,52,0,2
1,52,126,19
1,56,126,0
1,59,126,0
1,47,0,22
1,40,0,0
1,40,126,18
1,47,126,0
1,56,0,55
1,59,0,0
1,52,0,12
1,52,126,13
1,56,126,0
1,59,126,0
1,40,0,16
1,47,0,3
1,40,126,21
1,47,126,0
1,59,0,52
1,56,0,3
1,52,0,4
1,52,126,21
1,56,126,0
1,59,126,0
1,40,0,16
1,47,0,2
1,40,126,22
1,47,126,0
1,59,0,15
1,56,0,1
1,52,0,3
1,56,126,61
1,59,126,0
1,52,126,0
1,47,0,13
1,40,0,8
1,40,126,19
1,47,126,0
1,59,0,58
1,56,0,1
1,52,0,2
1,52,126,19
1,56,126,0
1,59,126,0
1,47,0,22
1,40,0,0
1,40,126,18
1,47,126,0
1,56,0,55
1,59,0,0
1,52,0,12
1,52,126,13
1,56,126,0
1,59,126,0
1,40,0,16
1,47,0,3
1,40,126,21
1,47,126,0
1,59,0,52
1,56,0,3
1,52,0,4
1,52,126,21
1,56,126,0
1,59,126,0
1,40,0,16
1,47,0,2
1,40,126,0
1,47,126,0
1,52,126,0
1,59,0,15
1,56,0,1
1,52,0,3
1,59,126,61
1,56,126,0
1,64,126,0
1,52,0,18
1,40,0,1
1,47,0,1
1,40,126,20
1,47,126,0
1,52,126,0
1,64,0,50
1,56,0,7
1,59,0,2
1,56,126,21
1,59,126,0
1,64,126,0
1,52,0,98
1,47,0,7
1,40,0,2
1,47,126,13
1,52,126,0
1,40,126,0
1,64,0,11
1,59,0,11
1,56,0,2
1,59,126,16
1,56,126,0
1,64,126,0
1,64,0,48
1,56,0,10
1,59,0,1
1,56,126,21
1,59,126,0
1,64,126,0
1,40,0,17
1,52,0,6
1,47,0,3
1,47,126,14
1,40,126,0
1,52,126,0
1,64,0,55
1,56,0,7
1,59,0,3
1,59,126,15
1,56,126,0
1,64,126,0
1,40,0,7
1,52,0,4
1,47,0,3
1,47,126,26
1,52,126,0
1,40,126,0
1,64,0,30
1,56,0,5
1,59,0,7
1,59,126,38
1,56,126,0
1,64,126,0
1,40,0,102
1,47,0,5
1,52,0,0
1,40,126,13
1,52,126,0
1,47,126,0
1,64,0,22
1,59,0,6
1,56,0,2
1,56,126,10
1,59,126,0
1,64,126,0
1,59,0,51
1,64,0,1
1,56,0,4
1,56,126,24
1,59,126,0
1,64,126,0
1,45,126,40
1,52,126,0
1,57,126,0
1,47,0,1
1,40,0,1
1,52,0,1
1,64,0,4
1,56,0,2
1,59,0,3
1,64,126,68
1,61,126,0
1,69,126,0
1,57,0,18
1,45,0,1
1,52,0,1
1,45,126,20
1,52,126,0
1,57,126,0
1,69,0,50
1,61,0,7
1,64,0,2
1,61,126,21
1,64,126,0
1,69,126,0
1,57,0,98
1,52,0,7
1,45,0,2
1,52,126,13
1,57,126,0
1,45,126,0
1,69,0,11
1,64,0,11
1,61,0,2
1,64,126,16
1,61,126,0
1,69,126,0
1,69,0,48
1,61,0,10
1,64,0,1
1,61,126,21
1,64,126,0
1,69,126,0
1,45,0,17
1,57,0,6
1,52,0,3
1,52,126,14
1,45,126,0
1,57,126,0
1,69,0,55
1,61,0,7
1,64,0,3
1,64,126,15
1,61,126,0
1,69,126,0
1,45,0,7
1,57,0,4
1,52,0,3
1,52,126,26
1,57,126,0
1,45,126,0
1,69,0,30
1,61,0,5
1,64,0,7
1,64,126,38
1,61,126,0
1,69,126,0
1,45,0,102
1,52,0,5
1,57,0,0
1,45,126,13
1,57,126,0
1,52,126,0
1,69,0,22
1,64,0,6
1,61,0,2
1,61,126,10
1,64,126,0
1,69,126,0
1,64,0,51
1,69,0,1
1,61,0,4
1,61,126,24
1,64,126,0
1,69,126,0
1,47,126,40
1,54,126,0
1,59,126,0
1,52,0,1
1,45,0,1
1,57,0,1
1,69,0,4
1,61,0,2
1,64,0,3
1,66,126,68
1,63,126,0
1,71,126,0
1,59,0,18
1,47,0,1
1,54,0,1
1,47,126,20
1,54,126,0
1,59,126,0
1,71,0,50
1,63,0,7
1,66,0,2
1,63,126,21
1,66,126,0
1,71,126,0
1,59,0,98
1,54,0,7
1,47,0,2
1,54,126,13
1,59,126,0
1,47,126,0
1,71,0,11
1,66,0,11
1,63,0,2
1,66,126,16
1,63,126,0
1,71,126,0
1,71,0,48
1,63,0,10
1,66,0,1
1,63,126,21
1,66,126,0
1,71,126,0
1,47,0,17
1,59,0,6
1,54,0,3
1,54,126,14
1,47,126,0
1,59,126,0
1,71,0,55
1,63,0,7
1,66,0,3
1,66,126,15
1,63,126,0
1,71,126,0
1,47,0,7
1,59,0,4
1,54,0,3
1,54,126,26
1,59,126,0
1,47,126,0
1,71,0,30
1,63,0,5
1,66,0,7
1,66,126,38
1,63,126,0
1,71,126,0
1,47,0,102
1,54,0,5
1,59,0,0
1,47,126,13
1,59,126,0
1,54,126,0
1,71,0,22
1,66,0,6
1,63,0,2
1,63,126,10
1,66,126,0
1,71,126,0
1,66,0,51
1,71,0,1
1,63,0,4
1,63,126,24
1,66,126,0
1,71,126,0
1,45,126,40
1,52,126,0
1,57,126,0
1,54,0,1
1,47,0,1
1,59,0,1
1,71,0,4
1,63,0,2
1,66,0,3
1,64,126,68
1,61,126,0
1,69,126,0
1,57,0,18
1,45,0,1
1,52,0,1
1,45,126,20
1,52,126,0
1,57,126,0
1,69,0,50
1,61,0,7
1,64,0,2
1,61,126,21
1,64,126,0
1,69,126,0
1,57,0,98
1,52,0,7
1,45,0,2
1,52,126,13
1,57,126,0
1,45,126,0
1,69,0,11
1,64,0,11
1,61,0,2
1,64,126,16
1,61,126,0
1,69,126,0
1,69,0,48
1,61,0,10
1,64,0,1
1,61,126,21
1,64,126,0
1,69,126,0
1,45,0,17
1,57,0,6
1,52,0,3
1,52,126,14
1,45,126,0
1,57,126,0
1,69,0,55
1,61,0,7
1,64,0,3
1,64,126,15
1,61,126,0
1,69,126,0
1,45,0,7
1,57,0,4
1,52,0,3
1,52,126,26
1,57,126,0
1,45,126,0
1,69,0,30
1,61,0,5
1,64,0,7
1,64,126,38
1,61,126,0
1,69,126,0
1,45,0,102
1,52,0,5
1,57,0,0
1,45,126,13
1,57,126,0
1,52,126,0
1,69,0,22
1,64,0,6
1,61,0,2
1,61,126,10
1,64,126,0
1,69,126,0
1,64,0,51
1,69,0,1
1,61,0,4
1,61,126,24
1,64,126,0
1,69,126,0
1,40,126,0
1,47,126,0
1,52,0,1
1,45,0,1
1,57,0,1
1,69,0,4
1,61,0,2
1,64,0,3
1,40,0,47
1,47,0,12
1,40,126,9
1,40,0,39
1,40,126,1
1,49,126,0
1,40,0,69
1,49,0,5
1,40,126,6
1,40,0,39
1,40,126,1
1,47,126,0
1,40,0,59
1,47,0,7
1,40,126,14
1,52,126,0
1,40,0,39
1,40,126,1
1,55,126,0
1,52,0,5
1,56,126,35
1,55,0,14
1,40,0,5
1,40,126,21
1,64,126,0
1,59,126,0
1,40,0,99
1,40,126,21
1,56,0,9
1,59,0,6
1,64,0,6
1,40,0,18
1,40,126,1
1,49,126,0
1,40,0,59
1,49,0,17
1,40,126,4
1,40,0,39
1,40,126,1
1,47,126,0
1,40,0,59
1,47,0,7
1,40,126,14
1,52,126,0
1,40,0,39
1,40,126,1
1,55,126,0
1,52,0,5
1,56,126,35
1,55,0,14
1,40,0,5
1,40,126,21
1,64,126,0
1,59,126,0
1,40,0,99
1,40,126,21
1,56,0,9
1,59,0,6
1,64,0,6
1,40,0,18
1,40,126,1
1,49,126,0
1,40,0,59
1,49,0,17
1,40,126,4
1,40,0,39
1,40,126,1
1,47,126,0
1,40,0,59
1,47,0,7
1,40,126,14
1,52,126,0
1,40,0,39
1,40,126,1
1,55,126,0
1,52,0,5
1,56,126,35
1,55,0,14
1,40,0,5
1,40,126,21
1,64,126,0
1,59,126,0
1,40,0,99
1,40,126,21
1,56,0,9
1,59,0,6
1,64,0,6
1,40,0,18
1,40,126,1
1,49,126,0
1,40,0,59
1,49,0,17
1,40,126,4
1,40,0,39
1,40,126,1
1,47,126,0
1,40,0,59
1,47,0,7
1,40,126,14
1,52,126,0
1,40,0,39
1,40,126,1
1,55,126,0
1,52,0,5
1,56,126,35
1,55,0,14
1,40,0,5
1,40,126,21
1,64,126,0
1,59,126,0
1,40,126,0
1,47,126,0
1,56,126,80
1,59,126,0
1,52,126,0
1,40,0,10
1,47,0,3
1,64,0,8
1,40,0,0
1,40,126,19
1,47,126,0
1,59,0,58
1,56,0,1
1,59,0,1
1,52,0,1
1,56,0,2
1,52,126,17
1,56,126,0
1,59,126,0
1,47,0,22
1,40,0,0
1,40,126,18
1,47,126,0
1,56,0,55
1,59,0,0
1,52,0,12
1,52,126,13
1,56,126,0
1,59,126,0
1,40,0,16
1,47,0,3
1,40,126,21
1,47,126,0
1,59,0,52
1,56,0,3
1,52,0,4
1,52,126,21
1,56,126,0
1,59,126,0
1,40,0,16
1,47,0,2
1,40,126,22
1,47,126,0
1,59,0,15
1,56,0,1
1,52,0,3
1,56,126,61
1,59,126,0
1,52,126,0
1,47,0,13
1,40,0,8
1,40,126,19
1,47,126,0
1,59,0,58
1,56,0,1
1,52,0,2
1,52,126,19
1,56,126,0
1,59,126,0
1,47,0,22
1,40,0,0
1,40,126,18
1,47,126,0
1,56,0,55
1,59,0,0
1,52,0,12
1,52,126,13
1,56,126,0
1,59,126,0
1,40,0,16
1,47,0,3
1,40,126,21
1,47,126,0
1,59,0,52
1,56,0,3
1,52,0,4
1,52,126,21
1,56,126,0
1,59,126,0
1,40,0,16
1,47,0,2
1,40,126,22
1,47,126,0
1,59,0,15
1,56,0,1
1,52,0,3
1,56,126,61
1,59,126,0
1,52,126,0
1,47,0,13
1,40,0,8
1,40,126,19
1,47,126,0
1,59,0,58
1,56,0,1
1,52,0,2
1,52,126,19
1,56,126,0
1,59,126,0
1,47,0,22
1,40,0,0
1,40,126,18
1,47,126,0
1,56,0,55
1,59,0,0
1,52,0,12
1,52,126,13
1,56,126,0
1,59,126,0
1,40,0,16
1,47,0,3
1,40,126,21
1,47,126,0
1,59,0,52
1,56,0,3
1,52,0,4
1,52,126,21
1,56,126,0
1,59,126,0
1,40,0,16
1,47,0,2
1,40,126,22
1,47,126,0
1,59,0,15
1,56,0,1
1,52,0,3
1,56,126,61
1,59,126,0
1,52,126,0
1,47,0,13
1,40,0,8
1,40,126,19
1,47,126,0
1,59,0,58
1,56,0,1
1,52,0,2
1,52,126,19
1,56,126,0
1,59,126,0
1,47,0,22
1,40,0,0
1,40,126,18
1,47,126,0
1,56,0,55
1,59,0,0
1,52,0,12
1,52,126,13
1,56,126,0
1,59,126,0
1,40,0,16
1,47,0,3
1,40,126,21
1,47,126,0
1,59,0,52
1,56,0,3
1,52,0,4
1,52,126,21
1,56,126,0
1,59,126,0
1,40,0,16
1,47,0,2
1,40,126,22
1,47,126,0
1,59,0,15
1,56,0,1
1,56,126,64
1,59,126,0
1,52,126,0
1,47,0,13
1,52,0,5
1,40,0,3
1,40,126,19
1,47,126,0
1,59,0,58
1,56,0,1
1,52,0,2
1,52,126,19
1,56,126,0
1,59,126,0
1,40,0,22
1,47,0,0
1,40,126,18
1,47,126,0
1,56,0,55
1,59,0,0
1,52,0,12
1,52,126,13
1,56,126,0
1,59,126,0
1,40,0,16
1,47,0,3
1,40,126,21
1,47,126,0
1,59,0,52
1,56,0,3
1,52,0,4
1,52,126,21
1,56,126,0
1,59,126,0
1,40,0,16
1,47,0,2
1,40,126,22
1,47,126,0
1,59,0,15
1,56,0,1
1,52,0,3
1,56,126,61
1,59,126,0
1,52,126,0
1,47,0,13
1,40,0,8
1,40,126,19
1,47,126,0
1,59,0,58
1,56,0,1
1,52,0,2
1,52,126,19
1,56,126,0
1,59,126,0
1,47,0,22
1,40,0,0
1,40,126,18
1,47,126,0
1,56,0,55
1,59,0,0
1,52,0,12
1,52,126,13
1,56,126,0
1,59,126,0
1,40,0,16
1,47,0,3
1,40,126,21
1,47,126,0
1,59,0,52
1,56,0,3
1,52,0,4
1,52,126,21
1,56,126,0
1,59,126,0
1,40,0,16
1,47,0,2
1,40,126,22
1,47,126,0
1,59,0,15
1,56,0,1
1,52,0,3
1,56,126,61
1,59,126,0
