track,note,velocity,time
1,33,97,960
1,25,30,120
1,33,0,22
1,25,0,26
1,33,98,32
1,33,0,31
1,28,98,9
1,28,0,149
1,28,93,51
1,28,0,40
1,33,101,0
1,33,0,134
1,33,83,66
1,33,0,32
1,28,105,8
1,28,0,132
1,28,104,68
1,28,0,40
1,38,102,0
1,38,0,130
1,33,116,110
1,33,0,125
1,38,106,115
1,38,0,118
1,33,113,2
1,33,0,118
1,35,127,2
1,35,0,96
1,37,127,24
1,37,0,96
1,38,95,24
1,38,0,120
1,38,92,80
1,38,0,28
1,33,103,12
1,33,0,135
1,33,90,65
1,33,0,40
1,38,95,0
1,38,0,122
1,38,81,78
1,38,0,33
1,33,105,7
1,33,0,51
1,33,108,69
1,33,0,65
1,38,93,55
1,38,0,135
1,38,90,65
1,38,0,27
1,33,111,13
1,33,0,125
1,33,98,75
1,33,0,36
1,38,93,4
1,38,0,135
1,38,90,65
1,38,0,27
1,33,111,13
1,33,0,125
1,33,98,75
1,33,0,36
1,43,97,4
1,43,0,125
1,43,94,75
1,43,0,31
1,38,105,9
1,38,0,120
1,38,98,80
1,38,0,41
1,43,101,0
1,43,0,62
1,43,103,57
1,43,0,60
1,42,100,60
1,42,0,51
1,40,105,69
1,40,0,68
1,38,97,52
1,38,0,125
1,38,94,75
1,38,0,31
1,33,105,9
1,33,0,120
1,33,98,80
1,33,0,41
1,38,101,0
1,38,0,62
1,38,103,57
1,38,0,60
1,37,100,60
1,37,0,51
1,35,105,69
1,35,0,68
1,33,102,52
1,33,0,130
1,28,116,110
1,28,0,125
1,33,106,115
1,33,0,134
1,28,113,106
1,28,0,120
1,38,95,120
1,38,0,120
1,38,92,80
1,38,0,28
1,33,103,12
1,33,0,135
1,33,90,65
1,33,0,40
1,38,95,0
1,33,127,120
1,38,0,2
1,33,0,94
1,35,127,24
1,35,0,96
1,37,127,24
1,37,0,96
1,38,102,24
1,38,0,130
1,33,116,110
1,33,0,125
1,38,106,115
1,38,0,134
1,33,113,106
1,33,0,120
1,38,93,120
1,38,0,135
1,38,90,65
1,38,0,27
1,33,111,13
1,33,0,125
1,33,98,75
1,33,0,36
1,38,98,4
1,38,0,132
1,38,90,68
1,38,0,24
1,33,106,16
1,33,0,118
1,33,90,82
1,33,0,36
1,43,97,4
1,43,0,125
1,43,94,75
1,43,0,31
1,38,105,9
1,38,0,120
1,38,98,80
1,38,0,41
1,43,101,0
1,43,0,62
1,43,103,57
1,43,0,60
1,42,100,60
1,42,0,51
1,40,105,69
1,40,0,68
1,38,97,52
1,38,0,125
1,38,94,75
1,38,0,31
1,33,105,9
1,33,0,120
1,33,98,80
1,33,0,41
1,38,101,0
1,38,0,62
1,38,103,57
1,38,0,60
1,37,100,60
1,37,0,51
1,35,105,69
1,35,0,68
1,33,97,52
1,25,30,120
1,33,0,22
1,25,0,26
1,33,98,32
1,33,0,31
1,28,98,9
1,28,0,149
1,28,93,51
1,28,0,40
1,33,101,0
1,33,0,134
1,33,83,66
1,33,0,32
1,28,105,8
1,28,0,132
1,28,104,68
1,28,0,40
1,38,97,0
1,30,30,120
1,38,0,22
1,30,0,26
1,38,98,32
1,38,0,31
1,33,98,9
1,33,0,149
1,33,93,51
1,33,0,40
1,38,101,0
1,38,0,118
1,38,127,2
1,38,0,96
1,40,127,24
1,40,0,96
1,42,127,24
1,42,0,96
1,43,93,24
1,43,0,93
1,47,99,27
1,47,0,94
1,50,113,26
1,50,0,84
1,47,121,36
1,47,0,60
1,50,103,20
1,50,0,38
1,43,110,2
1,43,0,106
1,43,121,14
1,43,0,75
1,42,114,45
1,42,0,91
1,40,117,29
1,40,0,97
1,38,93,23
1,38,0,99
1,42,120,21
1,42,0,98
1,45,116,22
1,45,0,80
1,47,121,40
1,47,0,87
1,50,120,33
1,50,0,81
1,47,121,39
1,47,0,89
1,45,116,31
1,45,0,79
1,42,118,41
1,42,0,120
1,40,103,0
1,40,0,98
1,44,113,22
1,44,0,103
1,47,106,17
1,47,0,89
1,44,108,31
1,44,0,55
1,47,89,25
1,47,0,29
1,40,97,11
1,40,0,103
1,38,101,17
1,38,0,89
1,37,98,31
1,37,0,91
1,35,116,29
1,35,0,80
1,33,93,40
1,33,0,99
1,37,120,21
1,37,0,98
1,40,116,22
1,40,0,80
1,42,121,40
1,42,0,87
1,43,120,33
1,43,0,81
1,42,121,39
1,42,0,89
1,40,116,31
1,40,0,79
1,37,118,41
1,37,0,120
1,38,97,0
1,30,30,120
1,38,0,22
1,30,0,26
1,38,98,32
1,38,0,31
1,33,98,9
1,33,0,149
1,33,93,51
1,33,0,40
1,38,101,0
1,38,0,134
1,38,83,66
1,38,0,32
1,33,105,8
1,33,0,132
1,33,104,68
1,33,0,40
1,38,95,0
1,38,0,129
1,33,105,111
1,33,0,125
1,38,93,115
1,38,0,135
1,38,90,65
1,38,0,27
1,33,111,13
1,33,0,125
1,33,98,75
1,33,0,36
1,43,97,4
1,43,0,125
1,43,94,75
1,43,0,31
1,38,105,9
1,38,0,120
1,38,98,80
1,38,0,41
1,43,101,0
1,43,0,62
1,43,103,57
1,43,0,60
1,42,100,60
1,42,0,51
1,40,105,69
1,40,0,68
1,38,97,52
1,38,0,125
1,38,94,75
1,38,0,31
1,33,105,9
1,33,0,120
1,33,98,80
1,33,0,41
1,38,101,0
1,38,0,62
1,38,103,57
1,38,0,60
1,37,100,60
1,37,0,51
1,35,105,69
1,35,0,68
1,33,97,52
1,25,30,120
1,33,0,22
1,25,0,26
1,33,98,32
1,33,0,31
1,28,98,9
1,28,0,149
1,28,93,51
1,28,0,40
1,33,101,0
1,33,0,134
1,33,83,66
1,33,0,32
1,28,105,8
1,28,0,132
1,28,104,68
1,28,0,40
1,38,97,0
1,38,0,125
1,38,94,75
1,38,0,31
1,33,105,9
1,33,0,120
1,33,98,80
1,33,0,41
1,38,101,0
1,38,0,62
1,38,103,57
1,38,0,60
1,37,100,60
1,37,0,51
1,35,105,69
1,35,0,68
1,33,97,52
1,25,30,120
1,33,0,22
1,25,0,26
1,33,98,32
1,33,0,31
1,28,98,9
1,28,0,149
1,28,93,51
1,28,0,40
1,33,101,0
1,33,0,134
1,33,83,66
1,33,0,32
1,28,105,8
1,28,0,132
1,28,104,68
1,28,0,40
1,38,102,0
1,38,0,130
1,33,116,110
1,33,0,125
1,38,106,115
1,38,0,134
1,33,113,106
1,33,0,120
1,43,93,120
1,43,0,93
1,47,99,27
1,47,0,94
1,50,113,26
1,50,0,84
1,47,121,36
1,47,0,60
1,50,103,20
1,50,0,38
1,43,110,2
1,43,0,106
1,43,121,14
1,43,0,75
1,42,114,45
1,42,0,91
1,40,117,29
1,40,0,97
1,38,93,23
1,38,0,99
1,42,120,21
1,42,0,98
1,45,116,22
1,45,0,80
1,47,121,40
1,47,0,87
1,50,120,33
1,50,0,81
1,47,121,39
1,47,0,89
1,45,116,31
1,45,0,79
1,42,118,41
1,42,0,120
1,40,103,0
1,40,0,98
1,44,113,22
1,44,0,103
1,47,106,17
1,47,0,89
1,44,108,31
1,44,0,55
1,47,89,25
1,47,0,29
1,40,97,11
1,40,0,103
1,38,101,17
1,38,0,89
1,37,98,31
1,37,0,91
1,35,116,29
1,35,0,80
1,33,93,40
1,33,0,99
1,37,120,21
1,37,0,98
1,40,116,22
1,40,0,80
1,42,121,40
1,42,0,87
1,43,120,33
1,43,0,81
1,42,121,39
1,42,0,89
1,40,116,31
1,40,0,79
1,37,118,41
1,37,0,120
1,38,97,0
1,30,30,120
1,38,0,22
1,30,0,26
1,38,98,32
1,38,0,31
1,33,98,9
1,33,0,149
1,33,93,51
1,33,0,40
1,38,101,0
1,38,0,134
1,38,83,66
1,38,0,32
1,33,105,8
1,33,0,132
1,33,104,68
1,33,0,40
1,38,95,0
1,38,0,129
1,33,105,111
1,33,0,125
1,38,93,115
1,38,0,135
1,38,90,65
1,38,0,27
1,33,111,13
1,33,0,125
1,33,98,75
1,33,0,36
1,43,97,4
1,43,0,125
1,43,94,75
1,43,0,31
1,38,105,9
1,38,0,120
1,38,98,80
1,38,0,41
1,43,101,0
1,43,0,62
1,43,103,57
1,43,0,60
1,42,100,60
1,42,0,51
1,40,105,69
1,40,0,68
1,38,97,52
1,38,0,125
1,38,94,75
1,38,0,31
1,33,105,9
1,33,0,120
1,33,98,80
1,33,0,41
1,38,101,0
1,38,0,62
1,38,103,57
1,38,0,60
1,37,100,60
1,37,0,51
1,35,105,69
1,35,0,68
1,33,97,52
1,25,30,120
1,33,0,22
1,25,0,26
1,33,98,32
1,33,0,31
1,28,98,9
1,28,0,149
1,28,93,51
1,28,0,40
1,33,101,0
1,33,0,134
1,33,83,66
1,33,0,32
1,28,105,8
1,28,0,132
1,28,104,68
1,28,0,40
1,38,97,0
1,38,0,125
1,38,94,75
1,38,0,31
1,33,105,9
1,33,0,120
1,33,98,80
1,33,0,41
1,38,101,0
1,38,0,62
1,38,103,57
1,38,0,60
1,37,100,60
1,37,0,51
1,35,105,69
1,35,0,68
1,33,95,52
1,33,0,129
1,28,105,111
1,28,0,125
1,33,98,115
1,33,0,132
1,33,90,68
1,33,0,24
1,28,106,16
1,28,0,118
1,28,90,82
1,28,0,36
1,38,105,4
1,38,0,117
1,38,98,83
1,38,0,26
1,33,118,14
1,33,0,127
1,33,98,73
1,33,0,26
1,38,106,14
1,38,0,53
1,33,118,67
1,33,0,58
1,38,113,62
1,38,0,178
2,45,80,1403
2,45,0,29
2,64,89,14
2,69,87,0
2,64,0,15
2,66,60,3
2,69,0,75
2,66,0,3
2,64,93,21
2,69,87,0
2,69,0,65
2,64,0,2
2,45,82,16
2,64,85,38
2,45,0,1
2,59,93,0
2,59,0,16
2,61,59,1
2,61,0,23
2,64,0,3
2,64,91,33
2,59,98,0
2,59,0,37
2,57,87,10
2,57,0,61
2,64,0,1
2,62,66,50
2,66,58,80
2,62,0,3
2,69,74,37
2,62,68,80
2,69,0,5
2,66,0,8
2,74,80,27
2,62,0,21
2,74,0,59
2,69,76,0
2,69,0,33
2,66,59,7
2,74,87,80
2,66,0,3
2,74,0,117
2,69,76,0
2,69,0,157
2,50,43,83
2,66,85,40
2,62,85,0
2,57,85,0
2,50,0,8
2,66,0,20
2,62,0,0
2,57,0,0
2,69,60,94
2,62,58,1
2,66,58,1
2,50,70,208
2,69,0,19
2,62,0,2
2,66,0,3
2,69,91,20
2,62,93,0
2,50,0,11
2,69,0,52
2,62,0,1
2,69,80,8
2,64,102,1
2,64,0,22
2,69,0,4
2,69,91,19
2,64,102,1
2,66,85,18
2,64,0,3
2,50,68,54
2,69,0,22
2,66,0,2
2,64,100,18
2,69,91,1
2,50,0,10
2,64,0,5
2,66,74,1
2,50,87,61
2,69,0,24
2,66,0,0
2,69,87,19
2,64,89,1
2,50,0,12
2,66,76,8
2,64,0,1
2,66,0,28
2,69,0,3
2,64,102,25
2,69,91,0
2,64,0,33
2,62,89,11
2,69,0,43
2,62,0,31
2,59,82,2
2,59,0,18
2,66,50,22
2,62,50,0
2,57,50,0
2,66,0,310
2,62,0,0
2,57,0,0
2,50,52,10
2,50,0,36
2,66,78,4
2,62,78,0
2,57,78,0
2,66,0,41
2,62,0,0
2,57,0,0
2,66,85,79
2,74,82,40
2,66,0,6
2,66,85,34
2,66,0,18
2,64,100,22
2,74,0,11
2,72,98,29
2,64,0,2
2,64,87,38
2,72,0,19
2,64,0,4
2,62,87,17
2,71,82,40
2,62,0,8
2,62,87,32
2,71,0,4
2,62,0,35
2,60,98,1
2,69,52,40
2,60,0,3
2,60,72,37
2,69,0,1
2,60,0,18
2,62,85,261
2,59,85,0
2,55,85,0
2,62,0,45
2,59,0,0
2,55,0,0
2,62,78,195
2,59,78,0
2,55,78,0
2,62,0,46
2,59,0,0
2,55,0,0
2,43,52,154
2,62,85,40
2,59,85,0
2,55,85,0
2,43,0,2
2,62,0,78
2,59,0,0
2,55,0,0
2,43,52,0
2,43,0,37
2,62,82,3
2,59,82,0
2,55,82,0
2,62,0,39
2,59,0,0
2,55,0,0
2,69,60,83
2,62,58,1
2,66,58,1
2,50,70,317
2,69,0,19
2,62,0,2
2,66,0,3
2,69,91,20
2,62,93,0
2,50,0,11
2,69,0,52
2,62,0,1
2,69,80,8
2,64,102,1
2,64,0,22
2,69,0,4
2,69,91,19
2,64,102,1
2,66,85,18
2,64,0,3
2,50,68,54
2,69,0,22
2,66,0,2
2,64,100,18
2,69,91,1
2,50,0,10
2,64,0,5
2,66,74,1
2,50,87,61
2,69,0,24
2,66,0,0
2,69,87,19
2,64,89,1
2,50,0,12
2,66,76,8
2,64,0,1
2,66,0,28
2,69,0,3
2,64,102,25
2,69,91,0
2,64,0,33
2,62,89,11
2,69,0,43
2,62,0,31
2,59,82,2
2,59,0,18
2,52,38,22
2,64,68,0
2,57,59,2
2,61,66,1
2,45,59,0
2,52,0,6
2,57,0,21
2,61,0,3
2,52,52,15
2,64,0,2
2,57,68,37
2,61,82,40
2,64,58,38
2,45,0,13
2,61,0,4
2,64,0,9
2,69,78,14
2,69,0,11
2,76,87,6
2,71,80,1
2,71,0,20
2,73,60,5
2,45,68,56
2,73,0,32
2,71,82,7
2,57,0,21
2,71,0,2
2,76,0,1
2,57,60,14
2,69,85,46
2,64,72,3
2,64,0,17
2,66,57,6
2,57,0,40
2,57,87,15
2,66,0,36
2,64,64,3
2,57,0,27
2,45,0,2
2,52,0,2
2,64,0,25
2,69,0,6
2,50,80,500
2,50,0,29
2,69,89,14
2,74,87,0
2,69,0,15
2,71,60,3
2,74,0,75
2,71,0,3
2,69,93,21
2,74,87,0
2,74,0,65
2,69,0,2
2,50,82,16
2,69,85,38
2,50,0,1
2,64,93,0
2,64,0,16
2,66,59,1
2,66,0,23
2,69,0,3
2,69,91,33
2,64,98,0
2,64,0,37
2,62,87,10
2,62,0,61
2,69,0,1
2,66,85,290
2,62,85,0
2,57,85,0
2,66,0,45
2,62,0,0
2,57,0,0
2,66,78,195
2,62,78,0
2,57,78,0
2,66,0,46
2,62,0,0
2,57,0,0
2,50,52,154
2,66,85,40
2,62,85,0
2,57,85,0
2,50,0,2
2,66,0,78
2,62,0,0
2,57,0,0
2,50,52,0
2,50,0,37
2,66,82,3
2,62,82,0
2,57,82,0
2,66,0,39
2,62,0,0
2,57,0,0
2,69,85,161
2,69,0,48
2,66,66,0
2,62,60,72
2,66,0,7
2,66,13,193
2,62,0,33
2,66,0,7
2,69,89,0
2,69,0,17
2,60,72,23
2,62,62,80
2,66,66,40
2,69,68,80
2,62,0,73
2,66,0,0
2,69,0,0
2,60,0,47
2,50,63,0
2,50,0,36
2,66,78,4
2,62,78,0
2,60,78,0
2,69,78,0
2,66,0,28
2,62,0,0
2,60,0,0
2,69,0,0
2,50,38,92
2,62,68,0
2,55,59,2
2,59,66,1
2,43,59,0
2,50,0,6
2,55,0,21
2,59,0,3
2,50,52,15
2,62,0,2
2,55,68,37
2,59,82,40
2,62,58,38
2,43,0,13
2,59,0,4
2,62,0,9
2,67,78,14
2,67,0,11
2,74,87,6
2,69,80,1
2,69,0,20
2,71,60,5
2,43,68,56
2,71,0,32
2,69,82,7
2,55,0,21
2,69,0,2
2,74,0,1
2,55,60,14
2,67,85,46
2,62,72,3
2,62,0,17
2,64,57,6
2,55,0,40
2,55,87,15
2,64,0,36
2,62,64,3
2,55,0,27
2,43,0,2
2,50,0,2
2,62,0,25
2,67,0,6
2,62,66,57
2,66,58,80
2,62,0,3
2,69,74,37
2,62,68,80
2,69,0,5
2,66,0,8
2,74,80,27
2,62,0,21
2,74,0,59
2,69,76,0
2,69,0,33
2,66,59,7
2,74,87,80
2,66,0,3
2,74,0,117
2,69,76,0
2,69,0,157
2,50,43,83
2,66,85,40
2,62,85,0
2,57,85,0
2,50,0,8
2,66,0,20
2,62,0,0
2,57,0,0
2,67,85,332
2,64,85,0
2,61,85,0
2,69,85,0
2,67,0,45
2,64,0,0
2,61,0,0
2,69,0,0
