track,note,velocity,time
1,79,100,360
1,79,0,120
1,86,100,0
1,86,0,480
1,67,100,165
1,67,0,15
1,74,100,0
1,74,0,20
1,79,100,0
1,79,0,20
1,82,100,0
1,82,0,20
1,86,100,0
1,86,0,90
1,84,100,0
1,84,0,30
1,82,100,0
1,82,0,30
1,81,100,0
1,81,0,90
1,82,100,0
1,82,0,20
1,84,100,0
1,84,0,20
1,82,100,0
1,82,0,20
1,81,100,0
1,82,100,18
1,81,0,2
1,82,0,18
1,84,100,8
1,87,100,374
1,84,0,1
1,87,100,329
1,87,0,15
1,87,0,135
1,86,100,60
1,86,0,20
1,87,100,0
1,87,0,20
1,86,100,0
1,86,0,20
1,84,100,0
1,84,0,60
1,82,100,0
1,82,0,60
1,81,100,0
1,81,0,60
1,84,100,0
1,84,0,60
1,79,100,0
1,79,0,360
1,79,100,60
1,79,0,120
1,78,100,0
1,78,0,60
1,79,100,0
1,79,0,120
1,75,100,0
1,75,0,60
1,74,100,0
1,74,0,60
1,72,100,0
1,72,0,480
1,75,100,0
1,75,0,240
1,74,100,60
1,74,0,15
1,75,100,0
1,75,0,15
1,74,100,0
1,74,0,15
1,72,100,0
1,72,0,15
1,74,100,0
1,74,0,30
1,70,100,0
1,70,0,30
1,72,100,0
1,72,0,30
1,69,100,0
1,69,0,30
1,67,100,0
1,67,0,15
1,69,100,0
1,69,0,15
1,70,100,0
1,70,0,15
1,72,100,0
1,72,0,15
1,74,100,0
1,74,0,15
1,75,100,0
1,75,0,15
1,74,100,30
1,74,0,30
1,72,100,0
1,72,0,30
1,70,100,0
1,70,0,30
1,69,100,0
1,69,0,30
1,67,100,0
1,67,0,20
1,70,100,0
1,70,0,20
1,74,100,0
1,74,0,20
1,77,100,0
1,77,0,20
1,75,100,0
1,75,0,20
1,74,100,0
1,74,0,20
1,72,100,0
1,72,0,20
1,75,100,0
1,75,0,20
1,74,100,0
1,74,0,20
1,72,100,0
1,72,0,20
1,70,100,0
1,70,0,20
1,74,100,0
1,74,0,20
1,72,100,0
1,72,0,20
1,70,100,0
1,70,0,20
1,69,100,0
1,69,0,20
1,72,100,0
1,72,0,20
1,70,100,0
1,70,0,20
1,69,100,0
1,69,0,20
1,67,100,0
1,67,0,20
1,70,100,0
1,70,0,20
1,69,100,0
1,69,0,20
1,67,100,0
1,67,0,15
1,66,100,0
1,66,0,15
1,69,100,0
1,69,0,15
1,67,100,0
1,67,0,15
1,67,100,0
1,62,100,68
1,62,100,14
1,62,0,1
1,67,0,7
1,62,100,1
1,62,0,6
1,62,100,8
1,62,0,1
1,62,0,14
1,62,100,12
1,62,0,345
1,58,100,62
1,58,0,15
1,60,100,0
1,60,0,15
1,62,100,0
1,62,0,15
1,63,100,0
1,63,0,15
1,65,100,0
1,65,0,20
1,67,100,0
1,67,0,20
1,69,100,0
1,69,0,20
1,70,100,0
1,70,0,20
1,72,100,0
1,72,0,20
1,74,100,0
1,74,0,20
1,75,100,0
1,75,0,60
1,74,100,0
1,74,0,15
1,72,100,0
1,72,0,15
1,70,100,0
1,70,0,15
1,69,100,0
1,69,0,15
1,67,100,0
1,67,0,15
1,66,100,0
1,66,0,15
1,65,100,0
1,65,0,15
1,63,100,0
1,63,0,15
1,62,100,0
1,62,0,15
1,60,100,0
1,60,0,15
1,58,100,0
1,58,0,15
1,57,100,0
1,57,0,15
1,55,100,0
1,55,0,120
1,62,100,31
1,67,100,10
1,62,0,10
1,67,0,10
1,69,100,0
1,69,0,20
1,72,100,0
1,72,0,40
1,70,100,0
1,70,0,40
1,74,100,0
1,74,0,40
1,78,100,0
1,78,0,40
1,79,100,0
1,79,0,40
1,74,100,0
1,74,0,40
1,70,100,0
1,70,0,40
1,72,100,0
1,74,100,59
1,72,0,1
1,74,0,29
1,72,100,0
1,72,0,150
1,70,100,0
1,70,0,40
1,74,100,0
1,74,0,40
1,70,100,0
1,70,0,40
1,72,100,0
1,72,0,40
1,69,100,0
1,69,0,40
1,65,100,0
1,65,0,40
1,67,100,0
1,67,0,40
1,69,100,0
1,69,0,40
1,65,100,0
1,65,0,40
1,67,100,0
1,67,0,60
1,62,100,0
1,62,0,60
1,60,100,0
1,60,0,240
1,62,100,60
1,62,0,60
1,67,100,0
1,67,0,60
1,69,100,0
1,69,0,60
1,70,100,0
1,70,0,60
1,72,100,0
1,72,0,60
1,74,100,0
1,74,0,60
1,78,100,0
1,78,0,60
1,79,100,0
1,79,0,240
1,77,100,180
1,77,0,60
1,74,100,0
1,74,0,240
1,75,100,990
1,75,0,30
1,74,100,0
1,74,0,30
1,74,100,4
1,72,100,86
1,72,0,30
1,70,100,0
1,74,0,4
1,70,0,26
1,70,100,0
1,70,0,40
1,69,100,0
1,69,0,40
1,67,100,0
1,67,0,400
1,70,100,240
1,70,0,60
1,69,100,0
1,69,0,60
1,67,100,0
1,67,0,60
1,65,100,0
1,65,0,60
1,63,100,0
1,63,0,240
1,66,100,0
1,66,0,120
1,69,100,0
1,69,0,120
1,70,100,0
1,70,0,30
1,69,100,0
1,69,0,30
1,67,100,0
1,67,0,60
1,67,100,0
1,67,0,300
1,70,100,0
1,70,0,60
1,79,100,0
1,79,0,60
1,75,100,0
1,75,0,60
1,70,100,0
1,70,0,360
1,63,100,60
1,63,0,60
1,65,100,0
1,65,0,60
1,67,100,0
1,67,0,60
1,69,100,0
1,69,0,60
1,70,100,0
1,70,0,60
1,72,100,0
1,72,0,60
1,74,100,0
1,74,0,60
1,75,100,0
1,75,0,180
1,74,100,0
1,74,0,60
1,72,100,0
1,72,0,480
1,70,100,0
1,70,0,60
1,69,100,0
1,69,0,60
1,67,100,0
1,67,0,60
1,65,100,0
1,65,0,60
1,63,100,60
1,69,100,270
1,69,0,30
1,63,0,0
1,70,100,0
1,70,0,30
1,72,100,0
1,72,0,30
1,74,100,0
1,74,0,30
1,75,100,0
1,75,0,30
1,76,100,0
1,76,0,480
1,77,100,0
1,77,0,120
1,79,100,0
1,79,0,120
1,81,100,0
1,81,0,240
1,87,100,0
1,87,0,120
1,78,100,0
1,78,0,120
1,84,100,0
1,84,0,120
1,81,100,0
1,81,0,120
1,82,100,0
1,82,0,30
1,84,100,0
1,84,0,30
1,82,100,0
1,82,0,30
1,81,100,0
1,81,0,30
1,79,100,0
1,79,0,30
1,77,100,0
1,77,0,30
1,75,100,0
1,75,0,30
1,74,100,0
1,74,0,30
1,72,100,0
1,72,0,300
1,70,100,0
1,70,0,60
1,69,100,0
1,69,0,60
1,67,100,0
1,67,0,60
1,70,100,0
1,70,0,60
1,69,100,0
1,69,0,20
1,70,100,0
1,70,0,20
1,69,100,0
1,69,0,20
1,67,100,0
1,67,0,60
1,65,100,0
1,65,0,60
1,63,100,0
1,63,0,60
1,65,100,0
1,65,0,60
1,67,100,0
1,67,0,60
1,70,100,0
1,70,0,60
1,75,100,0
1,75,0,120
1,74,100,0
1,74,0,120
1,82,100,0
1,82,0,60
1,81,100,0
1,81,0,60
1,79,100,0
1,79,0,60
1,74,100,0
1,74,0,60
1,75,100,0
1,75,0,60
1,74,100,0
1,74,0,20
1,75,100,0
1,75,0,20
1,74,100,0
1,74,0,20
1,72,100,0
1,72,0,60
1,70,100,0
1,70,0,60
1,79,100,0
1,79,0,300
1,74,100,0
1,74,0,30
1,79,100,0
1,79,0,30
1,81,100,0
1,81,0,30
1,82,100,0
1,82,0,30
1,84,100,0
1,84,0,30
1,86,100,0
1,86,0,30
1,88,100,0
1,88,0,180
1,86,100,0
1,86,0,20
1,88,100,0
1,88,0,20
1,86,100,0
1,86,0,20
1,84,100,0
1,84,0,240
1,89,100,0
1,89,0,480
1,90,100,0
1,90,0,30
1,87,100,0
1,87,0,30
1,84,100,0
1,84,0,30
1,81,100,0
1,81,0,30
1,78,100,0
1,78,0,30
1,81,100,0
1,81,0,30
1,84,100,0
1,84,0,30
1,87,100,0
1,87,0,30
1,84,100,0
1,84,0,30
1,81,100,0
1,81,0,30
1,78,100,0
1,78,0,30
1,75,100,0
1,75,0,30
1,72,100,0
1,72,0,30
1,75,100,0
1,75,0,30
1,78,100,0
1,78,0,30
1,81,100,0
1,81,0,30
1,79,100,0
1,79,0,390
1,79,100,30
1,79,0,30
1,78,100,0
1,78,0,30
1,79,100,0
1,79,0,60
1,74,100,0
1,74,0,60
1,75,100,0
1,75,0,60
1,72,100,0
1,72,0,60
1,74,100,0
1,74,0,60
1,70,100,0
1,70,0,60
1,72,100,0
1,72,0,60
1,69,100,0
1,69,0,60
1,70,100,0
1,70,0,15
1,72,100,0
1,72,0,15
1,70,100,0
1,70,0,15
1,69,100,0
1,69,0,15
1,67,100,0
1,67,0,60
1,67,100,0
1,67,0,255
1,72,100,0
1,72,0,15
1,74,100,0
1,74,0,10
1,75,100,5
1,75,0,10
1,77,100,5
1,77,0,10
1,79,100,5
1,79,0,15
1,81,100,0
1,81,0,15
1,82,100,0
1,82,0,15
1,84,100,0
1,84,0,15
1,86,100,0
1,86,0,15
1,87,100,0
1,87,0,150
1,86,100,0
1,86,0,60
1,84,100,53
1,84,0,120
1,82,100,7
1,82,0,60
1,82,100,0
1,82,0,60
1,81,100,0
1,81,0,60
1,81,100,0
1,81,0,120
1,79,100,0
1,79,0,60
1,79,100,0
1,79,0,60
1,74,100,0
1,74,0,60
1,74,100,0
1,74,0,60
1,72,100,0
1,72,0,300
1,67,100,0
1,67,0,30
1,70,100,0
1,70,0,30
1,74,100,0
1,74,0,40
1,79,100,0
1,79,0,40
1,78,100,0
1,78,0,40
1,79,100,0
1,79,0,120
1,82,100,60
1,82,0,30
1,81,100,0
1,81,0,30
1,82,100,0
1,82,0,60
1,86,100,0
1,86,0,30
1,85,100,0
1,85,0,30
1,86,100,0
1,86,0,60
1,91,100,0
1,91,0,30
1,90,100,0
1,90,0,30
1,91,100,0
1,91,0,240
1,87,100,0
1,87,0,30
1,86,100,0
1,86,0,30
1,84,100,0
1,84,0,30
1,82,100,0
1,82,0,30
1,81,100,0
1,81,0,30
1,79,100,0
1,79,0,30
1,78,100,0
1,78,0,30
1,81,100,0
1,81,0,30
1,79,100,0
1,79,0,240
1,77,100,0
1,77,0,240
1,74,100,0
1,74,0,60
1,75,100,0
1,75,0,60
1,74,100,0
1,74,0,360
1,72,100,0
1,72,0,60
1,70,100,0
1,70,0,20
1,72,100,0
1,72,0,20
1,70,100,0
1,70,0,20
1,69,100,0
1,69,0,60
1,67,100,0
1,67,0,60
1,70,100,0
1,70,0,60
1,69,100,0
1,69,0,20
1,70,100,0
1,70,0,20
1,69,100,0
1,69,0,20
1,67,100,0
1,67,0,60
1,66,100,0
1,66,0,60
1,67,100,0
1,67,0,60
1,62,100,0
1,62,0,60
1,69,100,0
1,69,0,60
1,62,100,0
1,62,0,60
1,70,100,0
1,70,0,60
1,62,100,0
1,62,0,60
1,72,100,0
1,72,0,60
1,62,100,0
1,62,0,60
1,74,100,0
1,74,0,60
1,79,100,0
1,79,0,30
1,78,100,0
1,78,0,30
1,79,100,0
1,79,0,30
1,82,100,0
1,82,0,30
1,81,100,0
1,81,0,30
1,84,100,0
1,84,0,30
1,82,100,0
1,82,0,30
1,86,100,0
1,86,0,30
1,91,100,0
1,91,0,30
1,90,100,0
1,90,0,30
1,91,100,0
1,91,0,30
1,86,100,0
1,86,0,30
1,87,100,0
1,87,0,30
1,84,100,0
1,84,0,30
1,86,100,0
1,86,0,30
1,82,100,0
1,82,0,30
1,84,100,0
1,84,0,30
1,81,100,0
1,81,0,30
1,82,100,0
1,82,0,30
1,79,100,0
1,79,0,30
1,81,100,0
1,81,0,30
1,79,100,0
1,79,0,30
1,74,100,0
1,74,0,240
1,75,100,0
1,75,0,60
1,74,100,0
1,74,0,20
1,75,100,0
1,75,0,20
1,74,100,0
1,74,0,20
1,72,100,0
1,72,0,60
1,70,100,0
1,70,0,60
1,74,100,0
1,74,0,60
1,72,100,0
1,72,0,20
1,74,100,0
1,74,0,20
1,72,100,0
1,72,0,20
1,70,100,0
1,70,0,60
1,69,100,0
1,69,0,20
1,70,100,0
1,70,0,20
1,69,100,0
1,69,0,20
1,67,100,0
1,67,0,60
1,62,100,0
1,62,0,60
1,69,100,0
1,69,0,60
1,62,100,0
1,62,0,60
1,70,100,0
1,70,0,60
1,62,100,0
1,62,0,60
1,72,100,0
1,72,0,60
1,74,100,0
1,74,0,60
1,75,100,0
1,75,0,360
1,70,100,20
1,70,0,20
1,72,100,0
1,72,0,20
1,74,100,0
1,74,0,20
1,75,100,0
1,75,0,20
1,77,100,0
1,77,0,20
1,79,100,0
1,79,0,240
1,81,100,0
1,81,0,60
1,79,100,0
1,79,0,20
1,81,100,0
1,81,0,20
1,79,100,0
1,79,0,20
1,77,100,0
1,77,0,60
1,86,100,0
1,86,0,60
1,87,100,0
1,87,0,120
1,86,100,0
1,86,0,20
1,87,100,0
1,87,0,20
1,86,100,0
1,86,0,20
1,84,100,1
1,84,0,240
1,86,100,59
1,86,0,60
1,84,100,0
1,84,0,20
1,86,100,0
1,86,0,20
1,84,100,0
1,84,0,20
1,82,100,0
1,82,0,60
1,81,100,0
1,81,0,60
1,84,100,0
1,84,0,60
1,82,100,0
1,82,0,60
1,81,100,0
1,81,0,60
1,78,100,0
1,78,0,60
1,79,100,0
1,79,0,180
1,74,100,0
1,74,0,60
1,79,100,0
1,79,0,240
1,88,100,0
1,88,0,60
1,79,100,0
1,79,0,60
1,72,100,0
1,72,0,270
1,79,100,5
1,72,100,55
1,79,0,5
1,72,0,25
1,77,100,0
1,77,0,30
1,81,100,0
1,81,0,30
1,84,100,0
1,84,0,30
1,81,100,0
1,81,0,30
1,77,100,0
1,77,0,30
1,72,100,0
1,79,100,270
1,72,0,20
1,79,0,40
1,78,100,0
1,78,0,60
1,87,100,0
1,87,0,60
1,86,100,0
1,86,0,30
1,87,100,0
1,87,0,30
1,84,100,0
1,84,0,30
1,87,100,0
1,87,0,30
1,82,100,0
1,82,0,30
1,87,100,0
1,87,0,30
1,81,100,0
1,81,0,30
1,87,100,0
1,87,0,30
1,79,100,0
1,79,0,30
1,87,100,0
1,87,0,30
1,77,100,0
1,77,0,60
1,81,100,0
1,81,0,30
1,79,100,0
1,79,0,30
1,78,100,0
1,78,0,30
1,79,100,0
1,79,0,30
1,82,100,0
1,82,0,30
1,79,100,0
1,79,0,30
1,78,100,0
1,78,0,30
1,79,100,0
1,79,0,30
1,84,100,0
1,84,0,30
1,79,100,0
1,79,0,30
1,78,100,0
1,78,0,30
1,79,100,0
1,79,0,30
1,86,100,0
1,86,0,30
1,79,100,0
1,79,0,30
1,78,100,0
1,78,0,30
1,79,100,0
1,79,0,30
1,87,100,0
1,87,0,180
1,75,100,0
1,75,0,15
1,79,100,0
1,79,0,15
1,84,100,0
1,84,0,15
1,86,100,0
1,86,0,15
1,87,100,0
1,87,0,60
1,86,100,0
1,86,0,20
1,87,100,0
1,87,0,20
1,86,100,0
1,86,0,20
1,84,100,0
1,84,0,60
1,82,100,0
1,82,0,60
1,81,100,0
1,81,0,60
1,82,100,0
1,82,0,60
1,81,100,0
1,81,0,60
1,77,100,0
1,77,0,60
1,75,100,0
1,75,0,180
1,74,100,0
1,74,0,20
1,75,100,0
1,75,0,20
1,74,100,0
1,74,0,20
1,72,100,0
1,72,0,180
1,70,100,0
1,70,0,60
1,70,100,0
1,70,0,180
1,69,100,0
1,69,0,60
1,67,100,0
1,69,100,280
1,67,0,10
1,69,0,30
1,70,100,0
1,70,0,40
1,72,100,0
1,72,0,40
1,74,100,0
1,74,0,40
1,76,100,0
1,76,0,40
1,76,100,0
1,76,0,480
1,77,100,0
1,77,0,60
1,79,100,0
1,79,0,30
1,77,100,0
1,77,0,390
1,82,100,0
1,82,0,15
1,81,100,0
1,81,0,15
1,79,100,0
1,79,0,15
1,78,100,0
1,78,0,15
1,77,100,0
1,77,0,15
1,75,100,0
1,75,0,15
1,74,100,0
1,74,0,15
1,72,100,0
1,72,0,15
