track,note,velocity,time
1,38,76,2906
1,42,65,12
1,45,71,44
1,31,74,68
1,35,75,376
1,38,74,62
1,33,73,72
1,37,73,8
1,40,72,48
1,31,71,52
1,43,68,76
1,30,73,68
1,28,74,60
1,38,78,62
1,42,67,64
1,45,66,46
1,31,81,72
1,35,80,14
1,38,79,52
1,33,85,60
1,37,75,42
1,40,75,48
1,43,67,58
1,31,81,38
1,30,81,44
1,28,82,30
1,38,76,36
1,42,65,12
1,45,71,44
1,31,74,68
1,35,75,376
1,38,74,62
1,33,73,72
1,37,73,8
1,40,72,48
1,31,71,52
1,43,68,76
1,30,73,68
1,28,74,60
1,38,78,62
1,42,67,64
1,45,66,46
1,31,81,72
1,35,80,14
1,38,79,52
1,33,85,60
1,37,75,42
1,40,75,48
1,43,67,58
1,31,81,38
1,30,81,44
1,28,82,30
1,38,76,36
1,42,65,12
1,45,71,44
1,31,74,68
1,35,75,376
1,38,74,62
1,33,73,72
1,37,73,8
1,40,72,48
1,31,71,52
1,43,68,76
1,30,73,68
1,28,74,60
1,38,78,62
1,42,67,64
1,45,66,46
1,31,81,72
1,35,80,14
1,38,79,52
1,33,85,60
1,37,75,42
1,40,75,48
1,43,67,58
1,31,81,38
1,30,81,44
1,28,82,30
1,38,76,36
1,42,65,12
1,45,71,44
1,31,74,68
1,35,75,376
1,38,74,62
1,33,73,72
1,37,73,8
1,40,72,48
1,31,71,52
1,43,68,76
1,30,73,68
1,28,74,60
1,38,78,62
1,42,67,64
1,45,66,46
1,31,81,72
1,35,80,14
1,38,79,52
1,33,85,60
1,37,75,42
1,40,75,48
1,43,67,58
1,31,81,38
1,30,81,44
1,28,82,30
1,38,76,36
1,42,65,12
1,45,71,44
1,31,74,68
1,35,75,376
1,38,74,62
1,33,73,72
1,37,73,8
1,40,72,48
1,31,71,52
1,43,68,76
1,30,73,68
1,28,74,60
1,38,78,62
1,42,67,64
1,45,66,46
1,31,81,72
1,35,80,14
1,38,79,52
1,33,85,60
1,37,75,42
1,40,75,48
1,43,67,58
1,31,81,38
1,30,81,44
1,28,82,30
1,38,76,36
1,42,65,12
1,45,71,44
1,31,74,68
1,35,75,376
1,38,74,62
1,33,73,72
1,37,73,8
1,40,72,48
1,31,71,52
1,43,68,76
1,30,73,68
1,28,74,60
1,38,78,62
1,42,67,64
1,45,66,46
1,31,81,72
1,35,80,14
1,38,79,52
1,33,85,60
1,37,75,42
1,40,75,48
1,43,67,58
1,31,81,38
1,30,81,44
1,28,82,30
1,38,76,36
1,42,65,12
1,45,71,44
1,31,74,68
1,35,75,376
1,38,74,62
1,33,73,72
1,37,73,8
1,40,72,48
1,31,71,52
1,43,68,76
1,30,73,68
1,28,74,60
1,38,78,62
1,42,67,64
1,45,66,46
1,31,81,72
1,35,80,14
1,38,79,52
1,33,85,60
1,37,75,42
1,40,75,48
1,43,67,58
1,31,81,38
1,30,81,44
1,28,82,30
1,38,76,36
1,42,65,12
1,45,71,44
1,31,74,68
1,35,75,376
1,38,74,62
1,33,73,72
1,37,73,8
1,40,72,48
1,31,71,52
1,43,68,76
1,30,73,68
1,28,74,60
1,38,78,62
1,42,67,64
1,45,66,46
1,31,81,72
1,35,80,14
1,38,79,52
1,33,85,60
1,37,75,42
1,40,75,48
1,43,67,58
1,31,81,38
1,30,81,44
1,28,82,30
1,45,72,36
1,45,66,120
1,45,70,146
1,45,75,128
1,42,56,20
1,40,68,24
1,45,70,20
1,45,70,152
1,45,68,124
1,45,74,136
1,42,65,12
1,40,67,12
1,45,72,22
1,45,71,118
1,45,68,128
1,45,71,132
1,42,67,26
1,40,61,14
1,45,74,26
1,45,70,162
1,45,70,132
1,45,76,136
1,42,56,40
1,40,67,26
1,38,76,34
1,42,65,12
1,45,71,44
1,31,74,68
1,35,75,376
1,38,74,62
1,33,73,72
1,37,73,8
1,40,72,48
1,31,71,52
1,43,68,76
1,30,73,68
1,28,74,60
1,38,78,62
1,42,67,64
1,45,66,46
1,31,81,72
1,35,80,14
1,38,79,52
1,33,85,60
1,37,75,42
1,40,75,48
1,43,67,58
1,31,81,38
1,30,81,44
1,28,82,30
1,38,76,36
1,42,65,12
1,45,71,44
1,31,74,68
1,35,75,376
1,38,74,62
1,33,73,72
1,37,73,8
1,40,72,48
1,31,71,52
1,43,68,76
1,30,73,68
1,28,74,60
1,38,78,62
1,42,67,64
1,45,66,46
1,31,81,72
1,35,80,14
1,38,79,52
1,33,85,60
1,37,75,42
1,40,75,48
1,43,67,58
1,31,81,38
1,30,81,44
1,28,82,30
1,38,76,36
1,42,65,12
1,45,71,44
1,31,74,68
1,35,75,376
1,38,74,62
1,33,73,72
1,37,73,8
1,40,72,48
1,31,71,52
1,43,68,76
1,30,73,68
1,28,74,60
1,38,78,62
1,42,67,64
1,45,66,46
1,31,81,72
1,35,80,14
1,38,79,52
1,33,85,60
1,37,75,42
1,40,75,48
1,43,67,58
1,31,81,38
1,30,81,44
1,28,82,30
1,38,76,36
1,42,65,12
1,45,71,44
1,31,74,68
1,35,75,376
1,38,74,62
1,33,73,72
1,37,73,8
1,40,72,48
1,31,71,52
1,43,68,76
1,30,73,68
1,28,74,60
1,38,78,62
1,42,67,64
1,45,66,46
1,31,81,72
1,35,80,14
1,38,79,52
1,33,85,60
1,37,75,42
1,40,75,48
1,43,67,58
1,31,81,38
1,30,81,44
1,28,82,30
1,38,76,36
1,42,65,12
1,45,71,44
1,31,74,68
1,35,75,376
1,38,74,62
1,33,73,72
1,37,73,8
1,40,72,48
1,31,71,52
1,43,68,76
1,30,73,68
1,28,74,60
1,38,78,62
1,42,67,64
1,45,66,46
1,31,81,72
1,35,80,14
1,38,79,52
1,33,85,60
1,37,75,42
1,40,75,48
1,43,67,58
1,31,81,38
1,30,81,44
1,28,82,30
1,38,76,36
1,42,65,12
1,45,71,44
1,31,74,68
1,35,75,376
1,38,74,62
1,33,73,72
1,37,73,8
1,40,72,48
1,31,71,52
1,43,68,76
1,30,73,68
1,28,74,60
1,38,78,62
1,42,67,64
1,45,66,46
1,31,81,72
1,35,80,14
1,38,79,52
1,33,85,60
1,37,75,42
1,40,75,48
1,43,67,58
1,31,81,38
1,30,81,44
1,28,82,30
1,45,83,52
1,45,60,150
1,45,76,150
1,45,81,134
1,42,66,22
1,40,68,6
1,45,77,36
1,45,68,156
1,45,73,152
1,45,79,124
1,42,63,32
1,40,62,18
1,45,80,36
1,45,70,142
1,45,77,146
1,45,74,134
1,42,64,26
1,40,62,16
1,45,76,42
1,45,75,174
1,45,80,136
1,40,71,24
1,43,71,20
1,45,79,198
1,38,76,40
1,42,65,12
1,45,71,44
1,31,74,68
1,35,75,376
1,38,74,62
1,33,73,72
1,37,73,8
1,40,72,48
1,31,71,52
1,43,68,76
1,30,73,68
1,28,74,60
1,38,78,62
1,42,67,64
1,45,66,46
1,31,81,72
1,35,80,14
1,38,79,52
1,33,85,60
1,37,75,42
1,40,75,48
1,43,67,58
1,31,81,38
1,30,81,44
1,28,82,30
1,38,76,36
1,42,65,12
1,45,71,44
1,31,74,68
1,35,75,376
1,38,74,62
1,33,73,72
1,37,73,8
1,40,72,48
1,31,71,52
1,43,68,76
1,30,73,68
1,28,74,60
1,38,78,62
1,42,67,64
1,45,66,46
1,31,81,72
1,35,80,14
1,38,79,52
1,33,85,60
1,37,75,42
1,40,75,48
1,43,67,58
1,31,81,38
1,30,81,44
1,28,82,30
1,38,76,36
1,42,65,12
1,45,71,44
1,31,74,68
1,35,75,376
1,38,74,62
1,33,73,72
1,37,73,8
1,40,72,48
1,31,71,52
1,43,68,76
1,30,73,68
1,28,74,60
1,38,78,62
1,42,67,64
1,45,66,46
1,31,81,72
1,35,80,14
1,38,79,52
1,33,85,60
1,37,75,42
1,40,75,48
1,43,67,58
1,31,81,38
1,30,81,44
1,28,82,30
1,38,76,36
1,42,65,12
1,45,71,44
1,31,74,68
1,35,75,376
1,38,74,62
1,33,73,72
1,37,73,8
1,40,72,48
1,31,71,52
1,43,68,76
1,30,73,68
1,28,74,60
1,38,78,62
1,42,67,64
1,45,66,46
1,31,81,72
1,35,80,14
1,38,79,52
1,33,85,60
1,37,75,42
1,40,75,48
1,43,67,58
1,31,81,38
1,30,81,44
1,28,82,30
1,38,76,36
1,42,65,12
1,45,71,44
1,31,74,68
1,35,75,376
1,38,74,62
1,33,73,72
1,37,73,8
1,40,72,48
1,31,71,52
1,43,68,76
1,30,73,68
1,28,74,60
1,38,78,62
1,42,67,64
1,45,66,46
1,31,81,72
1,35,80,14
1,38,79,52
1,33,85,60
1,37,75,42
1,40,75,48
1,43,67,58
1,31,81,38
1,30,81,44
1,28,82,30
1,38,76,36
1,42,65,12
1,45,71,44
1,31,74,68
1,35,75,376
1,38,74,62
1,33,73,72
1,37,73,8
1,40,72,48
1,31,71,52
1,43,68,76
1,30,73,68
1,28,74,60
1,38,78,62
1,42,67,64
1,45,66,46
1,31,81,72
1,35,80,14
1,38,79,52
1,33,85,60
1,37,75,42
1,40,75,48
1,43,67,58
1,31,81,38
1,30,81,44
1,28,82,30
1,33,80,46
1,45,76,54
1,45,80,122
1,45,80,132
1,45,88,142
1,33,91,26
1,45,70,14
1,33,97,192
1,45,80,16
1,45,74,156
1,45,79,134
1,45,79,132
1,33,83,28
1,45,73,26
1,33,94,22
1,45,79,34
1,45,73,152
1,45,81,120
1,45,85,130
1,33,81,36
1,45,79,22
1,52,87,14
1,35,82,108
1,45,73,112
1,47,95,116
1,45,78,16
1,38,76,46
1,42,65,12
1,45,71,44
1,31,74,68
1,35,75,376
1,38,74,62
1,33,73,72
1,37,73,8
1,40,72,48
1,31,71,52
1,43,68,76
1,30,73,68
1,28,74,60
1,38,78,62
1,42,67,64
1,45,66,46
1,31,81,72
1,35,80,14
1,38,79,52
1,33,85,60
1,37,75,42
1,40,75,48
1,43,67,58
1,31,81,38
1,30,81,44
1,28,82,30
1,38,76,36
1,42,65,12
1,45,71,44
1,31,74,68
1,35,75,376
1,38,74,62
1,33,73,72
1,37,73,8
1,40,72,48
1,31,71,52
1,43,68,76
1,30,73,68
1,28,74,60
1,38,78,62
1,42,67,64
1,45,66,46
1,31,81,72
1,35,80,14
1,38,79,52
1,33,85,60
1,37,75,42
1,40,75,48
1,43,67,58
1,31,81,38
1,30,81,44
1,28,82,30
1,38,76,36
1,42,65,12
1,45,71,44
1,31,74,68
1,35,75,376
1,38,74,62
1,33,73,72
1,37,73,8
1,40,72,48
1,31,71,52
1,43,68,76
1,30,73,68
1,28,74,60
1,38,78,62
1,42,67,64
1,45,66,46
1,31,81,72
1,35,80,14
1,38,79,52
1,33,85,60
1,37,75,42
1,40,75,48
1,43,67,58
1,31,81,38
1,30,81,44
1,28,82,30
1,38,76,36
1,42,65,12
1,45,71,44
1,31,74,68
1,35,75,376
1,38,74,62
1,33,73,72
1,37,73,8
1,40,72,48
1,31,71,52
1,43,68,76
1,30,73,68
1,28,74,60
1,38,78,62
1,42,67,64
1,45,66,46
1,31,81,72
1,35,80,14
1,38,79,52
1,33,85,60
1,37,75,42
1,40,75,48
1,43,67,58
1,31,81,38
1,30,81,44
1,28,82,30
1,38,76,36
1,42,65,12
1,45,71,44
1,31,74,68
1,35,75,376
1,38,74,62
1,33,73,72
1,37,73,8
1,40,72,48
1,31,71,52
1,43,68,76
1,30,73,68
1,28,74,60
1,38,78,62
1,42,67,64
1,45,66,46
1,31,81,72
1,35,80,14
1,38,79,52
1,33,85,60
1,37,75,42
1,40,75,48
1,43,67,58
1,31,81,38
1,30,81,44
1,28,82,30
1,38,76,36
1,42,65,12
1,45,71,44
1,31,74,68
1,35,75,376
1,38,74,62
1,33,73,72
1,37,73,8
1,40,72,48
1,31,71,52
1,43,68,76
1,30,73,68
1,28,74,60
1,38,78,62
1,42,67,64
1,45,66,46
1,31,81,72
1,35,80,14
1,38,79,52
1,33,85,60
1,37,75,42
1,40,75,48
1,43,67,58
1,31,81,38
1,30,81,44
1,28,82,30
1,33,66,36
1,45,79,6
1,45,78,156
1,33,81,36
1,45,78,18
1,33,85,54
1,45,75,24
1,33,91,38
1,45,81,30
1,45,75,164
1,33,92,56
1,45,78,46
1,33,88,48
1,45,71,48
1,33,92,28
1,45,76,70
1,45,74,250
1,33,86,58
1,45,73,24
1,33,79,42
1,45,65,30
1,33,94,52
1,45,70,84
1,43,98,104
1,43,85,120
1,42,80,138
1,38,91,126
1,37,67,88
1,33,73,52
1,38,76,86
1,42,65,12
1,45,71,44
1,31,74,68
1,35,75,376
1,38,74,62
1,33,73,72
1,37,73,8
1,40,72,48
1,31,71,52
1,43,68,76
1,30,73,68
1,28,74,60
1,38,78,62
1,42,67,64
1,45,66,46
1,31,81,72
1,35,80,14
1,38,79,52
1,33,85,60
1,37,75,42
1,40,75,48
1,43,67,58
1,31,81,38
1,30,81,44
1,28,82,30
1,38,76,36
1,42,65,12
1,45,71,44
1,31,74,68
1,35,75,376
1,38,74,62
1,33,73,72
1,37,73,8
1,40,72,48
1,31,71,52
1,43,68,76
1,30,73,68
1,28,74,60
1,38,78,62
1,42,67,64
1,45,66,46
1,31,81,72
1,35,80,14
1,38,79,52
1,33,85,60
1,37,75,42
1,40,75,48
1,43,67,58
1,31,81,38
1,30,81,44
1,28,82,30
1,26,88,52
2,62,95,2616
2,50,71,6
2,54,83,4
2,57,91,4
2,57,87,224
2,54,91,0
2,62,91,4
2,50,87,0
2,59,107,20
2,62,107,0
2,67,107,0
2,59,99,18
2,71,103,2
2,67,91,2
2,64,100,40
2,61,100,0
2,69,100,0
2,62,83,654
2,61,107,124
2,67,79,6
2,64,107,2
2,67,95,52
2,61,95,2
2,64,87,0
2,64,75,42
2,66,99,0
2,61,107,0
2,57,87,246
2,54,91,0
2,54,83,108
2,57,87,0
2,62,83,6
2,67,95,322
2,62,107,2
2,59,95,0
2,71,95,24
2,62,67,0
2,59,79,2
2,67,87,0
2,61,111,246
2,64,115,6
2,69,103,0
2,61,99,616
2,64,103,0
2,57,95,0
2,57,71,34
2,64,111,0
2,67,83,2
2,57,71,78
2,67,91,2
2,64,103,0
2,57,67,30
2,66,107,6
2,62,99,0
2,57,87,266
2,54,67,0
2,62,87,2
2,54,79,84
2,57,79,4
2,62,79,2
2,67,91,12
2,59,91,4
2,62,83,2
2,62,87,26
2,59,95,2
2,61,90,194
2,64,90,4
2,69,90,0
2,67,99,48
2,62,95,4
2,59,71,2
2,62,107,32
2,67,103,0
2,59,75,2
2,59,71,26
2,54,91,32
2,57,99,4
2,62,99,0
2,62,91,60
2,57,79,2
2,67,103,276
2,62,91,2
2,59,70,8
2,62,75,20
2,67,91,0
2,69,86,264
2,61,86,0
2,64,86,4
2,59,82,252
2,64,74,6
2,67,91,98
2,62,99,4
2,59,79,0
2,67,87,56
2,62,91,0
2,59,91,2
2,62,83,66
2,67,99,2
2,59,107,0
2,54,67,214
2,57,87,0
2,62,87,2
2,54,79,84
2,57,79,4
2,62,79,2
2,67,91,12
2,59,91,4
2,62,83,2
2,62,87,26
2,59,95,2
2,61,90,194
2,69,90,4
2,64,90,0
2,67,99,48
2,62,95,4
2,59,71,2
2,67,103,32
2,62,107,0
2,59,75,2
2,59,71,26
2,54,91,32
2,57,99,4
2,62,99,0
2,62,91,60
2,57,79,2
2,67,103,276
2,62,91,2
2,59,70,8
2,62,75,20
2,67,91,0
2,69,86,264
2,61,86,0
2,64,86,4
2,59,82,252
2,64,74,6
2,67,91,98
2,62,99,4
2,59,79,0
2,67,87,56
2,62,91,0
2,59,91,2
2,62,83,66
2,59,107,2
2,67,99,0
2,57,87,214
2,54,67,0
2,62,87,2
2,54,79,84
2,57,79,4
2,62,79,2
2,67,91,12
2,59,91,4
2,62,83,2
2,62,87,26
2,59,95,2
2,61,90,194
2,64,90,4
2,69,90,0
2,67,99,48
2,62,95,4
2,59,71,2
2,62,107,32
2,67,103,0
2,59,75,2
2,59,71,26
2,54,91,32
2,57,99,4
2,62,99,0
