track,note,velocity,time
1,25,97,50784
1,26,97,42
1,27,97,42
1,27,97,138
1,27,97,138
1,27,97,138
1,27,97,138
1,27,97,138
1,25,97,138
1,26,97,42
1,27,97,42
1,27,97,138
1,27,97,138
1,27,97,138
1,27,97,138
1,27,97,138
1,27,97,138
1,27,97,138
1,25,97,138
1,26,97,42
1,27,97,42
1,27,97,138
1,27,97,138
1,27,97,138
1,27,97,138
1,27,97,138
1,25,97,138
1,26,97,42
1,27,97,42
1,27,97,138
1,27,97,138
1,27,97,138
1,27,97,138
1,27,97,138
1,27,97,138
1,27,97,138
1,25,97,138
1,26,97,42
1,27,97,42
1,27,97,138
1,27,97,138
1,27,97,138
1,27,97,138
1,27,97,138
1,25,97,138
1,26,97,42
1,27,97,42
1,27,97,138
1,27,97,138
1,27,97,138
1,27,97,138
1,27,97,138
1,27,97,138
1,27,97,138
1,25,97,138
1,26,97,42
1,27,97,42
1,27,97,138
1,27,97,138
1,27,97,138
1,27,97,138
1,27,97,138
1,25,97,138
1,26,97,42
1,27,97,42
1,27,97,138
1,27,97,138
1,27,97,138
1,27,97,138
1,27,97,138
1,27,97,138
1,27,97,138
1,25,97,138
1,26,97,42
1,27,97,42
1,27,97,138
1,27,97,138
1,27,97,138
1,27,97,138
1,27,97,138
1,25,97,138
1,26,97,42
1,27,97,42
1,27,97,138
1,27,97,138
1,27,97,138
1,27,97,138
1,27,97,138
1,27,97,138
1,27,97,138
1,25,97,138
1,26,97,42
1,27,97,42
1,27,97,138
1,27,97,138
1,27,97,138
1,27,97,138
1,27,97,138
1,25,97,138
1,26,97,42
1,27,97,42
1,27,97,138
1,27,97,138
1,27,97,138
1,27,97,138
1,27,97,138
1,27,97,138
1,27,97,138
1,25,97,138
1,26,97,42
1,27,97,42
1,27,97,138
1,27,97,138
1,27,97,138
1,27,97,138
1,27,97,138
1,25,97,138
1,26,97,42
1,27,97,42
1,27,97,138
1,27,97,138
1,27,97,138
1,27,97,138
1,27,97,138
1,27,97,138
1,27,97,138
1,25,97,138
1,26,97,42
1,27,97,42
1,27,97,138
1,27,97,138
1,27,97,138
1,27,97,138
1,27,97,138
1,25,97,138
1,26,97,42
1,27,97,42
1,27,97,138
1,27,97,138
1,27,97,138
1,27,97,138
1,27,97,138
1,27,97,138
1,27,97,138
1,25,97,138
1,26,97,42
1,27,97,42
1,27,97,138
1,27,97,138
1,27,97,138
1,27,97,138
1,27,97,138
1,25,97,138
1,26,97,42
1,27,97,42
1,27,97,138
1,27,97,138
1,27,97,138
1,27,97,138
1,27,97,138
1,27,97,138
1,27,97,138
1,25,97,138
1,26,97,42
1,27,97,42
1,27,97,138
1,27,97,138
1,27,97,138
1,27,97,138
1,27,97,138
1,25,97,138
1,26,97,42
1,27,97,42
1,27,97,138
1,27,97,138
1,27,97,138
1,27,97,138
1,27,97,138
1,27,97,138
1,27,97,138
1,25,97,138
1,26,97,42
1,27,97,42
1,27,97,138
1,27,97,138
1,27,97,138
1,27,97,138
1,27,97,138
1,25,97,138
1,26,97,42
1,27,97,42
1,27,97,138
1,27,97,138
1,27,97,138
1,27,97,138
1,27,97,138
1,27,97,138
1,27,97,138
1,25,97,138
1,26,97,42
1,27,97,42
1,27,97,138
1,27,97,138
1,27,97,138
1,27,97,138
1,27,97,138
1,25,97,138
1,26,97,42
1,27,97,42
1,27,97,138
1,27,97,138
1,27,97,138
1,27,97,138
1,27,97,138
1,27,97,138
1,27,97,138
1,25,97,138
1,26,97,42
1,27,97,42
1,27,97,138
1,27,97,138
1,27,97,138
1,27,97,138
1,27,97,138
1,25,97,138
1,26,97,42
1,27,97,42
1,27,97,138
1,27,97,138
1,27,97,138
1,27,97,138
1,27,97,138
1,27,97,138
1,27,97,138
1,25,97,138
1,26,97,42
1,27,97,42
1,27,97,138
1,27,97,138
1,27,97,138
1,27,97,138
1,27,97,138
1,25,97,138
1,26,97,42
1,27,97,42
1,27,97,138
1,27,97,138
1,27,97,138
1,27,97,138
1,27,97,138
1,27,97,138
1,27,97,138
1,25,97,138
1,26,97,42
1,27,97,42
1,27,97,138
1,27,97,138
1,27,97,138
1,27,97,138
1,27,97,138
1,25,97,138
1,26,97,42
1,27,97,42
1,27,97,138
1,27,97,138
1,27,97,138
1,27,97,138
1,27,97,138
1,27,97,138
1,27,97,138
1,25,97,138
1,26,97,42
1,27,97,42
1,27,97,138
1,27,97,138
1,27,97,138
1,27,97,138
1,27,97,138
1,25,97,138
1,26,97,42
1,27,97,42
1,27,97,138
1,27,97,138
1,27,97,138
1,27,97,138
1,27,97,138
1,27,97,138
1,27,97,138
1,25,97,138
1,26,97,42
1,27,97,42
1,27,97,138
1,27,97,138
1,27,97,138
1,27,97,138
1,27,97,138
1,25,97,138
1,26,97,42
1,27,97,42
1,27,97,138
1,27,97,138
1,27,97,138
1,27,97,138
1,27,97,138
1,27,97,138
1,27,97,138
1,25,97,138
1,26,97,42
1,27,97,42
1,27,97,138
1,27,97,138
1,27,97,138
1,27,97,138
1,27,97,138
1,25,97,138
1,26,97,42
1,27,97,42
1,27,97,138
1,27,97,138
1,27,97,138
1,27,97,138
1,27,97,138
1,27,97,138
1,27,97,138
1,25,97,138
1,26,97,42
1,27,97,42
1,27,97,138
1,27,97,138
1,27,97,138
1,27,97,138
1,27,97,138
1,25,97,138
1,26,97,42
1,27,97,42
1,27,97,138
1,27,97,138
1,27,97,138
1,27,97,138
1,27,97,138
1,27,97,138
1,27,97,138
1,25,97,12426
1,26,97,42
1,27,97,42
1,27,97,138
1,27,97,138
1,27,97,138
1,27,97,138
1,27,97,138
1,25,97,138
1,26,97,42
1,27,97,42
1,27,97,138
1,27,97,138
1,27,97,138
1,27,97,138
1,27,97,138
1,27,97,138
1,27,97,138
1,25,97,138
1,26,97,42
1,27,97,42
1,27,97,138
1,27,97,138
1,27,97,138
1,27,97,138
1,27,97,138
1,25,97,138
1,26,97,42
1,27,97,42
1,27,97,138
1,27,97,138
1,27,97,138
1,27,97,138
1,27,97,138
1,27,97,138
1,27,97,138
1,25,97,138
1,26,97,42
1,27,97,42
1,27,97,138
1,27,97,138
1,27,97,138
1,27,97,138
1,27,97,138
1,25,97,138
1,26,97,42
1,27,97,42
1,27,97,138
1,27,97,138
1,27,97,138
1,27,97,138
1,27,97,138
1,27,97,138
1,27,97,138
1,25,97,138
1,26,97,42
1,27,97,42
1,27,97,138
1,27,97,138
1,27,97,138
1,27,97,138
1,27,97,138
1,25,97,138
1,26,97,42
1,27,97,42
1,27,97,138
1,27,97,138
1,27,97,138
1,27,97,138
1,27,97,138
1,27,97,138
1,27,97,138
1,25,97,138
1,26,97,42
1,27,97,42
1,27,97,138
1,27,97,138
1,27,97,138
1,27,97,138
1,27,97,138
1,25,97,138
1,26,97,42
1,27,97,42
1,27,97,138
1,27,97,138
1,27,97,138
1,27,97,138
1,27,97,138
1,27,97,138
1,27,97,138
1,25,97,138
1,26,97,42
1,27,97,42
1,27,97,138
1,27,97,138
1,27,97,138
1,27,97,138
1,27,97,138
1,25,97,138
1,26,97,42
1,27,97,42
1,27,97,138
1,27,97,138
1,27,97,138
1,27,97,138
1,27,97,138
1,27,97,138
1,27,97,138
1,25,97,138
1,26,97,42
1,27,97,42
1,27,97,138
1,27,97,138
1,27,97,138
1,27,97,138
1,27,97,138
1,25,97,138
1,26,97,42
1,27,97,42
1,27,97,138
1,27,97,138
1,27,97,138
1,27,97,138
1,27,97,138
1,27,97,138
1,27,97,138
1,25,97,138
1,26,97,42
1,27,97,42
1,27,97,138
1,27,97,138
1,27,97,138
1,27,97,138
1,27,97,138
1,25,97,138
1,26,97,42
1,27,97,42
1,27,97,138
1,27,97,138
1,27,97,138
1,27,97,138
1,27,97,138
1,27,97,138
1,27,97,138
1,25,97,138
1,26,97,42
1,27,97,42
1,27,97,138
1,27,97,138
1,27,97,138
1,27,97,138
1,27,97,138
1,25,97,138
1,26,97,42
1,27,97,42
1,27,97,138
1,27,97,138
1,27,97,138
1,27,97,138
1,27,97,138
1,27,97,138
1,27,97,138
1,25,97,138
1,26,97,42
1,27,97,42
1,27,97,138
1,27,97,138
1,27,97,138
1,27,97,138
1,27,97,138
1,25,97,138
1,26,97,42
1,27,97,42
1,27,97,138
1,27,97,138
1,27,97,138
1,27,97,138
1,27,97,138
1,27,97,138
1,27,97,138
1,25,97,138
1,26,97,42
1,27,97,42
1,27,97,138
1,27,97,138
1,27,97,138
1,27,97,138
1,27,97,138
1,25,97,138
1,26,97,42
1,27,97,42
1,27,97,138
1,27,97,138
1,27,97,138
1,27,97,138
1,27,97,138
1,27,97,138
1,27,97,138
1,25,97,138
1,26,97,42
1,27,97,42
1,27,97,138
1,27,97,138
1,27,97,138
1,27,97,138
1,27,97,138
1,25,97,138
1,26,97,42
1,27,97,42
1,27,97,138
1,27,97,138
1,27,97,138
1,27,97,138
1,27,97,138
1,27,97,138
1,27,97,138
1,25,97,138
1,26,97,42
1,27,97,42
1,27,97,138
1,27,97,138
1,27,97,138
1,27,97,138
1,27,97,138
1,25,97,138
1,26,97,42
1,27,97,42
1,27,97,138
1,27,97,138
1,27,97,138
1,27,97,138
1,27,97,138
1,27,97,138
1,27,97,138
1,27,97,138
1,27,97,96
1,34,97,0
1,34,97,96
1,27,85,0
1,27,97,288
1,34,97,0
1,33,85,0
1,34,97,62
1,27,97,140
1,27,97,96
1,34,97,0
1,34,97,96
1,27,91,0
1,27,97,288
1,34,97,0
1,33,85,0
1,34,97,62
1,27,97,140
1,27,97,96
1,34,97,0
1,34,97,96
1,27,97,0
1,27,97,288
1,34,97,0
1,33,85,0
1,34,97,62
1,27,97,140
1,27,97,96
1,34,97,0
1,34,97,96
1,27,97,0
1,27,97,288
1,34,97,0
1,33,85,0
1,34,97,62
1,27,97,142
1,27,97,96
1,34,97,0
1,34,97,96
1,27,97,0
1,27,97,288
1,34,97,0
1,33,85,0
1,34,97,62
1,25,97,140
1,26,97,42
1,27,97,42
1,27,97,138
1,27,97,138
1,27,97,138
1,27,97,138
1,27,97,138
1,25,97,138
1,26,97,42
1,27,97,42
1,27,97,138
1,27,97,138
1,27,97,138
1,27,97,138
1,27,97,138
1,27,97,138
1,27,97,138
1,25,97,138
1,26,97,42
1,27,97,42
1,27,97,138
1,27,97,138
1,27,97,138
1,27,97,138
1,27,97,138
1,25,97,138
1,26,97,42
1,27,97,42
1,27,97,138
1,27,97,138
1,27,97,138
1,27,97,138
1,27,97,138
1,27,97,138
1,27,97,138
1,25,97,138
1,26,97,42
1,27,97,42
1,27,97,138
1,27,97,138
1,27,97,138
1,27,97,138
1,27,97,138
1,25,97,138
1,26,97,42
1,27,97,42
1,27,97,138
1,27,97,138
1,27,97,138
1,27,97,138
1,27,97,138
1,27,97,138
1,27,97,138
1,25,97,138
1,26,97,42
1,27,97,42
1,27,97,138
1,27,97,138
1,27,97,138
1,27,97,138
1,27,97,138
1,25,97,138
1,26,97,42
1,27,97,42
1,27,97,138
1,27,97,138
1,27,97,138
1,27,97,138
1,27,97,138
1,27,97,138
1,27,97,138
2,39,111,1980
2,63,100,14
2,51,95,6
2,46,112,0
2,58,108,0
2,62,99,0
2,37,116,16
2,49,111,0
2,61,100,0
2,32,107,12
2,44,116,2
2,56,109,0
2,63,95,4
2,63,103,22
2,67,103,0
2,70,113,4
2,39,110,0
2,65,83,0
2,53,72,2
2,68,91,0
2,63,72,10
2,51,67,0
2,67,80,6
2,65,92,1148
2,43,110,8
2,58,92,0
2,44,107,78
2,63,88,4
2,46,110,36
2,65,88,4
2,60,60,14
2,63,72,10
2,62,68,10
2,58,60,4
2,61,80,0
2,37,80,6
2,49,84,4
2,49,68,1118
2,54,60,6
2,49,64,270
2,53,60,18
2,32,98,16
2,63,97,10
2,56,101,2
2,44,110,4
2,58,92,2152
2,60,84,190
2,63,101,66
2,65,88,62
2,39,88,10
2,51,84,4
2,58,92,2
2,63,110,0
2,51,88,36
2,68,101,16
2,63,101,2
2,63,92,12
2,67,101,2
2,65,88,438
2,58,88,8
2,46,92,2
2,62,92,2
2,46,76,8
2,46,101,14
2,63,101,172
2,67,92,10
2,62,92,0
2,65,110,2
2,46,80,24
2,46,80,16
2,56,102,2
2,49,103,6
2,53,90,2
2,61,94,2
2,56,84,10
2,53,73,4
2,61,73,0
2,53,59,0
2,56,67,16
2,49,78,4
2,56,75,2
2,61,76,0
2,53,68,0
2,66,107,0
2,49,102,4
2,61,116,0
2,58,116,2
2,61,107,20
2,56,107,0
2,65,103,2
2,49,84,8
2,42,96,66
2,61,107,8
2,54,107,4
2,66,90,2
2,60,110,326
2,63,110,4
2,56,92,4
2,44,102,4
2,44,84,20
2,60,101,12
2,63,88,0
2,56,88,4
2,44,80,12
2,60,72,0
2,63,71,8
2,58,104,390
2,60,113,12
2,63,104,274
2,65,95,204
2,39,110,126
2,63,101,6
2,70,92,4
2,67,110,4
2,67,101,80
2,63,84,2
2,70,84,8
2,63,96,34
2,68,100,4
2,72,104,8
2,63,84,42
2,70,88,2
2,67,101,0
2,60,88,2
2,63,92,0
2,68,92,4
2,58,86,44
2,67,88,6
2,65,101,12
2,58,101,2
2,62,110,2
2,46,110,4
2,65,88,38
2,58,84,4
2,62,92,2
2,46,101,52
2,63,101,72
2,67,101,2
2,60,84,6
2,62,101,4
2,46,101,4
2,65,88,4
2,58,88,2
2,46,76,20
2,46,88,18
2,46,101,20
2,47,101,184
2,58,70,2
2,62,80,6
2,48,110,30
2,60,77,4
2,64,80,2
2,49,101,66
2,56,93,0
2,61,110,8
2,65,110,6
2,56,80,8
2,65,80,0
2,61,92,8
2,65,67,10
2,49,87,4
2,61,82,6
2,49,75,24
2,61,81,10
2,65,70,0
2,49,90,6
2,56,84,4
2,61,101,0
2,66,92,4
2,65,101,198
2,44,101,8
2,60,92,0
2,63,110,0
2,68,101,2
2,44,92,80
2,60,86,40
2,63,104,0
2,68,95,0
2,44,101,102
2,60,84,70
2,63,101,0
2,68,92,2
2,63,104,6
2,44,104,2
2,60,77,0
2,68,95,0
2,63,95,16
2,60,77,2
2,68,86,0
2,60,73,68
2,63,95,0
2,68,86,2
2,60,73,50
2,63,77,0
2,68,77,2
2,46,79,15356
2,51,88,0
2,46,79,116
2,51,88,0
2,46,79,120
2,50,87,2
2,46,79,114
2,50,86,0
2,48,75,140
2,53,88,4
2,48,75,58
2,53,87,0
2,51,79,102
2,56,89,4
2,53,80,120
2,58,88,2
2,39,110,18
2,51,97,192
2,58,101,0
2,39,110,90
2,51,93,50
2,58,97,4
2,51,101,54
2,58,110,0
2,39,110,46
2,51,93,74
2,58,97,0
2,39,108,28
2,51,93,60
2,58,97,0
2,60,89,0
2,51,93,26
2,58,93,0
2,61,110,0
2,39,101,4
2,58,97,64
2,61,101,0
2,51,93,6
2,39,93,22
2,51,85,52
2,58,101,0
2,61,93,0
2,39,110,36
2,51,93,30
2,61,101,90
2,58,97,6
2,58,101,52
2,60,91,0
2,58,97,8
2,39,110,16
2,51,93,114
2,58,101,0
2,39,97,32
2,51,89,48
2,58,97,0
2,39,92,40
2,51,101,82
2,58,101,0
2,39,110,46
2,51,85,76
2,58,89,0
2,39,110,32
2,51,93,68
2,58,93,0
2,60,97,0
2,51,97,60
2,58,97,0
2,61,107,0
2,39,110,38
2,61,97,0
2,51,89,66
2,58,93,0
2,39,110,14
2,51,89,0
2,58,97,0
2,61,97,0
2,51,97,128
2,58,97,0
2,61,101,0
2,39,110,54
2,51,93,58
2,58,97,0
2,60,103,0
2,58,101,0
2,46,79,56
2,51,88,0
2,46,79,116
2,51,88,0
2,46,79,120
2,50,87,2
2,46,79,114
2,50,86,0
2,49,75,140
2,53,88,4
2,49,75,58
2,53,87,0
2,51,79,102
2,56,89,4
2,51,80,96
2,56,88,2
2,46,79,92
2,51,88,0
2,46,79,116
2,51,88,0
2,46,79,120
2,50,87,2
2,46,79,114
2,50,86,0
2,49,75,140
2,53,88,4
2,49,75,58
2,53,87,0
