track,note,velocity,time
1,59,107,2757
1,59,0,59
1,62,107,1
1,64,107,120
1,62,0,6
1,64,0,84
1,59,107,210
1,62,107,60
1,59,0,1
1,64,107,119
1,62,0,6
1,64,0,74
1,59,107,220
1,62,107,60
1,59,0,9
1,64,107,111
1,62,0,2
1,64,0,68
1,62,107,110
1,62,0,38
1,62,107,22
1,62,0,60
1,66,98,0
1,64,107,60
1,66,0,6
1,62,107,54
1,64,0,3
1,64,107,57
1,62,0,6
1,62,107,24
1,64,0,5
1,59,107,25
1,62,0,10
1,59,0,50
1,59,107,120
1,59,0,60
1,71,98,0
1,71,0,90
1,71,108,30
1,69,98,63
1,71,0,3
1,69,0,205
1,69,104,89
1,71,99,60
1,69,0,3
1,69,102,57
1,71,0,7
1,66,99,53
1,69,0,6
1,66,0,130
1,66,105,164
1,66,0,80
1,66,105,40
1,68,95,120
1,66,0,9
1,66,105,111
1,68,0,6
1,66,0,54
1,68,105,0
1,68,0,60
1,70,105,0
1,70,0,60
1,71,105,0
1,73,105,120
1,71,0,6
1,73,0,94
1,71,105,20
1,71,0,30
1,71,106,30
1,74,107,60
1,71,0,3
1,71,109,117
1,74,0,5
1,71,0,20
1,71,111,35
1,71,0,37
1,71,112,23
1,69,101,120
1,71,0,13
1,69,0,15
1,69,101,32
1,66,114,60
1,69,0,6
1,66,0,96
1,66,114,78
1,62,114,60
1,66,0,6
1,62,0,54
1,64,114,0
1,64,0,51
1,64,114,9
1,62,112,120
1,64,0,4
1,59,112,56
1,62,0,6
1,59,0,229
1,71,112,65
1,71,0,24
1,71,112,36
1,71,0,32
1,71,113,28
1,76,102,60
1,71,0,6
1,74,113,54
1,76,0,6
1,71,114,54
1,74,0,4
1,71,0,26
1,71,114,30
1,71,0,80
1,71,114,40
1,71,0,26
1,71,114,34
1,74,114,60
1,71,0,4
1,71,114,116
1,74,0,6
1,71,0,26
1,71,114,28
1,71,0,26
1,71,114,34
1,69,103,120
1,71,0,10
1,69,0,22
1,69,104,28
1,66,115,60
1,69,0,6
1,66,0,95
1,66,115,79
1,62,115,60
1,66,0,10
1,64,114,50
1,62,0,4
1,64,0,32
1,64,114,24
1,64,0,120
1,62,111,0
1,59,109,60
1,62,0,3
1,59,0,187
1,59,109,770
1,62,110,60
1,59,0,6
1,64,110,114
1,62,0,3
1,64,0,62
1,59,108,235
1,62,108,60
1,59,0,3
1,64,107,117
1,62,0,6
1,64,0,59
1,59,106,235
1,62,106,60
1,59,0,9
1,64,106,111
1,62,0,2
1,64,0,63
1,62,108,115
1,62,0,40
1,62,109,20
1,66,98,60
1,62,0,6
1,64,109,54
1,66,0,13
1,62,110,47
1,64,0,10
1,64,111,50
1,62,0,6
1,62,112,24
1,64,0,5
1,59,112,25
1,62,0,13
1,59,0,53
1,59,107,114
1,59,0,60
1,71,103,0
1,71,0,90
1,71,103,30
1,69,99,120
1,71,0,6
1,69,0,124
1,69,99,110
1,69,0,60
1,71,108,0
1,69,108,60
1,71,0,7
1,66,99,53
1,69,0,6
1,66,0,124
1,66,105,170
1,66,0,103
1,66,105,17
1,68,105,120
1,66,0,9
1,66,105,111
1,68,0,6
1,66,0,54
1,68,105,0
1,70,105,60
1,68,0,6
1,71,105,54
1,70,0,3
1,71,0,117
1,73,108,0
1,71,105,120
1,73,0,10
1,71,0,20
1,71,106,30
1,74,107,60
1,71,0,3
1,71,109,117
1,74,0,5
1,71,0,20
1,71,111,35
1,71,0,37
1,71,112,23
1,69,105,120
1,71,0,3
1,69,0,25
1,69,105,32
1,66,114,60
1,69,0,10
1,66,0,92
1,66,114,78
1,66,0,60
1,62,114,0
1,64,114,60
1,62,0,6
1,64,0,45
1,64,114,9
1,62,112,120
1,64,0,4
1,59,112,56
1,62,0,6
1,59,0,164
1,71,112,130
1,71,0,24
1,71,112,36
1,71,0,32
1,71,113,28
1,76,113,60
1,71,0,10
1,74,113,50
1,76,0,6
1,71,114,54
1,74,0,4
1,71,0,26
1,71,114,30
1,71,0,80
1,71,114,40
1,71,0,26
1,71,114,34
1,74,114,60
1,71,0,4
1,71,114,116
1,74,0,2
1,71,0,30
1,71,114,28
1,71,0,26
1,71,114,34
1,71,0,120
1,69,106,0
1,69,0,32
1,69,102,28
1,66,115,60
1,69,0,3
1,66,0,98
1,66,115,79
1,62,115,60
1,66,0,10
1,64,114,50
1,62,0,4
1,64,0,32
1,64,114,24
1,64,0,120
1,62,111,0
1,62,0,60
1,59,109,0
1,59,0,190
1,71,109,6830
1,74,109,60
1,71,0,6
1,76,109,54
1,74,0,10
1,76,0,22
1,76,109,28
1,74,109,60
1,76,0,4
1,74,0,26
1,74,109,30
1,71,109,60
1,74,0,13
1,71,0,19
1,71,109,28
1,71,0,99
1,71,109,21
1,71,0,43
1,71,109,17
1,74,109,60
1,71,0,13
1,74,0,47
1,71,109,0
1,69,109,60
1,71,0,6
1,71,109,54
1,69,0,6
1,71,0,54
1,71,109,180
1,71,0,24
1,71,109,36
1,74,109,60
1,71,0,10
1,74,0,24
1,74,109,26
1,76,109,120
1,74,0,6
1,74,109,54
1,76,0,4
1,74,0,26
1,74,109,30
1,71,109,60
1,74,0,8
1,71,0,22
1,71,109,30
1,69,109,60
1,71,0,6
1,71,109,54
1,69,0,3
1,71,0,35
1,71,109,22
1,71,0,76
1,71,110,44
1,71,0,30
1,71,111,30
1,74,111,60
1,71,0,6
1,71,111,114
1,74,0,5
1,71,0,20
1,71,111,35
1,71,0,37
1,71,112,23
1,69,104,120
1,71,0,3
1,69,0,25
1,69,97,32
1,66,114,60
1,69,0,10
1,66,0,92
1,66,114,78
1,66,0,60
1,62,114,0
1,62,0,58
1,64,114,2
1,64,0,51
1,64,114,9
1,62,112,120
1,64,0,6
1,62,0,54
1,59,112,0
1,59,0,156
1,71,112,144
1,71,0,24
1,71,112,36
1,71,0,32
1,71,113,28
1,76,113,60
1,71,0,3
1,74,113,57
1,76,0,6
1,71,114,54
1,74,0,4
1,71,0,26
1,71,114,30
1,71,0,80
1,71,114,40
1,71,0,26
1,71,114,34
1,74,114,60
1,71,0,4
1,71,114,116
1,74,0,2
1,71,0,30
1,71,114,28
1,71,0,26
1,71,114,34
1,71,0,120
1,69,105,0
1,69,0,32
1,69,101,28
1,66,115,60
1,69,0,10
1,66,0,91
1,66,115,79
1,62,115,60
1,66,0,6
1,64,114,54
1,62,0,4
1,64,0,32
1,64,114,24
1,62,111,120
1,64,0,10
1,59,109,50
1,62,0,3
1,71,108,177
1,59,0,10
1,71,0,166
1,74,105,124
1,74,0,60
1,76,103,0
1,74,105,60
1,76,0,8
1,71,105,52
1,74,0,5
1,71,0,71
1,71,105,44
1,71,0,28
1,71,105,32
1,74,105,60
1,71,0,6
1,71,101,114
1,74,0,3
1,71,0,23
1,71,101,34
1,71,0,32
1,71,100,28
1,69,98,120
1,71,0,4
1,66,98,56
1,69,0,6
1,66,0,21
1,66,96,33
1,66,0,114
1,66,96,66
1,62,96,60
1,66,0,11
1,64,96,49
1,62,0,3
1,64,0,38
1,64,95,19
1,64,0,150
1,64,94,30
1,64,0,420
1,66,91,0
1,64,74,30
1,66,0,6
1,62,91,24
1,64,0,10
1,62,0,470
1,59,81,0
1,59,0,480
2,74,95,6652
2,74,0,25
2,74,95,35
2,74,0,37
2,74,95,23
2,74,0,109
2,71,95,11
2,71,0,28
2,71,95,32
2,71,0,54
2,69,95,6
2,69,0,102
2,69,95,78
2,69,0,54
2,69,95,6
2,69,0,58
2,68,95,2
2,68,0,51
2,68,95,9
2,64,96,120
2,68,0,4
2,64,0,26
2,62,96,30
2,62,0,235
2,68,96,545
2,68,0,26
2,68,95,34
2,71,95,60
2,68,0,4
2,74,94,116
2,71,0,2
2,74,0,30
2,74,95,28
2,74,0,26
2,74,95,34
2,69,95,120
2,74,0,21
2,69,0,11
2,69,95,28
2,69,0,30
2,69,95,30
2,69,0,101
2,69,95,79
2,69,0,58
2,69,95,2
2,68,95,60
2,69,0,4
2,68,0,32
2,68,96,24
2,68,0,120
2,64,97,0
2,64,0,30
2,62,83,30
2,62,0,245
2,57,102,1015
2,62,102,0
2,62,0,56
2,57,0,4
2,61,102,0
2,56,102,0
2,61,0,53
2,56,0,7
2,59,102,0
2,54,102,0
2,59,0,47
2,54,0,4
2,59,96,1449
2,55,96,0
2,55,0,239
2,59,0,0
2,61,96,1
2,57,96,0
2,57,0,239
2,61,0,0
2,62,96,1
2,54,96,0
2,54,0,239
2,62,0,0
2,71,97,1021
2,71,0,30
2,71,97,30
2,71,0,52
2,71,96,8
2,74,95,120
2,71,0,5
2,74,0,20
2,74,95,35
2,74,0,37
2,74,95,23
2,74,0,109
2,71,95,11
2,71,0,28
2,71,95,32
2,71,0,54
2,69,95,6
2,69,0,102
2,69,95,78
2,69,0,54
2,69,95,6
2,69,0,58
2,68,95,2
2,68,0,51
2,68,95,9
2,64,96,120
2,68,0,4
2,64,0,26
2,62,96,30
2,62,0,235
2,68,96,545
2,68,0,26
2,68,95,34
2,71,95,60
2,68,0,4
2,74,94,116
2,71,0,2
2,74,0,30
2,74,95,28
2,74,0,26
2,74,95,34
2,69,95,120
2,74,0,21
2,69,0,11
2,69,95,28
2,69,0,30
2,69,95,30
2,69,0,101
2,69,95,79
2,69,0,58
2,69,95,2
2,68,95,60
2,69,0,4
2,68,0,32
2,68,96,24
2,68,0,120
2,64,97,0
2,64,0,30
2,62,83,30
2,62,0,250
2,54,85,7070
2,50,85,0
2,50,0,86
2,54,0,0
2,56,83,154
2,52,83,0
2,56,0,85
2,52,0,2
2,50,87,153
2,54,87,0
2,54,0,90
2,50,0,2
2,56,82,148
2,52,82,0
2,52,0,101
2,56,0,2
2,54,82,137
2,50,82,0
2,50,0,92
2,54,0,2
2,52,82,146
2,56,82,0
2,56,0,81
2,52,0,2
2,50,81,157
2,54,81,0
2,50,0,90
2,54,0,6
2,56,83,144
2,52,83,0
2,52,0,73
2,56,0,0
2,74,95,107
2,74,0,25
2,74,95,35
2,74,0,37
2,74,95,23
2,74,0,109
2,71,95,11
2,71,0,28
2,71,95,32
2,71,0,54
2,69,95,6
2,69,0,102
2,69,95,78
2,69,0,54
2,69,95,6
2,69,0,58
2,68,95,2
2,68,0,51
2,68,95,9
2,64,96,120
2,68,0,4
2,64,0,26
2,62,96,30
2,62,0,235
2,68,96,545
2,68,0,26
2,68,95,34
2,71,95,60
2,68,0,4
2,74,94,116
2,71,0,2
2,74,0,30
2,74,95,28
2,74,0,26
2,74,95,34
2,69,95,120
2,74,0,21
2,69,0,11
2,69,95,28
2,69,0,30
2,69,95,30
2,69,0,101
2,69,95,79
2,69,0,58
2,69,95,2
2,68,95,60
2,69,0,4
2,68,0,32
2,68,96,24
2,68,0,120
2,64,97,0
2,64,0,30
2,62,83,30
2,62,0,245
2,71,81,655
2,71,0,90
2,69,81,30
2,69,0,26
2,69,81,34
2,69,0,32
2,68,81,28
2,66,82,120
2,68,0,4
2,64,82,56
2,66,0,6
2,64,0,21
2,62,82,33
2,62,0,114
2,59,76,186
2,59,0,30
2,59,76,30
2,59,0,150
2,59,80,30
2,59,0,479
2,57,80,1
2,57,0,473
2,54,75,7
2,54,0,480
3,71,84,2747
3,62,84,0
3,66,84,0
3,62,0,147
3,71,0,4
3,66,0,8
3,64,84,21
3,68,84,0
3,71,84,0
3,71,0,274
3,68,0,23
3,71,84,3
3,62,84,0
3,66,84,0
3,64,0,1
3,71,0,126
3,62,0,20
3,66,0,12
3,64,84,21
3,68,84,0
3,71,84,0
3,71,0,281
3,68,0,16
3,71,84,3
3,62,84,0
3,66,84,0
3,64,0,1
3,62,0,146
3,71,0,10
3,66,0,2
3,64,84,21
3,68,84,0
3,71,84,0
3,71,0,271
3,68,0,26
3,71,84,3
3,62,84,0
3,66,84,0
3,64,0,1
3,71,0,146
3,62,0,0
3,66,0,12
3,64,84,21
3,68,84,0
3,71,84,0
3,68,0,297
3,59,84,3
3,67,84,0
3,62,84,0
3,64,0,1
3,71,0,4
3,67,0,114
3,59,0,0
3,62,0,0
3,67,84,1
3,62,84,0
3,59,84,0
3,59,0,119
3,62,0,0
3,67,0,0
3,61,84,1
3,64,84,0
3,57,84,0
3,57,0,119
3,64,0,0
3,61,0,0
3,61,84,1
3,57,84,0
3,64,84,0
3,64,0,119
3,57,0,0
3,61,0,0
3,62,84,1
3,66,84,0
3,57,84,0
3,57,0,119
3,66,0,0
3,62,0,0
3,66,84,1
3,57,84,0
3,62,84,0
3,62,0,119
3,57,0,0
3,66,0,0
3,69,84,1
3,66,84,0
3,62,84,0
3,62,0,59
3,66,0,0
3,69,0,0
3,62,84,1
3,69,84,0
3,66,84,0
3,66,0,59
3,69,0,0
3,62,0,0
3,68,84,1
3,65,84,0
3,61,84,0
3,61,0,59
3,65,0,0
3,68,0,0
3,64,84,1
3,67,84,0
3,60,84,0
3,60,0,59
3,67,0,0
3,64,0,0
3,62,84,1
3,66,84,0
3,71,84,0
3,71,0,119
3,66,0,0
3,62,0,0
3,66,84,1
3,62,84,0
3,71,84,0
3,71,0,119
3,62,0,0
3,66,0,0
3,71,84,1
3,68,84,0
3,64,84,0
3,64,0,119
3,68,0,0
3,71,0,0
3,64,84,1
3,71,84,0
3,68,84,0
3,68,0,119
3,71,0,0
3,64,0,0
3,61,84,1
3,70,84,0
3,68,84,0
3,64,84,0
3,64,0,59
3,61,0,0
3,70,0,0
3,68,0,0
3,70,84,1
3,61,84,0
3,64,84,0
3,68,84,0
3,68,0,59
3,70,0,0
3,61,0,0
3,64,0,0
3,61,84,1
3,70,84,0
3,64,84,0
3,68,84,0
3,68,0,59
3,61,0,0
3,70,0,0
3,64,0,0
3,70,84,1
3,61,84,0
3,64,84,0
3,68,84,0
3,68,0,59
3,70,0,0
3,61,0,0
3,64,0,0
3,70,84,1
3,61,84,0
3,64,84,0
3,68,84,0
3,68,0,59
3,70,0,0
3,61,0,0
3,64,0,0
3,70,84,1
3,61,84,0
3,64,84,0
3,68,84,0
3,68,0,59
3,70,0,0
3,61,0,0
3,64,0,0
3,70,84,1
3,64,84,0
3,61,84,0
3,68,84,0
3,68,0,59
3,70,0,0
3,64,0,0
3,61,0,0
3,70,84,1
3,61,84,0
3,64,84,0
3,68,84,0
3,68,0,59
3,70,0,0
3,61,0,0
3,64,0,0
3,62,84,1
3,71,84,0
3,66,84,0
3,66,0,119
3,71,0,0
3,62,0,0
3,66,84,1
3,71,84,0
3,62,84,0
3,62,0,119
3,71,0,0
3,66,0,0
3,64,84,1
3,68,84,0
3,71,84,0
3,71,0,119
3,68,0,0
3,64,0,0
3,71,84,1
3,64,84,0
3,68,84,0
3,68,0,119
3,64,0,0
3,71,0,0
3,62,84,1
3,71,84,0
3,66,84,0
3,66,0,119
3,71,0,0
3,62,0,0
3,66,84,1
3,71,84,0
3,62,84,0
3,62,0,119
3,71,0,0
3,66,0,0
3,64,84,1
3,68,84,0
3,71,84,0
3,71,0,119
3,68,0,0
3,64,0,0
3,71,84,1
3,64,84,0
3,68,84,0
3,68,0,119
3,64,0,0
3,71,0,0
3,62,84,1
3,71,84,0
3,66,84,0
3,66,0,119
3,71,0,0
3,62,0,0
3,66,84,1
3,71,84,0
3,62,84,0
3,62,0,119
3,71,0,0
3,66,0,0
3,64,84,1
3,68,84,0
3,71,84,0
3,71,0,119
3,68,0,0
3,64,0,0
3,71,84,1
3,64,84,0
3,68,84,0
3,68,0,119
3,64,0,0
3,71,0,0
3,62,84,1
3,71,84,0
3,66,84,0
3,66,0,119
3,71,0,0
3,62,0,0
3,66,84,1
3,71,84,0
3,62,84,0
3,62,0,119
3,71,0,0
3,66,0,0
3,64,84,1
3,68,84,0
3,71,84,0
3,71,0,119
3,68,0,0
3,64,0,0
3,71,84,1
3,64,84,0
3,68,84,0
3,68,0,119
3,64,0,0
3,71,0,0
3,62,84,1
3,71,84,0
3,66,84,0
3,66,0,119
3,71,0,0
3,62,0,0
3,66,84,1
3,71,84,0
