track,note,velocity,time
1,57,101,11360
1,57,101,48
1,57,110,96
1,57,103,980
1,55,110,48
1,57,121,48
1,60,109,48
1,62,117,96
1,65,110,500
1,69,121,740
1,69,95,336
1,65,122,48
1,67,117,48
1,65,116,48
1,69,112,2420
1,69,110,96
1,67,115,48
1,69,111,500
1,67,109,96
1,69,121,260
1,67,110,96
1,65,110,48
1,57,118,48
1,57,111,48
1,57,116,96
1,57,104,980
1,55,109,48
1,57,111,48
1,60,110,48
1,62,103,96
1,65,104,500
1,69,95,740
1,69,97,336
1,65,103,48
1,67,105,48
1,65,110,48
1,69,103,2420
1,69,108,96
1,67,110,48
1,69,120,500
1,67,108,96
1,69,98,260
1,67,109,96
1,65,106,48
1,57,113,48
1,57,101,48
1,57,116,96
1,57,122,1460
1,60,115,48
1,62,117,96
1,65,114,500
1,69,96,740
1,69,107,336
1,65,119,48
1,67,117,48
1,65,109,48
1,69,117,1940
1,69,118,96
1,67,117,48
1,69,124,48
1,67,116,48
1,69,110,500
1,67,110,96
1,69,107,260
1,67,106,96
1,65,110,48
1,57,115,48
1,57,99,48
1,57,110,96
1,57,96,1460
1,60,107,48
1,62,101,96
1,65,107,500
1,69,99,740
1,69,122,336
1,65,110,48
1,67,111,48
1,65,112,48
1,67,109,1460
1,67,103,48
1,65,105,48
1,67,108,96
1,65,108,48
1,67,117,48
1,65,110,48
1,65,110,740
1,67,110,48
1,65,109,48
1,69,112,48
1,67,102,144
1,69,107,48
1,67,120,24
1,65,117,24
1,65,111,1220
1,67,110,48
1,65,123,48
1,65,109,48
1,67,104,96
1,65,102,48
1,62,120,260
1,65,96,48
1,65,101,48
1,72,109,144
1,69,110,240
1,67,116,96
1,69,109,96
1,67,108,24
1,65,111,24
1,65,110,260
1,62,110,96
1,65,96,48
1,65,97,96
1,62,122,48
1,65,106,48
1,69,100,48
1,67,97,144
1,65,101,48
1,69,108,500
1,69,104,48
1,69,123,48
1,69,110,96
1,67,120,48
1,69,118,500
1,69,108,48
1,69,120,48
1,69,96,96
1,70,99,144
1,69,111,24
1,67,112,24
1,57,114,500
1,57,110,48
1,57,101,96
1,57,110,980
1,55,108,48
1,57,104,48
1,60,114,48
1,62,116,96
1,65,110,500
1,69,108,740
1,69,111,336
1,65,120,48
1,67,110,48
1,65,107,48
1,69,115,2420
1,69,110,96
1,67,100,48
1,69,109,500
1,67,98,96
1,69,111,260
1,67,117,96
1,65,109,48
1,57,116,48
1,57,118,48
1,57,108,96
1,57,103,980
1,55,101,48
1,57,109,48
1,60,115,48
1,62,102,96
1,65,104,500
1,69,113,740
1,69,111,336
1,65,101,48
1,67,111,48
1,65,113,48
1,69,96,2420
1,69,119,96
1,67,111,48
1,69,114,500
1,67,98,96
1,69,102,260
1,67,106,96
1,65,122,48
1,69,100,48
1,69,109,48
1,65,97,96
1,70,112,740
1,70,110,48
1,70,112,48
1,72,108,48
1,72,114,260
1,69,107,260
1,69,103,48
1,65,99,96
1,70,102,240
1,70,110,48
1,70,119,48
1,72,97,48
1,72,110,240
1,69,112,240
1,69,109,48
1,65,123,96
1,70,116,240
1,70,110,48
1,70,119,48
1,72,107,48
1,72,109,240
2,72,105,3200
2,74,110,48
2,69,110,48
2,77,111,0
2,69,121,48
2,77,103,0
2,69,104,96
2,77,110,0
2,72,106,240
2,81,109,0
2,70,118,48
2,79,102,0
2,72,100,96
2,81,123,0
2,70,103,48
2,79,109,0
2,72,110,48
2,81,108,0
2,70,106,48
2,79,96,0
2,69,102,48
2,77,103,0
2,70,113,48
2,79,119,0
2,69,98,48
2,77,103,0
2,69,114,96
2,77,112,0
2,69,104,48
2,77,115,0
2,72,119,192
2,81,106,0
2,72,111,48
2,81,112,0
2,70,124,48
2,79,119,0
2,70,101,48
2,79,98,0
2,69,99,48
2,77,108,0
2,69,113,48
2,77,101,0
2,67,112,48
2,76,116,0
2,67,120,48
2,76,108,0
2,57,114,48
2,57,108,48
2,57,97,96
2,57,110,336
2,55,106,48
2,57,115,48
2,60,110,48
2,53,107,96
2,62,115,0
2,57,117,192
2,65,96,0
2,62,115,192
2,65,111,0
2,69,111,0
2,62,112,336
2,69,98,0
2,65,101,48
2,58,105,48
2,67,111,0
2,62,100,48
2,65,109,0
2,62,112,624
2,65,114,0
2,69,117,0
2,60,110,96
2,60,110,384
2,65,120,0
2,69,104,0
2,64,109,96
2,67,107,0
2,60,122,260
2,65,105,0
2,69,108,0
2,64,108,96
2,67,97,0
2,65,106,48
2,57,110,48
2,57,106,48
2,57,110,96
2,57,117,336
2,55,112,48
2,57,119,48
2,60,107,48
2,53,105,96
2,62,106,0
2,57,110,192
2,65,101,0
2,62,107,192
2,65,110,0
2,69,99,0
2,62,104,336
2,69,124,0
2,65,100,48
2,58,110,48
2,67,102,0
2,62,114,48
2,65,114,0
2,62,100,624
2,65,118,0
2,69,124,0
2,60,105,96
2,60,111,384
2,65,110,0
2,69,108,0
2,64,115,96
2,67,108,0
2,60,109,260
2,65,112,0
2,69,110,0
2,64,114,96
2,67,96,0
2,65,116,48
2,57,115,48
2,57,110,48
2,57,103,96
2,57,106,432
2,60,110,48
2,62,110,96
2,53,115,0
2,57,108,192
2,65,111,0
2,62,114,192
2,65,124,0
2,69,110,0
2,62,102,336
2,69,110,0
2,65,114,48
2,58,109,48
2,67,108,0
2,62,124,48
2,65,107,0
2,62,112,528
2,65,116,0
2,69,110,0
2,62,113,96
2,65,111,0
2,69,102,0
2,67,106,48
2,60,110,48
2,60,114,384
2,65,112,0
2,69,105,0
2,64,124,96
2,67,108,0
2,60,109,260
2,65,106,0
2,69,114,0
2,64,109,96
2,67,117,0
2,65,114,48
2,57,104,48
2,57,107,48
2,57,115,96
2,57,104,432
2,60,108,48
2,53,110,96
2,62,117,0
2,57,107,192
2,65,105,0
2,62,110,192
2,65,109,0
2,69,107,0
2,62,110,336
2,69,105,0
2,65,108,48
2,58,123,48
2,67,109,0
2,62,109,48
2,65,106,0
2,60,122,432
2,67,110,0
2,60,108,48
2,67,110,0
2,60,124,48
2,65,112,0
2,60,118,96
2,67,113,0
2,65,112,48
2,60,99,48
2,57,112,0
2,65,123,305
2,67,110,48
2,65,118,48
2,69,110,48
2,67,108,144
2,69,107,48
2,67,102,24
2,65,110,24
2,58,124,500
2,62,98,0
2,65,106,144
2,67,104,48
2,65,98,48
2,65,98,48
2,67,110,96
2,65,109,48
2,62,104,260
2,65,115,48
2,65,101,48
2,69,104,144
2,72,116,0
2,69,110,240
2,67,109,96
2,69,118,96
2,67,115,24
2,65,96,24
2,65,109,260
2,62,103,96
2,59,118,48
2,65,109,0
2,59,109,96
2,65,109,0
2,62,100,48
2,65,114,48
2,69,111,48
2,64,118,144
2,67,110,0
2,62,95,48
2,65,101,0
2,62,105,144
2,65,112,0
2,69,110,0
2,62,117,48
2,65,120,0
2,69,110,0
2,62,110,48
2,65,102,0
2,69,110,0
2,60,107,96
2,65,103,0
2,69,113,0
2,64,116,48
2,67,110,0
2,60,114,144
2,65,109,0
2,69,115,0
2,60,98,48
2,65,115,0
2,69,112,0
2,60,107,48
2,65,116,0
2,69,97,0
2,58,113,96
2,64,102,0
2,57,115,288
2,57,124,48
2,57,109,96
2,57,104,336
2,55,104,48
2,57,110,48
2,60,110,48
2,53,112,96
2,62,110,0
2,57,120,192
2,65,98,0
2,62,107,192
2,65,110,0
2,69,110,0
2,62,110,336
2,69,104,0
2,65,121,48
2,58,115,48
2,67,105,0
2,62,110,48
2,65,122,0
2,62,118,624
2,65,113,0
2,69,103,0
2,60,98,96
2,60,108,384
2,65,104,0
2,69,110,0
2,64,110,96
2,67,106,0
2,60,110,260
2,65,103,0
2,69,101,0
2,64,104,96
2,67,105,0
2,65,114,48
2,57,112,48
2,57,110,48
2,57,107,96
2,57,124,336
2,55,110,48
2,57,125,48
2,60,102,48
2,53,106,96
2,62,101,0
2,57,110,192
2,65,112,0
2,62,107,192
2,65,116,0
2,69,95,0
2,62,113,336
2,69,109,0
2,65,110,48
2,58,118,48
2,67,103,0
2,62,119,48
2,65,121,0
2,62,100,624
2,65,113,0
2,69,108,0
2,60,115,96
2,60,113,384
2,65,115,0
2,69,117,0
2,64,109,96
2,67,119,0
2,60,108,260
2,65,101,0
2,69,115,0
2,64,110,96
2,67,96,0
2,65,119,48
2,60,96,48
2,69,98,0
2,60,110,48
2,69,98,0
2,57,97,96
2,65,114,0
2,62,107,288
2,70,112,0
2,62,98,48
2,70,110,0
2,62,111,48
2,70,109,0
2,64,112,48
2,72,116,0
2,60,100,96
2,69,112,0
2,60,107,48
2,69,105,0
2,57,108,96
2,65,115,0
2,62,108,240
2,70,104,0
2,62,114,48
2,70,110,0
2,62,110,48
2,70,104,0
2,64,103,48
2,72,98,0
2,60,109,96
2,69,107,0
2,60,124,48
2,69,123,0
2,57,115,96
2,65,121,0
2,62,111,240
2,70,105,0
2,62,121,48
2,70,107,0
2,62,111,48
2,70,98,0
2,72,116,0
2,64,102,0
3,65,85,3680
3,60,85,0
3,57,85,0
3,65,74,960
3,69,70,0
3,72,80,212
3,77,100,4
3,62,85,156
3,58,85,0
3,53,85,0
3,58,74,960
3,62,70,0
3,65,80,212
3,70,100,4
3,65,87,156
3,60,87,0
3,57,87,0
3,65,82,72
3,60,82,0
3,57,82,0
3,65,82,344
3,60,82,0
3,57,82,0
3,64,89,444
3,60,89,0
3,58,89,0
3,67,89,0
3,65,91,84
3,60,91,0
3,57,91,0
3,65,93,188
3,60,93,0
3,57,93,0
3,65,98,184
3,60,98,0
3,57,98,0
3,65,87,184
3,60,87,0
3,57,87,0
3,65,82,300
3,62,82,0
3,57,82,0
3,50,70,1200
3,65,85,236
3,62,85,0
3,57,85,0
3,65,70,124
3,62,70,0
3,57,70,0
3,65,82,48
3,62,82,0
3,57,82,0
3,65,82,316
3,62,82,0
3,57,82,0
3,65,82,256
3,62,82,0
3,58,82,0
3,65,85,152
3,62,85,0
3,58,85,0
3,65,80,368
3,62,80,0
3,58,80,0
3,65,89,540
3,62,89,0
3,58,89,0
3,55,58,192
3,64,76,0
3,60,82,0
3,36,70,1680
3,55,70,80
3,64,82,0
3,60,82,0
3,55,78,100
3,64,66,0
3,60,85,0
3,64,80,332
3,55,85,0
3,60,82,0
3,36,93,296
3,55,93,240
3,64,87,0
3,60,93,0
3,65,91,276
3,60,91,0
3,57,91,0
3,65,85,960
3,69,72,240
3,72,74,240
3,77,63,164
3,65,76,0
3,60,76,0
3,57,76,0
3,65,82,104
3,60,82,0
3,57,82,0
3,65,93,324
3,60,93,0
3,57,93,0
3,65,80,228
3,62,80,0
3,57,80,0
3,50,76,1200
3,65,87,0
3,62,87,0
3,57,87,0
3,65,95,216
3,62,95,0
3,57,95,0
3,62,53,1200
3,65,60,60
3,65,85,460
3,62,85,0
3,58,85,0
3,65,87,160
3,62,87,0
3,58,87,0
3,65,80,124
3,62,80,0
3,58,80,0
3,65,80,68
3,62,80,0
3,58,80,0
3,65,91,324
3,62,91,0
3,58,91,0
3,55,58,260
3,64,76,0
3,60,82,0
3,36,70,1680
3,55,70,80
3,64,82,0
3,60,82,0
3,55,78,100
3,64,66,0
3,60,85,0
3,64,80,332
3,55,85,0
3,60,82,0
3,36,93,296
3,55,93,240
3,64,87,0
3,60,93,0
3,65,80,276
3,60,80,0
3,57,80,0
3,53,76,1200
3,65,87,0
3,60,87,0
3,57,87,0
3,65,95,216
3,60,95,0
3,57,95,0
3,65,53,1200
3,69,60,60
3,65,91,220
3,62,91,0
3,57,91,0
3,62,85,960
3,65,72,240
3,69,74,240
3,74,63,164
3,65,76,0
3,62,76,0
3,57,76,0
3,65,82,104
3,62,82,0
3,57,82,0
3,65,93,324
3,62,93,0
3,57,93,0
3,65,82,228
3,62,82,0
3,58,82,0
3,65,85,152
3,62,85,0
3,58,85,0
3,65,80,368
3,62,80,0
3,58,80,0
3,65,89,540
3,62,89,0
3,58,89,0
3,64,82,192
3,60,82,0
3,55,82,0
3,48,70,1200
3,64,85,236
3,60,85,0
3,55,85,0
3,64,70,124
3,60,70,0
3,55,70,0
3,64,82,48
3,60,82,0
3,55,82,0
3,64,82,316
3,60,82,0
3,55,82,0
3,65,85,496
3,60,85,0
3,57,85,0
3,65,87,160
3,60,87,0
3,57,87,0
3,65,80,124
3,60,80,0
3,57,80,0
3,65,80,68
3,60,80,0
3,57,80,0
3,65,91,324
3,60,91,0
3,57,91,0
3,65,91,260
3,62,91,0
3,57,91,0
3,65,93,188
3,62,93,0
3,57,93,0
3,65,98,184
3,62,98,0
3,57,98,0
3,65,87,184
3,62,87,0
3,57,87,0
3,65,87,300
3,62,87,0
3,58,87,0
3,65,82,72
3,62,82,0
3,58,82,0
3,65,82,344
3,62,82,0
3,58,82,0
3,64,87,444
3,60,87,0
3,55,87,0
3,48,80,720
3,64,85,208
3,60,85,0
3,55,85,0
3,64,100,156
3,60,100,0
3,55,100,0
3,65,91,316
3,60,91,0
3,57,91,0
3,65,78,80
3,69,70,240
3,72,82,240
3,65,91,28
3,62,91,0
3,58,91,0
3,65,93,188
3,62,93,0
3,58,93,0
3,65,98,184
3,62,98,0
3,58,98,0
3,65,87,184
3,62,87,0
3,58,87,0
3,65,80,300
3,60,80,0
3,57,80,0
3,53,76,1200
3,65,87,0
3,60,87,0
3,57,87,0
3,65,95,216
3,60,95,0
3,57,95,0
3,65,53,1200
3,69,60,60
3,65,82,220
3,62,82,0
3,59,82,0
3,67,82,0
3,43,70,1200
3,65,85,236
3,62,85,0
3,59,85,0
3,67,85,0
3,65,70,124
3,62,70,0
3,59,70,0
3,67,70,0
3,65,82,48
3,62,82,0
3,59,82,0
3,67,82,0
3,65,82,316
3,62,82,0
3,59,82,0
3,67,82,0
3,64,87,256
3,60,87,0
3,55,87,0
3,64,82,72
3,60,82,0
3,55,82,0
3,64,82,344
3,60,82,0
3,55,82,0
3,64,95,684
3,62,95,0
3,58,95,0
3,69,95,0
3,64,82,200
3,60,82,0
3,58,82,0
3,67,82,0
3,65,91,88
3,60,91,0
3,57,91,0
3,65,93,188
3,60,93,0
3,57,93,0
3,65,98,184
3,60,98,0
3,57,98,0
3,65,87,184
3,60,87,0
3,57,87,0
3,65,91,300
3,62,91,0
3,57,91,0
3,65,93,188
3,62,93,0
3,57,93,0
3,65,98,184
3,62,98,0
3,57,98,0
3,65,87,184
3,62,87,0
3,57,87,0
3,65,91,300
3,62,91,0
3,58,91,0
3,58,78,80
3,62,70,240
3,65,82,240
3,55,58,28
3,64,76,0
3,60,82,0
3,36,70,1680
3,55,70,80
3,64,82,0
3,60,82,0
3,55,78,100
3,64,66,0
3,60,85,0
3,64,80,332
3,55,85,0
3,60,82,0
3,36,93,296
3,55,93,240
3,64,87,0
3,60,93,0
3,65,58,276
3,72,76,0
3,69,82,0
3,53,70,1680
3,65,70,80
3,72,82,0
3,69,82,0
3,65,78,100
3,72,66,0
3,69,85,0
3,72,80,332
3,65,85,0
3,69,82,0
3,53,93,296
3,65,93,240
3,72,87,0
3,69,93,0
3,65,80,276
3,62,80,0
3,57,80,0
3,50,76,1200
3,65,87,0
3,62,87,0
3,57,87,0
3,65,95,216
3,62,95,0
3,57,95,0
3,62,53,1200
3,65,60,60
3,65,80,220
3,62,80,0
3,58,80,0
3,46,76,1200
3,65,87,0
3,62,87,0
3,58,87,0
3,65,95,216
3,62,95,0
3,58,95,0
3,58,53,1200
3,62,60,60
3,64,80,220
3,60,80,0
3,55,80,0
3,48,76,1200
3,64,87,0
3,60,87,0
3,55,87,0
3,64,95,216
3,60,95,0
3,55,95,0
3,60,53,1200
3,64,60,60
3,65,87,220
3,60,87,0
3,57,87,0
3,65,82,72
3,60,82,0
3,57,82,0
3,65,82,344
3,60,82,0
3,57,82,0
3,65,95,684
3,62,95,0
3,58,95,0
3,64,82,200
3,60,82,0
3,55,82,0
3,65,82,240
3,60,82,0
3,57,82,0
3,53,68,240
3,65,80,240
3,60,80,0
3,57,80,0
3,65,82,200
3,60,82,0
3,57,82,0
