track,note,velocity,time
1,69,108,4160
1,65,115,192
1,65,112,96
1,67,110,160
1,69,113,980
1,65,105,192
1,65,105,96
1,65,116,160
1,62,114,32
1,60,106,64
1,69,105,980
1,65,111,192
1,65,117,96
1,67,100,192
1,65,103,160
1,65,111,96
1,69,114,2420
1,65,110,192
1,65,109,96
1,67,108,160
1,72,101,980
1,65,104,192
1,65,110,96
1,67,99,160
1,69,105,980
1,65,105,192
1,65,96,96
1,67,110,192
1,65,108,160
1,65,123,96
1,65,110,1184
1,62,99,64
1,65,110,32
1,65,110,160
1,69,102,32
1,67,102,96
1,65,111,64
1,65,116,1460
1,65,110,64
1,65,107,32
1,62,122,64
1,60,113,128
1,62,96,820
1,65,101,32
1,65,113,96
1,65,110,64
1,65,111,340
1,67,101,32
1,67,111,96
1,67,110,64
1,65,110,340
1,69,110,32
1,72,111,64
1,69,124,128
1,67,110,32
1,65,104,32
1,69,102,96
1,67,106,96
1,69,100,500
1,65,124,192
1,65,123,96
1,67,110,160
1,72,112,980
1,65,108,192
1,65,110,96
1,67,108,160
1,69,117,980
1,65,118,192
1,65,124,96
1,67,118,192
1,65,110,160
1,65,108,96
1,65,123,2420
1,62,110,64
1,65,110,32
1,65,125,160
1,69,104,32
1,67,107,96
1,65,116,64
1,65,106,1460
1,65,124,64
1,65,101,32
1,62,110,64
1,60,124,128
1,62,111,820
1,65,106,32
1,65,109,96
1,65,107,64
1,65,110,340
1,67,107,32
1,67,110,96
1,67,110,64
1,65,111,340
1,69,116,32
1,72,116,64
1,69,111,128
1,67,108,32
1,65,123,32
1,69,99,96
1,67,107,96
1,69,110,500
1,65,120,192
1,65,110,96
1,67,105,160
1,72,115,980
1,65,124,192
1,65,114,96
1,67,109,160
1,69,110,980
1,65,112,192
1,65,124,96
1,67,124,192
1,65,105,160
1,65,110,96
1,69,101,2420
1,65,99,192
1,65,112,96
1,67,98,192
1,65,101,160
1,65,96,96
1,65,105,980
1,67,115,96
1,72,110,500
1,69,99,192
1,67,97,32
1,65,110,32
1,65,98,32
1,67,118,192
1,69,121,96
1,67,112,32
1,65,107,32
1,65,105,32
2,57,116,4160
2,53,111,192
2,53,98,96
2,55,122,160
2,57,117,980
2,53,111,192
2,53,106,96
2,53,110,160
2,50,122,32
2,48,107,64
2,57,99,980
2,53,105,192
2,53,105,96
2,55,114,192
2,53,110,160
2,53,106,96
2,57,108,2420
2,53,110,192
2,53,103,96
2,55,115,160
2,60,103,980
2,53,113,192
2,53,112,96
2,55,110,160
2,57,114,980
2,53,123,192
2,53,105,96
2,55,115,192
2,53,106,160
2,53,102,96
2,53,96,1184
2,50,119,64
2,53,107,32
2,53,110,160
2,57,113,32
2,55,108,96
2,53,119,64
2,53,116,1460
2,53,110,64
2,53,97,32
2,50,110,64
2,48,111,128
2,50,113,820
2,53,110,32
2,53,107,96
2,53,108,64
2,53,118,340
2,55,109,32
2,55,95,96
2,55,124,64
2,53,111,340
2,57,114,32
2,60,119,64
2,57,111,128
2,55,110,32
2,53,105,32
2,57,108,96
2,55,117,96
2,57,113,500
2,53,120,192
2,53,114,96
2,55,111,160
2,60,98,980
2,53,114,192
2,53,107,96
2,55,110,160
2,57,99,980
2,53,121,192
2,53,101,96
2,55,106,192
2,53,122,160
2,53,119,96
2,53,124,2420
2,50,106,64
2,53,105,32
2,53,108,160
2,57,97,32
2,55,107,96
2,53,109,64
2,53,110,1460
2,53,125,64
2,53,110,32
2,50,110,64
2,48,119,128
2,50,108,820
2,53,110,32
2,53,110,96
2,53,110,64
2,53,103,340
2,55,112,32
2,55,113,96
2,55,110,64
2,53,109,340
2,57,123,32
2,60,107,64
2,57,110,128
2,55,101,32
2,53,99,32
2,57,105,96
2,55,102,96
2,57,103,500
2,53,107,192
2,53,111,96
2,55,105,160
2,60,110,980
2,53,113,192
2,53,110,96
2,55,116,160
2,57,111,980
2,53,103,192
2,53,111,96
2,55,122,192
2,53,110,160
2,53,102,96
2,57,122,2420
2,53,123,192
2,53,115,96
2,55,122,192
2,53,116,160
2,53,110,96
2,53,110,980
2,55,97,96
2,60,119,500
2,57,112,192
2,55,108,32
2,53,110,32
2,53,114,32
2,55,104,192
2,57,123,96
2,55,98,32
2,53,122,32
2,53,97,32
3,69,76,4160
3,65,93,192
3,65,90,96
3,67,90,160
3,69,93,980
3,65,92,192
3,65,104,96
3,65,100,160
3,62,90,32
3,60,78,64
3,60,84,980
3,65,90,0
3,69,95,0
3,57,89,192
3,60,88,0
3,65,90,0
3,58,104,96
3,62,79,0
3,65,90,0
3,60,104,192
3,64,98,0
3,67,91,0
3,57,92,160
3,60,85,0
3,65,89,0
3,57,104,96
3,60,92,0
3,65,79,0
3,53,101,320
3,58,85,0
3,62,93,0
3,53,90,96
3,58,81,0
3,62,104,0
3,55,90,96
3,60,89,0
3,64,89,0
3,55,97,96
3,60,80,0
3,64,89,0
3,60,90,500
3,65,91,0
3,69,98,0
3,57,100,192
3,60,94,0
3,65,90,0
3,58,88,96
3,62,96,0
3,65,76,0
3,60,90,160
3,64,90,0
3,67,92,0
3,65,80,500
3,69,77,0
3,72,84,0
3,57,95,192
3,60,90,0
3,65,100,0
3,58,89,96
3,62,93,0
3,65,103,0
3,60,88,160
3,64,91,0
3,67,90,0
3,60,87,320
3,65,100,0
3,69,77,0
3,57,104,192
3,60,78,0
3,65,95,0
3,58,92,96
3,62,94,0
3,65,78,0
3,60,103,192
3,64,91,0
3,67,90,0
3,57,90,160
3,60,92,0
3,65,90,0
3,57,104,96
3,60,90,0
3,65,88,0
3,57,90,320
3,60,96,0
3,65,89,0
3,57,77,96
3,60,78,0
3,65,96,0
3,57,90,96
3,60,84,0
3,65,90,0
3,58,76,96
3,63,75,0
3,67,87,0
3,58,90,96
3,62,84,0
3,58,94,96
3,58,102,96
3,62,90,0
3,60,90,192
3,64,86,0
3,60,88,96
3,64,87,0
3,58,88,500
3,62,95,0
3,58,96,96
3,53,90,192
3,57,97,0
3,60,91,0
3,62,89,352
3,58,91,32
3,62,99,0
3,58,83,160
3,62,89,0
3,60,97,224
3,64,96,0
3,60,91,160
3,64,88,0
3,65,93,224
3,69,90,0
3,62,98,192
3,60,86,160
3,64,90,0
3,60,79,96
3,64,97,0
3,67,98,0
3,60,91,500
3,65,75,0
3,69,83,0
3,57,79,192
3,60,92,0
3,65,93,0
3,58,88,96
3,62,82,0
3,65,80,0
3,60,82,160
3,64,97,0
3,67,89,0
3,65,97,500
3,69,90,0
3,72,79,0
3,57,99,192
3,60,96,0
3,65,84,0
3,58,90,96
3,62,94,0
3,65,85,0
3,60,90,160
3,64,93,0
3,67,92,0
3,60,86,500
3,65,95,0
3,69,86,0
3,57,79,192
3,60,90,0
3,65,88,0
3,58,84,96
3,62,76,0
3,65,84,0
3,60,102,192
3,64,90,0
3,67,94,0
3,57,80,160
3,60,88,0
3,65,92,0
3,57,76,96
3,60,75,0
3,65,81,0
3,53,93,320
3,58,90,0
3,62,75,0
3,53,96,96
3,58,90,0
3,62,93,0
3,55,87,96
3,60,87,0
3,64,89,0
3,55,88,96
3,60,90,0
3,64,90,0
3,58,90,96
3,62,98,0
3,58,86,96
3,58,90,96
3,62,85,0
3,60,85,192
3,64,89,0
3,60,90,96
3,64,91,0
3,58,92,500
3,62,98,0
3,58,98,96
3,53,88,192
3,57,79,0
3,60,93,0
3,62,90,352
3,58,90,32
3,62,95,0
3,58,90,160
3,62,99,0
3,60,89,224
3,64,85,0
3,60,90,160
3,64,100,0
3,65,90,224
3,69,86,0
3,62,80,192
3,60,90,160
3,64,92,0
3,60,88,96
3,64,90,0
3,67,91,0
3,60,90,500
3,65,93,0
3,69,80,0
3,57,104,192
3,60,101,0
3,65,92,0
3,58,84,96
3,62,90,0
3,65,95,0
3,60,95,160
3,64,79,0
3,67,89,0
3,65,90,500
3,69,90,0
3,72,91,0
3,57,91,192
3,60,97,0
3,65,87,0
3,58,95,96
3,62,99,0
3,65,83,0
3,60,90,160
3,64,87,0
3,67,90,0
3,60,90,500
3,65,104,0
3,69,104,0
3,57,92,192
3,60,84,0
3,65,90,0
3,58,91,96
3,62,81,0
3,65,87,0
3,60,82,192
3,64,96,0
3,67,95,0
3,57,103,160
3,60,77,0
3,65,87,0
3,57,90,96
3,60,75,0
3,65,88,0
3,53,97,320
3,58,95,0
3,62,80,0
3,53,84,96
3,58,78,0
3,62,90,0
3,55,97,96
3,60,89,0
3,64,92,0
3,55,88,96
3,60,94,0
3,64,96,0
3,60,104,480
3,65,88,0
3,69,95,0
3,57,89,192
3,60,89,0
3,65,92,0
3,58,93,96
3,62,89,0
3,65,76,0
3,60,99,192
3,64,90,0
3,67,102,0
3,57,78,160
3,60,99,0
3,65,85,0
3,57,90,96
3,60,84,0
3,65,89,0
3,53,91,320
3,58,88,0
3,62,97,0
3,53,89,96
3,58,103,0
3,62,93,0
3,55,88,96
3,60,105,0
3,65,89,0
3,60,103,96
3,64,92,0
3,67,82,0
3,65,88,480
3,69,97,0
3,62,94,192
3,58,94,96
3,62,97,0
3,60,78,192
3,58,84,192
3,62,81,0
3,57,94,192
3,60,93,0
4,65,53,17120
4,58,44,0
4,53,58,0
4,62,57,0
4,53,58,132
4,58,48,136
4,55,53,320
4,67,61,0
4,64,66,0
4,60,46,0
4,41,59,336
4,57,66,160
4,69,47,320
4,65,58,0
4,60,42,0
4,53,57,0
4,62,57,0
4,65,56,0
4,58,46,0
4,53,62,108
4,58,56,216
4,67,53,0
4,60,44,0
4,55,58,0
4,64,57,0
4,55,58,132
4,60,48,136
4,41,59,320
4,57,66,160
4,69,47,320
4,65,58,0
4,60,42,0
4,53,57,0
4,62,57,0
4,65,56,0
4,58,46,0
4,53,62,108
4,58,56,216
4,55,53,320
4,67,61,0
4,64,66,0
4,60,46,0
4,69,57,16
4,60,55,0
4,65,57,0
4,57,58,0
4,41,46,0
4,41,61,20
4,57,68,160
4,69,70,0
4,65,74,0
4,60,68,0
4,53,53,512
4,65,61,0
4,62,66,0
4,58,46,0
4,55,57,16
4,64,57,0
4,67,56,0
4,60,46,0
4,55,62,108
4,60,56,216
4,41,56,0
4,65,53,0
4,57,49,0
4,69,68,0
4,77,59,1100
4,72,48,320
4,69,41,76
4,72,55,320
4,77,57,52
4,65,66,0
4,62,72,0
4,58,60,0
4,53,64,0
4,53,80,180
4,58,60,0
4,62,70,112
4,65,91,160
4,67,66,36
4,64,72,0
4,60,60,0
4,55,64,0
4,55,80,180
4,60,60,0
4,64,70,112
4,67,91,160
4,53,58,36
4,65,66,0
4,62,60,0
4,58,85,960
4,81,57,84
4,77,57,320
4,72,41,320
4,69,53,320
4,65,63,320
4,57,60,320
4,77,57,0
4,74,57,320
4,70,41,320
4,65,53,320
4,62,63,320
4,53,60,320
4,55,58,0
4,67,66,0
4,64,60,0
4,60,85,960
4,69,66,84
4,65,72,0
4,62,60,0
4,57,64,0
4,57,80,180
4,62,60,0
4,65,70,112
4,69,91,160
4,79,57,36
4,76,57,320
4,72,41,320
4,67,53,320
4,64,63,320
4,55,60,320
4,79,57,0
4,76,57,320
4,72,41,320
4,67,53,320
4,64,63,320
4,55,60,320
4,69,63,0
4,57,51,0
4,65,51,0
4,41,60,0
4,84,66,548
4,81,52,320
4,77,51,0
4,65,53,0
4,58,44,0
4,53,58,0
4,62,57,0
4,53,58,132
4,58,48,136
4,67,53,0
4,60,44,0
4,55,58,0
4,64,57,0
4,55,58,132
4,60,48,136
4,41,59,320
4,57,66,160
4,69,47,320
4,65,58,0
4,60,42,0
4,65,57,0
4,62,57,0
4,58,57,0
4,55,57,188
4,64,57,0
4,67,56,0
4,60,46,0
4,55,62,108
4,60,56,216
4,69,57,0
4,60,55,0
4,65,57,0
4,57,58,0
4,41,46,0
4,41,61,20
4,57,68,160
4,69,70,0
4,65,74,0
4,60,68,0
4,65,53,192
4,58,44,0
4,53,58,0
4,62,57,0
4,53,58,132
4,58,48,136
4,55,53,320
4,67,61,0
4,64,66,0
4,60,46,0
4,60,66,16
4,65,70,0
4,41,64,0
4,57,54,0
4,69,63,1280
4,65,70,312
4,65,53,32
4,58,44,0
4,53,58,0
4,62,57,0
4,53,58,132
4,58,48,136
4,55,53,320
4,67,61,0
4,64,66,0
4,60,46,0
4,53,58,16
4,65,66,0
4,62,60,0
4,58,85,960
4,64,60,84
4,67,74,0
4,55,49,0
4,72,76,320
4,62,60,56
4,65,74,0
4,53,49,0
4,70,76,320
4,65,60,56
4,69,74,0
4,57,49,0
4,72,76,320
4,53,58,56
4,65,66,0
4,62,60,0
4,58,85,960
4,55,58,84
4,67,66,0
4,64,60,0
4,60,85,960
4,81,57,84
4,77,57,320
4,74,41,320
4,69,53,320
4,65,63,320
4,57,60,320
4,55,58,0
4,67,66,0
4,64,60,0
4,60,85,960
4,67,66,84
4,64,72,0
4,60,60,0
4,55,64,0
4,55,80,180
4,60,60,0
4,64,70,112
4,67,91,160
4,69,63,36
4,57,51,0
4,65,51,0
4,41,60,0
4,84,66,548
4,81,52,320
4,77,51,0
4,65,53,0
4,58,44,0
4,53,58,0
4,62,57,0
4,53,58,132
4,58,48,136
4,64,57,0
4,60,57,0
4,55,57,0
4,69,63,188
4,57,51,0
4,65,51,0
4,41,60,0
4,84,66,548
4,81,52,320
4,77,51,0
4,53,53,320
4,65,61,0
4,62,66,0
4,58,46,0
4,64,57,16
4,60,57,0
4,55,57,0
4,69,57,188
4,60,55,0
4,65,57,0
4,57,58,0
4,41,46,0
4,41,61,20
4,57,68,160
4,69,70,0
4,65,74,0
4,60,68,0
4,65,53,192
4,58,44,0
4,53,58,0
4,62,57,0
4,53,58,132
4,58,48,136
4,64,57,0
4,60,57,0
4,55,57,0
4,69,57,188
4,60,55,0
4,65,57,0
4,57,58,0
4,41,46,0
4,41,61,20
4,57,68,160
4,69,70,0
4,65,74,0
4,60,68,0
4,53,53,512
4,65,61,0
4,62,66,0
4,58,46,0
4,55,53,336
4,67,61,0
4,64,66,0
4,60,46,0
4,69,57,16
4,60,55,0
4,65,57,0
4,57,58,0
4,41,46,0
4,41,61,20
4,57,68,160
4,69,70,0
4,65,74,0
4,60,68,0
4,65,57,192
4,62,57,0
4,58,57,0
4,55,57,188
4,64,57,0
4,67,56,0
4,60,46,0
4,55,62,108
4,60,56,216
4,69,57,0
4,60,55,0
4,65,57,0
4,57,58,0
4,41,46,0
4,41,61,20
4,57,68,160
4,69,70,0
4,65,74,0
4,60,68,0
4,65,57,192
4,62,57,0
4,58,57,0
4,64,57,188
4,60,57,0
4,55,57,0
5,65,64,17120
5,62,64,0
5,58,64,0
5,64,62,632
5,67,60,0
5,60,68,0
5,55,54,0
5,48,63,52
5,64,87,20
5,60,87,0
5,55,66,0
5,65,66,712
5,60,66,0
5,57,66,0
5,41,72,552
5,65,70,16
5,60,70,0
5,57,70,0
5,46,66,596
5,62,72,44
5,58,72,0
5,65,70,0
5,53,56,0
5,48,66,584
5,64,72,44
5,60,72,0
5,67,70,0
5,55,56,0
5,41,38,584
5,65,72,64
5,60,76,0
5,57,61,0
5,69,68,0
5,41,36,552
5,69,82,96
5,60,80,0
5,65,82,0
5,57,64,0
5,65,68,280
5,62,68,0
5,58,68,0
5,46,59,108
5,65,74,40
5,62,74,0
5,58,74,0
5,64,68,332
5,60,68,0
5,55,68,0
5,48,59,108
5,64,74,40
5,60,74,0
5,55,74,0
5,65,74,812
5,69,68,0
5,57,58,0
5,60,68,0
5,41,51,516
5,65,63,76
5,60,80,0
5,69,78,0
5,57,70,0
5,60,49,8
5,57,42,0
5,65,68,68
5,62,68,0
5,58,68,0
5,46,59,108
5,65,74,40
5,62,74,0
5,58,74,0
5,67,60,492
5,64,60,0
5,60,51,0
5,55,47,0
5,48,80,76
5,60,85,28
5,55,60,0
5,64,72,0
5,69,80,744
5,65,70,0
5,69,98,784
5,65,82,0
5,69,89,780
5,65,70,0
5,41,57,624
5,65,85,160
5,57,68,0
5,46,53,548
5,65,60,20
5,62,60,0
