track,note,velocity,time
0,36,57,0
0,36,80,0
0,48,57,0
0,55,57,0
0,76,78,0
0,76,92,26
0,76,0,21
0,74,76,0
0,74,0,46
0,71,77,0
0,71,0,47
0,76,77,0
0,76,0,47
0,74,75,0
0,74,0,47
0,71,77,0
0,71,0,45
0,76,77,0
0,76,0,47
0,74,76,0
0,74,0,47
0,71,73,0
0,71,0,47
0,76,77,0
0,76,0,47
0,74,75,0
0,74,0,47
0,71,77,0
0,71,0,47
0,76,78,0
0,76,0,47
0,74,73,0
0,76,0,40
0,74,92,1
0,74,0,6
0,71,77,0
0,71,0,47
0,76,77,0
0,36,0,42
0,36,0,5
0,48,0,0
0,55,0,0
0,76,0,0
0,38,60,0
0,38,90,0
0,50,60,0
0,57,60,0
0,74,74,0
0,74,0,31
0,76,91,1
0,74,0,15
0,71,77,0
0,71,0,47
0,76,78,0
0,76,0,29
0,74,90,1
0,76,0,17
0,74,75,0
0,74,0,47
0,71,77,0
0,74,0,9
0,71,91,1
0,71,0,37
0,76,78,0
0,76,0,47
0,74,73,0
0,74,0,47
0,71,77,0
0,38,0,29
0,38,0,6
0,71,0,12
0,38,60,0
0,38,76,0
0,76,77,0
0,76,0,47
0,74,74,0
0,74,0,47
0,71,75,0
0,71,0,47
0,76,77,0
0,71,0,40
0,69,92,3
0,76,0,4
0,74,70,0
0,74,0,47
0,71,77,0
0,71,0,47
0,76,77,0
0,76,0,47
0,74,77,0
0,38,0,35
0,50,0,0
0,57,0,0
0,74,0,6
0,38,0,2
0,40,60,0
0,40,83,0
0,52,60,0
0,59,60,0
0,71,77,0
0,71,0,47
0,76,78,1
0,76,0,47
0,74,75,1
0,74,0,47
0,71,77,1
0,69,0,9
0,71,0,38
0,76,78,1
0,76,0,47
0,74,73,1
0,74,0,47
0,71,77,1
0,71,0,47
0,76,77,1
0,76,0,47
0,74,74,1
0,74,0,47
0,71,75,1
0,71,0,47
0,76,77,1
0,76,0,47
0,74,70,1
0,74,0,47
0,71,77,1
0,71,0,47
0,76,77,1
0,76,0,47
0,74,77,1
0,74,0,41
0,71,77,7
0,40,0,43
0,40,0,4
0,52,0,0
0,71,0,0
0,42,59,1
0,42,83,0
0,76,78,0
0,76,0,47
0,74,75,1
0,74,0,47
0,71,77,1
0,71,0,47
0,76,78,1
0,76,0,47
0,74,73,1
0,74,0,47
0,71,77,1
0,71,0,47
0,76,77,1
0,76,0,47
0,74,74,1
0,74,0,47
0,47,59,1
0,71,75,0
0,71,0,47
0,76,77,1
0,76,0,47
0,74,70,1
0,74,0,47
0,71,77,1
0,71,0,47
0,76,77,1
0,76,0,47
0,74,77,1
0,74,0,41
0,71,77,7
0,76,77,48
0,71,0,3
0,42,0,40
0,42,0,4
0,47,0,0
0,59,0,0
0,43,59,1
0,43,83,0
0,50,59,0
0,59,59,0
0,62,59,0
0,67,78,0
0,76,0,3
0,67,0,44
0,64,75,1
0,64,0,47
0,62,77,1
0,62,0,47
0,67,78,1
0,67,0,47
0,64,73,1
0,64,0,47
0,62,77,1
0,62,0,47
0,67,77,1
0,67,0,47
0,64,74,1
0,64,0,47
0,62,75,1
0,62,0,47
0,67,77,1
0,67,0,47
0,64,70,1
0,64,0,47
0,62,77,1
0,62,0,47
0,67,77,1
0,67,0,47
0,64,77,1
0,64,0,41
0,62,77,7
0,62,0,47
0,67,78,1
0,67,0,47
0,64,75,1
0,76,92,17
0,64,0,30
0,62,77,1
0,62,0,47
0,67,78,1
0,67,0,47
0,64,73,1
0,64,0,47
0,62,77,1
0,62,0,47
0,67,77,1
0,67,0,47
0,64,74,1
0,64,0,47
0,62,75,1
0,62,0,47
0,67,77,1
0,67,0,47
0,64,70,1
0,64,0,47
0,62,77,1
0,62,0,47
0,67,77,1
0,67,0,47
0,64,77,1
0,64,0,41
0,62,77,7
0,76,0,14
0,74,92,1
0,62,0,32
0,67,77,1
0,67,0,47
0,64,77,1
0,64,0,41
0,43,0,2
0,43,0,0
0,50,0,0
0,59,0,0
0,62,0,0
0,45,59,5
0,45,83,0
0,52,59,0
0,59,59,0
0,64,56,0
0,76,78,0
0,76,0,47
0,74,76,1
0,74,0,22
0,76,92,1
0,74,0,23
0,71,77,2
0,71,0,47
0,76,77,1
0,76,0,17
0,74,92,1
0,76,0,29
0,74,75,1
0,74,0,39
0,71,93,2
0,74,0,6
0,71,77,1
0,71,0,45
0,76,77,3
0,76,0,47
0,74,76,1
0,59,0,43
0,74,0,4
0,57,59,1
0,71,73,0
0,71,0,47
0,76,77,1
0,76,0,47
0,74,75,1
0,74,0,47
0,71,77,1
0,71,0,40
0,71,0,7
0,76,78,1
0,71,91,8
0,76,0,39
0,74,73,1
0,74,0,47
0,71,77,1
0,71,0,16
0,69,90,1
0,71,0,30
0,76,77,1
0,57,0,43
0,76,0,4
0,55,59,1
0,74,74,0
0,74,0,47
0,71,77,1
0,69,0,5
0,69,86,16
0,71,0,26
0,76,78,1
0,76,0,47
0,74,75,1
0,69,0,20
0,67,90,1
0,74,0,26
0,71,77,1
0,71,0,47
0,76,78,1
0,76,0,47
0,74,73,1
0,74,0,47
0,71,77,1
0,55,0,47
0,71,0,0
0,54,59,1
0,76,77,0
0,76,0,47
0,74,74,1
0,67,0,4
0,74,0,43
0,71,75,1
0,71,0,47
0,76,77,1
0,76,0,47
0,74,70,1
0,74,0,47
0,71,77,1
0,71,0,47
0,76,77,1
0,76,0,47
0,74,77,1
0,74,0,41
0,45,0,2
0,45,0,0
0,52,0,0
0,64,0,0
0,54,0,4
0,36,59,1
0,48,59,0
0,48,83,0
0,55,59,0
0,64,58,0
0,79,78,0
0,79,0,47
0,78,76,1
0,78,0,46
0,74,77,2
0,74,0,47
0,79,77,1
0,79,0,47
0,78,75,1
0,78,0,47
0,74,77,1
0,74,0,45
0,79,77,3
0,79,0,47
0,78,76,1
0,55,0,47
0,78,0,0
0,54,59,1
0,74,73,0
0,74,0,47
0,79,77,1
0,79,0,47
0,78,75,1
0,78,0,47
0,74,77,1
0,74,0,47
0,79,78,1
0,79,0,47
0,78,73,1
0,78,0,47
0,74,77,1
0,74,0,47
0,79,77,1
0,48,0,43
0,64,0,0
0,36,0,4
0,48,0,0
0,54,0,0
0,79,0,0
0,38,59,1
0,45,59,0
0,50,83,0
0,52,59,0
0,62,57,0
0,78,74,0
0,78,0,47
0,74,77,1
0,74,0,47
0,79,78,1
0,79,0,47
0,78,75,1
0,78,0,47
0,74,77,1
0,74,0,47
0,79,78,1
0,79,0,47
0,78,73,1
0,78,0,47
0,74,77,1
0,52,0,47
0,74,0,0
0,50,59,1
0,79,77,0
0,79,0,47
0,78,74,1
0,78,0,47
0,74,75,1
0,74,0,47
0,79,77,1
0,79,0,47
0,78,70,1
0,78,0,47
0,74,77,1
0,74,0,47
0,79,77,1
0,79,0,47
0,49,68,1
0,78,77,0
0,49,0,4
0,78,0,37
0,50,0,2
0,62,0,0
0,38,0,4
0,45,0,0
0,50,0,0
0,35,118,1
0,40,97,0
0,42,80,0
0,52,59,0
0,59,59,0
0,64,94,0
0,67,59,0
0,76,92,0
0,35,0,4
0,42,0,0
0,64,0,0
0,76,0,34
0,42,61,10
0,42,0,4
0,40,55,44
0,46,67,0
0,62,100,0
0,70,46,0
0,78,96,0
0,40,0,4
0,46,0,0
0,62,0,0
0,70,0,0
0,78,0,29
0,35,118,63
0,39,92,0
0,40,104,0
0,42,77,0
0,79,98,0
0,35,0,4
0,39,0,0
0,40,0,0
0,42,0,0
0,79,0,34
0,42,60,10
0,42,0,4
0,63,59,0
0,63,0,4
0,46,67,40
0,63,92,0
0,70,49,0
0,76,94,0
0,46,0,4
0,63,0,0
0,70,0,0
0,76,0,34
0,40,69,10
0,78,96,0
0,40,0,4
0,63,66,0
0,63,0,4
0,40,51,16
0,40,0,4
0,78,0,2
0,35,118,18
0,42,77,0
0,64,95,0
0,35,0,4
0,42,0,0
0,64,0,0
0,40,49,44
0,42,60,0
0,69,42,0
0,79,98,0
0,40,0,4
0,42,0,0
0,69,0,0
0,79,0,31
0,46,66,13
0,62,100,0
0,70,42,0
0,46,0,4
0,62,0,0
0,70,0,0
0,40,49,44
0,76,94,0
0,40,0,4
0,76,0,34
0,35,118,10
0,39,92,0
0,40,104,0
0,42,74,0
0,35,0,4
0,39,0,0
0,40,0,0
0,42,0,0
0,42,60,44
0,69,42,0
0,78,98,0
0,42,0,4
0,63,56,0
0,69,0,0
0,63,0,4
0,78,0,24
0,46,67,16
0,63,91,0
0,70,42,0
0,79,94,0
0,46,0,4
0,70,0,0
0,79,0,28
0,40,69,16
0,40,0,4
0,63,66,0
0,63,0,4
0,40,51,16
0,40,0,4
0,52,0,13
0,59,0,0
0,67,0,0
0,40,0,5
0,35,118,2
0,35,95,0
0,42,80,0
0,50,58,0
0,59,58,0
0,64,94,0
0,66,58,0
0,74,92,0
0,35,0,4
0,42,0,0
0,64,0,0
0,74,0,33
0,42,61,11
0,42,0,4
0,40,55,44
0,46,67,0
0,62,100,0
0,70,46,0
0,78,96,0
0,40,0,4
0,46,0,0
0,62,0,0
0,70,0,0
0,78,0,31
0,35,118,61
0,39,92,0
0,40,104,0
0,42,77,0
0,79,96,0
0,35,0,4
0,39,0,0
0,40,0,0
0,42,0,0
0,79,0,28
0,42,60,16
0,42,0,4
0,63,59,0
0,63,0,4
0,46,67,40
0,63,92,0
0,70,49,0
0,74,94,0
0,46,0,4
0,63,0,0
0,70,0,0
0,74,0,32
0,40,69,12
0,78,94,0
0,40,0,4
0,63,0,4
0,40,51,16
0,40,0,4
0,78,0,2
0,35,118,18
0,42,77,0
0,64,95,0
0,35,0,4
0,42,0,0
0,64,0,0
0,40,49,44
0,42,60,0
0,69,42,0
0,79,98,0
0,40,0,4
0,42,0,0
0,69,0,0
0,79,0,28
0,46,66,16
0,62,100,0
0,70,42,0
0,46,0,4
0,62,0,0
0,70,0,0
0,40,49,44
0,74,96,0
0,40,0,4
0,74,0,34
0,35,118,10
0,39,92,0
0,40,104,0
0,42,74,0
0,35,0,4
0,39,0,0
0,40,0,0
0,42,0,0
0,42,60,44
0,69,42,0
0,78,96,0
0,42,0,4
0,63,56,0
0,69,0,0
0,63,0,4
0,78,0,21
0,46,67,19
0,63,91,0
0,70,42,0
0,79,94,0
0,46,0,4
0,63,0,0
0,70,0,0
0,79,0,24
0,40,69,20
0,40,0,4
0,63,66,0
0,63,0,4
0,40,51,16
0,40,0,4
0,35,0,9
0,50,0,0
0,59,0,0
0,66,0,0
0,35,118,11
0,36,88,0
0,42,80,0
0,48,59,0
0,60,59,0
0,64,94,0
0,64,59,0
0,76,92,0
0,35,0,4
0,42,0,0
0,64,0,0
0,76,0,34
0,42,61,10
0,42,0,4
0,40,55,44
0,46,67,0
0,62,100,0
0,70,46,0
0,78,98,0
0,40,0,4
0,46,0,0
0,62,0,0
0,70,0,0
0,78,0,34
0,35,118,58
0,39,92,0
0,40,104,0
0,42,77,0
0,79,99,0
0,35,0,4
0,39,0,0
0,40,0,0
0,42,0,0
0,79,0,34
0,42,60,10
0,42,0,4
0,63,0,4
0,46,67,40
0,63,92,0
0,70,49,0
0,76,85,0
0,46,0,4
0,63,0,0
0,70,0,0
0,76,0,34
0,40,69,10
0,78,96,0
0,40,0,4
0,63,66,0
0,63,0,4
0,40,51,16
0,40,0,4
0,78,0,10
0,35,118,10
0,42,77,0
0,64,95,0
0,35,0,4
0,42,0,0
0,64,0,0
0,40,49,44
0,42,60,0
0,69,42,0
0,79,98,0
0,40,0,4
0,42,0,0
0,69,0,0
0,79,0,31
0,46,66,13
0,62,100,0
0,70,42,0
0,46,0,4
0,62,0,0
0,70,0,0
0,40,49,44
0,76,89,0
0,40,0,4
0,76,0,34
0,35,118,10
0,39,92,0
0,40,104,0
0,42,74,0
0,35,0,4
0,39,0,0
0,40,0,0
0,42,0,0
0,42,60,44
0,69,42,0
0,78,99,0
0,42,0,4
0,69,0,0
0,63,0,4
0,78,0,28
0,46,67,12
0,63,91,0
0,70,42,0
0,84,87,0
0,46,0,4
0,63,0,0
0,70,0,0
0,84,0,29
0,40,69,15
0,40,0,4
0,63,66,0
0,63,0,4
0,40,51,16
0,40,0,4
0,36,0,19
0,48,0,0
0,60,0,0
0,64,0,0
0,35,118,1
0,38,100,0
0,42,80,0
0,50,56,0
0,57,56,0
0,64,94,0
0,66,56,0
0,76,89,0
0,35,0,4
0,42,0,0
0,64,0,0
0,76,0,34
0,42,61,10
0,42,0,4
0,40,55,44
0,46,67,0
0,62,100,0
0,70,46,0
0,78,96,0
0,40,0,4
0,46,0,0
0,62,0,0
0,70,0,0
0,78,0,32
0,35,118,60
0,39,92,0
0,40,104,0
0,42,77,0
0,79,96,0
0,35,0,4
0,39,0,0
0,40,0,0
0,42,0,0
0,79,0,31
0,42,60,13
0,42,0,4
0,63,59,0
0,63,0,4
0,46,67,40
0,63,92,0
0,70,49,0
0,76,84,0
0,46,0,4
0,63,0,0
0,70,0,0
0,76,0,34
0,40,69,10
0,78,92,0
0,40,0,4
0,63,0,4
0,40,51,16
0,40,0,4
0,78,0,10
0,35,118,10
0,42,77,0
0,64,95,0
0,35,0,4
0,42,0,0
0,64,0,0
0,40,49,44
0,42,60,0
0,69,42,0
0,84,92,0
0,40,0,4
0,42,0,0
0,69,0,0
0,84,0,26
0,38,0,5
0,38,88,13
0,46,66,0
0,62,100,0
0,70,42,0
0,46,0,4
0,62,0,0
0,70,0,0
0,40,49,44
0,76,89,0
0,40,0,4
0,76,0,34
0,38,0,9
0,35,118,1
0,39,92,0
0,40,104,0
0,40,95,0
0,42,74,0
0,35,0,4
0,39,0,0
0,40,0,0
0,42,0,0
0,42,60,44
0,69,42,0
0,78,94,0
0,42,0,4
0,63,56,0
0,69,0,0
0,63,0,4
0,78,0,25
0,40,0,14
0,38,95,1
0,46,67,0
0,63,91,0
0,70,42,0
0,83,91,0
0,46,0,4
0,63,0,0
0,70,0,0
0,83,0,24
0,40,69,20
0,40,0,4
0,63,0,4
0,40,51,16
0,40,0,4
0,38,0,12
0,50,0,7
0,57,0,0
0,66,0,0
0,33,93,1
0,35,118,0
0,42,80,0
0,45,58,0
0,52,58,0
0,60,58,0
0,64,94,0
0,67,58,0
0,72,91,0
0,35,0,4
0,42,0,0
0,64,0,0
0,72,0,34
0,42,61,10
0,42,0,4
0,40,55,44
0,46,67,0
0,62,100,0
0,70,46,0
0,76,92,0
0,40,0,4
0,46,0,0
0,62,0,0
0,70,0,0
0,76,0,34
0,35,118,58
0,39,92,0
0,40,104,0
0,42,77,0
0,79,96,0
0,35,0,4
0,39,0,0
0,40,0,0
0,42,0,0
0,79,0,34
0,42,60,10
0,42,0,4
0,63,59,0
0,63,0,4
0,46,67,40
0,63,92,0
0,70,49,0
0,72,91,0
0,46,0,4
0,63,0,0
0,70,0,0
0,72,0,34
0,40,69,10
0,76,94,0
0,40,0,4
0,63,66,0
0,63,0,4
0,40,51,16
0,40,0,4
0,76,0,10
0,35,118,10
0,42,77,0
0,64,95,0
0,35,0,4
0,42,0,0
0,64,0,0
0,40,49,44
0,42,60,0
0,69,42,0
0,79,96,0
0,40,0,4
0,42,0,0
0,69,0,0
0,79,0,34
0,46,66,10
0,62,100,0
0,70,42,0
0,46,0,4
0,62,0,0
0,70,0,0
0,40,49,44
0,72,94,0
0,40,0,4
0,72,0,34
0,35,118,10
0,39,92,0
0,40,104,0
0,42,74,0
0,35,0,4
0,39,0,0
0,40,0,0
0,42,0,0
0,42,60,44
0,69,42,0
0,76,92,0
0,42,0,4
0,63,56,0
0,69,0,0
0,63,0,4
0,76,0,29
0,46,67,11
0,63,91,0
0,70,42,0
0,79,94,0
0,46,0,4
0,63,0,0
0,70,0,0
0,79,0,34
0,40,69,10
0,40,0,4
0,63,66,0
0,63,0,4
0,40,51,16
0,40,0,4
0,33,0,19
0,45,0,0
0,52,0,0
0,60,0,0
0,67,0,0
0,35,118,1
0,35,93,0
