track,note,velocity,time
3,32,100,0
3,44,100,0
3,44,0,360
3,32,0,60
3,32,100,540
3,44,100,0
3,44,0,360
3,32,0,60
3,32,100,540
3,44,100,0
3,44,0,360
3,32,0,60
3,32,100,23580
3,32,0,120
3,32,100,0
3,32,0,120
3,32,100,0
3,32,0,190
3,32,100,530
3,32,0,120
3,32,100,0
3,32,0,120
3,32,100,0
3,32,0,190
3,32,100,15650
3,44,100,0
3,44,0,360
3,32,0,120
4,32,100,0
4,32,0,310
4,32,100,650
4,32,0,360
4,32,100,600
4,32,0,360
4,32,100,40680
4,32,0,480
5,80,80,480
5,56,100,60
5,44,100,60
5,44,0,360
5,56,0,0
5,80,0,0
5,56,100,1680
5,56,0,240
5,52,50,3840
5,52,0,480
5,51,50,0
5,44,60,450
5,51,0,30
5,44,0,310
5,42,100,110
5,42,0,300
5,52,50,7920
5,52,0,480
5,51,50,0
5,44,60,450
5,51,0,30
5,59,60,0
5,44,0,310
5,59,0,0
5,54,100,110
5,42,100,0
5,42,0,300
5,54,0,10
5,56,90,7430
5,56,0,480
5,68,80,1680
5,68,0,240
5,49,100,3120
5,49,0,480
5,39,100,3840
5,56,100,0
5,39,0,240
5,56,0,0
5,39,100,0
5,51,100,0
5,39,0,240
5,51,0,0
5,44,100,6720
5,44,0,240
5,46,100,0
5,46,0,240
6,92,55,960
6,92,0,10
6,92,55,20
6,92,0,10
6,92,55,20
6,92,0,10
6,92,55,170
6,92,0,10
6,92,55,20
6,92,0,10
6,92,55,20
6,92,0,10
6,92,55,170
6,92,0,10
6,92,55,20
6,92,0,10
6,92,55,20
6,92,0,10
6,92,55,170
6,92,0,10
6,92,55,20
6,92,0,10
6,92,55,20
6,92,0,10
6,92,55,170
6,92,0,10
6,92,55,20
6,92,0,10
6,92,55,20
6,92,0,10
6,92,55,170
6,92,0,10
6,92,55,20
6,92,0,10
6,92,55,20
6,92,0,10
6,92,55,170
6,92,0,10
6,92,55,20
6,92,0,10
6,92,55,20
6,92,0,10
6,92,55,170
6,92,0,10
6,92,55,20
6,92,0,10
6,92,55,20
6,92,0,10
6,52,65,4010
6,40,85,0
6,52,0,110
6,52,85,10
6,40,0,60
6,52,0,60
6,52,65,0
6,52,0,120
6,52,65,0
6,52,0,120
6,39,85,0
6,51,85,0
6,51,0,110
6,52,65,10
6,39,0,60
6,52,0,50
6,44,85,250
6,32,85,0
6,44,0,180
6,32,0,10
6,30,65,230
6,30,0,240
6,92,35,7020
6,92,0,10
6,92,35,20
6,92,0,10
6,92,35,20
6,92,0,10
6,92,45,170
6,92,0,10
6,92,45,20
6,92,0,10
6,92,45,20
6,92,0,10
6,92,55,170
6,92,0,10
6,92,55,20
6,92,0,10
6,92,55,20
6,92,0,10
6,92,55,170
6,92,0,10
6,92,55,20
6,92,0,10
6,92,55,20
6,92,0,10
6,52,65,170
6,40,85,0
6,52,0,110
6,52,85,10
6,40,0,60
6,52,0,60
6,52,65,0
6,52,0,120
6,39,85,120
6,51,85,0
6,51,0,110
6,51,65,10
6,39,0,60
6,51,0,50
6,44,85,250
6,32,85,0
6,44,0,180
6,32,0,10
6,42,65,230
6,30,65,0
6,42,0,240
6,30,0,0
6,92,65,6060
6,92,0,20
6,92,65,10
6,92,0,20
6,92,65,10
6,92,0,20
6,92,45,160
6,92,0,20
6,92,45,10
6,92,0,20
6,92,45,10
6,92,0,20
6,92,45,160
6,92,0,20
6,92,45,10
6,92,0,20
6,92,45,10
6,92,0,20
6,92,45,160
6,92,0,20
6,92,45,10
6,92,0,20
6,92,45,10
6,92,0,20
6,92,45,160
6,92,0,20
6,92,45,10
6,92,0,20
6,92,45,10
6,92,0,20
6,92,45,160
6,92,0,20
6,92,45,10
6,92,0,20
6,92,45,10
6,92,0,20
6,92,45,160
6,92,0,20
6,92,45,10
6,92,0,20
6,92,45,10
6,92,0,20
6,92,45,160
6,92,0,20
6,92,45,10
6,92,0,20
6,92,45,10
6,92,0,20
7,44,40,240
7,32,40,180
7,44,0,60
7,32,0,120
7,32,70,360
7,32,0,120
7,32,70,0
7,32,0,120
7,32,70,0
7,44,40,0
7,32,0,120
7,32,40,60
7,44,0,60
7,32,0,120
7,32,80,360
7,32,0,120
7,32,80,0
7,32,0,120
7,32,80,0
7,44,40,0
7,32,0,120
7,32,40,60
7,44,0,60
7,32,0,120
8,83,100,1500
8,82,100,60
8,83,0,20
8,82,0,20
8,82,100,20
8,82,0,60
8,80,100,0
8,80,0,180
8,80,100,0
8,80,0,60
8,80,100,0
8,80,0,60
8,80,70,0
8,75,60,0
8,75,0,40
8,80,0,20
8,80,70,0
8,80,0,60
8,75,40,0
8,75,0,40
8,56,100,740
8,56,0,60
8,56,100,60
8,56,0,60
8,56,100,60
8,56,0,60
8,58,100,360
8,58,0,50
8,59,100,10
8,59,0,50
8,58,100,10
8,58,0,60
8,56,100,0
8,56,0,60
8,54,100,0
8,54,0,60
8,52,100,0
8,52,0,60
8,59,100,60
8,59,0,50
8,52,100,70
8,52,0,60
8,51,100,240
8,51,0,60
8,51,100,60
8,51,0,60
8,51,100,180
8,51,0,50
8,56,100,10
8,56,0,60
8,56,100,60
8,56,0,60
8,56,100,60
8,56,0,60
8,56,100,240
8,56,0,50
8,56,100,10
8,56,0,60
8,58,100,0
8,58,0,60
8,59,100,0
8,59,0,60
8,58,100,0
8,58,0,60
8,56,100,0
8,56,0,60
8,54,100,0
8,54,0,60
8,52,100,0
8,52,0,60
8,59,100,60
8,59,0,60
8,52,100,60
8,52,0,60
8,51,100,240
8,51,0,60
8,51,100,60
8,51,0,60
8,64,100,240
8,64,0,120
8,64,100,120
8,64,0,100
8,63,100,140
8,63,0,120
8,64,100,0
8,64,0,60
8,63,100,0
8,63,0,120
8,61,100,0
8,61,0,120
8,61,100,0
8,59,100,120
8,61,0,10
8,59,0,170
8,56,100,60
8,56,0,60
8,63,100,0
8,63,0,60
8,61,100,0
8,61,0,120
8,63,80,0
8,63,0,60
8,63,100,60
8,63,0,60
8,63,100,0
8,63,0,120
8,66,100,0
8,66,0,60
8,56,100,3900
8,56,0,150
8,56,100,30
8,56,0,180
8,56,100,240
8,56,0,50
8,58,100,10
8,58,0,50
8,59,100,10
8,59,0,60
8,58,100,0
8,58,0,60
8,56,100,0
8,56,0,60
8,54,100,0
8,54,0,60
8,52,100,0
8,52,0,60
8,59,100,60
8,59,0,60
8,52,100,60
8,52,0,60
8,51,100,240
8,51,0,90
8,51,100,30
8,51,0,90
8,51,100,150
8,51,0,60
8,56,100,0
8,56,0,60
8,56,100,60
8,56,0,60
8,56,100,60
8,56,0,60
8,59,100,60
8,59,0,50
8,59,100,10
8,59,0,50
8,56,100,10
8,56,0,90
8,59,100,150
8,59,0,60
8,58,100,0
8,58,0,60
8,56,100,0
8,56,0,60
8,54,100,0
8,54,0,60
8,52,100,0
8,52,0,120
8,61,100,120
8,59,70,120
8,61,0,60
8,61,70,0
8,59,0,30
8,61,0,50
8,63,100,40
8,63,0,180
8,56,100,6000
8,56,0,150
8,56,100,30
8,56,0,140
8,66,100,460
8,66,0,20
8,68,100,10
8,68,0,90
8,66,100,0
8,66,0,60
8,68,100,780
8,68,0,30
8,68,100,30
8,63,100,60
8,68,0,30
8,63,0,30
8,56,100,0
8,56,0,30
8,56,100,30
8,56,0,30
8,56,100,0
8,56,0,80
8,56,100,70
8,56,0,30
8,56,100,30
8,56,0,30
8,56,100,0
8,56,0,80
8,56,100,490
8,56,0,30
8,56,100,0
8,56,0,30
8,56,100,0
8,56,0,30
8,56,100,30
8,56,0,30
8,56,100,0
8,56,0,60
8,56,100,0
8,56,0,30
8,56,100,0
8,56,0,30
8,56,100,0
8,56,0,30
8,56,100,0
8,56,0,30
8,56,100,30
8,56,0,30
8,56,100,0
8,56,0,80
9,56,70,960
9,68,70,0
9,56,0,120
9,68,0,0
9,80,70,1800
9,56,90,0
9,68,90,0
9,80,0,120
9,68,0,0
9,56,0,0
9,56,90,19080
9,68,90,0
9,68,0,60
9,56,0,0
9,68,90,1860
9,56,90,0
9,68,0,60
9,56,0,0
9,40,90,7860
9,52,90,0
9,40,0,80
9,52,0,0
9,52,70,880
9,44,90,0
9,44,0,80
9,52,0,0
9,47,90,880
9,71,90,0
9,59,90,0
9,59,0,80
9,47,0,0
9,71,0,0
9,52,70,1840
9,44,90,0
9,52,0,80
9,44,0,0
9,52,70,880
9,44,90,0
9,44,0,80
9,52,0,0
9,71,90,880
9,59,90,0
9,47,90,0
9,47,0,80
9,59,0,0
9,71,0,0
9,44,90,1360
9,52,70,0
9,44,0,80
9,52,0,0
9,52,70,880
9,44,90,0
9,44,0,80
9,52,0,0
9,71,90,880
9,59,90,0
9,47,90,0
9,47,0,80
9,59,0,0
9,71,0,0
10,63,70,2640
10,63,0,240
10,61,50,4740
10,61,0,110
10,56,40,340
10,56,0,330
10,66,100,23340
10,66,0,180
11,68,90,2780
11,68,0,100
11,68,70,0
11,68,0,50
11,68,70,70
11,68,0,50
11,68,70,70
11,68,0,50
11,71,35,670
11,71,0,480
11,70,35,0
11,70,0,480
11,56,70,0
11,75,30,0
11,56,0,50
11,56,70,70
11,56,0,50
11,56,70,70
11,56,0,50
11,75,0,670
11,71,35,0
11,71,0,480
11,70,35,0
11,70,0,480
11,76,40,0
11,76,0,480
11,75,40,0
11,75,0,480
11,71,40,0
11,71,0,390
11,73,40,0
11,51,60,330
11,63,100,0
11,51,0,120
11,63,0,0
11,54,60,0
11,66,100,0
11,73,0,30
11,54,0,90
11,66,0,0
11,44,70,0
11,52,80,0
11,71,80,0
11,71,0,170
11,52,0,10
11,44,0,0
11,44,70,0
11,68,80,0
11,52,80,0
11,68,0,160
11,44,0,20
11,52,0,0
11,44,70,0
11,51,80,0
11,68,80,0
11,51,0,60
11,44,0,0
11,68,0,0
11,42,70,0
11,54,80,0
11,70,80,0
11,70,0,160
11,54,0,10
11,42,0,10
11,68,80,0
11,44,70,0
11,56,80,0
11,68,0,60
11,44,0,0
11,56,0,0
11,68,80,0
11,44,70,0
11,51,80,0
11,68,0,230
11,51,0,50
11,44,0,0
11,44,100,20
11,71,80,0
11,56,100,0
11,56,0,100
11,71,0,10
11,44,0,10
11,44,100,0
11,71,80,0
11,56,100,0
11,56,0,100
11,71,0,10
11,44,0,10
11,44,100,0
11,71,80,0
11,56,100,0
11,56,0,60
11,44,0,0
11,71,0,0
11,44,100,0
11,68,80,0
11,56,100,0
11,56,0,60
11,44,0,0
11,68,0,0
11,44,100,0
11,56,100,0
11,68,80,0
11,56,0,60
11,44,0,0
11,68,0,0
11,44,100,0
11,51,100,0
11,63,80,0
11,44,0,60
11,51,0,0
11,63,0,0
11,42,100,0
11,54,100,0
11,70,70,0
11,54,0,110
11,42,0,10
11,56,100,0
11,44,100,0
11,56,0,50
11,44,0,10
11,70,0,0
11,51,100,0
11,71,70,0
11,44,100,0
11,51,0,170
11,71,0,10
11,47,100,0
11,44,0,20
11,47,0,100
11,47,70,0
11,71,80,0
11,51,100,0
11,51,0,110
11,71,0,10
11,47,0,0
11,42,70,0
11,66,80,0
11,51,100,0
11,51,0,60
11,66,0,0
11,42,0,0
11,40,70,0
11,64,80,0
11,52,100,0
11,52,0,120
11,40,0,0
11,64,0,0
11,39,70,0
11,51,100,0
11,63,80,0
11,51,0,110
11,63,0,10
11,39,0,0
11,44,70,0
11,56,100,0
11,68,80,0
11,44,0,120
11,56,0,0
11,68,0,0
11,42,70,0
11,66,80,0
11,54,100,0
11,54,0,120
11,42,0,0
11,66,0,0
11,40,70,0
11,66,80,0
11,52,100,0
11,40,0,120
11,66,0,0
11,52,0,0
11,63,100,0
11,39,70,0
11,83,40,0
11,51,100,0
11,71,70,0
11,63,0,120
11,83,0,0
11,71,0,0
11,51,0,0
11,39,0,0
11,63,100,0
11,39,70,0
11,83,40,0
11,51,100,0
11,71,70,0
11,63,0,120
11,71,0,0
11,39,0,0
11,83,0,0
11,51,0,0
11,61,100,0
11,82,40,0
11,66,70,0
11,49,100,0
11,42,70,0
11,49,0,240
11,42,0,0
11,66,0,40
11,82,0,0
11,61,0,0
11,80,40,140
11,56,100,0
11,44,80,0
11,68,70,0
11,39,70,120
11,80,0,90
11,68,0,0
11,56,0,0
11,44,0,30
11,39,0,0
11,82,40,0
11,70,70,0
11,58,100,0
11,46,80,0
11,39,80,120
11,58,0,90
11,82,0,0
11,70,0,0
11,39,0,30
11,46,0,0
11,80,40,0
11,56,100,0
11,44,80,0
11,68,35,0
11,80,0,150
11,56,0,10
11,44,0,0
11,80,40,10
11,56,100,10
11,44,80,0
11,56,0,160
11,44,0,0
11,80,0,0
11,68,0,620
11,64,50,0
11,71,35,0
11,64,0,70
11,71,50,50
11,71,0,70
11,64,50,50
11,64,0,70
11,71,0,170
11,70,35,0
11,51,80,420
11,63,60,0
11,63,0,60
11,51,0,0
11,70,0,0
11,56,80,0
11,68,80,0
11,68,0,40
11,56,0,0
11,56,80,80
11,68,80,0
11,68,0,40
11,56,0,0
11,56,80,80
11,68,80,0
11,68,0,40
11,56,0,0
11,71,70,80
11,71,0,60
11,71,70,0
11,71,0,60
11,68,70,0
11,68,0,60
11,71,35,420
11,71,0,480
11,70,35,0
11,70,0,480
11,76,40,0
11,76,0,480
11,75,40,0
11,75,0,480
11,71,40,0
11,71,0,390
11,73,40,0
11,51,60,330
11,63,100,0
11,63,0,120
11,51,0,0
11,54,60,0
11,66,100,0
11,73,0,30
11,54,0,90
11,66,0,0
11,44,70,0
11,52,80,0
11,71,80,0
11,71,0,170
11,52,0,10
11,44,0,0
11,44,70,0
11,68,80,0
11,52,80,0
11,68,0,160
11,44,0,20
11,52,0,0
11,44,70,0
11,51,80,0
11,68,80,0
11,44,0,60
11,51,0,0
11,68,0,0
11,42,70,0
11,54,80,0
11,70,80,0
11,70,0,160
11,54,0,10
11,42,0,10
11,68,80,0
11,44,70,0
11,56,80,0
11,68,0,60
11,44,0,0
11,56,0,0
11,68,80,0
11,44,70,0
11,51,80,0
11,68,0,220
11,51,0,50
11,44,0,0
11,44,100,30
11,71,80,0
11,56,100,0
11,56,0,100
11,71,0,10
11,44,0,10
11,44,100,0
11,71,80,0
11,56,100,0
11,56,0,100
11,71,0,10
11,44,0,10
11,44,100,0
11,71,80,0
11,56,100,0
11,56,0,60
11,44,0,0
11,71,0,0
11,44,100,0
11,68,80,0
11,56,100,0
11,56,0,60
11,44,0,0
11,68,0,0
11,44,100,0
11,56,100,0
11,68,80,0
11,56,0,60
11,44,0,0
11,68,0,0
11,44,100,0
11,51,100,0
11,63,80,0
11,44,0,60
11,51,0,0
11,63,0,0
11,42,100,0
11,54,100,0
11,70,70,0
11,54,0,110
11,42,0,10
11,56,100,0
11,44,100,0
11,56,0,50
11,44,0,10
11,70,0,0
11,51,100,0
11,71,70,0
11,44,100,0
11,51,0,170
11,71,0,10
11,47,100,0
11,44,0,20
11,47,0,100
11,47,70,0
11,71,80,0
11,51,100,0
11,51,0,110
11,71,0,10
11,47,0,0
11,42,70,0
11,66,80,0
11,51,100,0
11,51,0,60
11,66,0,0
11,42,0,0
11,40,70,0
11,64,80,0
11,52,100,0
11,52,0,120
11,40,0,0
11,64,0,0
11,39,70,0
11,51,100,0
11,63,80,0
11,51,0,110
11,63,0,10
11,39,0,0
11,44,70,0
11,56,100,0
11,68,80,0
11,44,0,120
11,56,0,0
11,68,0,0
11,42,70,0
11,66,80,0
11,54,100,0
11,54,0,120
11,42,0,0
11,66,0,0
11,40,70,0
11,66,80,0
11,52,100,0
11,40,0,120
11,66,0,0
11,52,0,0
11,39,70,0
11,83,40,0
11,51,100,0
11,71,70,0
11,63,100,0
11,39,0,120
11,51,0,0
11,63,0,0
11,71,0,0
11,83,0,0
11,63,100,0
11,39,70,0
11,83,40,0
11,51,100,0
11,71,70,0
11,63,0,120
11,71,0,0
11,39,0,0
11,83,0,0
11,51,0,0
11,61,100,0
11,82,40,0
11,66,70,0
11,49,100,0
11,42,70,0
11,49,0,240
