track,note,velocity,time
1,73,100,676
1,73,0,328
1,76,100,4
1,76,0,76
1,78,100,256
1,78,0,148
1,80,100,0
1,80,0,80
1,78,100,252
1,78,0,124
1,76,100,4
1,76,0,160
1,78,100,4
1,78,0,328
1,73,127,24
1,73,0,140
1,76,126,4
1,76,0,2152
1,73,100,1000
1,73,0,264
1,76,100,4
1,76,0,76
1,78,100,260
1,78,0,320
1,80,100,8
1,80,0,76
1,78,100,260
1,78,0,156
1,76,100,4
1,76,0,12
1,78,100,0
1,78,0,80
1,73,100,8
1,73,0,144
1,76,100,4
1,76,0,2156
1,73,100,56680
1,73,0,328
1,76,100,4
1,76,0,76
1,78,100,252
1,78,0,328
1,80,100,4
1,80,0,80
1,78,100,256
1,78,0,160
1,76,100,4
1,76,0,160
1,78,100,4
1,78,0,328
1,73,100,16
1,73,0,152
1,76,100,4
1,76,0,2152
1,73,100,1000
1,73,0,320
1,76,100,8
1,76,0,76
1,78,100,260
1,78,0,320
1,80,100,12
1,80,0,72
1,78,100,256
1,78,0,156
1,76,100,8
1,76,0,160
1,78,100,4
1,78,0,340
1,73,100,20
1,73,0,136
1,76,100,4
1,76,0,820
1,75,126,42104
1,75,0,324
1,78,126,8
1,78,0,72
1,80,126,272
1,80,0,312
1,82,126,20
1,82,0,60
1,80,126,260
1,80,0,160
1,78,126,4
1,78,0,156
1,80,126,8
1,80,0,324
1,75,126,16
1,75,0,152
1,78,126,4
1,78,0,2148
1,75,127,1004
1,75,0,324
1,78,127,4
1,78,0,80
1,80,127,268
1,80,0,316
1,82,127,36
1,82,0,40
1,80,127,256
1,80,0,160
1,78,127,12
1,78,0,152
1,80,127,8
1,80,0,328
1,75,127,12
1,75,0,148
1,78,126,8
1,78,0,2148
1,75,127,1004
1,75,0,320
1,78,127,8
1,78,0,80
1,80,127,264
1,80,0,320
1,82,127,12
1,82,0,68
1,80,127,252
1,80,0,160
1,78,127,4
1,78,0,160
1,80,127,4
1,80,0,328
1,75,127,16
1,75,0,148
1,78,127,4
1,78,0,2152
1,75,127,1004
1,75,0,320
1,78,127,8
1,78,0,76
1,80,127,280
1,80,0,300
1,82,127,48
1,82,0,36
1,80,127,260
1,80,0,156
1,78,127,8
1,78,0,156
1,80,127,4
1,80,0,332
1,75,127,12
1,75,0,148
1,78,124,4
1,78,0,2152
2,40,127,2684
2,40,0,332
2,40,127,4
2,40,0,2312
2,40,127,8
2,40,0,324
2,40,127,8
2,40,0,2320
2,36,127,8
2,36,0,320
2,36,127,0
2,36,0,996
2,35,127,0
2,35,0,2976
2,28,127,1000
2,28,0,328
2,28,127,8
2,28,0,2228
2,36,127,88
2,36,0,328
2,36,127,4
2,36,0,2232
2,39,127,88
2,39,0,332
2,39,126,4
2,39,0,2144
2,33,127,172
2,33,0,332
2,33,127,0
2,33,0,1980
2,30,127,340
2,30,0,332
2,30,127,0
2,30,0,1980
2,35,127,340
2,35,0,328
2,35,127,4
2,35,0,1984
2,28,127,332
2,28,0,328
2,28,127,8
2,28,0,2228
2,36,127,92
2,36,0,328
2,36,127,4
2,36,0,2228
2,39,127,88
2,39,0,332
2,39,127,4
2,39,0,2144
2,33,127,172
2,33,0,332
2,33,127,4
2,33,0,1980
2,30,127,336
2,30,0,332
2,30,127,4
2,30,0,1980
2,35,127,340
2,35,0,492
2,35,127,164
2,35,0,328
2,35,127,4
2,35,0,248
2,35,127,84
2,35,0,1820
2,28,127,832
2,28,0,248
2,28,127,88
2,28,0,240
2,28,127,752
2,28,0,244
2,28,127,92
2,28,0,240
2,30,127,752
2,30,0,244
2,30,127,88
2,30,0,240
2,30,98,92
2,30,0,76
2,33,99,84
2,33,0,84
2,30,101,80
2,30,0,80
2,26,101,88
2,26,0,84
2,30,127,84
2,30,0,244
2,30,125,88
2,30,0,240
2,30,95,92
2,30,0,76
2,33,95,88
2,33,0,80
2,30,95,84
2,30,0,80
2,26,95,84
2,26,0,84
2,33,127,88
2,33,0,244
2,33,125,92
2,33,0,236
2,33,125,752
2,33,0,244
2,33,125,92
2,33,0,240
2,32,125,752
2,32,0,240
2,32,125,92
2,32,0,240
2,44,103,92
2,44,0,72
2,47,103,88
2,47,0,80
2,44,102,84
2,44,0,80
2,40,101,88
2,40,0,80
2,37,123,84
2,37,0,248
2,37,126,88
2,37,0,240
2,44,97,92
2,44,0,76
2,47,97,84
2,47,0,80
2,44,97,88
2,44,0,80
2,40,97,84
2,40,0,80
2,33,121,92
2,33,0,244
2,33,126,88
2,33,0,244
2,33,126,744
2,33,0,244
2,33,126,96
2,33,0,240
2,30,126,748
2,30,0,244
2,30,126,92
2,30,0,240
2,30,126,748
2,30,0,244
2,30,126,92
2,30,0,244
2,35,126,748
2,35,0,244
2,35,126,92
2,35,0,240
2,35,97,584
2,35,0,160
2,35,126,8
2,35,0,240
2,35,126,92
2,35,0,240
2,35,96,584
2,35,0,164
2,35,126,4
2,35,0,244
2,40,127,3732
2,40,0,332
2,40,127,0
2,40,0,2316
2,40,127,4
2,40,0,328
2,40,127,4
2,40,0,2320
2,36,127,8
2,36,0,320
2,36,127,4
2,36,0,992
2,35,127,4
2,35,0,2976
2,28,127,996
2,28,0,328
2,28,127,8
2,28,0,2232
2,36,127,88
2,36,0,328
2,36,127,4
2,36,0,2232
2,39,127,88
2,39,0,328
2,39,127,4
2,39,0,2148
2,33,127,168
2,33,0,336
2,33,127,0
2,33,0,1980
2,30,127,340
2,30,0,332
2,30,127,0
2,30,0,1980
2,35,127,336
2,35,0,500
2,35,127,80
2,35,0,412
2,35,127,4
2,35,0,244
2,35,127,88
2,35,0,1820
2,28,127,828
2,28,0,248
2,28,127,92
2,28,0,240
2,28,127,748
2,28,0,248
2,28,127,88
2,28,0,244
2,30,127,748
2,30,0,244
2,30,127,92
2,30,0,240
2,30,99,92
2,30,0,76
2,33,103,80
2,33,0,88
2,30,103,80
2,30,0,80
2,26,105,84
2,26,0,84
2,30,127,84
2,30,0,244
2,30,125,92
2,30,0,244
2,30,101,88
2,30,0,76
2,33,101,84
2,33,0,84
2,30,101,84
2,30,0,76
2,26,101,88
2,26,0,84
2,33,125,88
2,33,0,240
2,33,125,92
2,33,0,240
2,33,125,748
2,33,0,244
2,33,125,92
2,33,0,244
2,32,125,748
2,32,0,244
2,32,125,88
2,32,0,240
2,44,100,92
2,44,0,76
2,47,100,84
2,47,0,80
2,44,100,88
2,44,0,80
2,40,99,84
2,40,0,80
2,37,126,84
2,37,0,252
2,37,126,84
2,37,0,244
2,44,99,88
2,44,0,76
2,47,101,88
2,47,0,80
2,44,102,84
2,44,0,80
2,40,101,88
2,40,0,80
2,33,121,88
2,33,0,244
2,33,126,92
2,33,0,240
2,33,126,748
2,33,0,248
2,33,126,88
2,33,0,240
2,30,126,748
2,30,0,248
2,30,126,88
2,30,0,244
2,30,126,748
2,30,0,248
2,30,126,88
2,30,0,240
2,35,126,748
2,35,0,244
2,35,104,92
2,35,0,984
2,35,126,4
2,35,0,248
2,35,91,92
2,35,0,900
2,35,97,88
2,35,0,908
2,30,127,416
2,30,0,244
2,30,127,92
2,30,0,244
2,30,127,748
2,30,0,244
2,30,127,92
2,30,0,240
2,32,127,752
2,32,0,240
2,32,127,92
2,32,0,240
2,44,99,88
2,44,0,80
2,47,101,84
2,47,0,80
2,44,101,88
2,44,0,80
2,38,101,84
2,38,0,84
2,32,127,84
2,32,0,244
2,32,125,92
2,32,0,240
2,44,97,88
2,44,0,76
2,47,97,88
2,47,0,76
2,44,98,88
2,44,0,80
2,38,98,88
2,38,0,80
2,35,125,84
2,35,0,244
2,35,125,92
2,35,0,240
2,35,125,748
2,35,0,248
2,35,125,92
2,35,0,240
2,30,125,752
2,30,0,244
2,30,125,88
2,30,0,240
2,46,101,88
2,46,0,80
2,49,101,84
2,49,0,80
2,46,100,88
2,46,0,80
2,41,100,84
2,41,0,80
2,30,126,84
2,30,0,248
2,30,126,92
2,30,0,240
2,46,100,88
2,46,0,76
2,49,99,88
2,49,0,80
2,46,99,84
2,46,0,80
2,41,98,88
2,41,0,80
2,30,121,84
2,30,0,244
2,30,126,92
2,30,0,244
2,30,126,748
2,30,0,244
2,30,126,92
2,30,0,240
2,32,126,752
2,32,0,0
2,32,127,0
2,32,0,240
2,32,126,92
2,32,0,0
2,32,127,0
2,32,0,240
2,44,100,88
2,44,0,80
2,47,100,84
2,47,0,80
2,44,100,88
2,44,0,76
2,38,100,88
2,38,0,76
2,32,126,92
2,32,0,4
2,32,127,0
2,32,0,240
2,32,126,92
2,32,0,0
2,32,125,0
2,32,0,236
2,44,101,92
2,44,0,76
2,47,100,88
2,47,0,80
2,44,99,84
2,44,0,80
2,38,97,84
2,38,0,84
2,35,126,84
2,35,0,244
2,35,126,92
2,35,0,240
2,35,97,584
2,35,0,160
2,35,126,4
2,35,0,248
2,35,126,92
2,35,0,236
2,36,96,588
2,36,0,164
2,39,126,4
2,39,0,240
2,39,126,92
2,39,0,240
2,45,102,88
2,45,0,76
2,49,100,88
2,49,0,80
2,45,99,84
2,45,0,84
2,42,99,84
2,42,0,80
2,39,126,84
2,39,0,248
2,39,126,88
2,39,0,240
2,45,103,88
2,45,0,80
2,49,103,84
2,49,0,80
2,45,103,88
2,45,0,76
2,42,102,88
2,42,0,80
2,35,125,88
2,35,0,244
2,35,125,92
2,35,0,736
2,35,82,84
2,35,0,88
2,35,127,80
2,35,0,244
2,35,127,92
2,35,0,824
2,35,85,4
2,35,0,76
2,32,127,92
2,32,0,240
2,32,127,88
2,32,0,824
2,32,79,4
2,32,0,76
2,32,127,88
2,32,0,244
2,32,127,92
2,32,0,824
2,32,79,0
2,32,0,80
2,37,125,88
2,37,0,244
2,37,125,92
2,32,79,824
2,37,0,80
2,32,0,4
2,37,125,80
2,37,0,244
2,37,125,96
2,37,0,816
2,32,79,4
2,32,0,84
2,37,125,80
2,37,0,248
2,37,125,92
2,32,79,820
2,37,0,80
2,32,0,8
2,28,121,4056
2,28,0,244
2,28,126,92
2,28,0,244
2,28,126,748
2,28,0,244
2,28,126,88
2,28,0,244
2,30,126,752
2,30,0,0
2,30,127,4
2,30,0,240
2,30,126,88
2,30,0,0
2,30,127,0
2,30,0,240
2,42,100,88
2,42,0,80
2,45,100,84
2,45,0,84
2,42,100,80
2,42,0,80
2,36,100,92
2,36,0,76
2,30,126,88
2,30,0,4
2,30,127,0
2,30,0,240
2,30,126,92
2,30,0,0
2,30,125,0
2,30,0,240
2,42,101,88
2,42,0,80
2,45,100,84
2,45,0,76
2,42,99,88
2,42,0,80
2,36,97,88
2,36,0,76
2,33,126,88
2,33,0,248
2,33,126,88
2,33,0,240
2,33,97,584
2,33,0,164
2,33,126,8
2,33,0,240
2,33,126,88
2,33,0,244
2,34,96,584
2,34,0,160
2,37,126,4
2,37,0,244
2,37,126,92
2,37,0,240
2,43,102,88
2,43,0,80
2,47,100,84
2,47,0,76
2,43,99,88
2,43,0,80
2,40,99,88
2,40,0,80
2,37,126,84
2,37,0,248
2,37,126,88
2,37,0,244
2,43,103,88
2,43,0,76
2,47,103,88
2,47,0,80
2,43,103,84
2,43,0,80
2,40,102,88
2,40,0,76
2,33,125,88
2,33,0,244
2,33,125,92
2,33,0,740
2,33,82,84
2,33,0,84
2,33,127,80
2,33,0,252
2,33,127,84
2,33,0,820
2,33,85,8
2,33,0,76
2,30,127,92
2,30,0,240
2,30,127,92
2,30,0,820
2,30,79,8
2,30,0,72
2,30,127,88
2,30,0,248
2,30,127,88
2,30,0,824
2,30,79,4
2,30,0,76
2,35,100,88
2,35,0,660
3,61,100,696
3,61,0,332
3,64,100,0
3,64,0,84
3,66,100,248
3,66,0,12
3,68,100,0
3,68,0,56
3,66,100,252
3,66,0,84
3,64,100,4
3,64,0,20
3,66,100,84
3,66,0,124
3,61,100,4
3,61,0,160
3,64,80,4
3,64,0,76
3,61,100,904
3,61,0,324
3,64,100,4
3,64,0,84
3,66,100,252
3,66,0,8
3,68,100,4
3,68,0,60
3,66,100,256
3,66,0,84
3,64,100,4
3,64,0,16
3,66,100,88
3,66,0,136
3,61,100,4
3,61,0,152
3,64,100,4
3,64,0,1120
3,61,100,57012
3,61,0,328
3,64,100,0
3,64,0,84
3,66,100,248
3,66,0,8
3,68,100,4
3,68,0,56
3,66,100,252
3,66,0,84
3,64,100,4
3,64,0,16
3,66,100,88
3,66,0,128
3,61,100,4
3,61,0,160
3,64,100,4
3,64,0,264
3,61,100,1324
3,61,0,328
3,64,100,0
3,64,0,80
3,66,100,256
3,66,0,8
3,68,100,4
3,68,0,60
3,66,100,252
3,66,0,84
3,64,100,0
3,64,0,16
3,66,100,88
3,66,0,136
3,61,100,4
3,61,0,152
3,64,100,4
3,64,0,1000
3,63,127,41688
3,63,0,324
3,66,127,4
3,66,0,80
3,68,127,252
3,68,0,332
3,70,127,4
3,70,0,72
3,68,127,256
3,68,0,160
3,66,127,4
3,66,0,164
3,68,127,4
3,68,0,328
3,63,127,4
3,63,0,160
3,66,127,0
3,66,0,2152
3,63,127,1000
3,63,0,328
3,66,127,4
3,66,0,76
3,68,127,252
3,68,0,328
3,70,127,8
3,70,0,76
3,68,127,256
3,68,0,160
3,66,127,4
3,66,0,160
3,68,127,4
3,68,0,328
3,63,127,8
3,63,0,160
3,66,127,4
3,66,0,2152
3,63,127,996
3,63,0,328
3,66,127,4
3,66,0,76
3,68,127,252
3,68,0,332
3,70,127,8
3,70,0,72
3,68,127,252
3,68,0,164
3,66,127,4
3,66,0,160
3,68,127,4
3,68,0,328
3,63,127,8
3,63,0,156
3,66,127,4
3,66,0,2152
3,63,100,1000
3,63,0,328
3,66,100,4
3,66,0,76
3,68,100,252
3,68,0,332
3,70,100,8
3,70,0,72
3,68,100,256
3,68,0,160
3,66,100,4
3,66,0,160
3,68,100,4
3,68,0,332
3,63,127,4
3,63,0,156
3,66,126,4
3,66,0,2152
5,40,127,2688
5,40,0,332
5,40,127,0
5,40,0,2316
5,40,127,8
5,40,0,324
5,40,127,8
5,40,0,2320
5,36,127,4
5,36,0,320
5,36,127,4
5,36,0,992
5,35,127,4
5,35,0,2976
5,28,127,1000
5,28,0,328
5,28,127,4
5,28,0,2232
5,36,127,88
5,36,0,324
5,36,127,8
5,36,0,2232
5,39,127,88
5,39,0,332
5,39,126,4
5,39,0,2148
5,33,127,168
5,33,0,324
5,33,127,8
5,33,0,1980
5,30,127,340
5,30,0,324
5,30,127,8
5,30,0,1980
5,35,127,336
5,35,0,332
5,35,127,0
5,35,0,1988
5,28,127,332
5,28,0,332
5,28,127,4
5,28,0,2232
5,36,127,84
5,36,0,328
5,36,127,8
5,36,0,2228
5,39,127,88
5,39,0,328
5,39,127,8
5,39,0,2148
5,33,127,168
5,33,0,328
5,33,127,4
5,33,0,1984
5,30,127,336
5,30,0,328
5,30,127,8
5,30,0,1980
5,35,127,336
5,35,0,492
5,35,127,168
5,35,0,328
5,35,127,4
5,35,0,248
5,35,127,84
5,35,0,1820
5,28,127,832
5,28,0,244
5,28,127,92
5,28,0,244
5,28,127,744
5,28,0,252
5,28,127,88
5,28,0,244
5,30,127,748
5,30,0,240
5,30,127,92
5,30,0,244
5,30,98,84
5,30,0,76
5,33,99,88
5,33,0,80
5,30,101,84
5,30,0,84
5,26,101,84
5,26,0,80
5,30,127,84
5,30,0,248
5,30,125,88
5,30,0,244
5,30,95,88
5,30,0,76
5,33,95,88
5,33,0,76
5,30,95,88
5,30,0,80
5,26,95,84
5,26,0,80
5,33,127,92
5,33,0,240
5,33,125,92
5,33,0,244
5,33,125,748
5,33,0,244
5,33,125,88
5,33,0,248
5,32,125,744
5,32,0,244
5,32,125,88
5,32,0,248
5,44,103,84
5,44,0,76
5,47,103,88
5,47,0,80
5,44,102,84
5,44,0,80
5,40,101,88
5,40,0,80
5,37,123,84
5,37,0,248
5,37,126,88
5,37,0,244
5,44,97,84
5,44,0,80
5,47,97,84
5,47,0,80
5,44,97,88
5,44,0,76
5,40,97,88
5,40,0,80
5,33,121,92
5,33,0,240
5,33,126,92
5,33,0,244
5,33,126,744
5,33,0,248
