track,note,velocity,time
1,46,120,1908
1,34,127,0
1,58,120,0
1,48,120,28
1,60,120,0
1,36,120,0
1,48,115,28
1,60,115,0
1,36,115,0
1,46,120,6396
1,34,127,0
1,58,120,0
1,48,120,28
1,60,120,0
1,36,120,0
1,48,115,28
1,36,115,0
1,60,115,0
1,34,127,6396
1,46,120,0
1,58,120,0
1,48,120,28
1,60,120,0
1,36,120,0
1,36,115,28
1,48,115,0
1,60,115,0
1,46,120,14076
1,34,127,0
1,58,120,0
1,48,120,28
1,36,120,0
1,60,120,0
1,36,115,28
1,60,115,0
1,48,115,0
1,46,120,14076
1,34,127,0
1,58,120,0
1,36,120,28
1,60,120,0
1,48,120,0
1,36,115,28
1,48,115,0
1,60,115,0
1,46,120,14076
1,34,127,0
1,58,120,0
1,36,120,28
1,60,120,0
1,48,120,0
1,36,115,28
1,48,115,0
1,60,115,0
1,46,120,29436
1,34,127,0
1,58,120,0
1,36,120,28
1,48,120,0
1,60,120,0
1,48,115,28
1,60,115,0
1,36,115,0
1,46,120,14076
1,34,127,0
1,58,120,0
1,48,120,28
1,60,120,0
1,36,120,0
1,60,115,28
1,48,115,0
1,36,115,0
1,34,127,14076
1,46,120,0
1,58,120,0
1,36,120,28
1,48,120,0
1,60,120,0
1,60,115,28
1,36,115,0
1,48,115,0
1,46,120,14076
1,34,127,0
1,58,120,0
1,48,120,28
1,36,120,0
1,60,120,0
1,36,115,28
1,48,115,0
1,60,115,0
1,46,114,37116
1,34,120,0
1,58,114,0
1,36,114,28
1,48,114,0
1,60,114,0
1,48,109,28
1,36,109,0
1,60,109,0
1,46,114,6396
1,34,120,0
1,58,114,40
1,48,114,28
1,36,114,0
1,60,114,28
1,36,109,28
1,48,109,0
1,60,109,28
1,67,124,116
1,75,124,0
1,72,114,0
1,67,114,172
1,67,120,304
1,72,114,480
1,79,114,248
1,71,109,24
1,74,120,0
1,67,120,0
1,67,78,228
1,71,109,0
1,74,120,480
1,75,109,16
1,70,98,0
1,67,120,0
1,70,85,124
1,70,109,232
1,75,104,480
1,79,104,164
1,77,109,32
1,68,114,0
1,72,104,0
1,75,120,36
1,74,120,436
1,72,120,20
1,71,114,0
1,67,120,0
1,71,120,148
1,67,98,0
1,44,124,260
1,79,124,0
1,75,124,0
1,68,124,0
1,72,114,0
1,68,114,172
1,68,120,784
1,72,114,480
1,46,120,100
1,70,120,0
1,77,120,0
1,74,109,0
1,74,120,0
1,72,120,16
1,75,97,32
1,72,97,0
1,68,97,0
1,44,120,0
1,82,84,60
1,77,84,0
1,74,84,0
1,70,84,0
1,46,120,0
1,67,124,60
1,75,124,0
1,36,109,0
1,72,114,0
1,48,104,0
1,67,114,172
1,67,120,304
1,72,114,480
1,79,114,248
1,43,120,4
1,31,127,4
1,71,109,16
1,67,120,0
1,74,120,0
1,67,78,228
1,71,109,0
1,74,120,480
1,75,109,16
1,51,114,0
1,67,120,0
1,39,114,0
1,70,98,0
1,70,85,124
1,70,109,232
1,75,104,480
1,79,104,164
1,41,109,28
1,68,114,4
1,72,104,0
1,29,114,0
1,77,109,0
1,75,120,36
1,74,120,436
1,71,114,0
1,72,120,0
1,67,120,0
1,31,120,8
1,43,124,4
1,71,120,148
1,67,98,0
1,32,109,16
1,68,124,0
1,72,114,0
1,44,104,0
1,75,124,0
1,68,114,172
1,79,114,1264
1,46,120,4
1,34,127,4
1,70,120,16
1,74,109,0
1,77,120,0
1,75,109,16
1,44,114,0
1,68,120,0
1,32,114,0
1,72,98,0
1,44,114,0
1,32,114,0
1,31,114,0
1,43,114,0
1,41,109,28
1,68,114,0
1,72,104,0
1,29,114,0
1,77,109,4
1,34,120,8
1,46,124,4
1,47,124,928
1,35,120,0
1,75,109,16
1,51,114,0
1,70,98,0
1,39,114,0
1,67,120,0
1,70,85,124
1,70,109,232
1,75,104,480
1,79,104,164
1,41,109,28
1,72,104,4
1,68,114,0
1,29,114,0
1,77,109,0
1,75,120,36
1,74,120,436
1,67,120,0
1,71,114,0
1,72,120,0
1,31,120,8
1,43,124,4
1,67,98,148
1,71,120,0
1,48,104,16
1,72,114,0
1,75,124,0
1,36,109,0
1,67,124,0
1,67,114,172
1,67,120,304
1,72,114,480
1,79,114,248
1,43,120,4
1,31,127,4
1,71,109,16
1,74,120,0
1,67,120,0
1,67,78,228
1,71,109,0
1,74,120,480
1,70,98,16
1,51,114,0
1,39,114,0
1,75,109,0
1,67,120,0
1,70,85,124
1,70,109,232
1,75,104,480
1,79,104,164
1,41,109,28
1,68,114,4
1,29,114,0
1,72,104,0
1,77,109,0
1,75,120,36
1,74,120,436
1,71,114,0
1,72,120,0
1,67,120,0
1,31,120,8
1,43,124,4
1,67,98,148
1,71,120,0
1,75,124,16
1,36,109,0
1,72,114,0
1,67,124,0
1,48,104,0
1,67,114,172
1,67,120,304
1,72,114,480
1,79,114,248
1,43,120,4
1,31,127,4
1,67,120,16
1,71,109,0
1,74,120,0
1,67,78,228
1,71,109,0
1,74,120,480
1,67,120,16
1,39,114,0
1,70,98,0
1,51,114,0
1,75,109,0
1,70,85,124
1,70,109,232
1,75,104,480
1,79,104,164
1,41,109,28
1,68,114,4
1,29,114,0
1,77,109,0
1,72,104,0
1,75,120,36
1,74,120,436
1,71,114,0
1,67,120,0
1,72,120,0
1,31,120,8
1,43,124,4
1,71,120,148
1,67,98,0
1,75,124,16
1,36,109,0
1,48,104,0
1,67,124,0
1,72,114,0
1,67,114,172
1,67,120,304
1,72,114,480
1,79,114,248
1,43,120,4
1,31,127,4
1,74,120,16
1,67,120,0
1,71,109,0
1,67,78,228
1,71,109,0
1,74,120,480
1,67,120,16
1,75,109,0
1,70,98,0
1,51,114,0
1,39,114,0
1,70,85,124
1,70,109,232
1,75,104,480
1,79,104,164
2,36,109,18688
2,36,120,1292
2,36,127,40
2,35,114,1292
2,35,120,1224
2,31,124,40
2,38,124,200
2,39,124,200
2,39,109,1328
2,39,114,40
2,29,124,1348
2,29,120,1108
2,31,120,40
2,36,109,1480
2,36,120,1292
2,36,127,40
2,35,114,1292
2,35,120,1224
2,31,124,40
2,38,124,288
2,39,124,200
2,39,109,1320
2,39,114,40
2,29,124,1348
2,29,109,1108
2,31,120,40
2,34,120,360
2,36,109,360
2,36,120,1292
2,36,127,40
2,35,114,1292
2,35,120,1224
2,31,124,40
2,38,124,520
2,39,124,200
2,39,109,1328
2,39,114,40
2,29,124,1348
2,29,109,788
2,31,120,80
2,36,109,1480
2,36,120,1292
2,36,127,40
2,35,114,1480
2,35,120,1224
2,31,124,40
2,38,124,80
2,39,124,40
2,39,109,1328
2,39,114,40
2,29,124,1480
2,29,100,628
2,29,117,40
2,31,120,200
2,31,120,520
2,36,109,4
2,36,120,1292
2,36,127,40
2,35,114,1480
2,35,118,1224
2,31,124,40
2,31,118,80
2,34,124,40
2,34,118,120
2,39,124,40
2,39,109,1320
2,39,114,40
2,29,124,1480
2,29,109,788
2,31,120,80
2,35,114,5320
2,35,120,1224
2,31,124,40
2,38,124,200
2,39,124,200
2,39,109,1328
2,39,114,40
2,29,124,1348
2,29,120,1108
2,31,120,40
2,36,109,1480
2,36,120,1292
2,36,127,40
2,35,114,1292
2,35,120,1224
2,31,124,40
2,38,124,288
2,39,124,200
2,39,109,1320
2,39,114,40
2,29,124,1348
2,29,109,1108
2,31,120,40
2,34,120,360
2,36,109,360
2,36,120,1292
2,36,127,40
2,35,114,1292
2,35,120,1224
2,31,124,40
2,38,124,520
2,39,124,200
2,39,109,1328
2,39,114,40
2,29,124,1348
2,29,109,788
2,31,120,80
2,36,109,1480
2,36,120,1292
2,36,127,40
2,35,114,1480
2,35,120,1224
2,31,124,40
2,38,124,80
2,39,124,40
2,39,109,1328
2,39,114,40
2,29,124,1480
2,29,100,628
2,29,117,40
2,31,120,200
2,31,120,520
2,36,109,4
2,36,120,1292
2,36,127,40
2,35,114,1480
2,35,118,1224
2,31,124,40
2,31,118,80
2,34,124,40
2,34,118,120
2,39,124,40
2,39,109,1320
2,39,114,40
2,34,109,8
2,36,109,8
2,36,120,1292
2,36,127,40
2,35,114,1292
2,35,120,1224
2,31,124,40
2,38,124,120
2,39,124,80
2,39,109,1328
2,39,114,40
2,29,124,1348
2,29,120,628
2,29,120,40
2,31,120,80
2,31,120,296
2,32,114,160
2,32,106,748
2,32,114,40
2,32,124,640
2,34,114,40
2,34,114,640
2,34,114,40
2,34,124,80
2,32,114,440
2,32,109,640
2,32,123,40
2,31,123,80
2,29,114,160
2,34,117,1000
2,35,121,52
2,36,125,68
2,35,114,3152
2,35,120,1224
2,31,124,40
2,38,124,80
2,39,124,40
2,39,109,1328
2,39,114,40
2,29,124,1480
2,29,100,628
2,29,117,40
2,31,120,200
2,31,120,520
2,36,109,4
2,36,120,1292
2,36,127,40
2,35,114,1480
2,35,118,1224
2,31,124,40
2,31,118,80
2,34,124,40
2,34,118,120
2,39,124,40
2,39,109,1320
2,39,114,40
2,29,124,1480
2,29,109,788
2,31,120,80
2,36,109,1480
2,36,120,1292
2,36,127,40
2,35,114,1480
2,35,120,1224
2,31,124,40
2,38,124,80
2,39,124,40
2,39,109,1328
2,39,114,40
2,29,124,1480
2,29,100,628
2,29,117,40
2,31,120,200
2,31,120,520
2,36,109,4
2,36,120,1292
2,36,127,40
2,35,114,1480
2,35,118,1224
2,31,124,40
2,31,118,80
2,34,124,40
2,34,118,120
2,39,124,40
2,39,109,1320
2,39,114,40
2,27,124,1480
3,67,127,64748
3,72,127,0
3,75,127,0
3,74,127,0
3,67,127,0
3,71,127,0
3,67,127,0
3,70,127,0
3,75,127,0
3,72,127,0
3,68,127,0
3,77,127,0
3,74,127,0
3,71,127,0
3,79,127,0
3,67,127,0
3,72,127,0
3,75,127,0
3,71,127,0
3,74,127,0
3,67,127,0
3,75,127,0
3,67,127,0
3,70,127,0
3,77,127,0
3,72,127,0
3,68,127,0
3,71,127,0
3,79,127,0
3,74,127,0
3,67,127,46080
3,72,127,0
3,75,127,0
3,71,127,0
3,74,127,0
3,67,127,0
3,75,127,0
3,67,127,0
3,70,127,0
3,72,127,0
3,68,127,0
3,77,127,0
3,74,127,0
3,71,127,0
3,79,127,0
3,67,127,0
3,72,127,0
3,75,127,0
3,71,127,0
3,74,127,0
3,67,127,0
3,67,127,0
3,70,127,0
3,75,127,0
3,77,127,0
3,72,127,0
3,68,127,0
3,74,127,0
3,71,127,0
3,79,127,0
3,96,90,0
3,55,127,0
3,60,127,0
3,63,127,0
3,62,127,0
3,55,127,0
3,59,127,0
3,58,127,0
3,63,127,0
3,55,127,0
3,60,127,0
3,56,127,0
3,65,127,0
3,72,127,0
3,59,127,0
3,62,127,0
3,55,127,0
3,60,127,0
3,71,127,0
3,60,127,0
3,56,127,0
3,62,127,0
3,58,127,0
3,60,127,0
3,56,127,0
3,53,127,0
3,72,127,0
3,68,127,0
3,63,127,0
3,65,127,0
3,74,127,0
3,70,127,0
3,72,127,0
3,75,127,0
3,67,127,0
3,71,127,0
3,67,127,0
3,74,127,0
3,70,127,0
3,75,127,0
3,67,127,0
3,77,127,0
3,68,127,0
3,72,127,0
3,74,127,0
3,71,127,0
3,79,127,0
3,68,127,0
3,72,127,0
3,75,127,0
3,77,127,0
3,70,127,0
3,74,127,0
3,72,127,0
3,75,127,0
3,68,127,0
3,72,127,0
3,65,127,0
3,68,127,0
3,70,127,0
3,71,127,0
3,79,127,0
3,75,127,0
3,72,127,0
3,70,127,7200
3,67,127,0
3,75,127,0
3,77,127,0
3,72,127,0
3,68,127,0
3,74,127,0
3,71,127,0
3,79,127,0
3,72,127,0
3,75,127,0
3,67,127,0
3,71,127,0
3,67,127,0
3,74,127,0
3,75,127,0
3,67,127,0
3,70,127,0
3,77,127,0
3,72,127,0
3,68,127,0
3,71,127,0
3,79,127,0
3,74,127,0
3,75,127,0
3,67,127,0
3,72,127,0
3,71,127,0
3,67,127,0
3,74,127,0
3,67,127,0
3,70,127,0
3,75,127,0
3,72,127,0
3,68,127,0
3,77,127,0
3,79,127,0
3,71,127,0
3,74,127,0
3,75,127,0
3,67,127,0
3,72,127,0
3,71,127,0
3,74,127,0
3,67,127,0
3,67,127,0
3,70,127,0
3,75,127,0
4,60,98,19128
4,60,109,372
4,60,98,156
4,60,104,372
4,60,95,156
4,60,95,856
4,62,104,368
4,59,109,140
4,55,120,248
4,55,114,356
4,53,104,988
4,55,114,156
4,55,114,3456
4,60,104,280
4,60,98,364
4,62,104,104
4,63,109,104
4,62,120,312
4,60,109,120
4,60,98,600
4,60,109,372
4,60,98,156
4,60,104,372
4,60,95,156
4,60,95,856
4,62,104,368
4,59,109,140
4,55,120,248
4,55,114,356
4,58,104,988
4,58,114,156
4,55,120,0
4,56,98,0
4,55,109,0
4,53,114,0
4,55,120,0
4,55,120,1920
4,60,104,356
4,60,98,364
4,62,104,104
4,63,109,104
4,62,120,312
4,60,109,200
4,63,109,420
4,63,109,180
4,63,109,100
4,63,114,356
4,65,109,296
4,63,114,364
4,62,98,280
4,62,120,204
4,60,104,1240
4,62,104,164
4,63,109,164
4,63,109,248
4,63,114,160
4,63,109,348
4,65,109,244
4,63,98,324
4,67,109,228
4,67,109,204
4,72,120,132
4,67,109,332
4,65,120,364
4,63,114,28
4,60,114,800
4,60,109,336
4,60,109,320
4,60,104,328
4,60,98,136
4,59,120,12
4,60,120,0
4,62,120,84
4,63,120,2400
4,63,124,228
4,63,120,168
4,63,120,148
4,63,120,216
4,65,120,40
4,67,124,16
4,68,124,16
4,67,124,44
4,60,104,1828
4,60,104,324
4,60,104,328
4,60,98,332
4,60,95,320
4,60,104,336
4,59,120,332
4,60,104,64
4,62,114,168
4,63,127,612
4,65,127,24
4,67,127,480
4,67,127,152
4,65,127,1920
4,63,127,0
4,65,127,80
4,63,127,240
4,68,120,680
4,65,120,0
4,65,120,304
4,68,120,0
4,67,104,84
4,63,104,0
4,65,109,128
4,68,109,0
4,63,98,108
4,67,98,0
4,60,109,92
4,68,109,0
4,67,109,92
4,55,109,0
4,60,98,592
4,60,109,372
4,60,98,156
4,60,104,372
4,60,95,156
4,60,95,856
4,62,104,368
4,59,109,140
4,55,120,248
4,55,114,356
4,53,104,988
4,55,114,156
4,60,104,3936
4,60,98,200
4,62,104,104
4,63,109,104
4,62,120,312
4,60,109,120
4,60,98,900
4,60,109,372
4,60,98,156
4,60,104,372
4,60,95,156
4,60,95,376
4,62,104,368
4,59,109,620
4,55,120,728
4,53,114,720
4,53,114,508
4,55,114,120
4,55,114,240
4,55,104,2400
4,60,104,364
4,60,98,364
4,62,104,104
4,63,109,104
4,62,120,312
4,60,109,280
4,63,109,420
4,63,109,180
4,63,109,100
4,63,114,356
4,65,109,296
4,63,114,364
4,62,98,280
4,62,120,204
4,60,104,1240
4,62,104,164
4,63,109,164
4,63,109,248
4,63,114,160
4,63,109,348
4,65,109,244
4,63,98,324
4,67,109,228
4,67,109,204
4,72,120,132
4,67,109,332
4,65,120,364
4,63,114,28
4,60,114,800
4,60,109,336
4,60,109,320
4,60,104,328
4,60,98,136
4,59,120,12
4,60,120,0
4,62,120,84
4,63,120,2400
4,63,124,228
4,63,120,168
4,63,120,148
4,63,120,216
4,65,120,40
4,67,124,16
4,68,124,16
4,67,124,44
4,60,104,1828
4,60,104,324
4,60,104,328
4,60,98,332
4,60,95,320
4,60,104,336
4,59,120,332
4,60,104,64
4,62,114,168
4,63,127,612
4,65,127,24
4,67,127,480
4,67,127,152
4,65,127,1920
4,63,127,0
4,65,127,80
4,63,127,240
4,68,120,680
4,65,120,0
4,68,120,304
4,65,120,0
4,63,104,84
4,67,104,0
4,65,109,128
4,68,109,0
4,63,98,108
4,67,98,0
4,68,109,92
4,60,109,0
4,55,109,92
4,67,109,0
4,60,98,15952
4,60,109,372
4,60,98,156
4,60,104,372
4,60,95,156
4,60,95,856
4,62,104,368
4,59,109,140
4,55,120,248
4,55,114,356
4,53,104,988
4,55,114,156
4,60,98,8160
4,60,109,372
4,60,98,156
4,60,104,372
4,60,95,156
4,60,95,856
4,62,104,368
4,62,109,140
4,62,120,248
4,62,114,356
4,60,104,508
4,63,114,636
4,63,124,4000
4,65,109,8
