track,note,velocity,time
1,36,108,1868
1,36,0,120
1,36,115,120
1,36,0,120
1,32,110,1560
1,32,0,120
1,32,125,120
1,32,0,120
1,36,107,1560
1,36,0,120
1,36,111,120
1,36,0,120
1,32,113,1560
1,32,0,120
1,32,112,120
1,32,0,120
1,36,105,1560
1,36,0,120
1,36,116,120
1,36,0,120
1,31,103,1080
1,31,0,240
1,32,109,240
1,32,0,240
1,31,107,1200
1,31,0,240
1,36,115,240
1,36,0,120
1,36,112,120
1,36,0,120
1,31,109,1080
1,31,0,240
1,32,108,240
1,32,0,240
1,32,114,720
1,32,0,40
1,44,107,80
1,44,0,40
1,33,125,80
1,33,0,120
1,31,110,120
1,31,0,120
1,31,108,120
1,31,0,120
1,36,107,120
1,36,0,120
1,36,119,120
1,36,0,120
1,31,127,1080
1,31,0,240
1,32,126,240
1,32,0,240
1,31,114,1200
1,31,0,240
1,36,106,240
1,36,0,120
1,36,119,120
1,36,0,120
1,31,113,1080
1,31,0,240
1,32,102,240
1,32,0,240
1,31,119,720
1,31,0,120
1,31,114,120
1,31,0,120
1,31,110,120
1,31,0,120
1,31,105,120
1,31,0,120
1,36,127,120
1,36,0,600
1,36,104,120
1,36,0,120
1,38,110,120
1,38,0,480
1,44,114,480
1,44,0,480
1,44,107,240
1,44,0,16
1,44,126,104
1,44,0,28
1,44,115,92
1,44,0,240
1,39,120,240
1,39,0,240
1,41,102,240
1,41,0,600
1,36,122,120
1,36,0,120
1,29,116,120
1,29,0,480
1,31,115,480
1,31,0,360
1,31,118,120
1,31,0,360
1,31,106,120
1,31,0,360
1,36,111,600
1,36,0,120
1,36,109,120
1,36,0,120
1,38,113,360
1,38,0,120
1,39,118,120
1,39,0,240
1,43,111,240
1,43,0,240
1,44,107,240
1,44,0,120
1,44,122,120
1,44,0,120
1,39,103,360
1,39,0,120
1,44,103,120
1,44,0,240
1,34,110,720
1,34,0,120
1,34,124,120
1,34,0,120
1,34,123,360
1,34,0,60
1,36,121,60
1,36,0,60
1,38,116,60
1,38,0,720
1,39,113,240
1,39,0,360
1,39,105,120
1,39,0,360
1,43,105,120
1,43,0,360
1,31,107,120
1,31,0,360
1,36,115,120
1,36,0,120
1,36,112,120
1,36,0,120
1,38,102,360
1,38,0,120
1,39,112,120
1,39,0,240
1,36,126,240
1,36,0,240
1,44,104,240
1,44,0,120
1,44,115,120
1,44,0,120
1,39,124,360
1,39,0,120
1,44,102,120
1,44,0,240
1,43,105,240
1,43,0,360
1,41,116,120
1,41,0,120
1,41,118,120
1,41,0,120
1,41,107,360
1,41,0,120
1,41,123,120
1,41,0,120
1,41,109,120
1,41,0,120
1,38,121,360
1,38,0,120
1,31,102,120
1,31,0,360
1,31,123,120
1,31,0,360
1,31,105,120
1,31,0,360
1,31,127,120
1,31,0,360
1,36,127,0
1,36,0,4
1,36,123,0
1,36,0,240
1,31,107,1200
1,31,0,240
1,32,115,240
1,32,0,240
1,31,119,1200
1,31,0,240
1,36,119,240
1,36,0,120
1,36,108,120
1,36,0,120
1,36,109,1440
1,36,0,120
1,44,114,240
1,44,0,120
1,44,107,120
1,44,0,120
1,43,102,600
1,43,0,120
1,43,102,120
1,43,0,120
1,43,126,120
1,43,0,120
1,36,115,120
1,36,0,120
1,36,127,120
1,36,0,120
1,31,118,1080
1,31,0,240
1,32,110,240
1,32,0,240
1,31,115,1200
1,31,0,240
1,36,125,240
1,36,0,120
1,36,108,120
1,36,0,120
1,31,118,1080
1,31,0,240
1,32,110,240
1,32,0,600
1,32,103,120
1,32,0,236
1,31,121,4
1,31,0,236
1,29,125,4
1,29,0,236
1,39,112,4
1,39,0,236
1,38,85,4
1,38,0,236
1,36,110,4
1,36,0,600
1,36,109,120
1,36,0,120
1,38,122,120
1,38,0,480
1,44,111,480
1,44,0,480
1,44,127,240
1,44,0,16
1,44,117,104
1,44,0,28
1,44,113,92
1,44,0,240
1,39,106,240
1,39,0,240
1,41,119,240
1,41,0,600
1,36,127,120
1,36,0,120
1,29,115,120
1,29,0,480
1,43,113,1920
1,43,0,4
1,36,104,0
1,36,0,120
1,36,127,120
1,36,0,120
1,38,112,360
1,38,0,120
1,39,107,120
1,39,0,240
1,43,104,240
1,43,0,240
1,44,119,240
1,44,0,120
1,44,105,120
1,44,0,120
1,39,122,360
1,39,0,120
1,44,109,120
1,44,0,240
1,34,125,720
1,34,0,120
1,34,107,120
1,34,0,120
1,34,116,360
1,34,0,60
1,36,102,60
1,36,0,60
1,38,121,60
1,38,0,720
1,39,114,240
1,39,0,360
1,39,103,120
1,39,0,360
1,43,104,120
1,43,0,360
1,31,123,120
1,31,0,360
1,36,110,120
1,36,0,120
1,36,126,120
1,36,0,120
1,38,123,360
1,38,0,120
1,39,103,120
1,39,0,240
1,36,118,240
1,36,0,240
1,44,122,240
1,44,0,120
1,44,115,120
1,44,0,120
1,39,123,360
1,39,0,120
1,44,108,120
1,44,0,240
1,43,117,240
1,43,0,360
1,41,103,120
1,41,0,120
1,41,121,120
1,41,0,120
1,41,119,360
1,41,0,120
1,41,108,120
1,41,0,120
1,41,105,120
1,41,0,120
1,38,118,360
1,38,0,120
1,31,102,120
1,31,0,360
1,31,105,120
1,31,0,360
1,31,127,120
1,31,0,360
1,31,110,120
1,31,0,360
1,36,101,120
1,36,0,240
1,36,113,240
1,36,0,240
1,36,98,240
1,36,0,240
1,36,114,240
1,36,0,240
1,36,109,240
1,36,0,120
1,36,107,120
1,36,0,120
1,32,127,1560
1,32,0,120
1,32,126,120
1,32,0,120
1,32,96,4
1,32,0,4
1,32,127,116
1,32,0,8
1,32,87,112
1,32,0,4
1,36,115,480
1,36,0,120
1,36,109,120
1,36,0,120
1,32,102,1560
1,32,0,120
1,32,102,120
1,32,0,120
1,36,105,9240
1,36,0,120
1,36,127,120
1,36,0,120
1,38,106,360
1,38,0,120
1,39,118,120
1,39,0,240
1,43,120,240
1,43,0,240
1,44,121,240
1,44,0,120
1,44,120,120
1,44,0,120
1,39,112,360
1,39,0,120
1,44,115,120
1,44,0,240
1,34,105,720
1,34,0,120
1,34,105,120
1,34,0,120
1,34,122,360
1,34,0,60
1,36,109,60
1,36,0,60
1,38,127,60
1,38,0,720
1,39,112,240
1,39,0,360
1,39,108,120
1,39,0,360
1,43,113,120
1,43,0,360
1,31,123,120
1,31,0,360
1,36,125,120
1,36,0,120
1,36,107,120
1,36,0,120
1,38,122,360
1,38,0,120
1,39,105,120
1,39,0,240
1,36,107,240
1,36,0,240
1,44,109,240
1,44,0,120
1,44,109,120
1,44,0,120
1,39,126,360
1,39,0,120
1,44,120,120
1,44,0,240
1,43,124,240
1,43,0,360
1,41,123,120
1,41,0,120
1,41,107,120
1,41,0,120
1,41,124,360
1,41,0,120
1,41,121,120
1,41,0,120
1,41,112,120
1,41,0,120
1,38,121,360
1,38,0,120
1,31,107,120
1,31,0,360
1,31,103,120
1,31,0,360
1,31,104,120
1,31,0,360
1,31,116,120
1,31,0,360
1,36,115,120
1,36,0,120
1,36,126,120
1,36,0,120
1,38,114,360
1,38,0,120
1,39,127,120
1,39,0,240
1,43,126,240
1,43,0,240
1,44,121,240
1,44,0,120
1,44,106,120
1,44,0,120
1,39,125,360
1,39,0,120
1,44,125,120
1,44,0,240
1,34,112,720
1,34,0,120
1,34,123,120
1,34,0,120
1,34,110,360
1,34,0,60
1,36,104,60
1,36,0,60
1,38,116,60
1,38,0,720
1,39,110,240
1,39,0,360
1,39,105,120
1,39,0,360
1,43,118,120
1,43,0,360
1,31,122,120
1,31,0,360
1,36,112,120
1,36,0,120
1,36,123,120
1,36,0,120
1,38,116,360
1,38,0,120
1,39,105,120
1,39,0,240
1,36,125,240
1,36,0,240
1,44,108,240
1,44,0,120
1,44,106,120
1,44,0,120
1,39,122,360
1,39,0,120
1,44,126,120
1,44,0,240
1,43,110,240
1,43,0,360
1,41,115,120
1,41,0,120
1,41,112,120
1,41,0,120
1,41,119,360
1,41,0,120
1,41,112,120
1,41,0,120
1,41,119,120
1,41,0,120
1,38,113,360
1,38,0,120
1,31,108,120
1,31,0,360
1,31,102,120
1,31,0,360
1,31,126,120
1,31,0,360
1,31,126,120
1,31,0,360
1,36,125,120
1,36,0,120
1,36,103,120
1,36,0,120
1,38,118,360
1,38,0,120
1,39,104,120
1,39,0,240
1,36,106,240
1,36,0,240
1,44,106,240
1,44,0,120
1,44,123,120
1,44,0,120
1,39,115,360
1,39,0,120
1,44,113,120
1,44,0,240
1,43,124,240
1,43,0,360
1,41,108,120
1,41,0,120
1,41,119,120
1,41,0,120
1,41,117,360
1,41,0,120
1,41,116,120
1,41,0,120
1,41,110,120
1,41,0,120
1,38,111,360
1,38,0,120
1,31,106,120
1,31,0,360
1,36,108,1560
1,36,0,360
2,60,124,1888
2,60,0,236
2,60,112,4
2,60,0,240
2,68,126,1440
2,68,0,236
2,68,107,4
2,68,0,240
2,60,113,1440
2,60,0,236
2,60,110,4
2,60,0,240
2,68,103,1440
2,68,0,236
2,68,120,4
2,68,0,240
2,60,111,1440
2,60,0,240
2,60,103,7440
2,60,0,240
2,60,123,7440
2,60,0,240
2,60,114,7440
2,60,0,240
2,60,125,7440
2,60,0,240
2,60,97,7440
2,60,0,240
2,60,102,1680
2,60,0,240
2,72,85,5400
2,72,0,120
2,72,70,240
2,72,0,60
2,79,96,0
2,79,0,24
2,79,81,0
2,79,0,120
2,79,71,120
2,79,0,120
2,79,85,120
2,79,0,120
2,60,115,120
2,60,0,240
2,60,121,7440
2,60,0,240
2,60,117,7440
2,60,0,240
2,60,103,7440
2,60,0,240
2,72,103,7440
2,72,0,240
2,72,102,240
2,72,0,240
2,72,93,240
2,72,0,240
2,72,112,240
2,72,0,240
2,60,119,240
2,60,0,120
2,60,114,120
2,60,0,120
2,68,103,1560
2,68,0,120
2,68,118,120
2,68,0,120
2,60,119,1560
2,60,0,120
2,60,108,120
2,60,0,120
2,68,110,1560
2,68,0,120
2,68,125,120
2,68,0,120
2,60,125,9240
2,60,0,240
2,60,117,7440
2,60,0,240
2,60,104,7440
2,60,0,240
2,60,124,7440
2,60,0,240
2,60,125,7440
2,60,0,240
2,60,115,7440
2,60,0,240
3,60,118,0
3,67,127,0
3,63,106,0
3,60,0,1920
3,67,0,0
3,63,0,0
3,68,126,0
3,60,116,0
3,63,123,0
3,68,0,960
3,60,0,0
3,63,0,0
3,65,83,0
3,59,105,0
3,67,127,0
3,62,116,0
3,65,0,960
3,59,0,0
3,67,0,0
3,62,0,0
3,60,103,0
3,67,116,0
3,63,118,0
3,60,0,1920
3,67,0,0
3,63,0,0
3,68,105,0
3,60,105,0
3,63,107,0
3,68,0,960
3,60,0,0
3,63,0,0
3,65,94,0
3,59,108,0
3,67,120,0
3,62,121,0
3,65,0,960
3,59,0,0
3,67,0,0
3,62,0,0
3,60,119,0
3,63,108,0
3,67,109,0
3,60,0,960
3,63,0,0
3,67,0,0
3,58,111,0
3,62,112,0
3,65,127,0
3,58,0,960
3,62,0,0
3,65,0,0
3,60,117,0
3,63,117,0
3,68,102,0
3,60,0,1440
3,63,0,0
3,68,0,0
3,58,97,0
3,67,116,0
3,63,111,0
3,58,0,480
3,67,0,0
3,63,0,0
3,65,127,0
3,68,103,0
3,60,125,0
3,63,113,0
3,65,0,1920
3,68,0,0
3,60,0,0
3,63,0,0
3,59,126,0
3,62,105,0
3,67,114,0
3,59,0,240
3,62,0,0
3,67,0,0
3,59,118,240
3,62,108,0
3,67,111,0
3,59,0,240
3,62,0,0
3,67,0,0
3,59,126,240
3,62,113,0
3,67,121,0
3,59,0,240
3,62,0,0
3,67,0,0
3,60,123,720
3,63,123,0
3,67,126,0
3,60,0,1920
3,63,0,0
3,67,0,0
3,60,119,0
3,63,102,0
3,68,125,0
3,60,0,1920
3,63,0,0
3,68,0,0
3,70,107,0
3,63,118,0
3,65,106,0
3,70,0,960
3,63,0,0
3,65,0,0
3,65,125,0
3,62,107,0
3,70,113,0
3,65,0,960
3,62,0,0
3,70,0,0
3,67,118,0
3,63,103,0
3,58,108,0
3,67,0,960
3,63,0,0
3,58,0,0
3,59,112,0
3,62,121,0
3,67,112,0
3,59,0,960
3,62,0,0
3,67,0,0
3,60,111,0
3,63,127,0
3,67,107,0
3,60,0,1920
3,63,0,0
3,67,0,0
3,60,127,0
3,63,116,0
3,68,125,0
3,60,0,1440
3,63,0,0
3,68,0,0
3,67,115,0
3,63,109,0
3,67,0,480
3,63,0,0
3,56,109,0
3,60,119,0
3,65,112,0
3,56,0,1920
3,60,0,0
3,65,0,0
3,67,109,0
3,62,126,0
3,59,117,0
3,67,0,240
3,62,0,0
3,59,0,0
3,67,119,240
3,62,110,0
3,59,124,0
3,67,0,240
3,62,0,0
3,59,0,0
3,67,119,240
3,62,117,0
3,59,118,0
3,67,0,240
3,62,0,0
3,59,0,0
3,67,118,240
3,62,113,0
3,59,105,0
3,67,0,240
3,62,0,0
3,59,0,0
3,60,116,240
3,67,102,0
3,63,111,0
3,60,0,1920
3,67,0,0
3,63,0,0
3,68,109,1920
3,60,105,0
3,63,107,0
3,68,0,960
3,60,0,0
3,63,0,0
3,65,65,0
3,59,117,0
3,67,114,0
3,62,120,0
3,65,0,960
3,59,0,0
3,67,0,0
3,62,0,0
3,60,126,0
3,67,111,0
3,63,123,0
3,60,0,1920
3,67,0,0
3,63,0,0
3,60,116,1920
3,67,108,0
3,63,107,0
3,60,0,1920
3,67,0,0
3,63,0,0
3,68,102,0
3,60,110,0
3,63,108,0
3,68,0,960
3,60,0,0
3,63,0,0
3,65,79,0
3,59,122,0
3,67,117,0
3,62,125,0
3,65,0,960
3,59,0,0
3,67,0,0
3,62,0,0
3,60,117,0
3,67,117,0
3,63,124,0
3,60,0,1920
3,67,0,0
3,63,0,0
3,68,106,0
3,60,114,0
3,63,106,0
3,68,0,960
3,60,0,0
3,63,0,0
3,65,83,0
3,59,106,0
3,67,121,0
3,62,114,0
3,65,0,960
3,59,0,0
3,67,0,0
3,62,0,0
3,60,104,0
3,63,102,0
3,67,102,0
3,60,0,960
3,63,0,0
3,67,0,0
3,58,103,0
3,62,105,0
3,65,121,0
3,58,0,960
3,62,0,0
3,65,0,0
3,60,106,0
3,63,118,0
3,68,105,0
3,60,0,1440
3,63,0,0
3,68,0,0
3,58,100,0
3,67,102,0
3,63,103,0
3,58,0,480
3,67,0,0
3,63,0,0
3,65,106,0
3,68,122,0
3,60,123,0
3,63,104,0
3,65,0,1920
3,68,0,0
3,60,0,0
3,63,0,0
3,60,122,1920
3,63,126,0
3,67,113,0
3,60,0,1920
3,63,0,0
3,67,0,0
3,60,121,0
3,63,115,0
3,68,127,0
3,60,0,1920
3,63,0,0
3,68,0,0
3,70,117,0
3,63,125,0
3,65,103,0
3,70,0,960
3,63,0,0
3,65,0,0
3,65,119,0
3,62,121,0
3,70,126,0
3,65,0,960
3,62,0,0
3,70,0,0
3,67,122,0
3,63,126,0
3,58,105,0
3,67,0,960
3,63,0,0
3,58,0,0
3,59,123,0
3,62,118,0
3,67,124,0
3,59,0,960
3,62,0,0
3,67,0,0
3,60,102,0
3,63,121,0
3,67,102,0
3,60,0,1920
3,63,0,0
3,67,0,0
3,60,123,0
3,63,115,0
3,68,107,0
3,60,0,1440
3,63,0,0
3,68,0,0
3,67,120,0
3,63,118,0
3,67,0,480
3,63,0,0
3,56,112,0
3,60,113,0
3,65,125,0
3,56,0,1920
3,60,0,0
3,65,0,0
3,67,114,0
3,62,111,0
3,59,124,0
3,67,0,240
3,62,0,0
3,59,0,0
3,67,113,240
3,62,114,0
3,59,110,0
3,67,0,240
3,62,0,0
3,59,0,0
3,67,107,240
3,62,110,0
3,59,120,0
3,67,0,240
3,62,0,0
3,59,0,0
3,67,111,240
3,62,104,0
3,59,123,0
3,67,0,240
3,62,0,0
3,59,0,0
3,67,105,9840
3,63,106,0
3,60,118,0
3,67,0,960
3,63,0,0
3,60,0,0
3,67,125,0
3,63,126,0
3,59,119,0
3,67,0,960
3,63,0,0
3,59,0,0
3,67,119,0
3,63,115,0
3,58,111,0
3,67,0,960
