track,note,velocity,time
1,46,45,384
1,46,0,160
1,46,45,32
1,46,0,160
1,46,45,32
1,46,0,160
1,46,45,32
1,46,0,160
1,46,45,32
1,46,0,160
1,46,45,32
1,46,0,160
1,46,45,32
1,46,0,160
1,46,45,32
1,46,0,160
1,46,45,32
1,46,0,160
1,46,45,32
1,46,0,160
1,46,45,32
1,46,0,160
1,46,45,32
1,46,0,160
1,46,45,32
1,46,0,160
1,46,45,32
1,46,0,160
1,46,45,32
1,46,0,160
1,46,45,32
1,46,0,160
1,46,45,32
1,46,0,160
1,46,45,32
1,46,0,160
1,46,45,32
1,46,0,160
1,46,45,32
1,46,0,160
1,46,45,32
1,46,0,160
1,46,45,32
1,46,0,160
1,46,45,32
1,46,0,160
1,46,45,32
1,46,0,160
1,46,45,32
1,46,0,160
1,46,45,32
1,46,0,160
1,46,45,32
1,46,0,160
1,46,45,32
1,46,0,160
1,46,45,32
1,46,0,160
1,46,45,32
1,46,0,160
1,46,45,32
1,46,0,160
1,46,45,32
1,46,0,160
1,46,45,32
1,46,0,160
1,46,45,32
1,46,0,160
1,46,45,32
1,46,0,160
1,46,45,32
1,46,0,160
1,46,45,32
1,46,0,160
1,46,45,32
1,46,0,160
1,46,45,32
1,46,0,160
1,46,45,32
1,46,0,160
1,46,45,32
1,46,0,160
1,46,45,32
1,46,0,160
1,46,45,32
1,46,0,160
1,46,45,32
1,46,0,160
1,46,45,32
1,46,0,160
1,46,45,32
1,46,0,160
1,46,45,32
1,46,0,160
1,46,45,32
1,46,0,160
1,46,45,32
1,46,0,160
1,46,48,32
1,46,0,160
1,46,52,32
1,46,0,160
1,46,56,32
1,46,0,160
1,46,60,32
1,46,0,160
1,46,60,32
1,46,0,160
1,46,60,32
1,46,0,160
1,46,60,32
1,46,0,160
1,46,60,32
1,46,0,160
1,46,60,32
1,46,0,160
1,46,60,32
1,46,0,160
1,46,60,32
1,46,0,160
1,46,60,32
1,46,0,160
1,46,60,32
1,46,0,160
1,46,60,32
1,46,0,160
1,46,60,32
1,46,0,160
1,46,60,32
1,46,0,160
1,46,60,32
1,46,0,160
1,46,60,32
1,46,0,160
1,46,60,32
1,46,0,160
1,46,60,32
1,46,0,160
1,46,60,32
1,46,0,160
1,46,60,32
1,46,0,160
1,46,60,32
1,46,0,160
1,46,60,32
1,46,0,160
1,46,60,32
1,46,0,160
1,46,60,32
1,46,0,160
1,46,60,32
1,46,0,160
1,46,60,32
1,46,0,160
1,46,60,32
1,46,0,160
1,46,60,32
1,46,0,160
1,46,60,32
1,46,0,160
1,46,60,32
1,46,0,160
1,46,60,32
1,46,0,160
1,46,60,32
1,46,0,160
1,46,60,32
1,46,0,160
1,46,45,32
1,46,0,160
1,46,45,32
1,46,0,160
1,46,45,32
1,46,0,160
1,46,45,32
1,46,0,160
1,46,45,32
1,46,0,160
1,46,45,32
1,46,0,160
1,46,45,32
1,46,0,160
1,46,45,32
1,46,0,160
1,46,45,32
1,46,0,160
1,46,45,32
1,46,0,160
1,46,45,32
1,46,0,160
1,46,45,32
1,46,0,160
1,46,45,32
1,46,0,160
1,46,45,32
1,46,0,160
1,46,45,32
1,46,0,160
1,46,45,32
1,46,0,160
1,46,45,32
1,46,0,160
1,46,45,32
1,46,0,160
1,46,45,32
1,46,0,160
1,46,45,32
1,46,0,160
1,46,45,32
1,46,0,160
1,46,45,32
1,46,0,160
1,46,45,32
1,46,0,160
1,46,45,32
1,46,0,160
1,46,45,32
1,46,0,160
1,46,45,32
1,46,0,160
1,46,45,32
1,46,0,160
1,46,45,32
1,46,0,160
1,46,45,32
1,46,0,160
1,46,45,32
1,46,0,160
1,46,45,32
1,46,0,160
1,46,45,32
1,46,0,160
1,46,45,32
1,46,0,160
1,46,45,32
1,46,0,160
1,46,45,32
1,46,0,160
1,46,45,32
1,46,0,160
1,46,45,32
1,46,0,160
1,46,45,32
1,46,0,160
1,46,45,32
1,46,0,160
1,46,45,32
1,46,0,160
1,46,45,32
1,46,0,160
1,46,45,32
1,46,0,160
1,46,45,32
1,46,0,160
1,46,45,32
1,46,0,160
1,46,45,32
1,46,0,160
1,46,45,32
1,46,0,160
1,46,45,32
1,46,0,160
1,46,45,32
1,46,0,160
1,46,45,32
1,46,0,160
1,46,48,32
1,46,0,160
1,46,52,32
1,46,0,160
1,46,56,32
1,46,0,160
1,46,60,32
1,46,0,160
1,46,60,32
1,46,0,160
1,46,60,32
1,46,0,160
1,46,60,32
1,46,0,160
1,46,60,32
1,46,0,160
1,46,60,32
1,46,0,160
1,46,60,32
1,46,0,160
1,46,60,32
1,46,0,160
1,46,60,32
1,46,0,160
1,46,60,32
1,46,0,160
1,46,60,32
1,46,0,160
1,46,60,32
1,46,0,160
1,46,60,32
1,46,0,160
1,46,60,32
1,46,0,160
1,46,60,32
1,46,0,160
1,46,60,32
1,46,0,160
1,46,60,32
1,46,0,160
1,46,60,32
1,46,0,160
1,46,60,32
1,46,0,160
1,46,60,32
1,46,0,160
1,46,60,32
1,46,0,160
1,46,60,32
1,46,0,160
1,46,60,32
1,46,0,160
1,46,60,32
1,46,0,160
1,46,60,32
1,46,0,160
1,46,60,32
1,46,0,160
1,46,60,32
1,46,0,160
1,46,60,32
1,46,0,160
1,46,60,32
1,46,0,160
1,46,60,32
1,46,0,160
1,46,60,32
1,46,0,160
1,46,60,32
1,46,0,160
1,46,60,32
1,46,0,160
1,46,60,32
1,46,0,160
1,46,60,32
1,46,0,160
1,46,60,32
1,46,0,160
1,46,60,32
1,46,0,160
1,46,60,32
1,46,0,160
1,46,60,32
1,46,0,160
1,46,60,32
1,46,0,160
1,46,60,32
1,46,0,160
1,46,60,32
1,46,0,160
1,46,60,32
1,46,0,160
1,46,60,32
1,46,0,160
1,46,60,32
1,46,0,160
1,46,60,32
1,46,0,160
1,46,60,32
1,46,0,160
1,46,60,32
1,46,0,160
1,46,60,32
1,46,0,160
1,46,60,32
1,46,0,160
1,46,60,32
1,46,0,160
1,46,60,32
1,46,0,160
1,46,60,32
1,46,0,160
1,46,60,32
1,46,0,160
1,46,60,32
1,46,0,160
1,46,60,32
1,46,0,160
1,46,60,32
1,46,0,160
1,46,60,32
1,46,0,160
1,46,60,32
1,46,0,160
1,46,60,32
1,46,0,160
1,46,60,32
1,46,0,160
1,46,60,608
1,46,0,160
1,46,60,32
1,46,0,160
1,46,60,32
1,46,0,160
1,46,60,32
1,46,0,160
1,46,60,32
1,46,0,160
1,46,60,32
1,46,0,160
1,46,60,32
1,46,0,160
1,46,60,32
1,46,0,160
1,46,60,32
1,46,0,160
1,46,60,32
1,46,0,160
1,46,60,32
1,46,0,160
1,46,60,32
1,46,0,160
1,46,60,32
1,46,0,160
1,46,60,32
1,46,0,160
1,46,60,32
1,46,0,160
1,46,60,32
1,46,0,160
1,46,60,32
1,46,0,160
1,46,60,32
1,46,0,160
1,46,60,32
1,46,0,160
1,46,60,32
1,46,0,160
1,46,60,32
1,46,0,160
1,46,60,32
1,46,0,160
1,46,60,32
1,46,0,160
1,46,60,32
1,46,0,160
1,46,60,32
1,46,0,160
1,46,60,32
1,46,0,160
1,46,60,32
1,46,0,160
1,46,60,32
1,46,0,160
1,46,60,32
1,46,0,160
1,46,59,32
1,46,0,160
1,46,58,32
1,46,0,160
1,46,57,32
1,46,0,160
1,46,56,32
1,46,0,160
1,46,55,32
1,46,0,160
1,46,54,32
1,46,0,160
1,46,53,32
1,46,0,160
1,46,52,32
1,46,0,160
1,46,51,32
1,46,0,160
1,46,49,32
1,46,0,160
1,46,47,32
1,46,0,160
1,46,45,32
1,46,0,160
1,46,44,32
1,46,0,160
1,46,42,32
1,46,0,160
1,46,40,32
1,46,0,160
1,46,38,32
1,46,0,160
1,46,36,32
1,46,0,160
1,46,34,32
1,46,0,160
1,46,32,32
1,46,0,160
1,46,30,32
1,46,0,160
1,46,28,32
1,46,0,160
1,46,26,32
1,46,0,160
1,46,24,32
1,46,0,160
1,46,22,32
1,46,0,160
1,46,19,32
1,46,0,160
1,46,16,32
1,46,0,160
1,46,13,32
1,46,0,160
1,46,10,32
1,46,0,160
1,46,10,32
1,46,0,160
1,46,10,32
1,46,0,160
1,46,10,32
1,46,0,160
1,46,10,32
1,46,0,160
1,46,10,32
1,46,0,160
1,46,10,32
1,46,0,160
1,46,10,32
1,46,0,160
2,36,45,384
2,36,0,160
2,38,45,32
2,38,0,160
2,36,45,32
2,36,0,160
2,38,45,32
2,38,0,160
2,36,45,32
2,36,0,160
2,38,45,32
2,38,0,160
2,36,45,32
2,36,0,94
2,36,45,2
2,36,0,94
2,38,45,2
2,38,0,160
2,36,45,32
2,36,0,160
2,38,45,32
2,38,0,160
2,36,45,32
2,36,0,160
2,38,45,32
2,38,0,160
2,36,45,32
2,36,0,160
2,38,45,32
2,38,0,160
2,36,45,32
2,36,0,94
2,36,45,2
2,36,0,94
2,38,45,2
2,38,0,160
2,36,45,32
2,36,0,160
2,38,45,32
2,38,0,160
2,36,45,32
2,36,0,160
2,38,45,32
2,38,0,160
2,36,45,32
2,36,0,160
2,38,45,32
2,38,0,160
2,36,45,32
2,36,0,94
2,36,45,2
2,36,0,94
2,38,45,2
2,38,0,160
2,36,45,32
2,36,0,160
2,38,45,32
2,38,0,160
2,36,45,32
2,36,0,160
2,38,45,32
2,38,0,160
2,36,45,32
2,36,0,160
2,38,45,32
2,38,0,160
2,36,45,32
2,36,0,94
2,36,45,2
2,36,0,94
2,38,45,2
2,38,0,160
2,36,45,32
2,36,0,160
2,38,45,32
2,38,0,160
2,36,45,32
2,36,0,160
2,38,45,32
2,38,0,160
2,36,45,32
2,36,0,160
2,38,45,32
2,38,0,160
2,36,45,32
2,36,0,94
2,36,45,2
2,36,0,94
2,38,45,2
2,38,0,160
2,36,45,32
2,36,0,160
2,38,45,32
2,38,0,160
2,36,45,32
2,36,0,160
2,38,45,32
2,38,0,160
2,36,45,32
2,36,0,160
2,38,45,32
2,38,0,160
2,36,45,32
2,36,0,94
2,36,45,2
2,36,0,94
2,38,45,2
2,38,0,160
2,36,45,32
2,36,0,160
2,38,48,32
2,38,0,160
2,36,52,32
2,36,0,160
2,38,56,32
2,38,0,160
2,36,60,32
2,36,0,160
2,38,60,32
2,38,0,160
2,36,60,32
2,36,0,94
2,36,60,2
2,36,0,94
2,38,60,2
2,38,0,160
2,36,60,32
2,36,0,160
2,38,60,32
2,38,0,160
2,36,60,32
2,36,0,160
2,38,60,32
2,38,0,160
2,36,60,32
2,36,0,160
2,38,60,32
2,38,0,160
2,36,60,32
2,36,0,94
2,36,60,2
2,36,0,94
2,38,60,2
2,38,0,160
2,36,60,32
2,36,0,160
2,38,60,32
2,38,0,160
2,36,60,32
2,36,0,160
2,38,60,32
2,38,0,160
2,36,60,32
2,36,0,160
2,38,60,32
2,38,0,160
2,36,60,32
2,36,0,94
2,36,60,2
2,36,0,94
2,38,60,2
2,38,0,160
2,36,60,32
2,36,0,160
2,38,60,32
2,38,0,160
2,36,60,32
2,36,0,160
2,38,60,32
2,38,0,160
2,36,60,32
2,36,0,160
2,38,60,32
2,38,0,160
2,36,60,32
2,36,0,94
2,36,60,2
2,36,0,94
2,38,60,2
2,38,0,160
2,36,60,32
2,36,0,160
2,38,60,32
2,38,0,160
2,36,60,32
2,36,0,160
2,38,60,32
2,38,0,160
2,36,45,32
2,36,0,160
2,38,45,32
2,38,0,160
2,36,45,32
2,36,0,160
2,38,45,32
2,38,0,160
2,36,45,32
2,36,0,160
2,38,45,32
2,38,0,160
2,36,45,32
2,36,0,94
2,36,45,2
2,36,0,94
2,38,45,2
2,38,0,160
2,36,45,32
2,36,0,160
2,38,45,32
2,38,0,160
2,36,45,32
2,36,0,160
2,38,45,32
2,38,0,160
2,36,45,32
2,36,0,160
2,38,45,32
2,38,0,160
2,36,45,32
2,36,0,94
2,36,45,2
2,36,0,94
2,38,45,2
2,38,0,160
2,36,45,32
2,36,0,160
2,38,45,32
2,38,0,160
2,36,45,32
2,36,0,160
2,38,45,32
2,38,0,160
2,36,45,32
2,36,0,160
2,38,45,32
2,38,0,160
2,36,45,32
2,36,0,94
2,36,45,2
2,36,0,94
2,38,45,2
2,38,0,160
2,36,45,32
2,36,0,160
2,38,45,32
2,38,0,160
2,36,45,32
2,36,0,160
2,38,45,32
2,38,0,160
2,36,45,32
2,36,0,160
2,38,45,32
2,38,0,160
2,36,45,32
2,36,0,94
2,36,45,2
2,36,0,94
2,38,45,2
2,38,0,160
2,36,45,32
2,36,0,160
2,38,45,32
2,38,0,160
2,36,45,32
2,36,0,160
2,38,45,32
2,38,0,160
2,36,45,32
2,36,0,160
2,38,45,32
2,38,0,160
2,36,45,32
2,36,0,94
2,36,45,2
2,36,0,94
2,38,45,2
2,38,0,160
2,36,45,32
2,36,0,160
2,38,45,32
2,38,0,160
2,36,45,32
2,36,0,160
2,38,45,32
2,38,0,160
2,36,45,32
2,36,0,160
2,38,45,32
2,38,0,160
2,36,45,32
2,36,0,94
2,36,45,2
2,36,0,94
2,38,45,2
2,38,0,160
2,36,45,32
2,36,0,160
2,38,48,32
2,38,0,160
2,36,52,32
2,36,0,160
2,38,56,32
2,38,0,160
2,36,60,32
2,36,0,160
2,38,60,32
2,38,0,160
2,36,60,32
2,36,0,94
2,36,60,2
2,36,0,94
2,38,60,2
2,38,0,160
2,36,60,32
2,36,0,160
2,38,60,32
2,38,0,160
2,36,60,32
2,36,0,160
2,38,60,32
2,38,0,160
2,36,60,32
2,36,0,160
2,38,60,32
2,38,0,160
2,36,60,32
2,36,0,94
2,36,60,2
2,36,0,94
2,38,60,2
2,38,0,160
2,36,60,32
2,36,0,160
2,38,60,32
2,38,0,160
2,36,60,32
2,36,0,160
2,38,60,32
2,38,0,160
2,36,60,32
2,36,0,160
2,38,60,32
2,38,0,160
2,36,60,32
2,36,0,94
2,36,60,2
2,36,0,94
2,38,60,2
2,38,0,160
2,36,60,32
2,36,0,160
2,38,60,32
2,38,0,160
2,36,60,32
2,36,0,160
2,38,60,32
2,38,0,160
2,36,60,32
2,36,0,160
2,38,60,32
2,38,0,160
2,36,60,32
2,36,0,94
2,36,60,2
2,36,0,94
2,38,60,2
2,38,0,160
2,36,60,32
2,36,0,160
2,38,60,32
2,38,0,160
2,36,60,32
2,36,0,94
2,36,60,2
2,36,0,94
2,38,60,2
2,38,0,160
2,36,60,32
2,36,0,160
2,38,60,32
2,38,0,160
2,36,60,32
2,36,0,160
2,38,60,32
2,38,0,160
2,36,60,32
2,36,0,160
2,38,60,32
2,38,0,160
2,36,60,32
2,36,0,94
2,36,60,2
2,36,0,94
2,38,60,2
2,38,0,160
2,36,60,32
2,36,0,160
2,38,60,32
2,38,0,160
2,36,60,32
2,36,0,160
2,38,60,32
2,38,0,160
2,36,60,32
2,36,0,160
2,38,60,32
2,38,0,160
2,36,60,32
2,36,0,94
2,36,60,2
2,36,0,94
2,38,60,2
2,38,0,160
2,36,60,32
2,36,0,160
2,38,60,32
2,38,0,160
2,36,60,32
2,36,0,160
2,38,60,32
2,38,0,160
2,36,60,32
2,36,0,160
2,38,60,32
2,38,0,160
2,36,60,32
2,36,0,94
2,36,60,2
2,36,0,94
2,38,60,2
2,38,0,160
2,36,60,32
2,36,0,160
2,38,60,32
2,38,0,160
2,36,60,32
2,36,0,160
2,38,60,32
2,38,0,160
2,36,60,32
2,36,0,160
2,36,60,608
2,36,0,160
2,38,60,32
2,38,0,160
2,36,60,32
2,36,0,160
2,38,60,32
2,38,0,160
2,36,60,32
2,36,0,160
2,38,60,32
2,38,0,160
2,36,60,32
2,36,0,94
2,36,60,2
2,36,0,94
2,38,60,2
2,38,0,160
2,36,60,32
2,36,0,160
2,38,60,32
2,38,0,160
2,36,60,32
2,36,0,160
2,38,60,32
2,38,0,160
2,36,60,32
2,36,0,160
2,38,60,32
2,38,0,160
2,36,60,32
2,36,0,94
2,36,60,2
2,36,0,94
2,38,60,2
2,38,0,160
