track,note,velocity,time
0,46,60,0
0,54,60,0
0,56,60,0
0,36,60,0
0,46,0,46
0,54,0,0
0,56,0,0
0,36,0,0
0,54,60,2
0,42,60,0
0,54,0,46
0,46,60,2
0,54,60,0
0,56,60,0
0,46,0,46
0,54,0,0
0,56,0,0
0,42,0,0
0,54,60,2
0,42,60,0
0,54,0,46
0,42,0,0
0,54,60,2
0,56,60,0
0,40,60,0
0,42,60,0
0,40,0,46
0,42,0,0
0,42,60,2
0,54,0,46
0,56,0,0
0,42,0,0
0,54,60,2
0,36,60,0
0,42,60,0
0,54,0,46
0,36,0,0
0,42,0,0
0,54,60,2
0,56,60,0
0,42,60,0
0,54,0,46
0,56,0,0
0,42,0,0
0,54,60,2
0,42,60,0
0,54,0,46
0,42,0,0
0,46,60,2
0,54,60,0
0,56,60,0
0,36,60,0
0,46,0,46
0,54,0,0
0,56,0,0
0,36,0,0
0,54,60,2
0,56,60,0
0,36,60,0
0,42,60,0
0,54,0,46
0,56,0,0
0,36,0,0
0,42,0,0
0,56,60,2
0,36,60,0
0,42,60,0
0,56,0,46
0,36,0,0
0,42,0,0
0,46,60,2
0,54,60,0
0,56,60,0
0,40,60,0
0,46,0,46
0,54,0,0
0,56,0,0
0,40,0,0
0,54,60,2
0,42,60,0
0,54,0,46
0,42,0,0
0,54,60,2
0,56,60,0
0,36,60,0
0,42,60,0
0,54,0,46
0,56,0,0
0,36,0,0
0,42,0,0
0,54,60,2
0,42,60,0
0,54,0,46
0,42,0,0
0,46,60,2
0,54,60,0
0,56,60,0
0,36,60,0
0,58,75,0
0,62,75,0
0,65,75,0
0,46,75,0
0,58,75,0
0,62,75,0
0,65,75,0
0,46,75,0
0,46,0,46
0,54,0,0
0,56,0,0
0,36,0,0
0,54,60,2
0,42,60,0
0,54,0,46
0,46,60,2
0,54,60,0
0,56,60,0
0,46,0,46
0,54,0,0
0,56,0,0
0,42,0,0
0,54,60,2
0,42,60,0
0,54,0,46
0,42,0,0
0,54,60,2
0,56,60,0
0,40,60,0
0,42,60,0
0,40,0,46
0,42,0,0
0,42,60,2
0,58,0,16
0,62,0,0
0,65,0,0
0,58,0,0
0,62,0,0
0,65,0,0
0,54,0,30
0,56,0,0
0,42,0,0
0,54,60,2
0,36,60,0
0,42,60,0
0,65,75,0
0,65,75,0
0,54,0,46
0,36,0,0
0,42,0,0
0,54,60,2
0,56,60,0
0,42,60,0
0,54,0,46
0,56,0,0
0,42,0,0
0,65,0,0
0,65,0,0
0,54,60,2
0,42,60,0
0,74,75,0
0,74,75,0
0,54,0,46
0,42,0,0
0,46,60,2
0,54,60,0
0,56,60,0
0,36,60,0
0,46,0,46
0,54,0,0
0,56,0,0
0,36,0,0
0,74,0,0
0,74,0,0
0,54,60,2
0,56,60,0
0,36,60,0
0,42,60,0
0,75,75,0
0,75,75,0
0,54,0,46
0,56,0,0
0,36,0,0
0,42,0,0
0,56,60,2
0,36,60,0
0,42,60,0
0,56,0,46
0,36,0,0
0,42,0,0
0,75,0,0
0,75,0,0
0,46,60,2
0,54,60,0
0,56,60,0
0,40,60,0
0,77,75,0
0,77,75,0
0,46,0,46
0,54,0,0
0,56,0,0
0,40,0,0
0,54,60,2
0,42,60,0
0,54,0,46
0,42,0,0
0,77,0,0
0,77,0,0
0,54,60,2
0,56,60,0
0,36,60,0
0,42,60,0
0,65,75,0
0,69,75,0
0,72,75,0
0,65,75,0
0,69,75,0
0,72,75,0
0,54,0,46
0,56,0,0
0,36,0,0
0,42,0,0
0,46,0,2
0,46,0,0
0,54,60,0
0,42,60,0
0,54,0,46
0,42,0,0
0,46,60,2
0,54,60,0
0,56,60,0
0,36,60,0
0,45,75,0
0,45,75,0
0,46,0,46
0,54,0,0
0,56,0,0
0,36,0,0
0,54,60,2
0,42,60,0
0,54,0,46
0,46,60,2
0,54,60,0
0,56,60,0
0,46,0,46
0,54,0,0
0,56,0,0
0,42,0,0
0,54,60,2
0,42,60,0
0,54,0,46
0,42,0,0
0,54,60,2
0,56,60,0
0,40,60,0
0,42,60,0
0,40,0,46
0,42,0,0
0,42,60,2
0,65,0,16
0,69,0,0
0,72,0,0
0,65,0,0
0,69,0,0
0,72,0,0
0,54,0,30
0,56,0,0
0,42,0,0
0,54,60,2
0,36,60,0
0,42,60,0
0,65,75,0
0,65,75,0
0,54,0,46
0,36,0,0
0,42,0,0
0,54,60,2
0,56,60,0
0,42,60,0
0,54,0,46
0,56,0,0
0,42,0,0
0,65,0,0
0,65,0,0
0,54,60,2
0,42,60,0
0,72,75,0
0,72,75,0
0,54,0,46
0,42,0,0
0,46,60,2
0,54,60,0
0,56,60,0
0,36,60,0
0,46,0,46
0,54,0,0
0,56,0,0
0,36,0,0
0,72,0,0
0,72,0,0
0,54,60,2
0,56,60,0
0,36,60,0
0,42,60,0
0,74,75,0
0,74,75,0
0,54,0,46
0,56,0,0
0,36,0,0
0,42,0,0
0,56,60,2
0,36,60,0
0,42,60,0
0,56,0,46
0,36,0,0
0,42,0,0
0,74,0,0
0,74,0,0
0,46,60,2
0,54,60,0
0,56,60,0
0,40,60,0
0,75,75,0
0,75,75,0
0,46,0,46
0,54,0,0
0,56,0,0
0,40,0,0
0,54,60,2
0,42,60,0
0,54,0,46
0,42,0,0
0,75,0,0
0,75,0,0
0,54,60,2
0,56,60,0
0,36,60,0
0,42,60,0
0,62,75,0
0,65,75,0
0,70,75,0
0,62,75,0
0,65,75,0
0,70,75,0
0,54,0,46
0,56,0,0
0,36,0,0
0,42,0,0
0,45,0,2
0,45,0,0
0,54,60,0
0,42,60,0
0,54,0,46
0,42,0,0
0,46,60,2
0,54,60,0
0,56,60,0
0,36,60,0
0,43,75,0
0,43,75,0
0,46,0,46
0,54,0,0
0,56,0,0
0,36,0,0
0,54,60,2
0,42,60,0
0,54,0,46
0,46,60,2
0,54,60,0
0,56,60,0
0,46,0,46
0,54,0,0
0,56,0,0
0,42,0,0
0,54,60,2
0,42,60,0
0,54,0,46
0,42,0,0
0,54,60,2
0,56,60,0
0,40,60,0
0,42,60,0
0,40,0,46
0,42,0,0
0,42,60,2
0,54,0,46
0,56,0,0
0,42,0,0
0,54,60,2
0,36,60,0
0,42,60,0
0,54,0,46
0,36,0,0
0,42,0,0
0,54,60,2
0,56,60,0
0,42,60,0
0,54,0,46
0,56,0,0
0,42,0,0
0,54,60,2
0,42,60,0
0,54,0,46
0,42,0,0
0,46,60,2
0,54,60,0
0,56,60,0
0,36,60,0
0,46,0,46
0,54,0,0
0,56,0,0
0,36,0,0
0,54,60,2
0,56,60,0
0,36,60,0
0,42,60,0
0,54,0,46
0,56,0,0
0,36,0,0
0,42,0,0
0,62,0,2
0,65,0,0
0,70,0,0
0,62,0,0
0,65,0,0
0,70,0,0
0,56,60,0
0,36,60,0
0,42,60,0
0,56,0,46
0,36,0,0
0,42,0,0
0,46,60,2
0,54,60,0
0,56,60,0
0,40,60,0
0,70,75,0
0,70,45,0
0,46,0,46
0,54,0,0
0,56,0,0
0,40,0,0
0,54,60,2
0,42,60,0
0,54,0,46
0,42,0,0
0,70,0,0
0,70,0,0
0,54,60,2
0,56,60,0
0,36,60,0
0,42,60,0
0,72,75,0
0,72,45,0
0,54,0,46
0,56,0,0
0,36,0,0
0,42,0,0
0,43,0,2
0,43,0,0
0,54,60,0
0,42,60,0
0,54,0,46
0,42,0,0
0,72,0,0
0,72,0,0
0,46,60,2
0,54,60,0
0,56,60,0
0,36,60,0
0,65,75,0
0,70,75,0
0,74,75,0
0,48,75,0
0,65,45,0
0,70,45,0
0,74,45,0
0,48,75,0
0,46,0,46
0,54,0,0
0,56,0,0
0,36,0,0
0,54,60,2
0,42,60,0
0,54,0,46
0,65,0,0
0,70,0,0
0,74,0,0
0,65,0,0
0,70,0,0
0,74,0,0
0,46,60,2
0,54,60,0
0,56,60,0
0,75,75,0
0,75,45,0
0,46,0,46
0,54,0,0
0,56,0,0
0,42,0,0
0,54,60,2
0,42,60,0
0,54,0,46
0,42,0,0
0,75,0,0
0,75,0,0
0,54,60,2
0,56,60,0
0,40,60,0
0,42,60,0
0,74,75,0
0,74,45,0
0,40,0,46
0,42,0,0
0,42,60,2
0,54,0,46
0,56,0,0
0,42,0,0
0,74,0,0
0,74,0,0
0,54,60,2
0,36,60,0
0,42,60,0
0,63,75,0
0,65,75,0
0,70,75,0
0,72,75,0
0,63,45,0
0,65,45,0
0,70,45,0
0,72,45,0
0,54,0,46
0,36,0,0
0,42,0,0
0,54,60,2
0,56,60,0
0,42,60,0
0,48,0,0
0,48,0,0
0,54,0,46
0,56,0,0
0,42,0,0
0,54,60,2
0,42,60,0
0,41,75,0
0,41,75,0
0,54,0,46
0,42,0,0
0,46,60,2
0,54,60,0
0,56,60,0
0,36,60,0
0,46,0,46
0,54,0,0
0,56,0,0
0,36,0,0
0,54,60,2
0,56,60,0
0,36,60,0
0,42,60,0
0,54,0,46
0,56,0,0
0,36,0,0
0,42,0,0
0,56,60,2
0,36,60,0
0,42,60,0
0,41,0,16
0,41,0,0
0,56,0,30
0,36,0,0
0,42,0,0
0,46,60,2
0,54,60,0
0,56,60,0
0,40,60,0
0,41,75,0
0,41,75,0
0,46,0,46
0,54,0,0
0,56,0,0
0,40,0,0
0,54,60,2
0,42,60,0
0,54,0,46
0,42,0,0
0,54,60,2
0,56,60,0
0,36,60,0
0,42,60,0
0,54,0,46
0,56,0,0
0,36,0,0
0,42,0,0
0,54,60,2
0,42,60,0
0,63,0,0
0,65,0,0
0,70,0,0
0,72,0,0
0,63,0,0
0,65,0,0
0,70,0,0
0,72,0,0
0,41,0,16
0,41,0,0
0,54,0,30
0,42,0,0
0,46,60,2
0,54,60,0
0,56,60,0
0,36,60,0
0,62,75,0
0,51,75,0
0,58,75,0
0,62,75,0
0,41,75,0
0,51,60,0
0,58,60,0
0,62,60,0
0,41,75,0
0,46,0,46
0,54,0,0
0,56,0,0
0,36,0,0
0,54,60,2
0,42,60,0
0,54,0,46
0,62,0,0
0,62,0,0
0,62,0,0
0,46,60,2
0,54,60,0
0,56,60,0
0,60,75,0
0,60,75,0
0,60,60,0
0,46,0,46
0,54,0,0
0,56,0,0
0,42,0,0
0,54,60,2
0,42,60,0
0,41,0,16
0,41,0,0
0,54,0,30
0,42,0,0
0,60,0,0
0,60,0,0
0,60,0,0
0,54,60,2
0,56,60,0
0,40,60,0
0,42,60,0
0,62,75,0
0,62,75,0
0,62,60,0
0,40,0,46
0,42,0,0
0,42,60,2
0,54,0,46
0,56,0,0
0,42,0,0
0,62,0,0
0,62,0,0
0,62,0,0
0,54,60,2
0,36,60,0
0,42,60,0
0,60,75,0
0,60,75,0
0,60,60,0
0,54,0,46
0,36,0,0
0,42,0,0
0,54,60,2
0,56,60,0
0,42,60,0
0,51,0,0
0,58,0,0
0,51,0,0
0,58,0,0
0,54,0,46
0,56,0,0
0,42,0,0
0,60,0,0
0,60,0,0
0,60,0,0
0,54,60,2
0,42,60,0
0,62,75,0
0,62,75,0
0,62,60,0
0,54,0,46
0,42,0,0
0,46,60,2
0,54,60,0
0,56,60,0
0,36,60,0
0,46,0,46
0,54,0,0
0,56,0,0
0,36,0,0
0,62,0,0
0,62,0,0
0,62,0,0
0,54,60,2
0,56,60,0
0,36,60,0
0,42,60,0
0,60,75,0
0,60,75,0
0,60,60,0
0,54,0,46
0,56,0,0
0,36,0,0
0,42,0,0
0,56,60,2
0,36,60,0
0,42,60,0
0,56,0,46
0,36,0,0
0,42,0,0
0,60,0,0
0,60,0,0
0,60,0,0
0,46,60,2
0,54,60,0
0,56,60,0
0,40,60,0
0,58,75,0
0,58,75,0
0,58,60,0
0,46,0,46
0,54,0,0
0,56,0,0
0,40,0,0
0,54,60,2
0,42,60,0
0,54,0,46
0,42,0,0
0,58,0,0
0,58,0,0
0,58,0,0
0,54,60,2
0,56,60,0
0,36,60,0
0,42,60,0
0,62,75,0
0,53,75,0
0,58,75,0
0,62,75,0
0,53,60,0
0,58,60,0
0,62,60,0
0,54,0,46
0,56,0,0
0,36,0,0
0,42,0,0
0,54,60,2
0,42,60,0
0,54,0,46
0,42,0,0
0,46,60,2
0,54,60,0
0,56,60,0
0,36,60,0
0,46,75,0
0,46,75,0
0,46,0,46
0,54,0,0
0,56,0,0
0,36,0,0
0,54,60,2
0,42,60,0
0,54,0,46
0,62,0,0
0,53,0,0
0,58,0,0
0,62,0,0
0,53,0,0
0,58,0,0
0,62,0,0
0,46,60,2
0,54,60,0
0,56,60,0
0,62,75,0
0,62,75,0
0,62,60,0
0,46,0,46
0,54,0,0
0,56,0,0
0,42,0,0
0,54,60,2
0,42,60,0
0,54,0,46
0,42,0,0
0,62,0,0
0,62,0,0
0,62,0,0
0,54,60,2
0,56,60,0
0,40,60,0
0,42,60,0
0,60,75,0
0,60,75,0
0,60,60,0
0,40,0,46
0,42,0,0
0,42,60,2
0,46,0,16
0,46,0,0
0,54,0,30
0,56,0,0
0,42,0,0
0,60,0,0
0,60,0,0
0,54,60,2
0,36,60,0
0,42,60,0
0,60,0,0
0,58,75,0
0,58,75,0
0,46,75,0
0,58,60,0
0,46,75,0
0,54,0,46
0,36,0,0
0,42,0,0
0,54,60,2
0,56,60,0
0,42,60,0
0,54,0,46
0,56,0,0
0,42,0,0
0,54,60,2
0,42,60,0
0,54,0,46
0,42,0,0
0,46,60,2
0,54,60,0
0,56,60,0
0,36,60,0
0,46,0,46
0,54,0,0
0,56,0,0
0,36,0,0
0,54,60,2
0,56,60,0
0,36,60,0
0,42,60,0
0,54,0,46
0,56,0,0
0,36,0,0
0,42,0,0
0,56,60,2
0,36,60,0
0,42,60,0
0,58,0,16
0,58,0,0
0,46,0,0
0,58,0,0
0,46,0,0
0,56,0,30
0,36,0,0
0,42,0,0
0,46,60,2
0,54,60,0
0,56,60,0
0,40,60,0
0,41,75,0
0,41,75,0
0,46,0,46
0,54,0,0
0,56,0,0
0,40,0,0
0,54,60,2
0,42,60,0
0,54,0,46
0,42,0,0
0,41,0,0
0,41,0,0
0,54,60,2
0,56,60,0
0,36,60,0
0,42,60,0
0,62,75,0
0,62,75,0
0,46,75,0
0,62,60,0
0,46,75,0
0,54,0,46
0,56,0,0
0,36,0,0
0,42,0,0
0,54,60,2
0,42,60,0
0,54,0,46
0,42,0,0
0,62,0,0
0,62,0,0
0,46,0,0
0,62,0,0
0,46,0,0
0,46,60,2
0,54,60,0
0,56,60,0
0,36,60,0
0,60,75,0
0,53,75,0
0,60,75,0
0,45,75,0
0,53,60,0
0,60,60,0
0,45,75,0
0,46,0,46
0,54,0,0
0,56,0,0
0,36,0,0
0,54,60,2
0,42,60,0
0,54,0,46
0,60,0,0
0,60,0,0
0,60,0,0
0,46,60,2
0,54,60,0
0,56,60,0
0,60,75,0
0,60,75,0
0,60,60,0
0,46,0,46
0,54,0,0
0,56,0,0
0,42,0,0
0,54,60,2
0,42,60,0
0,54,0,46
0,42,0,0
0,54,60,2
0,56,60,0
0,40,60,0
0,42,60,0
0,40,0,46
0,42,0,0
0,42,60,2
0,45,0,16
0,45,0,0
0,54,0,30
0,56,0,0
0,42,0,0
0,54,60,2
0,36,60,0
0,42,60,0
0,41,75,0
0,41,75,0
0,54,0,46
0,36,0,0
0,42,0,0
0,54,60,2
0,56,60,0
0,42,60,0
0,53,0,0
0,53,0,0
0,60,0,16
0,60,0,0
0,60,0,0
0,54,0,30
0,56,0,0
0,42,0,0
0,54,60,2
0,42,60,0
0,62,75,0
0,62,75,0
0,62,60,0
0,54,0,46
0,42,0,0
0,46,60,2
0,54,60,0
0,56,60,0
0,36,60,0
0,46,0,46
0,54,0,0
0,56,0,0
0,36,0,0
0,62,0,0
0,62,0,0
0,62,0,0
0,54,60,2
0,56,60,0
0,36,60,0
0,42,60,0
0,63,75,0
0,63,75,0
0,63,60,0
0,54,0,46
0,56,0,0
0,36,0,0
0,42,0,0
0,42,60,2
0,36,60,0
0,56,60,0
