track,note,velocity,time
3,43,60,0
3,43,0,720
3,43,60,48
3,43,0,720
3,43,60,48
3,43,0,720
3,43,60,48
3,43,0,720
3,48,75,48
3,48,0,94
3,48,75,2
3,48,0,256
3,47,75,32
3,47,0,94
3,47,75,2
3,47,0,256
3,45,75,32
3,45,0,94
3,45,75,2
3,45,0,256
3,43,75,32
3,43,0,94
3,43,75,2
3,43,0,256
3,41,75,32
3,41,0,94
3,41,75,2
3,41,0,256
3,40,75,32
3,40,0,94
3,40,75,2
3,40,0,256
3,38,75,32
3,38,0,256
3,46,75,32
3,46,0,256
3,43,75,32
3,43,0,160
3,48,75,32
3,48,0,94
3,48,75,2
3,48,0,256
3,47,75,32
3,47,0,94
3,47,75,2
3,47,0,256
3,45,75,32
3,45,0,94
3,45,75,2
3,45,0,256
3,43,75,32
3,43,0,94
3,43,75,2
3,43,0,256
3,41,75,32
3,41,0,94
3,41,75,2
3,41,0,256
3,40,75,32
3,40,0,94
3,40,75,2
3,40,0,256
3,46,75,32
3,46,0,256
3,43,75,32
3,43,0,352
3,43,75,32
3,43,0,46
3,44,75,2
3,44,0,46
3,45,75,2
3,45,0,336
3,43,75,48
3,43,0,336
3,44,75,48
3,44,0,160
3,40,75,32
3,40,0,160
3,45,75,32
3,45,0,160
3,43,75,32
3,43,0,160
3,41,75,32
3,41,0,336
3,41,75,48
3,41,0,94
3,41,75,2
3,41,0,256
3,41,75,32
3,41,0,336
3,41,75,48
3,41,0,256
3,43,75,32
3,43,0,46
3,45,75,2
3,45,0,46
3,48,75,2
3,48,0,334
3,48,75,2
3,48,0,46
3,47,75,2
3,47,0,334
3,47,75,2
3,47,0,46
3,45,75,2
3,45,0,334
3,45,75,2
3,45,0,46
3,41,75,2
3,41,0,336
3,43,75,48
3,43,0,334
3,43,75,2
3,43,0,46
3,45,75,2
3,45,0,336
3,46,75,48
3,46,0,256
3,43,75,32
3,43,0,432
3,48,75,48
3,48,0,334
3,48,75,2
3,48,0,46
3,47,75,2
3,47,0,334
3,47,75,2
3,47,0,46
3,45,75,2
3,45,0,336
3,41,75,48
3,41,0,160
3,41,75,32
3,41,0,528
3,43,75,48
3,43,0,94
3,43,75,2
3,43,0,94
3,43,75,2
3,43,0,142
3,43,75,2
3,43,0,94
3,43,75,2
3,43,0,46
3,43,75,2
3,43,0,160
3,50,75,32
3,50,0,46
3,52,75,2
3,52,0,46
3,43,75,2
3,43,0,336
3,43,75,48
3,43,0,336
3,41,75,48
3,41,0,142
3,41,75,2
3,41,0,142
3,52,75,2
3,52,0,142
3,48,75,2
3,48,0,46
3,40,75,2
3,40,0,94
3,48,75,98
3,48,0,46
3,52,75,2
3,52,0,46
3,50,75,2
3,50,0,142
3,50,75,2
3,50,0,142
3,48,75,2
3,48,0,352
3,43,75,32
3,43,0,46
3,45,75,2
3,45,0,46
3,48,75,2
3,48,0,94
3,48,75,2
3,48,0,256
3,47,75,32
3,47,0,94
3,47,75,2
3,47,0,256
3,45,75,32
3,45,0,94
3,45,75,2
3,45,0,256
3,43,75,32
3,43,0,94
3,43,75,2
3,43,0,256
3,41,75,32
3,41,0,94
3,41,75,2
3,41,0,256
3,40,75,32
3,40,0,94
3,40,75,2
3,40,0,256
3,38,75,32
3,38,0,256
3,46,75,32
3,46,0,256
3,43,75,32
3,43,0,160
3,48,75,32
3,48,0,94
3,48,75,2
3,48,0,256
3,47,75,32
3,47,0,94
3,47,75,2
3,47,0,256
3,45,75,32
3,45,0,94
3,45,75,2
3,45,0,256
3,43,75,32
3,43,0,94
3,43,75,2
3,43,0,256
3,41,75,32
3,41,0,94
3,41,75,2
3,41,0,256
3,40,75,32
3,40,0,94
3,40,75,2
3,40,0,256
3,46,75,32
3,46,0,256
3,43,75,32
3,43,0,352
3,43,75,32
3,43,0,46
3,44,75,2
3,44,0,46
3,45,75,2
3,45,0,336
3,43,75,48
3,43,0,336
3,44,75,48
3,44,0,160
3,40,75,32
3,40,0,160
3,45,75,32
3,45,0,160
3,43,75,32
3,43,0,160
3,41,75,32
3,41,0,336
3,41,75,48
3,41,0,94
3,41,75,2
3,41,0,256
3,41,75,32
3,41,0,336
3,41,75,48
3,41,0,256
3,43,75,32
3,43,0,46
3,45,75,2
3,45,0,46
3,48,75,2
3,48,0,334
3,48,75,2
3,48,0,46
3,47,75,2
3,47,0,334
3,47,75,2
3,47,0,46
3,45,75,2
3,45,0,334
3,45,75,2
3,45,0,46
3,41,75,2
3,41,0,336
3,43,75,48
3,43,0,334
3,43,75,2
3,43,0,46
3,45,75,2
3,45,0,336
3,46,75,48
3,46,0,256
3,43,75,32
3,43,0,432
3,48,75,48
3,48,0,334
3,48,75,2
3,48,0,46
3,47,75,2
3,47,0,334
3,47,75,2
3,47,0,46
3,45,75,2
3,45,0,336
3,41,75,48
3,41,0,160
3,41,75,32
3,41,0,528
3,43,75,48
3,43,0,94
3,43,75,2
3,43,0,94
3,43,75,2
3,43,0,142
3,43,75,2
3,43,0,94
3,43,75,2
3,43,0,46
3,43,75,2
3,43,0,160
3,50,75,32
3,50,0,46
3,52,75,2
3,52,0,46
3,43,75,2
3,43,0,336
3,43,75,48
3,43,0,336
3,48,75,48
3,48,0,94
3,48,75,2
3,48,0,94
3,48,75,2
3,48,0,94
3,48,75,2
3,48,0,94
3,48,75,2
3,48,0,94
3,48,75,2
3,48,0,94
3,48,75,2
3,48,0,94
3,47,75,2
3,47,0,94
3,45,75,2
3,45,0,336
3,43,75,48
3,43,0,336
3,44,75,48
3,44,0,160
3,40,75,32
3,40,0,160
3,45,75,32
3,45,0,160
3,43,75,32
3,43,0,160
3,41,75,32
3,41,0,336
3,41,75,48
3,41,0,94
3,41,75,2
3,41,0,256
3,41,75,32
3,41,0,336
3,41,75,48
3,41,0,256
3,43,75,32
3,43,0,46
3,45,75,2
3,45,0,46
3,48,75,2
3,48,0,334
3,48,75,2
3,48,0,46
3,47,75,2
3,47,0,334
3,47,75,2
3,47,0,46
3,45,75,2
3,45,0,334
3,45,75,2
3,45,0,46
3,41,75,2
3,41,0,336
3,43,75,48
3,43,0,334
3,43,75,2
3,43,0,46
3,45,75,2
3,45,0,336
3,46,75,48
3,46,0,256
3,43,75,32
3,43,0,432
3,48,75,48
3,48,0,334
3,48,75,2
3,48,0,46
3,47,75,2
3,47,0,334
3,47,75,2
3,47,0,46
3,45,75,2
3,45,0,336
3,41,75,48
3,41,0,160
3,41,75,32
3,41,0,528
3,43,75,48
3,43,0,94
3,43,75,2
3,43,0,94
3,43,75,2
3,43,0,142
3,43,75,2
3,43,0,94
3,43,75,2
3,43,0,46
3,43,75,2
3,43,0,160
3,50,75,32
3,50,0,46
3,52,75,2
3,52,0,46
3,43,75,2
3,43,0,336
3,43,75,48
3,43,0,336
3,43,75,48
3,43,0,94
3,43,75,2
3,43,0,94
3,43,75,2
3,43,0,142
3,43,75,2
3,43,0,94
3,43,75,2
3,43,0,46
3,43,75,2
3,43,0,160
3,50,75,32
3,50,0,46
3,52,75,2
3,52,0,46
3,43,75,2
3,43,0,336
3,43,75,48
3,43,0,336
3,36,75,48
3,36,0,1104
4,60,45,0
4,64,45,0
4,60,0,94
4,64,0,0
4,55,45,2
4,55,0,94
4,60,45,2
4,64,45,0
4,60,0,94
4,64,0,0
4,55,45,2
4,55,0,94
4,60,45,2
4,64,45,0
4,60,0,94
4,64,0,0
4,55,45,2
4,55,0,94
4,60,45,2
4,64,45,0
4,60,0,94
4,64,0,0
4,55,45,2
4,55,0,94
4,59,45,2
4,64,45,0
4,59,0,94
4,64,0,0
4,55,45,2
4,55,0,94
4,59,45,2
4,64,45,0
4,59,0,94
4,64,0,0
4,55,45,2
4,55,0,94
4,59,45,2
4,62,45,0
4,59,0,94
4,62,0,0
4,55,45,2
4,55,0,94
4,59,45,2
4,62,45,0
4,59,0,94
4,62,0,0
4,55,45,2
4,55,0,94
4,60,45,2
4,64,45,0
4,60,0,94
4,64,0,0
4,55,45,2
4,55,0,94
4,60,45,2
4,64,45,0
4,60,0,94
4,64,0,0
4,55,45,2
4,55,0,94
4,60,45,2
4,64,45,0
4,60,0,94
4,64,0,0
4,55,45,2
4,55,0,94
4,60,45,2
4,64,45,0
4,60,0,94
4,64,0,0
4,55,45,2
4,55,0,94
4,59,45,2
4,64,45,0
4,59,0,94
4,64,0,0
4,55,45,2
4,55,0,94
4,59,45,2
4,64,45,0
4,59,0,94
4,64,0,0
4,55,45,2
4,55,0,94
4,59,45,2
4,62,45,0
4,59,0,94
4,62,0,0
4,55,45,2
4,55,0,94
4,59,45,2
4,62,45,0
4,59,0,94
4,62,0,0
4,55,45,2
4,55,0,94
4,55,60,0
4,60,60,0
4,64,60,0
4,55,0,94
4,60,0,0
4,64,0,0
4,64,60,2
4,64,0,94
4,64,60,2
4,64,0,94
4,67,60,2
4,59,60,96
4,62,60,0
4,67,0,94
4,59,0,0
4,62,0,0
4,59,60,2
4,62,60,0
4,67,60,0
4,59,0,256
4,62,0,0
4,67,0,0
4,55,60,32
4,60,60,0
4,55,0,94
4,60,0,0
4,60,60,2
4,60,0,46
4,60,60,2
4,60,0,46
4,60,60,2
4,60,0,48
4,62,60,0
4,62,0,46
4,64,60,2
4,64,0,46
4,55,60,2
4,60,60,0
4,64,60,0
4,55,0,94
4,60,0,0
4,64,0,0
4,62,60,2
4,62,0,46
4,60,60,2
4,60,0,238
4,55,60,2
4,55,0,46
4,53,60,2
4,57,60,0
4,53,0,94
4,57,0,0
4,60,60,2
4,60,0,94
4,60,60,2
4,60,0,94
4,65,60,2
4,65,0,94
4,60,60,2
4,64,60,0
4,60,0,94
4,64,0,0
4,62,60,2
4,62,0,94
4,60,60,2
4,60,0,142
4,64,60,2
4,64,0,46
4,57,60,2
4,65,60,0
4,57,0,46
4,65,0,0
4,64,60,2
4,64,0,46
4,62,60,2
4,62,0,94
4,60,60,2
4,60,0,94
4,53,60,2
4,58,60,0
4,62,60,0
4,53,0,256
4,58,0,0
4,62,0,0
4,55,60,32
4,60,60,0
4,55,0,94
4,60,0,0
4,62,60,2
4,62,0,94
4,55,60,2
4,60,60,0
4,64,60,0
4,55,0,94
4,60,0,0
4,64,0,0
4,64,60,2
4,64,0,94
4,64,60,2
4,64,0,46
4,69,60,2
4,59,60,144
4,62,60,0
4,69,0,94
4,59,0,0
4,62,0,0
4,59,60,2
4,62,60,0
4,67,60,0
4,59,0,160
4,62,0,0
4,67,0,0
4,60,60,32
4,60,0,46
4,57,60,2
4,57,0,46
4,55,60,2
4,60,60,0
4,55,0,46
4,60,0,0
4,57,60,2
4,57,0,46
4,60,60,2
4,60,0,94
4,60,60,2
4,60,0,46
4,62,60,2
4,62,0,46
4,64,60,2
4,64,0,46
4,55,60,2
4,60,60,0
4,64,60,0
4,55,0,94
4,60,0,0
4,64,0,0
4,62,60,2
4,62,0,46
4,60,60,2
4,60,0,190
4,55,60,2
4,55,0,46
4,55,60,2
4,55,0,46
4,53,60,2
4,57,60,0
4,53,0,94
4,57,0,0
4,60,60,2
4,60,0,94
4,60,60,2
4,60,0,94
4,65,60,2
4,65,0,94
4,60,60,2
4,64,60,0
4,60,0,94
4,64,0,0
4,62,60,2
4,62,0,94
4,60,60,2
4,60,0,142
4,64,60,2
4,64,0,46
4,58,60,2
4,65,60,0
4,58,0,46
4,65,0,0
4,64,60,2
4,64,0,46
4,62,60,2
4,62,0,94
4,60,60,2
4,60,0,94
4,55,60,2
4,60,60,0
4,62,60,0
4,55,0,256
4,60,0,0
4,62,0,0
4,55,60,32
4,59,60,0
4,55,0,160
4,59,0,0
4,60,60,32
4,64,60,0
4,64,0,94
4,64,60,2
4,64,0,94
4,69,60,2
4,69,0,94
4,64,60,2
4,60,0,48
4,64,0,46
4,60,60,2
4,64,60,0
4,60,0,94
4,64,0,0
4,64,60,2
4,64,0,94
4,62,60,2
4,62,0,94
4,60,60,2
4,60,0,94
4,59,60,2
4,64,60,0
4,68,60,0
4,59,0,94
4,64,0,0
4,68,0,0
4,64,60,2
4,64,0,94
4,69,60,2
4,69,0,94
4,71,60,2
4,71,0,94
4,64,60,2
4,69,60,0
4,72,60,0
4,64,0,160
4,69,0,0
4,72,0,0
4,62,60,32
4,67,60,0
4,71,60,0
4,62,0,160
4,67,0,0
4,71,0,0
4,60,60,32
4,65,60,0
4,71,60,0
4,60,0,46
4,65,0,0
4,71,0,0
4,69,60,2
4,69,0,94
4,67,60,2
4,67,0,46
4,65,60,2
4,65,0,94
4,64,60,2
4,64,0,46
4,62,60,2
4,62,0,94
4,64,60,2
4,64,0,46
4,60,60,2
4,60,0,160
4,60,60,32
4,60,0,94
4,56,60,2
4,60,60,0
4,62,60,0
4,67,60,0
4,56,0,94
4,60,0,0
4,62,0,0
4,67,0,0
4,65,60,2
4,65,0,94
4,60,60,2
4,60,0,94
4,56,60,2
4,60,60,0
4,62,60,0
4,67,60,0
4,56,0,190
4,60,0,0
4,62,0,0
4,67,0,0
4,65,60,2
4,65,0,160
4,65,60,32
4,65,0,94
4,55,60,2
4,60,60,0
4,64,60,0
4,55,0,94
4,60,0,0
4,64,0,0
4,60,60,2
4,60,0,94
4,60,60,2
4,60,0,94
4,62,60,2
4,62,0,94
4,55,60,2
4,62,60,0
4,55,0,94
4,62,0,0
4,62,60,2
4,62,0,94
4,62,60,2
4,62,0,94
4,64,60,2
4,64,0,94
4,55,60,2
4,60,60,0
4,64,60,0
4,55,0,94
4,60,0,0
4,64,0,0
4,64,60,2
4,64,0,94
4,64,60,2
4,64,0,94
4,60,60,2
4,60,0,94
4,57,60,2
4,60,60,0
4,65,60,0
4,57,0,160
4,60,0,0
4,65,0,0
4,67,60,32
4,67,0,94
4,69,60,2
4,69,0,94
4,60,60,2
4,64,60,0
4,60,0,94
4,64,0,0
4,67,60,2
4,67,0,94
4,67,60,2
4,67,0,94
4,60,60,2
4,60,0,94
4,57,60,2
4,60,60,0
4,65,60,0
4,57,0,94
4,60,0,0
4,65,0,0
4,64,60,2
4,64,0,94
4,62,60,2
4,62,0,94
4,60,60,2
4,60,0,94
4,58,60,2
4,65,60,0
4,58,0,46
4,65,0,0
4,64,60,2
4,64,0,46
4,62,60,2
4,62,0,94
4,60,60,2
4,60,0,94
4,55,60,2
4,60,60,0
4,62,60,0
4,55,0,142
4,60,0,0
4,62,0,0
4,65,60,2
4,65,0,46
4,64,60,2
4,64,0,94
4,55,60,2
4,59,60,0
4,62,60,0
4,55,0,160
4,59,0,0
4,62,0,0
4,52,60,32
4,55,60,0
4,52,0,94
4,55,0,0
4,60,60,2
4,60,0,94
4,60,60,2
4,60,0,94
4,62,60,2
4,62,0,94
4,55,60,2
4,62,60,0
4,55,0,94
4,62,0,0
4,62,60,2
4,62,0,94
4,62,60,2
4,62,0,94
4,64,60,2
4,64,0,94
4,55,60,2
4,60,60,0
4,64,60,0
4,55,0,94
4,60,0,0
4,64,0,0
4,64,60,2
4,64,0,94
4,64,60,2
4,64,0,94
4,60,60,2
4,60,0,94
4,57,60,2
4,60,60,0
4,65,60,0
4,57,0,142
4,60,0,0
4,65,0,0
4,67,60,2
4,67,0,46
4,60,60,2
4,65,60,0
4,68,60,0
4,60,0,526
4,65,0,0
4,68,0,0
4,55,60,2
4,55,0,46
4,55,60,2
4,55,0,94
4,55,60,2
4,60,60,0
4,64,60,0
4,55,0,624
4,60,0,0
4,64,0,0
4,59,60,0
4,64,60,0
4,59,0,94
4,64,0,0
4,55,60,2
4,55,0,94
4,59,60,2
4,64,60,0
4,59,0,94
4,64,0,0
4,55,60,2
4,55,0,94
4,59,60,2
4,62,60,0
4,59,0,94
4,62,0,0
4,55,60,2
4,55,0,94
4,59,60,2
4,62,60,0
4,59,0,94
4,62,0,0
4,53,60,2
4,53,0,94
4,56,60,2
4,60,60,0
4,62,60,0
4,65,60,0
4,56,0,142
4,60,0,0
4,62,0,0
4,65,0,0
4,56,60,2
4,60,60,0
4,62,60,0
4,65,60,0
