track,note,velocity,time
0,46,75,0
0,54,75,0
0,56,75,0
0,36,75,0
0,54,75,2
0,42,75,0
0,54,0,46
0,46,75,2
0,54,75,0
0,56,75,0
0,46,0,46
0,54,0,0
0,56,0,0
0,42,0,0
0,54,75,2
0,42,75,0
0,54,0,46
0,42,0,0
0,54,75,2
0,56,75,0
0,39,75,0
0,42,75,0
0,39,0,46
0,42,0,0
0,42,75,2
0,54,0,46
0,56,0,0
0,42,0,0
0,54,75,2
0,36,75,0
0,42,75,0
0,54,0,46
0,36,0,0
0,42,0,0
0,54,75,2
0,56,75,0
0,42,75,0
0,54,0,46
0,56,0,0
0,42,0,0
0,54,75,2
0,42,75,0
0,54,0,46
0,42,0,0
0,46,75,2
0,54,75,0
0,56,75,0
0,36,75,0
0,46,0,46
0,54,0,0
0,56,0,0
0,36,0,0
0,54,75,2
0,56,75,0
0,36,75,0
0,42,75,0
0,54,0,46
0,56,0,0
0,36,0,0
0,42,0,0
0,56,75,2
0,36,75,0
0,42,75,0
0,56,0,46
0,36,0,0
0,42,0,0
0,46,75,2
0,54,75,0
0,56,75,0
0,39,75,0
0,46,0,46
0,54,0,0
0,56,0,0
0,39,0,0
0,54,75,2
0,42,75,0
0,54,0,46
0,42,0,0
0,54,75,2
0,56,75,0
0,36,75,0
0,42,75,0
0,54,0,46
0,56,0,0
0,36,0,0
0,42,0,0
0,54,75,2
0,42,75,0
0,54,0,46
0,42,0,0
0,46,75,0
0,54,75,0
0,56,75,0
0,36,75,0
0,46,0,46
0,54,0,0
0,56,0,0
0,36,0,0
0,54,75,2
0,42,75,0
0,54,0,46
0,46,75,2
0,54,75,0
0,56,75,0
0,46,0,46
0,54,0,0
0,56,0,0
0,42,0,0
0,54,75,2
0,42,75,0
0,54,0,46
0,42,0,0
0,54,75,2
0,56,75,0
0,39,75,0
0,42,75,0
0,39,0,46
0,42,0,0
0,42,75,2
0,54,0,46
0,56,0,0
0,42,0,0
0,54,75,2
0,36,75,0
0,42,75,0
0,54,0,46
0,36,0,0
0,42,0,0
0,54,75,2
0,56,75,0
0,42,75,0
0,54,0,46
0,56,0,0
0,42,0,0
0,54,75,2
0,42,75,0
0,54,0,46
0,42,0,0
0,46,75,2
0,54,75,0
0,56,75,0
0,36,75,0
0,46,0,46
0,54,0,0
0,56,0,0
0,36,0,0
0,54,75,2
0,56,75,0
0,36,75,0
0,42,75,0
0,54,0,46
0,56,0,0
0,36,0,0
0,42,0,0
0,56,75,2
0,36,75,0
0,42,75,0
0,56,0,46
0,36,0,0
0,42,0,0
0,46,75,2
0,54,75,0
0,56,75,0
0,39,75,0
0,46,0,46
0,54,0,0
0,56,0,0
0,39,0,0
0,54,75,2
0,42,75,0
0,54,0,46
0,42,0,0
0,54,75,2
0,56,75,0
0,36,75,0
0,42,75,0
0,54,0,46
0,56,0,0
0,36,0,0
0,42,0,0
0,54,75,2
0,42,75,0
0,54,0,46
0,42,0,0
0,46,75,0
0,54,75,0
0,56,75,0
0,36,75,0
0,60,75,0
0,63,75,0
0,67,75,0
0,48,60,0
0,60,75,0
0,63,75,0
0,67,75,0
0,48,60,0
0,46,0,46
0,54,0,0
0,56,0,0
0,36,0,0
0,54,75,2
0,42,75,0
0,54,0,46
0,48,0,0
0,48,0,0
0,46,75,2
0,54,75,0
0,56,75,0
0,48,60,0
0,48,60,0
0,46,0,46
0,54,0,0
0,56,0,0
0,42,0,0
0,60,0,0
0,63,0,0
0,67,0,0
0,60,0,0
0,63,0,0
0,67,0,0
0,54,75,2
0,42,75,0
0,60,75,0
0,63,75,0
0,67,75,0
0,60,75,0
0,63,75,0
0,67,75,0
0,54,0,46
0,42,0,0
0,48,0,0
0,48,0,0
0,54,75,2
0,56,75,0
0,39,75,0
0,42,75,0
0,48,60,0
0,48,60,0
0,39,0,46
0,42,0,0
0,42,75,2
0,54,0,46
0,56,0,0
0,42,0,0
0,60,0,0
0,63,0,0
0,67,0,0
0,48,0,0
0,60,0,0
0,63,0,0
0,67,0,0
0,48,0,0
0,54,75,2
0,36,75,0
0,42,75,0
0,60,75,0
0,63,75,0
0,68,75,0
0,43,60,0
0,60,75,0
0,63,75,0
0,68,75,0
0,43,60,0
0,54,0,46
0,36,0,0
0,42,0,0
0,54,75,2
0,56,75,0
0,42,75,0
0,54,0,46
0,56,0,0
0,42,0,0
0,43,0,0
0,43,0,0
0,54,75,2
0,42,75,0
0,44,60,0
0,44,60,0
0,54,0,46
0,42,0,0
0,46,75,2
0,54,75,0
0,56,75,0
0,36,75,0
0,46,0,46
0,54,0,0
0,56,0,0
0,36,0,0
0,44,0,0
0,44,0,0
0,54,75,2
0,56,75,0
0,36,75,0
0,42,75,0
0,44,60,0
0,44,60,0
0,54,0,46
0,56,0,0
0,36,0,0
0,42,0,0
0,56,75,2
0,36,75,0
0,42,75,0
0,56,0,46
0,36,0,0
0,42,0,0
0,46,75,2
0,54,75,0
0,56,75,0
0,39,75,0
0,46,0,46
0,54,0,0
0,56,0,0
0,39,0,0
0,54,75,2
0,42,75,0
0,54,0,46
0,42,0,0
0,54,75,2
0,56,75,0
0,36,75,0
0,42,75,0
0,54,0,46
0,56,0,0
0,36,0,0
0,42,0,0
0,54,75,2
0,42,75,0
0,60,0,0
0,63,0,0
0,68,0,0
0,60,0,0
0,63,0,0
0,68,0,0
0,44,0,16
0,44,0,0
0,54,0,30
0,42,0,0
0,46,75,0
0,54,75,0
0,56,75,0
0,36,75,0
0,59,75,0
0,62,75,0
0,67,75,0
0,43,60,0
0,59,75,0
0,62,75,0
0,67,75,0
0,43,60,0
0,46,0,46
0,54,0,0
0,56,0,0
0,36,0,0
0,54,75,2
0,42,75,0
0,54,0,46
0,43,0,0
0,43,0,0
0,46,75,2
0,54,75,0
0,56,75,0
0,43,60,0
0,43,60,0
0,46,0,46
0,54,0,0
0,56,0,0
0,42,0,0
0,59,0,0
0,62,0,0
0,67,0,0
0,59,0,0
0,62,0,0
0,67,0,0
0,54,75,2
0,42,75,0
0,59,75,0
0,62,75,0
0,67,75,0
0,59,75,0
0,62,75,0
0,67,75,0
0,54,0,46
0,42,0,0
0,43,0,0
0,43,0,0
0,54,75,2
0,56,75,0
0,39,75,0
0,42,75,0
0,43,60,0
0,43,60,0
0,39,0,46
0,42,0,0
0,42,75,2
0,54,0,46
0,56,0,0
0,42,0,0
0,59,0,0
0,62,0,0
0,67,0,0
0,43,0,0
0,59,0,0
0,62,0,0
0,67,0,0
0,43,0,0
0,54,75,2
0,36,75,0
0,42,75,0
0,60,75,0
0,63,75,0
0,67,75,0
0,47,60,0
0,60,75,0
0,63,75,0
0,67,75,0
0,47,60,0
0,54,0,46
0,36,0,0
0,42,0,0
0,54,75,2
0,56,75,0
0,42,75,0
0,54,0,46
0,56,0,0
0,42,0,0
0,47,0,0
0,47,0,0
0,54,75,2
0,42,75,0
0,48,60,0
0,48,60,0
0,54,0,46
0,42,0,0
0,46,75,2
0,54,75,0
0,56,75,0
0,36,75,0
0,46,0,46
0,54,0,0
0,56,0,0
0,36,0,0
0,48,0,0
0,48,0,0
0,54,75,2
0,56,75,0
0,36,75,0
0,42,75,0
0,48,60,0
0,48,60,0
0,54,0,46
0,56,0,0
0,36,0,0
0,42,0,0
0,56,75,2
0,36,75,0
0,42,75,0
0,56,0,46
0,36,0,0
0,42,0,0
0,46,75,2
0,54,75,0
0,56,75,0
0,39,75,0
0,46,0,46
0,54,0,0
0,56,0,0
0,39,0,0
0,54,75,2
0,42,75,0
0,54,0,46
0,42,0,0
0,48,0,0
0,48,0,0
0,54,75,2
0,56,75,0
0,36,75,0
0,42,75,0
0,43,60,0
0,43,60,0
0,54,0,46
0,56,0,0
0,36,0,0
0,42,0,0
0,54,75,2
0,42,75,0
0,60,0,0
0,63,0,0
0,67,0,0
0,60,0,0
0,63,0,0
0,67,0,0
0,54,0,46
0,42,0,0
0,43,0,0
0,43,0,0
0,46,75,0
0,54,75,0
0,56,75,0
0,36,75,0
0,60,75,0
0,63,75,0
0,67,75,0
0,48,60,0
0,60,75,0
0,63,75,0
0,67,75,0
0,48,60,0
0,46,0,46
0,54,0,0
0,56,0,0
0,36,0,0
0,54,75,2
0,42,75,0
0,54,0,46
0,48,0,0
0,48,0,0
0,46,75,2
0,54,75,0
0,56,75,0
0,48,60,0
0,48,60,0
0,46,0,46
0,54,0,0
0,56,0,0
0,42,0,0
0,60,0,0
0,63,0,0
0,67,0,0
0,60,0,0
0,63,0,0
0,67,0,0
0,54,75,2
0,42,75,0
0,60,75,0
0,63,75,0
0,67,75,0
0,60,75,0
0,63,75,0
0,67,75,0
0,54,0,46
0,42,0,0
0,48,0,0
0,48,0,0
0,54,75,2
0,56,75,0
0,39,75,0
0,42,75,0
0,48,60,0
0,48,60,0
0,39,0,46
0,42,0,0
0,42,75,2
0,54,0,46
0,56,0,0
0,42,0,0
0,60,0,0
0,63,0,0
0,67,0,0
0,48,0,0
0,60,0,0
0,63,0,0
0,67,0,0
0,48,0,0
0,54,75,2
0,36,75,0
0,42,75,0
0,60,75,0
0,63,75,0
0,68,75,0
0,43,60,0
0,60,75,0
0,63,75,0
0,68,75,0
0,43,60,0
0,54,0,46
0,36,0,0
0,42,0,0
0,54,75,2
0,56,75,0
0,42,75,0
0,54,0,46
0,56,0,0
0,42,0,0
0,43,0,0
0,43,0,0
0,54,75,2
0,42,75,0
0,44,60,0
0,44,60,0
0,54,0,46
0,42,0,0
0,46,75,2
0,54,75,0
0,56,75,0
0,36,75,0
0,46,0,46
0,54,0,0
0,56,0,0
0,36,0,0
0,44,0,0
0,44,0,0
0,54,75,2
0,56,75,0
0,36,75,0
0,42,75,0
0,44,60,0
0,44,60,0
0,54,0,46
0,56,0,0
0,36,0,0
0,42,0,0
0,56,75,2
0,36,75,0
0,42,75,0
0,56,0,46
0,36,0,0
0,42,0,0
0,46,75,2
0,54,75,0
0,56,75,0
0,39,75,0
0,46,0,46
0,54,0,0
0,56,0,0
0,39,0,0
0,54,75,2
0,42,75,0
0,54,0,46
0,42,0,0
0,54,75,2
0,56,75,0
0,36,75,0
0,42,75,0
0,54,0,46
0,56,0,0
0,36,0,0
0,42,0,0
0,54,75,2
0,42,75,0
0,60,0,0
0,63,0,0
0,68,0,0
0,60,0,0
0,63,0,0
0,68,0,0
0,44,0,16
0,44,0,0
0,54,0,30
0,42,0,0
0,46,75,0
0,54,75,0
0,56,75,0
0,36,75,0
0,59,75,0
0,62,75,0
0,67,75,0
0,43,60,0
0,59,75,0
0,62,75,0
0,67,75,0
0,43,60,0
0,46,0,46
0,54,0,0
0,56,0,0
0,36,0,0
0,54,75,2
0,42,75,0
0,54,0,46
0,43,0,0
0,43,0,0
0,46,75,2
0,54,75,0
0,56,75,0
0,43,60,0
0,43,60,0
0,46,0,46
0,54,0,0
0,56,0,0
0,42,0,0
0,59,0,0
0,62,0,0
0,67,0,0
0,59,0,0
0,62,0,0
0,67,0,0
0,54,75,2
0,42,75,0
0,59,75,0
0,62,75,0
0,67,75,0
0,59,75,0
0,62,75,0
0,67,75,0
0,54,0,46
0,42,0,0
0,43,0,0
0,43,0,0
0,54,75,2
0,56,75,0
0,39,75,0
0,42,75,0
0,43,60,0
0,43,60,0
0,39,0,46
0,42,0,0
0,42,75,2
0,54,0,46
0,56,0,0
0,42,0,0
0,59,0,0
0,62,0,0
0,67,0,0
0,43,0,0
0,59,0,0
0,62,0,0
0,67,0,0
0,43,0,0
0,54,75,2
0,36,75,0
0,42,75,0
0,60,75,0
0,63,75,0
0,67,75,0
0,47,60,0
0,60,75,0
0,63,75,0
0,67,75,0
0,47,60,0
0,54,0,46
0,36,0,0
0,42,0,0
0,54,75,2
0,56,75,0
0,42,75,0
0,54,0,46
0,56,0,0
0,42,0,0
0,47,0,0
0,47,0,0
0,54,75,2
0,42,75,0
0,48,60,0
0,48,60,0
0,54,0,46
0,42,0,0
0,46,75,2
0,54,75,0
0,56,75,0
0,36,75,0
0,46,0,46
0,54,0,0
0,56,0,0
0,36,0,0
0,48,0,0
0,48,0,0
0,54,75,2
0,56,75,0
0,36,75,0
0,42,75,0
0,48,60,0
0,48,60,0
0,54,0,46
0,56,0,0
0,36,0,0
0,42,0,0
0,56,75,2
0,36,75,0
0,42,75,0
0,56,0,46
0,36,0,0
0,42,0,0
0,46,75,2
0,54,75,0
0,56,75,0
0,39,75,0
0,46,0,46
0,54,0,0
0,56,0,0
0,39,0,0
0,54,75,2
0,42,75,0
0,54,0,46
0,42,0,0
0,48,0,0
0,48,0,0
0,54,75,2
0,56,75,0
0,36,75,0
0,42,75,0
0,43,60,0
0,43,60,0
0,54,0,46
0,56,0,0
0,36,0,0
0,42,0,0
0,54,75,2
0,42,75,0
0,60,0,0
0,63,0,0
0,67,0,0
0,60,0,0
0,63,0,0
0,67,0,0
0,54,0,46
0,42,0,0
0,43,0,0
0,43,0,0
0,46,75,0
0,54,75,0
0,56,75,0
0,36,75,0
0,63,92,0
0,60,75,0
0,63,75,0
0,67,75,0
0,48,60,0
0,60,75,0
0,63,75,0
0,67,75,0
0,48,60,0
0,46,0,46
0,54,0,0
0,56,0,0
0,36,0,0
0,54,75,2
0,42,75,0
0,54,0,46
0,46,75,2
0,54,75,0
0,56,75,0
0,46,0,46
0,54,0,0
0,56,0,0
0,42,0,0
0,60,0,0
0,63,0,0
0,67,0,0
0,60,0,0
0,63,0,0
0,67,0,0
0,54,75,2
0,42,75,0
0,60,75,0
0,63,75,0
0,67,75,0
0,60,75,0
0,63,75,0
0,67,75,0
0,48,0,16
0,48,0,0
0,54,0,30
0,42,0,0
0,54,75,2
0,56,75,0
0,39,75,0
0,42,75,0
0,48,60,0
0,48,60,0
0,39,0,46
0,42,0,0
0,42,75,2
0,63,0,16
0,54,0,30
0,56,0,0
0,42,0,0
0,60,0,0
0,63,0,0
0,67,0,0
0,48,0,0
0,60,0,0
0,63,0,0
0,67,0,0
0,48,0,0
0,54,75,2
0,36,75,0
0,42,75,0
0,60,92,0
0,60,75,0
0,63,75,0
0,68,75,0
0,43,60,0
0,60,75,0
0,63,75,0
0,68,75,0
0,43,60,0
0,54,0,46
0,36,0,0
0,42,0,0
0,54,75,2
0,56,75,0
0,42,75,0
0,54,0,46
0,56,0,0
0,42,0,0
0,43,0,0
0,43,0,0
0,54,75,2
0,42,75,0
0,44,60,0
0,44,60,0
0,54,0,46
0,42,0,0
0,46,75,2
0,54,75,0
0,56,75,0
0,36,75,0
0,46,0,46
0,54,0,0
0,56,0,0
0,36,0,0
0,44,0,0
0,44,0,0
0,54,75,2
0,56,75,0
0,36,75,0
0,42,75,0
0,44,60,0
0,44,60,0
0,54,0,46
0,56,0,0
0,36,0,0
0,42,0,0
0,56,75,2
0,36,75,0
0,42,75,0
0,60,0,16
0,56,0,30
0,36,0,0
0,42,0,0
0,46,75,2
0,54,75,0
0,56,75,0
0,39,75,0
0,46,0,46
0,54,0,0
0,56,0,0
0,39,0,0
0,54,75,2
0,42,75,0
0,54,0,46
0,42,0,0
0,54,75,2
0,56,75,0
0,36,75,0
0,42,75,0
0,60,92,0
0,54,0,46
0,56,0,0
0,36,0,0
0,42,0,0
0,54,75,2
0,42,75,0
0,60,0,0
0,63,0,0
0,68,0,0
0,60,0,0
0,63,0,0
0,68,0,0
0,44,0,16
0,44,0,0
0,54,0,30
0,42,0,0
0,60,0,0
0,46,75,0
0,54,75,0
0,56,75,0
0,36,75,0
0,62,92,0
0,59,75,0
0,62,75,0
0,67,75,0
0,43,60,0
0,59,75,0
0,62,75,0
0,67,75,0
0,43,60,0
0,46,0,46
0,54,0,0
0,56,0,0
0,36,0,0
0,54,75,2
0,42,75,0
0,54,0,46
0,62,0,0
0,46,75,2
0,54,75,0
0,56,75,0
0,62,92,0
0,46,0,46
0,54,0,0
0,56,0,0
0,42,0,0
0,59,0,0
0,62,0,0
0,67,0,0
0,59,0,0
0,62,0,0
0,67,0,0
0,54,75,2
