track,note,velocity,time
3,72,100,863
3,72,100,192
3,72,100,0
3,72,100,192
3,72,100,0
3,72,100,4416
3,72,100,192
3,72,100,0
3,72,100,192
3,72,100,0
3,72,100,4416
3,72,100,192
3,72,100,0
3,72,100,192
3,72,100,0
3,72,100,576
3,74,100,0
3,71,100,0
3,67,100,0
3,67,100,0
3,65,100,576
3,67,100,0
3,67,100,2496
3,72,100,0
3,72,100,0
3,74,100,0
3,75,100,0
3,74,100,0
3,72,100,0
3,72,100,384
3,72,100,192
3,72,100,0
3,72,100,192
3,72,100,0
3,72,100,576
3,74,100,0
3,71,100,0
3,67,100,0
3,67,100,0
3,70,100,576
3,70,100,0
3,67,100,0
3,65,100,0
3,67,100,0
3,65,100,0
3,63,100,0
3,65,100,0
3,67,100,0
3,65,100,0
3,67,100,0
3,67,100,768
3,72,100,0
3,72,100,0
3,74,100,0
3,75,100,0
3,74,100,0
3,72,100,0
3,75,100,0
3,79,100,0
3,75,100,0
3,79,100,0
3,75,100,192
3,75,100,0
3,77,100,0
3,75,100,0
3,74,100,0
3,77,100,0
3,74,100,0
3,77,100,0
3,72,100,960
3,74,100,0
3,75,100,0
3,79,100,0
3,75,100,0
3,79,100,0
3,75,100,192
3,75,100,0
3,77,100,0
3,75,100,0
3,79,100,0
3,79,100,0
3,84,100,0
3,79,100,192
3,77,100,0
3,75,100,0
3,72,100,384
3,72,100,0
3,72,100,0
3,72,100,0
3,72,100,576
3,71,100,0
3,72,100,0
3,74,100,0
3,79,100,0
3,77,100,0
3,77,100,0
3,75,100,0
3,75,100,192
3,75,100,0
3,75,100,0
3,75,100,0
3,75,100,576
3,77,100,0
3,79,100,0
3,80,100,0
3,79,100,0
3,72,100,1728
3,72,100,0
3,72,100,0
3,72,100,0
3,72,100,0
3,72,100,0
3,71,100,0
3,72,100,0
3,74,100,0
3,75,100,384
3,77,100,0
3,79,100,0
3,79,100,0
3,77,100,0
3,75,100,0
3,77,100,0
3,75,100,0
3,79,100,768
3,80,100,0
3,79,100,0
3,80,100,0
3,79,100,0
3,80,100,0
3,79,100,0
3,72,100,384
3,72,100,192
3,72,100,0
3,72,100,192
3,72,100,0
3,72,100,576
3,74,100,0
3,71,100,0
3,67,100,0
3,67,100,0
3,65,100,576
3,67,100,0
3,72,100,2880
3,75,100,0
3,72,100,0
3,75,100,0
3,74,100,0
3,77,100,0
3,75,100,0
3,79,100,0
3,74,100,0
3,77,100,0
3,72,100,0
3,75,100,0
3,72,100,384
3,72,100,192
3,72,100,0
3,72,100,192
3,75,100,0
3,72,100,0
3,75,100,0
3,72,100,192
3,75,100,0
3,74,100,0
3,77,100,0
3,71,100,384
3,74,100,0
3,67,100,0
3,67,100,0
3,74,100,0
3,65,100,192
3,74,100,0
3,65,100,192
3,74,100,0
3,67,100,0
3,75,100,0
3,67,100,0
3,75,100,0
3,67,100,1536
3,72,100,0
3,72,100,0
3,74,100,0
3,75,100,0
3,74,100,0
3,72,100,0
3,75,100,0
3,79,100,0
3,75,100,0
3,79,100,0
3,75,100,192
3,75,100,0
3,77,100,0
3,75,100,0
3,74,100,0
3,77,100,0
3,74,100,0
3,77,100,0
3,72,100,960
3,74,100,0
3,75,100,0
3,79,100,0
3,75,100,0
3,79,100,0
3,75,100,192
3,75,100,0
3,77,100,0
3,75,100,0
3,79,100,0
3,79,100,0
3,84,100,0
3,79,100,192
3,77,100,0
3,75,100,0
3,72,100,384
3,72,100,0
3,72,100,0
3,72,100,0
3,72,100,576
3,71,100,0
3,72,100,0
3,74,100,0
3,79,100,0
3,77,100,0
3,77,100,0
3,75,100,0
3,75,100,192
3,75,100,0
3,75,100,0
3,75,100,0
3,75,100,576
3,77,100,0
3,79,100,0
3,80,100,0
3,79,100,0
3,72,100,1728
3,72,100,0
3,72,100,0
3,72,100,0
3,72,100,0
3,72,100,0
3,71,100,0
3,72,100,0
3,74,100,0
3,75,100,384
3,77,100,0
3,79,100,0
3,79,100,0
3,77,100,0
3,75,100,0
3,77,100,0
3,75,100,0
3,79,100,768
3,80,100,0
3,79,100,0
3,80,100,0
3,79,100,0
3,80,100,0
3,79,100,0
3,72,100,384
3,72,100,192
3,72,100,0
3,72,100,192
3,72,100,0
3,70,100,2880
3,72,100,0
3,84,100,0
3,72,100,192
3,72,100,192
3,72,100,0
3,72,100,192
3,72,100,0
3,78,100,528
3,79,100,0
3,77,100,0
3,75,100,192
3,72,100,0
3,72,100,2304
3,72,100,192
3,72,100,0
3,72,100,192
3,72,100,0
3,72,100,576
3,74,100,0
3,71,100,0
3,67,100,0
3,67,100,0
3,65,100,576
3,67,100,0
3,72,100,6336
3,72,100,192
3,72,100,0
3,72,100,192
3,72,100,0
3,72,100,576
3,74,100,0
3,74,100,0
3,74,100,0
3,74,100,0
3,72,100,0
3,75,100,0
3,72,100,0
3,74,100,0
3,75,100,0
3,74,100,0
3,72,100,0
3,70,100,0
3,72,100,0
3,70,100,0
3,67,100,0
3,70,100,0
3,72,100,0
3,70,100,0
3,72,100,0
3,75,100,768
3,77,100,0
3,79,100,0
3,79,100,0
3,75,100,768
3,75,100,0
3,77,100,0
3,79,100,0
3,79,100,0
3,75,100,768
3,75,100,0
3,77,100,0
3,79,100,0
3,79,100,0
3,80,100,0
3,79,100,0
3,77,100,0
3,75,100,0
3,75,100,192
3,75,100,0
3,82,100,0
3,80,100,192
3,79,100,192
3,77,100,192
3,79,100,0
3,75,100,960
3,75,100,0
3,77,100,0
3,79,100,0
3,79,100,0
3,75,100,960
3,75,100,0
3,77,100,0
3,79,100,0
3,79,100,0
3,77,100,0
3,75,100,0
3,77,100,0
3,75,100,0
3,79,100,768
3,80,100,0
3,79,100,0
3,80,100,0
3,79,100,0
3,80,100,0
3,79,100,0
3,72,100,384
3,72,100,0
3,72,100,0
3,72,100,0
3,72,100,576
3,71,100,0
3,72,100,0
3,74,100,0
3,79,100,0
3,77,100,0
3,77,100,0
3,75,100,0
3,75,100,192
3,75,100,0
3,75,100,0
3,75,100,0
3,75,100,576
3,77,100,0
3,79,100,0
3,80,100,0
3,79,100,0
3,72,100,1728
3,72,100,0
3,72,100,0
3,72,100,0
3,72,100,0
3,72,100,0
3,71,100,0
3,72,100,0
3,74,100,0
3,75,100,384
3,77,100,0
3,79,100,0
3,79,100,0
3,77,100,0
3,75,100,0
3,77,100,0
3,75,100,0
3,79,100,768
3,80,100,0
3,79,100,0
3,80,100,0
3,75,100,0
3,77,100,0
3,79,100,0
3,79,100,0
3,75,100,960
3,75,100,0
3,77,100,0
3,79,100,0
3,79,100,0
3,75,100,960
3,75,100,0
3,77,100,0
3,79,100,0
3,79,100,0
3,80,100,0
3,79,100,0
3,77,100,0
3,75,100,0
3,75,100,192
3,75,100,0
3,82,100,0
3,80,100,192
3,79,100,192
3,77,100,192
3,79,100,0
3,75,100,960
3,75,100,0
3,77,100,0
3,79,100,0
3,79,100,0
3,75,100,960
3,75,100,0
3,77,100,0
3,79,100,0
3,79,100,0
3,77,100,0
3,75,100,0
3,77,100,0
3,75,100,0
3,79,100,768
3,80,100,0
3,79,100,0
3,80,100,0
3,79,100,0
3,80,100,0
3,79,100,0
4,63,100,51551
4,60,100,0
4,55,100,0
4,63,100,0
4,60,100,0
4,55,100,0
4,63,100,0
4,60,100,0
4,55,100,0
4,63,100,0
4,60,100,0
4,55,100,0
4,63,100,576
4,60,100,0
4,55,100,0
4,59,100,0
4,62,100,0
4,55,100,0
4,60,100,0
4,63,100,0
4,55,100,0
4,62,100,0
4,65,100,0
4,55,100,0
4,67,100,1920
4,63,100,0
4,58,100,0
4,67,100,0
4,63,100,0
4,58,100,0
4,67,100,0
4,63,100,0
4,58,100,0
4,67,100,0
4,63,100,0
4,58,100,0
4,67,100,576
4,63,100,0
4,58,100,0
4,68,100,0
4,65,100,0
4,60,100,0
4,60,100,0
4,70,100,0
4,67,100,0
4,60,100,0
4,72,100,0
4,68,100,0
4,60,100,0
4,72,100,0
4,67,100,0
4,59,50,0
4,71,50,0
4,75,100,192
4,72,100,0
4,74,100,0
4,71,100,0
4,75,100,0
4,72,100,0
4,63,100,188
4,60,100,0
4,55,100,0
4,63,100,0
4,60,100,0
4,55,100,0
4,63,100,0
4,60,100,0
4,55,100,0
4,60,100,0
4,63,100,0
4,55,100,0
4,63,100,0
4,60,100,0
4,55,100,0
4,63,100,0
4,60,100,0
4,55,100,0
4,59,100,0
4,62,100,0
4,55,100,0
4,60,100,0
4,63,100,0
4,55,100,0
4,62,100,0
4,65,100,0
4,55,100,0
4,67,100,388
4,63,100,0
4,56,100,0
4,65,100,0
4,68,100,0
4,56,100,0
4,67,100,0
4,70,100,0
4,58,100,0
4,63,100,0
4,67,100,0
4,70,100,0
4,58,100,0
4,63,100,768
4,60,100,0
4,72,100,0
4,63,100,0
4,60,100,0
4,72,100,0
4,63,100,0
4,60,100,0
4,72,100,0
4,63,100,0
4,60,100,0
4,72,100,0
4,62,100,0
4,55,100,0
4,71,100,0
4,62,100,0
4,55,100,0
4,71,100,0
4,63,100,0
4,48,100,0
4,72,100,0
4,63,100,37248
4,60,100,0
4,55,100,0
4,63,100,0
4,60,100,0
4,55,100,0
4,63,100,0
4,60,100,0
4,55,100,0
4,63,100,0
4,60,100,0
4,55,100,0
4,63,100,576
4,60,100,0
4,55,100,0
4,59,100,0
4,62,100,0
4,55,100,0
4,60,100,0
4,63,100,0
4,55,100,0
4,62,100,0
4,65,100,0
4,55,100,0
4,67,100,1920
4,63,100,0
4,58,100,0
4,67,100,0
4,63,100,0
4,58,100,0
4,67,100,0
4,63,100,0
4,58,100,0
4,67,100,0
4,63,100,0
4,58,100,0
4,67,100,576
4,63,100,0
4,58,100,0
4,68,100,0
4,65,100,0
4,60,100,0
4,60,100,0
4,70,100,0
4,67,100,0
4,60,100,0
4,72,100,0
4,68,100,0
4,60,100,0
4,72,100,0
4,67,100,0
4,59,50,0
4,71,50,0
4,75,100,192
4,72,100,0
4,74,100,0
4,71,100,0
4,75,100,0
4,72,100,0
4,63,100,188
4,60,100,0
4,55,100,0
4,63,100,0
4,60,100,0
4,55,100,0
4,63,100,0
4,60,100,0
4,55,100,0
4,60,100,0
4,63,100,0
4,55,100,0
4,63,100,0
4,60,100,0
4,55,100,0
4,63,100,0
4,60,100,0
4,55,100,0
4,59,100,0
4,62,100,0
4,55,100,0
4,60,100,0
4,63,100,0
4,55,100,0
4,62,100,0
4,65,100,0
4,55,100,0
4,67,100,388
4,63,100,0
4,56,100,0
4,65,100,0
4,68,100,0
4,56,100,0
4,67,100,0
4,70,100,0
4,58,100,0
4,63,100,0
4,67,100,0
4,70,100,0
4,58,100,0
4,63,100,768
4,60,100,0
4,72,100,0
4,63,100,0
4,60,100,0
4,72,100,0
4,63,100,0
4,60,100,0
4,72,100,0
4,63,100,0
4,60,100,0
4,72,100,0
4,62,100,0
4,55,100,0
4,71,100,0
4,62,100,0
4,55,100,0
4,71,100,0
4,63,100,0
4,48,100,0
4,72,100,0
4,60,100,24960
4,63,100,0
4,60,100,192
4,63,100,0
4,60,100,0
4,63,100,0
4,60,100,192
4,63,100,0
4,60,100,0
4,63,100,0
4,67,100,192
4,63,100,0
4,65,100,0
4,62,100,0
4,67,100,5376
4,63,100,0
4,67,100,0
4,63,100,0
4,70,100,0
4,63,100,0
4,72,100,0
4,67,100,0
4,63,100,0
4,72,100,0
4,67,100,0
4,67,100,768
4,63,100,0
4,67,100,0
4,63,100,0
4,70,100,0
4,67,100,0
4,63,100,0
4,63,100,0
4,72,100,0
4,67,100,0
4,67,100,0
4,72,100,0
4,63,100,0
4,62,100,0
4,71,100,0
4,67,100,768
4,63,100,0
4,67,100,0
4,63,100,0
4,68,100,0
4,62,100,0
4,65,100,0
4,70,100,0
4,63,100,0
4,67,100,0
4,70,100,0
4,67,100,0
4,63,100,0
4,67,100,384
4,63,100,0
4,67,100,0
4,63,100,0
4,67,100,0
4,75,100,0
4,70,100,0
4,65,100,192
4,74,100,0
4,68,100,0
4,63,100,192
4,72,100,0
4,67,100,0
4,62,100,192
4,71,100,0
4,65,100,0
4,63,100,0
4,72,100,0
4,67,100,0
4,67,100,960
4,63,100,0
4,67,100,0
4,63,100,0
4,70,100,0
4,67,100,0
4,63,100,0
4,63,100,0
4,72,100,0
4,67,100,0
4,67,100,0
4,72,100,0
4,63,100,0
4,62,100,0
4,70,100,0
4,67,100,768
4,63,100,0
4,67,100,0
4,63,100,0
4,63,100,0
4,67,100,0
4,70,100,0
4,63,100,0
4,72,100,0
4,67,100,0
4,63,100,0
4,72,100,0
4,67,100,0
4,63,100,768
4,60,100,0
4,72,100,0
4,63,100,0
4,60,100,0
4,72,100,0
4,63,100,0
4,60,100,0
4,72,100,0
4,63,100,0
4,60,100,0
4,72,100,0
4,53,100,0
4,70,100,0
4,62,100,0
4,53,100,0
4,70,100,0
4,62,100,0
4,55,100,0
4,62,100,0
4,71,100,0
4,63,100,384
4,60,100,0
4,55,100,0
4,63,100,0
4,60,100,0
4,55,100,0
4,63,100,0
4,60,100,0
4,55,100,0
4,63,100,0
4,60,100,0
4,55,100,0
4,63,100,576
4,60,100,0
4,55,100,0
4,59,100,0
4,62,100,0
4,55,100,0
4,60,100,0
4,63,100,0
4,55,100,0
4,62,100,0
4,65,100,0
4,55,100,0
4,67,100,1920
4,63,100,0
4,58,100,0
4,67,100,0
4,63,100,0
4,58,100,0
4,67,100,0
4,63,100,0
4,58,100,0
4,67,100,0
4,63,100,0
4,58,100,0
4,67,100,576
4,63,100,0
4,58,100,0
4,68,100,0
4,65,100,0
4,60,100,0
4,60,100,0
4,70,100,0
4,67,100,0
4,60,100,0
4,72,100,0
4,68,100,0
4,60,100,0
4,72,100,0
4,67,100,0
4,59,50,0
4,71,50,0
4,75,100,192
4,72,100,0
4,74,100,0
4,71,100,0
4,75,100,0
4,72,100,0
4,63,100,188
4,60,100,0
4,55,100,0
4,63,100,0
4,60,100,0
4,55,100,0
4,63,100,0
4,60,100,0
4,55,100,0
4,60,100,0
4,63,100,0
4,55,100,0
4,63,100,0
4,60,100,0
4,55,100,0
4,63,100,0
4,60,100,0
4,55,100,0
4,59,100,0
4,62,100,0
4,55,100,0
4,60,100,0
4,63,100,0
4,55,100,0
4,62,100,0
4,65,100,0
4,55,100,0
4,67,100,388
4,63,100,0
4,56,100,0
4,65,100,0
4,68,100,0
4,56,100,0
4,67,100,0
4,70,100,0
4,58,100,0
4,63,100,0
4,67,100,0
4,70,100,0
4,58,100,0
4,63,100,768
4,60,100,0
4,72,100,0
4,63,100,0
4,60,100,0
4,72,100,0
4,63,100,0
4,60,100,0
4,72,100,0
4,63,100,0
4,60,100,0
4,72,100,0
4,62,100,0
4,55,100,0
4,71,100,0
4,62,100,0
4,55,100,0
4,71,100,0
4,63,100,0
4,48,100,0
4,72,100,0
4,63,100,384
4,60,100,0
4,55,100,0
4,63,100,0
4,60,100,0
4,55,100,0
4,63,100,0
4,60,100,0
4,55,100,0
4,63,100,0
4,60,100,0
4,55,100,0
4,63,100,576
4,60,100,0
4,55,100,0
4,59,100,0
4,62,100,0
4,55,100,0
4,60,100,0
4,63,100,0
4,55,100,0
4,62,100,0
4,65,100,0
4,55,100,0
4,67,100,1920
4,63,100,0
4,58,100,0
4,67,100,0
4,63,100,0
4,58,100,0
4,67,100,0
4,63,100,0
4,58,100,0
4,67,100,0
4,63,100,0
4,58,100,0
4,67,100,576
4,63,100,0
4,58,100,0
4,68,100,0
4,65,100,0
4,60,100,0
4,60,100,0
4,70,100,0
4,67,100,0
4,60,100,0
4,72,100,0
4,68,100,0
4,60,100,0
4,72,100,0
4,67,100,0
4,59,50,0
4,71,50,0
4,75,100,192
4,72,100,0
4,74,100,0
4,71,100,0
4,75,100,0
4,72,100,0
4,63,100,188
4,60,100,0
4,55,100,0
4,63,100,0
4,60,100,0
4,55,100,0
4,63,100,0
4,60,100,0
4,55,100,0
4,60,100,0
4,63,100,0
4,55,100,0
4,63,100,0
