track,note,velocity,time
1,80,64,0
1,77,64,0
1,75,64,8
1,72,64,8
1,80,64,8
1,77,64,40
1,75,64,16
1,72,64,8
1,80,64,8
1,77,64,8
1,75,64,8
1,72,64,8
1,80,64,8
1,77,64,8
1,75,64,8
1,72,64,8
1,80,64,8
1,77,64,8
1,75,64,8
1,72,64,8
1,80,64,8
1,77,64,8
1,75,64,8
1,72,64,8
1,80,64,8
1,77,64,8
1,75,64,8
1,72,64,8
1,80,64,8
1,77,64,8
1,75,64,8
1,72,64,8
1,80,64,8
1,77,64,8
1,75,64,8
1,72,64,8
1,80,64,8
1,77,64,8
1,75,64,8
1,72,64,8
1,80,64,8
1,77,64,8
1,75,64,8
1,72,64,8
1,80,64,8
1,77,64,8
1,75,64,8
1,72,64,8
1,80,64,8
1,77,64,8
1,75,64,8
1,72,64,8
1,80,64,8
1,77,64,8
1,75,64,8
1,72,64,8
1,80,64,8
1,77,64,8
1,75,64,8
1,72,64,8
1,80,64,8
1,77,64,8
1,75,64,8
1,72,64,8
1,80,64,8
1,77,64,8
1,75,64,8
1,72,64,8
1,80,64,8
1,77,64,8
1,75,64,8
1,72,64,8
1,80,64,8
1,77,64,8
1,75,64,8
1,72,64,8
1,80,64,8
1,77,64,8
1,75,64,8
1,72,64,8
1,80,64,8
1,77,64,8
1,75,64,8
1,72,64,8
1,80,64,8
1,77,64,8
1,75,64,8
1,72,64,8
1,80,64,8
1,77,64,8
1,75,64,8
1,72,64,8
1,80,64,8
1,77,64,8
1,75,64,8
1,72,64,8
1,82,64,8
1,77,64,32
1,75,64,32
1,73,64,32
1,82,64,32
1,77,64,32
1,75,64,32
1,73,64,32
1,87,64,1760
1,80,64,0
1,89,64,1544
1,87,64,0
1,70,64,1544
1,75,64,8
1,78,64,8
1,83,64,8
1,83,64,104
1,83,64,200
1,83,64,8
1,83,64,8
1,83,64,104
1,83,64,200
1,83,64,8
1,83,64,8
1,82,64,8
1,83,64,8
1,85,64,8
1,87,64,776
1,85,64,8
1,87,64,8
1,89,64,8
1,87,64,8
1,89,64,8
1,90,64,8
1,89,64,8
1,90,64,8
1,89,64,8
1,80,64,9992
1,79,64,392
1,80,64,392
1,79,64,384
1,77,64,384
1,76,64,384
1,79,64,5376
1,79,64,64
1,77,64,64
1,79,64,64
1,81,64,64
1,77,64,0
1,82,64,392
1,79,64,0
1,84,64,8
1,81,64,0
1,86,64,200
1,82,64,0
1,86,64,104
1,82,64,0
1,86,64,104
1,82,64,0
1,86,64,8
1,82,64,0
1,86,64,8
1,82,64,0
1,86,64,104
1,82,64,0
1,86,64,104
1,82,64,0
1,82,64,8
1,79,64,0
1,81,64,8
1,77,64,0
1,82,64,392
1,79,64,0
1,84,64,8
1,81,64,0
1,87,64,200
1,82,64,0
1,86,64,8
1,82,64,0
1,87,64,200
1,82,64,0
1,86,64,8
1,82,64,0
1,87,64,200
1,82,64,0
1,86,64,8
1,82,64,0
1,87,64,200
1,82,64,0
1,86,64,8
1,82,64,0
1,84,64,200
1,81,64,0
1,84,64,392
1,79,64,0
1,84,64,8
1,79,64,0
1,84,64,8
1,79,64,0
1,84,64,8
1,79,64,0
1,84,64,200
1,81,64,0
1,81,64,392
1,79,64,0
1,81,64,8
1,79,64,0
1,81,64,8
1,79,64,0
1,81,64,8
1,79,64,0
1,85,64,200
1,82,64,0
1,80,64,392
1,82,64,392
1,80,64,392
1,87,64,392
1,84,64,0
1,87,64,392
1,82,64,0
1,88,64,776
1,84,64,0
1,89,64,1544
1,89,64,392
1,89,64,392
1,89,64,392
1,87,64,584
1,89,64,8
1,84,64,0
1,87,64,8
1,86,64,8
1,83,64,0
1,84,64,9224
1,80,64,8
1,75,64,8
1,72,64,8
1,80,64,488
1,79,64,200
1,79,64,8
1,77,64,8
1,79,64,8
1,75,64,8
1,79,64,8
1,79,64,584
1,80,64,8
1,77,64,0
1,82,64,8
1,79,64,0
1,79,64,392
1,75,64,0
1,80,64,8
1,77,64,0
1,84,64,8
1,80,64,0
1,87,64,8
1,84,64,0
1,80,64,680
1,79,64,200
1,79,64,8
1,77,64,104
1,69,64,26600
1,65,64,0
1,72,64,8
1,69,64,0
1,77,64,8
1,72,64,0
1,81,64,8
1,77,64,0
1,83,64,8
1,79,64,0
1,88,64,104
1,83,64,0
1,67,64,488
1,63,64,0
1,70,64,8
1,67,64,0
1,75,64,8
1,70,64,0
1,79,64,8
1,75,64,0
1,81,64,8
1,77,64,0
1,82,64,584
1,81,64,104
1,79,64,200
1,84,64,200
1,82,64,8
1,84,64,8
1,79,64,8
1,82,64,200
1,79,64,0
1,84,64,104
1,79,64,0
1,86,64,8
1,87,64,8
1,82,64,0
1,86,64,200
1,82,64,0
1,86,64,8
1,81,64,0
1,84,64,104
1,81,64,0
1,82,64,488
1,81,64,104
1,79,64,200
1,91,64,200
1,86,64,0
1,89,64,8
1,86,64,0
1,86,64,104
1,82,64,0
1,84,64,8
1,81,64,0
1,82,64,8
1,79,64,0
1,87,64,8
1,82,64,0
1,86,64,200
1,82,64,0
1,86,64,8
1,81,64,0
1,84,64,104
1,81,64,0
1,74,64,2024
1,77,64,8
1,82,64,8
1,86,64,8
1,87,64,8
1,86,64,8
1,82,64,104
1,82,64,8
1,87,64,1544
1,86,64,8
1,84,64,8
1,89,64,8
1,86,64,8
1,86,64,8
1,82,64,0
1,87,64,8
1,84,64,0
1,89,64,8
1,86,64,0
1,74,120,2312
1,77,120,8
1,82,120,8
1,86,120,8
1,84,120,8
1,82,120,8
1,84,120,8
1,86,120,8
1,74,120,8
1,77,120,8
1,82,120,8
1,86,120,8
1,84,120,8
1,82,120,8
1,84,120,8
1,79,120,8
1,75,120,8
1,79,120,8
1,82,120,8
1,86,120,8
1,84,120,8
1,82,120,8
1,84,120,8
1,82,120,8
1,77,64,6152
1,82,64,8
1,77,64,104
1,82,64,8
1,77,64,200
1,82,64,8
1,77,64,104
1,82,64,8
1,77,64,200
1,82,64,8
1,77,64,104
1,82,64,8
1,80,64,192
1,78,64,8
1,77,64,8
1,75,64,104
1,81,64,8
1,75,64,104
1,81,64,8
1,75,64,1736
1,81,64,8
1,75,64,104
1,81,64,8
1,75,64,200
1,81,64,8
1,75,64,104
1,81,64,8
1,75,64,200
1,81,64,8
1,75,64,104
1,81,64,8
1,79,64,192
1,77,64,8
1,75,64,8
1,73,64,104
1,75,64,8
1,76,64,8
1,77,64,8
1,78,64,1736
1,82,64,0
1,82,64,8
1,77,64,0
1,82,64,8
1,76,64,0
1,81,64,8
1,77,64,0
1,82,64,488
1,79,64,0
1,84,64,488
1,81,64,0
1,77,64,5000
1,74,64,0
1,82,64,104
1,77,64,0
1,79,64,5480
1,76,64,0
1,84,64,512
1,79,64,0
1,89,64,13568
1,88,64,0
1,89,64,1280
1,88,64,0
1,77,64,2048
1,74,64,0
1,82,64,104
1,77,64,0
1,89,64,1640
1,88,64,0
1,89,64,1280
1,88,64,0
1,79,64,2048
1,76,64,0
1,84,64,512
1,79,64,0
1,84,64,128
1,81,64,0
1,84,64,64
1,81,64,0
1,84,64,64
1,81,64,0
1,84,64,64
1,81,64,0
1,84,64,64
1,81,64,0
1,82,64,128
1,79,64,0
1,82,64,128
1,79,64,0
1,81,64,128
1,77,64,0
1,86,64,640
1,81,64,0
1,86,64,64
1,81,64,0
1,86,64,64
1,81,64,0
1,87,64,64
1,81,64,0
1,86,64,64
1,81,64,0
1,84,64,128
1,81,64,0
1,82,64,128
1,79,64,0
1,87,64,768
1,82,64,0
1,87,64,64
1,82,64,0
1,87,64,64
1,82,64,0
1,87,64,64
1,82,64,0
1,87,64,64
1,82,64,0
1,87,64,128
1,82,64,0
1,87,64,64
1,82,64,0
1,87,64,64
1,82,64,0
1,87,64,64
1,82,64,0
1,87,64,64
1,82,64,0
1,87,64,64
1,82,64,0
1,87,64,64
1,82,64,0
1,87,64,128
1,82,64,0
1,87,64,64
1,82,64,0
1,87,64,64
1,82,64,0
1,87,64,64
1,82,64,0
1,87,64,64
1,82,64,0
1,87,64,64
1,82,64,0
1,87,64,64
1,82,64,0
1,87,64,64
1,82,64,0
1,86,64,64
1,81,64,0
1,84,64,64
1,79,64,0
1,82,64,64
1,77,64,0
1,77,64,64
1,74,64,0
1,82,64,64
1,77,64,0
1,77,64,64
1,74,64,0
1,82,64,64
1,79,64,0
1,82,64,512
1,77,64,0
1,77,64,64
1,74,64,0
1,82,64,64
1,77,64,0
1,77,64,64
1,74,64,0
1,82,64,64
1,79,64,0
1,82,64,512
1,77,64,0
1,77,64,64
1,74,64,0
1,82,64,64
1,77,64,0
1,77,64,64
1,74,64,0
1,82,64,64
1,79,64,0
1,81,64,64
1,77,64,0
1,82,64,64
1,79,64,0
1,84,64,64
1,81,64,0
1,86,64,64
1,82,64,0
1,89,64,128
1,84,64,0
1,94,64,128
1,86,64,0
1,79,64,13568
1,78,64,8
1,76,64,8
1,79,64,8
1,76,64,8
1,81,64,8
1,76,64,0
1,79,64,8840
1,78,64,8
1,76,64,8
1,79,64,8
1,76,64,8
1,81,64,8
1,76,64,0
1,69,64,16
1,74,64,8
1,74,64,8
1,74,64,8
1,75,64,8
1,74,64,8
1,75,64,8
1,77,64,8
1,77,64,8
1,74,64,8
1,82,64,8
1,82,64,8
1,77,64,8
1,77,64,8
1,74,64,8
1,74,64,8
1,70,64,8
1,70,64,8
1,72,64,8
1,70,64,8
1,70,64,8
1,79,64,8
1,79,64,8
1,79,64,8
1,79,64,8
1,78,64,8
1,79,64,8
1,81,64,8
1,83,64,8
1,83,64,8
1,81,64,8
1,79,64,8
1,78,64,8
1,76,64,8
1,79,64,8
1,78,64,8
1,76,64,8
1,84,64,8
1,86,64,8
1,84,64,8
1,81,64,8
1,83,64,8
1,84,64,8
1,86,64,392
1,82,64,0
1,85,64,8
1,79,64,0
1,86,64,8
1,81,64,0
1,82,64,8
1,81,64,8
1,79,64,8
1,77,64,8
1,82,64,8
1,81,64,8
1,79,64,8
1,77,64,8
1,82,64,8
1,81,64,8
1,79,64,8
1,77,64,8
1,84,64,8
1,79,64,0
1,72,50,13832
1,72,50,6
1,77,50,6
1,76,50,6
1,77,50,6
1,79,50,6
1,80,50,6
1,79,50,6
1,77,50,6
1,80,50,6
1,79,50,6
1,77,50,6
1,75,50,6
1,77,50,6
1,79,50,6
1,79,50,126
1,80,50,120
1,82,50,16
1,80,50,6
1,79,50,6
1,80,50,6
1,82,50,6
1,80,50,6
1,79,50,126
1,82,50,120
1,80,50,16
1,79,50,6
1,77,50,6
1,79,50,6
1,80,50,6
1,77,50,102
1,80,50,6
1,79,50,120
1,77,50,112
1,80,50,16
1,79,50,120
1,77,50,112
1,80,50,16
1,79,50,120
1,77,50,112
1,80,50,16
1,79,50,120
1,80,50,112
1,82,50,16
1,84,90,12294
1,82,90,6
1,80,81,6
1,82,81,6
1,84,81,6
1,85,81,6
1,87,81,6
1,84,81,6
1,82,81,120
1,80,81,112
1,79,81,16
1,77,81,6
1,79,81,6
1,80,81,6
1,75,81,6
1,77,81,6
1,75,81,120
1,73,81,112
1,72,81,16
1,75,81,6
1,80,81,6
1,84,81,6
1,82,81,6
1,81,81,6
1,82,81,6
1,77,81,6
1,80,81,6
1,79,81,6
1,79,81,6
1,80,81,6
1,82,81,6
1,84,81,6
1,82,81,6
1,80,81,6
1,82,81,6
1,84,81,6
1,85,81,6
1,87,81,6
1,84,81,6
1,82,81,120
1,80,81,112
1,79,81,16
1,77,81,6
1,79,81,6
1,80,81,6
1,75,81,6
1,77,81,6
1,75,81,120
1,73,81,112
1,72,81,16
1,75,81,6
1,80,81,6
1,84,81,6
1,82,81,6
1,81,81,120
1,82,81,112
1,85,81,16
1,79,81,6
1,80,81,6
1,82,81,6
1,78,81,0
1,84,81,6
1,80,81,0
1,89,81,6
1,84,81,0
1,82,81,198
1,85,81,6
1,87,81,6
1,87,81,6
1,92,81,0
2,75,64,11328
2,77,64,1544
2,71,64,2120
2,71,64,104
2,71,64,200
2,71,64,8
2,71,64,8
2,71,64,104
2,71,64,200
2,71,64,8
2,71,64,8
2,70,64,8
2,71,64,8
2,73,64,8
2,75,64,776
2,73,64,8
2,75,64,8
2,77,64,8
2,75,64,8
2,77,64,8
2,78,64,8
2,77,64,8
2,78,64,8
2,81,64,8
2,80,64,9992
2,79,64,392
2,80,64,392
2,79,64,384
2,77,64,384
2,76,64,384
2,75,64,13056
2,74,64,8
2,75,64,200
2,74,64,8
2,75,64,200
2,74,64,8
2,75,64,200
2,74,64,8
2,72,64,200
2,72,64,392
2,72,64,8
2,72,64,8
2,72,64,8
2,72,64,200
2,69,64,392
2,69,64,8
2,69,64,8
2,69,64,8
2,73,64,200
2,73,64,2304
2,75,64,0
2,75,64,392
2,76,64,776
2,77,64,1544
2,77,64,392
2,77,64,392
2,77,64,392
2,75,64,584
2,77,64,8
2,75,64,8
2,74,64,8
2,70,80,392
2,75,80,8
2,70,80,8
2,77,80,8
2,70,80,392
2,79,80,8
2,75,80,8
2,80,80,8
2,79,80,8
2,75,64,11720
2,75,64,8
2,75,64,8
2,75,64,8
2,74,64,8
2,75,64,8
2,77,64,8
2,79,64,8
2,75,64,200
2,75,64,8
2,75,64,8
2,75,64,8
2,75,64,8
2,77,64,8
2,79,64,8
2,72,64,8
2,75,64,8
2,79,64,1160
2,79,64,8
2,79,64,8
2,79,64,8
2,77,64,8
2,79,64,8
2,80,64,8
2,82,64,8
2,79,64,200
2,79,64,8
2,79,64,8
2,79,64,8
2,79,64,8
2,80,64,8
2,82,64,8
2,72,64,8
2,75,64,8
2,68,90,2792
2,70,90,8
2,72,90,8
2,72,90,8
2,72,90,8
2,68,90,8
2,67,90,8
2,69,90,1160
2,70,90,8
2,72,90,8
2,72,90,8
2,72,90,8
2,74,90,8
2,74,90,8
2,69,64,6920
2,71,64,200
2,67,64,200
2,69,64,8
2,70,90,200
2,70,90,8
2,70,90,8
2,70,90,8
2,69,90,8
2,70,90,8
2,72,90,8
2,74,90,8
2,70,90,200
2,70,90,8
2,70,90,8
2,70,90,8
2,70,90,8
2,72,90,8
2,74,90,8
2,67,90,8
2,70,90,8
2,74,90,1064
2,74,90,8
2,74,90,8
2,74,90,8
2,72,90,8
2,74,90,8
2,75,90,8
2,77,90,8
2,74,90,200
2,74,90,8
2,74,90,8
2,74,90,8
2,74,90,8
2,75,90,8
2,77,90,8
2,67,90,8
2,70,90,104
2,74,90,104
2,72,90,104
2,74,90,104
2,74,90,200
2,74,90,8
2,74,90,8
2,75,90,8
2,74,90,8
2,72,90,8
2,74,90,8
2,70,90,8
2,74,90,584
2,74,90,8
2,74,90,8
2,75,90,8
2,74,90,8
2,72,90,8
2,77,90,8
2,74,90,8
2,72,90,8
2,70,90,8
2,74,90,8
2,74,90,8
2,72,90,8
2,74,90,8
2,75,90,8
2,77,90,8
2,74,90,200
2,74,90,8
2,74,90,8
2,74,90,8
2,74,90,8
2,72,90,8
2,70,90,8
2,70,90,8
2,58,64,3848
2,53,64,8
2,50,64,8
2,48,64,8
2,65,64,6152
2,70,64,8
2,65,64,104
2,70,64,8
2,65,64,200
2,70,64,8
2,65,64,104
2,70,64,8
2,65,64,200
2,70,64,8
2,65,64,104
2,70,64,8
2,68,64,192
2,66,64,8
2,65,64,8
2,63,64,104
2,69,64,8
2,63,64,104
2,69,64,8
2,63,64,1736
2,69,64,8
2,63,64,104
2,69,64,8
2,63,64,200
2,69,64,8
2,63,64,104
2,69,64,8
2,63,64,200
2,69,64,8
2,63,64,104
2,69,64,8
2,67,64,192
2,65,64,8
2,63,64,8
2,61,64,104
2,63,64,8
2,64,64,8
2,65,64,8
2,70,64,1736
2,70,64,8
2,70,64,8
2,69,64,8
2,70,64,488
2,72,64,488
2,65,64,5000
2,70,64,104
2,67,64,5480
2,72,64,512
2,77,64,13568
2,77,64,1280
2,65,64,2048
2,70,64,104
2,77,64,1640
2,77,64,1280
2,67,64,2048
2,72,64,512
2,72,64,128
2,72,64,64
2,72,64,64
2,72,64,64
2,72,64,64
2,70,64,128
