track,note,velocity,time
1,36,73,467
1,36,0,150
1,36,82,30
1,36,0,150
1,36,72,30
1,36,0,45
1,35,61,15
1,35,0,45
1,33,65,15
1,33,0,150
1,33,79,30
1,33,0,150
1,33,59,30
1,33,0,45
1,31,59,15
1,31,0,45
1,36,74,15
1,36,0,150
1,36,59,30
1,36,0,150
1,36,71,30
1,36,0,45
1,35,77,15
1,35,0,45
1,33,83,15
1,33,0,150
1,33,83,30
1,33,0,150
1,33,71,30
1,33,0,45
1,31,70,15
1,31,0,45
1,36,104,15
1,36,0,90
1,36,115,270
1,36,0,45
1,35,105,15
1,35,0,45
1,33,110,15
1,33,0,150
1,33,104,30
1,33,0,120
1,33,121,60
1,33,0,45
1,31,108,15
1,31,0,45
1,36,111,15
1,36,0,150
1,36,118,30
1,36,0,120
1,36,119,60
1,36,0,45
1,35,102,15
1,35,0,45
1,33,110,15
1,33,0,90
1,33,123,270
1,33,0,45
1,31,121,15
1,31,0,45
1,36,109,15
1,36,0,150
1,36,103,30
1,36,0,120
1,36,114,60
1,36,0,45
1,35,124,15
1,35,0,45
1,33,107,15
1,33,0,150
1,33,106,30
1,33,0,120
1,33,125,60
1,33,0,45
1,31,105,15
1,31,0,45
1,36,117,15
1,36,0,150
1,36,125,30
1,36,0,120
1,36,119,60
1,36,0,45
1,35,111,15
1,35,0,45
1,33,124,15
1,33,0,150
1,33,102,30
1,33,0,120
1,33,105,60
1,33,0,45
1,31,113,15
1,31,0,45
1,36,106,15
1,36,0,150
1,36,124,30
1,36,0,120
1,36,126,60
1,36,0,45
1,35,103,15
1,35,0,45
1,33,125,15
1,33,0,150
1,33,103,30
1,33,0,120
1,33,124,60
1,33,0,45
1,31,119,15
1,31,0,45
1,29,114,15
1,29,0,150
1,29,117,30
1,29,0,120
1,29,122,60
1,29,0,45
1,33,117,15
1,33,0,45
1,31,105,15
1,31,0,90
1,31,105,270
1,31,0,45
1,35,106,15
1,35,0,45
1,36,109,15
1,36,0,150
1,36,106,30
1,36,0,120
1,36,126,60
1,36,0,45
1,35,121,15
1,35,0,45
1,33,115,15
1,33,0,150
1,33,115,30
1,33,0,120
1,33,117,60
1,33,0,45
1,31,124,15
1,31,0,45
1,29,111,15
1,29,0,150
1,29,104,30
1,29,0,120
1,29,109,60
1,29,0,45
1,33,105,15
1,33,0,45
1,31,111,15
1,31,0,150
1,31,103,30
1,31,0,120
1,31,122,60
1,31,0,45
1,35,112,15
1,35,0,45
1,36,120,15
1,36,0,150
1,36,123,30
1,36,0,120
1,36,108,60
1,36,0,45
1,35,126,15
1,35,0,45
1,33,119,15
1,33,0,150
1,33,117,30
1,33,0,120
1,33,124,60
1,33,0,45
1,31,112,15
1,31,0,45
1,29,104,15
1,29,0,150
1,29,127,30
1,29,0,120
1,29,123,60
1,29,0,45
1,33,109,15
1,33,0,45
1,31,118,15
1,31,0,90
1,36,110,390
1,36,0,150
1,36,122,30
1,36,0,120
1,36,108,60
1,36,0,45
1,35,117,15
1,35,0,45
1,33,115,15
1,33,0,150
1,33,117,30
1,33,0,120
1,33,127,60
1,33,0,45
1,31,104,15
1,31,0,45
1,36,106,15
1,36,0,150
1,36,104,30
1,36,0,120
1,36,107,60
1,36,0,45
1,35,127,15
1,35,0,45
1,33,124,15
1,33,0,150
1,33,122,30
1,33,0,120
1,33,110,60
1,33,0,45
1,31,103,15
1,31,0,45
1,36,102,15
1,36,0,150
1,36,123,30
1,36,0,120
1,36,119,60
1,36,0,45
1,33,126,15
1,33,0,45
1,31,117,15
1,31,0,150
1,31,119,30
1,31,0,120
1,31,115,60
1,31,0,90
1,33,105,30
1,33,0,150
1,33,122,30
1,33,0,120
1,31,120,540
1,31,0,45
1,35,127,15
1,35,0,45
1,36,125,15
1,36,0,150
1,36,107,30
1,36,0,120
1,36,119,60
1,36,0,45
1,35,105,15
1,35,0,45
1,33,104,15
1,33,0,150
1,33,104,30
1,33,0,120
1,33,104,60
1,33,0,45
1,31,103,15
1,31,0,45
1,29,105,15
1,29,0,150
1,29,115,30
1,29,0,120
1,29,126,60
1,29,0,45
1,33,102,15
1,33,0,45
1,31,110,15
1,31,0,90
1,31,127,30
1,31,0,90
1,31,108,30
1,31,0,90
1,36,103,150
1,36,0,150
1,36,123,30
1,36,0,120
1,36,103,60
1,36,0,45
1,35,119,15
1,35,0,45
1,33,112,15
1,33,0,150
1,33,118,30
1,33,0,120
1,33,110,60
1,33,0,45
1,31,114,15
1,31,0,45
1,29,116,15
1,29,0,150
1,29,111,30
1,29,0,120
1,29,104,60
1,29,0,45
1,33,117,15
1,33,0,45
1,31,114,15
1,31,0,150
1,31,122,30
1,31,0,120
1,32,106,60
1,32,0,90
1,33,113,30
1,33,0,150
1,33,102,30
1,33,0,120
1,33,111,60
1,33,0,45
1,28,116,15
1,28,0,45
1,31,117,15
1,31,0,150
1,31,105,30
1,31,0,120
1,31,112,60
1,31,0,45
1,33,119,15
1,33,0,45
1,29,112,15
1,29,0,150
1,29,107,30
1,29,0,120
1,29,107,60
1,29,0,45
1,33,120,15
1,33,0,45
1,31,110,15
1,31,0,90
1,31,110,1950
1,31,0,60
1,31,110,60
1,31,0,60
1,29,104,2100
1,29,0,479
1,31,119,1
1,31,0,179
1,33,103,1
1,33,0,299
1,38,123,1
1,38,0,480
1,31,115,60
1,31,0,45
1,31,106,15
1,31,0,45
1,33,123,135
1,33,0,45
1,33,125,15
1,33,0,45
1,38,112,75
1,38,0,150
1,38,112,30
1,38,0,120
1,38,109,60
1,38,0,45
1,37,119,15
1,37,0,45
1,35,106,15
1,35,0,150
1,35,127,30
1,35,0,120
1,35,112,60
1,35,0,45
1,33,117,15
1,33,0,45
1,31,127,15
1,31,0,150
1,31,119,30
1,31,0,120
1,31,118,60
1,31,0,45
1,35,127,15
1,35,0,45
1,33,125,15
1,33,0,150
1,33,108,30
1,33,0,120
1,33,112,60
1,33,0,45
1,37,119,15
1,37,0,45
1,38,126,15
1,38,0,150
1,38,107,30
1,38,0,120
1,38,125,60
1,38,0,45
1,37,116,15
1,37,0,45
1,35,124,15
1,35,0,150
1,35,105,30
1,35,0,120
1,35,105,60
1,35,0,45
1,33,109,15
1,33,0,45
1,31,122,15
1,31,0,150
1,31,108,30
1,31,0,120
1,31,117,60
1,31,0,45
1,35,112,15
1,35,0,45
1,33,125,15
1,33,0,90
1,33,118,30
1,33,0,90
1,33,107,30
1,33,0,90
1,38,111,150
1,38,0,150
1,38,103,30
1,38,0,120
1,38,120,60
1,38,0,45
1,37,125,15
1,37,0,45
1,35,119,15
1,35,0,150
1,35,107,30
1,35,0,120
1,35,120,60
1,35,0,45
1,33,127,15
1,33,0,45
1,31,119,15
1,31,0,150
1,31,113,30
1,31,0,120
1,31,111,60
1,31,0,45
1,35,110,15
1,35,0,45
1,33,109,15
1,33,0,150
1,33,108,30
1,33,0,120
1,33,117,60
1,33,0,45
1,37,102,15
1,37,0,45
1,38,124,15
1,38,0,150
1,38,102,30
1,38,0,120
1,38,108,60
1,38,0,45
1,37,113,15
1,37,0,45
1,35,125,15
1,35,0,150
1,35,121,30
1,35,0,120
1,35,125,60
1,35,0,45
1,33,109,15
1,33,0,45
1,31,116,15
1,31,0,150
1,31,125,30
1,31,0,120
1,31,120,60
1,31,0,45
1,35,105,15
1,35,0,45
1,33,120,15
1,33,0,150
1,33,115,30
1,33,72,45
1,33,0,6
1,33,0,9
1,33,89,0
1,33,0,6
1,33,88,9
1,33,0,6
1,33,108,0
1,33,0,45
1,37,109,15
1,37,0,45
1,38,114,15
1,38,0,150
1,38,102,30
1,38,0,120
1,38,106,60
1,38,0,45
1,37,123,15
1,37,0,45
1,35,112,15
1,35,0,150
1,35,127,30
1,35,0,120
1,35,111,60
1,35,0,45
1,33,123,15
1,33,0,45
1,31,126,15
1,31,0,150
1,31,119,30
1,31,0,120
1,31,107,60
1,31,0,45
1,35,115,15
1,35,0,45
1,33,110,15
1,33,0,150
1,33,118,30
1,33,0,120
1,34,125,60
1,34,0,90
1,35,119,30
1,35,0,150
1,35,123,30
1,35,0,120
1,35,120,60
1,35,0,45
1,30,111,15
1,30,0,45
1,33,116,15
1,33,0,150
1,33,112,30
1,33,0,120
1,33,108,60
1,33,0,45
1,35,118,15
1,35,0,45
1,31,104,15
1,31,0,480
2,31,110,0
2,31,0,60
2,31,127,0
2,31,0,60
2,36,90,0
2,36,0,60
2,36,97,60
2,36,0,45
2,48,64,15
2,48,0,45
2,36,102,15
2,36,0,60
2,33,82,660
2,33,0,60
2,33,88,60
2,33,0,60
2,33,91,60
2,33,0,60
2,33,87,60
2,33,0,60
2,31,87,60
2,31,0,60
2,36,98,420
2,36,0,60
2,36,98,60
2,36,0,60
2,36,98,60
2,36,0,60
2,33,83,660
2,33,0,60
2,33,97,60
2,33,0,60
2,33,99,60
2,33,0,60
2,33,127,0
2,33,0,120
3,48,99,467
3,48,0,150
3,48,115,30
3,48,0,150
3,48,96,30
3,48,0,45
3,47,118,15
3,47,0,45
3,45,104,15
3,45,0,150
3,45,126,30
3,45,0,150
3,45,115,30
3,45,0,45
3,43,124,15
3,43,0,45
3,48,107,15
3,48,0,150
3,48,106,30
3,48,0,150
3,48,125,30
3,48,0,45
3,47,118,15
3,47,0,45
3,45,120,15
3,45,0,150
3,45,101,30
3,45,0,150
3,45,96,30
3,45,0,45
3,43,118,15
3,43,0,45
3,48,96,15
3,48,0,90
3,48,125,270
3,48,0,45
3,47,97,15
3,47,0,45
3,45,113,15
3,45,0,150
3,45,120,30
3,45,0,120
3,45,124,60
3,45,0,45
3,43,100,15
3,43,0,45
3,48,109,15
3,48,0,150
3,48,102,30
3,48,0,120
3,48,100,60
3,48,0,45
3,47,109,15
3,47,0,45
3,45,109,15
3,45,0,90
3,45,118,270
3,45,0,45
3,43,114,15
3,43,0,45
3,48,110,15
3,48,0,150
3,48,99,30
3,48,0,120
3,48,100,60
3,48,0,45
3,47,125,15
3,47,0,45
3,45,108,15
3,45,0,150
3,45,114,30
3,45,0,120
3,45,100,60
3,45,0,45
3,43,106,15
3,43,0,45
3,48,102,15
3,48,0,150
3,48,107,30
3,48,0,120
3,48,97,60
3,48,0,45
3,47,99,15
3,47,0,45
3,45,126,15
3,45,0,150
3,45,126,30
3,45,0,120
3,45,104,60
3,45,0,45
3,43,116,15
3,43,0,45
3,48,106,15
3,48,0,150
3,48,98,30
3,48,0,120
3,48,98,60
3,48,0,45
3,47,97,15
3,47,0,45
3,45,109,15
3,45,0,150
3,45,99,30
3,45,0,120
3,45,117,60
3,45,0,45
3,43,120,15
3,43,0,45
3,41,113,15
3,41,0,150
3,41,110,30
3,41,0,120
3,41,100,60
3,41,0,45
3,45,101,15
3,45,0,45
3,43,97,15
3,43,0,90
3,43,107,270
3,43,0,45
3,47,123,15
3,47,0,45
3,48,102,15
3,48,0,150
3,48,112,30
3,48,0,120
3,48,108,60
3,48,0,45
3,47,127,15
3,47,0,45
3,45,96,15
3,45,0,150
3,45,120,30
3,45,0,120
3,45,106,60
3,45,0,45
3,43,105,15
3,43,0,45
3,41,119,15
3,41,0,150
3,41,102,30
3,41,0,120
3,41,98,60
3,41,0,45
3,45,99,15
3,45,0,45
3,43,111,15
3,43,0,150
3,43,123,30
3,43,0,120
3,43,117,60
3,43,0,45
3,47,97,15
3,47,0,45
3,48,110,15
3,48,0,150
3,48,126,30
3,48,0,120
3,48,99,60
3,48,0,45
3,47,103,15
3,47,0,45
3,45,111,15
3,45,0,150
3,45,124,30
3,45,0,120
3,45,106,60
3,45,0,45
3,43,122,15
3,43,0,45
3,41,111,15
3,41,0,150
3,41,96,30
3,41,0,120
3,41,115,60
3,41,0,45
3,45,97,15
3,45,0,45
3,43,124,15
3,43,0,90
3,48,110,390
3,48,0,150
3,48,123,30
3,48,0,120
3,48,120,60
3,48,0,45
3,47,117,15
3,47,0,45
3,45,126,15
3,45,0,150
3,45,124,30
3,45,0,120
3,45,120,60
3,45,0,45
3,43,119,15
3,43,0,45
3,48,108,15
3,48,0,150
3,48,106,30
3,48,0,120
3,48,117,60
3,48,0,45
3,47,120,15
3,47,0,45
3,45,96,15
3,45,0,150
3,45,106,30
3,45,0,120
3,45,103,60
3,45,0,45
3,43,121,15
3,43,0,45
3,48,111,15
3,48,0,150
3,48,101,30
3,48,0,120
3,48,127,60
3,48,0,45
3,45,125,15
3,45,0,45
3,43,123,15
3,43,0,150
3,43,121,30
3,43,0,120
3,43,114,60
3,43,0,90
3,45,108,30
3,45,0,150
3,45,119,30
3,45,0,120
3,43,124,540
3,43,0,45
3,47,125,15
3,47,0,45
3,48,108,15
3,48,0,150
3,48,127,30
3,48,0,120
3,48,124,60
3,48,0,45
3,47,104,15
3,47,0,45
3,45,118,15
3,45,0,150
3,45,107,30
3,45,0,120
3,45,105,60
3,45,0,45
3,43,121,15
3,43,0,45
3,41,120,15
3,41,0,150
3,41,108,30
3,41,0,120
3,41,127,60
3,41,0,45
3,45,95,15
3,45,0,45
3,43,99,15
3,43,0,90
3,43,103,30
3,43,0,90
3,43,97,30
3,43,0,90
3,48,102,150
3,48,0,150
3,48,99,30
3,48,0,120
3,48,114,60
3,48,0,45
3,47,104,15
3,47,0,45
3,45,124,15
3,45,0,150
3,45,98,30
3,45,0,120
3,45,124,60
3,45,0,45
3,43,112,15
3,43,0,45
3,41,109,15
3,41,0,150
3,41,126,30
3,41,0,120
3,41,95,60
3,41,0,45
3,45,110,15
3,45,0,45
3,43,109,15
3,43,0,150
3,43,105,30
3,43,0,120
3,44,95,60
3,44,0,90
3,45,116,30
3,45,0,150
3,45,118,30
3,45,0,120
3,45,97,60
3,45,0,45
3,40,101,15
3,40,0,45
3,43,101,15
3,43,0,150
3,43,125,30
3,43,0,120
3,43,126,60
3,43,0,45
3,45,115,15
3,45,0,45
3,41,122,15
3,41,0,150
3,41,125,30
3,41,0,120
3,41,95,60
3,41,0,45
3,45,110,15
3,45,0,45
3,43,113,15
3,43,0,90
3,50,103,6150
3,50,0,150
3,50,109,30
3,50,0,120
3,50,103,60
3,50,0,45
3,49,105,15
3,49,0,45
3,47,105,15
3,47,0,150
3,47,96,30
3,47,0,120
3,47,100,60
3,47,0,45
3,45,126,15
3,45,0,45
3,43,106,15
3,43,0,150
3,43,96,30
3,43,0,120
3,43,105,60
3,43,0,45
3,47,117,15
3,47,0,45
3,45,124,15
3,45,0,150
3,45,127,30
3,45,0,120
3,45,125,60
3,45,0,45
3,49,111,15
3,49,0,45
3,50,120,15
3,50,0,150
3,50,118,30
3,50,0,120
3,50,101,60
3,50,0,45
3,49,102,15
3,49,0,45
3,47,112,15
3,47,0,150
3,47,106,30
3,47,0,120
3,47,116,60
3,47,0,45
3,45,126,15
3,45,0,45
3,43,123,15
3,43,0,150
3,43,98,30
3,43,0,120
3,43,111,60
3,43,0,45
3,47,123,15
3,47,0,45
3,45,122,15
3,45,0,90
3,45,96,30
3,45,0,90
3,45,102,30
3,45,0,90
3,50,127,150
3,50,0,150
3,50,105,30
3,50,0,120
3,50,113,60
3,50,0,45
3,49,123,15
3,49,0,45
3,47,97,15
3,47,0,150
3,47,99,30
3,47,0,120
3,47,102,60
3,47,0,45
3,45,95,15
3,45,0,45
3,43,115,15
3,43,0,150
3,43,103,30
3,43,0,120
3,43,122,60
3,43,0,45
3,47,127,15
3,47,0,45
3,45,103,15
3,45,0,150
3,45,103,30
3,45,0,120
3,45,122,60
3,45,0,45
3,49,119,15
3,49,0,45
3,50,114,15
3,50,0,150
3,50,111,30
3,50,0,120
3,50,127,60
3,50,0,45
3,49,102,15
3,49,0,45
3,47,127,15
3,47,0,150
3,47,113,30
3,47,0,120
3,47,110,60
3,47,0,45
3,45,106,15
3,45,0,45
3,43,126,15
3,43,0,150
3,43,118,30
3,43,0,120
3,43,111,60
3,43,0,45
3,47,126,15
3,47,0,45
3,45,126,15
3,45,0,150
3,45,124,30
3,45,0,120
3,50,100,180
3,50,0,150
