track,note,velocity,time
5,60,87,0
5,60,0,82
5,60,81,13
5,60,0,58
5,60,84,39
5,60,0,52
5,60,95,43
5,60,0,82
5,60,97,15
5,60,0,38
5,60,91,153
5,62,81,97
5,60,0,6
5,62,0,90
5,59,72,0
5,59,0,95
5,55,84,0
5,55,0,24
5,55,76,73
5,55,0,81
5,53,79,0
5,53,0,95
5,55,81,0
5,55,0,155
5,55,84,0
5,60,85,97
5,55,0,13
5,60,0,29
5,60,88,53
5,60,0,97
5,62,90,0
5,62,0,96
5,63,78,0
5,63,0,36
5,62,100,59
5,62,0,183
5,60,105,9
5,60,0,10
5,60,81,0
5,60,0,76
5,60,91,21
5,60,0,84
5,60,85,12
5,60,0,55
5,60,105,40
5,60,0,87
5,60,74,10
5,60,0,39
5,60,85,153
5,60,0,87
5,62,74,9
5,62,0,95
5,59,69,0
5,59,0,73
5,55,76,24
5,55,0,18
5,55,72,77
5,55,0,96
5,58,90,0
5,58,0,30
5,58,90,67
5,58,0,90
5,53,77,6
5,53,0,143
5,51,61,0
5,51,0,97
5,53,76,0
5,53,0,131
5,55,87,0
5,55,0,95
5,60,85,0
5,60,0,36
5,60,88,61
5,60,0,96
5,62,88,0
5,62,0,89
5,63,63,6
5,63,0,30
5,62,100,67
5,62,0,183
5,60,91,8
5,60,0,182
5,63,114,10
5,63,0,158
5,63,114,35
5,63,0,86
5,63,114,106
5,63,0,70
5,63,114,25
5,63,0,88
5,65,90,9
5,65,0,96
5,63,104,0
5,63,0,60
5,62,114,35
5,62,0,168
5,62,102,25
5,62,0,176
5,60,97,208
5,60,0,96
5,62,88,0
5,62,0,82
5,63,114,13
5,63,0,168
5,63,114,24
5,63,0,97
5,63,114,96
5,63,0,76
5,63,104,19
5,63,0,97
5,65,81,0
5,65,0,71
5,63,99,25
5,63,0,39
5,67,108,56
5,67,0,179
5,67,109,13
5,67,0,1
5,72,100,0
5,72,0,24
5,67,108,71
5,65,99,97
5,67,0,6
5,65,0,80
5,63,110,9
5,63,0,107
5,60,114,86
5,60,0,76
5,60,109,19
5,60,0,63
5,60,112,34
5,60,0,53
5,60,114,43
5,60,0,192
5,60,109,95
5,60,0,92
5,59,114,5
5,59,0,86
5,60,105,10
5,60,0,89
5,62,114,6
5,62,0,28
5,63,114,0
5,63,0,81
5,63,107,14
5,63,0,35
5,63,114,62
5,63,0,31
5,63,114,64
5,63,0,13
5,63,114,0
5,63,0,97
5,65,95,0
5,65,0,85
5,67,97,10
5,67,0,37
5,67,99,60
5,68,70,0
5,67,0,34
5,68,0,0
5,67,97,62
5,67,0,73
5,60,114,0
5,60,0,83
5,60,102,14
5,60,0,40
5,60,114,56
5,60,0,33
5,60,114,62
5,60,0,30
5,60,114,67
5,60,0,64
5,60,108,31
5,60,0,97
5,59,99,0
5,59,0,84
5,60,100,12
5,60,0,82
5,62,108,13
5,62,0,74
5,63,114,0
5,63,0,84
5,65,100,13
5,65,0,82
5,67,109,13
5,67,0,52
5,67,114,45
5,67,0,192
5,65,105,0
5,63,110,49
5,65,0,12
5,65,108,36
5,63,0,4
5,65,0,85
5,63,110,7
5,63,0,30
5,67,114,0
5,67,0,95
5,68,107,0
5,68,0,85
5,67,114,12
5,67,0,85
5,68,114,10
5,68,0,85
5,67,114,12
5,67,0,72
5,68,114,24
5,68,0,73
5,67,114,22
5,67,0,10
5,60,114,0
5,60,0,69
5,60,114,27
5,60,0,70
5,60,114,25
5,60,0,54
5,60,108,43
5,60,0,87
5,60,114,9
5,60,0,70
5,60,114,122
5,60,0,85
5,62,108,10
5,62,0,80
5,59,100,17
5,59,0,77
5,55,100,19
5,55,0,15
5,55,99,80
5,55,0,97
5,53,95,0
5,55,88,96
5,53,0,5
5,55,0,84
5,60,97,0
5,56,110,0
5,56,0,78
5,60,0,4
5,56,69,15
5,60,93,0
5,56,0,58
5,60,0,0
5,62,91,37
5,58,101,0
5,58,0,62
5,62,0,12
5,60,88,23
5,63,58,0
5,60,0,56
5,63,0,0
5,62,99,40
5,59,91,0
5,59,0,168
5,62,0,24
5,60,90,0
5,55,100,0
5,60,0,191
5,55,0,0
5,60,109,97
5,60,0,82
5,60,97,13
5,60,0,80
5,60,81,17
5,60,0,56
5,60,109,40
5,60,0,82
5,60,93,13
5,60,0,87
5,60,108,105
5,60,0,97
5,62,95,0
5,62,0,87
5,59,79,9
5,59,0,88
5,55,85,7
5,55,0,14
5,55,97,83
5,55,0,171
5,55,90,20
5,55,0,97
5,53,81,0
5,53,0,76
5,55,91,19
5,53,84,97
5,55,0,4
5,53,0,83
5,51,58,9
5,51,0,95
5,53,90,0
5,53,0,43
5,53,87,54
5,53,0,130
5,53,79,0
5,53,0,27
5,60,95,70
5,56,107,0
5,56,0,38
5,60,0,20
5,60,97,38
5,56,110,0
5,56,0,72
5,60,0,23
5,58,93,0
5,62,84,0
5,62,0,69
5,58,0,13
5,63,90,15
5,63,0,48
5,62,93,47
5,59,90,0
5,59,0,175
5,62,0,8
5,60,93,10
5,55,91,0
5,60,0,127
5,55,0,0
5,60,112,65
5,63,114,0
5,60,0,163
5,63,0,0
5,60,114,29
5,63,114,0
5,60,0,115
5,63,0,0
5,63,114,76
5,63,0,85
5,63,104,12
5,63,0,84
5,65,95,12
5,65,0,95
5,63,114,0
5,63,0,70
5,62,114,27
5,59,95,0
5,59,0,169
5,62,0,3
5,62,114,20
5,59,102,0
5,62,0,191
5,59,0,0
5,60,95,192
5,60,0,97
5,62,82,0
5,62,0,80
5,63,114,16
5,58,104,0
5,58,0,153
5,63,0,11
5,58,110,28
5,63,114,0
5,63,0,113
5,58,0,12
5,63,114,66
5,63,0,84
5,63,114,13
5,63,0,85
5,65,93,10
5,65,0,83
5,63,90,14
5,63,0,68
5,67,114,28
5,67,0,167
5,67,114,25
5,67,0,192
5,72,114,0
5,72,0,34
5,67,114,62
5,67,0,77
5,65,100,18
5,65,0,97
5,63,114,0
5,63,0,111
5,60,114,80
5,60,0,78
5,60,109,19
5,60,0,62
5,60,112,33
5,60,0,55
5,60,114,42
5,60,0,2
5,60,109,0
5,60,0,91
5,59,114,4
5,59,0,88
5,60,105,9
5,60,0,89
5,62,114,7
5,62,0,27
5,63,114,0
5,63,0,81
5,63,107,15
5,63,0,33
5,63,114,62
5,63,0,33
5,63,114,64
5,63,0,13
5,63,114,0
5,63,0,95
5,65,95,0
5,65,0,85
5,67,97,12
5,67,0,37
5,67,99,59
5,68,70,0
5,67,0,35
5,68,0,0
5,67,97,60
5,67,0,74
5,60,114,0
5,60,0,82
5,60,102,13
5,60,0,40
5,60,114,57
5,60,0,34
5,60,114,62
5,60,0,30
5,60,114,65
5,60,0,64
5,60,108,33
5,60,0,96
5,59,99,0
5,59,0,84
5,60,100,11
5,60,0,84
5,62,108,13
5,62,0,72
5,63,114,0
5,63,0,82
5,65,100,13
5,65,0,82
5,67,109,15
5,67,0,50
5,67,114,45
5,67,0,2
5,65,105,0
5,63,110,47
5,65,0,14
5,65,108,35
5,63,0,5
5,65,0,85
5,63,110,5
5,63,0,30
5,67,114,0
5,67,0,96
5,68,107,0
5,68,0,85
5,67,114,10
5,67,0,85
5,68,114,12
5,68,0,85
5,67,114,10
5,67,0,74
5,68,114,23
5,68,0,72
5,67,114,24
5,67,0,9
5,60,91,0
5,60,0,191
5,70,87,0
5,70,0,24
5,60,88,0
5,60,0,66
5,60,84,31
5,60,0,73
5,60,77,22
5,60,0,49
5,60,68,48
5,60,0,80
5,60,68,16
5,60,0,86
5,60,76,106
5,60,0,96
5,62,75,0
5,59,70,95
5,62,0,5
5,59,0,85
5,55,69,7
5,55,0,25
5,55,85,70
5,55,0,96
5,53,70,0
5,53,0,97
5,55,78,0
5,55,0,92
5,60,108,0
5,60,0,73
5,60,85,23
5,60,0,60
5,60,91,35
5,60,0,47
5,60,95,50
5,60,0,88
5,60,100,7
5,60,0,76
5,60,100,117
5,60,0,95
5,62,95,0
5,62,0,42
5,62,91,55
5,62,0,22
5,62,84,73
5,62,0,36
5,62,99,61
5,62,0,97
5,60,76,0
5,60,0,34
5,62,112,62
5,60,91,0
5,62,0,24
5,60,0,165
5,63,114,0
5,58,104,0
5,58,0,81
5,63,0,6
5,58,89,8
5,65,90,0
5,58,0,58
5,65,0,0
5,67,105,39
5,63,104,0
5,60,90,0
5,60,0,22
5,63,0,6
5,67,0,2
5,67,108,65
5,63,114,0
5,60,87,0
5,60,0,9
5,67,0,3
5,63,0,0
5,60,63,0
5,63,81,0
5,60,0,12
5,63,0,0
5,63,114,83
5,60,95,0
5,60,0,73
5,63,0,19
5,62,75,5
5,65,93,0
5,65,0,83
5,62,0,1
5,63,101,12
5,67,93,0
5,63,0,24
5,67,0,0
5,67,99,71
5,63,114,0
5,63,0,50
5,67,0,12
5,65,109,0
5,65,0,95
5,63,114,0
5,63,0,79
5,65,82,18
5,65,0,70
5,67,95,26
5,67,0,24
5,67,114,71
5,65,95,0
5,67,0,20
5,65,0,55
5,63,114,21
5,63,0,70
5,65,114,0
5,65,0,72
5,63,114,23
5,64,59,0
5,64,0,21
5,63,0,14
5,70,114,62
5,70,0,150
5,68,114,42
5,68,0,163
5,67,114,28
5,67,0,97
5,65,90,0
5,65,0,91
5,63,114,4
5,63,0,83
5,67,114,14
5,67,0,174
5,65,97,0
5,63,114,95
5,65,0,5
5,63,0,82
5,65,81,10
5,65,0,95
5,67,88,0
5,67,0,25
5,67,114,72
5,68,78,47
5,67,0,9
5,68,0,27
5,67,114,13
5,67,0,70
5,65,108,0
5,65,0,97
5,63,104,0
5,65,82,96
5,63,0,5
5,65,0,74
5,67,90,16
5,67,0,23
5,67,114,74
5,65,114,191
5,67,0,21
5,65,0,72
5,63,104,4
5,63,0,95
5,67,114,0
5,67,0,123
5,67,114,0
5,63,114,0
5,63,0,39
5,67,0,10
5,68,107,48
5,68,0,56
5,63,107,40
5,67,114,0
5,67,0,63
5,63,0,3
5,63,101,29
5,68,114,0
5,68,0,69
5,63,0,4
5,62,114,24
5,67,114,0
5,67,0,70
5,62,0,1
5,68,114,25
5,62,102,0
5,68,0,66
5,62,0,0
5,62,114,29
5,67,114,0
5,67,0,173
5,62,0,6
5,60,114,110
5,60,0,77
5,60,109,19
5,60,0,63
5,60,112,32
5,60,0,54
5,60,114,43
5,60,0,1
5,60,109,0
5,60,0,91
5,59,114,4
5,59,0,86
5,60,105,11
5,60,0,89
5,62,114,7
5,62,0,27
5,63,114,0
5,63,0,82
5,63,107,13
5,63,0,34
5,63,114,63
5,63,0,31
5,63,114,65
5,63,0,12
5,63,114,0
5,63,0,95
5,65,95,0
5,65,0,85
5,67,97,12
5,67,0,36
5,67,99,59
5,68,70,0
5,67,0,36
5,68,0,0
5,67,97,61
5,67,0,73
5,60,114,0
5,60,0,82
5,60,102,13
5,60,0,40
5,60,114,57
5,60,0,34
5,60,114,62
5,60,0,30
5,60,114,65
5,60,0,64
5,60,108,33
5,60,0,95
5,59,99,0
5,59,0,85
5,60,100,12
5,60,0,83
5,62,108,13
5,62,0,73
5,63,114,0
5,63,0,83
5,65,100,14
5,65,0,81
5,67,109,15
5,67,0,51
5,67,114,44
5,67,0,1
5,65,105,0
5,63,110,48
5,65,0,13
5,65,108,34
5,63,0,6
5,65,0,85
5,63,110,6
5,63,0,30
5,67,114,0
5,67,0,95
5,68,107,0
5,68,0,85
5,67,114,12
5,67,0,84
5,68,114,12
5,68,0,85
5,67,114,10
5,67,0,73
5,68,114,24
5,68,0,73
5,67,114,23
5,67,0,9
5,60,114,0
5,60,0,77
5,60,109,20
5,60,0,62
5,60,112,34
5,60,0,54
5,60,114,41
5,60,0,1
5,60,109,0
5,60,0,90
5,59,114,6
5,59,0,86
5,60,105,9
5,60,0,89
5,62,114,8
5,62,0,27
5,63,114,0
5,63,0,82
5,63,107,15
5,63,0,33
5,63,114,62
5,63,0,33
5,63,114,64
5,63,0,14
5,63,114,0
5,63,0,96
5,65,95,0
5,65,0,84
5,67,97,11
5,67,0,38
5,67,99,59
5,68,70,0
5,67,0,34
5,68,0,0
5,67,97,61
5,67,0,74
5,60,114,0
5,60,0,83
5,60,102,13
5,60,0,39
5,60,114,56
5,60,0,34
5,60,114,63
5,60,0,30
5,60,114,66
5,60,0,63
5,60,108,32
5,60,0,97
5,59,99,0
5,59,0,85
5,60,100,10
5,60,0,83
5,62,108,14
5,62,0,73
5,63,114,0
5,63,0,82
5,65,100,13
5,65,0,82
5,67,109,15
5,67,0,50
5,67,114,46
5,67,0,191
5,65,105,0
5,63,110,48
5,65,0,13
5,65,108,36
5,63,0,4
5,65,0,85
5,63,110,6
5,63,0,31
5,67,114,0
5,67,0,97
5,68,107,0
5,68,0,85
5,67,114,10
5,67,0,85
5,68,114,12
5,68,0,84
5,67,114,12
5,67,0,73
5,68,114,22
5,68,0,73
5,67,114,24
5,67,0,11
6,63,114,0
6,55,99,0
6,60,114,0
6,51,114,0
6,51,0,63
6,55,0,11
6,60,0,0
6,63,0,2
6,51,110,19
6,60,112,0
6,63,114,0
6,55,91,0
6,51,0,61
6,60,0,0
6,63,0,0
6,55,0,0
6,51,110,36
6,55,90,0
6,63,114,0
6,60,114,0
6,51,0,64
6,55,0,0
6,63,0,0
6,60,0,0
6,63,114,32
6,60,114,0
6,55,105,0
6,51,114,0
6,55,0,179
6,51,0,0
6,60,0,3
6,63,0,3
6,51,110,102
6,55,85,0
6,63,114,0
6,60,109,0
6,63,0,64
6,60,0,0
6,55,0,4
6,51,0,29
6,55,81,0
6,59,99,0
6,62,114,0
6,50,105,0
6,62,0,72
6,50,0,0
6,59,0,5
6,55,0,3
6,51,93,16
6,59,84,0
6,55,63,0
6,63,114,0
6,63,0,55
6,55,0,5
6,59,0,3
6,51,0,4
6,53,114,28
6,59,114,0
6,65,112,0
6,55,102,0
6,62,100,0
6,62,0,168
6,65,0,2
6,55,0,0
6,59,0,4
6,53,0,18
6,65,114,0
6,65,0,174
6,65,112,19
6,57,72,0
6,57,0,12
6,65,0,83
6,63,114,0
6,63,0,174
6,55,114,19
6,63,114,0
6,67,114,0
6,58,114,0
6,67,0,70
6,58,0,0
6,55,0,2
6,63,0,0
6,63,114,23
6,58,114,0
6,67,112,0
6,55,100,0
6,55,0,47
6,58,0,7
6,67,0,0
6,63,0,3
6,58,114,40
6,55,112,0
6,67,114,0
6,63,114,0
6,55,0,34
6,67,0,0
6,63,0,0
6,58,0,2
6,63,114,59
6,58,114,0
6,67,112,0
6,55,114,0
6,55,0,193
6,67,0,24
6,55,99,0
6,67,81,0
6,63,0,15
6,58,0,0
6,55,0,9
6,67,0,0
6,56,114,73
6,65,114,0
6,60,95,0
6,60,0,77
6,56,0,5
6,65,0,0
6,56,93,13
6,60,75,0
6,67,97,0
6,58,110,0
6,56,0,33
6,60,0,0
6,67,0,0
6,58,0,0
6,60,108,64
6,68,114,0
6,56,114,0
6,56,0,22
6,68,0,61
6,60,0,4
6,59,114,9
6,67,102,0
6,59,0,49
6,67,0,0
6,63,114,0
6,55,81,0
6,60,102,0
6,51,114,0
6,51,0,65
6,63,0,17
6,55,0,0
6,60,0,0
6,55,77,15
6,60,95,0
6,63,110,0
6,51,114,0
6,55,0,25
6,60,0,0
6,63,0,0
6,51,0,0
6,51,104,71
6,63,107,0
6,55,84,0
6,60,95,0
6,55,0,24
6,60,0,0
6,63,0,4
6,51,0,35
6,51,104,32
6,63,107,0
6,55,88,0
6,60,90,0
6,60,0,20
6,63,0,4
6,55,0,0
6,51,0,28
6,51,104,45
6,63,101,0
6,55,81,0
6,60,87,0
6,60,0,19
6,55,0,5
6,51,0,9
6,63,0,0
6,63,104,62
6,60,88,0
6,51,110,0
6,55,76,0
6,60,0,25
6,51,0,0
6,55,0,0
6,63,0,12
6,62,91,60
6,59,87,0
6,55,72,0
6,50,100,0
6,55,0,25
6,50,0,0
6,59,0,9
6,62,0,9
6,63,114,53
6,51,101,0
6,63,0,30
6,51,0,0
