track,note,velocity,time
1,60,100,600
1,60,0,60
1,60,100,60
1,60,0,120
1,60,100,0
1,60,0,60
1,60,100,60
1,60,0,120
1,60,100,0
1,60,0,60
1,60,100,1380
1,60,0,60
1,60,100,60
1,60,0,120
1,60,100,0
1,60,0,60
1,60,100,60
1,60,0,120
1,60,100,0
1,60,0,60
1,60,100,1380
1,60,0,60
1,60,100,60
1,60,0,120
1,60,100,0
1,60,0,60
1,60,100,60
1,60,0,120
1,60,100,0
1,60,0,60
1,60,100,180
1,60,0,120
1,62,100,0
1,62,0,120
1,59,100,0
1,59,0,120
1,55,100,0
1,55,0,120
1,55,100,0
1,55,0,180
1,53,100,180
1,53,0,120
1,55,100,0
1,55,0,180
1,55,100,780
1,55,0,120
1,60,100,0
1,60,0,120
1,60,100,0
1,60,0,120
1,62,100,0
1,62,0,120
1,63,100,0
1,63,0,120
1,62,100,0
1,62,0,240
1,60,100,0
1,60,0,240
1,60,100,120
1,60,0,60
1,60,100,60
1,60,0,120
1,60,100,0
1,60,0,60
1,60,100,60
1,60,0,120
1,60,100,0
1,60,0,60
1,60,100,180
1,60,0,120
1,62,100,0
1,62,0,120
1,59,100,0
1,59,0,120
1,55,100,0
1,55,0,120
1,55,100,0
1,55,0,180
1,58,100,180
1,58,0,120
1,58,100,0
1,58,0,60
1,55,100,0
1,55,0,120
1,53,100,0
1,53,0,30
1,55,100,0
1,55,0,90
1,53,100,0
1,53,0,60
1,51,100,0
1,51,0,60
1,53,100,0
1,53,0,60
1,55,100,0
1,55,0,60
1,53,100,0
1,53,0,60
1,55,100,0
1,55,0,120
1,55,100,240
1,55,0,120
1,60,100,0
1,60,0,120
1,60,100,0
1,60,0,120
1,62,100,0
1,62,0,120
1,63,100,0
1,63,0,120
1,62,100,0
1,62,0,240
1,60,100,0
1,60,0,240
1,67,100,0
1,63,100,0
1,63,0,240
1,67,0,0
1,67,100,0
1,63,100,0
1,63,0,180
1,67,0,0
1,63,100,60
1,63,0,120
1,63,100,0
1,63,0,120
1,65,100,0
1,65,0,120
1,63,100,0
1,63,0,120
1,65,100,0
1,62,100,0
1,62,0,240
1,65,0,0
1,65,100,0
1,62,100,0
1,62,0,180
1,65,0,0
1,60,100,300
1,60,0,120
1,62,100,0
1,62,0,120
1,67,100,0
1,63,100,0
1,63,0,240
1,67,0,0
1,67,100,0
1,63,100,0
1,63,0,180
1,67,0,0
1,63,100,60
1,63,0,120
1,63,100,0
1,63,0,120
1,65,100,0
1,65,0,120
1,63,100,0
1,63,0,120
1,67,100,0
1,67,0,240
1,67,100,0
1,67,0,240
1,72,100,0
1,72,0,60
1,67,100,60
1,67,0,120
1,65,100,0
1,65,0,120
1,63,100,0
1,63,0,120
1,60,100,120
1,60,0,120
1,60,100,0
1,60,0,120
1,60,100,0
1,60,0,120
1,60,100,0
1,60,0,180
1,60,100,180
1,60,0,120
1,59,100,0
1,59,0,120
1,60,100,0
1,60,0,120
1,62,100,0
1,62,0,240
1,67,100,0
1,67,0,120
1,65,100,0
1,65,0,120
1,65,100,0
1,65,0,120
1,63,100,0
1,63,0,180
1,63,100,60
1,63,0,120
1,63,100,0
1,63,0,120
1,63,100,0
1,63,0,120
1,63,100,0
1,63,0,180
1,63,100,180
1,63,0,120
1,65,100,0
1,65,0,120
1,67,100,0
1,67,0,120
1,68,100,0
1,68,0,120
1,67,100,0
1,67,0,180
1,60,100,540
1,60,0,120
1,60,100,0
1,60,0,120
1,60,100,0
1,60,0,120
1,60,100,0
1,60,0,120
1,60,100,0
1,60,0,120
1,60,100,0
1,60,0,120
1,59,100,0
1,59,0,120
1,60,100,0
1,60,0,120
1,62,100,0
1,62,0,240
1,63,100,120
1,63,0,120
1,65,100,0
1,65,0,120
1,67,100,0
1,67,0,120
1,67,100,0
1,67,0,480
1,65,100,0
1,65,0,60
1,63,100,0
1,63,0,60
1,65,100,0
1,65,0,60
1,63,100,0
1,63,0,180
1,67,100,240
1,67,0,120
1,68,100,0
1,68,0,120
1,67,100,0
1,67,0,120
1,68,100,0
1,68,0,120
1,67,100,0
1,67,0,120
1,68,100,0
1,68,0,120
1,67,100,0
1,67,0,240
1,60,100,120
1,60,0,60
1,60,100,60
1,60,0,120
1,60,100,0
1,60,0,60
1,60,100,60
1,60,0,120
1,60,100,0
1,60,0,60
1,60,100,180
1,60,0,120
1,62,100,0
1,62,0,120
1,59,100,0
1,59,0,120
1,55,100,0
1,55,0,120
1,55,100,0
1,55,0,180
1,53,100,180
1,53,0,120
1,55,100,0
1,55,0,180
1,63,100,900
1,60,100,0
1,60,0,120
1,63,0,0
1,63,100,0
1,60,100,0
1,60,0,120
1,63,0,0
1,65,100,0
1,62,100,0
1,62,0,120
1,65,0,0
1,67,100,0
1,63,100,0
1,63,0,120
1,67,0,0
1,65,100,0
1,62,100,0
1,62,0,240
1,65,0,0
1,63,100,0
1,60,100,0
1,60,0,240
1,63,0,0
1,60,100,120
1,60,0,60
1,60,100,60
1,60,0,120
1,60,100,0
1,60,0,60
1,63,100,60
1,60,100,0
1,60,0,120
1,63,0,0
1,63,100,0
1,60,100,0
1,60,0,60
1,63,0,0
1,60,100,60
1,63,100,0
1,63,0,120
1,60,0,0
1,65,100,0
1,62,100,0
1,62,0,120
1,65,0,0
1,62,100,120
1,59,100,0
1,59,0,120
1,55,100,0
1,55,0,120
1,62,0,0
1,55,100,0
1,62,100,0
1,62,0,180
1,55,0,0
1,53,100,60
1,62,100,0
1,62,0,180
1,53,0,0
1,62,100,60
1,53,100,0
1,53,0,120
1,62,0,0
1,63,100,0
1,55,100,0
1,55,0,120
1,63,0,0
1,55,100,0
1,63,100,0
1,63,0,240
1,55,0,0
1,55,100,480
1,55,0,120
1,60,100,0
1,60,0,120
1,60,100,0
1,60,0,120
1,62,100,0
1,62,0,120
1,63,100,0
1,63,0,120
1,62,100,0
1,62,0,240
1,60,100,0
1,60,0,240
1,67,100,0
1,63,100,0
1,63,0,240
1,67,0,0
1,67,100,0
1,63,100,0
1,63,0,180
1,67,0,0
1,63,100,60
1,63,0,120
1,63,100,0
1,63,0,120
1,65,100,0
1,65,0,120
1,63,100,0
1,63,0,120
1,65,100,0
1,62,100,0
1,62,0,240
1,65,0,0
1,65,100,0
1,62,100,0
1,62,0,180
1,65,0,0
1,60,100,300
1,60,0,120
1,62,100,0
1,62,0,120
1,67,100,0
1,63,100,0
1,63,0,240
1,67,0,0
1,67,100,0
1,63,100,0
1,63,0,180
1,67,0,0
1,63,100,60
1,63,0,120
1,63,100,0
1,63,0,120
1,65,100,0
1,65,0,120
1,63,100,0
1,63,0,120
1,67,100,0
1,67,0,240
1,67,100,0
1,67,0,240
1,72,100,0
1,72,0,60
1,67,100,60
1,67,0,120
1,65,100,0
1,65,0,120
1,63,100,0
1,63,0,120
1,60,100,120
1,60,0,120
1,60,100,0
1,60,0,120
1,60,100,0
1,60,0,120
1,60,100,0
1,60,0,180
1,60,100,180
1,60,0,120
1,59,100,0
1,59,0,120
1,60,100,0
1,60,0,120
1,62,100,0
1,62,0,240
1,67,100,0
1,67,0,120
1,65,100,0
1,65,0,120
1,65,100,0
1,65,0,120
1,63,100,0
1,63,0,180
1,63,100,60
1,63,0,120
1,63,100,0
1,63,0,120
1,63,100,0
1,63,0,120
1,63,100,0
1,63,0,180
1,63,100,180
1,63,0,120
1,65,100,0
1,65,0,120
1,67,100,0
1,67,0,120
1,68,100,0
1,68,0,120
1,67,100,0
1,67,0,180
1,60,100,540
1,60,0,120
1,60,100,0
1,60,0,120
1,60,100,0
1,60,0,120
1,60,100,0
1,60,0,120
1,60,100,0
1,60,0,120
1,60,100,0
1,60,0,120
1,59,100,0
1,59,0,120
1,60,100,0
1,60,0,120
1,62,100,0
1,62,0,240
1,63,100,120
1,63,0,120
1,65,100,0
1,65,0,120
1,67,100,0
1,67,0,120
1,67,100,0
1,67,0,480
1,65,100,0
1,65,0,60
1,63,100,0
1,63,0,60
1,65,100,0
1,65,0,60
1,63,100,0
1,63,0,180
1,67,100,240
1,67,0,120
1,68,100,0
1,68,0,120
1,67,100,0
1,67,0,120
1,68,100,0
1,68,0,120
1,67,100,0
1,67,0,120
1,68,100,0
1,68,0,120
1,67,100,0
1,67,0,240
1,60,100,120
1,60,0,60
1,60,100,60
1,60,0,120
1,60,100,0
1,60,0,60
1,60,100,60
1,60,0,120
1,60,100,0
1,60,0,60
1,58,100,900
1,58,0,120
1,60,100,0
1,60,0,120
1,72,100,0
1,72,0,180
1,60,100,60
1,60,0,60
1,60,100,60
1,60,0,120
1,60,100,0
1,60,0,60
1,60,100,60
1,60,0,120
1,60,100,0
1,60,0,60
1,66,100,165
1,66,0,15
1,67,100,0
1,67,0,120
1,65,100,0
1,65,0,60
1,63,100,60
1,63,0,120
1,60,100,0
1,60,0,120
1,60,100,720
1,60,0,60
1,60,100,60
1,60,0,120
1,60,100,0
1,60,0,60
1,60,100,60
1,60,0,120
1,60,100,0
1,60,0,60
1,60,100,180
1,60,0,120
1,62,100,0
1,62,0,120
1,59,100,0
1,59,0,120
1,55,100,0
1,55,0,120
1,55,100,0
1,55,0,180
1,53,100,180
1,53,0,120
1,55,100,0
1,55,0,180
1,60,100,1980
1,60,0,60
1,60,100,60
1,60,0,120
1,60,100,0
1,60,0,60
1,60,100,60
1,60,0,120
1,60,100,0
1,60,0,60
1,60,100,180
1,60,0,120
1,62,100,0
1,62,0,120
1,62,100,0
1,62,0,120
1,62,100,0
1,62,0,120
1,62,100,0
1,62,0,240
1,60,100,0
1,60,0,240
1,63,100,0
1,63,0,150
1,60,100,0
1,60,0,30
1,62,100,0
1,62,0,60
1,63,100,0
1,63,0,60
1,62,100,0
1,62,0,60
1,60,100,0
1,60,0,330
1,58,100,0
1,58,0,30
1,60,100,0
1,60,0,60
1,58,100,0
1,58,0,60
1,55,100,0
1,55,0,60
1,58,100,0
1,58,0,60
1,60,100,0
1,60,0,60
1,58,100,0
1,58,0,60
1,60,100,0
1,60,0,240
1,63,100,240
1,63,0,120
1,65,100,0
1,65,0,120
1,67,100,0
1,67,0,120
1,67,100,0
1,67,0,240
1,63,100,240
1,63,0,120
1,63,100,0
1,63,0,120
1,65,100,0
1,65,0,120
1,67,100,0
1,67,0,120
1,67,100,0
1,67,0,240
1,63,100,240
1,63,0,120
1,63,100,0
1,63,0,120
1,65,100,0
1,65,0,120
1,67,100,0
1,67,0,120
1,67,100,0
1,67,0,240
1,68,100,0
1,68,0,120
1,67,100,0
1,67,0,120
1,65,100,0
1,65,0,120
1,63,100,0
1,63,0,180
1,63,100,60
1,63,0,120
1,63,100,0
1,63,0,120
1,70,100,0
1,70,0,180
1,68,100,60
1,68,0,180
1,67,100,60
1,67,0,180
1,65,100,60
1,65,0,120
1,67,100,0
1,67,0,180
1,63,100,300
1,63,0,120
1,63,100,0
1,63,0,120
1,65,100,0
1,65,0,120
1,67,100,0
1,67,0,120
1,67,100,0
1,67,0,180
1,63,100,300
1,63,0,120
1,63,100,0
1,63,0,120
1,65,100,0
1,65,0,120
1,67,100,0
1,67,0,120
1,67,100,0
1,67,0,480
1,65,100,0
1,65,0,60
1,63,100,0
1,63,0,60
1,65,100,0
1,65,0,60
1,63,100,0
1,63,0,180
1,67,100,240
1,67,0,120
1,68,100,0
1,68,0,120
1,67,100,0
1,67,0,120
1,68,100,0
1,68,0,120
1,67,100,0
1,67,0,120
1,68,100,0
1,68,0,120
1,67,100,0
1,67,0,240
1,60,100,120
1,60,0,120
1,60,100,0
1,60,0,120
1,60,100,0
1,60,0,120
1,60,100,0
1,60,0,180
1,60,100,180
1,60,0,120
1,59,100,0
1,59,0,120
1,60,100,0
1,60,0,120
1,62,100,0
1,62,0,240
1,67,100,0
1,67,0,120
1,65,100,0
1,65,0,120
1,65,100,0
1,65,0,120
1,63,100,0
1,63,0,180
1,63,100,60
1,63,0,120
1,63,100,0
1,63,0,120
1,63,100,0
1,63,0,120
1,63,100,0
1,63,0,180
1,63,100,180
1,63,0,120
1,65,100,0
1,65,0,120
1,67,100,0
1,67,0,120
1,68,100,0
1,68,0,120
1,67,100,0
1,67,0,180
1,60,100,540
1,60,0,120
1,60,100,0
1,60,0,120
1,60,100,0
1,60,0,120
1,60,100,0
1,60,0,120
1,60,100,0
1,60,0,120
1,60,100,0
1,60,0,120
1,59,100,0
1,59,0,120
1,60,100,0
1,60,0,120
1,62,100,0
1,62,0,240
1,63,100,120
1,63,0,120
1,65,100,0
1,65,0,120
1,67,100,0
1,67,0,120
1,67,100,0
1,67,0,480
1,65,100,0
1,65,0,60
1,63,100,0
1,63,0,60
1,65,100,0
1,65,0,60
1,63,100,0
1,63,0,180
1,67,100,240
1,67,0,120
1,68,100,0
1,68,0,120
1,67,100,0
1,67,0,120
1,68,100,0
1,68,0,120
1,63,100,0
1,63,0,120
1,65,100,0
1,65,0,120
1,67,100,0
1,67,0,120
1,67,100,0
1,67,0,180
1,63,100,300
1,63,0,120
1,63,100,0
1,63,0,120
1,65,100,0
1,65,0,120
1,67,100,0
1,67,0,120
1,67,100,0
1,67,0,180
1,63,100,300
1,63,0,120
1,63,100,0
1,63,0,120
1,65,100,0
1,65,0,120
1,67,100,0
1,67,0,120
1,67,100,0
1,67,0,240
1,68,100,0
1,68,0,120
1,67,100,0
1,67,0,120
1,65,100,0
1,65,0,120
1,63,100,0
1,63,0,180
1,63,100,60
1,63,0,120
1,63,100,0
1,63,0,120
1,70,100,0
1,70,0,180
1,68,100,60
1,68,0,180
1,67,100,60
1,67,0,180
1,65,100,60
1,65,0,120
1,67,100,0
1,67,0,180
1,63,100,300
1,63,0,120
1,63,100,0
1,63,0,120
1,65,100,0
1,65,0,120
1,67,100,0
1,67,0,120
1,67,100,0
1,67,0,180
1,63,100,300
1,63,0,120
1,63,100,0
1,63,0,120
1,65,100,0
1,65,0,120
1,67,100,0
1,67,0,120
1,67,100,0
1,67,0,480
1,65,100,0
1,65,0,60
1,63,100,0
1,63,0,60
1,65,100,0
1,65,0,60
1,63,100,0
1,63,0,180
1,67,100,240
1,67,0,120
1,68,100,0
1,68,0,120
1,67,100,0
1,67,0,120
1,68,100,0
1,68,0,120
1,67,100,0
1,67,0,120
1,68,100,0
1,68,0,120
1,67,100,0
1,67,0,240
2,63,100,15960
2,60,100,0
2,55,100,0
2,55,0,120
2,60,0,0
2,63,0,0
2,63,100,0
2,60,100,0
2,55,100,0
2,55,0,120
2,60,0,0
2,63,0,0
2,63,100,0
2,60,100,0
2,55,100,0
2,55,0,120
2,60,0,0
2,63,0,0
2,63,100,0
2,60,100,0
2,55,100,0
2,55,0,180
2,60,0,0
2,63,0,0
2,63,100,180
2,60,100,0
2,55,100,0
2,55,0,120
2,60,0,0
2,63,0,0
2,59,100,0
2,62,100,0
2,55,100,0
2,55,0,120
2,62,0,0
2,59,0,0
2,60,100,0
2,63,100,0
2,55,100,0
2,55,0,120
2,63,0,0
2,60,0,0
2,62,100,0
2,65,100,0
2,55,100,0
2,55,0,240
2,65,0,0
2,62,0,0
2,67,100,600
2,63,100,0
2,58,100,0
2,58,0,120
2,63,0,0
2,67,0,0
2,67,100,0
2,63,100,0
2,58,100,0
2,58,0,120
2,63,0,0
2,67,0,0
2,67,100,0
2,63,100,0
2,58,100,0
2,58,0,120
2,63,0,0
2,67,0,0
2,67,100,0
2,63,100,0
2,58,100,0
2,58,0,180
2,63,0,0
2,67,0,0
2,67,100,180
2,63,100,0
2,58,100,0
2,58,0,120
2,63,0,0
2,67,0,0
2,68,100,0
2,65,100,0
2,60,100,0
2,60,0,120
2,65,0,0
2,68,0,0
2,60,100,0
2,70,100,0
2,67,100,0
2,67,0,120
2,70,0,0
2,60,0,0
2,60,100,0
2,72,100,0
2,68,100,0
2,68,0,120
2,72,0,0
2,60,0,0
2,60,100,0
2,72,100,0
2,67,100,0
2,72,0,120
2,60,0,0
2,59,50,0
2,71,50,0
2,71,0,60
2,59,0,0
2,67,0,0
