track,note,velocity,time
1,52,110,768
1,52,0,46
1,52,110,1202
1,52,0,46
1,52,110,2
1,52,0,46
1,52,110,2
1,52,0,46
1,52,110,2
1,52,0,46
1,52,110,2
1,52,0,46
1,52,110,1586
1,52,0,46
1,52,110,1202
1,52,0,46
1,52,110,2
1,52,0,46
1,52,110,2
1,52,0,46
1,52,110,2
1,52,0,46
1,52,110,2
1,52,0,46
1,52,110,1298
1,52,0,46
1,52,110,2
1,52,0,46
1,52,110,2
1,52,0,46
1,52,110,2
1,52,0,46
1,52,110,2
1,52,0,46
1,52,110,1298
1,52,0,46
1,52,110,2
1,52,0,46
1,52,110,2
1,52,0,46
1,52,110,2
1,52,0,46
1,52,110,2
1,52,0,46
1,52,110,1298
1,52,0,46
1,52,110,2
1,52,0,46
1,52,110,2
1,52,0,46
1,52,110,2
1,52,0,46
1,52,110,2
1,52,0,46
1,52,110,50
1,52,0,46
1,52,110,1202
1,52,0,46
1,52,110,2
1,52,0,46
1,52,110,2
1,52,0,46
1,52,110,2
1,52,0,46
1,52,110,2
1,52,0,46
1,52,110,1298
1,52,0,46
1,52,110,2
1,52,0,46
1,52,110,2
1,52,0,46
1,52,110,2
1,52,0,46
1,52,110,2
1,52,0,46
1,52,110,50
1,52,0,46
1,52,110,1202
1,52,0,46
1,52,110,2
1,52,0,46
1,52,110,2
1,52,0,46
1,52,110,2
1,52,0,46
1,52,110,2
1,52,0,46
1,52,110,1298
1,52,0,46
1,52,110,2
1,52,0,46
1,52,110,2
1,52,0,46
1,52,110,2
1,52,0,46
1,52,110,2
1,52,0,46
1,52,110,1298
1,52,0,46
1,52,110,2
1,52,0,46
1,52,110,2
1,52,0,46
1,52,110,2
1,52,0,46
1,52,110,2
1,52,0,46
1,52,110,1298
1,52,0,46
1,52,110,2
1,52,0,46
1,52,110,2
1,52,0,46
1,52,110,2
1,52,0,46
1,52,110,2
1,52,0,46
1,52,110,50
1,52,0,46
1,52,110,1202
1,52,0,46
1,52,110,2
1,52,0,46
1,52,110,2
1,52,0,46
1,52,110,2
1,52,0,46
1,52,110,2
1,52,0,46
1,52,110,1298
1,52,0,46
1,52,110,2
1,52,0,46
1,52,110,2
1,52,0,46
1,52,110,2
1,52,0,46
1,52,110,2
1,52,0,46
1,52,110,1298
1,52,0,46
1,52,110,2
1,52,0,46
1,52,110,2
1,52,0,46
1,52,110,2
1,52,0,46
1,52,110,2
1,52,0,46
1,52,110,1298
1,52,0,46
1,52,110,2
1,52,0,46
1,52,110,2
1,52,0,46
1,52,110,2
1,52,0,46
1,52,110,2
1,52,0,46
1,52,110,50
1,52,0,46
1,52,110,1202
1,52,0,46
1,52,110,2
1,52,0,46
1,52,110,2
1,52,0,46
1,52,110,2
1,52,0,46
1,52,110,2
1,52,0,46
1,52,110,1298
1,52,0,46
1,52,110,2
1,52,0,46
1,52,110,2
1,52,0,46
1,52,110,2
1,52,0,46
1,52,110,2
1,52,0,46
1,52,110,50
1,52,0,46
1,52,110,1202
1,52,0,46
1,52,110,2
1,52,0,46
1,52,110,2
1,52,0,46
1,52,110,2
1,52,0,46
1,52,110,2
1,52,0,46
1,52,110,1298
1,52,0,46
1,52,110,2
1,52,0,46
1,52,110,2
1,52,0,46
1,52,110,2
1,52,0,46
1,52,110,2
1,52,0,46
1,52,110,1298
1,52,0,46
1,52,110,2
1,52,0,46
1,52,110,2
1,52,0,46
1,52,110,2
1,52,0,46
1,52,110,2
1,52,0,46
1,52,110,1298
1,52,0,46
1,52,110,2
1,52,0,46
1,52,110,2
1,52,0,46
1,52,110,2
1,52,0,46
1,52,110,2
1,52,0,46
1,52,110,1298
1,52,0,46
1,52,110,2
1,52,0,46
1,52,110,2
1,52,0,46
1,52,110,2
1,52,0,46
1,52,110,2
1,52,0,46
1,52,110,1298
1,52,0,46
1,52,110,2
1,52,0,46
1,52,110,2
1,52,0,46
1,52,110,2
1,52,0,46
1,52,110,2
1,52,0,46
1,52,110,50
1,52,0,46
1,52,110,6098
1,52,0,46
1,52,110,1202
1,52,0,46
1,52,110,2
1,52,0,46
1,52,110,2
1,52,0,46
1,52,110,2
1,52,0,46
1,52,110,2
1,52,0,46
1,52,110,2834
1,52,0,46
1,52,110,2
1,52,0,46
1,52,110,2
1,52,0,46
1,52,110,2
1,52,0,46
1,52,110,2
1,52,0,46
1,52,110,1202
1,52,0,46
1,52,110,146
1,52,0,46
1,52,110,146
1,52,0,46
1,52,110,1202
1,52,0,46
1,52,110,2
1,52,0,46
1,52,110,2
1,52,0,46
1,52,110,2
1,52,0,46
1,52,110,2
1,52,0,46
1,52,110,1298
1,52,0,46
1,52,110,2
1,52,0,46
1,52,110,2
1,52,0,46
1,52,110,2
1,52,0,46
1,52,110,2
1,52,0,46
1,52,110,1298
1,52,0,46
1,52,110,2
1,52,0,46
1,52,110,2
1,52,0,46
1,52,110,2
1,52,0,46
1,52,110,2
1,52,0,46
1,52,110,1298
1,52,0,46
1,52,110,2
1,52,0,46
1,52,110,2
1,52,0,46
1,52,110,2
1,52,0,46
1,52,110,2
1,52,0,46
1,52,110,1298
1,52,0,46
1,52,110,2
1,52,0,46
1,52,110,2
1,52,0,46
1,52,110,2
1,52,0,46
1,52,110,2
1,52,0,46
1,52,110,1298
1,52,0,46
1,52,110,2
1,52,0,46
1,52,110,2
1,52,0,46
1,52,110,2
1,52,0,46
1,52,110,2
1,52,0,46
1,52,110,1298
1,52,0,46
1,52,110,2
1,52,0,46
1,52,110,2
1,52,0,46
1,52,110,2
1,52,0,46
1,52,110,2
1,52,0,46
1,52,110,818
1,53,110,0
1,55,110,0
1,57,110,0
1,59,110,0
1,60,110,0
1,62,110,0
1,64,110,0
1,65,110,0
1,67,110,0
1,52,0,334
1,53,0,0
1,55,0,0
1,57,0,0
1,59,0,0
1,60,0,0
1,62,0,0
1,64,0,0
1,65,0,0
1,67,0,0
1,52,110,434
1,52,0,94
2,44,110,0
2,44,0,46
2,44,110,146
2,44,0,46
2,44,110,146
2,44,0,46
2,44,110,146
2,44,0,46
2,36,110,146
2,38,110,0
2,44,110,0
2,36,0,46
2,38,0,0
2,44,0,0
2,44,110,50
2,44,0,46
2,36,110,50
2,38,110,0
2,44,110,0
2,36,0,46
2,38,0,0
2,44,0,0
2,44,110,50
2,44,0,46
2,36,110,50
2,44,110,0
2,36,0,46
2,44,0,0
2,44,110,50
2,44,0,46
2,36,110,50
2,38,110,0
2,44,110,0
2,36,0,46
2,38,0,0
2,44,0,0
2,44,110,50
2,44,0,46
2,36,110,50
2,44,110,0
2,36,0,46
2,44,0,0
2,44,110,50
2,44,0,46
2,36,110,50
2,38,110,0
2,44,110,0
2,36,0,46
2,38,0,0
2,44,0,0
2,44,110,50
2,44,0,46
2,36,110,50
2,44,110,0
2,36,0,46
2,44,0,0
2,44,110,50
2,44,0,46
2,36,110,50
2,38,110,0
2,44,110,0
2,36,0,46
2,38,0,0
2,44,0,0
2,44,110,50
2,44,0,46
2,36,110,50
2,44,110,0
2,36,0,46
2,44,0,0
2,44,110,50
2,44,0,46
2,36,110,50
2,38,110,0
2,44,110,0
2,36,0,46
2,38,0,0
2,44,0,0
2,44,110,50
2,44,0,46
2,36,110,50
2,44,110,0
2,36,0,46
2,44,0,0
2,44,110,50
2,44,0,46
2,36,110,50
2,38,110,0
2,44,110,0
2,36,0,46
2,38,0,0
2,44,0,0
2,44,110,50
2,44,0,46
2,36,110,50
2,44,110,0
2,36,0,46
2,44,0,0
2,44,110,50
2,44,0,46
2,36,110,50
2,38,110,0
2,44,110,0
2,36,0,46
2,38,0,0
2,44,0,0
2,44,110,50
2,44,0,46
2,36,110,50
2,44,110,0
2,36,0,46
2,44,0,0
2,36,110,338
2,38,110,0
2,44,110,0
2,36,0,46
2,38,0,0
2,44,0,0
2,44,110,50
2,44,0,46
2,36,110,50
2,38,110,0
2,44,110,0
2,36,0,46
2,38,0,0
2,44,0,0
2,44,110,50
2,44,0,46
2,36,110,50
2,44,110,0
2,36,0,46
2,44,0,0
2,44,110,50
2,44,0,46
2,36,110,50
2,38,110,0
2,44,110,0
2,36,0,46
2,38,0,0
2,44,0,0
2,44,110,50
2,44,0,46
2,36,110,50
2,44,110,0
2,36,0,46
2,44,0,0
2,44,110,50
2,44,0,46
2,36,110,50
2,38,110,0
2,44,110,0
2,36,0,46
2,38,0,0
2,44,0,0
2,44,110,50
2,44,0,46
2,36,110,50
2,44,110,0
2,36,0,46
2,44,0,0
2,44,110,50
2,44,0,46
2,36,110,50
2,38,110,0
2,44,110,0
2,36,0,46
2,38,0,0
2,44,0,0
2,44,110,50
2,44,0,46
2,36,110,50
2,44,110,0
2,36,0,46
2,44,0,0
2,44,110,50
2,44,0,46
2,36,110,50
2,38,110,0
2,44,110,0
2,36,0,46
2,38,0,0
2,44,0,0
2,44,110,50
2,44,0,46
2,36,110,50
2,44,110,0
2,36,0,46
2,44,0,0
2,44,110,50
2,44,0,46
2,36,110,50
2,38,110,0
2,44,110,0
2,36,0,46
2,38,0,0
2,44,0,0
2,44,110,50
2,44,0,46
2,36,110,50
2,44,110,0
2,36,0,46
2,44,0,0
2,44,110,50
2,44,0,46
2,36,110,50
2,38,110,0
2,44,110,0
2,36,0,46
2,38,0,0
2,44,0,0
2,44,110,50
2,44,0,46
2,36,110,50
2,44,110,0
2,36,0,46
2,44,0,0
2,44,110,50
2,44,0,46
2,36,110,50
2,38,110,0
2,44,110,0
2,36,0,46
2,38,0,0
2,44,0,0
2,36,110,50
2,38,110,0
2,44,110,0
2,36,0,46
2,38,0,0
2,44,0,0
2,36,110,50
2,44,110,0
2,36,0,46
2,44,0,0
2,44,110,50
2,44,0,46
2,36,110,50
2,38,110,0
2,44,110,0
2,36,0,46
2,38,0,0
2,44,0,0
2,44,110,50
2,44,0,46
2,36,110,50
2,44,110,0
2,36,0,46
2,44,0,0
2,44,110,50
2,44,0,46
2,36,110,50
2,38,110,0
2,44,110,0
2,36,0,46
2,38,0,0
2,44,0,0
2,44,110,50
2,44,0,46
2,36,110,50
2,44,110,0
2,36,0,46
2,44,0,0
2,44,110,50
2,44,0,46
2,36,110,50
2,38,110,0
2,44,110,0
2,36,0,46
2,38,0,0
2,44,0,0
2,44,110,50
2,44,0,46
2,36,110,50
2,44,110,0
2,36,0,46
2,44,0,0
2,44,110,50
2,44,0,46
2,36,110,50
2,38,110,0
2,44,110,0
2,36,0,46
2,38,0,0
2,44,0,0
2,44,110,50
2,44,0,46
2,36,110,50
2,44,110,0
2,36,0,46
2,44,0,0
2,44,110,50
2,44,0,46
2,36,110,50
2,38,110,0
2,44,110,0
2,36,0,46
2,38,0,0
2,44,0,0
2,44,110,50
2,44,0,46
2,36,110,50
2,44,110,0
2,36,0,46
2,44,0,0
2,44,110,50
2,44,0,46
2,36,110,50
2,38,110,0
2,44,110,0
2,36,0,46
2,38,0,0
2,44,0,0
2,44,110,50
2,44,0,46
2,36,110,50
2,44,110,0
2,36,0,46
2,44,0,0
2,44,110,50
2,44,0,46
2,36,110,50
2,38,110,0
2,44,110,0
2,36,0,46
2,38,0,0
2,44,0,0
2,44,110,50
2,44,0,46
2,36,110,50
2,44,110,0
2,36,0,46
2,44,0,0
2,44,110,50
2,44,0,46
2,36,110,50
2,38,110,0
2,44,110,0
2,36,0,46
2,38,0,0
2,44,0,0
2,44,110,50
2,44,0,46
2,36,110,50
2,38,110,0
2,44,110,0
2,36,0,46
2,38,0,0
2,44,0,0
2,44,110,50
2,44,0,46
2,36,110,50
2,38,110,0
2,44,110,0
2,36,0,46
2,38,0,0
2,44,0,0
2,44,110,50
2,44,0,46
2,36,110,50
2,44,110,0
2,36,0,46
2,44,0,0
2,44,110,50
2,44,0,46
2,36,110,50
2,38,110,0
2,44,110,0
2,36,0,46
2,38,0,0
2,44,0,0
2,44,110,50
2,44,0,46
2,36,110,50
2,44,110,0
2,36,0,46
2,44,0,0
2,44,110,50
2,44,0,46
2,36,110,50
2,38,110,0
2,44,110,0
2,36,0,46
2,38,0,0
2,44,0,0
2,44,110,50
2,44,0,46
2,36,110,50
2,44,110,0
2,36,0,46
2,44,0,0
2,44,110,50
2,44,0,46
2,36,110,50
2,38,110,0
2,44,110,0
2,36,0,46
2,38,0,0
2,44,0,0
2,44,110,50
2,44,0,46
2,36,110,50
2,44,110,0
2,36,0,46
2,44,0,0
2,44,110,50
2,44,0,46
2,36,110,50
2,38,110,0
2,44,110,0
2,36,0,46
2,38,0,0
2,44,0,0
2,44,110,50
2,44,0,46
2,36,110,50
2,44,110,0
2,36,0,46
2,44,0,0
2,44,110,50
2,44,0,46
2,36,110,50
2,38,110,0
2,44,110,0
2,36,0,46
2,38,0,0
2,44,0,0
2,44,110,50
2,44,0,46
2,36,110,50
2,44,110,0
2,36,0,46
2,44,0,0
2,44,110,50
2,44,0,46
2,36,110,50
2,38,110,0
2,44,110,0
2,36,0,46
2,38,0,0
2,44,0,0
2,44,110,50
2,44,0,46
2,36,110,50
2,44,110,0
2,36,0,46
2,44,0,0
2,44,110,50
2,44,0,46
2,36,110,50
2,38,110,0
2,44,110,0
2,36,0,46
2,38,0,0
2,44,0,0
2,44,110,50
2,44,0,46
2,36,110,50
2,38,110,0
2,44,110,0
2,36,0,46
2,38,0,0
2,44,0,0
2,44,110,50
2,44,0,46
2,36,110,50
2,38,110,0
2,44,110,0
2,36,0,46
2,38,0,0
2,44,0,0
2,44,110,50
2,44,0,46
2,36,110,50
2,44,110,0
2,36,0,46
2,44,0,0
2,44,110,50
2,44,0,46
2,36,110,50
2,38,110,0
2,44,110,0
2,36,0,46
2,38,0,0
2,44,0,0
2,44,110,50
2,44,0,46
2,36,110,50
2,44,110,0
2,36,0,46
2,44,0,0
2,44,110,50
2,44,0,46
2,36,110,50
2,38,110,0
2,44,110,0
2,36,0,46
2,38,0,0
2,44,0,0
2,44,110,50
2,44,0,46
2,36,110,50
2,44,110,0
2,36,0,46
2,44,0,0
2,44,110,50
2,44,0,46
2,36,110,50
2,38,110,0
2,44,110,0
2,36,0,46
2,38,0,0
2,44,0,0
2,44,110,50
2,44,0,46
2,36,110,50
2,44,110,0
2,36,0,46
2,44,0,0
2,44,110,50
2,44,0,46
2,36,110,50
2,38,110,0
2,44,110,0
2,36,0,46
2,38,0,0
2,44,0,0
2,44,110,50
2,44,0,46
2,36,110,50
2,44,110,0
2,36,0,46
2,44,0,0
2,44,110,50
2,44,0,46
2,36,110,50
2,38,110,0
2,44,110,0
2,36,0,46
2,38,0,0
2,44,0,0
2,44,110,50
2,44,0,46
2,36,110,50
2,44,110,0
2,36,0,46
2,44,0,0
2,44,110,50
2,44,0,46
2,36,110,50
2,38,110,0
2,44,110,0
2,36,0,46
2,38,0,0
2,44,0,0
2,44,110,50
2,44,0,46
2,36,110,50
2,44,110,0
2,36,0,46
2,44,0,0
2,44,110,50
2,44,0,46
2,36,110,50
2,38,110,0
2,44,110,0
2,36,0,46
2,38,0,0
2,44,0,0
2,44,110,50
2,44,0,46
2,36,110,50
2,44,110,0
2,36,0,46
2,44,0,0
2,44,110,50
2,44,0,46
2,36,110,50
2,38,110,0
2,44,110,0
2,36,0,46
2,38,0,0
2,44,0,0
2,44,110,50
2,44,0,46
2,36,110,50
2,44,110,0
2,36,0,46
2,44,0,0
2,44,110,50
2,44,0,46
2,36,110,50
2,38,110,0
2,44,110,0
2,36,0,46
2,38,0,0
2,44,0,0
2,44,110,50
2,44,0,46
2,36,110,50
2,44,110,0
2,36,0,46
2,44,0,0
2,44,110,50
2,44,0,46
2,36,110,50
2,38,110,0
2,44,110,0
2,36,0,46
2,38,0,0
2,44,0,0
2,44,110,50
2,44,0,46
2,36,110,50
2,44,110,0
2,36,0,46
2,44,0,0
2,44,110,50
2,44,0,46
2,36,110,50
2,38,110,0
2,44,110,0
2,36,0,46
2,38,0,0
2,44,0,0
2,44,110,50
2,44,0,46
2,36,110,50
2,44,110,0
2,36,0,46
2,44,0,0
2,44,110,50
2,44,0,46
2,36,110,50
2,38,110,0
