track,note,velocity,time
1,62,64,0
1,62,0,29
1,62,64,1
1,62,0,88
1,62,64,2
1,62,0,59
1,59,64,1
1,59,0,29
1,62,64,1
1,62,0,117
1,62,64,3
1,62,0,29
1,64,64,1
1,64,0,59
1,67,64,1
1,67,0,29
1,67,64,1
1,67,0,59
1,64,64,1
1,64,0,88
1,59,64,272
1,59,0,29
1,57,64,1
1,57,0,29
1,57,64,1
1,57,0,88
1,55,64,2
1,55,0,59
1,55,64,331
1,55,0,29
1,62,64,1
1,62,0,59
1,60,64,1
1,60,0,29
1,62,64,1
1,62,0,29
1,60,64,1
1,60,0,239
1,62,64,127
1,62,0,29
1,62,64,1
1,62,0,29
1,62,64,1
1,62,0,59
1,59,64,61
1,59,0,29
1,62,64,1
1,62,0,59
1,62,64,1
1,62,0,88
1,64,64,2
1,64,0,59
1,66,64,1
1,66,0,29
1,67,64,1
1,67,0,59
1,64,64,1
1,64,0,88
1,59,64,272
1,59,0,29
1,57,64,1
1,57,0,29
1,57,64,1
1,57,0,59
1,55,64,1
1,55,0,88
1,55,64,272
1,55,0,29
1,55,64,1
1,55,0,29
1,62,64,1
1,62,0,29
1,60,64,1
1,60,0,119
1,59,64,331
1,59,0,29
1,62,64,1
1,62,0,119
1,64,64,271
1,64,0,29
1,62,64,1
1,62,0,29
1,64,64,1
1,64,0,59
1,65,64,1
1,65,0,29
1,64,64,1
1,64,0,59
1,64,64,271
1,64,0,59
1,62,64,1
1,62,0,29
1,64,64,1
1,64,0,88
1,62,64,2
1,60,64,24
1,62,0,5
1,60,0,114
1,64,64,61
1,64,0,29
1,67,64,1
1,67,0,59
1,69,64,1
1,69,0,88
1,66,64,5
1,66,0,88
1,64,64,2
1,64,0,29
1,62,64,1
1,62,0,119
1,64,64,1
1,64,0,88
1,62,64,2
1,62,0,59
1,64,64,1
1,64,0,88
1,67,64,119
1,67,0,119
1,66,64,1
1,66,0,29
1,66,64,1
1,66,0,29
1,64,64,1
1,64,0,29
1,66,64,1
1,66,0,88
1,67,64,2
1,67,0,29
1,59,64,1
1,59,0,59
1,57,64,1
1,57,0,29
1,60,64,91
1,60,0,29
1,59,64,1
1,59,0,29
1,57,64,1
1,57,0,148
1,67,64,302
1,67,0,29
1,67,64,1
1,67,0,29
1,66,64,1
1,66,0,29
1,66,64,1
1,66,0,29
1,64,64,1
1,64,0,29
1,66,64,1
1,66,0,88
1,67,64,2
1,67,0,29
1,59,64,1
1,59,0,59
1,57,64,1
1,57,0,29
1,60,64,91
1,60,0,29
1,59,64,1
1,59,0,29
1,57,64,1
1,57,0,148
1,67,64,302
1,67,0,29
1,67,64,1
1,67,0,29
1,66,64,1
1,66,0,29
1,67,64,1
1,67,0,29
1,69,64,1
1,69,0,29
1,66,64,1
1,66,0,88
1,64,64,2
1,64,0,29
1,67,64,1
1,67,0,59
1,64,64,12
1,64,0,88
1,64,64,182
1,64,0,59
1,59,64,1
1,59,0,59
1,64,64,1
1,62,64,49
1,64,0,10
1,62,0,109
1,64,64,181
1,64,0,59
1,67,64,1
1,67,0,59
1,69,64,1
1,69,0,59
1,71,64,1
1,71,0,178
1,69,64,2
1,69,0,29
1,67,64,1
1,67,0,148
1,71,64,242
1,71,0,29
1,74,64,1
1,74,0,59
1,71,64,1
1,71,0,148
1,69,64,2
1,69,0,59
1,71,64,1
1,71,0,29
1,69,64,1
1,69,0,117
1,67,64,3
1,67,0,29
1,67,64,1
1,67,0,119
1,69,64,361
1,69,0,59
1,69,64,1
1,69,0,29
1,67,64,1
1,67,0,88
1,67,64,2
1,67,0,29
1,67,64,1
1,67,0,59
1,64,64,1
1,64,0,59
1,62,64,1
1,62,0,148
1,62,64,452
1,62,0,29
1,71,64,1
1,71,0,29
1,74,64,1
1,74,0,59
1,71,64,1
1,71,0,148
1,69,64,2
1,69,0,59
1,71,64,1
1,71,0,29
1,69,64,1
1,69,0,148
1,67,64,32
1,67,0,119
1,60,64,301
1,60,0,29
1,69,64,1
1,69,0,29
1,69,64,1
1,69,0,29
1,69,64,1
1,69,0,29
1,67,64,1
1,67,0,88
1,67,64,2
1,67,0,29
1,67,64,1
1,67,0,59
1,64,64,1
1,64,0,59
1,62,64,1
1,62,0,29
1,62,64,1
1,62,0,119
1,62,64,451
1,62,0,29
1,71,64,1
1,71,0,29
1,74,64,1
1,74,0,59
1,71,64,1
1,71,0,29
1,69,64,1
1,69,0,119
1,69,64,1
1,69,0,59
1,71,64,1
1,71,0,29
1,69,64,1
1,69,0,117
1,67,64,3
1,67,0,29
1,67,64,1
1,67,0,119
1,69,64,361
1,69,0,59
1,69,64,1
1,69,0,59
1,67,64,1
1,67,0,29
1,67,64,1
1,67,0,88
1,67,64,2
1,67,0,59
1,64,64,1
1,64,0,29
1,62,64,1
1,62,0,148
1,62,64,452
1,62,0,29
1,71,64,1
1,71,0,29
1,74,64,1
1,74,0,59
1,71,64,1
1,71,0,29
1,69,64,1
1,69,0,119
1,69,64,1
1,69,0,59
1,71,64,1
1,71,0,29
1,69,64,1
1,69,0,148
1,67,64,2
1,67,0,119
1,72,64,361
1,72,0,59
1,72,64,1
1,72,0,59
1,72,64,1
1,72,0,59
1,72,64,1
1,72,0,59
1,72,64,1
1,72,0,29
1,72,64,1
1,72,0,29
1,74,64,1
1,74,0,298
1,72,64,362
1,72,0,59
1,72,64,1
1,72,0,59
1,74,64,1
1,74,0,59
1,74,64,1
1,74,0,59
1,74,64,1
1,74,0,29
1,74,64,1
1,74,0,29
1,74,64,1
1,74,0,59
1,69,64,1
1,69,0,119
1,62,64,361
1,62,0,29
1,62,64,1
1,62,0,88
1,62,64,2
1,62,0,59
1,59,64,1
1,59,0,29
1,62,64,1
1,62,0,117
1,62,64,3
1,62,0,29
1,64,64,1
1,64,0,59
1,67,64,1
1,67,0,29
1,67,64,1
1,67,0,59
1,64,64,1
1,64,0,88
1,59,64,272
1,59,0,29
1,57,64,1
1,57,0,29
1,57,64,1
1,57,0,88
1,55,64,2
1,55,0,59
1,55,64,301
1,55,0,29
1,55,64,1
1,55,0,29
1,62,64,1
1,62,0,59
1,60,64,1
1,60,0,29
1,62,64,1
1,62,0,29
1,60,64,1
1,60,0,239
1,59,64,91
1,59,0,29
1,62,64,1
1,62,0,17
1,62,64,13
1,62,0,88
1,62,64,2
1,62,0,59
1,59,64,1
1,59,0,29
1,62,64,1
1,62,0,59
1,62,64,1
1,62,0,88
1,71,64,2
1,71,0,59
1,69,64,1
1,69,0,29
1,69,64,1
1,69,0,148
1,67,64,2
1,67,0,148
1,64,64,2
1,64,0,59
1,67,64,1
1,67,0,59
1,71,64,1
1,71,0,59
1,69,64,1
1,69,0,29
1,67,64,1
1,67,0,29
1,67,64,1
1,67,0,88
1,67,64,182
1,67,0,59
1,67,64,1
1,67,0,59
1,67,64,1
1,67,0,59
1,69,64,1
1,69,0,88
1,67,64,2
1,67,0,29
1,63,64,1
1,63,0,119
1,59,64,211
1,59,0,29
1,62,64,1
1,62,0,119
1,64,64,271
1,64,0,29
1,62,64,1
1,62,0,29
1,64,64,1
1,64,0,59
1,65,64,1
1,65,0,29
1,64,64,1
1,64,0,59
1,64,64,271
1,64,0,59
1,67,64,1
1,67,0,29
1,67,64,1
1,67,0,29
1,64,64,1
1,64,0,207
1,64,64,63
1,64,0,29
1,67,64,1
1,67,0,59
1,69,64,1
1,69,0,88
1,71,64,2
1,71,0,358
1,69,64,2
1,69,0,119
1,67,64,121
1,67,0,119
1,66,64,1
1,66,0,29
1,66,64,1
1,66,0,29
1,64,64,1
1,64,0,29
1,66,64,1
1,66,0,88
1,67,64,2
1,67,0,29
1,59,64,1
1,59,0,59
1,57,64,1
1,57,0,29
1,67,64,91
1,67,0,29
1,64,64,1
1,64,0,29
1,67,64,1
1,67,0,29
1,67,64,421
1,67,0,29
1,67,64,1
1,67,0,29
1,66,64,1
1,66,0,29
1,66,64,1
1,66,0,29
1,64,64,1
1,64,0,29
1,66,64,1
1,66,0,88
1,67,64,2
1,67,0,29
1,59,64,1
1,59,0,59
1,57,64,1
1,57,0,29
1,67,64,91
1,67,0,29
1,64,64,1
1,64,0,29
1,67,64,1
1,67,0,29
1,67,64,361
1,67,0,119
1,66,64,1
1,66,0,29
1,66,64,1
1,66,0,29
1,64,64,1
1,64,0,29
1,66,64,1
1,66,0,88
1,67,64,2
1,67,0,29
1,59,64,1
1,59,0,59
1,57,64,1
1,57,0,29
1,67,64,91
1,67,0,29
1,64,64,1
1,64,0,29
1,67,64,1
1,67,0,29
1,71,64,31
1,71,0,59
1,69,64,1
1,69,0,29
1,69,64,1
1,69,0,59
1,67,64,1
1,67,0,59
1,67,64,151
1,67,0,29
1,67,64,1
1,67,0,29
1,67,64,1
1,67,0,29
1,66,64,1
1,66,0,29
1,66,64,1
1,66,0,29
1,64,64,1
1,64,0,29
1,66,64,1
1,66,0,88
1,67,64,2
1,67,0,29
1,59,64,1
1,59,0,59
1,57,64,1
1,57,0,29
1,67,64,91
1,67,0,29
1,64,64,1
1,64,0,29
1,67,64,1
1,67,0,29
1,67,64,31
1,67,0,29
1,64,64,1
1,64,0,29
1,67,64,1
1,67,0,29
1,64,64,1
1,67,64,30
1,64,0,9
1,67,0,31
1,69,64,5
1,69,0,40
1,71,64,15
1,71,0,119
1,67,64,1
1,67,0,119
1,66,64,1
1,66,0,29
1,66,64,1
1,66,0,29
1,64,64,1
1,64,0,29
1,66,64,1
1,66,0,88
1,67,64,2
1,67,0,29
1,59,64,1
1,59,0,59
1,57,64,1
1,57,0,29
1,64,64,91
1,64,0,29
1,67,64,1
1,67,0,29
1,64,64,1
1,64,0,29
1,67,64,1
1,67,0,59
1,67,64,1
1,67,0,29
1,64,64,1
1,64,0,29
1,69,64,1
1,69,0,59
1,71,64,1
1,71,0,59
1,67,64,171
1,67,0,29
1,67,64,1
1,67,0,29
1,66,64,1
1,66,0,29
1,66,64,1
1,66,0,29
1,64,64,1
1,64,0,29
1,66,64,1
1,66,0,88
1,67,64,2
1,67,0,29
1,59,64,1
1,59,0,59
1,57,64,1
1,57,0,29
1,64,64,211
1,64,0,29
1,64,64,1
1,64,0,59
1,71,64,1
1,71,0,59
1,67,64,1
1,67,0,59
1,71,64,121
1,71,0,119
1,74,64,1
1,74,0,29
1,74,64,1
1,74,0,29
1,74,64,1
1,74,0,29
1,74,64,1
1,74,0,88
1,76,64,2
1,76,0,29
1,69,64,1
1,69,0,148
1,71,64,482
1,71,0,119
1,74,64,1
1,74,0,29
1,74,64,1
1,74,0,29
1,74,64,1
1,74,0,29
1,74,64,1
1,74,0,88
1,76,64,2
1,76,0,29
1,69,64,1
1,69,0,148
1,67,64,32
1,67,0,29
1,64,64,1
1,64,0,29
1,67,64,1
1,67,0,29
1,71,64,421
1,71,0,29
1,72,64,1
1,72,0,29
1,74,64,1
1,74,0,29
1,74,64,1
1,74,0,29
1,74,64,1
1,74,0,29
1,74,64,1
1,74,0,88
1,76,64,2
1,76,0,29
1,69,64,1
1,69,0,148
1,67,64,32
1,67,0,29
1,64,64,1
1,64,0,29
1,67,64,1
1,67,0,29
1,71,64,8
1,71,0,0
1,74,64,1
1,74,0,9
1,74,64,1
1,74,0,17
1,74,64,1
1,74,0,5
1,74,64,1
1,74,0,9
1,76,64,2
1,76,0,19
1,69,64,1
1,69,0,19
1,67,64,9
1,67,0,17
1,64,64,1
1,64,0,4
1,67,64,1
1,67,0,13
1,71,64,9
1,71,0,17
1,72,64,1
1,72,0,5
1,74,64,1
1,74,0,14
1,74,64,1
1,74,0,1
1,74,64,1
1,74,0,10
1,74,64,1
1,74,0,14
1,76,64,2
1,76,0,3
1,69,64,1
1,69,0,3
1,67,64,14
1,67,0,0
1,64,64,1
1,64,0,9
1,67,64,1
1,67,0,18
2,64,64,0
2,60,64,0
2,60,0,59
2,64,0,0
2,66,64,1
2,62,64,0
2,62,0,59
2,66,0,0
2,67,64,1
2,64,64,0
2,64,0,59
2,67,0,0
2,69,64,1
2,67,64,0
2,64,64,0
2,64,0,239
2,67,0,0
2,69,0,0
2,74,64,15
2,74,0,119
2,74,64,1
2,74,0,119
2,74,64,1
2,74,0,119
2,74,64,1
2,74,0,119
2,74,64,1
2,74,0,119
2,74,64,1
2,74,0,119
2,74,64,1
2,74,0,119
2,74,64,1
2,74,0,119
2,74,64,1
2,74,0,119
2,74,64,1
2,74,0,119
2,74,64,1
2,74,0,119
2,74,64,1
2,74,0,119
2,74,64,1
2,74,0,119
2,74,64,1
2,74,0,119
2,74,64,1
2,74,0,119
2,74,64,1
2,74,0,119
2,74,64,1
2,74,0,119
2,74,64,1
2,74,0,119
2,74,64,1
2,74,0,119
2,74,64,1
2,74,0,119
2,74,64,1
2,74,0,119
2,74,64,1
2,74,0,119
2,74,64,1
2,74,0,119
2,74,64,1
2,74,0,119
2,64,64,15
2,60,64,0
2,60,0,59
2,64,0,0
2,66,64,1
2,62,64,0
2,62,0,59
2,66,0,0
2,67,64,1
2,64,64,0
2,64,0,59
2,67,0,0
2,69,64,16
2,67,64,0
2,64,64,0
2,64,0,239
2,67,0,0
2,69,0,0
2,79,64,1816
2,79,0,29
2,78,64,1
2,78,0,29
2,74,64,1
2,74,0,29
2,69,64,1
2,69,0,29
2,74,64,1
2,74,0,29
2,71,64,1
2,71,0,239
2,62,64,1231
2,62,0,59
2,81,64,31
2,81,0,59
2,81,64,31
2,81,0,59
2,74,64,31
2,74,0,59
2,64,64,31
2,64,0,29
2,67,64,1
2,67,0,29
2,64,64,1
2,64,0,29
2,67,64,1771
2,67,0,29
2,78,64,1
2,78,0,29
2,74,64,1
2,74,0,29
2,69,64,1
2,69,0,29
2,74,64,1
2,74,0,29
2,71,64,1
2,71,0,239
2,81,64,481
2,81,0,59
2,69,64,31
2,69,0,29
2,67,64,61
2,67,0,59
2,69,64,1
2,69,0,119
2,79,64,2581
2,79,0,29
2,78,64,1
2,78,0,88
2,74,64,2
2,74,0,59
2,79,64,1
2,79,0,239
2,74,64,135
2,74,0,119
2,72,64,1
2,72,0,119
2,71,64,1
2,71,0,358
2,69,64,2
2,69,0,119
2,68,64,1
2,68,0,119
2,69,64,1
2,69,0,119
2,71,64,1
2,71,0,88
2,72,64,2
2,72,0,29
2,74,64,1
2,74,0,119
2,76,64,1
2,76,0,119
2,72,64,1
2,72,0,358
2,76,64,2
2,76,0,239
2,74,64,0
2,74,0,119
2,74,64,121
2,74,0,119
2,74,64,1
2,74,0,119
2,74,64,1
2,74,0,119
2,74,64,1
2,74,0,119
2,74,64,1
2,74,0,119
2,74,64,1
2,74,0,119
2,74,64,1
2,74,0,119
2,74,64,1
2,74,0,119
2,74,64,1
2,74,0,119
2,74,64,1
2,74,0,119
2,74,64,1
2,74,0,119
2,74,64,1
2,74,0,119
2,74,64,1
2,74,0,119
2,74,64,1
2,74,0,14
2,76,64,31
2,76,0,29
2,81,64,31
2,81,0,29
2,83,64,31
2,83,0,29
2,79,64,1
2,79,0,59
2,74,64,0
2,74,0,119
2,74,64,1
2,74,0,119
2,74,64,1
2,74,0,119
2,74,64,1
2,74,0,119
2,74,64,1
2,74,0,119
2,74,64,1
2,74,0,119
2,79,64,0
2,79,0,29
2,79,64,31
2,79,0,29
2,76,64,31
2,76,0,29
2,79,64,31
2,79,0,88
2,81,64,2
2,81,0,29
2,83,64,1
2,83,0,29
2,74,64,0
2,74,0,119
2,74,64,1
2,74,0,119
2,74,64,1
2,74,0,119
2,74,64,1
2,74,0,119
2,76,64,0
2,76,0,29
2,81,64,31
2,81,0,29
2,83,64,31
2,83,0,29
2,79,64,1
2,79,0,59
2,74,64,0
2,74,0,119
2,74,64,1
2,74,0,119
2,74,64,1
2,74,0,119
2,74,64,1
2,74,0,119
2,74,64,1
2,74,0,119
2,74,64,1
2,74,0,119
2,74,64,1
2,74,0,119
2,74,64,1
2,74,0,119
2,74,64,1
2,74,0,119
2,74,64,1
2,74,0,119
2,74,64,1
2,74,0,119
