track,note,velocity,time
0,37,120,0
0,44,120,0
0,49,120,0
0,37,120,0
0,35,105,0
0,44,105,0
0,35,0,27
0,44,0,3
0,37,0,19
0,37,0,1
0,49,0,10
0,44,0,0
0,59,100,0
0,59,100,0
0,59,0,19
0,59,0,0
0,61,100,0
0,61,100,0
0,37,120,60
0,44,120,0
0,49,120,0
0,37,120,0
0,35,105,0
0,44,105,0
0,35,0,27
0,61,0,2
0,61,0,0
0,44,0,6
0,37,0,17
0,37,0,4
0,49,0,4
0,44,0,0
0,59,100,0
0,59,100,0
0,59,0,18
0,59,0,0
0,61,100,0
0,61,100,0
0,61,0,98
0,61,0,0
0,59,100,142
0,61,100,60
0,59,0,1
0,61,0,29
0,59,100,0
0,59,0,30
0,56,100,0
0,56,0,61
0,54,120,0
0,59,120,0
0,37,120,0
0,61,100,0
0,61,100,0
0,49,120,0
0,44,120,0
0,37,120,0
0,35,105,0
0,44,105,0
0,35,0,2
0,44,0,1
0,61,0,10
0,61,0,0
0,37,0,6
0,49,0,9
0,37,0,0
0,44,0,0
0,59,100,0
0,59,100,0
0,59,0,15
0,59,0,0
0,61,100,0
0,61,100,0
0,37,120,60
0,44,120,0
0,49,120,0
0,37,120,0
0,35,105,0
0,44,105,0
0,44,0,29
0,35,0,4
0,61,0,5
0,61,0,0
0,37,0,13
0,37,0,3
0,44,0,6
0,49,0,0
0,59,100,0
0,59,100,0
0,59,0,16
0,59,0,0
0,61,100,0
0,61,100,0
0,61,0,96
0,61,0,0
0,54,0,20
0,59,0,1
0,54,120,0
0,59,120,0
0,47,120,0
0,61,120,2
0,38,120,0
0,49,100,0
0,49,0,4
0,38,0,1
0,35,105,0
0,43,120,0
0,43,0,2
0,61,0,1
0,41,120,0
0,41,0,1
0,35,0,1
0,37,120,0
0,73,120,0
0,85,120,0
0,44,120,0
0,49,120,0
0,37,120,0
0,82,110,0
0,70,110,0
0,35,105,0
0,57,127,0
0,42,105,0
0,57,0,1
0,42,0,2
0,82,0,2
0,35,0,1
0,70,0,1
0,37,0,1
0,37,0,1
0,49,0,1
0,44,0,0
0,59,100,0
0,59,100,0
0,82,110,0
0,42,105,0
0,59,0,1
0,59,0,0
0,42,0,2
0,82,0,3
0,61,100,0
0,61,100,0
0,70,110,0
0,38,120,0
0,42,105,0
0,42,0,1
0,38,0,1
0,70,0,2
0,37,120,2
0,44,120,0
0,49,120,0
0,37,120,0
0,82,110,0
0,42,105,0
0,42,0,2
0,82,0,1
0,61,0,2
0,61,0,0
0,37,0,3
0,37,0,1
0,44,0,2
0,47,0,0
0,59,0,0
0,49,0,0
0,70,110,0
0,35,105,0
0,42,105,0
0,54,0,1
0,73,0,5
0,85,0,1
0,42,0,14
0,70,0,6
0,35,0,6
0,59,100,0
0,59,100,0
0,82,110,0
0,42,105,0
0,59,0,16
0,59,0,0
0,42,0,3
0,82,0,3
0,49,120,8
0,49,0,30
0,61,100,0
0,61,100,0
0,70,110,0
0,38,120,0
0,42,105,0
0,42,0,19
0,38,0,5
0,70,0,7
0,56,100,29
0,82,110,0
0,42,105,0
0,82,0,19
0,42,0,1
0,61,0,30
0,61,0,0
0,56,0,5
0,61,100,5
0,82,110,0
0,70,110,0
0,35,105,0
0,42,105,0
0,82,0,19
0,42,0,2
0,35,0,5
0,70,0,1
0,61,0,10
0,61,100,23
0,82,110,0
0,42,105,0
0,42,0,20
0,82,0,1
0,61,0,15
0,61,100,24
0,70,110,0
0,38,120,0
0,42,105,0
0,42,0,20
0,38,0,3
0,70,0,3
0,61,0,12
0,61,100,22
0,82,110,0
0,35,105,0
0,42,105,0
0,42,0,19
0,82,0,2
0,35,0,1
0,49,100,38
0,70,110,0
0,35,105,0
0,42,105,0
0,61,0,2
0,42,0,19
0,70,0,1
0,35,0,3
0,59,120,35
0,82,110,0
0,70,110,0
0,69,95,0
0,42,105,0
0,49,0,6
0,69,0,8
0,42,0,5
0,59,0,1
0,70,0,2
0,82,0,2
0,69,95,6
0,69,0,14
0,61,120,16
0,70,110,0
0,69,95,0
0,38,120,0
0,42,105,0
0,69,0,14
0,42,0,5
0,38,0,5
0,70,0,3
0,69,95,3
0,69,0,14
0,82,110,16
0,69,95,0
0,42,105,0
0,69,0,19
0,82,0,0
0,42,0,1
0,37,120,40
0,85,120,0
0,73,120,0
0,49,120,0
0,44,120,0
0,37,120,0
0,82,110,0
0,70,110,0
0,35,105,0
0,57,127,0
0,42,105,0
0,57,0,15
0,61,0,2
0,42,0,4
0,82,0,2
0,70,0,4
0,35,0,2
0,37,0,18
0,37,0,3
0,49,0,10
0,44,0,0
0,59,100,0
0,59,100,0
0,82,110,0
0,42,105,0
0,59,0,14
0,59,0,0
0,42,0,6
0,82,0,2
0,61,100,0
0,61,100,0
0,70,110,0
0,38,120,0
0,42,105,0
0,42,0,20
0,70,0,4
0,38,0,1
0,37,120,35
0,44,120,0
0,49,120,0
0,37,120,0
0,82,110,0
0,42,105,0
0,42,0,19
0,82,0,5
0,61,0,13
0,61,0,0
0,73,0,11
0,85,0,1
0,37,0,2
0,37,0,4
0,49,0,5
0,44,0,0
0,70,110,0
0,35,105,0
0,42,105,0
0,42,0,21
0,70,0,6
0,35,0,3
0,59,100,0
0,59,100,0
0,82,110,0
0,42,105,0
0,59,0,16
0,59,0,0
0,42,0,3
0,82,0,4
0,49,120,7
0,49,0,30
0,61,100,0
0,61,100,0
0,70,110,0
0,38,120,0
0,42,105,0
0,42,0,19
0,70,0,6
0,38,0,0
0,56,100,35
0,82,110,0
0,42,105,0
0,42,0,20
0,82,0,1
0,61,0,25
0,61,0,0
0,56,0,6
0,61,100,0
0,82,110,0
0,70,110,0
0,35,105,0
0,42,105,0
0,42,0,21
0,82,0,1
0,35,0,3
0,70,0,0
0,61,0,12
0,61,100,23
0,82,110,0
0,42,105,0
0,42,0,20
0,82,0,1
0,61,0,18
0,61,100,21
0,70,110,0
0,38,120,0
0,42,105,0
0,42,0,20
0,38,0,2
0,70,0,4
0,61,0,14
0,61,100,20
0,82,110,0
0,35,105,0
0,42,105,0
0,42,0,19
0,82,0,2
0,35,0,3
0,61,0,36
0,49,100,0
0,70,110,0
0,35,105,0
0,42,105,0
0,42,0,21
0,70,0,0
0,35,0,4
0,82,110,35
0,70,110,0
0,42,105,0
0,49,0,3
0,42,0,16
0,82,0,1
0,70,0,1
0,61,120,39
0,70,110,0
0,38,120,0
0,42,105,0
0,42,0,19
0,38,0,0
0,70,0,4
0,82,110,37
0,42,105,0
0,82,0,19
0,42,0,1
0,37,120,0
0,73,120,0
0,85,120,0
0,49,120,0
0,44,120,0
0,37,120,0
0,82,110,0
0,70,110,0
0,35,105,0
0,57,127,0
0,57,0,15
0,70,0,5
0,82,0,5
0,35,0,2
0,37,0,20
0,37,0,1
0,61,0,9
0,49,0,3
0,44,0,0
0,61,120,0
0,61,0,33
0,61,120,27
0,61,0,32
0,61,120,28
0,85,0,41
0,73,0,6
0,61,0,3
0,60,120,10
0,60,0,60
0,61,120,0
0,61,0,53
0,63,120,7
0,38,120,0
0,38,0,19
0,63,0,33
0,61,120,8
0,37,120,60
0,82,110,0
0,70,110,0
0,35,105,0
0,49,110,0
0,42,105,0
0,42,0,21
0,82,0,0
0,35,0,5
0,49,0,0
0,70,0,5
0,37,0,19
0,61,0,1
0,49,100,9
0,82,110,0
0,42,105,0
0,49,0,10
0,42,0,10
0,82,0,2
0,70,110,38
0,38,120,0
0,42,105,0
0,38,0,19
0,42,0,1
0,70,0,6
0,61,120,34
0,82,110,0
0,35,105,0
0,42,105,0
0,42,0,19
0,35,0,0
0,82,0,2
0,37,120,19
0,37,0,2
0,61,0,5
0,37,120,13
0,60,120,0
0,70,110,0
0,35,105,0
0,42,105,0
0,70,0,20
0,42,0,1
0,35,0,6
0,60,0,32
0,61,120,1
0,82,110,0
0,70,110,0
0,46,100,0
0,42,105,0
0,42,0,19
0,70,0,1
0,82,0,1
0,61,0,29
0,37,0,3
0,46,0,1
0,40,120,6
0,64,120,0
0,70,110,0
0,38,120,0
0,42,105,0
0,42,0,19
0,38,0,3
0,70,0,2
0,64,0,27
0,57,120,9
0,82,110,0
0,46,100,0
0,42,105,0
0,82,0,18
0,42,0,2
0,46,0,35
0,40,0,4
0,33,120,1
0,33,120,0
0,82,110,0
0,70,110,0
0,35,105,0
0,42,105,0
0,82,0,18
0,42,0,3
0,70,0,3
0,35,0,3
0,57,0,6
0,33,0,26
0,45,120,1
0,82,110,0
0,42,105,0
0,33,0,11
0,82,0,8
0,42,0,1
0,45,0,10
0,70,110,30
0,38,120,0
0,42,105,0
0,38,0,18
0,42,0,2
0,70,0,3
0,57,120,37
0,82,110,0
0,42,105,0
0,42,0,19
0,82,0,3
0,33,120,18
0,33,0,6
0,57,0,14
0,33,120,0
0,64,120,0
0,70,110,0
0,35,105,0
0,42,105,0
0,42,0,21
0,70,0,2
0,35,0,3
0,64,0,16
0,64,120,18
0,82,110,0
0,42,105,0
0,42,0,19
0,33,0,0
0,82,0,2
0,64,0,12
0,64,120,27
0,70,110,0
0,38,120,0
0,42,105,0
0,42,0,19
0,38,0,1
0,70,0,3
0,64,0,9
0,56,120,28
0,82,110,0
0,42,105,0
0,82,0,19
0,42,0,1
0,32,120,40
0,32,120,0
0,82,110,0
0,70,110,0
0,35,105,0
0,42,105,0
0,56,0,15
0,82,0,5
0,42,0,1
0,70,0,2
0,35,0,6
0,32,0,31
0,56,100,0
0,82,110,0
0,42,105,0
0,32,0,8
0,42,0,12
0,82,0,1
0,44,120,9
0,44,0,30
0,70,110,0
0,38,120,0
0,42,105,0
0,56,0,10
0,42,0,10
0,38,0,1
0,70,0,1
0,56,80,38
0,82,110,0
0,35,105,0
0,42,105,0
0,42,0,19
0,35,0,1
0,82,0,0
0,32,120,20
0,32,0,6
0,32,120,14
0,70,110,0
0,35,105,0
0,42,105,0
0,56,0,6
0,42,0,15
0,70,0,0
0,35,0,4
0,60,120,35
0,82,110,0
0,69,95,0
0,46,100,0
0,42,105,0
0,32,0,9
0,69,0,3
0,82,0,7
0,42,0,0
0,69,95,11
0,69,0,13
0,60,0,9
0,46,0,2
0,32,120,6
0,63,120,0
0,70,110,0
0,69,95,0
0,38,120,0
0,42,105,0
0,69,0,12
0,38,0,7
0,42,0,0
0,70,0,3
0,69,95,8
0,69,0,13
0,63,0,10
0,56,120,7
0,82,110,0
0,69,95,0
0,46,100,0
0,42,105,0
0,69,0,15
0,82,0,1
0,42,0,4
0,56,0,27
0,32,0,9
0,46,0,3
0,37,120,1
0,61,120,0
0,73,120,0
0,85,120,0
0,49,120,0
0,44,120,0
0,37,120,0
0,82,110,0
0,70,110,0
0,35,105,0
0,57,127,0
0,42,105,0
0,82,0,16
0,57,0,1
0,70,0,4
0,42,0,0
0,35,0,7
0,44,0,27
0,49,0,4
0,49,120,1
0,82,110,0
0,42,105,0
0,37,0,5
0,37,0,8
0,82,0,4
0,61,0,2
0,42,0,1
0,49,0,12
0,61,120,28
0,70,110,0
0,38,120,0
0,42,105,0
0,42,0,20
0,38,0,3
0,70,0,1
0,82,110,36
0,42,105,0
0,82,0,17
0,42,0,2
0,61,0,6
0,85,0,15
0,37,120,0
0,73,0,5
0,37,0,4
0,36,120,11
0,60,120,0
0,70,110,0
0,35,105,0
0,42,105,0
0,42,0,21
0,70,0,2
0,35,0,3
0,60,0,33
0,61,120,1
0,82,110,0
0,42,105,0
0,82,0,17
0,42,0,2
0,36,0,3
0,61,0,37
0,63,120,1
0,70,110,0
0,38,120,0
0,42,105,0
0,42,0,19
0,70,0,0
0,38,0,3
0,63,0,20
0,64,120,18
0,82,110,0
0,42,105,0
0,82,0,16
0,42,0,4
0,64,0,10
0,63,120,0
0,63,0,30
0,37,120,0
0,61,120,0
0,82,110,0
0,70,110,0
0,35,105,0
0,42,105,0
0,82,0,17
0,42,0,4
0,70,0,3
0,35,0,5
0,82,110,31
0,42,105,0
0,37,0,9
0,82,0,9
0,42,0,2
0,61,0,30
0,70,110,10
0,38,120,0
0,42,105,0
0,42,0,20
0,70,0,0
0,38,0,1
0,82,110,39
0,35,105,0
0,42,105,0
0,42,0,19
0,82,0,0
0,35,0,2
0,61,120,9
0,37,120,10
0,37,0,2
0,61,0,0
0,37,120,18
0,61,120,0
0,70,110,0
0,35,105,0
0,42,105,0
0,42,0,21
0,70,0,2
0,35,0,3
0,63,120,34
0,82,110,0
0,46,100,0
0,42,105,0
0,61,0,2
0,82,0,16
0,42,0,1
0,46,0,31
0,63,0,3
0,37,0,0
0,40,120,7
0,64,120,0
0,70,110,0
0,38,120,0
0,42,105,0
0,42,0,19
0,70,0,1
0,38,0,2
0,64,0,5
0,64,120,33
0,82,110,0
0,46,100,0
0,42,105,0
0,82,0,18
0,42,0,2
0,40,0,33
0,46,0,3
0,33,120,4
0,33,120,0
0,82,110,0
0,70,110,0
0,35,105,0
0,42,105,0
0,82,0,19
0,42,0,2
0,70,0,1
0,35,0,2
0,63,120,6
0,64,0,2
0,63,0,27
0,45,120,1
0,61,120,0
0,82,110,0
0,42,105,0
0,33,0,5
0,33,0,11
0,82,0,2
0,42,0,2
0,45,0,13
0,70,110,27
0,38,120,0
0,42,105,0
0,38,0,18
0,42,0,2
0,61,0,0
0,70,0,2
0,82,110,38
0,42,105,0
0,82,0,17
0,42,0,2
0,61,120,11
0,33,120,10
0,33,0,6
0,61,0,7
0,33,120,7
0,64,120,0
0,70,110,0
0,35,105,0
0,42,105,0
0,70,0,20
0,42,0,1
0,35,0,1
0,64,0,6
0,64,120,32
0,82,110,0
0,42,105,0
0,82,0,18
0,42,0,1
0,33,0,4
0,64,0,34
0,66,120,3
0,70,110,0
0,38,120,0
0,42,105,0
0,42,0,19
0,38,0,2
0,70,0,2
0,66,0,7
0,66,120,30
0,82,110,0
0,42,105,0
0,82,0,17
0,42,0,3
0,32,120,40
0,61,120,0
0,32,120,0
0,82,110,0
0,70,110,0
0,35,105,0
0,42,105,0
0,66,0,1
0,82,0,15
0,42,0,5
0,70,0,3
0,35,0,0
0,61,0,35
0,63,120,1
0,82,110,0
0,42,105,0
0,32,0,4
0,32,0,4
0,82,0,10
0,42,0,2
0,70,110,40
0,38,120,0
0,42,105,0
0,38,0,19
0,42,0,1
0,70,0,0
0,82,110,40
0,35,105,0
0,42,105,0
0,82,0,18
0,42,0,1
0,35,0,3
0,32,120,18
0,32,0,7
0,32,120,13
0,70,110,0
0,35,105,0
0,42,105,0
0,63,0,15
0,42,0,6
0,70,0,4
0,35,0,3
0,44,80,32
0,82,110,0
0,69,95,0
0,46,100,0
0,42,105,0
0,69,0,12
0,32,0,2
0,82,0,3
0,42,0,2
0,44,0,5
0,44,120,6
0,69,95,0
0,69,0,13
0,46,0,3
0,44,0,14
0,32,120,0
0,61,120,0
0,70,110,0
0,69,95,0
0,38,120,0
0,42,105,0
0,69,0,12
0,38,0,7
0,42,0,0
0,70,0,2
0,69,95,9
0,69,0,13
0,61,0,13
0,63,120,4
0,82,110,0
0,69,95,0
0,46,100,0
0,42,105,0
0,69,0,15
0,82,0,2
0,42,0,3
0,32,0,26
0,46,0,4
0,63,0,2
0,30,120,0
0,81,120,0
0,88,120,0
0,85,120,0
0,64,120,0
0,64,120,0
0,61,120,0
0,78,120,0
0,66,120,0
0,42,120,0
0,30,120,0
0,73,120,0
0,82,110,0
0,70,110,0
0,35,105,0
0,57,127,0
0,42,105,0
0,85,0,10
0,88,0,0
0,81,0,0
0,82,0,7
0,57,0,3
0,42,0,1
0,35,0,6
0,70,0,2
0,42,0,31
0,88,120,0
0,81,120,0
0,85,120,0
0,82,110,0
0,42,105,0
0,30,0,8
0,85,0,2
0,81,0,0
0,88,0,0
0,82,0,6
0,30,0,1
0,42,0,3
0,81,120,40
0,88,120,0
0,85,120,0
0,82,110,0
0,70,110,0
0,38,120,0
0,42,105,0
0,85,0,10
0,88,0,0
0,81,0,0
0,42,0,10
0,38,0,2
