track,note,velocity,time
0,59,120,114
0,59,0,20
0,61,113,39
0,61,0,20
0,62,108,40
0,62,97,3
0,59,96,0
0,66,94,1
0,59,71,3
0,66,45,0
0,62,72,0
0,62,0,69
0,59,113,13
0,59,0,21
0,61,105,37
0,61,0,23
0,66,0,24
0,59,0,0
0,62,0,1
0,62,102,11
0,66,106,5
0,62,102,0
0,57,99,1
0,59,0,11
0,57,51,25
0,62,0,116
0,59,108,3
0,59,0,21
0,61,116,37
0,61,0,17
0,66,0,27
0,62,0,1
0,57,0,2
0,62,105,13
0,57,91,3
0,66,101,0
0,62,97,0
0,62,0,57
0,62,104,32
0,62,0,29
0,61,105,29
0,61,0,30
0,66,0,9
0,66,0,4
0,62,0,0
0,62,0,3
0,57,0,7
0,61,110,7
0,57,93,3
0,61,110,1
0,64,110,1
0,61,87,3
0,64,57,1
0,61,0,39
0,60,105,5
0,59,116,0
0,59,104,4
0,48,124,5
0,48,0,11
0,59,0,3
0,57,101,13
0,48,116,3
0,48,0,9
0,47,117,21
0,47,0,10
0,57,0,2
0,59,108,17
0,43,121,1
0,45,112,0
0,45,0,18
0,43,0,2
0,59,0,4
0,61,117,34
0,41,127,2
0,41,0,16
0,64,0,3
0,57,0,0
0,61,0,1
0,61,0,6
0,57,0,15
0,59,85,1
0,61,0,6
0,47,92,2
0,62,88,3
0,62,105,4
0,66,112,2
0,62,106,0
0,60,0,1
0,59,104,0
0,35,108,0
0,49,125,0
0,35,120,0
0,42,116,0
0,42,117,0
0,64,0,1
0,62,101,0
0,59,0,1
0,62,87,1
0,66,85,0
0,59,87,0
0,59,77,1
0,62,76,1
0,66,106,2
0,62,112,0
0,66,108,0
0,59,106,1
0,49,0,4
0,35,0,18
0,42,0,0
0,42,101,0
0,62,0,4
0,35,0,6
0,42,0,20
0,35,101,0
0,35,105,0
0,42,106,0
0,62,0,12
0,42,0,18
0,42,112,0
0,59,104,10
0,35,0,11
0,42,0,9
0,42,0,0
0,40,125,0
0,42,112,0
0,42,121,0
0,31,95,0
0,59,0,6
0,31,0,24
0,42,0,0
0,42,104,0
0,61,113,11
0,42,0,19
0,42,95,0
0,61,0,8
0,59,0,7
0,62,0,1
0,66,0,0
0,59,0,1
0,40,0,1
0,59,0,2
0,66,0,6
0,62,0,0
0,59,0,2
0,66,0,1
0,42,0,1
0,62,0,0
0,42,101,0
0,31,83,0
0,47,0,1
0,62,108,2
0,66,110,0
0,57,101,1
0,62,95,2
0,62,104,1
0,57,95,0
0,66,94,1
0,50,96,1
0,59,0,2
0,66,69,3
0,62,99,2
0,57,99,0
0,66,105,0
0,57,79,1
0,62,0,1
0,62,84,6
0,57,93,1
0,42,0,5
0,31,0,0
0,42,0,0
0,35,0,0
0,38,108,0
0,35,99,0
0,42,117,0
0,42,104,0
0,42,0,30
0,42,99,0
0,35,0,6
0,42,0,24
0,35,110,0
0,42,102,0
0,42,0,30
0,42,101,0
0,35,0,17
0,42,0,13
0,42,0,0
0,62,0,0
0,40,116,0
0,42,112,0
0,42,116,0
0,59,101,5
0,42,0,25
0,42,104,0
0,59,0,10
0,42,0,20
0,42,110,0
0,61,113,1
0,42,0,29
0,42,102,0
0,40,0,4
0,61,0,2
0,62,0,3
0,66,0,0
0,57,0,0
0,42,0,21
0,38,0,0
0,42,0,0
0,66,104,0
0,38,113,0
0,35,106,0
0,42,120,0
0,42,112,0
0,57,99,1
0,62,101,0
0,62,104,2
0,42,0,27
0,38,0,0
0,42,101,0
0,35,0,1
0,42,0,29
0,38,87,0
0,35,108,0
0,42,112,0
0,62,0,19
0,42,0,11
0,42,108,0
0,62,101,8
0,35,0,4
0,42,0,18
0,42,0,0
0,40,121,0
0,42,116,0
0,42,113,0
0,62,0,2
0,42,0,28
0,42,108,0
0,61,101,6
0,66,0,20
0,62,0,0
0,42,0,4
0,42,108,0
0,66,0,7
0,61,0,1
0,66,0,1
0,62,0,0
0,62,0,2
0,57,0,0
0,62,0,0
0,66,0,0
0,57,0,4
0,50,0,8
0,66,0,4
0,57,101,2
0,38,0,1
0,42,0,0
0,42,106,0
0,40,0,2
0,61,112,0
0,64,110,0
0,64,102,1
0,61,112,0
0,57,99,0
0,61,99,2
0,62,0,1
0,64,95,0
0,45,93,0
0,61,106,1
0,61,49,3
0,64,41,0
0,42,0,20
0,42,0,0
0,33,101,0
0,35,99,0
0,42,117,0
0,42,112,0
0,64,69,1
0,61,83,2
0,60,117,16
0,62,101,1
0,42,0,10
0,59,96,0
0,42,112,0
0,31,91,0
0,61,0,1
0,35,0,6
0,62,0,3
0,59,0,12
0,42,0,8
0,31,0,0
0,35,102,0
0,42,106,0
0,57,99,4
0,42,0,26
0,42,108,0
0,57,0,18
0,35,0,2
0,42,0,10
0,42,0,0
0,59,101,0
0,40,110,0
0,42,113,0
0,42,117,0
0,59,116,7
0,59,0,18
0,59,0,3
0,42,0,2
0,33,0,0
0,42,110,0
0,57,0,15
0,64,0,3
0,61,0,1
0,61,104,9
0,42,0,2
0,33,106,0
0,42,121,0
0,61,0,4
0,64,0,3
0,57,0,0
0,45,0,17
0,42,0,6
0,42,116,0
0,57,0,1
0,61,0,2
0,64,0,5
0,40,0,1
0,59,87,1
0,64,0,3
0,57,0,2
0,61,0,2
0,47,87,0
0,62,88,3
0,61,0,4
0,60,0,4
0,62,108,1
0,35,120,0
0,49,125,0
0,33,0,1
0,42,0,0
0,42,0,0
0,66,117,0
0,59,110,0
0,35,101,0
0,66,58,0
0,59,92,0
0,62,85,0
0,47,93,0
0,62,80,0
0,35,105,0
0,42,120,0
0,62,101,1
0,59,116,0
0,62,106,0
0,61,0,1
0,35,94,1
0,66,102,1
0,59,100,0
0,57,0,1
0,64,0,0
0,66,106,0
0,49,0,6
0,35,0,1
0,35,0,13
0,42,0,5
0,35,0,0
0,35,0,0
0,42,113,0
0,42,0,30
0,35,92,0
0,35,108,0
0,42,104,0
0,42,0,30
0,42,105,0
0,62,0,2
0,59,101,4
0,42,0,24
0,35,0,0
0,40,116,0
0,42,113,0
0,59,0,2
0,42,0,28
0,42,108,0
0,61,108,6
0,61,0,16
0,42,0,8
0,42,106,0
0,59,0,3
0,66,0,9
0,47,0,2
0,66,0,1
0,59,0,0
0,59,0,0
0,62,0,1
0,62,0,1
0,59,0,3
0,62,0,0
0,66,0,1
0,62,92,3
0,57,93,0
0,62,0,1
0,66,101,0
0,50,106,1
0,62,97,1
0,59,0,1
0,66,106,1
0,57,99,0
0,42,0,1
0,42,101,0
0,57,110,2
0,66,116,2
0,62,110,0
0,47,0,2
0,62,102,0
0,62,95,0
0,50,101,1
0,57,97,0
0,66,101,0
0,57,89,3
0,35,0,3
0,42,0,17
0,35,110,0
0,42,101,0
0,38,105,5
0,42,0,25
0,35,0,0
0,42,81,0
0,42,0,30
0,40,0,0
0,35,120,0
0,42,95,0
0,42,0,30
0,42,99,0
0,62,0,19
0,59,108,9
0,42,0,2
0,35,0,0
0,40,112,0
0,42,125,0
0,59,0,29
0,42,0,1
0,42,105,0
0,61,112,27
0,42,0,3
0,42,97,0
0,57,0,19
0,62,0,3
0,66,0,0
0,42,0,8
0,42,91,0
0,31,87,0
0,38,0,9
0,61,0,2
0,62,101,16
0,62,112,2
0,66,113,0
0,57,106,0
0,38,99,0
0,31,0,1
0,42,0,0
0,35,113,0
0,42,83,0
0,38,0,28
0,42,0,2
0,35,0,0
0,42,88,0
0,38,99,29
0,42,0,1
0,35,113,0
0,42,94,0
0,62,0,16
0,42,0,14
0,40,0,0
0,42,88,0
0,62,102,4
0,42,0,26
0,40,112,0
0,42,124,0
0,62,0,20
0,42,0,10
0,42,105,0
0,61,112,2
0,62,0,16
0,66,0,3
0,62,0,6
0,66,0,2
0,42,0,1
0,35,0,0
0,42,95,0
0,50,0,2
0,57,0,1
0,66,0,7
0,66,0,1
0,61,0,0
0,62,0,3
0,62,0,1
0,57,0,1
0,66,0,7
0,57,0,1
0,57,0,0
0,62,0,3
0,61,110,1
0,64,102,1
0,57,98,0
0,42,0,1
0,42,91,0
0,61,94,4
0,61,120,1
0,45,93,0
0,57,104,1
0,64,112,0
0,61,117,0
0,57,83,0
0,64,89,0
0,57,83,0
0,61,101,1
0,64,108,0
0,38,0,13
0,50,0,2
0,45,65,7
0,42,0,1
0,35,106,0
0,42,99,0
0,61,83,1
0,64,77,0
0,33,90,5
0,61,0,21
0,42,0,3
0,35,0,0
0,42,89,0
0,31,87,0
0,59,108,5
0,59,0,18
0,31,0,7
0,42,0,0
0,35,117,0
0,42,95,0
0,57,101,3
0,42,0,27
0,40,0,0
0,42,85,0
0,57,0,17
0,42,0,13
0,40,112,0
0,42,117,0
0,31,78,0
0,59,112,1
0,31,0,29
0,42,0,0
0,35,0,0
0,42,99,0
0,59,0,3
0,33,0,14
0,64,0,10
0,61,0,3
0,42,0,0
0,57,0,0
0,33,96,0
0,42,96,0
0,61,101,2
0,64,0,3
0,57,0,2
0,61,0,1
0,45,0,3
0,64,0,8
0,61,0,4
0,57,0,2
0,61,0,2
0,61,0,2
0,57,0,0
0,64,0,0
0,42,0,1
0,42,89,0
0,57,0,15
0,59,92,1
0,61,0,4
0,33,0,0
0,62,79,5
0,66,99,2
0,62,95,1
0,66,92,1
0,59,95,0
0,66,102,0
0,42,0,1
0,62,104,0
0,35,120,0
0,42,97,0
0,35,93,1
0,62,93,0
0,59,95,0
0,45,0,1
0,62,110,0
0,59,117,0
0,66,116,0
0,47,81,0
0,62,87,2
0,59,95,0
0,64,0,1
0,35,0,22
0,35,0,3
0,42,0,0
0,42,89,0
0,42,0,30
0,35,98,0
0,35,120,0
0,42,87,0
0,42,0,30
0,40,0,0
0,42,88,0
0,62,0,6
0,59,96,2
0,42,0,22
0,40,110,0
0,42,117,0
0,31,62,0
0,59,0,4
0,31,0,26
0,42,0,0
0,42,99,0
0,61,108,6
0,61,0,15
0,42,0,9
0,35,0,0
0,42,95,0
0,59,0,13
0,59,0,5
0,62,0,2
0,66,0,1
0,66,0,0
0,62,0,0
0,62,0,1
0,59,0,0
0,66,0,0
0,42,0,8
0,42,88,0
0,31,87,0
0,57,93,1
0,62,97,0
0,66,105,1
0,62,87,1
0,57,87,0
0,66,92,1
0,50,99,0
0,62,99,2
0,35,0,2
0,62,108,0
0,66,116,0
0,57,108,2
0,59,0,3
0,59,0,6
0,42,0,11
0,31,0,0
0,35,112,0
0,42,77,0
0,50,95,3
0,47,0,2
0,38,101,0
0,57,53,1
0,57,95,1
0,42,0,23
0,35,0,0
0,42,79,0
0,42,0,30
0,35,110,0
0,42,85,0
0,42,0,30
0,40,0,0
0,42,93,0
0,42,0,30
0,62,0,0
0,40,108,0
0,41,94,0
0,42,124,0
0,59,106,5
0,59,0,24
0,42,0,1
0,41,0,0
0,42,99,0
0,42,0,30
0,42,95,0
0,61,112,1
0,42,0,29
0,35,0,0
0,42,87,0
0,66,0,7
0,38,0,1
0,61,0,0
0,57,0,1
0,62,0,1
0,42,0,20
0,35,113,0
0,42,94,0
0,66,112,1
0,62,105,0
0,57,104,0
0,62,101,0
0,38,99,1
0,38,0,20
0,42,0,8
0,35,0,0
0,42,81,0
0,42,0,30
0,38,99,0
0,35,120,0
0,42,88,0
0,62,0,20
0,42,0,10
0,40,0,0
0,42,95,0
0,62,101,7
0,42,0,23
0,40,117,0
0,42,117,0
0,62,0,9
0,42,0,21
0,42,100,0
0,61,101,5
0,38,0,5
0,38,99,19
0,42,0,1
0,42,95,0
0,66,0,5
0,62,0,0
0,62,0,1
0,62,0,0
0,57,0,2
0,66,0,1
0,61,0,0
0,66,0,6
0,62,0,4
0,66,0,5
0,50,0,0
0,62,0,4
0,42,0,2
0,35,0,0
0,42,87,0
0,61,120,4
0,61,106,0
0,50,0,1
0,64,112,0
0,57,110,0
0,61,95,1
0,57,0,1
0,64,79,0
0,45,96,0
0,64,92,0
0,45,77,1
0,61,61,2
0,61,104,3
0,64,110,0
0,57,85,5
0,38,0,1
0,61,104,1
0,64,102,3
0,42,0,7
0,35,117,0
0,42,99,0
0,33,91,2
0,57,87,18
0,59,93,1
0,61,0,1
0,42,0,8
0,35,0,0
0,42,82,0
0,31,80,0
0,31,0,30
0,42,0,0
0,35,120,0
0,42,91,0
0,35,125,0
0,49,126,0
0,49,0,30
0,35,0,0
0,40,0,0
0,42,0,0
0,42,89,0
0,42,0,9
0,40,116,0
0,42,117,0
0,48,116,0
0,48,0,30
0,42,0,0
0,42,101,0
0,48,116,0
0,48,0,30
0,35,0,0
0,42,0,0
0,42,100,0
0,43,127,0
0,61,0,15
0,45,0,1
0,64,0,2
0,57,0,0
0,61,0,8
0,57,0,2
0,61,0,0
0,64,0,1
0,64,0,1
0,43,0,0
0,42,0,0
0,40,0,0
0,71,76,0
0,42,99,0
0,57,0,1
0,61,0,3
0,64,0,3
0,57,0,0
0,61,0,7
0,45,0,1
0,64,0,0
0,57,0,1
0,47,60,5
0,66,43,1
0,59,71,2
0,62,100,0
0,42,0,0
0,66,46,0
0,59,81,0
0,62,85,0
0,47,83,0
0,35,108,0
0,71,73,0
0,74,70,0
0,78,102,0
0,62,77,0
0,59,101,0
0,66,106,0
0,57,113,0
0,35,113,0
0,42,120,0
0,35,105,0
0,59,0,3
0,57,0,0
0,33,0,3
0,62,0,13
0,66,0,2
0,59,0,1
0,35,0,6
0,42,0,0
0,35,0,0
0,42,113,0
0,42,0,24
0,35,0,0
0,57,0,0
0,35,98,0
0,59,90,0
0,62,94,0
0,66,98,0
0,42,104,0
0,35,108,0
0,66,0,17
0,62,0,3
0,59,0,0
0,42,0,10
0,42,105,0
0,62,95,0
0,66,92,0
0,59,93,0
0,42,0,1
0,35,0,0
0,47,0,0
0,42,113,0
0,40,116,0
0,31,95,0
0,59,0,5
0,66,0,0
0,62,0,1
0,42,0,9
0,31,0,0
0,42,108,0
0,62,80,13
0,59,77,0
0,66,65,0
0,42,0,2
0,42,106,0
0,66,0,6
0,59,0,0
0,62,0,0
0,42,0,9
0,78,0,0
0,42,101,0
0,31,83,0
0,62,65,7
0,31,0,1
0,74,0,0
0,66,0,0
0,71,0,0
0,62,0,0
0,42,0,0
0,71,0,0
0,35,0,0
0,52,97,0
0,64,77,0
0,67,62,0
0,40,97,0
0,76,70,0
0,76,58,0
0,42,101,0
0,35,110,0
0,66,0,1
0,66,45,0
0,59,57,0
0,62,0,1
0,47,0,4
0,52,93,1
0,64,53,0
0,67,59,2
0,59,0,13
0,66,0,0
0,62,0,1
0,35,0,7
0,42,0,0
0,42,81,0
0,42,0,9
0,40,0,0
0,42,95,0
0,35,120,0
0,62,59,1
0,59,58,1
0,66,41,2
0,66,0,8
0,59,0,1
0,62,0,1
0,64,0,6
0,52,0,0
0,42,0,0
0,42,99,0
0,42,0,30
0,67,0,0
0,35,0,0
0,59,0,0
0,42,125,0
0,40,112,0
0,62,45,3
0,59,41,1
0,66,38,2
0,66,0,15
0,62,0,0
0,59,0,1
0,76,0,8
0,42,0,0
0,42,105,0
0,62,45,29
0,42,0,1
0,40,0,0
0,40,99,0
0,42,97,0
0,59,41,1
0,66,35,3
0,66,0,14
0,59,0,1
0,62,0,0
0,64,0,3
0,42,0,3
0,55,65,0
0,43,79,0
0,42,91,0
0,59,0,9
0,42,0,8
0,40,0,0
0,59,65,0
0,62,86,0
0,31,90,0
0,67,79,0
0,74,77,0
0,42,83,0
0,35,113,0
0,52,0,1
0,43,83,0
0,59,66,3
0,67,0,1
0,55,57,1
0,64,17,6
0,62,5,0
0,64,0,7
0,31,0,2
0,35,0,0
0,42,0,0
0,42,88,0
0,42,0,5
0,43,0,0
0,76,0,0
0,31,99,0
0,42,94,0
0,35,113,0
0,42,0,14
0,40,0,0
0,42,88,0
0,42,0,5
0,74,0,0
0,71,81,0
0,42,124,0
0,40,112,0
0,42,0,4
0,42,105,0
0,42,0,5
0,35,0,0
0,31,0,0
0,71,0,0
0,31,95,0
0,67,87,0
0,42,95,0
