track,note,velocity,time
0,32,100,0
0,44,100,0
0,32,100,0
0,44,40,240
0,32,0,70
0,44,0,50
0,32,0,60
0,32,40,0
0,44,0,60
0,80,80,0
0,56,100,60
0,32,0,60
0,44,100,0
0,46,80,120
0,36,80,0
0,40,80,0
0,38,70,0
0,48,70,0
0,48,0,15
0,38,0,0
0,36,0,0
0,46,0,0
0,40,0,0
0,36,120,45
0,36,0,15
0,46,80,45
0,40,100,0
0,36,100,0
0,38,120,0
0,38,0,15
0,40,0,0
0,46,0,0
0,36,0,0
0,40,50,15
0,38,100,0
0,38,0,15
0,40,0,0
0,36,120,15
0,40,50,0
0,40,0,15
0,36,0,0
0,40,50,15
0,40,0,15
0,44,0,15
0,56,0,0
0,80,0,0
0,51,60,0
0,59,80,0
0,42,80,0
0,49,80,0
0,36,80,0
0,32,100,0
0,44,100,0
0,32,100,0
0,92,55,0
0,32,70,0
0,56,70,0
0,68,70,0
0,92,0,10
0,36,0,5
0,49,0,0
0,51,0,0
0,42,0,0
0,59,0,0
0,92,55,15
0,92,0,10
0,42,80,20
0,92,55,0
0,92,0,10
0,42,0,5
0,56,0,45
0,32,0,0
0,68,0,0
0,42,80,0
0,38,80,0
0,32,70,0
0,38,0,15
0,42,0,0
0,42,80,45
0,42,0,15
0,32,0,45
0,42,80,0
0,36,80,0
0,92,55,0
0,32,70,0
0,44,40,0
0,92,0,10
0,42,0,5
0,36,0,0
0,92,55,15
0,92,0,10
0,42,80,20
0,36,80,0
0,92,55,0
0,92,0,10
0,36,0,5
0,42,0,0
0,32,0,45
0,44,0,0
0,32,0,0
0,42,80,0
0,38,80,0
0,38,0,15
0,42,0,0
0,32,0,45
0,42,80,0
0,32,40,0
0,42,0,15
0,44,0,45
0,42,80,0
0,36,100,0
0,92,55,0
0,92,0,10
0,36,0,5
0,42,0,0
0,92,55,15
0,92,0,10
0,42,80,20
0,92,55,0
0,83,100,0
0,92,0,10
0,42,0,5
0,32,0,45
0,42,80,0
0,38,100,0
0,82,100,0
0,38,0,15
0,42,0,0
0,83,0,5
0,82,0,20
0,42,80,20
0,82,100,0
0,42,0,15
0,82,0,45
0,42,80,0
0,36,100,0
0,92,55,0
0,80,100,0
0,92,0,10
0,42,0,5
0,36,0,0
0,92,55,15
0,92,0,10
0,36,100,20
0,42,80,0
0,92,55,0
0,92,0,10
0,42,0,5
0,36,0,0
0,42,80,45
0,38,100,0
0,38,0,15
0,42,0,0
0,80,0,45
0,42,80,0
0,80,100,0
0,42,0,15
0,80,0,45
0,42,80,0
0,36,100,0
0,32,100,0
0,44,100,0
0,32,100,0
0,92,55,0
0,32,80,0
0,80,100,0
0,92,0,10
0,42,0,5
0,36,0,0
0,92,55,15
0,92,0,10
0,80,0,20
0,42,80,0
0,92,55,0
0,80,70,0
0,75,60,0
0,92,0,10
0,42,0,5
0,75,0,25
0,32,0,20
0,80,0,0
0,42,80,0
0,38,100,0
0,32,80,0
0,80,70,0
0,38,0,15
0,42,0,0
0,80,0,45
0,42,80,0
0,75,40,0
0,42,0,15
0,75,0,25
0,32,0,20
0,42,80,0
0,36,100,0
0,92,55,0
0,32,80,0
0,44,40,0
0,92,0,10
0,42,0,5
0,36,0,0
0,92,55,15
0,92,0,10
0,42,80,20
0,36,100,0
0,92,55,0
0,92,0,10
0,36,0,5
0,42,0,0
0,44,0,45
0,32,0,0
0,32,0,0
0,42,80,0
0,38,100,0
0,38,0,15
0,42,0,0
0,32,0,45
0,42,80,0
0,32,40,0
0,42,0,15
0,44,0,45
0,42,80,0
0,36,100,0
0,92,55,0
0,92,0,10
0,36,0,5
0,42,0,0
0,92,55,15
0,92,0,10
0,42,80,20
0,92,55,0
0,92,0,10
0,42,0,5
0,32,0,45
0,38,100,0
0,42,80,0
0,42,0,15
0,38,0,0
0,42,80,45
0,42,0,15
0,69,120,45
0,35,120,0
0,42,80,0
0,36,120,0
0,56,100,0
0,92,55,0
0,63,70,0
0,92,0,10
0,42,0,5
0,35,0,0
0,69,0,0
0,36,0,0
0,69,120,15
0,36,90,0
0,35,80,0
0,92,55,0
0,92,0,10
0,36,0,5
0,69,0,0
0,35,0,0
0,69,120,15
0,36,80,0
0,42,80,0
0,35,70,0
0,92,55,0
0,92,0,10
0,42,0,5
0,36,0,0
0,69,0,0
0,35,0,0
0,69,120,15
0,36,120,0
0,38,100,0
0,38,0,15
0,69,0,0
0,36,0,0
0,69,120,15
0,36,120,0
0,42,80,0
0,38,100,0
0,38,0,15
0,36,0,0
0,69,0,0
0,42,0,0
0,68,90,5
0,69,120,40
0,36,120,0
0,42,80,0
0,38,100,0
0,38,0,15
0,36,0,0
0,69,0,0
0,42,0,0
0,63,0,45
0,68,0,0
0,56,0,0
0,56,100,0
0,80,70,0
0,56,90,0
0,68,90,0
0,68,70,0
0,32,100,0
0,68,0,50
0,56,0,10
0,32,0,0
0,80,0,60
0,68,0,0
0,56,0,0
0,56,100,0
0,68,70,0
0,32,100,0
0,68,0,50
0,32,0,10
0,56,0,0
0,56,100,60
0,68,70,0
0,32,100,0
0,68,0,50
0,32,0,10
0,56,0,0
0,58,100,360
0,34,100,0
0,34,0,50
0,58,0,0
0,59,100,10
0,35,100,0
0,59,0,50
0,35,0,10
0,42,80,0
0,46,100,0
0,81,100,0
0,58,100,0
0,34,100,0
0,81,0,15
0,42,0,0
0,46,0,0
0,58,0,45
0,34,0,0
0,42,80,0
0,38,100,0
0,56,100,0
0,32,100,0
0,38,0,15
0,42,0,0
0,56,0,45
0,32,0,0
0,46,100,0
0,42,80,0
0,54,100,0
0,30,100,0
0,42,0,15
0,46,0,0
0,54,0,45
0,30,0,0
0,69,70,0
0,42,80,0
0,36,100,0
0,52,100,0
0,71,35,0
0,28,100,0
0,36,0,15
0,69,0,0
0,42,0,0
0,69,70,15
0,69,0,15
0,28,0,15
0,52,0,0
0,69,70,0
0,42,80,0
0,42,0,15
0,69,0,0
0,38,100,45
0,42,80,0
0,59,100,0
0,28,100,0
0,42,0,15
0,38,0,0
0,59,0,35
0,28,0,10
0,42,80,0
0,42,0,15
0,69,70,45
0,36,80,0
0,42,80,0
0,52,100,0
0,28,100,0
0,42,0,15
0,36,0,0
0,69,0,0
0,28,0,15
0,69,70,0
0,28,100,0
0,69,0,15
0,28,0,15
0,52,0,0
0,69,70,0
0,36,80,0
0,42,80,0
0,28,100,0
0,42,0,15
0,36,0,0
0,69,0,0
0,28,0,25
0,38,100,20
0,42,80,0
0,42,0,15
0,38,0,0
0,42,80,45
0,42,0,15
0,71,0,45
0,36,100,0
0,69,70,0
0,42,80,0
0,70,35,0
0,42,0,15
0,36,0,0
0,69,0,0
0,69,70,15
0,69,0,15
0,69,70,15
0,42,80,0
0,51,100,0
0,42,0,15
0,69,0,0
0,69,70,15
0,69,0,15
0,51,0,15
0,69,70,0
0,38,100,0
0,42,80,0
0,42,0,15
0,38,0,0
0,69,0,0
0,69,70,15
0,69,0,15
0,69,70,15
0,42,80,0
0,51,100,0
0,42,0,15
0,69,0,0
0,51,0,45
0,69,70,0
0,42,80,0
0,36,100,0
0,80,80,0
0,27,80,0
0,80,0,15
0,36,0,0
0,42,0,0
0,69,0,0
0,69,70,15
0,80,80,0
0,80,0,15
0,69,0,0
0,27,0,15
0,42,80,0
0,69,70,0
0,80,80,0
0,36,100,0
0,27,80,0
0,36,0,15
0,80,0,0
0,69,0,0
0,42,0,0
0,69,70,15
0,69,0,15
0,27,0,15
0,69,70,0
0,42,80,0
0,38,100,0
0,27,80,0
0,38,0,15
0,42,0,0
0,69,0,0
0,69,70,15
0,69,0,15
0,27,0,15
0,80,80,0
0,42,80,0
0,69,70,0
0,51,100,0
0,30,80,0
0,69,0,15
0,42,0,0
0,80,0,0
0,80,80,15
0,80,0,15
0,51,0,5
0,30,0,10
0,70,0,0
0,69,70,0
0,42,80,0
0,36,100,0
0,56,100,0
0,56,70,0
0,75,30,0
0,32,100,0
0,36,0,15
0,69,0,0
0,42,0,0
0,69,70,15
0,69,0,15
0,56,0,5
0,56,0,10
0,69,70,0
0,42,80,0
0,32,0,10
0,42,0,5
0,69,0,0
0,42,80,45
0,38,100,0
0,56,100,0
0,56,70,0
0,32,100,0
0,38,0,15
0,42,0,0
0,56,0,35
0,56,0,10
0,42,80,0
0,32,0,10
0,42,0,5
0,69,70,45
0,42,80,0
0,36,100,0
0,56,100,0
0,56,70,0
0,32,100,0
0,36,0,15
0,42,0,0
0,69,0,0
0,69,70,15
0,69,0,15
0,56,0,5
0,56,0,10
0,69,70,0
0,42,80,0
0,36,100,0
0,32,0,10
0,42,0,5
0,36,0,0
0,69,0,0
0,69,70,15
0,69,0,15
0,69,70,15
0,42,80,0
0,38,100,0
0,38,0,15
0,42,0,0
0,69,0,0
0,69,70,15
0,69,0,15
0,69,70,15
0,42,80,0
0,42,0,15
0,69,0,0
0,69,70,45
0,42,80,0
0,36,100,0
0,36,0,15
0,42,0,0
0,69,0,0
0,69,70,15
0,69,0,15
0,69,70,15
0,42,80,0
0,56,100,0
0,32,100,0
0,42,0,15
0,69,0,0
0,32,0,35
0,56,0,0
0,42,80,10
0,38,100,0
0,56,100,0
0,32,100,0
0,38,0,15
0,42,0,0
0,32,0,35
0,56,0,10
0,42,80,0
0,58,100,0
0,34,100,0
0,42,0,15
0,34,0,45
0,58,0,0
0,42,80,0
0,36,100,0
0,69,70,0
0,59,100,0
0,35,100,0
0,69,0,15
0,36,0,0
0,42,0,0
0,69,70,15
0,69,0,15
0,35,0,15
0,59,0,0
0,69,70,0
0,42,80,0
0,36,100,0
0,58,100,0
0,34,100,0
0,36,0,15
0,42,0,0
0,69,0,0
0,69,70,15
0,69,0,15
0,34,0,15
0,58,0,0
0,69,70,0
0,42,80,0
0,38,100,0
0,56,100,0
0,32,100,0
0,38,0,15
0,42,0,0
0,69,0,0
0,69,70,15
0,69,0,15
0,32,0,15
0,56,0,0
0,69,70,0
0,42,80,0
0,54,100,0
0,30,100,0
0,42,0,15
0,69,0,0
0,75,0,45
0,54,0,0
0,30,0,0
0,69,70,0
0,42,80,0
0,36,100,0
0,52,100,0
0,71,35,0
0,28,100,0
0,36,0,15
0,69,0,0
0,42,0,0
0,69,70,15
0,69,0,15
0,28,0,15
0,52,0,0
0,69,70,0
0,42,80,0
0,42,0,15
0,69,0,0
0,42,80,45
0,38,100,0
0,59,100,0
0,28,100,0
0,38,0,15
0,42,0,0
0,28,0,45
0,59,0,0
0,42,80,0
0,42,0,15
0,69,70,45
0,42,80,0
0,36,100,0
0,52,100,0
0,28,100,0
0,36,0,15
0,42,0,0
0,69,0,0
0,69,70,15
0,69,0,15
0,28,0,15
0,52,0,0
0,69,70,0
0,42,80,0
0,36,100,0
0,36,0,15
0,42,0,0
0,69,0,0
0,69,70,15
0,69,0,15
0,69,70,15
0,42,80,0
0,38,100,0
0,38,0,15
0,42,0,0
0,69,0,0
0,69,70,15
0,69,0,15
0,69,70,15
0,42,80,0
0,42,0,15
0,69,0,0
0,71,0,45
0,69,70,0
0,42,80,0
0,36,100,0
0,70,35,0
0,36,0,15
0,69,0,0
0,42,0,0
0,69,70,15
0,69,0,15
0,69,70,15
0,42,80,0
0,51,100,0
0,42,0,15
0,69,0,0
0,69,70,15
0,69,0,15
0,51,0,15
0,69,70,0
0,42,80,0
0,38,100,0
0,38,0,15
0,42,0,0
0,69,0,0
0,69,70,15
0,69,0,15
0,42,80,15
0,69,70,0
0,51,100,0
0,69,0,15
0,42,0,0
0,51,0,45
0,69,70,0
0,42,80,0
0,36,100,0
0,27,80,0
0,36,0,15
0,42,0,0
0,69,0,0
0,69,70,15
0,36,100,0
0,36,0,15
0,69,0,0
0,27,0,5
0,69,70,10
0,42,80,0
0,36,100,0
0,27,80,0
0,36,0,15
0,42,0,0
0,69,0,0
0,69,70,15
0,36,100,0
0,36,0,15
0,69,0,0
0,27,0,5
0,69,70,10
0,46,80,0
0,42,80,0
0,38,100,0
0,27,80,0
0,38,0,15
0,42,0,0
0,46,0,0
0,69,0,0
0,69,70,15
0,69,0,15
0,27,0,5
0,69,70,10
0,46,80,0
0,38,100,0
0,42,80,0
0,30,80,0
0,42,0,15
0,38,0,0
0,46,0,0
0,69,0,0
0,70,0,45
0,30,0,0
0,46,100,0
0,53,80,0
0,58,70,0
0,49,70,0
0,51,80,0
0,42,80,0
0,36,100,0
0,69,70,0
0,52,50,0
0,52,65,0
0,40,85,0
0,64,100,0
0,76,40,0
0,64,40,0
0,76,40,0
0,40,95,0
0,64,80,0
0,40,100,0
0,52,100,0
0,69,0,15
0,36,0,0
0,49,0,0
0,46,0,0
0,58,0,0
0,42,0,0
0,53,0,0
0,51,0,0
0,69,70,15
0,69,0,15
0,69,70,15
0,42,80,0
0,42,0,15
0,69,0,0
0,64,0,15
0,52,0,20
0,76,0,0
0,40,0,10
0,52,0,0
0,64,0,0
0,38,100,0
0,42,80,0
0,52,85,0
0,64,40,0
0,76,50,0
0,42,0,15
0,38,0,0
0,64,0,15
0,40,0,30
0,40,0,0
0,42,80,0
0,42,0,15
0,76,0,5
0,64,0,10
0,52,0,30
0,69,70,0
0,42,80,0
0,36,100,0
0,52,65,0
0,64,100,0
0,64,60,0
0,76,40,0
0,64,80,0
0,36,0,15
0,42,0,0
0,69,0,0
0,69,70,15
0,69,0,15
0,69,70,15
0,42,80,0
0,42,0,15
0,69,0,0
0,64,0,15
0,64,0,10
0,76,0,10
0,52,0,10
0,42,80,0
0,38,100,0
0,52,65,0
0,76,50,0
0,38,0,15
0,42,0,0
0,64,0,15
0,42,80,30
0,42,0,15
0,76,0,5
0,52,0,40
0,52,0,0
0,76,0,0
0,46,100,0
0,53,80,0
0,69,70,0
0,42,80,0
0,36,100,0
0,51,50,0
0,39,85,0
0,51,85,0
0,63,100,0
0,75,40,0
0,75,40,0
0,39,95,0
0,63,80,0
0,51,100,0
0,39,100,0
0,36,0,15
0,42,0,0
0,46,0,0
0,69,0,0
0,53,0,0
0,69,70,15
0,69,0,15
0,69,70,15
0,42,80,0
0,42,0,15
0,69,0,0
0,75,0,5
0,51,0,30
0,51,0,10
0,63,0,0
0,39,0,0
0,63,0,0
0,42,80,0
0,38,100,0
0,52,65,0
0,64,100,0
0,75,40,0
0,64,80,0
0,38,0,15
0,42,0,0
0,39,0,45
0,64,0,0
0,64,0,0
0,75,0,0
0,39,0,0
0,42,80,0
0,36,70,0
0,63,100,0
0,75,40,0
0,63,80,0
0,36,0,15
0,42,0,0
0,52,0,35
0,69,70,10
0,42,80,0
0,36,100,0
0,36,0,15
0,42,0,0
0,69,0,0
0,69,70,15
0,63,0,10
0,69,0,5
0,75,0,5
0,63,0,10
0,69,70,0
0,42,80,0
0,61,100,0
0,73,40,0
0,61,80,0
0,42,0,15
0,69,0,0
0,42,80,45
0,38,100,0
0,37,95,0
0,38,0,15
0,42,0,0
0,73,0,5
0,61,0,20
0,61,0,20
0,42,80,0
0,36,60,0
0,61,100,0
0,61,50,0
0,73,40,0
0,61,95,0
0,36,0,15
0,42,0,0
0,36,60,15
0,44,60,0
0,37,0,10
0,36,0,5
0,75,0,15
0,51,0,0
0,46,100,0
0,53,80,0
0,69,70,0
0,42,80,0
0,36,100,0
0,44,85,0
0,32,85,0
0,71,40,0
0,32,95,0
0,44,100,0
0,32,100,0
0,36,0,15
0,42,0,0
0,53,0,0
0,69,0,0
0,46,0,0
0,73,0,15
0,69,70,0
0,69,0,15
0,61,0,5
0,61,0,10
0,69,70,0
0,42,80,0
0,59,100,0
0,71,40,0
0,59,95,0
0,61,0,10
0,42,0,5
0,69,0,0
0,32,0,45
0,44,0,0
0,42,80,0
0,38,100,0
0,38,0,15
0,42,0,0
0,71,0,15
0,32,0,30
0,44,0,0
0,59,0,0
0,42,80,0
0,71,40,0
0,32,0,10
0,42,0,5
0,36,100,15
0,69,70,0
0,69,0,15
0,36,0,0
0,59,0,15
0,36,100,0
0,69,70,0
0,69,0,15
