track,note,velocity,time
3,67,108,0
3,67,0,720
3,62,108,864
3,62,0,46
3,69,108,2
3,69,0,46
3,74,108,2
3,74,0,46
3,69,108,2
3,69,0,256
3,55,108,368
3,55,0,46
3,59,108,2
3,59,0,46
3,62,108,2
3,62,0,46
3,55,108,2
3,55,0,256
3,55,108,368
3,55,0,46
3,59,108,2
3,59,0,46
3,67,108,2
3,67,0,46
3,62,108,2
3,62,0,46
3,59,108,2
3,59,0,46
3,55,108,2
3,55,0,190
3,55,108,338
3,55,0,46
3,59,108,2
3,59,0,46
3,64,108,2
3,64,0,46
3,59,108,2
3,59,0,46
3,55,108,2
3,55,0,46
3,59,108,2
3,59,0,46
3,64,108,2
3,64,0,46
3,59,108,2
3,59,0,94
3,54,108,338
3,54,0,46
3,57,108,2
3,57,0,46
3,66,108,2
3,66,0,46
3,62,108,2
3,62,0,46
3,54,108,2
3,54,0,46
3,57,108,2
3,57,0,46
3,66,108,2
3,66,0,46
3,62,108,2
3,62,0,94
3,60,108,338
3,60,0,46
3,64,108,2
3,64,0,46
3,67,108,2
3,67,0,46
3,64,108,2
3,64,0,256
3,55,108,368
3,55,0,46
3,60,108,2
3,60,0,46
3,64,108,2
3,64,0,46
3,60,108,2
3,60,0,46
3,55,108,2
3,55,0,46
3,60,108,2
3,60,0,46
3,64,108,2
3,64,0,46
3,67,108,386
3,67,0,94
3,66,108,2
3,66,0,94
3,67,108,2
3,67,0,94
3,66,108,2
3,66,0,256
3,59,108,32
3,59,0,94
3,64,108,2
3,64,0,192
3,62,108,0
3,62,0,160
3,64,108,32
3,64,0,190
3,62,108,2
3,62,0,94
3,60,108,2
3,60,0,94
3,59,108,2
3,59,0,94
3,60,108,2
3,60,0,160
3,55,108,32
3,55,0,94
3,62,108,2
3,62,0,190
3,60,108,2
3,60,0,160
3,60,108,32
3,60,0,96
3,59,108,0
3,59,0,336
3,67,108,432
3,67,0,94
3,66,108,2
3,66,0,94
3,67,108,2
3,67,0,94
3,66,108,2
3,66,0,256
3,59,108,32
3,59,0,94
3,64,108,2
3,64,0,192
3,62,108,0
3,62,0,160
3,64,108,32
3,64,0,190
3,62,108,2
3,62,0,94
3,60,108,2
3,60,0,94
3,59,108,2
3,59,0,94
3,60,108,2
3,60,0,190
3,55,108,2
3,55,0,94
3,62,108,2
3,62,0,190
3,60,108,2
3,60,0,160
3,60,108,32
3,60,0,96
3,59,108,0
3,59,0,352
3,67,108,320
3,67,0,94
3,71,108,2
3,71,0,94
3,69,108,2
3,69,0,94
3,67,108,2
3,67,0,94
3,67,108,2
3,67,0,190
3,67,108,2
3,67,0,94
3,69,108,2
3,69,0,94
3,71,108,2
3,71,0,190
3,69,108,2
3,69,0,94
3,67,108,2
3,67,0,94
3,67,108,2
3,67,0,190
3,67,108,2
3,67,0,94
3,69,108,2
3,69,0,94
3,71,108,2
3,71,0,190
3,69,108,2
3,69,0,94
3,67,108,2
3,67,0,94
3,67,108,2
3,67,0,190
3,67,108,2
3,67,0,94
3,64,108,2
3,64,0,94
3,69,108,2
3,69,0,144
3,67,108,0
3,67,0,48
3,64,108,0
3,64,0,94
3,64,108,482
3,64,0,46
3,66,108,2
3,66,0,46
3,67,108,2
3,67,0,94
3,66,108,2
3,66,0,94
3,64,108,2
3,64,0,94
3,62,108,2
3,62,0,432
3,55,108,48
3,55,0,160
3,57,108,32
3,57,0,160
3,59,108,32
3,59,0,94
3,59,108,2
3,59,0,94
3,59,108,2
3,59,0,94
3,59,108,2
3,59,0,94
3,59,108,2
3,59,0,94
3,64,108,2
3,64,0,160
3,64,108,32
3,64,0,96
3,62,108,0
3,62,0,336
3,62,108,48
3,62,0,94
3,64,108,2
3,64,0,94
3,66,108,2
3,66,0,94
3,67,108,2
3,67,0,190
3,67,108,2
3,67,0,94
3,67,108,2
3,67,0,94
3,67,108,2
3,67,0,94
3,67,108,2
3,67,0,94
3,66,108,2
3,66,0,94
3,64,108,2
3,64,0,94
3,64,108,2
3,64,0,96
3,62,108,0
3,62,0,336
3,62,108,48
3,62,0,94
3,64,108,2
3,64,0,94
3,66,108,2
3,66,0,94
3,67,108,2
3,67,0,256
3,67,108,32
3,67,0,160
3,67,108,32
3,67,0,94
3,66,108,2
3,66,0,94
3,64,108,2
3,64,0,94
3,64,108,2
3,64,0,256
3,62,108,32
3,62,0,160
3,62,108,32
3,62,0,94
3,64,108,2
3,64,0,94
3,67,108,2
3,67,0,94
3,71,108,2
3,71,0,190
3,71,108,2
3,71,0,94
3,71,108,2
3,71,0,94
3,71,108,2
3,71,0,94
3,71,108,2
3,71,0,94
3,69,108,2
3,69,0,94
3,67,108,2
3,67,0,94
3,64,108,2
3,64,0,96
3,62,108,0
3,62,0,528
3,57,108,48
3,57,0,94
3,59,108,2
3,59,0,94
3,59,108,2
3,59,0,94
3,59,108,2
3,59,0,94
3,59,108,2
3,59,0,94
3,59,108,2
3,59,0,94
3,59,108,2
3,59,0,94
3,64,108,2
3,64,0,160
3,64,108,32
3,64,0,96
3,62,108,0
3,62,0,336
3,62,108,48
3,62,0,94
3,64,108,2
3,64,0,94
3,66,108,2
3,66,0,94
3,67,108,2
3,67,0,190
3,67,108,2
3,67,0,94
3,67,108,2
3,67,0,94
3,67,108,2
3,67,0,94
3,67,108,2
3,67,0,94
3,66,108,2
3,66,0,94
3,64,108,2
3,64,0,94
3,64,108,2
3,64,0,96
3,62,108,0
3,62,0,336
3,62,108,48
3,62,0,94
3,64,108,2
3,64,0,94
3,66,108,2
3,66,0,94
3,67,108,2
3,67,0,256
3,67,108,32
3,67,0,160
3,67,108,32
3,67,0,94
3,66,108,2
3,66,0,94
3,64,108,2
3,64,0,94
3,64,108,2
3,64,0,256
3,62,108,32
3,62,0,160
3,62,108,32
3,62,0,94
3,64,108,2
3,64,0,94
3,67,108,2
3,67,0,94
3,71,108,2
3,71,0,334
3,72,108,2
3,72,0,46
3,71,108,2
3,71,0,142
3,69,108,2
3,69,0,46
3,67,108,2
3,67,0,94
3,55,108,2
3,55,0,94
3,57,108,2
3,57,0,94
3,60,108,2
3,60,0,94
3,60,108,2
3,60,0,94
3,60,108,2
3,60,0,94
3,62,108,2
3,62,0,94
3,59,108,2
3,59,0,94
3,57,108,2
3,57,0,96
3,55,108,0
3,55,0,94
3,57,108,2
3,57,0,96
3,55,108,0
3,55,0,336
3,67,108,432
3,67,0,94
3,66,108,2
3,66,0,94
3,67,108,2
3,67,0,94
3,66,108,2
3,66,0,256
3,59,108,32
3,59,0,94
3,64,108,2
3,64,0,192
3,62,108,0
3,62,0,160
3,64,108,32
3,64,0,190
3,62,108,2
3,62,0,94
3,60,108,2
3,60,0,94
3,59,108,2
3,59,0,94
3,60,108,2
3,60,0,160
3,55,108,32
3,55,0,94
3,62,108,2
3,62,0,190
3,60,108,2
3,60,0,160
3,60,108,32
3,60,0,96
3,59,108,0
3,59,0,336
3,67,108,432
3,67,0,94
3,66,108,2
3,66,0,94
3,67,108,2
3,67,0,94
3,66,108,2
3,66,0,256
3,59,108,32
3,59,0,94
3,64,108,2
3,64,0,192
3,62,108,0
3,62,0,160
3,64,108,32
3,64,0,190
3,62,108,2
3,62,0,94
3,60,108,2
3,60,0,94
3,59,108,2
3,59,0,94
3,60,108,2
3,60,0,190
3,55,108,2
3,55,0,94
3,62,108,2
3,62,0,190
3,60,108,2
3,60,0,160
3,60,108,32
3,60,0,96
3,59,108,0
3,59,0,352
3,67,108,320
3,67,0,94
3,71,108,2
3,71,0,94
3,69,108,2
3,69,0,94
3,67,108,2
3,67,0,94
3,67,108,2
3,67,0,190
3,67,108,2
3,67,0,94
3,69,108,2
3,69,0,94
3,71,108,2
3,71,0,190
3,69,108,2
3,69,0,94
3,67,108,2
3,67,0,94
3,67,108,2
3,67,0,190
3,67,108,2
3,67,0,94
3,69,108,2
3,69,0,94
3,71,108,2
3,71,0,190
3,69,108,2
3,69,0,94
3,67,108,2
3,67,0,94
3,67,108,2
3,67,0,190
3,67,108,2
3,67,0,94
3,64,108,2
3,64,0,94
3,69,108,2
3,69,0,144
3,67,108,0
3,67,0,48
3,64,108,0
3,64,0,94
3,64,108,482
3,64,0,46
3,66,108,2
3,66,0,46
3,67,108,2
3,67,0,94
3,66,108,2
3,66,0,94
3,64,108,2
3,64,0,94
3,62,108,2
3,62,0,432
3,55,108,48
3,55,0,160
3,57,108,32
3,57,0,160
3,59,108,32
3,59,0,94
3,59,108,2
3,59,0,94
3,59,108,2
3,59,0,94
3,59,108,2
3,59,0,94
3,59,108,2
3,59,0,94
3,64,108,2
3,64,0,160
3,64,108,32
3,64,0,96
3,62,108,0
3,62,0,336
3,62,108,48
3,62,0,94
3,64,108,2
3,64,0,94
3,66,108,2
3,66,0,94
3,67,108,2
3,67,0,190
3,67,108,2
3,67,0,94
3,67,108,2
3,67,0,94
3,67,108,2
3,67,0,94
3,67,108,2
3,67,0,94
3,66,108,2
3,66,0,94
3,64,108,2
3,64,0,94
3,64,108,2
3,64,0,96
3,62,108,0
3,62,0,336
3,62,108,48
3,62,0,94
3,64,108,2
3,64,0,94
3,66,108,2
3,66,0,94
3,67,108,2
3,67,0,256
3,67,108,32
3,67,0,160
3,67,108,32
3,67,0,94
3,66,108,2
3,66,0,94
3,64,108,2
3,64,0,94
3,64,108,2
3,64,0,256
3,62,108,32
3,62,0,160
3,62,108,32
3,62,0,94
3,64,108,2
3,64,0,94
3,67,108,2
3,67,0,94
3,71,108,2
3,71,0,190
3,71,108,2
3,71,0,94
3,71,108,2
3,71,0,94
3,71,108,2
3,71,0,94
3,71,108,2
3,71,0,94
3,69,108,2
3,69,0,94
3,67,108,2
3,67,0,94
3,64,108,2
3,64,0,96
3,62,108,0
3,62,0,528
3,57,108,48
3,57,0,94
3,59,108,2
3,59,0,94
3,59,108,2
3,59,0,94
3,59,108,2
3,59,0,94
3,59,108,2
3,59,0,94
3,59,108,2
3,59,0,94
3,59,108,2
3,59,0,94
3,64,108,2
3,64,0,160
3,64,108,32
3,64,0,96
3,62,108,0
3,62,0,336
3,62,108,48
3,62,0,94
3,64,108,2
3,64,0,94
3,66,108,2
3,66,0,94
3,67,108,2
3,67,0,190
3,67,108,2
3,67,0,94
3,67,108,2
3,67,0,94
3,67,108,2
3,67,0,94
3,67,108,2
3,67,0,94
3,66,108,2
3,66,0,94
3,64,108,2
3,64,0,94
3,64,108,2
3,64,0,96
3,62,108,0
3,62,0,336
3,62,108,48
3,62,0,94
3,64,108,2
3,64,0,94
3,66,108,2
3,66,0,94
3,67,108,2
3,67,0,256
3,67,108,32
3,67,0,160
3,67,108,32
3,67,0,94
3,66,108,2
3,66,0,94
3,64,108,2
3,64,0,94
3,64,108,2
3,64,0,256
3,62,108,32
3,62,0,160
3,62,108,32
3,62,0,94
3,64,108,2
3,64,0,94
3,67,108,2
3,67,0,94
3,71,108,2
3,71,0,334
3,72,108,2
3,72,0,46
3,71,108,2
3,71,0,142
3,69,108,2
3,69,0,46
3,67,108,2
3,67,0,94
3,55,108,2
3,55,0,94
3,57,108,2
3,57,0,94
3,60,108,2
3,60,0,94
3,60,108,2
3,60,0,94
3,62,108,2
3,62,0,142
3,60,108,2
3,60,0,46
3,59,108,2
3,59,0,94
3,57,108,2
3,57,0,94
3,55,108,2
3,55,0,96
3,57,108,0
3,67,108,0
3,57,0,94
3,67,0,0
3,71,108,2
3,71,0,94
3,69,108,2
3,69,0,94
3,67,108,2
3,67,0,94
3,67,108,2
3,67,0,190
3,67,108,2
3,67,0,94
3,69,108,2
3,69,0,94
3,71,108,2
3,71,0,190
3,69,108,2
3,69,0,94
3,67,108,2
3,67,0,94
3,67,108,2
3,67,0,190
3,67,108,2
3,67,0,94
3,69,108,2
3,69,0,94
3,71,108,2
3,71,0,190
3,69,108,2
3,69,0,94
3,67,108,2
3,67,0,94
3,67,108,2
3,67,0,190
3,71,108,2
3,71,0,94
3,67,108,2
3,67,0,94
3,69,108,2
3,69,0,96
3,67,108,0
3,67,0,528
3,64,108,144
3,64,0,46
3,66,108,2
3,66,0,46
3,67,108,2
3,67,0,94
3,66,108,2
3,66,0,94
3,64,108,2
3,64,0,94
3,62,108,2
3,62,0,432
3,55,108,48
3,55,0,160
3,57,108,32
3,57,0,160
3,59,108,32
3,59,0,94
3,59,108,2
3,59,0,94
3,59,108,2
3,59,0,94
3,59,108,2
3,59,0,94
3,59,108,2
3,59,0,94
3,64,108,2
3,64,0,160
3,64,108,32
3,64,0,96
3,62,108,0
3,62,0,336
3,62,108,48
3,62,0,94
3,64,108,2
3,64,0,94
3,66,108,2
3,66,0,94
3,67,108,2
3,67,0,190
3,67,108,2
3,67,0,94
3,67,108,2
3,67,0,94
3,67,108,2
3,67,0,94
3,67,108,2
3,67,0,94
3,66,108,2
3,66,0,94
3,64,108,2
3,64,0,94
3,64,108,2
3,64,0,96
3,62,108,0
3,62,0,336
3,62,108,48
3,62,0,94
3,64,108,2
3,64,0,94
3,66,108,2
3,66,0,94
3,67,108,2
3,67,0,256
3,67,108,32
3,67,0,160
3,67,108,32
3,67,0,94
3,66,108,2
3,66,0,94
3,64,108,2
3,64,0,94
3,64,108,2
3,64,0,256
3,62,108,32
3,62,0,160
3,62,108,32
3,62,0,94
3,64,108,2
3,64,0,94
3,67,108,2
3,67,0,94
3,71,108,2
3,71,0,190
3,71,108,2
3,71,0,94
3,71,108,2
3,71,0,94
3,71,108,2
3,71,0,94
3,71,108,2
3,71,0,94
3,69,108,2
3,69,0,94
3,67,108,2
3,67,0,94
3,64,108,2
3,64,0,96
3,62,108,0
3,62,0,528
3,57,108,48
3,57,0,94
3,59,108,2
3,59,0,94
3,59,108,2
3,59,0,94
3,59,108,2
3,59,0,94
3,59,108,2
3,59,0,94
3,59,108,2
3,59,0,94
3,59,108,2
3,59,0,94
3,64,108,2
3,64,0,160
3,64,108,32
3,64,0,96
3,62,108,0
3,62,0,336
3,62,108,48
3,62,0,94
3,64,108,2
3,64,0,94
3,66,108,2
3,66,0,94
3,67,108,2
3,67,0,190
3,67,108,2
3,67,0,94
3,67,108,2
3,67,0,94
3,67,108,2
3,67,0,94
3,67,108,2
3,67,0,94
3,66,108,2
3,66,0,94
3,64,108,2
3,64,0,94
3,64,108,2
3,64,0,96
3,62,108,0
3,62,0,336
3,62,108,48
3,62,0,94
3,64,108,2
3,64,0,94
3,66,108,2
3,66,0,94
3,67,108,2
3,67,0,256
3,67,108,32
3,67,0,160
3,67,108,32
3,67,0,94
3,66,108,2
3,66,0,94
3,64,108,2
3,64,0,94
3,64,108,2
3,64,0,256
3,62,108,32
3,62,0,160
3,62,108,32
3,62,0,94
3,64,108,2
3,64,0,94
3,67,108,2
3,67,0,94
3,71,108,2
3,71,0,334
3,72,108,2
3,72,0,46
3,71,108,2
3,71,0,142
3,69,108,2
3,69,0,46
3,67,108,2
3,67,0,94
3,55,108,2
3,55,0,94
3,57,108,2
3,57,0,94
3,60,108,2
3,60,0,94
3,60,108,2
3,60,0,94
3,62,108,2
3,62,0,142
3,60,108,2
3,60,0,46
3,59,108,2
3,59,0,94
3,57,108,2
3,57,0,94
3,55,108,2
3,57,108,96
3,57,0,94
3,67,108,2
3,67,0,94
3,66,108,2
3,66,0,94
3,67,108,2
3,67,0,94
3,66,108,2
3,55,0,48
3,66,0,208
3,59,108,32
3,59,0,94
3,64,108,2
3,64,0,192
3,62,108,0
3,62,0,160
3,64,108,32
3,64,0,190
3,62,108,2
3,62,0,94
3,60,108,2
3,60,0,94
3,59,108,2
3,59,0,94
3,60,108,2
3,60,0,160
3,55,108,32
3,55,0,94
3,62,108,2
3,62,0,190
3,60,108,2
3,60,0,160
3,60,108,32
3,60,0,96
3,59,108,0
3,59,0,720
4,79,92,0
4,79,0,46
4,78,92,2
4,78,0,46
4,74,92,2
4,74,0,46
4,69,92,2
4,69,0,384
4,67,92,48
4,67,0,94
4,69,92,2
4,69,0,94
4,62,92,2
4,67,92,0
