track,note,velocity,time
1,58,91,1536
1,62,78,0
1,65,91,0
1,65,0,1536
1,62,0,0
1,58,0,0
1,57,95,0
1,65,91,0
1,60,78,0
1,60,0,1536
1,65,0,0
1,57,0,0
1,67,98,0
1,62,88,0
1,70,91,0
1,70,0,1536
1,62,0,0
1,67,0,0
1,70,104,0
1,67,114,0
1,63,109,0
1,63,0,1152
1,67,0,0
1,70,0,0
1,65,64,6528
1,62,63,0
1,58,65,0
1,58,0,1536
1,62,0,0
1,65,0,0
1,60,59,0
1,57,74,0
1,65,68,0
1,65,0,1536
1,57,0,0
1,60,0,0
1,60,64,0
1,67,76,0
1,63,73,0
1,63,0,1536
1,67,0,0
1,60,0,0
1,60,68,0
1,65,74,0
1,57,78,0
1,57,0,1536
1,65,0,0
1,60,0,0
1,60,68,0
1,67,76,0
1,63,71,0
1,63,0,1536
1,67,0,0
1,60,0,0
1,60,78,0
1,57,73,0
1,65,71,0
1,65,0,1536
1,57,0,0
1,60,0,0
1,62,82,0
1,65,85,0
1,58,88,0
1,58,0,768
1,65,0,0
1,62,0,0
1,60,74,0
1,57,88,0
1,65,74,0
1,65,0,768
1,57,0,0
1,60,0,0
1,62,91,0
1,58,85,0
1,55,88,0
1,55,0,1536
1,58,0,0
1,62,0,0
1,60,82,0
1,63,85,0
1,67,88,0
1,67,0,1536
1,63,0,0
1,60,0,0
1,65,82,0
1,62,70,0
1,58,80,0
1,58,0,1536
1,62,0,0
1,65,0,0
1,60,73,0
1,67,68,0
1,63,74,0
1,63,0,768
1,67,0,0
1,60,0,0
1,65,88,2304
1,62,80,0
1,58,88,0
1,89,114,0
1,58,0,1536
1,65,0,0
1,62,0,0
1,57,88,0
1,60,82,0
1,65,91,0
1,65,0,1536
1,60,0,0
1,57,0,0
1,67,98,0
1,60,82,0
1,63,88,0
1,63,0,1536
1,60,0,0
1,67,0,0
1,60,85,0
1,57,91,0
1,65,95,0
1,89,0,1524
1,60,0,12
1,57,0,0
1,65,0,0
1,65,88,0
1,62,80,0
1,58,88,0
1,89,114,0
1,58,0,1536
1,65,0,0
1,62,0,0
1,57,88,0
1,60,82,0
1,65,91,0
1,65,0,1536
1,60,0,0
1,57,0,0
1,67,98,0
1,60,82,0
1,63,88,0
1,63,0,1536
1,89,0,0
1,67,0,0
1,60,0,0
1,65,88,26112
1,62,80,0
1,58,88,0
1,89,114,0
1,58,0,1536
1,65,0,0
1,62,0,0
1,57,88,0
1,60,82,0
1,65,91,0
1,65,0,1536
1,60,0,0
1,57,0,0
1,67,98,0
1,60,82,0
1,63,88,0
1,63,0,1536
1,60,0,0
1,67,0,0
1,60,85,0
1,57,91,0
1,65,95,0
1,89,0,1524
1,60,0,12
1,57,0,0
1,65,0,0
1,65,88,0
1,62,80,0
1,58,88,0
1,89,114,0
1,58,0,1536
1,65,0,0
1,62,0,0
1,57,88,0
1,60,82,0
1,65,91,0
1,65,0,1536
1,60,0,0
1,57,0,0
1,67,98,0
1,60,82,0
1,63,88,0
1,63,0,1536
1,89,0,0
1,67,0,0
1,60,0,0
1,65,88,1536
1,62,80,0
1,58,88,0
1,89,114,0
1,58,0,1536
1,65,0,0
1,62,0,0
1,57,88,0
1,60,82,0
1,65,91,0
1,65,0,1536
1,60,0,0
1,57,0,0
1,67,98,0
1,60,82,0
1,63,88,0
1,63,0,1536
1,89,0,0
1,67,0,0
1,60,0,0
1,67,106,1536
1,60,98,0
1,63,110,0
1,67,0,1426
1,60,0,2
1,63,0,13
1,62,90,95
1,69,106,0
1,66,110,0
1,62,0,1352
1,69,0,8
1,66,0,5
1,70,98,171
1,67,110,0
1,62,93,0
1,69,37,480
1,69,0,304
1,62,0,521
1,67,0,0
1,70,0,18
1,74,110,213
1,67,98,0
1,70,103,0
1,70,0,1301
1,74,0,1
1,67,0,2
1,60,98,256
1,63,94,0
1,55,86,9
1,55,0,1267
1,60,0,6
1,63,0,13
1,60,90,230
1,65,102,0
1,69,93,0
1,65,0,1408
1,60,0,2
1,69,0,4
1,58,91,109
1,62,78,0
1,65,91,0
1,65,0,1536
1,62,0,0
1,58,0,0
1,57,95,0
1,65,91,0
1,60,78,0
1,60,0,1536
1,65,0,0
1,57,0,0
1,67,98,0
1,62,88,0
1,70,91,0
1,70,0,1536
1,62,0,0
1,67,0,0
1,70,104,0
1,67,114,0
1,63,109,0
1,63,0,1536
1,67,0,0
1,70,0,0
1,58,91,18
1,62,78,0
1,65,91,0
1,65,0,1536
1,62,0,0
1,58,0,0
1,57,95,0
1,65,91,0
1,60,78,0
1,60,0,1536
1,65,0,0
1,57,0,0
1,67,98,0
1,62,88,0
1,70,91,0
1,70,0,1536
1,62,0,0
1,67,0,0
1,70,104,0
1,67,114,0
1,63,109,0
1,63,0,1152
1,67,0,0
1,70,0,0
1,65,102,380
1,62,88,5
1,70,94,0
1,65,0,995
1,70,0,5
1,62,0,0
1,66,88,517
1,63,80,0
1,59,88,0
1,90,114,0
1,59,0,1536
1,66,0,0
1,63,0,0
1,58,88,0
1,61,82,0
1,66,91,0
1,66,0,1536
1,61,0,0
1,58,0,0
1,68,98,0
1,61,82,0
1,64,88,0
1,64,0,1536
1,61,0,0
1,68,0,0
1,61,85,0
1,58,91,0
1,66,95,0
1,90,0,1523
1,61,0,13
1,58,0,0
1,66,0,0
1,66,88,0
1,63,80,0
1,59,88,0
1,90,114,0
1,59,0,1536
1,66,0,0
1,63,0,0
1,58,88,0
1,61,82,0
1,66,91,0
1,66,0,1536
1,61,0,0
1,58,0,0
1,68,98,0
1,61,82,0
1,64,88,0
1,64,0,1536
1,90,0,0
1,68,0,0
1,61,0,0
1,66,91,0
1,61,82,0
1,58,88,0
1,66,88,1523
1,63,80,0
1,59,88,0
1,90,114,0
1,58,0,13
1,66,0,0
1,61,0,0
1,63,0,1523
1,66,0,0
1,59,0,0
1,58,88,0
1,61,82,0
1,66,91,0
1,66,0,1536
1,61,0,0
1,58,0,0
1,68,98,0
1,61,82,0
1,64,88,0
1,64,0,1536
1,61,0,0
1,68,0,0
1,61,85,0
1,58,91,0
1,66,95,0
1,90,0,1523
1,61,0,13
1,58,0,0
1,66,0,0
1,66,88,0
1,63,80,0
1,59,88,0
1,90,114,0
1,59,0,1536
1,66,0,0
1,63,0,0
1,58,88,0
1,61,82,0
1,66,91,0
1,66,0,1536
1,61,0,0
1,58,0,0
1,68,98,0
1,61,82,0
1,64,88,0
1,64,0,1536
1,90,0,0
1,68,0,0
1,61,0,0
1,66,91,13
1,61,82,0
1,58,88,0
1,66,88,1523
1,63,80,0
1,59,88,0
1,90,114,0
1,58,0,13
1,66,0,0
1,61,0,0
1,63,0,1523
1,66,0,0
1,59,0,0
1,58,88,0
1,61,82,0
1,66,91,0
1,66,0,1536
1,61,0,0
1,58,0,0
1,68,98,0
1,61,82,0
1,64,88,0
1,64,0,107
1,61,0,0
1,68,0,0
1,61,85,0
1,58,91,0
1,66,95,0
1,90,0,96
1,61,0,13
1,58,0,0
1,66,0,0
1,66,88,0
1,63,80,0
1,59,88,0
1,90,114,0
1,59,0,111
1,66,0,0
1,63,0,0
1,58,88,0
1,61,82,0
1,66,91,0
1,66,0,113
1,61,0,0
1,58,0,0
1,68,98,0
1,61,82,0
1,64,88,0
1,64,0,115
1,90,0,0
1,68,0,0
1,61,0,0
2,53,85,2112
2,62,78,192
2,53,0,38
2,63,88,154
2,62,0,39
2,65,85,153
2,63,0,48
2,60,78,144
2,65,0,19
2,53,91,749
2,53,0,176
2,60,95,16
2,60,0,55
2,62,95,137
2,60,0,3
2,63,104,189
2,62,0,12
2,58,120,180
2,63,0,9
2,58,0,861
2,58,114,474
2,58,0,184
2,60,98,8
2,60,0,183
2,62,114,9
2,63,104,192
2,62,0,5
2,63,0,170
2,62,114,17
2,62,0,178
2,60,104,14
2,60,0,748
2,53,85,89876
2,62,78,192
2,53,0,38
2,63,88,154
2,62,0,39
2,65,85,153
2,63,0,48
2,60,78,144
2,65,0,19
2,53,91,749
2,53,0,176
2,60,95,16
2,60,0,55
2,62,95,137
2,60,0,3
2,63,104,189
2,62,0,12
2,58,120,180
2,63,0,9
2,58,0,861
2,58,114,474
2,58,0,184
2,60,98,8
2,60,0,183
2,62,114,9
2,63,104,192
2,62,0,5
2,63,0,170
2,62,114,17
2,62,0,178
2,60,104,14
2,60,0,748
2,53,85,806
2,62,78,192
2,53,0,38
2,63,88,154
2,62,0,39
2,65,85,153
2,63,0,48
2,60,78,144
2,65,0,19
2,69,91,445
2,69,0,176
2,69,127,16
2,60,95,0
2,60,0,55
2,69,0,117
2,70,127,20
2,70,95,0
2,60,0,3
2,69,127,189
2,69,104,0
2,70,0,6
2,70,0,6
2,69,0,142
2,67,127,38
2,67,120,0
2,69,0,9
2,67,0,703
2,67,0,50
2,58,114,424
2,58,0,184
2,60,98,8
2,62,114,174
2,60,0,9
2,63,104,183
2,62,0,5
2,63,0,170
2,62,114,17
2,62,0,178
2,60,104,14
2,58,90,384
2,58,0,191
2,57,86,1
2,60,0,172
2,57,0,36
2,58,98,80
2,58,0,1019
3,74,127,558
3,75,127,192
3,74,0,18
3,75,0,173
3,77,127,1
3,77,0,170
3,72,127,22
3,72,0,476
3,72,127,161
3,72,0,172
3,74,127,20
3,75,127,192
3,74,0,6
3,75,0,148
3,70,127,38
3,70,0,669
3,70,127,424
3,58,127,0
3,70,0,174
3,58,0,8
3,60,127,10
3,72,127,0
3,72,0,175
3,60,0,7
3,62,127,10
3,74,127,0
3,63,127,88
3,75,127,0
3,74,0,14
3,62,0,2
3,63,0,173
3,62,127,3
3,74,127,0
3,75,0,8
3,62,0,172
3,74,0,2
3,60,127,10
3,72,127,0
3,60,0,749
3,72,0,2
3,63,79,583
3,67,90,0
3,70,79,0
3,70,0,71
3,67,0,0
3,63,0,4
3,70,94,106
3,63,86,6
3,67,98,0
3,70,0,67
3,67,0,1
3,63,0,2
3,63,79,103
3,70,82,0
3,67,98,5
3,67,0,224
3,63,0,3
3,70,0,4
3,66,103,186
3,62,88,1
3,69,98,5
3,62,0,136
3,66,0,3
3,69,0,7
3,69,93,602
3,66,98,5
3,62,88,4
3,62,0,54
3,66,0,12
3,69,0,6
3,66,94,105
3,62,88,4
3,69,98,4
3,62,0,60
3,69,0,7
3,66,0,0
3,69,102,107
3,62,90,1
3,66,98,0
3,62,0,234
3,69,0,15
3,66,0,2
3,67,106,151
3,62,82,5
3,70,103,0
3,70,0,135
3,67,0,8
3,62,0,4
3,67,106,632
3,70,103,0
3,62,98,7
3,62,0,47
3,70,0,7
3,67,0,10
3,67,102,100
3,70,98,0
3,62,95,6
3,62,0,58
3,70,0,9
3,67,0,14
3,62,98,107
3,67,98,0
3,70,103,0
3,62,0,151
3,67,0,12
3,70,0,22
3,70,110,203
3,74,110,0
3,67,93,1
3,70,0,934
3,67,0,7
3,74,0,0
3,74,127,558
3,75,127,192
3,74,0,18
3,75,0,173
3,77,127,1
3,77,0,170
3,72,127,22
3,72,0,476
3,72,127,161
3,72,0,172
3,74,127,20
3,75,127,192
3,74,0,6
3,75,0,148
3,70,127,38
3,70,0,669
3,70,127,424
3,58,127,0
3,70,0,174
3,58,0,8
3,60,127,10
3,72,127,0
3,72,0,175
3,60,0,7
3,62,127,10
3,74,127,0
3,63,127,88
3,75,127,0
3,74,0,14
3,62,0,2
3,63,0,173
3,62,127,3
3,74,127,0
3,75,0,8
3,62,0,172
3,74,0,2
3,60,127,10
3,72,127,0
3,60,0,749
3,72,0,2
3,74,127,558
3,75,127,192
3,74,0,18
3,75,0,173
3,77,127,1
3,77,0,170
3,72,127,22
3,72,0,476
3,81,127,161
3,81,0,172
3,82,127,20
3,81,127,192
3,82,0,6
3,81,0,148
3,79,127,38
3,74,127,151
3,72,127,182
3,74,0,12
3,72,0,69
3,70,127,106
3,79,0,149
3,70,0,372
3,70,127,52
3,58,127,0
3,70,0,174
3,58,0,8
3,60,127,10
3,72,127,0
3,74,127,174
3,62,127,0
3,72,0,1
3,60,0,7
3,75,127,70
3,63,127,0
3,74,0,14
3,62,0,2
3,63,0,66
3,74,127,3
3,62,127,0
3,75,0,8
3,62,0,172
3,74,0,2
3,72,127,10
3,60,127,0
3,58,90,9
3,70,110,0
3,58,0,122
3,70,0,48
3,57,98,21
3,69,106,0
3,69,0,126
3,57,0,12
3,60,0,35
3,72,0,2
3,70,118,17
3,58,118,0
3,70,0,191
3,58,0,22
4,77,109,2112
4,65,98,0
4,77,0,186
4,74,109,6
4,86,98,0
4,65,0,10
4,87,109,182
4,75,109,0
4,74,0,9
4,86,0,11
4,87,0,161
4,75,0,6
4,89,104,5
4,77,109,0
4,89,0,173
4,72,114,19
4,84,114,0
4,77,0,7
4,72,0,744
4,77,104,17
4,65,104,0
4,84,0,16
4,84,104,176
4,72,109,0
4,65,0,8
4,77,0,0
4,84,0,181
4,72,0,1
4,86,109,2
4,74,109,0
4,87,104,192
4,75,104,0
4,74,0,2
4,86,0,3
4,87,0,181
4,82,114,6
4,70,114,0
4,75,0,12
4,82,0,870
4,70,0,17
4,82,114,445
4,70,114,0
4,82,0,178
4,70,0,2
4,84,95,12
4,72,104,0
4,84,0,168
4,72,0,9
4,74,114,15
4,86,109,0
4,74,0,184
4,87,104,8
4,75,114,0
4,86,0,10
4,87,0,172
4,75,0,3
4,86,109,7
4,74,120,0
4,86,0,179
4,74,0,4
4,84,98,9
4,72,114,0
4,72,0,750
4,84,0,0
4,64,100,768
4,64,0,768
4,64,100,42240
4,64,0,768
4,65,98,9792
4,77,109,0
4,77,0,186
4,86,98,6
4,74,109,0
4,65,0,10
4,75,109,182
4,87,109,0
4,74,0,9
4,86,0,11
4,87,0,161
4,75,0,6
4,77,109,5
4,89,104,0
4,89,0,173
4,84,114,19
4,72,114,0
4,77,0,7
4,72,0,744
4,65,104,17
4,77,104,0
4,84,0,16
4,72,109,176
4,84,104,0
4,77,0,8
4,65,0,0
4,84,0,181
4,72,0,1
4,74,109,2
4,86,109,0
4,75,104,192
4,87,104,0
4,74,0,2
4,86,0,3
4,87,0,181
4,70,114,6
4,82,114,0
4,75,0,12
4,82,0,870
4,70,0,17
4,70,114,445
4,82,114,0
4,82,0,178
4,70,0,2
4,72,104,12
4,84,95,0
4,84,0,168
4,72,0,9
4,86,109,15
4,74,114,0
4,74,0,184
4,75,114,8
4,87,104,0
4,86,0,10
4,87,0,172
4,75,0,3
4,74,120,7
4,86,109,0
4,86,0,179
4,74,0,4
4,72,114,9
4,84,98,0
4,84,0,750
4,72,0,0
4,65,98,786
4,77,109,0
4,77,0,186
4,86,98,6
4,74,109,0
4,65,0,10
4,75,109,182
4,87,109,0
4,74,0,9
4,86,0,11
4,87,0,161
4,75,0,6
4,77,109,5
4,89,104,0
4,89,0,173
4,84,114,19
4,72,114,0
4,77,0,7
4,72,0,744
4,69,104,17
4,81,104,0
4,84,0,16
4,72,109,176
4,84,104,0
4,81,0,8
4,69,0,0
4,84,0,181
4,72,0,1
4,74,109,2
4,86,109,0
4,75,104,192
4,87,104,0
4,74,0,2
4,86,0,3
4,87,0,181
4,70,114,6
4,82,114,0
4,75,0,12
4,82,0,1254
4,70,0,17
4,70,114,61
4,82,114,0
4,82,0,178
4,70,0,2
4,72,104,12
4,84,95,0
4,84,0,168
4,72,0,9
4,86,109,15
4,74,114,0
4,74,0,184
4,75,114,8
4,87,104,0
4,86,0,10
4,87,0,172
4,75,0,3
4,74,120,7
4,86,109,0
4,86,0,179
4,74,0,4
4,72,114,9
4,84,98,0
4,70,103,384
4,82,98,0
4,82,0,187
4,70,0,3
4,81,95,2
4,69,88,0
4,84,0,174
4,72,0,0
4,70,98,18
4,82,110,0
4,81,0,5
4,69,0,17
4,82,0,834
4,70,0,57
5,58,114,1536
5,62,109,48
5,65,120,48
5,58,0,1440
5,57,114,0
5,65,109,0
5,60,109,0
5,62,0,48
5,65,0,48
5,65,0,1440
5,57,0,0
5,60,0,0
5,62,109,0
5,67,120,0
5,70,114,0
5,70,0,1536
5,67,0,0
5,62,0,0
5,67,114,0
5,63,109,0
5,70,109,0
5,70,0,1536
