track,note,velocity,time
1,37,120,0
1,37,0,47
1,37,120,130
1,37,0,52
1,37,120,0
1,37,0,51
1,37,120,129
1,37,0,51
1,37,120,0
1,37,0,51
1,37,120,129
1,37,0,52
1,37,120,728
1,37,0,47
1,37,120,133
1,37,0,51
1,37,120,729
1,37,0,47
1,37,120,433
1,37,0,50
1,37,120,170
1,37,0,2
1,37,120,18
1,37,0,113
1,40,120,7
1,40,0,119
1,33,120,1
1,33,0,71
1,33,120,149
1,33,0,6
1,33,120,14
1,33,0,79
1,32,120,161
1,32,0,60
1,32,120,160
1,32,0,6
1,32,120,14
1,32,0,69
1,32,120,51
1,32,0,116
1,37,120,4
1,37,0,73
1,37,120,147
1,37,0,9
1,36,120,11
1,36,0,82
1,37,120,158
1,37,0,69
1,37,120,151
1,37,0,2
1,37,120,18
1,37,0,113
1,40,120,7
1,40,0,113
1,33,120,7
1,33,0,76
1,33,120,144
1,33,0,6
1,33,120,14
1,33,0,83
1,32,120,157
1,32,0,68
1,32,120,152
1,32,0,7
1,32,120,13
1,32,0,74
1,32,120,46
1,32,0,106
1,30,120,14
1,30,0,77
1,30,120,143
1,30,0,6
1,30,120,14
1,30,0,78
1,30,120,102
1,30,0,57
1,32,120,3
1,32,0,65
1,32,120,155
1,32,0,9
1,32,120,11
1,32,0,107
1,32,120,13
1,32,0,110
1,33,120,10
1,33,0,88
1,33,120,132
1,33,0,11
1,33,120,9
1,35,120,180
1,33,0,1
1,35,0,59
1,35,120,180
1,35,0,50
1,35,120,70
1,32,120,60
1,35,0,4
1,32,0,51
1,35,120,5
1,37,120,60
1,35,0,2
1,37,0,69
1,37,120,109
1,37,0,45
1,32,120,15
1,32,0,76
1,32,120,104
1,32,0,48
1,37,120,12
1,37,0,65
1,37,120,115
1,37,0,52
1,35,120,8
1,35,0,1
1,28,120,0
1,28,0,71
1,28,120,109
1,28,0,55
1,35,120,5
1,35,0,65
1,35,120,115
1,35,0,47
1,28,120,13
1,28,0,70
1,28,120,110
1,28,0,49
1,35,120,11
1,35,0,72
1,35,120,28
1,35,0,19
1,36,120,1
1,36,0,75
1,36,120,25
1,37,120,20
1,36,0,1
1,37,0,69
1,37,120,110
1,37,0,50
1,32,120,10
1,32,0,77
1,32,120,103
1,32,0,47
1,37,120,13
1,37,0,70
1,37,120,110
1,37,0,47
1,35,120,13
1,35,0,117
1,27,120,3
1,27,0,112
1,28,120,1
1,28,0,91
1,28,120,129
1,28,0,13
1,28,120,7
1,28,0,98
1,32,120,142
1,32,0,58
1,32,120,62
1,32,0,58
1,32,120,62
1,32,0,16
1,37,120,9
1,37,0,67
1,37,120,1
1,37,0,43
1,37,120,17
1,37,0,59
1,32,120,181
1,32,0,108
1,33,120,12
1,33,0,69
1,33,120,151
1,33,0,10
1,33,120,10
1,33,0,87
1,32,120,153
1,32,0,68
1,32,120,152
1,32,0,7
1,32,120,13
1,32,0,86
1,32,120,34
1,32,0,109
1,37,120,11
1,37,0,78
1,37,120,42
1,37,0,114
1,35,120,6
1,35,0,14
1,35,120,46
1,35,0,52
1,32,120,8
1,32,0,15
1,30,120,15
1,30,0,16
1,27,120,14
1,27,0,38
1,25,120,22
1,25,0,70
1,37,120,150
1,37,0,3
1,37,120,17
1,37,0,120
1,40,120,0
1,40,0,116
1,33,120,4
1,33,0,72
1,33,120,148
1,33,0,9
1,33,120,11
1,33,0,79
1,32,120,161
1,32,0,72
1,32,120,148
1,32,0,7
1,32,120,13
1,32,0,75
1,32,120,45
1,32,0,110
1,30,120,10
1,30,0,89
1,30,120,131
1,30,0,3
1,30,120,17
1,30,0,62
1,30,120,58
1,30,0,112
1,32,120,8
1,32,0,99
1,32,120,121
1,32,0,7
1,32,120,13
1,32,0,119
1,30,120,1
1,30,0,110
1,33,120,10
1,33,0,92
1,33,120,128
1,33,0,10
1,33,120,10
1,33,0,177
1,35,120,3
1,35,0,65
1,35,120,55
1,35,0,36
1,35,120,24
1,35,0,56
1,35,120,124
1,35,0,60
1,32,120,0
1,32,0,58
1,35,120,2
1,37,120,60
1,35,0,1
1,37,0,70
1,37,120,109
1,37,0,45
1,32,120,15
1,32,0,76
1,32,120,104
1,32,0,48
1,37,120,12
1,37,0,65
1,37,120,115
1,37,0,52
1,35,120,8
1,35,0,1
1,28,120,1
1,28,0,71
1,28,120,109
1,28,0,55
1,35,120,5
1,35,0,65
1,35,120,115
1,35,0,47
1,28,120,13
1,28,0,70
1,28,120,110
1,28,0,49
1,35,120,11
1,35,0,72
1,35,120,28
1,35,0,19
1,36,120,1
1,36,0,75
1,36,120,25
1,37,120,20
1,36,0,1
1,37,0,69
1,37,120,110
1,37,0,50
1,32,120,10
1,32,0,77
1,32,120,103
1,32,0,47
1,37,120,13
1,37,0,70
1,37,120,110
1,37,0,47
1,35,120,13
1,35,0,117
1,27,120,3
1,27,0,112
1,28,120,8
1,28,0,91
1,28,120,129
1,28,0,13
1,28,120,7
1,28,0,98
1,32,120,142
1,32,0,58
1,37,120,422
1,37,0,51
1,37,120,129
1,37,0,52
1,37,120,728
1,37,0,47
1,37,120,133
1,37,0,51
1,33,120,0
1,35,120,480
1,33,0,3
1,35,0,357
1,32,120,0
1,32,0,120
1,37,120,0
1,37,0,433
1,37,120,0
1,37,0,70
1,35,120,290
1,35,0,70
1,37,120,50
1,37,0,65
1,37,120,115
1,37,0,52
1,35,120,8
1,35,0,1
1,28,120,1
1,28,0,71
1,28,120,109
1,28,0,55
1,35,120,5
1,35,0,65
1,35,120,115
1,35,0,47
1,28,120,13
1,28,0,70
1,28,120,110
1,28,0,49
1,35,120,11
1,35,0,72
1,35,120,28
1,35,0,19
1,36,120,1
1,36,0,75
1,36,120,25
1,37,120,20
1,36,0,1
1,37,0,69
1,37,120,110
1,37,0,50
1,32,120,10
1,32,0,77
1,32,120,103
1,32,0,47
1,37,120,13
1,37,0,70
1,37,120,110
1,37,0,47
1,35,120,13
1,35,0,117
1,27,120,3
1,27,0,112
1,28,120,8
1,28,0,91
1,28,120,129
1,28,0,13
1,28,120,7
1,28,0,98
1,33,120,142
1,33,0,70
1,35,120,170
1,35,0,70
1,37,120,170
1,37,0,71
1,37,120,109
1,37,0,45
1,32,120,15
1,32,0,76
1,32,120,104
1,32,0,48
1,37,120,12
1,37,0,65
1,37,120,115
1,37,0,48
1,35,120,12
1,35,0,177
1,33,120,3
1,33,0,56
1,32,120,4
1,32,0,117
1,28,120,3
1,35,120,120
1,28,0,1
1,35,0,48
1,35,120,131
1,35,0,47
1,28,120,13
1,28,0,70
1,28,120,110
1,28,0,49
1,35,120,11
1,35,0,72
1,35,120,28
1,35,0,19
1,36,120,1
1,36,0,75
1,36,120,25
1,37,120,20
1,36,0,1
1,37,0,69
1,37,120,110
1,37,0,50
1,32,120,10
1,32,0,77
1,32,120,103
1,32,0,47
1,37,120,13
1,37,0,70
1,37,120,110
1,37,0,47
1,35,120,13
1,35,0,117
1,27,120,3
1,27,0,112
1,28,120,1
1,28,0,91
1,28,120,129
1,28,0,13
1,28,120,7
1,28,0,98
1,32,120,142
1,32,0,58
1,32,120,62
1,32,0,58
1,32,120,62
1,32,0,16
1,37,120,9
1,37,0,71
1,37,120,109
1,37,0,45
1,32,120,15
1,32,0,76
1,32,120,104
1,32,0,48
1,37,120,1
1,37,0,65
1,37,120,115
1,37,0,48
1,35,120,12
1,35,0,177
1,33,120,3
1,33,0,56
1,32,120,4
1,32,0,117
1,28,120,3
1,35,120,120
1,28,0,1
1,35,0,48
1,35,120,131
1,35,0,47
1,28,120,13
1,28,0,70
1,28,120,110
1,28,0,49
1,35,120,11
1,35,0,72
1,35,120,28
1,35,0,19
1,36,120,1
1,36,0,75
1,36,120,25
1,37,120,20
1,36,0,1
1,37,0,69
1,37,120,110
1,37,0,50
1,32,120,10
1,32,0,77
1,32,120,103
1,32,0,47
1,37,120,13
1,37,0,70
1,37,120,110
1,37,0,47
1,35,120,13
1,35,0,117
1,27,120,3
1,27,0,112
1,28,120,8
1,28,0,91
1,28,120,129
1,28,0,13
1,28,120,7
1,28,0,98
1,32,120,142
1,32,0,58
3,59,100,600
3,61,100,60
3,59,0,1
3,61,0,29
3,59,100,0
3,59,0,30
3,56,100,0
3,56,0,61
3,56,100,420
3,56,0,55
3,61,100,5
3,61,0,37
3,61,100,23
3,61,0,36
3,61,100,24
3,61,0,38
3,61,100,22
3,49,100,60
3,61,0,2
3,49,0,64
3,56,100,594
3,56,0,52
3,61,100,8
3,61,0,37
3,61,100,23
3,61,0,39
3,61,100,21
3,61,0,40
3,61,100,20
3,61,0,60
3,49,100,0
3,49,0,63
3,61,120,60
3,61,0,33
3,61,120,27
3,61,0,32
3,61,120,28
3,61,0,50
3,60,120,10
3,60,0,60
3,61,120,0
3,61,0,53
3,63,120,7
3,63,0,52
3,61,120,8
3,61,0,111
3,61,120,129
3,61,0,47
3,60,120,13
3,60,0,59
3,61,120,1
3,61,0,50
3,64,120,10
3,64,0,51
3,57,120,9
3,57,0,93
3,57,120,147
3,57,0,60
3,64,120,0
3,64,0,42
3,64,120,18
3,64,0,33
3,64,120,27
3,64,0,32
3,56,120,28
3,56,0,75
3,56,100,45
3,56,0,70
3,56,80,50
3,56,0,66
3,60,120,54
3,60,0,52
3,63,120,8
3,63,0,53
3,56,120,7
3,56,0,47
3,61,120,13
3,61,0,79
3,61,120,41
3,61,0,85
3,60,120,35
3,60,0,59
3,61,120,1
3,61,0,59
3,63,120,1
3,63,0,42
3,64,120,18
3,64,0,30
3,63,120,0
3,63,0,30
3,61,120,0
3,61,0,110
3,61,120,100
3,61,0,12
3,61,120,18
3,63,120,60
3,61,0,2
3,63,0,51
3,64,120,7
3,64,0,27
3,64,120,33
3,63,120,90
3,64,0,2
3,63,0,27
3,61,120,1
3,61,0,80
3,61,120,70
3,61,0,23
3,64,120,7
3,64,0,28
3,64,120,32
3,64,0,57
3,66,120,3
3,66,0,30
3,66,120,30
3,61,120,60
3,66,0,1
3,61,0,58
3,63,120,1
3,63,0,195
3,61,120,105
3,61,0,56
3,63,120,4
3,63,0,52
3,64,120,8
3,64,0,169
3,68,120,11
3,68,0,168
3,64,120,12
3,64,0,116
3,66,120,4
3,66,0,169
3,63,120,11
3,63,0,131
3,63,120,49
3,63,0,38
3,63,120,22
3,63,0,45
3,64,120,15
3,64,0,87
3,64,120,33
3,64,0,79
3,64,120,41
3,64,0,32
3,66,120,28
3,66,0,32
3,68,120,28
3,68,0,31
3,66,120,29
3,66,0,83
3,68,120,157
3,68,0,51
3,66,120,9
3,66,0,53
3,64,120,7
3,64,0,51
3,63,120,9
3,63,0,57
3,61,120,3
3,61,0,54
3,68,120,6
3,68,0,66
3,61,120,54
3,61,0,75
3,60,120,45
3,60,0,58
3,61,120,2
3,61,0,47
3,63,120,13
3,63,0,44
3,61,120,16
3,61,0,140
3,59,120,100
3,59,0,30
3,59,120,30
3,59,0,57
3,63,120,3
3,63,0,54
3,66,120,6
3,66,0,54
3,64,120,6
3,64,0,157
3,59,120,83
3,59,0,60
3,66,120,0
3,66,0,35
3,68,120,25
3,68,0,53
3,66,120,7
3,66,0,41
3,64,120,19
3,64,0,147
3,68,120,93
3,68,0,51
3,66,120,9
3,66,0,53
3,64,120,7
3,64,0,43
3,61,120,17
3,61,0,55
3,60,120,5
3,60,0,38
3,68,120,22
3,68,0,70
3,61,120,50
3,61,0,69
3,60,120,51
3,60,0,48
3,61,120,12
3,63,120,60
3,61,0,1
3,63,0,44
3,64,120,15
3,64,0,30
3,63,120,0
3,63,0,26
3,61,120,4
3,61,0,114
3,59,120,66
3,59,0,17
3,59,120,13
3,59,0,18
3,59,120,12
3,59,0,46
3,63,120,14
3,63,0,59
3,66,120,1
3,66,0,43
3,69,120,17
3,69,0,114
3,68,120,6
3,68,0,105
3,66,120,15
3,66,0,114
3,64,120,6
3,64,0,70
3,64,120,50
3,64,0,41
3,68,120,19
3,68,0,61
3,68,120,59
3,68,0,68
3,66,120,52
3,66,0,54
3,64,120,6
3,64,0,36
3,61,120,24
3,61,0,95
3,61,100,60
3,61,0,32
3,61,100,28
3,61,0,33
3,61,100,27
3,61,0,44
3,60,100,16
3,61,100,60
3,60,0,1
3,61,0,42
3,63,100,17
3,63,0,48
3,61,100,12
3,61,0,104
3,61,120,60
3,61,0,40
3,60,120,20
3,60,0,59
3,61,120,1
3,61,0,47
3,63,120,13
3,63,0,46
3,57,120,14
3,57,0,145
3,64,120,155
3,64,0,32
3,64,120,28
3,64,0,29
3,64,120,31
3,64,0,39
3,56,120,21
3,56,0,111
3,57,120,9
3,57,0,42
3,56,120,18
3,56,0,46
3,54,120,14
3,54,0,113
3,52,120,7
3,52,0,44
3,51,120,16
3,51,0,51
3,49,120,9
3,49,0,55
3,61,120,65
3,61,0,23
3,61,120,37
3,61,0,102
3,59,120,18
3,59,0,21
3,59,120,39
3,59,0,57
3,61,120,3
3,61,0,47
3,61,120,13
3,61,0,140
3,61,120,100
3,61,0,16
3,61,120,14
3,61,0,17
3,61,120,13
3,63,120,60
3,61,0,2
3,63,0,53
3,64,120,5
3,64,0,27
3,64,120,33
3,64,0,60
3,63,120,0
3,63,0,30
3,61,120,0
3,61,0,135
3,61,120,45
3,61,0,23
3,64,120,7
3,64,0,23
3,64,120,37
3,66,120,60
3,64,0,2
3,66,0,23
3,66,120,35
3,61,120,60
3,66,0,1
3,61,0,58
3,63,120,1
3,63,0,189
3,61,120,111
3,61,0,49
3,63,120,11
3,63,0,49
3,64,120,11
3,64,0,160
3,68,120,20
3,68,0,162
3,64,120,18
3,64,0,105
3,66,120,15
3,66,0,165
3,63,120,15
3,63,0,122
3,63,120,58
3,63,0,38
3,63,120,22
3,63,0,39
3,64,120,21
3,64,0,74
3,64,120,46
3,64,0,80
3,64,120,40
3,64,0,37
3,66,120,23
3,66,0,47
3,68,120,13
3,68,0,46
3,66,120,14
3,66,0,105
3,68,120,75
3,68,0,50
3,66,120,10
3,66,0,80
3,68,120,40
3,68,0,129
3,68,120,51
3,68,0,66
3,61,120,54
3,61,0,75
3,60,120,45
3,60,0,58
3,61,120,2
3,61,0,47
3,63,120,13
3,63,0,44
3,61,120,16
3,61,0,140
3,59,120,100
3,59,0,30
3,59,120,30
3,59,0,57
3,63,120,3
3,63,0,54
3,66,120,6
3,66,0,54
3,64,120,6
3,64,0,157
3,59,120,83
3,59,0,60
3,66,120,0
3,66,0,35
3,68,120,25
3,68,0,53
3,66,120,7
3,66,0,41
3,64,120,19
3,64,0,147
3,68,120,93
3,68,0,51
3,66,120,9
3,66,0,53
3,64,120,7
3,64,0,43
3,61,120,17
3,61,0,55
3,60,120,5
3,60,0,38
3,68,120,22
3,68,0,70
3,61,120,50
3,61,0,69
3,60,120,51
3,60,0,42
3,61,120,18
3,63,120,60
3,61,0,5
3,63,0,40
3,64,120,15
3,64,0,29
3,63,120,1
3,63,0,26
3,61,120,4
3,61,0,114
3,59,120,66
3,59,0,17
3,59,120,13
3,59,0,18
3,59,120,12
3,59,0,46
3,63,120,14
3,63,0,59
3,66,120,1
3,66,0,43
3,69,120,17
3,69,0,114
3,68,120,6
3,68,0,105
3,66,120,15
3,66,0,114
3,64,120,6
3,64,0,70
3,64,120,50
3,64,0,48
3,68,120,12
3,68,0,73
3,68,120,47
3,68,0,74
3,66,120,46
3,64,120,60
3,66,0,6
3,64,0,40
3,61,120,14
3,61,0,43
3,61,120,17
3,61,0,24
3,59,120,6
3,59,0,24
3,61,120,6
3,61,0,58
3,64,120,2
3,64,0,12
3,56,100,288
3,56,0,55
3,61,100,5
3,61,0,37
3,61,100,23
3,61,0,36
3,61,100,24
3,61,0,38
3,61,100,22
3,49,100,60
3,61,0,1
3,49,0,65
3,56,100,421
3,56,0,52
3,61,100,0
3,61,0,7
3,61,100,0
3,61,0,1
3,61,100,0
3,61,0,3
3,61,100,0
3,49,100,0
3,61,0,1
3,49,0,8
3,60,20,5
3,60,0,83
