track,note,velocity,time
1,58,91,0
1,62,78,0
1,65,91,0
1,57,95,0
1,65,91,0
1,60,78,0
1,67,98,0
1,62,88,0
1,70,91,0
1,70,104,0
1,67,114,0
1,63,109,0
1,65,64,0
1,62,63,0
1,58,65,0
1,60,59,0
1,57,74,0
1,65,68,0
1,60,64,0
1,67,76,0
1,63,73,0
1,60,68,0
1,65,74,0
1,57,78,0
1,60,68,0
1,67,76,0
1,63,71,0
1,60,78,0
1,57,73,0
1,65,71,0
1,62,82,0
1,65,85,0
1,58,88,0
1,60,74,0
1,57,88,0
1,65,74,0
1,62,91,0
1,58,85,0
1,55,88,0
1,60,82,0
1,63,85,0
1,67,88,0
1,65,82,0
1,62,70,0
1,58,80,0
1,60,73,0
1,67,68,0
1,63,74,0
1,65,88,2304
1,62,80,0
1,58,88,0
1,89,114,0
1,57,88,0
1,60,82,0
1,65,91,0
1,67,98,0
1,60,82,0
1,63,88,0
1,60,85,0
1,57,91,0
1,65,95,0
1,65,88,0
1,62,80,0
1,58,88,0
1,89,114,0
1,57,88,0
1,60,82,0
1,65,91,0
1,67,98,0
1,60,82,0
1,63,88,0
1,65,88,0
1,62,80,0
1,58,88,0
1,89,114,0
1,57,88,0
1,60,82,0
1,65,91,0
1,67,98,0
1,60,82,0
1,63,88,0
1,60,85,0
1,57,91,0
1,65,95,0
1,65,88,0
1,62,80,0
1,58,88,0
1,89,114,0
1,57,88,0
1,60,82,0
1,65,91,0
1,67,98,0
1,60,82,0
1,63,88,0
1,65,88,0
1,62,80,0
1,58,88,0
1,89,114,0
1,57,88,0
1,60,82,0
1,65,91,0
1,67,98,0
1,60,82,0
1,63,88,0
1,67,106,0
1,60,98,0
1,63,110,0
1,62,90,95
1,69,106,0
1,66,110,0
1,70,98,171
1,67,110,0
1,62,93,0
1,69,37,480
1,74,110,213
1,67,98,0
1,70,103,0
1,60,98,24
1,63,94,0
1,55,86,9
1,60,90,230
1,65,102,0
1,69,93,0
1,58,91,0
1,62,78,0
1,65,91,0
1,57,95,0
1,65,91,0
1,60,78,0
1,67,98,0
1,62,88,0
1,70,91,0
1,70,104,0
1,67,114,0
1,63,109,0
1,58,91,18
1,62,78,0
1,65,91,0
1,57,95,0
1,65,91,0
1,60,78,0
1,67,98,0
1,62,88,0
1,70,91,0
1,70,104,0
1,67,114,0
1,63,109,0
1,65,102,380
1,62,88,5
1,70,94,0
1,66,88,0
1,63,80,0
1,59,88,0
1,90,114,0
1,58,88,0
1,61,82,0
1,66,91,0
1,68,98,0
1,61,82,0
1,64,88,0
1,61,85,0
1,58,91,0
1,66,95,0
1,66,88,0
1,63,80,0
1,59,88,0
1,90,114,0
1,58,88,0
1,61,82,0
1,66,91,0
1,68,98,0
1,61,82,0
1,64,88,0
1,66,91,0
1,61,82,0
1,58,88,0
1,66,88,371
1,63,80,0
1,59,88,0
1,90,114,0
1,58,88,0
1,61,82,0
1,66,91,0
1,68,98,0
1,61,82,0
1,64,88,0
1,61,85,0
1,58,91,0
1,66,95,0
1,66,88,0
1,63,80,0
1,59,88,0
1,90,114,0
1,58,88,0
1,61,82,0
1,66,91,0
1,68,98,0
1,61,82,0
1,64,88,0
1,66,91,0
1,61,82,0
1,58,88,0
1,66,88,371
1,63,80,0
1,59,88,0
1,90,114,0
1,58,88,0
1,61,82,0
1,66,91,0
1,68,98,0
1,61,82,0
1,64,88,0
1,61,85,0
1,58,91,0
1,66,95,0
1,66,88,0
1,63,80,0
1,59,88,0
1,90,114,0
1,58,88,0
1,61,82,0
1,66,91,0
1,68,98,0
1,61,82,0
1,64,88,0
2,53,85,576
2,62,78,192
2,63,88,154
2,65,85,153
2,60,78,144
2,53,91,749
2,60,95,16
2,62,95,137
2,63,104,189
2,58,120,180
2,58,114,474
2,60,98,8
2,62,114,9
2,63,104,192
2,62,114,17
2,60,104,14
2,53,85,89876
2,62,78,192
2,63,88,154
2,65,85,153
2,60,78,144
2,53,91,749
2,60,95,16
2,62,95,137
2,63,104,189
2,58,120,180
2,58,114,474
2,60,98,8
2,62,114,9
2,63,104,192
2,62,114,17
2,60,104,14
2,53,85,806
2,62,78,192
2,63,88,154
2,65,85,153
2,60,78,144
2,69,91,445
2,69,127,16
2,60,95,0
2,70,127,20
2,70,95,0
2,69,127,189
2,69,104,0
2,67,127,38
2,67,120,0
2,58,114,424
2,60,98,8
2,62,114,174
2,63,104,183
2,62,114,17
2,60,104,14
2,58,90,384
2,57,86,1
2,58,98,80
3,74,127,558
3,75,127,192
3,77,127,1
3,72,127,22
3,72,127,161
3,74,127,20
3,75,127,192
3,70,127,38
3,70,127,424
3,58,127,0
3,60,127,10
3,72,127,0
3,62,127,10
3,74,127,0
3,63,127,88
3,75,127,0
3,62,127,3
3,74,127,0
3,60,127,10
3,72,127,0
3,63,79,583
3,67,90,0
3,70,79,0
3,70,94,106
3,63,86,6
3,67,98,0
3,63,79,103
3,70,82,0
3,67,98,5
3,66,103,186
3,62,88,1
3,69,98,5
3,69,93,602
3,66,98,5
3,62,88,4
3,66,94,105
3,62,88,4
3,69,98,4
3,69,102,107
3,62,90,1
3,66,98,0
3,67,106,151
3,62,82,5
3,70,103,0
3,67,106,632
3,70,103,0
3,62,98,7
3,67,102,100
3,70,98,0
3,62,95,6
3,62,98,107
3,67,98,0
3,70,103,0
3,70,110,203
3,74,110,0
3,67,93,1
3,74,127,558
3,75,127,192
3,77,127,1
3,72,127,22
3,72,127,161
3,74,127,20
3,75,127,192
3,70,127,38
3,70,127,424
3,58,127,0
3,60,127,10
3,72,127,0
3,62,127,10
3,74,127,0
3,63,127,88
3,75,127,0
3,62,127,3
3,74,127,0
3,60,127,10
3,72,127,0
3,74,127,558
3,75,127,192
3,77,127,1
3,72,127,22
3,81,127,161
3,82,127,20
3,81,127,192
3,79,127,38
3,74,127,151
3,72,127,182
3,70,127,106
3,70,127,52
3,58,127,0
3,60,127,10
3,72,127,0
3,74,127,174
3,62,127,0
3,75,127,70
3,63,127,0
3,74,127,3
3,62,127,0
3,72,127,10
3,60,127,0
3,58,90,9
3,70,110,0
3,57,98,21
3,69,106,0
3,70,118,17
3,58,118,0
4,77,109,576
4,65,98,0
4,74,109,6
4,86,98,0
4,87,109,182
4,75,109,0
4,89,104,5
4,77,109,0
4,72,114,19
4,84,114,0
4,77,104,17
4,65,104,0
4,84,104,176
4,72,109,0
4,86,109,2
4,74,109,0
4,87,104,192
4,75,104,0
4,82,114,6
4,70,114,0
4,82,114,445
4,70,114,0
4,84,95,12
4,72,104,0
4,74,114,15
4,86,109,0
4,87,104,8
4,75,114,0
4,86,109,7
4,74,120,0
4,84,98,9
4,72,114,0
4,64,100,768
4,64,100,768
4,65,98,9792
4,77,109,0
4,86,98,6
4,74,109,0
4,75,109,182
4,87,109,0
4,77,109,5
4,89,104,0
4,84,114,19
4,72,114,0
4,65,104,17
4,77,104,0
4,72,109,176
4,84,104,0
4,74,109,2
4,86,109,0
4,75,104,192
4,87,104,0
4,70,114,6
4,82,114,0
4,70,114,445
4,82,114,0
4,72,104,12
4,84,95,0
4,86,109,15
4,74,114,0
4,75,114,8
4,87,104,0
4,74,120,7
4,86,109,0
4,72,114,9
4,84,98,0
4,65,98,786
4,77,109,0
4,86,98,6
4,74,109,0
4,75,109,182
4,87,109,0
4,77,109,5
4,89,104,0
4,84,114,19
4,72,114,0
4,69,104,17
4,81,104,0
4,72,109,176
4,84,104,0
4,74,109,2
4,86,109,0
4,75,104,192
4,87,104,0
4,70,114,6
4,82,114,0
4,70,114,61
4,82,114,0
4,72,104,12
4,84,95,0
4,86,109,15
4,74,114,0
4,75,114,8
4,87,104,0
4,74,120,7
4,86,109,0
4,72,114,9
4,84,98,0
4,70,103,384
4,82,98,0
4,81,95,2
4,69,88,0
4,70,98,18
4,82,110,0
5,58,114,0
5,62,109,48
5,65,120,48
5,57,114,0
5,65,109,0
5,60,109,0
5,62,109,0
5,67,120,0
5,70,114,0
5,67,114,0
5,63,109,0
5,70,109,0
5,65,114,0
5,62,104,0
5,70,109,0
5,65,109,59
5,69,120,0
5,72,120,0
5,67,114,255
5,72,114,0
5,63,114,0
5,65,98,74
5,69,109,0
5,72,109,0
5,65,114,50
5,62,104,0
5,70,109,0
5,65,109,59
5,69,120,0
5,72,120,0
5,67,114,255
5,72,114,0
5,63,114,0
5,65,98,74
5,69,109,0
5,72,109,0
5,60,104,50
5,63,120,0
5,67,114,0
5,57,120,90
5,65,120,0
5,60,104,0
5,58,114,73
5,65,104,0
5,62,120,0
5,65,114,23
5,60,109,0
5,57,114,0
5,62,109,72
5,58,120,0
5,55,120,0
5,60,109,189
5,63,109,0
5,67,114,0
5,58,120,18
5,65,124,0
5,62,109,0
5,60,104,111
5,63,114,0
5,67,120,0
5,70,109,0
5,63,124,60
5,70,104,0
5,67,114,0
5,60,98,0
5,65,104,706
5,70,98,0
5,62,104,0
5,65,120,266
5,62,109,0
5,58,114,0
5,65,120,6
5,62,114,0
5,58,114,0
5,65,120,296
5,62,109,0
5,58,114,0
5,60,104,73
5,65,95,0
5,57,109,0
5,65,124,33
5,57,98,0
5,60,98,0
5,67,120,26
5,63,114,0
5,60,91,0
5,67,114,31
5,63,120,0
5,60,109,0
5,67,114,302
5,60,109,0
5,63,120,0
5,60,109,40
5,65,120,0
5,57,114,0
5,57,120,41
5,65,120,0
5,60,104,0
5,65,120,96
5,62,109,0
5,58,114,0
5,65,120,6
5,62,114,0
5,58,114,0
5,65,120,296
5,62,109,0
5,58,114,0
5,60,104,73
5,65,95,0
5,57,109,0
5,65,124,33
5,57,98,0
5,60,98,0
5,67,120,26
5,63,114,0
5,60,91,0
5,67,114,31
5,63,120,0
5,60,109,0
5,67,114,302
5,60,109,0
5,63,120,0
5,65,91,0
5,62,85,0
5,70,85,0
5,65,114,0
5,62,104,0
5,70,109,0
5,65,109,59
5,69,120,0
5,72,120,0
5,67,114,255
5,72,114,0
5,63,114,0
5,65,98,74
5,69,109,0
5,72,109,0
5,65,114,50
5,62,104,0
5,70,109,0
5,65,109,59
5,69,120,0
5,72,120,0
5,67,114,255
5,72,114,0
5,63,114,0
5,65,98,74
5,69,109,0
5,72,109,0
5,60,104,50
5,63,120,0
5,67,114,0
5,57,120,90
5,65,120,0
5,60,104,0
5,58,114,73
5,65,104,0
5,62,120,0
5,65,114,23
5,60,109,0
5,57,114,0
5,62,109,72
5,58,120,0
5,55,120,0
5,60,109,189
5,63,109,0
5,67,114,0
5,58,120,18
5,65,124,0
5,62,109,0
5,60,104,111
5,63,114,0
5,67,120,0
5,70,109,0
5,63,124,60
5,70,104,0
5,67,114,0
5,60,98,0
5,65,104,706
5,70,98,0
5,62,104,0
5,65,120,0
5,62,109,0
5,58,114,0
5,65,120,6
5,62,114,0
5,58,114,0
5,65,120,296
5,62,109,0
5,58,114,0
5,60,104,73
5,65,95,0
5,57,109,0
5,65,124,33
5,57,98,0
5,60,98,0
5,67,120,26
5,63,114,0
5,60,91,0
5,67,114,31
5,63,120,0
5,60,109,0
5,67,114,302
5,60,109,0
5,63,120,0
5,60,109,40
5,65,120,0
5,57,114,0
5,57,120,41
5,65,120,0
5,60,104,0
5,65,120,0
5,62,109,0
5,58,114,0
5,65,120,6
5,62,114,0
5,58,114,0
5,65,120,296
5,62,109,0
5,58,114,0
5,60,104,73
5,65,95,0
5,57,109,0
5,65,124,33
5,57,98,0
5,60,98,0
5,67,120,26
5,63,114,0
5,60,91,0
5,67,114,31
5,63,120,0
5,60,109,0
5,67,114,302
5,60,109,0
5,63,120,0
5,65,91,0
5,62,85,0
5,70,85,0
5,58,114,0
5,62,109,0
5,65,120,0
5,58,114,6
5,62,114,0
5,65,120,0
5,58,114,296
5,62,109,0
5,65,120,0
5,60,104,73
5,65,95,0
5,57,109,0
5,65,124,33
5,57,98,0
5,60,98,0
5,67,120,26
5,63,114,0
5,60,91,0
5,67,114,31
5,63,120,0
5,60,109,0
5,67,114,302
5,60,109,0
5,63,120,0
5,58,114,10297
5,62,109,48
5,65,120,48
5,57,114,0
5,65,109,0
5,60,109,0
5,62,109,0
5,67,120,0
5,70,114,0
5,67,114,0
5,63,109,0
5,70,109,0
5,58,114,18
5,62,109,48
5,65,120,48
5,57,114,0
5,65,109,0
5,60,109,0
5,62,109,0
5,67,120,0
5,70,114,0
5,67,114,0
5,63,109,0
5,70,109,0
5,65,98,18
5,62,86,7
5,70,74,0
5,66,120,490
5,63,109,0
5,59,114,0
5,66,120,0
5,63,114,0
5,59,114,0
5,66,120,294
5,63,109,0
5,59,114,0
5,61,104,74
5,66,95,0
5,58,109,0
5,66,124,32
5,58,98,0
5,61,98,0
5,68,120,26
5,64,114,0
5,61,91,0
5,68,114,32
5,64,120,0
5,61,109,0
5,68,114,301
5,61,109,0
5,64,120,0
5,61,109,38
5,66,120,0
5,58,114,0
5,58,120,42
5,66,120,0
5,61,104,0
5,66,120,96
5,63,109,0
5,59,114,0
5,66,120,0
5,63,114,0
5,59,114,0
5,66,120,294
5,63,109,0
5,59,114,0
5,61,104,74
5,66,95,0
5,58,109,0
5,66,124,32
5,58,98,0
5,61,98,0
5,68,120,26
5,64,114,0
5,61,91,0
5,68,114,32
5,64,120,0
5,61,109,0
5,68,114,301
5,61,109,0
5,64,120,0
5,66,91,38
5,63,85,0
5,71,85,0
5,66,120,1523
5,63,109,0
5,59,114,0
5,66,120,0
5,63,114,0
5,59,114,0
5,66,120,108
5,63,109,0
5,59,114,0
5,61,104,74
5,66,95,0
5,58,109,0
5,66,124,32
5,58,98,0
5,61,98,0
5,68,120,26
5,64,114,0
5,61,91,0
5,68,114,32
5,64,120,0
5,61,109,0
5,68,114,301
5,61,109,0
5,64,120,0
5,61,109,38
5,66,120,0
5,58,114,0
5,58,120,42
5,66,120,0
5,61,104,0
5,66,120,96
5,63,109,0
5,59,114,0
5,66,120,0
5,63,114,0
5,59,114,0
5,66,120,294
5,63,109,0
5,59,114,0
5,61,104,74
5,66,95,0
5,58,109,0
5,66,124,32
5,58,98,0
5,61,98,0
5,68,120,26
5,64,114,0
5,61,91,0
5,68,114,32
5,64,120,0
5,61,109,0
5,68,114,301
5,61,109,0
5,64,120,0
5,66,91,38
5,63,85,0
5,71,85,0
5,71,85,13
5,63,85,0
5,66,91,0
5,59,114,0
5,63,109,0
5,66,120,0
5,59,114,0
5,63,114,0
5,66,120,0
5,59,114,294
5,63,109,0
5,66,120,0
5,61,104,74
5,66,95,0
5,58,109,0
5,66,124,32
5,58,98,0
5,61,98,0
5,68,120,26
5,64,114,0
5,61,91,0
5,68,114,4
5,64,120,0
5,61,109,0
5,68,114,38
5,61,109,0
5,64,120,0
5,61,109,33
5,66,120,0
5,58,114,0
5,58,120,42
5,66,120,0
5,61,104,0
5,66,120,79
5,63,109,0
5,59,114,0
5,66,120,0
5,63,114,0
5,59,114,0
5,66,120,42
5,63,109,0
5,59,114,0
5,61,104,37
5,66,95,0
5,58,109,0
5,66,124,0
5,58,98,0
5,61,98,0
5,68,120,26
5,64,114,0
5,61,91,0
5,68,114,12
5,64,120,0
5,61,109,0
5,68,114,46
5,61,109,0
5,64,120,0
5,66,91,38
5,63,85,0
5,71,85,0
6,82,109,0
6,82,71,38
6,82,71,100
6,82,98,67
6,84,98,192
6,86,98,177
6,87,104,177
6,86,95,176
6,84,109,181
6,98,66,768
6,99,67,192
6,101,85,1
6,98,56,18
6,98,70,2013
6,99,85,192
6,101,88,0
6,101,98,53
6,98,66,768
6,99,67,192
6,101,85,1
6,98,56,18
6,98,70,2013
6,99,85,192
6,101,88,0
6,101,98,53
6,82,109,27366
6,82,71,38
6,82,71,100
6,82,98,67
6,84,98,192
6,86,98,177
6,87,104,177
6,86,95,176
6,84,109,181
6,74,127,558
6,75,127,192
6,77,127,1
6,72,127,22
6,81,127,161
6,82,127,20
6,81,127,192
6,79,127,38
6,82,109,25
6,82,71,38
6,82,71,40
6,82,98,67
6,84,98,192
6,86,98,177
