track,note,velocity,time
0,62,61,4380
0,65,84,214
0,65,82,62
0,63,66,138
0,62,61,10
0,65,78,212
0,58,70,22
0,65,70,0
0,62,70,0
0,82,74,0
0,74,71,0
0,77,67,0
0,82,47,112
0,74,28,0
0,77,28,0
0,65,69,38
0,82,58,88
0,77,54,0
0,74,33,0
0,82,53,120
0,74,40,0
0,77,32,0
0,74,59,4
0,77,72,0
0,82,65,0
0,77,51,2
0,82,53,0
0,74,23,0
0,82,56,96
0,77,46,0
0,74,35,0
0,77,55,34
0,74,36,0
0,82,43,0
0,82,71,116
0,74,56,0
0,77,61,0
0,82,53,62
0,77,57,0
0,74,28,0
0,82,67,88
0,77,39,0
0,74,22,0
0,82,57,48
0,74,44,0
0,77,53,0
0,82,72,126
0,74,59,0
0,77,65,0
0,82,50,126
0,77,52,0
0,74,35,0
0,82,57,124
0,74,22,0
0,77,32,0
0,82,63,140
0,74,47,0
0,77,46,0
0,82,72,138
0,77,71,0
0,74,58,0
0,77,61,118
0,82,55,0
0,74,40,0
0,82,59,138
0,74,35,0
0,77,44,0
0,82,65,132
0,74,50,0
0,77,55,0
0,82,69,128
0,74,56,0
0,77,68,0
0,82,62,118
0,77,62,0
0,74,45,0
0,82,56,120
0,77,55,0
0,74,33,0
0,65,80,80
0,82,55,50
0,74,47,0
0,77,53,0
0,65,92,88
0,82,71,14
0,74,65,0
0,77,70,0
0,82,61,48
0,77,57,0
0,74,40,0
0,65,95,36
0,82,60,122
0,77,59,0
0,74,41,0
0,77,54,42
0,74,41,0
0,82,58,0
0,70,103,12
0,77,72,76
0,74,64,0
0,82,69,0
0,77,58,122
0,74,41,0
0,82,55,0
0,74,41,2
0,77,57,0
0,82,55,0
0,74,43,10
0,77,59,0
0,82,56,0
0,69,81,2
0,67,70,8
0,74,63,18
0,79,61,0
0,82,76,0
0,67,85,40
0,79,47,32
0,74,47,0
0,82,65,0
0,82,63,118
0,79,56,0
0,74,48,0
0,82,73,120
0,79,58,0
0,74,58,0
0,82,77,46
0,74,65,0
0,79,66,0
0,74,40,20
0,82,66,0
0,79,51,0
0,82,61,54
0,79,52,0
0,74,45,0
0,74,44,130
0,82,57,0
0,79,45,0
0,74,60,18
0,79,64,0
0,82,71,0
0,74,34,114
0,82,45,0
0,79,35,0
0,82,60,0
0,79,50,0
0,74,44,0
0,82,61,4
0,79,40,0
0,74,36,0
0,82,72,110
0,79,63,0
0,74,59,0
0,82,56,110
0,79,57,0
0,74,42,0
0,82,60,114
0,74,48,0
0,79,55,0
0,79,53,116
0,82,51,0
0,74,39,0
0,79,58,120
0,82,62,0
0,74,55,0
0,82,55,110
0,79,55,0
0,74,37,0
0,79,55,122
0,74,51,0
0,82,53,0
0,79,53,110
0,74,49,0
0,82,45,0
0,79,62,110
0,82,66,0
0,74,56,0
0,82,55,108
0,79,50,0
0,74,32,0
0,82,57,134
0,79,47,0
0,74,42,0
0,67,81,108
0,79,54,16
0,82,65,0
0,74,44,0
0,82,70,46
0,79,63,0
0,74,61,0
0,67,89,10
0,79,51,104
0,82,45,0
0,74,33,0
0,67,88,12
0,79,50,106
0,82,57,0
0,74,44,0
0,79,53,128
0,82,58,0
0,74,44,0
0,69,83,56
0,79,61,110
0,74,58,0
0,82,71,0
0,82,55,110
0,79,51,0
0,74,39,0
0,79,53,0
0,82,53,0
0,74,40,0
0,70,93,8
0,79,58,20
0,74,45,0
0,82,40,0
0,65,70,112
0,77,71,0
0,74,54,0
0,82,56,0
0,77,60,118
0,74,45,0
0,82,56,0
0,65,88,54
0,82,60,52
0,77,57,0
0,74,49,0
0,74,55,128
0,77,64,0
0,82,62,0
0,74,60,122
0,82,67,0
0,77,69,0
0,62,82,14
0,77,55,118
0,82,58,0
0,74,32,0
0,65,85,40
0,82,63,130
0,74,49,0
0,77,59,0
0,82,66,124
0,74,52,0
0,77,66,0
0,82,67,122
0,77,67,0
0,74,54,0
0,82,56,118
0,77,61,0
0,74,44,0
0,77,60,126
0,82,52,0
0,74,43,0
0,74,46,132
0,77,55,0
0,82,49,0
0,74,59,8
0,82,66,0
0,77,68,0
0,82,55,116
0,74,40,0
0,77,62,0
0,82,53,126
0,74,48,0
0,77,56,0
0,82,55,120
0,74,52,0
0,77,63,0
0,82,60,122
0,74,54,0
0,77,62,0
0,74,40,116
0,82,60,0
0,77,55,0
0,74,57,120
0,82,63,0
0,77,57,0
0,74,43,110
0,82,61,0
0,77,52,0
0,82,62,118
0,74,56,0
0,77,65,0
0,82,60,114
0,74,36,0
0,77,51,0
0,82,61,118
0,74,47,0
0,77,61,0
0,62,89,100
0,82,61,16
0,74,40,0
0,77,52,0
0,82,60,118
0,74,55,0
0,77,61,0
0,65,98,24
0,82,58,112
0,74,38,0
0,77,53,0
0,82,53,60
0,74,49,0
0,77,63,0
0,65,83,2
0,82,59,112
0,74,41,0
0,77,55,0
0,82,51,30
0,74,52,0
0,77,57,0
0,82,66,2
0,74,55,0
0,77,62,0
0,63,91,6
0,82,61,114
0,74,32,0
0,77,53,0
0,62,85,86
0,82,59,18
0,74,31,0
0,77,57,0
0,60,70,26
0,57,70,0
0,84,64,0
0,77,60,0
0,81,53,0
0,60,82,48
0,81,61,52
0,77,38,0
0,84,61,0
0,77,48,110
0,81,53,0
0,84,55,0
0,81,60,120
0,84,62,0
0,77,43,0
0,84,60,114
0,81,57,0
0,77,42,0
0,84,64,114
0,81,58,0
0,77,43,0
0,84,55,112
0,77,35,0
0,81,49,0
0,84,58,114
0,81,47,0
0,77,32,0
0,84,57,118
0,81,60,0
0,77,50,0
0,81,48,60
0,77,36,0
0,84,55,0
0,81,53,120
0,84,43,0
0,77,29,0
0,84,50,118
0,81,55,0
0,77,36,0
0,81,65,116
0,84,66,0
0,77,52,0
0,77,40,114
0,81,60,0
0,84,47,0
0,77,34,122
0,84,66,0
0,81,55,0
0,77,39,112
0,84,58,0
0,81,53,0
0,77,45,116
0,81,61,0
0,84,70,0
0,77,34,110
0,81,58,0
0,84,58,0
0,81,52,112
0,77,33,0
0,84,57,0
0,84,63,114
0,81,49,0
0,77,43,0
0,81,55,110
0,77,46,0
0,84,66,0
0,81,50,112
0,84,58,0
0,77,37,0
0,81,52,118
0,77,35,0
0,84,60,0
0,62,87,82
0,77,31,40
0,84,55,0
0,81,52,0
0,84,60,124
0,81,58,0
0,77,44,0
0,65,95,26
0,77,36,94
0,84,55,0
0,81,54,0
0,65,87,68
0,81,56,42
0,77,41,0
0,84,56,0
0,81,61,110
0,84,53,0
0,77,32,0
0,84,60,118
0,77,41,0
0,81,57,0
0,81,58,106
0,84,59,0
0,77,43,0
0,62,85,6
0,77,45,110
0,84,53,0
0,81,61,0
0,67,90,50
0,81,66,20
0,77,55,0
0,84,60,0
0,58,70,0
0,65,70,0
0,62,70,0
0,82,74,0
0,74,71,0
0,77,67,0
0,58,101,0
0,46,70,0
0,67,90,16
0,82,47,96
0,74,28,0
0,77,28,0
0,65,87,126
0,82,58,0
0,77,54,0
0,74,33,0
0,60,80,0
0,82,53,96
0,74,40,0
0,77,32,0
0,74,59,130
0,77,72,0
0,82,65,0
0,65,91,0
0,77,51,26
0,82,53,0
0,74,23,0
0,82,56,12
0,77,46,0
0,74,35,0
0,62,87,0
0,77,55,96
0,74,36,0
0,82,43,0
0,82,71,14
0,74,56,0
0,77,61,0
0,82,53,108
0,77,57,0
0,74,28,0
0,82,67,58
0,77,39,0
0,74,22,0
0,82,57,118
0,74,44,0
0,77,53,0
0,82,72,126
0,74,59,0
0,77,65,0
0,82,50,126
0,77,52,0
0,74,35,0
0,82,57,124
0,74,22,0
0,77,32,0
0,82,63,140
0,74,47,0
0,77,46,0
0,82,72,52
0,77,71,0
0,74,58,0
0,58,103,0
0,46,70,0
0,77,61,118
0,82,55,0
0,74,40,0
0,82,59,138
0,74,35,0
0,77,44,0
0,60,90,0
0,82,65,132
0,74,50,0
0,77,55,0
0,82,69,128
0,74,56,0
0,77,68,0
0,65,91,0
0,82,62,118
0,77,62,0
0,74,45,0
0,82,56,120
0,77,55,0
0,74,33,0
0,62,88,0
0,62,75,130
0,82,55,0
0,74,47,0
0,77,53,0
0,65,96,0
0,82,71,0
0,74,65,0
0,77,70,0
0,82,61,124
0,77,57,0
0,74,40,0
0,65,84,96
0,82,60,0
0,77,59,0
0,74,41,0
0,77,54,120
0,74,41,0
0,82,58,0
0,70,104,136
0,77,72,0
0,74,64,0
0,82,69,0
0,77,58,104
0,74,41,0
0,82,55,0
0,74,41,2
0,77,57,0
0,82,55,0
0,74,43,12
0,77,59,0
0,82,56,0
0,67,70,0
0,69,89,0
0,74,63,4
0,79,61,0
0,82,76,0
0,70,102,0
0,43,70,0
0,67,79,114
0,79,47,0
0,74,47,0
0,82,65,0
0,82,63,118
0,79,56,0
0,74,48,0
0,69,84,0
0,82,73,120
0,79,58,0
0,74,58,0
0,82,77,2
0,74,65,0
0,79,66,0
0,62,87,0
0,74,40,36
0,82,66,0
0,79,51,0
0,82,61,94
0,79,52,0
0,74,45,0
0,67,88,0
0,74,44,130
0,82,57,0
0,79,45,0
0,74,60,20
0,79,64,0
0,82,71,0
0,74,34,30
0,82,45,0
0,79,35,0
0,82,60,88
0,79,50,0
0,74,44,0
0,82,61,124
0,79,40,0
0,74,36,0
0,82,72,134
0,79,63,0
0,74,59,0
0,82,56,110
0,79,57,0
0,74,42,0
0,82,60,10
0,74,48,0
0,79,55,0
0,79,53,116
0,82,51,0
0,74,39,0
0,79,58,120
0,82,62,0
0,74,55,0
0,70,102,0
0,43,70,0
0,82,55,110
0,79,55,0
0,74,37,0
0,79,55,122
0,74,51,0
0,82,53,0
0,69,81,0
0,79,53,110
0,74,49,0
0,82,45,0
0,79,62,110
0,82,66,0
0,74,56,0
0,62,89,0
0,82,55,108
0,79,50,0
0,74,32,0
0,82,57,134
0,79,47,0
0,74,42,0
0,67,87,0
0,67,58,124
0,79,54,0
0,82,65,0
0,74,44,0
0,67,92,52
0,82,70,0
0,79,63,0
0,74,61,0
0,79,51,104
0,82,45,0
0,74,33,0
0,67,97,102
0,79,50,0
0,82,57,0
0,74,44,0
0,79,53,128
0,82,58,0
0,74,44,0
0,79,61,110
0,74,58,0
0,82,71,0
0,82,55,24
0,79,51,0
0,74,39,0
0,69,93,24
0,79,53,2
0,82,53,0
0,74,40,0
0,70,104,0
0,79,58,96
0,74,45,0
0,82,40,0
0,39,70,16
0,58,70,0
0,63,70,0
0,67,70,0
0,79,81,0
0,75,75,0
0,82,74,0
0,67,95,0
0,70,105,16
0,79,57,96
0,82,53,0
0,75,38,0
0,67,89,110
0,75,53,0
0,82,60,0
0,79,55,0
0,65,86,0
0,82,63,124
0,79,62,0
0,75,44,0
0,75,69,120
0,82,71,0
0,79,70,0
0,58,93,0
0,82,53,104
0,75,47,0
0,79,61,0
0,79,61,120
0,82,64,0
0,75,50,0
0,63,99,0
0,75,58,112
0,79,63,0
0,82,57,0
0,79,66,128
0,75,58,0
0,82,64,0
0,79,63,94
0,82,63,0
0,75,51,0
0,67,82,112
0,79,60,0
0,82,53,0
0,75,47,0
0,79,58,112
0,75,51,0
0,82,51,0
0,69,94,58
0,79,65,0
0,82,60,0
0,75,51,0
0,79,58,112
0,75,51,0
0,82,60,0
0,70,104,24
0,75,38,0
0,82,51,0
0,79,59,0
0,75,48,112
0,79,55,0
0,82,48,0
0,65,70,32
0,62,70,0
0,70,96,0
0,82,80,0
0,77,79,0
0,74,78,0
0,65,97,0
0,38,70,0
0,77,60,102
0,74,51,0
0,82,57,0
0,65,80,116
0,77,65,0
0,82,63,0
0,74,54,0
0,60,88,0
0,82,56,116
0,77,67,0
0,74,49,0
0,82,71,118
0,74,61,0
0,77,72,0
0,58,87,0
0,82,58,106
0,74,43,0
0,77,61,0
0,82,58,62
0,74,53,0
0,77,64,0
0,62,96,0
0,82,63,62
0,74,54,0
0,77,63,0
0,82,63,114
0,74,61,0
0,77,68,0
0,82,61,62
0,74,48,0
0,77,55,0
0,82,62,118
0,74,55,0
0,77,60,0
0,74,55,20
0,82,66,0
0,77,58,0
0,70,106,114
0,74,59,0
0,77,68,0
0,82,66,0
0,82,67,114
0,74,56,0
0,77,70,0
0,82,66,118
0,77,64,0
0,74,48,0
0,72,98,0
0,74,32,96
0,77,63,0
0,82,65,0
0,57,70,28
0,60,70,0
0,81,73,0
0,77,85,0
0,84,78,0
0,69,101,0
0,41,70,0
0,72,98,18
0,84,73,96
0,77,52,0
0,81,63,0
0,81,69,122
0,84,63,0
0,77,51,0
0,67,86,0
0,77,51,116
0,84,59,0
0,81,66,0
0,84,67,112
0,77,51,0
0,81,65,0
0,60,94,0
0,81,50,104
0,84,67,0
0,77,36,0
0,81,64,116
0,84,66,0
0,77,54,0
0,65,96,0
0,77,36,110
0,84,63,0
0,81,53,0
0,81,61,8
0,84,63,0
0,77,44,0
0,81,51,116
0,84,56,0
0,77,23,0
0,77,44,6
0,84,67,0
0,81,64,0
0,81,58,20
0,77,42,0
0,84,68,0
0,84,62,44
0,81,63,0
0,77,48,0
0,84,67,104
0,81,58,0
0,77,37,0
0,81,55,54
0,77,37,0
0,84,57,0
0,77,46,126
0,84,59,0
0,81,61,0
0,81,72,124
0,84,71,0
0,77,60,0
0,69,100,0
0,41,70,0
0,84,63,112
0,81,55,0
0,77,40,0
0,81,69,128
0,77,50,0
0,84,63,0
0,67,88,0
0,84,65,116
0,81,57,0
0,77,48,0
0,84,72,116
0,77,63,0
0,81,71,0
0,60,99,0
0,84,71,112
0,77,42,0
0,81,58,0
0,65,103,114
0,81,61,0
0,84,67,0
0,77,48,0
0,65,97,0
0,84,63,112
0,77,44,0
0,81,65,0
0,70,109,0
0,84,69,0
0,81,68,0
0,77,61,0
0,84,72,102
0,77,40,0
0,81,61,0
0,70,104,68
0,84,67,0
0,81,66,0
0,77,52,0
0,77,49,6
0,81,61,0
0,84,65,0
0,72,107,0
0,77,59,0
0,84,73,0
0,81,67,0
0,81,66,114
0,77,56,0
0,84,73,0
0,77,57,78
0,84,72,0
0,81,63,0
0,77,63,112
0,81,72,0
0,84,72,0
0,34,113,0
0,70,70,0
0,65,70,0
0,62,70,0
0,75,112,0
0,82,79,0
0,74,80,0
0,77,82,0
0,58,94,0
0,46,70,0
0,46,111,0
0,34,106,0
0,36,81,0
0,34,113,106
0,74,58,0
0,82,70,0
0,77,66,0
0,36,76,0
0,77,67,54
0,74,48,0
0,82,69,0
0,60,87,0
0,74,107,24
0,77,70,96
0,82,64,0
0,74,48,0
0,74,71,132
0,77,79,0
0,82,76,0
0,65,91,0
0,37,104,0
0,77,63,116
0,82,57,0
0,74,38,0
0,82,62,140
0,77,60,0
0,74,47,0
0,62,92,0
0,77,68,134
0,74,55,0
0,82,64,0
0,34,119,70
0,74,70,0
0,82,72,0
0,77,74,0
0,36,81,0
0,82,57,0
0,77,53,0
0,74,31,0
0,82,63,118
0,77,62,0
0,74,47,0
0,77,67,142
0,82,67,0
0,74,36,0
0,74,72,12
0,77,79,0
0,82,75,0
0,37,104,0
0,82,53,118
0,77,56,0
0,74,34,0
0,82,68,126
0,77,68,0
0,74,43,0
0,36,78,0
0,77,67,126
0,82,65,0
0,74,45,0
0,34,112,138
0,82,73,0
0,74,70,0
0,77,76,0
0,58,103,0
0,36,81,0
0,34,106,106
0,82,60,0
0,77,62,0
0,74,31,0
0,36,68,0
0,82,69,50
0,77,64,0
0,74,47,0
0,60,96,0
0,77,69,124
0,82,64,0
0,74,48,0
0,74,68,122
0,77,79,0
0,82,73,0
0,65,93,0
0,37,104,0
0,82,60,114
0,77,61,0
0,74,41,0
0,65,110,120
0,82,67,0
0,77,68,0
0,74,48,0
0,62,94,0
0,74,54,118
0,77,66,0
0,82,63,0
0,34,113,0
0,70,113,0
0,82,76,0
0,74,67,0
0,77,73,0
0,36,82,0
0,82,63,116
0,77,60,0
0,74,37,0
0,72,105,0
0,82,68,0
0,74,50,0
