track,note,velocity,time
0,35,96,40
0,42,60,0
0,45,82,0
0,45,100,0
0,61,80,0
0,64,106,0
0,64,106,0
0,85,92,0
0,35,0,4
0,42,0,0
0,61,0,39
0,64,0,4
0,64,0,4
0,85,0,20
0,40,66,25
0,42,59,0
0,57,78,0
0,61,66,0
0,61,78,0
0,64,98,0
0,64,116,0
0,69,58,0
0,85,74,0
0,64,82,1
0,64,82,1
0,40,0,2
0,42,0,0
0,61,94,0
0,69,0,11
0,45,0,10
0,64,0,0
0,61,0,2
0,61,0,4
0,64,0,7
0,45,0,6
0,57,0,3
0,35,120,49
0,40,78,0
0,42,61,0
0,52,92,0
0,35,0,4
0,42,0,0
0,64,0,19
0,85,0,18
0,64,0,2
0,61,0,10
0,40,50,43
0,42,63,0
0,57,92,0
0,61,84,0
0,61,96,0
0,64,94,0
0,64,106,0
0,69,90,0
0,85,78,0
0,64,96,1
0,64,86,1
0,40,0,2
0,42,0,0
0,61,90,0
0,40,0,18
0,69,0,1
0,61,0,2
0,64,0,0
0,52,0,12
0,61,0,0
0,64,0,9
0,64,0,1
0,40,65,1
0,57,0,1
0,40,0,3
0,61,0,27
0,64,0,8
0,35,109,9
0,42,44,0
0,45,68,0
0,45,96,0
0,62,94,0
0,66,98,0
0,66,102,0
0,86,78,0
0,35,0,4
0,42,0,0
0,85,0,11
0,40,74,81
0,42,65,0
0,57,86,0
0,61,82,0
0,69,72,0
0,64,82,1
0,64,86,1
0,40,0,2
0,42,0,0
0,61,82,0
0,69,0,17
0,61,0,4
0,45,0,2
0,64,0,0
0,61,0,4
0,64,0,11
0,66,0,1
0,57,0,6
0,66,0,2
0,62,0,8
0,45,0,15
0,86,0,7
0,35,111,15
0,40,74,0
0,42,49,0
0,52,92,0
0,61,76,0
0,64,106,0
0,64,110,0
0,85,66,0
0,35,0,4
0,42,0,0
0,40,88,92
0,42,62,0
0,57,96,0
0,61,86,0
0,69,56,0
0,64,92,1
0,64,86,1
0,40,0,2
0,42,0,0
0,61,82,0
0,69,0,13
0,61,0,8
0,64,0,2
0,61,0,2
0,64,0,3
0,64,0,3
0,52,0,2
0,57,0,8
0,40,73,3
0,40,0,4
0,64,0,9
0,40,0,7
0,61,0,3
0,85,0,12
0,35,102,13
0,42,57,0
0,45,78,0
0,45,96,0
0,64,102,0
0,69,84,0
0,69,102,0
0,73,76,0
0,73,80,0
0,76,92,0
0,35,0,4
0,42,0,0
0,40,70,92
0,42,63,0
0,57,82,0
0,61,86,0
0,69,72,0
0,64,66,1
0,64,90,1
0,40,0,2
0,42,0,0
0,61,86,0
0,64,0,15
0,69,0,0
0,73,0,0
0,61,0,4
0,69,0,0
0,64,0,3
0,45,0,3
0,64,0,0
0,61,0,4
0,57,0,8
0,69,0,4
0,73,0,2
0,45,0,1
0,35,116,48
0,40,78,0
0,42,66,0
0,52,92,0
0,64,98,0
0,69,84,0
0,69,102,0
0,73,80,0
0,73,94,0
0,35,0,4
0,42,0,0
0,40,53,92
0,42,60,0
0,57,70,0
0,61,78,0
0,69,82,0
0,64,74,1
0,64,86,1
0,40,0,2
0,42,0,0
0,61,86,0
0,64,0,19
0,69,0,0
0,61,0,2
0,69,0,0
0,73,0,0
0,64,0,4
0,64,0,1
0,61,0,1
0,52,0,2
0,57,0,0
0,40,0,7
0,69,0,7
0,73,0,0
0,40,69,1
0,40,0,4
0,35,104,44
0,42,41,0
0,45,68,0
0,45,96,0
0,64,98,0
0,69,76,0
0,69,98,0
0,73,76,0
0,73,98,0
0,35,0,4
0,42,0,0
0,40,78,92
0,42,62,0
0,57,82,0
0,61,92,0
0,69,68,0
0,64,92,1
0,64,86,1
0,40,0,2
0,42,0,0
0,61,76,0
0,45,0,19
0,61,0,0
0,69,0,0
0,64,0,6
0,61,0,4
0,57,0,4
0,64,0,1
0,45,0,32
0,35,106,26
0,40,74,0
0,42,53,0
0,52,96,0
0,35,0,4
0,42,0,0
0,73,0,69
0,64,0,2
0,69,0,2
0,40,85,19
0,42,66,0
0,57,68,0
0,61,92,0
0,69,68,0
0,64,82,1
0,64,82,1
0,40,0,2
0,42,0,0
0,61,86,0
0,69,0,19
0,61,0,2
0,64,0,2
0,61,0,8
0,64,0,3
0,52,0,1
0,57,0,2
0,40,77,7
0,40,0,4
0,69,0,9
0,73,0,0
0,40,0,5
0,76,0,25
0,35,98,5
0,42,62,0
0,45,65,0
0,45,92,0
0,61,76,0
0,64,76,0
0,69,84,0
0,69,98,0
0,73,98,0
0,76,98,0
0,76,74,0
0,35,0,4
0,42,0,0
0,61,0,17
0,76,0,8
0,69,0,2
0,73,0,2
0,64,0,4
0,69,0,2
0,40,66,57
0,42,59,0
0,57,70,0
0,61,94,0
0,61,86,0
0,64,84,0
0,69,90,0
0,69,98,0
0,69,86,0
0,73,102,0
0,76,106,0
0,64,78,1
0,64,90,1
0,40,0,2
0,42,0,0
0,61,86,0
0,45,0,19
0,69,0,0
0,61,0,4
0,64,0,2
0,61,0,10
0,64,0,1
0,57,0,7
0,45,0,31
0,35,121,18
0,40,74,0
0,42,62,0
0,52,96,0
0,35,0,4
0,42,0,0
0,69,0,25
0,73,0,0
0,76,0,0
0,61,0,4
0,64,0,8
0,69,0,0
0,40,51,55
0,42,64,0
0,57,70,0
0,61,90,0
0,61,96,0
0,64,80,0
0,69,90,0
0,69,102,0
0,69,72,0
0,73,102,0
0,76,98,0
0,64,86,1
0,64,86,1
0,40,0,2
0,42,0,0
0,61,86,0
0,69,0,15
0,61,0,4
0,64,0,4
0,52,0,8
0,61,0,0
0,64,0,3
0,76,0,3
0,57,0,4
0,40,65,3
0,73,0,1
0,40,0,3
0,69,0,5
0,64,0,2
0,40,0,5
0,69,0,17
0,35,100,15
0,42,45,0
0,45,82,0
0,45,100,0
0,62,94,0
0,66,90,0
0,69,84,0
0,69,98,0
0,74,122,0
0,78,102,0
0,61,0,3
0,35,0,1
0,42,0,0
0,40,76,92
0,42,66,0
0,57,68,0
0,61,92,0
0,69,86,0
0,64,82,1
0,64,86,1
0,40,0,2
0,42,0,0
0,61,86,0
0,69,0,19
0,45,0,2
0,61,0,0
0,74,0,0
0,64,0,2
0,66,0,2
0,78,0,0
0,69,0,10
0,45,0,15
0,64,0,0
0,61,0,1
0,57,0,4
0,69,0,4
0,62,0,14
0,35,112,19
0,40,82,0
0,42,50,0
0,52,114,0
0,61,98,0
0,64,94,0
0,69,72,0
0,69,102,0
0,73,110,0
0,76,106,0
0,35,0,4
0,42,0,0
0,40,89,92
0,42,62,0
0,57,82,0
0,61,96,0
0,69,72,0
0,64,96,1
0,64,86,1
0,40,0,2
0,42,0,0
0,61,90,0
0,73,0,1
0,76,0,0
0,69,0,4
0,69,0,10
0,52,0,6
0,61,0,0
0,64,0,0
0,61,0,18
0,61,0,0
0,64,0,0
0,40,74,5
0,69,0,1
0,64,0,1
0,40,0,2
0,57,0,5
0,40,0,7
0,76,0,27
0,35,103,5
0,42,58,0
0,45,89,0
0,45,104,0
0,64,102,0
0,69,102,0
0,73,98,0
0,76,78,0
0,35,0,4
0,42,0,0
0,40,64,92
0,42,64,0
0,57,82,0
0,61,86,0
0,69,90,0
0,64,96,1
0,64,86,1
0,40,0,2
0,42,0,0
0,61,90,0
0,61,0,21
0,64,0,2
0,69,0,0
0,45,0,18
0,64,0,25
0,57,0,3
0,61,0,2
0,45,0,1
0,35,118,20
0,40,82,0
0,42,58,0
0,52,104,0
0,35,0,4
0,42,0,0
0,64,0,91
0,73,0,0
0,40,54,1
0,42,61,0
0,57,86,0
0,61,104,0
0,69,90,0
0,64,96,1
0,64,86,1
0,69,0,1
0,40,0,1
0,42,0,0
0,61,90,0
0,64,0,17
0,61,0,2
0,69,0,0
0,40,70,25
0,40,0,4
0,52,0,1
0,57,0,4
0,40,0,5
0,64,0,0
0,61,0,9
0,76,0,20
0,35,105,5
0,37,95,0
0,42,42,0
0,49,120,0
0,61,90,0
0,73,92,0
0,35,0,4
0,42,0,0
0,40,79,92
0,42,62,0
0,61,100,0
0,64,96,0
0,68,92,1
0,40,0,3
0,42,0,0
0,73,0,57
0,49,0,4
0,61,0,4
0,64,0,16
0,37,0,1
0,68,0,4
0,61,0,5
0,35,108,1
0,36,82,0
0,42,55,0
0,48,92,0
0,60,98,0
0,72,74,0
0,35,0,4
0,42,0,0
0,40,86,92
0,42,59,0
0,60,92,0
0,63,96,0
0,67,96,1
0,40,0,3
0,42,0,0
0,48,0,31
0,40,78,13
0,40,0,4
0,60,0,1
0,72,0,20
0,36,0,5
0,67,0,16
0,63,0,1
0,35,82,1
0,35,100,0
0,42,54,0
0,47,96,0
0,59,98,0
0,62,66,0
0,62,94,0
0,71,76,0
0,71,122,0
0,71,110,0
0,35,0,4
0,42,0,0
0,60,0,1
0,62,0,16
0,62,0,6
0,71,0,2
0,71,0,0
0,71,0,6
0,59,0,28
0,40,68,33
0,42,61,0
0,59,66,0
0,62,76,0
0,62,98,0
0,62,86,0
0,66,60,0
0,71,80,0
0,71,116,0
0,71,100,0
0,66,70,1
0,62,68,1
0,40,0,2
0,42,0,0
0,66,0,21
0,47,0,2
0,62,0,2
0,59,0,2
0,66,0,3
0,62,0,3
0,35,0,43
0,35,123,16
0,42,78,0
0,42,63,0
0,54,92,0
0,35,0,4
0,42,0,0
0,71,0,3
0,62,0,12
0,62,0,22
0,71,0,0
0,71,0,2
0,40,52,53
0,42,66,0
0,59,78,0
0,62,72,0
0,62,98,0
0,62,92,0
0,66,86,0
0,71,84,0
0,71,110,0
0,71,92,0
0,66,78,1
0,62,68,1
0,40,0,2
0,42,0,0
0,62,0,27
0,62,0,0
0,59,0,2
0,66,0,5
0,66,0,1
0,62,0,4
0,42,0,1
0,54,0,3
0,40,66,1
0,40,0,4
0,71,0,1
0,71,0,10
0,71,0,10
0,62,0,2
0,35,82,21
0,35,102,0
0,42,47,0
0,47,82,0
0,64,76,0
0,64,98,0
0,73,76,0
0,73,116,0
0,73,88,0
0,35,0,4
0,42,0,0
0,40,76,92
0,42,59,0
0,59,66,0
0,62,86,0
0,66,52,0
0,66,70,1
0,62,86,1
0,40,0,2
0,42,0,0
0,59,58,0
0,66,0,13
0,47,0,12
0,62,0,0
0,59,0,2
0,59,0,2
0,62,0,2
0,73,0,8
0,66,0,1
0,35,0,2
0,64,0,15
0,73,0,4
0,64,0,2
0,73,0,20
0,35,115,9
0,42,85,0
0,42,52,0
0,54,100,0
0,62,64,0
0,62,106,0
0,71,80,0
0,71,110,0
0,71,96,0
0,35,0,4
0,42,0,0
0,40,82,92
0,42,63,0
0,59,74,0
0,62,82,0
0,66,82,0
0,66,70,1
0,62,90,1
0,40,0,2
0,42,0,0
0,59,86,0
0,62,0,25
0,66,0,0
0,59,0,6
0,62,0,2
0,54,0,6
0,40,76,5
0,66,0,0
0,71,0,1
0,71,0,0
0,62,0,2
0,40,0,1
0,42,0,6
0,71,0,1
0,62,0,8
0,59,0,2
0,35,104,27
0,40,89,0
0,42,59,0
0,52,96,0
0,62,68,0
0,62,84,0
0,71,102,0
0,71,94,0
0,71,100,0
0,35,0,4
0,42,0,0
0,62,0,23
0,62,0,0
0,71,0,4
0,71,0,2
0,71,0,14
0,40,65,49
0,42,65,0
0,59,66,0
0,62,76,0
0,62,98,0
0,64,78,0
0,68,72,0
0,71,106,0
0,71,98,0
0,71,100,0
0,68,82,1
0,64,86,1
0,40,0,2
0,42,0,0
0,59,72,0
0,68,0,21
0,64,0,2
0,40,0,3
0,59,0,1
0,64,0,12
0,68,0,3
0,52,0,7
0,59,0,4
0,71,0,38
0,35,82,1
0,35,118,0
0,42,59,0
0,47,92,0
0,35,0,4
0,42,0,0
0,62,0,21
0,62,0,8
0,71,0,2
0,71,0,8
0,40,56,53
0,42,62,0
0,59,68,0
0,62,72,0
0,62,84,0
0,64,86,0
0,68,86,0
0,71,98,0
0,71,98,0
0,71,96,0
0,68,78,1
0,64,90,1
0,40,0,2
0,42,0,0
0,59,82,0
0,64,0,21
0,68,0,0
0,59,0,6
0,47,0,4
0,64,0,6
0,68,0,3
0,40,63,4
0,59,0,3
0,40,0,1
0,35,0,20
0,71,0,15
0,62,0,4
0,71,0,4
0,35,105,1
0,40,85,0
0,42,43,0
0,52,86,0
0,66,84,0
0,66,88,0
0,74,98,0
0,74,106,0
0,74,92,0
0,62,0,1
0,35,0,3
0,42,0,0
0,71,0,5
0,40,73,87
0,42,63,0
0,64,86,0
0,68,82,0
0,68,68,0
0,64,90,2
0,40,0,2
0,42,0,0
0,59,86,0
0,64,0,21
0,68,0,0
0,59,0,6
0,52,0,18
0,66,0,16
0,66,0,8
0,74,0,0
0,68,0,2
0,74,0,2
0,64,0,4
0,40,0,5
0,74,0,3
0,35,109,7
0,42,85,0
0,42,55,0
0,47,86,0
0,64,80,0
0,64,84,0
0,73,102,0
0,73,98,0
0,73,88,0
0,35,0,4
0,42,0,0
0,42,0,80
0,40,86,12
0,42,59,0
0,44,74,0
0,59,62,0
0,64,82,0
0,68,76,0
0,68,78,1
0,64,90,1
0,40,0,2
0,42,0,0
0,59,90,0
0,64,0,23
0,68,0,0
0,59,0,6
0,64,0,14
0,40,79,1
0,59,0,1
0,47,0,2
0,40,0,1
0,64,0,1
0,73,0,0
0,68,0,3
0,44,0,10
0,73,0,7
0,73,0,2
0,64,0,4
0,35,100,17
0,42,54,0
0,45,89,0
0,45,120,0
0,57,98,0
0,61,76,0
0,61,98,0
0,69,80,0
0,69,102,0
0,69,78,0
0,35,0,4
0,42,0,0
0,40,68,92
0,42,61,0
0,57,96,0
0,61,100,0
0,69,86,0
0,64,96,1
0,64,86,1
0,40,0,2
0,42,0,0
0,61,56,0
0,45,0,3
0,61,0,10
0,69,0,6
0,45,0,1
0,64,0,3
0,61,0,4
0,64,0,5
0,57,0,9
0,35,113,51
0,40,100,0
0,40,100,0
0,42,63,0
0,35,0,4
0,42,0,0
0,40,52,92
0,42,65,0
0,57,100,0
0,61,100,0
0,69,86,0
0,64,96,1
0,64,86,1
0,40,0,2
0,42,0,0
0,61,68,0
0,40,0,1
0,69,0,16
0,61,0,2
0,64,0,2
0,40,0,13
0,64,0,0
0,61,0,7
0,40,66,3
0,40,0,4
0,57,0,1
0,35,101,43
0,42,47,0
0,45,85,0
0,45,120,0
0,35,0,4
0,42,0,0
0,45,0,32
0,40,76,60
0,42,58,0
0,45,85,0
0,57,100,0
0,61,104,0
0,69,82,0
0,64,100,1
0,64,86,1
0,40,0,2
0,42,0,0
0,61,68,0
0,45,0,17
0,69,0,0
0,61,0,2
0,64,0,0
0,64,0,21
0,61,0,19
0,57,0,16
0,69,0,12
0,45,0,3
0,35,113,2
0,42,51,0
0,44,78,0
0,44,126,0
0,35,0,4
0,42,0,0
0,44,0,82
0,44,0,1
0,40,82,9
0,42,85,0
0,42,126,0
0,42,63,0
0,69,90,0
0,64,94,2
0,40,0,2
0,42,0,0
0,61,76,0
0,69,0,17
0,61,0,2
0,64,0,0
0,69,0,4
0,69,0,12
0,61,0,2
0,57,0,4
0,40,75,3
0,61,0,3
0,40,0,1
0,42,0,3
0,42,0,25
0,40,89,16
0,40,96,0
0,40,89,0
0,42,62,0
0,52,120,0
0,52,96,0
0,62,52,0
0,71,54,0
0,56,108,1
0,62,96,1
0,40,0,2
0,42,0,0
0,52,0,74
0,40,0,85
0,52,0,4
0,62,0,2
0,56,0,3
0,40,0,18
0,38,74,2
0,40,104,0
0,40,94,0
0,46,71,0
0,50,126,0
0,52,82,0
0,56,92,1
0,62,104,1
0,40,0,2
0,46,0,0
0,50,0,90
0,40,0,55
0,52,0,2
0,62,0,4
0,56,0,9
0,38,0,16
0,37,82,12
0,40,96,0
0,40,91,0
0,42,59,0
0,49,120,0
0,52,82,0
0,56,78,1
0,62,96,1
0,40,0,2
0,42,0,0
0,49,0,94
0,40,0,53
0,52,0,8
0,62,0,0
0,56,0,9
0,37,0,20
0,35,82,4
0,40,100,0
