track,note,velocity,time
1,67,108,1178
1,79,108,6
1,76,108,3
1,67,0,148
1,76,0,8
1,79,0,6
1,81,108,92
1,69,108,3
1,77,108,6
1,77,0,103
1,69,0,17
1,81,0,11
1,71,99,104
1,83,108,3
1,79,108,5
1,79,0,79
1,71,0,5
1,83,0,23
1,84,108,137
1,81,108,3
1,72,108,5
1,81,0,1935
1,84,0,9
1,72,0,2
1,71,108,168
1,83,108,6
1,79,108,3
1,71,0,103
1,79,0,31
1,83,0,14
1,86,108,104
1,83,108,3
1,74,108,5
1,74,0,129
1,83,0,0
1,86,0,8
1,83,108,110
1,71,108,5
1,79,108,3
1,71,0,109
1,79,0,23
1,83,0,11
1,84,108,92
1,72,104,6
1,81,108,3
1,84,0,165
1,81,0,3
1,72,0,5
1,81,108,143
1,77,108,3
1,69,108,5
1,69,0,146
1,77,0,14
1,81,0,0
1,83,108,137
1,79,108,3
1,71,108,6
1,83,0,148
1,79,0,8
1,71,0,9
1,79,108,143
1,76,108,2
1,67,108,3
1,67,0,185
1,79,0,0
1,76,0,6
1,79,108,151
1,76,108,5
1,67,108,3
1,76,0,171
1,79,0,6
1,67,0,5
1,77,108,146
1,74,108,5
1,65,108,3
1,65,0,221
1,77,0,0
1,74,0,6
1,77,108,87
1,74,108,5
1,65,108,3
1,65,0,941
1,77,0,34
1,74,0,5
1,79,108,1106
1,76,108,3
1,67,108,6
1,67,0,134
1,76,0,6
1,79,0,14
1,81,108,89
1,77,108,3
1,69,104,6
1,77,0,117
1,69,0,3
1,81,0,11
1,82,108,109
1,78,108,6
1,70,108,3
1,78,0,131
1,82,0,14
1,70,0,3
1,83,108,104
1,79,108,5
1,71,105,3
1,71,0,199
1,83,0,6
1,79,0,2
1,83,108,132
1,79,108,3
1,71,108,5
1,79,0,180
1,83,0,0
1,71,0,8
1,81,108,123
1,69,108,6
1,77,108,3
1,69,0,131
1,77,0,28
1,81,0,11
1,84,108,124
1,81,108,2
1,72,108,6
1,84,0,182
1,81,0,11
1,72,0,14
1,83,108,107
1,79,108,2
1,71,108,6
1,83,0,174
1,79,0,8
1,71,0,11
1,81,108,121
1,77,108,2
1,69,108,6
1,69,0,185
1,77,0,3
1,81,0,0
1,81,108,114
1,77,108,3
1,69,108,6
1,77,0,193
1,81,0,3
1,69,0,14
1,79,108,103
1,76,108,6
1,67,108,3
1,67,0,159
1,76,0,23
1,79,0,14
1,83,108,134
1,71,108,6
1,79,108,3
1,71,0,179
1,79,0,3
1,83,0,8
1,83,108,120
1,79,108,6
1,71,108,3
1,83,0,171
1,79,0,2
1,71,0,20
1,79,108,137
1,76,108,6
1,67,108,5
1,79,0,168
1,76,0,9
1,67,0,5
1,76,108,166
1,72,108,5
1,64,108,3
1,64,0,2159
1,72,0,0
1,76,0,14
1,67,108,1131
1,79,108,3
1,76,108,3
1,67,0,142
1,76,0,12
1,79,0,8
1,81,108,92
1,69,108,3
1,77,108,6
1,77,0,109
1,69,0,14
1,81,0,6
1,83,108,103
1,71,108,3
1,79,108,6
1,79,0,89
1,71,0,6
1,83,0,28
1,84,108,126
1,72,108,3
1,81,108,2
1,81,0,1916
1,84,0,8
1,72,0,3
1,71,108,187
1,83,108,6
1,79,108,3
1,71,0,101
1,79,0,39
1,83,0,11
1,86,108,106
1,74,108,3
1,83,108,6
1,83,0,145
1,74,0,0
1,86,0,0
1,83,108,101
1,71,108,3
1,79,108,6
1,71,0,131
1,79,0,6
1,83,0,14
1,84,108,92
1,72,101,6
1,81,108,3
1,81,0,165
1,84,0,3
1,72,0,2
1,81,108,140
1,77,108,6
1,69,108,6
1,69,0,156
1,77,0,9
1,81,0,5
1,83,108,140
1,79,108,3
1,71,108,6
1,83,0,151
1,79,0,8
1,71,0,14
1,79,108,124
1,67,108,8
1,76,105,3
1,76,0,185
1,67,0,0
1,79,0,5
1,79,108,137
1,76,108,6
1,67,108,3
1,76,0,171
1,79,0,2
1,67,0,12
1,77,108,145
1,74,108,3
1,65,108,6
1,74,0,198
1,77,0,0
1,65,0,3
1,77,108,93
1,74,108,5
1,65,101,3
1,65,0,1327
1,77,0,23
1,74,0,16
1,67,108,731
1,79,108,6
1,76,108,3
1,76,0,145
1,67,0,0
1,79,0,14
1,81,108,90
1,77,108,5
1,69,98,3
1,77,0,123
1,69,0,9
1,81,0,11
1,82,108,101
1,78,108,5
1,70,108,3
1,78,0,129
1,70,0,17
1,82,0,0
1,79,108,112
1,83,108,5
1,71,108,3
1,71,0,179
1,83,0,0
1,79,0,9
1,83,108,137
1,79,108,8
1,71,108,3
1,79,0,171
1,71,0,3
1,83,0,0
1,69,102,131
1,81,108,3
1,77,108,3
1,69,0,104
1,77,0,33
1,81,0,23
1,84,108,131
1,72,108,3
1,81,108,6
1,81,0,179
1,84,0,0
1,72,0,5
1,83,108,129
1,71,108,9
1,79,108,5
1,83,0,168
1,79,0,3
1,71,0,0
1,81,108,137
1,77,108,9
1,69,108,5
1,77,0,151
1,69,0,12
1,81,0,8
1,81,108,115
1,77,108,5
1,69,108,3
1,81,0,202
1,77,0,5
1,69,0,12
1,79,108,112
1,76,108,2
1,67,108,6
1,76,0,168
1,67,0,11
1,79,0,3
1,77,108,123
1,74,108,6
1,65,108,3
1,74,0,193
1,77,0,3
1,65,0,8
1,77,108,106
1,74,108,6
1,65,108,3
1,65,0,185
1,77,0,0
1,74,0,2
1,76,108,115
1,64,108,3
1,64,0,185
1,76,0,8
1,74,108,129
1,62,108,3
1,62,0,165
1,74,0,3
1,72,108,131
1,60,108,6
1,64,108,3
1,64,0,1935
1,60,0,8
1,72,0,20
1,72,108,683
1,84,108,3
1,81,108,2
1,81,0,152
1,84,0,8
1,72,0,3
1,84,108,101
1,81,108,2
1,72,104,6
1,72,0,109
1,81,0,3
1,84,0,0
1,81,108,104
1,72,101,2
1,84,108,6
1,72,0,106
1,81,0,3
1,84,0,11
1,81,108,112
1,84,108,6
1,72,108,3
1,81,0,106
1,84,0,11
1,72,0,3
1,83,108,95
1,71,108,3
1,79,108,6
1,71,0,84
1,79,0,25
1,83,0,20
1,82,108,123
1,86,108,3
1,74,108,5
1,82,0,165
1,74,0,3
1,86,0,0
1,84,108,143
1,72,108,6
1,81,108,2
1,72,0,168
1,81,0,3
1,84,0,3
1,84,108,151
1,72,108,3
1,81,108,6
1,81,0,162
1,72,0,6
1,84,0,8
1,84,108,120
1,81,108,6
1,72,108,3
1,81,0,145
1,84,0,12
1,72,0,2
1,81,108,140
1,69,108,6
1,77,108,3
1,77,0,137
1,81,0,17
1,69,0,3
1,77,108,154
1,72,108,5
1,65,108,6
1,72,0,143
1,65,0,2
1,77,0,6
1,72,108,162
1,69,108,6
1,60,108,6
1,62,87,14
1,62,0,16
1,60,0,205
1,69,0,5
1,72,0,31
1,84,108,398
1,72,108,5
1,81,108,3
1,81,0,160
1,72,0,3
1,84,0,2
1,84,108,93
1,81,108,5
1,72,108,6
1,72,0,171
1,81,0,3
1,84,0,5
1,84,108,160
1,72,108,3
1,81,108,5
1,81,0,168
1,84,0,6
1,72,0,3
1,83,108,142
1,71,108,3
1,79,108,6
1,71,0,131
1,79,0,20
1,83,0,14
1,86,108,129
1,83,108,3
1,74,108,5
1,83,0,160
1,74,0,8
1,86,0,6
1,84,108,134
1,79,108,3
1,72,108,6
1,79,0,151
1,72,0,3
1,84,0,8
1,84,108,193
1,79,108,6
1,72,108,3
1,79,0,159
1,72,0,6
1,84,0,3
1,79,108,112
1,84,108,2
1,72,108,6
1,84,0,104
1,79,0,14
1,72,0,19
1,79,108,146
1,76,108,5
1,67,108,6
1,76,0,143
1,79,0,8
1,67,0,3
1,76,108,137
1,64,108,3
1,72,108,6
1,72,0,145
1,76,0,6
1,64,0,8
1,60,108,168
1,72,108,3
1,67,108,3
1,60,0,199
1,67,0,19
1,72,0,20
1,79,108,927
1,67,108,5
1,76,108,3
1,67,0,146
1,76,0,5
1,79,0,14
1,81,108,90
1,69,105,5
1,77,108,3
1,69,0,109
1,77,0,3
1,81,0,20
1,82,108,112
1,78,108,3
1,70,108,5
1,78,0,123
1,82,0,14
1,70,0,3
1,83,108,126
1,79,108,3
1,71,108,6
1,71,0,176
1,79,0,8
1,83,0,9
1,83,108,162
1,79,108,3
1,71,108,6
1,79,0,156
1,83,0,9
1,71,0,3
1,81,108,131
1,77,108,3
1,69,108,6
1,69,0,109
1,77,0,36
1,81,0,20
1,84,108,120
1,81,108,6
1,72,105,3
1,81,0,182
1,72,0,5
1,84,0,3
1,83,108,120
1,79,108,3
1,71,108,6
1,79,0,168
1,71,0,3
1,83,0,5
1,81,108,129
1,77,108,6
1,69,108,2
1,77,0,168
1,69,0,9
1,81,0,3
1,81,108,112
1,77,108,2
1,69,108,6
1,77,0,174
1,81,0,2
1,69,0,9
1,79,108,120
1,76,108,6
1,67,102,3
1,67,0,148
1,76,0,11
1,79,0,20
1,83,108,140
1,71,108,5
1,79,108,3
1,79,0,171
1,71,0,6
1,83,0,0
1,83,108,128
1,79,108,3
1,71,108,6
1,79,0,162
1,83,0,6
1,71,0,14
1,79,108,145
1,67,108,6
1,76,108,3
1,76,0,145
1,79,0,14
1,67,0,9
1,76,108,193
1,64,108,3
1,72,108,5
1,72,0,2117
1,64,0,3
1,76,0,11
1,84,108,722
1,72,108,5
1,81,108,3
1,81,0,154
1,84,0,0
1,72,0,6
1,84,108,87
1,72,106,2
1,81,108,6
1,81,0,123
1,72,0,14
1,84,0,6
1,84,108,75
1,72,105,6
1,81,108,3
1,81,0,109
1,72,0,11
1,84,0,11
1,84,108,104
1,72,105,6
1,81,108,2
1,81,0,107
1,84,0,5
1,72,0,3
1,71,104,112
1,83,108,3
1,79,108,6
1,71,0,92
1,79,0,17
1,83,0,25
1,86,108,120
1,82,108,9
1,74,108,3
1,82,0,162
1,74,0,20
1,86,0,2
1,84,108,140
1,72,108,3
1,81,108,6
1,72,0,159
1,81,0,6
1,84,0,0
1,84,108,162
1,81,108,3
1,72,108,6
1,72,0,168
1,81,0,5
1,84,0,0
1,84,108,121
1,81,108,3
1,72,106,5
1,81,0,146
1,84,0,11
1,72,0,6
1,81,108,137
1,69,108,8
1,77,108,3
1,77,0,126
1,81,0,17
1,69,0,5
1,77,108,146
1,72,108,6
1,65,108,2
1,65,0,132
1,72,0,0
1,77,0,6
1,72,108,170
1,69,108,6
1,60,108,3
1,60,0,238
1,69,0,14
1,72,0,28
1,72,108,434
1,84,108,5
1,81,108,3
1,81,0,174
1,84,0,3
1,72,0,0
1,84,108,95
1,72,108,5
1,81,108,6
1,72,0,174
1,81,0,2
1,84,0,14
1,84,108,112
1,72,108,6
1,81,108,3
1,81,0,173
1,72,0,14
1,84,0,0
1,71,102,115
1,83,108,3
1,79,108,6
1,71,0,137
1,79,0,5
1,83,0,23
1,86,108,115
1,83,108,5
1,74,108,3
1,83,0,165
1,74,0,11
1,86,0,0
1,84,108,135
1,72,108,5
1,79,108,6
1,72,0,70
1,79,0,14
1,84,0,53
1,72,108,244
1,84,108,5
1,79,108,3
1,79,0,171
1,72,0,3
1,84,0,3
1,84,108,100
1,79,108,6
1,72,108,3
1,79,0,129
1,84,0,2
1,72,0,34
1,79,108,126
1,76,108,6
1,67,108,5
1,76,0,140
1,79,0,9
1,67,0,8
1,76,108,134
1,64,108,6
1,72,108,3
1,72,0,145
1,76,0,6
1,64,0,6
1,60,108,156
1,72,108,6
1,67,108,6
1,60,0,229
1,67,0,23
1,72,0,19
1,79,108,919
1,67,108,6
1,76,108,3
1,67,0,143
1,76,0,8
1,79,0,8
1,81,108,96
1,77,108,2
1,69,108,6
1,77,0,112
1,69,0,20
1,81,0,0
1,78,108,114
1,82,108,6
1,70,108,6
1,82,0,126
1,70,0,2
1,78,0,6
1,79,108,109
1,83,108,3
1,71,106,6
1,71,0,182
1,83,0,11
1,79,0,5
1,83,108,143
1,71,108,6
1,79,108,3
1,79,0,145
1,71,0,14
1,83,0,0
1,79,108,140
1,76,108,3
1,67,108,6
1,67,0,162
1,76,0,6
1,79,0,2
1,81,108,112
1,77,108,6
1,69,108,3
1,77,0,185
1,69,0,2
1,81,0,3
1,81,108,137
1,77,108,6
1,69,108,3
1,77,0,143
1,81,0,14
1,69,0,8
1,77,108,126
1,65,108,8
1,74,108,3
1,74,0,143
1,65,0,6
1,77,0,8
1,79,108,129
1,67,108,5
1,76,108,3
1,76,0,188
1,67,0,5
1,79,0,3
1,79,108,135
1,76,108,8
1,67,108,6
1,76,0,140
1,79,0,14
1,67,0,14
1,76,108,137
1,64,108,5
1,72,108,3
1,64,0,140
1,72,0,6
1,76,0,14
1,77,108,131
1,65,108,6
1,74,108,6
1,65,0,201
1,74,0,3
1,77,0,3
1,74,108,260
1,71,108,3
1,62,108,6
1,62,0,184
1,71,0,6
1,74,0,3
1,60,108,288
1,72,108,3
1,64,108,6
1,64,0,1890
1,60,0,11
1,72,0,17
1,72,108,31435
1,84,108,3
1,81,108,2
1,81,0,152
1,84,0,8
1,72,0,3
1,84,108,101
1,81,108,2
1,72,104,6
1,72,0,109
1,81,0,3
1,84,0,0
1,81,108,104
1,72,101,2
1,84,108,6
1,72,0,106
1,81,0,3
1,84,0,11
1,81,108,112
1,84,108,6
1,72,108,3
1,81,0,106
1,84,0,11
1,72,0,3
1,83,108,95
1,71,108,3
1,79,108,6
1,71,0,84
1,79,0,25
1,83,0,20
1,82,108,123
1,86,108,3
1,74,108,5
1,82,0,165
1,74,0,3
1,86,0,0
1,84,108,143
1,72,108,6
1,81,108,2
1,72,0,168
1,81,0,3
1,84,0,3
1,84,108,151
1,72,108,3
1,81,108,6
1,81,0,162
1,72,0,6
1,84,0,8
1,84,108,120
1,81,108,6
1,72,108,3
1,81,0,145
1,84,0,12
1,72,0,2
1,81,108,140
1,69,108,6
1,77,108,3
1,77,0,137
1,81,0,17
1,69,0,3
1,77,108,154
1,72,108,5
1,65,108,6
1,72,0,143
1,65,0,2
1,77,0,6
1,72,108,162
1,69,108,6
1,60,108,6
1,62,87,14
1,62,0,16
1,60,0,205
1,69,0,5
1,72,0,31
1,84,108,398
1,72,108,5
1,81,108,3
1,81,0,160
1,72,0,3
1,84,0,2
1,84,108,93
1,81,108,5
1,72,108,6
1,72,0,171
1,81,0,3
1,84,0,5
1,84,108,160
1,72,108,3
1,81,108,5
1,81,0,168
1,84,0,6
1,72,0,3
1,83,108,142
1,71,108,3
1,79,108,6
1,71,0,131
1,79,0,20
1,83,0,14
1,86,108,129
1,83,108,3
1,74,108,5
1,83,0,160
1,74,0,8
1,86,0,6
1,84,108,134
1,79,108,3
1,72,108,6
1,79,0,151
1,72,0,3
1,84,0,8
1,84,108,193
1,79,108,6
1,72,108,3
1,79,0,159
1,72,0,6
1,84,0,3
1,79,108,112
1,84,108,2
1,72,108,6
1,84,0,104
1,79,0,14
1,72,0,19
1,79,108,146
1,76,108,5
1,67,108,6
1,76,0,143
1,79,0,8
1,67,0,3
1,76,108,137
1,64,108,3
1,72,108,6
1,72,0,145
1,76,0,6
1,64,0,8
1,60,108,168
1,72,108,3
1,67,108,3
1,60,0,199
1,67,0,19
1,72,0,20
1,79,108,927
1,67,108,5
1,76,108,3
1,67,0,146
1,76,0,5
1,79,0,14
1,81,108,90
1,69,105,5
1,77,108,3
1,69,0,109
1,77,0,3
1,81,0,20
1,82,108,112
1,78,108,3
1,70,108,5
1,78,0,123
1,82,0,14
1,70,0,3
1,83,108,126
1,79,108,3
1,71,108,6
1,71,0,176
1,79,0,8
1,83,0,9
1,83,108,162
1,79,108,3
1,71,108,6
1,79,0,156
1,83,0,9
1,71,0,3
1,81,108,131
1,77,108,3
1,69,108,6
1,69,0,109
1,77,0,36
1,81,0,20
1,84,108,120
1,81,108,6
1,72,105,3
1,81,0,182
1,72,0,5
1,84,0,3
1,83,108,120
1,79,108,3
1,71,108,6
1,79,0,168
1,71,0,3
1,83,0,5
1,81,108,129
1,77,108,6
1,69,108,2
1,77,0,168
