track,note,velocity,time
1,69,75,1338
1,73,75,0
1,76,75,0
1,76,0,48
1,73,0,0
1,69,0,0
1,69,75,48
1,73,75,0
1,76,75,0
1,76,0,48
1,73,0,0
1,69,0,0
1,69,75,48
1,73,75,0
1,78,75,0
1,78,0,48
1,73,0,0
1,69,0,0
1,69,75,144
1,73,75,0
1,76,75,0
1,76,0,48
1,73,0,0
1,69,0,0
1,69,75,48
1,73,75,0
1,76,75,0
1,76,0,48
1,73,0,0
1,69,0,0
1,69,75,0
1,73,75,0
1,78,75,0
1,78,0,48
1,73,0,0
1,69,0,0
1,69,75,48
1,73,75,0
1,76,75,0
1,76,0,48
1,73,0,0
1,69,0,0
1,69,75,0
1,73,75,0
1,78,75,0
1,78,0,48
1,73,0,0
1,69,0,0
1,69,75,48
1,73,75,0
1,76,75,0
1,76,0,48
1,73,0,0
1,69,0,0
1,69,75,48
1,73,75,0
1,76,75,0
1,76,0,48
1,73,0,0
1,69,0,0
1,69,75,48
1,73,75,0
1,78,75,0
1,78,0,48
1,73,0,0
1,69,0,0
1,69,75,144
1,73,75,0
1,76,75,0
1,76,0,48
1,73,0,0
1,69,0,0
1,69,75,48
1,73,75,0
1,76,75,0
1,76,0,48
1,73,0,0
1,69,0,0
1,69,75,0
1,73,75,0
1,78,75,0
1,78,0,48
1,73,0,0
1,69,0,0
1,69,75,48
1,73,75,0
1,76,75,0
1,76,0,48
1,73,0,0
1,69,0,0
1,69,75,0
1,73,75,0
1,78,75,0
1,78,0,48
1,73,0,0
1,69,0,0
1,69,75,48
1,73,75,0
1,76,75,0
1,76,0,48
1,73,0,0
1,69,0,0
1,69,75,48
1,73,75,0
1,76,75,0
1,76,0,48
1,73,0,0
1,69,0,0
1,69,75,48
1,73,75,0
1,78,75,0
1,78,0,48
1,73,0,0
1,69,0,0
1,69,75,144
1,73,75,0
1,76,75,0
1,76,0,48
1,73,0,0
1,69,0,0
1,69,75,48
1,73,75,0
1,76,75,0
1,76,0,48
1,73,0,0
1,69,0,0
1,69,75,0
1,73,75,0
1,78,75,0
1,78,0,47
1,73,0,0
1,69,0,0
1,69,75,48
1,73,75,0
1,76,75,0
1,76,0,48
1,73,0,0
1,69,0,0
1,69,75,0
1,73,75,0
1,78,75,0
1,78,0,48
1,73,0,0
1,69,0,0
1,69,75,48
1,73,75,0
1,76,75,0
1,76,0,48
1,73,0,0
1,69,0,0
1,69,75,48
1,73,75,0
1,76,75,0
1,76,0,48
1,73,0,0
1,69,0,0
1,69,75,48
1,73,75,0
1,78,75,0
1,78,0,48
1,73,0,0
1,69,0,0
1,69,75,145
1,73,75,0
1,76,75,0
1,76,0,48
1,73,0,0
1,69,0,0
1,69,75,48
1,73,75,0
1,76,75,0
1,76,0,48
1,73,0,0
1,69,0,0
1,69,75,0
1,73,75,0
1,78,75,0
1,78,0,48
1,73,0,0
1,69,0,0
1,69,75,48
1,73,75,0
1,76,75,0
1,76,0,48
1,73,0,0
1,69,0,0
1,69,75,0
1,73,75,0
1,78,75,0
1,78,0,48
1,73,0,0
1,69,0,0
1,69,75,48
1,73,75,0
1,76,75,0
1,76,0,47
1,73,0,0
1,69,0,0
1,69,75,48
1,73,75,0
1,76,75,0
1,76,0,48
1,73,0,0
1,69,0,0
1,69,75,48
1,73,75,0
1,78,75,0
1,78,0,48
1,73,0,0
1,69,0,0
1,69,75,144
1,73,75,0
1,76,75,0
1,76,0,48
1,73,0,0
1,69,0,0
1,69,75,48
1,73,75,0
1,76,75,0
1,76,0,48
1,73,0,0
1,69,0,0
1,69,75,0
1,73,75,0
1,78,75,0
1,78,0,48
1,73,0,0
1,69,0,0
1,69,75,48
1,73,75,0
1,76,75,0
1,76,0,48
1,73,0,0
1,69,0,0
1,69,75,0
1,73,75,0
1,78,75,0
1,78,0,48
1,73,0,0
1,69,0,0
1,68,75,144
1,71,75,0
1,74,75,0
1,74,0,24
1,71,0,0
1,68,0,0
1,68,75,72
1,71,75,0
1,74,75,0
1,74,0,24
1,71,0,0
1,68,0,0
1,68,75,168
1,71,75,0
1,74,75,0
1,74,0,48
1,71,0,0
1,68,0,0
1,68,75,48
1,71,75,0
1,74,75,0
1,74,0,24
1,71,0,0
1,68,0,0
1,68,75,24
1,71,75,0
1,74,75,0
1,74,0,24
1,71,0,0
1,68,0,0
1,68,75,72
1,71,75,0
1,74,75,0
1,74,0,24
1,71,0,0
1,68,0,0
1,68,75,24
1,71,75,0
1,74,75,0
1,74,0,24
1,71,0,0
1,68,0,0
1,68,75,168
1,71,75,0
1,74,75,0
1,74,0,24
1,71,0,0
1,68,0,0
1,68,75,72
1,71,75,0
1,74,75,0
1,74,0,24
1,71,0,0
1,68,0,0
1,68,75,168
1,71,75,0
1,74,75,0
1,74,0,48
1,71,0,0
1,68,0,0
1,68,75,48
1,71,75,0
1,74,75,0
1,74,0,24
1,71,0,0
1,68,0,0
1,68,75,24
1,71,75,0
1,74,75,0
1,74,0,24
1,71,0,0
1,68,0,0
1,68,75,72
1,71,75,0
1,74,75,0
1,74,0,24
1,71,0,0
1,68,0,0
1,68,75,24
1,71,75,0
1,74,75,0
1,74,0,24
1,71,0,0
1,68,0,0
1,69,75,72
1,73,75,0
1,76,75,0
1,76,0,48
1,73,0,0
1,69,0,0
1,69,75,48
1,73,75,0
1,76,75,0
1,76,0,48
1,73,0,0
1,69,0,0
1,69,75,48
1,73,75,0
1,78,75,0
1,78,0,48
1,73,0,0
1,69,0,0
1,69,75,144
1,73,75,0
1,76,75,0
1,76,0,48
1,73,0,0
1,69,0,0
1,69,75,48
1,73,75,0
1,76,75,0
1,76,0,48
1,73,0,0
1,69,0,0
1,69,75,0
1,73,75,0
1,78,75,0
1,78,0,48
1,73,0,0
1,69,0,0
1,69,75,48
1,73,75,0
1,76,75,0
1,76,0,48
1,73,0,0
1,69,0,0
1,69,75,0
1,73,75,0
1,78,75,0
1,78,0,48
1,73,0,0
1,69,0,0
1,69,75,48
1,73,75,0
1,76,75,0
1,76,0,48
1,73,0,0
1,69,0,0
1,69,75,48
1,73,75,0
1,76,75,0
1,76,0,48
1,73,0,0
1,69,0,0
1,69,75,48
1,73,75,0
1,78,75,0
1,78,0,48
1,73,0,0
1,69,0,0
1,69,75,144
1,73,75,0
1,76,75,0
1,76,0,48
1,73,0,0
1,69,0,0
1,69,75,48
1,73,75,0
1,76,75,0
1,76,0,48
1,73,0,0
1,69,0,0
1,69,75,0
1,73,75,0
1,78,75,0
1,78,0,48
1,73,0,0
1,69,0,0
1,69,75,48
1,73,75,0
1,76,75,0
1,76,0,48
1,73,0,0
1,69,0,0
1,69,75,0
1,73,75,0
1,78,75,0
1,78,0,48
1,73,0,0
1,69,0,0
1,68,75,144
1,71,75,0
1,74,75,0
1,74,0,24
1,71,0,0
1,68,0,0
1,68,75,72
1,71,75,0
1,74,75,0
1,74,0,24
1,71,0,0
1,68,0,0
1,68,75,168
1,71,75,0
1,74,75,0
1,74,0,48
1,71,0,0
1,68,0,0
1,68,75,48
1,71,75,0
1,74,75,0
1,74,0,24
1,71,0,0
1,68,0,0
1,68,75,24
1,71,75,0
1,74,75,0
1,74,0,24
1,71,0,0
1,68,0,0
1,68,75,72
1,71,75,0
1,74,75,0
1,74,0,24
1,71,0,0
1,68,0,0
1,68,75,24
1,71,75,0
1,74,75,0
1,74,0,24
1,71,0,0
1,68,0,0
1,68,75,168
1,71,75,0
1,74,75,0
1,74,0,24
1,71,0,0
1,68,0,0
1,68,75,72
1,71,75,0
1,74,75,0
1,74,0,24
1,71,0,0
1,68,0,0
1,68,75,168
1,71,75,0
1,74,75,0
1,74,0,48
1,71,0,0
1,68,0,0
1,68,75,48
1,71,75,0
1,74,75,0
1,74,0,24
1,71,0,0
1,68,0,0
1,68,75,24
1,71,75,0
1,74,75,0
1,74,0,24
1,71,0,0
1,68,0,0
1,68,75,72
1,71,75,0
1,74,75,0
1,74,0,24
1,71,0,0
1,68,0,0
1,68,75,24
1,71,75,0
1,74,75,0
1,74,0,24
1,71,0,0
1,68,0,0
1,68,75,168
1,71,75,0
1,74,75,0
1,74,0,24
1,71,0,0
1,68,0,0
1,68,75,72
1,71,75,0
1,74,75,0
1,74,0,24
1,71,0,0
1,68,0,0
1,69,75,168
1,73,75,0
1,76,75,0
1,76,0,48
1,73,0,0
1,69,0,0
1,69,75,48
1,73,75,0
1,76,75,0
1,76,0,48
1,73,0,0
1,69,0,0
1,69,75,48
1,73,75,0
1,78,75,0
1,78,0,48
1,73,0,0
1,69,0,0
1,69,75,144
1,73,75,0
1,76,75,0
1,76,0,48
1,73,0,0
1,69,0,0
1,69,75,48
1,73,75,0
1,76,75,0
1,76,0,48
1,73,0,0
1,69,0,0
1,69,75,0
1,73,75,0
1,78,75,0
1,78,0,48
1,73,0,0
1,69,0,0
1,69,75,48
1,73,75,0
1,76,75,0
1,76,0,48
1,73,0,0
1,69,0,0
1,69,75,0
1,73,75,0
1,78,75,0
1,78,0,48
1,73,0,0
1,69,0,0
1,69,75,48
1,73,75,0
1,76,75,0
1,76,0,48
1,73,0,0
1,69,0,0
1,69,75,48
1,73,75,0
1,76,75,0
1,76,0,48
1,73,0,0
1,69,0,0
1,69,75,48
1,73,75,0
1,76,75,0
1,76,0,48
1,73,0,0
1,69,0,0
1,69,75,0
1,73,75,0
1,76,75,0
1,76,0,48
1,73,0,0
1,69,0,0
1,69,75,48
1,73,75,0
1,76,75,0
1,76,0,48
1,73,0,0
1,69,0,0
1,69,75,0
1,73,75,0
1,76,75,0
1,76,0,48
1,73,0,0
1,69,0,0
1,69,75,336
1,73,75,0
1,76,75,0
1,76,0,48
1,73,0,0
1,69,0,0
1,69,75,48
1,73,75,0
1,76,75,0
1,76,0,48
1,73,0,0
1,69,0,0
1,69,75,48
1,73,75,0
1,78,75,0
1,78,0,48
1,73,0,0
1,69,0,0
1,69,75,144
1,73,75,0
1,76,75,0
1,76,0,48
1,73,0,0
1,69,0,0
1,69,75,48
1,73,75,0
1,76,75,0
1,76,0,48
1,73,0,0
1,69,0,0
1,69,75,0
1,73,75,0
1,78,75,0
1,78,0,48
1,73,0,0
1,69,0,0
1,69,75,48
1,73,75,0
1,76,75,0
1,76,0,48
1,73,0,0
1,69,0,0
1,69,75,0
1,73,75,0
1,78,75,0
1,78,0,48
1,73,0,0
1,69,0,0
1,69,75,48
1,73,75,0
1,76,75,0
1,76,0,48
1,73,0,0
1,69,0,0
1,69,75,48
1,73,75,0
1,76,75,0
1,76,0,48
1,73,0,0
1,69,0,0
1,69,75,48
1,73,75,0
1,78,75,0
1,78,0,48
1,73,0,0
1,69,0,0
1,68,75,240
1,71,75,0
1,74,75,0
1,74,0,24
1,71,0,0
1,68,0,0
1,68,75,72
1,71,75,0
1,74,75,0
1,74,0,24
1,71,0,0
1,68,0,0
1,68,75,168
1,71,75,0
1,74,75,0
1,74,0,48
1,71,0,0
1,68,0,0
1,68,75,48
1,71,75,0
1,74,75,0
1,74,0,24
1,71,0,0
1,68,0,0
1,68,75,24
1,71,75,0
1,74,75,0
1,74,0,24
1,71,0,0
1,68,0,0
1,68,75,72
1,71,75,0
1,74,75,0
1,74,0,24
1,71,0,0
1,68,0,0
1,68,75,24
1,71,75,0
1,74,75,0
1,74,0,24
1,71,0,0
1,68,0,0
1,68,75,168
1,71,75,0
1,74,75,0
1,74,0,24
1,71,0,0
1,68,0,0
1,68,75,72
1,71,75,0
1,74,75,0
1,74,0,24
1,71,0,0
1,68,0,0
1,68,75,168
1,71,75,0
1,74,75,0
1,74,0,48
1,71,0,0
1,68,0,0
1,68,75,48
1,71,75,0
1,74,75,0
1,74,0,24
1,71,0,0
1,68,0,0
1,68,75,24
1,71,75,0
1,74,75,0
1,74,0,24
1,71,0,0
1,68,0,0
1,68,75,72
1,71,75,0
1,74,75,0
1,74,0,24
1,71,0,0
1,68,0,0
1,68,75,24
1,71,75,0
1,74,75,0
1,74,0,24
1,71,0,0
1,68,0,0
1,68,75,168
1,71,75,0
1,74,75,0
1,74,0,24
1,71,0,0
1,68,0,0
1,68,75,72
1,71,75,0
1,74,75,0
1,74,0,24
1,71,0,0
1,68,0,0
1,69,75,168
1,73,75,0
1,76,75,0
1,76,0,48
1,73,0,0
1,69,0,0
1,69,75,48
1,73,75,0
1,76,75,0
1,76,0,48
1,73,0,0
1,69,0,0
1,69,75,48
1,73,75,0
1,78,75,0
1,78,0,48
1,73,0,0
1,69,0,0
1,69,75,144
1,73,75,0
1,76,75,0
1,76,0,48
1,73,0,0
1,69,0,0
1,69,75,48
1,73,75,0
1,76,75,0
1,76,0,48
1,73,0,0
1,69,0,0
1,69,75,0
1,73,75,0
1,78,75,0
1,78,0,48
1,73,0,0
1,69,0,0
1,69,75,48
1,73,75,0
1,76,75,0
1,76,0,48
1,73,0,0
1,69,0,0
1,69,75,0
1,73,75,0
1,78,75,0
1,78,0,48
1,73,0,0
1,69,0,0
1,69,75,48
1,73,75,0
1,76,75,0
1,76,0,48
1,73,0,0
1,69,0,0
1,69,75,48
1,73,75,0
1,76,75,0
1,76,0,48
1,73,0,0
1,69,0,0
1,69,75,49
1,73,75,0
1,78,75,0
1,78,0,48
1,73,0,0
1,69,0,0
1,69,75,144
1,73,75,0
1,76,75,0
1,76,0,48
1,73,0,0
1,69,0,0
1,69,75,48
1,73,75,0
1,76,75,0
1,76,0,48
1,73,0,0
1,69,0,0
1,69,75,0
1,73,75,0
1,78,75,0
1,78,0,48
1,73,0,0
1,69,0,0
1,69,75,48
1,73,75,0
1,76,75,0
1,76,0,48
1,73,0,0
1,69,0,0
1,69,75,0
1,73,75,0
1,78,75,0
1,78,0,48
1,73,0,0
1,69,0,0
1,69,75,48
1,73,75,0
1,76,75,0
1,76,0,48
1,73,0,0
1,69,0,0
1,69,75,48
1,73,75,0
1,76,75,0
1,76,0,48
1,73,0,0
1,69,0,0
1,69,75,48
1,73,75,0
1,78,75,0
1,78,0,48
1,73,0,0
1,69,0,0
1,68,75,240
1,71,75,0
1,74,75,0
1,74,0,24
1,71,0,0
1,68,0,0
1,68,75,72
1,71,75,0
1,74,75,0
1,74,0,24
1,71,0,0
1,68,0,0
1,68,75,168
1,71,75,0
1,74,75,0
1,74,0,48
1,71,0,0
1,68,0,0
1,68,75,48
1,71,75,0
1,74,75,0
1,74,0,24
1,71,0,0
1,68,0,0
1,68,75,24
1,71,75,0
1,74,75,0
1,74,0,24
1,71,0,0
1,68,0,0
1,68,75,72
1,71,75,0
1,74,75,0
1,74,0,24
1,71,0,0
1,68,0,0
1,68,75,24
1,71,75,0
1,74,75,0
1,74,0,24
1,71,0,0
1,68,0,0
1,68,75,168
1,71,75,0
1,74,75,0
1,74,0,24
1,71,0,0
1,68,0,0
1,68,75,72
1,71,75,0
1,74,75,0
1,74,0,24
1,71,0,0
1,68,0,0
1,68,75,168
1,71,75,0
1,74,75,0
1,74,0,48
1,71,0,0
1,68,0,0
1,68,75,48
1,71,75,0
1,74,75,0
1,74,0,24
1,71,0,0
1,68,0,0
1,68,75,24
1,71,75,0
1,74,75,0
1,74,0,24
1,71,0,0
1,68,0,0
1,68,75,72
1,71,75,0
1,74,75,0
1,74,0,24
1,71,0,0
1,68,0,0
1,68,75,24
1,71,75,0
1,74,75,0
1,74,0,24
1,71,0,0
1,68,0,0
1,68,75,168
1,71,75,0
1,74,75,0
1,74,0,24
1,71,0,0
1,68,0,0
1,68,75,72
1,71,75,0
1,74,75,0
1,74,0,24
1,71,0,0
1,68,0,0
1,69,75,168
1,73,75,0
1,76,75,0
1,76,0,48
1,73,0,0
1,69,0,0
1,69,75,48
1,73,75,0
1,76,75,0
1,76,0,48
1,73,0,0
1,69,0,0
1,69,75,48
1,73,75,0
1,78,75,0
1,78,0,48
1,73,0,0
1,69,0,0
1,69,75,144
1,73,75,0
1,76,75,0
1,76,0,48
1,73,0,0
1,69,0,0
1,69,75,48
1,73,75,0
1,76,75,0
1,76,0,48
