track,note,velocity,time
1,65,81,34538
1,65,0,38
1,63,77,33
1,63,0,50
1,63,82,93
1,63,0,30
1,68,89,29
1,68,0,97
1,63,81,11
1,63,0,1
1,65,88,355
1,65,0,36
1,63,90,25
1,63,0,55
1,63,76,73
1,63,0,25
1,68,88,20
1,68,0,85
1,63,82,36
1,63,0,7
1,65,84,309
1,65,0,50
1,63,85,15
1,63,0,45
1,63,80,77
1,63,0,30
1,68,93,35
1,68,0,94
1,63,79,16
1,63,0,13
1,72,91,7
1,71,58,48
1,72,0,28
1,69,59,7
1,67,73,7
1,65,68,8
1,71,0,8
1,64,66,18
1,69,0,1
1,67,0,21
1,62,70,3
1,65,0,10
1,60,69,10
1,64,0,14
1,59,70,1
1,57,66,22
1,62,0,3
1,60,0,20
1,55,71,2
1,59,0,8
1,53,73,0
1,57,0,11
1,52,73,6
1,50,73,7
1,55,0,6
1,53,0,10
1,48,72,1
1,52,0,15
1,50,0,8
1,48,0,21
1,65,81,4
1,65,0,38
1,63,85,23
1,63,0,47
1,63,83,77
1,63,0,30
1,68,94,25
1,68,0,103
1,63,86,15
1,63,0,20
1,80,89,3
1,79,61,21
1,80,0,5
1,77,57,7
1,76,60,20
1,74,69,10
1,79,0,5
1,72,68,25
1,77,0,2
1,76,0,6
1,71,67,9
1,74,0,6
1,72,0,20
1,71,0,9
1,75,94,7
1,75,0,639
1,65,84,25
1,65,0,35
1,65,81,34
1,65,0,42
1,65,82,68
1,65,0,31
1,68,94,34
1,68,0,170
1,65,88,1017
1,65,0,30
1,65,80,37
1,65,0,36
1,65,85,77
1,65,0,33
1,68,91,29
1,68,0,118
1,65,95,17
1,65,0,125
1,65,85,1428
1,65,0,30
1,65,86,42
1,65,0,37
1,65,88,71
1,65,0,33
1,68,95,26
1,68,0,104
1,65,85,17
1,65,0,102
1,65,88,1461
1,65,0,31
1,65,82,35
1,65,0,38
1,65,79,76
1,65,0,31
1,68,89,21
1,68,0,103
1,65,88,25
1,65,0,119
2,36,109,957
2,36,0,944
2,48,105,21
2,48,0,843
2,36,110,132
2,36,0,304
2,48,97,55
2,48,0,80
2,48,103,514
2,48,0,911
2,29,101,39
2,29,0,251
2,41,96,100
2,41,0,45
2,39,100,25
2,41,98,176
2,39,0,3
2,41,0,51
2,29,96,309
2,29,0,280
2,41,104,76
2,41,0,52
2,39,90,7
2,39,0,166
2,29,94,375
2,29,0,290
2,41,93,76
2,39,94,51
2,41,0,2
2,39,0,185
2,41,92,3
2,41,0,53
2,29,91,306
2,29,0,266
2,41,93,90
2,41,0,53
2,39,93,10
2,39,0,141
2,29,100,398
2,29,0,261
2,41,102,102
2,41,0,48
2,39,88,9
2,39,0,180
2,41,97,3
2,41,0,55
2,29,96,305
2,29,0,277
2,41,96,80
2,41,0,57
2,39,83,9
2,39,0,209
2,29,100,332
2,29,0,279
2,41,93,72
2,39,91,58
2,41,0,1
2,39,0,161
2,41,96,27
2,41,0,55
2,29,102,295
2,29,0,266
2,41,99,95
2,41,0,59
2,39,84,8
2,39,0,207
2,34,94,335
2,34,0,250
2,46,107,98
2,46,0,42
2,44,87,13
2,44,0,183
2,46,92,21
2,46,0,64
2,34,90,285
2,34,0,312
2,46,98,43
2,44,100,51
2,46,0,3
2,44,0,85
2,29,81,466
2,29,0,269
2,41,86,70
2,41,0,50
2,39,92,10
2,39,0,187
2,41,87,15
2,41,0,58
2,29,89,306
2,29,0,304
2,41,84,62
2,39,102,53
2,41,0,2
2,39,0,98
2,29,87,443
2,29,0,297
2,41,84,61
2,41,0,55
2,39,93,14
2,41,92,170
2,39,0,1
2,41,0,56
2,29,83,299
2,29,0,292
2,41,92,64
2,41,0,60
2,39,99,8
2,39,0,98
2,29,93,439
2,29,0,214
2,41,89,152
2,41,0,52
2,39,96,3
2,41,90,177
2,39,0,2
2,41,0,63
2,29,93,293
2,29,0,258
2,41,93,101
2,41,0,55
2,39,87,8
2,39,0,137
2,29,100,399
2,29,0,276
2,41,100,100
2,39,88,39
2,41,0,14
2,39,0,172
2,41,82,9
2,41,0,65
2,29,91,279
2,29,0,266
2,41,94,110
2,39,86,61
2,41,0,1
2,39,0,105
2,29,97,422
2,29,0,271
2,41,94,97
2,41,0,50
2,39,77,2
2,39,0,178
2,41,89,12
2,41,0,61
2,29,90,282
2,29,0,282
2,41,100,88
2,41,0,60
2,39,97,0
2,39,0,77
2,29,90,460
2,29,0,268
2,41,94,97
2,39,95,53
2,41,0,4
2,39,0,178
2,41,92,0
2,41,0,63
2,29,102,299
2,29,0,274
2,41,100,81
2,39,84,58
2,41,0,22
2,39,0,93
2,34,92,431
2,34,0,239
2,46,91,135
2,46,0,45
2,44,86,10
2,44,0,176
2,46,95,6
2,46,0,61
2,34,94,172
2,34,0,362
2,46,93,114
2,46,0,67
2,44,102,4
2,44,0,99
2,29,82,447
2,29,0,250
2,41,100,100
2,39,86,55
2,41,0,2
2,39,0,162
2,41,88,5
2,41,0,65
2,29,100,310
2,29,0,256
2,41,95,93
2,41,0,57
2,39,77,0
2,39,0,104
2,29,86,445
2,29,0,283
2,41,100,81
2,41,0,57
2,39,86,3
2,41,100,180
2,39,0,9
2,41,0,62
2,29,91,290
2,29,0,278
2,41,88,68
2,39,92,64
2,41,0,19
2,39,0,54
2,36,101,101
2,36,0,251
2,34,96,0
2,34,0,79
2,34,90,49
2,34,0,62
2,34,84,123
2,34,0,67
2,34,101,106
2,34,0,450
2,34,86,144
2,34,0,71
2,34,91,114
2,34,0,70
2,34,91,105
2,34,0,443
2,34,96,153
2,34,0,59
2,34,86,139
2,34,0,69
2,34,100,95
2,34,0,415
2,34,77,183
2,34,0,62
2,34,83,132
2,34,0,70
2,34,96,89
2,34,0,327
2,36,99,54
2,34,106,4071
2,36,0,18
2,34,0,141
2,49,103,74
2,50,84,61
2,49,0,11
2,46,90,47
2,50,0,5
2,46,0,53
2,44,105,5
2,46,104,179
2,44,0,10
2,46,0,65
2,34,116,281
2,34,0,163
2,46,106,205
2,46,0,49
2,44,107,12
2,44,0,198
2,34,109,351
2,34,0,155
2,49,113,71
2,50,78,64
2,49,0,4
2,46,86,56
2,50,0,10
2,46,0,47
2,44,93,7
2,44,0,186
2,46,99,0
2,46,0,107
2,34,100,244
2,34,0,210
2,46,108,143
2,46,0,60
2,44,96,3
2,44,0,188
2,34,116,8
2,34,0,168
2,49,109,65
2,49,0,69
2,50,80,0
2,46,95,57
2,50,0,8
2,46,0,45
2,44,92,10
2,46,79,191
2,44,0,20
2,46,0,40
2,34,108,285
2,34,0,236
2,46,92,111
2,46,0,60
2,44,108,2
2,44,0,83
2,44,81,52
2,44,0,38
2,44,102,25
2,44,0,122
2,44,94,67
2,44,0,90
2,34,106,75
2,34,0,164
2,49,115,76
2,50,83,53
2,49,0,23
2,46,99,44
2,50,0,3
2,46,0,56
2,44,97,0
2,44,0,172
2,46,104,5
2,46,0,105
2,34,109,249
2,34,0,193
2,46,102,172
2,44,116,53
2,46,0,28
2,44,0,78
2,34,106,450
2,34,0,184
2,49,108,28
2,50,83,79
2,49,0,19
2,46,84,46
2,50,0,3
2,44,90,58
2,46,0,4
2,46,94,156
2,44,0,4
2,46,0,79
2,34,101,171
2,34,0,450
2,46,91,35
2,44,112,63
2,46,0,6
2,44,0,72
2,44,111,268
2,44,0,106
2,34,108,74
2,34,0,232
2,49,115,15
2,50,83,64
2,49,0,25
2,46,79,39
2,50,0,24
2,46,0,45
2,44,82,0
2,46,103,155
2,44,0,6
2,46,0,66
2,34,114,308
2,34,0,266
2,46,98,86
2,46,0,63
2,44,93,5
2,44,0,106
2,29,102,412
2,29,0,285
2,41,109,88
2,39,101,54
2,41,0,2
2,39,0,176
2,41,91,0
2,41,0,93
2,29,100,267
2,29,0,273
2,41,105,96
2,39,84,50
2,41,0,21
2,39,0,102
2,29,100,430
2,29,0,273
2,41,113,77
2,39,95,56
2,41,0,5
2,41,107,184
2,39,0,3
2,41,0,59
2,29,104,296
2,29,0,268
2,41,107,87
2,41,0,64
2,39,101,3
2,39,0,117
2,29,93,426
2,29,0,292
2,41,78,63
2,39,102,54
2,41,0,4
2,39,0,189
2,41,82,0
2,41,0,77
2,29,94,279
2,29,0,320
2,41,94,36
2,39,93,60
2,41,0,5
2,39,0,71
2,29,96,452
2,29,0,327
2,41,95,41
2,41,0,63
2,39,93,0
2,41,101,181
2,39,0,8
2,41,0,60
2,29,90,287
2,29,0,325
2,41,94,41
2,41,0,58
2,39,88,0
2,39,0,136
2,29,96,410
2,29,0,328
2,41,93,41
2,39,102,49
2,41,0,10
2,41,83,168
2,39,0,9
2,41,0,71
2,29,100,279
2,29,0,345
2,41,92,23
2,39,98,56
2,41,0,6
2,39,0,103
2,29,103,421
2,29,0,310
2,41,91,59
2,39,85,61
2,41,0,4
2,41,84,165
2,39,0,5
2,41,0,65
2,29,91,291
2,29,0,322
2,41,86,35
2,39,96,53
2,41,0,22
2,39,0,97
2,39,79,27
2,39,0,44
2,36,84,2
2,36,0,180
2,35,88,25
2,34,99,162
2,35,0,13
2,34,0,120
2,34,91,48
2,34,0,57
2,34,107,104
2,34,0,516
2,34,105,102
2,34,0,160
2,34,88,27
2,34,0,58
2,34,110,110
2,34,0,503
2,34,111,103
2,34,0,145
2,34,105,37
2,34,0,60
2,34,94,103
2,34,0,511
2,34,109,88
2,34,0,155
2,34,103,47
2,34,0,66
2,34,114,109
2,34,0,335
2,29,85,21
2,29,0,35
2,29,91,23
2,29,0,141
2,34,105,30
2,34,0,163
2,34,84,35
2,34,0,57
2,34,93,106
2,34,0,513
2,34,103,101
2,34,0,159
2,34,89,26
2,34,0,59
2,34,101,104
2,34,0,520
2,34,99,86
2,34,0,161
2,34,104,30
2,34,0,64
2,34,101,94
2,34,0,520
2,34,91,88
2,34,0,157
2,34,87,32
2,34,0,71
2,34,101,84
2,34,0,148
2,36,100,226
2,29,95,1212
2,36,0,9
2,29,0,250
2,41,80,110
2,41,0,50
2,39,79,0
2,41,90,176
2,39,0,10
2,41,0,49
2,29,91,290
2,29,0,293
2,41,84,83
2,39,88,59
2,41,0,1
2,39,0,103
2,29,100,426
2,29,0,278
2,41,111,85
2,41,0,52
2,39,94,6
2,41,93,175
2,39,0,12
2,41,0,53
2,29,108,299
2,29,0,281
2,41,93,88
2,41,0,57
2,39,92,5
2,39,0,89
2,29,100,433
2,29,0,290
2,41,101,78
2,41,0,58
2,39,96,9
2,41,96,166
2,39,0,7
2,41,0,55
2,29,94,307
2,29,0,285
2,41,96,72
2,39,101,61
2,41,0,3
2,39,0,94
2,29,92,433
2,29,0,288
2,41,96,71
2,39,81,56
2,41,0,2
2,41,81,183
2,39,0,4
2,41,0,55
2,29,87,291
2,29,0,292
2,41,96,97
2,39,101,54
2,41,0,6
2,39,0,100
2,29,101,443
2,29,0,253
2,41,82,98
2,41,0,45
2,39,96,24
2,41,101,175
2,39,0,2
2,41,0,51
2,44,105,247
2,41,90,186
2,44,0,17
2,41,0,52
2,40,84,50
2,41,97,51
2,40,0,4
2,41,0,48
2,32,112,79
2,30,86,175
2,29,96,1
2,32,0,13
2,30,0,4
2,29,0,62
2,28,92,46
2,28,0,53
2,29,89,11
2,29,0,70
3,65,72,965
3,60,65,1
3,70,70,2
3,65,0,3834
3,60,0,1
3,70,0,3
3,74,84,26874
3,68,85,5
3,63,89,1
3,63,0,549
3,62,75,16
3,62,0,339
3,63,92,53
3,63,0,554
3,62,94,44
3,62,0,321
3,63,90,54
3,63,0,544
3,62,100,41
3,62,0,320
3,63,80,30
3,74,0,499
3,63,0,6
3,68,0,1
3,74,79,27350
3,63,81,0
3,68,79,3
3,63,0,560
3,62,68,1
3,62,0,365
3,63,78,41
3,62,65,578
3,63,0,15
3,62,0,302
3,63,66,38
3,62,75,627
3,63,0,18
3,62,0,266
3,63,79,44
3,63,0,586
3,62,66,12
3,62,0,298
3,63,89,70
3,62,63,565
3,63,0,11
3,62,0,324
3,63,83,76
3,62,70,606
3,63,0,12
3,62,0,281
3,63,79,59
3,62,75,576
3,63,0,4
3,62,0,308
3,63,79,54
3,63,0,135
3,74,0,4
3,68,0,2
3,75,84,563
3,60,82,4
3,70,89,1
3,65,69,4
3,75,0,1216
3,60,0,1
3,70,0,5
3,65,0,4
4,65,64,957
4,60,63,0
4,70,63,0
4,75,84,0
4,75,0,33
4,70,0,3
4,65,0,10
4,70,64,14
4,65,57,0
4,75,80,0
4,60,0,36
4,65,0,8
4,70,0,6
4,65,66,10
4,60,60,0
4,70,67,0
4,75,76,0
4,75,0,3
4,75,0,33
4,70,0,5
4,65,0,8
4,70,66,11
4,65,63,0
4,75,82,0
4,60,0,47
4,65,0,6
4,70,0,6
4,65,63,1
4,70,63,0
4,60,60,0
4,75,85,0
4,75,0,8
4,75,0,25
4,70,0,8
4,65,0,11
4,70,63,8
4,65,57,0
4,75,81,0
4,65,0,49
4,70,0,4
4,65,66,7
4,70,68,0
4,75,80,0
4,70,0,46
4,75,0,9
4,65,0,3
4,70,64,2
4,65,59,0
4,75,0,13
4,60,0,29
4,65,0,8
4,70,0,9
4,65,66,1
4,70,63,0
4,60,61,0
4,75,81,0
4,75,83,0
4,75,0,43
4,70,0,6
4,65,0,5
4,70,62,6
4,65,54,0
4,75,0,8
4,60,0,25
4,65,0,16
4,70,0,8
4,60,63,3
4,65,66,0
4,70,66,0
4,75,80,0
4,75,0,45
4,70,0,0
4,65,0,13
4,70,63,2
4,65,53,0
4,75,80,0
4,65,0,48
4,60,0,6
4,70,0,3
4,60,63,3
4,65,63,0
4,70,59,0
4,75,85,0
4,75,80,0
4,75,0,3
4,75,0,42
4,70,0,1
4,65,0,7
4,70,67,7
4,65,54,0
4,75,0,12
4,65,0,38
4,60,0,4
4,70,0,4
4,60,63,2
4,65,63,0
4,70,59,0
4,75,79,0
4,75,0,43
4,70,0,3
4,65,0,7
4,70,63,7
4,65,55,0
4,75,82,0
4,60,0,51
4,65,0,1
4,70,0,2
4,65,64,6
4,60,54,0
4,70,63,0
4,75,83,0
4,75,80,0
4,75,0,7
4,75,0,30
4,70,0,2
4,65,0,14
4,70,66,7
4,65,52,0
4,75,0,13
4,60,0,32
4,65,0,7
4,70,0,7
4,60,61,1
4,65,66,0
4,70,63,0
4,75,85,0
4,75,0,43
4,70,0,3
4,65,0,8
4,70,61,6
4,65,52,0
4,75,75,0
4,65,0,48
4,60,0,3
4,70,0,6
4,60,55,3
4,65,63,0
4,70,60,0
4,75,81,0
4,75,79,0
4,75,0,8
4,75,0,34
4,70,0,2
4,65,0,9
4,60,0,6
4,70,61,1
4,65,54,0
4,60,56,0
4,65,51,0
4,60,62,0
4,75,0,6
4,65,0,12
4,65,0,2
4,60,0,20
4,70,0,12
4,65,66,8
4,70,63,0
4,75,84,0
4,75,79,0
4,70,0,39
4,75,0,3
4,65,0,12
4,60,0,4
4,70,63,2
4,65,59,0
4,75,0,9
4,65,0,41
4,70,0,7
4,65,68,3
4,60,59,0
4,70,54,0
4,75,73,0
4,75,80,0
4,75,0,42
4,70,0,0
4,65,0,15
4,70,58,3
4,65,52,0
4,75,0,15
4,65,0,35
4,60,0,4
4,60,63,6
4,70,64,0
4,65,63,0
4,75,81,0
4,70,0,1
4,75,0,41
4,70,0,7
4,65,0,5
4,70,63,6
4,65,57,0
4,60,54,0
4,75,77,0
4,60,0,2
4,60,0,50
4,65,0,5
4,60,62,3
4,70,64,0
4,65,61,0
4,75,81,0
4,70,0,2
4,75,0,15
4,75,0,23
4,70,0,4
4,65,0,6
4,70,63,10
4,65,60,0
4,75,82,0
4,60,0,49
4,65,0,3
4,70,0,6
4,60,64,2
4,65,66,0
4,70,56,0
4,75,80,0
4,75,0,12
4,75,0,28
4,70,0,2
4,65,0,12
4,60,0,3
4,70,58,3
4,65,57,0
4,60,53,0
4,75,81,0
4,60,0,45
4,65,0,5
4,70,0,8
4,60,63,2
4,65,63,0
4,70,63,0
4,75,81,0
4,75,0,9
