track,note,velocity,time
1,69,96,11640
1,69,0,48
1,69,60,12
1,69,0,48
1,69,96,12
1,69,0,48
1,65,105,252
1,65,0,60
1,62,80,0
1,62,0,49
1,62,85,11
1,62,0,49
1,62,86,11
1,62,0,34
1,62,96,26
1,62,0,60
1,57,86,120
1,57,0,50
1,59,82,10
1,59,0,40
1,57,100,20
1,57,0,37
1,62,96,23
1,62,0,42
1,62,82,18
1,62,0,33
1,62,82,27
1,62,0,58
1,65,103,2
1,65,0,130
1,69,96,360
1,69,0,48
1,69,60,12
1,69,0,48
1,69,96,12
1,69,0,48
1,65,105,252
1,65,0,50
1,64,105,10
1,64,0,50
1,62,100,10
1,62,0,43
1,62,93,17
1,62,0,103
1,60,81,17
1,60,0,90
1,57,95,30
1,57,0,60
1,59,95,0
1,59,0,33
1,59,92,27
1,65,96,60
1,59,0,10
1,65,0,98
1,59,98,12
1,59,0,120
1,57,105,0
1,57,0,58
1,59,105,2
1,59,0,60
1,62,98,0
1,62,0,77
1,69,96,463
1,69,0,48
1,69,60,12
1,69,0,48
1,69,96,12
1,69,0,48
1,65,100,252
1,65,0,58
1,64,100,2
1,64,0,50
1,62,100,10
1,62,0,39
1,62,100,21
1,62,0,48
1,62,90,12
1,62,0,48
1,62,80,12
1,62,0,73
1,57,96,107
1,57,0,59
1,59,99,1
1,59,0,46
1,57,93,14
1,57,0,60
1,62,99,0
1,62,0,107
1,59,102,13
1,59,0,53
1,62,93,7
1,62,0,97
1,59,100,23
1,59,0,48
1,62,99,12
1,65,100,60
1,62,0,31
1,65,0,60
1,69,96,130
1,69,0,48
1,69,60,12
1,69,0,48
1,69,96,12
1,69,0,48
1,65,100,252
1,65,0,58
1,64,100,2
1,64,0,50
1,62,100,10
1,62,0,39
1,62,100,21
1,62,0,48
1,62,90,12
1,62,0,48
1,62,80,12
1,62,0,73
1,59,101,167
1,57,101,60
1,59,0,15
1,62,99,45
1,57,0,4
1,62,0,71
1,62,95,45
1,65,95,60
1,62,0,9
1,65,0,70
1,62,85,0
1,62,0,32
1,62,101,28
1,62,0,117
1,65,80,7923
1,65,0,48
1,65,80,12
1,65,0,48
1,65,80,12
1,65,0,48
1,65,80,12
1,65,0,48
1,65,80,12
1,65,0,48
1,65,80,12
1,65,0,48
1,65,80,12
1,65,0,48
1,65,80,12
1,65,0,48
1,65,80,12
1,65,0,48
1,65,80,12
1,65,0,48
1,65,80,12
1,65,0,48
1,65,80,12
1,65,0,48
1,65,80,12
1,65,0,48
1,65,80,12
1,65,0,48
1,65,80,12
1,65,0,48
1,65,80,12
1,65,0,48
1,67,80,12
1,67,0,48
1,67,80,12
1,67,0,48
1,60,80,12
1,60,0,60
1,58,80,60
1,58,0,60
1,64,80,540
1,64,0,53
1,67,80,67
1,67,0,72
1,64,108,48
1,64,0,51
1,67,100,9
1,67,0,60
1,64,96,120
1,64,0,60
1,67,100,60
1,67,0,78
1,64,108,42
1,64,0,48
1,67,96,12
1,67,0,126
1,67,80,54
1,60,96,60
1,67,0,9
1,60,0,152
1,65,80,859
1,65,0,48
1,65,80,12
1,65,0,48
1,65,80,12
1,65,0,48
1,65,80,12
1,65,0,48
1,65,80,12
1,65,0,48
1,65,80,12
1,65,0,48
1,65,80,12
1,65,0,48
1,65,80,12
1,65,0,48
1,65,80,12
1,65,0,48
1,65,80,12
1,65,0,48
1,65,80,12
1,65,0,48
1,65,80,12
1,65,0,48
1,65,80,12
1,65,0,48
1,65,80,12
1,65,0,48
1,65,80,12
1,65,0,48
1,65,80,12
1,65,0,48
1,67,80,12
1,67,0,48
1,67,80,12
1,67,0,48
1,60,80,12
1,60,0,60
1,58,80,60
1,58,0,60
1,64,102,540
1,64,0,48
1,64,79,12
1,64,0,15
1,64,102,45
1,64,0,134
1,65,104,226
1,65,0,120
1,69,96,4200
1,69,0,48
1,69,60,12
1,69,0,48
1,69,96,12
1,69,0,48
1,65,105,252
1,65,0,53
1,64,105,7
1,64,0,53
1,59,80,7
1,59,0,49
1,62,85,11
1,62,0,49
1,62,86,11
1,62,0,34
1,62,96,26
1,62,0,60
1,59,82,180
1,59,0,60
1,62,96,0
1,62,0,42
1,62,82,78
1,62,0,120
1,59,82,0
1,59,0,60
1,65,103,0
1,65,0,120
1,69,96,360
1,69,0,48
1,69,60,12
1,69,0,48
1,69,96,12
1,69,0,48
1,65,105,252
1,65,0,50
1,64,105,10
1,64,0,50
1,62,100,10
1,62,0,43
1,62,93,17
1,62,0,103
1,60,81,17
1,60,0,90
1,59,95,30
1,59,0,108
1,65,96,72
1,65,0,108
1,62,98,12
1,62,0,48
1,62,105,12
1,62,0,108
1,69,96,612
1,69,0,48
1,69,60,12
1,69,0,48
1,69,96,12
1,69,0,48
1,65,100,252
1,65,0,58
1,64,100,2
1,64,0,50
1,62,100,10
1,62,0,39
1,62,100,21
1,62,0,48
1,62,90,12
1,62,0,48
1,59,80,12
1,59,0,73
1,62,121,47
1,62,0,101
1,59,96,19
1,59,0,56
1,62,105,4
1,62,0,101
1,59,105,19
1,59,0,51
1,62,96,9
1,66,105,0
1,62,0,18
1,66,0,96
1,69,96,534
1,69,0,48
1,69,60,12
1,69,0,48
1,69,96,12
1,69,0,48
1,65,100,252
1,65,0,58
1,64,100,2
1,64,0,50
1,62,100,10
1,62,0,39
1,62,100,21
1,62,0,48
1,62,90,12
1,62,0,48
1,59,80,12
1,59,0,73
1,62,91,47
1,62,0,96
1,59,91,24
1,65,80,60
1,59,0,7
1,65,0,101
1,59,86,12
1,59,0,45
1,59,98,15
1,59,0,43
1,59,91,17
1,59,0,60
1,57,91,0
1,57,0,80
1,65,80,8080
1,65,0,48
1,65,80,12
1,65,0,48
1,65,80,12
1,65,0,48
1,65,80,12
1,65,0,48
1,65,80,12
1,65,0,48
1,65,80,12
1,65,0,48
1,65,80,12
1,65,0,48
1,65,80,12
1,65,0,48
1,65,80,12
1,65,0,48
1,65,80,12
1,65,0,48
1,65,80,12
1,65,0,48
1,65,80,12
1,65,0,48
1,65,80,12
1,65,0,48
1,65,80,12
1,65,0,48
1,65,80,12
1,65,0,48
1,65,80,12
1,65,0,48
1,67,80,12
1,67,0,48
1,67,80,12
1,67,0,48
1,60,80,12
1,60,0,60
1,58,80,60
1,58,0,60
1,64,80,540
1,64,0,53
1,67,80,67
1,67,0,72
1,64,108,48
1,64,0,51
1,67,100,9
1,67,0,60
1,64,96,120
1,64,0,60
1,67,100,60
1,67,0,78
1,64,108,42
1,64,0,48
1,67,96,12
1,67,0,126
1,67,80,54
1,60,96,60
1,67,0,9
1,60,0,152
1,65,80,859
1,65,0,48
1,65,80,12
1,65,0,48
1,65,80,12
1,65,0,48
1,65,80,12
1,65,0,48
1,65,80,12
1,65,0,48
1,65,80,12
1,65,0,48
1,65,80,12
1,65,0,48
1,65,80,12
1,65,0,48
1,65,80,12
1,65,0,48
1,65,80,12
1,65,0,48
1,65,80,12
1,65,0,48
1,65,80,12
1,65,0,48
1,65,80,12
1,65,0,48
1,65,80,12
1,65,0,48
1,65,80,12
1,65,0,48
1,65,80,12
1,65,0,48
1,67,80,12
1,67,0,48
1,67,80,12
1,67,0,48
1,60,80,12
1,60,0,60
1,58,80,60
1,58,0,60
1,64,102,540
1,64,0,48
1,64,79,12
1,64,0,15
1,65,102,45
1,65,0,48
1,65,102,12
1,65,0,48
1,65,104,252
1,65,0,90
1,65,102,240
1,65,0,48
1,65,102,12
1,65,0,48
1,65,104,252
1,65,0,90
1,69,96,11880
1,69,0,48
1,69,60,12
1,69,0,48
1,69,96,12
1,69,0,48
1,65,105,252
1,65,0,60
1,62,80,0
1,62,0,48
1,62,85,12
1,62,0,49
1,60,86,11
1,60,0,34
1,62,96,26
1,62,0,60
1,57,86,120
1,57,0,50
1,59,82,10
1,59,0,40
1,57,100,20
1,57,0,37
1,62,96,23
1,62,0,42
1,62,82,18
1,62,0,33
1,62,82,27
1,62,0,58
1,65,103,2
1,65,0,130
1,69,96,360
1,69,0,48
1,69,60,12
1,69,0,48
1,69,96,12
1,69,0,48
1,65,105,252
1,65,0,50
1,64,105,10
1,64,0,50
1,62,100,10
1,62,0,43
1,62,93,17
1,62,0,103
1,60,81,17
1,60,0,90
1,58,95,30
1,58,0,60
1,59,95,0
1,59,0,33
1,59,92,27
1,65,96,60
1,59,0,10
1,65,0,98
1,59,98,12
1,59,0,120
1,57,105,0
1,57,0,58
1,59,105,2
1,59,0,60
1,62,98,0
1,62,0,77
1,69,96,463
1,69,0,48
1,69,60,12
1,69,0,48
1,69,96,12
1,69,0,48
1,65,100,252
1,65,0,58
1,64,100,2
1,64,0,50
1,62,100,10
1,62,0,39
1,60,100,21
1,60,0,48
1,62,90,12
1,62,0,48
1,62,80,12
1,62,0,73
1,57,96,107
1,57,0,59
1,59,99,1
1,59,0,46
1,57,93,14
1,57,0,60
1,62,99,0
1,62,0,107
1,59,102,13
1,59,0,53
1,62,93,7
1,62,0,97
1,59,100,23
1,59,0,48
1,62,99,12
1,65,100,60
1,62,0,31
1,65,0,60
1,69,96,130
1,69,0,48
1,69,60,12
1,69,0,48
1,69,96,12
1,69,0,48
1,65,100,252
1,65,0,58
1,64,100,2
1,64,0,50
1,62,100,10
1,62,0,39
1,62,100,21
1,62,0,48
1,62,90,12
1,62,0,48
1,60,80,12
1,60,0,73
1,59,101,167
1,57,101,60
1,59,0,15
1,62,99,45
1,57,0,4
1,62,0,71
1,62,95,45
1,65,95,60
1,62,0,9
1,65,0,70
1,62,85,0
1,62,0,32
1,62,101,28
1,62,0,117
1,65,80,7923
1,65,0,48
1,65,80,12
1,65,0,48
1,65,80,12
1,65,0,48
1,65,80,12
1,65,0,48
1,65,80,12
1,65,0,48
1,65,80,12
1,65,0,48
1,65,80,12
1,65,0,48
1,65,80,12
1,65,0,48
1,65,80,12
1,65,0,48
1,65,80,12
1,65,0,48
1,65,80,12
1,65,0,48
1,65,80,12
1,65,0,48
1,65,80,12
1,65,0,48
1,65,80,12
1,65,0,48
1,65,80,12
1,65,0,48
1,65,80,12
1,65,0,48
1,67,80,12
1,67,0,48
1,67,80,12
1,67,0,48
1,60,80,12
1,60,0,60
1,58,80,60
1,58,0,60
1,64,80,540
1,64,0,53
1,67,80,67
1,67,0,72
1,64,108,48
1,64,0,51
1,67,100,9
1,67,0,60
1,64,96,120
1,64,0,60
1,67,100,60
1,67,0,78
1,64,108,42
1,64,0,48
1,67,96,12
1,67,0,126
1,67,80,54
1,60,96,60
1,67,0,9
1,60,0,152
1,65,80,859
1,65,0,48
1,65,80,12
1,65,0,48
1,65,80,12
1,65,0,48
1,65,80,12
1,65,0,48
1,65,80,12
1,65,0,48
1,65,80,12
1,65,0,48
1,65,80,12
1,65,0,48
1,65,80,12
1,65,0,48
1,65,80,12
1,65,0,48
1,65,80,12
1,65,0,48
1,65,80,12
1,65,0,48
1,65,80,12
1,65,0,48
1,65,80,12
1,65,0,48
1,65,80,12
1,65,0,48
1,65,80,12
1,65,0,48
1,65,80,12
1,65,0,48
1,67,80,12
1,67,0,48
1,67,80,12
1,67,0,48
1,60,80,12
1,60,0,60
1,58,80,60
1,58,0,60
1,67,100,1020
1,67,0,60
1,64,100,0
1,64,0,49
1,67,100,11
1,67,0,60
1,64,104,60
1,64,0,59
1,67,80,1
1,67,0,158
1,64,100,22
1,64,0,60
1,67,88,0
1,67,0,99
1,67,82,21
1,58,88,60
1,67,0,11
1,58,0,102
1,65,80,727
1,65,0,48
1,65,80,12
1,65,0,48
1,65,80,12
1,65,0,48
1,65,80,12
1,65,0,48
1,65,80,12
1,65,0,48
1,65,80,12
1,65,0,48
1,65,80,12
1,65,0,48
1,65,80,12
1,65,0,48
1,65,80,12
1,65,0,48
1,65,80,12
1,65,0,48
1,65,80,12
1,65,0,48
1,65,80,12
1,65,0,48
1,65,80,12
1,65,0,48
1,65,80,12
1,65,0,48
1,65,80,12
1,65,0,48
1,65,80,12
1,65,0,48
1,67,80,12
1,67,0,48
1,67,80,12
1,67,0,48
1,60,80,12
1,60,0,60
1,58,80,60
1,58,0,60
1,62,100,480
1,62,0,59
1,64,104,1
1,64,0,45
1,62,100,15
1,62,0,60
1,67,94,0
1,67,0,89
1,64,104,31
1,64,0,51
1,67,88,9
1,67,0,102
1,64,88,78
1,64,0,63
1,67,104,57
1,67,0,65
1,64,88,55
1,64,0,60
1,67,104,0
1,67,0,69
1,64,88,51
1,64,0,53
1,67,94,7
1,67,0,160
1,67,80,20
1,67,0,60
1,58,88,0
1,58,0,110
1,65,80,730
1,65,0,48
1,65,80,12
1,65,0,48
1,65,80,12
1,65,0,48
1,65,80,12
1,65,0,48
1,65,80,12
1,65,0,48
1,65,80,12
1,65,0,48
1,65,80,12
1,65,0,48
1,65,80,12
1,65,0,48
1,65,80,12
1,65,0,48
1,65,80,12
1,65,0,48
1,65,80,12
1,65,0,48
1,65,80,12
1,65,0,48
1,65,80,12
1,65,0,48
1,65,80,12
1,65,0,48
1,65,80,12
1,65,0,48
1,65,80,12
1,65,0,48
1,67,80,12
1,67,0,48
1,67,80,12
1,67,0,48
1,60,80,12
1,60,0,60
1,58,80,60
1,58,0,60
1,62,102,420
1,62,0,33
1,62,104,27
1,62,0,61
1,62,104,59
1,62,0,42
1,65,103,18
1,65,0,44
1,65,88,16
1,65,0,68
1,65,92,232
1,65,0,60
1,67,88,0
1,67,0,72
1,62,100,468
1,62,0,44
1,62,88,16
1,62,0,90
1,61,88,210
1,61,0,60
1,62,88,0
1,62,0,70
1,65,88,470
1,65,0,39
1,65,103,21
1,65,0,71
1,65,103,229
1,65,0,60
1,67,88,0
1,67,0,70
2,66,96,11640
2,62,96,0
2,69,96,0
2,69,0,48
2,62,0,0
2,66,0,0
2,66,60,12
2,62,60,0
2,69,60,0
2,69,0,48
2,62,0,0
2,66,0,0
2,66,96,12
2,62,96,0
2,69,96,0
2,69,0,48
2,62,0,0
2,66,0,0
2,66,96,1752
2,62,96,0
2,69,96,0
2,69,0,48
2,62,0,0
2,66,0,0
2,66,60,12
2,62,60,0
2,69,60,0
2,69,0,48
2,62,0,0
2,66,0,0
2,66,96,12
2,62,96,0
2,69,96,0
2,69,0,48
2,62,0,0
2,66,0,0
2,66,96,1752
2,62,96,0
2,69,96,0
2,69,0,48
2,62,0,0
2,66,0,0
2,66,60,12
2,62,60,0
2,69,60,0
2,69,0,48
2,62,0,0
2,66,0,0
2,66,96,12
2,62,96,0
2,69,96,0
2,69,0,48
2,62,0,0
2,66,0,0
2,66,96,1752
2,62,96,0
2,69,96,0
2,69,0,48
2,62,0,0
2,66,0,0
2,66,60,12
2,62,60,0
2,69,60,0
2,69,0,48
2,62,0,0
2,66,0,0
2,66,96,12
2,62,96,0
2,69,96,0
2,69,0,48
2,62,0,0
2,66,0,0
2,65,48,9312
2,69,48,0
2,62,48,0
2,62,0,48
2,69,0,0
2,65,0,0
2,65,49,12
2,69,49,0
2,62,49,0
2,62,0,48
2,69,0,0
2,65,0,0
2,65,52,12
2,69,52,0
2,62,52,0
2,62,0,48
2,69,0,0
2,65,0,0
2,65,55,12
2,69,55,0
2,62,55,0
2,62,0,48
2,69,0,0
2,65,0,0
2,65,57,12
2,69,57,0
2,62,57,0
2,62,0,48
2,69,0,0
2,65,0,0
2,65,61,12
2,69,61,0
2,62,61,0
2,62,0,48
2,69,0,0
2,65,0,0
2,65,63,12
2,69,63,0
2,62,63,0
2,62,0,48
2,69,0,0
2,65,0,0
2,65,67,12
2,69,67,0
2,62,67,0
2,62,0,48
2,69,0,0
2,65,0,0
2,65,69,12
2,69,69,0
2,62,69,0
2,62,0,48
2,69,0,0
2,65,0,0
2,65,72,12
2,69,72,0
2,62,72,0
2,62,0,48
2,69,0,0
2,65,0,0
2,65,75,12
2,69,75,0
2,62,75,0
2,62,0,48
2,69,0,0
2,65,0,0
2,65,78,12
2,69,78,0
2,62,78,0
2,62,0,48
2,69,0,0
2,65,0,0
2,65,81,12
2,69,81,0
