track,note,velocity,time
1,57,92,12192
1,57,0,94
1,64,92,2
1,64,0,142
1,64,92,2
1,64,0,118
1,64,92,2
1,64,0,118
1,64,92,2
1,64,0,160
1,61,92,32
1,61,0,94
1,61,92,2
1,61,0,94
1,64,92,2
1,64,0,142
1,64,92,2
1,64,0,118
1,64,92,2
1,64,0,118
1,64,92,2
1,64,0,160
1,61,92,32
1,61,0,94
1,61,92,2
1,61,0,94
1,61,92,2
1,61,0,142
1,61,92,2
1,61,0,118
1,61,92,2
1,61,0,376
1,61,92,32
1,61,0,94
1,61,92,2
1,61,0,142
1,57,92,2
1,57,0,118
1,57,92,2
1,57,0,376
1,57,92,32
1,57,0,94
1,64,92,2
1,64,0,142
1,64,92,2
1,64,0,118
1,64,92,2
1,64,0,118
1,64,92,2
1,64,0,160
1,61,92,32
1,61,0,94
1,61,92,2
1,61,0,94
1,64,92,2
1,64,0,142
1,64,92,2
1,64,0,118
1,64,92,2
1,64,0,118
1,64,92,2
1,64,0,160
1,61,92,32
1,61,0,94
1,61,92,2
1,61,0,94
1,61,92,2
1,61,0,142
1,61,92,2
1,61,0,118
1,61,92,2
1,61,0,376
1,61,92,32
1,61,0,94
1,61,92,2
1,61,0,142
1,57,92,2
1,57,0,118
1,57,92,2
1,57,0,456
1,61,92,48
1,61,0,720
1,59,92,48
1,59,0,160
1,59,92,32
1,59,0,142
1,57,92,2
1,57,0,46
1,59,92,2
1,59,0,160
1,59,92,32
1,59,0,912
1,57,92,720
1,57,0,94
1,64,92,2
1,64,0,1024
1,61,92,32
1,61,0,94
1,61,92,2
1,61,0,94
1,59,92,2
1,59,0,46
1,61,92,2
1,61,0,142
1,61,92,2
1,61,0,352
1,59,92,32
1,59,0,352
1,57,92,32
1,57,0,432
1,57,92,336
1,57,0,94
1,64,92,2
1,64,0,142
1,64,92,2
1,64,0,118
1,64,92,2
1,64,0,118
1,64,92,2
1,64,0,160
1,61,92,32
1,61,0,160
1,64,92,32
1,64,0,142
1,64,92,2
1,64,0,118
1,64,92,2
1,64,0,118
1,64,92,2
1,64,0,160
1,61,92,32
1,61,0,94
1,61,92,2
1,61,0,816
1,66,92,48
1,66,0,256
1,69,92,32
1,69,0,352
1,74,92,32
1,74,0,94
1,73,92,2
1,73,0,1246
1,69,92,2
1,69,0,1008
1,59,92,720
1,59,0,94
1,59,92,2
1,59,0,336
1,59,92,48
1,59,0,94
1,64,92,2
1,64,0,190
1,64,92,2
1,64,0,190
1,64,92,2
1,64,0,432
1,61,92,144
1,61,0,94
1,61,92,2
1,61,0,336
1,61,92,48
1,61,0,94
1,61,92,2
1,61,0,190
1,57,92,2
1,57,0,190
1,57,92,2
1,57,0,432
1,59,92,144
1,59,0,94
1,59,92,2
1,59,0,336
1,59,92,48
1,59,0,94
1,64,92,2
1,64,0,190
1,64,92,2
1,64,0,190
1,64,92,2
1,64,0,238
1,62,92,2
1,62,0,46
1,61,92,2
1,61,0,256
1,61,92,32
1,61,0,94
1,61,92,2
1,61,0,336
1,61,92,48
1,61,0,94
1,61,92,2
1,61,0,190
1,57,92,2
1,57,0,190
1,57,92,2
1,57,0,432
1,59,92,144
1,59,0,94
1,59,92,2
1,59,0,336
1,59,92,48
1,59,0,94
1,64,92,2
1,64,0,190
1,64,92,2
1,64,0,190
1,64,92,2
1,64,0,432
1,61,92,144
1,61,0,94
1,61,92,2
1,61,0,336
1,61,92,48
1,61,0,94
1,61,92,2
1,61,0,190
1,57,92,2
1,57,0,190
1,57,92,2
1,57,0,432
1,59,92,144
1,59,0,94
1,59,92,2
1,59,0,336
1,59,92,48
1,59,0,94
1,64,92,2
1,64,0,190
1,64,92,2
1,64,0,190
1,64,92,2
1,64,0,238
1,62,92,2
1,62,0,46
1,61,92,2
1,61,0,256
1,61,92,32
1,61,0,94
1,61,92,2
1,61,0,336
1,61,92,48
1,61,0,94
1,61,92,2
1,61,0,190
1,57,92,2
1,57,0,190
1,57,92,2
1,57,0,432
1,59,92,48
1,59,0,160
1,64,92,3104
1,64,0,142
1,61,92,2
1,61,0,118
1,61,92,2
1,61,0,118
1,61,92,2
1,61,0,160
1,61,92,32
1,61,0,160
1,64,92,32
1,64,0,142
1,61,92,2
1,61,0,118
1,61,92,2
1,61,0,118
1,61,92,2
1,61,0,94
1,59,92,2
1,59,0,94
1,61,92,2
1,61,0,160
1,59,92,32
1,59,0,142
1,61,92,2
1,61,0,118
1,59,92,2
1,59,0,118
1,57,92,2
1,57,0,336
1,59,92,48
1,59,0,142
1,59,92,2
1,59,0,118
1,57,92,2
1,57,0,118
1,57,92,2
1,57,0,336
1,64,92,48
1,64,0,142
1,61,92,2
1,61,0,118
1,61,92,2
1,61,0,118
1,61,92,2
1,61,0,160
1,61,92,32
1,61,0,160
1,64,92,32
1,64,0,142
1,64,92,2
1,64,0,118
1,64,92,2
1,64,0,118
1,66,92,2
1,66,0,160
1,64,92,32
1,64,0,160
1,59,92,32
1,59,0,142
1,61,92,2
1,61,0,118
1,59,92,2
1,59,0,118
1,57,92,2
1,57,0,336
1,59,92,48
1,59,0,142
1,59,92,2
1,59,0,118
1,57,92,2
1,57,0,118
1,57,92,2
1,57,0,256
1,57,92,32
1,57,0,94
1,64,92,2
1,64,0,70
1,64,92,2
1,64,0,70
1,64,92,2
1,64,0,142
1,64,92,2
1,64,0,94
1,66,92,2
1,66,0,160
1,64,92,32
1,64,0,160
1,61,92,32
1,61,0,142
1,61,92,2
1,61,0,118
1,61,92,2
1,61,0,118
1,61,92,2
1,61,0,160
1,61,92,32
1,61,0,94
1,59,92,2
1,59,0,94
1,59,92,2
1,59,0,160
1,57,92,32
1,57,0,528
1,57,92,720
1,57,0,94
1,64,92,2
1,64,0,70
1,64,92,2
1,64,0,70
1,64,92,2
1,64,0,142
1,64,92,2
1,64,0,94
1,66,92,2
1,66,0,160
1,64,92,32
1,64,0,160
1,61,92,32
1,61,0,142
1,61,92,2
1,61,0,118
1,61,92,2
1,61,0,214
1,59,92,2
1,59,0,94
1,59,92,2
1,59,0,94
1,57,92,2
1,57,0,94
1,57,92,2
1,57,0,256
1,59,92,32
1,59,0,432
1,57,92,720
1,57,0,94
1,61,92,2
1,61,0,1024
1,59,92,32
1,59,0,94
1,59,92,2
1,59,0,94
1,57,92,2
1,57,0,46
1,59,92,2
1,59,0,142
1,59,92,2
1,59,0,352
1,57,92,32
1,57,0,432
1,57,92,720
1,57,0,94
1,64,92,2
1,64,0,1024
1,61,92,32
1,61,0,94
1,61,92,2
1,61,0,94
1,59,92,2
1,59,0,46
1,61,92,2
1,61,0,142
1,59,92,2
1,59,0,352
1,57,92,32
1,57,0,432
1,59,92,48
1,59,0,142
1,59,92,2
1,59,0,118
1,61,92,2
1,61,0,118
1,59,92,2
1,59,0,160
1,57,92,32
1,57,0,94
1,59,92,2
1,59,0,94
1,59,92,2
1,59,0,336
1,59,92,48
1,59,0,94
1,64,92,2
1,64,0,190
1,64,92,2
1,64,0,190
1,64,92,2
1,64,0,432
1,61,92,144
1,61,0,94
1,61,92,2
1,61,0,336
1,61,92,48
1,61,0,94
1,61,92,2
1,61,0,190
1,57,92,2
1,57,0,190
1,57,92,2
1,57,0,432
1,59,92,144
1,59,0,94
1,59,92,2
1,59,0,336
1,59,92,48
1,59,0,94
1,64,92,2
1,64,0,190
1,64,92,2
1,64,0,190
1,64,92,2
1,64,0,238
1,62,92,2
1,62,0,46
1,61,92,2
1,61,0,256
1,61,92,32
1,61,0,94
1,61,92,2
1,61,0,336
1,61,92,48
1,61,0,94
1,61,92,2
1,61,0,190
1,57,92,2
1,57,0,190
1,57,92,2
1,57,0,432
1,59,92,144
1,59,0,94
1,59,92,2
1,59,0,336
1,59,92,48
1,59,0,94
1,64,92,2
1,64,0,190
1,64,92,2
1,64,0,190
1,64,92,2
1,64,0,432
1,61,92,144
1,61,0,94
1,61,92,2
1,61,0,336
1,61,92,48
1,61,0,94
1,61,92,2
1,61,0,190
1,57,92,2
1,57,0,190
1,57,92,2
1,57,0,432
1,59,92,144
1,59,0,94
1,59,92,2
1,59,0,336
1,59,92,48
1,59,0,94
1,64,92,2
1,64,0,190
1,64,92,2
1,64,0,190
1,64,92,2
1,64,0,238
1,62,92,2
1,62,0,46
1,61,92,2
1,61,0,256
1,61,92,32
1,61,0,94
1,61,92,2
1,61,0,336
1,61,92,48
1,61,0,94
1,61,92,2
1,61,0,190
1,57,92,2
1,57,0,190
1,57,92,2
1,57,0,432
1,59,92,48
1,59,0,160
1,71,108,0
1,71,0,336
1,71,108,48
1,71,0,336
1,71,108,48
1,71,0,46
1,71,108,2
1,71,0,46
1,71,108,2
1,71,0,94
1,71,108,2
1,71,0,94
1,71,108,2
1,71,0,46
1,71,108,2
1,71,0,142
1,69,108,2
1,69,0,94
1,69,108,2
1,69,0,160
1,69,108,32
1,69,0,720
1,71,108,624
1,71,0,160
1,71,108,32
1,71,0,336
1,71,108,48
1,71,0,336
1,71,108,48
1,71,0,46
1,71,108,2
1,71,0,46
1,71,108,2
1,71,0,94
1,71,108,2
1,71,0,94
1,71,108,2
1,71,0,46
1,71,108,2
1,71,0,142
1,69,108,2
1,69,0,94
1,69,108,2
1,69,0,160
1,69,108,32
1,69,0,720
1,59,108,96
1,59,0,94
1,59,108,2
1,59,0,336
1,59,108,48
1,59,0,94
1,64,108,2
1,64,0,190
1,64,108,2
1,64,0,190
1,64,108,2
1,64,0,432
1,61,108,144
1,61,0,94
1,61,108,2
1,61,0,336
1,61,108,48
1,61,0,94
1,61,108,2
1,61,0,190
1,57,108,2
1,57,0,190
1,57,108,2
1,57,0,432
1,59,108,144
1,59,0,94
1,59,108,2
1,59,0,336
1,59,108,48
1,59,0,94
1,64,108,2
1,64,0,190
1,64,108,2
1,64,0,190
1,64,108,2
1,64,0,238
1,62,108,2
1,62,0,46
1,61,108,2
1,61,0,256
1,61,108,32
1,61,0,94
1,61,108,2
1,61,0,336
1,61,108,48
1,61,0,94
1,61,108,2
1,61,0,190
1,57,108,2
1,57,0,190
1,57,108,2
1,57,0,432
1,59,108,144
1,59,0,94
1,59,108,2
1,59,0,336
1,59,108,48
1,59,0,94
1,64,108,2
1,64,0,190
1,64,108,2
1,64,0,190
1,64,108,2
1,64,0,432
1,61,108,144
1,61,0,94
1,61,108,2
1,61,0,336
1,61,108,48
1,61,0,94
1,61,108,2
1,61,0,190
1,57,108,2
1,57,0,190
1,57,108,2
1,57,0,432
1,59,108,144
1,59,0,94
1,59,108,2
1,59,0,336
1,59,108,48
1,59,0,94
1,64,108,2
1,64,0,190
1,64,108,2
1,64,0,190
1,64,108,2
1,64,0,238
1,62,108,2
1,62,0,46
1,61,108,2
1,61,0,256
1,61,108,32
1,61,0,94
1,61,108,2
1,61,0,336
1,61,108,48
1,61,0,94
1,61,108,2
1,61,0,190
1,57,108,2
1,57,0,190
1,57,108,2
1,57,0,432
1,59,108,144
1,59,0,94
1,59,108,2
1,59,0,336
1,59,108,48
1,59,0,94
1,64,108,2
1,64,0,190
1,64,108,2
1,64,0,190
1,64,108,2
1,64,0,432
1,61,108,144
1,61,0,94
1,61,108,2
1,61,0,336
1,61,108,48
1,61,0,94
1,61,108,2
1,61,0,190
1,57,108,2
1,57,0,190
1,57,108,2
1,57,0,432
1,59,108,144
1,59,0,94
1,59,108,2
1,59,0,336
1,59,108,48
1,59,0,94
1,64,108,2
1,64,0,190
1,64,108,2
1,64,0,190
1,64,108,2
1,64,0,238
1,62,108,2
1,62,0,46
1,61,108,2
1,61,0,256
1,61,108,32
1,61,0,94
1,61,108,2
1,61,0,336
1,61,108,48
1,61,0,94
1,61,108,2
1,61,0,190
1,57,108,2
1,57,0,190
1,57,108,2
1,57,0,432
1,59,108,48
1,59,0,160
2,64,110,91008
2,64,0,94
2,64,110,2
2,64,0,190
2,64,110,2
2,64,0,190
2,62,110,2
2,62,0,352
2,61,110,32
2,61,0,190
2,59,110,2
2,59,0,94
2,64,110,1922
2,64,0,94
2,64,110,2
2,64,0,190
2,64,110,2
2,64,0,190
2,62,110,2
2,62,0,352
2,61,110,32
2,61,0,190
2,59,110,2
2,59,0,94
2,64,110,1442
2,64,0,94
2,69,110,2
2,69,0,336
2,69,110,48
2,69,0,94
2,64,110,2
2,64,0,190
2,64,110,2
2,64,0,190
2,62,110,2
2,62,0,352
2,61,110,32
2,61,0,190
2,59,110,2
2,59,0,94
2,64,110,674
2,64,0,574
2,64,110,2
2,64,0,94
2,69,110,2
2,69,0,94
2,64,110,2
2,66,110,0
2,64,0,94
2,66,0,0
2,69,110,2
2,69,0,336
2,69,110,48
2,69,0,94
2,64,110,2
2,64,0,190
2,64,110,2
2,64,0,190
2,62,110,2
2,62,0,352
2,61,110,32
2,61,0,190
2,59,110,2
2,59,0,94
2,69,110,1538
2,69,0,336
2,69,110,48
2,69,0,94
2,64,110,2
2,64,0,190
2,64,110,2
2,64,0,190
2,62,110,2
2,62,0,352
2,61,110,32
2,61,0,190
2,59,110,2
2,59,0,94
2,64,110,674
2,64,0,574
2,64,110,2
2,64,0,94
2,69,110,2
2,69,0,94
2,64,110,2
2,66,110,0
2,64,0,94
2,66,0,0
2,69,110,2
2,69,0,336
2,69,110,48
2,69,0,94
2,64,110,2
2,64,0,190
2,64,110,2
2,64,0,190
2,62,110,2
2,62,0,352
2,61,110,32
2,61,0,256
4,71,60,0
4,71,0,46
4,73,60,2
4,73,0,46
4,73,60,2
4,73,0,46
4,73,60,2
4,73,0,142
4,73,60,2
4,73,0,142
4,73,60,2
4,73,0,46
4,73,60,2
4,73,0,94
4,73,60,2
4,73,0,160
4,71,60,32
4,71,0,46
4,73,60,2
4,73,0,94
4,73,60,2
4,73,0,142
4,74,60,2
4,74,0,190
4,74,60,2
4,74,0,94
4,73,60,2
4,73,0,94
4,67,60,2
4,79,60,0
4,67,0,46
4,79,0,0
4,67,60,2
4,79,60,0
4,67,0,46
4,79,0,0
4,67,60,2
4,79,60,0
4,67,0,142
4,79,0,0
4,67,60,2
4,79,60,0
4,67,0,46
4,79,0,0
4,66,60,98
4,78,60,0
4,66,0,256
4,78,0,0
4,66,60,32
4,78,60,0
4,66,0,160
4,78,0,0
4,67,60,32
4,79,60,0
4,67,0,142
4,79,0,0
4,67,60,2
4,79,60,0
4,67,0,46
4,79,0,0
4,66,60,98
4,78,60,0
4,66,0,142
4,78,0,0
4,66,60,2
4,78,60,0
4,66,0,46
4,78,0,0
4,66,60,2
4,78,60,0
4,66,0,94
4,78,0,0
4,66,60,2
4,78,60,0
4,66,0,160
4,78,0,0
4,71,60,32
4,71,0,46
4,73,60,2
4,73,0,46
4,73,60,2
4,73,0,46
4,73,60,2
4,73,0,142
4,73,60,2
4,73,0,142
4,73,60,2
4,73,0,46
4,73,60,2
4,73,0,94
4,73,60,2
4,73,0,160
4,71,60,32
4,71,0,46
4,73,60,2
4,73,0,94
4,73,60,2
4,73,0,142
4,74,60,2
4,74,0,190
4,74,60,2
4,74,0,94
4,73,60,2
4,73,0,94
4,67,60,2
4,79,60,0
4,67,0,46
4,79,0,0
4,67,60,2
4,79,60,0
4,67,0,46
4,79,0,0
4,67,60,2
4,79,60,0
4,67,0,142
4,79,0,0
4,67,60,2
4,79,60,0
4,67,0,46
4,79,0,0
4,66,60,98
4,78,60,0
4,66,0,256
4,78,0,0
4,66,60,32
4,78,60,0
4,66,0,160
4,78,0,0
4,67,60,32
4,79,60,0
4,67,0,142
4,79,0,0
4,67,60,2
4,79,60,0
4,67,0,46
4,79,0,0
4,66,60,98
4,78,60,0
4,66,0,142
4,78,0,0
4,66,60,2
4,78,60,0
4,66,0,46
4,78,0,0
4,66,60,2
4,78,60,0
4,66,0,94
4,78,0,0
4,66,60,2
4,78,60,0
4,66,0,160
4,78,0,0
4,71,60,32
4,71,0,46
4,73,60,2
4,73,0,46
4,73,60,2
4,73,0,46
4,73,60,2
4,73,0,142
4,73,60,2
4,73,0,142
4,73,60,2
4,73,0,46
