track,note,velocity,time
1,46,120,132480
1,53,120,0
1,58,120,0
1,58,120,0
1,53,120,0
1,46,120,0
1,58,120,0
1,53,120,0
1,46,120,0
1,58,120,0
1,53,120,0
1,46,120,0
1,58,120,0
1,53,120,0
1,46,120,0
1,58,120,0
1,53,120,0
1,46,120,0
1,58,120,0
1,53,120,0
1,46,120,0
1,58,120,0
1,53,120,0
1,46,120,0
1,56,120,0
1,51,120,0
1,44,120,0
1,56,120,0
1,51,120,0
1,44,120,0
1,56,120,0
1,51,120,0
1,44,120,0
1,56,120,0
1,51,120,0
1,44,120,0
1,56,120,0
1,51,120,0
1,44,120,0
1,56,120,0
1,51,120,0
1,44,120,0
1,56,120,0
1,51,120,0
1,44,120,0
1,56,120,0
1,51,120,0
1,44,120,0
1,53,120,0
1,48,120,0
1,41,120,0
1,53,120,0
1,48,120,0
1,41,120,0
1,53,120,0
1,48,120,0
1,41,120,0
1,53,120,0
1,48,120,0
1,41,120,0
1,53,120,0
1,48,120,0
1,41,120,0
1,53,120,0
1,48,120,0
1,41,120,0
1,53,120,0
1,48,120,0
1,41,120,0
1,53,120,0
1,48,120,0
1,41,120,0
1,53,120,0
1,48,120,0
1,41,120,0
1,53,120,0
1,48,120,0
1,41,120,0
1,53,120,0
1,48,120,0
1,41,120,0
1,53,120,0
1,48,120,0
1,41,120,0
1,53,120,0
1,48,120,0
1,41,120,0
1,53,120,0
1,48,120,0
1,41,120,0
1,53,120,0
1,48,120,0
1,41,120,0
1,53,120,0
1,48,120,0
1,41,120,0
1,46,120,0
1,53,120,0
1,58,120,0
1,58,120,0
1,53,120,0
1,46,120,0
1,58,120,0
1,53,120,0
1,46,120,0
1,58,120,0
1,53,120,0
1,46,120,0
1,58,120,0
1,53,120,0
1,46,120,0
1,58,120,0
1,53,120,0
1,46,120,0
1,58,120,0
1,53,120,0
1,46,120,0
1,58,120,0
1,53,120,0
1,46,120,0
1,56,120,0
1,51,120,0
1,44,120,0
1,56,120,0
1,51,120,0
1,44,120,0
1,56,120,0
1,51,120,0
1,44,120,0
1,56,120,0
1,51,120,0
1,44,120,0
1,56,120,0
1,51,120,0
1,44,120,0
1,56,120,0
1,51,120,0
1,44,120,0
1,56,120,0
1,51,120,0
1,44,120,0
1,56,120,0
1,51,120,0
1,44,120,0
1,53,120,0
1,48,120,0
1,41,120,0
1,53,120,0
1,48,120,0
1,41,120,0
1,53,120,0
1,48,120,0
1,41,120,0
1,53,120,0
1,48,120,0
1,41,120,0
1,53,120,0
1,48,120,0
1,41,120,0
1,53,120,0
1,48,120,0
1,41,120,0
1,53,120,0
1,48,120,0
1,41,120,0
1,53,120,0
1,48,120,0
1,41,120,0
1,53,120,0
1,48,120,0
1,41,120,0
1,53,120,0
1,48,120,0
1,41,120,0
1,53,120,0
1,48,120,0
1,41,120,0
1,53,120,0
1,48,120,0
1,41,120,0
1,53,120,0
1,48,120,0
1,41,120,0
1,53,120,0
1,48,120,0
1,41,120,0
1,53,120,0
1,48,120,0
1,41,120,0
1,53,120,0
1,48,120,0
1,41,120,0
1,41,120,0
1,48,120,0
1,53,120,0
1,53,120,0
1,48,120,0
1,41,120,0
1,53,120,0
1,48,120,0
1,41,120,0
1,53,120,0
1,48,120,0
1,41,120,0
1,53,120,0
1,48,120,0
1,41,120,0
1,53,120,0
1,48,120,0
1,41,120,0
1,53,120,0
1,48,120,0
1,41,120,0
1,53,120,0
1,48,120,0
1,41,120,0
1,44,120,0
1,51,120,0
1,56,120,0
1,51,120,0
1,44,120,0
1,56,120,0
1,44,120,0
1,51,120,0
1,56,120,0
1,56,120,0
1,51,120,0
1,44,120,0
1,56,120,0
1,51,120,0
1,44,120,0
1,56,120,0
1,51,120,0
1,44,120,0
1,56,120,0
1,51,120,0
1,44,120,0
1,56,120,0
1,51,120,0
1,44,120,0
1,44,120,0
1,51,120,0
1,56,120,0
1,58,120,0
1,53,120,0
1,46,120,0
1,58,120,0
1,53,120,0
1,46,120,0
1,58,120,0
1,53,120,0
1,46,120,0
1,58,120,0
1,53,120,0
1,46,120,0
1,58,120,0
1,53,120,0
1,46,120,0
1,58,120,0
1,53,120,0
1,46,120,0
1,58,120,0
1,53,120,0
1,46,120,0
1,58,120,0
1,53,120,0
1,46,120,0
1,46,120,0
1,53,120,0
1,58,120,0
1,58,120,0
1,53,120,0
1,46,120,0
1,58,120,0
1,53,120,0
1,46,120,0
1,58,120,0
1,53,120,0
1,46,120,0
1,58,120,0
1,53,120,0
1,46,120,0
1,58,120,0
1,53,120,0
1,46,120,0
1,58,120,0
1,53,120,0
1,46,120,0
1,53,120,0
1,48,120,0
1,41,120,0
1,53,120,0
1,48,120,0
1,41,120,0
1,53,120,0
1,48,120,0
1,41,120,0
1,53,120,0
1,48,120,0
1,41,120,0
1,53,120,0
1,48,120,0
1,41,120,0
1,53,120,0
1,48,120,0
1,41,120,0
1,53,120,0
1,48,120,0
1,41,120,0
1,53,120,0
1,48,120,0
1,41,120,0
1,44,120,0
1,51,120,0
1,56,120,0
1,51,120,0
1,44,120,0
1,56,120,0
1,44,120,0
1,51,120,0
1,56,120,0
1,56,120,0
1,51,120,0
1,44,120,0
1,56,120,0
1,51,120,0
1,44,120,0
1,56,120,0
1,51,120,0
1,44,120,0
1,56,120,0
1,51,120,0
1,44,120,0
1,56,120,0
1,51,120,0
1,44,120,0
1,44,120,0
1,51,120,0
1,56,120,0
1,58,120,0
1,53,120,0
1,46,120,0
1,58,120,0
1,53,120,0
1,46,120,0
1,58,120,0
1,53,120,0
1,46,120,0
1,58,120,0
1,53,120,0
1,46,120,0
1,58,120,0
1,53,120,0
1,46,120,0
1,58,120,0
1,53,120,0
1,46,120,0
1,58,120,0
1,53,120,0
1,46,120,0
1,58,120,0
1,53,120,0
1,46,120,0
1,46,120,0
1,53,120,0
1,58,120,0
1,58,120,0
1,53,120,0
1,46,120,0
1,58,120,0
1,53,120,0
1,46,120,0
1,58,120,0
1,53,120,0
1,46,120,0
1,58,120,0
1,53,120,0
1,46,120,0
1,58,120,0
1,53,120,0
1,46,120,0
1,58,120,0
1,53,120,0
1,46,120,0
1,53,120,0
1,48,120,0
1,41,120,0
1,53,120,0
1,48,120,0
1,41,120,0
1,53,120,0
1,48,120,0
1,41,120,0
1,53,120,0
1,48,120,0
1,41,120,0
1,53,120,0
1,48,120,0
1,41,120,0
1,53,120,0
1,48,120,0
1,41,120,0
1,53,120,0
1,48,120,0
1,41,120,0
1,53,120,0
1,48,120,0
1,41,120,0
1,44,120,0
1,51,120,0
1,56,120,0
1,51,120,0
1,44,120,0
1,56,120,0
1,44,120,0
1,51,120,0
1,56,120,0
1,56,120,0
1,51,120,0
1,44,120,0
1,56,120,0
1,51,120,0
1,44,120,0
1,56,120,0
1,51,120,0
1,44,120,0
1,56,120,0
1,51,120,0
1,44,120,0
1,56,120,0
1,51,120,0
1,44,120,0
1,44,120,0
1,51,120,0
1,56,120,0
1,58,120,0
1,53,120,0
1,46,120,0
1,58,120,0
1,53,120,0
1,46,120,0
1,58,120,0
1,53,120,0
1,46,120,0
1,58,120,0
1,53,120,0
1,46,120,0
1,58,120,0
1,53,120,0
1,46,120,0
1,58,120,0
1,53,120,0
1,46,120,0
1,58,120,0
1,53,120,0
1,46,120,0
1,58,120,0
1,53,120,0
1,46,120,0
1,46,120,0
1,53,120,0
1,58,120,0
1,58,120,0
1,53,120,0
1,46,120,0
1,58,120,0
1,53,120,0
1,46,120,0
1,58,120,0
1,53,120,0
1,46,120,0
1,58,120,0
1,53,120,0
1,46,120,0
1,58,120,0
1,53,120,0
1,46,120,0
1,58,120,0
1,53,120,0
1,46,120,0
1,53,120,0
1,48,120,0
1,41,120,0
1,53,120,0
1,48,120,0
1,41,120,0
1,53,120,0
1,48,120,0
1,41,120,0
1,53,120,0
1,48,120,0
1,41,120,0
1,53,120,0
1,48,120,0
1,41,120,0
1,53,120,0
1,48,120,0
1,41,120,0
1,53,120,0
1,48,120,0
1,41,120,0
1,53,120,0
1,48,120,0
1,41,120,0
1,44,120,0
1,51,120,0
1,56,120,0
1,51,120,0
1,44,120,0
1,56,120,0
1,44,120,0
1,51,120,0
1,56,120,0
1,56,120,0
1,51,120,0
1,44,120,0
1,56,120,0
1,51,120,0
1,44,120,0
1,56,120,0
1,51,120,0
1,44,120,0
1,56,120,0
1,51,120,0
1,44,120,0
1,56,120,0
1,51,120,0
1,44,120,0
1,44,120,0
1,51,120,0
1,56,120,0
1,58,120,0
1,53,120,0
1,46,120,0
1,58,120,0
1,53,120,0
1,46,120,0
1,58,120,0
1,53,120,0
1,46,120,0
1,58,120,0
1,53,120,0
1,46,120,0
1,58,120,0
1,53,120,0
1,46,120,0
1,58,120,0
1,53,120,0
1,46,120,0
1,58,120,0
1,53,120,0
1,46,120,0
1,58,120,0
1,53,120,0
1,46,120,0
1,46,120,0
1,53,120,0
1,58,120,0
1,58,120,0
1,53,120,0
1,46,120,0
1,58,120,0
1,53,120,0
1,46,120,0
1,58,120,0
1,53,120,0
1,46,120,0
1,58,120,0
1,53,120,0
1,46,120,0
1,58,120,0
1,53,120,0
1,46,120,0
1,58,120,0
1,53,120,0
1,46,120,0
1,53,120,0
1,48,120,0
1,41,120,0
1,53,120,0
1,48,120,0
1,41,120,0
1,53,120,0
1,48,120,0
1,41,120,0
1,53,120,0
1,48,120,0
1,41,120,0
1,53,120,0
1,48,120,0
1,41,120,0
1,53,120,0
1,48,120,0
1,41,120,0
1,53,120,0
1,48,120,0
1,41,120,0
1,53,120,0
1,48,120,0
1,41,120,0
1,44,120,0
1,51,120,0
1,56,120,0
1,51,120,0
1,44,120,0
1,56,120,0
1,44,120,0
1,51,120,0
1,56,120,0
1,56,120,0
1,51,120,0
1,44,120,0
1,56,120,0
1,51,120,0
1,44,120,0
1,56,120,0
1,51,120,0
1,44,120,0
1,56,120,0
1,51,120,0
1,44,120,0
1,56,120,0
1,51,120,0
1,44,120,0
1,44,120,0
1,51,120,0
1,56,120,0
1,58,120,0
1,53,120,0
1,46,120,0
1,58,120,0
1,53,120,0
1,46,120,0
1,58,120,0
1,53,120,0
1,46,120,0
1,58,120,0
1,53,120,0
1,46,120,0
1,58,120,0
1,53,120,0
1,46,120,0
1,58,120,0
1,53,120,0
1,46,120,0
1,58,120,0
1,53,120,0
1,46,120,0
1,58,120,0
1,53,120,0
1,46,120,0
1,46,120,0
1,53,120,0
1,58,120,0
1,58,120,0
1,53,120,0
1,46,120,0
1,58,120,0
1,53,120,0
1,46,120,0
1,58,120,0
1,53,120,0
1,46,120,0
1,58,120,0
1,53,120,0
1,46,120,0
1,58,120,0
1,53,120,0
1,46,120,0
1,58,120,0
1,53,120,0
1,46,120,0
1,46,120,46080
1,53,120,0
1,58,120,0
1,58,120,0
1,53,120,0
1,46,120,0
1,58,120,0
1,53,120,0
1,46,120,0
1,58,120,0
1,53,120,0
1,46,120,0
1,58,120,0
1,53,120,0
1,46,120,0
1,58,120,0
1,53,120,0
1,46,120,0
1,58,120,0
1,53,120,0
1,46,120,0
1,58,120,0
1,53,120,0
1,46,120,0
1,56,120,0
1,51,120,0
1,44,120,0
1,56,120,0
1,51,120,0
1,44,120,0
1,56,120,0
1,51,120,0
1,44,120,0
1,56,120,0
1,51,120,0
1,44,120,0
1,56,120,0
1,51,120,0
1,44,120,0
1,56,120,0
1,51,120,0
1,44,120,0
1,56,120,0
1,51,120,0
1,44,120,0
1,56,120,0
1,51,120,0
1,44,120,0
1,53,120,0
1,48,120,0
1,41,120,0
1,53,120,0
1,48,120,0
1,41,120,0
1,53,120,0
1,48,120,0
1,41,120,0
1,53,120,0
1,48,120,0
1,41,120,0
1,53,120,0
1,48,120,0
1,41,120,0
1,53,120,0
1,48,120,0
1,41,120,0
1,53,120,0
1,48,120,0
1,41,120,0
1,53,120,0
1,48,120,0
1,41,120,0
1,53,120,0
1,48,120,0
1,41,120,0
1,53,120,0
1,48,120,0
1,41,120,0
1,53,120,0
1,48,120,0
1,41,120,0
1,53,120,0
1,48,120,0
1,41,120,0
1,53,120,0
1,48,120,0
1,41,120,0
1,53,120,0
1,48,120,0
1,41,120,0
1,53,120,0
1,48,120,0
1,41,120,0
1,53,120,0
1,48,120,0
1,41,120,0
1,46,120,0
1,53,120,0
1,58,120,0
1,58,120,0
1,53,120,0
1,46,120,0
1,58,120,0
1,53,120,0
1,46,120,0
1,58,120,0
1,53,120,0
1,46,120,0
1,58,120,0
1,53,120,0
1,46,120,0
1,58,120,0
1,53,120,0
1,46,120,0
1,58,120,0
1,53,120,0
1,46,120,0
1,58,120,0
1,53,120,0
1,46,120,0
1,56,120,0
1,51,120,0
1,44,120,0
1,56,120,0
1,51,120,0
1,44,120,0
1,56,120,0
1,51,120,0
1,44,120,0
1,56,120,0
1,51,120,0
1,44,120,0
1,56,120,0
1,51,120,0
1,44,120,0
1,56,120,0
1,51,120,0
1,44,120,0
1,56,120,0
1,51,120,0
1,44,120,0
1,56,120,0
1,51,120,0
1,44,120,0
1,53,120,0
1,48,120,0
1,41,120,0
1,53,120,0
1,48,120,0
1,41,120,0
1,53,120,0
1,48,120,0
1,41,120,0
1,53,120,0
1,48,120,0
1,41,120,0
1,53,120,0
1,48,120,0
1,41,120,0
1,53,120,0
1,48,120,0
1,41,120,0
1,53,120,0
1,48,120,0
1,41,120,0
1,53,120,0
1,48,120,0
1,41,120,0
1,53,120,0
1,48,120,0
1,41,120,0
1,53,120,0
1,48,120,0
1,41,120,0
1,53,120,0
1,48,120,0
1,41,120,0
1,53,120,0
1,48,120,0
1,41,120,0
1,53,120,0
1,48,120,0
1,41,120,0
1,53,120,0
1,48,120,0
1,41,120,0
1,53,120,0
1,48,120,0
1,41,120,0
1,53,120,0
1,48,120,0
1,41,120,0
1,41,120,0
1,48,120,0
1,53,120,0
1,53,120,0
1,48,120,0
1,41,120,0
1,53,120,0
1,48,120,0
1,41,120,0
1,53,120,0
1,48,120,0
1,41,120,0
1,53,120,0
1,48,120,0
1,41,120,0
1,53,120,0
1,48,120,0
1,41,120,0
1,53,120,0
1,48,120,0
1,41,120,0
1,53,120,0
1,48,120,0
1,41,120,0
1,44,120,0
1,51,120,0
1,56,120,0
1,51,120,0
1,44,120,0
1,56,120,0
1,44,120,0
1,51,120,0
1,56,120,0
1,56,120,0
1,51,120,0
1,44,120,0
1,56,120,0
1,51,120,0
1,44,120,0
1,56,120,0
1,51,120,0
1,44,120,0
1,56,120,0
1,51,120,0
1,44,120,0
1,56,120,0
1,51,120,0
1,44,120,0
1,44,120,0
1,51,120,0
1,56,120,0
1,58,120,0
1,53,120,0
1,46,120,0
1,58,120,0
1,53,120,0
1,46,120,0
1,58,120,0
1,53,120,0
1,46,120,0
1,58,120,0
1,53,120,0
1,46,120,0
1,58,120,0
1,53,120,0
1,46,120,0
1,58,120,0
1,53,120,0
1,46,120,0
1,58,120,0
1,53,120,0
1,46,120,0
1,58,120,0
1,53,120,0
1,46,120,0
1,46,120,0
1,53,120,0
1,58,120,0
1,58,120,0
1,53,120,0
1,46,120,0
1,58,120,0
1,53,120,0
1,46,120,0
1,58,120,0
1,53,120,0
1,46,120,0
1,58,120,0
1,53,120,0
1,46,120,0
1,58,120,0
1,53,120,0
1,46,120,0
1,58,120,0
1,53,120,0
1,46,120,0
1,53,120,0
1,48,120,0
1,41,120,0
1,53,120,0
1,48,120,0
1,41,120,0
1,53,120,0
1,48,120,0
1,41,120,0
1,53,120,0
1,48,120,0
1,41,120,0
1,53,120,0
1,48,120,0
1,41,120,0
1,53,120,0
1,48,120,0
1,41,120,0
1,53,120,0
1,48,120,0
1,41,120,0
1,53,120,0
1,48,120,0
1,41,120,0
1,44,120,0
1,51,120,0
1,56,120,0
1,51,120,0
1,44,120,0
1,56,120,0
1,44,120,0
1,51,120,0
1,56,120,0
1,56,120,0
1,51,120,0
1,44,120,0
1,56,120,0
1,51,120,0
1,44,120,0
1,56,120,0
