track,note,velocity,time
1,38,109,0
1,38,109,8
1,38,109,8
1,38,109,0
1,38,109,0
1,38,109,8
1,38,109,8
1,38,109,8
1,38,109,8
1,38,109,8
1,38,109,8
1,41,109,8
1,41,109,8
1,41,109,8
1,41,109,8
1,41,109,8
1,41,109,8
1,41,109,8
1,41,109,8
1,43,109,8
1,43,109,8
1,43,109,8
1,43,109,8
1,43,109,8
1,43,109,8
1,43,109,8
1,43,109,8
1,44,109,8
1,44,109,8
1,44,109,8
1,44,109,8
1,43,109,8
1,43,109,8
1,43,109,8
1,38,109,8
1,38,109,8
1,38,109,8
1,38,109,0
1,38,109,0
1,38,109,8
1,38,109,8
1,38,109,8
1,38,109,8
1,38,109,8
1,38,109,8
1,41,109,8
1,41,109,8
1,41,109,8
1,41,109,8
1,41,109,8
1,41,109,8
1,41,109,8
1,41,109,8
1,43,109,8
1,43,109,8
1,43,109,8
1,43,109,8
1,43,109,8
1,43,109,8
1,43,109,8
1,43,109,8
1,44,109,8
1,44,109,8
1,44,109,8
1,44,109,8
1,43,109,8
1,43,109,8
1,43,109,8
1,38,109,0
1,38,109,24
1,38,109,8
1,38,109,0
1,38,109,0
1,38,109,8
1,38,109,8
1,38,109,8
1,38,109,8
1,38,109,8
1,38,109,8
1,41,109,8
1,41,109,8
1,41,109,8
1,41,109,8
1,41,109,8
1,41,109,8
1,41,109,8
1,41,109,8
1,43,109,8
1,43,109,8
1,43,109,8
1,43,109,8
1,43,109,8
1,43,109,8
1,43,109,8
1,43,109,8
1,44,109,8
1,44,109,8
1,44,109,8
1,44,109,8
1,43,109,8
1,43,109,8
1,43,109,8
1,38,109,8
1,38,109,24
1,38,109,8
1,38,109,0
1,38,109,0
1,38,109,8
1,38,109,8
1,38,109,8
1,38,109,8
1,38,109,8
1,38,109,8
1,41,109,8
1,41,109,8
1,41,109,8
1,41,109,8
1,41,109,8
1,41,109,8
1,41,109,8
1,41,109,8
1,43,109,8
1,43,109,8
1,43,109,8
1,43,109,8
1,43,109,8
1,43,109,8
1,43,109,8
1,43,109,8
1,44,109,8
1,44,109,8
1,44,109,8
1,44,109,8
1,43,109,8
1,43,109,8
1,43,109,8
1,38,109,8
1,38,109,8
1,38,109,8
1,38,109,0
1,38,109,0
1,38,109,8
1,38,109,8
1,38,109,8
1,38,109,8
1,38,109,8
1,38,109,8
1,41,109,8
1,41,109,8
1,41,109,8
1,41,109,8
1,41,109,8
1,41,109,8
1,41,109,8
1,41,109,8
1,43,109,8
1,43,109,8
1,43,109,8
1,43,109,8
1,43,109,8
1,43,109,8
1,43,109,8
1,43,109,8
1,44,109,8
1,44,109,8
1,44,109,8
1,44,109,8
1,43,109,8
1,43,109,8
1,43,109,8
1,38,109,8
1,38,109,8
1,38,109,8
1,38,109,0
1,38,109,0
1,38,109,8
1,38,109,8
1,38,109,8
1,38,109,8
1,38,109,8
1,38,109,8
1,41,109,8
1,41,109,8
1,41,109,8
1,41,109,8
1,41,109,8
1,41,109,8
1,41,109,8
1,41,109,8
1,43,109,8
1,43,109,8
1,43,109,8
1,43,109,8
1,43,109,8
1,43,109,8
1,43,109,8
1,43,109,8
1,44,109,8
1,44,109,8
1,44,109,8
1,44,109,8
1,43,109,8
1,43,109,8
1,43,109,8
1,38,109,8
1,38,109,8
1,38,109,8
1,38,109,0
1,38,109,0
1,38,109,8
1,38,109,8
1,38,109,8
1,38,109,8
1,38,109,8
1,38,109,8
1,41,109,8
1,41,109,8
1,41,109,8
1,41,109,8
1,41,109,8
1,41,109,8
1,41,109,8
1,41,109,8
1,43,109,8
1,43,109,8
1,43,109,8
1,43,109,8
1,43,109,8
1,43,109,8
1,43,109,8
1,43,109,8
1,44,109,8
1,44,109,8
1,44,109,8
1,44,109,8
1,43,109,8
1,43,109,8
1,43,109,8
1,38,109,8
1,38,109,8
1,38,109,8
1,38,109,0
1,38,109,0
1,38,109,8
1,38,109,8
1,38,109,8
1,38,109,8
1,38,109,8
1,38,109,8
1,41,109,8
1,41,109,8
1,41,109,8
1,41,109,8
1,41,109,8
1,41,109,8
1,41,109,8
1,41,109,8
1,43,109,8
1,43,109,8
1,43,109,8
1,43,109,8
1,43,109,8
1,43,109,8
1,43,109,8
1,43,109,8
1,44,109,8
1,44,109,8
1,44,109,8
1,44,109,8
1,43,109,8
1,43,109,8
1,43,109,8
1,38,109,8
1,38,109,8
1,38,109,8
1,38,109,0
1,38,109,0
1,38,109,8
1,38,109,8
1,38,109,8
1,38,109,8
1,38,109,8
1,38,109,8
1,41,109,8
1,41,109,8
1,41,109,8
1,41,109,8
1,41,109,8
1,41,109,8
1,41,109,8
1,41,109,8
1,43,109,8
1,43,109,8
1,43,109,8
1,43,109,8
1,43,109,8
1,43,109,8
1,43,109,8
1,43,109,8
1,44,109,8
1,44,109,8
1,44,109,8
1,44,109,8
1,43,109,8
1,43,109,8
1,43,109,8
1,38,109,8
1,38,109,8
1,38,109,8
1,38,109,0
1,38,109,0
1,38,109,8
1,38,109,8
1,38,109,8
1,38,109,8
1,38,109,8
1,38,109,8
1,41,109,8
1,41,109,8
1,41,109,8
1,41,109,8
1,41,109,8
1,41,109,8
1,41,109,8
1,41,109,8
1,43,109,8
1,43,109,8
1,43,109,8
1,43,109,8
1,43,109,8
1,43,109,8
1,43,109,8
1,43,109,8
1,44,109,8
1,44,109,8
1,44,109,8
1,44,109,8
1,43,109,8
1,43,109,8
1,43,109,8
1,38,109,8
1,38,109,8
1,38,109,8
1,38,109,0
1,38,109,0
1,38,109,8
1,38,109,8
1,38,109,8
1,38,109,8
1,38,109,8
1,38,109,8
1,41,109,8
1,41,109,8
1,41,109,8
1,41,109,8
1,41,109,8
1,41,109,8
1,41,109,8
1,41,109,8
1,43,109,8
1,43,109,8
1,43,109,8
1,43,109,8
1,43,109,8
1,43,109,8
1,43,109,8
1,43,109,8
1,44,109,8
1,44,109,8
1,44,109,8
1,44,109,8
1,43,109,8
1,43,109,8
1,43,109,8
1,38,109,8
1,38,109,8
1,38,109,8
1,38,109,0
1,38,109,0
1,38,109,8
1,38,109,8
1,38,109,8
1,38,109,8
1,38,109,8
1,38,109,8
1,41,109,8
1,41,109,8
1,41,109,8
1,41,109,8
1,41,109,8
1,41,109,8
1,41,109,8
1,41,109,8
1,43,109,8
1,43,109,8
1,43,109,8
1,43,109,8
1,43,109,8
1,43,109,8
1,43,109,8
1,43,109,8
1,44,109,8
1,44,109,8
1,44,109,8
1,44,109,8
1,43,109,8
1,43,109,8
1,43,109,8
1,38,109,8
1,38,109,8
1,38,109,8
1,38,109,0
1,38,109,0
1,38,109,8
1,38,109,8
1,38,109,8
1,38,109,8
1,38,109,8
1,38,109,8
1,41,109,8
1,41,109,8
1,41,109,8
1,41,109,8
1,41,109,8
1,41,109,8
1,41,109,8
1,41,109,8
1,43,109,8
1,43,109,8
1,43,109,8
1,43,109,8
1,43,109,8
1,43,109,8
1,43,109,8
1,43,109,8
1,44,109,8
1,44,109,8
1,44,109,8
1,44,109,8
1,43,109,8
1,43,109,8
1,43,109,8
1,38,109,8
1,38,109,8
1,38,109,8
1,38,109,0
1,38,109,0
1,38,109,8
1,38,109,8
1,38,109,8
1,38,109,8
1,38,109,8
1,38,109,8
1,41,109,8
1,41,109,8
1,41,109,8
1,41,109,8
1,41,109,8
1,41,109,8
1,41,109,8
1,41,109,8
1,43,109,8
1,43,109,8
1,43,109,8
1,43,109,8
1,43,109,8
1,43,109,8
1,43,109,8
1,43,109,8
1,44,109,8
1,44,109,8
1,44,109,8
1,44,109,8
1,43,109,8
1,43,109,8
1,43,109,8
1,38,109,8
1,38,109,8
1,38,109,8
1,38,109,0
1,38,109,0
1,38,109,8
1,38,109,8
1,38,109,8
1,38,109,8
1,38,109,8
1,38,109,8
1,41,109,8
1,41,109,8
1,41,109,8
1,41,109,8
1,41,109,8
1,41,109,8
1,41,109,8
1,41,109,8
1,43,109,8
1,43,109,8
1,43,109,8
1,43,109,8
1,43,109,8
1,43,109,8
1,43,109,8
1,43,109,8
1,44,109,8
1,44,109,8
1,44,109,8
1,44,109,8
1,43,109,8
1,43,109,8
1,43,109,8
1,38,109,8
1,38,109,8
1,38,109,8
1,38,109,0
1,38,109,0
1,38,109,8
1,38,109,8
1,38,109,8
1,38,109,8
1,38,109,8
1,38,109,8
1,41,109,8
1,41,109,8
1,41,109,8
1,41,109,8
1,41,109,8
1,41,109,8
1,41,109,8
1,41,109,8
1,43,109,8
1,43,109,8
1,43,109,8
1,43,109,8
1,43,109,8
1,43,109,8
1,43,109,8
1,43,109,8
1,44,109,8
1,44,109,8
1,44,109,8
1,44,109,8
1,43,109,8
1,43,109,8
1,43,109,8
1,38,64,8
1,48,64,8
1,50,64,8
1,38,64,8
1,48,64,8
1,50,64,8
1,38,64,8
1,48,64,8
1,50,64,8
1,38,64,8
1,48,64,8
1,50,64,8
1,38,64,8
1,48,64,8
1,50,64,8
1,38,64,8
1,38,64,8
1,48,64,8
1,47,64,8
1,38,64,8
1,48,64,8
1,47,64,8
1,38,64,8
1,48,64,8
1,47,64,8
1,38,64,8
1,48,64,8
1,47,64,8
1,38,64,8
1,48,64,8
1,47,64,8
1,38,64,8
1,38,64,8
1,43,64,8
1,45,64,8
1,38,64,8
1,43,64,8
1,45,64,8
1,38,64,8
1,43,64,8
1,45,64,8
1,38,64,8
1,43,64,8
1,45,64,8
1,38,64,8
1,43,64,8
1,45,64,8
1,38,64,8
1,38,64,8
1,43,64,8
1,41,64,8
1,38,64,8
1,43,64,8
1,41,64,8
1,38,64,8
1,43,64,8
1,41,64,8
1,38,64,8
1,43,64,8
1,41,64,8
1,38,64,8
1,43,64,8
1,41,64,8
1,38,64,8
1,38,64,8
1,38,64,0
1,48,64,8
1,50,64,8
1,38,64,8
1,38,64,0
1,48,64,8
1,50,64,8
1,38,64,8
1,38,64,0
1,48,64,8
1,50,64,8
1,38,64,8
1,38,64,0
1,48,64,8
1,50,64,8
1,38,64,8
1,38,64,0
1,48,64,8
1,50,64,8
1,38,64,8
1,38,64,0
1,38,64,8
1,38,64,0
1,48,64,8
1,47,64,8
1,38,64,8
1,38,64,0
1,48,64,8
1,47,64,8
1,38,64,8
1,38,64,0
1,48,64,8
1,47,64,8
1,38,64,8
1,38,64,0
1,48,64,8
1,47,64,8
1,38,64,8
1,38,64,0
1,48,64,8
1,47,64,8
1,38,64,8
1,38,64,0
1,38,64,8
1,38,64,0
1,43,64,8
1,45,64,8
1,38,64,8
1,38,64,0
1,43,64,8
1,45,64,8
1,38,64,8
1,38,64,0
1,43,64,8
1,45,64,8
1,38,64,8
1,38,64,0
1,43,64,8
1,45,64,8
1,38,64,8
1,38,64,0
1,43,64,8
1,45,64,8
1,38,64,8
1,38,64,0
1,38,64,8
1,38,64,0
1,43,64,8
1,41,64,8
1,38,64,8
1,38,64,0
1,43,64,8
1,41,64,8
1,38,64,8
1,38,64,0
1,43,64,8
1,41,64,8
1,38,64,8
1,38,64,0
1,43,64,8
1,41,64,8
1,38,64,8
1,38,64,0
1,43,64,8
1,41,64,8
1,38,64,8
1,38,64,0
1,38,109,8
1,38,109,8
1,38,109,8
1,38,109,0
1,38,109,0
1,38,109,8
1,38,109,8
1,38,109,8
1,38,109,8
1,38,109,8
1,38,109,8
1,41,109,8
1,41,109,8
1,41,109,8
1,41,109,8
1,41,109,8
1,41,109,8
1,41,109,8
1,41,109,8
1,43,109,8
1,43,109,8
1,43,109,8
1,43,109,8
1,43,109,8
1,43,109,8
1,43,109,8
1,43,109,8
1,44,109,8
1,44,109,8
1,44,109,8
1,44,109,8
1,43,109,8
1,43,109,8
1,43,109,8
1,38,109,8
1,38,109,8
1,38,109,8
1,38,109,0
1,38,109,0
1,38,109,8
1,38,109,8
1,38,109,8
1,38,109,8
1,38,109,8
1,38,109,8
1,41,109,8
1,41,109,8
1,41,109,8
1,41,109,8
1,41,109,8
1,41,109,8
1,41,109,8
1,41,109,8
1,43,109,8
1,43,109,8
1,43,109,8
1,43,109,8
1,43,109,8
1,43,109,8
1,43,109,8
1,43,109,8
1,44,109,8
1,44,109,8
1,44,109,8
1,44,109,8
1,43,109,8
1,43,109,8
1,43,109,8
1,38,109,8
1,38,109,8
1,38,109,8
1,38,109,0
1,38,109,0
1,38,109,8
1,38,109,8
1,38,109,8
1,38,109,8
1,38,109,8
1,38,109,8
1,41,109,8
1,41,109,8
1,41,109,8
1,41,109,8
1,41,109,8
1,41,109,8
1,41,109,8
1,41,109,0
1,43,109,8
1,43,109,8
1,43,109,8
1,43,109,8
1,43,109,8
1,43,109,8
1,43,109,8
1,43,109,8
1,44,109,8
1,44,109,8
1,44,109,8
1,44,109,8
1,43,109,8
1,43,109,8
1,43,109,8
1,38,109,8
1,38,109,8
1,38,109,8
1,38,109,0
1,38,109,0
1,38,109,8
1,38,109,8
1,38,109,8
1,38,109,8
1,38,109,8
1,38,109,8
1,41,109,8
1,41,109,8
1,41,109,8
1,41,109,8
1,41,109,8
1,41,109,8
1,41,109,8
1,41,109,8
1,43,109,8
1,43,109,8
1,43,109,8
1,43,109,8
1,43,109,8
1,43,109,8
1,43,109,8
1,43,109,8
1,44,109,8
1,44,109,8
1,44,109,8
1,44,109,8
1,43,109,8
1,43,109,8
1,43,109,8
1,38,109,0
1,38,109,8
1,38,109,8
1,38,109,0
1,38,109,0
1,38,109,8
1,38,109,8
1,38,109,8
1,38,109,8
1,38,109,8
1,38,109,8
1,41,109,8
1,41,109,8
1,41,109,8
1,41,109,8
1,41,109,8
1,41,109,8
1,41,109,8
1,41,109,8
1,43,109,8
1,43,109,8
1,43,109,8
1,43,109,8
1,43,109,8
1,43,109,8
1,43,109,8
1,43,109,8
1,44,109,8
1,44,109,8
1,44,109,8
1,44,109,8
1,43,109,8
1,43,109,8
1,43,109,8
1,38,109,8
1,38,109,8
1,38,109,8
1,38,109,0
1,38,109,0
1,38,109,8
1,38,109,8
1,38,109,8
1,38,109,8
1,38,109,8
1,38,109,8
1,41,109,8
1,41,109,8
1,41,109,8
1,41,109,8
1,41,109,8
1,41,109,8
1,41,109,8
1,41,109,8
1,43,109,8
1,43,109,8
1,43,109,8
1,43,109,8
1,43,109,8
1,43,109,8
1,43,109,8
1,43,109,8
1,44,109,8
1,44,109,8
1,44,109,8
1,44,109,8
1,43,109,8
1,43,109,8
1,43,109,8
1,38,109,8
1,38,109,8
1,38,109,8
1,38,109,0
1,38,109,0
1,38,109,8
1,38,109,8
1,38,109,8
1,38,109,8
1,38,109,8
1,38,109,8
1,41,109,8
1,41,109,8
1,41,109,8
1,41,109,8
1,41,109,8
1,41,109,8
1,41,109,8
1,41,109,8
1,43,109,8
1,43,109,8
1,43,109,8
1,43,109,8
1,43,109,8
1,43,109,8
1,43,109,8
1,43,109,8
1,44,109,8
1,44,109,8
1,44,109,8
1,44,109,8
1,43,109,8
1,43,109,8
1,43,109,8
1,38,109,8
1,38,109,8
1,38,109,8
1,38,109,0
1,38,109,0
1,38,109,8
1,38,109,8
1,38,109,8
1,38,109,8
1,38,109,8
1,38,109,8
1,41,109,8
1,41,109,8
1,41,109,8
1,41,109,8
1,41,109,8
1,41,109,8
1,41,109,8
1,41,109,8
1,43,109,8
1,43,109,8
1,43,109,8
1,43,109,8
1,43,109,8
1,43,109,8
1,43,109,8
1,43,109,8
1,44,109,8
1,44,109,8
1,44,109,8
1,44,109,8
1,43,109,8
1,43,109,8
1,43,109,8
1,38,109,8
1,38,109,8
1,38,109,8
1,38,109,0
1,38,109,0
1,38,109,8
1,38,109,8
1,38,109,8
1,38,109,8
1,38,109,8
1,38,109,8
1,41,109,8
1,41,109,8
1,41,109,8
1,41,109,8
1,41,109,8
1,41,109,8
1,41,109,8
1,41,109,8
1,43,109,8
1,43,109,8
1,43,109,8
1,43,109,8
1,43,109,8
1,43,109,8
1,43,109,8
1,43,109,8
1,44,109,8
1,44,109,8
1,44,109,8
1,44,109,8
1,43,109,8
