track,note,velocity,time
0,36,114,96
0,44,86,0
0,54,45,0
0,64,89,0
0,44,109,0
0,44,106,0
0,56,95,0
0,60,99,0
0,63,99,0
0,56,73,0
0,60,71,0
0,63,74,0
0,60,108,0
0,42,92,92
0,44,98,92
0,36,114,36
0,42,93,0
0,54,48,0
0,62,89,0
0,56,65,0
0,60,59,0
0,63,73,0
0,36,101,12
0,44,94,0
0,54,46,0
0,63,81,0
0,56,74,0
0,60,67,0
0,63,62,0
0,44,92,20
0,43,117,0
0,64,80,0
0,56,59,0
0,60,73,0
0,63,72,0
0,36,113,20
0,44,88,0
0,54,47,0
0,64,80,0
0,56,60,0
0,60,75,0
0,63,70,0
0,42,97,92
0,44,94,92
0,36,107,36
0,42,91,0
0,54,50,0
0,62,77,0
0,56,61,0
0,60,64,0
0,63,74,0
0,36,118,12
0,44,94,0
0,54,56,0
0,63,78,0
0,60,67,0
0,63,69,0
0,44,100,20
0,43,101,0
0,64,80,0
0,56,78,0
0,60,77,0
0,36,111,20
0,44,96,0
0,54,47,0
0,64,77,0
0,46,121,0
0,62,103,0
0,67,105,0
0,58,92,0
0,55,63,0
0,58,60,0
0,62,66,0
0,62,109,0
0,42,87,36
0,44,88,92
0,36,106,32
0,42,93,0
0,54,56,0
0,62,81,0
0,62,95,0
0,65,102,0
0,58,105,0
0,53,63,0
0,58,75,0
0,62,70,0
0,36,111,92
0,44,101,0
0,54,49,0
0,63,91,0
0,44,89,32
0,43,109,0
0,64,74,0
0,62,96,0
0,65,98,0
0,58,91,0
0,53,71,0
0,58,78,0
0,62,61,0
0,36,108,20
0,44,88,0
0,54,53,0
0,64,90,0
0,58,59,0
0,62,78,0
0,65,65,0
0,42,100,92
0,44,88,20
0,58,74,0
0,62,60,0
0,65,73,0
0,36,109,92
0,42,85,0
0,54,58,0
0,62,87,0
0,36,115,20
0,44,103,0
0,54,52,0
0,63,90,0
0,62,103,0
0,67,93,0
0,58,102,0
0,58,66,0
0,62,76,0
0,67,60,0
0,60,105,0
0,72,123,0
0,44,86,20
0,43,102,0
0,64,91,0
0,62,104,0
0,58,108,0
0,65,98,0
0,53,71,0
0,58,76,0
0,62,73,0
0,55,103,0
0,67,123,0
0,36,103,20
0,44,96,0
0,54,46,0
0,64,83,0
0,44,106,0
0,44,110,0
0,63,103,0
0,56,107,0
0,60,107,0
0,56,61,0
0,60,60,0
0,63,68,0
0,58,111,0
0,70,113,0
0,60,102,0
0,42,95,92
0,44,93,92
0,36,110,36
0,42,88,0
0,54,57,0
0,62,82,0
0,56,64,0
0,60,76,0
0,63,78,0
0,36,101,12
0,44,97,0
0,54,40,0
0,63,81,0
0,56,78,0
0,60,64,0
0,63,74,0
0,44,89,20
0,43,109,0
0,64,79,0
0,56,59,0
0,60,62,0
0,63,71,0
0,36,101,20
0,44,91,0
0,54,54,0
0,64,75,0
0,56,60,0
0,60,68,0
0,63,59,0
0,42,86,92
0,44,99,92
0,36,104,24
0,42,92,0
0,54,57,0
0,62,89,0
0,56,75,0
0,60,63,0
0,63,61,0
0,36,102,12
0,44,93,0
0,54,48,0
0,63,88,0
0,60,60,0
0,63,61,0
0,48,115,0
0,60,126,0
0,44,86,20
0,43,103,0
0,64,76,0
0,56,74,0
0,60,67,0
0,51,102,0
0,63,109,0
0,36,119,20
0,44,99,0
0,54,55,0
0,64,89,0
0,46,116,0
0,62,97,0
0,67,103,0
0,58,109,0
0,55,74,0
0,58,72,0
0,62,59,0
0,55,113,0
0,67,116,0
0,62,107,0
0,42,84,92
0,44,102,20
0,36,115,32
0,42,90,0
0,54,49,0
0,62,74,0
0,65,108,0
0,62,97,0
0,58,101,0
0,53,75,0
0,58,59,0
0,62,60,0
0,55,99,0
0,67,120,0
0,36,107,92
0,44,86,0
0,54,45,0
0,63,79,0
0,44,100,36
0,43,113,0
0,64,90,0
0,62,96,0
0,65,106,0
0,58,100,0
0,53,74,0
0,58,59,0
0,62,77,0
0,53,99,0
0,65,120,0
0,62,91,0
0,36,103,20
0,44,93,0
0,54,39,0
0,64,73,0
0,58,73,0
0,62,61,0
0,65,69,0
0,42,84,92
0,44,84,20
0,58,63,0
0,62,73,0
0,65,70,0
0,36,114,16
0,42,96,0
0,54,40,0
0,62,79,0
0,36,115,16
0,44,101,0
0,54,57,0
0,63,91,0
0,62,107,0
0,67,97,0
0,58,94,0
0,58,72,0
0,62,75,0
0,67,66,0
0,58,119,0
0,44,93,16
0,43,118,0
0,64,86,0
0,62,101,0
0,65,104,0
0,58,100,0
0,53,59,0
0,58,74,0
0,62,73,0
0,60,121,0
0,36,105,8
0,44,102,0
0,54,50,0
0,64,89,0
0,44,105,0
0,63,104,0
0,56,91,0
0,60,90,0
0,56,69,0
0,60,78,0
0,63,76,0
0,63,108,0
0,42,96,92
0,44,94,20
0,60,115,0
0,36,119,12
0,42,95,0
0,54,44,0
0,62,91,0
0,44,122,0
0,56,65,0
0,60,76,0
0,63,70,0
0,63,121,0
0,36,107,12
0,44,90,0
0,54,57,0
0,63,91,0
0,41,114,0
0,56,69,0
0,60,72,0
0,63,75,0
0,44,102,20
0,43,109,0
0,64,84,0
0,39,123,0
0,56,75,0
0,60,68,0
0,63,61,0
0,60,108,0
0,36,100,20
0,44,98,0
0,54,54,0
0,64,76,0
0,44,108,0
0,56,67,0
0,60,76,0
0,63,66,0
0,42,103,92
0,44,102,92
0,36,112,36
0,42,88,0
0,54,52,0
0,62,83,0
0,44,122,0
0,56,76,0
0,60,60,0
0,63,76,0
0,36,112,12
0,44,103,0
0,54,43,0
0,63,89,0
0,41,112,0
0,60,61,0
0,63,61,0
0,63,106,0
0,63,116,12
0,44,84,20
0,43,103,0
0,64,85,0
0,39,111,0
0,56,66,0
0,60,61,0
0,63,119,20
0,36,117,12
0,44,85,0
0,54,48,0
0,64,77,0
0,46,117,0
0,67,96,0
0,62,105,0
0,58,108,0
0,55,60,0
0,58,71,0
0,62,60,0
0,67,119,0
0,42,101,92
0,44,84,92
0,36,101,28
0,42,93,0
0,54,42,0
0,62,91,0
0,46,115,0
0,65,107,0
0,58,105,0
0,62,93,0
0,53,73,0
0,58,61,0
0,62,76,0
0,62,109,0
0,36,100,12
0,44,99,0
0,54,48,0
0,63,82,0
0,43,111,0
0,44,100,20
0,43,113,0
0,64,75,0
0,41,107,0
0,53,61,0
0,58,61,0
0,62,75,0
0,36,104,20
0,44,91,0
0,54,53,0
0,64,80,0
0,46,123,0
0,58,66,0
0,62,60,0
0,65,60,0
0,42,99,92
0,44,94,20
0,46,108,0
0,58,67,0
0,62,73,0
0,65,78,0
0,36,107,92
0,42,98,0
0,54,48,0
0,62,91,0
0,36,110,20
0,44,89,0
0,54,53,0
0,63,75,0
0,43,116,0
0,67,105,0
0,58,101,0
0,62,100,0
0,58,59,0
0,62,60,0
0,67,68,0
0,58,112,0
0,44,103,20
0,43,114,0
0,64,76,0
0,41,123,0
0,65,103,0
0,62,94,0
0,58,94,0
0,53,72,0
0,58,68,0
0,62,61,0
0,60,123,0
0,36,118,20
0,44,100,0
0,54,42,0
0,64,77,0
0,44,122,0
0,56,93,0
0,63,104,0
0,60,106,0
0,56,71,0
0,60,59,0
0,63,71,0
0,63,106,0
0,42,87,92
0,44,99,20
0,60,111,0
0,36,107,12
0,42,92,0
0,54,53,0
0,62,81,0
0,44,113,0
0,56,67,0
0,60,70,0
0,63,59,0
0,63,119,0
0,36,119,12
0,44,93,0
0,54,56,0
0,63,75,0
0,41,109,0
0,56,62,0
0,60,62,0
0,63,67,0
0,44,95,20
0,43,107,0
0,64,88,0
0,39,113,0
0,56,73,0
0,60,67,0
0,63,77,0
0,60,104,0
0,36,106,20
0,44,89,0
0,54,54,0
0,64,78,0
0,44,108,0
0,56,59,0
0,60,76,0
0,63,74,0
0,42,84,92
0,44,99,92
0,36,109,36
0,42,96,0
0,54,58,0
0,62,86,0
0,44,113,0
0,56,69,0
0,60,61,0
0,63,78,0
0,36,100,12
0,44,100,0
0,54,48,0
0,63,84,0
0,41,106,0
0,60,60,0
0,63,67,0
0,63,105,0
0,63,114,12
0,44,85,20
0,43,108,0
0,64,75,0
0,39,105,0
0,56,62,0
0,60,61,0
0,63,109,20
0,36,100,12
0,44,99,0
0,54,52,0
0,64,78,0
0,46,114,0
0,67,95,0
0,58,108,0
0,62,102,0
0,55,73,0
0,58,73,0
0,62,72,0
0,67,105,0
0,42,102,92
0,44,98,92
0,36,114,28
0,42,101,0
0,54,48,0
0,62,72,0
0,46,105,0
0,58,103,0
0,62,107,0
0,65,94,0
0,53,72,0
0,58,69,0
0,62,62,0
0,62,111,0
0,36,104,12
0,44,85,0
0,54,58,0
0,63,82,0
0,43,108,0
0,44,91,20
0,43,115,0
0,64,86,0
0,41,109,0
0,53,66,0
0,58,73,0
0,62,72,0
0,36,112,20
0,44,85,0
0,54,58,0
0,64,79,0
0,46,113,0
0,58,69,0
0,62,71,0
0,65,72,0
0,42,100,92
0,44,92,20
0,46,112,0
0,58,64,0
0,62,67,0
0,65,61,0
0,36,106,92
0,42,96,0
0,54,44,0
0,62,80,0
0,36,110,20
0,44,91,0
0,54,45,0
0,63,72,0
0,43,112,0
0,67,92,0
0,58,105,0
0,62,102,0
0,58,76,0
0,62,74,0
0,67,60,0
0,44,84,20
0,43,115,0
0,64,91,0
0,41,105,0
0,62,106,0
0,58,100,0
0,65,98,0
0,53,61,0
0,58,77,0
0,62,66,0
0,36,111,20
0,44,89,0
0,54,49,0
0,64,87,0
0,39,115,0
0,58,99,0
0,67,91,0
0,63,91,0
0,55,78,0
0,58,75,0
0,63,65,0
0,75,82,0
0,63,106,0
0,58,104,0
0,63,118,0
0,67,104,0
0,63,113,0
0,42,89,92
0,44,95,20
0,58,113,0
0,63,114,0
0,67,109,0
0,63,123,0
0,36,108,12
0,42,86,0
0,54,44,0
0,62,81,0
0,39,118,0
0,55,72,0
0,58,73,0
0,63,62,0
0,58,104,0
0,63,106,0
0,67,116,0
0,63,104,0
0,36,102,12
0,44,88,0
0,54,46,0
0,63,91,0
0,36,107,0
0,55,60,0
0,58,67,0
0,63,70,0
0,44,97,20
0,43,119,0
0,64,78,0
0,34,115,0
0,58,77,0
0,63,65,0
0,67,78,0
0,60,115,0
0,63,121,12
0,36,109,20
0,44,85,0
0,54,49,0
0,64,79,0
0,39,111,0
0,55,77,0
0,58,69,0
0,63,73,0
0,42,86,20
0,60,121,0
0,44,103,12
0,63,114,0
0,36,102,36
0,42,88,0
0,54,54,0
0,62,73,0
0,39,110,0
0,55,70,0
0,58,64,0
0,61,78,0
0,36,102,12
0,44,95,0
0,54,42,0
0,63,75,0
0,36,118,0
0,63,106,0
0,55,94,0
0,58,105,0
0,55,61,0
0,58,72,0
0,63,74,0
0,61,98,0
0,60,123,0
0,73,76,28
0,44,91,20
0,43,109,0
0,64,83,0
0,34,122,0
0,55,61,0
0,58,72,0
0,63,72,0
0,63,121,0
0,36,110,20
0,44,96,0
0,54,52,0
0,64,82,0
0,44,106,0
0,63,104,0
0,56,90,0
0,60,104,0
0,56,70,0
0,60,69,0
0,63,77,0
0,72,79,0
0,60,104,0
0,60,123,0
0,63,113,0
0,68,107,0
0,63,104,0
0,42,88,12
0,44,92,20
0,60,104,0
0,63,119,0
0,68,114,0
0,63,119,0
0,36,110,12
0,42,101,0
0,54,41,0
0,62,77,0
0,44,105,0
0,56,71,0
0,60,60,0
0,63,78,0
0,60,109,0
0,63,110,0
0,68,115,0
0,63,123,0
0,36,112,12
0,44,88,0
0,54,53,0
0,63,87,0
0,39,111,0
0,60,64,0
0,63,59,0
0,44,98,20
0,43,101,0
0,64,79,0
0,41,115,0
0,56,77,0
0,60,66,0
0,60,106,0
0,63,115,12
0,36,113,20
0,44,89,0
0,54,50,0
0,64,77,0
0,44,110,0
0,68,97,0
0,63,103,0
0,60,94,0
0,56,60,0
0,60,72,0
0,63,75,0
0,42,96,20
0,60,121,0
0,44,88,12
0,56,59,0
0,60,63,0
0,63,63,0
0,63,117,0
0,36,115,28
0,42,88,0
0,54,46,0
0,62,89,0
0,44,115,0
0,36,117,12
0,44,100,0
0,54,53,0
0,63,75,0
0,39,108,0
0,56,75,0
0,60,77,0
0,72,91,0
0,62,103,0
0,67,115,0
0,74,82,12
0,44,90,20
0,43,105,0
0,64,86,0
0,41,114,0
0,56,78,0
0,60,75,0
0,63,68,0
0,67,108,0
0,36,119,20
0,44,90,0
0,54,41,0
0,64,84,0
0,39,119,0
0,63,102,0
0,58,101,0
0,67,105,0
0,55,73,0
0,58,66,0
0,63,62,0
0,75,84,0
0,63,100,0
0,58,123,0
0,63,123,0
0,67,115,0
0,63,108,0
0,42,96,92
0,44,91,20
0,58,107,0
0,63,105,0
0,67,104,0
0,63,111,0
0,36,113,12
0,42,90,0
0,54,58,0
0,62,74,0
0,39,113,0
0,55,67,0
0,58,74,0
0,63,65,0
0,58,115,0
0,63,115,0
0,67,108,0
0,63,111,0
0,36,116,12
0,44,85,0
0,54,48,0
0,63,83,0
0,36,123,0
0,55,66,0
0,58,64,0
0,63,72,0
0,44,95,20
0,43,112,0
0,64,86,0
0,34,106,0
0,58,64,0
0,63,65,0
0,67,68,0
0,60,122,0
0,63,111,12
0,36,104,20
0,44,95,0
0,54,44,0
0,64,83,0
0,39,122,0
0,55,63,0
0,58,72,0
0,63,71,0
0,42,98,20
0,60,105,0
0,44,97,12
0,63,119,0
0,36,116,36
0,42,103,0
0,54,49,0
0,62,80,0
0,39,124,0
0,55,75,0
0,58,62,0
0,61,73,0
0,36,117,12
0,44,101,0
0,54,52,0
0,63,76,0
0,36,121,0
0,63,109,0
0,55,102,0
0,58,96,0
0,55,70,0
0,58,65,0
0,63,62,0
0,61,107,0
0,60,119,0
0,73,88,28
0,44,85,20
0,43,110,0
0,64,84,0
0,34,123,0
0,55,65,0
0,58,63,0
0,63,59,0
0,63,121,0
0,36,111,20
0,44,95,0
0,54,57,0
0,64,75,0
0,44,105,0
0,56,104,0
0,63,91,0
0,60,99,0
0,56,70,0
0,60,66,0
0,63,64,0
0,72,79,0
0,60,99,0
0,60,120,0
0,68,107,0
0,68,113,0
0,42,94,92
0,44,93,20
0,60,116,0
0,68,106,0
0,68,116,0
0,36,116,12
0,42,95,0
0,54,46,0
0,62,81,0
0,44,118,0
0,56,78,0
0,60,75,0
0,63,68,0
0,60,118,0
0,68,122,0
0,68,106,0
0,36,111,12
0,44,93,0
0,54,58,0
0,63,77,0
0,39,111,0
0,60,71,0
0,63,66,0
0,44,98,20
0,43,104,0
0,64,91,0
0,41,108,0
0,56,63,0
0,60,66,0
0,36,118,20
0,44,86,0
0,54,48,0
0,64,89,0
0,44,115,0
0,68,100,0
0,63,106,0
0,60,94,0
0,56,64,0
0,60,70,0
0,63,66,0
0,42,103,92
0,44,95,20
0,56,77,0
0,60,73,0
0,63,77,0
0,36,110,28
0,42,90,0
0,54,49,0
0,62,73,0
0,44,115,0
0,36,117,12
0,44,88,0
0,54,46,0
0,63,88,0
0,39,115,0
0,56,64,0
0,60,64,0
0,72,76,0
0,62,90,0
0,74,86,12
0,44,90,20
0,43,100,0
0,64,89,0
0,41,115,0
0,56,72,0
0,60,78,0
0,63,77,0
0,58,114,0
0,67,109,0
0,67,115,0
0,56,112,12
0,65,115,0
0,65,114,0
0,36,110,12
0,44,85,0
0,54,58,0
0,64,85,0
0,39,106,0
0,63,97,0
0,58,103,0
0,67,101,0
0,55,66,0
0,58,64,0
0,63,64,0
0,75,85,0
0,63,96,0
0,58,109,0
0,67,121,0
0,67,106,0
0,42,85,92
0,44,86,92
0,36,105,36
0,42,87,0
0,54,47,0
0,62,76,0
0,39,109,0
0,55,68,0
0,58,61,0
0,63,69,0
0,36,109,12
0,44,94,0
0,54,51,0
0,63,80,0
0,36,124,0
0,58,67,0
0,63,77,0
0,67,73,0
0,63,109,0
0,75,106,0
0,44,102,20
0,43,101,0
0,64,72,0
0,34,115,0
