track,note,velocity,time
1,31,127,0
1,43,127,0
1,31,127,573
1,29,119,84
1,27,127,52
1,26,127,48
1,50,127,548
1,38,127,48
1,29,119,112
1,30,100,0
1,31,108,36
1,31,127,532
1,31,127,52
1,43,127,0
1,29,119,144
1,27,127,0
1,26,127,20
1,45,84,132
1,48,80,68
1,29,119,308
1,30,108,0
1,31,127,32
1,43,119,528
1,31,127,36
1,29,108,148
1,27,119,36
1,26,127,52
1,26,127,688
1,29,127,164
1,30,108,0
1,31,119,20
1,43,100,532
1,31,127,68
1,29,119,164
1,27,119,36
1,26,127,36
1,45,100,132
1,33,119,16
1,45,127,20
1,34,127,0
1,33,127,0
1,36,119,48
1,37,119,208
1,38,127,160
1,39,127,0
1,39,91,285
1,39,100,64
1,38,127,132
1,39,89,192
1,39,100,276
1,39,119,160
1,39,100,244
1,39,84,64
1,29,127,128
1,30,108,4
1,31,119,20
1,38,100,260
1,39,100,20
1,39,127,672
1,38,127,500
1,39,91,32
1,29,127,164
1,29,119,96
1,30,108,16
1,31,108,80
1,29,119,480
1,34,100,48
1,39,108,132
1,38,119,512
1,39,91,32
1,39,91,464
1,39,108,144
1,39,100,192
1,29,119,112
1,30,100,32
1,31,127,96
1,39,119,324
1,38,127,484
1,39,100,32
1,39,108,164
1,39,89,0
1,34,108,128
1,39,76,20
1,38,119,96
1,36,100,16
1,36,127,128
1,34,119,96
1,33,127,0
1,37,100,0
1,38,127,20
1,43,127,32
1,31,127,573
1,29,119,84
1,27,127,52
1,26,127,52
1,50,127,548
1,38,127,48
1,29,119,112
1,30,100,0
1,31,108,36
1,31,127,532
1,31,127,48
1,43,127,0
1,29,119,148
1,27,127,0
1,26,127,20
1,45,84,132
1,48,80,64
1,29,119,308
1,30,108,0
1,31,127,32
1,43,119,528
1,31,127,36
1,29,108,148
1,27,119,36
1,26,127,52
1,26,127,688
1,29,127,164
1,30,108,0
1,31,119,20
1,43,100,532
1,31,127,64
1,29,119,164
1,27,119,36
1,26,127,36
1,45,100,132
1,33,119,16
1,45,127,20
1,34,127,4
1,33,127,0
1,36,119,52
1,37,119,208
1,38,127,160
1,39,127,0
1,39,91,285
1,39,100,64
1,38,127,128
1,39,89,192
1,39,100,276
1,39,119,164
1,39,100,240
1,39,84,64
1,29,127,128
1,30,108,4
1,31,119,20
1,38,100,260
1,39,100,20
1,39,127,672
1,38,127,500
1,39,91,32
1,29,127,164
1,29,119,96
1,30,108,16
1,31,108,80
1,29,119,480
1,34,100,48
1,39,108,132
1,38,119,516
1,39,91,32
1,39,91,464
1,39,108,144
1,39,100,192
1,29,119,112
1,30,100,32
1,31,127,96
1,39,119,324
1,38,127,480
1,39,100,32
1,39,108,164
1,39,89,0
1,34,108,132
1,39,76,16
1,38,119,96
1,36,100,16
1,36,127,128
1,34,119,96
1,33,127,0
1,37,100,0
1,38,127,20
1,43,127,32
1,39,91,420
1,39,100,64
1,38,127,128
1,39,89,192
1,39,100,276
1,39,119,160
1,39,100,240
1,39,84,64
1,29,127,128
1,30,108,4
1,31,119,16
1,38,100,260
1,39,100,20
1,39,127,672
1,38,127,500
1,39,91,32
1,29,127,164
1,29,119,96
1,30,108,16
1,31,108,80
1,29,119,480
1,34,100,48
1,39,108,132
1,38,119,512
1,39,91,32
1,39,91,468
1,39,108,144
1,39,100,196
1,29,119,112
1,30,100,32
1,31,127,96
1,39,119,324
1,38,127,484
1,39,100,32
1,39,108,164
1,39,89,0
1,34,108,132
1,39,76,20
1,38,119,96
1,36,100,20
1,36,127,128
1,34,119,96
1,33,127,0
1,37,100,0
1,38,127,16
1,43,127,32
1,31,127,573
1,29,119,84
1,27,127,52
1,26,127,52
1,50,127,548
1,38,127,48
1,29,119,112
1,30,100,0
1,31,108,36
1,31,127,532
1,31,127,48
1,43,127,0
1,29,119,148
1,27,127,0
1,26,127,20
1,45,84,132
1,48,80,64
1,29,119,308
1,30,108,0
1,31,127,32
1,43,119,528
1,31,127,36
1,29,108,148
1,27,119,36
1,26,127,52
1,26,127,688
1,29,127,164
1,30,108,0
1,31,119,20
1,43,100,532
1,31,127,68
1,29,119,164
1,27,119,36
1,26,127,36
1,45,100,132
1,33,119,16
1,45,127,20
1,33,127,4
1,36,119,48
1,37,119,208
1,38,127,160
1,31,127,573
1,29,119,84
1,27,127,48
1,26,127,52
1,50,127,548
1,38,127,48
1,29,119,112
1,30,100,0
1,31,108,36
1,31,127,532
1,31,127,48
1,43,127,0
1,29,119,148
1,27,127,0
1,26,127,20
1,45,84,132
1,48,80,64
1,29,119,308
1,30,108,0
1,31,127,32
1,43,119,528
1,31,127,36
1,29,108,144
1,27,119,36
1,26,127,52
1,26,127,688
1,29,127,164
1,30,108,0
1,31,119,20
1,43,100,532
1,31,127,64
1,29,119,164
1,27,119,36
1,26,127,36
1,45,100,132
1,33,119,16
1,45,127,20
1,33,127,4
1,36,119,48
1,37,119,208
1,38,127,164
1,39,91,285
1,39,100,64
1,38,127,128
1,39,89,192
1,39,100,276
1,39,119,160
1,39,100,240
1,39,84,64
1,29,127,128
1,30,108,4
1,31,119,16
1,38,100,260
1,39,100,20
1,39,127,676
1,38,127,500
1,39,91,32
1,29,127,164
1,29,119,96
1,30,108,16
1,31,108,80
1,29,119,480
1,34,100,48
1,39,108,132
1,38,119,516
1,39,91,32
1,39,91,464
1,39,108,144
1,39,100,192
1,29,119,112
1,30,100,29
1,31,127,96
1,39,119,324
1,38,127,480
1,39,100,32
1,39,108,164
1,39,89,0
1,34,108,132
1,39,76,20
1,38,119,96
1,36,100,16
1,36,127,128
1,34,119,96
1,33,127,0
1,37,100,0
1,38,127,20
1,43,127,32
1,39,91,420
1,39,100,64
1,38,127,128
1,39,89,192
1,39,100,276
1,39,119,160
1,39,100,240
1,39,84,64
1,29,127,128
1,30,108,4
1,31,119,20
1,38,100,260
1,39,100,20
1,39,127,676
1,38,127,500
1,39,91,32
1,29,127,164
1,29,119,96
1,30,108,16
1,31,108,80
1,29,119,480
1,34,100,48
1,39,108,132
1,38,119,516
1,39,91,32
1,39,91,464
1,39,108,144
1,39,100,192
1,29,119,116
1,30,100,32
1,31,127,96
1,39,119,324
1,38,127,480
1,39,100,32
1,39,108,164
1,39,89,0
1,34,108,132
1,39,76,20
1,38,119,96
1,36,100,16
1,36,127,128
1,34,119,96
1,33,127,0
1,37,100,0
1,38,127,20
1,43,127,36
1,31,127,573
1,29,119,84
1,27,127,48
1,26,127,52
1,50,127,548
1,38,127,48
1,29,119,112
1,30,100,0
1,31,108,36
1,31,127,532
1,31,127,48
1,43,127,0
1,29,119,148
1,27,127,0
1,26,127,20
1,45,84,132
1,48,80,64
1,29,119,308
1,30,108,0
1,31,127,20
1,43,119,516
1,31,127,32
1,29,108,144
1,27,119,36
1,26,127,52
1,26,127,688
1,29,127,164
1,30,108,0
1,31,119,20
1,43,100,532
1,31,127,64
1,29,119,164
1,27,119,36
1,26,127,36
1,45,100,132
1,33,119,16
1,45,127,20
1,34,127,192
1,33,127,0
1,36,119,48
1,37,119,196
1,38,127,160
1,31,127,573
1,29,119,84
1,27,127,48
1,26,127,52
1,50,127,548
1,38,127,48
1,29,119,112
1,30,100,0
1,31,108,36
1,31,127,532
1,31,127,48
1,43,127,0
1,29,119,144
1,27,127,0
1,26,127,20
1,45,84,132
1,48,80,64
1,29,119,308
1,30,108,0
1,31,127,20
1,43,119,516
1,31,127,32
1,29,108,144
1,27,119,36
1,26,127,52
1,26,127,688
1,29,127,164
1,30,108,0
1,31,119,20
1,43,100,532
1,31,127,64
1,29,119,164
1,27,119,36
1,26,127,36
1,45,100,132
1,33,119,16
1,45,127,20
1,34,127,192
1,33,127,0
1,36,119,48
1,37,119,196
1,38,127,160
1,39,91,285
1,39,100,64
1,38,127,128
1,39,89,192
1,39,100,276
1,39,119,160
1,39,100,240
1,39,84,64
1,29,127,128
1,30,108,4
1,31,119,16
1,38,100,260
1,39,100,20
1,39,127,676
1,38,127,500
1,39,91,36
1,29,127,164
1,29,119,96
1,30,108,16
1,31,108,80
1,29,119,480
1,34,100,48
1,39,108,132
1,38,119,512
1,39,91,32
1,39,91,464
1,39,108,144
1,39,100,196
1,29,119,112
1,30,100,32
1,31,127,96
1,39,119,324
1,38,127,480
1,39,100,36
1,39,108,164
1,39,89,0
1,34,108,128
1,39,76,16
1,38,119,96
1,36,100,16
1,36,127,128
1,34,119,96
1,33,127,0
1,37,100,0
1,38,127,16
1,43,127,32
1,39,91,420
1,39,100,64
1,38,127,128
1,39,89,192
1,39,100,276
1,39,119,160
1,39,100,240
1,39,84,64
1,29,127,128
1,30,108,0
1,31,119,20
1,38,100,256
1,39,100,20
1,39,127,672
1,38,127,496
1,39,91,32
1,29,127,164
1,29,119,93
1,30,108,16
1,31,108,80
1,29,119,480
1,34,100,48
1,39,108,132
1,38,119,512
1,39,91,32
1,39,91,468
1,39,108,144
1,39,100,196
1,29,119,112
1,30,100,32
1,31,127,96
1,39,119,324
1,38,127,480
1,39,100,32
1,39,108,164
1,39,89,0
1,34,108,128
1,39,76,20
1,38,119,96
1,36,100,16
1,36,127,128
1,34,119,96
1,33,127,0
1,37,100,0
1,38,127,16
1,43,127,32
1,31,127,573
1,29,119,84
1,27,127,52
1,26,127,52
1,50,127,548
1,38,127,48
1,29,119,112
1,30,100,0
1,31,108,36
1,31,127,532
1,31,127,52
1,43,127,0
1,29,119,148
1,27,127,0
1,26,127,20
1,45,84,132
1,48,80,64
1,29,119,304
1,30,108,0
1,31,127,32
1,43,119,528
1,31,127,36
1,29,108,148
1,27,119,36
1,26,127,52
1,26,127,688
1,29,127,164
1,30,108,0
1,31,119,20
1,43,100,532
1,31,127,68
1,29,119,164
1,27,119,36
1,26,127,36
1,45,100,132
1,33,119,16
1,45,127,20
1,34,127,0
1,33,127,0
1,36,119,48
1,37,119,208
1,38,127,160
1,39,127,0
1,31,127,573
1,29,119,84
1,27,127,52
1,26,127,52
1,50,127,548
1,38,127,48
1,29,119,112
1,30,100,0
1,31,108,36
1,31,127,532
1,31,127,48
1,43,127,0
1,29,119,144
1,27,127,4
1,26,127,20
1,45,84,132
1,48,80,64
1,29,119,308
1,30,108,4
1,31,127,20
1,43,119,516
1,31,127,32
1,29,108,148
1,27,119,36
1,26,127,52
1,26,127,688
1,29,127,164
1,30,108,0
1,31,119,20
1,43,100,532
1,31,127,64
1,29,119,164
1,27,119,36
1,26,127,36
1,45,100,132
1,33,119,16
1,45,127,20
1,34,127,192
1,33,127,0
1,36,119,52
1,37,119,196
1,38,127,160
1,36,127,6685
1,38,127,20
1,39,91,285
1,39,100,64
1,38,127,128
1,39,89,192
1,39,100,276
1,39,119,160
1,39,100,240
1,39,84,64
1,29,127,128
1,30,108,4
1,31,119,20
1,38,100,260
1,39,100,20
1,39,127,672
1,38,127,500
1,39,91,32
1,29,127,164
1,29,119,96
1,30,108,16
1,31,108,80
1,29,119,480
1,34,100,52
1,39,108,132
1,38,119,512
1,39,91,32
1,39,91,464
1,39,108,144
1,39,100,192
1,29,119,112
1,30,100,32
1,31,127,100
1,39,119,324
1,38,127,480
1,39,100,32
1,39,108,164
1,39,89,0
1,34,108,132
1,39,76,20
1,38,119,96
1,36,100,16
1,36,127,128
1,34,119,96
1,33,127,0
1,37,100,0
1,38,127,16
1,43,127,32
1,39,91,420
1,39,100,68
1,38,127,128
1,39,89,192
1,39,100,276
1,39,119,160
1,39,100,240
1,39,84,64
1,29,127,128
1,30,108,4
1,31,119,16
1,38,100,260
1,39,100,20
1,39,127,672
1,38,127,500
1,39,91,32
1,29,127,164
1,29,119,96
1,30,108,16
1,31,108,80
1,29,119,480
1,34,100,48
1,39,108,132
1,38,119,516
1,39,91,32
1,39,91,464
1,39,108,144
1,39,100,192
1,29,119,112
1,30,100,32
1,31,127,96
1,39,119,324
1,38,127,480
1,39,100,32
1,39,108,164
1,39,89,0
1,34,108,128
1,39,76,20
1,38,119,96
1,36,100,16
1,36,127,128
1,34,119,96
1,33,127,0
1,37,100,0
1,38,127,20
1,43,127,32
1,43,108,132
1,38,108,7
1,31,127,96
2,43,127,0
2,55,127,0
2,43,127,573
2,41,119,84
2,39,127,52
2,38,127,48
2,62,127,548
2,50,127,48
2,41,119,112
2,42,100,0
2,43,108,36
2,43,127,532
2,43,127,52
2,55,127,0
2,41,119,144
2,39,127,0
2,38,127,20
2,57,84,132
2,60,80,68
2,41,119,308
2,42,108,0
2,43,127,32
2,55,119,528
2,43,127,36
2,41,108,148
2,39,119,36
2,38,127,52
2,38,127,688
2,41,127,164
2,42,108,0
2,43,119,20
2,55,100,532
2,43,127,68
2,41,119,164
2,39,119,36
2,38,127,36
2,57,100,132
2,45,119,16
2,57,127,20
2,46,127,0
2,45,127,0
2,48,119,48
2,49,119,208
2,50,127,160
2,51,127,0
2,51,91,285
2,51,100,64
2,50,127,132
2,51,89,192
2,51,100,276
2,51,119,160
2,51,100,244
2,51,84,64
2,41,127,128
2,42,108,4
2,43,119,20
2,50,100,260
2,51,100,20
2,51,127,672
2,50,127,500
2,51,91,32
2,41,127,164
2,41,119,96
2,42,108,16
2,43,108,80
2,41,119,480
2,46,100,48
2,51,108,132
2,50,119,512
2,51,91,32
2,51,91,464
2,51,108,144
2,51,100,192
2,41,119,112
2,42,100,32
2,43,127,96
2,51,119,324
2,50,127,484
2,51,100,32
2,51,108,164
2,51,89,0
2,46,108,128
2,51,76,20
2,50,119,96
2,48,100,16
2,48,127,128
2,46,119,96
2,45,127,0
2,49,100,0
2,50,127,20
2,55,127,32
2,43,127,573
2,41,119,84
2,39,127,52
2,38,127,52
2,62,127,548
2,50,127,48
2,41,119,112
2,42,100,0
2,43,108,36
2,43,127,532
2,43,127,48
2,55,127,0
2,41,119,148
2,39,127,0
2,38,127,20
2,57,84,132
2,60,80,64
2,41,119,308
2,42,108,0
2,43,127,32
2,55,119,528
2,43,127,36
2,41,108,148
2,39,119,36
2,38,127,52
2,38,127,688
2,41,127,164
2,42,108,0
2,43,119,20
2,55,100,532
2,43,127,64
2,41,119,164
2,39,119,36
2,38,127,36
2,57,100,132
2,45,119,16
2,57,127,20
2,46,127,4
2,45,127,0
2,48,119,52
2,49,119,208
2,50,127,160
2,51,127,0
2,51,91,285
2,51,100,64
2,50,127,128
2,51,89,192
2,51,100,276
2,51,119,164
2,51,100,240
2,51,84,64
2,41,127,128
2,42,108,4
2,43,119,20
2,50,100,260
2,51,100,20
2,51,127,672
2,50,127,500
2,51,91,32
2,41,127,164
2,41,119,96
2,42,108,16
2,43,108,80
2,41,119,480
2,46,100,48
2,51,108,132
2,50,119,516
2,51,91,32
2,51,91,464
2,51,108,144
2,51,100,192
2,41,119,112
2,42,100,32
2,43,127,96
2,51,119,324
2,50,127,480
2,51,100,32
2,51,108,164
2,51,89,0
2,46,108,132
2,51,76,16
2,50,119,96
2,48,100,16
2,48,127,128
2,46,119,96
2,45,127,0
2,49,100,0
2,50,127,20
2,55,127,32
2,51,91,420
2,51,100,64
2,50,127,128
2,51,89,192
2,51,100,276
2,51,119,160
2,51,100,240
2,51,84,64
2,41,127,128
2,42,108,4
2,43,119,16
2,50,100,260
2,51,100,20
2,51,127,672
2,50,127,500
2,51,91,32
2,41,127,164
2,41,119,96
2,42,108,16
2,43,108,80
2,41,119,480
2,46,100,48
2,51,108,132
2,50,119,512
2,51,91,32
2,51,91,468
2,51,108,144
2,51,100,196
2,41,119,112
2,42,100,32
2,43,127,96
2,51,119,324
2,50,127,484
2,51,100,32
2,51,108,164
2,51,89,0
2,46,108,132
2,51,76,20
2,50,119,96
2,48,100,20
2,48,127,128
2,46,119,96
2,45,127,0
2,49,100,0
2,50,127,16
2,55,127,32
2,43,127,573
2,41,119,84
2,39,127,52
2,38,127,52
2,62,127,548
2,50,127,48
2,41,119,112
2,42,100,0
2,43,108,36
2,43,127,532
2,43,127,48
2,55,127,0
2,41,119,148
2,39,127,0
2,38,127,20
2,57,84,132
