track,note,velocity,time
1,30,127,0
1,30,127,436
1,28,127,800
1,28,127,80
1,28,127,256
1,26,127,816
1,26,127,436
1,28,127,48
1,28,127,384
1,30,127,48
1,30,127,80
1,30,127,272
1,30,127,800
1,28,127,52
1,26,127,100
1,26,127,448
1,28,127,32
1,28,127,436
1,30,127,48
1,30,127,112
1,30,127,244
1,30,127,752
1,42,127,0
1,30,127,407
1,42,127,0
1,28,127,784
1,40,127,0
1,28,127,68
1,40,127,0
1,28,127,224
1,40,127,0
1,26,127,784
1,38,127,0
1,26,127,416
1,38,127,0
1,28,127,48
1,40,127,0
1,28,127,416
1,40,127,0
1,30,127,48
1,42,127,0
1,30,127,80
1,42,127,0
1,30,127,212
1,42,127,0
1,40,127,576
1,28,127,0
1,30,127,16
1,42,127,0
1,30,127,400
1,42,127,0
1,28,127,784
1,40,127,0
1,40,127,64
1,28,127,0
1,28,127,228
1,40,127,0
1,26,127,788
1,38,127,0
1,26,127,416
1,38,127,0
1,40,127,48
1,28,127,0
1,28,127,416
1,40,127,0
1,42,127,52
1,30,127,0
1,30,127,84
1,42,127,0
1,30,127,208
1,42,127,0
1,40,127,580
1,28,127,0
1,30,127,20
1,42,127,0
1,30,127,432
1,42,127,0
1,28,127,788
1,40,127,0
1,28,127,68
1,40,127,0
1,28,127,224
1,40,127,0
1,26,127,784
1,38,127,0
1,26,127,420
1,38,127,0
1,28,127,48
1,40,127,0
1,28,127,416
1,40,127,0
1,30,127,48
1,42,127,0
1,30,127,84
1,42,127,0
1,30,127,212
1,42,127,0
1,40,127,576
1,28,127,0
1,30,127,20
1,42,127,0
1,30,127,426
1,42,127,0
1,28,127,784
1,40,127,0
1,28,127,68
1,40,127,0
1,28,127,224
1,40,127,0
1,26,127,784
1,38,127,0
1,26,127,416
1,38,127,0
1,28,127,48
1,40,127,0
1,28,127,416
1,40,127,0
1,30,127,48
1,42,127,0
1,30,127,84
1,42,127,0
1,30,127,212
1,42,127,0
1,40,127,576
1,28,127,0
1,30,127,16
1,30,127,432
1,28,127,336
1,28,127,116
1,28,127,288
1,26,127,160
1,26,127,464
1,28,127,48
1,28,127,432
1,30,127,68
1,30,127,96
1,30,127,288
1,30,127,128
1,30,127,420
1,28,127,340
1,28,127,116
1,28,127,292
1,26,127,164
1,26,127,461
1,28,127,52
1,28,127,436
1,30,127,64
1,30,127,96
1,30,127,292
1,30,127,132
1,42,127,0
1,30,127,407
1,42,127,0
1,40,127,784
1,28,127,0
1,28,127,64
1,40,127,0
1,28,127,224
1,40,127,0
1,26,127,784
1,38,127,0
1,26,127,416
1,38,127,0
1,28,127,48
1,40,127,0
1,28,127,416
1,40,127,0
1,30,127,48
1,42,127,0
1,30,127,80
1,42,127,0
1,30,127,212
1,42,127,0
1,40,127,576
1,28,127,0
1,30,127,16
1,42,127,0
1,30,127,400
1,42,127,0
1,40,127,784
1,28,127,0
1,28,127,64
1,40,127,0
1,28,127,224
1,40,127,0
1,26,127,784
1,38,127,0
1,26,127,420
1,38,127,0
1,28,127,48
1,40,127,0
1,28,127,416
1,40,127,0
1,30,127,52
1,42,127,0
1,30,127,80
1,42,127,0
1,30,127,212
1,42,127,0
1,40,127,576
1,28,127,0
1,30,127,16
1,42,127,0
1,30,127,432
1,42,127,0
1,28,127,784
1,40,127,0
1,28,127,64
1,40,127,0
1,28,127,224
1,40,127,0
1,26,127,784
1,38,127,0
1,26,127,420
1,38,127,0
1,28,127,48
1,40,127,0
1,28,127,416
1,40,127,0
1,30,127,48
1,42,127,0
1,30,127,84
1,42,127,0
1,30,127,212
1,42,127,0
1,40,127,576
1,28,127,0
1,30,127,16
1,42,127,0
1,30,127,432
1,42,127,0
1,28,127,784
1,40,127,0
1,28,127,68
1,40,127,0
1,28,127,224
1,40,127,0
1,26,127,784
1,38,127,0
1,26,127,416
1,38,127,0
1,28,127,48
1,40,127,0
1,28,127,420
1,40,127,0
1,30,127,48
1,42,127,0
1,30,127,80
1,42,127,0
1,30,127,212
1,42,127,0
1,40,127,576
1,28,127,0
1,30,127,16
1,30,127,432
1,28,127,336
1,28,127,112
1,28,127,288
1,26,127,164
1,26,127,464
1,28,127,48
1,28,127,432
1,30,127,68
1,30,127,96
1,30,127,288
1,30,127,128
1,30,127,416
1,28,127,340
1,28,127,112
1,28,127,292
1,26,127,164
1,26,127,464
1,28,127,52
1,28,127,436
1,30,127,68
1,30,127,96
1,30,127,292
1,30,127,132
1,42,127,0
1,30,127,368
1,42,127,0
1,42,127,772
1,30,127,0
1,30,127,400
1,42,127,0
1,30,127,784
1,42,127,0
1,42,127,384
1,30,127,0
1,42,127,768
1,30,127,0
1,30,127,416
1,42,127,0
1,30,127,800
1,42,127,0
1,30,127,352
1,42,127,0
1,42,127,768
1,30,127,0
1,30,127,400
1,42,127,0
1,30,127,784
1,42,127,0
1,42,127,384
1,30,127,0
1,42,127,768
1,30,127,0
1,30,127,416
1,42,127,0
1,30,127,800
1,42,127,0
1,30,127,356
1,42,127,0
1,35,127,384
1,33,127,0
1,42,127,32
1,30,127,0
1,30,127,400
1,42,127,0
1,30,127,788
1,42,127,0
1,42,127,384
1,30,127,0
1,35,127,384
1,33,127,0
1,42,127,16
1,30,127,0
1,30,127,420
1,42,127,0
1,30,127,800
1,42,127,0
1,30,127,352
1,42,127,0
1,35,127,388
1,33,127,4
1,42,127,36
1,30,127,0
1,30,127,400
1,42,127,0
1,30,127,784
1,42,127,0
1,42,127,388
1,30,127,0
1,35,127,384
1,33,127,288
1,42,127,32
1,30,127,0
1,30,127,416
1,42,127,0
1,30,127,800
1,30,127,432
1,28,127,336
1,28,127,112
1,28,127,288
1,26,127,164
1,26,127,464
1,28,127,48
1,28,127,432
1,30,127,68
1,30,127,96
1,30,127,292
1,30,127,128
1,30,127,416
1,28,127,336
1,28,127,112
1,28,127,292
1,26,127,164
1,26,127,464
1,28,127,48
1,28,127,436
1,30,127,64
1,30,127,96
1,30,127,292
1,42,127,132
1,42,127,423
1,47,127,448
1,45,127,288
1,42,127,0
1,42,127,448
1,42,127,800
1,42,127,432
1,47,127,416
1,45,127,288
1,42,127,80
1,42,127,452
1,42,127,816
1,42,127,416
1,47,127,448
1,45,127,288
1,42,127,0
1,42,127,448
1,42,127,800
1,42,127,432
1,47,127,416
1,45,127,288
1,42,127,80
1,42,127,448
1,30,127,816
1,42,127,0
1,30,127,116
1,42,127,0
1,40,127,100
1,28,127,0
1,28,127,164
1,40,127,0
1,26,127,100
1,38,127,0
1,26,127,404
1,38,127,0
1,28,127,0
1,40,127,0
1,28,127,448
1,40,127,0
1,30,127,52
1,42,127,0
1,30,127,164
1,42,127,0
1,30,127,144
1,42,127,0
1,30,127,112
1,42,127,0
1,40,127,96
1,28,127,0
1,28,127,160
1,40,127,0
1,26,127,100
1,38,127,0
1,26,127,404
1,38,127,0
1,28,127,36
1,40,127,0
1,28,127,452
1,40,127,0
1,30,127,52
1,42,127,0
1,30,127,164
1,42,127,0
1,30,127,144
1,30,127,432
1,28,127,336
1,28,127,112
1,28,127,288
1,26,127,164
1,26,127,464
1,28,127,48
1,28,127,432
1,30,127,68
1,30,127,100
1,30,127,288
1,30,127,132
1,30,127,416
1,28,127,336
1,28,127,112
1,28,127,292
1,26,127,160
1,26,127,464
1,28,127,64
1,28,127,436
1,30,127,68
1,30,127,96
1,30,127,292
2,30,113,0
2,30,127,436
2,28,99,800
2,28,88,80
2,28,99,256
2,26,113,816
2,26,127,436
2,28,88,48
2,28,88,384
2,30,99,48
2,30,99,80
2,30,127,272
2,30,127,800
2,28,113,52
2,26,113,100
2,26,127,448
2,28,88,32
2,28,99,436
2,30,99,48
2,30,113,112
2,30,113,244
2,30,113,752
2,42,127,0
2,30,127,407
2,42,113,0
2,28,113,784
2,40,88,0
2,28,88,68
2,40,99,0
2,28,113,224
2,40,99,0
2,26,99,784
2,38,127,0
2,26,113,416
2,38,113,0
2,28,88,48
2,40,99,0
2,28,99,416
2,40,113,0
2,30,88,48
2,42,88,0
2,30,99,80
2,42,99,0
2,30,127,212
2,42,113,0
2,40,127,576
2,28,113,0
2,30,113,16
2,42,127,0
2,30,127,400
2,42,113,0
2,28,113,784
2,40,88,0
2,40,99,64
2,28,88,0
2,28,113,228
2,40,99,0
2,26,99,788
2,38,127,0
2,26,113,416
2,38,113,0
2,40,99,48
2,28,88,0
2,28,99,416
2,40,113,0
2,42,88,52
2,30,88,0
2,30,99,84
2,42,99,0
2,30,127,208
2,42,113,0
2,40,127,580
2,28,113,0
2,30,113,20
2,42,127,0
2,30,127,432
2,42,113,0
2,28,113,788
2,40,88,0
2,28,88,68
2,40,99,0
2,28,113,224
2,40,99,0
2,26,99,784
2,38,127,0
2,26,113,420
2,38,113,0
2,28,88,48
2,40,99,0
2,28,99,416
2,40,113,0
2,30,88,48
2,42,88,0
2,30,99,84
2,42,99,0
2,30,127,212
2,42,113,0
2,40,127,576
2,28,113,0
2,30,113,20
2,42,127,0
2,30,127,426
2,42,113,0
2,28,113,784
2,40,88,0
2,28,88,68
2,40,99,0
2,28,113,224
2,40,99,0
2,26,99,784
2,38,127,0
2,26,113,416
2,38,113,0
2,28,88,48
2,40,99,0
2,28,99,416
2,40,113,0
2,30,88,48
2,42,88,0
2,30,99,84
2,42,99,0
2,30,127,212
2,42,113,0
2,40,127,576
2,28,113,0
2,30,113,16
2,30,127,432
2,28,99,336
2,28,99,116
2,28,113,288
2,26,113,160
2,26,113,464
2,28,88,48
2,28,113,432
2,30,80,68
2,30,113,96
2,30,113,288
2,30,113,128
2,30,127,420
2,28,99,340
2,28,99,116
2,28,113,292
2,26,113,164
2,26,113,461
2,28,88,52
2,28,113,436
2,30,80,64
2,30,113,96
2,30,113,292
2,30,113,132
2,42,127,0
2,30,127,407
2,42,113,0
2,40,88,784
2,28,113,0
2,28,88,64
2,40,99,0
2,28,113,224
2,40,99,0
2,26,99,784
2,38,127,0
2,26,113,416
2,38,113,0
2,28,88,48
2,40,99,0
2,28,99,416
2,40,113,0
2,30,88,48
2,42,88,0
2,30,99,80
2,42,99,0
2,30,127,212
2,42,113,0
2,40,127,576
2,28,113,0
2,30,113,16
2,42,127,0
2,30,127,400
2,42,113,0
2,40,88,784
2,28,113,0
2,28,88,64
2,40,99,0
2,28,113,224
2,40,99,0
2,26,99,784
2,38,127,0
2,26,113,420
2,38,113,0
2,28,88,48
2,40,99,0
2,28,99,416
2,40,113,0
2,30,88,52
2,42,88,0
2,30,99,80
2,42,99,0
2,30,127,212
2,42,113,0
2,40,127,576
2,28,113,0
2,30,113,16
2,42,127,0
2,30,127,432
2,42,113,0
2,28,113,784
2,40,88,0
2,28,88,64
2,40,99,0
2,28,113,224
2,40,99,0
2,26,99,784
2,38,127,0
2,26,113,420
2,38,113,0
2,28,88,48
2,40,99,0
2,28,99,416
2,40,113,0
2,30,88,48
2,42,88,0
2,30,99,84
2,42,99,0
2,30,127,212
2,42,113,0
2,40,127,576
2,28,113,0
2,30,113,16
2,42,127,0
2,30,127,432
2,42,113,0
2,28,113,784
2,40,88,0
2,28,88,68
2,40,99,0
2,28,113,224
2,40,99,0
2,26,99,784
2,38,127,0
2,26,113,416
2,38,113,0
2,28,88,48
2,40,99,0
2,28,99,420
2,40,113,0
2,30,88,48
2,42,88,0
2,30,99,80
2,42,99,0
2,30,127,212
2,42,113,0
2,40,127,576
2,28,113,0
2,30,113,16
2,30,127,432
2,28,99,336
2,28,99,112
2,28,113,288
2,26,113,164
2,26,113,464
2,28,88,48
2,28,113,432
2,30,80,68
2,30,113,96
2,30,113,288
2,30,113,128
2,30,127,416
2,28,99,340
2,28,99,112
2,28,113,292
2,26,113,164
2,26,113,464
2,28,88,52
2,28,113,436
2,30,80,68
2,30,113,96
2,30,113,292
2,30,113,132
2,42,127,0
2,30,127,368
2,42,113,0
2,42,127,772
2,30,113,0
2,30,113,400
2,42,113,0
2,30,113,784
2,42,113,0
2,42,127,384
2,30,99,0
2,42,113,768
2,30,127,0
2,30,127,416
2,42,127,0
2,30,113,800
2,42,127,0
2,30,127,352
2,42,113,0
2,42,127,768
2,30,113,0
2,30,113,400
2,42,113,0
2,30,113,784
2,42,113,0
2,42,127,384
2,30,99,0
2,42,113,768
2,30,127,0
2,30,127,416
2,42,127,0
2,30,113,800
2,42,127,0
2,30,127,356
2,42,113,0
2,35,113,384
2,33,113,0
2,42,127,32
2,30,113,0
2,30,113,400
2,42,113,0
2,30,113,788
2,42,113,0
2,42,127,384
2,30,99,0
2,35,113,384
2,33,99,0
2,42,113,16
2,30,127,0
2,30,127,420
2,42,127,0
2,30,113,800
2,42,127,0
2,30,127,352
2,42,113,0
2,35,127,388
2,33,127,4
2,42,127,36
2,30,113,0
2,30,113,400
2,42,113,0
2,30,113,784
2,42,113,0
2,42,127,388
2,30,99,0
2,35,127,384
2,33,113,288
2,42,113,32
2,30,127,0
2,30,127,416
2,42,127,0
2,30,113,800
2,30,127,432
2,28,99,336
2,28,99,112
2,28,113,288
2,26,113,164
2,26,113,464
2,28,88,48
2,28,113,432
2,30,80,68
2,30,113,96
2,30,113,292
2,30,113,128
2,30,127,416
2,28,99,336
2,28,99,112
2,28,113,292
2,26,113,164
2,26,113,464
2,28,88,48
2,28,113,436
2,30,80,64
2,30,113,96
2,30,113,292
2,42,113,132
2,42,113,423
2,47,99,448
2,45,80,288
2,42,113,0
2,42,113,448
2,42,127,800
2,42,127,432
2,47,99,416
2,45,99,288
2,42,113,80
2,42,127,452
2,42,113,816
2,42,113,416
2,47,99,448
2,45,80,288
2,42,113,0
2,42,113,448
2,42,127,800
2,42,127,432
2,47,99,416
2,45,99,288
2,42,113,80
2,42,127,448
2,30,113,816
2,42,113,0
2,30,113,116
2,42,113,0
2,40,99,100
2,28,99,0
2,28,99,164
2,40,99,0
2,26,127,100
2,38,113,0
2,26,113,404
2,38,99,0
2,28,88,0
2,40,99,0
2,28,99,448
2,40,99,0
2,30,99,52
2,42,99,0
2,30,127,164
2,42,99,0
2,30,113,144
2,42,113,0
2,30,113,112
2,42,113,0
2,40,99,96
2,28,99,0
2,28,99,160
2,40,99,0
2,26,127,100
2,38,113,0
2,26,113,404
2,38,99,0
2,28,88,36
2,40,99,0
2,28,99,452
2,40,99,0
2,30,99,52
2,42,99,0
2,30,127,164
2,42,99,0
2,30,113,144
2,30,127,432
2,28,99,336
2,28,99,112
2,28,113,288
2,26,113,164
2,26,113,464
2,28,88,48
2,28,113,432
2,30,80,68
2,30,113,100
2,30,113,288
2,30,113,132
2,30,127,416
2,28,99,336
2,28,99,112
2,28,113,292
2,26,113,160
2,26,113,464
2,28,88,64
2,28,113,436
2,30,80,68
2,30,113,96
2,30,113,292
3,78,113,0
3,80,99,112
3,81,80,116
3,78,99,48
3,78,113,208
3,76,71,64
3,74,69,116
3,78,80,0
3,76,69,52
3,80,69,0
3,78,88,64
3,78,113,24800
3,76,71,23
3,74,88,32
3,74,113,468
3,76,88,52
3,76,88,480
3,78,80,48
3,78,113,96
3,78,127,292
3,78,113,832
3,76,80,1536
3,74,99,64
3,74,88,500
3,76,88,48
3,76,99,452
3,78,80,68
3,78,113,112
3,78,127,276
3,78,113,25392
3,76,71,23
3,74,88,32
3,74,113,464
3,76,88,52
3,76,88,480
3,78,80,48
3,78,113,96
3,78,127,288
3,78,113,832
3,76,80,1536
3,74,99,64
3,74,88,496
3,76,88,48
3,76,99,448
3,78,80,64
3,78,113,112
3,78,127,272
3,78,113,25392
3,76,71,23
3,74,88,36
3,74,113,464
3,76,88,48
3,76,88,480
3,78,80,48
3,78,113,100
3,78,127,288
3,78,113,832
3,76,80,1536
3,74,99,64
3,74,88,496
3,76,88,48
3,76,99,448
3,78,80,68
3,78,113,116
3,78,127,272
3,78,113,13104
3,82,113,96
3,76,13,167
3,74,49,0
3,80,71,0
3,74,88,64
3,78,99,0
3,78,99,468
3,74,69,0
3,76,64,52
3,80,60,0
3,80,88,468
3,76,80,0
