track,note,velocity,time
0,53,53,1232
0,65,69,3
0,53,0,66
0,60,55,3
0,72,59,0
0,65,0,27
0,72,69,9
0,53,52,2
0,60,0,1
0,72,0,57
0,60,41,8
0,72,0,1
0,53,0,64
0,60,0,26
0,74,74,1
0,53,51,0
0,72,67,31
0,74,0,10
0,53,0,12
0,67,67,1
0,60,60,7
0,72,0,5
0,67,0,20
0,65,79,8
0,60,0,34
0,70,93,17
0,53,57,5
0,65,0,3
0,70,0,14
0,60,44,10
0,53,0,16
0,60,0,2
0,53,59,4
0,67,71,1
0,60,49,19
0,53,0,9
0,67,0,19
0,65,71,15
0,60,0,46
0,65,0,1
0,53,52,3
0,60,57,70
0,67,35,4
0,53,0,5
0,60,0,3
0,67,0,3
0,53,57,79
0,63,68,0
0,53,0,41
0,47,66,21
0,67,66,6
0,63,0,7
0,47,0,14
0,67,0,2
0,65,69,67
0,41,58,6
0,65,0,14
0,48,44,7
0,41,0,74
0,41,25,12
0,48,0,49
0,41,0,31
0,48,37,16
0,65,58,67
0,48,0,1
0,41,45,2
0,65,0,27
0,63,56,11
0,41,0,38
0,60,51,1
0,63,0,23
0,48,31,1
0,60,0,4
0,56,56,14
0,48,0,12
0,56,0,20
0,41,40,18
0,58,44,4
0,56,58,79
0,41,0,6
0,48,37,5
0,41,51,81
0,58,0,1
0,56,0,2
0,48,0,1
0,53,54,0
0,41,0,25
0,48,48,14
0,53,0,22
0,63,84,62
0,41,56,1
0,48,0,3
0,63,0,72
0,67,79,6
0,48,60,8
0,41,0,3
0,67,0,65
0,65,76,9
0,41,51,1
0,48,0,1
0,65,0,3
0,48,47,9
0,41,0,82
0,41,47,6
0,48,0,82
0,48,47,9
0,41,0,67
0,41,42,16
0,48,0,70
0,48,33,26
0,41,0,67
0,48,0,21
0,41,42,5
0,41,0,75
0,48,52,13
0,60,67,45
0,48,0,32
0,41,49,10
0,65,84,4
0,72,69,67
0,60,0,8
0,48,44,1
0,41,0,6
0,65,0,13
0,72,80,18
0,65,46,0
0,72,0,41
0,41,53,3
0,48,0,17
0,72,0,22
0,65,0,25
0,48,71,13
0,72,75,3
0,41,0,3
0,48,0,3
0,72,0,33
0,68,66,1
0,70,87,43
0,44,60,1
0,68,0,2
0,51,69,0
0,56,54,2
0,70,0,18
0,72,80,12
0,44,0,26
0,72,82,19
0,51,0,12
0,56,50,81
0,56,0,23
0,56,54,66
0,72,0,2
0,72,0,7
0,56,0,23
0,56,0,5
0,68,65,10
0,68,0,30
0,46,67,8
0,58,59,2
0,70,77,2
0,62,59,2
0,53,61,0
0,46,0,54
0,70,74,19
0,58,0,30
0,70,0,1
0,67,68,10
0,58,70,43
0,70,81,6
0,62,0,4
0,53,0,11
0,70,0,10
0,67,0,13
0,58,0,30
0,67,64,12
0,70,72,41
0,70,0,25
0,67,0,1
0,70,0,4
0,41,60,14
0,72,71,5
0,53,56,1
0,48,63,1
0,65,77,53
0,41,0,6
0,65,66,31
0,72,0,10
0,53,0,2
0,48,0,3
0,53,46,53
0,65,68,5
0,65,0,49
0,65,67,36
0,65,0,30
0,53,0,0
0,63,68,14
0,65,0,6
0,65,0,1
0,63,0,31
0,41,69,6
0,48,77,3
0,53,63,1
0,65,76,4
0,60,79,0
0,41,0,25
0,48,0,2
0,65,83,45
0,53,0,19
0,65,0,6
0,72,85,17
0,53,66,44
0,60,0,22
0,65,0,49
0,72,0,7
0,53,40,4
0,53,0,20
0,68,67,27
0,53,0,1
0,68,0,13
0,44,71,3
0,56,74,1
0,70,82,3
0,51,70,1
0,44,0,12
0,56,0,6
0,70,0,1
0,51,0,52
0,72,66,16
0,72,0,31
0,72,65,51
0,58,66,179
0,46,60,1
0,50,63,8
0,53,52,1
0,72,0,3
0,70,79,23
0,58,0,20
0,70,78,12
0,46,0,28
0,50,0,3
0,67,65,9
0,53,0,25
0,58,74,25
0,70,88,1
0,70,0,25
0,70,0,5
0,67,0,4
0,58,0,12
0,70,0,26
0,67,75,19
0,67,0,24
0,70,83,19
0,70,0,26
0,41,58,18
0,72,76,5
0,48,61,0
0,53,54,2
0,60,45,21
0,65,59,1
0,41,0,1
0,72,0,8
0,48,0,6
0,53,0,12
0,65,64,61
0,53,58,2
0,60,0,24
0,65,0,1
0,65,0,7
0,53,0,5
0,65,39,52
0,65,0,9
0,65,40,31
0,65,0,20
0,39,61,2
0,58,60,0
0,67,63,0
0,51,59,2
0,63,57,3
0,39,0,41
0,58,0,14
0,67,0,13
0,67,60,5
0,58,29,3
0,51,0,4
0,63,0,18
0,67,0,15
0,65,75,3
0,58,0,21
0,65,0,15
0,38,66,7
0,50,79,2
0,67,71,4
0,58,74,0
0,38,0,49
0,50,0,8
0,67,0,1
0,58,0,21
0,67,61,2
0,58,54,2
0,67,0,38
0,65,71,6
0,58,0,23
0,65,0,8
0,36,65,21
0,48,69,0
0,67,66,4
0,58,60,0
0,36,0,3
0,48,0,4
0,65,73,22
0,67,0,1
0,58,0,12
0,65,0,28
0,58,79,4
0,63,76,1
0,34,67,2
0,46,66,2
0,58,0,49
0,60,72,0
0,63,0,10
0,34,0,31
0,63,68,3
0,46,0,2
0,46,33,5
0,60,0,1
0,63,0,7
0,46,0,4
0,44,70,71
0,32,69,1
0,63,84,1
0,56,78,1
0,44,0,53
0,63,69,31
0,32,0,1
0,63,0,12
0,56,0,6
0,63,0,1
0,63,66,24
0,63,0,23
0,31,69,1
0,67,77,1
0,43,67,1
0,31,0,6
0,67,0,3
0,63,72,59
0,43,0,1
0,63,0,21
0,65,59,16
0,29,60,1
0,57,62,1
0,41,48,1
0,60,61,3
0,65,0,48
0,29,0,6
0,41,51,64
0,60,60,8
0,57,0,18
0,41,0,54
0,41,62,9
0,60,0,5
0,41,0,14
0,60,0,2
0,62,64,22
0,41,0,1
0,62,0,8
0,63,85,37
0,32,71,0
0,44,72,2
0,56,72,2
0,60,76,33
0,63,0,8
0,63,84,7
0,32,0,7
0,44,0,1
0,56,0,17
0,60,77,17
0,60,0,11
0,63,0,10
0,56,79,30
0,67,68,3
0,31,72,2
0,43,71,1
0,60,0,21
0,56,0,4
0,63,70,20
0,67,0,4
0,31,0,11
0,43,0,2
0,63,0,14
0,29,66,3
0,65,74,1
0,60,71,3
0,57,73,0
0,41,59,1
0,29,0,39
0,65,0,8
0,60,0,0
0,57,0,8
0,60,57,83
0,41,47,1
0,57,65,1
0,48,36,91
0,41,0,12
0,60,0,1
0,41,0,3
0,57,0,2
0,65,56,69
0,57,49,6
0,41,38,1
0,60,53,1
0,48,0,15
0,65,0,1
0,57,0,55
0,41,0,2
0,57,61,15
0,60,0,11
0,57,0,50
0,65,59,26
0,41,46,1
0,60,54,2
0,65,0,10
0,41,0,1
0,65,80,69
0,48,58,7
0,60,0,2
0,65,0,7
0,65,80,22
0,48,0,23
0,65,81,28
0,41,57,2
0,57,75,3
0,60,65,0
0,65,0,3
0,65,0,47
0,65,66,34
0,41,0,9
0,65,77,33
0,57,0,18
0,60,0,0
0,65,0,14
0,65,77,15
0,53,67,2
0,65,0,18
0,65,0,2
0,53,0,7
0,65,76,10
0,65,0,13
0,65,62,31
0,65,0,15
0,65,55,32
0,65,0,21
0,39,62,23
0,58,62,2
0,51,59,1
0,67,61,2
0,63,50,3
0,46,56,1
0,39,0,79
0,58,0,3
0,65,71,2
0,51,0,7
0,63,75,35
0,67,0,20
0,51,65,21
0,63,0,6
0,46,0,22
0,58,63,13
0,65,0,36
0,51,79,2
0,63,0,4
0,51,0,3
0,58,0,17
0,51,0,39
0,51,83,18
0,44,74,0
0,56,79,3
0,63,87,1
0,60,79,46
0,51,0,3
0,63,87,4
0,44,0,4
0,56,0,18
0,63,0,13
0,60,0,25
0,56,89,30
0,44,78,0
0,63,89,3
0,63,0,40
0,60,76,2
0,56,0,36
0,63,85,4
0,44,0,7
0,63,0,4
0,60,0,17
0,63,0,11
0,62,79,2
0,65,80,1
0,58,81,1
0,46,86,27
0,62,0,20
0,65,0,5
0,58,0,2
0,65,82,20
0,62,73,3
0,46,0,8
0,65,0,7
0,65,84,19
0,62,87,0
0,62,0,18
0,65,0,3
0,62,97,21
0,65,90,1
0,62,0,10
0,46,79,37
0,62,0,14
0,65,0,14
0,62,74,13
0,46,0,28
0,62,0,8
0,48,73,12
0,48,0,18
0,48,67,26
0,48,0,21
0,48,62,18
0,41,49,0
0,65,90,3
0,53,64,0
0,57,84,2
0,60,74,0
0,48,0,21
0,65,75,18
0,41,0,6
0,65,67,20
0,65,0,15
0,53,0,4
0,65,73,19
0,57,0,27
0,53,66,23
0,65,64,2
0,60,0,19
0,65,0,2
0,65,0,5
0,65,0,4
0,53,0,11
0,65,0,24
0,65,69,11
0,65,0,16
0,65,60,28
0,65,0,22
0,39,62,26
0,51,57,2
0,67,62,2
0,58,58,1
0,46,51,4
0,63,56,0
0,39,0,87
0,51,0,1
0,65,73,1
0,67,0,7
0,51,61,72
0,63,69,7
0,58,0,23
0,46,0,8
0,51,58,43
0,63,0,4
0,65,0,9
0,51,0,1
0,63,0,19
0,51,0,27
0,51,72,34
0,44,63,1
0,63,71,1
0,56,62,2
0,51,0,51
0,44,0,4
0,63,74,20
0,56,51,1
0,63,0,27
0,56,0,15
0,60,66,1
0,63,0,24
0,56,0,4
0,56,36,20
0,43,62,2
0,67,60,1
0,60,0,10
0,56,0,55
0,63,57,5
0,43,0,1
0,67,0,6
0,63,0,21
0,65,61,60
0,60,61,3
0,41,52,0
0,57,57,2
0,65,0,6
0,57,14,31
0,60,0,3
0,41,0,40
0,60,58,42
0,41,49,1
0,57,0,25
0,41,80,57
0,57,0,9
0,60,0,24
0,62,66,8
0,43,76,3
0,41,0,3
0,41,0,1
0,62,0,3
0,43,0,31
0,63,77,3
0,44,69,3
0,56,45,7
0,60,67,40
0,63,0,6
0,63,68,17
0,44,0,2
0,60,61,43
0,56,0,22
0,60,0,25
0,67,55,5
0,43,68,1
0,63,0,37
0,63,61,46
0,60,0,2
0,67,0,6
0,43,0,2
0,63,0,23
0,65,63,1
0,41,49,1
0,60,62,1
0,57,64,2
0,48,28,32
0,65,0,12
0,41,0,74
0,60,0,3
0,41,39,0
0,57,0,19
0,48,0,14
0,41,0,71
0,48,39,1
0,48,0,79
0,65,60,6
0,41,51,4
0,65,0,81
0,72,60,1
0,53,64,2
0,41,0,4
0,72,0,12
0,53,0,9
0,53,55,63
0,72,56,6
0,53,0,82
0,60,52,4
0,72,0,23
0,74,77,64
0,53,58,4
0,60,0,1
0,72,61,38
0,74,0,5
0,53,0,33
0,60,49,6
0,72,0,3
0,67,67,1
0,60,0,32
0,65,76,7
0,70,92,50
0,53,57,1
0,67,0,3
0,65,0,7
0,70,0,77
0,60,44,9
0,53,0,18
0,60,0,58
0,67,69,11
0,53,53,0
0,60,48,15
0,67,0,26
0,53,0,23
0,65,65,1
0,60,0,26
0,65,0,6
0,53,52,10
0,67,70,82
0,60,52,2
0,53,0,9
0,67,0,3
0,60,0,7
0,63,72,61
0,53,63,4
0,63,0,75
0,47,70,7
0,67,60,4
0,53,0,5
0,47,0,4
0,67,0,7
0,65,69,14
0,57,70,1
0,41,51,5
0,48,48,33
0,65,0,38
0,48,54,49
0,57,0,45
0,53,46,5
0,48,46,45
0,41,0,14
0,41,41,69
0,48,0,6
0,48,0,45
0,48,48,45
0,53,0,66
0,48,0,18
0,53,44,16
0,41,0,13
0,48,46,79
0,48,0,22
0,65,67,23
0,53,0,9
0,60,62,38
0,65,69,0
0,41,60,1
0,72,68,58
0,48,0,15
0,65,0,6
0,60,0,8
0,65,0,1
0,72,79,14
0,60,30,2
0,41,0,14
0,53,67,28
0,72,0,16
0,72,0,8
0,60,0,29
0,53,0,18
0,72,84,10
0,53,46,1
0,72,0,18
0,68,69,22
0,53,0,1
0,68,0,33
0,44,60,2
0,56,61,2
0,51,62,3
0,70,86,1
0,63,63,3
0,44,0,31
0,72,67,9
0,56,0,3
0,51,0,1
0,72,71,24
0,63,69,1
0,70,0,13
0,63,0,19
0,72,0,14
0,56,69,39
0,72,69,4
0,72,0,18
0,63,0,68
0,56,0,4
0,56,67,3
0,72,0,24
0,58,76,54
0,46,69,0
0,50,74,6
0,53,61,0
0,56,0,15
0,70,81,18
0,58,0,19
0,70,84,14
0,46,0,36
0,50,0,1
0,67,76,5
0,53,0,29
0,70,97,17
0,58,84,1
0,70,0,25
0,70,0,5
0,67,0,6
0,70,0,9
0,58,0,22
0,67,78,16
0,67,0,29
0,70,81,15
0,70,0,23
0,41,63,20
0,53,69,1
0,72,82,2
0,48,68,1
0,65,72,6
0,60,51,2
0,41,0,5
0,53,0,2
0,72,0,5
0,48,0,7
0,53,66,61
0,65,72,4
0,65,0,20
0,60,0,8
0,53,0,22
0,65,73,37
0,53,51,3
0,65,0,17
0,65,0,11
0,53,0,3
0,63,71,10
0,41,70,7
0,65,78,0
0,48,78,1
0,53,74,1
0,63,0,3
0,41,0,14
0,65,72,42
0,65,0,21
0,48,0,14
0,72,91,11
0,53,67,49
0,53,0,18
0,65,0,3
0,72,0,48
0,53,0,1
0,72,87,6
0,53,55,2
0,72,0,21
0,53,0,43
0,56,81,19
0,44,71,1
0,68,77,2
0,51,71,1
0,70,75,23
0,56,0,6
0,44,0,26
0,72,79,23
0,68,0,27
0,51,0,12
0,70,0,3
0,72,0,1
0,56,86,48
0,44,81,0
0,72,95,3
0,51,76,0
0,56,0,27
0,44,0,57
0,56,69,3
0,72,0,2
0,51,0,8
0,58,82,74
0,46,70,1
0,53,71,3
0,50,74,2
0,56,0,17
0,70,79,20
0,62,44,4
0,58,0,11
0,46,0,8
0,70,75,16
0,62,60,2
0,53,0,18
0,50,0,5
0,70,0,16
0,67,71,0
0,62,0,33
0,70,88,17
0,58,79,0
0,62,73,1
0,70,0,24
0,62,0,7
0,67,0,9
0,70,0,9
0,58,0,2
0,62,0,16
0,67,72,18
0,67,0,35
0,70,83,7
0,70,0,27
0,72,83,20
0,41,66,0
0,53,72,3
0,48,76,0
0,65,74,22
0,60,62,1
0,72,0,5
0,41,0,2
0,53,0,9
0,48,0,8
0,65,71,65
0,53,61,1
0,65,0,21
0,60,0,3
0,65,0,8
0,53,0,1
0,58,69,144
0,39,68,0
0,51,66,1
0,67,64,2
0,63,59,3
0,58,0,20
0,65,71,13
0,39,0,2
0,51,0,5
0,67,0,1
0,63,0,16
0,65,0,7
0,58,82,13
0,67,75,1
0,63,66,2
0,38,64,1
0,50,72,2
0,58,0,6
0,67,0,3
0,63,0,14
0,65,71,1
0,38,0,30
0,50,0,12
0,65,0,11
0,36,69,41
0,58,82,1
0,67,75,3
0,48,64,0
0,36,0,21
0,58,0,2
0,65,77,2
0,67,0,8
0,63,71,42
0,48,0,4
0,65,0,5
0,63,0,18
0,34,62,1
0,46,59,1
0,63,71,2
0,58,77,1
0,34,0,53
0,60,61,29
0,46,0,2
0,46,59,3
0,63,0,22
0,58,0,1
0,60,0,1
0,63,66,17
0,46,0,6
0,63,0,19
0,63,60,25
0,32,63,2
0,44,57,0
0,56,67,1
0,60,65,1
0,63,0,38
0,32,0,20
0,63,65,22
0,44,0,18
0,56,0,3
0,60,0,3
0,56,28,7
0,63,0,1
0,63,62,10
0,60,34,4
0,56,0,21
0,63,0,7
0,31,69,19
0,56,65,1
0,43,61,3
0,60,33,1
0,67,58,2
0,60,0,1
0,31,0,17
0,56,0,5
0,43,0,58
0,60,0,3
0,63,65,1
0,67,0,1
0,63,0,37
0,65,62,21
0,29,61,2
0,60,64,2
0,57,60,1
0,41,53,0
0,65,0,40
0,29,0,18
0,41,56,59
0,60,60,7
0,60,0,22
0,57,0,3
0,31,58,52
0,43,63,2
0,41,0,5
0,41,0,12
0,60,0,6
0,31,0,9
0,62,53,13
0,43,0,2
0,62,0,8
0,44,63,34
0,63,81,1
0,32,66,1
0,56,65,2
0,60,74,38
0,44,0,6
0,63,77,13
0,63,0,1
0,32,0,33
0,56,0,7
