track,note,velocity,time
1,36,115,10176
1,36,115,60
1,36,115,250
1,36,115,62
1,36,117,254
1,36,115,64
1,36,115,256
1,36,117,68
1,36,117,254
1,36,115,66
1,36,113,256
1,36,117,64
1,36,115,254
1,36,117,66
1,36,113,208
1,36,119,32
1,36,119,346
1,36,111,116
1,36,119,218
1,36,113,342
1,36,117,122
1,36,115,96
1,36,117,110
1,36,117,98
1,36,117,98
1,36,117,90
1,36,117,90
1,36,119,90
1,36,115,134
1,36,110,268
1,36,115,30
1,36,117,336
1,36,113,266
1,36,111,26
1,36,113,332
1,36,110,260
1,36,111,24
1,36,113,322
1,36,111,268
1,36,115,28
1,36,117,324
1,36,115,320
1,36,115,316
1,36,115,320
1,36,111,296
1,36,115,26
1,36,115,328
1,36,115,732
1,36,115,60
1,36,115,250
1,36,115,62
1,36,117,254
1,36,115,64
1,36,115,256
1,36,117,68
1,36,117,254
1,36,115,66
1,36,113,256
1,36,117,64
1,36,115,254
1,36,117,66
1,36,113,208
1,36,119,32
1,36,113,298
1,36,119,32
1,36,111,116
1,36,119,218
1,36,113,342
1,36,117,122
1,36,115,96
1,36,117,110
1,36,117,98
1,36,117,98
1,36,117,90
1,36,117,90
1,36,119,90
1,36,115,134
1,36,117,110
1,36,115,98
1,36,110,268
1,36,115,30
1,36,117,336
1,36,113,266
1,36,111,26
1,36,113,332
1,36,110,260
1,36,111,24
1,36,113,322
1,36,111,268
1,36,115,28
1,36,117,324
1,36,115,320
1,36,111,268
1,36,113,26
1,36,117,318
1,36,115,726
1,36,115,60
1,36,115,250
1,36,115,62
1,36,117,254
1,36,115,64
1,36,115,256
1,36,117,68
1,36,117,254
1,36,115,66
1,36,113,256
1,36,117,64
1,36,115,254
1,36,117,66
1,36,113,208
1,36,119,32
1,36,119,346
1,36,111,116
1,36,115,218
1,36,115,314
1,36,117,324
1,36,117,326
1,36,117,730
1,36,117,334
1,36,117,338
1,36,117,142
1,36,117,132
1,36,113,140
1,36,113,134
1,36,115,140
1,36,115,144
1,36,119,156
1,36,115,164
1,36,113,276
1,36,115,30
1,36,115,348
1,36,113,282
1,36,111,26
1,36,113,730
1,36,111,276
1,36,111,26
1,36,113,336
1,36,110,274
1,36,113,26
1,36,115,728
1,36,111,280
1,36,113,26
1,36,115,342
1,36,113,334
1,36,111,258
1,36,113,26
1,36,115,336
1,36,115,3420
1,36,113,98
1,36,113,168
1,36,115,30
1,36,117,114
1,36,113,166
1,36,113,30
1,36,113,112
1,36,111,162
1,36,113,30
1,36,111,114
1,36,113,30
1,36,117,166
1,36,113,116
1,36,111,166
1,36,115,30
1,36,110,100
1,36,110,166
1,36,110,30
1,36,106,112
1,36,113,168
1,36,117,26
1,36,117,350
1,36,117,344
1,36,115,734
1,36,113,98
1,36,113,168
1,36,115,30
1,36,117,114
1,36,113,166
1,36,113,30
1,36,113,112
1,36,111,162
1,36,113,30
1,36,111,114
1,36,113,30
1,36,117,166
1,36,113,116
1,36,111,166
1,36,115,30
1,36,110,100
1,36,110,166
1,36,110,30
1,36,106,112
1,36,113,168
1,36,117,26
1,36,117,350
1,36,117,344
2,38,43,9760
2,38,77,8
2,38,111,6
2,38,117,26
2,38,117,502
2,38,117,336
2,38,117,330
2,38,115,328
2,38,117,328
2,38,115,348
2,38,117,340
2,38,115,348
2,38,117,328
2,38,106,7590
2,38,111,30
2,38,108,24
2,38,117,498
2,38,117,336
2,38,117,330
2,38,115,328
2,38,117,328
2,38,115,348
2,38,117,340
2,38,115,348
2,38,117,328
2,38,117,6966
2,38,111,208
2,38,104,18
2,38,117,560
2,38,117,336
2,38,117,330
2,38,115,328
2,38,117,328
2,38,115,348
2,38,117,340
2,38,115,348
2,38,117,328
2,38,115,342
2,38,117,330
2,38,117,324
2,38,115,340
2,38,110,70
2,38,113,22
2,38,117,598
2,38,117,338
2,38,117,10230
2,38,115,196
2,38,110,30
2,38,115,26
2,38,117,506
2,38,115,340
2,38,115,340
2,38,117,388
2,38,117,298
2,38,115,338
2,38,113,336
2,38,115,338
2,38,115,334
2,38,117,334
2,38,106,158
2,38,110,16
2,38,97,26
2,38,101,16
2,38,90,26
2,38,106,32
2,38,115,26
2,38,117,40
2,38,117,40
2,38,117,232
2,38,115,340
2,38,115,340
2,38,117,388
2,38,117,298
2,38,115,338
2,38,113,336
2,38,115,338
2,38,115,334
3,42,94,10272
3,42,103,76
3,42,93,74
3,42,101,74
3,42,103,70
3,42,106,72
3,42,104,72
3,42,104,72
3,42,103,70
3,42,104,72
3,42,101,70
3,42,104,72
3,42,103,72
3,42,106,74
3,42,103,72
3,42,104,74
3,42,104,72
3,42,106,74
3,42,104,74
3,42,104,74
3,42,104,74
3,42,106,74
3,42,104,72
3,42,106,76
3,42,104,76
3,42,108,76
3,42,103,74
3,42,106,74
3,42,106,74
3,42,108,74
3,42,104,74
3,42,104,76
3,42,106,74
3,42,108,74
3,42,108,74
3,42,108,2184
3,42,104,70
3,42,108,72
3,42,104,70
3,42,108,74
3,42,106,74
3,42,106,72
3,42,104,72
3,42,106,74
3,42,104,72
3,42,106,74
3,42,104,74
3,42,106,74
3,42,106,74
3,42,106,74
3,42,104,76
3,42,106,76
3,42,104,76
3,42,106,76
3,42,106,76
3,42,106,76
3,42,106,74
3,42,106,74
3,42,106,74
3,42,104,76
3,42,104,74
3,42,104,74
3,42,106,74
3,42,106,72
3,42,104,72
3,42,106,74
3,42,104,72
3,42,106,74
3,42,104,72
3,42,106,72
3,42,103,72
3,42,104,72
3,42,104,72
3,42,104,72
3,42,104,74
3,42,104,74
3,42,104,72
3,42,106,72
3,42,104,72
3,42,106,72
3,42,101,72
3,42,104,74
3,42,103,72
3,42,104,72
3,42,104,74
3,42,106,74
3,42,104,72
3,42,104,74
3,42,103,74
3,42,106,76
3,42,103,74
3,42,94,556
3,42,103,76
3,42,93,74
3,42,101,74
3,42,103,70
3,42,106,72
3,42,104,72
3,42,104,72
3,42,103,70
3,42,104,72
3,42,101,70
3,42,104,72
3,42,103,72
3,42,106,74
3,42,103,72
3,42,104,74
3,42,104,72
3,42,106,74
3,42,104,74
3,42,104,74
3,42,104,74
3,42,106,74
3,42,104,72
3,42,106,76
3,42,104,76
3,42,108,76
3,42,103,74
3,42,106,74
3,42,106,74
3,42,108,74
3,42,104,74
3,42,104,76
3,42,106,74
3,42,108,74
3,42,108,74
3,42,108,2568
3,42,104,70
3,42,108,72
3,42,104,70
3,42,108,74
3,42,106,74
3,42,106,72
3,42,104,72
3,42,106,74
3,42,104,72
3,42,106,74
3,42,104,74
3,42,106,74
3,42,106,74
3,42,106,74
3,42,104,76
3,42,106,76
3,42,104,76
3,42,106,76
3,42,106,76
3,42,106,76
3,42,106,74
3,42,106,74
3,42,106,74
3,42,104,76
3,42,104,74
3,42,104,74
3,42,106,74
3,42,106,72
3,42,104,72
3,42,106,74
3,42,104,72
3,42,104,74
3,42,104,72
3,42,106,72
3,42,104,72
3,42,106,72
3,42,101,72
3,42,104,74
3,42,103,72
3,42,104,72
3,42,104,74
3,42,106,74
3,42,104,72
3,42,104,74
3,42,103,74
3,42,106,76
3,42,103,74
3,42,94,556
3,42,103,76
3,42,93,74
3,42,101,74
3,42,103,70
3,42,106,72
3,42,104,72
3,42,104,72
3,42,103,70
3,42,104,72
3,42,101,70
3,42,104,72
3,42,103,72
3,42,106,74
3,42,103,72
3,42,104,74
3,42,104,72
3,42,106,74
3,42,104,74
3,42,104,74
3,42,104,74
3,42,106,74
3,42,104,72
3,42,106,76
3,42,104,76
3,42,108,76
3,42,103,74
3,42,106,74
3,42,106,74
3,42,108,74
3,42,104,74
3,42,104,76
3,42,106,74
3,42,108,74
3,42,108,74
3,42,104,168
3,42,106,76
3,42,106,74
3,42,97,168
3,42,104,80
3,42,106,76
3,42,97,456
3,42,97,78
3,42,103,78
3,42,104,654
3,42,108,78
3,42,104,76
3,42,106,1996
3,42,99,76
3,42,108,78
3,42,106,70
3,42,104,74
3,42,103,74
3,42,104,76
3,42,103,74
3,42,104,74
3,42,103,74
3,42,104,74
3,42,101,72
3,42,106,76
3,42,104,168
3,42,106,168
3,42,106,166
3,42,106,166
3,42,101,72
3,42,106,76
3,42,103,72
3,42,104,72
3,42,101,72
3,42,106,74
3,42,101,72
3,42,104,72
3,42,101,70
3,42,103,74
3,42,97,72
3,42,104,72
3,42,104,166
3,42,104,166
3,42,106,166
3,42,104,168
3,42,103,72
3,42,104,74
3,42,103,74
3,42,104,74
3,42,103,74
3,42,104,76
3,42,101,74
3,42,104,74
3,42,103,72
3,42,104,74
3,42,103,74
3,42,104,72
3,42,104,74
3,42,104,74
3,42,104,74
3,42,106,74
3,42,104,74
3,42,104,74
3,42,99,74
3,42,97,3626
3,42,106,76
3,42,106,70
3,42,103,164
3,42,106,74
3,42,104,70
3,42,103,168
3,42,104,74
3,42,104,74
3,42,103,170
3,42,104,74
3,42,88,266
3,42,104,74
3,42,104,72
3,42,103,166
3,42,106,74
3,42,106,74
3,42,104,168
3,42,104,74
3,42,104,74
3,42,97,170
3,42,103,76
3,42,104,74
3,42,97,1322
3,42,106,76
3,42,106,70
3,42,103,164
3,42,106,74
3,42,104,70
3,42,103,168
3,42,104,74
3,42,104,74
3,42,103,170
3,42,104,74
3,42,88,266
3,42,104,74
3,42,104,72
3,42,103,166
3,42,106,74
3,42,106,74
3,42,104,168
3,42,104,74
3,42,104,74
3,42,97,170
3,42,103,76
3,42,104,74
4,49,93,10176
4,49,97,3432
4,49,93,7856
4,49,97,3432
4,49,93,7472
4,49,87,3432
4,49,99,366
4,49,103,364
4,49,104,174
4,49,95,942
4,49,104,364
4,49,94,170
4,49,103,176
4,49,94,7278
4,49,101,3436
4,49,101,368
4,49,103,356
4,49,101,354
4,49,104,212
4,49,103,116
4,49,101,358
4,49,103,358
4,49,103,356
4,49,106,356
4,49,103,164
4,49,106,168
4,49,101,744
4,49,101,368
4,49,103,356
4,49,101,354
4,49,104,212
4,49,103,116
4,49,101,358
4,49,103,358
4,49,103,356
4,49,106,356
4,49,103,164
4,49,106,168
5,43,111,9936
5,43,115,30
5,43,117,24
5,43,119,28
5,43,111,11154
5,43,111,30
5,43,110,26
5,43,113,26
5,43,111,28
5,43,110,10392
5,43,111,212
5,43,111,72
5,43,111,30
5,43,110,26
5,43,113,26
5,43,106,5116
5,43,102,32
5,43,103,24
5,43,103,28
5,43,107,28
5,43,113,24
5,43,113,11014
5,43,108,314
5,43,111,32
5,43,110,14
5,43,106,22
5,43,106,14
5,43,103,10
5,43,110,22
6,37,121,15936
6,37,119,356
6,37,119,336
6,37,115,338
6,37,115,320
6,37,119,350
6,37,119,342
6,37,119,344
6,37,119,338
6,37,119,344
6,37,119,350
6,37,115,348
6,37,115,354
6,37,119,350
6,37,121,6694
6,37,119,356
6,37,119,336
6,37,115,338
6,37,115,320
6,37,119,350
6,37,119,342
6,37,119,344
6,37,119,338
6,37,119,344
6,37,115,350
6,37,119,8792
6,37,119,344
6,37,119,344
6,37,111,1120
6,37,115,356
6,37,119,346
6,37,119,1122
6,37,119,350
6,37,119,350
6,37,119,348
6,37,119,352
7,37,84,768
7,37,64,122
7,37,64,122
7,37,64,110
8,27,113,1536
8,27,108,18
8,27,109,28
8,27,110,26
8,39,113,58
8,37,109,2
8,34,108,2
8,33,103,4
8,32,108,6
8,30,109,46
8,27,110,60
8,25,110,50
8,29,111,40
8,27,113,48
8,37,116,3082
8,36,111,6
8,34,110,2
8,32,110,2
8,30,116,6
8,29,111,2
8,27,113,6
8,42,110,8
8,41,109,2
8,39,116,2
8,27,109,12
8,27,109,12
8,27,105,18
8,34,97,2
8,37,109,6
8,37,113,18
8,37,113,8
8,39,101,2
8,42,109,2
8,34,109,18
8,37,110,2
8,39,103,2
8,32,110,2
8,32,108,22
8,36,110,8
8,39,110,4
8,39,110,20
8,34,110,10
8,37,113,10
8,37,113,8
8,32,110,4
8,42,109,6
8,41,110,2
8,39,113,6
8,37,95,8
8,30,110,28
8,29,105,2
8,27,110,8
8,27,109,14
8,27,108,18
8,27,109,16
8,36,93,10
8,37,99,12
8,34,100,6
8,36,97,6
8,34,94,2
8,27,104,4
8,34,98,4
8,36,98,2
8,34,96,4
8,27,110,6
8,29,95,2
8,30,109,4
8,30,108,16
8,32,105,16
8,34,100,2
8,39,110,8
8,34,107,2
8,39,116,2
8,42,110,8
8,44,109,2
8,44,110,2
8,37,110,6
8,39,109,6
8,37,113,28
8,36,109,2
8,34,113,4
8,32,108,2
8,29,103,6
8,30,109,2
8,29,95,2
8,27,96,16
8,39,88,2
8,41,98,2
8,42,110,4
8,41,105,4
8,39,110,2
8,44,109,2
8,46,100,2
8,43,109,2
8,27,113,2
8,37,110,16
8,37,116,10
8,42,106,4
8,44,102,2
8,42,109,2
8,37,108,14
8,44,107,2
8,36,113,4
8,37,109,4
8,39,110,8
8,39,116,6
8,39,113,16
8,37,110,24
8,37,116,8
8,39,108,10
8,42,110,6
8,41,110,4
8,37,107,6
8,39,116,4
8,39,101,22
8,37,107,2
8,34,108,2
8,32,103,4
8,30,108,4
8,29,107,2
8,27,113,2
8,27,113,20
8,27,109,28
8,27,113,26
8,27,107,30
8,34,101,2
8,36,102,2
8,34,105,2
8,27,108,2
8,39,110,10
8,34,108,2
8,36,98,2
8,34,106,2
8,27,113,6
8,29,103,4
8,30,108,4
8,30,102,14
8,32,109,4
8,34,109,2
8,37,108,2
8,39,106,2
8,39,116,42
8,42,109,10
8,37,110,2
8,39,110,2
8,42,106,2
8,44,109,2
8,37,113,6
8,39,110,2
8,37,113,28
8,36,110,2
8,34,110,2
8,32,108,2
8,29,106,14
8,30,107,2
8,29,107,2
8,27,110,2
8,32,110,22
8,34,110,6
8,34,108,14
8,34,105,4
8,37,108,10
8,39,102,2
8,27,110,14
8,27,107,14
8,27,109,16
8,37,108,22
8,37,113,12
8,37,109,18
8,41,108,6
8,42,110,22
8,42,109,12
8,42,109,14
8,39,109,8
8,44,107,10
8,44,109,14
8,44,107,8
8,44,103,10
8,36,108,8
8,37,113,4
8,39,113,6
8,39,109,16
8,39,113,24
8,39,106,16
8,37,110,10
8,37,109,24
8,37,110,16
8,37,107,16
8,37,108,12
8,39,103,8
8,42,110,2
8,41,111,10
8,39,109,4
8,39,113,8
8,34,108,8
8,32,103,4
8,30,113,4
8,29,106,8
8,27,113,18
8,35,113,10
8,37,113,12
8,34,113,4
8,27,110,2
8,27,109,26
8,39,110,10
8,39,109,14
8,37,106,2
8,34,105,4
8,35,111,2
8,39,110,2
8,37,109,20
8,37,110,4
8,34,110,10
8,27,113,18
8,27,110,20
8,34,107,2
8,39,110,2
8,34,109,48
8,34,109,14
8,34,107,12
8,34,108,14
8,27,113,10
8,30,108,24
8,30,109,22
8,30,103,12
8,32,110,14
8,32,101,18
8,34,107,2
8,37,107,2
8,39,109,4
8,27,108,12
8,30,107,8
8,32,103,4
8,34,95,2
8,32,100,4
8,37,106,2
8,39,102,4
8,37,116,32
8,36,106,4
8,34,110,2
8,32,108,2
8,29,107,10
8,30,109,2
8,29,101,6
8,27,108,2
8,29,101,2
8,30,109,4
8,29,101,2
8,27,110,24
8,37,109,2
8,36,106,2
8,34,106,2
8,32,107,4
8,30,103,2
8,29,107,2
8,27,109,4
8,29,96,2
8,30,108,4
8,29,102,2
8,27,110,2
8,34,106,2
8,39,109,2
8,34,105,2
8,39,110,2
8,34,101,2
8,27,109,4
8,27,107,18
8,27,108,18
8,27,109,14
8,37,110,20
8,32,109,10
8,37,113,8
8,32,113,2
8,30,110,6
8,30,107,38
8,30,110,20
8,30,103,22
8,32,107,16
8,32,108,26
8,37,109,12
8,39,106,2
8,42,105,2
8,37,107,2
8,39,113,2
8,39,110,18
8,39,110,14
8,39,110,26
8,37,110,10
8,37,113,18
8,37,110,16
8,37,110,14
8,42,110,12
8,41,108,8
8,39,108,4
8,39,109,8
8,32,107,6
8,34,108,2
8,37,110,4
8,34,110,2
8,42,113,2
8,41,108,2
8,39,113,2
