track,note,velocity,time
3,69,102,0
3,69,0,30
3,69,97,0
3,69,0,25
3,69,82,0
3,69,0,41
3,67,119,0
3,67,0,74
3,69,127,0
3,69,0,296
3,69,101,0
3,69,0,52
3,67,80,0
3,67,0,30
3,67,95,0
3,67,0,28
3,67,108,0
3,67,0,79
3,66,127,0
3,66,0,337
3,69,96,0
3,69,0,26
3,69,90,0
3,69,0,24
3,69,95,0
3,69,0,38
3,71,112,0
3,71,0,85
3,69,107,0
3,69,0,130
3,69,110,0
3,69,0,48
3,67,92,0
3,67,0,58
3,66,113,0
3,66,0,32
3,69,118,0
3,69,0,465
3,67,95,0
3,67,0,30
3,67,98,0
3,67,0,26
3,67,98,0
3,67,0,50
3,66,125,0
3,66,0,66
3,67,127,0
3,67,0,576
3,67,126,0
3,67,0,82
3,67,96,0
3,67,0,25
3,67,95,0
3,67,0,43
3,66,127,0
3,66,0,62
3,67,127,0
3,67,0,569
3,69,103,0
3,69,0,29
3,69,102,0
3,69,0,89
3,71,110,0
3,71,0,91
3,69,103,0
3,69,0,91
3,69,92,0
3,69,0,30
3,69,96,0
3,69,0,58
3,67,85,0
3,67,0,64
3,67,88,0
3,67,0,31
3,67,92,0
3,67,0,39
3,66,120,32
3,66,0,53
3,62,95,0
3,62,0,285
3,71,101,0
3,67,101,0
3,67,0,31
3,71,0,1
3,67,103,0
3,71,101,1
3,71,0,84
3,67,0,3
3,71,80,0
3,67,86,0
3,67,0,25
3,71,0,3
3,64,127,0
3,69,110,0
3,69,0,106
3,64,0,0
3,67,48,0
3,67,0,34
3,67,115,0
3,67,0,117
3,66,122,0
3,66,0,29
3,67,101,0
3,67,0,49
3,66,125,0
3,66,0,29
3,67,91,0
3,67,0,51
3,66,127,0
3,66,0,45
3,62,98,0
3,62,0,322
3,67,102,0
3,71,101,0
3,71,0,30
3,67,0,0
3,67,107,0
3,71,107,0
3,71,0,77
3,67,0,3
3,67,101,0
3,71,101,0
3,67,0,69
3,71,0,19
3,64,114,0
3,69,110,0
3,69,0,98
3,64,0,1
3,64,96,0
3,69,107,2
3,64,0,91
3,69,0,1
3,64,97,0
3,69,88,2
3,69,0,48
3,71,84,0
3,64,0,9
3,71,0,32
3,69,89,0
3,69,0,78
3,66,127,0
3,66,0,400
3,67,91,0
3,71,95,0
3,67,0,30
3,71,0,1
3,71,103,0
3,67,104,0
3,67,0,28
3,71,0,1
3,71,101,0
3,67,92,2
3,67,0,23
3,71,0,5
3,69,102,0
3,73,125,0
3,73,0,211
3,69,0,6
3,73,113,0
3,69,88,0
3,69,0,26
3,73,0,3
3,73,120,0
3,69,98,1
3,73,0,85
3,69,0,3
3,73,110,0
3,69,98,1
3,73,0,87
3,69,0,5
3,74,92,0
3,74,0,235
3,69,108,0
3,69,0,119
3,66,120,0
3,66,0,59
3,67,107,0
3,67,0,303
3,67,102,0
3,67,0,29
3,67,95,0
3,67,0,29
3,69,112,0
3,69,0,34
3,67,114,0
3,67,0,88
3,67,104,0
3,67,0,104
3,66,125,0
3,66,0,64
3,64,98,0
3,64,0,30
3,62,101,0
3,62,0,270
3,69,68,0
3,69,0,30
3,69,95,0
3,69,0,32
3,69,97,0
3,69,0,27
3,69,98,0
3,69,0,49
3,67,98,0
3,67,0,76
3,69,114,0
3,69,0,433
3,69,91,0
3,69,0,36
3,69,91,0
3,69,0,48
3,67,95,0
3,67,0,66
3,67,84,0
3,67,0,37
3,67,91,0
3,67,0,52
3,66,122,0
3,66,0,453
3,69,95,0
3,69,0,32
3,69,91,0
3,69,0,29
3,69,90,0
3,69,0,45
3,71,89,0
3,71,0,90
3,69,86,0
3,69,0,29
3,69,103,0
3,69,0,29
3,69,104,0
3,69,0,82
3,67,91,0
3,67,0,68
3,66,120,0
3,66,0,49
3,69,107,0
3,69,0,389
3,67,83,0
3,67,0,35
3,67,84,0
3,67,0,31
3,67,97,0
3,67,0,24
3,67,103,0
3,67,0,45
3,66,127,0
3,66,0,66
3,67,127,0
3,67,0,483
3,67,114,0
3,67,0,39
3,67,118,0
3,67,0,78
3,67,115,0
3,67,0,30
3,67,98,0
3,67,0,42
3,66,127,0
3,66,0,44
3,67,127,0
3,67,0,498
3,69,112,0
3,69,0,91
3,69,95,0
3,69,0,32
3,69,98,0
3,69,0,46
3,71,108,0
3,71,0,98
3,69,107,0
3,69,0,129
3,69,112,0
3,69,0,50
3,67,92,0
3,67,0,77
3,67,89,0
3,67,0,34
3,67,95,0
3,67,0,43
3,66,118,26
3,66,0,55
3,62,98,0
3,62,0,282
3,67,88,0
3,71,89,0
3,67,0,32
3,71,0,1
3,67,101,0
3,71,92,0
3,71,0,84
3,67,0,1
3,71,77,0
3,67,80,0
3,67,0,29
3,71,0,0
3,69,90,0
3,64,103,6
3,69,0,90
3,64,0,10
3,67,108,0
3,67,0,38
3,67,104,0
3,67,0,107
3,66,122,0
3,66,0,30
3,67,98,0
3,67,0,54
3,66,127,0
3,66,0,30
3,67,98,0
3,66,127,0
3,67,0,3
3,66,0,44
3,62,95,0
3,62,0,297
3,71,102,0
3,67,98,0
3,67,0,27
3,71,0,1
3,71,95,0
3,67,98,0
3,67,0,82
3,71,0,0
3,71,92,0
3,67,92,0
3,67,0,60
3,71,0,18
3,64,114,0
3,69,101,0
3,69,0,97
3,64,0,3
3,64,92,0
3,69,104,1
3,64,0,94
3,69,0,1
3,69,97,0
3,64,102,0
3,69,0,44
3,71,78,0
3,64,0,3
3,71,0,38
3,69,88,0
3,66,125,0
3,69,0,2
3,66,0,380
3,67,76,0
3,71,92,0
3,71,0,28
3,67,0,0
3,71,89,0
3,67,66,6
3,67,0,13
3,71,0,2
3,71,82,0
3,67,77,0
3,67,0,27
3,71,0,0
3,69,102,0
3,73,125,2
3,73,0,202
3,69,0,5
3,73,106,0
3,69,85,0
3,69,0,25
3,73,0,1
3,69,101,0
3,73,120,0
3,73,0,76
3,69,0,3
3,69,102,0
3,73,110,1
3,73,0,85
3,69,0,10
3,74,92,0
3,69,110,0
3,74,0,7
3,69,0,65
3,66,120,0
3,66,0,23
3,67,108,0
3,67,0,345
3,67,85,0
3,67,0,28
3,67,101,0
3,67,0,94
3,67,98,0
3,67,0,184
3,66,108,2
3,66,0,119
3,62,70,0
3,64,115,0
3,62,0,5
3,67,88,0
3,64,0,4
3,67,0,34
3,67,104,0
3,67,0,95
3,66,120,0
3,64,103,0
3,66,0,1
3,64,0,52
3,62,104,0
3,62,0,221
3,69,97,0
3,69,0,32
3,69,102,0
3,69,0,28
3,69,101,0
3,69,0,30
3,69,95,0
3,69,0,57
3,67,101,0
3,67,0,69
3,69,124,0
3,69,0,305
3,69,91,0
3,69,0,59
3,67,96,0
3,67,0,69
3,67,96,0
3,67,0,32
3,67,95,0
3,67,0,52
3,66,127,0
3,66,0,299
3,69,104,0
3,69,0,40
3,69,104,0
3,69,0,91
3,71,112,0
3,71,0,91
3,69,97,0
3,69,0,74
3,69,104,0
3,69,0,34
3,69,102,0
3,69,0,68
3,67,96,0
3,67,0,62
3,66,115,0
3,66,0,46
3,69,107,0
3,69,0,383
3,67,90,0
3,67,0,37
3,67,90,0
3,67,0,35
3,67,118,0
3,67,0,85
3,67,101,0
3,67,0,26
3,67,90,0
3,67,0,49
3,66,115,0
3,66,0,66
3,67,119,0
3,67,0,502
3,67,83,0
3,69,84,1
3,69,0,35
3,67,0,2
3,67,104,0
3,67,0,93
3,67,86,0
3,67,0,28
3,67,90,0
3,67,0,60
3,66,113,0
3,66,0,49
3,67,126,0
3,67,0,517
3,69,88,0
3,69,0,39
3,69,101,0
3,69,0,92
3,69,85,0
3,69,0,31
3,69,89,0
3,69,0,48
3,71,102,0
3,71,0,99
3,69,84,0
3,69,0,33
3,69,90,0
3,69,0,32
3,69,90,0
3,69,0,100
3,67,82,0
3,67,0,30
3,67,89,0
3,67,0,30
3,67,97,0
3,67,0,133
3,66,110,0
3,66,0,51
3,62,85,0
3,62,0,287
3,71,90,0
3,67,89,0
3,67,0,28
3,71,0,1
3,67,95,0
3,71,91,0
3,71,0,79
3,67,0,2
3,71,65,0
3,67,71,0
3,71,0,31
3,67,0,2
3,69,88,0
3,64,103,4
3,69,0,95
3,67,80,0
3,64,0,13
3,67,0,36
3,67,96,0
3,67,0,116
3,66,106,0
3,66,0,29
3,67,97,0
3,66,113,0
3,67,0,8
3,66,0,31
3,67,84,0
3,66,122,0
3,67,0,6
3,66,0,46
3,62,89,0
3,62,0,286
3,67,89,0
3,71,84,1
3,71,0,29
3,67,0,0
3,67,104,0
3,71,91,2
3,71,0,82
3,67,0,1
3,67,103,0
3,71,95,0
3,67,0,53
3,71,0,19
3,64,104,0
3,69,104,0
3,64,0,97
3,69,0,3
3,69,97,0
3,69,0,97
3,69,103,0
3,69,0,50
3,71,85,0
3,71,0,34
3,69,82,0
3,66,125,0
3,69,0,7
3,66,0,367
3,71,82,0
3,67,71,0
3,67,0,25
3,71,0,0
3,71,85,0
3,67,67,1
3,67,0,16
3,71,0,2
3,71,82,0
3,67,72,6
3,67,0,24
3,71,0,0
3,69,90,0
3,73,122,6
3,73,0,178
3,69,0,3
3,69,95,0
3,73,110,0
3,73,0,25
3,69,0,1
3,73,103,0
3,69,86,0
3,69,0,77
3,73,0,2
3,73,110,0
3,69,101,0
3,73,0,69
3,69,0,17
3,74,92,0
3,69,108,0
3,74,0,8
3,69,0,55
3,66,127,0
3,66,0,25
3,67,112,0
3,67,0,317
3,67,97,0
3,67,0,28
3,67,95,0
3,67,0,30
3,67,97,0
3,66,80,134
3,67,0,5
3,66,0,93
3,64,92,0
3,64,0,351
3,66,110,0
3,66,0,34
3,66,82,0
3,66,0,99
3,67,108,0
3,66,92,0
3,67,0,8
3,64,77,54
3,66,0,4
3,62,98,0
3,64,0,1
3,62,0,355
3,71,96,0
3,71,0,73
3,69,101,44
3,69,0,39
3,69,107,0
3,69,0,251
3,71,97,0
3,71,0,28
3,71,91,0
3,71,0,24
3,71,96,0
3,71,0,33
3,73,115,0
3,73,0,195
3,73,94,0
3,73,0,29
3,73,106,0
3,73,0,79
3,73,110,0
3,73,0,82
3,74,95,0
3,69,90,0
3,74,0,1
3,69,0,68
3,66,118,0
3,66,0,27
3,67,92,0
3,67,0,329
3,67,86,0
3,67,0,27
3,67,86,0
3,67,0,29
3,67,97,0
3,67,0,113
3,66,72,1
3,66,0,50
3,64,90,0
3,64,0,418
3,66,101,0
3,66,0,30
3,66,106,0
3,66,0,35
3,67,98,0
3,67,0,97
3,66,103,1
3,64,97,0
3,66,0,2
3,64,0,111
3,62,102,0
3,62,0,231
4,38,88,479
4,38,0,127
4,38,72,51
4,38,0,62
4,40,64,2
4,40,0,72
4,42,58,40
4,42,0,80
4,43,73,44
4,43,0,131
4,43,65,48
4,43,0,28
4,43,71,37
4,43,0,161
4,33,66,73
4,33,0,229
4,35,61,8
4,35,0,104
4,37,64,16
4,37,0,72
4,38,66,45
4,38,0,144
4,38,62,42
4,33,74,58
4,38,0,6
4,33,0,143
4,33,66,31
4,33,0,65
4,38,78,0
4,38,0,137
4,38,69,43
4,38,0,60
4,33,70,0
4,33,0,33
4,33,76,22
4,35,85,58
4,33,0,4
4,35,0,41
4,37,56,11
4,37,0,56
4,38,78,11
4,38,0,135
4,38,57,47
4,33,83,60
4,38,0,2
4,33,0,136
4,33,70,41
4,33,0,51
4,38,72,10
4,38,0,130
4,38,62,41
4,38,0,64
4,33,80,2
4,33,0,42
4,33,68,17
4,33,0,56
4,35,75,5
4,35,0,56
4,37,64,4
4,37,0,50
4,38,79,12
4,38,0,132
4,38,60,44
4,38,0,49
4,33,92,13
4,33,0,143
4,33,66,36
4,33,0,57
4,38,85,9
4,38,0,134
4,38,66,42
4,33,79,65
4,38,0,2
4,33,0,116
4,35,70,3
4,35,0,50
4,37,73,4
4,37,0,54
4,38,75,11
4,38,0,136
4,38,68,41
4,38,0,57
4,33,85,2
4,33,0,114
4,33,69,60
4,33,0,50
4,38,79,9
4,38,0,129
4,38,73,58
4,38,0,62
4,33,85,0
4,33,0,108
4,38,78,4
4,38,0,88
4,33,71,33
4,33,0,137
4,33,66,48
4,28,78,57
4,33,0,9
4,28,0,141
4,28,79,30
4,33,86,61
4,28,0,5
4,33,0,142
4,33,74,36
4,28,79,59
4,33,0,2
4,28,0,78
4,28,74,39
4,28,0,107
4,33,82,13
4,33,0,150
4,33,68,28
4,33,0,59
4,28,85,3
4,28,0,147
4,28,62,30
4,33,78,59
4,28,0,4
4,33,0,123
4,33,57,60
4,40,66,58
4,33,0,7
4,40,0,79
4,40,67,33
4,40,0,111
4,33,86,3
4,33,0,144
4,33,60,34
4,28,63,66
4,33,0,12
4,28,0,92
4,28,52,77
4,28,0,53
4,33,74,9
4,33,0,124
4,33,60,55
4,40,72,56
4,33,0,11
4,40,0,66
4,40,68,43
4,40,0,98
4,33,76,18
4,33,0,123
4,33,71,50
4,33,0,45
4,28,76,18
4,28,0,148
4,28,60,32
4,28,0,56
4,33,92,9
4,33,0,107
4,33,67,79
4,33,0,47
4,35,78,6
4,35,0,78
4,37,81,40
4,37,0,77
4,38,60,41
4,38,0,140
4,38,73,51
4,38,0,53
4,33,99,9
4,33,0,122
4,33,66,45
4,33,0,55
4,38,78,13
4,38,0,144
4,38,68,38
4,38,0,32
4,40,74,29
4,40,0,65
4,42,75,61
4,42,0,65
4,43,74,48
4,43,0,138
4,43,74,37
4,43,0,26
4,43,75,33
4,43,0,135
4,43,40,58
4,41,31,4
4,41,0,38
4,43,0,4
4,33,75,10
4,33,0,135
4,33,64,46
4,33,0,60
4,35,80,1
4,35,0,71
4,37,79,42
4,37,0,75
4,38,66,43
4,38,0,137
4,38,68,45
4,38,0,56
4,33,73,6
4,31,66,1
4,31,0,33
4,33,0,108
4,33,76,38
4,33,0,61
4,38,65,8
4,38,0,126
4,38,66,48
4,38,0,41
4,40,64,14
4,40,0,72
4,42,84,48
4,42,0,86
4,43,78,30
4,43,0,133
4,43,73,51
4,43,0,34
4,43,73,26
4,43,0,90
4,43,62,30
4,43,0,91
4,33,80,26
4,33,0,140
4,33,73,41
4,33,0,42
4,35,88,14
4,35,0,101
4,37,73,24
4,37,0,90
4,38,74,29
4,38,0,134
4,38,73,51
4,33,79,56
4,38,0,3
4,33,0,143
4,33,68,41
4,33,0,60
4,38,79,3
4,38,0,129
4,38,68,42
4,38,0,52
4,40,70,9
4,40,0,81
4,42,77,43
4,42,0,99
4,43,66,17
4,43,0,146
4,43,66,34
4,43,0,24
4,43,74,31
4,43,0,145
4,43,70,45
4,43,0,48
4,33,78,14
4,33,0,116
4,33,65,56
4,33,0,54
4,35,66,0
4,35,0,84
4,37,71,44
4,37,0,49
4,38,88,79
4,38,0,215
4,42,75,20
4,42,0,243
4,43,85,4
4,43,0,414
4,33,64,69
4,33,0,130
4,33,70,35
4,33,0,60
4,40,78,3
4,40,0,88
4,40,66,28
4,40,0,105
4,33,73,9
4,33,0,136
4,33,72,47
4,33,0,58
4,35,80,7
4,35,0,84
4,37,68,33
4,37,0,100
4,38,66,17
4,38,0,134
4,38,63,42
4,33,78,63
4,38,0,7
4,33,0,115
4,33,60,50
4,33,0,67
4,38,64,4
4,38,0,143
4,38,70,48
4,38,0,52
4,33,80,8
4,33,0,29
4,33,67,24
4,33,0,46
4,35,69,16
4,35,0,39
4,37,79,21
4,37,0,41
4,38,52,24
4,40,56,1
4,40,0,36
4,38,0,98
4,38,66,39
4,38,0,48
4,33,72,13
4,33,0,121
4,33,67,52
4,33,0,55
4,38,72,7
4,38,0,129
4,38,62,61
4,38,0,51
4,33,79,8
4,33,0,72
4,33,80,41
4,33,0,95
4,38,63,30
4,38,0,123
4,38,65,54
4,38,0,48
4,33,85,3
4,33,0,130
4,33,66,47
4,33,0,54
4,38,71,14
4,38,0,129
4,38,67,49
4,38,0,58
4,33,79,12
4,33,0,32
4,33,67,27
4,33,0,54
4,35,57,9
4,35,0,37
