track,note,velocity,time
2,37,122,1152
2,38,126,0
2,38,106,32
2,33,110,0
2,38,127,0
2,33,108,0
2,38,127,2
2,33,127,0
2,38,121,2
2,33,121,0
2,38,127,2
2,33,127,0
2,38,127,2
2,33,116,2
2,38,106,2
2,40,127,2
2,41,107,0
2,43,115,0
2,43,113,2
2,38,121,2
2,33,127,2
2,37,113,2
2,38,127,2
2,33,122,2
2,38,109,2
2,31,127,2
2,39,127,2
2,40,125,2
2,35,110,2
2,33,127,2
2,40,108,2
2,31,127,2
2,38,109,2
2,31,127,2
2,38,119,2
2,38,127,2
2,33,120,2
2,38,113,2
2,33,127,2
2,31,112,2
2,38,122,2
2,33,123,2
2,40,127,2
2,38,110,2
2,33,113,2
2,38,127,2
2,33,106,2
2,31,124,2
2,38,127,2
2,31,108,2
2,38,127,2
2,38,121,2
2,33,127,2
2,38,119,2
2,33,106,2
2,28,119,2
2,35,123,2
2,28,121,2
2,35,127,2
2,33,121,2
2,35,123,2
2,36,127,2
2,37,127,2
2,33,110,2
2,35,123,2
2,37,127,2
2,31,127,2
2,38,117,2
2,31,127,2
2,38,127,2
2,38,126,2
2,33,127,2
2,38,113,2
2,33,119,2
2,31,117,2
2,38,127,2
2,33,127,2
2,40,127,2
2,38,110,2
2,33,121,2
2,38,110,2
2,33,113,2
2,38,123,2
2,33,125,2
2,38,127,2
2,40,126,2
2,41,119,0
2,43,124,0
2,43,127,2
2,38,127,2
2,33,107,2
2,36,114,2
2,38,111,2
2,33,127,2
2,38,114,2
2,38,127,2
2,39,118,2
2,40,110,2
2,35,113,2
2,33,121,2
2,40,124,2
2,31,109,2
2,38,122,2
2,31,125,2
2,38,107,2
2,38,124,2
2,33,111,2
2,38,108,2
2,33,127,2
2,31,127,2
2,38,106,2
2,33,127,2
2,40,126,2
2,38,117,2
2,33,107,2
2,38,112,2
2,33,112,2
2,31,122,2
2,38,127,2
2,31,119,2
2,38,126,2
2,38,115,2
2,33,127,2
2,38,118,2
2,33,113,2
2,28,124,2
2,35,127,2
2,28,111,2
2,35,118,2
2,33,114,2
2,35,127,2
2,36,127,2
2,37,120,2
2,33,107,2
2,35,121,2
2,37,125,2
2,31,127,2
2,38,127,2
2,31,127,2
2,38,124,2
2,38,120,2
2,33,124,2
2,38,126,2
2,33,125,2
2,31,121,2
2,38,123,2
2,33,126,2
2,40,109,2
2,38,117,2
2,33,111,2
2,38,127,2
2,33,127,2
2,31,114,2
2,38,111,2
2,33,127,2
2,40,127,2
2,38,123,2
2,33,123,2
2,38,127,2
2,33,120,2
2,38,106,176
3,69,70,0
3,69,79,10
3,67,64,50
3,66,71,6
3,62,54,2
3,62,63,128
3,65,61,122
3,66,60,100
3,68,65,78
3,69,67,82
3,73,64,4
3,74,69,4
3,77,61,2
3,78,67,114
3,81,64,114
3,81,67,42
3,79,67,0
3,81,64,10
3,79,67,58
3,77,67,6
3,78,65,44
3,74,67,12
4,50,126,5014
4,54,110,2
4,57,117,2
4,54,96,366
4,50,116,0
4,57,117,0
4,57,122,396
4,50,110,0
4,54,110,0
4,57,107,352
4,54,88,0
4,50,110,2
4,57,112,362
4,54,102,0
4,50,115,0
4,57,115,354
4,50,120,0
4,54,102,0
4,50,116,352
4,57,108,0
4,54,88,0
4,57,116,340
4,50,119,0
4,54,108,0
4,57,117,344
4,50,126,0
4,54,114,0
4,50,119,378
4,57,119,0
4,54,102,2
4,57,117,366
4,54,122,0
4,50,119,0
4,50,127,394
4,57,127,0
4,54,122,0
4,57,124,364
4,54,122,2
4,50,127,0
4,55,127,1168
4,59,127,0
4,50,127,2
4,50,127,400
4,59,122,0
4,55,119,0
4,57,113,358
4,50,115,0
4,54,112,0
4,50,119,366
4,57,117,0
4,54,106,0
4,57,117,362
4,50,117,0
4,54,108,0
4,57,110,400
4,54,99,0
4,50,111,0
4,50,117,392
4,54,108,2
4,57,120,0
4,56,98,1148
4,59,126,0
4,52,117,0
4,56,114,358
4,52,117,0
4,59,126,0
4,49,110,384
4,57,127,0
4,52,127,0
4,49,99,356
4,52,127,0
4,57,127,0
4,55,117,376
4,50,115,0
4,59,116,0
4,59,108,386
4,50,112,2
4,55,116,0
4,50,119,352
4,59,111,0
4,55,119,0
4,59,120,368
4,50,122,0
4,55,124,2
4,57,113,394
4,50,109,0
4,54,112,2
4,57,104,400
4,50,119,0
4,54,110,2
4,50,120,394
4,54,114,0
4,57,109,2
4,50,127,420
4,54,122,2
4,57,122,0
4,55,127,386
4,50,127,0
4,59,126,0
4,59,127,370
4,50,124,0
4,55,127,0
4,52,120,358
4,61,102,2
4,57,126,0
4,57,127,352
4,61,112,2
4,52,124,0
4,50,110,348
4,54,108,0
4,57,103,2
4,57,122,400
4,54,114,0
4,50,127,0
4,50,127,390
4,57,117,0
4,54,110,0
4,54,117,0
4,57,127,0
4,54,100,418
4,57,108,0
4,50,115,0
4,59,127,424
4,55,120,0
4,50,110,0
4,59,127,370
4,50,127,2
4,55,119,0
4,50,124,352
4,59,126,0
4,55,113,2
4,50,119,366
4,59,122,0
4,55,120,0
4,50,117,364
4,54,120,2
4,57,112,0
4,54,110,380
4,57,126,2
4,50,127,0
4,50,124,364
4,54,112,0
4,57,127,2
4,54,106,418
4,50,124,0
4,57,122,0
4,56,104,394
4,52,107,0
4,59,115,2
4,56,110,362
4,52,111,0
4,59,108,2
4,59,112,330
4,52,115,0
4,56,110,0
4,56,106,388
4,52,113,0
4,59,109,2
4,57,126,368
4,61,99,0
4,52,117,2
4,57,111,390
4,61,93,2
4,52,110,0
4,61,117,424
4,52,127,0
4,57,127,0
4,61,122,358
4,57,127,0
4,52,115,0
4,59,126,422
4,55,126,0
4,50,110,2
4,50,126,384
4,59,127,2
4,55,124,0
4,59,127,400
4,50,126,0
4,55,126,0
4,50,124,370
4,55,124,0
4,59,119,2
4,50,122,400
4,57,124,0
4,54,117,2
4,50,127,398
4,57,127,2
4,54,110,0
4,50,126,386
4,57,126,0
4,54,114,0
4,50,124,426
4,54,117,2
4,57,127,0
4,59,124,414
4,50,126,0
4,55,116,2
4,59,127,404
4,50,126,0
4,55,127,0
4,57,126,390
4,61,110,2
4,52,120,0
4,52,127,362
4,61,120,0
4,57,127,0
4,57,127,380
4,50,127,2
4,54,117,0
4,57,127,384
4,54,122,2
4,50,122,0
4,57,124,394
4,54,120,0
4,50,126,0
4,57,127,394
4,50,127,2
4,54,114,0
4,50,127,388
4,54,117,0
4,57,117,2
4,50,120,360
4,57,116,0
4,54,100,0
4,50,119,366
4,54,106,0
4,57,122,2
4,50,127,1158
4,55,116,0
4,59,127,2
4,59,127,390
4,50,126,0
4,55,127,2
4,50,120,382
4,57,119,0
4,54,114,0
4,50,124,386
4,54,110,0
4,57,117,0
4,50,120,398
4,57,126,2
4,54,110,0
4,50,127,348
4,57,127,2
4,54,110,0
4,50,124,350
4,54,110,0
4,57,127,0
4,50,122,374
4,54,104,2
4,57,127,0
4,52,119,352
4,56,108,0
4,59,119,0
4,59,126,342
4,56,112,0
4,52,124,0
4,61,106,356
4,57,120,0
4,52,113,2
4,52,122,310
4,57,124,2
4,61,120,0
4,59,119,394
4,50,119,0
4,55,119,0
4,55,124,392
4,59,127,0
4,50,124,0
4,50,120,388
4,59,127,0
4,55,127,0
4,59,127,382
4,50,124,0
4,55,127,0
4,54,117,394
4,57,127,0
4,50,127,0
4,54,120,374
4,57,127,0
4,50,127,0
4,50,126,372
4,54,108,0
4,57,127,2
4,57,127,360
4,50,127,0
4,54,122,2
4,55,127,392
4,59,127,0
4,50,120,0
4,59,126,330
4,50,126,0
4,55,127,0
4,61,106,370
4,52,122,0
4,57,127,0
4,57,127,340
4,52,127,0
4,61,117,0
4,57,119,360
4,62,113,0
4,54,104,2
4,57,127,340
4,54,114,0
4,62,127,2
4,62,127,336
4,57,127,0
4,54,117,0
4,57,127,380
4,62,127,0
4,54,117,2
4,59,127,368
4,55,119,2
4,50,116,0
4,59,127,330
4,55,127,2
4,50,122,0
4,59,124,384
4,55,124,2
4,50,119,0
4,59,124,390
4,55,127,0
4,50,124,2
4,57,116,402
4,50,120,0
4,54,108,0
4,54,112,360
4,50,124,0
4,57,127,0
4,54,108,368
4,57,124,2
4,50,120,0
4,54,114,388
4,57,127,2
4,50,127,0
4,56,99,418
4,52,119,0
4,59,119,0
4,59,119,364
4,56,98,0
4,52,116,0
4,56,112,328
4,52,126,0
4,59,127,0
4,56,108,290
4,52,122,2
4,59,127,0
4,57,127,392
4,61,120,0
4,52,120,0
4,52,113,372
4,57,116,0
4,61,108,2
4,52,113,358
4,61,108,0
4,57,111,2
4,61,117,450
4,52,126,0
4,57,127,0
4,59,126,396
4,55,127,2
4,50,119,0
4,59,126,314
4,55,124,0
4,50,119,0
4,50,119,344
4,59,119,0
4,55,122,0
4,59,127,350
4,50,127,0
4,55,124,2
4,57,110,344
4,50,120,0
4,54,117,2
4,57,111,304
4,50,120,0
4,54,110,0
4,54,117,362
4,50,119,0
4,57,116,0
4,50,120,398
4,54,110,0
4,57,110,2
4,59,124,386
4,50,127,0
4,55,126,2
4,59,127,364
4,55,127,0
4,50,127,0
4,61,117,364
4,57,127,0
4,52,127,2
4,61,117,372
4,52,127,0
4,57,127,0
4,62,122,356
4,57,124,2
4,54,117,0
4,62,127,382
4,57,124,0
4,54,114,0
4,62,127,378
4,57,127,0
4,54,114,0
4,57,127,402
4,62,127,0
4,54,120,0
4,59,127,424
4,55,127,0
4,50,111,0
4,59,126,368
4,50,119,0
4,55,126,0
4,61,110,378
4,57,127,0
4,52,127,0
4,61,112,362
4,52,120,2
4,57,127,0
4,62,127,398
4,57,127,0
4,54,117,4
4,62,127,370
4,54,114,0
4,57,127,0
4,61,122,346
4,57,127,8
4,52,108,6
4,50,119,192
4,54,106,6
4,57,127,2
4,62,122,24
5,37,102,1152
5,38,106,0
5,38,86,32
5,33,90,0
5,38,110,0
5,33,88,0
5,38,115,2
5,33,114,0
5,38,101,2
5,33,101,0
5,38,110,2
5,33,111,0
5,38,109,2
5,33,96,2
5,38,86,2
5,40,114,2
5,41,87,0
5,43,95,0
5,43,93,2
5,38,101,2
5,33,112,2
5,37,93,2
5,38,114,2
5,33,102,2
5,38,89,2
5,31,107,2
5,39,113,2
5,40,105,2
5,35,90,2
5,33,114,2
5,40,88,2
5,31,112,2
5,38,89,2
5,31,113,2
5,38,99,2
5,38,114,2
5,33,100,2
5,38,93,2
5,33,115,2
5,31,92,2
5,38,102,2
5,33,103,2
5,40,114,2
5,38,90,2
5,33,93,2
5,38,113,2
5,33,86,2
5,31,104,2
5,38,110,2
5,31,88,2
5,38,107,2
5,38,101,2
5,33,113,2
5,38,99,2
5,33,86,2
5,28,99,2
5,35,103,2
5,28,101,2
5,35,111,2
5,33,101,2
5,35,103,2
5,36,110,2
5,37,115,2
5,33,90,2
5,35,103,2
5,37,115,2
5,31,112,2
5,38,97,2
5,31,108,2
5,38,109,2
5,38,106,2
5,33,108,2
5,38,93,2
5,33,99,2
5,31,97,2
5,38,110,2
5,33,112,2
5,40,112,2
5,38,90,2
5,33,101,2
5,38,90,2
5,33,93,2
5,38,103,2
5,33,105,2
5,38,114,2
5,40,106,2
5,41,99,0
5,43,104,0
5,43,111,2
5,38,110,2
5,33,87,2
5,36,94,2
5,38,91,2
5,33,109,2
5,38,94,2
5,38,108,2
5,39,98,2
5,40,90,2
5,35,93,2
5,33,101,2
5,40,104,2
5,31,89,2
5,38,102,2
5,31,105,2
5,38,87,2
5,38,104,2
5,33,91,2
5,38,88,2
5,33,109,2
5,31,109,2
5,38,86,2
5,33,113,2
5,40,106,2
5,38,97,2
5,33,87,2
5,38,92,2
5,33,92,2
5,31,102,2
5,38,114,2
5,31,99,2
5,38,106,2
5,38,95,2
5,33,110,2
5,38,98,2
5,33,93,2
5,28,104,2
5,35,108,2
5,28,91,2
5,35,98,2
5,33,94,2
5,35,113,2
5,36,115,2
5,37,100,2
5,33,87,2
5,35,101,2
5,37,105,2
5,31,114,2
5,38,115,2
5,31,111,2
5,38,104,2
5,38,100,2
5,33,104,2
5,38,106,2
5,33,105,2
5,31,101,2
5,38,103,2
5,33,106,2
5,40,89,2
5,38,97,2
5,33,91,2
5,38,109,2
5,33,111,2
5,31,94,2
5,38,91,2
5,33,112,2
5,40,113,2
5,38,103,2
5,33,103,2
5,38,109,2
5,33,100,2
5,38,86,176
6,79,72,15414
6,83,72,70
6,79,66,14
6,83,68,44
6,79,64,20
6,83,68,16
6,79,66,10
6,83,68,2
6,79,67,16
6,83,70,52
6,79,66,8
6,83,71,0
6,79,64,24
6,83,71,2
6,79,64,18
6,83,69,12
6,79,65,12
6,83,68,8
6,79,66,14
6,83,68,8
6,79,65,18
6,83,67,14
6,79,66,12
6,83,68,8
6,66,64,48
6,69,65,0
6,66,64,196
6,74,68,0
6,80,69,1252
6,88,69,70
6,80,60,4
6,88,65,16
6,80,61,36
6,88,63,0
6,80,62,60
6,80,62,0
6,88,64,12
6,80,64,10
6,88,64,0
6,80,64,60
6,81,64,308
6,85,62,38
6,81,64,28
6,85,62,54
6,81,63,18
6,85,63,56
6,81,62,30
6,85,63,26
6,81,64,18
6,85,62,44
6,81,64,20
6,85,64,40
6,85,64,62
6,81,63,18
6,85,65,34
6,81,66,8
6,85,60,48
6,78,64,1864
6,79,66,26
6,74,66,158
6,76,67,10
6,74,63,2
6,71,66,8
6,69,62,16
6,67,63,16
6,65,67,110
6,66,65,62
6,62,64,126
6,79,68,1904
6,74,67,0
6,76,68,46
6,73,64,126
6,71,67,172
6,69,64,2
6,67,66,240
6,65,67,104
6,66,64,16
6,62,65,10
6,65,63,756
6,66,59,116
6,74,65,0
6,79,63,1694
6,83,64,0
6,77,66,302
6,78,61,40
6,81,65,8
6,81,63,8
6,78,60,22
6,78,60,30
6,79,66,18
6,76,62,8
6,78,64,114
6,74,64,12
6,83,65,324
6,80,61,0
6,80,62,132
6,76,63,6
6,74,65,716
6,69,65,18
6,69,65,28
6,71,67,362
6,72,68,374
6,73,68,372
6,71,65,18
6,69,65,22
6,67,67,4
6,62,66,4
6,59,64,2
6,70,68,128
6,71,70,18
6,74,67,2
6,69,68,10
6,71,66,4
6,67,65,12
6,64,68,452
6,66,66,0
6,64,72,420
6,66,67,0
6,64,66,64
6,62,68,6
6,66,67,538
6,67,68,342
6,69,69,388
6,67,66,8
6,71,65,4
6,73,64,0
6,69,67,8
6,74,66,20
6,69,67,0
6,66,62,8
6,78,67,14
6,74,67,0
6,69,65,0
6,66,65,0
6,66,65,72
6,69,65,0
6,69,65,334
6,66,65,0
6,66,65,78
6,69,65,0
6,66,65,62
6,69,65,0
6,69,65,330
6,66,65,0
6,66,65,68
6,69,65,0
6,66,65,62
6,69,65,0
6,69,65,318
6,66,65,0
6,66,65,68
6,69,65,0
6,66,65,56
6,69,65,0
6,67,65,434
6,71,65,0
6,67,65,62
6,71,65,0
6,71,65,310
6,67,65,0
6,67,65,68
6,71,65,0
6,67,65,68
6,71,65,0
6,69,65,304
6,66,65,0
6,66,65,62
6,69,65,0
6,66,65,58
6,69,65,0
6,66,65,312
6,69,65,0
6,66,65,68
6,69,65,0
6,69,65,58
6,66,65,0
6,66,65,328
6,69,65,0
6,66,65,70
6,69,65,0
6,66,65,62
6,69,65,0
6,66,65,318
6,69,65,0
6,66,65,66
6,69,65,0
6,66,65,62
6,69,65,0
6,66,65,306
6,69,65,68
6,66,65,0
6,66,65,38
6,69,65,0
6,66,65,316
6,69,65,0
6,66,65,58
6,69,65,0
6,66,65,22
6,69,65,0
6,68,65,438
6,71,65,0
6,68,65,64
6,71,65,0
6,68,65,318
6,71,65,0
6,68,65,62
6,71,65,0
6,68,65,40
6,71,65,324
6,68,65,0
6,69,65,48
6,73,65,0
6,69,65,52
6,73,65,0
6,69,65,310
6,73,65,0
6,69,65,76
6,73,65,0
6,69,65,46
6,73,65,0
6,67,65,446
6,71,65,0
6,71,65,62
6,67,65,0
