track,note,velocity,time
1,50,90,3552
1,54,90,0
1,57,90,0
1,54,0,74
1,50,0,20
1,54,90,2
1,50,90,48
1,54,0,77
1,54,90,19
1,57,0,1
1,57,90,47
1,50,90,96
1,55,90,0
1,59,90,0
1,50,0,4
1,57,0,4
1,54,0,2
1,50,0,182
1,59,0,0
1,55,0,0
1,52,90,0
1,61,90,0
1,57,90,0
1,57,90,96
1,57,0,96
1,52,0,0
1,61,0,0
1,57,0,0
1,50,90,0
1,54,90,0
1,57,90,0
1,54,0,74
1,50,0,20
1,54,90,2
1,50,90,48
1,54,0,77
1,54,90,19
1,57,0,1
1,57,90,47
1,50,90,96
1,55,90,0
1,59,90,0
1,50,0,4
1,57,0,4
1,54,0,2
1,50,0,182
1,59,0,0
1,55,0,0
1,52,90,0
1,61,90,0
1,57,90,0
1,57,90,96
1,57,0,96
1,52,0,0
1,61,0,0
1,57,0,0
1,50,90,0
1,54,90,0
1,57,90,0
1,54,0,74
1,50,0,20
1,54,90,2
1,50,90,48
1,54,0,77
1,54,90,19
1,57,0,1
1,57,90,47
1,50,90,96
1,55,90,0
1,59,90,0
1,50,0,4
1,57,0,4
1,54,0,2
1,50,0,182
1,59,0,0
1,55,0,0
1,52,90,0
1,61,90,0
1,57,90,0
1,57,90,96
1,57,0,96
1,52,0,0
1,61,0,0
1,57,0,0
1,50,90,0
1,54,90,0
1,57,90,0
1,54,0,74
1,50,0,20
1,54,90,2
1,50,90,48
1,54,0,77
1,54,90,19
1,57,0,1
1,57,90,47
1,50,90,96
1,55,90,0
1,59,90,0
1,50,0,4
1,57,0,4
1,54,0,2
1,50,0,182
1,59,0,0
1,55,0,0
1,52,90,0
1,61,90,0
1,57,90,0
1,57,90,96
1,57,0,96
1,52,0,0
1,61,0,0
1,57,0,0
1,50,90,0
1,54,90,0
1,57,90,0
1,54,0,74
1,50,0,20
1,54,90,2
1,50,90,48
1,54,0,77
1,54,90,19
1,57,0,1
1,57,90,47
1,50,90,96
1,55,90,0
1,59,90,0
1,50,0,4
1,57,0,4
1,54,0,2
1,50,0,182
1,59,0,0
1,55,0,0
1,52,90,0
1,61,90,0
1,57,90,0
1,57,90,96
1,57,0,96
1,52,0,0
1,61,0,0
1,57,0,0
1,50,90,0
1,54,90,0
1,57,90,0
1,54,0,74
1,50,0,20
1,54,90,2
1,50,90,48
1,54,0,77
1,54,90,19
1,57,0,1
1,57,90,47
1,50,90,96
1,55,90,0
1,59,90,0
1,50,0,4
1,57,0,4
1,54,0,2
1,50,0,182
1,59,0,0
1,55,0,0
1,52,90,0
1,61,90,0
1,57,90,0
1,57,90,96
1,57,0,96
1,52,0,0
1,61,0,0
1,57,0,0
1,50,90,0
1,54,90,0
1,57,90,0
1,54,0,74
1,50,0,20
1,54,90,2
1,50,90,48
1,54,0,77
1,54,90,19
1,57,0,1
1,57,90,47
1,50,90,96
1,55,90,0
1,59,90,0
1,50,0,4
1,57,0,4
1,54,0,2
1,50,0,182
1,59,0,0
1,55,0,0
1,52,90,0
1,61,90,0
1,57,90,0
1,57,90,96
1,57,0,96
1,52,0,0
1,61,0,0
1,57,0,0
1,54,90,0
1,50,90,0
1,57,90,0
1,57,0,71
1,54,0,12
1,57,90,13
1,54,90,48
1,57,0,73
1,57,90,23
1,54,0,11
1,54,90,37
1,50,0,94
1,54,0,1
1,50,90,1
1,55,90,0
1,59,90,0
1,57,0,1
1,50,0,191
1,55,0,0
1,59,0,0
1,52,90,0
1,61,90,0
1,57,90,0
1,57,90,96
1,57,0,96
1,52,0,0
1,61,0,0
1,57,0,0
1,50,90,0
1,54,90,0
1,57,90,0
1,54,0,74
1,50,0,20
1,54,90,2
1,50,90,48
1,54,0,77
1,54,90,19
1,57,0,1
1,57,90,47
1,50,90,96
1,55,90,0
1,59,90,0
1,50,0,4
1,57,0,4
1,54,0,2
1,50,0,182
1,59,0,0
1,55,0,0
1,52,90,0
1,61,90,0
1,57,90,0
1,57,90,96
1,57,0,96
1,52,0,0
1,61,0,0
1,57,0,0
1,50,90,0
1,54,90,0
1,57,90,0
1,54,0,74
1,50,0,20
1,54,90,2
1,50,90,48
1,54,0,77
1,54,90,19
1,57,0,1
1,57,90,47
1,50,90,96
1,54,90,0
1,57,90,0
1,50,0,4
1,57,0,4
1,54,0,2
1,54,0,64
1,50,0,20
1,54,90,2
1,50,90,48
1,54,0,77
1,54,90,19
1,57,0,1
1,57,90,47
1,50,90,96
1,55,90,0
1,59,90,0
1,50,0,4
1,57,0,4
1,54,0,2
1,50,0,182
1,59,0,0
1,55,0,0
1,52,90,0
1,61,90,0
1,57,90,0
1,57,90,96
1,57,0,96
1,52,0,0
1,61,0,0
1,57,0,0
1,50,90,0
1,54,90,0
1,57,90,0
1,54,0,74
1,50,0,20
1,54,90,2
1,50,90,48
1,54,0,77
1,54,90,19
1,57,0,1
1,57,90,47
1,50,90,96
1,55,90,0
1,59,90,0
1,50,0,4
1,57,0,4
1,54,0,2
1,50,0,182
1,59,0,0
1,55,0,0
1,52,90,0
1,61,90,0
1,57,90,0
1,57,90,96
1,57,0,96
1,52,0,0
1,61,0,0
1,57,0,0
1,50,90,0
1,54,90,0
1,57,90,0
1,54,0,74
1,50,0,20
1,54,90,2
1,50,90,48
1,54,0,77
1,54,90,19
1,57,0,1
1,57,90,47
1,50,90,96
1,55,90,0
1,59,90,0
1,50,0,4
1,57,0,4
1,54,0,2
1,50,0,182
1,59,0,0
1,55,0,0
1,52,90,0
1,61,90,0
1,57,90,0
1,57,90,96
1,57,0,96
1,52,0,0
1,61,0,0
1,57,0,0
1,50,90,0
1,54,90,0
1,57,90,0
1,54,0,74
1,50,0,20
1,54,90,2
1,50,90,48
1,54,0,77
1,54,90,19
1,57,0,1
1,57,90,47
1,50,90,96
1,55,90,0
1,59,90,0
1,50,0,4
1,57,0,4
1,54,0,2
1,50,0,182
1,59,0,0
1,55,0,0
1,52,90,0
1,61,90,0
1,57,90,0
1,57,90,96
1,57,0,96
1,52,0,0
1,61,0,0
1,57,0,0
1,50,90,0
1,54,90,0
1,57,90,0
1,54,0,74
1,50,0,20
1,54,90,2
1,50,90,48
1,54,0,77
1,54,90,19
1,57,0,1
1,57,90,47
1,50,90,96
1,55,90,0
1,59,90,0
1,50,0,4
1,57,0,4
1,54,0,2
1,50,0,182
1,59,0,0
1,55,0,0
1,52,90,0
1,61,90,0
1,57,90,0
1,57,90,96
1,57,0,96
1,52,0,0
1,61,0,0
1,57,0,0
1,54,90,0
1,50,90,0
1,57,90,0
1,57,0,71
1,54,0,12
1,57,90,13
1,54,90,48
1,57,0,73
1,57,90,23
1,54,0,11
1,54,90,37
1,50,0,94
1,54,0,1
1,53,91,1
1,60,91,0
1,57,91,0
1,57,0,1
1,53,0,359
1,57,0,0
1,60,0,2
1,52,82,22
1,60,91,0
1,55,100,0
1,59,91,384
1,62,91,0
1,55,100,0
1,55,0,1
1,60,0,2
1,52,0,1
1,59,0,347
1,62,0,0
1,55,0,1
1,55,91,32
1,60,100,0
1,64,91,0
1,53,91,384
1,57,109,0
1,60,82,0
1,60,0,2
1,55,0,2
1,64,0,0
1,57,0,343
1,60,0,4
1,53,0,1
1,52,73,32
1,55,100,0
1,60,82,0
1,55,0,376
1,52,0,0
1,60,0,2
1,52,73,6
1,59,91,0
1,56,100,0
1,52,0,333
1,56,0,2
1,59,0,3
1,61,91,46
1,57,100,0
1,52,91,0
1,50,90,384
1,54,90,0
1,57,90,0
1,57,0,9
1,52,0,3
1,61,0,1
1,54,0,61
1,50,0,20
1,54,90,2
1,50,90,48
1,54,0,77
1,54,90,19
1,57,0,1
1,57,90,47
1,50,90,96
1,55,90,0
1,59,90,0
1,50,0,4
1,57,0,4
1,54,0,2
1,50,0,182
1,59,0,0
1,55,0,0
1,52,90,0
1,61,90,0
1,57,90,0
1,57,90,96
1,57,0,96
1,52,0,0
1,61,0,0
1,57,0,0
1,50,90,0
1,54,90,0
1,57,90,0
1,54,0,74
1,50,0,20
1,54,90,2
1,50,90,48
1,54,0,77
1,54,90,19
1,57,0,1
1,57,90,47
1,50,90,96
1,55,90,0
1,59,90,0
1,50,0,4
1,57,0,4
1,54,0,2
1,50,0,182
1,59,0,0
1,55,0,0
1,52,90,0
1,61,90,0
1,57,90,0
1,57,90,96
1,57,0,96
1,52,0,0
1,61,0,0
1,57,0,0
1,50,90,0
1,54,90,0
1,57,90,0
1,54,0,74
1,50,0,20
1,54,90,2
1,50,90,48
1,54,0,77
1,54,90,19
1,57,0,1
1,57,90,47
1,50,90,96
1,55,90,0
1,59,90,0
1,50,0,4
1,57,0,4
1,54,0,2
1,50,0,182
1,59,0,0
1,55,0,0
1,52,90,0
1,61,90,0
1,57,90,0
1,57,90,96
1,57,0,96
1,52,0,0
1,61,0,0
1,57,0,0
1,50,90,0
1,54,90,0
1,57,90,0
1,54,0,74
1,50,0,20
1,54,90,2
1,50,90,48
1,54,0,77
1,54,90,19
1,57,0,1
1,57,90,47
1,50,90,96
1,55,90,0
1,59,90,0
1,50,0,4
1,57,0,4
1,54,0,2
1,50,0,182
1,59,0,0
1,55,0,0
1,52,90,0
1,61,90,0
1,57,90,0
1,57,90,96
1,57,0,96
1,52,0,0
1,61,0,0
1,57,0,0
1,50,90,0
1,54,90,0
1,57,90,0
1,54,0,74
1,50,0,20
1,54,90,2
1,50,90,48
1,54,0,77
1,54,90,19
1,57,0,1
1,57,90,47
1,50,90,96
1,55,90,0
1,59,90,0
1,50,0,4
1,57,0,4
1,54,0,2
1,50,0,182
1,59,0,0
1,55,0,0
1,52,90,0
1,61,90,0
1,57,90,0
1,57,90,96
1,57,0,96
1,52,0,0
1,61,0,0
1,57,0,0
1,50,90,0
1,54,90,0
1,57,90,0
1,54,0,74
1,50,0,20
1,54,90,2
1,50,90,48
1,54,0,77
1,54,90,19
1,57,0,1
1,57,90,47
1,50,90,96
1,55,90,0
1,59,90,0
1,50,0,4
1,57,0,4
1,54,0,2
1,50,0,182
1,59,0,0
1,55,0,0
1,52,90,0
1,61,90,0
1,57,90,0
1,57,90,96
1,57,0,96
1,52,0,0
1,61,0,0
1,57,0,0
1,50,90,0
1,54,90,0
1,57,90,0
1,54,0,74
1,50,0,20
1,54,90,2
1,50,90,48
1,54,0,77
1,54,90,19
1,57,0,1
1,57,90,47
1,50,90,96
1,55,90,0
1,59,90,0
1,50,0,4
1,57,0,4
1,54,0,2
1,50,0,182
1,59,0,0
1,55,0,0
1,52,90,0
1,61,90,0
1,57,90,0
1,57,90,96
1,57,0,96
1,52,0,0
1,61,0,0
1,57,0,0
1,50,90,0
1,54,90,0
1,57,90,0
1,54,0,74
1,50,0,20
1,54,90,2
1,50,90,48
1,54,0,77
1,54,90,19
1,57,0,1
1,57,90,47
1,50,90,96
1,55,90,0
1,59,90,0
1,50,0,4
1,57,0,4
1,54,0,2
1,50,0,182
1,59,0,0
1,55,0,0
1,52,90,0
1,61,90,0
1,57,90,0
1,57,90,96
1,57,0,96
1,52,0,0
1,61,0,0
1,57,0,0
1,50,90,0
1,54,90,0
1,57,90,0
1,54,0,74
1,50,0,20
1,54,90,2
1,50,90,48
1,54,0,77
1,54,90,19
1,57,0,1
1,57,90,47
1,50,90,96
1,55,90,0
1,59,90,0
1,50,0,4
1,57,0,4
1,54,0,2
1,50,0,182
1,59,0,0
1,55,0,0
1,52,90,0
1,61,90,0
1,57,90,0
1,57,90,96
1,57,0,96
1,52,0,0
1,61,0,0
1,57,0,0
1,50,90,0
1,54,90,0
1,57,90,0
1,54,0,74
1,50,0,20
1,54,90,2
1,50,90,48
1,54,0,77
1,54,90,19
1,57,0,1
1,57,90,47
1,50,90,96
1,55,90,0
1,59,90,0
1,50,0,4
1,57,0,4
1,54,0,2
1,50,0,182
1,59,0,0
1,55,0,0
1,52,90,0
1,61,90,0
1,57,90,0
1,57,90,96
1,57,0,96
1,52,0,0
1,61,0,0
1,57,0,0
1,50,90,0
1,54,90,0
1,57,90,0
1,54,0,74
1,50,0,20
1,54,90,2
1,50,90,48
1,54,0,77
1,54,90,19
1,57,0,1
1,57,90,47
1,50,90,96
1,55,90,0
1,59,90,0
1,50,0,4
1,57,0,4
1,54,0,2
1,50,0,182
1,59,0,0
1,55,0,0
1,52,90,0
1,61,90,0
1,57,90,0
1,57,90,96
1,57,0,96
1,52,0,0
1,61,0,0
1,57,0,0
1,50,90,0
1,54,90,0
1,57,90,0
1,54,0,74
1,50,0,20
1,54,90,2
1,50,90,48
1,54,0,77
1,54,90,19
1,57,0,1
1,57,90,47
1,50,90,96
1,55,90,0
1,59,90,0
1,50,0,4
1,57,0,4
1,54,0,2
1,50,0,182
1,59,0,0
1,55,0,0
1,52,90,0
1,61,90,0
1,57,90,0
1,57,90,96
1,57,0,96
1,52,0,0
1,61,0,0
1,57,0,0
1,50,90,0
1,54,90,0
1,57,90,0
1,54,0,74
1,50,0,20
1,54,90,2
1,50,90,48
1,54,0,77
1,54,90,19
1,57,0,1
1,57,90,47
1,50,90,96
1,55,90,0
1,59,90,0
1,50,0,4
1,57,0,4
1,54,0,2
1,50,0,182
1,59,0,0
1,55,0,0
1,52,90,0
1,61,90,0
1,57,90,0
1,57,90,96
1,57,0,96
1,52,0,0
1,61,0,0
1,57,0,0
1,59,100,384
1,62,91,0
1,55,100,0
1,55,0,122
1,62,0,2
1,59,0,2
1,57,91,18
1,61,82,0
1,64,91,0
1,64,0,150
1,57,0,3
1,61,0,4
1,55,82,35
1,59,100,0
1,62,100,0
1,62,0,156
1,55,0,0
1,59,0,2
1,61,91,34
1,57,91,0
1,64,91,0
1,64,0,178
1,57,0,5
1,61,0,2
1,59,100,7
1,62,91,0
1,55,82,0
1,55,0,161
1,62,0,5
1,59,0,2
1,61,91,24
1,57,82,0
1,64,100,0
1,64,0,160
1,57,0,4
1,61,0,1
1,59,91,27
1,55,82,0
1,62,82,0
1,55,0,161
1,62,0,7
1,59,0,0
1,61,100,24
1,57,100,0
1,64,91,0
1,64,0,205
1,57,0,1
1,61,0,1
1,55,91,33
1,59,91,0
1,62,91,0
1,55,0,118
1,62,0,3
1,59,0,1
1,61,82,22
1,57,82,0
1,64,73,0
1,64,0,175
1,61,0,6
1,57,0,2
1,57,91,57
1,62,82,0
1,66,82,0
1,66,0,96
1,62,0,0
1,57,0,0
1,61,91,0
1,57,91,0
1,64,91,0
1,64,0,93
1,57,0,1
1,61,0,0
1,57,91,2
1,62,100,0
1,54,91,0
1,62,0,535
1,54,0,2
1,57,0,2
2,38,120,480
2,38,0,115
2,38,120,29
2,38,0,17
2,38,120,31
2,38,0,160
2,43,120,32
2,43,0,111
2,43,120,33
2,43,0,25
2,45,120,23
2,45,0,81
2,33,120,15
2,33,0,80
2,38,120,16
2,38,0,115
2,38,120,29
2,38,0,17
2,38,120,31
2,38,0,160
2,43,120,32
2,43,0,111
2,43,120,33
2,43,0,25
2,45,120,23
2,45,0,81
2,33,120,15
2,33,0,80
2,38,120,16
2,38,0,115
2,38,120,29
2,38,0,17
2,38,120,31
2,38,0,160
2,43,120,32
2,43,0,111
2,43,120,33
2,43,0,25
2,45,120,23
2,45,0,81
2,33,120,15
2,33,0,80
2,38,120,16
2,38,0,115
2,38,120,29
2,38,0,17
2,38,120,31
2,38,0,160
2,43,120,32
2,43,0,111
2,43,120,33
2,43,0,25
2,45,120,23
2,45,0,81
2,33,120,15
2,33,0,80
2,38,120,16
2,38,0,115
2,38,120,29
2,38,0,17
2,38,120,31
2,38,0,160
2,43,120,32
2,43,0,111
2,43,120,33
2,43,0,25
2,45,120,23
2,45,0,81
2,33,120,15
2,33,0,80
2,38,120,16
2,38,0,115
2,38,120,29
2,38,0,17
2,38,120,31
2,38,0,160
2,43,120,32
2,43,0,111
2,43,120,33
2,43,0,25
2,45,120,23
2,45,0,81
2,33,120,15
2,33,0,80
2,38,120,16
2,38,0,115
2,38,120,29
2,38,0,17
2,38,120,31
2,38,0,160
