track,note,velocity,time
2,38,88,959
2,38,0,127
2,38,72,51
2,38,0,62
2,40,64,2
2,40,0,72
2,42,58,40
2,42,0,80
2,43,73,44
2,43,0,131
2,43,65,48
2,43,0,28
2,43,71,37
2,43,0,161
2,33,66,73
2,33,0,229
2,35,61,8
2,35,0,104
2,37,64,16
2,37,0,72
2,38,66,45
2,38,0,144
2,38,62,42
2,33,74,58
2,38,0,6
2,33,0,143
2,33,66,31
2,33,0,65
2,38,78,0
2,38,0,137
2,38,69,43
2,38,0,60
2,33,70,0
2,33,0,33
2,33,76,22
2,35,85,58
2,33,0,4
2,35,0,41
2,37,56,11
2,37,0,56
2,38,78,11
2,38,0,135
2,38,57,47
2,33,83,60
2,38,0,2
2,33,0,136
2,33,70,41
2,33,0,51
2,38,72,10
2,38,0,130
2,38,62,41
2,38,0,64
2,33,80,2
2,33,0,42
2,33,68,17
2,33,0,56
2,35,75,5
2,35,0,56
2,37,64,4
2,37,0,50
2,38,79,12
2,38,0,132
2,38,60,44
2,38,0,49
2,33,92,13
2,33,0,143
2,33,66,36
2,33,0,57
2,38,85,9
2,38,0,134
2,38,66,42
2,33,79,65
2,38,0,2
2,33,0,116
2,35,70,3
2,35,0,50
2,37,73,4
2,37,0,54
2,38,75,11
2,38,0,136
2,38,68,41
2,38,0,57
2,33,85,2
2,33,0,114
2,33,69,60
2,33,0,50
2,38,79,9
2,38,0,129
2,38,73,58
2,38,0,62
2,33,85,0
2,33,0,108
2,38,78,4
2,38,0,88
2,33,71,33
2,33,0,137
2,33,66,48
2,28,78,57
2,33,0,9
2,28,0,141
2,28,79,30
2,33,86,61
2,28,0,5
2,33,0,142
2,33,74,36
2,28,79,59
2,33,0,2
2,28,0,78
2,28,74,39
2,28,0,107
2,33,82,13
2,33,0,150
2,33,68,28
2,33,0,59
2,28,85,3
2,28,0,147
2,28,62,30
2,33,78,59
2,28,0,4
2,33,0,123
2,33,57,60
2,40,66,58
2,33,0,7
2,40,0,79
2,40,67,33
2,40,0,111
2,33,86,3
2,33,0,144
2,33,60,34
2,28,63,66
2,33,0,12
2,28,0,92
2,28,52,77
2,28,0,53
2,33,74,9
2,33,0,124
2,33,60,55
2,40,72,56
2,33,0,11
2,40,0,66
2,40,68,43
2,40,0,98
2,33,76,18
2,33,0,123
2,33,71,50
2,33,0,45
2,28,76,18
2,28,0,148
2,28,60,32
2,28,0,56
2,33,92,9
2,33,0,107
2,33,67,79
2,33,0,47
2,35,78,6
2,35,0,78
2,37,81,40
2,37,0,77
2,38,60,41
2,38,0,140
2,38,73,51
2,38,0,53
2,33,99,9
2,33,0,122
2,33,66,45
2,33,0,55
2,38,78,13
2,38,0,144
2,38,68,38
2,38,0,32
2,40,74,29
2,40,0,65
2,42,75,61
2,42,0,65
2,43,74,48
2,43,0,138
2,43,74,37
2,43,0,26
2,43,75,33
2,43,0,135
2,43,40,58
2,41,31,4
2,41,0,38
2,43,0,4
2,33,75,10
2,33,0,135
2,33,64,46
2,33,0,60
2,35,80,1
2,35,0,71
2,37,79,42
2,37,0,75
2,38,66,43
2,38,0,137
2,38,68,45
2,38,0,56
2,33,73,6
2,31,66,1
2,31,0,33
2,33,0,108
2,33,76,38
2,33,0,61
2,38,65,8
2,38,0,126
2,38,66,48
2,38,0,41
2,40,64,14
2,40,0,72
2,42,84,48
2,42,0,86
2,43,78,30
2,43,0,133
2,43,73,51
2,43,0,34
2,43,73,26
2,43,0,90
2,43,62,30
2,43,0,91
2,33,80,26
2,33,0,140
2,33,73,41
2,33,0,42
2,35,88,14
2,35,0,101
2,37,73,24
2,37,0,90
2,38,74,29
2,38,0,134
2,38,73,51
2,33,79,56
2,38,0,3
2,33,0,143
2,33,68,41
2,33,0,60
2,38,79,3
2,38,0,129
2,38,68,42
2,38,0,52
2,40,70,9
2,40,0,81
2,42,77,43
2,42,0,99
2,43,66,17
2,43,0,146
2,43,66,34
2,43,0,24
2,43,74,31
2,43,0,145
2,43,70,45
2,43,0,48
2,33,78,14
2,33,0,116
2,33,65,56
2,33,0,54
2,35,66,0
2,35,0,84
2,37,71,44
2,37,0,49
2,38,88,79
2,38,0,215
2,42,75,20
2,42,0,243
2,43,85,4
2,43,0,414
2,33,64,69
2,33,0,130
2,33,70,35
2,33,0,60
2,40,78,3
2,40,0,88
2,40,66,28
2,40,0,105
2,33,73,9
2,33,0,136
2,33,72,47
2,33,0,58
2,35,80,7
2,35,0,84
2,37,68,33
2,37,0,100
2,38,66,17
2,38,0,134
2,38,63,42
2,33,78,63
2,38,0,7
2,33,0,115
2,33,60,50
2,33,0,67
2,38,64,4
2,38,0,143
2,38,70,48
2,38,0,52
2,33,80,8
2,33,0,29
2,33,67,24
2,33,0,46
2,35,69,16
2,35,0,39
2,37,79,21
2,37,0,41
2,38,52,24
2,40,56,1
2,40,0,36
2,38,0,98
2,38,66,39
2,38,0,48
2,33,72,13
2,33,0,121
2,33,67,52
2,33,0,55
2,38,72,7
2,38,0,129
2,38,62,61
2,38,0,51
2,33,79,8
2,33,0,72
2,33,80,41
2,33,0,95
2,38,63,30
2,38,0,123
2,38,65,54
2,38,0,48
2,33,85,3
2,33,0,130
2,33,66,47
2,33,0,54
2,38,71,14
2,38,0,129
2,38,67,49
2,38,0,58
2,33,79,12
2,33,0,32
2,33,67,27
2,33,0,54
2,35,57,9
2,35,0,37
2,37,68,18
2,37,0,49
2,38,79,14
2,38,0,120
2,38,60,47
2,38,0,54
2,33,74,9
2,33,0,117
2,33,62,68
2,33,0,47
2,38,66,9
2,38,0,121
2,38,63,55
2,38,0,51
2,33,80,7
2,33,0,120
2,38,66,5
2,38,0,112
2,33,72,8
2,33,0,135
2,33,60,56
2,33,0,56
2,28,82,2
2,28,0,111
2,28,59,54
2,28,0,59
2,33,69,5
2,33,0,133
2,33,78,59
2,40,74,57
2,33,0,12
2,40,0,76
2,40,90,40
2,40,0,85
2,33,58,21
2,33,0,146
2,33,67,39
2,28,82,58
2,33,0,11
2,28,0,116
2,28,60,54
2,28,0,50
2,33,73,9
2,33,0,143
2,33,65,41
2,33,0,58
2,28,73,0
2,28,0,81
2,28,72,38
2,28,0,101
2,33,79,17
2,33,0,141
2,33,66,44
2,33,0,48
2,28,80,6
2,28,0,136
2,28,63,36
2,28,0,66
2,33,78,2
2,33,0,112
2,33,71,74
2,40,61,52
2,33,0,24
2,40,0,71
2,40,75,36
2,40,0,85
2,33,66,34
2,33,0,126
2,33,65,49
2,33,0,54
2,28,63,3
2,33,66,195
2,28,0,11
2,33,0,25
2,33,69,23
2,33,0,116
2,33,60,53
2,33,0,44
2,35,68,12
2,35,0,78
2,37,79,40
2,37,0,70
2,38,64,53
2,38,0,124
2,38,75,61
2,38,0,54
2,33,75,5
2,33,0,130
2,33,62,37
2,33,0,61
2,38,78,7
2,38,0,129
2,38,70,57
2,38,0,50
2,40,73,10
2,40,0,75
2,42,77,45
2,42,0,73
2,43,66,45
2,43,0,130
2,43,76,46
2,43,0,26
2,43,74,31
2,43,0,147
2,43,61,46
2,43,0,53
2,33,71,6
2,33,0,130
2,33,66,47
2,33,0,49
2,35,67,6
2,35,0,95
2,37,64,23
2,37,0,86
2,38,64,31
2,38,0,124
2,38,62,57
2,38,0,50
2,33,75,9
2,33,0,149
2,33,68,39
2,33,0,59
2,38,72,4
2,38,0,129
2,38,66,46
2,38,0,50
2,40,66,13
2,40,0,92
2,42,63,27
2,42,0,90
2,43,62,18
2,43,0,131
2,43,55,68
2,43,0,24
2,43,74,31
2,43,0,105
2,43,82,82
2,43,0,49
2,33,70,7
2,33,0,123
2,33,62,49
2,33,0,50
2,35,66,5
2,35,0,108
2,37,58,16
2,37,0,97
2,38,66,21
2,38,0,130
2,38,73,57
2,33,69,59
2,38,0,10
2,33,0,123
2,33,66,48
2,38,72,59
2,33,0,3
2,38,0,136
2,38,62,46
2,38,0,52
2,40,66,11
2,40,0,81
2,42,55,36
2,42,0,100
2,43,67,18
2,43,0,142
2,43,69,42
2,43,0,32
2,43,67,23
2,43,0,114
2,43,71,65
2,43,0,54
2,33,69,10
2,33,0,121
2,33,65,48
2,33,0,47
2,35,72,7
2,35,0,95
2,37,81,33
2,37,0,51
2,38,86,73
2,38,0,201
2,42,89,43
2,42,0,219
2,43,83,34
2,43,0,380
2,33,70,105
2,33,0,131
2,33,64,37
2,33,0,56
2,40,74,0
2,40,0,94
2,40,66,26
2,40,0,104
2,33,72,12
2,33,0,128
2,33,60,46
2,33,0,46
2,35,78,14
2,35,0,74
2,37,60,43
2,37,0,62
2,38,64,61
2,38,0,115
2,38,60,67
2,33,70,59
2,38,0,10
2,33,0,72
2,33,68,39
2,33,0,119
2,38,71,8
2,38,0,124
2,38,71,48
2,45,92,62
2,38,0,4
2,45,0,94
2,45,85,30
2,45,0,117
2,38,63,2
2,38,0,129
2,38,60,45
2,33,71,54
2,38,0,13
2,33,0,116
2,33,66,59
2,38,66,56
2,33,0,5
2,38,0,140
2,38,64,36
2,38,0,47
2,33,79,13
2,33,0,34
2,33,66,25
2,33,0,47
2,35,70,15
2,35,0,48
2,37,68,14
2,37,0,38
2,38,57,23
2,38,0,125
2,38,58,49
2,33,66,60
2,38,0,4
2,33,0,102
2,33,57,75
2,33,0,65
2,38,61,1
2,38,0,125
2,38,58,58
2,33,65,63
2,38,0,9
2,33,0,63
2,33,70,49
2,33,0,94
2,38,62,20
2,38,0,131
2,38,66,42
2,38,0,65
2,33,86,1
2,33,0,103
2,33,62,61
2,33,0,67
2,38,66,4
2,38,0,120
2,40,69,4
2,40,0,181
2,42,46,1
2,42,0,66
2,43,62,1
2,43,0,51
2,45,71,59
2,45,0,139
2,45,54,48
2,40,73,56
2,45,0,5
2,40,0,122
2,40,54,41
2,40,0,56
2,45,75,5
2,45,0,143
2,45,58,45
2,40,71,69
2,45,0,7
2,45,66,101
2,40,0,1
2,45,0,26
2,31,62,99
2,31,0,123
2,31,79,49
2,31,0,27
2,31,80,32
2,31,0,94
2,31,86,28
2,31,0,93
2,33,86,33
2,33,0,133
2,33,79,40
2,33,0,56
2,35,80,10
2,35,0,78
2,37,77,41
2,37,0,62
2,38,79,55
2,38,0,171
2,30,96,83
2,30,0,186
2,31,99,46
2,31,0,432
2,33,74,37
2,33,0,148
2,33,54,40
2,28,66,59
2,33,0,14
2,28,0,68
2,28,73,35
2,28,0,109
2,33,76,10
2,33,0,137
2,33,70,49
2,33,0,56
2,35,80,6
2,35,0,54
2,37,69,59
2,37,0,55
2,38,70,57
2,38,0,138
2,38,66,56
2,38,0,56
2,33,78,1
2,33,0,130
2,33,59,35
2,38,70,74
2,33,0,2
2,38,0,114
2,38,72,67
2,45,76,56
2,38,0,5
2,45,0,100
2,45,68,18
2,45,0,102
2,38,60,15
2,38,0,147
2,38,61,39
2,33,76,58
2,38,0,5
2,33,0,124
2,33,62,43
2,38,73,63
2,33,0,1
2,38,0,120
2,38,59,68
2,38,0,44
2,33,82,16
2,33,0,84
2,33,76,34
2,33,0,98
2,38,78,21
2,38,0,135
2,38,58,42
2,38,0,52
2,33,85,7
2,33,0,123
2,33,66,52
2,33,0,55
2,38,78,8
2,38,0,114
2,38,58,69
2,33,75,60
2,38,0,9
2,33,0,99
2,35,60,18
2,35,0,44
2,37,71,17
2,37,0,36
2,38,69,19
2,38,0,134
2,38,63,45
2,33,79,59
2,38,0,1
2,33,0,121
2,33,61,46
2,33,0,60
2,38,66,8
2,38,0,130
2,38,71,52
2,38,0,58
2,33,73,2
2,33,0,117
2,38,71,3
2,38,0,113
2,33,75,23
2,33,0,119
2,33,62,45
2,28,70,65
2,33,0,7
2,28,0,122
2,28,66,40
2,28,0,66
2,33,83,3
2,33,0,140
2,33,62,49
2,40,65,63
2,33,0,9
2,40,0,77
2,40,70,19
2,40,0,104
2,33,62,16
2,33,0,123
2,33,54,58
2,28,79,57
2,33,0,1
2,28,0,124
2,28,67,56
2,28,0,62
2,33,75,2
2,33,0,134
2,33,73,55
2,33,0,57
2,28,90,1
2,28,0,88
2,28,73,30
2,28,0,92
2,33,82,22
2,33,0,145
2,33,66,40
2,28,69,51
2,33,0,3
2,28,0,137
2,28,62,41
2,28,0,58
2,33,75,4
2,33,0,150
2,33,66,35
2,33,0,45
2,28,66,14
2,28,0,80
2,28,75,37
2,28,0,98
2,33,79,20
2,33,0,138
2,33,70,40
2,33,0,45
2,28,88,16
2,28,0,129
2,28,74,47
2,28,0,47
2,33,80,14
2,33,0,127
2,33,66,57
2,33,0,50
2,35,74,11
2,35,0,57
2,37,73,60
2,37,0,60
2,38,65,60
2,38,0,130
2,38,69,57
2,38,0,56
2,33,69,8
2,33,0,127
2,33,68,41
2,33,0,59
2,38,82,4
2,38,0,132
2,38,65,51
2,38,0,53
2,40,72,5
2,40,0,92
2,42,52,31
2,42,0,97
2,43,60,13
2,43,0,138
2,43,73,47
2,43,0,30
2,43,69,27
2,43,0,131
2,43,60,53
2,43,0,50
2,33,75,13
2,33,0,133
2,33,66,45
2,33,0,48
2,35,66,6
2,35,0,93
2,37,66,27
2,37,0,76
2,38,66,40
2,38,0,141
2,38,61,43
2,33,80,56
2,38,0,3
2,33,0,143
2,33,63,37
2,38,70,66
2,33,0,2
2,38,0,131
2,38,66,48
2,38,0,52
2,40,68,10
2,40,0,93
2,42,55,27
2,42,0,109
2,43,73,8
2,43,0,131
2,43,75,45
2,43,0,31
2,43,66,26
2,43,0,97
2,43,65,34
2,43,0,56
2,33,71,57
2,33,0,145
2,33,67,41
2,33,0,50
2,35,69,4
2,35,0,97
2,37,63,23
2,37,0,85
2,38,67,33
2,38,0,141
2,38,62,50
2,33,62,52
2,38,0,11
2,33,0,130
2,33,67,36
2,33,0,67
2,38,82,3
2,38,0,135
2,38,65,44
2,38,0,56
2,40,79,6
2,40,0,88
2,42,69,38
2,42,0,95
2,43,67,10
2,43,0,143
2,43,66,44
2,43,0,29
2,43,67,27
2,43,0,218
2,33,68,24
2,33,0,119
2,33,62,55
2,33,0,47
2,35,66,7
2,35,0,90
2,37,55,35
2,37,0,60
2,38,70,60
2,38,0,236
2,30,71,11
2,30,0,206
2,31,88,37
2,31,0,414
2,33,66,72
2,33,0,130
2,33,71,47
2,28,66,56
2,33,0,9
2,28,0,117
2,28,65,46
2,28,0,64
2,33,70,0
2,33,0,116
2,33,58,60
2,33,0,55
2,35,74,4
2,35,0,68
2,37,75,46
2,37,0,100
2,38,58,18
2,38,0,146
2,38,75,54
2,33,88,54
2,38,0,5
2,33,0,120
2,33,72,37
2,33,0,64
2,38,88,9
2,38,0,136
2,38,63,56
2,38,0,53
2,40,64,8
2,40,0,82
2,42,60,36
2,42,0,101
2,43,62,11
2,43,0,139
2,43,79,42
2,43,0,22
2,43,80,35
2,43,0,140
2,43,59,41
2,43,0,60
2,33,76,2
2,33,0,129
2,33,62,44
2,33,0,44
2,35,74,12
2,35,0,99
2,37,69,24
2,37,0,85
2,38,78,57
2,38,0,209
2,42,71,20
2,42,0,232
2,43,80,1
2,43,0,398
2,33,68,79
2,33,0,144
2,33,66,38
2,40,66,64
2,33,0,2
2,40,0,86
2,40,55,35
2,40,0,99
2,33,67,11
2,33,0,134
2,33,62,48
2,33,0,66
2,40,68,0
2,40,0,111
2,33,67,0
2,33,0,112
2,38,67,12
2,38,0,137
2,38,60,44
2,38,0,56
2,40,70,3
2,40,0,74
2,42,60,46
2,42,0,96
2,43,60,27
2,43,0,130
2,43,52,44
2,43,0,34
2,43,73,37
2,43,0,115
2,43,60,55
2,43,0,31
2,33,70,29
2,33,0,117
2,33,65,56
2,33,0,58
2,35,74,8
2,35,0,87
2,37,54,30
2,37,0,53
2,38,60,67
2,38,0,88
2,37,66,40
2,37,0,39
2,38,86,83
2,38,0,371
3,66,77,982
3,62,62,0
3,69,72,0
3,62,0,83
3,69,0,8
3,66,0,1
3,66,72,22
3,62,56,1
3,69,64,0
3,69,0,25
3,66,0,3
3,62,0,4
