track,note,velocity,time
1,42,62,0
1,42,0,5
1,42,62,210
1,42,0,30
1,42,62,210
1,42,0,30
1,42,62,90
1,42,0,30
1,46,62,90
1,46,0,30
1,42,62,90
1,42,0,30
1,35,95,90
1,35,0,30
1,62,92,210
1,54,62,0
1,54,0,30
1,62,0,0
1,64,62,90
1,64,0,30
1,64,92,330
1,42,62,0
1,42,0,30
1,64,0,0
1,64,62,90
1,69,62,0
1,69,0,30
1,64,0,0
1,35,95,90
1,35,0,30
1,62,92,210
1,54,62,0
1,54,0,30
1,62,0,0
1,64,62,90
1,64,0,30
1,64,92,330
1,42,62,0
1,42,0,30
1,64,0,0
1,64,62,90
1,69,62,0
1,69,0,30
1,64,0,0
1,35,95,90
1,35,0,30
1,62,92,210
1,54,62,0
1,54,0,30
1,62,0,0
1,64,62,90
1,64,0,30
1,64,92,330
1,42,62,0
1,42,0,30
1,64,0,0
1,64,62,90
1,69,62,0
1,69,0,30
1,64,0,0
1,35,96,90
1,35,0,30
1,62,92,210
1,54,62,0
1,54,0,30
1,62,0,0
1,64,62,90
1,64,0,30
1,64,92,330
1,42,62,0
1,42,0,30
1,64,0,0
1,64,62,90
1,69,62,0
1,69,0,30
1,64,0,0
1,35,96,90
1,35,0,30
1,62,92,210
1,54,62,0
1,54,0,30
1,62,0,0
1,64,62,90
1,64,0,30
1,64,92,330
1,42,62,0
1,42,0,30
1,64,0,0
1,64,62,90
1,69,62,0
1,69,0,30
1,64,0,0
1,35,96,90
1,35,0,30
1,62,92,210
1,54,62,0
1,54,0,30
1,62,0,0
1,64,62,90
1,64,0,30
1,64,92,330
1,42,62,0
1,42,0,30
1,64,0,0
1,64,62,90
1,69,62,0
1,69,0,30
1,64,0,0
1,35,98,90
1,35,0,30
1,62,92,210
1,54,62,0
1,54,0,30
1,62,0,0
1,64,62,90
1,64,0,30
1,64,92,330
1,42,62,0
1,42,0,30
1,64,0,0
1,64,62,90
1,69,62,0
1,69,0,30
1,64,0,0
1,35,96,90
1,35,0,30
1,62,92,210
1,54,62,0
1,54,0,30
1,62,0,0
1,64,62,90
1,64,0,30
1,64,92,330
1,42,62,0
1,42,0,30
1,64,0,0
1,64,62,90
1,69,62,0
1,69,0,30
1,64,0,0
1,35,94,90
1,35,0,30
1,62,92,210
1,54,62,0
1,54,0,30
1,62,0,0
1,64,62,90
1,64,0,30
1,64,92,330
1,42,62,0
1,42,0,30
1,64,0,0
1,64,62,90
1,69,62,0
1,69,0,30
1,64,0,0
1,35,92,90
1,35,0,30
1,62,92,210
1,54,62,0
1,54,0,30
1,62,0,0
1,64,62,90
1,64,0,30
1,64,92,330
1,42,62,0
1,42,0,30
1,64,0,0
1,64,62,90
1,69,62,0
1,69,0,30
1,64,0,0
1,35,94,90
1,35,0,30
1,62,92,210
1,54,62,0
1,54,0,30
1,62,0,0
1,64,62,90
1,64,0,30
1,64,92,330
1,42,62,0
1,42,0,30
1,64,0,0
1,64,62,90
1,69,62,0
1,69,0,30
1,64,0,0
1,35,92,90
1,35,0,30
1,62,92,210
1,54,62,0
1,54,0,30
1,62,0,0
1,64,62,90
1,64,0,30
1,64,92,330
1,42,62,0
1,42,0,30
1,64,0,0
1,64,62,90
1,46,62,0
1,69,62,2
1,69,0,28
1,46,0,0
1,64,0,0
1,35,92,90
1,35,0,30
1,63,62,90
1,63,0,30
1,42,92,90
1,62,92,0
1,54,62,0
1,54,0,30
1,62,0,0
1,42,0,0
1,64,62,90
1,64,0,30
1,64,62,210
1,64,0,30
1,64,92,90
1,42,92,0
1,42,0,30
1,64,0,0
1,64,62,90
1,35,96,0
1,69,62,2
1,69,0,28
1,35,0,0
1,64,0,0
1,35,92,90
1,35,0,30
1,63,62,90
1,63,0,30
1,42,92,90
1,62,92,0
1,54,62,0
1,54,0,30
1,62,0,0
1,42,0,0
1,64,62,90
1,64,0,30
1,64,62,210
1,64,0,30
1,64,92,90
1,42,92,0
1,42,0,30
1,64,0,0
1,64,62,90
1,35,91,0
1,69,62,2
1,69,0,28
1,35,0,0
1,64,0,0
1,35,92,90
1,35,0,30
1,63,62,90
1,63,0,30
1,42,92,90
1,62,92,0
1,54,62,0
1,54,0,30
1,62,0,0
1,42,0,0
1,64,62,90
1,64,0,27
1,64,62,213
1,64,0,30
1,64,92,90
1,42,92,0
1,42,0,30
1,64,0,0
1,64,62,90
1,35,95,0
1,69,62,2
1,69,0,28
1,35,0,0
1,64,0,0
1,35,92,90
1,35,0,30
1,63,62,90
1,63,0,30
1,42,92,90
1,62,92,0
1,54,62,0
1,54,0,30
1,62,0,0
1,42,0,0
1,64,62,90
1,64,0,32
1,48,113,88
1,48,0,32
1,64,62,88
1,64,0,30
1,48,110,40
1,48,0,20
1,45,106,30
1,42,92,0
1,42,0,30
1,45,0,0
1,35,95,90
1,69,62,0
1,69,0,30
1,35,0,0
1,51,118,90
1,42,75,0
1,35,92,2
1,54,118,0
1,35,0,28
1,51,0,0
1,42,0,0
1,54,0,2
1,63,62,88
1,42,62,0
1,54,62,2
1,54,0,28
1,42,0,0
1,63,0,0
1,38,118,90
1,42,75,0
1,62,92,2
1,54,118,0
1,54,0,28
1,38,0,0
1,42,0,0
1,62,0,0
1,64,62,90
1,42,62,0
1,54,62,0
1,54,0,30
1,42,0,0
1,64,0,0
1,42,75,90
1,54,118,0
1,54,0,30
1,42,0,0
1,64,92,90
1,42,62,0
1,54,62,0
1,54,0,30
1,42,0,0
1,64,0,0
1,38,118,90
1,42,75,0
1,62,92,2
1,54,118,0
1,62,0,28
1,38,0,0
1,42,0,0
1,54,0,2
1,64,92,88
1,42,62,0
1,35,95,2
1,69,62,0
1,54,62,0
1,54,0,28
1,64,0,0
1,35,0,0
1,42,0,0
1,69,0,2
1,42,75,88
1,35,92,0
1,54,118,2
1,54,0,28
1,35,0,0
1,42,0,0
1,63,62,90
1,42,62,0
1,54,62,2
1,54,0,28
1,42,0,0
1,63,0,0
1,38,118,90
1,42,75,0
1,62,92,2
1,54,118,0
1,54,0,28
1,38,0,0
1,42,0,0
1,62,0,0
1,42,62,90
1,54,62,0
1,54,0,30
1,42,0,0
1,42,75,90
1,54,118,0
1,54,0,30
1,42,0,0
1,64,92,90
1,42,62,0
1,54,62,0
1,54,0,32
1,42,0,0
1,64,0,0
1,38,118,88
1,42,75,0
1,62,92,0
1,54,118,2
1,54,0,30
1,38,0,0
1,42,0,0
1,62,0,0
1,64,92,88
1,46,62,0
1,35,96,0
1,69,62,2
1,54,62,0
1,54,0,28
1,35,0,0
1,64,0,0
1,46,0,0
1,69,0,0
1,42,75,90
1,35,92,2
1,54,118,0
1,54,0,28
1,35,0,0
1,42,0,0
1,63,62,90
1,42,62,0
1,54,62,2
1,54,0,28
1,42,0,0
1,63,0,0
1,38,118,90
1,42,75,0
1,62,92,2
1,54,118,0
1,54,0,28
1,38,0,0
1,42,0,0
1,62,0,0
1,42,62,90
1,54,62,0
1,54,0,30
1,42,0,0
1,42,75,90
1,54,118,0
1,54,0,30
1,42,0,0
1,64,92,90
1,42,62,0
1,54,62,0
1,54,0,30
1,42,0,0
1,64,0,0
1,38,118,90
1,42,75,0
1,62,92,0
1,54,118,2
1,54,0,28
1,38,0,0
1,42,0,0
1,62,0,0
1,64,92,90
1,46,62,0
1,35,96,0
1,69,62,2
1,54,62,0
1,54,0,28
1,35,0,0
1,64,0,0
1,46,0,0
1,69,0,0
1,42,75,90
1,35,92,2
1,54,118,0
1,54,0,28
1,35,0,0
1,42,0,0
1,63,62,90
1,42,62,0
1,54,62,2
1,54,0,28
1,42,0,0
1,63,0,0
1,38,118,90
1,42,75,0
1,62,92,2
1,54,118,0
1,54,0,28
1,38,0,0
1,42,0,0
1,62,0,0
1,42,62,90
1,54,62,0
1,54,0,30
1,42,0,0
1,42,75,90
1,54,118,0
1,54,0,30
1,42,0,0
1,64,92,90
1,42,62,0
1,54,62,0
1,54,0,30
1,42,0,0
1,64,0,0
1,38,118,90
1,42,75,0
1,62,92,0
1,54,118,2
1,54,0,28
1,38,0,0
1,42,0,0
1,62,0,0
1,64,92,90
1,46,62,0
1,35,97,0
1,69,62,2
1,54,62,0
1,54,0,28
1,35,0,0
1,64,0,0
1,46,0,0
1,69,0,0
1,42,75,90
1,35,92,2
1,54,118,0
1,54,0,28
1,35,0,0
1,42,0,0
1,63,62,90
1,42,62,0
1,54,62,2
1,54,0,28
1,42,0,0
1,63,0,0
1,38,118,90
1,42,75,0
1,62,92,2
1,54,118,0
1,54,0,28
1,38,0,0
1,42,0,0
1,62,0,0
1,42,62,90
1,54,62,0
1,54,0,30
1,42,0,0
1,42,75,90
1,54,118,0
1,54,0,30
1,42,0,0
1,64,92,90
1,42,62,0
1,54,62,0
1,54,0,30
1,42,0,0
1,64,0,0
1,38,118,90
1,42,75,0
1,62,92,0
1,54,118,2
1,54,0,28
1,38,0,0
1,42,0,0
1,62,0,0
1,64,92,90
1,46,62,0
1,35,94,0
1,69,62,2
1,54,62,0
1,54,0,30
1,35,0,0
1,64,0,0
1,46,0,0
1,69,0,0
1,42,75,88
1,35,92,2
1,54,118,0
1,54,0,28
1,35,0,0
1,42,0,0
1,63,62,90
1,42,62,0
1,54,62,2
1,54,0,28
1,42,0,0
1,63,0,0
1,38,118,90
1,42,75,0
1,62,92,2
1,54,118,0
1,54,0,28
1,38,0,0
1,42,0,0
1,62,0,0
1,42,62,90
1,54,62,0
1,54,0,30
1,42,0,0
1,42,75,90
1,54,118,0
1,54,0,30
1,42,0,0
1,64,92,90
1,42,62,0
1,54,62,0
1,54,0,30
1,42,0,0
1,64,0,0
1,38,118,90
1,42,75,0
1,62,92,0
1,54,118,2
1,54,0,28
1,38,0,0
1,42,0,0
1,62,0,0
1,64,92,90
1,46,62,0
1,35,97,2
1,69,62,0
1,54,62,0
1,35,0,28
1,64,0,0
1,46,0,0
1,69,0,2
1,54,0,0
1,42,75,88
1,35,92,0
1,54,118,2
1,54,0,28
1,35,0,0
1,42,0,0
1,63,62,90
1,42,62,0
1,54,62,2
1,54,0,28
1,42,0,0
1,63,0,0
1,38,118,90
1,42,75,0
1,62,92,2
1,54,118,0
1,54,0,28
1,38,0,0
1,42,0,0
1,62,0,0
1,42,62,90
1,54,62,0
1,54,0,30
1,42,0,0
1,42,75,90
1,54,118,0
1,54,0,30
1,42,0,0
1,64,92,90
1,42,62,0
1,54,62,0
1,54,0,30
1,42,0,0
1,64,0,0
1,38,118,90
1,42,75,0
1,62,92,2
1,54,118,0
1,62,0,28
1,38,0,0
1,42,0,0
1,54,0,2
1,64,92,88
1,46,62,0
1,35,94,2
1,69,62,0
1,54,62,0
1,54,0,28
1,64,0,0
1,35,0,0
1,46,0,0
1,69,0,2
1,42,92,88
1,35,92,0
1,35,0,30
1,42,0,0
1,42,62,90
1,42,0,30
1,42,92,90
1,37,118,0
1,62,92,2
1,54,118,0
1,54,0,28
1,42,0,0
1,37,0,0
1,62,0,0
1,64,62,90
1,42,62,0
1,42,0,30
1,64,0,0
1,42,92,90
1,42,0,30
1,64,92,90
1,42,62,0
1,42,0,30
1,64,0,0
1,63,62,90
1,42,92,0
1,37,118,2
1,62,92,0
1,62,0,28
1,63,0,0
1,42,0,0
1,37,0,0
1,64,92,90
1,42,62,0
1,35,96,2
1,69,62,0
1,69,0,28
1,64,0,0
1,42,0,0
1,35,0,0
1,42,92,90
1,35,92,0
1,35,0,30
1,42,0,0
1,42,62,90
1,42,0,30
1,42,92,90
1,37,118,0
1,62,92,0
1,54,118,2
1,54,0,28
1,42,0,0
1,37,0,0
1,62,0,0
1,64,62,90
1,42,62,0
1,42,0,30
1,64,0,0
1,42,92,90
1,42,0,32
1,64,92,88
1,42,62,2
1,42,0,28
1,64,0,0
1,63,62,90
1,42,92,0
1,37,118,2
1,62,92,0
1,62,0,28
1,37,0,0
1,63,0,0
1,42,0,2
1,64,92,88
1,42,62,0
1,35,94,2
1,69,62,0
1,69,0,28
1,64,0,0
1,42,0,0
1,35,0,0
1,42,92,90
1,35,92,0
1,35,0,30
1,42,0,0
1,42,62,90
1,42,0,30
1,42,92,90
1,37,118,0
1,62,92,0
1,54,118,2
1,54,0,28
1,42,0,0
1,37,0,0
1,62,0,0
1,64,62,90
1,42,62,0
1,42,0,30
1,64,0,0
1,42,92,90
1,42,0,30
1,64,92,90
1,42,62,0
1,42,0,30
1,64,0,0
1,63,62,90
1,42,92,0
1,37,118,2
1,62,92,0
1,62,0,28
1,37,0,0
1,63,0,0
1,42,0,2
1,64,92,88
1,42,62,0
1,35,95,2
1,69,62,0
1,35,0,28
1,64,0,0
1,42,0,0
1,69,0,2
1,42,92,88
1,35,92,0
1,35,0,30
1,42,0,0
1,42,62,90
1,42,0,30
1,42,92,90
1,37,118,0
1,62,92,0
1,54,118,2
1,54,0,28
1,42,0,0
1,37,0,0
1,62,0,0
1,64,62,90
1,42,62,0
1,42,0,30
1,64,0,0
1,42,92,90
1,42,0,30
1,64,92,90
1,42,62,0
1,42,0,30
1,64,0,0
1,63,62,90
1,42,92,0
1,37,118,2
1,62,92,0
1,62,0,28
1,37,0,0
1,63,0,0
1,42,0,2
1,64,92,88
1,42,62,0
1,35,94,2
1,69,62,0
1,35,0,28
1,64,0,0
1,42,0,0
1,69,0,2
1,42,92,88
1,35,92,0
1,35,0,30
1,42,0,0
1,42,62,90
1,42,0,30
1,42,92,90
1,37,118,0
1,62,92,2
1,54,118,0
1,54,0,28
1,42,0,0
1,37,0,0
1,62,0,0
1,64,62,90
1,42,62,0
1,42,0,30
1,64,0,0
1,42,92,90
1,42,0,32
1,64,92,88
1,42,62,0
1,42,0,30
1,64,0,0
1,63,62,90
1,42,92,0
1,37,118,2
1,62,92,0
1,62,0,28
1,37,0,0
1,63,0,0
1,42,0,2
1,64,92,88
1,42,62,0
1,35,97,2
1,69,62,0
1,69,0,28
1,64,0,0
1,42,0,0
1,35,0,0
1,42,92,90
1,35,92,0
1,35,0,30
1,42,0,0
1,42,62,90
1,42,0,30
1,42,92,90
1,37,118,0
1,62,92,0
1,54,118,2
1,54,0,28
1,42,0,0
1,37,0,0
1,62,0,0
1,64,62,90
1,42,62,0
1,64,0,27
1,42,0,3
1,42,92,90
1,42,0,30
1,64,92,90
1,42,62,0
1,42,0,30
1,64,0,0
1,63,62,90
1,42,92,0
1,37,118,2
1,62,92,0
1,62,0,28
1,37,0,0
1,63,0,0
1,42,0,2
1,46,62,88
1,35,94,0
1,69,62,2
1,69,0,28
1,35,0,0
1,46,0,0
1,42,92,90
1,35,92,0
1,35,0,30
1,42,0,0
1,42,62,90
1,42,0,30
1,42,92,90
1,37,118,0
1,62,92,0
1,54,118,2
1,54,0,28
1,42,0,0
1,37,0,0
1,62,0,0
1,64,62,90
1,42,62,0
1,42,0,30
1,64,0,0
1,42,92,90
1,42,0,30
1,64,92,90
1,42,62,0
1,42,0,30
1,64,0,0
1,63,62,90
1,42,92,0
1,37,118,0
1,62,92,2
1,62,0,28
1,63,0,0
1,42,0,0
1,37,0,0
1,64,92,90
1,42,62,0
1,35,91,0
1,69,62,2
1,69,0,28
1,64,0,0
1,42,0,0
1,35,0,0
1,42,92,90
1,35,92,0
1,35,0,30
1,42,0,0
1,42,62,90
1,42,0,30
1,42,92,90
1,37,118,0
1,62,92,2
1,54,118,0
1,62,0,28
1,42,0,0
1,37,0,0
1,54,0,2
1,64,62,88
1,42,62,0
1,42,0,30
1,64,0,0
1,42,92,90
1,42,0,30
1,64,92,90
1,42,62,0
1,42,0,30
1,64,0,0
1,63,62,90
1,42,92,0
1,37,118,0
1,62,92,2
1,62,0,28
1,63,0,0
1,42,0,0
1,37,0,0
1,64,92,90
1,42,62,0
1,35,94,0
1,69,62,2
1,69,0,28
1,64,0,0
1,42,0,0
1,35,0,0
1,42,92,90
1,35,92,2
1,35,0,28
1,42,0,0
1,42,62,90
1,42,0,30
1,42,92,90
1,37,118,0
1,62,92,2
1,54,118,0
