track,note,velocity,time
17,71,117,31017
17,67,105,0
17,71,0,910
17,67,0,20
17,69,88,18
17,73,102,5
17,66,100,1467
17,73,0,15
17,66,0,1315
17,69,0,60
17,67,80,20
17,71,102,5
17,67,0,945
17,71,0,5
17,69,74,510
17,66,80,465
17,69,0,1643
17,66,0,202
17,71,117,63
17,67,100,0
17,67,0,942
17,71,0,10
17,69,80,490
17,73,105,483
17,73,0,745
17,66,92,217
17,66,0,805
17,68,74,145
17,71,102,13
17,69,0,10
17,68,0,1590
17,71,0,42
17,67,102,17558
17,71,117,2
17,64,125,158
17,62,118,0
17,71,121,2
17,67,92,3
17,67,0,20
17,62,0,2
17,64,0,3
17,71,0,7
17,64,125,210
17,62,121,0
17,67,86,5
17,71,115,0
17,67,0,20
17,71,0,3
17,64,0,2
17,62,0,0
17,64,115,208
17,62,125,0
17,67,79,5
17,71,118,0
17,67,0,15
17,71,0,7
17,64,0,3
17,62,0,2
17,64,112,200
17,62,118,0
17,71,118,3
17,67,79,2
17,67,0,20
17,71,0,3
17,64,0,2
17,62,0,0
17,67,0,58
17,69,56,7
17,73,102,15
17,71,0,23
17,61,110,112
17,64,127,0
17,69,94,5
17,64,0,23
17,61,0,0
17,69,0,10
17,64,121,205
17,61,110,2
17,69,79,0
17,61,0,23
17,64,0,2
17,69,0,8
17,64,121,197
17,61,125,3
17,69,96,0
17,64,0,25
17,61,0,5
17,69,0,2
17,66,115,208
17,64,121,0
17,61,108,2
17,69,100,0
17,64,0,18
17,66,0,5
17,61,0,2
17,69,0,0
17,64,112,220
17,66,115,0
17,61,110,3
17,69,82,2
17,64,0,13
17,66,0,10
17,61,0,2
17,69,0,5
17,66,108,203
17,61,115,0
17,64,118,2
17,69,70,5
17,64,0,18
17,66,0,5
17,61,0,2
17,69,0,8
17,66,98,50
17,73,0,20
17,66,115,130
17,61,121,2
17,64,115,0
17,69,69,5
17,64,0,18
17,66,0,5
17,61,0,2
17,69,0,0
17,66,106,203
17,64,108,2
17,61,108,0
17,69,71,5
17,64,0,13
17,69,0,7
17,66,0,3
17,61,0,2
17,61,104,208
17,64,112,0
17,66,112,0
17,69,71,5
17,64,0,15
17,66,0,2
17,69,0,0
17,61,0,3
17,66,104,212
17,64,125,0
17,61,127,0
17,69,75,5
17,66,0,18
17,64,0,2
17,69,0,5
17,61,0,3
17,61,104,217
17,66,104,0
17,64,118,0
17,69,69,5
17,64,0,15
17,66,0,3
17,69,0,0
17,61,0,7
17,61,104,208
17,66,104,0
17,64,108,2
17,69,82,5
17,69,0,5
17,64,0,8
17,69,0,7
17,66,0,3
17,61,0,2
17,66,0,15
17,67,78,18
17,71,102,5
17,64,121,160
17,71,125,2
17,67,96,0
17,62,112,0
17,67,0,15
17,71,0,5
17,62,0,3
17,64,0,2
17,62,118,215
17,64,127,0
17,67,80,3
17,71,127,0
17,67,0,17
17,71,0,8
17,62,0,2
17,64,0,0
17,62,118,213
17,64,121,2
17,71,121,3
17,67,100,0
17,71,0,15
17,67,0,2
17,64,0,3
17,62,0,5
17,62,125,210
17,67,98,2
17,64,121,0
17,71,115,3
17,71,0,15
17,67,0,5
17,64,0,2
17,62,0,5
17,69,66,35
17,73,94,10
17,67,0,13
17,71,0,2
17,61,115,148
17,64,125,0
17,69,90,2
17,64,0,25
17,61,0,0
17,69,0,8
17,64,110,205
17,61,115,2
17,69,92,0
17,64,0,25
17,61,0,3
17,69,0,0
17,61,112,212
17,64,127,0
17,69,84,3
17,61,0,20
17,64,0,2
17,69,0,8
17,64,121,202
17,61,108,3
17,69,86,0
17,61,0,17
17,64,0,5
17,69,0,8
17,66,90,40
17,73,0,12
17,69,102,153
17,61,118,0
17,64,127,0
17,66,108,0
17,64,0,25
17,61,0,2
17,66,0,0
17,69,0,3
17,61,102,225
17,64,115,0
17,66,100,0
17,69,88,2
17,66,0,15
17,64,0,0
17,61,0,3
17,69,0,2
17,61,108,218
17,64,112,0
17,66,104,0
17,69,70,5
17,64,0,12
17,66,0,3
17,61,0,2
17,69,0,0
17,61,104,215
17,66,94,0
17,64,104,3
17,69,66,2
17,64,0,15
17,66,0,0
17,69,0,3
17,61,0,5
17,61,110,207
17,64,110,0
17,66,102,0
17,69,73,5
17,64,0,13
17,66,0,5
17,69,0,0
17,61,0,2
17,61,106,208
17,64,115,0
17,66,106,0
17,69,79,2
17,64,0,13
17,66,0,5
17,61,0,2
17,69,0,0
17,61,100,210
17,64,104,0
17,66,100,0
17,69,77,5
17,64,0,15
17,66,0,3
17,69,0,0
17,61,0,5
17,61,118,210
17,64,115,0
17,66,106,0
17,69,96,2
17,66,0,20
17,64,0,0
17,66,0,3
17,69,0,0
17,61,0,2
17,69,0,33
17,67,78,22
17,71,102,10
17,71,0,933
17,69,80,5
17,73,94,7
17,67,0,20
17,66,80,1433
17,73,0,7
17,69,0,1410
17,68,69,0
17,71,94,8
17,66,0,12
17,68,0,1430
17,71,0,228
18,61,92,23699
18,65,90,3
18,61,0,182
18,62,100,43
18,66,86,2
18,65,0,23
18,62,0,1475
18,66,0,37
18,61,98,165
18,65,111,3
18,62,105,232
18,66,88,5
18,65,0,20
18,61,0,0
18,62,0,1360
18,66,0,3
18,60,100,285
18,63,102,2
18,63,0,210
18,60,0,8
18,61,94,0
18,64,84,10
18,61,0,1497
18,64,0,30
18,62,66,148
18,66,72,37
18,62,0,1665
18,66,0,28
18,62,117,207
18,64,117,0
18,67,84,3
18,71,117,2
18,62,0,885
18,61,115,70
18,69,76,3
18,67,0,10
18,71,0,2
18,66,76,955
18,64,0,90
18,61,0,1785
18,66,0,5
18,64,117,33
18,62,117,2
18,67,102,3
18,71,115,0
18,69,0,15
18,62,0,7
18,62,88,33
18,62,0,802
18,69,62,103
18,61,105,2
18,67,0,498
18,71,0,25
18,66,98,430
18,64,0,20
18,66,0,1622
18,69,0,258
18,71,92,12
18,67,82,3
18,64,111,0
18,61,0,22
18,61,102,935
18,69,63,5
18,67,0,243
18,71,0,255
18,66,98,482
18,64,0,18
18,61,0,1837
18,66,0,33
18,64,117,2
18,68,72,0
18,69,0,30
18,68,0,1855
18,64,0,0
18,61,100,9655
18,65,96,3
18,65,0,215
18,62,102,5
18,66,80,0
18,61,0,30
18,62,0,1360
18,66,0,67
18,61,86,233
18,65,98,2
18,62,98,233
18,66,76,5
18,65,0,22
18,61,0,0
18,62,0,1340
18,66,0,30
18,60,94,293
18,63,96,5
18,63,0,205
18,60,0,10
18,61,92,2
18,64,69,5
18,64,0,1403
18,61,0,32
18,61,86,253
18,65,94,2
18,62,96,240
18,66,78,5
18,65,0,15
18,61,0,3
18,62,0,1120
18,66,0,72
18,67,98,470
18,64,117,0
18,71,111,478
18,71,0,467
18,67,0,18
18,61,108,5
18,69,60,0
18,64,0,862
18,66,90,93
18,66,0,1855
18,61,0,2
18,64,117,45
18,67,90,3
18,69,0,27
18,71,117,448
18,71,0,412
18,69,60,70
18,61,108,8
18,67,0,20
18,64,0,5
18,66,84,927
18,61,0,28
18,61,108,1405
18,66,0,427
18,64,111,80
18,67,96,3
18,71,102,0
18,69,0,7
18,61,0,10
18,71,0,905
18,67,0,3
18,61,100,22
18,69,66,3
18,66,84,977
18,64,0,5
18,64,102,1888
18,68,65,2
18,61,0,13
18,69,0,12
18,66,0,3
18,71,88,925
18,71,0,482
18,68,0,385
18,64,0,18
18,57,94,97
18,69,94,3
18,57,0,25
18,69,0,10
18,61,63,1867
18,65,80,5
18,62,72,233
18,66,60,12
18,65,0,10
18,61,0,10
18,62,0,1418
18,66,0,15
18,61,67,222
18,65,86,5
18,62,82,225
18,66,62,3
18,65,0,25
18,61,0,0
18,62,0,1417
18,66,0,30
18,60,82,210
18,63,94,3
18,63,0,220
18,60,0,5
18,61,88,2
18,64,82,8
18,64,0,1440
18,61,0,32
18,61,69,215
18,65,88,3
18,62,88,230
18,66,64,5
18,65,0,22
18,61,0,3
18,62,0,1370
18,66,0,27
18,60,76,258
18,63,76,5
18,63,0,215
18,60,0,12
18,61,86,3
18,64,76,5
18,64,0,1497
18,61,0,58
18,65,68,140
18,61,49,0
18,66,65,217
18,65,0,25
18,64,25,985
18,61,0,25
18,64,0,20
18,62,38,210
18,62,0,1063
18,66,0,317
19,62,112,10
19,66,100,3
19,62,0,505
19,66,0,37
19,62,91,172
19,66,87,3
19,62,0,1083
19,66,0,57
19,61,110,10
19,64,112,0
19,64,0,390
19,61,0,0
19,62,112,23
19,66,106,2
19,62,0,1025
19,66,0,40
19,62,112,3
19,66,93,3
19,62,0,980
19,66,0,23
19,62,110,32
19,66,97,3
19,62,0,222
19,66,0,30
19,61,106,12
19,64,106,3
19,61,0,808
19,64,0,12
19,62,112,2
19,66,93,0
19,62,0,1030
19,66,0,47
19,62,112,3
19,66,103,0
19,62,0,12
19,66,0,78
19,62,112,3
19,66,100,2
19,62,0,1153
19,64,61,85
19,66,0,7
19,64,0,23
19,61,112,7
19,64,112,3
19,61,0,975
19,64,0,57
19,62,110,5
19,66,103,7
19,62,0,570
19,66,0,60
19,74,112,1850
19,73,112,55
19,74,0,12
19,69,77,75
19,73,0,23
19,69,0,37
19,66,112,0
19,66,0,243
19,62,112,7
19,62,0,458
19,69,95,570
19,69,0,115
19,66,93,0
19,66,0,165
19,66,100,55
19,66,0,573
19,69,89,2
19,71,112,155
19,69,0,18
19,71,0,160
19,74,112,37
19,71,110,500
19,74,0,8
19,69,95,230
19,71,0,7
19,67,95,328
19,69,0,2
19,66,93,473
19,67,0,7
19,66,0,470
19,64,106,13
19,64,0,835
19,73,103,110
19,73,0,720
19,69,93,0
19,66,110,250
19,69,0,2
19,66,0,748
19,64,106,210
19,68,79,1192
19,64,0,28
19,71,103,220
19,68,0,12
19,71,0,240
19,62,112,2
19,66,103,5
19,62,0,437
19,66,0,33
19,62,112,5
19,66,100,3
19,62,0,585
19,66,0,25
19,61,106,32
19,64,110,3
19,64,0,755
19,61,0,15
19,62,112,27
19,66,97,3
19,62,0,990
19,66,0,28
19,62,112,10
19,66,112,2
19,62,0,652
19,66,0,28
19,62,112,3
19,66,106,2
19,62,0,115
19,66,0,10
19,61,103,40
19,64,106,2
19,64,0,175
19,61,0,5
19,62,110,12
19,66,97,0
19,62,0,857
19,66,0,290
19,64,61,43
19,64,0,37
19,74,112,5
19,73,112,192
19,74,0,20
19,69,103,5
19,73,0,3
19,66,112,242
19,69,0,3
19,64,106,262
19,66,0,10
19,67,103,110
19,64,0,7
19,67,0,253
19,66,83,10
19,64,112,648
19,66,0,5
19,69,106,230
19,64,0,12
19,69,0,950
19,69,112,145
19,69,0,48
19,66,112,5
19,66,0,257
19,69,100,0
19,69,0,190
19,74,112,8
19,73,112,262
19,74,0,15
19,69,89,253
19,73,0,7
19,66,56,235
19,69,0,13
19,62,93,192
19,66,0,3
19,62,0,512
19,73,112,5
19,73,0,112
19,74,112,3
19,73,106,100
19,74,0,23
19,69,106,130
19,73,0,18
19,69,0,197
19,66,112,3
19,64,106,250
19,66,0,22
19,64,0,58
19,62,112,2
19,64,95,390
19,62,0,18
19,66,103,72
19,64,0,13
19,66,0,225
19,64,110,7
19,68,81,400
19,64,0,40
19,71,112,53
19,68,0,2
19,73,97,703
19,71,0,12
19,73,0,115
19,64,106,15
19,64,0,555
19,62,112,3
19,66,100,2
19,62,0,758
19,66,0,55
19,62,112,2
19,66,106,3
19,62,0,122
19,66,0,33
19,61,112,3
19,64,112,2
19,64,0,550
19,61,0,0
19,62,103,5
19,66,100,5
19,62,0,793
19,66,0,87
19,61,110,3
19,64,112,2
19,61,0,720
19,64,0,5
19,62,112,2
19,66,106,5
19,66,0,820
19,62,0,5
19,62,112,2
19,66,100,2
19,62,0,32
19,66,0,10
20,57,98,930
20,61,117,1
20,65,119,3
20,38,103,6
20,50,108,0
20,61,0,159
20,65,0,45
20,62,113,33
20,66,120,6
20,45,98,1585
20,62,0,5
20,38,0,7
20,50,0,6
20,66,0,5
20,57,0,4
20,45,0,54
20,61,127,3
20,57,89,1
20,65,127,2
20,50,127,4
20,38,111,5
20,61,0,141
20,65,0,46
20,57,0,11
20,57,103,38
20,62,123,0
20,66,120,5
20,50,0,119
20,38,0,15
20,62,0,1123
20,52,98,92
20,66,0,18
20,57,0,12
20,52,0,5
20,60,127,20
20,45,120,1
20,57,93,0
20,63,127,0
20,60,0,195
20,63,0,2
20,57,0,19
20,57,69,21
20,61,111,3
20,64,103,4
20,57,0,187
20,61,0,7
20,64,0,9
20,45,0,4
20,45,93,1172
20,45,0,36
20,61,123,4
20,65,122,3
20,57,89,0
20,38,93,9
20,50,93,0
20,61,0,151
20,62,106,80
20,66,100,6
20,65,0,10
20,50,0,1519
20,38,0,48
20,62,0,13
20,45,86,8
20,66,0,14
20,57,0,15
20,45,0,43
20,65,127,9
20,61,127,0
20,50,83,2
20,57,82,0
20,38,98,4
20,61,0,151
20,65,0,56
20,62,108,27
20,66,123,4
20,38,0,878
20,50,0,73
20,62,0,78
20,64,93,63
20,62,127,80
20,57,0,17
20,64,0,110
20,66,0,24
20,45,93,7
20,62,0,12
20,45,0,57
20,61,127,21
20,57,93,0
20,65,127,3
20,38,98,0
20,50,127,1
20,61,0,147
20,65,0,64
20,62,106,9
20,66,111,8
20,38,0,881
20,62,0,17
20,50,0,49
20,64,96,52
20,62,111,82
20,66,0,18
20,57,0,12
20,64,0,64
20,62,0,14
20,52,111,60
20,52,0,28
20,60,127,23
20,63,127,1
20,57,78,2
20,45,126,3
20,63,0,202
20,60,0,3
20,61,117,9
20,64,108,10
20,45,0,723
20,61,0,64
20,64,0,237
20,57,0,6
20,45,120,49
20,61,117,52
20,45,0,1
20,57,80,0
20,65,125,2
20,50,127,15
20,38,89,0
20,61,0,131
20,65,0,52
20,62,113,33
20,66,126,6
20,62,0,112
20,62,44,294
20,62,0,26
20,62,86,205
20,62,0,46
20,57,0,50
20,62,85,128
20,64,111,2
20,62,0,28
20,62,123,223
20,50,0,42
20,38,0,16
20,64,0,11
20,57,98,6
20,66,0,28
20,62,0,5
20,45,69,46
20,45,0,70
20,65,127,25
20,61,123,0
20,38,96,9
20,50,111,1
20,61,0,99
20,65,0,75
20,62,111,48
20,66,108,3
20,62,0,879
20,62,71,115
20,62,0,28
20,66,0,84
20,62,111,14
20,64,117,3
20,62,0,38
20,62,123,215
20,57,0,10
20,64,0,63
20,57,117,4
20,50,0,8
20,62,0,15
20,38,0,15
20,45,91,113
20,45,0,81
20,65,127,6
20,61,127,5
20,38,96,10
20,50,126,3
20,61,0,94
20,65,0,76
20,62,117,44
20,66,123,5
20,62,0,153
20,50,0,39
20,62,96,98
20,50,73,85
20,62,0,22
20,62,78,130
20,57,0,15
20,62,0,67
20,57,91,1
20,50,0,125
20,50,113,37
20,66,0,21
20,66,106,69
20,50,0,77
20,38,0,19
20,64,126,49
20,66,0,61
20,62,127,17
20,57,0,37
20,64,0,4
20,57,38,24
20,62,0,33
20,57,0,48
20,52,89,10
20,52,0,55
20,63,127,25
20,60,127,0
20,57,72,1
20,43,113,14
20,45,100,0
20,43,0,67
20,60,0,55
20,63,0,71
20,61,127,23
20,64,117,5
20,61,0,91
20,61,89,71
20,57,0,26
20,57,96,74
20,61,0,21
20,45,0,33
20,61,93,90
20,45,91,91
20,57,0,45
20,57,77,93
20,61,0,19
20,61,98,70
20,57,0,24
20,57,83,122
20,61,0,19
20,45,0,209
20,57,0,13
20,59,100,10
20,57,100,87
20,59,0,7
20,64,0,97
20,57,0,22
20,45,106,29
20,45,0,32
20,61,123,14
20,57,111,1
20,65,127,2
20,38,89,7
20,50,106,2
20,61,0,123
20,65,0,67
20,62,120,32
20,66,126,4
20,64,83,109
20,62,0,1
20,62,106,84
20,64,0,23
20,57,0,3
20,50,0,122
20,57,75,11
20,62,0,76
20,50,89,16
20,38,0,22
20,50,0,39
20,62,85,76
20,57,0,15
20,57,72,68
20,62,0,26
20,66,0,43
20,64,127,101
20,62,82,6
20,62,0,12
20,62,127,233
20,57,0,8
20,64,0,55
20,57,127,16
