track,note,velocity,time
1,66,127,0
1,59,127,0
1,62,127,0
1,59,127,20
1,66,127,0
1,62,127,0
1,66,127,20
1,62,127,0
1,59,127,0
1,66,127,20
1,59,127,0
1,62,127,0
1,61,127,116
1,57,127,0
1,64,127,0
1,66,127,20
1,59,127,0
1,62,127,0
1,59,127,20
1,66,127,0
1,62,127,0
1,66,127,20
1,59,127,0
1,62,127,0
1,66,127,20
1,59,127,0
1,62,127,0
1,59,127,116
1,55,127,0
1,62,127,0
1,66,127,20
1,59,127,0
1,62,127,0
1,66,127,20
1,59,127,0
1,62,127,0
1,66,127,20
1,59,127,0
1,62,127,0
1,62,127,20
1,66,127,0
1,59,127,0
1,61,127,116
1,64,127,0
1,57,127,0
1,67,127,0
1,62,127,39
1,57,127,0
1,66,127,0
1,69,127,0
1,62,127,77
1,62,127,20
1,62,127,20
1,59,127,20
1,50,127,0
1,62,127,0
1,59,127,20
1,62,127,0
1,57,127,39
1,59,127,20
1,49,100,0
1,57,127,20
1,57,127,20
1,54,127,20
1,45,81,0
1,57,127,20
1,59,127,77
1,50,127,0
1,59,127,20
1,50,127,0
1,50,127,20
1,59,127,0
1,59,127,20
1,50,127,0
1,59,127,20
1,49,92,0
1,57,127,20
1,57,127,20
1,54,127,20
1,57,127,0
1,50,127,0
1,57,127,20
1,57,127,20
1,50,127,20
1,59,127,0
1,50,127,20
1,59,127,0
1,50,127,20
1,59,127,0
1,59,127,39
1,49,96,0
1,59,127,20
1,59,127,20
1,54,127,20
1,45,127,0
1,59,127,0
1,57,127,20
1,57,127,20
1,54,127,20
1,57,127,0
1,45,127,0
1,44,127,77
1,52,127,0
1,44,127,20
1,52,127,0
1,44,127,20
1,52,127,0
1,44,127,20
1,52,127,0
1,54,127,20
1,44,88,0
1,52,127,20
1,54,127,20
1,52,127,20
1,61,127,20
1,52,87,0
1,57,127,20
1,59,127,20
1,57,127,39
1,49,81,0
1,52,59,0
1,57,127,20
1,57,127,20
1,59,127,20
1,50,127,0
1,50,127,20
1,59,127,0
1,61,127,39
1,52,127,0
1,61,127,20
1,52,127,0
1,54,127,39
1,62,127,0
1,50,127,0
1,57,127,20
1,59,127,20
1,54,127,39
1,50,127,0
1,57,127,0
1,59,127,77
1,50,127,0
1,50,127,39
1,59,127,0
1,59,127,20
1,50,127,0
1,61,127,20
1,52,127,0
1,52,127,20
1,61,127,0
1,52,127,20
1,61,127,0
1,62,127,20
1,54,127,0
1,54,127,20
1,62,127,0
1,54,127,39
1,62,127,0
1,62,127,20
1,59,89,0
1,55,63,0
1,50,74,0
1,62,127,20
1,62,127,20
1,62,127,20
1,57,127,20
1,54,102,0
1,50,71,0
1,57,127,20
1,57,127,20
1,62,127,20
1,55,127,0
1,50,127,0
1,59,127,0
1,62,127,20
1,54,127,20
1,57,127,0
1,50,127,0
1,62,127,20
1,62,127,20
1,59,127,20
1,62,127,0
1,55,127,0
1,52,127,0
1,50,61,0
1,59,127,0
1,54,127,20
1,50,127,0
1,57,127,0
1,57,127,20
1,57,127,20
1,59,127,20
1,49,88,0
1,52,64,0
1,57,127,20
1,57,127,20
1,54,127,20
1,50,127,0
1,57,127,0
1,62,117,269
1,55,117,0
1,59,117,0
1,50,117,0
1,57,117,39
1,49,98,0
1,52,92,0
1,57,117,20
1,57,117,20
1,54,117,39
1,59,117,0
1,50,117,0
1,57,117,39
1,54,117,20
1,50,117,0
1,57,117,0
1,59,117,77
1,50,117,0
1,59,117,20
1,50,117,0
1,59,117,20
1,50,117,0
1,52,117,39
1,61,117,0
1,52,117,20
1,61,117,0
1,52,117,20
1,61,117,0
1,62,117,20
1,54,117,0
1,50,117,0
1,57,117,20
1,59,117,20
1,54,117,20
1,57,117,0
1,50,117,0
1,59,117,77
1,50,117,0
1,59,117,39
1,50,117,0
1,59,117,20
1,50,117,0
1,61,117,20
1,52,117,0
1,61,117,20
1,52,117,0
1,52,117,20
1,61,117,0
1,54,117,20
1,62,117,0
1,50,117,0
1,57,117,20
1,59,117,20
1,54,117,20
1,50,117,0
1,57,117,0
1,62,117,20
1,62,117,20
1,57,117,20
1,59,117,212
1,55,117,0
1,62,117,0
1,50,117,0
1,57,117,39
1,54,114,0
1,50,81,0
1,57,117,20
1,57,117,20
1,59,117,39
1,49,117,0
1,52,117,0
1,57,117,39
1,54,117,20
1,57,117,0
1,50,117,0
1,66,117,77
1,71,117,0
1,62,117,0
1,66,117,20
1,71,117,0
1,62,117,0
1,66,117,20
1,62,117,0
1,71,117,0
1,66,117,20
1,71,117,0
1,62,117,0
1,64,117,116
1,69,117,0
1,73,117,0
1,66,117,39
1,74,117,0
1,69,117,0
1,62,117,0
1,74,117,20
1,66,117,0
1,62,117,0
1,69,117,0
1,59,127,154
1,62,127,0
1,50,127,0
1,59,127,20
1,62,127,0
1,62,127,20
1,59,127,0
1,57,127,20
1,59,127,20
1,49,127,0
1,57,127,39
1,54,127,39
1,57,115,0
1,50,127,0
1,54,127,20
1,57,127,0
1,54,127,39
1,57,120,0
1,62,127,20
1,62,127,20
1,57,127,20
1,62,127,20
1,59,127,0
1,50,127,0
1,62,127,39
1,62,127,20
1,59,127,20
1,49,127,0
1,57,127,20
1,57,127,20
1,54,127,20
1,50,127,0
1,57,127,0
1,50,127,20
1,59,127,0
1,62,127,0
1,59,127,20
1,62,126,0
1,62,127,20
1,59,127,0
1,62,127,20
1,52,127,0
1,57,127,0
1,57,127,39
1,59,127,20
1,45,127,0
1,54,127,0
1,57,127,20
1,57,127,20
1,57,127,20
1,57,127,20
1,45,127,0
1,54,127,0
1,57,127,20
1,57,127,20
1,57,127,20
1,57,127,20
1,52,127,20
1,44,127,0
1,52,127,20
1,52,127,20
1,54,127,20
1,44,127,0
1,52,127,20
1,54,127,20
1,52,116,20
1,61,127,20
1,52,127,0
1,57,124,20
1,59,127,20
1,57,127,39
1,49,127,0
1,52,124,0
1,57,127,39
1,59,127,20
1,50,127,0
1,59,127,39
1,50,127,0
1,52,121,20
1,61,127,0
1,52,124,39
1,61,127,0
1,54,127,20
1,62,127,0
1,50,114,0
1,57,125,20
1,59,127,20
1,57,127,39
1,50,124,0
1,54,127,0
1,54,127,20
1,59,127,20
1,50,127,0
1,50,127,20
1,59,127,0
1,50,127,20
1,59,127,0
1,59,127,20
1,50,127,0
1,52,127,20
1,61,127,0
1,52,126,20
1,61,127,0
1,52,127,20
1,61,127,0
1,59,127,20
1,54,127,0
1,50,116,0
1,62,127,173
1,62,127,20
1,62,122,20
1,62,127,20
1,55,127,0
1,50,127,0
1,59,127,0
1,62,127,20
1,62,127,20
1,62,127,20
1,57,127,20
1,54,127,0
1,50,127,0
1,57,127,20
1,57,127,20
1,62,118,20
1,55,121,0
1,50,121,0
1,59,125,0
1,62,127,20
1,57,127,20
1,50,121,0
1,54,127,0
1,62,127,20
1,62,127,20
1,57,127,20
1,59,127,20
1,62,127,0
1,55,121,0
1,50,127,0
1,57,114,20
1,59,127,20
1,57,127,20
1,57,127,20
1,54,127,0
1,50,119,0
1,57,127,20
1,57,127,20
1,59,127,39
1,65,59,0
1,57,127,20
1,49,127,0
1,52,127,0
1,62,127,39
1,54,127,20
1,57,125,0
1,50,116,0
1,62,117,173
1,55,117,0
1,59,117,0
1,50,117,0
1,57,117,39
1,49,98,0
1,52,92,0
1,57,117,20
1,57,117,20
1,54,117,39
1,59,117,0
1,50,117,0
1,57,117,39
1,54,117,20
1,50,117,0
1,57,117,0
1,59,117,77
1,50,117,0
1,59,117,20
1,50,117,0
1,50,117,20
1,59,117,0
1,52,117,20
1,61,117,0
1,52,117,39
1,61,117,0
1,62,117,20
1,54,117,0
1,50,117,0
1,57,117,116
1,59,117,20
1,54,117,20
1,57,117,0
1,50,117,0
1,62,117,77
1,71,117,0
1,71,117,20
1,62,117,0
1,71,117,20
1,62,117,0
1,64,117,39
1,73,117,0
1,64,117,20
1,73,117,0
1,73,117,20
1,64,117,0
1,74,117,20
1,66,117,0
1,62,117,0
1,69,117,20
1,71,117,20
1,69,117,20
1,62,117,0
1,66,117,0
1,74,117,20
1,74,117,20
1,69,117,20
1,59,117,212
1,55,117,0
1,62,117,0
1,50,117,0
1,57,117,39
1,54,114,0
1,50,81,0
1,57,117,20
1,57,117,20
1,59,117,39
1,49,117,0
1,52,117,0
1,57,117,39
1,54,117,20
1,57,117,0
1,50,117,0
1,59,117,77
1,62,117,0
1,59,117,20
1,62,117,0
1,59,117,20
1,62,117,0
1,62,117,20
1,59,117,0
1,59,117,20
1,49,117,20
1,57,117,0
1,53,117,39
1,54,117,20
1,54,117,20
1,57,117,0
1,54,117,20
1,57,117,0
1,54,117,20
1,57,117,0
1,57,117,135
1,61,117,0
1,62,117,20
1,59,117,0
1,59,117,20
1,62,117,0
1,59,117,20
1,62,117,0
1,61,117,39
1,64,117,0
1,62,117,20
1,59,117,0
1,64,117,39
1,61,117,0
1,62,117,20
1,66,117,0
1,61,117,135
1,57,117,0
1,62,117,20
1,59,117,0
1,62,117,20
1,59,117,0
1,62,117,20
1,59,117,0
1,61,117,39
1,64,117,0
1,62,117,20
1,59,117,0
1,61,117,39
1,64,117,0
1,62,117,20
1,66,117,0
1,59,117,77
1,67,117,0
1,57,117,20
1,66,117,0
1,59,117,39
1,67,117,0
1,62,117,20
1,69,117,0
1,59,117,77
1,67,117,0
1,57,117,20
1,66,117,0
1,52,117,39
1,61,117,0
1,54,117,20
1,62,117,0
1,62,117,6490
1,55,117,0
1,59,117,0
1,50,117,0
1,57,117,39
1,49,98,0
1,52,92,0
1,57,117,20
1,57,117,20
1,54,117,39
1,59,117,0
1,50,117,0
1,57,117,39
1,54,117,20
1,50,117,0
1,57,117,0
1,62,117,77
1,55,117,0
1,50,117,0
1,59,117,0
1,62,117,20
1,62,117,20
1,62,117,20
1,52,117,0
1,57,117,0
1,62,117,20
1,62,117,20
1,62,117,20
1,62,117,20
1,54,117,0
1,50,117,0
1,57,117,0
1,62,117,20
1,62,117,20
1,62,117,20
1,57,117,0
1,54,117,0
1,50,117,0
1,62,117,77
1,55,117,0
1,59,117,0
1,50,117,0
1,62,117,20
1,62,117,20
1,62,117,20
1,57,117,0
1,52,117,0
1,62,117,20
1,62,117,20
1,62,117,39
1,54,117,0
1,57,117,0
1,50,117,0
1,62,117,39
1,62,117,20
1,54,117,0
1,57,117,0
1,50,117,0
1,62,117,20
1,62,117,20
1,62,117,20
1,62,117,212
1,55,117,0
1,59,117,0
1,50,117,0
1,62,117,39
1,54,117,0
1,57,117,0
1,50,117,0
1,62,117,20
1,62,117,20
1,57,117,39
1,52,117,0
1,62,117,0
1,62,117,39
1,54,117,20
1,62,117,0
1,57,117,0
1,50,117,0
1,66,117,20
1,66,117,20
1,62,117,20
1,50,117,212
1,62,117,0
1,55,117,0
1,59,117,0
1,62,117,39
1,54,117,0
1,50,117,0
1,57,117,0
1,62,117,20
1,62,117,20
1,66,117,39
1,62,117,39
1,54,117,20
1,57,117,0
1,62,117,0
1,50,117,0
1,66,117,20
1,66,117,20
1,62,117,20
1,62,117,212
1,55,117,0
1,50,117,0
1,59,117,0
1,62,117,39
1,54,117,0
1,50,117,0
1,57,117,0
1,62,117,20
1,62,117,20
1,61,117,39
1,66,117,0
1,52,117,0
1,62,117,39
1,54,117,20
1,57,117,0
1,62,117,0
1,50,117,0
1,66,117,77
1,62,117,0
1,69,117,0
1,59,117,0
1,66,117,20
1,59,117,0
1,69,117,0
1,62,117,0
1,59,117,20
1,66,117,0
1,69,117,0
1,62,117,0
1,66,117,20
1,69,117,0
1,59,117,0
1,62,117,0
1,67,117,116
1,64,117,0
1,60,117,0
1,57,117,0
1,66,117,20
1,62,117,0
1,69,117,0
1,59,117,0
1,66,117,20
1,62,117,0
1,69,117,0
1,59,117,0
1,62,117,20
1,66,117,0
1,59,117,0
1,69,117,0
1,66,117,20
1,62,117,0
1,69,117,0
1,59,117,0
1,59,117,116
1,67,117,0
1,71,117,0
1,62,117,0
1,66,117,20
1,69,117,0
1,62,117,0
1,59,117,0
1,69,117,20
1,62,117,0
1,66,117,0
1,59,117,0
1,66,117,20
1,62,117,0
1,69,117,0
1,59,117,0
1,69,117,20
1,66,117,0
1,62,117,0
1,59,117,0
1,61,117,116
1,67,117,0
1,64,117,0
1,57,117,0
1,61,117,39
1,64,117,0
1,57,117,0
1,62,117,20
1,66,117,0
1,57,117,0
2,47,127,0
2,47,127,20
2,47,127,20
2,47,127,20
2,45,127,116
2,47,127,20
2,47,127,20
2,47,127,20
2,47,127,20
2,43,127,116
2,47,127,20
2,47,127,20
2,47,127,20
2,47,127,20
2,45,127,116
2,38,127,39
2,43,127,20
2,43,127,39
2,45,127,39
2,38,127,77
2,38,127,20
2,38,127,20
2,38,127,20
2,43,127,20
2,43,127,20
2,45,127,20
2,38,127,77
2,38,127,20
2,38,127,20
2,43,127,77
2,43,127,20
2,45,127,20
2,38,127,77
2,38,127,20
2,38,127,20
2,38,127,20
2,40,127,20
2,40,127,20
2,40,127,20
2,40,127,20
2,45,127,20
2,45,127,20
2,45,127,20
2,43,127,20
2,43,127,39
2,45,127,39
2,38,127,77
2,38,127,20
2,38,127,20
2,38,127,20
2,43,127,20
2,43,127,20
2,45,127,20
2,47,127,77
2,35,127,20
2,35,127,20
2,43,127,77
2,43,127,20
2,38,127,20
2,43,127,77
2,38,127,77
2,43,127,20
2,43,127,39
2,38,127,39
2,45,127,77
2,38,127,77
2,40,127,39
2,38,127,20
2,43,117,212
2,45,117,39
2,45,117,20
2,38,117,20
2,38,117,20
2,38,117,20
2,38,117,20
2,43,117,20
2,43,117,20
2,45,117,20
2,38,117,77
2,38,117,20
2,38,117,20
2,38,117,20
2,43,117,20
2,43,117,20
2,45,117,20
2,38,117,77
2,38,117,20
2,38,117,20
2,38,117,20
2,43,117,20
2,43,117,20
2,38,117,20
2,38,117,20
2,45,117,20
2,38,117,77
2,47,117,77
2,47,117,20
2,47,117,20
2,47,117,20
2,45,117,116
2,38,117,39
2,38,117,20
2,43,127,154
2,43,127,20
2,45,127,20
2,45,127,20
2,38,127,20
2,38,127,20
2,38,127,20
2,38,127,20
2,43,64,20
2,43,127,20
2,43,127,20
2,45,127,20
2,38,127,77
2,38,127,20
2,38,127,20
2,43,127,77
2,45,127,77
2,38,127,288
2,38,127,20
2,38,127,20
2,38,127,20
2,40,127,20
2,40,127,20
2,40,127,20
2,40,127,20
2,45,127,20
2,45,127,20
2,45,127,20
2,43,127,77
2,45,127,20
2,45,127,39
2,38,127,39
2,38,127,20
2,38,127,20
2,43,127,77
2,43,127,20
2,45,127,20
2,47,127,77
2,35,127,20
2,35,127,20
2,43,127,77
2,43,127,20
2,38,127,20
2,43,127,77
2,38,127,77
2,38,127,20
2,43,127,20
2,43,127,20
2,38,127,20
2,38,127,20
2,45,127,20
2,38,127,77
2,40,127,39
2,38,127,20
2,43,117,212
2,45,117,39
2,45,117,20
2,38,117,20
2,38,117,20
2,38,117,20
2,38,117,20
2,43,117,20
2,43,117,20
2,45,117,20
2,38,117,77
2,38,117,20
2,38,117,20
2,38,117,20
2,43,117,20
2,43,117,20
2,45,117,20
2,38,117,77
2,38,117,20
2,38,117,20
2,38,117,20
2,43,117,20
2,43,117,20
2,38,117,20
2,38,117,20
2,45,117,20
2,38,117,77
2,43,117,77
2,43,117,20
2,45,117,20
2,38,117,77
2,38,117,20
2,38,117,20
2,43,117,77
2,43,117,20
2,45,117,20
2,38,117,77
2,38,117,20
2,38,117,20
2,43,117,77
2,43,117,20
2,45,117,20
2,38,117,77
2,38,117,20
2,38,117,20
2,43,117,77
2,43,117,20
2,45,117,20
2,38,117,77
2,43,117,6490
2,45,117,39
2,45,117,20
2,38,117,20
2,38,117,20
2,38,117,20
2,38,117,20
2,43,127,20
2,45,121,77
2,45,116,20
2,38,123,20
2,38,118,20
2,38,125,20
2,38,116,20
2,43,121,20
2,45,121,77
2,45,116,20
2,38,127,20
2,38,125,20
