track,note,velocity,time
1,29,117,3357
1,29,0,420
1,29,110,60
1,33,104,160
1,29,0,15
1,36,110,145
1,33,0,25
1,36,0,135
1,30,112,0
1,30,0,365
1,30,108,115
1,33,106,160
1,30,0,65
1,33,0,90
1,36,114,5
1,36,0,150
1,29,114,10
1,29,0,395
1,31,114,1525
1,31,0,775
1,34,114,25
1,38,102,160
1,34,0,5
1,38,0,460
1,34,110,15
1,31,106,320
1,34,0,15
1,24,110,145
1,31,0,20
1,24,0,745
1,28,112,35
1,31,110,160
1,28,0,60
1,31,0,415
1,28,112,5
1,28,0,320
1,24,110,0
1,29,117,160
1,24,0,15
1,29,0,760
1,33,108,25
1,36,110,160
1,33,0,55
1,36,0,370
1,33,112,55
1,29,110,320
1,33,0,35
1,26,112,125
1,29,0,15
1,26,0,740
1,29,117,45
1,33,104,160
1,29,0,25
1,29,114,455
1,33,0,35
1,26,108,285
1,29,0,5
1,31,114,155
1,26,0,15
1,31,0,770
1,34,114,15
1,38,104,160
1,34,0,15
1,34,110,465
1,38,0,20
1,34,0,300
1,31,110,0
1,24,110,160
1,31,0,10
1,24,0,745
1,28,112,45
1,31,110,160
1,28,0,50
1,31,0,425
1,28,112,5
1,24,106,320
1,28,0,5
1,29,117,155
1,24,0,25
1,33,106,615
1,29,0,20
1,33,0,125
1,36,110,15
1,36,0,150
1,30,106,10
1,33,112,640
1,30,0,45
1,33,0,115
1,36,114,0
1,36,0,150
1,29,106,10
1,29,0,240
1,31,117,1680
1,31,0,675
1,34,117,125
1,38,102,160
1,34,0,30
1,34,110,450
1,38,0,5
1,31,110,315
1,34,0,10
1,24,110,150
1,31,0,5
1,24,0,775
1,28,106,20
1,31,106,160
1,28,0,55
1,31,0,395
1,28,112,30
1,28,0,320
1,24,106,0
1,29,110,160
1,24,0,5
1,29,0,775
1,33,104,20
1,36,114,160
1,33,0,30
1,36,0,435
1,33,106,15
1,29,110,320
1,33,0,15
1,26,108,145
1,29,0,10
1,26,0,745
1,29,114,45
1,33,104,160
1,29,0,35
1,29,117,445
1,33,0,25
1,29,0,280
1,26,106,15
1,31,114,160
1,26,0,35
1,31,0,745
1,34,114,20
1,38,104,160
1,34,0,35
1,34,114,445
1,38,0,10
1,31,110,310
1,34,0,35
1,24,110,125
1,31,0,10
1,24,0,730
1,28,104,60
1,31,114,160
1,28,0,55
1,28,100,425
1,31,0,15
1,24,100,305
1,28,0,15
1,29,114,145
1,24,0,25
1,33,108,615
1,29,0,60
1,36,106,100
1,33,0,15
1,30,106,145
1,36,0,10
1,33,104,630
1,30,0,60
1,36,106,100
1,33,0,25
1,29,114,135
1,36,0,55
1,29,0,335
1,29,114,90
1,33,108,160
1,29,0,5
1,33,0,155
1,36,106,0
1,24,110,160
1,36,0,10
1,28,112,150
1,24,0,15
1,31,114,145
1,28,0,15
1,31,0,125
1,29,106,20
1,29,0,155
1,31,106,5
1,33,114,160
1,31,0,10
1,33,0,145
1,34,114,5
1,34,0,55
1,34,114,105
1,34,0,55
1,34,114,105
1,34,0,55
1,34,114,105
1,34,0,45
1,34,112,275
1,34,0,45
1,34,110,115
1,34,0,45
1,34,110,115
1,34,0,50
1,34,110,110
1,34,0,50
1,34,114,110
1,34,0,50
1,34,110,430
1,34,0,50
1,34,106,110
1,34,0,45
1,34,114,115
1,34,0,45
1,34,114,115
1,34,0,40
1,34,106,280
1,34,0,40
1,34,110,120
1,34,0,45
1,34,114,115
1,34,0,40
1,34,110,120
1,34,0,40
1,34,110,120
1,34,0,40
1,34,114,280
1,34,0,50
1,29,110,110
1,29,0,55
1,29,114,105
1,29,0,55
1,29,110,105
1,29,0,50
1,29,110,110
1,29,0,45
1,29,110,275
1,29,0,40
1,29,110,120
1,29,0,45
1,29,110,115
1,29,0,45
1,29,110,115
1,29,0,50
1,29,114,110
1,29,0,45
1,29,114,275
1,29,0,45
1,29,114,115
1,29,0,50
1,29,114,110
1,29,0,45
1,29,106,115
1,29,0,45
1,29,110,115
1,33,106,160
1,29,0,5
1,33,0,150
1,36,108,5
1,36,0,160
1,24,104,0
1,28,108,160
1,24,0,25
1,28,0,135
1,31,106,0
1,31,0,155
1,29,100,5
1,31,114,160
1,29,0,15
1,33,110,145
1,31,0,30
1,33,0,105
1,34,106,25
1,34,0,55
1,34,114,105
1,34,0,60
1,34,114,100
1,34,0,50
1,34,117,110
1,34,0,55
1,34,114,265
1,34,0,35
1,34,114,125
1,34,0,45
1,34,110,115
1,34,0,45
1,34,114,115
1,34,0,50
1,34,114,110
1,34,0,45
1,34,110,275
1,34,0,35
1,33,106,125
1,33,0,50
1,33,108,110
1,33,0,50
1,33,108,110
1,33,0,50
1,33,110,110
1,33,0,60
1,33,106,260
1,33,0,50
1,33,106,110
1,33,0,45
1,33,100,115
1,33,0,45
1,33,100,115
1,33,0,40
1,33,112,120
1,33,0,145
1,36,110,15
1,36,0,155
1,38,100,5
1,38,0,145
1,31,106,15
1,31,0,25
1,31,114,135
1,31,0,45
1,31,114,115
1,31,0,45
1,31,114,115
1,31,0,55
1,31,114,265
1,31,0,45
1,31,114,115
1,31,0,45
1,31,110,115
1,31,0,45
1,31,114,115
1,31,0,45
1,35,104,115
1,35,0,160
1,38,100,0
1,38,0,155
1,31,114,5
1,31,0,130
1,36,114,30
1,36,0,50
1,36,110,110
1,36,0,45
1,36,110,115
1,36,0,50
1,36,110,110
1,36,0,55
1,34,110,105
1,34,0,45
1,33,110,115
1,33,0,45
1,34,114,115
1,34,0,55
1,33,110,105
1,33,0,40
1,31,110,120
1,31,0,50
1,29,106,110
1,29,0,50
1,28,106,110
1,28,0,45
1,26,108,115
1,26,0,50
1,24,114,110
1,24,0,885
1,31,114,1035
1,31,0,795
1,34,117,5
1,38,100,160
1,34,0,30
1,38,0,420
1,34,110,30
1,34,0,320
1,31,106,0
1,24,112,160
1,31,0,5
1,24,0,780
1,28,112,15
1,31,110,160
1,28,0,25
1,28,108,455
1,31,0,5
1,24,100,315
1,28,0,25
1,29,110,135
1,24,0,30
1,33,112,770
1,29,0,10
1,36,110,150
1,33,0,50
1,36,0,400
1,33,108,30
1,31,108,160
1,33,0,30
1,29,114,130
1,31,0,5
1,26,100,155
1,29,0,15
1,26,0,760
1,29,110,25
1,33,102,160
1,29,0,25
1,29,114,455
1,33,0,35
1,26,108,285
1,29,0,10
1,31,110,150
1,26,0,45
1,31,0,745
1,34,110,10
1,38,108,160
1,34,0,30
1,34,110,450
1,38,0,10
1,31,112,310
1,34,0,5
1,31,0,155
1,24,112,0
1,24,0,785
1,31,110,15
1,36,112,160
1,31,0,30
1,34,114,450
1,36,0,15
1,33,102,145
1,34,0,20
1,31,112,140
1,33,0,40
1,29,106,120
1,31,0,10
1,33,106,630
1,29,0,140
1,36,106,20
1,33,0,25
1,29,110,135
1,36,0,15
1,29,0,350
1,29,106,115
1,33,112,160
1,29,0,10
1,36,110,150
1,33,0,5
1,36,0,145
1,25,110,10
1,25,0,1400
1,32,112,520
1,32,0,715
1,35,106,85
1,39,106,160
1,35,0,45
1,35,104,435
1,39,0,30
1,32,106,290
1,35,0,5
1,25,100,155
1,32,0,15
1,25,0,730
1,29,114,55
1,32,102,160
1,29,0,45
1,29,110,435
1,32,0,30
1,29,0,290
1,25,106,0
1,30,112,160
1,25,0,20
1,30,0,780
1,34,110,0
1,37,102,160
1,34,0,35
1,34,110,445
1,37,0,40
1,34,0,280
1,30,104,0
1,27,112,160
1,30,0,5
1,27,0,750
1,30,108,45
1,34,108,160
1,30,0,55
1,30,100,425
1,34,0,35
1,30,0,285
1,27,112,0
1,32,108,160
1,27,0,5
1,32,0,745
1,35,104,50
1,39,108,160
1,35,0,30
1,35,102,450
1,39,0,30
1,32,100,130
1,35,0,25
1,29,110,135
1,32,0,35
1,29,0,125
1,25,108,0
1,25,0,1090
1,30,106,2750
1,30,0,370
1,30,112,110
1,30,0,150
1,34,114,10
1,34,0,140
1,37,104,20
1,37,0,125
1,31,114,35
1,31,0,380
1,31,110,100
1,34,106,160
1,31,0,30
1,34,0,125
1,37,102,5
1,37,0,150
1,30,112,10
1,30,0,175
2,57,108,2392
2,58,107,60
2,57,0,60
2,60,109,0
2,58,0,60
2,62,105,0
2,60,0,60
2,64,106,0
2,62,0,60
2,65,104,0
2,64,0,60
2,67,103,0
2,65,0,60
2,69,104,0
2,67,0,60
2,70,105,0
2,69,0,60
2,72,101,0
2,70,0,60
2,74,103,0
2,72,0,60
2,76,101,0
2,74,0,60
2,77,106,0
2,76,0,60
2,79,109,0
2,77,0,60
2,81,104,0
2,79,0,60
2,82,108,0
2,84,109,55
2,81,0,5
2,82,0,60
2,84,0,490
2,88,100,65
2,89,100,135
2,88,0,15
2,84,112,155
2,89,0,10
2,84,0,600
2,88,102,10
2,88,0,145
2,89,106,0
2,89,0,175
2,84,114,0
2,84,0,135
2,84,97,13350
2,88,91,625
2,84,0,15
2,89,89,140
2,88,0,15
2,89,0,155
2,84,91,0
2,88,93,630
2,84,0,20
2,89,93,135
2,88,0,10
2,89,0,165
2,84,95,5
2,84,0,115
2,81,70,3070
2,82,76,150
2,81,0,10
2,82,0,305
2,86,78,5
2,84,80,185
2,86,0,10
2,84,0,865
2,81,76,1515
2,82,74,290
2,81,0,30
2,84,78,150
2,82,0,30
2,88,78,475
2,84,0,15
2,86,74,455
2,88,0,20
2,86,0,980
2,81,78,2200
2,82,78,150
2,81,0,15
2,82,0,155
2,86,76,135
2,84,78,175
2,86,0,15
2,84,0,1690
2,84,95,695
2,88,87,160
2,84,0,5
2,88,0,150
2,89,93,0
2,84,93,190
2,89,0,15
2,88,87,600
2,84,0,10
2,89,93,135
2,88,0,5
2,84,97,170
2,89,0,15
2,84,0,545
2,81,89,85
2,77,91,170
2,81,0,30
2,75,93,140
2,77,0,55
2,72,90,95
2,75,0,10
2,74,91,70
2,72,0,40
2,75,85,40
2,74,0,40
2,77,88,40
2,75,0,40
2,79,85,40
2,77,0,40
2,81,93,40
2,79,0,40
2,82,89,40
2,81,0,40
2,84,90,40
2,82,0,40
2,86,90,40
2,84,0,40
2,88,72,40
2,86,0,40
2,89,77,40
2,88,0,40
2,89,0,6510
2,65,87,30
2,65,0,80
2,67,90,0
2,67,0,80
2,69,92,0
2,69,0,80
2,70,94,0
2,70,0,80
2,72,90,0
2,72,0,80
2,74,94,0
2,74,0,80
2,76,87,0
2,76,0,80
2,77,90,0
2,77,0,80
2,79,88,0
2,79,0,80
2,81,91,0
2,81,0,80
2,82,87,0
2,82,0,80
2,84,96,0
2,84,0,80
2,86,94,0
2,86,0,80
2,88,73,0
2,89,70,55
2,88,0,25
2,88,76,1890
2,89,0,50
2,86,70,1880
2,88,0,30
2,84,75,1870
2,86,0,120
2,84,0,1195
2,82,91,5
2,81,93,160
2,82,0,40
2,81,0,105
2,79,91,15
2,79,0,150
2,77,91,10
2,72,91,160
2,77,0,10
2,72,0,130
2,82,72,2875
2,84,82,150
2,82,0,10
2,84,0,150
2,86,77,0
2,86,0,160
2,84,72,0
2,82,70,60
2,84,0,20
2,81,78,35
2,82,0,25
2,81,0,55
2,79,74,0
2,77,76,50
2,79,0,30
2,76,78,20
2,77,0,30
2,74,78,0
2,72,76,10
2,76,0,40
2,74,0,30
2,72,0,930
2,76,76,1235
2,77,80,145
2,76,0,10
2,81,74,310
2,77,0,15
2,84,78,155
2,81,0,15
2,81,70,625
2,84,0,10
2,81,0,140
2,84,74,0
2,84,0,175
2,77,74,0
2,77,0,1160
2,82,80,1435
2,84,78,115
2,82,0,20
2,84,0,155
2,86,72,0
2,84,70,155
2,86,0,15
2,82,70,125
2,84,0,40
2,81,76,125
2,82,0,10
2,79,72,135
2,81,0,20
2,77,76,65
2,79,0,20
2,76,72,60
2,77,0,10
2,74,76,55
2,76,0,10
2,72,78,75
2,74,0,20
2,72,0,740
2,61,74,2160
2,62,79,40
2,61,0,40
2,63,78,0
2,62,0,40
2,64,74,0
2,63,0,40
2,65,76,0
2,64,0,40
2,66,77,0
2,65,0,40
2,67,76,0
2,66,0,40
2,68,72,0
2,67,0,40
2,69,75,0
2,68,0,40
2,70,75,0
2,69,0,40
2,71,74,0
2,70,0,40
2,72,79,0
2,71,0,40
2,73,75,0
2,72,0,40
2,74,76,0
2,73,0,40
2,75,78,0
2,74,0,40
2,76,78,0
2,75,0,40
2,77,77,0
2,76,0,40
2,78,79,0
2,77,0,40
2,79,76,0
2,78,0,40
2,80,79,0
2,79,0,40
2,81,71,0
2,80,0,40
2,82,76,0
2,81,0,40
2,83,72,0
2,82,0,40
2,84,72,0
2,83,0,40
2,85,72,0
2,84,0,40
2,85,0,1920
2,80,76,1080
2,82,76,145
2,80,0,15
2,83,70,150
2,82,0,5
2,87,84,160
2,83,0,15
2,87,0,110
2,90,78,10
2,89,74,185
2,90,0,25
2,89,0,700
2,65,78,1365
2,65,0,135
2,66,78,15
2,70,76,165
2,66,0,25
2,70,0,130
2,73,70,0
2,77,70,145
2,73,0,15
2,73,72,140
2,77,0,5
2,77,82,160
2,73,0,20
2,77,0,135
2,78,70,0
2,82,82,180
2,78,0,25
2,82,0,140
2,85,78,0
2,89,70,155
2,85,0,15
2,87,72,150
2,89,0,10
2,87,0,1320
2,90,70,2035
2,88,72,50
2,90,0,15
2,86,78,30
2,88,0,15
2,85,70,25
2,86,0,20
2,83,78,20
2,85,0,20
2,81,72,25
2,83,0,15
2,80,70,25
2,81,0,20
2,78,76,30
2,80,0,15
2,76,70,30
2,78,0,20
2,74,70,25
2,76,0,15
2,73,76,30
2,74,0,10
2,73,0,1460
2,85,76,2420
2,85,0,605
2,89,82,0
2,90,70,140
2,89,0,20
2,85,74,150
2,90,0,5
2,89,76,630
2,85,0,25
2,90,76,115
2,89,0,15
2,90,0,170
2,85,78,0
2,85,0,420
3,72,127,3347
3,72,0,615
3,76,126,25
3,76,0,160
3,77,127,0
3,77,0,150
3,72,127,10
3,72,0,630
3,76,127,10
3,76,0,155
3,77,127,5
3,77,0,155
3,72,127,5
3,72,0,665
3,67,109,1415
3,67,0,40
3,70,112,120
3,70,0,25
3,74,109,135
3,74,0,45
3,70,109,595
3,70,0,50
3,74,107,110
3,74,0,45
3,77,112,115
3,77,0,15
3,64,111,625
3,64,0,40
3,67,112,120
3,67,0,40
3,72,112,120
3,72,0,20
3,67,112,620
3,67,0,45
3,72,105,115
3,72,0,45
3,76,112,115
3,76,0,40
3,65,111,600
3,65,0,45
3,69,105,115
3,69,0,45
3,72,112,115
3,72,0,35
3,69,109,605
3,69,0,45
3,72,111,115
3,72,0,40
3,74,109,120
3,74,0,45
3,62,107,595
3,62,0,45
3,65,111,115
3,65,0,45
3,69,112,115
3,69,0,35
3,65,111,605
3,65,0,40
3,69,112,120
3,69,0,45
3,72,112,115
3,72,0,35
3,67,112,605
3,67,0,45
3,70,109,115
3,70,0,45
3,74,105,115
3,74,0,50
3,70,112,590
3,70,0,45
3,74,109,115
3,74,0,45
3,77,112,115
3,77,0,30
3,64,109,610
3,64,0,50
3,67,112,110
3,67,0,45
3,72,112,115
3,72,0,35
3,64,111,605
3,64,0,50
3,67,112,110
3,67,0,40
3,70,111,120
3,70,0,25
3,65,111,615
3,65,0,45
3,69,105,115
3,69,0,45
3,72,112,115
3,72,0,40
3,70,112,120
3,70,0,35
3,69,107,125
3,69,0,50
3,70,112,110
3,70,0,50
3,69,112,110
3,69,0,40
3,67,111,120
3,67,0,40
3,65,112,120
3,65,0,45
3,64,111,115
3,64,0,50
3,62,111,110
3,62,0,45
3,60,112,115
3,60,0,20
3,67,112,2060
3,67,0,55
3,70,109,105
3,70,0,25
3,74,111,135
3,74,0,40
3,70,112,600
3,70,0,50
3,74,111,110
3,74,0,45
3,77,112,115
3,77,0,25
3,64,105,615
3,64,0,60
3,67,111,100
3,67,0,40
3,72,111,120
3,72,0,15
3,72,112,625
3,72,0,55
3,76,105,105
3,76,0,35
3,79,112,125
3,79,0,30
3,65,112,610
3,65,0,45
3,69,105,115
3,69,0,35
