track,note,velocity,time
2,30,114,4138
2,30,116,128
2,30,113,76
2,30,114,124
2,30,112,44
2,30,116,126
2,30,113,96
2,30,113,128
2,30,114,50
2,30,115,124
2,30,114,84
2,30,113,132
2,30,113,52
2,30,116,106
2,30,114,78
2,30,114,132
2,30,114,52
2,30,116,128
2,30,113,76
2,30,114,124
2,30,112,44
2,30,116,126
2,30,113,96
2,30,113,128
2,30,114,50
2,30,115,124
2,30,114,84
2,30,113,132
2,30,113,52
2,30,116,106
2,30,114,78
2,30,114,132
2,30,114,52
2,30,116,128
2,30,113,76
2,30,114,124
2,30,112,44
2,30,116,126
2,30,113,96
2,30,113,128
2,30,114,50
2,30,115,124
2,30,114,84
2,30,113,132
2,30,113,52
2,30,116,106
2,30,114,78
2,30,114,132
2,30,114,52
2,30,116,128
2,30,113,76
2,30,114,124
2,30,112,44
2,30,116,126
2,30,113,96
2,30,113,128
2,30,114,50
2,30,115,124
2,30,114,84
2,30,113,132
2,30,113,52
2,30,116,106
2,30,114,78
2,30,114,132
2,30,114,3124
2,30,116,128
2,30,113,76
2,30,114,124
2,30,112,44
2,30,116,126
2,30,113,96
2,30,113,128
2,30,114,50
2,30,115,124
2,30,114,84
2,30,113,132
2,30,113,52
2,30,116,106
2,30,114,78
2,30,114,132
2,30,114,52
2,30,116,128
2,30,113,76
2,30,114,124
2,30,112,44
2,30,116,126
2,30,113,96
2,30,113,128
2,30,114,50
2,30,115,124
2,30,114,84
2,30,113,132
2,30,113,52
2,30,116,106
2,30,114,78
2,30,114,132
2,30,114,52
2,30,116,128
2,30,113,76
2,30,114,124
2,30,112,44
2,30,116,126
2,30,113,96
2,30,113,128
2,30,114,50
2,30,115,124
2,30,114,84
2,30,113,132
2,30,113,52
2,30,116,106
2,30,114,78
2,30,114,132
2,30,114,52
2,30,116,128
2,30,113,76
2,30,114,124
2,30,112,44
2,30,116,126
2,30,113,96
2,30,113,128
2,30,114,50
2,30,115,124
2,30,114,84
2,30,113,132
2,30,113,52
2,30,116,106
2,30,114,78
2,30,114,132
2,30,114,52
2,30,116,128
2,30,113,76
2,30,114,124
2,30,112,44
2,30,116,126
2,30,113,96
2,30,113,128
2,30,114,50
2,30,115,124
2,30,114,84
2,30,113,132
2,30,113,52
2,30,116,106
2,30,114,78
2,30,114,132
2,30,114,52
2,30,116,128
2,30,113,76
2,30,114,124
2,30,112,44
2,30,116,126
2,30,113,96
2,30,113,128
2,30,114,50
2,30,115,124
2,30,114,84
2,30,113,132
2,30,113,52
2,30,116,106
2,30,114,78
2,30,114,132
2,30,114,52
2,30,116,128
2,30,113,76
2,30,114,124
2,30,112,44
2,30,116,126
2,30,113,96
2,30,113,128
2,30,114,50
2,30,115,124
2,30,114,84
2,30,113,132
2,30,113,52
2,30,116,106
2,30,114,78
2,30,114,132
2,30,114,52
2,30,116,128
2,30,113,76
2,30,114,124
2,30,112,44
2,30,116,126
2,30,113,96
2,30,113,128
2,30,114,50
2,30,115,124
2,30,114,84
2,30,113,132
2,30,113,52
2,30,116,106
2,30,114,78
2,30,114,132
2,30,114,52
2,30,116,128
2,30,113,76
2,30,114,124
2,30,112,44
2,30,116,126
2,30,113,96
2,30,113,128
2,30,114,50
2,30,115,124
2,30,114,84
2,30,113,132
2,30,113,52
2,30,116,106
2,30,114,78
2,30,114,132
2,30,114,52
2,30,116,128
2,30,113,76
2,30,114,124
2,30,112,44
2,30,116,126
2,30,113,96
2,30,113,128
2,30,114,50
2,30,115,124
2,30,114,84
2,30,113,132
2,30,113,52
2,30,116,106
2,30,114,78
2,30,114,132
2,30,114,52
2,30,116,128
2,30,113,76
2,30,114,124
2,30,112,44
2,30,116,126
2,30,113,96
2,30,113,128
2,30,114,50
2,30,115,124
2,30,114,84
2,30,113,132
2,42,113,6
2,42,116,6
2,42,105,6
2,42,114,6
2,42,101,6
2,42,114,6
2,39,114,6
2,39,116,16
2,39,97,10
2,39,114,6
2,39,112,20
2,39,116,32
2,39,97,42
2,39,113,6
2,35,114,82
2,35,115,28
2,35,113,6
2,35,113,14
2,35,116,10
2,35,114,10
2,30,114,6
2,30,116,6
2,30,114,8
2,30,112,6
2,30,116,8
2,30,113,6
2,30,114,6
2,30,115,6
2,30,113,8
2,42,113,6
2,42,116,6
2,42,105,6
2,42,114,6
2,42,101,6
2,42,114,6
2,39,114,6
2,39,116,16
2,39,97,10
2,39,114,6
2,39,112,20
2,39,116,32
2,39,97,42
2,39,113,6
2,35,114,82
2,35,115,28
2,35,113,6
2,35,113,14
2,35,116,10
2,35,114,10
2,40,114,6
2,40,116,6
2,40,114,8
2,40,112,6
2,40,116,8
2,40,113,6
2,35,114,6
2,35,115,6
2,35,113,8
2,37,113,6
2,37,116,10
2,37,114,8
2,30,114,6
2,30,116,128
2,30,113,76
2,30,114,124
2,30,112,44
2,30,116,126
2,30,113,96
2,30,113,128
2,30,114,50
2,30,115,124
2,30,114,84
2,30,113,132
2,30,113,52
2,30,116,106
2,30,114,78
2,30,114,132
2,30,114,52
2,30,116,128
2,30,113,76
2,30,114,124
2,30,112,44
2,30,116,126
2,30,113,96
2,30,113,128
2,30,114,50
2,30,115,124
2,30,114,84
2,30,113,132
2,30,113,52
2,30,116,106
2,30,114,78
2,30,114,132
2,30,114,3124
2,30,116,128
2,30,113,76
2,30,114,124
2,30,112,44
2,30,116,126
2,30,113,96
2,30,113,128
2,30,114,50
2,30,115,124
2,30,114,84
2,30,113,132
2,30,113,52
2,30,116,106
2,30,114,78
2,30,114,132
2,30,114,52
2,30,116,128
2,30,113,76
2,30,114,124
2,30,112,44
2,30,116,126
2,30,113,96
2,30,113,128
2,30,114,50
2,30,115,124
2,30,114,84
2,30,113,132
2,30,113,52
2,30,116,106
2,30,114,78
2,30,114,132
2,30,114,52
2,30,116,128
2,30,113,76
2,30,114,124
2,30,112,44
2,30,116,126
2,30,113,96
2,30,113,128
2,30,114,50
2,30,115,124
2,30,114,84
2,30,113,132
2,30,113,52
2,30,116,106
2,30,114,78
2,30,114,132
2,30,114,52
2,30,116,128
2,30,113,76
2,30,114,124
2,30,112,44
2,30,116,126
2,30,113,96
2,30,113,128
2,30,114,50
2,30,115,124
2,30,114,84
2,30,113,132
2,30,113,52
2,30,116,106
2,30,114,78
2,30,114,132
2,30,114,52
2,30,116,128
2,30,113,76
2,30,114,124
2,30,112,44
2,30,116,126
2,30,113,96
2,30,113,128
2,30,114,50
2,30,115,124
2,30,114,84
2,30,113,132
2,30,113,52
2,30,116,106
2,30,114,78
2,30,114,132
2,30,114,52
2,30,116,128
2,30,113,76
2,30,114,124
2,30,112,44
2,30,116,126
2,30,113,96
2,30,113,128
2,30,114,50
2,30,115,124
2,30,114,84
2,30,113,132
2,30,113,52
2,30,116,106
2,30,114,78
2,30,114,132
2,30,114,52
2,30,116,128
2,30,113,76
2,30,114,124
2,30,112,44
2,30,116,126
2,30,113,96
2,30,113,128
2,30,114,50
2,30,115,124
2,30,114,84
2,30,113,132
2,42,113,6
2,42,116,6
2,42,105,6
2,42,114,6
2,42,101,6
2,42,114,6
2,39,114,6
2,39,116,16
2,39,97,10
2,39,114,6
2,39,112,20
2,39,116,32
2,39,97,42
2,39,113,6
2,35,114,82
2,35,115,28
2,35,113,6
2,35,113,14
2,35,116,10
2,35,114,10
2,30,114,6
2,30,116,6
2,30,114,8
2,30,112,6
2,30,116,8
2,30,113,6
2,30,114,6
2,30,115,6
2,30,113,8
2,42,113,6
2,42,116,6
2,42,105,6
2,42,114,6
2,42,101,6
2,42,114,6
2,39,114,6
2,39,116,16
2,39,97,10
2,39,114,6
2,39,112,20
2,39,116,32
2,39,97,42
2,39,113,6
2,35,114,82
2,35,115,28
2,35,113,6
2,35,113,14
2,35,116,10
2,35,114,10
2,40,114,6
2,40,116,6
2,40,114,8
2,40,112,6
2,40,116,8
2,40,113,6
2,35,114,6
2,35,115,6
2,35,113,8
2,37,113,6
2,37,116,10
2,37,114,8
2,30,114,6
2,30,116,128
2,30,113,76
2,30,114,124
2,30,112,44
2,30,116,126
2,30,113,96
2,30,113,128
2,30,114,50
2,30,115,124
2,30,114,84
2,30,113,132
2,30,113,52
2,30,116,106
2,30,114,78
2,30,114,132
2,30,114,52
2,30,116,128
2,30,113,76
2,30,114,124
2,30,112,44
2,30,116,126
2,30,113,96
2,30,113,128
2,30,114,50
2,30,115,124
2,30,114,84
2,30,113,132
2,30,113,52
2,30,116,106
2,30,114,78
2,30,114,132
2,56,106,52
2,54,104,6
2,52,104,6
2,51,100,6
2,56,105,6
2,54,107,6
2,52,102,6
2,51,100,6
2,52,100,6
2,51,100,6
2,47,100,6
2,50,102,6
2,52,100,6
2,39,114,774
2,39,116,16
2,39,97,10
2,39,114,6
2,39,112,20
2,39,116,32
2,39,97,42
2,39,113,6
2,35,114,82
2,35,115,28
2,35,113,6
2,35,113,14
2,35,116,10
2,35,114,10
2,30,114,6
2,30,116,6
2,30,114,8
2,30,112,6
2,30,116,8
2,30,113,6
2,30,114,6
2,30,115,6
2,30,113,8
2,42,113,6
2,42,116,6
2,42,105,6
2,42,114,6
2,42,101,6
2,42,114,6
2,39,114,6
2,39,116,16
2,39,97,10
2,39,114,6
2,39,112,20
2,39,116,32
2,39,97,42
2,39,113,6
2,35,114,82
2,35,115,28
2,35,113,6
2,35,113,14
2,35,116,10
2,35,114,10
2,40,114,6
2,40,116,6
2,40,114,8
2,40,112,6
2,40,116,8
2,40,113,6
2,35,114,6
2,35,115,6
2,35,113,8
2,37,113,6
2,37,116,10
2,37,114,8
2,39,114,6
2,39,116,16
2,39,97,10
2,39,114,6
2,39,112,20
2,39,116,32
2,39,97,42
2,39,113,6
2,35,114,82
2,35,115,28
2,35,113,6
2,35,113,14
2,35,116,10
2,35,114,10
2,30,114,6
2,30,116,6
2,30,114,8
2,30,112,6
2,30,116,8
2,30,113,6
2,30,114,6
2,30,115,6
2,30,113,8
2,42,113,6
2,42,116,6
2,42,105,6
2,42,114,6
2,42,101,6
2,42,114,6
2,39,114,6
2,39,116,16
2,39,97,10
2,39,114,6
2,39,112,20
2,39,116,32
2,39,97,42
2,39,113,6
2,35,114,82
2,35,115,28
2,35,113,6
2,35,113,14
2,35,116,10
2,35,114,10
2,40,114,6
2,40,116,6
2,40,114,8
2,40,112,6
2,40,116,8
2,40,113,6
2,35,114,6
2,35,115,6
2,35,113,8
2,37,113,6
2,37,116,10
2,37,114,8
2,30,114,6
2,30,116,128
2,30,113,76
2,30,114,124
2,30,112,44
2,30,116,126
2,30,113,96
2,30,113,128
2,30,114,50
2,30,115,124
2,30,114,84
2,30,113,132
2,30,113,52
2,30,116,106
2,30,114,78
2,30,114,132
2,30,114,52
2,30,116,128
2,30,113,76
2,30,114,124
2,30,112,44
2,30,116,126
2,30,113,96
2,30,113,128
2,30,114,50
2,30,115,124
2,30,114,84
2,30,113,132
2,30,113,52
2,30,116,106
2,30,114,78
2,30,114,132
2,30,114,52
2,30,116,128
2,30,113,76
2,30,114,124
2,30,112,44
2,30,116,126
2,30,113,96
2,30,113,128
2,30,114,50
2,30,115,124
2,30,114,84
2,30,113,132
2,30,113,52
2,30,116,106
2,30,114,78
2,30,114,132
2,30,114,52
2,30,116,128
2,30,113,76
2,30,114,124
2,30,112,44
2,30,116,126
2,30,113,96
2,30,113,128
2,30,114,50
2,30,115,124
2,30,114,84
2,30,113,132
2,30,113,52
2,30,116,106
2,30,114,78
2,30,114,132
2,30,114,52
2,30,116,128
2,30,113,76
2,30,114,124
2,30,112,44
2,30,116,126
2,30,113,96
2,30,113,128
2,30,114,50
2,30,115,124
2,30,114,84
2,30,113,132
2,30,113,52
2,30,116,106
2,30,114,78
2,30,114,132
2,30,114,52
2,30,116,128
2,30,113,76
2,30,114,124
2,30,112,44
2,30,116,126
2,30,113,96
2,30,113,128
2,30,114,50
2,30,115,124
2,30,114,84
2,30,113,132
2,30,113,52
2,30,116,106
2,30,114,78
2,30,114,132
2,30,114,52
2,30,116,128
2,30,113,76
2,30,114,124
2,30,112,44
2,30,116,126
2,30,113,96
2,30,113,128
2,30,114,50
2,30,115,124
2,30,114,84
2,30,113,132
2,30,113,52
2,30,116,106
2,30,114,78
2,30,114,132
2,30,114,52
2,30,116,128
2,30,113,76
2,30,114,124
2,30,112,44
2,30,116,126
2,30,113,96
2,30,113,128
2,30,114,50
2,30,115,124
2,30,114,84
2,30,113,132
2,30,113,52
2,30,116,106
2,30,114,78
2,30,114,132
2,30,114,52
3,68,63,117388
3,71,64,0
3,75,63,0
3,66,64,6
3,70,64,0
3,73,63,0
3,68,63,6
3,71,64,0
3,76,62,0
3,66,63,6
3,75,63,0
3,68,63,6
3,71,64,0
3,75,63,0
3,66,64,6
3,70,64,0
3,73,63,0
3,64,62,6
3,68,63,0
3,71,64,0
3,63,63,6
3,66,63,0
3,71,58,6
3,76,57,0
3,80,55,0
3,75,55,6
3,78,53,0
3,66,45,6
3,74,59,0
3,76,52,6
4,78,126,19480
4,78,126,58
4,78,126,54
4,73,126,8
4,76,126,30
4,76,126,50
4,76,126,44
4,73,126,14
4,75,126,6
4,75,126,40
4,71,126,14
4,73,126,14
4,70,126,6
4,78,126,178
4,78,126,58
4,78,126,54
4,73,126,8
4,76,126,30
4,76,126,50
4,76,126,44
4,73,126,14
4,75,126,6
4,75,126,40
4,71,126,14
4,73,126,14
4,70,126,6
4,71,126,178
4,70,126,8
4,71,126,20
4,70,126,6
4,71,126,6
4,70,126,6
4,71,126,134
4,70,126,6
4,71,126,20
4,70,126,6
4,71,126,6
4,70,126,6
4,71,126,6
4,73,126,6
4,78,126,2944
4,78,126,58
4,78,126,54
4,73,126,8
4,76,126,30
4,76,126,50
4,76,126,44
4,73,126,14
4,75,126,6
4,75,126,40
4,71,126,14
4,73,126,14
4,70,126,6
4,66,126,102
4,78,126,20
4,78,126,58
4,78,126,54
4,73,126,8
4,76,126,30
4,76,126,50
4,76,126,44
4,73,126,14
4,75,126,6
4,75,126,40
4,71,126,14
4,73,126,14
4,70,126,6
4,71,126,178
4,70,126,8
4,71,126,20
4,70,126,6
4,71,126,6
4,71,126,6
4,70,126,134
4,71,126,6
4,70,126,6
4,71,126,20
4,70,126,6
4,71,126,6
4,70,126,6
4,71,126,6
4,73,126,6
4,70,114,16
4,78,126,1744
4,78,125,48
4,82,126,50
4,82,126,46
4,78,124,578
4,78,124,16
4,83,121,14
4,83,126,20
4,78,123,494
4,78,123,54
4,85,126,74
4,85,126,68
4,85,124,84
4,85,124,74
4,83,120,6
4,82,124,20
4,83,122,6
4,78,126,438
4,78,121,52
4,82,124,40
4,82,124,38
4,78,121,366
4,78,119,72
4,83,120,48
4,83,121,56
4,78,121,110
4,78,120,86
4,85,124,66
4,85,124,72
4,83,119,16
4,82,114,6
4,82,125,50
4,82,122,60
4,80,126,6
4,78,124,18
4,78,125,50
4,77,115,2
4,78,124,194
4,78,121,32
4,85,124,30
4,83,120,14
4,82,121,118
4,78,122,116
4,80,124,126
4,82,126,126
4,80,117,6
4,80,124,66
4,82,121,12
4,78,125,6
4,82,125,324
4,82,122,60
4,80,126,6
4,78,124,18
4,78,125,50
4,77,115,2
4,78,124,194
4,78,121,32
4,85,124,30
4,83,120,14
4,82,121,118
4,78,122,116
4,80,124,126
4,83,123,126
4,82,124,64
4,80,121,62
4,78,118,102
4,83,118,118
4,82,120,96
4,83,118,92
4,82,124,18
4,82,122,86
4,78,126,3016
4,78,126,58
4,78,126,54
4,73,126,8
4,76,126,30
4,76,126,50
4,76,126,44
4,73,126,14
4,75,126,6
4,75,126,40
4,71,126,14
4,73,126,14
4,70,126,6
4,78,126,294
4,78,126,58
4,78,126,54
4,73,126,8
4,76,126,30
4,76,126,50
4,76,126,44
4,73,126,14
4,75,126,6
4,75,126,40
4,71,126,14
4,73,126,14
4,70,126,6
4,71,126,178
4,70,126,8
4,71,126,20
4,70,126,6
4,71,126,6
4,71,126,6
4,70,126,134
4,71,126,6
