track,note,velocity,time
2,24,126,3372
2,36,103,0
2,24,0,57
2,36,0,0
2,24,119,39
2,36,96,0
2,24,0,55
2,36,0,0
2,24,64,137
2,36,41,0
2,24,0,12
2,36,0,0
2,29,103,36
2,41,80,0
2,29,0,39
2,41,0,0
2,29,111,57
2,41,88,0
2,29,0,38
2,41,0,0
2,31,113,10
2,43,90,0
2,31,0,26
2,43,0,0
2,24,113,5
2,36,90,0
2,24,0,48
2,36,0,0
2,24,107,44
2,36,84,0
2,24,0,57
2,36,0,0
2,24,59,135
2,36,36,0
2,24,0,22
2,36,0,0
2,34,103,26
2,46,80,0
2,34,0,41
2,46,0,0
2,34,122,55
2,46,99,0
2,34,0,29
2,46,0,0
2,33,101,19
2,45,78,0
2,33,0,42
2,45,0,0
2,31,113,54
2,43,90,0
2,31,0,16
2,43,0,0
2,24,105,5
2,36,82,0
2,24,0,54
2,36,0,0
2,24,103,38
2,36,80,0
2,24,0,46
2,36,0,0
2,24,63,146
2,36,40,0
2,24,0,15
2,36,0,0
2,29,105,33
2,41,82,0
2,29,0,40
2,41,0,0
2,29,109,56
2,41,86,0
2,29,0,34
2,41,0,0
2,31,111,14
2,43,88,0
2,31,0,6
2,43,0,0
2,24,111,15
2,36,88,0
2,24,0,53
2,36,0,0
2,24,116,43
2,36,93,0
2,24,0,54
2,36,0,0
2,29,105,186
2,41,82,0
2,29,0,11
2,41,0,0
2,31,109,1
2,43,86,0
2,31,0,24
2,43,0,0
2,29,103,24
2,41,80,0
2,29,0,15
2,41,0,0
2,24,113,15
2,36,90,0
2,24,0,66
2,36,0,0
2,24,116,30
2,36,93,0
2,24,0,58
2,36,0,0
2,24,51,134
2,36,28,0
2,24,0,13
2,36,0,0
2,29,107,35
2,41,84,0
2,29,0,41
2,41,0,0
2,29,107,55
2,41,84,0
2,29,0,33
2,41,0,0
2,31,109,15
2,43,86,0
2,31,0,7
2,43,0,0
2,34,115,21
2,46,92,0
2,34,0,47
2,46,0,0
2,24,116,49
2,36,93,0
2,24,0,71
2,36,0,0
2,24,116,25
2,36,93,0
2,24,0,59
2,36,0,0
2,24,72,133
2,36,49,0
2,24,0,19
2,36,0,0
2,34,109,29
2,46,86,0
2,34,0,49
2,46,0,0
2,34,112,47
2,46,89,0
2,34,0,36
2,46,0,0
2,33,103,12
2,45,80,0
2,33,0,50
2,45,0,0
2,31,111,46
2,43,88,0
2,31,0,25
2,43,0,0
2,24,119,7
2,36,96,0
2,24,0,58
2,36,0,0
2,24,109,38
2,36,86,0
2,24,0,55
2,36,0,0
2,24,60,137
2,36,37,0
2,24,0,14
2,36,0,0
2,29,97,34
2,41,74,0
2,29,0,37
2,41,0,0
2,29,109,59
2,41,86,0
2,29,0,31
2,41,0,0
2,31,109,17
2,43,86,0
2,31,0,17
2,43,0,0
2,24,105,67
2,36,82,0
2,24,0,61
2,36,0,0
2,24,109,35
2,36,86,0
2,24,0,56
2,36,0,0
2,29,75,184
2,41,52,0
2,29,0,29
2,41,0,0
2,29,85,19
2,41,62,0
2,29,0,15
2,41,0,0
2,41,101,33
2,53,78,0
2,41,0,42
2,53,0,0
2,39,73,6
2,51,50,0
2,39,0,8
2,51,0,0
2,36,94,40
2,48,71,0
2,36,0,33
2,48,0,0
2,34,71,15
2,46,48,0
2,34,0,14
2,46,0,0
2,29,86,34
2,41,63,0
2,29,0,23
2,41,0,0
2,41,87,25
2,53,64,0
2,41,0,29
2,53,0,0
2,39,71,3
2,51,48,0
2,36,80,16
2,48,57,0
2,39,0,4
2,51,0,0
2,36,0,17
2,48,0,0
2,24,106,27
2,36,113,0
2,36,0,147
2,24,0,62
2,36,90,79
2,36,0,47
2,36,97,1
2,36,0,11
2,41,99,85
2,41,0,15
2,41,96,81
2,41,0,37
2,43,105,11
2,43,0,17
2,24,102,6
2,36,112,0
2,36,0,88
2,36,113,8
2,24,0,9
2,36,0,3
2,34,103,228
2,34,0,12
2,36,87,84
2,36,0,11
2,34,92,85
2,34,0,26
2,36,113,22
2,36,0,25
2,34,106,46
2,34,0,76
2,34,109,20
2,34,0,17
2,34,98,127
2,34,0,10
2,39,115,86
2,39,0,6
2,39,103,90
2,39,0,21
2,41,111,27
2,41,0,5
2,27,108,19
2,39,112,0
2,27,0,77
2,39,0,0
2,27,100,19
2,39,90,0
2,27,0,20
2,39,0,0
2,27,53,220
2,27,0,11
2,39,103,37
2,39,0,14
2,41,93,34
2,41,0,15
2,27,71,33
2,27,0,8
2,36,87,40
2,36,0,17
2,43,107,31
2,43,0,27
2,24,106,27
2,36,113,0
2,36,0,147
2,24,0,62
2,36,90,79
2,36,0,47
2,36,97,1
2,36,0,11
2,41,99,85
2,41,0,15
2,41,96,81
2,41,0,37
2,43,105,11
2,43,0,17
2,24,102,6
2,36,112,0
2,36,0,88
2,36,113,8
2,24,0,9
2,36,0,3
2,34,103,228
2,34,0,12
2,36,87,84
2,36,0,11
2,34,92,85
2,34,0,26
2,36,113,22
2,36,0,25
2,34,106,46
2,34,0,76
2,34,109,20
2,34,0,17
2,34,98,127
2,34,0,10
2,39,115,86
2,39,0,6
2,39,103,90
2,39,0,21
2,41,111,27
2,41,0,5
2,27,108,19
2,39,112,0
2,27,0,77
2,39,0,0
2,27,100,19
2,39,90,0
2,27,0,20
2,39,0,0
2,27,97,220
2,27,0,3
2,27,117,45
2,27,0,30
2,39,109,18
2,39,0,23
2,34,112,7
2,34,0,15
2,29,105,10
2,29,0,8
2,27,87,18
2,24,94,21
2,27,0,9
2,24,0,21
2,32,106,8
2,44,113,0
2,32,0,190
2,44,0,0
2,32,90,98
2,32,0,47
2,32,97,1
2,32,0,11
2,39,99,85
2,39,0,15
2,39,96,81
2,39,0,37
2,36,105,11
2,36,0,17
2,31,107,6
2,43,100,0
2,43,0,88
2,43,94,8
2,31,0,9
2,43,0,3
2,24,80,228
2,36,80,0
2,24,0,12
2,36,0,0
2,29,103,36
2,41,103,0
2,29,0,12
2,41,0,0
2,31,87,36
2,43,87,0
2,31,0,11
2,43,0,0
2,29,92,85
2,41,92,0
2,29,0,26
2,41,0,0
2,31,113,22
2,43,107,0
2,31,0,25
2,43,0,0
2,30,106,46
2,30,0,76
2,30,109,20
2,30,0,17
2,37,98,127
2,37,0,10
2,35,102,86
2,35,0,6
2,35,103,90
2,35,0,21
2,37,111,27
2,37,0,5
2,29,108,19
2,41,112,0
2,29,0,77
2,41,0,0
2,29,100,19
2,41,90,0
2,29,0,20
2,41,0,0
2,29,97,220
2,29,0,3
2,29,117,45
2,29,0,30
2,39,109,18
2,39,0,23
2,34,112,7
2,34,0,15
2,29,105,10
2,41,85,8
2,41,0,7
2,29,0,1
2,39,81,13
2,36,85,16
2,39,0,4
2,36,0,16
2,35,106,28
2,47,113,0
2,35,0,190
2,47,0,0
2,35,90,98
2,35,0,47
2,35,97,1
2,35,0,11
2,44,99,85
2,44,0,15
2,44,96,81
2,44,0,37
2,42,105,11
2,42,0,22
2,24,107,6
2,36,100,0
2,36,0,88
2,36,94,8
2,24,0,9
2,36,0,3
2,31,80,228
2,31,0,12
2,22,103,36
2,34,103,0
2,22,0,12
2,34,0,0
2,24,87,36
2,36,87,0
2,24,0,11
2,36,0,0
2,22,92,85
2,34,92,0
2,22,0,26
2,34,0,0
2,24,113,22
2,36,107,0
2,24,0,25
2,36,0,0
2,29,109,46
2,41,105,0
2,29,0,74
2,41,0,0
2,29,121,22
2,41,85,0
2,29,0,19
2,41,0,1
2,29,105,124
2,41,101,0
2,29,0,26
2,41,0,0
2,25,83,22
2,37,76,0
2,25,0,15
2,37,0,2
2,25,115,31
2,37,96,0
2,37,0,143
2,25,0,8
2,25,71,41
2,37,71,0
2,37,0,9
2,25,0,6
2,25,109,33
2,37,118,0
2,37,0,74
2,37,90,22
2,37,0,29
2,25,0,14
2,23,116,5
2,35,94,0
2,23,0,94
2,35,0,0
2,23,116,31
2,35,103,0
2,35,0,17
2,23,0,4
2,23,105,123
2,35,90,0
2,23,0,12
2,35,0,2
2,23,72,82
2,35,84,0
2,35,0,17
2,23,0,1
2,22,107,30
2,34,106,0
2,34,0,176
2,22,0,3
2,20,106,13
2,32,112,0
2,32,0,5
2,20,0,9
2,29,120,7
2,29,0,72
2,29,111,24
2,29,0,27
2,24,90,117
2,24,0,6
2,27,106,20
2,27,0,23
2,29,119,25
2,29,0,23
2,27,115,73
2,27,0,27
2,29,105,18
2,36,99,144
2,29,0,1
2,36,0,19
2,31,105,11
2,31,0,72
2,31,99,24
2,31,0,20
2,39,103,124
2,39,0,39
2,35,72,9
2,35,0,12
2,39,80,36
2,39,0,10
2,41,105,38
2,41,0,40
2,43,78,8
2,43,0,28
2,41,77,20
2,41,0,26
2,39,92,22
2,39,0,16
2,43,105,3
2,43,0,41
2,46,106,17
2,46,0,36
2,48,94,12
2,48,0,30
2,36,109,18
2,36,0,73
2,36,113,23
2,36,0,18
2,36,94,126
2,48,94,0
2,36,0,37
2,48,0,9
2,34,66,2
2,46,80,0
2,46,0,25
2,34,0,4
2,31,70,19
2,43,94,0
2,43,0,12
2,31,0,4
2,27,96,32
2,39,92,0
2,27,0,28
2,39,0,18
2,29,69,2
2,41,85,0
2,29,0,14
2,41,0,11
2,29,74,23
2,43,77,0
2,43,0,8
2,29,0,8
2,34,109,32
2,46,94,0
2,34,0,20
2,46,0,13
2,31,96,15
2,43,104,0
2,31,0,3
2,43,0,12
2,24,119,14
2,36,116,0
2,24,0,95
2,36,0,0
2,24,116,1
2,36,109,0
2,36,0,10
2,24,0,1
2,27,106,85
2,39,92,0
2,27,0,16
2,39,0,5
2,31,75,27
2,43,72,0
2,43,0,14
2,31,0,8
2,34,83,26
2,46,92,0
2,34,0,14
2,46,0,10
2,36,96,24
2,48,97,0
2,48,0,20
2,36,0,1
2,34,84,75
2,46,106,0
2,34,0,15
2,46,0,6
2,36,91,27
2,48,94,0
2,36,0,23
2,48,0,10
2,34,100,63
2,46,103,0
2,34,0,7
2,46,0,20
2,32,120,29
2,32,0,72
2,32,111,24
2,32,0,27
2,27,90,69
2,27,0,28
2,27,90,20
2,27,0,3
2,29,106,45
2,29,0,23
2,32,104,25
2,32,0,23
2,29,115,73
2,29,0,27
2,32,105,21
2,36,99,144
2,32,0,1
2,36,0,19
2,31,105,11
2,31,0,72
2,31,99,24
2,31,0,20
2,39,103,124
2,39,0,39
2,35,72,9
2,35,0,12
2,39,80,36
2,39,0,10
2,41,105,38
2,41,0,40
2,43,78,8
2,43,0,28
2,41,77,20
2,41,0,26
2,39,92,22
2,39,0,16
2,43,105,3
2,43,0,41
2,46,106,17
2,46,0,36
2,48,94,12
2,48,0,30
2,36,109,18
2,36,0,73
2,36,113,23
2,36,0,18
2,36,94,126
2,48,94,0
2,36,0,37
2,48,0,9
2,34,66,2
2,46,80,0
2,46,0,25
2,34,0,4
2,31,70,19
2,43,94,0
2,43,0,12
2,31,0,4
2,27,96,32
2,39,92,0
2,27,0,28
2,39,0,18
2,29,69,2
2,41,85,0
2,29,0,14
2,41,0,11
2,29,74,23
2,43,77,0
2,43,0,8
2,29,0,8
2,34,109,32
2,46,94,0
2,34,0,20
2,46,0,13
2,31,96,15
2,43,104,0
2,31,0,3
2,43,0,12
2,24,108,14
2,36,115,0
2,36,0,84
2,24,0,8
2,36,73,4
2,36,0,22
2,48,85,26
2,48,0,8
2,48,111,14
2,48,0,15
2,43,79,5
2,43,0,29
2,41,72,19
2,41,0,22
2,43,94,26
2,43,0,120
2,36,109,24
2,36,0,2
2,46,98,46
2,46,0,46
2,43,86,2
2,43,0,46
2,41,87,2
2,41,0,46
2,39,96,2
2,39,0,46
2,36,86,2
2,36,0,10
2,29,120,38
2,29,0,72
2,29,111,24
2,29,0,27
2,24,90,117
2,24,0,28
2,27,106,20
2,27,0,23
2,29,119,25
2,29,0,23
2,27,115,73
2,27,0,27
2,29,105,21
2,36,99,144
2,29,0,1
2,36,0,19
2,32,105,11
2,32,0,72
2,32,99,24
2,32,0,20
2,29,92,124
2,29,0,39
2,27,92,57
2,27,0,23
2,27,78,73
2,27,0,28
2,29,77,20
2,29,0,26
2,27,92,22
2,27,0,16
2,36,105,3
2,36,0,41
2,32,106,17
2,32,0,36
2,29,94,12
2,29,0,30
2,31,109,18
2,31,0,73
2,31,102,23
2,31,0,18
2,26,94,126
2,38,94,0
2,26,0,37
2,38,0,9
2,24,66,2
2,36,80,0
2,36,0,25
2,24,0,4
2,26,70,19
2,38,94,0
2,38,0,12
2,26,0,4
2,29,96,32
2,41,92,0
2,29,0,28
2,41,0,18
2,31,69,2
2,43,85,0
2,31,0,14
2,43,0,11
2,31,74,23
2,43,77,0
2,43,0,8
2,31,0,8
2,29,109,32
2,41,94,0
2,29,0,20
2,41,0,13
2,31,96,15
2,43,104,0
2,31,0,6
2,43,0,9
2,34,109,2
2,46,118,0
2,46,0,1
2,34,0,4
2,36,103,5
2,48,119,0
2,36,0,36
2,48,0,0
2,24,103,12
2,36,116,0
2,36,0,89
2,24,0,2
2,24,116,5
2,36,109,0
2,24,0,17
2,36,0,4
2,27,106,75
2,39,92,0
2,27,0,16
2,39,0,5
2,31,75,27
2,43,72,0
2,43,0,14
2,31,0,8
2,34,83,26
2,46,92,0
2,34,0,14
2,46,0,10
2,36,96,24
2,48,97,0
2,48,0,51
2,36,0,1
2,32,120,44
2,32,0,72
2,32,111,24
2,32,0,27
2,27,90,69
2,27,0,28
2,27,90,20
2,27,0,3
2,29,106,45
2,29,0,23
2,32,104,25
2,32,0,23
2,29,115,73
2,29,0,27
2,32,105,21
2,36,99,144
2,32,0,1
2,36,0,15
2,31,105,11
2,31,0,72
2,31,99,24
2,31,0,20
2,39,103,124
2,39,0,39
2,35,72,9
2,35,0,12
2,39,80,36
2,39,0,10
2,41,105,38
2,41,0,40
2,43,78,8
2,43,0,28
2,41,77,20
2,41,0,26
2,39,92,22
2,39,0,16
2,43,105,8
2,43,0,41
2,46,106,17
2,46,0,36
2,48,94,12
2,48,0,30
2,36,109,18
2,36,0,3025
2,24,106,47
2,36,113,0
2,36,0,147
2,24,0,62
2,36,90,79
2,36,0,47
2,36,97,1
2,36,0,11
2,41,99,85
2,41,0,15
2,41,96,81
2,41,0,37
2,43,105,11
2,43,0,17
2,24,102,6
2,36,112,0
2,36,0,88
2,36,113,8
2,24,0,9
2,36,0,3
2,34,103,228
2,34,0,12
2,36,87,84
2,36,0,11
2,34,92,85
2,34,0,26
2,36,113,22
2,36,0,25
2,34,106,46
2,34,0,76
2,34,109,20
2,34,0,17
2,34,98,127
2,34,0,10
2,39,115,86
2,39,0,6
2,39,103,90
2,39,0,21
2,41,111,27
2,41,0,5
2,27,108,19
2,39,112,0
2,27,0,77
2,39,0,0
2,27,100,19
2,39,90,0
2,27,0,20
2,39,0,0
2,27,53,220
2,27,0,11
2,39,103,37
2,39,0,14
2,41,93,34
2,41,0,15
2,27,71,33
2,27,0,8
2,36,87,40
2,36,0,17
2,43,107,31
2,43,0,31
2,24,106,27
2,36,113,0
2,36,0,147
2,24,0,62
2,36,90,79
2,36,0,47
2,36,97,1
2,36,0,11
2,41,99,85
2,41,0,15
2,41,96,81
2,41,0,37
2,43,105,11
2,43,0,17
2,24,102,6
2,36,112,0
2,36,0,88
2,36,113,8
2,24,0,9
2,36,0,3
2,34,103,228
2,34,0,12
2,36,87,84
2,36,0,11
2,34,92,85
2,34,0,26
2,36,113,22
2,36,0,25
2,34,106,46
2,34,0,76
2,34,109,20
2,34,0,17
2,34,98,127
2,34,0,10
2,39,115,86
2,39,0,6
2,39,103,90
2,39,0,21
2,41,111,27
2,41,0,5
2,27,108,19
2,39,112,0
2,27,0,77
2,39,0,0
2,27,100,19
2,39,90,0
2,27,0,20
2,39,0,0
2,27,97,220
2,27,0,3
2,27,117,45
2,27,0,30
2,39,109,18
2,39,0,23
2,34,112,7
2,34,0,15
2,29,105,10
2,29,0,8
2,27,87,18
2,24,94,21
