track,note,velocity,time
3,30,114,3239
3,30,0,32
3,30,116,64
3,30,0,106
3,30,113,38
3,30,0,34
3,30,114,62
3,30,0,26
3,30,112,22
3,30,0,33
3,30,116,63
3,30,0,96
3,30,113,48
3,30,0,32
3,30,113,64
3,30,0,23
3,30,114,25
3,30,0,34
3,30,115,62
3,30,0,102
3,30,114,42
3,30,0,30
3,30,113,66
3,30,0,22
3,30,113,26
3,30,0,43
3,30,116,53
3,30,0,105
3,30,114,39
3,30,0,30
3,30,114,66
3,30,0,22
3,30,114,26
3,30,0,32
3,30,116,64
3,30,0,106
3,30,113,38
3,30,0,34
3,30,114,62
3,30,0,26
3,30,112,22
3,30,0,33
3,30,116,63
3,30,0,96
3,30,113,48
3,30,0,32
3,30,113,64
3,30,0,23
3,30,114,25
3,30,0,34
3,30,115,62
3,30,0,102
3,30,114,42
3,30,0,30
3,30,113,66
3,30,0,22
3,30,113,26
3,30,0,43
3,30,116,53
3,30,0,105
3,30,114,39
3,30,0,30
3,30,114,66
3,30,0,22
3,30,114,26
3,30,0,32
3,30,116,64
3,30,0,106
3,30,113,38
3,30,0,34
3,30,114,62
3,30,0,26
3,30,112,22
3,30,0,33
3,30,116,63
3,30,0,96
3,30,113,48
3,30,0,32
3,30,113,64
3,30,0,23
3,30,114,25
3,30,0,34
3,30,115,62
3,30,0,102
3,30,114,42
3,30,0,30
3,30,113,66
3,30,0,22
3,30,113,26
3,30,0,43
3,30,116,53
3,30,0,105
3,30,114,39
3,30,0,30
3,30,114,66
3,30,0,22
3,30,114,26
3,30,0,32
3,30,116,64
3,30,0,106
3,30,113,38
3,30,0,34
3,30,114,62
3,30,0,26
3,30,112,22
3,30,0,33
3,30,116,63
3,30,0,96
3,30,113,48
3,30,0,32
3,30,113,64
3,30,0,23
3,30,114,25
3,30,0,34
3,30,115,62
3,30,0,102
3,30,114,42
3,30,0,30
3,30,113,66
3,30,0,22
3,30,113,26
3,30,0,43
3,30,116,53
3,30,0,105
3,30,114,39
3,30,0,30
3,30,114,66
3,30,0,22
3,30,114,1562
3,30,0,32
3,30,116,64
3,30,0,106
3,30,113,38
3,30,0,34
3,30,114,62
3,30,0,26
3,30,112,22
3,30,0,33
3,30,116,63
3,30,0,96
3,30,113,48
3,30,0,32
3,30,113,64
3,30,0,23
3,30,114,25
3,30,115,62
3,30,0,102
3,30,114,42
3,30,0,30
3,30,113,66
3,30,0,22
3,30,113,26
3,30,0,43
3,30,116,53
3,30,0,105
3,30,114,39
3,30,0,30
3,30,114,66
3,30,0,22
3,30,114,26
3,30,0,32
3,30,116,64
3,30,0,106
3,30,113,38
3,30,114,62
3,30,112,22
3,30,116,63
3,30,0,96
3,30,113,48
3,30,0,32
3,30,113,64
3,30,0,23
3,30,114,25
3,30,0,34
3,30,115,62
3,30,0,102
3,30,114,42
3,30,113,66
3,30,113,26
3,30,116,53
3,30,0,105
3,30,114,39
3,30,114,66
3,30,0,22
3,30,114,26
3,30,0,32
3,30,116,64
3,30,0,106
3,30,113,38
3,30,0,34
3,30,114,62
3,30,0,26
3,30,112,22
3,30,0,33
3,30,116,63
3,30,0,96
3,30,113,48
3,30,0,32
3,30,113,64
3,30,0,23
3,30,114,25
3,30,0,34
3,30,115,62
3,30,0,102
3,30,114,42
3,30,0,30
3,30,113,66
3,30,0,22
3,30,113,26
3,30,0,43
3,30,116,53
3,30,0,105
3,30,114,39
3,30,0,30
3,30,114,66
3,30,0,22
3,30,114,26
3,30,116,64
3,30,0,106
3,30,113,38
3,30,0,34
3,30,114,62
3,30,112,22
3,30,0,33
3,30,116,63
3,30,0,96
3,30,113,48
3,30,0,32
3,30,113,64
3,30,0,23
3,30,114,25
3,30,0,34
3,30,115,62
3,30,0,102
3,30,114,42
3,30,0,30
3,30,113,66
3,30,0,22
3,30,113,26
3,30,0,43
3,30,116,53
3,30,0,105
3,30,114,39
3,30,0,30
3,30,114,66
3,30,0,22
3,30,114,26
3,30,0,32
3,30,116,64
3,30,0,106
3,30,113,38
3,30,0,34
3,30,114,62
3,30,0,26
3,30,112,22
3,30,0,33
3,30,116,63
3,30,0,96
3,30,113,48
3,30,0,32
3,30,113,64
3,30,0,23
3,30,114,25
3,30,115,62
3,30,0,102
3,30,114,42
3,30,0,30
3,30,113,66
3,30,0,22
3,30,113,26
3,30,0,43
3,30,116,53
3,30,0,105
3,30,114,39
3,30,0,30
3,30,114,66
3,30,0,22
3,30,114,26
3,30,0,32
3,30,116,64
3,30,0,106
3,30,113,38
3,30,114,62
3,30,112,22
3,30,116,63
3,30,0,96
3,30,113,48
3,30,0,32
3,30,113,64
3,30,0,23
3,30,114,25
3,30,0,34
3,30,115,62
3,30,0,102
3,30,114,42
3,30,113,66
3,30,113,26
3,30,116,53
3,30,0,105
3,30,114,39
3,30,114,66
3,30,0,22
3,30,114,26
3,30,0,32
3,30,116,64
3,30,0,106
3,30,113,38
3,30,0,34
3,30,114,62
3,30,0,26
3,30,112,22
3,30,0,33
3,30,116,63
3,30,0,96
3,30,113,48
3,30,0,32
3,30,113,64
3,30,0,23
3,30,114,25
3,30,0,34
3,30,115,62
3,30,0,102
3,30,114,42
3,30,113,66
3,30,0,22
3,30,113,26
3,30,0,43
3,30,116,53
3,30,0,105
3,30,114,39
3,30,0,30
3,30,114,66
3,30,0,22
3,30,114,26
3,30,0,32
3,30,116,64
3,30,0,106
3,30,113,38
3,30,0,34
3,30,114,62
3,30,0,26
3,30,112,22
3,30,0,33
3,30,116,63
3,30,0,96
3,30,113,48
3,30,0,32
3,30,113,64
3,30,0,23
3,30,114,25
3,30,0,34
3,30,115,62
3,30,0,102
3,30,114,42
3,30,0,30
3,30,113,66
3,30,0,22
3,30,113,26
3,30,0,43
3,30,116,53
3,30,0,105
3,30,114,39
3,30,0,30
3,30,114,66
3,30,0,22
3,30,114,26
3,30,0,32
3,30,116,64
3,30,0,106
3,30,113,38
3,30,0,34
3,30,114,62
3,30,0,26
3,30,112,22
3,30,0,33
3,30,116,63
3,30,0,96
3,30,113,48
3,30,0,32
3,30,113,64
3,30,0,23
3,30,114,25
3,30,0,34
3,30,115,62
3,30,0,102
3,30,114,42
3,30,0,30
3,30,113,66
3,30,0,22
3,30,113,26
3,30,0,43
3,30,116,53
3,30,0,105
3,30,114,39
3,30,0,30
3,30,114,66
3,30,0,22
3,30,114,26
3,30,0,32
3,30,116,64
3,30,0,106
3,30,113,38
3,30,0,34
3,30,114,62
3,30,0,26
3,30,112,22
3,30,0,33
3,30,116,63
3,30,0,96
3,30,113,48
3,30,0,32
3,30,113,64
3,30,0,23
3,30,114,25
3,30,0,34
3,30,115,62
3,30,0,102
3,30,114,42
3,30,0,30
3,30,113,66
3,30,0,22
3,30,113,26
3,30,0,43
3,30,116,53
3,30,0,105
3,30,114,39
3,30,0,30
3,30,114,66
3,30,0,22
3,30,114,26
3,30,0,32
3,30,116,64
3,30,0,106
3,30,113,38
3,30,0,34
3,30,114,62
3,30,112,22
3,30,0,33
3,30,116,63
3,30,0,96
3,30,113,48
3,30,0,32
3,30,113,64
3,30,114,25
3,30,115,62
3,30,0,102
3,30,114,42
3,30,113,66
3,42,113,3
3,42,116,3
3,42,105,3
3,42,114,3
3,42,0,45
3,42,101,3
3,42,114,3
3,42,0,45
3,39,114,3
3,39,116,8
3,39,0,139
3,39,97,5
3,39,0,93
3,39,114,3
3,39,0,38
3,39,112,10
3,39,0,80
3,39,116,16
3,39,0,123
3,39,97,21
3,39,0,93
3,39,113,3
3,39,0,7
3,35,114,41
3,35,0,82
3,35,115,14
3,35,0,237
3,35,113,3
3,35,0,41
3,35,113,7
3,35,0,91
3,35,116,5
3,35,0,235
3,35,114,5
3,35,0,45
3,30,114,3
3,30,0,93
3,30,116,3
3,30,0,236
3,30,114,4
3,30,0,45
3,30,112,3
3,30,0,92
3,30,116,4
3,30,0,237
3,30,113,3
3,30,0,45
3,30,114,3
3,30,0,93
3,30,115,3
3,30,0,236
3,30,113,4
3,30,0,45
3,42,113,3
3,42,0,93
3,42,116,3
3,42,0,93
3,42,105,3
3,42,0,45
3,42,114,3
3,42,0,45
3,42,101,3
3,42,114,3
3,42,0,45
3,39,114,3
3,39,116,8
3,39,0,139
3,39,97,5
3,39,0,93
3,39,114,3
3,39,0,38
3,39,112,10
3,39,0,80
3,39,116,16
3,39,0,123
3,39,97,21
3,39,0,93
3,39,113,3
3,39,0,7
3,35,114,41
3,35,0,82
3,35,115,14
3,35,0,237
3,35,113,3
3,35,0,41
3,35,113,7
3,35,0,91
3,35,116,5
3,35,0,235
3,35,114,5
3,35,0,45
3,40,114,3
3,40,0,93
3,40,116,3
3,40,0,236
3,40,114,4
3,40,0,45
3,40,112,3
3,40,0,92
3,40,116,4
3,40,0,237
3,40,113,3
3,40,0,45
3,35,114,3
3,35,0,93
3,35,115,3
3,35,0,236
3,35,113,4
3,35,0,45
3,37,113,3
3,37,0,91
3,37,116,5
3,37,0,236
3,37,114,4
3,37,0,45
3,30,114,3
3,30,0,32
3,30,116,64
3,30,0,106
3,30,113,38
3,30,0,34
3,30,114,62
3,30,0,26
3,30,112,22
3,30,0,33
3,30,116,63
3,30,0,96
3,30,113,48
3,30,0,32
3,30,113,64
3,30,0,23
3,30,114,25
3,30,0,34
3,30,115,62
3,30,0,102
3,30,114,42
3,30,0,30
3,30,113,66
3,30,113,26
3,30,116,53
3,30,0,105
3,30,114,39
3,30,0,30
3,30,114,66
3,30,0,22
3,30,114,26
3,30,116,64
3,30,0,106
3,30,113,38
3,30,0,34
3,30,114,62
3,30,0,26
3,30,112,22
3,30,0,33
3,30,116,63
3,30,0,96
3,30,113,48
3,30,0,32
3,30,113,64
3,30,0,23
3,30,114,25
3,30,0,34
3,30,115,62
3,30,0,102
3,30,114,42
3,30,0,30
3,30,113,66
3,30,0,22
3,30,113,26
3,30,0,43
3,30,116,53
3,30,0,105
3,30,114,39
3,30,0,30
3,30,114,66
3,30,0,22
3,30,114,1562
3,30,0,32
3,30,116,64
3,30,0,106
3,30,113,38
3,30,0,34
3,30,114,62
3,30,0,26
3,30,112,22
3,30,0,33
3,30,116,63
3,30,0,96
3,30,113,48
3,30,0,32
3,30,113,64
3,30,0,23
3,30,114,25
3,30,115,62
3,30,0,102
3,30,114,42
3,30,0,30
3,30,113,66
3,30,0,22
3,30,113,26
3,30,0,43
3,30,116,53
3,30,0,105
3,30,114,39
3,30,0,30
3,30,114,66
3,30,0,22
3,30,114,26
3,30,0,32
3,30,116,64
3,30,0,106
3,30,113,38
3,30,114,62
3,30,112,22
3,30,116,63
3,30,0,96
3,30,113,48
3,30,0,32
3,30,113,64
3,30,0,23
3,30,114,25
3,30,0,34
3,30,115,62
3,30,0,102
3,30,114,42
3,30,113,66
3,30,113,26
3,30,116,53
3,30,0,105
3,30,114,39
3,30,114,66
3,30,0,22
3,30,114,26
3,30,0,32
3,30,116,64
3,30,0,106
3,30,113,38
3,30,0,34
3,30,114,62
3,30,0,26
3,30,112,22
3,30,0,33
3,30,116,63
3,30,0,96
3,30,113,48
3,30,0,32
3,30,113,64
3,30,0,23
3,30,114,25
3,30,0,34
3,30,115,62
3,30,0,102
3,30,114,42
3,30,113,66
3,30,0,22
3,30,113,26
3,30,0,43
3,30,116,53
3,30,0,105
3,30,114,39
3,30,0,30
3,30,114,66
3,30,0,22
3,30,114,26
3,30,0,32
3,30,116,64
3,30,0,106
3,30,113,38
3,30,0,34
3,30,114,62
3,30,0,26
3,30,112,22
3,30,0,33
3,30,116,63
3,30,0,96
3,30,113,48
3,30,0,32
3,30,113,64
3,30,0,23
3,30,114,25
3,30,0,34
3,30,115,62
3,30,0,102
3,30,114,42
3,30,0,30
3,30,113,66
3,30,0,22
3,30,113,26
3,30,0,43
3,30,116,53
3,30,0,105
3,30,114,39
3,30,0,30
3,30,114,66
3,30,0,22
3,30,114,26
3,30,0,32
3,30,116,64
3,30,0,106
3,30,113,38
3,30,0,34
3,30,114,62
3,30,0,26
3,30,112,22
3,30,0,33
3,30,116,63
3,30,0,96
3,30,113,48
3,30,0,32
3,30,113,64
3,30,0,23
3,30,114,25
3,30,0,34
3,30,115,62
3,30,0,102
3,30,114,42
3,30,0,30
3,30,113,66
3,30,0,22
3,30,113,26
3,30,0,43
3,30,116,53
3,30,0,105
3,30,114,39
3,30,0,30
3,30,114,66
3,30,0,22
3,30,114,26
3,30,0,32
3,30,116,64
3,30,0,106
3,30,113,38
3,30,0,34
3,30,114,62
3,30,0,26
3,30,112,22
3,30,0,33
3,30,116,63
3,30,0,96
3,30,113,48
3,30,0,32
3,30,113,64
3,30,0,23
3,30,114,25
3,30,0,34
3,30,115,62
3,30,0,102
3,30,114,42
3,30,0,30
3,30,113,66
3,30,0,22
3,30,113,26
3,30,0,43
3,30,116,53
3,30,0,105
3,30,114,39
3,30,0,30
3,30,114,66
3,30,0,22
3,30,114,26
3,30,0,32
3,30,116,64
3,30,0,106
3,30,113,38
3,30,0,34
3,30,114,62
3,30,112,22
3,30,0,33
3,30,116,63
3,30,0,96
3,30,113,48
3,30,0,32
3,30,113,64
3,30,114,25
3,30,115,62
3,30,0,102
3,30,114,42
3,30,113,66
3,42,113,3
3,42,116,3
3,42,105,3
3,42,114,3
3,42,0,45
3,42,101,3
3,42,114,3
3,42,0,45
3,39,114,3
3,39,116,8
3,39,0,139
3,39,97,5
3,39,0,93
3,39,114,3
3,39,0,38
3,39,112,10
3,39,0,80
3,39,116,16
3,39,0,123
3,39,97,21
3,39,0,93
3,39,113,3
3,39,0,7
3,35,114,41
3,35,0,82
3,35,115,14
3,35,0,237
3,35,113,3
3,35,0,41
3,35,113,7
3,35,0,91
3,35,116,5
3,35,0,235
3,35,114,5
3,35,0,45
3,30,114,3
3,30,0,93
3,30,116,3
3,30,0,236
3,30,114,4
3,30,0,45
3,30,112,3
3,30,0,92
3,30,116,4
3,30,0,237
3,30,113,3
3,30,0,45
3,30,114,3
3,30,0,93
3,30,115,3
3,30,0,236
3,30,113,4
3,30,0,45
3,42,113,3
3,42,0,93
3,42,116,3
3,42,0,93
3,42,105,3
3,42,0,45
3,42,114,3
3,42,0,45
3,42,101,3
3,42,114,3
3,42,0,45
3,39,114,3
3,39,116,8
3,39,0,139
3,39,97,5
3,39,0,93
3,39,114,3
3,39,0,38
3,39,112,10
3,39,0,80
3,39,116,16
3,39,0,123
3,39,97,21
3,39,0,93
3,39,113,3
3,39,0,7
3,35,114,41
3,35,0,82
3,35,115,14
3,35,0,237
3,35,113,3
3,35,0,41
3,35,113,7
3,35,0,91
3,35,116,5
3,35,0,235
3,35,114,5
3,35,0,45
3,40,114,3
3,40,0,93
3,40,116,3
3,40,0,236
3,40,114,4
3,40,0,45
3,40,112,3
3,40,0,92
3,40,116,4
3,40,0,237
3,40,113,3
3,40,0,45
3,35,114,3
3,35,0,93
3,35,115,3
3,35,0,236
3,35,113,4
3,35,0,45
3,37,113,3
3,37,0,91
3,37,116,5
3,37,0,236
3,37,114,4
3,37,0,45
3,30,114,3
3,30,0,32
3,30,116,64
3,30,0,106
3,30,113,38
3,30,0,34
3,30,114,62
3,30,0,26
3,30,112,22
3,30,0,33
3,30,116,63
3,30,0,96
3,30,113,48
3,30,0,32
3,30,113,64
3,30,0,23
3,30,114,25
3,30,0,34
3,30,115,62
3,30,0,102
3,30,114,42
3,30,0,30
3,30,113,66
3,30,113,26
3,30,116,53
3,30,0,105
3,30,114,39
3,30,0,30
3,30,114,66
3,30,0,22
3,30,114,26
3,30,116,64
3,30,0,106
3,30,113,38
3,30,0,34
3,30,114,62
3,30,0,26
3,30,112,22
3,30,0,33
3,30,116,63
3,30,0,96
3,30,113,48
3,30,0,32
3,30,113,64
3,30,0,23
3,30,114,25
3,30,0,34
3,30,115,62
3,30,0,102
3,30,114,42
3,30,0,30
3,30,113,66
3,30,0,22
3,30,113,26
3,30,0,43
3,30,116,53
3,30,0,105
3,30,114,39
3,30,0,30
