track,note,velocity,time
1,64,55,2492
1,59,55,0
1,69,59,2
1,66,47,0
1,69,43,96
1,66,43,0
1,64,55,0
1,66,27,66
1,64,43,0
1,64,67,114
1,59,67,0
1,66,63,2
1,69,67,0
1,59,23,66
1,64,51,2
1,66,39,0
1,69,43,0
1,64,27,48
1,59,35,0
1,64,59,80
1,59,63,0
1,66,51,4
1,69,63,0
1,69,27,78
1,66,35,0
1,64,39,0
1,64,15,80
1,59,43,0
1,69,67,66
1,66,51,0
1,64,63,0
1,59,59,0
1,69,39,64
1,66,43,0
1,64,47,0
1,59,35,0
1,64,27,66
1,59,27,0
1,64,59,98
1,59,63,0
1,66,51,2
1,69,63,0
1,59,35,66
1,64,47,0
1,66,39,2
1,69,35,0
1,64,39,82
1,59,39,0
1,59,59,82
1,64,59,2
1,66,47,0
1,69,59,0
1,69,43,64
1,66,43,0
1,64,51,0
1,59,35,0
1,64,27,64
1,59,39,0
1,69,59,98
1,66,43,0
1,64,59,0
1,59,59,0
1,59,35,64
1,64,55,2
1,66,43,0
1,69,51,0
1,66,43,64
1,64,51,0
1,59,47,0
1,69,59,64
1,66,47,0
1,64,59,0
1,59,59,0
1,66,39,64
1,64,47,0
1,69,51,2
1,64,43,80
1,59,39,0
1,66,35,2
1,59,59,96
1,64,55,2
1,66,47,0
1,69,63,2
1,59,23,64
1,64,43,2
1,66,35,0
1,69,47,0
1,59,43,80
1,64,51,2
1,66,39,0
1,69,63,64
1,66,51,0
1,64,59,0
1,59,59,0
1,69,31,64
1,66,31,0
1,64,35,0
1,59,27,0
1,64,47,82
1,59,47,0
1,66,31,2
1,64,63,80
1,59,67,0
1,66,59,2
1,69,63,2
1,71,79,66
1,66,71,0
1,63,75,0
1,69,79,82
1,64,75,0
1,61,75,0
1,66,39,64
1,64,51,0
1,59,59,0
1,69,55,96
1,66,47,0
1,64,55,0
1,59,63,0
1,69,51,80
1,66,47,0
1,64,59,0
1,59,63,0
1,69,71,62
1,66,67,0
1,64,71,0
1,59,43,66
1,64,51,0
1,66,43,0
1,69,55,82
1,66,51,0
1,64,59,0
1,69,47,82
1,66,35,0
1,64,51,0
1,69,59,82
1,66,51,0
1,64,63,0
1,64,51,82
1,59,47,0
1,66,43,2
1,69,43,100
1,71,39,2
1,76,63,0
1,64,63,96
1,76,55,2
1,69,55,0
1,66,55,0
1,76,67,78
1,69,59,0
1,66,59,0
1,64,59,0
1,76,63,80
1,69,55,0
1,66,55,0
1,64,59,0
1,76,67,62
1,69,63,0
1,66,59,0
1,64,59,0
1,76,71,64
1,69,59,0
1,66,59,0
1,64,63,0
1,66,67,82
1,64,75,0
1,69,71,2
1,76,75,0
1,69,51,112
1,66,47,0
1,64,51,0
1,69,63,114
1,66,63,0
1,64,71,0
1,76,71,2
1,69,47,110
1,66,43,0
1,64,39,0
1,76,67,112
1,69,59,0
1,66,59,0
1,64,63,0
1,64,51,98
1,66,47,2
1,69,55,0
1,66,63,112
1,64,71,0
1,69,67,2
1,76,71,0
1,69,55,96
1,66,51,0
1,64,59,0
1,64,75,114
1,66,67,0
1,69,71,0
1,76,75,0
1,66,51,96
1,64,55,0
1,69,55,2
1,64,75,112
1,76,75,2
1,69,75,0
1,66,67,0
1,64,67,66
1,69,63,2
1,66,63,0
1,63,75,130
1,66,71,0
1,71,79,0
1,61,75,134
1,64,75,2
1,69,63,0
1,64,51,62
1,59,59,0
1,66,39,2
1,66,59,96
1,64,59,0
1,59,71,0
1,69,67,2
1,69,55,100
1,66,47,0
1,64,55,0
1,59,63,0
1,69,67,96
1,66,63,0
1,64,67,0
1,59,71,0
1,59,35,96
1,64,43,2
1,66,43,0
1,69,67,110
1,66,63,0
1,64,63,0
1,59,63,0
1,66,43,96
1,64,43,0
1,59,43,0
1,59,67,116
1,64,63,0
1,66,63,0
1,69,71,2
1,59,43,96
1,64,39,2
1,66,47,0
1,64,59,114
1,59,63,0
1,66,55,2
1,69,63,0
1,69,51,112
1,66,39,0
1,64,43,0
1,59,43,0
1,69,71,114
1,66,59,0
1,64,63,0
1,59,71,0
1,64,55,98
1,59,43,0
1,69,67,128
1,66,67,0
1,64,55,0
1,59,63,0
1,66,27,96
1,59,47,0
1,76,75,130
1,69,71,0
1,66,71,0
1,64,75,0
1,69,43,96
1,66,43,0
1,64,39,0
1,76,71,112
1,69,59,0
1,66,59,0
1,64,67,0
1,69,51,96
1,66,51,0
1,64,51,0
1,76,71,112
1,69,51,0
1,66,55,0
1,64,59,0
1,69,35,96
1,66,27,0
1,64,27,0
1,76,75,112
1,69,71,0
1,66,67,0
1,64,75,0
1,64,47,112
1,66,43,0
1,69,47,2
1,66,59,112
1,64,59,0
1,69,59,2
1,76,71,0
1,64,59,96
1,66,55,2
1,69,59,0
1,64,75,114
1,66,71,0
1,69,75,0
1,76,75,2
1,69,71,82
1,66,67,0
1,64,71,0
1,28,127,852
1,28,127,114
1,28,127,48
1,28,127,114
1,28,127,110
1,28,127,128
1,28,127,132
1,28,127,148
1,28,127,80
1,28,127,130
1,28,127,84
1,28,127,130
1,28,127,66
1,28,127,128
1,28,127,114
1,28,127,148
1,28,127,96
1,28,127,148
1,28,127,62
1,28,127,128
1,28,127,82
1,28,127,112
1,28,127,100
1,28,127,146
1,28,127,20
1,28,127,158
1,28,127,98
1,28,127,144
1,28,127,62
1,28,127,114
1,28,127,108
1,28,127,130
1,28,127,64
1,28,127,160
1,28,127,82
1,28,123,150
1,28,127,64
1,28,127,144
1,28,127,64
1,28,127,142
1,28,127,98
1,28,127,142
1,28,127,114
1,28,127,134
1,28,127,2
1,28,127,176
1,28,127,130
1,28,127,144
1,28,127,116
1,28,127,130
1,28,127,68
1,28,127,146
1,28,127,114
1,28,127,146
1,28,127,68
1,28,127,146
1,28,127,100
1,28,127,130
1,28,127,114
1,28,127,150
1,28,127,116
1,28,127,150
1,28,127,98
1,28,127,146
1,28,127,98
1,28,127,162
1,28,127,82
1,28,127,148
1,28,127,100
1,28,127,148
1,28,127,100
1,28,127,174
1,28,127,116
1,28,127,144
1,28,127,64
1,28,127,178
1,28,127,96
1,28,127,162
1,28,127,118
1,28,127,168
1,28,127,114
1,28,127,162
1,28,127,116
1,28,127,144
1,28,127,98
1,28,127,146
1,40,127,32
1,36,127,4
1,37,119,4
1,37,127,2
1,25,127,4
1,37,119,64
1,37,123,98
1,25,127,112
1,25,127,112
1,37,119,96
1,37,123,114
1,25,123,116
1,25,127,114
1,37,119,112
1,37,127,114
1,25,127,110
1,37,127,130
1,28,111,2
1,29,123,0
1,29,127,98
1,30,127,34
1,30,123,68
1,30,123,128
1,30,127,132
1,30,127,112
1,30,127,114
1,30,127,134
1,30,123,132
1,30,127,128
1,30,123,112
1,30,123,114
1,30,123,114
1,30,123,112
1,30,127,112
1,30,123,112
1,29,127,130
1,30,127,54
1,32,119,62
1,33,111,0
1,34,123,4
1,35,107,2
1,37,119,4
1,40,127,6
1,37,115,4
1,28,127,52
1,28,127,96
1,28,127,112
1,28,127,112
1,28,127,96
1,28,127,96
1,28,127,114
1,28,127,96
1,28,127,98
1,28,127,112
1,30,119,0
1,32,123,98
1,32,115,50
1,32,115,128
1,32,119,126
1,32,123,130
1,33,127,36
1,33,123,112
1,33,127,128
1,33,127,128
1,33,127,130
1,33,127,126
1,33,127,128
1,29,119,128
1,30,119,4
1,32,115,0
1,33,115,4
1,34,115,4
1,35,127,2
1,37,119,4
1,40,103,0
1,37,119,0
1,28,127,22
1,28,127,112
1,28,127,132
1,28,127,112
1,28,127,112
1,28,127,112
1,28,127,114
1,28,123,130
1,28,127,114
1,28,115,110
1,30,123,32
1,30,127,120
1,32,119,34
1,32,119,94
1,32,123,112
1,28,123,46
1,33,127,2
1,33,127,112
1,33,127,114
1,33,127,114
1,33,127,98
1,33,127,112
1,33,127,114
1,33,127,114
1,33,127,114
1,33,127,96
1,33,127,114
1,33,127,116
1,33,127,110
1,32,119,110
1,33,119,32
1,30,123,82
1,30,127,32
1,30,123,96
1,30,123,98
1,30,119,114
1,30,119,114
1,33,127,112
1,35,123,0
1,37,119,0
1,25,127,22
1,25,123,116
1,25,119,114
1,25,115,112
1,35,127,2
1,35,127,96
1,37,115,18
1,33,127,98
1,33,127,18
1,33,127,96
1,33,127,114
1,33,127,114
1,33,127,114
1,33,127,112
1,33,127,98
1,33,127,114
1,33,127,114
1,28,127,596
1,28,127,4
1,28,127,178
1,28,127,128
1,28,127,148
1,28,127,112
1,28,127,130
1,28,127,68
1,28,127,152
1,28,127,114
1,28,127,146
1,28,127,66
1,28,127,146
1,28,127,96
1,28,127,128
1,35,115,118
1,40,115,2
1,35,115,2
1,28,127,18
1,28,127,0
1,28,127,114
1,28,127,52
1,28,127,118
1,28,127,114
1,28,127,126
1,28,127,128
1,28,127,146
1,28,127,78
1,28,127,128
1,28,127,80
1,28,127,130
1,28,127,66
1,28,127,130
1,28,127,114
1,35,127,2
1,28,127,2
1,35,127,0
1,28,127,2
1,28,127,0
1,28,127,34
1,28,127,2
1,28,127,130
1,28,127,80
1,28,127,114
1,28,127,98
1,28,127,144
1,28,127,16
1,28,127,162
1,28,127,96
1,28,127,148
1,28,127,66
1,28,127,114
1,28,127,118
1,28,127,132
1,28,127,66
1,28,127,160
1,28,127,86
1,28,123,148
1,28,127,68
1,28,127,148
1,28,127,66
1,28,127,146
1,28,127,96
1,28,127,148
1,40,127,114
1,40,127,64
1,35,127,32
1,28,127,18
1,28,127,2
1,28,127,182
1,28,127,130
1,28,127,148
1,28,127,112
1,28,127,130
1,28,127,72
1,40,127,150
1,28,127,4
1,28,127,146
1,28,127,68
1,28,127,146
1,28,127,100
1,28,127,128
1,35,127,116
1,40,127,2
1,28,127,2
1,35,127,2
1,28,127,4
1,28,127,146
1,28,127,98
1,28,127,144
1,28,127,98
1,28,127,160
1,28,127,80
1,28,127,150
1,28,127,100
1,28,127,148
1,28,127,100
1,28,127,162
1,28,127,114
1,28,127,148
1,28,127,66
1,28,127,176
1,28,127,98
1,28,127,158
1,28,127,118
1,28,127,166
1,28,127,114
1,28,127,164
1,28,127,110
1,28,127,146
1,28,127,98
1,28,127,144
1,40,127,34
1,36,127,4
1,37,119,4
1,37,127,4
1,25,127,4
1,37,119,64
1,37,123,98
1,25,127,112
1,25,127,116
1,37,119,100
1,37,123,114
1,25,123,110
1,25,127,114
1,37,119,112
1,37,127,114
1,25,127,114
1,37,127,132
1,28,111,0
1,29,123,0
1,29,127,98
1,30,127,34
1,30,123,64
1,30,123,130
1,30,127,130
1,30,127,112
1,30,127,116
1,30,127,128
1,30,123,130
1,30,127,132
1,30,123,112
1,30,123,112
1,30,123,112
1,30,123,112
1,30,127,112
1,30,123,114
1,29,127,128
1,30,127,54
1,32,119,66
1,33,111,2
1,34,123,4
1,35,107,2
1,37,119,0
1,40,127,0
1,37,115,6
1,28,127,50
1,28,127,96
1,28,127,112
1,28,127,114
1,28,127,98
1,28,127,96
1,28,127,112
1,28,127,96
1,28,127,96
1,28,127,114
1,30,119,2
1,32,123,102
1,32,115,52
1,32,115,130
1,32,119,130
1,32,123,128
1,33,127,34
1,33,123,114
1,33,127,132
1,33,127,130
1,33,127,128
1,33,127,128
1,33,127,126
1,29,119,130
1,30,119,2
1,32,115,0
1,33,115,4
1,34,115,2
1,35,127,4
1,37,119,4
1,40,103,0
1,37,119,2
1,28,127,20
1,28,127,112
1,28,127,130
1,28,127,112
1,28,127,112
1,28,127,114
1,28,127,114
1,28,123,130
1,28,127,110
1,28,115,112
1,30,123,32
1,30,127,116
1,32,119,32
1,32,119,96
1,32,123,114
1,28,123,50
1,33,127,6
1,33,127,110
1,33,127,114
1,33,127,114
1,33,127,96
1,33,127,116
1,33,127,114
1,33,127,112
1,33,127,114
1,33,127,98
1,33,127,112
1,33,127,114
1,33,127,112
1,32,119,112
1,33,119,32
1,30,123,80
1,30,127,38
1,30,123,96
1,30,123,96
1,30,119,112
1,30,119,112
1,33,127,112
1,35,123,0
1,37,119,0
1,25,127,18
1,25,123,112
1,25,119,112
1,25,115,116
1,35,127,2
1,35,127,96
1,37,115,14
1,33,127,96
1,33,127,18
1,33,127,114
1,33,127,114
1,33,127,114
1,33,127,114
1,33,127,116
1,33,127,96
1,33,127,110
1,33,127,114
1,34,107,4
1,35,107,4
1,37,119,2
1,40,127,2
1,37,115,0
1,28,127,36
1,28,127,96
1,28,127,112
1,28,127,118
1,28,127,98
1,28,127,98
1,28,127,112
1,28,127,98
1,28,127,98
1,28,127,114
1,30,119,2
1,32,123,96
1,32,115,50
1,32,115,130
1,32,119,130
1,32,123,130
1,33,127,38
1,33,123,112
1,33,127,132
1,33,127,130
1,33,127,130
1,33,127,128
1,33,127,128
1,29,119,134
1,30,119,2
1,32,115,2
1,33,115,2
1,34,115,2
1,35,127,6
1,37,119,2
1,40,103,2
1,37,119,4
1,28,127,18
1,28,127,112
1,28,127,130
1,28,127,118
1,28,127,114
1,28,127,116
1,28,127,114
1,28,123,130
1,28,127,110
1,28,115,112
1,30,123,34
1,30,127,118
1,32,119,34
1,32,119,98
1,32,123,112
1,28,123,50
1,33,127,2
1,33,127,108
1,33,127,112
1,33,127,112
1,33,127,98
1,33,127,112
1,33,127,112
1,33,127,114
1,33,127,114
1,33,127,96
1,33,127,112
1,33,127,112
1,33,127,114
1,32,119,112
1,33,119,34
1,30,123,80
1,30,127,34
1,30,123,98
1,30,123,96
1,30,119,114
1,30,119,112
1,33,127,112
1,35,123,0
1,37,119,2
1,25,127,22
1,25,123,112
1,25,119,114
1,25,115,114
1,35,127,2
1,35,127,98
1,37,115,16
1,33,127,98
1,33,127,16
1,33,127,112
1,33,127,114
1,33,127,114
1,33,127,112
1,33,127,116
1,33,127,96
1,33,127,112
1,33,127,114
1,28,127,598
1,28,127,2
1,28,127,172
1,28,127,128
1,28,127,148
1,28,127,114
1,28,127,114
1,28,127,64
1,28,127,146
1,28,127,112
1,28,127,142
1,28,127,62
1,28,127,146
1,28,127,96
1,28,127,128
1,28,127,116
1,28,127,112
1,28,127,114
1,28,127,112
1,28,127,48
1,28,127,114
1,28,127,110
1,28,127,132
1,28,127,136
1,28,127,152
1,28,127,80
1,28,127,132
1,28,127,84
1,28,127,130
1,28,127,66
1,28,127,128
1,40,127,114
1,40,127,2
1,35,127,36
1,28,127,6
2,64,91,74
2,64,75,111
2,64,79,146
2,64,83,142
2,64,87,144
2,64,75,144
2,64,79,146
2,64,75,146
2,64,83,146
2,64,71,146
2,64,79,146
2,64,75,146
2,64,79,146
2,64,79,150
2,64,79,144
2,64,79,148
2,64,87,148
2,64,79,166
2,64,79,144
2,64,75,150
2,64,75,144
2,64,79,146
2,64,83,162
2,64,83,146
2,64,87,148
2,64,79,148
2,64,79,150
2,64,79,146
2,64,71,150
2,64,75,146
2,64,75,146
2,64,83,162
2,64,91,148
2,64,75,144
2,64,79,146
2,64,75,148
2,64,87,164
2,64,79,148
2,64,83,150
2,64,79,146
2,64,83,144
2,64,79,144
2,64,83,146
2,64,75,150
2,64,83,148
2,64,79,148
2,64,83,140
2,64,91,146
2,64,95,160
2,64,87,146
2,64,91,146
2,64,99,142
2,64,87,128
2,64,87,130
2,64,99,148
2,64,75,132
2,64,99,144
2,64,71,132
2,64,95,132
2,64,99,146
2,64,83,128
2,64,99,130
2,64,99,130
2,64,83,128
2,64,99,134
2,64,63,128
2,64,99,130
2,64,99,146
2,64,99,146
2,64,71,130
2,64,99,130
2,64,55,128
2,64,99,132
2,64,87,128
2,64,99,148
2,64,99,130
2,64,99,132
2,64,75,130
2,64,95,128
2,64,99,150
2,64,87,130
2,64,99,132
2,64,103,146
2,64,99,132
2,64,103,148
2,64,99,134
2,64,103,146
2,64,103,128
2,64,103,130
2,64,103,128
2,64,103,148
2,64,103,128
2,64,103,126
2,64,103,130
2,64,103,144
2,64,87,130
2,64,103,146
2,64,99,126
2,64,91,128
2,64,103,144
2,64,103,130
2,64,103,128
