track,note,velocity,time
1,37,126,802
1,37,0,76
1,37,126,14
1,37,0,85
1,37,116,5
1,37,0,78
1,37,90,12
1,37,0,80
1,37,116,10
1,37,0,46
1,37,126,14
1,37,0,43
1,34,126,17
1,34,0,80
1,34,126,10
1,34,0,68
1,34,126,22
1,34,0,77
1,34,126,13
1,34,0,71
1,34,106,19
1,34,0,47
1,34,106,13
1,34,0,41
1,32,98,19
1,32,0,235
1,32,126,33
1,32,0,178
1,32,126,15
1,32,0,26
1,39,126,4
1,39,0,196
1,39,106,14
1,39,0,26
1,37,126,4
1,37,0,56
1,37,116,4
1,37,0,130
1,37,84,20
1,34,126,30
1,37,0,2
1,34,0,49
1,34,116,9
1,34,0,40
1,34,126,50
1,34,0,86
1,32,126,4
1,32,0,195
1,32,126,15
1,32,0,27
1,31,126,3
1,43,116,150
1,31,0,2
1,31,96,58
1,43,0,2
1,37,126,28
1,31,0,1
1,37,0,85
1,37,116,4
1,37,0,83
1,37,90,7
1,37,0,81
1,37,116,9
1,37,0,76
1,37,116,14
1,37,0,113
1,32,126,7
1,37,78,480
1,32,0,2
1,37,0,475
1,29,126,3
1,29,0,232
1,27,126,8
1,27,0,233
1,37,126,7
1,37,0,232
1,38,126,8
1,38,0,222
1,32,126,18
1,32,0,48
1,32,126,12
1,32,0,145
1,32,106,5
1,32,0,18
1,36,122,12
1,36,0,42
1,36,126,18
1,36,0,166
1,29,122,14
1,29,0,38
1,29,126,22
1,29,0,133
1,29,92,17
1,29,0,21
1,27,126,9
1,27,0,41
1,27,126,19
1,27,0,138
1,27,126,12
1,27,0,26
1,37,126,4
1,37,0,85
1,37,116,5
1,37,0,81
1,37,126,9
1,37,116,90
1,37,0,1
1,37,0,85
1,37,84,4
1,37,0,0
1,32,106,2
1,36,80,237
1,32,0,10
1,36,0,227
1,37,72,3
1,32,84,240
1,37,0,3
1,29,68,237
1,32,0,1
1,29,0,234
1,36,92,5
1,37,98,240
1,36,0,2
1,37,0,234
1,39,90,4
1,29,126,240
1,39,0,0
1,29,0,233
1,37,126,7
1,37,0,236
1,34,126,4
1,39,126,240
1,34,0,2
1,27,126,478
1,39,0,0
1,27,0,222
1,27,126,18
1,27,0,46
1,27,126,14
1,27,0,35
1,32,126,145
1,32,0,185
1,32,126,25
1,32,0,23
1,39,126,7
1,39,0,48
1,39,126,12
1,39,0,132
1,39,116,18
1,39,0,28
1,37,126,2
1,37,0,50
1,37,126,10
1,37,0,128
1,37,116,22
1,37,0,27
1,34,126,3
1,34,0,52
1,34,90,8
1,34,0,15
1,34,126,15
1,34,0,22
1,46,126,2
1,41,80,10
1,46,0,1
1,34,126,29
1,41,0,2
1,32,126,2
1,34,0,0
1,32,0,44
1,32,126,14
1,32,0,133
1,32,106,17
1,32,0,26
1,39,106,4
1,39,0,46
1,39,126,14
1,39,0,140
1,39,84,10
1,39,0,22
1,37,126,2
1,37,0,78
1,36,122,2
1,36,0,91
1,34,126,3
1,34,0,85
1,39,116,4
1,39,0,78
1,39,126,14
1,39,0,31
1,39,126,11
1,39,0,30
1,39,116,13
1,39,0,25
1,32,126,13
1,32,0,195
1,32,90,9
1,32,0,23
1,39,116,8
1,39,0,57
1,39,90,4
1,39,0,136
1,39,78,9
1,39,0,27
1,37,126,6
1,37,0,48
1,37,126,14
1,37,0,130
1,37,106,16
1,37,0,27
1,34,126,6
1,34,0,52
1,34,106,10
1,34,0,0
1,46,126,2
1,34,126,3
1,46,0,0
1,34,0,0
1,32,116,2
1,32,0,44
1,32,106,9
1,32,0,133
1,32,106,13
1,32,0,26
1,31,122,4
1,31,0,43
1,31,110,16
1,31,0,165
1,37,126,13
1,37,0,77
1,37,126,13
1,37,0,81
1,37,126,13
1,37,0,77
1,37,106,12
1,37,0,82
1,34,126,7
1,34,0,77
1,34,126,15
1,34,0,80
1,34,106,13
1,34,0,72
1,34,126,14
1,34,0,85
1,39,106,5
1,39,0,73
1,39,116,16
1,39,0,81
1,39,116,11
1,39,0,71
1,39,116,14
1,39,0,83
1,39,116,12
1,39,0,51
1,39,106,8
1,39,0,55
1,32,106,4
1,37,90,236
1,32,0,6
1,39,90,116
1,37,0,5
1,32,98,119
1,39,0,2
1,37,98,236
1,32,0,3
1,39,90,119
1,37,0,0
1,32,106,121
1,39,0,2
1,37,84,231
1,32,0,0
1,39,84,122
1,37,0,3
1,39,0,1
1,32,98,2
1,32,0,221
2,61,127,696
2,65,127,2
2,37,127,10
2,67,127,5
2,63,127,1
2,65,0,0
2,61,0,4
2,67,0,30
2,65,127,1
2,68,127,8
2,63,0,1
2,68,0,42
2,63,127,8
2,67,127,1
2,65,0,1
2,65,127,92
2,61,127,0
2,63,0,1
2,67,0,3
2,63,127,57
2,61,0,0
2,67,127,1
2,65,0,5
2,67,0,45
2,65,127,7
2,61,127,0
2,34,127,2
2,37,0,0
2,63,0,0
2,67,127,84
2,65,0,4
2,63,127,1
2,61,0,4
2,67,0,72
2,68,127,3
2,65,127,2
2,63,0,0
2,68,0,91
2,65,0,2
2,67,127,2
2,63,127,1
2,67,0,92
2,61,127,1
2,65,127,2
2,63,0,3
2,67,127,54
2,63,127,1
2,65,0,0
2,61,0,7
2,34,0,27
2,67,0,13
2,32,127,7
2,68,127,1
2,32,0,25
2,68,0,8
2,63,0,1
2,63,127,19
2,68,127,1
2,67,127,7
2,68,0,6
2,61,119,85
2,65,127,2
2,63,0,0
2,67,0,5
2,58,127,233
2,65,0,13
2,63,127,68
2,58,0,0
2,61,0,0
2,60,127,1
2,60,0,110
2,68,127,14
2,67,127,116
2,68,0,5
2,67,0,110
2,58,125,11
2,58,0,73
2,63,0,33
2,61,127,2
2,65,127,10
2,67,127,14
2,63,127,1
2,65,0,3
2,61,0,5
2,67,0,25
2,65,127,5
2,68,127,0
2,63,0,5
2,68,0,50
2,67,127,2
2,63,127,0
2,65,0,1
2,61,127,87
2,63,0,0
2,65,127,2
2,67,0,7
2,61,0,11
2,60,127,6
2,63,127,2
2,65,0,3
2,63,0,80
2,55,111,3
2,61,127,47
2,56,127,0
2,55,0,4
2,60,0,2
2,61,0,72
2,60,127,3
2,56,0,58
2,53,101,15
2,56,127,11
2,60,0,5
2,53,0,102
2,55,127,12
2,56,0,7
2,60,127,32
2,55,0,20
2,56,127,1
2,61,127,5
2,60,0,0
2,56,0,3
2,63,127,10
2,58,127,0
2,61,0,4
2,58,0,213
2,60,127,26
2,65,111,3
2,63,0,1
2,60,0,208
2,61,127,13
2,63,127,48
2,67,127,1
2,65,0,3
2,61,0,3
2,67,0,74
2,65,127,4
2,63,0,1
2,68,127,1
2,68,0,58
2,62,127,13
2,62,0,76
2,61,113,16
2,61,0,160
2,68,127,2
2,63,127,2
2,65,0,1
2,67,127,126
2,68,0,3
2,61,113,239
2,63,0,0
2,65,127,2
2,67,0,4
2,58,101,227
2,65,0,12
2,61,0,12
2,63,121,3
2,58,0,4
2,60,127,1
2,68,127,20
2,60,0,1
2,67,127,4
2,68,0,2
2,67,0,176
2,65,127,2
2,63,0,1
2,61,127,1
2,67,127,40
2,63,127,2
2,61,0,4
2,65,0,0
2,67,0,66
2,65,127,9
2,68,127,1
2,63,0,4
2,68,0,89
2,67,127,1
2,63,127,0
2,65,0,3
2,65,127,84
2,61,127,0
2,67,0,1
2,63,0,3
2,63,127,57
2,61,0,1
2,65,0,1
2,67,127,1
2,67,0,55
2,68,127,1
2,68,0,3
2,63,0,1
2,61,127,5
2,60,127,5
2,65,127,0
2,61,0,4
2,65,0,52
2,58,127,6
2,63,127,0
2,60,0,2
2,58,0,129
2,65,127,7
2,61,127,1
2,63,0,0
2,61,0,77
2,62,127,19
2,62,0,218
2,63,127,3
2,65,0,1
2,68,109,3
2,63,0,221
2,67,127,21
2,64,127,4
2,68,0,5
2,65,127,230
2,60,127,1
2,67,0,3
2,64,0,1
2,68,123,120
2,60,0,3
2,68,0,105
2,67,127,7
2,63,127,5
2,65,0,5
2,63,0,230
2,61,127,4
2,65,127,1
2,67,0,1
2,63,127,75
2,67,127,1
2,65,0,2
2,61,0,4
2,67,0,75
2,68,127,5
2,65,127,3
2,63,0,1
2,68,0,89
2,67,127,3
2,63,127,3
2,65,0,1
2,65,127,83
2,67,0,0
2,61,127,1
2,63,0,2
2,61,0,54
2,67,127,1
2,65,0,0
2,63,127,2
2,68,127,7
2,67,0,0
2,68,0,14
2,67,117,12
2,63,0,40
2,61,105,5
2,65,127,1
2,67,0,7
2,65,0,103
2,56,127,3
2,61,0,0
2,53,127,34
2,56,0,5
2,55,127,9
2,53,0,2
2,60,127,100
2,55,0,9
2,61,127,23
2,60,0,7
2,63,127,8
2,61,0,6
2,65,127,25
2,63,0,7
2,67,127,35
2,65,0,4
2,68,127,84
2,67,0,7
2,65,127,20
2,68,0,4
2,61,101,4
2,65,0,6
2,65,127,1
2,67,105,407
2,61,0,10
2,65,0,21
2,67,0,14
2,63,127,29
2,68,127,0
2,63,0,17
2,67,127,3
2,70,127,0
2,68,0,6
2,67,0,7
2,68,127,2
2,65,127,3
2,70,0,2
2,61,105,236
2,68,0,1
2,65,0,214
2,61,0,8
2,63,127,7
2,60,127,2
2,60,0,97
2,68,127,9
2,63,0,119
2,70,123,1
2,68,0,2
2,67,103,5
2,67,0,193
2,70,0,12
2,65,127,24
2,61,127,0
2,61,0,7
2,63,127,8
2,60,127,2
2,65,0,2
2,60,0,61
2,61,127,18
2,58,127,3
2,63,0,5
2,58,0,116
2,61,0,56
2,65,127,2
2,68,127,1
2,65,0,124
2,63,127,2
2,68,0,219
2,67,127,1
2,63,0,118
2,70,127,5
2,70,0,116
2,68,127,3
2,65,127,3
2,67,0,1
2,68,0,234
2,61,101,3
2,68,127,243
2,63,127,1
2,61,0,1
2,65,0,0
2,68,0,230
2,67,127,3
2,63,0,233
2,67,0,3
2,61,127,1
2,65,127,2
2,63,127,69
2,67,127,1
2,65,0,2
2,61,0,1
2,67,0,75
2,65,127,7
2,68,127,0
2,63,0,1
2,68,0,76
2,65,0,6
2,63,127,2
2,67,115,8
2,67,0,81
2,63,0,2
2,65,127,3
2,62,127,1
2,62,0,87
2,63,127,2
2,67,127,3
2,65,0,2
2,67,0,78
2,63,0,4
2,68,127,1
2,65,127,0
2,67,127,85
2,68,0,1
2,65,0,1
2,63,127,3
2,63,0,77
2,65,127,6
2,61,127,2
2,67,0,5
2,67,127,88
2,63,127,2
2,65,0,1
2,61,0,2
2,67,0,78
2,65,127,6
2,68,127,0
2,63,0,1
2,68,0,74
2,67,127,9
2,63,127,2
2,65,0,4
2,67,0,81
2,61,127,12
2,65,127,1
2,63,0,4
2,65,0,53
2,67,127,2
2,63,127,0
2,61,0,7
2,68,127,53
2,67,0,2
2,68,0,50
2,67,127,9
2,65,127,26
2,63,0,0
2,61,107,1
2,67,0,5
2,60,127,5
2,61,0,0
2,63,127,4
2,65,0,7
2,60,0,7
2,67,127,2
2,63,0,9
2,61,121,1
2,65,127,3
2,67,0,8
2,61,0,97
2,63,127,6
2,60,127,0
2,65,0,1
2,60,0,200
2,67,127,5
2,61,127,1
2,65,127,0
2,63,0,0
2,67,0,8
2,68,127,111
2,63,127,1
2,61,0,0
2,65,0,2
2,68,0,225
2,63,0,4
3,56,127,2369
3,56,0,18
3,60,127,12
3,60,0,23
3,63,127,7
3,63,0,22
3,65,127,8
3,65,0,25
3,63,127,5
3,63,0,16
3,63,127,14
3,63,0,20
3,60,127,10
3,60,0,18
3,63,127,12
3,63,0,48
3,63,127,12
3,63,0,22
3,65,127,8
3,65,0,47
3,63,127,13
3,63,0,18
3,63,127,12
3,63,0,25
3,61,127,5
3,61,0,17
3,61,127,13
3,61,0,16
3,56,127,14
3,56,0,16
3,60,127,14
3,60,0,198
3,60,127,12
3,60,0,20
3,63,127,10
3,63,0,21
3,65,127,9
3,65,0,48
3,65,127,12
3,65,0,16
3,65,127,14
3,65,0,16
3,65,127,14
3,65,0,93
3,65,127,27
3,65,0,45
3,63,127,15
3,63,0,16
3,63,127,14
3,63,0,23
3,60,127,7
3,60,0,17
3,63,127,13
3,63,0,82
3,65,127,8
3,65,0,41
3,63,127,19
3,63,0,16
3,63,127,14
3,63,0,25
3,61,127,5
3,61,0,20
3,61,127,10
3,61,0,22
3,60,127,8
3,60,0,15
3,60,127,15
3,60,0,55
3,58,127,5
3,58,0,193
3,65,127,47
3,65,0,20
3,65,127,10
3,65,0,20
3,65,127,10
3,65,0,16
3,65,127,14
3,65,0,111
3,68,127,9
3,68,0,47
3,67,127,13
3,67,0,28
3,65,127,2
3,65,0,22
3,67,127,8
3,65,62,90
3,67,0,2
3,65,0,13
3,65,127,15
3,65,0,15
3,65,127,15
3,65,0,43
3,65,127,17
3,65,0,20
3,68,127,10
3,68,0,46
3,68,127,14
3,68,0,52
3,68,127,8
3,68,0,366
3,68,127,24
3,68,0,21
3,68,127,9
3,68,0,16
3,68,127,14
3,68,0,51
3,65,127,9
3,63,127,30
3,65,0,2
3,63,0,100
3,56,127,18
3,56,0,21
3,60,127,9
3,60,0,21
3,63,127,9
3,63,0,25
3,65,127,5
3,65,0,23
3,63,127,7
3,63,0,17
3,63,127,13
3,63,0,110
3,65,127,10
3,65,0,16
3,65,127,14
3,65,0,47
3,63,127,13
3,63,0,41
3,63,127,19
3,63,0,48
3,60,127,12
3,60,0,37
3,65,127,23
3,65,0,36
3,63,127,24
3,63,0,42
3,63,127,18
3,63,0,48
3,68,127,12
3,68,0,42
3,68,127,18
3,68,0,22
3,65,127,8
3,65,0,56
3,63,127,4
3,63,0,130
3,63,127,20
3,63,0,20
3,65,127,10
3,65,0,25
3,63,127,5
3,63,0,15
3,63,127,15
3,63,0,108
3,65,127,72
3,65,0,71
3,67,127,19
3,67,0,76
3,68,127,14
3,68,0,58
3,68,127,2
3,68,0,52
3,67,127,8
3,67,0,55
3,65,127,5
3,65,0,50
3,63,127,10
3,63,0,48
3,63,127,12
3,58,127,30
3,63,0,0
3,58,0,21
3,60,127,9
3,60,0,87
3,56,127,3
3,56,0,21
3,60,127,9
3,60,0,23
3,63,127,7
3,63,0,22
3,65,127,8
3,65,0,27
3,63,127,3
3,63,0,20
3,63,127,10
3,63,0,27
3,60,127,3
3,60,0,28
3,63,127,2
3,63,0,47
3,63,127,13
3,63,0,22
3,65,127,8
3,65,0,51
3,63,127,9
3,63,0,18
3,63,127,12
3,63,0,25
3,61,127,5
3,61,0,15
3,61,127,15
3,61,0,22
3,56,127,8
3,56,0,22
3,60,127,8
3,60,0,191
3,60,116,19
3,60,0,20
3,63,127,10
3,63,0,17
3,65,127,13
3,65,0,47
3,65,127,13
3,65,0,15
3,65,127,15
3,65,0,15
3,65,127,15
3,65,0,77
3,65,127,13
3,65,0,15
3,65,127,15
3,65,0,55
3,63,127,5
3,63,0,20
3,63,127,10
3,63,0,22
3,60,116,8
3,60,0,15
3,63,127,15
3,63,0,27
3,63,126,3
3,63,0,16
3,63,127,14
3,63,0,20
3,65,127,10
3,65,0,55
3,63,127,5
3,63,0,18
3,63,127,12
3,63,0,26
3,61,127,4
3,61,0,17
3,61,120,13
3,61,0,25
3,60,127,5
3,60,0,15
3,60,127,15
3,60,0,51
3,58,127,9
3,58,0,136
3,65,127,104
3,65,0,26
3,65,127,4
3,65,0,15
3,65,127,15
3,65,0,16
3,65,127,14
3,65,0,106
3,65,106,14
3,65,0,21
3,68,127,9
3,68,0,26
3,67,127,4
3,67,0,28
3,65,127,2
3,65,0,16
3,67,127,14
3,67,0,58
3,65,112,2
3,65,0,53
3,65,127,7
3,65,0,15
3,65,127,15
3,65,0,42
3,65,120,18
3,65,0,21
3,68,127,9
3,68,0,43
3,68,127,17
3,68,0,47
3,68,127,13
3,68,0,257
3,68,127,133
3,68,0,23
3,68,127,7
3,68,0,16
3,68,127,14
3,68,0,38
3,65,127,22
3,63,127,30
3,65,0,0
3,63,0,112
3,56,127,8
3,56,0,21
3,60,127,9
3,60,0,22
