track,note,velocity,time
0,57,69,461
0,62,69,0
0,66,69,0
0,38,105,0
0,62,104,0
0,74,104,0
0,36,119,0
0,49,107,0
0,74,59,3
0,57,106,1
0,62,106,0
0,66,106,0
0,62,40,4
0,74,50,0
0,42,74,18
0,62,115,37
0,74,115,0
0,44,72,0
0,42,76,13
0,36,119,37
0,38,122,0
0,44,72,0
0,62,101,37
0,74,101,0
0,42,62,0
0,38,102,21
0,44,70,0
0,42,70,37
0,38,105,26
0,62,113,0
0,74,113,0
0,36,119,0
0,42,94,0
0,42,74,19
0,44,64,37
0,63,85,0
0,62,96,37
0,74,96,0
0,42,64,0
0,63,57,0
0,36,119,21
0,38,122,0
0,44,66,0
0,42,62,37
0,63,78,0
0,62,107,37
0,74,107,0
0,46,94,0
0,62,115,16
0,74,115,0
0,38,105,13
0,62,104,0
0,74,104,0
0,36,119,0
0,42,92,0
0,42,74,17
0,62,115,10
0,74,115,0
0,44,72,0
0,42,76,14
0,36,119,37
0,38,120,0
0,44,72,0
0,62,101,0
0,74,101,0
0,36,102,0
0,42,62,0
0,38,95,22
0,44,70,0
0,42,70,37
0,38,105,20
0,62,113,0
0,74,113,0
0,36,119,0
0,42,94,0
0,81,69,1
0,62,106,1
0,66,106,0
0,69,106,1
0,69,40,1
0,81,50,0
0,42,74,24
0,44,64,37
0,62,96,37
0,74,96,0
0,42,64,0
0,78,60,11
0,36,119,0
0,38,119,0
0,44,66,0
0,57,106,1
0,62,106,0
0,66,106,0
0,66,40,3
0,78,50,0
0,42,62,33
0,62,107,7
0,74,107,0
0,46,94,0
0,62,115,2
0,74,115,0
0,42,92,0
0,59,69,7
0,62,69,0
0,67,69,0
0,38,105,0
0,62,104,0
0,74,104,0
0,36,119,0
0,42,92,0
0,74,51,2
0,59,106,1
0,62,106,0
0,67,106,0
0,62,40,2
0,74,50,0
0,42,74,17
0,62,115,37
0,74,115,0
0,44,72,0
0,42,76,25
0,36,119,37
0,38,120,0
0,44,72,0
0,62,101,37
0,74,101,0
0,42,62,0
0,38,96,22
0,44,70,0
0,42,70,37
0,38,105,26
0,62,113,0
0,74,113,0
0,36,119,0
0,42,94,0
0,42,74,26
0,44,64,37
0,63,85,0
0,62,96,37
0,74,96,0
0,42,64,0
0,63,57,0
0,36,119,25
0,38,120,0
0,44,66,0
0,42,62,37
0,63,78,0
0,62,107,37
0,74,107,0
0,46,94,0
0,62,115,21
0,74,115,0
0,38,105,17
0,62,104,0
0,74,104,0
0,36,119,0
0,42,92,0
0,42,74,16
0,62,115,11
0,74,115,0
0,44,72,0
0,42,76,26
0,36,119,37
0,38,119,0
0,44,72,0
0,62,101,37
0,74,101,0
0,36,102,0
0,42,62,0
0,38,95,22
0,44,70,0
0,42,70,37
0,38,105,26
0,62,113,0
0,74,113,0
0,36,119,0
0,42,94,0
0,42,74,26
0,44,64,37
0,62,96,0
0,74,96,0
0,42,64,0
0,36,119,26
0,38,120,0
0,44,66,0
0,42,62,35
0,62,107,37
0,74,107,0
0,46,94,0
0,62,115,15
0,74,115,0
0,42,92,0
0,57,69,6
0,62,69,1
0,66,69,0
0,38,105,0
0,62,104,0
0,74,104,0
0,74,59,0
0,36,119,0
0,49,107,0
0,57,106,3
0,62,106,0
0,66,106,0
0,62,40,3
0,74,50,0
0,42,74,17
0,62,115,37
0,74,115,0
0,44,72,0
0,42,76,13
0,36,119,37
0,38,122,0
0,44,72,0
0,62,101,37
0,74,101,0
0,42,62,0
0,38,102,21
0,44,70,0
0,42,70,37
0,38,105,26
0,62,113,0
0,74,113,0
0,36,119,0
0,42,94,0
0,42,74,19
0,44,64,37
0,63,85,0
0,62,96,37
0,74,96,0
0,42,64,0
0,63,57,0
0,36,119,21
0,38,122,0
0,44,66,0
0,42,62,37
0,63,78,0
0,62,107,37
0,74,107,0
0,46,94,0
0,62,115,15
0,74,115,0
0,38,105,13
0,62,104,0
0,74,104,0
0,36,119,0
0,42,92,0
0,42,74,16
0,62,115,11
0,74,115,0
0,44,72,0
0,42,76,14
0,36,119,37
0,38,120,0
0,44,72,0
0,62,101,3
0,74,101,0
0,36,102,0
0,42,62,0
0,38,95,21
0,44,70,0
0,42,70,37
0,81,69,1
0,38,105,2
0,62,113,0
0,74,113,0
0,36,119,0
0,42,94,0
0,62,106,2
0,66,106,0
0,69,106,0
0,69,40,2
0,81,50,0
0,42,74,24
0,44,64,37
0,62,96,3
0,74,96,0
0,42,64,0
0,78,60,1
0,36,119,3
0,38,119,0
0,44,66,0
0,57,106,1
0,62,106,0
0,66,106,0
0,66,40,2
0,78,50,0
0,42,62,37
0,62,107,0
0,74,107,0
0,46,94,0
0,62,115,5
0,74,115,0
0,42,92,0
0,59,69,6
0,62,69,0
0,67,69,0
0,74,51,0
0,38,105,0
0,62,104,0
0,74,104,0
0,36,119,0
0,42,92,0
0,59,106,3
0,62,106,0
0,67,106,0
0,62,40,2
0,74,50,0
0,42,74,17
0,62,115,37
0,74,115,0
0,44,72,0
0,42,76,25
0,36,119,37
0,38,120,0
0,44,72,0
0,62,101,37
0,74,101,0
0,42,62,0
0,38,96,22
0,44,70,0
0,42,70,37
0,38,105,26
0,62,113,0
0,74,113,0
0,36,119,0
0,42,94,0
0,42,74,26
0,44,64,37
0,63,85,0
0,62,96,37
0,74,96,0
0,42,64,0
0,63,57,0
0,36,119,24
0,38,120,0
0,44,66,0
0,42,62,37
0,63,78,0
0,62,107,37
0,74,107,0
0,46,94,0
0,62,115,21
0,74,115,0
0,38,105,17
0,62,104,0
0,74,104,0
0,36,119,0
0,42,92,0
0,42,74,17
0,62,115,11
0,74,115,0
0,44,72,0
0,50,66,3
0,42,76,26
0,55,66,2
0,36,119,37
0,38,119,0
0,44,72,0
0,57,69,3
0,62,101,1
0,74,101,0
0,36,102,0
0,42,62,0
0,62,70,2
0,38,95,22
0,44,70,0
0,50,65,2
0,42,70,37
0,38,105,26
0,62,113,0
0,74,113,0
0,36,119,0
0,42,94,0
0,42,74,26
0,44,64,37
0,62,96,3
0,74,96,0
0,36,97,0
0,42,64,0
0,38,120,26
0,44,66,0
0,42,62,37
0,76,93,0
0,62,107,0
0,74,107,0
0,38,102,0
0,46,94,0
0,62,115,0
0,74,115,0
0,38,127,0
0,42,92,0
0,57,69,6
0,62,69,1
0,66,69,0
0,38,105,0
0,76,73,0
0,62,104,0
0,74,104,0
0,36,119,0
0,49,103,0
0,38,106,2
0,50,106,0
0,57,106,1
0,62,106,0
0,66,106,0
0,74,88,0
0,42,74,0
0,62,115,37
0,74,115,0
0,44,72,0
0,42,76,7
0,36,119,37
0,38,119,0
0,44,72,0
0,62,101,37
0,74,101,0
0,42,62,0
0,38,93,22
0,44,70,0
0,69,75,0
0,42,70,0
0,38,105,0
0,74,93,0
0,62,113,0
0,74,113,0
0,36,119,0
0,42,94,0
0,42,74,21
0,44,64,37
0,62,96,37
0,74,96,0
0,42,64,0
0,36,119,25
0,38,120,0
0,44,66,0
0,42,62,37
0,74,71,0
0,62,107,0
0,74,107,0
0,46,94,0
0,76,93,0
0,62,115,0
0,74,115,0
0,38,105,13
0,62,104,0
0,74,104,0
0,36,119,0
0,42,92,0
0,78,93,0
0,42,74,0
0,62,115,37
0,74,115,0
0,44,72,0
0,42,76,22
0,36,119,37
0,38,120,0
0,44,72,0
0,62,101,37
0,74,101,0
0,36,102,0
0,42,62,0
0,38,90,17
0,44,70,0
0,42,70,37
0,38,105,5
0,62,113,0
0,74,113,0
0,36,119,0
0,42,94,0
0,42,74,24
0,44,64,37
0,62,96,37
0,74,96,0
0,42,64,0
0,57,92,1
0,81,82,0
0,36,119,0
0,38,119,0
0,44,66,0
0,57,106,1
0,69,106,0
0,64,92,0
0,78,93,0
0,42,62,0
0,62,107,19
0,74,107,0
0,46,94,0
0,62,115,14
0,74,115,0
0,42,92,0
0,59,69,6
0,62,69,1
0,67,69,0
0,43,105,0
0,74,93,0
0,62,104,0
0,74,104,0
0,36,119,0
0,42,92,0
0,43,106,2
0,55,106,1
0,59,106,0
0,62,106,0
0,67,106,1
0,42,74,17
0,62,115,37
0,74,115,0
0,44,72,0
0,42,76,0
0,36,119,37
0,38,119,0
0,44,72,0
0,62,101,37
0,74,101,0
0,42,62,0
0,43,90,22
0,44,70,0
0,42,70,37
0,43,105,26
0,62,113,0
0,74,113,0
0,36,119,0
0,42,94,0
0,42,74,18
0,44,64,37
0,63,85,0
0,62,96,37
0,74,96,0
0,42,64,0
0,63,57,0
0,36,119,25
0,38,120,0
0,44,66,0
0,42,62,37
0,63,78,0
0,62,107,37
0,74,107,0
0,46,94,0
0,62,115,25
0,74,115,0
0,43,105,21
0,62,104,0
0,74,104,0
0,36,119,0
0,42,92,0
0,42,74,16
0,62,115,37
0,74,115,0
0,44,72,0
0,42,76,22
0,36,119,37
0,38,120,0
0,44,72,0
0,62,101,37
0,74,101,0
0,36,102,0
0,42,62,0
0,43,94,21
0,44,70,0
0,42,70,37
0,43,105,26
0,62,113,0
0,74,113,0
0,36,119,0
0,42,94,0
0,42,74,26
0,44,64,37
0,62,96,37
0,74,96,0
0,42,64,0
0,55,99,26
0,36,119,0
0,38,119,0
0,44,66,0
0,57,90,1
0,59,90,0
0,62,90,0
0,42,62,25
0,69,75,0
0,62,107,0
0,74,107,0
0,46,94,0
0,62,115,24
0,74,115,0
0,42,92,0
0,57,69,0
0,62,69,1
0,66,69,0
0,38,105,0
0,76,88,0
0,62,104,0
0,74,104,0
0,36,119,0
0,42,92,0
0,38,106,2
0,50,106,0
0,57,106,1
0,62,106,0
0,66,106,0
0,42,74,17
0,76,93,0
0,74,115,0
0,62,115,0
0,44,72,0
0,76,88,0
0,42,76,0
0,36,119,4
0,38,119,0
0,44,72,0
0,76,82,0
0,74,101,0
0,62,101,0
0,42,62,0
0,38,90,0
0,78,93,0
0,44,70,0
0,42,70,37
0,38,103,26
0,74,113,0
0,62,113,0
0,36,119,0
0,42,94,0
0,42,74,22
0,44,64,37
0,62,96,37
0,74,96,0
0,42,64,0
0,36,119,26
0,38,120,0
0,44,66,0
0,42,62,37
0,69,93,0
0,62,107,0
0,74,107,0
0,46,94,0
0,62,115,25
0,74,115,0
0,38,105,0
0,76,88,0
0,62,104,0
0,74,104,0
0,36,119,0
0,42,92,0
0,42,74,17
0,76,82,0
0,62,115,0
0,74,115,0
0,44,72,0
0,76,82,0
0,42,76,0
0,36,119,2
0,38,120,0
0,44,72,0
0,76,71,0
0,62,101,0
0,74,101,0
0,36,102,0
0,42,62,0
0,38,90,0
0,78,93,0
0,44,70,0
0,57,92,37
0,42,70,0
0,38,105,26
0,62,113,0
0,74,113,0
0,36,119,0
0,42,94,0
0,69,106,1
0,66,92,3
0,42,74,0
0,62,106,30
0,44,64,0
0,62,96,30
0,74,96,0
0,42,64,0
0,57,83,1
0,66,83,0
0,81,93,0
0,36,119,0
0,38,119,0
0,44,66,0
0,50,92,37
0,42,62,0
0,54,92,1
0,38,100,0
0,78,93,0
0,62,107,0
0,74,107,0
0,46,94,0
0,62,115,26
0,74,115,0
0,42,92,0
0,59,69,6
0,62,69,0
0,67,69,0
0,31,104,0
0,74,93,0
0,62,104,0
0,74,104,0
0,36,119,0
0,42,92,0
0,43,106,2
0,55,106,1
0,57,106,0
0,59,106,0
0,62,106,0
0,42,74,17
0,62,115,24
0,74,115,0
0,44,72,0
0,42,76,25
0,36,119,27
0,38,119,0
0,44,72,0
0,62,101,37
0,74,101,0
0,42,62,0
0,31,90,19
0,44,70,0
0,42,70,37
0,31,102,26
0,62,113,0
0,74,113,0
0,36,119,0
0,42,94,0
0,42,74,26
0,44,64,37
0,63,85,0
0,62,96,37
0,74,96,0
0,42,64,0
0,63,57,0
0,36,119,18
0,38,120,0
0,44,66,0
0,42,62,37
0,63,78,0
0,62,107,37
0,74,107,0
0,46,94,0
0,62,115,24
0,74,115,0
0,31,102,21
0,62,104,0
0,74,104,0
0,36,119,0
0,42,92,0
0,42,74,16
0,62,115,37
0,74,115,0
0,44,72,0
0,55,99,1
0,42,76,22
0,36,119,37
0,38,120,0
0,44,72,0
0,62,101,37
0,74,101,0
0,36,102,0
0,42,62,0
0,57,90,1
0,31,90,25
0,44,70,0
0,42,70,37
0,31,105,26
0,62,113,0
0,74,113,0
0,36,119,0
0,42,94,0
0,62,90,1
0,42,74,24
0,44,64,37
0,62,96,37
0,74,96,0
0,36,97,0
0,42,64,0
0,38,123,21
0,44,66,0
0,38,108,37
0,42,62,0
0,79,93,0
0,62,107,0
0,74,107,0
0,46,94,0
0,62,115,29
0,74,115,0
0,44,92,0
0,52,69,1
0,55,69,1
0,59,69,0
0,62,69,0
0,40,105,0
0,79,82,0
0,62,104,0
0,74,104,0
0,36,119,0
0,49,101,0
0,55,105,3
0,59,105,0
0,64,108,0
0,42,74,18
0,78,93,0
0,62,115,0
0,74,115,0
0,44,72,0
0,78,73,0
0,42,76,0
0,36,119,37
0,38,119,0
0,44,72,0
0,76,93,0
0,62,101,0
0,74,101,0
0,42,62,0
0,40,90,0
0,76,82,0
0,44,70,0
0,42,70,37
0,40,101,26
0,62,113,0
0,74,113,0
0,36,119,0
0,42,94,0
0,42,74,17
0,44,64,37
0,62,96,5
0,74,96,0
0,42,64,0
0,36,119,21
0,38,120,0
0,44,66,0
0,42,62,37
0,71,93,0
0,62,107,0
0,74,107,0
0,46,94,0
0,62,115,4
0,74,115,0
0,55,69,6
0,59,69,1
0,62,69,0
0,43,104,0
0,79,93,0
0,62,104,0
0,74,104,0
0,36,119,0
0,42,92,0
0,59,108,2
0,62,108,1
0,67,108,0
0,42,74,17
0,78,93,0
0,62,115,0
0,74,115,0
0,44,72,0
0,78,93,0
0,42,76,0
0,36,119,37
0,38,120,0
0,44,72,0
0,76,93,0
0,62,101,0
0,74,101,0
0,36,102,0
0,42,62,0
0,43,90,0
0,76,73,0
0,44,70,0
0,42,70,37
0,43,104,26
0,62,113,0
0,74,113,0
0,36,119,0
0,42,94,0
0,42,74,22
0,44,64,37
0,62,96,19
0,74,96,0
0,42,64,0
0,59,108,24
0,36,119,0
0,38,119,0
0,44,66,0
0,62,107,1
0,67,105,0
0,42,62,37
0,74,75,0
0,62,107,0
0,74,107,0
0,46,94,0
0,62,115,10
0,74,115,0
0,42,92,0
0,54,69,0
0,57,69,0
0,62,69,0
0,38,101,0
0,78,93,0
0,62,104,0
0,74,104,0
0,36,119,0
0,42,92,0
0,38,102,2
0,50,104,0
0,57,108,1
0,62,104,0
0,66,103,0
0,42,74,17
0,81,93,10
0,62,115,0
0,74,115,0
0,44,72,0
0,62,103,1
0,69,107,1
0,42,76,25
0,36,119,16
0,38,119,0
0,44,72,0
0,62,101,37
0,74,101,0
0,42,62,0
0,66,99,1
0,38,90,22
0,44,70,0
0,42,70,37
0,38,100,26
0,62,113,0
0,74,113,0
0,36,119,0
0,42,94,0
0,62,90,1
0,42,74,24
0,44,64,19
0,63,85,0
0,62,96,37
0,74,96,0
0,42,64,0
0,63,57,0
0,36,119,25
0,38,120,0
0,44,66,0
0,42,62,37
0,63,78,0
0,62,107,26
0,74,107,0
0,46,94,0
0,62,115,21
0,74,115,0
0,38,102,17
0,62,104,0
0,74,104,0
0,36,119,0
0,42,92,0
0,38,103,2
0,50,104,0
0,42,74,17
0,62,115,24
0,74,115,0
0,44,72,0
0,57,105,1
0,62,90,2
0,69,90,0
0,42,76,26
0,36,119,37
0,38,120,0
0,44,72,0
0,62,101,37
0,74,101,0
0,36,102,0
0,42,62,0
0,66,99,1
0,38,90,2
0,44,70,0
0,42,70,37
0,38,102,26
0,62,113,0
0,74,113,0
0,36,119,0
0,42,94,0
0,62,90,2
0,42,74,15
0,44,64,37
0,62,96,37
0,74,96,0
0,42,64,0
0,36,119,26
0,38,119,0
0,44,66,0
0,42,62,29
0,78,93,0
0,62,107,0
0,74,107,0
0,46,94,0
0,62,115,5
0,74,115,0
0,42,92,0
0,55,69,5
0,59,69,1
