track,note,velocity,time
1,31,92,3516
1,31,0,222
1,31,85,66
1,31,0,25
1,31,90,71
1,31,0,287
1,31,72,1
1,31,0,10
1,31,90,86
1,31,0,229
1,31,84,59
1,31,0,25
1,31,90,71
1,31,0,319
1,31,92,65
1,31,0,223
1,31,85,65
1,31,0,25
1,31,89,71
1,31,0,335
1,31,90,49
1,31,0,230
1,31,84,58
1,31,0,25
1,31,90,71
1,31,0,287
1,31,77,1
1,31,0,10
1,31,93,86
1,31,0,222
1,31,86,66
1,31,0,25
1,31,91,71
1,31,0,318
1,31,91,66
1,31,0,229
1,31,85,59
1,31,0,25
1,31,91,71
1,31,0,282
1,31,76,6
1,31,0,10
1,38,93,86
1,38,0,223
1,38,86,65
1,38,0,25
1,38,90,71
1,38,0,335
1,38,91,49
1,38,0,230
1,38,85,58
1,38,0,25
1,38,91,71
1,38,0,319
1,36,93,65
1,36,0,222
1,36,86,66
1,36,0,25
1,36,91,71
1,36,0,320
1,31,91,64
1,31,0,229
1,31,85,59
1,31,0,25
1,31,91,71
1,31,0,282
1,31,76,6
1,31,0,10
1,38,93,86
1,38,0,223
1,38,86,65
1,38,0,25
1,38,90,71
1,38,0,335
1,38,91,49
1,38,0,230
1,38,85,58
1,38,0,25
1,38,91,71
1,38,0,287
1,31,78,1
1,31,0,10
1,31,94,86
1,31,0,222
1,31,87,66
1,31,0,25
1,31,92,71
1,31,0,318
1,31,92,66
1,31,0,229
1,31,86,59
1,31,0,25
1,31,92,71
1,31,0,282
1,31,77,6
1,31,0,10
1,38,94,86
1,38,0,223
1,38,87,65
1,38,0,25
1,38,91,71
1,38,0,335
1,38,92,49
1,38,0,230
1,38,86,58
1,38,0,25
1,38,92,71
1,38,0,319
1,36,94,65
1,36,0,222
1,36,87,66
1,36,0,25
1,36,92,71
1,36,0,320
1,31,92,64
1,31,0,229
1,31,86,59
1,31,0,25
1,31,92,71
1,31,0,282
1,31,77,6
1,31,0,10
1,38,94,86
1,38,0,223
1,38,87,65
1,38,0,25
1,38,91,71
1,38,0,335
1,38,92,49
1,38,0,230
1,38,86,58
1,38,0,25
1,38,92,71
1,38,0,287
1,31,79,1
1,31,0,10
1,28,95,86
1,28,0,222
1,28,88,66
1,28,0,25
1,28,93,71
1,28,0,318
1,30,93,66
1,30,0,229
1,30,88,59
1,30,0,25
1,30,94,71
1,30,0,282
1,30,79,6
1,30,0,10
1,31,94,86
1,31,0,229
1,31,89,59
1,31,0,25
1,31,93,71
1,31,0,73
1,31,95,23
1,31,0,138
1,31,80,54
1,31,0,10
1,33,95,86
1,33,0,229
1,33,89,59
1,33,0,25
1,33,96,71
1,33,0,282
1,33,81,6
1,33,0,10
1,35,98,86
1,35,0,222
1,35,91,66
1,35,0,25
1,35,94,71
1,35,0,74
1,35,96,22
1,35,0,159
1,35,82,33
1,35,0,10
1,36,95,86
1,36,0,74
1,36,97,22
1,36,0,167
1,36,91,25
1,36,0,25
1,36,95,71
1,36,0,74
1,36,97,22
1,36,0,165
1,36,83,27
1,36,0,10
1,37,96,86
1,37,0,74
1,37,98,22
1,37,0,167
1,37,92,25
1,37,0,25
1,37,96,71
1,37,0,74
1,37,98,22
1,37,0,165
1,37,83,27
1,37,0,10
1,38,104,86
1,38,0,222
1,38,97,66
1,38,0,25
1,38,102,71
1,38,0,282
1,38,87,6
1,38,0,10
1,38,102,86
1,38,0,229
1,38,96,59
1,38,0,25
1,38,102,71
1,38,0,319
1,38,100,65
1,38,0,73
1,38,102,23
1,38,0,138
1,38,87,54
1,38,0,25
1,38,102,71
1,38,0,319
1,38,100,65
1,38,0,73
1,38,102,23
1,38,0,138
1,38,91,54
1,38,0,25
1,38,100,71
1,38,0,73
1,38,102,23
1,38,0,138
1,38,87,54
1,38,0,10
1,38,104,86
1,38,0,222
1,38,97,66
1,38,0,25
1,38,102,71
1,38,0,282
1,38,87,6
1,38,0,10
1,38,100,86
1,38,0,73
1,38,102,23
1,38,0,138
1,38,87,54
1,38,0,25
1,38,102,71
1,38,0,319
1,38,102,65
1,38,0,229
1,38,96,59
1,38,0,25
1,38,102,71
1,38,0,319
1,38,100,65
1,38,0,73
1,38,102,23
1,38,0,138
1,36,89,54
1,36,0,68
1,36,100,28
1,36,0,73
1,38,96,23
1,38,0,76
1,38,98,20
1,38,0,125
1,31,94,67
1,31,0,222
1,31,87,66
1,31,0,25
1,31,92,71
1,31,0,318
1,31,92,66
1,31,0,229
1,31,86,59
1,31,0,25
1,31,92,71
1,31,0,282
1,31,77,6
1,31,0,10
1,38,94,86
1,38,0,223
1,38,87,65
1,38,0,25
1,38,91,71
1,38,0,335
1,38,92,49
1,38,0,230
1,38,86,58
1,38,0,25
1,38,92,71
1,38,0,319
1,36,94,65
1,36,0,222
1,36,87,66
1,36,0,25
1,36,92,71
1,36,0,320
1,31,92,64
1,31,0,229
1,31,86,59
1,31,0,25
1,31,92,71
1,31,0,282
1,31,77,6
1,31,0,10
1,38,94,86
1,38,0,223
1,38,87,65
1,38,0,25
1,38,91,71
1,38,0,335
1,38,92,49
1,38,0,230
1,38,86,58
1,38,0,25
1,38,92,71
1,38,0,287
1,31,79,1
1,31,0,10
1,28,95,86
1,28,0,222
1,28,88,66
1,28,0,25
1,28,93,71
1,28,0,318
1,30,93,66
1,30,0,229
1,30,88,59
1,30,0,25
1,30,94,71
1,30,0,282
1,30,79,6
1,30,0,10
1,31,94,86
1,31,0,229
1,31,89,59
1,31,0,25
1,31,93,71
1,31,0,73
1,31,95,23
1,31,0,138
1,31,80,54
1,31,0,10
1,33,95,86
1,33,0,229
1,33,89,59
1,33,0,25
1,33,96,71
1,33,0,282
1,33,81,6
1,33,0,10
1,35,98,86
1,35,0,222
1,35,91,66
1,35,0,25
1,35,94,71
1,35,0,74
1,35,96,22
1,35,0,159
1,35,82,33
1,35,0,10
1,36,95,86
1,36,0,74
1,36,97,22
1,36,0,167
1,36,91,25
1,36,0,25
1,36,95,71
1,36,0,74
1,36,97,22
1,36,0,165
1,36,83,27
1,36,0,10
1,37,96,86
1,37,0,74
1,37,98,22
1,37,0,167
1,37,92,25
1,37,0,25
1,37,96,71
1,37,0,74
1,37,98,22
1,37,0,165
1,37,83,27
1,37,0,10
1,38,104,86
1,38,0,222
1,38,97,66
1,38,0,25
1,38,102,71
1,38,0,282
1,38,87,6
1,38,0,10
1,38,100,86
1,38,0,73
1,38,102,23
1,38,0,138
1,38,87,54
1,38,0,25
1,38,102,71
1,38,0,319
1,38,102,65
1,38,0,229
1,38,96,59
1,38,0,25
1,38,100,71
1,38,0,73
1,38,102,23
1,38,0,138
1,38,87,54
1,38,0,10
1,38,100,86
1,38,0,73
1,38,102,23
1,38,0,138
1,38,91,54
1,38,0,25
1,38,100,71
1,38,0,73
1,38,102,23
1,38,0,138
1,38,87,54
1,38,0,10
1,36,100,86
1,36,0,222
1,36,93,66
1,36,0,25
1,36,98,71
1,36,0,224
1,36,93,64
1,36,0,25
1,31,98,71
1,31,0,229
1,31,92,59
1,31,0,25
1,31,98,71
1,31,0,282
1,31,83,6
1,31,0,10
1,38,100,86
1,38,0,223
1,38,93,65
1,38,0,25
1,38,97,71
1,38,0,276
1,38,93,12
1,38,0,25
1,38,96,71
1,38,0,73
1,38,98,23
1,38,0,138
1,38,87,54
1,38,0,25
1,38,96,71
1,38,0,73
1,38,98,23
1,38,0,138
1,38,83,54
1,38,0,10
1,33,104,86
1,33,0,222
1,33,97,66
1,33,0,25
1,33,102,71
1,33,0,282
1,33,87,6
1,33,0,10
1,33,102,86
1,33,0,229
1,33,96,59
1,33,0,25
1,33,102,71
1,33,0,319
1,28,104,65
1,28,0,222
1,28,97,66
1,28,0,25
1,28,102,71
1,28,0,186
1,40,91,6
1,40,0,186
1,28,102,6
1,28,0,229
1,28,96,59
1,28,0,25
1,28,102,71
1,28,0,127
1,28,87,17
1,28,0,9
1,28,96,39
1,28,0,20
1,28,96,76
1,28,0,95
1,33,104,1
1,33,0,222
1,33,97,66
1,33,0,25
1,33,102,71
1,33,0,282
1,33,87,6
1,33,0,10
1,33,102,86
1,33,0,229
1,33,96,59
1,33,0,25
1,33,102,71
1,33,0,281
1,33,87,7
1,33,0,23
1,28,104,73
1,28,0,222
1,28,97,66
1,28,0,25
1,28,104,71
1,28,0,222
1,28,97,66
1,28,0,25
1,28,102,71
1,28,0,229
1,28,96,59
1,28,0,25
1,28,102,71
1,28,0,127
1,28,87,17
1,28,0,9
1,28,96,39
1,28,0,20
1,28,96,76
1,28,0,95
1,38,101,1
1,38,0,222
1,38,94,66
1,38,0,25
1,38,99,71
1,38,0,224
1,38,94,64
1,38,0,25
1,33,99,71
1,33,0,229
1,33,93,59
1,33,0,25
1,33,99,71
1,33,0,282
1,33,84,6
1,33,0,10
1,40,101,86
1,40,0,223
1,40,94,65
1,40,0,25
1,40,98,71
1,40,0,276
1,40,94,12
1,40,0,25
1,38,101,71
1,38,0,223
1,38,94,65
1,38,0,25
1,38,98,71
1,38,0,276
1,38,94,12
1,38,0,25
1,28,95,71
1,28,0,222
1,28,88,66
1,28,0,25
1,28,93,71
1,28,0,318
1,30,93,66
1,30,0,229
1,30,88,59
1,30,0,25
1,30,94,71
1,30,0,282
1,30,79,6
1,30,0,10
1,31,94,86
1,31,0,229
1,31,89,59
1,31,0,25
1,31,93,71
1,31,0,73
1,31,95,23
1,31,0,138
1,31,80,54
1,31,0,10
1,33,95,86
1,33,0,229
1,33,89,59
1,33,0,25
1,33,96,71
1,33,0,282
1,33,81,6
1,33,0,10
1,35,98,86
1,35,0,222
1,35,91,66
1,35,0,25
1,35,94,71
1,35,0,74
1,35,96,22
1,35,0,159
1,35,82,33
1,35,0,10
1,36,95,86
1,36,0,74
1,36,97,22
1,36,0,167
1,36,91,25
1,36,0,25
1,36,95,71
1,36,0,74
1,36,97,22
1,36,0,165
1,36,83,27
1,36,0,10
1,37,96,86
1,37,0,74
1,37,98,22
1,37,0,167
1,37,92,25
1,37,0,25
1,37,96,71
1,37,0,74
1,37,98,22
1,37,0,165
1,37,83,27
1,37,0,10
1,38,104,86
1,38,0,222
1,38,97,66
1,38,0,25
1,38,102,71
1,38,0,282
1,38,87,6
1,38,0,10
1,38,100,86
1,38,0,73
1,38,102,23
1,38,0,138
1,38,87,54
1,38,0,25
1,38,102,71
1,38,0,319
1,38,102,65
1,38,0,229
1,38,96,59
1,38,0,25
1,38,100,71
1,38,0,73
1,38,102,23
1,38,0,138
1,38,87,54
1,38,0,10
1,38,100,86
1,38,0,73
1,38,102,23
1,38,0,138
1,38,91,54
1,38,0,25
1,38,100,71
1,38,0,73
1,38,102,23
1,38,0,138
1,38,87,54
1,38,0,10
1,40,105,86
1,40,0,222
1,40,98,66
1,40,0,25
1,40,103,71
1,40,0,282
1,40,88,6
1,40,0,10
1,40,103,86
1,40,0,229
1,40,97,59
1,40,0,25
1,40,103,71
1,40,0,319
1,40,101,65
1,40,0,73
1,40,103,23
1,40,0,138
1,40,88,54
1,40,0,25
1,40,103,71
1,40,0,319
1,40,101,65
1,40,0,73
1,40,103,23
1,40,0,138
1,40,92,54
1,40,0,25
1,40,101,71
1,40,0,73
1,40,103,23
1,40,0,138
1,40,88,54
1,40,0,10
1,40,105,86
1,40,0,222
1,40,98,66
1,40,0,25
1,40,103,71
1,40,0,282
1,40,88,6
1,40,0,10
1,40,101,86
1,40,0,73
1,40,103,23
1,40,0,138
1,40,88,54
1,40,0,25
1,40,103,71
1,40,0,319
1,40,103,65
1,40,0,229
1,40,97,59
1,40,0,25
1,40,103,71
1,40,0,319
1,40,101,65
1,40,0,73
1,40,103,23
1,40,0,138
1,40,92,54
1,40,0,25
1,40,101,71
1,40,0,73
1,40,103,23
1,40,0,138
1,40,88,54
1,40,0,10
1,38,103,86
1,38,0,222
1,38,96,66
1,38,0,25
1,38,101,71
1,38,0,224
1,38,96,64
1,38,0,25
1,33,101,71
1,33,0,229
1,33,95,59
1,33,0,25
1,33,101,71
1,33,0,282
1,33,86,6
1,33,0,10
1,40,99,86
1,40,0,71
1,40,95,25
1,40,0,35
1,40,99,13
1,40,0,85
1,30,96,443
1,30,0,318
1,30,89,66
1,30,0,25
1,30,94,71
1,30,0,318
1,32,94,66
1,32,0,229
1,32,90,59
1,32,0,25
1,32,96,71
1,32,0,282
1,32,81,6
1,32,0,10
1,33,96,86
1,33,0,229
1,33,92,59
1,33,0,25
1,33,96,71
1,33,0,73
1,33,98,23
1,33,0,138
1,33,83,54
1,33,0,10
1,35,98,86
1,35,0,229
1,35,92,59
1,35,0,25
1,35,100,71
1,35,0,282
1,35,85,6
1,35,0,10
1,37,102,86
1,37,0,222
1,37,95,66
1,37,0,25
1,37,98,71
1,37,0,74
1,37,100,22
1,37,0,159
1,37,87,33
1,37,0,10
1,38,100,86
1,38,0,74
1,38,102,22
1,38,0,167
1,38,96,25
1,38,0,25
1,38,100,71
1,38,0,74
1,38,102,22
1,38,0,165
1,38,89,27
1,38,0,10
1,39,102,86
1,39,0,74
1,39,104,22
1,39,0,167
1,39,98,25
1,39,0,25
1,39,102,71
1,39,0,74
1,39,104,22
1,39,0,165
1,39,89,27
1,39,0,10
1,40,105,86
1,40,0,222
1,40,98,66
1,40,0,46
1,40,98,50
1,40,0,13
1,28,97,1
1,28,0,186
1,40,101,6
1,40,0,73
1,40,103,23
1,40,0,138
1,40,87,54
1,40,0,46
1,40,104,50
1,40,0,22
1,28,100,1
1,28,0,187
1,40,106,5
1,40,0,222
1,40,99,66
1,40,0,46
1,40,99,50
1,40,0,13
1,28,99,1
1,28,0,186
1,40,103,6
1,40,0,73
1,40,105,23
1,40,0,138
1,40,88,54
1,40,0,46
1,40,105,50
1,40,0,22
1,28,102,1
1,28,0,187
1,40,108,5
1,40,0,222
1,40,101,66
1,40,0,46
1,40,101,50
1,40,0,13
1,28,100,1
1,28,0,186
1,40,104,6
1,40,0,73
1,40,107,23
1,40,0,138
1,40,90,54
1,40,0,46
1,40,107,50
1,40,0,22
1,28,103,1
1,28,0,187
1,40,109,5
1,40,0,222
1,40,103,66
1,40,0,46
1,40,103,50
1,40,0,13
1,28,102,1
1,28,0,186
1,40,106,6
1,40,0,73
1,40,108,23
1,40,0,79
1,40,102,17
1,40,0,66
1,40,108,30
1,40,0,84
2,50,37,3584
2,50,0,34
2,50,69,62
2,50,0,71
2,50,31,25
2,50,0,33
2,55,73,63
2,55,0,48
2,50,73,144
2,50,0,49
2,50,37,239
2,50,0,34
2,50,69,62
2,50,0,71
2,50,31,25
2,50,0,33
2,55,73,63
2,55,0,48
2,50,73,144
2,50,0,49
2,50,37,239
2,50,0,34
2,50,69,62
2,50,0,71
2,50,31,25
2,50,0,33
2,55,73,63
2,55,0,48
2,50,73,144
2,50,0,49
2,50,37,239
2,50,0,34
2,50,69,62
2,50,0,71
2,50,31,25
2,50,0,33
2,55,73,63
2,55,0,48
2,50,73,144
2,50,0,49
2,50,40,239
2,50,0,34
2,50,78,62
2,50,0,71
2,50,34,25
2,50,0,33
2,55,76,63
2,55,0,48
2,50,76,144
2,50,0,49
2,50,40,239
2,50,0,34
2,50,78,62
2,50,0,71
2,50,34,25
2,50,0,33
2,55,76,63
2,55,0,48
2,50,76,144
2,50,0,49
2,50,40,239
2,50,0,34
2,50,82,62
2,50,0,71
2,50,34,25
2,50,0,33
2,62,76,63
2,62,0,48
2,50,40,48
2,50,0,34
2,50,76,62
2,50,0,49
2,50,34,47
2,50,0,33
2,50,40,159
2,50,0,34
2,50,72,62
2,50,0,71
2,50,34,25
2,50,0,33
2,62,76,63
2,62,0,48
2,50,40,48
2,50,0,34
2,57,76,62
2,57,0,49
2,50,34,47
2,50,0,33
2,48,40,159
2,48,0,34
2,48,82,62
2,48,0,71
2,48,34,25
2,48,0,33
2,60,76,63
2,60,0,48
2,48,40,48
2,48,0,34
2,48,76,62
2,48,0,49
2,48,34,47
2,48,0,33
2,50,40,159
2,50,0,34
