track,note,velocity,time
2,46,64,12510
2,46,0,756
2,45,64,12
2,45,0,756
2,43,64,12
2,43,0,756
2,42,64,12
2,42,0,756
2,39,64,12
2,39,0,756
2,38,64,12
2,38,0,756
2,36,64,12
2,36,0,756
2,41,64,12
2,41,0,756
2,39,65,12
2,39,0,750
2,38,52,18
2,38,0,760
2,41,62,8
2,41,0,139
2,38,89,4
2,38,0,371
2,39,80,13
2,38,81,768
2,39,0,4
2,38,0,753
2,41,76,11
2,29,90,576
2,41,0,22
2,29,0,68
2,41,90,6
2,41,0,463
2,48,67,30
2,48,0,570
2,50,76,6
2,50,0,184
2,51,76,8
2,51,0,760
2,36,95,8
2,36,0,570
2,38,90,6
2,38,0,180
2,39,84,12
2,39,0,760
2,36,75,8
2,36,0,640
2,41,75,32
2,41,0,856
2,46,65,8
2,46,0,560
2,41,90,4
2,41,0,154
2,46,85,8
2,46,0,740
2,48,67,28
2,48,0,560
2,50,76,16
2,50,0,180
2,51,76,12
2,51,0,760
2,36,70,8
2,38,87,576
2,36,0,4
2,39,84,188
2,38,0,20
2,36,82,748
2,39,0,4
2,41,87,668
2,36,0,16
2,41,0,814
2,43,76,4
2,43,0,360
2,36,105,24
2,36,0,760
2,35,105,8
2,35,0,760
2,33,105,8
2,33,0,760
2,32,105,8
2,32,0,760
2,29,105,8
2,29,0,760
2,31,105,8
2,31,0,760
2,38,105,8
2,38,0,760
2,31,105,8
2,31,0,760
2,41,93,8
2,41,0,633
2,41,87,24
2,43,102,116
2,41,0,1
2,43,0,600
2,43,90,43
2,43,0,99
2,31,112,10
2,31,0,535
2,31,101,41
2,31,0,163
2,31,122,35
2,31,0,324
2,28,127,60
2,28,0,376
2,29,119,6
2,29,0,756
2,31,112,10
2,31,0,380
2,43,91,18
2,43,0,368
2,31,114,4
2,31,0,564
2,31,116,24
2,31,0,152
2,31,110,34
2,31,0,760
2,38,95,10
2,38,0,548
2,28,126,30
2,28,0,178
2,29,127,12
2,29,0,758
2,26,127,8
2,26,0,558
2,40,100,18
2,40,0,190
2,41,100,4
2,41,0,760
2,38,74,9
2,38,0,549
2,41,95,22
2,41,0,88
2,43,103,0
2,31,115,493
2,43,0,3
2,31,0,366
2,36,106,8
2,36,0,474
2,41,110,10
2,41,0,280
2,36,109,8
2,36,0,758
2,38,95,12
2,38,0,548
2,28,127,30
2,28,0,178
2,29,127,11
2,29,0,759
2,26,112,8
2,26,0,558
2,40,95,18
2,40,0,190
2,41,95,2
2,41,0,760
2,38,84,8
2,38,0,569
2,41,85,6
2,41,0,81
2,38,83,16
2,31,98,96
2,38,0,4
2,31,0,756
2,36,64,8
2,36,0,760
2,35,64,8
2,35,0,760
2,33,64,8
2,33,0,760
2,31,64,8
2,31,0,760
2,29,64,8
2,29,0,760
2,28,64,8
2,28,0,760
2,26,64,8
2,26,0,760
2,31,64,8
2,31,0,760
2,36,64,8
2,36,0,760
3,43,70,42844
3,45,70,20
3,43,0,16
3,47,70,4
3,45,0,16
3,48,70,3
3,47,0,16
3,50,70,5
3,48,0,16
3,52,70,3
3,50,0,16
3,53,70,5
3,52,0,16
3,55,70,3
3,53,0,16
3,57,70,5
3,55,0,16
3,59,70,4
3,57,0,16
3,60,70,4
3,59,0,16
3,62,70,3
3,60,0,16
3,64,70,5
3,62,0,16
3,65,70,3
3,64,0,16
3,67,70,5
3,65,0,16
3,69,70,3
3,67,0,17
3,71,70,4
3,69,0,16
3,72,70,4
3,71,0,16
3,72,0,4
3,74,70,0
3,74,0,24
3,76,60,0
3,76,0,760
3,79,50,8
3,79,0,760
3,72,50,8
3,72,0,760
3,71,55,8
3,71,0,760
3,72,58,8
3,72,0,760
3,76,50,8
3,76,0,760
3,69,62,8
3,69,0,760
3,77,50,8
3,77,0,379
3,79,50,5
3,79,0,380
3,65,56,4
3,65,0,753
3,64,70,15
3,64,0,760
3,62,65,8
3,62,0,122
3,64,72,46
3,64,0,374
3,65,60,10
3,65,0,738
3,64,70,30
3,64,0,760
3,62,65,8
3,62,0,162
3,59,75,28
3,59,0,80
3,57,75,16
3,57,0,80
3,55,75,16
3,55,0,80
3,57,71,16
3,57,0,660
3,60,54,12
3,60,0,912
3,57,69,48
3,57,0,570
3,60,54,6
3,60,0,912
3,53,65,48
3,53,0,666
3,67,68,6
3,67,0,840
3,48,67,24
3,53,77,480
3,48,0,2
3,48,75,286
3,53,0,16
3,48,0,360
3,69,65,8
3,69,0,80
3,69,69,16
3,69,0,80
3,67,71,16
3,67,0,80
3,69,71,16
3,69,0,660
3,72,54,12
3,72,0,912
3,57,69,48
3,57,0,570
3,72,54,6
3,72,0,912
3,53,65,48
3,55,68,672
3,53,0,6
3,55,0,834
4,62,69,6619
4,62,0,57
4,62,69,22
4,62,0,44
4,62,69,26
4,62,0,64
4,62,69,28
4,62,0,62
4,62,69,28
4,62,0,70
4,62,69,24
4,62,0,106
4,60,69,8
4,60,0,194
4,60,69,36
4,60,0,30
4,60,69,32
4,60,0,38
4,60,69,24
4,60,0,72
4,60,69,32
4,60,0,56
4,60,69,32
4,60,0,54
4,60,69,32
4,60,0,104
4,58,69,42
4,58,0,192
4,58,69,30
4,58,0,36
4,58,69,16
4,58,0,36
4,58,69,22
4,58,0,76
4,58,69,20
4,58,0,60
4,58,69,22
4,58,0,64
4,58,69,26
4,58,0,104
4,57,69,12
4,57,0,244
4,57,69,40
4,57,0,24
4,57,69,28
4,57,0,26
4,57,69,28
4,57,0,98
4,62,69,8
4,62,0,104
4,57,69,2
4,57,0,84
4,57,69,28
4,57,0,128
4,55,69,14
4,55,0,160
4,55,69,32
4,55,0,28
4,55,69,22
4,55,0,28
4,55,69,24
4,55,0,88
4,55,69,12
4,55,0,62
4,55,69,24
4,55,0,100
4,58,69,8
4,58,0,98
4,53,60,12
4,53,0,231
4,65,69,40
4,65,0,33
4,65,69,16
4,65,0,30
4,65,69,12
4,70,69,106
4,65,0,2
4,70,0,76
4,65,69,12
4,65,0,90
4,64,69,12
4,64,0,148
4,64,69,26
4,64,0,162
4,64,69,38
4,64,0,36
4,64,69,20
4,64,0,36
4,64,69,22
4,64,0,69
4,64,69,25
4,64,0,60
4,64,69,36
4,64,0,90
4,63,69,14
4,63,0,130
4,63,69,24
4,63,0,178
4,63,69,20
4,63,0,34
4,63,69,17
4,63,0,57
4,65,69,12
4,63,63,192
4,65,0,2
4,63,0,158
4,62,74,292
4,62,0,56
4,62,74,22
4,62,0,44
4,62,74,26
4,62,0,64
4,62,74,28
4,62,0,62
4,62,74,28
4,62,0,69
4,65,80,24
4,65,0,111
4,60,74,12
4,60,0,194
4,60,74,36
4,60,0,29
4,60,74,33
4,60,0,38
4,60,74,24
4,60,0,72
4,65,74,32
4,65,0,56
4,60,74,32
4,60,0,54
4,60,74,32
4,60,0,104
4,58,74,34
4,58,0,192
4,58,74,30
4,58,0,28
4,58,74,24
4,58,0,34
4,58,74,24
4,58,0,76
4,58,74,20
4,58,0,60
4,58,74,22
4,58,0,64
4,62,74,26
4,62,0,80
4,57,74,44
4,57,0,244
4,57,74,32
4,57,0,24
4,57,74,28
4,57,0,26
4,57,74,28
4,57,0,98
4,62,74,8
4,62,0,26
4,57,70,2
4,57,0,92
4,57,74,20
4,57,0,94
4,55,74,16
4,55,0,140
4,55,74,38
4,55,0,28
4,55,74,20
4,55,0,28
4,55,74,20
4,55,0,88
4,55,74,8
4,55,0,62
4,55,74,34
4,55,0,88
4,58,74,8
4,58,0,98
4,53,65,4
4,53,0,232
4,65,74,40
4,65,0,32
4,65,74,16
4,65,0,30
4,65,74,12
4,65,0,96
4,70,74,10
4,70,0,78
4,65,74,12
4,65,0,90
4,64,74,12
4,64,0,147
4,64,74,27
4,64,0,162
4,64,74,38
4,64,0,36
4,64,74,20
4,64,0,35
4,64,74,22
4,64,0,71
4,64,74,32
4,64,0,59
4,64,74,29
4,64,0,90
4,63,74,10
4,63,0,134
4,63,74,24
4,63,0,177
4,63,74,21
4,63,0,34
4,63,74,18
4,63,0,56
4,65,74,12
4,63,68,192
4,65,0,2
4,63,0,190
4,67,79,314
4,67,0,98
4,69,79,8
4,69,0,80
4,70,79,12
4,70,0,72
4,70,79,22
4,70,0,80
4,65,79,16
4,65,0,174
4,62,79,10
4,62,0,84
4,65,79,8
4,65,0,404
4,67,79,944
4,67,0,96
4,69,79,6
4,69,0,88
4,70,79,10
4,70,0,78
4,70,79,22
4,70,0,78
4,65,79,12
4,65,0,190
4,62,79,6
4,62,0,80
4,67,79,4
4,67,0,46
4,65,79,3
4,65,0,148
4,65,75,8
4,65,0,94
4,63,75,4
4,63,0,96
4,62,75,2
4,62,0,88
4,63,70,4
4,72,80,288
4,63,0,4
4,72,0,52
4,72,85,40
4,72,0,40
4,70,80,4
4,70,0,70
4,70,80,26
4,70,0,132
4,67,75,12
4,67,0,254
4,63,65,32
4,63,0,64
4,63,65,34
4,63,0,90
4,62,65,3
4,62,0,67
4,60,60,32
4,60,0,100
4,72,85,90
4,72,0,50
4,72,85,48
4,72,0,56
4,72,85,36
4,72,0,80
4,72,90,18
4,72,0,50
4,72,90,44
4,72,0,80
4,70,80,18
4,70,0,70
4,70,80,24
4,70,0,132
4,67,75,12
4,67,0,254
4,63,59,32
4,63,0,64
4,63,63,34
4,63,0,90
4,65,68,4
4,65,0,66
4,63,57,32
4,63,0,96
4,72,78,177
4,72,0,79
4,72,78,32
4,72,0,190
4,70,72,8
4,70,0,154
4,70,74,30
4,70,0,168
4,69,66,18
4,69,0,74
4,69,71,28
4,69,0,64
4,69,72,30
4,69,0,78
4,67,75,22
4,67,0,70
4,67,75,28
4,67,0,70
4,69,80,30
4,69,0,64
4,70,80,26
4,70,0,538
4,63,63,710
4,63,0,74
4,63,63,22
4,63,0,78
4,62,63,18
4,62,0,78
4,63,61,18
4,63,0,168
4,72,85,116
4,72,0,56
4,72,90,40
4,72,0,40
4,70,85,4
4,70,0,70
4,70,85,26
4,70,0,132
4,67,80,12
4,67,0,254
4,63,64,32
4,63,0,64
4,63,68,34
4,63,0,90
4,65,73,4
4,65,0,66
4,63,62,32
4,63,0,100
4,72,90,90
4,72,0,50
4,72,90,48
4,72,0,56
4,72,90,36
4,72,0,80
4,72,95,18
4,72,0,50
4,72,95,44
4,72,0,80
4,70,85,18
4,70,0,70
4,70,85,24
4,70,0,132
4,67,80,12
4,67,0,254
4,63,64,32
4,63,0,64
4,63,68,34
4,63,0,90
4,65,73,4
4,65,0,66
4,63,62,32
4,63,0,96
4,72,89,178
4,72,0,77
4,72,86,33
4,70,75,198
4,72,0,8
4,70,0,146
4,70,79,30
4,70,0,168
4,69,75,18
4,69,0,74
4,69,76,28
4,69,0,64
4,69,77,30
4,69,0,78
4,67,80,22
4,67,0,70
4,67,84,28
4,67,0,70
4,69,78,30
4,69,0,160
4,70,72,24
4,70,0,8
4,64,104,7204
4,64,0,30
4,64,104,16
4,64,0,28
4,64,104,26
4,64,0,80
4,64,104,27
4,64,0,57
4,64,104,36
4,64,0,74
4,67,104,18
4,67,0,92
4,62,104,22
4,62,0,222
4,62,104,40
4,62,0,30
4,62,104,14
4,62,0,22
4,62,104,32
4,62,0,102
4,67,104,12
4,67,0,82
4,62,104,26
4,62,0,78
4,60,104,24
4,60,0,108
4,60,104,24
4,60,0,194
4,60,104,32
4,60,0,20
4,60,104,28
4,60,0,22
4,60,104,27
4,60,0,73
4,60,104,28
4,60,0,62
4,60,104,38
4,60,0,78
4,64,104,14
4,64,0,104
4,59,104,26
4,59,0,214
4,59,104,30
4,59,0,22
4,59,104,24
4,59,0,24
4,59,104,26
4,59,0,96
4,64,104,10
4,64,0,138
4,59,104,30
4,59,0,86
4,59,104,38
4,59,0,78
4,57,104,22
4,57,0,146
4,57,104,34
4,57,0,24
4,57,104,16
4,57,0,24
4,57,104,24
4,57,0,84
4,57,104,26
4,57,0,64
4,57,104,30
4,57,0,72
4,60,104,16
4,60,0,100
4,55,104,10
4,55,0,248
4,67,104,22
4,67,0,24
4,67,104,18
4,67,0,28
4,67,104,16
4,67,0,92
4,72,104,6
4,72,0,92
4,67,104,4
4,67,0,90
4,66,104,14
4,66,0,144
4,66,104,22
4,66,0,174
4,66,104,30
4,66,0,30
4,66,104,28
4,66,0,32
4,66,104,26
4,66,0,74
4,66,104,28
4,66,0,62
4,66,104,30
4,66,0,70
4,65,104,23
4,65,0,129
4,65,104,35
4,65,0,170
4,65,104,41
4,65,0,20
4,65,104,22
4,65,0,48
4,67,104,6
4,67,0,188
4,65,104,12
4,65,0,152
4,69,120,314
4,69,0,98
4,71,120,8
4,71,0,80
4,72,114,11
4,72,0,72
4,72,114,22
4,72,0,80
4,67,114,15
4,67,0,174
4,64,114,10
4,64,0,85
4,67,114,8
4,67,0,405
4,76,126,11
4,76,0,62
4,74,125,8
4,74,0,88
4,72,124,8
4,72,0,78
4,74,127,4
4,74,0,124
4,76,126,3
4,72,120,144
4,76,0,4
4,72,0,186
4,64,114,6
4,64,0,80
4,69,126,4
4,69,0,42
4,67,114,6
4,67,0,360
4,67,117,4
4,67,0,62
4,67,110,8
4,67,0,80
4,65,110,18
4,65,0,88
4,64,110,14
4,64,0,88
4,65,110,8
4,74,115,279
4,65,0,1
4,74,0,56
4,74,120,40
4,74,0,40
4,72,115,4
4,72,0,70
4,72,115,25
4,72,0,132
4,69,110,12
4,69,0,254
4,65,94,32
4,65,0,64
4,65,98,34
4,65,0,90
4,64,103,4
4,64,0,66
4,62,92,32
4,62,0,100
4,74,120,89
4,74,0,51
4,74,120,48
4,74,0,56
4,74,120,36
4,74,0,80
4,74,125,18
4,74,0,50
4,74,125,44
4,74,0,80
4,72,115,17
4,72,0,71
4,72,115,24
4,72,0,132
4,69,110,12
4,69,0,254
4,65,94,32
4,65,0,63
4,65,98,35
4,65,0,90
4,67,103,4
4,67,0,66
4,65,92,32
4,65,0,96
4,74,113,187
4,74,0,79
4,74,113,22
4,74,0,190
4,72,107,8
4,72,0,154
4,72,109,30
4,72,0,168
4,71,101,18
4,71,0,74
4,71,106,28
4,71,0,64
4,71,107,30
4,71,0,78
4,69,110,22
4,69,0,70
4,69,110,28
4,69,0,70
4,71,111,30
4,71,0,64
4,72,115,26
4,72,0,538
4,74,120,1282
4,74,0,56
4,74,125,40
4,74,0,40
4,72,120,4
4,72,0,70
4,72,120,26
4,72,0,132
4,69,115,12
4,69,0,253
4,76,115,4
4,76,0,30
4,74,115,34
4,74,0,90
4,72,115,4
4,72,0,66
4,72,115,32
4,72,0,100
4,74,125,90
4,74,0,50
4,74,125,48
4,74,0,56
4,74,125,36
4,74,0,80
4,74,127,18
4,74,0,50
4,74,127,44
4,74,0,80
4,72,120,18
4,72,0,70
4,72,120,24
4,72,0,132
4,69,115,12
4,69,0,254
4,65,99,31
4,65,0,65
4,65,103,34
4,65,0,89
4,67,108,5
4,67,0,66
4,65,97,32
4,65,0,96
4,74,119,188
4,74,0,77
4,74,116,23
4,72,105,198
4,74,0,8
4,72,0,146
4,72,109,30
4,72,0,168
4,71,106,18
4,71,0,74
4,71,100,28
4,71,0,64
4,71,100,30
4,71,0,78
4,69,95,22
4,69,0,70
4,69,95,28
4,69,0,70
4,71,90,30
4,71,0,160
4,72,85,24
4,72,0,8
5,65,20,216
5,70,20,0
5,74,23,0
5,65,0,756
5,70,0,0
5,74,0,0
5,69,20,10
5,72,20,0
5,77,25,0
5,69,0,760
5,72,0,0
5,77,0,0
5,62,20,8
5,67,20,0
5,70,20,0
5,62,0,760
5,67,0,0
5,70,0,0
5,65,20,8
5,69,20,0
5,74,25,0
5,65,0,759
5,69,0,1
5,74,0,0
5,58,23,8
5,63,23,0
5,67,23,0
5,58,0,760
5,63,0,0
5,67,0,0
5,62,23,8
5,65,23,0
5,70,23,0
5,62,0,760
5,65,0,0
5,70,0,0
5,60,23,8
5,64,23,0
5,70,23,0
5,60,0,760
5,64,0,0
5,70,0,0
5,60,23,8
5,63,23,0
