track,note,velocity,time
0,51,60,950
0,59,97,4
0,62,116,0
0,67,97,0
0,35,109,2
0,59,97,2
0,62,116,0
0,67,97,0
0,59,50,278
0,57,105,2
0,60,105,0
0,65,97,0
0,36,111,0
0,57,105,2
0,60,105,0
0,65,97,0
0,51,44,0
0,55,97,0
0,60,100,0
0,64,97,0
0,36,103,0
0,55,97,0
0,60,100,0
0,64,97,0
0,53,122,20
0,57,104,0
0,60,116,0
0,53,58,0
0,29,113,2
0,53,122,2
0,57,104,0
0,60,116,0
0,42,80,0
0,44,55,184
0,44,60,88
0,42,81,88
0,44,52,184
0,44,55,88
0,55,113,0
0,59,97,0
0,62,95,0
0,31,101,2
0,55,113,2
0,59,97,0
0,62,95,0
0,42,83,0
0,44,64,184
0,44,55,88
0,42,80,88
0,44,60,184
0,44,56,88
0,55,90,20
0,60,81,0
0,64,91,0
0,33,91,2
0,57,90,2
0,60,81,0
0,64,91,0
0,42,85,0
0,44,61,20
0,44,57,88
0,42,84,88
0,44,57,184
0,44,54,88
0,59,97,4
0,62,116,0
0,67,97,0
0,35,98,2
0,59,97,2
0,62,116,0
0,67,97,0
0,42,87,0
0,44,62,180
0,57,105,80
0,60,105,0
0,65,97,0
0,36,97,2
0,57,105,2
0,60,105,0
0,65,97,0
0,44,57,0
0,42,86,64
0,55,97,0
0,60,100,0
0,64,97,0
0,36,101,6
0,55,97,0
0,60,100,0
0,64,97,0
0,44,62,0
0,44,55,88
0,53,122,20
0,57,104,0
0,60,116,0
0,29,100,2
0,53,122,2
0,57,104,0
0,60,116,0
0,42,83,0
0,44,59,184
0,44,59,88
0,42,82,88
0,44,61,184
0,44,54,88
0,55,90,18
0,62,82,2
0,59,86,0
0,55,90,0
0,62,82,2
0,59,86,6
0,31,91,2
0,42,91,2
0,44,62,104
0,44,53,88
0,42,91,88
0,44,47,184
0,44,54,88
0,42,88,88
0,44,55,184
0,44,56,88
0,42,80,88
0,44,51,184
0,70,19,0
0,44,39,18
0,70,29,0
0,44,82,0
0,33,86,2
0,53,65,0
0,55,65,0
0,60,65,0
0,57,66,0
0,60,78,0
0,65,83,0
0,70,40,0
0,70,25,88
0,60,88,4
0,42,50,4
0,70,26,2
0,42,49,72
0,70,20,2
0,60,92,26
0,44,80,58
0,70,25,2
0,60,96,36
0,70,20,32
0,60,95,36
0,42,48,0
0,70,18,2
0,42,48,86
0,70,21,2
0,60,93,12
0,44,78,28
0,70,20,2
0,70,17,88
0,60,81,30
0,42,50,0
0,70,13,2
0,42,51,86
0,70,23,2
0,44,78,86
0,70,23,2
0,60,107,4
0,70,21,8
0,42,49,86
0,70,21,0
0,62,94,4
0,42,52,82
0,70,24,2
0,60,104,34
0,44,82,0
0,28,99,2
0,52,65,0
0,60,65,0
0,62,65,0
0,52,90,0
0,55,81,0
0,60,73,0
0,70,24,0
0,70,19,6
0,60,100,0
0,42,50,68
0,70,23,2
0,55,94,44
0,42,49,8
0,70,16,2
0,44,80,14
0,70,24,2
0,55,93,14
0,52,90,32
0,42,48,26
0,70,25,2
0,42,48,34
0,70,27,2
0,55,96,4
0,44,78,86
0,70,27,2
0,70,28,88
0,55,65,28
0,42,50,32
0,70,24,2
0,42,51,80
0,70,27,2
0,44,78,86
0,70,32,2
0,64,68,88
0,70,21,0
0,42,49,86
0,67,81,2
0,70,18,0
0,42,52,86
0,70,22,2
0,60,100,18
0,29,95,2
0,53,65,0
0,57,65,0
0,60,65,0
0,53,69,0
0,57,80,0
0,60,65,0
0,44,80,0
0,70,30,0
0,70,21,0
0,60,88,34
0,42,51,24
0,70,12,0
0,60,93,30
0,42,52,4
0,70,16,0
0,44,80,88
0,70,24,0
0,60,91,26
0,70,26,10
0,42,51,88
0,70,24,0
0,60,102,36
0,42,45,48
0,70,24,0
0,31,88,2
0,55,65,0
0,59,65,0
0,62,65,0
0,55,73,0
0,59,81,0
0,62,81,0
0,44,80,0
0,70,32,0
0,60,87,36
0,42,51,32
0,70,13,0
0,42,50,88
0,70,13,0
0,44,77,88
0,70,28,0
0,62,97,26
0,70,14,20
0,42,48,88
0,70,17,0
0,64,96,10
0,42,45,74
0,70,16,0
0,64,101,36
0,36,95,2
0,60,65,0
0,62,65,0
0,64,65,0
0,67,65,0
0,52,86,0
0,55,78,0
0,60,73,0
0,76,90,0
0,79,94,0
0,44,81,0
0,70,32,0
0,76,87,126
0,81,97,0
0,42,53,0
0,70,16,0
0,76,86,4
0,79,88,0
0,42,49,0
0,70,23,0
0,44,70,30
0,70,27,0
0,76,92,88
0,81,102,0
0,70,19,0
0,42,53,38
0,70,16,0
0,76,87,88
0,79,88,0
0,42,52,0
0,44,74,40
0,70,29,0
0,76,84,88
0,81,89,0
0,70,19,0
0,42,51,40
0,70,21,0
0,76,84,88
0,79,81,0
0,42,50,0
0,44,80,36
0,70,33,0
0,31,105,88
0,76,92,0
0,81,95,0
0,70,23,0
0,36,105,2
0,42,48,0
0,70,25,0
0,28,101,4
0,76,83,0
0,81,87,0
0,42,51,0
0,70,22,0
0,31,103,2
0,57,65,0
0,60,65,0
0,64,65,0
0,67,65,0
0,52,92,0
0,57,84,0
0,60,72,0
0,44,78,0
0,70,46,0
0,69,64,4
0,76,70,0
0,81,72,0
0,70,12,0
0,62,87,6
0,42,48,26
0,70,16,0
0,64,95,36
0,67,65,4
0,76,58,0
0,81,52,0
0,42,52,0
0,44,87,18
0,70,37,0
0,65,107,16
0,69,63,28
0,76,38,0
0,81,38,0
0,70,19,0
0,64,106,32
0,42,50,8
0,70,19,0
0,67,49,12
0,42,44,0
0,70,25,0
0,65,92,8
0,44,85,80
0,70,42,0
0,69,56,40
0,64,107,4
0,42,54,84
0,70,24,0
0,67,104,6
0,67,50,16
0,42,51,0
0,70,23,0
0,44,89,78
0,70,44,0
0,69,51,88
0,42,55,64
0,70,19,0
0,67,34,0
0,42,52,0
0,70,20,0
0,28,97,16
0,52,65,0
0,55,65,0
0,62,65,0
0,52,88,0
0,55,78,0
0,62,78,0
0,44,85,0
0,70,37,0
0,65,101,12
0,70,15,6
0,42,54,88
0,70,17,0
0,64,106,56
0,42,48,18
0,70,23,0
0,44,86,88
0,70,43,0
0,65,100,56
0,70,12,14
0,42,52,88
0,70,19,0
0,64,102,60
0,42,52,16
0,70,23,0
0,44,87,88
0,70,43,0
0,60,97,72
0,42,49,102
0,70,16,0
0,55,78,74
0,42,57,14
0,70,18,0
0,44,87,88
0,70,39,0
0,42,58,110
0,70,28,0
0,55,97,38
0,42,57,8
0,70,24,0
0,84,56,2
0,64,104,6
0,29,96,4
0,53,65,0
0,57,65,0
0,60,65,0
0,41,75,0
0,53,62,0
0,57,70,0
0,44,86,0
0,70,40,0
0,64,101,40
0,53,44,14
0,42,59,0
0,70,26,0
0,57,77,22
0,42,55,0
0,70,28,0
0,62,92,2
0,44,90,86
0,70,43,0
0,60,98,36
0,70,26,0
0,60,83,6
0,42,60,88
0,70,31,0
0,42,50,0
0,70,13,0
0,62,78,4
0,31,97,6
0,55,65,0
0,59,65,0
0,62,65,0
0,43,74,0
0,55,76,0
0,59,88,0
0,62,77,0
0,44,92,0
0,70,50,0
0,70,27,88
0,42,53,84
0,70,23,0
0,42,48,88
0,70,24,0
0,44,95,40
0,70,58,0
0,70,29,88
0,42,51,88
0,70,28,0
0,42,57,88
0,70,18,0
0,48,80,0
0,55,75,2
0,24,97,4
0,36,97,0
0,60,69,0
0,24,99,2
0,46,64,0
0,48,60,4
0,42,66,12
0,48,70,58
0,24,97,12
0,42,63,0
0,48,67,24
0,42,63,16
0,48,71,54
0,24,93,16
0,46,72,0
0,67,54,34
0,48,70,16
0,42,62,16
0,72,45,8
0,74,51,40
0,48,70,16
0,24,92,12
0,42,61,0
0,79,70,16
0,84,69,0
0,48,69,6
0,42,67,0
0,86,75,2
0,48,72,54
0,24,91,6
0,91,88,0
0,46,73,0
0,86,84,4
0,48,70,12
0,42,60,8
0,84,78,10
0,79,67,44
0,48,81,0
0,24,95,4
0,42,56,0
0,74,67,16
0,72,64,8
0,48,77,2
0,42,59,24
0,67,64,12
0,48,85,50
0,24,93,4
0,46,74,0
0,48,74,2
0,42,57,18
0,48,90,62
0,24,90,12
0,42,59,0
0,48,82,20
0,42,66,12
0,65,93,10
0,48,71,6
0,57,57,0
0,60,75,0
0,65,64,0
0,70,58,2
0,48,97,0
0,24,101,2
0,57,97,0
0,60,105,0
0,65,100,0
0,36,108,0
0,42,77,0
0,49,65,0
0,70,47,10
0,48,73,0
0,70,54,64
0,48,83,0
0,24,102,2
0,44,70,0
0,70,43,16
0,48,67,0
0,44,78,2
0,70,51,66
0,48,95,0
0,24,103,2
0,40,127,0
0,42,85,0
0,70,47,6
0,48,66,0
0,64,113,14
0,55,70,2
0,60,68,0
0,64,82,0
0,70,44,2
0,48,86,0
0,24,101,2
0,55,91,0
0,60,97,0
0,64,107,0
0,44,70,0
0,70,47,0
0,48,69,0
0,44,69,2
0,70,52,66
0,48,86,0
0,24,101,2
0,36,108,0
0,42,80,0
0,70,45,10
0,48,67,0
0,70,48,68
0,48,80,0
0,24,101,2
0,44,81,0
0,70,51,0
0,48,67,0
0,44,74,2
0,70,55,22
0,48,87,0
0,24,101,2
0,40,127,0
0,42,77,0
0,70,47,2
0,48,68,0
0,87,111,68
0,70,47,2
0,48,84,0
0,24,99,2
0,5,114,0
0,44,80,0
0,70,47,6
0,48,69,0
0,44,72,2
0,70,47,66
0,48,84,0
0,24,101,2
0,36,108,0
0,42,83,0
0,70,41,14
0,48,64,0
0,62,102,22
0,70,44,0
0,48,81,0
0,24,101,2
0,44,85,0
0,70,34,2
0,48,63,0
0,44,71,2
0,64,97,4
0,70,50,38
0,48,81,0
0,24,102,2
0,40,127,0
0,42,82,0
0,65,110,2
0,70,41,8
0,48,64,0
0,64,111,30
0,70,41,10
0,48,78,0
0,24,99,2
0,44,81,0
0,65,107,10
0,70,44,2
0,48,60,0
0,44,73,2
0,70,44,68
0,48,77,0
0,24,99,2
0,36,108,0
0,42,86,0
0,70,43,8
0,48,64,0
0,64,110,2
0,70,47,64
0,48,80,0
0,24,101,2
0,44,85,0
0,67,101,2
0,70,42,10
0,48,60,0
0,44,75,0
0,70,49,66
0,48,88,0
0,24,105,2
0,40,127,0
0,42,85,0
0,70,44,6
0,48,57,0
0,65,91,24
0,70,47,28
0,48,86,0
0,24,97,2
0,44,86,0
0,70,44,64
0,48,67,0
0,44,74,2
0,64,115,18
0,41,88,2
0,53,78,0
0,57,78,0
0,64,78,0
0,70,41,2
0,41,99,0
0,29,103,2
0,53,80,0
0,57,89,0
0,64,88,0
0,36,108,0
0,42,90,0
0,70,41,56
0,41,76,0
0,70,42,26
0,41,83,0
0,29,101,2
0,44,78,0
0,70,45,4
0,41,63,0
0,44,72,2
0,70,44,60
0,41,85,0
0,29,102,2
0,40,127,0
0,42,84,0
0,70,39,56
0,41,65,0
0,62,85,2
0,70,39,0
0,41,86,0
0,29,99,2
0,53,75,0
0,57,80,0
0,62,97,0
0,44,80,0
0,62,105,4
0,70,43,8
0,41,65,0
0,44,74,2
0,70,41,60
0,41,85,0
0,29,99,2
0,36,108,0
0,42,83,0
0,70,43,58
0,41,64,0
0,70,39,38
0,41,82,0
0,29,98,2
0,44,85,0
0,70,41,14
0,41,64,0
0,44,73,2
0,70,47,62
0,41,90,0
0,29,101,2
0,40,127,0
0,42,88,0
0,70,44,8
0,41,60,0
0,70,42,66
0,41,85,0
0,29,96,2
0,44,79,0
0,70,47,12
0,41,60,0
0,44,67,2
0,43,90,2
0,55,76,0
0,59,99,0
0,62,88,0
0,70,51,2
0,43,83,0
0,31,102,0
0,55,75,0
0,59,74,0
0,62,73,0
0,36,108,0
0,42,85,0
0,70,36,2
0,43,62,0
0,64,116,26
0,70,42,10
0,43,81,0
0,31,101,2
0,44,83,0
0,62,92,8
0,70,39,2
0,43,60,0
0,44,71,2
0,64,112,50
0,70,51,6
0,43,81,0
0,31,104,2
0,40,127,0
0,42,83,0
0,70,36,16
0,43,65,0
0,62,84,22
0,70,45,8
0,43,78,0
0,31,101,2
0,44,85,0
0,64,111,2
0,70,28,10
0,43,57,0
0,44,73,2
0,44,93,66
0,56,92,0
0,64,92,0
0,70,39,2
0,44,107,0
0,32,99,2
0,56,84,0
0,64,54,0
0,68,64,0
0,36,108,0
0,42,81,0
0,62,85,4
0,70,32,14
0,44,78,0
0,70,44,62
0,44,94,0
0,32,109,2
0,44,81,0
0,65,118,10
0,70,36,12
0,44,76,0
0,44,63,2
0,70,39,56
0,44,92,0
0,32,109,2
0,40,127,0
0,42,83,0
0,64,121,16
0,70,33,0
0,44,64,0
0,70,40,56
0,44,88,0
0,32,109,2
0,44,75,0
0,70,35,0
0,44,63,0
0,44,70,0
0,62,107,20
0,52,85,10
0,57,92,0
0,60,94,0
0,70,45,2
0,45,91,0
0,33,103,2
0,57,98,0
0,36,108,0
0,42,85,0
0,70,38,2
0,45,64,0
0,70,39,16
0,45,79,0
0,33,99,2
0,60,63,0
0,44,81,0
0,60,89,0
0,70,34,10
0,45,65,0
0,64,83,0
0,44,69,0
0,64,113,2
0,70,40,60
0,45,80,0
0,33,101,2
0,40,127,0
0,42,88,0
0,70,41,12
0,45,52,0
0,69,92,2
0,70,47,18
0,45,76,0
0,33,100,2
0,44,83,0
0,45,69,6
0,44,70,2
0,64,108,6
0,52,84,2
0,55,87,0
0,60,61,0
0,70,51,0
0,43,64,0
0,31,103,2
0,55,90,0
0,36,108,0
0,42,85,0
0,62,99,0
0,70,42,6
0,43,69,0
0,60,76,18
0,70,53,26
0,43,79,0
0,31,100,2
0,60,58,0
0,44,85,0
0,64,98,28
0,70,35,6
0,43,65,0
0,64,88,2
0,44,68,0
0,70,47,60
0,43,92,0
0,31,104,2
0,40,127,0
0,42,88,0
0,70,43,4
0,43,64,0
0,69,85,2
0,69,92,38
0,70,51,6
0,43,84,0
0,31,101,2
0,44,83,0
0,69,116,48
0,70,41,4
0,43,64,0
0,44,69,2
0,52,82,2
0,54,89,0
0,60,82,0
0,70,46,2
0,42,96,0
0,30,107,2
0,54,97,0
0,36,108,0
0,42,87,0
0,70,41,0
0,42,63,0
0,64,90,42
0,70,47,6
0,42,85,0
0,30,105,2
0,60,52,0
0,44,81,0
0,64,91,0
0,70,42,6
0,42,79,0
0,64,79,2
0,44,75,0
0,70,50,54
0,42,102,0
0,30,109,2
0,40,127,0
0,42,94,0
0,70,46,12
0,42,64,0
0,69,82,2
0,62,92,40
0,70,41,4
0,42,87,0
0,30,105,2
0,44,83,0
0,70,41,42
0,42,72,0
0,44,72,0
0,62,91,4
0,53,85,2
0,57,88,0
0,60,78,0
0,70,47,2
0,41,105,0
0,29,109,2
0,53,70,0
0,57,84,0
0,60,86,0
0,36,108,0
0,42,92,0
0,70,39,6
0,41,62,0
0,70,47,30
0,41,89,0
0,29,101,2
0,44,82,0
0,60,81,2
0,70,35,6
0,41,70,0
0,44,67,2
0,60,93,2
0,70,48,62
0,41,100,0
0,29,102,2
0,40,127,0
0,42,99,0
0,70,42,2
0,41,57,0
0,59,88,62
0,70,47,4
0,41,89,0
0,29,101,2
0,46,70,0
0,62,105,18
0,70,44,2
0,41,68,0
0,59,81,2
0,62,82,0
0,67,80,0
0,70,50,2
0,40,94,0
0,28,108,2
0,52,76,0
0,59,68,0
0,36,108,0
0,42,99,0
0,70,35,8
0,40,79,0
0,70,42,60
0,40,89,0
0,28,110,2
0,55,104,0
0,44,81,0
0,70,41,0
0,40,82,0
0,59,110,2
0,44,76,0
0,70,49,56
0,40,89,0
0,28,109,2
0,40,127,0
0,42,95,0
0,70,31,10
0,40,84,0
0,62,110,2
0,64,97,24
0,70,45,4
0,40,83,0
0,28,108,2
0,44,81,0
0,70,42,8
0,40,87,0
0,44,68,2
0,61,88,2
0,64,87,0
0,69,79,0
0,70,44,2
0,45,97,0
0,33,110,2
0,57,110,0
0,61,105,0
