track,note,velocity,time
0,59,89,192
0,62,87,0
0,67,98,0
0,35,92,0
0,47,60,24
0,59,60,0
0,62,60,0
0,67,60,0
0,48,85,12
0,57,95,0
0,60,91,0
0,65,100,0
0,36,110,0
0,48,60,12
0,57,60,0
0,60,60,0
0,65,60,0
0,55,85,0
0,60,59,0
0,64,95,0
0,28,112,0
0,40,60,12
0,55,60,0
0,64,60,0
0,53,87,8
0,57,95,0
0,60,98,0
0,29,117,0
0,42,88,0
0,41,60,12
0,53,60,0
0,55,60,0
0,57,60,0
0,59,60,0
0,60,60,0
0,42,73,0
0,42,73,0
0,42,73,19
0,42,108,19
0,42,73,19
0,42,73,19
0,42,73,19
0,55,87,4
0,59,82,0
0,62,98,0
0,31,101,0
0,43,60,0
0,42,108,0
0,55,60,12
0,59,60,0
0,62,60,0
0,42,73,0
0,42,73,19
0,42,73,19
0,42,108,19
0,42,73,19
0,42,73,19
0,42,73,0
0,55,85,12
0,60,80,0
0,64,89,0
0,33,105,0
0,42,108,0
0,45,60,19
0,60,60,0
0,64,60,0
0,42,73,0
0,42,73,19
0,42,73,19
0,42,108,19
0,42,73,19
0,42,73,19
0,42,73,0
0,59,100,1
0,62,82,0
0,67,100,0
0,35,103,0
0,47,60,0
0,59,60,0
0,62,60,0
0,42,108,0
0,67,60,12
0,42,73,0
0,42,73,19
0,48,85,12
0,57,89,0
0,60,93,0
0,65,100,0
0,36,110,0
0,42,73,0
0,48,60,19
0,57,60,0
0,60,60,0
0,65,60,0
0,42,108,0
0,42,73,19
0,55,98,8
0,60,87,0
0,64,98,0
0,36,112,0
0,48,60,0
0,55,60,0
0,60,60,0
0,64,60,0
0,42,73,0
0,31,97,10
0,42,73,0
0,53,98,8
0,57,89,0
0,60,102,0
0,29,110,0
0,41,60,0
0,60,60,0
0,42,108,0
0,53,60,19
0,55,60,0
0,57,60,0
0,42,73,0
0,42,73,19
0,42,73,19
0,42,108,19
0,42,73,19
0,42,73,19
0,42,73,0
0,55,82,12
0,59,85,0
0,62,95,0
0,31,99,0
0,43,60,0
0,55,60,0
0,42,108,0
0,57,60,19
0,59,60,0
0,62,60,0
0,42,73,0
0,42,73,19
0,42,73,19
0,42,108,19
0,42,73,19
0,42,73,19
0,42,73,19
0,42,108,19
0,42,73,19
0,42,73,19
0,42,73,19
0,42,108,19
0,42,73,19
0,42,73,19
0,42,73,0
0,55,91,12
0,57,89,0
0,60,100,0
0,65,102,0
0,33,82,0
0,53,60,0
0,60,60,0
0,42,108,0
0,55,60,19
0,57,60,0
0,42,73,0
0,60,91,18
0,42,73,0
0,42,73,9
0,60,87,1
0,42,108,10
0,60,91,1
0,42,73,19
0,60,85,17
0,42,73,2
0,42,73,9
0,60,85,2
0,42,108,19
0,60,63,18
0,42,73,1
0,42,73,3
0,42,73,11
0,42,108,7
0,60,93,18
0,42,73,1
0,42,73,10
0,62,95,2
0,42,73,5
0,60,87,5
0,55,82,12
0,62,57,0
0,67,98,0
0,28,78,0
0,52,60,0
0,42,108,0
0,60,93,2
0,42,73,10
0,55,89,9
0,42,73,3
0,42,73,12
0,55,87,3
0,42,108,2
0,52,79,17
0,42,73,2
0,42,73,3
0,55,89,14
0,42,73,5
0,42,108,0
0,42,73,1
0,42,73,8
0,42,73,8
0,42,108,1
0,42,73,0
0,42,73,13
0,28,65,19
0,42,73,0
0,48,58,8
0,53,93,0
0,55,66,0
0,29,97,0
0,53,60,0
0,57,60,0
0,42,108,0
0,57,78,19
0,42,73,0
0,60,87,5
0,42,73,7
0,60,91,13
0,42,73,2
0,42,108,12
0,60,95,2
0,42,73,4
0,60,87,4
0,42,73,0
0,60,85,16
0,42,73,0
0,50,95,4
0,55,85,0
0,59,89,0
0,31,82,0
0,59,60,0
0,62,60,0
0,42,108,0
0,60,91,15
0,55,60,1
0,42,73,0
0,57,60,19
0,42,73,0
0,42,73,19
0,42,108,19
0,62,89,14
0,42,73,5
0,42,73,8
0,64,95,5
0,42,73,0
0,48,82,1
0,55,89,0
0,60,95,0
0,64,93,0
0,36,82,0
0,60,60,0
0,64,60,0
0,42,108,0
0,64,89,1
0,74,27,4
0,79,37,0
0,42,73,3
0,76,41,18
0,81,53,1
0,42,73,0
0,42,73,3
0,79,75,3
0,74,73,1
0,42,108,3
0,42,73,3
0,76,80,2
0,81,77,1
0,42,73,6
0,42,73,10
0,74,80,3
0,79,77,0
0,42,108,7
0,42,73,4
0,76,70,2
0,81,75,1
0,42,73,8
0,42,73,4
0,74,75,2
0,79,75,1
0,42,108,0
0,43,99,19
0,42,73,0
0,76,34,3
0,81,43,0
0,36,97,0
0,42,73,0
0,31,82,5
0,42,73,0
0,74,28,1
0,79,32,1
0,33,92,4
0,33,95,0
0,57,60,0
0,42,108,0
0,42,73,19
0,65,93,17
0,60,72,2
0,64,80,0
0,69,85,0
0,42,73,0
0,64,87,10
0,67,57,1
0,42,73,0
0,65,89,11
0,42,108,0
0,69,85,7
0,42,73,0
0,64,97,1
0,42,73,2
0,65,91,10
0,60,80,2
0,67,87,0
0,42,73,0
0,42,108,0
0,64,83,4
0,69,91,4
0,42,73,0
0,42,73,3
0,67,91,6
0,67,93,2
0,42,73,0
0,42,108,5
0,60,95,1
0,69,102,0
0,42,73,0
0,42,73,1
0,42,73,7
0,60,98,4
0,64,95,0
0,67,98,0
0,28,90,0
0,55,60,0
0,42,108,0
0,65,89,2
0,42,73,2
0,65,85,9
0,42,73,10
0,42,73,9
0,64,81,1
0,42,108,5
0,64,79,2
0,42,73,17
0,60,75,8
0,42,73,11
0,42,73,16
0,55,85,3
0,42,108,19
0,42,73,19
0,42,73,19
0,42,73,9
0,42,108,0
0,42,73,0
0,42,73,9
0,42,73,19
0,55,83,1
0,29,78,3
0,42,108,0
0,64,93,1
0,53,60,19
0,55,60,0
0,57,60,0
0,42,73,0
0,53,55,19
0,64,97,0
0,42,73,0
0,57,100,8
0,62,83,0
0,42,73,0
0,57,60,3
0,42,108,0
0,60,91,6
0,53,87,2
0,57,87,0
0,60,102,0
0,42,73,0
0,42,73,1
0,62,91,7
0,42,73,0
0,50,47,4
0,55,64,0
0,59,68,0
0,31,71,0
0,43,60,0
0,55,60,0
0,59,60,0
0,62,60,0
0,42,108,0
0,42,73,12
0,42,73,4
0,42,73,12
0,42,108,10
0,42,73,0
0,42,73,0
0,42,73,5
0,59,102,19
0,62,100,0
0,67,107,0
0,35,92,0
0,47,60,0
0,42,108,0
0,59,60,12
0,62,60,0
0,65,60,0
0,67,60,0
0,42,73,0
0,42,73,12
0,48,102,5
0,57,102,0
0,60,102,0
0,65,107,0
0,36,90,0
0,48,60,0
0,60,60,0
0,42,73,0
0,57,60,12
0,65,60,0
0,42,108,0
0,42,73,19
0,55,107,0
0,60,98,0
0,64,102,0
0,28,92,0
0,40,60,0
0,55,60,0
0,64,60,0
0,42,73,0
0,42,73,16
0,53,100,4
0,57,98,0
0,59,87,0
0,60,98,0
0,29,90,0
0,60,60,0
0,42,108,0
0,41,60,19
0,53,60,0
0,57,60,0
0,42,73,0
0,42,73,19
0,42,73,19
0,42,108,19
0,42,73,19
0,42,73,19
0,42,73,19
0,55,102,4
0,59,102,0
0,62,102,0
0,31,82,0
0,59,60,0
0,62,60,0
0,42,108,0
0,43,60,19
0,55,60,0
0,42,73,0
0,42,73,19
0,42,73,19
0,42,108,19
0,42,73,19
0,42,73,19
0,42,73,0
0,55,63,8
0,57,62,0
0,60,85,0
0,65,80,0
0,33,82,0
0,41,60,0
0,60,60,0
0,35,103,0
0,42,108,0
0,55,66,1
0,53,60,10
0,55,60,0
0,57,60,0
0,42,73,0
0,60,91,17
0,42,73,2
0,60,87,12
0,42,73,1
0,55,58,5
0,42,108,12
0,60,89,2
0,42,73,0
0,60,93,17
0,42,73,2
0,55,42,2
0,42,73,10
0,60,93,3
0,42,108,19
0,60,89,19
0,42,73,0
0,42,73,19
0,55,72,18
0,42,73,1
0,42,108,19
0,42,73,8
0,62,93,2
0,62,20,1
0,42,73,0
0,55,47,1
0,60,85,1
0,35,83,6
0,42,73,0
0,55,60,15
0,60,87,0
0,62,20,0
0,67,78,0
0,28,78,0
0,52,60,0
0,55,60,0
0,60,87,0
0,35,103,0
0,42,108,0
0,42,73,12
0,55,83,12
0,42,73,7
0,42,73,17
0,55,91,2
0,55,54,1
0,42,108,15
0,52,81,14
0,42,73,5
0,42,73,7
0,55,53,2
0,55,83,8
0,42,73,0
0,42,108,2
0,55,75,16
0,42,73,3
0,71,64,4
0,42,73,0
0,72,68,4
0,42,73,0
0,65,60,4
0,74,74,0
0,42,108,0
0,60,75,18
0,76,78,1
0,42,73,0
0,55,48,11
0,83,87,0
0,42,73,0
0,84,57,12
0,28,65,0
0,35,83,0
0,42,73,0
0,29,97,0
0,53,60,0
0,55,60,0
0,57,60,0
0,35,103,0
0,42,108,0
0,55,72,4
0,42,73,8
0,60,89,17
0,42,73,2
0,42,73,10
0,60,87,2
0,55,70,1
0,42,108,0
0,60,89,3
0,42,73,16
0,55,54,0
0,60,85,7
0,42,73,8
0,55,47,4
0,42,73,12
0,60,89,2
0,31,82,5
0,57,60,0
0,42,108,0
0,55,60,13
0,59,60,0
0,62,60,0
0,42,73,0
0,60,75,1
0,42,73,19
0,53,87,0
0,46,103,19
0,55,60,7
0,59,56,0
0,62,64,0
0,42,108,0
0,62,85,15
0,42,73,4
0,42,73,0
0,55,40,2
0,64,93,1
0,42,73,0
0,48,61,7
0,55,68,0
0,60,68,0
0,64,64,0
0,36,82,0
0,64,60,0
0,35,103,0
0,42,108,0
0,64,83,3
0,74,27,2
0,55,66,0
0,79,37,0
0,60,60,4
0,42,73,0
0,76,41,18
0,81,53,1
0,42,73,0
0,42,73,14
0,55,79,1
0,79,75,2
0,74,73,0
0,42,108,2
0,42,73,1
0,76,80,2
0,81,77,1
0,42,73,2
0,55,58,3
0,42,73,0
0,74,80,3
0,79,77,0
0,42,108,4
0,42,73,7
0,76,70,2
0,81,75,1
0,42,73,0
0,65,56,16
0,42,73,0
0,74,75,2
0,79,75,1
0,42,108,0
0,60,64,3
0,43,99,1
0,42,73,0
0,76,34,3
0,81,43,0
0,36,97,3
0,55,45,0
0,42,73,0
0,31,82,5
0,35,83,0
0,42,73,0
0,74,28,1
0,79,32,1
0,57,68,4
0,33,92,0
0,33,95,0
0,57,60,0
0,60,60,0
0,35,103,0
0,42,108,0
0,55,70,4
0,42,73,15
0,60,57,19
0,64,60,0
0,69,70,0
0,42,73,0
0,65,91,1
0,60,56,0
0,64,58,0
0,67,89,0
0,42,73,0
0,55,54,1
0,64,87,2
0,42,108,0
0,65,93,5
0,60,78,19
0,64,85,0
0,69,95,0
0,42,73,0
0,64,81,7
0,42,73,0
0,55,53,2
0,60,57,17
0,64,66,0
0,67,87,0
0,42,73,0
0,65,89,1
0,42,108,0
0,64,91,18
0,60,82,1
0,64,85,0
0,69,91,0
0,42,73,0
0,42,73,0
0,53,87,0
0,67,89,2
0,60,66,1
0,64,72,0
0,67,85,0
0,46,103,0
0,55,42,2
0,42,108,0
0,60,68,16
0,64,68,0
0,69,91,0
0,42,73,0
0,55,56,2
0,42,73,0
0,42,73,6
0,48,62,4
0,60,85,0
0,64,89,0
0,67,100,0
0,28,90,0
0,55,60,0
0,60,60,0
0,35,103,0
0,42,108,0
0,65,83,2
0,55,53,3
0,42,73,4
0,65,89,6
0,42,73,13
0,55,75,8
0,64,81,1
0,42,73,2
0,42,108,7
0,64,87,5
0,42,73,19
0,60,85,8
0,42,73,8
0,55,39,4
0,42,73,15
0,55,85,1
0,42,108,19
0,42,73,8
0,42,73,4
0,60,90,1
0,42,73,1
0,42,108,2
0,42,73,0
0,42,73,8
0,55,68,2
0,55,87,10
0,35,83,3
0,42,73,0
0,29,78,3
0,53,60,0
0,55,60,0
0,57,60,0
0,35,103,0
0,42,108,0
0,64,89,2
0,55,52,3
0,42,73,0
0,64,95,16
0,53,60,3
0,42,73,0
0,57,57,4
0,62,89,0
0,42,73,0
0,55,56,3
0,42,108,3
0,60,81,18
0,60,98,1
0,42,73,0
0,55,68,0
0,42,73,0
0,62,89,13
0,42,73,4
0,50,59,6
0,55,82,0
0,59,87,0
0,62,85,0
0,31,71,0
0,55,60,0
0,62,60,0
0,42,108,0
0,59,60,6
0,42,73,0
0,42,73,8
0,42,73,0
0,42,108,10
0,42,73,19
0,42,73,12
0,55,37,2
0,55,87,2
0,42,73,4
0,50,48,17
0,57,80,0
0,62,80,0
0,65,85,0
0,38,95,0
0,35,103,0
0,42,108,0
0,65,89,3
0,42,73,0
0,64,85,10
0,53,60,4
0,42,73,0
0,62,81,10
0,55,68,0
0,57,60,1
0,42,73,0
0,42,108,0
0,60,85,15
0,42,73,4
0,55,30,4
0,42,73,9
0,62,87,17
0,38,65,2
0,35,83,0
0,42,73,0
0,50,60,3
0,55,68,0
0,59,76,0
0,62,52,0
0,67,63,0
0,31,84,0
0,55,60,0
0,59,60,0
0,67,96,0
0,74,105,0
0,35,103,0
0,42,108,0
0,55,56,5
0,42,73,0
0,42,73,2
0,42,73,10
0,55,56,2
0,42,108,11
0,42,73,3
0,42,73,6
0,42,73,12
0,42,108,9
0,42,73,3
0,65,70,2
0,42,73,7
0,42,73,3
0,60,75,1
0,55,90,4
0,42,108,0
0,42,73,0
0,42,73,2
0,42,73,6
0,48,105,8
0,36,110,0
0,48,60,0
0,55,60,0
0,60,60,0
0,64,60,0
0,72,107,0
0,79,117,0
0,48,117,0
0,42,108,0
0,36,80,12
0,42,73,0
0,48,100,3
0,36,80,13
0,42,73,0
0,48,97,4
0,36,78,12
0,42,73,0
0,48,97,2
0,36,95,14
0,42,108,0
0,48,112,2
0,36,92,13
0,42,73,0
0,48,103,1
0,36,88,12
0,42,73,0
0,48,103,2
0,36,88,14
0,42,73,0
0,48,97,1
0,36,95,14
0,42,108,0
0,48,112,1
0,36,95,13
0,42,73,0
0,48,100,1
0,36,90,14
0,42,73,0
0,48,100,2
0,48,95,13
0,36,84,1
0,42,73,0
0,36,97,15
0,48,103,0
0,42,108,0
0,36,92,14
0,48,97,0
0,42,73,0
0,36,97,14
0,48,97,0
0,42,73,0
0,48,97,13
0,36,108,1
0,42,73,0
0,48,117,3
0,48,68,1
0,57,98,0
0,60,100,0
0,65,102,0
0,36,117,0
0,48,60,0
0,65,97,0
0,35,103,0
0,42,108,0
0,57,103,0
0,48,100,14
0,36,95,1
0,57,60,0
0,60,60,0
0,65,60,0
0,42,73,0
0,36,101,5
0,42,73,0
0,48,106,2
0,36,92,5
0,48,103,0
0,42,73,0
0,48,117,4
0,36,110,1
0,38,103,0
0,42,108,0
0,48,103,2
0,36,97,2
0,42,73,0
0,64,87,6
0,48,112,0
0,48,82,1
0,55,105,0
0,60,112,0
0,64,110,0
0,36,97,0
0,48,60,0
0,55,60,0
0,60,60,0
0,64,60,0
0,42,73,0
0,48,97,12
0,36,92,2
0,42,73,0
0,36,99,16
0,48,117,0
0,35,103,0
0,42,108,0
0,48,97,14
0,36,95,1
0,42,73,0
0,36,101,6
0,48,106,0
0,42,73,0
0,48,100,13
0,36,99,1
0,42,73,0
0,48,117,6
0,36,105,1
0,38,103,0
0,42,108,0
0,48,92,10
0,36,90,2
0,43,60,0
0,42,73,0
0,55,98,1
0,36,92,0
0,31,60,0
0,43,60,0
0,42,73,0
0,48,117,1
0,36,90,14
0,48,92,0
0,42,73,0
0,48,107,12
0,36,103,0
0,24,60,0
0,36,60,0
0,35,103,0
0,42,108,0
0,48,117,5
0,36,90,13
0,42,73,0
0,48,97,1
0,65,89,14
0,36,97,1
0,42,73,0
0,48,103,2
0,64,91,9
0,36,88,2
0,42,73,0
0,48,100,2
0,65,93,10
0,36,108,2
0,48,109,0
0,38,103,0
0,42,108,0
0,36,90,15
0,48,95,0
0,42,73,0
0,64,85,12
0,36,90,3
0,42,73,0
0,48,97,1
0,65,91,12
0,36,90,1
0,48,100,0
