track,note,velocity,time
3,44,117,1296
3,44,96,41
3,44,117,47
3,44,99,40
3,44,117,44
3,44,99,47
3,44,117,49
3,44,99,26
3,43,117,9
3,43,99,47
3,43,117,44
3,43,99,47
3,43,117,44
3,43,99,39
3,43,117,46
3,43,99,45
3,41,117,14
3,41,96,31
3,41,117,42
3,41,96,45
3,41,117,45
3,41,96,48
3,41,117,48
3,41,96,51
3,40,117,27
3,40,96,43
3,40,117,43
3,40,96,47
3,40,117,48
3,40,96,52
3,40,117,51
3,40,96,44
3,39,117,28
3,39,88,41
3,39,117,43
3,39,88,49
3,39,117,20
3,39,88,44
3,39,117,46
3,39,88,48
3,37,117,5
3,37,88,37
3,37,117,40
3,37,91,38
3,37,117,40
3,37,91,41
3,37,117,8
3,37,91,44
3,39,117,22
3,39,91,46
3,39,117,47
3,39,91,48
3,39,117,47
3,36,117,245
3,41,117,32
3,41,117,1324
3,37,117,665
3,37,117,659
3,39,117,96
3,41,117,1438
3,41,117,1325
3,37,117,664
3,37,117,657
3,39,117,96
3,36,117,671
3,36,117,48
3,32,117,24
3,44,117,21
3,31,117,12
3,43,117,206
3,29,117,14
3,41,117,14
3,27,117,3
3,39,117,223
3,37,117,17
3,49,117,219
3,32,117,8
3,32,117,30
3,39,117,84
3,39,117,9
3,37,117,6
3,49,117,218
3,36,117,7
3,36,117,17
3,36,117,23
3,32,117,16
3,44,117,21
3,31,117,11
3,43,117,206
3,29,117,14
3,41,117,16
3,27,117,1
3,39,117,223
3,37,117,17
3,49,117,225
3,32,117,8
3,32,117,31
3,39,117,82
3,39,117,10
3,37,117,5
3,49,117,211
3,36,117,8
3,36,117,17
3,43,117,25
3,36,120,15
3,41,117,8
3,41,117,25
3,45,117,252
3,48,117,0
3,40,117,80
3,40,117,26
3,43,117,0
3,38,117,22
3,38,117,14
3,41,117,249
3,45,117,66
3,37,117,66
3,37,117,24
3,40,117,250
3,45,117,75
3,34,117,71
3,38,117,142
3,41,117,75
3,33,117,361
3,36,117,6
3,41,117,80
3,29,117,3
3,29,117,21
3,41,117,165
3,41,117,28
3,36,117,411
3,43,117,224
3,36,117,0
3,41,117,13
3,41,117,26
3,45,117,236
3,48,117,65
3,40,117,66
3,40,117,26
3,43,117,250
3,38,117,23
3,38,117,14
3,41,117,256
3,45,117,67
3,37,117,68
3,37,117,22
3,40,117,250
3,45,117,75
3,34,117,71
3,38,117,142
3,41,117,77
3,33,117,371
3,36,117,6
3,41,117,82
3,29,117,2
3,29,117,22
3,41,117,165
3,41,117,28
3,36,117,407
3,36,117,33
3,44,117,326
3,44,96,40
3,44,117,47
3,44,99,39
3,44,117,43
3,44,99,46
3,44,117,49
3,44,99,27
3,43,117,8
3,43,99,45
3,43,117,43
3,43,99,48
3,43,117,45
3,43,99,40
3,43,117,48
3,43,99,44
3,41,117,15
3,41,96,31
3,41,117,42
3,41,96,44
3,41,117,45
3,41,96,49
3,41,117,49
3,41,96,49
3,40,117,26
3,40,96,43
3,40,117,43
3,40,96,48
3,40,117,48
3,40,96,52
3,40,117,50
3,40,96,45
3,39,117,27
3,39,88,42
3,39,117,42
3,39,88,49
3,39,117,20
3,39,88,45
3,39,117,46
3,39,88,47
3,37,117,5
3,37,88,36
3,37,117,40
3,37,91,40
3,37,117,40
3,37,91,41
3,37,117,8
3,37,91,44
3,39,117,22
3,39,91,47
3,39,117,47
3,39,91,49
3,39,117,47
3,36,117,246
3,41,117,32
3,41,117,1325
3,37,117,664
3,37,117,659
3,39,117,96
3,36,117,671
3,36,117,48
3,32,117,27
3,44,117,21
3,31,117,11
3,43,117,207
3,29,117,15
3,41,117,13
3,27,117,2
3,39,117,221
3,37,117,17
3,49,117,236
3,32,117,8
3,32,117,31
3,39,117,82
3,39,117,9
3,37,117,6
3,49,117,213
3,36,117,6
3,36,117,17
3,43,117,23
3,36,120,15
3,41,117,8
3,41,117,27
3,45,117,251
3,48,117,65
3,40,117,66
3,40,117,27
3,43,117,250
3,38,117,22
3,38,117,13
3,41,117,255
3,45,117,66
3,37,117,64
3,37,117,22
3,40,117,248
3,45,117,75
3,34,117,72
3,38,117,140
3,41,117,77
3,33,117,368
3,36,117,5
3,41,117,80
3,29,117,1
3,29,117,20
3,41,117,165
3,41,117,27
3,36,117,409
3,43,117,224
3,36,117,242
3,41,117,14
3,41,117,28
3,45,117,236
3,48,117,65
3,40,117,65
3,40,117,27
3,43,117,250
3,38,117,23
3,38,117,14
3,41,117,255
3,45,117,66
3,37,117,68
3,37,117,23
3,40,117,249
3,45,117,75
3,34,117,72
3,38,117,141
3,41,117,77
3,33,117,368
3,36,117,6
3,41,117,81
3,29,117,2
3,29,117,19
3,41,117,165
3,41,117,28
3,36,117,407
3,43,117,213
3,36,117,236
3,42,117,13
3,42,117,26
3,46,117,251
3,49,117,65
3,41,117,66
3,41,117,26
3,44,117,248
3,39,117,22
3,39,117,13
3,42,117,255
3,46,117,67
3,38,117,65
3,38,117,23
3,41,117,249
3,46,117,75
3,35,117,71
3,39,117,140
3,42,117,76
3,34,117,371
3,37,117,6
3,42,117,81
3,30,117,2
3,30,117,20
3,42,117,152
3,42,117,26
3,37,117,368
3,44,117,177
3,37,117,192
3,42,117,13
3,42,117,27
3,46,117,250
3,49,117,66
3,41,117,66
3,41,117,26
3,44,117,250
3,39,117,22
3,39,117,14
3,42,117,255
3,46,117,66
3,38,117,67
3,38,117,23
3,41,117,250
3,46,117,75
3,35,117,71
3,39,117,142
3,42,117,77
3,34,117,381
3,37,117,6
3,42,117,80
3,30,117,2
3,30,117,21
3,42,117,152
3,42,117,28
3,37,117,368
3,44,117,178
3,37,117,192
3,42,117,14
3,42,117,26
3,46,117,237
3,49,117,65
3,41,117,66
3,41,117,26
3,44,117,248
3,39,117,23
3,39,117,14
3,42,117,243
3,46,117,67
3,38,117,67
3,38,117,23
3,41,117,249
3,46,117,75
3,35,117,72
3,39,117,142
3,42,117,75
3,34,117,365
3,37,117,4
3,42,117,80
3,30,117,1
3,30,117,19
3,42,117,152
3,42,117,27
3,37,117,365
3,44,117,177
3,37,117,191
3,42,117,13
3,42,117,26
3,46,117,235
3,49,117,65
3,41,117,65
3,41,117,27
3,44,117,249
3,39,117,22
3,39,117,13
3,42,117,256
3,46,117,66
3,38,117,66
3,38,117,22
3,41,117,250
3,46,117,76
3,35,117,72
3,39,117,140
3,42,117,76
3,34,117,361
3,37,117,5
3,42,117,81
3,30,117,2
3,30,117,20
3,42,117,152
3,42,117,28
3,37,117,365
3,44,117,176
3,37,117,191
3,30,117,14
4,73,49,1103
4,75,62,1
4,77,77,0
4,79,95,24
4,80,109,2
4,80,109,124
4,75,92,158
4,82,109,288
4,75,85,146
4,72,77,67
4,73,118,50
4,72,77,64
4,73,77,66
4,75,77,64
4,77,118,73
4,75,77,64
4,77,77,73
4,79,77,65
4,68,95,51
4,66,82,1
4,68,89,64
4,70,115,0
4,68,77,4
4,70,67,1
4,72,115,63
4,70,77,57
4,72,70,57
4,73,109,61
4,72,77,1
4,73,70,2
4,75,112,3
4,73,77,0
4,75,85,1
4,77,94,48
4,79,121,0
4,77,77,47
4,79,85,1
4,80,103,2
4,82,115,2
4,80,77,0
4,82,85,2
4,84,100,0
4,85,118,2
4,84,77,47
4,85,88,0
4,87,103,0
4,88,118,3
4,85,73,42
4,81,88,3
4,76,100,2
4,85,121,3
4,81,81,2
4,76,91,1
4,73,94,1
4,81,121,2
4,76,77,47
4,73,82,1
4,69,97,0
4,76,127,3
4,73,77,21
4,69,85,0
4,64,99,0
4,87,121,0
4,82,81,39
4,79,90,3
4,75,99,0
4,82,124,5
4,79,73,1
4,75,81,1
4,70,103,3
4,75,124,0
4,84,106,15276
4,85,108,49
4,87,108,49
4,79,103,388
4,80,103,48
4,82,108,50
4,80,89,50
4,80,103,49
4,84,106,24
4,87,108,48
4,89,106,49
4,81,112,2386
4,82,112,105
4,84,112,115
4,84,95,19
4,77,108,97
4,79,90,110
4,81,99,104
4,81,89,19
4,74,99,81
4,77,99,61
4,82,108,63
4,84,89,26
4,83,99,82
4,84,81,0
4,86,99,72
4,83,81,51
4,84,95,26
4,81,112,126
4,82,112,103
4,84,89,99
4,77,108,85
4,79,90,110
4,81,92,103
4,74,99,99
4,77,99,62
4,82,108,61
4,84,85,26
4,83,99,84
4,84,81,2
4,86,99,72
4,83,81,50
4,84,99,27
4,73,49,281
4,75,62,23
4,77,77,1
4,79,95,24
4,80,109,1
4,80,109,124
4,75,92,158
4,82,109,287
4,75,85,146
4,72,77,67
4,73,118,49
4,72,77,64
4,73,77,67
4,75,77,64
4,77,118,73
4,75,77,65
4,77,77,70
4,79,77,64
4,68,107,49
4,66,87,1
4,68,80,63
4,70,115,0
4,68,77,5
4,70,67,2
4,72,115,62
4,70,77,58
4,72,70,58
4,73,109,61
4,72,77,1
4,73,70,1
4,75,112,4
4,73,77,1
4,75,85,1
4,77,94,48
4,79,121,0
4,77,77,47
4,79,85,2
4,80,103,1
4,82,115,3
4,80,77,0
4,82,85,2
4,84,100,47
4,85,118,3
4,84,77,47
4,85,88,0
4,87,103,0
4,88,118,2
4,85,73,39
4,81,88,2
4,76,100,1
4,85,121,2
4,81,81,1
4,76,91,1
4,73,94,2
4,81,121,3
4,76,77,47
4,73,82,1
4,69,97,1
4,76,127,3
4,73,77,21
4,69,85,34
4,64,99,47
4,87,121,4
4,82,81,38
4,79,90,0
4,75,99,1
4,82,124,3
4,79,73,1
4,75,81,1
4,70,103,0
4,75,124,0
4,84,106,6037
4,85,108,51
4,87,108,50
4,79,103,394
4,80,103,51
4,82,108,51
4,80,79,50
4,80,103,51
4,84,106,27
4,87,108,50
4,89,106,51
4,81,112,2408
4,82,112,106
4,84,112,112
4,84,92,18
4,77,108,97
4,79,90,111
4,81,99,103
4,81,85,20
4,74,99,80
4,77,99,63
4,82,108,63
4,84,85,27
4,83,99,82
4,84,81,2
4,86,99,72
4,83,81,50
4,84,92,26
4,81,112,122
4,82,112,104
4,84,112,100
4,84,85,18
4,77,108,98
4,79,90,110
4,81,99,102
4,81,85,19
4,74,99,82
4,77,99,62
4,82,108,61
4,84,79,26
4,83,99,82
4,84,81,3
4,86,99,73
4,83,81,49
4,84,85,26
4,82,112,122
4,83,112,118
4,85,112,113
4,85,92,32
4,78,108,91
4,80,90,109
4,82,99,102
4,82,92,31
4,75,99,81
4,78,99,62
4,83,108,61
4,85,90,27
4,84,99,19
4,85,81,3
4,87,99,57
4,84,81,50
4,85,85,26
4,82,112,86
4,83,112,113
4,85,112,114
4,85,85,31
4,78,108,89
4,80,90,108
4,82,99,101
4,82,92,32
4,75,99,81
4,78,99,62
4,83,108,62
4,85,90,25
4,84,99,21
4,85,81,1
4,87,99,59
4,84,81,49
4,85,85,25
4,82,112,88
4,83,112,105
4,85,112,100
4,85,85,32
4,78,108,91
4,80,90,108
4,82,99,102
4,82,85,32
4,75,99,82
4,78,99,62
4,83,108,62
4,85,90,26
4,84,99,20
4,85,81,3
4,87,99,55
4,84,81,51
4,85,85,25
4,82,112,88
4,83,112,103
4,85,112,100
4,85,85,32
4,78,108,90
4,80,90,108
4,82,99,103
4,82,85,31
4,75,99,79
4,78,99,61
4,83,108,62
4,85,90,26
4,84,99,21
4,85,81,2
4,87,99,56
4,84,81,49
4,85,85,25
4,82,50,36
5,84,105,6549
5,84,107,52
5,84,107,53
5,84,99,56
5,82,107,95
5,80,107,2
5,79,99,5
5,80,115,0
5,77,111,95
5,84,103,700
5,84,107,56
5,84,105,55
5,84,105,53
5,82,107,94
5,80,111,72
5,79,103,0
5,80,115,0
5,79,107,794
5,79,107,56
5,79,101,47
5,79,101,49
5,79,103,50
5,80,107,16
5,82,107,5
5,84,105,97
5,85,107,80
5,84,105,95
5,82,105,85
5,84,107,179
5,84,105,95
5,84,111,109
5,84,105,23
5,84,94,28
5,84,103,23
5,82,107,95
5,80,107,9
5,79,105,12
5,80,105,11
5,77,101,10
5,84,105,523
5,84,103,57
5,84,103,35
5,84,103,44
5,84,99,48
5,82,107,95
5,80,105,15
5,79,103,22
5,80,107,0
5,77,107,7
5,79,107,694
5,79,98,43
5,79,107,38
5,79,94,47
5,79,105,41
5,80,111,7
5,82,101,13
5,84,107,97
5,85,103,1
5,84,105,0
5,82,111,97
5,82,105,44
5,72,105,103
5,72,101,8
5,84,102,0
5,85,103,7
5,84,98,0
5,82,105,95
5,84,101,47
5,84,111,98
5,84,107,142
5,80,115,18
5,82,115,434
5,79,107,0
5,80,111,453
5,77,115,12
5,73,111,143
5,72,115,29
5,72,115,70
5,80,115,642
5,80,115,56
5,82,111,144
5,84,105,19
5,82,107,141
5,82,111,59
5,80,111,18
5,80,105,49
5,77,105,6
5,77,115,45
5,77,111,69
5,84,107,69
5,82,115,66
5,80,115,2
5,80,115,43
5,77,105,148
5,77,107,58
5,84,103,5
5,82,111,53
5,84,105,50
5,82,103,63
5,84,105,0
5,82,101,71
5,84,107,19
5,84,105,42
5,84,107,169
5,80,115,18
5,82,115,439
5,79,107,0
5,80,111,455
5,77,115,13
5,73,111,145
5,72,115,29
5,72,115,68
5,80,115,641
5,80,119,53
5,82,111,143
5,84,107,13
5,82,111,138
5,80,115,14
5,80,115,44
5,80,119,63
5,77,101,117
5,84,105,12
5,82,107,66
5,82,107,43
5,80,111,72
5,80,111,39
5,77,96,73
5,80,107,9
5,77,101,3
5,84,105,48
5,82,111,51
5,84,107,47
5,82,107,0
5,84,107,0
5,82,111,69
5,84,105,57
5,84,98,27
5,84,111,64
5,84,107,67
5,82,107,82
5,81,107,67
5,79,96,78
5,77,101,7
5,79,111,49
5,79,107,41
5,81,107,13
5,81,111,42
5,81,107,489
5,79,111,0
5,77,111,160
5,76,107,10
5,74,107,83
5,76,115,67
5,73,111,147
5,69,115,76
5,74,111,349
5,72,115,87
5,70,115,2
5,72,119,72
5,74,111,68
5,77,115,0
5,72,115,233
5,79,115,170
5,77,119,79
5,79,119,0
5,77,115,94
5,79,119,0
5,77,119,79
5,79,119,76
5,77,115,0
5,79,115,0
5,77,115,73
5,79,115,64
5,77,123,77
5,79,115,69
5,84,111,15
5,84,107,233
5,82,107,54
5,81,107,29
5,79,107,81
5,77,105,73
5,79,111,85
5,79,111,38
5,81,103,50
5,81,115,39
5,81,111,367
5,79,111,84
5,77,115,161
5,76,111,7
5,74,115,85
5,76,111,9
5,76,107,34
5,73,115,8
5,69,105,4
5,74,111,304
5,72,119,84
5,70,111,0
5,72,115,76
5,74,107,8
5,77,107,3
5,72,115,236
5,72,115,83
5,79,111,16
5,77,111,7
5,79,111,84
5,77,105,10
5,79,111,80
5,79,107,45
5,77,115,104
5,79,107,14
5,77,111,15
5,79,107,0
5,77,115,0
5,79,105,80
5,84,111,5
5,84,111,5343
5,84,105,23
5,84,94,29
5,84,103,22
5,82,107,97
5,80,107,8
5,79,105,10
5,80,105,11
5,77,101,9
5,84,103,716
5,84,103,34
5,84,103,44
5,84,99,47
5,82,107,95
5,80,105,12
5,79,103,24
5,80,107,0
5,79,107,775
5,79,98,43
5,79,107,39
5,79,94,47
5,79,105,42
5,80,111,9
5,82,101,13
5,84,107,97
5,85,103,2
5,84,105,0
5,82,111,97
5,82,105,43
5,72,105,102
5,84,102,56
5,85,103,8
5,84,98,0
5,82,105,95
5,84,101,46
5,84,107,295
5,80,115,19
5,82,115,438
5,79,107,0
5,80,111,452
5,77,115,11
5,73,111,143
5,72,115,29
5,72,115,69
5,80,115,654
5,80,119,53
5,82,111,143
5,84,107,12
5,82,111,141
5,80,115,14
5,80,115,45
5,80,119,63
5,77,101,116
5,84,105,11
5,82,107,68
5,82,107,45
5,80,111,71
5,80,111,38
5,77,96,74
5,80,107,10
5,77,101,2
5,84,105,47
5,82,111,52
5,84,107,0
5,82,107,0
5,84,107,0
5,82,111,67
5,84,105,58
5,84,98,26
5,84,111,63
5,84,107,67
5,82,107,81
5,81,107,66
5,79,96,80
5,77,101,5
5,79,111,50
