track,note,velocity,time
0.0,42.0,110.0,0.0
0.0,42.0,90.0,75.0
0.0,42.0,90.0,80.0
0.0,42.0,90.0,395.0
0.0,72.0,124.0,395.0
0.0,74.0,121.0,12.0
0.0,74.0,116.0,84.0
0.0,74.0,118.0,44.0
0.0,81.0,109.0,240.0
0.0,74.0,114.0,17.0
0.0,36.0,121.0,480.0
0.0,46.0,110.0,0.0
0.0,49.0,121.0,0.0
0.0,46.0,105.0,223.0
0.0,46.0,99.0,351.0
0.0,46.0,103.0,359.0
0.0,36.0,121.0,97.0
0.0,49.0,111.0,0.0
0.0,46.0,99.0,2.0
0.0,36.0,121.0,337.0
0.0,46.0,110.0,0.0
0.0,49.0,111.0,0.0
0.0,46.0,105.0,351.0
0.0,46.0,108.0,341.0
0.0,36.0,121.0,350.0
0.0,46.0,110.0,0.0
0.0,49.0,121.0,0.0
0.0,46.0,105.0,223.0
0.0,46.0,99.0,351.0
0.0,46.0,103.0,359.0
0.0,36.0,121.0,97.0
0.0,49.0,111.0,0.0
0.0,46.0,99.0,69.0
0.0,36.0,121.0,337.0
0.0,46.0,110.0,0.0
0.0,49.0,111.0,0.0
0.0,46.0,105.0,351.0
0.0,46.0,108.0,341.0
0.0,36.0,121.0,350.0
0.0,46.0,110.0,0.0
0.0,49.0,121.0,0.0
0.0,46.0,105.0,223.0
0.0,46.0,99.0,351.0
0.0,46.0,103.0,359.0
0.0,36.0,121.0,97.0
0.0,49.0,111.0,0.0
0.0,46.0,99.0,69.0
0.0,36.0,121.0,337.0
0.0,46.0,110.0,0.0
0.0,49.0,111.0,0.0
0.0,46.0,105.0,351.0
0.0,46.0,108.0,341.0
0.0,36.0,121.0,350.0
0.0,46.0,110.0,0.0
0.0,49.0,121.0,0.0
0.0,46.0,105.0,223.0
0.0,46.0,99.0,351.0
0.0,46.0,103.0,359.0
0.0,36.0,121.0,97.0
0.0,49.0,111.0,0.0
0.0,46.0,99.0,69.0
0.0,36.0,121.0,337.0
0.0,46.0,110.0,0.0
0.0,49.0,111.0,0.0
0.0,46.0,105.0,351.0
0.0,46.0,108.0,341.0
0.0,36.0,116.0,350.0
0.0,46.0,110.0,0.0
0.0,36.0,107.0,82.0
0.0,46.0,105.0,61.0
0.0,36.0,116.0,111.0
0.0,38.0,127.0,44.0
0.0,46.0,99.0,0.0
0.0,36.0,116.0,119.0
0.0,46.0,103.0,48.0
0.0,36.0,116.0,97.0
0.0,36.0,121.0,47.0
0.0,46.0,99.0,0.0
0.0,36.0,121.0,337.0
0.0,46.0,110.0,0.0
0.0,36.0,111.0,111.0
0.0,38.0,121.0,70.0
0.0,46.0,105.0,0.0
0.0,36.0,116.0,101.0
0.0,46.0,108.0,58.0
0.0,36.0,121.0,110.0
0.0,36.0,116.0,32.0
0.0,46.0,110.0,0.0
0.0,36.0,107.0,82.0
0.0,46.0,105.0,61.0
0.0,36.0,116.0,111.0
0.0,38.0,127.0,44.0
0.0,46.0,99.0,0.0
0.0,36.0,116.0,119.0
0.0,46.0,103.0,48.0
0.0,36.0,116.0,97.0
0.0,36.0,121.0,47.0
0.0,46.0,99.0,0.0
0.0,36.0,121.0,337.0
0.0,46.0,110.0,0.0
0.0,36.0,111.0,111.0
0.0,38.0,121.0,70.0
0.0,46.0,105.0,0.0
0.0,36.0,116.0,101.0
0.0,46.0,108.0,58.0
0.0,36.0,121.0,110.0
0.0,36.0,116.0,32.0
0.0,46.0,110.0,0.0
0.0,36.0,107.0,82.0
0.0,46.0,105.0,61.0
0.0,36.0,116.0,111.0
0.0,38.0,127.0,44.0
0.0,46.0,99.0,0.0
0.0,36.0,116.0,119.0
0.0,46.0,103.0,48.0
0.0,36.0,116.0,97.0
0.0,36.0,121.0,47.0
0.0,46.0,99.0,0.0
0.0,36.0,121.0,337.0
0.0,46.0,110.0,0.0
0.0,36.0,111.0,111.0
0.0,38.0,121.0,70.0
0.0,46.0,105.0,0.0
0.0,36.0,116.0,101.0
0.0,46.0,108.0,58.0
0.0,36.0,121.0,110.0
0.0,36.0,116.0,32.0
0.0,46.0,110.0,0.0
0.0,36.0,107.0,82.0
0.0,46.0,105.0,61.0
0.0,36.0,116.0,111.0
0.0,38.0,127.0,44.0
0.0,46.0,99.0,0.0
0.0,36.0,116.0,119.0
0.0,46.0,103.0,48.0
0.0,36.0,116.0,97.0
0.0,70.0,118.0,0.0
0.0,36.0,121.0,91.0
0.0,46.0,99.0,0.0
0.0,49.0,98.0,0.0
0.0,72.0,116.0,0.0
0.0,72.0,121.0,61.0
0.0,72.0,116.0,81.0
0.0,72.0,118.0,80.0
0.0,75.0,116.0,59.0
0.0,72.0,114.0,47.0
0.0,36.0,116.0,61.0
0.0,46.0,110.0,0.0
0.0,49.0,98.0,0.0
0.0,24.0,123.0,0.0
0.0,48.0,121.0,0.0
0.0,55.0,116.0,0.0
0.0,60.0,121.0,0.0
0.0,36.0,107.0,4.0
0.0,24.0,125.0,0.0
0.0,48.0,124.0,0.0
0.0,55.0,116.0,0.0
0.0,60.0,124.0,0.0
0.0,46.0,105.0,3.0
0.0,36.0,116.0,111.0
0.0,38.0,127.0,44.0
0.0,46.0,99.0,0.0
0.0,24.0,125.0,0.0
0.0,48.0,121.0,0.0
0.0,55.0,118.0,0.0
0.0,60.0,118.0,0.0
0.0,36.0,116.0,4.0
0.0,24.0,125.0,0.0
0.0,48.0,127.0,0.0
0.0,55.0,116.0,0.0
0.0,60.0,118.0,0.0
0.0,46.0,103.0,7.0
0.0,36.0,116.0,97.0
0.0,36.0,121.0,47.0
0.0,46.0,99.0,0.0
0.0,27.0,123.0,0.0
0.0,51.0,121.0,0.0
0.0,58.0,121.0,0.0
0.0,63.0,118.0,0.0
0.0,36.0,121.0,4.0
0.0,46.0,110.0,0.0
0.0,24.0,121.0,0.0
0.0,48.0,121.0,0.0
0.0,55.0,116.0,0.0
0.0,60.0,118.0,0.0
0.0,36.0,111.0,4.0
0.0,24.0,121.0,0.0
0.0,48.0,118.0,0.0
0.0,55.0,121.0,0.0
0.0,60.0,121.0,0.0
0.0,38.0,121.0,4.0
0.0,46.0,105.0,0.0
0.0,27.0,123.0,0.0
0.0,51.0,121.0,0.0
0.0,58.0,121.0,0.0
0.0,63.0,114.0,0.0
0.0,36.0,116.0,101.0
0.0,46.0,108.0,4.0
0.0,24.0,123.0,0.0
0.0,48.0,124.0,0.0
0.0,55.0,116.0,0.0
0.0,60.0,118.0,0.0
0.0,36.0,121.0,110.0
0.0,36.0,116.0,4.0
0.0,46.0,110.0,0.0
0.0,24.0,123.0,0.0
0.0,48.0,121.0,0.0
0.0,55.0,116.0,0.0
0.0,60.0,121.0,0.0
0.0,36.0,107.0,4.0
0.0,24.0,121.0,0.0
0.0,48.0,124.0,0.0
0.0,55.0,116.0,0.0
0.0,60.0,124.0,0.0
0.0,46.0,105.0,3.0
0.0,36.0,116.0,111.0
0.0,38.0,127.0,44.0
0.0,46.0,99.0,0.0
0.0,24.0,127.0,0.0
0.0,48.0,121.0,0.0
0.0,55.0,118.0,0.0
0.0,60.0,118.0,0.0
0.0,36.0,116.0,4.0
0.0,24.0,121.0,0.0
0.0,48.0,127.0,0.0
0.0,55.0,116.0,0.0
0.0,60.0,118.0,0.0
0.0,46.0,103.0,7.0
0.0,36.0,116.0,97.0
0.0,36.0,121.0,47.0
0.0,46.0,99.0,0.0
0.0,27.0,125.0,0.0
0.0,51.0,124.0,0.0
0.0,58.0,121.0,0.0
0.0,63.0,116.0,0.0
0.0,36.0,121.0,4.0
0.0,46.0,110.0,0.0
0.0,24.0,121.0,0.0
0.0,48.0,116.0,0.0
0.0,55.0,116.0,0.0
0.0,60.0,118.0,0.0
0.0,36.0,111.0,4.0
0.0,27.0,121.0,0.0
0.0,51.0,118.0,0.0
0.0,58.0,116.0,0.0
0.0,63.0,118.0,0.0
0.0,38.0,121.0,70.0
0.0,46.0,105.0,0.0
0.0,36.0,116.0,4.0
0.0,24.0,116.0,0.0
0.0,48.0,116.0,0.0
0.0,55.0,114.0,0.0
0.0,60.0,116.0,0.0
0.0,46.0,108.0,4.0
0.0,27.0,119.0,0.0
0.0,51.0,110.0,0.0
0.0,58.0,107.0,0.0
0.0,63.0,116.0,0.0
0.0,36.0,121.0,110.0
0.0,36.0,116.0,4.0
0.0,46.0,110.0,0.0
0.0,24.0,123.0,0.0
0.0,48.0,121.0,0.0
0.0,55.0,116.0,0.0
0.0,60.0,121.0,0.0
0.0,36.0,107.0,4.0
0.0,24.0,125.0,0.0
0.0,48.0,124.0,0.0
0.0,55.0,116.0,0.0
0.0,60.0,124.0,0.0
0.0,46.0,105.0,3.0
0.0,36.0,116.0,111.0
0.0,38.0,127.0,44.0
0.0,46.0,99.0,0.0
0.0,24.0,125.0,0.0
0.0,48.0,121.0,0.0
0.0,55.0,118.0,0.0
0.0,60.0,118.0,0.0
0.0,36.0,116.0,4.0
0.0,24.0,125.0,0.0
0.0,48.0,127.0,0.0
0.0,55.0,116.0,0.0
0.0,60.0,118.0,0.0
0.0,46.0,103.0,7.0
0.0,36.0,116.0,97.0
0.0,36.0,121.0,47.0
0.0,46.0,99.0,0.0
0.0,27.0,123.0,0.0
0.0,51.0,121.0,0.0
0.0,58.0,121.0,0.0
0.0,63.0,118.0,0.0
0.0,36.0,121.0,4.0
0.0,46.0,110.0,0.0
0.0,24.0,121.0,0.0
0.0,48.0,121.0,0.0
0.0,55.0,116.0,0.0
0.0,60.0,118.0,0.0
0.0,36.0,111.0,4.0
0.0,24.0,121.0,0.0
0.0,48.0,118.0,0.0
0.0,55.0,121.0,0.0
0.0,60.0,121.0,0.0
0.0,38.0,121.0,4.0
0.0,46.0,105.0,0.0
0.0,27.0,123.0,0.0
0.0,51.0,121.0,0.0
0.0,58.0,121.0,0.0
0.0,63.0,114.0,0.0
0.0,36.0,116.0,101.0
0.0,46.0,108.0,4.0
0.0,24.0,123.0,0.0
0.0,48.0,124.0,0.0
0.0,55.0,116.0,0.0
0.0,60.0,118.0,0.0
0.0,36.0,121.0,110.0
0.0,36.0,116.0,4.0
0.0,46.0,110.0,0.0
0.0,24.0,123.0,0.0
0.0,48.0,121.0,0.0
0.0,55.0,116.0,0.0
0.0,60.0,121.0,0.0
0.0,36.0,107.0,4.0
0.0,24.0,121.0,0.0
0.0,48.0,124.0,0.0
0.0,55.0,116.0,0.0
0.0,60.0,124.0,0.0
0.0,46.0,105.0,3.0
0.0,36.0,116.0,111.0
0.0,38.0,127.0,44.0
0.0,46.0,99.0,0.0
0.0,24.0,127.0,0.0
0.0,48.0,121.0,0.0
0.0,55.0,118.0,0.0
0.0,60.0,118.0,0.0
0.0,36.0,116.0,4.0
0.0,24.0,121.0,0.0
0.0,48.0,127.0,0.0
0.0,55.0,116.0,0.0
0.0,60.0,118.0,0.0
0.0,46.0,103.0,7.0
0.0,36.0,116.0,97.0
0.0,70.0,118.0,0.0
0.0,36.0,121.0,91.0
0.0,46.0,99.0,0.0
0.0,27.0,125.0,0.0
0.0,51.0,124.0,0.0
0.0,58.0,121.0,0.0
0.0,63.0,116.0,0.0
0.0,72.0,116.0,0.0
0.0,72.0,121.0,61.0
0.0,36.0,121.0,4.0
0.0,46.0,110.0,0.0
0.0,24.0,121.0,0.0
0.0,48.0,116.0,0.0
0.0,55.0,116.0,0.0
0.0,60.0,118.0,0.0
0.0,72.0,116.0,0.0
0.0,36.0,111.0,4.0
0.0,27.0,121.0,0.0
0.0,51.0,118.0,0.0
0.0,58.0,116.0,0.0
0.0,63.0,118.0,0.0
0.0,72.0,118.0,0.0
0.0,38.0,121.0,59.0
0.0,46.0,105.0,0.0
0.0,75.0,116.0,0.0
0.0,36.0,116.0,4.0
0.0,24.0,116.0,0.0
0.0,48.0,116.0,0.0
0.0,55.0,114.0,0.0
0.0,60.0,116.0,0.0
0.0,46.0,108.0,4.0
0.0,27.0,119.0,0.0
0.0,51.0,110.0,0.0
0.0,58.0,107.0,0.0
0.0,63.0,116.0,0.0
0.0,72.0,114.0,0.0
0.0,36.0,121.0,110.0
0.0,36.0,116.0,4.0
0.0,46.0,110.0,0.0
0.0,49.0,98.0,0.0
0.0,24.0,123.0,0.0
0.0,48.0,121.0,0.0
0.0,55.0,116.0,0.0
0.0,60.0,121.0,0.0
0.0,36.0,107.0,4.0
0.0,24.0,125.0,0.0
0.0,48.0,124.0,0.0
0.0,55.0,116.0,0.0
0.0,60.0,124.0,0.0
0.0,46.0,105.0,3.0
0.0,36.0,116.0,111.0
0.0,38.0,127.0,44.0
0.0,46.0,99.0,0.0
0.0,24.0,125.0,0.0
0.0,48.0,121.0,0.0
0.0,55.0,118.0,0.0
0.0,60.0,118.0,0.0
0.0,36.0,116.0,4.0
0.0,24.0,125.0,0.0
0.0,48.0,127.0,0.0
0.0,55.0,116.0,0.0
0.0,60.0,118.0,0.0
0.0,46.0,103.0,7.0
0.0,36.0,116.0,97.0
0.0,36.0,121.0,47.0
0.0,46.0,99.0,0.0
0.0,27.0,123.0,0.0
0.0,51.0,121.0,0.0
0.0,58.0,121.0,0.0
0.0,63.0,118.0,0.0
0.0,36.0,121.0,4.0
0.0,46.0,110.0,0.0
0.0,24.0,121.0,0.0
0.0,48.0,121.0,0.0
0.0,55.0,116.0,0.0
0.0,60.0,118.0,0.0
0.0,36.0,111.0,4.0
0.0,24.0,121.0,0.0
0.0,48.0,118.0,0.0
0.0,55.0,121.0,0.0
0.0,60.0,121.0,0.0
0.0,38.0,121.0,4.0
0.0,46.0,105.0,0.0
0.0,27.0,123.0,0.0
0.0,51.0,121.0,0.0
0.0,58.0,121.0,0.0
0.0,63.0,114.0,0.0
0.0,36.0,116.0,101.0
0.0,46.0,108.0,4.0
0.0,24.0,123.0,0.0
0.0,48.0,124.0,0.0
0.0,55.0,116.0,0.0
0.0,60.0,118.0,0.0
0.0,36.0,121.0,110.0
0.0,36.0,116.0,4.0
0.0,46.0,110.0,0.0
0.0,24.0,123.0,0.0
0.0,48.0,121.0,0.0
0.0,55.0,116.0,0.0
0.0,60.0,121.0,0.0
0.0,36.0,107.0,4.0
0.0,24.0,121.0,0.0
0.0,48.0,124.0,0.0
0.0,55.0,116.0,0.0
0.0,60.0,124.0,0.0
0.0,46.0,105.0,3.0
0.0,36.0,116.0,111.0
0.0,38.0,127.0,44.0
0.0,46.0,99.0,0.0
0.0,24.0,127.0,0.0
0.0,48.0,121.0,0.0
0.0,55.0,118.0,0.0
0.0,60.0,118.0,0.0
0.0,36.0,116.0,4.0
0.0,24.0,121.0,0.0
0.0,48.0,127.0,0.0
0.0,55.0,116.0,0.0
0.0,60.0,118.0,0.0
0.0,46.0,103.0,7.0
0.0,36.0,116.0,97.0
0.0,36.0,121.0,47.0
0.0,46.0,99.0,0.0
0.0,27.0,125.0,0.0
0.0,51.0,124.0,0.0
0.0,58.0,121.0,0.0
0.0,63.0,116.0,0.0
0.0,36.0,121.0,4.0
0.0,46.0,110.0,0.0
0.0,24.0,121.0,0.0
0.0,48.0,116.0,0.0
0.0,55.0,116.0,0.0
0.0,60.0,118.0,0.0
0.0,36.0,111.0,4.0
0.0,27.0,121.0,0.0
0.0,51.0,118.0,0.0
0.0,58.0,116.0,0.0
0.0,63.0,118.0,0.0
0.0,38.0,121.0,70.0
0.0,46.0,105.0,0.0
0.0,36.0,116.0,4.0
0.0,24.0,116.0,0.0
0.0,48.0,116.0,0.0
0.0,55.0,114.0,0.0
0.0,60.0,116.0,0.0
0.0,46.0,108.0,4.0
0.0,27.0,119.0,0.0
0.0,51.0,110.0,0.0
0.0,58.0,107.0,0.0
0.0,63.0,116.0,0.0
0.0,36.0,121.0,110.0
0.0,36.0,116.0,4.0
0.0,46.0,110.0,0.0
0.0,24.0,123.0,0.0
0.0,48.0,121.0,0.0
0.0,55.0,116.0,0.0
0.0,60.0,121.0,0.0
0.0,36.0,107.0,4.0
0.0,24.0,125.0,0.0
0.0,48.0,124.0,0.0
0.0,55.0,116.0,0.0
0.0,60.0,124.0,0.0
0.0,46.0,105.0,3.0
0.0,36.0,116.0,111.0
0.0,38.0,127.0,44.0
0.0,46.0,99.0,0.0
0.0,24.0,125.0,0.0
0.0,48.0,121.0,0.0
0.0,55.0,118.0,0.0
0.0,60.0,118.0,0.0
0.0,36.0,116.0,4.0
0.0,24.0,125.0,0.0
0.0,48.0,127.0,0.0
0.0,55.0,116.0,0.0
0.0,60.0,118.0,0.0
0.0,46.0,103.0,7.0
0.0,36.0,116.0,97.0
0.0,36.0,121.0,47.0
0.0,46.0,99.0,0.0
0.0,27.0,123.0,0.0
0.0,51.0,121.0,0.0
0.0,58.0,121.0,0.0
0.0,63.0,118.0,0.0
0.0,36.0,121.0,4.0
0.0,46.0,110.0,0.0
0.0,24.0,121.0,0.0
0.0,48.0,121.0,0.0
0.0,55.0,116.0,0.0
0.0,60.0,118.0,0.0
0.0,36.0,111.0,4.0
0.0,24.0,121.0,0.0
0.0,48.0,118.0,0.0
0.0,55.0,121.0,0.0
0.0,60.0,121.0,0.0
0.0,38.0,121.0,4.0
0.0,46.0,105.0,0.0
0.0,27.0,123.0,0.0
0.0,51.0,121.0,0.0
0.0,58.0,121.0,0.0
0.0,63.0,114.0,0.0
0.0,36.0,116.0,101.0
0.0,46.0,108.0,4.0
0.0,24.0,123.0,0.0
0.0,48.0,124.0,0.0
0.0,55.0,116.0,0.0
0.0,60.0,118.0,0.0
0.0,36.0,121.0,110.0
0.0,36.0,116.0,4.0
0.0,46.0,110.0,0.0
0.0,24.0,123.0,0.0
0.0,48.0,121.0,0.0
0.0,55.0,116.0,0.0
0.0,60.0,121.0,0.0
0.0,36.0,107.0,4.0
0.0,24.0,121.0,0.0
0.0,48.0,124.0,0.0
0.0,55.0,116.0,0.0
0.0,60.0,124.0,0.0
0.0,46.0,105.0,3.0
0.0,36.0,116.0,111.0
0.0,38.0,127.0,44.0
0.0,46.0,99.0,0.0
0.0,24.0,127.0,0.0
0.0,48.0,121.0,0.0
0.0,55.0,118.0,0.0
0.0,60.0,118.0,0.0
0.0,36.0,116.0,4.0
0.0,24.0,121.0,0.0
0.0,48.0,127.0,0.0
0.0,55.0,116.0,0.0
0.0,60.0,118.0,0.0
0.0,46.0,103.0,7.0
0.0,36.0,116.0,97.0
0.0,36.0,121.0,47.0
0.0,46.0,99.0,0.0
0.0,27.0,125.0,0.0
0.0,51.0,124.0,0.0
0.0,58.0,121.0,0.0
0.0,63.0,116.0,0.0
0.0,36.0,121.0,4.0
0.0,46.0,110.0,0.0
0.0,24.0,121.0,0.0
0.0,48.0,116.0,0.0
0.0,55.0,116.0,0.0
0.0,60.0,118.0,0.0
0.0,36.0,111.0,4.0
0.0,27.0,121.0,0.0
0.0,51.0,118.0,0.0
0.0,58.0,116.0,0.0
0.0,63.0,118.0,0.0
0.0,38.0,121.0,70.0
0.0,46.0,105.0,0.0
0.0,38.0,116.0,4.0
0.0,24.0,116.0,0.0
0.0,48.0,116.0,0.0
0.0,55.0,114.0,0.0
0.0,60.0,116.0,0.0
0.0,46.0,108.0,4.0
0.0,27.0,119.0,0.0
0.0,51.0,110.0,0.0
0.0,58.0,107.0,0.0
0.0,63.0,116.0,0.0
0.0,36.0,121.0,110.0
0.0,42.0,113.0,4.0
0.0,52.0,91.0,0.0
0.0,42.0,49.0,57.0
0.0,52.0,93.0,0.0
0.0,42.0,106.0,118.0
0.0,59.0,124.0,0.0
0.0,64.0,116.0,0.0
0.0,42.0,49.0,86.0
0.0,42.0,113.0,4.0
0.0,59.0,118.0,0.0
0.0,64.0,116.0,0.0
0.0,42.0,50.0,66.0
0.0,42.0,103.0,85.0
0.0,52.0,93.0,0.0
0.0,42.0,43.0,73.0
0.0,52.0,88.0,0.0
0.0,42.0,107.0,72.0
0.0,59.0,124.0,0.0
0.0,64.0,121.0,0.0
0.0,42.0,46.0,48.0
0.0,42.0,113.0,4.0
0.0,59.0,118.0,0.0
0.0,64.0,116.0,0.0
0.0,42.0,49.0,69.0
0.0,42.0,113.0,57.0
0.0,52.0,95.0,0.0
0.0,42.0,47.0,60.0
0.0,52.0,91.0,0.0
0.0,42.0,113.0,100.0
0.0,59.0,121.0,0.0
0.0,64.0,116.0,0.0
0.0,42.0,47.0,39.0
0.0,42.0,113.0,39.0
0.0,52.0,91.0,0.0
0.0,42.0,49.0,57.0
0.0,52.0,93.0,0.0
0.0,42.0,106.0,118.0
0.0,59.0,124.0,0.0
0.0,64.0,116.0,0.0
0.0,42.0,49.0,86.0
0.0,42.0,113.0,4.0
0.0,59.0,118.0,0.0
0.0,64.0,116.0,0.0
0.0,42.0,50.0,66.0
0.0,42.0,103.0,85.0
0.0,52.0,93.0,0.0
0.0,42.0,43.0,73.0
0.0,52.0,88.0,0.0
0.0,42.0,107.0,72.0
0.0,59.0,124.0,0.0
0.0,64.0,121.0,0.0
0.0,42.0,46.0,48.0
0.0,42.0,113.0,4.0
0.0,59.0,118.0,0.0
0.0,64.0,116.0,0.0
0.0,42.0,49.0,69.0
0.0,42.0,113.0,57.0
0.0,52.0,95.0,0.0
0.0,42.0,47.0,60.0
0.0,52.0,91.0,0.0
0.0,36.0,121.0,100.0
0.0,42.0,113.0,0.0
0.0,59.0,121.0,0.0
0.0,64.0,116.0,0.0
0.0,38.0,121.0,110.0
0.0,42.0,47.0,0.0
0.0,36.0,121.0,82.0
0.0,42.0,113.0,0.0
0.0,24.0,123.0,0.0
0.0,52.0,91.0,0.0
0.0,36.0,116.0,87.0
0.0,42.0,49.0,0.0
0.0,24.0,123.0,0.0
0.0,52.0,93.0,0.0
0.0,42.0,106.0,36.0
0.0,59.0,124.0,0.0
0.0,64.0,116.0,0.0
0.0,42.0,49.0,86.0
0.0,38.0,121.0,4.0
0.0,42.0,113.0,0.0
0.0,59.0,118.0,0.0
0.0,64.0,116.0,0.0
0.0,42.0,50.0,66.0
0.0,36.0,116.0,85.0
0.0,42.0,103.0,0.0
0.0,24.0,125.0,0.0
0.0,52.0,93.0,0.0
0.0,36.0,116.0,81.0
0.0,42.0,43.0,0.0
0.0,24.0,125.0,0.0
0.0,52.0,88.0,0.0
0.0,42.0,107.0,22.0
0.0,59.0,124.0,0.0
0.0,64.0,121.0,0.0
0.0,42.0,46.0,48.0
0.0,42.0,113.0,4.0
0.0,59.0,118.0,0.0
0.0,64.0,116.0,0.0
0.0,36.0,121.0,69.0
0.0,42.0,49.0,0.0
0.0,24.0,125.0,0.0
0.0,38.0,121.0,106.0
0.0,42.0,113.0,0.0
0.0,24.0,121.0,0.0
0.0,52.0,95.0,0.0
0.0,42.0,47.0,60.0
0.0,52.0,91.0,0.0
0.0,42.0,113.0,100.0
0.0,59.0,121.0,0.0
0.0,64.0,116.0,0.0
0.0,38.0,116.0,39.0
0.0,42.0,47.0,0.0
0.0,36.0,121.0,39.0
0.0,42.0,113.0,0.0
0.0,24.0,123.0,0.0
0.0,52.0,91.0,0.0
0.0,36.0,116.0,87.0
0.0,42.0,49.0,0.0
0.0,24.0,123.0,0.0
0.0,52.0,93.0,0.0
0.0,42.0,106.0,36.0
0.0,59.0,124.0,0.0
0.0,64.0,116.0,0.0
0.0,42.0,49.0,86.0
0.0,38.0,121.0,4.0
0.0,42.0,113.0,0.0
0.0,59.0,118.0,0.0
0.0,64.0,116.0,0.0
0.0,42.0,50.0,66.0
0.0,36.0,116.0,85.0
0.0,42.0,103.0,0.0
0.0,24.0,125.0,0.0
0.0,52.0,93.0,0.0
0.0,36.0,116.0,81.0
0.0,42.0,43.0,0.0
0.0,24.0,125.0,0.0
0.0,52.0,88.0,0.0
0.0,42.0,107.0,22.0
0.0,59.0,124.0,0.0
0.0,64.0,121.0,0.0
0.0,42.0,46.0,48.0
0.0,42.0,113.0,4.0
0.0,59.0,118.0,0.0
0.0,64.0,116.0,0.0
0.0,36.0,121.0,69.0
0.0,42.0,49.0,0.0
0.0,24.0,125.0,0.0
0.0,38.0,121.0,106.0
0.0,42.0,113.0,0.0
0.0,24.0,121.0,0.0
0.0,52.0,95.0,0.0
0.0,42.0,47.0,60.0
0.0,52.0,91.0,0.0
0.0,42.0,113.0,100.0
0.0,59.0,121.0,0.0
0.0,64.0,116.0,0.0
0.0,38.0,116.0,39.0
0.0,42.0,47.0,0.0
0.0,36.0,121.0,39.0
0.0,42.0,113.0,0.0
0.0,24.0,123.0,0.0
0.0,52.0,91.0,0.0
0.0,36.0,116.0,87.0
0.0,42.0,49.0,0.0
0.0,24.0,123.0,0.0
0.0,52.0,93.0,0.0
0.0,42.0,106.0,36.0
0.0,59.0,124.0,0.0
0.0,64.0,116.0,0.0
0.0,42.0,49.0,86.0
0.0,38.0,121.0,4.0
0.0,42.0,113.0,0.0
0.0,59.0,118.0,0.0
0.0,64.0,116.0,0.0
0.0,42.0,50.0,66.0
0.0,36.0,116.0,85.0
0.0,42.0,103.0,0.0
0.0,24.0,125.0,0.0
0.0,52.0,93.0,0.0
0.0,36.0,116.0,81.0
0.0,42.0,43.0,0.0
0.0,24.0,125.0,0.0
0.0,52.0,88.0,0.0
0.0,42.0,107.0,22.0
0.0,59.0,124.0,0.0
0.0,64.0,121.0,0.0
0.0,42.0,46.0,48.0
0.0,42.0,113.0,4.0
0.0,59.0,118.0,0.0
0.0,64.0,116.0,0.0
0.0,36.0,121.0,69.0
0.0,42.0,49.0,0.0
0.0,24.0,125.0,0.0
0.0,38.0,121.0,106.0
0.0,42.0,113.0,0.0
0.0,24.0,121.0,0.0
0.0,52.0,95.0,0.0
0.0,42.0,47.0,60.0
0.0,52.0,91.0,0.0
0.0,42.0,113.0,100.0
0.0,59.0,121.0,0.0
0.0,64.0,116.0,0.0
0.0,38.0,116.0,39.0
0.0,42.0,47.0,0.0
0.0,36.0,121.0,39.0
0.0,42.0,113.0,0.0
0.0,24.0,123.0,0.0
0.0,52.0,91.0,0.0
0.0,36.0,116.0,87.0
0.0,42.0,49.0,0.0
0.0,24.0,123.0,0.0
0.0,52.0,93.0,0.0
0.0,42.0,106.0,36.0
0.0,59.0,124.0,0.0
0.0,64.0,116.0,0.0
0.0,42.0,49.0,86.0
0.0,38.0,121.0,4.0
0.0,42.0,113.0,0.0
0.0,59.0,118.0,0.0
0.0,64.0,116.0,0.0
0.0,42.0,50.0,66.0
0.0,36.0,116.0,85.0
0.0,42.0,103.0,0.0
0.0,24.0,125.0,0.0
0.0,52.0,93.0,0.0
0.0,36.0,116.0,81.0
0.0,42.0,43.0,0.0
0.0,24.0,125.0,0.0
0.0,52.0,88.0,0.0
0.0,42.0,107.0,22.0
0.0,59.0,124.0,0.0
0.0,64.0,121.0,0.0
0.0,38.0,116.0,48.0
0.0,42.0,46.0,0.0
0.0,42.0,113.0,4.0
0.0,59.0,118.0,0.0
0.0,64.0,116.0,0.0
0.0,36.0,121.0,69.0
0.0,42.0,49.0,0.0
0.0,24.0,125.0,0.0
0.0,38.0,121.0,106.0
0.0,42.0,113.0,0.0
0.0,24.0,121.0,0.0
0.0,52.0,95.0,0.0
0.0,42.0,47.0,60.0
0.0,52.0,91.0,0.0
0.0,42.0,113.0,100.0
0.0,59.0,121.0,0.0
0.0,64.0,116.0,0.0
0.0,38.0,116.0,39.0
0.0,42.0,47.0,0.0
0.0,36.0,121.0,39.0
0.0,42.0,113.0,0.0
0.0,49.0,98.0,0.0
0.0,24.0,123.0,0.0
0.0,52.0,91.0,0.0
0.0,36.0,116.0,87.0
0.0,42.0,49.0,0.0
0.0,24.0,123.0,0.0
0.0,52.0,93.0,0.0
0.0,42.0,106.0,36.0
0.0,55.0,121.0,0.0
0.0,59.0,124.0,0.0
0.0,64.0,116.0,0.0
0.0,42.0,49.0,86.0
0.0,38.0,121.0,4.0
0.0,42.0,113.0,0.0
0.0,59.0,118.0,0.0
0.0,64.0,116.0,0.0
0.0,42.0,50.0,66.0
0.0,36.0,116.0,85.0
0.0,42.0,103.0,0.0
0.0,24.0,125.0,0.0
0.0,52.0,93.0,0.0
0.0,36.0,116.0,81.0
0.0,42.0,43.0,0.0
0.0,24.0,125.0,0.0
0.0,52.0,88.0,0.0
0.0,42.0,107.0,22.0
0.0,59.0,124.0,0.0
0.0,64.0,121.0,0.0
0.0,42.0,46.0,48.0
0.0,42.0,113.0,4.0
0.0,59.0,118.0,0.0
0.0,64.0,116.0,0.0
0.0,36.0,121.0,69.0
0.0,42.0,49.0,0.0
0.0,24.0,125.0,0.0
0.0,38.0,121.0,106.0
0.0,42.0,113.0,0.0
0.0,24.0,121.0,0.0
0.0,52.0,95.0,0.0
0.0,42.0,47.0,60.0
0.0,52.0,91.0,0.0
0.0,42.0,113.0,100.0
0.0,59.0,121.0,0.0
0.0,64.0,116.0,0.0
0.0,38.0,116.0,39.0
0.0,42.0,47.0,0.0
0.0,36.0,121.0,39.0
0.0,42.0,113.0,0.0
0.0,24.0,123.0,0.0
0.0,0.0,0.0,0.0
0.0,0.0,0.0,0.0
0.0,0.0,0.0,0.0
0.0,0.0,0.0,0.0
0.0,0.0,0.0,0.0
0.0,0.0,0.0,0.0
0.0,0.0,0.0,0.0
0.0,0.0,0.0,0.0
0.0,0.0,0.0,0.0
0.0,0.0,0.0,0.0
0.0,0.0,0.0,0.0
0.0,0.0,0.0,0.0
0.0,0.0,0.0,0.0
0.0,0.0,0.0,0.0
0.0,0.0,0.0,0.0
0.0,0.0,0.0,0.0
0.0,0.0,0.0,0.0
0.0,0.0,0.0,0.0
0.0,0.0,0.0,0.0
0.0,0.0,0.0,0.0
0.0,0.0,0.0,0.0
0.0,0.0,0.0,0.0
0.0,0.0,0.0,0.0
0.0,0.0,0.0,0.0
0.0,0.0,0.0,0.0
0.0,0.0,0.0,0.0
0.0,0.0,0.0,0.0
0.0,0.0,0.0,0.0
0.0,0.0,0.0,0.0
0.0,0.0,0.0,0.0
0.0,0.0,0.0,0.0
0.0,0.0,0.0,0.0
0.0,0.0,0.0,0.0
0.0,0.0,0.0,0.0
0.0,0.0,0.0,0.0
0.0,0.0,0.0,0.0
0.0,0.0,0.0,0.0
0.0,0.0,0.0,0.0
0.0,0.0,0.0,0.0
0.0,0.0,0.0,0.0
0.0,0.0,0.0,0.0
0.0,0.0,0.0,0.0
0.0,0.0,0.0,0.0
0.0,0.0,0.0,0.0
0.0,0.0,0.0,0.0
0.0,0.0,0.0,0.0
0.0,0.0,0.0,0.0
0.0,0.0,0.0,0.0
0.0,0.0,0.0,0.0
0.0,0.0,0.0,0.0
0.0,0.0,0.0,0.0
0.0,0.0,0.0,0.0
0.0,0.0,0.0,0.0
0.0,0.0,0.0,0.0
0.0,0.0,0.0,0.0
0.0,0.0,0.0,0.0
0.0,0.0,0.0,0.0
0.0,0.0,0.0,0.0
0.0,0.0,0.0,0.0
0.0,0.0,0.0,0.0
0.0,0.0,0.0,0.0
0.0,0.0,0.0,0.0
0.0,0.0,0.0,0.0
0.0,0.0,0.0,0.0
0.0,0.0,0.0,0.0
0.0,0.0,0.0,0.0
0.0,0.0,0.0,0.0
0.0,0.0,0.0,0.0
0.0,0.0,0.0,0.0
0.0,0.0,0.0,0.0
0.0,0.0,0.0,0.0
0.0,0.0,0.0,0.0
0.0,0.0,0.0,0.0
0.0,0.0,0.0,0.0
0.0,0.0,0.0,0.0
0.0,0.0,0.0,0.0
0.0,0.0,0.0,0.0
0.0,0.0,0.0,0.0
0.0,0.0,0.0,0.0
0.0,0.0,0.0,0.0
0.0,0.0,0.0,0.0
0.0,0.0,0.0,0.0
0.0,0.0,0.0,0.0
0.0,0.0,0.0,0.0
0.0,0.0,0.0,0.0
0.0,0.0,0.0,0.0
0.0,0.0,0.0,0.0
0.0,0.0,0.0,0.0
0.0,0.0,0.0,0.0
0.0,0.0,0.0,0.0
0.0,0.0,0.0,0.0
0.0,0.0,0.0,0.0
0.0,0.0,0.0,0.0
0.0,0.0,0.0,0.0
0.0,0.0,0.0,0.0
