track,note,velocity,time
2,47,127,0
2,54,127,0
2,59,127,0
2,63,127,0
2,47,100,0
2,54,100,0
2,59,100,0
2,63,100,0
2,47,127,36
2,54,127,0
2,59,127,0
2,63,127,0
2,47,100,0
2,54,100,0
2,59,100,0
2,63,100,0
2,47,100,36
2,54,100,0
2,59,100,0
2,63,100,0
2,47,127,36
2,54,127,0
2,59,127,0
2,63,127,0
2,47,127,0
2,54,127,0
2,59,127,0
2,63,127,0
2,35,127,0
2,35,127,0
2,47,127,0
2,54,127,0
2,59,127,0
2,63,127,0
2,47,127,0
2,54,127,0
2,59,127,0
2,63,127,0
2,35,127,0
2,35,127,0
2,47,127,0
2,54,127,0
2,59,127,0
2,63,127,0
2,47,127,0
2,54,127,0
2,59,127,0
2,63,127,0
2,47,100,0
2,54,100,0
2,59,100,0
2,63,100,0
2,47,127,36
2,54,127,0
2,59,127,0
2,63,127,0
2,47,100,0
2,54,100,0
2,59,100,0
2,63,100,0
2,47,100,36
2,54,100,0
2,59,100,0
2,63,100,0
2,47,127,36
2,54,127,0
2,59,127,0
2,63,127,0
2,47,127,0
2,54,127,0
2,59,127,0
2,63,127,0
2,35,127,0
2,35,127,0
2,47,127,0
2,54,127,0
2,59,127,0
2,63,127,0
2,47,127,0
2,54,127,0
2,59,127,0
2,63,127,0
2,35,127,0
2,35,127,0
2,47,127,0
2,54,127,0
2,59,127,0
2,63,127,0
2,47,127,0
2,54,127,0
2,59,127,0
2,63,127,0
2,47,100,0
2,54,100,0
2,59,100,0
2,63,100,0
2,47,127,36
2,54,127,0
2,59,127,0
2,63,127,0
2,47,100,0
2,54,100,0
2,59,100,0
2,63,100,0
2,47,100,36
2,54,100,0
2,59,100,0
2,63,100,0
2,47,127,36
2,54,127,0
2,59,127,0
2,63,127,0
2,47,127,0
2,54,127,0
2,59,127,0
2,63,127,0
2,35,127,0
2,35,127,0
2,47,127,0
2,54,127,0
2,59,127,0
2,63,127,0
2,47,127,0
2,54,127,0
2,59,127,0
2,63,127,0
2,35,127,0
2,35,127,0
2,47,127,0
2,54,127,0
2,59,127,0
2,63,127,0
2,47,127,0
2,54,127,0
2,59,127,0
2,63,127,0
2,47,100,0
2,54,100,0
2,59,100,0
2,63,100,0
2,47,100,36
2,54,100,0
2,59,100,0
2,63,100,0
2,47,100,36
2,54,100,0
2,59,100,0
2,63,100,0
2,47,100,36
2,54,100,0
2,59,100,0
2,63,100,0
2,47,127,36
2,54,127,0
2,59,127,0
2,63,127,0
2,35,127,0
2,47,127,384
2,54,127,0
2,59,127,0
2,63,127,0
2,47,127,0
2,54,127,0
2,59,127,0
2,63,127,0
2,47,100,0
2,54,100,0
2,59,100,0
2,63,100,0
2,35,127,36
2,47,100,0
2,54,100,0
2,59,100,0
2,63,100,0
2,47,127,36
2,54,127,0
2,59,127,0
2,63,127,0
2,47,127,0
2,54,127,0
2,59,127,0
2,63,127,0
2,47,100,0
2,54,100,0
2,59,100,0
2,63,100,0
2,47,100,36
2,54,100,0
2,59,100,0
2,63,100,0
2,47,100,36
2,54,100,0
2,59,100,0
2,63,100,0
2,47,127,36
2,54,127,0
2,59,127,0
2,63,127,0
2,47,127,0
2,54,127,0
2,59,127,0
2,63,127,0
2,47,100,0
2,54,100,0
2,59,100,0
2,63,100,0
2,47,100,36
2,54,100,0
2,59,100,0
2,63,100,0
2,47,127,36
2,54,127,0
2,59,127,0
2,63,127,0
2,47,100,0
2,54,100,0
2,59,100,0
2,63,100,0
2,47,100,36
2,54,100,0
2,59,100,0
2,63,100,0
2,47,100,36
2,54,100,0
2,59,100,0
2,63,100,0
2,47,100,36
2,54,100,0
2,59,100,0
2,63,100,0
2,47,100,36
2,54,100,0
2,59,100,0
2,63,100,0
2,47,100,36
2,54,100,0
2,59,100,0
2,63,100,0
2,47,100,36
2,54,100,0
2,59,100,0
2,63,100,0
2,47,100,36
2,54,100,0
2,59,100,0
2,63,100,0
2,47,100,36
2,54,100,0
2,59,100,0
2,63,100,0
2,47,100,36
2,54,100,0
2,59,100,0
2,63,100,0
2,47,127,36
2,54,127,0
2,59,127,0
2,63,127,0
2,47,127,0
2,54,127,0
2,59,127,0
2,63,127,0
2,47,100,0
2,54,100,0
2,59,100,0
2,63,100,0
2,47,100,36
2,54,100,0
2,59,100,0
2,63,100,0
2,45,127,36
2,52,127,0
2,57,127,0
2,61,127,0
2,45,100,0
2,52,100,0
2,57,100,0
2,61,100,0
2,45,127,36
2,52,127,0
2,57,127,0
2,61,127,0
2,45,100,0
2,52,100,0
2,57,100,0
2,61,100,0
2,45,100,36
2,52,100,0
2,57,100,0
2,61,100,0
2,45,127,36
2,52,127,0
2,57,127,0
2,61,127,0
2,45,100,0
2,52,100,0
2,57,100,0
2,61,100,0
2,45,127,36
2,52,127,0
2,57,127,0
2,61,127,0
2,45,127,0
2,52,127,0
2,57,127,0
2,61,127,0
2,45,127,0
2,52,127,0
2,57,127,0
2,61,127,0
2,45,100,0
2,52,100,0
2,57,100,0
2,61,100,0
2,47,127,84
2,54,127,0
2,59,127,0
2,63,127,0
2,47,100,0
2,54,100,0
2,59,100,0
2,63,100,0
2,47,127,36
2,54,127,0
2,59,127,0
2,63,127,0
2,47,100,0
2,54,100,0
2,59,100,0
2,63,100,0
2,47,100,36
2,54,100,0
2,59,100,0
2,63,100,0
2,47,127,36
2,54,127,0
2,59,127,0
2,63,127,0
2,47,100,0
2,54,100,0
2,59,100,0
2,63,100,0
2,47,127,36
2,54,127,0
2,59,127,0
2,63,127,0
2,47,127,0
2,54,127,0
2,59,127,0
2,63,127,0
2,47,127,0
2,54,127,0
2,59,127,0
2,63,127,0
2,47,100,0
2,54,100,0
2,59,100,0
2,63,100,0
2,47,127,84
2,54,127,0
2,59,127,0
2,63,127,0
2,47,100,0
2,54,100,0
2,59,100,0
2,63,100,0
2,47,127,36
2,54,127,0
2,59,127,0
2,63,127,0
2,47,100,0
2,54,100,0
2,59,100,0
2,63,100,0
2,47,100,36
2,54,100,0
2,59,100,0
2,63,100,0
2,47,127,36
2,54,127,0
2,59,127,0
2,63,127,0
2,47,100,0
2,54,100,0
2,59,100,0
2,63,100,0
2,47,127,36
2,54,127,0
2,59,127,0
2,63,127,0
2,47,127,0
2,54,127,0
2,59,127,0
2,63,127,0
2,47,127,0
2,54,127,0
2,59,127,0
2,63,127,0
2,47,100,0
2,54,100,0
2,59,100,0
2,63,100,0
2,47,100,36
2,54,100,0
2,59,100,0
2,63,100,0
2,47,127,36
2,54,127,0
2,59,127,0
2,63,127,0
2,47,127,0
2,54,127,0
2,59,127,0
2,63,127,0
2,47,100,0
2,54,100,0
2,59,100,0
2,63,100,0
2,47,127,36
2,54,127,0
2,59,127,0
2,63,127,0
2,47,100,0
2,54,100,0
2,59,100,0
2,63,100,0
2,47,100,36
2,54,100,0
2,59,100,0
2,63,100,0
2,47,127,36
2,54,127,0
2,59,127,0
2,63,127,0
2,47,127,0
2,54,127,0
2,59,127,0
2,63,127,0
2,47,100,0
2,54,100,0
2,59,100,0
2,63,100,0
2,47,100,36
2,54,100,0
2,59,100,0
2,63,100,0
2,47,127,36
2,54,127,0
2,59,127,0
2,63,127,0
2,47,127,0
2,54,127,0
2,59,127,0
2,63,127,0
2,47,100,0
2,54,100,0
2,59,100,0
2,63,100,0
2,45,127,84
2,52,127,0
2,57,127,0
2,61,127,0
2,45,100,0
2,52,100,0
2,57,100,0
2,61,100,0
2,45,127,36
2,52,127,0
2,57,127,0
2,61,127,0
2,45,100,0
2,52,100,0
2,57,100,0
2,61,100,0
2,45,100,36
2,52,100,0
2,57,100,0
2,61,100,0
2,45,127,36
2,52,127,0
2,57,127,0
2,61,127,0
2,45,100,0
2,52,100,0
2,57,100,0
2,61,100,0
2,45,127,36
2,52,127,0
2,57,127,0
2,61,127,0
2,45,127,0
2,52,127,0
2,57,127,0
2,61,127,0
2,45,127,0
2,52,127,0
2,57,127,0
2,61,127,0
2,45,100,0
2,52,100,0
2,57,100,0
2,61,100,0
2,47,127,84
2,54,127,0
2,59,127,0
2,63,127,0
2,47,127,0
2,54,127,0
2,59,127,0
2,63,127,0
2,47,100,0
2,54,100,0
2,59,100,0
2,63,100,0
2,47,127,36
2,54,127,0
2,59,127,0
2,63,127,0
2,47,100,0
2,54,100,0
2,59,100,0
2,63,100,0
2,47,100,36
2,54,100,0
2,59,100,0
2,63,100,0
2,47,127,36
2,54,127,0
2,59,127,0
2,63,127,0
2,47,100,0
2,54,100,0
2,59,100,0
2,63,100,0
2,47,100,36
2,54,100,0
2,59,100,0
2,63,100,0
2,47,127,36
2,54,127,0
2,59,127,0
2,63,127,0
2,47,127,0
2,54,127,0
2,59,127,0
2,63,127,0
2,47,100,0
2,54,100,0
2,59,100,0
2,63,100,0
2,45,127,84
2,52,127,144
2,61,127,144
2,52,127,0
2,52,127,0
2,47,127,0
2,54,127,0
2,59,127,0
2,63,127,0
2,47,127,0
2,52,127,0
2,57,127,0
2,61,127,0
2,54,127,0
2,59,127,0
2,63,127,0
2,47,127,0
2,59,127,0
2,45,127,0
2,52,127,0
2,57,127,0
2,61,127,0
2,52,127,0
2,45,127,0
2,47,127,0
2,54,127,0
2,59,127,0
2,63,127,0
2,47,127,0
2,52,127,0
2,57,127,0
2,61,127,0
2,54,127,0
2,59,127,0
2,63,127,0
2,47,127,0
2,54,127,0
2,59,127,0
2,63,127,0
2,45,127,0
2,52,127,0
2,57,127,0
2,61,127,0
2,52,127,0
2,45,127,0
2,47,127,0
2,54,127,0
2,59,127,0
2,63,127,0
2,47,127,0
2,52,127,0
2,57,127,0
2,54,127,0
2,59,127,0
2,47,127,0
2,59,127,0
2,42,127,0
2,49,127,0
2,54,127,0
2,58,127,0
2,49,127,0
2,58,127,0
2,59,127,0
2,58,127,0
2,54,127,0
2,49,127,0
2,66,127,48
2,47,127,0
2,54,127,0
2,59,127,0
2,52,127,0
2,57,127,0
2,35,127,0
2,35,127,0
2,35,127,0
2,35,127,0
2,47,127,0
2,54,127,0
2,59,127,0
2,52,127,0
2,57,127,0
2,35,127,0
2,35,127,0
2,35,127,0
2,47,127,0
2,59,127,0
2,35,127,0
2,47,127,0
2,59,127,0
2,47,127,0
2,54,127,0
2,59,127,0
2,52,127,0
2,57,127,0
2,35,127,0
2,35,127,0
2,35,127,0
2,35,127,0
2,47,127,0
2,54,127,0
2,59,127,0
2,52,127,0
2,57,127,0
2,35,127,0
2,35,127,0
2,35,127,0
2,47,127,0
2,59,127,0
2,35,127,0
2,47,127,0
2,59,127,0
2,47,127,0
2,54,127,0
2,59,127,0
2,52,127,0
2,57,127,0
2,35,127,0
2,35,127,0
2,35,127,0
2,35,127,0
2,47,127,0
2,54,127,0
2,59,127,0
2,52,127,0
2,57,127,0
2,35,127,0
2,35,127,0
2,35,127,0
2,47,127,0
2,59,127,0
2,35,127,0
2,47,127,0
2,59,127,0
2,47,127,0
2,54,127,0
2,59,127,0
2,52,127,0
2,57,127,0
2,35,127,0
2,35,127,0
2,35,127,0
2,35,127,0
2,47,127,0
2,54,127,0
2,59,127,0
2,52,127,0
2,57,127,0
2,47,127,384
2,54,127,0
2,59,127,0
2,35,127,0
2,35,127,0
2,47,127,0
2,54,127,0
2,59,127,0
2,35,127,0
2,35,127,0
2,47,127,0
2,54,127,0
2,59,127,0
2,35,127,0
2,35,127,0
2,63,127,0
2,35,127,0
2,35,127,0
2,59,127,0
2,47,127,0
2,54,127,0
2,59,127,0
2,35,127,0
2,35,127,0
2,47,127,0
2,54,127,0
2,59,127,0
2,35,127,0
2,35,127,0
2,47,127,0
2,54,127,0
2,59,127,0
2,35,127,0
2,35,127,0
2,63,127,0
2,35,127,0
2,35,127,0
2,59,127,0
2,45,127,0
2,52,127,0
2,57,127,0
2,45,127,0
2,45,127,0
2,45,127,0
2,52,127,0
2,57,127,0
2,45,127,0
2,45,127,0
2,45,127,0
2,52,127,0
2,57,127,0
2,45,127,0
2,45,127,0
2,57,127,0
2,61,127,0
2,45,127,0
2,45,127,0
2,52,127,0
2,57,127,0
2,45,127,0
2,52,127,0
2,57,127,0
2,45,127,0
2,47,127,0
2,54,127,0
2,59,127,0
2,35,127,0
2,35,127,0
2,47,127,0
2,54,127,0
2,59,127,0
2,35,127,0
2,35,127,0
2,47,127,0
2,52,127,0
2,59,127,0
2,35,127,0
2,35,127,0
2,63,127,0
2,35,127,0
2,35,127,0
2,59,127,0
2,47,127,0
2,54,127,0
2,59,127,0
2,35,127,0
2,35,127,0
2,47,127,0
2,54,127,0
2,59,127,0
2,35,127,0
2,35,127,0
2,47,127,0
2,54,127,0
2,59,127,0
2,35,127,0
2,35,127,0
2,63,127,0
2,35,127,0
2,35,127,0
2,47,127,0
2,54,127,0
2,59,127,0
2,35,127,0
2,47,127,0
2,54,127,0
2,59,127,0
2,35,127,0
2,47,127,0
2,54,127,0
2,59,127,0
2,35,127,0
2,35,127,0
2,47,127,0
2,54,127,0
2,59,127,0
2,35,127,0
2,35,127,0
2,47,127,0
2,54,127,0
2,59,127,0
2,35,127,0
2,35,127,0
2,63,127,0
2,35,127,0
2,35,127,0
2,59,127,0
2,45,127,0
2,52,127,0
2,57,127,0
2,45,127,0
2,45,127,0
2,45,127,0
2,52,127,0
2,57,127,0
2,45,127,0
2,45,127,0
2,45,127,0
2,52,127,0
2,57,127,0
2,45,127,0
2,45,127,0
2,57,127,0
2,61,127,0
2,45,127,0
2,45,127,0
2,52,127,0
2,57,127,0
2,45,127,0
2,52,127,0
2,57,127,0
2,45,127,0
2,47,127,0
2,54,127,0
2,59,127,0
2,35,127,0
2,35,127,0
2,47,127,0
2,54,127,0
2,59,127,0
2,35,127,0
2,35,127,0
2,47,127,0
2,52,127,0
2,59,127,0
2,35,127,0
2,35,127,0
2,47,127,0
2,54,127,0
2,35,127,0
2,47,127,0
2,54,127,0
2,47,127,0
2,52,127,0
2,47,127,0
2,54,127,0
2,35,127,0
2,47,127,0
2,54,127,0
2,59,127,0
2,35,127,0
2,47,127,0
2,54,127,0
2,59,127,0
2,54,127,0
2,45,127,0
2,52,127,144
2,61,127,144
2,52,127,0
2,52,127,0
2,47,127,0
2,54,127,0
2,59,127,0
2,63,127,0
2,47,127,0
2,52,127,0
2,57,127,0
2,61,127,0
2,54,127,0
2,59,127,0
2,63,127,0
2,47,127,0
2,59,127,0
2,45,127,0
2,52,127,0
2,57,127,0
2,61,127,0
2,52,127,0
2,45,127,0
2,47,127,0
2,54,127,0
2,59,127,0
2,63,127,0
2,47,127,0
2,52,127,0
2,57,127,0
2,61,127,0
2,54,127,0
2,59,127,0
2,63,127,0
2,47,127,0
2,54,127,0
2,59,127,0
2,63,127,0
2,45,127,0
2,52,127,0
2,57,127,0
2,61,127,0
2,52,127,0
2,45,127,0
2,47,127,0
2,54,127,0
2,59,127,0
2,63,127,0
2,47,127,0
2,52,127,0
2,57,127,0
2,54,127,0
2,59,127,0
2,47,127,0
2,59,127,0
2,42,127,0
2,49,127,0
2,54,127,0
2,58,127,0
2,49,127,0
2,58,127,0
2,59,127,0
2,58,127,0
2,54,127,0
2,49,127,0
2,66,127,48
2,47,127,0
2,54,127,0
2,59,127,0
2,52,127,0
2,57,127,0
2,35,127,0
2,35,127,0
2,35,127,0
2,35,127,0
2,47,127,0
2,54,127,0
2,59,127,0
2,52,127,0
2,57,127,0
2,35,127,0
2,35,127,0
2,35,127,0
2,47,127,0
2,59,127,0
2,35,127,0
2,47,127,0
2,59,127,0
2,47,127,0
2,54,127,0
2,59,127,0
2,52,127,0
2,57,127,0
2,35,127,0
2,35,127,0
2,35,127,0
2,35,127,0
2,47,127,0
2,54,127,0
2,59,127,0
2,52,127,0
2,57,127,0
2,35,127,0
2,35,127,0
2,35,127,0
2,47,127,0
2,59,127,0
2,35,127,0
2,47,127,0
2,59,127,0
2,47,127,0
2,54,127,0
2,59,127,0
2,52,127,0
2,57,127,0
2,35,127,0
2,35,127,0
