track,note,velocity,time
0.0,42.0,110.0,0.0
0.0,42.0,90.0,30.0
0.0,42.0,90.0,32.0
0.0,42.0,90.0,143.0
0.0,42.0,75.0,142.0
0.0,35.0,111.0,0.0
0.0,49.0,87.0,0.0
0.0,44.0,87.0,0.0
0.0,38.0,50.0,0.0
0.0,37.0,87.0,0.0
0.0,42.0,75.0,8.0
0.0,35.0,111.0,0.0
0.0,44.0,87.0,0.0
0.0,49.0,87.0,0.0
0.0,38.0,50.0,0.0
0.0,37.0,87.0,0.0
0.0,42.0,75.0,12.0
0.0,25.0,111.0,0.0
0.0,37.0,95.0,0.0
0.0,49.0,95.0,0.0
0.0,44.0,95.0,0.0
0.0,49.0,87.0,0.0
0.0,44.0,87.0,0.0
0.0,38.0,50.0,5.0
0.0,37.0,87.0,0.0
0.0,42.0,75.0,1.0
0.0,32.0,109.0,0.0
0.0,56.0,95.0,0.0
0.0,49.0,87.0,0.0
0.0,44.0,87.0,0.0
0.0,38.0,63.0,3.0
0.0,37.0,87.0,0.0
0.0,38.0,63.0,0.0
0.0,42.0,75.0,1.0
0.0,38.0,63.0,0.0
0.0,35.0,111.0,0.0
0.0,47.0,87.0,0.0
0.0,52.0,87.0,0.0
0.0,38.0,52.0,2.0
0.0,40.0,87.0,0.0
0.0,42.0,75.0,16.0
0.0,35.0,111.0,0.0
0.0,52.0,87.0,0.0
0.0,47.0,87.0,0.0
0.0,38.0,50.0,0.0
0.0,40.0,87.0,0.0
0.0,42.0,75.0,10.0
0.0,28.0,109.0,0.0
0.0,40.0,95.0,0.0
0.0,52.0,95.0,0.0
0.0,47.0,95.0,0.0
0.0,47.0,87.0,0.0
0.0,52.0,87.0,0.0
0.0,38.0,50.0,6.0
0.0,40.0,87.0,0.0
0.0,42.0,75.0,12.0
0.0,28.0,109.0,0.0
0.0,47.0,95.0,0.0
0.0,52.0,95.0,0.0
0.0,40.0,95.0,0.0
0.0,52.0,87.0,0.0
0.0,47.0,87.0,0.0
0.0,38.0,63.0,18.0
0.0,40.0,87.0,0.0
0.0,38.0,63.0,0.0
0.0,42.0,75.0,15.0
0.0,38.0,63.0,0.0
0.0,35.0,111.0,0.0
0.0,49.0,87.0,0.0
0.0,44.0,87.0,0.0
0.0,38.0,52.0,0.0
0.0,37.0,87.0,0.0
0.0,42.0,75.0,9.0
0.0,35.0,111.0,0.0
0.0,44.0,87.0,0.0
0.0,49.0,87.0,0.0
0.0,38.0,50.0,0.0
0.0,37.0,87.0,0.0
0.0,42.0,75.0,7.0
0.0,25.0,109.0,0.0
0.0,37.0,95.0,0.0
0.0,44.0,95.0,0.0
0.0,49.0,95.0,0.0
0.0,44.0,87.0,0.0
0.0,49.0,87.0,0.0
0.0,38.0,50.0,4.0
0.0,37.0,87.0,0.0
0.0,42.0,75.0,8.0
0.0,32.0,109.0,0.0
0.0,56.0,95.0,0.0
0.0,49.0,87.0,0.0
0.0,44.0,87.0,0.0
0.0,38.0,63.0,14.0
0.0,37.0,87.0,0.0
0.0,38.0,63.0,0.0
0.0,42.0,75.0,10.0
0.0,38.0,63.0,0.0
0.0,35.0,111.0,0.0
0.0,47.0,87.0,0.0
0.0,52.0,87.0,0.0
0.0,38.0,52.0,2.0
0.0,40.0,87.0,0.0
0.0,42.0,75.0,11.0
0.0,35.0,111.0,0.0
0.0,47.0,87.0,0.0
0.0,52.0,87.0,0.0
0.0,38.0,50.0,9.0
0.0,40.0,87.0,0.0
0.0,42.0,75.0,6.0
0.0,28.0,109.0,0.0
0.0,52.0,95.0,0.0
0.0,47.0,95.0,0.0
0.0,40.0,95.0,0.0
0.0,52.0,87.0,0.0
0.0,47.0,87.0,0.0
0.0,38.0,50.0,6.0
0.0,40.0,87.0,0.0
0.0,42.0,75.0,7.0
0.0,28.0,109.0,0.0
0.0,52.0,95.0,0.0
0.0,47.0,95.0,0.0
0.0,40.0,95.0,0.0
0.0,52.0,87.0,0.0
0.0,47.0,87.0,0.0
0.0,38.0,63.0,18.0
0.0,40.0,87.0,0.0
0.0,38.0,63.0,0.0
0.0,42.0,75.0,5.0
0.0,35.0,111.0,0.0
0.0,49.0,87.0,0.0
0.0,44.0,87.0,0.0
0.0,38.0,50.0,0.0
0.0,37.0,87.0,0.0
0.0,42.0,75.0,8.0
0.0,35.0,111.0,0.0
0.0,44.0,87.0,0.0
0.0,49.0,87.0,0.0
0.0,38.0,50.0,0.0
0.0,37.0,87.0,0.0
0.0,42.0,75.0,12.0
0.0,25.0,109.0,0.0
0.0,37.0,95.0,0.0
0.0,49.0,95.0,0.0
0.0,44.0,95.0,0.0
0.0,49.0,87.0,0.0
0.0,44.0,87.0,0.0
0.0,38.0,50.0,5.0
0.0,37.0,87.0,0.0
0.0,42.0,75.0,4.0
0.0,32.0,109.0,0.0
0.0,56.0,95.0,0.0
0.0,49.0,87.0,0.0
0.0,44.0,87.0,0.0
0.0,38.0,63.0,3.0
0.0,37.0,87.0,0.0
0.0,38.0,63.0,0.0
0.0,42.0,75.0,1.0
0.0,38.0,63.0,0.0
0.0,35.0,111.0,0.0
0.0,47.0,87.0,0.0
0.0,52.0,87.0,0.0
0.0,38.0,52.0,2.0
0.0,40.0,87.0,0.0
0.0,42.0,75.0,16.0
0.0,35.0,111.0,0.0
0.0,52.0,87.0,0.0
0.0,47.0,87.0,0.0
0.0,38.0,50.0,0.0
0.0,40.0,87.0,0.0
0.0,42.0,75.0,10.0
0.0,28.0,109.0,0.0
0.0,40.0,95.0,0.0
0.0,52.0,95.0,0.0
0.0,47.0,95.0,0.0
0.0,47.0,87.0,0.0
0.0,52.0,87.0,0.0
0.0,38.0,50.0,6.0
0.0,40.0,87.0,0.0
0.0,42.0,75.0,12.0
0.0,28.0,109.0,0.0
0.0,47.0,95.0,0.0
0.0,52.0,95.0,0.0
0.0,40.0,95.0,0.0
0.0,52.0,87.0,0.0
0.0,47.0,87.0,0.0
0.0,38.0,63.0,18.0
0.0,40.0,87.0,0.0
0.0,38.0,63.0,0.0
0.0,42.0,75.0,15.0
0.0,38.0,63.0,0.0
0.0,35.0,111.0,0.0
0.0,49.0,87.0,0.0
0.0,44.0,87.0,0.0
0.0,38.0,52.0,0.0
0.0,37.0,87.0,0.0
0.0,42.0,75.0,9.0
0.0,35.0,111.0,0.0
0.0,44.0,87.0,0.0
0.0,49.0,87.0,0.0
0.0,38.0,50.0,0.0
0.0,37.0,87.0,0.0
0.0,42.0,75.0,7.0
0.0,25.0,109.0,0.0
0.0,37.0,95.0,0.0
0.0,44.0,95.0,0.0
0.0,49.0,95.0,0.0
0.0,44.0,87.0,0.0
0.0,49.0,87.0,0.0
0.0,38.0,50.0,4.0
0.0,37.0,87.0,0.0
0.0,42.0,75.0,8.0
0.0,32.0,109.0,0.0
0.0,56.0,95.0,0.0
0.0,49.0,87.0,0.0
0.0,44.0,87.0,0.0
0.0,38.0,63.0,14.0
0.0,37.0,87.0,0.0
0.0,38.0,63.0,0.0
0.0,42.0,74.0,10.0
0.0,38.0,63.0,0.0
0.0,35.0,111.0,0.0
0.0,47.0,87.0,0.0
0.0,52.0,87.0,0.0
0.0,38.0,52.0,2.0
0.0,40.0,87.0,0.0
0.0,42.0,79.0,11.0
0.0,35.0,111.0,0.0
0.0,47.0,87.0,0.0
0.0,52.0,87.0,0.0
0.0,38.0,50.0,9.0
0.0,40.0,87.0,0.0
0.0,42.0,79.0,6.0
0.0,28.0,109.0,0.0
0.0,52.0,95.0,0.0
0.0,47.0,95.0,0.0
0.0,40.0,95.0,0.0
0.0,52.0,87.0,0.0
0.0,47.0,87.0,0.0
0.0,38.0,50.0,6.0
0.0,40.0,87.0,0.0
0.0,42.0,79.0,7.0
0.0,28.0,109.0,0.0
0.0,52.0,95.0,0.0
0.0,47.0,95.0,0.0
0.0,40.0,95.0,0.0
0.0,52.0,87.0,0.0
0.0,47.0,87.0,0.0
0.0,38.0,63.0,18.0
0.0,40.0,87.0,0.0
0.0,38.0,63.0,0.0
0.0,42.0,75.0,5.0
0.0,35.0,111.0,0.0
0.0,49.0,85.0,0.0
0.0,44.0,85.0,0.0
0.0,38.0,50.0,0.0
0.0,37.0,85.0,0.0
0.0,42.0,75.0,8.0
0.0,35.0,111.0,0.0
0.0,44.0,85.0,0.0
0.0,49.0,85.0,0.0
0.0,38.0,50.0,0.0
0.0,37.0,87.0,0.0
0.0,42.0,75.0,12.0
0.0,25.0,111.0,0.0
0.0,37.0,95.0,0.0
0.0,49.0,95.0,0.0
0.0,44.0,95.0,0.0
0.0,49.0,87.0,0.0
0.0,44.0,87.0,0.0
0.0,38.0,50.0,5.0
0.0,37.0,89.0,0.0
0.0,42.0,75.0,1.0
0.0,32.0,109.0,0.0
0.0,56.0,95.0,0.0
0.0,49.0,89.0,0.0
0.0,44.0,89.0,0.0
0.0,38.0,63.0,3.0
0.0,37.0,89.0,0.0
0.0,38.0,63.0,0.0
0.0,42.0,75.0,1.0
0.0,38.0,63.0,0.0
0.0,35.0,111.0,0.0
0.0,47.0,89.0,0.0
0.0,52.0,89.0,0.0
0.0,38.0,52.0,2.0
0.0,40.0,89.0,0.0
0.0,42.0,75.0,16.0
0.0,35.0,111.0,0.0
0.0,52.0,89.0,0.0
0.0,47.0,89.0,0.0
0.0,38.0,50.0,0.0
0.0,40.0,89.0,0.0
0.0,42.0,75.0,10.0
0.0,28.0,109.0,0.0
0.0,40.0,95.0,0.0
0.0,52.0,95.0,0.0
0.0,47.0,95.0,0.0
0.0,47.0,90.0,0.0
0.0,52.0,90.0,0.0
0.0,38.0,50.0,6.0
0.0,40.0,90.0,0.0
0.0,42.0,75.0,12.0
0.0,28.0,109.0,0.0
0.0,47.0,95.0,0.0
0.0,52.0,95.0,0.0
0.0,40.0,95.0,0.0
0.0,52.0,90.0,0.0
0.0,47.0,90.0,0.0
0.0,38.0,63.0,18.0
0.0,40.0,92.0,0.0
0.0,38.0,63.0,0.0
0.0,42.0,75.0,15.0
0.0,38.0,63.0,0.0
0.0,35.0,111.0,0.0
0.0,49.0,92.0,0.0
0.0,44.0,92.0,0.0
0.0,38.0,52.0,0.0
0.0,37.0,92.0,0.0
0.0,46.0,75.0,9.0
0.0,35.0,111.0,0.0
0.0,44.0,92.0,0.0
0.0,49.0,92.0,0.0
0.0,38.0,50.0,0.0
0.0,37.0,92.0,0.0
0.0,42.0,75.0,7.0
0.0,25.0,109.0,0.0
0.0,37.0,95.0,0.0
0.0,44.0,95.0,0.0
0.0,49.0,95.0,0.0
0.0,44.0,94.0,0.0
0.0,49.0,94.0,0.0
0.0,38.0,50.0,4.0
0.0,37.0,97.0,0.0
0.0,46.0,75.0,8.0
0.0,32.0,109.0,0.0
0.0,56.0,95.0,0.0
0.0,49.0,97.0,0.0
0.0,44.0,97.0,0.0
0.0,38.0,63.0,14.0
0.0,37.0,97.0,0.0
0.0,38.0,63.0,0.0
0.0,42.0,75.0,10.0
0.0,38.0,63.0,0.0
0.0,35.0,111.0,0.0
0.0,47.0,97.0,0.0
0.0,52.0,97.0,0.0
0.0,38.0,52.0,2.0
0.0,40.0,97.0,0.0
0.0,46.0,67.0,11.0
0.0,35.0,111.0,0.0
0.0,47.0,97.0,0.0
0.0,52.0,97.0,0.0
0.0,38.0,50.0,9.0
0.0,40.0,99.0,0.0
0.0,46.0,67.0,6.0
0.0,28.0,109.0,0.0
0.0,52.0,95.0,0.0
0.0,47.0,95.0,0.0
0.0,40.0,95.0,0.0
0.0,52.0,99.0,0.0
0.0,47.0,99.0,0.0
0.0,38.0,50.0,6.0
0.0,40.0,101.0,0.0
0.0,46.0,69.0,7.0
0.0,28.0,109.0,0.0
0.0,52.0,95.0,0.0
0.0,47.0,95.0,0.0
0.0,40.0,95.0,0.0
0.0,52.0,101.0,0.0
0.0,47.0,101.0,0.0
0.0,38.0,63.0,18.0
0.0,40.0,101.0,0.0
0.0,38.0,63.0,0.0
0.0,46.0,69.0,5.0
0.0,35.0,111.0,0.0
0.0,49.0,101.0,0.0
0.0,44.0,101.0,0.0
0.0,38.0,50.0,0.0
0.0,37.0,102.0,0.0
0.0,46.0,69.0,8.0
0.0,35.0,111.0,0.0
0.0,44.0,102.0,0.0
0.0,49.0,102.0,0.0
0.0,38.0,50.0,0.0
0.0,37.0,102.0,0.0
0.0,46.0,69.0,12.0
0.0,25.0,109.0,0.0
0.0,37.0,95.0,0.0
0.0,49.0,95.0,0.0
0.0,44.0,95.0,0.0
0.0,49.0,102.0,0.0
0.0,44.0,102.0,0.0
0.0,38.0,50.0,5.0
0.0,37.0,102.0,0.0
0.0,46.0,69.0,4.0
0.0,32.0,109.0,0.0
0.0,56.0,95.0,0.0
0.0,49.0,102.0,0.0
0.0,44.0,102.0,0.0
0.0,38.0,63.0,3.0
0.0,37.0,102.0,0.0
0.0,38.0,63.0,0.0
0.0,46.0,70.0,1.0
0.0,38.0,63.0,0.0
0.0,35.0,111.0,0.0
0.0,47.0,104.0,0.0
0.0,52.0,104.0,0.0
0.0,38.0,52.0,2.0
0.0,40.0,106.0,0.0
0.0,46.0,72.0,16.0
0.0,35.0,111.0,0.0
0.0,52.0,106.0,0.0
0.0,47.0,106.0,0.0
0.0,38.0,50.0,0.0
0.0,40.0,106.0,0.0
0.0,46.0,72.0,10.0
0.0,28.0,109.0,0.0
0.0,40.0,95.0,0.0
0.0,52.0,95.0,0.0
0.0,47.0,95.0,0.0
0.0,47.0,106.0,0.0
0.0,52.0,106.0,0.0
0.0,38.0,50.0,6.0
0.0,40.0,106.0,0.0
0.0,46.0,72.0,12.0
0.0,28.0,109.0,0.0
0.0,47.0,95.0,0.0
0.0,52.0,95.0,0.0
0.0,40.0,95.0,0.0
0.0,52.0,106.0,0.0
0.0,47.0,106.0,0.0
0.0,38.0,63.0,18.0
0.0,40.0,106.0,0.0
0.0,38.0,63.0,0.0
0.0,46.0,74.0,15.0
0.0,38.0,63.0,0.0
0.0,35.0,101.0,0.0
0.0,49.0,106.0,0.0
0.0,44.0,106.0,0.0
0.0,38.0,52.0,0.0
0.0,37.0,106.0,0.0
0.0,46.0,77.0,9.0
0.0,35.0,102.0,0.0
0.0,44.0,106.0,0.0
0.0,49.0,106.0,0.0
0.0,38.0,50.0,0.0
0.0,37.0,107.0,0.0
0.0,46.0,77.0,7.0
0.0,35.0,109.0,0.0
0.0,25.0,109.0,0.0
0.0,37.0,95.0,0.0
0.0,44.0,95.0,0.0
0.0,49.0,95.0,0.0
0.0,44.0,107.0,0.0
0.0,49.0,107.0,0.0
0.0,38.0,50.0,4.0
0.0,37.0,107.0,0.0
0.0,46.0,77.0,8.0
0.0,35.0,112.0,0.0
0.0,32.0,109.0,0.0
0.0,56.0,95.0,0.0
0.0,49.0,107.0,0.0
0.0,44.0,107.0,0.0
0.0,38.0,63.0,14.0
0.0,37.0,107.0,0.0
0.0,38.0,63.0,0.0
0.0,46.0,80.0,10.0
0.0,38.0,63.0,0.0
0.0,35.0,114.0,0.0
0.0,47.0,107.0,0.0
0.0,52.0,107.0,0.0
0.0,40.0,83.0,2.0
0.0,40.0,107.0,0.0
0.0,46.0,80.0,11.0
0.0,40.0,89.0,0.0
0.0,35.0,116.0,0.0
0.0,47.0,109.0,0.0
0.0,52.0,109.0,0.0
0.0,40.0,95.0,9.0
0.0,40.0,109.0,0.0
0.0,46.0,82.0,6.0
0.0,40.0,99.0,0.0
0.0,35.0,119.0,0.0
0.0,28.0,109.0,0.0
0.0,52.0,95.0,0.0
0.0,47.0,95.0,0.0
0.0,40.0,95.0,0.0
0.0,52.0,109.0,0.0
0.0,47.0,109.0,0.0
0.0,40.0,103.0,6.0
0.0,40.0,109.0,0.0
0.0,46.0,85.0,7.0
0.0,40.0,107.0,0.0
0.0,35.0,122.0,0.0
0.0,28.0,109.0,0.0
0.0,52.0,95.0,0.0
0.0,47.0,95.0,0.0
0.0,40.0,95.0,0.0
0.0,52.0,109.0,0.0
0.0,47.0,109.0,0.0
0.0,40.0,110.0,9.0
0.0,40.0,109.0,0.0
0.0,46.0,87.0,5.0
0.0,35.0,127.0,0.0
0.0,49.0,65.0,0.0
0.0,25.0,111.0,0.0
0.0,49.0,101.0,0.0
0.0,44.0,101.0,0.0
0.0,37.0,101.0,0.0
0.0,49.0,112.0,0.0
0.0,49.0,106.0,0.0
0.0,44.0,106.0,0.0
0.0,37.0,106.0,0.0
0.0,46.0,65.0,2.0
0.0,25.0,112.0,0.0
0.0,37.0,102.0,0.0
0.0,37.0,106.0,0.0
0.0,35.0,111.0,23.0
0.0,32.0,112.0,0.0
0.0,44.0,102.0,0.0
0.0,51.0,102.0,0.0
0.0,56.0,102.0,0.0
0.0,49.0,114.0,0.0
0.0,44.0,106.0,0.0
0.0,51.0,106.0,0.0
0.0,56.0,106.0,0.0
0.0,46.0,84.0,0.0
0.0,40.0,127.0,0.0
0.0,32.0,112.0,0.0
0.0,49.0,114.0,0.0
0.0,46.0,65.0,24.0
0.0,35.0,127.0,0.0
0.0,57.0,79.0,0.0
0.0,30.0,112.0,0.0
0.0,49.0,102.0,0.0
0.0,54.0,102.0,0.0
0.0,42.0,102.0,0.0
0.0,49.0,114.0,0.0
0.0,49.0,106.0,0.0
0.0,54.0,106.0,0.0
0.0,42.0,106.0,0.0
0.0,49.0,114.0,0.0
0.0,46.0,77.0,18.0
0.0,30.0,112.0,0.0
0.0,42.0,102.0,0.0
0.0,49.0,114.0,0.0
0.0,42.0,106.0,0.0
0.0,35.0,84.0,0.0
0.0,28.0,112.0,0.0
0.0,40.0,102.0,0.0
0.0,52.0,102.0,0.0
0.0,47.0,102.0,0.0
0.0,40.0,106.0,0.0
0.0,52.0,106.0,0.0
0.0,47.0,106.0,0.0
0.0,46.0,67.0,0.0
0.0,35.0,127.0,0.0
0.0,49.0,114.0,0.0
0.0,28.0,112.0,0.0
0.0,40.0,102.0,0.0
0.0,40.0,106.0,0.0
0.0,46.0,82.0,8.0
0.0,40.0,127.0,0.0
0.0,27.0,112.0,0.0
0.0,46.0,97.0,0.0
0.0,51.0,97.0,0.0
0.0,39.0,97.0,0.0
0.0,49.0,114.0,0.0
0.0,46.0,106.0,0.0
0.0,51.0,106.0,0.0
0.0,39.0,106.0,0.0
0.0,35.0,127.0,0.0
0.0,46.0,67.0,0.0
0.0,27.0,112.0,0.0
0.0,49.0,114.0,0.0
0.0,35.0,84.0,22.0
0.0,27.0,112.0,0.0
0.0,49.0,114.0,0.0
0.0,46.0,87.0,0.0
0.0,35.0,127.0,0.0
0.0,49.0,65.0,0.0
0.0,25.0,112.0,0.0
0.0,49.0,102.0,0.0
0.0,37.0,102.0,0.0
0.0,44.0,102.0,0.0
0.0,49.0,114.0,0.0
0.0,49.0,106.0,0.0
0.0,37.0,106.0,0.0
0.0,44.0,106.0,0.0
0.0,49.0,114.0,0.0
0.0,46.0,65.0,21.0
0.0,49.0,114.0,0.0
0.0,35.0,111.0,14.0
0.0,49.0,114.0,0.0
0.0,46.0,84.0,0.0
0.0,40.0,127.0,0.0
0.0,49.0,114.0,0.0
0.0,46.0,65.0,40.0
0.0,35.0,127.0,0.0
0.0,57.0,79.0,0.0
0.0,25.0,112.0,0.0
0.0,44.0,101.0,0.0
0.0,49.0,101.0,0.0
0.0,37.0,101.0,0.0
0.0,49.0,114.0,0.0
0.0,44.0,106.0,0.0
0.0,49.0,106.0,0.0
0.0,37.0,106.0,0.0
0.0,49.0,114.0,0.0
0.0,46.0,77.0,13.0
0.0,49.0,114.0,0.0
0.0,35.0,84.0,4.0
0.0,49.0,114.0,0.0
0.0,46.0,67.0,0.0
0.0,35.0,127.0,0.0
0.0,49.0,114.0,0.0
0.0,46.0,82.0,25.0
0.0,40.0,127.0,0.0
0.0,25.0,112.0,0.0
0.0,44.0,101.0,0.0
0.0,49.0,101.0,0.0
0.0,37.0,101.0,0.0
0.0,49.0,114.0,0.0
0.0,44.0,106.0,0.0
0.0,49.0,106.0,0.0
0.0,37.0,106.0,0.0
0.0,35.0,127.0,0.0
0.0,46.0,67.0,0.0
0.0,49.0,114.0,0.0
0.0,35.0,84.0,22.0
0.0,49.0,114.0,0.0
0.0,46.0,87.0,0.0
0.0,35.0,127.0,0.0
0.0,49.0,65.0,0.0
0.0,25.0,111.0,0.0
0.0,49.0,101.0,0.0
0.0,44.0,101.0,0.0
0.0,37.0,101.0,0.0
0.0,49.0,114.0,0.0
0.0,49.0,106.0,0.0
0.0,44.0,106.0,0.0
0.0,37.0,106.0,0.0
0.0,46.0,65.0,24.0
0.0,25.0,112.0,0.0
0.0,37.0,102.0,0.0
0.0,49.0,114.0,0.0
0.0,37.0,106.0,0.0
0.0,35.0,111.0,22.0
0.0,32.0,112.0,0.0
0.0,44.0,102.0,0.0
0.0,51.0,102.0,0.0
0.0,56.0,102.0,0.0
0.0,49.0,114.0,0.0
0.0,44.0,104.0,0.0
0.0,51.0,104.0,0.0
0.0,56.0,104.0,0.0
0.0,46.0,84.0,0.0
0.0,40.0,127.0,0.0
0.0,55.0,70.0,0.0
0.0,32.0,112.0,0.0
0.0,49.0,114.0,0.0
0.0,46.0,65.0,0.0
0.0,35.0,127.0,0.0
0.0,57.0,79.0,0.0
0.0,30.0,112.0,0.0
0.0,49.0,102.0,0.0
0.0,54.0,102.0,0.0
0.0,42.0,102.0,0.0
0.0,49.0,114.0,0.0
0.0,49.0,104.0,0.0
0.0,54.0,104.0,0.0
0.0,42.0,104.0,0.0
0.0,49.0,114.0,0.0
0.0,46.0,77.0,19.0
0.0,30.0,112.0,0.0
0.0,42.0,102.0,0.0
0.0,49.0,114.0,0.0
0.0,42.0,104.0,0.0
0.0,35.0,84.0,0.0
0.0,28.0,112.0,0.0
0.0,40.0,102.0,0.0
0.0,52.0,102.0,0.0
0.0,47.0,102.0,0.0
0.0,49.0,114.0,0.0
0.0,40.0,104.0,0.0
0.0,52.0,104.0,0.0
0.0,47.0,104.0,0.0
0.0,46.0,67.0,0.0
0.0,35.0,127.0,0.0
0.0,49.0,114.0,0.0
0.0,28.0,112.0,0.0
0.0,40.0,102.0,0.0
0.0,49.0,114.0,0.0
0.0,40.0,104.0,0.0
0.0,46.0,82.0,8.0
0.0,40.0,127.0,0.0
0.0,27.0,112.0,0.0
0.0,46.0,97.0,0.0
0.0,51.0,97.0,0.0
0.0,39.0,97.0,0.0
0.0,49.0,114.0,0.0
0.0,46.0,104.0,0.0
0.0,51.0,104.0,0.0
0.0,39.0,104.0,0.0
0.0,35.0,127.0,0.0
0.0,46.0,67.0,0.0
0.0,27.0,112.0,0.0
0.0,49.0,114.0,0.0
0.0,35.0,84.0,22.0
0.0,27.0,112.0,0.0
0.0,49.0,114.0,0.0
0.0,46.0,87.0,0.0
0.0,35.0,127.0,0.0
0.0,49.0,65.0,0.0
0.0,25.0,112.0,0.0
0.0,49.0,102.0,0.0
0.0,37.0,102.0,0.0
0.0,44.0,102.0,0.0
0.0,49.0,112.0,0.0
0.0,49.0,104.0,0.0
0.0,37.0,104.0,0.0
0.0,44.0,104.0,0.0
0.0,49.0,112.0,0.0
0.0,46.0,65.0,30.0
0.0,49.0,112.0,0.0
0.0,35.0,111.0,15.0
0.0,49.0,112.0,0.0
0.0,46.0,84.0,0.0
0.0,40.0,127.0,0.0
0.0,49.0,112.0,0.0
0.0,46.0,65.0,36.0
0.0,35.0,127.0,0.0
0.0,57.0,79.0,0.0
0.0,25.0,112.0,0.0
0.0,44.0,101.0,0.0
0.0,49.0,101.0,0.0
0.0,37.0,101.0,0.0
0.0,49.0,112.0,0.0
0.0,44.0,104.0,0.0
0.0,49.0,104.0,0.0
0.0,37.0,104.0,0.0
0.0,49.0,112.0,0.0
0.0,46.0,77.0,20.0
0.0,49.0,112.0,0.0
0.0,35.0,84.0,4.0
0.0,49.0,112.0,0.0
0.0,46.0,67.0,0.0
0.0,35.0,127.0,0.0
0.0,49.0,112.0,0.0
0.0,46.0,82.0,30.0
0.0,40.0,127.0,0.0
0.0,25.0,112.0,0.0
0.0,44.0,101.0,0.0
0.0,49.0,101.0,0.0
0.0,37.0,101.0,0.0
0.0,49.0,112.0,0.0
0.0,44.0,104.0,0.0
0.0,49.0,104.0,0.0
0.0,37.0,104.0,0.0
0.0,35.0,127.0,3.0
0.0,46.0,67.0,0.0
0.0,49.0,112.0,0.0
0.0,49.0,112.0,0.0
0.0,35.0,84.0,24.0
0.0,46.0,87.0,0.0
0.0,35.0,127.0,0.0
0.0,49.0,65.0,0.0
0.0,25.0,111.0,0.0
0.0,49.0,101.0,0.0
0.0,44.0,101.0,0.0
0.0,37.0,101.0,0.0
0.0,49.0,112.0,0.0
0.0,49.0,112.0,0.0
0.0,49.0,106.0,0.0
0.0,44.0,106.0,0.0
0.0,37.0,106.0,0.0
0.0,46.0,65.0,25.0
0.0,25.0,112.0,0.0
0.0,37.0,102.0,0.0
0.0,49.0,112.0,0.0
0.0,49.0,112.0,0.0
0.0,37.0,106.0,0.0
0.0,35.0,111.0,16.0
0.0,32.0,112.0,0.0
0.0,44.0,102.0,0.0
0.0,51.0,102.0,0.0
0.0,56.0,102.0,0.0
0.0,49.0,112.0,0.0
0.0,49.0,112.0,0.0
0.0,44.0,106.0,0.0
0.0,51.0,106.0,0.0
0.0,56.0,106.0,0.0
0.0,46.0,84.0,0.0
0.0,40.0,127.0,0.0
0.0,32.0,112.0,0.0
0.0,49.0,112.0,0.0
0.0,49.0,112.0,0.0
0.0,46.0,65.0,10.0
0.0,35.0,127.0,0.0
0.0,57.0,79.0,0.0
0.0,30.0,112.0,0.0
0.0,49.0,102.0,0.0
0.0,54.0,102.0,0.0
0.0,42.0,102.0,0.0
0.0,49.0,112.0,0.0
0.0,49.0,112.0,0.0
0.0,49.0,106.0,0.0
0.0,54.0,106.0,0.0
0.0,42.0,106.0,0.0
0.0,46.0,77.0,23.0
0.0,30.0,112.0,0.0
0.0,42.0,102.0,0.0
0.0,49.0,112.0,0.0
0.0,49.0,112.0,0.0
0.0,42.0,106.0,0.0
0.0,35.0,84.0,0.0
0.0,28.0,112.0,0.0
0.0,40.0,102.0,0.0
0.0,52.0,102.0,0.0
0.0,47.0,102.0,0.0
0.0,49.0,112.0,0.0
0.0,49.0,112.0,0.0
0.0,40.0,106.0,0.0
0.0,52.0,106.0,0.0
0.0,47.0,106.0,0.0
0.0,46.0,67.0,0.0
0.0,35.0,127.0,0.0
0.0,28.0,112.0,0.0
0.0,40.0,102.0,0.0
0.0,40.0,106.0,0.0
0.0,46.0,82.0,8.0
0.0,40.0,127.0,0.0
0.0,27.0,112.0,0.0
0.0,46.0,97.0,0.0
0.0,51.0,97.0,0.0
0.0,39.0,97.0,0.0
0.0,49.0,112.0,0.0
0.0,49.0,112.0,0.0
0.0,46.0,106.0,0.0
0.0,51.0,106.0,0.0
0.0,39.0,106.0,0.0
0.0,35.0,127.0,0.0
0.0,46.0,67.0,0.0
0.0,27.0,112.0,0.0
0.0,49.0,112.0,0.0
0.0,49.0,112.0,0.0
0.0,35.0,84.0,22.0
0.0,27.0,112.0,0.0
0.0,46.0,87.0,0.0
0.0,35.0,127.0,0.0
0.0,49.0,65.0,0.0
0.0,25.0,112.0,0.0
0.0,49.0,102.0,0.0
0.0,37.0,102.0,0.0
0.0,44.0,102.0,0.0
0.0,49.0,112.0,0.0
0.0,49.0,112.0,0.0
0.0,49.0,106.0,0.0
0.0,37.0,106.0,0.0
0.0,44.0,106.0,0.0
0.0,46.0,65.0,29.0
0.0,49.0,112.0,0.0
0.0,49.0,112.0,0.0
0.0,35.0,111.0,13.0
0.0,49.0,112.0,0.0
0.0,49.0,112.0,0.0
0.0,46.0,84.0,0.0
0.0,40.0,127.0,0.0
0.0,49.0,112.0,0.0
0.0,49.0,112.0,0.0
0.0,46.0,65.0,13.0
0.0,35.0,127.0,0.0
0.0,57.0,79.0,0.0
0.0,25.0,112.0,0.0
0.0,44.0,101.0,0.0
0.0,49.0,101.0,0.0
0.0,37.0,101.0,0.0
0.0,49.0,112.0,0.0
0.0,49.0,112.0,0.0
0.0,44.0,106.0,0.0
0.0,49.0,106.0,0.0
0.0,37.0,106.0,0.0
0.0,46.0,77.0,23.0
0.0,49.0,112.0,0.0
0.0,49.0,112.0,0.0
0.0,35.0,84.0,4.0
0.0,49.0,112.0,0.0
0.0,49.0,112.0,0.0
0.0,46.0,67.0,0.0
0.0,35.0,127.0,0.0
0.0,46.0,82.0,14.0
0.0,40.0,127.0,0.0
0.0,25.0,112.0,0.0
0.0,44.0,101.0,0.0
0.0,49.0,101.0,0.0
0.0,37.0,101.0,0.0
0.0,44.0,106.0,0.0
0.0,49.0,106.0,0.0
0.0,37.0,106.0,0.0
0.0,35.0,127.0,10.0
0.0,46.0,67.0,0.0
0.0,49.0,112.0,0.0
0.0,49.0,112.0,0.0
0.0,35.0,84.0,24.0
0.0,46.0,87.0,0.0
0.0,35.0,127.0,0.0
0.0,49.0,65.0,0.0
0.0,25.0,111.0,0.0
0.0,49.0,101.0,0.0
0.0,44.0,101.0,0.0
0.0,37.0,101.0,0.0
0.0,49.0,112.0,0.0
0.0,49.0,112.0,0.0
0.0,49.0,106.0,0.0
0.0,44.0,106.0,0.0
0.0,37.0,106.0,0.0
0.0,0.0,0.0,0.0
0.0,0.0,0.0,0.0
0.0,0.0,0.0,0.0
0.0,0.0,0.0,0.0
0.0,0.0,0.0,0.0
0.0,0.0,0.0,0.0
0.0,0.0,0.0,0.0
0.0,0.0,0.0,0.0
0.0,0.0,0.0,0.0
0.0,0.0,0.0,0.0
0.0,0.0,0.0,0.0
0.0,0.0,0.0,0.0
0.0,0.0,0.0,0.0
0.0,0.0,0.0,0.0
0.0,0.0,0.0,0.0
0.0,0.0,0.0,0.0
0.0,0.0,0.0,0.0
0.0,0.0,0.0,0.0
0.0,0.0,0.0,0.0
0.0,0.0,0.0,0.0
0.0,0.0,0.0,0.0
0.0,0.0,0.0,0.0
0.0,0.0,0.0,0.0
0.0,0.0,0.0,0.0
0.0,0.0,0.0,0.0
0.0,0.0,0.0,0.0
0.0,0.0,0.0,0.0
0.0,0.0,0.0,0.0
0.0,0.0,0.0,0.0
0.0,0.0,0.0,0.0
0.0,0.0,0.0,0.0
0.0,0.0,0.0,0.0
0.0,0.0,0.0,0.0
0.0,0.0,0.0,0.0
0.0,0.0,0.0,0.0
0.0,0.0,0.0,0.0
0.0,0.0,0.0,0.0
0.0,0.0,0.0,0.0
0.0,0.0,0.0,0.0
0.0,0.0,0.0,0.0
0.0,0.0,0.0,0.0
0.0,0.0,0.0,0.0
0.0,0.0,0.0,0.0
0.0,0.0,0.0,0.0
0.0,0.0,0.0,0.0
0.0,0.0,0.0,0.0
0.0,0.0,0.0,0.0
0.0,0.0,0.0,0.0
0.0,0.0,0.0,0.0
0.0,0.0,0.0,0.0
0.0,0.0,0.0,0.0
0.0,0.0,0.0,0.0
0.0,0.0,0.0,0.0
0.0,0.0,0.0,0.0
0.0,0.0,0.0,0.0
0.0,0.0,0.0,0.0
0.0,0.0,0.0,0.0
0.0,0.0,0.0,0.0
0.0,0.0,0.0,0.0
0.0,0.0,0.0,0.0
0.0,0.0,0.0,0.0
0.0,0.0,0.0,0.0
0.0,0.0,0.0,0.0
0.0,0.0,0.0,0.0
0.0,0.0,0.0,0.0
0.0,0.0,0.0,0.0
0.0,0.0,0.0,0.0
0.0,0.0,0.0,0.0
0.0,0.0,0.0,0.0
0.0,0.0,0.0,0.0
0.0,0.0,0.0,0.0
0.0,0.0,0.0,0.0
0.0,0.0,0.0,0.0
0.0,0.0,0.0,0.0
0.0,0.0,0.0,0.0
0.0,0.0,0.0,0.0
0.0,0.0,0.0,0.0
0.0,0.0,0.0,0.0
0.0,0.0,0.0,0.0
0.0,0.0,0.0,0.0
0.0,0.0,0.0,0.0
0.0,0.0,0.0,0.0
0.0,0.0,0.0,0.0
0.0,0.0,0.0,0.0
