track,note,velocity,time
1,72,127,0
1,81,127,0
1,72,127,0
1,81,127,0
1,72,127,0
1,81,127,0
1,72,127,0
1,81,127,0
1,72,127,0
1,81,127,0
1,72,127,0
1,81,127,0
1,72,127,0
1,81,127,0
1,72,127,0
1,81,127,0
1,72,127,0
1,81,127,0
1,72,127,0
1,81,127,0
1,72,127,0
1,81,127,0
1,71,127,0
1,79,127,0
1,71,127,0
1,79,127,0
1,71,127,0
1,79,127,0
1,71,127,0
1,79,127,0
1,71,127,0
1,79,127,0
1,72,127,0
1,81,127,0
1,72,127,0
1,81,127,0
1,72,127,0
1,81,127,0
1,72,127,0
1,81,127,0
1,72,127,0
1,81,127,0
1,72,127,0
1,81,127,0
1,72,127,0
1,81,127,0
1,72,127,0
1,81,127,0
1,72,127,0
1,81,127,0
1,72,127,0
1,81,127,0
1,72,127,0
1,81,127,0
1,71,127,0
1,79,127,0
1,71,127,0
1,79,127,0
1,71,127,0
1,79,127,0
1,71,127,0
1,79,127,0
1,71,127,0
1,79,127,0
1,72,127,0
1,81,127,0
1,72,127,0
1,81,127,0
1,72,127,0
1,81,127,0
1,72,127,0
1,81,127,0
1,72,127,0
1,81,127,0
1,72,127,0
1,81,127,0
1,72,127,0
1,81,127,0
1,72,127,0
1,81,127,0
1,72,127,0
1,81,127,0
1,72,127,0
1,81,127,0
1,72,127,0
1,81,127,0
1,71,127,0
1,79,127,0
1,71,127,0
1,79,127,0
1,71,127,0
1,79,127,0
1,71,127,0
1,79,127,0
1,71,127,0
1,79,127,0
1,72,127,0
1,81,127,0
1,72,127,0
1,81,127,0
1,72,127,0
1,81,127,0
1,72,127,0
1,81,127,0
1,72,127,0
1,81,127,0
1,72,127,0
1,81,127,0
1,72,127,0
1,81,127,0
1,72,127,0
1,81,127,0
1,72,127,0
1,81,127,0
1,72,127,0
1,81,127,0
1,72,127,0
1,81,127,0
1,71,127,0
1,79,127,0
1,71,127,0
1,79,127,0
1,71,127,0
1,79,127,0
1,71,127,0
1,79,127,0
1,71,127,0
1,79,127,0
1,72,127,0
1,81,127,0
1,72,127,0
1,81,127,0
1,72,127,0
1,81,127,0
1,72,127,0
1,81,127,0
1,72,127,0
1,81,127,0
1,72,127,0
1,81,127,0
1,72,127,0
1,81,127,0
1,72,127,0
1,81,127,0
1,72,127,0
1,81,127,0
1,72,127,0
1,81,127,0
1,72,127,0
1,81,127,0
1,71,127,0
1,79,127,0
1,71,127,0
1,79,127,0
1,71,127,0
1,79,127,0
1,71,127,0
1,79,127,0
1,71,127,0
1,79,127,0
1,72,127,0
1,81,127,0
1,72,127,0
1,81,127,0
1,72,127,0
1,81,127,0
1,72,127,0
1,81,127,0
1,72,127,0
1,81,127,0
1,72,127,0
1,81,127,0
1,72,127,0
1,81,127,0
1,72,127,0
1,81,127,0
1,72,127,0
1,81,127,0
1,72,127,0
1,81,127,0
1,72,127,0
1,81,127,0
1,71,127,0
1,79,127,0
1,71,127,0
1,79,127,0
1,71,127,0
1,79,127,0
1,71,127,0
1,79,127,0
1,71,127,0
1,79,127,0
1,72,127,0
1,81,127,0
1,72,127,0
1,81,127,0
1,72,127,0
1,81,127,0
1,72,127,0
1,81,127,0
1,72,127,0
1,81,127,0
1,72,127,0
1,81,127,0
1,72,127,0
1,81,127,0
1,72,127,0
1,81,127,0
1,72,127,0
1,81,127,0
1,72,127,0
1,81,127,0
1,72,127,0
1,81,127,0
1,71,127,0
1,79,127,0
1,71,127,0
1,79,127,0
1,71,127,0
1,79,127,0
1,71,127,0
1,79,127,0
1,71,127,0
1,79,127,0
1,72,127,0
1,81,127,0
1,72,127,0
1,81,127,0
1,72,127,0
1,81,127,0
1,72,127,0
1,81,127,0
1,72,127,0
1,81,127,0
1,72,127,0
1,81,127,0
1,72,127,0
1,81,127,0
1,72,127,0
1,81,127,0
1,72,127,0
1,81,127,0
1,72,127,0
1,81,127,0
1,72,127,0
1,81,127,0
1,71,127,0
1,79,127,0
1,71,127,0
1,79,127,0
1,71,127,0
1,79,127,0
1,71,127,0
1,79,127,0
1,71,127,0
1,79,127,0
1,72,127,0
1,81,127,0
1,72,127,0
1,81,127,0
1,72,127,0
1,81,127,0
1,72,127,0
1,81,127,0
1,72,127,0
1,81,127,0
1,72,127,0
1,81,127,0
1,72,127,0
1,81,127,0
1,72,127,0
1,81,127,0
1,72,127,0
1,81,127,0
1,72,127,0
1,81,127,0
1,72,127,0
1,81,127,0
1,71,127,0
1,79,127,0
1,71,127,0
1,79,127,0
1,71,127,0
1,79,127,0
1,71,127,0
1,79,127,0
1,71,127,0
1,79,127,0
1,72,127,0
1,81,127,0
1,72,127,0
1,81,127,0
1,72,127,0
1,81,127,0
1,72,127,0
1,81,127,0
1,72,127,0
1,81,127,0
1,72,127,0
1,81,127,0
1,72,127,0
1,81,127,0
1,72,127,0
1,81,127,0
1,72,127,0
1,81,127,0
1,72,127,0
1,81,127,0
1,72,127,0
1,81,127,0
1,71,127,0
1,79,127,0
1,71,127,0
1,79,127,0
1,71,127,0
1,79,127,0
1,71,127,0
1,79,127,0
1,71,127,0
1,79,127,0
1,72,127,0
1,81,127,0
1,72,127,0
1,81,127,0
1,72,127,0
1,81,127,0
1,72,127,0
1,81,127,0
1,72,127,0
1,81,127,0
1,72,127,0
1,81,127,0
1,72,127,0
1,81,127,0
1,72,127,0
1,81,127,0
1,72,127,0
1,81,127,0
1,72,127,0
1,81,127,0
1,72,127,0
1,81,127,0
1,71,127,0
1,79,127,0
1,71,127,0
1,79,127,0
1,71,127,0
1,79,127,0
1,71,127,0
1,79,127,0
1,71,127,0
1,79,127,0
1,72,127,0
1,81,127,0
1,72,127,0
1,81,127,0
1,72,127,0
1,81,127,0
1,72,127,0
1,81,127,0
1,72,127,0
1,81,127,0
1,72,127,0
1,81,127,0
1,72,127,0
1,81,127,0
1,72,127,0
1,81,127,0
1,72,127,0
1,81,127,0
1,72,127,0
1,81,127,0
1,72,127,0
1,81,127,0
1,71,127,0
1,79,127,0
1,71,127,0
1,79,127,0
1,71,127,0
1,79,127,0
1,71,127,0
1,79,127,0
1,71,127,0
1,79,127,0
1,72,127,0
1,81,127,0
1,72,127,0
1,81,127,0
1,72,127,0
1,81,127,0
1,72,127,0
1,81,127,0
1,72,127,0
1,81,127,0
1,72,127,0
1,81,127,0
1,72,127,0
1,81,127,0
1,72,127,0
1,81,127,0
1,72,127,0
1,81,127,0
1,72,127,0
1,81,127,0
1,72,127,0
1,81,127,0
1,71,127,0
1,79,127,0
1,71,127,0
1,79,127,0
1,71,127,0
1,79,127,0
1,71,127,0
1,79,127,0
1,71,127,0
1,79,127,0
1,72,127,0
1,81,127,0
1,72,127,0
1,81,127,0
1,72,127,0
1,81,127,0
1,72,127,0
1,81,127,0
1,72,127,0
1,81,127,0
1,72,127,0
1,81,127,0
1,72,127,0
1,81,127,0
1,72,127,0
1,81,127,0
1,72,127,0
1,81,127,0
1,72,127,0
1,81,127,0
1,72,127,0
1,81,127,0
1,71,127,0
1,79,127,0
1,71,127,0
1,79,127,0
1,71,127,0
1,79,127,0
1,71,127,0
1,79,127,0
1,71,127,0
1,79,127,0
1,72,127,0
1,81,127,0
1,72,127,0
1,81,127,0
1,72,127,0
1,81,127,0
1,72,127,0
1,81,127,0
1,72,127,0
1,81,127,0
1,72,127,0
1,81,127,0
1,72,127,0
1,81,127,0
1,72,127,0
1,81,127,0
1,72,127,0
1,81,127,0
1,72,127,0
1,81,127,0
1,72,127,0
1,81,127,0
1,71,127,0
1,79,127,0
1,71,127,0
1,79,127,0
1,71,127,0
1,79,127,0
1,71,127,0
1,79,127,0
1,71,127,0
1,79,127,0
1,72,127,0
1,81,127,0
1,72,127,0
1,81,127,0
1,72,127,0
1,81,127,0
1,72,127,0
1,81,127,0
1,72,127,0
1,81,127,0
1,72,127,0
1,81,127,0
1,72,127,0
1,81,127,0
1,72,127,0
1,81,127,0
1,72,127,0
1,81,127,0
1,72,127,0
1,81,127,0
1,72,127,0
1,81,127,0
1,71,127,0
1,79,127,0
1,71,127,0
1,79,127,0
1,71,127,0
1,79,127,0
1,71,127,0
1,79,127,0
1,71,127,0
1,79,127,0
1,72,127,0
1,81,127,0
1,72,127,0
1,81,127,0
1,72,127,0
1,81,127,0
1,72,127,0
1,81,127,0
1,72,127,0
1,81,127,0
1,72,127,0
1,81,127,0
1,72,127,0
1,81,127,0
1,72,127,0
1,81,127,0
1,72,127,0
1,81,127,0
1,72,127,0
1,81,127,0
1,72,127,0
1,81,127,0
1,71,127,0
1,79,127,0
1,71,127,0
1,79,127,0
1,71,127,0
1,79,127,0
1,71,127,0
1,79,127,0
1,71,127,0
1,79,127,0
1,72,127,0
1,81,127,0
1,72,127,0
1,81,127,0
1,72,127,0
1,81,127,0
1,72,127,0
1,81,127,0
1,72,127,0
1,81,127,0
1,72,127,0
1,81,127,0
1,72,127,0
1,81,127,0
1,72,127,0
1,81,127,0
1,72,127,0
1,81,127,0
1,72,127,0
1,81,127,0
1,72,127,0
1,81,127,0
1,71,127,0
1,79,127,0
1,71,127,0
1,79,127,0
1,71,127,0
1,79,127,0
1,71,127,0
1,79,127,0
1,71,127,0
1,79,127,0
2,31,96,2880
2,33,96,0
2,35,96,432
2,40,96,0
2,31,96,432
2,33,96,0
2,35,96,432
2,40,96,0
2,31,96,432
2,33,96,0
2,35,96,432
2,40,96,0
2,31,96,432
2,33,96,0
2,35,96,432
2,40,96,0
2,31,96,432
2,33,96,0
2,35,96,432
2,40,96,0
2,31,96,432
2,33,96,0
2,35,96,432
2,40,96,0
2,31,96,432
2,33,96,0
2,35,96,432
2,40,96,0
2,31,96,432
2,33,96,0
2,35,96,432
2,40,96,0
2,31,96,432
2,33,96,0
2,35,96,432
2,40,96,0
2,31,96,432
2,33,96,0
2,35,96,432
2,40,96,0
2,31,96,432
2,33,96,0
2,35,96,432
2,40,96,0
2,31,96,432
2,33,96,0
2,35,96,432
2,40,96,0
2,31,96,432
2,33,96,0
2,35,96,432
2,40,96,0
2,31,96,432
2,33,96,0
2,35,96,432
2,40,96,0
2,31,96,432
2,33,96,0
2,35,96,432
2,40,96,0
2,31,96,432
2,33,96,0
2,35,96,432
2,40,96,0
2,31,96,432
3,72,96,0
3,81,96,0
3,72,96,0
3,81,96,0
3,72,96,0
3,81,96,0
3,72,96,0
3,81,96,0
3,72,96,0
3,81,96,0
3,72,96,0
3,81,96,0
3,72,96,0
3,81,96,0
3,72,96,0
3,81,96,0
3,72,96,0
3,81,96,0
3,72,96,0
3,81,96,0
3,72,96,0
3,81,96,0
3,71,96,0
3,79,96,0
3,71,96,0
3,79,96,0
3,71,96,0
3,79,96,0
3,71,96,0
3,79,96,0
3,71,96,0
3,79,96,0
3,72,96,0
3,81,96,0
3,72,96,0
3,81,96,0
3,72,96,0
3,81,96,0
3,72,96,0
3,81,96,0
3,72,96,0
3,81,96,0
3,72,96,0
3,81,96,0
3,72,96,0
3,81,96,0
3,72,96,0
3,81,96,0
3,72,96,0
3,81,96,0
3,72,96,0
3,81,96,0
3,72,96,0
3,81,96,0
3,71,96,0
3,79,96,0
3,71,96,0
3,79,96,0
3,71,96,0
3,79,96,0
3,71,96,0
3,79,96,0
3,71,96,0
3,79,96,0
3,72,96,0
3,81,96,0
3,72,96,0
3,81,96,0
3,72,96,0
3,81,96,0
3,72,96,0
3,81,96,0
3,72,96,0
3,81,96,0
3,72,96,0
3,81,96,0
3,72,96,0
3,81,96,0
3,72,96,0
3,81,96,0
3,72,96,0
3,81,96,0
3,72,96,0
3,81,96,0
3,72,96,0
3,81,96,0
3,71,96,0
3,79,96,0
3,71,96,0
3,79,96,0
3,71,96,0
3,79,96,0
3,71,96,0
3,79,96,0
3,71,96,0
3,79,96,0
3,72,96,0
3,81,96,0
3,72,96,0
3,81,96,0
3,72,96,0
3,81,96,0
3,72,96,0
3,81,96,0
3,72,96,0
3,81,96,0
3,72,96,0
3,81,96,0
3,72,96,0
3,81,96,0
3,72,96,0
3,81,96,0
3,72,96,0
3,81,96,0
3,72,96,0
3,81,96,0
3,72,96,0
3,81,96,0
3,71,96,0
3,79,96,0
3,71,96,0
3,79,96,0
3,71,96,0
3,79,96,0
3,71,96,0
3,79,96,0
3,71,96,0
3,79,96,0
3,72,96,0
3,81,96,0
3,72,96,0
3,81,96,0
3,72,96,0
3,81,96,0
3,72,96,0
3,81,96,0
3,72,96,0
3,81,96,0
3,72,96,0
3,81,96,0
3,72,96,0
3,81,96,0
3,72,96,0
3,81,96,0
3,72,96,0
3,81,96,0
3,72,96,0
3,81,96,0
3,72,96,0
3,81,96,0
3,71,96,0
3,79,96,0
3,71,96,0
3,79,96,0
3,71,96,0
3,79,96,0
3,71,96,0
3,79,96,0
3,71,96,0
3,79,96,0
3,72,96,0
3,81,96,0
3,72,96,0
3,81,96,0
3,72,96,0
3,81,96,0
3,72,96,0
3,81,96,0
3,72,96,0
3,81,96,0
3,72,96,0
3,81,96,0
3,72,96,0
3,81,96,0
3,72,96,0
3,81,96,0
3,72,96,0
3,81,96,0
3,72,96,0
3,81,96,0
3,72,96,0
3,81,96,0
3,71,96,0
3,79,96,0
3,71,96,0
3,79,96,0
3,71,96,0
3,79,96,0
3,71,96,0
3,79,96,0
3,71,96,0
3,79,96,0
3,72,96,0
3,81,96,0
3,72,96,0
3,81,96,0
3,72,96,0
3,81,96,0
3,72,96,0
3,81,96,0
3,72,96,0
3,81,96,0
3,72,96,0
3,81,96,0
3,72,96,0
3,81,96,0
3,72,96,0
3,81,96,0
3,72,96,0
3,81,96,0
3,72,96,0
3,81,96,0
3,72,96,0
3,81,96,0
3,71,96,0
3,79,96,0
3,71,96,0
3,79,96,0
3,71,96,0
3,79,96,0
3,71,96,0
3,79,96,0
3,71,96,0
3,79,96,0
3,72,96,0
3,81,96,0
3,72,96,0
3,81,96,0
3,72,96,0
3,81,96,0
3,72,96,0
3,81,96,0
3,72,96,0
3,81,96,0
3,72,96,0
3,81,96,0
3,72,96,0
3,81,96,0
3,72,96,0
3,81,96,0
3,72,96,0
3,81,96,0
3,72,96,0
3,81,96,0
3,72,96,0
3,81,96,0
3,71,96,0
3,79,96,0
3,71,96,0
3,79,96,0
3,71,96,0
3,79,96,0
3,71,96,0
3,79,96,0
3,71,96,0
3,79,96,0
3,72,96,0
3,81,96,0
3,72,96,0
3,81,96,0
3,72,96,0
3,81,96,0
3,72,96,0
3,81,96,0
3,72,96,0
3,81,96,0
3,72,96,0
3,81,96,0
3,72,96,0
3,81,96,0
3,72,96,0
3,81,96,0
3,72,96,0
3,81,96,0
3,72,96,0
3,81,96,0
3,72,96,0
3,81,96,0
3,71,96,0
3,79,96,0
3,71,96,0
3,79,96,0
3,71,96,0
3,79,96,0
3,71,96,0
3,79,96,0
3,71,96,0
3,79,96,0
3,72,96,0
3,81,96,0
3,72,96,0
3,81,96,0
3,72,96,0
3,81,96,0
3,72,96,0
3,81,96,0
3,72,96,0
3,81,96,0
3,72,96,0
3,81,96,0
3,72,96,0
3,81,96,0
3,72,96,0
3,81,96,0
3,72,96,0
3,81,96,0
3,72,96,0
3,81,96,0
3,72,96,0
3,81,96,0
3,71,96,0
3,79,96,0
3,71,96,0
3,79,96,0
3,71,96,0
3,79,96,0
3,71,96,0
3,79,96,0
3,71,96,0
3,79,96,0
3,72,96,0
3,81,96,0
3,72,96,0
3,81,96,0
3,72,96,0
3,81,96,0
3,72,96,0
3,81,96,0
3,72,96,0
3,81,96,0
3,72,96,0
3,81,96,0
3,72,96,0
3,81,96,0
3,72,96,0
3,81,96,0
3,72,96,0
3,81,96,0
3,72,96,0
3,81,96,0
3,72,96,0
3,81,96,0
3,71,96,0
3,79,96,0
3,71,96,0
3,79,96,0
3,71,96,0
3,79,96,0
3,71,96,0
3,79,96,0
3,71,96,0
3,79,96,0
3,72,96,0
3,81,96,0
3,72,96,0
3,81,96,0
3,72,96,0
3,81,96,0
3,72,96,0
