track,note,velocity,time
1,28,88,2880
1,28,88,48
1,31,88,48
1,28,88,48
1,33,88,48
1,33,88,48
1,26,88,48
1,27,88,48
1,28,88,48
1,28,88,48
1,31,88,48
1,28,88,48
1,33,88,48
1,33,88,48
1,26,88,48
1,27,88,48
1,28,88,48
1,28,88,1728
1,28,88,48
1,31,88,48
1,28,88,48
1,33,88,48
1,33,88,48
1,26,88,48
1,27,88,48
1,28,88,48
1,28,88,48
1,31,88,48
1,28,88,48
1,33,88,48
1,33,88,48
1,26,88,48
1,27,88,48
1,28,88,48
1,28,88,48
1,31,88,48
1,28,88,48
1,33,88,48
1,33,88,48
1,26,88,48
1,27,88,48
1,28,88,48
1,28,88,48
1,31,88,48
1,28,88,48
1,33,88,48
1,33,88,48
1,26,88,48
1,27,88,48
1,28,88,48
1,28,88,48
1,31,88,48
1,28,88,48
1,33,88,48
1,33,88,48
1,26,88,48
1,27,88,48
1,28,88,48
1,28,88,48
1,31,88,48
1,28,88,48
1,33,88,48
1,33,88,48
1,26,88,48
1,27,88,48
1,28,88,48
1,28,88,48
1,31,88,48
1,28,88,48
1,33,88,48
1,33,88,48
1,26,88,48
1,27,88,48
1,28,88,48
1,28,88,48
1,31,88,48
1,28,88,48
1,33,88,48
1,33,88,48
1,26,88,48
1,27,88,48
1,28,88,48
1,28,88,48
1,31,88,48
1,28,88,48
1,33,88,48
1,33,88,48
1,26,88,48
1,27,88,48
1,28,88,48
1,28,88,48
1,31,88,48
1,28,88,48
1,33,88,48
1,33,88,48
1,26,88,48
1,27,88,48
1,28,88,48
1,28,88,48
1,31,88,48
1,28,88,48
1,33,88,48
1,33,88,48
1,26,88,48
1,27,88,48
1,28,88,48
1,28,88,48
1,31,88,48
1,33,88,48
1,34,88,16
1,35,88,0
1,35,88,48
1,33,88,48
1,31,88,48
1,33,88,48
1,33,88,48
1,36,88,48
1,33,88,48
1,38,88,48
1,38,88,48
1,31,88,48
1,32,88,48
1,33,88,48
1,33,88,48
1,36,88,48
1,33,88,48
1,38,88,48
1,38,88,48
1,26,88,48
1,27,88,48
1,28,88,48
1,28,88,48
1,31,88,48
1,28,88,48
1,33,88,48
1,33,88,48
1,26,88,48
1,27,88,48
1,28,88,48
1,28,88,48
1,31,88,48
1,28,88,48
1,33,88,48
1,33,88,48
1,34,88,48
1,35,88,48
1,36,88,48
1,36,88,48
1,36,88,48
1,36,88,48
1,36,88,48
1,36,88,48
1,36,88,48
1,36,88,48
1,35,88,48
1,35,88,48
1,35,88,48
1,35,88,48
1,35,88,48
1,35,88,48
1,35,88,24
1,35,88,24
1,33,88,24
1,31,88,24
1,30,88,24
1,28,88,24
1,28,88,48
1,31,88,48
1,28,88,48
1,33,88,48
1,33,88,48
1,26,88,48
1,27,88,48
1,28,88,48
1,28,88,48
1,31,88,48
1,28,88,48
1,33,88,48
1,33,88,48
1,26,88,48
1,27,88,48
1,36,88,48
1,36,88,48
1,36,88,48
1,36,88,48
1,36,88,48
1,36,88,48
1,36,88,48
1,36,88,48
1,35,88,48
1,35,88,48
1,35,88,48
1,35,88,48
1,35,88,48
1,35,88,48
1,35,88,24
1,35,88,24
1,33,88,24
1,31,88,24
1,30,88,24
1,28,88,24
1,28,88,48
1,31,88,48
1,28,88,48
1,33,88,48
1,33,88,48
1,26,88,48
1,27,88,48
1,28,88,48
1,28,88,48
1,31,88,48
1,28,88,48
1,33,88,48
1,33,88,48
1,26,88,48
1,27,88,48
1,28,88,48
1,28,88,48
1,31,88,48
1,28,88,48
1,33,88,48
1,33,88,48
1,26,88,48
1,27,88,48
1,28,88,48
1,28,88,48
1,31,88,48
1,28,88,48
1,33,88,48
1,33,88,48
1,26,88,48
1,27,88,48
1,28,88,48
1,28,88,48
1,31,88,48
1,28,88,48
1,33,88,48
1,33,88,48
1,26,88,48
1,27,88,48
1,28,88,48
1,28,88,48
1,31,88,48
1,28,88,48
1,33,88,48
1,33,88,48
1,26,88,48
1,27,88,48
1,28,88,48
1,28,88,48
1,31,88,48
1,28,88,48
1,33,88,48
1,33,88,48
1,26,88,48
1,27,88,48
1,28,88,48
1,28,88,48
1,31,88,48
1,28,88,48
1,33,88,48
1,33,88,48
1,26,88,48
1,27,88,48
1,28,88,48
1,28,88,48
1,31,88,48
1,28,88,48
1,33,88,48
1,33,88,48
1,26,88,48
1,27,88,48
1,28,88,48
1,28,88,48
1,31,88,48
1,33,88,48
1,34,88,16
1,35,88,0
1,35,88,48
1,33,88,48
1,31,88,48
1,33,88,48
1,33,88,48
1,36,88,48
1,33,88,48
1,38,88,48
1,38,88,48
1,31,88,48
1,32,88,48
1,33,88,48
1,33,88,48
1,36,88,48
1,33,88,48
1,38,88,48
1,38,88,48
1,26,88,48
1,27,88,48
1,28,88,48
1,28,88,48
1,31,88,48
1,28,88,48
1,33,88,48
1,33,88,48
1,26,88,48
1,27,88,48
1,28,88,48
1,28,88,48
1,31,88,48
1,28,88,48
1,33,88,48
1,33,88,48
1,34,88,48
1,35,88,48
1,36,88,48
1,36,88,48
1,36,88,48
1,36,88,48
1,36,88,48
1,36,88,48
1,36,88,48
1,36,88,48
1,35,88,48
1,35,88,48
1,35,88,48
1,35,88,48
1,35,88,48
1,35,88,48
1,35,88,24
1,35,88,24
1,33,88,24
1,31,88,24
1,30,88,24
1,28,88,24
1,28,88,48
1,31,88,48
1,28,88,48
1,33,88,48
1,33,88,48
1,26,88,48
1,27,88,48
1,28,88,48
1,28,88,48
1,31,88,48
1,28,88,48
1,33,88,48
1,33,88,48
1,26,88,48
1,27,88,48
1,36,88,48
1,36,88,48
1,36,88,48
1,36,88,48
1,36,88,48
1,36,88,48
1,36,88,48
1,36,88,48
1,35,88,48
1,35,88,48
1,35,88,48
1,35,88,48
1,35,88,48
1,35,88,48
1,35,88,24
1,35,88,24
1,33,88,24
1,31,88,24
1,30,88,24
1,28,88,24
1,28,88,48
1,31,88,48
1,28,88,48
1,33,88,48
1,33,88,48
1,26,88,48
1,27,88,48
1,28,88,48
1,28,88,48
1,31,88,48
1,28,88,48
1,33,88,48
1,33,88,48
1,26,88,48
1,27,88,48
1,35,88,48
1,34,88,96
1,35,88,7
1,34,88,81
1,35,88,0
1,34,88,88
1,35,88,0
1,28,88,96
1,28,88,48
1,31,88,48
1,28,88,48
1,33,88,48
1,33,88,48
1,26,88,48
1,27,88,48
1,28,88,48
1,28,88,48
1,31,88,48
1,28,88,48
1,33,88,48
1,33,88,48
1,26,88,48
1,27,88,48
1,28,88,48
1,28,88,48
1,31,88,48
1,28,88,48
1,33,88,48
1,33,88,48
1,26,88,48
1,27,88,48
1,28,88,48
1,28,88,48
1,31,88,48
1,28,88,48
1,33,88,48
1,33,88,48
1,26,88,48
1,27,88,48
1,28,88,48
1,28,88,48
1,31,88,48
1,28,88,48
1,33,88,48
1,33,88,48
1,26,88,48
1,27,88,48
1,28,88,48
1,28,88,48
1,31,88,48
1,28,88,48
1,33,88,48
1,33,88,48
1,26,88,48
1,27,88,48
1,28,88,48
1,28,88,48
1,31,88,48
1,28,88,48
1,33,88,48
1,33,88,48
1,26,88,48
1,27,88,48
1,28,88,48
1,28,88,48
1,31,88,48
1,33,88,48
1,34,88,16
1,35,88,0
1,35,88,48
1,33,88,48
1,31,88,48
1,33,88,48
1,33,88,48
1,36,88,48
1,33,88,48
1,38,88,48
1,38,88,48
1,31,88,48
1,32,88,48
1,33,88,48
1,33,88,48
1,36,88,48
1,33,88,48
1,38,88,48
1,38,88,48
1,26,88,48
1,27,88,48
1,28,88,48
1,28,88,48
1,31,88,48
1,28,88,48
1,33,88,48
1,33,88,48
1,26,88,48
1,27,88,48
1,28,88,48
1,28,88,48
1,31,88,48
1,28,88,48
1,33,88,48
1,33,88,48
1,34,88,48
1,35,88,48
1,36,88,48
1,36,88,48
1,36,88,48
1,36,88,48
1,36,88,48
1,36,88,48
1,36,88,48
1,36,88,48
1,35,88,48
1,35,88,48
1,35,88,48
1,35,88,48
1,35,88,48
1,35,88,48
1,35,88,24
1,35,88,24
1,33,88,24
1,31,88,24
1,30,88,24
1,28,88,24
1,28,88,48
1,31,88,48
1,28,88,48
1,33,88,48
1,33,88,48
1,26,88,48
1,27,88,48
1,28,88,48
1,28,88,48
1,31,88,48
1,28,88,48
1,33,88,48
1,33,88,48
1,26,88,48
1,27,88,48
1,36,88,48
1,36,88,48
1,36,88,48
1,36,88,48
1,36,88,48
1,36,88,48
1,36,88,48
1,36,88,48
1,35,88,48
1,35,88,48
1,35,88,48
1,35,88,48
1,35,88,48
1,35,88,48
1,35,88,24
1,35,88,24
1,33,88,24
1,31,88,24
1,30,88,24
1,28,88,24
1,28,88,48
1,31,88,48
1,28,88,48
1,33,88,48
1,33,88,48
1,26,88,48
1,27,88,48
1,28,88,48
1,28,88,48
1,31,88,48
1,28,88,48
1,33,88,48
1,33,88,48
1,26,88,48
1,27,88,48
1,28,88,48
1,28,88,48
1,31,88,48
1,28,88,48
1,33,88,48
1,33,88,48
1,26,88,48
1,27,88,48
1,28,88,48
1,28,88,48
1,31,88,48
1,28,88,48
1,33,88,48
1,33,88,48
1,26,88,48
1,27,88,48
1,28,88,48
1,28,88,48
1,31,88,48
1,28,88,48
1,33,88,48
1,33,88,48
1,26,88,48
1,27,88,48
1,28,88,48
1,28,88,48
1,31,88,48
1,28,88,48
1,33,88,48
1,33,88,48
1,26,88,48
1,27,88,48
1,28,88,48
1,28,88,48
1,31,88,48
1,28,88,48
1,33,88,48
1,33,88,48
1,26,88,48
1,27,88,48
1,28,88,48
1,28,88,48
1,31,88,48
1,28,88,48
1,33,88,48
1,33,88,48
1,26,88,48
1,27,88,48
1,28,88,48
1,28,88,48
1,31,88,48
1,28,88,48
1,33,88,48
1,33,88,48
1,26,88,48
1,27,88,48
1,28,88,48
1,28,88,48
1,31,88,48
1,33,88,48
1,34,88,16
1,35,88,0
1,35,88,48
1,33,88,48
1,31,88,48
1,33,88,48
1,33,88,48
1,36,88,48
1,33,88,48
1,38,88,48
1,38,88,48
1,31,88,48
1,32,88,48
1,33,88,48
1,33,88,48
1,36,88,48
1,33,88,48
1,38,88,48
1,38,88,48
1,26,88,48
1,27,88,48
1,28,88,48
1,28,88,48
1,31,88,48
1,28,88,48
1,33,88,48
1,33,88,48
1,26,88,48
1,27,88,48
1,28,88,48
1,28,88,48
1,31,88,48
1,28,88,48
1,33,88,48
1,33,88,48
1,34,88,48
1,35,88,48
1,36,88,48
1,36,88,48
1,36,88,48
1,36,88,48
1,36,88,48
1,36,88,48
1,36,88,48
1,36,88,48
1,35,88,48
1,35,88,48
1,35,88,48
1,35,88,48
1,35,88,48
1,35,88,48
1,35,88,24
1,35,88,24
1,33,88,24
1,31,88,24
1,30,88,24
1,28,88,24
1,28,88,48
1,31,88,48
1,28,88,48
1,33,88,48
1,33,88,48
1,26,88,48
1,27,88,48
1,28,88,48
1,28,88,48
1,31,88,48
1,28,88,48
1,33,88,48
1,33,88,48
1,26,88,48
1,27,88,48
1,36,88,48
1,36,88,48
1,36,88,48
1,36,88,48
1,36,88,48
1,36,88,48
1,36,88,48
1,36,88,48
1,35,88,48
1,35,88,48
1,35,88,48
1,35,88,48
1,35,88,48
1,35,88,48
1,35,88,24
1,35,88,24
1,33,88,24
1,31,88,24
1,30,88,24
1,28,88,24
1,28,88,48
1,31,88,48
1,28,88,48
1,33,88,48
1,33,88,48
1,26,88,48
1,27,88,48
1,28,88,48
1,28,88,48
1,31,88,48
1,28,88,48
1,33,88,48
1,33,88,48
1,26,88,48
1,27,88,48
1,35,88,48
1,34,88,96
1,35,88,7
1,34,88,81
1,35,88,0
1,34,88,88
1,35,88,0
1,28,88,2016
1,28,88,48
1,31,88,48
1,28,88,48
1,33,88,48
1,33,88,48
1,26,88,48
1,27,88,48
1,28,88,48
1,28,88,48
1,31,88,48
1,28,88,48
1,33,88,48
1,33,88,48
1,26,88,48
1,27,88,48
1,28,88,48
1,28,88,48
1,31,88,48
1,28,88,48
1,33,88,48
1,33,88,48
1,26,88,48
1,27,88,48
1,28,88,48
1,28,88,48
1,31,88,48
1,28,88,48
1,33,88,48
1,33,88,48
1,26,88,48
1,27,88,48
1,28,88,48
1,28,88,48
1,31,88,48
1,28,88,48
1,33,88,48
1,33,88,48
1,26,88,48
1,27,88,48
1,28,88,48
1,28,88,48
1,31,88,48
1,28,88,48
1,33,88,48
1,33,88,48
1,26,88,48
1,27,88,48
1,28,88,48
1,28,88,48
1,31,88,48
1,28,88,48
1,33,88,48
1,33,88,48
1,26,88,48
1,27,88,48
1,28,88,48
1,28,88,48
1,31,88,48
1,28,88,48
1,33,88,48
1,33,88,48
1,26,88,48
1,27,88,48
1,28,88,48
1,28,88,48
1,31,88,48
1,28,88,48
1,33,88,48
1,33,88,48
1,26,88,48
1,27,88,48
1,28,88,48
1,28,88,48
1,31,88,48
1,28,88,48
1,33,88,48
1,33,88,48
1,26,88,48
1,27,88,48
1,28,88,48
1,28,88,48
1,31,88,48
1,28,88,48
1,33,88,48
1,33,88,48
1,26,88,48
1,27,88,48
1,28,88,48
1,28,88,48
1,31,88,48
1,28,88,48
1,33,88,48
1,33,88,48
1,26,88,48
1,27,88,48
1,28,88,48
1,28,88,48
1,31,88,48
1,28,88,48
1,33,88,48
1,33,88,48
1,26,88,48
1,27,88,48
1,28,88,48
1,28,88,48
1,31,88,48
1,28,88,48
1,33,88,48
1,33,88,48
1,26,88,48
1,27,88,48
1,28,88,48
1,28,88,48
1,31,88,48
1,28,88,48
1,33,88,48
1,33,88,48
1,26,88,48
1,27,88,48
1,28,88,48
1,28,88,48
1,31,88,48
1,28,88,48
1,33,88,48
1,33,88,48
1,26,88,48
1,27,88,48
1,28,88,48
1,28,88,48
1,31,88,48
1,28,88,48
1,33,88,48
1,33,88,48
1,26,88,48
1,27,88,48
1,28,88,48
1,28,88,48
1,31,88,48
1,28,88,48
1,33,88,48
1,33,88,48
1,26,88,48
1,27,88,48
1,28,88,48
1,28,88,48
1,31,88,48
1,28,88,48
1,33,88,48
1,33,88,48
1,26,88,48
1,27,88,48
1,28,88,48
1,28,88,48
1,31,88,48
1,28,88,48
1,33,88,48
1,33,88,48
1,26,88,48
1,27,88,48
1,28,88,48
1,28,88,48
1,31,88,48
1,28,88,48
1,33,88,48
1,33,88,48
1,26,88,48
1,27,88,48
1,28,88,48
1,28,88,48
1,31,88,48
1,28,88,48
1,33,88,48
1,33,88,48
1,26,88,48
1,27,88,48
1,28,88,48
1,28,88,48
1,31,88,48
1,28,88,48
1,33,88,48
1,33,88,48
1,26,88,48
1,27,88,48
1,28,88,48
1,28,88,48
1,31,88,48
1,28,88,48
1,33,88,48
1,33,88,48
1,26,88,48
1,27,88,48
1,28,88,48
1,28,88,48
1,31,88,48
1,28,88,48
1,33,88,48
1,33,88,48
1,26,88,48
1,27,88,48
1,28,88,48
1,28,88,48
1,31,88,48
1,28,88,48
1,33,88,48
1,33,88,48
1,26,88,48
1,27,88,48
1,28,88,48
1,28,88,48
1,31,88,48
1,28,88,48
1,33,88,48
1,33,88,48
1,26,88,48
1,27,88,48
1,28,88,48
1,28,88,48
1,31,88,48
1,28,88,48
1,33,88,48
1,33,88,48
1,26,88,48
1,27,88,48
1,28,88,48
1,28,88,48
1,31,88,48
1,28,88,48
1,33,88,48
1,33,88,48
1,26,88,48
1,27,88,48
1,28,88,48
1,28,88,48
1,31,88,48
1,28,88,48
1,33,88,48
1,33,88,48
1,26,88,48
1,27,88,48
1,28,88,48
1,28,88,48
1,31,88,48
1,28,88,48
1,33,88,48
1,33,88,48
1,26,88,48
1,27,88,48
1,28,88,48
1,28,88,48
1,31,88,48
1,28,88,48
1,33,88,48
1,33,88,48
1,26,88,48
1,27,88,48
2,59,80,2880
2,52,80,0
2,55,80,0
2,52,80,60
2,55,80,0
2,59,80,0
2,52,80,300
2,61,80,0
2,57,80,0
2,52,80,60
2,57,80,0
2,61,80,0
2,59,80,300
