track,note,velocity,time
1,62,80,192
1,69,80,0
1,62,80,414
1,69,80,0
1,62,80,382
1,69,80,0
1,62,85,190
1,69,85,0
1,60,80,190
1,67,80,0
1,60,85,190
1,67,85,0
1,58,80,382
1,65,80,0
1,53,80,222
1,58,80,62
1,65,80,0
1,58,80,382
1,65,80,0
1,58,85,190
1,65,85,0
1,57,80,190
1,64,80,0
1,62,80,126
1,67,80,0
1,62,80,350
1,67,80,0
1,62,75,382
1,67,75,0
1,62,80,190
1,67,80,0
1,62,80,350
1,67,80,0
1,62,75,382
1,67,75,0
1,60,80,382
1,67,80,0
1,60,80,414
1,67,80,0
1,60,80,382
1,67,80,0
1,60,80,350
1,67,80,0
1,60,75,382
1,67,75,0
1,60,80,382
1,67,80,0
1,55,80,222
1,60,80,62
1,67,80,0
1,60,80,0
1,67,80,0
1,60,80,64
1,67,80,0
1,60,84,158
1,67,84,0
1,60,80,190
1,67,80,0
1,55,80,190
1,59,80,254
1,64,80,0
1,52,80,222
1,59,80,62
1,64,80,0
1,57,80,574
1,64,80,0
1,57,80,414
1,64,80,0
1,57,80,382
1,64,80,0
1,57,84,30
1,64,84,0
1,57,80,190
1,64,80,0
1,52,80,574
1,60,80,62
1,65,80,0
1,58,80,126
1,65,80,0
1,60,80,126
1,67,80,0
1,60,80,350
1,67,80,0
1,60,75,382
1,67,75,0
1,60,80,190
1,67,80,0
1,60,80,350
1,67,80,0
1,60,75,382
1,67,75,0
1,60,80,190
1,67,80,0
1,60,84,30
1,67,84,0
1,60,80,190
1,67,80,0
1,55,80,574
1,59,80,62
1,64,80,0
1,59,80,350
1,64,80,0
1,59,75,382
1,64,75,0
1,59,80,0
1,64,80,0
1,57,80,64
1,64,80,0
1,57,80,64
1,64,80,0
1,60,80,64
1,65,80,0
1,60,85,192
1,65,85,0
1,58,80,382
1,65,80,0
1,58,85,190
1,65,85,0
1,60,80,382
1,67,80,0
1,60,80,414
1,67,80,0
1,62,80,574
1,69,80,0
1,62,80,414
1,69,80,0
1,62,80,382
1,69,80,0
1,62,84,158
1,69,84,0
1,62,80,190
1,69,80,0
1,57,80,190
1,62,80,62
1,69,80,0
1,62,80,350
1,69,80,0
1,62,75,382
1,69,75,0
1,60,80,190
1,67,80,0
1,60,80,350
1,67,80,0
1,60,75,382
1,67,75,0
1,58,80,382
1,65,80,0
1,53,80,222
1,58,80,62
1,65,80,0
1,58,80,382
1,65,80,0
1,58,80,350
1,65,80,0
1,58,75,382
1,65,75,0
1,58,80,382
1,65,80,0
1,58,80,414
1,65,80,0
1,58,80,382
1,65,80,0
1,58,85,190
1,65,85,0
1,57,80,190
1,64,80,0
1,57,85,190
1,64,85,0
1,62,80,190
1,67,80,0
1,62,80,350
1,67,80,0
1,62,75,382
1,67,75,0
1,62,80,190
1,67,80,0
1,62,84,30
1,67,84,0
1,62,80,190
1,67,80,0
1,55,80,574
1,62,80,62
1,67,80,0
1,62,80,350
1,67,80,0
1,62,75,382
1,67,75,0
1,62,80,382
1,67,80,0
1,62,80,414
1,67,80,0
1,60,80,574
1,67,80,0
1,60,80,414
1,67,80,0
1,60,80,574
1,67,80,0
1,55,80,222
1,60,80,62
1,67,80,0
1,60,80,382
1,67,80,0
1,60,84,158
1,67,84,0
1,60,80,190
1,67,80,0
1,55,80,190
1,60,80,62
1,67,80,0
1,60,80,350
1,67,80,0
1,60,75,382
1,67,75,0
1,60,80,190
1,67,80,0
1,60,84,158
1,67,84,0
1,60,80,190
1,67,80,0
1,55,80,190
1,60,80,0
1,67,80,0
1,60,80,64
1,67,80,0
1,60,80,350
1,67,80,0
1,60,75,382
1,67,75,0
1,59,80,382
1,64,80,0
1,59,80,414
1,64,80,0
1,57,80,382
1,64,80,0
1,57,84,30
1,64,84,0
1,57,80,190
1,64,80,0
1,52,80,574
1,57,80,0
1,64,80,0
1,60,80,64
1,65,80,0
1,60,85,192
1,65,85,0
1,58,80,382
1,65,80,0
1,58,85,192
1,65,85,0
1,60,80,0
1,67,80,0
1,60,80,256
1,67,80,0
1,55,80,222
1,60,80,62
1,67,80,0
1,60,80,382
1,67,80,0
1,60,84,30
1,67,84,0
1,60,80,190
1,67,80,0
1,55,80,574
1,59,80,0
1,64,80,0
1,59,80,64
1,64,80,0
1,57,80,256
1,64,80,0
1,57,80,414
1,64,80,0
1,57,80,382
1,64,80,0
1,57,84,30
1,64,84,0
1,57,80,190
1,64,80,0
1,52,80,574
1,60,80,62
1,65,80,0
1,60,85,192
1,65,85,0
1,58,80,382
1,65,80,0
1,58,85,190
1,65,85,0
1,60,80,190
1,67,80,0
1,60,80,350
1,67,80,0
1,60,75,382
1,67,75,0
1,62,80,190
1,69,80,0
1,62,84,158
1,69,84,0
1,62,80,190
1,69,80,0
1,57,80,190
1,62,80,254
1,69,80,0
1,62,80,414
1,69,80,0
1,62,80,382
1,69,80,0
1,62,84,30
1,69,84,0
1,62,80,190
1,69,80,0
1,57,80,574
1,60,80,62
1,67,80,0
1,60,84,30
1,67,84,0
1,60,80,190
1,67,80,0
1,55,80,574
1,58,80,0
1,65,80,0
1,58,80,64
1,65,80,0
1,58,80,256
1,65,80,0
1,58,80,414
1,65,80,0
1,58,80,382
1,65,80,0
1,58,85,192
1,65,85,0
1,57,80,382
1,64,80,0
1,57,85,192
1,64,85,0
1,62,80,382
1,67,80,0
1,62,84,158
1,67,84,0
1,62,80,190
1,67,80,0
1,55,80,190
1,62,80,0
1,67,80,0
1,62,80,256
1,67,80,0
1,55,80,222
1,62,80,62
1,67,80,0
1,62,80,0
1,67,80,0
1,60,80,64
1,67,80,0
1,60,84,158
1,67,84,0
1,60,80,190
1,67,80,0
1,55,80,190
1,60,80,254
1,67,80,0
1,55,80,222
1,60,80,62
1,67,80,0
1,60,80,382
1,67,80,0
1,60,84,30
1,67,84,0
1,60,80,190
1,67,80,0
1,55,80,574
1,60,80,254
1,67,80,0
1,60,80,414
1,67,80,0
1,60,80,382
1,67,80,0
1,60,80,350
1,67,80,0
1,60,75,382
1,67,75,0
1,60,80,0
1,67,80,0
1,60,80,64
1,67,80,0
1,60,84,158
1,67,84,0
1,60,80,190
1,67,80,0
1,55,80,190
1,59,80,254
1,64,80,0
1,59,80,414
1,64,80,0
1,57,80,574
1,64,80,0
1,52,80,222
1,57,80,62
1,64,80,0
1,57,80,382
1,64,80,0
1,57,84,158
1,64,84,0
1,57,80,190
1,64,80,0
1,52,80,190
1,60,80,62
1,65,80,0
1,60,85,190
1,65,85,0
1,58,80,190
1,65,80,0
1,58,85,192
1,65,85,0
1,60,80,0
1,67,80,0
1,60,80,256
1,67,80,0
1,55,80,222
1,60,80,62
1,67,80,0
1,60,80,382
1,67,80,0
1,60,80,350
1,67,80,0
1,60,75,382
1,67,75,0
1,59,80,190
1,64,80,0
1,59,84,30
1,64,84,0
1,59,80,190
1,64,80,0
1,52,80,574
1,59,80,254
1,64,80,0
1,59,80,414
1,64,80,0
1,57,80,382
1,64,80,0
1,57,80,350
1,64,80,0
1,57,75,382
1,64,75,0
1,57,80,190
1,64,80,0
1,57,80,350
1,64,80,0
1,57,75,382
1,64,75,0
1,60,80,190
1,65,80,0
1,60,85,190
1,65,85,0
1,58,80,190
1,65,80,0
1,58,85,190
1,65,85,0
1,60,80,190
1,67,80,0
1,60,84,30
1,67,84,0
1,60,80,190
1,67,80,0
1,55,80,574
1,62,80,254
1,69,80,0
1,57,80,222
1,62,80,62
1,69,80,0
1,62,80,382
1,69,80,0
1,62,80,350
1,69,80,0
1,62,75,382
1,69,75,0
1,62,80,382
1,69,80,0
1,62,80,414
1,69,80,0
1,60,80,382
1,67,80,0
1,60,84,30
1,67,84,0
1,60,80,190
1,67,80,0
1,55,80,574
1,58,80,62
1,65,80,0
1,58,80,350
1,65,80,0
1,58,75,382
1,65,75,0
1,58,80,382
1,65,80,0
1,53,80,222
1,58,80,62
1,65,80,0
1,58,80,574
1,65,80,0
1,58,80,414
1,65,80,0
1,58,80,382
1,65,80,0
1,58,85,190
1,65,85,0
1,57,80,190
1,64,80,0
1,62,80,126
1,67,80,0
1,62,84,30
1,67,84,0
1,62,80,190
1,67,80,0
1,55,80,574
1,62,80,254
1,67,80,0
1,55,80,222
1,62,80,62
1,67,80,0
1,62,80,574
1,67,80,0
1,62,80,414
1,67,80,0
1,62,80,382
1,67,80,0
1,62,84,30
1,67,84,0
1,62,80,190
1,67,80,0
1,55,80,574
1,60,80,62
1,67,80,0
1,60,84,30
1,67,84,0
1,60,80,190
1,67,80,0
1,55,80,574
1,60,80,62
1,67,80,0
1,60,84,30
1,67,84,0
1,60,80,190
1,67,80,0
1,55,80,574
1,57,80,254
1,64,80,0
1,52,80,222
1,57,80,62
1,64,80,0
1,57,80,382
1,64,80,0
1,57,84,30
1,64,84,0
1,57,80,190
1,64,80,0
1,52,80,574
2,50,94,0
2,50,85,48
2,50,89,48
2,50,94,48
2,50,97,48
2,50,80,48
2,50,86,48
2,50,94,48
2,50,94,48
2,50,80,48
2,50,92,48
2,50,94,48
2,48,88,48
2,48,87,48
2,48,104,48
2,45,93,48
2,46,86,48
2,46,84,48
2,46,99,48
2,46,88,48
2,46,97,48
2,46,87,48
2,46,98,48
2,46,87,48
2,46,98,48
2,46,86,48
2,46,87,48
2,46,82,48
2,45,93,48
2,45,82,48
2,45,98,48
2,44,90,48
2,43,93,48
2,43,94,48
2,43,103,48
2,43,87,48
2,43,99,48
2,43,86,48
2,43,99,48
2,43,84,48
2,43,76,48
2,43,76,48
2,43,95,48
2,43,94,48
2,43,90,48
2,43,87,48
2,43,85,48
2,50,84,48
2,48,101,48
2,48,89,48
2,48,98,48
2,48,81,48
2,48,90,48
2,48,79,48
2,48,91,48
2,48,83,48
2,48,92,48
2,48,89,48
2,48,89,48
2,48,93,48
2,48,102,48
2,48,85,48
2,48,90,48
2,47,81,48
2,48,92,48
2,48,76,48
2,48,89,48
2,48,86,48
2,48,104,48
2,48,78,48
2,48,101,48
2,48,75,48
2,48,83,48
2,48,94,48
2,48,88,48
2,48,89,48
2,48,97,48
2,48,93,48
2,48,102,48
2,47,88,48
2,48,85,48
2,48,84,48
2,48,101,48
2,48,92,48
2,48,95,48
2,48,89,48
2,48,97,48
2,48,91,48
2,52,104,48
2,52,94,48
2,52,91,48
2,52,77,48
2,52,94,48
2,52,90,48
2,52,96,48
2,43,79,48
2,45,96,48
2,45,79,48
2,45,85,48
2,45,91,48
2,45,94,48
2,45,92,48
2,45,97,48
2,45,93,48
2,45,81,48
2,45,85,48
2,45,94,48
2,45,76,48
2,45,103,48
2,45,94,48
2,45,103,48
2,43,88,48
2,41,97,48
2,41,78,48
2,41,88,48
2,41,88,48
2,46,100,48
2,46,82,48
2,46,90,48
2,46,94,48
2,48,99,48
2,48,88,48
2,48,87,48
2,48,90,48
2,48,86,48
2,48,82,48
2,48,101,48
2,47,91,48
2,48,83,48
2,48,88,48
2,48,88,48
2,48,90,48
2,48,96,48
2,48,79,48
2,48,94,48
2,48,80,48
2,48,100,48
2,48,76,48
2,48,101,48
2,48,84,48
2,48,101,48
2,48,84,48
2,48,95,48
2,51,93,48
2,52,104,48
2,52,79,48
2,52,95,48
2,52,79,48
2,52,90,48
2,52,82,48
2,52,93,48
2,52,83,48
2,52,77,48
2,52,81,48
2,52,93,48
2,52,89,48
2,52,100,48
2,52,86,48
2,52,92,48
2,43,79,48
2,45,96,48
2,45,83,48
2,45,94,48
2,45,92,48
2,45,95,48
2,45,84,48
2,45,89,48
2,45,79,48
2,45,82,48
2,45,92,48
2,45,96,48
2,45,91,48
2,45,96,48
2,45,75,48
2,45,103,48
2,40,85,48
2,41,91,48
2,41,79,48
2,41,100,48
2,41,93,48
2,46,89,48
2,46,81,48
2,46,97,48
2,46,82,48
2,48,94,48
2,48,78,48
2,48,89,48
2,48,89,48
2,48,92,48
2,48,78,48
2,48,100,48
2,49,93,48
2,50,88,48
2,50,83,48
2,50,95,48
2,50,78,48
2,50,90,48
2,50,93,48
2,50,97,48
2,50,76,48
2,50,86,48
2,50,81,48
2,50,94,48
2,50,94,48
2,50,94,48
2,50,87,48
2,50,85,48
2,48,79,48
2,50,88,48
2,50,88,48
2,50,98,48
2,50,88,48
2,50,93,48
2,50,93,48
2,50,103,48
2,50,87,48
2,48,91,48
2,48,91,48
2,48,86,48
2,48,90,48
2,48,95,48
2,48,82,48
2,48,101,48
2,45,93,48
2,46,97,48
2,46,79,48
2,46,95,48
2,46,81,48
2,46,91,48
2,46,86,48
2,46,103,48
2,46,90,48
2,46,77,48
2,46,84,48
2,46,98,48
2,46,83,48
2,46,85,48
2,46,84,48
2,46,93,48
2,45,90,48
2,46,100,48
2,46,85,48
2,46,101,48
2,46,85,48
2,46,98,48
2,46,85,48
2,46,104,48
2,46,82,48
2,46,103,48
2,46,75,48
2,46,103,48
2,46,84,48
2,45,98,48
2,45,78,48
2,45,102,48
2,44,85,48
2,43,89,48
2,43,83,48
2,43,93,48
2,43,84,48
2,43,87,48
2,43,91,48
2,43,96,48
2,43,79,48
2,43,90,48
2,43,87,48
2,43,94,48
2,43,88,48
2,43,96,48
2,43,92,48
2,43,93,48
2,42,84,48
2,43,102,48
2,43,86,48
2,43,89,48
2,43,84,48
2,43,104,48
2,43,76,48
2,43,85,48
2,43,84,48
2,43,79,48
2,43,84,48
2,43,97,48
2,43,92,48
2,43,87,48
2,43,87,48
2,43,87,48
2,47,77,48
2,48,96,48
2,48,90,48
2,48,99,48
2,48,77,48
2,48,90,48
2,48,94,48
2,48,98,48
2,48,79,48
2,48,91,48
2,48,91,48
2,48,92,48
2,48,82,48
2,48,89,48
2,48,78,48
2,48,85,48
2,47,88,48
2,48,88,48
2,48,94,48
2,48,87,48
2,48,77,48
2,48,86,48
2,48,84,48
2,48,89,48
2,48,89,48
2,48,89,48
2,48,93,48
2,48,96,48
2,48,87,48
2,48,91,48
2,48,82,48
2,48,104,48
2,47,86,48
2,48,92,48
2,48,88,48
2,48,90,48
2,48,92,48
2,48,93,48
2,48,83,48
2,48,86,48
2,48,85,48
2,48,77,48
2,48,76,48
2,48,93,48
2,48,85,48
2,48,89,48
2,48,94,48
2,48,103,48
2,47,89,48
2,48,103,48
2,48,89,48
2,48,101,48
2,48,89,48
2,48,102,48
2,48,88,48
2,48,89,48
2,48,80,48
2,52,89,48
2,52,81,48
2,52,100,48
2,52,94,48
2,52,96,48
2,52,87,48
2,52,103,48
2,43,85,48
2,45,97,48
2,45,87,48
2,45,102,48
2,45,90,48
2,45,95,48
2,45,83,48
2,45,96,48
2,45,79,48
2,45,90,48
2,45,91,48
2,45,94,48
2,45,84,48
2,45,102,48
2,45,77,48
2,45,104,48
2,40,80,48
2,41,99,48
2,41,82,48
2,41,104,48
2,41,80,48
2,46,96,48
2,46,88,48
2,46,95,48
2,46,89,48
2,48,87,48
2,48,78,48
2,48,104,48
2,48,78,48
2,48,87,48
2,48,82,48
2,48,89,48
2,47,87,48
2,48,92,48
2,48,83,48
2,48,88,48
2,48,82,48
2,48,87,48
2,48,91,48
2,48,99,48
2,48,82,48
2,48,87,48
2,48,84,48
2,48,98,48
2,48,86,48
2,48,92,48
2,48,80,48
2,48,91,48
2,53,76,48
2,52,100,48
2,52,80,48
2,52,88,48
2,52,85,48
2,52,92,48
2,52,87,48
2,52,99,48
2,52,94,48
2,52,84,48
2,52,77,48
2,52,103,48
2,52,81,48
2,52,102,48
2,52,87,48
2,52,88,48
2,43,88,48
2,45,102,48
2,45,94,48
2,45,97,48
2,45,81,48
2,45,94,48
2,45,91,48
2,45,95,48
2,45,75,48
2,45,78,48
2,45,90,48
2,45,104,48
2,45,91,48
2,45,92,48
2,45,81,48
2,45,93,48
2,43,83,48
2,41,94,48
2,41,78,48
2,41,88,48
2,41,80,48
2,46,93,48
2,46,89,48
2,46,94,48
2,46,89,48
2,48,88,48
2,48,84,48
2,48,94,48
2,48,86,48
2,48,104,48
2,48,80,48
