track,note,velocity,time
1,38,100,1540
1,38,100,276
1,33,100,84
1,35,100,192
1,38,100,156
1,38,100,100
1,38,100,136
1,33,100,68
1,35,100,192
1,38,100,4
1,38,100,72
1,38,100,132
1,33,100,48
1,35,100,196
1,37,100,160
1,38,100,168
1,33,100,112
1,38,100,124
1,33,100,84
1,42,100,84
1,37,100,72
1,42,100,116
1,37,100,92
1,35,100,64
1,30,100,44
1,35,100,148
1,30,100,96
1,35,100,8
1,42,100,4
1,37,100,92
1,42,100,52
1,37,100,44
1,35,100,52
1,30,100,76
1,35,100,124
1,30,100,64
1,35,100,188
1,40,100,180
1,35,100,84
1,40,100,64
1,35,100,28
1,45,100,0
1,45,100,88
1,43,100,384
1,43,100,248
1,42,100,4
1,42,100,164
1,40,100,12
1,40,100,168
1,38,100,24
1,33,100,88
1,38,100,92
1,33,100,20
1,38,100,8
1,42,100,196
1,37,100,104
1,42,100,76
1,37,100,76
1,35,100,64
1,30,100,76
1,35,100,32
1,30,100,116
1,35,100,4
1,42,100,24
1,37,100,104
1,42,100,116
1,37,100,100
1,35,100,72
1,30,100,72
1,35,100,32
1,30,100,104
1,35,100,8
1,40,100,28
1,35,100,96
1,40,100,148
1,35,100,32
1,45,100,0
1,45,100,140
1,43,100,384
1,43,100,232
1,42,100,4
1,42,100,228
1,40,100,12
1,40,100,164
1,38,100,92
1,33,100,84
1,38,100,76
1,33,100,104
1,38,100,92
1,33,100,96
1,38,100,88
1,33,100,28
1,38,100,192
1,42,100,12
1,37,100,104
1,42,100,36
1,37,100,84
1,45,102,40
1,54,102,380
1,52,102,8
1,49,102,384
1,47,102,28
1,45,102,12
1,38,100,24
1,33,100,96
1,38,100,116
1,33,100,68
1,38,100,164
1,33,100,92
1,38,100,104
1,33,100,84
1,38,100,192
1,42,100,0
1,37,100,80
1,42,100,136
1,37,100,52
1,33,100,24
1,28,100,156
1,33,100,92
1,28,100,8
1,33,100,192
1,35,100,12
1,30,100,92
1,35,100,84
1,30,100,124
1,33,100,24
1,28,100,124
1,33,100,92
1,28,100,384
1,33,100,180
1,40,100,12
1,35,100,8
1,40,100,84
1,35,100,380
1,33,100,104
1,28,100,80
1,33,100,124
1,28,100,64
1,33,100,188
1,35,100,12
1,30,100,112
1,35,100,76
1,30,100,104
1,35,100,56
1,42,100,84
1,31,100,32
1,33,100,12
1,38,100,16
1,33,100,108
1,38,100,124
1,33,100,84
1,38,100,20
1,42,100,36
1,37,100,132
1,42,100,136
1,37,100,84
1,42,100,4
1,35,100,0
1,30,100,144
1,35,100,168
1,30,100,28
1,35,100,4
1,42,100,192
1,37,100,112
1,42,100,108
1,37,100,96
1,35,100,64
1,30,100,96
1,35,100,96
1,30,100,84
1,35,100,40
1,40,100,4
1,35,100,104
1,40,100,84
1,35,100,8
1,45,100,0
1,45,100,236
1,43,100,384
1,43,100,236
1,42,100,384
1,42,100,236
1,40,100,0
1,40,100,176
1,38,100,52
1,33,100,72
1,38,100,124
1,33,100,24
1,38,100,188
1,42,100,0
1,37,100,100
1,42,100,84
1,37,100,64
1,42,100,4
1,35,100,192
1,30,100,120
1,35,100,24
1,30,100,116
1,35,100,8
1,42,100,196
1,37,100,124
1,42,100,44
1,37,100,56
1,42,100,188
1,35,100,4
1,30,100,104
1,35,100,56
1,30,100,0
1,35,100,8
1,40,100,0
1,35,100,20
1,40,100,124
1,35,100,84
1,45,100,20
1,45,100,180
1,43,100,388
1,43,100,232
1,42,100,384
1,42,100,224
1,40,100,24
1,40,100,184
1,38,100,84
1,33,100,80
1,38,100,168
1,33,100,104
1,33,65,0
1,38,100,148
1,33,100,124
1,38,100,84
1,38,100,128
1,38,100,88
1,40,100,12
1,42,100,16
1,37,100,72
1,42,100,156
1,37,100,84
1,42,100,12
1,45,104,72
1,54,104,384
1,52,104,16
1,49,104,384
1,47,104,4
1,45,104,188
1,38,100,36
1,33,100,60
1,38,100,136
1,33,100,104
1,38,100,144
1,33,100,108
1,38,100,116
1,33,100,120
1,38,100,12
1,42,100,4
1,37,100,104
1,42,100,104
1,37,100,24
1,42,100,8
1,33,100,24
1,28,100,140
1,33,100,40
1,28,100,84
1,33,100,192
1,35,100,188
1,30,100,136
1,35,100,44
1,30,100,112
1,33,100,32
1,28,100,156
1,33,100,76
1,28,100,12
1,33,100,8
1,40,100,196
1,35,100,56
1,40,100,108
1,35,100,76
1,33,100,24
1,28,100,184
1,33,100,168
1,28,100,124
1,35,100,32
1,30,100,60
1,35,100,52
1,30,100,112
1,35,100,56
1,42,100,36
1,43,100,84
1,45,100,64
1,38,100,60
1,33,100,76
1,38,100,124
1,33,100,84
1,38,100,136
1,33,100,12
1,38,100,168
1,33,100,4
1,38,100,192
1,42,100,32
1,37,100,88
1,42,100,104
1,37,100,52
1,42,100,20
1,45,104,16
1,54,104,384
1,52,104,16
1,49,104,384
1,47,104,8
1,45,104,8
1,38,100,196
1,33,100,52
1,38,100,156
1,33,100,96
1,38,100,168
1,33,100,132
1,38,100,176
1,33,100,68
1,38,100,44
1,42,100,84
1,37,100,136
1,42,100,104
1,37,100,124
1,42,100,16
1,45,104,36
1,54,104,384
1,52,104,20
1,49,104,384
1,47,104,48
1,45,104,192
1,38,100,12
1,38,100,344
1,33,100,244
1,35,100,192
1,38,100,164
1,38,100,120
1,38,100,144
1,33,100,72
1,35,100,4
1,38,100,24
1,38,100,64
1,38,100,136
1,33,100,96
1,35,100,192
1,37,100,180
1,38,100,0
1,33,100,44
1,38,100,136
1,33,100,20
1,38,100,76
1,33,100,4
1,38,100,24
1,38,100,112
1,40,100,196
1,42,100,184
1,43,100,188
1,38,100,56
1,43,100,72
1,38,100,36
1,43,100,96
1,38,100,52
1,43,100,24
1,43,100,124
1,42,100,192
1,40,100,184
1,38,100,8
1,33,100,72
1,38,100,84
1,33,100,12
1,38,100,84
1,33,100,380
1,38,100,0
1,37,100,384
1,35,100,28
1,33,100,4
1,28,100,132
1,33,100,104
1,28,100,68
1,31,100,72
1,35,100,32
1,38,100,0
1,40,100,8
1,38,100,28
1,42,100,380
1,43,100,20
1,31,100,384
1,38,100,8
2,74,119,7668
2,74,119,84
2,74,119,152
2,71,119,92
2,69,119,40
2,71,119,72
2,69,119,72
2,69,119,168
2,71,119,236
2,71,119,100
2,71,119,176
2,71,119,96
2,69,119,28
2,66,119,84
2,69,119,84
2,66,119,40
2,66,119,156
2,66,119,96
2,71,119,12
2,71,119,88
2,71,119,136
2,69,119,124
2,66,119,16
2,69,119,76
2,69,119,0
2,67,119,196
2,66,119,8
2,64,119,60
2,69,119,276
2,69,119,64
2,71,119,100
2,73,119,116
2,74,119,896
2,74,119,112
2,74,119,136
2,71,119,76
2,69,119,68
2,71,119,96
2,69,119,0
2,69,119,28
2,71,119,8
2,71,119,80
2,71,119,120
2,69,119,32
2,66,119,212
2,69,119,184
2,66,119,160
2,66,119,144
2,71,119,20
2,71,119,60
2,71,119,116
2,69,119,108
2,66,119,0
2,69,119,52
2,67,119,188
2,66,119,156
2,64,119,20
2,69,119,212
2,69,119,60
2,71,119,360
2,73,119,48
2,74,119,720
2,74,119,84
2,74,119,128
2,71,119,16
2,74,119,468
2,74,119,84
2,74,119,136
2,71,119,384
2,73,119,452
2,73,119,124
2,73,119,148
2,71,119,60
2,73,119,12
2,71,119,12
2,69,119,80
2,69,119,172
2,74,119,288
2,74,119,112
2,74,119,144
2,71,119,384
2,74,119,420
2,74,119,120
2,74,119,164
2,71,119,8
2,71,119,192
2,73,119,136
2,73,119,112
2,73,119,152
2,73,119,180
2,71,119,8
2,69,119,88
2,69,119,200
2,69,119,128
2,71,119,0
2,71,119,88
2,71,119,112
2,71,119,84
2,71,119,100
2,71,119,100
2,71,119,32
2,71,119,100
2,73,119,20
2,73,119,100
2,73,119,112
2,71,119,84
2,73,119,16
2,74,119,20
2,74,119,80
2,74,119,88
2,74,119,64
2,74,119,80
2,74,119,64
2,74,119,68
2,76,119,20
2,76,119,84
2,76,119,100
2,74,119,44
2,76,119,20
2,74,119,40
2,73,119,204
2,74,119,48
2,74,119,80
2,74,119,120
2,71,119,36
2,74,119,956
2,74,119,88
2,74,119,148
2,71,119,572
2,69,119,4
2,71,119,20
2,69,119,20
2,69,119,220
2,69,119,156
2,71,119,8
2,71,119,84
2,71,119,128
2,69,119,12
2,66,119,16
2,69,119,176
2,66,119,184
2,66,119,212
2,69,119,8
2,71,119,12
2,71,119,72
2,71,119,112
2,69,119,20
2,66,119,196
2,69,119,180
2,67,119,172
2,66,119,196
2,64,119,0
2,69,119,88
2,69,119,80
2,71,119,68
2,73,119,396
2,74,119,408
2,74,119,80
2,74,119,80
2,71,119,588
2,69,119,180
2,71,119,188
2,69,119,168
2,69,119,148
2,71,119,32
2,71,119,0
2,71,119,168
2,71,119,148
2,69,119,80
2,66,119,176
2,69,119,20
2,66,119,0
2,66,119,176
2,69,119,124
2,71,119,32
2,71,119,120
2,71,119,132
2,69,119,92
2,66,119,88
2,69,119,60
2,67,119,28
2,66,119,68
2,64,119,32
2,69,119,188
2,69,119,64
2,71,119,64
2,73,119,396
2,74,119,780
2,74,119,92
2,74,119,132
2,71,119,368
2,74,119,468
2,74,119,92
2,74,119,140
2,71,119,8
2,73,119,440
2,73,119,96
2,73,119,140
2,73,119,408
2,71,119,20
2,69,119,76
2,69,119,136
2,69,119,148
2,74,119,120
2,74,119,112
2,74,119,132
2,71,119,8
2,74,119,436
2,74,119,112
2,74,119,156
2,71,119,20
2,71,119,168
2,73,119,160
2,73,119,140
2,73,119,136
2,73,119,280
2,71,119,12
2,69,119,8
2,69,119,148
2,69,119,288
2,71,119,192
2,71,119,108
2,71,119,112
2,71,119,92
2,71,119,100
2,71,119,68
2,71,119,32
2,71,119,40
2,73,119,0
2,73,119,108
2,73,119,104
2,71,119,12
2,73,119,88
2,74,119,4
2,74,119,80
2,74,119,104
2,74,119,80
2,74,119,88
2,74,119,84
2,74,119,32
2,74,119,40
2,76,119,8
2,76,119,76
2,76,119,88
2,74,119,64
2,76,119,20
2,74,119,8
2,73,119,204
2,74,119,20
2,74,119,88
2,74,119,120
2,71,119,368
2,74,119,1192
2,74,119,104
2,74,119,160
2,71,119,12
2,74,119,448
2,74,119,72
2,74,119,188
2,71,119,8
2,73,119,404
2,73,119,112
2,73,119,156
2,73,119,336
2,71,119,8
2,69,119,36
2,69,119,168
2,74,119,420
2,74,119,108
2,74,119,152
2,71,119,16
2,74,119,408
2,74,119,116
2,74,119,140
2,71,119,400
2,73,119,356
2,73,119,128
2,73,119,148
2,73,119,348
2,71,119,32
2,69,119,20
2,69,119,160
3,57,70,19936
3,62,66,0
3,66,69,0
3,57,68,104
3,61,72,0
3,66,73,0
3,59,70,108
3,62,70,0
3,57,74,144
3,61,73,0
3,59,70,116
3,62,68,0
3,55,65,192
3,64,65,0
3,59,67,4
3,57,70,128
3,61,68,0
3,64,66,4
3,57,70,552
3,66,76,0
3,62,75,4
3,57,75,516
3,62,79,0
3,66,77,0
3,62,70,3304
3,57,65,4
3,66,67,0
3,57,69,340
3,62,72,0
3,66,73,0
3,59,55,3396
3,62,59,0
3,66,60,0
3,57,55,44
3,61,53,0
3,64,39,0
3,59,60,128
3,64,60,0
3,62,59,4
3,64,56,100
3,57,63,16
3,61,61,0
3,59,60,84
3,62,65,0
3,66,64,0
3,57,67,1148
3,62,65,4
3,66,68,0
3,57,66,128
3,61,77,0
3,66,72,0
3,59,68,108
3,62,66,0
3,57,67,132
3,61,75,4
3,66,72,0
3,59,66,112
3,66,71,0
3,62,70,4
3,55,67,148
3,59,72,0
3,64,69,0
3,57,64,108
3,61,60,0
3,64,57,0
3,62,63,312
3,66,66,0
3,57,63,24
3,57,61,100
3,61,69,4
3,66,66,0
3,59,68,128
3,62,67,0
3,57,62,140
3,61,66,0
3,59,66,124
3,62,66,0
3,59,67,52
3,64,64,0
3,55,62,28
3,61,65,160
3,64,53,0
3,57,66,24
3,57,54,392
3,66,62,0
3,62,56,24
3,57,63,3204
3,62,59,16
3,66,63,0
3,59,57,3396
3,62,58,0
3,66,64,24
3,64,50,32
3,61,67,16
3,57,61,4
3,62,55,104
3,59,56,4
3,64,55,0
3,57,63,132
3,61,63,0
3,64,61,0
3,66,66,60
3,59,66,4
3,62,67,0
3,66,60,812
3,57,57,4
3,62,57,0
3,57,64,264
3,62,61,0
3,66,67,0
3,57,63,3408
3,62,63,0
3,66,68,4
3,57,60,112
3,62,64,0
3,66,70,0
4,69,79,7656
4,74,79,0
4,78,79,0
4,73,79,1532
4,71,79,88
4,74,79,0
4,69,79,108
4,73,79,0
4,71,79,60
4,74,79,0
4,76,79,52
4,67,79,16
4,69,79,128
4,73,79,0
4,74,79,3092
4,78,79,12
4,73,79,1552
4,71,79,124
4,74,79,16
4,73,79,96
4,69,79,4
4,71,79,96
4,74,79,0
4,76,79,88
4,71,79,32
4,67,79,0
4,69,79,116
4,73,79,0
4,69,79,128
4,74,79,0
4,78,79,0
4,73,79,3084
4,76,79,1488
4,74,79,1568
4,78,79,20
4,73,79,3032
4,76,79,1520
4,71,79,8
4,74,79,0
4,78,79,0
4,69,79,24
4,76,79,0
4,73,79,4
4,71,79,8
4,74,79,0
4,69,79,108
4,73,79,0
4,71,79,12
4,74,79,0
4,78,79,0
4,67,79,176
4,74,79,0
4,71,79,24
4,76,79,20
4,69,79,20
4,73,79,0
4,69,79,104
4,78,79,0
4,74,79,24
4,73,79,1532
4,71,79,116
4,74,79,12
4,69,79,16
4,73,79,4
4,71,79,8
4,74,79,16
4,67,79,76
4,76,79,16
4,69,79,136
4,73,79,24
4,78,79,3032
4,74,79,0
4,73,79,1544
4,71,79,20
4,74,79,0
4,69,79,12
4,73,79,0
4,71,79,8
4,74,79,0
4,76,79,100
4,67,79,16
4,69,79,188
4,73,79,0
4,69,79,124
4,74,79,16
4,78,79,0
4,69,79,96
4,73,79,0
4,78,79,0
4,76,79,1512
4,74,79,40
4,69,79,24
4,78,79,0
4,69,79,84
4,78,79,0
4,73,79,28
4,76,79,1500
4,71,79,56
4,74,79,16
4,78,79,0
4,69,79,56
4,76,79,0
4,73,79,0
4,71,79,8
4,74,79,16
4,69,79,12
4,73,79,0
4,71,79,20
4,78,79,0
4,74,79,0
4,67,79,144
4,71,79,0
4,74,79,0
4,69,79,76
4,73,79,0
4,76,79,0
4,78,79,104
4,69,79,12
4,74,79,0
4,73,79,3036
4,76,79,1520
4,69,79,20
4,74,79,0
4,78,79,0
4,73,79,3072
4,76,79,1504
4,74,79,6196
4,69,79,16
4,78,79,0
4,71,79,108
4,74,79,0
4,79,79,24
4,69,79,104
4,74,79,4
4,78,79,0
4,73,79,3048
4,76,79,0
4,74,79,20
4,79,79,0
4,71,79,24
4,69,79,116
4,78,79,0
4,74,79,4
4,74,79,96
4,71,79,4
4,77,79,0
4,78,79,84
4,74,79,16
4,69,79,4
5,50,76,1540
5,62,106,0
5,62,106,124
5,62,103,128
5,57,91,44
5,59,84,0
5,50,76,44
5,62,86,0
5,62,88,64
5,62,101,136
5,62,101,108
5,45,76,0
5,57,86,0
5,47,76,192
5,59,83,0
5,50,76,12
5,62,91,0
5,66,92,0
5,50,76,100
5,62,89,0
5,66,89,0
5,50,76,124
5,61,62,0
5,62,89,0
5,66,86,0
5,45,76,36
5,57,89,0
5,47,76,188
5,59,85,0
5,50,76,4
5,62,88,0
5,66,91,0
5,50,76,72
5,62,88,4
5,66,90,0
5,50,76,136
5,62,89,0
5,66,90,0
5,45,76,52
5,62,87,0
5,66,90,0
5,47,76,8
5,57,80,0
5,49,76,160
5,59,84,0
5,50,76,32
5,57,83,188
5,61,61,0
5,62,85,0
5,66,80,0
5,45,76,96
5,57,82,188
5,66,83,0
5,62,84,4
5,50,76,100
5,57,80,188
5,66,79,0
5,62,86,4
5,45,76,56
5,57,84,188
5,62,86,4
5,66,82,0
5,54,76,64
5,57,85,188
5,61,97,4
5,66,92,0
5,49,76,72
5,57,85,188
5,61,95,0
5,66,90,4
