track,note,velocity,time
0,33,104,23
0,38,68,0
0,42,41,0
0,38,0,4
0,42,0,0
0,33,0,44
0,33,109,48
0,35,100,0
0,42,37,0
0,61,83,0
0,64,95,0
0,69,104,0
0,35,0,4
0,42,0,0
0,69,0,68
0,64,0,2
0,61,0,1
0,73,105,17
0,64,80,3
0,38,78,1
0,42,41,0
0,69,84,0
0,73,80,1
0,38,0,3
0,42,0,0
0,73,0,39
0,64,0,6
0,69,0,8
0,73,0,7
0,73,44,27
0,33,0,2
0,64,84,2
0,69,89,0
0,73,64,0
0,33,109,1
0,35,100,0
0,42,35,0
0,61,91,0
0,64,95,0
0,69,108,0
0,35,0,4
0,42,0,0
0,64,0,44
0,73,0,2
0,69,0,6
0,73,0,7
0,69,0,11
0,64,0,4
0,61,0,3
0,73,100,11
0,33,0,1
0,64,84,2
0,69,84,0
0,73,68,0
0,33,109,1
0,38,68,0
0,42,44,0
0,38,0,4
0,42,0,0
0,73,0,83
0,33,0,6
0,33,109,3
0,35,100,0
0,42,32,0
0,61,79,0
0,64,95,0
0,69,108,0
0,35,0,4
0,42,0,0
0,64,0,37
0,69,0,9
0,73,0,3
0,61,0,24
0,69,0,2
0,64,0,6
0,33,0,8
0,73,83,0
0,64,80,1
0,69,84,0
0,73,76,1
0,35,109,1
0,38,78,0
0,42,41,0
0,38,0,4
0,42,0,0
0,64,0,44
0,69,0,2
0,73,0,7
0,73,0,10
0,35,0,26
0,64,84,1
0,69,84,0
0,73,80,0
0,35,100,2
0,37,109,0
0,42,32,0
0,61,72,0
0,64,91,0
0,69,104,0
0,73,110,1
0,35,0,3
0,42,0,0
0,61,0,75
0,69,0,1
0,64,0,4
0,37,0,9
0,38,109,3
0,38,68,0
0,42,41,0
0,38,0,4
0,42,0,0
0,73,0,34
0,69,0,3
0,64,0,9
0,73,0,14
0,38,0,29
0,66,72,1
0,69,89,0
0,74,89,0
0,35,100,2
0,38,109,0
0,42,37,0
0,62,95,0
0,66,95,0
0,69,104,0
0,74,96,1
0,35,0,3
0,42,0,0
0,66,0,48
0,69,0,13
0,74,0,1
0,74,0,3
0,66,0,10
0,62,0,12
0,69,0,0
0,38,0,2
0,66,93,1
0,69,93,0
0,74,93,0
0,74,91,1
0,38,109,1
0,38,78,0
0,42,41,0
0,38,0,4
0,42,0,0
0,38,0,89
0,35,100,3
0,38,109,0
0,42,35,0
0,62,91,0
0,66,79,0
0,69,91,0
0,35,0,4
0,42,0,0
0,74,0,11
0,66,0,19
0,74,0,5
0,69,0,11
0,69,0,35
0,66,0,6
0,62,0,1
0,38,0,1
0,69,93,0
0,74,100,0
0,66,76,1
0,74,93,0
0,35,100,2
0,38,109,0
0,38,68,0
0,42,44,0
0,62,91,0
0,66,83,0
0,69,104,0
0,35,0,4
0,38,0,0
0,42,0,0
0,62,0,59
0,66,0,3
0,38,0,1
0,69,0,2
0,74,0,37
0,66,0,4
0,74,0,5
0,69,0,4
0,35,100,73
0,38,109,0
0,38,78,0
0,42,41,0
0,62,104,0
0,66,99,0
0,69,104,0
0,62,116,2
0,62,106,0
0,66,116,0
0,66,106,0
0,69,116,1
0,69,106,0
0,35,0,1
0,38,0,0
0,42,0,0
0,69,0,61
0,62,0,6
0,66,0,15
0,66,0,0
0,69,0,7
0,69,0,0
0,38,0,2
0,66,0,4
0,62,0,9
0,62,0,0
0,61,115,82
0,61,105,0
0,64,115,0
0,64,105,0
0,69,115,0
0,69,105,0
0,38,68,2
0,42,41,0
0,45,98,0
0,38,0,4
0,42,0,0
0,45,0,89
0,35,100,3
0,42,37,0
0,45,98,0
0,61,91,0
0,64,95,0
0,69,99,0
0,35,0,4
0,42,0,0
0,61,0,2
0,61,0,0
0,69,0,7
0,69,0,0
0,64,0,4
0,64,0,0
0,61,0,57
0,64,0,5
0,69,0,1
0,45,0,13
0,64,89,2
0,69,84,0
0,73,80,0
0,38,78,1
0,42,41,0
0,45,98,0
0,73,105,1
0,38,0,3
0,42,0,0
0,64,0,53
0,69,0,4
0,73,0,6
0,73,0,3
0,45,0,23
0,64,89,2
0,69,84,0
0,73,80,0
0,35,100,1
0,42,35,0
0,45,98,0
0,61,95,0
0,64,95,0
0,69,99,0
0,73,87,1
0,35,0,3
0,42,0,0
0,64,0,46
0,69,0,11
0,73,0,4
0,61,0,5
0,73,0,1
0,69,0,2
0,64,0,15
0,45,0,5
0,64,93,1
0,69,98,0
0,73,80,0
0,38,68,2
0,42,44,0
0,45,98,0
0,73,110,1
0,38,0,3
0,42,0,0
0,45,0,89
0,35,100,3
0,42,32,0
0,45,98,0
0,61,95,0
0,64,99,0
0,69,104,0
0,35,0,4
0,42,0,0
0,64,0,41
0,73,0,6
0,73,0,1
0,69,0,6
0,69,0,16
0,61,0,2
0,64,0,12
0,45,0,5
0,73,87,0
0,64,76,1
0,69,84,0
0,73,76,0
0,38,78,2
0,42,41,0
0,44,98,0
0,38,0,4
0,42,0,0
0,64,0,38
0,73,0,10
0,73,0,5
0,69,0,6
0,44,0,30
0,64,93,1
0,69,103,0
0,73,93,0
0,73,105,1
0,35,100,1
0,42,103,0
0,42,32,0
0,61,99,0
0,64,99,0
0,69,104,0
0,35,0,4
0,42,0,0
0,61,0,63
0,69,0,5
0,64,0,13
0,42,0,8
0,38,68,3
0,40,108,0
0,42,41,0
0,38,0,4
0,42,0,0
0,64,0,35
0,73,0,11
0,73,0,1
0,69,0,7
0,40,0,35
0,64,80,1
0,68,84,0
0,71,93,0
0,71,100,1
0,35,100,1
0,40,108,0
0,42,37,0
0,59,79,0
0,64,95,0
0,68,83,0
0,35,0,4
0,42,0,0
0,64,0,44
0,71,0,0
0,68,0,11
0,71,0,6
0,68,0,20
0,40,0,8
0,64,89,1
0,68,80,0
0,71,105,0
0,71,89,0
0,38,78,2
0,40,108,0
0,42,41,0
0,38,0,4
0,42,0,0
0,64,0,1
0,59,0,8
0,40,0,80
0,35,100,3
0,40,108,0
0,42,35,0
0,59,79,0
0,64,87,0
0,68,72,0
0,35,0,4
0,42,0,0
0,71,0,3
0,64,0,15
0,68,0,5
0,71,0,16
0,68,0,44
0,64,0,1
0,59,0,1
0,71,105,3
0,40,0,1
0,64,84,1
0,68,76,0
0,71,84,0
0,35,100,2
0,38,68,0
0,40,108,0
0,42,44,0
0,59,83,0
0,64,104,0
0,68,91,0
0,35,0,4
0,38,0,0
0,42,0,0
0,59,0,61
0,68,0,12
0,64,0,12
0,71,0,13
0,64,0,4
0,68,0,7
0,71,0,3
0,40,0,2
0,35,100,74
0,38,78,0
0,40,108,0
0,42,41,0
0,59,99,0
0,64,99,0
0,68,95,0
0,59,114,3
0,59,104,0
0,35,0,1
0,38,0,0
0,42,0,0
0,64,114,0
0,64,104,0
0,68,114,0
0,68,104,0
0,64,0,66
0,68,0,8
0,59,0,11
0,59,0,6
0,59,0,0
0,68,0,2
0,68,0,0
0,40,0,2
0,64,0,27
0,64,0,0
0,38,108,66
0,38,68,0
0,42,41,0
0,57,114,1
0,57,104,0
0,62,114,0
0,62,104,0
0,66,114,0
0,66,104,0
0,38,0,3
0,42,0,0
0,38,0,89
0,35,100,3
0,38,108,0
0,42,37,0
0,57,87,0
0,62,95,0
0,66,95,0
0,35,0,4
0,42,0,0
0,62,0,16
0,62,0,0
0,57,0,5
0,57,0,0
0,66,0,7
0,66,0,0
0,66,0,45
0,57,0,5
0,62,0,1
0,38,0,10
0,62,84,1
0,66,93,1
0,69,84,0
0,38,108,1
0,38,78,0
0,42,41,0
0,69,105,3
0,38,0,1
0,42,0,0
0,69,0,47
0,62,0,2
0,66,0,0
0,69,0,18
0,38,0,22
0,62,84,1
0,66,93,0
0,69,84,0
0,35,100,2
0,38,108,0
0,42,35,0
0,57,87,0
0,62,95,0
0,66,79,0
0,69,91,1
0,35,0,3
0,42,0,0
0,62,0,40
0,69,0,2
0,66,0,5
0,69,0,7
0,62,0,15
0,66,0,1
0,57,0,11
0,38,0,8
0,62,84,0
0,66,89,0
0,69,89,0
0,69,100,2
0,38,108,1
0,38,68,0
0,42,44,0
0,38,0,4
0,42,0,0
0,38,0,89
0,35,100,3
0,40,108,0
0,42,32,0
0,57,95,0
0,62,91,0
0,66,75,0
0,35,0,4
0,42,0,0
0,69,0,39
0,69,0,4
0,62,0,2
0,66,0,9
0,66,0,29
0,57,0,4
0,40,0,2
0,62,76,0
0,66,76,0
0,69,76,0
0,69,87,2
0,38,78,1
0,42,103,0
0,42,41,0
0,62,0,0
0,38,0,4
0,42,0,0
0,69,0,37
0,62,0,6
0,69,0,0
0,66,0,9
0,42,0,37
0,62,89,1
0,66,98,0
0,69,89,0
0,69,96,1
0,35,100,1
0,42,32,0
0,44,98,0
0,57,99,0
0,62,91,0
0,66,91,0
0,35,0,4
0,42,0,0
0,57,0,67
0,62,0,9
0,66,0,3
0,44,0,10
0,38,68,3
0,42,41,0
0,45,98,0
0,38,0,4
0,42,0,0
0,69,0,31
0,62,0,3
0,69,0,15
0,66,0,21
0,45,0,19
0,64,76,0
0,69,72,0
0,61,84,1
0,64,105,1
0,35,100,1
0,42,37,0
0,45,98,0
0,61,83,0
0,64,95,0
0,69,95,0
0,35,0,4
0,42,0,0
0,64,0,43
0,61,0,4
0,64,0,17
0,64,0,8
0,69,0,2
0,61,0,1
0,69,0,8
0,45,0,6
0,62,90,1
0,66,93,0
0,69,84,0
0,66,110,1
0,38,78,1
0,42,41,0
0,45,98,0
0,38,0,4
0,42,0,0
0,45,0,89
0,35,100,3
0,42,35,0
0,45,98,0
0,61,87,0
0,64,99,0
0,69,99,0
0,35,0,4
0,42,0,0
0,66,0,12
0,62,0,6
0,69,0,9
0,66,0,5
0,69,0,38
0,64,0,5
0,61,0,7
0,69,89,6
0,45,0,1
0,61,68,0
0,64,110,0
0,64,84,0
0,38,68,3
0,42,44,0
0,45,98,0
0,38,0,4
0,42,0,0
0,45,0,89
0,57,115,1
0,57,115,0
0,35,100,2
0,38,48,0
0,42,32,0
0,45,98,0
0,61,83,0
0,64,95,0
0,69,91,0
0,35,0,4
0,38,0,0
0,42,0,0
0,64,0,8
0,61,0,8
0,64,0,5
0,69,0,6
0,38,70,17
0,57,0,1
0,57,0,0
0,38,0,3
0,64,0,29
0,61,0,2
0,69,0,5
0,56,115,4
0,56,115,0
0,45,0,1
0,38,88,3
0,42,41,0
0,44,98,0
0,38,0,4
0,42,0,0
0,56,0,40
0,56,0,0
0,54,115,47
0,54,115,0
0,44,0,2
0,35,100,3
0,38,48,0
0,42,103,0
0,42,32,0
0,61,83,0
0,64,95,0
0,69,95,0
0,35,0,4
0,38,0,0
0,42,0,0
0,54,0,41
0,54,0,0
0,64,0,1
0,38,70,2
0,61,0,0
0,69,0,2
0,38,0,2
0,52,115,33
0,52,115,0
0,42,0,8
0,64,105,1
0,38,78,2
0,40,108,0
0,49,61,0
0,38,0,4
0,49,0,0
0,40,0,89
0,35,100,3
0,40,108,0
0,51,60,0
0,59,95,0
0,64,95,0
0,68,95,0
0,35,0,4
0,51,0,0
0,68,0,63
0,64,0,10
0,59,0,2
0,52,0,3
0,52,111,3
0,64,113,0
0,40,0,8
0,52,0,1
0,38,78,2
0,40,108,0
0,51,68,0
0,38,0,4
0,51,0,0
0,64,0,61
0,52,113,19
0,64,115,0
0,40,0,9
0,35,100,3
0,40,108,0
0,51,59,0
0,59,95,0
0,64,95,0
0,68,83,0
0,35,0,4
0,51,0,0
0,52,0,48
0,64,0,0
0,59,0,16
0,68,0,4
0,64,0,4
0,52,109,8
0,64,111,0
0,40,0,9
0,38,68,3
0,40,108,0
0,51,69,0
0,38,0,4
0,51,0,0
0,40,0,89
0,35,100,3
0,40,108,0
0,51,58,0
0,59,72,0
0,64,99,0
0,68,83,0
0,35,0,4
0,51,0,0
0,52,0,53
0,64,0,6
0,68,0,7
0,59,0,2
0,52,111,12
0,64,113,0
0,64,0,6
0,40,0,3
0,38,78,3
0,40,107,0
0,51,68,0
0,38,0,4
0,51,0,0
0,52,0,37
0,64,0,0
0,52,111,43
0,64,113,0
0,40,0,9
0,35,100,3
0,40,107,0
0,51,58,0
0,59,79,0
0,64,95,0
0,68,79,0
0,35,0,4
0,51,0,0
0,68,0,61
0,59,0,4
0,64,0,6
0,40,0,18
0,38,68,3
0,40,107,0
0,51,68,0
0,38,0,4
0,51,0,0
0,52,0,41
0,64,0,0
0,56,106,38
0,68,108,0
0,40,0,10
0,35,100,3
0,40,107,0
0,51,60,0
0,59,83,0
0,64,91,0
0,68,87,0
0,35,0,4
0,51,0,0
0,56,0,44
0,68,0,0
0,68,0,27
0,59,0,6
0,56,106,2
0,68,108,0
0,64,0,2
0,40,0,8
0,38,78,3
0,40,107,0
0,51,68,0
0,38,0,4
0,51,0,0
0,40,0,89
0,35,100,3
0,40,107,0
0,51,59,0
0,59,87,0
0,64,99,0
0,68,91,0
0,35,0,4
0,51,0,0
0,56,0,43
0,68,0,0
0,68,0,32
0,59,0,3
0,56,111,1
0,68,113,0
0,40,0,10
0,38,69,3
0,40,107,0
0,51,69,0
0,38,0,4
0,51,0,0
0,52,0,1
0,64,0,1
0,52,114,78
0,52,114,0
0,40,0,9
0,35,100,3
0,38,48,0
0,40,107,0
0,51,58,0
0,59,87,0
0,64,99,0
0,68,95,0
0,76,91,2
0,35,0,2
0,38,0,0
0,51,0,0
0,64,0,11
0,56,0,1
0,68,0,0
0,38,70,32
0,76,0,3
0,38,0,1
0,52,0,9
0,52,0,0
0,59,0,9
0,64,0,6
0,68,0,0
0,50,114,8
0,50,114,0
0,40,0,9
0,38,107,3
0,38,88,0
0,51,68,0
0,74,100,2
0,38,0,2
0,51,0,0
0,74,0,62
0,50,0,20
0,50,0,0
0,47,114,1
0,47,114,0
0,38,0,6
0,35,107,3
0,35,100,0
0,38,48,0
0,51,58,0
0,59,91,0
0,64,95,0
0,68,87,0
0,71,87,0
0,35,0,4
0,38,0,0
0,51,0,0
0,38,70,44
0,38,0,4
0,71,0,8
0,59,0,15
0,68,0,0
0,64,0,8
0,47,0,7
0,47,0,0
0,35,0,3
0,52,113,1
0,52,113,0
0,38,78,2
0,40,107,0
0,49,61,0
0,76,96,1
0,38,0,3
0,49,0,0
0,40,0,89
0,35,100,3
0,40,107,0
0,51,60,0
0,59,79,0
0,64,91,0
0,68,87,0
0,35,0,4
0,51,0,0
0,59,0,71
0,68,0,8
0,56,111,1
0,68,113,0
0,64,0,7
0,40,0,2
0,38,78,3
0,40,107,0
0,51,68,0
0,38,0,4
0,51,0,0
0,56,0,33
0,68,0,0
0,56,111,47
0,68,113,0
0,40,0,9
0,35,100,3
0,40,107,0
0,51,59,0
0,59,75,0
0,64,87,0
0,68,79,0
0,35,0,4
0,51,0,0
0,56,0,33
0,68,0,0
0,64,0,42
0,68,0,1
0,59,0,2
0,56,113,2
0,68,115,0
0,40,0,9
0,38,68,3
0,40,107,0
0,51,69,0
0,38,0,4
0,51,0,0
0,40,0,89
0,35,100,3
0,40,107,0
0,51,58,0
0,59,79,0
0,64,91,0
0,68,75,0
0,35,0,4
0,51,0,0
0,56,0,32
0,68,0,0
0,59,0,46
0,59,106,1
0,71,108,0
0,64,0,1
0,68,0,3
0,40,0,6
0,38,78,3
0,40,107,0
0,51,68,0
0,38,0,4
0,51,0,0
0,59,0,30
0,71,0,0
0,59,111,50
0,71,113,0
0,40,0,9
0,35,100,3
0,40,107,0
0,51,58,0
0,59,95,0
0,64,95,0
0,68,83,0
0,35,0,4
0,51,0,0
0,64,0,76
0,59,0,3
0,68,0,3
0,40,0,7
0,38,68,3
0,40,107,0
0,51,68,0
0,38,0,4
0,51,0,0
0,59,0,55
0,71,0,0
0,62,106,25
0,74,108,0
0,40,0,9
0,35,100,3
0,40,107,0
0,51,60,0
0,59,91,0
0,64,95,0
0,68,79,0
0,35,0,4
0,51,0,0
0,62,0,46
0,74,0,0
0,62,106,34
0,74,108,0
0,40,0,9
0,68,0,1
0,38,78,2
