track,note,velocity,time
1,36,110,572
1,69,100,0
1,69,100,0
1,44,95,0
1,69,100,0
1,38,110,48
1,44,95,3
1,36,110,6
1,36,110,0
1,69,100,0
1,69,100,0
1,36,110,0
1,44,95,0
1,69,100,0
1,38,110,48
1,44,95,5
1,36,110,53
1,69,100,0
1,69,100,0
1,44,95,0
1,69,100,0
1,38,110,48
1,44,95,0
1,36,110,6
1,36,110,0
1,69,100,0
1,69,100,0
1,36,110,0
1,44,95,0
1,69,100,0
1,38,110,48
1,44,95,31
1,36,110,54
1,69,100,0
1,69,100,0
1,44,95,0
1,69,100,0
1,38,110,48
1,44,95,11
1,36,110,11
1,36,110,0
1,69,100,0
1,69,100,0
1,36,110,0
1,44,95,0
1,69,100,0
1,38,110,48
1,44,95,35
1,36,110,61
1,69,100,0
1,69,100,0
1,44,95,0
1,69,100,0
1,38,110,48
1,44,95,39
1,36,110,11
1,36,110,0
1,69,100,0
1,69,100,0
1,36,110,0
1,44,95,0
1,69,100,0
1,38,110,48
1,44,95,26
1,36,110,64
1,69,100,0
1,69,100,0
1,44,95,0
1,69,100,0
1,38,110,48
1,44,95,3
1,36,110,6
1,36,110,0
1,69,100,0
1,69,100,0
1,36,110,0
1,44,95,0
1,69,100,0
1,38,110,48
1,44,95,5
1,36,110,53
1,69,100,0
1,69,100,0
1,44,95,0
1,69,100,0
1,38,110,48
1,44,95,0
1,36,110,6
1,36,110,0
1,69,100,0
1,69,100,0
1,36,110,0
1,44,95,0
1,69,100,0
1,38,110,48
1,44,95,31
1,36,110,54
1,69,100,0
1,69,100,0
1,44,95,0
1,69,100,0
1,38,110,48
1,44,95,11
1,36,110,11
1,36,110,0
1,69,100,0
1,69,100,0
1,36,110,0
1,44,95,0
1,69,100,0
1,38,110,48
1,44,95,35
1,36,110,61
1,69,100,0
1,69,100,0
1,44,95,0
1,69,100,0
1,38,110,48
1,44,95,39
1,36,110,11
1,36,110,0
1,69,100,0
1,69,100,0
1,36,110,0
1,44,95,0
1,69,100,0
1,38,110,48
1,44,95,26
1,36,110,64
1,69,100,0
1,69,100,0
1,44,95,0
1,69,100,0
1,38,110,48
1,44,95,3
1,36,110,6
1,36,110,0
1,69,100,0
1,69,100,0
1,36,110,0
1,44,95,0
1,69,100,0
1,38,110,48
1,44,95,5
1,36,110,53
1,69,100,0
1,69,100,0
1,44,95,0
1,69,100,0
1,38,110,48
1,44,95,0
1,36,110,6
1,36,110,0
1,69,100,0
1,69,100,0
1,36,110,0
1,44,95,0
1,69,100,0
1,38,110,48
1,44,95,31
1,36,110,54
1,69,100,0
1,69,100,0
1,44,95,0
1,69,100,0
1,38,110,48
1,44,95,11
1,36,110,11
1,36,110,0
1,69,100,0
1,69,100,0
1,36,110,0
1,44,95,0
1,69,100,0
1,38,110,48
1,44,95,35
1,36,110,61
1,69,100,0
1,69,100,0
1,44,95,0
1,69,100,0
1,38,110,48
1,44,95,39
1,36,110,11
1,36,110,0
1,69,100,0
1,69,100,0
1,36,110,0
1,44,95,0
1,69,100,0
1,38,110,48
1,44,95,26
1,36,110,64
1,69,100,0
1,69,100,0
1,44,95,0
1,69,100,0
1,38,110,48
1,44,95,3
1,36,110,6
1,36,110,0
1,69,100,0
1,69,100,0
1,36,110,0
1,44,95,0
1,69,100,0
1,38,110,48
1,44,95,5
1,36,110,53
1,69,100,0
1,69,100,0
1,44,95,0
1,69,100,0
1,38,110,48
1,44,95,0
1,36,110,6
1,36,110,0
1,69,100,0
1,69,100,0
1,36,110,0
1,44,95,0
1,69,100,0
1,38,110,48
1,44,95,31
1,36,110,54
1,69,100,0
1,69,100,0
1,44,95,0
1,69,100,0
1,38,110,48
1,44,95,11
1,36,110,11
1,36,110,0
1,69,100,0
1,69,100,0
1,36,110,0
1,44,95,0
1,69,100,0
1,38,110,48
1,44,95,35
1,36,110,61
1,69,100,0
1,69,100,0
1,44,95,0
1,69,100,0
1,38,110,48
1,44,95,39
1,36,110,11
1,36,110,0
1,69,100,0
1,69,100,0
1,36,110,0
1,44,95,0
1,69,100,0
1,38,110,48
1,44,95,26
1,36,110,64
1,69,100,0
1,69,100,0
1,44,95,0
1,69,100,0
1,38,110,48
1,44,95,3
1,36,110,6
1,36,110,0
1,69,100,0
1,69,100,0
1,36,110,0
1,44,95,0
1,69,100,0
1,38,110,48
1,44,95,5
1,36,110,53
1,69,100,0
1,69,100,0
1,44,95,0
1,69,100,0
1,38,110,48
1,44,95,0
1,36,110,6
1,36,110,0
1,69,100,0
1,69,100,0
1,36,110,0
1,44,95,0
1,69,100,0
1,38,110,48
1,44,95,31
1,36,110,54
1,69,100,0
1,69,100,0
1,44,95,0
1,69,100,0
1,38,110,48
1,44,95,11
1,36,110,11
1,36,110,0
1,69,100,0
1,69,100,0
1,36,110,0
1,44,95,0
1,69,100,0
1,38,110,48
1,44,95,35
1,36,110,61
1,69,100,0
1,69,100,0
1,44,95,0
1,69,100,0
1,38,110,48
1,44,95,39
1,36,110,11
1,36,110,0
1,69,100,0
1,69,100,0
1,36,110,0
1,44,95,0
1,69,100,0
1,38,110,48
1,44,95,26
1,36,110,64
1,69,100,0
1,69,100,0
1,44,95,0
1,69,100,0
1,38,110,48
1,44,95,3
1,36,110,6
1,36,110,0
1,69,100,0
1,69,100,0
1,36,110,0
1,44,95,0
1,69,100,0
1,50,101,0
1,50,101,0
1,38,110,0
1,48,101,0
1,48,100,0
1,44,95,0
1,47,100,0
1,47,99,0
1,36,110,0
1,69,100,0
1,49,99,0
1,69,100,0
1,44,95,0
1,69,100,0
1,38,110,0
1,44,95,0
1,36,110,6
1,36,110,0
1,69,100,0
1,69,100,0
1,36,110,0
1,44,95,0
1,69,100,0
1,38,110,48
1,44,95,31
1,36,110,54
1,69,100,0
1,69,100,0
1,44,95,0
1,69,100,0
1,38,110,48
1,44,95,11
1,36,110,11
1,36,110,0
1,69,100,0
1,69,100,0
1,36,110,0
1,44,95,0
1,69,100,0
1,38,110,48
1,44,95,35
1,36,110,61
1,69,100,0
1,69,100,0
1,44,95,0
1,69,100,0
1,38,110,48
1,44,95,39
1,36,110,11
1,36,110,0
1,69,100,0
1,69,100,0
1,36,110,0
1,44,95,0
1,69,100,0
1,38,110,48
1,44,95,26
1,36,110,64
1,69,100,0
1,69,100,0
1,44,95,0
1,69,100,0
1,38,110,48
1,44,95,3
1,36,110,6
1,36,110,0
1,69,100,0
1,69,100,0
1,36,110,0
1,44,95,0
1,69,100,0
1,38,110,48
1,44,95,5
1,36,110,53
1,69,100,0
1,69,100,0
1,44,95,0
1,69,100,0
1,38,110,48
1,44,95,0
1,36,110,6
1,36,110,0
1,69,100,0
1,69,100,0
1,36,110,0
1,44,95,0
1,69,100,0
1,38,110,48
1,44,95,31
1,36,110,54
1,69,100,0
1,69,100,0
1,44,95,0
1,69,100,0
1,38,110,48
1,44,95,11
1,36,110,11
1,36,110,0
1,69,100,0
1,69,100,0
1,36,110,0
1,44,95,0
1,69,100,0
1,38,110,48
1,44,95,35
1,36,110,61
1,69,100,0
1,69,100,0
1,44,95,0
1,69,100,0
1,38,110,48
1,44,95,39
1,36,110,11
1,36,110,0
1,69,100,0
1,69,100,0
1,36,110,0
1,44,95,0
1,69,100,0
1,38,110,48
1,44,95,26
1,36,110,64
1,69,100,0
1,69,100,0
1,44,95,0
1,69,100,0
1,38,110,48
1,44,95,3
1,36,110,6
1,36,110,0
1,69,100,0
1,69,100,0
1,36,110,0
1,44,95,0
1,69,100,0
1,38,110,48
1,44,95,5
1,36,110,53
1,69,100,0
1,69,100,0
1,44,95,0
1,69,100,0
1,38,110,48
1,44,95,0
1,36,110,6
1,36,110,0
1,69,100,0
1,69,100,0
1,36,110,0
1,44,95,0
1,69,100,0
1,38,110,48
1,44,95,31
1,36,110,54
1,69,100,0
1,69,100,0
1,44,95,0
1,69,100,0
1,38,110,48
1,44,95,11
1,36,110,11
1,36,110,0
1,69,100,0
1,69,100,0
1,36,110,0
1,44,95,0
1,69,100,0
1,50,101,0
1,50,101,0
1,38,110,0
1,48,101,0
1,48,100,0
1,44,95,0
1,47,100,0
1,47,99,0
1,36,110,0
1,42,100,0
1,49,99,0
1,42,100,11
1,44,100,11
1,36,110,0
1,38,110,0
1,42,100,0
1,42,100,0
1,44,100,13
1,36,110,17
1,42,100,0
1,42,100,6
1,44,100,15
1,36,110,9
1,38,110,0
1,42,100,0
1,42,100,0
1,44,100,14
1,36,110,18
1,42,100,0
1,42,100,8
1,44,100,14
1,36,110,22
1,38,110,0
1,42,100,0
1,42,100,0
1,44,100,14
1,36,110,10
1,42,100,0
1,42,100,9
1,44,100,15
1,36,110,20
1,38,110,0
1,42,100,0
1,42,100,0
1,44,100,16
1,36,110,17
1,42,100,0
1,42,100,8
1,44,100,16
1,36,110,15
1,38,110,0
1,42,100,0
1,42,100,0
1,44,100,13
1,36,110,8
1,42,100,0
1,42,100,8
1,44,100,14
1,36,110,19
1,38,110,0
1,42,100,0
1,42,100,0
1,44,100,13
1,36,110,21
1,42,100,0
1,42,100,12
1,44,100,15
1,36,110,14
1,38,110,0
1,42,100,0
1,42,100,0
1,44,100,13
1,36,110,17
1,42,100,0
1,42,100,9
1,44,100,15
1,36,110,21
1,38,110,0
1,42,100,0
1,42,100,0
1,44,100,16
1,36,110,17
1,42,100,0
1,42,100,8
1,44,100,16
1,36,110,15
1,38,110,0
1,42,100,0
1,42,100,0
1,44,100,13
1,36,110,8
1,42,100,0
1,42,100,8
1,44,100,14
1,36,110,19
1,38,110,0
1,42,100,0
1,42,100,0
1,44,100,13
1,36,110,21
1,42,100,0
1,42,100,12
1,44,100,15
1,36,110,14
1,38,110,0
1,42,100,0
1,42,100,0
1,44,100,13
1,36,110,17
1,42,100,0
1,42,100,9
1,44,100,15
1,36,110,21
1,38,110,0
1,42,100,0
1,42,100,0
1,44,100,17
1,36,110,40
1,42,100,0
1,42,100,11
1,44,100,11
1,36,110,14
1,38,110,0
1,42,100,0
1,42,100,0
1,44,100,13
1,36,110,17
1,42,100,0
1,42,100,6
1,44,100,15
1,36,110,9
1,38,110,0
1,42,100,0
1,42,100,0
1,44,100,14
1,36,110,18
1,42,100,0
1,42,100,8
1,44,100,14
1,36,110,22
1,38,110,0
1,42,100,0
1,42,100,0
1,44,100,14
1,36,110,10
1,42,100,0
1,42,100,9
1,44,100,15
1,48,110,0
1,47,110,0
1,36,110,0
1,38,110,0
1,42,100,0
1,45,110,0
1,42,100,0
1,44,100,16
1,43,110,0
1,36,110,17
1,69,100,0
1,49,110,0
1,69,100,0
1,44,95,0
1,69,100,0
1,38,110,0
1,44,95,3
1,36,110,6
1,36,110,0
1,69,100,0
1,69,100,0
1,36,110,0
1,44,95,0
1,69,100,0
1,38,110,48
1,44,95,5
1,36,110,53
1,69,100,0
1,69,100,0
1,44,95,0
1,69,100,0
1,38,110,48
1,44,95,0
1,36,110,6
1,36,110,0
1,69,100,0
1,69,100,0
1,36,110,0
1,44,95,0
1,69,100,0
1,38,110,48
1,44,95,35
1,36,110,61
1,69,100,0
1,69,100,0
1,44,95,0
1,69,100,0
1,38,110,48
1,44,95,3
1,36,110,6
1,36,110,0
1,69,100,0
1,69,100,0
1,36,110,0
1,44,95,0
1,69,100,0
1,38,110,48
1,44,95,5
1,36,110,53
1,69,100,0
1,69,100,0
1,44,95,0
1,69,100,0
1,38,110,48
1,44,95,0
1,36,110,6
1,36,110,0
1,69,100,0
1,69,100,0
1,36,110,0
1,44,95,0
1,69,100,0
1,38,110,48
1,44,95,31
1,36,110,54
1,69,100,0
1,69,100,0
1,44,95,0
1,69,100,0
1,38,110,48
1,44,95,11
1,36,110,11
1,36,110,0
1,69,100,0
1,69,100,0
1,36,110,0
1,44,95,0
1,69,100,0
1,38,110,48
1,44,95,35
1,36,110,61
1,69,100,0
1,69,100,0
1,44,95,0
1,69,100,0
1,38,110,48
1,44,95,39
1,36,110,11
1,36,110,0
1,69,100,0
1,69,100,0
1,36,110,0
1,44,95,0
1,69,100,0
1,38,110,48
1,44,95,26
1,36,110,64
1,69,100,0
1,69,100,0
1,44,95,0
1,69,100,0
1,38,110,48
1,44,95,3
1,36,110,6
1,36,110,0
1,69,100,0
1,69,100,0
1,36,110,0
1,44,95,0
1,69,100,0
1,38,110,48
1,44,95,5
1,36,110,53
1,69,100,0
1,69,100,0
1,44,95,0
1,69,100,0
1,38,110,48
1,44,95,0
1,36,110,6
1,36,110,0
1,69,100,0
1,69,100,0
1,36,110,0
1,44,95,0
1,69,100,0
1,38,110,48
1,44,95,31
1,36,110,54
1,69,100,0
1,69,100,0
1,44,95,0
1,69,100,0
1,38,110,48
1,44,95,11
1,36,110,11
1,36,110,0
1,69,100,0
1,69,100,0
1,36,110,0
1,44,95,0
1,69,100,0
1,38,110,48
1,44,95,35
1,36,110,61
1,69,100,0
1,69,100,0
1,44,95,0
1,69,100,0
1,38,110,48
1,44,95,39
1,36,110,11
1,36,110,0
1,69,100,0
1,69,100,0
1,36,110,0
1,44,95,0
1,69,100,0
1,38,110,48
1,44,95,26
1,36,110,64
1,69,100,0
1,69,100,0
1,44,95,0
1,69,100,0
1,38,110,48
1,44,95,3
1,36,110,6
1,36,110,0
1,69,100,0
1,69,100,0
1,36,110,0
1,44,95,0
1,69,100,0
1,38,110,48
1,48,101,0
1,48,100,0
1,44,95,0
1,47,100,0
1,47,99,0
1,36,110,0
1,69,100,0
1,49,99,0
1,69,100,0
1,44,95,0
1,69,100,0
1,38,110,0
1,44,95,0
1,36,110,6
1,36,110,0
1,69,100,0
1,69,100,0
1,36,110,0
1,44,95,0
1,69,100,0
1,38,110,48
1,44,95,31
1,36,110,54
1,69,100,0
1,69,100,0
1,44,95,0
1,69,100,0
1,38,110,48
1,44,95,11
1,36,110,11
1,36,110,0
1,69,100,0
1,69,100,0
1,36,110,0
1,44,95,0
1,69,100,0
1,38,110,48
1,44,95,35
1,36,110,61
1,69,100,0
1,69,100,0
1,44,95,0
1,69,100,0
1,38,110,48
1,44,95,39
1,36,110,11
1,36,110,0
1,69,100,0
1,69,100,0
1,36,110,0
1,44,95,0
1,69,100,0
1,38,110,48
1,44,95,26
1,36,110,64
1,69,100,0
1,69,100,0
1,44,95,0
1,69,100,0
1,38,110,48
1,44,95,3
1,36,110,6
1,36,110,0
1,69,100,0
1,69,100,0
1,36,110,0
1,44,95,0
1,69,100,0
1,38,110,48
1,44,95,5
1,36,110,53
1,69,100,0
1,69,100,0
1,44,95,0
1,69,100,0
1,38,110,48
1,44,95,0
1,36,110,6
1,36,110,0
1,69,100,0
1,69,100,0
1,36,110,0
1,44,95,0
1,69,100,0
1,38,110,48
1,44,95,31
1,36,110,54
1,69,100,0
1,69,100,0
1,44,95,0
1,69,100,0
1,38,110,48
1,44,95,11
1,36,110,11
1,36,110,0
1,69,100,0
1,69,100,0
1,36,110,0
1,44,95,0
1,69,100,0
1,38,110,48
1,44,95,35
1,36,110,61
1,69,100,0
1,69,100,0
1,44,95,0
1,69,100,0
1,38,110,48
1,44,95,39
1,36,110,11
1,36,110,0
1,69,100,0
1,69,100,0
1,36,110,0
1,44,95,0
1,69,100,0
1,38,110,48
1,44,95,26
1,36,110,64
1,69,100,0
1,69,100,0
1,44,95,0
1,69,100,0
1,38,110,48
1,44,95,3
1,36,110,6
1,36,110,0
1,69,100,0
1,69,100,0
1,36,110,0
1,44,95,0
1,69,100,0
1,38,110,48
1,44,95,5
1,36,110,53
1,69,100,0
1,69,100,0
1,44,95,0
1,69,100,0
1,38,110,48
1,44,95,0
1,36,110,6
1,36,110,0
1,69,100,0
1,69,100,0
1,36,110,0
1,44,95,0
1,69,100,0
1,38,110,48
1,44,95,31
1,36,110,54
1,69,100,0
1,69,100,0
1,44,95,0
1,69,100,0
1,38,110,48
1,44,95,11
1,36,110,11
1,36,110,0
1,69,100,0
1,69,100,0
1,36,110,0
1,44,95,0
1,69,100,0
1,50,101,0
1,50,101,0
