track,note,velocity,time
0,35,108,2236
0,44,68,0
0,49,64,0
0,54,79,2
0,40,101,4
0,40,103,2
0,56,99,0
0,59,99,0
0,64,91,0
0,52,98,2
0,44,68,12
0,40,98,6
0,52,89,4
0,44,67,16
0,40,98,6
0,52,98,4
0,44,67,52
0,35,98,6
0,47,89,4
0,37,98,2
0,49,89,4
0,35,108,30
0,44,71,0
0,49,69,0
0,54,79,2
0,40,101,2
0,40,104,0
0,56,108,0
0,59,108,0
0,64,99,0
0,52,89,2
0,40,98,22
0,52,93,4
0,44,68,182
0,40,100,26
0,52,96,4
0,38,101,182
0,44,68,0
0,38,87,172
0,38,101,16
0,44,72,0
0,35,98,6
0,59,76,4
0,38,87,76
0,43,90,76
0,37,98,2
0,61,80,2
0,35,108,12
0,38,101,0
0,49,67,0
0,54,76,2
0,40,101,2
0,40,99,0
0,56,113,0
0,59,108,0
0,59,62,0
0,64,104,0
0,64,68,0
0,68,62,0
0,59,82,2
0,64,62,0
0,64,98,0
0,68,62,0
0,44,71,170
0,59,81,4
0,64,88,0
0,68,101,0
0,35,108,12
0,38,101,0
0,54,72,2
0,40,98,0
0,59,60,2
0,64,72,0
0,68,60,0
0,59,80,2
0,64,66,0
0,64,89,0
0,68,67,0
0,44,72,170
0,59,89,4
0,64,96,0
0,68,104,0
0,35,108,16
0,38,101,0
0,54,76,2
0,40,98,0
0,59,62,2
0,64,72,0
0,68,60,0
0,59,88,2
0,64,63,0
0,64,98,0
0,68,67,0
0,44,72,170
0,59,94,4
0,64,96,0
0,68,108,0
0,35,108,8
0,38,101,0
0,54,76,2
0,35,98,0
0,56,52,2
0,59,60,0
0,64,68,0
0,59,81,2
0,59,89,0
0,64,72,0
0,68,79,0
0,44,72,160
0,37,98,0
0,56,57,2
0,59,55,0
0,64,72,0
0,59,96,2
0,61,89,0
0,64,99,0
0,68,109,0
0,35,108,0
0,38,101,0
0,49,67,0
0,54,78,0
0,40,101,0
0,40,99,0
0,56,108,0
0,59,108,0
0,59,62,0
0,64,104,0
0,64,68,0
0,68,60,0
0,59,82,2
0,64,62,0
0,64,89,0
0,68,62,0
0,44,72,16
0,40,98,0
0,59,62,2
0,64,64,0
0,68,62,0
0,59,81,2
0,64,88,0
0,64,93,0
0,68,101,0
0,35,108,172
0,38,101,0
0,54,78,2
0,59,80,4
0,64,66,0
0,68,67,0
0,44,71,2
0,40,100,0
0,59,64,2
0,64,76,0
0,68,64,0
0,59,89,2
0,64,96,0
0,64,96,0
0,68,104,0
0,35,108,172
0,38,101,0
0,54,73,2
0,59,88,4
0,64,63,0
0,68,67,0
0,38,87,170
0,44,68,0
0,54,73,2
0,35,98,0
0,59,94,4
0,64,96,0
0,68,108,0
0,35,108,46
0,38,101,0
0,54,78,2
0,37,98,0
0,59,81,4
0,64,72,0
0,68,79,0
0,38,87,74
0,43,90,76
0,46,56,0
0,54,78,2
0,39,98,0
0,59,96,4
0,64,99,0
0,68,109,0
0,56,70,66
0,59,70,0
0,64,70,0
0,35,108,30
0,42,71,0
0,49,64,0
0,76,101,0
0,40,98,0
0,59,82,4
0,64,62,0
0,68,62,0
0,42,36,66
0,76,99,0
0,56,94,2
0,59,96,0
0,64,96,0
0,59,81,2
0,64,88,0
0,68,101,0
0,38,101,46
0,42,72,0
0,54,78,2
0,35,96,0
0,59,80,4
0,64,66,0
0,68,67,0
0,42,53,86
0,76,101,0
0,56,96,2
0,59,101,0
0,64,96,0
0,59,89,2
0,64,96,0
0,68,104,0
0,35,108,48
0,42,72,0
0,40,98,0
0,59,88,4
0,64,63,0
0,68,67,0
0,35,96,172
0,42,65,0
0,56,103,2
0,59,99,0
0,64,92,0
0,59,94,2
0,64,96,0
0,68,108,0
0,38,101,10
0,42,75,0
0,54,73,2
0,73,100,0
0,35,98,0
0,59,81,4
0,64,72,0
0,68,79,0
0,35,96,170
0,42,63,0
0,71,98,0
0,56,103,2
0,59,99,0
0,64,96,0
0,59,96,2
0,64,99,0
0,68,109,0
0,63,70,4
0,35,108,2
0,42,81,0
0,73,103,0
0,44,100,0
0,59,82,4
0,63,62,0
0,68,62,0
0,42,55,50
0,71,98,0
0,56,99,2
0,59,103,0
0,63,96,0
0,59,81,2
0,63,88,0
0,68,101,0
0,38,101,50
0,42,81,0
0,54,79,2
0,39,98,0
0,59,80,4
0,63,66,0
0,68,67,0
0,42,59,30
0,71,98,0
0,56,96,2
0,59,99,0
0,63,99,0
0,59,89,2
0,63,96,0
0,68,104,0
0,35,108,50
0,42,79,0
0,44,100,0
0,59,88,4
0,63,63,0
0,68,67,0
0,35,96,172
0,42,76,0
0,56,96,2
0,59,96,0
0,63,96,0
0,59,94,2
0,63,96,0
0,68,108,0
0,38,101,46
0,42,76,0
0,54,78,2
0,39,98,0
0,59,81,4
0,63,72,0
0,68,79,0
0,42,65,170
0,56,101,2
0,59,101,0
0,63,99,0
0,59,96,2
0,63,99,0
0,68,109,0
0,56,70,4
0,61,70,0
0,64,70,0
0,35,108,30
0,42,79,0
0,73,104,0
0,37,100,0
0,61,82,4
0,64,62,0
0,68,62,0
0,42,45,54
0,73,100,0
0,56,101,2
0,61,99,0
0,64,94,0
0,61,81,2
0,64,88,0
0,68,101,0
0,38,101,52
0,42,79,0
0,54,79,2
0,32,98,0
0,61,80,4
0,64,66,0
0,68,67,0
0,42,56,110
0,73,105,0
0,56,103,2
0,61,103,0
0,64,96,0
0,61,89,2
0,64,96,0
0,68,104,0
0,35,108,64
0,42,76,0
0,37,98,0
0,61,88,4
0,64,63,0
0,68,67,0
0,35,96,172
0,42,76,0
0,71,100,0
0,56,101,2
0,61,103,0
0,64,96,0
0,61,94,2
0,64,96,0
0,68,108,0
0,38,101,60
0,42,76,0
0,54,78,2
0,40,100,0
0,61,81,4
0,64,72,0
0,68,79,0
0,42,59,46
0,68,100,0
0,42,98,0
0,56,103,2
0,61,103,0
0,64,99,0
0,61,96,2
0,64,99,0
0,68,109,0
0,59,70,4
0,63,70,0
0,35,108,14
0,42,79,0
0,71,103,0
0,44,100,0
0,59,82,4
0,63,62,0
0,68,62,0
0,42,45,36
0,68,98,0
0,56,96,2
0,59,101,0
0,63,99,0
0,59,81,2
0,63,88,0
0,68,101,0
0,38,101,50
0,42,81,0
0,54,76,2
0,39,98,0
0,59,80,4
0,63,66,0
0,68,67,0
0,42,56,64
0,68,102,0
0,56,99,2
0,59,101,0
0,63,96,0
0,59,89,2
0,63,96,0
0,68,104,0
0,35,108,50
0,42,81,0
0,44,100,0
0,59,88,4
0,63,63,0
0,68,67,0
0,35,96,172
0,42,75,0
0,56,103,2
0,59,103,0
0,63,99,0
0,59,94,2
0,63,96,0
0,68,108,0
0,38,101,46
0,42,79,0
0,54,79,2
0,39,98,0
0,59,81,4
0,63,72,0
0,68,79,0
0,35,96,170
0,42,67,0
0,71,96,0
0,56,99,2
0,59,99,0
0,63,99,0
0,59,96,2
0,63,99,0
0,68,109,0
0,56,70,4
0,61,70,0
0,64,70,0
0,35,108,30
0,42,79,0
0,73,104,0
0,37,100,0
0,61,82,4
0,64,62,0
0,68,62,0
0,42,56,78
0,73,100,0
0,56,103,2
0,61,103,0
0,64,96,0
0,61,81,2
0,64,88,0
0,68,101,0
0,38,101,52
0,42,79,0
0,54,79,2
0,32,98,0
0,61,80,4
0,64,66,0
0,68,67,0
0,42,60,74
0,73,104,0
0,56,101,2
0,61,101,0
0,64,96,0
0,61,89,2
0,64,96,0
0,68,104,0
0,35,108,64
0,42,76,0
0,37,98,0
0,61,88,4
0,64,63,0
0,68,67,0
0,35,96,172
0,42,76,0
0,56,101,2
0,61,101,0
0,64,94,0
0,61,94,2
0,64,96,0
0,68,108,0
0,38,101,30
0,42,71,0
0,54,79,2
0,71,98,0
0,44,100,0
0,61,81,4
0,64,72,0
0,68,79,0
0,35,96,2
0,42,72,0
0,68,90,0
0,43,98,0
0,56,101,2
0,61,96,0
0,64,94,0
0,61,96,2
0,64,99,0
0,68,109,0
0,57,70,4
0,61,70,0
0,66,70,0
0,35,108,8
0,42,76,0
0,71,96,0
0,42,100,0
0,57,62,4
0,61,62,0
0,66,62,0
0,42,65,172
0,68,91,0
0,57,96,2
0,61,103,0
0,66,101,0
0,57,81,2
0,61,88,0
0,66,101,0
0,38,101,12
0,42,79,0
0,54,78,2
0,66,88,0
0,37,98,0
0,57,80,4
0,61,66,0
0,66,67,0
0,42,65,170
0,57,96,2
0,61,101,0
0,66,99,0
0,57,89,2
0,61,96,0
0,66,104,0
0,35,108,52
0,42,79,0
0,66,89,0
0,42,98,0
0,57,88,4
0,61,63,0
0,66,67,0
0,35,96,172
0,42,71,0
0,57,96,2
0,61,103,0
0,66,96,0
0,57,94,2
0,61,96,0
0,66,108,0
0,38,101,38
0,42,76,0
0,54,79,2
0,37,98,0
0,57,81,4
0,61,72,0
0,66,79,0
0,46,55,170
0,66,98,0
0,57,96,2
0,61,106,0
0,66,96,0
0,57,96,2
0,61,99,0
0,66,109,0
0,59,70,4
0,63,70,0
0,66,70,0
0,35,108,30
0,42,72,0
0,71,102,0
0,35,100,0
0,59,82,4
0,63,62,0
0,66,62,0
0,42,65,54
0,71,102,0
0,59,99,2
0,63,101,0
0,66,99,0
0,59,81,2
0,63,88,0
0,66,101,0
0,38,101,60
0,42,76,0
0,49,72,0
0,54,76,2
0,35,98,0
0,59,80,4
0,63,66,0
0,66,67,0
0,42,62,40
0,73,96,0
0,59,96,2
0,63,101,0
0,66,99,0
0,59,89,2
0,63,96,0
0,66,104,0
0,35,108,60
0,42,72,0
0,33,100,0
0,59,88,4
0,63,63,0
0,66,67,0
0,35,96,172
0,42,71,0
0,75,92,0
0,59,99,2
0,63,101,0
0,66,99,0
0,59,94,2
0,63,96,0
0,66,108,0
0,38,101,54
0,42,76,0
0,49,67,0
0,54,79,2
0,33,98,0
0,59,81,4
0,63,72,0
0,66,79,0
0,42,63,170
0,59,101,2
0,63,99,0
0,66,99,0
0,59,96,2
0,63,99,0
0,66,109,0
0,35,108,56
0,42,76,0
0,32,100,0
0,59,82,4
0,63,62,0
0,66,62,0
0,35,96,172
0,42,76,0
0,59,96,2
0,63,99,0
0,66,96,0
0,59,81,2
0,63,88,0
0,66,101,0
0,38,101,70
0,42,76,0
0,54,79,2
0,32,98,0
0,59,80,4
0,63,66,0
0,66,67,0
0,42,71,170
0,59,99,2
0,63,99,0
0,66,96,0
0,59,89,2
0,63,96,0
0,66,104,0
0,35,108,64
0,38,101,0
0,42,79,0
0,30,100,0
0,59,88,4
0,63,63,0
0,66,67,0
0,38,87,172
0,42,71,0
0,59,94,2
0,63,94,0
0,66,94,0
0,59,94,2
0,63,96,0
0,66,108,0
0,35,108,68
0,38,101,0
0,42,79,0
0,54,79,2
0,35,100,0
0,59,81,4
0,63,72,0
0,66,79,0
0,38,87,74
0,43,90,76
0,46,54,0
0,59,94,2
0,63,99,0
0,66,99,0
0,59,96,2
0,63,99,0
0,66,109,0
0,56,70,4
0,59,70,0
0,64,70,0
0,59,86,24
0,64,88,0
0,68,88,0
0,35,108,6
0,42,75,0
0,49,67,0
0,76,101,0
0,40,98,0
0,59,82,4
0,64,62,0
0,68,62,0
0,42,63,66
0,76,99,0
0,56,94,2
0,59,96,0
0,64,96,0
0,59,81,2
0,64,88,0
0,68,101,0
0,38,101,46
0,42,76,0
0,54,78,2
0,35,96,0
0,59,80,4
0,64,66,0
0,68,67,0
0,42,69,64
0,76,101,0
0,56,96,2
0,59,101,0
0,64,96,0
0,59,89,2
0,64,96,0
0,68,104,0
0,35,108,48
0,42,79,0
0,40,98,0
0,59,88,4
0,64,63,0
0,68,67,0
0,35,96,18
0,42,75,0
0,73,100,0
0,56,103,2
0,59,99,0
0,64,92,0
0,59,94,2
0,64,96,0
0,68,108,0
0,38,101,50
0,42,79,0
0,54,79,2
0,35,98,0
0,59,81,4
0,64,72,0
0,68,79,0
0,42,72,92
0,71,98,0
0,56,103,2
0,59,99,0
0,64,96,0
0,59,96,2
0,64,99,0
0,68,109,0
0,63,70,4
0,59,86,24
0,63,84,0
0,68,86,0
0,35,108,2
0,42,81,0
0,73,103,0
0,44,100,0
0,59,82,4
0,63,62,0
0,68,62,0
0,42,62,50
0,71,98,0
0,56,99,2
0,59,103,0
0,63,96,0
0,59,81,2
0,63,88,0
0,68,101,0
0,38,101,50
0,42,81,0
0,54,79,2
0,39,98,0
0,59,80,4
0,63,66,0
0,68,67,0
0,42,62,30
0,71,98,0
0,56,96,2
0,59,99,0
0,63,99,0
0,59,89,2
0,63,96,0
0,68,104,0
0,35,108,50
0,42,72,0
0,44,100,0
0,59,88,4
0,63,63,0
0,68,67,0
0,35,96,172
0,42,75,0
0,56,96,2
0,59,96,0
0,63,96,0
0,59,94,2
0,63,96,0
0,68,108,0
0,38,101,46
0,42,81,0
0,54,76,2
0,39,98,0
0,59,81,4
0,63,72,0
0,68,79,0
0,42,72,152
0,56,101,2
0,59,101,0
0,63,99,0
0,59,96,2
0,63,99,0
0,68,109,0
0,56,70,4
0,61,70,0
0,64,70,0
0,61,83,24
0,64,86,0
0,68,82,0
0,35,108,6
0,42,81,0
0,73,104,0
0,37,100,0
0,61,82,4
0,64,62,0
0,68,62,0
0,42,63,54
0,73,100,0
0,56,101,2
0,61,99,0
0,64,94,0
0,61,81,2
0,64,88,0
0,68,101,0
0,38,101,52
0,42,79,0
0,54,78,2
0,32,98,0
0,61,80,4
0,64,66,0
0,68,67,0
0,42,67,110
0,73,105,0
0,56,103,2
0,61,103,0
0,64,96,0
0,61,89,2
0,64,96,0
0,68,104,0
0,35,108,64
0,42,79,0
0,37,98,0
0,61,88,4
0,64,63,0
0,68,67,0
0,35,96,172
0,42,75,0
0,71,100,0
0,56,101,2
0,61,103,0
0,64,96,0
0,61,94,2
0,64,96,0
0,68,108,0
0,38,101,60
0,42,76,0
0,54,78,2
0,40,100,0
0,61,81,4
0,64,72,0
0,68,79,0
0,35,96,46
0,42,72,0
0,68,100,0
0,42,98,0
0,56,103,2
0,61,103,0
0,64,99,0
0,61,96,2
0,64,99,0
0,68,109,0
0,59,70,4
0,63,70,0
0,59,86,8
0,63,86,0
0,68,84,0
0,35,108,6
0,42,79,0
0,71,103,0
0,44,100,0
0,59,82,4
0,63,62,0
0,68,62,0
0,42,65,36
0,68,98,0
0,56,96,2
0,59,101,0
0,63,99,0
0,59,81,2
0,63,88,0
0,68,101,0
0,38,101,50
0,42,79,0
0,54,73,2
0,39,98,0
0,59,80,4
0,63,66,0
0,68,67,0
0,42,62,64
0,68,102,0
0,56,99,2
0,59,101,0
0,63,96,0
0,59,89,2
0,63,96,0
0,68,104,0
0,35,108,50
0,42,81,0
0,44,100,0
0,59,88,4
0,63,63,0
0,68,67,0
0,35,96,172
0,42,72,0
0,56,103,2
0,59,103,0
0,63,99,0
0,59,94,2
0,63,96,0
0,68,108,0
0,38,101,46
0,42,76,0
0,54,78,2
0,39,98,0
0,59,81,4
0,63,72,0
0,68,79,0
0,46,56,170
0,71,96,0
0,56,99,2
0,59,99,0
0,63,99,0
0,59,96,2
0,63,99,0
0,68,109,0
0,56,70,4
0,61,70,0
0,64,70,0
0,61,76,24
0,64,84,0
0,68,80,0
0,35,108,6
0,42,76,0
0,73,104,0
0,37,100,0
0,61,82,4
0,64,62,0
0,68,62,0
0,42,67,78
0,73,100,0
0,56,103,2
0,61,103,0
0,64,96,0
0,61,81,2
0,64,88,0
0,68,101,0
0,38,101,52
0,42,76,0
0,54,76,2
0,32,98,0
0,61,80,4
0,64,66,0
0,68,67,0
0,42,65,74
0,73,104,0
0,56,101,2
0,61,101,0
0,64,96,0
0,61,89,2
0,64,96,0
0,68,104,0
0,35,108,64
0,42,79,0
0,37,98,0
0,61,88,4
0,64,63,0
0,68,67,0
0,35,96,172
0,42,75,0
0,56,101,2
0,61,101,0
0,64,94,0
0,61,94,2
0,64,96,0
0,68,108,0
0,38,101,30
0,42,75,0
