track,note,velocity,time
1,67,53,0
1,71,49,0
1,62,49,1
1,71,0,239
1,67,0,0
1,62,46,0
1,67,49,0
1,71,46,0
1,62,0,1
1,62,0,119
1,67,0,0
1,66,49,0
1,66,0,120
1,71,0,0
1,65,53,0
1,71,49,0
1,71,0,240
1,65,0,0
1,64,49,0
1,71,46,0
1,64,0,120
1,63,53,0
1,63,0,120
1,71,0,0
1,62,57,0
1,66,51,0
1,72,51,0
1,72,0,240
1,66,0,0
1,62,0,0
1,66,51,0
1,72,48,0
1,66,0,120
1,62,51,0
1,62,0,120
1,72,0,0
1,62,53,0
1,67,59,0
1,71,53,0
1,71,0,240
1,67,0,0
1,62,0,0
1,62,49,0
1,67,53,0
1,71,49,0
1,67,0,120
1,62,0,0
1,66,53,0
1,66,0,120
1,71,0,0
1,65,58,0
1,71,52,0
1,71,0,240
1,65,0,0
1,64,49,0
1,71,46,0
1,64,0,120
1,63,50,0
1,63,0,120
1,71,0,0
1,62,57,0
1,66,51,0
1,72,51,0
1,72,0,240
1,66,0,0
1,62,0,0
1,66,50,0
1,72,47,0
1,66,0,120
1,62,50,0
1,62,0,120
1,72,0,0
1,67,44,0
1,71,44,0
1,74,51,0
1,79,68,0
1,79,0,960
1,67,0,0
1,71,0,0
1,74,0,0
1,66,40,0
1,72,49,0
1,78,59,0
1,78,0,360
1,72,0,0
1,66,0,0
1,74,57,0
1,74,0,120
1,76,61,0
1,67,51,0
1,71,51,0
1,76,0,240
1,76,53,0
1,76,0,80
1,78,53,0
1,78,0,80
1,76,53,0
1,76,0,80
1,74,58,0
1,74,0,480
1,71,0,0
1,67,0,0
1,60,35,0
1,72,51,0
1,62,35,0
1,66,35,0
1,69,35,0
1,69,0,360
1,62,0,0
1,60,0,0
1,72,0,0
1,66,0,0
1,69,48,0
1,69,0,120
1,71,57,0
1,62,39,0
1,67,39,0
1,71,0,120
1,72,50,0
1,72,0,120
1,74,53,0
1,74,0,240
1,74,53,0
1,67,0,240
1,62,0,0
1,59,38,0
1,59,0,120
1,62,34,0
1,62,0,120
1,74,0,0
1,60,38,0
1,60,0,120
1,62,34,0
1,62,0,120
1,60,38,0
1,60,0,120
1,62,34,0
1,62,0,120
1,59,42,0
1,59,0,240
1,59,38,0
1,62,38,0
1,62,0,120
1,64,35,0
1,64,0,120
1,62,40,0
1,62,0,120
1,64,36,0
1,64,0,120
1,67,42,0
1,67,0,120
1,64,39,0
1,64,0,120
1,59,0,0
1,60,40,0
1,66,46,0
1,66,0,240
1,64,42,0
1,64,0,120
1,62,42,0
1,62,0,120
1,60,0,0
1,67,48,0
1,71,48,0
1,74,57,0
1,79,73,0
1,79,0,960
1,67,0,0
1,71,0,0
1,74,0,0
1,66,40,0
1,72,53,0
1,78,60,0
1,78,0,360
1,72,0,0
1,66,0,0
1,74,59,0
1,74,0,120
1,76,61,0
1,67,51,0
1,71,51,0
1,76,0,240
1,76,53,0
1,76,0,80
1,78,53,0
1,78,0,80
1,76,53,0
1,76,0,80
1,74,58,0
1,74,0,480
1,71,0,0
1,67,0,0
1,60,35,0
1,72,51,0
1,62,35,0
1,66,35,0
1,69,35,0
1,69,0,360
1,62,0,0
1,60,0,0
1,72,0,0
1,66,0,0
1,69,48,0
1,69,0,120
1,71,57,0
1,62,39,0
1,67,39,0
1,71,0,120
1,72,50,0
1,72,0,120
1,74,53,0
1,74,0,240
1,74,53,0
1,67,0,240
1,62,0,0
1,59,38,0
1,59,0,120
1,62,34,0
1,62,0,120
1,74,0,0
1,60,38,0
1,60,0,120
1,62,34,0
1,62,0,120
1,60,38,0
1,60,0,120
1,62,34,0
1,62,0,120
1,59,42,0
1,59,0,240
1,59,38,0
1,62,38,0
1,62,0,120
1,64,35,0
1,64,0,120
1,62,40,0
1,62,0,120
1,64,36,0
1,64,0,120
1,67,42,0
1,67,0,120
1,64,39,0
1,64,0,120
1,59,0,0
1,60,38,0
1,66,46,0
1,66,0,240
1,64,42,0
1,64,0,120
1,62,42,0
1,62,0,120
1,60,0,0
1,67,49,0
1,74,59,0
1,79,70,0
1,79,0,960
1,74,0,0
1,67,0,0
1,65,42,0
1,69,50,0
1,77,62,0
1,77,0,360
1,69,0,0
1,65,0,0
1,72,60,0
1,72,0,120
1,74,64,0
1,65,53,0
1,70,53,0
1,74,0,240
1,74,59,0
1,74,0,120
1,75,59,0
1,75,0,120
1,77,64,0
1,77,0,480
1,70,0,0
1,65,0,0
1,75,59,0
1,65,36,0
1,69,36,0
1,69,0,360
1,65,0,0
1,75,0,0
1,72,49,0
1,72,0,120
1,74,64,0
1,70,41,0
1,65,38,0
1,74,0,120
1,75,57,0
1,75,0,120
1,74,60,0
1,74,0,120
1,75,55,0
1,75,0,120
1,77,62,0
1,77,0,120
1,79,56,0
1,79,0,120
1,81,61,0
1,81,0,120
1,79,53,0
1,79,0,120
1,65,0,0
1,70,0,0
1,69,39,0
1,77,61,0
1,77,0,120
1,75,61,0
1,75,0,120
1,74,67,0
1,74,0,120
1,72,61,0
1,72,0,120
1,69,0,0
1,74,69,0
1,70,45,0
1,65,45,0
1,74,0,120
1,75,59,0
1,75,0,120
1,74,64,0
1,74,0,120
1,75,55,0
1,75,0,120
1,77,62,0
1,77,0,120
1,79,56,0
1,79,0,120
1,81,61,0
1,81,0,120
1,79,53,0
1,79,0,120
1,65,0,0
1,70,0,0
1,69,55,0
1,77,59,0
1,77,0,120
1,75,59,0
1,75,0,120
1,74,57,0
1,74,0,120
1,72,56,0
1,72,0,120
1,69,0,0
1,65,44,0
1,70,52,0
1,74,67,0
1,74,0,960
1,70,0,0
1,65,0,0
1,72,50,0
1,62,42,0
1,66,42,0
1,74,56,0
1,74,0,240
1,72,0,0
1,74,51,0
1,74,0,120
1,72,51,0
1,72,0,120
1,66,0,0
1,62,0,0
1,62,44,0
1,67,52,0
1,71,61,0
1,71,0,720
1,72,51,0
1,72,0,120
1,74,51,0
1,74,0,120
1,67,0,0
1,62,0,0
1,67,42,0
1,72,42,0
1,75,56,0
1,75,0,240
1,77,51,0
1,77,0,120
1,75,51,0
1,75,0,120
1,72,0,0
1,67,0,0
1,67,52,0
1,74,67,0
1,74,0,240
1,71,51,0
1,71,0,120
1,72,51,0
1,72,0,120
1,67,0,0
1,71,47,0
1,67,44,0
1,74,60,0
1,74,0,240
1,71,0,0
1,71,49,0
1,71,0,120
1,72,49,0
1,72,0,120
1,67,0,0
1,62,40,0
1,66,40,0
1,71,53,0
1,71,0,240
1,69,49,0
1,69,0,120
1,71,49,0
1,71,0,120
1,66,0,0
1,62,0,0
1,62,49,0
1,67,53,0
1,67,0,240
1,62,0,0
1,62,46,0
1,67,49,0
1,71,46,0
1,67,0,120
1,62,0,0
1,66,49,0
1,66,0,120
1,71,0,0
1,65,53,0
1,71,49,0
1,71,0,240
1,65,0,0
1,64,49,0
1,71,46,0
1,64,0,120
1,63,53,0
1,63,0,120
1,71,0,0
1,62,57,0
1,66,51,0
1,72,51,0
1,72,0,240
1,66,0,0
1,62,0,0
1,66,51,0
1,72,48,0
1,66,0,120
1,62,51,0
1,62,0,120
1,72,0,0
1,62,53,0
1,67,59,0
1,71,53,0
1,71,0,240
1,67,0,0
1,62,0,0
1,62,49,0
1,67,53,0
1,71,49,0
1,67,0,120
1,62,0,0
1,66,53,0
1,66,0,120
1,71,0,0
1,65,58,0
1,71,52,0
1,71,0,240
1,65,0,0
1,64,49,0
1,71,46,0
1,64,0,120
1,63,50,0
1,63,0,120
1,71,0,0
1,62,57,0
1,66,51,0
1,72,51,0
1,72,0,240
1,66,0,0
1,62,0,0
1,66,50,0
1,72,47,0
1,66,0,120
1,62,50,0
1,62,0,120
1,72,0,0
1,62,53,0
1,67,59,0
1,71,53,0
1,71,0,240
1,67,0,0
1,62,0,0
1,62,49,0
1,67,53,0
1,71,49,0
1,67,0,120
1,62,0,0
1,66,53,0
1,66,0,120
1,71,0,0
1,62,52,0
1,67,52,0
1,71,58,0
1,71,0,240
1,67,0,0
1,62,0,0
1,71,49,0
1,67,46,0
1,74,46,0
1,67,0,120
1,71,0,0
1,70,50,0
1,70,0,120
1,74,0,0
1,67,51,0
1,71,51,0
1,74,57,0
1,74,0,240
1,71,0,0
1,67,0,0
1,71,47,0
1,74,50,0
1,79,47,0
1,74,0,120
1,71,0,0
1,73,50,0
1,73,0,120
1,79,0,0
1,74,53,0
1,79,59,0
1,83,53,0
1,83,0,240
1,79,0,0
1,74,0,0
1,74,49,0
1,79,53,0
1,83,49,0
1,79,0,120
1,74,0,0
1,78,53,0
1,78,0,120
1,83,0,0
1,74,52,0
1,79,52,0
1,83,58,0
1,83,0,240
1,79,0,0
1,74,0,0
1,83,49,0
1,79,46,0
1,86,46,0
1,79,0,120
1,83,0,0
1,82,50,0
1,82,0,120
1,86,0,0
1,79,50,0
1,83,50,0
1,86,50,0
1,86,0,240
1,83,0,0
1,79,0,0
1,83,46,0
1,86,49,0
1,91,46,0
1,86,0,120
1,83,0,0
1,85,49,0
1,85,0,120
1,91,0,0
1,83,50,0
1,86,56,0
1,91,50,0
1,91,0,240
1,86,0,0
1,83,0,0
1,83,45,0
1,86,49,0
1,91,45,0
1,86,0,120
1,83,0,0
1,82,48,0
1,82,0,120
1,91,0,0
1,83,48,0
1,86,51,0
1,91,48,0
1,91,0,240
1,86,0,0
1,83,0,0
1,83,42,0
1,86,47,0
1,91,42,0
1,86,0,120
1,83,0,0
1,82,46,0
1,82,0,120
1,91,0,0
1,83,46,0
1,86,49,0
1,91,46,0
1,91,0,240
1,86,0,0
1,83,0,0
1,83,39,0
1,86,44,0
1,91,39,0
1,86,0,120
1,83,0,0
1,82,44,0
1,82,0,120
1,91,0,0
1,83,44,0
1,86,48,0
1,91,44,0
1,91,0,240
1,86,0,0
1,83,0,0
1,83,38,0
1,86,40,0
1,91,38,0
1,86,0,120
1,83,0,0
1,82,40,0
1,82,0,120
1,91,0,0
1,83,40,0
1,86,45,0
1,91,40,0
1,91,0,240
1,86,0,0
1,83,0,0
1,83,36,0
1,86,39,0
1,91,36,0
1,86,0,120
1,83,0,0
1,82,38,0
1,82,0,120
1,91,0,0
1,83,39,0
1,86,42,0
1,91,39,0
1,91,0,240
1,86,0,0
1,83,0,0
1,83,34,0
1,86,37,0
1,91,34,0
1,86,0,120
1,83,0,0
1,82,36,0
1,82,0,120
1,91,0,0
1,83,33,0
1,86,33,0
1,91,33,0
1,91,0,480
1,86,0,0
1,83,0,0
1,75,61,2400
1,79,61,0
1,82,72,0
1,87,92,0
1,87,0,960
1,75,0,0
1,79,0,0
1,82,0,0
1,74,52,0
1,80,62,0
1,86,80,0
1,86,0,360
1,80,0,0
1,74,0,0
1,82,68,0
1,82,0,120
1,84,67,0
1,75,60,0
1,79,60,0
1,84,0,240
1,84,59,0
1,84,0,80
1,86,59,0
1,86,0,80
1,84,59,0
1,84,0,80
1,82,66,0
1,82,0,480
1,79,0,0
1,75,0,0
1,80,64,0
1,70,48,0
1,74,48,0
1,74,0,360
1,70,0,0
1,80,0,0
1,77,57,0
1,77,0,120
1,79,68,0
1,70,51,0
1,75,51,0
1,79,0,120
1,80,60,0
1,80,0,120
1,82,65,0
1,82,0,240
1,82,65,0
1,75,0,240
1,70,0,0
1,55,42,0
1,55,0,120
1,58,38,0
1,58,0,120
1,82,0,0
1,56,42,0
1,56,0,120
1,58,38,0
1,58,0,120
1,56,42,0
1,56,0,120
1,58,38,0
1,58,0,120
1,55,48,0
1,55,0,240
1,55,42,0
1,58,42,0
1,58,0,120
1,60,39,0
1,60,0,120
1,58,46,0
1,58,0,120
1,60,40,0
1,60,0,120
1,63,48,0
1,63,0,120
1,60,44,0
1,60,0,120
1,55,0,0
1,56,46,0
1,62,51,0
1,62,0,240
1,60,48,0
1,60,0,120
1,58,48,0
1,58,0,120
1,56,0,0
1,75,61,0
1,79,61,0
1,82,72,0
1,87,89,0
1,87,0,960
1,75,0,0
1,79,0,0
1,82,0,0
1,74,52,0
1,80,62,0
1,86,80,0
1,86,0,360
1,80,0,0
1,74,0,0
1,82,68,0
1,82,0,120
1,84,71,0
1,75,60,0
1,79,57,0
1,84,0,240
1,84,57,0
1,84,0,80
1,86,57,0
1,86,0,80
1,84,57,0
1,84,0,80
1,82,65,0
1,82,0,480
1,79,0,0
1,75,0,0
1,67,41,0
1,81,61,0
1,69,41,0
1,73,41,0
1,73,0,360
1,67,0,0
1,81,0,0
1,69,0,0
1,79,52,0
1,79,0,120
1,78,62,0
1,69,44,0
1,74,44,0
1,78,0,120
1,79,55,0
1,79,0,120
1,81,58,0
1,81,0,240
1,81,58,0
1,74,0,240
1,69,0,0
1,54,38,0
1,54,0,120
1,57,34,0
1,57,0,120
1,81,0,0
1,55,38,0
1,55,0,120
1,57,34,0
1,57,0,120
1,55,38,0
1,55,0,120
1,57,35,0
1,57,0,120
1,54,44,0
1,54,0,240
1,54,39,0
1,57,39,0
1,57,0,120
1,59,37,0
1,59,0,120
1,57,42,0
1,57,0,120
1,59,38,0
1,59,0,120
1,57,46,0
1,57,0,120
1,59,41,0
1,59,0,120
1,54,0,0
1,55,44,0
1,61,49,0
1,61,0,240
1,59,47,0
1,59,0,120
1,57,47,0
1,57,0,120
1,55,0,0
1,74,61,0
1,78,61,0
1,81,72,0
1,86,89,0
1,86,0,960
1,74,0,0
1,78,0,0
1,81,0,0
1,73,52,0
1,79,62,0
1,85,75,0
1,85,0,360
1,79,0,0
1,73,0,0
1,81,67,0
1,81,0,120
1,83,75,0
1,74,60,0
1,78,60,0
1,83,0,240
1,83,59,0
1,83,0,80
1,85,59,0
1,85,0,80
1,83,59,0
1,83,0,80
1,81,67,0
1,81,0,480
1,78,0,0
1,74,0,0
1,67,48,0
1,79,68,0
1,69,48,0
1,73,48,0
1,73,0,360
1,67,0,0
1,79,0,0
1,69,0,0
1,76,60,0
1,76,0,120
1,78,68,0
1,69,51,0
1,74,51,0
1,78,0,120
1,79,60,0
1,79,0,120
1,81,65,0
1,81,0,240
1,81,65,0
1,74,0,240
1,69,0,0
1,54,42,0
1,54,0,120
1,57,38,0
1,57,0,120
1,81,0,0
1,55,42,0
1,55,0,120
1,57,38,0
1,57,0,120
1,55,42,0
1,55,0,120
1,57,38,0
1,57,0,120
1,54,48,0
1,54,0,240
1,54,42,0
1,57,42,0
1,57,0,120
1,59,39,0
1,59,0,120
1,57,46,0
1,57,0,120
1,59,40,0
1,59,0,120
1,62,48,0
1,62,0,120
1,59,44,0
1,59,0,120
1,54,0,0
1,55,46,0
1,61,51,0
1,61,0,240
1,59,48,0
1,59,0,120
1,57,48,0
1,57,0,120
1,55,0,0
1,74,60,0
1,78,60,0
1,81,72,0
1,86,94,0
1,86,0,960
1,74,0,0
1,78,0,0
1,81,0,0
1,73,57,0
1,79,69,0
1,85,82,0
1,85,0,360
1,79,0,0
1,73,0,0
1,69,68,0
1,81,68,0
1,81,0,120
1,69,0,0
1,71,63,0
1,83,82,0
1,74,63,0
1,78,63,0
1,78,0,720
1,71,0,0
1,83,0,0
1,74,0,0
1,74,82,0
1,86,91,0
1,86,0,240
1,74,0,0
1,85,79,0
1,73,52,0
1,79,57,0
1,79,0,360
1,73,0,0
1,85,0,0
1,69,64,0
1,81,71,0
1,81,0,120
1,69,0,0
1,71,67,0
1,83,88,0
1,74,66,0
1,78,66,0
1,78,0,720
1,71,0,0
1,83,0,0
1,74,0,0
1,74,79,0
1,86,86,0
1,86,0,240
1,74,0,0
1,84,72,0
1,72,48,0
1,79,48,0
1,79,0,360
1,72,0,0
1,84,0,0
1,69,56,0
1,81,60,0
1,81,0,120
1,69,0,0
1,72,45,0
1,72,0,90
1,74,47,30
1,74,0,90
1,75,49,30
1,75,0,90
1,77,51,30
1,77,0,90
1,75,53,30
1,75,0,90
1,77,51,30
1,77,0,90
1,75,51,30
1,75,0,90
1,74,51,30
1,74,0,90
1,72,53,30
1,72,0,90
1,74,49,30
1,74,0,90
