track,note,velocity,time
1,57,127,7680
1,62,127,12
1,57,127,104
1,62,127,8
1,65,127,12
1,65,127,96
1,64,127,4
1,62,127,180
1,57,127,92
1,61,127,96
1,57,124,12
1,61,118,4
1,64,113,12
1,61,127,160
1,64,120,100
1,61,127,100
1,64,125,84
1,67,127,4
1,67,127,72
1,65,127,104
1,64,125,164
1,62,127,176
1,65,127,112
1,62,123,80
1,65,127,12
1,69,127,4
1,62,127,244
1,66,127,0
1,62,127,4
1,66,127,12
1,69,127,4
1,72,127,552
1,70,127,188
1,69,127,4
1,67,127,36
1,62,115,4
1,67,127,96
1,69,127,84
1,70,127,100
1,70,127,36
1,69,127,16
1,67,127,188
1,62,127,76
1,65,127,4
1,62,127,0
1,65,127,92
1,70,127,92
1,69,127,4
1,61,127,180
1,64,125,4
1,61,127,100
1,64,127,96
1,70,127,0
1,69,127,0
1,78,127,444
1,78,127,0
1,78,127,192
1,78,127,88
1,78,127,92
1,78,127,84
1,78,127,84
1,76,127,28
1,74,127,0
1,73,127,196
1,76,127,4
1,76,127,120
1,76,127,92
1,76,127,100
1,76,127,92
1,74,127,40
1,73,127,12
1,71,127,4
1,74,127,8
1,74,127,108
1,74,127,96
1,76,127,12
1,74,127,32
1,73,127,12
1,71,127,4
1,69,127,72
1,69,127,176
1,66,127,4
1,67,127,56
1,76,127,116
1,69,127,120
1,67,127,8
1,66,127,24
1,74,127,104
1,73,127,116
1,74,127,4
1,71,127,4
1,74,127,4
1,73,127,124
1,71,127,4
1,73,127,84
1,71,105,4
1,69,119,4
1,78,127,376
1,78,127,84
1,78,127,100
1,78,127,92
1,78,127,100
1,78,127,108
1,76,127,24
1,74,127,4
1,73,127,184
1,76,127,188
1,76,127,104
1,76,127,116
1,76,127,104
1,76,127,96
1,74,127,24
1,73,127,4
1,71,127,0
1,74,127,192
1,74,127,104
1,74,127,96
1,76,127,64
1,74,127,188
1,73,127,8
1,71,127,0
1,69,127,4
1,69,127,304
1,66,127,4
1,67,127,16
1,76,127,108
1,69,127,180
1,67,127,200
1,66,127,0
1,66,127,0
1,74,127,104
1,73,127,148
1,74,127,196
1,71,127,4
1,74,127,20
1,76,127,252
1,73,127,304
1,74,127,16
1,57,127,712
1,62,127,0
1,57,125,0
1,62,127,96
1,65,124,12
1,65,127,128
1,64,126,108
1,62,122,4
1,57,127,4
1,61,127,88
1,57,127,0
1,61,127,88
1,64,121,16
1,61,127,344
1,64,125,12
1,61,127,4
1,64,127,8
1,67,127,16
1,67,127,52
1,65,127,12
1,67,105,8
1,64,127,8
1,62,127,32
1,65,127,0
1,62,126,16
1,65,120,4
1,69,120,20
1,62,127,168
1,66,127,4
1,62,127,4
1,66,127,8
1,69,127,20
1,72,127,4
1,70,127,192
1,69,127,16
1,67,127,8
1,62,100,12
1,67,122,12
1,69,127,0
1,70,127,4
1,70,127,68
1,69,127,16
1,67,127,4
1,62,125,20
1,65,123,4
1,62,122,8
1,65,127,100
1,70,127,16
1,69,125,12
1,61,127,16
1,64,127,16
1,61,127,0
1,64,126,96
1,70,127,4
1,69,122,12
1,69,125,40
1,78,127,712
1,78,127,92
1,78,127,96
1,78,127,96
1,78,127,92
1,78,127,84
1,76,127,32
1,74,127,184
1,73,127,196
1,76,127,184
1,76,127,112
1,76,127,88
1,76,127,68
1,76,127,60
1,74,127,12
1,73,127,4
1,71,127,176
1,74,127,4
1,74,127,96
1,74,127,116
1,76,127,184
1,74,127,192
1,73,127,4
1,71,125,200
1,69,127,4
1,69,127,140
1,66,127,8
1,67,127,8
1,76,127,112
1,69,127,88
1,67,127,48
1,66,127,48
1,74,127,112
1,73,127,152
1,74,127,12
1,71,127,4
1,74,127,192
1,73,127,84
1,71,127,12
1,73,127,180
1,71,125,16
1,69,127,4
1,78,127,432
1,78,127,136
1,78,127,108
1,78,126,72
1,78,127,92
1,78,127,84
1,76,127,40
1,74,127,4
1,73,127,188
1,76,127,196
1,76,127,108
1,76,127,100
1,76,127,108
1,76,127,96
1,74,127,28
1,73,127,188
1,71,127,4
1,74,127,0
1,74,127,104
1,74,127,108
1,76,127,184
1,74,127,180
1,73,127,4
1,71,116,4
1,69,127,4
1,69,127,112
1,66,127,80
1,67,127,16
1,76,127,124
1,69,127,96
1,67,127,4
1,66,127,192
1,74,127,48
1,73,127,124
1,74,127,12
1,71,127,0
1,74,127,4
1,76,127,80
1,73,127,300
1,74,127,28
1,80,127,744
1,80,127,124
1,80,127,76
1,80,127,68
1,80,127,80
1,80,127,72
1,78,127,28
1,76,127,4
1,75,127,8
1,78,127,180
1,78,127,84
1,78,127,80
1,78,127,84
1,78,127,84
1,76,127,8
1,75,127,188
1,73,127,4
1,76,125,192
1,76,125,72
1,76,125,80
1,78,127,192
1,76,126,4
1,75,127,4
1,73,127,4
1,71,127,52
1,71,127,160
1,68,127,196
1,69,127,8
1,78,127,36
1,71,127,16
1,69,127,56
1,68,127,44
1,76,127,92
1,75,127,4
1,76,125,196
1,73,127,8
1,76,127,192
1,75,127,56
1,73,127,12
1,75,127,52
1,73,127,16
1,71,121,16
1,80,127,332
1,80,127,128
1,80,127,104
1,80,127,100
1,80,127,100
1,80,127,104
1,78,127,16
1,76,125,4
1,75,127,4
1,78,127,4
1,78,127,104
1,78,127,92
1,78,127,84
1,78,127,120
1,76,127,12
1,75,127,192
1,73,127,4
1,76,125,188
1,76,126,92
1,76,127,112
1,78,127,184
1,76,126,4
1,75,127,184
1,73,127,180
1,71,127,12
1,71,127,136
1,68,127,60
1,69,127,28
1,78,127,112
1,71,127,12
1,69,127,192
1,68,127,4
1,76,127,8
1,75,127,184
1,76,127,8
1,73,127,16
1,76,127,188
1,75,127,164
1,73,127,12
1,75,127,4
1,73,127,12
1,71,127,8
1,80,127,392
1,80,127,96
1,80,127,116
1,80,127,104
1,80,127,96
1,80,127,104
1,78,127,24
1,76,127,16
1,75,127,92
1,78,127,196
1,78,127,100
1,78,127,100
1,78,127,112
1,78,127,100
1,76,127,12
1,75,127,184
1,73,125,4
1,76,118,192
1,76,119,96
1,76,121,108
1,78,127,0
1,76,127,12
1,75,127,12
1,73,127,12
1,71,127,96
1,71,127,116
1,68,127,24
1,69,127,4
1,78,127,28
1,71,127,52
1,69,127,64
1,68,127,36
1,76,125,88
1,75,127,132
1,76,124,12
1,73,127,12
1,76,124,192
1,75,127,64
1,73,127,12
1,75,127,60
1,73,115,12
1,71,119,8
1,80,127,336
1,80,127,124
1,80,127,96
1,80,127,100
1,80,127,100
1,80,127,104
1,78,127,24
1,76,127,12
1,75,127,92
1,78,127,4
1,78,127,96
1,78,127,92
1,78,127,96
1,78,127,92
1,76,126,24
1,75,127,188
1,73,127,4
1,76,123,196
1,76,124,100
1,76,125,108
1,78,127,188
1,76,126,12
1,75,127,8
1,73,127,20
1,71,127,36
1,71,127,164
1,68,127,80
1,69,127,8
1,78,127,96
1,71,127,44
1,69,127,184
1,68,127,100
1,76,127,24
1,75,127,140
1,76,125,0
1,73,127,12
1,76,127,188
1,78,127,140
1,75,127,292
1,76,127,8
2,38,127,1532
2,33,127,120
2,38,127,12
2,33,127,188
2,38,127,196
2,33,127,148
2,38,127,8
2,33,127,184
2,38,127,12
2,38,127,156
2,33,127,8
2,40,127,176
2,33,127,196
2,33,127,152
2,38,127,20
2,52,127,68
2,53,127,96
2,50,127,84
2,45,127,68
2,41,127,80
2,38,127,24
2,38,127,84
2,43,127,0
2,43,127,68
2,38,127,8
2,38,127,68
2,33,127,20
2,33,127,92
2,33,127,96
2,33,127,212
2,33,127,220
2,33,127,236
2,38,127,8
2,33,127,128
2,38,127,128
2,33,127,100
2,33,127,136
2,40,127,116
2,33,127,92
2,40,127,108
2,31,127,92
2,38,127,112
2,31,127,96
2,38,127,112
2,38,127,108
2,33,127,108
2,38,127,112
2,33,127,92
2,33,127,128
2,40,127,136
2,33,127,92
2,40,127,96
2,38,127,80
2,33,127,116
2,38,127,112
2,33,127,100
2,40,127,100
2,35,127,104
2,40,127,112
2,35,127,116
2,33,127,140
2,33,127,128
2,33,127,132
2,35,127,32
2,37,127,44
2,38,127,64
2,33,127,124
2,38,127,116
2,33,127,100
2,33,127,124
2,40,127,132
2,33,127,144
2,40,127,120
2,31,127,384
2,38,127,108
2,31,127,112
2,38,127,108
2,38,127,108
2,33,127,148
2,38,127,132
2,33,127,124
2,33,127,128
2,40,127,132
2,33,127,104
2,40,127,96
2,38,127,104
2,33,127,120
2,38,127,116
2,33,127,112
2,40,127,120
2,35,127,120
2,40,127,120
2,33,127,124
2,38,127,92
2,38,127,352
2,33,127,8
2,33,127,28
2,36,127,12
2,38,127,68
2,38,127,124
2,33,127,16
2,40,127,228
2,33,127,4
2,33,127,156
2,38,127,12
2,52,127,60
2,53,127,0
2,50,127,96
2,45,124,4
2,41,127,96
2,38,127,20
2,38,123,124
2,31,127,0
2,31,127,128
2,38,127,12
2,33,127,24
2,33,127,116
2,33,127,152
2,33,127,224
2,33,127,248
2,38,127,16
2,33,127,156
2,38,127,120
2,33,127,132
2,33,127,124
2,40,127,112
2,33,127,124
2,40,127,84
2,31,127,4
2,38,127,108
2,31,127,140
2,38,127,100
2,38,127,108
2,33,127,156
2,38,127,116
2,33,127,104
2,33,127,140
2,40,127,116
2,33,127,52
2,40,127,96
2,38,127,76
2,33,127,152
2,38,127,108
2,33,127,112
2,40,127,100
2,35,127,140
2,40,127,96
2,35,127,120
2,33,127,156
2,33,127,148
2,33,127,140
2,33,127,136
2,35,127,192
2,37,127,32
2,38,127,40
2,33,127,136
2,38,127,116
2,33,127,116
2,33,127,128
2,40,127,128
2,33,127,136
2,40,127,108
2,31,127,108
2,38,127,104
2,31,127,140
2,38,127,124
2,38,127,92
2,33,127,136
2,38,127,92
2,33,127,112
2,33,127,144
2,40,127,120
2,33,127,8
2,40,127,112
2,38,127,100
2,33,127,168
2,38,127,128
2,33,127,132
2,40,127,136
2,35,127,124
2,40,127,124
2,33,127,112
2,38,127,92
2,33,127,4
2,38,127,28
2,38,127,108
2,40,127,172
2,35,127,160
2,40,127,108
2,35,127,88
2,35,127,128
2,42,127,76
2,35,127,68
2,42,127,72
2,33,127,48
2,40,127,100
2,33,127,132
2,40,127,88
2,40,127,100
2,35,127,152
2,40,127,104
2,35,127,100
2,35,127,116
2,42,127,132
2,35,127,92
2,42,127,100
2,40,127,100
2,35,127,120
2,40,127,96
2,35,127,100
2,42,127,128
2,37,127,144
2,42,127,132
2,37,127,88
2,35,127,92
2,42,127,80
2,35,127,384
2,35,127,128
2,37,127,28
2,39,127,12
2,40,127,64
2,35,127,152
2,40,127,80
2,35,127,80
2,35,127,112
2,42,127,116
2,35,127,84
2,42,127,72
2,33,127,180
2,40,127,116
2,33,127,132
2,40,127,108
2,40,127,124
2,35,127,76
2,40,127,80
2,35,127,76
2,35,127,104
2,42,127,108
2,35,127,44
2,42,127,80
2,40,127,100
2,35,127,152
2,40,127,108
2,35,127,96
2,42,127,144
2,37,127,148
2,30,127,164
2,37,127,108
2,35,127,128
2,42,127,124
2,35,127,8
2,35,127,124
2,37,127,28
2,39,127,40
2,40,127,76
2,35,127,112
2,40,127,92
2,35,127,136
2,35,127,140
2,36,110,0
2,42,127,104
2,35,127,132
2,42,127,100
2,33,127,96
2,40,127,124
2,33,127,148
2,40,127,132
2,40,127,108
2,35,127,164
2,40,127,112
2,35,127,152
2,35,127,120
2,42,127,116
2,35,127,136
2,42,127,92
2,40,127,92
2,35,127,172
2,40,127,108
2,35,127,112
2,42,127,132
2,37,127,144
2,30,127,140
2,37,127,88
2,35,127,120
2,35,127,164
2,35,127,180
2,35,127,124
2,37,127,44
2,39,127,48
2,40,127,64
2,35,127,156
2,40,127,88
2,35,127,156
2,35,127,120
2,42,127,104
2,35,127,152
2,42,127,104
2,33,127,120
2,40,127,108
2,33,127,172
2,40,127,88
2,40,127,112
2,35,127,164
2,40,127,88
2,35,127,104
2,35,127,128
2,42,127,104
2,35,127,152
2,42,127,108
2,40,127,96
2,35,127,176
2,40,127,104
2,35,127,156
2,42,127,136
2,37,127,148
2,42,127,128
2,35,127,160
2,40,127,116
2,35,127,160
2,40,127,120
2,35,127,160
2,28,127,140
3,65,127,1544
3,62,123,104
3,57,118,72
3,67,127,76
3,62,120,88
3,57,107,68
3,65,127,4
3,62,105,88
3,57,106,48
3,64,127,84
3,62,105,84
3,57,102,80
3,65,127,72
3,62,116,88
3,67,127,0
3,62,116,96
3,65,127,80
3,62,114,96
3,57,114,68
3,67,127,88
3,62,113,80
3,57,109,68
3,65,127,84
3,62,112,72
3,57,104,72
3,64,127,88
3,62,108,76
3,57,108,80
3,65,127,80
3,62,120,80
3,67,127,80
3,62,120,104
3,65,127,8
3,62,121,92
3,57,121,76
3,67,127,80
3,62,116,80
3,57,115,88
3,65,127,4
3,62,102,96
3,57,106,0
3,64,122,100
3,62,116,96
3,57,113,88
3,65,127,8
3,62,120,96
3,67,127,0
3,62,120,96
3,65,127,20
3,62,120,96
3,57,118,76
3,67,127,4
3,62,113,104
3,57,114,76
3,65,127,4
3,62,109,92
3,57,113,0
3,64,127,4
3,62,115,108
3,57,107,72
3,65,127,76
3,62,117,92
3,67,125,4
3,62,116,92
3,53,113,28
3,57,99,0
3,62,120,0
3,65,114,8
3,52,116,252
3,55,119,12
3,57,101,32
3,61,117,12
3,64,118,24
3,45,120,932
3,52,127,184
3,55,127,132
3,61,127,84
3,57,125,0
3,64,125,0
3,52,121,16
3,50,107,260
3,57,108,28
3,53,111,32
3,62,116,12
3,65,122,36
3,50,108,108
3,53,121,72
3,57,115,84
3,62,109,68
3,65,112,64
3,50,123,124
3,54,127,84
3,57,123,96
3,62,127,88
3,66,127,112
3,50,107,120
3,58,115,40
3,55,122,24
3,62,113,20
3,67,120,16
3,50,116,76
3,55,127,48
3,58,127,76
3,62,117,184
3,50,121,8
3,57,127,56
3,65,124,12
3,62,124,0
3,52,111,100
3,55,124,48
3,64,117,28
3,61,121,0
3,57,120,4
3,52,104,148
3,57,104,4
3,55,108,0
3,61,105,0
3,64,103,20
3,52,121,76
3,61,125,0
3,64,118,0
3,55,127,4
3,57,122,0
3,64,124,64
3,61,127,0
3,55,127,0
3,57,127,0
3,52,127,0
3,52,127,104
3,61,127,0
3,64,127,0
3,55,127,0
3,57,127,0
3,54,127,340
3,57,127,0
3,62,127,0
3,66,127,4
3,50,120,0
3,62,127,176
3,66,127,0
3,57,127,0
3,54,127,0
3,50,122,24
3,54,127,268
3,62,127,0
3,57,127,0
3,66,127,0
3,54,127,216
3,57,127,0
3,62,125,0
3,66,127,4
3,61,127,260
3,55,127,0
3,57,127,0
3,52,127,0
3,64,124,4
3,52,127,260
3,61,127,0
3,57,124,4
3,55,127,0
3,64,123,0
3,61,127,272
3,64,124,0
3,57,127,0
3,52,127,4
3,52,127,236
3,61,127,12
3,64,127,0
3,57,127,0
3,50,127,244
3,62,127,0
3,59,127,4
3,55,127,0
3,50,127,256
3,62,127,0
3,59,127,0
3,55,127,0
3,55,127,248
3,62,125,0
3,67,127,0
3,59,127,0
3,55,127,248
3,62,127,8
3,59,127,0
3,67,127,4
3,66,127,252
3,57,127,0
3,54,127,0
3,62,127,4
3,66,127,260
3,54,127,0
3,57,127,0
3,62,125,4
3,66,127,184
3,54,127,0
3,57,127,0
3,62,127,0
3,54,127,272
3,66,127,8
3,62,127,0
3,57,127,0
3,61,127,256
3,64,127,0
3,57,127,0
3,52,127,4
3,52,127,240
3,61,127,0
3,64,127,4
3,57,127,0
3,52,127,268
3,61,127,0
3,57,127,0
3,64,127,0
3,52,127,276
3,61,127,0
3,57,127,0
3,64,127,4
3,66,120,240
3,54,127,4
3,57,127,0
3,62,121,0
3,54,127,168
3,66,127,0
3,62,127,0
3,57,123,0
3,54,127,244
3,66,127,0
3,62,127,0
3,57,127,0
3,54,127,248
3,66,127,12
3,57,127,0
3,62,127,0
3,62,127,280
3,56,127,0
3,59,127,0
