track,note,velocity,time
1,51,27,2656
1,87,42,776
1,92,42,288
1,96,42,36
1,98,42,12
1,99,42,24
1,63,44,4
1,55,32,0
1,98,42,20
1,94,42,368
1,96,42,196
1,57,48,0
1,59,56,0
1,51,38,0
1,98,42,8
1,60,73,4
1,61,65,4
1,99,42,4
1,59,70,4
1,65,67,4
1,61,40,0
1,56,40,0
1,101,42,24
1,97,42,556
1,99,42,84
1,101,42,4
1,99,42,356
1,97,42,176
1,60,45,4
1,58,41,0
1,64,58,0
1,52,36,0
1,42,40,0
1,96,42,8
1,99,42,180
1,96,42,176
1,99,42,176
1,96,42,168
1,99,42,188
1,96,42,168
1,99,42,188
1,65,42,4
1,61,46,0
1,51,57,0
1,56,43,0
1,97,42,16
1,99,42,180
1,97,42,164
1,99,42,0
1,67,59,0
1,58,32,0
1,97,42,12
1,99,42,176
1,97,42,172
1,99,42,0
1,87,46,116
1,84,46,0
1,89,46,0
1,87,46,12
1,84,46,0
1,89,46,4
1,87,46,16
1,84,46,0
1,89,45,12
1,84,45,24
1,87,45,8
1,89,45,8
1,87,45,16
1,84,45,0
1,89,45,20
1,87,45,8
1,84,45,0
1,89,45,8
1,84,45,12
1,87,45,0
1,89,45,8
1,84,44,20
1,87,44,0
1,89,44,20
1,87,44,28
1,84,44,0
1,89,44,8
1,87,44,4
1,84,44,0
1,89,44,4
1,87,44,4
1,84,44,0
1,89,45,8
1,87,45,8
1,84,45,0
1,89,45,8
1,87,45,96
1,84,45,0
1,89,45,24
1,87,45,12
1,84,45,0
1,89,45,16
1,84,45,8
1,87,45,0
1,90,45,4
1,87,45,68
1,84,45,4
1,90,45,4
1,80,45,96
1,85,45,0
1,87,44,8
1,80,44,16
1,85,44,0
1,87,44,16
1,85,45,0
1,80,45,0
1,87,45,12
1,80,44,0
1,85,44,0
1,87,45,8
1,85,46,0
1,80,46,0
1,87,47,8
1,85,47,4
1,80,47,0
1,87,47,16
1,85,47,100
1,80,47,0
1,87,47,4
1,85,47,100
1,80,47,0
1,87,46,12
1,84,46,20
1,87,46,0
1,89,46,96
1,84,46,16
1,87,46,0
1,89,46,0
1,84,46,12
1,87,46,0
1,89,46,12
1,87,46,24
1,84,46,0
1,89,46,16
1,84,46,8
1,87,46,0
1,89,46,16
1,84,47,12
1,87,47,0
1,89,48,0
1,84,48,96
1,87,48,0
1,90,48,0
1,87,48,76
1,84,48,0
1,90,48,4
1,80,46,12
1,85,46,0
1,87,47,0
1,80,47,8
1,85,47,4
1,87,47,4
1,80,47,4
1,85,47,0
1,87,47,4
1,80,47,4
1,85,47,0
1,87,47,4
1,80,47,4
1,85,47,0
1,87,47,0
1,85,49,4
1,80,49,0
1,87,49,12
1,85,49,8
1,80,49,0
1,87,49,12
1,85,49,8
1,80,49,0
1,87,49,4
1,87,49,4
1,84,49,0
1,89,49,4
1,87,49,8
1,84,49,4
1,89,49,12
1,87,49,12
1,84,49,0
1,89,49,4
1,87,49,8
1,84,49,0
1,89,49,0
1,90,49,92
1,85,49,0
1,89,58,8
1,84,58,0
1,80,58,0
1,91,58,0
1,86,58,0
1,82,58,4
1,84,58,0
1,89,58,0
1,80,58,0
1,86,58,0
1,82,58,4
1,91,58,0
1,80,58,4
1,89,58,0
1,84,58,0
1,91,57,4
1,82,57,0
1,86,57,0
1,80,57,0
1,89,57,4
1,84,57,0
1,86,57,0
1,91,57,0
1,82,57,0
1,85,57,0
1,89,57,0
1,87,57,12
1,82,57,0
1,80,57,8
1,85,57,0
1,82,57,96
1,87,57,0
1,84,56,28
1,80,56,0
1,87,57,0
1,84,58,88
1,80,58,0
1,87,58,0
1,80,58,88
1,84,58,0
1,87,58,0
1,80,56,0
1,84,56,0
1,87,55,92
1,85,53,0
1,80,53,0
1,87,47,0
1,82,47,4
1,84,58,8
1,87,46,0
1,89,66,88
1,84,52,76
1,87,42,0
1,89,60,84
1,84,50,76
1,87,40,0
1,89,63,92
1,87,49,72
1,84,60,0
1,89,65,88
1,87,63,92
1,84,74,4
1,89,68,0
1,84,64,76
1,87,58,0
1,89,75,92
1,84,62,80
1,87,56,0
1,89,65,0
1,84,54,84
1,87,46,8
1,89,69,4
1,84,70,88
1,87,50,8
1,89,73,12
1,84,70,88
1,87,52,0
1,89,61,0
1,84,48,92
1,87,50,4
1,89,54,80
1,84,51,88
1,87,52,0
1,89,65,96
1,84,70,84
1,87,57,0
1,89,73,80
1,84,63,72
1,87,60,0
1,89,76,0
1,84,63,80
1,87,65,8
1,90,51,80
1,84,67,76
1,87,61,0
1,90,62,0
1,85,55,96
1,80,51,0
1,87,58,76
1,85,55,88
1,80,50,4
1,87,51,0
1,85,55,92
1,80,49,0
1,87,51,4
1,85,62,88
1,80,60,0
1,87,57,0
1,85,69,92
1,80,60,0
1,87,60,8
1,80,68,88
1,85,63,4
1,87,55,16
1,80,58,88
1,85,79,0
1,87,56,8
1,80,67,84
1,85,69,0
1,87,54,4
1,87,57,4
1,84,73,4
1,89,70,92
1,87,48,88
1,84,62,0
1,89,68,92
1,87,56,4
1,84,63,0
1,89,55,0
1,87,64,72
1,84,80,0
1,89,76,4
1,84,76,96
1,87,65,0
1,89,74,0
1,84,62,80
1,87,56,0
1,89,65,76
1,84,58,84
1,87,53,8
1,90,48,16
1,84,60,84
1,87,48,4
1,90,74,0
1,85,43,104
1,80,41,4
1,87,55,0
1,85,53,0
1,80,60,0
1,87,56,0
1,85,68,0
1,80,72,4
1,87,62,16
1,85,69,92
1,80,74,0
1,87,63,12
1,85,72,4
1,80,71,0
1,87,63,0
1,85,65,16
1,80,57,0
1,87,63,0
1,80,67,0
1,85,72,0
1,87,57,4
1,80,57,92
1,85,63,0
1,87,65,88
1,84,60,16
1,87,58,4
1,89,73,84
1,87,51,76
1,84,63,0
1,89,70,0
1,87,57,12
1,84,60,0
1,89,71,0
1,87,57,0
1,84,70,4
1,89,74,88
1,87,60,24
1,85,60,0
1,90,71,4
1,87,60,0
1,85,57,4
1,90,64,0
1,85,61,8
1,87,63,0
1,90,69,0
1,87,54,92
1,85,57,0
1,90,67,88
1,86,64,56
1,91,70,4
1,89,60,104
1,84,63,0
1,86,70,88
1,91,67,0
1,84,69,0
1,89,70,0
1,86,74,80
1,91,70,4
1,89,63,88
1,84,64,4
1,84,59,28
1,89,59,0
1,87,59,160
1,82,59,4
1,84,59,84
1,89,59,0
1,82,59,104
1,87,59,4
1,84,57,0
1,89,57,4
1,87,56,0
1,82,56,0
1,94,56,0
1,99,56,0
1,84,55,0
1,89,55,4
1,96,55,4
1,101,55,0
1,99,53,0
1,87,53,0
1,82,53,0
1,94,53,4
1,79,51,84
1,84,51,8
1,96,51,0
1,91,51,0
1,89,47,68
1,94,47,0
1,82,47,4
1,77,47,0
1,92,44,4
1,87,44,0
1,75,44,0
1,80,44,4
1,89,41,8
1,84,41,0
1,77,41,4
1,72,41,0
1,72,39,4
1,75,39,0
1,70,39,4
1,87,39,0
1,82,39,0
1,51,51,188
1,63,43,0
1,60,60,0
1,56,40,0
1,65,60,0
1,53,62,0
1,55,57,40
1,63,57,0
1,67,66,0
1,68,72,0
1,56,60,0
1,53,68,8
1,61,60,0
1,58,55,0
1,65,65,0
1,67,78,0
1,55,64,0
1,56,57,0
1,65,70,0
1,68,80,0
1,67,70,0
1,70,79,0
1,58,62,0
1,63,71,0
1,65,51,0
1,60,50,0
1,58,65,0
1,72,80,0
1,77,70,336
1,65,70,0
1,75,70,0
1,72,70,0
1,75,91,12
1,72,91,0
1,68,91,0
1,80,91,0
1,75,104,8
1,80,104,0
1,77,104,0
1,72,104,0
1,84,104,0
1,70,95,16
1,72,95,0
1,75,95,0
1,79,95,0
1,82,95,0
1,79,100,32
1,72,89,0
1,75,89,0
1,67,85,0
1,72,64,0
1,75,64,0
1,77,64,0
1,80,74,0
1,68,74,0
1,65,51,0
1,61,65,0
1,73,80,0
1,68,51,0
1,70,52,0
1,72,69,0
1,70,38,0
1,61,48,0
1,63,38,0
1,67,38,0
1,51,48,0
1,63,44,48
1,56,25,0
1,51,46,0
1,60,56,0
1,65,56,384
1,53,61,0
1,55,59,8
1,67,48,0
1,68,60,380
1,56,37,0
1,84,50,4
1,65,54,4
1,62,54,0
1,72,71,0
1,58,48,0
1,82,61,4
1,70,57,0
1,59,53,0
1,63,60,16
1,68,63,336
1,80,61,4
1,60,58,4
1,67,63,0
1,63,43,0
1,79,63,4
1,81,60,616
1,82,57,32
1,83,61,20
1,84,75,20
1,73,54,0
1,67,60,0
1,57,63,0
1,53,51,0
1,85,71,24
1,61,54,56
1,58,60,0
1,65,63,0
1,77,61,8
1,79,73,8
1,67,67,4
1,63,62,0
1,60,56,0
1,80,64,0
1,65,68,0
1,68,57,0
1,61,57,0
1,67,65,12
1,63,62,0
1,70,68,0
1,82,61,12
1,68,50,0
1,63,43,0
1,72,63,0
1,56,28,0
1,60,62,0
1,65,58,0
1,62,73,16
1,63,61,192
1,60,69,16
1,63,58,0
1,67,57,0
1,66,51,0
1,63,62,0
1,60,63,0
1,56,63,0
1,65,51,0
1,75,44,0
1,72,67,0
1,56,58,0
1,61,57,0
1,73,55,16
1,70,63,0
1,72,60,376
1,68,60,0
1,71,50,8
1,70,61,0
1,60,60,0
1,67,68,0
1,63,42,0
1,65,59,0
1,68,55,0
1,67,62,12
1,63,63,0
1,56,54,384
1,66,57,0
1,61,57,0
1,65,62,0
1,64,58,16
1,58,48,0
1,56,55,0
1,63,50,0
1,60,58,0
1,66,48,28
1,57,34,0
1,53,35,0
1,61,67,8
1,56,55,0
1,65,35,0
1,58,49,0
1,62,57,4
1,67,48,20
1,58,48,0
1,61,47,0
1,63,46,0
1,60,44,0
1,56,46,0
1,63,38,240
1,60,45,0
1,56,20,0
1,67,59,948
1,65,58,0
1,58,48,384
1,61,47,0
1,68,51,748
1,70,46,0
1,63,46,0
1,67,50,0
1,56,25,0
1,60,50,0
1,65,51,0
1,63,44,0
1,75,98,96
1,77,98,0
1,72,98,0
1,84,98,0
1,80,98,0
1,82,106,0
1,75,106,0
1,70,106,0
1,79,106,0
1,72,106,0
1,79,94,0
1,75,94,0
1,67,94,0
1,72,94,0
1,75,89,0
1,80,89,0
1,77,89,0
1,72,89,0
1,68,89,0
1,61,64,0
1,70,59,0
1,68,65,0
1,73,79,0
1,65,66,0
1,51,49,0
1,61,49,0
1,65,49,0
1,67,49,0
1,72,49,0
1,87,38,48
1,82,41,0
1,70,27,0
1,63,30,0
1,60,44,0
1,79,40,0
1,68,42,0
1,77,50,0
1,80,42,0
1,67,42,0
1,75,38,0
1,79,52,0
1,80,31,0
1,68,44,0
1,77,57,0
1,73,44,0
1,70,38,0
1,58,44,0
1,68,39,0
1,77,62,0
1,82,51,768
1,67,49,0
1,68,40,4
1,65,55,0
1,61,29,0
1,51,34,0
1,82,60,0
1,73,46,0
1,79,56,0
1,80,64,28
1,79,68,20
1,80,97,0
1,83,88,0
1,76,72,68
1,85,107,0
1,83,82,0
1,80,83,0
1,85,113,96
1,82,96,0
1,80,97,4
1,77,84,0
1,87,110,92
1,80,86,0
1,84,97,0
2,30,75,7268
2,30,78,180
2,27,67,4
2,32,87,24728
2,34,91,8
2,27,87,16
2,32,87,768
2,27,86,1532
2,32,82,2300
2,32,82,56
2,31,85,768
2,36,84,764
2,29,85,768
2,34,85,0
2,27,87,4
2,32,81,20
2,32,72,40
2,24,80,36
2,32,87,1152
2,25,84,364
2,24,84,1536
2,24,78,36
2,25,87,376
2,34,79,28
2,27,85,772
2,29,85,0
2,34,85,4
2,27,87,772
2,32,79,8
2,32,63,56
2,32,67,64
2,34,65,12
2,27,61,768
2,32,67,768
2,27,63,8
2,32,67,2304
2,32,73,92
2,34,70,8
2,27,66,1532
2,27,65,68
2,32,93,12
2,32,88,44
2,36,95,64
2,48,90,768
2,46,84,48
2,44,116,24
2,42,97,4
2,40,92,16
2,39,97,28
2,37,95,192
2,35,98,0
2,34,110,32
2,39,101,32
2,32,110,8
3,32,41,2616
3,44,50,0
3,36,78,0
3,29,78,4
3,34,81,4
3,60,60,3844
3,44,44,0
3,51,55,384
3,53,65,384
3,61,68,328
3,62,71,88
3,36,57,176
3,55,50,0
3,63,58,0
3,54,69,96
3,44,55,0
3,37,65,288
3,53,76,0
3,61,79,40
3,60,74,0
3,59,71,8
3,36,55,384
3,63,69,0
3,58,71,0
3,56,72,352
3,55,67,372
3,44,51,16
3,63,74,0
3,66,68,0
3,37,63,376
3,61,54,0
3,65,70,0
3,56,34,0
3,53,55,0
3,37,74,0
3,64,75,0
3,52,69,0
3,58,44,0
3,39,61,4
3,60,65,0
3,63,61,0
3,51,68,0
3,56,57,0
3,41,71,8
3,66,63,0
3,63,64,0
3,57,60,0
3,53,60,0
3,62,63,0
3,65,70,0
3,46,51,0
3,60,60,0
3,56,60,0
3,61,57,4
3,39,68,0
3,53,67,0
3,58,57,0
3,55,58,0
3,63,51,0
3,60,63,0
3,44,57,0
3,51,37,0
3,56,41,0
3,46,57,0
3,65,70,0
3,39,79,0
3,63,57,0
3,56,56,0
3,53,60,0
3,39,63,32
3,55,64,0
3,58,57,0
3,60,55,0
3,44,65,0
3,51,85,372
3,53,88,4
3,61,82,56
3,62,82,100
3,36,62,8
3,55,36,0
3,63,87,0
3,58,35,0
3,54,55,4
3,44,65,0
3,53,43,0
3,56,43,0
3,37,58,0
3,61,90,384
3,60,85,0
3,59,85,0
3,36,65,20
3,55,52,0
3,60,37,0
3,63,32,0
3,58,78,0
3,56,84,0
3,55,86,384
3,44,61,4
3,54,85,0
3,61,40,364
3,56,40,0
3,65,40,0
3,37,60,0
3,64,41,60
3,58,41,0
3,37,61,0
3,39,62,4
3,63,42,0
3,60,42,0
3,56,42,0
3,66,43,8
3,61,43,0
3,57,43,0
3,41,63,0
3,56,42,8
3,60,42,0
3,65,42,0
3,62,42,0
3,46,62,0
3,61,38,36
3,39,64,0
3,58,36,32
3,55,36,0
3,39,63,0
3,56,35,0
3,44,61,0
3,60,35,0
3,44,47,144
3,46,49,1536
3,39,50,0
3,44,50,768
3,39,51,1532
3,44,52,2292
3,44,50,48
3,43,51,768
3,48,49,764
3,41,50,8
3,46,54,768
3,39,55,0
3,44,48,0
3,36,45,0
3,44,57,0
3,37,57,384
3,36,63,0
3,37,57,0
3,34,68,0
3,39,62,0
3,41,63,0
3,34,59,768
3,39,51,0
3,32,43,768
3,44,35,60
3,44,47,48
3,34,53,0
3,39,56,768
3,32,46,20
3,39,51,0
3,32,39,48
3,32,44,20
3,34,53,20
3,39,51,16
3,39,57,4
4,56,111,11060
4,68,111,100
4,67,117,96
4,63,114,48
4,65,97,28
4,67,99,12
4,68,122,60
4,56,111,616
4,65,109,32
4,63,118,48
4,53,99,964
4,61,118,4
4,60,101,108
4,56,102,236
4,58,112,36
4,60,102,40
4,61,100,120
4,58,114,64
4,55,107,724
4,56,114,12
4,58,111,16
4,60,93,144
4,56,104,4
4,56,118,1372
4,68,122,52
4,67,120,32
4,63,122,40
4,65,103,32
4,67,109,12
4,68,116,8
4,56,117,60
4,65,110,52
4,63,101,0
4,61,108,572
4,61,111,36
4,60,111,12
4,56,111,76
4,58,109,28
4,60,113,32
4,61,112,8
4,58,100,396
4,55,101,264
4,56,104,104
4,58,106,0
4,60,95,380
4,56,99,4
4,63,111,284
4,60,90,40
4,63,100,184
4,60,95,96
4,63,95,20
4,60,95,0
4,63,95,92
4,60,83,96
4,63,94,228
4,61,95,104
4,63,89,44
4,61,98,192
4,63,98,20
4,61,98,0
4,63,101,0
4,61,106,12
4,63,108,260
4,65,109,8
4,65,112,92
4,63,105,1980
4,60,103,32
4,63,94,8
4,60,90,252
4,63,106,0
4,60,87,0
4,63,106,116
4,60,86,20
4,63,104,88
4,62,104,20
4,65,104,28
4,62,103,100
4,65,101,4
4,62,101,8
4,65,100,0
4,62,100,4
4,65,98,228
4,67,104,112
4,67,117,76
4,70,122,24
4,65,107,8
4,68,122,108
4,68,122,64
