track,note,velocity,time
1,35,110,34908
1,35,110,70
1,35,110,206
1,35,110,64
1,35,110,194
1,35,110,108
1,30,110,80
1,30,110,84
1,30,110,216
1,30,110,46
1,30,110,206
1,30,110,98
1,33,110,84
1,33,110,38
1,33,110,218
1,33,110,64
1,33,110,208
1,33,110,110
1,35,110,112
1,35,110,48
1,35,110,210
1,35,110,62
1,35,110,178
1,35,110,118
1,35,110,118
1,35,110,70
1,35,110,206
1,35,110,64
1,35,110,194
1,35,110,108
1,30,110,80
1,30,110,84
1,30,110,216
1,30,110,46
1,30,110,206
1,30,110,98
1,33,110,84
1,33,110,38
1,33,110,218
1,33,110,64
1,33,110,208
1,33,110,110
1,35,110,112
1,35,110,48
1,35,110,210
1,35,110,62
1,35,110,178
1,35,110,118
1,35,110,118
1,35,110,70
1,35,110,206
1,35,110,64
1,35,110,194
1,35,110,108
1,30,110,80
1,30,110,84
1,30,110,216
1,30,110,46
1,30,110,206
1,30,110,98
1,33,110,84
1,33,110,38
1,33,110,218
1,33,110,64
1,33,110,208
1,33,110,110
1,35,110,112
1,35,110,48
1,35,110,210
1,35,110,62
1,35,110,178
1,35,110,118
1,35,110,1654
1,35,110,70
1,35,110,206
1,35,110,64
1,35,110,194
1,35,110,108
1,30,110,80
1,30,110,84
1,30,110,216
1,30,110,46
1,30,110,206
1,30,110,98
1,33,110,84
1,33,110,38
1,33,110,218
1,33,110,64
1,33,110,208
1,33,110,110
1,35,110,112
1,35,110,48
1,35,110,210
1,35,110,62
1,35,110,178
1,35,110,118
1,35,110,118
1,35,110,70
1,35,110,206
1,35,110,64
1,35,110,194
1,35,110,108
1,30,110,80
1,30,110,84
1,30,110,216
1,30,110,46
1,30,110,206
1,30,110,98
1,33,110,84
1,33,110,38
1,33,110,218
1,33,110,64
1,33,110,208
1,33,110,110
1,35,110,112
1,35,110,48
1,35,110,210
1,35,110,62
1,35,110,178
1,35,110,118
1,35,110,118
1,35,110,70
1,35,110,206
1,35,110,64
1,35,110,194
1,35,110,108
1,30,110,80
1,30,110,84
1,30,110,216
1,30,110,46
1,30,110,206
1,30,110,98
1,33,110,84
1,33,110,38
1,33,110,218
1,33,110,64
1,33,110,208
1,33,110,110
1,35,110,112
1,35,110,48
1,35,110,210
1,35,110,62
1,35,110,178
1,35,110,118
1,35,110,118
1,35,110,70
1,35,110,206
1,35,110,64
1,35,110,194
1,35,110,108
1,30,110,80
1,30,110,84
1,30,110,216
1,30,110,46
1,30,110,206
1,30,110,98
1,33,110,84
1,33,110,38
1,33,110,218
1,33,110,64
1,33,110,208
1,33,110,110
1,35,110,112
1,35,110,48
1,35,110,210
1,35,110,62
1,35,110,178
1,35,110,118
1,35,110,118
1,35,110,70
1,35,110,206
1,35,110,64
1,35,110,194
1,35,110,108
1,30,110,80
1,30,110,84
1,30,110,216
1,30,110,46
1,30,110,206
1,30,110,98
1,33,110,84
1,33,110,38
1,33,110,218
1,33,110,64
1,33,110,208
1,33,110,110
1,35,110,112
1,35,110,48
1,35,110,210
1,35,110,62
1,35,110,178
1,35,110,118
1,35,110,118
1,35,110,70
1,35,110,206
1,35,110,64
1,35,110,194
1,35,110,108
1,30,110,80
1,30,110,84
1,30,110,216
1,30,110,46
1,30,110,206
1,30,110,98
1,33,110,84
1,33,110,38
1,33,110,218
1,33,110,64
1,33,110,208
1,33,110,110
1,35,110,112
1,35,110,48
1,35,110,210
1,35,110,62
1,35,110,178
1,35,110,118
1,35,110,1654
1,35,110,70
1,35,110,206
1,35,110,64
1,35,110,194
1,35,110,108
1,30,110,80
1,30,110,84
1,30,110,216
1,30,110,46
1,30,110,206
1,30,110,98
1,33,110,84
1,33,110,38
1,33,110,218
1,33,110,64
1,33,110,208
1,33,110,110
1,35,110,112
1,35,110,48
1,35,110,210
1,35,110,62
1,35,110,178
1,35,110,118
1,35,110,118
1,35,110,70
1,35,110,206
1,35,110,64
1,35,110,194
1,35,110,108
1,30,110,80
1,30,110,84
1,30,110,216
1,30,110,46
1,30,110,206
1,30,110,98
1,33,110,84
1,33,110,38
1,33,110,218
1,33,110,64
1,33,110,208
1,33,110,110
1,35,110,112
1,35,110,48
1,35,110,210
1,35,110,62
1,35,110,178
1,35,110,118
1,35,110,118
1,35,110,70
1,35,110,206
1,35,110,64
1,35,110,194
1,35,110,108
1,30,110,80
1,30,110,84
1,30,110,216
1,30,110,46
1,30,110,206
1,30,110,98
1,33,110,84
1,33,110,38
1,33,110,218
1,33,110,64
1,33,110,208
1,33,110,110
1,35,110,112
1,35,110,48
1,35,110,210
1,35,110,62
1,35,110,178
1,35,110,118
1,35,110,118
1,35,110,70
1,35,110,206
1,35,110,64
1,35,110,194
1,35,110,108
1,30,110,80
1,30,110,84
1,30,110,216
1,30,110,46
1,30,110,206
1,30,110,98
1,33,110,84
1,33,110,38
1,33,110,218
1,33,110,64
1,33,110,208
1,33,110,110
1,35,110,112
1,35,110,48
1,35,110,210
1,35,110,62
1,35,110,178
1,35,110,118
1,35,110,118
1,35,110,70
1,35,110,206
1,35,110,64
1,35,110,194
1,35,110,108
1,30,110,80
1,30,110,84
1,30,110,216
1,30,110,46
1,30,110,206
1,30,110,98
1,33,110,84
1,33,110,38
1,33,110,218
1,33,110,64
1,33,110,208
1,33,110,110
1,35,110,112
1,35,110,48
1,35,110,210
1,35,110,62
1,35,110,178
1,35,110,118
1,35,110,118
1,35,110,70
1,35,110,206
1,35,110,64
1,35,110,194
1,35,110,108
1,30,110,80
1,30,110,84
1,30,110,216
1,30,110,46
1,30,110,206
1,30,110,98
1,33,110,84
1,33,110,38
1,33,110,218
1,33,110,64
1,33,110,208
1,33,110,110
1,35,110,112
1,35,110,48
1,35,110,210
1,35,110,62
1,35,110,178
1,35,110,118
1,35,110,6262
1,35,110,70
1,35,110,206
1,35,110,64
1,35,110,194
1,35,110,108
1,30,110,80
1,30,110,84
1,30,110,216
1,30,110,46
1,30,110,206
1,30,110,98
1,33,110,84
1,33,110,38
1,33,110,218
1,33,110,64
1,33,110,208
1,33,110,110
1,35,110,112
1,35,110,48
1,35,110,210
1,35,110,62
1,35,110,178
1,35,110,118
1,35,110,118
1,35,110,70
1,35,110,206
1,35,110,64
1,35,110,194
1,35,110,108
1,30,110,80
1,30,110,84
1,30,110,216
1,30,110,46
1,30,110,206
1,30,110,98
1,33,110,84
1,33,110,38
1,33,110,218
1,33,110,64
1,33,110,208
1,33,110,110
1,35,110,112
1,35,110,48
1,35,110,210
1,35,110,62
1,35,110,178
1,35,110,118
1,35,110,118
1,35,110,70
1,35,110,206
1,35,110,64
1,35,110,194
1,35,110,108
1,30,110,80
1,30,110,84
1,30,110,216
1,30,110,46
1,30,110,206
1,30,110,98
1,33,110,84
1,33,110,38
1,33,110,218
1,33,110,64
1,33,110,208
1,33,110,110
1,35,110,112
1,35,110,48
1,35,110,210
1,35,110,62
1,35,110,178
1,35,110,118
1,35,110,12406
1,35,110,70
1,35,110,206
1,35,110,64
1,35,110,194
1,35,110,108
1,30,110,80
1,30,110,84
1,30,110,216
1,30,110,46
1,30,110,206
1,30,110,98
1,33,110,84
1,33,110,38
1,33,110,218
1,33,110,64
1,33,110,208
1,33,110,110
1,35,110,112
1,35,110,48
1,35,110,210
1,35,110,62
1,35,110,178
1,35,110,118
1,35,110,118
1,35,110,70
1,35,110,206
1,35,110,64
1,35,110,194
1,35,110,108
1,30,110,80
1,30,110,84
1,30,110,216
1,30,110,46
1,30,110,206
1,30,110,98
1,33,110,84
1,33,110,38
1,33,110,218
1,33,110,64
1,33,110,208
1,33,110,110
1,35,110,1648
1,35,110,70
1,35,110,206
1,35,110,64
1,35,110,194
1,35,110,108
1,30,110,80
1,30,110,84
1,30,110,216
1,30,110,46
1,30,110,206
1,30,110,98
1,33,110,84
1,33,110,38
1,33,110,218
1,33,110,64
1,33,110,208
1,33,110,110
1,35,110,112
1,35,110,48
1,35,110,210
1,35,110,62
1,35,110,178
1,35,110,118
1,35,110,118
1,35,110,70
1,35,110,206
1,35,110,64
1,35,110,194
1,35,110,108
1,30,110,80
1,30,110,84
1,30,110,216
1,30,110,46
1,30,110,206
1,30,110,98
1,33,110,84
1,33,110,38
1,33,110,218
1,33,110,64
1,33,110,208
1,33,110,110
1,35,110,112
1,35,110,48
1,35,110,210
1,35,110,62
1,35,110,178
1,35,110,118
1,35,110,0
1,35,110,0
1,35,110,0
1,35,110,0
1,35,110,0
1,35,110,0
1,30,110,0
1,30,110,0
1,30,110,0
1,30,110,0
1,30,110,0
1,30,110,0
1,33,110,0
1,33,110,0
1,33,110,0
1,33,110,0
1,33,110,0
1,33,110,0
1,35,110,0
1,35,110,0
1,35,110,0
1,35,110,0
1,35,110,0
1,35,110,0
1,35,110,0
1,35,110,0
1,35,110,0
1,35,110,0
1,35,110,0
1,35,110,0
1,30,110,0
1,30,110,0
1,30,110,0
1,30,110,0
1,30,110,0
1,30,110,0
1,33,110,0
1,33,110,0
1,33,110,0
1,33,110,0
1,33,110,0
1,33,110,0
1,35,110,0
1,35,110,0
1,35,110,0
1,35,110,0
1,35,110,0
1,35,110,0
2,59,90,2632
2,62,90,0
2,66,90,0
2,57,90,0
2,61,90,0
2,54,90,0
2,57,90,0
2,64,90,0
2,61,90,0
2,59,90,0
2,62,90,0
2,54,90,0
2,59,90,68
2,62,90,0
2,66,90,0
2,57,90,0
2,61,90,0
2,54,90,0
2,57,90,0
2,64,90,0
2,61,90,0
2,59,90,0
2,62,90,0
2,54,90,0
2,59,90,68
2,62,90,0
2,66,90,0
2,57,90,0
2,61,90,0
2,54,90,0
2,57,90,0
2,64,90,0
2,61,90,0
2,59,90,0
2,62,90,0
2,54,90,0
2,59,90,68
2,62,90,0
2,66,90,0
2,57,90,0
2,61,90,0
2,54,90,0
2,57,90,0
2,64,90,0
2,61,90,0
2,59,90,0
2,62,90,0
2,54,90,0
2,59,90,126104
2,62,90,0
2,66,90,0
2,57,90,0
2,61,90,0
2,54,90,0
2,57,90,0
2,64,90,0
2,61,90,0
2,59,90,0
2,62,90,0
2,54,90,0
2,59,90,68
2,62,90,0
2,66,90,0
2,57,90,0
2,61,90,0
2,54,90,0
2,57,90,0
2,64,90,0
2,61,90,0
2,59,90,0
2,62,90,0
2,54,90,0
3,66,115,14320
3,66,115,126
3,66,115,140
3,69,115,74
3,64,115,1056
3,64,115,168
3,64,115,114
3,61,115,960
3,62,115,18
3,61,115,192
3,59,115,12
3,66,115,160
3,66,115,124
3,66,115,124
3,69,115,40
3,64,115,50
3,64,115,104
3,64,115,114
3,61,115,960
3,62,115,68
3,61,115,60
3,59,115,6
3,66,115,13358
3,66,115,100
3,66,115,128
3,69,115,40
3,64,115,48
3,64,115,104
3,64,115,116
3,61,115,68
3,62,115,12
3,61,115,66
3,59,115,0
3,66,115,28
3,66,115,102
3,66,115,134
3,69,115,30
3,64,115,78
3,64,115,94
3,64,115,128
3,61,115,34
3,62,115,0
3,61,115,24
3,59,115,10
3,59,115,1616
3,59,115,230
3,62,115,88
3,61,115,134
3,57,115,104
3,61,115,34
3,61,115,102
3,61,115,136
3,61,115,132
3,61,115,134
3,59,115,58
3,57,115,40
3,59,115,40
3,57,115,12
3,59,115,30
3,59,115,118
3,59,115,110
3,59,115,126
3,62,115,122
3,61,115,106
3,57,115,74
3,61,115,2
3,61,115,140
3,61,115,132
3,61,115,124
3,59,115,80
3,57,115,54
3,59,115,36
3,66,115,2
3,66,115,122
3,66,115,128
3,69,115,4
3,64,115,44
3,64,115,110
3,64,115,122
3,61,115,6
3,62,115,50
3,61,115,68
3,59,115,192
3,66,115,766
3,66,115,120
3,66,115,124
3,69,115,18
3,64,115,42
3,64,115,120
3,64,115,112
3,61,115,24
3,62,115,384
3,61,115,24
3,59,115,6
3,59,115,14010
3,59,115,168
3,59,115,140
3,62,115,146
3,61,115,140
3,57,115,78
3,61,115,8
3,61,115,144
3,61,115,140
3,59,115,24
3,61,115,192
3,59,115,48
3,59,115,122
3,59,115,126
3,57,115,44
3,59,115,24
3,59,115,86
3,59,115,128
3,59,115,142
3,59,115,140
3,62,115,124
3,61,115,120
3,57,115,76
3,57,115,152
3,61,115,768
3,61,115,40
3,59,115,138
3,57,115,192
3,59,115,10
3,66,115,40
3,66,115,32
3,66,115,138
3,69,115,10
3,64,115,44
3,64,115,106
3,64,115,112
3,61,115,960
3,62,115,42
3,61,115,8
3,59,115,192
3,66,115,20
3,66,115,124
3,66,115,122
3,69,115,6
3,64,115,92
3,64,115,92
3,64,115,110
3,61,115,960
3,62,115,382
3,61,115,34
3,59,115,192
3,66,115,862
3,66,115,42
3,66,115,138
3,69,115,1344
3,64,115,28
3,64,115,118
3,64,115,116
3,61,115,20
3,62,115,36
3,61,115,24
3,59,115,12
3,66,115,768
3,66,115,122
3,66,115,124
3,69,115,1344
3,64,115,32
3,64,115,118
3,64,115,116
3,61,115,36
3,62,115,384
3,61,115,164
3,59,115,184
3,59,115,24650
3,59,115,148
3,59,115,134
3,62,115,126
3,61,115,84
3,57,115,56
3,61,115,36
3,61,115,72
3,61,115,126
3,61,115,126
3,61,115,130
3,59,115,34
3,57,115,2
3,59,115,4
3,57,115,4
3,59,115,8
3,59,115,132
3,59,115,88
3,59,115,126
3,59,115,124
3,62,115,110
3,61,115,100
3,57,115,46
3,57,115,128
3,61,115,48
3,61,115,108
3,59,115,58
3,57,115,192
3,59,115,74
3,66,115,1152
3,66,115,128
3,66,115,132
3,69,115,26
3,64,115,42
3,64,115,130
3,64,115,124
3,61,115,16
3,62,115,14
3,61,115,46
3,59,115,20
3,66,115,58
3,66,115,134
3,66,115,130
3,69,115,46
3,64,115,72
3,64,115,102
3,64,115,102
3,61,115,4
3,62,115,44
3,61,115,12
3,59,115,10
3,66,115,768
3,66,115,156
3,66,115,142
3,69,115,1344
3,64,115,40
3,64,115,106
3,64,115,124
3,61,115,20
3,62,115,30
3,61,115,34
3,59,115,6
3,66,115,28
3,66,115,136
3,66,115,130
3,69,115,1344
3,64,115,40
3,64,115,130
3,64,115,114
3,61,115,18
3,62,115,44
3,61,115,0
3,59,115,192
3,66,115,28
3,66,115,116
3,66,115,128
3,69,115,8
3,64,115,26
3,64,115,108
3,64,115,104
3,61,115,20
3,62,115,384
3,61,115,178
3,59,115,22
3,66,115,768
3,66,115,120
3,66,115,112
3,69,115,84
3,64,115,4
3,64,115,90
3,64,115,118
3,61,115,8
3,62,115,32
3,61,115,192
3,59,115,22
3,66,115,768
3,66,115,140
3,66,115,108
4,47,80,2520
4,62,80,0
4,71,80,0
4,66,80,0
4,66,80,0
4,61,80,0
4,69,80,0
4,42,80,0
4,45,80,0
4,64,80,0
4,57,80,0
4,61,80,0
4,54,80,0
4,62,80,0
4,59,80,0
4,47,80,0
4,71,80,0
4,62,80,0
4,47,80,0
4,66,80,0
4,69,80,0
4,61,80,0
4,42,80,0
4,66,80,0
4,45,80,0
4,61,80,0
4,64,80,0
4,69,80,0
4,62,80,12
4,66,80,0
4,71,80,0
4,47,80,0
4,71,80,132
4,62,80,0
4,47,80,0
4,66,80,0
4,69,80,0
4,61,80,0
4,42,80,0
4,66,80,0
4,45,80,0
4,61,80,0
4,64,80,0
4,69,80,0
4,62,80,12
4,66,80,0
4,71,80,0
4,47,80,0
4,71,80,132
4,62,80,0
4,47,80,0
4,66,80,0
4,69,80,0
4,61,80,0
4,42,80,0
4,66,80,0
4,45,80,0
4,61,80,0
4,64,80,0
4,69,80,0
4,62,80,12
4,66,80,0
4,71,80,0
4,47,80,0
4,66,80,12296
4,62,80,0
4,71,80,0
4,61,80,0
4,66,80,0
4,69,80,0
4,61,80,0
4,57,80,0
4,64,80,0
4,66,80,0
4,62,80,0
4,59,80,0
4,66,80,90
4,62,80,0
4,71,80,0
4,61,80,0
4,66,80,0
4,69,80,0
4,61,80,0
4,57,80,0
4,64,80,0
4,66,80,0
4,62,80,0
4,59,80,0
4,78,60,13914
4,74,60,0
4,71,60,0
4,73,60,0
4,78,60,0
