track,note,velocity,time
0,57,67,804
0,60,75,1
0,33,92,2
0,64,75,0
0,64,67,0
0,42,52,0
0,57,77,2
0,60,67,0
0,42,0,2
0,57,0,86
0,60,0,1
0,60,0,0
0,64,0,1
0,57,0,1
0,64,0,0
0,33,0,0
0,60,57,0
0,64,71,1
0,57,57,0
0,57,70,1
0,33,89,1
0,42,35,0
0,60,71,2
0,64,57,0
0,42,0,2
0,60,0,86
0,64,0,1
0,57,0,0
0,57,0,0
0,64,0,0
0,33,0,2
0,57,88,0
0,64,89,0
0,64,69,0
0,60,0,2
0,33,92,1
0,60,69,0
0,42,113,0
0,60,90,1
0,57,69,1
0,42,0,2
0,64,0,86
0,57,0,0
0,64,0,0
0,60,0,1
0,60,0,2
0,60,57,0
0,57,0,2
0,60,66,0
0,42,37,1
0,64,57,1
0,57,57,1
0,57,66,1
0,64,66,0
0,42,0,1
0,64,0,40
0,60,0,0
0,64,60,2
0,57,0,1
0,57,61,2
0,60,60,2
0,60,0,39
0,64,0,1
0,57,0,1
0,60,0,0
0,33,0,1
0,57,0,0
0,64,0,1
0,57,78,0
0,60,78,0
0,57,66,1
0,60,66,0
0,29,89,1
0,65,80,0
0,42,53,0
0,65,66,3
0,42,0,1
0,57,0,39
0,60,0,0
0,65,0,2
0,60,69,0
0,57,67,3
0,65,67,3
0,60,0,39
0,60,0,2
0,57,0,0
0,29,0,1
0,57,0,0
0,65,0,3
0,65,0,0
0,29,88,0
0,42,32,0
0,60,71,1
0,65,70,1
0,65,57,0
0,57,69,1
0,57,57,0
0,60,57,0
0,42,0,1
0,60,0,87
0,60,0,1
0,57,0,0
0,29,0,1
0,60,81,0
0,57,0,1
0,57,82,0
0,60,74,0
0,65,0,1
0,65,0,0
0,29,89,1
0,57,74,0
0,42,111,0
0,65,83,3
0,65,74,0
0,42,0,1
0,60,0,86
0,57,0,1
0,60,0,0
0,57,0,2
0,65,0,0
0,65,0,0
0,60,74,0
0,57,73,2
0,65,74,0
0,65,61,0
0,57,61,1
0,60,61,0
0,42,32,0
0,42,0,4
0,60,0,86
0,65,0,2
0,65,0,0
0,57,0,0
0,29,0,1
0,60,0,0
0,57,0,0
0,60,70,0
0,64,67,0
0,55,69,2
0,36,89,1
0,64,69,0
0,55,67,0
0,42,76,0
0,60,67,2
0,42,0,2
0,60,0,86
0,64,0,0
0,55,0,2
0,64,0,1
0,36,0,0
0,55,0,0
0,60,0,2
0,60,69,0
0,64,69,0
0,55,57,0
0,36,90,1
0,42,32,0
0,55,69,1
0,60,57,1
0,64,57,0
0,42,0,2
0,64,0,87
0,60,0,0
0,64,0,1
0,55,0,0
0,60,0,1
0,36,0,0
0,55,0,0
0,60,90,0
0,64,89,0
0,64,69,1
0,55,93,1
0,60,69,0
0,36,89,1
0,42,119,0
0,55,69,1
0,42,0,3
0,60,0,47
0,64,0,0
0,64,0,1
0,60,0,1
0,55,0,0
0,55,0,2
0,64,57,0
0,60,57,2
0,42,29,0
0,55,57,1
0,64,62,1
0,55,65,1
0,60,64,0
0,42,0,1
0,64,0,39
0,55,0,1
0,60,0,1
0,64,56,0
0,55,55,1
0,60,52,1
0,64,0,43
0,64,0,1
0,55,0,0
0,60,0,1
0,60,0,1
0,36,0,0
0,59,66,0
0,62,66,0
0,55,0,1
0,62,80,0
0,31,88,2
0,42,81,0
0,59,82,1
0,67,82,1
0,55,66,0
0,42,0,2
0,62,0,39
0,59,0,0
0,59,67,2
0,67,0,1
0,67,69,2
0,62,68,1
0,62,0,41
0,59,0,0
0,59,0,0
0,67,0,1
0,55,0,2
0,31,0,0
0,62,0,0
0,67,71,0
0,59,57,1
0,62,71,1
0,55,57,0
0,31,88,1
0,59,71,0
0,42,34,0
0,62,57,2
0,42,0,2
0,67,0,86
0,59,0,1
0,55,0,1
0,62,0,0
0,59,0,1
0,31,0,0
0,62,81,1
0,59,74,0
0,62,0,1
0,31,88,1
0,42,116,0
0,59,82,1
0,67,83,0
0,55,74,0
0,62,74,2
0,42,0,1
0,59,0,87
0,62,0,0
0,55,0,1
0,59,0,2
0,67,0,0
0,62,72,0
0,55,61,0
0,62,0,1
0,67,72,1
0,42,31,0
0,59,61,1
0,62,61,0
0,59,73,2
0,42,0,1
0,55,0,87
0,62,0,0
0,31,0,2
0,67,0,0
0,60,75,0
0,59,0,1
0,62,0,0
0,57,67,0
0,64,75,1
0,59,0,1
0,33,92,0
0,60,67,0
0,42,52,0
0,57,77,1
0,64,67,2
0,42,0,1
0,60,0,86
0,57,0,1
0,60,0,1
0,64,0,0
0,33,0,1
0,57,0,0
0,64,0,1
0,60,57,0
0,57,70,1
0,33,89,1
0,57,57,0
0,64,57,0
0,42,35,0
0,60,71,3
0,64,71,0
0,42,0,1
0,60,0,87
0,57,0,0
0,57,0,1
0,64,0,1
0,33,0,0
0,57,69,0
0,60,0,1
0,64,69,1
0,64,0,1
0,33,92,0
0,60,90,0
0,42,113,0
0,57,88,1
0,60,69,0
0,64,89,2
0,42,0,1
0,57,0,86
0,64,0,2
0,60,0,1
0,64,0,1
0,57,0,0
0,60,0,0
0,64,66,2
0,64,57,0
0,42,37,0
0,57,57,1
0,57,66,1
0,60,57,0
0,60,66,1
0,42,0,1
0,64,0,41
0,60,0,1
0,57,0,1
0,64,60,0
0,60,60,1
0,57,61,3
0,57,0,40
0,60,0,1
0,64,0,0
0,33,0,1
0,60,0,0
0,64,0,0
0,57,78,0
0,65,80,0
0,57,0,1
0,60,66,0
0,29,89,2
0,60,78,0
0,42,53,0
0,65,66,1
0,57,66,2
0,42,0,1
0,57,0,38
0,65,0,0
0,60,0,3
0,60,69,2
0,57,67,1
0,65,67,2
0,60,0,41
0,60,0,0
0,29,0,2
0,57,0,0
0,60,71,0
0,65,0,1
0,65,0,0
0,57,0,2
0,29,88,0
0,57,69,0
0,65,70,0
0,42,32,0
0,57,57,2
0,60,57,0
0,65,57,1
0,42,0,1
0,60,0,86
0,65,0,1
0,60,0,0
0,29,0,2
0,65,0,0
0,57,0,0
0,57,0,0
0,65,83,0
0,60,74,0
0,57,82,2
0,60,81,0
0,57,74,0
0,65,74,0
0,29,89,1
0,42,111,0
0,42,0,4
0,60,0,86
0,65,0,0
0,57,0,1
0,57,0,0
0,65,0,0
0,60,0,1
0,57,73,1
0,57,61,0
0,65,61,0
0,60,74,1
0,65,74,2
0,42,32,0
0,60,61,1
0,42,0,3
0,57,0,86
0,57,0,0
0,65,0,0
0,60,0,1
0,29,0,2
0,65,0,0
0,60,0,1
0,60,70,1
0,36,89,1
0,42,76,0
0,55,69,1
0,55,67,0
0,64,69,1
0,60,67,0
0,64,67,0
0,42,0,2
0,64,0,87
0,60,0,1
0,36,0,1
0,64,57,0
0,55,0,1
0,55,0,0
0,60,69,0
0,64,0,1
0,60,0,0
0,36,90,1
0,42,32,0
0,55,69,1
0,55,57,1
0,60,57,0
0,64,69,1
0,42,0,1
0,64,0,86
0,60,0,1
0,60,0,0
0,55,0,2
0,64,0,0
0,36,0,0
0,60,69,0
0,55,0,1
0,64,69,0
0,64,89,1
0,55,69,0
0,36,89,1
0,55,93,0
0,42,119,0
0,60,90,1
0,42,0,3
0,60,0,86
0,55,0,1
0,64,0,0
0,64,0,1
0,55,0,1
0,55,57,0
0,60,57,0
0,60,0,1
0,64,57,0
0,42,29,2
0,55,65,2
0,60,64,0
0,64,62,0
0,42,0,2
0,64,0,40
0,55,0,2
0,64,56,0
0,60,0,1
0,55,55,1
0,60,52,1
0,60,0,41
0,55,0,0
0,64,0,1
0,64,0,0
0,36,0,2
0,55,0,0
0,59,66,0
0,60,0,1
0,31,88,2
0,62,80,0
0,42,81,0
0,62,66,1
0,59,82,2
0,67,82,0
0,55,66,0
0,42,0,1
0,67,0,39
0,62,0,2
0,59,0,0
0,67,69,0
0,59,67,2
0,62,68,2
0,67,0,41
0,59,0,0
0,59,0,2
0,31,0,1
0,59,57,0
0,62,0,1
0,62,0,0
0,55,0,2
0,31,88,0
0,59,71,0
0,67,71,0
0,42,34,0
0,62,71,2
0,55,57,0
0,62,57,1
0,42,0,1
0,59,0,86
0,62,0,2
0,59,0,1
0,67,0,0
0,31,0,0
0,62,0,0
0,62,74,1
0,55,0,1
0,62,81,0
0,31,88,1
0,67,83,0
0,40,124,0
0,46,96,0
0,59,82,2
0,55,74,1
0,59,74,0
0,46,0,1
0,40,0,0
0,62,0,87
0,59,0,1
0,62,0,0
0,59,0,0
0,67,0,1
0,55,0,1
0,59,73,0
0,59,61,0
0,55,61,2
0,62,61,0
0,62,72,1
0,67,72,0
0,69,124,60
0,59,0,13
0,59,0,0
0,62,0,2
0,31,0,0
0,55,0,0
0,64,75,0
0,67,0,1
0,62,0,0
0,33,112,2
0,64,125,0
0,57,77,0
0,60,75,0
0,57,67,0
0,35,127,0
0,49,81,0
0,60,67,1
0,64,67,2
0,49,0,1
0,35,0,0
0,64,0,11
0,57,0,1
0,60,0,1
0,60,0,0
0,33,0,1
0,64,0,0
0,57,0,0
0,57,70,0
0,60,71,1
0,60,57,0
0,64,0,2
0,33,109,0
0,64,122,0
0,35,126,0
0,46,70,0
0,57,57,1
0,64,57,1
0,64,71,1
0,46,0,1
0,35,0,0
0,57,0,2
0,60,0,1
0,60,0,0
0,33,0,2
0,64,0,0
0,64,0,0
0,64,0,1
0,57,0,0
0,64,69,1
0,33,112,1
0,64,124,0
0,64,89,0
0,60,69,0
0,40,124,0
0,57,88,2
0,60,90,1
0,57,69,0
0,40,0,1
0,64,0,2
0,60,0,5
0,64,0,0
0,64,0,1
0,60,0,0
0,57,0,1
0,57,0,0
0,60,66,0
0,60,126,2
0,57,66,0
0,57,57,0
0,42,59,0
0,64,66,1
0,60,57,0
0,64,57,0
0,42,0,3
0,60,0,20
0,57,0,2
0,64,0,1
0,57,61,2
0,60,60,2
0,64,60,1
0,57,0,2
0,57,0,0
0,33,0,0
0,65,66,0
0,60,0,1
0,60,0,0
0,64,0,0
0,64,0,2
0,29,109,0
0,60,78,0
0,35,110,0
0,42,96,0
0,57,78,1
0,65,80,0
0,60,66,1
0,57,66,1
0,42,0,1
0,35,0,0
0,60,0,22
0,65,0,16
0,60,0,1
0,65,67,1
0,57,0,1
0,60,69,0
0,57,67,4
0,65,0,22
0,65,0,0
0,60,0,1
0,57,0,1
0,29,0,1
0,65,70,0
0,57,69,1
0,57,0,1
0,60,0,0
0,29,108,1
0,65,57,0
0,42,56,0
0,57,57,1
0,60,71,1
0,60,57,1
0,42,0,1
0,65,0,12
0,57,0,1
0,57,0,1
0,65,0,1
0,29,0,0
0,60,0,1
0,57,74,0
0,60,0,1
0,29,109,1
0,57,82,0
0,60,81,0
0,40,124,0
0,42,111,0
0,60,74,1
0,65,83,2
0,65,74,0
0,42,0,1
0,40,0,0
0,57,0,12
0,60,0,0
0,60,0,1
0,65,0,0
0,57,0,0
0,60,74,0
0,65,0,1
0,57,73,0
0,60,61,0
0,65,61,0
0,57,61,1
0,65,74,1
0,42,55,0
0,42,0,4
0,60,0,15
0,60,0,1
0,57,0,0
0,65,0,0
0,57,0,1
0,65,0,1
0,29,0,0
0,55,67,1
0,55,69,1
0,60,67,0
0,36,109,1
0,64,125,0
0,35,127,0
0,46,82,0
0,64,69,2
0,60,70,1
0,64,67,0
0,46,0,1
0,35,0,0
0,55,0,29
0,60,0,1
0,55,0,0
0,36,0,1
0,64,0,0
0,60,0,1
0,64,0,1
0,64,0,0
0,36,110,1
0,64,124,0
0,60,69,0
0,60,57,0
0,35,127,0
0,46,65,0
0,64,57,1
0,55,69,1
0,64,69,1
0,55,57,0
0,46,0,1
0,35,0,0
0,64,0,87
0,64,0,0
0,55,0,1
0,60,0,0
0,60,0,1
0,64,0,0
0,36,0,0
0,64,89,0
0,64,69,0
0,55,0,1
0,55,93,0
0,60,69,0
0,36,109,2
0,64,127,0
0,60,90,0
0,55,69,0
0,40,124,0
0,40,0,4
0,64,0,74
0,64,0,0
0,55,0,1
0,60,0,0
0,64,0,2
0,55,0,0
0,60,0,0
0,64,62,0
0,64,57,0
0,62,125,3
0,60,64,0
0,55,57,0
0,42,48,0
0,55,65,1
0,60,57,0
0,42,0,3
0,64,0,38
0,60,0,3
0,55,0,1
0,64,56,1
0,55,55,1
0,60,52,3
0,64,0,39
0,64,0,2
0,55,0,1
0,55,0,0
0,36,0,0
0,59,66,0
0,60,0,1
0,55,66,1
0,60,0,1
0,31,108,0
0,59,82,0
0,67,82,0
0,35,99,0
0,42,91,0
0,62,80,3
0,62,66,0
0,42,0,1
0,35,0,0
0,62,0,15
0,59,0,24
0,62,0,1
0,67,0,1
0,59,67,0
0,62,68,1
0,67,69,5
0,59,0,39
0,59,0,0
0,62,0,1
0,55,0,1
0,67,0,1
0,31,0,0
0,59,71,1
0,62,71,0
0,67,71,1
0,62,0,1
0,31,108,0
0,35,117,0
0,42,46,0
0,59,57,1
0,55,57,1
0,62,57,1
0,42,0,1
0,35,0,0
0,59,0,87
0,62,0,0
0,67,0,1
0,55,0,1
0,31,0,0
0,59,0,0
0,62,81,2
0,67,83,0
0,55,74,0
0,59,74,0
0,62,0,1
0,31,108,0
0,40,124,0
0,42,116,0
0,59,82,2
0,62,74,0
0,42,0,2
0,40,0,0
0,59,0,88
0,55,0,0
0,59,0,0
0,67,0,0
0,62,0,0
0,59,73,2
0,62,72,0
0,59,61,0
0,62,0,1
0,67,72,0
0,55,61,0
0,42,49,1
0,62,61,2
0,42,0,2
0,87,69,50
0,62,0,37
0,59,0,0
0,59,0,0
0,55,0,1
0,67,0,0
0,31,0,1
0,62,0,2
0,64,75,0
0,33,112,1
0,64,125,0
0,64,67,0
0,35,127,0
0,46,81,0
0,57,77,1
0,57,67,0
0,60,67,0
0,60,75,1
0,46,0,2
0,35,0,0
0,57,0,88
0,64,0,0
0,64,0,0
0,57,0,1
0,64,0,0
0,33,0,0
0,60,0,1
0,57,57,0
0,64,57,0
0,60,0,1
0,57,70,0
0,33,109,1
0,64,122,0
0,35,126,0
0,46,67,0
0,60,71,2
0,64,71,0
0,60,57,1
0,46,0,1
0,35,0,0
0,57,0,87
0,64,0,0
0,57,0,1
0,64,0,0
0,60,0,0
0,64,0,1
0,33,0,0
0,64,89,1
0,60,69,0
0,60,0,1
0,57,69,0
0,33,112,1
0,64,124,0
0,64,69,0
0,40,124,0
0,57,88,3
0,60,90,0
0,40,0,1
0,64,0,83
0,64,0,4
0,60,0,0
0,57,0,0
0,64,0,2
0,64,66,0
0,57,57,0
0,60,0,3
0,57,0,0
0,60,126,0
0,42,59,0
0,57,66,3
0,60,66,0
0,60,57,0
0,64,57,0
0,42,0,1
0,64,0,38
0,60,0,2
0,60,60,2
0,57,0,2
0,64,60,2
0,57,61,1
0,57,0,39
0,57,0,1
0,60,0,0
0,33,0,2
0,57,78,0
0,64,0,2
0,60,0,0
0,57,66,0
0,64,0,1
0,29,109,0
0,65,80,0
0,35,110,0
0,42,96,0
0,60,66,1
0,60,78,1
0,65,66,0
0,42,0,2
0,35,0,0
0,60,0,22
0,57,0,16
0,60,0,3
0,65,0,0
0,60,69,2
0,57,67,1
0,65,67,0
0,65,0,43
0,57,0,0
0,60,0,1
0,60,0,0
0,57,0,1
0,29,0,0
0,65,70,0
0,57,57,0
0,60,57,1
0,65,0,1
0,29,108,1
0,42,56,0
0,57,69,1
0,65,57,0
0,60,71,2
0,42,0,1
0,65,0,86
0,57,0,0
0,57,0,1
0,60,0,0
0,65,0,1
0,29,0,1
0,57,82,0
0,65,74,1
0,60,0,2
0,29,109,0
0,40,124,0
0,42,111,0
0,57,74,1
0,65,83,1
0,60,81,1
0,60,74,0
0,42,0,1
0,40,0,0
0,57,0,86
0,65,0,1
0,65,0,1
0,57,0,2
0,65,74,0
0,65,61,1
0,60,0,1
0,60,0,0
0,57,73,0
0,42,55,0
0,60,61,2
0,60,74,1
0,57,61,0
0,42,0,1
0,65,0,87
0,60,0,1
0,65,0,0
