track,note,velocity,time
0,42,120,0
0,42,0,4
0,42,70,92
0,42,0,4
0,42,70,92
0,42,0,4
0,42,70,92
0,42,0,4
0,48,99,0
0,57,103,0
0,60,100,0
0,52,106,0
0,44,50,2
0,45,102,0
0,44,0,4
0,48,0,18
0,50,104,0
0,52,0,1
0,52,101,21
0,52,65,1
0,44,116,3
0,50,0,2
0,44,0,2
0,52,0,14
0,57,0,14
0,60,0,0
0,57,102,13
0,60,99,0
0,57,95,0
0,60,102,0
0,57,101,0
0,64,104,0
0,44,54,0
0,57,98,0
0,60,96,0
0,52,76,0
0,57,74,0
0,60,83,0
0,69,78,0
0,64,102,1
0,45,77,0
0,44,0,3
0,57,0,37
0,57,0,1
0,64,0,0
0,57,0,0
0,64,0,1
0,60,0,2
0,60,0,0
0,60,0,3
0,60,78,0
0,57,74,1
0,60,0,10
0,57,0,1
0,57,0,1
0,45,0,11
0,60,0,0
0,52,0,0
0,69,0,0
0,57,0,0
0,60,75,0
0,55,104,0
0,53,71,2
0,60,0,8
0,52,0,0
0,53,0,2
0,45,0,0
0,53,100,12
0,57,99,0
0,53,64,0
0,60,75,1
0,41,98,2
0,55,0,3
0,53,0,4
0,60,0,13
0,53,68,1
0,53,0,6
0,53,0,0
0,53,61,18
0,53,61,1
0,60,60,1
0,53,0,8
0,53,0,13
0,60,0,1
0,60,100,22
0,60,98,1
0,53,80,0
0,65,98,1
0,57,99,0
0,53,102,0
0,65,98,0
0,57,97,0
0,44,47,0
0,60,72,0
0,57,110,0
0,57,78,0
0,69,83,0
0,41,78,0
0,48,74,0
0,53,97,1
0,53,76,2
0,44,0,1
0,60,0,8
0,53,0,1
0,53,0,17
0,53,0,0
0,57,0,1
0,57,0,0
0,65,0,5
0,65,0,0
0,41,0,1
0,57,0,1
0,69,0,0
0,53,0,1
0,48,0,0
0,57,0,0
0,60,109,0
0,53,62,1
0,57,60,0
0,60,62,0
0,48,77,0
0,53,76,0
0,57,78,0
0,69,82,0
0,41,81,1
0,60,0,1
0,57,0,0
0,60,0,1
0,57,0,7
0,60,0,2
0,53,0,0
0,53,53,7
0,57,53,1
0,60,56,1
0,69,0,1
0,57,0,1
0,53,0,0
0,48,0,1
0,41,0,0
0,53,56,0
0,48,52,0
0,57,52,0
0,69,52,0
0,41,55,1
0,41,0,4
0,53,0,0
0,41,0,1
0,60,0,0
0,57,0,0
0,69,0,0
0,48,0,0
0,57,0,1
0,53,0,2
0,48,103,13
0,55,100,0
0,60,101,0
0,50,103,23
0,60,0,15
0,48,0,8
0,52,100,1
0,50,0,2
0,52,0,20
0,60,0,15
0,55,0,5
0,60,95,0
0,48,101,1
0,55,104,0
0,67,102,0
0,48,98,0
0,60,96,0
0,55,99,0
0,67,103,0
0,52,96,0
0,52,77,0
0,44,49,1
0,55,98,0
0,60,71,0
0,67,80,0
0,43,81,0
0,55,80,0
0,60,76,0
0,67,104,2
0,44,0,2
0,60,0,19
0,55,0,12
0,48,0,3
0,48,0,0
0,67,0,2
0,60,0,2
0,60,0,0
0,55,0,1
0,55,0,0
0,67,0,2
0,67,0,0
0,60,97,2
0,55,73,1
0,55,66,0
0,67,77,3
0,55,0,12
0,55,0,8
0,67,0,1
0,55,101,0
0,59,100,0
0,55,65,0
0,67,97,1
0,60,0,2
0,52,0,11
0,55,0,3
0,67,0,7
0,55,0,0
0,52,0,0
0,43,0,0
0,60,0,0
0,43,98,5
0,67,0,7
0,59,0,9
0,55,0,2
0,55,59,1
0,59,67,0
0,59,0,11
0,55,0,2
0,55,59,10
0,59,60,1
0,59,0,16
0,55,0,4
0,62,104,27
0,55,102,0
0,50,98,0
0,62,102,0
0,55,96,0
0,50,95,0
0,55,103,0
0,59,97,0
0,43,83,0
0,67,99,1
0,67,100,0
0,44,47,0
0,55,102,0
0,55,81,0
0,59,77,0
0,67,77,1
0,44,0,3
0,59,0,24
0,55,0,3
0,55,0,3
0,50,0,4
0,55,0,0
0,55,0,0
0,50,0,0
0,67,0,2
0,67,0,0
0,67,0,0
0,55,0,5
0,59,0,0
0,43,0,2
0,55,64,0
0,59,62,0
0,43,74,0
0,55,64,1
0,55,78,0
0,59,74,0
0,62,0,1
0,62,0,0
0,67,77,0
0,59,0,10
0,55,0,1
0,55,0,3
0,67,0,7
0,59,0,1
0,43,0,0
0,55,49,0
0,59,52,0
0,67,52,0
0,43,51,0
0,55,0,1
0,55,60,0
0,55,53,0
0,59,52,0
0,43,0,2
0,67,0,1
0,59,0,2
0,55,0,0
0,59,0,2
0,43,0,1
0,55,0,4
0,55,0,6
0,48,100,0
0,57,104,0
0,60,99,0
0,52,106,0
0,45,101,2
0,48,0,22
0,50,100,0
0,52,0,1
0,52,102,21
0,52,62,1
0,50,0,5
0,52,0,16
0,57,0,14
0,60,0,0
0,57,106,13
0,60,102,1
0,57,104,0
0,60,98,0
0,57,96,0
0,64,95,0
0,44,53,0
0,57,99,0
0,60,97,0
0,52,83,0
0,57,78,0
0,60,79,0
0,69,74,0
0,64,97,1
0,45,75,0
0,44,0,3
0,57,0,37
0,57,0,1
0,64,0,0
0,57,0,0
0,64,0,1
0,60,0,2
0,60,0,0
0,60,0,3
0,60,79,0
0,57,74,1
0,60,0,10
0,57,0,1
0,57,0,1
0,45,0,11
0,60,0,0
0,52,0,0
0,69,0,0
0,57,0,0
0,60,77,0
0,55,108,0
0,53,78,2
0,60,0,8
0,52,0,0
0,53,0,2
0,45,0,0
0,53,95,12
0,57,98,0
0,53,65,0
0,60,72,1
0,41,101,2
0,55,0,3
0,53,0,4
0,60,0,13
0,53,64,1
0,53,0,6
0,53,0,0
0,53,68,18
0,53,65,1
0,60,67,1
0,53,0,8
0,53,0,13
0,60,0,1
0,60,102,22
0,60,96,1
0,53,76,0
0,65,102,1
0,57,96,0
0,53,100,0
0,65,100,0
0,57,99,0
0,44,49,0
0,60,80,0
0,57,103,0
0,57,83,0
0,69,75,0
0,41,76,0
0,48,75,0
0,53,103,1
0,53,73,2
0,44,0,1
0,60,0,8
0,53,0,1
0,53,0,17
0,53,0,0
0,57,0,1
0,57,0,0
0,65,0,5
0,65,0,0
0,41,0,1
0,57,0,1
0,69,0,0
0,53,0,1
0,48,0,0
0,57,0,0
0,60,104,0
0,53,62,1
0,57,64,0
0,60,68,0
0,48,77,0
0,53,76,0
0,57,83,0
0,69,77,0
0,41,79,1
0,60,0,1
0,57,0,0
0,60,0,1
0,57,0,7
0,60,0,2
0,53,0,0
0,53,54,8
0,57,56,1
0,60,51,1
0,69,0,1
0,57,0,1
0,53,0,0
0,48,0,1
0,41,0,0
0,53,51,0
0,48,59,0
0,57,59,0
0,69,54,0
0,41,50,1
0,41,0,4
0,53,0,0
0,41,0,1
0,60,0,0
0,57,0,0
0,69,0,0
0,48,0,0
0,57,0,1
0,53,0,2
0,48,100,13
0,55,96,0
0,60,102,0
0,50,101,23
0,60,0,15
0,48,0,8
0,52,101,1
0,50,0,3
0,52,0,20
0,60,0,15
0,55,0,5
0,60,101,0
0,48,103,1
0,55,102,0
0,67,102,0
0,48,103,0
0,60,97,0
0,55,95,0
0,67,103,0
0,52,104,0
0,52,79,0
0,44,47,1
0,55,104,0
0,60,75,0
0,67,79,0
0,43,81,0
0,55,81,0
0,60,74,0
0,67,99,2
0,44,0,2
0,60,0,19
0,55,0,12
0,48,0,3
0,48,0,0
0,67,0,2
0,60,0,2
0,60,0,0
0,55,0,1
0,55,0,0
0,67,0,2
0,67,0,0
0,60,100,2
0,55,78,1
0,55,65,0
0,67,74,3
0,55,0,12
0,55,0,8
0,67,0,1
0,55,99,0
0,59,99,0
0,55,64,0
0,67,97,1
0,60,0,2
0,52,0,11
0,55,0,3
0,67,0,7
0,55,0,0
0,52,0,0
0,43,0,0
0,60,0,0
0,43,96,5
0,67,0,7
0,59,0,9
0,55,0,2
0,55,64,1
0,59,63,0
0,59,0,11
0,55,0,2
0,55,59,10
0,59,67,1
0,59,0,16
0,55,0,4
0,40,80,23
0,38,94,0
0,38,0,4
0,40,0,0
0,62,103,0
0,55,104,0
0,50,97,0
0,62,104,0
0,55,102,0
0,50,104,0
0,46,79,0
0,55,100,0
0,59,101,0
0,43,79,0
0,67,100,1
0,67,95,0
0,44,47,0
0,55,108,0
0,55,83,0
0,59,77,0
0,67,80,1
0,46,0,2
0,44,0,1
0,59,0,24
0,55,0,3
0,55,0,3
0,50,0,4
0,55,0,0
0,55,0,0
0,50,0,0
0,67,0,2
0,67,0,0
0,67,0,0
0,59,0,5
0,55,0,0
0,43,0,2
0,46,73,0
0,55,66,0
0,59,63,0
0,43,80,0
0,55,60,1
0,55,77,0
0,59,76,0
0,62,0,1
0,62,0,0
0,67,74,0
0,46,0,2
0,59,0,8
0,55,0,1
0,55,0,3
0,67,0,7
0,43,0,1
0,59,0,0
0,55,47,0
0,59,51,0
0,67,52,0
0,43,54,0
0,55,0,1
0,55,64,0
0,55,55,0
0,59,53,0
0,43,0,2
0,67,0,1
0,59,0,2
0,55,0,0
0,59,0,2
0,43,0,1
0,55,0,4
0,55,0,6
0,52,104,0
0,64,102,0
0,60,97,0
0,33,96,0
0,36,91,0
0,46,74,0
0,44,47,0
0,49,80,0
0,69,100,0
0,48,104,0
0,57,99,0
0,60,100,0
0,52,103,0
0,45,100,2
0,49,0,2
0,44,0,0
0,46,0,0
0,36,0,0
0,48,0,4
0,50,100,0
0,52,0,1
0,60,0,19
0,60,97,1
0,48,103,0
0,57,103,1
0,52,103,0
0,36,76,1
0,52,63,0
0,44,117,1
0,36,0,3
0,44,0,1
0,50,0,0
0,64,0,4
0,52,0,8
0,52,0,4
0,48,0,11
0,57,0,3
0,57,0,0
0,60,0,0
0,60,0,1
0,64,103,12
0,52,101,0
0,40,83,0
0,38,97,0
0,46,10,0
0,57,109,0
0,60,102,1
0,60,102,0
0,57,100,0
0,60,98,0
0,57,99,0
0,64,101,0
0,44,50,0
0,57,96,0
0,60,96,0
0,52,82,0
0,57,78,0
0,60,79,0
0,69,78,0
0,64,99,1
0,45,75,0
0,46,0,2
0,38,0,0
0,40,0,0
0,44,0,1
0,57,0,1
0,64,0,1
0,57,0,0
0,57,0,0
0,64,0,1
0,60,0,1
0,60,0,0
0,60,0,2
0,48,101,0
0,60,97,0
0,60,0,1
0,57,102,0
0,44,115,0
0,60,71,0
0,52,0,1
0,57,75,0
0,44,0,3
0,64,0,0
0,60,0,3
0,57,0,1
0,57,0,1
0,60,0,4
0,45,0,0
0,57,0,0
0,52,0,0
0,69,0,0
0,60,80,0
0,55,108,0
0,53,73,2
0,60,0,2
0,52,0,0
0,45,0,2
0,53,0,0
0,33,0,2
0,48,0,0
0,29,103,1
0,44,52,0
0,53,95,0
0,57,97,0
0,53,63,0
0,60,0,1
0,57,0,0
0,60,73,0
0,44,0,2
0,41,100,0
0,55,0,2
0,53,0,2
0,60,0,3
0,53,66,0
0,53,0,2
0,53,0,0
0,44,118,3
0,53,67,0
0,53,65,1
0,60,65,1
0,44,0,1
0,53,0,2
0,53,0,3
0,60,0,1
0,60,99,2
0,60,97,1
0,40,87,0
0,38,101,0
0,44,46,0
0,53,78,0
0,65,97,1
0,57,99,0
0,53,99,0
0,65,97,0
0,57,95,0
0,60,77,0
0,57,111,0
0,57,83,0
0,69,76,0
0,41,75,0
0,48,77,0
0,53,102,1
0,44,0,2
0,38,0,0
0,40,0,0
0,53,80,0
0,60,0,8
0,53,0,1
0,53,0,17
0,53,0,0
0,57,0,1
0,57,0,0
0,65,0,5
0,65,0,0
0,41,0,1
0,69,0,1
0,57,0,0
0,53,0,1
0,48,0,0
0,57,0,0
0,60,104,0
0,44,116,1
0,53,66,0
0,57,61,0
0,60,59,0
0,48,76,0
0,53,83,0
0,57,82,0
0,69,74,0
0,41,81,1
0,57,0,1
0,60,0,0
0,60,0,1
0,44,0,1
0,57,0,6
0,53,0,2
0,60,0,0
0,64,87,9
0,52,90,0
0,53,56,0
0,60,89,1
0,57,56,0
0,60,55,1
0,69,0,1
0,53,0,1
0,57,0,0
0,48,0,1
0,41,0,0
0,53,57,0
0,48,52,0
0,57,57,0
0,69,53,0
0,41,50,1
0,41,0,4
0,53,0,0
0,41,0,1
0,60,0,0
0,57,0,0
0,48,0,0
0,69,0,0
0,57,0,1
0,53,0,2
0,64,0,8
0,52,0,1
0,29,0,1
0,64,104,0
0,52,103,0
0,36,103,0
0,36,88,0
0,46,80,0
0,60,0,1
0,60,98,0
0,44,49,0
0,48,103,0
0,55,99,0
0,60,102,0
0,46,0,3
0,36,0,0
0,44,0,1
0,64,0,7
0,50,102,0
0,60,0,3
0,52,0,0
0,60,0,2
0,48,0,8
0,64,100,1
0,52,104,0
0,36,68,0
0,52,96,0
0,60,96,1
0,44,120,0
0,36,0,3
0,44,0,1
0,50,0,2
0,64,0,15
0,52,0,2
0,60,0,2
0,52,0,1
0,60,0,14
0,55,0,5
0,60,102,0
0,64,102,1
0,52,100,0
0,48,104,0
0,55,95,0
0,67,102,0
0,48,104,0
0,60,98,0
0,55,103,0
0,67,95,0
0,40,82,0
0,38,96,0
0,52,104,0
0,52,79,0
0,60,102,1
0,44,48,0
0,46,8,0
0,55,104,0
0,60,77,0
0,67,83,0
0,43,75,0
0,55,82,0
0,60,82,0
0,67,102,2
0,38,0,1
0,40,0,0
0,46,0,1
0,44,0,0
0,60,0,19
0,55,0,12
0,48,0,2
0,48,0,0
0,67,0,2
0,60,0,2
0,60,0,0
0,55,0,1
0,55,0,0
0,67,0,1
0,67,0,0
0,62,102,2
0,50,95,0
0,59,98,0
0,44,115,0
0,60,96,0
0,55,78,0
0,55,61,0
0,52,0,1
0,60,0,1
0,64,0,1
0,44,0,0
0,67,76,0
0,55,0,3
0,55,0,3
0,67,0,1
0,55,95,0
0,59,97,0
0,55,66,0
0,67,101,1
0,60,0,2
0,52,0,2
0,55,0,1
0,50,0,3
0,31,101,0
0,36,93,0
0,69,97,0
0,55,0,1
0,52,0,0
0,43,0,0
0,60,0,0
0,67,0,0
0,36,0,0
0,44,50,0
0,36,0,1
0,59,0,0
0,44,0,1
0,62,0,0
0,43,101,1
0,67,0,2
0,59,0,7
0,55,0,2
0,55,64,1
0,59,67,0
0,59,0,11
0,55,0,2
0,36,97,10
0,44,113,0
0,72,100,0
0,55,66,0
0,59,62,1
0,44,0,3
0,36,0,0
0,69,0,3
0,59,0,10
0,55,0,4
0,62,104,27
0,55,102,0
0,50,101,0
0,62,102,0
0,55,99,0
0,50,96,0
0,40,80,0
0,38,94,0
0,44,46,0
0,55,101,0
0,59,99,0
0,43,76,0
0,67,100,1
0,67,103,0
0,55,111,0
0,55,74,0
0,59,83,0
0,67,74,1
0,44,0,2
0,38,0,0
0,40,0,0
0,59,0,25
0,55,0,3
0,55,0,3
0,50,0,4
0,55,0,0
0,50,0,0
0,55,0,0
0,67,0,2
0,67,0,0
0,67,0,0
0,59,0,5
0,55,0,0
0,43,0,2
0,55,64,0
0,59,65,0
0,43,80,0
0,44,120,1
0,36,71,0
0,55,60,0
0,55,81,0
0,59,80,0
0,62,0,1
0,62,0,0
0,67,82,0
0,36,0,3
0,44,0,0
0,59,0,7
0,55,0,1
0,55,0,3
0,67,0,2
0,43,0,1
0,59,0,0
0,55,48,0
0,59,47,0
0,67,56,0
0,43,53,0
0,55,0,1
0,55,63,0
0,55,57,0
0,59,57,0
0,72,0,1
0,62,84,0
0,50,82,0
0,59,89,0
0,43,0,1
0,67,0,1
0,55,0,1
0,59,0,0
0,59,0,2
0,43,0,1
0,55,0,4
0,55,0,2
0,63,102,3
0,52,104,0
0,64,101,0
0,60,103,0
0,33,96,0
0,36,89,0
0,46,80,0
0,44,52,0
0,48,97,0
0,57,96,0
0,60,98,0
0,52,103,0
0,31,0,2
0,45,98,0
0,50,0,1
0,59,0,0
0,36,0,1
0,44,0,0
0,46,0,0
0,62,0,1
0,48,0,4
0,50,98,0
0,52,0,1
0,60,0,4
0,60,102,1
