track,note,velocity,time
1,62,125,14952
1,55,115,0
1,59,122,0
1,33,127,0
1,62,122,76
1,59,118,0
1,55,115,0
1,33,113,0
1,55,63,188
1,33,109,188
1,57,127,128
1,54,112,0
1,62,118,0
1,57,115,104
1,62,116,0
1,54,108,0
1,54,75,60
1,33,125,192
1,52,118,128
1,57,118,0
1,61,114,0
1,52,83,88
1,57,81,96
1,33,106,96
1,52,109,128
1,57,120,0
1,61,114,0
1,62,111,104
1,54,107,0
1,57,116,0
1,61,114,20
1,57,111,0
1,52,116,0
1,33,127,20
1,62,127,128
1,55,127,0
1,59,125,0
1,59,125,56
1,62,116,0
1,55,118,0
1,33,105,96
1,57,122,72
1,54,114,0
1,62,116,0
1,62,118,64
1,57,115,0
1,54,114,0
1,54,75,32
1,33,118,40
1,57,115,68
1,61,114,0
1,52,115,0
1,52,82,48
1,33,108,20
1,62,116,36
1,54,116,0
1,57,127,0
1,52,113,24
1,61,112,0
1,57,113,0
1,33,115,152
1,59,127,120
1,55,120,0
1,62,127,0
1,55,127,60
1,62,127,0
1,59,125,0
1,33,115,84
1,62,111,48
1,57,115,0
1,54,114,0
1,62,120,88
1,57,127,0
1,54,116,0
1,33,115,104
1,57,109,44
1,61,116,0
1,52,111,0
1,33,113,88
1,52,106,88
1,57,115,0
1,61,108,0
1,54,108,196
1,62,108,0
1,57,116,0
1,61,116,24
1,52,116,0
1,57,115,0
1,62,127,20
1,59,125,0
1,33,125,0
1,55,127,0
1,55,73,144
1,33,115,180
1,62,115,60
1,57,118,0
1,54,116,0
1,57,115,28
1,52,113,0
1,33,125,0
1,45,63,184
1,57,70,120
1,45,48,188
1,57,41,256
1,57,20,192
1,45,62,0
1,33,97,128
1,45,58,4
1,57,73,256
1,45,48,164
1,57,66,12
1,45,53,96
1,33,94,36
1,33,123,108
1,52,114,0
1,57,118,0
1,61,118,0
1,32,121,8
1,56,114,0
1,59,121,0
1,61,118,0
1,64,111,0
1,54,112,384
1,62,102,0
1,57,114,0
1,59,112,0
1,30,125,0
1,35,90,224
1,62,107,52
1,57,105,0
1,23,112,0
1,66,109,0
1,37,104,64
1,25,104,0
1,61,105,0
1,57,98,0
1,64,109,0
1,38,102,72
1,66,114,0
1,62,107,0
1,57,105,0
1,26,109,0
1,62,109,112
1,64,109,0
1,59,123,0
1,28,105,0
1,57,112,0
1,40,104,0
1,40,104,12
1,62,96,104
1,59,107,0
1,64,101,0
1,56,105,0
1,40,100,36
1,62,104,76
1,57,116,0
1,54,112,0
1,57,111,68
1,52,105,0
1,61,109,0
1,45,87,0
1,33,97,0
1,57,82,356
1,57,80,32
1,50,118,0
1,62,105,0
1,66,111,0
1,69,92,4
1,49,112,28
1,64,101,0
1,61,100,0
1,49,101,64
1,47,121,0
1,62,107,0
1,57,87,0
1,59,116,0
1,57,74,28
1,47,36,60
1,45,114,0
1,64,109,0
1,61,114,0
1,57,107,0
1,52,86,8
1,57,81,128
1,61,85,128
1,64,97,100
1,56,105,52
1,59,107,0
1,61,102,0
1,64,91,0
1,44,121,0
1,56,70,16
1,64,93,96
1,59,93,0
1,61,88,0
1,44,78,100
1,54,107,40
1,57,114,0
1,59,114,0
1,62,97,0
1,42,112,0
1,35,84,440
1,23,109,24
1,62,104,0
1,57,100,0
1,66,107,0
1,57,94,60
1,61,109,0
1,64,112,0
1,37,97,0
1,25,93,0
1,62,104,68
1,57,93,0
1,66,107,0
1,26,104,0
1,38,94,0
1,57,98,84
1,40,102,0
1,64,109,0
1,62,105,0
1,28,102,0
1,54,82,336
1,57,82,128
1,62,64,128
1,64,80,4
1,40,100,96
1,56,82,0
1,62,87,0
1,59,94,0
1,28,100,0
1,56,68,60
1,40,96,156
1,59,114,72
1,57,118,0
1,62,105,0
1,54,112,0
1,52,112,120
1,33,96,0
1,61,107,0
1,57,109,0
1,52,59,84
1,33,72,20
1,61,101,124
1,57,102,0
1,52,97,0
1,62,91,152
1,54,96,0
1,28,114,0
1,57,98,0
1,52,109,88
1,61,111,0
1,30,114,0
1,57,112,0
1,59,107,160
1,50,101,0
1,55,99,0
1,31,114,0
1,50,74,116
1,50,74,96
1,59,107,0
1,55,80,64
1,50,82,56
1,59,87,104
1,38,105,72
1,57,112,0
1,54,123,0
1,50,100,0
1,50,65,8
1,54,102,40
1,62,83,0
1,57,104,0
1,54,64,24
1,61,104,8
1,57,109,0
1,52,109,0
1,45,121,0
1,52,48,52
1,52,57,200
1,45,104,176
1,57,104,72
1,61,116,0
1,64,118,0
1,57,101,4
1,66,114,0
1,62,112,0
1,61,114,76
1,57,107,0
1,64,125,0
1,55,104,156
1,43,110,0
1,50,111,0
1,59,112,0
1,50,71,52
1,62,97,0
1,59,72,0
1,50,82,36
1,55,85,128
1,59,90,108
1,54,114,48
1,50,96,0
1,38,109,0
1,57,107,0
1,50,59,76
1,38,93,60
1,57,116,36
1,54,114,0
1,62,101,0
1,61,105,12
1,57,116,0
1,45,123,0
1,52,105,0
1,52,44,84
1,45,97,0
1,61,114,36
1,52,116,0
1,57,118,0
1,52,88,104
1,40,107,36
1,52,73,36
1,42,116,120
1,52,63,12
1,59,111,72
1,50,104,0
1,55,106,0
1,43,119,0
1,50,77,100
1,55,106,156
1,59,111,0
1,50,105,0
1,50,76,8
1,54,121,8
1,57,111,0
1,50,87,0
1,38,107,0
1,50,66,120
1,50,79,12
1,62,101,0
1,57,87,188
1,54,76,120
1,52,111,76
1,61,102,0
1,57,107,0
1,45,112,0
1,52,63,148
1,45,101,28
1,52,105,20
1,57,114,0
1,61,112,0
1,40,111,384
1,42,104,8
1,62,102,132
1,59,111,0
1,55,104,0
1,43,110,0
1,62,62,40
1,59,73,0
1,55,68,0
1,59,85,200
1,62,81,0
1,55,82,0
1,54,74,248
1,62,76,0
1,57,80,0
1,38,90,0
1,62,72,72
1,54,74,0
1,57,81,0
1,54,80,144
1,57,83,0
1,62,80,0
1,54,61,116
1,52,84,64
1,57,88,0
1,61,88,0
1,45,100,0
1,52,98,4
1,40,102,0
1,54,96,16
1,42,101,0
1,45,102,0
1,57,104,0
1,33,123,16
1,52,114,0
1,57,118,0
1,61,118,0
1,32,121,8
1,56,114,0
1,59,121,0
1,61,118,0
1,64,111,0
1,54,112,384
1,62,102,0
1,57,114,0
1,59,112,0
1,30,125,0
1,35,90,224
1,62,107,52
1,57,105,0
1,23,112,0
1,66,109,0
1,37,104,64
1,25,104,0
1,61,105,0
1,57,98,0
1,64,109,0
1,38,102,72
1,66,114,0
1,62,107,0
1,57,105,0
1,26,109,0
1,62,109,112
1,64,109,0
1,59,123,0
1,28,105,0
1,57,112,0
1,40,104,0
1,40,104,12
1,62,96,104
1,59,107,0
1,64,101,0
1,56,105,0
1,40,100,36
1,62,104,76
1,57,116,0
1,54,112,0
1,57,111,68
1,52,105,0
1,61,109,0
1,45,87,0
1,33,97,0
1,57,82,356
1,57,80,32
1,50,118,0
1,62,105,0
1,66,111,0
1,69,92,4
1,49,112,28
1,64,101,0
1,61,100,0
1,47,121,64
1,62,107,0
1,57,87,0
1,59,116,0
1,45,114,100
1,64,109,0
1,61,114,0
1,57,107,0
1,52,86,8
1,57,81,128
1,61,85,128
1,64,97,100
1,56,105,52
1,59,107,0
1,61,102,0
1,64,91,0
1,44,121,0
1,56,70,16
1,64,93,96
1,59,93,0
1,61,88,0
1,44,78,100
1,54,107,40
1,57,114,0
1,59,114,0
1,62,97,0
1,42,112,0
1,35,84,440
1,23,109,24
1,62,104,0
1,57,100,0
1,66,107,0
1,57,94,60
1,61,109,0
1,64,112,0
1,37,97,0
1,25,93,0
1,62,104,68
1,57,93,0
1,66,107,0
1,26,104,0
1,38,94,0
1,57,98,84
1,40,102,0
1,64,109,0
1,62,105,0
1,28,102,0
1,54,82,336
1,57,82,128
1,62,64,128
1,64,80,4
1,40,100,96
1,56,82,0
1,62,87,0
1,59,94,0
1,28,100,0
1,56,68,60
1,40,96,156
1,59,114,72
1,57,118,0
1,62,105,0
1,54,112,0
1,52,112,120
1,33,96,0
1,61,107,0
1,57,109,0
1,52,59,84
1,33,72,20
1,61,101,124
1,57,102,0
1,52,97,0
1,62,91,152
1,54,96,0
1,28,114,0
1,57,98,0
1,52,109,88
1,61,111,0
1,30,114,0
1,57,112,0
1,59,107,160
1,50,101,0
1,55,99,0
1,31,114,0
1,50,74,116
1,50,74,96
1,59,107,0
1,55,80,64
1,50,82,56
1,59,87,104
1,38,105,72
1,57,112,0
1,54,123,0
1,50,100,0
1,50,65,8
1,54,102,40
1,62,83,0
1,57,104,0
1,54,64,24
1,61,104,8
1,57,109,0
1,52,109,0
1,45,121,0
1,52,48,52
1,52,57,200
1,45,104,176
1,57,104,72
1,61,116,0
1,64,118,0
1,57,101,4
1,66,114,0
1,62,112,0
1,61,114,76
1,57,107,0
1,64,125,0
1,55,104,156
1,43,110,0
1,50,111,0
1,59,112,0
1,50,71,52
1,62,97,0
1,59,72,0
1,50,82,36
1,55,85,128
1,59,90,108
1,54,114,48
1,50,96,0
1,38,109,0
1,57,107,0
1,50,59,76
1,38,93,60
1,57,116,36
1,54,114,0
1,62,101,0
1,61,105,12
1,57,116,0
1,45,123,0
1,52,105,0
1,52,44,84
1,45,97,0
1,61,114,36
1,52,116,0
1,57,118,0
1,52,88,104
1,40,107,36
1,52,73,36
1,42,116,120
1,52,63,12
1,59,111,72
1,50,104,0
1,55,106,0
1,43,119,0
1,50,77,100
1,55,106,156
1,59,111,0
1,50,105,0
1,50,76,8
1,54,121,8
1,57,111,0
1,50,87,0
1,42,107,0
1,50,66,120
1,50,79,12
1,62,101,0
1,57,87,188
1,54,76,120
1,52,111,76
1,61,102,0
1,57,107,0
1,45,112,0
1,52,63,148
1,45,101,28
1,52,105,20
1,57,114,0
1,61,112,0
1,40,111,384
1,42,104,8
1,62,102,132
1,59,111,0
1,55,104,0
1,43,110,0
1,62,62,40
1,59,73,0
1,55,68,0
1,59,85,200
1,62,81,0
1,55,82,0
1,54,74,248
1,62,76,0
1,57,80,0
1,42,76,0
1,62,72,72
1,54,74,0
1,57,81,0
1,54,80,144
1,57,83,0
1,62,80,0
1,54,61,116
1,45,104,64
1,33,109,0
1,57,102,0
1,21,100,0
1,52,105,0
1,57,111,0
1,33,127,0
1,69,105,0
1,61,110,212
1,73,103,0
1,37,121,0
1,64,113,168
1,76,115,0
1,40,127,0
1,57,106,52
1,61,116,0
1,66,110,0
1,30,126,0
1,61,84,4
1,57,76,0
1,57,95,200
1,66,102,0
1,61,108,0
1,30,118,0
1,57,108,68
1,61,118,0
1,66,112,0
1,66,96,64
1,57,89,0
1,61,100,0
1,57,98,128
1,66,105,0
1,61,108,0
1,30,86,160
1,28,115,0
1,59,101,0
1,64,98,0
1,56,91,0
1,30,108,112
1,57,113,0
1,66,108,0
1,61,112,0
1,61,100,44
1,57,87,0
1,66,95,0
1,61,114,48
1,57,106,0
1,66,114,0
1,61,96,48
1,57,86,0
1,66,99,0
1,66,103,48
1,61,100,0
1,57,85,0
1,57,83,28
1,30,77,0
1,69,113,76
1,57,116,0
1,33,127,0
1,57,101,3108
1,33,127,128
1,69,115,0
1,37,118,200
1,61,103,0
1,73,103,0
1,40,118,240
1,76,86,0
1,64,94,0
1,66,112,72
1,57,113,0
1,30,126,0
1,61,114,0
1,57,78,48
1,57,75,144
1,66,108,136
1,61,121,0
1,57,111,0
1,57,75,0
1,61,72,156
1,30,97,208
1,59,104,48
1,28,115,0
1,64,100,0
1,56,95,0
1,66,118,44
1,61,116,0
1,57,118,0
1,30,112,0
1,30,116,16
1,61,116,4
1,57,108,0
1,66,97,0
1,58,66,132
1,28,127,0
1,59,122,0
1,64,104,0
1,56,103,0
1,56,75,308
1,56,82,0
1,59,86,0
1,64,84,0
1,28,115,0
1,56,107,112
1,59,118,0
1,64,104,0
1,56,70,80
1,56,72,160
1,64,75,0
1,59,84,0
1,28,90,96
1,56,108,4
1,64,96,0
1,28,127,0
1,62,118,0
1,56,81,64
1,62,94,0
1,64,78,0
1,28,86,28
1,56,67,128
1,62,82,0
1,64,75,0
1,28,113,96
1,64,98,128
1,62,109,0
1,56,105,0
1,56,54,4
1,28,91,148
1,28,120,260
1,68,114,80
1,62,108,0
1,64,102,0
1,62,80,64
1,64,78,0
1,68,82,0
1,28,125,12
1,64,96,128
1,62,102,0
1,68,108,0
1,68,112,116
1,62,111,0
1,64,108,0
1,68,54,56
1,64,75,0
1,62,79,0
1,28,113,136
1,28,116,252
1,71,108,48
1,68,107,0
1,62,104,84
1,64,96,0
1,68,105,0
1,71,100,0
1,62,111,164
1,64,104,0
1,68,112,0
1,71,111,0
1,28,111,20
1,68,118,128
1,71,127,0
1,62,118,0
1,64,108,0
1,62,80,0
1,64,76,0
1,64,116,384
1,28,127,0
1,76,113,0
1,28,127,552
1,29,109,128
1,30,118,20
1,59,107,28
1,50,101,0
1,55,99,0
1,31,114,0
1,50,74,116
1,50,74,96
1,59,107,0
1,55,80,64
1,50,82,56
1,59,87,104
1,38,105,72
1,57,112,0
1,54,123,0
1,50,100,0
1,50,65,8
1,54,102,40
1,62,83,0
1,57,104,0
1,54,64,24
1,61,104,8
1,57,109,0
1,52,109,0
1,45,121,0
1,52,48,52
1,52,57,200
1,45,104,176
1,57,104,72
1,61,116,0
1,64,118,0
1,57,101,4
1,66,114,0
1,62,112,0
1,61,114,76
1,57,107,0
1,64,125,0
1,55,104,156
1,43,110,0
1,50,111,0
1,59,112,0
1,50,71,52
1,62,97,0
1,59,72,0
1,50,82,36
1,55,85,128
1,59,90,108
1,54,114,48
1,50,96,0
1,38,109,0
1,57,107,0
1,50,59,76
1,38,93,60
1,57,116,36
1,54,114,0
1,62,101,0
1,61,105,12
1,57,116,0
1,45,123,0
1,52,105,0
1,52,44,84
1,45,97,0
1,61,114,36
1,52,116,0
1,57,118,0
1,52,88,104
1,40,107,36
1,52,73,36
1,42,116,120
1,52,63,12
1,59,107,72
1,50,101,0
1,55,99,0
1,31,114,0
1,50,74,116
1,50,74,96
1,59,107,0
1,55,80,64
1,50,82,56
1,59,87,104
1,38,105,72
1,57,112,0
1,54,123,0
1,50,100,0
1,50,65,8
1,54,102,40
1,62,83,0
1,57,104,0
1,54,64,24
1,61,104,8
1,57,109,0
1,52,109,0
1,45,121,0
1,52,48,52
1,52,57,200
1,45,104,176
1,57,104,72
1,61,116,0
1,64,118,0
1,57,101,4
1,66,114,0
1,62,112,0
1,61,114,76
1,57,107,0
1,64,125,0
1,55,104,156
1,43,110,0
1,50,111,0
1,59,112,0
1,50,71,52
1,62,97,0
1,59,72,0
1,50,82,36
1,55,85,128
1,59,90,108
1,54,114,48
1,50,96,0
1,38,109,0
1,57,107,0
1,50,59,76
1,38,93,60
1,57,116,36
1,54,114,0
1,62,101,0
1,61,105,12
1,57,116,0
1,45,123,0
1,52,105,0
1,52,44,84
1,45,97,0
1,61,114,36
1,52,116,0
1,57,118,0
1,52,88,104
1,40,107,36
1,52,73,36
1,42,116,120
1,52,63,12
1,59,107,72
1,50,101,0
1,55,99,0
1,31,114,0
1,50,74,116
1,50,74,96
1,59,107,0
1,55,80,64
1,50,82,56
1,59,87,104
1,38,105,72
1,57,112,0
1,54,123,0
1,50,100,0
1,50,65,8
1,54,102,40
1,62,83,0
1,57,104,0
1,54,64,24
1,61,104,8
1,57,109,0
1,52,109,0
1,45,121,0
1,52,48,52
1,52,57,200
1,45,104,176
1,57,104,72
1,61,116,0
1,64,118,0
1,57,101,4
1,66,114,0
1,62,112,0
1,61,114,76
1,57,107,0
1,64,125,0
1,55,104,156
1,43,110,0
1,50,111,0
1,59,112,0
1,50,71,52
1,62,97,0
1,59,72,0
1,50,82,36
1,55,85,128
1,59,90,108
1,54,114,48
1,50,96,0
1,38,109,0
1,57,107,0
1,50,59,76
1,38,93,60
1,57,116,36
1,54,114,0
1,62,101,0
1,61,105,12
1,57,116,0
1,45,123,0
1,52,105,0
1,52,44,84
