track,note,velocity,time
1,62,125,18690
1,55,115,0
1,59,122,0
1,33,127,0
1,62,122,95
1,59,118,0
1,55,115,0
1,33,113,0
1,55,63,235
1,33,109,235
1,57,127,160
1,54,112,0
1,62,118,0
1,57,115,130
1,62,116,0
1,54,108,0
1,54,75,75
1,33,125,240
1,52,118,160
1,57,118,0
1,61,114,0
1,52,83,110
1,57,81,120
1,33,106,120
1,52,109,160
1,57,120,0
1,61,114,0
1,62,111,130
1,54,107,0
1,57,116,0
1,61,114,25
1,57,111,0
1,52,116,0
1,33,127,25
1,62,127,160
1,55,127,0
1,59,125,0
1,59,125,70
1,62,116,0
1,55,118,0
1,33,105,120
1,57,122,90
1,54,114,0
1,62,116,0
1,62,118,80
1,57,115,0
1,54,114,0
1,54,75,40
1,33,118,50
1,57,115,85
1,61,114,0
1,52,115,0
1,52,82,60
1,33,108,25
1,62,116,45
1,54,116,0
1,57,127,0
1,52,113,30
1,61,112,0
1,57,113,0
1,33,115,190
1,59,127,150
1,55,120,0
1,62,127,0
1,55,127,75
1,62,127,0
1,59,125,0
1,33,115,105
1,62,111,60
1,57,115,0
1,54,114,0
1,62,120,110
1,57,127,0
1,54,116,0
1,33,115,130
1,57,109,55
1,61,116,0
1,52,111,0
1,33,113,110
1,52,106,110
1,57,115,0
1,61,108,0
1,54,108,245
1,62,108,0
1,57,116,0
1,61,116,30
1,52,116,0
1,57,115,0
1,62,127,25
1,59,125,0
1,33,125,0
1,55,127,0
1,55,73,180
1,33,115,225
1,62,115,75
1,57,118,0
1,54,116,0
1,57,115,35
1,52,113,0
1,33,125,0
1,45,63,230
1,57,70,150
1,45,48,235
1,57,41,320
1,57,20,240
1,45,62,0
1,33,97,160
1,45,58,5
1,57,73,320
1,45,48,205
1,57,66,15
1,45,53,120
1,33,94,45
1,33,123,135
1,52,114,0
1,57,118,0
1,61,118,0
1,32,121,10
1,56,114,0
1,59,121,0
1,61,118,0
1,64,111,0
1,54,112,480
1,62,102,0
1,57,114,0
1,59,112,0
1,30,125,0
1,35,90,280
1,62,107,65
1,57,105,0
1,23,112,0
1,66,109,0
1,37,104,80
1,25,104,0
1,61,105,0
1,57,98,0
1,64,109,0
1,38,102,90
1,66,114,0
1,62,107,0
1,57,105,0
1,26,109,0
1,62,109,140
1,64,109,0
1,59,123,0
1,28,105,0
1,57,112,0
1,40,104,0
1,40,104,15
1,62,96,130
1,59,107,0
1,64,101,0
1,56,105,0
1,40,100,45
1,62,104,95
1,57,116,0
1,54,112,0
1,57,111,85
1,52,105,0
1,61,109,0
1,45,87,0
1,33,97,0
1,57,82,445
1,57,80,40
1,50,118,0
1,62,105,0
1,66,111,0
1,69,92,5
1,49,112,35
1,64,101,0
1,61,100,0
1,49,101,80
1,47,121,0
1,62,107,0
1,57,87,0
1,59,116,0
1,57,74,35
1,47,36,75
1,45,114,0
1,64,109,0
1,61,114,0
1,57,107,0
1,52,86,10
1,57,81,160
1,61,85,160
1,64,97,125
1,56,105,65
1,59,107,0
1,61,102,0
1,64,91,0
1,44,121,0
1,56,70,20
1,64,93,120
1,59,93,0
1,61,88,0
1,44,78,125
1,54,107,50
1,57,114,0
1,59,114,0
1,62,97,0
1,42,112,0
1,35,84,550
1,23,109,30
1,62,104,0
1,57,100,0
1,66,107,0
1,57,94,75
1,61,109,0
1,64,112,0
1,37,97,0
1,25,93,0
1,62,104,85
1,57,93,0
1,66,107,0
1,26,104,0
1,38,94,0
1,57,98,105
1,40,102,0
1,64,109,0
1,62,105,0
1,28,102,0
1,54,82,420
1,57,82,160
1,62,64,160
1,64,80,5
1,40,100,120
1,56,82,0
1,62,87,0
1,59,94,0
1,28,100,0
1,56,68,75
1,40,96,195
1,59,114,90
1,57,118,0
1,62,105,0
1,54,112,0
1,52,112,150
1,33,96,0
1,61,107,0
1,57,109,0
1,52,59,105
1,33,72,25
1,61,101,155
1,57,102,0
1,52,97,0
1,62,91,190
1,54,96,0
1,28,114,0
1,57,98,0
1,52,109,110
1,61,111,0
1,30,114,0
1,57,112,0
1,59,107,200
1,50,101,0
1,55,99,0
1,31,114,0
1,50,74,145
1,50,74,120
1,59,107,0
1,55,80,80
1,50,82,70
1,59,87,130
1,38,105,90
1,57,112,0
1,54,123,0
1,50,100,0
1,50,65,10
1,54,102,50
1,62,83,0
1,57,104,0
1,54,64,30
1,61,104,10
1,57,109,0
1,52,109,0
1,45,121,0
1,52,48,65
1,52,57,250
1,45,104,220
1,57,104,90
1,61,116,0
1,64,118,0
1,57,101,5
1,66,114,0
1,62,112,0
1,61,114,95
1,57,107,0
1,64,125,0
1,55,104,195
1,43,110,0
1,50,111,0
1,59,112,0
1,50,71,65
1,62,97,0
1,59,72,0
1,50,82,45
1,55,85,160
1,59,90,135
1,54,114,60
1,50,96,0
1,38,109,0
1,57,107,0
1,50,59,95
1,38,93,75
1,57,116,45
1,54,114,0
1,62,101,0
1,61,105,15
1,57,116,0
1,45,123,0
1,52,105,0
1,52,44,105
1,45,97,0
1,61,114,45
1,52,116,0
1,57,118,0
1,52,88,130
1,40,107,45
1,52,73,45
1,42,116,150
1,52,63,15
1,59,111,90
1,50,104,0
1,55,106,0
1,43,119,0
1,50,77,125
1,55,106,195
1,59,111,0
1,50,105,0
1,50,76,10
1,54,121,10
1,57,111,0
1,50,87,0
1,38,107,0
1,50,66,150
1,50,79,15
1,62,101,0
1,57,87,235
1,54,76,150
1,52,111,95
1,61,102,0
1,57,107,0
1,45,112,0
1,52,63,185
1,45,101,35
1,52,105,25
1,57,114,0
1,61,112,0
1,40,111,480
1,42,104,10
1,62,102,165
1,59,111,0
1,55,104,0
1,43,110,0
1,62,62,50
1,59,73,0
1,55,68,0
1,59,85,250
1,62,81,0
1,55,82,0
1,54,74,310
1,62,76,0
1,57,80,0
1,38,90,0
1,62,72,90
1,54,74,0
1,57,81,0
1,54,80,180
1,57,83,0
1,62,80,0
1,54,61,145
1,52,84,80
1,57,88,0
1,61,88,0
1,45,100,0
1,52,98,5
1,40,102,0
1,54,96,20
1,42,101,0
1,45,102,0
1,57,104,0
1,33,123,20
1,52,114,0
1,57,118,0
1,61,118,0
1,32,121,10
1,56,114,0
1,59,121,0
1,61,118,0
1,64,111,0
1,54,112,480
1,62,102,0
1,57,114,0
1,59,112,0
1,30,125,0
1,35,90,280
1,62,107,65
1,57,105,0
1,23,112,0
1,66,109,0
1,37,104,80
1,25,104,0
1,61,105,0
1,57,98,0
1,64,109,0
1,38,102,90
1,66,114,0
1,62,107,0
1,57,105,0
1,26,109,0
1,62,109,140
1,64,109,0
1,59,123,0
1,28,105,0
1,57,112,0
1,40,104,0
1,40,104,15
1,62,96,130
1,59,107,0
1,64,101,0
1,56,105,0
1,40,100,45
1,62,104,95
1,57,116,0
1,54,112,0
1,57,111,85
1,52,105,0
1,61,109,0
1,45,87,0
1,33,97,0
1,57,82,445
1,57,80,40
1,50,118,0
1,62,105,0
1,66,111,0
1,69,92,5
1,49,112,35
1,64,101,0
1,61,100,0
1,47,121,80
1,62,107,0
1,57,87,0
1,59,116,0
1,45,114,125
1,64,109,0
1,61,114,0
1,57,107,0
1,52,86,10
1,57,81,160
1,61,85,160
1,64,97,125
1,56,105,65
1,59,107,0
1,61,102,0
1,64,91,0
1,44,121,0
1,56,70,20
1,64,93,120
1,59,93,0
1,61,88,0
1,44,78,125
1,54,107,50
1,57,114,0
1,59,114,0
1,62,97,0
1,42,112,0
1,35,84,550
1,23,109,30
1,62,104,0
1,57,100,0
1,66,107,0
1,57,94,75
1,61,109,0
1,64,112,0
1,37,97,0
1,25,93,0
1,62,104,85
1,57,93,0
1,66,107,0
1,26,104,0
1,38,94,0
1,57,98,105
1,40,102,0
1,64,109,0
1,62,105,0
1,28,102,0
1,54,82,420
1,57,82,160
1,62,64,160
1,64,80,5
1,40,100,120
1,56,82,0
1,62,87,0
1,59,94,0
1,28,100,0
1,56,68,75
1,40,96,195
1,59,114,90
1,57,118,0
1,62,105,0
1,54,112,0
1,52,112,150
1,33,96,0
1,61,107,0
1,57,109,0
1,52,59,105
1,33,72,25
1,61,101,155
1,57,102,0
1,52,97,0
1,62,91,190
1,54,96,0
1,28,114,0
1,57,98,0
1,52,109,110
1,61,111,0
1,30,114,0
1,57,112,0
1,59,107,200
1,50,101,0
1,55,99,0
1,31,114,0
1,50,74,145
1,50,74,120
1,59,107,0
1,55,80,80
1,50,82,70
1,59,87,130
1,38,105,90
1,57,112,0
1,54,123,0
1,50,100,0
1,50,65,10
1,54,102,50
1,62,83,0
1,57,104,0
1,54,64,30
1,61,104,10
1,57,109,0
1,52,109,0
1,45,121,0
1,52,48,65
1,52,57,250
1,45,104,220
1,57,104,90
1,61,116,0
1,64,118,0
1,57,101,5
1,66,114,0
1,62,112,0
1,61,114,95
1,57,107,0
1,64,125,0
1,55,104,195
1,43,110,0
1,50,111,0
1,59,112,0
1,50,71,65
1,62,97,0
1,59,72,0
1,50,82,45
1,55,85,160
1,59,90,135
1,54,114,60
1,50,96,0
1,38,109,0
1,57,107,0
1,50,59,95
1,38,93,75
1,57,116,45
1,54,114,0
1,62,101,0
1,61,105,15
1,57,116,0
1,45,123,0
1,52,105,0
1,52,44,105
1,45,97,0
1,61,114,45
1,52,116,0
1,57,118,0
1,52,88,130
1,40,107,45
1,52,73,45
1,42,116,150
1,52,63,15
1,59,111,90
1,50,104,0
1,55,106,0
1,43,119,0
1,50,77,125
1,55,106,195
1,59,111,0
1,50,105,0
1,50,76,10
1,54,121,10
1,57,111,0
1,50,87,0
1,42,107,0
1,50,66,150
1,50,79,15
1,62,101,0
1,57,87,235
1,54,76,150
1,52,111,95
1,61,102,0
1,57,107,0
1,45,112,0
1,52,63,185
1,45,101,35
1,52,105,25
1,57,114,0
1,61,112,0
1,40,111,480
1,42,104,10
1,62,102,165
1,59,111,0
1,55,104,0
1,43,110,0
1,62,62,50
1,59,73,0
1,55,68,0
1,59,85,250
1,62,81,0
1,55,82,0
1,54,74,310
1,62,76,0
1,57,80,0
1,42,76,0
1,62,72,90
1,54,74,0
1,57,81,0
1,54,80,180
1,57,83,0
1,62,80,0
1,54,61,145
1,45,104,80
1,33,109,0
1,57,102,0
1,21,100,0
1,52,105,0
1,57,111,0
1,33,127,0
1,69,105,0
1,61,110,265
1,73,103,0
1,37,121,0
1,64,113,210
1,76,115,0
1,40,127,0
1,57,106,65
1,61,116,0
1,66,110,0
1,30,126,0
1,61,84,5
1,57,76,0
1,57,95,250
1,66,102,0
1,61,108,0
1,30,118,0
1,57,108,85
1,61,118,0
1,66,112,0
1,66,96,80
1,57,89,0
1,61,100,0
1,57,98,160
1,66,105,0
1,61,108,0
1,30,86,200
1,28,115,0
1,59,101,0
1,64,98,0
1,56,91,0
1,30,108,140
1,57,113,0
1,66,108,0
1,61,112,0
1,61,100,55
1,57,87,0
1,66,95,0
1,61,114,60
1,57,106,0
1,66,114,0
1,61,96,60
1,57,86,0
1,66,99,0
1,66,103,60
1,61,100,0
1,57,85,0
1,57,83,35
1,30,77,0
1,69,113,95
1,57,116,0
1,33,127,0
1,57,101,3885
1,33,127,160
1,69,115,0
1,37,118,250
1,61,103,0
1,73,103,0
1,40,118,300
1,76,86,0
1,64,94,0
1,66,112,90
1,57,113,0
1,30,126,0
1,61,114,0
1,57,78,60
1,57,75,180
1,66,108,170
1,61,121,0
1,57,111,0
1,57,75,0
1,61,72,195
1,30,97,260
1,59,104,60
1,28,115,0
1,64,100,0
1,56,95,0
1,66,118,55
1,61,116,0
1,57,118,0
1,30,112,0
1,30,116,20
1,61,116,5
1,57,108,0
1,66,97,0
1,58,66,165
1,28,127,0
1,59,122,0
1,64,104,0
1,56,103,0
1,56,75,385
1,56,82,0
1,59,86,0
1,64,84,0
1,28,115,0
1,56,107,140
1,59,118,0
1,64,104,0
1,56,70,100
1,56,72,200
1,64,75,0
1,59,84,0
1,28,90,120
1,56,108,5
1,64,96,0
1,28,127,0
1,62,118,0
1,56,81,80
1,62,94,0
1,64,78,0
1,28,86,35
1,56,67,160
1,62,82,0
1,64,75,0
1,28,113,120
1,64,98,160
1,62,109,0
1,56,105,0
1,56,54,5
1,28,91,185
1,28,120,325
1,68,114,100
1,62,108,0
1,64,102,0
1,62,80,80
1,64,78,0
1,68,82,0
1,28,125,15
1,64,96,160
1,62,102,0
1,68,108,0
1,68,112,145
1,62,111,0
1,64,108,0
1,68,54,70
1,64,75,0
1,62,79,0
1,28,113,170
1,28,116,315
1,71,108,60
1,68,107,0
1,62,104,105
1,64,96,0
1,68,105,0
1,71,100,0
1,62,111,205
1,64,104,0
1,68,112,0
1,71,111,0
1,28,111,25
1,68,118,160
1,71,127,0
1,62,118,0
1,64,108,0
1,62,80,0
1,64,76,0
1,64,116,480
1,28,127,0
1,76,113,0
1,28,127,690
1,29,109,160
1,30,118,25
1,59,107,35
1,50,101,0
1,55,99,0
1,31,114,0
1,50,74,145
1,50,74,120
1,59,107,0
1,55,80,80
1,50,82,70
1,59,87,130
1,38,105,90
1,57,112,0
1,54,123,0
1,50,100,0
1,50,65,10
1,54,102,50
1,62,83,0
1,57,104,0
1,54,64,30
1,61,104,10
1,57,109,0
1,52,109,0
1,45,121,0
1,52,48,65
1,52,57,250
1,45,104,220
1,57,104,90
1,61,116,0
1,64,118,0
1,57,101,5
1,66,114,0
1,62,112,0
1,61,114,95
1,57,107,0
1,64,125,0
1,55,104,195
1,43,110,0
1,50,111,0
1,59,112,0
1,50,71,65
1,62,97,0
1,59,72,0
1,50,82,45
1,55,85,160
1,59,90,135
1,54,114,60
1,50,96,0
1,38,109,0
1,57,107,0
1,50,59,95
1,38,93,75
1,57,116,45
1,54,114,0
1,62,101,0
1,61,105,15
1,57,116,0
1,45,123,0
1,52,105,0
1,52,44,105
1,45,97,0
1,61,114,45
1,52,116,0
1,57,118,0
1,52,88,130
1,40,107,45
1,52,73,45
1,42,116,150
1,52,63,15
1,59,107,90
1,50,101,0
1,55,99,0
1,31,114,0
1,50,74,145
1,50,74,120
1,59,107,0
1,55,80,80
1,50,82,70
1,59,87,130
1,38,105,90
1,57,112,0
1,54,123,0
1,50,100,0
1,50,65,10
1,54,102,50
1,62,83,0
1,57,104,0
1,54,64,30
1,61,104,10
1,57,109,0
1,52,109,0
1,45,121,0
1,52,48,65
1,52,57,250
1,45,104,220
1,57,104,90
1,61,116,0
1,64,118,0
1,57,101,5
1,66,114,0
1,62,112,0
1,61,114,95
1,57,107,0
1,64,125,0
1,55,104,195
1,43,110,0
1,50,111,0
1,59,112,0
1,50,71,65
1,62,97,0
1,59,72,0
1,50,82,45
1,55,85,160
1,59,90,135
1,54,114,60
1,50,96,0
1,38,109,0
1,57,107,0
1,50,59,95
1,38,93,75
1,57,116,45
1,54,114,0
1,62,101,0
1,61,105,15
1,57,116,0
1,45,123,0
1,52,105,0
1,52,44,105
1,45,97,0
1,61,114,45
1,52,116,0
1,57,118,0
1,52,88,130
1,40,107,45
1,52,73,45
1,42,116,150
1,52,63,15
1,59,107,90
1,50,101,0
1,55,99,0
1,31,114,0
1,50,74,145
1,50,74,120
1,59,107,0
1,55,80,80
1,50,82,70
1,59,87,130
1,38,105,90
1,57,112,0
1,54,123,0
1,50,100,0
1,50,65,10
1,54,102,50
1,62,83,0
1,57,104,0
1,54,64,30
1,61,104,10
1,57,109,0
1,52,109,0
1,45,121,0
1,52,48,65
1,52,57,250
1,45,104,220
1,57,104,90
1,61,116,0
1,64,118,0
1,57,101,5
1,66,114,0
1,62,112,0
1,61,114,95
1,57,107,0
1,64,125,0
1,55,104,195
1,43,110,0
1,50,111,0
1,59,112,0
1,50,71,65
1,62,97,0
1,59,72,0
1,50,82,45
1,55,85,160
1,59,90,135
1,54,114,60
1,50,96,0
1,38,109,0
1,57,107,0
1,50,59,95
1,38,93,75
1,57,116,45
1,54,114,0
1,62,101,0
1,61,105,15
1,57,116,0
1,45,123,0
1,52,105,0
1,52,44,105
