track,note,velocity,time
0,72,105,828
0,48,102,4
0,72,110,0
0,48,100,80
0,69,107,0
0,69,107,8
0,67,100,4
0,45,98,0
0,67,105,4
0,65,85,40
0,41,100,4
0,65,98,0
0,64,91,60
0,64,91,4
0,67,85,0
0,72,93,0
0,60,102,0
0,64,91,0
0,36,113,0
0,46,98,0
0,54,103,0
0,49,110,0
0,64,85,0
0,67,100,0
0,72,98,0
0,72,89,4
0,42,85,64
0,42,85,192
0,36,116,0
0,38,113,0
0,54,87,0
0,42,85,72
0,36,93,52
0,54,53,0
0,76,119,4
0,42,85,48
0,36,107,40
0,38,110,0
0,42,95,0
0,54,94,0
0,76,122,12
0,42,89,72
0,64,78,52
0,60,66,4
0,36,98,4
0,46,85,0
0,54,85,0
0,76,119,0
0,42,87,60
0,55,98,64
0,48,97,0
0,64,58,0
0,74,66,4
0,67,89,32
0,72,89,0
0,64,102,0
0,67,93,0
0,72,105,0
0,60,95,0
0,64,85,0
0,36,107,0
0,38,110,0
0,42,93,0
0,54,96,0
0,48,119,0
0,72,116,8
0,72,107,28
0,60,91,8
0,64,80,0
0,42,76,0
0,54,45,0
0,67,68,0
0,72,76,0
0,36,98,20
0,42,91,0
0,54,56,0
0,43,113,0
0,55,89,16
0,42,89,0
0,64,60,0
0,67,91,52
0,72,89,0
0,64,105,0
0,67,98,0
0,72,105,0
0,60,100,0
0,64,87,0
0,36,105,0
0,38,110,0
0,54,103,0
0,36,113,0
0,42,91,12
0,60,93,8
0,64,78,0
0,54,51,0
0,36,95,36
0,46,89,0
0,54,58,0
0,36,113,0
0,72,122,0
0,42,89,56
0,55,80,4
0,64,72,0
0,60,100,32
0,64,85,0
0,64,105,0
0,67,95,0
0,72,107,0
0,36,102,0
0,38,113,0
0,42,91,0
0,54,103,0
0,67,78,0
0,72,89,0
0,72,122,12
0,60,91,60
0,64,74,0
0,42,85,0
0,54,47,0
0,67,62,0
0,72,74,0
0,72,105,16
0,65,87,0
0,36,98,4
0,42,105,0
0,54,78,0
0,74,122,16
0,76,122,40
0,55,82,4
0,42,85,0
0,64,60,0
0,60,98,16
0,64,82,0
0,64,107,0
0,67,100,0
0,72,105,0
0,36,110,0
0,38,116,0
0,54,106,0
0,67,87,0
0,72,93,0
0,42,102,4
0,79,119,4
0,60,89,16
0,64,82,0
0,54,42,0
0,67,62,4
0,59,62,4
0,36,93,8
0,46,91,0
0,54,57,0
0,42,95,4
0,55,89,16
0,43,99,0
0,62,62,0
0,76,107,4
0,59,95,16
0,62,100,0
0,62,105,0
0,67,98,0
0,71,93,0
0,36,95,0
0,38,110,0
0,42,93,0
0,54,94,0
0,43,113,0
0,67,89,0
0,71,85,0
0,74,116,24
0,59,89,48
0,62,91,0
0,42,85,0
0,54,49,0
0,67,70,0
0,71,70,0
0,36,91,8
0,54,68,0
0,38,113,0
0,42,80,48
0,55,87,48
0,62,56,0
0,59,91,48
0,62,89,0
0,62,102,0
0,67,102,0
0,71,100,0
0,36,113,0
0,38,110,0
0,42,89,0
0,54,98,0
0,31,104,0
0,67,82,0
0,71,76,0
0,59,87,12
0,62,93,0
0,42,80,0
0,54,49,0
0,67,95,12
0,36,116,24
0,46,87,0
0,54,83,0
0,31,116,0
0,71,116,8
0,42,85,72
0,55,85,60
0,62,87,0
0,72,102,8
0,59,102,32
0,62,95,0
0,62,102,0
0,67,110,0
0,71,110,0
0,36,102,0
0,38,107,0
0,42,93,0
0,54,85,0
0,67,93,0
0,71,102,0
0,74,110,24
0,59,98,0
0,62,89,0
0,42,87,0
0,54,56,0
0,67,95,0
0,71,93,0
0,68,89,20
0,36,102,0
0,42,91,0
0,54,76,0
0,76,107,4
0,74,110,32
0,56,91,4
0,42,87,0
0,62,53,0
0,62,56,20
0,68,93,0
0,71,98,0
0,62,102,0
0,68,102,0
0,71,89,0
0,59,110,0
0,62,102,0
0,36,107,0
0,38,107,0
0,42,89,0
0,54,98,0
0,42,82,0
0,74,98,4
0,59,107,4
0,62,93,0
0,42,91,0
0,54,48,0
0,69,76,4
0,60,63,4
0,36,100,0
0,46,100,0
0,54,70,0
0,76,110,8
0,42,93,68
0,69,85,64
0,57,78,4
0,45,99,0
0,64,68,0
0,60,105,20
0,64,85,0
0,64,107,0
0,69,105,0
0,72,107,0
0,36,116,0
0,38,110,0
0,42,93,0
0,54,96,0
0,45,113,0
0,69,89,0
0,72,89,0
0,69,107,8
0,60,98,52
0,64,85,0
0,42,76,0
0,54,43,0
0,69,70,0
0,72,87,0
0,36,93,4
0,54,62,0
0,40,111,0
0,42,72,8
0,57,82,28
0,54,44,0
0,64,66,0
0,60,98,40
0,64,85,0
0,64,107,0
0,69,102,0
0,72,107,0
0,36,113,0
0,38,110,0
0,42,98,0
0,54,98,0
0,33,101,0
0,69,89,0
0,72,89,0
0,60,93,20
0,64,85,0
0,42,91,0
0,54,40,0
0,36,113,0
0,46,74,0
0,54,83,0
0,33,101,0
0,42,98,24
0,57,82,72
0,64,62,0
0,76,127,4
0,60,100,36
0,64,87,0
0,64,102,0
0,69,102,0
0,72,105,0
0,36,107,0
0,38,110,0
0,42,98,0
0,54,96,0
0,69,95,0
0,72,93,0
0,74,107,0
0,60,98,80
0,64,85,0
0,42,80,0
0,54,46,0
0,69,82,0
0,72,85,0
0,72,100,0
0,36,107,20
0,54,64,0
0,72,107,20
0,42,76,36
0,57,76,28
0,64,70,0
0,74,107,16
0,69,89,36
0,72,89,0
0,64,105,0
0,69,100,0
0,72,105,0
0,60,95,0
0,64,87,0
0,36,113,0
0,38,110,0
0,42,93,0
0,54,94,0
0,72,110,0
0,60,95,68
0,64,91,0
0,42,80,0
0,54,39,0
0,64,76,28
0,67,60,4
0,36,107,0
0,46,82,0
0,54,76,0
0,76,119,12
0,42,89,24
0,55,85,72
0,48,99,0
0,64,66,0
0,64,107,20
0,67,98,0
0,72,105,0
0,60,100,0
0,64,87,0
0,36,110,0
0,38,107,0
0,42,95,0
0,54,91,0
0,48,119,0
0,67,80,0
0,72,87,0
0,72,107,84
0,60,95,8
0,64,85,0
0,42,91,0
0,54,51,0
0,67,72,0
0,72,91,0
0,36,102,0
0,54,68,0
0,43,119,0
0,72,113,8
0,42,76,12
0,74,110,8
0,55,87,12
0,64,70,0
0,67,87,56
0,72,87,0
0,64,102,0
0,67,89,0
0,72,102,0
0,60,105,0
0,64,87,0
0,36,119,0
0,38,110,0
0,42,98,0
0,54,96,0
0,36,116,0
0,72,116,8
0,60,95,28
0,64,85,0
0,42,91,0
0,54,49,0
0,62,76,8
0,36,107,4
0,38,113,0
0,46,95,0
0,54,74,0
0,43,104,0
0,48,89,0
0,67,116,0
0,55,70,120
0,54,56,0
0,62,57,0
0,59,93,16
0,62,91,0
0,62,107,0
0,67,100,0
0,71,98,0
0,36,105,0
0,38,107,0
0,42,105,0
0,54,98,0
0,38,106,0
0,41,107,0
0,48,102,0
0,67,89,0
0,71,98,0
0,59,91,16
0,62,82,0
0,67,68,0
0,71,87,0
0,36,93,12
0,38,105,0
0,42,107,0
0,54,68,0
0,31,108,0
0,45,93,0
0,55,72,40
0,54,44,0
0,62,54,0
0,67,89,68
0,71,91,0
0,62,102,0
0,67,100,0
0,71,95,0
0,59,82,0
0,62,82,0
0,36,110,0
0,38,110,0
0,42,105,0
0,54,96,0
0,38,99,0
0,41,105,0
0,45,98,0
0,46,100,84
0,36,107,8
0,46,91,0
0,54,85,0
0,49,105,0
0,64,70,8
0,60,55,4
0,42,93,20
0,55,64,68
0,48,49,0
0,64,53,0
0,67,87,4
0,60,91,20
0,64,74,0
0,64,105,0
0,67,100,0
0,72,102,0
0,36,107,0
0,38,116,0
0,42,98,0
0,54,89,0
0,48,107,0
0,67,80,0
0,72,91,0
0,67,100,4
0,67,87,72
0,60,87,4
0,64,68,0
0,42,93,0
0,54,45,0
0,67,60,0
0,72,70,0
0,36,98,0
0,54,56,0
0,43,105,0
0,67,105,16
0,42,87,56
0,55,66,68
0,64,59,0
0,69,105,4
0,64,105,4
0,67,102,0
0,72,105,0
0,60,91,0
0,64,78,0
0,36,110,0
0,38,107,0
0,42,95,0
0,54,89,0
0,36,85,0
0,67,87,0
0,72,89,0
0,60,91,72
0,64,68,0
0,42,85,0
0,54,47,0
0,72,105,0
0,36,107,8
0,46,89,0
0,54,56,0
0,36,82,0
0,42,89,56
0,72,87,60
0,55,60,12
0,64,66,0
0,72,107,40
0,64,105,4
0,67,95,0
0,72,105,0
0,60,98,0
0,64,82,0
0,36,113,0
0,38,107,0
0,42,95,0
0,54,98,0
0,67,85,0
0,72,89,0
0,60,91,88
0,64,82,0
0,42,95,0
0,54,46,0
0,67,76,0
0,72,89,0
0,36,107,4
0,54,58,0
0,65,89,0
0,42,95,4
0,55,66,72
0,54,44,0
0,64,60,0
0,72,78,12
0,60,91,36
0,64,87,0
0,64,105,0
0,67,95,0
0,72,105,0
0,36,113,0
0,38,110,0
0,42,98,0
0,54,101,0
0,67,87,0
0,72,89,0
0,72,113,16
0,42,95,4
0,72,74,68
0,60,89,8
0,64,74,0
0,42,100,0
0,54,35,0
0,36,105,20
0,46,89,0
0,54,76,0
0,59,61,8
0,67,70,4
0,71,116,0
0,55,64,60
0,42,98,0
0,43,76,0
0,62,54,0
0,71,72,16
0,59,91,40
0,62,87,0
0,62,107,0
0,67,100,0
0,71,98,0
0,36,119,0
0,38,113,0
0,54,98,0
0,43,98,0
0,67,91,0
0,71,91,0
0,71,113,8
0,42,85,0
0,71,85,52
0,59,85,4
0,62,72,0
0,54,48,0
0,67,74,0
0,71,89,0
0,71,107,0
0,36,102,0
0,42,89,0
0,54,83,0
0,38,87,0
0,72,105,48
0,55,70,36
0,42,80,0
0,62,60,0
0,31,95,12
0,62,98,0
0,67,95,0
0,71,87,0
0,59,91,0
0,62,89,0
0,36,113,0
0,38,110,0
0,54,94,0
0,67,89,0
0,71,95,0
0,42,82,16
0,59,85,52
0,62,74,0
0,54,50,0
0,36,113,4
0,46,74,0
0,54,81,0
0,31,85,0
0,76,87,32
0,74,72,4
0,42,72,0
0,74,91,60
0,55,62,4
0,62,55,0
0,67,87,52
0,71,95,0
0,62,95,0
0,67,98,0
0,71,95,0
0,59,85,0
0,62,85,0
0,36,113,0
0,38,107,0
0,42,89,0
0,54,87,0
0,59,89,28
0,62,89,0
0,42,78,0
0,54,50,0
0,67,72,0
0,71,78,0
0,36,107,4
0,54,76,0
0,31,95,0
0,68,87,0
0,56,72,16
0,42,91,0
0,54,56,0
0,62,61,0
0,59,91,68
0,62,93,0
0,62,98,0
0,68,89,0
0,71,85,0
0,36,113,0
0,38,107,0
0,42,98,0
0,54,103,0
0,32,87,0
0,68,87,0
0,71,87,0
0,59,82,60
0,62,76,0
0,42,91,0
0,54,60,0
0,36,105,12
0,46,93,0
0,54,101,0
0,69,110,8
0,69,70,4
0,60,66,4
0,42,82,12
0,57,59,56
0,45,100,0
0,64,54,0
0,69,87,44
0,72,85,0
0,64,105,0
0,69,102,0
0,72,105,0
0,60,100,0
0,64,80,0
0,36,119,0
0,38,113,0
0,42,95,0
0,54,85,0
0,45,87,0
0,69,107,8
0,60,91,80
0,64,72,0
0,42,85,0
0,54,48,0
0,69,70,0
0,72,70,0
0,69,98,4
0,40,93,8
0,36,110,0
0,54,78,0
0,69,102,0
0,42,82,36
0,57,57,68
0,64,57,0
0,71,110,28
0,64,105,4
0,69,105,0
0,72,105,0
0,60,100,0
0,64,76,0
0,36,116,0
0,38,113,0
0,42,105,0
0,54,83,0
0,33,87,0
0,69,91,0
0,72,95,0
0,60,95,116
0,64,78,0
0,42,78,0
0,54,66,0
0,36,102,64
0,46,91,0
0,54,83,0
0,33,91,0
0,72,107,0
0,72,107,40
0,57,64,24
0,42,91,0
0,64,66,0
0,60,100,36
0,64,85,0
0,64,98,0
0,69,95,0
0,72,102,0
0,36,110,0
0,38,113,0
0,54,91,0
0,69,80,0
0,72,87,0
0,42,87,4
0,60,89,32
0,64,74,0
0,54,49,0
0,69,70,0
0,72,74,0
0,36,105,40
0,42,107,0
0,54,83,0
0,57,80,136
0,42,85,0
0,54,57,0
0,64,62,0
0,60,102,36
0,64,87,0
0,64,107,0
0,69,100,0
0,72,107,0
0,36,116,0
0,38,107,0
0,54,98,0
0,69,93,0
0,72,91,0
0,72,113,12
0,42,95,8
0,60,93,40
0,64,82,0
0,42,98,0
0,54,56,0
0,72,91,24
0,36,113,0
0,46,98,0
0,54,87,0
0,31,91,0
0,59,87,8
0,67,72,4
0,71,113,8
0,55,80,80
0,42,98,0
0,62,48,0
0,67,85,52
0,71,87,0
0,62,105,0
0,67,93,0
0,71,93,0
0,59,89,0
0,62,85,0
0,36,116,0
0,38,107,0
0,54,96,0
0,31,98,0
0,71,116,20
0,42,98,8
0,59,82,16
0,62,76,0
0,54,70,0
0,67,68,0
0,71,70,0
0,36,110,8
0,42,95,0
0,54,85,0
0,31,68,0
0,71,113,16
0,55,80,152
0,42,93,0
0,62,59,0
0,67,95,8
0,67,93,36
0,71,93,0
0,62,105,0
0,67,102,0
0,71,100,0
0,59,89,0
0,62,89,0
0,36,113,0
0,38,110,0
0,54,96,0
0,38,98,0
0,59,87,48
0,62,89,0
0,42,93,0
0,54,47,0
0,62,57,0
0,36,105,8
0,46,89,0
0,54,85,0
0,43,105,0
0,48,85,0
0,67,95,0
0,71,95,0
0,42,93,4
0,55,85,72
0,59,91,28
0,62,93,0
0,62,102,0
0,67,100,0
0,71,105,0
0,36,116,0
0,38,113,0
0,42,95,0
0,54,89,0
0,38,107,0
0,48,95,0
0,67,91,0
0,71,87,0
0,59,89,76
0,62,91,0
0,42,82,0
0,54,44,0
0,36,102,16
0,42,98,0
0,54,76,0
0,31,105,0
0,45,95,0
0,67,87,0
0,71,89,0
0,55,85,80
0,42,95,0
0,54,64,0
0,45,89,0
0,59,93,16
0,62,89,0
0,62,105,0
0,67,98,0
0,71,98,0
0,36,113,0
0,38,110,0
0,54,87,0
0,31,102,0
0,41,105,0
0,67,93,0
0,71,87,0
0,42,98,8
0,67,89,68
0,59,91,4
0,62,89,0
0,42,87,0
0,54,64,0
0,36,105,12
0,46,102,0
0,54,89,0
0,49,98,0
0,60,66,0
0,67,107,4
0,64,78,4
0,42,89,8
0,55,87,72
0,48,102,0
0,64,47,0
0,67,82,12
0,60,98,8
0,64,85,0
0,64,107,0
0,67,100,0
0,72,107,0
0,36,110,0
0,38,116,0
0,42,105,0
0,54,83,0
0,48,98,0
0,67,80,0
0,72,89,0
0,67,102,12
0,60,95,64
0,64,82,0
0,42,82,0
0,54,52,0
0,67,72,0
0,72,76,0
0,67,64,8
0,36,105,0
0,54,76,0
0,43,91,0
0,67,105,12
0,42,87,16
0,55,76,68
0,64,54,0
0,67,87,68
0,72,87,0
0,64,107,0
0,67,100,0
0,72,105,0
0,60,95,0
0,64,82,0
0,36,116,0
0,38,107,0
0,42,95,0
0,54,98,0
0,36,102,0
0,69,95,4
0,60,93,88
0,64,74,0
0,42,87,0
0,54,44,0
0,72,107,4
0,36,110,4
0,46,85,0
0,54,87,0
0,36,95,0
0,42,91,12
0,72,100,36
0,55,68,32
0,64,61,0
0,60,102,12
0,64,82,0
0,64,105,0
0,67,93,0
0,72,102,0
0,36,113,0
0,38,107,0
0,42,102,0
0,54,85,0
0,67,85,0
0,72,87,0
0,60,95,12
0,64,72,0
0,42,89,0
0,54,56,0
0,67,68,0
0,72,72,0
0,36,119,8
0,42,89,0
0,54,74,0
0,65,85,0
0,55,91,120
0,42,91,0
0,54,54,0
0,64,52,0
0,64,105,16
0,67,93,0
0,72,105,0
0,60,93,0
0,64,80,0
0,36,116,0
0,38,110,0
0,54,96,0
0,67,80,0
0,72,91,0
0,42,87,0
0,60,95,64
0,64,82,0
0,42,89,0
0,54,53,0
0,72,116,8
0,59,61,4
0,67,68,4
0,36,113,4
0,46,98,0
0,54,96,0
0,71,110,8
0,42,95,12
0,55,74,60
