track,note,velocity,time
0,33,10,16
0,67,10,0
0,71,10,0
0,74,17,0
0,74,10,0
0,74,16,0
0,73,18,2
0,73,18,0
0,74,0,11
0,74,0,2
0,71,18,11
0,71,20,0
0,73,0,2
0,73,0,2
0,67,0,9
0,71,0,0
0,66,13,2
0,69,13,0
0,74,19,0
0,74,21,0
0,71,0,3
0,71,0,14
0,76,20,4
0,76,23,0
0,74,0,2
0,74,0,2
0,76,0,2
0,78,21,2
0,78,25,0
0,76,0,8
0,66,0,1
0,74,0,0
0,64,16,2
0,73,16,0
0,76,22,0
0,76,27,0
0,78,0,14
0,78,0,2
0,76,0,66
0,76,0,4
0,73,23,10
0,73,29,0
0,76,24,192
0,76,32,0
0,73,0,2
0,73,0,6
0,73,25,40
0,73,33,0
0,76,0,10
0,76,0,14
0,69,25,24
0,69,34,0
0,73,0,10
0,73,0,34
0,64,25,4
0,64,35,0
0,69,0,14
0,69,0,8
0,69,27,26
0,69,36,0
0,64,0,12
0,64,0,6
0,73,27,30
0,73,37,0
0,69,0,12
0,69,0,26
0,73,0,2
0,33,0,6
0,64,0,0
0,69,0,0
0,73,0,0
0,45,23,2
0,67,23,0
0,71,23,0
0,74,28,0
0,74,23,0
0,74,38,0
0,73,0,8
0,74,0,38
0,73,28,2
0,73,39,0
0,74,0,14
0,73,0,32
0,71,29,2
0,71,40,0
0,73,0,8
0,69,29,40
0,69,41,0
0,71,0,0
0,71,0,2
0,71,29,46
0,71,41,0
0,69,0,2
0,69,0,2
0,71,0,44
0,73,30,0
0,73,42,0
0,71,0,10
0,67,0,36
0,71,0,0
0,73,0,0
0,66,27,2
0,69,30,0
0,69,27,0
0,69,43,0
0,73,0,4
0,66,31,44
0,66,44,0
0,69,0,6
0,69,0,16
0,66,0,22
0,66,0,2
0,69,31,2
0,69,45,0
0,74,31,48
0,74,46,0
0,78,32,48
0,78,47,0
0,74,0,10
0,74,0,2
0,78,0,34
0,74,32,2
0,74,48,0
0,78,0,2
0,45,0,44
0,66,0,0
0,74,0,0
0,45,30,2
0,64,30,0
0,73,30,0
0,74,0,0
0,76,33,0
0,76,49,0
0,74,0,6
0,73,33,42
0,73,50,0
0,76,0,8
0,69,0,38
0,69,0,1
0,69,33,1
0,69,51,0
0,73,0,20
0,64,34,28
0,64,51,0
0,69,0,14
0,69,0,2
0,73,0,20
0,69,34,12
0,69,52,0
0,64,0,4
0,64,0,0
0,73,35,44
0,73,53,0
0,76,0,47
0,74,35,1
0,74,54,0
0,73,0,8
0,73,0,6
0,76,36,34
0,76,55,0
0,74,0,6
0,74,0,6
0,74,36,36
0,74,62,0
0,76,0,10
0,76,0,8
0,73,36,30
0,73,63,0
0,74,0,28
0,69,0,18
0,69,0,1
0,71,37,1
0,71,65,0
0,73,0,6
0,74,0,2
0,73,0,2
0,69,37,38
0,69,67,0
0,71,0,4
0,71,0,6
0,69,0,28
0,69,0,0
0,69,0,4
0,45,0,4
0,64,0,0
0,73,0,0
0,35,39,2
0,45,37,0
0,45,23,0
0,67,37,0
0,71,37,0
0,74,37,0
0,81,38,0
0,93,69,0
0,40,47,3
0,35,0,1
0,45,0,0
0,40,0,3
0,45,37,41
0,79,38,0
0,91,71,0
0,45,0,4
0,81,0,4
0,79,0,38
0,35,26,2
0,45,41,0
0,74,38,0
0,86,72,0
0,40,27,3
0,35,0,1
0,45,0,0
0,40,0,3
0,35,49,41
0,45,45,0
0,71,39,0
0,83,74,0
0,40,39,3
0,35,0,1
0,45,0,0
0,74,0,0
0,40,0,3
0,86,0,5
0,83,0,32
0,71,0,2
0,35,54,2
0,45,47,0
0,74,39,0
0,86,76,0
0,40,49,3
0,35,0,1
0,45,0,0
0,40,0,3
0,91,0,7
0,93,0,0
0,35,54,34
0,45,47,0
0,71,41,0
0,83,78,0
0,40,33,3
0,35,0,1
0,45,0,0
0,40,0,3
0,86,0,31
0,74,0,4
0,45,0,4
0,67,0,0
0,71,0,0
0,71,0,0
0,35,56,2
0,45,40,0
0,45,53,0
0,66,40,0
0,69,40,0
0,79,41,0
0,91,79,0
0,83,0,2
0,40,47,1
0,35,0,1
0,45,0,0
0,40,0,3
0,35,61,41
0,45,53,0
0,78,42,0
0,90,81,0
0,79,0,2
0,35,0,2
0,45,0,0
0,91,0,2
0,35,66,42
0,45,55,0
0,74,42,0
0,86,83,0
0,78,0,2
0,40,45,1
0,35,0,1
0,45,0,0
0,90,0,0
0,40,0,3
0,35,61,41
0,45,57,0
0,69,42,0
0,81,85,0
0,35,0,4
0,45,0,0
0,74,0,12
0,86,0,18
0,35,70,14
0,45,57,0
0,74,43,0
0,86,87,0
0,40,51,3
0,35,0,1
0,45,0,0
0,69,0,0
0,40,0,3
0,81,0,5
0,35,66,36
0,45,69,0
0,69,43,0
0,81,88,0
0,40,54,3
0,35,0,1
0,45,0,0
0,74,0,2
0,40,0,1
0,86,0,23
0,69,0,8
0,81,0,6
0,45,0,2
0,66,0,0
0,69,0,0
0,74,0,0
0,35,70,2
0,45,44,0
0,45,73,0
0,69,44,0
0,73,44,0
0,74,44,0
0,74,90,0
0,76,44,0
0,40,60,3
0,35,0,1
0,45,0,0
0,40,0,3
0,35,68,41
0,45,73,0
0,73,44,0
0,73,92,0
0,40,64,3
0,35,0,1
0,45,0,0
0,40,0,3
0,74,0,1
0,73,0,36
0,35,85,4
0,45,83,0
0,69,44,0
0,69,94,0
0,40,72,3
0,35,0,1
0,45,0,0
0,40,0,3
0,35,85,41
0,45,87,0
0,64,45,0
0,64,95,0
0,69,0,2
0,40,72,1
0,35,0,1
0,45,0,0
0,40,0,3
0,69,0,5
0,64,0,34
0,35,101,2
0,45,91,0
0,69,45,0
0,69,97,0
0,73,0,0
0,40,90,3
0,35,0,1
0,45,0,0
0,64,0,0
0,40,0,3
0,74,0,5
0,35,106,36
0,45,105,0
0,73,46,0
0,73,99,0
0,40,95,3
0,35,0,1
0,45,0,0
0,40,0,3
0,69,0,7
0,35,111,34
0,45,111,0
0,74,46,0
0,74,101,0
0,73,0,2
0,40,103,1
0,35,0,1
0,45,0,0
0,40,0,3
0,73,0,9
0,35,115,32
0,45,105,0
0,76,47,0
0,76,103,0
0,40,113,3
0,35,0,1
0,45,0,0
0,40,0,3
0,74,0,3
0,74,0,4
0,35,122,34
0,45,111,0
0,74,47,0
0,74,104,0
0,40,113,3
0,35,0,1
0,45,0,0
0,40,0,3
0,76,0,2
0,76,0,10
0,69,0,10
0,35,106,4
0,45,111,0
0,73,47,0
0,73,106,0
0,40,106,3
0,35,0,1
0,45,0,0
0,40,0,3
0,74,0,5
0,35,115,36
0,45,111,0
0,71,48,0
0,71,108,0
0,73,0,0
0,73,0,2
0,40,113,1
0,35,0,1
0,45,0,0
0,74,0,0
0,40,0,3
0,71,0,37
0,35,106,4
0,45,105,0
0,69,48,0
0,69,110,0
0,40,106,3
0,35,0,1
0,45,0,0
0,71,0,2
0,40,0,1
0,69,0,2
0,69,0,6
0,33,99,2
0,45,0,0
0,69,0,0
0,73,0,0
0,76,0,0
0,35,117,2
0,45,86,0
0,49,50,0
0,77,111,0
0,79,107,0
0,79,90,0
0,79,112,0
0,83,94,0
0,86,90,0
0,86,112,0
0,35,0,4
0,49,0,0
0,51,63,30
0,51,0,4
0,51,59,28
0,51,0,4
0,51,61,2
0,51,0,4
0,51,97,16
0,51,0,4
0,51,59,10
0,40,68,3
0,51,0,1
0,40,0,3
0,77,0,4
0,79,0,4
0,83,0,0
0,79,0,1
0,76,97,1
0,78,107,0
0,78,80,0
0,79,0,0
0,81,86,0
0,51,97,0
0,78,90,0
0,40,119,3
0,51,0,1
0,40,0,3
0,35,106,4
0,51,63,0
0,35,0,4
0,51,0,0
0,35,127,28
0,51,59,0
0,35,0,4
0,51,0,0
0,51,63,12
0,51,0,0
0,35,122,12
0,51,75,0
0,35,0,0
0,51,0,0
0,51,63,10
0,51,0,4
0,76,0,2
0,33,0,12
0,78,0,2
0,33,105,2
0,45,0,0
0,78,0,0
0,81,0,0
0,86,0,0
0,86,0,0
0,78,0,1
0,35,127,1
0,45,72,0
0,49,50,0
0,74,105,0
0,76,113,0
0,76,76,0
0,76,68,0
0,81,76,0
0,85,94,0
0,35,0,2
0,49,0,0
0,51,53,40
0,51,0,4
0,76,86,44
0,51,123,8
0,81,86,0
0,51,0,4
0,85,90,0
0,33,0,18
0,45,117,8
0,51,123,2
0,86,94,0
0,40,126,3
0,51,0,1
0,40,0,3
0,85,0,1
0,85,94,32
0,86,0,10
0,43,111,36
0,43,95,2
0,86,94,0
0,43,0,4
0,85,0,4
0,45,0,6
0,85,98,18
0,86,0,6
0,40,105,12
0,81,0,1
0,35,127,1
0,43,0,0
0,43,113,0
0,86,94,0
0,35,0,2
0,43,0,0
0,85,0,4
0,74,0,2
0,85,86,16
0,86,0,16
0,40,0,8
0,76,0,4
0,85,0,4
0,45,0,12
0,76,0,2
0,76,0,0
0,81,0,0
0,85,0,0
0,35,117,2
0,45,86,0
0,49,50,0
0,62,90,0
0,67,102,0
0,76,0,0
0,77,101,0
0,79,107,0
0,79,90,0
0,79,80,0
0,83,94,0
0,86,90,0
0,86,94,0
0,35,0,4
0,43,111,0
0,49,0,0
0,51,63,20
0,51,0,4
0,51,59,28
0,51,0,4
0,51,61,2
0,51,0,4
0,51,97,8
0,51,0,0
0,77,0,4
0,35,108,2
0,51,59,0
0,35,0,4
0,51,0,0
0,79,0,2
0,62,0,4
0,79,0,2
0,83,0,0
0,79,0,1
0,78,107,1
0,51,97,0
0,62,98,0
0,66,114,0
0,76,97,0
0,78,80,0
0,78,90,0
0,81,86,0
0,40,119,3
0,51,0,1
0,40,0,3
0,67,0,5
0,35,106,4
0,51,63,0
0,35,0,4
0,51,0,0
0,51,59,28
0,40,117,3
0,51,0,1
0,40,0,3
0,40,70,1
0,40,0,4
0,40,70,8
0,40,0,4
0,40,70,9
0,40,0,4
0,51,63,2
0,40,70,3
0,51,0,1
0,40,0,3
0,40,70,5
0,40,0,3
0,35,127,2
0,41,96,0
0,51,75,0
0,35,0,0
0,41,0,0
0,51,0,0
0,76,0,8
0,51,63,2
0,43,0,2
0,51,0,2
0,78,0,14
0,45,0,3
0,78,0,1
0,81,0,0
0,86,0,0
0,86,0,0
0,78,0,1
0,35,122,1
0,45,72,0
0,49,50,0
0,61,98,0
0,64,102,0
0,66,0,0
0,74,79,0
0,76,95,0
0,76,76,0
0,76,80,0
0,76,68,0
0,81,90,0
0,81,76,0
0,85,94,0
0,85,90,0
0,35,0,0
0,49,0,0
0,33,105,2
0,81,0,0
0,62,0,2
0,46,53,74
0,46,0,4
0,40,95,7
0,40,0,4
0,40,95,7
0,40,0,3
0,40,119,9
0,40,0,4
0,51,127,6
0,51,0,4
0,40,113,31
0,40,0,4
0,35,115,6
0,43,101,0
0,35,0,4
0,43,0,0
0,35,115,10
0,43,107,0
0,35,0,2
0,43,0,0
0,33,0,4
0,74,0,2
0,35,115,50
0,43,107,0
0,35,0,4
0,43,0,0
0,76,0,24
0,33,99,2
0,45,0,0
0,76,0,0
0,76,0,0
0,76,0,0
0,81,0,0
0,85,0,0
0,85,0,0
0,35,117,2
0,45,86,0
0,49,50,0
0,61,0,0
0,62,90,0
0,64,0,0
0,65,101,0
0,67,107,0
0,67,102,0
0,79,90,0
0,79,80,0
0,83,94,0
0,86,90,0
0,86,94,0
0,35,0,4
0,49,0,0
0,51,63,20
0,51,0,4
0,51,59,28
0,51,0,4
0,51,61,2
0,40,95,3
0,51,0,1
0,40,0,3
0,51,97,14
0,40,113,3
0,51,0,0
0,40,0,3
0,65,0,14
0,35,108,2
0,51,59,0
0,35,0,4
0,51,0,0
0,67,0,2
0,62,0,4
0,79,0,2
0,83,0,0
0,79,0,1
0,51,97,1
0,62,98,0
0,64,97,0
0,66,107,0
0,66,114,0
0,78,80,0
0,78,90,0
0,81,86,0
0,40,119,3
0,51,0,1
0,40,0,3
0,67,0,5
0,35,127,4
0,51,63,0
0,35,0,4
0,51,0,0
0,51,59,28
0,40,113,3
0,51,0,1
0,40,0,3
0,35,122,2
0,51,63,0
0,35,0,4
0,51,0,0
0,35,127,2
0,41,96,0
0,51,75,0
0,40,126,3
0,35,0,1
0,41,0,0
0,51,0,0
0,40,0,3
0,64,0,10
0,35,127,6
0,51,63,0
0,35,0,4
0,51,0,0
0,33,0,14
0,66,0,0
0,45,0,6
0,33,105,2
0,78,0,0
0,81,0,0
0,86,0,0
0,86,0,0
0,78,0,1
0,35,115,1
0,45,72,0
0,49,50,0
0,61,98,0
0,64,95,0
0,64,102,0
0,66,0,0
0,76,76,0
0,76,68,0
0,81,90,0
0,81,76,0
0,85,94,0
0,62,101,2
0,35,0,2
0,49,0,0
0,81,0,2
0,62,0,2
0,51,63,18
0,51,0,4
0,51,93,92
0,51,0,4
0,62,0,26
0,33,0,52
0,45,117,12
0,62,123,0
0,51,123,2
0,40,126,3
0,51,0,1
0,40,0,3
0,60,51,4
0,40,70,3
0,40,0,4
0,62,0,1
0,57,59,14
0,40,70,1
0,60,0,3
0,40,0,1
0,40,70,16
0,40,0,4
0,57,0,1
0,91,76,6
0,60,101,2
0,43,111,2
0,45,117,2
0,45,0,4
0,92,76,0
0,91,0,8
0,92,0,0
0,93,76,0
0,45,0,2
0,96,64,16
0,93,0,2
0,57,63,6
0,60,0,0
0,40,70,1
0,40,0,4
0,96,0,3
0,91,76,2
0,40,70,11
0,40,0,4
0,92,76,3
0,91,0,2
0,40,70,11
0,92,0,1
0,57,0,2
0,58,97,0
0,40,0,1
0,93,60,1
0,96,80,8
0,40,105,2
0,93,0,0
0,41,118,2
0,43,0,0
0,41,0,4
0,96,0,2
0,91,80,4
0,92,72,4
0,91,0,2
0,43,101,4
0,43,0,4
0,92,0,0
0,93,72,2
0,96,76,2
0,93,0,2
0,40,126,1
0,40,0,3
0,40,0,1
0,96,0,4
0,91,72,4
0,58,0,4
0,64,0,4
0,45,0,2
0,76,0,0
0,76,0,0
0,81,0,0
0,85,0,0
0,35,117,2
0,45,86,0
0,49,50,0
0,55,113,0
0,61,0,0
0,62,90,0
0,64,0,0
0,67,102,0
0,79,90,0
0,79,80,0
0,83,94,0
0,86,90,0
0,86,94,0
0,62,107,1
0,35,0,3
0,43,111,0
0,49,0,0
0,91,0,2
0,92,76,2
0,92,0,2
0,93,42,0
0,96,72,4
0,93,0,2
0,91,72,14
0,96,0,0
0,51,63,8
0,51,0,4
0,91,0,6
0,92,76,2
0,92,0,16
0,93,72,2
0,51,59,2
0,51,0,4
0,96,64,12
0,93,0,4
0,96,0,14
0,91,80,4
0,91,0,4
0,92,72,2
0,51,61,6
0,51,0,4
0,92,0,2
0,93,60,2
0,93,0,0
0,96,52,0
0,51,97,8
0,40,106,3
0,51,0,1
0,40,0,3
0,96,0,0
0,91,86,4
0,91,0,2
0,92,76,2
0,92,0,4
0,93,68,0
0,51,59,14
0,96,80,0
0,51,0,4
0,93,0,0
0,96,0,14
0,62,0,3
0,91,80,1
0,62,0,4
0,79,0,2
0,83,0,0
0,79,0,1
0,50,113,1
0,55,0,0
0,35,127,0
0,51,97,0
0,57,87,0
0,62,98,0
0,66,114,0
0,78,80,0
0,78,90,0
0,81,86,0
0,57,107,1
0,35,0,3
0,51,0,0
0,57,0,0
0,91,0,6
0,67,0,2
0,92,80,2
0,92,0,4
0,93,68,2
0,96,72,12
0,93,0,4
0,96,0,14
0,51,63,2
0,91,86,2
0,51,0,2
0,91,0,18
0,92,86,4
0,43,113,6
0,51,59,0
0,43,0,4
0,51,0,0
0,92,0,4
0,93,76,0
0,96,52,4
0,93,0,4
0,91,86,16
0,96,0,0
0,51,63,2
0,51,0,4
0,91,0,0
0,92,68,2
0,92,0,12
0,93,76,0
0,51,75,12
0,93,0,2
0,96,60,0
0,40,126,1
0,51,0,0
0,40,0,3
0,91,72,0
0,96,0,2
0,92,68,4
0,91,0,2
0,92,0,4
0,93,72,2
