track,note,velocity,time
0,44,90,1860
0,43,50,4
0,42,45,4
0,41,44,4
0,40,44,4
0,39,48,4
0,38,45,22
0,37,43,2
0,36,43,2
0,35,42,2
0,34,43,2
0,56,85,12
0,60,85,0
0,63,85,0
0,33,46,2
0,35,107,0
0,49,79,0
0,42,71,2
0,82,45,0
0,32,102,2
0,32,107,2
0,56,116,0
0,60,116,0
0,63,110,0
0,68,109,0
0,44,116,6
0,87,91,6
0,69,33,62
0,42,38,4
0,42,61,0
0,82,27,0
0,42,37,66
0,82,31,6
0,42,71,70
0,69,34,0
0,38,94,2
0,54,70,4
0,42,37,6
0,82,34,6
0,69,26,68
0,42,61,6
0,63,110,0
0,32,94,2
0,63,70,0
0,75,96,0
0,51,109,4
0,69,36,6
0,42,39,4
0,68,82,48
0,87,84,10
0,82,39,14
0,35,107,2
0,42,69,0
0,60,110,0
0,72,115,0
0,32,101,2
0,72,70,2
0,84,96,0
0,69,25,22
0,42,39,0
0,42,63,74
0,82,33,4
0,58,116,6
0,70,122,0
0,87,78,2
0,42,39,2
0,70,70,0
0,82,96,0
0,82,30,8
0,69,40,24
0,38,94,4
0,42,71,2
0,54,74,0
0,82,34,72
0,42,39,2
0,87,82,8
0,68,122,32
0,68,70,2
0,80,96,0
0,56,121,2
0,42,63,2
0,69,25,0
0,42,39,50
0,69,34,2
0,56,85,2
0,61,85,0
0,65,85,0
0,65,84,8
0,56,119,10
0,68,98,0
0,61,110,2
0,65,100,0
0,77,81,2
0,37,109,4
0,49,119,0
0,35,107,4
0,65,70,0
0,77,96,0
0,42,72,2
0,82,41,0
0,37,102,2
0,69,20,46
0,42,42,4
0,42,63,60
0,82,18,2
0,42,37,6
0,82,31,2
0,38,94,70
0,42,72,2
0,69,33,0
0,54,71,4
0,42,37,68
0,82,28,2
0,69,25,8
0,42,69,6
0,53,98,0
0,65,109,0
0,37,95,4
0,65,70,2
0,77,96,0
0,42,38,30
0,69,33,0
0,42,72,56
0,35,107,2
0,60,112,0
0,82,29,0
0,37,100,2
0,72,70,2
0,72,113,0
0,84,96,0
0,77,79,6
0,69,26,6
0,42,39,2
0,42,61,72
0,68,97,6
0,82,28,2
0,58,110,4
0,70,121,0
0,70,70,10
0,82,96,0
0,42,39,2
0,82,31,0
0,69,37,22
0,38,94,4
0,42,72,0
0,54,78,2
0,82,36,72
0,42,39,2
0,68,119,2
0,56,110,10
0,68,70,0
0,80,96,0
0,69,26,14
0,42,63,8
0,69,37,50
0,42,39,6
0,56,85,4
0,60,85,0
0,63,85,0
0,84,89,0
0,32,109,0
0,56,121,0
0,60,115,2
0,63,115,0
0,68,113,0
0,63,70,2
0,75,96,0
0,82,44,0
0,35,107,0
0,42,71,2
0,68,102,0
0,32,102,2
0,44,119,0
0,69,28,4
0,42,38,4
0,42,56,8
0,82,31,2
0,82,25,4
0,42,37,2
0,38,94,34
0,69,36,0
0,42,71,2
0,54,71,4
0,42,39,70
0,82,36,4
0,69,32,32
0,42,61,4
0,63,70,0
0,75,96,0
0,32,93,4
0,63,113,4
0,51,110,4
0,69,35,32
0,42,39,2
0,68,83,48
0,35,107,6
0,42,71,2
0,82,37,0
0,32,102,2
0,60,113,2
0,72,70,0
0,72,112,0
0,84,96,0
0,84,85,10
0,42,39,6
0,69,26,0
0,42,64,74
0,82,33,6
0,70,122,4
0,58,119,2
0,84,81,4
0,42,39,6
0,70,70,2
0,82,96,0
0,82,31,0
0,42,72,18
0,38,94,2
0,69,30,2
0,54,79,0
0,82,35,68
0,42,37,4
0,84,80,10
0,68,70,2
0,68,123,0
0,80,96,0
0,56,118,2
0,42,57,28
0,69,23,2
0,69,37,0
0,42,40,2
0,56,85,4
0,61,85,0
0,65,85,0
0,77,72,6
0,65,85,2
0,80,87,6
0,65,70,2
0,77,96,0
0,61,110,2
0,35,107,2
0,42,71,0
0,56,116,0
0,65,104,0
0,68,91,0
0,37,107,2
0,37,102,2
0,49,121,0
0,82,43,0
0,69,30,40
0,42,39,2
0,42,61,0
0,82,31,0
0,82,35,26
0,42,40,4
0,69,35,72
0,38,94,2
0,42,72,0
0,54,64,0
0,42,39,74
0,82,29,2
0,65,103,20
0,53,98,4
0,84,81,0
0,42,61,6
0,69,31,0
0,65,70,4
0,77,96,0
0,37,96,2
0,42,39,42
0,69,34,2
0,87,92,50
0,60,109,4
0,72,112,2
0,35,107,4
0,42,72,2
0,72,70,0
0,84,96,0
0,37,101,2
0,82,34,2
0,69,27,10
0,42,39,4
0,42,70,80
0,82,32,2
0,58,113,2
0,70,112,0
0,87,86,4
0,70,70,10
0,82,96,0
0,42,37,4
0,82,31,6
0,42,71,6
0,69,38,0
0,38,94,2
0,54,78,0
0,39,100,4
0,63,124,66
0,75,119,0
0,75,70,2
0,87,96,0
0,42,39,2
0,82,31,0
0,87,83,10
0,69,36,36
0,42,68,2
0,42,39,4
0,69,35,0
0,56,85,2
0,60,85,0
0,63,85,0
0,87,84,10
0,56,118,12
0,60,113,0
0,63,115,0
0,68,113,0
0,44,113,2
0,82,43,2
0,35,107,2
0,57,68,0
0,42,71,2
0,32,100,2
0,69,30,68
0,42,39,6
0,42,63,74
0,82,27,2
0,42,41,28
0,82,32,0
0,69,33,70
0,38,94,6
0,42,72,2
0,54,64,4
0,42,39,22
0,82,32,0
0,42,63,14
0,69,30,4
0,32,98,2
0,42,39,76
0,69,37,0
0,35,107,32
0,42,71,0
0,82,41,0
0,51,90,2
0,32,101,2
0,56,98,0
0,70,107,0
0,60,87,2
0,69,37,16
0,42,37,4
0,42,64,72
0,82,31,6
0,42,40,26
0,82,29,0
0,70,102,6
0,69,42,2
0,38,94,2
0,42,69,0
0,54,76,2
0,42,40,64
0,82,33,0
0,42,70,0
0,69,23,0
0,68,102,2
0,69,37,74
0,42,39,4
0,56,85,4
0,61,85,0
0,65,85,0
0,35,107,2
0,70,102,0
0,42,71,2
0,37,101,2
0,82,39,2
0,37,100,2
0,53,93,0
0,56,110,0
0,49,95,2
0,42,38,68
0,69,27,4
0,42,61,48
0,82,33,4
0,82,23,72
0,42,37,2
0,65,101,4
0,54,71,2
0,69,32,0
0,38,94,2
0,42,71,2
0,42,37,74
0,82,28,4
0,69,31,6
0,42,61,6
0,65,102,0
0,37,99,4
0,42,39,74
0,69,38,0
0,49,82,28
0,53,93,4
0,56,109,0
0,35,107,4
0,42,69,0
0,82,29,2
0,37,101,2
0,69,27,70
0,42,39,6
0,42,63,34
0,82,27,2
0,42,39,74
0,82,29,8
0,67,85,44
0,38,94,4
0,69,34,0
0,42,71,2
0,54,80,0
0,39,100,2
0,42,39,2
0,82,21,0
0,69,27,4
0,42,63,2
0,42,39,76
0,69,36,0
0,56,85,2
0,60,85,0
0,63,85,0
0,68,82,8
0,51,109,18
0,56,107,2
0,60,101,0
0,42,72,4
0,44,101,0
0,82,37,0
0,35,107,0
0,32,102,4
0,69,29,74
0,42,42,4
0,82,28,62
0,42,63,2
0,82,29,74
0,42,37,4
0,38,94,74
0,42,72,0
0,54,68,0
0,69,37,0
0,42,37,74
0,82,26,8
0,69,29,44
0,42,69,2
0,51,75,0
0,32,99,2
0,69,36,70
0,42,38,6
0,35,107,42
0,42,72,2
0,70,102,0
0,32,100,2
0,51,112,2
0,82,30,0
0,56,107,2
0,60,101,0
0,69,31,38
0,42,39,4
0,42,61,76
0,82,28,4
0,70,101,40
0,42,39,4
0,82,34,6
0,69,31,64
0,42,72,2
0,38,94,2
0,54,75,6
0,42,39,68
0,82,32,6
0,68,101,2
0,42,63,2
0,69,27,0
0,69,40,40
0,42,39,8
0,56,85,2
0,61,85,0
0,65,85,0
0,61,83,8
0,37,104,0
0,49,107,0
0,53,100,0
0,56,113,0
0,35,107,4
0,70,102,0
0,42,71,2
0,37,101,2
0,82,45,2
0,69,33,64
0,42,38,8
0,82,27,66
0,42,56,2
0,42,37,74
0,82,31,4
0,38,94,0
0,54,71,0
0,69,34,0
0,42,71,2
0,72,101,2
0,82,34,74
0,42,39,2
0,68,102,14
0,42,61,4
0,69,26,2
0,37,99,2
0,69,36,64
0,42,39,6
0,42,71,2
0,35,107,2
0,49,118,0
0,37,102,4
0,82,39,0
0,42,39,72
0,69,25,2
0,82,33,40
0,42,64,2
0,42,39,48
0,82,30,2
0,54,78,72
0,69,40,0
0,38,94,2
0,42,72,0
0,53,109,4
0,42,37,36
0,82,34,6
0,69,25,6
0,42,57,2
0,42,40,4
0,69,34,0
0,56,85,4
0,60,85,0
0,63,85,0
0,63,86,6
0,35,107,6
0,42,71,0
0,32,101,4
0,82,41,0
0,51,118,4
0,60,107,0
0,56,112,2
0,44,113,2
0,69,20,70
0,42,39,4
0,42,61,72
0,82,18,2
0,42,40,74
0,82,31,4
0,42,72,70
0,38,94,2
0,54,69,0
0,69,33,0
0,42,39,12
0,75,102,0
0,82,28,4
0,44,85,56
0,42,61,4
0,69,25,0
0,32,94,2
0,75,101,12
0,42,39,12
0,69,33,0
0,42,72,12
0,82,29,0
0,35,107,2
0,51,119,0
0,56,112,0
0,60,106,0
0,75,107,2
0,32,100,2
0,42,39,78
0,69,26,0
0,82,28,8
0,42,70,2
0,75,101,4
0,42,37,28
0,75,101,2
0,82,31,2
0,38,94,74
0,42,71,2
0,69,37,0
0,54,75,2
0,73,101,0
0,42,39,4
0,82,36,2
0,42,68,70
0,69,26,2
0,72,98,4
0,69,37,72
0,42,39,6
0,56,85,2
0,61,85,0
0,65,85,0
0,61,87,8
0,37,110,18
0,49,122,0
0,53,112,0
0,56,118,0
0,61,118,0
0,72,102,2
0,42,71,2
0,35,107,2
0,37,102,4
0,82,44,0
0,69,28,66
0,42,39,4
0,82,31,0
0,42,63,2
0,73,101,2
0,42,41,10
0,73,101,0
0,82,25,2
0,69,36,32
0,38,94,2
0,42,72,0
0,54,68,2
0,42,39,70
0,82,36,0
0,69,32,48
0,42,63,4
0,37,99,6
0,42,39,76
0,69,35,2
0,56,85,2
0,60,85,0
0,63,85,0
0,60,83,8
0,36,107,4
0,48,112,0
0,35,107,0
0,56,122,0
0,60,115,0
0,63,116,0
0,42,71,2
0,36,101,2
0,82,37,2
0,69,26,64
0,42,37,4
0,42,64,80
0,82,33,2
0,42,40,52
0,82,31,0
0,54,79,74
0,69,30,0
0,38,94,2
0,42,69,2
0,42,40,20
0,82,35,8
0,42,70,62
0,69,23,0
0,36,95,4
0,72,101,0
0,42,39,18
0,69,37,4
0,72,102,0
0,58,85,4
0,61,85,0
0,65,85,0
0,58,85,8
0,46,113,2
0,61,116,0
0,34,112,2
0,53,106,0
0,58,118,0
0,35,107,2
0,42,71,0
0,34,100,4
0,82,43,2
0,42,38,72
0,69,30,0
0,42,61,2
0,70,95,2
0,82,31,0
0,42,37,8
0,70,101,0
0,82,35,0
0,69,35,70
0,54,69,4
0,38,94,2
0,42,71,0
0,42,37,2
0,82,29,0
0,49,93,66
0,42,61,2
0,69,31,0
0,34,94,2
0,69,34,34
0,42,39,2
0,49,119,50
0,53,110,0
0,58,115,0
0,82,34,4
0,35,107,2
0,42,69,2
0,34,100,2
0,69,27,50
0,42,39,2
0,42,63,74
0,82,32,6
0,82,31,72
0,42,39,0
0,53,104,68
0,69,38,2
0,42,71,2
0,38,94,2
0,68,95,0
0,54,76,2
0,42,39,18
0,82,31,4
0,72,101,12
0,42,63,4
0,69,36,0
0,69,35,72
0,42,39,2
0,55,85,4
0,58,85,0
0,63,85,0
0,60,85,8
0,51,118,2
0,55,115,0
0,82,43,0
0,35,107,0
0,39,118,0
0,60,112,0
0,42,72,2
0,39,102,2
0,42,42,72
0,69,30,4
0,42,63,40
0,82,27,6
0,42,37,4
0,82,32,2
0,69,33,6
0,38,94,4
0,42,72,0
0,54,69,0
0,70,101,0
0,82,32,76
0,42,37,2
0,42,69,48
0,69,30,0
0,39,98,4
0,69,37,76
0,42,38,2
0,35,107,16
0,42,72,0
0,82,41,0
0,58,109,2
0,39,100,2
0,69,37,70
0,42,39,8
0,42,61,30
0,82,31,2
0,42,39,24
0,82,29,6
0,55,85,4
0,60,85,0
0,64,85,0
0,60,85,8
0,42,72,4
0,38,94,0
0,57,63,0
0,69,42,0
0,55,119,2
0,40,110,2
0,40,99,0
0,52,115,0
0,60,110,0
0,54,78,2
0,42,39,72
0,82,33,2
0,42,63,26
0,69,23,2
0,69,37,26
0,42,39,0
0,56,85,2
0,60,85,0
0,65,85,0
0,65,83,8
0,82,39,2
0,35,107,2
0,49,74,0
0,53,110,0
0,56,123,0
0,60,115,0
0,41,115,2
0,42,71,0
0,29,113,2
0,29,101,0
0,69,27,68
0,42,38,8
0,68,85,10
0,42,56,24
0,82,33,2
0,42,37,62
0,82,23,6
0,65,79,10
0,69,32,20
0,38,94,6
0,42,71,0
0,54,71,2
0,42,39,76
0,82,28,0
0,60,80,10
0,53,85,18
0,69,31,2
0,42,61,4
0,29,99,6
0,69,38,38
0,42,39,4
0,56,82,10
0,53,104,0
0,56,118,0
0,60,112,0
0,35,107,4
0,42,71,2
0,29,100,2
0,77,102,0
0,82,29,0
0,42,39,72
0,69,27,0
0,53,78,10
0,42,64,26
0,82,27,0
0,42,39,74
0,79,102,4
0,82,29,0
0,48,74,10
0,69,34,2
0,38,94,2
0,42,72,2
0,54,78,0
0,82,21,32
0,42,37,4
0,44,78,10
0,42,57,4
0,80,101,0
0,69,27,2
0,69,36,70
0,42,40,4
0,55,85,2
0,58,85,0
0,63,85,0
0,70,77,8
0,51,119,14
0,55,115,0
0,58,109,2
0,39,121,2
0,82,37,4
0,35,107,0
0,42,71,2
0,39,102,2
0,79,107,0
0,42,39,72
0,69,29,0
0,82,28,34
0,42,61,4
0,42,40,74
0,82,29,0
0,69,37,6
0,77,101,2
0,38,94,2
0,42,72,2
0,54,68,4
0,42,39,4
0,82,26,4
0,42,61,2
0,69,29,0
0,51,97,2
0,75,102,0
0,39,94,2
0,69,36,70
0,42,39,8
0,42,72,36
0,35,107,2
0,39,101,2
0,55,112,2
0,58,112,0
0,82,30,0
0,69,31,66
0,42,39,2
0,42,70,36
0,82,28,4
0,42,37,70
0,82,34,0
0,54,78,58
0,69,31,0
0,38,94,0
0,42,71,0
0,42,99,4
0,42,39,8
0,82,32,0
0,42,68,34
0,69,27,0
0,69,40,72
0,42,39,2
0,53,85,2
0,56,85,0
0,61,85,0
0,68,77,2
0,49,121,4
0,53,113,0
0,56,110,0
0,37,124,2
0,35,107,4
0,42,71,2
0,37,102,2
0,82,45,2
0,69,33,64
0,42,39,4
0,42,63,6
0,82,27,4
0,42,41,70
0,82,31,2
0,42,72,72
0,69,34,0
0,38,94,2
0,54,71,6
0,42,39,14
0,82,34,2
0,42,63,66
0,49,100,2
0,69,26,2
0,37,99,2
0,69,36,26
0,42,39,0
0,82,39,70
0,35,107,2
0,42,71,2
0,37,100,2
0,77,102,0
0,53,110,2
0,56,116,2
0,42,37,72
0,69,25,0
0,42,64,78
0,82,33,0
0,42,40,0
0,75,102,2
0,82,30,0
0,42,69,72
0,54,80,0
0,38,94,2
0,69,40,0
0,42,40,4
0,82,34,6
0,77,101,4
0,42,70,2
0,69,25,2
0,42,39,74
0,69,34,2
0,55,85,2
0,58,85,0
0,63,85,0
0,70,83,8
0,70,102,2
0,51,119,2
0,55,115,0
0,58,107,0
0,39,118,2
0,35,107,2
0,42,71,2
0,82,41,0
0,39,101,2
0,42,38,54
0,69,20,0
0,42,61,6
0,82,18,0
0,42,37,78
0,82,31,6
0,69,33,42
0,38,94,2
0,54,71,0
0,42,71,2
0,42,37,50
0,82,28,0
0,51,92,20
0,70,101,2
0,69,25,2
0,42,61,4
0,39,95,2
0,42,39,0
0,68,86,2
0,69,33,0
0,55,112,50
0,58,110,0
0,70,102,2
0,35,107,2
0,82,29,0
0,42,69,2
0,39,100,2
0,69,26,68
0,42,39,8
0,82,28,8
0,42,63,4
0,42,39,74
0,82,31,6
0,55,85,2
0,58,85,0
0,64,85,0
0,70,80,8
