track,note,velocity,time
1,42,110,18502
1,39,90,22
1,35,95,14
1,30,99,22
1,42,110,86
1,39,90,22
1,35,95,14
1,30,99,22
1,42,110,86
1,39,90,22
1,35,95,14
1,30,99,22
1,42,110,86
1,39,90,22
1,35,95,14
1,30,99,22
1,42,96,86
1,42,95,16
1,41,100,16
1,41,99,16
1,39,105,16
1,39,95,16
1,37,98,16
1,37,93,16
1,35,94,16
1,35,92,16
1,37,96,16
1,37,102,16
1,30,113,354
1,32,87,16
1,34,100,16
1,35,108,16
1,37,98,16
1,42,96,8
1,42,95,16
1,41,100,16
1,41,99,16
1,39,105,16
1,39,95,16
1,37,98,16
1,37,93,16
1,35,94,16
1,35,92,16
1,37,96,16
1,37,102,16
1,30,113,354
1,32,87,16
1,34,100,16
1,35,108,16
1,37,98,16
1,42,110,8
1,39,90,22
1,35,95,14
1,30,99,22
1,42,110,86
1,39,90,22
1,35,95,14
1,30,99,22
1,42,110,86
1,39,90,22
1,35,95,14
1,30,99,22
1,42,110,86
1,39,90,22
1,35,95,14
1,30,99,22
1,42,110,86
1,39,90,22
1,35,95,14
1,30,99,22
1,42,110,86
1,39,90,22
1,35,95,14
1,30,99,22
1,42,110,86
1,39,90,22
1,35,95,14
1,30,99,22
1,42,110,86
1,39,90,22
1,35,95,14
1,30,99,22
1,30,119,86
1,42,107,88
1,41,122,20
1,41,118,60
1,39,118,12
1,39,111,56
1,37,107,16
1,37,107,70
1,35,122,32
1,35,113,76
1,37,101,26
1,37,104,50
1,30,115,270
1,32,111,12
1,34,111,40
1,35,119,8
1,37,122,36
1,30,119,8
1,30,107,90
1,29,122,22
1,29,96,94
1,39,111,26
1,39,111,74
1,37,118,16
1,37,111,84
1,35,113,22
1,35,104,102
1,37,104,12
1,37,104,74
1,30,115,226
1,32,99,8
1,34,107,40
1,32,111,16
1,36,118,26
1,37,115,74
1,37,103,88
1,36,118,20
1,36,114,60
1,34,114,12
1,34,107,56
1,32,103,16
1,32,103,70
1,30,118,32
1,30,109,76
1,32,97,26
1,32,100,50
1,37,115,78
1,37,103,88
1,36,118,20
1,36,114,60
1,34,114,12
1,34,107,56
1,32,103,16
1,32,103,70
1,30,118,32
1,30,109,76
1,32,97,26
1,32,100,50
1,37,104,78
1,35,77,10754
1,35,77,82
1,35,80,68
1,35,84,64
1,30,98,46
1,30,98,94
1,30,116,84
1,30,125,102
1,30,119,50
1,42,107,88
1,41,122,20
1,41,118,60
1,39,118,12
1,39,111,56
1,37,107,16
1,37,107,70
1,35,122,32
1,35,113,76
1,37,101,26
1,37,104,50
1,30,115,270
1,32,111,12
1,34,111,40
1,35,119,8
1,37,122,36
1,30,119,8
1,30,107,90
1,29,122,22
1,29,96,94
1,39,111,26
1,39,111,74
1,37,118,16
1,37,111,84
1,35,113,22
1,35,104,102
1,37,104,12
1,37,104,74
1,30,115,226
1,32,99,8
1,34,107,40
1,32,111,16
1,36,118,26
1,37,119,74
1,37,107,88
1,36,122,20
1,36,118,60
1,34,118,12
1,34,111,56
1,32,107,16
1,32,107,70
1,30,122,32
1,30,113,76
1,32,101,26
1,32,104,50
1,37,115,270
1,39,111,12
1,29,111,40
1,30,119,8
1,32,122,36
1,37,119,8
1,37,107,88
1,36,122,20
1,36,118,60
1,34,118,12
1,34,111,56
1,32,107,16
1,32,107,70
1,30,122,32
1,30,113,76
1,32,101,26
1,32,104,50
1,37,115,270
1,39,111,12
1,29,111,40
1,30,119,8
1,32,122,36
1,37,119,8
1,37,107,88
1,36,122,20
1,36,118,60
1,34,118,12
1,34,111,56
1,32,107,16
1,32,107,70
1,30,122,32
1,30,113,76
1,32,101,26
1,32,104,50
1,37,115,270
1,39,111,12
1,29,111,40
1,30,119,8
1,32,122,36
1,37,119,8
1,37,107,88
1,36,122,20
1,36,118,60
1,34,118,12
1,34,111,56
1,32,107,16
1,32,107,70
1,30,122,32
1,30,113,76
1,32,101,26
1,37,102,8
2,61,81,58442
2,66,81,2
2,54,86,4
2,61,87,172
2,66,84,2
2,54,93,4
2,54,112,9672
2,53,111,2
2,51,118,6
2,49,115,20
2,47,109,754
2,49,104,4
2,42,115,112
2,44,105,6
2,46,115,2
2,47,115,6
2,49,101,358
2,54,113,6
2,53,102,6
2,51,104,6
2,49,104,6
2,47,111,2
2,49,99,0
2,42,127,32
2,54,127,4
2,56,120,266
2,44,111,2
2,46,119,72
2,58,118,2
2,56,125,0
2,44,104,6
2,65,127,26
2,73,117,40
2,73,117,12
2,70,117,6
2,73,117,12
2,68,110,12
2,67,112,12
2,66,106,12
2,65,101,6
2,64,95,12
2,63,89,12
2,62,84,12
2,73,117,118
2,70,96,12
2,73,117,12
2,75,117,12
2,73,117,118
2,70,90,12
2,73,117,12
2,68,101,12
2,67,112,10
2,66,106,12
2,65,101,4
2,64,95,12
2,63,89,12
2,62,84,4
2,77,117,72
2,77,107,8
2,78,107,12
2,80,88,12
2,75,107,12
2,73,113,12
2,70,93,12
2,80,113,12
2,78,117,12
2,80,98,12
2,77,115,12
2,73,117,12
2,68,98,12
2,73,117,12
2,72,113,12
2,71,103,6
2,70,94,12
2,69,84,6
2,68,113,12
2,70,101,12
2,63,117,12
2,61,117,12
2,63,117,12
2,65,100,12
2,63,110,4
2,65,117,12
2,68,107,12
2,63,117,12
2,61,117,12
2,58,96,12
2,61,117,12
2,63,96,12
2,58,115,12
2,56,124,12
2,55,108,12
2,54,107,12
2,53,106,12
2,52,104,12
2,51,103,4
2,50,101,12
2,65,115,6
2,68,113,12
2,70,102,6
2,73,105,6
2,75,100,6
2,77,105,6
2,78,109,6
2,78,112,6
2,77,103,6
2,75,111,6
2,73,112,6
2,68,104,6
2,49,109,2
2,56,97,2
2,61,88,4
2,54,112,11526
2,53,111,12
2,51,118,6
2,49,115,20
2,47,109,754
2,49,104,4
2,42,115,112
2,44,105,6
2,46,115,2
2,47,115,6
2,49,101,358
2,54,113,6
2,53,102,6
2,51,104,6
2,49,104,6
2,47,111,2
2,49,99,0
2,42,127,18
2,54,127,4
2,56,120,266
2,44,111,2
2,46,127,72
2,58,127,2
2,56,127,0
2,44,97,6
2,63,122,12
2,61,106,84
2,49,112,180
2,48,111,4
2,46,118,6
2,44,115,4
2,42,109,6
2,44,111,6
2,49,115,106
2,51,105,288
2,53,115,6
2,54,115,6
2,56,120,6
2,49,112,384
2,48,111,6
2,46,118,6
2,44,115,4
2,42,109,6
2,44,104,6
2,49,115,106
2,51,105,288
2,53,115,6
2,54,115,6
2,56,120,6
2,49,112,384
2,48,111,6
2,46,118,6
2,44,115,4
2,42,109,6
2,44,111,6
2,49,115,106
2,51,105,288
2,53,115,6
2,54,115,6
2,56,120,6
2,49,112,384
2,48,111,6
2,46,118,6
2,44,115,4
2,42,109,6
2,44,104,6
2,56,75,6
2,49,99,0
3,68,102,7430
3,70,104,8
3,73,110,32
3,73,112,56
3,68,111,372
3,70,104,8
3,66,101,44
3,73,106,1948
3,78,112,70
3,78,106,44
3,78,102,26
3,78,113,102
3,75,102,40
3,78,113,88
3,73,104,8
3,75,104,8
3,73,104,12
3,70,111,22
3,73,111,32
3,73,110,58
3,68,113,310
3,68,113,18
3,66,109,8
3,66,101,1520
3,70,106,34
3,70,106,34
3,73,112,36
3,73,115,48
3,70,104,68
3,70,115,160
3,66,106,2132
3,70,113,70
3,73,121,84
3,73,121,58
3,75,111,8
3,70,123,26
3,68,112,92
3,66,104,8
3,73,124,1736
3,78,117,70
3,80,117,8
3,78,119,8
3,78,120,4
3,75,115,36
3,73,108,26
3,78,120,70
3,73,111,8
3,68,108,938
3,70,108,8
3,73,124,30
3,73,121,58
3,75,113,20
3,75,111,40
3,68,110,236
3,70,124,8
3,68,116,72
3,66,108,16
3,68,109,60
3,70,105,12
3,66,116,1316
3,70,113,20
3,73,112,36
3,73,121,40
3,73,116,60
3,70,124,94
3,70,123,160
3,66,101,964
3,70,110,12
3,73,113,22
3,73,123,40
3,73,124,54
3,75,108,8
3,70,124,164
3,68,105,8
3,66,101,8
3,66,105,1956
3,70,111,12
3,73,115,32
3,73,123,46
3,73,115,26
3,75,120,8
3,66,113,198
3,68,120,140
3,66,115,8
3,73,106,1670
3,75,115,70
3,73,119,16
3,75,124,44
3,73,117,16
3,78,119,26
3,73,124,84
3,75,115,8
3,73,110,10
3,70,119,2088
3,70,119,44
3,70,123,30
3,73,121,40
3,73,123,44
3,68,124,22
3,66,119,8
3,73,118,2794
3,78,125,74
3,77,113,8
3,78,124,48
3,78,125,314
3,75,123,88
3,73,118,40
3,78,125,54
3,73,120,1744
3,75,123,64
3,78,125,74
3,80,124,12
3,77,121,62
3,75,115,532
3,73,114,8
3,73,115,40
3,78,125,1010
3,73,120,30
3,73,125,64
3,75,112,12
3,70,121,490
3,73,120,26
3,73,120,44
3,70,125,42
3,70,125,18
3,68,108,8
3,66,113,10
3,70,115,66
3,73,118,10
3,73,125,50
3,73,125,92
3,70,121,114
3,70,125,140
3,68,111,8
3,66,111,10
3,73,121,1820
3,73,125,58
3,75,121,30
3,78,125,2
3,75,117,88
3,78,125,50
3,75,123,56
3,78,125,36
3,78,125,1494
3,78,125,4
3,75,120,14
3,78,125,24
3,78,124,664
3,75,116,8
3,78,124,80
3,75,120,22
3,73,116,8
3,78,125,1048
3,73,120,20
3,75,121,82
3,78,125,26
3,70,120,782
3,73,118,32
3,75,124,84
3,70,120,32
3,68,121,34
3,66,116,8
3,66,111,794
3,70,118,16
3,73,124,22
3,73,121,44
3,73,125,88
3,75,124,8
3,70,125,198
3,68,113,108
3,70,125,8
3,68,115,8
3,66,123,10
3,70,125,872
3,75,125,18
3,78,124,16
3,78,125,36
3,78,125,58
3,78,125,12
3,78,124,78
3,78,125,14
3,78,123,12
3,78,118,500
3,75,123,8
3,77,123,50
3,78,125,8
3,70,123,78
3,70,124,8
3,68,118,8
3,66,125,16
3,73,125,1918
3,75,125,40
3,78,121,26
3,78,125,40
3,78,125,50
3,78,125,8
3,78,125,156
3,73,104,1698
3,75,123,8
3,78,123,22
3,78,125,46
3,78,123,46
3,70,125,46
3,70,123,144
3,68,121,8
3,66,124,12
3,68,111,13920
3,70,113,8
3,73,122,16
3,73,118,46
3,68,111,122
3,70,111,8
3,66,111,46
3,78,123,1332
3,80,116,8
3,78,117,8
3,75,115,50
3,73,115,90
3,78,125,22
3,77,115,8
3,75,121,92
3,73,120,12
3,68,111,1012
3,70,113,8
3,73,118,16
3,73,123,58
3,75,111,8
3,70,121,144
3,68,108,12
3,70,123,104
3,68,112,8
3,66,111,12
3,66,120,1770
3,70,124,40
3,73,127,26
3,73,127,46
3,73,127,58
3,75,122,12
3,70,127,146
3,68,127,116
3,70,127,8
3,68,122,8
3,66,118,8
3,78,127,760
3,78,125,54
3,78,127,34
3,78,127,50
3,78,127,56
3,80,127,8
3,78,127,36
3,78,127,56
3,73,117,2
3,78,127,1272
3,80,127,8
3,78,127,8
3,75,127,356
3,75,127,50
3,75,127,50
3,78,127,50
3,70,127,64
3,70,127,146
3,68,127,8
3,66,124,16
3,73,127,1888
3,75,127,36
3,78,127,26
3,78,127,50
3,78,127,26
3,80,127,8
3,78,127,20
3,78,127,218
3,73,121,1624
3,75,127,8
3,75,127,44
3,78,125,26
3,78,127,50
3,70,127,68
3,70,127,126
3,68,127,10
3,66,127,16
3,73,127,2916
3,75,127,42
3,75,127,72
3,76,127,8
3,75,127,8
3,73,127,30
3,73,127,8
3,73,127,94
3,75,127,44
3,76,127,54
3,75,111,8
3,77,127,22
3,75,127,22
3,73,127,98
3,70,127,26
3,80,127,252
3,77,127,54
3,80,127,68
3,80,127,36
3,75,127,64
3,73,127,16
3,80,127,1008
3,77,124,8
3,80,127,34
3,77,127,20
3,80,127,26
3,77,127,84
3,73,127,40
3,73,127,1182
3,80,127,40
3,80,127,46
3,77,127,12
3,77,127,732
3,80,127,108
3,77,127,18
3,75,127,12
3,73,127,12
3,80,127,1766
3,77,127,16
3,80,127,30
3,77,127,12
3,80,127,30
3,77,127,118
3,73,127,18
3,80,127,1216
3,77,127,26
3,80,127,50
3,77,127,20
3,80,127,24
3,80,127,446
3,80,127,84
3,77,127,46
3,75,127,20
3,73,127,10
3,80,127,1556
3,77,122,8
3,80,127,64
3,77,127,10
3,80,127,46
3,77,127,22
3,80,127,44
3,77,127,100
3,73,127,8
3,73,124,2526
3,80,127,30
3,80,127,50
3,80,127,36
3,75,122,46
3,77,126,8
3,73,127,8
3,80,127,146
3,77,127,40
3,75,127,30
3,80,127,56
3,73,120,586
3,75,127,8
3,73,127,18
3,75,127,28
3,73,127,24
3,78,127,46
3,80,127,8
3,75,127,58
3,77,127,8
3,73,127,14
4,70,104,60
4,73,104,0
4,70,98,0
4,75,112,88
4,75,113,36
4,73,108,78
4,73,99,3762
4,70,91,6
4,73,103,6
4,70,101,6
4,73,101,6
4,75,101,6
4,75,109,6
4,75,111,0
4,73,105,6
4,73,115,2
4,85,110,4
4,77,115,170
4,80,95,8
4,75,108,86
4,73,108,2
4,77,115,22
4,73,115,0
4,70,95,4
4,73,115,20
4,70,105,4
4,80,105,8
4,77,111,46
4,80,105,2
4,75,105,86
4,73,115,104
4,82,95,32
4,85,95,8
4,85,105,46
4,82,100,12
4,85,105,20
4,85,105,50
4,80,103,14
4,77,97,60
4,75,100,92
4,73,106,10
4,75,103,94
4,73,106,2
4,77,113,2
4,73,99,14
5,73,84,31396
5,61,76,0
5,70,88,0
5,66,75,0
5,65,74,6
5,73,78,0
5,68,89,0
5,70,81,6
5,66,75,0
5,63,89,0
5,68,69,6
5,70,84,0
5,65,77,0
5,61,84,0
5,63,97,6
5,66,94,0
5,71,102,0
5,59,87,198
5,63,87,0
5,66,93,0
5,61,93,6
5,66,87,0
5,63,93,0
5,68,97,0
5,73,93,2118
5,70,97,0
5,61,85,0
5,66,84,0
5,68,98,6
5,73,87,0
5,65,83,0
5,66,84,6
5,70,90,0
5,63,98,0
5,61,93,6
5,65,86,0
5,68,73,0
5,70,93,0
5,71,102,6
5,66,94,0
5,63,97,0
5,66,93,198
5,63,87,0
5,59,87,0
5,68,97,6
5,63,93,0
5,61,93,0
5,66,87,0
5,61,92,26694
5,66,91,0
5,70,104,0
5,73,100,0
5,73,94,6
5,68,105,0
5,65,90,0
5,66,91,6
5,63,105,0
5,70,97,0
5,70,100,6
5,68,85,0
5,65,93,0
5,61,100,0
5,66,101,6
5,63,104,0
5,71,109,0
5,59,94,198
5,66,100,0
5,63,94,0
5,68,104,6
5,61,100,0
5,66,94,0
5,63,100,0
5,61,81,2118
5,66,80,0
5,70,93,0
5,73,89,0
5,65,79,6
5,68,94,0
5,73,83,0
5,70,86,6
5,66,80,0
5,63,94,0
5,65,82,6
5,61,89,0
5,70,89,0
5,68,69,0
5,63,104,6
5,66,101,0
5,71,109,0
5,66,100,198
5,63,94,0
5,59,94,0
5,61,100,6
5,63,100,0
5,68,104,0
5,66,94,0
5,73,100,25158
5,70,104,0
5,61,92,0
5,66,91,0
5,68,105,6
5,73,94,0
5,65,90,0
5,66,91,6
5,63,105,0
5,70,97,0
5,61,100,6
5,65,93,0
5,68,85,0
5,70,100,0
5,63,104,6
5,66,101,0
5,71,109,0
5,59,94,198
5,63,94,0
5,66,100,0
5,68,104,6
5,61,100,0
5,63,100,0
5,66,94,0
5,61,92,2118
5,70,104,0
5,73,100,0
5,66,91,0
5,68,105,6
5,73,94,0
5,65,90,0
5,63,105,6
5,70,97,0
5,66,91,0
5,68,80,6
5,70,100,0
5,65,93,0
5,61,100,0
5,71,109,6
5,66,101,0
5,63,104,0
5,66,100,198
5,59,94,0
5,63,94,0
5,63,100,6
5,61,100,0
5,68,104,0
5,66,94,0
5,68,100,2118
5,73,91,0
5,65,104,0
5,72,90,6
5,68,94,0
5,63,105,0
5,73,91,6
5,70,105,0
5,65,97,0
5,65,100,6
5,68,100,0
5,72,93,0
5,68,113,6
5,65,86,0
5,70,116,6
5,65,100,0
5,73,123,6
5,68,127,0
5,75,113,6
5,70,102,0
5,77,118,6
