track,note,velocity,time
0,42,63,90
0,42,62,92
0,45,113,92
0,57,108,0
0,57,102,0
0,79,102,0
0,74,105,96
0,71,104,96
0,57,102,0
0,78,101,0
0,74,105,95
0,69,108,96
0,57,102,0
0,76,112,0
0,73,101,77
0,69,113,8
0,57,102,0
0,76,97,0
0,73,89,1
0,69,105,2
0,71,91,5
0,73,91,2
0,76,102,48
0,57,102,0
0,79,105,0
0,74,99,96
0,71,113,96
0,57,102,0
0,78,109,0
0,74,105,91
0,69,107,24
0,38,122,0
0,41,127,0
0,57,102,0
0,76,108,0
0,38,43,40
0,41,36,0
0,38,52,44
0,41,45,0
0,73,96,0
0,38,50,44
0,41,51,0
0,41,63,44
0,38,60,0
0,69,101,0
0,38,67,44
0,41,62,0
0,38,80,0
0,41,86,0
0,57,102,0
0,76,102,0
0,38,97,9
0,41,96,0
0,73,92,0
0,41,97,40
0,38,109,0
0,69,108,0
0,41,105,0
0,38,120,0
0,71,113,0
0,38,125,44
0,41,105,0
0,73,110,0
0,46,110,44
0,35,120,0
0,76,114,0
0,49,91,0
0,35,127,0
0,62,125,0
0,55,115,0
0,59,122,0
0,33,127,0
0,33,127,0
0,57,102,0
0,79,102,0
0,71,118,0
0,74,125,0
0,67,115,0
0,79,127,0
0,79,127,0
0,35,127,3
0,52,116,0
0,62,122,0
0,59,118,0
0,55,115,0
0,33,113,0
0,33,127,0
0,74,105,0
0,51,77,2
0,55,63,0
0,71,104,0
0,35,95,2
0,33,109,3
0,51,114,0
0,38,127,0
0,57,127,0
0,54,112,0
0,62,118,0
0,33,116,0
0,57,102,0
0,78,101,0
0,69,106,0
0,74,116,0
0,66,114,0
0,78,127,0
0,78,112,0
0,51,76,2
0,57,115,0
0,62,116,0
0,54,108,0
0,74,105,0
0,51,93,1
0,54,75,0
0,69,108,0
0,35,89,3
0,28,116,0
0,33,125,1
0,49,85,0
0,35,125,0
0,52,118,0
0,57,118,0
0,61,114,0
0,33,127,0
0,57,102,0
0,76,112,0
0,69,108,0
0,73,107,0
0,64,106,0
0,76,127,0
0,76,115,0
0,51,64,3
0,52,83,0
0,73,101,0
0,51,87,1
0,57,81,0
0,69,113,0
0,35,79,4
0,28,120,0
0,33,106,2
0,51,107,0
0,38,127,0
0,52,109,0
0,57,120,0
0,61,114,0
0,33,127,0
0,57,102,0
0,76,97,0
0,73,89,1
0,51,97,2
0,62,111,0
0,54,107,0
0,57,116,0
0,69,105,0
0,38,98,4
0,71,91,0
0,48,100,2
0,61,114,0
0,57,111,0
0,52,116,0
0,73,91,0
0,35,109,2
0,28,120,0
0,76,102,0
0,33,127,5
0,49,105,0
0,35,127,0
0,62,127,0
0,55,127,0
0,59,125,0
0,33,125,0
0,57,102,0
0,79,105,0
0,71,116,0
0,67,116,0
0,74,113,0
0,79,127,0
0,79,118,0
0,35,127,3
0,52,109,0
0,59,125,0
0,62,116,0
0,55,118,0
0,33,118,0
0,74,99,0
0,51,89,2
0,71,113,0
0,35,106,1
0,28,115,0
0,33,105,3
0,38,127,0
0,52,122,0
0,57,122,0
0,54,114,0
0,62,116,0
0,33,127,0
0,57,102,0
0,78,109,0
0,74,106,0
0,69,111,0
0,66,107,0
0,78,127,0
0,78,114,0
0,51,77,3
0,62,118,0
0,57,115,0
0,54,114,0
0,74,105,0
0,51,89,1
0,54,75,0
0,69,107,0
0,35,100,3
0,28,118,0
0,76,81,0
0,33,118,1
0,49,103,0
0,35,127,0
0,57,115,0
0,61,114,0
0,52,115,0
0,33,127,0
0,57,102,0
0,76,108,0
0,64,109,0
0,73,105,0
0,69,106,0
0,76,127,0
0,76,101,0
0,51,65,3
0,73,96,0
0,52,100,1
0,35,118,0
0,52,82,0
0,69,101,0
0,33,108,3
0,28,120,1
0,38,109,0
0,48,98,0
0,62,116,0
0,54,116,0
0,57,127,0
0,33,122,0
0,57,102,0
0,76,102,0
0,48,54,9
0,38,69,0
0,73,92,0
0,48,69,0
0,38,69,0
0,33,118,0
0,69,108,0
0,38,94,0
0,48,102,0
0,52,113,0
0,61,112,0
0,57,113,0
0,71,113,0
0,38,127,1
0,48,125,0
0,73,110,0
0,35,120,2
0,49,84,0
0,28,122,0
0,76,114,0
0,33,115,1
0,49,91,0
0,35,127,0
0,59,127,0
0,55,120,0
0,62,127,0
0,33,127,0
0,57,102,0
0,79,102,0
0,71,108,0
0,62,104,0
0,67,116,0
0,67,127,0
0,67,127,0
0,35,127,3
0,52,116,0
0,55,127,0
0,62,127,0
0,59,125,0
0,33,127,0
0,74,105,0
0,51,77,2
0,71,104,0
0,35,95,2
0,33,115,3
0,51,114,0
0,38,127,0
0,62,111,0
0,57,115,0
0,54,114,0
0,33,116,0
0,57,102,0
0,78,101,0
0,62,95,0
0,66,110,0
0,69,113,0
0,66,127,0
0,66,112,0
0,51,76,2
0,62,120,0
0,57,127,0
0,54,116,0
0,74,105,0
0,51,93,1
0,69,108,0
0,35,89,3
0,28,116,0
0,33,115,1
0,49,85,0
0,35,125,0
0,57,109,0
0,61,116,0
0,52,111,0
0,33,127,0
0,57,102,0
0,76,112,0
0,61,116,0
0,64,111,0
0,69,91,0
0,64,127,0
0,64,115,0
0,51,64,3
0,73,101,0
0,51,87,1
0,69,113,0
0,35,79,4
0,28,120,0
0,33,113,2
0,51,107,0
0,38,127,0
0,52,106,0
0,57,115,0
0,61,108,0
0,33,127,0
0,57,102,0
0,76,97,0
0,73,89,1
0,51,97,2
0,54,108,0
0,62,108,0
0,57,116,0
0,69,105,0
0,38,98,3
0,71,91,0
0,48,100,2
0,61,116,0
0,52,116,0
0,57,115,0
0,73,91,0
0,35,109,2
0,28,120,0
0,76,102,0
0,49,105,0
0,35,127,0
0,62,127,0
0,59,125,0
0,33,125,0
0,55,127,0
0,33,125,0
0,57,102,0
0,79,105,0
0,71,115,0
0,62,104,0
0,67,108,0
0,67,127,0
0,67,118,0
0,35,127,3
0,52,109,0
0,33,118,0
0,74,99,0
0,51,89,2
0,55,73,0
0,71,113,0
0,35,106,1
0,28,115,0
0,33,115,3
0,38,127,0
0,52,122,0
0,62,115,0
0,57,118,0
0,54,116,0
0,33,127,0
0,57,102,0
0,78,109,0
0,69,113,0
0,66,108,0
0,62,108,0
0,66,127,0
0,66,114,0
0,51,77,3
0,74,105,0
0,51,89,1
0,69,107,0
0,35,100,3
0,28,118,0
0,64,81,0
0,35,127,0
0,49,103,0
0,57,115,0
0,52,113,0
0,33,125,0
0,45,106,0
0,57,106,0
0,45,105,0
0,64,101,0
0,57,100,0
0,45,115,0
0,45,116,0
0,52,122,0
0,45,63,0
0,40,98,0
0,42,97,11
0,57,70,0
0,45,98,0
0,45,48,47
0,57,41,64
0,40,101,6
0,57,20,48
0,45,62,0
0,42,96,5
0,33,97,0
0,45,105,0
0,45,58,1
0,40,98,0
0,57,73,63
0,42,90,12
0,45,101,0
0,45,48,41
0,57,66,3
0,40,96,6
0,45,53,24
0,42,95,2
0,33,94,0
0,45,85,0
0,40,75,185
0,42,93,9
0,45,82,0
0,40,78,7
0,42,80,96
0,45,86,0
0,40,72,187
0,42,65,5
0,45,75,0
0,40,80,7
0,53,97,0
0,33,123,0
0,52,114,0
0,57,118,0
0,61,118,0
0,45,107,0
0,42,58,2
0,61,112,0
0,42,55,3
0,62,81,1
0,42,51,0
0,64,87,1
0,42,112,1
0,32,121,0
0,56,114,0
0,59,121,0
0,61,118,0
0,64,111,0
0,44,101,0
0,64,104,4
0,42,56,1
0,42,59,0
0,62,82,0
0,61,89,4
0,42,52,16
0,42,110,7
0,54,112,0
0,62,102,0
0,57,114,0
0,59,112,0
0,30,125,0
0,42,102,0
0,59,108,3
0,42,56,1
0,42,65,1
0,61,68,10
0,62,86,2
0,35,90,0
0,30,104,0
0,42,101,10
0,62,107,0
0,57,105,0
0,23,112,0
0,66,109,0
0,35,111,0
0,62,101,0
0,42,68,1
0,37,104,0
0,25,104,0
0,61,105,0
0,57,98,0
0,64,109,0
0,37,100,0
0,42,57,6
0,42,93,4
0,38,102,0
0,66,114,0
0,62,107,0
0,57,105,0
0,26,109,0
0,38,98,0
0,42,57,3
0,42,112,10
0,62,109,0
0,64,109,0
0,59,123,0
0,28,105,0
0,57,112,0
0,40,104,0
0,40,97,0
0,42,56,8
0,42,59,4
0,54,100,1
0,40,104,3
0,57,96,0
0,42,114,5
0,62,96,0
0,59,107,0
0,64,101,0
0,56,105,0
0,28,123,0
0,60,97,3
0,42,64,3
0,54,91,27
0,40,100,0
0,57,102,2
0,42,61,1
0,62,104,0
0,57,116,0
0,54,112,0
0,30,89,0
0,42,52,3
0,28,101,0
0,57,106,0
0,42,108,2
0,57,111,0
0,52,105,0
0,61,109,0
0,45,87,0
0,33,97,0
0,33,104,0
0,42,66,8
0,54,67,0
0,42,64,25
0,57,82,60
0,42,101,5
0,57,80,0
0,50,118,0
0,62,105,0
0,66,111,0
0,38,97,0
0,69,92,1
0,42,64,4
0,49,112,0
0,64,101,0
0,61,100,0
0,37,107,0
0,46,74,1
0,42,101,5
0,37,108,0
0,49,101,0
0,47,121,0
0,62,107,0
0,57,87,0
0,59,116,0
0,35,105,0
0,42,52,7
0,36,72,0
0,57,74,0
0,42,89,2
0,36,104,0
0,47,36,0
0,45,114,0
0,64,109,0
0,61,114,0
0,57,107,0
0,33,109,0
0,61,110,2
0,42,58,1
0,52,86,2
0,42,91,2
0,57,81,0
0,62,86,6
0,61,85,18
0,64,93,7
0,36,67,4
0,64,97,0
0,45,93,0
0,37,106,3
0,42,114,0
0,56,105,0
0,59,107,0
0,61,102,0
0,64,91,0
0,44,121,0
0,44,105,0
0,64,116,1
0,42,58,40
0,56,70,4
0,42,104,3
0,64,93,0
0,59,93,0
0,61,88,0
0,62,78,3
0,42,22,4
0,36,52,0
0,44,78,0
0,32,98,0
0,61,95,0
0,36,105,0
0,42,103,0
0,54,107,0
0,57,114,0
0,59,114,0
0,62,97,0
0,42,112,0
0,30,118,0
0,59,105,2
0,42,60,1
0,42,98,2
0,61,82,5
0,62,93,4
0,36,69,0
0,35,84,0
0,42,96,0
0,42,108,6
0,37,108,0
0,23,109,0
0,62,104,0
0,57,100,0
0,66,107,0
0,35,107,0
0,62,106,0
0,59,67,7
0,42,73,5
0,57,94,0
0,61,109,0
0,64,112,0
0,37,97,0
0,25,93,0
0,37,104,0
0,42,101,6
0,62,104,0
0,57,93,0
0,66,107,0
0,26,104,0
0,38,94,0
0,38,93,0
0,36,69,0
0,35,97,0
0,42,112,5
0,36,107,0
0,57,98,0
0,40,102,0
0,64,109,0
0,62,105,0
0,28,102,0
0,40,105,0
0,54,83,0
0,42,71,4
0,57,104,14
0,42,63,19
0,54,82,0
0,42,110,2
0,57,82,0
0,60,104,4
0,62,64,3
0,36,64,1
0,64,80,0
0,60,104,0
0,37,104,5
0,42,114,0
0,40,100,0
0,56,82,0
0,62,87,0
0,59,94,0
0,28,100,0
0,28,127,0
0,54,82,23
0,42,55,6
0,56,68,0
0,57,97,3
0,42,44,2
0,40,96,0
0,57,108,5
0,42,103,3
0,59,114,0
0,57,118,0
0,62,105,0
0,54,112,0
0,36,63,4
0,28,93,0
0,42,101,5
0,36,104,0
0,52,112,0
0,33,96,0
0,61,107,0
0,57,109,0
0,33,118,0
0,42,73,52
0,42,50,60
0,42,83,21
0,52,59,0
0,36,64,5
0,33,72,0
0,46,98,28
0,38,100,0
0,61,101,0
0,57,102,0
0,52,97,0
0,61,100,4
0,38,67,3
0,62,91,0
0,54,96,0
0,28,114,0
0,57,98,0
0,48,66,1
0,45,90,28
0,41,105,2
0,52,109,0
0,61,111,0
0,30,114,0
0,57,112,0
0,30,114,0
0,59,108,0
0,36,67,4
0,57,86,1
0,49,104,1
0,36,105,0
0,59,107,0
0,50,101,0
0,55,99,0
0,31,114,0
0,31,114,0
0,59,115,1
0,53,66,1
0,50,74,0
0,53,64,15
0,50,74,0
0,59,107,0
0,60,73,3
0,59,80,1
0,53,102,7
0,55,80,0
0,57,96,0
0,50,82,14
0,36,76,5
0,59,87,0
0,33,100,0
0,57,111,3
0,38,116,4
0,53,101,0
0,38,105,0
0,57,112,0
0,54,123,0
0,50,100,0
0,38,100,0
0,53,58,2
0,50,65,0
0,54,102,10
0,62,83,0
0,57,104,0
0,54,66,1
0,53,101,0
0,57,95,2
0,36,65,6
0,54,64,0
0,40,81,0
0,57,96,0
0,36,105,2
0,53,109,0
0,61,104,0
0,57,109,0
0,52,109,0
0,45,121,0
0,33,123,0
0,53,68,13
0,52,48,0
0,53,58,18
0,53,104,1
0,52,57,0
0,61,99,1
0,45,104,8
0,40,101,0
0,64,109,3
0,53,105,5
0,38,107,0
0,57,104,0
0,61,116,0
0,64,118,0
0,45,93,0
0,66,112,5
0,40,94,5
0,64,96,9
0,53,76,1
0,57,101,0
0,66,114,0
0,62,112,0
0,28,102,0
0,61,105,1
0,53,82,2
0,61,114,0
0,57,107,0
0,64,125,0
0,30,105,0
0,55,74,0
0,57,74,0
0,59,113,0
0,53,82,2
0,36,104,0
0,55,104,0
0,43,110,0
0,50,111,0
0,59,112,0
0,31,110,0
0,53,76,10
0,50,71,0
0,62,97,0
0,59,72,0
0,60,68,4
0,59,82,1
0,53,87,9
0,50,82,0
0,57,66,0
0,55,85,26
0,36,70,8
0,59,90,0
0,33,82,0
0,57,116,2
0,53,100,4
0,38,118,0
0,54,114,0
0,50,96,0
0,38,109,0
0,57,107,0
0,38,100,0
0,53,72,6
0,50,59,0
0,38,93,13
0,54,56,5
0,53,97,9
0,57,116,0
0,54,114,0
0,62,101,0
0,57,95,0
0,36,56,1
0,40,82,0
0,60,97,1
0,53,105,1
0,36,109,0
0,61,105,0
0,57,116,0
0,45,123,0
0,52,105,0
0,33,116,0
0,53,35,14
0,53,102,28
0,53,62,60
0,53,100,21
0,52,44,0
0,36,76,0
0,45,97,0
0,40,82,0
0,53,107,8
0,38,116,0
0,61,114,0
0,52,116,0
0,57,118,0
0,49,96,0
0,57,122,2
0,52,88,5
0,53,77,1
0,40,107,0
0,47,101,0
0,59,109,1
0,38,83,9
0,52,73,0
0,48,78,2
0,42,116,0
0,45,96,0
0,61,110,0
0,45,67,5
0,41,73,3
0,52,63,0
0,49,93,1
0,36,116,0
0,59,111,0
0,50,104,0
0,55,106,0
0,43,119,0
0,43,96,0
0,79,97,2
0,59,113,1
0,38,90,21
0,53,80,1
0,50,77,0
0,31,114,0
0,74,84,2
0,53,60,3
0,60,68,3
0,59,86,0
0,53,105,14
0,55,106,0
0,59,111,0
0,50,105,0
0,57,96,0
0,71,90,0
0,36,53,2
0,50,76,0
0,33,96,0
0,57,109,2
0,38,114,1
0,53,104,0
0,54,121,0
0,57,111,0
0,50,87,0
0,38,107,0
0,38,101,0
0,78,97,0
0,53,66,1
0,50,66,0
0,74,95,3
0,53,75,3
0,50,79,0
0,62,101,0
0,54,73,1
0,53,101,9
0,69,98,3
0,57,102,2
0,57,87,9
0,66,108,1
0,36,66,1
0,54,76,0
0,40,90,0
0,36,107,0
0,53,105,0
0,52,111,0
0,61,102,0
0,57,107,0
0,45,112,0
0,33,114,0
0,76,102,5
0,64,105,3
0,73,83,5
0,53,52,1
0,66,90,6
0,53,50,5
0,53,104,28
0,52,63,0
0,69,87,1
0,45,101,7
0,53,101,5
0,38,107,0
0,52,105,0
0,57,114,0
0,61,112,0
0,76,88,6
0,73,76,6
0,53,59,1
0,33,74,0
0,61,103,2
0,53,100,1
0,40,111,0
0,28,125,0
0,69,95,0
0,71,92,5
0,53,48,13
0,59,86,0
0,53,84,0
0,42,104,0
0,30,116,0
0,73,89,0
0,76,95,0
0,57,74,0
0,36,65,1
0,51,103,1
0,36,109,0
0,62,102,0
0,59,111,0
0,55,104,0
0,43,110,0
0,31,117,0
0,59,111,0
0,79,104,0
0,74,91,7
0,62,62,1
0,59,73,0
0,55,68,0
0,60,70,3
0,59,78,0
0,59,85,6
0,62,81,0
0,55,82,0
