track,note,velocity,time
1,33,106,2352
1,33,106,124
1,33,102,110
1,33,103,176
1,33,100,188
1,33,100,128
1,31,100,6
1,29,98,8
1,29,98,124
1,29,99,100
1,29,96,182
1,29,102,122
1,29,99,120
1,33,104,174
1,33,102,130
1,33,102,122
1,33,100,172
1,33,103,176
1,33,102,120
1,33,101,256
1,33,100,96
1,33,95,100
1,33,98,168
1,33,98,144
1,33,96,106
1,29,90,130
1,29,87,138
1,29,91,104
1,29,94,164
1,29,98,76
1,29,96,104
1,33,96,92
1,33,99,142
1,33,96,100
1,33,97,154
1,33,98,94
1,33,94,108
1,33,98,186
1,33,96,138
1,33,99,110
1,31,96,2
1,29,94,14
1,29,93,114
1,29,94,90
1,29,98,164
1,29,96,158
1,29,94,106
1,31,99,30
1,33,100,2
1,33,98,144
1,33,97,122
1,33,98,122
1,33,97,120
1,33,98,118
1,36,87,2
1,38,85,2
1,41,98,6
1,41,96,158
1,41,94,106
1,38,76,2
1,43,100,4
1,43,98,144
1,43,97,122
1,43,74,2
1,41,98,6
1,41,96,158
1,41,94,106
1,40,98,30
1,40,96,158
1,40,94,106
1,38,98,30
1,38,96,158
1,38,94,106
1,33,80,6
1,38,98,2
1,38,96,158
1,38,94,106
1,41,98,30
1,41,96,158
1,41,94,106
1,38,80,30
1,43,98,2
1,31,96,62
1,31,94,106
1,33,106,30
1,33,106,124
1,33,102,110
1,33,103,176
1,33,100,188
1,33,100,128
1,31,100,6
1,29,98,8
1,29,98,124
1,29,99,100
1,29,96,182
1,29,102,122
1,29,99,120
1,33,101,174
1,33,100,96
1,33,95,100
1,33,98,168
1,33,98,144
1,33,96,106
1,29,90,130
1,29,87,138
1,29,91,104
1,29,94,164
1,29,98,76
1,29,96,104
1,33,96,92
1,33,99,142
1,33,96,100
1,33,97,154
1,33,98,94
1,33,94,108
1,33,98,186
1,33,96,138
1,33,99,110
1,31,96,2
1,29,94,14
1,29,93,114
1,29,94,90
1,29,98,164
1,29,96,158
1,29,94,106
1,31,99,30
1,33,100,2
1,33,98,144
1,33,97,122
1,33,98,122
1,33,97,120
1,33,98,118
1,36,87,2
1,38,85,2
1,41,98,6
1,41,96,158
1,41,94,106
1,38,76,2
1,43,100,4
1,43,98,144
1,43,97,122
1,43,74,2
1,41,98,6
1,41,96,158
1,41,94,106
1,40,98,30
1,40,96,158
1,40,94,106
1,38,98,30
1,38,96,158
1,38,94,106
1,33,80,6
1,38,98,2
1,38,96,158
1,38,94,106
1,41,98,30
1,41,96,158
1,41,94,106
1,38,80,30
1,43,98,2
1,31,96,62
1,31,94,106
1,33,106,30
1,33,106,124
1,33,102,110
1,33,103,176
1,33,100,188
1,33,100,128
1,31,100,6
1,29,98,8
1,29,98,124
1,29,99,100
1,29,96,182
1,29,102,122
1,29,99,120
1,33,104,174
1,33,102,130
1,33,102,122
1,33,100,172
1,33,103,176
1,33,102,120
1,36,104,256
1,36,102,130
1,36,102,122
1,31,100,172
1,31,103,176
1,31,102,120
1,31,103,64
1,36,104,24
1,36,102,130
1,36,102,122
1,36,100,172
1,36,103,176
1,36,102,120
1,31,103,64
1,36,104,24
1,36,102,130
1,36,102,122
1,31,100,172
1,31,103,176
1,31,102,120
1,31,103,64
1,36,104,24
1,36,102,130
1,36,102,122
1,36,100,172
1,36,103,176
1,36,102,120
1,31,103,64
1,41,98,24
1,41,96,158
1,41,94,106
1,38,76,2
1,43,100,4
1,43,98,144
1,43,97,122
1,43,74,2
1,45,98,6
1,45,96,158
1,45,94,106
1,40,98,30
1,40,96,158
1,40,94,106
1,38,98,30
1,38,96,158
1,38,94,106
1,33,80,6
1,38,98,2
1,38,96,158
1,38,94,106
1,41,98,30
1,41,96,158
1,41,94,106
1,38,80,30
1,43,98,2
1,31,96,62
1,31,94,106
1,33,106,30
1,33,106,124
1,33,102,110
1,33,103,176
1,33,100,188
1,33,100,128
1,31,100,6
1,29,98,8
1,29,98,124
1,29,99,100
1,29,96,182
1,29,102,122
1,29,99,120
1,33,106,174
1,33,106,124
1,33,102,110
1,33,103,176
1,33,100,188
1,33,100,128
1,31,100,6
1,33,101,8
1,33,100,96
1,33,95,100
1,33,98,168
1,33,98,144
1,33,96,106
1,29,90,130
1,29,87,138
1,29,91,104
1,29,94,164
1,29,98,76
1,29,96,104
1,33,96,92
1,33,99,142
1,33,96,100
1,33,97,154
1,33,98,94
1,33,94,108
1,33,98,186
1,33,96,138
1,33,99,110
1,31,96,2
1,29,94,14
1,29,93,114
1,29,94,90
1,29,98,164
1,29,96,158
1,29,94,106
1,31,99,30
1,33,100,2
1,33,98,144
1,33,97,122
1,33,98,122
1,33,97,120
1,33,98,118
1,36,87,2
1,38,85,2
1,41,98,6
1,41,96,158
1,41,94,106
1,38,76,2
1,43,100,4
1,43,98,144
1,43,97,122
1,43,74,2
1,41,98,6
1,41,96,158
1,41,94,106
1,40,98,30
1,40,96,158
1,40,94,106
1,38,98,30
1,38,96,158
1,38,94,106
1,33,80,6
1,38,98,2
1,38,96,158
1,38,94,106
1,41,98,30
1,41,96,158
1,41,94,106
1,38,80,30
1,43,98,2
1,31,96,62
1,31,94,106
1,33,106,30
1,33,106,124
1,33,102,110
1,40,98,176
1,40,96,158
1,40,94,106
1,38,98,30
1,38,96,158
1,38,94,106
1,33,80,6
1,38,98,2
1,38,96,158
1,38,94,106
1,41,98,30
1,41,96,158
1,41,94,106
1,38,80,30
1,43,98,2
1,31,96,62
1,31,94,106
1,43,98,30
1,31,96,62
1,31,94,106
1,33,106,30
1,33,106,124
1,33,102,110
1,33,103,176
1,33,100,188
1,33,100,128
1,31,100,6
1,29,98,8
1,29,98,124
1,29,99,100
1,29,96,182
1,29,102,122
1,29,99,120
1,33,104,174
1,33,102,130
1,33,102,122
1,33,100,172
1,33,103,176
1,33,102,120
1,33,106,256
1,33,106,124
1,33,102,110
1,33,103,176
1,33,100,188
1,33,100,128
1,31,100,6
1,29,98,8
1,29,98,124
1,29,99,100
1,29,96,182
1,29,102,122
1,29,99,120
1,33,104,174
1,33,102,130
1,33,102,122
1,33,100,172
1,33,103,176
1,33,102,120
1,33,106,256
1,33,106,124
1,33,102,110
1,33,103,176
1,33,100,188
1,33,100,128
1,31,100,6
1,29,98,8
1,29,98,124
1,29,99,100
1,29,96,182
1,29,102,122
1,29,99,120
1,33,104,174
1,33,102,130
1,33,102,122
1,33,100,172
1,33,103,176
1,33,102,120
1,33,106,256
1,33,106,124
1,33,102,110
1,33,103,176
1,33,100,188
1,33,100,128
1,31,100,6
1,29,98,8
1,29,98,124
1,29,99,100
1,29,96,182
1,29,102,122
1,29,99,120
1,33,104,174
1,33,102,130
1,33,102,122
1,33,100,172
1,33,103,176
1,33,102,120
1,33,106,256
1,33,106,124
1,33,102,110
1,33,103,176
1,33,100,188
1,33,100,128
1,31,100,6
1,29,98,8
2,57,80,2336
2,59,80,2
2,60,80,2
2,59,79,2
2,57,80,2
2,55,80,2
2,52,80,2
2,53,79,2
2,57,79,2
2,59,81,2
2,60,80,2
2,59,80,2
2,57,80,2
2,55,75,2
2,52,71,2
2,57,66,14296
2,60,66,0
2,64,64,0
2,55,66,2
2,59,65,0
2,62,67,0
2,67,70,2
2,57,67,2
2,60,65,0
2,64,67,0
2,55,66,2
2,59,62,0
2,62,67,0
2,53,65,2
2,57,66,0
2,59,79,0
2,60,71,4
2,59,77,4
2,60,79,4
2,59,81,4
2,60,80,4
2,59,82,4
2,60,79,4
2,59,82,4
2,60,75,4
2,59,77,4
2,60,71,4
2,59,75,4
2,60,69,4
2,59,70,4
2,60,68,4
2,57,72,2
2,60,71,0
2,59,75,2
2,62,74,0
2,57,80,2
2,76,66,0
2,59,80,2
2,60,80,2
2,59,79,2
2,57,80,2
2,55,80,2
2,52,80,2
2,53,79,2
2,64,67,2
2,57,66,10754
2,60,66,0
2,64,64,0
2,55,66,2
2,59,65,0
2,62,67,0
2,67,70,2
2,57,67,2
2,60,65,0
2,64,67,0
2,59,62,2
2,62,67,0
2,74,67,0
2,79,67,2
2,77,67,2
2,53,65,2
2,57,66,0
2,71,79,0
2,76,65,0
2,72,71,4
2,71,77,4
2,72,79,4
2,71,81,4
2,72,80,4
2,71,82,4
2,72,79,4
2,71,82,4
2,72,75,4
2,71,77,4
2,72,71,4
2,71,75,4
2,72,69,4
2,71,70,4
2,72,68,4
2,57,72,2
2,60,71,0
2,69,69,0
2,59,75,2
2,62,74,0
2,67,71,0
2,57,80,2
2,69,77,0
2,59,80,2
2,60,80,2
2,59,79,2
2,57,80,2
2,55,80,2
2,52,80,2
2,53,79,2
2,67,77,2
2,64,77,2
2,62,77,2
2,59,76,2
2,64,75,0
2,60,76,2
2,59,76,2
2,57,76,2
2,55,76,2
2,52,76,2
2,52,78,2
2,60,78,0
2,53,76,2
2,55,76,2
2,57,76,2
2,58,86,2
2,55,86,2
2,57,86,2
2,58,87,2
2,57,87,2
2,55,87,2
2,53,83,2
2,52,86,2
2,55,82,2
2,64,82,2
2,65,85,2
2,67,85,2
2,65,84,2
2,64,84,2
2,60,80,384
2,58,76,1500
2,60,78,2
2,52,84,2
2,53,72,2
2,55,84,2
2,60,82,2
2,62,92,2
2,64,86,2
2,65,80,2
2,67,74,2
2,57,66,2
2,60,66,0
2,64,64,0
2,69,69,0
2,59,65,2
2,62,67,0
2,67,66,0
2,57,67,2
2,60,65,0
2,64,67,0
2,55,66,2
2,59,62,0
2,62,67,0
2,53,65,2
2,57,66,0
2,59,79,0
2,60,71,4
2,71,77,4
2,72,79,4
2,71,81,4
2,72,80,4
2,71,82,4
2,72,79,4
2,71,82,4
2,72,75,4
2,71,77,4
2,72,71,4
2,71,75,4
2,72,69,4
2,71,70,4
2,72,68,4
2,60,72,2
2,64,72,0
2,69,71,0
2,59,75,2
2,62,74,0
2,67,74,0
2,57,75,2
2,60,75,0
2,76,63,128
2,76,63,2
2,76,64,2
2,76,64,2
2,76,64,2
2,76,65,2
2,76,65,2
2,76,66,2
2,76,66,2
2,76,66,2
2,76,67,2
2,76,67,2
2,76,68,2
2,76,68,2
2,76,68,2
2,76,69,2
2,76,69,2
2,76,70,2
2,76,70,2
2,76,71,2
2,76,71,2
2,76,71,2
2,76,72,2
2,76,72,2
2,76,73,2
2,76,73,2
2,76,73,2
2,76,74,2
2,76,74,2
2,76,75,2
2,76,75,2
2,76,75,2
2,76,76,2
2,76,76,2
2,76,77,2
2,76,77,2
2,76,77,2
2,76,78,2
2,76,78,2
2,76,79,2
2,76,79,2
2,76,79,2
2,76,80,2
2,76,80,2
2,76,81,2
2,76,81,2
2,76,82,2
2,76,82,2
2,76,81,2
2,76,81,2
2,76,80,2
2,76,80,2
2,59,88,2
2,76,79,0
2,76,78,2
2,76,78,2
2,60,81,2
2,76,77,0
2,76,77,2
2,76,76,2
2,59,85,2
2,76,75,0
2,76,75,2
2,76,74,2
2,60,80,2
2,76,74,0
2,76,73,2
2,76,73,2
2,59,82,2
2,76,72,0
2,76,71,2
2,76,71,2
2,60,80,2
2,76,70,0
2,76,69,2
2,76,66,2
2,76,64,2
2,76,63,2
2,76,62,2
2,76,59,2
2,76,62,2
2,71,75,2
2,72,76,2
2,71,80,2
2,72,84,2
2,71,82,2
2,72,80,2
2,71,68,2
2,72,72,0
2,76,74,0
2,69,70,2
2,74,66,0
2,64,66,2
2,67,66,0
2,57,71,2
2,64,71,0
2,71,80,254
2,72,78,0
2,81,80,0
2,64,90,2044
2,62,89,2
2,60,87,2
2,57,90,2
2,55,86,2
2,53,81,2
2,52,84,2
2,53,85,2
2,55,84,2
2,60,79,2
2,60,68,2
2,57,66,98
2,60,66,0
2,64,64,0
2,55,66,2
2,59,65,0
2,62,67,0
2,67,70,2
2,57,67,2
2,60,65,0
2,64,67,0
2,55,66,2
2,59,62,0
2,62,67,0
2,53,65,2
2,57,66,0
2,59,79,0
2,60,71,4
2,59,77,4
2,60,79,4
2,59,81,4
2,60,80,4
2,59,82,4
2,60,79,4
2,57,69,2
2,60,68,0
2,64,82,0
2,65,75,4
2,64,77,4
2,65,79,4
2,71,79,4
2,72,77,4
2,71,77,4
2,72,77,4
2,60,71,2
2,69,72,0
2,59,75,2
2,67,74,0
2,64,72,2
2,69,71,0
2,76,77,0
2,74,79,2
2,72,78,10
2,62,72,2
2,67,71,0
2,71,78,0
2,74,76,2
2,79,75,2
2,62,69,2
2,65,69,0
2,71,75,0
2,72,74,2
2,71,75,2
2,72,79,2
2,71,76,2
2,72,77,2
2,71,75,2
2,72,80,2
2,71,78,2
2,72,79,2
2,71,79,2
2,72,78,2
2,71,73,2
2,72,73,2
2,71,70,2
2,72,71,2
2,65,72,2
2,69,72,0
2,67,73,2
2,71,72,0
2,79,76,1536
2,69,73,2
2,81,75,0
2,69,71,2
2,76,69,0
2,74,69,2
2,64,73,2
2,72,69,2
2,71,69,2
2,69,69,2
2,57,70,2
2,76,68,0
2,59,84,2
2,60,78,2
2,59,86,2
2,57,84,2
2,55,80,2
2,52,80,2
2,53,69,2
2,76,68,0
2,64,68,8
2,69,68,0
2,57,70,8
2,59,84,2
2,60,78,2
2,59,86,2
2,57,84,2
2,55,80,2
2,52,80,2
2,53,69,8
2,64,67,0
2,71,60,0
2,72,64,192
2,71,70,154
2,72,70,176
2,71,74,170
2,72,76,152
2,71,78,152
2,72,76,154
2,71,82,176
2,72,80,164
2,71,84,164
2,72,80,162
2,71,74,140
2,72,72,162
2,71,64,134
2,72,64,138
2,64,68,2
2,69,68,0
2,67,68,2
2,57,78,2
2,59,77,2
2,60,74,2
2,59,77,2
2,57,77,2
2,55,76,2
2,52,77,2
2,53,74,2
2,57,75,0
2,57,75,2
2,60,75,0
2,57,82,2
2,59,84,2
2,60,74,2
2,59,76,2
2,57,78,0
2,55,80,2
2,52,78,2
2,53,68,10
2,57,67,0
2,59,74,320
2,60,80,2
2,59,86,2
2,60,82,2
2,59,90,2
2,60,82,2
2,64,80,2
2,65,78,2
2,64,82,2
2,65,82,2
2,71,82,2
2,65,68,30
2,72,84,2
2,71,88,2
2,72,82,2
2,76,82,2
2,77,82,2
2,76,86,2
2,77,80,2
2,83,76,2
2,84,76,2
2,83,72,2
2,84,62,2
3,64,109,12070
3,69,111,24
3,69,111,70
3,71,109,54
3,72,109,48
3,69,109,722
3,64,108,2
3,62,105,2
3,62,96,1734
3,60,89,2
3,62,93,2
3,57,85,2
3,64,89,1614
3,64,98,36
3,69,99,4
3,71,99,12
3,72,103,2
3,71,101,2
3,69,98,2
3,64,91,2
3,69,77,2
3,62,97,2064
3,60,92,2
3,62,96,2
3,57,93,2
3,72,101,2364
3,74,102,2
3,76,105,2
3,77,105,764
3,74,103,6
3,76,102,1940
3,76,105,72
3,76,104,84
3,76,105,80
3,77,104,18
3,76,104,4
3,74,99,2
3,74,104,654
3,72,99,2
3,72,104,8
3,74,113,2276
3,72,112,16
3,69,107,208
3,69,106,62
3,69,106,102
3,77,114,496
3,76,114,2
3,74,112,2
3,76,112,2
3,64,106,6372
3,69,106,2
3,71,107,2
3,72,104,2
3,71,103,2
3,69,100,2
3,64,96,2
3,67,95,2
3,62,105,2090
3,60,101,8
3,62,104,2
3,57,102,4
3,64,98,1574
3,69,105,24
3,69,105,62
3,69,103,54
3,71,105,44
3,72,106,48
3,72,95,58
3,71,104,70
3,69,104,46
3,69,104,64
3,69,105,80
3,64,97,2
3,67,97,6
3,62,103,1502
3,60,97,26
3,62,103,50
3,60,96,2
3,62,102,2
3,60,94,2
3,72,110,2434
3,74,109,2
3,76,111,4
3,77,108,790
3,74,110,8
3,72,108,954
3,74,109,16
3,76,111,54
3,76,111,74
3,76,111,90
3,76,110,180
3,77,111,2
3,74,111,2
3,74,109,342
3,74,109,124
3,72,106,4
3,72,107,84
3,74,111,2514
3,72,107,4
3,69,111,1160
3,77,113,2
3,76,113,2
3,74,113,2
3,76,113,2
3,76,114,9350
3,76,112,90
3,76,113,92
3,76,114,82
3,77,112,424
3,76,110,2
3,74,108,8
