track,note,velocity,time
1,64,110,192
1,68,110,0
1,71,110,0
1,76,110,0
1,68,110,0
1,64,110,0
1,74,110,0
1,72,110,0
1,71,110,0
1,64,110,0
1,60,110,0
1,60,110,192
1,64,110,0
1,69,110,192
1,65,110,0
1,65,110,0
1,60,110,0
1,65,110,0
1,60,110,0
1,67,110,384
1,64,110,0
1,67,110,0
1,64,110,0
1,67,110,0
1,64,110,0
1,72,110,0
1,72,110,0
1,72,110,0
1,66,110,0
1,62,110,0
1,66,110,0
1,60,110,0
1,66,110,0
1,60,110,0
1,62,110,384
1,69,110,0
1,72,110,0
1,64,110,192
1,69,110,0
1,65,110,192
1,69,110,0
1,65,110,192
1,69,110,0
1,64,110,192
1,62,110,0
1,59,110,0
1,62,110,192
1,59,110,0
1,62,110,192
1,67,110,0
1,71,110,0
1,72,110,0
1,69,110,0
1,64,110,0
1,69,110,0
1,64,110,0
1,60,110,0
1,64,110,192
1,60,110,0
1,64,110,192
1,60,110,0
1,60,110,384
1,65,110,0
1,72,110,0
1,69,110,0
1,65,110,0
1,69,110,0
1,60,110,0
1,64,110,384
1,67,110,0
1,64,110,192
1,67,110,0
1,65,110,192
1,62,110,0
1,60,110,0
1,65,110,0
1,65,110,0
1,69,110,0
1,60,110,0
1,64,110,384
1,69,110,0
1,72,110,0
1,64,110,192
1,69,110,0
1,65,110,192
1,69,110,0
1,65,110,192
1,69,110,0
1,64,110,192
1,62,110,0
1,59,110,0
1,62,110,192
1,59,110,0
1,62,110,0
1,67,110,0
1,71,110,0
1,69,110,0
1,64,110,0
1,64,110,0
1,60,110,0
1,60,110,0
1,65,110,0
1,72,110,768
1,74,110,0
1,72,110,0
1,67,110,0
1,71,110,192
1,67,110,0
1,72,110,192
1,69,110,0
1,72,110,0
1,69,110,0
1,72,110,0
1,67,110,0
1,64,110,192
1,67,110,0
1,67,110,0
1,71,110,0
1,67,110,960
1,71,110,0
1,74,110,0
1,72,110,768
1,67,110,0
1,71,110,192
1,67,110,0
1,72,110,192
1,69,110,0
1,72,110,192
1,69,110,0
1,67,110,576
1,71,110,0
1,71,110,192
1,67,110,0
1,68,110,576
1,64,110,0
1,64,110,384
1,60,110,0
1,60,110,192
1,64,110,0
1,65,110,192
1,69,110,0
1,65,110,0
1,60,110,0
1,60,110,0
1,65,110,0
1,64,110,384
1,67,110,0
1,64,110,0
1,67,110,0
1,64,110,0
1,67,110,0
1,72,110,0
1,72,110,0
1,72,110,0
1,66,110,0
1,62,110,0
1,66,110,0
1,60,110,0
1,66,110,0
1,60,110,0
1,72,110,384
1,69,110,0
1,64,110,0
1,69,110,192
1,64,110,0
1,69,110,192
1,64,110,0
1,65,110,192
1,69,110,0
1,64,110,0
1,62,110,0
1,59,110,0
1,62,110,192
1,59,110,0
1,62,110,192
1,67,110,0
1,64,110,0
1,69,110,0
1,60,110,0
1,64,110,0
1,60,110,0
1,64,110,0
1,72,110,768
1,74,110,0
1,72,110,0
1,67,110,0
1,71,110,192
1,67,110,0
1,72,110,192
1,69,110,0
1,72,110,0
1,69,110,0
1,72,110,0
1,67,110,0
1,64,110,192
1,67,110,0
1,67,110,0
1,71,110,0
1,67,110,960
1,71,110,0
1,74,110,0
1,72,110,768
1,67,110,0
1,71,110,192
1,67,110,0
1,72,110,192
1,69,110,0
1,72,110,192
1,69,110,0
1,67,110,576
1,71,110,0
1,71,110,192
1,67,110,0
1,68,110,576
1,64,110,0
1,64,110,384
1,60,110,0
1,60,110,192
1,64,110,0
1,65,110,192
1,69,110,0
1,65,110,0
1,60,110,0
1,60,110,0
1,65,110,0
1,64,110,384
1,67,110,0
1,64,110,0
1,67,110,0
1,64,110,0
1,67,110,0
1,72,110,0
1,72,110,0
1,72,110,0
1,66,110,0
1,62,110,0
1,66,110,0
1,60,110,0
1,66,110,0
1,60,110,0
1,72,110,384
1,69,110,0
1,64,110,0
1,69,110,192
1,64,110,0
1,69,110,192
1,64,110,0
1,65,110,192
1,69,110,0
1,64,110,0
1,62,110,0
1,59,110,0
1,62,110,192
1,59,110,0
1,62,110,192
1,67,110,0
1,64,110,0
1,69,110,0
1,60,110,0
1,64,110,0
1,60,110,0
1,64,110,0
1,64,110,384
1,59,110,0
1,62,110,0
1,59,110,192
1,62,110,0
1,62,110,192
1,67,110,0
1,69,110,0
1,64,110,0
1,64,110,0
1,60,110,0
1,60,110,0
1,64,110,0
1,64,110,384
1,59,110,0
1,62,110,0
1,59,110,192
1,62,110,0
1,62,110,192
1,67,110,0
1,69,110,0
1,64,110,0
1,64,110,0
1,60,110,0
1,60,110,0
1,64,110,0
1,64,110,384
1,59,119,0
1,62,119,0
1,59,116,192
1,62,116,0
1,62,110,192
1,67,110,0
1,69,107,0
1,64,107,0
1,64,107,0
1,60,107,0
1,60,105,0
1,64,105,0
1,64,96,384
1,59,94,0
1,62,94,0
1,59,91,192
1,62,91,0
1,62,87,192
1,67,87,0
1,69,82,0
1,64,82,0
1,64,82,0
1,60,82,0
1,60,81,0
1,64,81,0
1,64,73,384
1,59,71,0
1,62,71,0
1,59,67,192
1,62,67,0
1,62,62,192
1,67,62,0
1,69,59,0
1,64,59,0
1,64,59,0
1,60,59,0
1,60,58,0
1,64,58,0
1,64,48,384
2,64,76,192
2,68,76,64
2,71,76,64
2,76,76,64
2,68,76,0
2,64,76,0
2,74,76,64
2,72,76,64
2,71,76,64
2,64,76,64
2,60,76,0
2,60,76,192
2,64,76,0
2,69,76,192
2,65,76,0
2,65,76,64
2,60,76,0
2,65,76,64
2,60,76,0
2,67,76,384
2,64,76,0
2,67,76,64
2,64,76,0
2,67,76,128
2,64,76,0
2,72,76,0
2,72,76,64
2,72,76,64
2,66,76,64
2,62,76,0
2,66,76,64
2,60,76,0
2,66,76,64
2,60,76,0
2,62,76,384
2,69,76,0
2,72,76,0
2,64,76,256
2,69,76,0
2,65,76,256
2,69,76,0
2,65,76,256
2,69,76,0
2,64,76,192
2,62,76,64
2,59,76,0
2,62,76,192
2,59,76,0
2,62,76,192
2,67,76,0
2,71,76,0
2,72,76,128
2,69,76,0
2,64,76,0
2,69,76,64
2,64,76,0
2,60,76,0
2,64,76,316
2,60,76,0
2,64,76,256
2,60,76,0
2,60,76,384
2,65,76,0
2,72,76,0
2,69,76,64
2,65,76,64
2,69,76,0
2,60,76,0
2,64,76,384
2,67,76,0
2,64,76,192
2,67,76,0
2,65,76,192
2,62,76,0
2,60,76,64
2,65,76,0
2,65,76,0
2,69,76,0
2,60,76,0
2,64,76,384
2,69,76,0
2,72,76,0
2,64,76,256
2,69,76,0
2,65,76,256
2,69,76,0
2,65,76,256
2,69,76,0
2,64,76,192
2,62,76,64
2,59,76,0
2,62,76,192
2,59,76,0
2,62,76,64
2,67,76,0
2,71,76,0
2,69,76,128
2,64,76,0
2,64,76,64
2,60,76,0
2,60,76,64
2,65,76,0
2,72,76,764
2,74,76,64
2,72,76,64
2,67,76,0
2,71,76,192
2,67,76,0
2,72,76,192
2,69,76,0
2,72,76,64
2,69,76,0
2,72,76,128
2,67,76,0
2,64,76,192
2,67,76,0
2,67,76,64
2,71,76,0
2,67,76,960
2,71,76,0
2,74,76,0
2,72,76,764
2,67,76,0
2,71,76,256
2,67,76,0
2,72,76,256
2,69,76,0
2,72,76,192
2,69,76,0
2,67,76,576
2,71,76,0
2,71,76,192
2,67,76,0
2,68,76,576
2,64,76,0
2,64,76,384
2,60,76,0
2,60,76,192
2,64,76,0
2,65,76,192
2,69,76,0
2,65,76,64
2,60,76,0
2,60,76,64
2,65,76,0
2,64,76,384
2,67,76,0
2,64,76,64
2,67,76,0
2,64,76,128
2,67,76,0
2,72,76,128
2,72,76,64
2,72,76,64
2,66,76,64
2,62,76,0
2,66,76,64
2,60,76,0
2,66,76,64
2,60,76,0
2,72,76,384
2,69,76,0
2,64,76,0
2,69,76,256
2,64,76,0
2,69,76,256
2,64,76,0
2,65,76,256
2,69,76,0
2,64,76,64
2,62,76,64
2,59,76,0
2,62,76,192
2,59,76,0
2,62,76,192
2,67,76,0
2,64,76,128
2,69,76,0
2,60,76,64
2,64,76,0
2,60,76,64
2,64,76,0
2,72,76,764
2,74,76,64
2,72,76,64
2,67,76,0
2,71,76,192
2,67,76,0
2,72,76,192
2,69,76,0
2,72,76,64
2,69,76,0
2,72,76,128
2,67,76,0
2,64,76,192
2,67,76,0
2,67,76,64
2,71,76,0
2,67,76,960
2,71,76,0
2,74,76,0
2,72,76,764
2,67,76,0
2,71,76,256
2,67,76,0
2,72,76,256
2,69,76,0
2,72,76,192
2,69,76,0
2,67,76,576
2,71,76,0
2,71,76,192
2,67,76,0
2,68,76,576
2,64,76,0
2,64,76,384
2,60,76,0
2,60,76,192
2,64,76,0
2,65,76,192
2,69,76,0
2,65,76,64
2,60,76,0
2,60,76,64
2,65,76,0
2,64,76,384
2,67,76,0
2,64,76,64
2,67,76,0
2,64,76,128
2,67,76,0
2,72,76,128
2,72,76,64
2,72,76,64
2,66,76,64
2,62,76,0
2,66,76,64
2,60,76,0
2,66,76,64
2,60,76,0
2,72,76,384
2,69,76,0
2,64,76,0
2,69,76,256
2,64,76,0
2,69,76,256
2,64,76,0
2,65,76,256
2,69,76,0
2,64,76,64
2,62,76,64
2,59,76,0
2,62,76,192
2,59,76,0
2,62,76,192
2,67,76,0
2,64,76,128
2,69,76,0
2,60,76,64
2,64,76,0
2,60,76,64
2,64,76,0
2,64,76,448
2,59,76,64
2,62,76,0
2,59,76,192
2,62,76,0
2,62,76,192
2,67,76,0
2,69,76,128
2,64,76,0
2,64,76,64
2,60,76,0
2,60,76,64
2,64,76,0
2,64,76,448
2,59,76,64
2,62,76,0
2,59,76,192
2,62,76,0
2,62,76,192
2,67,76,0
2,69,76,128
2,64,76,0
2,64,76,64
2,60,76,0
2,60,76,64
2,64,76,0
2,64,76,448
2,59,82,64
2,62,82,0
2,59,81,192
2,62,81,0
2,62,76,192
2,67,76,0
2,69,74,128
2,64,74,0
2,64,74,64
2,60,74,0
2,60,73,64
2,64,73,0
2,64,67,448
2,59,65,64
2,62,65,0
2,59,63,192
2,62,63,0
2,62,60,192
2,67,60,0
2,69,56,128
2,64,56,0
2,64,56,64
2,60,56,0
2,60,56,64
2,64,56,0
2,64,50,448
2,59,49,64
2,62,49,0
2,59,46,192
2,62,46,0
2,62,43,192
2,67,43,0
2,69,41,128
2,64,41,0
2,64,41,64
2,60,41,0
2,60,40,64
2,64,40,0
2,64,33,448
3,40,99,0
3,45,99,508
3,45,99,64
3,41,99,448
3,36,99,192
3,41,99,64
3,41,99,64
3,45,99,192
3,45,99,256
3,38,99,256
3,45,99,192
3,50,99,64
3,50,99,64
3,45,99,192
3,45,99,256
3,45,99,128
3,41,99,128
3,41,99,256
3,41,99,128
3,40,99,128
3,40,99,256
3,45,99,256
3,40,99,192
3,45,99,64
3,45,99,64
3,45,99,192
3,45,99,256
3,41,99,256
3,40,99,192
3,41,99,64
3,41,99,64
3,45,99,192
3,45,99,256
3,38,99,256
3,45,99,192
3,50,99,64
3,50,99,64
3,45,99,192
3,45,99,256
3,45,99,128
3,41,99,128
3,41,99,256
3,41,99,128
3,40,99,128
3,40,99,256
3,45,99,256
3,40,99,192
3,45,99,64
3,45,99,64
3,45,99,192
3,40,99,192
3,45,99,64
3,36,99,512
3,43,99,256
3,41,99,256
3,48,99,256
3,43,99,256
3,43,99,256
3,38,99,128
3,43,99,128
3,38,99,64
3,43,99,64
3,38,99,64
3,43,99,64
3,38,99,64
3,43,99,64
3,38,99,64
3,36,99,64
3,43,99,256
3,41,99,256
3,48,99,256
3,43,99,256
3,43,99,256
3,38,99,64
3,43,99,64
3,38,99,64
3,40,99,64
3,50,99,384
3,52,99,64
3,45,99,64
3,45,99,256
3,41,99,256
3,36,99,192
3,41,99,64
3,41,99,64
3,45,99,192
3,45,99,256
3,38,99,256
3,45,99,192
3,50,99,64
3,50,99,64
3,45,99,192
3,45,99,256
3,45,99,128
3,41,99,128
3,41,99,256
3,41,99,128
3,40,99,128
3,40,99,256
3,45,99,256
3,40,99,192
3,45,99,64
3,45,99,64
3,45,99,192
3,40,99,192
3,45,99,64
3,36,99,512
3,43,99,256
3,41,99,256
3,48,99,256
3,43,99,256
3,43,99,256
3,38,99,128
3,43,99,128
3,38,99,64
3,43,99,64
3,38,99,64
3,43,99,64
3,38,99,64
3,43,99,64
3,38,99,64
3,36,99,64
3,43,99,256
3,41,99,256
3,48,99,256
3,43,99,256
3,43,99,256
3,38,99,64
3,43,99,64
3,38,99,64
3,40,99,64
3,50,99,384
3,52,99,64
3,45,99,64
3,45,99,256
3,41,99,256
3,36,99,192
3,41,99,64
3,41,99,64
3,45,99,192
3,45,99,256
3,38,99,256
3,45,99,192
3,50,99,64
3,50,99,64
3,45,99,192
3,45,99,256
3,45,99,128
3,41,99,128
3,41,99,256
3,41,99,128
3,40,99,128
3,40,99,256
3,45,99,256
3,40,99,192
3,45,99,64
3,45,99,64
3,40,99,192
3,40,99,256
3,45,99,256
3,40,99,192
3,45,99,64
3,45,99,64
3,40,99,192
3,40,99,256
3,45,99,256
3,40,99,192
3,45,99,64
3,45,99,64
3,40,102,192
3,40,97,256
3,45,91,256
3,40,89,192
3,45,87,64
3,45,86,64
3,40,81,192
3,40,77,256
3,45,71,256
3,40,68,192
3,45,67,64
3,45,65,64
3,40,61,192
3,40,56,256
3,45,51,256
3,40,48,192
3,45,46,64
3,45,45,64
4,57,72,1544
4,57,72,92
4,57,72,100
4,57,70,96
4,57,75,68
4,57,72,76
4,57,74,84
4,60,81,184
4,57,70,168
4,57,75,68
4,60,76,164
4,60,76,64
4,60,80,96
4,57,70,0
4,60,80,0
4,57,65,188
4,60,81,16
4,57,72,192
4,57,74,56
4,64,80,160
4,64,80,52
4,63,73,172
4,64,75,0
4,62,81,180
4,60,83,0
4,64,83,200
4,64,76,40
4,63,70,168
4,64,74,156
4,62,79,196
4,60,84,160
4,52,60,380
4,56,84,188
4,52,81,4
4,55,76,572
4,57,76,148
4,57,74,68
4,60,80,192
4,57,81,180
4,57,84,420
4,57,79,80
4,57,79,64
4,57,84,96
4,57,81,76
4,57,80,76
4,57,77,80
4,60,80,180
4,57,81,184
4,57,81,68
4,60,81,72
4,60,81,64
4,60,79,72
4,57,70,4
4,60,80,16
4,57,61,0
4,60,81,20
4,57,69,208
4,57,81,76
4,64,84,144
4,64,77,52
4,63,63,172
4,64,74,168
4,62,81,184
4,60,84,156
4,64,85,116
4,64,81,36
4,63,73,176
4,64,77,164
4,62,83,196
4,60,84,148
4,52,70,368
4,56,79,176
4,52,72,148
4,55,79,600
4,57,80,144
4,57,80,52
4,60,81,192
4,57,84,176
4,57,74,1288
4,60,67,36
4,62,76,20
4,64,81,40
4,64,75,64
4,64,80,80
4,62,81,16
4,62,80,76
4,62,80,64
4,65,81,48
4,65,80,48
4,64,77,28
4,60,83,0
4,60,36,60
4,62,88,108
4,62,88,48
4,60,83,0
4,62,85,16
4,64,76,1604
4,64,74,68
4,64,76,80
4,64,79,76
4,62,84,204
4,62,79,52
4,62,80,84
4,62,81,56
4,65,81,24
4,65,72,72
4,65,80,80
4,64,83,44
4,60,80,572
4,64,84,4
4,62,81,8
4,62,81,40
4,61,73,200
4,62,79,0
4,62,89,172
4,63,91,88
4,64,90,92
4,57,79,136
4,57,72,72
4,57,76,68
4,57,81,72
4,57,81,56
4,57,81,76
4,57,81,72
4,60,79,184
4,57,80,172
4,57,83,64
4,60,84,40
4,60,85,52
4,60,81,72
4,57,75,384
4,60,83,8
4,57,75,172
4,60,84,8
4,57,79,188
4,57,83,68
4,64,85,124
4,64,75,44
4,63,72,180
4,64,77,168
4,62,85,180
4,60,86,160
4,64,85,96
4,64,80,44
4,63,79,192
4,64,77,140
4,62,85,188
4,60,86,136
4,52,65,360
4,56,88,176
4,52,72,156
4,55,77,584
4,57,77,148
4,57,80,52
4,60,77,4
4,57,80,184
4,57,75,1452
