track,note,velocity,time
1,77,110,1536
1,77,110,2704
1,74,110,2896
1,71,110,16
1,74,110,16
1,74,110,16
1,71,110,16
1,72,110,16
1,74,110,16
1,71,110,16
1,71,110,592
1,71,110,16
1,71,110,16
1,71,110,16
1,72,110,16
1,74,110,16
1,71,110,16
1,71,110,16
1,67,110,16
1,74,110,1360
1,71,110,16
1,72,110,16
1,74,110,16
1,71,110,16
1,76,110,16
1,74,110,16
1,71,110,16
1,71,110,592
1,71,110,16
1,71,110,16
1,71,110,16
1,72,110,16
1,72,110,16
1,74,110,16
1,71,110,16
1,69,110,16
1,67,110,16
1,71,110,16
1,71,110,16
1,71,110,16
1,69,110,16
1,67,110,16
1,65,110,16
1,72,110,16
1,71,110,16
1,67,110,16
1,67,110,16
1,67,110,16
1,67,110,16
1,67,110,16
1,65,110,16
1,67,110,400
1,67,110,16
1,67,110,16
1,69,110,16
1,67,110,16
1,71,110,16
1,67,110,16
1,74,110,976
1,71,110,16
1,69,110,16
1,67,110,16
1,65,110,16
1,72,110,16
1,71,110,16
1,67,110,16
1,67,110,16
1,67,110,16
1,67,110,16
1,67,110,16
1,65,110,16
1,67,110,400
1,67,110,16
1,67,110,16
1,69,110,16
1,67,110,16
1,71,110,16
1,67,110,16
1,74,110,2128
1,71,110,16
1,74,110,16
1,74,110,16
1,71,110,16
1,72,110,16
1,74,110,16
1,71,110,16
1,71,110,1168
1,71,110,16
1,72,110,16
1,72,110,16
1,74,110,16
1,71,110,16
1,71,110,16
1,67,110,16
1,74,110,1360
1,71,110,16
1,72,110,16
1,74,110,16
1,71,110,16
1,76,110,16
1,74,110,16
1,71,110,16
1,71,110,1168
1,72,110,16
1,74,110,16
1,71,110,16
1,69,110,16
1,67,110,16
1,71,110,16
1,71,110,16
1,71,110,16
1,69,110,16
1,67,110,16
1,65,110,16
1,72,110,16
1,71,110,16
1,67,110,16
1,67,110,16
1,67,110,16
1,67,110,16
1,67,110,16
1,65,110,16
1,67,110,400
1,67,110,16
1,67,110,16
1,69,110,16
1,67,110,16
1,71,110,16
1,67,110,16
1,74,110,976
1,71,110,16
1,69,110,16
1,67,110,16
1,65,110,16
1,72,110,16
1,71,110,16
1,67,110,16
1,67,110,16
1,67,110,16
1,67,110,16
1,67,110,16
1,65,110,16
1,67,110,400
1,67,110,16
1,67,110,16
1,69,110,16
1,67,110,16
1,71,110,16
1,67,110,16
1,72,110,1360
1,74,110,16
1,72,110,2128
1,74,110,16
1,72,110,2128
1,74,110,16
1,72,110,2128
1,74,110,16
1,72,110,1360
1,71,110,16
1,71,110,16
1,69,110,16
1,67,110,16
1,65,110,16
1,72,110,16
1,71,110,16
1,67,110,16
1,67,110,16
1,67,110,16
1,67,110,16
1,67,110,16
1,65,110,16
1,67,110,400
1,67,110,16
1,67,110,16
1,69,110,16
1,67,110,16
1,71,110,16
1,67,110,16
1,74,110,976
1,71,110,16
1,69,110,16
1,67,110,16
1,65,110,16
1,72,110,16
1,71,110,16
1,67,110,16
1,67,110,16
1,67,110,16
1,67,110,16
1,67,110,16
1,65,110,16
1,67,110,400
1,67,110,16
1,67,110,16
1,69,110,16
1,67,110,16
1,71,110,16
1,67,110,16
1,74,110,2128
1,71,110,16
1,74,110,16
1,74,110,16
1,71,110,16
1,72,110,16
1,74,110,16
1,71,110,16
1,71,110,1168
1,71,110,16
1,72,110,16
1,74,110,16
1,71,110,16
1,69,110,16
1,67,110,16
1,74,110,1360
1,71,110,16
1,74,110,16
1,74,110,16
1,71,110,16
1,76,110,16
1,74,110,16
1,71,110,16
1,71,110,784
1,71,110,16
1,71,110,16
1,72,110,16
1,74,110,16
1,71,110,16
1,69,110,16
1,67,110,16
1,67,110,16
1,71,110,16
1,71,110,16
1,69,110,16
1,67,110,16
1,65,110,16
1,72,110,16
1,71,110,16
1,67,110,16
1,67,110,16
1,67,110,16
1,67,110,16
1,67,110,16
1,65,110,16
1,67,110,400
1,67,110,16
1,67,110,16
1,69,110,16
1,67,110,16
1,71,110,16
1,67,110,16
1,74,110,976
1,71,110,16
1,69,110,16
1,67,110,16
1,65,110,16
1,72,110,16
1,71,110,16
1,67,110,16
1,67,110,16
1,67,110,16
1,67,110,16
1,67,110,16
1,65,110,16
1,67,110,400
1,67,110,16
1,67,110,16
1,69,110,16
1,67,110,16
1,71,110,16
1,67,110,16
1,74,110,2128
1,71,110,16
1,72,110,16
1,74,110,16
1,74,110,2128
1,71,110,16
1,72,110,16
1,74,110,16
1,74,110,2128
1,71,110,16
1,72,110,16
1,74,110,16
1,71,110,16
1,74,110,1744
1,71,110,16
1,72,110,16
1,74,110,16
1,71,110,976
1,71,110,16
1,69,110,16
1,67,110,16
1,65,110,16
1,72,110,16
1,71,110,16
1,67,110,16
1,67,110,16
1,67,110,16
1,67,110,16
1,67,110,16
1,65,110,16
1,67,110,400
1,67,110,16
1,67,110,16
1,69,110,16
1,67,110,16
1,71,110,16
1,67,110,16
1,74,110,976
1,71,110,16
1,69,110,16
1,67,110,16
1,65,110,16
1,72,110,16
1,71,110,16
1,67,110,16
1,67,110,16
1,67,110,16
1,67,110,16
1,67,110,16
1,65,110,16
1,67,110,400
1,67,110,16
1,67,110,16
1,69,110,16
1,67,110,16
1,71,110,16
1,67,110,16
1,74,110,2128
1,71,110,16
1,72,110,16
1,74,110,16
1,74,110,2128
1,71,110,16
1,72,110,16
1,74,110,16
1,74,110,2128
1,71,110,16
1,72,110,16
1,74,110,16
1,71,110,16
1,71,110,976
1,72,110,16
1,74,110,16
1,71,110,16
1,72,110,16
1,74,110,16
1,71,110,592
1,71,110,16
1,69,110,16
1,67,110,16
1,65,110,16
1,72,110,16
1,71,110,16
1,67,110,16
1,67,110,16
1,67,110,16
1,67,110,16
1,67,110,16
1,65,110,16
1,67,110,400
1,67,110,16
1,67,110,16
1,69,110,16
1,67,110,16
1,71,110,16
1,67,110,16
1,74,110,976
1,71,110,16
1,69,110,16
1,67,110,16
1,65,110,16
1,72,107,16
1,71,104,16
1,67,101,16
1,67,100,16
1,67,97,16
1,67,95,16
1,67,94,16
1,65,92,16
1,67,88,400
1,67,86,16
1,67,85,16
1,69,83,16
1,67,81,16
1,71,80,16
1,67,78,16
2,77,85,1536
2,77,85,2708
2,74,85,2892
2,71,85,16
2,74,85,20
2,74,85,12
2,71,85,20
2,72,85,12
2,74,85,16
2,71,85,16
2,71,85,592
2,71,85,20
2,71,85,12
2,71,85,16
2,72,85,20
2,74,85,12
2,71,85,20
2,71,85,12
2,67,85,16
2,74,85,1360
2,71,85,20
2,72,85,16
2,74,85,16
2,71,85,12
2,76,85,20
2,74,85,16
2,71,85,16
2,71,85,592
2,71,85,12
2,71,85,16
2,71,85,16
2,72,85,16
2,72,85,16
2,74,85,16
2,71,85,20
2,69,85,12
2,67,85,16
2,71,85,16
2,71,85,20
2,71,85,16
2,69,85,16
2,67,85,16
2,65,85,16
2,72,85,12
2,71,85,16
2,67,85,16
2,67,85,20
2,67,85,12
2,67,85,16
2,67,85,16
2,65,85,20
2,67,85,396
2,67,85,20
2,67,85,12
2,69,85,20
2,67,85,12
2,71,85,16
2,67,85,16
2,74,85,980
2,71,85,16
2,69,85,16
2,67,85,12
2,65,85,20
2,72,85,16
2,71,85,12
2,67,85,16
2,67,85,16
2,67,85,16
2,67,85,16
2,67,85,20
2,65,85,12
2,67,85,400
2,67,85,16
2,67,85,20
2,69,85,12
2,67,85,20
2,71,85,16
2,67,85,16
2,74,85,2124
2,71,85,20
2,74,85,16
2,74,85,16
2,71,85,16
2,72,85,16
2,74,85,12
2,71,85,16
2,71,85,1168
2,71,85,16
2,72,85,20
2,72,85,16
2,74,85,12
2,71,85,16
2,71,85,16
2,67,85,16
2,74,85,1364
2,71,85,16
2,72,85,16
2,74,85,12
2,71,85,16
2,76,85,16
2,74,85,16
2,71,85,20
2,71,85,1164
2,72,85,20
2,74,85,12
2,71,85,20
2,69,85,12
2,67,85,16
2,71,85,20
2,71,85,12
2,71,85,16
2,69,85,20
2,67,85,12
2,65,85,16
2,72,85,16
2,71,85,16
2,67,85,16
2,67,85,16
2,67,85,20
2,67,85,16
2,67,85,12
2,65,85,20
2,67,85,400
2,67,85,12
2,67,85,16
2,69,85,16
2,67,85,20
2,71,85,16
2,67,85,16
2,74,85,976
2,71,85,16
2,69,85,12
2,67,85,16
2,65,85,16
2,72,85,16
2,71,85,16
2,67,85,16
2,67,85,16
2,67,85,20
2,67,85,12
2,67,85,20
2,65,85,16
2,67,85,396
2,67,85,20
2,67,85,16
2,69,85,16
2,67,85,16
2,71,85,12
2,67,85,16
2,72,85,1364
2,74,85,12
2,72,85,2128
2,74,85,20
2,72,85,2124
2,74,85,16
2,72,85,2132
2,74,85,12
2,72,85,1360
2,71,85,20
2,71,85,12
2,69,85,20
2,67,85,12
2,65,85,16
2,72,85,16
2,71,85,20
2,67,85,16
2,67,85,12
2,67,85,16
2,67,85,20
2,67,85,12
2,65,85,20
2,67,85,396
2,67,85,16
2,67,85,16
2,69,85,20
2,67,85,12
2,71,85,20
2,67,85,16
2,74,85,976
2,71,85,12
2,69,85,16
2,67,85,20
2,65,85,16
2,72,85,12
2,71,85,16
2,67,85,20
2,67,85,12
2,67,85,16
2,67,85,16
2,67,85,16
2,65,85,16
2,67,85,400
2,67,85,20
2,67,85,12
2,69,85,16
2,67,85,20
2,71,85,16
2,67,85,12
2,74,85,2128
2,71,85,20
2,74,85,16
2,74,85,16
2,71,85,12
2,72,85,16
2,74,85,20
2,71,85,16
2,71,85,1164
2,71,85,16
2,72,85,16
2,74,85,16
2,71,85,20
2,69,85,16
2,67,85,16
2,74,85,1360
2,71,85,16
2,74,85,16
2,74,85,12
2,71,85,16
2,76,85,20
2,74,85,12
2,71,85,16
2,71,85,788
2,71,85,16
2,71,85,16
2,72,85,16
2,74,85,12
2,71,85,20
2,69,85,16
2,67,85,16
2,67,85,12
2,71,85,20
2,71,85,12
2,69,85,16
2,67,85,20
2,65,85,16
2,72,85,16
2,71,85,16
2,67,85,12
2,67,85,16
2,67,85,20
2,67,85,12
2,67,85,16
2,65,85,16
2,67,85,400
2,67,85,16
2,67,85,16
2,69,85,20
2,67,85,12
2,71,85,20
2,67,85,12
2,74,85,976
2,71,85,16
2,69,85,16
2,67,85,20
2,65,85,16
2,72,85,12
2,71,85,16
2,67,85,16
2,67,85,16
2,67,85,20
2,67,85,12
2,67,85,16
2,65,85,16
2,67,85,400
2,67,85,16
2,67,85,20
2,69,85,12
2,67,85,20
2,71,85,12
2,67,85,20
2,74,85,2128
2,71,85,12
2,72,85,16
2,74,85,16
2,74,85,2128
2,71,85,16
2,72,85,16
2,74,85,20
2,74,85,2124
2,71,85,20
2,72,85,12
2,74,85,16
2,71,85,16
2,74,85,1744
2,71,85,16
2,72,85,20
2,74,85,16
2,71,85,976
2,71,85,12
2,69,85,20
2,67,85,16
2,65,85,16
2,72,85,16
2,71,85,16
2,67,85,16
2,67,85,12
2,67,85,16
2,67,85,16
2,67,85,20
2,65,85,12
2,67,85,404
2,67,85,16
2,67,85,16
2,69,85,12
2,67,85,16
2,71,85,16
2,67,85,16
2,74,85,976
2,71,85,16
2,69,85,16
2,67,85,20
2,65,85,12
2,72,85,20
2,71,85,12
2,67,85,16
2,67,85,16
2,67,85,16
2,67,85,20
2,67,85,12
2,65,85,20
2,67,85,400
2,67,85,16
2,67,85,12
2,69,85,20
2,67,85,12
2,71,85,20
2,67,85,12
2,74,85,2128
2,71,85,16
2,72,85,20
2,74,85,12
2,74,85,2132
2,71,85,16
2,72,85,12
2,74,85,16
2,74,85,2128
2,71,85,20
2,72,85,16
2,74,85,12
2,71,85,16
2,71,85,976
2,72,85,16
2,74,85,16
2,71,85,16
2,72,85,20
2,74,85,12
2,71,85,592
2,71,85,16
2,69,85,20
2,67,85,16
2,65,85,16
2,72,85,12
2,71,85,16
2,67,85,20
2,67,85,12
2,67,85,16
2,67,85,16
2,67,85,16
2,65,85,20
2,67,85,396
2,67,85,16
2,67,85,20
2,69,85,12
2,67,85,20
2,71,85,16
2,67,85,12
2,74,85,976
2,71,85,20
2,69,85,12
2,67,85,16
2,65,85,16
2,72,83,16
2,71,81,20
2,67,78,16
2,67,77,16
2,67,75,16
2,67,74,12
2,67,73,16
2,65,71,16
2,67,68,400
2,67,67,20
2,67,65,12
2,69,64,16
2,67,63,20
2,71,62,12
2,67,61,16
3,67,63,1536
3,71,63,4
3,59,63,972
3,62,63,4
3,67,63,0
3,62,63,204
3,67,63,16
3,65,63,16
3,67,63,16
3,71,63,4
3,62,63,972
3,67,63,0
3,59,63,4
3,62,63,204
3,67,63,20
3,65,63,12
3,62,63,404
3,67,63,0
3,62,63,396
3,67,63,0
3,62,63,400
3,67,63,0
3,62,63,400
3,67,63,4
3,62,63,396
3,67,63,0
3,62,63,404
3,59,63,396
3,62,63,4
3,59,63,396
3,62,63,4
3,67,63,396
3,62,63,4
3,67,63,400
3,62,63,400
3,67,63,0
3,67,63,396
3,62,63,4
3,62,63,396
3,67,63,4
3,62,63,16
3,60,63,12
3,59,63,20
3,62,63,16
3,62,63,16
3,62,63,780
3,67,63,0
3,59,63,400
3,62,63,0
3,59,63,400
3,62,63,0
3,62,63,400
3,59,63,4
3,59,63,396
3,62,63,0
3,59,63,400
3,62,63,0
3,62,63,596
3,59,63,12
3,62,63,4
3,62,63,396
3,67,63,4
3,59,63,396
3,62,63,4
3,59,63,396
3,62,63,4
3,59,63,400
3,62,63,0
3,59,63,396
3,62,63,0
3,59,63,400
3,62,63,4
3,62,63,396
3,59,63,4
3,67,63,0
3,59,63,400
3,62,63,0
3,67,63,0
3,62,63,396
3,67,63,4
3,62,63,400
3,67,63,0
3,62,63,396
3,67,63,0
3,67,63,400
3,62,63,4
3,62,63,396
3,67,63,4
3,62,63,396
3,62,63,400
3,59,63,4
3,59,63,396
3,62,63,4
3,62,63,396
3,67,63,0
3,67,63,404
3,62,63,396
3,67,63,0
3,62,63,404
3,67,63,0
3,67,63,396
3,62,63,4
3,62,63,12
3,60,63,16
3,59,63,16
3,62,63,20
3,62,63,12
3,62,63,784
3,67,63,0
3,59,63,400
3,62,63,4
3,59,63,396
3,62,63,4
3,59,63,396
3,62,63,4
3,59,63,396
3,62,63,0
3,59,63,400
3,62,63,4
3,62,63,588
3,62,63,16
3,59,63,4
3,62,63,396
3,67,63,4
3,59,63,396
3,62,63,0
3,59,63,400
3,62,63,0
3,62,63,400
3,59,63,4
3,62,63,396
3,59,63,4
3,59,63,396
3,62,63,0
3,59,63,400
3,62,63,0
3,67,63,0
3,67,63,208
3,67,63,16
3,71,63,4
3,62,63,12
3,71,63,0
3,67,63,4
3,71,63,396
3,62,63,4
3,67,63,0
3,67,63,396
3,62,63,4
3,71,63,0
3,67,63,208
3,67,63,16
3,71,63,0
3,71,63,12
3,62,63,4
3,67,63,0
3,62,63,396
3,71,63,0
3,67,63,4
3,62,63,396
3,71,63,0
3,67,63,4
3,67,63,204
3,67,63,16
3,71,63,0
3,67,63,16
3,71,63,0
3,62,63,4
3,67,63,396
3,71,63,0
3,62,63,4
3,62,63,396
3,67,63,0
3,71,63,4
3,67,63,208
3,71,63,12
3,67,63,4
3,62,63,16
3,67,63,0
3,71,63,0
3,62,63,396
3,67,63,4
3,71,63,0
3,62,63,204
3,67,63,0
3,62,63,16
3,67,63,4
3,62,63,976
3,67,63,0
3,59,63,396
3,62,63,4
3,59,63,396
3,62,63,4
3,59,63,400
3,62,63,0
3,59,63,396
3,62,63,0
3,59,63,400
3,62,63,4
3,62,63,588
3,59,63,16
3,62,63,4
3,62,63,396
3,67,63,0
3,62,63,400
3,59,63,4
3,59,63,396
3,62,63,4
3,62,63,396
3,59,63,4
3,59,63,400
3,62,63,0
3,59,63,396
3,62,63,4
3,59,63,396
3,62,63,0
3,67,63,0
3,59,63,400
3,62,63,0
3,67,63,0
3,67,63,400
3,62,63,4
3,62,63,400
3,67,63,0
3,62,63,400
3,67,63,0
3,62,63,396
3,67,63,0
3,67,63,400
