track,note,velocity,time
1,48,109,1136
1,55,99,88
1,58,116,60
1,58,82,68
1,67,105,0
1,62,102,0
1,64,96,0
1,48,110,548
1,55,100,200
1,58,90,52
1,67,106,0
1,62,103,8
1,64,96,0
1,58,96,24
1,67,105,0
1,62,113,0
1,64,85,0
1,41,109,28
1,48,106,88
1,63,94,52
1,57,96,8
1,60,100,0
1,65,101,0
1,63,104,80
1,60,112,0
1,57,102,0
1,65,115,0
1,41,110,552
1,48,106,192
1,63,92,48
1,65,98,0
1,57,102,0
1,60,100,0
1,65,100,24
1,63,100,0
1,60,115,0
1,57,110,0
1,48,94,20
1,55,117,96
1,58,85,24
1,67,100,8
1,62,98,0
1,64,93,0
1,58,89,68
1,67,110,0
1,62,110,0
1,64,100,0
1,48,106,556
1,55,101,192
1,58,97,40
1,67,109,4
1,62,105,0
1,64,95,0
1,58,99,28
1,67,106,0
1,62,103,0
1,64,80,0
1,41,103,20
1,48,113,104
1,63,90,20
1,65,95,0
1,60,96,0
1,57,92,0
1,63,104,84
1,60,113,0
1,65,113,0
1,57,107,0
1,48,90,188
1,65,107,24
1,57,115,0
1,63,127,24
1,55,117,0
1,53,112,56
1,62,125,0
1,50,115,40
1,59,107,0
1,51,90,4
1,60,115,8
1,48,109,4
1,55,99,92
1,58,116,60
1,58,82,68
1,67,105,0
1,62,102,0
1,64,96,0
1,48,110,548
1,55,100,200
1,58,90,52
1,67,106,0
1,62,103,8
1,64,96,0
1,58,96,24
1,67,105,0
1,62,113,0
1,64,85,0
1,41,109,28
1,48,106,88
1,63,94,52
1,57,96,8
1,60,100,0
1,65,101,0
1,63,104,80
1,60,112,0
1,57,102,0
1,65,115,0
1,41,110,552
1,48,106,192
1,63,92,48
1,65,98,0
1,57,102,0
1,60,100,0
1,65,100,24
1,63,100,0
1,60,115,0
1,57,110,0
1,48,94,20
1,55,117,96
1,58,85,24
1,67,100,8
1,62,98,0
1,64,93,0
1,58,89,68
1,67,110,0
1,62,110,0
1,64,100,0
1,48,106,556
1,55,101,192
1,58,97,40
1,67,109,4
1,62,105,0
1,64,95,0
1,58,99,28
1,67,106,0
1,62,103,0
1,64,80,0
1,41,103,20
1,48,113,104
1,63,90,20
1,65,95,0
1,60,96,0
1,57,92,0
1,63,104,84
1,60,113,0
1,65,113,0
1,57,107,0
1,48,90,188
1,65,107,24
1,57,115,0
1,63,127,24
1,55,117,0
1,53,112,56
1,62,125,0
1,50,115,40
1,59,107,0
1,51,90,4
1,60,115,8
1,48,109,4
1,55,99,92
1,58,116,60
1,58,82,68
1,67,105,0
1,62,102,0
1,64,96,0
1,48,110,548
1,55,100,200
1,58,90,52
1,67,106,0
1,62,103,8
1,64,96,0
1,58,96,24
1,67,105,0
1,62,113,0
1,64,85,0
1,41,109,28
1,48,106,88
1,63,94,52
1,57,96,8
1,60,100,0
1,65,101,0
1,63,104,80
1,60,112,0
1,57,102,0
1,65,115,0
1,41,110,552
1,48,106,192
1,63,92,48
1,65,98,0
1,57,102,0
1,60,100,0
1,65,100,24
1,63,100,0
1,60,115,0
1,57,110,0
1,48,94,20
1,55,117,96
1,58,85,24
1,67,100,8
1,62,98,0
1,64,93,0
1,58,89,68
1,67,110,0
1,62,110,0
1,64,100,0
1,48,106,556
1,55,101,192
1,58,97,40
1,67,109,4
1,62,105,0
1,64,95,0
1,58,99,28
1,67,106,0
1,62,103,0
1,64,80,0
1,41,103,20
1,48,113,104
1,63,90,20
1,65,95,0
1,60,96,0
1,57,92,0
1,63,104,84
1,60,113,0
1,65,113,0
1,57,107,0
1,48,90,188
1,65,107,24
1,57,115,0
1,63,127,24
1,55,117,0
1,53,112,56
1,62,125,0
1,50,115,40
1,59,107,0
1,51,90,4
1,60,115,8
1,48,109,4
1,55,99,92
1,58,116,60
1,58,82,68
1,67,105,0
1,62,102,0
1,64,96,0
1,48,110,548
1,55,100,200
1,58,90,52
1,67,106,0
1,62,103,8
1,64,96,0
1,58,96,24
1,67,105,0
1,62,113,0
1,64,85,0
1,41,109,28
1,48,106,88
1,63,94,52
1,57,96,8
1,60,100,0
1,65,101,0
1,63,104,80
1,60,112,0
1,57,102,0
1,65,115,0
1,41,110,552
1,48,106,192
1,63,92,48
1,65,98,0
1,57,102,0
1,60,100,0
1,65,100,24
1,63,100,0
1,60,115,0
1,57,110,0
1,48,94,20
1,55,117,96
1,58,85,24
1,67,100,8
1,62,98,0
1,64,93,0
1,58,89,68
1,67,110,0
1,62,110,0
1,64,100,0
1,48,106,556
1,55,101,192
1,58,97,40
1,67,109,4
1,62,105,0
1,64,95,0
1,58,99,28
1,67,106,0
1,62,103,0
1,64,80,0
1,41,103,20
1,48,113,104
1,63,90,20
1,65,95,0
1,60,96,0
1,57,92,0
1,63,104,84
1,60,113,0
1,65,113,0
1,57,107,0
1,48,90,188
1,65,107,24
1,57,115,0
1,63,127,24
1,55,117,0
1,53,112,56
1,62,125,0
1,50,115,40
1,59,107,0
1,51,90,4
1,60,115,8
1,36,77,0
1,43,87,100
1,67,100,92
1,58,92,0
1,62,100,0
1,64,105,4
1,67,89,36
1,58,75,0
1,64,94,4
1,62,100,0
1,43,73,12
1,36,90,32
1,43,77,24
1,67,80,48
1,58,73,0
1,64,80,0
1,62,87,8
1,58,61,36
1,64,89,0
1,62,96,0
1,67,75,0
1,36,77,4
1,43,92,20
1,67,83,88
1,62,100,0
1,58,98,0
1,64,88,0
1,67,73,36
1,62,86,0
1,64,80,8
1,41,85,0
1,48,89,0
1,65,90,92
1,60,86,0
1,57,79,0
1,60,85,40
1,57,88,0
1,63,73,8
1,48,77,164
1,41,82,40
1,65,103,24
1,57,103,0
1,60,103,0
1,41,79,92
1,48,76,0
1,57,101,16
1,65,101,0
1,60,101,0
1,48,78,0
1,57,78,84
1,60,80,0
1,36,75,20
1,43,94,8
1,58,78,48
1,67,96,0
1,62,98,4
1,64,96,0
1,67,89,32
1,58,82,0
1,62,105,0
1,64,102,8
1,43,82,0
1,36,105,8
1,43,86,0
1,67,80,24
1,58,91,0
1,62,77,0
1,64,73,8
1,58,68,44
1,67,75,0
1,62,87,4
1,64,77,0
1,43,80,20
1,43,82,64
1,62,108,24
1,58,108,0
1,67,108,4
1,64,108,0
1,62,83,40
1,64,85,4
1,58,73,0
1,41,85,28
1,48,83,80
1,63,79,80
1,60,82,0
1,57,79,0
1,65,85,0
1,63,96,52
1,65,101,0
1,60,105,0
1,57,92,0
1,48,94,8
1,57,84,8
1,65,90,36
1,60,90,0
1,41,82,0
1,57,92,4
1,48,80,8
1,57,91,96
1,63,113,0
1,48,83,0
1,60,89,20
1,57,88,0
1,48,91,100
1,57,77,84
1,36,84,8
1,43,90,96
1,65,102,72
1,62,100,0
1,69,74,4
1,62,74,80
1,58,74,12
1,64,74,0
1,67,80,4
1,43,87,12
1,58,105,104
1,36,80,32
1,62,113,100
1,66,91,0
1,69,101,0
1,65,86,0
1,43,85,0
1,67,100,52
1,58,113,0
1,62,113,8
1,64,90,0
1,64,62,0
1,43,96,32
1,58,98,12
1,62,101,108
1,41,82,36
1,48,80,12
1,67,89,4
1,63,119,0
1,57,100,0
1,60,115,0
1,63,78,64
1,57,84,4
1,60,89,0
1,67,73,0
1,65,90,0
1,48,83,20
1,57,102,64
1,67,98,120
1,63,110,4
1,57,101,0
1,60,110,0
1,41,82,16
1,48,78,20
1,57,102,16
1,65,113,0
1,60,113,0
1,60,78,36
1,57,78,0
1,65,80,0
1,48,90,28
1,65,80,96
1,60,76,0
1,57,78,0
1,36,78,24
1,43,102,0
1,67,94,96
1,62,96,0
1,58,105,0
1,64,102,0
1,67,98,60
1,58,101,0
1,62,100,0
1,64,102,0
1,43,101,44
1,36,89,44
1,67,90,184
1,58,92,0
1,62,92,0
1,64,100,4
1,43,72,12
1,43,111,80
1,58,101,36
1,62,101,0
1,67,101,0
1,64,101,4
1,43,94,8
1,58,89,60
1,41,89,24
1,60,87,100
1,63,79,0
1,57,89,0
1,65,89,0
1,41,76,0
1,60,88,52
1,63,80,0
1,65,86,0
1,57,86,0
1,41,96,96
1,48,98,16
1,57,83,12
1,60,87,28
1,65,100,44
1,57,115,0
1,60,96,0
1,48,82,0
1,63,123,32
1,55,108,0
1,48,83,4
1,53,94,36
1,62,89,0
1,48,79,0
1,59,105,44
1,51,115,0
1,48,87,4
1,60,88,20
1,53,90,4
1,36,90,8
1,43,92,4
1,69,90,24
1,65,105,0
1,60,96,0
1,43,81,104
1,63,119,44
1,67,89,0
1,60,91,4
1,64,73,88
1,43,82,60
1,60,76,20
1,36,91,16
1,65,88,24
1,69,82,4
1,60,82,0
1,36,89,92
1,43,80,40
1,63,105,88
1,67,88,0
1,60,90,0
1,64,74,72
1,43,90,36
1,60,79,0
1,41,83,4
1,48,81,96
1,57,92,84
1,67,83,0
1,60,94,0
1,63,94,0
1,48,73,0
1,65,96,32
1,60,92,8
1,57,87,0
1,48,82,36
1,57,74,8
1,41,75,12
1,67,81,32
1,63,86,0
1,57,88,0
1,60,88,0
1,41,76,12
1,48,79,8
1,57,90,92
1,65,110,4
1,60,108,0
1,57,78,36
1,60,79,0
1,65,83,4
1,48,75,8
1,57,76,96
1,65,80,0
1,60,79,0
1,36,75,32
1,43,89,28
1,60,96,84
1,65,110,0
1,69,90,0
1,43,88,0
1,60,96,76
1,67,85,0
1,63,110,0
1,64,78,88
1,43,90,0
1,69,89,40
1,65,96,0
1,60,77,4
1,36,82,0
1,69,91,44
1,60,92,0
1,65,113,0
1,36,79,92
1,43,92,20
1,63,113,92
1,67,88,4
1,60,100,0
1,64,86,68
1,43,94,0
1,60,78,100
1,67,89,0
1,41,82,12
1,48,78,12
1,67,86,92
1,57,105,0
1,60,108,0
1,63,110,0
1,48,78,0
1,60,89,36
1,65,94,4
1,57,85,0
1,48,89,12
1,57,80,12
1,65,82,0
1,41,74,0
1,57,98,4
1,63,113,32
1,55,110,0
1,48,82,88
1,62,89,28
1,53,83,0
1,48,75,24
1,58,82,40
1,51,110,4
1,59,127,8
1,48,78,8
1,53,90,60
1,60,84,0
1,36,80,20
1,43,84,12
1,66,90,92
1,62,102,0
1,64,102,0
1,67,94,0
1,58,98,0
1,67,80,60
1,62,102,4
1,58,75,0
1,64,98,4
1,43,96,8
1,58,75,20
1,67,82,0
1,62,94,0
1,64,91,0
1,36,76,0
1,67,82,40
1,64,91,0
1,58,70,0
1,62,96,4
1,36,85,88
1,43,91,24
1,67,89,92
1,62,119,0
1,58,105,0
1,64,77,48
1,43,89,12
1,58,83,96
1,41,82,16
1,48,76,8
1,57,85,96
1,63,76,0
1,65,88,0
1,60,82,0
1,48,68,36
1,65,92,52
1,63,83,0
1,57,89,0
1,60,94,0
1,48,79,4
1,57,84,104
1,63,78,0
1,60,89,0
1,65,88,0
1,57,73,12
1,63,72,0
1,65,74,4
1,60,78,0
1,41,72,28
1,48,76,4
1,65,110,8
1,57,102,0
1,63,127,0
1,60,115,4
1,57,74,36
1,65,78,0
1,60,74,4
1,63,71,0
1,48,75,16
1,57,78,96
1,65,78,0
1,63,71,0
1,60,73,0
1,36,82,8
1,43,91,4
1,67,96,36
1,63,94,0
1,58,105,0
1,64,89,100
1,43,78,20
1,67,89,8
1,64,105,0
1,43,87,20
1,58,108,96
1,67,92,0
1,63,108,0
1,43,80,44
1,58,101,60
1,67,86,0
1,63,92,0
1,64,83,88
1,43,82,0
1,58,89,12
1,67,96,0
1,64,110,0
1,43,105,20
1,58,86,52
1,41,87,12
1,48,84,20
1,57,79,92
1,63,76,4
1,60,85,0
1,65,89,0
1,63,84,72
1,57,98,0
1,60,89,0
1,65,100,0
1,48,105,12
1,41,83,8
1,68,127,92
1,65,115,0
1,72,98,0
1,69,82,16
1,65,74,0
1,69,91,40
1,72,78,0
1,65,87,4
1,72,89,44
1,65,91,0
1,69,100,0
1,72,89,40
1,65,91,0
1,69,100,0
1,65,100,44
1,69,105,0
1,72,90,0
1,68,119,8
1,65,75,8
1,72,78,0
1,48,89,8
1,69,105,0
1,36,87,12
1,43,83,60
1,64,105,72
1,67,105,0
1,58,113,0
1,62,100,8
1,58,84,48
1,62,100,4
1,67,89,0
1,64,101,0
1,43,100,52
1,67,92,24
1,58,75,0
1,64,98,4
1,62,100,0
1,36,89,8
1,58,66,36
1,62,89,0
1,64,85,0
1,67,82,4
1,36,79,4
1,43,94,20
1,63,123,88
1,67,101,0
1,58,113,0
1,64,83,4
1,43,98,12
1,58,89,12
1,41,82,20
1,48,75,4
1,63,77,96
1,57,94,0
1,60,94,0
1,65,91,0
1,57,91,40
1,60,96,0
1,65,89,0
1,63,83,0
1,48,88,0
1,65,98,88
1,63,85,0
1,60,98,0
1,57,92,0
1,41,78,12
1,57,81,44
1,65,84,0
1,60,88,0
1,63,78,0
1,41,79,0
1,48,89,64
1,63,78,84
1,65,91,0
1,57,82,0
1,60,90,0
1,48,105,0
1,57,87,68
1,63,78,0
1,65,87,0
1,60,87,0
1,36,83,16
1,43,90,68
1,69,91,84
1,60,102,0
1,65,126,0
1,43,56,4
1,63,119,8
1,67,91,0
1,60,90,0
1,64,76,92
1,43,78,36
1,60,78,4
1,36,87,4
1,69,94,84
1,65,119,0
1,60,110,0
1,43,100,28
1,43,119,32
1,63,126,92
1,60,105,0
1,67,91,0
1,64,78,48
1,43,91,44
1,60,79,20
1,41,89,16
1,48,85,32
1,57,108,96
1,67,88,0
1,60,115,0
1,63,113,0
1,57,92,80
1,60,89,0
1,65,98,0
1,48,108,4
1,57,88,4
1,41,80,8
1,65,98,4
1,57,96,4
1,63,123,12
1,55,126,0
1,48,86,96
1,62,94,44
1,53,92,4
1,48,75,4
1,51,110,52
1,59,110,0
1,48,81,20
1,60,90,68
1,53,100,0
1,36,76,68
1,43,75,24
1,67,98,92
1,63,127,0
1,60,113,0
1,64,80,40
1,65,115,48
1,43,74,0
1,69,96,4
1,60,89,0
1,43,90,144
1,60,94,76
1,67,90,0
1,63,113,0
1,64,74,32
1,60,79,4
1,69,102,92
1,65,126,0
1,43,82,4
1,60,73,56
1,60,87,8
1,67,92,4
1,63,119,0
1,64,69,96
1,43,84,12
1,60,77,76
1,41,84,4
1,48,90,0
1,57,110,92
1,67,92,0
1,63,123,4
1,60,110,0
1,48,86,60
1,60,90,0
1,57,88,0
1,65,94,0
1,63,84,0
1,63,79,36
1,60,75,0
1,65,88,0
1,57,101,92
1,63,115,0
1,65,110,0
1,60,108,0
1,48,82,8
1,57,76,84
1,65,78,0
1,60,75,0
1,63,72,4
1,41,78,4
1,48,81,72
1,57,101,0
1,60,123,0
1,63,127,0
1,65,123,0
1,60,83,48
1,65,86,0
1,63,77,0
1,48,87,4
1,63,74,96
1,57,81,0
1,60,81,0
1,65,82,0
1,36,85,12
1,43,76,68
1,63,123,108
1,58,113,4
1,67,105,0
1,64,80,68
1,58,82,40
1,67,89,4
1,64,98,0
1,43,98,0
1,58,98,96
1,67,98,0
1,63,82,0
1,64,85,20
1,58,117,80
1,67,117,0
1,64,117,0
1,43,98,8
1,67,89,96
1,58,89,0
1,63,91,4
1,43,89,56
1,64,74,8
1,58,76,60
1,41,87,0
1,48,80,84
1,67,89,88
1,57,110,0
1,60,113,0
1,63,119,0
1,63,85,60
1,57,87,0
1,60,94,0
1,65,102,0
1,48,89,184
1,63,74,76
1,60,80,0
1,65,81,0
1,57,74,0
1,41,67,0
1,63,89,56
1,57,82,0
1,65,94,0
1,60,85,0
1,41,78,84
1,48,80,4
1,57,105,96
1,63,113,0
1,60,113,0
1,65,110,0
1,72,126,100
1,64,126,4
1,67,126,0
1,69,126,0
1,36,115,24
1,60,98,112
1,67,98,0
1,63,127,0
1,64,74,88
1,43,90,40
1,65,115,4
1,69,105,0
1,60,91,4
1,60,67,0
1,60,79,16
1,63,123,0
1,67,89,0
1,43,89,8
1,64,67,96
1,60,78,0
1,43,86,84
1,69,89,0
1,65,110,0
1,60,74,12
1,67,94,92
1,63,127,4
