track,note,velocity,time
0,33,114,64
0,21,112,2
0,52,106,3
0,48,98,5
0,45,97,0
0,69,74,0
0,69,0,461
0,69,84,0
0,69,0,503
0,72,81,0
0,72,0,361
0,74,85,0
0,74,0,222
0,21,0,174
0,52,0,31
0,48,0,0
0,45,0,0
0,33,0,30
0,45,80,176
0,40,104,55
0,45,0,26
0,40,0,40
0,57,94,19
0,64,112,3
0,60,117,0
0,33,120,10
0,60,0,213
0,57,0,4
0,64,0,56
0,57,52,596
0,57,0,171
0,60,61,39
0,60,0,33
0,57,64,70
0,57,0,68
0,60,57,32
0,33,0,13
0,60,0,8
0,57,59,49
0,57,0,51
0,60,62,29
0,60,0,23
0,57,72,39
0,60,75,65
0,57,0,3
0,60,0,33
0,57,73,57
0,57,0,56
0,60,67,14
0,60,0,43
0,74,104,0
0,57,72,0
0,60,92,53
0,57,0,13
0,60,0,33
0,57,69,27
0,60,84,29
0,57,0,2
0,60,0,12
0,57,66,16
0,74,0,0
0,60,81,4
0,38,92,25
0,74,97,0
0,57,0,0
0,60,0,18
0,33,98,44
0,38,0,31
0,31,88,54
0,33,0,11
0,31,0,27
0,26,127,11
0,65,127,18
0,62,127,0
0,57,108,2
0,74,0,294
0,72,94,0
0,72,0,168
0,69,52,0
0,69,0,106
0,69,79,0
0,69,0,3
0,26,0,39
0,65,0,1
0,57,0,5
0,62,0,3
0,52,84,284
0,55,78,52
0,52,0,21
0,57,69,17
0,55,0,25
0,57,0,23
0,59,57,4
0,60,87,13
0,33,68,7
0,59,0,8
0,60,0,33
0,64,102,22
0,33,0,10
0,28,108,12
0,67,91,13
0,69,105,45
0,28,0,0
0,64,0,8
0,21,127,22
0,72,114,7
0,67,0,5
0,69,0,0
0,72,0,62
0,70,101,132
0,66,119,0
0,62,110,2
0,21,0,1
0,71,92,7
0,70,0,10
0,66,0,2
0,62,0,5
0,71,0,53
0,69,110,119
0,64,102,2
0,60,108,3
0,64,0,55
0,60,0,18
0,69,0,18
0,60,112,136
0,63,127,3
0,64,104,5
0,55,80,2
0,57,78,5
0,63,0,34
0,60,0,9
0,57,0,5
0,55,0,15
0,64,0,43
0,62,120,127
0,59,98,7
0,54,119,0
0,54,0,63
0,62,0,58
0,59,0,37
0,60,108,122
0,57,127,0
0,55,110,0
0,52,114,0
0,52,0,63
0,55,0,13
0,57,0,32
0,60,0,13
0,21,100,264
0,64,125,5
0,60,127,0
0,57,112,5
0,69,127,3
0,33,97,5
0,31,85,12
0,31,0,13
0,57,0,85
0,33,0,3
0,21,0,37
0,60,0,2
0,64,0,23
0,57,67,44
0,57,0,83
0,60,74,25
0,60,0,41
0,57,66,41
0,57,0,63
0,60,85,7
0,60,0,51
0,69,0,23
0,57,66,24
0,69,27,32
0,60,84,25
0,57,0,9
0,60,0,42
0,57,70,39
0,60,73,45
0,57,0,16
0,60,0,45
0,57,73,37
0,60,80,60
0,57,0,8
0,60,0,50
0,57,73,29
0,60,71,55
0,57,0,6
0,60,0,72
0,57,85,15
0,60,88,67
0,57,0,14
0,60,0,7
0,69,94,0
0,57,70,19
0,60,84,4
0,57,0,13
0,60,0,29
0,57,91,37
0,60,60,48
0,57,0,10
0,60,0,23
0,69,0,185
0,69,0,145
0,74,100,0
0,74,0,17
0,74,94,0
0,74,0,212
0,74,98,0
0,74,0,4
0,72,73,7
0,69,68,85
0,72,0,23
0,67,88,19
0,69,0,31
0,29,87,22
0,41,85,5
0,57,79,30
0,67,0,0
0,63,101,2
0,63,0,219
0,57,0,81
0,53,61,336
0,57,73,73
0,60,95,75
0,63,93,56
0,69,80,0
0,69,0,176
0,69,81,0
0,29,0,182
0,41,0,8
0,60,0,0
0,57,0,7
0,63,0,0
0,53,0,5
0,64,61,24
0,69,0,1
0,64,0,315
0,28,104,134
0,56,110,5
0,52,102,0
0,64,117,3
0,59,112,0
0,40,114,0
0,28,0,197
0,40,0,1
0,52,0,9
0,56,0,53
0,64,0,18
0,59,0,25
0,52,72,31
0,40,78,3
0,52,0,45
0,40,0,1
0,59,53,21
0,64,81,15
0,56,29,8
0,64,0,15
0,56,0,1
0,28,68,14
0,59,0,8
0,28,0,15
0,52,75,19
0,40,77,23
0,52,0,28
0,40,0,8
0,59,60,14
0,56,30,2
0,64,88,10
0,64,0,21
0,56,0,7
0,28,70,10
0,59,0,1
0,28,0,20
0,52,73,19
0,40,86,20
0,52,0,21
0,40,0,5
0,59,70,26
0,56,6,3
0,64,86,10
0,64,0,18
0,59,0,7
0,56,0,6
0,28,77,4
0,28,0,16
0,52,80,21
0,40,98,13
0,40,0,31
0,52,0,7
0,56,8,12
0,59,78,2
0,64,100,15
0,28,92,23
0,64,0,3
0,59,0,10
0,28,0,13
0,52,80,31
0,40,92,0
0,40,0,33
0,52,0,13
0,59,78,22
0,64,100,10
0,28,87,20
0,64,0,6
0,59,0,12
0,28,0,8
0,52,80,31
0,40,94,0
0,40,0,41
0,52,0,7
0,59,65,15
0,64,95,17
0,28,80,18
0,64,0,8
0,28,0,10
0,52,80,37
0,40,104,2
0,59,0,1
0,40,0,37
0,52,0,11
0,59,52,11
0,64,102,15
0,28,92,10
0,64,0,28
0,28,0,8
0,52,78,29
0,40,108,3
0,40,0,46
0,52,0,7
0,64,97,29
0,28,100,3
0,64,0,23
0,28,0,15
0,52,84,32
0,40,102,2
0,40,0,48
0,52,0,11
0,64,104,19
0,28,114,7
0,64,0,46
0,28,0,2
0,52,74,10
0,40,86,7
0,40,0,21
0,56,0,20
0,52,0,8
0,59,0,9
0,72,98,0
0,72,0,171
0,69,53,0
0,69,0,93
0,71,81,0
0,71,0,743
0,71,77,184
0,69,54,69
0,71,0,11
0,69,0,142
0,79,100,354
0,84,70,13
0,81,94,7
0,33,86,10
0,45,78,3
0,79,0,18
0,84,0,150
0,81,0,12
0,79,92,20
0,79,0,61
0,76,102,34
0,76,0,56
0,74,91,36
0,74,0,76
0,75,97,12
0,81,98,15
0,75,0,131
0,81,0,2
0,74,92,72
0,74,0,81
0,72,104,31
0,72,0,51
0,69,106,49
0,69,0,81
0,67,95,57
0,67,0,51
0,69,91,14
0,69,0,88
0,67,88,2
0,67,0,56
0,64,94,26
0,64,0,51
0,62,87,44
0,62,0,61
0,63,91,29
0,69,114,3
0,69,0,88
0,63,0,10
0,62,106,117
0,69,95,5
0,62,0,46
0,69,0,0
0,69,122,201
0,60,120,0
0,60,0,121
0,69,0,17
0,62,102,40
0,60,112,112
0,62,0,16
0,60,0,85
0,57,104,29
0,57,0,81
0,55,88,22
0,55,0,73
0,57,77,14
0,57,0,66
0,55,78,32
0,55,0,68
0,57,78,4
0,57,0,66
0,55,83,4
0,55,0,56
0,52,73,17
0,55,81,40
0,57,70,37
0,55,72,0
0,52,0,16
0,55,0,8
0,55,0,52
0,57,73,17
0,55,68,420
0,57,0,5
0,55,0,61
0,53,67,16
0,53,0,66
0,52,64,17
0,57,0,485
0,45,0,82
0,33,0,5
0,50,64,44
0,52,0,11
0,48,56,54
0,50,0,12
0,48,0,57
0,45,68,24
0,33,112,22
0,35,98,0
0,35,0,6
0,33,0,68
0,33,97,54
0,33,0,148
0,33,89,92
0,35,78,0
0,45,0,5
0,33,0,1
0,35,0,0
0,33,100,194
0,33,0,166
0,33,91,74
0,35,76,0
0,33,0,6
0,35,0,0
0,33,92,234
0,33,0,163
0,33,61,77
0,35,76,0
0,33,0,6
0,35,0,0
0,33,70,114
0,33,0,76
0,43,120,44
0,43,0,93
0,45,92,27
0,45,0,76
0,31,114,44
0,35,91,0
0,35,0,6
0,31,0,105
0,33,64,9
0,33,0,63
0,33,88,57
0,33,0,173
0,69,102,0
0,33,110,13
0,35,74,0
0,35,0,6
0,33,0,2
0,33,106,232
0,69,0,15
0,33,0,183
0,28,86,42
0,28,110,0
0,35,53,0
0,35,0,6
0,69,110,0
0,35,74,230
0,64,127,0
0,52,106,0
0,35,0,6
0,69,0,32
0,28,0,140
0,28,0,15
0,40,70,32
0,40,0,6
0,31,91,9
0,31,106,0
0,40,127,0
0,40,0,6
0,72,112,0
0,72,0,183
0,64,0,3
0,52,0,23
0,74,108,0
0,46,63,15
0,67,110,0
0,55,117,0
0,46,0,6
0,31,0,90
0,31,0,25
0,67,0,2
0,55,0,0
0,64,108,24
0,33,85,2
0,33,85,0
0,57,68,0
0,42,85,0
0,35,108,0
0,57,114,0
0,69,110,0
0,64,108,0
0,60,104,0
0,57,122,0
0,69,120,0
0,57,0,5
0,42,0,0
0,35,0,0
0,72,117,1
0,57,0,0
0,57,114,14
0,57,0,0
0,74,0,40
0,33,0,42
0,33,0,0
0,33,86,22
0,33,86,0
0,42,49,0
0,57,114,0
0,57,114,0
0,42,0,6
0,57,0,12
0,57,0,0
0,64,0,58
0,69,0,15
0,72,0,2
0,64,95,2
0,57,114,5
0,69,95,0
0,57,114,0
0,72,92,7
0,57,0,9
0,57,0,0
0,64,0,22
0,69,0,3
0,72,0,4
0,33,0,23
0,33,0,0
0,42,89,52
0,40,125,0
0,55,117,0
0,42,0,6
0,40,0,0
0,55,0,22
0,64,66,87
0,57,112,5
0,69,71,0
0,57,112,0
0,72,78,7
0,57,0,49
0,57,0,0
0,64,0,50
0,69,0,5
0,64,92,4
0,72,0,3
0,33,76,2
0,33,76,0
0,42,43,0
0,35,65,0
0,69,98,0
0,42,0,6
0,35,0,0
0,72,100,1
0,64,0,19
0,69,0,10
0,72,0,7
0,60,117,77
0,60,117,0
0,60,0,83
0,60,0,0
0,42,87,37
0,35,92,0
0,42,0,6
0,35,0,0
0,33,0,20
0,33,0,0
0,60,100,94
0,60,100,0
0,60,0,41
0,60,0,0
0,33,77,79
0,33,77,0
0,42,46,0
0,35,88,0
0,55,114,0
0,55,114,0
0,42,0,6
0,35,0,0
0,55,0,22
0,55,0,0
0,42,89,212
0,40,125,0
0,57,112,0
0,57,112,0
0,42,0,6
0,40,0,0
0,33,0,30
0,33,0,0
0,57,0,5
0,33,79,129
0,33,79,0
0,42,37,0
0,42,0,6
0,57,0,150
0,33,0,30
0,33,0,0
0,64,110,29
0,33,94,5
0,33,94,0
0,42,84,0
0,35,102,0
0,57,114,0
0,69,120,0
0,42,0,6
0,35,0,0
0,72,117,1
0,33,0,1
0,33,0,0
0,57,0,8
0,57,114,32
0,57,0,3
0,64,0,90
0,69,0,5
0,64,87,4
0,72,0,3
0,33,75,2
0,33,75,0
0,42,51,0
0,57,104,0
0,69,81,0
0,57,104,0
0,42,0,6
0,72,91,1
0,57,0,34
0,57,0,0
0,72,0,54
0,64,0,11
0,69,0,5
0,72,104,4
0,64,100,0
0,57,104,5
0,69,94,0
0,57,104,0
0,57,0,16
0,57,0,0
0,64,0,20
0,72,0,2
0,69,0,3
0,42,91,79
0,40,125,0
0,55,110,0
0,74,127,0
0,42,0,1
0,40,0,0
0,55,0,27
0,33,0,8
0,33,0,0
0,57,120,79
0,57,120,0
0,57,0,61
0,57,0,0
0,74,0,12
0,72,88,0
0,33,73,35
0,33,73,0
0,42,48,0
0,35,74,0
0,42,0,6
0,35,0,0
0,72,0,10
0,60,114,104
0,60,114,0
0,60,0,78
0,60,0,0
0,74,127,0
0,42,84,13
0,35,102,0
0,33,0,6
0,33,0,0
0,42,0,0
0,35,0,0
0,60,100,114
0,60,100,0
0,74,0,55
0,60,0,3
0,60,0,0
0,69,68,34
0,33,80,28
0,33,80,0
0,42,46,0
0,55,117,0
0,55,117,0
0,42,0,6
0,69,0,2
0,55,0,20
0,55,0,0
0,69,0,10
0,57,0,3
0,60,0,5
0,64,0,30
0,69,108,0
0,33,0,4
0,33,0,0
0,31,86,19
0,42,87,0
0,40,127,0
0,57,112,0
0,66,116,0
0,62,117,0
0,59,114,0
0,57,112,0
0,42,0,6
0,40,0,0
0,57,0,105
0,31,0,72
0,69,0,15
0,72,117,0
0,28,84,18
0,42,49,0
0,42,0,6
0,62,0,122
0,66,0,8
0,59,0,2
0,57,0,18
0,64,108,19
0,28,0,1
0,33,79,2
0,33,79,0
0,42,85,0
0,35,108,0
0,57,114,0
0,64,110,0
0,60,104,0
0,57,98,0
0,55,102,0
0,69,120,0
0,42,0,6
0,35,0,0
0,72,117,1
0,57,0,0
0,72,0,32
0,57,114,14
0,57,0,0
0,33,0,55
0,33,0,0
0,33,85,49
0,33,85,0
0,42,49,0
0,57,114,0
0,57,114,0
0,42,0,6
0,57,0,27
0,57,0,0
0,64,0,63
0,69,0,15
0,72,0,2
0,64,95,2
0,57,114,5
0,69,95,0
0,57,114,0
0,72,92,7
0,57,0,9
0,57,0,0
0,64,0,22
0,69,0,3
0,72,0,4
0,33,0,28
0,33,0,0
0,33,97,47
0,33,97,0
0,42,89,0
0,40,125,0
0,55,117,0
0,42,0,6
0,40,0,0
0,33,0,2
0,33,0,0
0,55,0,20
0,64,66,87
0,57,112,5
0,69,71,0
0,57,112,0
0,72,78,7
0,57,0,49
0,57,0,0
0,64,0,50
0,69,0,5
0,64,92,4
0,72,0,3
0,33,80,2
0,33,80,0
0,42,43,0
0,35,65,0
0,69,98,0
0,42,0,6
0,35,0,0
0,72,100,1
0,64,0,19
0,69,0,10
0,72,0,7
0,60,117,77
0,60,117,0
0,60,0,83
0,60,0,0
0,33,0,3
0,33,0,0
0,42,87,34
0,35,92,0
0,42,0,6
0,35,0,0
0,60,100,114
0,60,100,0
0,60,0,41
0,60,0,0
0,33,80,79
0,33,80,0
0,42,46,0
0,35,88,0
0,55,114,0
0,55,114,0
0,42,0,6
0,35,0,0
0,55,0,22
0,55,0,43
0,42,89,169
0,40,125,0
0,57,112,0
0,57,112,0
0,33,0,3
0,33,0,0
0,42,0,3
0,40,0,0
0,57,0,5
0,33,79,129
0,33,79,0
0,42,37,0
0,42,0,6
0,33,0,27
0,33,0,0
0,57,0,5
0,64,110,9
0,33,80,5
0,33,80,0
0,42,84,0
0,35,102,0
0,57,114,0
0,69,120,0
0,42,0,6
0,35,0,0
0,72,117,1
0,33,0,9
0,33,0,0
0,57,0,0
0,57,114,22
0,57,0,8
0,64,0,85
0,69,0,5
0,64,87,4
0,72,0,3
0,33,76,2
0,33,76,0
0,42,51,0
0,57,104,0
0,69,81,0
0,57,104,0
0,42,0,6
0,72,91,1
0,57,0,34
0,57,0,0
0,72,0,54
0,64,0,11
0,69,0,5
0,72,104,4
0,64,100,0
0,57,104,5
0,69,94,0
0,57,104,0
0,57,0,16
0,57,0,0
0,64,0,20
0,72,0,2
0,69,0,3
0,33,0,35
0,33,0,0
0,69,108,0
0,33,66,23
0,33,66,0
0,42,91,0
0,40,125,0
0,55,110,0
0,42,0,6
0,40,0,0
0,33,0,27
0,33,0,0
0,55,0,0
0,57,120,87
0,57,120,0
0,57,0,61
0,57,0,0
0,69,0,27
0,33,74,32
0,33,74,0
0,42,48,0
0,35,74,0
0,42,0,6
0,35,0,0
0,60,114,114
0,60,114,0
0,33,0,73
0,33,0,0
0,60,0,5
0,60,0,0
0,69,114,0
0,42,84,15
0,35,102,0
0,42,0,6
0,35,0,0
0,60,100,114
0,60,100,0
0,60,0,58
0,60,0,0
0,69,0,43
0,60,0,10
0,64,0,5
0,33,85,4
0,33,85,0
0,42,46,0
0,55,117,0
0,55,117,0
0,42,0,6
0,57,0,7
0,55,0,5
0,55,0,10
0,55,0,45
0,72,120,0
0,33,0,9
0,33,0,0
0,36,83,4
0,42,87,0
0,40,127,0
0,57,112,0
0,64,110,0
0,60,117,0
0,57,108,0
0,57,112,0
0,42,0,6
0,40,0,0
0,57,0,105
0,72,0,92
0,36,0,18
0,74,110,0
0,33,86,8
0,46,75,0
0,46,0,6
0,60,0,115
0,57,0,7
0,64,0,15
0,33,0,60
0,57,0,15
0,65,108,4
0,36,100,2
0,36,100,0
0,42,85,0
0,35,108,0
0,57,114,0
0,65,117,0
0,60,117,0
0,57,110,0
0,69,120,0
0,42,0,6
0,35,0,0
0,72,117,1
0,57,0,0
0,74,0,44
0,69,73,2
0,57,114,29
