track,note,velocity,time
1,41,111,10482
1,41,96,16
1,41,111,52
1,36,111,6
1,41,96,160
1,45,111,942
1,46,96,8
1,41,79,68
1,34,103,54
1,45,89,320
1,43,96,28
1,31,96,4
1,36,103,164
1,41,103,4
1,45,103,6
1,46,103,642
1,48,96,2
1,50,103,2
1,38,103,320
1,39,96,12
1,39,96,38
1,38,103,2
1,36,103,2
1,48,111,8
1,36,96,476
1,41,111,158
1,41,96,40
1,45,103,8
1,46,111,32
1,41,66,62
1,34,103,48
1,38,103,320
1,43,96,4
1,43,79,48
1,45,111,160
1,39,96,4
1,39,69,32
1,46,96,0
1,48,103,4
1,36,89,0
1,41,111,160
1,41,96,58
1,45,89,24
1,33,96,0
1,34,111,320
1,41,79,46
1,46,89,54
1,45,89,320
1,43,96,14
1,45,96,10
1,33,103,16
1,37,79,8
1,37,111,124
1,38,103,6
1,34,96,482
1,41,103,2
1,36,103,4
1,41,96,162
1,41,111,86
1,41,111,78
1,41,96,120
1,41,111,72
1,41,103,58
1,41,103,126
1,34,103,6
1,36,103,8
1,41,103,82
1,41,96,76
1,41,103,120
1,41,103,96
1,41,83,80
1,41,96,116
1,48,111,12
1,41,103,320
1,41,96,40
1,41,103,122
1,41,111,48
1,41,83,36
1,41,96,122
1,34,96,14
1,36,96,10
1,41,89,82
1,41,83,66
1,41,96,126
1,45,103,320
1,46,111,4
1,41,89,2
1,34,96,2
1,33,96,320
1,31,96,316
1,43,103,1108
1,36,111,148
1,43,103,952
1,48,89,12
1,41,96,158
1,43,74,556
1,45,103,34
1,46,111,4
1,48,89,10
1,50,96,158
1,38,96,318
1,39,103,8
1,39,96,32
1,39,103,124
1,38,103,8
1,36,103,320
1,43,74,554
1,48,103,8
1,36,103,0
1,41,111,322
1,41,111,52
1,45,96,120
1,46,103,4
1,41,79,62
1,34,96,60
1,45,111,322
1,43,89,34
1,43,96,38
1,45,103,6
1,39,103,8
1,39,103,122
1,46,103,158
1,34,89,0
1,36,111,14
1,41,111,2
1,41,83,40
1,45,96,106
1,46,103,8
1,41,103,22
1,34,96,120
1,45,111,322
1,43,103,36
1,45,96,8
1,33,103,6
1,36,96,10
1,48,111,480
1,44,103,192
1,44,83,44
1,43,111,6
1,42,111,94
1,42,96,36
1,41,96,102
1,40,111,104
1,40,111,44
1,39,103,108
1,37,111,110
1,44,103,16
1,49,111,10
1,37,111,26
1,42,111,240
1,42,96,150
1,46,111,8
1,34,111,320
1,35,111,318
1,35,96,138
1,35,103,116
1,39,103,10
1,44,103,2
1,46,111,66
1,34,111,12
1,40,96,320
1,40,96,172
1,47,111,6
1,35,96,14
1,37,96,160
1,42,103,298
1,42,103,150
1,46,103,98
1,34,103,318
1,35,83,4
1,35,96,140
1,35,111,114
1,39,111,2
1,44,103,320
1,44,103,132
1,46,103,6
1,34,96,320
1,38,103,312
1,39,103,8
1,35,103,8
1,37,111,160
1,42,96,148
1,42,111,140
1,46,103,108
1,47,111,96
1,35,96,480
1,35,111,112
1,39,103,2
1,44,111,320
1,44,103,122
1,46,103,120
1,34,96,318
1,40,103,316
1,40,96,138
1,35,89,110
1,47,111,162
1,37,103,6
1,42,103,322
1,42,111,130
1,46,96,112
1,34,96,322
1,35,103,10
1,35,111,112
1,35,103,110
1,39,103,16
1,32,103,322
1,44,111,308
1,46,103,2
1,34,89,10
1,38,111,12
1,39,89,480
1,35,103,14
1,42,96,318
1,42,79,40
1,42,66,56
1,42,74,48
1,30,79,306
2,72,117,5358
2,72,108,30
2,70,93,2
2,69,117,16
2,67,117,8
2,69,108,6
2,65,93,16
2,60,99,166
2,60,99,28
2,69,93,24
2,70,82,30
2,72,117,34
2,70,99,256
2,69,99,10
2,65,108,8
2,72,127,408
2,72,99,24
2,72,108,36
2,69,108,962
2,69,108,18
2,70,117,30
2,69,99,10
2,67,82,124
2,67,108,44
2,60,99,34
2,69,127,4
2,60,71,44
2,72,127,26
2,70,117,14
2,69,108,16
2,65,117,16
2,65,82,500
2,77,108,2
2,79,127,30
2,67,93,0
2,81,99,4
2,69,86,4
2,77,99,6
2,65,86,4
2,67,93,16
2,79,108,0
2,69,93,254
2,77,93,2
2,70,86,2
2,79,108,2
2,81,108,18
2,72,93,4
2,81,99,26
2,72,86,4
2,70,108,8
2,79,127,0
2,81,99,6
2,81,60,26
2,79,75,4
2,77,117,28
2,74,99,0
2,79,117,14
2,81,108,8
2,82,127,32
2,70,93,0
2,82,93,4
2,74,86,4
2,81,99,4
2,72,86,4
2,79,117,20
2,70,75,2
2,81,117,2
2,77,99,8
2,79,127,0
2,72,93,2
2,72,108,678
2,72,117,34
2,77,124,0
2,77,99,28
2,81,117,2
2,81,117,30
2,72,99,12
2,74,108,22
2,72,60,2
2,74,68,26
2,72,54,6
2,70,71,40
2,74,117,126
2,77,99,26
2,79,99,36
2,80,93,282
2,81,99,18
2,77,117,10
2,74,127,648
2,77,93,20
2,79,108,40
2,81,99,14
2,77,99,6
2,72,127,254
2,72,108,36
2,77,108,4
2,77,99,32
2,81,117,6
2,81,127,36
2,72,82,16
2,74,127,22
2,72,82,2
2,70,86,20
2,74,117,10
2,77,99,16
2,77,86,34
2,79,117,36
2,81,108,12
2,77,108,14
2,69,71,0
2,74,108,8
2,77,99,16
2,77,75,36
2,73,68,12
2,81,108,0
2,73,86,126
2,79,108,2
2,81,99,2
2,74,86,0
2,77,99,13032
2,65,82,6
2,79,108,4
2,67,82,2
2,69,82,1100
2,81,86,0
2,77,99,0
2,65,86,4
2,67,75,14
2,79,108,0
2,69,82,0
2,77,99,4
2,79,108,10
2,70,68,0
2,81,117,4
2,72,93,2
2,81,108,30
2,72,93,2
2,72,65,6
2,79,106,2
2,81,108,0
2,70,93,14
2,77,108,0
2,79,108,12
2,81,99,16
2,82,117,26
2,75,99,4
2,81,108,0
2,70,100,2
2,79,108,6
2,67,86,2
2,81,127,10
2,77,117,6
2,67,46,72
2,79,127,12
2,72,60,8
2,84,99,778
2,72,80,4
2,72,93,24
2,84,99,2
2,77,86,4
2,89,93,0
2,77,75,28
2,89,93,6
2,81,86,0
2,93,99,4
2,81,71,28
2,93,108,2
2,84,86,10
2,72,86,2
2,86,108,10
2,74,86,2
2,76,71,550
2,77,71,160
2,86,108,58
2,89,108,22
2,91,117,4
2,79,86,0
2,81,82,484
2,93,99,2
2,77,75,8
2,89,99,0
2,74,75,14
2,86,99,6
2,89,86,8
2,77,57,0
2,91,99,26
2,75,82,2
2,75,68,12
2,93,93,2
2,74,75,8
2,89,93,2
2,72,82,4
2,84,99,494
2,84,99,34
2,89,99,32
2,81,86,18
2,89,99,4
2,93,86,146
2,89,12,54
2,93,99,12
2,84,82,14
2,77,97,20
2,86,93,0
2,84,68,24
2,86,75,8
2,84,82,24
2,82,68,40
2,86,86,108
2,89,99,18
2,89,108,24
2,79,86,16
2,91,117,4
2,81,82,0
2,93,108,4
2,77,86,8
2,89,117,0
2,77,93,316
2,79,117,0
2,81,93,24
2,79,93,40
2,81,82,14
2,79,82,54
2,77,99,12
2,79,93,12
3,65,94,10484
3,69,89,2
3,60,94,0
3,62,94,154
3,65,94,0
3,70,94,0
3,65,94,82
3,64,89,2
3,72,94,0
3,70,89,128
3,65,79,0
3,62,94,0
3,67,89,2
3,65,79,0
3,61,69,0
3,69,74,170
3,60,74,0
3,65,89,0
3,74,94,6
3,77,94,2
3,76,66,10
3,73,66,0
3,57,69,18
3,75,83,0
3,72,46,0
3,74,94,116
3,70,94,0
3,65,83,0
3,58,83,4
3,62,94,0
3,64,79,160
3,65,94,6
3,57,62,4
3,65,94,2
3,67,83,152
3,69,83,28
3,55,74,26
3,67,79,0
3,70,83,0
3,57,74,158
3,58,94,82
3,65,89,2
3,69,94,12
3,70,83,82
3,77,94,80
3,60,52,24
3,64,66,0
3,67,74,0
3,62,83,2
3,64,79,80
3,72,89,160
3,74,83,6
3,76,69,80
3,84,83,80
3,65,89,152
3,60,74,0
3,67,83,0
3,60,79,10
3,67,94,2
3,65,89,318
3,62,94,112
3,58,89,0
3,70,94,200
3,74,94,18
3,65,83,0
3,62,83,0
3,67,83,6
3,70,89,0
3,65,79,0
3,70,94,160
3,63,83,2
3,67,79,0
3,69,89,14
3,60,79,2
3,65,83,0
3,67,83,8
3,64,83,2
3,60,83,0
3,62,94,8
3,70,89,2
3,65,79,0
3,64,79,12
3,67,83,0
3,72,94,0
3,69,79,14
3,65,89,0
3,60,79,0
3,65,89,46
3,60,74,14
3,69,79,4
3,65,89,0
3,69,94,132
3,65,83,2
3,60,63,10
3,70,94,16
3,62,89,2
3,65,79,0
3,65,69,10
3,62,66,0
3,69,79,14
3,65,89,2
3,60,79,0
3,67,94,14
3,58,79,0
3,62,89,2
3,62,55,76
3,69,79,76
3,65,89,0
3,60,69,42
3,72,94,56
3,69,83,30
3,70,94,10
3,67,79,0
3,63,94,0
3,63,89,48
3,62,89,8
3,70,89,0
3,65,89,0
3,64,79,10
3,60,79,2
3,67,89,0
3,69,83,14
3,60,83,2
3,65,89,0
3,69,83,38
3,65,94,2
3,60,58,0
3,69,89,14
3,65,94,0
3,69,83,8
3,65,83,0
3,60,66,38
3,65,89,112
3,62,83,0
3,70,94,0
3,62,74,10
3,65,74,0
3,69,83,42
3,60,83,0
3,67,83,14
3,67,69,6
3,70,89,2
3,62,89,0
3,72,89,278
3,65,94,0
3,69,94,158
3,65,79,32
3,60,79,8
3,69,89,26
3,61,89,0
3,64,79,0
3,64,79,128
3,61,79,2
3,67,83,0
3,65,74,6
3,69,69,0
3,62,79,0
3,70,83,102
3,60,69,24
3,65,83,0
3,69,66,2
3,65,83,12
3,62,74,0
3,64,79,62
3,65,83,0
3,65,79,230
3,62,74,0
3,65,83,150
3,61,74,0
3,69,69,12
3,65,79,2
3,60,58,302
3,65,94,162
3,69,52,0
3,60,55,70
3,69,66,20
3,65,69,0
3,60,52,76
3,70,79,4
3,65,69,2
3,62,58,38
3,70,83,100
3,65,63,0
3,62,79,6
3,70,83,2
3,65,83,0
3,61,66,4
3,70,83,60
3,65,69,0
3,61,66,154
3,69,71,10
3,65,79,0
3,60,63,12
3,69,66,16
3,65,69,0
3,62,89,14
3,70,79,0
3,72,94,68
3,64,49,0
3,65,52,14
3,64,52,22
3,65,79,10
3,70,83,12
3,62,83,0
3,65,74,14
3,62,69,30
3,65,74,30
3,70,83,18
3,61,66,2
3,65,55,20
3,61,58,4
3,73,79,126
3,72,94,40
3,67,83,0
3,69,74,160
3,65,66,136
3,69,69,78
3,72,58,8
3,67,55,0
3,64,49,0
3,60,58,50
3,64,69,140
3,67,94,4
3,70,74,6
3,62,69,0
3,65,63,0
3,62,38,8
3,65,83,30
3,70,69,18
3,70,74,6
3,61,52,0
3,65,55,0
3,61,40,18
3,65,74,160
3,69,69,34
3,67,55,36
3,60,63,44
3,65,79,2
3,69,66,0
3,69,69,68
3,65,66,2
3,69,69,170
3,65,79,2
3,72,89,8
3,69,58,0
3,63,89,0
3,70,89,126
3,65,74,0
3,62,58,0
3,65,74,96
3,62,52,0
3,62,94,4
3,64,89,6
3,65,89,80
3,65,91,4
3,67,79,2
3,69,69,16
3,67,79,22
3,70,94,0
3,69,89,52
3,70,74,80
3,77,69,80
3,67,74,200
3,64,69,0
3,62,69,148
3,74,79,14
3,76,58,78
3,84,83,80
3,60,74,20
3,65,83,0
3,69,66,0
3,72,79,32
3,60,69,0
3,65,79,0
3,65,83,4
3,60,69,0
3,62,79,0
3,70,89,10
3,65,83,0
3,60,79,2
3,69,79,2
3,67,94,52
3,65,79,0
3,70,94,0
3,60,69,2
3,65,83,2
3,69,69,0
3,60,79,6
3,67,89,0
3,64,74,0
3,70,94,10
3,65,79,2
3,62,89,0
3,64,79,12
3,72,89,2
3,67,89,0
3,65,79,12
3,69,66,2
3,72,94,0
3,65,83,138
3,67,66,44
3,60,79,14
3,65,89,0
3,69,79,0
3,65,89,20
3,65,83,2
3,70,94,2
3,62,79,0
3,62,69,24
3,65,89,4
3,69,66,16
3,65,83,2
3,60,74,0
3,67,94,24
3,67,89,130
3,58,69,0
3,62,89,2
3,65,83,14
3,60,79,0
3,69,79,0
3,65,38,74
3,77,94,126
3,72,74,66
3,67,74,130
3,70,89,0
3,75,94,0
3,67,69,66
3,70,74,6
3,74,94,0
3,65,69,0
3,67,74,150
3,72,83,0
3,64,66,2
3,69,74,164
3,65,74,0
3,60,66,2
3,69,74,126
3,65,79,0
3,60,69,0
3,69,66,12
3,65,66,0
3,60,74,0
3,69,69,98
3,65,83,0
3,60,74,0
3,62,79,6
3,70,83,0
3,65,74,0
3,62,79,102
3,65,74,0
3,70,74,2
3,65,83,94
3,70,83,2
3,62,74,0
3,69,66,140
3,60,79,0
3,70,74,0
3,65,74,0
3,70,89,20
3,62,83,0
3,67,66,0
3,70,83,96
3,67,79,0
3,65,83,10
3,72,89,2
3,69,69,0
3,65,74,70
3,77,89,44
3,69,69,0
3,72,66,34
3,65,58,0
3,71,94,5756
3,66,93,0
3,63,94,0
3,49,86,0
3,49,86,16
3,73,94,0
3,65,94,0
3,68,94,0
3,66,94,12
3,70,94,2
3,61,93,0
3,54,94,0
3,66,94,36
3,68,94,22
3,58,82,4
3,70,94,0
3,61,94,0
3,66,93,0
3,61,65,42
3,59,82,8
3,66,94,0
3,63,94,2
3,66,71,14
3,70,94,0
3,61,94,0
3,68,94,12
3,63,94,2
3,59,93,0
3,66,94,34
3,61,94,0
3,58,94,0
3,61,94,42
3,66,86,28
3,64,94,32
3,68,94,0
3,59,29,0
3,63,94,24
3,59,86,2
3,66,94,0
3,73,93,14
3,65,94,0
3,68,94,0
3,71,94,28
3,73,94,8
3,70,94,0
3,66,94,0
3,70,93,22
3,66,93,14
3,73,94,320
3,66,86,2
3,71,94,0
3,75,94,0
3,73,93,880
3,71,93,152
3,68,94,128
3,71,93,2
3,63,94,0
3,68,93,2
3,66,82,16
3,70,94,0
3,61,93,2
3,73,94,6
3,70,94,78
3,66,82,18
3,61,75,44
3,65,94,40
3,70,94,0
3,62,93,0
3,65,94,128
3,68,94,0
3,62,94,0
3,70,94,6
3,66,86,0
3,63,94,0
3,59,93,20
3,66,86,0
3,63,86,2
3,58,86,8
3,66,86,0
3,61,94,2
3,66,82,196
3,61,94,0
3,70,94,0
3,71,94,144
3,70,94,6
3,73,94,0
3,66,86,14
3,71,86,0
3,75,94,0
3,66,93,8
3,73,93,0
3,70,94,0
3,75,94,118
3,68,93,0
3,71,86,0
3,66,94,82
3,73,94,2
3,70,94,0
3,66,86,98
3,70,94,18
3,68,93,12
3,64,86,0
3,71,93,2
3,63,94,138
3,71,93,2
3,66,93,0
3,63,86,44
3,66,82,26
3,65,93,12
3,68,94,0
3,73,94,24
3,70,94,14
3,66,82,2
3,73,93,124
3,70,94,32
3,78,94,0
3,73,86,4
3,66,94,126
3,73,86,0
3,61,86,14
3,70,94,0
3,66,86,124
3,63,86,2
3,71,86,0
3,65,94,22
3,66,71,82
3,70,94,60
3,75,94,34
3,70,94,40
3,66,71,42
3,68,94,8
3,63,93,0
3,71,94,0
3,61,94,56
3,70,94,0
3,66,93,0
3,73,94,178
3,70,94,24
3,70,94,20
3,62,94,0
3,65,86,0
3,68,94,128
3,62,82,0
3,65,94,2
3,63,82,6
3,70,94,0
3,66,82,0
3,59,68,148
3,66,75,2
3,63,68,0
3,66,75,132
3,61,71,0
3,58,60,0
3,54,51,0
4,59,79,244
4,42,68,318
4,42,68,146
4,59,74,22
4,42,68,14
4,42,66,104
4,59,46,12
4,59,58,124
4,42,66,6
4,42,66,168
4,59,69,2
4,42,66,20
4,42,55,60
4,46,43,118
4,42,24,22
4,42,63,288
4,42,68,110
4,42,68,118
4,42,68,106
4,42,68,112
4,42,68,98
4,42,68,104
4,42,68,516
4,59,86,100
4,42,68,318
4,42,68,180
4,59,86,322
4,42,68,318
4,42,68,152
4,59,55,160
4,59,86,118
4,42,68,14
4,59,66,4
4,59,86,122
