track,note,velocity,time
1,55,120,480
1,69,120,0
1,59,120,0
1,62,120,0
1,43,120,0
1,62,0,1
1,59,0,0
1,69,0,1
1,71,120,0
1,55,0,39
1,43,0,0
1,71,0,1
1,55,120,0
1,71,120,0
1,62,120,0
1,59,120,0
1,43,120,0
1,59,0,59
1,62,0,0
1,71,0,1
1,69,120,0
1,59,120,0
1,59,0,42
1,43,0,0
1,55,0,0
1,69,0,1
1,43,120,0
1,53,120,0
1,74,120,0
1,69,120,0
1,59,120,0
1,62,120,0
1,69,0,19
1,71,120,1
1,71,0,9
1,71,120,1
1,71,0,18
1,69,120,1
1,69,0,1
1,43,0,0
1,59,0,1
1,53,0,0
1,62,0,0
1,74,0,0
1,43,120,0
1,53,120,0
1,71,120,0
1,62,120,0
1,59,120,0
1,71,0,29
1,79,120,1
1,74,120,0
1,74,0,17
1,62,0,0
1,59,0,0
1,79,0,0
1,62,120,1
1,62,0,5
1,43,0,0
1,53,0,0
1,71,120,1
1,66,120,0
1,52,120,0
1,60,120,0
1,55,120,0
1,36,120,0
1,66,0,22
1,67,120,1
1,60,0,2
1,52,0,0
1,64,120,1
1,55,0,11
1,60,120,0
1,52,120,0
1,52,0,59
1,60,0,0
1,64,0,1
1,71,0,0
1,67,0,0
1,55,120,0
1,55,0,11
1,36,0,0
1,67,120,1
1,62,120,0
1,55,120,0
1,60,120,0
1,48,120,0
1,36,120,0
1,62,0,29
1,64,120,1
1,48,0,12
1,60,0,0
1,55,0,0
1,60,120,1
1,62,120,60
1,55,120,0
1,60,120,0
1,48,120,0
1,52,120,0
1,62,0,29
1,64,120,1
1,64,0,29
1,52,0,0
1,60,0,0
1,55,0,0
1,67,120,1
1,55,120,0
1,60,120,0
1,67,0,29
1,69,120,1
1,69,0,28
1,60,0,0
1,36,0,0
1,55,0,0
1,60,0,1
1,48,0,0
1,67,0,0
1,64,0,0
1,43,120,0
1,69,120,0
1,62,120,0
1,55,120,0
1,59,120,0
1,59,0,59
1,62,0,0
1,55,0,0
1,69,0,1
1,71,120,0
1,43,0,35
1,71,0,1
1,71,120,0
1,55,120,0
1,62,120,0
1,59,120,0
1,43,120,0
1,59,0,57
1,62,0,0
1,55,0,0
1,71,0,1
1,69,120,0
1,59,120,0
1,69,0,22
1,59,0,30
1,43,0,0
1,43,120,1
1,74,120,0
1,69,120,0
1,53,120,0
1,59,120,0
1,62,120,0
1,69,0,27
1,71,120,1
1,71,0,16
1,74,0,1
1,71,120,0
1,71,0,18
1,69,120,1
1,69,0,13
1,43,0,0
1,53,0,1
1,62,0,0
1,59,0,0
1,71,120,0
1,53,120,0
1,62,120,0
1,59,120,0
1,43,120,0
1,71,0,28
1,74,120,1
1,79,120,0
1,59,0,23
1,53,0,0
1,62,0,0
1,62,120,1
1,79,0,27
1,74,0,0
1,43,0,5
1,62,0,0
1,69,120,1
1,74,120,0
1,52,120,0
1,60,120,0
1,55,120,0
1,36,120,0
1,69,0,29
1,71,120,1
1,71,0,2
1,52,0,0
1,60,0,0
1,74,0,1
1,72,120,0
1,67,120,0
1,67,0,7
1,72,0,0
1,55,0,31
1,72,120,0
1,67,120,0
1,60,120,0
1,52,120,0
1,52,0,59
1,60,0,0
1,67,0,1
1,64,120,0
1,55,120,0
1,72,0,30
1,36,0,11
1,55,0,0
1,64,0,1
1,72,120,0
1,67,120,0
1,55,120,0
1,60,120,0
1,48,120,0
1,36,120,0
1,48,0,12
1,60,0,0
1,55,0,0
1,72,0,31
1,67,0,0
1,60,120,0
1,60,0,9
1,67,120,1
1,62,120,0
1,55,120,0
1,60,120,0
1,48,120,0
1,52,120,0
1,62,0,29
1,64,120,1
1,60,0,27
1,55,0,0
1,52,0,0
1,60,120,1
1,55,120,0
1,60,120,0
1,60,0,29
1,67,0,1
1,64,0,0
1,55,0,3
1,36,0,0
1,60,0,0
1,48,0,1
1,43,120,0
1,67,120,0
1,62,120,0
1,59,120,0
1,55,120,0
1,55,0,54
1,62,0,0
1,59,0,0
1,67,0,0
1,50,120,0
1,50,0,60
1,62,120,0
1,59,120,0
1,67,120,0
1,55,120,0
1,55,0,60
1,59,0,0
1,67,0,0
1,62,0,0
1,50,120,0
1,43,0,59
1,50,0,1
1,43,120,0
1,55,120,0
1,59,120,0
1,66,120,0
1,62,120,0
1,62,0,9
1,59,0,0
1,66,0,0
1,55,0,0
1,50,120,0
1,50,0,60
1,62,120,0
1,65,120,0
1,59,120,0
1,55,120,0
1,55,0,38
1,65,0,0
1,59,0,0
1,62,0,0
1,50,120,0
1,43,0,59
1,50,0,1
1,36,120,0
1,59,120,0
1,55,120,0
1,64,120,0
1,60,120,0
1,67,120,0
1,48,120,59
1,55,0,35
1,52,120,0
1,60,0,60
1,59,0,0
1,55,120,0
1,36,0,59
1,59,120,1
1,64,120,0
1,60,120,0
1,55,120,0
1,36,120,0
1,48,120,0
1,59,0,29
1,64,0,31
1,60,120,0
1,48,0,60
1,60,0,0
1,36,0,0
1,55,0,0
1,64,0,0
1,67,0,0
1,64,120,0
1,64,0,60
1,55,0,0
1,48,0,0
1,52,0,0
1,60,0,0
1,67,120,0
1,67,0,10
1,36,120,0
1,63,120,0
1,60,120,0
1,67,120,0
1,69,120,0
1,48,120,0
1,48,0,29
1,48,120,31
1,51,120,60
1,55,120,1
1,63,0,30
1,67,0,0
1,60,0,0
1,69,0,0
1,36,0,8
1,63,120,1
1,55,120,0
1,60,120,0
1,43,120,0
1,60,0,29
1,63,0,0
1,55,0,0
1,57,120,1
1,63,120,0
1,60,120,0
1,60,0,1
1,57,0,0
1,63,0,0
1,57,120,1
1,60,120,0
1,63,120,0
1,63,0,29
1,57,0,0
1,60,0,0
1,60,120,1
1,59,120,0
1,63,120,0
1,63,0,11
1,60,0,0
1,43,0,0
1,59,0,0
1,59,120,1
1,60,120,0
1,63,120,0
1,36,120,0
1,63,0,5
1,59,0,0
1,60,0,0
1,63,120,1
1,60,120,0
1,57,120,0
1,57,0,20
1,63,0,0
1,60,0,0
1,63,120,1
1,60,120,0
1,57,120,0
1,57,0,7
1,63,0,0
1,60,0,0
1,55,0,1
1,48,0,0
1,51,0,0
1,63,120,0
1,60,120,0
1,55,120,0
1,55,0,29
1,36,0,0
1,63,0,0
1,60,0,0
1,43,120,1
1,55,120,0
1,67,120,0
1,59,120,0
1,62,120,0
1,62,0,39
1,67,0,0
1,59,0,0
1,31,120,0
1,55,0,30
1,31,0,30
1,55,120,0
1,59,120,0
1,62,120,0
1,67,120,0
1,67,0,60
1,59,0,0
1,62,0,0
1,55,0,0
1,50,120,0
1,43,0,30
1,50,0,2
1,55,120,0
1,59,120,0
1,62,120,0
1,66,120,0
1,66,0,28
1,55,0,0
1,59,0,0
1,62,0,0
1,43,120,0
1,66,120,60
1,55,120,0
1,59,120,0
1,62,120,0
1,62,120,0
1,62,0,60
1,66,0,0
1,55,0,0
1,59,0,0
1,62,0,0
1,50,120,0
1,64,120,0
1,50,0,29
1,64,0,7
1,43,0,0
1,65,120,0
1,43,120,0
1,55,120,0
1,59,120,0
1,62,120,0
1,65,120,0
1,65,0,40
1,59,0,0
1,55,0,0
1,62,0,0
1,50,120,0
1,50,0,29
1,65,120,9
1,55,120,0
1,62,120,0
1,59,120,0
1,59,0,40
1,55,0,0
1,65,0,0
1,62,0,0
1,50,120,0
1,50,0,4
1,43,0,0
1,65,0,0
1,43,120,0
1,55,120,0
1,59,120,0
1,62,120,0
1,66,120,0
1,66,0,20
1,59,0,0
1,62,0,0
1,55,0,0
1,50,120,0
1,50,0,29
1,55,120,3
1,65,120,0
1,62,120,0
1,59,120,0
1,59,0,12
1,65,0,0
1,62,0,0
1,55,0,0
1,50,120,0
1,50,0,29
1,43,0,10
1,36,120,0
1,59,120,0
1,55,120,0
1,64,120,0
1,60,120,0
1,67,120,0
1,48,120,59
1,55,0,35
1,52,120,0
1,60,0,60
1,59,0,0
1,55,120,0
1,36,0,60
1,74,120,0
1,71,120,0
1,36,120,0
1,67,120,0
1,60,120,0
1,59,120,0
1,64,120,0
1,71,0,29
1,69,120,1
1,69,0,29
1,64,0,1
1,60,0,0
1,67,0,0
1,59,0,0
1,64,0,0
1,67,120,0
1,48,120,0
1,67,0,25
1,74,0,1
1,67,0,30
1,72,120,0
1,67,120,0
1,55,120,0
1,55,0,60
1,48,0,0
1,55,0,0
1,52,0,0
1,48,0,0
1,36,0,0
1,59,120,0
1,59,0,15
1,67,0,0
1,72,0,0
1,36,120,0
1,63,120,0
1,60,120,0
1,67,120,0
1,69,120,0
1,48,120,0
1,48,0,29
1,48,120,31
1,51,120,60
1,55,120,1
1,63,0,30
1,67,0,0
1,60,0,0
1,69,0,0
1,36,0,8
1,63,120,1
1,55,120,0
1,60,120,0
1,43,120,0
1,60,0,29
1,63,0,0
1,55,0,0
1,57,120,1
1,63,120,0
1,60,120,0
1,60,0,1
1,57,0,0
1,63,0,0
1,57,120,1
1,60,120,0
1,63,120,0
1,63,0,29
1,57,0,0
1,60,0,0
1,60,120,1
1,59,120,0
1,63,120,0
1,63,0,11
1,60,0,0
1,43,0,0
1,59,0,0
1,59,120,1
1,60,120,0
1,63,120,0
1,36,120,0
1,63,0,5
1,59,0,0
1,60,0,0
1,63,120,1
1,60,120,0
1,57,120,0
1,57,0,20
1,63,0,0
1,60,0,0
1,63,120,1
1,60,120,0
1,57,120,0
1,57,0,7
1,63,0,0
1,60,0,0
1,55,0,1
1,48,0,0
1,51,0,0
1,63,120,0
1,60,120,0
1,55,120,0
1,55,0,29
1,36,0,0
1,63,0,0
1,60,0,0
1,55,120,1
1,67,120,0
1,59,120,0
1,62,120,0
1,62,0,39
1,59,0,0
1,67,0,0
1,43,120,0
1,55,0,30
1,55,120,30
1,59,120,0
1,62,120,0
1,67,120,0
1,67,0,60
1,59,0,0
1,62,0,0
1,55,0,0
1,50,120,0
1,50,0,2
1,55,121,0
1,59,121,0
1,62,121,0
1,66,121,0
1,43,0,30
1,62,0,28
1,55,0,0
1,59,0,0
1,66,0,0
1,43,121,0
1,66,121,60
1,55,121,0
1,59,121,0
1,62,121,0
1,62,121,0
1,62,0,60
1,66,0,0
1,55,0,0
1,43,0,0
1,62,0,0
1,59,0,0
1,50,121,0
1,64,121,0
1,50,0,29
1,64,0,7
1,50,121,0
1,38,121,0
1,50,121,0
1,69,121,0
1,60,121,0
1,62,121,0
1,65,121,0
1,38,0,2
1,50,0,0
1,50,121,0
1,50,0,29
1,47,121,1
1,47,0,29
1,45,121,1
1,45,0,12
1,65,0,0
1,60,0,0
1,69,0,0
1,50,0,0
1,62,0,0
1,43,121,0
1,55,121,0
1,59,121,0
1,62,121,0
1,67,121,0
1,55,0,60
1,43,0,0
1,31,121,0
1,31,0,7
1,38,121,0
1,38,0,6
1,43,121,0
1,62,0,59
1,67,0,0
1,59,0,0
1,43,0,1
1,59,121,0
1,60,121,0
1,48,121,0
1,67,121,0
1,64,121,0
1,64,0,16
1,48,0,0
1,59,0,0
1,60,0,0
1,67,0,0
1,36,121,0
1,67,121,21
1,60,121,0
1,59,121,0
1,48,121,0
1,64,121,0
1,59,121,0
1,64,121,0
1,64,0,54
1,59,0,2
1,48,0,3
1,67,0,0
1,60,0,0
1,59,0,0
1,64,0,0
1,43,121,0
1,57,121,0
1,64,121,0
1,55,121,28
1,57,0,2
1,64,0,1
1,36,0,8
1,43,0,0
1,48,121,0
1,60,121,0
1,67,121,0
1,64,121,0
1,59,121,0
1,59,0,15
1,48,0,0
1,60,0,0
1,55,0,0
1,64,0,0
1,67,0,0
1,36,121,0
1,52,121,0
1,52,0,4
1,36,0,4
1,67,121,0
1,64,121,0
1,60,121,0
1,59,121,0
1,48,121,0
1,55,121,0
1,57,121,18
1,64,121,0
1,55,0,1
1,59,0,29
1,67,0,0
1,64,0,0
1,60,0,0
1,48,0,0
1,36,121,0
1,57,0,37
1,64,0,1
1,36,0,13
1,47,121,0
1,57,121,0
1,66,121,0
1,59,121,0
1,62,121,0
1,47,121,60
1,35,121,60
1,50,121,0
1,47,0,1
1,50,0,54
1,54,121,5
1,45,121,40
1,57,121,0
1,57,0,9
1,45,0,0
1,58,121,1
1,46,121,0
1,66,121,6
1,46,0,3
1,58,0,0
1,47,0,0
1,59,0,0
1,62,0,0
1,57,0,0
1,66,0,0
1,35,0,0
1,54,0,1
1,59,121,0
1,47,121,0
1,62,121,0
1,66,0,56
1,62,0,4
1,35,121,0
1,59,0,37
1,35,0,13
1,47,0,0
1,45,121,1
1,59,121,0
1,66,121,0
1,62,121,0
1,33,121,7
1,33,0,32
1,45,0,0
1,59,0,1
1,66,0,0
1,62,0,0
1,52,121,0
1,71,121,0
1,64,121,0
1,67,121,0
1,40,121,0
1,40,121,46
1,40,0,60
1,52,0,0
1,47,121,0
1,67,0,60
1,71,0,0
1,64,0,0
1,52,121,0
1,52,0,29
1,40,0,1
1,47,0,0
1,63,121,30
1,71,121,0
1,67,121,0
1,51,121,0
1,51,0,39
1,63,0,0
1,71,0,0
1,67,0,0
1,47,121,0
1,47,0,9
1,50,121,0
1,62,121,0
1,71,121,0
1,67,121,0
1,67,0,22
1,50,0,0
1,62,0,0
1,71,0,0
1,50,121,1
1,50,0,29
1,55,121,1
1,55,0,29
1,59,121,1
1,59,0,9
1,45,121,0
1,55,121,0
1,57,121,0
1,64,121,0
1,61,121,0
1,45,0,60
1,33,121,0
1,64,0,19
1,61,0,0
1,55,0,0
1,57,0,0
1,45,121,0
1,64,121,0
1,61,121,0
1,61,0,29
1,64,0,0
1,62,121,2
1,66,121,0
1,66,0,17
1,62,0,0
1,45,121,8
1,67,121,0
1,64,121,0
1,64,0,3
1,67,0,0
1,62,121,1
1,66,121,0
1,66,0,24
1,62,0,0
1,64,121,1
1,61,121,0
1,61,0,29
1,64,0,0
1,45,0,9
1,33,121,1
1,61,121,0
1,64,121,0
1,33,0,59
1,45,0,0
1,45,121,1
1,33,0,30
1,45,0,23
1,64,0,1
1,61,0,0
1,43,121,0
1,67,121,0
1,62,121,0
1,59,121,0
1,55,121,0
1,55,0,54
1,62,0,0
1,59,0,0
1,67,0,0
1,50,121,0
1,50,0,60
1,62,121,0
1,59,121,0
1,67,121,0
1,55,121,0
1,55,0,60
1,59,0,0
1,67,0,0
1,62,0,0
1,50,121,0
1,43,0,59
1,50,0,1
1,43,121,0
1,55,121,0
1,59,121,0
1,66,121,0
1,62,121,0
1,62,0,9
1,59,0,0
1,43,0,0
1,55,0,0
1,66,0,0
1,50,121,0
1,50,0,60
1,62,121,0
1,65,121,0
1,59,121,0
1,55,121,0
1,55,0,56
1,62,0,0
1,65,0,0
1,59,0,0
1,50,121,0
1,33,121,0
1,33,0,29
1,50,0,0
1,35,121,1
1,35,0,29
1,48,121,1
1,60,121,0
1,59,121,0
1,67,121,0
1,64,121,0
1,36,121,0
1,36,121,60
1,36,0,60
1,48,0,0
1,43,121,0
1,43,0,35
1,36,0,0
1,67,0,0
1,60,0,0
1,59,0,0
1,64,0,0
1,48,121,0
1,48,0,29
1,71,121,1
1,48,121,0
1,67,121,0
1,60,121,0
1,69,121,0
1,63,121,0
1,71,0,29
1,69,121,1
1,69,0,29
1,48,0,1
1,48,121,0
1,69,121,0
1,69,0,29
1,67,121,1
1,67,0,29
1,51,121,1
1,67,121,0
1,67,0,1
1,63,121,1
1,63,0,29
1,63,121,1
1,55,121,0
1,63,0,30
1,69,0,0
1,48,0,0
1,63,0,0
1,67,0,0
1,60,0,0
1,51,0,0
1,60,121,0
1,60,0,29
1,55,0,1
1,55,121,0
1,67,121,0
1,59,121,0
1,62,121,0
1,62,0,39
1,59,0,0
1,67,0,0
1,43,121,0
1,55,0,30
1,55,121,30
1,59,121,0
1,62,121,0
1,67,121,0
1,67,0,60
1,59,0,0
1,62,0,0
1,55,0,0
1,50,121,0
1,50,0,2
1,55,121,0
1,59,121,0
1,62,121,0
1,66,121,0
1,43,0,30
1,62,0,28
1,55,0,0
