track,note,velocity,time
1,38,64,2672
1,53,60,0
1,62,82,4
1,57,91,2
1,58,82,36
1,46,64,4
1,38,64,32
1,53,60,0
1,62,82,4
1,57,91,2
1,58,82,36
1,46,64,4
1,62,74,32
1,69,73,4
1,65,74,0
1,69,64,50
1,64,82,2
1,60,73,0
1,65,73,4
1,56,73,24
1,65,73,2
1,62,78,0
1,61,82,44
1,64,73,2
1,55,72,4
1,62,74,32
1,69,73,4
1,65,74,0
1,69,64,50
1,65,52,2
1,64,82,0
1,60,73,0
1,56,73,24
1,65,73,2
1,62,78,0
1,61,82,22
1,64,73,2
1,55,72,4
1,62,74,32
1,69,73,4
1,65,74,0
1,69,64,42
1,60,73,2
1,64,82,0
1,65,73,4
1,62,82,64
1,67,73,0
1,59,73,2
1,65,64,52
1,56,73,2
1,62,82,0
1,61,82,44
1,64,73,2
1,55,72,4
1,62,74,32
1,69,73,4
1,65,74,0
1,69,64,42
1,60,73,2
1,64,82,0
1,65,73,4
1,60,73,56
1,69,68,4
1,65,75,0
1,64,70,0
1,62,82,8
1,67,73,0
1,59,73,2
1,65,64,52
1,56,73,2
1,62,82,0
1,55,70,42
1,64,76,4
1,61,76,0
1,64,64,42
1,55,73,2
1,61,82,0
1,60,67,62
1,62,82,2
1,65,73,0
1,57,73,2
1,66,64,52
1,57,73,2
1,62,82,0
1,60,82,4
1,62,82,60
1,63,60,98
1,62,64,78
1,63,73,100
1,62,81,78
1,63,64,90
1,62,69,72
1,63,73,86
1,62,81,2
1,63,81,96
1,62,84,10
1,64,73,6344
1,59,73,2
1,55,64,0
1,59,82,150
1,64,64,0
1,55,73,2
1,64,73,176
1,57,73,4
1,61,64,2
1,64,73,156
1,61,64,0
1,57,60,2
1,64,74,154
1,55,73,4
1,59,63,0
1,59,72,148
1,55,73,0
1,64,74,0
1,64,73,158
1,57,64,6
1,61,64,2
1,61,73,148
1,64,82,2
1,57,64,0
1,64,73,196
1,59,73,2
1,55,64,0
1,59,82,150
1,64,64,0
1,55,73,2
1,64,73,176
1,57,73,4
1,61,64,2
1,64,73,156
1,61,64,0
1,57,60,2
1,64,74,154
1,55,73,4
1,59,63,0
1,59,72,148
1,55,73,0
1,64,74,0
1,64,73,158
1,57,64,6
1,61,64,2
1,61,73,148
1,64,82,2
1,57,64,0
1,62,74,8
1,69,73,4
1,65,74,0
1,69,64,50
1,65,52,2
1,64,82,0
1,60,73,0
1,56,73,24
1,65,73,2
1,62,78,0
1,61,82,22
1,64,73,2
1,55,72,4
1,62,74,32
1,69,73,4
1,65,74,0
1,69,64,42
1,60,73,2
1,64,82,0
1,65,73,4
1,62,82,64
1,67,73,0
1,59,73,2
1,65,64,52
1,68,81,2
1,62,82,0
1,62,73,32
1,67,82,0
1,65,73,6
1,62,73,38
1,62,74,146
1,69,73,4
1,65,74,0
1,69,69,40
1,64,74,0
1,65,67,2
1,60,73,0
1,69,63,142
1,65,77,2
1,60,73,0
1,64,73,2
1,69,64,154
1,64,73,4
1,60,73,2
1,65,73,4
1,62,82,54
1,67,73,0
1,59,73,2
1,68,73,54
1,58,73,0
1,62,82,0
1,67,64,96
1,68,60,12
1,67,73,100
1,65,82,10
1,62,64,92
1,55,70,14
1,64,76,4
1,61,76,0
1,64,64,42
1,55,73,2
1,61,82,0
1,60,67,62
1,62,82,2
1,65,73,0
1,57,73,2
1,66,64,52
1,57,73,2
1,62,82,0
1,60,82,4
1,62,82,60
1,63,60,98
1,62,64,78
1,63,73,100
1,62,81,78
1,63,64,90
1,62,69,72
1,63,73,86
1,62,81,2
1,63,81,96
1,62,84,10
1,64,73,6344
1,59,73,2
1,55,64,0
1,59,82,150
1,64,64,0
1,55,73,2
1,64,73,176
1,57,73,4
1,61,64,2
1,64,73,156
1,61,64,0
1,57,60,2
1,64,74,154
1,55,73,4
1,59,63,0
1,59,72,148
1,55,73,0
1,64,74,0
1,64,73,158
1,57,64,6
1,61,64,2
1,61,73,148
1,64,82,2
1,57,64,0
1,64,73,196
1,59,73,2
1,55,64,0
1,59,82,150
1,64,64,0
1,55,73,2
1,64,73,176
1,57,73,4
1,61,64,2
1,64,73,156
1,61,64,0
1,57,60,2
1,64,74,154
1,55,73,4
1,59,63,0
1,59,72,148
1,55,73,0
1,64,74,0
1,64,73,158
1,57,64,6
1,61,64,2
1,61,73,148
1,64,82,2
1,57,64,0
1,62,74,8
1,69,73,4
1,65,74,0
1,69,64,50
1,64,82,2
1,60,73,0
1,65,73,4
1,56,73,24
1,65,73,2
1,62,78,0
1,61,82,44
1,64,73,2
1,55,72,4
1,62,74,32
1,69,73,4
1,65,74,0
1,69,64,50
1,65,52,2
1,64,82,0
1,60,73,0
1,56,73,24
1,65,73,2
1,62,78,0
1,61,82,22
1,64,73,2
1,55,72,4
1,67,74,32
1,74,73,4
1,70,74,0
1,74,64,42
1,65,73,2
1,69,82,0
1,70,73,4
1,70,75,62
1,67,82,2
1,74,73,0
1,64,73,2
1,70,64,52
1,72,81,2
1,67,82,0
1,63,56,4
1,70,82,34
1,67,77,0
1,73,73,0
1,62,56,2
1,67,74,26
1,74,73,4
1,70,74,0
1,74,64,42
1,65,73,2
1,69,82,0
1,70,73,4
1,70,75,62
1,67,82,2
1,74,73,0
1,64,73,2
1,70,64,52
1,72,81,2
1,67,82,0
1,61,56,4
1,73,73,56
1,62,74,26
1,69,73,4
1,65,74,0
1,69,64,42
1,60,73,2
1,64,82,0
1,65,73,4
1,59,73,60
1,65,64,2
1,62,82,0
1,69,73,0
1,65,64,54
1,67,81,2
1,62,82,0
1,68,78,32
1,62,75,2
1,65,68,0
1,62,74,18
1,69,73,4
1,65,74,0
1,69,64,42
1,60,73,2
1,64,82,0
1,65,73,4
1,59,73,60
1,65,64,2
1,62,82,0
1,69,73,0
1,62,74,54
1,67,81,2
1,58,72,0
1,68,78,32
1,58,73,2
1,62,78,0
1,57,70,18
1,64,76,4
1,61,76,0
1,64,64,42
1,55,73,2
1,61,82,0
1,60,67,62
1,62,82,2
1,65,73,0
1,57,73,2
1,66,64,52
1,57,73,2
1,62,82,0
1,60,82,4
1,62,82,60
1,63,60,98
1,62,64,78
1,63,73,100
1,62,81,78
1,63,64,90
1,62,69,72
1,63,73,86
1,62,81,2
1,63,81,96
1,62,84,10
1,64,73,6344
1,59,73,2
1,55,64,0
1,59,82,150
1,64,64,0
1,55,73,2
1,64,73,176
1,57,73,4
1,61,64,2
1,64,73,156
1,61,64,0
1,57,60,2
1,64,74,154
1,55,73,4
1,59,63,0
1,59,72,148
1,55,73,0
1,64,74,0
1,64,73,158
1,57,64,6
1,61,64,2
1,61,73,148
1,64,82,2
1,57,64,0
1,64,73,196
1,59,73,2
1,55,64,0
1,59,82,150
1,64,64,0
1,55,73,2
1,64,73,176
1,57,73,4
1,61,64,2
1,64,73,156
1,61,64,0
1,57,60,2
1,64,74,154
1,55,73,4
1,59,63,0
1,59,72,148
1,55,73,0
1,64,74,0
1,64,73,158
1,57,64,6
1,61,64,2
1,61,73,148
1,64,82,2
1,57,64,0
1,61,73,198
1,69,82,2
1,66,64,2
1,61,64,150
1,69,73,0
1,66,73,0
1,61,60,24
1,69,72,2
1,66,82,2
1,71,73,328
1,63,64,2
1,66,73,0
1,71,64,154
1,63,73,0
1,66,73,2
1,71,76,138
1,66,64,0
1,63,64,2
1,61,73,336
1,69,82,2
1,66,64,2
1,61,64,150
1,69,73,0
1,66,73,0
1,61,60,24
1,69,72,2
1,66,82,2
1,71,73,328
1,63,64,2
1,66,73,0
1,71,64,154
1,63,73,0
1,66,73,2
1,71,76,138
1,66,64,0
1,63,64,2
1,61,73,336
1,69,82,2
1,66,64,2
1,61,64,150
1,69,73,0
1,66,73,0
1,61,60,24
1,69,72,2
1,66,82,2
1,71,73,328
1,63,64,2
1,66,73,0
1,71,64,154
1,63,73,0
1,66,73,2
1,71,76,138
1,66,64,0
1,63,64,2
1,61,73,336
1,69,82,2
1,66,64,2
1,61,64,150
1,69,73,0
1,66,73,0
1,61,60,24
1,69,72,2
1,66,82,2
1,71,73,328
1,63,64,2
1,66,73,0
1,71,64,154
1,63,73,0
1,66,73,2
1,71,76,138
1,67,64,0
1,63,64,2
1,64,74,146
1,71,73,4
1,67,74,0
1,71,64,42
1,62,73,2
1,66,82,0
1,67,73,4
1,61,73,60
1,67,64,2
1,64,82,0
1,69,73,0
1,67,64,54
1,58,71,2
1,64,82,0
1,57,68,32
1,63,75,2
1,66,68,0
1,64,74,18
1,71,73,4
1,67,74,0
1,71,64,42
1,62,73,2
1,66,82,0
1,67,73,4
1,61,73,60
1,67,64,2
1,64,82,0
1,69,73,0
1,67,64,54
1,58,71,2
1,64,82,0
1,57,68,32
1,63,75,2
1,66,68,0
1,64,74,18
1,71,73,4
1,67,74,0
1,71,64,42
1,62,73,2
1,66,82,0
1,67,73,4
1,61,73,60
1,67,64,2
1,64,82,0
1,69,73,0
1,67,64,54
1,58,71,2
1,64,82,0
1,57,68,32
1,63,75,2
1,66,68,0
1,64,74,18
1,71,73,4
1,67,74,0
1,71,64,42
1,62,73,2
1,66,82,0
1,67,73,4
1,61,73,60
1,67,64,2
1,64,82,0
1,69,73,0
1,67,64,54
1,58,71,2
1,64,82,0
1,57,68,32
1,63,75,2
1,66,68,0
1,64,74,18
1,71,73,4
1,67,74,0
1,71,64,42
1,62,73,2
1,66,82,0
1,67,73,4
1,61,73,60
1,67,64,2
1,64,82,0
1,69,73,0
1,67,64,54
1,58,71,2
1,64,82,0
1,57,68,32
1,63,75,2
1,66,68,0
1,64,74,18
1,71,73,4
1,67,74,0
1,71,64,14
1,62,73,2
1,66,82,0
1,67,73,4
1,61,73,56
1,67,64,2
1,64,82,0
1,69,73,0
1,67,64,18
1,58,71,2
1,64,82,0
1,57,68,32
1,63,75,2
1,66,68,0
1,64,74,18
1,71,73,4
1,67,74,0
1,71,64,38
1,62,73,2
1,66,82,0
1,67,73,4
1,61,73,60
1,67,64,2
1,64,82,0
1,69,73,0
1,67,64,54
1,58,71,2
1,64,82,0
1,57,68,32
1,63,75,2
1,66,68,0
1,64,74,18
1,71,73,4
1,67,74,0
1,71,64,42
1,62,73,2
1,66,82,0
1,67,73,4
1,61,73,14
1,67,64,2
1,64,82,0
1,69,73,0
1,67,64,54
1,58,71,2
1,64,82,0
1,57,68,32
1,63,75,2
1,66,68,0
1,64,74,18
1,71,73,4
1,67,74,0
1,71,64,32
1,62,73,2
1,66,82,0
1,67,73,4
1,61,73,16
1,67,64,2
1,64,82,0
1,69,73,0
1,67,64,54
1,58,71,2
1,64,82,0
1,57,68,32
1,63,75,2
1,66,68,0
1,64,74,18
1,71,73,4
1,67,74,0
1,71,64,42
1,62,73,2
1,66,82,0
1,67,73,4
1,61,73,60
1,67,64,0
1,64,82,0
1,69,73,0
1,67,64,54
1,58,71,2
1,64,82,0
1,57,68,32
1,63,75,2
1,66,68,0
2,38,91,8796
2,36,91,54
2,34,91,24
2,33,91,58
2,38,91,56
2,36,91,54
2,34,91,24
2,35,77,576
2,36,69,0
2,37,66,22
2,39,66,12
2,40,81,8
2,41,84,10
2,42,87,6
2,43,89,6
2,44,93,4
2,45,100,6
2,43,49,58
2,41,49,4
2,40,52,10
2,38,52,8
2,36,58,10
2,37,69,36
2,38,66,10
2,40,66,12
2,41,81,8
2,42,84,10
2,43,87,6
2,44,89,6
2,45,93,4
2,46,100,6
2,45,49,58
2,44,49,4
2,43,52,10
2,42,52,8
2,41,58,10
2,40,58,22
2,39,58,40
2,38,58,26
2,37,52,22
2,36,52,8
2,35,58,10
2,38,91,6
2,38,91,70
2,38,61,28
2,38,91,76
2,36,91,50
2,36,91,66
2,36,55,26
2,36,91,76
2,35,91,50
2,35,91,64
2,35,55,36
2,35,91,76
2,34,91,50
2,34,91,68
2,33,91,20
2,33,91,32
2,38,91,20
2,38,91,70
2,38,61,28
2,38,91,76
2,36,91,50
2,36,91,66
2,36,55,26
2,36,91,76
2,35,91,50
2,35,91,64
2,35,55,36
2,35,91,76
2,34,91,50
2,34,91,68
2,34,91,20
2,41,91,32
2,43,82,44
2,45,91,44
2,45,91,70
2,45,91,28
2,43,91,38
2,43,82,40
2,43,91,38
2,43,82,36
2,41,91,22
2,41,82,40
2,41,91,38
2,41,82,36
2,42,91,22
2,42,82,40
2,42,91,38
2,38,91,36
2,37,64,56
2,36,49,28
2,35,49,14
2,34,64,40
2,30,91,6
2,30,91,24
2,42,91,20
2,41,64,82
2,40,64,34
2,39,40,2
2,38,61,16
2,31,91,10
2,31,82,196
2,35,91,36
2,38,91,28
2,36,91,214
2,40,91,22
2,43,91,44
2,40,82,244
2,31,82,56
2,35,91,36
2,38,91,28
2,36,82,310
2,45,91,4
2,43,91,44
2,40,82,208
2,31,82,56
2,35,91,36
2,38,91,28
2,36,91,214
2,40,91,22
2,43,91,44
2,31,82,244
2,35,91,172
2,38,91,28
2,36,91,214
2,45,91,4
2,43,91,44
2,35,91,16
2,40,82,40
2,40,100,38
2,39,56,208
2,38,65,14
2,37,60,24
2,35,52,2
2,33,91,44
2,35,64,56
2,37,91,78
2,35,82,4
2,40,91,4
2,40,82,204
2,40,100,38
2,39,56,208
2,38,65,14
2,37,60,24
2,35,52,2
2,33,91,44
2,35,64,56
2,37,91,78
2,35,82,4
2,40,91,4
2,40,82,204
2,40,100,38
2,39,56,208
2,38,65,14
2,37,60,24
2,35,52,2
2,33,91,44
2,35,64,56
2,37,91,78
2,35,82,4
2,40,91,4
2,40,82,204
2,40,100,38
2,39,56,208
2,38,65,14
2,37,60,24
2,35,52,2
2,33,91,44
2,35,64,56
2,37,91,78
2,35,82,4
2,40,91,4
2,38,91,12
2,36,91,54
2,34,91,24
2,33,91,62
2,38,91,38
2,38,91,70
2,38,61,28
2,38,91,76
2,36,91,50
2,36,91,66
2,36,55,26
2,36,91,76
2,35,91,50
2,35,91,64
2,35,55,36
2,35,91,76
2,34,91,50
2,34,91,68
2,33,91,20
2,33,91,32
2,38,91,20
2,38,91,70
2,38,61,28
2,38,91,76
2,36,91,50
2,36,91,66
2,36,55,26
2,36,91,76
2,35,91,50
2,35,91,64
2,35,55,36
2,35,91,76
2,34,91,50
2,34,91,68
2,33,91,20
2,41,91,32
2,43,82,44
2,45,91,28
2,45,91,70
2,45,91,28
2,43,91,38
2,43,82,40
2,43,91,38
2,43,82,36
2,41,91,22
2,41,82,40
2,41,91,38
2,41,82,36
2,42,91,22
2,42,82,40
2,42,91,38
2,42,91,36
2,42,91,40
2,42,91,50
2,31,82,256
2,35,91,38
2,38,91,28
2,36,91,214
2,40,91,22
2,43,91,44
2,31,82,340
2,35,91,36
2,38,91,28
2,36,82,214
2,45,91,4
2,43,91,44
2,31,64,112
2,31,87,28
2,35,91,162
2,38,91,28
2,36,91,214
2,36,75,76
2,40,91,22
2,43,91,44
2,31,82,244
2,35,91,32
2,38,91,28
2,36,91,214
2,40,91,30
2,43,93,34
2,45,75,66
2,35,91,8
2,40,82,40
2,40,100,38
2,39,56,208
2,38,65,14
2,37,60,24
2,35,52,2
2,33,91,44
2,35,64,56
2,37,91,78
2,35,82,4
2,40,91,4
2,40,82,204
2,40,100,38
2,39,56,208
2,38,65,14
2,37,60,24
2,35,52,2
2,33,91,44
2,35,64,56
2,37,91,78
2,35,82,4
2,40,91,4
2,40,82,204
2,40,100,38
2,39,56,208
2,38,65,14
2,37,60,24
2,35,52,2
2,33,91,44
2,35,64,56
2,37,91,78
2,35,82,4
2,40,91,4
2,40,82,204
2,40,100,38
2,39,56,208
2,38,65,14
2,37,60,24
2,35,52,2
2,33,91,44
2,35,64,56
2,37,91,78
2,35,82,4
2,40,91,4
2,38,91,12
2,36,91,54
2,34,91,24
2,33,91,62
2,38,91,44
2,36,91,54
2,34,91,24
2,33,91,62
2,43,91,44
2,43,91,70
2,43,61,28
2,43,90,76
2,41,91,12
2,41,82,44
2,41,70,32
2,41,91,56
2,41,55,26
2,41,91,76
