track,note,velocity,time
0,35,118,1340
0,44,90,0
0,49,101,0
0,54,110,0
0,42,79,132
0,38,116,188
0,42,79,0
0,54,88,0
0,42,77,188
0,35,117,188
0,44,90,0
0,54,97,0
0,42,79,188
0,38,115,188
0,42,80,0
0,54,89,0
0,35,119,188
0,42,78,0
0,44,88,188
0,54,110,0
0,35,119,188
0,42,79,0
0,38,117,188
0,42,80,0
0,54,87,0
0,35,118,188
0,42,80,0
0,35,119,84
0,44,88,0
0,54,98,0
0,42,79,188
0,38,115,188
0,42,79,0
0,54,85,0
0,42,79,188
0,35,119,188
0,44,88,0
0,54,111,0
0,42,80,188
0,38,117,188
0,42,79,0
0,54,89,0
0,42,80,188
0,35,118,188
0,44,87,0
0,54,98,0
0,42,79,188
0,38,118,188
0,42,76,0
0,54,85,0
0,35,116,188
0,42,80,0
0,44,90,188
0,54,108,0
0,35,116,132
0,42,77,0
0,38,116,188
0,42,79,0
0,54,87,0
0,35,115,188
0,42,80,0
0,35,115,188
0,44,90,0
0,54,99,0
0,42,78,188
0,38,116,188
0,42,76,0
0,54,87,0
0,42,80,188
0,35,116,188
0,44,89,0
0,54,109,0
0,42,76,188
0,38,115,188
0,42,76,0
0,54,86,0
0,42,80,120
0,35,115,188
0,44,89,0
0,54,98,0
0,42,78,188
0,38,119,188
0,42,78,0
0,54,89,0
0,35,119,188
0,42,78,0
0,44,91,188
0,54,107,0
0,35,115,188
0,42,79,0
0,38,118,188
0,42,77,0
0,54,89,0
0,35,118,188
0,42,80,0
0,35,117,188
0,44,91,0
0,54,99,0
0,42,80,188
0,38,116,188
0,42,80,0
0,54,88,0
0,42,80,188
0,35,115,188
0,44,87,0
0,54,111,0
0,42,78,188
0,38,119,188
0,42,77,0
0,54,86,0
0,42,78,188
0,35,116,188
0,44,89,0
0,54,96,0
0,42,77,188
0,38,119,188
0,42,78,0
0,54,85,0
0,35,117,188
0,42,80,0
0,44,90,188
0,54,111,0
0,35,117,188
0,42,79,0
0,38,115,188
0,42,79,0
0,54,86,0
0,35,119,188
0,42,77,0
0,35,116,188
0,44,88,0
0,54,100,0
0,38,115,188
0,42,76,0
0,38,115,188
0,42,79,0
0,54,85,0
0,42,79,188
0,35,119,188
0,44,87,0
0,49,97,0
0,54,108,0
0,62,97,0
0,58,98,0
0,53,101,0
0,34,117,0
0,65,85,0
0,70,85,0
0,74,85,0
0,77,87,0
0,42,77,22
0,38,115,188
0,42,76,0
0,54,89,0
0,34,115,0
0,65,74,0
0,70,74,0
0,74,77,0
0,77,76,0
0,42,78,20
0,35,116,188
0,44,90,0
0,54,97,0
0,34,117,0
0,82,126,0
0,70,119,0
0,65,87,0
0,70,89,0
0,74,88,0
0,77,87,0
0,82,118,0
0,70,120,0
0,42,78,4
0,38,116,15
0,42,76,0
0,54,88,0
0,35,116,16
0,42,78,0
0,63,100,0
0,58,100,0
0,55,101,0
0,39,118,0
0,67,76,0
0,70,75,0
0,77,74,0
0,44,91,28
0,54,109,0
0,35,116,188
0,42,78,0
0,39,118,0
0,67,89,0
0,70,88,0
0,77,86,0
0,38,116,42
0,42,76,0
0,54,86,0
0,79,119,0
0,67,99,0
0,79,119,0
0,67,118,0
0,35,117,19
0,42,80,0
0,39,117,0
0,67,74,0
0,70,75,0
0,77,78,0
0,79,119,44
0,67,99,0
0,79,118,16
0,67,121,0
0,35,118,51
0,44,90,0
0,54,99,0
0,39,115,0
0,79,119,0
0,67,99,0
0,67,74,0
0,70,74,0
0,77,77,0
0,79,121,0
0,67,118,0
0,42,76,9
0,67,76,0
0,70,77,0
0,77,76,0
0,79,119,44
0,67,99,0
0,79,118,16
0,67,120,0
0,38,119,41
0,42,80,0
0,54,85,0
0,67,74,0
0,70,75,0
0,77,78,0
0,42,76,56
0,67,75,0
0,70,77,0
0,77,76,0
0,81,119,44
0,69,99,0
0,81,121,16
0,69,117,0
0,35,117,11
0,44,88,0
0,54,108,0
0,65,101,0
0,60,99,0
0,57,100,0
0,41,117,0
0,69,86,0
0,72,88,0
0,77,89,0
0,42,77,56
0,81,119,44
0,69,99,0
0,81,119,16
0,69,117,0
0,38,119,128
0,42,80,0
0,54,89,0
0,41,118,0
0,69,74,0
0,72,76,0
0,77,76,0
0,42,78,56
0,81,119,44
0,69,99,0
0,81,120,16
0,69,119,0
0,35,117,51
0,44,91,0
0,54,100,0
0,41,118,0
0,81,119,0
0,69,99,0
0,69,89,0
0,72,89,0
0,77,87,0
0,81,120,0
0,69,121,0
0,42,78,188
0,38,119,9
0,42,78,0
0,54,85,0
0,80,119,0
0,68,99,0
0,80,118,0
0,68,120,0
0,35,118,16
0,42,76,0
0,63,98,0
0,58,100,0
0,55,100,0
0,39,117,0
0,67,74,0
0,70,75,0
0,77,77,0
0,79,119,44
0,67,99,0
0,79,119,16
0,67,118,0
0,44,90,44
0,54,109,0
0,35,119,91
0,42,76,0
0,39,117,0
0,67,87,0
0,70,87,0
0,77,88,0
0,38,119,46
0,42,76,0
0,54,89,0
0,35,115,188
0,42,77,0
0,39,115,0
0,67,77,0
0,70,76,0
0,77,77,0
0,35,116,56
0,44,88,0
0,54,97,0
0,39,117,0
0,67,78,0
0,70,77,0
0,77,78,0
0,42,76,56
0,67,76,0
0,70,77,0
0,77,77,0
0,38,116,18
0,42,78,0
0,54,85,0
0,41,115,0
0,67,85,0
0,70,85,0
0,77,89,0
0,42,79,188
0,35,116,16
0,44,88,0
0,49,100,0
0,54,109,0
0,62,101,0
0,58,99,0
0,53,99,0
0,34,116,0
0,65,87,0
0,70,87,0
0,74,86,0
0,77,89,0
0,42,80,22
0,38,116,188
0,42,76,0
0,54,85,0
0,34,116,0
0,65,77,0
0,70,78,0
0,74,74,0
0,77,77,0
0,42,76,20
0,35,116,188
0,44,88,0
0,54,96,0
0,34,118,0
0,82,126,0
0,70,119,0
0,65,88,0
0,70,89,0
0,74,85,0
0,77,88,0
0,82,118,0
0,70,117,0
0,42,78,49
0,38,119,11
0,42,76,0
0,54,85,0
0,35,117,16
0,42,79,0
0,63,97,0
0,58,100,0
0,55,101,0
0,39,114,0
0,67,75,0
0,70,76,0
0,77,75,0
0,44,90,28
0,54,107,0
0,35,117,188
0,42,76,0
0,39,118,0
0,67,87,0
0,70,89,0
0,77,85,0
0,38,116,42
0,42,77,0
0,54,89,0
0,79,119,0
0,67,99,0
0,79,120,0
0,67,121,0
0,35,118,19
0,42,80,0
0,39,118,0
0,67,76,0
0,70,75,0
0,77,75,0
0,79,119,44
0,67,99,0
0,79,121,16
0,67,117,0
0,35,115,51
0,44,87,0
0,54,98,0
0,39,117,0
0,79,119,0
0,67,99,0
0,67,74,0
0,70,75,0
0,77,77,0
0,79,121,0
0,67,117,0
0,42,79,9
0,67,75,0
0,70,76,0
0,77,78,0
0,79,119,44
0,67,99,0
0,79,118,16
0,67,120,0
0,38,117,41
0,42,80,0
0,54,88,0
0,67,74,0
0,70,77,0
0,77,77,0
0,42,79,56
0,67,76,0
0,70,74,0
0,77,75,0
0,81,119,44
0,69,99,0
0,81,120,16
0,69,119,0
0,35,119,11
0,44,91,0
0,54,111,0
0,65,99,0
0,60,97,0
0,57,98,0
0,41,114,0
0,69,87,0
0,72,89,0
0,77,85,0
0,42,80,56
0,81,119,44
0,69,99,0
0,81,120,16
0,69,118,0
0,38,118,128
0,42,77,0
0,54,86,0
0,41,115,0
0,69,76,0
0,72,74,0
0,77,74,0
0,42,77,56
0,81,119,44
0,69,99,0
0,81,118,16
0,69,118,0
0,35,117,51
0,44,90,0
0,54,97,0
0,41,117,0
0,81,119,0
0,69,99,0
0,69,85,0
0,72,87,0
0,77,89,0
0,81,117,0
0,69,121,0
0,42,80,188
0,38,115,9
0,42,76,0
0,54,86,0
0,80,119,0
0,68,99,0
0,80,119,0
0,68,120,0
0,35,119,16
0,42,77,0
0,63,97,0
0,58,99,0
0,55,100,0
0,39,114,0
0,67,76,0
0,70,76,0
0,77,76,0
0,79,119,44
0,67,99,0
0,79,117,16
0,67,118,0
0,44,90,44
0,54,109,0
0,35,116,91
0,42,79,0
0,39,118,0
0,67,86,0
0,70,86,0
0,77,86,0
0,38,118,46
0,42,80,0
0,54,88,0
0,35,115,188
0,42,79,0
0,39,117,0
0,67,75,0
0,70,76,0
0,77,76,0
0,35,116,56
0,44,91,0
0,54,100,0
0,39,114,0
0,67,74,0
0,70,78,0
0,77,78,0
0,38,117,56
0,42,78,0
0,67,77,0
0,70,75,0
0,77,76,0
0,38,115,56
0,42,80,0
0,54,85,0
0,58,122,0
0,67,86,0
0,70,89,0
0,77,88,0
0,42,79,188
0,35,118,16
0,44,88,0
0,54,110,0
0,34,117,0
0,62,122,0
0,65,85,0
0,70,85,0
0,74,87,0
0,77,86,0
0,42,79,22
0,38,117,168
0,42,78,0
0,54,86,0
0,34,118,0
0,65,120,0
0,65,75,0
0,70,74,0
0,74,78,0
0,77,74,0
0,42,76,0
0,35,118,188
0,44,91,0
0,54,99,0
0,34,117,0
0,65,121,0
0,65,86,0
0,70,89,0
0,74,88,0
0,77,89,0
0,42,76,10
0,38,119,86
0,42,78,0
0,54,89,0
0,65,124,0
0,35,117,162
0,42,77,0
0,39,118,0
0,67,75,0
0,70,78,0
0,77,74,0
0,44,89,28
0,54,111,0
0,35,118,54
0,42,79,0
0,39,117,0
0,67,88,0
0,70,86,0
0,77,87,0
0,38,118,42
0,42,79,0
0,54,86,0
0,65,123,0
0,35,119,188
0,42,76,0
0,39,117,0
0,67,78,0
0,70,75,0
0,77,78,0
0,35,116,0
0,44,87,0
0,54,98,0
0,39,115,0
0,62,123,0
0,67,77,0
0,70,77,0
0,77,78,0
0,42,78,56
0,67,74,0
0,70,74,0
0,77,74,0
0,38,115,10
0,42,78,0
0,54,85,0
0,65,120,0
0,67,78,0
0,70,74,0
0,77,77,0
0,42,76,56
0,67,74,0
0,70,74,0
0,77,77,0
0,35,117,56
0,44,91,0
0,54,109,0
0,41,118,0
0,69,88,0
0,72,89,0
0,77,86,0
0,42,76,2
0,38,116,188
0,42,77,0
0,54,89,0
0,41,118,0
0,67,123,0
0,69,75,0
0,72,76,0
0,77,78,0
0,42,77,56
0,35,119,188
0,44,90,0
0,54,96,0
0,41,118,0
0,69,85,0
0,72,87,0
0,77,85,0
0,42,76,188
0,38,119,94
0,42,77,0
0,54,89,0
0,62,120,0
0,35,119,152
0,42,79,0
0,39,116,0
0,67,75,0
0,70,74,0
0,77,74,0
0,44,87,30
0,54,108,0
0,60,121,0
0,35,119,188
0,42,80,0
0,39,117,0
0,67,88,0
0,70,87,0
0,77,88,0
0,38,115,24
0,42,78,0
0,54,88,0
0,58,122,0
0,35,115,188
0,42,78,0
0,39,118,0
0,67,75,0
0,70,76,0
0,77,74,0
0,35,118,12
0,44,90,0
0,54,99,0
0,39,115,0
0,55,124,0
0,67,78,0
0,70,78,0
0,77,76,0
0,42,78,56
0,67,78,0
0,70,78,0
0,77,77,0
0,38,115,18
0,42,80,0
0,54,86,0
0,60,124,0
0,67,88,0
0,70,88,0
0,77,87,0
0,42,76,188
0,35,119,56
0,44,91,0
0,54,107,0
0,34,116,0
0,65,89,0
0,70,85,0
0,74,89,0
0,77,88,0
0,42,79,22
0,38,119,188
0,42,80,0
0,54,85,0
0,34,114,0
0,58,123,0
0,65,74,0
0,70,77,0
0,74,75,0
0,77,74,0
0,42,80,20
0,35,119,188
0,44,89,0
0,54,96,0
0,34,118,0
0,65,88,0
0,70,87,0
0,74,86,0
0,77,87,0
0,42,80,188
0,38,115,86
0,42,78,0
0,54,87,0
0,35,118,162
0,42,79,0
0,39,116,0
0,67,77,0
0,70,75,0
0,77,77,0
0,44,88,28
0,54,108,0
0,35,118,188
0,42,80,0
0,39,115,0
0,67,86,0
0,70,87,0
0,77,88,0
0,38,116,42
0,42,79,0
0,54,85,0
0,35,116,188
0,42,78,0
0,39,117,0
0,67,76,0
0,70,78,0
0,77,75,0
0,35,118,56
0,44,89,0
0,54,100,0
0,39,115,0
0,67,75,0
0,70,76,0
0,77,75,0
0,42,77,56
0,67,76,0
0,70,76,0
0,77,78,0
0,38,118,56
0,42,76,0
0,54,86,0
0,67,78,0
0,70,75,0
0,77,74,0
0,42,78,56
0,67,74,0
0,70,76,0
0,77,75,0
0,35,119,56
0,44,91,0
0,54,110,0
0,41,118,0
0,69,88,0
0,72,85,0
0,77,85,0
0,42,80,56
0,38,118,188
0,42,76,0
0,54,89,0
0,41,114,0
0,69,74,0
0,72,74,0
0,77,76,0
0,42,79,56
0,35,116,188
0,44,90,0
0,54,100,0
0,41,118,0
0,69,85,0
0,72,86,0
0,77,88,0
0,42,77,188
0,38,116,188
0,42,79,0
0,54,86,0
0,35,115,152
0,42,80,0
0,39,114,0
0,67,76,0
0,70,77,0
0,77,75,0
0,44,90,44
0,54,110,0
0,35,118,188
0,42,79,0
0,39,117,0
0,67,86,0
0,70,87,0
0,77,88,0
0,38,115,46
0,42,78,0
0,54,88,0
0,35,118,188
0,42,78,0
0,39,118,0
0,67,74,0
0,70,74,0
0,77,74,0
0,35,118,56
0,44,88,0
0,54,100,0
0,39,116,0
0,67,77,0
0,70,77,0
0,77,74,0
0,42,76,56
0,67,75,0
0,70,77,0
0,77,74,0
0,38,115,56
0,42,77,0
0,54,88,0
0,58,124,0
0,67,87,0
0,70,86,0
0,77,88,0
0,42,79,188
0,35,115,56
0,44,87,0
0,54,109,0
0,34,114,0
0,62,120,0
0,65,89,0
0,70,85,0
0,74,88,0
0,77,85,0
0,42,80,22
0,38,119,122
0,42,76,0
0,54,86,0
0,34,116,0
0,65,123,0
0,65,75,0
0,70,75,0
0,74,74,0
0,77,76,0
0,42,79,20
0,35,118,188
0,44,90,0
0,54,100,0
0,34,118,0
0,65,123,0
0,65,88,0
0,70,88,0
0,74,85,0
0,77,85,0
0,42,77,188
0,38,119,86
0,42,79,0
0,54,87,0
0,67,123,0
0,35,116,162
0,42,79,0
0,39,117,0
0,67,77,0
0,70,74,0
0,77,77,0
0,44,90,28
0,54,111,0
0,35,119,24
0,42,80,0
0,39,116,0
0,67,85,0
0,70,89,0
0,77,85,0
0,38,115,42
0,42,77,0
0,54,86,0
0,65,123,0
0,35,116,188
0,42,80,0
0,39,116,0
0,67,77,0
0,70,76,0
0,77,74,0
0,35,116,56
0,44,89,0
0,54,99,0
0,39,115,0
0,62,123,0
0,67,78,0
0,70,77,0
0,77,78,0
0,42,79,18
0,67,78,0
0,70,78,0
0,77,77,0
0,38,117,56
0,42,78,0
0,54,86,0
0,65,123,0
0,67,77,0
0,70,76,0
0,77,76,0
0,42,77,56
0,67,77,0
0,70,76,0
0,77,75,0
0,35,117,56
0,44,91,0
0,54,107,0
0,41,118,0
0,69,88,0
0,72,86,0
0,77,89,0
0,42,79,56
0,38,119,112
0,42,80,0
0,54,89,0
0,41,114,0
0,60,121,0
0,69,75,0
0,72,76,0
0,77,77,0
0,42,80,56
0,35,116,92
0,44,87,0
0,54,96,0
0,41,115,0
0,62,123,0
0,69,89,0
0,72,88,0
0,77,88,0
0,42,77,188
0,38,116,78
0,42,78,0
0,54,88,0
0,60,124,0
0,35,119,152
0,42,79,0
0,39,117,0
0,67,74,0
0,70,77,0
0,77,75,0
0,44,88,44
0,54,109,0
0,35,116,188
0,42,77,0
0,39,114,0
0,67,89,0
0,70,89,0
0,77,87,0
0,38,118,46
0,42,77,0
0,54,86,0
0,58,121,0
0,35,119,188
0,42,79,0
0,39,118,0
0,67,75,0
0,70,77,0
0,77,77,0
0,35,116,56
0,44,91,0
0,54,97,0
0,39,114,0
0,55,123,0
0,67,78,0
0,70,76,0
0,77,76,0
0,42,80,56
0,67,74,0
0,70,75,0
0,77,77,0
0,38,119,56
0,42,80,0
0,54,89,0
0,60,123,0
0,67,88,0
0,70,88,0
0,77,85,0
0,42,79,188
0,35,116,56
0,44,91,0
0,54,110,0
0,34,116,0
0,65,86,0
0,70,88,0
0,74,87,0
