track,note,velocity,time
0,49,61,74
0,42,100,0
0,60,110,0
0,55,115,0
0,52,103,0
0,36,99,0
0,49,0,6
0,42,0,0
0,67,88,1
0,60,89,0
0,42,47,99
0,42,0,5
0,62,92,79
0,63,92,29
0,42,100,20
0,42,0,6
0,62,0,7
0,64,119,7
0,63,0,3
0,64,0,72
0,72,127,22
0,42,47,5
0,42,0,5
0,42,47,49
0,72,0,6
0,42,0,0
0,67,127,1
0,52,0,55
0,55,0,5
0,60,0,10
0,69,127,91
0,60,106,5
0,57,110,0
0,53,96,0
0,41,106,0
0,36,0,1
0,67,0,0
0,42,100,2
0,42,0,5
0,42,54,29
0,42,0,6
0,42,47,99
0,42,0,5
0,42,100,22
0,42,0,6
0,42,47,99
0,42,0,5
0,69,0,22
0,67,90,19
0,67,0,46
0,67,119,36
0,72,87,8
0,42,44,5
0,42,0,6
0,69,127,14
0,67,0,10
0,53,0,33
0,60,0,5
0,72,0,15
0,69,0,10
0,57,0,2
0,67,115,56
0,41,0,31
0,42,100,12
0,59,106,0
0,55,110,0
0,50,110,0
0,43,99,0
0,42,0,5
0,42,54,127
0,42,0,6
0,42,47,89
0,42,0,6
0,42,100,82
0,42,0,6
0,42,47,234
0,42,0,6
0,62,81,99
0,64,115,62
0,62,0,14
0,67,0,14
0,42,33,45
0,42,0,6
0,64,0,77
0,50,0,30
0,55,0,18
0,59,0,22
0,63,89,2
0,63,0,31
0,64,127,6
0,42,100,48
0,57,110,0
0,52,106,0
0,45,93,0
0,60,93,2
0,42,0,4
0,43,0,2
0,42,54,119
0,42,0,6
0,42,47,234
0,42,0,6
0,42,100,217
0,79,45,0
0,42,0,6
0,79,0,163
0,79,68,9
0,42,47,15
0,42,0,6
0,60,0,99
0,57,0,28
0,52,0,3
0,45,0,65
0,79,0,22
0,55,103,12
0,62,83,2
0,47,96,0
0,42,33,3
0,79,54,0
0,42,0,6
0,64,0,7
0,55,0,130
0,62,0,7
0,47,0,48
0,62,81,4
0,64,110,35
0,60,119,0
0,55,93,0
0,48,103,0
0,91,67,3
0,84,73,0
0,42,100,0
0,42,0,6
0,64,103,1
0,62,0,32
0,79,0,7
0,79,34,9
0,42,47,29
0,42,0,6
0,64,0,32
0,67,119,31
0,42,100,8
0,42,0,6
0,69,78,9
0,67,0,7
0,67,99,7
0,69,0,16
0,65,96,26
0,42,47,3
0,42,0,5
0,67,0,5
0,79,0,2
0,65,0,7
0,64,127,4
0,42,47,8
0,42,0,6
0,60,0,4
0,55,0,0
0,64,0,10
0,48,0,8
0,64,0,30
0,60,127,2
0,60,115,19
0,57,106,0
0,53,99,0
0,41,106,0
0,42,100,10
0,77,88,5
0,42,0,1
0,42,54,9
0,42,0,6
0,42,47,49
0,42,0,6
0,77,0,62
0,76,81,7
0,42,100,19
0,42,0,6
0,42,47,59
0,60,0,0
0,42,0,5
0,57,100,36
0,57,0,7
0,60,115,7
0,42,44,15
0,42,0,6
0,53,0,27
0,57,0,33
0,62,122,1
0,60,0,4
0,60,0,2
0,64,99,69
0,62,0,4
0,76,0,11
0,74,83,31
0,41,0,9
0,60,94,1
0,50,94,0
0,43,91,0
0,55,103,3
0,42,100,5
0,42,0,6
0,62,125,4
0,64,0,18
0,42,54,37
0,42,0,6
0,42,47,19
0,42,0,6
0,60,0,54
0,50,0,13
0,59,69,2
0,55,0,0
0,60,0,12
0,84,0,20
0,83,76,12
0,59,98,0
0,55,103,0
0,50,78,2
0,42,100,3
0,42,0,6
0,42,47,229
0,42,0,6
0,42,33,89
0,42,0,6
0,50,0,174
0,43,0,3
0,59,0,10
0,55,0,5
0,60,79,22
0,83,0,3
0,55,88,4
0,50,94,0
0,43,107,0
0,60,107,3
0,84,77,7
0,59,0,1
0,42,100,2
0,42,0,6
0,42,54,234
0,42,0,6
0,31,127,231
0,42,47,3
0,43,0,0
0,42,0,6
0,31,0,192
0,55,0,2
0,60,0,11
0,50,0,9
0,60,0,3
0,59,90,4
0,59,127,10
0,55,127,0
0,50,127,0
0,31,127,0
0,42,100,3
0,83,74,2
0,42,0,4
0,84,0,7
0,42,47,107
0,62,0,6
0,42,0,0
0,46,61,114
0,46,0,6
0,31,0,119
0,31,124,105
0,46,77,10
0,46,0,6
0,59,0,189
0,50,0,8
0,83,0,0
0,31,0,0
0,67,0,2
0,55,0,0
0,91,0,3
0,59,0,5
0,74,0,17
0,67,66,2
0,60,75,0
0,84,76,0
0,79,76,8
0,49,61,0
0,42,100,0
0,35,102,0
0,60,103,0
0,55,106,0
0,52,103,0
0,36,106,0
0,64,112,0
0,36,106,2
0,60,79,0
0,67,80,3
0,64,76,0
0,49,0,1
0,42,0,0
0,35,0,0
0,60,118,1
0,55,118,0
0,48,115,15
0,52,83,34
0,64,0,25
0,60,0,12
0,64,95,7
0,55,0,3
0,60,78,1
0,55,84,8
0,55,0,32
0,60,0,10
0,55,84,4
0,64,0,0
0,60,72,4
0,64,92,7
0,42,47,8
0,42,0,6
0,55,93,6
0,55,0,9
0,60,0,1
0,60,96,4
0,64,0,3
0,64,122,0
0,60,64,0
0,55,118,0
0,42,100,8
0,37,112,0
0,64,118,0
0,42,0,6
0,37,0,0
0,52,0,2
0,55,0,0
0,64,0,39
0,55,90,9
0,67,122,0
0,42,47,8
0,42,0,6
0,36,0,39
0,67,0,27
0,72,108,0
0,52,85,7
0,40,93,15
0,42,47,3
0,42,0,6
0,55,0,27
0,52,0,8
0,60,0,30
0,55,0,2
0,40,0,17
0,72,0,0
0,60,0,2
0,60,0,17
0,55,0,0
0,64,0,3
0,60,79,2
0,57,79,0
0,67,127,0
0,60,103,5
0,53,103,0
0,41,103,0
0,57,106,3
0,64,0,1
0,41,115,1
0,60,0,1
0,42,100,2
0,35,114,0
0,53,93,5
0,52,0,0
0,42,0,1
0,35,0,0
0,60,116,1
0,57,118,0
0,48,0,1
0,64,98,2
0,36,0,17
0,57,96,29
0,42,54,10
0,42,0,5
0,67,0,4
0,64,0,12
0,60,0,5
0,57,0,7
0,64,92,5
0,60,103,2
0,57,98,5
0,57,0,32
0,60,0,2
0,60,90,5
0,64,0,1
0,57,86,4
0,42,47,5
0,60,104,0
0,64,118,1
0,42,0,4
0,60,0,30
0,57,0,2
0,64,0,2
0,60,84,10
0,57,118,0
0,64,92,2
0,42,100,3
0,37,112,0
0,65,90,4
0,42,0,1
0,37,0,0
0,60,0,15
0,60,83,49
0,42,47,9
0,42,0,6
0,57,0,10
0,57,96,39
0,67,117,0
0,42,44,8
0,42,0,6
0,60,0,17
0,53,0,17
0,57,0,3
0,41,0,57
0,65,0,0
0,67,0,0
0,53,0,15
0,60,0,3
0,57,0,5
0,55,81,6
0,43,106,4
0,41,0,1
0,57,0,5
0,60,0,3
0,60,0,0
0,62,78,1
0,59,79,0
0,64,0,3
0,55,110,1
0,43,103,0
0,42,100,3
0,35,102,0
0,59,106,0
0,50,106,0
0,79,0,1
0,84,0,2
0,67,107,2
0,59,88,0
0,55,118,0
0,57,0,1
0,42,0,0
0,35,0,0
0,67,127,0
0,59,83,197
0,42,54,28
0,42,0,6
0,67,0,85
0,67,0,15
0,67,98,1
0,59,0,4
0,59,86,11
0,62,93,90
0,55,0,1
0,59,0,5
0,67,0,5
0,55,75,4
0,59,75,5
0,67,101,5
0,42,47,3
0,42,0,6
0,55,0,204
0,59,0,0
0,67,0,3
0,67,99,4
0,59,95,3
0,55,112,2
0,67,112,3
0,42,100,15
0,37,112,0
0,42,0,6
0,37,0,0
0,62,0,24
0,55,0,43
0,50,0,10
0,62,88,134
0,55,115,20
0,42,47,3
0,42,0,6
0,59,0,32
0,67,88,0
0,43,0,20
0,67,0,26
0,67,117,0
0,59,90,35
0,50,110,12
0,43,115,0
0,42,33,3
0,42,0,6
0,67,0,72
0,67,0,2
0,59,0,0
0,62,0,12
0,59,0,3
0,55,0,2
0,50,0,7
0,64,122,0
0,55,0,8
0,43,0,3
0,60,80,19
0,45,85,0
0,64,79,3
0,57,110,0
0,45,96,2
0,60,115,0
0,52,110,0
0,59,0,1
0,55,0,0
0,42,100,2
0,35,102,0
0,64,103,0
0,60,103,0
0,45,115,0
0,59,0,1
0,62,0,4
0,67,0,1
0,42,0,0
0,35,0,0
0,57,118,4
0,60,118,5
0,43,0,0
0,64,118,2
0,64,0,46
0,64,117,0
0,42,54,133
0,42,0,6
0,64,0,124
0,60,0,11
0,64,98,6
0,57,0,4
0,60,80,4
0,57,76,7
0,42,47,14
0,64,0,2
0,57,0,0
0,42,0,1
0,60,0,7
0,57,98,7
0,64,0,0
0,60,89,6
0,64,84,5
0,60,0,52
0,57,0,1
0,42,100,4
0,37,112,0
0,64,0,0
0,57,107,5
0,42,0,1
0,37,0,0
0,60,107,1
0,64,115,5
0,45,0,138
0,64,0,23
0,60,0,3
0,60,0,4
0,52,0,5
0,45,0,6
0,57,0,15
0,47,93,11
0,45,0,3
0,59,93,5
0,62,99,5
0,45,85,5
0,60,106,0
0,57,110,0
0,45,103,0
0,42,47,5
0,42,0,6
0,64,0,177
0,60,0,10
0,57,0,3
0,67,64,6
0,59,68,3
0,45,0,3
0,55,86,2
0,60,0,18
0,45,0,0
0,47,85,4
0,57,0,1
0,59,103,2
0,55,90,0
0,47,99,0
0,42,33,5
0,35,89,0
0,42,0,6
0,35,0,0
0,59,0,195
0,47,0,2
0,55,0,3
0,67,0,12
0,55,0,0
0,59,0,3
0,47,0,0
0,64,118,9
0,55,118,0
0,48,115,2
0,60,118,0
0,48,91,3
0,60,110,0
0,55,106,0
0,52,115,0
0,60,0,0
0,67,0,3
0,64,0,0
0,42,100,2
0,35,102,0
0,60,79,2
0,67,80,3
0,64,76,0
0,60,0,0
0,42,0,1
0,35,0,0
0,67,0,0
0,64,0,0
0,59,0,7
0,48,115,9
0,62,0,4
0,47,0,7
0,42,54,207
0,42,0,6
0,52,83,9
0,64,0,76
0,60,0,7
0,55,0,13
0,60,101,9
0,64,118,2
0,55,86,13
0,55,0,76
0,60,0,7
0,64,0,5
0,55,80,2
0,60,86,5
0,64,101,5
0,42,47,5
0,42,0,6
0,55,93,6
0,64,97,0
0,64,0,43
0,55,0,50
0,60,0,5
0,64,0,0
0,64,113,0
0,55,118,7
0,64,84,3
0,60,118,0
0,60,96,5
0,42,100,15
0,37,112,0
0,42,0,6
0,37,0,0
0,52,0,17
0,55,0,0
0,64,0,125
0,67,101,0
0,55,90,30
0,42,47,20
0,42,0,6
0,67,0,187
0,72,101,0
0,64,0,1
0,52,85,11
0,64,95,3
0,60,0,3
0,55,0,10
0,42,47,2
0,60,82,5
0,42,0,1
0,55,95,4
0,55,0,28
0,72,0,20
0,67,127,0
0,60,0,81
0,55,0,15
0,52,0,0
0,55,0,5
0,60,0,5
0,64,0,3
0,48,0,2
0,48,0,12
0,41,96,10
0,60,79,0
0,57,79,0
0,60,99,7
0,57,99,0
0,53,99,0
0,41,103,0
0,57,62,5
0,60,0,1
0,42,100,2
0,35,102,0
0,64,116,0
0,60,101,0
0,53,93,5
0,52,0,0
0,42,0,1
0,35,0,0
0,48,0,2
0,57,96,222
0,42,54,10
0,67,0,3
0,42,0,3
0,64,0,105
0,60,0,12
0,57,0,7
0,64,74,2
0,60,78,5
0,57,84,5
0,57,0,86
0,60,90,2
0,60,0,3
0,64,0,5
0,42,47,2
0,57,86,2
0,42,0,4
0,60,92,1
0,64,116,3
0,57,0,210
0,60,0,5
0,64,0,6
0,57,101,1
0,60,86,5
0,42,100,3
0,37,112,0
0,64,101,2
0,65,90,3
0,42,0,1
0,37,0,0
0,60,0,15
0,60,83,209
0,42,47,10
0,42,0,6
0,57,0,45
0,64,79,0
0,64,0,28
0,60,0,10
0,64,89,2
0,60,80,10
0,64,0,3
0,67,113,0
0,57,96,43
0,42,44,20
0,42,0,6
0,67,0,59
0,53,0,23
0,60,0,25
0,64,104,0
0,57,0,31
0,64,0,12
0,65,0,28
0,53,0,15
0,60,0,3
0,67,122,0
0,41,0,1
0,57,0,3
0,55,81,6
0,57,0,6
0,43,85,2
0,60,0,3
0,60,0,3
0,62,78,1
0,59,79,0
0,55,89,0
0,64,0,1
0,59,96,2
0,55,99,0
0,50,85,0
0,43,90,0
0,59,95,2
0,42,100,3
0,35,102,0
0,67,117,2
0,57,0,4
0,42,0,0
0,35,0,0
0,41,0,17
0,59,83,189
0,42,54,28
0,42,0,6
0,67,0,97
0,59,0,7
0,55,0,5
0,67,86,2
0,59,78,8
0,55,86,5
0,67,0,25
0,62,93,57
0,59,0,11
0,67,0,7
0,59,72,7
0,42,47,3
0,67,98,5
0,42,0,1
0,67,99,211
0,55,0,11
0,59,0,7
0,67,0,1
0,42,100,4
0,37,112,0
0,59,118,5
0,55,118,0
0,42,0,1
0,37,0,0
0,67,118,1
0,62,0,23
0,62,88,187
0,42,47,23
0,42,0,6
0,69,122,0
0,59,0,28
0,67,0,70
0,59,0,10
0,67,86,7
0,59,101,5
0,69,0,21
0,55,0,62
0,59,0,8
0,69,104,0
0,59,90,0
0,55,82,2
0,59,80,5
0,42,33,8
0,42,0,6
0,50,0,32
0,69,0,78
0,59,0,32
0,67,101,0
0,67,0,0
0,62,0,15
0,59,0,3
0,55,0,5
0,55,0,5
0,67,0,5
0,55,0,20
0,59,0,5
0,67,0,5
0,64,98,2
0,60,103,0
0,45,97,0
0,43,0,1
0,45,88,1
0,60,89,0
0,57,84,0
0,60,80,5
0,60,85,0
0,57,90,0
0,52,88,0
0,45,88,0
0,64,79,3
0,64,118,0
0,59,0,3
0,42,100,2
0,35,102,0
0,43,0,3
0,62,0,2
0,42,0,1
0,35,0,0
0,69,122,0
0,42,54,230
0,42,0,6
0,69,0,77
0,64,0,18
0,64,107,14
0,60,0,0
0,57,0,8
0,60,95,4
0,57,84,8
0,64,0,58
0,60,0,0
0,45,0,15
0,60,83,12
0,57,0,1
0,60,0,4
0,64,0,6
0,57,89,4
0,42,47,5
0,57,85,0
0,60,72,0
0,64,91,2
0,42,0,4
0,62,88,24
0,60,0,13
0,60,93,109
0,62,0,4
0,60,0,47
0,57,0,5
0,57,0,3
0,52,0,2
0,60,0,0
0,57,0,15
0,42,100,12
0,37,112,0
0,57,90,5
0,57,72,0
0,42,0,1
0,37,0,0
0,53,99,1
0,60,92,0
0,52,73,10
0,60,61,3
0,57,85,0
0,60,0,53
0,57,0,8
0,52,0,2
0,60,0,55
0,45,0,42
0,57,0,1
0,53,0,2
0,64,0,17
0,59,75,25
0,59,106,0
0,60,0,0
0,62,79,2
0,50,99,0
0,43,119,3
0,64,0,1
0,57,0,0
0,45,0,2
0,31,109,2
0,55,88,0
0,67,118,0
0,55,124,2
0,59,118,0
0,60,0,1
0,46,78,2
0,35,102,0
0,59,119,0
0,50,115,0
0,55,118,2
0,46,0,4
0,35,0,0
0,46,68,234
0,46,0,6
0,59,0,97
0,55,0,5
0,50,0,12
0,50,0,86
0,55,0,4
0,31,0,3
0,43,0,10
0,67,0,2
0,60,0,0
0,55,0,3
0,62,0,2
0,59,0,1
0,59,0,0
0,41,124,1
0,59,0,1
0,57,124,2
0,53,119,0
0,60,115,2
0,57,104,0
0,67,0,1
0,89,89,2
0,81,89,0
0,49,61,0
0,42,100,0
0,35,102,0
0,60,118,0
0,84,91,2
0,64,118,0
0,29,119,3
0,49,0,1
0,42,0,0
0,35,0,0
0,53,127,1
0,65,82,3
0,60,82,0
0,57,81,2
0,57,99,16
0,64,0,37
0,60,0,5
0,64,84,4
0,57,0,0
0,60,92,5
0,57,95,5
0,60,0,27
0,57,0,0
0,64,0,8
0,60,84,11
0,42,47,3
0,60,90,0
0,57,118,0
0,64,76,5
0,42,0,1
0,65,119,226
0,42,100,8
0,37,112,0
0,60,0,3
0,57,0,0
0,69,122,0
0,42,0,1
0,37,0,0
0,64,0,2
0,60,101,7
0,57,118,0
0,64,118,2
0,60,0,9
0,69,0,132
0,60,99,67
0,57,0,1
0,60,0,7
0,42,47,7
0,57,72,0
