track,note,velocity,time
0,49,109,1512
0,49,0,121
0,48,95,21
0,48,0,53
0,47,89,15
0,47,0,1
0,46,85,44
0,46,0,31
0,45,81,14
0,45,0,1
0,44,77,46
0,44,0,33
0,43,73,15
0,43,0,1
0,42,69,44
0,42,0,11
0,69,85,34
0,64,93,0
0,61,89,0
0,57,91,0
0,33,100,10
0,49,62,0
0,42,91,0
0,35,98,0
0,64,120,0
0,61,119,0
0,57,106,0
0,33,108,0
0,49,0,1
0,42,0,0
0,35,0,0
0,69,60,6
0,44,51,153
0,44,0,1
0,42,45,79
0,42,0,1
0,42,82,239
0,38,120,0
0,42,0,1
0,38,0,0
0,33,0,135
0,33,0,7
0,33,94,97
0,42,50,0
0,33,97,0
0,42,0,1
0,33,0,110
0,33,0,67
0,33,95,62
0,42,82,0
0,35,100,0
0,33,100,0
0,42,0,1
0,35,0,0
0,85,116,4
0,73,124,0
0,85,0,18
0,73,0,0
0,42,50,217
0,42,0,1
0,83,109,124
0,71,117,0
0,83,0,31
0,71,0,0
0,42,84,84
0,38,112,0
0,42,0,1
0,38,0,0
0,42,53,239
0,42,0,1
0,81,109,4
0,69,117,0
0,81,0,31
0,69,0,0
0,57,0,107
0,33,0,8
0,64,0,7
0,33,0,0
0,61,0,3
0,64,0,52
0,61,0,0
0,66,88,17
0,62,86,0
0,38,98,10
0,42,87,0
0,35,106,0
0,66,113,0
0,62,104,0
0,57,95,0
0,38,108,0
0,42,0,1
0,35,0,0
0,78,120,4
0,66,127,0
0,78,0,28
0,66,0,0
0,44,39,127
0,44,0,1
0,42,51,79
0,42,0,1
0,42,89,239
0,38,114,0
0,42,0,1
0,38,0,0
0,38,0,122
0,38,0,43
0,38,100,74
0,42,51,0
0,38,95,0
0,42,0,1
0,38,0,110
0,38,0,70
0,38,97,59
0,42,91,0
0,35,102,0
0,38,90,0
0,42,0,1
0,35,0,0
0,85,124,4
0,73,122,0
0,85,0,23
0,73,0,0
0,42,53,212
0,42,0,1
0,83,119,124
0,71,127,0
0,83,0,23
0,71,0,0
0,38,0,60
0,38,0,15
0,40,97,17
0,42,91,0
0,38,114,0
0,40,85,0
0,42,0,1
0,38,0,0
0,42,53,239
0,42,0,1
0,81,111,4
0,69,119,0
0,81,0,33
0,69,0,0
0,69,0,45
0,57,0,55
0,62,0,3
0,66,0,5
0,40,0,45
0,69,0,22
0,57,0,0
0,66,0,0
0,62,0,0
0,40,0,3
0,69,83,14
0,64,91,0
0,61,89,0
0,57,94,0
0,33,94,10
0,69,61,0
0,64,66,0
0,42,91,0
0,35,98,0
0,64,108,0
0,61,113,0
0,57,94,0
0,33,97,0
0,42,0,1
0,35,0,0
0,76,114,4
0,64,122,0
0,73,70,5
0,76,0,36
0,64,0,0
0,44,51,114
0,44,0,1
0,42,45,79
0,42,0,1
0,42,82,239
0,38,120,0
0,42,0,1
0,38,0,0
0,33,0,37
0,33,0,103
0,33,94,99
0,42,50,0
0,33,98,0
0,42,0,1
0,33,0,105
0,33,0,32
0,33,92,102
0,42,82,0
0,35,100,0
0,33,100,0
0,42,0,1
0,35,0,0
0,85,116,4
0,73,124,0
0,85,0,23
0,73,0,0
0,42,50,212
0,42,0,1
0,83,114,124
0,71,122,0
0,83,0,26
0,71,0,0
0,42,84,89
0,38,112,0
0,42,0,1
0,38,0,0
0,42,53,239
0,42,0,1
0,81,111,4
0,69,119,0
0,81,0,31
0,69,0,0
0,57,0,87
0,61,0,15
0,64,0,8
0,33,0,5
0,33,0,32
0,64,0,30
0,61,0,0
0,64,0,10
0,66,67,4
0,66,91,3
0,62,90,0
0,74,73,2
0,73,0,1
0,38,88,7
0,42,87,0
0,35,106,0
0,66,104,0
0,62,102,0
0,57,97,0
0,38,102,0
0,42,0,1
0,35,0,0
0,78,110,4
0,66,118,0
0,78,0,28
0,66,0,0
0,44,39,127
0,44,0,1
0,42,51,79
0,42,0,1
0,42,89,239
0,38,114,0
0,42,0,1
0,38,0,0
0,38,0,97
0,38,0,25
0,38,95,117
0,42,51,0
0,38,92,0
0,42,0,1
0,38,0,102
0,38,0,35
0,74,0,72
0,76,62,5
0,38,95,25
0,42,91,0
0,35,102,0
0,38,86,0
0,42,0,1
0,35,0,0
0,85,120,4
0,73,127,0
0,85,0,23
0,73,0,0
0,42,53,212
0,42,0,1
0,83,114,124
0,71,122,0
0,83,0,28
0,71,0,0
0,38,0,45
0,38,0,20
0,40,88,22
0,42,91,0
0,38,114,0
0,40,92,0
0,42,0,1
0,38,0,0
0,42,53,239
0,42,0,1
0,81,107,4
0,69,115,0
0,81,0,26
0,69,0,0
0,40,0,122
0,62,0,38
0,57,0,0
0,66,0,5
0,66,0,4
0,69,0,13
0,57,0,0
0,66,0,0
0,62,0,0
0,40,0,8
0,69,0,2
0,64,75,7
0,61,70,0
0,57,73,0
0,33,100,10
0,69,84,0
0,64,68,0
0,61,79,0
0,57,62,0
0,42,91,0
0,35,98,0
0,61,116,0
0,57,104,0
0,52,100,0
0,33,102,0
0,57,0,1
0,42,0,0
0,35,0,0
0,81,102,4
0,69,90,0
0,81,0,33
0,69,0,5
0,76,0,155
0,42,45,42
0,42,0,1
0,42,82,239
0,38,120,0
0,42,0,1
0,38,0,0
0,33,0,135
0,33,94,104
0,42,50,0
0,42,0,1
0,33,0,110
0,73,119,0
0,33,95,17
0,42,82,0
0,35,100,0
0,42,0,1
0,35,0,0
0,42,50,197
0,42,0,1
0,73,0,24
0,71,112,0
0,42,84,133
0,38,112,0
0,42,0,1
0,38,0,0
0,71,0,159
0,69,112,0
0,42,53,23
0,42,0,1
0,61,0,70
0,57,0,5
0,33,0,10
0,52,0,2
0,69,0,57
0,33,0,6
0,64,0,0
0,61,0,0
0,69,0,8
0,64,0,0
0,61,0,0
0,62,76,0
0,54,59,0
0,71,112,0
0,38,98,10
0,42,87,0
0,35,106,0
0,62,102,0
0,57,90,0
0,54,82,0
0,38,95,0
0,42,0,1
0,35,0,0
0,42,51,194
0,42,0,1
0,42,89,239
0,38,114,0
0,42,0,1
0,38,0,0
0,38,0,122
0,38,100,117
0,66,107,0
0,42,51,0
0,42,0,1
0,71,0,78
0,66,0,10
0,38,0,3
0,66,101,0
0,38,97,5
0,42,91,0
0,35,102,0
0,42,0,1
0,35,0,0
0,42,53,239
0,42,0,1
0,38,0,200
0,38,0,22
0,40,97,17
0,42,91,0
0,38,114,0
0,42,0,1
0,38,0,0
0,66,0,57
0,42,53,182
0,42,0,1
0,54,0,75
0,57,0,12
0,62,0,8
0,62,0,117
0,54,0,0
0,40,0,3
0,61,75,14
0,52,70,0
0,33,94,10
0,42,91,0
0,35,98,0
0,64,100,0
0,61,104,0
0,57,90,0
0,33,106,0
0,42,0,1
0,35,0,0
0,42,45,239
0,42,0,1
0,42,82,239
0,38,120,0
0,42,0,1
0,38,0,0
0,33,0,37
0,33,94,202
0,42,50,0
0,42,0,1
0,33,0,105
0,73,110,0
0,33,92,4
0,42,82,0
0,35,100,0
0,42,0,1
0,35,0,0
0,42,50,174
0,42,0,1
0,73,0,59
0,71,112,0
0,42,84,120
0,38,112,0
0,42,0,1
0,38,0,0
0,71,0,147
0,69,106,0
0,42,53,33
0,42,0,1
0,33,0,67
0,64,0,5
0,57,0,15
0,61,0,3
0,69,0,54
0,33,0,38
0,61,0,7
0,52,0,0
0,71,120,0
0,62,69,3
0,54,65,0
0,38,88,4
0,42,87,0
0,35,106,0
0,62,87,0
0,57,92,0
0,54,72,0
0,38,94,0
0,42,0,1
0,35,0,0
0,42,51,192
0,42,0,1
0,42,89,239
0,38,114,0
0,42,0,1
0,38,0,0
0,38,0,97
0,71,0,87
0,73,110,0
0,38,95,30
0,42,51,0
0,42,0,1
0,73,0,57
0,38,0,45
0,71,104,0
0,38,95,125
0,42,91,0
0,35,102,0
0,42,0,1
0,35,0,0
0,71,0,227
0,42,53,12
0,42,0,1
0,38,0,212
0,38,0,5
0,37,88,22
0,42,91,0
0,38,114,0
0,37,88,0
0,42,0,1
0,38,0,0
0,42,53,239
0,42,0,1
0,54,0,35
0,57,0,20
0,62,0,12
0,37,0,85
0,37,0,43
0,62,0,17
0,54,0,0
0,61,67,17
0,52,64,0
0,33,100,10
0,55,80,0
0,42,91,0
0,35,98,0
0,64,97,0
0,61,97,0
0,57,90,0
0,33,91,0
0,55,0,1
0,42,0,0
0,35,0,0
0,42,45,239
0,42,0,1
0,42,82,239
0,38,120,0
0,42,0,1
0,38,0,0
0,33,0,135
0,76,122,0
0,33,94,30
0,42,50,0
0,42,0,1
0,76,0,30
0,76,106,0
0,33,0,19
0,76,0,39
0,76,114,0
0,33,95,10
0,42,82,0
0,35,100,0
0,42,0,1
0,35,0,0
0,76,0,122
0,76,106,0
0,42,50,23
0,42,0,1
0,76,0,57
0,76,112,0
0,76,0,103
0,42,84,7
0,38,112,0
0,42,0,1
0,38,0,0
0,74,114,0
0,74,0,126
0,42,53,22
0,42,0,1
0,73,101,0
0,33,0,39
0,64,0,25
0,57,0,10
0,61,0,12
0,73,0,17
0,33,0,6
0,61,0,62
0,52,0,0
0,73,123,0
0,62,68,15
0,54,71,0
0,38,98,10
0,42,87,0
0,35,106,0
0,62,83,0
0,57,80,0
0,54,68,0
0,38,85,0
0,42,0,1
0,35,0,0
0,73,0,95
0,74,114,0
0,42,51,85
0,42,0,1
0,74,0,10
0,74,120,0
0,42,89,155
0,38,114,0
0,42,0,1
0,38,0,0
0,74,0,20
0,38,0,102
0,38,0,20
0,38,100,97
0,42,51,0
0,38,83,0
0,42,0,1
0,54,0,62
0,57,0,3
0,62,0,12
0,38,0,3
0,38,0,95
0,62,0,7
0,54,0,0
0,61,61,17
0,52,66,0
0,37,98,10
0,42,91,0
0,35,102,0
0,64,108,0
0,57,98,0
0,52,90,0
0,37,87,0
0,42,0,1
0,35,0,0
0,42,53,239
0,42,0,1
0,42,91,89
0,38,114,0
0,42,0,1
0,38,0,0
0,37,0,122
0,37,100,117
0,42,53,0
0,42,0,1
0,37,0,110
0,73,123,0
0,37,0,16
0,64,0,7
0,52,0,20
0,57,0,3
0,73,0,35
0,57,0,17
0,61,0,0
0,52,0,0
0,71,74,4
0,62,68,13
0,59,75,0
0,54,65,0
0,35,94,10
0,42,91,0
0,35,98,0
0,62,88,0
0,59,106,0
0,54,78,0
0,35,98,0
0,42,0,1
0,35,0,0
0,73,107,0
0,73,0,55
0,71,104,0
0,42,45,23
0,42,0,1
0,71,0,35
0,71,108,0
0,42,82,59
0,38,120,0
0,42,0,1
0,38,0,0
0,35,0,37
0,71,0,57
0,35,94,84
0,42,50,0
0,42,0,0
0,35,0,105
0,59,0,2
0,62,0,3
0,54,0,3
0,35,92,99
0,42,82,0
0,35,100,0
0,62,80,0
0,59,91,0
0,54,85,0
0,42,0,1
0,35,0,0
0,42,50,29
0,42,0,1
0,42,84,12
0,38,112,0
0,42,0,1
0,38,0,0
0,71,117,0
0,42,53,10
0,42,0,1
0,35,0,28
0,54,0,15
0,59,0,2
0,71,0,8
0,62,0,5
0,35,0,27
0,62,0,30
0,54,0,0
0,64,69,7
0,56,71,0
0,40,88,10
0,42,87,0
0,35,106,0
0,64,95,0
0,59,102,0
0,56,87,0
0,40,100,0
0,42,0,1
0,35,0,0
0,73,119,0
0,42,51,12
0,42,0,1
0,42,89,79
0,38,114,0
0,42,0,1
0,38,0,0
0,40,0,97
0,40,95,52
0,42,51,0
0,42,0,1
0,40,0,0
0,40,95,117
0,42,91,0
0,35,102,0
0,42,0,1
0,35,0,0
0,73,0,12
0,71,97,14
0,42,53,82
0,42,0,1
0,59,0,22
0,40,0,0
0,64,0,8
0,56,0,22
0,71,0,77
0,64,0,13
0,56,0,0
0,73,85,4
0,40,0,1
0,65,78,12
0,61,74,0
0,71,0,3
0,41,88,7
0,52,110,0
0,42,91,0
0,38,114,0
0,85,127,0
0,80,123,0
0,73,116,0
0,68,104,0
0,61,110,0
0,41,106,0
0,29,102,0
0,52,0,1
0,42,0,0
0,38,0,0
0,77,114,6
0,42,53,233
0,42,0,1
0,80,0,60
0,85,0,5
0,77,0,4
0,41,0,11
0,29,0,20
0,68,0,32
0,73,0,5
0,61,0,10
0,41,0,5
0,73,0,47
0,59,0,13
0,65,0,0
0,61,0,0
0,81,73,4
0,78,63,0
0,66,91,13
0,61,89,0
0,57,84,0
0,30,100,10
0,78,70,0
0,73,77,0
0,69,64,0
0,57,62,0
0,42,91,0
0,35,98,0
0,69,106,0
0,66,104,0
0,61,119,0
0,57,108,0
0,42,101,0
0,78,1,0
0,73,1,0
0,69,1,0
0,57,0,1
0,42,0,0
0,35,0,0
0,85,123,19
0,78,116,2
0,81,117,3
0,42,45,192
0,42,0,1
0,42,82,239
0,38,120,0
0,42,0,1
0,38,0,0
0,30,0,135
0,30,94,104
0,42,50,0
0,42,0,1
0,30,0,110
0,78,127,0
0,30,95,18
0,42,82,0
0,35,100,0
0,42,0,1
0,35,0,0
0,42,50,214
0,42,0,1
0,78,0,172
0,80,127,0
0,54,107,8
0,42,84,0
0,38,112,0
0,54,0,1
0,42,0,0
0,38,0,0
0,80,0,167
0,81,122,0
0,42,53,23
0,42,0,1
0,78,0,27
0,85,0,5
0,81,0,3
0,61,0,32
0,57,0,13
0,69,0,5
0,42,0,12
0,66,0,10
0,81,0,32
0,30,0,11
0,66,0,45
0,81,0,4
0,78,0,0
0,61,0,6
0,57,0,0
0,80,70,11
0,76,69,0
0,78,0,5
0,73,0,0
0,69,0,0
0,80,123,0
0,78,0,3
0,73,0,0
0,69,0,0
0,68,82,2
0,64,85,0
0,59,95,0
0,40,98,2
0,76,66,0
0,71,55,0
0,68,56,0
0,42,87,0
0,35,106,0
0,68,110,0
0,64,104,0
0,59,104,0
0,40,98,0
0,76,1,0
0,71,1,0
0,68,1,0
0,42,0,1
0,35,0,0
0,42,51,192
0,42,0,1
0,42,89,117
0,38,114,0
0,42,0,1
0,38,0,0
0,40,0,122
0,80,0,45
0,78,116,0
0,40,100,23
0,42,51,0
0,42,0,1
0,40,0,110
0,78,0,52
0,76,106,0
0,40,98,8
0,42,91,0
0,35,102,0
0,42,0,1
0,35,0,0
0,42,53,239
0,42,0,1
0,76,0,79
0,40,0,23
0,45,88,7
0,59,87,0
0,54,104,0
0,42,91,0
0,38,114,0
0,59,0,1
0,54,0,0
0,42,0,0
0,38,0,0
0,45,120,2
0,33,110,0
0,42,53,147
0,42,0,1
0,40,0,85
0,59,0,10
0,64,0,2
0,68,0,8
0,80,0,94
0,76,0,0
0,45,0,3
0,33,0,0
0,68,0,8
0,64,0,2
0,59,0,0
0,78,67,4
0,74,68,0
0,76,0,6
0,71,0,0
0,68,0,0
0,45,0,0
0,76,0,5
0,71,0,0
0,68,0,0
0,66,87,2
0,62,79,0
0,57,83,0
0,38,94,10
0,74,68,0
0,69,59,0
0,66,67,0
0,51,84,0
0,42,91,0
0,35,98,0
0,66,107,0
0,62,98,0
0,57,97,0
0,38,90,0
0,74,1,0
0,69,1,0
0,66,1,0
0,51,0,1
0,42,0,0
0,35,0,0
0,38,110,6
0,26,100,0
0,42,45,233
0,42,0,1
0,42,82,239
0,38,120,0
0,42,0,1
0,38,0,0
0,38,0,37
0,38,0,10
0,26,0,0
0,38,94,192
0,42,50,0
0,42,0,1
0,38,0,105
0,78,127,0
0,38,92,13
0,42,82,0
0,35,100,0
0,42,0,1
0,35,0,0
0,42,50,204
0,42,0,1
0,78,0,37
0,76,108,0
0,54,110,138
0,42,84,0
0,38,112,0
0,54,0,1
0,42,0,0
0,38,0,0
0,76,0,147
0,78,119,0
0,42,53,30
0,42,0,1
0,62,0,37
0,57,0,8
0,66,0,12
0,38,0,38
0,78,0,37
0,38,0,50
0,78,0,17
0,74,0,0
0,62,0,11
0,57,0,2
0,66,0,3
0,76,65,1
0,71,60,0
0,74,0,6
0,69,0,0
0,66,0,0
0,74,0,0
0,69,0,0
0,66,0,0
0,64,94,0
0,59,80,0
