track,note,velocity,time
1,28,93,10176
1,28,0,764
1,33,93,4
1,33,0,764
1,38,93,4
1,38,0,380
1,30,93,4
1,30,0,380
1,31,93,4
1,31,0,380
1,35,93,4
1,35,0,380
1,36,93,4
1,36,0,644
1,35,93,28
1,35,0,92
1,33,93,4
1,33,0,572
1,33,93,4
1,33,0,0
1,26,93,4
1,26,0,380
1,30,93,4
1,30,0,380
1,31,93,4
1,31,0,284
1,31,93,52
1,31,0,20
1,31,93,28
1,31,0,188
1,35,93,4
1,35,0,188
1,28,93,4
1,28,0,284
1,28,93,52
1,28,0,20
1,30,93,28
1,30,0,356
1,36,93,28
1,36,0,260
1,28,93,28
1,28,0,20
1,30,93,28
1,30,0,20
1,31,93,28
1,31,0,188
1,33,93,4
1,33,0,4
1,26,93,4
1,26,0,164
1,26,93,28
1,26,0,92
1,26,93,52
1,26,0,20
1,30,93,28
1,30,0,188
1,30,93,4
1,30,0,164
1,31,93,28
1,31,0,284
1,38,93,52
1,38,0,20
1,43,93,28
1,43,0,188
1,35,93,4
1,35,0,164
1,40,93,28
1,40,0,260
1,40,93,28
1,40,0,12
1,40,93,36
1,40,0,12
1,42,93,36
1,42,0,4
1,34,93,4
1,34,0,284
1,35,93,4
1,35,0,284
1,34,93,4
1,34,0,188
1,26,93,4
1,26,0,1412
1,26,93,124
1,26,0,308
1,26,93,28
1,26,0,44
1,38,93,4
1,38,0,380
1,26,93,4
1,26,0,332
1,38,93,4
1,38,0,20
1,38,93,28
1,38,0,140
1,34,93,4
1,34,0,0
1,26,93,4
1,26,0,324
1,33,93,12
1,33,0,20
1,38,93,28
1,38,0,380
1,26,93,4
1,26,0,332
1,38,93,4
1,38,0,20
1,38,93,28
1,38,0,180
1,26,93,4
1,26,0,308
1,33,93,28
1,33,0,20
1,38,93,28
1,38,0,356
1,26,93,28
1,26,0,332
1,38,93,4
1,38,0,20
1,38,93,28
1,38,0,140
1,34,93,4
1,34,0,0
1,26,93,4
1,26,0,284
1,33,93,52
1,33,0,12
1,38,93,36
1,38,0,116
1,40,93,28
1,40,0,20
1,30,93,28
1,30,0,164
1,31,93,28
1,31,0,332
1,38,93,4
1,38,0,20
1,43,93,28
1,43,0,140
1,38,93,4
1,38,0,44
1,30,93,4
1,30,0,68
1,30,93,28
1,30,0,92
1,28,93,4
1,28,0,308
1,35,93,28
1,35,0,20
1,40,93,28
1,40,0,284
1,33,93,4
1,33,0,44
1,35,93,4
1,35,0,44
1,33,93,4
1,33,0,380
1,45,93,4
1,45,0,156
1,33,93,4
1,33,0,188
1,26,93,4
1,26,0,380
1,30,93,4
1,30,0,356
1,31,93,28
1,31,0,260
1,31,93,28
1,31,0,0
1,35,93,4
1,35,0,380
1,36,93,4
1,36,0,380
1,48,93,4
1,48,0,284
1,36,93,4
1,36,0,92
1,33,93,4
1,33,0,380
1,45,93,4
1,45,0,188
1,33,93,4
1,33,0,0
1,26,93,4
1,26,0,308
1,28,93,28
1,28,0,20
1,30,93,28
1,30,0,308
1,30,93,28
1,30,0,20
1,31,93,28
1,31,0,308
1,38,93,28
1,38,0,20
1,43,93,28
1,43,0,188
1,35,93,4
1,35,0,164
1,28,93,28
1,28,0,284
1,28,93,52
1,28,0,20
1,30,93,28
1,30,0,356
1,36,93,28
1,36,0,284
1,31,93,52
1,31,0,12
1,31,93,36
1,31,0,188
1,33,93,4
1,33,0,0
1,26,93,4
1,26,0,68
1,26,93,28
1,26,0,68
1,26,93,28
1,26,0,68
1,28,93,28
1,28,0,20
1,29,93,28
1,29,0,20
1,30,93,28
1,30,0,356
1,31,93,28
1,31,0,308
1,38,93,28
1,38,0,20
1,43,93,28
1,43,0,188
1,35,93,4
1,35,0,188
1,28,93,4
1,28,0,260
1,28,93,28
1,28,0,20
1,29,93,28
1,29,0,20
1,30,93,28
1,30,0,308
1,30,93,28
1,30,0,20
1,32,93,28
1,32,0,284
1,33,93,4
1,33,0,236
1,45,93,4
1,45,0,12
1,43,93,36
1,43,0,0
1,53,93,4
1,53,0,284
1,55,93,4
1,55,0,44
1,53,93,4
1,53,0,44
1,52,93,4
1,52,0,284
1,48,93,4
1,48,0,44
1,50,93,4
1,50,0,44
1,51,93,4
1,51,0,284
1,53,93,4
1,53,0,44
1,51,93,4
1,51,0,44
1,50,93,4
1,50,0,284
1,46,93,4
1,46,0,44
1,48,93,4
1,48,0,44
1,49,93,4
1,49,0,284
1,51,93,4
1,51,0,44
1,49,93,4
1,49,0,44
1,48,93,4
1,48,0,260
1,48,93,28
1,48,0,44
1,47,93,4
1,47,0,44
1,46,93,4
1,34,93,336
1,34,0,20
1,46,0,0
1,46,93,28
1,46,0,188
1,34,93,4
1,34,0,20
1,34,93,28
1,34,0,44
1,38,93,4
1,38,0,44
1,27,93,4
1,27,0,308
1,27,93,28
1,27,0,20
1,29,93,28
1,29,0,20
1,31,93,28
1,31,0,308
1,31,93,28
1,31,0,44
1,32,93,4
1,32,0,308
1,39,93,28
1,39,0,12
1,44,93,36
1,44,0,188
1,36,93,4
1,36,0,188
1,29,93,4
1,29,0,260
1,29,93,28
1,29,0,20
1,30,93,28
1,30,0,20
1,31,93,28
1,31,0,308
1,31,93,28
1,31,0,20
1,37,93,28
1,37,0,308
1,34,93,28
1,34,0,44
1,36,93,4
1,36,0,188
1,34,93,4
1,34,0,188
1,27,93,4
1,27,0,280
1,29,93,8
1,29,0,28
1,30,93,20
1,30,0,28
1,31,93,20
1,31,0,308
1,31,93,28
1,31,0,20
1,32,93,28
1,32,0,308
1,39,93,28
1,39,0,12
1,44,93,36
1,44,0,188
1,36,93,4
1,36,0,164
1,29,93,28
1,29,0,260
1,29,93,28
1,29,0,20
1,30,93,28
1,30,0,20
1,31,93,28
1,31,0,308
1,31,93,28
1,31,0,20
1,35,93,28
1,35,0,260
1,36,93,28
1,36,0,284
1,35,93,4
1,35,0,92
1,34,93,4
1,34,0,44
1,32,93,4
1,32,0,44
1,27,93,4
1,27,0,236
1,34,93,4
1,34,0,20
1,39,93,28
1,39,0,44
1,34,93,4
1,34,0,44
1,31,93,4
1,31,0,116
1,31,93,28
1,31,0,20
1,31,93,28
1,31,0,116
1,31,93,28
1,31,0,20
1,32,93,28
1,32,0,284
1,27,93,52
1,27,0,20
1,32,93,28
1,32,0,140
1,36,93,52
1,36,0,140
1,29,93,52
1,29,0,284
1,29,93,52
1,29,0,20
1,31,93,28
1,31,0,308
1,31,93,28
1,31,0,20
1,37,93,28
1,37,0,284
1,37,93,52
1,37,0,20
1,36,93,28
1,36,0,188
1,34,93,4
1,34,0,116
1,26,93,28
1,26,0,20
1,27,93,28
1,27,0,212
1,27,93,28
1,27,0,20
1,29,93,28
1,29,0,20
1,30,93,28
1,30,0,12
1,31,93,36
1,31,0,116
1,31,93,28
1,31,0,12
1,31,93,36
1,31,0,116
1,31,93,28
1,31,0,20
1,32,93,28
1,32,0,284
1,39,93,52
1,39,0,12
1,44,93,36
1,44,0,188
1,36,93,4
1,36,0,164
1,29,93,28
1,29,0,68
1,29,93,28
1,29,0,68
1,29,93,28
1,29,0,20
1,29,93,28
1,29,0,12
1,29,93,36
1,29,0,92
1,31,93,4
1,31,0,116
1,31,93,28
1,31,0,20
1,31,93,28
1,31,0,92
1,31,93,4
1,31,0,68
1,35,93,28
1,35,0,44
1,38,93,4
1,38,0,44
1,43,93,4
1,43,0,44
1,38,93,4
1,38,0,44
1,43,93,4
1,43,0,44
1,47,93,4
1,47,0,44
1,48,93,4
1,48,0,140
1,50,93,4
1,50,0,44
1,51,93,4
1,51,0,44
1,55,93,4
1,55,0,44
1,56,93,4
1,56,0,20
1,44,93,4
1,44,0,20
1,32,93,4
1,32,0,140
1,27,93,4
1,27,0,68
1,27,93,28
1,27,0,92
1,27,93,4
1,27,0,92
1,27,93,4
1,27,0,92
1,31,93,4
1,31,0,188
1,31,93,4
1,31,0,188
1,32,93,4
1,51,93,96
1,60,93,48
1,32,0,116
1,60,0,96
1,51,0,24
1,32,93,4
1,32,0,140
1,34,93,52
1,34,0,164
1,27,93,28
1,39,93,0
1,27,0,1124
1,39,0,24
2,57,49,7186
2,62,49,0
2,66,49,0
2,62,0,12
2,57,0,0
2,66,0,8
2,59,49,268
2,62,49,0
2,67,49,0
2,67,0,20
2,62,0,0
2,59,0,0
2,61,49,4
2,62,49,0
2,69,49,0
2,69,0,20
2,62,0,0
2,61,0,0
2,59,49,4
2,62,49,0
2,67,49,0
2,67,0,20
2,62,0,0
2,59,0,0
2,58,49,4
2,64,49,0
2,64,0,20
2,58,0,0
2,57,49,4
2,62,49,0
2,66,49,0
2,66,0,20
2,62,0,0
2,57,0,0
2,66,70,4
2,71,70,0
2,74,70,0
2,74,0,44
2,71,0,0
2,66,0,0
2,66,70,4
2,70,70,0
2,73,70,0
2,73,0,44
2,70,0,0
2,66,0,0
2,66,72,4
2,69,72,0
2,72,72,0
2,72,0,188
2,69,0,0
2,66,0,0
2,62,49,4
2,67,49,0
2,71,49,0
2,71,0,12
2,67,0,0
2,62,0,8
2,50,49,4
2,55,49,0
2,59,49,0
2,59,0,20
2,55,0,0
2,50,0,0
2,50,49,172
2,54,49,0
2,57,49,0
2,57,0,20
2,54,0,0
2,50,0,0
2,50,71,4
2,55,71,0
2,59,71,0
2,59,0,20
2,55,0,0
2,50,0,0
2,66,72,364
2,66,0,20
2,67,76,28
2,67,0,20
2,74,77,28
2,74,0,12
2,52,71,4
2,57,71,0
2,61,71,0
2,61,0,20
2,57,0,0
2,52,0,0
2,69,71,220
2,69,0,12
2,71,69,132
2,71,0,20
2,73,69,28
2,73,0,20
2,81,69,28
2,81,0,20
2,57,71,4
2,62,71,0
2,66,71,0
2,66,0,20
2,62,0,0
2,57,0,0
2,57,71,4
2,62,71,0
2,64,71,0
2,69,71,0
2,69,0,20
2,57,0,0
2,62,0,0
2,64,0,0
2,50,71,4
2,55,71,0
2,59,71,0
2,59,0,20
2,55,0,0
2,50,0,0
2,55,71,4
2,59,71,0
2,62,71,0
2,62,0,20
2,59,0,0
2,55,0,0
2,55,71,4
2,64,71,0
2,67,71,0
2,67,0,12
2,64,0,0
2,55,0,8
2,62,71,124
2,67,71,0
2,62,0,12
2,67,0,8
2,55,71,4
2,60,71,0
2,64,71,0
2,64,0,140
2,60,0,0
2,55,0,0
2,57,71,4
2,62,71,0
2,66,71,0
2,66,0,140
2,62,0,0
2,57,0,0
2,59,71,4
2,64,71,0
2,67,71,0
2,67,0,92
2,64,0,0
2,59,0,0
2,57,71,4
2,61,71,0
2,64,71,0
2,64,0,12
2,61,0,0
2,57,0,0
2,57,71,132
2,61,71,0
2,64,71,0
2,61,0,12
2,64,0,8
2,57,0,0
2,55,71,4
2,59,71,0
2,62,71,0
2,62,0,20
2,59,0,0
2,55,0,0
2,57,71,172
2,61,71,0
2,64,71,0
2,64,0,20
2,61,0,0
2,57,0,0
2,57,71,4
2,62,71,0
2,66,71,0
2,62,0,12
2,66,0,8
2,57,0,0
2,62,71,4
2,66,71,0
2,69,71,0
2,69,0,20
2,66,0,0
2,62,0,0
2,55,71,4
2,59,71,0
2,62,71,0
2,62,0,12
2,59,0,0
2,55,0,0
2,59,108,228
2,62,108,0
2,67,108,0
2,67,0,20
2,62,0,0
2,59,0,0
2,62,105,76
2,62,0,12
2,59,71,36
2,62,71,0
2,67,71,0
2,67,0,116
2,62,0,0
2,59,0,0
2,62,71,28
2,66,71,0
2,66,0,20
2,62,0,0
2,57,71,28
2,62,71,0
2,66,71,0
2,66,0,44
2,62,0,0
2,57,0,0
2,59,71,4
2,62,71,0
2,67,71,0
2,67,0,20
2,62,0,0
2,59,0,0
2,62,71,4
2,66,71,0
2,69,71,0
2,69,0,12
2,66,0,0
2,62,0,0
2,69,71,132
2,69,0,20
2,60,71,4
2,64,71,0
2,67,71,0
2,64,0,12
2,67,0,8
2,60,0,0
2,59,71,4
2,62,71,0
2,67,71,0
2,67,0,20
2,62,0,0
2,59,0,0
2,61,71,172
2,64,71,0
2,69,71,0
2,69,0,20
2,64,0,0
2,61,0,0
2,57,71,4
2,62,71,0
2,66,71,0
2,66,0,184
2,62,0,0
2,57,0,0
2,57,71,8
2,62,71,0
2,66,71,0
2,66,0,184
2,62,0,0
2,57,0,0
2,57,71,8
2,62,71,0
2,66,71,0
2,66,0,20
2,62,0,0
2,57,0,0
2,62,71,172
2,66,71,0
2,66,0,20
2,62,0,0
2,62,71,76
2,62,0,12
2,62,71,4
2,67,71,0
2,71,71,0
2,71,0,12
2,67,0,0
2,62,0,0
2,62,96,228
2,67,96,0
2,71,96,0
2,74,96,0
2,79,96,0
2,79,0,20
2,71,0,0
2,62,0,0
2,67,0,0
2,74,0,0
2,62,73,28
2,66,73,0
2,69,73,0
2,66,0,12
2,62,0,0
2,69,0,8
2,62,95,28
2,67,95,0
2,71,95,0
2,74,95,0
2,79,95,0
2,79,0,68
2,71,0,0
2,62,0,0
2,67,0,0
2,74,0,0
2,62,71,76
2,67,71,0
2,71,71,0
2,71,0,44
2,67,0,0
2,62,0,0
2,62,71,52
2,66,71,0
2,69,71,0
2,69,0,68
2,66,0,0
2,62,0,0
2,59,71,124
2,62,71,0
2,67,71,0
2,62,0,12
2,59,0,0
2,67,0,8
2,62,71,4
2,64,71,0
2,66,71,0
2,66,0,20
2,64,0,0
2,62,0,0
2,55,71,4
2,58,71,0
2,64,71,0
2,64,0,12
2,58,0,0
2,55,0,8
2,54,71,268
2,57,71,0
2,62,71,0
2,62,0,12
2,57,0,0
2,54,0,8
2,55,71,268
2,58,71,0
2,64,71,0
2,64,0,20
2,58,0,0
2,55,0,0
2,57,60,4
2,62,60,0
2,66,60,0
2,66,0,20
2,62,0,0
2,57,0,0
2,62,60,4
2,69,60,0
2,71,60,0
2,74,60,0
2,74,0,12
2,71,0,0
2,69,0,0
2,62,0,8
2,67,60,0
2,70,60,0
2,74,60,0
2,76,60,0
2,70,0,12
2,67,0,0
2,74,0,8
2,76,0,336
2,57,49,4
2,62,49,0
2,66,49,0
2,66,0,12
2,62,0,0
2,57,0,0
2,54,49,4
2,57,49,0
2,62,49,0
2,62,0,20
2,57,0,0
2,54,0,0
2,59,49,4
2,62,49,0
2,64,49,0
2,67,49,0
2,67,0,12
2,59,0,0
2,62,0,0
2,64,0,0
2,58,49,4
2,62,49,0
2,64,49,0
2,67,49,0
2,67,0,20
2,58,0,0
2,62,0,0
2,64,0,0
2,62,49,4
2,66,49,0
2,69,49,0
2,69,0,12
2,66,0,0
2,62,0,0
2,74,49,276
2,74,0,12
2,61,49,4
2,66,49,0
2,86,49,0
2,86,0,20
2,66,0,0
2,61,0,0
2,62,49,4
2,67,49,0
2,71,49,0
2,67,0,12
2,62,0,0
2,71,0,8
2,62,49,4
2,64,49,0
2,67,49,8
2,70,49,8
2,64,0,4
2,62,0,0
2,67,0,8
2,70,0,8
2,54,49,4
2,57,49,0
2,62,49,0
2,62,0,12
2,57,0,0
2,54,0,0
2,57,49,4
2,62,49,0
2,66,49,0
2,86,49,0
2,86,0,20
2,57,0,0
2,62,0,0
2,66,0,0
2,50,49,4
2,55,49,0
2,59,49,0
2,55,0,12
2,59,0,8
2,50,0,0
2,52,49,4
2,55,49,0
2,58,49,0
2,58,0,20
2,55,0,0
2,52,0,0
2,62,49,4
2,66,49,0
2,69,49,0
2,69,0,20
2,66,0,0
2,62,0,0
2,64,76,460
2,66,76,0
2,71,76,0
2,74,76,0
2,74,0,44
2,64,0,0
2,66,0,0
2,71,0,0
2,63,77,4
2,66,77,0
2,70,77,0
2,73,77,0
2,73,0,44
2,63,0,0
2,66,0,0
2,70,0,0
2,62,76,4
2,66,76,0
2,69,76,0
2,72,76,0
2,69,0,92
2,62,0,0
2,66,0,0
2,62,67,4
2,66,67,0
2,69,67,0
2,66,0,68
2,62,0,0
2,72,0,24
2,69,0,0
2,50,60,4
2,55,60,0
2,59,60,0
2,59,0,12
2,55,0,0
2,50,0,0
