track,note,velocity,time
1,34,100,1536
1,34,100,36
1,34,100,36
1,34,100,36
1,34,100,36
1,34,100,36
1,34,100,36
1,34,100,36
1,31,100,36
1,31,100,36
1,31,100,36
1,31,100,36
1,31,100,36
1,31,100,36
1,31,100,36
1,31,100,36
1,39,100,36
1,39,100,36
1,39,100,36
1,39,100,36
1,39,100,36
1,39,100,36
1,39,100,36
1,39,100,36
1,34,100,36
1,34,100,36
1,34,100,36
1,34,100,36
1,34,100,36
1,34,100,36
1,34,100,36
1,34,100,36
1,41,100,36
1,41,100,36
1,41,100,36
1,41,100,36
1,41,100,36
1,41,100,36
1,41,100,36
1,41,100,36
1,31,100,36
1,31,100,36
1,31,100,36
1,31,100,36
1,31,100,36
1,31,100,36
1,31,100,36
1,31,100,36
1,39,100,36
1,39,100,36
1,39,100,36
1,39,100,36
1,39,100,36
1,39,100,36
1,39,100,36
1,39,100,36
1,34,100,36
1,34,100,36
1,34,100,36
1,34,100,36
1,34,100,36
1,34,100,36
1,34,100,36
1,34,100,36
1,41,100,36
1,41,100,36
1,41,100,36
1,41,100,36
1,41,100,36
1,41,100,36
1,41,100,36
1,41,100,36
1,36,100,36
1,36,100,36
1,36,100,36
1,36,100,36
1,36,100,36
1,36,100,36
1,36,100,36
1,36,100,36
1,43,100,36
1,43,100,36
1,43,100,36
1,43,100,36
1,43,100,36
1,43,100,36
1,43,100,36
1,43,100,36
1,34,100,36
1,34,100,36
1,34,100,36
1,34,100,36
1,34,100,36
1,34,100,36
1,34,100,36
1,34,100,36
1,41,100,36
1,41,100,36
1,41,100,36
1,41,100,36
1,41,100,36
1,41,100,36
1,41,100,36
1,41,100,36
1,34,100,36
1,34,100,36
1,34,100,36
1,34,100,36
1,34,100,36
1,34,100,36
1,34,100,36
1,34,100,36
1,39,100,36
1,39,100,36
1,39,100,36
1,39,100,36
1,39,100,36
1,39,100,36
1,39,100,36
1,39,100,36
1,41,100,36
1,41,100,36
1,41,100,36
1,41,100,36
1,41,100,36
1,41,100,36
1,41,100,36
1,41,100,36
1,34,100,36
1,34,100,36
1,34,100,36
1,34,100,36
1,34,100,36
1,34,100,36
1,34,100,36
1,34,100,36
1,31,100,36
1,31,100,36
1,31,100,36
1,31,100,36
1,31,100,36
1,31,100,36
1,31,100,36
1,31,100,36
1,39,100,36
1,39,100,36
1,39,100,36
1,39,100,36
1,39,100,36
1,39,100,36
1,39,100,36
1,39,100,36
1,34,100,36
1,34,100,36
1,34,100,36
1,34,100,36
1,34,100,36
1,34,100,36
1,34,100,36
1,34,100,36
1,41,100,36
1,41,100,36
1,41,100,36
1,41,100,36
1,41,100,36
1,41,100,36
1,41,100,36
1,41,100,36
1,31,100,36
1,31,100,36
1,31,100,36
1,31,100,36
1,31,100,36
1,31,100,36
1,31,100,36
1,31,100,36
1,39,100,36
1,39,100,36
1,39,100,36
1,39,100,36
1,39,100,36
1,39,100,36
1,39,100,36
1,39,100,36
1,34,100,36
1,34,100,36
1,34,100,36
1,34,100,36
1,34,100,36
1,34,100,36
1,34,100,36
1,34,100,36
1,41,100,36
1,41,100,36
1,41,100,36
1,41,100,36
1,41,100,36
1,41,100,36
1,41,100,36
1,41,100,36
1,36,100,36
1,36,100,36
1,36,100,36
1,36,100,36
1,36,100,36
1,36,100,36
1,36,100,36
1,36,100,36
1,43,100,36
1,43,100,36
1,43,100,36
1,43,100,36
1,43,100,36
1,43,100,36
1,43,100,36
1,43,100,36
1,34,100,36
1,34,100,36
1,34,100,36
1,34,100,36
1,34,100,36
1,34,100,36
1,34,100,36
1,34,100,36
1,41,100,36
1,41,100,36
1,41,100,36
1,41,100,36
1,41,100,36
1,41,100,36
1,41,100,36
1,41,100,36
1,34,100,36
1,34,100,36
1,34,100,36
1,34,100,36
1,34,100,36
1,34,100,36
1,34,100,36
1,34,100,36
1,39,100,36
1,39,100,36
1,39,100,36
1,39,100,36
1,39,100,36
1,39,100,36
1,39,100,36
1,39,100,36
1,41,100,36
1,41,100,36
1,41,100,36
1,41,100,36
1,41,100,36
1,41,100,36
1,41,100,36
1,41,100,36
1,34,100,36
1,34,100,36
1,34,100,36
1,34,100,36
1,34,100,36
1,34,100,36
1,34,100,36
1,34,100,36
1,31,100,36
1,31,100,36
1,31,100,36
1,31,100,36
1,31,100,36
1,31,100,36
1,31,100,36
1,31,100,36
1,39,100,36
1,39,100,36
1,39,100,36
1,39,100,36
1,39,100,36
1,39,100,36
1,39,100,36
1,39,100,36
1,34,100,36
1,34,100,36
1,34,100,36
1,34,100,36
1,34,100,36
1,34,100,36
1,34,100,36
1,34,100,36
1,41,100,36
1,41,100,36
1,41,100,36
1,41,100,36
1,41,100,36
1,41,100,36
1,41,100,36
1,41,100,36
1,31,100,36
1,31,100,36
1,31,100,36
1,31,100,36
1,31,100,36
1,31,100,36
1,31,100,36
1,31,100,36
1,39,100,36
1,39,100,36
1,39,100,36
1,39,100,36
1,39,100,36
1,39,100,36
1,39,100,36
1,39,100,36
1,39,100,36
1,39,100,36
1,34,100,36
1,34,100,36
1,34,100,36
1,34,100,36
1,34,100,36
1,34,100,36
1,34,100,36
1,34,100,36
1,41,100,36
1,41,100,36
1,41,100,36
1,41,100,36
1,41,100,36
1,41,100,36
1,41,100,36
1,41,100,36
1,43,100,36
1,43,100,36
1,43,100,36
1,43,100,36
1,43,100,36
1,43,100,36
1,43,100,36
1,43,100,36
1,39,100,36
1,39,100,36
1,39,100,36
1,39,100,36
1,39,100,36
1,39,100,36
1,39,100,36
1,39,100,36
1,39,100,36
1,39,100,36
1,34,100,36
1,34,100,36
1,34,100,36
1,34,100,36
1,34,100,36
1,34,100,36
1,34,100,36
1,34,100,36
1,41,100,36
1,41,100,36
1,41,100,36
1,41,100,36
1,41,100,36
1,41,100,36
1,41,100,36
1,41,100,36
1,43,100,36
1,43,100,36
1,43,100,36
1,43,100,36
1,43,100,36
1,43,100,36
1,43,100,36
1,43,100,36
1,43,100,36
1,43,100,36
1,43,100,36
1,43,100,36
1,43,100,36
1,43,100,36
1,43,100,36
1,43,100,36
1,36,100,36
1,36,100,36
1,36,100,36
1,36,100,36
1,36,100,36
1,36,100,36
1,36,100,36
1,36,100,36
1,33,100,36
1,33,100,36
1,33,100,36
1,33,100,36
1,33,100,36
1,33,100,36
1,33,100,36
1,33,100,36
1,41,100,36
1,41,100,36
1,41,100,36
1,41,100,36
1,41,100,36
1,41,100,36
1,41,100,36
1,41,100,36
1,36,100,36
1,36,100,36
1,36,100,36
1,36,100,36
1,36,100,36
1,36,100,36
1,36,100,36
1,36,100,36
1,43,100,36
1,43,100,36
1,43,100,36
1,43,100,36
1,43,100,36
1,43,100,36
1,43,100,36
1,43,100,36
1,33,100,36
1,33,100,36
1,33,100,36
1,33,100,36
1,33,100,36
1,33,100,36
1,33,100,36
1,33,100,36
1,41,100,36
1,41,100,36
1,41,100,36
1,41,100,36
1,41,100,36
1,41,100,36
1,41,100,36
1,41,100,36
1,36,100,36
1,36,100,36
1,36,100,36
1,36,100,36
1,36,100,36
1,36,100,36
1,36,100,36
1,36,100,36
1,43,100,36
1,43,100,36
1,43,100,36
1,43,100,36
1,43,100,36
1,43,100,36
1,43,100,36
1,43,100,36
1,38,100,36
1,38,100,36
1,38,100,36
1,38,100,36
1,38,100,36
1,38,100,36
1,38,100,36
1,38,100,36
1,45,100,36
1,45,100,36
1,45,100,36
1,45,100,36
1,45,100,36
1,45,100,36
1,45,100,36
1,45,100,36
1,36,100,36
1,36,100,36
1,36,100,36
1,36,100,36
1,36,100,36
1,36,100,36
1,36,100,36
1,36,100,36
1,43,100,36
1,43,100,36
1,43,100,36
1,43,100,36
1,43,100,36
1,43,100,36
1,43,100,36
1,43,100,36
1,36,100,36
1,36,100,36
1,36,100,36
1,36,100,36
1,36,100,36
1,36,100,36
1,36,100,36
1,36,100,36
1,41,100,36
1,41,100,36
1,41,100,36
1,41,100,36
1,41,100,36
1,41,100,36
1,41,100,36
1,41,100,36
1,43,100,36
1,43,100,36
1,43,100,36
1,43,100,36
1,43,100,36
1,43,100,36
1,43,100,36
1,43,100,36
1,36,100,36
1,36,100,36
1,36,100,36
1,36,100,36
1,36,100,36
1,36,100,36
1,36,100,36
1,36,100,36
1,43,100,36
1,43,100,36
1,43,100,36
1,43,100,36
1,43,100,36
1,43,100,36
1,43,100,36
1,43,100,36
1,38,100,36
1,38,100,36
1,38,100,36
1,38,100,36
1,38,100,36
1,38,100,36
1,38,100,36
1,38,100,36
1,45,100,36
1,45,100,36
1,45,100,36
1,45,100,36
1,45,100,36
1,45,100,36
1,45,100,36
1,45,100,36
1,36,100,36
1,36,100,36
1,36,100,36
1,36,100,36
1,36,100,36
1,36,100,36
1,36,100,36
1,36,100,36
1,43,100,36
1,43,100,36
1,43,100,36
1,43,100,36
1,43,100,36
1,43,100,36
1,43,100,36
1,43,100,36
1,33,100,36
1,33,100,36
1,33,100,36
1,33,100,36
1,33,100,36
1,33,100,36
1,33,100,36
1,33,100,36
1,33,100,36
1,33,100,36
1,33,100,36
1,33,100,36
1,33,100,36
1,33,100,36
1,33,100,4
1,33,100,36
1,38,100,36
1,38,100,36
1,38,100,36
1,38,100,36
1,38,100,36
1,38,100,36
1,38,100,36
1,38,100,36
1,35,100,36
1,35,100,36
1,35,100,36
1,35,100,36
1,35,100,36
1,35,100,36
1,35,100,36
1,35,100,36
1,43,100,36
1,43,100,36
1,43,100,36
1,43,100,36
1,43,100,36
1,43,100,36
1,43,100,36
1,43,100,36
1,38,100,36
1,38,100,36
1,38,100,36
1,38,100,36
1,38,100,36
1,38,100,36
1,38,100,36
1,38,100,36
1,45,100,36
1,45,100,36
1,45,100,36
1,45,100,36
1,45,100,36
1,45,100,36
1,45,100,36
1,45,100,36
1,35,100,36
1,35,100,36
1,35,100,36
1,35,100,36
1,35,100,36
1,35,100,36
1,35,100,36
1,35,100,36
1,43,100,36
1,43,100,36
1,43,100,36
1,43,100,36
1,43,100,36
1,43,100,36
1,43,100,36
1,43,100,36
1,43,100,36
1,43,100,36
1,38,100,36
1,38,100,36
1,38,100,36
1,38,100,36
1,38,100,36
1,38,100,36
1,38,100,36
1,38,100,36
1,45,100,36
1,45,100,36
1,45,100,36
1,45,100,36
1,45,100,36
1,45,100,36
1,45,100,36
1,45,100,36
1,35,100,36
1,35,100,36
1,35,100,36
1,35,100,36
1,35,100,36
1,35,100,36
1,35,100,36
1,35,100,36
1,43,100,36
1,43,100,36
1,43,100,36
1,43,100,36
1,43,100,36
1,43,100,36
1,43,100,36
1,43,100,36
1,43,100,36
1,43,100,36
1,38,100,36
1,38,100,36
1,38,100,36
1,38,100,36
1,38,100,36
1,38,100,36
1,38,100,36
1,38,100,36
1,45,100,36
1,45,100,36
1,45,100,36
1,45,100,36
1,45,100,36
1,45,100,36
1,45,100,36
1,45,100,36
1,35,100,36
1,35,100,36
1,35,100,36
1,35,100,36
1,35,100,36
1,35,100,36
1,35,100,36
1,35,100,36
1,35,100,36
1,35,100,36
1,35,100,36
1,35,100,36
1,35,100,36
1,35,100,36
1,35,100,36
1,35,100,36
1,40,100,36
1,40,100,36
1,40,100,36
1,40,100,36
1,40,100,36
1,40,100,36
1,40,100,36
1,40,100,36
1,35,100,36
1,35,100,36
1,35,100,36
1,35,100,36
1,35,100,36
1,35,100,36
1,35,100,36
1,35,100,36
1,30,100,36
1,30,100,36
1,30,100,36
1,30,100,36
1,30,100,36
1,30,100,36
1,30,100,36
1,30,100,36
1,37,100,36
1,37,100,36
1,37,100,36
1,37,100,36
1,37,100,36
1,37,100,36
1,37,100,36
1,37,100,36
1,40,100,36
1,40,100,36
1,40,100,36
1,40,100,36
1,40,100,36
1,40,100,36
1,40,100,36
1,40,100,36
1,35,100,36
1,35,100,36
1,35,100,36
1,35,100,36
1,35,100,36
1,35,100,36
1,35,100,36
1,35,100,36
1,40,100,36
1,40,100,36
1,40,100,36
1,40,100,36
1,40,100,36
1,40,100,36
1,40,100,36
1,40,100,36
1,33,100,36
1,33,100,36
1,33,100,36
1,33,100,36
1,33,100,36
1,33,100,36
1,33,100,36
1,33,100,36
1,35,100,36
1,35,100,36
1,35,100,36
1,35,100,36
1,35,100,36
1,35,100,36
1,35,100,36
1,35,100,36
1,40,100,36
1,40,100,36
1,40,100,36
1,40,100,36
1,40,100,36
1,40,100,36
1,40,100,36
1,40,100,36
1,35,100,36
1,35,100,36
1,35,100,36
1,35,100,36
1,35,100,36
1,35,100,36
1,35,100,36
1,35,100,36
1,30,100,36
1,30,100,36
1,30,100,36
1,30,100,36
1,30,100,36
1,30,100,36
1,30,100,36
1,30,100,36
1,37,100,36
1,37,100,36
1,37,100,36
1,37,100,36
1,37,100,36
1,37,100,36
1,37,100,36
1,37,100,36
1,40,100,36
1,40,100,36
1,40,100,36
1,40,100,36
1,40,100,36
1,40,100,36
1,40,100,36
1,40,100,36
1,35,100,36
1,35,100,36
1,35,100,36
1,35,100,36
1,35,100,36
1,35,100,36
1,35,100,36
1,35,100,36
1,37,100,36
1,37,100,36
1,37,100,36
1,37,100,36
1,37,100,36
1,37,100,36
1,37,100,36
1,37,100,36
1,37,100,36
1,37,100,36
1,37,100,36
1,37,100,36
1,37,100,36
1,37,100,36
1,37,100,4
1,37,100,36
2,46,100,1536
2,46,100,36
2,34,100,36
2,34,100,36
2,46,100,36
2,46,100,36
2,34,100,36
2,34,100,36
2,43,100,36
2,43,100,36
2,31,100,36
2,31,100,36
2,43,100,36
2,43,100,36
2,31,100,36
2,31,100,36
2,51,100,36
2,51,100,36
2,39,100,36
2,39,100,36
2,51,100,36
2,51,100,36
2,39,100,36
2,39,100,36
2,46,100,36
2,46,100,36
2,34,100,36
2,34,100,36
2,46,100,36
2,46,100,36
2,34,100,36
2,34,100,36
2,53,100,36
2,53,100,36
2,41,100,36
2,41,100,36
2,53,100,36
2,53,100,36
2,41,100,36
2,41,100,36
2,43,100,36
2,43,100,36
2,31,100,36
2,31,100,36
2,43,100,36
2,43,100,36
2,31,100,36
2,31,100,36
2,51,100,36
2,51,100,36
2,39,100,36
2,39,100,36
2,51,100,36
2,51,100,36
2,39,100,36
2,39,100,36
2,46,100,36
2,46,100,36
2,34,100,36
2,34,100,36
2,46,100,36
2,46,100,36
2,34,100,36
2,34,100,36
2,53,100,36
2,53,100,36
2,41,100,36
2,41,100,36
2,53,100,36
2,53,100,36
2,41,100,36
2,41,100,36
2,48,100,36
2,48,100,36
2,36,100,36
2,36,100,36
2,48,100,36
2,48,100,36
2,36,100,36
2,36,100,36
2,55,100,36
2,55,100,36
2,43,100,36
2,43,100,36
2,55,100,36
2,55,100,36
2,43,100,36
2,43,100,36
2,46,100,36
2,46,100,36
2,34,100,36
2,34,100,36
2,46,100,36
2,46,100,36
2,34,100,36
2,34,100,36
2,53,100,36
2,53,100,36
2,41,100,36
2,41,100,36
2,53,100,36
2,53,100,36
2,41,100,36
2,41,100,36
2,46,100,36
2,46,100,36
2,34,100,36
2,34,100,36
2,46,100,36
2,46,100,36
2,34,100,36
2,34,100,36
2,51,100,36
2,51,100,36
2,39,100,36
2,39,100,36
2,51,100,36
2,51,100,36
2,39,100,36
2,39,100,36
2,53,100,36
2,53,100,36
2,41,100,36
2,41,100,36
2,53,100,36
2,53,100,36
2,41,100,36
2,41,100,36
2,46,100,36
2,46,100,36
2,34,100,36
2,34,100,36
2,46,100,36
2,46,100,36
2,34,100,36
2,34,100,36
2,43,100,36
2,43,100,36
2,31,100,36
2,31,100,36
2,43,100,36
2,43,100,36
2,31,100,36
2,31,100,36
2,51,100,36
2,51,100,36
2,39,100,36
2,39,100,36
2,51,100,36
2,51,100,36
2,39,100,36
2,39,100,36
2,46,100,36
2,46,100,36
2,34,100,36
2,34,100,36
2,46,100,36
2,46,100,36
2,34,100,36
2,34,100,36
2,53,100,36
2,53,100,36
2,41,100,36
2,41,100,36
2,53,100,36
2,53,100,36
2,41,100,36
2,41,100,36
