track,note,velocity,time
1.0,48.0,35.0,384.0
1.0,41.0,32.0,4.0
1.0,60.0,42.0,88.0
1.0,72.0,34.0,86.0
1.0,69.0,35.0,4.0
1.0,65.0,16.0,0.0
1.0,41.0,37.0,82.0
1.0,48.0,28.0,2.0
1.0,60.0,37.0,16.0
1.0,72.0,39.0,48.0
1.0,65.0,32.0,4.0
1.0,69.0,35.0,2.0
1.0,58.0,56.0,68.0
1.0,48.0,54.0,2.0
1.0,62.0,34.0,38.0
1.0,70.0,42.0,2.0
1.0,72.0,52.0,0.0
1.0,64.0,19.0,6.0
1.0,48.0,55.0,44.0
1.0,41.0,53.0,0.0
1.0,60.0,60.0,4.0
1.0,72.0,60.0,78.0
1.0,69.0,54.0,2.0
1.0,65.0,46.0,4.0
1.0,48.0,43.0,90.0
1.0,41.0,51.0,2.0
1.0,60.0,53.0,42.0
1.0,65.0,50.0,92.0
1.0,69.0,44.0,8.0
1.0,72.0,17.0,4.0
1.0,58.0,72.0,76.0
1.0,48.0,65.0,8.0
1.0,70.0,51.0,62.0
1.0,72.0,47.0,2.0
1.0,62.0,31.0,2.0
1.0,48.0,55.0,82.0
1.0,41.0,52.0,12.0
1.0,60.0,63.0,114.0
1.0,72.0,62.0,0.0
1.0,69.0,63.0,4.0
1.0,65.0,57.0,2.0
1.0,48.0,46.0,84.0
1.0,57.0,53.0,4.0
1.0,60.0,43.0,38.0
1.0,65.0,19.0,70.0
1.0,72.0,33.0,2.0
1.0,69.0,19.0,0.0
1.0,48.0,65.0,48.0
1.0,41.0,49.0,8.0
1.0,65.0,57.0,72.0
1.0,72.0,51.0,0.0
1.0,69.0,35.0,4.0
1.0,49.0,63.0,2.0
1.0,42.0,62.0,4.0
1.0,61.0,60.0,140.0
1.0,72.0,57.0,74.0
1.0,69.0,42.0,4.0
1.0,65.0,38.0,0.0
1.0,49.0,38.0,54.0
1.0,58.0,57.0,8.0
1.0,61.0,60.0,8.0
1.0,72.0,51.0,100.0
1.0,65.0,40.0,6.0
1.0,69.0,34.0,4.0
1.0,49.0,74.0,48.0
1.0,42.0,69.0,8.0
1.0,65.0,69.0,36.0
1.0,69.0,59.0,4.0
1.0,72.0,64.0,2.0
1.0,50.0,81.0,12.0
1.0,43.0,89.0,2.0
1.0,62.0,76.0,10.0
1.0,65.0,75.0,52.0
1.0,72.0,75.0,4.0
1.0,69.0,66.0,4.0
1.0,58.0,79.0,74.0
1.0,50.0,74.0,8.0
1.0,62.0,53.0,2.0
1.0,65.0,55.0,76.0
1.0,72.0,55.0,4.0
1.0,69.0,48.0,2.0
1.0,43.0,55.0,82.0
1.0,50.0,58.0,4.0
1.0,65.0,63.0,70.0
1.0,69.0,45.0,14.0
1.0,72.0,46.0,2.0
1.0,48.0,66.0,64.0
1.0,36.0,54.0,8.0
1.0,62.0,51.0,10.0
1.0,70.0,52.0,6.0
1.0,72.0,43.0,0.0
1.0,64.0,39.0,6.0
1.0,48.0,67.0,50.0
1.0,60.0,34.0,58.0
1.0,72.0,63.0,4.0
1.0,72.0,75.0,78.0
1.0,72.0,84.0,96.0
1.0,72.0,97.0,120.0
1.0,41.0,39.0,8.0
1.0,48.0,32.0,6.0
1.0,64.0,65.0,106.0
1.0,74.0,72.0,0.0
1.0,72.0,79.0,60.0
1.0,67.0,63.0,4.0
1.0,70.0,81.0,90.0
1.0,58.0,47.0,10.0
1.0,48.0,36.0,6.0
1.0,69.0,79.0,92.0
1.0,70.0,63.0,60.0
1.0,69.0,64.0,74.0
1.0,60.0,59.0,0.0
1.0,48.0,54.0,8.0
1.0,67.0,56.0,12.0
1.0,48.0,47.0,102.0
1.0,65.0,48.0,2.0
1.0,41.0,32.0,8.0
1.0,69.0,43.0,18.0
1.0,60.0,41.0,234.0
1.0,48.0,34.0,0.0
1.0,57.0,32.0,6.0
1.0,62.0,41.0,50.0
1.0,65.0,49.0,2.0
1.0,60.0,40.0,28.0
1.0,62.0,52.0,44.0
1.0,48.0,50.0,10.0
1.0,60.0,58.0,26.0
1.0,48.0,44.0,62.0
1.0,67.0,79.0,0.0
1.0,41.0,32.0,14.0
1.0,70.0,63.0,4.0
1.0,62.0,47.0,198.0
1.0,58.0,47.0,6.0
1.0,48.0,37.0,14.0
1.0,67.0,57.0,8.0
1.0,64.0,42.0,14.0
1.0,60.0,37.0,90.0
1.0,62.0,42.0,6.0
1.0,48.0,52.0,14.0
1.0,60.0,53.0,24.0
1.0,41.0,39.0,74.0
1.0,69.0,60.0,6.0
1.0,48.0,47.0,4.0
1.0,72.0,53.0,2.0
1.0,48.0,54.0,218.0
1.0,64.0,45.0,2.0
1.0,57.0,62.0,4.0
1.0,69.0,57.0,10.0
1.0,65.0,44.0,14.0
1.0,62.0,75.0,22.0
1.0,72.0,69.0,10.0
1.0,72.0,83.0,8.0
1.0,60.0,71.0,18.0
1.0,48.0,63.0,8.0
1.0,72.0,95.0,44.0
1.0,72.0,97.0,94.0
1.0,48.0,54.0,24.0
1.0,41.0,50.0,2.0
1.0,64.0,72.0,40.0
1.0,74.0,79.0,0.0
1.0,72.0,84.0,58.0
1.0,67.0,54.0,0.0
1.0,70.0,95.0,64.0
1.0,48.0,47.0,8.0
1.0,58.0,67.0,0.0
1.0,69.0,92.0,88.0
1.0,70.0,88.0,24.0
1.0,69.0,82.0,44.0
1.0,60.0,63.0,6.0
1.0,48.0,71.0,4.0
1.0,67.0,79.0,40.0
1.0,64.0,57.0,4.0
1.0,65.0,87.0,74.0
1.0,48.0,38.0,12.0
1.0,41.0,40.0,10.0
1.0,69.0,70.0,2.0
1.0,57.0,47.0,76.0
1.0,60.0,58.0,2.0
1.0,48.0,41.0,4.0
1.0,62.0,53.0,10.0
1.0,65.0,53.0,6.0
1.0,60.0,30.0,52.0
1.0,62.0,43.0,52.0
1.0,48.0,39.0,8.0
1.0,60.0,42.0,24.0
1.0,48.0,37.0,20.0
1.0,41.0,35.0,0.0
1.0,67.0,59.0,2.0
1.0,70.0,48.0,78.0
1.0,62.0,47.0,206.0
1.0,58.0,34.0,8.0
1.0,48.0,28.0,48.0
1.0,64.0,51.0,30.0
1.0,60.0,44.0,14.0
1.0,67.0,56.0,0.0
1.0,48.0,48.0,0.0
1.0,62.0,48.0,4.0
1.0,60.0,49.0,52.0
1.0,65.0,52.0,34.0
1.0,41.0,36.0,2.0
1.0,48.0,42.0,4.0
1.0,68.0,72.0,92.0
1.0,77.0,62.0,16.0
1.0,74.0,47.0,30.0
1.0,69.0,21.0,28.0
1.0,72.0,49.0,16.0
1.0,60.0,34.0,52.0
1.0,72.0,81.0,0.0
1.0,72.0,72.0,88.0
1.0,72.0,88.0,84.0
1.0,72.0,83.0,110.0
1.0,41.0,40.0,4.0
1.0,48.0,36.0,4.0
1.0,64.0,32.0,6.0
1.0,74.0,68.0,0.0
1.0,72.0,77.0,30.0
1.0,67.0,36.0,12.0
1.0,70.0,75.0,66.0
1.0,58.0,57.0,12.0
1.0,48.0,44.0,10.0
1.0,69.0,65.0,28.0
1.0,70.0,74.0,54.0
1.0,69.0,73.0,52.0
1.0,48.0,59.0,2.0
1.0,60.0,58.0,4.0
1.0,64.0,46.0,38.0
1.0,67.0,68.0,2.0
1.0,65.0,74.0,62.0
1.0,41.0,49.0,10.0
1.0,48.0,38.0,12.0
1.0,69.0,63.0,0.0
1.0,60.0,52.0,24.0
1.0,57.0,47.0,6.0
1.0,48.0,41.0,12.0
1.0,65.0,51.0,10.0
1.0,62.0,34.0,6.0
1.0,60.0,33.0,70.0
1.0,62.0,51.0,14.0
1.0,48.0,56.0,8.0
1.0,60.0,52.0,8.0
1.0,67.0,70.0,18.0
1.0,41.0,36.0,6.0
1.0,48.0,37.0,12.0
1.0,70.0,59.0,2.0
1.0,62.0,56.0,2.0
1.0,58.0,50.0,28.0
1.0,48.0,26.0,4.0
1.0,67.0,51.0,40.0
1.0,64.0,47.0,6.0
1.0,60.0,35.0,6.0
1.0,62.0,53.0,28.0
1.0,48.0,54.0,2.0
1.0,60.0,62.0,24.0
1.0,48.0,46.0,52.0
1.0,69.0,71.0,0.0
1.0,41.0,43.0,2.0
1.0,72.0,68.0,4.0
1.0,57.0,68.0,218.0
1.0,64.0,62.0,8.0
1.0,48.0,32.0,16.0
1.0,65.0,51.0,46.0
1.0,69.0,58.0,2.0
1.0,62.0,88.0,8.0
1.0,72.0,83.0,28.0
1.0,72.0,70.0,32.0
1.0,60.0,58.0,16.0
1.0,48.0,30.0,6.0
1.0,72.0,81.0,4.0
1.0,72.0,88.0,118.0
1.0,41.0,46.0,8.0
1.0,48.0,40.0,10.0
1.0,64.0,54.0,18.0
1.0,74.0,63.0,0.0
1.0,72.0,73.0,0.0
1.0,67.0,46.0,20.0
1.0,70.0,72.0,64.0
1.0,58.0,53.0,22.0
1.0,48.0,51.0,8.0
1.0,69.0,66.0,90.0
1.0,70.0,70.0,20.0
1.0,60.0,58.0,28.0
1.0,69.0,67.0,2.0
1.0,48.0,47.0,14.0
1.0,67.0,59.0,12.0
1.0,64.0,53.0,2.0
1.0,65.0,75.0,86.0
1.0,48.0,38.0,18.0
1.0,41.0,40.0,12.0
1.0,69.0,62.0,0.0
1.0,60.0,48.0,216.0
1.0,48.0,28.0,24.0
1.0,57.0,33.0,4.0
1.0,65.0,47.0,6.0
1.0,62.0,31.0,6.0
1.0,60.0,31.0,56.0
1.0,62.0,38.0,52.0
1.0,48.0,45.0,2.0
1.0,60.0,50.0,44.0
1.0,67.0,57.0,2.0
1.0,41.0,38.0,16.0
1.0,48.0,34.0,10.0
1.0,70.0,55.0,128.0
1.0,62.0,46.0,244.0
1.0,58.0,40.0,22.0
1.0,48.0,28.0,10.0
1.0,64.0,53.0,46.0
1.0,60.0,48.0,10.0
1.0,67.0,52.0,12.0
1.0,62.0,43.0,16.0
1.0,48.0,47.0,10.0
1.0,60.0,46.0,2.0
1.0,65.0,67.0,40.0
1.0,48.0,51.0,14.0
1.0,41.0,40.0,10.0
1.0,68.0,90.0,40.0
1.0,77.0,88.0,10.0
1.0,74.0,71.0,38.0
1.0,69.0,54.0,14.0
1.0,72.0,45.0,72.0
1.0,60.0,70.0,34.0
1.0,56.0,63.0,22.0
1.0,65.0,55.0,20.0
1.0,57.0,62.0,8.0
1.0,62.0,45.0,18.0
1.0,60.0,57.0,74.0
1.0,48.0,90.0,42.0
1.0,36.0,59.0,14.0
1.0,70.0,53.0,138.0
1.0,64.0,20.0,2.0
1.0,72.0,53.0,2.0
1.0,72.0,63.0,60.0
1.0,70.0,47.0,0.0
1.0,64.0,28.0,2.0
1.0,36.0,68.0,68.0
1.0,50.0,87.0,106.0
1.0,72.0,59.0,4.0
1.0,70.0,57.0,0.0
1.0,65.0,47.0,10.0
1.0,65.0,40.0,46.0
1.0,72.0,47.0,2.0
1.0,70.0,35.0,2.0
1.0,52.0,100.0,40.0
1.0,67.0,68.0,122.0
1.0,72.0,59.0,0.0
1.0,70.0,42.0,8.0
1.0,53.0,89.0,72.0
1.0,48.0,58.0,18.0
1.0,55.0,74.0,0.0
1.0,72.0,57.0,0.0
1.0,62.0,36.0,4.0
1.0,69.0,31.0,0.0
1.0,72.0,40.0,60.0
1.0,69.0,52.0,8.0
1.0,62.0,34.0,6.0
1.0,57.0,80.0,38.0
1.0,48.0,41.0,18.0
1.0,62.0,47.0,104.0
1.0,69.0,47.0,4.0
1.0,65.0,33.0,20.0
1.0,60.0,37.0,104.0
1.0,62.0,47.0,60.0
1.0,36.0,49.0,6.0
1.0,60.0,60.0,28.0
1.0,55.0,87.0,78.0
1.0,48.0,64.0,22.0
1.0,72.0,61.0,110.0
1.0,64.0,63.0,0.0
1.0,70.0,63.0,2.0
1.0,57.0,82.0,24.0
1.0,70.0,44.0,86.0
1.0,72.0,47.0,4.0
1.0,64.0,50.0,4.0
1.0,58.0,91.0,72.0
1.0,48.0,35.0,4.0
1.0,67.0,57.0,104.0
1.0,62.0,45.0,2.0
1.0,64.0,47.0,2.0
1.0,60.0,49.0,76.0
1.0,36.0,72.0,70.0
1.0,62.0,56.0,2.0
1.0,60.0,62.0,24.0
1.0,57.0,93.0,96.0
1.0,48.0,70.0,16.0
1.0,65.0,59.0,130.0
1.0,58.0,97.0,10.0
1.0,72.0,49.0,2.0
1.0,69.0,41.0,2.0
1.0,72.0,57.0,62.0
1.0,69.0,60.0,2.0
1.0,65.0,49.0,0.0
1.0,60.0,87.0,70.0
1.0,48.0,25.0,0.0
1.0,69.0,60.0,110.0
1.0,62.0,59.0,4.0
1.0,65.0,46.0,2.0
1.0,60.0,43.0,46.0
1.0,48.0,50.0,52.0
1.0,62.0,59.0,2.0
1.0,60.0,44.0,10.0
1.0,60.0,65.0,46.0
1.0,48.0,67.0,20.0
1.0,70.0,69.0,140.0
1.0,72.0,50.0,4.0
1.0,64.0,40.0,2.0
1.0,72.0,68.0,4.0
1.0,70.0,58.0,6.0
1.0,64.0,65.0,2.0
1.0,48.0,71.0,32.0
1.0,72.0,78.0,112.0
1.0,70.0,70.0,0.0
1.0,62.0,82.0,2.0
1.0,65.0,63.0,6.0
1.0,70.0,61.0,80.0
1.0,65.0,65.0,4.0
1.0,72.0,72.0,4.0
1.0,64.0,102.0,80.0
1.0,70.0,73.0,104.0
1.0,67.0,73.0,2.0
1.0,72.0,62.0,2.0
1.0,65.0,95.0,98.0
1.0,60.0,68.0,26.0
1.0,74.0,74.0,92.0
1.0,84.0,58.0,2.0
1.0,81.0,57.0,0.0
1.0,67.0,85.0,28.0
1.0,84.0,45.0,64.0
1.0,74.0,63.0,6.0
1.0,69.0,83.0,102.0
1.0,60.0,58.0,14.0
1.0,74.0,65.0,46.0
1.0,81.0,59.0,6.0
1.0,77.0,49.0,2.0
1.0,72.0,68.0,64.0
1.0,74.0,57.0,64.0
1.0,72.0,61.0,74.0
1.0,67.0,75.0,76.0
1.0,41.0,38.0,0.0
1.0,48.0,42.0,12.0
1.0,58.0,61.0,44.0
1.0,60.0,61.0,6.0
1.0,64.0,45.0,8.0
1.0,48.0,31.0,42.0
1.0,58.0,39.0,4.0
1.0,69.0,76.0,24.0
1.0,70.0,82.0,38.0
1.0,67.0,72.0,14.0
1.0,65.0,60.0,84.0
1.0,58.0,56.0,2.0
1.0,62.0,41.0,2.0
1.0,48.0,27.0,20.0
1.0,67.0,57.0,48.0
1.0,64.0,57.0,4.0
1.0,49.0,36.0,78.0
1.0,56.0,36.0,2.0
1.0,65.0,23.0,74.0
1.0,75.0,48.0,68.0
1.0,71.0,48.0,4.0
1.0,65.0,45.0,6.0
1.0,68.0,36.0,84.0
1.0,61.0,35.0,4.0
1.0,75.0,28.0,76.0
1.0,71.0,30.0,6.0
1.0,65.0,29.0,2.0
1.0,75.0,56.0,50.0
1.0,71.0,39.0,16.0
1.0,65.0,58.0,8.0
1.0,49.0,52.0,64.0
1.0,56.0,51.0,6.0
1.0,75.0,43.0,86.0
1.0,65.0,51.0,0.0
1.0,71.0,40.0,2.0
1.0,56.0,56.0,96.0
1.0,49.0,55.0,2.0
1.0,75.0,43.0,0.0
1.0,65.0,54.0,0.0
1.0,71.0,32.0,4.0
1.0,71.0,50.0,86.0
1.0,75.0,50.0,0.0
1.0,65.0,57.0,6.0
1.0,68.0,75.0,74.0
1.0,61.0,54.0,20.0
1.0,65.0,72.0,72.0
1.0,75.0,62.0,4.0
1.0,71.0,57.0,4.0
1.0,71.0,46.0,100.0
1.0,75.0,69.0,2.0
1.0,65.0,73.0,4.0
1.0,56.0,79.0,60.0
1.0,49.0,68.0,8.0
1.0,75.0,72.0,10.0
1.0,65.0,82.0,0.0
1.0,71.0,66.0,2.0
1.0,54.0,78.0,8.0
1.0,61.0,83.0,2.0
1.0,73.0,79.0,142.0
1.0,70.0,83.0,0.0
1.0,65.0,80.0,2.0
1.0,73.0,76.0,52.0
1.0,70.0,72.0,4.0
1.0,65.0,71.0,4.0
1.0,61.0,81.0,40.0
1.0,66.0,65.0,8.0
1.0,65.0,88.0,24.0
1.0,73.0,83.0,2.0
1.0,70.0,81.0,6.0
1.0,73.0,73.0,76.0
1.0,65.0,74.0,4.0
1.0,70.0,75.0,2.0
1.0,61.0,92.0,48.0
1.0,54.0,84.0,0.0
1.0,73.0,80.0,8.0
1.0,65.0,84.0,2.0
1.0,70.0,77.0,0.0
1.0,48.0,82.0,28.0
1.0,55.0,95.0,0.0
1.0,74.0,89.0,120.0
1.0,64.0,89.0,4.0
1.0,70.0,85.0,2.0
1.0,64.0,75.0,52.0
1.0,70.0,83.0,4.0
1.0,74.0,95.0,6.0
1.0,60.0,94.0,12.0
1.0,72.0,91.0,60.0
1.0,84.0,88.0,22.0
1.0,84.0,72.0,100.0
1.0,84.0,65.0,104.0
1.0,48.0,46.0,110.0
1.0,41.0,43.0,8.0
1.0,84.0,57.0,6.0
1.0,86.0,43.0,70.0
1.0,76.0,43.0,0.0
1.0,84.0,46.0,26.0
1.0,79.0,46.0,12.0
1.0,58.0,55.0,64.0
1.0,82.0,75.0,4.0
1.0,48.0,31.0,10.0
1.0,81.0,68.0,100.0
1.0,82.0,71.0,14.0
1.0,72.0,59.0,88.0
1.0,81.0,65.0,2.0
1.0,48.0,49.0,10.0
1.0,79.0,45.0,102.0
1.0,76.0,45.0,8.0
1.0,77.0,67.0,80.0
1.0,48.0,25.0,16.0
1.0,41.0,30.0,10.0
1.0,81.0,47.0,10.0
1.0,72.0,57.0,258.0
1.0,57.0,34.0,16.0
1.0,48.0,24.0,0.0
1.0,77.0,47.0,30.0
1.0,74.0,24.0,4.0
1.0,72.0,33.0,30.0
1.0,48.0,41.0,52.0
1.0,74.0,49.0,4.0
1.0,72.0,41.0,58.0
1.0,41.0,36.0,54.0
1.0,79.0,59.0,2.0
1.0,48.0,36.0,12.0
1.0,82.0,54.0,18.0
1.0,58.0,44.0,40.0
1.0,74.0,53.0,8.0
1.0,48.0,29.0,20.0
1.0,76.0,55.0,34.0
1.0,79.0,37.0,0.0
1.0,72.0,48.0,16.0
1.0,48.0,38.0,74.0
1.0,74.0,46.0,2.0
1.0,72.0,68.0,40.0
1.0,81.0,81.0,26.0
1.0,41.0,32.0,6.0
1.0,48.0,37.0,6.0
1.0,84.0,63.0,36.0
1.0,76.0,69.0,250.0
1.0,57.0,64.0,2.0
1.0,48.0,40.0,6.0
1.0,74.0,55.0,30.0
1.0,81.0,61.0,0.0
1.0,77.0,32.0,0.0
1.0,62.0,59.0,4.0
1.0,84.0,64.0,0.0
1.0,72.0,79.0,64.0
1.0,84.0,69.0,4.0
1.0,60.0,32.0,8.0
1.0,84.0,87.0,0.0
1.0,84.0,95.0,108.0
1.0,48.0,47.0,22.0
1.0,41.0,41.0,4.0
1.0,86.0,74.0,0.0
1.0,76.0,58.0,2.0
1.0,84.0,85.0,92.0
1.0,79.0,41.0,14.0
1.0,58.0,65.0,66.0
1.0,82.0,96.0,8.0
1.0,48.0,52.0,12.0
1.0,81.0,86.0,50.0
1.0,82.0,79.0,40.0
1.0,81.0,76.0,76.0
1.0,72.0,65.0,4.0
1.0,48.0,55.0,0.0
1.0,76.0,65.0,42.0
1.0,79.0,65.0,2.0
1.0,77.0,79.0,92.0
1.0,41.0,34.0,18.0
1.0,48.0,32.0,4.0
1.0,81.0,70.0,0.0
1.0,57.0,47.0,254.0
1.0,72.0,65.0,4.0
1.0,48.0,29.0,4.0
1.0,77.0,65.0,44.0
1.0,74.0,48.0,2.0
1.0,72.0,49.0,56.0
1.0,48.0,49.0,36.0
1.0,74.0,61.0,14.0
1.0,72.0,75.0,14.0
1.0,49.0,42.0,40.0
1.0,78.0,72.0,0.0
1.0,41.0,43.0,8.0
1.0,70.0,71.0,4.0
1.0,73.0,28.0,4.0
1.0,73.0,69.0,60.0
1.0,70.0,48.0,18.0
1.0,80.0,94.0,60.0
1.0,58.0,52.0,0.0
1.0,49.0,48.0,4.0
1.0,82.0,104.0,6.0
1.0,73.0,74.0,2.0
1.0,70.0,94.0,2.0
1.0,78.0,91.0,8.0
1.0,73.0,3.0,8.0
1.0,77.0,98.0,18.0
1.0,49.0,68.0,4.0
1.0,41.0,38.0,6.0
1.0,78.0,84.0,8.0
1.0,73.0,62.0,10.0
1.0,70.0,65.0,2.0
1.0,79.0,98.0,32.0
1.0,48.0,76.0,6.0
1.0,41.0,64.0,0.0
1.0,70.0,84.0,16.0
1.0,74.0,69.0,12.0
1.0,70.0,66.0,96.0
1.0,74.0,62.0,0.0
1.0,58.0,95.0,36.0
1.0,81.0,101.0,12.0
1.0,48.0,72.0,4.0
1.0,82.0,106.0,44.0
1.0,70.0,92.0,120.0
1.0,79.0,86.0,2.0
1.0,74.0,70.0,2.0
1.0,41.0,95.0,2.0
1.0,48.0,101.0,4.0
1.0,77.0,94.0,10.0
1.0,70.0,68.0,22.0
1.0,79.0,75.0,0.0
1.0,77.0,117.0,30.0
1.0,93.0,110.0,4.0
1.0,89.0,96.0,0.0
1.0,84.0,92.0,6.0
1.0,81.0,83.0,4.0
1.0,80.0,84.0,54.0
1.0,83.0,84.0,0.0
1.0,89.0,79.0,42.0
1.0,84.0,71.0,16.0
1.0,81.0,84.0,44.0
1.0,77.0,62.0,2.0
1.0,80.0,74.0,72.0
1.0,76.0,68.0,8.0
1.0,86.0,55.0,76.0
1.0,83.0,59.0,4.0
1.0,77.0,76.0,80.0
1.0,74.0,70.0,4.0
1.0,81.0,95.0,78.0
1.0,77.0,70.0,2.0
1.0,65.0,66.0,4.0
1.0,72.0,80.0,34.0
1.0,69.0,76.0,0.0
1.0,71.0,67.0,66.0
1.0,68.0,63.0,6.0
1.0,72.0,76.0,40.0
1.0,77.0,64.0,0.0
1.0,69.0,45.0,52.0
1.0,65.0,66.0,0.0
1.0,68.0,52.0,68.0
1.0,64.0,41.0,6.0
1.0,74.0,42.0,44.0
1.0,71.0,23.0,6.0
1.0,65.0,50.0,52.0
1.0,62.0,50.0,0.0
1.0,65.0,50.0,56.0
1.0,69.0,73.0,2.0
1.0,53.0,49.0,0.0
1.0,57.0,51.0,48.0
1.0,60.0,39.0,0.0
1.0,56.0,38.0,88.0
1.0,59.0,28.0,4.0
1.0,65.0,41.0,2.0
1.0,60.0,35.0,6.0
1.0,57.0,46.0,12.0
1.0,56.0,37.0,70.0
1.0,52.0,35.0,4.0
1.0,62.0,38.0,46.0
1.0,59.0,34.0,6.0
1.0,53.0,44.0,22.0
1.0,61.0,74.0,512.0
1.0,68.0,81.0,0.0
1.0,58.0,81.0,8.0
1.0,66.0,67.0,2.0
1.0,48.0,68.0,6.0
1.0,74.0,54.0,108.0
1.0,67.0,37.0,12.0
1.0,60.0,38.0,0.0
1.0,57.0,27.0,2.0
1.0,53.0,25.0,2.0
0.0,0.0,0.0,0.0
0.0,0.0,0.0,0.0
0.0,0.0,0.0,0.0
0.0,0.0,0.0,0.0
0.0,0.0,0.0,0.0
0.0,0.0,0.0,0.0
0.0,0.0,0.0,0.0
0.0,0.0,0.0,0.0
0.0,0.0,0.0,0.0
0.0,0.0,0.0,0.0
0.0,0.0,0.0,0.0
0.0,0.0,0.0,0.0
0.0,0.0,0.0,0.0
0.0,0.0,0.0,0.0
0.0,0.0,0.0,0.0
0.0,0.0,0.0,0.0
0.0,0.0,0.0,0.0
0.0,0.0,0.0,0.0
0.0,0.0,0.0,0.0
0.0,0.0,0.0,0.0
0.0,0.0,0.0,0.0
0.0,0.0,0.0,0.0
0.0,0.0,0.0,0.0
0.0,0.0,0.0,0.0
0.0,0.0,0.0,0.0
0.0,0.0,0.0,0.0
0.0,0.0,0.0,0.0
0.0,0.0,0.0,0.0
0.0,0.0,0.0,0.0
0.0,0.0,0.0,0.0
0.0,0.0,0.0,0.0
0.0,0.0,0.0,0.0
0.0,0.0,0.0,0.0
0.0,0.0,0.0,0.0
0.0,0.0,0.0,0.0
0.0,0.0,0.0,0.0
0.0,0.0,0.0,0.0
0.0,0.0,0.0,0.0
0.0,0.0,0.0,0.0
0.0,0.0,0.0,0.0
0.0,0.0,0.0,0.0
0.0,0.0,0.0,0.0
0.0,0.0,0.0,0.0
0.0,0.0,0.0,0.0
0.0,0.0,0.0,0.0
0.0,0.0,0.0,0.0
0.0,0.0,0.0,0.0
0.0,0.0,0.0,0.0
0.0,0.0,0.0,0.0
0.0,0.0,0.0,0.0
0.0,0.0,0.0,0.0
0.0,0.0,0.0,0.0
0.0,0.0,0.0,0.0
0.0,0.0,0.0,0.0
0.0,0.0,0.0,0.0
0.0,0.0,0.0,0.0
0.0,0.0,0.0,0.0
0.0,0.0,0.0,0.0
0.0,0.0,0.0,0.0
0.0,0.0,0.0,0.0
0.0,0.0,0.0,0.0
0.0,0.0,0.0,0.0
0.0,0.0,0.0,0.0
0.0,0.0,0.0,0.0
0.0,0.0,0.0,0.0
0.0,0.0,0.0,0.0
0.0,0.0,0.0,0.0
0.0,0.0,0.0,0.0
0.0,0.0,0.0,0.0
0.0,0.0,0.0,0.0
0.0,0.0,0.0,0.0
0.0,0.0,0.0,0.0
0.0,0.0,0.0,0.0
0.0,0.0,0.0,0.0
0.0,0.0,0.0,0.0
0.0,0.0,0.0,0.0
0.0,0.0,0.0,0.0
0.0,0.0,0.0,0.0
0.0,0.0,0.0,0.0
0.0,0.0,0.0,0.0
0.0,0.0,0.0,0.0
0.0,0.0,0.0,0.0
0.0,0.0,0.0,0.0
0.0,0.0,0.0,0.0
0.0,0.0,0.0,0.0
0.0,0.0,0.0,0.0
0.0,0.0,0.0,0.0
0.0,0.0,0.0,0.0
0.0,0.0,0.0,0.0
0.0,0.0,0.0,0.0
0.0,0.0,0.0,0.0
0.0,0.0,0.0,0.0
0.0,0.0,0.0,0.0
0.0,0.0,0.0,0.0
0.0,0.0,0.0,0.0
0.0,0.0,0.0,0.0
0.0,0.0,0.0,0.0
0.0,0.0,0.0,0.0
0.0,0.0,0.0,0.0
0.0,0.0,0.0,0.0
0.0,0.0,0.0,0.0
0.0,0.0,0.0,0.0
0.0,0.0,0.0,0.0
0.0,0.0,0.0,0.0
0.0,0.0,0.0,0.0
0.0,0.0,0.0,0.0
0.0,0.0,0.0,0.0
0.0,0.0,0.0,0.0
0.0,0.0,0.0,0.0
0.0,0.0,0.0,0.0
0.0,0.0,0.0,0.0
0.0,0.0,0.0,0.0
0.0,0.0,0.0,0.0
0.0,0.0,0.0,0.0
0.0,0.0,0.0,0.0
0.0,0.0,0.0,0.0
0.0,0.0,0.0,0.0
0.0,0.0,0.0,0.0
0.0,0.0,0.0,0.0
0.0,0.0,0.0,0.0
0.0,0.0,0.0,0.0
0.0,0.0,0.0,0.0
0.0,0.0,0.0,0.0
0.0,0.0,0.0,0.0
0.0,0.0,0.0,0.0
0.0,0.0,0.0,0.0
0.0,0.0,0.0,0.0
0.0,0.0,0.0,0.0
0.0,0.0,0.0,0.0
0.0,0.0,0.0,0.0
0.0,0.0,0.0,0.0
0.0,0.0,0.0,0.0
0.0,0.0,0.0,0.0
0.0,0.0,0.0,0.0
0.0,0.0,0.0,0.0
0.0,0.0,0.0,0.0
0.0,0.0,0.0,0.0
0.0,0.0,0.0,0.0
0.0,0.0,0.0,0.0
0.0,0.0,0.0,0.0
0.0,0.0,0.0,0.0
0.0,0.0,0.0,0.0
0.0,0.0,0.0,0.0
0.0,0.0,0.0,0.0
0.0,0.0,0.0,0.0
0.0,0.0,0.0,0.0
0.0,0.0,0.0,0.0
0.0,0.0,0.0,0.0
0.0,0.0,0.0,0.0
0.0,0.0,0.0,0.0
0.0,0.0,0.0,0.0
0.0,0.0,0.0,0.0
0.0,0.0,0.0,0.0
0.0,0.0,0.0,0.0
0.0,0.0,0.0,0.0
0.0,0.0,0.0,0.0
0.0,0.0,0.0,0.0
0.0,0.0,0.0,0.0
0.0,0.0,0.0,0.0
0.0,0.0,0.0,0.0
0.0,0.0,0.0,0.0
0.0,0.0,0.0,0.0
0.0,0.0,0.0,0.0
0.0,0.0,0.0,0.0
0.0,0.0,0.0,0.0
0.0,0.0,0.0,0.0
0.0,0.0,0.0,0.0
0.0,0.0,0.0,0.0
0.0,0.0,0.0,0.0
0.0,0.0,0.0,0.0
0.0,0.0,0.0,0.0
0.0,0.0,0.0,0.0
0.0,0.0,0.0,0.0
0.0,0.0,0.0,0.0
0.0,0.0,0.0,0.0
0.0,0.0,0.0,0.0
0.0,0.0,0.0,0.0
0.0,0.0,0.0,0.0
0.0,0.0,0.0,0.0
0.0,0.0,0.0,0.0
0.0,0.0,0.0,0.0
0.0,0.0,0.0,0.0
0.0,0.0,0.0,0.0
0.0,0.0,0.0,0.0
0.0,0.0,0.0,0.0
0.0,0.0,0.0,0.0
0.0,0.0,0.0,0.0
0.0,0.0,0.0,0.0
0.0,0.0,0.0,0.0
0.0,0.0,0.0,0.0
0.0,0.0,0.0,0.0
0.0,0.0,0.0,0.0
0.0,0.0,0.0,0.0
0.0,0.0,0.0,0.0
0.0,0.0,0.0,0.0
0.0,0.0,0.0,0.0
0.0,0.0,0.0,0.0
0.0,0.0,0.0,0.0
0.0,0.0,0.0,0.0
0.0,0.0,0.0,0.0
0.0,0.0,0.0,0.0
0.0,0.0,0.0,0.0
0.0,0.0,0.0,0.0
0.0,0.0,0.0,0.0
0.0,0.0,0.0,0.0
0.0,0.0,0.0,0.0
0.0,0.0,0.0,0.0
0.0,0.0,0.0,0.0
0.0,0.0,0.0,0.0
0.0,0.0,0.0,0.0
0.0,0.0,0.0,0.0
0.0,0.0,0.0,0.0
0.0,0.0,0.0,0.0
0.0,0.0,0.0,0.0
0.0,0.0,0.0,0.0
0.0,0.0,0.0,0.0
0.0,0.0,0.0,0.0
0.0,0.0,0.0,0.0
0.0,0.0,0.0,0.0
0.0,0.0,0.0,0.0
0.0,0.0,0.0,0.0
0.0,0.0,0.0,0.0
0.0,0.0,0.0,0.0
0.0,0.0,0.0,0.0
0.0,0.0,0.0,0.0
0.0,0.0,0.0,0.0
0.0,0.0,0.0,0.0
0.0,0.0,0.0,0.0
0.0,0.0,0.0,0.0
0.0,0.0,0.0,0.0
0.0,0.0,0.0,0.0
0.0,0.0,0.0,0.0
0.0,0.0,0.0,0.0
0.0,0.0,0.0,0.0
0.0,0.0,0.0,0.0
0.0,0.0,0.0,0.0
0.0,0.0,0.0,0.0
0.0,0.0,0.0,0.0
0.0,0.0,0.0,0.0
0.0,0.0,0.0,0.0
0.0,0.0,0.0,0.0
0.0,0.0,0.0,0.0
0.0,0.0,0.0,0.0
0.0,0.0,0.0,0.0
0.0,0.0,0.0,0.0
0.0,0.0,0.0,0.0
0.0,0.0,0.0,0.0
0.0,0.0,0.0,0.0
0.0,0.0,0.0,0.0
0.0,0.0,0.0,0.0
0.0,0.0,0.0,0.0
0.0,0.0,0.0,0.0
0.0,0.0,0.0,0.0
0.0,0.0,0.0,0.0
0.0,0.0,0.0,0.0
0.0,0.0,0.0,0.0
0.0,0.0,0.0,0.0
0.0,0.0,0.0,0.0
0.0,0.0,0.0,0.0
0.0,0.0,0.0,0.0
0.0,0.0,0.0,0.0
0.0,0.0,0.0,0.0
0.0,0.0,0.0,0.0
0.0,0.0,0.0,0.0
0.0,0.0,0.0,0.0
0.0,0.0,0.0,0.0
0.0,0.0,0.0,0.0
0.0,0.0,0.0,0.0
0.0,0.0,0.0,0.0
0.0,0.0,0.0,0.0
0.0,0.0,0.0,0.0
0.0,0.0,0.0,0.0
0.0,0.0,0.0,0.0
0.0,0.0,0.0,0.0
0.0,0.0,0.0,0.0
0.0,0.0,0.0,0.0
0.0,0.0,0.0,0.0
0.0,0.0,0.0,0.0
0.0,0.0,0.0,0.0
0.0,0.0,0.0,0.0
0.0,0.0,0.0,0.0
0.0,0.0,0.0,0.0
0.0,0.0,0.0,0.0
0.0,0.0,0.0,0.0
0.0,0.0,0.0,0.0
0.0,0.0,0.0,0.0
0.0,0.0,0.0,0.0
