track,note,velocity,time
1,50,85,16700
1,50,0,442
1,49,84,38
1,49,0,202
1,50,85,38
1,50,0,240
1,49,85,240
1,49,0,240
1,47,84,240
1,47,0,202
1,45,91,38
1,45,0,1162
1,45,90,38
1,45,0,202
1,45,92,38
1,45,0,202
1,47,93,38
1,47,0,202
1,40,97,38
1,40,0,202
1,40,84,38
1,40,0,202
1,40,86,38
1,40,0,202
1,52,93,38
1,52,0,202
1,40,93,38
1,40,0,202
1,40,86,38
1,40,0,202
1,40,84,38
1,40,0,202
1,52,95,38
1,52,0,202
1,40,94,38
1,40,0,202
1,52,95,38
1,52,0,202
1,40,95,38
1,40,0,202
1,52,94,38
1,52,0,202
1,40,95,38
1,40,0,202
1,40,86,38
1,40,0,202
1,40,86,38
1,40,0,202
1,40,97,38
1,40,0,215
1,50,85,25
1,50,0,442
1,49,84,38
1,49,0,202
1,50,84,38
1,50,0,240
1,49,85,240
1,49,0,240
1,47,85,240
1,47,0,202
1,45,90,38
1,45,0,1162
1,45,90,38
1,45,0,202
1,45,93,38
1,45,0,202
1,47,92,38
1,47,0,202
1,40,97,38
1,40,0,202
1,40,85,38
1,40,0,202
1,40,86,38
1,40,0,202
1,52,93,38
1,52,0,202
1,40,92,38
1,40,0,202
1,40,86,38
1,40,0,202
1,40,85,38
1,40,0,202
1,52,95,38
1,52,0,202
1,40,94,38
1,40,0,202
1,52,94,38
1,52,0,202
1,40,95,38
1,40,0,202
1,52,95,38
1,52,0,202
1,40,94,38
1,40,0,202
1,40,86,38
1,40,0,202
1,40,87,38
1,40,0,202
1,40,96,38
1,40,0,215
1,50,85,25
1,50,0,442
1,49,85,38
1,49,0,202
1,50,84,38
1,50,0,240
1,49,85,240
1,49,0,240
1,47,84,240
1,47,0,202
1,45,90,38
1,45,0,1162
1,45,91,38
1,45,0,202
1,45,93,38
1,45,0,202
1,47,92,38
1,47,0,202
1,40,96,38
1,40,0,202
1,40,85,38
1,40,0,202
1,40,87,38
1,40,0,202
1,52,92,38
1,52,0,202
1,40,92,38
1,40,0,202
1,40,87,38
1,40,0,202
1,40,84,38
1,40,0,202
1,52,95,38
1,52,0,202
1,40,95,38
1,40,0,202
1,52,94,38
1,52,0,202
1,40,95,38
1,40,0,202
1,52,94,38
1,52,0,202
1,40,94,38
1,40,0,202
1,40,87,38
1,40,0,202
1,40,87,38
1,40,0,202
1,40,96,38
1,40,0,215
1,50,84,25
1,50,0,442
1,49,85,38
1,49,0,202
1,50,85,38
1,50,0,240
1,49,84,240
1,49,0,240
1,47,84,240
1,47,0,202
1,45,91,38
1,45,0,1162
1,45,90,38
1,45,0,202
1,45,93,38
1,45,0,202
1,47,93,38
1,47,0,202
1,40,96,38
1,40,0,202
1,40,85,38
1,40,0,202
1,40,86,38
1,40,0,202
1,52,92,38
1,52,0,202
1,40,93,38
1,40,0,202
1,40,87,38
1,40,0,202
1,40,84,38
1,40,0,202
1,52,94,38
1,52,0,202
1,40,95,38
1,40,0,202
1,52,95,38
1,52,0,202
1,40,94,38
1,40,0,202
1,52,94,38
1,52,0,202
1,40,95,38
1,40,0,202
1,40,86,38
1,40,0,202
1,40,87,38
1,40,0,202
1,40,97,38
1,40,0,215
1,42,116,25
1,42,0,480
1,37,117,480
1,37,0,480
1,45,116,480
1,45,0,480
1,40,116,480
1,40,0,480
1,40,117,480
1,40,0,442
1,52,103,38
1,52,0,442
1,47,112,38
1,47,0,442
1,52,102,38
1,52,0,442
1,35,117,38
1,35,0,442
1,47,113,38
1,47,0,442
1,42,116,38
1,42,0,442
1,47,112,38
1,47,0,442
1,42,117,38
1,42,0,480
1,42,116,480
1,42,0,480
1,38,117,480
1,38,0,442
1,50,103,38
1,50,0,442
1,45,112,38
1,45,0,442
1,50,103,38
1,50,0,442
1,40,116,38
1,40,0,442
1,47,112,38
1,47,0,202
1,52,103,38
1,52,0,202
1,40,117,38
1,40,0,202
1,52,102,38
1,52,0,202
1,40,116,38
1,40,0,202
1,52,103,38
1,52,0,202
1,40,117,38
1,40,0,202
1,52,102,38
1,52,0,202
1,40,116,38
1,40,0,202
1,52,103,38
1,52,0,202
1,40,116,38
1,40,0,720
1,42,117,240
1,42,0,480
1,37,117,480
1,37,0,480
1,45,116,480
1,45,0,480
1,40,117,480
1,40,0,480
1,40,116,480
1,40,0,442
1,52,102,38
1,52,0,442
1,47,113,38
1,47,0,442
1,52,103,38
1,52,0,442
1,35,116,38
1,35,0,442
1,47,112,38
1,47,0,442
1,42,117,38
1,42,0,442
1,47,113,38
1,47,0,442
1,42,116,38
1,42,0,480
1,42,116,480
1,42,0,480
1,38,117,480
1,38,0,442
1,50,102,38
1,50,0,442
1,45,113,38
1,45,0,442
1,50,103,38
1,50,0,442
1,40,116,38
1,40,0,442
1,47,113,38
1,47,0,202
1,52,102,38
1,52,0,202
1,40,116,38
1,40,0,202
1,52,103,38
1,52,0,202
1,40,117,38
1,40,0,202
1,52,102,38
1,52,0,202
1,40,116,38
1,40,0,202
1,52,103,38
1,52,0,202
1,40,117,38
1,40,0,202
1,52,102,38
1,52,0,202
1,40,116,38
1,40,0,720
1,38,117,240
1,38,0,480
1,50,106,240
1,50,0,202
1,45,117,38
1,45,0,480
1,38,111,240
1,38,0,202
1,40,116,38
1,40,0,480
1,52,109,240
1,52,0,202
1,40,116,38
1,40,0,480
1,40,108,240
1,40,0,202
1,38,117,38
1,38,0,480
1,50,107,240
1,50,0,202
1,45,116,38
1,45,0,480
1,38,110,240
1,38,0,202
1,40,117,38
1,40,0,480
1,52,109,240
1,52,0,202
1,40,116,38
1,40,0,480
1,40,108,240
1,40,0,202
1,38,117,38
1,38,0,480
1,50,106,240
1,50,0,202
1,45,117,38
1,45,0,480
1,38,111,240
1,38,0,202
1,40,116,38
1,40,0,480
1,52,109,240
1,52,0,202
1,40,116,38
1,40,0,480
1,40,108,240
1,40,0,202
1,35,117,38
1,35,0,202
1,35,117,38
1,35,0,202
1,47,104,38
1,47,0,202
1,47,104,38
1,47,0,202
1,35,115,38
1,35,0,202
1,35,113,38
1,35,0,202
1,47,104,38
1,47,0,202
1,47,104,38
1,47,0,202
1,35,119,38
1,35,0,202
1,35,118,38
1,35,0,202
1,47,105,38
1,47,0,202
1,47,105,38
1,47,0,202
1,35,120,38
1,35,0,202
1,35,117,38
1,35,0,202
1,40,118,38
1,40,0,202
1,42,118,38
1,42,0,202
1,47,105,38
1,47,0,202
1,47,105,38
1,47,0,202
1,47,104,38
1,47,0,202
1,47,104,38
1,47,0,202
1,47,105,38
1,47,0,202
1,47,105,38
1,47,0,202
1,47,104,38
1,47,0,202
1,47,104,38
1,47,0,202
1,35,105,38
1,35,0,202
1,35,104,38
1,35,0,202
1,35,105,38
1,35,0,202
1,35,105,38
1,35,0,202
1,35,104,38
1,35,0,202
1,35,105,38
1,35,0,202
1,35,104,38
1,35,0,202
1,35,104,38
1,35,0,202
1,40,117,38
1,40,0,922
1,40,117,38
1,40,0,922
1,52,92,38
1,52,0,1680
1,45,102,240
1,45,0,3360
1,47,93,240
1,47,0,202
1,40,97,38
1,40,0,202
1,40,84,38
1,40,0,202
1,40,86,38
1,40,0,202
1,52,93,38
1,52,0,202
1,40,92,38
1,40,0,202
1,40,87,38
1,40,0,202
1,40,85,38
1,40,0,202
1,52,94,38
1,52,0,202
1,40,95,38
1,40,0,202
1,52,94,38
1,52,0,202
1,40,94,38
1,40,0,202
1,52,95,38
1,52,0,202
1,40,95,38
1,40,0,202
1,40,86,38
1,40,0,202
1,40,86,38
1,40,0,202
1,40,97,38
1,40,0,215
1,50,85,25
1,50,0,442
1,49,84,38
1,49,0,202
1,50,84,38
1,50,0,240
1,49,85,240
1,49,0,240
1,47,84,240
1,47,0,202
1,45,91,38
1,45,0,1162
1,45,91,38
1,45,0,202
1,45,92,38
1,45,0,202
1,47,93,38
1,47,0,202
1,40,96,38
1,40,0,202
1,40,84,38
1,40,0,202
1,40,87,38
1,40,0,202
1,52,93,38
1,52,0,202
1,40,92,38
1,40,0,202
1,40,86,38
1,40,0,202
1,40,85,38
1,40,0,202
1,52,95,38
1,52,0,202
1,40,94,38
1,40,0,202
1,52,94,38
1,52,0,202
1,40,95,38
1,40,0,202
1,52,94,38
1,52,0,202
1,40,95,38
1,40,0,202
1,40,87,38
1,40,0,202
1,40,86,38
1,40,0,202
1,40,97,38
1,40,0,215
1,50,84,25
1,50,0,442
1,49,84,38
1,49,0,202
1,50,85,38
1,50,0,240
1,49,85,240
1,49,0,240
1,47,84,240
1,47,0,202
1,45,90,38
1,45,0,1162
1,45,91,38
1,45,0,202
1,45,93,38
1,45,0,202
1,47,92,38
1,47,0,202
1,40,96,38
1,40,0,202
1,40,85,38
1,40,0,202
1,40,86,38
1,40,0,202
1,52,93,38
1,52,0,202
1,40,93,38
1,40,0,202
1,40,86,38
1,40,0,202
1,40,85,38
1,40,0,202
1,52,94,38
1,52,0,202
1,40,94,38
1,40,0,202
1,52,95,38
1,52,0,202
1,40,95,38
1,40,0,202
1,52,94,38
1,52,0,202
1,40,94,38
1,40,0,202
1,40,87,38
1,40,0,202
1,40,87,38
1,40,0,202
1,40,96,38
1,40,0,215
1,50,84,25
1,50,0,442
1,49,85,38
1,49,0,202
1,50,84,38
1,50,0,240
1,49,85,240
1,49,0,240
1,47,85,240
1,47,0,202
1,45,90,38
1,45,0,1162
1,45,91,38
1,45,0,202
1,45,92,38
1,45,0,202
1,47,92,38
1,47,0,202
1,40,97,38
1,40,0,202
1,40,85,38
1,40,0,202
1,40,86,38
1,40,0,202
1,52,92,38
1,52,0,202
1,40,93,38
1,40,0,202
1,40,87,38
1,40,0,202
1,40,84,38
1,40,0,202
1,52,94,38
1,52,0,202
1,40,95,38
1,40,0,202
1,52,94,38
1,52,0,202
1,40,95,38
1,40,0,202
1,52,95,38
1,52,0,202
1,40,94,38
1,40,0,202
1,40,87,38
1,40,0,202
1,40,86,38
1,40,0,202
1,40,96,38
1,40,0,215
1,42,117,25
1,42,0,480
1,37,117,480
1,37,0,480
1,45,116,480
1,45,0,480
1,40,116,480
1,40,0,480
1,40,117,480
1,40,0,442
1,52,103,38
1,52,0,442
1,47,112,38
1,47,0,442
1,52,102,38
1,52,0,442
1,35,117,38
1,35,0,442
1,47,112,38
1,47,0,442
1,42,117,38
1,42,0,442
1,47,113,38
1,47,0,442
1,42,116,38
1,42,0,480
1,42,117,480
1,42,0,480
1,38,116,480
1,38,0,442
1,50,102,38
1,50,0,442
1,45,113,38
1,45,0,442
1,50,103,38
1,50,0,442
1,40,116,38
1,40,0,442
1,47,112,38
1,47,0,202
1,52,103,38
1,52,0,202
1,40,117,38
1,40,0,202
1,52,102,38
1,52,0,202
1,40,116,38
1,40,0,202
1,52,103,38
1,52,0,202
1,40,116,38
1,40,0,202
1,52,103,38
1,52,0,202
1,40,117,38
1,40,0,202
1,52,102,38
1,52,0,202
1,40,117,38
1,40,0,720
1,42,116,240
1,42,0,480
1,37,116,480
1,37,0,480
1,45,117,480
1,45,0,480
1,40,117,480
1,40,0,480
1,40,116,480
1,40,0,442
1,52,102,38
1,52,0,442
1,47,113,38
1,47,0,442
1,52,103,38
1,52,0,442
1,35,116,38
1,35,0,442
1,47,112,38
1,47,0,442
1,42,117,38
1,42,0,442
1,47,112,38
1,47,0,442
1,42,117,38
1,42,0,480
1,42,117,480
1,42,0,480
1,38,116,480
1,38,0,442
1,50,103,38
1,50,0,442
1,45,112,38
1,45,0,442
1,50,102,38
1,50,0,442
1,40,117,38
1,40,0,442
1,47,113,38
1,47,0,202
1,52,102,38
1,52,0,202
1,40,116,38
1,40,0,202
1,52,103,38
1,52,0,202
1,40,117,38
1,40,0,202
1,52,102,38
1,52,0,202
1,40,116,38
1,40,0,202
1,52,103,38
1,52,0,202
1,40,116,38
1,40,0,202
1,52,103,38
1,52,0,202
1,40,117,38
1,40,0,720
1,38,116,240
1,38,0,480
1,50,107,240
1,50,0,202
1,45,116,38
1,45,0,480
1,38,110,240
1,38,0,202
1,40,117,38
1,40,0,480
1,52,109,240
1,52,0,202
1,40,116,38
1,40,0,480
1,40,108,240
1,40,0,202
1,38,117,38
1,38,0,480
1,50,107,240
1,50,0,202
1,45,116,38
1,45,0,480
1,38,110,240
1,38,0,202
1,40,117,38
1,40,0,480
1,52,108,240
1,52,0,202
1,40,117,38
1,40,0,480
1,40,109,240
1,40,0,202
1,38,116,38
1,38,0,480
1,50,107,240
1,50,0,202
1,45,116,38
1,45,0,480
1,38,110,240
1,38,0,202
1,40,117,38
1,40,0,480
1,52,109,240
1,52,0,202
1,40,116,38
1,40,0,480
1,40,108,240
1,40,0,202
1,35,117,38
1,35,0,202
1,35,117,38
1,35,0,202
1,47,104,38
1,47,0,202
1,47,104,38
1,47,0,202
1,35,115,38
1,35,0,202
1,35,112,38
1,35,0,202
1,47,105,38
1,47,0,202
1,47,105,38
1,47,0,202
1,35,118,38
1,35,0,202
1,35,119,38
1,35,0,202
1,47,104,38
1,47,0,202
1,47,104,38
1,47,0,202
1,35,121,38
1,35,0,202
1,35,117,38
1,35,0,202
1,40,118,38
1,40,0,202
1,42,118,38
1,42,0,202
1,47,105,38
1,47,0,202
1,47,105,38
1,47,0,202
1,47,104,38
1,47,0,202
1,47,104,38
1,47,0,202
1,47,105,38
1,47,0,202
1,47,104,38
1,47,0,202
1,47,105,38
1,47,0,202
1,47,105,38
1,47,0,202
1,35,104,38
1,35,0,202
1,35,105,38
1,35,0,202
1,35,104,38
1,35,0,202
1,35,104,38
1,35,0,202
1,35,105,38
1,35,0,202
1,35,105,38
1,35,0,202
1,35,104,38
1,35,0,202
1,35,104,38
1,35,0,202
1,40,117,38
1,40,0,922
1,40,117,38
1,40,0,922
1,52,92,38
1,52,0,1680
1,45,102,240
1,45,0,960
1,57,87,0
1,57,0,2640
1,47,92,0
1,47,0,202
1,40,97,38
1,40,0,202
1,40,85,38
1,40,0,202
1,40,86,38
1,40,0,202
1,52,93,38
1,52,0,202
1,40,92,38
1,40,0,202
1,40,86,38
1,40,0,202
1,40,85,38
1,40,0,202
1,52,95,38
1,52,0,202
1,40,94,38
1,40,0,202
1,52,94,38
1,52,0,202
1,40,95,38
1,40,0,202
1,52,95,38
1,52,0,202
1,40,94,38
1,40,0,202
1,40,86,38
1,40,0,202
1,40,87,38
1,40,0,202
1,40,96,38
1,40,0,215
1,50,85,25
1,50,0,442
1,49,85,38
1,49,0,202
1,50,84,38
1,50,0,240
1,49,85,240
1,49,0,240
1,47,84,240
1,47,0,202
1,45,90,38
1,45,0,1162
1,45,91,38
1,45,0,202
1,45,93,38
1,45,0,202
1,47,92,38
1,47,0,202
1,40,96,38
1,40,0,202
1,40,85,38
1,40,0,202
1,40,87,38
1,40,0,202
1,52,92,38
1,52,0,202
1,40,92,38
1,40,0,202
1,40,87,38
1,40,0,202
1,40,84,38
1,40,0,202
1,52,95,38
1,52,0,202
1,40,95,38
1,40,0,202
1,52,94,38
1,52,0,202
1,40,95,38
1,40,0,202
1,52,94,38
1,52,0,202
1,40,94,38
1,40,0,202
1,40,87,38
1,40,0,202
1,40,87,38
1,40,0,202
1,40,96,38
1,40,0,215
1,50,84,25
1,50,0,442
1,49,85,38
1,49,0,202
1,50,85,38
1,50,0,240
1,49,84,240
1,49,0,240
1,47,84,240
1,47,0,202
1,45,91,38
1,45,0,1162
1,45,90,38
1,45,0,202
1,45,93,38
1,45,0,202
1,47,93,38
1,47,0,202
1,40,96,38
1,40,0,202
1,40,85,38
1,40,0,202
1,40,86,38
1,40,0,202
1,52,92,38
1,52,0,202
1,40,93,38
1,40,0,202
1,40,87,38
1,40,0,202
1,40,84,38
1,40,0,202
1,52,94,38
1,52,0,202
1,40,95,38
1,40,0,202
1,52,95,38
1,52,0,202
1,40,94,38
1,40,0,202
1,52,94,38
1,52,0,202
1,40,95,38
1,40,0,202
1,40,86,38
1,40,0,202
1,40,87,38
1,40,0,202
1,40,97,38
1,40,0,215
