track,note,velocity,time
0,36,111,0
0,35,119,0
0,52,101,0
0,64,77,0
0,67,76,0
0,79,107,0
0,60,77,0
0,64,76,0
0,67,77,0
0,79,127,180
0,42,69,0
0,79,126,38
0,79,127,38
0,40,117,0
0,42,100,0
0,35,112,0
0,42,73,0
0,42,101,5
0,64,77,0
0,67,76,0
0,48,96,85
0,35,111,0
0,42,78,0
0,40,118,0
0,42,101,0
0,43,97,83
0,42,72,0
0,79,107,0
0,81,106,0
0,43,115,0
0,79,127,0
0,35,121,0
0,42,100,0
0,59,76,0
0,67,77,0
0,79,107,0
0,59,77,0
0,62,76,0
0,67,77,0
0,79,126,37
0,79,127,38
0,42,73,0
0,79,126,38
0,40,119,120
0,42,101,0
0,35,110,0
0,42,72,0
0,46,71,0
0,59,76,0
0,67,76,0
0,77,107,0
0,77,126,105
0,35,111,0
0,42,70,0
0,77,127,38
0,77,127,38
0,40,119,0
0,46,70,0
0,28,104,0
0,42,73,0
0,29,115,0
0,35,118,0
0,42,101,0
0,57,77,0
0,65,76,0
0,76,106,0
0,57,76,0
0,60,76,0
0,65,77,0
0,76,126,137
0,42,68,0
0,76,126,38
0,76,127,38
0,40,118,0
0,42,100,0
0,35,116,0
0,42,73,0
0,42,100,3
0,57,77,0
0,65,76,0
0,41,96,83
0,72,127,0
0,35,115,0
0,42,79,0
0,72,126,38
0,72,126,0
0,40,115,0
0,42,101,0
0,29,108,0
0,42,72,0
0,76,107,0
0,77,107,0
0,31,115,0
0,35,119,0
0,42,101,0
0,59,76,0
0,67,77,0
0,76,106,0
0,59,77,0
0,62,76,0
0,67,76,0
0,76,127,22
0,76,126,38
0,42,72,0
0,76,127,38
0,76,127,38
0,40,118,0
0,42,100,0
0,35,116,0
0,42,73,0
0,46,71,3
0,59,76,0
0,67,77,0
0,74,107,0
0,74,126,53
0,35,114,0
0,42,71,0
0,76,106,0
0,40,118,0
0,46,71,0
0,76,127,3
0,42,72,0
0,77,106,0
0,36,111,0
0,77,126,0
0,35,119,0
0,42,100,0
0,64,77,0
0,67,77,0
0,79,106,0
0,60,77,0
0,64,77,0
0,67,76,0
0,60,65,0
0,64,64,0
0,67,65,0
0,42,69,0
0,79,126,60
0,40,119,0
0,42,101,0
0,60,65,0
0,64,64,0
0,67,65,0
0,35,117,0
0,42,72,0
0,42,100,0
0,64,76,0
0,67,77,0
0,48,96,180
0,60,64,0
0,64,64,0
0,67,65,0
0,35,114,0
0,42,79,0
0,40,115,0
0,42,100,0
0,43,96,3
0,60,65,0
0,64,64,0
0,67,64,0
0,42,73,0
0,79,106,0
0,81,107,0
0,43,115,0
0,79,127,0
0,35,118,0
0,42,101,0
0,59,77,0
0,67,76,0
0,79,107,0
0,59,76,0
0,62,77,0
0,67,76,0
0,79,127,38
0,79,126,38
0,59,65,0
0,62,65,0
0,67,64,0
0,42,72,0
0,79,126,38
0,40,118,0
0,42,101,0
0,59,64,0
0,62,65,0
0,67,64,0
0,35,117,0
0,42,72,0
0,46,70,0
0,59,76,0
0,67,76,0
0,77,107,0
0,77,127,180
0,59,65,0
0,62,65,0
0,67,64,0
0,35,114,0
0,42,70,0
0,77,127,38
0,77,126,0
0,40,118,0
0,46,71,0
0,28,105,0
0,59,65,0
0,62,64,0
0,67,64,0
0,42,73,0
0,29,114,0
0,35,119,0
0,42,101,0
0,57,77,0
0,65,76,0
0,76,106,0
0,57,77,0
0,60,77,0
0,65,76,0
0,76,126,180
0,57,65,0
0,60,65,0
0,64,64,0
0,42,68,0
0,76,127,38
0,76,126,0
0,40,119,0
0,42,100,0
0,57,64,0
0,60,65,0
0,64,65,0
0,35,117,0
0,42,73,0
0,42,101,0
0,57,77,0
0,65,77,0
0,41,96,180
0,72,127,0
0,57,64,0
0,60,64,0
0,64,65,0
0,35,114,0
0,42,78,0
0,72,127,38
0,72,126,0
0,40,115,0
0,42,100,0
0,29,109,0
0,57,64,0
0,60,65,0
0,64,65,0
0,42,73,0
0,76,106,0
0,77,106,0
0,31,114,0
0,35,119,0
0,42,100,0
0,59,77,0
0,67,76,0
0,76,107,0
0,59,77,0
0,62,76,0
0,67,76,0
0,76,127,60
0,76,126,38
0,55,64,0
0,59,65,0
0,62,64,0
0,42,73,0
0,76,126,38
0,76,127,0
0,40,118,0
0,42,101,0
0,55,64,0
0,59,65,0
0,62,65,0
0,35,116,0
0,42,72,0
0,46,70,0
0,59,77,0
0,67,76,0
0,48,97,0
0,60,96,0
0,55,64,180
0,59,64,0
0,62,65,0
0,35,114,0
0,42,71,0
0,40,118,0
0,46,70,0
0,55,65,120
0,59,64,0
0,62,64,0
0,42,72,0
0,36,111,0
0,35,119,0
0,42,100,0
0,60,77,0
0,64,77,0
0,67,76,0
0,55,97,0
0,67,97,0
0,42,69,180
0,40,119,180
0,42,101,0
0,35,117,0
0,42,72,0
0,42,100,180
0,48,97,180
0,35,114,0
0,42,79,0
0,40,114,0
0,42,101,0
0,43,96,120
0,42,72,0
0,55,96,0
0,67,97,0
0,43,115,13
0,35,118,0
0,42,100,0
0,59,76,0
0,62,77,0
0,67,77,0
0,55,96,0
0,67,96,0
0,42,73,180
0,40,119,180
0,42,100,0
0,35,117,0
0,42,73,0
0,46,71,0
0,53,97,0
0,65,97,0
0,35,115,180
0,42,71,0
0,40,119,177
0,46,71,0
0,28,104,180
0,42,72,0
0,29,114,0
0,35,118,0
0,42,101,0
0,57,76,0
0,60,76,0
0,65,77,0
0,52,96,0
0,64,96,0
0,42,68,180
0,40,118,180
0,42,100,0
0,35,116,0
0,42,73,0
0,42,101,180
0,41,97,180
0,35,115,0
0,42,78,0
0,40,115,0
0,42,100,0
0,29,109,120
0,42,73,0
0,52,97,0
0,64,97,0
0,31,114,0
0,35,118,0
0,42,101,0
0,59,76,0
0,62,77,0
0,67,77,0
0,52,96,0
0,64,96,0
0,42,72,180
0,40,118,180
0,42,100,0
0,35,117,0
0,42,73,0
0,46,70,0
0,50,97,0
0,62,96,0
0,35,115,180
0,42,70,0
0,52,97,0
0,64,97,0
0,40,118,160
0,46,70,0
0,53,96,0
0,65,97,0
0,42,73,80
0,36,110,0
0,35,118,0
0,42,101,0
0,60,76,0
0,64,77,0
0,67,76,0
0,55,96,0
0,67,96,0
0,42,68,180
0,40,119,180
0,42,101,0
0,35,117,0
0,42,72,0
0,42,100,180
0,48,97,180
0,35,114,0
0,42,79,0
0,40,115,0
0,42,101,0
0,43,97,120
0,42,72,0
0,55,97,0
0,67,97,0
0,43,114,13
0,35,118,0
0,42,100,0
0,59,76,0
0,62,77,0
0,67,77,0
0,55,96,0
0,67,96,0
0,42,73,180
0,40,118,180
0,42,101,0
0,35,117,0
0,42,72,0
0,46,71,0
0,53,97,0
0,65,97,0
0,35,115,180
0,42,70,0
0,40,118,177
0,46,71,0
0,28,104,180
0,42,73,0
0,29,115,0
0,35,118,0
0,42,100,0
0,57,76,0
0,60,76,0
0,65,77,0
0,52,96,0
0,64,96,0
0,42,69,180
0,40,119,180
0,42,101,0
0,35,116,0
0,42,72,0
0,42,101,180
0,41,96,180
0,35,115,0
0,42,78,0
0,40,115,0
0,42,100,0
0,29,109,120
0,42,73,0
0,52,97,0
0,64,96,0
0,31,115,0
0,35,119,0
0,42,101,0
0,59,77,0
0,62,76,0
0,67,76,0
0,52,97,0
0,64,97,0
0,42,72,180
0,40,118,180
0,42,100,0
0,35,116,0
0,42,73,0
0,46,70,3
0,50,96,0
0,62,97,0
0,35,114,3
0,42,71,0
0,40,118,58
0,46,70,0
0,42,72,180
0,36,110,0
0,48,77,0
0,35,119,0
0,52,100,0
0,36,96,0
0,48,96,0
0,52,86,5
0,64,117,33
0,42,68,0
0,60,107,5
0,55,96,5
0,72,105,180
0,40,117,0
0,42,101,0
0,64,117,0
0,72,104,0
0,72,91,0
0,35,112,0
0,42,72,0
0,72,91,0
0,60,106,5
0,55,96,5
0,72,98,38
0,72,98,0
0,72,105,38
0,72,105,0
0,42,101,0
0,72,105,0
0,64,117,38
0,72,105,0
0,67,101,0
0,35,111,0
0,42,79,0
0,67,101,0
0,60,107,5
0,55,96,5
0,72,104,0
0,48,76,28
0,72,104,0
0,40,118,0
0,42,100,0
0,72,104,0
0,52,87,5
0,55,97,5
0,60,106,5
0,64,116,5
0,72,105,0
0,38,97,18
0,64,117,0
0,74,104,0
0,79,107,0
0,42,73,0
0,79,107,0
0,60,106,5
0,55,97,5
0,31,114,0
0,43,77,0
0,71,104,0
0,35,121,0
0,42,100,0
0,50,86,0
0,67,117,10
0,42,72,0
0,59,106,5
0,55,96,5
0,40,119,0
0,42,101,0
0,67,117,0
0,35,110,0
0,42,73,0
0,59,107,5
0,55,96,5
0,67,100,180
0,46,71,0
0,67,100,0
0,43,96,110
0,67,116,0
0,67,98,0
0,35,111,0
0,42,70,0
0,67,98,0
0,59,107,5
0,55,97,5
0,43,76,25
0,67,99,0
0,40,119,0
0,46,70,0
0,67,99,0
0,50,86,5
0,55,97,5
0,59,106,5
0,67,117,5
0,40,105,18
0,67,117,0
0,69,99,0
0,42,72,0
0,69,99,0
0,59,106,5
0,55,97,5
0,41,107,0
0,41,76,0
0,35,118,0
0,42,101,0
0,48,86,0
0,65,117,33
0,42,69,0
0,60,107,5
0,57,96,5
0,69,105,180
0,40,118,0
0,42,100,0
0,65,116,0
0,69,105,0
0,35,116,0
0,42,72,0
0,60,107,5
0,57,97,5
0,69,104,0
0,42,101,0
0,45,96,38
0,65,116,0
0,69,104,0
0,35,115,0
0,42,78,0
0,60,106,5
0,57,97,5
0,41,76,0
0,40,115,0
0,42,101,0
0,48,87,5
0,57,97,5
0,60,106,5
0,65,117,5
0,69,105,38
0,43,96,18
0,65,116,0
0,69,105,0
0,42,73,0
0,60,106,5
0,57,97,5
0,45,103,0
0,45,77,0
0,69,104,0
0,69,96,0
0,35,119,0
0,42,100,0
0,69,96,0
0,52,86,0
0,64,116,0
0,67,104,0
0,64,96,0
0,42,73,0
0,64,96,0
0,60,107,5
0,57,97,5
0,69,97,0
0,40,118,0
0,42,100,0
0,69,97,0
0,64,116,0
0,64,97,0
0,35,116,0
0,42,72,0
0,64,97,0
0,60,106,5
0,57,97,5
0,69,96,0
0,46,71,0
0,69,96,0
0,48,87,0
0,64,116,0
0,64,96,0
0,35,114,0
0,42,71,0
0,64,96,0
0,60,107,5
0,57,97,5
0,45,76,0
0,69,97,0
0,40,118,0
0,46,71,0
0,69,97,0
0,52,87,5
0,57,96,5
0,60,106,5
0,64,117,5
0,43,96,0
0,64,117,0
0,64,96,0
0,42,73,0
0,64,96,0
0,60,106,5
0,57,96,5
0,36,110,0
0,48,77,0
0,60,105,0
0,60,97,0
0,35,119,0
0,42,100,0
0,60,97,0
0,52,87,0
0,64,116,0
0,67,97,0
0,42,68,0
0,67,97,0
0,60,106,5
0,55,97,5
0,67,104,0
0,40,119,0
0,42,101,0
0,64,116,0
0,60,105,0
0,60,96,0
0,35,117,0
0,42,73,0
0,60,96,0
0,60,107,5
0,55,97,5
0,67,97,0
0,42,100,0
0,67,97,0
0,64,116,0
0,67,105,0
0,35,114,0
0,42,78,0
0,60,107,5
0,55,96,5
0,48,76,10
0,60,104,0
0,60,96,0
0,40,115,0
0,42,101,0
0,60,96,0
0,52,87,5
0,55,97,5
0,60,106,5
0,64,116,5
0,38,97,0
0,64,117,0
0,67,96,0
0,42,72,0
0,67,96,0
0,60,107,5
0,55,96,5
0,31,114,0
0,43,76,0
0,67,105,0
0,35,118,0
0,42,101,0
0,50,87,0
0,67,116,33
0,59,104,0
0,42,73,0
0,59,107,5
0,55,97,5
0,40,118,180
0,42,100,0
0,67,116,0
0,67,104,0
0,35,117,0
0,42,73,0
0,59,107,5
0,55,96,5
0,46,70,0
0,38,97,110
0,67,116,0
0,35,114,0
0,42,70,0
0,59,107,5
0,55,97,5
0,43,76,25
0,40,118,0
0,46,71,0
0,50,86,5
0,55,97,5
0,59,107,5
0,67,116,5
0,40,105,18
0,67,116,0
0,42,72,0
0,59,107,5
0,55,96,5
0,41,106,0
0,41,77,0
0,65,105,0
0,65,97,0
0,35,119,0
0,42,101,0
0,65,97,0
0,48,87,0
0,65,116,0
0,42,69,0
0,60,107,5
0,57,96,5
0,64,105,38
0,64,97,0
0,40,119,0
0,42,100,0
0,64,97,0
0,65,116,0
0,65,104,0
0,65,96,0
0,35,117,0
0,42,72,0
0,65,96,0
0,60,107,5
0,57,97,5
0,42,101,0
0,43,97,38
0,65,116,0
0,64,104,0
0,64,96,0
0,35,114,0
0,42,79,0
0,64,96,0
0,60,106,5
0,57,97,5
0,41,77,0
0,65,105,0
0,65,97,0
0,40,115,0
0,42,100,0
0,65,97,0
0,48,86,5
0,57,96,5
0,60,107,5
0,65,116,5
0,40,96,0
0,65,117,0
0,67,105,0
0,67,97,0
0,42,72,0
0,67,97,0
0,60,107,5
0,57,96,5
0,36,102,0
0,48,77,0
0,67,104,0
0,67,96,0
0,35,119,0
0,42,101,0
0,67,96,0
0,52,86,0
0,65,96,0
0,65,96,0
0,64,116,0
0,64,104,0
0,64,97,0
0,42,72,0
0,64,97,0
0,60,107,5
0,55,97,5
0,40,118,180
0,42,101,0
0,64,116,0
0,35,116,0
0,42,73,0
0,60,106,5
0,55,97,5
0,46,70,0
0,64,117,110
0,35,114,0
0,42,70,0
0,60,106,5
0,55,96,5
0,48,77,28
0,40,118,0
0,46,70,0
0,52,86,5
0,55,97,5
0,60,107,5
0,64,116,5
0,64,117,18
0,42,73,0
0,60,106,5
0,55,96,5
0,65,96,60
0,69,97,40
0,72,97,40
0,41,103,0
0,41,77,0
0,35,119,0
0,42,100,0
0,77,96,0
0,53,91,0
0,60,91,0
0,48,87,0
0,65,116,33
0,42,68,0
0,60,106,5
0,57,97,5
0,40,119,180
0,42,101,0
0,65,117,0
0,35,117,0
0,42,73,0
0,60,106,2
0,57,96,2
0,67,97,2
0,71,96,2
0,74,96,2
0,43,103,0
0,43,77,0
0,42,100,0
0,79,97,0
0,55,96,0
0,62,96,0
0,50,86,0
0,67,117,33
0,35,114,0
0,42,78,0
0,62,107,5
0,59,96,5
0,40,114,180
0,42,101,0
0,67,117,0
0,42,73,0
0,62,106,5
0,59,96,5
0,36,110,0
0,48,77,0
0,35,118,0
0,52,101,0
0,72,97,0
0,36,97,0
0,48,97,0
0,52,87,0
0,76,96,25
0,64,116,25
0,42,68,0
0,79,97,0
0,60,106,5
0,55,97,5
0,76,97,25
0,72,105,25
0,40,117,0
0,42,100,0
0,72,96,0
0,76,97,0
0,64,117,0
0,72,104,0
0,35,113,0
0,42,73,0
0,72,91,0
0,79,96,0
0,60,106,5
0,55,96,5
0,72,98,25
0,76,96,0
0,72,105,25
0,42,100,0
0,72,104,0
0,72,97,0
0,76,97,0
0,64,117,25
0,72,105,0
0,35,111,0
0,42,79,0
0,67,101,0
0,79,96,0
0,60,106,5
0,55,97,5
0,76,96,0
0,48,77,25
0,72,104,0
0,40,119,0
0,42,101,0
0,72,105,0
0,72,97,0
0,52,86,5
0,55,97,5
0,60,106,5
0,64,116,5
0,72,105,0
0,76,97,0
0,38,96,18
0,64,117,0
0,74,104,0
0,42,72,0
0,79,106,0
0,79,96,0
0,60,107,5
0,55,96,5
0,76,96,0
0,31,115,0
0,43,76,0
0,35,120,0
0,42,101,0
0,71,97,0
0,50,87,0
0,74,96,25
0,67,117,25
0,71,104,0
0,42,72,0
0,79,97,0
0,59,106,5
0,55,96,5
0,74,97,25
0,40,118,25
0,42,100,0
0,71,96,0
0,74,97,0
0,67,117,0
0,35,110,0
0,42,73,0
0,79,96,0
0,59,106,5
0,55,97,5
0,74,96,25
0,46,71,0
0,67,100,0
0,71,97,0
0,74,97,0
0,38,97,25
0,67,117,0
0,35,111,0
0,42,71,0
0,67,99,0
0,79,96,0
0,59,106,5
0,55,97,5
0,74,96,0
0,43,76,25
0,40,119,0
0,46,71,0
0,67,98,0
0,71,97,0
0,50,86,5
