track,note,velocity,time
1,55,85,44296
1,55,77,4
1,55,124,4
1,55,116,4
1,55,126,4
1,55,127,4
1,36,105,4
1,38,127,192
1,38,109,136
1,38,96,36
1,34,121,132
1,36,113,24
1,36,101,156
1,36,124,68
1,41,117,132
1,43,127,20
1,31,112,144
1,31,121,40
1,38,113,128
1,39,126,4
1,39,116,96
1,51,113,12
1,39,93,36
1,51,120,4
1,36,127,40
1,36,120,140
1,36,117,60
1,29,108,128
1,31,127,4
1,31,116,72
1,31,126,56
1,38,124,144
1,39,126,4
1,39,127,84
1,39,126,76
1,55,126,232
1,36,121,1192
1,48,121,84
1,36,108,68
1,48,116,64
1,36,108,72
1,48,117,60
1,36,113,56
1,48,124,64
1,33,116,92
1,45,117,52
1,33,112,84
1,45,124,64
1,33,104,68
1,45,120,60
1,33,112,60
1,45,124,44
1,29,104,64
1,41,120,44
1,29,97,96
1,41,117,52
1,29,97,68
1,41,116,48
1,29,96,64
1,41,116,40
1,31,113,68
1,43,124,40
1,31,112,60
1,43,125,52
1,31,113,56
1,43,116,56
1,31,108,56
1,43,120,4
1,36,113,72
1,48,124,24
1,36,113,68
1,48,116,40
1,36,112,56
1,48,116,60
1,36,108,52
1,48,120,52
1,33,108,72
1,45,108,40
1,33,112,80
1,45,125,40
1,33,112,48
1,45,124,44
1,33,108,32
1,45,117,28
1,41,117,60
1,53,120,44
1,41,112,64
1,53,125,36
1,41,109,40
1,53,113,52
1,41,104,28
1,53,116,44
1,43,112,28
1,55,108,56
1,43,108,60
1,55,112,48
1,43,96,48
1,55,112,64
1,43,104,40
1,55,116,36
1,36,121,88
1,48,121,84
1,36,108,68
1,48,117,64
1,36,108,72
1,48,116,60
1,36,113,56
1,48,125,64
1,33,117,92
1,45,117,52
1,33,113,84
1,45,125,64
1,33,104,68
1,45,121,60
1,33,112,60
1,45,125,44
1,29,105,64
1,41,120,44
1,29,96,96
1,41,117,52
1,29,97,68
1,41,116,48
1,29,97,64
1,41,116,40
1,31,112,68
1,43,125,40
1,31,113,60
1,43,125,52
1,31,112,56
1,43,116,56
1,31,109,56
1,43,121,4
1,36,113,72
1,48,125,24
1,36,112,68
1,48,116,40
1,36,113,56
1,48,117,60
1,36,109,52
1,48,120,52
1,33,108,72
1,45,109,40
1,33,112,80
1,45,125,40
1,33,113,48
1,45,125,44
1,33,109,32
1,45,117,28
1,41,116,60
1,53,121,44
1,41,112,64
1,53,125,36
1,41,109,40
1,53,113,52
1,41,104,28
1,53,117,44
1,43,113,28
1,55,108,56
1,43,108,60
1,55,112,48
1,43,96,48
1,55,113,64
1,43,104,40
1,55,116,36
1,38,127,12
1,38,117,68
1,38,124,88
1,38,127,76
1,38,126,84
1,38,126,76
1,38,126,84
1,38,124,84
1,39,126,76
1,39,126,72
1,39,127,72
1,39,126,92
1,39,127,88
1,39,127,88
1,39,126,92
1,39,127,96
1,43,127,92
1,43,126,84
1,43,124,84
1,43,127,88
1,43,126,84
1,55,85,13112
1,55,76,4
1,55,124,4
1,55,117,4
1,55,126,4
1,55,126,4
1,36,105,4
1,38,127,192
1,38,124,152
1,38,96,32
1,34,125,152
1,36,116,8
1,36,97,124
1,36,112,28
1,29,108,92
1,31,126,8
1,31,104,160
1,31,126,56
1,38,108,132
1,39,121,4
1,39,121,208
1,51,84,4
1,50,88,12
1,48,117,8
1,46,113,4
1,43,121,4
1,36,127,28
1,36,109,164
1,36,101,52
1,43,126,264
1,43,109,116
1,43,126,68
1,38,109,124
1,39,121,4
1,39,121,152
1,39,120,60
1,43,24,412
1,43,85,132
1,43,101,88
1,43,109,68
1,43,113,68
1,43,116,92
1,38,96,44
1,39,127,12
1,39,109,136
1,39,127,48
1,43,112,80
1,43,108,68
1,43,109,68
1,43,109,64
1,43,93,60
1,43,101,52
1,43,116,52
1,43,126,84
1,31,126,16
1,31,127,104
1,31,127,80
1,36,127,24
1,37,127,44
1,38,126,44
1,38,109,136
1,38,97,36
1,34,121,132
1,36,112,24
1,36,101,156
1,36,125,68
1,41,116,132
1,43,127,20
1,31,113,144
1,31,120,40
1,38,112,128
1,39,127,4
1,39,117,96
1,51,112,12
1,39,93,36
1,51,120,4
1,36,127,40
1,36,120,140
1,36,117,60
1,29,108,128
1,31,126,4
1,31,116,72
1,31,126,56
1,38,125,144
1,39,126,4
1,39,126,84
1,39,127,76
1,55,127,232
1,36,120,1192
1,48,120,84
1,36,108,68
1,48,117,64
1,36,109,72
1,48,116,60
1,36,112,56
1,48,125,64
1,33,116,92
1,45,116,52
1,33,112,84
1,45,124,64
1,33,104,68
1,45,120,60
1,33,112,60
1,45,124,44
1,29,105,64
1,41,121,44
1,29,97,96
1,41,116,52
1,29,96,68
1,41,116,48
1,29,97,64
1,41,116,40
1,31,112,68
1,43,125,40
1,31,113,60
1,43,124,52
1,31,112,56
1,43,116,56
1,31,109,56
1,43,120,4
1,36,113,72
1,48,124,24
1,36,112,68
1,48,116,40
1,36,112,56
1,48,116,60
1,36,108,52
1,48,120,52
1,33,108,72
1,45,109,40
1,33,112,80
1,45,124,40
1,33,112,48
1,45,125,44
1,33,109,32
1,45,116,28
1,41,116,60
1,53,121,44
1,41,113,64
1,53,125,36
1,41,108,40
1,53,112,52
1,41,104,28
1,53,116,44
1,43,112,28
1,55,108,56
1,43,108,60
1,55,112,48
1,43,96,48
1,55,112,64
1,43,105,40
1,55,117,36
1,36,120,88
1,48,121,84
1,36,108,68
1,48,116,64
1,36,109,72
1,48,117,60
1,36,113,56
1,48,125,64
1,33,117,92
1,45,117,52
1,33,112,84
1,45,125,64
1,33,104,68
1,45,121,60
1,33,113,60
1,45,124,44
1,29,104,64
1,41,121,44
1,29,97,96
1,41,116,52
1,29,97,68
1,41,116,48
1,29,96,64
1,41,117,40
1,31,113,68
1,43,125,40
1,31,112,60
1,43,124,52
1,31,113,56
1,43,117,56
1,31,109,56
1,43,121,4
1,36,112,72
1,48,124,24
1,36,113,68
1,48,117,40
1,36,113,56
1,48,116,60
1,36,108,52
1,48,121,52
1,33,108,72
1,45,109,40
1,33,113,80
1,45,125,40
1,33,113,48
1,45,125,44
1,33,108,32
1,45,117,28
1,41,116,60
1,53,121,44
1,41,113,64
1,53,125,36
1,41,108,40
1,53,113,52
1,41,105,28
1,53,116,44
1,43,112,28
1,55,108,56
1,43,108,60
1,55,113,48
1,43,96,48
1,55,112,64
1,43,105,40
1,55,117,36
1,38,126,12
1,38,117,68
1,38,124,88
1,38,126,76
1,38,126,84
1,38,126,76
1,38,126,84
1,38,124,84
1,39,127,76
1,39,126,72
1,39,127,72
1,39,127,92
1,39,126,88
1,39,127,88
1,39,127,92
1,39,126,96
1,43,126,92
1,43,127,84
1,43,124,84
1,43,127,88
1,43,126,84
1,36,120,632
1,48,121,84
1,36,108,68
1,48,116,64
1,36,109,72
1,48,117,60
1,36,112,56
1,48,124,64
1,33,117,92
1,45,116,52
1,33,113,84
1,45,124,64
1,33,104,68
1,45,120,60
1,33,112,60
1,45,124,44
1,29,104,64
1,41,121,44
1,29,97,96
1,41,116,52
1,29,96,68
1,41,117,48
1,29,97,64
1,41,117,40
1,31,113,68
1,43,125,40
1,31,113,60
1,43,124,52
1,31,113,56
1,43,116,56
1,31,109,56
1,43,121,4
1,36,113,72
1,48,124,24
1,36,113,68
1,48,117,40
1,36,113,56
1,48,117,60
1,36,108,52
1,48,120,52
1,33,109,72
1,45,109,40
1,33,113,80
1,45,124,40
1,33,112,48
1,45,125,44
1,33,109,32
1,45,117,28
1,41,117,60
1,53,120,44
1,41,112,64
1,53,124,36
1,41,109,40
1,53,113,52
1,41,105,28
1,53,117,44
1,43,112,28
1,55,109,56
1,43,109,60
1,55,113,48
1,43,96,48
1,55,113,64
1,43,105,40
1,55,116,36
1,36,105,12
2,62,116,45592
2,57,109,0
2,50,113,0
2,57,88,52
2,50,96,0
2,62,105,192
2,60,109,132
2,55,113,0
2,48,109,0
2,55,97,68
2,48,92,0
2,60,97,192
2,55,105,100
2,50,116,0
2,43,113,0
2,55,93,72
2,50,112,0
2,43,97,0
2,55,93,60
2,63,117,164
2,58,92,0
2,51,100,0
2,58,84,88
2,51,101,0
2,63,96,16
2,58,85,0
2,60,105,112
2,55,112,0
2,48,109,0
2,55,104,64
2,48,92,0
2,60,93,16
2,55,104,0
2,48,76,0
2,55,113,128
2,50,120,0
2,43,108,0
2,50,92,48
2,43,97,0
2,55,104,0
2,50,60,0
2,63,112,144
2,58,101,0
2,51,101,0
2,58,89,96
2,51,100,0
2,63,96,16
2,58,92,0
2,55,116,120
2,50,120,0
2,43,108,0
2,55,100,59624
2,50,108,0
2,43,104,0
2,50,81,116
2,43,89,0
2,55,105,192
2,62,112,152
2,57,100,0
2,50,108,0
2,57,96,144
2,50,97,0
2,62,109,0
2,57,121,0
2,50,80,0
2,60,108,124
2,55,112,0
2,48,108,0
2,55,100,84
2,48,97,0
2,60,101,192
2,55,112,188
2,50,92,0
2,43,108,0
2,50,120,132
2,43,96,0
2,55,100,12
2,50,120,0
2,63,104,176
2,58,85,0
2,51,104,0
2,58,108,128
2,51,104,0
2,63,93,16
2,58,69,0
2,60,93,152
2,55,104,0
2,48,96,0
2,55,101,116
2,48,89,0
2,60,96,192
2,55,112,156
2,50,120,0
2,43,104,0
2,50,96,120
2,43,76,0
2,55,92,192
2,63,112,136
2,58,84,0
2,51,100,0
2,58,85,120
2,51,93,0
2,63,100,192
2,55,104,164
2,50,120,0
2,43,113,0
3,74,121,16360
3,77,109,0
3,76,120,4
3,74,120,4
3,72,120,92
3,75,117,0
3,74,121,4
3,71,113,192
3,72,109,0
3,71,100,28
3,72,101,44
3,71,97,0
3,72,93,4
3,70,104,32
3,72,101,4
3,70,101,8
3,72,96,4
3,70,93,0
3,72,89,4
3,69,100,4
3,70,104,0
3,69,93,32
3,70,113,20
3,69,104,32
3,70,105,80
3,67,104,0
3,79,113,0
3,79,104,120
3,77,105,0
3,75,92,4
3,67,100,4
3,69,96,0
3,67,100,4
3,74,113,5528
3,77,108,4
3,76,112,0
3,74,109,0
3,72,105,24
3,75,104,16
3,74,108,24
3,72,100,4
3,71,113,108
3,72,93,4
3,71,96,4
3,69,92,0
3,67,93,4
3,70,112,0
3,69,88,0
3,70,104,4
3,69,108,0
3,67,102,4
3,67,102,60
3,74,120,5220
3,77,108,4
3,76,113,0
3,74,113,4
3,72,117,68
3,75,116,0
3,74,112,0
3,71,116,152
3,72,105,0
3,71,104,4
3,72,108,0
3,71,101,0
3,72,97,4
3,70,108,24
3,72,108,4
3,70,100,0
3,72,113,4
3,70,92,0
3,72,105,4
3,69,104,4
3,70,108,0
3,69,108,0
3,70,96,0
3,69,100,0
3,70,100,4
3,67,104,4
3,79,112,4
3,79,117,144
3,77,108,4
3,75,116,4
3,67,108,4
3,69,109,4
3,69,101,4
3,67,96,48
3,72,112,1072
3,74,105,4
3,72,105,4
3,74,109,4
3,72,96,4
3,74,104,4
3,72,100,4
3,74,112,32
3,72,104,24
3,74,104,20
3,72,108,4
3,74,108,0
3,76,112,108
3,76,108,96
3,74,101,0
3,74,113,88
3,67,100,4
3,76,109,4
3,74,100,4
3,74,104,96
3,74,113,84
3,71,113,4
3,72,113,0
3,71,105,4
3,72,113,0
3,71,109,0
3,72,112,52
3,71,101,24
3,72,108,0
3,71,113,4
3,72,113,4
3,77,120,184
3,76,112,0
3,74,105,0
3,77,113,4
3,76,112,4
3,74,109,4
3,72,112,4
3,74,104,4
3,72,105,4
3,74,109,4
3,72,97,4
3,74,104,4
3,72,100,4
3,74,113,36
3,72,105,24
3,74,105,20
3,72,109,4
3,74,108,0
3,76,112,12
3,76,109,96
3,74,101,0
3,74,113,88
3,67,100,4
3,76,108,4
3,74,101,4
3,74,104,96
3,74,113,84
3,71,113,4
3,72,113,0
3,71,105,4
3,72,113,0
3,71,108,0
3,72,113,52
3,71,100,24
3,72,109,0
3,71,113,4
3,72,113,4
3,77,120,184
3,76,113,0
3,74,105,0
3,77,112,4
3,76,112,4
3,74,108,4
3,74,116,52
3,75,121,4
3,77,88,0
3,75,88,4
3,77,97,4
3,79,97,0
3,74,120,14412
3,77,109,0
3,76,120,4
3,74,120,4
3,72,104,72
3,75,108,0
3,74,112,4
3,72,104,0
3,71,113,60
3,72,108,0
3,71,101,28
3,72,101,44
3,71,96,0
3,72,93,4
3,70,105,32
3,72,100,4
3,70,100,8
3,72,97,4
3,70,92,0
3,72,89,4
3,69,100,4
3,70,104,0
3,69,93,32
3,70,112,20
3,69,104,32
3,70,105,80
3,67,105,0
3,79,112,0
3,79,104,120
3,77,105,0
3,75,92,4
3,67,101,4
3,69,96,0
3,67,100,4
3,74,120,5528
3,77,108,4
3,76,112,0
3,74,112,4
3,72,109,68
3,75,105,4
3,74,104,4
3,72,104,4
3,71,117,36
3,72,105,0
3,71,105,4
3,72,109,0
3,71,101,0
3,72,97,4
3,70,108,24
3,72,109,4
3,70,100,0
3,72,113,4
3,70,93,0
3,72,105,4
3,69,104,4
3,70,109,0
3,69,109,0
3,70,101,24
3,69,89,0
3,70,100,0
3,67,104,0
3,79,97,4
3,79,117,80
3,77,109,4
3,75,116,4
3,67,108,4
3,69,109,4
3,69,101,4
3,67,97,48
3,72,113,1072
3,74,104,4
3,72,104,4
3,74,108,4
3,72,97,4
3,74,105,4
3,72,101,4
3,74,113,32
3,72,104,24
3,74,105,20
3,72,109,4
3,74,109,0
3,76,112,108
3,76,109,96
3,74,101,0
3,74,112,88
3,67,101,4
3,76,109,4
3,74,100,4
3,74,104,96
3,74,113,84
3,71,113,4
3,72,112,0
3,71,105,4
3,72,112,0
3,71,109,0
3,72,112,52
3,71,101,24
3,72,108,0
3,71,112,4
3,72,112,4
3,77,120,184
3,76,113,0
3,74,104,0
3,77,112,4
3,76,113,4
3,74,109,4
3,72,112,4
3,74,104,4
3,72,104,4
3,74,109,4
3,72,97,4
3,74,104,4
3,72,100,4
3,74,113,36
3,72,104,24
3,74,104,20
3,72,108,4
3,74,108,0
3,76,112,12
3,76,108,96
3,74,100,0
3,74,112,88
3,67,101,4
3,76,109,4
3,74,101,4
3,74,104,96
3,74,112,84
3,71,112,4
3,72,113,0
3,71,104,4
3,72,112,0
3,71,109,0
3,72,113,52
3,71,100,24
3,72,108,0
3,71,112,4
3,72,113,4
3,77,120,184
3,76,113,0
3,74,104,0
3,77,112,4
3,76,112,4
3,74,108,4
3,74,116,52
3,75,120,4
3,77,88,0
3,75,88,4
3,77,97,4
3,79,96,0
4,65,125,0
4,57,125,0
4,65,120,96
4,57,120,0
4,65,125,120
4,57,124,0
4,64,125,124
4,57,125,0
4,63,110,4
4,55,115,0
4,63,121,108
4,55,121,0
4,63,124,128
4,55,125,0
4,62,125,128
4,55,125,0
4,50,84,4
4,59,49,12
4,60,55,184
4,59,76,168
4,60,94,168
4,59,115,184
4,60,119,184
4,59,120,156
4,60,127,164
4,58,75,64
4,51,72,0
4,60,76,180
4,58,107,168
4,60,102,168
4,58,114,184
4,60,118,184
4,58,120,156
4,60,115,164
4,48,96,164
4,57,74,8
4,58,77,180
4,57,107,168
4,58,102,168
4,57,114,184
4,58,118,184
4,57,121,156
4,58,115,164
4,47,88,0
4,55,124,0
4,67,125,12
4,67,116,12
4,58,116,0
4,65,120,24
4,58,120,0
4,63,124,20
4,58,124,0
4,63,124,24
4,55,124,0
4,63,121,12
4,57,121,0
4,63,120,4
4,55,121,0
4,62,124,8
4,55,124,0
4,74,125,332
4,69,124,20
4,74,124,8
4,72,121,4
4,67,121,0
4,72,124,44
4,71,120,68
4,67,120,4
4,71,125,12
4,70,124,8
4,72,105,16
4,55,120,4540
4,67,124,8
4,67,120,0
4,65,116,8
4,63,120,212
4,55,120,4
4,57,120,4
4,55,124,8
4,55,105,8
4,55,120,6132
4,67,124,8
4,67,120,0
4,65,117,8
4,63,121,212
4,55,120,68
4,57,120,128
4,55,111,48
4,55,113,12
4,65,124,0
4,57,125,0
4,65,120,96
