track,note,velocity,time
2,83,41,9400
2,55,86,0
2,53,70,0
2,42,65,0
2,35,127,0
2,42,35,88
2,42,101,88
2,42,35,88
2,42,65,88
2,40,127,0
2,42,35,88
2,42,101,88
2,42,35,88
2,42,65,88
2,35,127,0
2,42,35,88
2,42,101,88
2,42,35,88
2,42,65,88
2,40,127,0
2,42,35,88
2,42,101,88
2,42,35,88
2,40,52,0
2,40,44,16
2,40,34,16
2,42,65,40
2,35,127,0
2,42,35,88
2,40,60,0
2,42,101,88
2,42,35,88
2,42,65,88
2,40,127,0
2,42,35,88
2,42,101,88
2,42,35,88
2,42,65,88
2,35,127,0
2,42,35,88
2,42,101,88
2,42,35,88
2,42,65,88
2,40,127,0
2,42,35,88
2,42,101,88
2,42,35,88
2,42,65,88
2,35,127,0
2,42,35,88
2,42,101,88
2,42,35,88
2,42,65,88
2,40,127,0
2,42,35,88
2,42,101,88
2,42,35,88
2,42,65,88
2,35,127,0
2,42,35,88
2,42,101,88
2,42,35,88
2,42,65,88
2,40,127,0
2,42,35,88
2,42,101,88
2,42,35,88
2,40,52,0
2,40,44,16
2,40,34,16
2,42,65,40
2,35,127,0
2,42,35,88
2,40,60,0
2,42,101,88
2,42,35,88
2,42,65,88
2,40,127,0
2,42,35,88
2,42,101,88
2,42,35,88
2,42,65,88
2,35,127,0
2,42,35,88
2,42,101,88
2,42,35,88
2,42,65,88
2,40,127,0
2,42,35,88
2,46,87,88
2,42,65,184
2,35,127,0
2,42,35,88
2,42,101,88
2,42,35,88
2,42,65,88
2,40,127,0
2,42,35,88
2,42,101,88
2,42,35,88
2,42,65,88
2,35,127,0
2,42,35,88
2,42,101,88
2,42,35,88
2,42,65,88
2,40,127,0
2,42,35,88
2,42,101,88
2,42,35,88
2,40,52,0
2,40,44,16
2,40,34,16
2,42,65,40
2,35,127,0
2,42,35,88
2,40,60,0
2,42,101,88
2,42,35,88
2,42,65,88
2,40,127,0
2,42,35,88
2,42,101,88
2,42,35,88
2,42,65,88
2,35,127,0
2,42,35,88
2,42,101,88
2,42,35,88
2,42,65,88
2,40,127,0
2,42,35,88
2,42,101,88
2,42,35,88
2,42,65,88
2,35,127,0
2,42,35,88
2,42,101,88
2,42,35,88
2,42,65,88
2,40,127,0
2,42,35,88
2,42,101,88
2,42,35,88
2,42,65,88
2,35,127,0
2,42,35,88
2,42,101,88
2,42,35,88
2,42,65,88
2,40,127,0
2,42,35,88
2,42,101,88
2,42,35,88
2,40,52,0
2,40,44,16
2,40,34,16
2,42,65,40
2,35,127,0
2,42,35,88
2,40,60,0
2,42,101,88
2,42,35,88
2,42,65,88
2,40,127,0
2,42,35,88
2,42,101,88
2,42,35,88
2,42,65,88
2,35,127,0
2,42,35,88
2,42,101,88
2,42,35,88
2,42,65,88
2,40,127,0
2,42,35,88
2,46,87,88
2,83,41,184
2,55,86,0
2,53,70,0
2,42,65,0
2,35,127,0
2,42,35,88
2,42,101,88
2,42,35,88
2,42,65,88
2,40,127,0
2,42,35,88
2,42,101,88
2,42,35,88
2,42,65,88
2,35,127,0
2,42,35,88
2,42,101,88
2,42,35,88
2,42,65,88
2,40,127,0
2,42,35,88
2,42,101,88
2,42,35,88
2,40,52,0
2,40,44,16
2,40,34,16
2,42,65,40
2,35,127,0
2,42,35,88
2,40,60,0
2,42,101,88
2,42,35,88
2,42,65,88
2,40,127,0
2,42,35,88
2,42,101,88
2,42,35,88
2,42,65,88
2,35,127,0
2,42,35,88
2,42,101,88
2,42,35,88
2,42,65,88
2,40,127,0
2,42,35,88
2,42,101,88
2,42,35,88
2,42,65,88
2,35,127,0
2,42,35,88
2,42,101,88
2,42,35,88
2,42,65,88
2,40,127,0
2,42,35,88
2,42,101,88
2,42,35,88
2,42,65,88
2,35,127,0
2,42,35,88
2,42,101,88
2,42,35,88
2,42,65,88
2,40,127,0
2,42,35,88
2,42,101,88
2,42,35,88
2,40,52,0
2,40,44,16
2,40,34,16
2,42,65,40
2,35,127,0
2,42,35,88
2,40,60,0
2,42,101,88
2,42,35,88
2,42,65,88
2,40,127,0
2,42,35,88
2,42,101,88
2,42,35,88
2,42,65,88
2,35,127,0
2,42,35,88
2,42,101,88
2,42,35,88
2,42,65,88
2,40,127,0
2,42,35,88
2,46,87,88
2,42,65,184
2,35,127,0
2,42,35,88
2,42,101,88
2,42,35,88
2,42,65,88
2,40,127,0
2,42,35,88
2,42,101,88
2,42,35,88
2,42,65,88
2,35,127,0
2,42,35,88
2,42,101,88
2,42,35,88
2,42,65,88
2,40,127,0
2,42,35,88
2,42,101,88
2,42,35,88
2,40,52,0
2,40,44,16
2,40,34,16
2,42,65,40
2,35,127,0
2,42,35,88
2,40,60,0
2,42,101,88
2,42,35,88
2,42,65,88
2,40,127,0
2,42,35,88
2,42,101,88
2,42,35,88
2,42,65,88
2,35,127,0
2,42,35,88
2,42,101,88
2,42,35,88
2,42,65,88
2,40,127,0
2,42,35,88
2,42,101,88
2,42,35,88
2,42,65,88
2,35,127,0
2,42,35,88
2,42,101,88
2,42,35,88
2,42,65,88
2,40,127,0
2,42,35,88
2,42,101,88
2,42,35,88
2,42,65,88
2,35,127,0
2,42,35,88
2,42,101,88
2,42,35,88
2,42,65,88
2,40,127,0
2,42,35,88
2,42,101,88
2,42,35,88
2,40,52,0
2,40,44,16
2,40,34,16
2,42,65,40
2,35,127,0
2,42,35,88
2,40,60,0
2,42,101,88
2,42,35,88
2,42,65,88
2,40,127,0
2,42,35,88
2,42,101,88
2,42,35,88
2,42,65,88
2,35,127,0
2,42,35,88
2,42,101,88
2,42,35,88
2,42,65,88
2,40,127,0
2,42,35,88
2,46,87,88
2,42,65,184
2,35,127,0
2,42,35,88
2,42,101,88
2,42,35,88
2,42,65,88
2,40,127,0
2,42,35,88
2,42,101,88
2,42,35,88
2,42,65,88
2,35,127,0
2,42,35,88
2,42,101,88
2,42,35,88
2,42,65,88
2,40,127,0
2,42,35,88
2,42,101,88
2,42,35,88
2,40,52,0
2,40,44,16
2,40,34,16
2,42,65,40
2,35,127,0
2,42,35,88
2,40,60,0
2,42,101,88
2,42,35,88
2,42,65,88
2,40,127,0
2,42,35,88
2,42,101,88
2,42,35,88
2,42,65,88
2,35,127,0
2,42,35,88
2,42,101,88
2,42,35,88
2,42,65,88
2,40,127,0
2,42,35,88
2,42,101,88
2,42,35,88
2,42,65,88
2,35,127,0
2,42,35,88
2,42,101,88
2,42,35,88
2,42,65,88
2,40,127,0
2,42,35,88
2,42,101,88
2,42,35,88
2,42,65,88
2,35,127,0
2,42,35,88
2,42,101,88
2,42,35,88
2,42,65,88
2,40,127,0
2,42,35,88
2,42,101,88
2,42,35,88
2,40,52,0
2,40,44,16
2,40,34,16
2,42,65,40
2,35,127,0
2,42,35,88
2,40,60,0
2,42,101,88
2,42,35,88
2,42,65,88
2,40,127,0
2,42,35,88
2,42,101,88
2,42,35,88
2,42,65,88
2,35,127,0
2,42,35,88
2,42,101,88
2,42,35,88
2,46,86,88
2,40,127,0
2,44,74,376
2,36,114,0
2,70,74,184
2,70,74,8
2,70,74,8
2,70,74,8
2,70,74,8
2,70,74,8
2,70,74,8
2,70,74,8
2,70,74,8
2,70,74,8
2,70,74,8
2,70,74,8
2,38,88,8
2,70,74,184
2,70,74,8
2,70,74,8
2,70,74,8
2,70,74,8
2,70,74,8
2,70,74,8
2,70,74,8
2,70,74,8
2,70,74,8
2,70,74,8
2,70,74,8
2,36,114,8
2,36,114,184
2,38,88,184
2,36,114,376
2,70,74,184
2,70,74,8
2,70,74,8
2,70,74,8
2,70,74,8
2,70,74,8
2,70,74,8
2,70,74,8
2,70,74,8
2,70,74,8
2,70,74,8
2,70,74,8
2,38,88,8
2,70,74,184
2,70,74,8
2,70,74,8
2,70,74,8
2,70,74,8
2,70,74,8
2,70,74,8
2,70,74,8
2,70,74,8
2,70,74,8
2,70,74,8
2,70,74,8
2,36,114,8
2,36,114,184
2,38,88,184
2,36,114,376
2,80,52,184
2,70,74,0
2,67,52,0
2,80,51,8
2,70,74,0
2,67,51,0
2,80,50,8
2,70,74,0
2,67,50,0
2,80,49,8
2,70,74,0
2,67,49,0
2,80,48,8
2,70,74,0
2,67,48,0
2,80,47,8
2,70,74,0
2,67,47,0
2,80,46,8
2,70,74,0
2,67,46,0
2,80,45,8
2,70,74,0
2,67,45,0
2,80,44,8
2,70,74,0
2,67,44,0
2,80,43,8
2,70,74,0
2,67,43,0
2,80,42,8
2,70,74,0
2,67,42,0
2,80,41,8
2,70,74,0
2,67,41,0
2,80,41,8
2,67,41,0
2,38,88,0
2,80,40,8
2,67,40,0
2,80,39,8
2,67,39,0
2,80,38,8
2,67,38,0
2,80,37,8
2,67,37,0
2,80,36,8
2,67,36,0
2,80,35,8
2,67,35,0
2,80,34,8
2,67,34,0
2,80,33,8
2,67,33,0
2,80,32,8
2,67,32,0
2,80,31,8
2,67,31,0
2,80,30,8
2,67,30,0
2,80,29,8
2,70,74,0
2,67,29,0
2,80,28,8
2,70,74,0
2,67,28,0
2,80,27,8
2,70,74,0
2,67,27,0
2,80,26,8
2,70,74,0
2,67,26,0
2,80,25,8
2,70,74,0
2,67,25,0
2,80,24,8
2,70,74,0
2,67,24,0
2,80,23,8
2,70,74,0
2,67,23,0
2,80,23,8
2,70,74,0
2,67,23,0
2,80,22,8
2,70,74,0
2,67,22,0
2,80,22,8
2,70,74,0
2,67,22,0
2,80,21,8
2,70,74,0
2,67,21,0
2,80,21,8
2,70,74,0
2,67,21,0
2,80,20,8
2,67,20,0
2,36,114,0
2,80,20,8
2,67,20,0
2,80,19,8
2,67,19,0
2,80,19,8
2,67,19,0
2,80,19,8
2,67,19,0
2,80,18,8
2,67,18,0
2,80,18,8
2,67,18,0
2,80,17,8
2,67,17,0
2,80,17,8
2,67,17,0
2,80,16,8
2,67,16,0
2,80,16,8
2,67,16,0
2,80,16,8
2,67,16,0
2,80,15,8
2,67,15,0
2,36,114,0
2,80,15,8
2,67,15,0
2,80,14,8
2,67,14,0
2,80,14,8
2,67,14,0
2,80,13,8
2,67,13,0
2,80,13,8
2,67,13,0
2,80,13,8
2,67,13,0
2,80,12,8
2,67,12,0
2,80,12,8
2,67,12,0
2,80,11,8
2,67,11,0
2,80,11,8
2,67,11,0
2,80,10,8
2,67,10,0
2,80,10,8
2,67,10,0
2,38,88,0
2,80,9,8
2,67,9,0
2,80,9,8
2,67,9,0
2,80,9,8
2,67,9,0
2,80,8,8
2,67,8,0
2,80,8,8
2,67,8,0
2,80,7,8
2,67,7,0
2,80,7,8
2,67,7,0
2,80,6,8
2,67,6,0
2,80,6,8
2,67,6,0
2,80,6,8
2,67,6,0
2,80,5,8
2,67,5,0
2,80,5,8
2,67,5,0
2,80,4,8
2,67,4,0
2,80,4,8
2,67,4,0
2,80,3,8
2,67,3,0
2,80,3,8
2,67,3,0
2,80,3,8
2,67,3,0
2,80,2,8
2,67,2,0
2,80,2,8
2,67,2,0
2,80,1,8
2,67,1,0
2,80,1,8
2,67,1,0
2,80,1,8
2,67,1,0
2,80,1,8
2,67,1,0
2,83,41,8
2,55,86,0
2,53,70,0
2,42,65,0
2,35,127,0
2,42,35,88
2,42,101,88
2,42,35,88
2,42,65,88
2,40,127,0
2,42,35,88
2,42,101,88
2,42,35,88
2,42,65,88
2,35,127,0
2,42,35,88
2,42,101,88
2,42,35,88
2,42,65,88
2,40,127,0
2,42,35,88
2,42,101,88
2,42,35,88
2,40,52,0
2,40,44,16
2,40,34,16
2,42,65,40
2,35,127,0
2,42,35,88
2,40,60,0
2,42,101,88
2,42,35,88
2,42,65,88
2,40,127,0
2,42,35,88
2,42,101,88
2,42,35,88
2,42,65,88
2,35,127,0
2,42,35,88
2,42,101,88
2,42,35,88
2,42,65,88
2,40,127,0
2,42,35,88
2,42,101,88
2,42,35,88
2,42,65,88
2,35,127,0
2,42,35,88
2,42,101,88
2,42,35,88
2,42,65,88
2,40,127,0
2,42,35,88
2,42,101,88
2,42,35,88
2,42,65,88
2,35,127,0
2,42,35,88
2,42,101,88
2,42,35,88
2,42,65,88
2,40,127,0
2,42,35,88
2,42,101,88
2,42,35,88
2,40,52,0
2,40,44,16
2,40,34,16
2,42,65,40
2,35,127,0
2,42,35,88
2,40,60,0
2,42,101,88
2,42,35,88
2,42,65,88
2,40,127,0
2,42,35,88
2,42,101,88
2,42,35,88
2,42,65,88
2,35,127,0
2,42,35,88
2,42,101,88
2,42,35,88
2,42,65,88
2,40,127,0
2,42,35,88
2,46,87,88
2,42,65,184
2,35,127,0
2,42,35,88
2,42,101,88
2,42,35,88
2,42,65,88
2,40,127,0
2,42,35,88
2,42,101,88
2,42,35,88
2,42,65,88
2,35,127,0
2,42,35,88
2,42,101,88
2,42,35,88
2,42,65,88
2,40,127,0
2,42,35,88
2,42,101,88
2,42,35,88
2,40,52,0
2,40,44,16
2,40,34,16
2,42,65,40
2,35,127,0
2,42,35,88
2,40,60,0
2,42,101,88
2,42,35,88
2,42,65,88
2,40,127,0
2,42,35,88
2,42,101,88
2,42,35,88
2,42,65,88
2,35,127,0
2,42,35,88
2,42,101,88
2,42,35,88
2,42,65,88
2,40,127,0
2,42,35,88
2,42,101,88
2,42,35,88
2,42,65,88
2,35,127,0
2,42,35,88
2,42,101,88
2,42,35,88
2,42,65,88
2,40,127,0
2,42,35,88
2,42,101,88
2,42,35,88
2,42,65,88
2,35,127,0
2,42,35,88
2,42,101,88
2,42,35,88
2,42,65,88
2,40,127,0
2,42,35,88
2,42,101,88
2,42,35,88
2,40,52,0
2,40,44,16
2,40,34,16
2,42,65,40
2,35,127,0
2,42,35,88
2,40,60,0
2,42,101,88
2,42,35,88
2,42,65,88
2,40,127,0
2,42,35,88
2,42,101,88
2,42,35,88
2,42,65,88
2,35,127,0
2,42,35,88
2,42,101,88
2,42,35,88
2,42,65,88
2,40,127,0
2,42,35,88
2,46,87,88
2,42,65,184
2,35,127,0
2,42,35,88
2,42,101,88
2,42,35,88
2,42,65,88
2,40,127,0
2,42,35,88
2,42,101,88
2,42,35,88
2,42,65,88
2,35,127,0
2,42,35,88
2,42,101,88
2,42,35,88
2,42,65,88
2,40,127,0
2,42,35,88
2,42,101,88
2,42,35,88
2,40,52,0
2,40,44,16
2,40,34,16
2,42,65,40
2,35,127,0
2,42,35,88
2,40,60,0
2,42,101,88
2,42,35,88
2,42,65,88
2,40,127,0
2,42,35,88
2,42,101,88
2,42,35,88
2,42,65,88
2,35,127,0
2,42,35,88
2,42,101,88
2,42,35,88
2,42,65,88
2,40,127,0
2,42,35,88
2,42,101,88
2,42,35,88
2,42,65,88
2,35,127,0
2,42,35,88
2,42,101,88
2,42,35,88
2,42,65,88
2,40,127,0
2,42,35,88
2,42,101,88
2,42,35,88
2,42,65,88
2,35,127,0
2,42,35,88
2,42,101,88
2,42,35,88
2,42,65,88
2,40,127,0
2,42,35,88
2,42,101,88
2,42,35,88
2,40,52,0
2,40,44,16
2,40,34,16
2,42,65,40
2,35,127,0
2,42,35,88
2,40,60,0
2,42,101,88
2,42,35,88
2,42,65,88
2,40,127,0
2,42,35,88
2,42,101,88
2,42,35,88
2,42,65,88
2,35,127,0
2,42,35,88
2,42,101,88
2,42,35,88
2,46,86,88
2,40,127,0
2,44,74,376
2,36,114,0
2,70,74,184
2,70,74,8
2,70,74,8
2,70,74,8
2,70,74,8
2,70,74,8
2,70,74,8
2,70,74,8
2,70,74,8
2,70,74,8
2,70,74,8
2,70,74,8
2,38,88,8
2,70,74,184
2,70,74,8
2,70,74,8
2,70,74,8
2,70,74,8
2,70,74,8
2,70,74,8
2,70,74,8
2,70,74,8
2,70,74,8
2,70,74,8
2,70,74,8
2,36,114,8
2,36,114,184
2,38,88,184
2,36,114,376
2,70,74,184
2,70,74,8
2,70,74,8
2,70,74,8
2,70,74,8
2,70,74,8
2,70,74,8
2,70,74,8
2,70,74,8
2,70,74,8
2,70,74,8
2,70,74,8
