track,note,velocity,time
4,36,113,120
4,36,113,165
4,36,113,165
4,36,113,165
4,36,113,165
4,36,113,165
4,36,113,165
4,36,113,165
4,36,113,165
4,36,113,165
4,36,113,165
4,36,113,165
4,36,113,165
4,36,113,165
4,36,113,165
4,36,113,165
4,36,113,165
4,36,113,165
4,36,113,165
4,36,113,165
4,36,113,165
4,36,113,165
4,36,113,165
4,36,113,165
4,36,113,165
4,36,113,165
4,36,113,165
4,36,113,165
4,32,114,165
4,44,113,165
4,44,113,45
4,32,114,45
4,44,113,165
4,44,113,45
4,27,114,45
4,39,113,165
4,39,113,45
4,27,114,45
4,39,113,165
4,39,113,45
4,34,114,45
4,46,113,165
4,46,113,45
4,34,114,45
4,46,113,165
4,46,113,45
4,36,114,45
4,43,113,45
4,48,113,45
4,43,113,45
4,36,114,45
4,43,113,45
4,48,113,45
4,43,113,45
4,32,114,45
4,44,113,165
4,44,113,45
4,32,114,45
4,44,113,165
4,44,113,45
4,27,114,45
4,39,113,165
4,39,113,45
4,27,114,45
4,39,113,165
4,39,113,45
4,34,114,45
4,41,113,165
4,46,113,45
4,34,114,45
4,41,113,165
4,46,113,45
4,34,114,45
4,41,113,45
4,46,113,45
4,41,113,45
4,34,114,45
4,41,113,45
4,46,113,45
4,41,113,45
4,32,114,45
4,44,113,165
4,44,113,45
4,32,114,45
4,44,113,165
4,44,113,45
4,27,114,45
4,39,113,165
4,39,113,45
4,27,114,45
4,39,113,165
4,39,113,45
4,34,114,45
4,46,113,165
4,46,113,45
4,34,114,45
4,46,113,165
4,46,113,45
4,36,114,45
4,43,113,45
4,48,113,45
4,43,113,45
4,36,114,45
4,43,113,45
4,48,113,45
4,43,113,45
4,32,114,45
4,44,113,165
4,44,113,45
4,32,114,45
4,44,113,165
4,44,113,45
4,27,114,45
4,39,113,165
4,39,113,45
4,27,114,45
4,39,113,165
4,39,113,45
4,34,114,45
4,41,113,165
4,46,113,45
4,34,114,45
4,41,113,165
4,46,113,45
4,34,114,45
4,41,113,45
4,46,113,45
4,41,113,45
4,34,114,45
4,41,113,45
4,46,113,45
4,41,113,45
4,31,113,45
4,31,113,125
4,39,113,125
4,39,113,165
4,39,113,165
4,39,113,165
4,38,113,165
4,38,113,165
4,38,113,165
4,38,113,165
4,36,113,165
4,36,113,165
4,36,113,165
4,36,113,165
4,34,113,165
4,34,113,165
4,34,113,165
4,34,113,165
4,34,113,165
4,34,113,165
4,34,113,165
4,34,113,165
4,39,113,165
4,39,113,165
4,39,113,165
4,39,113,165
4,41,113,165
4,41,113,165
4,41,113,165
4,41,113,165
4,43,113,165
4,43,113,165
4,43,113,165
4,43,113,165
4,34,113,165
4,34,113,165
4,34,113,165
4,34,113,165
4,34,113,165
4,34,113,165
4,34,113,165
4,34,113,165
4,39,113,165
4,39,113,165
4,39,113,165
4,39,113,165
4,38,113,165
4,38,113,165
4,38,113,165
4,38,113,165
4,36,113,165
4,36,113,165
4,36,113,165
4,36,113,165
4,34,113,165
4,34,113,165
4,34,113,165
4,34,113,165
4,34,113,165
4,34,113,165
4,34,113,165
4,34,113,165
4,39,113,165
4,39,113,165
4,39,113,165
4,39,113,165
4,41,113,165
4,41,113,165
4,41,113,165
4,41,113,165
4,34,113,165
4,34,113,165
4,34,113,165
4,34,113,165
4,34,113,165
4,34,113,165
4,34,113,165
4,34,113,165
4,39,113,165
4,39,113,165
4,39,113,165
4,39,113,165
4,41,113,165
4,41,113,165
4,41,113,165
4,41,113,165
4,43,113,165
4,43,113,165
4,43,113,165
4,43,113,165
4,44,113,165
4,44,113,165
4,44,113,165
4,44,113,165
4,44,113,165
4,44,113,165
4,44,113,165
4,44,113,165
4,36,113,165
4,36,113,165
4,36,113,165
4,36,113,165
4,36,113,165
4,36,113,165
4,36,113,165
4,36,113,165
4,36,113,165
4,36,113,165
4,36,113,165
4,36,113,165
4,36,113,165
4,36,113,165
4,36,113,165
4,36,113,165
4,36,113,165
4,36,113,165
4,36,113,165
4,36,113,165
4,36,113,165
4,36,113,165
4,36,113,165
4,36,113,165
4,36,113,165
4,36,113,165
4,36,113,165
4,36,113,165
4,32,124,165
4,44,113,165
4,44,113,45
4,32,124,45
4,44,113,165
4,44,113,45
4,27,124,45
4,39,113,165
4,39,113,45
4,27,124,45
4,39,113,165
4,39,113,45
4,34,124,45
4,46,113,165
4,46,113,45
4,34,124,45
4,46,113,165
4,46,113,45
4,36,124,45
4,43,113,45
4,48,113,45
4,43,113,45
4,36,124,45
4,43,113,45
4,48,113,45
4,43,113,45
4,32,124,45
4,44,113,165
4,44,113,45
4,32,124,45
4,44,113,165
4,44,113,45
4,27,124,45
4,39,113,165
4,39,113,45
4,27,124,45
4,39,113,165
4,39,113,45
4,34,124,45
4,41,113,165
4,46,113,45
4,34,124,45
4,41,113,165
4,46,113,45
4,34,124,45
4,41,113,45
4,46,113,45
4,41,113,45
4,34,124,45
4,41,113,45
4,46,113,45
4,41,113,45
4,32,124,45
4,44,113,165
4,44,113,45
4,32,124,45
4,44,113,165
4,44,113,45
4,27,124,45
4,39,113,165
4,39,113,45
4,27,124,45
4,39,113,165
4,39,113,45
4,34,124,45
4,46,113,165
4,46,113,45
4,34,124,45
4,46,113,165
4,46,113,45
4,36,124,45
4,43,113,45
4,48,113,45
4,43,113,45
4,36,124,45
4,43,113,45
4,48,113,45
4,43,113,45
4,32,124,45
4,44,113,165
4,44,113,45
4,32,124,45
4,44,113,165
4,44,113,45
4,27,124,45
4,39,113,165
4,39,113,45
4,27,124,45
4,39,113,165
4,39,113,45
4,34,124,45
4,41,113,165
4,46,113,45
4,34,124,45
4,41,113,165
4,46,113,45
4,34,124,45
4,41,113,45
4,46,113,45
4,41,113,45
4,34,124,45
4,41,113,45
4,46,113,45
4,41,113,45
4,31,113,45
4,31,113,125
4,39,113,125
4,39,113,165
4,39,113,165
4,39,113,165
4,38,113,165
4,38,113,165
4,38,113,165
4,38,113,165
4,36,113,165
4,36,113,165
4,36,113,165
4,36,113,165
4,34,113,165
4,34,113,165
4,34,113,165
4,34,113,165
4,34,113,165
4,34,113,165
4,34,113,165
4,34,113,165
4,39,113,165
4,39,113,165
4,39,113,165
4,39,113,165
4,41,113,165
4,41,113,165
4,41,113,165
4,41,113,165
4,43,113,165
4,43,113,165
4,43,113,165
4,43,113,165
4,34,113,165
4,34,113,165
4,34,113,165
4,34,113,165
4,34,113,165
4,34,113,165
4,34,113,165
4,34,113,165
4,39,113,165
4,39,113,165
4,39,113,165
4,39,113,165
4,38,113,165
4,38,113,165
4,38,113,165
4,38,113,165
4,36,113,165
4,36,113,165
4,36,113,165
4,36,113,165
4,34,113,165
4,34,113,165
4,34,113,165
4,34,113,165
4,34,113,165
4,34,113,165
4,34,113,165
4,34,113,165
4,39,113,165
4,39,113,165
4,39,113,165
4,39,113,165
4,41,113,165
4,41,113,165
4,41,113,165
4,41,113,165
4,34,113,165
4,34,113,165
4,34,113,165
4,34,113,165
4,34,113,165
4,34,113,165
4,34,113,165
4,34,113,165
4,39,113,165
4,39,113,165
4,39,113,165
4,39,113,165
4,41,113,165
4,41,113,165
4,41,113,165
4,41,113,165
4,43,113,165
4,43,113,165
4,43,113,165
4,43,113,165
4,44,113,165
4,44,113,165
4,44,113,165
4,44,113,165
4,44,113,165
4,44,113,165
4,44,113,165
4,44,113,165
4,36,113,165
4,36,113,165
4,36,113,165
4,36,113,165
4,36,113,165
4,36,113,165
4,36,113,165
4,36,113,165
4,36,113,165
4,36,113,165
4,36,113,165
4,36,113,165
4,36,113,165
4,36,113,165
4,36,113,165
4,36,113,165
4,36,113,165
4,36,113,165
4,36,113,165
4,36,113,165
4,36,113,165
4,36,113,165
4,36,113,165
4,36,113,165
4,36,113,165
4,36,113,165
4,36,113,165
4,36,113,165
4,32,124,165
4,44,113,165
4,44,113,45
4,32,124,45
4,44,113,165
4,44,113,45
4,27,124,45
4,39,113,165
4,39,113,45
4,27,124,45
4,39,113,165
4,39,113,45
4,34,124,45
4,46,113,165
4,46,113,45
4,34,124,45
4,46,113,165
4,46,113,45
4,36,124,45
4,43,113,45
4,48,113,45
4,43,113,45
4,36,124,45
4,43,113,45
4,48,113,45
4,43,113,45
4,32,124,45
4,44,113,165
4,44,113,45
4,32,124,45
4,44,113,165
4,44,113,45
4,27,124,45
4,39,113,165
4,39,113,45
4,27,124,45
4,39,113,165
4,39,113,45
4,34,124,45
4,41,113,165
4,46,113,45
4,34,124,45
4,41,113,165
4,46,113,45
4,34,124,45
4,41,113,45
4,46,113,45
4,41,113,45
4,34,124,45
4,41,113,45
4,46,113,45
4,41,113,45
4,32,124,45
4,44,113,165
4,44,113,45
4,32,124,45
4,44,113,165
4,44,113,45
4,27,124,45
4,39,113,165
4,39,113,45
4,27,124,45
4,39,113,165
4,39,113,45
4,34,124,45
4,46,113,165
4,46,113,45
4,34,124,45
4,46,113,165
4,46,113,45
4,36,124,45
4,43,113,45
4,48,113,45
4,43,113,45
4,36,124,45
4,43,113,45
4,48,113,45
4,43,113,45
4,32,124,45
4,44,113,165
4,44,113,45
4,32,124,45
4,44,113,165
4,44,113,45
4,27,124,45
4,39,113,165
4,39,113,45
4,27,124,45
4,39,113,165
4,39,113,45
4,34,124,45
4,41,113,165
4,46,113,45
4,34,124,45
4,41,113,165
4,46,113,45
4,34,124,45
4,41,113,45
4,46,113,45
4,41,113,45
4,34,124,45
4,41,113,45
4,46,113,45
4,41,113,45
4,36,113,45
4,36,113,165
4,36,113,165
4,36,113,165
4,36,113,165
4,36,113,165
4,36,113,165
4,36,113,165
4,36,113,165
4,36,113,165
4,36,113,165
4,36,113,165
4,36,113,165
4,36,113,165
4,36,113,165
4,36,113,165
4,36,113,165
4,36,113,165
4,36,113,165
4,36,113,165
4,36,113,165
4,36,113,165
4,36,113,165
4,36,113,165
4,36,113,165
4,36,113,165
4,36,113,165
4,36,113,165
4,36,113,165
4,36,113,165
4,36,113,165
4,36,113,165
4,32,124,165
4,44,113,165
4,44,113,45
4,32,124,45
4,44,113,165
4,44,113,45
4,27,124,45
4,39,113,165
4,39,113,45
4,27,124,45
4,39,113,165
4,39,113,45
4,34,124,45
4,46,113,165
4,46,113,45
4,34,124,45
4,46,113,165
4,46,113,45
4,36,124,45
4,43,113,45
4,48,113,45
4,43,113,45
4,36,124,45
4,43,113,45
4,48,113,45
4,43,113,45
4,32,124,45
4,44,113,165
4,44,113,45
4,32,124,45
4,44,113,165
4,44,113,45
4,27,124,45
4,39,113,165
4,39,113,45
4,27,124,45
4,39,113,165
4,39,113,45
4,34,124,45
4,41,113,165
4,46,113,45
4,34,124,45
4,41,113,165
4,46,113,45
4,34,124,45
4,41,113,45
4,46,113,45
4,41,113,45
4,34,124,45
4,41,113,45
4,46,113,45
4,41,113,45
4,32,124,45
4,44,113,165
4,44,113,45
4,32,124,45
4,44,113,165
4,44,113,45
4,27,124,45
4,39,113,165
4,39,113,45
4,27,124,45
4,39,113,165
4,39,113,45
4,34,124,45
4,46,113,165
4,46,113,45
4,34,124,45
4,46,113,165
4,46,113,45
4,36,124,45
4,43,113,45
4,48,113,45
4,43,113,45
4,36,124,45
4,43,113,45
4,48,113,45
4,43,113,45
4,32,124,45
4,44,113,165
4,44,113,45
4,32,124,45
4,44,113,165
4,44,113,45
4,27,124,45
4,39,113,165
4,39,113,45
4,27,124,45
4,39,113,165
4,39,113,45
4,34,124,45
4,41,113,165
4,46,113,45
4,34,124,45
4,41,113,165
4,46,113,45
4,34,124,45
4,41,113,45
4,46,113,45
4,41,113,45
4,34,124,45
4,41,113,45
4,46,113,45
4,41,113,45
4,31,113,45
4,31,113,125
4,39,113,125
4,39,113,165
4,39,113,165
4,39,113,165
4,38,113,165
4,38,113,165
4,38,113,165
4,38,113,165
4,36,113,165
4,36,113,165
4,36,113,165
4,36,113,165
4,34,113,165
4,34,113,165
4,34,113,165
4,34,113,165
4,34,113,165
4,34,113,165
4,34,113,165
4,34,113,165
4,39,113,165
4,39,113,165
4,39,113,165
4,39,113,165
4,38,113,165
4,38,113,165
4,38,113,165
4,38,113,165
4,36,113,165
4,36,113,165
4,36,113,165
4,36,113,165
4,34,113,165
4,34,113,165
4,34,113,165
4,34,113,165
4,34,113,165
4,34,113,165
4,34,113,165
4,34,113,165
4,39,113,165
5,55,127,600
5,60,127,0
5,64,127,0
5,65,123,5
5,51,126,5
5,56,126,0
5,60,126,0
5,55,126,5
5,58,126,0
5,50,126,5
5,53,126,0
5,51,126,5
5,55,126,0
5,60,126,0
5,56,126,5
5,55,126,5
5,58,126,0
5,50,126,5
5,53,126,0
5,51,126,5
5,56,126,0
5,60,126,0
5,55,126,5
5,58,126,0
5,50,126,5
5,53,126,0
5,51,126,5
5,55,126,0
5,60,126,0
5,56,126,5
5,55,126,5
5,58,126,0
5,50,126,5
5,53,126,0
5,55,126,3845
5,58,126,0
5,63,126,0
5,53,126,5
5,62,126,0
5,55,126,5
5,60,126,0
5,63,126,0
5,53,126,5
5,58,126,0
5,62,126,5
5,55,126,5
5,63,126,0
5,62,126,5
5,65,126,0
5,55,126,5
5,60,126,0
5,63,126,0
5,53,126,5
5,58,126,0
5,62,126,5
5,55,126,5
5,58,126,0
5,63,126,0
5,53,126,5
5,62,126,0
5,55,126,5
5,60,126,0
5,63,126,0
5,53,126,5
5,58,126,0
5,55,126,5
5,58,126,0
5,63,126,0
5,53,126,5
5,62,126,0
5,56,126,5
5,63,126,0
5,55,126,5
5,58,126,0
5,63,126,0
5,53,126,5
5,62,126,0
5,55,126,5
5,60,126,0
5,63,126,0
5,53,126,5
5,58,126,0
5,55,127,5
5,60,127,0
5,64,127,0
5,65,108,5
5,51,111,5
5,56,111,0
5,60,111,0
5,55,111,5
5,58,111,0
5,50,111,5
5,53,111,0
5,51,111,5
5,55,111,0
5,60,111,0
5,56,111,5
5,55,111,5
5,58,111,0
5,50,111,5
5,53,111,0
5,51,111,5
5,56,111,0
5,60,111,0
5,55,111,5
5,58,111,0
5,50,111,5
5,53,111,0
5,51,111,5
5,55,111,0
5,60,111,0
5,56,111,5
5,55,111,5
5,58,111,0
5,50,111,5
5,53,111,0
5,55,111,3845
5,58,111,0
5,63,111,0
5,53,111,5
5,62,111,0
5,55,111,5
5,60,111,0
5,63,111,0
5,53,111,5
5,58,111,0
5,62,111,5
5,55,111,5
5,63,111,0
5,62,111,5
5,65,111,0
5,55,111,5
5,60,111,0
5,63,111,0
5,53,111,5
5,58,111,0
5,62,111,5
5,55,111,5
5,58,111,0
5,63,111,0
5,53,111,5
5,62,111,0
5,55,111,5
5,60,111,0
5,63,111,0
5,53,111,5
5,58,111,0
5,55,111,5
5,58,111,0
5,63,111,0
5,53,111,5
5,62,111,0
5,56,111,5
5,63,111,0
5,55,111,5
5,58,111,0
5,63,111,0
5,53,111,5
5,62,111,0
5,55,111,5
5,60,111,0
5,63,111,0
5,53,111,5
5,58,111,0
5,55,127,5
5,60,127,0
5,64,127,0
5,65,108,5
5,51,111,5
5,56,111,0
5,60,111,0
5,55,111,5
5,58,111,0
5,50,111,5
5,53,111,0
5,51,111,5
5,55,111,0
5,60,111,0
5,56,111,5
5,55,111,5
5,58,111,0
5,50,111,5
5,53,111,0
5,51,111,5
5,56,111,0
5,60,111,0
5,55,111,5
5,58,111,0
5,50,111,5
5,53,111,0
5,51,111,5
5,55,111,0
5,60,111,0
5,56,111,5
5,55,111,5
5,58,111,0
5,50,111,5
5,53,111,0
5,55,127,5
5,60,127,0
5,64,127,0
5,64,108,5
5,51,111,5
5,56,111,0
5,60,111,0
5,55,111,5
5,58,111,0
5,50,111,5
5,53,111,0
5,51,111,5
5,55,111,0
5,60,111,0
5,56,111,5
5,55,111,5
5,58,111,0
5,50,111,5
5,53,111,0
5,51,111,5
5,56,111,0
5,60,111,0
5,55,111,5
5,58,111,0
5,50,111,5
5,53,111,0
5,51,111,5
5,55,111,0
5,60,111,0
5,56,111,5
5,55,111,5
