track,note,velocity,time
4,31,97,16490
4,31,94,173
4,30,97,175
4,30,97,222
4,28,96,170
4,28,97,225
4,26,96,170
4,26,96,190
4,24,97,184
4,24,97,194
4,23,94,170
4,23,96,168
4,33,97,193
4,33,97,169
4,33,96,194
4,33,96,170
4,35,97,83
4,36,98,95
4,36,99,199
4,35,97,183
4,35,96,200
4,38,97,179
4,38,96,184
4,38,94,203
4,38,97,189
4,36,97,210
4,36,96,212
4,38,100,192
4,38,103,170
4,31,97,207
4,31,94,173
4,30,96,175
4,30,97,222
4,28,96,170
4,28,97,225
4,26,97,170
4,26,96,190
4,24,97,184
4,24,96,194
4,23,94,170
4,23,97,168
4,33,97,193
4,33,96,169
4,33,96,194
4,33,97,170
4,35,97,83
4,36,98,95
4,36,98,199
4,35,97,183
4,35,96,200
4,38,97,179
4,38,97,184
4,38,94,203
4,38,97,189
4,33,94,210
4,33,96,174
4,33,99,175
4,38,103,240
4,38,100,222
4,36,100,720
4,38,103,228
4,36,101,215
4,33,94,13
4,33,96,174
4,33,99,175
4,38,102,240
4,38,101,222
4,36,101,720
4,38,102,228
4,36,101,215
4,33,94,13
4,33,96,174
4,33,99,175
4,38,103,240
4,38,100,222
4,36,100,720
4,38,103,228
4,36,101,215
4,33,94,13
4,33,96,174
4,33,99,175
4,38,102,240
4,38,101,222
4,36,101,720
4,38,102,228
4,36,101,215
4,33,94,13
4,33,96,174
4,33,99,175
4,38,103,240
4,38,100,222
4,36,100,720
4,38,103,228
4,36,101,215
4,33,94,13
4,33,96,174
4,33,99,175
4,38,102,240
4,38,101,222
4,36,101,720
4,38,102,228
4,36,101,215
4,33,94,13
4,33,96,174
4,33,99,175
4,38,103,240
4,38,100,222
4,36,100,720
4,38,103,228
4,36,101,215
4,33,94,13
4,33,96,174
4,33,99,175
4,38,102,240
4,38,101,222
4,33,101,720
4,38,102,0
4,33,101,0
4,36,98,13
4,36,96,215
4,36,97,175
4,36,95,194
4,38,88,209
4,38,92,200
4,38,91,225
4,38,93,219
4,36,98,230
4,36,96,215
4,36,97,175
4,36,94,194
4,38,89,209
4,38,93,200
4,38,90,225
4,38,93,219
4,36,98,230
4,36,96,215
4,36,97,175
4,36,95,194
4,38,88,209
4,38,92,200
4,38,91,225
4,38,93,219
4,36,98,230
4,36,96,215
4,36,97,175
4,36,94,194
4,42,97,209
4,45,93,240
4,50,92,209
4,54,89,0
4,57,86,240
4,38,98,215
4,38,103,8
4,38,103,20
4,33,94,20
4,33,96,174
4,33,99,175
4,38,103,240
4,38,100,222
4,36,100,720
4,38,103,228
4,36,100,215
4,33,95,13
4,33,97,174
4,33,98,175
4,38,103,240
4,38,100,222
4,33,100,720
4,38,103,0
4,33,101,0
4,36,98,13
4,36,96,217
4,31,101,24
4,36,101,240
4,31,94,3
4,38,92,240
4,38,101,168
4,36,94,720
4,38,97,214
4,33,97,230
4,31,106,13
4,31,107,83
4,26,100,32
4,31,106,7
4,31,101,69
4,26,101,12
4,31,100,240
4,27,102,7
4,34,99,960
4,39,103,474
4,31,96,17
4,31,94,173
4,30,97,175
4,30,96,222
4,28,97,170
4,28,97,225
4,26,96,170
4,26,97,190
4,24,96,184
4,24,96,194
4,23,95,170
4,23,97,168
4,33,96,193
4,33,96,169
4,33,97,194
4,33,97,170
4,35,96,83
4,36,98,95
4,36,99,199
4,35,96,183
4,35,97,200
4,38,97,179
4,38,96,184
4,38,95,203
4,38,96,189
4,36,96,210
4,36,97,212
4,38,101,192
4,38,102,170
4,31,96,207
4,31,95,173
4,30,97,175
4,30,96,222
4,28,96,170
4,28,97,225
4,26,96,170
4,26,97,190
4,24,97,184
4,24,96,194
4,23,95,170
4,23,96,168
4,33,96,193
4,33,97,169
4,33,97,194
4,33,96,170
4,35,96,83
4,36,99,95
4,36,99,199
4,35,96,183
4,35,96,200
4,38,97,179
4,38,96,184
4,38,95,203
4,38,97,189
4,33,94,210
4,33,97,174
4,33,98,175
4,38,102,240
4,38,101,222
4,36,101,720
4,38,102,228
4,36,100,215
4,33,95,13
4,33,97,174
4,33,98,175
4,38,102,240
4,38,101,222
4,36,100,720
4,38,103,228
4,36,101,215
4,33,94,13
4,33,97,174
4,33,98,175
4,38,102,240
4,38,101,222
4,36,101,720
4,38,102,228
4,36,100,215
4,33,95,13
4,33,97,174
4,33,98,175
4,38,102,240
4,38,101,222
4,36,100,720
4,38,103,228
4,36,101,215
4,33,94,13
4,33,97,174
4,33,98,175
4,38,102,240
4,38,101,222
4,36,101,720
4,38,102,228
4,36,100,215
4,33,95,13
4,33,97,174
4,33,98,175
4,38,102,240
4,38,101,222
4,36,100,720
4,38,103,228
4,36,101,215
4,33,94,13
4,33,97,174
4,33,98,175
4,38,102,240
4,38,101,222
4,36,101,720
4,38,102,228
4,36,100,215
4,33,95,13
4,33,97,174
4,33,98,175
4,38,102,240
4,38,101,222
4,33,100,720
4,38,103,0
4,33,101,0
4,36,98,13
4,36,97,215
4,36,96,175
4,36,94,194
4,38,89,209
4,38,93,200
4,38,90,225
4,38,92,219
4,36,99,230
4,36,97,215
4,36,96,175
4,36,94,194
4,38,89,209
4,38,92,200
4,38,91,225
4,38,93,219
4,36,98,230
4,36,97,215
4,36,96,175
4,36,94,194
4,38,89,209
4,38,93,200
4,38,90,225
4,38,92,219
4,36,99,230
4,36,97,215
4,36,96,175
4,36,94,194
4,26,103,209
4,26,100,44
4,26,99,43
4,26,99,44
4,26,98,32
4,26,99,39
4,26,98,30
4,26,96,42
4,33,95,85
4,33,97,174
4,33,98,175
4,38,102,240
4,38,101,222
4,36,101,720
4,38,102,228
4,36,100,215
4,33,95,13
4,33,96,174
4,33,99,175
4,38,103,240
4,38,100,222
4,33,101,720
4,38,102,0
4,33,100,0
4,36,99,13
4,36,97,217
4,31,100,24
4,36,100,240
4,31,95,3
4,38,93,240
4,38,100,168
4,36,94,720
4,38,97,214
4,33,96,230
4,31,107,13
4,38,93,720
4,43,100,0
4,38,97,4
4,31,100,240
4,38,96,38
4,43,101,240
4,38,93,437
4,43,96,223
4,27,102,7
4,27,95,29
4,27,97,28
4,27,94,29
4,27,96,25
4,31,97,240
4,31,94,173
4,30,97,175
4,30,97,222
4,28,96,170
4,28,97,225
4,26,96,170
4,26,96,190
4,24,97,184
4,24,97,194
4,23,94,170
4,23,96,168
4,33,97,193
4,33,97,169
4,33,96,194
4,33,96,170
4,35,97,83
4,36,98,95
4,36,99,199
4,35,97,183
4,35,96,200
4,38,97,179
4,38,96,184
4,38,94,203
4,38,97,189
4,36,97,210
4,36,96,212
4,38,100,192
4,38,103,170
4,31,97,207
4,31,94,173
4,30,96,175
4,30,97,222
4,28,96,170
4,28,97,225
4,26,97,170
4,26,96,190
4,24,97,184
4,24,96,194
4,23,94,170
4,23,97,168
4,33,97,193
4,33,96,169
4,33,96,194
4,33,97,170
4,35,97,83
4,36,98,95
4,36,98,199
4,35,97,183
4,35,96,200
4,38,97,179
4,38,97,184
4,38,94,203
4,38,97,189
4,38,82,210
4,38,82,158
4,38,91,148
4,31,91,18
4,31,96,52
4,31,94,79
4,31,89,53
4,31,93,83
4,31,90,97
4,38,90,37
4,38,83,59
4,38,82,69
4,38,83,158
4,31,91,148
4,31,96,52
4,31,95,79
4,31,88,53
4,31,92,83
4,31,91,97
4,38,91,37
4,38,82,59
4,38,90,69
4,38,83,18
4,38,83,158
4,38,90,148
4,31,90,18
4,31,97,52
4,31,94,79
4,31,89,53
4,31,93,83
4,31,90,97
4,38,91,37
4,38,82,59
4,31,90,69
4,31,97,52
4,31,95,79
4,31,88,53
4,31,92,83
4,31,91,97
4,38,91,37
5,57,75,3235
5,55,74,58
5,57,75,88
5,55,75,104
5,57,74,93
5,55,75,104
5,57,74,99
5,55,74,104
5,62,75,93
5,61,75,85
5,62,74,102
5,61,74,22
5,62,75,48
5,61,75,97
5,62,74,100
5,59,74,22
5,57,75,5
5,55,74,53
5,57,75,37
5,55,75,20
5,57,74,5
5,55,75,54
5,57,74,79
5,55,74,42
5,62,75,68
5,61,75,30
5,62,74,102
5,61,74,20
5,62,75,113
5,61,75,32
5,62,74,59
5,59,74,42
5,57,75,63
5,55,74,58
5,57,75,80
5,55,75,84
5,57,74,47
5,55,75,104
5,57,74,99
5,55,74,85
5,62,75,68
5,61,75,73
5,62,74,102
5,61,74,92
5,62,75,4
5,61,75,52
5,62,74,14
5,59,74,75
5,57,75,63
5,55,74,58
5,57,75,88
5,55,75,104
5,57,74,93
5,55,75,104
5,57,74,99
5,55,74,104
5,67,113,93
5,66,119,252
5,67,116,265
5,69,120,235
5,67,127,254
5,66,119,262
5,67,120,249
5,69,126,250
5,74,113,230
5,72,116,260
5,71,113,252
5,69,109,283
5,67,108,263
5,66,105,270
5,67,108,289
5,69,120,263
5,67,121,272
5,66,111,200
5,64,116,173
5,62,112,197
5,62,109,184
5,64,121,165
5,66,104,174
5,67,116,190
5,62,101,205
5,64,116,185
5,66,105,192
5,67,121,195
5,67,112,239
5,66,119,252
5,67,116,265
5,69,120,235
5,67,127,254
5,66,119,262
5,67,120,249
5,69,126,250
5,74,113,230
5,72,117,260
5,71,112,252
5,69,108,283
5,67,109,263
5,66,104,270
5,67,109,289
5,69,121,263
5,67,120,272
5,66,111,200
5,64,116,173
5,62,112,197
5,62,109,184
5,64,121,165
5,66,104,174
5,67,116,190
5,69,97,205
5,71,97,3120
5,69,92,719
5,67,96,20
5,69,97,720
5,71,96,0
5,69,93,0
5,71,97,0
5,69,96,0
5,67,97,3120
5,69,92,719
5,71,96,0
5,69,97,0
5,67,97,0
5,69,92,0
5,62,92,0
5,60,107,0
5,62,107,10
5,60,108,318
5,59,106,240
5,60,105,212
5,59,106,240
5,60,105,215
5,62,105,42
5,60,106,63
5,60,111,17
5,59,90,35
5,60,110,242
5,62,107,2
5,60,109,318
5,59,106,240
5,60,104,212
5,59,107,240
5,60,105,215
5,62,104,42
5,69,96,225
5,67,91,1657
5,69,96,0
5,71,107,28
5,69,93,243
5,62,92,0
5,60,111,0
5,62,106,1920
5,74,98,2849
5,63,109,14
5,75,95,0
5,67,112,3
5,66,118,252
5,67,117,265
5,69,121,235
5,67,126,254
5,66,118,262
5,67,121,249
5,69,126,250
5,74,113,230
5,72,117,260
5,71,112,252
5,69,109,283
5,67,108,263
5,66,104,270
5,67,109,289
5,69,121,263
5,67,120,272
5,66,110,200
5,64,117,173
5,62,113,197
5,62,108,184
5,64,120,165
5,66,105,174
5,67,116,190
5,62,101,205
5,64,117,185
5,66,104,192
5,67,121,195
5,67,112,239
5,66,118,252
5,67,117,265
5,69,121,235
5,67,126,254
5,66,118,262
5,67,121,249
5,69,127,250
5,74,112,230
5,72,116,260
5,71,113,252
5,69,108,283
5,67,109,263
5,66,105,270
5,67,108,289
5,69,121,263
5,67,120,272
5,66,110,200
5,64,117,173
5,62,113,197
5,62,108,184
5,64,120,165
5,66,105,174
5,67,117,190
5,69,96,205
5,71,96,0
5,69,93,0
5,67,96,20
5,69,97,720
5,71,97,0
5,69,92,0
5,67,97,0
5,69,96,0
5,71,96,0
5,69,93,0
5,67,97,0
5,69,96,0
5,71,96,0
5,69,93,0
5,62,93,0
5,60,106,0
5,62,106,10
5,60,107,78
5,62,106,1920
5,60,107,63
5,62,107,0
5,60,106,78
5,62,107,1920
5,69,96,78
5,67,90,1657
5,69,97,0
5,71,107,28
5,69,92,243
5,62,92,0
5,60,111,0
5,62,107,1920
5,74,98,2849
5,63,108,14
5,75,95,0
5,67,112,3
5,66,119,252
5,67,117,265
5,69,120,235
5,67,127,254
5,66,118,262
5,67,120,249
5,69,127,250
5,74,113,230
5,72,116,260
5,71,112,252
5,69,109,283
5,67,109,263
5,66,104,270
5,67,108,289
5,69,121,263
5,67,120,272
5,66,111,200
5,64,117,173
5,62,112,197
5,62,109,184
5,64,120,165
5,66,104,174
5,67,117,190
5,62,101,205
5,64,116,185
5,66,104,192
5,67,121,195
5,67,113,239
5,66,118,252
5,67,116,265
5,69,121,235
5,67,126,254
5,66,119,262
5,67,121,249
5,69,126,250
5,74,113,230
5,72,116,260
5,71,112,252
5,69,109,283
5,67,109,263
5,66,104,270
5,67,108,289
5,69,121,263
5,67,121,272
5,66,110,200
5,64,116,173
5,62,113,197
5,62,108,184
5,64,121,165
5,66,105,174
5,67,116,190
5,57,101,205
5,55,100,58
5,57,100,88
5,55,101,104
5,57,101,93
5,55,100,104
5,57,100,99
5,55,101,104
5,62,101,93
5,61,100,85
5,62,100,102
5,61,101,92
5,62,100,120
5,61,101,98
5,62,101,118
5,59,100,75
5,57,101,63
5,55,100,58
5,57,100,88
5,55,101,104
5,57,101,93
5,55,100,104
5,57,100,99
5,55,101,104
5,62,101,93
5,61,100,85
5,62,100,102
5,61,101,92
5,62,100,120
5,61,101,98
5,62,101,118
5,59,100,75
5,57,101,63
5,55,100,58
5,57,100,88
5,55,101,104
5,57,101,93
5,55,100,104
5,57,100,99
5,55,101,104
5,62,101,93
5,61,100,85
5,62,100,102
5,61,101,92
5,62,100,120
5,61,101,98
5,62,101,118
5,59,100,75
5,57,101,63
5,55,100,58
5,57,100,88
5,55,101,104
5,57,101,93
5,55,100,104
5,57,100,99
5,55,101,104
5,57,101,93
5,55,100,58
5,57,100,88
5,55,101,104
5,57,100,93
5,55,101,104
5,57,101,99
5,55,100,104
5,62,101,93
5,61,100,85
5,62,100,102
5,61,101,92
5,62,101,120
5,61,100,98
5,62,100,118
5,59,101,75
5,57,101,63
5,55,100,58
5,57,100,88
5,55,101,104
5,57,100,93
5,55,101,104
5,57,101,99
5,55,100,104
5,62,101,93
5,61,100,85
5,62,100,102
5,61,101,92
5,62,101,120
5,61,100,98
5,62,100,118
5,59,101,75
5,57,101,63
5,55,100,58
5,57,100,88
5,55,101,104
5,57,100,93
5,55,101,104
5,57,101,99
5,55,100,104
5,62,101,93
5,61,100,85
5,62,100,102
5,61,101,92
5,62,101,120
5,61,100,98
5,62,100,118
5,59,101,75
5,57,101,63
6,0,1,1277
6,0,1,1892
6,72,105,38761
6,72,104,228
6,71,105,5
6,69,105,34
6,69,104,180
6,72,105,1357
6,72,104,88
6,71,104,44
6,72,105,92
6,71,105,53
6,71,104,72
6,69,104,67
6,69,105,94
6,69,105,200
6,76,104,1650
6,76,104,163
6,72,105,73
6,69,104,83
6,69,105,103
6,72,105,1597
6,71,104,15
6,72,105,17
6,71,104,240
6,71,104,69
6,69,105,55
6,62,105,58
6,62,104,212
6,76,104,1135
6,76,105,212
6,74,105,330
6,74,104,94
6,74,104,105
6,74,105,74
6,76,104,1804
6,76,105,125
6,76,105,119
6,76,104,120
6,76,105,175
6,76,104,115
6,78,104,189
6,72,105,1672
6,72,105,125
6,72,104,134
6,72,104,128
6,69,105,175
6,69,105,99
6,69,104,164
6,72,104,1618
6,72,105,124
6,72,104,145
6,71,105,132
6,76,105,140
6,76,104,123
6,74,105,102
6,79,104,1892
6,79,104,283
6,78,105,35
6,74,105,78
6,74,104,180
6,79,104,1554
6,79,105,135
6,78,105,60
6,76,104,55
6,76,104,92
6,74,105,68
6,74,104,97
6,74,105,198
6,81,105,1592
6,79,104,107
6,76,105,78
6,76,104,74
6,74,104,18
6,79,105,1825
6,78,105,67
6,78,104,98
6,76,104,69
6,76,105,105
6,74,105,69
6,76,104,108
6,74,104,200
6,72,105,1578
6,72,104,255
6,71,105,39
6,69,105,94
6,69,104,130
6,69,105,123
6,69,104,133
6,71,104,845
6,72,105,143
6,71,105,14
6,72,104,22
6,71,104,45
6,71,105,127
6,76,105,77
6,76,104,120
6,74,104,168
6,76,105,1628
6,76,104,244
6,74,105,59
6,76,105,134
6,74,104,98
6,76,105,133
6,74,104,119
6,76,104,129
6,74,105,97
6,74,105,523
6,74,104,222
6,74,104,783
6,74,105,109
6,74,105,98
6,74,104,89
6,74,104,113
6,74,105,109
6,74,104,127
6,75,105,88
6,74,105,49
6,72,104,25125
6,72,105,228
6,71,104,5
6,69,104,34
6,69,105,180
6,72,105,1357
