track,note,velocity,time
0,40,65,0
0,52,75,0
0,59,74,0
0,67,55,0
0,76,74,0
0,64,75,0
0,67,55,19
0,76,74,0
0,64,75,0
0,36,64,0
0,48,75,0
0,60,75,0
0,67,54,0
0,72,74,0
0,64,75,0
0,67,55,240
0,72,74,0
0,64,74,0
0,43,63,0
0,55,74,0
0,59,75,0
0,62,74,0
0,71,75,0
0,62,75,0
0,71,74,40
0,62,74,0
0,38,65,0
0,50,74,0
0,54,75,0
0,57,75,0
0,66,75,0
0,62,74,0
0,66,75,38
0,62,75,0
0,40,64,0
0,52,74,0
0,59,74,0
0,67,54,0
0,76,75,0
0,64,65,0
0,66,64,0
0,64,74,0
0,64,65,0
0,66,65,0
0,67,54,0
0,76,75,0
0,64,64,0
0,66,65,0
0,64,75,0
0,64,64,0
0,66,64,0
0,36,65,0
0,48,75,0
0,60,75,0
0,67,54,0
0,72,74,0
0,67,65,0
0,69,65,0
0,64,75,0
0,67,64,0
0,69,64,0
0,67,55,0
0,72,74,0
0,67,65,0
0,69,65,0
0,64,74,0
0,67,64,0
0,69,64,0
0,43,62,0
0,55,74,0
0,59,74,0
0,62,75,0
0,71,75,0
0,71,65,0
0,67,64,0
0,62,74,0
0,71,65,0
0,67,65,0
0,71,75,0
0,71,64,0
0,67,65,0
0,62,75,0
0,71,64,0
0,67,64,0
0,38,64,0
0,50,74,0
0,54,75,0
0,57,75,0
0,66,74,0
0,69,65,0
0,71,65,0
0,62,75,0
0,69,64,0
0,71,64,0
0,66,74,0
0,69,65,0
0,71,65,0
0,62,74,0
0,69,64,0
0,71,64,0
0,40,65,0
0,64,65,0
0,52,74,0
0,59,75,0
0,67,55,0
0,76,75,0
0,64,65,0
0,66,64,0
0,62,64,0
0,64,74,0
0,64,65,0
0,66,65,0
0,64,65,0
0,67,54,0
0,76,75,0
0,64,64,0
0,66,65,0
0,66,65,0
0,64,75,0
0,64,64,0
0,66,64,0
0,36,65,0
0,67,64,0
0,48,74,0
0,60,74,0
0,67,54,0
0,72,74,0
0,67,65,0
0,69,65,0
0,66,65,0
0,64,75,0
0,67,64,0
0,69,64,0
0,67,64,0
0,67,54,0
0,72,75,0
0,67,65,0
0,69,65,0
0,69,64,0
0,64,75,0
0,67,64,0
0,69,64,0
0,43,62,0
0,71,65,0
0,55,75,0
0,59,75,0
0,62,74,0
0,71,74,0
0,71,65,0
0,67,64,0
0,62,75,0
0,71,65,0
0,67,65,0
0,71,74,0
0,71,64,0
0,67,65,0
0,67,65,0
0,62,74,0
0,71,64,0
0,67,64,0
0,38,64,0
0,69,64,0
0,50,74,0
0,54,75,0
0,57,75,0
0,66,75,0
0,69,65,0
0,71,65,0
0,62,75,0
0,69,64,0
0,71,64,0
0,66,74,0
0,69,65,0
0,71,65,0
0,62,74,0
0,69,64,0
0,71,64,0
0,40,65,0
0,64,64,0
0,52,74,0
0,59,74,0
0,67,55,0
0,76,75,0
0,64,65,0
0,66,64,0
0,62,65,0
0,64,74,0
0,64,65,0
0,66,65,0
0,64,65,0
0,67,54,0
0,76,75,0
0,64,64,0
0,66,65,0
0,66,64,0
0,64,74,0
0,64,64,0
0,66,64,0
0,36,65,0
0,67,64,0
0,48,75,0
0,60,74,0
0,67,55,0
0,72,75,0
0,67,65,0
0,69,65,0
0,66,65,0
0,64,74,0
0,67,64,0
0,69,64,0
0,67,64,0
0,67,55,0
0,72,74,0
0,67,65,0
0,69,65,0
0,69,65,0
0,64,74,0
0,67,64,0
0,69,64,0
0,43,62,0
0,71,65,0
0,55,75,0
0,59,75,0
0,62,74,0
0,71,75,0
0,71,65,0
0,67,64,0
0,62,75,0
0,71,65,0
0,67,65,0
0,71,74,0
0,71,64,0
0,67,65,0
0,67,64,0
0,62,74,0
0,71,64,0
0,67,64,0
0,38,64,0
0,69,65,0
0,50,75,0
0,54,74,0
0,57,74,0
0,66,75,0
0,69,65,0
0,71,65,0
0,62,75,0
0,69,64,0
0,71,64,0
0,66,74,0
0,69,65,0
0,71,65,0
0,62,74,0
0,69,64,0
0,71,64,0
0,45,55,0
0,69,64,0
0,52,65,0
0,57,65,0
0,60,64,0
0,64,64,0
0,57,53,0
0,60,52,0
0,64,53,0
0,71,64,0
0,69,65,0
0,67,65,0
0,64,64,0
0,67,64,0
0,38,54,0
0,69,65,0
0,50,65,0
0,57,65,0
0,62,64,0
0,66,64,0
0,57,57,0
0,62,56,0
0,66,57,0
0,43,87,0
0,43,77,0
0,59,76,0
0,55,97,0
0,67,96,0
0,43,64,0
0,50,66,80
0,59,69,80
0,67,71,80
0,71,74,80
0,74,76,0
0,79,79,0
0,74,77,0
0,71,74,80
0,67,72,0
0,59,69,0
0,50,66,0
0,43,87,0
0,57,97,0
0,69,97,0
0,43,65,0
0,50,67,0
0,59,68,80
0,67,71,80
0,59,96,0
0,71,97,0
0,71,74,0
0,74,76,0
0,79,79,0
0,74,77,0
0,60,96,0
0,72,96,0
0,71,74,0
0,67,72,0
0,59,69,0
0,55,67,0
0,38,86,0
0,38,77,0
0,54,77,0
0,62,97,0
0,74,97,0
0,50,64,0
0,54,66,0
0,57,69,80
0,62,70,80
0,66,75,80
0,69,77,0
0,74,78,0
0,69,77,0
0,66,74,80
0,62,72,0
0,57,69,0
0,54,67,0
0,38,87,0
0,64,96,0
0,76,96,0
0,50,64,0
0,54,66,0
0,57,69,80
0,62,71,80
0,59,97,0
0,71,97,0
0,66,74,0
0,69,76,0
0,74,79,0
0,69,76,0
0,57,96,0
0,69,96,0
0,66,75,0
0,62,73,0
0,57,68,0
0,54,67,0
0,40,86,0
0,40,76,0
0,59,77,0
0,55,97,0
0,67,96,0
0,52,64,0
0,55,66,0
0,59,69,80
0,64,71,80
0,67,74,80
0,71,76,0
0,76,79,0
0,71,77,0
0,67,74,80
0,57,97,0
0,69,97,0
0,64,72,0
0,59,69,0
0,55,66,0
0,40,86,0
0,59,96,0
0,71,97,0
0,52,65,0
0,55,67,0
0,59,68,80
0,64,71,80
0,67,74,80
0,71,76,0
0,60,96,0
0,72,96,0
0,76,79,0
0,71,77,0
0,67,74,80
0,64,72,0
0,59,69,0
0,55,67,0
0,36,87,0
0,36,76,0
0,64,76,0
0,60,97,0
0,72,97,0
0,48,64,0
0,52,66,0
0,55,69,80
0,60,70,80
0,59,96,0
0,71,96,0
0,64,75,0
0,67,77,0
0,72,78,0
0,67,77,0
0,57,97,0
0,69,97,0
0,64,74,0
0,60,72,0
0,55,69,0
0,52,67,0
0,36,87,0
0,60,96,0
0,72,96,0
0,48,64,0
0,52,66,0
0,55,69,80
0,60,71,80
0,59,97,0
0,71,96,0
0,64,74,0
0,67,76,0
0,72,79,0
0,67,76,0
0,57,97,0
0,69,97,0
0,64,75,0
0,60,73,0
0,55,68,0
0,52,67,0
0,43,86,0
0,43,77,0
0,59,77,0
0,55,96,0
0,67,97,0
0,43,64,0
0,50,66,0
0,59,69,80
0,67,71,80
0,71,74,80
0,74,76,0
0,79,79,0
0,74,77,0
0,71,74,80
0,67,72,0
0,59,69,0
0,50,66,0
0,43,86,0
0,57,96,0
0,69,96,0
0,43,65,0
0,50,67,0
0,59,68,80
0,67,71,80
0,59,97,0
0,71,97,0
0,71,74,0
0,74,76,0
0,79,79,0
0,74,77,0
0,60,96,0
0,72,96,0
0,71,74,0
0,67,72,0
0,59,69,0
0,55,67,0
0,38,87,0
0,38,76,0
0,54,76,0
0,62,97,0
0,74,97,0
0,50,64,0
0,54,66,0
0,57,69,80
0,62,70,80
0,66,75,80
0,69,77,0
0,74,78,0
0,69,77,0
0,66,74,80
0,62,72,0
0,57,69,0
0,54,67,0
0,38,87,0
0,64,96,0
0,76,96,0
0,50,64,0
0,54,66,0
0,57,69,80
0,62,71,80
0,59,97,0
0,71,96,0
0,66,74,0
0,69,76,0
0,74,79,0
0,69,76,0
0,57,97,0
0,69,97,0
0,66,75,0
0,62,73,0
0,57,68,0
0,54,67,0
0,40,86,0
0,40,77,0
0,59,77,0
0,55,96,0
0,67,97,0
0,52,64,0
0,55,66,0
0,59,69,80
0,64,71,80
0,67,74,80
0,71,76,0
0,76,79,0
0,71,77,0
0,67,74,80
0,57,96,0
0,66,96,0
0,69,97,0
0,64,72,0
0,59,69,0
0,55,66,0
0,40,86,0
0,59,97,0
0,64,96,0
0,71,96,0
0,52,65,0
0,55,67,0
0,59,68,80
0,64,71,80
0,67,74,80
0,71,76,0
0,60,97,0
0,72,97,0
0,76,79,0
0,71,77,0
0,67,74,80
0,64,72,0
0,59,69,0
0,55,67,0
0,36,87,0
0,36,76,0
0,64,76,0
0,64,96,0
0,72,96,0
0,48,64,0
0,52,66,0
0,55,69,80
0,60,70,80
0,62,97,0
0,71,96,0
0,64,75,0
0,67,77,0
0,72,78,0
0,67,77,0
0,60,97,0
0,69,97,0
0,64,74,0
0,60,72,0
0,55,69,0
0,52,67,0
0,36,86,0
0,64,96,0
0,72,97,0
0,48,64,0
0,52,66,0
0,55,69,80
0,60,71,80
0,62,96,0
0,71,96,0
0,64,74,0
0,67,76,0
0,72,79,0
0,67,76,0
0,60,97,0
0,69,97,0
0,64,75,0
0,60,73,0
0,55,68,0
0,52,67,0
0,40,77,0
0,59,96,0
0,68,96,0
0,64,77,0
0,64,105,0
0,40,77,0
0,71,65,0
0,76,64,0
0,79,65,0
0,47,76,5
0,52,77,5
0,55,77,5
0,66,76,0
0,52,76,23
0,55,77,40
0,59,88,40
0,64,77,0
0,66,104,0
0,64,100,0
0,66,77,0
0,64,105,0
0,64,101,0
0,59,89,5
0,55,76,5
0,52,76,5
0,64,76,0
0,40,77,0
0,47,77,5
0,52,76,5
0,55,76,5
0,66,77,0
0,66,105,0
0,64,76,0
0,64,104,0
0,52,77,0
0,55,76,5
0,59,89,5
0,64,101,5
0,66,76,0
0,64,76,0
0,59,89,5
0,55,76,5
0,52,76,5
0,67,77,0
0,66,105,0
0,72,65,0
0,76,64,0
0,79,65,0
0,48,77,5
0,52,77,5
0,55,76,5
0,69,77,0
0,67,104,0
0,52,76,23
0,55,77,40
0,60,89,40
0,67,76,0
0,64,100,0
0,69,76,0
0,69,104,0
0,64,100,0
0,60,89,5
0,55,76,5
0,52,77,5
0,67,77,0
0,67,105,0
0,48,77,5
0,52,76,5
0,55,77,5
0,69,77,0
0,69,105,0
0,67,76,0
0,71,104,0
0,52,76,0
0,55,76,5
0,60,89,5
0,64,101,5
0,69,76,0
0,64,76,0
0,60,88,5
0,55,77,5
0,52,77,5
0,71,77,0
0,43,76,0
0,74,64,0
0,79,64,0
0,83,65,0
0,50,76,5
0,55,77,5
0,59,76,5
0,67,76,0
0,55,77,0
0,59,77,40
0,62,88,40
0,71,77,0
0,71,104,0
0,67,101,0
0,67,77,0
0,71,105,0
0,67,100,0
0,62,88,5
0,59,77,5
0,55,77,5
0,71,76,0
0,71,105,0
0,43,76,0
0,50,76,5
0,55,77,5
0,59,77,5
0,67,77,0
0,71,104,0
0,71,76,0
0,71,104,0
0,55,76,0
0,59,76,5
0,62,89,5
0,67,100,5
0,67,76,0
0,71,105,0
0,67,77,0
0,62,89,5
0,59,76,5
0,55,77,5
0,69,77,0
0,69,104,0
0,50,76,0
0,74,65,0
0,78,64,0
0,81,64,0
0,57,76,5
0,69,105,38
0,71,77,0
0,71,105,0
0,50,77,5
0,57,77,5
0,62,88,5
0,66,100,0
0,69,76,0
0,66,101,5
0,62,89,5
0,71,76,0
0,57,76,0
0,50,76,5
0,69,77,0
0,50,77,0
0,57,76,5
0,71,77,0
0,50,77,23
0,57,77,5
0,69,76,0
0,62,88,0
0,66,101,5
0,66,76,23
0,62,88,5
0,71,76,0
0,57,77,0
0,50,77,5
0,64,77,0
0,64,104,0
0,40,76,0
0,71,65,0
0,76,65,0
0,79,64,0
0,47,76,5
0,52,77,5
0,55,77,5
0,66,76,0
0,52,76,23
0,55,76,40
0,59,89,40
0,64,77,0
0,66,105,0
0,64,100,0
0,66,77,0
0,64,101,0
0,59,89,5
0,55,76,5
0,52,77,5
0,64,76,0
0,40,76,0
0,47,76,5
0,52,77,5
0,55,77,5
0,66,77,0
0,64,104,0
0,64,76,0
0,52,76,0
0,55,76,5
0,59,89,5
0,64,101,5
0,66,76,0
0,66,104,0
0,64,76,0
0,59,88,5
0,55,77,5
0,52,76,5
0,67,77,0
0,72,64,0
0,76,65,0
0,79,64,0
0,48,77,5
0,52,77,5
0,55,76,5
0,69,77,0
0,67,105,0
0,52,77,23
0,55,76,40
0,60,88,40
0,67,76,0
0,64,101,0
0,69,76,0
0,69,105,0
0,64,101,0
0,60,88,5
0,55,76,5
0,52,77,5
0,67,77,0
0,67,104,0
0,48,77,5
0,52,76,5
0,55,76,5
0,69,77,0
0,69,104,0
0,67,76,0
0,52,77,0
0,55,76,5
0,60,89,5
0,64,101,5
0,69,76,0
0,64,76,0
0,60,89,5
0,55,76,5
0,52,76,5
0,71,77,0
0,43,77,0
0,74,65,0
0,79,65,0
0,83,64,0
0,50,77,5
0,55,76,5
0,59,76,5
0,67,76,0
0,71,105,0
0,55,77,23
0,59,77,40
0,62,88,40
0,71,77,0
0,71,105,0
0,67,100,0
0,67,77,0
0,71,104,0
0,67,101,0
0,62,88,5
0,59,77,5
0,55,77,5
0,71,76,0
0,71,104,0
0,43,76,0
0,50,77,5
0,55,76,5
0,59,76,5
0,67,77,0
0,71,105,0
0,71,76,0
0,71,104,0
0,55,77,0
0,59,77,5
0,62,88,5
0,67,100,5
0,71,105,38
0,67,76,0
0,69,105,0
0,67,77,0
0,62,89,5
0,59,76,5
0,55,76,5
0,69,77,0
0,71,104,0
0,50,77,0
0,74,65,0
0,78,64,0
0,81,64,0
0,57,76,5
0,71,77,0
0,50,77,23
0,57,77,40
0,62,88,40
0,66,101,40
0,69,76,0
0,66,100,40
0,62,88,5
0,71,76,0
0,57,77,0
0,50,77,5
0,69,77,0
0,50,76,0
0,57,76,5
0,71,77,0
0,50,77,23
0,57,77,5
0,69,76,0
0,62,88,0
0,66,100,5
0,66,77,23
0,62,88,5
0,71,76,0
0,69,105,0
0,57,77,0
0,50,77,5
0,69,104,0
0,45,76,0
0,76,65,0
0,81,65,0
0,84,64,0
0,52,77,5
0,57,76,5
0,60,76,5
0,71,104,38
0,52,77,23
0,57,77,40
0,60,88,40
0,64,100,40
0,69,105,38
0,64,101,0
0,60,89,5
0,57,76,5
0,52,76,5
0,67,105,23
0,45,77,0
0,52,76,5
0,57,77,5
0,60,77,5
0,64,104,38
0,67,104,23
0,52,76,0
0,57,77,5
0,60,88,5
0,64,100,5
0,69,105,23
0,64,77,0
0,60,89,5
0,57,76,5
0,52,76,5
0,45,77,25
0,76,64,0
0,81,65,0
0,85,65,0
0,52,83,10
0,57,94,10
0,61,90,10
0,64,107,10
0,69,81,38
0,28,97,0
0,68,104,0
0,52,1,0
0,59,1,0
0,52,76,0
0,71,64,0
0,76,64,0
0,80,65,0
0,56,87,2
0,59,97,3
0,64,106,2
0,52,47,30
0,56,56,0
0,59,66,0
0,64,77,0
0,52,75,38
0,56,84,2
0,59,94,3
0,64,105,2
0,64,105,113
0,59,94,2
0,56,84,3
0,52,75,2
0,69,104,30
0,54,1,0
0,61,1,0
0,52,64,0
0,56,75,2
0,59,85,3
0,64,94,2
0,64,73,30
0,59,62,2
0,56,52,3
0,52,43,2
0,68,105,38
0,52,1,0
0,59,1,0
0,52,77,30
0,56,86,2
0,59,96,3
0,64,107,2
0,69,104,38
0,54,1,0
0,61,1,0
0,64,87,30
0,59,76,2
0,56,66,3
0,52,57,2
0,69,105,30
0,54,1,0
0,61,1,0
0,54,76,0
0,73,64,0
0,78,65,0
0,81,65,0
0,57,87,2
0,61,97,3
0,66,106,2
0,71,105,38
0,56,1,0
0,63,1,0
0,54,47,30
0,57,56,0
0,61,66,0
0,66,77,0
0,69,104,38
0,54,1,0
0,61,1,0
0,54,75,0
0,57,84,2
0,61,94,3
0,66,105,2
0,66,105,113
