track,note,velocity,time
2,40,127,9478
2,38,127,6
2,50,127,356
2,50,127,168
2,50,127,150
2,33,127,12
2,45,115,340
2,45,95,108
2,45,103,138
2,40,115,10
2,52,127,338
2,52,127,132
2,52,127,162
2,40,127,82
2,52,103,344
2,52,115,118
2,52,127,112
2,38,123,30
2,50,107,344
2,50,95,158
2,50,103,148
2,33,107,0
2,45,107,342
2,45,123,116
2,45,107,90
2,40,123,36
2,52,107,346
2,52,103,120
2,52,115,114
2,40,123,60
2,52,123,332
2,52,103,132
2,56,127,124
2,52,127,2
2,38,123,10
2,50,127,360
2,50,127,140
2,50,127,122
2,33,115,22
2,45,115,338
2,45,127,120
2,45,127,106
2,40,123,36
2,52,127,340
2,52,127,130
2,52,127,114
2,40,127,64
2,52,127,350
2,52,127,102
2,52,127,100
2,38,127,52
2,50,115,340
2,50,127,120
2,50,127,92
2,33,103,18
2,45,127,362
2,45,115,110
2,45,123,78
2,40,123,20
2,52,127,350
2,52,115,110
2,52,115,160
2,52,127,52
2,42,127,12
2,42,127,168
2,37,127,32
2,45,127,58
2,45,127,118
2,40,127,126
2,40,127,198
2,40,127,120
2,35,127,4
2,47,127,8
2,47,127,98
2,35,115,38
2,47,127,120
2,42,127,18
2,42,123,44
2,42,127,152
2,38,127,480
2,38,95,100
2,38,127,102
2,40,127,44
2,52,127,354
2,52,127,120
2,52,123,152
2,40,127,0
2,52,127,120
2,52,127,260
2,42,127,228
2,42,127,130
2,37,127,0
2,45,127,92
2,45,127,138
2,40,127,24
2,40,127,220
2,40,127,150
2,35,123,12
2,40,127,118
2,35,99,8
2,47,127,70
2,47,127,100
2,36,75,2
2,35,67,0
2,47,123,28
2,42,127,22
2,42,127,100
2,42,127,82
2,38,127,12
2,38,115,110
2,50,123,120
2,38,103,100
2,40,127,58
2,52,127,360
2,52,127,154
2,52,127,98
2,40,127,30
2,52,127,116
2,40,127,48
2,52,127,130
2,38,123,32
2,33,109,24
2,40,114,18
2,52,114,358
2,52,123,198
2,52,99,190
2,38,109,2
2,50,104,240
2,45,104,0
2,33,109,12
2,40,118,12
2,52,123,718
2,52,123,90
2,52,127,90
2,38,114,20
2,50,104,242
2,50,114,82
2,33,99,14
2,45,114,242
2,40,123,0
2,40,104,54
2,52,104,476
2,52,127,94
2,35,109,2
2,47,109,838
2,47,13,20
2,35,114,20
2,47,61,478
2,47,70,222
2,47,123,100
2,35,109,34
2,47,99,238
2,47,80,332
2,47,104,220
2,47,85,702
2,47,123,108
2,40,118,74
2,52,114,8
2,38,127,14
2,50,127,354
2,50,127,174
2,50,127,150
2,33,127,12
2,45,115,340
2,45,95,110
2,45,103,140
2,40,115,12
2,52,127,336
2,52,127,132
2,52,127,164
2,40,127,78
2,52,103,338
2,52,115,120
2,52,127,108
2,38,123,32
2,50,107,340
2,50,95,280
2,50,103,74
2,33,107,2
2,45,107,338
2,45,123,120
2,45,107,92
2,40,123,36
2,52,107,348
2,52,103,120
2,52,115,106
2,40,123,60
2,52,123,332
2,52,103,132
2,56,127,120
2,52,127,2
2,38,123,10
2,50,127,362
2,50,127,140
2,50,127,120
2,33,115,20
2,45,115,340
2,45,127,116
2,45,127,100
2,40,123,30
2,52,127,342
2,52,127,130
2,52,127,124
2,40,127,70
2,52,127,350
2,52,127,102
2,52,127,100
2,38,127,52
2,50,115,338
2,50,127,120
2,50,127,92
2,33,103,20
2,45,127,360
2,45,115,104
2,45,123,82
2,40,123,26
2,52,127,346
2,52,115,114
2,52,115,158
2,52,127,52
2,42,127,12
2,42,127,170
2,37,127,30
2,45,127,58
2,45,127,122
2,40,127,118
2,40,127,198
2,40,127,120
2,35,127,2
2,47,127,8
2,47,127,98
2,35,115,38
2,47,127,124
2,42,127,14
2,42,123,110
2,42,127,88
2,38,127,482
2,38,95,98
2,38,127,92
2,40,127,38
2,52,127,360
2,52,127,118
2,52,123,148
2,40,127,4
2,52,127,116
2,52,127,258
2,40,103,180
2,42,127,76
2,42,127,132
2,37,127,0
2,45,127,92
2,45,127,142
2,40,127,22
2,40,127,218
2,40,127,152
2,35,123,14
2,40,127,118
2,35,99,10
2,47,127,72
2,47,127,98
2,35,67,0
2,36,75,2
2,47,123,32
2,42,127,22
2,42,127,98
2,42,127,80
2,38,127,10
2,38,115,110
2,50,123,122
2,38,103,98
2,40,127,58
2,52,127,360
2,52,127,152
2,52,127,102
2,40,127,30
2,52,127,120
2,40,127,46
2,52,127,134
2,38,123,22
2,33,109,24
2,40,114,24
2,52,114,364
2,52,123,202
2,52,99,192
2,38,109,2
2,50,104,238
2,45,104,2
2,33,109,14
2,40,118,10
2,52,123,722
2,52,123,90
2,52,127,92
2,38,114,22
2,50,104,242
2,50,114,84
2,33,99,16
2,45,114,240
2,40,123,4
2,40,104,50
2,52,104,484
2,52,127,92
2,35,109,2
2,47,109,836
2,47,13,18
2,35,114,22
2,47,61,480
2,47,70,224
2,47,123,102
2,35,109,36
2,47,99,238
2,47,80,334
2,47,104,226
2,47,85,702
2,47,123,104
2,40,118,72
2,52,114,12
2,38,127,12
2,50,127,356
2,50,127,170
2,50,127,152
2,33,127,10
2,45,115,340
2,45,95,108
2,45,103,136
2,40,115,12
2,52,127,342
2,52,127,138
2,52,127,164
2,40,127,78
2,52,103,342
2,52,115,120
2,52,127,112
2,38,123,34
2,50,107,344
2,50,95,278
2,50,103,72
2,33,107,0
2,45,107,342
2,45,123,122
2,45,107,92
2,40,123,34
2,52,107,346
2,52,103,126
2,52,115,110
2,40,123,64
2,52,123,326
2,52,103,132
2,56,127,122
2,52,127,0
2,38,123,16
2,50,127,354
2,50,127,142
2,50,127,122
2,33,115,18
2,45,115,344
2,45,127,114
2,45,127,98
2,40,123,36
2,52,127,338
2,52,127,130
2,52,127,118
2,40,127,70
2,52,127,350
2,52,127,104
2,52,127,102
2,38,127,50
2,50,115,340
2,50,127,118
2,50,127,86
2,33,103,22
2,45,127,360
2,45,115,112
2,45,123,86
2,40,123,22
2,52,127,346
2,52,115,114
2,52,115,160
2,52,127,54
2,45,127,22
2,45,103,120
2,40,127,0
2,40,127,250
2,40,107,130
2,35,103,0
2,42,127,118
2,42,83,142
2,37,123,12
2,38,127,140
2,38,127,108
2,42,115,110
2,45,127,2
2,45,127,142
2,45,123,92
2,40,115,2
2,40,107,190
2,40,103,122
2,35,67,0
2,36,83,12
2,35,123,160
2,35,67,82
2,35,127,96
2,35,71,110
2,47,71,10
2,45,59,10
2,47,83,62
2,45,91,70
2,35,91,0
2,45,103,60
2,45,127,134
2,40,115,0
2,40,127,192
2,40,91,104
2,35,83,2
2,42,127,104
2,42,127,86
2,37,127,12
2,38,127,72
2,38,115,102
2,42,123,0
2,45,123,4
2,45,127,130
2,45,127,118
2,40,127,120
2,40,127,150
2,40,123,120
2,47,107,120
2,47,99,192
2,35,99,2
2,35,99,90
2,35,115,32
2,47,59,482
2,47,91,88
2,47,103,100
2,47,107,102
2,47,107,102
2,47,103,100
2,47,127,88
2,45,127,16
2,45,123,134
2,40,95,124
2,40,127,202
2,40,95,102
2,35,95,118
2,42,123,214
2,42,115,92
2,37,95,118
2,38,127,158
2,38,95,132
2,33,91,120
2,45,127,194
2,45,127,92
2,40,91,2
2,40,127,162
2,40,95,92
2,35,75,10
2,47,115,140
2,47,107,144
2,35,75,120
2,59,67,472
2,59,91,102
2,59,83,92
2,59,95,98
2,59,83,90
2,59,87,88
2,59,115,42
2,59,103,90
2,45,127,80
2,45,99,118
2,40,87,120
2,33,97,228
2,33,103,2
2,50,87,10
2,38,127,2
2,26,83,0
2,38,115,38
2,26,87,18
2,49,83,2
2,50,95,82
2,26,95,28
2,26,83,18
2,49,91,14
2,47,95,150
2,33,95,0
2,45,91,22
2,33,95,158
2,45,103,24
2,47,91,56
2,49,91,128
2,28,103,102
2,47,87,2
2,28,95,50
2,52,115,102
2,28,95,2
2,28,87,70
2,52,103,12
2,52,103,148
2,28,99,88
2,40,103,2
2,28,87,40
2,28,99,8
2,56,115,26
2,28,91,60
2,26,91,164
2,50,127,30
2,26,91,60
2,49,107,2
2,50,103,70
2,26,95,40
2,49,107,70
2,26,95,12
2,47,103,130
2,33,91,100
2,45,99,12
2,33,95,42
2,33,95,132
2,45,103,12
2,47,83,36
2,33,87,2
2,49,95,102
2,47,95,2
2,28,103,18
2,28,87,30
2,52,91,104
2,28,99,20
2,28,95,52
2,52,123,12
2,52,107,152
2,28,103,102
2,40,99,12
2,28,91,56
2,28,107,32
2,56,127,10
2,28,127,254
2,38,127,14
2,50,127,350
2,50,127,170
2,50,127,148
2,33,127,10
2,45,115,340
2,45,95,110
2,45,103,152
2,40,115,18
2,52,127,344
2,52,127,132
2,52,127,158
2,40,127,82
2,52,103,340
2,52,115,122
2,52,127,110
2,38,123,32
2,50,107,338
2,50,95,280
2,50,103,74
2,33,107,2
2,45,107,344
2,45,123,120
2,45,107,90
2,40,123,32
2,52,107,348
2,52,103,122
2,52,115,114
2,40,123,60
2,52,123,334
2,52,103,134
2,56,127,124
2,52,127,4
2,38,123,16
2,50,127,354
2,50,127,142
2,50,127,120
2,33,115,20
2,45,115,344
2,45,127,120
2,45,127,102
2,40,123,32
2,52,127,342
2,52,127,130
2,52,127,118
2,40,127,70
2,52,127,354
2,52,127,102
2,52,127,100
2,38,127,50
2,50,115,338
2,50,127,120
2,50,127,92
2,33,103,22
2,45,127,360
2,45,115,112
2,45,123,80
2,40,123,26
2,52,127,342
2,52,115,112
2,52,115,160
2,52,127,14
2,45,127,24
2,45,103,122
2,40,127,0
2,40,127,252
2,40,107,130
2,35,103,0
2,42,127,120
2,42,83,138
2,37,123,12
2,38,127,138
2,38,127,112
2,42,115,108
2,45,127,0
2,45,127,148
2,45,123,94
2,40,115,0
2,40,107,188
2,40,103,120
2,35,67,2
2,36,83,14
2,35,123,158
2,35,67,80
2,35,127,100
2,35,71,108
2,47,71,12
2,45,59,12
2,47,83,62
2,45,91,66
2,35,91,0
2,45,103,62
2,45,127,134
2,40,115,2
2,40,127,192
2,40,91,100
2,35,83,2
2,42,127,100
2,42,127,92
2,37,127,18
2,38,127,72
2,38,115,98
2,42,123,2
2,45,123,2
2,45,127,128
2,45,127,124
2,40,127,116
2,40,127,152
2,40,123,120
2,47,107,120
2,47,99,192
2,35,99,2
2,35,99,88
2,35,115,30
2,47,59,478
2,47,91,88
2,47,103,96
2,47,107,96
2,47,107,98
2,47,103,100
2,47,127,90
2,45,127,14
2,45,123,130
2,40,95,122
2,40,127,200
2,40,95,100
2,35,95,120
2,42,123,212
2,42,115,90
2,37,95,122
2,38,127,164
2,38,95,128
2,33,91,120
2,45,127,194
2,45,127,86
2,40,91,2
2,40,127,170
2,40,95,90
2,35,75,10
2,47,115,140
2,47,107,134
2,35,75,124
2,59,67,468
2,59,91,100
2,59,83,90
2,59,95,98
2,59,83,92
2,59,87,92
2,59,115,46
2,59,103,94
2,45,127,76
2,45,99,116
2,40,87,118
3,50,127,14
3,57,127,2
3,45,95,98
3,52,100,12
3,56,67,10
3,59,95,2
3,64,99,278
3,57,103,10
3,50,103,2
3,45,67,10
3,52,89,10
3,59,91,86
3,56,91,4
3,50,127,1888
3,57,115,0
3,52,97,934
3,45,103,2
3,56,83,12
3,59,87,0
3,57,87,40
3,50,115,0
3,52,103,936
3,45,103,2
3,59,83,2
3,56,79,0
3,54,123,16
3,54,127,90
3,54,127,220
3,54,127,68
3,57,127,200
3,57,127,80
3,57,123,188
3,57,127,86
3,52,79,220
3,53,83,10
3,52,127,66
3,52,127,212
3,52,127,86
3,52,127,230
3,52,127,92
3,52,127,226
3,52,127,82
3,52,115,230
3,52,123,60
3,52,127,220
3,52,103,64
3,50,127,240
3,50,115,68
3,50,123,232
3,50,127,80
3,52,127,232
3,52,127,92
3,52,115,228
3,52,127,92
3,52,127,262
3,52,127,82
3,52,127,188
3,52,127,74
3,54,127,202
3,54,127,80
3,54,127,242
3,54,127,80
3,57,127,220
3,57,127,72
3,57,115,180
3,57,127,80
3,52,103,168
3,52,127,76
3,52,127,260
3,52,115,72
3,52,127,220
3,52,115,78
3,52,127,210
3,52,127,66
3,52,127,222
3,52,103,74
3,52,127,270
3,52,123,72
3,50,123,214
3,50,123,74
3,50,127,230
3,50,123,70
3,52,127,212
3,52,123,72
3,52,127,220
3,52,107,82
3,52,127,232
3,52,115,66
3,52,127,242
3,52,91,82
3,76,107,0
3,76,107,32
3,81,87,980
3,81,90,26
3,81,107,130
3,76,104,120
3,76,107,50
3,76,107,50
3,76,107,76
3,76,107,70
3,57,127,8
3,50,127,0
3,45,95,102
3,52,100,8
3,59,95,14
3,56,67,0
3,64,99,276
3,57,103,12
3,50,103,2
3,45,67,10
3,52,89,8
3,59,91,84
3,56,91,2
3,50,127,1890
3,57,115,0
3,52,97,938
3,45,103,2
3,56,83,10
3,59,87,2
3,57,87,46
3,50,115,0
3,52,103,936
3,45,103,0
3,59,83,2
3,56,79,0
3,54,123,22
3,54,127,90
3,54,127,220
3,54,127,70
3,57,127,198
3,57,127,80
3,57,123,188
3,57,127,90
3,52,79,220
3,53,83,8
3,52,127,70
3,52,127,208
3,52,127,90
3,52,127,230
3,52,127,92
3,52,127,230
3,52,127,82
3,52,115,228
3,52,123,60
3,52,127,224
3,52,103,70
3,50,127,238
3,50,115,68
3,50,123,234
3,50,127,82
3,52,127,234
3,52,127,88
3,52,115,230
3,52,127,92
3,52,127,260
3,52,127,76
3,52,127,190
3,52,127,84
3,54,127,200
3,54,127,82
3,54,127,242
3,54,127,82
3,57,127,224
3,57,127,66
3,57,115,186
3,57,127,84
3,52,103,170
3,52,127,80
3,52,127,258
3,52,115,76
3,52,127,226
3,52,115,84
3,52,127,208
3,52,127,66
3,52,127,218
3,52,103,68
3,52,127,268
3,52,123,68
3,50,123,212
3,50,123,68
3,50,127,236
3,50,123,68
3,52,127,210
3,52,123,72
3,52,127,222
3,52,107,82
3,52,127,230
3,52,115,70
3,52,127,242
3,52,91,80
3,76,107,6
3,76,107,32
3,81,87,54
3,81,90,32
3,81,107,128
3,76,104,116
3,76,107,50
3,76,107,50
3,76,107,76
3,76,107,68
3,57,127,12
3,50,127,0
3,45,95,98
3,52,100,12
3,59,95,14
3,56,67,0
3,64,99,280
3,57,103,10
3,50,103,0
3,45,67,12
3,52,89,8
3,56,91,86
3,59,91,0
3,50,127,1894
3,57,115,0
3,52,97,936
3,45,103,4
3,56,83,12
3,59,87,2
3,57,87,40
3,50,115,0
3,52,103,936
3,45,103,2
3,59,83,2
3,56,79,0
3,52,95,950
3,45,103,0
3,47,87,58
3,54,95,942
3,49,91,2
3,57,91,2
3,50,103,2
3,52,87,18
3,45,91,12
3,47,71,30
3,59,90,10
3,50,87,4
3,54,91,0
3,52,99,92
3,57,99,4
3,52,91,48
3,59,91,4
3,57,112,0
3,54,103,0
3,50,123,8
3,62,103,2
3,52,103,0
3,61,91,14
3,59,106,2
3,64,95,0
3,54,87,10
3,62,95,2
3,50,75,932
3,64,75,18
3,57,79,0
3,59,67,22
3,66,67,960
3,61,75,0
3,62,79,958
3,64,59,0
3,69,71,2
3,68,63,944
3,62,71,928
3,66,63,10
3,57,118,8
3,64,124,12
3,50,104,4
3,57,104,2
3,57,104,60
3,57,109,172
3,52,70,10
3,45,94,2
3,57,109,6
3,57,109,98
3,57,109,158
3,59,118,24
3,52,127,2
3,59,94,70
3,59,99,148
3,52,104,60
3,59,109,2
3,59,99,82
3,59,94,158
3,50,114,8
3,57,104,2
3,57,104,74
3,57,80,128
3,45,104,10
3,52,75,0
3,57,104,92
3,57,99,162
3,52,94,14
3,59,104,2
3,59,90,78
3,59,99,138
3,52,114,60
3,59,109,14
3,59,99,78
3,59,104,148
3,57,127,10
3,50,127,0
3,45,95,98
3,52,100,12
3,59,95,8
3,56,67,0
3,64,99,278
3,57,103,12
3,50,103,0
3,45,67,10
3,52,89,10
3,56,91,84
3,59,91,0
3,50,127,1892
3,57,115,2
