track,note,velocity,time
0,43,109,0
0,55,108,0
0,52,107,0
0,55,108,0
0,60,107,0
0,35,121,0
0,42,103,0
0,42,50,107
0,42,99,100
0,42,51,111
0,42,96,101
0,42,51,3
0,37,121,3
0,42,96,1
0,54,121,1
0,42,50,2
0,42,97,4
0,42,51,103
0,42,96,109
0,46,51,99
0,35,100,3
0,42,98,104
0,35,127,1
0,42,25,105
0,42,99,102
0,42,24,108
0,42,96,104
0,42,27,107
0,37,114,100
0,42,96,1
0,54,126,1
0,42,29,37
0,42,97,104
0,42,26,102
0,42,99,1
0,42,38,105
0,58,95,27
0,42,102,0
0,35,121,3
0,58,107,2
0,46,113,2
0,42,51,103
0,42,99,5
0,42,50,4
0,42,96,2
0,42,51,14
0,37,121,100
0,54,121,1
0,42,97,6
0,42,50,101
0,42,96,108
0,42,51,38
0,42,96,100
0,46,50,106
0,35,100,1
0,60,112,28
0,35,127,0
0,42,99,1
0,48,115,3
0,42,25,105
0,42,98,107
0,42,25,103
0,42,96,1
0,42,26,1
0,37,115,4
0,54,127,0
0,42,97,1
0,42,29,3
0,42,96,105
0,42,26,102
0,46,99,110
0,50,112,24
0,35,120,2
0,62,114,1
0,42,103,1
0,42,51,105
0,42,98,60
0,42,50,106
0,42,97,106
0,42,50,103
0,52,109,5
0,64,113,1
0,42,97,2
0,54,120,2
0,37,120,2
0,42,51,53
0,42,96,106
0,42,51,107
0,42,96,106
0,35,100,102
0,46,51,2
0,53,112,28
0,65,112,5
0,35,127,1
0,42,98,0
0,42,25,104
0,42,99,104
0,42,24,109
0,42,96,105
0,42,27,106
0,55,113,24
0,42,97,2
0,37,115,1
0,67,113,1
0,54,127,0
0,42,28,12
0,42,96,102
0,42,27,104
0,42,98,107
0,42,39,110
0,58,108,22
0,70,108,2
0,35,121,3
0,42,103,1
0,42,50,103
0,42,99,105
0,42,50,106
0,42,96,101
0,42,51,107
0,54,120,105
0,37,120,3
0,42,97,2
0,42,50,1
0,42,96,5
0,42,51,4
0,42,97,3
0,46,50,39
0,35,100,2
0,42,98,104
0,35,126,1
0,42,24,106
0,42,99,107
0,42,24,102
0,42,97,106
0,42,27,107
0,54,126,99
0,42,96,1
0,37,114,1
0,42,29,51
0,60,105,107
0,42,96,1
0,42,64,103
0,60,104,102
0,42,99,3
0,42,83,102
0,53,102,31
0,41,113,0
0,60,105,0
0,35,121,0
0,57,107,1
0,49,83,1
0,48,112,1
0,42,50,106
0,42,98,99
0,57,119,3
0,57,90,5
0,42,51,3
0,42,97,9
0,57,61,1
0,60,119,0
0,42,50,2
0,60,90,4
0,42,96,104
0,54,121,0
0,37,121,2
0,60,57,0
0,42,51,5
0,42,96,101
0,60,105,3
0,57,126,0
0,42,51,106
0,57,90,0
0,62,104,6
0,42,97,1
0,57,57,2
0,35,101,1
0,42,50,1
0,42,99,9
0,36,120,4
0,62,105,0
0,55,120,0
0,35,126,0
0,52,115,4
0,42,24,104
0,55,119,103
0,42,98,6
0,42,25,100
0,55,90,1
0,42,97,2
0,55,60,1
0,60,104,1
0,60,119,2
0,60,91,5
0,42,26,2
0,60,56,3
0,42,96,1
0,54,127,4
0,37,115,1
0,42,29,7
0,55,124,105
0,42,97,1
0,55,91,1
0,42,26,1
0,42,98,4
0,55,56,1
0,42,39,3
0,42,102,28
0,38,115,2
0,50,109,0
0,53,108,0
0,57,114,0
0,35,120,0
0,42,51,105
0,42,99,105
0,57,125,1
0,42,50,12
0,57,91,1
0,42,97,2
0,57,56,2
0,62,119,0
0,62,90,3
0,42,50,2
0,57,104,3
0,42,96,0
0,54,120,1
0,37,120,2
0,62,56,0
0,42,51,3
0,57,127,17
0,42,97,3
0,57,91,2
0,42,50,1
0,60,105,5
0,42,96,0
0,57,56,2
0,42,51,102
0,35,101,2
0,52,109,6
0,55,115,1
0,36,121,3
0,65,105,0
0,35,126,0
0,42,99,0
0,48,112,1
0,42,24,105
0,55,118,102
0,42,98,1
0,55,91,24
0,42,25,6
0,55,57,6
0,60,124,0
0,64,104,1
0,42,96,1
0,60,90,3
0,42,27,1
0,42,97,3
0,54,126,0
0,37,114,4
0,60,57,1
0,42,28,0
0,62,104,34
0,55,124,1
0,42,97,2
0,55,91,100
0,42,26,2
0,55,57,4
0,60,105,2
0,42,98,2
0,42,39,3
0,53,102,49
0,41,112,3
0,60,105,0
0,35,121,0
0,48,113,3
0,42,103,0
0,57,106,1
0,42,50,99
0,57,118,107
0,42,98,4
0,57,91,8
0,42,51,2
0,57,60,4
0,60,118,0
0,42,97,3
0,60,91,7
0,42,50,1
0,60,57,0
0,37,121,1
0,54,121,0
0,42,96,3
0,42,51,10
0,60,104,102
0,57,126,0
0,42,96,2
0,57,90,101
0,42,51,0
0,62,104,6
0,42,97,1
0,57,57,1
0,35,101,2
0,42,50,0
0,55,121,6
0,36,121,5
0,62,105,0
0,35,126,0
0,42,99,1
0,52,115,3
0,42,24,101
0,42,98,110
0,55,119,0
0,55,90,101
0,42,25,2
0,55,60,2
0,60,104,2
0,60,119,1
0,42,97,1
0,60,90,7
0,42,26,4
0,42,96,3
0,60,57,0
0,54,127,1
0,37,115,3
0,42,29,7
0,55,125,6
0,42,97,2
0,42,26,1
0,55,90,2
0,55,57,2
0,42,98,6
0,42,39,4
0,53,108,38
0,50,109,2
0,38,114,2
0,57,114,0
0,35,121,0
0,42,102,3
0,42,51,102
0,57,124,104
0,42,99,4
0,57,90,11
0,42,50,4
0,42,97,4
0,62,119,1
0,57,57,4
0,42,50,2
0,62,90,1
0,37,120,1
0,42,96,0
0,54,120,0
0,57,105,2
0,62,56,2
0,42,51,5
0,57,127,17
0,62,105,3
0,42,97,2
0,42,50,5
0,57,91,1
0,42,96,21
0,64,104,1
0,57,56,0
0,35,100,4
0,42,51,2
0,58,114,10
0,36,120,3
0,65,105,0
0,55,115,0
0,35,126,0
0,42,99,1
0,52,109,2
0,48,112,1
0,42,24,102
0,42,98,108
0,58,118,0
0,42,25,20
0,58,91,0
0,58,56,5
0,64,104,2
0,60,125,0
0,42,96,2
0,60,91,6
0,42,27,1
0,37,114,0
0,42,97,0
0,54,126,2
0,60,56,4
0,42,28,47
0,42,97,10
0,62,104,2
0,58,125,2
0,42,26,105
0,58,90,0
0,58,56,1
0,64,105,1
0,42,98,3
0,42,39,5
0,58,112,12
0,42,103,0
0,34,121,3
0,65,105,0
0,35,121,0
0,50,109,1
0,53,113,2
0,42,50,101
0,58,119,109
0,42,98,2
0,42,51,10
0,58,91,0
0,62,118,1
0,65,104,3
0,58,60,0
0,42,97,3
0,42,50,5
0,62,91,4
0,37,121,89
0,42,96,0
0,54,121,1
0,65,104,1
0,62,57,0
0,42,51,7
0,58,126,101
0,42,96,2
0,42,51,1
0,58,90,1
0,65,105,3
0,42,97,1
0,58,57,2
0,42,50,101
0,35,101,1
0,38,121,23
0,35,126,0
0,42,99,0
0,57,120,3
0,42,24,107
0,57,118,104
0,42,98,1
0,57,91,103
0,42,25,0
0,42,97,103
0,57,61,0
0,62,118,2
0,42,26,4
0,62,91,1
0,37,114,7
0,42,96,2
0,54,126,0
0,62,56,0
0,42,29,37
0,57,124,1
0,42,97,1
0,42,26,4
0,57,91,0
0,57,57,2
0,42,98,2
0,42,39,6
0,48,106,92
0,56,113,2
0,41,114,2
0,35,120,0
0,42,102,1
0,42,51,104
0,42,99,105
0,56,124,1
0,42,50,13
0,56,90,0
0,56,57,0
0,60,119,4
0,42,97,2
0,42,50,3
0,60,90,5
0,60,56,1
0,65,105,2
0,37,121,1
0,42,96,0
0,54,121,2
0,42,51,9
0,42,97,58
0,56,127,1
0,65,104,1
0,56,90,0
0,42,50,2
0,65,104,4
0,42,96,1
0,56,57,1
0,42,51,1
0,65,105,1
0,35,101,0
0,42,99,23
0,50,112,1
0,58,115,2
0,34,114,1
0,67,104,0
0,35,127,0
0,42,24,108
0,42,98,100
0,58,119,4
0,42,25,21
0,58,90,0
0,42,96,2
0,58,57,0
0,65,105,3
0,62,124,0
0,62,90,6
0,42,27,4
0,62,57,3
0,54,127,1
0,37,115,1
0,42,97,1
0,42,28,9
0,68,105,50
0,42,97,0
0,58,125,3
0,58,90,104
0,42,26,1
0,42,98,1
0,67,104,4
0,58,56,2
0,55,95,89
0,42,39,4
0,58,104,19
0,63,115,5
0,55,113,20
0,51,106,1
0,39,121,1
0,67,105,0
0,58,103,0
0,35,120,0
0,42,103,0
0,67,125,6
0,42,50,108
0,42,98,105
0,42,51,104
0,42,97,100
0,42,50,109
0,37,120,77
0,42,96,4
0,54,120,0
0,42,51,26
0,42,96,102
0,42,51,105
0,42,97,107
0,39,115,0
0,35,100,0
0,42,50,1
0,55,84,8
0,58,93,21
0,63,112,7
0,42,99,31
0,39,120,1
0,68,126,0
0,67,104,0
0,35,127,0
0,56,108,4
0,42,24,104
0,42,98,109
0,42,25,104
0,42,97,102
0,42,26,104
0,42,96,107
0,37,115,1
0,54,127,0
0,42,29,40
0,42,97,100
0,42,26,108
0,42,98,102
0,42,39,108
0,68,109,0
0,56,114,2
0,37,120,1
0,49,107,0
0,35,120,0
0,42,102,0
0,53,115,1
0,56,112,1
0,42,51,38
0,56,107,104
0,42,99,0
0,42,50,108
0,49,103,2
0,42,97,3
0,42,50,102
0,70,107,26
0,42,96,3
0,37,120,1
0,58,106,0
0,58,109,0
0,58,112,1
0,54,120,1
0,42,51,107
0,56,102,97
0,42,97,6
0,42,50,106
0,49,97,3
0,42,96,1
0,37,113,106
0,35,101,0
0,46,51,3
0,72,112,29
0,60,112,0
0,37,114,2
0,60,113,0
0,35,127,0
0,42,99,0
0,60,113,4
0,42,25,104
0,42,98,108
0,56,94,4
0,42,24,102
0,42,97,106
0,49,100,2
0,42,26,108
0,61,109,34
0,37,114,2
0,42,97,2
0,61,115,1
0,54,126,1
0,73,102,1
0,61,106,3
0,42,29,104
0,42,96,2
0,56,106,5
0,42,27,109
0,46,98,102
0,49,109,2
0,42,102,10
0,37,115,4
0,35,120,0
0,68,109,3
0,56,107,0
0,56,113,0
0,42,50,101
0,56,107,104
0,42,99,5
0,42,51,102
0,42,96,5
0,49,102,3
0,42,50,105
0,58,107,0
0,58,114,0
0,42,97,3
0,70,108,2
0,37,121,0
0,58,102,1
0,42,51,98
0,42,96,2
0,56,102,2
0,42,50,104
0,49,96,104
0,42,97,0
0,37,113,104
0,35,101,0
0,46,50,0
0,60,113,46
0,42,98,2
0,37,124,3
0,35,126,0
0,60,120,2
0,72,107,1
0,60,107,2
0,42,25,102
0,42,99,107
0,56,95,4
0,42,24,108
0,42,97,100
0,49,100,1
0,42,26,110
0,61,108,17
0,61,108,1
0,73,100,1
0,42,96,0
0,37,115,1
0,61,115,5
0,42,29,42
0,42,97,4
0,56,107,1
0,42,26,108
0,49,109,100
0,46,99,2
0,58,114,0
0,63,115,5
0,35,126,0
0,80,113,14
0,82,102,23
0,37,126,634
0,54,127,3
0,80,109,231
0,79,109,222
0,35,125,1
0,38,127,3
0,77,100,1
0,75,97,6
0,73,96,235
0,72,102,16
0,38,126,1
0,70,97,152
0,68,109,13
0,53,103,245
0,61,106,1
0,37,115,0
0,68,104,0
0,61,112,0
0,35,121,0
0,49,102,1
0,56,109,0
0,37,102,78
0,37,112,72
0,42,98,3
0,37,113,78
0,37,121,53
0,67,105,0
0,42,97,3
0,37,102,72
0,38,127,18
0,37,114,3
0,42,97,1
0,63,102,1
0,63,112,2
0,37,107,25
0,37,115,65
0,68,105,0
0,42,96,0
0,37,108,65
0,42,96,59
0,37,114,4
0,37,109,37
0,67,104,0
0,35,100,0
0,58,114,7
0,65,115,1
0,42,99,3
0,39,124,1
0,68,104,0
0,55,113,0
0,35,126,0
0,60,103,0
0,65,109,2
0,39,115,65
0,60,96,1
0,42,98,62
0,39,115,1
0,60,91,0
0,60,83,66
0,39,106,2
0,60,76,19
0,42,97,2
0,39,121,2
0,67,105,0
0,39,108,69
0,60,69,2
0,67,114,6
0,42,97,0
0,67,103,0
0,39,120,1
0,38,127,1
0,60,62,2
0,39,109,32
0,60,56,3
0,68,94,61
0,39,125,4
0,68,105,0
0,42,96,2
0,60,49,0
0,60,43,65
0,39,112,2
0,42,99,3
0,39,126,4
0,67,104,0
0,60,36,2
0,67,100,0
0,39,121,64
0,60,28,2
0,68,102,3
0,68,101,2
0,60,113,1
0,44,109,1
0,68,104,0
0,35,121,0
0,42,102,1
0,63,97,2
0,44,102,73
0,42,98,67
0,44,112,3
0,44,107,69
0,44,112,58
0,68,105,0
0,42,97,0
0,44,107,67
0,73,96,57
0,38,126,1
0,44,109,2
0,42,97,0
0,44,102,69
0,42,96,35
0,44,115,3
0,44,106,68
0,42,96,3
0,72,107,0
0,44,108,3
0,44,107,69
0,35,101,0
0,42,99,4
0,44,113,3
0,35,126,0
0,60,103,0
0,68,101,2
0,60,97,61
0,44,108,2
0,44,112,60
0,42,99,0
0,60,90,0
0,44,109,65
0,60,82,3
0,42,96,62
0,44,113,3
0,60,77,0
0,60,68,56
0,44,106,1
0,42,96,59
0,44,112,3
0,38,127,0
0,60,63,0
0,44,107,36
0,60,57,1
0,60,48,59
0,42,97,2
0,44,112,1
0,60,43,64
0,44,109,3
0,44,115,1
0,42,98,0
0,60,36,0
0,67,106,1
0,44,120,64
0,60,28,3
0,65,114,45
0,60,114,1
0,41,125,3
0,68,104,0
0,35,120,0
0,49,103,0
0,56,113,1
0,62,103,0
0,65,113,18
0,62,96,75
0,41,114,4
0,41,114,67
0,42,99,2
0,62,91,0
0,41,125,85
0,62,83,0
0,41,115,34
0,67,105,0
0,62,76,1
0,42,97,1
0,41,112,70
0,62,69,2
0,41,114,67
0,62,62,0
0,38,126,1
0,42,96,1
0,41,121,7
0,62,56,1
0,67,106,45
0,62,49,2
0,42,97,2
0,41,115,1
0,70,105,0
0,62,43,70
0,41,126,2
0,68,102,10
0,42,96,15
0,41,126,1
0,68,104,0
0,62,36,0
0,41,125,70
0,35,101,0
0,62,28,1
0,58,108,19
0,42,98,1
0,55,115,3
0,39,120,1
0,70,105,0
0,35,126,0
0,60,103,0
0,63,107,1
0,70,103,7
0,60,97,75
0,39,113,4
0,39,121,72
0,42,99,0
0,60,90,1
0,39,114,80
0,60,82,1
0,42,97,66
0,39,125,3
0,60,77,2
0,60,69,76
0,39,108,1
0,60,62,67
0,39,120,2
0,68,104,0
0,68,103,0
0,38,126,1
0,42,96,0
0,60,56,38
0,39,115,4
0,42,96,12
0,39,121,1
0,73,104,0
0,60,49,1
0,70,102,6
0,39,114,68
0,60,42,3
0,39,120,10
0,72,105,0
0,42,99,0
0,60,37,1
0,72,112,7
0,60,29,72
0,39,113,3
0,61,112,15
0,37,125,2
0,73,105,0
0,35,121,0
0,53,113,2
0,56,108,1
0,42,103,0
0,73,107,3
0,37,114,79
0,42,98,65
0,37,114,2
0,37,125,85
0,42,96,66
0,37,114,3
0,37,113,70
0,38,127,64
0,42,97,1
0,37,115,2
0,73,104,0
0,37,120,28
0,37,115,59
0,42,96,2
0,37,126,72
0,42,97,60
0,37,126,3
0,37,125,70
0,35,101,0
0,41,121,2
0,35,126,0
0,42,99,0
0,62,103,2
0,65,106,1
0,72,115,0
0,60,109,1
0,62,97,2
0,41,112,1
0,62,90,2
0,41,120,1
0,42,98,1
0,41,115,3
0,62,82,0
0,41,125,53
0,62,77,0
0,42,97,2
0,41,108,77
0,62,68,1
0,42,96,67
0,41,120,2
0,38,127,1
0,62,63,2
0,41,115,30
0,62,57,0
0,42,96,67
0,41,120,3
0,62,48,1
0,62,43,65
0,41,115,3
0,41,121,74
0,42,99,2
0,62,36,0
0,62,28,72
0,41,112,3
0,63,107,25
0,75,102,1
0,42,103,1
0,39,125,1
0,75,104,0
0,58,114,0
0,35,121,0
0,60,102,0
0,55,120,1
0,39,114,79
0,60,97,2
0,39,114,47
0,75,105,0
0,42,98,0
0,60,90,2
0,39,125,85
0,60,82,2
0,42,96,40
0,39,115,4
