track,note,velocity,time
0,31,66,0
0,31,61,373
0,55,65,116
0,64,65,0
0,60,65,0
0,48,65,4
0,35,122,8
0,41,82,0
0,54,100,0
0,36,105,0
0,72,65,6
0,42,100,14
0,45,82,16
0,54,75,2
0,60,64,0
0,42,75,21
0,64,67,0
0,54,100,6
0,41,85,0
0,42,100,3
0,60,64,3
0,71,67,10
0,54,88,0
0,28,105,0
0,45,91,0
0,42,88,4
0,62,65,23
0,57,65,0
0,65,65,2
0,50,65,1
0,72,69,2
0,38,117,2
0,41,82,0
0,54,103,0
0,29,105,0
0,42,103,14
0,62,59,7
0,47,82,9
0,54,77,2
0,42,77,26
0,67,75,3
0,54,105,13
0,41,85,0
0,42,105,3
0,62,68,2
0,69,72,13
0,54,84,3
0,47,91,0
0,35,122,8
0,42,84,0
0,60,65,1
0,64,65,1
0,55,65,0
0,52,65,3
0,71,69,8
0,35,122,1
0,41,82,0
0,54,105,0
0,31,105,0
0,42,105,20
0,60,69,5
0,45,82,8
0,72,68,0
0,38,117,2
0,54,80,0
0,42,80,14
0,64,69,4
0,54,107,13
0,41,85,0
0,42,107,18
0,60,72,0
0,54,79,8
0,45,91,0
0,42,79,8
0,50,65,0
0,62,65,2
0,57,65,1
0,65,65,2
0,74,64,15
0,38,117,1
0,41,82,0
0,54,105,0
0,42,105,14
0,62,65,10
0,47,82,6
0,54,79,2
0,42,79,24
0,67,72,7
0,54,107,5
0,29,105,0
0,41,85,0
0,42,107,20
0,62,69,6
0,74,60,12
0,35,122,2
0,54,80,0
0,47,91,0
0,67,50,1
0,42,80,8
0,55,65,2
0,60,65,1
0,64,65,0
0,48,65,4
0,72,61,7
0,35,122,1
0,41,82,0
0,54,100,0
0,28,105,0
0,72,56,2
0,42,100,17
0,60,64,7
0,45,82,9
0,54,75,2
0,42,75,21
0,64,68,4
0,54,100,12
0,41,85,0
0,74,57,0
0,42,100,2
0,60,71,6
0,71,68,8
0,54,88,4
0,45,91,0
0,42,88,8
0,50,65,11
0,62,65,5
0,57,65,0
0,65,65,0
0,72,67,20
0,38,117,2
0,41,82,0
0,54,103,0
0,29,105,0
0,76,62,0
0,42,103,14
0,62,61,14
0,47,82,2
0,54,77,2
0,42,77,26
0,67,67,7
0,54,105,13
0,41,85,0
0,42,105,19
0,62,68,6
0,69,71,0
0,35,122,4
0,54,84,0
0,47,91,1
0,42,84,7
0,55,65,19
0,60,65,0
0,64,65,1
0,48,65,1
0,76,58,16
0,71,64,3
0,35,122,1
0,41,82,0
0,54,105,0
0,28,105,0
0,42,105,15
0,60,68,10
0,45,82,7
0,72,62,1
0,54,80,1
0,42,80,24
0,64,66,3
0,74,55,8
0,54,107,1
0,41,85,1
0,42,107,17
0,60,73,5
0,54,79,10
0,45,91,1
0,42,79,0
0,50,65,3
0,57,65,1
0,62,65,0
0,65,65,1
0,26,105,3
0,38,117,0
0,41,82,0
0,54,105,0
0,67,68,0
0,42,105,13
0,62,58,10
0,47,82,5
0,54,79,2
0,42,79,17
0,67,69,1
0,35,122,2
0,54,107,0
0,67,95,0
0,41,85,1
0,42,107,15
0,67,85,0
0,62,68,7
0,35,122,5
0,54,80,0
0,47,91,1
0,67,89,0
0,42,80,8
0,52,65,0
0,55,65,7
0,60,65,1
0,48,65,0
0,35,121,8
0,41,82,0
0,54,100,0
0,67,96,0
0,36,105,1
0,35,122,11
0,42,100,0
0,67,90,0
0,45,82,15
0,54,75,0
0,60,64,0
0,67,84,0
0,42,75,16
0,64,67,0
0,54,100,5
0,67,102,0
0,41,85,1
0,42,100,12
0,67,84,0
0,60,64,2
0,54,88,1
0,45,91,1
0,67,84,0
0,42,88,3
0,62,65,0
0,57,65,0
0,50,65,4
0,53,65,1
0,38,117,1
0,41,82,0
0,54,103,0
0,38,105,0
0,67,96,0
0,42,103,12
0,67,85,0
0,62,59,8
0,47,82,2
0,54,77,2
0,67,93,0
0,42,77,16
0,67,75,3
0,54,105,12
0,67,107,0
0,41,85,1
0,42,105,2
0,62,68,4
0,54,84,15
0,64,84,0
0,47,91,1
0,42,84,8
0,60,65,19
0,55,65,1
0,52,65,2
0,48,65,1
0,35,122,4
0,41,82,0
0,54,105,0
0,36,105,2
0,42,105,15
0,60,69,5
0,45,82,12
0,38,117,2
0,54,80,0
0,42,80,13
0,64,69,4
0,54,107,12
0,41,85,1
0,42,107,17
0,60,72,0
0,54,79,7
0,45,91,1
0,42,79,8
0,50,65,0
0,62,65,2
0,57,65,1
0,53,65,1
0,38,117,15
0,41,82,0
0,54,105,0
0,38,105,1
0,42,105,13
0,62,65,10
0,47,82,5
0,54,79,2
0,62,84,0
0,42,79,22
0,62,79,0
0,67,72,7
0,54,107,11
0,62,93,0
0,41,85,1
0,42,107,18
0,62,89,6
0,62,69,5
0,54,80,14
0,47,91,0
0,62,95,2
0,35,121,8
0,42,80,0
0,55,65,2
0,60,65,2
0,52,65,3
0,48,65,3
0,35,122,7
0,41,82,0
0,54,100,0
0,62,87,0
0,36,105,0
0,42,100,2
0,60,64,7
0,45,82,8
0,54,75,2
0,60,84,0
0,42,75,19
0,60,86,0
0,64,68,5
0,54,100,11
0,41,85,1
0,42,100,17
0,67,79,0
0,60,71,6
0,54,88,11
0,67,90,0
0,45,91,1
0,71,49,2
0,42,88,8
0,50,65,11
0,62,65,4
0,57,65,1
0,53,65,2
0,38,117,4
0,41,82,0
0,54,103,0
0,38,105,1
0,72,57,1
0,42,103,13
0,62,61,8
0,47,82,2
0,54,77,2
0,42,77,26
0,67,67,8
0,71,60,10
0,54,105,2
0,41,85,1
0,42,105,5
0,62,68,6
0,35,121,10
0,54,84,0
0,47,91,1
0,42,84,8
0,55,65,19
0,60,65,0
0,48,65,1
0,52,65,1
0,71,67,9
0,35,122,8
0,41,82,0
0,54,105,0
0,36,105,1
0,42,105,19
0,60,68,10
0,72,68,1
0,45,82,6
0,54,80,2
0,60,78,0
0,60,78,0
0,42,80,6
0,60,93,8
0,64,66,0
0,60,79,10
0,60,79,0
0,54,107,1
0,41,85,1
0,60,96,12
0,42,107,17
0,60,73,5
0,60,85,6
0,54,79,4
0,45,91,1
0,60,81,1
0,60,81,0
0,59,85,5
0,42,79,0
0,60,74,3
0,60,74,0
0,50,65,0
0,57,65,1
0,53,65,0
0,62,65,0
0,38,117,6
0,41,82,0
0,54,105,0
0,38,105,0
0,74,61,0
0,60,98,0
0,60,76,2
0,60,76,0
0,42,105,4
0,60,87,4
0,62,58,6
0,47,82,5
0,54,79,2
0,60,82,2
0,60,82,0
0,59,83,12
0,42,79,0
0,59,84,0
0,59,84,0
0,67,69,0
0,60,107,7
0,54,107,4
0,41,85,1
0,60,84,1
0,60,84,0
0,42,107,0
0,60,95,6
0,62,68,1
0,60,88,8
0,35,121,0
0,54,80,0
0,60,88,0
0,47,91,1
0,59,81,0
0,60,94,7
0,42,80,0
0,60,94,0
0,52,65,0
0,55,65,7
0,60,65,1
0,48,65,3
0,60,95,5
0,60,96,2
0,60,96,0
0,35,122,1
0,41,82,0
0,54,107,0
0,67,58,0
0,36,105,2
0,42,105,15
0,45,82,17
0,60,103,2
0,54,80,0
0,60,64,0
0,42,80,24
0,64,67,0
0,35,122,5
0,54,107,0
0,41,85,1
0,42,107,15
0,60,64,2
0,54,79,0
0,45,91,1
0,42,79,3
0,53,65,3
0,57,65,4
0,50,65,3
0,60,74,5
0,60,74,0
0,38,117,3
0,41,82,0
0,54,105,0
0,38,105,1
0,42,105,13
0,62,59,7
0,47,82,8
0,54,79,2
0,42,79,23
0,67,75,3
0,35,122,12
0,54,107,0
0,41,85,1
0,42,107,2
0,62,68,4
0,35,122,15
0,54,80,0
0,47,91,1
0,42,80,8
0,60,65,0
0,55,65,1
0,52,65,3
0,35,121,3
0,41,82,0
0,54,100,0
0,40,105,1
0,35,122,17
0,42,100,0
0,60,69,3
0,45,82,12
0,38,117,2
0,54,75,0
0,42,75,13
0,64,69,4
0,54,100,12
0,41,85,1
0,42,100,17
0,60,72,0
0,54,88,7
0,45,91,1
0,42,88,8
0,50,65,0
0,53,65,1
0,57,65,4
0,38,117,1
0,41,82,0
0,54,103,0
0,74,52,0
0,38,105,1
0,42,103,13
0,62,65,11
0,47,82,5
0,54,77,2
0,42,77,26
0,67,72,7
0,54,105,11
0,41,85,1
0,42,105,19
0,62,69,5
0,54,84,2
0,47,91,1
0,67,58,8
0,67,80,11
0,42,84,8
0,52,65,4
0,55,65,7
0,60,65,0
0,48,65,3
0,72,74,0
0,35,121,4
0,41,82,0
0,54,100,0
0,36,105,1
0,67,98,0
0,42,100,17
0,67,85,1
0,45,82,14
0,54,75,2
0,60,64,0
0,42,75,20
0,67,86,7
0,64,67,0
0,54,100,4
0,41,85,1
0,67,85,3
0,42,100,14
0,60,64,2
0,67,92,8
0,54,88,0
0,40,105,0
0,45,91,0
0,42,88,4
0,67,93,16
0,53,65,4
0,62,65,3
0,57,65,0
0,50,65,3
0,38,117,0
0,41,82,0
0,54,103,0
0,41,105,0
0,67,90,11
0,42,103,2
0,62,59,8
0,47,82,8
0,54,77,2
0,67,100,10
0,42,77,10
0,67,103,17
0,67,75,3
0,54,105,13
0,41,85,0
0,67,95,14
0,42,105,3
0,62,68,4
0,67,87,12
0,54,84,4
0,47,91,0
0,35,121,2
0,42,84,0
0,81,25,0
0,67,89,7
0,64,65,0
0,55,65,0
0,84,26,0
0,59,65,2
0,52,65,1
0,35,122,0
0,41,82,0
0,54,105,0
0,43,105,0
0,83,27,0
0,67,89,14
0,79,29,0
0,42,105,0
0,76,30,0
0,72,31,0
0,60,69,5
0,45,82,7
0,54,80,0
0,76,33,0
0,64,77,22
0,79,34,0
0,42,80,0
0,83,36,0
0,79,37,0
0,64,69,4
0,54,107,0
0,76,38,0
0,41,85,0
0,79,40,0
0,42,107,0
0,83,41,0
0,79,43,0
0,60,72,0
0,54,79,0
0,76,44,0
0,45,91,0
0,83,45,0
0,42,79,0
0,86,47,0
0,50,65,0
0,84,48,0
0,62,65,2
0,57,65,1
0,53,65,1
0,38,117,0
0,41,82,0
0,54,105,0
0,41,105,0
0,81,50,0
0,77,51,0
0,42,105,0
0,72,52,0
0,69,54,0
0,62,65,10
0,47,82,6
0,54,79,0
0,72,55,0
0,77,56,0
0,42,79,0
0,81,58,0
0,77,59,0
0,67,72,7
0,54,107,0
0,72,61,0
0,41,85,0
0,65,100,14
0,77,62,0
0,42,107,0
0,81,63,0
0,65,89,7
0,77,65,0
0,62,69,6
0,35,121,0
0,54,80,0
0,72,66,0
0,47,91,0
0,81,68,0
0,65,96,5
0,42,80,0
0,84,69,0
0,55,65,0
0,88,70,0
0,52,65,0
0,60,65,1
0,48,65,4
0,35,122,0
0,41,82,0
0,54,100,0
0,40,105,0
0,86,72,0
0,65,105,1
0,83,71,0
0,42,100,0
0,79,70,0
0,65,98,0
0,76,69,0
0,60,64,7
0,45,82,9
0,54,75,0
0,79,68,0
0,83,67,0
0,64,77,0
0,42,75,0
0,86,66,0
0,83,66,0
0,64,68,4
0,64,84,4
0,54,100,0
0,79,65,0
0,41,85,0
0,76,64,0
0,42,100,0
0,83,63,0
0,67,84,13
0,86,62,0
0,60,71,6
0,54,88,0
0,83,61,0
0,45,91,0
0,86,60,0
0,67,85,4
0,42,88,0
0,88,59,0
0,50,65,11
0,62,65,5
0,57,65,0
0,53,65,1
0,91,58,0
0,38,117,0
0,41,82,0
0,54,103,0
0,41,105,0
0,88,58,0
0,84,57,0
0,42,103,0
0,81,56,0
0,76,55,0
0,62,61,14
0,47,82,2
0,54,77,0
0,72,54,0
0,65,105,20
0,77,53,0
0,42,77,0
0,81,52,0
0,77,51,0
0,67,67,7
0,54,105,0
0,72,50,0
0,41,85,0
0,65,92,4
0,77,50,0
0,42,105,0
0,81,49,0
0,77,48,0
0,64,82,5
0,62,68,2
0,35,121,0
0,54,84,0
0,81,47,0
0,47,91,0
0,84,46,0
0,42,84,0
0,77,45,0
0,55,65,19
0,52,65,0
0,60,65,0
0,88,44,0
0,48,65,1
0,64,81,0
0,35,122,0
0,41,82,0
0,54,105,0
0,40,105,0
0,86,43,0
0,83,42,0
0,42,105,0
0,79,42,0
0,76,41,0
0,60,68,10
0,67,85,6
0,45,82,2
0,38,117,0
0,54,80,0
0,79,40,0
0,83,39,0
0,42,80,0
0,86,38,0
0,83,37,0
0,64,66,3
0,67,89,9
0,35,122,0
0,54,107,0
0,79,36,0
0,41,85,0
0,83,35,0
0,42,107,0
0,86,35,0
0,83,34,0
0,60,73,5
0,54,79,0
0,81,33,0
0,45,91,0
0,64,92,12
0,86,32,0
0,42,79,0
0,79,31,0
0,84,30,0
0,50,65,4
0,57,65,0
0,53,65,0
0,62,65,0
0,38,117,0
0,41,82,0
0,54,105,0
0,38,105,0
0,84,29,0
0,81,28,0
0,42,105,0
0,77,27,0
0,72,27,0
0,62,58,10
0,47,82,6
0,54,79,0
0,77,26,0
0,81,25,0
0,42,79,0
0,84,24,0
0,81,23,0
0,67,69,1
0,35,121,0
0,54,107,0
0,77,22,0
0,41,85,0
0,81,21,0
0,42,107,0
0,84,20,0
0,81,19,0
0,62,68,7
0,35,121,0
0,54,80,0
0,84,19,0
0,47,91,0
0,62,79,3
0,88,18,0
0,42,80,0
0,86,17,0
0,62,86,6
0,52,65,0
0,55,65,2
0,60,65,0
0,48,65,4
0,35,121,8
0,41,82,0
0,54,100,0
0,36,105,0
0,62,92,15
0,35,121,18
0,42,100,0
0,60,81,12
0,45,82,4
0,54,75,2
0,60,64,0
0,42,75,21
0,60,81,5
0,64,67,0
0,54,100,6
0,41,85,0
0,42,100,18
0,67,65,0
0,60,64,3
0,54,88,14
0,45,91,0
0,67,86,4
0,42,88,4
0,62,65,23
0,57,65,0
0,53,65,1
0,50,65,2
0,38,105,3
0,38,117,2
0,41,82,0
0,54,103,0
0,42,103,14
0,62,59,7
0,47,82,9
0,54,77,2
0,67,80,2
0,42,77,26
0,67,75,3
0,54,105,13
0,41,85,0
0,42,105,3
0,62,68,4
0,54,84,16
0,47,91,0
0,42,84,8
0,52,65,18
0,60,65,1
0,55,65,1
0,48,65,3
0,35,122,6
0,41,82,0
0,54,105,0
0,36,105,0
0,42,105,16
0,60,69,5
0,45,82,13
0,54,80,2
0,42,80,25
0,64,69,4
0,64,75,11
0,64,75,0
0,54,107,2
0,41,85,0
0,64,87,1
0,42,107,11
0,62,85,8
0,62,64,1
0,62,64,0
0,60,72,0
0,54,79,8
0,45,91,0
0,60,81,7
0,60,79,3
0,60,79,0
0,42,79,8
0,50,65,0
0,62,65,2
0,57,65,1
0,53,65,1
0,60,89,8
0,38,105,1
0,38,117,2
0,41,82,0
0,54,105,0
0,60,75,6
0,60,75,0
0,42,105,14
0,62,65,10
0,47,82,6
0,54,79,2
0,60,72,3
0,60,72,0
0,60,83,11
0,42,79,10
0,67,72,7
0,54,107,12
0,41,85,0
0,42,107,11
0,62,69,6
0,54,80,14
0,47,91,0
0,62,67,13
0,62,67,0
0,35,121,8
0,42,80,0
0,62,83,2
0,55,65,2
0,52,65,0
0,60,65,1
0,48,65,4
0,62,73,6
0,62,73,0
0,35,122,2
0,41,82,0
0,54,100,0
0,36,105,0
0,62,85,8
0,42,100,18
0,60,64,3
0,60,69,7
0,60,69,0
0,45,82,2
0,54,75,2
0,60,82,2
0,42,75,4
0,64,68,4
0,62,85,1
0,62,76,5
0,62,76,0
0,54,100,6
0,41,85,0
0,42,100,18
0,60,71,6
0,60,72,2
0,60,68,9
0,60,68,0
0,54,88,1
0,45,91,0
0,42,88,3
0,50,65,11
0,62,65,5
0,57,65,0
0,53,65,1
0,38,105,1
0,64,74,2
0,38,117,0
0,41,82,0
0,54,103,0
0,64,74,0
0,64,87,2
0,42,103,14
0,62,58,8
0,62,58,0
0,62,85,2
0,62,61,4
0,47,82,2
0,54,77,2
0,60,76,10
0,60,76,0
0,42,77,2
0,60,85,6
0,67,67,7
0,54,105,13
