track,note,velocity,time
1,77,98,1
1,77,0,22
1,77,80,69
1,77,0,32
1,77,98,59
1,77,0,80
1,76,86,11
1,75,81,471
1,76,0,13
1,75,0,21
1,75,99,62
1,75,0,40
1,75,96,56
1,75,0,93
1,74,86,1
1,74,0,440
1,71,83,61
1,72,72,72
1,71,0,8
1,72,0,83
1,71,62,7
1,72,69,98
1,71,0,8
1,72,0,86
1,71,67,3
1,72,69,95
1,71,0,8
1,72,0,92
1,71,72,2
1,72,81,97
1,71,0,21
1,72,0,67
1,70,81,8
1,72,80,102
1,70,0,20
1,72,0,74
1,70,64,1
1,72,76,96
1,70,0,12
1,72,0,79
1,70,64,4
1,72,70,85
1,70,0,17
1,72,0,82
1,70,81,6
1,72,79,95
1,70,0,19
1,72,0,62
1,69,92,14
1,70,79,93
1,69,0,16
1,69,76,73
1,70,0,10
1,70,85,90
1,69,0,17
1,69,83,78
1,70,0,12
1,70,74,78
1,69,0,19
1,69,79,86
1,70,0,9
1,70,72,78
1,69,0,19
1,70,0,31
1,67,114,60
1,67,0,183
1,79,114,5
1,79,0,469
1,79,93,123
1,79,0,97
1,77,78,44
1,77,0,86
1,75,83,48
1,75,0,77
1,67,92,28
1,67,0,121
1,69,70,4
1,69,0,118
1,67,77,7
1,67,0,53
1,67,75,82
1,67,0,686
1,67,86,6228
1,79,114,178
1,67,0,14
1,79,0,456
1,79,93,122
1,79,0,97
1,77,78,43
1,77,0,87
1,75,83,49
1,75,0,74
1,67,92,29
1,67,0,121
1,69,70,5
1,69,0,118
1,67,77,6
1,67,0,52
1,67,75,83
1,67,0,685
1,67,107,3922
1,67,0,195
1,79,96,1
1,79,0,526
1,79,98,48
1,79,0,129
1,77,102,10
1,79,46,5
1,79,0,13
1,77,0,76
1,75,96,39
1,75,0,92
1,67,92,10
1,69,86,128
1,67,0,3
1,69,0,126
1,67,92,5
1,67,0,66
1,67,96,51
1,67,0,793
1,77,98,21492
1,77,0,22
1,77,80,69
1,77,0,32
1,77,98,59
1,77,0,80
1,76,86,11
1,75,81,471
1,76,0,13
1,75,0,21
1,75,99,62
1,75,0,40
1,75,96,56
1,75,0,93
1,74,86,1
1,74,0,440
1,71,83,61
1,72,72,72
1,71,0,8
1,72,0,83
1,71,62,7
1,72,69,98
1,71,0,8
1,72,0,86
1,71,67,3
1,72,69,95
1,71,0,8
1,72,0,92
1,71,72,2
1,72,81,97
1,71,0,21
1,72,0,67
1,70,81,8
1,72,80,102
1,70,0,20
1,72,0,74
1,70,64,1
1,72,76,96
1,70,0,12
1,72,0,79
1,70,64,4
1,72,70,85
1,70,0,17
1,72,0,82
1,70,81,6
1,72,79,95
1,70,0,19
1,72,0,62
1,69,92,14
1,70,79,93
1,69,0,16
1,69,76,73
1,70,0,10
1,70,85,90
1,69,0,17
1,69,83,78
1,70,0,12
1,70,74,78
1,69,0,19
1,69,79,86
1,70,0,9
1,70,72,78
1,69,0,19
1,70,0,31
1,67,114,60
1,67,0,183
1,79,114,5
1,79,0,469
1,79,93,123
1,79,0,97
1,77,78,44
1,77,0,86
1,75,83,48
1,75,0,77
1,67,92,28
1,67,0,121
1,69,70,4
1,69,0,118
1,67,77,7
1,67,0,53
1,67,75,82
1,67,0,686
1,67,114,4681
1,67,0,182
1,79,114,6
1,79,0,470
1,79,93,123
1,79,0,97
1,77,78,43
1,77,0,86
1,75,83,48
1,75,0,76
1,67,92,27
1,67,0,123
1,69,70,3
1,69,0,118
1,67,77,7
1,67,0,51
1,67,75,82
1,67,0,686
1,72,109,21588
1,72,0,131
1,74,98,47
1,74,0,105
1,72,104,6
1,72,0,127
1,74,117,58
1,74,0,104
1,72,98,90
1,72,0,89
1,74,107,2
1,74,0,115
1,72,100,79
1,72,0,90
1,74,104,12
1,74,0,88
1,72,104,103
1,72,0,107
1,74,111,85
1,74,0,85
1,72,111,13
1,72,0,117
1,74,117,59
1,74,0,131
1,76,96,450
1,76,0,82
1,74,98,14
1,74,0,48
1,74,93,51
1,67,100,101
1,74,0,5
1,67,0,51
1,76,85,26
1,76,0,76
1,74,102,18
1,74,0,51
1,74,107,55
1,74,0,56
1,74,98,36
1,74,0,82
1,71,111,10
1,71,0,183
1,72,117,9
1,72,0,151
1,71,107,42
1,71,0,179
1,72,111,13
1,72,0,57
1,71,114,37
1,71,0,286
1,72,117,8
1,72,0,82
1,71,117,20
1,71,0,104
1,72,117,69
1,72,0,83
1,71,107,13
1,71,0,146
1,72,120,46
1,72,0,124
1,77,117,456
1,76,100,323
1,77,0,15
1,76,0,95
1,74,104,35
1,74,0,51
1,77,117,59
1,77,0,119
1,76,100,24
1,76,0,121
1,74,102,17
1,74,0,80
1,72,117,24
1,72,0,106
1,74,120,83
1,74,0,95
1,72,111,13
1,72,0,93
1,74,127,90
1,74,0,78
1,72,104,122
1,72,0,80
1,74,120,9
1,74,0,93
1,72,109,99
1,72,0,78
1,74,120,21
1,74,0,92
1,72,104,94
1,72,0,106
1,74,111,84
1,74,0,87
1,72,117,12
1,72,0,100
1,74,127,95
1,74,0,107
1,76,100,475
1,76,0,81
1,74,98,6
1,74,0,48
1,74,107,49
1,74,0,95
1,67,109,3
1,67,0,71
1,76,100,21
1,76,0,71
1,74,92,23
1,74,0,50
1,74,100,54
1,74,0,54
1,74,102,42
1,74,0,73
1,71,114,17
1,71,0,181
1,72,123,8
1,72,0,127
1,71,114,70
1,71,0,174
1,72,117,10
1,72,0,54
1,71,117,49
1,71,0,276
1,72,111,9
1,72,0,64
1,71,117,38
1,71,0,165
1,72,114,17
1,72,0,81
1,71,117,11
1,71,0,179
1,72,127,6
1,72,0,138
1,77,114,459
1,77,0,118
1,77,111,49
1,77,0,131
1,76,100,11
1,76,0,135
1,74,104,1
1,74,0,101
1,77,95,14
1,77,0,122
1,76,96,15
1,76,0,123
1,74,93,29
1,74,0,80
1,72,109,30
1,72,0,130
1,74,98,47
1,74,0,104
1,72,104,6
1,72,0,128
1,74,117,56
1,74,0,106
1,72,98,91
1,72,0,88
1,74,107,2
1,74,0,114
1,72,100,79
1,72,0,90
1,74,104,14
1,74,0,86
1,72,104,102
1,72,0,107
1,74,111,85
1,74,0,85
1,72,111,12
1,72,0,116
1,74,117,61
1,74,0,130
1,76,96,449
1,76,0,82
1,74,98,15
1,74,0,47
1,74,93,50
1,67,100,102
1,74,0,5
1,67,0,50
1,76,85,26
1,76,0,75
1,74,102,19
1,74,0,52
1,74,107,52
1,74,0,58
1,74,98,37
1,74,0,81
1,71,111,10
1,71,0,183
1,72,117,10
1,72,0,151
1,71,107,42
1,71,0,180
1,72,111,12
1,72,0,59
1,71,114,37
1,71,0,286
1,72,117,7
1,72,0,83
1,71,117,20
1,71,0,105
1,72,117,68
1,72,0,83
1,71,107,13
1,71,0,143
1,72,120,47
1,72,0,124
1,77,117,457
1,76,100,323
1,77,0,14
1,76,0,96
1,74,104,33
1,74,0,53
1,77,117,58
1,77,0,120
1,76,100,23
1,76,0,120
1,74,102,18
1,74,0,81
1,72,117,24
1,72,0,104
1,74,120,84
1,74,0,95
1,72,111,14
1,72,0,91
1,74,127,92
1,74,0,75
1,72,104,124
1,72,0,78
1,74,120,11
1,74,0,92
1,72,109,99
1,72,0,77
1,74,120,22
1,74,0,92
1,72,104,94
1,72,0,106
1,74,111,83
1,74,0,87
1,72,117,11
1,72,0,100
1,74,127,93
1,74,0,109
1,76,100,474
1,76,0,82
1,74,98,6
1,74,0,48
1,74,107,49
1,74,0,94
1,67,109,4
1,67,0,69
1,76,100,21
1,76,0,73
1,74,92,24
1,74,0,50
1,74,100,55
1,74,0,53
1,74,102,41
1,74,0,74
1,71,114,18
1,71,0,180
1,72,123,8
1,72,0,127
1,71,114,69
1,71,0,176
1,72,117,8
1,72,0,55
1,71,117,50
1,71,0,277
1,72,111,9
1,72,0,64
1,71,117,38
1,71,0,165
1,72,114,16
1,72,0,82
1,71,117,11
1,71,0,178
1,72,127,5
1,72,0,140
1,77,114,458
1,77,0,118
1,77,111,50
1,77,0,130
1,76,100,10
1,76,0,136
1,74,104,1
1,74,0,99
1,77,95,15
1,77,0,122
1,76,96,15
1,76,0,122
1,74,93,29
1,74,0,82
1,74,98,27
1,75,106,753
1,74,0,2
1,75,0,571
1,77,75,4
1,77,0,177
1,79,70,4
1,79,0,519
2,50,101,2
2,48,91,766
2,50,0,0
2,43,101,769
2,48,0,1
2,43,0,750
2,51,98,16
2,48,104,769
2,51,0,0
2,43,104,766
2,48,0,1
2,43,0,768
2,55,91,0
2,53,83,140
2,55,0,36
2,51,70,110
2,53,0,34
2,51,0,241
2,43,67,12
2,45,53,97
2,43,0,36
2,43,85,63
2,45,0,0
2,43,0,751
2,50,101,786
2,48,91,766
2,50,0,0
2,43,101,769
2,48,0,1
2,43,0,750
2,51,98,16
2,48,104,769
2,51,0,0
2,43,104,766
2,48,0,1
2,43,0,768
2,55,91,0
2,53,83,140
2,55,0,36
2,51,70,110
2,53,0,34
2,51,0,241
2,43,67,12
2,45,53,97
2,43,0,36
2,45,0,61
2,43,104,1
2,43,0,768
2,55,91,0
2,53,83,141
2,55,0,36
2,51,70,109
2,53,0,36
2,51,0,240
2,43,67,12
2,45,53,97
2,43,0,35
2,43,85,64
2,45,0,0
2,43,0,751
2,50,85,783
2,48,85,768
2,50,0,10
2,48,0,745
2,43,64,13
2,51,84,768
2,43,0,23
2,51,0,731
2,43,81,14
2,51,84,767
2,43,0,11
2,51,0,551
2,50,78,14
2,43,81,192
2,50,0,9
2,43,0,770
3,74,78,48
3,77,78,0
3,81,78,0
3,77,0,23
3,81,0,0
3,74,0,12
3,74,78,61
3,77,78,0
3,81,78,0
3,74,0,24
3,81,0,0
3,77,0,10
3,74,78,62
3,77,78,0
3,81,78,0
3,77,0,22
3,81,0,12
3,74,0,1
3,74,78,62
3,77,78,0
3,81,78,0
3,77,0,34
3,81,0,0
3,74,0,1
3,74,78,60
3,77,78,0
3,81,78,0
3,77,0,35
3,81,0,0
3,74,0,1
3,74,78,60
3,77,78,0
3,81,78,0
3,74,0,34
3,77,0,0
3,81,0,1
3,65,0,23
3,74,78,38
3,77,78,0
3,81,78,0
3,77,0,35
3,81,0,0
3,74,0,1
3,72,78,64
3,75,78,0
3,79,78,0
3,62,0,6
3,69,0,12
3,75,0,0
3,72,0,13
3,79,0,0
3,72,78,61
3,75,78,0
3,79,78,0
3,75,0,23
3,72,0,12
3,79,0,0
3,72,78,61
3,75,78,0
3,79,78,0
3,75,0,21
3,72,0,14
3,79,0,0
3,72,78,61
3,75,78,0
3,79,78,0
3,75,0,22
3,72,0,13
3,79,0,0
3,72,78,61
3,79,78,0
3,75,78,1
3,75,0,21
3,79,0,0
3,72,0,12
3,72,78,61
3,75,78,0
3,79,78,0
3,75,0,35
3,79,0,0
3,72,0,1
3,72,78,60
3,75,78,0
3,79,78,0
3,75,0,22
3,79,0,0
3,72,0,11
3,72,78,62
3,75,78,1
3,79,78,0
3,75,0,22
3,79,0,0
3,72,0,11
3,74,78,66
3,79,78,0
3,83,78,0
3,79,0,17
3,83,0,1
3,74,0,11
3,74,78,60
3,79,78,1
3,83,78,0
3,79,0,22
3,74,0,12
3,83,0,0
3,74,78,62
3,79,78,0
3,83,78,0
3,79,0,21
3,74,0,12
3,83,0,12
3,74,78,50
3,79,78,0
3,83,78,0
3,79,0,22
3,74,0,1
3,83,0,23
3,74,78,51
3,79,78,0
3,83,78,0
3,79,0,21
3,74,0,13
3,83,0,0
3,74,78,61
3,79,78,0
3,83,78,0
3,74,0,35
3,79,0,0
3,83,0,1
3,74,78,60
3,79,78,0
3,83,78,0
3,79,0,35
3,74,0,1
3,83,0,0
3,79,78,60
3,74,78,1
3,83,78,0
3,83,0,9
3,74,0,12
3,79,0,11
3,75,78,66
3,79,78,0
3,82,78,0
3,82,0,18
3,75,0,12
3,79,0,0
3,75,78,60
3,79,78,0
3,82,78,0
3,82,0,36
3,75,0,1
3,79,0,0
3,75,78,60
3,79,78,0
3,82,78,0
3,79,0,34
3,75,0,12
3,82,0,0
3,75,78,48
3,82,78,0
3,79,78,1
3,79,0,36
3,82,0,0
3,75,0,11
3,75,78,48
3,82,78,0
3,79,78,1
3,79,0,35
3,75,0,11
3,82,0,0
3,82,78,48
3,75,78,1
3,79,78,0
3,79,0,34
3,75,0,12
3,82,0,0
3,75,78,48
3,82,78,0
3,79,78,1
3,79,0,24
3,75,0,10
3,82,0,0
3,82,78,60
3,75,78,1
3,79,78,0
3,82,0,35
3,75,0,1
3,79,0,0
3,72,78,65
3,75,78,0
3,78,78,0
3,79,78,0
3,75,0,17
3,78,0,0
3,79,0,1
3,72,0,10
3,72,78,62
3,75,78,0
3,79,78,0
3,75,0,35
3,72,0,1
3,79,0,0
3,72,78,59
3,75,78,0
3,79,78,0
3,72,0,36
3,75,0,0
3,79,0,1
3,72,78,59
3,75,78,1
3,79,78,0
3,75,0,23
3,72,0,12
3,79,0,0
3,72,78,60
3,75,78,0
3,79,78,1
3,75,0,33
3,79,0,0
3,72,0,1
3,72,78,61
3,75,78,0
3,79,78,0
3,79,0,22
3,72,0,13
3,75,0,0
3,72,78,60
3,75,78,0
3,79,78,1
3,79,0,22
3,72,0,14
3,75,0,10
3,72,78,50
3,75,78,0
3,79,78,0
3,79,0,23
3,72,0,11
3,75,0,0
3,79,78,64
3,74,78,1
3,83,78,0
3,83,0,31
3,74,0,1
3,79,0,0
3,74,78,59
3,79,78,0
3,83,78,0
3,83,0,36
3,74,0,1
3,79,0,0
3,74,78,60
3,79,78,0
3,83,78,0
3,74,0,34
3,83,0,0
3,79,0,1
3,79,78,61
3,74,78,1
3,83,78,0
3,74,0,34
3,79,0,0
3,83,0,1
3,83,78,61
3,74,78,1
3,79,78,0
3,79,0,32
3,74,0,1
3,83,0,0
3,74,78,60
3,79,78,0
3,83,78,0
3,74,0,36
3,79,0,0
3,83,0,1
3,79,78,59
3,83,78,0
3,74,78,1
3,79,0,22
3,74,0,12
3,83,0,0
3,74,78,62
3,79,78,0
3,83,78,1
3,83,0,22
3,74,0,12
3,79,0,0
3,75,78,65
3,79,78,0
3,79,0,30
3,75,0,12
3,75,78,48
3,79,78,1
3,82,78,0
3,75,0,35
3,79,0,0
3,82,0,0
3,75,78,59
3,82,78,0
3,79,78,1
3,79,0,34
3,75,0,1
3,82,0,0
3,75,78,62
3,82,78,0
3,79,78,1
3,79,0,33
3,82,0,0
3,75,0,11
3,75,78,50
3,79,78,1
3,82,78,0
3,79,0,33
3,75,0,11
3,82,0,0
3,75,78,49
3,79,78,0
3,82,78,0
3,79,0,34
3,75,0,13
3,82,0,0
3,75,78,49
3,79,78,0
3,82,78,0
3,75,0,35
3,79,0,1
3,82,0,0
3,75,78,61
3,82,78,0
3,79,78,1
3,82,0,21
3,75,0,14
3,79,0,0
3,74,78,64
3,79,78,0
3,83,78,0
3,74,0,18
3,83,0,0
3,79,0,11
3,74,78,60
3,79,78,0
3,83,78,0
3,79,0,36
3,83,0,0
3,74,0,1
3,74,78,60
3,79,78,0
3,83,78,0
3,79,0,35
3,83,0,0
3,74,0,1
3,74,78,59
3,79,78,0
3,83,78,0
3,83,0,23
3,74,0,12
3,79,0,0
3,79,78,60
3,83,78,0
3,74,78,1
3,74,0,23
3,83,0,0
3,79,0,11
3,74,78,62
3,79,78,0
3,83,78,0
3,74,0,34
3,83,0,0
3,79,0,1
3,74,78,60
3,79,78,0
3,83,78,0
3,74,0,36
3,79,0,1
3,83,0,0
3,74,78,59
3,79,78,0
3,83,78,0
3,74,0,36
3,83,0,0
3,79,0,1
3,74,78,60
3,79,78,0
3,83,78,1
3,74,0,34
3,79,0,1
3,83,0,0
3,74,78,59
3,79,78,0
3,83,78,0
3,74,0,36
3,79,0,0
3,83,0,1
3,74,78,60
3,79,78,0
3,83,78,0
3,74,0,23
3,83,0,0
3,79,0,10
3,74,78,62
3,79,78,0
3,83,78,0
3,79,0,46
3,74,0,1
