track,note,velocity,time
3,34,100,1536
3,34,100,36
3,34,100,36
3,34,100,36
3,34,100,36
3,34,100,36
3,34,100,36
3,34,100,36
3,31,100,36
3,31,100,36
3,31,100,36
3,31,100,36
3,31,100,36
3,31,100,36
3,31,100,36
3,31,100,36
3,39,100,36
3,39,100,36
3,39,100,36
3,39,100,36
3,39,100,36
3,39,100,36
3,39,100,36
3,39,100,36
3,34,100,36
3,34,100,36
3,34,100,36
3,34,100,36
3,34,100,36
3,34,100,36
3,34,100,36
3,34,100,36
3,41,100,36
3,41,100,36
3,41,100,36
3,41,100,36
3,41,100,36
3,41,100,36
3,41,100,36
3,41,100,36
3,31,100,36
3,31,100,36
3,31,100,36
3,31,100,36
3,31,100,36
3,31,100,36
3,31,100,36
3,31,100,36
3,39,100,36
3,39,100,36
3,39,100,36
3,39,100,36
3,39,100,36
3,39,100,36
3,39,100,36
3,39,100,36
3,34,100,36
3,34,100,36
3,34,100,36
3,34,100,36
3,34,100,36
3,34,100,36
3,34,100,36
3,34,100,36
3,41,100,36
3,41,100,36
3,41,100,36
3,41,100,36
3,41,100,36
3,41,100,36
3,41,100,36
3,41,100,36
3,36,100,36
3,36,100,36
3,36,100,36
3,36,100,36
3,36,100,36
3,36,100,36
3,36,100,36
3,36,100,36
3,43,100,36
3,43,100,36
3,43,100,36
3,43,100,36
3,43,100,36
3,43,100,36
3,43,100,36
3,43,100,36
3,34,100,36
3,34,100,36
3,34,100,36
3,34,100,36
3,34,100,36
3,34,100,36
3,34,100,36
3,34,100,36
3,41,100,36
3,41,100,36
3,41,100,36
3,41,100,36
3,41,100,36
3,41,100,36
3,41,100,36
3,41,100,36
3,34,100,36
3,34,100,36
3,34,100,36
3,34,100,36
3,34,100,36
3,34,100,36
3,34,100,36
3,34,100,36
3,39,100,36
3,39,100,36
3,39,100,36
3,39,100,36
3,39,100,36
3,39,100,36
3,39,100,36
3,39,100,36
3,41,100,36
3,41,100,36
3,41,100,36
3,41,100,36
3,41,100,36
3,41,100,36
3,41,100,36
3,41,100,36
3,34,100,36
3,34,100,36
3,34,100,36
3,34,100,36
3,34,100,36
3,34,100,36
3,34,100,36
3,34,100,36
3,31,100,36
3,31,100,36
3,31,100,36
3,31,100,36
3,31,100,36
3,31,100,36
3,31,100,36
3,31,100,36
3,39,100,36
3,39,100,36
3,39,100,36
3,39,100,36
3,39,100,36
3,39,100,36
3,39,100,36
3,39,100,36
3,34,100,36
3,34,100,36
3,34,100,36
3,34,100,36
3,34,100,36
3,34,100,36
3,34,100,36
3,34,100,36
3,41,100,36
3,41,100,36
3,41,100,36
3,41,100,36
3,41,100,36
3,41,100,36
3,41,100,36
3,41,100,36
3,31,100,36
3,31,100,36
3,31,100,36
3,31,100,36
3,31,100,36
3,31,100,36
3,31,100,36
3,31,100,36
3,39,100,36
3,39,100,36
3,39,100,36
3,39,100,36
3,39,100,36
3,39,100,36
3,39,100,36
3,39,100,36
3,34,100,36
3,34,100,36
3,34,100,36
3,34,100,36
3,34,100,36
3,34,100,36
3,34,100,36
3,34,100,36
3,41,100,36
3,41,100,36
3,41,100,36
3,41,100,36
3,41,100,36
3,41,100,36
3,41,100,36
3,41,100,36
3,36,100,36
3,36,100,36
3,36,100,36
3,36,100,36
3,36,100,36
3,36,100,36
3,36,100,36
3,36,100,36
3,43,100,36
3,43,100,36
3,43,100,36
3,43,100,36
3,43,100,36
3,43,100,36
3,43,100,36
3,43,100,36
3,34,100,36
3,34,100,36
3,34,100,36
3,34,100,36
3,34,100,36
3,34,100,36
3,34,100,36
3,34,100,36
3,41,100,36
3,41,100,36
3,41,100,36
3,41,100,36
3,41,100,36
3,41,100,36
3,41,100,36
3,41,100,36
3,34,100,36
3,34,100,36
3,34,100,36
3,34,100,36
3,34,100,36
3,34,100,36
3,34,100,36
3,34,100,36
3,39,100,36
3,39,100,36
3,39,100,36
3,39,100,36
3,39,100,36
3,39,100,36
3,39,100,36
3,39,100,36
3,41,100,36
3,41,100,36
3,41,100,36
3,41,100,36
3,41,100,36
3,41,100,36
3,41,100,36
3,41,100,36
3,34,100,36
3,34,100,36
3,34,100,36
3,34,100,36
3,34,100,36
3,34,100,36
3,34,100,36
3,34,100,36
3,31,100,36
3,31,100,36
3,31,100,36
3,31,100,36
3,31,100,36
3,31,100,36
3,31,100,36
3,31,100,36
3,39,100,36
3,39,100,36
3,39,100,36
3,39,100,36
3,39,100,36
3,39,100,36
3,39,100,36
3,39,100,36
3,34,100,36
3,34,100,36
3,34,100,36
3,34,100,36
3,34,100,36
3,34,100,36
3,34,100,36
3,34,100,36
3,41,100,36
3,41,100,36
3,41,100,36
3,41,100,36
3,41,100,36
3,41,100,36
3,41,100,36
3,41,100,36
3,31,100,36
3,31,100,36
3,31,100,36
3,31,100,36
3,31,100,36
3,31,100,36
3,31,100,36
3,31,100,36
3,39,100,36
3,39,100,36
3,39,100,36
3,39,100,36
3,39,100,36
3,39,100,36
3,39,100,36
3,39,100,36
3,39,100,36
3,39,100,36
3,34,100,36
3,34,100,36
3,34,100,36
3,34,100,36
3,34,100,36
3,34,100,36
3,34,100,36
3,34,100,36
3,41,100,36
3,41,100,36
3,41,100,36
3,41,100,36
3,41,100,36
3,41,100,36
3,41,100,36
3,41,100,36
3,43,100,36
3,43,100,36
3,43,100,36
3,43,100,36
3,43,100,36
3,43,100,36
3,43,100,36
3,43,100,36
3,39,100,36
3,39,100,36
3,39,100,36
3,39,100,36
3,39,100,36
3,39,100,36
3,39,100,36
3,39,100,36
3,39,100,36
3,39,100,36
3,34,100,36
3,34,100,36
3,34,100,36
3,34,100,36
3,34,100,36
3,34,100,36
3,34,100,36
3,34,100,36
3,41,100,36
3,41,100,36
3,41,100,36
3,41,100,36
3,41,100,36
3,41,100,36
3,41,100,36
3,41,100,36
3,43,100,36
3,43,100,36
3,43,100,36
3,43,100,36
3,43,100,36
3,43,100,36
3,43,100,36
3,43,100,36
3,43,100,36
3,43,100,36
3,43,100,36
3,43,100,36
3,43,100,36
3,43,100,36
3,43,100,36
3,43,100,36
3,36,100,36
3,36,100,36
3,36,100,36
3,36,100,36
3,36,100,36
3,36,100,36
3,36,100,36
3,36,100,36
3,33,100,36
3,33,100,36
3,33,100,36
3,33,100,36
3,33,100,36
3,33,100,36
3,33,100,36
3,33,100,36
3,41,100,36
3,41,100,36
3,41,100,36
3,41,100,36
3,41,100,36
3,41,100,36
3,41,100,36
3,41,100,36
3,36,100,36
3,36,100,36
3,36,100,36
3,36,100,36
3,36,100,36
3,36,100,36
3,36,100,36
3,36,100,36
3,43,100,36
3,43,100,36
3,43,100,36
3,43,100,36
3,43,100,36
3,43,100,36
3,43,100,36
3,43,100,36
3,33,100,36
3,33,100,36
3,33,100,36
3,33,100,36
3,33,100,36
3,33,100,36
3,33,100,36
3,33,100,36
3,41,100,36
3,41,100,36
3,41,100,36
3,41,100,36
3,41,100,36
3,41,100,36
3,41,100,36
3,41,100,36
3,36,100,36
3,36,100,36
3,36,100,36
3,36,100,36
3,36,100,36
3,36,100,36
3,36,100,36
3,36,100,36
3,43,100,36
3,43,100,36
3,43,100,36
3,43,100,36
3,43,100,36
3,43,100,36
3,43,100,36
3,43,100,36
3,38,100,36
3,38,100,36
3,38,100,36
3,38,100,36
3,38,100,36
3,38,100,36
3,38,100,36
3,38,100,36
3,45,100,36
3,45,100,36
3,45,100,36
3,45,100,36
3,45,100,36
3,45,100,36
3,45,100,36
3,45,100,36
3,36,100,36
3,36,100,36
3,36,100,36
3,36,100,36
3,36,100,36
3,36,100,36
3,36,100,36
3,36,100,36
3,43,100,36
3,43,100,36
3,43,100,36
3,43,100,36
3,43,100,36
3,43,100,36
3,43,100,36
3,43,100,36
3,36,100,36
3,36,100,36
3,36,100,36
3,36,100,36
3,36,100,36
3,36,100,36
3,36,100,36
3,36,100,36
3,41,100,36
3,41,100,36
3,41,100,36
3,41,100,36
3,41,100,36
3,41,100,36
3,41,100,36
3,41,100,36
3,43,100,36
3,43,100,36
3,43,100,36
3,43,100,36
3,43,100,36
3,43,100,36
3,43,100,36
3,43,100,36
3,36,100,36
3,36,100,36
3,36,100,36
3,36,100,36
3,36,100,36
3,36,100,36
3,36,100,36
3,36,100,36
3,43,100,36
3,43,100,36
3,43,100,36
3,43,100,36
3,43,100,36
3,43,100,36
3,43,100,36
3,43,100,36
3,38,100,36
3,38,100,36
3,38,100,36
3,38,100,36
3,38,100,36
3,38,100,36
3,38,100,36
3,38,100,36
3,45,100,36
3,45,100,36
3,45,100,36
3,45,100,36
3,45,100,36
3,45,100,36
3,45,100,36
3,45,100,36
3,36,100,36
3,36,100,36
3,36,100,36
3,36,100,36
3,36,100,36
3,36,100,36
3,36,100,36
3,36,100,36
3,43,100,36
3,43,100,36
3,43,100,36
3,43,100,36
3,43,100,36
3,43,100,36
3,43,100,36
3,43,100,36
3,33,100,36
3,33,100,36
3,33,100,36
3,33,100,36
3,33,100,36
3,33,100,36
3,33,100,36
3,33,100,36
3,33,100,36
3,33,100,36
3,33,100,36
3,33,100,36
3,33,100,36
3,33,100,36
3,33,100,4
3,33,100,36
3,38,100,36
3,38,100,36
3,38,100,36
3,38,100,36
3,38,100,36
3,38,100,36
3,38,100,36
3,38,100,36
3,35,100,36
3,35,100,36
3,35,100,36
3,35,100,36
3,35,100,36
3,35,100,36
3,35,100,36
3,35,100,36
3,43,100,36
3,43,100,36
3,43,100,36
3,43,100,36
3,43,100,36
3,43,100,36
3,43,100,36
3,43,100,36
3,38,100,36
3,38,100,36
3,38,100,36
3,38,100,36
3,38,100,36
3,38,100,36
3,38,100,36
3,38,100,36
3,45,100,36
3,45,100,36
3,45,100,36
3,45,100,36
3,45,100,36
3,45,100,36
3,45,100,36
3,45,100,36
3,35,100,36
3,35,100,36
3,35,100,36
3,35,100,36
3,35,100,36
3,35,100,36
3,35,100,36
3,35,100,36
3,43,100,36
3,43,100,36
3,43,100,36
3,43,100,36
3,43,100,36
3,43,100,36
3,43,100,36
3,43,100,36
3,43,100,36
3,43,100,36
3,38,100,36
3,38,100,36
3,38,100,36
3,38,100,36
3,38,100,36
3,38,100,36
3,38,100,36
3,38,100,36
3,45,100,36
3,45,100,36
3,45,100,36
3,45,100,36
3,45,100,36
3,45,100,36
3,45,100,36
3,45,100,36
3,35,100,36
3,35,100,36
3,35,100,36
3,35,100,36
3,35,100,36
3,35,100,36
3,35,100,36
3,35,100,36
3,43,100,36
3,43,100,36
3,43,100,36
3,43,100,36
3,43,100,36
3,43,100,36
3,43,100,36
3,43,100,36
3,43,100,36
3,43,100,36
3,38,100,36
3,38,100,36
3,38,100,36
3,38,100,36
3,38,100,36
3,38,100,36
3,38,100,36
3,38,100,36
3,45,100,36
3,45,100,36
3,45,100,36
3,45,100,36
3,45,100,36
3,45,100,36
3,45,100,36
3,45,100,36
3,35,100,36
3,35,100,36
3,35,100,36
3,35,100,36
3,35,100,36
3,35,100,36
3,35,100,36
3,35,100,36
3,35,100,36
3,35,100,36
3,35,100,36
3,35,100,36
3,35,100,36
3,35,100,36
3,35,100,36
3,35,100,36
3,40,100,36
3,40,100,36
3,40,100,36
3,40,100,36
3,40,100,36
3,40,100,36
3,40,100,36
3,40,100,36
3,35,100,36
3,35,100,36
3,35,100,36
3,35,100,36
3,35,100,36
3,35,100,36
3,35,100,36
3,35,100,36
3,30,100,36
3,30,100,36
3,30,100,36
3,30,100,36
3,30,100,36
3,30,100,36
3,30,100,36
3,30,100,36
3,37,100,36
3,37,100,36
3,37,100,36
3,37,100,36
3,37,100,36
3,37,100,36
3,37,100,36
3,37,100,36
3,40,100,36
3,40,100,36
3,40,100,36
3,40,100,36
3,40,100,36
3,40,100,36
3,40,100,36
3,40,100,36
3,35,100,36
3,35,100,36
3,35,100,36
3,35,100,36
3,35,100,36
3,35,100,36
3,35,100,36
3,35,100,36
3,40,100,36
3,40,100,36
3,40,100,36
3,40,100,36
3,40,100,36
3,40,100,36
3,40,100,36
3,40,100,36
3,33,100,36
3,33,100,36
3,33,100,36
3,33,100,36
3,33,100,36
3,33,100,36
3,33,100,36
3,33,100,36
3,35,100,36
3,35,100,36
3,35,100,36
3,35,100,36
3,35,100,36
3,35,100,36
3,35,100,36
3,35,100,36
3,40,100,36
3,40,100,36
3,40,100,36
3,40,100,36
3,40,100,36
3,40,100,36
3,40,100,36
3,40,100,36
3,35,100,36
3,35,100,36
3,35,100,36
3,35,100,36
3,35,100,36
3,35,100,36
3,35,100,36
3,35,100,36
3,30,100,36
3,30,100,36
3,30,100,36
3,30,100,36
3,30,100,36
3,30,100,36
3,30,100,36
3,30,100,36
3,37,100,36
3,37,100,36
3,37,100,36
3,37,100,36
3,37,100,36
3,37,100,36
3,37,100,36
3,37,100,36
3,40,100,36
3,40,100,36
3,40,100,36
3,40,100,36
3,40,100,36
3,40,100,36
3,40,100,36
3,40,100,36
3,35,100,36
3,35,100,36
3,35,100,36
3,35,100,36
3,35,100,36
3,35,100,36
3,35,100,36
3,35,100,36
3,37,100,36
3,37,100,36
3,37,100,36
3,37,100,36
3,37,100,36
3,37,100,36
3,37,100,36
3,37,100,36
3,37,100,36
3,37,100,36
3,37,100,36
3,37,100,36
3,37,100,36
3,37,100,36
3,37,100,4
3,37,100,36
4,46,100,1536
4,46,100,36
4,34,100,36
4,34,100,36
4,46,100,36
4,46,100,36
4,34,100,36
4,34,100,36
4,43,100,36
4,43,100,36
4,31,100,36
4,31,100,36
4,43,100,36
4,43,100,36
4,31,100,36
4,31,100,36
4,51,100,36
4,51,100,36
4,39,100,36
4,39,100,36
4,51,100,36
4,51,100,36
4,39,100,36
4,39,100,36
4,46,100,36
4,46,100,36
4,34,100,36
4,34,100,36
4,46,100,36
4,46,100,36
4,34,100,36
4,34,100,36
4,53,100,36
4,53,100,36
4,41,100,36
4,41,100,36
4,53,100,36
4,53,100,36
4,41,100,36
4,41,100,36
4,43,100,36
4,43,100,36
4,31,100,36
4,31,100,36
4,43,100,36
4,43,100,36
4,31,100,36
4,31,100,36
4,51,100,36
4,51,100,36
4,39,100,36
4,39,100,36
4,51,100,36
4,51,100,36
4,39,100,36
4,39,100,36
4,46,100,36
4,46,100,36
4,34,100,36
4,34,100,36
4,46,100,36
4,46,100,36
4,34,100,36
4,34,100,36
4,53,100,36
4,53,100,36
4,41,100,36
4,41,100,36
4,53,100,36
4,53,100,36
4,41,100,36
4,41,100,36
4,48,100,36
4,48,100,36
4,36,100,36
4,36,100,36
4,48,100,36
4,48,100,36
4,36,100,36
4,36,100,36
4,55,100,36
4,55,100,36
4,43,100,36
4,43,100,36
4,55,100,36
4,55,100,36
4,43,100,36
4,43,100,36
4,46,100,36
4,46,100,36
4,34,100,36
4,34,100,36
4,46,100,36
4,46,100,36
4,34,100,36
4,34,100,36
4,53,100,36
4,53,100,36
4,41,100,36
4,41,100,36
4,53,100,36
4,53,100,36
4,41,100,36
4,41,100,36
4,46,100,36
4,46,100,36
4,34,100,36
4,34,100,36
4,46,100,36
4,46,100,36
4,34,100,36
4,34,100,36
4,51,100,36
4,51,100,36
4,39,100,36
4,39,100,36
4,51,100,36
4,51,100,36
4,39,100,36
4,39,100,36
4,53,100,36
4,53,100,36
4,41,100,36
4,41,100,36
4,53,100,36
4,53,100,36
4,41,100,36
4,41,100,36
4,46,100,36
4,46,100,36
4,34,100,36
4,34,100,36
4,46,100,36
4,46,100,36
4,34,100,36
4,34,100,36
4,43,100,36
4,43,100,36
4,31,100,36
4,31,100,36
4,43,100,36
4,43,100,36
4,31,100,36
4,31,100,36
4,51,100,36
4,51,100,36
4,39,100,36
4,39,100,36
4,51,100,36
4,51,100,36
4,39,100,36
4,39,100,36
4,46,100,36
4,46,100,36
4,34,100,36
4,34,100,36
4,46,100,36
4,46,100,36
4,34,100,36
4,34,100,36
4,53,100,36
4,53,100,36
4,41,100,36
4,41,100,36
4,53,100,36
4,53,100,36
4,41,100,36
4,41,100,36
