track,note,velocity,time
1,45,98,13180
1,57,94,0
1,45,85,28
1,57,97,16
1,45,80,192
1,57,93,8
1,45,87,20
1,57,91,4
1,45,88,12
1,57,100,12
1,45,77,12
1,57,100,4
1,45,76,4
1,57,103,192
1,45,80,8
1,57,96,4
1,40,80,76
1,52,70,8
1,40,78,12
1,52,94,8
1,40,86,24
1,52,102,192
1,40,88,20
1,52,95,192
1,40,81,20
1,52,101,192
1,40,86,24
1,52,94,4
1,40,85,32
1,52,97,192
1,40,78,52
1,52,92,20
1,45,93,80
1,57,101,0
1,45,86,28
1,57,95,24
1,45,87,52
1,57,93,8
1,45,86,20
1,57,98,8
1,45,87,20
1,57,99,12
1,45,80,12
1,57,97,32
1,45,74,4
1,57,99,24
1,45,85,16
1,57,97,36
1,40,83,76
1,52,70,8
1,40,83,44
1,52,97,8
1,40,84,28
1,52,103,192
1,40,82,36
1,52,91,192
1,40,80,32
1,52,94,192
1,40,84,24
1,52,96,28
1,40,82,32
1,52,95,24
1,40,78,52
1,52,91,20
1,45,95,80
1,57,94,0
1,45,86,28
1,57,96,16
1,45,84,192
1,57,96,8
1,45,84,20
1,57,91,4
1,45,85,12
1,57,101,12
1,45,82,12
1,57,97,4
1,45,79,4
1,57,99,192
1,45,81,8
1,57,102,4
1,40,77,76
1,52,73,8
1,40,79,12
1,52,96,8
1,40,88,24
1,52,99,192
1,40,84,20
1,52,98,192
1,40,86,20
1,52,97,192
1,40,81,24
1,52,94,4
1,40,79,32
1,52,96,192
1,40,85,52
1,52,93,20
1,45,97,80
1,57,98,0
1,45,85,28
1,57,93,16
1,45,80,192
1,57,93,8
1,45,81,20
1,57,96,4
1,45,82,12
1,57,98,12
1,45,83,12
1,57,101,4
1,45,75,4
1,57,101,192
1,45,83,8
1,57,101,4
1,40,78,76
1,52,70,8
1,40,81,12
1,52,98,8
1,40,84,24
1,52,98,192
1,40,84,20
1,52,92,192
1,40,82,20
1,52,96,192
1,40,78,24
1,52,94,4
1,40,82,32
1,52,92,192
1,40,83,52
1,52,98,20
1,42,115,84
1,42,113,8
1,45,109,8
1,40,104,52
1,40,109,72
1,47,105,64
1,42,110,36
1,42,107,68
1,42,109,36
1,42,106,64
1,38,115,28
1,38,114,4
1,40,107,8
1,52,93,12
1,40,107,16
1,52,101,24
1,40,102,16
1,52,103,4
1,40,104,40
1,52,102,24
1,40,102,16
1,52,107,16
1,40,99,12
1,52,109,4
1,52,114,12
1,42,113,412
1,42,112,8
1,45,112,8
1,40,110,52
1,40,105,72
1,47,105,64
1,42,112,36
1,42,108,68
1,42,111,36
1,42,108,64
1,38,112,28
1,38,115,4
1,40,110,8
1,52,93,12
1,40,107,16
1,52,109,24
1,40,107,16
1,52,106,4
1,40,105,40
1,52,107,24
1,40,99,16
1,52,102,16
1,40,102,12
1,52,104,4
1,52,114,12
1,45,90,412
1,50,85,8
1,50,90,104
1,45,84,64
1,52,77,8
1,52,88,124
1,40,61,68
1,52,82,36
1,40,88,16
1,52,84,40
1,40,82,20
1,52,84,32
1,40,85,64
1,52,86,16
1,45,87,4
1,50,87,4
1,50,85,104
1,45,78,32
1,52,88,4
1,52,87,116
1,40,86,76
1,52,89,16
1,40,83,44
1,52,90,32
1,40,84,36
1,52,87,20
1,40,86,40
1,52,88,20
1,45,84,28
1,50,79,8
1,50,91,100
1,45,87,12
1,52,83,4
1,52,86,124
1,40,83,40
1,52,83,44
1,40,85,32
1,52,85,16
1,40,79,32
1,52,84,24
1,40,88,40
1,52,89,16
1,47,84,84
1,59,88,40
1,59,85,120
1,47,69,8
1,59,83,8
1,59,79,140
1,47,74,40
1,59,80,4
1,59,75,128
1,47,77,24
1,59,79,4
1,59,82,184
1,47,78,12
1,59,89,12
1,59,76,108
1,47,75,24
1,59,89,8
1,59,84,132
1,47,81,84
1,59,83,8
1,59,80,120
1,47,81,20
1,59,86,8
1,59,83,132
1,52,72,84
1,64,80,4
1,52,81,52
1,64,75,4
1,52,77,12
1,64,83,32
1,52,84,40
1,64,82,20
1,52,84,12
1,45,98,1128
1,57,98,0
1,45,83,28
1,57,97,16
1,45,87,192
1,57,91,8
1,45,84,20
1,57,98,4
1,45,86,12
1,57,97,12
1,45,77,12
1,57,97,4
1,45,77,4
1,57,103,192
1,45,81,8
1,57,102,4
1,40,80,76
1,52,73,8
1,40,85,12
1,52,94,8
1,40,88,24
1,52,97,192
1,40,84,20
1,52,95,192
1,40,83,20
1,52,100,192
1,40,79,24
1,52,97,4
1,40,78,32
1,52,97,192
1,40,78,52
1,52,98,20
1,45,93,80
1,57,100,0
1,45,87,28
1,57,92,24
1,45,85,52
1,57,92,8
1,45,82,20
1,57,96,8
1,45,86,20
1,57,96,12
1,45,76,12
1,57,96,32
1,45,76,4
1,57,106,24
1,45,78,16
1,57,100,36
1,40,76,76
1,52,70,8
1,40,79,44
1,52,97,8
1,40,88,28
1,52,102,192
1,40,88,36
1,52,93,192
1,40,85,32
1,52,94,192
1,40,83,24
1,52,95,28
1,40,78,32
1,52,96,24
1,40,80,52
1,52,96,20
1,45,99,80
1,57,100,0
1,45,85,28
1,57,95,16
1,45,87,192
1,57,92,8
1,45,84,20
1,57,94,4
1,45,88,12
1,57,94,12
1,45,77,12
1,57,94,4
1,45,78,4
1,57,100,192
1,45,78,8
1,57,97,4
1,40,76,76
1,52,74,8
1,40,83,12
1,52,99,8
1,40,90,24
1,52,98,192
1,40,86,20
1,52,98,192
1,40,81,20
1,52,96,192
1,40,82,24
1,52,101,4
1,40,82,32
1,52,93,192
1,40,78,52
1,52,92,20
1,45,91,80
1,57,99,0
1,45,87,28
1,57,96,16
1,45,83,192
1,57,91,8
1,45,80,20
1,57,98,4
1,45,86,12
1,57,99,12
1,45,82,12
1,57,100,4
1,45,75,4
1,57,100,192
1,45,81,8
1,57,101,4
1,40,78,76
1,52,76,8
1,40,82,12
1,52,100,8
1,40,88,24
1,52,100,192
1,40,88,20
1,52,94,192
1,40,80,20
1,52,96,192
1,40,85,24
1,52,98,4
1,40,81,32
1,52,98,192
1,40,78,52
1,52,96,20
1,42,113,84
1,42,112,8
1,45,110,8
1,40,109,52
1,40,107,72
1,47,108,64
1,42,112,36
1,42,104,68
1,42,110,36
1,42,103,64
1,38,115,28
1,38,111,4
1,40,104,8
1,52,94,12
1,40,101,16
1,52,101,24
1,40,100,16
1,52,102,4
1,40,106,40
1,52,107,24
1,40,104,16
1,52,108,16
1,40,100,12
1,52,108,4
1,52,110,12
1,42,111,412
1,42,113,8
1,45,116,8
1,40,107,52
1,40,107,72
1,47,106,64
1,42,113,36
1,42,105,68
1,42,106,36
1,42,104,64
1,38,114,28
1,38,114,4
1,40,106,8
1,52,94,12
1,40,104,16
1,52,102,24
1,40,104,16
1,52,101,4
1,40,104,40
1,52,105,24
1,40,99,16
1,52,104,16
1,40,99,12
1,52,103,4
1,52,110,12
1,45,88,412
1,50,89,8
1,50,86,104
1,45,88,64
1,52,80,8
1,52,88,124
1,40,60,68
1,52,82,36
1,40,87,16
1,52,84,40
1,40,82,20
1,52,86,32
1,40,80,64
1,52,85,16
1,45,88,4
1,50,89,4
1,50,88,104
1,45,81,32
1,52,83,4
1,52,88,116
1,40,91,76
1,52,90,16
1,40,88,44
1,52,90,32
1,40,87,36
1,52,92,20
1,40,81,40
1,52,90,20
1,45,90,28
1,50,77,8
1,50,87,100
1,45,84,12
1,52,83,4
1,52,85,124
1,40,77,40
1,52,87,44
1,40,84,32
1,52,83,16
1,40,77,32
1,52,90,24
1,40,88,40
1,52,89,16
1,47,83,84
1,59,87,40
1,59,87,120
1,47,71,8
1,59,83,8
1,59,75,140
1,47,71,40
1,59,80,4
1,59,77,128
1,47,73,24
1,59,83,4
1,59,83,184
1,47,76,12
1,59,89,12
1,59,83,108
1,47,74,24
1,59,85,8
1,59,85,132
1,47,80,84
1,59,85,8
1,59,78,120
1,47,74,20
1,59,82,8
1,59,89,132
1,52,69,84
1,64,80,4
1,52,82,52
1,64,75,4
1,52,77,12
1,64,83,32
1,52,82,40
1,64,86,20
1,52,86,12
1,45,97,1128
1,57,94,0
1,45,83,28
1,57,93,16
1,45,82,192
1,57,95,8
1,45,85,20
1,57,97,4
1,45,87,12
1,57,96,12
1,45,81,12
1,57,100,4
1,45,81,4
1,57,101,192
1,45,78,8
1,57,103,4
1,40,83,76
1,52,76,8
1,40,81,12
1,52,97,8
1,40,90,24
1,52,102,192
1,40,85,20
1,52,97,192
1,40,82,20
1,52,98,192
1,40,85,24
1,52,95,4
1,40,84,32
1,52,97,192
1,40,82,52
1,52,92,20
1,45,96,80
1,57,94,0
1,45,82,28
1,57,96,24
1,45,84,52
1,57,91,8
1,45,81,20
1,57,95,8
1,45,88,20
1,57,95,12
1,45,80,12
1,57,99,32
1,45,80,4
1,57,100,24
1,45,78,16
1,57,102,36
1,40,78,76
1,52,73,8
1,40,79,44
1,52,94,8
1,40,87,28
1,52,96,192
1,40,88,36
1,52,97,192
1,40,87,32
1,52,94,192
1,40,82,24
1,52,96,28
1,40,78,32
1,52,93,24
1,40,81,52
1,52,92,20
1,45,95,80
1,57,96,0
1,45,87,28
1,57,94,16
1,45,84,192
1,57,98,8
1,45,83,20
1,57,96,4
1,45,88,12
1,57,96,12
1,45,77,12
1,57,94,4
1,45,78,4
1,57,102,192
1,45,84,8
1,57,97,4
1,40,80,76
1,52,73,8
1,40,84,12
1,52,101,8
1,40,90,24
1,52,100,192
1,40,82,20
1,52,92,192
1,40,83,20
1,52,101,192
1,40,79,24
1,52,101,4
1,40,80,32
1,52,93,192
1,40,79,52
1,52,96,20
1,45,92,80
1,57,94,0
1,45,84,28
1,57,95,16
1,45,83,192
1,57,92,8
1,45,85,20
1,57,93,4
1,45,87,12
1,57,100,12
1,45,81,12
1,57,100,4
1,45,75,4
1,57,106,192
1,45,81,8
1,57,102,4
1,40,80,76
1,52,76,8
1,40,80,12
1,52,96,8
1,40,85,24
1,52,100,192
1,40,83,20
1,52,98,192
1,40,85,20
1,52,94,192
1,40,83,24
1,52,100,4
1,40,80,32
1,52,95,192
1,40,83,52
1,52,94,20
1,45,85,80
1,57,81,8
1,57,86,176
1,40,83,32
1,52,83,8
1,52,83,144
1,40,86,84
1,52,82,4
1,52,84,128
1,47,86,52
1,59,81,4
1,59,88,128
1,42,86,28
1,54,88,12
1,54,88,136
1,37,87,44
1,49,84,8
1,49,86,120
1,38,86,84
1,50,88,4
1,50,84,120
1,54,87,56
1,57,81,4
1,50,81,132
1,45,88,28
1,57,86,4
1,57,81,140
1,40,81,48
1,52,82,8
1,52,82,136
1,40,81,84
1,52,85,4
1,52,82,208
1,40,87,60
1,52,82,4
1,52,85,156
1,47,87,92
1,57,86,44
1,59,86,28
1,57,84,20
1,59,81,52
1,59,81,36
1,40,84,20
1,42,83,52
1,40,81,40
1,42,83,28
1,40,83,28
1,42,82,48
1,42,84,36
1,42,87,24
1,45,87,44
1,57,80,8
1,57,85,172
1,40,86,32
1,52,82,4
1,52,82,144
1,40,88,88
1,52,86,12
1,52,83,124
1,47,86,52
1,59,80,8
1,59,82,120
1,42,85,40
1,54,82,8
1,54,84,140
1,37,84,44
1,49,81,8
1,49,82,120
1,38,84,72
1,50,81,4
1,50,84,124
1,54,82,60
1,57,84,8
1,50,86,124
1,45,85,28
1,57,82,8
1,57,83,144
1,40,88,48
1,52,85,12
1,52,88,128
1,40,81,84
1,52,82,4
1,52,81,208
1,40,86,64
1,52,85,8
1,52,82,156
1,47,87,84
1,57,83,40
1,59,88,20
1,57,81,28
1,59,83,48
1,59,86,48
1,40,86,20
1,42,85,48
1,40,86,36
1,42,82,28
1,40,86,32
1,42,85,48
1,42,83,40
1,42,87,24
1,45,86,52
1,57,86,8
1,57,82,184
1,40,84,28
1,52,90,4
1,52,83,148
1,40,85,88
1,52,84,4
1,52,84,120
1,47,81,56
1,59,86,4
1,59,81,124
1,42,87,36
1,54,82,8
1,54,81,136
1,37,83,48
1,49,82,8
1,49,88,120
1,38,84,80
1,50,85,4
1,50,87,128
1,54,86,48
1,57,82,12
1,50,82,124
1,45,83,32
1,57,83,8
1,57,87,140
1,40,85,52
1,52,85,8
1,52,82,140
1,40,82,80
1,52,86,8
1,52,81,208
1,40,90,56
1,52,87,4
1,52,82,156
1,47,83,88
1,57,81,36
1,59,85,24
1,57,88,28
1,59,84,56
1,59,85,36
1,52,87,20
1,54,85,56
1,52,83,40
1,54,84,28
1,52,88,24
1,54,84,56
1,54,81,32
1,54,87,32
1,45,88,48
1,45,82,40
1,45,84,24
1,45,87,28
1,45,82,52
1,62,121,3108
1,50,118,0
1,61,122,236
1,49,108,0
1,50,100,72
1,62,112,0
1,61,116,148
1,49,111,4
1,59,117,72
1,47,106,4
1,57,119,40
1,45,111,8
1,57,114,124
1,45,99,0
1,59,123,44
1,47,110,4
1,52,111,88
1,40,101,0
1,52,101,28
1,64,119,4
1,52,108,104
1,64,121,4
1,64,114,108
1,52,104,4
1,56,107,380
1,68,124,0
1,62,123,352
1,50,113,4
1,49,106,220
1,61,116,4
1,50,98,72
1,62,118,4
1,61,116,148
1,49,111,4
1,47,105,72
1,59,120,4
1,45,113,40
1,57,119,4
1,45,102,132
1,57,114,0
1,47,115,40
1,59,118,8
1,52,112,84
1,40,96,0
1,64,117,28
1,52,103,0
1,64,123,112
1,52,105,0
1,52,101,104
1,64,114,4
1,45,95,1148
1,57,97,0
1,45,87,28
1,57,97,16
1,45,80,192
1,57,93,8
1,45,87,20
1,57,91,4
1,45,85,12
1,57,98,12
1,45,80,12
1,57,98,4
1,45,75,4
1,57,103,192
1,45,82,8
1,57,97,4
1,40,83,76
1,52,71,8
1,40,83,12
1,52,94,8
1,40,84,24
1,52,98,192
1,40,82,20
1,52,92,192
1,40,84,20
1,52,98,192
1,40,78,24
1,52,96,4
1,40,82,32
1,52,95,192
1,40,78,52
1,52,96,20
1,45,91,80
1,57,94,0
1,45,84,28
1,57,98,24
1,45,83,52
1,57,97,8
1,45,81,20
1,57,94,8
1,45,85,20
1,57,99,12
1,45,78,12
1,57,100,32
1,45,77,4
1,57,107,24
1,45,81,16
1,57,98,36
1,40,77,76
1,52,76,8
1,40,82,44
1,52,98,8
1,40,85,28
1,52,102,192
1,40,86,36
1,52,98,192
1,40,81,32
1,52,99,192
1,40,78,24
1,52,94,28
1,40,82,32
1,52,98,24
1,40,78,52
1,52,92,20
1,45,91,80
1,57,99,0
1,45,84,28
1,57,98,16
1,45,81,192
1,57,92,8
1,45,87,20
1,57,96,4
1,45,87,12
1,57,98,12
1,45,78,12
1,57,94,4
1,45,81,4
1,57,101,192
1,45,84,8
1,57,97,4
1,40,82,76
1,52,71,8
1,40,84,12
1,52,94,8
1,40,88,24
1,52,96,192
1,40,85,20
1,52,95,192
1,40,81,20
1,52,98,192
1,40,80,24
1,52,99,4
1,40,84,32
1,52,92,192
1,40,82,52
1,52,95,20
1,45,94,80
1,57,94,0
1,45,87,28
1,57,97,16
1,45,82,192
1,57,94,8
1,45,87,20
1,57,97,4
1,45,85,12
1,57,97,12
1,45,82,12
1,57,94,4
1,45,81,4
1,57,103,192
1,45,81,8
1,57,96,4
1,40,82,76
1,52,74,8
1,40,80,12
1,52,96,8
1,40,87,24
1,52,98,192
1,40,87,20
1,52,92,192
1,40,83,20
1,52,97,192
1,40,85,24
1,52,95,4
1,40,81,32
1,52,94,192
1,40,81,52
1,52,97,20
1,45,80,80
1,57,82,8
1,57,85,176
1,40,87,32
1,52,88,8
1,52,82,144
1,40,84,84
1,52,86,4
1,52,84,128
1,47,82,52
1,59,85,4
1,59,81,128
1,42,83,28
1,54,86,12
1,54,84,136
1,37,86,44
1,49,81,8
1,49,88,120
1,38,83,84
1,50,84,4
1,50,85,120
1,54,83,56
1,57,82,4
1,50,85,132
1,45,82,28
1,57,81,4
1,57,81,140
1,40,85,48
1,52,83,8
1,52,84,136
1,40,84,84
1,52,87,4
1,52,82,208
