track,note,velocity,time
0,57,125,977
0,65,125,0
0,57,113,0
0,62,121,0
0,65,108,0
0,35,125,0
0,42,113,0
0,57,65,0
0,62,61,0
0,65,72,0
0,50,101,0
0,57,120,49
0,65,120,0
0,57,112,13
0,62,120,0
0,65,113,0
0,42,89,0
0,57,124,60
0,65,125,0
0,57,113,12
0,62,121,0
0,65,109,0
0,37,117,0
0,42,116,0
0,45,97,0
0,57,125,63
0,64,125,0
0,57,116,1
0,62,125,0
0,64,121,0
0,42,88,0
0,64,68,0
0,57,121,67
0,62,120,0
0,64,121,0
0,35,125,0
0,42,112,0
0,50,92,0
0,57,125,63
0,62,124,0
0,64,125,0
0,42,85,0
0,57,121,64
0,62,120,0
0,64,120,0
0,37,121,0
0,42,113,0
0,75,113,0
0,45,92,0
0,57,121,73
0,62,125,0
0,64,120,0
0,42,105,0
0,55,121,1
0,60,124,0
0,63,121,0
0,35,124,0
0,42,113,0
0,55,68,0
0,60,61,0
0,63,73,0
0,48,92,0
0,55,115,0
0,63,110,0
0,55,120,53
0,60,121,0
0,63,120,0
0,42,88,0
0,55,121,0
0,63,121,0
0,55,125,63
0,63,124,0
0,55,120,2
0,60,124,0
0,63,120,0
0,37,116,0
0,42,117,0
0,43,93,0
0,55,125,65
0,62,125,0
0,55,125,1
0,60,124,0
0,62,124,0
0,42,89,0
0,62,69,0
0,55,125,67
0,60,121,0
0,62,124,0
0,35,124,0
0,42,113,0
0,48,93,0
0,55,124,67
0,60,124,0
0,62,125,0
0,42,84,0
0,55,125,68
0,60,124,0
0,62,124,0
0,37,120,0
0,42,113,0
0,75,113,0
0,43,93,0
0,55,125,6
0,60,124,0
0,62,124,0
0,42,105,0
0,50,84,1
0,55,124,1
0,59,124,0
0,62,120,0
0,35,124,0
0,42,112,0
0,59,57,0
0,50,89,0
0,59,49,2
0,60,55,63
0,55,120,2
0,59,124,0
0,62,124,0
0,42,89,0
0,55,121,64
0,59,125,0
0,62,125,0
0,37,116,0
0,42,117,0
0,43,88,0
0,59,76,0
0,60,94,57
0,55,120,7
0,59,124,0
0,62,124,0
0,42,88,0
0,55,125,64
0,59,124,0
0,62,124,0
0,35,125,0
0,42,112,0
0,50,89,0
0,59,115,0
0,55,121,65
0,59,125,0
0,62,120,0
0,42,85,0
0,60,119,1
0,59,120,62
0,55,120,0
0,59,124,0
0,62,125,0
0,37,121,0
0,42,113,0
0,75,112,0
0,43,89,0
0,60,127,56
0,55,120,2
0,59,121,0
0,62,124,0
0,42,104,0
0,55,124,1
0,58,120,0
0,63,120,0
0,35,125,0
0,42,113,0
0,58,72,0
0,63,57,0
0,51,93,0
0,51,72,2
0,58,75,0
0,60,76,62
0,55,120,1
0,58,124,0
0,63,116,0
0,42,88,0
0,55,120,68
0,58,125,0
0,63,120,0
0,37,117,0
0,42,117,0
0,43,92,0
0,58,107,0
0,60,102,60
0,55,116,0
0,58,124,0
0,63,121,0
0,42,88,0
0,55,121,68
0,58,124,0
0,63,120,0
0,35,125,0
0,42,113,0
0,51,93,0
0,58,114,0
0,55,121,70
0,58,125,0
0,63,121,0
0,42,84,0
0,60,118,1
0,58,120,69
0,55,120,0
0,58,124,0
0,63,116,0
0,37,121,0
0,42,112,0
0,75,108,0
0,43,97,0
0,60,115,63
0,55,120,7
0,58,124,0
0,63,120,0
0,38,105,0
0,48,96,65
0,55,124,1
0,60,124,0
0,63,124,0
0,35,125,0
0,42,112,0
0,60,61,0
0,48,88,0
0,57,74,2
0,58,77,66
0,55,124,2
0,60,125,0
0,63,125,0
0,42,88,0
0,55,124,62
0,60,125,0
0,63,124,0
0,37,117,0
0,42,117,0
0,43,93,0
0,57,107,0
0,58,102,59
0,55,120,7
0,60,125,0
0,63,125,0
0,42,88,0
0,55,121,67
0,60,121,0
0,63,121,0
0,35,124,0
0,42,112,0
0,48,89,0
0,57,114,0
0,55,121,68
0,60,120,0
0,63,121,0
0,42,85,0
0,58,118,1
0,57,121,67
0,55,116,0
0,60,125,0
0,63,125,0
0,37,120,0
0,42,113,0
0,75,112,0
0,43,92,0
0,58,115,59
0,55,124,7
0,60,124,0
0,63,125,0
0,42,104,0
0,47,88,54
0,55,124,1
0,55,121,1
0,59,124,0
0,62,117,0
0,35,125,0
0,42,112,0
0,59,49,0
0,62,64,0
0,50,88,0
0,55,112,68
0,59,104,0
0,62,117,0
0,42,88,0
0,55,113,63
0,59,109,0
0,62,120,0
0,37,117,0
0,42,117,0
0,43,89,0
0,67,125,5
0,55,116,40
0,59,121,0
0,62,121,0
0,42,89,0
0,55,117,68
0,59,121,0
0,62,116,0
0,35,125,0
0,42,112,0
0,50,93,0
0,55,112,62
0,59,117,0
0,62,113,0
0,42,84,0
0,55,113,63
0,59,112,0
0,62,108,0
0,37,121,0
0,42,113,0
0,75,109,0
0,43,88,0
0,55,121,14
0,59,116,0
0,62,117,0
0,42,104,0
0,58,116,6
0,67,116,0
0,55,121,1
0,58,121,0
0,63,121,0
0,35,125,0
0,42,112,0
0,58,69,0
0,63,61,0
0,51,77,0
0,55,117,5
0,58,120,0
0,63,117,0
0,42,88,0
0,58,120,11
0,65,120,0
0,55,120,43
0,58,125,0
0,63,117,0
0,37,117,0
0,39,121,0
0,42,116,0
0,43,88,0
0,58,124,11
0,63,124,0
0,55,121,11
0,58,120,0
0,63,117,0
0,39,125,0
0,42,88,0
0,55,124,13
0,63,124,0
0,55,121,1
0,58,120,0
0,63,116,0
0,35,124,0
0,42,112,0
0,51,93,0
0,55,116,69
0,58,120,0
0,63,117,0
0,42,84,0
0,57,121,3
0,63,121,0
0,55,116,63
0,58,120,0
0,63,117,0
0,37,120,0
0,42,112,0
0,75,113,0
0,43,88,0
0,55,121,2
0,63,120,0
0,55,117,40
0,58,120,0
0,63,121,0
0,42,105,0
0,55,124,4
0,62,124,0
0,55,120,1
0,59,120,0
0,62,116,0
0,35,125,0
0,42,113,0
0,59,60,0
0,62,53,0
0,55,97,0
0,55,108,19
0,59,112,0
0,62,116,0
0,42,89,0
0,55,109,26
0,59,120,0
0,62,117,0
0,37,117,0
0,42,116,0
0,43,88,0
0,55,113,8
0,59,120,0
0,62,121,0
0,42,88,0
0,55,113,7
0,59,120,0
0,62,120,0
0,35,125,0
0,42,112,0
0,55,92,0
0,55,113,11
0,59,120,0
0,62,121,0
0,42,85,0
0,55,108,2
0,59,120,0
0,62,121,0
0,37,121,0
0,42,112,0
0,75,113,0
0,43,76,0
0,55,104,3
0,59,112,0
0,62,117,0
0,42,104,0
0,43,105,1
0,55,104,0
0,62,124,0
0,67,117,0
0,35,124,0
0,42,113,0
0,67,73,0
0,55,92,0
0,42,89,16
0,37,116,7
0,39,124,0
0,42,116,0
0,43,81,0
0,39,124,4
0,42,88,0
0,35,125,2
0,42,112,0
0,55,92,0
0,42,85,14
0,37,121,1
0,42,112,0
0,75,113,0
0,43,88,0
0,42,105,35
0,74,121,86
0,35,125,0
0,42,112,0
0,50,60,0
0,57,60,0
0,62,61,0
0,65,61,0
0,50,105,0
0,69,61,0
0,74,61,0
0,77,60,0
0,74,125,10
0,42,88,85
0,77,109,1
0,37,117,5
0,42,116,0
0,45,101,0
0,42,88,9
0,76,120,1
0,69,124,9
0,35,124,4
0,42,112,0
0,50,104,0
0,74,120,1
0,42,84,0
0,37,120,0
0,42,112,0
0,75,112,0
0,45,100,0
0,74,124,3
0,42,104,20
0,35,124,1
0,42,113,0
0,48,60,0
0,55,61,0
0,60,60,0
0,63,71,0
0,48,100,0
0,67,60,0
0,72,60,0
0,75,61,0
0,72,121,2
0,42,88,5
0,72,120,5
0,37,116,24
0,42,116,0
0,43,109,0
0,75,117,1
0,42,88,2
0,67,121,0
0,74,121,1
0,35,125,12
0,42,113,0
0,48,101,0
0,42,85,2
0,72,124,21
0,37,121,4
0,42,112,0
0,75,113,0
0,43,100,0
0,42,104,4
0,71,120,34
0,71,113,0
0,35,125,1
0,42,113,0
0,50,60,0
0,59,57,0
0,62,58,0
0,50,100,0
0,71,61,0
0,74,61,0
0,42,89,15
0,72,109,1
0,37,117,20
0,42,117,0
0,43,93,0
0,71,100,10
0,42,88,11
0,67,120,2
0,35,124,4
0,42,112,0
0,50,96,0
0,72,101,17
0,42,84,9
0,71,97,1
0,71,125,6
0,37,120,2
0,42,112,0
0,75,109,0
0,43,92,0
0,72,93,1
0,42,104,8
0,70,124,3
0,35,125,1
0,42,112,0
0,51,60,0
0,58,70,0
0,63,70,0
0,51,100,0
0,70,61,0
0,75,60,0
0,70,104,5
0,42,88,8
0,72,101,1
0,37,117,26
0,42,116,0
0,43,92,0
0,72,105,0
0,70,101,4
0,42,88,0
0,35,124,7
0,42,112,0
0,51,100,0
0,72,96,1
0,42,85,10
0,70,93,1
0,37,120,29
0,42,113,0
0,75,109,0
0,43,96,0
0,72,89,1
0,42,104,3
0,35,125,1
0,42,113,0
0,48,65,0
0,60,70,0
0,48,96,0
0,72,61,0
0,69,100,1
0,42,88,5
0,70,104,1
0,37,117,55
0,42,116,0
0,43,92,0
0,69,93,16
0,42,89,29
0,70,113,10
0,35,124,8
0,42,113,0
0,48,97,0
0,42,85,24
0,69,104,16
0,37,120,67
0,42,113,0
0,75,108,0
0,43,97,0
0,70,105,40
0,42,105,25
0,35,125,0
0,42,113,0
0,47,70,0
0,59,61,0
0,62,61,0
0,67,60,0
0,47,101,0
0,71,61,0
0,74,61,0
0,79,60,0
0,67,104,0
0,42,88,18
0,37,117,95
0,42,117,0
0,43,96,0
0,79,113,1
0,42,88,85
0,35,124,80
0,42,113,0
0,47,96,0
0,42,85,95
0,37,120,86
0,42,112,0
0,75,113,0
0,43,96,0
0,38,105,95
0,35,124,1
0,42,112,0
0,46,64,0
0,58,70,0
0,63,71,0
0,46,109,0
0,70,61,0
0,75,61,0
0,79,104,0
0,42,89,5
0,77,105,1
0,37,116,55
0,39,120,0
0,42,117,0
0,43,92,0
0,75,92,2
0,42,88,32
0,67,100,1
0,35,124,8
0,42,113,0
0,46,104,0
0,42,84,95
0,69,96,1
0,37,120,57
0,42,112,0
0,75,105,0
0,43,93,0
0,67,100,1
0,42,105,3
0,55,120,90
0,35,124,1
0,42,113,0
0,43,61,0
0,59,60,0
0,62,60,0
0,55,101,0
0,71,60,0
0,74,61,0
0,42,89,5
0,67,124,3
0,37,116,2
0,39,125,0
0,42,116,0
0,43,88,0
0,39,125,51
0,42,88,0
0,35,125,76
0,42,113,0
0,55,100,0
0,42,85,6
0,37,121,12
0,42,113,0
0,75,108,0
0,43,92,0
0,42,105,11
0,67,120,11
0,35,124,1
0,42,112,0
0,51,61,0
0,58,70,0
0,63,70,0
0,51,101,0
0,70,61,0
0,75,60,0
0,42,88,8
0,65,116,5
0,37,116,23
0,42,117,0
0,43,88,0
0,63,120,82
0,42,89,13
0,35,124,33
0,42,113,0
0,51,93,0
0,55,120,2
0,42,84,8
0,57,120,2
0,37,120,12
0,42,112,0
0,75,109,0
0,43,88,0
0,42,105,55
0,55,124,4
0,35,125,1
0,42,112,0
0,43,60,0
0,59,60,0
0,62,60,0
0,55,96,0
0,71,60,0
0,74,61,0
0,55,105,4
0,42,89,10
0,37,117,1
0,42,117,0
0,43,96,0
0,42,89,12
0,35,125,19
0,42,113,0
0,55,96,0
0,42,85,5
0,37,121,4
0,42,112,0
0,42,105,4
0,35,124,1
0,42,112,0
0,42,89,9
0,37,116,2
0,39,125,0
0,42,117,0
0,42,89,5
0,35,124,1
0,42,112,0
0,42,85,7
0,37,120,17
0,42,113,0
0,38,104,22
0,57,112,8
0,62,121,0
0,65,108,0
0,74,113,1
0,35,124,0
0,42,112,0
0,50,60,0
0,57,60,0
0,62,60,0
0,65,61,0
0,50,108,0
0,69,61,0
0,74,60,0
0,77,61,0
0,57,112,71
0,62,120,0
0,65,112,0
0,42,88,3
0,77,108,1
0,57,112,1
0,62,120,0
0,65,109,0
0,37,116,3
0,42,116,0
0,45,104,0
0,57,117,74
0,62,124,0
0,65,120,0
0,42,88,3
0,76,112,1
0,57,121,67
0,62,121,0
0,65,121,0
0,35,125,3
0,42,113,0
0,50,108,0
0,57,125,63
0,62,125,0
0,65,125,0
0,42,84,3
0,74,109,1
0,57,120,64
0,62,121,0
0,65,120,0
0,37,121,3
0,42,112,0
0,75,109,0
0,45,104,0
0,57,121,73
0,62,125,0
0,65,121,0
0,42,105,3
0,55,120,65
0,60,125,0
0,63,121,0
0,35,125,1
0,42,113,0
0,48,61,0
0,55,61,0
0,60,60,0
0,63,70,0
0,48,101,0
0,67,60,0
0,72,61,0
0,75,60,0
0,55,121,64
0,60,121,0
0,63,120,0
0,42,88,3
0,72,105,1
0,55,120,69
0,60,125,0
0,63,121,0
0,37,117,3
0,42,117,0
0,43,104,0
0,75,104,8
0,55,125,33
0,60,124,0
0,63,124,0
0,42,88,2
0,74,108,13
0,55,125,2
0,60,121,0
0,63,125,0
0,35,124,3
0,42,112,0
0,48,100,0
0,55,125,8
0,60,124,0
0,63,124,0
0,42,84,3
0,72,100,1
0,55,124,49
0,60,125,0
0,63,125,0
0,37,120,3
0,42,112,0
0,75,108,0
0,43,100,0
0,55,125,3
0,60,125,0
0,63,124,0
0,42,104,3
0,55,125,36
0,59,125,0
0,62,121,0
0,35,124,1
0,42,112,0
0,50,60,0
0,59,57,0
0,62,58,0
0,50,93,0
0,71,61,0
0,74,60,0
0,71,113,14
0,55,120,65
0,59,125,0
0,62,125,0
0,42,89,2
0,72,93,1
0,55,120,35
0,59,125,0
0,62,125,0
0,37,116,3
0,42,116,0
0,43,93,0
0,55,120,64
0,59,124,0
0,62,125,0
0,42,89,3
0,71,96,1
0,55,125,64
0,59,124,0
0,62,125,0
0,35,125,3
0,42,113,0
0,50,104,0
0,69,92,1
0,55,120,1
0,59,125,0
0,62,120,0
0,42,84,3
0,55,121,62
0,59,124,0
0,62,124,0
0,37,121,3
0,42,113,0
0,75,104,0
0,43,96,0
0,67,93,1
0,55,120,43
0,59,120,0
0,62,125,0
0,42,105,3
0,55,124,66
0,58,120,0
0,63,121,0
0,35,124,0
0,42,112,0
0,51,60,0
0,58,71,0
0,63,71,0
0,51,101,0
0,70,60,0
0,75,60,0
0,70,112,0
0,55,121,9
0,58,124,0
0,63,116,0
0,42,88,3
0,69,88,1
0,55,120,54
0,58,125,0
0,63,121,0
0,37,116,3
0,42,117,0
0,43,97,0
0,70,104,1
0,55,116,15
0,58,124,0
0,63,121,0
0,42,88,3
0,55,120,68
0,58,124,0
0,63,120,0
0,35,124,3
0,42,113,0
0,51,97,0
0,69,108,1
0,55,120,7
0,58,124,0
0,63,120,0
0,42,84,3
0,55,120,69
0,58,124,0
0,63,117,0
0,37,120,3
0,42,112,0
0,75,101,0
0,43,96,0
0,67,102,1
0,55,121,3
0,58,125,0
0,63,120,0
0,42,105,3
0,55,120,15
0,55,120,2
0,59,124,0
0,62,117,0
0,35,124,1
0,42,112,0
0,43,60,0
0,59,60,0
0,62,60,0
0,67,61,0
0,55,104,0
0,71,60,0
0,74,61,0
0,79,60,0
0,67,102,10
0,55,112,6
0,59,104,0
0,62,117,0
0,42,88,3
0,55,113,2
0,59,108,0
0,62,120,0
0,67,124,1
0,37,116,2
0,42,117,0
0,43,88,0
0,55,116,48
0,59,121,0
0,62,120,0
0,42,89,3
0,55,117,68
0,59,120,0
0,62,116,0
0,35,124,3
0,42,112,0
0,55,108,0
0,55,112,1
0,59,116,0
0,62,112,0
0,42,84,3
0,55,112,9
0,59,112,0
0,62,108,0
0,37,120,3
0,42,113,0
0,75,109,0
0,43,84,0
0,55,121,8
0,59,116,0
0,62,116,0
0,42,104,3
0,67,120,11
0,55,120,6
0,58,121,0
0,63,121,0
0,35,124,1
0,42,113,0
0,46,60,0
0,58,71,0
0,63,70,0
0,58,88,0
0,70,60,0
0,75,61,0
0,55,116,9
0,58,120,0
0,63,117,0
0,42,88,3
0,65,117,5
0,55,121,20
0,58,125,0
0,63,116,0
