track,note,velocity,time
0,69,87,0
0,57,51,0
0,61,58,0
0,71,86,0
0,73,87,0
0,74,87,0
0,52,49,0
0,69,53,0
0,73,62,0
0,76,59,0
0,76,86,0
0,78,87,0
0,80,86,0
0,81,86,0
0,57,48,0
0,61,58,0
0,80,87,0
0,78,87,0
0,76,86,0
0,52,49,0
0,74,86,0
0,73,87,0
0,71,87,0
0,69,76,0
0,57,47,0
0,61,48,0
0,69,48,0
0,73,59,0
0,76,53,0
0,52,48,60
0,57,44,60
0,61,49,0
0,52,44,60
0,69,55,0
0,73,65,0
0,76,58,0
0,69,86,0
0,57,41,0
0,61,48,0
0,71,87,0
0,73,86,0
0,74,87,0
0,52,40,0
0,69,53,0
0,73,63,0
0,76,58,0
0,76,87,0
0,78,86,0
0,80,87,0
0,81,86,0
0,57,38,0
0,61,43,0
0,80,86,0
0,78,87,0
0,76,87,0
0,52,47,0
0,74,86,0
0,73,86,0
0,71,87,0
0,69,77,0
0,57,40,0
0,61,50,0
0,69,49,0
0,73,58,0
0,76,53,0
0,52,45,60
0,57,42,60
0,61,45,0
0,52,48,60
0,69,54,0
0,73,65,0
0,76,59,0
0,69,91,0
0,42,71,0
0,47,85,0
0,57,50,0
0,61,58,0
0,64,51,0
0,69,91,0
0,47,76,0
0,47,67,60
0,52,49,0
0,69,52,0
0,73,62,0
0,76,59,0
0,64,76,38
0,57,48,0
0,61,59,0
0,64,49,0
0,64,76,0
0,45,71,60
0,52,48,0
0,61,87,3
0,35,101,0
0,57,47,0
0,61,48,0
0,64,46,0
0,69,49,0
0,73,59,0
0,76,52,0
0,61,87,0
0,46,101,0
0,52,48,0
0,57,83,38
0,37,101,0
0,42,100,0
0,57,45,0
0,61,49,0
0,64,44,0
0,57,83,0
0,52,44,60
0,69,55,0
0,73,64,0
0,76,59,0
0,69,88,38
0,47,85,0
0,57,41,0
0,62,48,0
0,65,61,0
0,69,88,0
0,47,76,60
0,47,67,60
0,53,40,0
0,69,52,0
0,74,63,0
0,77,59,0
0,65,81,38
0,57,38,0
0,62,42,0
0,65,59,0
0,65,81,0
0,45,70,60
0,53,47,0
0,62,84,38
0,35,100,0
0,57,40,0
0,62,50,0
0,65,61,0
0,69,48,0
0,74,59,0
0,77,53,0
0,62,84,0
0,46,100,0
0,53,44,0
0,57,80,38
0,37,100,0
0,42,101,0
0,57,43,0
0,62,44,0
0,65,62,0
0,57,80,0
0,46,101,60
0,53,49,0
0,69,55,0
0,74,64,0
0,77,58,0
0,69,91,38
0,42,71,0
0,47,84,0
0,57,51,0
0,61,59,0
0,64,50,0
0,69,91,0
0,47,76,0
0,47,67,60
0,52,48,0
0,69,53,0
0,73,62,0
0,76,59,0
0,64,85,38
0,57,49,0
0,61,58,0
0,64,49,0
0,64,85,0
0,45,71,60
0,52,48,0
0,61,80,38
0,35,101,0
0,57,46,0
0,61,49,0
0,64,47,0
0,69,48,0
0,73,58,0
0,76,53,0
0,61,80,0
0,46,101,0
0,52,49,0
0,57,80,38
0,37,101,0
0,42,100,0
0,57,44,0
0,61,48,0
0,64,45,0
0,57,80,0
0,52,44,60
0,69,55,0
0,73,65,0
0,76,58,0
0,69,91,38
0,47,85,0
0,57,41,0
0,62,48,0
0,66,60,0
0,69,91,0
0,47,76,60
0,47,66,0
0,54,41,0
0,69,53,0
0,74,62,0
0,78,58,0
0,66,81,38
0,57,39,0
0,62,43,0
0,66,58,0
0,66,81,0
0,45,71,60
0,54,66,0
0,68,78,0
0,35,101,0
0,56,47,0
0,59,40,0
0,64,49,0
0,68,61,0
0,68,78,0
0,46,100,0
0,56,40,0
0,71,53,0
0,76,62,0
0,80,58,0
0,64,82,38
0,37,101,0
0,42,101,0
0,59,39,0
0,64,43,0
0,68,58,0
0,64,82,0
0,46,101,60
0,56,58,0
0,66,89,0
0,42,70,0
0,47,85,0
0,66,51,0
0,69,59,0
0,66,89,0
0,47,77,60
0,47,66,60
0,61,48,0
0,73,52,0
0,78,63,0
0,81,58,0
0,61,80,38
0,66,49,0
0,69,59,0
0,61,80,0
0,45,70,60
0,61,48,0
0,57,81,38
0,35,100,0
0,66,47,0
0,69,48,0
0,73,48,0
0,78,59,0
0,81,53,0
0,57,81,0
0,46,100,0
0,61,48,0
0,54,87,38
0,37,100,0
0,42,100,0
0,66,44,0
0,69,49,0
0,54,87,0
0,61,45,60
0,73,54,0
0,78,64,0
0,81,59,0
0,62,88,0
0,47,84,0
0,57,40,0
0,62,49,0
0,66,61,0
0,62,88,0
0,47,77,60
0,47,66,60
0,54,40,0
0,69,53,0
0,74,62,0
0,78,58,0
0,50,83,38
0,57,39,0
0,62,43,0
0,66,58,0
0,50,83,0
0,45,71,60
0,54,66,0
0,54,86,0
0,35,101,0
0,62,47,0
0,66,49,0
0,69,48,0
0,74,58,0
0,78,53,0
0,54,86,0
0,46,100,0
0,57,48,0
0,57,84,38
0,37,101,0
0,42,101,0
0,62,45,0
0,66,49,0
0,57,84,0
0,46,101,60
0,57,44,0
0,69,55,0
0,74,64,0
0,78,58,0
0,59,93,0
0,42,71,0
0,47,85,0
0,57,51,0
0,59,59,0
0,59,93,0
0,47,77,60
0,47,66,0
0,52,48,0
0,69,52,0
0,71,63,0
0,76,59,0
0,52,83,38
0,57,48,0
0,59,58,0
0,52,83,0
0,45,70,60
0,52,49,0
0,56,84,38
0,35,100,0
0,56,46,0
0,59,49,0
0,68,49,0
0,71,58,0
0,76,53,0
0,56,84,0
0,46,101,0
0,52,48,0
0,59,86,38
0,37,100,0
0,42,100,0
0,56,44,0
0,59,49,0
0,59,86,0
0,52,45,60
0,68,54,0
0,71,64,0
0,76,59,0
0,57,83,5
0,47,85,0
0,57,41,0
0,59,48,0
0,52,83,0
0,47,76,5
0,47,66,0
0,52,40,0
0,69,53,0
0,71,62,0
0,76,59,0
0,57,39,10
0,59,42,0
0,45,70,60
0,52,47,0
0,56,83,0
0,35,100,0
0,56,40,0
0,59,50,0
0,68,49,0
0,71,59,0
0,76,52,0
0,46,100,0
0,52,44,0
0,69,105,60
0,37,100,0
0,42,100,0
0,56,43,0
0,59,45,0
0,46,100,60
0,52,48,0
0,68,54,0
0,71,65,0
0,76,58,0
0,71,104,0
0,42,71,0
0,47,85,0
0,45,85,0
0,47,77,0
0,45,89,19
0,47,66,0
0,49,80,0
0,45,88,38
0,45,97,19
0,40,101,0
0,52,76,0
0,45,91,19
0,69,105,0
0,45,71,0
0,49,77,0
0,45,90,38
0,35,111,0
0,45,82,0
0,45,89,0
0,46,101,0
0,49,81,0
0,45,88,10
0,45,96,19
0,37,101,0
0,40,100,0
0,42,101,0
0,52,85,0
0,33,89,38
0,33,97,19
0,49,76,0
0,69,105,19
0,47,84,0
0,50,81,0
0,47,77,60
0,45,88,19
0,67,104,0
0,47,67,0
0,53,82,0
0,45,88,19
0,67,105,0
0,45,97,19
0,40,101,0
0,57,80,0
0,65,104,0
0,45,91,19
0,65,104,0
0,45,71,0
0,53,81,0
0,45,90,38
0,35,111,0
0,50,85,0
0,45,88,0
0,64,105,0
0,46,101,0
0,53,84,0
0,45,89,25
0,45,96,19
0,64,105,0
0,37,101,0
0,40,101,0
0,42,100,0
0,57,76,0
0,33,89,38
0,33,97,19
0,62,104,0
0,46,100,0
0,53,77,0
0,65,104,0
0,42,70,13
0,47,84,0
0,45,85,0
0,47,76,60
0,45,88,19
0,47,67,0
0,49,80,0
0,45,89,38
0,45,96,19
0,40,100,0
0,52,76,0
0,45,90,0
0,61,105,0
0,45,70,0
0,49,77,0
0,45,91,38
0,35,110,0
0,45,82,0
0,45,89,0
0,46,100,0
0,49,81,0
0,45,88,25
0,45,96,19
0,37,100,0
0,40,101,0
0,42,101,0
0,52,85,0
0,33,89,38
0,33,97,19
0,73,105,0
0,49,76,0
0,74,104,19
0,47,84,0
0,50,81,0
0,47,77,60
0,38,88,0
0,73,104,0
0,47,67,0
0,54,82,0
0,38,88,19
0,73,105,0
0,38,97,19
0,40,100,0
0,57,80,0
0,71,104,0
0,38,88,19
0,74,105,0
0,45,70,0
0,54,81,0
0,38,97,38
0,35,110,0
0,52,85,0
0,40,89,0
0,73,105,0
0,46,101,0
0,56,84,0
0,40,88,15
0,40,97,19
0,73,104,0
0,37,100,0
0,40,100,0
0,42,100,0
0,59,76,0
0,40,88,38
0,40,96,19
0,71,105,0
0,46,100,0
0,56,77,0
0,73,104,0
0,42,71,13
0,47,84,0
0,42,95,0
0,47,77,60
0,42,89,19
0,47,66,0
0,45,90,0
0,42,89,38
0,42,96,19
0,40,101,0
0,49,86,0
0,42,88,0
0,69,104,0
0,45,71,0
0,45,87,0
0,42,97,10
0,35,111,0
0,42,92,0
0,42,89,0
0,46,101,0
0,45,91,0
0,42,88,0
0,42,96,19
0,37,101,0
0,40,101,0
0,42,101,0
0,49,95,0
0,42,89,38
0,42,96,19
0,73,105,0
0,45,86,0
0,74,105,19
0,47,84,0
0,50,81,0
0,47,77,60
0,38,89,19
0,73,104,0
0,47,67,0
0,54,82,0
0,38,89,38
0,38,96,19
0,73,104,0
0,40,100,0
0,57,80,0
0,38,89,19
0,71,105,0
0,45,71,0
0,54,81,0
0,38,96,19
0,71,105,0
0,35,111,0
0,50,85,0
0,50,82,0
0,69,104,0
0,46,101,0
0,54,84,0
0,50,83,5
0,50,85,19
0,68,104,0
0,37,101,0
0,40,100,0
0,42,100,0
0,57,76,0
0,38,88,38
0,38,96,19
0,69,105,0
0,46,100,0
0,54,77,0
0,71,104,13
0,42,71,0
0,47,84,0
0,52,81,0
0,47,76,60
0,40,89,0
0,47,67,0
0,57,82,0
0,40,89,20
0,40,96,19
0,40,101,0
0,59,80,0
0,40,88,19
0,45,70,0
0,57,81,0
0,40,97,4
0,35,110,0
0,52,84,0
0,52,82,0
0,46,101,0
0,56,85,0
0,52,83,0
0,52,85,14
0,37,100,0
0,40,101,0
0,42,100,0
0,59,77,0
0,40,98,38
0,28,109,19
0,56,76,0
0,47,85,13
0,52,81,0
0,47,76,60
0,52,84,0
0,47,66,0
0,57,82,0
0,52,80,20
0,52,91,19
0,40,100,0
0,59,80,0
0,52,79,19
0,45,70,0
0,57,81,0
0,52,88,38
0,35,110,0
0,52,85,0
0,52,82,0
0,46,100,0
0,56,84,0
0,52,83,25
0,52,85,19
0,37,100,0
0,40,100,0
0,42,100,0
0,59,76,0
0,40,102,38
0,28,110,19
0,69,105,0
0,46,100,0
0,56,77,0
0,71,105,0
0,42,71,0
0,47,85,0
0,45,85,0
0,47,76,60
0,45,89,19
0,47,67,0
0,49,80,0
0,45,88,38
0,45,97,19
0,40,101,0
0,52,76,0
0,45,91,19
0,69,104,0
0,45,71,0
0,49,77,0
0,45,90,38
0,35,111,0
0,45,82,0
0,45,89,0
0,46,101,0
0,49,81,0
0,45,88,10
0,45,96,19
0,37,101,0
0,40,100,0
0,42,101,0
0,52,85,0
0,33,89,38
0,33,97,19
0,69,105,0
0,49,76,0
0,69,104,0
0,69,104,19
0,47,85,0
0,50,81,0
0,47,76,60
0,45,88,0
0,67,105,0
0,47,67,0
0,53,82,0
0,45,88,19
0,67,105,0
0,45,97,19
0,40,101,0
0,57,80,0
0,65,104,0
0,45,91,19
0,65,104,0
0,45,70,0
0,53,81,0
0,45,90,38
0,35,110,0
0,50,85,0
0,45,88,0
0,64,105,0
0,46,101,0
0,53,84,0
0,45,89,25
0,45,96,19
0,64,105,0
0,37,100,0
0,40,101,0
0,42,100,0
0,57,76,0
0,33,89,38
0,33,97,19
0,62,104,0
0,46,100,0
0,53,77,0
0,64,104,0
0,42,70,13
0,47,84,0
0,45,85,0
0,47,76,60
0,45,88,19
0,47,67,0
0,49,80,0
0,45,89,38
0,45,96,19
0,40,100,0
0,52,76,0
0,45,90,0
0,61,105,0
0,45,71,0
0,49,77,0
0,45,91,35
0,35,111,0
0,45,82,0
0,45,89,0
0,46,100,0
0,49,81,0
0,45,88,25
0,45,96,19
0,37,101,0
0,40,101,0
0,42,101,0
0,52,85,0
0,33,89,38
0,33,97,19
0,73,104,0
0,49,76,0
0,74,105,19
0,47,85,0
0,50,81,0
0,47,76,60
0,38,88,19
0,73,105,0
0,47,66,0
0,54,82,0
0,38,88,0
0,73,104,0
0,38,97,19
0,40,100,0
0,57,80,0
0,71,105,0
0,38,88,19
0,74,104,0
0,45,71,0
0,54,81,0
0,38,97,38
0,35,111,0
0,52,85,0
0,40,89,0
0,73,104,0
0,46,101,0
0,56,84,0
0,40,88,15
0,40,97,19
0,73,105,0
0,37,101,0
0,40,100,0
0,42,101,0
0,59,76,0
0,40,88,38
0,40,96,19
0,71,105,0
0,46,101,0
0,56,77,0
0,73,104,0
0,42,70,13
0,47,85,0
0,42,95,0
0,47,77,60
0,42,89,19
0,47,66,0
0,45,90,0
0,42,89,38
0,42,96,19
0,40,101,0
0,49,86,0
0,42,88,0
0,69,104,0
0,45,70,0
0,45,87,0
0,42,97,15
0,35,110,0
0,42,92,0
0,42,89,0
0,46,100,0
0,45,91,0
0,42,88,0
0,42,96,19
0,37,100,0
0,40,101,0
0,42,100,0
0,49,95,0
0,42,89,38
0,42,96,19
0,73,105,0
0,45,86,0
0,74,105,19
0,47,84,0
0,50,81,0
0,47,77,60
0,38,89,19
0,73,104,0
0,47,66,0
0,54,82,0
0,38,89,19
0,73,104,0
0,38,96,19
0,40,100,0
0,57,80,0
0,38,89,19
0,71,105,0
0,45,71,0
0,54,81,0
0,38,96,19
0,71,104,0
0,35,111,0
0,50,85,0
0,50,82,0
0,69,105,0
0,46,100,0
0,54,84,0
0,50,83,5
0,69,105,0
0,50,85,19
0,71,104,0
0,37,101,0
0,40,100,0
0,42,101,0
0,57,76,0
0,38,88,38
0,38,96,19
0,46,101,0
0,54,77,0
0,71,105,0
0,42,70,13
0,47,85,0
0,52,81,0
0,47,77,60
0,40,89,0
0,47,66,0
0,57,82,0
0,40,89,4
0,40,96,4
0,40,101,0
0,59,80,0
0,40,88,0
0,45,70,0
0,57,81,0
0,40,97,38
0,35,110,0
0,52,84,0
0,52,82,0
0,46,100,0
0,56,85,0
0,52,83,5
0,52,85,19
0,37,100,0
0,40,101,0
0,42,101,0
0,59,77,0
0,40,98,38
0,28,109,19
0,56,76,0
0,47,85,13
0,52,81,0
0,47,76,60
0,52,84,0
0,47,66,0
0,57,82,0
0,52,80,20
0,52,91,19
0,40,100,0
0,59,80,0
0,52,79,19
0,76,104,0
0,45,70,0
0,57,81,0
0,52,88,38
0,76,104,0
0,35,110,0
0,52,85,0
0,52,82,0
0,76,105,0
0,46,101,0
0,56,84,0
0,52,83,5
0,52,85,19
0,76,105,0
0,37,100,0
0,40,100,0
0,42,101,0
0,59,76,0
0,40,102,38
0,28,110,19
0,77,104,0
0,46,101,0
0,56,77,0
0,41,65,0
0,59,64,0
0,62,65,0
0,68,65,0
0,53,81,0
0,59,91,240
0,62,100,120
0,77,104,19
0,68,107,0
0,76,105,19
0,62,96,0
0,59,88,0
0,74,105,0
0,47,64,0
0,68,105,0
0,62,97,120
0,73,104,0
0,52,65,0
0,61,64,0
0,64,64,0
0,69,65,0
0,52,80,0
0,57,90,240
0,61,101,120
0,64,107,120
0,73,104,0
0,61,96,0
0,73,105,0
0,57,88,0
0,73,104,0
0,45,65,0
0,64,105,0
0,74,105,19
0,61,96,0
0,41,64,0
0,59,64,0
0,62,65,0
0,68,65,0
0,53,81,0
0,59,91,240
0,62,100,120
0,68,107,120
0,74,105,19
0,62,96,0
0,73,104,0
0,59,88,0
0,71,105,0
0,47,64,0
0,68,105,0
0,73,104,0
0,62,97,120
0,52,64,0
0,61,65,0
0,64,64,0
0,69,65,0
0,52,80,0
0,69,104,0
0,57,90,0
0,61,101,0
0,64,107,120
0,76,105,0
0,45,65,0
0,61,96,0
0,76,105,0
0,57,88,0
0,76,104,19
0,64,105,0
0,78,104,19
0,61,96,0
0,51,64,0
0,60,65,0
0,63,64,0
0,66,64,0
0,51,81,0
