track,note,velocity,time
1,81,93,0
1,81,0,59
1,74,82,1
1,74,0,59
1,79,89,1
1,79,0,59
1,86,91,1
1,86,0,59
1,81,89,1
1,81,0,59
1,74,77,1
1,74,0,59
1,79,86,1
1,79,0,59
1,74,91,1
1,74,0,59
1,81,103,1
1,81,0,59
1,74,85,1
1,74,0,59
1,79,85,1
1,79,0,59
1,86,77,1
1,86,0,59
1,81,103,1
1,81,0,59
1,74,78,1
1,74,0,59
1,79,89,1
1,79,0,59
1,74,77,1
1,74,0,59
1,81,93,1
1,81,0,59
1,74,83,1
1,74,0,59
1,79,100,1
1,79,0,59
1,86,98,1
1,86,0,59
1,81,100,1
1,81,0,59
1,74,93,1
1,74,0,59
1,79,106,1
1,79,0,59
1,74,89,1
1,74,0,59
1,81,100,1
1,81,0,59
1,74,91,1
1,74,0,59
1,79,86,1
1,79,0,59
1,86,100,1
1,86,0,59
1,81,98,1
1,81,0,59
1,74,86,1
1,74,0,59
1,79,98,1
1,79,0,59
1,74,85,1
1,74,0,59
1,67,69,1
1,59,78,0
1,62,85,0
1,62,0,239
1,59,0,0
1,67,0,0
1,67,62,1
1,71,98,0
1,74,85,0
1,74,0,79
1,74,98,1
1,74,0,79
1,74,89,1
1,74,0,79
1,71,0,0
1,67,0,0
1,71,75,1
1,74,53,0
1,67,61,0
1,67,0,59
1,74,0,0
1,71,0,0
1,74,82,1
1,74,0,59
1,67,82,61
1,67,0,59
1,71,96,1
1,74,80,0
1,71,83,0
1,71,0,79
1,74,0,0
1,72,100,1
1,72,0,79
1,71,96,1
1,71,0,79
1,71,0,0
1,64,71,1
1,71,89,0
1,67,68,0
1,67,0,59
1,71,0,0
1,64,0,0
1,72,89,1
1,72,0,119
1,72,82,1
1,67,69,0
1,64,72,0
1,64,0,179
1,67,0,0
1,72,0,0
1,69,83,1
1,69,0,119
1,67,80,1
1,64,85,0
1,64,0,119
1,67,0,0
1,69,75,1
1,69,0,59
1,71,100,1
1,71,0,59
1,72,93,1
1,72,0,59
1,71,100,1
1,71,0,59
1,69,83,1
1,69,0,59
1,67,85,1
1,67,0,59
1,69,73,1
1,64,72,0
1,60,77,0
1,60,0,59
1,64,0,0
1,69,0,0
1,71,100,1
1,71,0,119
1,64,75,1
1,71,82,0
1,60,50,0
1,60,0,179
1,71,0,0
1,64,0,0
1,69,80,1
1,69,0,119
1,69,77,1
1,60,83,0
1,45,85,0
1,60,0,59
1,69,0,0
1,62,83,1
1,62,0,59
1,67,89,1
1,67,0,59
1,64,91,1
1,64,0,59
1,45,0,0
1,64,80,1
1,71,78,0
1,60,71,0
1,60,0,119
1,71,0,0
1,64,0,0
1,69,80,1
1,69,0,59
1,67,80,1
1,67,0,59
1,69,72,1
1,67,73,0
1,62,75,0
1,62,0,119
1,67,0,0
1,69,0,0
1,71,93,1
1,71,0,59
1,67,68,1
1,71,96,0
1,71,0,119
1,67,0,0
1,67,80,1
1,67,0,59
1,69,85,1
1,69,0,59
1,62,83,1
1,62,0,59
1,72,98,1
1,72,0,59
1,69,91,1
1,69,0,59
1,71,93,61
1,71,0,59
1,67,83,1
1,62,63,0
1,62,0,59
1,67,0,0
1,69,82,61
1,69,0,59
1,62,78,61
1,59,83,0
1,43,98,0
1,59,0,179
1,62,0,0
1,67,82,1
1,67,0,59
1,43,0,0
1,71,86,1
1,67,69,0
1,74,85,0
1,55,89,0
1,74,0,79
1,74,85,1
1,74,0,79
1,74,93,1
1,74,0,79
1,71,0,0
1,67,0,0
1,55,0,0
1,76,85,1
1,67,68,0
1,71,91,0
1,43,93,0
1,71,0,119
1,76,0,0
1,67,0,0
1,74,89,1
1,74,0,59
1,72,93,1
1,72,0,59
1,43,0,0
1,67,68,1
1,71,85,0
1,74,64,0
1,55,89,0
1,74,0,119
1,67,0,0
1,71,0,0
1,72,96,1
1,72,0,59
1,71,106,1
1,71,0,59
1,55,0,0
1,64,75,1
1,71,85,0
1,67,71,0
1,48,89,0
1,67,0,59
1,64,0,0
1,71,0,0
1,72,91,1
1,72,0,119
1,72,78,1
1,67,73,0
1,64,77,0
1,48,0,59
1,60,85,1
1,72,0,59
1,64,0,0
1,67,0,0
1,67,80,1
1,67,0,59
1,69,85,1
1,69,0,119
1,60,0,0
1,67,73,1
1,64,73,0
1,48,80,0
1,48,0,119
1,60,82,1
1,64,0,59
1,67,0,0
1,67,73,1
1,67,0,59
1,60,0,0
1,64,78,1
1,72,98,0
1,48,80,0
1,72,0,59
1,71,100,1
1,71,0,59
1,48,0,0
1,69,91,1
1,47,98,0
1,69,0,59
1,67,83,1
1,67,0,59
1,47,0,0
1,64,0,0
1,64,80,1
1,69,69,0
1,60,78,0
1,45,93,0
1,60,0,59
1,64,0,0
1,69,0,0
1,71,96,1
1,71,0,119
1,64,80,1
1,71,82,0
1,60,66,0
1,45,0,59
1,57,91,1
1,64,0,59
1,60,0,0
1,71,0,0
1,67,83,1
1,67,0,59
1,69,83,1
1,69,0,119
1,57,0,0
1,69,83,1
1,60,86,0
1,45,89,0
1,60,0,59
1,69,0,0
1,62,83,1
1,62,0,59
1,64,93,1
1,64,0,59
1,67,91,1
1,67,0,59
1,45,0,0
1,64,106,1
1,72,96,0
1,57,83,0
1,72,0,59
1,71,100,1
1,71,0,59
1,69,83,1
1,69,0,59
1,67,85,1
1,67,0,59
1,57,0,0
1,64,0,0
1,71,86,1
1,62,67,0
1,67,68,0
1,50,91,0
1,67,0,179
1,71,0,0
1,62,0,0
1,69,83,1
1,69,0,59
1,50,0,0
1,67,73,1
1,69,80,0
1,62,80,0
1,69,0,59
1,67,0,0
1,67,85,1
1,67,0,59
1,69,80,1
1,69,0,59
1,62,0,0
1,62,86,1
1,62,0,59
1,72,72,1
1,50,80,0
1,72,0,59
1,69,86,1
1,69,0,59
1,62,83,1
1,62,0,59
1,71,96,1
1,71,0,59
1,50,0,0
1,67,93,1
1,62,80,0
1,62,0,59
1,67,0,0
1,62,80,1
1,62,0,59
1,69,83,1
1,69,0,59
1,62,78,1
1,62,0,59
1,60,66,1
1,55,78,0
1,36,93,0
1,55,0,119
1,60,0,0
1,72,96,1
1,72,0,59
1,64,85,1
1,67,83,0
1,72,85,0
1,36,0,59
1,48,77,1
1,72,0,59
1,71,96,1
1,71,0,59
1,72,83,1
1,72,0,59
1,71,100,1
1,71,0,59
1,48,0,0
1,67,0,0
1,64,0,0
1,67,67,1
1,64,68,0
1,74,70,0
1,74,0,119
1,64,0,0
1,67,0,0
1,71,91,1
1,64,72,0
1,67,72,0
1,67,0,119
1,64,0,0
1,71,0,0
1,64,77,121
1,69,82,0
1,69,0,59
1,64,0,0
1,67,85,1
1,67,0,59
1,69,70,1
1,74,82,0
1,64,78,0
1,64,0,119
1,74,0,0
1,69,0,0
1,64,73,1
1,71,75,0
1,60,62,0
1,60,0,119
1,71,0,0
1,64,0,0
1,71,100,61
1,71,0,59
1,69,77,1
1,60,77,0
1,60,0,59
1,69,0,0
1,67,78,1
1,67,0,59
1,72,72,1
1,69,68,0
1,76,80,0
1,76,0,119
1,69,0,0
1,72,0,0
1,74,96,1
1,74,0,59
1,64,75,1
1,71,70,0
1,60,62,0
1,60,0,179
1,71,0,0
1,64,0,0
1,69,83,1
1,62,58,0
1,62,0,59
1,69,0,0
1,67,86,1
1,67,0,59
1,60,83,1
1,55,78,0
1,55,0,119
1,60,0,0
1,71,93,61
1,71,0,59
1,72,98,1
1,64,78,0
1,67,72,0
1,72,0,59
1,71,91,1
1,71,0,59
1,72,103,1
1,72,0,59
1,71,100,1
1,71,0,59
1,67,0,0
1,64,0,0
1,67,69,1
1,74,64,0
1,64,68,0
1,64,0,119
1,74,0,0
1,67,0,0
1,64,71,1
1,67,72,0
1,71,91,0
1,71,0,119
1,67,0,0
1,64,0,0
1,67,82,181
1,67,0,59
1,76,77,1
1,66,53,0
1,69,83,0
1,69,0,119
1,66,0,0
1,76,0,0
1,74,85,1
1,74,0,59
1,66,68,1
1,74,68,0
1,69,85,0
1,69,0,119
1,74,0,0
1,66,0,0
1,66,70,1
1,74,67,0
1,69,89,0
1,69,0,119
1,74,0,0
1,66,0,0
1,66,60,1
1,74,71,0
1,69,85,0
1,69,0,59
1,74,0,0
1,66,0,0
1,84,69,1
1,72,66,0
1,72,0,119
1,84,0,0
1,83,77,1
1,71,67,0
1,71,0,119
1,83,0,0
1,78,82,1
1,90,78,0
1,90,0,119
1,78,0,0
1,83,86,1
1,71,78,0
1,71,0,119
1,83,0,0
1,66,66,1
1,76,75,0
1,69,89,0
1,69,0,119
1,76,0,0
1,66,0,0
1,66,47,1
1,74,86,0
1,69,83,0
1,69,0,119
1,74,0,0
1,66,0,0
1,79,75,1
1,69,62,0
1,74,65,0
1,74,0,59
1,69,0,0
1,79,0,0
1,74,65,1
1,69,68,0
1,79,69,0
1,79,0,119
1,69,0,0
1,74,0,0
1,69,65,1
1,74,80,0
1,79,72,0
1,79,0,59
1,74,0,0
1,69,0,0
1,72,70,1
1,84,82,0
1,84,0,119
1,72,0,0
1,83,83,1
1,71,72,0
1,71,0,119
1,83,0,0
1,86,62,1
1,74,62,0
1,74,0,119
1,86,0,0
1,83,69,1
1,71,68,0
1,71,0,119
1,83,0,0
1,74,78,1
1,71,75,0
1,79,66,0
1,79,0,239
1,71,0,0
1,74,0,0
1,71,91,1
1,67,77,0
1,62,57,0
1,62,0,119
1,67,0,0
1,71,0,0
1,74,75,1
1,71,86,0
1,67,63,0
1,67,0,119
1,71,0,0
1,74,0,0
1,79,71,1
1,71,78,0
1,74,75,0
1,74,0,239
1,71,0,0
1,79,0,0
1,78,71,1
1,69,64,0
1,74,75,0
1,74,0,239
1,69,0,0
1,78,0,0
1,67,66,1
1,72,80,0
1,76,68,0
1,76,0,479
1,72,0,0
1,67,0,0
1,72,77,121
1,67,60,0
1,76,66,0
1,76,0,59
1,67,0,0
1,72,0,0
1,74,89,1
1,74,0,59
1,76,71,1
1,72,60,0
1,67,72,0
1,67,0,119
1,72,0,0
1,76,0,0
1,74,83,1
1,74,0,59
1,71,80,1
1,67,62,0
1,74,68,0
1,74,0,299
1,67,0,0
1,71,0,0
1,71,75,1
1,67,68,0
1,74,68,0
1,74,0,179
1,67,0,0
1,71,0,0
1,71,91,1
1,71,0,59
1,66,65,1
1,69,70,0
1,62,68,0
1,62,0,239
1,69,0,0
1,66,0,0
1,66,60,81
1,74,70,0
1,69,86,0
1,69,0,79
1,74,0,0
1,66,0,0
1,66,59,1
1,74,80,0
1,69,85,0
1,69,0,79
1,74,0,0
1,66,0,0
1,67,73,1
1,76,60,0
1,64,68,0
1,64,0,79
1,76,0,0
1,67,0,0
1,74,68,1
1,64,64,0
1,67,78,0
1,67,0,79
1,64,0,0
1,74,0,0
1,74,68,1
1,67,78,0
1,64,75,0
1,64,0,79
1,67,0,0
1,74,0,0
1,76,80,1
1,64,64,0
1,67,75,0
1,67,0,79
1,64,0,0
1,76,0,0
1,67,86,1
1,67,0,79
1,67,63,1
1,60,69,0
1,64,85,0
1,64,0,319
1,60,0,0
1,67,0,0
1,72,68,1
1,76,63,0
1,67,64,0
1,67,0,119
1,76,0,0
1,72,0,0
1,69,58,1
1,78,71,0
1,74,93,0
1,74,0,119
1,78,0,0
1,69,0,0
1,74,82,1
1,79,69,0
1,71,78,0
1,71,0,239
1,79,0,0
1,74,0,0
1,71,93,1
1,67,71,0
1,62,48,0
1,62,0,119
1,67,0,0
1,71,0,0
1,71,78,1
1,67,66,0
1,74,62,0
1,74,0,119
1,67,0,0
1,71,0,0
1,79,72,1
1,71,73,0
1,74,75,0
1,74,0,239
1,71,0,0
1,79,0,0
1,81,69,1
1,78,70,0
1,74,57,0
1,74,0,239
1,78,0,0
1,81,0,0
1,72,70,1
1,76,68,0
1,67,62,0
1,67,0,119
1,76,0,0
1,72,0,0
1,74,93,1
1,74,0,59
1,72,83,1
1,67,71,0
1,64,72,0
1,64,0,299
1,67,0,0
1,72,0,0
1,74,85,61
1,74,0,59
1,67,66,1
1,76,67,0
1,72,85,0
1,72,0,59
1,76,0,0
1,67,0,0
1,74,91,1
1,74,0,59
1,76,67,1
1,67,67,0
1,72,78,0
1,72,0,59
1,67,0,0
1,76,0,0
1,74,91,1
1,74,0,119
1,67,68,1
1,71,96,0
1,74,66,0
1,74,0,299
1,71,0,0
1,67,0,0
1,71,91,1
1,67,62,0
1,74,66,0
1,74,0,179
1,67,0,0
1,71,0,0
1,71,106,1
1,71,0,59
1,69,71,1
1,66,78,0
1,62,77,0
1,62,0,239
1,66,0,0
1,69,0,0
1,74,86,61
1,74,0,59
1,74,80,1
1,66,53,0
1,69,86,0
1,69,0,59
1,66,0,0
1,74,0,0
1,74,85,1
1,74,0,59
1,76,72,1
1,67,72,0
1,64,66,0
1,64,0,79
1,67,0,0
1,76,0,0
1,74,68,1
1,64,61,0
1,67,78,0
1,67,0,79
1,64,0,0
1,74,0,0
1,74,67,1
1,67,80,0
1,64,70,0
1,64,0,79
1,67,0,0
1,74,0,0
1,76,69,1
1,67,72,0
1,64,62,0
1,64,0,59
1,67,0,0
1,76,0,0
1,67,86,1
1,67,0,59
1,67,72,1
1,60,73,0
1,64,82,0
1,64,0,479
1,60,0,0
1,67,0,0
1,67,66,1
1,64,73,0
1,60,71,0
1,60,0,59
1,64,0,0
1,67,0,0
1,67,85,1
1,67,0,59
1,69,75,1
1,64,82,0
1,60,75,0
1,69,0,119
1,71,93,1
1,71,0,119
1,60,0,0
1,64,0,0
1,74,93,1
1,69,85,0
1,64,85,0
1,74,0,119
1,71,85,1
1,71,0,119
1,64,0,0
1,69,0,0
1,69,73,1
1,64,93,0
1,60,69,0
1,60,0,239
1,64,0,0
1,69,0,0
1,69,71,1
1,60,69,0
1,64,82,0
1,64,0,239
1,60,0,0
1,69,0,0
1,72,103,1
1,66,65,0
1,69,83,0
1,72,0,59
1,72,91,1
1,72,0,59
1,72,91,1
1,72,0,59
1,74,96,1
1,74,0,59
1,69,0,0
1,66,0,0
1,71,93,1
1,66,84,0
1,71,0,119
1,69,83,1
1,69,0,59
1,67,86,1
1,67,0,59
1,66,0,0
1,66,62,1
1,71,98,0
1,71,0,359
1,66,0,0
1,71,98,1
1,71,0,29
1,69,89,1
1,69,0,29
1,67,98,1
1,67,0,59
1,67,71,1
1,62,80,0
1,59,78,0
1,59,0,479
1,62,0,0
1,67,0,0
1,81,67,1
1,81,0,59
1,74,80,1
1,74,0,59
1,79,83,1
1,79,0,59
1,86,85,1
1,86,0,59
1,81,93,1
1,81,0,59
1,74,77,1
1,74,0,59
1,79,89,1
1,79,0,59
1,74,82,1
1,74,0,59
1,81,98,1
1,81,0,59
1,74,73,1
1,74,0,59
1,79,85,1
1,79,0,59
1,86,91,1
1,86,0,59
1,81,100,1
1,81,0,59
1,74,82,1
1,74,0,59
1,79,93,1
1,79,0,59
1,74,77,1
1,74,0,59
1,81,106,1
1,81,0,59
1,74,71,1
1,74,0,59
1,79,91,1
1,79,0,59
1,86,89,1
1,86,0,59
1,81,106,1
1,81,0,59
1,74,78,1
1,74,0,59
1,79,93,1
1,79,0,59
1,74,86,1
1,74,0,59
1,62,78,1
1,59,83,0
1,43,98,0
1,59,0,179
1,62,0,0
1,67,82,1
1,67,0,59
1,43,0,0
1,71,86,1
1,67,69,0
1,74,85,0
1,55,89,0
1,74,0,79
1,74,85,1
1,74,0,79
1,74,93,1
1,74,0,79
1,71,0,0
1,67,0,0
1,55,0,0
1,76,85,1
1,67,68,0
1,71,91,0
1,43,93,0
1,71,0,119
1,76,0,0
1,67,0,0
1,74,89,1
1,74,0,59
1,72,93,1
1,72,0,59
1,43,0,0
1,67,68,1
1,71,85,0
1,74,64,0
1,55,89,0
1,74,0,119
1,67,0,0
1,71,0,0
1,72,96,1
1,72,0,59
1,71,106,1
1,71,0,59
1,55,0,0
1,64,75,1
1,71,85,0
1,67,71,0
1,48,89,0
1,67,0,59
1,64,0,0
