track,note,velocity,time
1,65,110,2480
1,65,110,48
1,69,117,48
1,72,121,48
1,75,104,48
1,74,110,48
1,74,111,240
1,74,96,48
1,72,110,48
1,70,113,48
1,70,110,240
1,70,97,48
1,69,110,48
1,67,110,48
1,67,120,96
1,69,104,96
1,70,114,96
1,74,110,96
1,72,115,96
1,72,102,96
1,62,107,192
1,65,115,0
1,70,98,0
1,62,114,96
1,65,114,0
1,70,115,0
1,62,123,48
1,65,110,0
1,70,109,0
1,62,120,48
1,65,113,0
1,70,110,0
1,58,102,96
1,62,107,0
1,65,106,0
1,58,104,48
1,62,101,0
1,65,104,0
1,58,115,48
1,62,119,0
1,67,109,0
1,58,104,96
1,62,116,0
1,67,110,0
1,58,106,48
1,62,122,0
1,67,120,0
1,58,124,96
1,62,95,0
1,67,115,0
1,60,108,48
1,63,110,0
1,69,113,0
1,70,112,96
1,70,109,96
1,70,124,48
1,70,98,48
1,65,104,96
1,65,121,48
1,67,110,48
1,67,118,96
1,67,110,48
1,67,122,96
1,67,100,48
1,63,111,96
1,63,113,96
1,63,102,48
1,63,96,48
1,63,109,96
1,63,110,48
1,65,125,48
1,65,115,48
1,65,112,48
1,65,96,48
1,67,95,48
1,65,110,96
1,70,110,96
1,70,113,96
1,70,110,48
1,70,114,48
1,65,111,96
1,65,112,48
1,67,107,48
1,67,114,96
1,67,118,48
1,67,105,96
1,67,117,48
1,63,106,96
1,63,111,96
1,63,111,48
1,63,116,48
1,63,106,96
1,63,109,48
1,65,111,48
1,65,107,96
1,67,110,48
1,67,106,96
1,65,122,48
1,65,99,96
1,65,122,192
1,65,106,96
1,66,117,96
1,74,110,288
1,74,105,96
1,72,99,96
1,70,110,96
1,72,111,96
1,73,115,96
1,72,112,48
1,70,104,48
1,72,110,192
1,74,105,96
1,74,114,96
1,74,109,96
1,70,95,96
1,75,106,96
1,72,113,96
1,70,110,96
1,69,104,96
1,70,109,96
1,62,110,1460
1,65,98,96
1,65,110,96
1,65,114,96
1,67,109,96
1,67,98,384
1,67,108,96
1,67,105,48
1,67,119,48
1,67,109,96
1,69,101,48
1,69,110,96
1,69,110,48
1,69,102,96
1,62,110,192
1,65,106,96
1,65,100,96
1,65,110,96
1,67,114,96
1,70,110,96
1,72,106,96
1,74,110,96
1,74,110,96
1,72,116,192
1,65,103,480
1,74,111,96
1,74,109,96
1,74,98,96
1,74,110,96
1,72,117,96
1,70,103,96
1,70,116,288
1,70,115,96
1,70,120,48
1,70,108,144
1,73,102,48
1,73,110,96
1,73,110,48
1,73,114,48
1,72,110,48
1,70,108,96
1,74,124,500
1,74,121,96
1,74,113,96
1,72,119,96
1,70,110,96
1,69,104,96
1,72,111,96
1,72,97,96
1,70,100,192
1,70,97,1460
1,70,121,96
1,70,101,48
1,70,122,48
1,65,119,96
1,65,111,48
1,67,110,48
1,67,110,96
1,67,113,48
1,67,110,96
1,67,95,48
1,63,97,96
1,63,111,96
1,63,111,48
1,63,96,48
1,63,98,96
1,63,103,48
1,65,112,48
1,65,121,48
1,65,110,48
1,65,106,48
1,67,107,48
1,65,97,96
1,70,125,96
1,70,111,96
1,70,108,48
1,70,116,48
1,65,115,96
1,65,99,48
1,67,119,48
1,67,96,96
1,67,112,48
1,67,111,96
1,67,107,48
1,63,110,96
1,63,110,96
1,63,111,48
1,63,108,48
1,63,106,96
1,63,109,48
1,65,96,48
1,65,108,96
1,67,117,48
1,67,97,96
1,65,108,48
1,65,111,96
1,65,114,192
1,65,112,96
1,66,110,96
1,74,116,288
1,74,118,96
1,72,110,96
1,70,110,96
1,72,100,96
1,73,109,96
1,72,103,48
1,70,122,48
1,72,110,192
1,74,112,96
1,74,124,96
1,74,109,96
1,70,98,96
1,75,119,96
1,72,108,96
1,70,105,96
1,69,103,96
1,70,112,96
1,62,96,1460
1,65,110,96
1,65,108,96
1,65,110,96
1,67,109,96
1,67,112,384
1,67,123,96
1,67,106,48
1,67,112,48
1,67,103,96
1,69,105,48
1,69,106,96
1,69,110,48
1,69,106,96
1,62,102,192
1,65,119,96
1,65,100,96
1,65,108,96
1,67,101,96
1,70,109,96
1,72,110,96
1,74,99,96
1,74,109,96
1,72,107,192
1,65,115,480
1,74,110,96
1,74,119,96
1,74,108,96
1,74,107,96
1,72,98,96
1,70,105,96
1,70,110,288
1,70,110,96
1,70,123,48
1,70,112,144
1,73,108,48
1,73,112,96
1,73,114,48
1,73,109,48
1,72,111,48
1,70,111,96
1,74,99,500
1,74,110,96
1,74,110,96
1,72,109,96
1,70,120,96
1,69,110,96
1,72,120,96
1,72,113,96
1,70,100,192
2,53,106,2480
2,53,123,48
2,57,115,48
2,60,114,48
2,63,110,48
2,62,112,48
2,62,118,240
2,62,125,48
2,60,115,48
2,58,113,48
2,58,108,240
2,58,119,48
2,57,107,48
2,55,96,48
2,55,111,96
2,57,101,96
2,58,96,96
2,62,110,96
2,60,100,96
2,60,113,96
2,50,110,192
2,53,112,0
2,58,110,0
2,50,122,96
2,53,99,0
2,58,110,0
2,50,120,48
2,53,110,0
2,58,110,0
2,50,96,48
2,53,118,0
2,58,111,0
2,46,123,96
2,50,114,0
2,53,113,0
2,46,108,48
2,50,110,0
2,53,104,0
2,46,115,48
2,50,101,0
2,55,115,0
2,46,109,96
2,50,111,0
2,55,96,0
2,46,108,48
2,50,110,0
2,55,102,0
2,46,111,96
2,50,113,0
2,55,108,0
2,48,112,48
2,51,111,0
2,57,110,0
2,58,109,96
2,58,120,96
2,58,113,48
2,58,110,48
2,53,111,96
2,53,122,48
2,55,111,48
2,55,110,96
2,55,111,48
2,55,110,96
2,55,114,48
2,51,110,96
2,51,104,96
2,51,112,48
2,51,110,48
2,51,121,96
2,51,110,48
2,53,98,48
2,53,109,48
2,53,111,48
2,53,105,48
2,55,115,48
2,53,106,96
2,58,110,96
2,58,108,96
2,58,110,48
2,58,110,48
2,53,116,96
2,53,109,48
2,55,95,48
2,55,98,96
2,55,111,48
2,55,124,96
2,55,104,48
2,51,110,96
2,51,112,96
2,51,109,48
2,51,113,48
2,51,109,96
2,51,114,48
2,53,110,48
2,53,103,96
2,55,113,48
2,55,111,96
2,53,110,48
2,53,110,96
2,53,114,192
2,53,114,96
2,54,109,96
2,62,96,288
2,62,109,96
2,60,113,96
2,58,97,96
2,60,112,96
2,61,120,96
2,60,98,48
2,58,110,48
2,60,110,192
2,62,109,96
2,62,121,96
2,62,112,96
2,58,96,96
2,63,100,96
2,60,110,96
2,58,98,96
2,57,113,96
2,58,100,96
2,50,110,1460
2,53,123,96
2,53,121,96
2,53,108,96
2,55,110,96
2,55,111,384
2,55,97,96
2,55,110,48
2,55,117,48
2,55,110,96
2,57,100,48
2,57,117,96
2,57,98,48
2,57,100,96
2,50,124,192
2,53,110,96
2,53,96,96
2,53,109,96
2,55,114,96
2,58,121,96
2,60,110,96
2,62,103,96
2,62,100,96
2,60,109,192
2,53,109,480
2,62,100,96
2,62,98,96
2,62,110,96
2,62,110,96
2,60,109,96
2,58,114,96
2,58,113,288
2,58,97,96
2,58,107,48
2,58,111,144
2,61,110,48
2,61,102,96
2,61,106,48
2,61,119,48
2,60,114,48
2,58,108,96
2,62,107,500
2,62,106,96
2,62,106,96
2,60,123,96
2,58,102,96
2,57,103,96
2,60,110,96
2,60,106,96
2,58,112,192
2,58,115,1460
2,58,113,96
2,58,110,48
2,58,112,48
2,53,118,96
2,53,109,48
2,55,103,48
2,55,108,96
2,55,118,48
2,55,104,96
2,55,113,48
2,51,102,96
2,51,109,96
2,51,109,48
2,51,110,48
2,51,100,96
2,51,107,48
2,53,120,48
2,53,110,48
2,53,120,48
2,53,110,48
2,55,114,48
2,53,118,96
2,58,102,96
2,58,117,96
2,58,118,48
2,58,118,48
2,53,105,96
2,53,111,48
2,55,113,48
2,55,113,96
2,55,122,48
2,55,119,96
2,55,105,48
2,51,111,96
2,51,113,96
2,51,122,48
2,51,109,48
2,51,119,96
2,51,113,48
2,53,111,48
2,53,100,96
2,55,116,48
2,55,111,96
2,53,114,48
2,53,107,96
2,53,110,192
2,53,119,96
2,54,116,96
2,62,110,288
2,62,110,96
2,60,110,96
2,58,109,96
2,60,109,96
2,61,120,96
2,60,110,48
2,58,106,48
2,60,104,192
2,62,107,96
2,62,109,96
2,62,110,96
2,58,97,96
2,63,110,96
2,60,103,96
2,58,113,96
2,57,118,96
2,58,96,96
2,50,108,1460
2,53,110,96
2,53,110,96
2,53,117,96
2,55,111,96
2,55,121,384
2,55,109,96
2,55,124,48
2,55,110,48
2,55,114,96
2,57,110,48
2,57,110,96
2,57,124,48
2,57,110,96
2,50,98,192
2,53,103,96
2,53,123,96
2,53,107,96
2,55,111,96
2,58,110,96
2,60,110,96
2,62,105,96
2,62,104,96
2,60,116,192
2,53,118,480
2,62,110,96
2,62,95,96
2,62,100,96
2,62,123,96
2,60,107,96
2,58,113,96
2,58,111,288
2,58,112,96
2,58,110,48
2,58,110,144
2,61,123,48
2,61,124,96
2,61,112,48
2,61,116,48
2,60,110,48
2,58,117,96
2,62,108,500
2,62,105,96
2,62,106,96
2,60,110,96
2,58,99,96
2,57,119,96
2,60,110,96
2,60,111,96
2,58,109,192
3,65,107,1760
3,63,107,0
3,60,107,0
3,69,107,0
3,53,100,720
3,65,105,208
3,63,105,0
3,60,105,0
3,69,105,0
3,65,120,156
3,63,120,0
3,60,120,0
3,69,120,0
3,65,109,316
3,62,109,0
3,58,109,0
3,62,107,84
3,58,107,0
3,55,107,0
3,62,102,72
3,58,102,0
3,55,102,0
3,62,102,344
3,58,102,0
3,55,102,0
3,63,102,684
3,60,102,0
3,58,102,0
3,67,102,0
3,48,88,296
3,63,100,240
3,60,100,0
3,58,100,0
3,67,100,0
3,63,102,200
3,60,102,0
3,58,102,0
3,67,102,0
3,67,107,328
3,63,107,0
3,60,107,0
3,69,107,0
3,53,100,720
3,67,105,208
3,63,105,0
3,60,105,0
3,69,105,0
3,67,120,156
3,63,120,0
3,60,120,0
3,69,120,0
3,65,107,316
3,62,107,0
3,58,107,0
3,65,102,72
3,62,102,0
3,58,102,0
3,65,102,344
3,62,102,0
3,58,102,0
3,62,102,444
3,58,102,0
3,55,102,0
3,63,102,0
3,60,102,0
3,58,102,0
3,67,102,0
3,65,102,88
3,63,102,0
3,60,102,0
3,69,102,0
3,65,107,0
3,62,107,0
3,58,107,0
3,65,102,72
3,62,102,0
3,58,102,0
3,65,102,344
3,62,102,0
3,58,102,0
3,62,107,444
3,58,107,0
3,55,107,0
3,62,102,72
3,58,102,0
3,55,102,0
3,62,102,344
3,58,102,0
3,55,102,0
3,63,109,444
3,58,109,0
3,55,109,0
3,65,107,84
3,63,107,0
3,60,107,0
3,69,107,0
3,65,102,72
3,63,102,0
3,60,102,0
3,69,102,0
3,65,102,344
3,63,102,0
3,60,102,0
3,69,102,0
3,62,102,684
3,58,102,0
3,53,102,0
3,46,88,296
3,62,100,240
3,58,100,0
3,53,100,0
3,62,102,200
3,58,102,0
3,53,102,0
3,62,105,328
3,58,105,0
3,55,105,0
3,55,94,960
3,58,90,0
3,62,100,212
3,67,120,4
3,63,107,156
3,58,107,0
3,55,107,0
3,51,100,720
3,63,105,208
3,58,105,0
3,55,105,0
3,63,120,156
3,58,120,0
3,55,120,0
3,65,105,316
3,63,105,0
3,60,105,0
3,69,105,0
3,65,94,960
3,69,90,0
3,72,100,212
3,77,120,4
3,65,102,396
3,62,102,0
3,58,102,0
3,46,88,296
3,65,100,240
3,62,100,0
3,58,100,0
3,65,102,200
3,62,102,0
3,58,102,0
3,66,107,328
3,62,107,0
3,60,107,0
3,69,107,0
3,66,102,72
3,62,102,0
3,60,102,0
3,69,102,0
3,66,102,344
3,62,102,0
3,60,102,0
3,69,102,0
3,63,109,444
3,58,109,0
3,55,109,0
3,64,109,84
3,61,109,0
3,58,109,0
3,67,109,0
3,62,115,324
3,58,115,0
3,53,115,0
3,62,102,200
3,58,102,0
3,55,102,0
3,63,115,328
3,60,115,0
3,55,115,0
3,65,115,440
3,63,115,0
3,60,115,0
3,69,115,0
3,65,111,200
3,62,111,0
3,58,111,0
3,58,105,960
3,62,92,240
3,65,94,240
3,70,83,164
3,65,96,0
3,62,96,0
3,58,96,0
3,65,102,104
3,62,102,0
3,58,102,0
3,65,113,324
3,62,113,0
3,58,113,0
3,62,105,228
3,58,105,0
3,53,105,0
3,58,94,960
3,62,90,0
3,65,100,212
3,70,120,4
3,67,102,396
3,62,102,0
3,58,102,0
3,43,88,296
3,67,100,240
3,62,100,0
3,58,100,0
3,67,102,200
3,62,102,0
3,58,102,0
3,63,107,328
3,58,107,0
3,55,107,0
3,63,102,72
3,58,102,0
3,55,102,0
3,63,102,344
3,58,102,0
3,55,102,0
3,65,109,204
3,63,109,0
3,60,109,0
3,69,109,0
3,62,102,332
3,58,102,0
3,53,102,0
3,46,88,296
3,62,100,240
3,58,100,0
3,53,100,0
3,62,102,200
3,58,102,0
3,53,102,0
3,62,105,328
3,58,105,0
3,55,105,0
3,55,94,960
3,58,90,0
3,62,100,212
3,67,120,4
3,63,105,156
3,58,105,0
3,55,105,0
3,63,94,960
3,67,90,0
3,70,100,212
3,75,120,4
3,65,102,396
3,63,102,0
3,60,102,0
3,69,102,0
3,53,88,296
3,65,100,240
3,63,100,0
3,60,100,0
3,69,100,0
3,65,102,200
3,63,102,0
3,60,102,0
3,69,102,0
3,62,107,328
3,58,107,0
3,53,107,0
3,46,100,720
3,62,105,208
3,58,105,0
3,53,105,0
3,62,120,156
3,58,120,0
3,53,120,0
3,62,107,316
3,58,107,0
3,55,107,0
3,62,102,72
3,58,102,0
3,55,102,0
3,62,102,344
3,58,102,0
3,55,102,0
3,63,107,444
3,58,107,0
3,55,107,0
3,63,102,72
3,58,102,0
3,55,102,0
3,63,102,344
3,58,102,0
3,55,102,0
3,67,115,684
3,63,115,0
3,61,115,0
3,69,115,0
3,63,115,440
3,61,115,0
3,58,115,0
3,67,115,0
3,62,115,440
3,58,115,0
3,53,115,0
3,67,115,440
3,62,115,0
3,58,115,0
3,63,102,200
3,60,102,0
3,55,102,0
3,65,115,328
3,63,115,0
3,60,115,0
3,69,115,0
3,65,102,200
3,62,102,0
3,58,102,0
3,46,90,1200
3,65,105,236
3,62,105,0
3,58,105,0
3,65,90,124
3,62,90,0
3,58,90,0
3,65,102,48
3,62,102,0
3,58,102,0
3,65,102,316
3,62,102,0
3,58,102,0
3,65,105,256
3,62,105,0
3,58,105,0
3,58,94,960
3,62,90,0
3,65,100,212
3,70,120,4
3,70,109,156
3,67,109,0
3,62,109,0
3,63,102,324
3,58,102,0
3,55,102,0
3,51,88,296
3,63,100,240
3,58,100,0
3,55,100,0
3,63,102,200
3,58,102,0
3,55,102,0
3,65,107,328
3,63,107,0
3,60,107,0
3,69,107,0
3,53,100,720
3,65,105,208
3,63,105,0
3,60,105,0
3,69,105,0
3,65,120,156
3,63,120,0
3,60,120,0
3,69,120,0
3,65,107,316
3,62,107,0
3,58,107,0
3,46,100,720
3,65,105,208
3,62,105,0
3,58,105,0
3,65,120,156
3,62,120,0
3,58,120,0
3,62,109,316
3,58,109,0
3,55,109,0
3,63,107,84
3,58,107,0
3,55,107,0
3,63,102,72
3,58,102,0
3,55,102,0
3,63,102,344
3,58,102,0
3,55,102,0
3,65,107,444
3,63,107,0
3,60,107,0
3,69,107,0
3,65,102,72
3,63,102,0
3,60,102,0
3,69,102,0
3,65,102,344
3,63,102,0
3,60,102,0
3,69,102,0
3,62,105,444
3,58,105,0
3,53,105,0
3,58,94,960
3,62,90,0
3,65,100,212
3,70,120,4
3,66,105,156
3,62,105,0
3,60,105,0
3,69,105,0
3,62,94,960
3,66,90,0
3,69,100,212
3,74,120,4
3,63,107,156
3,58,107,0
3,55,107,0
3,63,102,72
3,58,102,0
3,55,102,0
3,63,102,344
3,58,102,0
3,55,102,0
3,67,109,444
3,64,109,0
3,61,109,0
3,70,109,0
3,65,102,84
3,62,102,0
