track,note,velocity,time
1,76,80,480
1,77,80,0
1,79,80,0
1,84,80,0
1,83,80,240
1,79,80,240
1,79,80,240
1,81,80,0
1,79,80,0
1,77,80,0
1,76,80,480
1,77,80,0
1,79,80,0
1,84,80,0
1,83,80,240
1,79,80,240
1,76,80,240
1,74,80,0
1,76,80,960
1,77,80,0
1,79,80,0
1,84,80,0
1,83,80,240
1,79,80,240
1,79,80,240
1,81,80,0
1,79,80,0
1,77,80,0
1,76,80,480
1,74,80,0
1,76,80,0
1,74,80,0
1,72,80,0
1,72,80,0
1,84,80,1440
1,86,80,960
1,79,80,1440
1,78,80,480
1,84,80,960
1,86,80,960
1,79,80,1440
1,78,80,480
1,76,80,0
1,76,80,240
1,74,80,240
1,74,80,240
1,72,80,240
1,72,80,240
1,74,80,240
1,74,80,240
1,76,80,240
1,76,80,240
1,74,80,240
1,74,80,240
1,72,80,240
1,72,80,240
1,74,80,240
1,74,80,240
1,79,80,240
1,74,80,0
1,76,80,240
1,76,80,240
1,74,80,240
1,65,80,0
1,65,80,240
1,76,80,0
1,77,80,240
1,77,80,240
1,76,80,240
1,76,80,240
1,74,80,240
1,74,80,0
1,79,80,240
1,81,80,0
1,83,80,0
1,76,80,240
1,76,80,240
1,74,80,240
1,74,80,240
1,72,80,240
1,72,80,240
1,74,80,240
1,74,80,240
1,76,80,240
1,76,80,240
1,74,80,240
1,74,80,240
1,72,80,240
1,72,80,240
1,74,80,240
1,74,80,240
1,79,80,240
1,74,80,0
1,76,80,240
1,76,80,240
1,74,80,240
1,65,80,0
1,65,80,240
1,76,80,0
1,77,80,240
1,77,80,240
1,76,80,240
1,76,80,240
1,74,80,240
1,74,80,0
1,79,80,240
1,81,80,0
1,83,80,0
1,86,80,0
1,76,80,480
1,77,80,0
1,79,80,0
1,84,80,0
1,83,80,240
1,79,80,240
1,79,80,240
1,81,80,0
1,79,80,0
1,77,80,0
1,76,80,480
1,77,80,0
1,79,80,0
1,84,80,0
1,83,80,240
1,79,80,240
1,76,80,240
1,74,80,0
1,76,80,960
1,77,80,0
1,79,80,0
1,84,80,0
1,83,80,240
1,79,80,240
1,79,80,240
1,81,80,0
1,79,80,0
1,77,80,0
1,76,80,480
1,74,80,0
1,76,80,0
1,74,80,0
1,72,80,0
1,72,80,0
1,84,80,24480
1,86,80,960
1,79,80,1440
1,78,80,480
1,84,80,960
1,86,80,960
1,79,80,1440
1,78,80,480
1,81,80,0
1,79,80,107
1,81,80,107
1,83,80,107
1,81,80,107
1,83,80,107
1,84,80,107
2,64,80,480
2,65,80,0
2,67,80,0
2,72,80,0
2,71,80,240
2,67,80,240
2,67,80,240
2,69,80,0
2,67,80,0
2,65,80,0
2,64,80,480
2,65,80,0
2,67,80,0
2,72,80,0
2,71,80,240
2,67,80,240
2,64,80,240
2,62,80,0
2,64,80,960
2,65,80,0
2,67,80,0
2,72,80,0
2,71,80,240
2,67,80,240
2,67,80,240
2,69,80,0
2,67,80,0
2,65,80,0
2,64,80,480
2,62,80,0
2,64,80,0
2,62,80,0
2,60,80,0
2,60,80,0
2,72,80,1440
2,74,80,960
2,79,80,1440
2,78,80,480
2,72,80,960
2,74,80,960
2,79,80,1440
2,78,80,480
2,69,80,480
2,72,80,0
2,74,80,0
2,72,80,0
2,71,80,0
2,69,80,0
2,69,80,0
2,69,80,0
2,67,80,0
2,69,80,0
2,71,80,0
2,69,80,720
2,72,80,0
2,74,80,0
2,72,80,0
2,71,80,0
2,69,80,0
2,76,80,0
2,74,80,0
2,72,80,0
2,74,80,0
2,76,80,0
2,77,80,720
2,77,80,0
2,76,80,0
2,74,80,0
2,74,80,0
2,72,80,0
2,76,80,0
2,74,80,0
2,77,80,960
2,77,80,0
2,76,80,0
2,74,80,0
2,72,80,0
2,67,80,0
2,69,80,480
2,72,80,0
2,74,80,0
2,72,80,0
2,71,80,0
2,69,80,0
2,69,80,0
2,69,80,0
2,67,80,0
2,69,80,0
2,71,80,0
2,69,80,720
2,72,80,0
2,74,80,0
2,72,80,0
2,71,80,0
2,69,80,0
2,76,80,0
2,74,80,0
2,72,80,0
2,74,80,0
2,76,80,0
2,77,80,720
2,77,80,0
2,76,80,0
2,74,80,0
2,74,80,0
2,72,80,0
2,76,80,0
2,74,80,0
2,77,80,960
2,77,80,0
2,76,80,0
2,79,80,0
2,79,80,0
2,64,80,480
2,65,80,0
2,67,80,0
2,72,80,0
2,71,80,240
2,67,80,240
2,67,80,240
2,69,80,0
2,67,80,0
2,65,80,0
2,64,80,480
2,65,80,0
2,67,80,0
2,72,80,0
2,71,80,240
2,67,80,240
2,64,80,240
2,62,80,0
2,64,80,960
2,65,80,0
2,67,80,0
2,72,80,0
2,71,80,240
2,67,80,240
2,67,80,240
2,69,80,0
2,67,80,0
2,65,80,0
2,64,80,480
2,62,80,0
2,64,80,0
2,62,80,0
2,60,80,0
2,60,80,0
2,72,80,24480
2,74,80,960
2,79,80,1440
2,78,80,480
2,72,80,960
2,74,80,960
2,79,80,1440
2,78,80,480
2,69,80,0
2,67,80,107
2,69,80,107
2,71,80,107
2,69,80,107
2,71,80,107
2,77,80,107
3,76,80,480
3,77,80,0
3,79,80,0
3,84,80,0
3,83,80,240
3,79,80,240
3,79,80,240
3,81,80,0
3,79,80,0
3,77,80,0
3,76,80,480
3,77,80,0
3,79,80,0
3,84,80,0
3,83,80,240
3,79,80,240
3,76,80,240
3,74,80,0
3,76,80,960
3,77,80,0
3,79,80,0
3,84,80,0
3,83,80,240
3,79,80,240
3,79,80,240
3,81,80,0
3,79,80,0
3,77,80,0
3,76,80,480
3,74,80,0
3,76,80,0
3,74,80,0
3,72,80,0
3,72,80,0
3,79,80,1440
3,81,80,960
3,74,80,1440
3,74,80,480
3,79,80,960
3,81,80,960
3,74,80,1440
3,74,80,480
3,69,80,480
3,72,80,0
3,74,80,0
3,72,80,0
3,71,80,0
3,69,80,0
3,69,80,0
3,69,80,0
3,67,80,0
3,69,80,0
3,71,80,0
3,69,80,720
3,72,80,0
3,74,80,0
3,72,80,0
3,71,80,0
3,69,80,0
3,76,80,0
3,74,80,0
3,72,80,0
3,74,80,0
3,76,80,0
3,77,80,720
3,77,80,0
3,76,80,0
3,74,80,0
3,74,80,0
3,72,80,0
3,76,80,0
3,74,80,0
3,77,80,960
3,77,80,0
3,76,80,0
3,74,80,0
3,72,80,0
3,67,80,0
3,69,80,480
3,72,80,0
3,74,80,0
3,72,80,0
3,71,80,0
3,69,80,0
3,69,80,0
3,69,80,0
3,67,80,0
3,69,80,0
3,71,80,0
3,69,80,720
3,72,80,0
3,74,80,0
3,72,80,0
3,71,80,0
3,69,80,0
3,76,80,0
3,74,80,0
3,72,80,0
3,74,80,0
3,76,80,0
3,77,80,720
3,77,80,0
3,76,80,0
3,74,80,0
3,74,80,0
3,72,80,0
3,76,80,0
3,74,80,0
3,77,80,960
3,77,80,0
3,76,80,0
3,79,80,0
3,79,80,0
3,76,80,480
3,77,80,0
3,79,80,0
3,84,80,0
3,83,80,240
3,79,80,240
3,79,80,240
3,81,80,0
3,79,80,0
3,77,80,0
3,76,80,480
3,77,80,0
3,79,80,0
3,84,80,0
3,83,80,240
3,79,80,240
3,76,80,240
3,74,80,0
3,76,80,960
3,77,80,0
3,79,80,0
3,84,80,0
3,83,80,240
3,79,80,240
3,79,80,240
3,81,80,0
3,79,80,0
3,77,80,0
3,76,80,480
3,74,80,0
3,76,80,0
3,74,80,0
3,72,80,0
3,72,80,0
3,79,80,24480
3,81,80,960
3,74,80,1440
3,74,80,480
3,79,80,960
3,81,80,960
3,74,80,1440
3,74,80,480
3,76,80,0
3,74,80,107
3,76,80,107
3,79,80,107
3,77,80,107
3,79,80,107
3,81,80,107
4,64,80,480
4,65,80,0
4,67,80,0
4,72,80,0
4,71,80,240
4,67,80,240
4,67,80,240
4,69,80,0
4,67,80,0
4,65,80,0
4,64,80,480
4,65,80,0
4,67,80,0
4,72,80,0
4,71,80,240
4,67,80,240
4,64,80,240
4,62,80,0
4,64,80,960
4,65,80,0
4,67,80,0
4,72,80,0
4,71,80,240
4,67,80,240
4,67,80,240
4,69,80,0
4,67,80,0
4,65,80,0
4,64,80,480
4,62,80,0
4,64,80,0
4,62,80,0
4,60,80,0
4,60,80,0
4,67,80,1440
4,69,80,960
4,62,80,1440
4,62,80,480
4,67,80,960
4,69,80,960
4,62,80,1440
4,62,80,480
4,72,80,0
4,69,80,0
4,72,80,0
4,69,80,0
4,71,80,0
4,67,80,0
4,62,80,0
4,71,80,0
4,69,80,0
4,65,80,0
4,69,80,0
4,65,80,0
4,71,80,0
4,67,80,0
4,62,80,0
4,71,80,0
4,72,80,0
4,69,80,0
4,72,80,0
4,69,80,0
4,71,80,0
4,67,80,0
4,62,80,0
4,71,80,0
4,69,80,0
4,65,80,0
4,60,80,0
4,65,80,0
4,71,80,0
4,67,80,0
4,71,80,0
4,67,80,0
4,69,80,0
4,62,80,0
4,69,80,0
4,67,80,0
4,60,80,0
4,67,80,0
4,60,80,0
4,65,80,0
4,65,80,0
4,65,80,240
4,67,80,0
4,60,80,0
4,69,80,0
4,62,80,0
4,69,80,0
4,62,80,0
4,67,80,0
4,60,80,0
4,67,80,0
4,60,80,0
4,67,80,0
4,67,80,0
4,67,80,240
4,69,80,0
4,71,80,0
4,72,80,240
4,69,80,0
4,72,80,0
4,69,80,0
4,71,80,0
4,67,80,0
4,62,80,0
4,71,80,0
4,69,80,0
4,65,80,0
4,69,80,0
4,65,80,0
4,71,80,0
4,67,80,0
4,62,80,0
4,71,80,0
4,72,80,0
4,69,80,0
4,72,80,0
4,69,80,0
4,71,80,0
4,67,80,0
4,62,80,0
4,71,80,0
4,69,80,0
4,65,80,0
4,60,80,0
4,65,80,0
4,71,80,0
4,67,80,0
4,71,80,0
4,67,80,0
4,69,80,0
4,62,80,0
4,69,80,0
4,67,80,0
4,60,80,0
4,67,80,0
4,60,80,0
4,65,80,0
4,65,80,0
4,65,80,240
4,67,80,0
4,60,80,0
4,69,80,0
4,62,80,0
4,69,80,0
4,62,80,0
4,67,80,0
4,60,80,0
4,67,80,0
4,60,80,0
4,67,80,0
4,67,80,0
4,67,80,240
4,69,80,0
4,71,80,0
4,74,80,0
4,64,80,480
4,65,80,0
4,67,80,0
4,72,80,0
4,71,80,240
4,67,80,240
4,67,80,240
4,69,80,0
4,67,80,0
4,65,80,0
4,64,80,480
4,65,80,0
4,67,80,0
4,72,80,0
4,71,80,240
4,67,80,240
4,64,80,240
4,62,80,0
4,64,80,960
4,65,80,0
4,67,80,0
4,72,80,0
4,71,80,240
4,67,80,240
4,67,80,240
4,69,80,0
4,67,80,0
4,65,80,0
4,64,80,480
4,62,80,0
4,64,80,0
4,62,80,0
4,60,80,0
4,60,80,0
4,67,80,24480
4,69,80,960
4,62,80,1440
4,62,80,480
4,67,80,960
4,69,80,960
4,62,80,1440
4,62,80,480
4,69,80,0
4,67,80,107
4,69,80,107
4,71,80,107
4,69,80,107
4,71,80,107
4,77,80,107
5,64,80,480
5,65,80,0
5,67,80,0
5,72,80,0
5,71,80,240
5,67,80,240
5,67,80,240
5,69,80,0
5,67,80,0
5,65,80,0
5,64,80,480
5,65,80,0
5,67,80,0
5,72,80,0
5,71,80,240
5,67,80,240
5,64,80,240
5,62,80,0
5,64,80,960
5,65,80,0
5,67,80,0
5,72,80,0
5,71,80,240
5,67,80,240
5,67,80,240
5,69,80,0
5,67,80,0
5,65,80,0
5,64,80,480
5,62,80,0
5,64,80,0
5,62,80,0
5,60,80,0
5,60,80,0
5,64,80,1440
5,66,80,960
5,59,80,1440
5,57,80,480
5,64,80,960
5,66,80,960
5,59,80,1440
5,57,80,480
5,72,80,0
5,71,80,0
5,64,80,0
5,69,80,0
5,71,80,0
5,67,80,0
5,62,80,0
5,71,80,0
5,65,80,0
5,65,80,0
5,60,80,0
5,65,80,0
5,71,80,0
5,67,80,0
5,62,80,0
5,71,80,0
5,72,80,0
5,71,80,0
5,64,80,0
5,69,80,0
5,71,80,0
5,67,80,0
5,62,80,0
5,71,80,0
5,65,80,0
5,65,80,0
5,60,80,0
5,65,80,0
5,71,80,0
5,67,80,0
5,62,80,0
5,67,80,0
5,65,80,0
5,62,80,0
5,65,80,0
5,64,80,0
5,60,80,0
5,64,80,0
5,60,80,0
5,62,80,0
5,62,80,0
5,62,80,240
5,64,80,0
5,60,80,0
5,65,80,0
5,62,80,0
5,65,80,0
5,62,80,0
5,64,80,0
5,60,80,0
5,64,80,0
5,60,80,0
5,62,80,0
5,62,80,0
5,62,80,240
5,69,80,0
5,71,80,0
5,72,80,240
5,71,80,0
5,64,80,0
5,69,80,0
5,71,80,0
5,67,80,0
5,62,80,0
5,71,80,0
5,65,80,0
5,65,80,0
5,60,80,0
5,65,80,0
5,71,80,0
5,67,80,0
5,62,80,0
5,71,80,0
5,72,80,0
5,71,80,0
5,64,80,0
5,69,80,0
5,71,80,0
5,67,80,0
5,62,80,0
5,71,80,0
5,65,80,0
5,65,80,0
5,60,80,0
5,65,80,0
5,71,80,0
5,67,80,0
5,62,80,0
5,67,80,0
5,65,80,0
5,62,80,0
5,65,80,0
5,64,80,0
5,60,80,0
5,64,80,0
5,60,80,0
5,62,80,0
5,62,80,0
5,62,80,240
5,64,80,0
5,60,80,0
5,65,80,0
5,62,80,0
5,65,80,0
5,62,80,0
5,64,80,0
5,60,80,0
5,64,80,0
5,60,80,0
5,62,80,0
5,62,80,0
5,62,80,240
5,69,80,0
5,71,80,0
5,74,80,0
5,64,80,480
5,65,80,0
5,67,80,0
5,72,80,0
5,71,80,240
5,67,80,240
5,67,80,240
5,69,80,0
5,67,80,0
5,65,80,0
5,64,80,480
5,65,80,0
5,67,80,0
5,72,80,0
5,71,80,240
5,67,80,240
5,64,80,240
5,62,80,0
5,64,80,960
5,65,80,0
5,67,80,0
5,72,80,0
5,71,80,240
5,67,80,240
5,67,80,240
5,69,80,0
5,67,80,0
5,65,80,0
5,64,80,480
5,62,80,0
5,64,80,0
5,62,80,0
5,60,80,0
5,60,80,0
5,64,80,24480
5,66,80,960
5,59,80,1440
5,57,80,480
5,64,80,960
5,66,80,960
5,59,80,1440
5,57,80,480
5,64,80,0
5,62,80,107
5,64,80,107
5,67,80,107
5,65,80,107
5,67,80,107
5,72,80,107
6,76,80,480
6,77,80,0
6,79,80,0
6,84,80,0
6,83,80,240
6,79,80,240
6,79,80,240
6,81,80,0
6,79,80,0
6,77,80,0
6,76,80,480
6,77,80,0
6,79,80,0
6,84,80,0
6,83,80,240
6,79,80,240
6,76,80,240
6,74,80,0
6,76,80,960
6,77,80,0
6,79,80,0
6,84,80,0
6,83,80,240
6,79,80,240
6,79,80,240
6,81,80,0
6,79,80,0
6,77,80,0
6,76,80,480
6,74,80,0
6,76,80,0
6,74,80,0
6,72,80,0
6,72,80,0
6,76,80,1440
6,78,80,960
6,71,80,1440
6,69,80,480
6,76,80,960
6,78,80,960
6,71,80,1440
6,69,80,480
6,69,80,480
6,72,80,0
6,74,80,0
6,72,80,0
6,71,80,0
6,69,80,0
6,69,80,0
6,69,80,0
6,67,80,0
6,69,80,0
6,71,80,0
6,69,80,720
6,72,80,0
6,74,80,0
6,72,80,0
6,71,80,0
6,69,80,0
6,76,80,0
6,74,80,0
6,72,80,0
6,74,80,0
6,76,80,0
6,77,80,720
6,77,80,0
6,76,80,0
6,74,80,0
6,74,80,0
6,72,80,0
6,76,80,0
6,74,80,0
6,77,80,960
6,77,80,0
6,76,80,0
6,74,80,0
6,72,80,0
6,67,80,0
6,69,80,480
6,72,80,0
6,74,80,0
6,72,80,0
6,71,80,0
6,69,80,0
6,69,80,0
6,69,80,0
6,67,80,0
6,69,80,0
6,71,80,0
6,69,80,720
6,72,80,0
6,74,80,0
6,72,80,0
6,71,80,0
6,69,80,0
6,76,80,0
6,74,80,0
6,72,80,0
6,74,80,0
6,76,80,0
6,77,80,720
6,77,80,0
6,76,80,0
6,74,80,0
6,74,80,0
6,72,80,0
