track,note,velocity,time
1,46,127,1330
1,48,112,96
1,51,119,11
1,53,89,88
1,55,94,93
1,51,103,91
1,53,98,86
1,46,124,136
1,48,84,0
1,39,124,192
1,41,107,2
1,46,122,2
1,48,84,175
1,48,116,69
1,39,127,35
1,41,112,93
1,51,122,68
1,53,101,93
1,39,127,73
1,41,112,94
1,46,119,88
1,48,76,79
1,51,114,101
1,53,116,6
1,48,114,90
1,46,127,5
1,41,119,1
1,39,127,2
1,36,116,183
1,34,127,13
1,34,127,73
1,27,127,10
1,29,116,7
1,32,127,616
1,34,116,106
1,34,127,185
1,29,114,2
1,27,124,80
1,29,116,3
1,32,122,651
1,34,105,91
1,34,127,206
1,29,112,4
1,27,124,96
1,29,114,2
1,32,127,656
1,34,114,91
1,34,127,190
1,29,116,90
1,27,127,108
1,29,116,3
1,32,127,665
1,34,116,97
1,34,127,198
1,29,114,8
1,27,127,110
1,29,114,3
1,32,124,654
1,34,109,91
1,34,127,197
1,29,114,6
1,27,124,103
1,29,114,1
1,32,124,669
1,34,112,95
1,34,127,186
1,29,119,93
1,48,124,282
1,29,116,89
1,29,122,85
1,29,124,59
1,36,107,389
1,39,85,41
1,41,91,23
1,34,116,54
1,29,124,12
1,29,127,59
1,48,127,311
1,29,116,90
1,29,122,102
1,29,124,57
1,36,114,397
1,39,89,42
1,41,89,32
1,34,122,51
1,29,127,6
1,29,127,69
1,48,124,330
1,29,122,4
1,29,122,96
1,29,122,58
1,43,122,379
1,36,114,1
1,39,116,3
1,41,73,1
1,29,124,20
1,29,124,58
1,48,124,306
1,29,119,6
1,29,122,96
1,29,122,56
1,36,107,393
1,39,77,43
1,41,82,0
1,34,116,56
1,29,127,15
1,29,127,60
1,27,127,22
1,29,114,1
1,32,124,664
1,34,119,93
1,34,127,191
1,29,116,7
1,27,127,97
1,29,116,9
1,32,124,667
1,34,116,93
1,34,127,193
1,29,116,11
1,27,127,112
1,29,119,10
1,32,122,675
1,34,112,88
1,34,127,193
1,29,116,8
1,27,124,110
1,29,116,9
1,32,124,679
1,34,116,91
1,34,127,204
1,29,114,13
1,27,127,108
1,29,114,14
1,32,124,678
1,34,119,93
1,34,127,192
1,29,116,11
1,27,127,107
1,29,116,10
1,32,124,670
1,34,114,92
1,34,127,198
1,29,116,0
1,48,122,221
1,29,116,0
1,29,116,94
1,29,119,56
1,36,114,381
1,39,94,42
1,41,98,1
1,34,119,51
1,29,122,11
1,29,124,57
1,48,122,317
1,29,119,0
1,29,116,91
1,29,119,62
1,36,114,383
1,39,101,46
1,41,94,5
1,34,119,53
1,29,122,8
1,29,116,57
1,48,122,327
1,29,116,0
1,29,116,94
1,29,119,61
1,36,116,388
1,39,96,43
1,41,93,29
1,34,119,49
1,29,124,7
1,29,124,54
1,48,119,322
1,29,116,4
1,29,116,100
1,29,124,57
1,36,116,416
1,39,87,40
1,41,82,27
1,34,122,55
1,29,127,10
1,29,124,62
1,51,122,858
1,53,103,7
1,55,96,0
1,51,122,45
1,53,119,8
1,43,107,1070
1,44,107,1
1,43,93,43
1,36,103,6
1,39,105,54
1,41,114,83
1,51,124,1330
1,53,109,0
1,55,91,3
1,51,124,47
1,53,116,1
1,27,127,1266
1,29,122,41
1,32,127,684
1,34,112,83
1,34,127,197
1,29,116,7
1,27,122,107
1,29,114,6
1,32,124,677
1,34,116,1
1,34,127,206
1,29,114,10
1,27,122,112
1,29,112,5
1,32,124,677
1,34,112,93
1,34,127,200
1,29,114,15
1,27,122,109
1,29,112,3
1,32,124,676
1,34,114,94
1,34,127,198
1,29,114,9
1,27,124,107
1,29,112,5
1,32,124,680
1,34,109,94
1,34,127,207
1,29,114,4
1,27,122,103
1,29,116,2
1,32,124,669
1,34,112,90
1,34,127,201
1,29,116,10
1,48,124,202
1,29,119,2
1,29,119,90
1,29,122,62
1,36,112,397
1,39,107,43
1,41,94,5
1,34,119,51
1,29,124,20
1,29,124,57
1,48,122,330
1,29,116,1
1,29,119,93
1,29,122,58
1,36,112,394
1,39,76,39
1,41,89,23
1,34,124,51
1,29,127,15
1,29,124,58
1,48,122,329
1,29,116,6
1,29,116,89
1,29,119,58
1,43,122,390
1,36,116,0
1,39,127,49
1,41,112,44
1,29,124,15
1,29,122,55
1,48,122,326
1,29,116,4
1,29,119,97
1,29,119,59
1,36,114,398
1,39,87,35
1,41,91,34
1,34,122,54
1,29,127,18
1,29,124,65
1,51,116,857
1,53,103,10
1,55,94,0
1,51,122,51
1,53,116,9
1,43,105,1084
1,44,103,3
1,43,94,45
1,36,107,11
1,39,116,58
1,41,114,2
1,51,119,1327
1,53,103,4
1,55,85,5
1,51,119,52
1,53,119,4
1,27,127,1279
1,29,122,69
2,39,127,1597
2,41,114,98
2,44,127,645
2,46,119,4
2,46,127,193
2,41,112,4
2,39,124,93
2,41,114,0
2,44,127,651
2,46,116,0
2,46,127,191
2,41,112,6
2,39,122,95
2,41,114,98
2,44,127,659
2,46,114,95
2,46,127,190
2,41,109,5
2,39,127,95
2,41,114,1
2,44,124,661
2,46,116,98
2,46,127,191
2,41,112,7
2,39,124,100
2,41,114,96
2,44,124,666
2,46,114,1
2,46,127,197
2,41,112,2
2,39,124,95
2,41,114,98
2,44,124,659
2,46,112,0
2,46,127,203
2,41,114,5
2,65,89,200
2,70,119,0
2,69,107,90
2,65,94,2
2,65,87,87
2,70,122,1
2,69,112,84
2,65,103,1
2,65,94,89
2,70,124,1
2,69,112,87
2,65,98,2
2,70,127,97
2,65,89,2
2,69,112,94
2,65,101,2
2,39,127,43
2,41,119,18
2,44,124,662
2,46,114,1
2,46,127,188
2,41,116,3
2,39,127,93
2,41,114,1
2,44,124,667
2,46,116,3
2,46,127,198
2,41,112,2
2,39,124,91
2,41,114,97
2,44,124,666
2,46,116,89
2,46,127,200
2,41,112,4
2,39,124,87
2,41,114,0
2,44,124,666
2,46,105,95
2,46,127,199
2,41,116,2
2,39,124,103
2,41,116,0
2,44,124,666
2,46,112,1
2,46,127,194
2,41,116,2
2,39,122,94
2,41,114,1
2,44,127,673
2,46,112,1
2,46,127,203
2,41,116,0
2,70,127,196
2,65,101,1
2,69,109,106
2,65,101,1
2,65,94,95
2,70,119,0
2,69,112,89
2,65,101,1
2,65,91,88
2,70,127,0
2,69,107,117
2,65,98,1
2,70,124,106
2,65,93,2
2,69,107,95
2,65,98,0
2,39,127,1238
2,41,119,37
2,44,124,653
2,46,109,1
2,46,127,193
2,41,112,1
2,39,124,101
2,41,114,3
2,44,124,667
2,46,116,1
2,46,127,198
2,41,109,0
2,39,124,90
2,41,112,98
2,44,122,672
2,46,114,0
2,46,127,204
2,41,109,5
2,39,124,107
2,41,112,1
2,44,122,675
2,46,107,91
2,46,127,203
2,41,109,1
2,39,124,100
2,41,114,0
2,44,127,663
2,46,114,99
2,46,127,198
2,41,112,95
2,39,124,98
2,41,116,2
2,44,124,673
2,46,114,0
2,46,127,205
2,41,112,4
2,70,122,195
2,65,94,1
2,69,109,97
2,65,94,2
2,70,124,88
2,65,93,1
2,69,107,82
2,65,101,2
2,70,127,95
2,65,93,1
2,65,96,87
2,69,107,0
2,70,122,97
2,65,89,1
2,69,109,86
2,65,96,1
3,68,122,7689
3,65,101,3
3,69,73,4
3,69,70,36
3,65,53,1
3,65,38,55
3,69,65,0
3,69,51,55
3,65,43,6
3,69,53,55
3,65,47,5
3,69,63,66
3,65,43,3
3,68,119,1015
3,65,93,3
3,69,13,24
3,69,72,35
3,65,68,0
3,65,32,56
3,69,61,0
3,69,52,58
3,65,34,2
3,69,58,56
3,65,42,4
3,69,43,61
3,65,29,7
3,68,105,1014
3,65,89,0
3,69,94,4
3,69,64,33
3,65,43,2
3,69,63,48
3,65,44,4
3,69,56,52
3,65,39,3
3,69,48,52
3,65,41,3
3,65,41,58
3,69,51,0
3,65,94,1008
3,68,105,1
3,69,93,1
3,65,63,45
3,69,68,2
3,69,64,53
3,65,42,5
3,69,38,55
3,65,37,2
3,69,43,59
3,65,31,4
3,69,53,57
3,65,40,5
3,68,116,1015
3,65,77,5
3,69,37,8
3,69,72,42
3,65,64,7
3,69,64,60
3,65,61,2
3,69,63,66
3,65,45,3
3,69,65,58
3,65,46,1
3,69,56,63
3,65,48,3
3,68,114,1012
3,65,85,3
3,69,81,2
3,69,65,38
3,65,45,4
3,69,56,64
3,65,45,3
3,69,57,64
3,65,42,1
3,69,52,62
3,65,35,4
3,69,52,68
3,65,40,3
3,68,119,7088
3,65,93,2
3,69,94,2
3,69,63,35
3,65,54,2
3,65,53,52
3,69,62,1
3,65,46,54
3,69,61,0
3,69,55,56
3,65,50,2
3,69,58,61
3,65,48,3
3,68,116,1003
3,65,87,3
3,69,82,1
3,65,48,46
3,69,52,2
3,69,63,57
3,65,46,3
3,69,54,60
3,65,48,3
3,69,54,56
3,65,38,7
3,69,37,65
3,65,37,3
3,68,112,1007
3,69,96,1
3,65,89,2
3,69,23,44
3,65,30,13
3,69,46,60
3,65,46,3
3,69,48,62
3,65,35,0
3,69,45,56
3,65,44,5
3,69,48,63
3,65,41,4
3,68,114,1001
3,65,87,2
3,69,87,2
3,69,49,55
3,65,39,6
3,69,48,59
3,65,42,3
3,69,58,63
3,65,42,5
3,69,60,60
3,65,47,6
3,69,56,66
3,65,49,4
3,68,101,1007
3,65,85,1
3,69,91,0
3,69,26,52
3,65,30,4
3,69,68,58
3,65,48,1
3,69,52,66
3,65,43,2
3,69,51,61
3,65,47,5
3,69,45,66
3,65,41,2
3,65,89,1005
3,68,107,1
3,69,89,2
3,69,47,46
3,65,49,1
3,69,58,55
3,65,47,3
3,69,60,62
3,65,43,0
3,69,61,57
3,65,48,3
3,69,48,66
3,65,39,4
3,67,107,7091
3,72,119,2
3,72,93,50
3,67,67,2
3,67,94,35
3,72,114,0
3,72,96,59
3,67,68,3
3,72,114,34
3,67,96,1
3,72,96,58
3,67,75,2
3,72,114,37
3,67,98,0
3,72,93,54
3,67,69,2
3,67,98,37
3,72,116,0
3,72,93,54
3,67,48,5
3,67,91,33
3,72,109,1
3,72,93,57
3,67,103,39
3,72,116,0
3,70,127,70
3,65,101,2
3,67,107,315
3,72,122,1
3,72,103,46
3,67,77,1
3,67,93,27
3,72,107,1
3,72,94,56
3,67,51,5
3,67,91,30
3,72,107,2
3,72,87,55
3,67,76,0
3,67,98,31
3,72,116,3
3,72,93,52
3,67,67,2
3,67,98,33
3,72,116,1
3,72,94,60
3,67,68,2
3,67,94,30
3,72,109,1
3,72,103,55
3,67,62,4
3,67,105,37
3,72,119,1
3,70,127,75
3,65,101,1
3,67,103,294
3,72,122,0
3,72,105,50
3,67,73,2
3,67,91,33
3,72,112,1
3,72,103,54
3,67,73,2
3,67,96,32
3,72,114,1
3,72,101,60
3,67,75,2
3,67,94,34
3,72,116,1
3,72,96,58
3,67,72,2
3,67,94,29
3,72,114,2
3,72,94,58
3,67,56,4
3,72,114,34
3,67,93,0
3,72,93,56
3,67,94,33
3,72,119,2
3,70,127,75
3,65,94,2
3,72,122,303
3,67,105,1
3,72,101,50
3,67,62,3
3,67,93,31
3,72,112,1
3,72,101,58
3,67,75,2
3,67,91,29
3,72,112,3
3,72,103,66
3,67,68,1
3,67,96,35
3,72,116,1
3,67,82,62
3,72,103,1
3,67,96,30
3,72,114,1
3,72,107,60
3,67,61,5
3,72,116,32
3,67,94,0
3,72,107,55
3,67,51,6
3,67,96,35
3,72,119,2
3,70,127,71
3,65,98,3
3,68,122,339
3,65,105,1
3,69,101,3
3,69,48,37
3,65,56,5
3,69,41,56
3,65,37,4
3,65,34,53
3,69,42,0
3,69,43,56
3,65,39,2
3,69,54,59
3,65,46,1
3,68,114,1006
3,65,89,3
3,69,96,1
3,69,39,48
3,65,48,7
3,69,44,50
3,65,62,4
3,69,42,52
3,65,45,3
3,69,51,55
3,65,46,1
3,69,57,61
3,65,53,1
3,68,122,993
3,65,96,4
3,69,93,1
3,69,34,40
3,65,35,5
3,69,41,58
3,65,37,0
3,65,36,64
3,69,42,0
3,69,41,59
3,65,37,3
3,69,55,67
3,65,49,3
3,68,116,1002
3,65,98,2
3,69,96,2
3,69,43,49
3,65,43,9
3,69,41,46
3,65,41,3
3,69,45,55
3,65,43,2
3,69,40,58
3,65,38,0
3,69,48,69
3,65,45,1
3,68,107,992
3,69,96,4
3,65,89,1
3,69,45,45
3,65,48,7
3,69,39,53
3,65,42,3
3,69,36,59
3,65,34,0
3,69,40,60
3,65,40,1
3,69,44,63
3,65,42,1
3,68,116,1008
3,65,94,3
3,69,79,4
3,69,31,49
3,65,40,4
3,69,41,51
3,65,45,6
3,69,39,52
3,65,44,2
3,69,42,55
3,65,41,1
3,69,41,55
3,65,43,4
3,67,101,7090
3,72,114,1
3,72,96,48
3,67,61,4
3,67,87,33
3,72,107,0
3,72,94,47
3,67,79,1
3,67,94,28
3,72,107,2
3,67,72,46
3,72,91,1
3,67,94,33
3,72,109,1
3,72,94,58
3,67,77,1
3,67,93,30
3,72,109,1
3,72,91,60
3,67,73,0
3,72,103,28
3,67,91,0
3,72,84,56
3,67,51,4
3,67,96,31
3,72,112,1
3,70,124,60
3,65,98,2
3,72,116,260
3,67,98,2
3,72,91,43
3,67,62,2
3,67,89,33
3,72,105,1
3,72,91,52
3,67,73,0
3,67,91,30
3,72,107,1
3,72,87,56
3,67,63,2
3,67,91,35
3,72,107,1
3,72,82,63
3,67,49,3
3,67,93,32
3,72,109,1
3,72,84,61
3,67,63,1
3,67,89,31
3,72,107,2
3,72,84,49
3,67,89,34
3,72,107,0
3,70,127,77
3,65,98,2
3,72,116,238
3,67,98,3
3,67,65,53
3,72,91,0
3,72,103,32
3,67,84,0
3,72,87,52
3,67,52,4
3,67,82,31
3,72,103,1
3,72,85,64
3,67,67,1
3,67,98,34
3,72,109,2
3,72,84,59
3,67,38,7
3,67,91,32
3,72,107,2
3,72,82,58
3,67,44,5
3,67,91,32
3,72,105,0
3,72,82,60
3,72,114,36
3,67,96,1
3,70,127,66
3,65,94,1
3,72,116,282
3,67,101,1
3,72,91,48
3,67,65,3
3,67,87,31
3,72,103,1
3,72,87,55
3,67,65,1
3,67,85,31
3,72,105,1
3,72,94,63
3,67,59,5
3,72,107,33
3,67,93,0
3,72,98,61
3,67,69,4
3,67,94,32
3,72,112,1
3,72,94,66
3,67,59,3
3,72,107,34
3,67,93,0
3,72,93,54
3,67,37,7
3,67,101,33
3,72,114,1
3,70,127,63
3,65,103,1
4,68,89,7775
4,68,81,81
4,68,73,76
4,68,82,74
4,68,70,78
4,68,75,1134
4,68,81,88
4,68,87,82
4,68,75,80
4,68,94,85
4,68,98,1121
4,68,91,83
4,68,89,77
4,68,85,76
4,68,94,77
4,68,98,1103
4,68,70,79
4,68,89,84
4,68,81,79
4,68,84,82
4,68,93,1124
4,68,91,83
4,68,89,77
4,68,75,82
4,68,85,81
4,68,94,1107
4,68,85,86
4,68,72,77
4,68,72,75
4,68,70,74
4,68,93,7184
4,68,96,80
4,68,82,82
4,68,89,76
4,68,91,79
4,68,96,1129
4,68,85,78
4,68,96,76
4,68,93,83
4,68,89,85
4,68,107,1123
4,68,84,83
4,68,94,76
4,68,94,74
4,68,101,79
4,68,109,1116
4,68,105,80
4,68,98,74
4,68,93,76
4,68,94,80
4,68,103,1108
4,68,85,84
4,68,94,79
4,68,93,75
4,68,87,78
4,68,103,1129
4,68,94,79
4,68,89,79
4,68,91,76
4,68,89,77
4,68,85,13282
4,68,94,80
4,68,79,76
4,68,73,82
4,68,84,86
4,68,91,1122
4,68,75,82
4,68,82,82
4,68,82,80
4,68,94,78
4,68,98,1119
4,68,85,83
4,68,87,79
4,68,87,77
4,68,93,78
4,68,94,1122
4,68,96,74
4,68,89,82
4,68,93,76
4,68,93,78
4,68,103,1121
4,68,89,79
4,68,94,76
4,68,91,76
4,68,87,78
4,68,101,1123
4,68,85,84
4,68,85,75
4,68,87,80
4,68,96,77
5,60,105,1426
5,65,91,5
5,67,94,13
5,60,93,13
5,65,96,11
5,72,98,1
5,60,98,7
