track,note,velocity,time
1,34,65,1920
1,34,65,60
1,46,65,0
1,46,65,60
1,34,65,0
1,34,65,60
1,46,65,60
1,46,65,60
1,34,65,60
1,34,65,60
1,46,65,60
1,46,65,60
1,34,65,60
1,34,65,60
1,46,65,60
1,46,65,60
1,34,65,60
1,34,65,60
1,46,65,60
1,46,65,60
1,34,65,60
1,34,65,60
1,46,65,60
1,46,65,60
1,34,65,60
1,34,65,60
1,46,65,60
1,46,65,60
1,34,65,60
1,34,65,60
1,46,65,60
1,46,65,60
1,34,65,60
1,34,65,60
1,46,65,60
1,46,65,60
1,34,65,60
1,34,65,60
1,46,65,60
1,46,65,60
1,34,65,60
1,34,65,60
1,46,65,60
1,46,65,60
1,34,65,60
1,34,65,60
1,46,65,60
1,46,65,60
1,34,65,60
1,34,65,60
1,46,65,60
1,46,65,60
1,34,65,60
1,34,65,60
1,46,65,60
1,46,65,60
1,34,65,60
1,34,65,60
1,46,65,60
1,46,65,60
1,34,65,60
1,34,65,60
1,46,65,60
1,46,65,60
1,34,65,60
1,34,65,60
1,46,65,60
1,46,65,60
1,34,65,60
1,34,65,60
1,46,65,60
1,46,65,60
1,34,65,60
1,34,65,60
1,46,65,60
1,46,65,60
1,34,65,60
1,34,65,60
1,46,65,60
1,46,65,60
1,34,65,60
1,34,65,60
1,46,65,60
1,46,65,60
1,34,65,60
1,34,65,60
1,46,65,60
1,46,65,60
1,34,65,0
1,34,65,60
1,46,65,60
1,46,65,60
1,34,65,60
1,34,65,60
1,46,65,60
1,46,65,60
1,58,60,1440
1,60,60,0
1,62,60,0
1,60,60,0
1,58,60,0
1,62,60,0
1,58,60,0
1,58,60,720
1,60,60,0
1,62,60,0
1,60,60,0
1,58,60,0
1,62,60,0
1,58,60,0
1,62,60,240
1,60,60,0
1,58,60,0
1,58,60,0
1,60,60,0
1,60,60,720
1,56,60,7
1,65,90,0
1,67,90,240
1,65,90,240
1,67,90,240
1,65,90,240
1,67,90,240
1,67,90,0
1,58,60,0
1,60,60,0
1,62,60,0
1,60,60,0
1,58,60,0
1,62,60,0
1,58,60,0
1,58,60,720
1,60,60,0
1,62,60,0
1,60,60,0
1,58,60,0
1,62,60,0
1,58,60,0
1,62,60,240
1,60,60,0
1,58,60,0
1,58,60,0
1,60,60,0
1,60,60,240
1,60,60,480
1,56,60,7
1,65,90,0
1,67,90,240
1,65,90,240
1,67,90,240
1,65,90,240
1,67,90,240
1,67,90,0
1,58,60,0
1,60,60,0
1,62,60,0
1,60,60,0
1,58,60,0
1,62,60,0
1,58,60,0
1,58,60,720
1,60,60,0
1,62,60,0
1,60,60,0
1,58,60,0
1,62,60,0
1,58,60,0
1,62,60,240
1,60,60,0
1,58,60,0
1,58,60,0
1,60,60,0
1,60,60,473
1,56,60,189
1,65,100,0
1,67,100,240
1,65,100,240
1,67,100,240
1,65,100,240
1,67,100,240
1,67,100,0
1,80,120,15607
1,87,120,0
1,85,120,0
1,84,120,0
1,82,120,0
1,80,120,0
1,80,120,0
1,85,120,0
1,83,120,0
1,82,120,0
1,80,120,0
1,78,120,0
1,80,120,0
1,87,120,0
1,85,120,0
1,84,120,0
1,82,120,0
1,80,120,0
1,80,120,0
1,85,120,0
1,83,120,0
1,82,120,10
1,80,120,360
1,78,120,357
1,80,120,357
1,54,100,15360
1,56,100,120
1,58,100,0
1,54,100,0
1,56,100,6
1,58,100,120
1,60,100,0
1,56,100,240
1,58,100,0
1,60,100,0
1,61,100,0
1,58,100,0
1,60,100,120
1,61,100,83
1,63,100,7
1,61,100,240
1,63,100,0
1,65,100,0
1,66,100,0
1,63,100,0
1,65,100,0
1,66,100,0
1,68,100,0
1,65,100,0
1,66,100,0
1,68,100,0
1,70,100,0
1,66,100,0
1,68,100,0
1,70,100,0
1,72,100,0
1,66,100,0
1,68,100,0
1,70,100,0
1,72,100,0
1,72,100,0
1,70,100,0
1,68,100,0
1,66,100,0
1,72,100,2400
1,70,100,7
1,68,100,0
1,66,100,0
1,66,100,0
1,65,100,7
1,63,100,0
1,61,100,0
1,63,100,0
1,65,100,0
1,66,100,0
1,66,100,0
1,68,100,0
1,70,100,0
1,72,100,0
1,73,100,0
1,66,60,0
1,71,60,0
1,75,60,0
1,75,60,0
1,71,60,0
1,66,60,0
1,75,60,0
1,71,60,0
1,66,60,0
1,75,60,0
1,71,60,0
1,66,60,0
1,66,60,0
1,71,60,0
1,75,60,0
1,73,60,120
1,70,60,0
1,65,60,0
1,71,60,123
1,66,60,0
1,63,60,0
1,73,60,120
1,70,60,0
1,65,60,0
1,63,60,120
1,66,60,0
1,70,60,0
1,71,60,127
1,68,60,0
1,63,60,0
1,73,60,0
1,68,60,0
1,65,60,0
1,71,60,117
1,68,60,0
1,63,60,0
1,65,60,110
1,68,60,0
1,73,60,0
1,71,60,118
1,68,60,0
1,63,60,0
1,70,60,120
1,66,60,0
1,63,60,0
1,68,60,120
1,71,60,0
1,63,60,0
1,75,60,120
1,71,60,0
1,66,60,0
1,75,60,0
1,71,60,0
1,66,60,0
1,75,60,0
1,71,60,0
1,66,60,0
1,75,60,0
1,71,60,0
1,66,60,0
1,66,60,0
1,71,60,0
1,75,60,0
1,73,60,120
1,70,60,0
1,65,60,0
1,71,60,123
1,66,60,0
1,63,60,0
1,73,60,120
1,70,60,0
1,65,60,0
1,63,60,120
1,66,60,0
1,70,60,0
1,71,60,127
1,68,60,0
1,63,60,0
1,73,60,0
1,68,60,0
1,65,60,0
1,71,60,117
1,68,60,0
1,63,60,0
1,65,60,110
1,68,60,0
1,73,60,0
1,71,60,118
1,68,60,0
1,63,60,0
1,65,60,120
1,73,60,0
1,68,60,0
1,73,60,247
1,70,60,0
1,77,60,0
1,73,60,0
1,70,60,0
1,77,60,0
1,73,60,0
1,70,60,0
1,77,60,0
1,73,60,0
1,70,60,0
1,77,60,0
1,73,60,0
1,70,60,0
1,77,60,0
1,75,60,120
1,72,60,0
1,68,60,0
1,73,60,120
1,70,60,0
1,66,60,0
1,75,60,120
1,72,60,0
1,68,60,0
1,72,60,120
1,68,60,0
1,63,60,0
1,66,60,120
1,70,60,0
1,73,60,0
1,75,60,0
1,72,60,0
1,68,60,0
1,73,60,124
1,70,60,0
1,66,60,0
1,75,60,120
1,72,60,0
1,68,60,0
1,73,60,120
1,70,60,0
1,66,60,0
1,72,60,120
1,68,60,0
1,63,60,0
1,66,60,120
1,70,60,0
1,73,60,0
1,73,60,120
1,70,60,0
1,77,60,0
1,73,60,0
1,70,60,0
1,77,60,0
1,73,60,0
1,70,60,0
1,77,60,0
1,73,60,0
1,70,60,0
1,77,60,0
1,73,60,0
1,70,60,0
1,77,60,0
1,75,60,120
1,72,60,0
1,68,60,0
1,73,60,120
1,70,60,0
1,66,60,0
1,75,60,120
1,72,60,0
1,68,60,0
1,72,60,120
1,68,60,0
1,63,60,0
1,66,60,120
1,70,60,0
1,73,60,0
1,75,60,0
1,72,60,0
1,68,60,0
1,73,60,124
1,70,60,0
1,66,60,0
1,75,60,120
1,72,60,0
1,68,60,0
1,72,110,247
1,68,110,0
1,70,110,0
1,68,110,0
1,70,110,0
1,65,110,0
1,62,60,844
1,60,60,0
1,58,60,0
1,62,60,0
1,58,60,0
1,58,60,720
1,60,60,0
1,62,60,0
1,60,60,0
1,58,60,0
1,62,60,0
1,58,60,0
1,62,60,240
1,60,60,0
1,58,60,0
1,58,60,0
1,60,60,0
1,60,60,473
1,56,60,7
1,65,100,0
1,67,100,240
1,65,100,240
1,67,100,240
1,65,100,240
1,67,100,240
1,67,100,0
1,34,70,0
1,34,70,60
1,46,70,0
1,46,70,60
1,34,70,60
1,34,70,60
1,46,70,60
1,46,70,60
1,34,70,60
1,34,70,60
1,46,70,60
1,46,70,60
1,34,70,60
1,34,70,60
1,46,70,60
1,46,70,60
1,34,70,60
1,34,70,60
1,46,70,60
1,46,70,60
1,34,70,60
1,34,70,60
1,46,70,60
1,46,70,60
1,34,70,60
1,34,70,60
1,46,70,60
1,46,70,60
1,34,70,60
1,34,70,60
1,46,70,60
1,46,70,60
1,36,70,60
1,36,70,60
1,48,70,60
1,48,70,60
1,36,70,60
1,36,70,60
1,48,70,60
1,48,70,60
1,36,70,60
1,36,70,60
1,48,70,60
1,48,70,60
1,36,70,60
1,36,70,60
1,48,70,60
1,48,70,60
1,36,70,60
1,36,70,60
1,48,70,60
1,48,70,60
1,36,70,60
1,36,70,60
1,48,70,60
1,48,70,60
1,36,70,60
1,36,70,60
1,48,70,60
1,48,70,60
1,36,70,60
1,36,70,72
1,48,70,60
1,48,70,60
1,29,70,60
1,29,70,60
1,41,70,60
1,41,70,60
1,29,70,60
1,29,70,60
1,41,70,60
1,41,70,60
1,29,70,60
1,29,70,60
1,41,70,60
1,41,70,60
1,29,70,60
1,29,70,60
1,41,70,60
1,41,70,60
1,37,70,60
1,37,70,60
1,37,70,60
1,37,70,60
1,37,70,60
1,37,70,60
1,49,70,60
1,49,70,60
1,37,70,60
1,37,70,60
1,37,70,60
1,37,70,60
1,37,70,60
1,39,70,120
1,41,70,90
1,80,120,0
1,87,120,0
1,85,120,0
1,84,120,0
1,82,120,0
1,80,120,0
1,80,120,0
1,85,120,0
1,83,120,0
1,82,120,0
1,80,120,0
1,78,120,0
1,80,120,0
1,87,120,0
1,85,120,0
1,84,120,0
1,82,120,0
1,80,120,0
1,80,120,0
1,85,120,0
1,83,120,0
1,82,120,0
1,80,120,0
1,78,120,0
1,80,110,0
2,87,100,0
2,86,100,0
2,84,100,0
2,89,100,0
2,87,100,0
2,86,100,0
2,84,100,0
2,87,100,0
2,86,100,0
2,84,100,0
2,89,100,0
2,87,100,0
2,86,100,0
2,84,100,0
2,87,100,0
2,86,100,0
2,84,100,0
2,89,100,0
2,87,100,0
2,86,100,0
2,84,100,0
2,80,90,83040
2,80,90,0
2,54,110,0
2,56,110,0
2,58,110,0
2,54,110,0
2,56,110,6
2,58,110,120
2,60,110,0
2,56,110,240
2,58,110,0
2,60,110,0
2,61,110,0
2,58,110,0
2,60,110,120
2,61,110,83
2,63,110,7
2,61,110,240
2,63,110,0
2,65,110,0
2,66,110,0
2,63,110,0
2,65,110,0
2,66,110,0
2,68,110,0
2,65,110,0
2,66,110,0
2,68,110,0
2,70,110,0
2,66,110,0
2,68,110,0
2,70,110,0
2,72,110,0
2,66,110,0
2,68,110,0
2,70,110,0
2,72,110,0
2,72,110,0
2,70,110,0
2,68,110,0
2,66,110,0
2,72,110,2400
2,70,110,7
2,68,110,0
2,66,110,0
2,66,110,0
2,65,110,7
2,63,110,0
2,61,110,0
2,87,100,0
2,86,100,0
2,84,100,0
2,89,100,0
2,87,100,0
2,86,100,0
2,84,100,0
2,89,100,0
2,87,100,0
2,86,100,0
2,91,100,0
2,89,100,0
2,87,100,0
2,86,100,0
2,94,100,0
2,93,100,0
2,91,100,0
2,92,100,0
2,91,100,0
2,89,100,0
2,91,100,7
2,92,100,0
2,94,100,0
2,94,110,58
2,96,115,120
2,97,120,90
2,80,75,30
2,92,100,0
2,92,100,0
2,80,85,0
2,56,111,7680
3,70,80,12
3,77,80,0
3,78,80,1908
3,70,80,0
3,72,80,0
3,79,80,21
3,70,80,0
3,78,80,13
3,77,80,0
3,70,80,0
3,78,80,1895
3,72,80,0
3,79,80,21
3,70,80,0
3,78,80,13
3,77,80,0
3,70,80,0
3,78,80,1895
3,72,80,0
3,79,80,21
3,70,80,0
3,78,80,13
3,80,110,83027
3,80,110,0
3,80,110,0
3,80,110,0
3,71,70,8520
3,66,70,0
3,63,70,0
3,63,70,0
3,67,70,0
3,72,70,0
3,64,70,0
3,68,70,0
3,73,70,0
3,74,70,0
3,69,70,0
3,65,70,0
3,75,100,0
3,71,100,0
3,66,100,0
3,70,100,0
3,66,100,0
3,73,100,0
3,75,100,0
3,72,100,0
3,68,100,0
3,74,100,1
3,67,100,0
3,71,100,0
3,73,100,0
3,70,100,0
3,66,100,0
3,72,100,0
3,69,100,0
3,65,100,0
3,68,100,0
3,64,100,0
3,63,100,0
3,71,70,8940
3,66,70,0
3,63,70,0
3,63,70,0
3,67,70,0
3,72,70,0
3,64,70,0
3,68,70,0
3,73,70,0
3,74,70,0
3,69,70,0
3,65,70,0
3,75,100,0
3,71,100,0
3,66,100,0
3,70,100,0
3,66,100,0
3,73,100,0
3,75,100,0
3,72,100,0
3,68,100,0
3,77,100,0
3,74,100,0
3,70,100,0
3,79,90,0
3,72,90,0
3,70,80,76800
3,77,80,0
3,78,80,1908
3,70,80,0
3,72,80,0
3,79,80,21
3,70,80,0
3,78,80,13
3,72,80,0
3,79,80,0
3,80,80,1895
3,72,80,0
3,81,80,21
3,72,80,0
3,80,80,13
3,89,80,0
3,77,80,0
3,65,80,0
3,89,80,0
3,77,80,0
3,65,80,0
3,65,80,0
3,80,110,0
3,80,110,0
3,80,110,0
3,80,110,0
4,75,100,0
4,74,100,0
4,72,100,0
4,77,100,0
4,75,100,0
4,74,100,0
4,72,100,0
4,75,100,0
4,74,100,0
4,72,100,0
4,77,100,0
4,75,100,0
4,74,100,0
4,72,100,0
4,75,100,0
4,74,100,0
4,72,100,0
4,77,100,0
4,75,100,0
4,74,100,0
4,72,100,0
4,51,127,10
4,44,127,950
4,48,127,0
4,44,80,79200
4,56,80,0
4,54,80,0
4,42,80,0
4,53,80,0
4,41,80,0
4,52,80,0
4,40,80,0
4,56,80,0
4,44,80,0
4,54,80,0
4,42,80,0
4,53,80,0
4,41,80,0
4,52,80,0
4,40,80,0
4,75,100,0
4,72,100,0
4,68,100,0
4,32,80,0
4,44,80,0
4,75,100,240
4,72,100,0
4,68,100,0
4,75,100,240
4,72,100,0
4,68,100,0
4,75,100,240
4,72,100,0
4,68,100,0
4,75,100,0
4,72,100,0
4,66,100,0
4,30,80,0
4,42,80,0
4,75,100,240
4,72,100,0
4,66,100,0
4,75,100,240
4,72,100,0
4,66,100,0
4,75,100,240
4,72,100,0
4,66,100,0
4,65,100,0
4,68,100,0
4,73,100,0
4,29,80,0
4,41,80,0
4,73,100,240
4,68,100,0
4,65,100,0
4,65,100,240
4,68,100,0
4,73,100,0
4,73,100,240
4,68,100,0
4,65,100,0
4,64,100,0
4,68,100,0
4,71,100,0
4,28,80,0
4,40,80,0
4,64,100,240
4,68,100,0
4,71,100,0
4,64,100,240
4,68,100,0
4,71,100,0
4,64,100,240
4,68,100,0
4,71,100,0
4,66,100,0
4,70,100,0
4,73,100,0
4,30,80,0
4,42,80,0
4,66,100,240
4,70,100,0
4,73,100,0
4,66,100,240
4,70,100,0
4,73,100,0
4,66,100,240
4,70,100,0
4,73,100,0
4,75,100,0
4,71,100,0
4,68,100,0
4,73,100,0
4,70,100,0
4,66,100,0
4,68,100,0
4,72,100,0
4,75,100,0
4,44,80,0
4,32,80,0
4,75,100,240
4,72,100,0
4,68,100,0
4,75,100,240
4,72,100,0
4,68,100,0
4,75,100,240
4,72,100,0
4,68,100,0
4,75,100,0
4,72,100,0
4,66,100,0
4,42,80,0
4,30,80,0
4,75,100,240
4,72,100,0
4,66,100,0
4,75,100,240
4,72,100,0
4,66,100,0
4,75,100,240
4,72,100,0
4,66,100,0
4,65,100,0
4,68,100,0
4,73,100,0
4,41,80,0
4,29,80,0
4,73,100,240
4,68,100,0
4,65,100,0
4,65,100,240
4,68,100,0
4,73,100,0
4,73,100,240
4,68,100,0
4,65,100,0
4,64,100,0
4,68,100,0
4,71,100,0
4,40,80,0
4,28,80,0
4,64,100,240
4,68,100,0
4,71,100,0
4,64,100,240
4,68,100,0
4,71,100,0
4,64,100,240
4,68,100,0
4,71,100,0
4,66,100,0
4,70,100,0
4,73,100,0
4,42,80,0
4,30,80,0
4,66,100,240
4,70,100,0
4,73,100,0
4,66,100,240
4,70,100,0
4,73,100,0
4,66,100,240
4,70,100,0
4,73,100,0
4,75,100,0
4,71,100,0
4,68,100,0
4,32,80,0
4,73,100,0
4,70,100,0
4,66,100,0
4,30,80,0
4,65,115,240
