track,note,velocity,time
1,72,80,0
1,67,80,0
1,72,0,144
1,67,0,0
1,70,80,36
1,65,80,0
1,70,0,48
1,65,0,0
1,61,80,132
1,66,80,0
1,61,0,144
1,66,0,0
1,60,80,36
1,65,80,0
1,60,0,48
1,65,0,0
1,72,80,72
1,67,80,0
1,72,0,144
1,67,0,0
1,66,80,36
1,62,80,0
1,66,0,48
1,62,0,0
1,63,80,132
1,68,80,0
1,63,0,144
1,68,0,0
1,62,80,36
1,67,80,0
1,62,0,48
1,67,0,0
1,72,80,72
1,67,80,0
1,72,0,144
1,67,0,0
1,70,80,36
1,65,80,0
1,70,0,48
1,65,0,0
1,61,80,132
1,66,80,0
1,61,0,144
1,66,0,0
1,60,80,36
1,65,80,0
1,60,0,48
1,65,0,0
1,67,80,72
1,72,80,0
1,67,0,144
1,72,0,0
1,62,80,36
1,66,80,0
1,62,0,48
1,66,0,0
1,63,80,132
1,68,80,0
1,63,0,144
1,68,0,0
1,62,80,36
1,67,80,0
1,62,0,48
1,67,0,0
1,72,80,72
1,72,0,48
1,70,80,12
1,70,0,48
1,67,80,12
1,67,0,48
1,73,80,12
1,73,0,48
1,67,80,12
1,67,0,48
1,65,80,12
1,65,0,48
1,70,80,12
1,70,0,48
1,68,80,12
1,68,0,48
1,65,80,12
1,65,0,48
1,67,80,12
1,67,0,48
1,63,80,12
1,63,0,48
1,60,80,12
1,60,0,48
1,62,80,12
1,62,0,48
1,63,80,12
1,63,0,48
1,65,80,12
1,65,0,48
1,67,80,12
1,67,0,48
1,68,80,12
1,68,0,48
1,69,80,12
1,69,0,48
1,70,80,12
1,70,0,48
1,75,80,12
1,75,0,48
1,70,80,12
1,70,0,48
1,75,80,12
1,75,0,48
1,72,80,12
1,72,0,48
1,70,80,12
1,70,0,48
1,67,80,12
1,67,0,48
1,73,80,12
1,73,0,48
1,67,80,12
1,67,0,48
1,65,80,12
1,65,0,48
1,70,80,12
1,70,0,48
1,68,80,12
1,68,0,48
1,65,80,12
1,65,0,48
1,67,80,12
1,67,0,48
1,63,80,12
1,63,0,48
1,60,80,12
1,60,0,48
1,62,80,12
1,62,0,48
1,63,80,12
1,63,0,48
1,65,80,12
1,65,0,48
1,67,80,12
1,67,0,48
1,68,80,12
1,68,0,48
1,69,80,12
1,69,0,48
1,70,80,12
1,70,0,48
1,75,80,12
1,75,0,48
1,70,80,12
1,70,0,48
1,75,80,12
1,75,0,48
1,72,80,12
1,72,0,48
1,70,80,12
1,70,0,48
1,67,80,12
1,67,0,48
1,73,80,12
1,73,0,48
1,67,80,12
1,67,0,48
1,65,80,12
1,65,0,48
1,70,80,12
1,70,0,48
1,68,80,12
1,68,0,48
1,65,80,12
1,65,0,48
1,67,80,12
1,67,0,48
1,63,80,12
1,63,0,48
1,60,80,12
1,60,0,48
1,62,80,12
1,62,0,48
1,63,80,12
1,63,0,48
1,65,80,12
1,65,0,48
1,67,80,12
1,67,0,48
1,68,80,12
1,68,0,48
1,69,80,12
1,69,0,48
1,70,80,12
1,70,0,48
1,75,80,12
1,75,0,48
1,70,80,12
1,70,0,48
1,75,80,12
1,75,0,48
1,72,80,12
1,72,0,96
1,75,80,24
1,70,80,0
1,75,0,48
1,70,0,0
1,63,80,12
1,63,0,48
1,67,80,12
1,67,0,48
1,73,80,12
1,70,80,0
1,73,0,48
1,70,0,0
1,68,80,12
1,68,0,48
1,66,80,12
1,66,0,48
1,73,80,12
1,68,80,0
1,73,0,48
1,68,0,0
1,65,80,12
1,65,0,48
1,61,80,12
1,61,0,48
1,66,80,12
1,73,80,0
1,66,0,48
1,73,0,0
1,65,80,12
1,65,0,48
1,67,80,12
1,67,0,48
1,68,80,12
1,68,0,48
1,71,80,12
1,71,0,48
1,74,80,12
1,74,0,48
1,75,80,12
1,75,0,48
1,72,80,12
1,72,0,48
1,65,80,12
1,65,0,48
1,72,80,12
1,72,0,48
1,77,80,12
1,77,0,48
1,77,80,12
1,77,0,48
1,65,80,12
1,65,0,48
1,72,80,12
1,72,0,48
1,77,80,12
1,77,0,48
1,65,80,12
1,65,0,48
1,73,80,12
1,73,0,48
1,77,80,12
1,77,0,48
1,65,80,12
1,65,0,48
1,72,80,12
1,72,0,48
1,77,80,12
1,77,0,48
1,67,80,12
1,72,80,0
1,76,80,0
1,67,0,96
1,72,0,0
1,76,0,0
1,72,80,24
1,77,80,0
1,72,0,48
1,77,0,0
1,67,80,12
1,67,0,48
1,68,80,12
1,68,0,48
1,75,80,12
1,72,80,0
1,75,0,48
1,72,0,0
1,70,80,12
1,70,0,48
1,68,80,12
1,68,0,48
1,70,80,12
1,75,80,0
1,70,0,48
1,75,0,0
1,67,80,12
1,67,0,48
1,63,80,12
1,63,0,48
1,68,80,12
1,75,80,0
1,68,0,48
1,75,0,0
1,67,80,12
1,67,0,48
1,68,80,12
1,68,0,48
1,70,80,12
1,70,0,48
1,73,80,12
1,73,0,48
1,75,80,12
1,75,0,48
1,77,80,12
1,77,0,48
1,74,80,12
1,74,0,48
1,67,80,12
1,67,0,48
1,74,80,12
1,74,0,48
1,79,80,12
1,79,0,48
1,79,80,12
1,79,0,48
1,67,80,12
1,67,0,48
1,74,80,12
1,74,0,48
1,79,80,12
1,79,0,48
1,67,80,12
1,67,0,48
1,75,80,12
1,75,0,48
1,79,80,12
1,79,0,48
1,67,80,12
1,67,0,48
1,74,80,12
1,74,0,48
1,79,80,12
1,79,0,48
1,69,80,12
1,74,80,0
1,78,80,0
1,69,0,48
1,74,0,0
1,78,0,0
1,71,80,72
1,79,80,0
1,71,0,48
1,79,0,0
1,74,80,12
1,74,0,48
1,72,80,12
1,72,0,48
1,69,80,12
1,69,0,48
1,75,80,12
1,75,0,48
1,74,80,12
1,74,0,48
1,69,80,12
1,69,0,48
1,77,80,12
1,77,0,48
1,75,80,12
1,75,0,48
1,69,80,12
1,69,0,48
1,79,80,12
1,79,0,48
1,77,80,12
1,77,0,48
1,74,80,12
1,74,0,48
1,75,80,12
1,75,0,48
1,72,80,12
1,72,0,48
1,74,80,12
1,74,0,48
1,69,80,12
1,69,0,48
1,74,80,12
1,74,0,48
1,72,80,12
1,72,0,48
1,69,80,12
1,69,0,48
1,75,80,12
1,75,0,48
1,74,80,12
1,74,0,48
1,69,80,12
1,69,0,48
1,77,80,12
1,77,0,48
1,75,80,12
1,75,0,48
1,69,80,12
1,69,0,48
1,79,80,12
1,79,0,48
1,77,80,12
1,77,0,48
1,65,80,12
1,65,0,48
1,70,80,12
1,70,0,48
1,74,80,12
1,74,0,48
1,65,80,12
1,65,0,48
1,70,80,12
1,70,0,48
1,75,80,12
1,75,0,48
1,65,80,12
1,65,0,48
1,70,80,12
1,70,0,48
1,74,80,12
1,74,0,48
1,72,80,12
1,72,0,48
1,70,80,12
1,70,0,48
1,74,80,12
1,74,0,48
1,72,80,12
1,65,80,0
1,69,80,0
1,72,0,96
1,65,0,0
1,69,0,0
1,65,80,24
1,69,80,0
1,72,80,0
1,65,0,96
1,69,0,0
1,72,0,0
1,69,80,24
1,69,0,48
1,74,80,12
1,74,0,48
1,72,80,12
1,72,0,48
1,69,80,12
1,69,0,48
1,75,80,12
1,75,0,48
1,74,80,12
1,74,0,48
1,69,80,12
1,69,0,48
1,77,80,12
1,77,0,48
1,75,80,12
1,75,0,48
1,69,80,12
1,69,0,48
1,79,80,12
1,79,0,48
1,77,80,12
1,77,0,48
1,74,80,12
1,74,0,48
1,75,80,12
1,75,0,48
1,72,80,12
1,72,0,48
1,74,80,12
1,74,0,48
1,69,80,12
1,69,0,48
1,74,80,12
1,74,0,48
1,72,80,12
1,72,0,48
1,69,80,12
1,69,0,48
1,75,80,12
1,75,0,48
1,74,80,12
1,74,0,48
1,69,80,12
1,69,0,48
1,77,80,12
1,77,0,48
1,75,80,12
1,75,0,48
1,69,80,12
1,69,0,48
1,79,80,12
1,79,0,48
1,77,80,12
1,77,0,48
1,65,80,12
1,65,0,48
1,70,80,12
1,70,0,48
1,74,80,12
1,74,0,48
1,65,80,12
1,65,0,48
1,70,80,12
1,70,0,48
1,75,80,12
1,75,0,48
1,65,80,12
1,65,0,48
1,70,80,12
1,70,0,48
1,74,80,12
1,74,0,48
1,72,80,12
1,72,0,48
1,70,80,12
1,70,0,48
1,74,80,12
1,74,0,48
1,72,80,12
1,65,80,0
1,69,80,0
1,72,0,96
1,65,0,0
1,69,0,0
1,65,80,24
1,69,80,0
1,72,80,0
1,65,0,96
1,69,0,0
1,72,0,0
1,65,80,24
1,65,0,48
1,70,80,12
1,70,0,48
1,74,80,12
1,74,0,48
1,65,80,12
1,65,0,48
1,70,80,12
1,70,0,48
1,75,80,12
1,75,0,48
1,65,80,12
1,65,0,48
1,70,80,12
1,70,0,48
1,74,80,12
1,74,0,48
1,72,80,12
1,72,0,48
1,70,80,12
1,70,0,48
1,74,80,12
1,74,0,48
1,65,80,12
1,69,80,0
1,72,80,0
1,65,0,96
1,69,0,0
1,72,0,0
1,65,80,24
1,69,80,0
1,72,80,0
1,65,0,96
1,69,0,0
1,72,0,0
1,67,80,24
1,67,0,48
1,72,80,12
1,72,0,48
1,75,80,12
1,75,0,48
1,67,80,12
1,67,0,48
1,72,80,12
1,72,0,48
1,74,80,12
1,74,0,48
1,67,80,12
1,67,0,48
1,72,80,12
1,72,0,48
1,75,80,12
1,75,0,48
1,67,80,12
1,67,0,48
1,72,80,12
1,72,0,48
1,77,80,12
1,77,0,48
1,79,80,12
1,79,0,48
1,74,80,12
1,74,0,48
1,72,80,12
1,72,0,48
1,67,80,12
1,67,0,48
1,65,80,12
1,65,0,48
1,68,80,12
1,68,0,48
1,72,80,12
1,72,0,48
1,75,80,12
1,75,0,48
1,74,80,12
1,74,0,48
1,72,80,12
1,72,0,48
1,67,80,12
1,67,0,48
1,71,80,12
1,71,0,48
1,75,80,12
1,75,0,48
1,74,80,12
1,74,0,48
1,77,80,12
1,77,0,48
1,80,80,12
1,80,0,48
1,74,80,12
1,74,0,48
1,77,80,12
1,77,0,48
1,79,80,12
1,79,0,48
1,82,80,12
1,82,0,48
1,84,80,12
1,84,0,48
1,86,80,12
1,86,0,48
1,87,80,12
1,87,0,48
1,89,80,12
1,89,0,48
1,87,80,12
1,87,0,48
1,84,80,12
1,84,0,48
1,82,80,12
1,82,0,48
1,86,80,12
1,86,0,48
1,84,80,12
1,84,0,48
1,80,80,12
1,80,0,48
1,79,80,12
1,79,0,48
1,84,80,12
1,84,0,48
1,78,80,12
1,78,0,48
1,81,80,12
1,81,0,48
1,84,80,12
1,84,0,48
1,81,80,12
1,81,0,48
1,78,80,12
1,78,0,48
1,81,80,12
1,81,0,48
1,84,80,12
1,84,0,48
1,83,80,12
1,83,0,48
1,79,80,12
1,71,80,0
1,79,0,288
1,71,0,0
1,74,80,12
1,74,0,48
1,79,80,12
1,79,0,48
1,72,80,12
1,72,0,48
1,74,80,12
1,74,0,48
1,79,80,12
1,79,0,48
1,68,80,12
1,80,80,0
1,68,0,48
1,80,0,0
1,79,80,12
1,79,0,48
1,74,80,12
1,74,0,48
1,79,80,12
1,79,0,48
1,74,80,12
1,74,0,48
1,79,80,12
1,79,0,48
1,72,80,12
1,72,0,48
1,70,80,12
1,70,0,48
1,74,80,12
1,74,0,48
1,69,80,12
1,69,0,48
1,74,80,12
1,74,0,48
1,67,80,12
1,67,0,48
1,69,80,12
1,69,0,48
1,70,80,12
1,70,0,48
1,72,80,12
1,72,0,48
1,67,80,12
1,67,0,48
1,63,80,12
1,63,0,48
1,67,80,12
1,67,0,48
1,62,80,12
1,62,0,48
1,67,80,12
1,67,0,48
1,60,80,12
1,60,0,48
1,58,80,12
1,58,0,48
1,62,80,12
1,62,0,48
1,57,80,12
1,57,0,96
1,55,80,24
1,55,0,252
1,67,80,48
1,72,80,0
1,67,0,144
1,72,0,0
1,65,80,36
1,70,80,0
1,65,0,48
1,70,0,0
1,66,80,132
1,61,80,0
1,66,0,144
1,61,0,0
1,65,80,36
1,60,80,0
1,65,0,48
1,60,0,0
1,67,80,72
1,72,80,0
1,67,0,144
1,72,0,0
1,62,80,36
1,66,80,0
1,62,0,48
1,66,0,0
1,68,80,132
1,63,80,0
1,68,0,144
1,63,0,0
1,67,80,36
1,62,80,0
1,67,0,48
1,62,0,0
1,67,80,72
1,72,80,0
1,67,0,144
1,72,0,0
1,65,80,36
1,70,80,0
1,65,0,48
1,70,0,0
1,66,80,132
1,61,80,0
1,66,0,144
1,61,0,0
1,65,80,36
1,60,80,0
1,65,0,48
1,60,0,0
1,60,80,72
1,60,0,48
1,62,80,12
1,62,0,48
1,63,80,12
1,63,0,48
1,65,80,12
1,65,0,48
1,67,80,12
1,67,0,48
1,68,80,12
1,68,0,48
1,69,80,12
1,69,0,48
1,70,80,12
1,70,0,48
1,75,80,12
1,75,0,48
1,70,80,12
1,70,0,48
1,75,80,12
1,75,0,48
1,72,80,12
1,67,80,0
1,72,0,144
1,67,0,0
1,70,80,36
1,65,80,0
1,70,0,48
1,65,0,0
1,61,80,132
1,66,80,0
1,61,0,144
1,66,0,0
1,60,80,36
1,65,80,0
1,60,0,48
1,65,0,0
1,72,80,72
1,67,80,0
1,72,0,144
1,67,0,0
1,66,80,36
1,62,80,0
1,66,0,48
1,62,0,0
1,63,80,132
1,68,80,0
1,63,0,144
1,68,0,0
1,62,80,36
1,67,80,0
1,62,0,48
1,67,0,0
1,72,80,72
1,67,80,0
1,72,0,144
1,67,0,0
1,70,80,36
1,65,80,0
1,70,0,48
1,65,0,0
1,61,80,132
1,66,80,0
1,61,0,144
1,66,0,0
1,60,80,36
1,65,80,0
1,60,0,48
1,65,0,0
1,60,80,72
1,60,0,48
1,62,80,12
1,62,0,48
1,63,80,12
1,63,0,48
1,65,80,12
1,65,0,48
1,67,80,12
1,67,0,48
1,68,80,12
1,68,0,48
1,69,80,12
1,69,0,48
1,70,80,12
1,70,0,48
1,75,80,12
1,75,0,48
1,70,80,12
1,70,0,48
1,75,80,12
1,75,0,48
1,72,80,12
1,72,0,96
1,69,80,24
1,69,0,48
1,65,80,12
1,65,0,48
1,64,80,12
1,64,0,48
1,70,80,12
1,70,0,48
1,65,80,12
1,65,0,48
1,64,80,12
1,64,0,48
1,72,80,12
1,72,0,48
1,68,80,12
1,68,0,48
1,63,80,12
1,63,0,48
1,74,80,12
1,74,0,48
1,68,80,12
1,68,0,48
1,63,80,12
1,63,0,48
1,75,80,12
1,72,80,0
1,68,80,0
1,75,0,96
1,72,0,0
1,68,0,0
1,77,80,24
1,72,80,0
1,68,80,0
1,77,0,96
1,72,0,0
1,68,0,0
1,79,80,24
1,79,0,48
1,74,80,12
1,74,0,48
1,72,80,12
1,72,0,48
1,69,80,12
1,69,0,48
1,70,80,12
1,70,0,48
1,67,80,12
1,67,0,48
1,66,80,12
1,66,0,48
1,69,80,12
1,69,0,48
1,74,80,12
1,74,0,48
1,69,80,12
1,69,0,48
1,66,80,12
1,66,0,48
1,69,80,12
1,69,0,48
1,72,80,12
1,72,0,48
1,71,80,12
1,71,0,48
1,67,80,12
1,67,0,96
1,79,80,444
1,79,0,48
1,80,80,12
1,80,0,48
1,82,80,12
1,82,0,48
1,84,80,12
1,84,0,48
1,79,80,12
1,79,0,48
1,75,80,12
1,75,0,48
1,79,80,12
1,79,0,48
1,74,80,12
1,74,0,48
1,79,80,12
1,79,0,48
1,72,80,12
1,72,0,48
1,70,80,12
1,70,0,48
1,74,80,12
1,74,0,48
1,69,80,12
1,69,0,48
1,74,80,12
1,74,0,48
1,67,80,12
1,67,0,48
1,69,80,12
1,69,0,48
1,70,80,12
1,70,0,48
1,72,80,12
1,72,0,48
1,67,80,12
1,67,0,48
1,63,80,12
1,63,0,48
1,67,80,12
1,67,0,48
1,62,80,12
1,62,0,48
1,67,80,12
1,67,0,48
1,60,80,12
1,60,0,48
1,58,80,12
1,58,0,48
1,62,80,12
1,62,0,48
1,57,80,12
1,57,0,48
