track,note,velocity,time
0,48,82,0
0,60,100,0
0,42,82,0
0,36,102,0
0,40,102,0
0,36,82,0
0,36,0,13
0,42,0,5
0,40,0,3
0,48,0,8
0,36,0,0
0,60,0,0
0,48,73,1
0,36,73,0
0,60,64,0
0,60,0,29
0,36,0,0
0,48,0,0
0,36,82,1
0,48,82,0
0,60,82,0
0,42,91,0
0,40,100,0
0,40,0,20
0,42,0,1
0,36,0,8
0,48,0,0
0,60,0,0
0,36,91,1
0,60,91,0
0,48,82,0
0,36,82,0
0,36,0,12
0,60,0,17
0,48,0,0
0,36,0,0
0,42,91,1
0,42,0,20
0,40,101,10
0,36,100,3
0,48,100,0
0,60,100,2
0,40,0,13
0,42,109,12
0,36,0,2
0,48,0,0
0,60,0,2
0,42,0,16
0,40,101,10
0,36,91,0
0,36,0,10
0,40,0,2
0,40,100,18
0,40,0,16
0,36,91,14
0,48,91,0
0,24,91,0
0,36,91,0
0,57,102,0
0,57,0,9
0,36,0,2
0,42,91,79
0,36,82,0
0,36,0,12
0,42,0,8
0,24,0,39
0,48,0,0
0,36,0,0
0,42,100,1
0,42,0,20
0,36,60,10
0,36,0,4
0,42,82,26
0,36,82,0
0,36,102,0
0,48,82,0
0,60,100,0
0,40,102,0
0,36,0,13
0,42,0,5
0,40,0,3
0,36,0,8
0,48,0,0
0,60,0,0
0,36,73,1
0,48,73,0
0,60,64,0
0,60,0,29
0,48,0,0
0,36,0,0
0,48,82,1
0,40,100,0
0,36,82,0
0,42,91,0
0,60,82,0
0,40,0,20
0,42,0,1
0,48,0,8
0,36,0,0
0,60,0,0
0,36,91,1
0,48,82,0
0,60,91,0
0,36,82,0
0,36,0,12
0,48,0,17
0,60,0,0
0,36,0,0
0,42,91,1
0,42,0,20
0,40,101,10
0,48,100,3
0,36,100,0
0,60,100,2
0,40,0,13
0,42,109,12
0,48,0,2
0,36,0,0
0,60,0,2
0,42,0,16
0,36,91,10
0,40,101,0
0,36,0,10
0,40,0,2
0,40,100,18
0,40,0,16
0,24,91,14
0,57,102,0
0,48,91,0
0,36,91,0
0,36,91,0
0,57,0,9
0,36,0,2
0,42,91,79
0,36,82,0
0,36,0,12
0,42,0,8
0,36,0,39
0,48,0,0
0,24,0,0
0,42,100,1
0,42,0,20
0,36,60,10
0,36,0,4
0,36,82,26
0,48,82,0
0,36,102,0
0,60,100,0
0,40,102,0
0,42,82,0
0,36,0,13
0,42,0,5
0,40,0,3
0,36,0,8
0,48,0,0
0,60,0,0
0,48,73,1
0,60,64,0
0,36,73,0
0,36,0,29
0,60,0,0
0,48,0,0
0,42,91,1
0,48,82,0
0,60,82,0
0,40,100,0
0,36,82,0
0,40,0,20
0,42,0,1
0,48,0,8
0,60,0,0
0,36,0,0
0,60,91,1
0,36,82,0
0,48,82,0
0,36,91,0
0,36,0,12
0,60,0,17
0,36,0,0
0,48,0,0
0,42,91,1
0,42,0,20
0,40,101,10
0,48,100,3
0,36,100,0
0,60,100,2
0,40,0,13
0,42,109,12
0,48,0,2
0,36,0,0
0,60,0,2
0,42,0,16
0,36,91,10
0,40,101,0
0,36,0,10
0,40,0,2
0,40,100,18
0,40,0,16
0,24,91,14
0,48,91,0
0,36,91,0
0,57,102,0
0,36,91,0
0,57,0,9
0,36,0,2
0,36,82,79
0,42,91,0
0,36,0,12
0,42,0,8
0,36,0,39
0,48,0,0
0,24,0,0
0,42,100,1
0,42,0,20
0,36,60,10
0,36,0,4
0,48,82,26
0,36,102,0
0,42,82,0
0,60,100,0
0,36,82,0
0,40,102,0
0,36,0,13
0,42,0,5
0,40,0,3
0,48,0,8
0,60,0,0
0,36,0,0
0,60,64,1
0,48,73,0
0,36,73,0
0,36,0,29
0,48,0,0
0,60,0,0
0,60,82,1
0,36,82,0
0,48,82,0
0,40,100,0
0,42,91,0
0,40,0,20
0,42,0,1
0,60,0,8
0,36,0,0
0,48,0,0
0,48,82,1
0,60,91,0
0,36,82,0
0,36,91,0
0,36,0,12
0,48,0,17
0,60,0,0
0,36,0,0
0,42,91,1
0,42,0,20
0,40,101,10
0,48,100,3
0,36,100,0
0,60,100,2
0,40,0,13
0,42,109,12
0,48,0,2
0,36,0,0
0,60,0,2
0,42,0,16
0,36,91,10
0,40,101,0
0,36,0,10
0,40,0,2
0,40,100,18
0,40,0,16
0,48,91,14
0,24,91,0
0,36,91,0
0,57,102,0
0,36,91,0
0,57,0,9
0,36,0,2
0,48,0,79
0,24,0,0
0,36,0,0
0,57,1,0
0,36,82,0
0,36,0,12
0,57,0,0
0,40,102,108
0,60,100,0
0,36,82,0
0,48,82,0
0,36,102,0
0,57,127,0
0,42,82,0
0,64,100,3
0,76,91,2
0,67,82,2
0,72,91,1
0,57,0,5
0,36,0,0
0,42,0,5
0,40,0,3
0,60,0,8
0,48,0,0
0,36,0,0
0,36,73,1
0,48,73,0
0,60,64,0
0,60,0,29
0,36,0,0
0,48,0,0
0,42,91,1
0,40,100,0
0,48,82,0
0,60,82,0
0,36,82,0
0,40,0,20
0,42,0,1
0,36,0,8
0,60,0,0
0,48,0,0
0,36,91,1
0,60,91,0
0,48,82,0
0,36,82,0
0,36,0,12
0,36,0,17
0,60,0,0
0,48,0,0
0,42,91,1
0,42,0,20
0,40,101,10
0,48,100,3
0,36,100,0
0,60,100,2
0,40,0,13
0,42,109,12
0,36,0,2
0,48,0,0
0,60,0,2
0,42,0,16
0,40,101,10
0,36,91,0
0,36,0,10
0,40,0,2
0,40,100,18
0,40,0,16
0,36,91,14
0,57,102,0
0,48,91,0
0,24,91,0
0,36,91,0
0,57,0,9
0,36,0,2
0,64,0,76
0,62,91,0
0,36,82,3
0,42,91,0
0,76,0,1
0,74,82,2
0,36,0,9
0,42,0,8
0,74,0,31
0,79,82,6
0,24,0,2
0,36,0,0
0,48,0,0
0,67,109,0
0,42,100,1
0,62,0,6
0,42,0,14
0,36,60,10
0,36,0,4
0,67,0,2
0,76,56,16
0,69,91,0
0,79,0,2
0,77,16,5
0,77,0,0
0,36,82,1
0,42,82,0
0,40,102,0
0,60,100,0
0,48,82,0
0,64,91,0
0,36,102,0
0,67,0,4
0,36,0,9
0,42,0,5
0,40,0,3
0,60,0,8
0,36,0,0
0,48,0,0
0,48,73,1
0,60,64,0
0,36,73,0
0,36,0,29
0,48,0,0
0,60,0,0
0,60,82,1
0,40,100,0
0,36,82,0
0,48,82,0
0,42,91,0
0,40,0,20
0,42,0,1
0,48,0,8
0,60,0,0
0,36,0,0
0,60,91,1
0,36,91,0
0,36,82,0
0,48,82,0
0,36,0,12
0,48,0,17
0,60,0,0
0,36,0,0
0,42,91,1
0,42,0,20
0,40,101,10
0,48,100,3
0,36,100,0
0,60,100,2
0,40,0,13
0,42,109,12
0,36,0,2
0,48,0,0
0,60,0,2
0,42,0,16
0,40,101,10
0,36,91,0
0,36,0,10
0,40,0,2
0,40,100,18
0,40,0,16
0,36,91,14
0,36,91,0
0,57,102,0
0,24,91,0
0,48,91,0
0,57,0,9
0,36,0,2
0,76,0,73
0,62,91,6
0,36,82,0
0,42,91,0
0,64,0,2
0,74,64,1
0,36,0,9
0,72,0,0
0,42,0,8
0,72,91,37
0,36,0,2
0,24,0,0
0,48,0,0
0,60,73,0
0,42,100,1
0,62,0,4
0,74,0,1
0,42,0,15
0,36,60,10
0,36,0,4
0,69,0,11
0,62,91,11
0,74,100,1
0,71,91,0
0,67,100,2
0,60,0,1
0,60,100,0
0,36,82,0
0,48,82,0
0,42,82,0
0,36,102,0
0,40,102,0
0,72,0,5
0,36,0,1
0,42,0,1
0,40,0,2
0,48,0,1
0,60,0,0
0,36,0,0
0,36,73,1
0,48,73,0
0,60,64,0
0,60,0,1
0,36,0,0
0,48,0,0
0,36,82,1
0,60,82,0
0,48,82,0
0,42,91,0
0,40,100,0
0,40,0,3
0,42,0,1
0,48,0,6
0,36,0,0
0,60,0,0
0,36,91,1
0,48,82,0
0,60,91,0
0,36,82,0
0,36,0,1
0,36,0,5
0,48,0,0
0,60,0,0
0,42,91,1
0,42,0,2
0,40,101,3
0,36,100,3
0,48,100,0
0,60,100,2
0,40,0,13
0,42,109,12
0,48,0,2
0,36,0,0
0,60,0,2
0,42,0,16
0,36,91,10
0,40,101,0
0,36,0,10
0,40,0,1
0,67,0,7
0,71,0,0
0,74,0,1
0,40,100,0
0,64,100,0
0,67,91,0
0,72,100,0
0,76,100,0
0,74,73,1
0,62,0,2
0,74,0,2
0,40,0,6
0,48,91,14
0,36,91,0
0,36,91,0
0,24,91,0
0,57,102,0
0,57,0,9
0,36,0,2
0,67,0,71
0,72,0,3
0,76,0,0
0,65,100,4
0,74,91,1
0,42,91,0
0,36,82,0
0,67,91,3
0,77,82,1
0,64,0,3
0,36,0,5
0,42,0,8
0,48,0,39
0,36,0,0
0,24,0,0
0,42,100,1
0,42,0,20
0,36,60,10
0,36,0,4
0,77,0,11
0,74,0,7
0,67,0,1
0,67,100,6
0,63,100,1
0,51,82,0
0,36,102,0
0,39,82,0
0,70,82,0
0,42,82,0
0,40,102,0
0,79,100,3
0,75,91,3
0,65,0,1
0,36,0,6
0,42,0,5
0,40,0,3
0,51,0,8
0,39,0,0
0,63,0,0
0,39,73,1
0,63,64,0
0,51,73,0
0,51,0,29
0,39,0,0
0,63,0,0
0,42,91,1
0,40,100,0
0,39,82,0
0,51,82,0
0,63,82,0
0,40,0,20
0,42,0,1
0,63,0,8
0,51,0,0
0,39,0,0
0,51,82,1
0,39,82,0
0,63,91,0
0,36,91,0
0,36,0,12
0,63,0,1
0,51,0,0
0,39,0,0
0,42,91,1
0,42,0,1
0,40,101,1
0,51,100,3
0,39,100,0
0,63,100,0
0,40,0,1
0,42,109,1
0,39,0,2
0,51,0,0
0,63,0,2
0,42,0,1
0,36,91,1
0,40,101,0
0,36,0,1
0,40,0,2
0,40,100,2
0,40,0,6
0,27,91,2
0,36,91,0
0,57,102,0
0,51,91,0
0,39,91,0
0,57,0,9
0,36,0,2
0,70,0,1
0,75,0,13
0,79,0,1
0,67,0,1
0,65,91,0
0,78,64,1
0,75,73,1
0,42,91,0
0,36,82,0
0,70,73,5
0,77,91,0
0,36,0,7
0,78,0,6
0,42,0,2
0,70,91,38
0,39,0,1
0,27,0,0
0,51,0,0
0,42,100,1
0,82,73,3
0,65,0,3
0,42,0,14
0,36,60,10
0,36,0,4
0,82,0,16
0,70,0,1
0,67,100,6
0,77,0,1
0,70,0,1
0,40,102,1
0,36,102,0
0,39,82,0
0,42,82,0
0,63,100,0
0,51,82,0
0,72,82,3
0,68,82,0
0,79,73,2
0,36,0,8
0,42,0,5
0,40,0,3
0,51,0,8
0,39,0,0
0,63,0,0
0,39,73,1
0,63,64,0
0,51,73,0
0,51,0,29
0,63,0,0
0,39,0,0
0,51,82,1
0,40,100,0
0,39,82,0
0,63,82,0
0,42,91,0
0,40,0,20
0,42,0,1
0,39,0,1
0,63,0,0
0,51,0,0
0,51,82,0
0,63,91,0
0,39,82,0
0,36,91,0
0,36,0,1
0,39,0,2
0,63,0,0
0,51,0,0
0,42,91,1
0,42,0,1
0,40,101,0
0,39,100,3
0,51,100,0
0,63,100,2
0,40,0,4
0,42,109,5
0,51,0,2
0,39,0,0
0,63,0,2
0,42,0,2
0,36,91,3
0,40,101,0
0,36,0,4
0,40,0,1
0,40,100,13
0,40,0,6
0,39,91,3
0,36,91,0
0,27,91,0
0,57,102,0
0,51,91,0
0,57,0,1
0,36,0,2
0,79,0,25
0,65,109,4
0,42,91,1
0,36,82,0
0,67,0,2
0,77,82,1
0,36,0,1
0,75,0,2
0,42,0,1
0,75,91,12
0,27,0,4
0,51,0,0
0,39,0,0
0,63,82,1
0,42,100,0
0,65,0,5
0,77,0,2
0,42,0,3
0,36,60,1
0,36,0,1
0,72,0,1
0,68,0,0
0,65,100,6
0,75,0,1
0,74,100,2
0,70,100,1
0,77,82,0
0,51,82,1
0,36,102,0
0,39,82,0
0,40,102,0
0,42,82,0
0,63,100,0
0,63,0,2
0,36,0,11
0,42,0,5
0,40,0,3
0,39,0,8
0,51,0,0
0,63,0,0
0,39,73,1
0,63,64,0
0,51,73,0
0,51,0,29
0,39,0,0
0,63,0,0
0,51,82,1
0,63,82,0
0,42,91,0
0,39,82,0
0,40,100,0
0,40,0,20
0,42,0,1
0,39,0,8
0,51,0,0
0,63,0,0
0,36,91,1
0,51,82,0
0,63,91,0
0,39,82,0
0,36,0,12
0,39,0,17
0,51,0,0
0,63,0,0
0,42,91,1
0,42,0,20
0,40,101,10
0,51,100,3
0,39,100,0
0,63,100,2
0,40,0,13
0,42,109,12
0,39,0,2
0,51,0,0
0,63,0,2
0,42,0,16
0,36,91,10
0,40,101,0
0,77,0,6
0,74,0,2
0,36,0,2
0,70,0,1
0,40,0,1
0,67,100,9
0,70,56,3
0,75,73,0
0,79,91,1
0,65,0,4
0,40,100,1
0,40,0,16
0,36,91,14
0,51,91,0
0,27,91,0
0,39,91,0
0,57,102,0
0,57,0,9
0,36,0,2
0,70,0,65
0,79,0,3
0,68,100,7
0,77,73,2
0,75,0,1
0,70,64,0
0,36,82,1
0,42,91,0
0,67,0,1
0,80,64,2
0,36,0,9
0,42,0,8
0,27,0,39
0,39,0,0
0,51,0,0
0,42,100,1
0,42,0,20
0,36,60,10
0,36,0,4
0,77,0,19
0,80,0,0
0,70,0,0
0,68,0,1
0,43,100,3
0,31,100,2
0,36,91,1
0,55,110,0
0,74,100,0
0,79,100,0
0,42,110,0
0,70,100,1
0,82,91,2
0,67,91,0
0,62,82,0
0,70,91,2
0,31,0,20
0,43,0,0
0,55,0,4
0,42,0,0
0,36,0,0
0,31,64,31
0,42,91,0
0,42,0,29
0,31,0,0
0,42,73,1
0,31,73,0
0,31,0,29
0,42,0,0
0,40,100,1
0,31,82,0
0,62,0,23
0,70,0,0
0,67,0,2
0,31,0,4
0,40,0,0
0,74,0,16
0,82,0,2
0,79,0,2
0,69,91,10
0,42,91,1
0,79,82,0
0,36,48,0
0,31,91,0
0,70,0,2
0,81,82,0
0,67,91,1
0,74,91,1
0,69,91,1
0,62,91,1
0,42,0,23
0,36,0,0
0,31,0,0
0,31,64,1
0,42,82,0
0,69,0,26
0,67,0,0
0,62,0,2
0,42,0,1
0,31,0,0
0,42,91,1
0,31,82,0
0,36,82,0
0,79,0,28
0,31,0,1
0,42,0,0
0,36,0,0
0,81,0,2
0,74,0,3
0,75,82,23
0,67,73,1
0,62,73,0
0,67,82,2
0,42,109,0
0,31,100,0
0,58,91,0
0,74,91,2
0,69,0,1
0,70,91,0
0,79,91,0
0,75,0,2
0,31,0,24
0,42,0,0
0,40,89,31
0,31,91,0
0,31,0,29
0,40,0,0
0,40,84,1
0,31,64,0
0,70,0,10
0,67,0,2
0,79,0,8
0,67,0,4
0,65,64,0
0,77,73,1
0,65,82,1
0,70,82,1
0,40,0,2
0,31,0,0
0,40,80,1
0,31,82,0
0,62,0,9
0,58,0,1
0,65,0,4
0,65,0,0
0,40,0,15
0,31,0,0
0,42,100,1
0,70,0,8
0,74,0,3
0,77,0,1
0,42,0,2
0,42,100,1
0,67,91,12
0,72,91,0
0,79,91,0
0,64,82,1
0,67,91,0
0,60,91,0
0,42,0,1
0,76,82,0
0,42,110,1
0,31,109,0
0,36,91,0
0,36,0,29
0,31,0,0
0,42,0,0
0,42,91,31
0,31,100,0
0,31,0,29
0,42,0,0
0,31,73,1
0,42,73,0
0,42,0,29
0,31,0,0
0,31,73,1
0,40,100,0
0,40,0,29
0,31,0,0
0,42,91,31
0,31,100,0
0,36,48,0
0,36,0,29
0,31,0,0
0,42,0,0
0,31,82,1
0,42,82,0
0,72,0,9
0,76,0,4
0,64,0,3
0,60,0,0
0,79,0,2
0,67,0,2
0,81,91,4
0,72,91,0
0,76,82,0
0,42,0,5
0,31,0,0
0,69,82,0
0,31,82,1
0,42,91,0
0,36,82,0
0,69,100,1
0,60,73,1
0,64,73,0
0,67,0,7
