track,note,velocity,time
3,68,98,0
3,73,84,1
3,49,83,0
3,76,86,0
3,76,0,458
3,68,0,21
3,68,98,0
3,73,0,1
3,56,52,1
3,44,55,0
3,75,89,3
3,71,66,0
3,49,0,1
3,71,0,432
3,75,0,32
3,56,0,9
3,68,0,1
3,68,98,0
3,49,78,2
3,76,63,1
3,44,0,1
3,80,74,1
3,73,62,0
3,73,0,431
3,76,0,10
3,49,0,29
3,56,83,1
3,68,0,4
3,68,101,0
3,71,72,0
3,75,66,0
3,80,0,5
3,71,0,443
3,68,0,4
3,75,0,1
3,56,0,3
3,45,72,24
3,76,86,1
3,69,89,0
3,73,83,0
3,69,0,138
3,73,0,2
3,76,0,10
3,75,70,26
3,78,35,3
3,66,89,0
3,71,65,1
3,66,0,244
3,75,0,4
3,71,0,2
3,78,0,2
3,45,0,47
3,57,85,0
3,45,83,0
3,76,72,0
3,69,66,1
3,73,76,0
3,80,83,1
3,57,0,61
3,76,0,79
3,73,0,7
3,80,0,1
3,45,0,28
3,75,77,2
3,57,73,3
3,71,64,0
3,78,76,2
3,71,0,251
3,75,0,7
3,69,0,3
3,78,0,34
3,68,98,0
3,76,70,0
3,49,68,0
3,57,0,1
3,73,82,0
3,56,75,477
3,44,82,0
3,68,0,2
3,49,0,0
3,76,0,0
3,68,98,0
3,71,65,0
3,75,69,1
3,73,0,3
3,44,0,474
3,56,0,0
3,68,0,2
3,71,0,0
3,80,77,0
3,76,77,0
3,61,95,0
3,73,61,0
3,49,78,0
3,75,0,6
3,61,0,349
3,80,0,116
3,76,0,0
3,49,0,5
3,56,72,4
3,44,84,0
3,71,61,0
3,75,75,0
3,73,0,1
3,44,0,457
3,56,0,9
3,75,0,13
3,71,0,0
3,68,95,0
3,71,67,0
3,76,63,0
3,64,17,0
3,52,66,0
3,52,0,465
3,76,0,15
3,68,0,0
3,71,0,0
3,64,0,0
3,78,77,1
3,50,82,0
3,62,72,0
3,69,64,2
3,74,64,2
3,62,0,437
3,69,0,14
3,49,70,24
3,77,64,0
3,61,94,0
3,78,0,1
3,74,0,0
3,50,0,0
3,73,73,0
3,68,101,1
3,61,0,233
3,68,0,117
3,54,103,8
3,49,0,2
3,69,65,1
3,78,76,0
3,77,0,5
3,69,0,85
3,77,65,27
3,49,92,0
3,68,95,0
3,54,0,7
3,78,0,2
3,68,0,332
3,49,0,19
3,51,98,1
3,39,65,1
3,70,85,3
3,75,75,0
3,77,0,5
3,73,0,1
3,70,0,89
3,39,0,1
3,75,0,0
3,51,0,0
3,70,58,4339
3,63,67,0
3,67,62,0
3,75,69,2
3,67,0,7
3,63,0,10
3,65,75,7
3,70,0,3
3,68,70,0
3,72,64,5
3,65,0,25
3,75,0,7
3,68,0,5
3,67,91,9
3,75,85,0
3,70,81,0
3,72,0,1
3,75,0,225
3,67,0,2
3,70,0,8
3,70,83,1
3,75,103,3
3,66,98,5
3,66,0,224
3,70,0,1
3,75,0,8
3,75,88,2
3,68,82,5
3,64,70,1
3,75,0,232
3,66,86,2
3,75,88,0
3,64,0,1
3,71,65,4
3,68,0,5
3,75,0,348
3,66,0,0
3,71,0,5
3,68,58,2
3,73,60,0
3,65,65,0
3,65,0,106
3,73,0,9
3,75,53,0
3,68,0,5
3,70,69,0
3,67,77,1
3,67,0,228
3,75,0,2
3,75,89,4
3,68,64,0
3,65,83,0
3,70,0,5
3,65,0,213
3,68,0,10
3,75,0,0
3,75,89,12
3,70,70,0
3,67,70,1
3,67,0,226
3,70,0,1
3,75,0,0
3,75,88,12
3,66,94,0
3,70,54,0
3,66,0,225
3,75,0,6
3,75,63,7
3,70,0,3
3,68,79,0
3,64,85,0
3,64,0,218
3,75,0,9
3,75,33,12
3,68,0,1
3,66,97,0
3,71,64,2
3,75,0,357
3,65,64,0
3,66,0,1
3,71,0,2
3,68,73,2
3,73,63,1
3,65,0,99
3,67,70,15
3,70,61,0
3,73,0,4
3,68,0,1
3,75,45,1
3,67,0,10
3,70,0,3
3,75,0,9
3,44,89,33
3,68,95,0
3,71,66,1
3,75,54,1
3,80,82,2
3,68,0,455
3,75,0,5
3,71,0,1
3,44,0,12
3,66,35,3
3,70,104,0
3,54,74,0
3,75,35,0
3,80,0,6
3,78,67,0
3,70,0,435
3,75,0,3
3,66,0,0
3,78,0,2
3,54,0,6
3,78,56,2
3,73,79,0
3,70,66,2
3,61,75,2
3,49,64,1
3,73,0,441
3,61,0,16
3,70,0,14
3,78,0,4
3,78,56,0
3,59,64,3
3,49,0,1
3,47,69,0
3,82,85,0
3,71,78,1
3,75,74,0
3,82,0,226
3,75,0,3
3,78,0,6
3,80,73,4
3,75,68,0
3,77,75,1
3,77,0,216
3,75,0,9
3,71,0,2
3,59,0,1
3,80,0,5
3,71,66,6
3,82,84,1
3,75,82,0
3,78,70,1
3,78,0,223
3,71,0,6
3,75,0,3
3,82,0,1
3,71,73,6
3,75,78,1
3,80,74,1
3,77,85,0
3,71,0,225
3,75,0,1
3,80,0,6
3,46,94,1
3,77,0,1
3,77,66,0
3,70,103,2
3,80,60,1
3,75,65,1
3,47,0,4
3,70,0,217
3,75,0,2
3,77,0,5
3,80,0,2
3,75,64,5
3,79,66,0
3,70,109,7
3,70,0,233
3,46,0,0
3,75,0,0
3,79,0,0
3,46,94,0
3,77,67,0
3,75,64,0
3,70,95,1
3,80,69,5
3,77,0,204
3,70,0,10
3,80,0,1
3,75,0,19
3,74,83,5
3,65,86,1
3,70,75,1
3,65,0,215
3,70,0,6
3,74,0,3
3,46,0,9
3,47,91,0
3,82,62,0
3,71,78,0
3,78,83,0
3,75,85,2
3,59,67,1
3,59,0,211
3,78,0,9
3,75,0,5
3,71,0,1
3,80,72,10
3,82,0,1
3,77,72,0
3,75,77,5
3,71,89,0
3,80,0,215
3,77,0,1
3,75,0,13
3,71,0,5
3,82,82,1
3,75,66,5
3,71,48,0
3,78,76,1
3,78,0,226
3,75,0,9
3,75,54,2
3,82,0,2
3,80,64,1
3,77,76,3
3,75,0,109
3,47,0,2
3,71,65,0
3,73,75,3
3,71,0,2
3,49,68,0
3,71,0,56
3,73,0,11
3,75,56,16
3,51,78,0
3,79,85,0
3,70,82,0
3,77,0,2
3,49,0,3
3,80,0,1
3,70,0,131
3,77,65,9
3,53,70,6
3,75,0,1
3,79,0,0
3,75,65,0
3,80,85,0
3,51,0,3
3,77,0,230
3,53,0,4
3,75,0,3
3,80,0,0
3,55,60,4
3,75,76,2
3,70,88,0
3,82,94,0
3,75,0,224
3,75,50,10
3,55,0,1
3,78,63,3
3,54,81,1
3,70,0,225
3,78,0,10
3,75,0,0
3,52,65,0
3,71,66,0
3,75,65,0
3,80,65,0
3,82,0,4
3,54,0,1
3,52,0,230
3,71,0,5
3,71,66,3
3,78,74,1
3,47,65,0
3,75,0,2
3,80,0,0
3,75,89,2
3,71,0,347
3,71,58,4
3,73,58,1
3,77,64,1
3,49,78,1
3,78,0,2
3,47,0,1
3,75,0,3
3,71,0,104
3,73,0,1
3,75,73,7
3,70,58,0
3,67,66,0
3,77,0,1
3,49,0,1
3,51,70,1
3,51,0,10
3,67,0,22
3,75,0,0
3,70,0,0
3,75,73,0
3,68,64,0
3,72,70,0
3,53,70,0
3,65,65,2
3,65,0,213
3,55,70,19
3,70,64,0
3,67,56,2
3,72,0,4
3,53,0,0
3,75,0,0
3,68,0,0
3,75,56,0
3,70,0,225
3,67,0,11
3,75,0,4
3,75,77,0
3,78,77,0
3,55,0,3
3,70,67,4
3,54,84,0
3,78,0,208
3,75,0,0
3,70,0,12
3,64,69,13
3,76,79,1
3,71,70,2
3,80,66,2
3,52,70,2
3,54,0,6
3,64,0,227
3,75,73,0
3,76,0,1
3,71,0,2
3,52,0,1
3,80,0,1
3,47,76,1
3,59,67,0
3,78,55,1
3,59,0,327
3,56,61,26
3,49,61,0
3,77,79,0
3,78,0,2
3,47,0,5
3,75,0,105
3,56,0,8
3,77,0,0
3,49,0,0
3,63,64,0
3,67,65,0
3,75,65,0
3,70,59,2
3,51,51,0
3,75,0,25
3,63,0,0
3,67,0,0
3,82,86,0
3,71,78,0
3,75,88,0
3,78,73,0
3,70,0,2
3,51,0,0
3,71,0,153
3,78,0,0
3,75,0,4
3,82,0,26
3,82,86,0
3,78,76,0
3,73,91,0
3,70,81,2
3,70,0,219
3,73,0,0
3,78,0,1
3,82,0,11
3,72,106,1
3,81,97,0
3,78,92,0
3,75,92,0
3,75,0,69
3,78,0,1
3,81,0,4
3,72,0,0
3,77,83,2
3,73,94,2
3,80,78,3
3,68,86,3
3,77,0,229
3,73,0,6
3,80,0,4
3,68,0,0
3,80,77,12
3,68,109,0
3,73,82,1
3,75,88,1
3,68,0,231
3,73,0,1
3,75,0,1
3,68,107,6
3,75,92,0
3,72,119,2
3,75,0,2
3,68,0,0
3,80,0,2
3,72,0,0
3,68,98,0
3,73,84,1
3,49,83,0
3,76,86,0
3,76,0,458
3,68,0,21
3,68,98,0
3,73,0,1
3,56,52,1
3,44,55,0
3,75,89,3
3,71,66,0
3,49,0,1
3,71,0,432
3,75,0,32
3,56,0,9
3,68,0,1
3,68,98,0
3,49,78,2
3,76,63,1
3,44,0,1
3,80,74,1
3,73,62,0
3,73,0,431
3,76,0,10
3,49,0,29
3,56,83,1
3,68,0,4
3,68,101,0
3,71,72,0
3,75,66,0
3,80,0,5
3,71,0,443
3,68,0,4
3,75,0,1
3,56,0,3
3,68,95,24
3,71,67,0
3,76,63,0
3,64,17,0
3,52,66,0
3,52,0,465
3,76,0,15
3,68,0,0
3,71,0,0
3,64,0,0
3,78,77,1
3,50,82,0
3,62,72,0
3,69,64,2
3,74,64,2
3,62,0,437
3,69,0,14
3,49,70,24
3,61,94,0
3,77,64,0
3,78,0,1
3,74,0,0
3,50,0,0
3,73,73,0
3,68,101,1
3,79,78,355
3,51,98,1
3,70,109,1
3,49,0,1
3,77,0,0
3,61,0,0
3,75,84,0
3,73,0,1
3,68,0,1
3,70,0,1
3,75,0,1
3,51,0,1
3,79,0,1
3,44,89,1
3,68,95,0
3,71,66,1
3,75,54,1
3,80,82,2
3,68,0,455
3,75,0,5
3,71,0,1
3,44,0,12
3,66,35,3
3,70,104,0
3,54,74,0
3,75,35,0
3,80,0,6
3,78,67,0
3,70,0,435
3,75,0,3
3,66,0,0
3,78,0,2
3,54,0,6
3,78,56,2
3,73,79,0
3,70,66,2
3,61,75,2
3,49,64,1
3,73,0,441
3,61,0,16
3,70,0,14
3,78,0,4
3,78,56,0
3,59,64,3
3,49,0,1
3,47,69,0
3,82,85,0
3,71,78,1
3,75,74,0
3,82,0,226
3,75,0,3
3,78,0,6
3,80,73,4
3,75,68,0
3,77,75,1
3,77,0,216
3,75,0,9
3,71,0,2
3,59,0,1
3,80,0,5
3,71,66,6
3,82,84,1
3,75,82,0
3,78,70,1
3,78,0,223
3,71,0,6
3,75,0,3
3,82,0,1
3,71,73,6
3,75,78,1
3,80,74,1
3,77,85,0
3,71,0,225
3,75,0,1
3,80,0,6
3,46,94,1
3,77,0,1
3,77,66,0
3,70,103,2
3,80,60,1
3,75,65,1
3,47,0,4
3,70,0,217
3,75,0,2
3,77,0,5
3,80,0,2
3,75,64,5
3,79,66,0
3,70,109,7
3,70,0,233
3,46,0,0
3,75,0,0
3,79,0,0
3,46,94,0
3,77,67,0
3,75,64,0
3,70,95,1
3,80,69,5
3,77,0,204
3,70,0,10
3,80,0,1
3,75,0,19
3,74,83,5
3,65,86,1
3,70,75,1
3,65,0,215
3,70,0,6
3,74,0,3
3,46,0,9
3,47,91,0
3,82,62,0
3,71,78,0
3,78,83,0
3,75,85,2
3,59,67,1
3,59,0,211
3,78,0,9
3,75,0,5
3,71,0,1
3,80,72,10
3,82,0,1
3,77,72,0
3,75,77,5
3,71,89,0
3,80,0,215
3,77,0,1
3,75,0,13
3,71,0,5
3,82,82,1
3,75,66,5
3,71,48,0
3,78,76,1
3,78,0,226
3,75,0,9
3,75,54,2
3,82,0,2
3,80,64,1
3,77,76,3
3,75,0,109
3,47,0,2
3,71,65,0
3,73,75,3
3,71,0,2
3,49,68,0
3,71,0,56
3,73,0,11
3,75,56,16
3,51,78,0
3,79,85,0
3,70,82,0
3,77,0,2
3,49,0,3
3,80,0,1
3,70,0,131
3,77,65,9
3,53,70,6
3,75,0,1
3,79,0,0
3,75,65,0
3,80,85,0
3,51,0,3
3,77,0,230
3,53,0,4
3,75,0,3
3,80,0,0
3,55,60,4
3,75,76,2
3,70,88,0
3,82,94,0
3,75,0,224
3,75,50,10
3,55,0,1
3,78,63,3
3,54,81,1
3,70,0,225
3,78,0,10
3,75,0,0
3,52,65,0
3,71,66,0
3,75,65,0
3,80,65,0
3,82,0,4
3,54,0,1
3,52,0,230
3,71,0,5
3,71,66,3
3,78,74,1
3,47,65,0
3,75,0,2
3,80,0,0
3,75,89,2
3,71,0,347
3,71,58,4
3,73,58,1
3,77,64,1
3,49,78,1
3,78,0,2
3,47,0,1
3,75,0,3
3,71,0,104
3,73,0,1
3,75,73,7
3,70,58,0
3,67,66,0
3,77,0,1
3,49,0,1
3,51,70,1
3,51,0,10
3,67,0,22
3,75,0,0
3,70,0,0
3,75,73,0
3,68,64,0
3,72,70,0
3,53,70,0
3,65,65,2
3,65,0,213
3,55,70,19
3,70,64,0
3,67,56,2
3,72,0,4
3,53,0,0
3,75,0,0
3,68,0,0
3,75,56,0
3,70,0,225
3,67,0,11
3,75,0,4
3,75,77,0
3,78,77,0
3,55,0,3
3,70,67,4
3,54,84,0
3,78,0,208
3,75,0,0
3,70,0,12
3,64,69,13
3,76,79,1
3,71,70,2
3,80,66,2
3,52,70,2
3,54,0,6
3,64,0,227
3,75,73,0
3,76,0,1
3,71,0,2
3,52,0,1
3,80,0,1
3,47,76,1
3,59,67,0
3,78,55,1
3,59,0,327
3,56,61,26
3,49,61,0
3,77,79,0
3,78,0,2
3,47,0,5
3,75,0,105
3,56,0,8
3,77,0,0
3,49,0,0
3,63,64,0
3,67,65,0
3,75,65,0
3,70,59,2
3,51,51,0
3,75,0,248
3,63,0,0
3,67,0,0
3,60,86,0
3,72,92,0
3,77,76,0
3,79,72,0
3,70,0,2
3,51,0,0
3,79,0,141
3,79,64,10
3,72,0,1
3,72,83,2
3,67,91,0
3,76,78,1
3,77,0,7
3,79,0,33
3,67,0,5
3,72,0,0
3,76,0,2
3,60,0,0
3,65,97,10
3,72,94,1
3,69,94,6
3,76,67,356
3,76,0,61
3,77,86,0
3,69,0,48
3,77,0,5
3,72,0,1
3,74,77,2
3,67,106,7
3,71,86,0
3,74,0,229
3,76,84,3
3,76,0,120
3,74,66,3
3,77,88,5
3,65,0,90
3,77,0,11
3,71,0,1
3,67,0,5
3,74,0,6
3,67,68,3
3,72,84,1
3,76,82,0
3,79,92,1
3,72,0,462
3,67,0,15
3,78,84,0
3,81,75,0
3,69,68,0
3,74,77,1
3,72,106,0
3,79,0,1
3,76,0,2
3,81,0,175
3,81,25,15
3,79,88,47
3,81,0,6
3,81,73,117
3,79,0,9
3,81,0,87
3,74,0,3
3,72,0,0
3,74,67,14
3,79,81,1
3,71,78,0
3,69,0,1
3,83,86,0
3,78,0,1
3,83,0,462
3,71,0,6
3,74,0,3
3,79,0,3
3,74,65,6
3,71,75,1
3,79,97,1
3,76,67,1
3,79,0,438
3,74,0,0
3,71,0,1
3,76,0,6
3,74,86,10
3,69,76,0
3,78,73,2
3,81,75,0
3,78,0,467
3,76,75,9
3,69,0,2
3,71,88,0
3,79,75,1
3,81,0,52
3,74,0,54
3,76,0,2
3,71,0,2
3,79,0,1
3,76,64,7
3,69,66,0
3,81,83,1
3,73,92,0
3,81,0,204
3,69,0,2
3,76,0,4
3,73,0,2
3,69,70,6
3,74,79,0
3,78,83,1
3,81,67,1
3,78,0,458
3,81,0,4
3,69,0,5
3,74,0,2
3,68,66,8
3,71,82,0
3,76,92,1
3,80,91,2
3,71,0,460
3,68,0,2
