track,note,velocity,time
0,48,68,667
0,48,61,0
0,60,74,1
0,55,57,94
0,55,65,1
0,64,59,1
0,48,0,13
0,48,0,17
0,67,63,18
0,48,67,47
0,64,0,0
0,48,60,0
0,60,0,16
0,55,0,4
0,55,0,14
0,60,75,14
0,67,0,45
0,64,61,2
0,55,63,1
0,60,53,0
0,48,0,25
0,48,0,8
0,67,62,14
0,48,65,49
0,64,0,0
0,48,60,0
0,59,67,1
0,55,0,7
0,60,0,11
0,60,0,18
0,67,0,32
0,55,67,27
0,64,60,0
0,55,56,0
0,48,0,7
0,48,0,29
0,67,56,12
0,64,0,44
0,48,65,4
0,48,54,0
0,59,0,11
0,55,0,4
0,55,0,24
0,59,70,9
0,67,0,42
0,64,48,5
0,55,67,1
0,60,47,0
0,48,0,24
0,48,0,0
0,67,60,23
0,48,66,49
0,48,62,0
0,62,72,1
0,55,0,7
0,59,0,20
0,60,0,10
0,64,0,23
0,67,0,30
0,55,67,5
0,64,58,0
0,55,52,0
0,48,0,7
0,48,0,24
0,67,66,18
0,48,66,47
0,48,50,0
0,55,0,14
0,62,0,12
0,64,0,13
0,55,0,3
0,62,71,7
0,55,68,46
0,64,56,0
0,60,52,1
0,67,0,2
0,48,0,16
0,48,0,1
0,67,64,29
0,48,67,47
0,64,0,0
0,48,61,1
0,60,68,1
0,55,0,11
0,62,0,10
0,60,0,6
0,67,0,18
0,55,66,49
0,64,60,1
0,55,53,0
0,48,0,4
0,48,0,21
0,67,68,24
0,48,68,47
0,48,57,0
0,64,0,2
0,55,0,15
0,60,0,1
0,55,0,26
0,60,77,5
0,67,0,46
0,64,61,0
0,60,53,0
0,55,71,1
0,48,0,9
0,48,0,23
0,67,66,16
0,64,0,28
0,60,0,5
0,55,0,8
0,59,68,7
0,45,69,0
0,45,59,1
0,60,0,8
0,67,0,6
0,64,66,81
0,52,62,0
0,52,66,1
0,45,0,16
0,45,0,11
0,69,60,21
0,45,57,47
0,45,62,1
0,64,0,7
0,52,0,2
0,52,0,12
0,59,0,9
0,59,70,18
0,64,55,46
0,57,55,0
0,52,66,1
0,69,0,5
0,45,0,2
0,45,0,13
0,69,56,28
0,45,55,47
0,62,69,1
0,45,61,0
0,52,0,3
0,59,0,16
0,64,0,5
0,57,0,3
0,52,65,69
0,64,62,0
0,52,57,0
0,69,0,5
0,45,0,15
0,45,0,6
0,69,68,23
0,45,63,46
0,45,58,1
0,52,0,6
0,62,0,22
0,52,0,3
0,64,0,8
0,62,75,9
0,64,60,47
0,57,46,0
0,52,65,1
0,69,0,1
0,45,0,6
0,45,0,30
0,69,60,11
0,45,54,47
0,45,63,1
0,60,67,1
0,52,0,7
0,62,0,9
0,64,0,10
0,57,0,14
0,52,65,54
0,64,60,0
0,52,58,0
0,69,0,5
0,45,0,4
0,45,0,27
0,69,68,14
0,45,64,46
0,45,54,1
0,52,0,8
0,52,0,15
0,60,0,4
0,64,0,4
0,60,76,18
0,52,66,46
0,64,60,0
0,57,54,1
0,69,0,5
0,45,0,18
0,45,0,9
0,69,65,16
0,45,59,47
0,59,64,1
0,45,56,0
0,60,0,1
0,64,0,0
0,52,0,4
0,57,0,24
0,52,67,67
0,64,55,0
0,52,58,0
0,45,0,6
0,69,0,3
0,45,0,24
0,69,67,16
0,45,56,46
0,45,62,1
0,64,0,4
0,52,0,7
0,52,0,6
0,59,0,17
0,59,72,15
0,69,0,45
0,52,69,1
0,64,58,0
0,57,59,1
0,45,0,1
0,45,0,5
0,69,62,42
0,64,0,26
0,52,0,14
0,48,67,7
0,62,70,1
0,57,0,0
0,48,58,0
0,59,0,14
0,55,57,81
0,64,56,1
0,55,51,1
0,69,0,1
0,48,0,25
0,48,0,4
0,67,58,18
0,64,0,44
0,48,66,3
0,48,55,1
0,55,0,16
0,55,0,11
0,62,0,5
0,62,75,16
0,55,66,46
0,64,56,1
0,60,59,0
0,67,0,6
0,48,0,7
0,48,0,12
0,67,66,24
0,64,0,42
0,48,65,4
0,48,59,1
0,60,66,1
0,62,0,5
0,55,0,9
0,60,0,24
0,55,66,56
0,55,54,0
0,64,56,2
0,48,0,7
0,67,0,0
0,48,0,12
0,67,67,29
0,64,0,31
0,48,66,15
0,48,59,1
0,55,0,23
0,60,0,1
0,60,72,24
0,55,0,5
0,67,0,38
0,55,62,4
0,60,57,0
0,64,56,1
0,48,0,13
0,48,0,2
0,67,66,33
0,64,0,19
0,48,66,28
0,48,60,0
0,59,65,1
0,60,0,7
0,55,0,3
0,60,0,26
0,55,62,59
0,55,57,0
0,64,57,1
0,48,0,8
0,67,0,1
0,48,0,10
0,67,67,30
0,64,0,25
0,48,55,21
0,48,68,1
0,55,0,16
0,59,0,7
0,55,0,15
0,59,71,10
0,67,0,42
0,64,53,5
0,60,57,0
0,55,64,1
0,48,0,6
0,48,0,6
0,67,66,36
0,64,0,22
0,48,56,25
0,62,62,1
0,48,63,0
0,55,0,13
0,59,0,11
0,60,0,24
0,55,66,48
0,64,54,0
0,55,56,0
0,48,0,8
0,67,0,3
0,48,0,1
0,67,67,37
0,64,0,27
0,55,0,18
0,48,66,2
0,48,60,1
0,55,0,13
0,62,0,6
0,62,71,28
0,67,0,40
0,64,56,7
0,60,62,0
0,55,71,1
0,48,0,21
0,48,0,15
0,67,64,12
0,60,0,19
0,64,0,0
0,60,70,28
0,45,66,0
0,62,0,1
0,45,65,0
0,55,0,3
0,67,0,89
0,52,65,4
0,64,55,0
0,52,54,1
0,45,0,17
0,45,0,7
0,69,56,24
0,64,0,38
0,45,60,9
0,45,59,0
0,52,0,13
0,52,0,6
0,60,0,18
0,60,73,12
0,52,66,47
0,64,59,0
0,57,62,0
0,69,0,8
0,45,0,12
0,45,0,8
0,69,64,20
0,64,0,22
0,45,59,26
0,45,59,0
0,59,62,1
0,60,0,2
0,52,0,16
0,57,0,3
0,52,65,74
0,64,64,0
0,52,59,0
0,45,0,13
0,69,0,2
0,45,0,21
0,69,62,13
0,64,0,21
0,45,67,25
0,45,58,0
0,52,0,11
0,59,0,3
0,52,0,6
0,59,67,29
0,52,63,47
0,64,66,1
0,57,60,0
0,69,0,3
0,45,0,16
0,45,0,18
0,69,62,11
0,64,0,17
0,45,57,20
0,45,64,10
0,62,64,1
0,57,0,22
0,52,0,2
0,59,0,2
0,52,61,67
0,52,65,3
0,64,60,1
0,45,0,7
0,69,0,14
0,45,0,26
0,69,60,1
0,64,0,24
0,45,60,22
0,45,59,1
0,52,0,11
0,62,0,10
0,52,0,1
0,62,70,27
0,57,62,40
0,69,0,1
0,52,63,5
0,64,60,1
0,45,0,16
0,45,0,12
0,69,65,20
0,64,0,13
0,62,0,27
0,45,55,3
0,60,65,5
0,45,62,0
0,57,0,11
0,52,0,14
0,52,60,68
0,52,66,3
0,64,62,0
0,69,0,3
0,45,0,1
0,45,0,20
0,69,68,24
0,64,0,27
0,52,0,12
0,45,67,8
0,45,47,2
0,52,0,28
0,60,0,11
0,64,51,9
0,45,0,16
0,71,118,20
0,52,63,3
0,62,75,1
0,59,75,0
0,67,68,0
0,45,0,20
0,64,0,17
0,67,0,4
0,59,0,7
0,71,0,3
0,52,0,13
0,62,0,7
0,72,102,20
0,60,78,4
0,48,72,0
0,48,59,0
0,55,57,95
0,55,66,1
0,48,0,3
0,64,60,0
0,48,0,7
0,67,65,38
0,64,0,39
0,55,0,6
0,48,66,3
0,48,64,0
0,55,0,13
0,60,0,25
0,60,76,10
0,67,0,32
0,55,68,15
0,64,54,0
0,60,59,0
0,48,0,8
0,48,0,1
0,67,66,39
0,60,0,41
0,62,70,7
0,47,64,0
0,60,0,0
0,47,61,1
0,64,0,1
0,74,94,0
0,72,0,5
0,55,0,2
0,67,0,84
0,62,57,1
0,55,69,1
0,55,59,0
0,47,0,10
0,47,0,2
0,67,68,36
0,47,68,47
0,62,0,0
0,47,54,0
0,55,0,14
0,55,0,8
0,62,0,25
0,62,74,2
0,67,0,28
0,59,59,18
0,55,70,1
0,62,52,0
0,47,0,7
0,47,0,3
0,67,65,38
0,76,98,0
0,62,0,1
0,62,0,1
0,74,0,1
0,60,70,1
0,45,67,1
0,45,65,0
0,55,0,1
0,59,0,4
0,67,0,80
0,45,0,4
0,52,63,7
0,64,58,0
0,52,65,0
0,45,0,8
0,69,56,41
0,64,0,22
0,52,0,24
0,45,71,1
0,45,59,0
0,52,0,9
0,60,0,36
0,60,76,5
0,69,0,41
0,64,48,5
0,57,56,0
0,52,66,1
0,45,0,16
0,45,0,3
0,69,65,28
0,64,0,29
0,45,59,19
0,45,66,1
0,52,0,14
0,57,0,18
0,64,55,63
0,52,69,1
0,45,0,3
0,69,0,1
0,45,0,3
0,69,67,40
0,64,0,31
0,45,64,17
0,76,0,1
0,45,57,0
0,52,0,9
0,60,0,16
0,60,79,23
0,69,0,33
0,52,69,14
0,64,54,0
0,57,62,1
0,45,0,4
0,45,0,6
0,69,62,37
0,60,0,38
0,57,0,0
0,59,67,9
0,79,104,0
0,43,62,0
0,52,0,1
0,43,59,0
0,64,0,22
0,69,0,21
0,79,0,45
0,43,0,6
0,50,71,1
0,62,52,0
0,50,61,0
0,79,98,0
0,43,0,6
0,67,60,41
0,79,0,19
0,79,91,0
0,43,66,4
0,43,52,0
0,50,0,8
0,62,0,2
0,50,0,10
0,59,0,27
0,59,74,2
0,79,0,33
0,79,100,0
0,62,56,0
0,57,61,0
0,50,68,1
0,67,0,6
0,43,0,6
0,43,0,1
0,79,0,26
0,67,70,9
0,79,102,0
0,62,0,40
0,57,0,1
0,50,61,4
0,65,73,1
0,59,0,22
0,67,0,64
0,77,98,0
0,65,62,2
0,57,62,0
0,57,75,1
0,79,0,4
0,50,0,12
0,50,0,3
0,77,0,36
0,50,69,41
0,50,52,0
0,76,94,0
0,57,0,9
0,57,0,4
0,65,0,15
0,64,58,15
0,65,79,2
0,65,0,19
0,74,86,0
0,62,52,4
0,57,69,1
0,57,61,0
0,76,0,6
0,50,0,4
0,50,0,9
0,64,0,6
0,74,0,28
0,57,0,16
0,57,0,18
0,62,0,2
0,65,0,1
0,64,70,5
0,45,66,1
0,45,68,0
0,74,94,0
0,45,0,91
0,52,65,0
0,64,48,0
0,52,59,1
0,76,94,0
0,45,0,2
0,74,0,16
0,69,53,27
0,76,0,32
0,52,0,10
0,52,0,4
0,76,100,0
0,45,57,1
0,45,65,1
0,64,0,1
0,64,0,46
0,60,74,0
0,69,0,39
0,45,0,3
0,64,60,5
0,52,62,1
0,57,52,0
0,45,0,7
0,69,70,40
0,60,0,18
0,52,0,22
0,45,66,8
0,45,65,0
0,64,0,1
0,60,70,1
0,57,0,22
0,52,69,72
0,52,57,0
0,45,0,1
0,69,0,1
0,45,0,8
0,52,0,58
0,76,0,1
0,52,0,7
0,45,65,20
0,45,68,0
0,60,65,3
0,47,73,93
0,47,66,0
0,62,56,0
0,62,75,1
0,45,0,5
0,45,0,8
0,60,0,10
0,60,0,21
0,62,0,39
0,47,0,2
0,48,66,10
0,48,74,1
0,48,0,0
0,62,0,0
0,48,66,0
0,60,49,1
0,72,112,0
0,47,0,3
0,64,65,90
0,55,63,0
0,55,66,1
0,48,0,4
0,48,0,7
0,67,53,37
0,64,0,29
0,48,60,17
0,48,72,1
0,60,0,8
0,55,0,5
0,55,0,5
0,60,77,30
0,67,0,43
0,60,57,4
0,64,60,1
0,55,71,1
0,48,0,7
0,48,0,6
0,67,66,34
0,64,0,40
0,74,100,0
0,72,0,4
0,60,0,1
0,62,66,2
0,47,67,0
0,47,59,0
0,60,0,3
0,55,0,3
0,47,0,86
0,62,56,4
0,55,74,1
0,67,0,0
0,55,64,0
0,47,0,5
0,67,66,42
0,55,0,47
0,62,0,0
0,47,55,1
0,47,66,1
0,55,0,10
0,62,0,23
0,62,75,15
0,55,69,47
0,59,62,0
0,47,0,1
0,62,55,0
0,67,0,4
0,47,0,6
0,67,68,38
0,62,0,24
0,76,96,0
0,59,0,0
0,62,0,1
0,60,65,8
0,74,0,1
0,45,68,0
0,45,54,1
0,55,0,5
0,67,0,72
0,45,0,11
0,52,65,7
0,64,58,1
0,52,62,0
0,45,0,8
0,69,60,40
0,64,0,39
0,52,0,3
0,45,63,5
0,45,67,3
0,52,0,8
0,60,0,35
0,60,77,4
0,69,0,39
0,52,72,7
0,64,55,0
0,57,61,0
0,45,0,9
0,45,0,10
0,69,60,30
0,60,0,16
0,64,0,23
0,60,68,8
0,45,68,0
0,45,60,0
0,76,0,9
0,52,0,12
0,57,0,72
0,52,65,3
0,52,72,1
0,64,58,0
0,45,0,1
0,69,0,4
0,45,0,12
0,69,66,31
0,64,0,36
0,45,66,11
0,45,57,0
0,52,0,13
0,52,0,0
0,60,0,18
0,60,79,17
0,69,0,46
0,52,73,2
0,64,60,0
0,57,61,0
0,45,0,12
0,45,0,1
0,69,63,35
0,64,0,41
0,59,68,7
0,43,69,0
0,43,59,0
0,79,115,0
0,60,0,2
0,52,0,2
0,57,0,8
0,69,0,26
0,79,0,42
0,79,86,0
0,50,71,11
0,50,59,0
0,62,55,1
0,43,0,11
0,43,0,2
0,79,0,14
0,79,102,0
0,67,64,4
0,62,0,39
0,43,61,8
0,43,66,1
0,50,0,10
0,50,0,6
0,59,0,13
0,59,74,18
0,79,0,35
0,79,110,0
0,62,55,7
0,55,60,0
0,50,71,1
0,67,0,0
0,43,0,18
0,79,0,27
0,43,0,2
0,67,68,1
0,50,0,17
0,62,0,23
0,55,0,3
0,79,104,0
0,67,0,2
0,50,61,1
0,65,73,1
0,50,71,0
0,65,63,0
0,59,0,24
0,57,63,72
0,57,60,0
0,50,0,7
0,50,0,6
0,79,0,26
0,77,106,0
0,64,58,46
0,50,62,0
0,76,101,0
0,50,71,0
0,77,0,2
0,65,0,2
0,65,0,14
0,57,0,3
0,57,0,2
0,65,77,25
0,74,98,0
0,76,0,4
0,62,56,0
0,57,63,0
0,57,69,1
0,64,0,8
0,50,0,4
0,74,0,28
0,50,0,22
0,57,0,16
0,65,0,14
0,74,106,0
0,64,68,2
0,45,66,0
0,45,59,0
0,62,0,10
0,57,0,7
0,64,45,79
0,52,63,0
0,52,67,1
0,76,100,0
0,45,0,3
0,74,0,3
0,45,0,2
0,76,0,23
0,69,66,16
0,76,94,0
0,64,0,31
0,52,0,4
0,52,0,2
0,45,63,1
0,45,70,1
0,64,0,42
0,60,72,7
0,69,0,29
0,45,0,6
0,57,59,11
0,64,56,1
0,52,65,1
0,45,0,13
0,69,64,35
0,64,0,18
0,60,0,15
0,52,0,11
0,60,68,2
0,45,56,0
0,45,66,2
0,57,0,26
0,45,0,69
0,52,68,0
0,52,62,0
0,64,55,1
0,69,0,3
0,45,0,10
0,76,0,21
0,69,58,14
0,45,69,46
0,45,59,0
0,52,0,8
0,64,0,6
0,52,0,8
0,60,0,29
0,60,78,0
0,69,0,36
0,52,71,10
0,64,58,0
0,57,63,0
0,45,0,7
0,45,0,26
0,64,0,32
0,57,0,20
0,60,0,2
0,42,68,9
0,62,72,1
0,42,59,0
0,52,0,14
0,50,68,81
0,62,62,0
0,50,60,1
0,42,0,9
0,42,0,8
0,69,57,31
0,62,0,35
0,42,66,12
0,42,56,0
0,74,104,0
0,50,0,10
0,50,0,10
0,62,0,28
0,62,78,0
0,69,0,44
0,50,65,4
0,62,62,0
0,54,59,0
0,42,0,26
0,69,62,22
0,42,0,10
0,62,0,11
0,62,0,13
0,54,0,6
0,62,73,7
0,43,66,0
0,69,0,1
0,43,60,0
0,50,0,2
0,59,60,93
0,50,66,1
0,50,53,0
0,43,0,11
0,43,0,8
0,67,68,29
0,59,0,34
0,72,96,0
0,43,65,4
0,43,59,1
0,74,0,5
0,50,0,4
0,50,0,8
0,59,67,32
0,62,0,24
0,71,90,0
0,67,0,1
0,72,0,3
0,50,65,1
0,59,60,0
0,55,60,1
0,43,0,9
0,43,0,11
0,67,62,27
0,59,0,6
0,59,0,27
0,69,94,0
0,55,0,0
0,59,68,1
