track,note,velocity,time
1,70,113,5
1,67,113,0
1,77,107,0
1,43,109,0
1,55,114,0
1,67,0,31
1,70,0,2
1,55,0,1
1,77,0,1
1,43,0,4
1,67,91,11
1,70,89,1
1,77,100,1
1,70,0,9
1,67,0,4
1,77,0,4
1,67,67,8
1,77,72,0
1,70,92,1
1,70,0,14
1,77,0,0
1,67,0,1
1,67,97,14
1,70,109,0
1,77,104,1
1,67,0,41
1,70,0,1
1,77,0,2
1,70,97,15
1,67,83,0
1,77,94,1
1,70,0,10
1,67,0,2
1,77,0,4
1,70,101,12
1,67,85,1
1,77,78,0
1,67,0,10
1,70,0,1
1,77,0,2
1,70,116,18
1,67,101,0
1,77,107,1
1,67,0,37
1,70,0,3
1,77,0,1
1,70,101,21
1,67,83,0
1,77,95,1
1,70,0,10
1,67,0,1
1,77,0,4
1,70,97,16
1,67,85,0
1,77,84,2
1,70,0,8
1,67,0,2
1,77,0,1
1,70,101,16
1,77,101,0
1,67,97,0
1,67,0,13
1,70,0,0
1,77,0,4
1,72,114,13
1,67,113,0
1,76,104,1
1,48,89,2
1,67,0,75
1,72,0,1
1,76,0,7
1,77,97,7
1,67,86,0
1,70,106,0
1,43,119,1
1,48,0,1
1,70,0,34
1,67,0,1
1,77,0,3
1,43,0,13
1,67,81,3
1,77,92,0
1,70,83,1
1,70,0,9
1,67,0,2
1,77,0,3
1,67,64,10
1,70,89,1
1,77,67,1
1,70,0,11
1,77,0,1
1,67,0,0
1,67,95,16
1,70,97,0
1,77,101,1
1,70,0,42
1,67,0,0
1,77,0,2
1,67,78,17
1,77,89,1
1,70,78,0
1,70,0,11
1,77,0,4
1,67,0,0
1,67,64,14
1,70,94,0
1,77,84,2
1,70,0,12
1,67,0,1
1,77,0,2
1,67,95,13
1,70,107,0
1,77,94,0
1,67,0,35
1,77,0,5
1,70,0,1
1,70,107,23
1,77,86,0
1,67,88,1
1,70,0,10
1,67,0,2
1,77,0,3
1,70,91,14
1,67,78,0
1,77,85,2
1,70,0,8
1,77,0,1
1,67,0,0
1,70,101,17
1,67,91,0
1,77,101,0
1,67,0,14
1,70,0,2
1,77,0,3
1,72,106,12
1,67,106,0
1,76,101,0
1,48,76,1
1,67,0,78
1,72,0,0
1,76,0,6
1,51,101,6
1,70,106,0
1,77,94,1
1,48,0,1
1,67,78,0
1,67,0,37
1,70,0,0
1,77,0,2
1,70,84,20
1,67,66,1
1,77,76,1
1,51,0,2
1,70,0,7
1,67,0,3
1,77,0,2
1,67,65,10
1,70,86,1
1,77,65,1
1,77,0,12
1,70,0,0
1,67,0,1
1,70,98,16
1,67,89,0
1,77,98,1
1,67,0,40
1,70,0,1
1,77,0,2
1,70,76,19
1,67,65,0
1,77,78,1
1,70,0,10
1,67,0,3
1,77,0,2
1,67,65,11
1,77,72,1
1,70,92,0
1,70,0,13
1,67,0,0
1,77,0,2
1,70,101,13
1,77,81,1
1,67,77,1
1,67,0,35
1,70,0,3
1,77,0,1
1,70,88,21
1,67,70,1
1,77,82,0
1,70,0,9
1,67,0,5
1,77,0,1
1,67,67,13
1,70,88,0
1,77,69,3
1,77,0,7
1,70,0,1
1,67,0,2
1,77,85,14
1,70,83,1
1,67,83,0
1,67,0,14
1,70,0,0
1,77,0,2
1,70,86,13
1,67,62,0
1,75,100,0
1,46,111,2
1,70,0,26
1,46,0,2
1,75,0,0
1,74,86,0
1,70,97,28
1,74,0,1
1,67,0,13
1,56,127,18
1,44,100,1
1,70,0,4
1,44,0,18
1,56,0,2
1,63,113,5
1,68,84,26
1,63,0,6
1,68,0,18
1,72,103,5
1,56,104,5
1,44,95,1
1,44,0,22
1,56,0,1
1,74,95,5
1,72,0,5
1,74,0,23
1,68,101,1
1,72,66,27
1,56,111,4
1,68,0,1
1,44,92,0
1,74,84,27
1,44,0,6
1,56,0,0
1,72,0,2
1,74,0,7
1,79,100,18
1,72,79,0
1,74,94,0
1,56,111,34
1,44,97,0
1,56,0,24
1,44,0,61
1,70,91,7
1,46,98,3
1,72,0,2
1,74,0,13
1,46,0,22
1,51,100,0
1,74,62,1
1,70,0,48
1,74,0,8
1,50,78,2
1,51,0,1
1,69,100,0
1,74,35,8
1,69,0,7
1,74,0,3
1,50,0,3
1,78,84,4
1,69,74,0
1,79,0,2
1,74,62,0
1,41,98,5
1,40,103,0
1,43,104,2
1,42,67,1
1,45,55,2
1,42,0,2
1,40,0,2
1,41,0,3
1,47,9,1
1,74,0,1
1,43,0,1
1,48,84,0
1,50,106,3
1,45,0,1
1,69,0,1
1,47,0,0
1,52,106,1
1,48,0,2
1,53,106,1
1,50,0,2
1,55,104,0
1,52,0,3
1,78,0,0
1,57,107,0
1,53,0,3
1,59,97,1
1,55,0,4
1,60,97,0
1,57,0,2
1,62,81,1
1,59,0,3
1,64,79,2
1,60,0,2
1,65,86,1
1,62,0,3
1,67,91,1
1,64,0,3
1,69,72,1
1,65,0,3
1,79,127,2
1,82,127,0
1,89,119,1
1,71,57,0
1,67,0,1
1,69,0,4
1,71,0,2
1,82,0,27
1,89,0,2
1,79,0,0
1,82,95,19
1,79,76,1
1,89,89,1
1,79,0,10
1,82,0,0
1,89,0,2
1,82,103,15
1,79,95,0
1,89,100,1
1,79,0,11
1,82,0,0
1,89,0,2
1,89,94,14
1,82,107,0
1,79,92,1
1,79,0,34
1,82,0,6
1,89,0,1
1,82,97,22
1,79,89,1
1,89,86,0
1,82,0,7
1,79,0,4
1,89,0,1
1,82,107,14
1,79,79,1
1,89,91,0
1,82,0,11
1,79,0,1
1,89,0,1
1,82,114,16
1,89,98,0
1,79,104,0
1,79,0,35
1,82,0,5
1,89,0,1
1,82,98,20
1,89,94,0
1,79,79,1
1,82,0,10
1,79,0,3
1,89,0,3
1,82,95,14
1,79,81,0
1,89,94,1
1,82,0,10
1,89,0,2
1,79,0,0
1,89,95,16
1,82,98,0
1,79,83,1
1,79,0,10
1,82,0,2
1,89,0,4
1,84,106,13
1,88,97,1
1,79,97,0
1,60,78,0
1,79,0,76
1,84,0,2
1,88,0,4
1,55,106,10
1,82,107,1
1,89,104,0
1,79,103,0
1,60,0,4
1,79,0,36
1,82,0,0
1,89,0,2
1,55,0,7
1,82,95,11
1,79,78,0
1,89,97,1
1,82,0,9
1,89,0,4
1,79,0,0
1,82,94,13
1,79,73,0
1,89,77,1
1,79,0,13
1,82,0,0
1,89,0,1
1,82,106,15
1,89,67,0
1,79,97,0
1,79,0,39
1,82,0,0
1,89,0,3
1,82,89,16
1,79,85,0
1,89,94,0
1,82,0,11
1,79,0,3
1,89,0,1
1,82,107,14
1,79,86,0
1,89,89,1
1,79,0,15
1,82,0,1
1,89,0,3
1,89,97,13
1,82,107,0
1,79,98,1
1,55,84,2
1,79,0,13
1,82,0,6
1,89,0,1
1,55,0,0
1,82,127,37
1,89,116,0
1,79,107,0
1,55,101,1
1,79,0,17
1,55,0,6
1,89,0,3
1,82,0,1
1,88,88,92
1,84,100,0
1,79,101,0
1,60,89,0
1,63,95,64
1,79,78,0
1,82,104,0
1,89,85,0
1,84,0,9
1,79,0,2
1,88,0,2
1,60,0,4
1,79,0,21
1,82,0,2
1,89,0,2
1,63,0,9
1,82,92,9
1,89,95,0
1,79,67,1
1,82,0,11
1,79,0,4
1,89,0,1
1,89,67,12
1,82,89,0
1,79,67,0
1,79,0,13
1,82,0,0
1,89,0,2
1,82,106,14
1,79,97,0
1,89,106,1
1,79,0,39
1,89,0,1
1,82,0,0
1,82,92,18
1,79,82,0
1,89,95,0
1,82,0,11
1,79,0,4
1,89,0,1
1,79,60,11
1,82,82,0
1,89,61,0
1,82,0,14
1,89,0,1
1,79,0,0
1,82,92,14
1,89,86,0
1,79,79,0
1,79,0,43
1,82,0,0
1,89,0,2
1,82,106,16
1,89,89,1
1,79,67,0
1,82,0,10
1,79,0,3
1,89,0,0
1,79,65,15
1,82,72,1
1,89,67,1
1,82,0,11
1,79,0,1
1,89,0,2
1,89,78,15
1,82,82,0
1,79,89,1
1,79,0,12
1,82,0,0
1,89,0,4
1,79,75,11
1,87,86,2
1,82,57,0
1,58,91,2
1,82,0,6
1,58,0,17
1,87,0,7
1,86,64,2
1,82,73,23
1,86,0,1
1,79,0,25
1,68,106,7
1,56,98,0
1,82,0,2
1,68,0,18
1,56,0,1
1,75,95,8
1,80,77,25
1,75,0,7
1,80,0,14
1,84,78,9
1,68,101,3
1,56,86,1
1,56,0,22
1,68,0,1
1,86,82,4
1,84,0,3
1,86,0,24
1,80,86,4
1,84,70,27
1,68,98,2
1,56,77,1
1,80,0,1
1,86,35,23
1,84,0,11
1,86,0,4
1,56,0,2
1,68,0,1
1,84,82,16
1,86,88,0
1,91,95,0
1,56,98,34
1,56,0,68
1,58,82,30
1,58,0,55
1,63,94,1
1,86,0,41
1,84,0,11
1,62,72,8
1,63,0,1
1,86,77,0
1,81,101,1
1,81,0,45
1,86,0,3
1,62,0,6
1,91,0,0
1,54,97,2
1,86,70,1
1,90,79,0
1,81,89,1
1,90,0,24
1,86,0,0
1,81,0,2
1,54,0,2
1,70,97,24
1,49,62,0
1,75,83,0
1,79,78,2
1,70,0,22
1,79,0,8
1,67,35,3
1,65,57,0
1,75,0,1
1,65,0,12
1,67,0,1
1,70,85,4
1,70,0,4
1,75,75,16
1,79,75,0
1,70,48,3
1,70,0,17
1,79,0,9
1,67,66,1
1,75,0,2
1,67,0,24
1,70,77,1
1,70,0,1
1,75,85,16
1,79,82,0
1,70,58,3
1,70,0,16
1,79,0,8
1,75,0,2
1,67,45,4
1,70,67,22
1,67,0,3
1,70,0,12
1,70,75,19
1,75,64,0
1,79,70,0
1,70,0,22
1,67,66,4
1,75,0,8
1,70,72,20
1,67,0,9
1,79,0,6
1,70,0,1
1,70,84,15
1,75,78,2
1,79,67,2
1,79,0,32
1,70,0,1
1,75,0,3
1,75,79,18
1,70,92,1
1,79,79,3
1,67,62,2
1,70,0,35
1,79,0,2
1,67,0,3
1,75,0,2
1,72,60,3
1,49,0,10
1,77,78,1
1,48,66,1
1,81,82,2
1,72,0,34
1,69,64,0
1,77,0,11
1,69,0,14
1,72,66,0
1,77,34,1
1,77,0,11
1,72,0,2
1,81,0,12
1,72,74,7
1,81,64,1
1,77,73,1
1,72,0,23
1,69,61,2
1,77,0,14
1,72,63,14
1,77,20,6
1,69,0,1
1,77,0,10
1,72,0,1
1,81,0,1
1,72,76,14
1,81,65,1
1,77,66,1
1,72,0,26
1,69,43,1
1,77,0,8
1,72,60,19
1,69,0,7
1,77,8,3
1,77,0,9
1,72,0,0
1,81,0,2
1,72,70,14
1,81,57,0
1,77,65,1
1,69,49,26
1,72,0,1
1,77,0,16
1,72,66,12
1,69,0,10
1,81,0,4
1,72,0,4
1,72,69,12
1,81,63,1
1,69,66,1
1,77,67,1
1,81,0,28
1,48,0,19
1,72,0,0
1,69,0,1
1,77,0,0
1,72,67,12
1,48,64,0
1,69,64,1
1,77,66,0
1,81,58,21
1,69,0,1
1,72,0,10
1,81,0,7
1,77,0,1
1,72,34,6
1,84,85,16
1,75,88,0
1,46,82,2
1,48,0,1
1,80,17,2
1,72,0,1
1,80,0,14
1,75,0,10
1,72,43,11
1,75,2,8
1,80,58,3
1,72,0,9
1,75,0,15
1,80,0,0
1,75,59,12
1,80,45,1
1,72,50,5
1,72,0,14
1,72,45,15
1,80,0,6
1,75,0,1
1,75,50,18
1,72,0,8
1,80,17,0
1,80,0,5
1,75,0,1
1,75,64,16
1,80,69,1
1,80,0,25
1,75,0,1
1,72,42,2
1,75,32,21
1,72,0,9
1,75,0,6
1,84,0,6
1,84,65,11
1,80,64,1
1,75,53,0
1,75,0,28
1,72,51,0
1,80,0,8
1,75,57,19
1,72,0,9
1,75,0,7
1,84,0,5
1,75,67,11
1,80,73,0
1,84,44,1
1,84,0,32
1,75,0,10
1,80,0,2
1,72,4,16
1,75,78,4
1,80,59,30
1,75,0,12
1,72,0,5
1,77,64,15
1,86,72,4
1,82,64,0
1,44,65,2
1,80,0,1
1,46,0,4
1,77,0,24
1,74,43,2
1,82,0,9
1,77,63,13
1,74,0,1
1,82,22,4
1,77,0,7
1,82,0,1
1,77,57,17
1,82,73,2
1,77,0,26
1,74,45,3
1,77,52,27
1,74,0,4
1,82,0,6
1,77,0,1
1,77,66,17
1,82,73,3
1,77,0,29
1,74,20,6
1,77,62,23
1,74,0,7
1,82,0,6
1,77,0,3
1,82,28,14
1,77,45,4
1,74,36,32
1,77,0,9
1,77,62,24
1,82,0,3
1,86,0,3
1,74,0,3
1,77,0,2
1,74,45,14
1,82,79,0
1,77,38,1
1,77,0,18
1,82,0,12
1,86,65,1
1,84,48,32
1,86,0,9
1,82,58,16
1,84,0,7
1,82,0,8
1,74,0,8
1,44,0,1
1,84,88,10
1,76,84,1
1,55,43,0
1,72,66,29
1,76,0,3
1,76,65,19
1,84,0,6
1,43,65,0
1,79,49,22
1,72,0,2
1,84,64,3
1,76,0,9
1,79,0,7
1,43,0,0
1,84,0,0
1,55,0,13
1,79,70,1
1,74,79,0
1,83,66,3
1,83,0,39
1,79,0,0
1,74,0,4
1,76,81,75
1,81,85,0
1,52,60,1
1,76,0,30
1,72,68,0
1,81,0,21
1,76,62,9
1,81,65,24
1,72,0,2
1,76,0,12
1,52,0,5
1,81,0,8
1,71,82,7
1,76,85,1
1,79,77,1
1,52,48,2
1,79,0,21
1,76,0,1
1,71,0,4
1,52,0,6
1,74,109,0
1,74,0,3
1,76,64,1
1,76,0,26
1,77,98,1
1,77,0,29
1,78,92,1
1,78,0,29
1,79,98,1
1,79,0,11
1,81,79,1
1,81,0,29
1,83,91,1
1,83,0,29
1,84,85,1
1,84,0,29
1,85,79,1
1,85,0,29
1,86,97,1
1,86,0,29
1,87,95,1
1,87,0,29
1,88,92,1
1,88,0,29
1,89,91,1
1,89,0,29
1,90,91,1
1,90,0,14
1,91,106,1
1,91,0,29
1,93,88,1
1,93,0,29
1,91,100,1
1,91,0,29
1,87,88,1
1,87,0,29
1,82,106,1
1,82,0,29
1,79,101,1
1,79,0,29
1,81,86,1
1,81,0,29
1,82,106,1
1,82,0,29
1,84,104,1
1,84,0,29
1,86,77,1
1,86,0,29
1,87,109,1
1,87,0,29
1,89,97,1
1,89,0,29
1,91,106,1
1,91,0,29
1,93,101,1
1,93,0,29
1,94,97,1
1,94,0,2
1,96,92,1
1,96,0,29
1,98,100,1
1,98,0,29
1,98,97,31
1,97,107,28
1,98,0,1
1,97,0,28
1,96,88,0
1,95,92,29
1,96,0,3
1,94,114,28
1,95,0,6
1,93,85,26
1,94,0,1
1,92,124,29
1,93,0,2
1,92,0,27
1,91,94,0
1,90,111,29
1,91,0,6
1,90,0,21
1,89,100,1
1,88,89,32
1,89,0,3
1,87,107,16
1,88,0,6
1,87,0,24
1,86,89,0
1,85,95,30
1,86,0,6
1,84,94,24
1,85,0,1
1,83,79,28
1,84,0,3
1,83,0,20
1,82,126,9
1,81,70,29
1,82,0,2
1,81,0,22
1,77,100,7
1,77,0,26
1,81,95,3
1,79,92,30
1,81,0,5
1,75,91,26
1,79,0,4
1,75,0,14
1,79,106,11
1,77,86,31
1,79,0,4
1,77,0,24
1,73,95,0
1,77,98,31
1,73,0,1
1,77,0,29
1,75,98,1
1,75,0,27
1,72,84,2
1,72,0,19
1,75,104,14
1,73,86,31
1,75,0,2
1,73,0,24
1,70,101,4
1,70,0,28
1,73,109,2
1,73,0,29
1,43,64,1
1,45,89,1
1,43,0,1
1,47,66,0
1,48,64,2
1,45,0,1
1,47,0,1
1,50,75,1
1,48,0,1
1,52,75,0
1,50,0,2
1,53,72,1
1,52,0,2
1,55,78,1
1,57,79,0
1,53,0,1
1,59,84,1
1,55,0,1
1,60,75,2
1,57,0,1
1,59,0,2
1,62,77,0
1,60,0,4
1,64,76,0
1,62,0,1
1,65,76,0
1,64,0,1
1,67,79,0
1,65,0,1
1,69,66,0
1,67,0,2
1,71,67,1
