track,note,velocity,time
1,57,95,0
1,69,84,0
1,69,0,60
1,57,0,0
1,76,35,0
1,76,0,59
1,81,67,1
1,81,0,59
1,83,77,1
1,83,0,59
1,84,101,1
1,84,0,59
1,57,95,1
1,69,100,0
1,69,0,60
1,57,0,0
1,81,92,0
1,81,0,59
1,83,73,1
1,83,0,59
1,84,77,1
1,84,0,59
1,86,74,1
1,86,0,60
1,88,95,0
1,88,0,59
1,91,68,1
1,91,0,59
1,62,72,1
1,74,66,0
1,90,84,0
1,90,0,59
1,74,0,1
1,62,0,0
1,86,66,0
1,86,0,59
1,88,70,1
1,72,82,0
1,60,92,0
1,60,0,59
1,72,0,0
1,88,0,0
1,84,78,1
1,84,0,60
1,57,111,0
1,69,107,0
1,69,0,59
1,57,0,1
1,76,78,0
1,76,0,59
1,81,67,1
1,81,0,60
1,83,72,0
1,83,0,59
1,84,85,1
1,84,0,60
1,69,104,0
1,57,95,0
1,57,0,60
1,69,0,0
1,81,86,0
1,81,0,59
1,83,66,1
1,83,0,59
1,84,79,1
1,84,0,59
1,86,68,1
1,86,0,60
1,88,88,0
1,88,0,59
1,91,77,1
1,91,0,59
1,62,74,1
1,90,81,0
1,74,70,0
1,74,0,59
1,90,0,0
1,62,0,1
1,86,66,0
1,86,0,59
1,88,67,1
1,72,76,0
1,60,92,0
1,60,0,59
1,72,0,0
1,88,0,0
1,84,67,1
1,84,0,59
1,65,97,1
1,53,116,0
1,53,0,59
1,65,0,0
1,72,83,1
1,72,0,59
1,77,69,1
1,77,0,59
1,79,83,1
1,79,0,59
1,81,86,1
1,81,0,59
1,53,95,1
1,65,103,0
1,65,0,59
1,53,0,0
1,77,88,1
1,77,0,59
1,79,70,1
1,79,0,60
1,81,68,0
1,81,0,59
1,84,70,1
1,84,0,60
1,60,85,0
1,72,79,0
1,82,95,0
1,82,0,59
1,81,65,1
1,81,0,59
1,79,79,1
1,79,0,59
1,77,70,1
1,77,0,59
1,76,82,1
1,76,0,59
1,72,0,1
1,72,78,0
1,72,0,59
1,74,66,1
1,74,0,59
1,76,65,1
1,76,0,60
1,60,0,0
1,65,85,0
1,72,81,0
1,81,70,0
1,81,0,59
1,72,0,0
1,77,64,1
1,77,0,59
1,65,0,1
1,72,78,0
1,65,78,0
1,72,0,60
1,77,65,0
1,77,0,60
1,65,0,0
1,65,92,0
1,72,84,0
1,81,77,0
1,81,0,59
1,72,0,0
1,77,60,1
1,77,0,59
1,72,62,1
1,72,0,60
1,65,0,0
1,67,89,0
1,74,84,0
1,83,81,0
1,83,0,59
1,74,0,0
1,79,70,1
1,79,0,60
1,67,0,0
1,68,73,0
1,63,73,0
1,75,68,0
1,84,77,0
1,84,0,59
1,75,0,1
1,80,60,0
1,80,0,60
1,63,0,0
1,68,0,0
1,63,73,0
1,68,73,0
1,75,85,0
1,75,0,60
1,80,76,0
1,80,0,60
1,68,0,0
1,63,0,0
1,68,83,0
1,63,83,0
1,84,82,0
1,75,94,0
1,75,0,59
1,84,0,0
1,80,61,1
1,80,0,59
1,87,58,1
1,87,0,60
1,63,0,0
1,68,0,0
1,62,81,0
1,77,91,0
1,86,83,0
1,86,0,59
1,77,0,0
1,82,62,1
1,82,0,60
1,62,0,0
1,88,85,0
1,60,78,0
1,79,94,0
1,79,0,59
1,84,65,1
1,88,0,30
1,79,76,30
1,84,0,30
1,60,0,30
1,90,68,0
1,62,76,0
1,81,64,0
1,79,0,30
1,86,66,30
1,81,0,29
1,90,0,1
1,81,63,30
1,86,0,29
1,62,0,31
1,64,79,0
1,83,81,0
1,76,81,0
1,92,95,0
1,81,0,30
1,92,0,149
1,93,86,1
1,83,0,29
1,93,0,30
1,89,81,1
1,89,0,59
1,92,84,1
1,92,0,59
1,88,86,1
1,88,0,59
1,89,78,1
1,89,0,59
1,86,73,1
1,86,0,59
1,88,72,1
1,88,0,59
1,76,0,0
1,84,100,1
1,84,0,59
1,86,76,1
1,86,0,59
1,83,81,1
1,83,0,59
1,84,67,1
1,84,0,59
1,81,83,1
1,83,69,60
1,81,0,29
1,83,0,30
1,80,78,1
1,80,0,59
1,83,78,1
1,83,0,59
1,64,0,1
1,81,86,0
1,69,103,0
1,57,119,0
1,57,0,59
1,69,0,0
1,81,0,1
1,76,86,0
1,76,0,60
1,81,70,0
1,81,0,60
1,83,84,0
1,83,0,60
1,84,91,0
1,84,0,59
1,57,86,1
1,69,88,0
1,69,0,59
1,57,0,0
1,81,81,1
1,81,0,60
1,83,66,0
1,83,0,60
1,84,83,0
1,84,0,60
1,86,67,0
1,86,0,60
1,88,70,0
1,88,0,60
1,91,74,0
1,91,0,60
1,62,68,0
1,74,77,0
1,90,88,0
1,90,0,59
1,74,0,1
1,62,0,0
1,86,86,0
1,86,0,60
1,60,86,0
1,88,76,0
1,72,66,0
1,72,0,59
1,88,0,0
1,60,0,1
1,84,77,0
1,84,0,59
1,69,82,1
1,57,103,0
1,57,0,59
1,69,0,0
1,76,88,1
1,76,0,59
1,81,68,1
1,81,0,60
1,83,86,0
1,83,0,60
1,84,78,0
1,84,0,59
1,57,91,1
1,69,91,0
1,69,0,59
1,57,0,1
1,81,75,0
1,81,0,59
1,83,65,1
1,83,0,60
1,84,82,0
1,84,0,60
1,86,66,0
1,86,0,60
1,88,95,0
1,88,0,59
1,91,72,1
1,91,0,60
1,62,75,0
1,74,70,0
1,90,92,0
1,90,0,59
1,62,0,1
1,86,69,0
1,74,0,29
1,86,0,30
1,72,66,1
1,88,85,0
1,60,86,0
1,60,0,59
1,88,0,0
1,72,0,0
1,84,76,1
1,84,0,59
1,65,92,1
1,53,107,0
1,53,0,59
1,65,0,0
1,72,88,1
1,72,0,59
1,77,70,1
1,77,0,59
1,79,88,1
1,79,0,59
1,81,81,1
1,81,0,59
1,53,95,1
1,65,101,0
1,65,0,59
1,53,0,0
1,77,98,1
1,77,0,59
1,79,88,1
1,79,0,59
1,81,85,1
1,81,0,59
1,84,78,1
1,84,0,60
1,82,100,0
1,72,82,0
1,60,82,0
1,82,0,59
1,81,64,1
1,81,0,59
1,79,88,1
1,79,0,59
1,77,82,1
1,77,0,59
1,72,0,0
1,76,95,1
1,76,0,59
1,72,73,1
1,72,0,59
1,74,75,1
1,74,0,59
1,76,69,1
1,76,0,59
1,60,0,0
1,65,83,1
1,72,68,0
1,81,78,0
1,81,0,59
1,72,0,0
1,77,79,1
1,77,0,59
1,65,0,1
1,65,64,0
1,72,85,0
1,72,0,59
1,77,86,1
1,77,0,60
1,65,0,0
1,81,79,0
1,65,94,0
1,72,78,0
1,72,0,59
1,77,69,1
1,81,0,30
1,84,64,30
1,77,0,29
1,84,0,31
1,65,0,0
1,65,78,0
1,74,88,0
1,83,82,0
1,83,0,59
1,74,0,1
1,79,66,0
1,79,0,60
1,65,0,0
1,68,84,0
1,63,84,0
1,84,94,0
1,84,0,59
1,80,65,1
1,80,0,60
1,63,0,0
1,68,0,0
1,68,89,0
1,63,89,0
1,75,103,0
1,75,0,60
1,80,64,0
1,80,0,60
1,63,0,0
1,68,0,0
1,63,88,0
1,84,78,0
1,75,98,0
1,75,0,59
1,80,55,1
1,80,0,60
1,87,63,0
1,84,0,29
1,63,0,30
1,87,0,1
1,62,67,0
1,77,82,0
1,86,79,0
1,86,0,59
1,82,58,1
1,77,0,29
1,82,0,31
1,62,0,0
1,79,92,0
1,88,92,0
1,60,73,0
1,88,0,60
1,79,0,0
1,84,45,0
1,84,0,60
1,79,65,0
1,60,0,59
1,79,0,1
1,89,15,0
1,81,67,0
1,62,70,0
1,81,0,60
1,89,0,0
1,86,41,0
1,81,65,60
1,86,0,29
1,81,0,31
1,62,0,0
1,88,85,0
1,64,66,0
1,76,73,0
1,92,88,0
1,88,0,239
1,83,65,1
1,88,78,0
1,92,0,29
1,88,0,90
1,90,85,1
1,90,0,120
1,83,0,0
1,92,82,0
1,83,70,0
1,76,0,119
1,64,0,0
1,92,0,1
1,83,0,0
1,77,103,0
1,65,73,0
1,93,73,0
1,84,74,0
1,84,0,59
1,93,0,0
1,91,65,1
1,91,0,59
1,65,0,1
1,89,75,0
1,89,0,59
1,84,81,1
1,91,81,0
1,91,0,120
1,84,0,0
1,84,79,0
1,84,0,60
1,89,68,0
1,84,66,0
1,84,0,59
1,89,0,0
1,91,72,1
1,91,0,60
1,84,67,0
1,93,78,0
1,93,0,60
1,84,0,0
1,89,76,0
1,89,0,59
1,84,58,1
1,91,62,0
1,91,0,59
1,84,0,0
1,84,66,1
1,84,0,59
1,93,83,1
1,84,88,1
1,93,0,56
1,91,67,2
1,84,0,2
1,91,0,58
1,89,77,1
1,89,0,60
1,84,89,0
1,91,89,0
1,84,84,119
1,84,0,1
1,91,0,0
1,84,0,52
1,84,62,8
1,89,68,2
1,84,0,58
1,91,47,0
1,89,0,2
1,91,0,38
1,93,68,12
1,84,62,8
1,93,0,54
1,89,65,4
1,84,0,2
1,89,0,50
1,84,49,10
1,91,64,0
1,91,0,51
1,84,0,1
1,84,78,3
1,84,0,60
1,84,64,3
1,93,77,0
1,65,97,0
1,77,0,2
1,93,0,46
1,84,0,12
1,91,66,0
1,91,0,51
1,89,66,11
1,89,0,52
1,84,66,10
1,91,79,1
1,91,0,115
1,84,0,4
1,84,88,0
1,84,0,50
1,89,66,8
1,84,53,1
1,89,0,46
1,91,69,13
1,84,0,1
1,91,0,43
1,84,36,12
1,93,70,2
1,93,0,52
1,84,0,0
1,65,0,7
1,64,85,2
1,89,66,3
1,89,0,46
1,91,67,10
1,84,53,2
1,91,0,53
1,84,73,1
1,84,0,6
1,84,0,54
1,62,86,1
1,84,62,1
1,93,82,1
1,64,0,3
1,93,0,52
1,91,65,1
1,84,0,3
1,91,0,52
1,89,65,8
1,89,0,60
1,84,89,4
1,91,89,0
1,84,67,120
1,84,0,5
1,91,0,0
1,84,0,55
1,84,75,0
1,89,75,0
1,89,0,60
1,84,0,0
1,91,82,5
1,91,0,42
1,84,38,13
1,93,81,0
1,84,0,44
1,93,0,4
1,64,76,8
1,89,67,2
1,62,0,1
1,89,0,51
1,91,73,8
1,84,66,2
1,91,0,47
1,84,88,6
1,84,0,7
1,84,0,53
1,84,65,0
1,60,77,0
1,93,76,1
1,64,0,5
1,93,0,42
1,84,0,12
1,91,66,0
1,89,66,59
1,91,0,3
1,89,0,47
1,91,81,10
1,84,66,8
1,91,0,116
1,84,0,4
1,84,86,0
1,57,79,56
1,89,76,2
1,84,0,2
1,84,66,0
1,60,0,2
1,89,0,51
1,91,66,3
1,84,0,4
1,91,0,46
1,93,73,7
1,84,64,0
1,84,0,42
1,93,0,14
1,89,65,7
1,89,0,52
1,91,70,2
1,84,64,10
1,84,94,50
1,91,0,1
1,84,0,9
1,84,0,50
1,57,0,1
1,70,100,1
1,58,69,2
1,93,79,0
1,84,66,6
1,93,0,39
1,91,70,12
1,84,0,55
1,89,70,6
1,91,0,5
1,89,0,49
1,84,72,6
1,91,74,1
1,84,0,119
1,91,0,2
1,84,91,2
1,84,0,53
1,84,72,11
1,89,72,0
1,91,67,59
1,89,0,1
1,84,0,0
1,84,72,60
1,93,76,0
1,91,0,8
1,70,0,44
1,58,0,2
1,89,63,5
1,84,0,1
1,72,67,0
1,60,67,0
1,84,67,0
1,93,0,1
1,91,78,54
1,89,0,5
1,84,0,8
1,84,72,47
1,91,0,7
1,84,0,53
1,74,75,3
1,84,65,0
1,62,70,1
1,93,79,0
1,72,0,1
1,60,0,0
1,93,0,49
1,91,66,11
1,84,0,24
1,89,77,35
1,91,0,1
1,89,0,40
1,91,94,14
1,84,36,3
1,84,77,117
1,84,0,3
1,91,0,11
1,72,61,44
1,84,0,2
1,60,77,1
1,84,61,1
1,89,84,0
1,74,0,2
1,62,0,1
1,89,0,51
1,91,64,3
1,84,0,3
1,91,0,52
1,93,66,3
1,84,34,3
1,84,0,60
1,89,67,5
1,93,0,3
1,91,64,55
1,84,66,3
1,89,0,5
1,72,0,47
1,60,0,3
1,84,0,5
1,62,64,0
1,74,64,1
1,84,77,1
1,91,0,12
1,63,64,45
1,62,0,1
1,75,92,0
1,74,0,1
1,96,78,0
1,84,0,1
1,87,88,1
1,96,0,45
1,94,78,12
1,87,0,3
1,94,0,48
1,92,69,8
1,92,0,49
1,73,58,8
1,61,70,2
1,94,85,0
1,63,0,1
1,87,85,0
1,75,0,1
1,94,0,118
1,87,0,1
1,87,83,8
1,73,0,8
1,87,0,33
1,61,0,10
1,72,65,4
1,60,67,0
1,92,73,1
1,87,40,1
1,87,0,40
1,92,0,12
1,94,63,7
1,94,0,47
1,96,66,11
1,87,69,1
1,96,0,43
1,87,0,1
1,70,77,12
1,58,84,1
1,92,74,2
1,60,0,1
1,72,0,0
1,92,0,41
1,94,78,12
1,87,30,6
1,94,0,48
1,87,97,5
1,87,0,7
1,68,51,51
1,87,0,2
1,87,68,0
1,96,70,0
1,56,79,1
1,70,0,3
1,58,0,1
1,96,0,40
1,87,0,0
1,94,73,13
1,94,0,52
1,92,72,4
1,92,0,51
1,87,84,9
1,94,85,2
1,87,0,118
1,94,0,2
1,87,92,7
1,87,0,52
1,92,74,11
1,87,32,3
1,94,75,54
1,92,0,1
1,87,0,5
1,94,0,45
1,96,70,7
1,87,70,5
1,96,0,52
1,68,0,0
1,56,0,3
1,67,66,0
1,92,77,0
1,55,57,1
1,87,0,4
1,92,0,45
1,94,82,11
1,87,70,4
1,87,86,54
1,94,0,3
1,87,0,3
1,87,72,53
1,87,0,1
1,53,78,0
1,96,70,0
1,67,0,1
1,65,66,0
1,55,0,1
1,96,0,46
1,94,69,10
1,87,0,1
1,92,68,57
1,94,0,4
1,92,0,51
1,87,92,5
1,94,79,1
1,87,0,119
1,94,0,1
1,87,81,3
1,87,67,66
1,92,69,0
1,87,0,30
1,87,0,30
1,94,70,4
1,92,0,1
1,87,64,55
1,96,68,1
1,94,0,5
1,55,62,47
1,53,0,1
1,67,65,0
1,65,0,1
1,92,69,3
1,87,0,2
1,96,0,2
1,94,76,50
1,92,0,7
1,87,64,1
1,87,72,50
1,87,0,10
1,94,0,28
1,87,0,22
1,56,68,0
1,68,89,1
1,87,62,0
1,96,69,0
1,55,0,2
1,67,0,1
1,94,68,53
1,96,0,1
1,87,0,51
1,92,60,12
1,94,0,2
1,92,0,54
1,94,84,6
1,87,22,0
1,87,0,120
1,94,0,0
1,87,79,5
1,87,0,47
1,56,0,5
1,68,0,1
1,63,58,12
1,92,73,0
1,75,83,1
1,87,70,0
1,92,0,53
1,94,61,0
1,87,0,52
1,96,67,9
1,87,26,2
1,94,0,2
1,87,0,58
1,92,64,1
1,96,0,5
1,94,73,54
1,92,0,6
1,87,70,54
1,94,0,11
1,87,0,49
1,58,82,0
1,98,83,0
1,63,0,3
1,75,0,1
1,70,81,3
1,77,70,3
1,96,65,57
1,98,0,1
1,94,79,56
1,96,0,9
1,77,0,3
1,94,0,47
1,89,84,1
1,89,0,53
1,58,0,3
1,88,100,0
1,72,76,2
1,60,78,0
1,70,0,5
1,86,91,53
1,88,0,8
1,84,79,52
1,86,0,3
1,82,88,57
1,84,0,8
1,69,116,52
1,82,0,1
1,60,0,1
1,72,0,0
1,62,82,0
1,69,0,478
1,62,0,2
1,76,79,10078
1,86,79,0
1,50,76,0
1,62,64,0
1,86,0,60
1,76,0,0
1,81,79,0
1,81,0,60
1,77,79,0
1,77,0,60
1,76,79,0
1,86,79,0
1,86,0,60
1,76,0,0
1,79,79,0
1,79,0,60
1,76,79,0
1,76,0,60
1,77,79,0
1,86,79,0
1,86,0,60
1,77,0,0
1,81,79,0
1,81,0,60
1,77,79,0
1,77,0,60
1,86,79,0
1,76,79,0
1,76,0,60
1,86,0,0
1,79,79,0
1,79,0,60
1,76,79,0
1,76,0,60
1,86,79,0
1,77,79,0
1,77,0,60
1,86,0,0
1,81,79,0
1,81,0,60
1,50,0,0
1,62,0,0
1,79,79,0
1,86,79,0
1,48,79,0
1,60,63,0
