track,note,velocity,time
0,60,105,257
0,48,51,0
0,48,116,0
0,55,62,0
0,64,74,0
0,60,85,0
0,48,0,94
0,52,80,2
0,52,0,46
0,55,95,2
0,48,0,48
0,60,0,0
0,43,43,0
0,48,113,0
0,60,107,48
0,55,100,48
0,55,0,46
0,52,103,2
0,43,0,22
0,60,0,8
0,48,0,16
0,59,105,2
0,48,53,0
0,48,116,0
0,52,0,46
0,55,0,0
0,52,69,50
0,52,0,46
0,55,82,2
0,48,0,28
0,48,0,18
0,59,0,2
0,43,49,0
0,48,107,0
0,59,89,48
0,48,0,46
0,55,103,2
0,55,0,46
0,52,100,2
0,59,0,30
0,43,0,8
0,62,110,10
0,48,60,0
0,48,119,0
0,55,0,16
0,52,86,50
0,52,0,46
0,55,95,2
0,48,0,32
0,48,0,14
0,52,0,0
0,62,0,2
0,43,55,0
0,48,110,0
0,62,98,18
0,55,98,30
0,55,0,46
0,52,98,2
0,62,0,30
0,43,0,6
0,48,0,10
0,60,107,2
0,48,52,0
0,48,116,0
0,55,0,4
0,52,80,24
0,52,0,46
0,52,0,0
0,55,93,2
0,48,0,40
0,48,0,6
0,60,0,2
0,43,64,0
0,48,110,0
0,60,102,48
0,55,0,32
0,48,0,14
0,55,95,2
0,55,0,46
0,52,98,2
0,43,0,26
0,60,0,4
0,57,82,10
0,59,100,8
0,45,58,0
0,45,116,0
0,52,0,2
0,55,0,0
0,52,75,4
0,52,0,42
0,57,93,2
0,45,0,40
0,45,0,6
0,59,0,2
0,40,62,0
0,45,116,0
0,59,98,10
0,57,98,10
0,57,0,46
0,52,98,2
0,59,0,30
0,45,0,16
0,40,0,2
0,62,107,0
0,45,63,0
0,45,119,0
0,57,0,14
0,52,86,30
0,52,0,46
0,57,91,2
0,45,0,46
0,52,0,0
0,45,0,2
0,62,0,0
0,40,61,0
0,45,116,0
0,62,100,16
0,57,98,6
0,57,0,46
0,52,95,2
0,45,0,46
0,60,107,2
0,45,60,0
0,45,113,0
0,40,0,4
0,62,0,10
0,57,0,8
0,52,80,2
0,52,0,46
0,57,91,2
0,45,0,40
0,45,0,6
0,60,0,0
0,40,61,2
0,45,113,0
0,52,0,16
0,60,102,2
0,57,98,48
0,57,0,46
0,52,95,2
0,60,0,30
0,45,0,16
0,59,107,2
0,45,56,0
0,45,113,0
0,40,0,8
0,57,0,62
0,52,75,2
0,52,0,46
0,57,93,2
0,45,0,40
0,45,0,6
0,59,0,0
0,40,56,2
0,45,110,0
0,52,0,46
0,59,100,2
0,45,0,46
0,57,103,2
0,57,0,8
0,57,0,38
0,52,93,2
0,55,86,18
0,59,0,12
0,40,0,6
0,62,110,12
0,48,61,0
0,48,116,0
0,57,0,46
0,52,80,50
0,52,0,46
0,55,75,2
0,48,0,24
0,48,0,22
0,62,0,0
0,52,0,0
0,43,64,2
0,48,107,0
0,62,107,48
0,55,100,48
0,55,0,46
0,52,98,2
0,62,0,30
0,48,0,16
0,60,105,2
0,48,60,0
0,48,107,0
0,43,0,6
0,55,0,88
0,52,91,2
0,52,0,46
0,55,88,2
0,48,0,40
0,48,0,6
0,60,0,0
0,52,0,0
0,43,60,2
0,48,107,0
0,60,107,18
0,48,0,46
0,55,100,2
0,55,0,46
0,52,98,2
0,60,0,30
0,43,0,18
0,59,105,0
0,48,52,0
0,48,119,0
0,48,0,74
0,55,0,0
0,52,82,2
0,52,0,46
0,55,95,2
0,48,0,32
0,59,0,14
0,43,49,2
0,48,110,0
0,52,0,16
0,59,100,2
0,48,0,46
0,55,95,2
0,55,0,46
0,52,91,2
0,59,0,30
0,43,0,18
0,62,113,0
0,48,52,0
0,48,122,0
0,48,0,56
0,55,0,0
0,52,88,2
0,52,0,46
0,55,91,2
0,48,0,44
0,43,60,4
0,48,110,0
0,62,0,48
0,62,107,0
0,48,0,46
0,52,0,0
0,55,100,2
0,55,0,16
0,55,0,30
0,52,91,2
0,57,85,24
0,43,0,12
0,60,105,12
0,45,53,0
0,45,122,0
0,62,0,14
0,55,0,32
0,45,0,48
0,52,78,2
0,52,0,46
0,57,95,2
0,45,0,40
0,60,0,6
0,40,55,2
0,45,119,0
0,52,0,46
0,60,105,2
0,45,0,46
0,57,95,2
0,57,0,46
0,52,86,2
0,60,0,30
0,40,0,14
0,59,98,4
0,45,33,0
0,45,116,0
0,45,0,64
0,57,0,0
0,52,80,2
0,52,0,46
0,57,80,2
0,59,0,46
0,40,59,2
0,45,116,0
0,45,0,4
0,52,0,14
0,59,102,2
0,45,0,46
0,57,100,2
0,57,0,46
0,52,93,2
0,59,0,30
0,40,0,18
0,62,105,0
0,45,51,0
0,45,119,0
0,45,0,64
0,57,0,0
0,52,88,2
0,52,0,46
0,57,54,2
0,62,0,46
0,40,67,2
0,45,110,0
0,45,0,4
0,62,105,44
0,45,0,46
0,52,0,0
0,57,86,50
0,62,0,30
0,40,0,14
0,57,0,2
0,52,93,2
0,60,95,0
0,45,60,0
0,45,119,0
0,57,0,142
0,45,0,42
0,57,95,6
0,60,0,2
0,60,88,0
0,40,62,0
0,57,0,32
0,59,102,8
0,52,0,6
0,60,0,2
0,60,98,0
0,57,0,40
0,60,0,0
0,45,0,6
0,64,0,2
0,62,88,0
0,62,0,48
0,60,0,0
0,59,0,14
0,64,90,6
0,60,92,4
0,67,87,0
0,40,0,8
0,59,85,8
0,60,116,8
0,48,66,0
0,48,113,0
0,60,102,8
0,59,0,12
0,48,0,74
0,52,73,2
0,52,0,46
0,55,88,2
0,48,0,38
0,60,0,8
0,43,54,2
0,48,116,0
0,60,102,48
0,60,0,40
0,48,0,6
0,55,95,2
0,64,0,24
0,55,0,22
0,52,98,2
0,43,0,4
0,60,0,26
0,62,79,4
0,60,0,2
0,62,100,0
0,59,92,0
0,59,110,12
0,43,54,0
0,43,116,0
0,52,0,46
0,55,0,0
0,43,0,48
0,50,71,2
0,50,0,46
0,55,88,2
0,43,0,36
0,59,0,10
0,38,50,2
0,43,119,0
0,59,102,48
0,67,0,40
0,43,0,6
0,55,75,2
0,59,0,10
0,62,0,6
0,55,0,30
0,50,93,2
0,62,0,10
0,60,91,6
0,57,86,4
0,64,88,0
0,59,0,10
0,38,0,2
0,64,100,8
0,55,0,6
0,60,110,2
0,45,61,0
0,45,116,0
0,50,0,6
0,52,80,2
0,52,0,2
0,57,86,2
0,45,0,8
0,45,0,2
0,60,0,0
0,40,62,2
0,45,116,0
0,60,85,2
0,45,0,28
0,57,95,2
0,57,0,46
0,52,93,2
0,60,0,30
0,57,0,16
0,40,0,2
0,60,105,0
0,45,55,0
0,45,113,0
0,52,73,4
0,52,0,14
0,57,95,2
0,45,0,46
0,60,0,0
0,52,0,0
0,45,0,2
0,40,58,0
0,45,113,0
0,60,102,48
0,64,0,32
0,64,0,0
0,60,0,2
0,57,0,2
0,45,0,10
0,57,95,2
0,57,0,2
0,60,0,2
0,52,95,0
0,40,0,4
0,59,93,0
0,55,87,0
0,62,92,0
0,57,0,8
0,67,119,2
0,43,58,0
0,43,119,0
0,67,100,0
0,52,0,16
0,67,0,22
0,67,98,16
0,55,78,12
0,55,0,4
0,59,91,2
0,43,0,22
0,67,0,4
0,43,0,10
0,67,0,2
0,38,55,0
0,43,116,0
0,67,91,0
0,67,98,16
0,67,0,16
0,67,98,26
0,43,0,4
0,59,95,2
0,55,0,8
0,62,0,2
0,59,0,6
0,67,0,2
0,67,105,20
0,59,0,8
0,55,95,2
0,57,88,24
0,65,89,2
0,67,0,4
0,62,87,0
0,38,0,12
0,59,0,4
0,65,110,2
0,50,54,0
0,50,102,0
0,67,0,50
0,65,87,0
0,50,0,6
0,55,0,0
0,57,78,2
0,67,82,8
0,67,0,32
0,57,0,6
0,62,95,2
0,65,0,46
0,50,0,2
0,45,56,0
0,50,105,0
0,64,98,40
0,65,107,8
0,65,0,4
0,50,0,42
0,62,91,2
0,62,0,22
0,65,0,2
0,62,76,6
0,62,0,16
0,64,0,2
0,57,91,0
0,45,0,8
0,62,0,14
0,60,94,2
0,65,0,6
0,62,68,2
0,64,87,0
0,62,0,14
0,64,113,2
0,45,55,0
0,45,116,0
0,64,113,48
0,62,0,32
0,45,0,14
0,52,88,2
0,52,0,46
0,57,0,2
0,57,55,0
0,45,0,24
0,64,0,24
0,40,37,0
0,45,110,0
0,64,100,48
0,45,0,46
0,57,91,2
0,57,0,46
0,64,0,2
0,52,103,0
0,64,98,48
0,45,55,0
0,45,116,0
0,40,0,4
0,57,0,42
0,45,0,48
0,52,84,2
0,64,0,30
0,52,0,16
0,57,98,2
0,64,0,34
0,45,0,14
0,60,100,0
0,40,52,0
0,45,105,0
0,60,0,62
0,45,0,32
0,52,0,0
0,57,0,0
0,62,107,2
0,60,0,6
0,64,0,2
0,62,0,54
0,40,0,2
0,60,93,4
0,64,91,2
0,55,89,2
0,60,107,16
0,60,116,8
0,48,36,0
0,48,116,0
0,57,0,46
0,48,0,48
0,52,84,2
0,52,0,46
0,55,84,2
0,48,0,36
0,60,0,10
0,43,57,2
0,48,110,0
0,60,102,48
0,48,0,46
0,55,95,2
0,64,0,28
0,60,0,2
0,43,0,2
0,55,0,0
0,55,0,14
0,52,98,2
0,60,0,26
0,60,0,4
0,55,87,2
0,59,97,0
0,62,92,2
0,60,89,4
0,55,0,8
0,59,110,2
0,43,39,0
0,43,119,0
0,43,0,62
0,50,91,2
0,50,0,46
0,55,93,2
0,43,0,40
0,59,0,6
0,52,0,0
0,38,50,2
0,43,107,0
0,59,102,48
0,43,0,46
0,55,91,2
0,60,0,32
0,55,0,6
0,59,0,2
0,62,0,2
0,55,0,4
0,50,95,2
0,38,0,4
0,59,0,22
0,64,105,10
0,64,90,2
0,60,86,2
0,55,0,2
0,60,110,2
0,45,60,0
0,45,119,0
0,57,71,0
0,45,0,2
0,52,80,2
0,52,0,4
0,50,0,0
0,57,88,2
0,45,0,4
0,60,0,2
0,40,59,2
0,45,110,0
0,60,85,8
0,45,0,46
0,57,93,2
0,57,0,46
0,52,98,2
0,60,0,30
0,40,0,18
0,60,105,0
0,45,60,0
0,45,113,0
0,45,0,94
0,57,0,0
0,52,86,2
0,52,0,2
0,57,91,2
0,45,0,4
0,60,0,4
0,52,0,0
0,40,47,2
0,45,119,0
0,60,102,46
0,45,0,46
0,57,93,2
0,60,0,14
0,64,0,0
0,64,0,4
0,40,0,14
0,57,0,14
0,60,0,2
0,52,98,0
0,67,107,44
0,57,0,2
0,57,0,2
0,67,119,0
0,43,61,0
0,43,119,0
0,55,87,0
0,59,100,0
0,67,0,58
0,67,98,30
0,43,0,6
0,52,0,0
0,55,80,2
0,62,94,12
0,67,0,8
0,67,107,20
0,55,0,6
0,59,93,2
0,43,0,4
0,67,0,8
0,38,55,0
0,43,113,0
0,67,98,18
0,67,0,36
0,43,0,10
0,59,93,2
0,67,91,0
0,59,0,20
0,55,98,2
0,62,0,10
0,67,0,16
0,67,0,4
0,38,0,16
0,59,0,2
0,55,0,0
0,65,110,0
0,50,52,0
0,50,127,0
0,67,107,0
0,57,96,2
0,65,86,4
0,62,96,2
0,59,0,38
0,50,0,4
0,57,80,2
0,50,0,16
0,57,0,8
0,62,93,2
0,65,91,8
0,67,0,8
0,67,85,12
0,65,0,18
0,55,0,0
0,45,57,2
0,50,119,0
0,67,0,14
0,65,107,34
0,64,105,6
0,65,0,16
0,50,0,24
0,62,98,2
0,45,0,8
0,62,80,26
0,62,0,2
0,65,0,4
0,62,0,6
0,64,0,2
0,57,93,0
0,57,0,8
0,62,0,2
0,65,0,10
0,57,86,2
0,60,99,0
0,64,88,2
0,62,91,6
0,62,0,6
0,64,113,2
0,45,61,0
0,45,119,0
0,62,0,16
0,62,102,24
0,45,0,6
0,52,84,2
0,52,0,4
0,57,0,0
0,57,84,2
0,45,0,8
0,64,0,4
0,40,55,0
0,45,113,0
0,64,100,38
0,45,0,8
0,57,75,2
0,57,0,16
0,64,0,0
0,52,80,0
0,40,0,20
0,57,0,0
0,64,98,2
0,45,56,0
0,45,113,0
0,52,0,4
0,45,0,2
0,57,80,2
0,52,82,0
0,52,0,6
0,57,0,0
0,52,75,2
0,57,86,0
0,64,0,40
0,40,53,0
0,45,113,0
0,45,0,10
0,64,100,38
0,57,0,30
0,64,0,2
0,60,0,4
0,45,0,10
0,62,0,0
0,52,0,2
0,57,0,46
0,64,0,2
0,40,0,4
0,66,96,8
0,57,95,4
0,62,97,0
0,62,113,22
0,50,61,0
0,42,113,0
0,42,0,94
0,54,86,2
0,54,0,46
0,57,98,2
0,50,0,40
0,62,0,6
0,45,51,2
0,42,116,0
0,62,87,48
0,42,0,46
0,57,98,2
0,62,91,10
0,66,0,6
0,57,0,4
0,62,0,4
0,57,0,22
0,54,95,2
0,62,0,30
0,45,0,10
0,59,97,4
0,57,0,2
0,59,105,2
0,43,52,0
0,43,116,0
0,55,82,0
0,62,86,0
0,50,80,96
0,50,0,46
0,54,0,0
0,55,93,2
0,62,0,10
0,60,85,12
0,43,0,24
0,62,98,0
0,59,0,2
0,38,58,0
0,43,110,0
0,43,0,4
0,62,0,26
0,59,102,18
0,43,0,46
0,55,93,2
0,59,110,14
0,55,0,14
0,60,0,2
0,59,0,2
0,62,0,8
0,55,0,6
0,38,0,2
0,50,95,0
0,59,0,30
0,59,0,6
0,57,90,4
0,60,95,0
0,64,96,0
0,55,0,6
0,60,105,2
0,45,49,0
0,45,113,0
0,59,100,8
0,59,0,36
0,57,102,18
0,45,0,32
0,50,0,0
0,52,88,2
0,52,0,46
0,57,91,2
0,45,0,4
0,60,0,4
0,40,35,2
0,45,116,0
0,60,100,8
0,45,0,6
0,57,100,2
0,57,0,6
0,52,98,2
0,60,0,8
0,40,0,4
0,60,98,2
0,45,51,0
0,45,116,0
0,45,0,4
0,57,0,0
0,52,91,2
0,52,0,2
0,57,93,2
0,45,0,24
0,60,0,22
0,52,0,0
0,40,53,2
0,45,113,0
0,60,87,48
0,57,0,16
0,64,0,12
0,60,0,4
0,45,0,14
0,57,100,2
0,40,0,28
0,57,0,0
0,57,0,18
0,52,95,2
0,57,95,12
0,66,96,2
0,62,98,2
0,60,0,14
0,62,100,16
0,62,107,2
0,50,65,0
0,42,113,0
0,52,0,46
0,57,0,0
0,42,0,48
0,54,49,2
0,62,0,26
0,62,93,16
0,54,0,4
0,57,91,2
0,50,0,22
0,62,0,26
0,45,56,0
0,42,113,0
0,62,107,48
0,42,0,46
0,66,0,0
0,57,100,2
0,62,0,8
0,57,0,0
0,57,0,38
0,54,98,2
0,62,0,10
0,45,0,4
0,62,0,16
0,62,93,6
0,59,100,2
0,55,91,2
0,57,0,6
0,59,102,2
0,43,61,0
0,43,113,0
0,62,100,0
0,54,0,46
0,43,0,48
0,50,82,2
0,60,95,40
0,50,0,6
0,55,91,2
0,62,0,10
0,43,0,36
0,59,0,0
0,38,61,2
0,43,116,0
0,59,100,8
0,59,105,0
0,60,0,6
0,55,95,8
0,59,0,30
0,55,0,2
0,59,0,8
0,55,0,6
0,55,0,0
0,62,0,2
0,50,98,0
0,38,0,12
0,59,0,18
0,59,102,4
0,57,79,10
0,43,0,2
0,60,102,2
0,45,57,0
0,45,116,0
0,60,91,0
0,64,89,2
0,50,0,4
0,52,88,6
0,52,0,42
0,57,93,2
0,45,0,34
0,45,0,12
0,60,0,0
0,40,50,2
0,45,116,0
0,60,95,14
0,57,65,48
0,57,0,46
0,52,93,2
0,60,0,30
0,57,0,10
0,45,0,6
0,64,0,0
0,40,0,2
0,60,0,0
0,59,0,0
0,60,82,0
0,45,50,0
0,45,116,0
0,57,0,2
0,60,0,30
0,45,0,64
0,45,0,0
0,60,98,2
0,40,57,0
0,52,0,46
0,60,0,16
0,62,107,34
0,40,0,52
0,62,0,10
0,64,101,22
0,60,110,2
0,60,99,0
0,55,75,6
0,60,116,4
0,48,66,0
0,48,119,0
0,52,91,2
0,52,0,2
0,55,86,2
0,48,0,12
0,48,0,8
0,60,0,0
0,43,54,2
