track,note,velocity,time
1,48,82,0
1,60,100,0
1,48,73,2
1,60,64,0
1,48,82,2
1,60,82,0
1,60,91,2
1,48,82,0
1,48,100,54
1,60,100,4
1,36,91,138
1,48,91,0
1,48,82,98
1,60,100,0
1,48,73,2
1,60,64,0
1,48,82,2
1,60,82,0
1,48,82,2
1,60,91,0
1,48,100,54
1,60,100,4
1,48,91,138
1,36,91,0
1,48,82,98
1,60,100,0
1,48,73,2
1,60,64,0
1,48,82,2
1,60,82,0
1,60,91,2
1,48,82,0
1,48,100,54
1,60,100,4
1,48,91,138
1,36,91,0
1,48,82,98
1,60,100,0
1,60,64,2
1,48,73,0
1,60,82,2
1,48,82,0
1,48,82,2
1,60,91,0
1,48,100,54
1,60,100,4
1,48,91,138
1,36,91,0
1,60,100,192
1,48,82,0
1,48,73,2
1,60,64,0
1,48,82,2
1,60,82,0
1,60,91,2
1,48,82,0
1,48,100,54
1,60,100,4
1,36,91,138
1,48,91,0
1,60,100,98
1,48,82,0
1,48,73,2
1,60,64,0
1,60,82,2
1,48,82,0
1,60,91,2
1,48,82,0
1,48,100,54
1,60,100,4
1,36,91,138
1,48,91,0
1,60,100,98
1,48,82,0
1,48,73,2
1,60,64,0
1,60,82,2
1,48,82,0
1,48,82,2
1,60,91,0
1,48,100,54
1,60,100,4
1,48,91,138
1,36,91,0
1,63,100,98
1,51,82,0
1,63,64,2
1,51,73,0
1,51,82,2
1,63,82,0
1,51,82,2
1,63,91,0
1,51,100,54
1,63,100,4
1,51,91,138
1,39,91,0
1,63,100,98
1,51,82,0
1,63,64,2
1,51,73,0
1,51,82,2
1,63,82,0
1,51,82,2
1,63,91,0
1,51,100,54
1,63,100,4
1,39,91,138
1,51,91,0
1,51,82,98
1,63,100,0
1,63,64,2
1,51,73,0
1,51,82,2
1,63,82,0
1,51,82,2
1,63,91,0
1,51,100,54
1,63,100,4
1,51,91,138
1,39,91,0
1,67,91,102
1,62,82,0
1,70,91,4
1,67,91,60
1,69,91,4
1,62,91,1
1,67,73,96
1,62,73,0
1,58,91,4
1,65,64,19
1,64,82,70
1,67,91,0
1,60,91,0
1,69,82,14
1,60,73,5
1,64,73,0
1,60,73,48
1,64,73,0
1,70,91,4
1,64,82,59
1,69,82,0
1,72,82,1
1,69,82,39
1,64,82,0
1,71,82,0
1,69,82,85
1,64,82,3
1,60,82,2
1,67,73,184
1,62,91,63
1,66,100,0
1,69,91,0
1,62,100,27
1,67,91,2
1,71,91,3
1,69,91,25
1,62,91,4
1,72,82,0
1,71,40,74
1,74,73,0
1,66,91,5
1,71,64,77
1,73,73,3
1,66,82,0
1,71,82,98
1,66,91,0
1,62,82,0
1,69,73,16
1,64,91,38
1,71,91,2
1,68,100,3
1,68,91,32
1,69,73,130
1,71,56,0
1,68,40,24
1,68,109,46
1,63,82,0
1,72,91,2
1,60,82,32
1,63,73,4
1,68,82,0
1,63,82,24
1,68,82,1
1,72,82,0
1,65,100,89
1,74,91,0
1,70,100,2
1,70,82,41
1,62,91,0
1,65,91,2
1,74,91,22
1,65,91,2
1,70,91,0
1,72,100,50
1,60,82,0
1,60,73,2
1,72,64,0
1,60,82,2
1,72,82,0
1,60,82,2
1,72,91,0
1,60,100,54
1,72,100,4
1,48,91,138
1,60,91,0
1,60,82,98
1,72,100,0
1,72,64,2
1,60,73,0
1,72,82,2
1,60,82,0
1,60,82,2
1,72,91,0
1,60,100,54
1,72,100,4
1,48,91,138
1,60,91,0
1,72,100,98
1,60,82,0
1,72,64,2
1,60,73,0
1,72,82,2
1,60,82,0
1,60,82,2
1,72,91,0
1,60,100,54
1,72,100,4
1,48,91,138
1,60,91,0
1,63,82,98
1,75,100,0
1,75,64,2
1,63,73,0
1,63,82,2
1,75,82,0
1,75,91,2
1,63,82,0
1,63,100,54
1,75,100,4
1,51,91,138
1,63,91,0
1,75,100,98
1,63,82,0
1,75,64,2
1,63,73,0
1,63,82,2
1,75,82,0
1,63,82,2
1,75,91,0
1,63,100,54
1,75,100,4
1,51,91,138
1,63,91,0
1,63,82,98
1,75,100,0
1,75,64,2
1,63,73,0
1,75,82,2
1,63,82,0
1,63,82,2
1,75,91,0
1,63,100,54
1,75,100,4
1,51,91,138
1,63,91,0
1,79,91,102
1,74,82,0
1,82,91,4
1,79,91,60
1,81,91,4
1,74,91,1
1,74,73,96
1,79,73,0
1,70,91,4
1,77,64,19
1,76,82,70
1,79,91,0
1,72,91,0
1,81,82,14
1,72,73,5
1,76,73,0
1,72,73,48
1,76,73,0
1,82,91,4
1,76,82,59
1,81,82,0
1,84,82,1
1,76,82,39
1,81,82,0
1,83,82,0
1,81,82,85
1,76,82,3
1,72,82,2
1,79,73,184
1,81,91,63
1,78,100,0
1,74,91,0
1,74,100,27
1,79,91,2
1,83,91,3
1,81,91,25
1,84,82,4
1,74,91,0
1,83,40,74
1,86,73,0
1,78,91,5
1,83,64,77
1,85,73,3
1,78,82,0
1,83,82,98
1,78,91,0
1,74,82,0
1,81,73,16
1,76,91,38
1,83,91,2
1,80,100,3
1,80,91,32
1,81,73,130
1,83,56,0
1,80,40,24
1,80,109,46
1,75,82,0
1,84,91,2
1,72,82,32
1,75,73,4
1,80,82,0
1,75,82,24
1,84,82,1
1,80,82,0
1,86,91,89
1,77,100,0
1,82,100,2
1,74,91,41
1,82,82,0
1,77,91,2
1,86,91,22
1,77,91,2
1,82,91,0
1,78,82,46
1,83,82,4
1,87,82,0
1,83,82,23
1,78,82,3
1,75,100,0
1,83,82,14
1,78,91,5
1,87,82,2
1,89,82,23
1,85,91,0
1,80,91,3
1,80,82,37
1,77,82,0
1,85,91,2
1,89,91,34
1,80,91,2
1,85,91,3
1,72,100,59
1,65,91,0
1,69,100,0
1,64,91,21
1,72,100,0
1,67,91,1
1,69,91,30
1,74,91,2
1,65,100,1
1,64,91,35
1,73,91,1
1,69,91,0
1,65,91,22
1,74,91,3
1,70,91,4
1,74,82,40
1,66,100,3
1,69,91,0
1,70,60,2
1,74,100,26
1,71,109,1
1,67,100,0
1,74,82,34
1,69,91,2
1,66,100,3
1,70,73,0
1,67,16,51
1,71,91,57
1,76,91,0
1,67,91,0
1,71,82,32
1,75,82,0
1,66,100,0
1,74,73,56
1,69,91,2
1,66,82,3
1,64,91,38
1,69,100,0
1,73,100,4
1,72,100,32
1,69,100,0
1,65,91,0
1,64,91,21
1,72,100,0
1,67,91,1
1,69,91,30
1,74,91,2
1,65,100,1
1,64,91,35
1,73,91,1
1,69,91,0
1,65,91,22
1,74,91,3
1,70,91,4
1,74,82,40
1,69,91,3
1,66,100,0
1,70,60,2
1,74,100,26
1,71,109,1
1,67,100,0
1,74,82,34
1,69,91,2
1,66,100,3
1,70,73,0
1,67,16,51
1,67,91,57
1,76,91,0
1,71,91,0
1,66,100,32
1,75,82,0
1,71,82,0
1,74,73,56
1,69,91,2
1,66,82,3
1,69,100,38
1,64,91,0
1,73,100,4
1,84,57,7037
1,84,72,60
1,81,72,2
1,84,77,10
1,84,72,53
1,81,77,4
1,84,110,128
1,84,110,68
1,81,88,12
1,83,110,15
1,83,110,63
1,79,121,13
1,84,67,108
1,84,88,60
1,81,67,2
1,84,88,26
1,29,127,0
1,29,127,4
1,84,72,24
1,29,127,0
1,29,127,7
1,81,88,0
1,31,127,36
1,31,127,26
1,33,127,53
1,84,77,522
1,84,99,68
1,81,67,5
1,84,77,10
1,84,72,55
1,81,67,10
1,84,99,164
1,84,110,71
1,81,99,15
1,83,99,10
1,83,99,66
1,79,110,16
1,84,67,120
1,84,77,66
1,81,67,4
1,31,127,7
1,83,72,0
1,83,33,61
1,76,62,160
1,40,69,1160
1,38,73,115
1,33,82,117
1,85,82,51
1,76,73,0
1,83,82,25
1,76,82,2
1,80,91,80
1,73,91,2
1,81,73,10
1,74,64,3
1,71,64,60
1,78,91,2
1,80,91,70
1,73,91,0
1,76,82,82
1,69,91,0
1,76,82,51
1,73,56,23
1,69,73,16
1,71,82,13
1,73,91,3
1,74,82,20
1,76,82,19
1,81,82,14
1,72,82,35
1,67,91,0
1,66,91,46
1,71,73,2
1,64,91,118
1,73,91,0
1,73,91,51
1,69,64,12
1,71,73,14
1,73,73,19
1,74,82,14
1,76,82,12
1,81,82,0
1,76,73,35
1,85,82,0
1,83,82,25
1,76,82,2
1,80,91,80
1,73,91,2
1,81,73,10
1,74,64,3
1,71,64,60
1,78,91,2
1,73,91,70
1,80,91,0
1,69,91,82
1,76,82,0
1,76,82,51
1,73,56,23
1,69,73,16
1,71,82,13
1,73,91,3
1,74,82,20
1,76,82,19
1,81,82,14
1,72,82,35
1,67,91,0
1,66,91,46
1,71,73,2
1,64,91,118
1,73,91,0
1,73,91,51
1,69,64,12
1,71,73,14
1,73,73,19
1,74,82,14
1,76,82,12
1,81,82,0
1,85,82,35
1,76,73,0
1,83,82,25
1,76,82,2
1,80,91,80
1,73,91,2
1,81,73,10
1,74,64,3
1,71,64,60
1,78,91,2
1,80,91,70
1,73,91,0
1,76,82,82
1,69,91,0
1,76,82,51
1,73,56,23
1,69,73,16
1,71,82,13
1,73,91,3
1,74,82,20
1,76,82,19
1,81,82,14
1,72,82,35
1,67,91,0
1,66,91,46
1,71,73,2
1,73,91,118
1,64,91,0
1,73,91,51
1,69,64,12
1,71,73,14
1,73,73,19
1,74,82,14
1,76,82,12
1,81,82,0
1,72,91,37
1,64,91,3
1,67,64,45
1,64,64,4
1,71,91,32
1,62,91,3
1,66,82,42
1,62,60,8
1,76,73,9248
1,76,64,24
1,72,60,25
1,67,64,17
1,76,91,10
1,72,36,5
1,67,64,5
1,77,73,5
1,67,56,2
1,76,64,5
1,67,60,48
1,74,64,47
1,74,73,21
1,71,60,20
1,67,64,2
1,74,82,15
1,71,36,8
1,67,64,7
1,76,73,0
1,67,64,48
1,74,64,2
1,67,64,48
1,72,60,5
1,72,73,20
1,69,64,27
1,64,60,13
1,72,91,18
1,69,44,2
1,64,73,7
1,74,82,48
1,64,73,5
1,72,82,2
1,64,64,2
1,71,73,16
1,68,64,5
1,64,64,10
1,69,73,16
1,66,56,48
1,64,64,40
1,71,91,21
1,64,73,0
1,68,91,0
1,76,91,93
1,76,73,23
1,72,60,27
1,67,64,15
1,76,100,12
1,72,44,5
1,67,64,4
1,77,91,2
1,67,60,4
1,76,73,48
1,67,64,40
1,74,64,47
1,74,82,23
1,71,64,27
1,67,73,13
1,74,91,16
1,71,48,0
1,67,73,0
1,76,64,48
1,67,60,2
1,74,64,48
1,67,64,44
1,72,64,5
1,72,73,24
1,69,64,20
1,64,64,21
1,72,91,13
1,69,85,7
1,64,60,26
1,74,73,4
1,64,73,7
1,72,64,48
1,64,56,7
1,71,73,21
1,68,73,4
1,64,60,48
1,69,73,8
1,66,52,48
1,64,64,44
1,68,82,18
1,71,82,0
1,64,73,0
1,76,73,4701
1,76,64,24
1,72,60,25
1,67,64,17
1,76,91,10
1,72,36,5
1,67,64,5
1,77,73,5
1,67,56,2
1,76,64,5
1,67,60,48
1,74,64,47
1,74,73,21
1,71,60,20
1,67,64,2
1,74,82,15
1,71,36,8
1,67,64,7
1,76,73,0
1,67,64,48
1,74,64,2
1,67,64,48
1,72,60,5
1,72,73,20
1,69,64,27
1,64,60,13
1,72,91,18
1,69,44,2
1,64,73,7
1,74,82,48
1,64,73,5
1,72,82,2
1,64,64,2
1,71,73,16
1,68,64,5
1,64,64,10
1,69,73,16
1,66,56,48
1,64,64,40
1,64,73,21
1,68,91,0
1,71,91,0
1,76,91,93
1,76,73,23
1,72,60,27
1,67,64,15
1,76,100,12
1,72,44,5
1,67,64,4
1,77,91,2
1,67,60,4
1,76,73,48
1,67,64,40
1,74,64,47
1,74,82,23
1,71,64,27
1,67,73,13
1,74,91,16
1,71,48,0
1,67,73,0
1,76,64,48
1,67,60,2
1,74,64,48
1,67,64,44
1,72,64,5
1,72,73,24
1,69,64,20
1,64,64,21
1,72,91,13
1,69,85,7
1,64,60,26
1,74,73,4
1,64,73,7
1,72,64,48
1,64,56,7
1,71,73,21
1,68,64,5
1,64,64,10
1,69,73,16
1,66,56,48
1,64,64,40
1,68,91,21
1,71,91,0
1,64,73,0
1,57,64,89
1,66,91,0
1,62,64,4
1,67,80,26
1,57,64,0
1,62,80,3
1,66,89,96
1,62,89,0
1,57,80,0
1,60,82,63
1,55,91,0
1,65,82,0
1,55,73,7
1,60,73,0
1,64,73,0
1,62,78,2
1,55,76,0
1,60,75,0
1,71,82,50
1,72,64,36
1,73,91,36
1,74,100,36
1,65,82,146
1,60,82,0
1,55,91,0
1,55,73,7
1,60,73,0
1,64,73,0
1,60,75,2
1,62,78,0
1,55,76,0
1,71,82,50
1,72,64,36
1,73,91,36
1,74,100,36
1,60,82,146
1,55,91,0
1,65,82,0
1,55,73,7
1,64,73,0
1,60,73,0
1,55,76,2
1,62,78,0
1,60,75,0
1,71,82,50
1,72,64,36
1,73,91,36
1,74,100,36
1,65,82,146
1,60,82,0
1,55,91,0
1,55,73,7
1,60,73,0
1,64,73,0
1,55,76,2
1,60,75,0
1,62,78,0
1,71,82,50
1,72,64,36
1,73,91,36
1,74,100,36
1,60,82,146
1,65,82,0
1,55,91,0
1,64,73,7
1,55,73,0
1,60,73,0
1,62,78,2
1,55,76,0
1,60,75,0
1,71,82,50
1,72,64,36
1,73,91,36
1,74,100,36
1,55,91,146
1,65,82,0
1,60,82,0
1,60,73,7
1,64,73,0
1,55,73,0
1,55,76,2
1,60,75,0
1,62,78,0
1,71,82,50
1,72,64,36
1,73,91,36
1,74,100,36
1,65,91,146
1,60,82,0
1,69,91,0
1,65,91,50
1,60,64,0
1,69,73,0
1,60,56,2
1,69,73,0
1,65,73,0
1,65,91,2
1,69,100,0
1,60,91,0
1,65,91,50
1,60,73,0
1,69,82,0
1,69,73,2
1,60,56,0
1,65,82,0
1,69,91,2
1,60,82,0
1,65,91,0
1,69,82,2
1,65,91,0
1,60,82,0
1,69,91,50
1,65,100,0
1,60,82,0
1,67,91,50
1,71,91,0
1,62,91,0
1,65,100,98
1,69,100,0
1,60,100,0
1,69,64,50
1,60,56,0
1,65,91,0
1,65,82,2
1,60,73,0
1,69,73,0
1,69,82,2
1,65,91,0
1,60,82,0
1,65,100,50
1,60,82,0
1,69,91,0
1,67,16,2
1,69,60,0
1,65,56,0
1,65,91,2
1,60,82,0
1,69,91,0
1,60,73,2
1,69,91,0
1,65,91,0
1,69,100,50
1,60,91,0
1,65,100,0
1,62,100,50
1,71,109,0
1,67,100,0
1,65,100,98
1,69,100,0
1,60,91,0
1,60,82,50
1,65,91,0
1,69,91,0
1,69,60,2
1,65,73,0
1,69,100,2
1,60,91,0
1,65,91,0
1,60,91,50
1,69,91,0
1,65,82,0
1,60,60,2
1,65,64,0
1,69,60,0
1,60,73,2
1,65,82,0
1,69,82,0
1,62,82,2
1,67,100,0
1,71,91,0
1,69,91,50
1,65,91,0
1,72,82,0
1,67,100,50
1,71,100,0
1,74,100,0
1,65,82,2
1,69,82,0
1,65,82,770
1,55,91,0
1,60,82,0
1,55,73,7
1,64,73,0
1,60,73,0
1,62,78,2
1,55,76,0
1,60,75,0
1,71,82,50
1,72,64,36
1,73,91,36
1,74,100,36
1,60,82,146
1,65,82,0
1,55,91,0
1,60,73,7
1,64,73,0
1,55,73,0
1,60,75,2
1,62,78,0
1,55,76,0
1,71,82,50
1,72,64,36
1,73,91,36
1,74,100,36
1,55,91,146
1,60,82,0
1,65,82,0
1,64,73,7
1,55,73,0
1,60,73,0
1,62,78,2
1,55,76,0
1,60,75,0
1,71,82,50
1,72,64,36
1,73,91,36
1,74,100,36
1,55,91,146
1,60,82,0
1,65,82,0
1,64,73,7
1,60,73,0
1,55,73,0
1,60,75,2
1,55,76,0
1,62,78,0
1,71,82,50
1,72,64,36
1,73,91,36
1,74,100,36
1,60,82,146
1,65,91,0
1,69,91,0
1,69,73,50
1,60,64,0
1,65,91,0
1,69,73,2
1,65,73,0
