track,note,velocity,time
1.0,65.0,75.0,384.0
1.0,41.0,50.0,0.0
1.0,53.0,33.0,2.0
1.0,41.0,46.0,20.0
1.0,53.0,39.0,32.0
1.0,69.0,93.0,38.0
1.0,41.0,50.0,6.0
1.0,53.0,33.0,18.0
1.0,65.0,94.0,64.0
1.0,72.0,95.0,18.0
1.0,41.0,46.0,6.0
1.0,53.0,55.0,0.0
1.0,41.0,63.0,24.0
1.0,53.0,60.0,88.0
1.0,70.0,80.0,8.0
1.0,41.0,57.0,2.0
1.0,69.0,83.0,8.0
1.0,67.0,84.0,26.0
1.0,53.0,50.0,18.0
1.0,65.0,95.0,38.0
1.0,64.0,100.0,0.0
1.0,41.0,67.0,14.0
1.0,67.0,98.0,146.0
1.0,53.0,64.0,16.0
1.0,70.0,101.0,138.0
1.0,41.0,58.0,6.0
1.0,74.0,89.0,22.0
1.0,53.0,51.0,16.0
1.0,72.0,91.0,4.0
1.0,41.0,41.0,12.0
1.0,70.0,90.0,10.0
1.0,53.0,47.0,4.0
1.0,68.0,76.0,10.0
1.0,64.0,67.0,6.0
1.0,41.0,36.0,2.0
1.0,53.0,32.0,38.0
1.0,69.0,50.0,18.0
1.0,41.0,39.0,10.0
1.0,65.0,33.0,14.0
1.0,53.0,41.0,8.0
1.0,41.0,48.0,52.0
1.0,53.0,49.0,4.0
1.0,77.0,102.0,30.0
1.0,41.0,54.0,6.0
1.0,74.0,58.0,16.0
1.0,53.0,58.0,28.0
1.0,53.0,50.0,30.0
1.0,79.0,75.0,10.0
1.0,77.0,89.0,10.0
1.0,72.0,64.0,0.0
1.0,76.0,70.0,26.0
1.0,74.0,82.0,118.0
1.0,70.0,70.0,6.0
1.0,72.0,87.0,110.0
1.0,69.0,75.0,4.0
1.0,41.0,38.0,6.0
1.0,53.0,61.0,18.0
1.0,53.0,48.0,4.0
1.0,74.0,63.0,22.0
1.0,72.0,85.0,0.0
1.0,67.0,53.0,0.0
1.0,70.0,88.0,2.0
1.0,65.0,69.0,88.0
1.0,69.0,80.0,0.0
1.0,46.0,76.0,18.0
1.0,67.0,79.0,12.0
1.0,69.0,76.0,42.0
1.0,67.0,79.0,76.0
1.0,66.0,78.0,16.0
1.0,67.0,84.0,26.0
1.0,69.0,91.0,14.0
1.0,70.0,100.0,76.0
1.0,72.0,90.0,66.0
1.0,74.0,93.0,62.0
1.0,47.0,59.0,4.0
1.0,65.0,91.0,164.0
1.0,65.0,68.0,74.0
1.0,48.0,63.0,22.0
1.0,64.0,77.0,0.0
1.0,62.0,52.0,60.0
1.0,64.0,67.0,14.0
1.0,36.0,44.0,4.0
1.0,60.0,60.0,116.0
1.0,62.0,65.0,158.0
1.0,64.0,65.0,174.0
1.0,64.0,34.0,44.0
1.0,65.0,94.0,96.0
1.0,41.0,63.0,0.0
1.0,57.0,62.0,4.0
1.0,53.0,46.0,18.0
1.0,41.0,54.0,82.0
1.0,53.0,53.0,126.0
1.0,69.0,80.0,60.0
1.0,41.0,44.0,14.0
1.0,65.0,63.0,20.0
1.0,53.0,50.0,16.0
1.0,69.0,77.0,10.0
1.0,65.0,73.0,32.0
1.0,41.0,52.0,28.0
1.0,72.0,102.0,0.0
1.0,53.0,47.0,4.0
1.0,41.0,62.0,30.0
1.0,53.0,51.0,120.0
1.0,70.0,79.0,20.0
1.0,41.0,41.0,4.0
1.0,69.0,76.0,60.0
1.0,67.0,79.0,44.0
1.0,53.0,52.0,2.0
1.0,65.0,78.0,8.0
1.0,41.0,50.0,16.0
1.0,64.0,94.0,4.0
1.0,67.0,95.0,152.0
1.0,53.0,50.0,12.0
1.0,70.0,96.0,14.0
1.0,41.0,49.0,22.0
1.0,74.0,90.0,2.0
1.0,53.0,43.0,2.0
1.0,41.0,48.0,2.0
1.0,72.0,89.0,4.0
1.0,70.0,92.0,8.0
1.0,53.0,37.0,4.0
1.0,68.0,72.0,56.0
1.0,41.0,49.0,0.0
1.0,64.0,62.0,0.0
1.0,53.0,34.0,48.0
1.0,69.0,46.0,40.0
1.0,65.0,36.0,6.0
1.0,41.0,38.0,0.0
1.0,53.0,37.0,12.0
1.0,41.0,46.0,38.0
1.0,53.0,47.0,34.0
1.0,77.0,83.0,48.0
1.0,59.0,39.0,4.0
1.0,55.0,46.0,8.0
1.0,59.0,39.0,156.0
1.0,81.0,65.0,20.0
1.0,55.0,52.0,8.0
1.0,77.0,57.0,16.0
1.0,76.0,66.0,6.0
1.0,60.0,52.0,6.0
1.0,79.0,71.0,10.0
1.0,55.0,46.0,2.0
1.0,71.0,57.0,2.0
1.0,65.0,38.0,6.0
1.0,55.0,38.0,156.0
1.0,65.0,49.0,40.0
1.0,74.0,50.0,16.0
1.0,55.0,35.0,10.0
1.0,71.0,33.0,10.0
1.0,72.0,75.0,26.0
1.0,64.0,47.0,12.0
1.0,67.0,75.0,28.0
1.0,55.0,41.0,4.0
1.0,77.0,95.0,26.0
1.0,59.0,35.0,14.0
1.0,79.0,84.0,64.0
1.0,77.0,91.0,20.0
1.0,55.0,49.0,6.0
1.0,76.0,87.0,2.0
1.0,77.0,80.0,10.0
1.0,59.0,26.0,2.0
1.0,81.0,78.0,28.0
1.0,79.0,58.0,28.0
1.0,55.0,36.0,2.0
1.0,77.0,70.0,14.0
1.0,60.0,42.0,56.0
1.0,76.0,62.0,0.0
1.0,79.0,70.0,36.0
1.0,55.0,44.0,12.0
1.0,76.0,50.0,26.0
1.0,72.0,66.0,20.0
1.0,71.0,56.0,2.0
1.0,65.0,47.0,4.0
1.0,72.0,84.0,30.0
1.0,55.0,48.0,0.0
1.0,71.0,55.0,10.0
1.0,69.0,73.0,28.0
1.0,71.0,61.0,14.0
1.0,65.0,54.0,16.0
1.0,74.0,82.0,34.0
1.0,72.0,85.0,12.0
1.0,55.0,54.0,6.0
1.0,71.0,66.0,34.0
1.0,72.0,94.0,8.0
1.0,64.0,63.0,24.0
1.0,76.0,78.0,48.0
1.0,79.0,91.0,12.0
1.0,60.0,49.0,14.0
1.0,84.0,65.0,12.0
1.0,65.0,89.0,46.0
1.0,81.0,76.0,2.0
1.0,77.0,81.0,46.0
1.0,74.0,76.0,46.0
1.0,67.0,79.0,58.0
1.0,79.0,59.0,24.0
1.0,76.0,60.0,30.0
1.0,72.0,60.0,38.0
1.0,55.0,60.0,54.0
1.0,77.0,55.0,22.0
1.0,74.0,52.0,30.0
1.0,71.0,31.0,44.0
1.0,60.0,45.0,52.0
1.0,64.0,46.0,0.0
1.0,72.0,73.0,162.0
1.0,74.0,74.0,8.0
1.0,76.0,87.0,26.0
1.0,76.0,82.0,140.0
1.0,72.0,72.0,12.0
1.0,76.0,78.0,126.0
1.0,72.0,80.0,8.0
1.0,76.0,94.0,126.0
1.0,72.0,84.0,4.0
1.0,79.0,97.0,136.0
1.0,76.0,92.0,4.0
1.0,67.0,73.0,184.0
1.0,66.0,76.0,28.0
1.0,67.0,85.0,8.0
1.0,74.0,85.0,4.0
1.0,77.0,93.0,2.0
1.0,55.0,95.0,92.0
1.0,57.0,99.0,80.0
1.0,59.0,86.0,138.0
1.0,60.0,93.0,146.0
1.0,72.0,80.0,178.0
1.0,74.0,70.0,36.0
1.0,76.0,94.0,58.0
1.0,72.0,94.0,128.0
1.0,76.0,88.0,4.0
1.0,72.0,83.0,112.0
1.0,76.0,93.0,4.0
1.0,76.0,94.0,128.0
1.0,72.0,77.0,12.0
1.0,79.0,86.0,134.0
1.0,76.0,64.0,10.0
1.0,67.0,68.0,174.0
1.0,66.0,60.0,30.0
1.0,74.0,65.0,20.0
1.0,77.0,65.0,2.0
1.0,67.0,63.0,2.0
1.0,55.0,74.0,118.0
1.0,57.0,71.0,134.0
1.0,59.0,51.0,146.0
1.0,76.0,78.0,2.0
1.0,72.0,58.0,8.0
1.0,60.0,59.0,6.0
1.0,74.0,74.0,14.0
1.0,77.0,64.0,0.0
1.0,53.0,40.0,16.0
1.0,76.0,74.0,8.0
1.0,55.0,59.0,16.0
1.0,72.0,63.0,14.0
1.0,74.0,56.0,6.0
1.0,43.0,55.0,0.0
1.0,71.0,29.0,4.0
1.0,48.0,50.0,54.0
1.0,72.0,62.0,166.0
1.0,67.0,57.0,4.0
1.0,64.0,69.0,30.0
1.0,64.0,69.0,48.0
1.0,60.0,65.0,4.0
1.0,64.0,54.0,132.0
1.0,60.0,32.0,0.0
1.0,60.0,35.0,86.0
1.0,64.0,50.0,12.0
1.0,67.0,51.0,22.0
1.0,64.0,51.0,8.0
1.0,55.0,39.0,182.0
1.0,54.0,62.0,8.0
1.0,55.0,45.0,24.0
1.0,62.0,44.0,24.0
1.0,65.0,48.0,4.0
1.0,43.0,61.0,82.0
1.0,45.0,62.0,134.0
1.0,47.0,37.0,140.0
1.0,48.0,40.0,52.0
1.0,72.0,42.0,96.0
1.0,67.0,31.0,14.0
1.0,64.0,42.0,22.0
1.0,64.0,56.0,102.0
1.0,60.0,45.0,16.0
1.0,60.0,36.0,94.0
1.0,64.0,66.0,20.0
1.0,60.0,61.0,124.0
1.0,64.0,51.0,2.0
1.0,67.0,52.0,142.0
1.0,64.0,40.0,10.0
1.0,55.0,58.0,172.0
1.0,54.0,73.0,32.0
1.0,55.0,51.0,28.0
1.0,65.0,63.0,4.0
1.0,62.0,52.0,0.0
1.0,43.0,79.0,68.0
1.0,45.0,89.0,126.0
1.0,47.0,72.0,38.0
1.0,48.0,83.0,78.0
1.0,64.0,74.0,12.0
1.0,60.0,68.0,66.0
1.0,65.0,68.0,2.0
1.0,41.0,53.0,4.0
1.0,62.0,67.0,16.0
1.0,60.0,74.0,48.0
1.0,64.0,79.0,4.0
1.0,43.0,51.0,12.0
1.0,64.0,70.0,138.0
1.0,60.0,68.0,0.0
1.0,62.0,63.0,122.0
1.0,59.0,56.0,2.0
1.0,43.0,86.0,4.0
1.0,62.0,72.0,126.0
1.0,59.0,50.0,14.0
1.0,36.0,87.0,10.0
1.0,60.0,101.0,10.0
1.0,48.0,88.0,16.0
1.0,48.0,79.0,108.0
1.0,62.0,81.0,20.0
1.0,64.0,80.0,22.0
1.0,65.0,94.0,30.0
1.0,67.0,95.0,26.0
1.0,69.0,93.0,70.0
1.0,71.0,81.0,2.0
1.0,36.0,74.0,70.0
1.0,72.0,108.0,10.0
1.0,48.0,85.0,26.0
1.0,48.0,89.0,102.0
1.0,74.0,94.0,188.0
1.0,76.0,97.0,40.0
1.0,77.0,99.0,34.0
1.0,79.0,100.0,22.0
1.0,81.0,97.0,76.0
1.0,83.0,78.0,4.0
1.0,84.0,110.0,76.0
1.0,36.0,78.0,4.0
1.0,48.0,81.0,0.0
1.0,72.0,108.0,272.0
1.0,36.0,84.0,2.0
1.0,48.0,87.0,2.0
1.0,64.0,94.0,2.0
1.0,67.0,94.0,2.0
1.0,60.0,58.0,720.0
1.0,64.0,54.0,172.0
1.0,67.0,53.0,28.0
1.0,72.0,57.0,22.0
1.0,72.0,67.0,128.0
1.0,72.0,71.0,128.0
1.0,72.0,63.0,12.0
1.0,60.0,45.0,108.0
1.0,65.0,42.0,188.0
1.0,71.0,50.0,30.0
1.0,74.0,65.0,6.0
1.0,74.0,67.0,132.0
1.0,74.0,75.0,128.0
1.0,74.0,83.0,134.0
1.0,60.0,62.0,120.0
1.0,67.0,69.0,172.0
1.0,70.0,79.0,2.0
1.0,76.0,83.0,80.0
1.0,76.0,82.0,136.0
1.0,76.0,85.0,132.0
1.0,76.0,72.0,140.0
1.0,61.0,84.0,52.0
1.0,69.0,75.0,88.0
1.0,73.0,82.0,2.0
1.0,57.0,58.0,26.0
1.0,76.0,91.0,62.0
1.0,81.0,100.0,40.0
1.0,61.0,60.0,8.0
1.0,81.0,99.0,0.0
1.0,57.0,54.0,12.0
1.0,81.0,98.0,84.0
1.0,61.0,53.0,14.0
1.0,82.0,97.0,4.0
1.0,81.0,81.0,4.0
1.0,57.0,46.0,8.0
1.0,79.0,80.0,74.0
1.0,77.0,84.0,16.0
1.0,62.0,59.0,6.0
1.0,81.0,70.0,52.0
1.0,79.0,72.0,24.0
1.0,57.0,55.0,4.0
1.0,77.0,79.0,18.0
1.0,64.0,88.0,2.0
1.0,76.0,78.0,4.0
1.0,79.0,78.0,38.0
1.0,57.0,63.0,74.0
1.0,77.0,86.0,8.0
1.0,76.0,82.0,8.0
1.0,65.0,85.0,32.0
1.0,74.0,89.0,10.0
1.0,77.0,84.0,38.0
1.0,76.0,78.0,2.0
1.0,57.0,65.0,4.0
1.0,74.0,79.0,22.0
1.0,61.0,62.0,34.0
1.0,69.0,83.0,66.0
1.0,57.0,36.0,0.0
1.0,73.0,81.0,6.0
1.0,76.0,91.0,86.0
1.0,81.0,92.0,4.0
1.0,61.0,43.0,10.0
1.0,81.0,94.0,128.0
1.0,57.0,43.0,12.0
1.0,81.0,91.0,40.0
1.0,61.0,55.0,16.0
1.0,88.0,73.0,0.0
1.0,57.0,62.0,10.0
1.0,85.0,72.0,2.0
1.0,79.0,64.0,34.0
1.0,77.0,86.0,30.0
1.0,62.0,66.0,6.0
1.0,81.0,80.0,40.0
1.0,77.0,73.0,50.0
1.0,57.0,66.0,2.0
1.0,81.0,77.0,44.0
1.0,64.0,81.0,20.0
1.0,76.0,76.0,14.0
1.0,79.0,80.0,36.0
1.0,57.0,69.0,18.0
1.0,76.0,82.0,16.0
1.0,79.0,84.0,28.0
1.0,65.0,84.0,24.0
1.0,74.0,82.0,4.0
1.0,77.0,87.0,30.0
1.0,74.0,80.0,34.0
1.0,57.0,84.0,6.0
1.0,77.0,80.0,42.0
1.0,66.0,93.0,26.0
1.0,72.0,87.0,8.0
1.0,75.0,74.0,10.0
1.0,72.0,72.0,84.0
1.0,66.0,72.0,2.0
1.0,75.0,68.0,6.0
1.0,66.0,81.0,6.0
1.0,72.0,83.0,6.0
1.0,75.0,70.0,20.0
1.0,72.0,84.0,8.0
1.0,75.0,68.0,30.0
1.0,72.0,89.0,14.0
1.0,74.0,81.0,42.0
1.0,72.0,87.0,36.0
1.0,74.0,82.0,84.0
1.0,67.0,89.0,28.0
1.0,72.0,84.0,12.0
1.0,74.0,83.0,12.0
1.0,72.0,85.0,24.0
1.0,67.0,78.0,2.0
1.0,74.0,85.0,8.0
1.0,67.0,83.0,18.0
1.0,69.0,79.0,10.0
1.0,74.0,70.0,34.0
1.0,69.0,71.0,24.0
1.0,74.0,70.0,32.0
1.0,70.0,89.0,36.0
1.0,74.0,79.0,22.0
1.0,70.0,64.0,2.0
1.0,74.0,75.0,76.0
1.0,70.0,65.0,70.0
1.0,64.0,80.0,0.0
1.0,73.0,66.0,4.0
1.0,70.0,57.0,24.0
1.0,64.0,70.0,6.0
1.0,73.0,65.0,4.0
1.0,70.0,62.0,30.0
1.0,64.0,60.0,12.0
1.0,73.0,62.0,24.0
1.0,70.0,51.0,16.0
1.0,73.0,66.0,2.0
1.0,70.0,49.0,18.0
1.0,72.0,63.0,28.0
1.0,70.0,48.0,20.0
1.0,72.0,62.0,8.0
1.0,70.0,59.0,20.0
1.0,65.0,61.0,4.0
1.0,72.0,59.0,0.0
1.0,70.0,64.0,14.0
1.0,65.0,58.0,22.0
1.0,72.0,68.0,8.0
1.0,67.0,65.0,60.0
1.0,65.0,53.0,12.0
1.0,72.0,63.0,28.0
1.0,67.0,58.0,42.0
1.0,72.0,59.0,26.0
1.0,69.0,63.0,24.0
1.0,72.0,84.0,40.0
1.0,69.0,63.0,38.0
1.0,72.0,83.0,16.0
1.0,62.0,83.0,48.0
1.0,71.0,80.0,0.0
1.0,55.0,81.0,6.0
1.0,77.0,73.0,4.0
1.0,71.0,49.0,38.0
1.0,62.0,63.0,8.0
1.0,55.0,64.0,0.0
1.0,77.0,50.0,56.0
1.0,71.0,43.0,38.0
1.0,62.0,56.0,0.0
1.0,55.0,56.0,6.0
1.0,77.0,50.0,22.0
1.0,71.0,38.0,48.0
1.0,62.0,44.0,22.0
1.0,55.0,34.0,12.0
1.0,77.0,48.0,4.0
1.0,62.0,52.0,40.0
1.0,55.0,65.0,4.0
1.0,71.0,36.0,4.0
1.0,77.0,54.0,24.0
1.0,71.0,41.0,42.0
1.0,62.0,70.0,6.0
1.0,55.0,71.0,6.0
1.0,77.0,74.0,28.0
1.0,48.0,76.0,62.0
1.0,76.0,84.0,0.0
1.0,72.0,84.0,76.0
1.0,71.0,52.0,26.0
1.0,60.0,65.0,6.0
1.0,72.0,71.0,46.0
1.0,48.0,67.0,14.0
1.0,74.0,88.0,2.0
1.0,72.0,90.0,16.0
1.0,71.0,62.0,22.0
1.0,60.0,50.0,22.0
1.0,72.0,81.0,28.0
1.0,77.0,96.0,16.0
1.0,48.0,66.0,6.0
1.0,74.0,90.0,76.0
1.0,72.0,92.0,10.0
1.0,60.0,54.0,22.0
1.0,74.0,84.0,56.0
1.0,79.0,93.0,0.0
1.0,48.0,69.0,2.0
1.0,76.0,88.0,80.0
1.0,74.0,94.0,4.0
1.0,60.0,64.0,16.0
1.0,76.0,92.0,72.0
1.0,48.0,72.0,10.0
1.0,77.0,103.0,12.0
1.0,76.0,91.0,68.0
1.0,74.0,91.0,28.0
1.0,60.0,63.0,10.0
1.0,76.0,85.0,72.0
1.0,48.0,74.0,26.0
1.0,81.0,101.0,0.0
1.0,77.0,100.0,78.0
1.0,76.0,95.0,34.0
1.0,60.0,71.0,0.0
1.0,77.0,97.0,72.0
1.0,48.0,76.0,30.0
1.0,82.0,108.0,2.0
1.0,81.0,102.0,28.0
1.0,79.0,104.0,8.0
1.0,60.0,67.0,6.0
1.0,81.0,98.0,56.0
1.0,48.0,80.0,10.0
1.0,82.0,113.0,4.0
1.0,81.0,95.0,10.0
1.0,79.0,102.0,6.0
1.0,60.0,76.0,0.0
1.0,81.0,98.0,68.0
1.0,82.0,110.0,10.0
1.0,48.0,79.0,4.0
1.0,81.0,98.0,40.0
1.0,79.0,101.0,26.0
1.0,60.0,77.0,8.0
1.0,81.0,104.0,58.0
1.0,82.0,111.0,14.0
1.0,48.0,85.0,4.0
1.0,81.0,100.0,94.0
1.0,79.0,94.0,84.0
1.0,77.0,96.0,110.0
1.0,76.0,95.0,48.0
1.0,74.0,81.0,138.0
1.0,72.0,79.0,126.0
1.0,71.0,46.0,122.0
1.0,70.0,77.0,106.0
1.0,69.0,57.0,126.0
1.0,68.0,50.0,144.0
1.0,67.0,36.0,158.0
1.0,41.0,41.0,192.0
1.0,65.0,55.0,4.0
1.0,53.0,40.0,42.0
1.0,41.0,41.0,66.0
1.0,53.0,43.0,96.0
1.0,69.0,63.0,6.0
1.0,41.0,44.0,20.0
1.0,53.0,35.0,8.0
1.0,65.0,58.0,84.0
1.0,72.0,80.0,30.0
1.0,41.0,34.0,10.0
1.0,53.0,27.0,16.0
1.0,41.0,40.0,74.0
1.0,53.0,41.0,126.0
1.0,70.0,77.0,60.0
1.0,41.0,31.0,12.0
1.0,69.0,64.0,8.0
1.0,53.0,47.0,4.0
1.0,67.0,72.0,8.0
1.0,65.0,89.0,74.0
1.0,41.0,48.0,0.0
1.0,64.0,89.0,4.0
1.0,67.0,93.0,170.0
1.0,53.0,45.0,16.0
1.0,70.0,88.0,36.0
1.0,41.0,41.0,10.0
1.0,74.0,74.0,8.0
1.0,53.0,44.0,4.0
1.0,72.0,74.0,12.0
1.0,41.0,37.0,4.0
1.0,70.0,79.0,66.0
1.0,53.0,35.0,16.0
1.0,68.0,63.0,68.0
1.0,64.0,48.0,8.0
1.0,41.0,36.0,4.0
1.0,53.0,36.0,96.0
1.0,41.0,36.0,34.0
1.0,69.0,37.0,10.0
1.0,65.0,25.0,0.0
1.0,53.0,35.0,54.0
1.0,41.0,34.0,70.0
1.0,53.0,51.0,22.0
1.0,75.0,68.0,32.0
1.0,57.0,44.0,20.0
1.0,53.0,40.0,20.0
1.0,57.0,21.0,8.0
1.0,53.0,41.0,4.0
1.0,79.0,49.0,2.0
1.0,75.0,39.0,16.0
1.0,58.0,55.0,80.0
1.0,74.0,46.0,0.0
1.0,53.0,46.0,120.0
1.0,77.0,59.0,4.0
1.0,69.0,57.0,0.0
1.0,63.0,47.0,0.0
1.0,53.0,47.0,140.0
1.0,63.0,45.0,66.0
1.0,53.0,36.0,38.0
1.0,72.0,51.0,6.0
1.0,69.0,44.0,20.0
1.0,70.0,72.0,84.0
1.0,62.0,44.0,0.0
1.0,72.0,85.0,6.0
1.0,53.0,45.0,12.0
1.0,74.0,85.0,42.0
1.0,75.0,87.0,16.0
1.0,57.0,52.0,8.0
1.0,77.0,82.0,0.0
1.0,75.0,72.0,70.0
1.0,53.0,50.0,2.0
1.0,74.0,90.0,42.0
1.0,57.0,54.0,12.0
1.0,75.0,70.0,0.0
1.0,79.0,65.0,8.0
1.0,53.0,50.0,60.0
1.0,77.0,78.0,2.0
1.0,75.0,71.0,22.0
1.0,58.0,49.0,28.0
1.0,74.0,69.0,2.0
1.0,53.0,52.0,8.0
1.0,72.0,78.0,14.0
1.0,54.0,54.0,2.0
1.0,74.0,73.0,30.0
1.0,72.0,84.0,80.0
1.0,62.0,49.0,6.0
1.0,71.0,60.0,32.0
1.0,54.0,55.0,6.0
1.0,72.0,83.0,10.0
1.0,75.0,68.0,20.0
1.0,74.0,73.0,88.0
1.0,62.0,48.0,8.0
1.0,72.0,66.0,24.0
1.0,70.0,64.0,24.0
1.0,55.0,37.0,12.0
1.0,62.0,47.0,4.0
1.0,60.0,85.0,38.0
1.0,52.0,72.0,2.0
1.0,55.0,85.0,2.0
1.0,70.0,88.0,82.0
1.0,72.0,87.0,86.0
1.0,70.0,85.0,88.0
1.0,79.0,85.0,44.0
1.0,70.0,87.0,68.0
1.0,72.0,70.0,40.0
1.0,70.0,79.0,16.0
1.0,60.0,71.0,32.0
1.0,53.0,72.0,8.0
1.0,57.0,66.0,0.0
1.0,69.0,75.0,74.0
1.0,72.0,75.0,42.0
1.0,77.0,79.0,18.0
1.0,60.0,62.0,66.0
1.0,52.0,57.0,10.0
1.0,55.0,50.0,12.0
1.0,70.0,70.0,70.0
1.0,72.0,70.0,28.0
1.0,70.0,74.0,40.0
1.0,79.0,82.0,42.0
1.0,70.0,81.0,80.0
1.0,72.0,66.0,34.0
1.0,70.0,81.0,2.0
1.0,53.0,43.0,36.0
1.0,57.0,44.0,18.0
1.0,60.0,34.0,0.0
1.0,69.0,58.0,68.0
1.0,72.0,62.0,48.0
1.0,77.0,32.0,10.0
1.0,58.0,74.0,20.0
1.0,74.0,57.0,100.0
1.0,70.0,72.0,10.0
1.0,67.0,56.0,36.0
1.0,60.0,59.0,48.0
1.0,72.0,60.0,12.0
1.0,69.0,54.0,26.0
1.0,65.0,46.0,20.0
1.0,48.0,64.0,50.0
1.0,70.0,68.0,32.0
1.0,67.0,53.0,24.0
1.0,64.0,57.0,28.0
1.0,57.0,52.0,58.0
1.0,53.0,40.0,22.0
1.0,65.0,60.0,164.0
1.0,67.0,62.0,28.0
1.0,69.0,65.0,18.0
1.0,69.0,76.0,38.0
1.0,65.0,55.0,0.0
1.0,65.0,63.0,126.0
1.0,69.0,80.0,0.0
1.0,69.0,84.0,130.0
1.0,65.0,76.0,2.0
1.0,72.0,95.0,118.0
1.0,69.0,85.0,8.0
1.0,60.0,83.0,26.0
1.0,59.0,72.0,12.0
1.0,70.0,82.0,28.0
1.0,60.0,92.0,6.0
1.0,67.0,75.0,6.0
1.0,48.0,96.0,110.0
1.0,50.0,84.0,144.0
1.0,52.0,92.0,138.0
1.0,53.0,79.0,6.0
1.0,77.0,68.0,178.0
1.0,72.0,84.0,84.0
1.0,69.0,75.0,40.0
1.0,69.0,81.0,80.0
1.0,65.0,80.0,4.0
1.0,65.0,78.0,46.0
1.0,69.0,83.0,2.0
1.0,65.0,78.0,120.0
1.0,69.0,86.0,8.0
1.0,69.0,76.0,138.0
1.0,72.0,73.0,6.0
1.0,60.0,69.0,192.0
1.0,59.0,30.0,44.0
1.0,70.0,59.0,2.0
1.0,67.0,60.0,4.0
1.0,60.0,62.0,4.0
1.0,48.0,76.0,124.0
1.0,50.0,77.0,136.0
1.0,52.0,59.0,144.0
1.0,69.0,56.0,64.0
1.0,65.0,52.0,2.0
1.0,53.0,52.0,0.0
1.0,46.0,67.0,4.0
1.0,70.0,73.0,2.0
1.0,67.0,54.0,22.0
1.0,69.0,59.0,10.0
1.0,48.0,54.0,4.0
1.0,65.0,48.0,26.0
1.0,67.0,48.0,4.0
1.0,36.0,52.0,2.0
1.0,64.0,42.0,4.0
1.0,41.0,62.0,18.0
1.0,77.0,79.0,152.0
1.0,79.0,81.0,20.0
1.0,81.0,87.0,80.0
1.0,81.0,85.0,86.0
1.0,77.0,78.0,6.0
1.0,81.0,85.0,128.0
1.0,77.0,71.0,6.0
1.0,81.0,80.0,128.0
1.0,77.0,68.0,6.0
1.0,84.0,88.0,146.0
1.0,81.0,75.0,2.0
1.0,72.0,71.0,188.0
1.0,71.0,65.0,16.0
1.0,82.0,82.0,34.0
1.0,72.0,85.0,4.0
1.0,79.0,71.0,12.0
1.0,60.0,85.0,64.0
1.0,62.0,77.0,114.0
1.0,64.0,75.0,138.0
1.0,65.0,76.0,34.0
1.0,89.0,61.0,194.0
1.0,84.0,59.0,68.0
1.0,81.0,55.0,40.0
1.0,77.0,78.0,30.0
1.0,81.0,78.0,8.0
1.0,77.0,84.0,116.0
1.0,81.0,84.0,14.0
1.0,77.0,89.0,120.0
1.0,81.0,95.0,4.0
1.0,81.0,95.0,128.0
1.0,84.0,97.0,4.0
1.0,72.0,87.0,200.0
1.0,71.0,56.0,32.0
1.0,72.0,87.0,32.0
1.0,82.0,82.0,8.0
1.0,79.0,55.0,18.0
1.0,60.0,82.0,84.0
1.0,62.0,66.0,146.0
1.0,64.0,79.0,146.0
1.0,65.0,81.0,32.0
1.0,81.0,69.0,2.0
1.0,77.0,69.0,72.0
1.0,82.0,80.0,20.0
1.0,58.0,67.0,20.0
1.0,79.0,65.0,62.0
1.0,81.0,80.0,38.0
1.0,77.0,67.0,0.0
1.0,60.0,76.0,16.0
1.0,81.0,84.0,132.0
1.0,77.0,79.0,2.0
1.0,79.0,86.0,54.0
1.0,76.0,76.0,4.0
1.0,48.0,70.0,6.0
1.0,79.0,89.0,128.0
1.0,76.0,83.0,0.0
1.0,77.0,103.0,64.0
1.0,57.0,75.0,2.0
1.0,53.0,80.0,2.0
1.0,53.0,80.0,134.0
1.0,57.0,77.0,2.0
1.0,57.0,73.0,144.0
1.0,53.0,57.0,2.0
1.0,76.0,74.0,20.0
1.0,74.0,78.0,20.0
1.0,72.0,81.0,32.0
1.0,70.0,85.0,74.0
1.0,69.0,79.0,76.0
1.0,67.0,80.0,42.0
1.0,57.0,87.0,12.0
1.0,53.0,84.0,2.0
1.0,65.0,91.0,4.0
1.0,53.0,81.0,136.0
1.0,57.0,81.0,2.0
1.0,53.0,70.0,162.0
1.0,57.0,57.0,2.0
1.0,64.0,71.0,26.0
1.0,62.0,78.0,76.0
1.0,60.0,85.0,28.0
1.0,58.0,98.0,74.0
1.0,57.0,91.0,76.0
1.0,55.0,95.0,48.0
1.0,41.0,103.0,2.0
1.0,53.0,105.0,6.0
1.0,57.0,90.0,376.0
1.0,65.0,98.0,0.0
1.0,41.0,90.0,2.0
1.0,60.0,88.0,2.0
1.0,53.0,84.0,2.0
0.0,0.0,0.0,0.0
0.0,0.0,0.0,0.0
0.0,0.0,0.0,0.0
0.0,0.0,0.0,0.0
0.0,0.0,0.0,0.0
0.0,0.0,0.0,0.0
0.0,0.0,0.0,0.0
0.0,0.0,0.0,0.0
0.0,0.0,0.0,0.0
0.0,0.0,0.0,0.0
0.0,0.0,0.0,0.0
0.0,0.0,0.0,0.0
0.0,0.0,0.0,0.0
0.0,0.0,0.0,0.0
0.0,0.0,0.0,0.0
0.0,0.0,0.0,0.0
0.0,0.0,0.0,0.0
0.0,0.0,0.0,0.0
0.0,0.0,0.0,0.0
0.0,0.0,0.0,0.0
0.0,0.0,0.0,0.0
0.0,0.0,0.0,0.0
0.0,0.0,0.0,0.0
0.0,0.0,0.0,0.0
0.0,0.0,0.0,0.0
0.0,0.0,0.0,0.0
0.0,0.0,0.0,0.0
0.0,0.0,0.0,0.0
0.0,0.0,0.0,0.0
0.0,0.0,0.0,0.0
0.0,0.0,0.0,0.0
0.0,0.0,0.0,0.0
0.0,0.0,0.0,0.0
0.0,0.0,0.0,0.0
0.0,0.0,0.0,0.0
0.0,0.0,0.0,0.0
0.0,0.0,0.0,0.0
0.0,0.0,0.0,0.0
0.0,0.0,0.0,0.0
0.0,0.0,0.0,0.0
0.0,0.0,0.0,0.0
0.0,0.0,0.0,0.0
0.0,0.0,0.0,0.0
0.0,0.0,0.0,0.0
0.0,0.0,0.0,0.0
0.0,0.0,0.0,0.0
0.0,0.0,0.0,0.0
0.0,0.0,0.0,0.0
0.0,0.0,0.0,0.0
0.0,0.0,0.0,0.0
0.0,0.0,0.0,0.0
0.0,0.0,0.0,0.0
0.0,0.0,0.0,0.0
0.0,0.0,0.0,0.0
0.0,0.0,0.0,0.0
0.0,0.0,0.0,0.0
0.0,0.0,0.0,0.0
0.0,0.0,0.0,0.0
0.0,0.0,0.0,0.0
0.0,0.0,0.0,0.0
0.0,0.0,0.0,0.0
0.0,0.0,0.0,0.0
0.0,0.0,0.0,0.0
0.0,0.0,0.0,0.0
0.0,0.0,0.0,0.0
0.0,0.0,0.0,0.0
0.0,0.0,0.0,0.0
0.0,0.0,0.0,0.0
0.0,0.0,0.0,0.0
0.0,0.0,0.0,0.0
0.0,0.0,0.0,0.0
0.0,0.0,0.0,0.0
0.0,0.0,0.0,0.0
0.0,0.0,0.0,0.0
0.0,0.0,0.0,0.0
0.0,0.0,0.0,0.0
0.0,0.0,0.0,0.0
0.0,0.0,0.0,0.0
0.0,0.0,0.0,0.0
0.0,0.0,0.0,0.0
0.0,0.0,0.0,0.0
0.0,0.0,0.0,0.0
0.0,0.0,0.0,0.0
0.0,0.0,0.0,0.0
0.0,0.0,0.0,0.0
0.0,0.0,0.0,0.0
0.0,0.0,0.0,0.0
0.0,0.0,0.0,0.0
0.0,0.0,0.0,0.0
0.0,0.0,0.0,0.0
0.0,0.0,0.0,0.0
0.0,0.0,0.0,0.0
0.0,0.0,0.0,0.0
0.0,0.0,0.0,0.0
0.0,0.0,0.0,0.0
0.0,0.0,0.0,0.0
0.0,0.0,0.0,0.0
0.0,0.0,0.0,0.0
0.0,0.0,0.0,0.0
0.0,0.0,0.0,0.0
0.0,0.0,0.0,0.0
0.0,0.0,0.0,0.0
0.0,0.0,0.0,0.0
0.0,0.0,0.0,0.0
0.0,0.0,0.0,0.0
0.0,0.0,0.0,0.0
0.0,0.0,0.0,0.0
0.0,0.0,0.0,0.0
0.0,0.0,0.0,0.0
0.0,0.0,0.0,0.0
0.0,0.0,0.0,0.0
0.0,0.0,0.0,0.0
0.0,0.0,0.0,0.0
0.0,0.0,0.0,0.0
0.0,0.0,0.0,0.0
0.0,0.0,0.0,0.0
0.0,0.0,0.0,0.0
0.0,0.0,0.0,0.0
0.0,0.0,0.0,0.0
0.0,0.0,0.0,0.0
0.0,0.0,0.0,0.0
0.0,0.0,0.0,0.0
0.0,0.0,0.0,0.0
0.0,0.0,0.0,0.0
0.0,0.0,0.0,0.0
0.0,0.0,0.0,0.0
0.0,0.0,0.0,0.0
0.0,0.0,0.0,0.0
0.0,0.0,0.0,0.0
0.0,0.0,0.0,0.0
0.0,0.0,0.0,0.0
0.0,0.0,0.0,0.0
0.0,0.0,0.0,0.0
0.0,0.0,0.0,0.0
0.0,0.0,0.0,0.0
0.0,0.0,0.0,0.0
0.0,0.0,0.0,0.0
0.0,0.0,0.0,0.0
0.0,0.0,0.0,0.0
0.0,0.0,0.0,0.0
0.0,0.0,0.0,0.0
0.0,0.0,0.0,0.0
0.0,0.0,0.0,0.0
