track,note,velocity,time
14,35,32,4608
14,37,32,0
14,35,38,644
14,37,38,0
14,35,45,644
14,37,45,0
14,35,51,644
14,37,51,0
14,48,56,0
14,48,50,130
14,47,61,130
14,47,56,130
14,45,66,130
14,45,64,130
14,43,71,130
14,43,69,130
14,41,81,140
14,35,81,198
14,40,81,0
14,70,80,826
14,49,50,0
14,37,90,0
14,35,100,0
14,69,50,112
14,42,70,0
14,70,80,112
14,42,70,0
14,69,50,112
14,37,90,0
14,42,70,0
14,35,70,0
14,70,80,112
14,42,90,0
14,35,100,0
14,69,50,112
14,46,72,0
14,70,80,112
14,37,90,0
14,42,70,0
14,69,50,112
14,42,70,0
14,35,70,0
14,70,80,112
14,42,90,0
14,35,100,0
14,69,50,112
14,42,70,0
14,70,80,112
14,37,90,0
14,42,70,0
14,69,50,112
14,42,70,0
14,35,70,0
14,70,80,112
14,42,90,0
14,35,100,0
14,69,50,112
14,37,90,0
14,42,70,0
14,70,80,112
14,42,70,0
14,69,50,112
14,46,72,0
14,35,70,0
14,70,80,112
14,37,90,0
14,42,90,0
14,35,100,0
14,69,50,112
14,42,70,0
14,70,80,112
14,42,70,0
14,69,50,112
14,37,90,0
14,42,70,0
14,35,70,0
14,70,80,112
14,42,90,0
14,35,100,0
14,69,50,112
14,42,70,0
14,70,80,112
14,37,90,0
14,42,70,0
14,69,50,112
14,42,70,0
14,35,70,0
14,70,80,112
14,42,90,0
14,35,100,0
14,69,50,112
14,42,70,0
14,70,80,112
14,37,90,0
14,42,70,0
14,69,50,112
14,42,70,0
14,35,70,0
14,70,80,112
14,42,90,0
14,35,100,0
14,69,50,112
14,37,90,0
14,42,70,0
14,70,80,112
14,42,70,0
14,69,50,112
14,42,70,0
14,35,70,0
14,70,80,112
14,37,90,0
14,42,90,0
14,35,100,0
14,69,50,112
14,42,70,0
14,70,80,112
14,42,70,0
14,69,50,112
14,37,90,0
14,42,70,0
14,35,70,0
14,70,80,112
14,42,90,0
14,35,100,0
14,69,50,112
14,46,72,0
14,70,80,112
14,37,90,0
14,42,70,0
14,69,50,112
14,42,70,0
14,35,70,0
14,70,80,112
14,42,90,0
14,35,100,0
14,69,50,112
14,42,70,0
14,70,80,112
14,37,90,0
14,42,70,0
14,69,50,112
14,42,70,0
14,35,70,0
14,70,80,112
14,42,90,0
14,35,100,0
14,69,50,112
14,37,90,0
14,42,70,0
14,70,80,112
14,42,70,0
14,69,50,112
14,42,70,0
14,35,70,0
14,70,80,112
14,37,90,0
14,42,90,0
14,35,100,0
14,69,50,112
14,42,70,0
14,70,80,112
14,42,70,0
14,42,80,16
14,69,50,16
14,37,90,0
14,42,70,0
14,35,70,0
14,70,80,112
14,42,90,0
14,35,100,0
14,69,50,112
14,46,72,0
14,70,80,112
14,37,90,0
14,42,70,0
14,69,50,112
14,42,70,0
14,35,70,0
14,70,80,112
14,35,100,0
14,69,50,112
14,70,80,112
14,69,50,112
14,48,60,0
14,35,70,0
14,70,80,112
14,35,100,0
14,69,50,112
14,48,80,0
14,38,90,0
14,70,80,112
14,45,80,0
14,45,60,16
14,69,50,16
14,45,80,0
14,70,80,112
14,49,50,0
14,37,90,0
14,35,100,0
14,69,50,112
14,42,70,0
14,70,80,112
14,42,70,0
14,69,50,112
14,37,90,0
14,42,70,0
14,35,70,0
14,70,80,112
14,42,90,0
14,35,100,0
14,69,50,112
14,42,70,0
14,70,80,112
14,37,90,0
14,42,70,0
14,69,50,112
14,42,70,0
14,35,70,0
14,70,80,112
14,42,90,0
14,35,100,0
14,69,50,112
14,42,70,0
14,70,80,112
14,37,90,0
14,42,70,0
14,69,50,112
14,42,70,0
14,35,70,0
14,70,80,112
14,42,90,0
14,35,100,0
14,69,50,112
14,37,90,0
14,42,70,0
14,70,80,112
14,42,70,0
14,69,50,112
14,42,70,0
14,35,70,0
14,70,80,112
14,37,90,0
14,42,90,0
14,35,100,0
14,69,50,112
14,42,70,0
14,70,80,112
14,42,70,0
14,69,50,112
14,37,90,0
14,42,70,0
14,35,70,0
14,70,80,112
14,42,90,0
14,35,100,0
14,69,50,112
14,46,72,0
14,70,80,112
14,37,90,0
14,42,70,0
14,69,50,112
14,42,70,0
14,35,70,0
14,70,80,112
14,42,90,0
14,35,100,0
14,69,50,112
14,42,70,0
14,70,80,112
14,37,90,0
14,42,70,0
14,69,50,112
14,42,70,0
14,35,70,0
14,70,80,112
14,42,90,0
14,35,100,0
14,69,50,112
14,37,90,0
14,42,70,0
14,70,80,112
14,42,70,0
14,69,50,112
14,46,72,0
14,35,70,0
14,70,80,112
14,37,90,0
14,42,90,0
14,35,100,0
14,69,50,112
14,42,70,0
14,70,80,112
14,42,70,0
14,42,80,16
14,69,50,16
14,37,90,0
14,42,70,0
14,35,70,0
14,70,80,112
14,42,90,0
14,35,100,0
14,69,50,112
14,46,72,0
14,70,80,112
14,37,90,0
14,42,70,0
14,69,50,112
14,42,70,0
14,35,70,0
14,70,80,112
14,42,90,0
14,35,100,0
14,69,50,112
14,42,70,0
14,70,80,112
14,37,90,0
14,42,70,0
14,69,50,112
14,42,70,0
14,35,70,0
14,70,80,112
14,42,90,0
14,35,100,0
14,69,50,112
14,37,90,0
14,42,70,0
14,70,80,112
14,42,70,0
14,69,50,112
14,46,72,0
14,35,70,0
14,70,80,0
14,37,90,0
14,42,90,0
14,35,100,0
14,69,50,39
14,42,70,0
14,70,80,77
14,42,70,0
14,69,50,112
14,37,90,0
14,42,70,0
14,35,70,0
14,70,80,0
14,42,90,0
14,35,100,0
14,69,50,39
14,42,70,0
14,70,80,77
14,37,90,0
14,42,70,0
14,69,50,112
14,42,70,0
14,35,70,0
14,70,80,0
14,49,70,0
14,35,100,0
14,69,50,112
14,42,110,0
14,70,80,1264
14,49,50,0
14,37,90,0
14,35,100,0
14,69,50,112
14,42,70,0
14,70,80,112
14,42,70,0
14,42,80,16
14,69,50,16
14,37,90,0
14,42,70,0
14,35,70,0
14,70,80,112
14,42,90,0
14,35,100,0
14,69,50,112
14,42,70,0
14,70,80,112
14,37,90,0
14,42,70,0
14,69,50,112
14,42,70,0
14,35,70,0
14,70,80,112
14,42,90,0
14,35,100,0
14,69,50,112
14,42,70,0
14,70,80,112
14,37,90,0
14,42,70,0
14,69,50,112
14,42,70,0
14,35,70,0
14,70,80,112
14,42,90,0
14,35,100,0
14,69,50,112
14,37,90,0
14,42,70,0
14,70,80,112
14,42,70,0
14,69,50,112
14,42,70,0
14,35,70,0
14,70,80,112
14,37,90,0
14,42,90,0
14,35,100,0
14,69,50,112
14,42,70,0
14,70,80,112
14,42,70,0
14,69,50,112
14,37,90,0
14,42,70,0
14,35,70,0
14,70,80,112
14,42,90,0
14,35,100,0
14,69,50,112
14,42,70,0
14,70,80,112
14,37,90,0
14,42,70,0
14,69,50,112
14,42,70,0
14,35,70,0
14,70,80,112
14,42,90,0
14,35,100,0
14,69,50,112
14,42,70,0
14,70,80,112
14,37,90,0
14,42,70,0
14,69,50,112
14,42,70,0
14,35,70,0
14,70,80,112
14,42,90,0
14,35,100,0
14,69,50,112
14,37,90,0
14,42,70,0
14,70,80,112
14,42,70,0
14,69,50,112
14,42,70,0
14,35,70,0
14,70,80,112
14,37,90,0
14,42,90,0
14,35,100,0
14,69,50,112
14,42,70,0
14,70,80,112
14,42,70,0
14,69,50,112
14,37,90,0
14,42,70,0
14,35,70,0
14,70,80,112
14,42,90,0
14,35,100,0
14,69,50,112
14,42,70,0
14,70,80,112
14,37,90,0
14,42,70,0
14,69,50,112
14,42,70,0
14,35,70,0
14,70,80,112
14,42,90,0
14,35,100,0
14,69,50,112
14,42,70,0
14,70,80,112
14,37,90,0
14,42,70,0
14,69,50,112
14,42,70,0
14,35,70,0
14,70,80,112
14,42,90,0
14,35,100,0
14,69,50,112
14,37,90,0
14,42,70,0
14,70,80,112
14,42,70,0
14,69,50,112
14,45,50,0
14,42,70,0
14,35,70,0
14,70,80,112
14,37,90,0
14,42,90,0
14,35,100,0
14,69,50,112
14,42,70,0
14,70,80,112
14,42,70,0
14,69,50,112
14,37,90,0
14,42,70,0
14,35,70,0
14,70,80,112
14,42,90,0
14,35,100,0
14,69,50,112
14,46,72,0
14,70,80,112
14,37,90,0
14,42,70,0
14,69,50,112
14,42,70,0
14,35,70,0
14,70,80,112
14,42,90,0
14,35,100,0
14,69,50,112
14,42,70,0
14,70,80,112
14,37,90,0
14,42,70,0
14,69,50,112
14,42,70,0
14,35,70,0
14,70,80,112
14,42,90,0
14,35,100,0
14,69,50,112
14,37,90,0
14,42,70,0
14,70,80,112
14,42,70,0
14,69,50,112
14,46,72,0
14,35,70,0
14,70,80,112
14,37,90,0
14,42,90,0
14,35,100,0
14,69,50,112
14,42,70,0
14,70,80,112
14,42,70,0
14,42,80,16
14,69,50,16
14,37,90,0
14,42,70,0
14,35,70,0
14,70,80,112
14,42,90,0
14,35,100,0
14,69,50,112
14,42,70,0
14,70,80,112
14,37,90,0
14,42,70,0
14,69,50,112
14,42,70,0
14,35,70,0
14,70,80,112
14,42,90,0
14,35,100,0
14,40,81,0
14,69,50,106
14,42,70,0
14,70,80,112
14,37,90,0
14,42,70,0
14,40,81,0
14,69,50,106
14,42,70,0
14,35,70,0
14,70,80,112
14,42,90,0
14,35,100,0
14,69,50,112
14,37,90,0
14,42,70,0
14,70,80,112
14,42,70,0
14,69,50,112
14,42,70,0
14,35,70,0
14,70,80,112
14,37,90,0
14,42,90,0
14,35,100,0
14,69,50,112
14,42,70,0
14,70,80,112
14,42,70,0
14,69,50,112
14,37,90,0
14,42,70,0
14,35,70,0
14,70,80,112
14,42,90,0
14,35,100,0
14,69,50,112
14,46,72,0
14,70,80,112
14,37,90,0
14,42,70,0
14,69,50,112
14,42,70,0
14,35,70,0
14,70,80,112
14,42,90,0
14,35,100,0
14,40,81,0
14,69,50,106
14,42,70,0
14,70,80,112
14,37,90,0
14,42,70,0
14,40,81,0
14,69,50,106
14,42,70,0
14,35,70,0
14,70,80,0
14,42,90,0
14,35,100,0
14,69,50,20
14,37,90,0
14,42,70,0
14,70,80,0
14,42,70,0
14,69,50,39
14,46,72,0
14,35,70,0
14,70,80,0
14,37,90,0
14,42,90,0
14,35,100,0
14,69,50,112
14,42,70,0
14,70,80,112
14,42,70,0
14,69,50,112
14,37,90,0
14,42,70,0
14,35,70,0
14,70,80,77
14,42,90,0
14,35,100,0
14,69,50,39
14,42,70,0
14,70,80,0
14,37,90,0
14,42,70,0
14,69,50,112
14,42,70,0
14,35,70,0
14,70,80,112
14,42,90,0
14,35,100,0
14,69,50,112
14,42,70,0
14,70,80,77
14,37,90,0
14,42,70,0
14,69,50,39
14,42,70,0
14,35,70,0
14,70,80,0
14,42,90,0
14,35,100,0
14,69,50,112
14,37,90,0
14,42,70,0
14,70,80,112
14,42,70,0
14,69,50,112
14,46,72,0
14,35,70,0
14,70,80,77
14,37,90,0
14,42,90,0
14,35,100,0
14,69,50,39
14,42,70,0
14,70,80,0
14,42,70,0
14,69,50,112
14,37,90,0
14,42,70,0
14,35,70,0
14,70,80,112
14,42,90,0
14,35,100,0
14,69,50,112
14,42,70,0
14,70,80,77
14,37,90,0
14,42,70,0
14,69,50,39
14,42,70,0
14,35,70,0
14,48,56,112
14,49,70,0
14,35,100,0
14,48,64,118
14,47,66,130
14,47,71,130
14,45,75,130
14,45,79,130
14,43,82,130
14,43,69,130
14,38,61,140
14,40,69,130
14,35,80,328
14,49,80,0
14,38,64,58
14,40,71,130
14,35,80,328
14,57,80,0
14,41,69,256
14,40,74,130
14,40,79,130
14,35,100,58
14,40,90,0
14,52,94,1456
14,35,81,768
14,38,81,0
14,35,81,115
14,38,81,0
14,49,94,278
14,35,81,0
14,70,80,87
14,37,90,0
14,42,90,0
14,35,100,0
14,69,50,112
14,42,70,0
14,70,80,112
14,42,70,0
14,42,80,16
14,69,50,16
14,37,90,0
14,42,70,0
14,35,70,0
14,70,80,112
14,42,90,0
14,35,100,0
14,69,50,112
14,46,72,0
14,70,80,112
14,37,90,0
14,42,70,0
14,69,50,112
14,42,70,0
14,35,70,0
14,70,80,48
14,42,90,0
14,35,100,0
14,69,50,112
14,42,70,0
14,70,80,112
14,37,90,0
14,42,70,0
14,69,50,112
14,42,70,0
14,35,70,0
14,70,80,112
14,42,90,0
14,35,100,0
14,69,50,112
14,37,90,0
14,42,70,0
14,70,80,112
14,42,70,0
14,69,50,112
14,42,70,0
14,35,70,0
14,70,80,112
14,37,90,0
14,42,90,0
14,35,100,0
14,69,50,112
14,42,70,0
14,70,80,112
14,42,70,0
14,69,50,112
14,37,90,0
14,42,70,0
14,35,70,0
14,70,80,112
14,42,90,0
14,35,100,0
14,69,50,112
14,42,70,0
14,70,80,112
14,37,90,0
14,42,70,0
14,69,50,112
14,42,70,0
14,35,70,0
14,70,80,112
14,42,90,0
14,35,100,0
14,69,50,112
14,42,70,0
14,70,80,112
14,37,90,0
14,42,70,0
14,69,50,112
14,42,70,0
14,35,70,0
14,70,80,112
14,42,90,0
14,35,100,0
14,69,50,112
14,37,90,0
14,42,70,0
14,70,80,112
14,42,70,0
14,69,50,112
14,42,70,0
14,35,70,0
14,70,80,112
14,37,90,0
14,42,90,0
14,35,100,0
14,69,50,112
14,42,70,0
14,70,80,112
14,42,70,0
14,42,80,16
14,69,50,16
14,37,90,0
14,42,70,0
14,35,70,0
14,70,80,112
14,42,90,0
14,35,100,0
14,69,50,112
14,46,72,0
14,70,80,112
14,37,90,0
14,42,70,0
14,69,50,112
14,42,70,0
14,35,70,0
14,70,80,112
14,42,90,0
14,35,100,0
14,69,50,112
14,42,70,0
14,70,80,112
14,37,90,0
14,42,70,0
14,69,50,112
14,42,70,0
14,35,70,0
14,70,80,112
14,42,90,0
14,35,100,0
14,69,50,112
14,37,90,0
14,42,70,0
14,70,80,112
14,42,70,0
14,69,50,112
14,42,70,0
14,35,70,0
14,70,80,112
14,37,90,0
14,42,90,0
14,35,100,0
14,69,50,112
14,42,70,0
14,70,80,112
14,42,70,0
14,69,50,112
14,37,90,0
14,42,70,0
14,35,70,0
14,70,80,112
14,42,90,0
14,35,100,0
14,69,50,112
14,42,70,0
14,70,80,112
14,37,90,0
14,42,70,0
14,69,50,112
14,42,70,0
14,35,70,0
14,70,80,112
14,42,90,0
14,35,100,0
14,69,50,112
14,42,70,0
14,70,80,112
14,37,90,0
14,42,70,0
14,69,50,112
14,42,70,0
14,35,70,0
14,70,80,112
14,42,90,0
14,35,100,0
14,69,50,112
14,37,90,0
14,42,70,0
14,70,80,112
14,42,70,0
14,69,50,112
14,42,70,0
14,35,70,0
14,70,80,112
14,37,90,0
14,42,90,0
14,35,100,0
14,69,50,112
14,42,70,0
14,70,80,112
14,42,70,0
14,69,50,112
14,37,90,0
14,42,70,0
14,35,70,0
14,70,80,112
14,42,90,0
14,35,100,0
14,69,50,112
14,46,72,0
14,70,80,112
14,37,90,0
14,42,70,0
14,69,50,112
14,42,70,0
14,35,70,0
14,70,80,112
14,42,90,0
14,35,100,0
14,69,50,112
14,42,70,0
14,70,80,112
14,37,90,0
14,42,70,0
14,69,50,112
14,42,70,0
14,35,70,0
14,70,80,112
14,42,90,0
14,35,100,0
14,69,50,112
14,37,90,0
14,42,70,0
14,70,80,112
14,42,70,0
14,69,50,112
14,46,72,0
14,35,70,0
14,70,80,112
14,37,90,0
14,42,90,0
14,35,100,0
14,69,50,112
14,42,70,0
14,70,80,112
14,42,70,0
14,69,50,112
14,37,90,0
14,42,70,0
14,35,70,0
14,70,80,112
14,42,90,0
14,35,100,0
14,69,50,112
14,42,70,0
14,70,80,112
14,37,90,0
14,42,70,0
14,69,50,112
14,42,70,0
14,35,70,0
14,70,80,112
14,35,100,0
14,38,66,118
14,38,70,116
14,38,72,115
14,35,76,116
14,38,76,0
14,35,81,125
14,38,81,0
14,35,81,298
14,49,81,0
14,38,81,298
14,38,70,87
14,35,76,86
14,38,76,0
14,35,81,106
