track,note,velocity,time
1,73,45,390
1,72,58,22
1,73,67,8
1,81,83,84
1,78,81,56
1,73,70,66
1,69,64,10
1,66,73,46
1,61,63,18
1,54,55,12
1,57,57,16
1,56,72,22
1,54,62,26
1,53,73,26
1,68,81,4
1,71,76,4
1,49,69,74
1,54,69,46
1,66,66,4
1,69,75,6
1,57,66,22
1,56,72,2
1,54,64,24
1,74,80,40
1,71,65,4
1,53,63,0
1,49,62,28
1,54,62,20
1,73,65,6
1,69,64,4
1,57,62,30
1,56,56,42
1,54,65,28
1,53,58,52
1,74,67,2
1,83,59,4
1,49,55,16
1,54,50,34
1,73,66,0
1,81,75,2
1,57,58,36
1,56,61,24
1,54,57,18
1,83,82,36
1,86,95,0
1,53,60,6
1,49,68,38
1,81,79,24
1,85,84,2
1,54,60,16
1,86,79,28
1,83,71,10
1,81,94,4
1,85,85,2
1,83,62,56
1,80,65,2
1,78,72,68
1,61,75,0
1,81,80,0
1,80,73,28
1,77,81,4
1,81,79,32
1,78,78,0
1,66,86,4
1,80,73,26
1,77,78,10
1,81,72,28
1,78,73,0
1,62,60,8
1,83,62,28
1,80,52,0
1,81,66,8
1,78,65,8
1,59,47,22
1,77,70,12
1,80,64,16
1,81,71,10
1,78,69,4
1,57,42,28
1,80,74,32
1,77,66,2
1,81,76,0
1,78,70,4
1,80,64,36
1,83,61,2
1,81,67,14
1,78,77,6
1,61,90,24
1,77,78,22
1,80,87,0
1,81,79,10
1,78,72,14
1,66,83,2
1,80,73,14
1,77,74,12
1,81,73,20
1,78,73,14
1,62,70,2
1,83,67,18
1,80,58,2
1,81,68,14
1,78,70,4
1,59,56,16
1,77,76,28
1,80,82,0
1,81,75,18
1,78,70,12
1,57,52,14
1,80,76,24
1,77,68,0
1,81,75,12
1,78,71,14
1,80,60,34
1,83,55,0
1,81,68,8
1,78,69,12
1,61,68,14
1,77,71,4
1,80,78,8
1,81,77,4
1,78,72,8
1,66,76,4
1,80,84,12
1,77,70,6
1,81,72,28
1,78,78,6
1,62,63,10
1,80,74,18
1,83,49,10
1,78,70,16
1,81,74,18
1,59,50,14
1,80,82,4
1,77,73,6
1,85,106,48
1,57,66,20
1,83,86,30
1,81,86,10
1,80,90,74
1,78,91,70
1,37,86,6
1,49,72,4
1,76,87,26
1,74,90,6
1,54,103,10
1,42,93,8
1,73,84,4
1,71,78,70
1,38,102,20
1,50,95,2
1,69,83,6
1,68,86,84
1,35,86,4
1,47,80,0
1,66,87,36
1,65,100,56
1,49,105,0
1,37,100,4
1,66,80,86
1,68,81,70
1,61,79,54
1,60,84,26
1,61,72,20
1,66,75,16
1,54,52,8
1,57,64,2
1,49,47,0
1,68,66,82
1,69,76,30
1,61,59,14
1,60,63,20
1,61,57,20
1,65,73,10
1,49,65,6
1,37,70,4
1,66,65,76
1,68,66,28
1,61,57,8
1,60,63,18
1,61,62,38
1,66,75,24
1,57,54,28
1,49,40,0
1,54,46,4
1,68,64,16
1,69,63,24
1,61,58,42
1,60,53,8
1,61,56,18
1,65,79,24
1,49,55,8
1,37,54,8
1,66,64,80
1,68,62,16
1,60,65,30
1,61,65,32
1,60,54,26
1,61,64,22
1,62,66,30
1,63,73,16
1,64,71,12
1,65,82,16
1,66,78,82
1,67,82,76
1,68,77,32
1,69,83,74
1,70,92,76
1,71,69,4
1,72,90,34
1,73,83,76
1,72,73,70
1,73,67,6
1,72,57,6
1,73,67,16
1,72,59,40
1,73,72,34
1,81,64,30
1,78,59,28
1,73,58,34
1,69,63,34
1,66,63,44
1,54,62,14
1,61,73,2
1,57,67,10
1,56,73,16
1,54,72,18
1,71,76,28
1,53,75,4
1,68,70,0
1,49,73,28
1,54,74,58
1,69,80,8
1,66,57,4
1,57,63,24
1,56,69,24
1,54,70,28
1,53,68,56
1,74,85,4
1,71,64,0
1,49,67,36
1,54,68,32
1,73,67,8
1,69,64,2
1,57,61,4
1,56,61,24
1,54,64,28
1,74,73,48
1,83,77,0
1,53,60,8
1,49,58,28
1,54,59,2
1,73,62,6
1,81,76,6
1,61,69,32
1,59,68,36
1,57,79,58
1,56,61,54
1,86,91,4
1,76,67,4
1,83,62,4
1,52,67,40
1,57,71,78
1,85,78,2
1,81,67,4
1,86,78,20
1,83,58,2
1,85,81,14
1,81,75,0
1,86,72,38
1,83,62,10
1,85,81,32
1,81,80,18
1,86,74,18
1,83,73,12
1,88,97,4
1,85,61,4
1,83,62,0
1,86,63,6
1,81,88,26
1,85,65,2
1,83,66,52
1,80,37,12
1,49,80,2
1,37,81,4
1,78,62,10
1,81,71,6
1,76,94,0
1,80,44,0
1,78,86,48
1,74,92,6
1,38,91,2
1,50,89,0
1,73,73,32
1,76,58,0
1,74,73,2
1,71,55,10
1,76,77,14
1,73,73,10
1,74,88,6
1,71,55,4
1,76,73,8
1,73,75,4
1,78,87,26
1,74,73,2
1,76,77,24
1,73,86,12
1,74,74,38
1,71,20,6
1,73,60,10
1,69,85,2
1,51,69,24
1,71,64,4
1,39,60,0
1,68,71,4
1,66,72,4
1,69,77,0
1,68,83,36
1,52,99,6
1,40,100,0
1,64,83,4
1,69,79,50
1,66,70,14
1,68,81,4
1,71,50,4
1,73,73,40
1,69,70,6
1,74,78,6
1,71,61,4
1,73,70,10
1,76,91,4
1,74,90,12
1,71,76,2
1,64,100,2
1,73,79,0
1,76,81,6
1,74,62,16
1,71,51,16
1,69,84,12
1,73,76,2
1,68,62,68
1,71,55,10
1,69,73,12
1,66,64,2
1,52,69,10
1,68,88,0
1,40,64,4
1,64,79,4
1,69,76,4
1,66,69,28
1,68,73,16
1,71,61,4
1,69,81,40
1,72,89,18
1,74,60,20
1,71,40,4
1,76,84,4
1,72,64,8
1,64,76,56
1,74,81,4
1,71,56,22
1,76,89,8
1,72,72,16
1,74,55,16
1,71,50,0
1,72,37,16
1,69,64,10
1,68,64,58
1,71,38,12
1,66,58,2
1,69,65,0
1,68,69,18
1,64,66,2
1,69,54,4
1,66,64,4
1,68,78,18
1,71,25,4
1,69,52,22
1,66,65,6
1,73,78,8
1,68,64,4
1,64,59,24
1,69,71,12
1,66,50,26
1,74,85,16
1,68,60,6
1,64,56,4
1,69,46,20
1,66,55,4
1,68,52,4
1,71,52,14
1,69,49,8
1,66,60,4
1,68,63,18
1,64,47,8
1,75,83,12
1,69,67,20
1,66,61,32
1,68,50,2
1,64,46,14
1,76,91,18
1,69,66,2
1,66,57,6
1,68,60,4
1,71,41,10
1,69,45,2
1,66,56,18
1,51,66,0
1,68,61,12
1,64,40,20
1,69,58,8
1,66,46,6
1,68,57,18
1,64,40,10
1,52,67,0
1,69,49,16
1,66,58,16
1,68,59,18
1,71,12,32
1,66,53,0
1,69,17,24
1,68,51,8
1,39,41,4
1,64,46,16
1,66,39,16
1,69,27,2
1,40,39,34
1,68,35,24
1,64,31,10
1,76,55,500
1,69,43,226
1,81,81,6
1,45,33,8
1,57,32,68
1,49,65,14
1,57,27,32
1,49,65,68
1,57,49,24
1,78,77,66
1,66,43,4
1,45,50,22
1,57,46,32
1,50,63,8
1,57,32,46
1,50,59,6
1,57,24,50
1,76,77,62
1,45,46,0
1,71,36,20
1,56,52,46
1,74,82,2
1,73,74,28
1,52,50,18
1,74,74,6
1,56,57,26
1,76,78,14
1,52,26,12
1,74,51,2
1,56,55,18
1,73,56,10
1,45,45,22
1,57,46,104
1,52,42,16
1,57,29,18
1,76,80,6
1,52,8,40
1,57,29,52
1,69,68,22
1,45,51,6
1,57,38,84
1,80,87,18
1,49,55,2
1,57,27,52
1,49,45,10
1,81,82,6
1,57,32,14
1,66,79,16
1,45,50,8
1,57,42,72
1,77,90,22
1,50,57,6
1,57,42,26
1,78,78,10
1,50,52,2
1,57,44,10
1,76,88,8
1,45,63,4
1,71,51,4
1,56,58,58
1,74,90,12
1,52,48,2
1,73,70,4
1,74,78,24
1,56,56,8
1,52,35,30
1,76,72,0
1,56,55,0
1,74,66,2
1,73,75,48
1,64,32,16
1,57,56,6
1,45,37,12
1,88,103,86
1,76,86,4
1,88,99,66
1,76,108,4
1,88,103,30
1,76,98,4
1,67,80,44
1,61,65,8
1,61,72,78
1,67,85,4
1,67,91,168
1,61,73,10
1,86,100,98
1,74,95,0
1,73,92,104
1,85,95,6
1,73,85,48
1,85,97,6
1,83,90,76
1,71,73,4
1,82,106,38
1,70,94,6
1,82,105,28
1,70,99,4
1,67,69,176
1,64,70,4
1,66,55,6
1,62,55,2
1,83,70,4
1,71,54,2
1,66,57,8
1,62,25,10
1,85,78,52
1,73,53,2
1,86,76,2
1,74,47,6
1,81,75,4
1,73,46,166
1,64,45,12
1,64,49,106
1,73,49,0
1,83,52,36
1,74,54,4
1,64,28,14
1,81,66,16
1,80,72,12
1,81,71,26
1,85,72,8
1,83,49,2
1,81,47,4
1,73,26,8
1,69,39,14
1,64,51,252
1,71,54,76
1,45,43,6
1,69,53,28
1,57,39,22
1,68,70,4
1,69,72,16
1,49,46,28
1,81,91,6
1,57,38,12
1,69,2,38
1,49,51,26
1,81,87,2
1,57,39,52
1,45,50,38
1,80,75,28
1,57,43,106
1,50,51,22
1,57,32,66
1,50,44,4
1,78,70,0
1,57,9,72
1,76,72,36
1,64,43,16
1,45,70,0
1,74,67,14
1,73,64,20
1,56,45,4
1,74,75,36
1,47,31,36
1,76,86,0
1,56,42,30
1,74,83,26
1,47,43,6
1,56,48,16
1,72,84,6
1,45,54,8
1,57,45,92
1,73,59,24
1,52,32,18
1,57,38,40
1,52,35,14
1,64,68,2
1,57,36,50
1,71,75,8
1,45,72,30
1,69,79,8
1,68,76,4
1,57,46,14
1,69,95,6
1,81,99,10
1,49,57,20
1,57,47,56
1,81,101,8
1,49,58,0
1,57,46,24
1,80,89,8
1,45,72,12
1,57,52,80
1,50,60,26
1,77,87,10
1,57,43,34
1,50,52,8
1,78,78,10
1,57,45,6
1,76,89,8
1,45,75,4
1,64,85,2
1,74,83,4
1,56,56,12
1,73,75,6
1,74,73,44
1,47,38,40
1,76,91,4
1,56,50,52
1,47,49,10
1,74,86,2
1,56,46,24
1,73,89,10
1,49,55,2
1,57,63,8
1,45,55,12
1,88,110,12
1,76,104,2
1,88,109,154
1,76,103,2
1,88,109,150
1,76,108,0
1,67,74,168
1,61,55,8
1,61,90,102
1,67,97,0
1,67,103,160
1,61,90,6
1,74,89,120
1,86,93,2
1,73,88,120
1,85,99,2
1,85,88,28
1,73,82,2
1,83,90,60
1,71,80,2
1,82,110,8
1,70,103,0
1,82,108,114
1,70,103,4
1,67,79,56
1,64,81,2
1,66,67,18
1,62,56,4
1,83,70,48
1,66,49,2
1,71,55,0
1,62,33,10
1,85,84,10
1,73,55,12
1,86,83,14
1,74,63,8
1,81,87,8
1,73,63,162
1,64,45,28
1,73,66,124
1,64,33,12
1,83,58,64
1,81,69,4
1,74,51,8
1,64,39,12
1,80,69,16
1,81,68,16
1,85,52,14
1,83,49,0
1,73,40,10
1,81,51,10
1,69,34,2
1,80,60,2
1,81,70,8
1,80,61,36
1,81,72,34
1,64,88,6
1,57,65,18
1,80,66,24
1,81,87,6
1,69,92,6
1,80,59,0
1,66,75,0
1,81,71,4
1,80,57,2
1,81,69,84
1,62,58,0
1,80,54,16
1,61,47,12
1,81,67,6
1,80,62,32
1,81,76,18
1,80,57,30
1,57,64,10
1,64,69,2
1,81,74,8
1,80,60,24
1,81,69,8
1,69,67,0
1,80,55,20
1,66,59,8
1,81,61,14
1,80,58,8
1,81,70,10
1,62,48,14
1,80,63,28
1,83,64,40
1,61,56,14
1,81,81,12
1,80,68,32
1,83,49,38
1,81,69,26
1,80,65,14
1,64,59,38
1,83,42,4
1,57,43,14
1,81,71,10
1,80,72,18
1,69,71,36
1,83,72,4
1,81,89,24
1,80,76,10
1,83,74,8
1,66,59,4
1,81,79,12
1,80,68,14
1,83,69,10
1,62,52,24
1,81,84,0
1,80,71,18
1,83,77,28
1,61,61,22
1,81,94,14
1,80,81,58
1,81,89,52
1,83,90,32
1,85,95,64
1,86,92,70
1,88,102,20
1,85,97,80
1,81,89,62
1,76,94,0
1,73,66,56
1,69,87,38
1,64,92,34
1,61,94,34
1,57,84,80
1,52,76,0
1,49,86,18
1,45,88,78
1,40,100,48
1,52,84,192
1,40,78,74
1,68,86,8
1,59,68,2
1,64,73,10
1,52,19,4
1,69,88,102
1,49,60,16
1,45,71,2
1,73,70,2
1,71,66,20
1,69,78,38
1,68,78,74
1,59,66,10
1,52,76,8
1,64,71,0
1,49,76,8
1,69,73,0
1,57,80,2
1,73,74,4
1,71,62,80
1,69,69,0
1,68,70,100
1,59,49,4
1,52,52,16
1,64,56,34
1,49,64,18
1,69,57,4
1,57,51,6
1,73,62,14
1,71,50,24
1,69,46,86
1,59,31,56
1,62,51,2
1,68,61,6
1,64,50,48
1,61,51,16
1,57,42,12
1,69,53,2
1,73,49,24
1,71,35,36
1,69,43,22
1,62,37,90
1,59,33,6
1,68,41,18
1,64,30,48
1,69,31,86
1,61,31,0
1,57,27,0
1,73,61,282
1,72,57,42
1,73,78,74
1,81,87,2
1,78,61,48
1,73,66,16
1,69,76,24
1,66,77,50
1,61,81,32
1,54,69,10
1,57,66,18
1,56,73,30
1,54,66,24
1,53,68,38
1,68,78,0
1,71,76,2
1,49,70,16
1,54,64,10
1,69,75,12
1,66,52,2
1,57,63,14
1,56,65,30
1,54,67,38
1,53,68,44
1,74,80,4
1,71,64,4
1,49,54,38
1,54,60,26
1,73,69,10
1,69,68,4
1,57,59,18
1,56,72,16
1,54,71,44
1,53,67,38
1,74,93,0
1,83,94,0
1,49,69,48
1,54,64,40
1,73,73,4
1,81,94,4
1,57,68,8
1,56,73,18
1,54,61,40
1,53,68,32
1,86,91,22
1,83,73,8
1,49,67,54
1,54,71,56
1,81,78,4
1,85,83,4
1,86,76,12
1,83,70,10
1,85,81,42
1,81,90,2
1,80,57,60
1,83,56,2
1,61,97,52
1,78,75,0
1,81,90,6
1,77,81,12
1,80,66,0
1,81,80,26
1,66,88,0
1,78,74,0
1,80,79,24
1,77,84,8
1,81,64,36
1,78,76,2
1,62,72,8
1,80,58,24
1,83,55,2
1,81,69,20
1,78,72,4
1,59,49,24
1,77,60,18
1,80,62,2
1,81,63,10
1,78,70,12
1,57,42,30
1,80,62,16
1,77,69,0
1,81,59,8
1,78,68,18
1,80,61,20
1,83,59,8
1,81,68,8
1,78,75,10
1,61,96,4
1,80,75,36
1,77,77,4
1,81,71,28
1,78,76,4
1,66,88,4
1,80,81,14
1,77,75,4
1,81,69,12
1,78,74,4
1,62,74,4
1,83,64,32
1,80,50,2
1,81,68,0
1,78,73,10
1,59,55,22
1,80,77,38
1,77,61,6
1,81,85,2
1,78,68,16
1,57,52,12
1,80,78,20
1,77,74,10
1,81,76,12
1,78,72,12
1,80,73,28
1,83,51,12
1,81,51,8
1,78,65,12
1,61,75,6
1,77,77,24
1,80,61,6
1,81,74,26
1,78,68,0
1,66,75,0
1,80,64,30
1,77,71,4
1,81,55,28
1,78,69,6
1,62,70,4
1,83,62,28
1,80,72,4
1,78,83,24
1,81,54,0
1,59,55,10
1,80,82,14
1,77,82,0
1,85,103,30
1,57,87,14
1,83,82,58
1,81,92,18
1,80,90,86
1,49,88,76
1,37,78,4
1,78,88,8
1,76,87,54
1,74,86,14
1,42,87,14
1,54,87,8
1,73,84,40
1,71,73,72
1,38,84,0
1,50,84,0
1,69,88,4
1,68,77,92
1,47,60,30
1,35,60,0
1,66,83,40
1,65,64,8
1,49,88,18
1,37,86,2
1,64,28,14
1,66,73,4
1,68,68,88
1,49,2,4
1,61,74,36
1,60,65,16
1,61,67,10
1,54,46,28
1,66,65,2
1,49,46,2
1,57,55,4
1,68,54,86
1,69,66,30
1,61,54,20
1,60,60,20
1,61,51,24
1,49,39,24
1,37,29,6
1,65,69,0
1,66,50,38
1,68,49,26
1,61,55,12
1,60,47,0
1,61,58,26
1,66,66,14
1,57,69,2
1,54,51,18
