track,note,velocity,time
1,31,104,9692
1,43,115,36
1,43,108,108
1,43,127,128
1,42,106,52
1,43,106,40
1,35,91,94
1,35,117,96
1,35,92,62
1,43,114,54
1,43,111,118
1,43,123,124
1,35,85,192
1,42,104,60
1,24,99,240
1,24,69,10
1,28,100,142
1,28,90,226
1,28,93,2
1,26,74,240
1,26,76,2
1,24,102,132
1,24,103,2
1,24,69,12
1,28,95,152
1,28,92,2
1,28,84,236
1,28,94,2
1,26,71,232
1,24,105,142
1,28,91,96
1,28,100,280
1,24,106,50
1,24,75,110
1,28,109,164
1,28,115,240
1,24,108,412
1,28,109,128
1,28,100,254
1,26,90,230
1,24,109,138
1,24,82,88
1,28,106,160
1,28,94,222
1,26,67,246
1,24,109,100
1,24,81,96
1,28,105,172
1,28,102,254
1,26,87,238
1,24,112,138
1,28,93,120
1,28,95,252
1,36,127,438
1,36,123,222
1,36,127,200
1,36,95,130
1,28,117,142
1,28,123,122
1,28,111,196
1,28,127,22
1,28,115,100
1,28,123,158
1,28,113,148
1,36,127,168
1,36,125,142
1,36,113,206
1,36,113,80
1,40,121,144
1,40,119,164
1,40,121,196
1,40,111,2
1,40,116,178
1,40,121,144
1,40,121,136
1,36,127,152
1,36,119,170
1,36,127,234
1,36,96,132
1,28,123,140
1,28,122,196
1,28,127,196
1,28,127,196
1,28,125,100
1,28,99,148
1,36,127,164
1,36,123,140
1,36,127,194
1,36,127,144
1,28,127,48
1,28,127,194
1,28,127,176
1,28,127,186
1,28,123,102
1,28,127,118
1,36,127,126
1,36,127,142
1,36,127,128
1,36,119,112
1,28,127,130
1,28,127,136
1,28,127,144
1,28,127,156
1,28,119,146
1,28,108,146
1,36,127,166
1,36,123,140
1,36,127,194
1,36,127,144
1,28,127,48
1,28,127,194
1,28,127,176
1,28,127,186
1,28,123,102
1,28,127,118
1,36,127,126
1,36,127,142
1,36,127,128
1,36,119,112
1,28,127,130
1,28,127,136
1,28,127,144
1,28,127,156
1,28,119,146
1,28,108,146
1,33,115,166
1,33,104,116
1,33,117,118
1,33,109,172
1,33,75,134
1,33,119,154
1,31,95,140
1,31,101,130
1,31,102,154
1,31,98,128
1,28,104,80
1,29,112,66
1,29,105,120
1,29,105,114
1,29,85,136
1,29,115,144
1,31,99,134
1,31,112,108
1,31,114,132
1,31,91,106
1,31,114,128
1,33,127,80
1,33,123,130
1,45,125,22
1,33,65,58
1,31,106,160
1,31,123,56
1,31,96,102
1,43,123,192
1,31,85,320
1,28,125,80
1,29,123,58
1,41,100,768
1,33,127,160
1,33,127,98
1,33,125,86
1,36,117,130
1,36,127,138
1,36,125,112
1,36,112,98
1,36,127,148
1,29,127,72
1,29,127,126
1,29,127,104
1,38,127,166
1,38,127,138
1,38,127,124
1,38,105,118
1,38,127,150
1,33,127,58
1,33,127,98
1,33,125,86
1,36,117,130
1,36,127,138
1,36,125,112
1,36,112,98
1,36,127,148
1,29,127,72
1,29,127,126
1,41,127,104
1,38,127,166
1,38,127,138
1,38,127,124
1,38,105,2
1,38,105,204
1,38,127,150
1,40,127,40
1,40,127,182
1,40,127,160
1,40,111,102
1,26,127,6
1,26,127,130
1,26,127,166
1,38,127,110
1,38,127,136
1,40,127,138
1,40,127,132
1,40,127,144
1,40,119,108
1,26,127,192
1,26,127,126
1,26,127,154
1,38,127,36
1,38,127,120
1,36,127,138
1,36,121,152
1,36,119,138
1,36,111,86
1,28,106,32
1,28,127,142
1,28,125,158
1,28,114,138
1,28,115,146
1,28,123,108
1,36,127,120
1,36,112,158
1,36,117,144
1,36,85,98
1,40,119,118
1,40,123,160
1,40,121,158
1,40,114,136
1,40,115,124
1,40,125,112
1,36,127,74
1,36,123,112
1,36,127,136
1,36,114,116
1,28,127,112
1,28,127,178
1,28,127,180
1,28,125,154
1,28,115,148
1,28,121,140
1,36,127,154
1,36,123,132
1,36,119,134
1,36,85,98
1,40,117,182
1,40,127,192
1,40,125,190
1,40,121,150
1,40,127,118
1,40,127,16
1,24,99,136
1,24,69,2
1,28,96,192
1,28,90,210
1,26,74,238
1,24,102,118
1,24,69,12
1,28,95,152
1,28,84,234
1,26,71,232
1,24,105,142
1,28,91,96
1,28,100,280
1,24,106,50
1,24,75,110
1,28,109,164
1,28,115,240
1,24,108,412
1,28,109,128
1,28,100,254
1,26,90,230
1,24,109,138
1,24,82,88
1,28,106,160
1,28,94,222
1,26,67,246
1,24,109,100
1,24,81,96
1,28,105,172
1,28,102,254
1,26,87,238
1,24,112,138
1,28,93,120
1,28,95,252
1,36,127,438
1,36,123,222
1,36,127,200
1,36,95,130
1,28,117,142
1,28,123,122
1,28,111,196
1,28,127,22
1,28,115,100
1,28,123,158
1,28,113,148
1,36,127,168
1,36,125,142
1,36,113,206
1,36,113,80
1,40,121,144
1,40,119,164
1,40,121,196
1,40,111,2
1,40,116,178
1,40,121,144
1,40,121,136
1,36,127,152
1,36,119,170
1,36,127,234
1,36,96,132
1,28,123,140
1,28,122,196
1,28,127,196
1,28,127,196
1,28,125,100
1,28,108,148
1,36,127,166
1,36,123,140
1,36,127,194
1,36,127,144
1,28,127,48
1,28,127,194
1,28,127,176
1,28,127,186
1,28,123,102
1,28,127,118
1,36,127,126
1,36,127,142
1,36,127,128
1,36,119,112
1,28,127,130
1,28,127,136
1,28,127,144
1,28,127,156
1,28,119,146
1,28,108,146
1,33,115,166
1,33,104,116
1,33,117,118
1,33,109,172
1,33,75,134
1,33,119,154
1,31,95,140
1,31,101,130
1,31,102,154
1,31,98,128
1,28,104,80
1,29,112,66
1,29,105,120
1,29,105,114
1,29,85,136
1,29,115,144
1,31,99,134
1,31,112,108
1,31,114,132
1,31,91,106
1,31,114,128
1,33,127,80
1,33,123,130
1,45,125,22
1,33,65,58
1,31,106,160
1,31,123,56
1,31,96,102
1,43,123,192
1,31,85,320
1,28,125,80
1,29,123,58
1,41,100,768
1,33,127,160
1,33,127,98
1,33,125,86
1,36,117,130
1,36,127,138
1,36,125,112
1,36,112,98
1,36,127,148
1,29,127,72
1,29,127,126
1,29,127,104
1,38,127,166
1,38,127,138
1,38,127,124
1,38,105,118
1,38,127,150
1,33,127,58
1,33,127,98
1,33,125,86
1,36,117,130
1,36,127,138
1,36,125,112
1,36,112,98
1,36,127,148
1,29,127,72
1,29,127,126
1,41,127,104
1,38,127,166
1,38,127,138
1,38,127,124
1,38,105,2
1,38,105,204
1,38,127,150
1,33,127,58
1,33,127,98
1,33,125,86
1,36,117,130
1,36,127,138
1,36,125,112
1,36,112,98
1,36,127,148
1,29,127,72
1,29,127,126
1,29,127,104
1,38,127,166
1,38,127,138
1,38,127,124
1,38,105,118
1,38,127,150
1,33,127,58
1,33,127,98
1,33,125,86
1,36,117,130
1,36,127,138
1,36,125,112
1,36,112,98
1,36,127,148
1,40,123,3160
1,40,114,106
1,40,117,100
1,42,104,60
1,43,100,8
1,40,90,4
1,43,109,46
1,43,108,94
1,38,99,48
1,36,105,20
1,36,109,72
1,42,100,78
1,36,117,0
1,36,95,80
1,45,105,26
1,43,91,96
1,45,104,26
1,45,112,96
1,43,92,16
1,40,98,38
1,40,106,82
1,40,109,100
1,42,97,36
1,43,95,16
1,40,86,10
1,43,111,48
1,43,111,122
1,38,108,40
1,36,106,28
1,36,108,86
1,36,114,98
1,36,102,36
1,45,101,22
1,43,88,76
1,45,106,34
1,45,114,104
1,43,92,8
1,40,111,28
1,40,111,78
1,40,112,54
1,42,106,42
1,43,91,14
1,40,94,14
1,43,106,34
1,43,109,94
1,38,104,46
1,36,111,32
1,36,112,88
1,36,109,98
1,43,105,34
1,45,98,32
1,43,86,4
1,45,109,44
1,45,112,12
1,43,87,0
1,40,101,44
1,40,106,24
1,40,111,16
1,42,102,34
1,43,95,10
1,40,88,8
1,43,114,18
1,43,112,82
1,38,104,52
1,36,108,36
1,36,111,82
1,36,117,28
1,43,106,0
1,45,101,36
1,43,92,50
1,45,111,44
1,45,109,80
2,36,123,96
2,43,123,0
2,36,110,14
2,43,101,0
2,36,123,92
2,43,119,0
2,47,123,164
2,40,123,0
2,38,123,116
2,45,123,0
2,36,123,90
2,43,123,0
2,43,101,14
2,36,110,0
2,43,119,92
2,36,123,0
2,40,123,164
2,47,123,0
2,38,123,116
2,45,123,0
2,43,123,90
2,36,123,0
2,36,110,14
2,43,101,0
2,43,119,92
2,36,123,0
2,47,123,164
2,40,123,0
2,45,123,116
2,38,123,0
2,36,123,90
2,43,123,0
2,36,110,14
2,43,101,0
2,36,123,92
2,43,119,0
2,40,123,164
2,47,123,0
2,38,123,116
2,45,123,0
2,43,123,90
2,36,123,0
2,36,110,14
2,43,101,0
2,36,123,92
2,43,119,0
2,47,123,164
2,40,123,0
2,45,123,116
2,38,123,0
2,43,123,90
2,36,123,0
2,36,110,14
2,43,101,0
2,36,123,92
2,43,119,0
2,47,123,164
2,40,123,0
2,38,123,116
2,45,123,0
2,43,123,90
2,36,123,0
2,36,110,14
2,43,101,0
2,43,119,92
2,36,123,0
2,47,123,164
2,40,123,0
2,38,123,116
2,45,123,0
2,43,123,90
2,36,123,0
2,36,110,14
2,43,101,0
2,43,119,92
2,36,123,0
2,47,123,164
2,40,123,0
2,45,123,116
2,38,123,0
2,45,123,238
2,52,121,0
2,52,119,8
2,45,123,0
2,45,97,2
2,52,93,0
2,50,123,190
2,43,123,0
2,43,110,4
2,50,108,0
2,50,114,6
2,43,114,2
2,50,107,2
2,43,107,0
2,43,115,76
2,50,120,0
2,50,111,8
2,43,110,0
2,50,117,4
2,43,118,0
2,50,105,4
2,43,110,0
2,50,110,2
2,43,110,0
2,41,121,4
2,48,119,0
2,41,114,4
2,48,100,0
2,41,123,4
2,48,117,0
2,48,111,2
2,41,113,0
2,41,123,2
2,48,121,0
2,50,123,0
2,43,110,0
2,50,117,6
2,43,119,0
2,43,109,4
2,50,99,0
2,50,119,4
2,43,123,2
2,50,100,2
2,43,109,2
2,50,114,6
2,43,120,0
2,50,110,2
2,43,114,0
2,43,119,2
2,50,114,0
2,52,123,28
2,45,123,0
2,45,123,4
2,52,110,0
2,52,115,4
2,45,123,0
2,52,108,2
2,45,114,0
2,52,117,22
2,45,123,0
2,45,88,4
2,50,121,6
2,43,123,0
2,43,118,4
2,50,113,0
2,43,108,4
2,50,103,0
2,50,123,4
2,43,123,0
2,43,84,2
2,43,123,4
2,50,115,0
2,43,104,4
2,50,104,0
2,41,123,4
2,48,123,0
2,41,99,4
2,48,94,2
2,48,112,2
2,41,113,0
2,48,123,238
2,41,123,0
2,62,110,0
2,60,97,0
2,59,95,4
2,57,98,6
2,62,110,4
2,60,104,4
2,59,97,4
2,57,91,100
2,62,108,216
2,60,100,4
2,59,97,4
2,57,95,4
2,57,98,4
2,59,102,2
2,59,85,4
2,60,98,2
2,60,87,4
2,62,98,2
2,62,92,4
2,62,110,2
2,60,110,32
2,59,110,14
2,57,95,38
2,62,110,4
2,60,94,2
2,59,100,12
2,57,98,34
2,57,106,8
2,59,102,4
2,59,89,4
2,60,95,8
2,60,92,4
2,62,97,0
2,62,98,2
2,60,100,102
2,60,98,4
2,59,83,2
2,59,91,2
2,57,95,158
2,57,106,4
2,59,63,120
2,64,110,88
2,59,111,2
2,61,95,14
2,68,110,6
2,64,104,4
2,59,98,0
2,62,88,8
2,55,107,28
2,60,102,0
2,48,117,6
2,55,98,18
2,60,110,4
2,48,97,4
2,44,103,14
2,50,110,2
2,40,105,0
2,45,100,14
2,43,111,8
2,47,39,36
2,45,44,4
2,36,123,4
2,43,123,0
2,36,110,14
2,43,101,0
2,36,123,92
2,43,119,0
2,47,123,164
2,40,123,0
2,45,123,116
2,38,123,0
2,43,123,90
2,36,123,0
2,36,110,14
2,43,101,0
2,43,119,92
2,36,123,0
2,47,123,164
2,40,123,0
2,45,123,116
2,38,123,0
2,43,123,90
2,36,123,0
2,36,110,14
2,43,101,0
2,43,119,92
2,36,123,0
2,47,123,164
2,40,123,0
2,45,123,116
2,38,123,0
2,43,123,90
2,36,123,0
2,43,101,14
2,36,110,0
2,43,119,92
2,36,123,0
2,40,123,164
2,47,123,0
2,45,123,116
2,38,123,0
2,43,123,90
2,36,123,0
2,36,110,14
2,43,101,0
2,36,123,92
2,43,119,0
2,40,123,164
2,47,123,0
2,38,123,116
2,45,123,0
2,43,123,90
2,36,123,0
2,36,110,14
2,43,101,0
2,43,119,92
2,36,123,0
2,40,123,164
2,47,123,0
2,45,123,116
2,38,123,0
2,43,123,90
2,36,123,0
2,43,101,14
2,36,110,0
2,43,119,92
2,36,123,0
2,40,123,164
2,47,123,0
2,45,123,116
2,38,123,0
2,52,121,238
2,45,123,0
2,52,119,8
2,45,123,0
2,52,93,2
2,45,97,0
2,50,123,190
2,43,123,0
2,43,110,4
2,50,108,0
2,50,114,6
2,43,114,2
2,43,107,2
2,50,107,0
2,43,115,76
2,50,120,0
2,43,110,8
2,50,111,0
2,43,118,4
2,50,117,0
2,43,110,4
2,50,105,0
2,50,110,2
2,43,110,0
2,48,119,4
2,41,121,0
2,48,100,4
2,41,114,0
2,41,123,4
2,48,117,0
2,48,111,2
2,41,113,0
2,41,123,2
2,48,121,0
2,50,123,0
2,43,110,0
2,43,119,6
2,50,117,0
2,50,99,4
2,43,109,0
2,50,119,4
2,43,123,2
2,50,100,2
2,43,109,2
2,50,114,6
2,43,120,0
2,50,110,2
2,43,114,0
2,43,119,2
2,50,114,0
2,52,123,28
2,45,123,0
2,45,123,4
2,52,110,0
2,45,123,4
2,52,115,0
2,45,114,2
2,52,108,0
2,45,123,22
2,52,117,0
2,45,88,4
2,43,123,6
2,50,121,0
2,50,113,4
2,43,118,0
2,43,108,4
2,50,103,0
2,50,123,4
2,43,123,0
2,43,84,2
2,43,123,4
2,50,115,0
2,50,104,4
2,43,104,0
2,48,123,4
2,41,123,0
2,41,99,4
2,48,94,2
2,41,113,2
2,48,112,0
2,48,123,238
2,41,123,0
2,62,110,0
2,60,97,0
2,59,95,4
2,57,98,6
2,62,110,4
2,60,104,4
2,59,97,4
2,57,91,100
2,62,108,216
2,60,100,4
2,59,97,4
2,57,95,4
2,57,98,4
2,59,102,2
2,59,85,4
2,60,98,2
2,60,87,4
2,62,98,2
2,62,92,4
2,62,110,2
2,60,110,32
2,59,110,14
2,57,95,38
2,62,110,4
2,60,94,2
2,59,100,12
2,57,98,34
2,57,106,8
2,59,102,4
2,59,89,4
2,60,95,8
2,60,92,4
2,62,97,0
2,62,98,2
2,60,100,102
2,60,98,4
2,59,83,2
2,59,91,2
2,57,95,158
2,57,106,4
2,62,110,44
2,60,97,0
2,59,95,4
2,57,98,2
2,62,110,4
2,60,104,4
2,59,97,4
2,57,91,100
2,62,108,216
2,60,100,4
2,59,97,4
2,57,95,4
2,57,98,4
2,59,102,2
2,59,85,4
2,60,98,2
2,60,87,4
2,62,98,2
2,62,92,4
2,62,110,2
2,60,110,574
2,59,110,14
2,57,95,374
2,62,110,4
2,60,94,2
2,59,100,12
2,57,98,378
2,57,106,8
3,48,91,6
3,50,95,108
3,48,102,106
3,50,100,172
3,48,92,182
3,50,92,166
3,48,102,82
3,50,100,178
3,48,100,152
3,50,100,1756
3,48,100,26
3,50,101,162
3,48,94,208
3,50,90,210
3,48,95,32
3,50,99,188
3,48,115,752
3,50,104,206
3,48,103,212
3,50,92,204
3,48,108,64
3,48,108,650
3,50,113,208
3,48,107,240
3,50,105,180
3,48,110,260
3,50,106,52
3,48,112,182
3,50,109,192
3,48,113,238
3,50,104,2160
3,48,109,24
3,50,107,120
3,48,108,184
3,50,107,158
3,48,110,48
3,50,111,192
3,50,112,634
3,48,108,168
3,50,119,170
3,48,109,176
3,48,117,18
3,55,118,490
3,55,98,54
3,55,107,62
3,55,103,60
3,55,101,76
3,57,118,106
3,57,115,32
3,55,109,950
3,55,115,100
3,55,114,82
3,52,114,46
3,52,117,2
3,55,116,1600
3,55,127,214
3,52,101,12
3,55,105,52
3,57,127,114
3,57,115,8
