track,note,velocity,time
1,69,80,3820
1,65,81,0
1,60,64,0
1,71,40,0
1,62,47,0
1,67,52,0
1,60,69,2648
1,69,78,0
1,65,77,0
1,71,43,4
1,62,48,8
1,67,55,0
1,69,80,2640
1,65,81,0
1,60,64,4
1,71,40,0
1,62,47,0
1,67,52,0
1,69,64,1112
1,65,64,0
1,60,51,4
1,71,32,0
1,62,37,0
1,67,41,0
1,60,69,1112
1,69,78,0
1,65,77,0
1,71,43,4
1,62,48,8
1,67,55,0
1,69,64,1104
1,65,64,0
1,60,51,4
1,71,32,0
1,62,37,0
1,67,41,0
1,53,40,12
1,60,40,0
1,57,40,0
1,53,38,220
1,60,38,8
1,57,38,0
1,69,80,488
1,65,81,0
1,60,64,4
1,71,40,0
1,62,47,0
1,67,52,0
1,53,39,12
1,60,39,0
1,57,39,0
1,53,39,176
1,57,39,8
1,60,39,0
1,53,39,876
1,60,39,0
1,57,39,0
1,53,39,176
1,57,39,8
1,60,39,0
1,60,69,484
1,69,78,0
1,65,77,0
1,71,43,4
1,62,48,8
1,67,55,0
1,53,39,4
1,60,39,0
1,57,39,0
1,53,39,176
1,57,39,8
1,60,39,0
1,53,39,876
1,60,39,0
1,57,39,0
1,53,39,176
1,57,39,8
1,60,39,0
1,69,80,484
1,65,81,0
1,60,64,4
1,71,40,0
1,62,47,0
1,67,52,0
1,53,39,12
1,60,39,0
1,57,39,0
1,53,39,176
1,57,39,8
1,60,39,0
1,53,39,876
1,60,39,0
1,57,39,0
1,53,39,176
1,57,39,8
1,60,39,0
1,60,69,484
1,69,78,0
1,65,77,0
1,71,43,4
1,62,48,8
1,67,55,0
1,53,39,4
1,60,39,0
1,57,39,0
1,53,39,176
1,57,39,8
1,60,39,0
1,67,67,296
1,71,65,0
1,69,49,124
1,65,44,4
1,62,36,120
1,65,36,0
1,53,39,132
1,60,39,0
1,57,39,0
1,53,39,176
1,57,39,8
1,60,39,0
1,69,80,484
1,65,81,0
1,60,64,4
1,71,40,0
1,62,47,0
1,67,52,0
1,53,39,12
1,60,39,0
1,57,39,0
1,53,39,176
1,57,39,8
1,60,39,0
1,53,39,876
1,60,39,0
1,57,39,0
1,53,39,176
1,57,39,8
1,60,39,0
1,60,69,484
1,69,78,0
1,65,77,0
1,71,43,4
1,62,48,8
1,67,55,0
1,53,39,4
1,60,39,0
1,57,39,0
1,53,39,176
1,57,39,8
1,60,39,0
1,53,39,876
1,60,39,0
1,57,39,0
1,53,39,176
1,57,39,8
1,60,39,0
1,69,80,484
1,65,81,0
1,60,64,4
1,71,40,0
1,62,47,0
1,67,52,0
1,53,39,12
1,60,39,0
1,57,39,0
1,53,39,176
1,57,39,8
1,60,39,0
1,53,39,876
1,60,39,0
1,57,39,0
1,53,39,176
1,57,39,8
1,60,39,0
1,60,69,484
1,69,78,0
1,65,77,0
1,71,43,4
1,62,48,8
1,67,55,0
1,53,39,4
1,60,39,0
1,57,39,0
1,53,39,176
1,57,39,8
1,60,39,0
1,67,80,872
1,64,69,0
1,59,73,0
1,64,59,8
1,59,59,0
1,67,59,0
1,59,54,184
1,67,49,0
1,64,47,0
1,64,63,0
1,67,78,4
1,59,73,4
1,67,61,4
1,64,61,0
1,59,61,0
1,59,52,168
1,67,42,8
1,64,37,0
1,59,71,0
1,64,71,4
1,67,71,0
1,64,58,0
1,59,58,0
1,67,58,4
1,59,55,212
1,64,33,4
1,67,51,4
1,64,65,4
1,59,60,0
1,67,78,0
1,64,60,0
1,67,60,4
1,59,60,0
1,64,45,140
1,59,51,8
1,67,60,0
1,69,81,0
1,66,81,0
1,61,81,4
1,61,56,0
1,66,56,0
1,69,56,4
1,66,49,164
1,69,43,0
1,61,50,0
1,69,70,4
1,61,64,0
1,66,65,0
1,66,60,0
1,69,60,0
1,61,60,4
1,61,46,168
1,66,37,0
1,67,74,148
1,64,68,0
1,59,61,0
1,61,73,16
1,69,65,0
1,66,67,0
1,71,84,160
1,67,86,4
1,62,78,0
1,66,72,148
1,61,67,0
1,69,76,4
1,64,69,8
1,67,76,0
1,59,57,0
1,69,80,1628
1,65,81,0
1,60,64,4
1,71,40,0
1,62,47,0
1,67,52,0
1,69,64,1112
1,65,64,0
1,60,51,4
1,71,32,0
1,62,37,0
1,67,41,0
1,69,80,1112
1,65,81,0
1,60,64,4
1,71,40,0
1,62,47,0
1,67,52,0
1,69,64,1112
1,65,64,0
1,60,51,4
1,71,32,0
1,62,37,0
1,67,41,0
1,53,40,200
1,60,40,0
1,57,40,0
1,53,38,220
1,60,38,8
1,57,38,0
1,69,80,488
1,65,81,0
1,60,64,4
1,71,40,0
1,62,47,0
1,67,52,0
1,53,39,12
1,60,39,0
1,57,39,0
1,53,39,176
1,57,39,8
1,60,39,0
1,53,39,876
1,60,39,0
1,57,39,0
1,53,39,176
1,57,39,8
1,60,39,0
1,60,69,484
1,69,78,0
1,65,77,0
1,71,43,4
1,62,48,8
1,67,55,0
1,53,39,4
1,60,39,0
1,57,39,0
1,53,39,176
1,57,39,8
1,60,39,0
1,53,39,876
1,60,39,0
1,57,39,0
1,53,39,176
1,57,39,8
1,60,39,0
1,69,80,484
1,65,81,0
1,60,64,4
1,71,40,0
1,62,47,0
1,67,52,0
1,53,39,12
1,60,39,0
1,57,39,0
1,53,39,176
1,57,39,8
1,60,39,0
1,53,39,876
1,60,39,0
1,57,39,0
1,53,39,176
1,57,39,8
1,60,39,0
1,60,69,484
1,69,78,0
1,65,77,0
1,71,43,4
1,62,48,8
1,67,55,0
1,53,39,4
1,60,39,0
1,57,39,0
1,53,39,176
1,57,39,8
1,60,39,0
1,67,67,296
1,71,65,0
1,69,49,124
1,65,44,4
1,62,36,120
1,65,36,0
1,53,39,132
1,60,39,0
1,57,39,0
1,53,39,176
1,57,39,8
1,60,39,0
1,69,80,484
1,65,81,0
1,60,64,4
1,71,40,0
1,62,47,0
1,67,52,0
1,53,39,12
1,60,39,0
1,57,39,0
1,53,39,176
1,57,39,8
1,60,39,0
1,53,39,876
1,60,39,0
1,57,39,0
1,53,39,176
1,57,39,8
1,60,39,0
1,60,69,484
1,69,78,0
1,65,77,0
1,71,43,4
1,62,48,8
1,67,55,0
1,53,39,4
1,60,39,0
1,57,39,0
1,53,39,176
1,57,39,8
1,60,39,0
1,53,39,876
1,60,39,0
1,57,39,0
1,53,39,176
1,57,39,8
1,60,39,0
1,69,80,484
1,65,81,0
1,60,64,4
1,71,40,0
1,62,47,0
1,67,52,0
1,53,39,12
1,60,39,0
1,57,39,0
1,53,39,176
1,57,39,8
1,60,39,0
1,53,39,876
1,60,39,0
1,57,39,0
1,53,39,176
1,57,39,8
1,60,39,0
1,60,69,484
1,69,78,0
1,65,77,0
1,71,43,4
1,62,48,8
1,67,55,0
1,53,39,4
1,60,39,0
1,57,39,0
1,53,39,176
1,57,39,8
1,60,39,0
1,67,80,872
1,64,69,0
1,59,73,0
1,64,59,8
1,59,59,0
1,67,59,0
1,59,54,184
1,67,49,0
1,64,47,0
1,64,63,0
1,67,78,4
1,59,73,4
1,67,61,4
1,64,61,0
1,59,61,0
1,59,52,168
1,67,42,8
1,64,37,0
1,59,71,0
1,64,71,4
1,67,71,0
1,64,58,0
1,59,58,0
1,67,58,4
1,59,55,212
1,64,33,4
1,67,51,4
1,64,65,4
1,59,60,0
1,67,78,0
1,64,60,0
1,67,60,4
1,59,60,0
1,64,45,140
1,59,51,8
1,67,60,0
1,69,81,0
1,66,81,0
1,61,81,4
1,61,56,0
1,66,56,0
1,69,56,4
1,66,49,164
1,69,43,0
1,61,50,0
1,69,70,4
1,61,64,0
1,66,65,0
1,66,60,0
1,69,60,0
1,61,60,4
1,61,46,168
1,66,37,0
1,67,74,148
1,64,68,0
1,59,61,0
1,61,73,16
1,69,65,0
1,66,67,0
1,71,84,160
1,67,86,4
1,62,78,0
1,66,72,148
1,61,67,0
1,69,76,4
1,64,69,8
1,67,76,0
1,59,57,0
1,69,80,1628
1,65,81,0
1,60,64,4
1,71,40,0
1,62,47,0
1,67,52,0
1,69,64,1112
1,65,64,0
1,60,51,4
1,71,32,0
1,62,37,0
1,67,41,0
1,69,80,1112
1,65,81,0
1,60,64,4
1,71,40,0
1,62,47,0
1,67,52,0
1,69,64,1112
1,65,64,0
1,60,51,4
1,71,32,0
1,62,37,0
1,67,41,0
1,69,80,1112
1,65,81,0
1,60,64,4
1,71,40,0
1,62,47,0
1,67,52,0
1,69,64,1112
1,65,64,0
1,60,51,4
1,71,32,0
1,62,37,0
1,67,41,0
1,60,69,1112
1,69,78,0
1,65,77,0
1,71,43,4
1,62,48,8
1,67,55,0
1,69,64,1104
1,65,64,0
1,60,51,4
1,71,32,0
1,62,37,0
1,67,41,0
1,67,80,8
1,64,69,0
1,59,73,0
1,64,59,8
1,59,59,0
1,67,59,0
1,59,54,184
1,67,49,0
1,64,47,0
1,64,63,0
1,67,78,4
1,59,73,4
1,67,61,4
1,64,61,0
1,59,61,0
1,59,52,168
1,67,42,8
1,64,37,0
1,59,71,0
1,64,71,4
1,67,71,0
1,64,58,0
1,59,58,0
1,67,58,4
1,59,55,212
1,64,33,4
1,67,51,4
1,64,65,4
1,59,60,0
1,67,78,0
1,64,60,0
1,67,60,4
1,59,60,0
1,64,45,140
1,59,51,8
1,67,60,0
1,69,81,0
1,66,81,0
1,61,81,4
1,61,56,0
1,66,56,0
1,69,56,4
1,66,49,164
1,69,43,0
1,61,50,0
1,69,70,4
1,61,64,0
1,66,65,0
1,66,60,0
1,69,60,0
1,61,60,4
1,61,46,168
1,66,37,0
1,67,74,148
1,64,68,0
1,59,61,0
1,61,73,16
1,69,65,0
1,66,67,0
1,71,84,160
1,67,86,4
1,62,78,0
1,66,72,148
1,61,67,0
1,69,76,4
1,64,69,8
1,67,76,0
1,59,57,0
1,69,80,1628
1,65,81,0
1,60,64,4
1,71,40,0
1,62,47,0
1,67,52,0
1,69,64,1112
1,65,64,0
1,60,51,4
1,71,32,0
1,62,37,0
1,67,41,0
1,69,80,1112
1,65,81,0
1,60,64,4
1,71,40,0
1,62,47,0
1,67,52,0
1,69,64,1112
1,65,64,0
1,60,51,4
1,71,32,0
1,62,37,0
1,67,41,0
1,69,80,28
1,65,81,0
1,60,64,4
1,71,40,0
1,62,47,0
1,67,52,0
1,69,64,12
1,65,64,0
1,60,51,4
1,71,32,0
1,62,37,0
1,67,41,0
1,69,80,28
1,65,81,0
1,60,64,4
1,71,40,0
1,62,47,0
1,67,52,0
2,36,113,2656
2,38,108,180
2,36,114,168
2,38,107,4
2,36,112,512
2,38,105,16
2,36,108,128
2,38,101,16
2,36,108,460
2,38,98,20
2,36,107,124
2,38,99,24
2,36,109,448
2,38,100,8
2,36,103,140
2,38,96,20
2,36,113,524
2,38,108,184
2,36,114,168
2,38,107,4
2,36,112,512
2,38,105,16
2,36,108,128
2,38,101,16
2,36,108,460
2,38,98,20
2,36,107,124
2,38,99,24
2,36,109,448
2,38,100,8
2,36,103,140
2,38,96,20
2,36,113,524
2,38,108,184
2,36,114,168
2,38,107,4
2,36,112,512
2,38,105,16
2,36,108,128
2,38,101,16
2,36,108,460
2,38,98,20
2,36,107,124
2,38,99,24
2,36,109,448
2,38,100,8
2,36,103,140
2,38,96,20
2,36,113,524
2,38,108,184
2,36,114,168
2,38,107,4
2,36,112,512
2,38,105,16
2,36,108,128
2,38,101,16
2,36,108,460
2,38,98,20
2,36,107,124
2,38,99,24
2,36,109,448
2,38,100,8
2,36,103,140
2,38,96,20
2,36,113,524
2,38,108,184
2,36,114,168
2,38,107,4
2,36,112,512
2,38,105,16
2,36,108,128
2,38,101,16
2,36,108,460
2,38,98,20
2,36,107,124
2,38,99,24
2,36,109,448
2,38,100,8
2,36,103,140
2,38,96,20
2,36,113,524
2,38,108,184
2,36,114,168
2,38,107,4
2,36,112,512
2,38,105,16
2,36,108,128
2,38,101,16
2,36,108,460
2,38,98,20
2,36,107,124
2,38,99,24
2,36,109,448
2,38,100,8
2,36,103,140
2,38,96,20
2,41,93,40
2,36,101,68
2,38,99,188
2,28,101,28
2,40,103,28
2,40,72,44
2,38,105,44
2,40,80,48
2,40,90,104
2,40,57,48
2,38,90,52
2,40,87,48
2,40,83,28
2,40,55,48
2,38,90,48
2,40,85,52
2,30,108,20
2,42,96,76
2,40,79,192
2,42,88,56
2,28,90,84
2,30,105,32
2,31,101,128
2,33,105,100
2,28,97,32
2,36,113,180
2,38,108,184
2,36,114,168
2,38,107,4
2,36,112,512
2,38,105,16
2,36,108,128
2,38,101,16
2,36,108,460
2,38,108,192
2,36,114,168
2,38,107,4
2,36,112,512
2,38,105,16
2,36,108,128
2,38,101,16
2,36,108,460
2,38,108,192
2,36,114,168
2,38,107,4
2,36,112,512
2,38,105,16
2,36,108,128
2,38,101,16
2,36,108,460
2,38,98,20
2,36,107,124
2,38,99,24
2,36,109,448
2,38,100,8
2,36,103,140
2,38,96,20
2,36,113,524
2,38,108,184
2,36,114,168
2,38,107,4
2,36,112,512
2,38,105,16
2,36,108,128
2,38,101,16
2,36,108,460
2,38,98,20
2,36,107,124
2,38,99,24
2,36,109,448
2,38,100,8
2,36,103,140
2,38,96,20
2,36,113,524
2,38,108,184
2,36,114,168
2,38,107,4
2,36,112,512
2,38,105,16
2,36,108,128
2,38,101,16
2,36,108,460
2,38,98,20
2,36,107,124
2,38,99,24
2,36,109,448
2,38,100,8
2,36,103,140
2,38,96,20
2,36,113,524
2,38,108,184
2,36,114,168
2,38,107,4
2,36,112,512
2,38,105,16
2,36,108,128
2,38,101,16
2,36,108,460
2,38,98,20
2,36,107,124
2,38,99,24
2,36,109,448
2,38,100,8
2,36,103,140
2,38,96,20
2,41,93,40
2,36,101,68
2,38,99,188
2,28,101,28
2,40,103,28
2,40,72,44
2,38,105,44
2,40,80,48
2,40,90,104
2,40,57,48
2,38,90,52
2,40,87,48
2,40,83,28
2,40,55,48
2,38,90,48
2,40,85,52
2,30,108,20
2,42,96,76
2,40,79,192
2,42,88,56
2,28,90,84
2,30,105,32
2,31,101,128
2,33,105,100
2,28,97,32
2,36,113,180
2,38,108,184
2,36,114,168
2,38,107,4
2,36,112,512
2,38,105,16
2,36,108,128
2,38,101,16
2,36,108,460
2,38,108,192
2,36,114,168
2,38,107,4
2,36,112,512
2,38,105,16
2,36,108,128
2,38,101,16
2,36,108,460
2,38,108,192
2,36,114,168
2,38,107,4
2,36,112,512
2,38,105,16
2,36,108,128
2,38,101,16
2,36,108,460
2,38,98,20
2,36,107,124
2,38,99,24
2,36,109,448
2,38,100,8
2,36,103,140
2,38,96,20
2,28,101,524
2,40,103,28
2,40,72,44
2,38,105,44
2,40,80,48
2,40,90,104
2,40,57,48
2,38,90,52
2,40,87,48
2,40,83,28
2,40,55,48
2,38,90,48
2,40,85,52
2,30,108,20
2,42,96,76
2,40,79,192
2,42,88,56
2,28,90,84
2,30,105,32
2,31,101,128
2,33,105,100
2,28,97,32
2,36,113,180
2,38,108,184
2,36,114,168
2,38,107,4
2,36,112,512
2,38,105,16
2,36,108,128
2,38,101,16
2,36,108,460
2,38,108,192
2,36,114,168
2,38,107,4
2,36,112,512
2,38,105,16
2,36,108,128
2,38,101,16
2,36,108,460
2,38,108,12
2,36,114,4
2,38,107,4
2,36,112,12
2,38,105,12
2,36,108,28
2,38,101,12
2,36,108,12
2,38,108,44
2,36,114,20
2,38,107,4
2,36,112,44
2,38,105,16
2,36,108,12
2,38,101,16
3,69,94,2252
3,62,96,0
3,65,94,0
3,62,83,52
3,71,88,0
3,67,93,0
3,48,90,48
3,72,79,0
3,62,97,4
3,69,96,0
3,50,75,96
3,74,85,0
3,50,83,92
3,74,83,0
3,52,87,120
3,76,86,0
3,77,93,120
3,53,90,0
3,53,82,128
3,77,87,0
3,55,91,128
3,79,90,0
3,81,90,124
3,57,90,0
3,53,87,148
3,77,89,4
3,55,83,120
3,79,90,0
3,81,90,120
3,57,83,0
3,79,70,156
3,55,70,0
3,53,56,112
3,77,56,0
