track,note,velocity,time
1,37,83,1536
1,37,71,325
1,37,77,327
1,37,82,325
1,39,82,715
1,39,88,711
1,39,94,707
1,39,97,711
1,39,97,711
1,39,99,705
1,39,98,707
1,39,108,709
1,39,106,707
1,73,92,0
1,73,88,107
1,74,92,127
1,39,111,81
1,73,85,0
1,73,92,131
1,74,96,141
1,39,113,49
1,73,88,0
1,73,92,133
1,74,95,137
1,38,94,192
1,38,89,41
1,39,111,0
1,73,92,0
1,38,90,129
1,73,95,0
1,38,76,39
1,35,88,43
1,49,84,0
1,54,90,0
1,54,48,129
1,38,91,137
1,42,102,0
1,54,90,0
1,39,74,0
1,35,78,123
1,42,57,0
1,54,22,0
1,35,85,137
1,42,98,0
1,54,65,0
1,42,34,7
1,54,35,0
1,38,101,105
1,42,95,0
1,54,86,0
1,39,85,0
1,42,49,107
1,54,23,0
1,35,96,107
1,42,99,0
1,54,58,0
1,42,45,49
1,54,35,0
1,38,101,117
1,42,99,0
1,54,84,0
1,39,90,0
1,35,76,113
1,42,39,0
1,54,18,0
1,35,81,135
1,42,94,0
1,54,64,0
1,42,36,59
1,54,22,0
1,38,103,137
1,42,99,0
1,54,80,0
1,39,85,0
1,46,79,113
1,54,39,0
1,35,105,5
1,42,93,0
1,54,78,0
1,42,29,11
1,54,38,0
1,38,99,133
1,42,102,0
1,54,84,0
1,39,83,0
1,42,37,115
1,54,36,0
1,35,103,123
1,42,102,0
1,54,70,0
1,42,48,59
1,54,41,0
1,38,103,137
1,42,104,0
1,54,86,0
1,39,84,0
1,35,90,93
1,42,54,0
1,54,40,0
1,35,108,135
1,42,106,0
1,54,77,0
1,42,42,113
1,54,29,0
1,38,101,137
1,42,102,0
1,54,79,0
1,39,74,0
1,42,44,103
1,54,40,0
1,35,115,115
1,42,106,0
1,54,81,0
1,42,42,53
1,54,41,0
1,38,110,123
1,42,106,0
1,54,90,0
1,39,76,0
1,35,82,117
1,42,55,0
1,54,42,0
1,35,113,125
1,42,98,0
1,54,79,0
1,42,45,105
1,54,41,0
1,38,105,127
1,42,102,0
1,54,77,0
1,39,77,0
1,42,48,109
1,54,36,0
1,35,113,141
1,42,104,0
1,54,83,0
1,42,40,41
1,54,36,0
1,38,103,135
1,42,104,0
1,54,84,0
1,39,76,0
1,35,105,113
1,42,38,0
1,54,41,0
1,35,101,131
1,42,102,0
1,54,84,0
1,42,47,101
1,54,35,0
1,38,110,135
1,42,106,0
1,54,85,0
1,39,76,0
1,42,39,115
1,54,29,0
1,35,123,147
1,42,106,0
1,54,87,0
1,42,36,13
1,54,24,0
1,38,113,153
1,42,106,0
1,54,83,0
1,39,81,0
1,35,99,115
1,46,85,0
1,54,29,0
1,35,99,5
1,42,97,0
1,54,84,0
1,42,51,111
1,54,27,0
1,38,113,137
1,42,99,0
1,54,83,0
1,39,77,0
1,42,40,115
1,54,33,0
1,35,127,143
1,42,106,0
1,54,85,0
1,42,45,113
1,54,28,0
1,38,110,127
1,42,104,0
1,54,86,0
1,39,83,0
1,42,36,111
1,54,39,0
1,35,125,109
1,42,106,0
1,54,83,0
1,42,45,59
1,54,43,0
1,38,115,133
1,42,106,0
1,54,84,0
1,35,105,119
1,42,45,0
1,54,38,0
1,35,95,141
1,42,102,0
1,54,80,0
1,38,113,109
1,42,80,0
1,54,49,0
1,38,92,129
1,46,93,0
1,54,84,0
1,35,94,5
1,42,87,0
1,54,48,0
1,35,127,129
1,42,111,0
1,54,85,0
1,42,53,115
1,54,50,0
1,38,115,135
1,42,113,0
1,54,86,0
1,39,86,0
1,42,42,119
1,54,49,0
1,35,127,137
1,42,108,0
1,54,85,0
1,42,44,41
1,54,50,0
1,38,105,143
1,42,104,0
1,54,87,0
1,39,86,0
1,35,92,121
1,42,52,0
1,54,51,0
1,35,125,141
1,42,108,0
1,54,86,0
1,42,53,123
1,54,44,0
1,38,110,141
1,42,108,0
1,54,88,0
1,39,83,0
1,42,38,117
1,54,43,0
1,35,115,143
1,42,111,0
1,54,88,0
1,42,43,107
1,54,46,0
1,38,110,131
1,42,113,0
1,54,86,0
1,39,85,0
1,35,92,121
1,42,45,0
1,54,42,0
1,35,125,147
1,42,108,0
1,54,87,0
1,42,42,119
1,54,41,0
1,38,113,139
1,42,113,0
1,54,88,0
1,39,85,0
1,42,36,123
1,54,45,0
1,35,127,137
1,42,113,0
1,54,87,0
1,42,27,11
1,54,48,0
1,38,118,145
1,42,108,0
1,54,90,0
1,39,85,0
1,35,105,121
1,42,34,0
1,54,43,0
1,42,111,141
1,54,88,0
1,35,127,119
1,42,34,0
1,54,40,0
1,38,118,115
1,42,111,0
1,54,91,0
1,39,85,0
1,35,94,123
1,42,43,0
1,54,54,0
1,35,118,145
1,42,108,0
1,54,88,0
1,35,103,5
1,46,80,0
1,54,49,0
1,38,123,5
1,42,99,0
1,54,95,0
1,39,86,0
1,35,81,123
1,46,84,0
1,54,50,0
1,35,127,5
1,42,113,0
1,54,91,0
1,42,59,129
1,54,39,0
1,38,123,147
1,42,106,0
1,54,88,0
1,39,84,0
1,42,34,119
1,54,46,0
1,35,127,151
1,42,108,0
1,54,91,0
1,42,50,3
1,54,43,0
1,38,113,151
1,42,106,0
1,54,91,0
1,39,85,0
1,35,101,121
1,42,62,0
1,54,55,0
1,35,127,139
1,42,106,0
1,54,95,0
1,42,60,123
1,54,48,0
1,38,115,5
1,42,108,0
1,54,92,0
1,39,84,0
1,42,52,121
1,54,45,0
1,35,127,147
1,42,113,0
1,54,90,0
1,38,97,5
1,42,52,0
1,54,47,0
1,38,115,5
1,42,113,0
1,54,91,0
1,39,86,0
1,35,108,125
1,42,58,0
1,54,36,0
1,35,127,137
1,42,116,0
1,54,92,0
1,42,57,127
1,54,35,0
1,38,115,155
1,42,118,0
1,54,91,0
1,39,86,0
1,42,53,125
1,35,127,157
1,42,120,0
1,54,88,0
1,42,34,45
1,54,43,0
1,38,118,161
1,42,116,0
1,54,91,0
1,39,88,0
1,35,108,123
1,42,60,0
1,54,44,0
1,35,110,139
1,42,116,0
1,54,87,0
1,38,90,67
1,42,37,0
1,54,49,0
1,38,96,119
1,42,118,0
1,54,88,0
1,39,89,0
1,35,123,123
1,42,52,0
1,54,41,0
1,39,66,0
1,35,127,129
1,42,118,0
1,54,87,0
1,38,118,127
1,46,86,0
1,54,32,0
1,35,88,3
1,38,111,0
1,54,90,0
1,39,88,0
1,38,97,27
1,35,113,5
1,38,97,0
1,46,93,0
1,54,45,0
1,35,127,29
1,42,118,0
1,54,87,0
1,42,60,123
1,54,35,0
1,38,123,155
1,42,120,0
1,54,88,0
1,39,62,0
1,42,60,123
1,54,38,0
1,35,127,153
1,42,116,0
1,54,90,0
1,42,53,11
1,54,28,0
1,38,118,151
1,42,118,0
1,54,90,0
1,39,83,0
1,35,113,109
1,42,59,0
1,54,47,0
1,35,127,143
1,42,118,0
1,54,92,0
1,42,60,121
1,54,40,0
1,38,125,147
1,42,118,0
1,54,95,0
1,39,86,0
1,35,108,121
1,42,61,0
1,54,35,0
1,35,105,149
1,42,120,0
1,54,91,0
1,35,110,129
1,42,52,0
1,54,28,0
1,38,125,137
1,42,118,0
1,54,97,0
1,39,86,0
1,35,99,119
1,42,64,0
1,54,39,0
1,35,127,143
1,42,118,0
1,54,91,0
1,42,53,127
1,54,48,0
1,38,123,159
1,42,118,0
1,54,95,0
1,39,85,0
1,35,90,115
1,42,47,0
1,54,38,0
1,35,127,149
1,42,118,0
1,54,92,0
1,42,34,119
1,54,48,0
1,38,115,155
1,42,120,0
1,54,91,0
1,39,89,0
1,35,91,117
1,42,55,0
1,54,51,0
1,35,123,115
1,42,116,0
1,54,91,0
1,35,115,127
1,42,70,0
1,54,46,0
1,38,118,127
1,46,99,0
1,54,91,0
1,39,95,0
1,35,95,119
1,42,79,0
1,54,33,0
1,35,115,137
1,42,111,0
1,54,91,0
1,38,88,123
1,46,99,0
1,54,30,0
1,35,127,149
1,49,95,0
1,54,92,0
1,39,95,0
1,54,48,119
1,35,101,103
1,49,87,0
1,38,91,335
1,42,97,0
1,35,88,133
1,42,50,0
1,35,96,131
1,42,98,0
1,42,27,25
1,38,113,139
1,42,95,0
1,42,46,113
1,35,108,137
1,42,98,0
1,42,37,101
1,38,99,131
1,42,98,0
1,42,58,121
1,35,123,131
1,46,93,0
1,49,90,0
1,38,95,321
1,42,93,0
1,42,56,135
1,35,127,133
1,42,97,0
1,57,89,0
1,42,37,129
1,38,103,129
1,42,94,0
1,35,78,125
1,42,45,0
1,35,127,131
1,42,104,0
1,42,48,107
1,38,108,131
1,42,99,0
1,35,89,127
1,42,53,0
1,35,127,139
1,42,99,0
1,42,47,131
1,38,108,147
1,42,104,0
1,42,64,133
1,35,115,147
1,46,102,0
1,49,80,0
1,38,96,327
1,42,97,0
1,42,62,135
1,35,125,145
1,42,106,0
1,57,83,0
1,42,39,133
1,38,96,137
1,42,102,0
1,35,72,133
1,42,52,0
1,35,125,143
1,42,108,0
1,42,44,133
1,38,115,151
1,42,106,0
1,35,85,131
1,42,48,0
1,35,127,149
1,42,108,0
1,38,110,131
1,42,57,0
1,38,125,153
1,42,108,0
1,42,88,107
1,50,127,0
1,46,98,75
1,41,125,0
1,48,115,131
1,43,123,137
1,45,95,151
1,45,118,0
1,35,127,157
1,49,111,0
1,38,125,329
1,42,120,0
1,35,81,131
1,42,55,0
1,35,127,149
1,42,118,0
1,42,31,135
1,38,115,143
1,42,113,0
1,35,115,135
1,46,98,0
1,42,77,5
1,35,127,135
1,42,52,0
1,38,118,131
1,42,116,0
1,42,50,135
1,35,127,141
1,42,113,0
1,42,47,95
1,38,123,145
1,42,116,0
1,35,127,135
1,46,84,0
1,42,116,5
1,35,127,137
1,42,55,0
1,38,115,109
1,42,118,0
1,42,50,135
1,35,127,147
1,42,118,0
1,42,35,85
1,38,118,157
1,42,118,0
1,35,125,129
1,42,51,0
1,35,113,129
1,42,104,0
1,42,46,125
1,38,123,143
1,42,118,0
1,42,55,133
1,35,127,155
1,42,113,0
1,35,103,133
1,42,60,0
1,38,123,139
1,42,118,0
1,35,115,139
1,46,93,0
1,35,127,5
1,42,118,0
1,42,53,133
1,38,118,153
1,42,118,0
1,35,108,137
1,42,62,0
1,35,123,151
1,42,118,0
1,42,42,133
1,38,118,149
1,42,116,0
1,35,96,133
1,42,63,0
1,42,95,139
1,35,118,131
1,42,52,0
1,38,125,143
1,42,118,0
1,42,49,131
1,35,127,149
1,42,116,0
1,42,48,13
1,38,118,145
1,42,116,0
1,35,108,129
1,42,85,0
1,42,111,135
1,35,127,129
1,42,67,0
1,38,115,123
1,42,118,0
1,42,60,133
1,35,125,143
1,42,118,0
1,42,55,123
1,38,118,139
1,42,111,0
1,35,115,131
1,42,74,0
1,42,85,129
1,35,127,1
1,42,83,0
1,38,118,123
1,42,116,0
1,38,101,121
1,42,64,0
1,35,127,131
1,42,118,0
1,38,115,135
1,42,108,0
1,38,123,137
1,46,102,0
1,38,93,23
1,35,127,5
1,38,93,0
1,42,93,0
1,35,127,101
1,42,113,0
1,49,102,0
1,42,67,135
1,38,125,149
1,42,118,0
1,35,103,133
1,42,69,0
1,35,127,147
1,42,116,0
1,42,59,127
1,38,113,147
1,42,113,0
1,35,123,131
1,42,69,0
1,42,95,145
1,35,127,133
1,42,63,0
1,38,125,135
1,42,116,0
1,35,113,133
1,42,57,0
1,35,118,141
1,42,106,0
1,38,115,131
1,42,83,0
1,38,115,137
1,42,113,0
1,43,39,0
1,35,118,129
1,46,95,0
1,35,127,5
1,42,113,0
1,42,62,137
1,38,125,155
1,42,118,0
1,35,90,135
1,42,50,0
1,35,127,151
1,42,118,0
1,42,53,131
1,38,125,147
1,42,118,0
1,35,96,137
1,42,64,0
1,35,127,147
1,42,118,0
1,35,127,135
1,42,72,0
1,38,123,131
1,42,113,0
1,35,110,133
1,42,71,0
1,35,127,149
1,46,106,0
1,38,127,139
1,42,113,0
1,38,127,125
1,46,104,0
1,35,125,5
1,42,93,0
1,35,127,151
1,42,118,0
1,42,50,135
1,38,123,149
1,42,111,0
1,42,46,133
1,35,127,159
1,42,111,0
1,35,110,133
1,42,52,0
1,38,118,127
1,42,98,0
1,35,127,133
1,42,71,0
1,42,93,139
1,35,127,139
1,42,70,0
1,38,118,131
1,42,108,0
1,35,103,137
1,42,57,0
1,35,123,149
1,42,102,0
1,35,110,137
1,42,37,0
1,38,125,151
1,42,113,0
1,35,110,133
1,46,90,0
1,35,127,5
1,42,99,0
1,42,60,133
1,38,125,141
1,42,108,0
1,35,113,133
1,42,32,0
1,35,115,153
1,42,108,0
1,35,123,137
1,38,118,3
1,42,111,0
1,35,113,137
1,42,74,0
1,35,123,151
1,42,104,0
1,35,103,135
1,42,61,0
1,38,115,61
1,42,108,0
1,35,113,137
1,42,68,0
1,33,54,0
1,42,102,147
1,35,127,139
1,42,59,0
1,38,115,99
1,42,111,0
1,35,113,135
1,46,99,0
1,35,127,5
1,42,116,0
1,42,59,113
1,38,105,65
1,42,116,0
1,42,46,135
1,35,125,167
1,42,113,0
1,35,118,131
1,42,60,0
1,38,105,59
1,42,106,0
1,35,127,131
1,42,63,0
1,42,111,133
1,35,127,131
1,42,55,0
1,38,89,71
1,42,113,0
1,35,115,133
1,42,56,0
1,42,108,143
1,35,127,137
1,42,52,0
1,38,92,11
1,42,113,0
1,35,118,137
1,46,94,0
1,35,127,5
1,42,111,0
1,42,65,137
1,38,105,99
1,42,113,0
1,35,118,137
1,42,57,0
1,35,127,149
1,42,113,0
1,35,123,127
1,42,42,0
1,38,113,45
1,42,113,0
1,35,127,135
1,46,99,0
1,42,111,5
1,35,127,1
1,42,59,0
1,38,123,129
1,42,111,0
1,38,115,117
1,46,108,0
1,35,127,137
1,42,106,0
1,35,127,137
1,38,96,0
1,46,99,0
1,38,125,131
1,42,113,0
1,35,127,13
1,46,102,0
1,35,88,133
1,49,84,0
1,54,90,0
1,54,48,129
1,38,91,137
1,42,102,0
1,54,90,0
1,39,74,0
1,35,78,123
1,42,57,0
1,54,22,0
1,35,85,137
1,42,98,0
1,54,65,0
1,42,34,7
1,54,35,0
1,38,101,105
1,42,95,0
1,54,86,0
1,39,85,0
1,42,49,107
1,54,23,0
1,35,96,107
1,42,99,0
1,54,58,0
1,42,45,49
1,54,35,0
1,38,101,117
1,42,99,0
1,54,84,0
1,39,90,0
1,35,76,113
1,42,39,0
1,54,18,0
1,35,81,135
1,42,94,0
1,54,64,0
1,42,36,59
1,54,22,0
1,38,103,137
1,42,99,0
1,54,80,0
1,39,85,0
1,46,79,113
1,54,39,0
1,35,105,5
1,42,93,0
1,54,78,0
1,42,29,11
1,54,38,0
1,38,99,133
1,42,102,0
1,54,84,0
1,39,83,0
1,42,37,115
1,54,36,0
1,35,103,123
1,42,102,0
1,54,70,0
1,42,48,59
1,54,41,0
1,38,103,137
1,42,104,0
1,54,86,0
1,39,84,0
1,35,90,93
1,42,54,0
1,54,40,0
1,35,108,135
1,42,106,0
1,54,77,0
1,38,101,3
1,42,42,0
1,54,29,0
1,38,93,137
1,42,102,0
1,54,79,0
1,39,74,0
1,42,44,101
1,54,40,0
1,35,115,115
1,42,106,0
1,54,81,0
1,38,93,113
1,42,42,0
1,54,41,0
1,38,110,101
1,42,106,0
1,54,90,0
1,39,76,0
1,35,82,3
1,38,93,0
1,42,55,0
1,54,42,0
1,38,93,5
1,35,113,5
1,49,98,0
1,54,79,0
1,42,45,105
1,54,41,0
1,38,105,137
1,42,102,0
1,54,77,0
1,39,77,0
1,42,48,109
1,54,36,0
1,35,113,141
1,42,104,0
1,54,83,0
1,42,40,41
1,54,36,0
1,38,103,135
1,42,104,0
1,54,84,0
1,39,76,0
1,35,105,109
1,42,38,0
1,54,41,0
1,35,101,131
1,42,102,0
1,54,84,0
1,42,47,101
1,54,35,0
1,38,110,135
1,42,106,0
1,54,85,0
1,39,76,0
1,42,39,115
1,54,29,0
1,35,123,147
