track,note,velocity,time
1,30,104,6083
1,30,0,1
1,42,104,2
1,42,0,912
1,44,104,2
1,44,0,7
1,33,104,1
1,33,0,4
1,45,104,2
1,45,0,912
1,43,104,2
1,43,0,8
1,36,104,2
1,36,0,1078
1,36,104,66
1,36,0,1022
1,31,104,66
1,31,0,62
1,33,104,2
1,33,0,1726
1,31,104,2
1,31,0,318
1,38,104,2
1,38,0,62
1,43,104,2
1,43,0,126
1,31,104,2
1,31,0,62
1,29,104,2
1,29,0,1022
1,29,104,66
1,29,0,62
1,34,104,2
1,34,0,638
1,34,104,66
1,34,0,62
1,46,104,2
1,46,0,190
1,34,104,2
1,34,0,190
1,35,104,2
1,35,0,542
1,35,104,34
1,35,0,94
1,35,104,34
1,35,0,62
1,35,104,130
1,35,0,62
1,35,104,2
1,35,0,158
1,47,104,34
1,47,0,574
1,28,104,578
1,28,0,734
1,35,104,34
1,35,0,190
1,36,104,2
1,36,0,190
1,37,104,2
1,37,0,1054
1,30,104,34
1,30,0,62
1,32,104,2
1,32,0,574
1,44,104,2
1,44,0,2
1,35,104,2
1,35,0,670
1,35,104,98
1,35,0,94
1,37,104,2
1,37,0,94
1,40,104,2
1,40,0,94
1,37,104,2
1,37,0,94
1,28,104,2
1,28,0,766
1,35,104,2
1,35,0,190
1,36,104,2
1,36,0,190
1,37,104,2
1,37,0,766
1,40,104,2
1,40,0,190
1,39,104,2
1,39,0,190
1,32,104,2
1,32,0,1022
1,32,104,66
1,32,0,62
1,35,104,2
1,35,0,702
1,35,104,66
1,35,0,190
1,34,104,2
1,34,0,190
1,33,104,2
1,33,0,94
1,33,104,98
1,33,0,94
1,33,104,98
1,33,0,94
1,33,104,98
1,33,0,126
1,40,104,2
1,40,0,62
1,33,104,2
1,33,0,94
1,33,104,98
1,33,0,94
1,36,104,98
1,36,0,94
1,36,104,98
1,36,0,94
1,36,104,98
1,36,0,94
1,36,104,98
1,36,0,94
1,36,104,98
1,36,0,94
1,36,104,98
1,36,0,126
1,38,104,2
1,38,0,62
1,33,104,2
1,33,0,94
1,33,104,98
1,33,0,94
1,33,104,98
1,33,0,126
1,40,104,2
1,40,0,62
1,33,104,2
1,33,0,94
1,33,104,98
1,33,0,126
1,40,104,2
1,40,0,62
1,33,104,2
1,33,0,94
1,36,104,98
1,36,0,94
1,36,104,98
1,36,0,94
1,36,104,98
1,36,0,94
1,36,104,98
1,36,0,94
1,36,104,98
1,36,0,126
1,40,104,2
1,40,0,62
1,36,104,2
1,36,0,94
1,26,104,98
1,26,0,1150
1,35,104,2
1,35,0,574
1,28,104,578
1,28,0,574
1,40,104,2
1,40,0,318
1,35,104,66
1,35,0,190
1,28,104,2
1,28,0,574
1,40,104,2
1,40,0,3
1,28,104,2
1,28,0,1054
1,35,104,34
1,40,104,64
1,35,0,2
1,40,0,957
1,35,104,1
1,32,104,50
1,35,0,7
1,32,0,567
1,44,104,2
1,44,0,478
1,39,104,34
1,39,0,63
1,44,104,1
1,44,0,1054
1,39,104,34
1,39,0,63
1,30,104,1
1,30,0,1
1,42,104,2
1,42,0,912
1,44,104,2
1,44,0,7
1,33,104,1
1,33,0,4
1,45,104,2
1,45,0,912
1,43,104,2
1,43,0,8
1,36,104,2
1,36,0,1078
1,36,104,66
1,36,0,1022
1,31,104,66
1,31,0,62
1,33,104,2
1,33,0,1726
1,31,104,2
1,31,0,318
1,38,104,2
1,38,0,62
1,43,104,2
1,43,0,126
1,31,104,2
1,31,0,62
1,29,104,2
1,29,0,1022
1,29,104,66
1,29,0,62
1,34,104,2
1,34,0,638
1,34,104,66
1,34,0,62
1,46,104,2
1,46,0,190
1,34,104,2
1,34,0,190
1,35,104,2
1,35,0,1118
1,35,104,34
1,35,0,62
1,28,104,1090
1,28,0,734
1,35,104,34
1,35,0,190
1,36,104,2
1,36,0,190
1,37,104,2
1,37,0,1054
1,30,104,34
1,30,0,62
1,32,104,2
1,32,0,574
1,44,104,2
1,44,0,2
1,35,104,2
1,35,0,670
1,35,104,98
1,35,0,94
1,37,104,2
1,37,0,94
1,40,104,2
1,40,0,94
1,37,104,2
1,37,0,94
1,28,104,2
1,28,0,766
1,35,104,2
1,35,0,190
1,36,104,2
1,36,0,190
1,37,104,2
1,37,0,766
1,40,104,2
1,40,0,190
1,39,104,2
1,39,0,190
1,32,104,2
1,32,0,1022
1,32,104,66
1,32,0,62
1,35,104,2
1,35,0,702
1,35,104,66
1,35,0,190
1,34,104,2
1,34,0,190
1,33,104,2
1,33,0,94
1,33,104,98
1,33,0,94
1,33,104,98
1,33,0,94
1,33,104,98
1,33,0,126
1,40,104,2
1,40,0,62
1,33,104,2
1,33,0,94
1,33,104,98
1,33,0,94
1,36,104,98
1,36,0,94
1,36,104,98
1,36,0,94
1,36,104,98
1,36,0,94
1,36,104,98
1,36,0,94
1,36,104,98
1,36,0,94
1,36,104,98
1,36,0,126
1,38,104,2
1,38,0,62
1,33,104,2
1,33,0,94
1,33,104,98
1,33,0,94
1,33,104,98
1,33,0,126
1,40,104,2
1,40,0,62
1,33,104,2
1,33,0,94
1,33,104,98
1,33,0,126
1,40,104,2
1,40,0,62
1,33,104,2
1,33,0,94
1,36,104,98
1,36,0,94
1,36,104,98
1,36,0,94
1,36,104,98
1,36,0,94
1,36,104,98
1,36,0,94
1,36,104,98
1,36,0,126
1,40,104,2
1,40,0,62
1,36,104,2
1,36,0,94
1,26,104,98
1,26,0,1150
1,35,104,2
1,35,0,574
1,28,104,578
1,28,0,1054
1,35,104,34
1,40,104,64
1,35,0,2
1,40,0,957
1,35,104,1
1,32,104,50
1,35,0,7
1,32,0,567
1,44,104,2
1,44,0,478
1,39,104,34
1,39,0,63
1,44,104,1
1,44,0,1054
1,39,104,34
1,39,0,63
1,30,104,1
1,30,0,1
1,42,104,2
1,42,0,912
1,44,104,2
1,44,0,7
1,33,104,1
1,33,0,4
1,45,104,2
1,45,0,912
1,43,104,2
1,43,0,4
1,36,104,2
1,36,0,1078
1,36,104,66
1,36,0,1022
1,31,104,66
1,31,0,62
1,33,104,2
1,33,0,1726
1,31,104,2
1,31,0,318
1,38,104,2
1,38,0,62
1,43,104,2
1,43,0,126
1,31,104,2
1,31,0,62
1,29,104,2
1,29,0,1022
1,29,104,66
1,29,0,62
1,34,104,2
1,34,0,638
1,34,104,66
1,34,0,62
1,46,104,2
1,46,0,190
1,34,104,2
1,34,0,190
1,35,104,2
1,35,0,542
1,35,104,34
1,35,0,94
1,35,104,34
1,35,0,62
1,35,104,130
1,35,0,62
1,35,104,2
1,35,0,158
1,47,104,34
1,47,0,574
1,28,104,578
1,28,0,734
1,35,104,34
1,35,0,190
1,36,104,2
1,36,0,190
1,37,104,2
1,37,0,1054
1,30,104,34
1,30,0,62
1,32,104,2
1,32,0,574
1,44,104,2
1,44,0,6
1,35,104,2
1,35,0,670
1,35,104,98
1,35,0,94
1,37,104,2
1,37,0,94
1,40,104,2
1,40,0,94
1,37,104,2
1,37,0,94
1,28,104,2
1,28,0,734
1,35,104,34
1,35,0,190
1,36,104,2
1,36,0,190
1,37,104,2
1,37,0,1054
1,30,104,34
1,30,0,62
1,32,104,2
1,32,0,574
1,44,104,2
1,44,0,6
1,35,104,2
1,35,0,670
1,35,104,98
1,35,0,94
1,37,104,2
1,37,0,94
1,40,104,2
1,40,0,94
1,37,104,2
1,37,0,94
1,28,104,2
1,28,0,734
1,35,104,34
1,35,0,190
1,36,104,2
1,36,0,190
1,37,104,2
1,37,0,286
1,30,104,32
1,30,0,62
1,32,104,2
1,32,0,94
1,44,104,2
1,44,0,2
1,35,104,2
1,35,0,190
1,35,104,98
1,35,0,94
1,37,104,2
1,37,0,94
1,40,104,2
1,40,0,94
1,37,104,2
1,37,0,94
1,28,104,2
1,28,0,254
1,35,104,34
1,35,0,190
1,36,104,2
1,36,0,94
1,37,104,2
1,37,0,286
1,30,104,32
1,30,0,62
1,32,104,2
1,32,0,94
1,44,104,2
1,44,0,2
1,35,104,2
1,35,0,190
1,35,104,98
1,35,0,94
1,37,104,2
1,37,0,94
1,40,104,2
1,40,0,94
1,37,104,2
1,37,0,94
2,28,96,1516
2,40,106,0
2,52,110,0
2,56,110,0
2,59,104,0
2,52,0,250
2,52,78,52
2,56,0,11
2,40,0,72
2,40,100,109
2,59,0,35
2,56,115,157
2,59,112,192
2,56,0,5
2,40,0,47
2,28,0,11
2,28,91,129
2,40,108,0
2,52,0,9
2,52,91,98
2,59,0,17
2,56,110,175
2,59,117,192
2,56,0,1
2,59,0,189
2,56,110,2
2,40,0,40
2,28,0,68
2,40,93,20
2,40,0,22
2,30,100,42
2,42,106,0
2,59,112,0
2,56,0,7
2,30,0,81
2,42,0,8
2,52,0,19
2,59,0,6
2,32,87,5
2,44,103,0
2,59,108,0
2,59,0,119
2,51,80,9
2,56,97,192
2,44,0,53
2,44,93,75
2,56,0,61
2,59,106,3
2,59,0,190
2,56,95,2
2,51,0,69
2,51,106,123
2,56,0,2
2,44,0,103
2,32,0,8
2,32,91,79
2,44,115,0
2,51,0,62
2,51,103,66
2,56,106,192
2,44,0,53
2,44,89,75
2,59,104,64
2,56,0,6
2,56,100,186
2,59,0,18
2,51,0,7
2,56,0,149
2,51,106,18
2,44,0,13
2,32,0,18
2,51,0,159
2,42,115,2
2,49,106,128
2,49,0,164
2,52,94,28
2,42,0,49
2,52,0,108
2,52,93,35
2,57,104,0
2,52,0,106
2,52,87,86
2,57,0,41
2,52,0,148
2,49,110,3
2,42,115,192
2,49,0,54
2,49,106,128
2,52,102,192
2,49,0,9
2,57,106,183
2,52,0,9
2,52,92,183
2,57,0,18
2,42,0,18
2,42,62,60
2,42,0,38
2,44,106,58
2,49,110,0
2,52,0,3
2,44,0,86
2,49,0,5
2,45,110,37
2,55,117,128
2,61,103,192
2,55,0,2
2,61,0,131
2,61,115,59
2,61,0,181
2,55,112,11
2,55,0,189
2,52,112,3
2,45,0,95
2,45,112,97
2,52,0,21
2,55,120,128
2,55,0,186
2,61,115,6
2,61,0,109
2,61,110,83
2,61,0,189
2,55,115,3
2,45,0,68
2,55,0,113
2,43,100,11
2,52,108,0
2,43,0,62
2,48,123,66
2,52,0,10
2,58,115,128
2,60,112,192
2,58,0,9
2,64,112,183
2,60,0,1
2,60,104,191
2,64,0,18
2,60,0,171
2,58,115,3
2,48,0,72
2,48,120,120
2,58,0,15
2,58,115,128
2,60,112,192
2,58,0,9
2,64,108,183
2,60,0,13
2,60,115,179
2,64,0,6
2,48,0,173
2,58,115,13
2,60,0,6
2,45,104,186
2,58,0,9
2,55,117,128
2,52,112,192
2,55,0,20
2,45,0,100
2,45,112,72
2,60,112,192
2,52,0,17
2,60,0,165
2,57,115,10
2,45,0,101
2,45,112,91
2,57,0,38
2,52,110,128
2,57,117,192
2,45,0,41
2,52,0,149
2,43,93,2
2,60,112,0
2,57,0,10
2,57,110,128
2,60,0,14
2,57,0,169
2,55,106,9
2,43,0,73
2,55,0,53
2,41,115,66
2,48,120,128
2,51,115,192
2,41,0,41
2,41,102,87
2,51,0,61
2,57,115,3
2,48,0,13
2,51,115,179
2,51,0,182
2,41,0,3
2,48,112,7
2,48,0,145
2,57,0,41
2,46,106,6
2,53,123,128
2,56,126,192
2,46,0,65
2,46,110,63
2,62,112,64
2,56,0,25
2,56,115,167
2,53,0,23
2,46,0,58
2,53,100,111
2,62,0,0
2,56,0,4
2,53,0,101
2,47,120,87
2,54,115,128
2,54,0,149
2,54,87,43
2,57,108,0
2,47,0,42
2,47,108,86
2,54,0,5
2,57,0,21
2,54,91,38
2,57,90,0
2,63,110,0
2,57,0,91
2,57,100,101
2,54,0,6
2,63,0,9
2,54,120,177
2,57,0,9
2,47,0,33
2,47,120,150
2,54,0,5
2,47,0,578
2,40,127,569
2,52,118,0
2,56,116,0
2,59,114,0
2,52,0,81
2,52,99,47
2,59,0,1
2,56,0,8
2,56,125,183
2,59,114,192
2,56,0,11
2,56,125,181
2,59,0,26
2,52,0,10
2,40,0,143
2,36,118,13
2,52,120,0
2,56,0,0
2,36,0,127
2,37,125,1
2,52,0,52
2,52,125,128
2,56,125,192
2,37,0,67
2,37,103,61
2,61,127,64
2,56,0,24
2,56,110,168
2,52,0,33
2,56,0,158
2,52,127,1
2,44,116,192
2,37,0,2
2,61,0,12
2,52,0,5
2,51,127,128
2,56,116,192
2,44,0,51
2,44,93,77
2,51,0,39
2,51,80,25
2,59,114,0
2,56,0,31
2,56,113,161
2,51,0,35
2,56,0,155
2,51,125,2
2,44,0,192
2,47,127,0
2,51,0,2
2,59,0,38
2,54,125,90
2,59,112,192
2,47,0,57
2,47,104,71
2,54,0,19
2,54,60,45
2,63,120,0
2,59,0,43
2,59,110,149
2,54,0,39
2,59,0,148
2,54,125,5
2,47,0,8
2,63,0,8
2,54,0,10
2,40,127,166
2,52,118,0
2,56,116,0
2,59,114,0
2,52,0,81
2,52,99,47
2,59,0,1
2,56,0,8
2,56,125,183
2,59,114,192
2,56,0,11
2,56,125,181
2,59,0,26
2,52,0,10
2,40,0,143
2,36,118,13
2,52,120,0
2,56,0,0
2,36,0,127
2,37,125,1
2,52,0,52
2,52,125,128
2,56,125,192
2,37,0,67
2,37,103,61
2,61,127,64
2,56,0,24
2,56,110,168
2,52,0,33
2,56,0,158
2,52,127,1
2,44,116,192
2,37,0,2
2,61,0,12
2,52,0,5
2,51,127,128
2,56,116,192
2,44,0,51
2,44,93,77
2,51,0,39
2,51,80,25
2,59,114,0
2,56,0,31
2,56,113,161
2,51,0,35
2,56,0,155
2,51,125,2
2,44,0,192
2,47,127,0
2,51,0,2
2,59,0,38
2,54,125,90
2,59,112,192
2,47,0,57
2,47,104,71
2,54,0,19
2,54,60,45
2,63,120,0
2,59,0,43
2,59,110,149
2,54,0,39
2,59,0,148
2,46,125,5
2,47,0,8
2,63,0,8
2,46,0,126
2,52,99,2
2,57,106,0
2,61,106,0
2,57,0,28
2,52,0,3
2,61,0,1
2,52,91,160
2,57,100,0
2,61,106,0
2,52,0,30
2,57,0,1
2,61,0,11
2,52,94,150
2,57,100,0
2,61,100,0
2,57,0,26
2,52,0,6
2,61,0,3
2,52,94,157
2,57,100,0
2,61,103,0
2,52,0,35
2,57,0,1
2,61,0,2
2,52,93,154
2,57,94,0
2,61,103,0
2,57,0,27
2,52,0,8
2,61,0,2
2,52,99,155
2,57,100,0
2,61,93,0
2,57,0,35
2,52,0,1
2,61,0,12
2,55,104,144
2,58,103,0
2,64,99,0
2,58,0,28
2,55,0,2
2,64,0,5
2,55,104,157
2,58,103,0
2,64,99,0
2,58,0,30
2,55,0,5
2,64,0,0
2,55,100,157
2,58,100,0
2,64,94,0
2,58,0,30
2,55,0,9
2,64,0,3
2,55,97,150
2,58,95,0
2,64,97,0
2,58,0,31
2,55,0,9
2,64,0,2
2,55,99,150
2,58,95,0
2,64,99,0
2,58,0,27
2,55,0,8
2,64,0,7
2,55,97,150
2,58,100,0
2,64,93,0
2,58,0,32
2,55,0,2
2,64,0,5
2,52,78,153
2,57,97,0
2,61,95,0
2,52,0,35
2,57,0,1
2,61,0,3
2,52,94,153
2,57,97,0
2,61,100,0
2,57,0,35
2,52,0,3
2,61,0,1
2,52,97,153
2,57,100,0
2,61,95,0
2,57,0,32
2,61,0,0
2,52,0,3
2,52,96,157
2,57,97,0
2,61,97,0
2,52,0,34
2,57,0,1
2,61,0,4
2,52,100,153
2,57,102,0
2,61,97,0
2,57,0,31
2,52,0,3
2,61,0,2
2,52,99,156
2,57,100,0
2,61,97,0
2,57,0,34
2,52,0,2
2,61,0,6
2,55,102,150
2,58,100,0
2,64,99,0
2,58,0,31
2,64,0,3
2,55,0,1
2,55,104,157
2,58,103,0
2,64,97,0
2,58,0,31
2,55,0,3
2,64,0,1
2,55,104,157
2,58,100,0
2,64,94,0
2,55,0,35
2,58,0,0
2,64,0,3
2,55,100,154
2,58,100,0
2,64,96,0
2,55,0,39
2,58,0,1
2,64,0,2
2,55,104,150
2,58,103,0
