track,note,velocity,time
0,59,44,352
0,55,44,0
0,50,23,0
0,31,121,0
0,36,70,0
0,59,44,13
0,55,44,0
0,50,23,0
0,36,0,107
0,38,69,0
0,38,0,60
0,50,0,30
0,59,0,0
0,55,0,0
0,55,0,13
0,50,0,0
0,59,0,0
0,59,64,17
0,50,64,0
0,55,64,0
0,36,69,0
0,59,64,13
0,50,64,0
0,55,64,0
0,36,0,17
0,55,0,30
0,50,0,0
0,55,64,0
0,52,64,0
0,36,69,0
0,55,0,13
0,50,0,0
0,55,64,0
0,52,64,0
0,52,0,47
0,36,0,0
0,59,0,0
0,31,0,0
0,55,0,0
0,38,69,0
0,52,0,13
0,59,0,0
0,55,0,0
0,38,0,17
0,57,64,30
0,50,64,0
0,53,64,0
0,26,104,0
0,36,69,0
0,57,64,13
0,50,64,0
0,53,64,0
0,36,0,77
0,36,69,30
0,36,0,60
0,38,69,0
0,38,0,90
0,36,69,90
0,53,0,30
0,53,0,13
0,36,0,17
0,50,0,0
0,38,69,0
0,50,0,13
0,57,0,17
0,57,0,13
0,38,0,17
0,36,69,0
0,36,0,30
0,26,0,30
0,55,64,0
0,59,64,0
0,50,64,0
0,31,115,0
0,36,69,0
0,55,64,13
0,59,64,0
0,50,64,0
0,36,0,107
0,38,69,0
0,38,0,60
0,50,0,30
0,55,0,0
0,59,0,0
0,59,0,13
0,50,0,0
0,55,0,0
0,31,0,17
0,59,64,0
0,55,64,0
0,50,64,0
0,31,76,0
0,36,69,0
0,59,64,13
0,55,64,0
0,50,64,0
0,36,0,17
0,50,0,30
0,52,64,0
0,36,69,0
0,50,0,13
0,52,64,0
0,36,0,47
0,59,0,0
0,55,0,0
0,52,0,0
0,38,69,0
0,55,0,13
0,52,0,0
0,59,0,0
0,38,0,17
0,31,0,30
0,53,64,0
0,57,64,0
0,50,64,0
0,26,74,0
0,36,69,0
0,53,64,13
0,57,64,0
0,50,64,0
0,36,0,47
0,36,69,2
0,36,0,60
0,38,69,0
0,38,0,60
0,39,2,0
0,39,0,20
0,53,0,55
0,53,0,13
0,53,64,17
0,36,69,0
0,53,64,13
0,57,0,17
0,57,0,13
0,26,0,17
0,36,0,0
0,57,64,0
0,26,62,0
0,38,69,0
0,57,64,13
0,38,0,17
0,53,0,0
0,53,0,13
0,53,64,17
0,36,69,0
0,53,64,13
0,36,0,17
0,57,0,0
0,50,0,0
0,53,0,0
0,36,2,9
0,36,2,1
0,50,0,3
0,53,0,0
0,57,0,0
0,36,0,16
0,36,0,1
0,26,0,0
0,55,64,0
0,59,64,0
0,50,64,0
0,31,104,0
0,36,70,0
0,55,64,13
0,59,64,0
0,50,64,0
0,36,0,107
0,38,69,0
0,38,0,60
0,50,0,30
0,55,0,0
0,59,0,0
0,59,0,13
0,50,0,0
0,55,0,0
0,31,0,17
0,50,64,0
0,55,64,0
0,59,64,0
0,31,70,0
0,36,69,0
0,50,64,13
0,55,64,0
0,59,64,0
0,36,0,17
0,31,0,30
0,50,0,0
0,52,64,0
0,31,76,0
0,36,69,0
0,50,0,13
0,52,64,0
0,36,0,47
0,55,0,0
0,52,0,0
0,38,69,0
0,55,0,13
0,52,0,0
0,38,0,17
0,59,0,30
0,31,0,0
0,53,64,0
0,50,64,0
0,26,86,0
0,36,69,0
0,57,64,10
0,59,0,3
0,53,64,0
0,50,64,0
0,57,64,10
0,36,0,67
0,36,69,30
0,36,0,60
0,38,69,0
0,38,0,90
0,26,0,30
0,26,54,0
0,57,0,40
0,57,0,13
0,36,69,7
0,50,0,30
0,50,0,13
0,26,0,17
0,36,0,0
0,26,52,0
0,38,69,0
0,53,0,30
0,53,0,13
0,38,0,17
0,36,69,0
0,36,0,30
0,26,0,30
0,59,64,0
0,55,64,0
0,31,76,0
0,36,69,0
0,50,64,10
0,59,64,3
0,55,64,0
0,50,64,10
0,36,0,97
0,38,69,0
0,38,0,60
0,50,0,10
0,50,0,13
0,59,0,7
0,55,0,0
0,59,0,13
0,55,0,0
0,31,0,17
0,59,64,0
0,55,64,0
0,50,64,0
0,31,74,0
0,36,69,0
0,59,64,13
0,55,64,0
0,50,64,0
0,36,0,17
0,31,0,30
0,50,0,0
0,55,0,0
0,52,64,0
0,31,76,0
0,36,69,0
0,55,0,13
0,50,0,0
0,52,64,0
0,31,0,47
0,59,0,0
0,52,0,0
0,36,0,0
0,38,69,0
0,59,0,13
0,52,0,0
0,38,0,17
0,53,64,30
0,57,64,0
0,50,64,0
0,26,80,0
0,36,69,0
0,53,64,13
0,57,64,0
0,50,64,0
0,36,0,47
0,36,69,2
0,36,0,60
0,38,69,0
0,38,0,60
0,39,2,0
0,39,0,20
0,50,0,55
0,50,0,13
0,26,0,17
0,50,64,0
0,26,64,0
0,36,69,0
0,50,64,13
0,53,0,17
0,53,0,13
0,26,0,17
0,57,0,0
0,36,0,0
0,53,64,0
0,26,74,0
0,38,69,0
0,57,0,13
0,53,64,0
0,38,0,17
0,26,0,30
0,50,0,0
0,57,64,0
0,26,64,0
0,36,69,0
0,50,0,13
0,57,64,0
0,57,0,17
0,53,0,0
0,36,0,0
0,36,2,9
0,36,2,1
0,53,0,3
0,57,0,0
0,57,80,11
0,36,0,5
0,36,0,1
0,26,0,0
0,55,64,0
0,59,64,0
0,31,92,0
0,36,70,0
0,59,92,1
0,57,0,2
0,50,64,7
0,55,64,3
0,59,64,0
0,50,64,10
0,59,0,90
0,59,80,6
0,36,0,1
0,38,69,0
0,59,0,46
0,57,80,8
0,38,0,6
0,57,0,9
0,57,86,8
0,36,69,43
0,36,0,30
0,57,0,19
0,55,80,6
0,36,69,5
0,36,0,60
0,31,0,0
0,31,74,0
0,38,69,0
0,38,0,30
0,55,0,0
0,59,0,0
0,50,0,10
0,59,0,3
0,55,0,0
0,55,0,2
0,50,0,8
0,55,76,0
0,36,69,7
0,55,0,53
0,65,98,4
0,31,0,3
0,57,64,0
0,50,64,0
0,53,64,0
0,26,80,0
0,57,64,13
0,50,64,0
0,53,64,0
0,36,0,17
0,36,69,30
0,65,0,33
0,65,86,18
0,36,0,9
0,38,69,0
0,65,0,52
0,64,41,2
0,62,58,24
0,64,0,4
0,38,0,8
0,36,69,90
0,53,0,30
0,57,0,0
0,53,0,13
0,57,0,0
0,36,0,17
0,50,0,0
0,38,69,0
0,50,0,13
0,38,0,47
0,36,69,0
0,36,0,30
0,62,0,4
0,60,86,17
0,62,80,7
0,26,0,2
0,46,64,0
0,50,64,0
0,53,64,0
0,34,80,0
0,36,69,0
0,60,0,4
0,46,64,9
0,50,64,0
0,53,64,0
0,62,0,78
0,62,76,14
0,36,0,15
0,38,69,0
0,62,0,44
0,60,76,4
0,38,0,12
0,60,0,6
0,60,70,12
0,36,69,42
0,60,0,22
0,36,0,8
0,58,80,12
0,36,69,18
0,36,0,60
0,46,0,0
0,50,0,0
0,53,0,0
0,38,69,0
0,46,0,13
0,50,0,0
0,53,0,0
0,38,0,17
0,34,0,30
0,36,69,0
0,58,0,50
0,60,78,5
0,36,0,5
0,55,62,0
0,48,62,0
0,52,62,0
0,36,98,0
0,55,62,13
0,48,62,0
0,52,62,0
0,36,69,2
0,60,0,31
0,60,78,21
0,36,0,8
0,38,69,0
0,58,54,40
0,60,0,3
0,38,0,17
0,39,2,0
0,55,80,18
0,39,0,2
0,58,0,2
0,36,69,85
0,48,0,30
0,48,0,13
0,36,0,17
0,52,0,0
0,38,69,0
0,52,0,13
0,38,0,17
0,55,0,30
0,36,69,0
0,55,0,13
0,36,0,17
0,55,0,9
0,36,2,0
0,36,2,1
0,59,92,15
0,36,0,4
0,36,0,1
0,36,0,0
0,55,63,0
0,59,63,0
0,50,63,0
0,31,98,0
0,36,70,0
0,55,63,13
0,59,63,0
0,50,63,0
0,59,0,95
0,36,0,12
0,59,86,0
0,38,69,0
0,59,0,42
0,57,64,7
0,38,0,11
0,57,0,8
0,57,74,12
0,36,69,40
0,36,0,30
0,57,0,8
0,57,16,8
0,57,0,8
0,55,78,0
0,36,69,6
0,55,0,38
0,55,78,14
0,36,0,8
0,59,0,0
0,38,69,0
0,59,0,13
0,38,0,17
0,50,0,0
0,55,0,0
0,55,0,13
0,50,0,0
0,36,69,17
0,55,0,53
0,65,98,3
0,31,0,4
0,53,63,0
0,57,63,0
0,50,63,0
0,26,92,0
0,53,63,13
0,57,63,0
0,50,63,0
0,36,0,17
0,36,69,30
0,65,0,45
0,65,70,11
0,36,0,4
0,38,69,0
0,64,50,55
0,65,0,1
0,62,70,25
0,64,0,2
0,38,0,7
0,36,69,90
0,36,0,60
0,57,0,0
0,50,0,0
0,53,0,0
0,38,69,0
0,57,0,13
0,50,0,0
0,53,0,0
0,38,0,47
0,36,69,0
0,36,0,30
0,62,0,0
0,60,48,25
0,26,0,5
0,46,63,0
0,50,63,0
0,53,63,0
0,36,69,0
0,62,92,2
0,60,0,2
0,34,62,6
0,46,63,3
0,50,63,0
0,53,63,0
0,62,0,94
0,62,74,10
0,36,0,3
0,38,69,0
0,62,0,49
0,60,62,2
0,38,0,9
0,60,0,8
0,60,68,11
0,36,69,41
0,60,0,28
0,36,0,2
0,58,57,15
0,36,69,15
0,58,0,27
0,58,60,28
0,36,0,5
0,38,69,0
0,38,0,30
0,46,0,0
0,53,0,0
0,50,0,0
0,53,0,13
0,50,0,0
0,46,0,0
0,58,0,10
0,36,69,7
0,58,58,4
0,34,0,26
0,58,0,18
0,60,78,7
0,36,0,5
0,55,64,0
0,52,64,0
0,48,64,0
0,36,86,0
0,55,64,13
0,52,64,0
0,48,64,0
0,36,69,2
0,60,0,29
0,60,76,25
0,36,0,6
0,38,69,0
0,62,56,51
0,60,0,2
0,38,0,7
0,39,2,0
0,39,0,20
0,55,74,10
0,62,0,2
0,36,69,85
0,55,0,26
0,55,66,23
0,55,0,10
0,36,0,1
0,38,69,0
0,55,92,13
0,38,0,17
0,55,0,0
0,48,0,0
0,52,0,0
0,55,0,13
0,48,0,0
0,52,0,0
0,36,69,17
0,36,0,30
0,55,0,7
0,36,2,2
0,36,2,1
0,36,0,19
0,67,80,0
0,36,0,1
0,36,0,0
0,59,64,0
0,55,64,0
0,50,64,0
0,31,104,0
0,36,70,0
0,59,64,13
0,55,64,0
0,50,64,0
0,36,0,107
0,38,69,0
0,38,0,60
0,67,0,39
0,36,69,21
0,36,0,30
0,36,69,30
0,69,68,7
0,36,0,53
0,59,0,0
0,55,0,0
0,38,69,0
0,69,0,10
0,67,80,0
0,55,0,3
0,59,0,0
0,38,0,17
0,50,0,0
0,50,0,13
0,31,0,17
0,26,92,0
0,36,69,0
0,65,72,3
0,67,0,37
0,57,64,20
0,53,64,0
0,50,64,0
0,57,64,13
0,53,64,0
0,50,64,0
0,36,0,17
0,65,0,10
0,36,69,20
0,62,74,19
0,36,0,41
0,38,69,0
0,38,0,90
0,36,69,90
0,36,0,60
0,57,0,0
0,53,0,0
0,38,69,0
0,53,0,13
0,57,0,0
0,50,0,17
0,50,0,13
0,38,0,17
0,36,69,0
0,36,0,30
0,62,0,6
0,67,104,18
0,26,0,6
0,46,64,0
0,50,64,0
0,53,64,0
0,34,78,0
0,36,69,0
0,46,64,13
0,50,64,0
0,53,64,0
0,36,0,107
0,38,69,0
0,38,0,60
0,67,0,39
0,65,72,16
0,36,69,5
0,36,0,30
0,64,60,21
0,65,0,2
0,36,69,7
0,36,0,60
0,53,0,0
0,46,0,0
0,50,0,0
0,38,69,0
0,53,0,13
0,50,0,0
0,46,0,0
0,38,0,17
0,64,0,8
0,64,86,19
0,34,0,3
0,55,65,0
0,48,65,0
0,52,65,0
0,36,74,0
0,36,69,0
0,55,65,13
0,48,65,0
0,52,65,0
0,36,0,47
0,36,69,2
0,36,0,60
0,38,69,0
0,38,0,60
0,39,2,0
0,39,0,20
0,55,65,25
0,55,65,13
0,48,0,17
0,52,0,0
0,52,0,13
0,48,0,0
0,55,0,17
0,36,69,0
0,55,0,13
0,55,0,17
0,55,0,13
0,36,0,17
0,48,65,0
0,38,69,0
0,48,65,13
0,38,0,17
0,36,69,30
0,64,0,27
0,36,0,3
0,36,2,9
0,36,2,1
0,48,0,10
0,36,0,9
0,36,0,1
0,36,0,0
0,55,64,0
0,50,65,0
0,31,115,0
0,36,70,0
0,48,0,3
0,59,65,7
0,55,64,3
0,50,65,0
0,59,65,10
0,67,80,1
0,36,0,96
0,38,69,0
0,38,0,60
0,67,0,56
0,36,69,4
0,36,0,30
0,69,70,19
0,36,69,11
0,36,0,60
0,50,0,0
0,67,70,0
0,38,69,0
0,59,0,10
0,69,0,0
0,50,0,3
0,59,0,10
0,38,0,7
0,55,0,0
0,55,0,13
0,65,92,15
0,31,0,2
0,26,104,0
0,36,69,0
0,67,0,21
0,57,65,39
0,53,65,0
0,50,65,0
0,57,65,13
0,53,65,0
0,50,65,0
0,62,74,4
0,36,0,13
0,65,0,4
0,36,69,26
0,36,0,60
0,38,69,0
0,38,0,90
0,50,0,90
0,50,65,0
0,36,69,0
0,50,0,13
0,50,65,0
0,50,0,17
0,57,0,0
0,53,0,0
0,50,0,13
0,53,0,0
0,57,0,0
0,36,0,17
0,57,65,0
0,53,65,0
0,50,65,0
0,38,69,0
0,57,65,13
0,53,65,0
0,50,65,0
0,62,0,23
0,50,0,24
0,53,0,0
0,38,0,0
0,57,0,0
0,36,69,0
0,53,0,13
0,50,0,0
0,57,0,0
0,36,0,17
0,67,86,27
0,26,0,3
0,53,65,0
0,50,65,0
0,46,65,0
0,34,92,0
0,36,69,0
0,53,65,13
0,50,65,0
0,46,65,0
0,36,0,107
0,38,69,0
0,38,0,60
0,67,0,46
0,65,76,8
0,36,69,6
0,36,0,30
0,65,0,16
0,64,50,12
0,36,69,2
0,46,0,30
0,53,0,0
0,50,0,0
0,53,0,13
0,50,0,0
0,46,0,0
0,36,0,17
0,38,69,0
0,38,0,30
0,64,0,12
0,34,0,18
0,55,63,0
0,48,63,0
0,52,63,0
0,36,78,0
0,36,69,0
0,64,52,6
0,55,63,7
0,48,63,0
0,52,63,0
0,36,0,47
0,36,69,2
0,36,0,60
0,38,69,0
0,38,0,60
0,39,2,0
0,39,0,20
0,64,0,35
0,36,69,50
0,36,0,60
0,52,0,0
0,55,0,0
0,48,0,0
0,38,69,0
0,55,0,13
0,52,0,0
0,48,0,0
0,38,0,17
0,36,69,30
0,36,0,30
0,36,2,9
0,36,2,1
0,36,0,19
0,36,0,1
0,36,0,0
0,59,44,0
0,55,44,0
0,50,23,0
0,31,104,0
0,36,70,0
0,59,44,13
0,55,44,0
0,50,23,0
0,36,0,107
0,38,69,0
0,38,0,60
0,50,0,30
0,59,0,0
0,55,0,0
0,55,0,13
0,50,0,0
0,59,0,0
0,59,64,17
0,50,64,0
0,55,64,0
0,36,69,0
0,59,64,13
0,50,64,0
0,55,64,0
0,36,0,17
0,55,0,30
0,50,0,0
0,31,0,0
0,55,64,0
0,52,64,0
0,31,92,0
0,36,69,0
0,50,0,13
0,55,0,0
0,55,64,0
0,52,64,0
0,59,0,47
0,36,0,0
0,55,0,0
0,52,0,0
0,38,69,0
0,55,0,13
0,52,0,0
0,59,0,0
0,38,0,17
0,31,0,30
0,57,64,0
0,50,64,0
0,53,64,0
0,26,98,0
0,36,69,0
0,57,64,13
0,50,64,0
0,53,64,0
0,36,0,77
0,36,69,30
0,36,0,60
0,38,69,0
0,38,0,90
0,38,64,90
0,36,69,0
0,53,0,30
0,53,0,13
0,38,0,17
0,36,0,0
0,50,0,0
0,38,68,0
0,38,69,0
0,50,0,13
0,57,0,17
0,57,0,13
0,38,0,17
0,38,0,0
0,36,69,0
0,36,0,30
0,26,0,30
0,55,64,0
0,59,64,0
0,50,64,0
0,31,62,0
0,36,69,0
0,55,64,13
0,59,64,0
0,50,64,0
0,36,0,107
0,31,68,0
0,38,69,0
0,38,0,60
0,50,0,30
0,55,0,0
0,59,0,0
0,55,0,13
0,50,0,0
0,59,0,0
0,31,0,17
0,59,64,0
