track,note,velocity,time
1,38,125,10160
1,28,113,82
1,31,82,60
1,32,82,192
1,35,105,6
1,28,105,258
1,28,105,110
1,31,77,0
1,32,77,192
1,35,103,172
1,28,110,2
1,36,90,60
1,30,78,6
1,31,76,18
1,34,77,192
1,36,89,6
1,38,95,114
1,33,85,76
1,35,92,4
1,38,89,20
1,29,77,68
1,30,83,192
1,33,74,30
1,28,113,192
1,31,82,50
1,32,71,192
1,35,99,180
1,37,85,184
1,28,101,276
1,31,83,64
1,32,86,60
1,35,110,74
1,37,91,72
1,36,85,48
1,30,79,14
1,31,82,16
1,34,76,192
1,36,91,6
1,36,89,258
1,38,89,20
1,38,80,62
1,32,82,192
1,33,76,26
1,36,80,6
1,38,92,14
1,38,90,236
1,40,94,70
1,34,76,192
1,35,85,186
1,38,85,16
1,28,101,2
1,40,89,192
1,34,84,240
1,35,105,232
1,38,92,244
1,35,101,72
1,40,84,28
1,38,74,16
1,36,89,30
1,31,83,130
1,34,72,192
1,36,92,2
1,31,79,2
1,36,89,204
1,38,94,66
1,38,83,64
1,33,83,16
1,35,90,44
1,38,88,28
1,29,81,4
1,30,79,192
1,33,76,10
1,28,110,192
1,34,83,310
1,35,91,192
1,38,91,16
1,28,115,246
1,40,94,162
1,34,86,160
1,35,96,192
1,38,88,26
1,40,90,62
1,38,74,12
1,36,88,34
1,30,80,394
1,31,88,18
1,34,77,4
1,36,88,224
1,38,94,6
1,38,82,74
1,33,88,214
1,35,103,204
1,38,92,20
1,33,77,0
1,28,110,192
1,31,84,344
1,32,87,192
1,35,91,0
1,37,94,192
1,28,110,406
1,31,83,204
1,32,88,192
1,35,101,164
1,37,87,242
1,36,91,28
1,30,87,52
1,31,80,12
1,34,78,8
1,36,92,2
1,36,94,272
1,38,96,10
1,32,76,192
1,33,80,16
1,36,81,16
1,38,71,28
1,38,87,48
1,34,88,0
1,33,92,42
1,40,80,46
1,45,84,4
1,45,78,62
1,40,77,250
1,33,80,192
1,33,76,76
1,40,75,224
1,34,77,6
1,34,67,70
1,40,80,196
1,33,87,192
1,40,83,96
1,45,94,12
1,45,78,54
1,40,80,256
1,33,88,10
1,33,78,76
1,40,80,268
1,34,84,4
1,34,72,84
1,40,83,204
1,33,87,6
1,40,88,70
1,45,94,22
1,45,79,68
1,40,89,268
1,33,88,18
1,33,80,76
1,33,87,258
1,35,89,14
1,37,86,6
1,37,80,60
1,38,76,28
1,40,103,136
1,34,83,248
1,35,99,16
1,40,80,16
1,28,103,276
1,34,83,352
1,35,94,12
1,40,88,14
1,38,57,42
1,36,85,28
1,31,87,152
1,34,77,2
1,36,85,12
1,36,91,290
1,38,89,10
1,38,90,100
1,32,81,266
1,33,85,30
1,36,80,22
1,38,92,26
1,32,15,22
1,36,66,0
1,28,113,60
1,34,83,146
1,35,101,28
1,37,74,10
1,38,94,4
1,35,84,20
1,28,105,158
1,34,84,156
1,35,105,32
1,37,76,192
1,38,95,12
1,37,74,2
1,36,88,30
1,30,82,370
1,31,84,14
1,34,77,10
1,36,85,0
1,38,88,76
1,38,94,236
1,32,77,4
1,33,79,22
1,36,84,16
1,38,94,10
1,33,80,36
1,36,75,16
1,40,92,8
1,34,85,344
1,35,101,12
1,38,90,8
1,34,77,20
1,35,92,192
1,28,113,190
1,40,91,0
1,34,75,18
1,35,92,192
1,38,76,174
1,37,78,48
1,36,95,192
1,30,77,376
1,31,75,20
1,34,74,192
1,36,90,188
1,36,91,256
1,38,95,18
1,38,84,88
1,32,82,8
1,33,77,24
1,36,82,16
1,38,92,18
1,40,101,66
1,34,81,30
1,35,85,192
1,38,80,10
1,31,81,192
1,32,80,190
1,28,108,176
1,31,82,58
1,32,87,192
1,35,103,232
1,37,94,16
1,35,78,24
1,36,92,32
1,30,82,8
1,31,77,10
1,34,71,0
1,36,92,6
1,36,90,284
1,38,92,20
1,38,79,74
1,32,81,192
1,33,79,18
1,36,82,192
1,38,89,10
1,38,89,170
1,40,90,72
1,34,83,38
1,35,87,192
1,38,84,184
1,31,80,6
1,32,82,192
1,28,108,172
1,31,81,64
1,32,85,192
1,35,101,186
1,38,89,18
1,35,95,50
1,36,90,10
1,36,82,72
1,30,79,192
1,31,82,8
1,34,78,192
1,36,90,2
1,36,89,200
1,38,96,8
1,32,84,28
1,33,80,42
1,35,99,18
1,38,92,20
1,38,101,226
1,28,113,0
1,31,82,60
1,32,82,192
1,35,105,6
1,28,105,258
1,28,105,110
1,31,77,0
1,32,77,192
1,35,103,172
1,28,110,2
1,36,90,60
1,30,78,6
1,31,76,18
1,34,77,192
1,36,89,6
1,38,95,114
1,33,85,76
1,35,92,4
1,38,89,20
1,29,77,68
1,30,83,192
1,33,74,30
1,28,113,192
1,31,82,50
1,32,71,192
1,35,99,180
1,37,85,184
1,28,101,276
1,31,83,64
1,32,86,60
1,35,110,74
1,37,91,72
1,36,85,48
1,30,79,14
1,31,82,16
1,34,76,192
1,36,91,6
1,36,89,258
1,38,89,20
1,38,80,62
1,32,82,192
1,33,76,26
1,36,80,6
1,38,92,14
1,38,90,236
1,40,94,70
1,34,76,192
1,35,85,186
1,38,85,16
1,28,101,2
1,40,89,192
1,34,84,240
1,35,105,232
1,38,92,244
1,35,101,72
1,40,84,28
1,38,74,16
1,36,89,30
1,31,83,130
1,34,72,192
1,36,92,2
1,31,79,2
1,36,89,204
1,38,94,66
1,38,83,64
1,33,83,16
1,35,90,44
1,38,88,28
1,29,81,4
1,34,79,192
1,34,76,10
1,33,92,192
1,40,80,46
1,45,84,4
1,45,78,62
1,40,77,250
1,33,80,192
1,33,76,76
1,40,75,224
1,34,77,6
1,34,67,70
1,40,80,196
1,33,87,192
1,40,83,96
1,45,94,12
1,45,78,54
1,40,80,256
1,33,88,10
1,33,78,76
1,40,80,268
1,34,84,4
1,34,72,84
1,40,83,204
1,33,87,6
1,40,88,70
1,45,94,22
1,45,79,68
1,40,89,268
1,33,88,18
1,33,80,76
1,33,87,258
1,35,89,14
1,37,86,6
1,37,80,60
1,38,76,28
1,40,103,136
1,34,83,248
1,35,99,16
1,40,80,16
1,28,103,276
1,34,83,352
1,35,94,12
1,40,88,14
1,38,57,42
1,36,85,28
1,31,87,152
1,34,77,2
1,36,85,12
1,36,91,290
1,38,89,10
1,38,90,100
1,32,81,266
1,33,85,30
1,36,80,22
1,38,92,26
1,32,15,22
1,36,66,0
1,28,113,60
1,34,83,146
1,35,101,28
1,37,74,10
1,38,94,4
1,35,84,20
1,28,105,158
1,34,84,156
1,35,105,32
1,37,76,192
1,38,95,12
1,37,74,2
1,36,88,30
1,30,82,370
1,31,84,14
1,34,77,10
1,36,85,0
1,38,88,76
1,38,94,236
1,32,77,4
1,33,79,22
1,36,84,16
1,38,94,10
1,33,80,36
1,36,75,16
1,40,92,8
1,34,85,344
1,35,101,12
1,38,90,8
1,34,77,20
1,35,92,192
1,28,113,190
1,40,91,0
1,34,75,18
1,35,92,192
1,38,76,174
1,37,78,48
1,36,95,192
1,30,77,376
1,31,75,20
1,34,74,192
1,36,90,188
1,36,91,256
1,38,95,18
1,38,84,88
1,32,82,8
1,33,77,24
1,36,82,16
1,38,92,18
1,40,101,66
1,34,81,30
1,35,85,192
1,38,80,10
1,31,81,192
1,32,80,190
1,28,108,176
1,31,82,58
1,32,87,192
1,35,103,232
1,37,94,16
1,35,78,24
1,36,92,32
1,30,82,8
1,31,77,10
1,34,71,0
1,36,92,6
1,36,90,284
1,38,92,20
1,38,79,74
1,32,81,192
1,33,79,18
1,36,82,192
1,38,89,10
1,38,89,170
1,40,90,72
1,34,83,38
1,35,87,192
1,38,84,184
1,31,80,6
1,32,82,192
1,28,108,172
1,31,81,64
1,32,85,192
1,35,101,186
1,38,89,18
1,35,95,50
1,36,90,10
1,36,82,72
1,30,79,192
1,31,82,8
1,34,78,192
1,36,90,2
1,36,89,200
1,38,96,8
1,32,84,28
1,33,80,42
1,35,99,18
1,38,92,20
1,34,101,114
1,33,92,234
1,40,80,46
1,45,84,4
1,45,78,62
1,40,77,250
1,33,80,192
1,33,76,76
1,40,75,224
1,34,77,6
1,34,67,70
1,40,80,196
1,33,87,192
1,40,83,96
1,45,94,12
1,45,78,54
1,40,80,256
1,33,88,10
1,33,78,76
1,40,80,268
1,34,84,4
1,34,72,84
1,40,83,204
1,33,90,6
1,36,78,212
1,37,83,192
1,40,74,8
1,42,90,270
1,40,83,56
1,33,83,56
1,34,80,192
1,33,88,40
1,36,85,268
1,37,90,192
1,40,76,12
1,42,97,246
1,40,90,52
1,36,85,238
1,37,93,192
1,40,83,154
1,36,74,4
1,37,92,192
1,40,103,36
1,34,83,248
1,35,99,16
1,40,80,16
1,28,103,276
1,34,83,352
1,35,94,12
1,40,88,14
1,38,57,42
1,36,85,28
1,31,87,152
1,34,77,2
1,36,85,12
1,36,91,290
1,38,89,10
1,38,90,100
1,32,81,266
1,33,85,30
1,36,80,22
1,38,92,26
1,32,15,22
1,36,66,0
1,28,113,60
1,34,83,146
1,35,101,28
1,37,74,10
1,38,94,4
1,35,84,20
1,28,105,158
1,34,84,156
1,35,105,32
1,37,76,192
1,38,95,12
1,37,74,2
1,36,88,30
1,30,82,370
1,31,84,14
1,34,77,10
1,36,85,0
1,38,88,76
1,38,94,236
1,32,77,4
1,33,79,22
1,36,84,16
1,38,94,10
1,33,80,36
1,36,75,16
1,40,103,8
1,34,83,248
1,35,99,16
1,40,80,16
1,28,103,276
1,34,83,352
1,35,94,12
1,40,88,14
1,38,57,42
1,36,85,28
1,31,87,152
1,34,77,2
1,36,85,12
1,36,91,290
1,38,89,10
1,38,90,100
1,32,81,266
1,33,85,30
1,36,80,22
1,38,92,26
1,32,15,22
1,36,66,0
1,28,113,60
1,34,83,146
1,35,101,28
1,37,74,10
1,38,94,4
1,35,84,20
1,28,105,158
1,34,84,156
1,35,105,32
1,37,76,192
1,38,95,12
1,37,74,2
1,36,88,30
1,30,82,370
1,31,84,14
1,34,77,10
1,36,85,0
1,38,88,76
1,38,94,236
1,32,77,4
1,33,79,22
1,36,84,16
1,38,94,10
1,33,80,36
1,36,75,16
1,40,92,8
1,34,85,344
1,35,101,12
1,38,90,8
1,34,77,20
1,35,92,192
1,28,113,190
1,40,91,0
1,34,75,18
1,35,92,192
1,38,76,174
1,37,78,48
1,36,95,192
1,30,77,376
1,31,75,20
1,34,74,192
1,36,90,188
1,36,91,256
1,38,95,18
1,38,84,88
1,32,82,8
1,33,77,24
1,36,82,16
1,38,92,18
1,40,101,66
1,34,81,30
1,35,85,192
1,38,80,10
1,31,81,192
1,32,80,190
1,28,108,176
1,31,82,58
1,32,87,192
1,35,103,232
1,37,94,16
1,35,78,24
1,36,92,32
1,30,82,8
1,31,77,10
1,34,71,0
1,36,92,6
1,36,90,284
1,38,92,20
1,38,79,74
1,32,81,192
1,33,79,18
1,36,82,192
1,38,89,10
1,38,89,170
1,40,90,72
1,34,83,38
1,35,87,192
1,38,84,184
1,31,80,6
1,32,82,192
1,28,108,172
1,31,81,64
1,32,85,192
1,35,101,186
1,38,89,18
1,35,95,50
1,36,90,10
1,36,82,72
1,30,79,192
1,31,82,8
1,34,78,192
1,36,90,2
1,36,89,200
1,38,96,8
1,32,84,28
1,33,80,42
1,35,99,18
1,38,92,20
1,38,101,226
1,40,90,42
1,34,83,38
1,35,87,192
1,38,84,184
1,31,80,6
1,32,82,192
1,28,108,172
1,31,81,64
1,32,85,192
1,35,101,186
1,38,89,18
1,35,95,50
1,36,90,10
1,36,82,72
1,30,79,192
1,31,82,8
1,34,78,192
1,36,90,2
1,36,89,200
1,38,96,8
1,32,84,28
1,33,80,42
1,35,99,18
1,38,92,20
1,38,101,226
1,28,110,42
1,31,72,32
1,32,64,192
1,35,70,4
1,37,86,192
1,28,103,296
1,31,77,48
1,32,74,192
1,35,89,156
1,37,90,240
1,36,75,30
1,28,95,1698
1,40,60,1344
2,59,87,10528
2,55,99,0
2,64,87,0
2,56,75,122
2,59,85,188
2,55,101,0
2,64,82,0
2,56,78,88
2,56,85,2
2,64,77,0
2,59,87,0
2,59,83,252
2,64,82,0
2,56,71,0
2,55,99,0
2,55,103,204
2,56,104,0
2,59,95,0
2,64,87,0
2,55,110,82
2,64,84,0
2,60,83,0
2,64,79,126
2,60,79,0
2,55,99,0
2,55,113,310
2,60,83,0
2,64,84,0
2,53,115,294
2,62,91,0
2,57,91,0
2,54,90,0
2,50,81,192
2,56,97,116
2,57,91,0
2,60,76,0
2,62,72,0
2,57,101,126
2,62,88,0
2,60,84,0
2,55,95,76
2,59,81,0
2,62,76,0
2,53,78,2
2,54,55,0
2,57,66,0
2,59,94,100
2,55,105,0
2,64,89,0
2,56,80,68
2,56,60,14
2,59,83,0
2,55,96,0
2,64,81,0
2,58,99,534
2,59,99,0
2,62,80,0
2,64,80,0
2,64,85,86
2,55,105,0
2,56,82,192
2,52,89,166
2,54,108,88
2,55,96,0
2,64,80,0
2,60,79,0
2,52,91,2
2,60,83,322
2,64,84,0
2,55,118,0
2,53,125,280
2,62,92,0
2,54,92,192
2,50,101,174
2,56,97,34
2,60,79,0
2,57,90,0
2,62,70,0
2,60,84,98
2,62,91,0
2,57,99,0
2,57,79,58
2,60,74,0
2,62,69,0
2,64,88,96
2,55,113,0
2,56,83,192
2,52,92,160
2,59,105,168
2,58,104,0
2,64,83,0
2,62,80,0
2,64,67,54
2,59,79,0
2,62,75,0
2,59,101,284
2,62,78,0
2,58,97,0
2,64,74,0
2,64,82,80
2,59,95,0
2,62,77,0
2,64,80,108
2,61,79,0
2,57,96,0
2,64,77,80
2,55,96,0
2,56,88,178
2,52,91,148
2,56,90,40
2,64,77,0
2,53,89,58
2,54,98,0
2,64,72,0
2,55,89,0
2,60,74,0
2,52,92,46
2,60,83,298
2,55,115,0
2,64,87,0
2,60,91,276
2,64,92,0
2,55,123,0
2,64,83,52
2,57,85,0
2,60,85,0
2,54,97,82
2,62,88,0
2,57,89,0
2,57,92,314
2,54,104,0
2,62,89,0
2,60,79,128
2,57,73,0
2,62,78,0
2,56,94,0
2,64,83,46
2,55,113,0
2,56,80,192
2,52,94,186
2,64,78,378
2,62,80,0
2,59,99,0
2,58,95,0
2,59,103,228
2,64,78,0
2,58,97,0
2,62,83,0
2,57,113,80
2,64,90,0
2,61,93,0
2,55,99,20
2,64,76,0
2,56,85,192
2,52,94,166
2,56,102,208
2,64,82,0
2,64,92,68
2,60,84,0
2,55,115,0
2,52,101,384
2,54,95,4
2,55,92,0
2,64,87,148
2,60,80,0
2,52,101,34
2,53,127,298
2,54,95,192
2,62,90,42
2,57,88,0
2,53,105,8
2,54,93,192
2,57,87,48
2,62,83,0
2,60,83,110
2,57,89,0
2,62,77,0
2,56,99,0
2,62,78,26
2,57,80,0
2,60,80,0
2,64,88,114
2,55,108,0
2,56,79,192
2,52,91,170
2,58,98,180
2,62,81,0
2,64,77,0
2,59,103,0
2,58,92,74
2,59,95,0
2,64,68,0
2,62,71,0
2,59,101,206
2,58,98,0
2,64,75,0
2,62,80,0
2,57,99,64
2,61,83,0
2,64,83,0
2,55,96,6
2,64,84,0
2,56,83,192
2,52,92,162
2,64,80,204
2,56,98,0
2,60,84,58
2,55,110,0
2,64,89,0
2,52,94,384
2,54,95,22
2,55,90,38
2,60,94,42
2,64,90,0
2,61,57,0
2,55,108,228
2,56,91,192
2,57,90,0
2,60,87,154
2,64,85,0
2,54,99,34
2,57,74,192
2,60,80,20
2,64,82,192
2,56,94,96
2,60,89,0
2,65,91,0
2,64,77,18
2,61,71,0
2,55,91,0
2,59,75,0
2,61,79,118
2,64,78,0
2,55,87,0
2,59,79,0
2,59,44,144
2,61,48,0
2,64,68,0
2,64,60,0
2,61,69,0
2,55,40,0
2,59,64,0
2,55,60,0
2,64,79,120
2,55,79,0
2,61,77,0
2,59,75,0
2,55,89,330
2,59,87,0
2,64,84,0
2,64,81,86
2,59,82,0
2,55,87,0
2,55,92,320
2,64,89,0
