track,note,velocity,time
0,42,28,0
0,59,74,0
0,64,70,0
0,52,58,0
0,52,0,90
0,64,0,0
0,59,0,0
0,42,0,30
0,42,117,0
0,64,72,0
0,59,104,0
0,52,78,0
0,45,80,0
0,64,0,60
0,62,72,0
0,62,0,30
0,52,0,0
0,59,0,0
0,42,0,30
0,45,0,0
0,42,117,0
0,59,78,0
0,64,70,0
0,52,64,0
0,52,0,90
0,64,0,0
0,59,0,0
0,42,0,30
0,42,117,0
0,64,66,0
0,59,80,0
0,52,72,0
0,37,92,0
0,64,0,60
0,62,76,0
0,62,0,30
0,37,0,0
0,52,0,0
0,59,0,0
0,42,0,30
0,42,117,0
0,36,112,0
0,59,76,0
0,64,68,0
0,52,64,0
0,64,0,60
0,62,86,0
0,62,0,30
0,52,0,0
0,59,0,0
0,36,0,30
0,42,0,0
0,42,117,0
0,39,112,0
0,37,109,0
0,39,0,30
0,37,0,30
0,36,112,0
0,59,86,0
0,54,70,0
0,63,98,0
0,36,0,30
0,42,0,30
0,42,117,0
0,36,112,0
0,54,0,30
0,63,0,0
0,59,0,0
0,63,70,30
0,54,64,0
0,59,72,0
0,59,0,30
0,63,0,0
0,54,0,0
0,42,0,30
0,36,0,0
0,42,117,0
0,39,112,0
0,63,78,0
0,54,68,0
0,59,92,0
0,37,104,0
0,39,0,30
0,36,112,30
0,36,0,30
0,37,0,0
0,54,0,0
0,59,0,0
0,63,0,0
0,42,0,30
0,42,117,0
0,36,112,0
0,59,74,0
0,52,62,0
0,64,70,0
0,64,0,90
0,59,0,0
0,52,0,0
0,36,0,30
0,42,0,0
0,42,117,0
0,39,112,0
0,64,72,0
0,59,86,0
0,52,70,0
0,45,115,0
0,37,109,0
0,37,0,60
0,39,0,0
0,59,0,0
0,64,0,0
0,52,0,0
0,36,112,0
0,62,80,0
0,62,0,30
0,45,0,30
0,42,0,0
0,36,0,0
0,42,117,0
0,59,80,0
0,52,64,0
0,64,68,0
0,36,112,60
0,64,0,30
0,52,0,0
0,59,0,0
0,42,0,30
0,36,0,0
0,42,117,0
0,39,112,0
0,64,76,0
0,59,86,0
0,52,68,0
0,37,115,0
0,64,0,30
0,39,0,0
0,59,0,30
0,52,0,0
0,37,0,0
0,36,112,0
0,62,78,0
0,62,0,30
0,36,0,0
0,42,0,30
0,42,117,0
0,36,112,0
0,64,80,0
0,52,74,0
0,59,92,0
0,59,0,30
0,64,0,0
0,52,0,0
0,62,74,30
0,59,80,0
0,52,58,0
0,52,0,30
0,62,0,0
0,59,0,0
0,36,0,30
0,42,0,0
0,42,117,0
0,39,112,0
0,37,115,0
0,39,0,30
0,37,0,30
0,36,112,0
0,59,104,0
0,63,115,0
0,54,64,0
0,36,0,30
0,42,0,30
0,54,0,0
0,42,117,0
0,36,112,0
0,59,0,30
0,63,0,0
0,59,56,30
0,54,40,0
0,63,60,0
0,63,0,30
0,59,0,0
0,54,0,0
0,42,0,30
0,36,0,0
0,42,117,0
0,39,112,0
0,54,74,0
0,59,98,0
0,63,98,0
0,37,115,0
0,63,0,30
0,39,0,0
0,59,0,30
0,54,0,0
0,37,0,0
0,36,112,0
0,36,0,30
0,42,0,30
0,42,117,0
0,36,112,0
0,59,74,0
0,64,70,0
0,52,58,0
0,28,78,0
0,52,0,90
0,64,0,0
0,59,0,0
0,42,0,30
0,28,0,0
0,36,0,0
0,42,117,0
0,39,112,0
0,64,72,0
0,59,104,0
0,52,78,0
0,28,98,0
0,45,109,0
0,38,127,0
0,28,0,60
0,64,0,0
0,39,0,0
0,36,112,0
0,62,72,0
0,62,0,30
0,59,0,0
0,52,0,0
0,42,0,30
0,38,0,0
0,45,0,0
0,36,0,0
0,42,117,0
0,59,78,0
0,64,70,0
0,52,64,0
0,28,98,0
0,36,112,60
0,52,0,30
0,64,0,0
0,59,0,0
0,42,0,30
0,36,0,0
0,42,117,0
0,39,112,0
0,64,66,0
0,59,80,0
0,52,72,0
0,38,127,0
0,39,0,30
0,28,0,0
0,64,0,30
0,36,112,0
0,62,76,0
0,62,0,30
0,38,0,0
0,52,0,0
0,59,0,0
0,36,0,0
0,42,0,30
0,42,117,0
0,36,112,0
0,59,76,0
0,64,68,0
0,52,64,0
0,28,98,0
0,28,0,30
0,64,0,30
0,62,86,0
0,28,121,0
0,62,0,30
0,59,0,0
0,52,0,0
0,42,0,30
0,28,0,0
0,36,0,0
0,42,117,0
0,39,112,0
0,38,109,0
0,39,0,30
0,36,112,30
0,59,86,0
0,54,70,0
0,63,98,0
0,35,98,0
0,36,0,30
0,38,0,0
0,42,0,30
0,42,117,0
0,36,112,0
0,54,0,30
0,63,0,0
0,59,0,0
0,35,0,0
0,63,70,30
0,54,64,0
0,59,72,0
0,35,80,0
0,35,0,30
0,54,0,0
0,63,0,0
0,59,0,0
0,42,0,30
0,36,0,0
0,42,117,0
0,39,112,0
0,63,78,0
0,54,68,0
0,59,92,0
0,35,86,0
0,38,115,0
0,39,0,30
0,36,112,30
0,36,0,30
0,38,0,0
0,59,0,0
0,54,0,0
0,63,0,0
0,42,0,30
0,35,0,0
0,42,117,0
0,36,112,0
0,59,74,0
0,52,62,0
0,64,70,0
0,28,92,0
0,28,0,90
0,52,0,0
0,59,0,0
0,64,0,0
0,42,0,30
0,36,0,0
0,42,117,0
0,39,112,0
0,64,72,0
0,59,86,0
0,52,70,0
0,28,76,0
0,45,115,0
0,38,115,0
0,28,0,30
0,38,0,30
0,59,0,0
0,39,0,0
0,64,0,0
0,52,0,0
0,36,112,0
0,62,80,0
0,62,0,30
0,45,0,30
0,42,0,0
0,36,0,0
0,42,117,0
0,59,80,0
0,52,64,0
0,64,68,0
0,28,78,0
0,36,112,60
0,64,0,30
0,52,0,0
0,59,0,0
0,42,0,30
0,36,0,0
0,42,117,0
0,39,112,0
0,64,76,0
0,59,86,0
0,52,68,0
0,38,115,0
0,64,0,30
0,39,0,0
0,28,0,30
0,59,0,0
0,52,0,0
0,38,0,0
0,36,112,0
0,62,78,0
0,62,0,30
0,36,0,0
0,42,0,30
0,42,117,0
0,36,112,0
0,64,80,0
0,52,74,0
0,59,92,0
0,28,78,0
0,28,0,30
0,52,0,0
0,64,0,0
0,59,0,0
0,62,74,30
0,59,80,0
0,52,58,0
0,28,92,0
0,52,0,30
0,59,0,0
0,62,0,0
0,36,0,30
0,42,0,0
0,42,118,0
0,39,112,0
0,38,109,0
0,39,0,30
0,28,0,0
0,36,112,30
0,59,104,0
0,63,115,0
0,54,64,0
0,35,104,0
0,36,0,30
0,38,0,0
0,42,0,30
0,54,0,0
0,42,118,0
0,36,112,0
0,59,0,30
0,35,0,0
0,63,0,0
0,59,56,30
0,54,40,0
0,63,60,0
0,35,58,0
0,35,0,30
0,54,0,0
0,59,0,0
0,63,0,0
0,36,0,30
0,42,0,0
0,42,118,0
0,39,112,0
0,54,74,0
0,59,98,0
0,63,98,0
0,35,86,0
0,38,109,0
0,63,0,30
0,39,0,0
0,54,0,30
0,59,0,0
0,38,0,0
0,36,112,0
0,36,0,30
0,35,0,0
0,62,92,24
0,42,0,6
0,42,118,0
0,36,112,0
0,59,74,0
0,64,70,0
0,52,58,0
0,28,92,0
0,64,78,4
0,62,0,3
0,64,0,83
0,59,0,0
0,52,0,0
0,64,0,4
0,64,78,21
0,28,0,5
0,42,0,0
0,36,0,0
0,42,118,0
0,39,112,0
0,64,72,0
0,59,104,0
0,52,78,0
0,45,115,0
0,38,115,0
0,64,0,60
0,39,0,0
0,36,112,0
0,62,72,0
0,28,78,0
0,64,0,25
0,38,0,5
0,28,0,0
0,62,0,0
0,59,0,0
0,52,0,0
0,64,74,28
0,42,0,2
0,45,0,0
0,36,0,0
0,42,118,0
0,59,78,0
0,64,70,0
0,52,64,0
0,28,92,0
0,64,0,49
0,62,70,4
0,36,112,7
0,52,0,30
0,64,0,0
0,59,0,0
0,62,0,16
0,64,66,9
0,42,0,5
0,36,0,0
0,28,0,0
0,42,118,0
0,39,112,0
0,64,66,0
0,59,80,0
0,52,72,0
0,38,121,0
0,39,0,30
0,64,0,17
0,62,68,1
0,64,0,12
0,38,0,0
0,36,112,0
0,62,76,0
0,28,78,0
0,28,0,30
0,36,0,0
0,59,0,0
0,52,0,0
0,62,0,0
0,62,0,12
0,66,76,9
0,42,0,9
0,42,118,0
0,36,112,0
0,59,76,0
0,64,68,0
0,52,64,0
0,28,78,0
0,66,0,20
0,28,0,10
0,62,66,27
0,64,0,3
0,62,86,0
0,28,98,0
0,62,0,30
0,59,0,0
0,52,0,0
0,36,0,30
0,42,0,0
0,42,118,0
0,39,112,0
0,38,115,0
0,62,0,14
0,39,0,16
0,28,0,0
0,59,92,24
0,38,0,6
0,36,112,0
0,59,86,0
0,54,70,0
0,63,98,0
0,35,92,0
0,36,0,30
0,42,0,30
0,42,118,0
0,36,112,0
0,63,0,30
0,54,0,0
0,59,0,0
0,35,0,0
0,59,0,9
0,59,76,19
0,63,70,2
0,54,64,0
0,59,72,0
0,35,78,0
0,59,0,28
0,59,0,2
0,54,0,0
0,63,0,0
0,35,0,0
0,42,0,30
0,36,0,0
0,42,118,0
0,39,112,0
0,63,78,0
0,54,68,0
0,59,92,0
0,35,104,0
0,38,115,0
0,62,98,0
0,39,0,30
0,59,66,26
0,38,0,4
0,36,112,0
0,62,0,1
0,59,0,12
0,35,0,17
0,59,0,0
0,54,0,0
0,36,0,0
0,63,0,0
0,64,78,18
0,42,0,12
0,42,118,0
0,36,112,0
0,59,74,0
0,52,62,0
0,64,70,0
0,28,92,0
0,64,0,84
0,52,0,6
0,59,0,0
0,64,0,0
0,64,70,24
0,42,0,6
0,36,0,0
0,28,0,0
0,42,118,0
0,39,112,0
0,64,72,0
0,59,86,0
0,52,70,0
0,45,104,0
0,38,121,0
0,64,0,53
0,62,44,2
0,38,0,5
0,59,0,0
0,64,0,0
0,39,0,0
0,52,0,0
0,36,112,0
0,62,80,0
0,28,98,0
0,28,0,30
0,62,0,0
0,62,0,12
0,64,78,10
0,45,0,8
0,36,0,0
0,42,0,0
0,42,118,0
0,59,80,0
0,52,64,0
0,64,68,0
0,28,98,0
0,64,0,41
0,62,66,16
0,36,112,3
0,64,0,30
0,52,0,0
0,59,0,0
0,62,0,16
0,64,52,8
0,42,0,6
0,36,0,0
0,28,0,0
0,42,118,0
0,39,112,0
0,64,76,0
0,59,86,0
0,52,68,0
0,38,115,0
0,64,0,30
0,39,0,0
0,64,0,4
0,62,41,16
0,59,0,10
0,38,0,0
0,52,0,0
0,36,112,0
0,62,78,0
0,28,92,0
0,28,0,30
0,36,0,0
0,62,0,0
0,62,0,19
0,42,0,11
0,42,118,0
0,36,112,0
0,64,80,0
0,52,74,0
0,59,92,0
0,28,98,0
0,28,0,30
0,52,0,0
0,64,0,0
0,59,0,0
0,62,74,30
0,59,80,0
0,52,58,0
0,28,109,0
0,62,80,0
0,52,0,30
0,59,0,0
0,62,0,0
0,42,0,30
0,36,0,0
0,28,0,0
0,42,118,0
0,39,112,0
0,38,115,0
0,62,0,18
0,39,0,12
0,36,112,30
0,59,104,0
0,63,115,0
0,54,64,0
0,35,98,0
0,59,92,2
0,36,0,28
0,38,0,0
0,42,0,30
0,54,0,0
0,42,118,0
0,36,112,0
0,63,0,30
0,59,0,0
0,59,0,9
0,59,56,21
0,54,40,0
0,63,60,0
0,59,80,0
0,63,0,30
0,59,0,0
0,54,0,0
0,59,0,9
0,62,78,18
0,36,0,3
0,42,0,0
0,42,118,0
0,39,112,0
0,54,74,0
0,59,98,0
0,63,98,0
0,38,114,0
0,63,0,30
0,35,0,0
0,39,0,0
0,59,70,15
0,62,0,3
0,54,0,12
0,59,0,0
0,36,112,0
0,59,0,25
0,38,0,5
0,36,0,0
0,64,76,19
0,42,0,11
0,42,118,0
0,36,112,0
0,59,74,0
0,64,70,0
0,52,58,0
0,28,98,0
0,64,0,87
0,64,0,3
0,59,0,0
0,52,0,0
0,64,72,26
0,42,0,4
0,36,0,0
0,28,0,0
0,42,118,0
0,39,112,0
0,64,72,0
0,59,104,0
0,52,78,0
0,45,104,0
0,38,114,0
0,62,47,48
0,64,0,2
0,38,0,10
0,64,0,0
0,39,0,0
0,36,112,0
0,62,72,0
0,28,98,0
0,28,0,30
0,62,0,0
0,52,0,0
0,59,0,0
0,62,0,12
0,64,70,9
0,45,0,9
0,42,0,0
0,36,0,0
0,42,118,0
0,59,78,0
0,64,70,0
0,52,64,0
0,28,98,0
0,64,0,49
0,62,45,3
0,36,112,8
0,52,0,30
0,64,0,0
0,59,0,0
0,62,0,14
0,64,68,8
0,42,0,8
0,36,0,0
0,28,0,0
0,42,118,0
0,39,112,0
0,64,66,0
0,59,80,0
0,52,72,0
0,38,112,0
0,39,0,30
0,64,0,12
0,62,44,6
0,64,0,12
0,38,0,0
0,36,112,0
0,62,76,0
0,28,70,0
0,28,0,30
0,36,0,0
0,59,0,0
0,52,0,0
0,62,0,0
0,62,0,16
0,42,0,14
0,42,118,0
0,36,112,0
0,59,76,0
0,64,68,0
0,52,64,0
0,28,78,0
0,28,0,30
0,62,72,29
0,64,0,1
0,62,86,0
0,28,98,0
0,62,0,30
0,59,0,0
0,52,0,0
0,28,0,30
0,42,0,0
0,36,0,0
0,42,118,0
0,39,112,0
0,38,113,0
0,62,0,8
0,39,0,22
0,36,112,30
0,59,86,0
0,54,70,0
0,63,98,0
0,35,98,0
0,59,92,0
0,36,0,30
0,38,0,0
0,42,0,30
0,42,118,0
0,36,112,0
0,35,0,30
0,59,0,0
0,54,0,0
0,63,0,0
0,59,0,6
0,59,76,18
0,63,70,6
0,54,64,0
0,59,72,0
0,35,76,0
0,35,0,30
0,54,0,0
0,63,0,0
0,59,0,0
0,59,0,13
0,64,68,10
0,36,0,7
0,42,0,0
0,42,118,0
0,39,112,0
0,63,78,0
0,54,68,0
0,59,92,0
0,35,86,0
0,38,117,0
0,39,0,30
0,64,0,11
0,62,54,9
0,38,0,10
0,36,112,0
0,62,0,6
0,59,0,24
0,54,0,0
0,63,0,0
0,36,0,0
0,64,74,16
0,35,0,14
0,42,0,0
0,42,118,0
0,36,112,0
0,59,74,0
0,52,62,0
0,64,70,0
0,28,92,0
0,64,0,83
0,52,0,7
0,59,0,0
0,64,0,0
0,64,70,25
0,42,0,5
0,36,0,0
0,28,0,0
0,42,118,0
0,39,112,0
0,64,72,0
0,59,86,0
0,52,70,0
0,45,109,0
0,38,118,0
0,62,41,46
0,64,0,1
0,38,0,13
0,59,0,0
0,64,0,0
0,39,0,0
0,52,0,0
0,36,111,0
0,62,80,0
0,28,62,0
0,28,0,30
0,62,0,0
0,62,0,17
0,64,78,1
0,45,0,12
0,36,0,0
0,42,0,0
0,42,117,0
0,59,80,0
0,52,64,0
0,64,68,0
0,28,104,0
0,64,0,45
0,62,70,9
0,36,111,6
0,64,0,30
0,52,0,0
0,59,0,0
0,62,0,13
0,64,31,14
0,42,0,3
0,36,0,0
0,28,0,0
0,42,117,0
0,39,111,0
0,64,76,0
0,59,86,0
0,52,68,0
0,38,115,0
0,64,0,30
0,39,0,0
0,62,68,1
0,64,0,10
0,59,0,19
0,52,0,0
0,36,111,0
0,62,78,0
0,28,92,0
0,62,0,11
0,38,0,19
0,36,0,0
0,62,0,0
0,28,0,0
0,42,0,30
0,42,117,0
0,36,111,0
0,64,80,0
0,52,74,0
0,59,92,0
0,28,76,0
0,68,70,3
0,28,0,27
0,52,0,0
0,64,0,0
0,59,0,0
0,68,0,5
0,62,74,25
0,59,80,0
0,52,58,0
0,28,115,0
0,69,92,3
0,52,0,27
0,59,0,0
0,62,0,0
0,42,0,30
0,36,0,0
0,42,117,0
0,39,111,0
0,38,127,0
0,69,0,12
0,39,0,18
0,28,0,0
0,36,111,30
0,59,104,0
0,63,115,0
0,54,64,0
0,35,92,0
0,68,104,1
0,36,0,29
0,38,0,0
0,42,0,30
0,54,0,0
0,42,117,0
0,36,111,0
0,63,0,30
0,35,0,0
