track,note,velocity,time
0,55,67,553
0,67,102,1
0,71,110,1
0,59,63,1
0,62,64,0
0,45,69,95
0,67,0,0
0,71,0,1
0,45,0,3
0,71,102,0
0,74,110,0
0,45,45,44
0,45,0,4
0,71,0,25
0,74,0,0
0,45,82,19
0,71,92,2
0,74,100,0
0,45,0,2
0,71,0,89
0,74,0,0
0,41,63,3
0,67,95,1
0,71,103,0
0,41,0,3
0,55,0,76
0,59,0,3
0,62,0,0
0,31,95,11
0,35,111,2
0,42,61,0
0,49,61,0
0,55,63,0
0,59,76,0
0,67,0,0
0,71,0,0
0,55,70,1
0,76,100,0
0,64,64,1
0,72,92,0
0,35,0,2
0,42,0,0
0,49,0,0
0,60,63,0
0,62,59,1
0,55,0,31
0,59,0,21
0,62,0,0
0,42,49,39
0,55,83,0
0,59,82,0
0,42,0,4
0,62,87,1
0,67,90,5
0,55,0,8
0,55,57,30
0,59,0,9
0,55,0,3
0,62,0,3
0,67,0,13
0,31,0,15
0,55,74,4
0,40,87,1
0,42,73,0
0,59,75,0
0,40,0,4
0,42,0,0
0,62,67,1
0,55,0,25
0,62,0,19
0,59,0,12
0,64,0,24
0,55,91,7
0,31,89,2
0,35,91,2
0,42,49,0
0,59,82,0
0,35,0,4
0,42,0,0
0,59,63,1
0,62,87,0
0,76,0,0
0,72,0,1
0,62,63,2
0,71,85,0
0,74,93,1
0,67,92,1
0,60,0,1
0,55,0,22
0,31,0,10
0,59,0,13
0,62,0,11
0,67,0,17
0,31,91,10
0,55,63,1
0,35,111,1
0,42,61,0
0,59,64,0
0,35,0,4
0,42,0,0
0,62,62,1
0,71,0,1
0,74,0,1
0,71,85,2
0,74,93,2
0,55,0,25
0,62,0,12
0,59,0,10
0,42,49,38
0,55,88,0
0,59,73,0
0,42,0,4
0,62,81,1
0,67,90,5
0,55,0,27
0,59,0,20
0,62,0,7
0,31,0,16
0,67,0,0
0,55,66,13
0,35,94,1
0,40,87,2
0,42,73,0
0,59,66,0
0,40,0,4
0,42,0,0
0,62,64,1
0,55,0,29
0,62,0,10
0,59,0,18
0,35,0,18
0,38,89,14
0,55,90,0
0,42,49,2
0,59,71,0
0,42,0,4
0,62,80,1
0,67,92,5
0,55,0,25
0,59,0,23
0,62,0,4
0,67,0,10
0,38,0,8
0,55,79,12
0,31,95,2
0,35,111,2
0,42,61,0
0,59,76,0
0,35,0,4
0,42,0,0
0,62,59,1
0,55,0,28
0,59,0,24
0,62,0,0
0,42,49,39
0,55,88,0
0,59,82,0
0,42,0,4
0,62,87,1
0,67,90,5
0,55,0,8
0,55,61,30
0,59,0,9
0,55,0,3
0,62,0,3
0,67,0,13
0,31,0,15
0,55,71,1
0,40,87,4
0,42,73,0
0,59,75,0
0,40,0,4
0,42,0,0
0,62,67,1
0,55,0,27
0,62,0,17
0,59,0,12
0,55,88,31
0,38,89,2
0,35,91,2
0,42,49,0
0,59,82,0
0,35,0,4
0,42,0,0
0,62,87,1
0,67,92,5
0,55,0,23
0,38,0,10
0,59,0,13
0,62,0,11
0,71,0,16
0,67,0,1
0,74,0,1
0,31,91,9
0,55,72,0
0,35,111,2
0,42,61,0
0,59,64,0
0,35,0,4
0,42,0,0
0,62,62,1
0,74,107,3
0,71,99,1
0,55,0,20
0,62,0,19
0,59,0,10
0,55,87,37
0,42,49,1
0,59,73,0
0,42,0,4
0,62,81,1
0,67,90,5
0,55,0,26
0,74,0,12
0,71,0,1
0,69,81,2
0,72,89,0
0,59,0,6
0,62,0,7
0,31,0,16
0,67,0,0
0,31,94,14
0,40,87,2
0,42,73,0
0,55,67,0
0,59,66,0
0,40,0,4
0,42,0,0
0,62,64,1
0,55,0,32
0,62,0,7
0,59,0,18
0,31,0,18
0,69,0,0
0,72,0,0
0,67,99,5
0,71,107,0
0,35,89,9
0,55,87,0
0,42,49,2
0,59,71,0
0,42,0,4
0,62,80,1
0,67,92,5
0,55,0,25
0,59,0,9
0,62,0,2
0,55,0,5
0,59,0,7
0,62,0,4
0,67,0,10
0,35,0,8
0,38,95,14
0,35,111,2
0,42,61,0
0,57,76,0
0,50,70,1
0,35,0,3
0,42,0,0
0,57,55,1
0,62,59,0
0,54,68,3
0,67,0,2
0,71,0,0
0,66,78,1
0,69,86,2
0,50,0,23
0,57,0,21
0,62,0,0
0,42,49,39
0,50,83,0
0,57,82,0
0,42,0,4
0,62,87,1
0,66,90,5
0,50,0,8
0,50,57,30
0,57,0,9
0,50,0,3
0,62,0,3
0,66,0,13
0,38,0,15
0,50,74,4
0,40,87,1
0,42,73,0
0,57,75,0
0,40,0,4
0,42,0,0
0,62,67,1
0,50,0,25
0,62,0,19
0,57,0,12
0,50,91,31
0,38,89,2
0,35,91,2
0,42,49,0
0,57,82,0
0,35,0,4
0,42,0,0
0,62,87,1
0,66,92,5
0,50,0,23
0,38,0,10
0,57,0,13
0,62,0,11
0,66,0,17
0,38,91,10
0,50,63,1
0,35,111,1
0,42,61,0
0,57,64,0
0,35,0,4
0,42,0,0
0,62,62,1
0,50,0,31
0,62,0,12
0,57,0,10
0,42,49,38
0,50,88,0
0,57,73,0
0,42,0,4
0,62,81,1
0,66,90,5
0,50,0,27
0,57,0,20
0,62,0,7
0,38,0,16
0,66,0,0
0,50,66,13
0,42,94,1
0,40,87,2
0,42,73,0
0,57,66,0
0,40,0,4
0,42,0,0
0,62,64,1
0,50,0,29
0,62,0,10
0,57,0,18
0,42,0,18
0,45,89,14
0,50,90,0
0,42,49,2
0,57,71,0
0,42,0,4
0,62,80,1
0,66,92,5
0,57,0,22
0,50,0,3
0,57,0,23
0,54,0,4
0,62,0,0
0,66,0,10
0,45,0,8
0,50,79,12
0,57,67,0
0,62,59,0
0,54,65,1
0,38,95,1
0,35,111,2
0,42,61,0
0,57,76,0
0,35,0,4
0,42,0,0
0,62,59,1
0,50,0,28
0,57,0,24
0,62,0,0
0,42,49,39
0,50,88,0
0,57,82,0
0,42,0,4
0,62,87,1
0,66,90,5
0,50,0,8
0,50,61,30
0,57,0,9
0,50,0,3
0,62,0,3
0,66,0,13
0,38,0,15
0,50,71,1
0,40,87,4
0,42,73,0
0,57,75,0
0,40,0,4
0,42,0,0
0,62,67,1
0,50,0,27
0,62,0,17
0,57,0,12
0,50,88,31
0,38,89,2
0,35,91,2
0,42,49,0
0,57,82,0
0,35,0,4
0,42,0,0
0,62,87,1
0,66,92,5
0,50,0,23
0,38,0,10
0,57,0,13
0,66,0,3
0,69,0,2
0,62,0,6
0,66,0,17
0,38,91,10
0,50,72,0
0,35,111,2
0,42,61,0
0,57,64,0
0,69,96,2
0,66,88,1
0,35,0,1
0,42,0,0
0,62,62,1
0,50,0,24
0,62,0,19
0,57,0,10
0,50,87,37
0,42,49,1
0,57,73,0
0,69,0,2
0,66,0,1
0,42,0,1
0,62,81,1
0,69,88,0
0,72,96,1
0,66,90,4
0,50,0,26
0,57,0,21
0,62,0,7
0,38,0,16
0,66,0,0
0,69,0,6
0,72,0,1
0,30,94,7
0,40,87,2
0,42,73,0
0,50,67,0
0,57,66,0
0,40,0,4
0,42,0,0
0,62,64,1
0,72,110,1
0,69,102,2
0,50,0,29
0,62,0,7
0,57,0,18
0,30,0,18
0,33,89,14
0,50,87,0
0,46,49,2
0,57,71,0
0,57,0,2
0,46,0,2
0,62,80,1
0,72,0,4
0,66,92,1
0,69,0,1
0,66,75,2
0,69,82,1
0,50,0,21
0,54,0,8
0,62,0,7
0,57,0,8
0,62,0,4
0,66,0,10
0,33,0,8
0,38,95,14
0,35,111,2
0,42,61,0
0,49,61,0
0,57,76,0
0,50,70,1
0,35,0,3
0,42,0,0
0,49,0,0
0,54,67,1
0,59,66,0
0,62,59,0
0,62,62,1
0,66,0,5
0,69,0,1
0,71,97,2
0,74,99,1
0,50,0,21
0,57,0,21
0,62,0,0
0,42,49,39
0,50,83,0
0,57,82,0
0,42,0,4
0,62,87,1
0,66,90,5
0,50,0,8
0,50,57,30
0,57,0,9
0,50,0,3
0,62,0,3
0,66,0,13
0,38,0,15
0,50,74,4
0,40,87,1
0,42,73,0
0,57,75,0
0,40,0,4
0,42,0,0
0,62,67,1
0,50,0,25
0,62,0,19
0,57,0,12
0,50,91,31
0,38,89,2
0,35,91,2
0,42,49,0
0,57,82,0
0,69,71,1
0,72,79,1
0,35,0,2
0,42,0,0
0,62,87,1
0,71,0,4
0,66,92,1
0,74,0,0
0,50,0,23
0,38,0,10
0,57,0,13
0,62,0,11
0,62,0,2
0,59,0,3
0,66,0,12
0,69,0,6
0,72,0,1
0,38,91,3
0,50,63,1
0,57,63,0
0,60,63,0
0,35,111,1
0,42,61,0
0,57,64,0
0,35,0,4
0,42,0,0
0,62,62,1
0,69,95,4
0,72,103,1
0,50,0,26
0,62,0,12
0,57,0,10
0,42,49,38
0,50,88,0
0,57,73,0
0,42,0,4
0,62,81,1
0,66,90,5
0,50,0,27
0,57,0,20
0,62,0,7
0,38,0,16
0,66,0,0
0,50,66,13
0,42,94,1
0,40,87,2
0,42,73,0
0,57,66,0
0,40,0,4
0,42,0,0
0,62,64,1
0,50,0,29
0,62,0,10
0,57,0,18
0,42,0,18
0,45,89,14
0,50,90,0
0,42,49,2
0,57,71,0
0,42,0,4
0,62,80,1
0,66,92,5
0,50,0,25
0,57,0,23
0,62,0,4
0,66,0,10
0,45,0,8
0,50,79,12
0,38,95,2
0,50,64,1
0,35,111,1
0,42,61,0
0,57,76,0
0,35,0,4
0,42,0,0
0,62,59,1
0,50,0,28
0,57,0,24
0,62,0,0
0,42,49,39
0,50,88,0
0,57,82,0
0,42,0,4
0,62,87,1
0,66,90,5
0,50,0,8
0,50,61,30
0,57,0,9
0,50,0,3
0,62,0,3
0,66,0,13
0,38,0,15
0,50,71,1
0,40,87,4
0,42,73,0
0,57,75,0
0,40,0,4
0,42,0,0
0,62,67,1
0,50,0,27
0,62,0,17
0,57,0,12
0,50,88,31
0,38,89,2
0,35,91,2
0,42,49,0
0,57,82,0
0,35,0,4
0,42,0,0
0,62,87,1
0,66,92,5
0,50,0,23
0,38,0,10
0,57,0,13
0,60,0,3
0,62,0,8
0,69,0,6
0,72,0,1
0,57,0,4
0,54,0,2
0,66,0,4
0,72,89,9
0,38,91,1
0,50,72,0
0,64,97,1
0,35,111,1
0,42,61,0
0,57,64,0
0,54,48,1
0,57,66,0
0,60,63,1
0,35,0,2
0,42,0,0
0,62,62,1
0,50,0,24
0,62,0,19
0,57,0,10
0,50,87,37
0,42,49,1
0,57,73,0
0,42,0,4
0,62,81,1
0,66,90,5
0,50,0,26
0,72,0,11
0,64,0,2
0,62,111,2
0,71,103,1
0,57,0,5
0,62,0,7
0,38,0,16
0,66,0,0
0,33,94,14
0,40,87,2
0,42,73,0
0,50,67,0
0,57,66,0
0,40,0,4
0,42,0,0
0,62,64,1
0,50,0,32
0,62,0,7
0,57,0,18
0,62,0,7
0,71,0,1
0,60,101,2
0,69,93,1
0,33,0,7
0,38,89,14
0,50,87,0
0,42,49,2
0,57,71,0
0,42,0,4
0,62,80,1
0,66,92,5
0,50,0,25
0,54,0,14
0,57,0,9
0,60,0,2
0,62,0,2
0,66,0,10
0,50,0,3
0,38,0,5
0,31,95,14
0,35,111,2
0,42,61,0
0,49,61,0
0,59,66,0
0,55,70,1
0,35,0,3
0,42,0,0
0,49,0,0
0,62,49,1
0,74,67,1
0,55,66,4
0,59,67,0
0,57,0,2
0,43,74,1
0,60,0,0
0,69,0,1
0,59,101,1
0,67,93,2
0,55,0,19
0,59,0,31
0,62,0,0
0,42,49,29
0,55,83,0
0,59,72,0
0,42,0,4
0,62,77,1
0,67,80,5
0,50,62,1
0,55,0,7
0,55,57,30
0,55,0,12
0,59,0,7
0,62,0,6
0,67,0,13
0,31,0,5
0,55,74,4
0,42,73,1
0,54,79,0
0,59,65,0
0,42,0,4
0,54,0,0
0,62,57,1
0,55,83,6
0,55,0,19
0,62,0,29
0,59,0,12
0,55,91,21
0,31,89,2
0,35,91,2
0,42,49,0
0,35,0,4
0,42,0,0
0,62,77,1
0,67,82,5
0,59,71,5
0,55,0,18
0,31,0,10
0,62,0,34
0,31,95,17
0,67,0,0
0,55,63,1
0,35,111,1
0,42,61,0
0,35,0,4
0,42,0,0
0,62,52,1
0,55,0,5
0,55,81,3
0,55,0,23
0,59,0,1
0,62,0,21
0,42,49,38
0,55,88,0
0,42,0,4
0,62,71,1
0,67,80,5
0,59,81,8
0,55,0,19
0,62,0,37
0,31,0,6
0,67,0,10
0,55,66,3
0,38,95,1
0,37,93,2
0,42,73,0
0,37,0,4
0,42,0,0
0,62,54,1
0,55,0,4
0,55,74,3
0,55,0,22
0,59,0,2
0,62,0,18
0,55,90,40
0,42,49,2
0,42,0,4
0,62,70,1
0,67,82,5
0,59,76,1
0,55,0,14
0,55,0,10
0,43,0,22
0,62,0,15
0,38,0,8
0,67,0,2
0,55,79,10
0,59,0,1
0,31,95,1
0,35,111,2
0,42,61,0
0,59,66,0
0,35,0,4
0,42,0,0
0,62,49,1
0,43,80,7
0,50,0,9
0,55,0,12
0,59,0,34
0,62,0,0
0,42,49,29
0,54,66,0
0,55,88,0
0,59,72,0
0,42,0,4
0,54,0,0
0,62,77,1
0,67,80,5
0,50,73,5
0,55,0,3
0,54,35,30
0,55,61,0
0,54,0,4
0,55,0,8
0,59,0,7
0,62,0,6
0,67,0,13
0,31,0,5
0,55,71,1
0,42,73,4
0,54,79,0
0,59,65,0
0,42,0,4
0,54,0,0
0,62,57,1
0,55,79,11
0,55,0,16
0,59,0,23
0,62,0,4
0,55,88,33
0,55,0,1
0,31,89,1
0,35,91,2
0,42,49,0
0,35,0,4
0,42,0,0
0,62,77,1
0,67,82,5
0,59,67,6
0,55,0,17
0,31,0,10
0,62,0,44
0,31,95,7
0,55,72,0
0,67,0,0
0,35,111,2
0,42,61,0
0,35,0,4
0,42,0,0
0,62,75,11
0,55,0,14
0,59,0,39
0,55,85,27
0,42,49,1
0,45,53,0
0,42,0,4
0,45,0,0
0,67,72,4
0,59,74,13
0,55,0,15
0,31,0,44
0,38,95,14
0,37,93,2
0,42,73,0
0,45,59,0
0,55,74,0
0,62,0,2
0,37,0,2
0,42,0,0
0,45,0,0
0,62,49,1
0,55,66,9
0,55,0,23
0,67,0,18
0,59,0,2
0,62,0,8
0,62,93,28
0,55,83,1
0,41,59,2
0,42,49,0
0,41,0,4
0,42,0,0
0,62,56,1
0,67,68,5
0,59,74,6
0,59,0,5
0,67,0,2
0,55,0,12
0,74,0,21
0,55,0,4
0,59,0,0
0,50,0,18
0,38,0,2
0,43,0,0
0,62,0,4
0,55,0,5
0,67,0,0
0,31,93,5
0,62,0,0
0,59,0,1
0,35,109,1
0,42,59,0
0,49,59,0
0,59,69,0
0,59,64,0
0,62,69,0
0,55,58,1
0,71,105,0
0,59,0,1
0,71,74,1
0,74,77,0
0,35,0,1
0,42,0,0
0,49,0,0
0,62,47,1
0,62,63,1
0,55,62,4
0,59,63,0
0,43,72,3
0,55,0,23
0,62,0,31
0,42,47,29
0,55,71,0
0,59,65,0
0,42,0,4
0,62,70,1
0,67,73,5
0,50,60,1
0,55,0,7
0,55,45,30
0,55,0,12
0,71,0,2
0,59,0,5
0,62,0,6
0,67,0,13
0,31,0,5
0,55,62,4
0,42,71,1
0,54,77,0
0,59,63,0
0,71,87,1
0,42,0,3
0,54,0,0
0,62,55,1
0,55,81,6
0,55,0,19
0,71,0,24
0,62,0,5
0,59,0,12
0,55,79,21
0,71,96,1
0,31,87,1
0,35,89,2
0,42,47,0
0,35,0,4
0,42,0,0
0,62,75,1
0,67,80,5
0,59,69,5
0,55,0,18
0,31,0,10
0,71,0,17
0,62,0,17
0,31,93,17
0,67,0,0
0,55,51,1
0,35,109,1
0,42,59,0
0,71,101,0
0,35,0,4
0,42,0,0
0,62,73,1
0,55,0,5
0,55,79,3
0,55,0,23
0,59,0,1
0,42,47,59
0,55,76,0
0,42,0,4
