track,note,velocity,time
1,48,127,1536
1,51,127,560
1,52,127,23
1,55,127,64
1,48,127,375
1,51,127,560
1,52,127,23
1,55,127,64
1,48,127,375
1,51,127,560
1,52,127,23
1,55,127,64
1,48,127,375
1,51,127,560
1,52,127,23
1,55,127,64
1,48,127,375
1,51,127,560
1,52,127,23
1,55,127,64
1,48,127,375
1,51,127,560
1,52,127,23
1,55,127,64
1,48,127,375
1,84,127,0
1,79,127,16
1,84,127,48
1,79,127,39
1,84,127,48
1,79,127,42
1,84,127,48
1,79,127,39
1,84,127,48
1,51,127,4
1,79,127,32
1,84,127,0
1,52,127,13
1,79,127,0
1,76,127,48
1,82,127,0
1,55,127,16
1,72,127,74
1,81,127,0
1,48,127,240
1,76,127,0
1,79,127,0
1,70,127,16
1,76,127,0
1,79,127,0
1,70,127,29
1,76,127,0
1,79,127,0
1,70,127,26
1,76,127,48
1,79,127,0
1,70,127,16
1,76,127,48
1,79,127,0
1,51,127,7
1,70,127,23
1,76,127,7
1,79,127,0
1,52,127,23
1,70,127,0
1,79,127,23
1,76,127,36
1,70,127,29
1,76,116,0
1,79,127,0
1,55,127,4
1,70,127,32
1,76,127,48
1,79,127,0
1,48,127,375
1,51,127,560
1,52,127,23
1,55,127,64
1,41,127,375
1,44,127,487
1,45,127,32
1,48,127,42
1,48,127,349
1,51,127,560
1,52,127,23
1,55,127,64
1,48,127,375
1,51,127,560
1,52,127,23
1,55,127,64
1,41,127,375
1,44,127,487
1,45,127,32
1,48,127,42
1,41,127,349
1,44,127,487
1,45,127,32
1,48,127,42
1,48,127,349
1,51,127,560
1,52,127,23
1,55,127,64
1,48,127,375
1,51,127,560
1,52,127,23
1,55,127,64
1,43,127,375
1,46,127,477
1,47,127,128
1,50,127,48
1,41,127,292
1,44,127,487
1,45,127,32
1,48,127,42
1,48,127,349
1,51,127,560
1,52,127,23
1,55,127,64
1,48,127,375
1,82,127,0
1,79,127,48
1,76,127,4
1,82,127,128
1,79,127,0
1,79,127,0
1,76,127,0
1,51,127,0
1,76,127,0
1,72,127,0
1,52,127,23
1,79,127,0
1,76,127,0
1,76,127,0
1,72,127,0
1,55,127,0
1,72,127,0
1,70,127,0
1,79,127,103
1,75,127,0
1,74,127,23
1,72,127,122
1,84,127,3348
1,76,127,0
1,81,127,0
1,75,127,0
1,79,127,0
1,84,127,36
1,79,127,0
1,81,127,0
1,76,127,0
1,81,127,64
1,79,127,0
1,84,127,0
1,76,127,0
1,81,127,71
1,79,127,0
1,84,127,0
1,76,127,0
1,84,127,74
1,79,127,0
1,81,127,0
1,76,127,0
1,84,127,74
1,79,127,0
1,81,127,0
1,76,127,0
1,84,127,71
1,79,127,0
1,76,127,0
1,84,127,84
1,79,127,0
1,81,127,0
1,76,127,0
1,84,127,80
1,79,127,0
1,81,127,0
1,76,127,0
1,81,127,74
1,79,127,0
1,84,127,0
1,76,127,0
1,84,127,71
1,79,127,0
1,81,127,0
1,76,127,0
1,84,127,74
1,79,127,0
1,81,127,0
1,76,127,0
1,84,127,74
1,79,127,0
1,81,127,0
1,76,127,0
1,84,127,74
1,79,127,0
1,81,127,0
1,76,127,0
1,84,127,74
1,79,127,0
1,81,127,0
1,76,127,0
1,84,127,77
1,79,127,0
1,81,127,0
1,76,127,0
1,75,127,45
1,79,127,55
1,74,127,0
1,72,127,23
1,84,127,3610
1,75,127,0
1,78,127,0
1,79,127,68
1,76,127,0
1,79,127,144
1,76,127,0
1,84,127,0
1,79,127,61
1,76,127,0
1,84,127,0
1,84,127,160
1,79,127,0
1,76,127,0
1,79,127,64
1,76,127,0
1,84,127,0
1,76,127,138
1,79,127,0
1,84,127,0
1,75,127,7
1,76,127,55
1,77,127,16
1,78,127,45
1,79,127,58
1,77,127,128
1,76,127,61
1,72,127,20
1,74,127,52
1,72,127,48
1,65,127,231
1,74,127,0
1,71,127,0
1,71,127,560
1,74,127,0
1,65,127,0
1,63,127,477
1,72,127,0
1,69,127,0
1,69,127,548
1,72,127,0
1,63,127,0
1,79,127,352
1,60,127,0
1,71,127,0
1,64,127,0
1,75,127,0
1,67,127,0
1,72,127,52
1,76,127,0
1,79,127,0
1,76,127,48
1,72,127,0
1,79,127,0
1,72,127,61
1,76,127,0
1,79,127,0
1,79,127,61
1,72,127,0
1,76,127,0
1,72,127,74
1,76,127,0
1,79,127,0
1,79,127,61
1,71,127,0
1,75,127,0
1,72,127,68
1,76,127,0
1,79,127,0
1,72,127,64
1,76,127,0
1,79,127,0
1,79,127,71
1,72,127,0
1,76,127,0
1,72,127,80
1,76,127,0
1,79,127,0
1,72,127,71
1,76,127,0
1,79,127,0
1,76,127,77
1,79,127,0
1,72,127,0
1,36,127,1479
1,58,127,84
1,64,127,0
1,67,127,0
1,36,127,0
1,40,127,13
1,40,127,112
1,58,127,13
1,67,127,0
1,64,127,0
1,43,127,0
1,43,127,132
1,58,127,13
1,67,127,0
1,64,127,0
1,45,127,0
1,67,127,80
1,64,127,0
1,58,127,0
1,43,127,0
1,41,127,0
1,60,127,112
1,57,127,0
1,53,127,0
1,41,127,0
1,45,127,4
1,51,127,112
1,45,127,0
1,57,127,10
1,53,127,0
1,60,127,0
1,48,127,0
1,51,127,32
1,48,127,0
1,53,127,7
1,57,127,0
1,60,127,0
1,50,127,0
1,51,127,13
1,48,127,0
1,36,127,45
1,58,127,84
1,67,127,0
1,64,127,0
1,36,127,0
1,40,127,13
1,40,127,112
1,67,127,13
1,58,127,0
1,64,127,0
1,43,127,0
1,43,127,13
1,67,127,13
1,64,127,0
1,58,127,0
1,45,127,0
1,67,127,80
1,64,127,0
1,58,127,0
1,43,127,0
1,36,127,0
1,67,127,93
1,64,127,0
1,58,127,0
1,36,127,0
1,40,127,0
1,40,127,106
1,64,127,16
1,67,127,0
1,58,127,0
1,43,127,0
1,55,127,13
1,43,127,0
1,67,127,23
1,58,127,0
1,64,127,0
1,45,127,0
1,55,127,16
1,43,127,0
1,41,127,20
1,60,127,109
1,53,127,0
1,57,127,0
1,41,127,0
1,45,127,20
1,45,127,116
1,53,127,10
1,57,127,0
1,60,127,0
1,48,127,0
1,51,127,55
1,48,127,0
1,57,127,13
1,53,127,0
1,60,127,0
1,50,127,0
1,51,127,10
1,48,127,0
1,41,127,13
1,60,127,112
1,53,127,0
1,57,127,0
1,41,127,0
1,45,127,13
1,51,127,119
1,45,127,0
1,53,127,7
1,57,127,0
1,60,127,0
1,48,127,0
1,51,127,58
1,48,127,0
1,53,127,16
1,57,127,0
1,60,127,0
1,50,127,0
1,51,127,26
1,48,127,0
1,36,127,55
1,67,127,74
1,58,127,0
1,64,127,0
1,36,127,0
1,40,127,0
1,40,127,119
1,67,127,10
1,64,127,0
1,58,127,0
1,43,127,0
1,43,127,4
1,67,127,16
1,64,127,0
1,58,127,0
1,45,127,0
1,64,127,39
1,67,127,0
1,58,127,0
1,43,127,0
1,36,127,16
1,67,127,100
1,58,127,0
1,64,127,0
1,36,127,0
1,40,127,10
1,40,127,122
1,67,127,4
1,58,127,0
1,64,127,0
1,43,127,0
1,43,127,4
1,67,127,29
1,64,127,0
1,58,127,0
1,45,127,0
1,43,127,4
1,31,127,55
1,53,127,103
1,62,127,0
1,59,127,0
1,31,127,0
1,35,127,0
1,35,127,116
1,62,127,26
1,53,127,0
1,59,127,0
1,38,127,0
1,51,127,13
1,38,127,0
1,53,127,29
1,59,127,0
1,62,127,0
1,40,127,0
1,38,127,39
1,29,127,20
1,53,127,112
1,60,127,0
1,57,127,0
1,29,127,0
1,33,127,23
1,51,127,119
1,33,127,0
1,57,127,16
1,60,127,0
1,36,127,0
1,51,127,52
1,36,127,0
1,57,127,13
1,60,127,0
1,38,127,0
1,51,127,23
1,36,127,0
1,36,127,48
1,58,127,103
1,67,127,0
1,64,127,0
1,36,127,0
1,40,127,16
1,40,127,119
1,67,127,13
1,58,127,0
1,64,127,0
1,43,127,0
1,43,127,116
1,58,127,36
1,67,127,0
1,64,127,0
1,45,127,0
1,58,127,52
1,67,127,0
1,64,127,0
1,43,127,0
1,84,127,36
1,72,127,0
1,78,127,0
1,36,127,0
1,72,127,58
1,79,127,0
1,84,127,0
1,72,127,52
1,84,127,0
1,79,127,0
1,36,127,0
1,72,127,16
1,79,127,0
1,84,127,0
1,40,127,0
1,72,127,74
1,84,127,0
1,79,127,0
1,72,127,68
1,84,127,0
1,79,127,0
1,40,127,0
1,84,127,13
1,78,127,0
1,72,127,0
1,43,127,0
1,79,127,74
1,72,127,0
1,84,127,0
1,79,127,61
1,84,127,0
1,72,127,0
1,43,127,0
1,84,127,36
1,78,127,0
1,72,127,0
1,45,127,0
1,79,127,64
1,72,127,0
1,84,127,0
1,79,127,52
1,72,127,0
1,84,127,0
1,43,127,0
1,36,127,36
1,58,127,84
1,64,127,0
1,67,127,0
1,36,127,0
1,40,127,13
1,40,127,112
1,58,127,13
1,67,127,0
1,64,127,0
1,43,127,0
1,43,127,132
1,58,127,13
1,67,127,0
1,64,127,0
1,45,127,0
1,67,127,80
1,64,127,0
1,58,127,0
1,43,127,0
1,41,127,0
1,60,127,112
1,57,127,0
1,53,127,0
1,41,127,0
1,45,127,4
1,51,127,112
1,45,127,0
1,57,127,10
1,53,127,0
1,60,127,0
1,48,127,0
1,51,127,32
1,48,127,0
1,53,127,7
1,57,127,0
1,60,127,0
1,50,127,0
1,51,127,13
1,48,127,0
1,36,127,45
1,58,127,84
1,67,127,0
1,64,127,0
1,36,127,0
1,40,127,13
1,40,127,112
1,67,127,13
1,58,127,0
1,64,127,0
1,43,127,0
1,43,127,13
1,67,127,13
1,64,127,0
1,58,127,0
1,45,127,0
1,67,127,80
1,64,127,0
1,58,127,0
1,43,127,0
1,36,127,0
1,67,127,93
1,64,127,0
1,58,127,0
1,36,127,0
1,40,127,4
1,40,127,106
1,64,127,16
1,67,127,0
1,58,127,0
1,43,127,0
1,55,127,13
1,43,127,0
1,67,127,23
1,58,127,0
1,64,127,0
1,45,127,0
1,55,127,16
1,43,127,0
1,41,127,20
1,60,127,109
1,53,127,0
1,57,127,0
1,41,127,0
1,45,127,20
1,45,127,116
1,53,127,10
1,57,127,0
1,60,127,0
1,48,127,0
1,51,127,55
1,48,127,0
1,57,127,13
1,53,127,0
1,60,127,0
1,50,127,0
1,51,127,10
1,48,127,0
1,41,127,13
1,60,127,112
1,53,127,0
1,57,127,0
1,41,127,0
1,45,127,13
1,51,127,119
1,45,127,0
1,53,127,7
1,57,127,0
1,60,127,0
1,48,127,0
1,51,127,58
1,48,127,0
1,53,127,16
1,57,127,0
1,60,127,0
1,50,127,0
1,51,127,26
1,48,127,0
1,36,127,55
1,67,127,74
1,58,127,0
1,64,127,0
1,36,127,0
1,40,127,42
1,40,127,119
1,67,127,10
1,64,127,0
1,58,127,0
1,43,127,0
1,43,127,4
1,67,127,16
1,64,127,0
1,58,127,0
1,45,127,0
1,64,127,39
1,67,127,0
1,58,127,0
1,43,127,0
1,36,127,16
1,67,127,100
1,58,127,0
1,64,127,0
1,36,127,0
1,40,127,10
1,40,127,122
1,67,127,4
1,58,127,0
1,64,127,0
1,43,127,0
1,43,127,4
1,67,127,29
1,64,127,0
1,58,127,0
1,45,127,0
1,43,127,4
1,31,127,55
1,53,127,103
1,62,127,0
1,59,127,0
1,31,127,0
1,35,127,4
1,35,127,116
1,62,127,26
1,53,127,0
1,59,127,0
1,38,127,0
1,51,127,13
1,38,127,0
1,53,127,29
1,59,127,0
1,62,127,0
1,40,127,0
1,38,127,39
1,29,127,20
1,53,127,112
1,60,127,0
1,57,127,0
1,29,127,0
1,33,127,23
1,51,127,119
1,33,127,0
1,57,127,16
1,60,127,0
1,36,127,0
1,51,127,52
1,36,127,0
1,57,127,13
1,60,127,0
1,38,127,0
1,51,127,23
1,36,127,0
1,36,127,48
1,58,127,103
1,67,127,0
1,64,127,0
1,36,127,0
1,40,127,16
1,40,127,119
1,67,127,13
1,58,127,0
1,64,127,0
1,43,127,0
1,43,127,116
1,58,127,36
1,67,127,0
1,64,127,0
1,45,127,0
1,58,127,52
1,67,127,0
1,64,127,0
1,43,127,0
1,62,127,292
1,65,127,0
1,70,127,0
1,58,127,0
1,46,127,0
1,36,127,116
1,58,127,84
1,64,127,0
1,67,127,0
1,36,127,0
1,40,127,13
1,40,127,112
1,58,127,13
1,67,127,0
1,64,127,0
1,43,127,0
1,43,127,132
1,58,127,13
1,67,127,0
1,64,127,0
1,45,127,0
1,67,127,80
1,64,127,0
1,58,127,0
1,43,127,0
1,41,127,0
1,60,127,112
1,57,127,0
1,53,127,0
1,41,127,0
1,45,127,4
1,51,127,112
1,45,127,0
1,57,127,10
1,53,127,0
1,60,127,0
1,48,127,0
1,51,127,32
1,48,127,0
1,53,127,7
1,57,127,0
1,60,127,0
1,50,127,0
1,51,127,13
1,48,127,0
1,36,127,45
1,58,127,84
1,67,127,0
1,64,127,0
1,36,127,0
1,40,127,13
1,40,127,112
1,67,127,13
1,58,127,0
1,64,127,0
1,43,127,0
1,43,127,13
1,67,127,13
1,64,127,0
1,58,127,0
1,45,127,0
1,67,127,80
1,64,127,0
1,58,127,0
1,43,127,0
1,36,127,0
1,67,127,93
1,64,127,0
1,58,127,0
1,36,127,0
1,40,127,0
1,40,127,106
1,64,127,16
1,67,127,0
1,58,127,0
1,43,127,0
1,55,127,13
1,43,127,0
1,67,127,23
1,58,127,0
1,64,127,0
1,45,127,0
1,55,127,16
1,43,127,0
1,41,127,20
1,60,127,109
1,53,127,0
1,57,127,0
1,41,127,0
1,45,127,20
1,45,127,116
1,53,127,10
1,57,127,0
1,60,127,0
1,48,127,0
1,51,127,55
1,48,127,0
1,57,127,13
1,53,127,0
1,60,127,0
1,50,127,0
1,51,127,10
1,48,127,0
1,41,127,13
1,60,127,112
1,53,127,0
1,57,127,0
1,41,127,0
1,45,127,13
1,51,127,119
1,45,127,0
1,53,127,7
1,57,127,0
1,60,127,0
1,48,127,0
1,51,127,58
1,48,127,0
1,53,127,16
1,57,127,0
1,60,127,0
1,50,127,0
1,51,127,26
1,48,127,0
1,36,127,55
1,67,127,74
1,58,127,0
1,64,127,0
1,36,127,0
1,40,127,0
1,40,127,119
1,67,127,10
1,64,127,0
1,58,127,0
1,43,127,0
1,43,127,4
1,67,127,16
1,64,127,0
1,58,127,0
1,45,127,0
1,64,127,39
1,67,127,0
1,58,127,0
1,43,127,0
1,36,127,16
1,67,127,100
1,58,127,0
1,64,127,0
1,36,127,0
1,40,127,10
1,40,127,122
1,67,127,4
1,58,127,0
1,64,127,0
1,43,127,0
1,43,127,4
1,67,127,29
1,64,127,0
1,58,127,0
1,45,127,0
1,43,127,4
1,31,127,55
1,53,127,103
1,62,127,0
1,59,127,0
1,31,127,0
1,35,127,0
1,35,127,116
1,62,127,26
1,53,127,0
1,59,127,0
1,38,127,0
1,51,127,13
1,38,127,0
1,53,127,29
1,59,127,0
1,62,127,0
1,40,127,0
1,38,127,39
1,29,127,20
1,53,127,112
1,60,127,0
1,57,127,0
1,29,127,0
1,33,127,23
1,51,127,119
1,33,127,0
1,57,127,16
1,60,127,0
1,36,127,0
1,51,127,52
1,36,127,0
1,57,127,13
1,60,127,0
1,38,127,0
1,51,127,23
1,36,127,0
1,36,127,48
1,58,127,103
1,67,127,0
1,64,127,0
1,36,127,0
1,40,127,16
1,40,127,119
1,67,127,13
1,58,127,0
1,64,127,0
1,43,127,0
1,43,127,116
1,58,127,36
1,67,127,0
1,64,127,0
1,45,127,0
1,58,127,52
1,67,127,0
1,64,127,0
1,43,127,0
1,48,127,36
1,36,127,0
1,50,127,4
1,38,127,0
1,51,127,384
1,39,127,0
1,52,127,16
1,40,127,0
1,41,127,112
1,57,127,0
1,53,127,0
1,60,127,0
1,41,127,157
1,53,127,128
1,57,127,0
1,60,127,0
1,41,127,128
1,57,127,128
1,60,127,0
1,53,127,0
1,41,127,189
1,60,127,128
1,57,127,0
1,53,127,0
1,41,127,202
