track,note,velocity,time
1,31,100,1728
1,34,100,120
1,36,100,110
1,41,100,112
1,39,100,52
1,36,100,56
1,31,100,196
1,34,100,126
1,36,100,100
1,41,100,102
1,39,100,56
1,36,100,68
1,31,100,172
1,34,100,114
1,36,100,108
1,41,100,112
1,39,100,46
1,34,100,40
1,31,100,154
1,34,100,124
1,36,100,98
1,41,100,114
1,34,100,34
1,36,100,96
1,31,100,154
1,34,100,134
1,36,100,102
1,41,100,112
1,39,100,34
1,36,100,54
1,31,100,166
1,34,100,142
1,36,100,112
1,41,100,108
1,39,100,46
1,36,100,60
1,36,100,330
1,36,100,308
1,36,100,352
1,34,100,736
1,34,100,200
1,34,100,126
1,34,100,368
1,34,100,202
1,34,100,148
1,36,100,352
1,36,100,184
1,36,100,122
1,36,100,166
1,39,100,120
1,41,100,92
1,43,100,116
1,39,100,56
1,34,100,38
1,34,100,178
1,34,100,136
1,34,100,208
1,34,100,184
1,34,100,146
1,32,100,328
1,32,100,184
1,32,100,118
1,32,100,176
1,32,100,174
1,32,100,114
1,32,100,250
1,32,100,200
1,36,100,0
1,36,100,292
1,36,100,374
1,36,100,376
1,34,100,1464
1,34,100,178
1,34,100,136
1,34,100,218
1,34,100,180
1,34,100,122
1,36,100,318
1,36,100,192
1,36,100,134
1,36,100,298
1,39,100,88
1,41,100,104
1,43,100,84
1,39,100,62
1,32,100,176
1,32,100,194
1,32,100,122
1,34,100,146
1,34,100,202
1,34,100,140
1,32,100,372
1,32,100,186
1,32,100,128
1,32,100,206
1,32,100,194
1,32,100,136
1,32,100,192
1,32,100,320
1,29,100,72
1,29,100,176
1,29,100,136
1,29,100,376
1,29,100,182
1,29,100,136
1,27,100,374
1,27,100,184
1,27,100,136
1,27,100,408
1,27,100,178
1,27,100,144
1,32,100,358
1,32,100,186
1,32,100,130
1,32,100,410
1,32,100,192
1,32,100,138
1,34,100,368
1,34,100,208
1,34,100,136
1,34,100,368
1,34,100,196
1,34,100,142
1,34,100,176
1,36,100,12
1,36,100,264
1,36,100,138
1,34,100,300
1,36,100,20
1,36,100,282
1,36,100,136
1,34,100,338
1,36,100,28
1,36,100,274
1,36,100,142
1,34,100,390
1,36,100,12
1,36,100,264
1,36,100,138
1,34,100,300
1,36,100,18
1,36,100,282
1,36,100,136
1,34,100,338
1,36,100,30
1,36,100,272
1,36,100,142
1,34,100,390
1,36,100,10
1,36,100,266
1,36,100,140
1,34,100,296
1,36,100,16
1,36,100,284
1,36,100,136
1,36,100,364
1,31,100,184
1,34,100,36
1,36,100,172
1,41,100,28
1,39,100,40
1,36,100,98
1,31,100,92
1,34,100,10
1,36,100,186
1,41,100,24
1,39,100,64
1,34,100,40
1,31,100,256
1,34,100,190
1,36,100,156
1,41,100,26
1,39,100,56
1,36,100,36
1,31,100,222
1,34,100,30
1,36,100,24
1,41,100,16
1,39,100,42
1,36,100,232
1,31,100,118
1,34,100,200
1,36,100,10
1,41,100,24
1,39,100,44
1,36,100,60
1,36,100,372
1,36,100,362
1,36,100,396
1,34,100,236
1,34,100,190
1,34,100,140
1,34,100,364
1,34,100,166
1,34,100,132
1,36,100,392
1,36,100,208
1,36,100,104
1,36,100,138
1,31,100,112
1,34,100,56
1,36,100,36
1,41,100,90
1,39,100,90
1,34,100,168
1,34,100,188
1,34,100,120
1,34,100,338
1,34,100,192
1,34,100,128
1,36,100,340
1,36,100,202
1,36,100,124
1,36,100,264
1,31,100,78
1,34,100,38
1,36,100,72
1,41,100,124
1,39,100,80
1,32,100,164
1,32,100,172
1,32,100,126
1,32,100,312
1,32,100,196
1,32,100,150
1,29,100,374
1,29,100,158
1,29,100,130
1,29,100,372
1,29,100,176
1,29,100,138
1,34,100,382
1,34,100,178
1,34,100,122
1,34,100,350
1,34,100,192
1,34,100,142
1,36,100,344
1,36,100,174
1,36,100,120
1,36,100,352
1,36,100,178
1,36,100,128
1,36,100,312
1,36,100,190
1,36,100,122
1,36,100,174
1,31,100,126
1,34,100,34
1,36,100,48
1,41,100,20
1,39,100,62
1,36,100,40
1,36,100,24
1,36,100,542
1,36,100,120
1,36,100,350
1,36,100,178
1,36,100,128
1,36,100,310
1,36,100,190
1,36,100,120
1,31,100,356
1,34,100,48
1,36,100,56
1,41,100,48
1,39,100,64
1,34,100,80
1,34,100,184
1,34,100,136
1,34,100,350
1,34,100,166
1,34,100,132
1,36,100,394
1,36,100,208
1,36,100,104
1,36,100,138
1,31,100,112
1,34,100,56
1,36,100,36
1,41,100,90
1,39,100,90
1,34,100,166
1,34,100,190
1,34,100,118
1,34,100,336
1,34,100,192
1,34,100,128
1,36,100,340
1,36,100,200
1,36,100,126
1,36,100,264
1,31,100,76
1,34,100,38
1,36,100,72
1,41,100,122
1,39,100,80
1,32,100,164
1,32,100,172
1,32,100,128
1,32,100,312
1,32,100,196
1,32,100,150
1,29,100,374
1,29,100,160
1,29,100,128
1,29,100,370
1,29,100,178
1,29,100,136
1,34,100,382
1,34,100,178
1,34,100,118
1,34,100,350
1,34,100,192
1,34,100,142
1,36,100,340
1,36,100,202
1,31,100,158
1,34,100,120
1,36,100,108
1,41,100,128
1,39,100,74
1,36,100,78
2,84,73,3104
2,79,73,0
2,72,64,0
2,82,64,328
2,70,64,8
2,77,82,2
2,74,82,6
2,82,82,430
2,78,73,10
2,72,64,0
2,84,64,12
2,79,64,72
2,82,82,160
2,79,73,2
2,84,60,14
2,72,60,2
2,72,91,158
2,82,82,2
2,84,82,0
2,79,82,0
2,82,91,186
2,72,82,6
2,79,100,2
2,84,73,0
2,72,82,170
2,82,82,6
2,84,64,2
2,79,91,8
2,72,56,182
2,79,56,10
2,84,44,8
2,79,91,146
2,84,73,8
2,82,91,0
2,72,73,0
2,84,82,464
2,82,82,4
2,72,73,2
2,78,82,8
2,79,91,10
2,82,91,182
2,79,73,6
2,72,64,0
2,84,60,6
2,82,64,144
2,79,60,2
2,72,60,0
2,84,73,6
2,72,82,196
2,82,91,0
2,79,91,4
2,84,73,4
2,82,91,180
2,79,82,4
2,72,73,10
2,84,64,10
2,72,82,204
2,79,91,2
2,82,82,0
2,84,73,6
2,79,91,134
2,84,82,2
2,82,91,8
2,72,82,4
2,70,64,12736
2,82,73,6
2,74,73,2
2,77,82,0
2,84,73,348
2,79,82,2
2,72,64,0
2,82,73,388
2,70,60,6
2,74,82,2
2,77,73,4
2,80,73,232
2,75,73,14
2,68,64,0
2,72,73,2
2,82,73,12334
2,70,64,6
2,74,91,6
2,77,82,4
2,79,73,376
2,84,82,0
2,72,73,0
2,80,73,362
2,75,73,2
2,68,60,4
2,72,73,6
2,77,73,74
2,74,64,6
2,82,82,4
2,70,60,0
2,80,64,54
2,75,73,2
2,72,64,2
2,68,60,8
2,68,60,96
2,75,64,0
2,65,56,4
2,72,73,6
2,67,73,126
2,75,64,10
2,70,64,2
2,63,56,6
2,75,73,286
2,72,82,4
2,68,82,0
2,80,73,0
2,82,82,212
2,70,60,4
2,74,82,4
2,77,91,6
2,84,73,472
2,79,82,4
2,72,64,0
2,75,64,3068
2,72,64,204
2,75,73,14
2,80,82,4
2,68,73,4
2,79,73,388
2,72,64,2
2,84,73,0
2,82,73,268
2,74,73,6
2,70,64,4
2,77,73,2
2,82,82,408
2,84,73,0
2,72,73,6
2,78,82,10
2,79,64,94
2,82,73,162
2,72,64,6
2,79,73,0
2,84,64,2
2,82,91,134
2,72,91,10
2,79,91,2
2,84,91,6
2,82,91,180
2,79,91,2
2,72,82,0
2,84,82,6
2,72,82,168
2,82,82,10
2,84,73,4
2,79,82,8
2,82,73,184
2,72,64,8
2,84,52,10
2,79,60,4
2,82,91,158
2,84,73,6
2,72,91,2
2,79,82,4
2,82,91,398
2,72,82,2
2,78,73,0
2,84,73,2
2,79,82,132
2,82,82,158
2,79,82,10
2,72,73,6
2,84,64,0
2,82,82,154
2,84,82,6
2,72,82,2
2,79,82,4
2,82,91,190
2,72,73,6
2,84,91,2
2,79,91,8
2,82,91,166
2,79,91,6
2,84,82,2
2,72,82,6
2,82,91,186
2,72,73,6
2,79,82,0
2,84,64,2
2,82,91,148
2,79,100,4
2,72,91,4
2,84,91,2
2,82,73,12624
2,74,82,4
2,77,82,2
2,70,64,0
2,84,73,304
2,72,60,2
2,79,64,4
2,74,73,184
2,70,56,2
2,82,73,4
2,77,73,2
2,84,64,276
2,72,56,2
2,79,73,0
2,75,73,270
2,68,60,0
2,72,60,2
2,80,64,0
2,72,64,52
2,75,56,6
2,68,60,2
2,65,60,6
2,74,73,360
2,77,73,6
2,70,60,6
2,82,64,2
2,84,82,432
2,72,60,2
2,79,82,0
2,82,82,278
2,72,64,4
2,84,82,4
2,79,73,0
2,82,82,146
2,72,82,8
2,79,73,0
2,84,73,0
2,82,91,124
2,72,91,8
2,79,91,4
2,84,82,4
2,78,82,158
2,72,73,4
2,84,82,6
2,82,82,0
2,79,91,30
2,72,82,136
2,82,82,4
2,79,82,10
2,84,82,2
2,82,82,150
2,72,60,6
2,79,73,2
2,84,60,4
2,72,91,136
2,79,100,6
2,82,91,6
2,84,82,6
2,82,82,296
2,72,82,8
2,84,82,4
2,78,82,6
2,79,56,64
2,72,64,158
2,82,82,2
2,84,73,4
2,79,73,12
2,82,91,134
2,84,82,0
2,72,73,8
2,79,82,6
2,79,91,186
2,82,91,2
2,72,82,4
2,84,91,12
2,82,91,164
2,72,73,4
2,79,91,2
2,84,82,0
2,82,91,176
2,79,82,2
2,72,73,4
2,84,64,4
2,82,91,134
2,72,82,10
2,84,73,4
2,79,82,0
2,82,82,368
2,74,91,4
2,70,82,6
2,77,82,0
2,72,73,296
2,84,73,8
2,79,73,2
2,77,73,136
2,74,73,2
2,82,64,10
2,70,73,4
2,72,73,352
2,79,64,0
2,84,73,0
2,75,82,328
2,80,64,2
2,72,60,2
2,68,60,0
2,75,73,70
2,72,60,0
2,68,64,12
2,65,56,4
2,70,64,378
2,82,73,0
2,74,91,8
2,77,82,4
2,79,82,404
2,75,73,4
2,72,60,2
2,84,64,0
2,79,73,260
2,67,48,0
2,82,73,72
2,70,40,20
2,72,64,64
2,84,56,6
2,89,100,128
2,77,73,22
2,75,56,6
2,87,64,6
2,84,91,44
2,95,100,4
2,96,91,4
2,72,82,8
3,46,74,18430
3,48,74,104
3,51,92,96
3,43,74,70
3,46,74,60
3,48,74,70
3,53,74,88
3,43,83,74
3,46,83,72
3,48,83,64
3,51,92,76
3,43,74,62
3,46,74,84
3,48,74,80
3,53,74,100
3,43,83,64
3,46,74,62
3,48,74,106
3,51,92,96
3,43,74,70
3,46,74,60
3,48,74,68
3,53,74,88
3,43,83,74
3,46,83,74
3,48,83,66
3,51,92,76
3,43,74,60
3,46,74,84
3,48,74,80
3,53,74,100
3,43,83,64
3,46,74,62
3,48,74,104
3,51,92,98
3,43,74,70
3,46,74,58
3,48,74,70
3,53,74,86
3,43,83,76
3,46,83,72
3,48,83,64
3,51,92,74
3,43,74,62
3,46,74,86
3,48,74,80
3,53,74,100
3,43,83,64
3,46,74,64
3,48,74,104
3,51,92,96
3,43,74,70
3,46,74,58
3,48,74,70
3,53,74,88
3,43,83,76
3,46,83,72
3,48,83,64
3,51,92,76
3,43,74,62
3,46,74,86
3,48,74,80
3,53,74,100
3,43,83,64
3,55,54,9278
3,58,63,6
3,60,54,92
3,63,63,92
3,65,50,88
3,67,54,86
3,70,54,20
3,72,54,14
3,55,54,20
3,58,72,104
3,60,54,74
3,63,72,84
3,67,54,92
3,70,46,72
3,72,54,58
3,75,72,0
3,55,63,32
3,58,54,96
3,60,54,78
3,63,72,78
3,70,50,82
3,72,46,18
3,75,54,4
3,77,54,16
3,55,63,14
3,58,72,100
3,60,63,86
3,63,63,74
3,72,42,96
3,75,50,82
3,77,54,0
3,79,63,2
3,55,63,14
3,58,63,98
3,60,63,78
3,63,81,74
3,75,54,88
3,77,38,80
3,79,54,66
3,82,72,6
3,55,54,16
3,58,63,112
3,60,54,80
3,63,81,76
3,77,54,88
3,79,54,72
3,82,54,64
3,84,54,82
3,55,63,8
3,58,72,96
3,60,54,80
3,63,81,84
3,79,54,94
3,82,50,94
3,84,54,54
3,87,63,8
3,55,63,18
3,58,63,104
3,60,63,88
3,63,72,80
3,82,63,94
3,84,34,66
3,87,63,16
3,91,81,16
3,46,74,22
3,48,74,104
3,51,92,94
3,43,74,72
3,46,74,58
3,48,74,70
3,53,74,88
3,43,83,74
3,46,83,70
3,48,83,64
3,51,92,76
3,43,74,60
3,46,74,84
3,48,74,80
3,53,74,102
3,43,83,64
3,46,74,62
3,48,74,104
3,51,92,98
3,43,74,70
3,46,74,60
3,48,74,70
3,53,74,88
3,43,83,78
3,46,83,72
3,48,83,64
3,51,92,76
3,43,74,62
3,46,74,84
3,48,74,80
3,53,74,104
3,43,83,64
3,46,74,64
3,48,74,106
3,51,92,96
3,43,74,68
3,46,74,58
3,48,74,72
3,53,74,88
3,43,83,74
3,46,83,72
3,48,83,64
3,51,92,74
3,43,74,62
3,46,74,84
3,48,74,80
3,53,74,102
3,43,83,64
3,46,74,62
3,48,74,104
3,51,92,94
3,43,74,70
3,46,74,58
3,48,74,68
3,53,74,88
3,43,83,74
3,46,83,72
3,48,83,64
3,51,92,74
3,43,74,62
3,46,74,84
3,48,74,80
3,53,74,100
3,43,83,64
3,55,54,9278
3,58,63,6
3,60,54,92
3,63,63,92
3,65,50,88
3,67,54,88
3,70,54,18
3,72,54,12
3,55,54,18
3,58,72,104
3,60,54,76
3,63,72,82
3,67,54,90
3,70,46,72
3,72,54,58
3,75,72,0
3,55,63,32
3,58,54,98
3,60,54,78
3,63,72,80
3,70,50,84
3,72,46,20
3,75,54,2
3,77,54,16
3,55,63,16
3,58,72,98
3,60,63,88
3,63,63,72
3,72,42,98
3,75,50,82
3,77,54,0
3,79,63,2
3,55,63,14
3,58,63,96
3,60,63,80
3,63,81,74
3,75,54,88
3,77,38,80
3,79,54,66
3,82,72,4
3,55,54,16
3,58,63,112
3,60,54,80
3,63,81,76
3,77,54,90
3,79,54,70
3,82,54,64
3,84,54,82
3,55,63,8
3,58,72,98
3,60,54,80
3,63,81,84
3,79,54,100
3,82,50,92
3,84,54,54
3,87,63,10
3,55,63,18
3,58,63,106
3,60,63,88
3,63,72,80
3,82,63,94
3,84,34,66
3,87,63,16
3,91,81,18
3,46,74,12312
3,48,74,104
3,51,92,96
3,43,74,70
3,46,74,60
3,48,74,70
3,53,74,88
3,43,83,76
3,46,83,72
3,48,83,64
3,51,92,74
3,43,74,62
3,46,74,86
3,48,74,80
3,53,74,100
3,43,83,62
3,46,74,62
3,48,74,102
3,51,92,96
3,43,74,70
3,46,74,60
3,48,74,70
3,53,74,88
3,43,83,72
3,46,74,72
3,48,74,102
3,51,92,96
3,43,74,70
3,46,74,58
3,48,74,70
3,53,74,86
3,43,83,76
3,46,83,70
3,48,83,64
3,51,92,76
3,43,74,60
3,46,74,84
3,48,74,80
3,53,74,100
3,43,83,64
3,46,74,62
3,48,74,104
3,51,92,94
3,43,74,70
3,46,74,60
3,48,74,70
3,53,74,86
3,43,83,74
3,46,74,70
3,48,74,106
3,51,92,94
3,43,74,70
3,46,74,60
3,48,74,68
3,53,74,90
3,43,83,74
3,46,83,70
3,48,83,66
3,51,92,76
3,43,74,62
3,46,74,86
3,48,74,80
3,53,74,102
3,43,83,64
3,46,74,15422
3,48,74,104
3,51,92,96
3,43,74,70
3,46,74,58
3,48,74,70
3,53,74,88
3,43,83,76
3,46,83,72
3,48,83,64
3,51,92,74
3,43,74,62
3,46,74,86
3,48,74,78
3,53,74,102
3,43,83,62
3,46,74,62
3,48,74,104
3,51,92,98
3,43,74,70
3,46,74,58
3,48,74,70
3,53,74,86
3,43,83,76
3,46,83,70
3,48,83,64
3,51,92,74
3,43,74,62
3,46,74,86
3,48,74,80
3,53,74,102
3,43,83,64
3,46,74,62
3,48,74,102
3,51,92,96
3,43,74,70
3,46,74,62
3,48,74,70
3,53,74,86
