track,note,velocity,time
0,59,127,0
0,52,127,0
0,52,127,0
0,56,127,7
0,55,127,0
0,52,127,0
0,56,120,23
0,59,127,26
0,64,127,0
0,61,127,0
0,59,127,23
0,59,127,45
0,52,127,0
0,52,127,0
0,52,127,0
0,55,127,0
0,56,127,0
0,56,120,23
0,64,127,26
0,61,127,0
0,59,127,0
0,59,127,128
0,52,127,45
0,59,127,0
0,52,127,0
0,56,127,16
0,55,127,0
0,52,127,0
0,56,120,10
0,59,127,55
0,61,127,0
0,64,127,0
0,59,127,128
0,59,127,36
0,52,127,0
0,52,127,0
0,52,127,4
0,55,127,0
0,56,127,0
0,56,120,7
0,61,127,13
0,59,127,0
0,64,127,0
0,49,127,71
0,59,127,0
0,46,127,0
0,36,127,0
0,36,127,0
0,46,127,0
0,49,127,0
0,59,127,39
0,36,127,0
0,36,127,0
0,88,127,0
0,42,127,0
0,83,127,0
0,52,127,0
0,52,127,0
0,42,127,0
0,38,127,0
0,42,127,0
0,42,127,0
0,38,127,0
0,52,127,7
0,55,127,0
0,36,127,0
0,56,127,0
0,36,127,0
0,56,120,23
0,42,127,0
0,42,127,0
0,64,127,26
0,61,127,0
0,36,127,0
0,36,127,0
0,59,127,0
0,38,127,64
0,38,127,0
0,42,127,0
0,59,127,0
0,42,127,0
0,36,127,39
0,36,127,0
0,42,127,23
0,36,127,0
0,59,127,0
0,42,127,0
0,52,127,0
0,36,127,0
0,52,127,0
0,85,127,125
0,38,127,0
0,42,127,0
0,42,127,0
0,38,127,0
0,81,127,0
0,79,127,0
0,52,127,0
0,56,127,0
0,36,127,0
0,82,127,0
0,55,127,0
0,36,127,0
0,80,127,23
0,42,127,0
0,42,127,0
0,83,127,0
0,56,120,0
0,36,127,13
0,76,127,0
0,59,127,0
0,36,127,0
0,80,127,0
0,61,127,0
0,64,127,0
0,38,127,20
0,59,127,0
0,38,127,0
0,42,127,0
0,85,127,0
0,42,127,0
0,81,127,0
0,36,127,4
0,36,127,0
0,79,127,0
0,82,127,0
0,42,127,13
0,52,127,0
0,83,127,0
0,42,127,0
0,80,127,0
0,88,127,0
0,52,127,0
0,59,127,0
0,36,127,0
0,36,127,0
0,83,120,16
0,88,109,7
0,83,109,39
0,80,127,4
0,76,127,0
0,88,109,20
0,81,127,26
0,38,127,0
0,42,127,0
0,85,127,0
0,38,127,0
0,42,127,0
0,83,109,0
0,88,104,23
0,83,104,39
0,88,104,7
0,56,127,4
0,36,127,0
0,36,127,0
0,82,127,0
0,52,127,0
0,79,127,0
0,55,127,0
0,83,109,20
0,88,96,0
0,42,127,10
0,80,127,0
0,83,120,0
0,56,120,0
0,83,127,0
0,42,127,0
0,80,127,36
0,86,127,0
0,36,127,4
0,64,127,0
0,80,127,0
0,59,127,0
0,36,127,0
0,76,127,0
0,61,127,0
0,59,127,29
0,38,127,0
0,76,127,0
0,42,127,0
0,85,127,0
0,38,127,0
0,85,127,0
0,81,127,0
0,42,127,0
0,36,127,4
0,82,127,0
0,36,127,0
0,79,127,0
0,36,127,36
0,52,127,0
0,83,127,0
0,80,127,0
0,52,127,0
0,42,127,0
0,83,120,0
0,36,127,0
0,42,127,0
0,80,111,0
0,59,127,0
0,74,127,16
0,83,96,0
0,80,89,0
0,74,111,29
0,76,127,4
0,80,127,0
0,80,89,0
0,83,96,0
0,74,120,26
0,81,127,0
0,85,127,0
0,42,127,0
0,38,127,0
0,38,127,0
0,42,127,0
0,83,92,10
0,80,86,0
0,74,120,16
0,80,89,4
0,83,96,0
0,56,127,0
0,36,127,0
0,82,127,0
0,36,127,0
0,79,127,0
0,52,127,0
0,55,127,0
0,74,100,13
0,83,89,7
0,80,83,0
0,42,127,7
0,80,127,0
0,74,111,0
0,56,120,0
0,42,127,0
0,83,127,0
0,83,83,23
0,80,69,16
0,74,111,29
0,80,56,0
0,83,69,0
0,80,127,4
0,36,127,0
0,59,127,0
0,64,127,0
0,76,127,0
0,36,127,0
0,61,127,0
0,74,109,20
0,83,104,48
0,80,89,0
0,42,127,0
0,42,127,0
0,59,127,0
0,38,127,0
0,38,127,0
0,65,100,138
0,36,127,0
0,36,127,0
0,42,127,42
0,59,127,0
0,52,127,0
0,36,127,0
0,52,127,0
0,42,127,0
0,36,127,0
0,67,100,3
0,65,100,0
0,42,127,71
0,38,127,0
0,42,127,0
0,38,127,0
0,67,104,6
0,36,127,7
0,55,127,0
0,36,127,0
0,52,127,0
0,56,127,0
0,42,127,23
0,42,127,0
0,56,120,0
0,65,109,36
0,64,127,23
0,36,127,0
0,36,127,0
0,59,127,0
0,61,127,0
0,59,127,10
0,38,127,0
0,38,127,0
0,42,127,0
0,42,127,0
0,67,104,0
0,65,109,121
0,36,127,4
0,36,127,0
0,42,127,45
0,36,127,0
0,42,127,0
0,45,127,0
0,67,109,0
0,36,127,0
0,52,127,0
0,45,111,0
0,65,104,90
0,42,127,64
0,38,127,0
0,38,127,0
0,42,127,0
0,67,109,9
0,45,127,7
0,48,127,0
0,36,127,0
0,36,127,0
0,49,127,0
0,42,127,32
0,49,100,0
0,42,127,0
0,65,114,13
0,36,127,10
0,57,127,0
0,54,127,0
0,36,127,0
0,52,127,0
0,38,127,116
0,42,127,0
0,42,127,0
0,38,127,0
0,52,127,0
0,67,114,0
0,36,127,116
0,36,127,0
0,65,119,0
0,52,127,32
0,36,127,0
0,42,127,0
0,52,127,0
0,42,127,0
0,36,127,0
0,59,127,0
0,38,127,64
0,38,127,0
0,42,127,0
0,42,127,0
0,36,127,16
0,52,127,0
0,56,127,0
0,36,127,0
0,55,127,0
0,56,120,10
0,42,127,0
0,42,127,0
0,36,127,55
0,64,127,0
0,61,127,0
0,59,127,0
0,36,127,0
0,59,127,116
0,42,127,0
0,42,127,0
0,38,127,0
0,38,127,0
0,36,127,100
0,36,127,0
0,42,127,36
0,42,127,0
0,52,127,0
0,59,127,0
0,36,127,0
0,52,127,0
0,36,127,0
0,38,127,52
0,38,127,0
0,42,127,0
0,42,127,0
0,36,127,4
0,56,127,0
0,52,127,0
0,36,127,0
0,55,127,0
0,42,127,7
0,42,127,0
0,56,120,0
0,64,127,13
0,36,127,0
0,61,127,0
0,36,127,0
0,59,127,0
0,59,127,116
0,42,127,0
0,42,127,0
0,38,127,0
0,38,127,0
0,65,109,0
0,36,127,0
0,36,127,0
0,67,100,38
0,42,127,4
0,36,127,0
0,45,111,0
0,42,127,0
0,36,127,0
0,52,127,0
0,45,127,0
0,65,114,0
0,67,114,0
0,42,127,13
0,38,127,0
0,42,127,0
0,38,127,0
0,36,127,7
0,48,127,0
0,45,127,0
0,36,127,0
0,49,127,0
0,49,100,4
0,42,127,0
0,42,127,0
0,65,109,0
0,57,127,26
0,36,127,0
0,54,127,0
0,36,127,0
0,52,127,0
0,42,127,103
0,38,127,0
0,52,127,0
0,38,127,0
0,42,127,0
0,67,104,9
0,36,127,80
0,65,109,0
0,36,127,0
0,67,109,41
0,36,127,4
0,45,111,0
0,36,127,0
0,42,127,0
0,42,127,0
0,52,127,0
0,45,127,0
0,65,114,0
0,67,109,26
0,42,127,0
0,38,127,0
0,42,127,0
0,38,127,0
0,45,127,4
0,36,127,0
0,48,127,0
0,49,127,0
0,36,127,0
0,49,100,32
0,42,127,0
0,42,127,0
0,65,114,10
0,57,127,26
0,52,127,0
0,36,127,0
0,36,127,0
0,54,127,0
0,42,127,93
0,38,127,0
0,42,127,0
0,38,127,0
0,52,127,0
0,67,114,13
0,36,127,68
0,36,127,0
0,65,114,0
0,52,127,39
0,42,127,0
0,42,127,0
0,52,127,0
0,59,127,0
0,36,127,0
0,36,127,0
0,42,127,16
0,38,127,0
0,42,127,0
0,38,127,0
0,36,127,16
0,52,127,0
0,36,127,0
0,55,127,0
0,56,127,0
0,56,120,10
0,42,127,0
0,42,127,0
0,64,127,55
0,59,127,0
0,36,127,0
0,61,127,0
0,36,127,0
0,38,127,80
0,42,127,0
0,38,127,0
0,59,127,0
0,42,127,0
0,36,127,58
0,36,127,0
0,52,127,36
0,42,127,0
0,59,127,0
0,52,127,0
0,36,127,0
0,36,127,0
0,42,127,0
0,38,127,7
0,42,127,0
0,38,127,0
0,42,127,0
0,36,127,4
0,52,127,0
0,56,127,0
0,55,127,0
0,36,127,0
0,42,127,7
0,42,127,0
0,56,120,0
0,59,127,13
0,36,127,0
0,61,127,0
0,64,127,0
0,36,127,0
0,38,127,71
0,42,127,0
0,42,127,0
0,38,127,0
0,59,127,0
0,65,109,4
0,36,127,48
0,36,127,0
0,67,104,0
0,54,127,20
0,36,127,0
0,36,127,0
0,42,127,0
0,47,127,0
0,42,127,0
0,47,120,0
0,65,109,0
0,67,109,67
0,65,109,55
0,42,127,13
0,38,127,0
0,42,127,0
0,38,127,0
0,67,100,6
0,51,127,16
0,36,127,0
0,50,127,0
0,47,127,0
0,36,127,0
0,65,109,0
0,42,127,0
0,51,104,0
0,42,127,0
0,36,127,48
0,36,127,0
0,59,127,0
0,56,127,0
0,54,120,0
0,38,127,61
0,42,127,0
0,38,127,0
0,54,127,0
0,67,104,0
0,42,127,0
0,65,114,0
0,36,127,20
0,36,127,0
0,67,109,7
0,36,127,13
0,52,127,0
0,42,127,0
0,45,111,0
0,42,127,0
0,36,127,0
0,45,127,0
0,65,114,99
0,38,127,48
0,38,127,0
0,42,127,0
0,42,127,0
0,67,109,6
0,65,114,0
0,48,127,4
0,45,127,0
0,49,127,0
0,36,127,0
0,36,127,0
0,67,109,3
0,42,127,4
0,49,100,0
0,42,127,0
0,36,127,13
0,54,127,0
0,57,127,0
0,52,127,0
0,36,127,0
0,38,127,48
0,42,127,0
0,38,127,0
0,42,127,0
0,52,127,0
0,65,114,3
0,67,100,23
0,36,127,20
0,36,127,0
0,65,109,3
0,52,127,10
0,52,127,0
0,42,127,0
0,42,127,0
0,59,127,0
0,36,127,0
0,36,127,0
0,67,114,0
0,38,127,116
0,42,127,0
0,42,127,0
0,38,127,0
0,55,127,7
0,36,127,0
0,36,127,0
0,52,127,0
0,56,127,0
0,42,127,23
0,56,120,0
0,42,127,0
0,36,127,26
0,36,127,0
0,59,127,0
0,61,127,0
0,64,127,0
0,65,109,4
0,42,127,23
0,42,127,0
0,38,127,0
0,38,127,0
0,59,127,0
0,67,100,3
0,65,114,116
0,36,127,13
0,36,127,0
0,52,127,45
0,86,127,0
0,42,127,0
0,59,127,0
0,36,127,0
0,52,127,0
0,42,127,0
0,36,127,0
0,67,114,6
0,83,120,36
0,80,127,4
0,38,127,100
0,42,127,0
0,83,104,0
0,42,127,0
0,86,127,0
0,38,127,0
0,83,120,0
0,80,96,0
0,52,127,0
0,80,127,0
0,36,127,0
0,55,127,0
0,36,127,0
0,56,127,0
0,76,104,0
0,80,111,23
0,42,127,0
0,56,120,0
0,83,111,0
0,42,127,0
0,80,111,0
0,76,109,0
0,36,127,0
0,59,127,0
0,36,127,0
0,74,127,0
0,76,120,0
0,61,127,0
0,64,127,0
0,42,127,26
0,59,127,0
0,38,127,0
0,83,127,0
0,38,127,0
0,42,127,0
0,79,127,0
0,36,127,23
0,78,109,0
0,36,127,0
0,67,109,0
0,59,127,29
0,28,127,0
0,36,127,0
0,36,127,0
0,52,127,0
0,76,111,0
0,42,127,0
0,42,127,0
0,65,114,3
0,42,127,90
0,42,127,0
0,38,127,0
0,38,127,0
0,67,114,0
0,36,127,7
0,31,127,0
0,52,127,0
0,56,127,0
0,36,127,0
0,42,127,39
0,32,127,0
0,42,127,0
0,65,114,0
0,61,127,7
0,36,127,0
0,36,127,0
0,64,127,0
0,37,127,0
0,38,127,7
0,42,127,0
0,38,127,0
0,42,127,0
0,35,127,0
0,59,127,0
0,67,114,0
0,65,114,16
0,36,127,0
0,36,127,0
0,42,127,45
0,45,127,0
0,42,127,0
0,36,127,0
0,52,127,0
0,33,127,0
0,36,127,0
0,67,109,3
0,65,114,61
0,67,109,64
0,38,127,16
0,38,127,0
0,42,127,0
0,42,127,0
0,65,114,3
0,45,127,7
0,49,127,0
0,36,127,0
0,36,127,0
0,36,127,0
0,67,109,29
0,42,127,10
0,42,127,0
0,37,127,0
0,40,127,16
0,54,127,0
0,57,127,0
0,36,127,0
0,36,127,0
0,52,127,4
0,38,127,0
0,38,127,0
0,42,127,0
0,42,127,0
0,65,114,9
0,36,127,74
0,36,127,0
0,67,114,0
0,59,127,32
0,36,127,0
0,36,127,0
0,28,127,0
0,52,127,0
0,42,127,0
0,42,127,0
0,80,127,68
0,83,127,0
0,88,120,0
0,79,127,0
0,85,120,0
0,38,127,3
0,38,127,0
0,42,127,0
0,42,127,0
0,88,111,36
0,85,104,0
0,83,92,0
0,80,109,0
0,56,127,16
0,36,127,0
0,31,127,0
0,85,89,0
0,88,111,0
0,36,127,0
0,52,127,0
0,83,111,0
0,80,120,0
0,42,127,10
0,85,89,0
0,80,127,0
0,83,109,0
0,88,104,0
0,42,127,0
0,32,127,0
0,83,104,16
0,80,111,0
0,85,86,0
0,88,100,0
0,88,104,4
0,61,127,0
0,64,127,0
0,37,127,0
0,80,109,0
0,36,127,0
0,83,80,0
0,85,89,0
0,36,127,0
0,35,127,7
0,83,96,0
0,59,127,0
0,80,120,0
0,88,89,0
0,38,127,0
0,42,127,0
0,42,127,0
0,38,127,0
0,83,104,64
0,80,120,0
0,88,92,0
0,85,76,0
0,36,127,16
0,88,109,0
0,36,127,0
0,83,104,0
0,80,109,0
0,85,100,0
0,28,127,36
0,59,127,0
0,42,127,0
0,80,127,0
0,88,111,0
0,36,127,0
0,36,127,0
0,83,111,0
0,85,96,0
0,52,127,0
0,42,127,0
0,88,111,71
0,80,111,0
0,85,100,0
0,83,104,0
0,83,111,71
0,88,111,0
0,80,111,0
0,85,104,0
0,38,127,55
0,88,111,0
0,38,127,0
0,85,109,0
0,83,111,0
0,80,120,0
0,42,127,0
0,42,127,0
0,85,109,42
0,88,111,0
0,80,120,0
0,83,111,0
0,83,120,4
0,36,127,0
0,31,127,0
0,52,127,0
0,36,127,0
0,88,109,0
0,85,100,0
0,56,127,0
0,80,120,0
0,85,127,7
0,32,127,0
0,42,127,0
0,42,127,0
0,83,127,0
0,88,127,0
0,80,127,0
0,79,127,7
0,36,127,7
0,37,127,0
0,78,127,0
0,61,127,0
0,36,127,0
0,64,127,0
0,83,111,0
0,42,127,7
0,76,127,0
0,42,127,0
0,59,127,0
0,38,127,0
0,38,127,0
0,35,127,0
0,65,109,6
0,67,109,0
0,36,127,16
0,36,127,0
0,65,109,0
0,33,127,20
0,42,127,0
0,36,127,0
0,52,127,0
0,36,127,0
0,42,127,0
0,45,127,0
0,67,114,0
0,38,127,20
0,42,127,0
0,42,127,0
0,38,127,0
0,65,104,0
0,45,127,7
0,49,127,0
0,36,127,0
0,36,127,0
0,36,127,0
0,67,114,26
0,37,127,7
0,42,127,0
0,42,127,0
0,57,127,26
0,36,127,0
0,54,127,0
0,36,127,0
0,40,127,0
0,65,114,0
0,38,127,7
0,42,127,0
0,52,127,0
0,38,127,0
0,42,127,0
0,36,127,74
0,36,127,0
0,42,127,45
0,52,127,0
0,42,127,0
0,36,127,0
0,33,127,0
0,36,127,0
0,45,127,0
0,67,114,0
0,65,109,57
0,38,127,32
0,42,127,0
0,42,127,0
0,38,127,0
0,67,114,0
0,36,127,7
0,45,127,0
0,49,127,0
0,36,127,0
0,36,127,0
0,42,127,39
0,42,127,0
0,37,127,0
0,65,119,0
0,57,127,26
0,36,127,0
0,36,127,0
0,54,127,0
0,40,127,0
0,42,127,100
0,52,127,0
0,38,127,0
0,38,127,0
0,42,127,0
0,67,109,0
0,65,109,0
0,36,127,29
0,36,127,0
0,67,114,4
0,52,127,26
0,59,127,0
0,42,127,0
0,36,127,0
0,42,127,0
0,36,127,0
0,28,127,0
0,79,111,36
0,82,127,0
0,88,127,0
0,38,127,23
0,42,127,0
0,38,127,0
0,83,111,0
0,80,120,0
0,42,127,0
0,52,127,16
0,88,120,0
0,31,127,0
