track,note,velocity,time
1,39,104,481
1,39,0,180
1,43,104,0
1,43,0,50
1,36,104,10
1,36,0,120
1,34,104,0
1,34,0,120
1,32,104,0
1,32,0,165
1,32,104,15
1,32,0,50
1,34,104,10
1,34,0,120
1,34,104,0
1,34,0,120
1,39,104,0
1,39,0,180
1,43,104,0
1,43,0,50
1,36,104,10
1,36,0,120
1,34,104,0
1,34,0,120
1,32,104,0
1,32,0,180
1,31,104,0
1,31,0,50
1,32,104,10
1,32,0,180
1,31,104,0
1,31,0,50
1,32,104,10
1,32,0,900
1,39,101,60
1,39,0,165
1,39,101,15
1,39,0,50
1,39,101,10
1,39,0,165
1,44,101,75
1,44,0,165
1,44,101,15
1,44,0,50
1,44,101,10
1,44,0,165
1,43,101,75
1,43,0,165
1,43,101,15
1,43,0,50
1,43,101,10
1,43,0,165
1,36,101,75
1,36,0,165
1,36,101,15
1,36,0,50
1,36,101,10
1,36,0,165
1,41,101,75
1,41,0,165
1,41,101,15
1,41,0,50
1,41,101,10
1,41,0,165
1,34,101,75
1,34,0,165
1,34,101,15
1,34,0,50
1,34,101,10
1,34,0,165
1,39,101,75
1,39,0,165
1,39,101,15
1,39,0,50
1,39,101,10
1,39,0,165
1,44,101,75
1,44,0,165
1,44,101,15
1,44,0,50
1,44,101,10
1,44,0,165
1,43,101,75
1,43,0,165
1,43,101,15
1,43,0,50
1,43,101,10
1,43,0,165
1,36,101,75
1,36,0,165
1,36,101,15
1,36,0,50
1,36,101,10
1,36,0,165
1,41,101,75
1,41,0,165
1,41,101,15
1,41,0,50
1,41,101,10
1,41,0,165
1,34,101,75
1,34,0,165
1,34,101,15
1,34,0,50
1,34,101,10
1,34,0,165
1,39,101,75
1,39,0,165
1,39,101,15
1,39,0,50
1,39,101,10
1,39,0,165
1,47,104,75
1,47,0,160
1,47,104,20
1,47,0,50
1,47,104,10
1,47,0,165
1,50,104,15
1,50,0,50
1,48,99,10
1,48,0,165
1,48,99,15
1,48,0,50
1,48,99,10
1,48,0,50
1,48,99,10
1,48,0,110
1,55,99,10
1,55,0,50
1,43,99,10
1,43,0,165
1,43,99,15
1,43,0,50
1,43,99,10
1,43,0,50
1,43,99,10
1,43,0,110
1,50,99,10
1,50,0,50
1,46,99,10
1,46,0,165
1,46,99,15
1,46,0,50
1,46,99,10
1,46,0,50
1,46,99,10
1,46,0,110
1,53,99,10
1,53,0,50
1,41,99,10
1,41,0,165
1,41,99,15
1,41,0,50
1,41,99,10
1,41,0,50
1,41,99,10
1,41,0,110
1,48,99,10
1,48,0,50
1,36,99,10
1,36,0,165
1,36,99,15
1,36,0,50
1,36,99,10
1,36,0,50
1,36,99,10
1,36,0,110
1,43,99,10
1,43,0,50
1,43,99,10
1,43,0,165
1,43,99,15
1,43,0,50
1,43,99,10
1,43,0,50
1,43,99,10
1,43,0,110
1,50,99,10
1,50,0,50
1,44,99,10
1,44,0,165
1,44,99,15
1,44,0,50
1,44,99,10
1,44,0,50
1,44,99,10
1,44,0,110
1,51,99,10
1,51,0,50
1,46,104,10
1,46,0,160
1,46,104,20
1,46,0,50
1,46,104,10
1,46,0,165
1,53,104,15
1,53,0,50
1,39,104,10
1,39,0,120
1,43,104,0
1,43,0,45
1,43,104,15
1,43,0,50
1,48,104,10
1,48,0,50
1,48,104,10
1,48,0,60
1,46,104,0
1,46,0,50
1,53,104,10
1,53,0,50
1,44,104,10
1,44,0,165
1,44,104,15
1,44,0,50
1,46,104,10
1,46,0,50
1,46,104,10
1,46,0,60
1,46,104,0
1,46,0,50
1,53,104,10
1,53,0,50
1,39,104,10
1,39,0,120
1,43,104,0
1,43,0,45
1,43,104,15
1,43,0,50
1,48,104,10
1,48,0,50
1,48,104,10
1,48,0,60
1,46,104,0
1,46,0,50
1,53,104,10
1,53,0,50
1,44,104,10
1,44,0,165
1,44,104,15
1,44,0,50
1,47,104,10
1,47,0,50
1,47,104,10
1,47,0,110
1,50,104,10
1,50,0,50
1,48,104,10
1,48,0,165
1,48,104,15
1,48,0,50
1,41,104,10
1,41,0,50
1,41,104,10
1,41,0,60
1,41,104,0
1,41,0,50
1,48,104,10
1,48,0,50
1,43,104,10
1,43,0,165
1,43,104,15
1,43,0,50
1,48,104,10
1,48,0,50
1,48,104,10
1,48,0,110
1,55,104,10
1,55,0,50
1,41,104,10
1,41,0,120
1,43,104,0
1,43,0,45
1,43,104,15
1,43,0,50
1,44,104,10
1,44,0,50
1,44,104,10
1,44,0,110
1,51,104,10
1,51,0,50
1,46,104,10
1,46,0,160
1,46,104,20
1,46,0,50
1,46,104,10
1,46,0,165
1,53,104,15
1,53,0,50
1,39,104,10
1,39,0,120
1,43,104,0
1,43,0,45
1,43,104,15
1,43,0,50
1,48,104,10
1,48,0,50
1,48,104,10
1,48,0,60
1,46,104,0
1,46,0,50
1,53,104,10
1,53,0,50
1,44,104,10
1,44,0,120
1,43,104,0
1,43,0,45
1,43,104,15
1,43,0,50
1,41,104,10
1,41,0,50
1,41,104,10
1,41,0,110
1,48,104,10
1,48,0,50
1,39,106,10
1,39,0,165
1,39,106,15
1,39,0,50
1,39,106,10
1,39,0,165
1,44,106,75
1,44,0,165
1,44,106,15
1,44,0,50
1,44,106,10
1,44,0,165
1,43,106,75
1,43,0,165
1,43,106,15
1,43,0,50
1,43,106,10
1,43,0,165
1,36,106,75
1,36,0,165
1,36,106,15
1,36,0,50
1,36,106,10
1,36,0,165
1,41,106,75
1,41,0,165
1,41,106,15
1,41,0,50
1,41,106,10
1,41,0,165
1,46,106,75
1,46,0,165
1,46,106,15
1,46,0,50
1,46,106,10
1,46,0,165
1,39,106,75
1,39,0,165
1,39,106,15
1,39,0,50
1,39,106,10
1,39,0,165
1,47,106,75
1,47,0,165
1,47,106,15
1,47,0,50
1,47,106,10
1,47,0,165
1,48,99,75
1,48,0,165
1,48,99,15
1,48,0,50
1,48,99,10
1,48,0,50
1,48,99,10
1,48,0,110
1,55,99,10
1,55,0,50
1,43,99,10
1,43,0,165
1,43,99,15
1,43,0,50
1,43,99,10
1,43,0,50
1,43,99,10
1,43,0,110
1,50,99,10
1,50,0,50
1,46,99,10
1,46,0,165
1,46,99,15
1,46,0,50
1,46,99,10
1,46,0,50
1,46,99,10
1,46,0,110
1,53,99,10
1,53,0,50
1,41,99,10
1,41,0,165
1,41,99,15
1,41,0,50
1,41,99,10
1,41,0,50
1,41,99,10
1,41,0,110
1,48,99,10
1,48,0,50
1,36,99,10
1,36,0,165
1,36,99,15
1,36,0,50
1,36,99,10
1,36,0,50
1,36,99,10
1,36,0,110
1,43,99,10
1,43,0,50
1,43,99,10
1,43,0,165
1,43,99,15
1,43,0,50
1,43,99,10
1,43,0,50
1,43,99,10
1,43,0,110
1,50,99,10
1,50,0,50
1,44,99,10
1,44,0,165
1,44,99,15
1,44,0,50
1,44,99,10
1,44,0,50
1,44,99,10
1,44,0,110
1,51,99,10
1,51,0,50
1,46,104,10
1,46,0,160
1,46,104,20
1,46,0,50
1,46,104,10
1,46,0,165
1,53,104,15
1,53,0,50
1,39,104,10
1,39,0,120
1,43,104,0
1,43,0,45
1,43,104,15
1,43,0,50
1,48,104,10
1,48,0,50
1,48,104,10
1,48,0,60
1,46,104,0
1,46,0,50
1,53,104,10
1,53,0,50
1,44,104,10
1,44,0,165
1,44,104,15
1,44,0,50
1,46,104,10
1,46,0,50
1,46,104,10
1,46,0,60
1,46,104,0
1,46,0,50
1,53,104,10
1,53,0,50
1,39,104,10
1,39,0,120
1,43,104,0
1,43,0,45
1,43,104,15
1,43,0,50
1,48,104,10
1,48,0,50
1,48,104,10
1,48,0,60
1,46,104,0
1,46,0,50
1,53,104,10
1,53,0,50
1,44,104,10
1,44,0,165
1,44,104,15
1,44,0,50
1,47,104,10
1,47,0,50
1,47,104,10
1,47,0,110
1,50,104,10
1,50,0,50
1,48,104,10
1,48,0,165
1,48,104,15
1,48,0,50
1,41,104,10
1,41,0,50
1,41,104,10
1,41,0,60
1,41,104,0
1,41,0,50
1,48,104,10
1,48,0,50
1,43,104,10
1,43,0,165
1,43,104,15
1,43,0,50
1,48,104,10
1,48,0,50
1,48,104,10
1,48,0,110
1,55,104,10
1,55,0,50
1,41,104,10
1,41,0,120
1,43,104,0
1,43,0,45
1,43,104,15
1,43,0,50
1,44,104,10
1,44,0,50
1,44,104,10
1,44,0,110
1,51,104,10
1,51,0,50
1,46,104,10
1,46,0,160
1,46,104,20
1,46,0,50
1,46,104,10
1,46,0,165
1,53,104,15
1,53,0,50
1,39,104,10
1,39,0,120
1,43,104,0
1,43,0,45
1,43,104,15
1,43,0,50
1,48,104,10
1,48,0,50
1,48,104,10
1,48,0,60
1,46,104,0
1,46,0,50
1,53,104,10
1,53,0,50
1,44,104,10
1,44,0,165
1,44,104,15
1,44,0,50
1,47,104,10
1,47,0,50
1,47,104,10
1,47,0,110
1,50,104,10
1,50,0,50
1,48,104,10
1,48,0,165
1,48,104,15
1,48,0,50
1,48,104,10
1,48,0,50
1,48,104,10
1,48,0,110
1,55,104,10
1,55,0,50
1,41,102,10
1,41,0,165
1,41,102,15
1,41,0,55
1,41,102,5
1,41,0,50
1,48,70,10
1,48,0,30
1,50,78,0
1,50,0,30
1,48,78,0
1,48,0,55
1,36,78,5
1,36,0,55
1,46,101,5
1,46,0,120
1,46,101,0
1,46,0,45
1,46,101,15
1,46,0,50
1,46,101,10
1,46,0,120
1,46,101,0
1,46,0,45
1,46,101,75
1,46,0,165
1,46,101,15
1,46,0,50
1,46,101,10
1,46,0,120
1,46,101,0
1,46,0,45
1,46,101,75
1,46,0,120
1,46,101,0
1,46,0,45
1,46,101,15
1,46,0,50
1,46,101,10
1,46,0,120
1,46,101,0
1,46,0,45
1,46,101,75
1,46,0,165
1,46,101,15
1,46,0,50
1,46,101,10
1,46,0,120
1,47,101,0
1,47,0,45
1,48,99,75
1,48,0,120
1,36,99,0
1,36,0,45
1,36,99,15
1,36,0,50
1,36,99,10
1,36,0,50
1,36,99,10
1,36,0,60
1,43,99,0
1,43,0,50
1,50,99,10
1,50,0,50
1,41,99,10
1,41,0,165
1,41,99,15
1,41,0,50
1,43,99,10
1,43,0,50
1,43,99,10
1,43,0,110
1,50,99,10
1,50,0,50
1,44,104,10
1,44,0,120
1,43,104,0
1,43,0,40
1,43,104,20
1,43,0,50
1,44,104,10
1,44,0,120
1,43,104,0
1,43,0,45
1,46,104,15
1,46,0,50
1,44,99,10
1,44,0,165
1,44,99,15
1,44,0,50
1,44,99,10
1,44,0,50
1,44,99,10
1,44,0,110
1,51,99,10
1,51,0,50
1,44,104,10
1,44,0,160
1,44,104,20
1,44,0,50
1,44,104,10
1,44,0,165
1,51,104,15
1,51,0,50
1,39,104,10
1,39,0,120
1,43,104,0
1,43,0,45
1,43,104,15
1,43,0,50
1,48,104,10
1,48,0,50
1,48,104,10
1,48,0,60
1,46,104,0
1,46,0,50
1,53,104,10
1,53,0,50
1,44,104,10
1,44,0,165
1,44,104,15
1,44,0,50
1,46,104,10
1,46,0,50
1,46,104,10
1,46,0,60
1,46,104,0
1,46,0,50
1,53,104,10
1,53,0,50
1,39,104,10
1,39,0,120
1,43,104,0
1,43,0,45
1,43,104,15
1,43,0,50
1,48,104,10
1,48,0,50
1,48,104,10
1,48,0,60
1,46,104,0
1,46,0,50
1,53,104,10
1,53,0,50
1,44,104,10
1,44,0,165
1,44,104,15
1,44,0,50
1,46,104,10
1,46,0,50
1,46,104,10
1,46,0,60
1,46,104,0
1,46,0,50
1,53,104,10
1,53,0,50
1,39,104,10
1,39,0,120
1,43,104,0
1,43,0,45
1,43,104,15
1,43,0,50
1,48,104,10
1,48,0,50
1,48,104,10
1,48,0,60
1,46,104,0
1,46,0,50
1,53,104,10
1,53,0,50
1,44,104,10
1,44,0,165
1,44,104,15
1,44,0,50
1,46,104,10
1,46,0,50
1,46,104,10
1,46,0,60
1,46,104,0
1,46,0,50
1,53,104,10
1,53,0,50
1,39,104,10
1,39,0,120
1,36,104,0
1,36,0,45
1,36,104,15
1,36,0,50
1,34,104,10
1,34,0,50
1,34,104,10
1,34,0,60
1,31,104,0
1,31,0,50
1,38,104,10
1,38,0,50
1,29,104,10
1,29,0,120
1,43,104,60
1,43,0,50
1,44,104,10
1,44,0,120
1,46,104,0
1,46,0,120
1,39,96,0
1,39,0,480
2,63,100,3652
2,63,0,60
2,65,100,0
2,70,110,12
2,65,0,8
2,70,0,230
2,63,100,0
2,63,0,120
2,63,100,0
2,63,0,10
2,70,100,0
2,70,0,60
2,68,100,0
2,68,0,60
2,67,100,0
2,67,0,60
2,68,100,0
2,68,0,60
2,70,100,0
2,70,0,32
2,67,100,0
2,67,0,60
2,72,100,0
2,72,0,120
2,67,100,0
2,67,0,60
2,68,100,0
2,68,0,180
2,70,100,0
2,70,0,60
2,70,100,0
2,70,0,18
2,72,100,180
2,72,0,60
2,70,100,0
2,70,0,60
2,68,100,0
2,68,0,60
2,67,100,0
2,67,0,60
2,68,100,0
2,68,0,60
2,70,100,0
2,70,0,42
2,70,100,280
2,70,0,60
2,70,100,0
2,70,0,60
2,68,100,0
2,68,0,60
2,67,100,0
2,67,0,60
2,68,100,0
2,68,0,60
2,70,100,0
2,70,0,24
2,67,100,0
2,67,0,60
2,72,100,0
2,72,0,120
2,67,100,0
2,67,0,60
2,68,100,0
2,68,0,180
2,67,100,0
2,67,0,60
2,70,100,0
2,70,0,120
2,72,100,0
2,72,0,120
2,70,100,0
2,70,0,30
2,68,100,0
2,68,0,30
2,67,100,0
2,67,0,6
2,70,100,240
2,70,0,60
2,68,100,0
2,68,0,60
2,67,100,0
2,67,0,60
2,65,100,0
2,65,0,60
2,68,100,0
2,68,0,170
2,67,100,0
2,67,0,30
2,65,100,0
2,65,0,30
2,67,100,0
2,67,0,4
2,72,100,480
2,72,0,82
2,72,100,0
2,72,0,90
2,74,100,0
2,74,0,60
2,75,100,0
2,75,0,90
2,74,100,0
2,74,0,90
2,72,100,0
2,72,0,60
2,70,100,0
2,70,0,260
2,70,100,0
2,70,0,90
2,70,100,0
2,70,0,90
2,72,100,0
2,72,0,60
2,73,100,0
2,73,0,90
2,72,100,0
2,72,0,90
2,70,100,0
2,70,0,60
2,70,100,0
2,70,0,180
2,69,100,0
2,69,0,30
2,67,100,0
2,67,0,30
2,69,100,0
2,69,0,180
2,67,100,0
2,67,0,8
2,72,100,0
2,72,0,82
2,72,100,0
2,72,0,90
2,77,100,0
2,77,0,60
2,75,100,0
2,75,0,90
2,74,100,0
2,74,0,90
2,72,100,0
2,72,0,60
2,70,100,0
2,70,0,180
2,70,100,0
2,70,0,60
2,70,100,0
2,70,0,90
2,72,100,0
2,72,0,90
2,74,100,0
2,74,0,60
2,74,100,0
2,74,0,180
2,75,100,0
2,75,0,46
2,75,100,0
2,75,0,26
2,70,100,108
2,70,0,30
2,77,100,0
2,77,0,30
2,79,100,0
2,79,0,90
2,67,100,0
2,67,0,60
2,70,100,0
2,70,0,2
2,70,100,0
2,70,0,12
2,70,100,264
2,70,0,30
2,77,100,0
2,77,0,30
2,79,100,0
2,79,0,90
2,67,100,0
2,67,0,60
2,72,100,0
2,72,0,60
2,70,100,0
2,70,0,18
2,70,100,134
2,70,0,30
2,77,100,0
2,77,0,30
2,79,100,0
2,79,0,60
2,79,100,0
2,79,0,90
2,79,100,0
2,79,0,60
2,77,100,0
2,77,0,30
2,75,100,0
2,75,0,150
2,77,100,540
2,77,0,30
2,79,100,0
2,79,0,60
2,79,100,0
2,79,0,120
2,75,100,0
2,75,0,30
2,77,100,0
2,77,0,180
2,70,100,510
2,70,0,30
2,80,100,0
2,80,0,30
2,79,100,0
2,79,0,180
2,77,100,0
2,77,0,30
2,79,100,0
2,79,0,2
2,77,100,0
2,77,0,6
2,75,100,0
2,75,0,6
2,72,100,66
2,72,0,60
2,70,100,0
2,70,0,60
2,68,100,0
2,68,0,60
2,67,100,0
2,67,0,60
