track,note,velocity,time
1,34,116,6960
1,34,115,302
1,34,91,130
1,34,117,114
1,34,114,222
1,34,115,76
1,34,116,176
1,34,118,320
1,34,115,160
1,34,91,138
1,34,115,114
1,34,114,178
1,34,113,86
1,34,115,132
1,44,109,88
1,46,110,20
1,34,116,192
1,34,115,302
1,34,91,130
1,34,117,114
1,34,114,222
1,34,115,76
1,34,116,176
1,34,118,320
1,34,115,160
1,34,91,138
1,34,115,114
1,34,114,178
1,34,113,86
1,34,115,132
1,46,109,88
1,34,118,20
1,34,115,160
1,34,91,138
1,34,115,114
1,34,114,178
1,34,113,86
1,34,115,132
1,44,109,88
1,46,110,20
1,34,118,192
1,34,115,160
1,34,91,138
1,34,115,114
1,34,114,178
1,34,113,86
1,34,115,132
1,49,109,88
1,46,109,0
1,34,116,20
1,34,115,302
1,34,91,130
1,34,117,114
1,34,114,222
1,34,115,76
1,34,116,176
1,50,109,34
1,46,109,4
1,34,118,2
1,34,115,160
1,34,91,138
1,34,115,114
1,34,114,178
1,50,108,86
1,46,110,0
1,34,115,12
1,46,111,88
1,50,110,0
1,34,116,2
1,34,115,302
1,34,91,130
1,34,117,114
1,34,114,222
1,34,115,76
1,34,116,176
1,50,109,34
1,46,109,4
1,34,116,2
1,34,115,206
1,34,115,62
1,34,115,34
1,34,114,226
1,34,97,6
1,34,115,76
1,34,116,176
1,34,116,416
1,34,115,206
1,34,115,62
1,34,115,34
1,29,121,226
1,29,95,26
1,32,119,32
1,34,126,16
1,34,89,8
1,37,123,6
1,34,116,2
1,34,115,206
1,34,115,62
1,34,115,34
1,34,114,226
1,34,94,6
1,34,115,76
1,34,116,176
1,34,116,416
1,34,115,206
1,34,115,62
1,34,115,34
1,34,121,226
1,34,95,26
1,34,119,32
1,34,126,16
1,34,89,8
1,37,123,6
1,39,108,2
1,39,104,144
1,39,107,6
1,39,106,6
1,39,108,6
1,39,110,62
1,39,105,28
1,39,90,184
1,39,115,6
1,39,109,6
1,39,107,6
1,39,110,42
1,39,98,16
1,39,92,88
1,39,110,6
1,39,102,6
1,39,110,6
1,39,110,42
1,39,94,8
1,39,109,88
1,39,104,6
1,39,109,6
1,39,107,6
1,34,116,42
1,34,115,206
1,34,93,132
1,34,115,36
1,34,114,226
1,34,115,76
1,34,116,176
1,46,116,32
1,34,116,2
1,34,115,206
1,34,115,158
1,34,115,6
1,34,95,294
1,34,119,32
1,34,126,16
1,34,89,8
1,37,123,6
1,39,108,2
1,39,104,144
1,39,107,6
1,39,110,102
1,39,90,28
1,39,115,6
1,40,108,12
1,40,104,144
1,40,107,6
1,40,110,102
1,40,90,28
1,36,107,6
1,36,92,6
1,36,96,6
1,29,109,6
1,29,107,60
1,29,105,108
1,29,103,50
1,29,105,50
1,29,97,44
1,29,98,56
1,31,96,66
1,31,105,58
1,31,107,102
1,31,102,46
1,31,104,48
1,31,104,48
1,31,108,32
1,32,110,40
1,32,106,84
1,32,107,134
1,32,106,66
1,32,108,40
1,32,108,60
1,32,110,48
1,33,114,26
1,33,122,942
1,34,104,2
1,34,106,106
1,43,104,6
1,34,106,6
1,44,108,6
1,34,104,6
1,43,106,6
1,44,105,6
1,34,110,6
1,34,108,52
1,43,108,6
1,34,108,6
1,44,110,6
1,34,110,6
1,45,110,6
1,46,110,6
1,39,110,6
1,39,105,6
1,41,108,6
1,43,110,6
1,46,104,6
1,46,105,6
1,48,108,6
1,46,110,6
1,34,110,10
1,34,108,52
1,37,108,6
1,38,108,6
1,41,110,6
1,41,110,6
1,43,110,6
1,41,110,6
1,34,104,6
1,34,106,106
1,43,104,6
1,34,106,6
1,44,108,6
1,34,104,6
1,43,106,6
1,44,105,6
1,34,110,6
1,34,108,52
1,43,108,6
1,34,108,6
1,44,110,6
1,34,110,6
1,45,110,6
1,46,110,6
1,39,110,6
1,39,105,6
1,41,108,6
1,43,110,6
1,46,104,6
1,46,105,6
1,48,108,6
1,46,110,6
1,50,108,0
1,48,108,6
1,46,108,6
1,43,110,6
1,41,110,6
1,38,110,6
1,36,110,6
1,34,104,6
1,34,106,16
1,43,104,6
1,34,106,6
1,44,108,6
1,34,104,6
1,43,106,6
1,44,105,6
1,34,110,6
1,34,108,52
1,43,108,6
1,34,108,6
1,44,110,6
1,34,110,6
1,45,110,6
1,46,110,6
1,39,110,6
1,39,105,6
1,37,108,6
1,37,110,6
1,36,104,6
1,36,105,6
1,35,108,6
1,35,110,6
1,34,110,10
1,29,108,52
1,31,108,6
1,29,108,6
1,32,110,6
1,29,110,6
1,33,110,6
1,29,110,6
1,34,104,6
1,34,106,16
1,37,104,6
1,38,106,6
1,41,108,6
1,41,104,6
1,43,106,6
1,41,105,6
1,46,110,6
1,46,108,52
1,44,108,6
1,43,108,6
1,41,110,6
1,41,110,6
1,36,110,6
1,38,110,6
1,32,110,6
1,39,105,6
1,39,105,6
1,34,116,6
1,34,115,302
1,34,91,130
1,34,117,114
1,34,114,222
1,34,115,76
1,34,116,176
1,34,118,320
1,34,115,160
1,34,91,138
1,34,115,114
1,34,114,178
1,34,113,86
1,34,115,132
1,50,109,90
1,46,109,4
1,34,116,2
1,34,115,206
1,34,115,62
1,34,115,34
1,34,114,418
1,34,115,76
1,34,116,176
1,34,116,416
1,34,115,206
1,34,115,62
1,34,115,34
1,29,121,226
1,29,95,26
1,32,119,32
1,34,126,16
1,34,89,8
1,37,123,6
1,34,116,2
1,34,115,206
1,34,115,62
1,34,115,34
1,34,114,418
1,34,115,76
1,34,116,176
1,34,116,416
1,34,115,206
1,34,115,62
1,34,115,34
1,34,121,226
1,34,95,26
1,34,119,32
1,34,126,16
1,34,89,8
1,37,123,6
1,39,108,2
1,39,104,144
1,39,107,6
1,39,106,6
1,39,108,6
1,39,110,62
1,39,105,28
1,39,90,184
1,39,115,6
1,39,109,6
1,39,107,6
1,39,110,42
1,39,98,16
1,39,92,88
1,39,110,6
1,39,102,6
1,39,110,6
1,39,110,42
1,39,94,8
1,39,109,88
1,39,104,6
1,39,109,6
1,39,107,6
1,34,116,42
1,34,115,206
1,34,93,132
1,34,115,36
1,34,114,226
1,34,115,76
1,34,116,176
1,46,116,32
1,39,108,2
1,39,104,144
1,39,107,6
1,39,110,102
1,39,90,28
1,39,115,6
1,40,108,12
1,40,104,144
1,40,107,6
1,40,110,102
1,40,90,28
1,36,107,6
1,36,92,6
1,36,96,6
1,29,109,6
1,29,107,60
1,29,105,108
1,29,103,50
1,29,105,50
1,29,97,44
1,29,98,56
1,31,96,66
1,31,105,58
1,31,107,102
1,31,102,46
1,31,104,48
1,31,104,48
1,31,108,32
1,32,110,40
1,32,106,84
1,32,107,134
1,32,106,66
1,32,108,40
1,32,108,60
1,32,110,48
1,33,114,26
1,33,122,942
1,34,104,2
1,34,106,106
1,43,104,6
1,34,106,6
1,44,108,6
1,34,104,6
1,43,106,6
1,44,105,6
1,34,110,6
1,34,108,52
1,43,108,6
1,34,108,6
1,44,110,6
1,34,110,6
1,45,110,6
1,46,110,6
1,39,110,6
1,39,105,6
1,41,108,6
1,43,110,6
1,46,104,6
1,46,105,6
1,48,108,6
1,46,110,6
1,34,110,10
1,34,108,52
1,37,108,6
1,38,108,6
1,41,110,6
1,41,110,6
1,43,110,6
1,41,110,6
1,34,104,6
1,34,106,106
1,43,104,6
1,34,106,6
1,44,108,6
1,34,104,6
1,43,106,6
1,44,105,6
1,34,110,6
1,34,108,52
1,43,108,6
1,34,108,6
1,44,110,6
1,34,110,6
1,45,110,6
1,46,110,6
1,39,110,6
1,39,105,6
1,41,108,6
1,43,110,6
1,46,104,6
1,46,105,6
1,48,108,6
1,46,110,6
1,50,108,0
1,48,108,6
1,46,108,6
1,43,110,6
1,41,110,6
1,38,110,6
1,36,110,6
1,34,104,6
1,34,106,16
1,43,104,6
1,34,106,6
1,44,108,6
1,34,104,6
1,43,106,6
1,44,105,6
1,34,110,6
1,34,108,52
1,43,108,6
1,34,108,6
1,44,110,6
1,34,110,6
1,45,110,6
1,46,110,6
1,39,110,6
1,39,105,6
1,37,108,6
1,37,110,6
1,36,104,6
1,36,105,6
1,35,108,6
1,35,110,6
1,34,110,10
1,29,108,52
1,31,108,6
1,29,108,6
1,32,110,6
1,29,110,6
1,33,110,6
1,29,110,6
1,34,104,6
1,34,106,16
1,37,104,6
1,38,106,6
1,41,108,6
1,41,104,6
1,43,106,6
1,41,105,6
1,46,110,6
1,46,108,52
1,44,108,6
1,43,108,6
1,41,110,6
1,41,110,6
1,36,110,6
1,38,110,6
1,32,110,6
1,39,105,6
1,39,105,6
1,34,113,6
1,51,98,20454
1,48,90,32
1,29,111,132
1,29,109,6
1,29,90,6
1,29,110,6
1,29,97,6
1,29,109,6
1,29,90,6
1,29,110,6
1,29,97,6
1,29,109,6
1,29,90,6
1,29,108,6
1,29,90,6
1,29,110,6
1,29,90,6
1,29,110,6
1,29,90,6
1,29,109,6
1,29,90,6
1,29,108,6
1,29,90,6
1,29,110,6
1,29,90,6
1,29,110,6
1,29,90,6
1,29,109,6
1,29,90,6
1,29,108,6
1,29,90,6
1,29,110,6
1,29,90,6
1,29,110,6
1,29,90,6
1,34,114,3078
1,39,114,774
1,34,110,6
1,34,108,52
1,43,108,6
1,34,108,6
1,44,110,6
1,34,110,6
1,45,110,6
1,46,110,6
1,39,110,6
1,39,105,6
1,41,108,6
1,43,110,6
1,46,104,6
1,46,105,6
1,48,108,6
1,46,110,6
1,46,110,10
1,46,108,52
1,43,108,6
1,43,108,6
1,41,110,6
1,41,110,6
1,36,110,6
1,38,110,6
1,34,104,6
1,34,106,106
1,43,104,6
1,34,106,6
1,44,108,6
1,34,104,6
1,43,106,6
1,44,105,6
1,34,110,6
1,34,108,52
1,43,108,6
1,34,108,6
1,44,110,6
1,34,110,6
1,45,110,6
1,46,110,6
1,39,110,6
1,39,105,6
1,37,108,6
1,37,110,6
1,36,104,6
1,36,105,6
1,35,108,6
1,35,110,6
1,34,110,10
1,34,108,52
1,31,108,6
1,31,108,6
1,32,110,6
1,32,104,6
1,33,110,6
1,33,101,6
1,34,104,6
1,34,106,16
1,37,104,6
1,38,106,6
1,41,108,6
1,41,104,6
1,43,106,6
1,41,105,6
1,46,110,6
1,46,108,52
1,44,108,6
1,43,108,6
1,41,110,6
1,41,110,6
1,36,110,6
1,38,110,6
1,39,110,6
1,39,105,6
1,41,108,6
1,43,110,6
1,46,104,6
1,46,105,6
1,48,108,6
1,46,110,6
1,50,110,10
1,53,108,24
1,55,108,6
1,53,108,6
1,50,110,6
1,46,110,6
1,43,110,6
1,41,110,6
1,34,104,6
1,34,106,106
1,43,104,6
1,34,106,6
1,44,108,6
1,34,104,6
1,43,106,6
1,44,105,6
1,34,110,6
1,34,108,52
1,43,108,6
1,34,108,6
1,44,110,6
1,34,110,6
1,45,110,6
1,46,110,6
1,39,110,6
1,39,105,6
1,41,108,6
1,43,110,6
1,46,104,6
1,46,105,6
1,48,108,6
1,46,110,6
1,34,110,10
1,34,108,52
1,31,108,6
1,31,108,6
1,29,110,6
1,29,104,6
1,31,110,6
1,31,101,6
1,34,110,6
1,34,108,52
1,31,108,6
1,31,108,6
1,29,110,6
1,29,104,6
1,31,110,6
1,31,101,6
1,34,110,6
1,34,108,52
1,36,108,6
1,38,108,6
1,39,110,6
1,39,110,6
1,40,110,6
1,41,110,6
1,41,110,6
1,29,108,52
1,31,108,6
1,29,108,6
1,32,110,6
1,29,110,6
1,33,110,6
1,29,110,6
1,34,110,6
1,34,108,52
1,31,108,6
1,31,108,6
1,29,110,6
1,29,104,6
1,31,110,6
1,31,101,6
1,34,110,6
1,34,108,52
1,31,108,6
1,31,108,6
1,29,110,6
1,29,104,6
1,31,110,6
1,31,101,6
1,46,110,6
1,58,105,6
1,44,108,6
1,56,110,6
1,43,104,6
1,55,105,6
1,42,108,6
1,54,110,6
1,53,110,10
1,29,108,6
1,31,108,6
1,29,108,6
1,32,110,6
1,29,110,6
1,33,110,6
1,29,110,6
1,34,110,6
1,34,108,52
1,31,108,6
1,31,108,6
1,29,110,6
1,29,104,6
1,31,110,6
1,31,101,6
1,34,110,6
1,34,108,52
1,37,108,6
1,38,108,6
1,41,110,6
1,41,104,6
1,43,110,6
1,41,101,6
1,46,110,6
1,46,105,6
1,43,108,6
1,43,110,6
1,41,104,6
1,41,105,6
1,43,108,6
1,41,110,6
1,46,110,10
1,50,108,0
1,48,108,6
1,46,108,6
1,43,110,6
1,41,110,6
1,38,110,6
1,36,110,6
1,34,104,6
1,34,106,10
1,37,104,6
1,38,106,6
1,41,108,6
1,41,104,6
1,43,106,6
1,41,105,6
1,46,110,6
1,46,108,6
1,43,108,6
1,41,108,6
1,46,110,6
1,46,110,6
1,44,120,2310
1,43,119,22
1,44,123,2302
1,43,118,36
1,39,121,1654
1,39,125,100
1,34,116,2380
1,34,115,302
1,34,91,130
1,34,117,114
1,34,114,222
1,34,115,76
1,34,116,176
1,46,109,38
2,51,93,34
2,55,93,0
2,58,93,0
2,51,78,6108
2,58,78,0
2,55,78,0
2,52,78,6
2,67,107,4998
2,67,106,160
2,67,106,186
2,65,106,54
2,67,105,836
2,65,107,14
2,67,105,988
2,67,105,186
2,67,104,214
2,67,106,88
2,67,106,144
2,65,107,110
2,65,106,1206
2,67,105,836
2,65,107,14
2,67,104,1180
2,67,104,214
2,67,104,22
2,67,104,214
2,67,106,22
2,65,107,110
2,65,106,1206
2,67,105,836
2,65,107,14
2,67,105,988
2,67,105,186
2,67,104,214
2,67,106,88
2,67,106,144
2,65,107,110
2,65,106,1206
2,67,105,836
2,65,107,14
2,68,104,1180
2,68,104,68
2,68,104,68
2,68,104,74
2,67,104,22
2,67,106,214
2,70,107,110
2,65,110,7734
2,65,110,196
2,70,99,3844
2,70,103,94
2,70,104,84
2,62,99,148
2,63,97,132
2,65,100,42
2,65,100,92
2,51,93,34
2,55,93,0
2,58,93,0
2,51,78,3036
2,55,78,0
2,58,78,0
2,52,78,6
2,65,106,6150
2,67,105,836
2,65,107,14
2,67,105,988
2,67,105,186
2,67,104,214
2,67,106,88
2,67,106,144
2,65,107,110
2,67,106,822
2,65,106,6
2,67,105,836
2,65,107,14
2,67,104,1180
2,67,104,214
2,67,104,22
2,67,104,214
2,67,106,22
2,65,107,110
2,65,106,1206
2,67,105,836
2,65,107,14
2,67,105,988
2,67,105,186
2,67,104,214
2,67,106,88
2,67,106,144
2,65,107,110
2,65,106,1206
2,67,105,836
2,65,107,14
2,68,104,1180
2,68,104,68
2,68,104,68
2,68,104,74
2,67,104,22
2,67,106,214
2,70,107,110
2,53,105,2742
2,53,103,224
2,53,106,244
2,53,105,244
2,53,106,1012
2,53,107,244
2,53,106,244
2,53,107,244
2,53,106,1012
2,53,106,244
2,53,105,244
2,53,106,244
2,65,107,24052
2,67,105,988
2,67,105,186
2,67,104,214
2,67,106,88
2,67,106,144
2,65,107,110
2,65,106,1206
2,67,105,836
2,65,107,14
2,67,104,1180
2,67,104,214
2,67,104,22
2,67,104,214
2,67,106,22
2,65,107,110
2,65,106,1206
2,67,105,836
2,65,107,14
2,67,105,988
2,67,105,186
2,67,104,214
2,67,106,88
2,67,106,144
2,65,107,110
2,65,106,1206
2,67,105,836
2,65,107,14
2,68,104,1180
2,68,104,68
2,68,104,68
2,68,104,74
2,67,104,22
2,67,106,214
2,70,107,110
2,65,107,1206
2,67,105,988
2,67,105,186
2,67,104,214
2,67,106,88
2,67,106,144
2,65,107,110
2,65,106,1206
2,67,105,836
2,65,107,14
2,67,104,1180
2,67,104,214
2,67,104,22
2,67,104,214
2,67,106,22
2,65,107,110
2,65,106,1206
2,67,105,836
2,65,107,14
2,67,105,988
2,67,105,186
2,67,104,214
2,67,106,88
2,67,106,144
2,65,107,110
2,65,106,1206
2,67,105,836
2,65,107,14
2,70,104,9628
2,67,102,62
2,67,102,82
2,65,103,46
2,73,101,192
2,73,98,92
2,73,101,70
2,73,101,92
2,73,100,92
2,73,103,154
2,70,99,174
3,67,123,34986
3,65,123,54
3,58,123,100
