track,note,velocity,time
1,68,100,1536
1,61,100,0
1,70,100,64
1,63,100,0
1,70,100,448
1,63,100,0
1,70,100,192
1,63,100,0
1,70,100,448
1,63,100,0
1,70,100,64
1,63,100,0
1,70,100,64
1,63,100,0
1,70,100,128
1,63,100,0
1,68,100,128
1,61,100,0
1,63,100,4
1,70,100,0
1,70,100,388
1,63,100,0
1,70,100,4
1,63,100,0
1,70,100,388
1,63,100,0
1,70,100,4
1,63,100,0
1,73,100,4
1,66,100,0
1,73,100,4
1,66,100,0
1,68,100,4
1,61,100,0
1,68,100,4
1,61,100,0
1,70,100,64
1,63,100,0
1,70,100,448
1,63,100,0
1,70,100,192
1,63,100,0
1,70,100,448
1,63,100,0
1,70,100,64
1,63,100,0
1,70,100,64
1,63,100,0
1,70,100,128
1,63,100,0
1,68,100,128
1,61,100,0
1,70,100,64
1,63,100,0
1,70,100,448
1,63,100,0
1,70,100,192
1,63,100,0
1,70,100,448
1,63,100,0
1,70,100,64
1,63,100,0
1,70,100,64
1,63,100,0
1,70,100,128
1,63,100,0
1,70,100,128
1,78,100,0
1,78,100,4
1,78,100,4
1,78,100,4
1,78,100,4
1,78,100,4
1,78,100,4
1,78,100,4
1,78,100,4
1,77,100,4
1,75,100,4
1,73,100,4
1,73,100,4
1,75,100,4
1,70,100,2308
1,78,100,0
1,78,100,4
1,78,100,4
1,78,100,4
1,78,100,4
1,78,100,4
1,78,100,4
1,78,100,4
1,78,100,4
1,77,100,4
1,75,100,4
1,73,100,4
1,73,100,4
1,75,100,4
1,63,100,772
1,58,100,0
1,73,100,4
1,68,100,0
1,80,100,0
1,78,100,4
1,77,100,4
1,75,100,4
1,70,100,0
1,66,100,0
1,75,100,4
1,75,100,4
1,70,100,0
1,66,100,0
1,75,100,580
1,70,100,0
1,63,100,0
1,75,100,292
1,70,100,0
1,63,100,0
1,80,100,580
1,73,100,0
1,68,100,0
1,78,100,4
1,77,100,4
1,75,100,4
1,71,100,0
1,66,100,0
1,78,100,4
1,75,100,4
1,78,100,4
1,71,100,0
1,66,100,0
1,70,100,4
1,78,100,0
1,78,100,4
1,78,100,4
1,78,100,4
1,78,100,4
1,78,100,4
1,78,100,4
1,78,100,4
1,78,100,4
1,77,100,4
1,75,100,4
1,73,100,4
1,73,100,4
1,75,100,4
1,70,100,1732
1,70,100,4
1,70,100,4
1,70,100,4
1,78,100,0
1,78,100,4
1,78,100,4
1,78,100,4
1,78,100,4
1,78,100,4
1,78,100,4
1,78,100,4
1,78,100,4
1,77,100,4
1,75,100,4
1,73,100,4
1,73,100,4
1,75,100,4
1,63,100,772
1,58,100,0
1,73,100,4
1,68,100,0
1,80,100,0
1,78,100,4
1,77,100,4
1,75,100,4
1,70,100,0
1,66,100,0
1,75,100,4
1,75,100,4
1,70,100,0
1,66,100,0
1,75,100,580
1,70,100,0
1,63,100,0
1,75,100,292
1,70,100,0
1,63,100,0
1,75,100,4
1,75,100,4
1,78,100,4
1,80,100,4
1,75,100,0
1,71,100,0
1,78,100,4
1,77,100,4
1,73,100,0
1,68,100,0
1,75,100,4
1,71,100,0
1,66,100,0
1,75,100,4
1,75,100,4
1,78,100,4
1,78,100,4
1,66,100,0
1,71,100,0
1,73,100,196
1,75,100,4
1,73,100,4
1,78,100,4
1,71,100,0
1,68,100,0
1,80,100,4
1,80,100,4
1,75,100,4
1,75,100,4
1,75,100,4
1,75,100,4
1,75,100,4
1,75,100,4
1,75,100,4
1,75,100,4
1,75,100,4
1,73,100,4
1,70,100,0
1,66,100,0
1,78,100,0
1,80,100,4
1,80,100,4
1,75,100,4
1,75,100,4
1,73,100,4
1,75,100,868
1,75,100,4
1,75,100,4
1,78,100,4
1,71,100,0
1,66,100,0
1,80,100,4
1,80,100,4
1,75,100,4
1,75,100,4
1,75,100,4
1,75,100,4
1,75,100,4
1,75,100,4
1,75,100,4
1,75,100,4
1,75,100,4
1,82,100,4
1,77,100,0
1,73,100,0
1,80,100,4
1,80,100,4
1,78,100,4
1,82,100,4
1,75,100,4
1,70,100,0
1,63,100,0
1,75,100,4
1,70,100,0
1,63,100,0
1,78,100,4
1,71,100,0
1,66,100,0
1,78,100,4
1,71,100,0
1,66,100,0
1,68,100,4
1,61,100,0
1,70,100,64
1,63,100,0
1,70,100,448
1,63,100,0
1,70,100,192
1,63,100,0
1,70,100,448
1,63,100,0
1,70,100,64
1,63,100,0
1,70,100,64
1,63,100,0
1,70,100,128
1,63,100,0
1,68,100,128
1,61,100,0
1,63,100,4
1,70,100,0
1,70,100,388
1,63,100,0
1,70,100,4
1,63,100,0
1,70,100,388
1,63,100,0
1,70,100,4
1,63,100,0
1,73,100,4
1,66,100,0
1,73,100,4
1,66,100,0
1,68,100,4
1,61,100,0
1,68,100,4
1,61,100,0
1,70,100,64
1,63,100,0
1,70,100,448
1,63,100,0
1,70,100,192
1,63,100,0
1,70,100,448
1,63,100,0
1,70,100,64
1,63,100,0
1,70,100,64
1,63,100,0
1,70,100,128
1,63,100,0
1,68,100,128
1,61,100,0
1,70,100,64
1,63,100,0
1,70,100,448
1,63,100,0
1,70,100,192
1,63,100,0
1,70,100,448
1,63,100,0
1,70,100,64
1,63,100,0
1,70,100,64
1,63,100,0
1,70,100,128
1,63,100,0
1,70,100,128
1,78,100,0
1,78,100,4
1,78,100,4
1,78,100,4
1,78,100,4
1,78,100,4
1,78,100,4
1,78,100,4
1,78,100,4
1,77,100,4
1,75,100,4
1,73,100,4
1,73,100,4
1,75,100,4
1,70,100,2308
1,78,100,0
1,78,100,4
1,78,100,4
1,78,100,4
1,78,100,4
1,78,100,4
1,78,100,4
1,78,100,4
1,78,100,4
1,77,100,4
1,75,100,4
1,73,100,4
1,73,100,4
1,75,100,4
1,63,100,772
1,58,100,0
1,73,100,4
1,68,100,0
1,80,100,0
1,78,100,4
1,77,100,4
1,75,100,4
1,70,100,0
1,66,100,0
1,75,100,4
1,75,100,4
1,70,100,0
1,66,100,0
1,75,100,388
1,70,100,0
1,63,100,0
1,75,100,484
1,70,100,0
1,63,100,0
1,75,100,4
1,75,100,4
1,78,100,4
1,73,100,4
1,68,100,0
1,80,100,0
1,78,100,4
1,77,100,4
1,75,100,4
1,70,100,0
1,66,100,0
1,75,100,4
1,75,100,4
1,70,100,0
1,66,100,0
1,75,100,388
1,70,100,0
1,63,100,0
1,75,100,484
1,70,100,0
1,63,100,0
1,73,100,388
1,71,100,0
1,80,100,0
1,78,100,4
1,82,100,4
1,73,100,0
1,82,100,4
1,73,100,0
1,75,100,4
1,71,100,0
1,82,100,0
1,82,100,4
1,82,100,4
1,80,100,196
1,78,100,4
1,80,100,4
1,73,100,0
1,68,100,0
1,78,100,4
1,82,100,4
1,82,100,772
1,82,100,4
1,75,100,0
1,70,100,0
1,82,100,4
1,82,100,4
1,75,100,0
1,70,100,0
1,70,100,4
1,63,100,0
1,75,100,0
1,75,100,4
1,70,100,0
1,63,100,0
1,75,100,196
1,70,100,0
1,63,100,0
1,75,100,196
1,70,100,0
1,63,100,0
1,75,100,4
1,70,100,0
1,63,100,0
1,75,100,4
1,70,100,0
1,63,100,0
1,70,100,1540
1,63,100,0
1,75,100,0
1,75,100,4
1,70,100,0
1,63,100,0
1,75,100,196
1,70,100,0
1,63,100,0
1,75,100,196
1,70,100,0
1,63,100,0
1,75,100,4
1,70,100,0
1,63,100,0
1,75,100,4
1,70,100,0
1,63,100,0
1,73,100,1540
1,68,100,0
1,80,100,0
1,78,100,4
1,77,100,4
1,75,100,4
1,70,100,0
1,66,100,0
1,75,100,4
1,75,100,4
1,70,100,0
1,66,100,0
1,75,100,388
1,70,100,0
1,63,100,0
1,75,100,484
1,70,100,0
1,63,100,0
1,75,100,4
1,75,100,4
1,78,100,4
1,73,100,4
1,68,100,0
1,80,100,0
1,78,100,4
1,77,100,4
1,75,100,4
1,70,100,0
1,66,100,0
1,75,100,4
1,75,100,4
1,70,100,0
1,66,100,0
1,75,100,388
1,70,100,0
1,63,100,0
1,75,100,484
1,70,100,0
1,63,100,0
1,73,100,388
1,71,100,0
1,80,100,0
1,78,100,4
1,82,100,4
1,73,100,0
1,82,100,4
1,73,100,0
1,75,100,4
1,71,100,0
1,82,100,0
1,82,100,4
1,82,100,4
1,80,100,196
1,78,100,4
1,80,100,4
1,73,100,0
1,68,100,0
1,78,100,4
1,82,100,4
1,82,100,772
1,82,100,4
1,75,100,0
1,70,100,0
1,82,100,4
1,82,100,4
1,75,100,0
1,70,100,0
1,73,100,4
1,68,100,0
1,80,100,0
1,78,100,4
1,77,100,4
1,75,100,4
1,70,100,0
1,66,100,0
1,75,100,4
1,75,100,4
1,70,100,0
1,66,100,0
1,75,100,388
1,70,100,0
1,63,100,0
1,75,100,484
1,70,100,0
1,63,100,0
1,75,100,4
1,75,100,4
1,78,100,4
1,73,100,4
1,68,100,0
1,80,100,0
1,78,100,4
1,77,100,4
1,75,91,4
1,70,91,0
1,66,91,0
1,75,88,4
1,75,87,4
1,70,87,0
1,66,87,0
1,75,81,388
1,70,81,0
1,63,81,0
1,75,78,484
1,70,78,0
1,63,78,0
1,73,73,388
1,71,73,0
1,80,73,0
1,78,69,4
1,82,64,4
1,73,64,0
1,82,60,4
1,73,60,0
1,75,55,4
1,71,55,0
1,82,55,0
1,82,53,4
1,82,52,4
1,80,46,196
1,78,45,4
1,80,37,4
1,73,37,0
1,68,37,0
1,78,32,4
1,82,28,4
1,82,21,772
1,82,19,4
1,75,19,0
1,70,19,0
1,82,16,4
1,82,15,4
1,75,15,0
1,70,15,0
2,37,100,192
2,39,100,64
2,42,100,64
2,44,100,64
2,42,100,128
2,39,100,128
2,37,100,700
2,39,100,64
2,42,100,64
2,44,100,64
2,42,100,128
2,39,100,128
2,37,100,700
2,39,100,4
2,42,100,4
2,44,100,4
2,42,100,4
2,37,100,4
2,32,100,4
2,37,100,4
2,39,100,4
2,37,100,4
2,32,100,4
2,37,100,4
2,37,100,4
2,39,100,4
2,39,100,4
2,39,100,4
2,37,100,196
2,39,100,4
2,42,100,4
2,44,100,4
2,42,100,4
2,39,100,4
2,39,100,4
2,39,100,4
2,37,100,196
2,39,100,4
2,42,100,4
2,44,100,4
2,42,100,4
2,51,100,4
2,46,100,0
2,39,100,0
2,51,100,4
2,46,100,0
2,39,100,0
2,37,100,4
2,37,100,4
2,37,100,4
2,37,100,4
2,37,100,4
2,37,100,4
2,39,100,4
2,39,100,4
2,39,100,4
2,37,100,196
2,39,100,4
2,42,100,4
2,44,100,4
2,42,100,4
2,37,100,4
2,37,100,4
2,37,100,4
2,37,100,4
2,37,100,4
2,37,100,4
2,35,100,4
2,35,100,4
2,35,100,4
2,35,100,4
2,35,100,4
2,35,100,4
2,35,100,4
2,35,100,4
2,35,100,4
2,35,100,4
2,35,100,4
2,35,100,4
2,35,100,4
2,35,100,4
2,51,100,4
2,46,100,0
2,39,100,0
2,51,100,4
2,46,100,0
2,39,100,0
2,37,100,4
2,37,100,4
2,37,100,4
2,37,100,4
2,37,100,4
2,37,100,4
2,39,100,4
2,39,100,4
2,39,100,4
2,37,100,196
2,39,100,4
2,42,100,4
2,44,100,4
2,42,100,4
2,35,100,4
2,35,100,4
2,35,100,4
2,37,100,4
2,37,100,4
2,37,100,4
2,35,100,4
2,35,100,4
2,35,100,4
2,35,100,4
2,35,100,4
2,35,100,4
2,35,100,4
2,35,100,4
2,35,100,4
2,35,100,4
2,35,100,4
2,35,100,4
2,35,100,4
2,35,100,4
2,44,100,4
2,44,100,4
2,44,100,4
2,39,100,4
2,44,100,4
2,39,100,4
2,44,100,4
2,42,100,4
2,42,100,4
2,42,100,4
2,37,100,4
2,42,100,4
2,37,100,4
2,42,100,4
2,42,100,4
2,47,100,4
2,47,100,4
2,47,100,4
2,42,100,4
2,47,100,4
2,42,100,4
2,47,100,4
2,47,100,4
2,49,100,4
2,49,100,4
2,49,100,4
2,44,100,4
2,49,100,4
2,44,100,4
2,49,100,4
2,37,100,4
2,39,100,4
2,39,100,4
2,39,100,4
2,39,100,4
2,39,100,4
2,39,100,4
2,39,100,4
2,39,100,4
2,39,100,4
2,39,100,4
2,39,100,4
2,39,100,4
2,39,100,4
2,39,100,4
2,39,100,4
2,39,100,4
2,39,100,4
2,39,100,4
2,39,100,4
2,39,100,4
2,39,100,4
2,39,100,4
2,39,100,4
2,39,100,4
2,39,100,4
2,37,100,700
2,39,100,64
2,42,100,64
2,44,100,64
2,42,100,128
2,39,100,128
2,37,100,700
2,39,100,4
2,42,100,4
2,44,100,4
2,42,100,4
2,37,100,4
2,37,100,196
2,39,100,4
2,37,100,4
2,37,100,196
2,37,100,4
2,39,100,4
2,39,100,4
2,39,100,4
2,37,100,196
2,39,100,4
2,42,100,4
2,44,100,4
2,42,100,4
2,39,100,4
2,39,100,4
2,39,100,4
2,37,100,196
2,39,100,4
2,42,100,4
2,44,100,4
2,42,100,4
2,51,100,4
2,46,100,0
2,39,100,0
2,51,100,4
2,46,100,0
2,39,100,0
2,37,100,4
2,37,100,4
2,37,100,4
2,37,100,4
2,39,100,4
2,39,100,4
2,39,100,4
2,37,100,196
2,39,100,4
2,42,100,4
2,44,100,4
2,42,100,4
2,37,100,4
2,37,100,4
2,37,100,4
2,37,100,4
2,37,100,4
2,37,100,4
2,39,100,4
2,39,100,4
2,39,100,4
2,37,100,196
2,39,100,4
2,42,100,4
2,44,100,4
2,42,100,4
2,47,100,4
2,47,100,4
2,47,100,4
2,47,100,4
2,47,100,4
2,47,100,4
2,44,100,4
2,44,100,4
2,44,100,4
2,42,100,4
2,44,100,4
2,42,100,4
2,44,100,4
2,37,100,4
2,37,100,4
2,37,100,4
2,37,100,4
2,37,100,4
2,37,100,4
2,39,100,4
2,39,100,4
2,39,100,4
2,39,100,4
2,39,100,4
2,39,100,4
2,39,100,4
2,39,100,4
2,39,100,4
2,39,100,4
2,39,100,4
2,39,100,4
2,39,100,4
2,39,100,4
2,39,100,4
2,39,100,4
2,39,100,4
2,39,100,4
2,39,100,4
2,39,100,4
2,39,100,4
2,39,100,4
2,39,100,4
2,39,100,4
2,39,100,196
2,39,100,4
2,39,100,4
2,37,100,4
2,37,100,4
2,37,100,4
2,37,100,4
2,39,100,4
2,39,100,4
2,39,100,4
2,37,100,196
2,39,100,4
2,42,100,4
2,44,100,4
2,42,100,4
2,37,100,4
2,37,100,4
2,37,100,4
2,37,100,4
2,37,100,4
2,37,100,4
2,39,100,4
2,39,100,4
2,39,100,4
2,37,100,196
2,39,100,4
2,42,100,4
2,44,100,4
2,42,100,4
2,47,100,4
2,47,100,4
2,47,100,4
2,47,100,4
2,47,100,4
2,47,100,4
2,44,100,4
2,44,100,4
2,44,100,4
2,42,100,4
2,44,100,4
2,42,100,4
2,44,100,4
2,37,100,4
2,37,100,4
2,37,100,4
2,37,100,4
2,37,100,4
2,37,100,4
2,39,100,4
2,39,100,4
2,39,100,4
2,39,100,4
2,39,100,4
2,39,100,4
2,39,100,4
2,37,100,4
2,37,100,4
2,37,100,4
2,37,100,4
2,39,100,4
2,39,100,4
2,39,100,4
2,37,100,196
2,39,100,4
2,42,100,4
2,44,100,4
2,42,100,4
2,37,100,4
2,37,100,4
2,37,100,4
2,37,100,4
2,37,97,4
2,37,96,4
2,39,91,4
2,39,88,4
2,39,87,4
2,37,81,196
2,39,80,4
2,42,79,4
2,44,78,4
2,42,75,4
2,47,73,4
2,47,70,4
2,47,69,4
2,47,64,4
2,47,61,4
2,47,60,4
2,44,55,4
2,44,52,4
2,44,50,4
2,42,46,4
2,44,45,4
2,42,43,4
2,44,41,4
2,37,37,4
2,37,33,4
2,37,32,4
2,37,28,4
2,37,24,4
2,37,23,4
2,39,19,4
2,39,15,4
2,39,14,4
2,39,10,4
2,39,6,4
2,39,5,4
2,39,3,4
3,68,100,1536
3,61,100,0
3,70,100,64
3,63,100,0
3,70,100,448
3,63,100,0
3,70,100,192
3,63,100,0
3,70,100,448
3,63,100,0
