track,note,velocity,time
0,56,80,36
0,66,16,0
0,73,118,0
0,85,118,0
0,56,0,4
0,66,0,0
0,73,0,0
0,85,0,0
0,66,14,20
0,66,0,4
0,66,13,20
0,66,0,4
0,66,14,20
0,66,0,4
0,66,18,20
0,73,100,0
0,85,100,0
0,66,0,4
0,73,0,0
0,85,0,0
0,66,14,20
0,66,0,4
0,66,14,20
0,73,90,0
0,85,90,0
0,66,0,4
0,73,0,0
0,85,0,0
0,66,18,20
0,66,0,4
0,56,77,20
0,66,19,0
0,73,120,0
0,85,120,0
0,56,0,4
0,66,0,0
0,73,0,0
0,85,0,0
0,66,15,20
0,66,0,4
0,66,18,20
0,66,0,4
0,66,19,20
0,66,0,4
0,66,21,20
0,73,110,0
0,85,110,0
0,66,0,4
0,73,0,0
0,85,0,0
0,66,13,20
0,66,0,4
0,66,18,20
0,73,86,0
0,85,86,0
0,66,0,4
0,73,0,0
0,85,0,0
0,66,21,20
0,66,0,4
0,56,84,20
0,66,24,0
0,73,123,0
0,85,123,0
0,56,0,4
0,66,0,0
0,73,0,0
0,85,0,0
0,66,18,20
0,66,0,4
0,66,19,20
0,66,0,4
0,66,22,20
0,66,0,4
0,66,26,20
0,73,105,0
0,85,105,0
0,66,0,4
0,73,0,0
0,85,0,0
0,66,15,20
0,66,0,4
0,66,21,13
0,73,88,0
0,85,88,0
0,66,0,4
0,73,0,0
0,85,0,0
0,66,27,20
0,66,0,3
0,56,80,20
0,66,32,0
0,73,120,0
0,85,120,0
0,56,0,4
0,66,0,0
0,73,0,0
0,85,0,0
0,66,21,20
0,66,0,4
0,66,22,16
0,66,0,4
0,66,27,20
0,66,0,4
0,66,36,20
0,73,90,0
0,85,90,0
0,66,0,4
0,73,0,0
0,85,0,0
0,66,24,20
0,66,0,4
0,66,27,20
0,73,98,0
0,85,98,0
0,66,0,4
0,73,0,0
0,85,0,0
0,66,30,20
0,66,0,4
0,56,84,20
0,66,37,0
0,73,115,0
0,85,115,0
0,56,0,4
0,66,0,0
0,73,0,0
0,85,0,0
0,66,32,20
0,66,0,4
0,66,37,20
0,66,0,4
0,66,45,20
0,66,0,4
0,66,54,20
0,73,103,0
0,85,103,0
0,66,0,4
0,73,0,0
0,85,0,0
0,66,41,20
0,66,0,4
0,66,47,20
0,73,89,0
0,85,89,0
0,66,0,4
0,73,0,0
0,85,0,0
0,66,65,20
0,66,0,4
0,56,80,20
0,66,56,0
0,73,120,0
0,85,120,0
0,56,0,4
0,66,0,0
0,73,0,0
0,85,0,0
0,66,50,20
0,66,0,4
0,66,56,20
0,66,0,4
0,66,65,20
0,66,0,4
0,66,73,20
0,73,99,0
0,85,99,0
0,66,0,4
0,73,0,0
0,85,0,0
0,66,61,20
0,66,0,4
0,66,69,20
0,73,88,0
0,85,88,0
0,66,0,4
0,73,0,0
0,85,0,0
0,66,82,20
0,66,0,4
0,56,77,20
0,66,72,0
0,73,118,0
0,85,118,0
0,56,0,4
0,66,0,0
0,73,0,0
0,85,0,0
0,66,68,20
0,66,0,4
0,66,80,20
0,66,0,4
0,66,90,20
0,66,0,4
0,66,86,20
0,73,99,0
0,85,99,0
0,66,0,4
0,73,0,0
0,85,0,0
0,66,85,20
0,66,0,4
0,66,97,20
0,73,94,0
0,85,94,0
0,66,0,4
0,73,0,0
0,85,0,0
0,66,110,20
0,66,0,4
0,56,74,20
0,66,101,0
0,73,123,0
0,85,123,0
0,56,0,4
0,66,0,0
0,73,0,0
0,85,0,0
0,66,92,20
0,66,0,4
0,66,98,20
0,66,0,4
0,66,114,20
0,66,0,4
0,66,112,20
0,73,99,0
0,85,99,0
0,66,0,4
0,73,0,0
0,85,0,0
0,66,108,20
0,66,0,4
0,66,114,20
0,73,89,0
0,85,89,0
0,66,0,4
0,73,0,0
0,85,0,0
0,66,114,20
0,66,0,4
0,35,121,2
0,52,104,0
0,56,80,0
0,57,59,0
0,64,80,0
0,73,118,0
0,85,118,0
0,36,103,1
0,35,0,3
0,52,0,0
0,56,0,0
0,57,0,0
0,64,0,0
0,73,0,0
0,85,0,0
0,72,84,90
0,75,67,0
0,73,100,2
0,85,100,0
0,67,71,1
0,96,105,0
0,73,0,3
0,85,0,0
0,36,0,6
0,67,0,12
0,72,0,0
0,75,0,0
0,67,60,24
0,72,81,0
0,75,62,0
0,96,0,0
0,64,51,2
0,73,90,0
0,85,90,0
0,36,95,1
0,64,0,3
0,73,0,0
0,85,0,0
0,35,115,2
0,56,77,0
0,64,74,0
0,73,120,0
0,85,120,0
0,39,78,1
0,99,92,0
0,35,0,3
0,56,0,0
0,64,0,0
0,73,0,0
0,85,0,0
0,36,0,11
0,99,0,24
0,64,52,9
0,101,86,1
0,64,0,3
0,72,0,5
0,75,0,0
0,67,0,3
0,67,71,31
0,72,80,0
0,75,62,0
0,64,64,2
0,73,110,0
0,85,110,0
0,43,87,1
0,64,0,3
0,73,0,0
0,85,0,0
0,101,0,5
0,39,0,1
0,73,86,38
0,85,86,0
0,103,105,1
0,73,0,3
0,85,0,0
0,43,0,30
0,35,125,2
0,56,84,0
0,64,80,0
0,73,123,0
0,85,123,0
0,31,90,1
0,35,0,3
0,56,0,0
0,64,0,0
0,73,0,0
0,85,0,0
0,103,0,2
0,67,0,27
0,72,0,1
0,75,0,0
0,103,93,15
0,67,51,39
0,71,78,0
0,74,84,0
0,31,0,7
0,73,105,1
0,85,105,0
0,73,0,4
0,85,0,0
0,103,0,2
0,71,0,17
0,74,0,3
0,67,0,2
0,67,51,16
0,71,70,0
0,74,72,0
0,103,98,2
0,64,53,2
0,73,88,0
0,85,88,0
0,31,90,1
0,64,0,3
0,73,0,0
0,85,0,0
0,35,81,42
0,101,112,0
0,35,121,2
0,56,80,0
0,64,74,0
0,73,120,0
0,85,120,0
0,35,0,4
0,56,0,0
0,64,0,0
0,73,0,0
0,85,0,0
0,103,0,8
0,31,0,3
0,64,52,33
0,64,0,4
0,71,0,2
0,74,0,1
0,67,0,2
0,64,64,2
0,73,90,0
0,85,90,0
0,38,81,1
0,99,103,0
0,64,0,3
0,73,0,0
0,85,0,0
0,67,70,2
0,71,80,0
0,74,84,0
0,35,0,12
0,101,0,0
0,73,98,30
0,85,98,0
0,73,0,4
0,85,0,0
0,38,0,34
0,99,0,6
0,35,125,2
0,56,84,0
0,64,80,0
0,73,115,0
0,85,115,0
0,36,104,1
0,35,0,3
0,56,0,0
0,64,0,0
0,73,0,0
0,85,0,0
0,67,0,37
0,71,0,1
0,74,0,2
0,36,0,45
0,67,66,3
0,72,74,0
0,75,61,0
0,73,103,4
0,85,103,0
0,96,107,1
0,73,0,3
0,85,0,0
0,72,0,16
0,75,0,3
0,67,0,3
0,67,46,17
0,75,57,0
0,72,79,3
0,64,51,2
0,73,89,0
0,85,89,0
0,36,90,1
0,64,0,3
0,73,0,0
0,85,0,0
0,96,0,8
0,35,121,2
0,56,80,0
0,64,74,0
0,73,120,0
0,85,120,0
0,39,81,1
0,99,104,0
0,35,0,3
0,56,0,0
0,64,0,0
0,73,0,0
0,85,0,0
0,36,0,8
0,99,0,22
0,64,52,14
0,101,95,1
0,64,0,3
0,75,0,3
0,67,0,2
0,72,0,5
0,67,65,30
0,72,78,0
0,75,60,0
0,64,64,2
0,73,99,0
0,85,99,0
0,43,88,1
0,64,0,3
0,73,0,0
0,85,0,0
0,101,0,5
0,39,0,6
0,73,88,33
0,85,88,0
0,103,102,1
0,73,0,3
0,85,0,0
0,43,0,37
0,35,115,2
0,56,77,0
0,64,80,0
0,73,118,0
0,85,118,0
0,31,88,1
0,35,0,3
0,56,0,0
0,64,0,0
0,73,0,0
0,85,0,0
0,103,0,5
0,72,0,14
0,75,0,0
0,67,0,3
0,103,92,23
0,67,70,39
0,71,69,0
0,74,78,0
0,77,52,0
0,31,0,4
0,73,99,4
0,85,99,0
0,73,0,4
0,85,0,0
0,77,0,18
0,67,0,3
0,71,0,0
0,74,0,0
0,103,0,1
0,67,70,14
0,71,55,0
0,74,61,0
0,77,55,0
0,64,53,8
0,73,94,0
0,85,94,0
0,101,94,0
0,31,90,1
0,64,0,3
0,73,0,0
0,85,0,0
0,101,0,37
0,35,125,2
0,56,74,0
0,64,74,0
0,73,123,0
0,85,123,0
0,35,90,1
0,104,110,0
0,35,0,3
0,56,0,0
0,64,0,0
0,73,0,0
0,85,0,0
0,31,0,19
0,71,0,23
0,64,52,2
0,67,0,1
0,74,0,0
0,77,0,0
0,64,0,3
0,67,55,42
0,71,66,0
0,74,69,0
0,77,62,0
0,38,81,2
0,52,81,0
0,64,64,0
0,73,99,0
0,85,99,0
0,35,0,1
0,52,0,3
0,64,0,0
0,73,0,0
0,85,0,0
0,104,0,11
0,73,89,33
0,85,89,0
0,73,0,4
0,85,0,0
0,35,115,2
0,56,80,0
0,64,80,0
0,73,118,0
0,85,118,0
0,36,90,1
0,35,0,3
0,56,0,0
0,64,0,0
0,73,0,0
0,85,0,0
0,38,0,2
0,71,0,20
0,67,0,2
0,74,0,2
0,77,0,3
0,72,84,61
0,75,67,0
0,73,100,2
0,85,100,0
0,67,71,1
0,96,98,0
0,36,0,3
0,73,0,0
0,85,0,0
0,67,0,18
0,72,0,0
0,75,0,0
0,67,60,24
0,72,81,0
0,75,62,0
0,64,51,2
0,73,90,0
0,85,90,0
0,36,84,1
0,64,0,3
0,73,0,0
0,85,0,0
0,96,0,11
0,99,94,31
0,35,121,2
0,56,77,0
0,64,74,0
0,73,120,0
0,85,120,0
0,39,55,1
0,35,0,3
0,56,0,0
0,64,0,0
0,73,0,0
0,85,0,0
0,36,0,14
0,99,0,13
0,64,52,17
0,101,93,1
0,64,0,3
0,72,0,5
0,75,0,0
0,67,0,3
0,67,71,31
0,72,80,0
0,75,62,0
0,64,64,2
0,73,110,0
0,85,110,0
0,43,82,1
0,64,0,3
0,73,0,0
0,85,0,0
0,39,0,3
0,101,0,5
0,73,86,36
0,85,86,0
0,103,107,1
0,73,0,3
0,85,0,0
0,43,0,34
0,103,0,8
0,35,125,2
0,56,84,0
0,64,80,0
0,73,123,0
0,85,123,0
0,31,83,1
0,35,0,3
0,56,0,0
0,64,0,0
0,73,0,0
0,85,0,0
0,103,95,45
0,67,0,3
0,72,0,0
0,75,0,0
0,67,51,36
0,71,78,0
0,74,84,0
0,73,105,8
0,85,105,0
0,73,0,4
0,85,0,0
0,103,0,0
0,31,0,10
0,71,0,9
0,74,0,3
0,67,0,2
0,67,51,16
0,71,70,0
0,74,72,0
0,64,53,4
0,73,88,0
0,85,88,0
0,31,81,1
0,103,90,0
0,64,0,3
0,73,0,0
0,85,0,0
0,35,125,2
0,56,80,0
0,64,74,0
0,73,120,0
0,85,120,0
0,35,90,1
0,101,90,0
0,35,0,3
0,56,0,0
0,64,0,0
0,73,0,0
0,85,0,0
0,31,0,5
0,103,0,17
0,64,52,22
0,64,0,4
0,71,0,2
0,74,0,1
0,67,0,2
0,38,78,37
0,99,103,0
0,64,64,2
0,73,90,0
0,85,90,0
0,101,0,2
0,64,0,2
0,73,0,0
0,85,0,0
0,67,70,2
0,71,80,0
0,74,84,0
0,35,0,9
0,99,0,31
0,73,98,2
0,85,98,0
0,73,0,4
0,85,0,0
0,35,121,2
0,56,84,0
0,64,80,0
0,73,115,0
0,85,115,0
0,38,0,1
0,96,103,0
0,36,110,2
0,35,0,1
0,56,0,0
0,64,0,0
0,73,0,0
0,85,0,0
0,67,0,27
0,96,0,0
0,71,0,2
0,74,0,1
0,67,66,58
0,72,74,0
0,75,61,0
0,73,103,4
0,85,103,0
0,96,107,1
0,73,0,3
0,85,0,0
0,72,0,16
0,75,0,3
0,67,0,3
0,36,0,7
0,67,46,10
0,75,57,0
0,72,79,3
0,96,0,0
0,64,51,2
0,73,89,0
0,85,89,0
0,64,0,4
0,73,0,0
0,85,0,0
0,36,87,8
0,35,121,2
0,39,104,0
0,56,80,0
0,64,74,0
0,73,120,0
0,85,120,0
0,96,105,1
0,35,0,3
0,56,0,0
0,64,0,0
0,73,0,0
0,85,0,0
0,36,0,16
0,96,0,21
0,64,52,7
0,64,0,4
0,75,0,3
0,67,0,2
0,72,0,5
0,67,65,30
0,72,78,0
0,75,60,0
0,64,64,2
0,66,73,0
0,73,99,0
0,85,99,0
0,96,118,1
0,64,0,3
0,66,0,0
0,73,0,0
0,85,0,0
0,39,0,6
0,43,99,2
0,66,51,12
0,66,0,4
0,66,73,20
0,73,88,0
0,85,88,0
0,66,0,4
0,73,0,0
0,85,0,0
0,35,125,2
0,56,77,0
0,64,80,0
0,66,112,0
0,73,118,0
0,85,118,0
0,35,0,4
0,56,0,0
0,64,0,0
0,66,0,0
0,73,0,0
0,85,0,0
0,43,0,3
0,36,111,13
0,75,0,3
0,67,0,2
0,72,0,1
0,96,0,16
0,67,66,50
0,72,74,0
0,75,61,0
0,66,72,4
0,73,99,0
0,85,99,0
0,66,0,4
0,73,0,0
0,85,0,0
0,36,0,11
0,72,0,5
0,75,0,3
0,67,0,3
0,67,46,17
0,75,57,0
0,72,79,3
0,64,53,2
0,66,97,0
0,73,94,0
0,85,94,0
0,64,0,4
0,66,0,0
0,73,0,0
0,85,0,0
0,36,107,15
0,35,115,2
0,56,74,0
0,64,74,0
0,73,123,0
0,85,123,0
0,35,0,4
0,56,0,0
0,64,0,0
0,73,0,0
0,85,0,0
0,39,110,10
0,36,0,24
0,64,52,10
0,66,72,0
0,64,0,4
0,66,0,0
0,75,0,3
0,67,0,2
0,72,0,5
0,67,65,30
0,72,78,0
0,75,60,0
0,64,64,2
0,66,113,0
0,73,99,0
0,85,99,0
0,64,0,4
0,66,0,0
0,73,0,0
0,85,0,0
0,43,111,7
0,39,0,3
0,73,89,34
0,85,89,0
0,73,0,4
0,85,0,0
0,43,0,11
0,35,121,2
0,48,71,0
0,51,73,0
0,52,104,0
0,55,63,0
0,56,80,0
0,64,80,0
0,73,118,0
0,85,118,0
0,36,103,1
0,35,0,3
0,52,0,0
0,56,0,0
0,64,0,0
0,73,0,0
0,85,0,0
0,72,0,24
0,67,0,5
0,75,0,0
0,48,0,51
0,51,0,0
0,55,0,0
0,72,84,10
0,75,67,0
0,63,104,2
0,73,100,0
0,85,100,0
0,60,116,1
0,67,71,0
0,79,119,0
0,73,0,3
0,85,0,0
0,36,0,6
0,67,0,12
0,72,0,0
0,75,0,0
0,67,60,24
0,72,81,0
0,75,62,0
0,63,0,1
0,64,51,1
0,73,90,0
0,85,90,0
0,36,95,1
0,60,0,1
0,79,0,0
0,64,0,2
0,73,0,0
0,85,0,0
0,35,115,2
0,56,77,0
0,63,91,0
0,64,74,0
0,73,120,0
0,85,120,0
0,39,78,1
0,60,116,0
0,79,109,0
0,35,0,3
0,56,0,0
0,64,0,0
0,73,0,0
0,85,0,0
0,36,0,11
0,64,52,33
0,64,0,4
0,72,0,5
0,75,0,0
0,67,0,3
0,63,0,19
0,79,0,7
0,67,71,5
0,72,80,0
0,75,62,0
0,60,0,1
0,60,76,2
0,64,64,0
0,73,110,0
0,85,110,0
0,43,87,1
0,55,92,0
0,75,100,0
0,64,0,3
0,73,0,0
0,85,0,0
0,39,0,6
0,73,86,38
0,85,86,0
0,73,0,4
0,85,0,0
0,75,0,16
0,55,0,3
0,43,0,11
0,60,0,2
0,35,125,2
0,47,63,0
0,50,57,0
0,55,57,0
0,56,84,0
0,62,100,0
0,64,80,0
0,73,123,0
0,85,123,0
0,31,90,1
0,59,115,0
0,77,106,2
0,35,0,1
0,56,0,0
0,64,0,0
0,73,0,0
0,85,0,0
0,67,0,29
0,72,0,1
0,75,0,0
0,47,0,50
0,50,0,0
0,55,0,0
0,67,51,4
0,71,78,0
0,74,84,0
0,59,0,4
0,31,0,3
0,73,105,1
0,85,105,0
0,73,0,4
0,77,0,0
0,85,0,0
0,71,0,19
0,62,0,3
0,74,0,0
0,67,0,2
0,67,51,16
0,71,70,0
0,74,72,0
0,62,87,4
0,64,53,0
0,73,88,0
