track,note,velocity,time
1,95,31,4
1,93,31,128
1,91,31,108
1,95,31,110
1,91,31,46
1,86,31,42
1,83,31,42
1,79,31,48
1,74,31,42
1,88,31,40
1,83,31,0
1,81,31,142
1,79,31,110
1,83,31,100
1,86,31,0
1,79,31,44
1,74,31,42
1,71,31,40
1,67,31,48
1,62,31,46
1,64,81,40
1,67,81,48
1,71,81,0
1,76,81,0
1,64,81,38
1,67,81,50
1,76,81,0
1,71,81,0
1,64,81,40
1,76,81,46
1,66,81,0
1,70,81,0
1,70,81,74
1,66,81,2
1,76,81,0
1,70,81,10
1,74,81,32
1,66,81,2
1,76,81,38
1,74,81,48
1,70,81,0
1,66,81,4
1,88,31,40
1,83,31,2
1,81,31,10
1,79,31,100
1,83,31,76
1,78,31,2
1,76,31,54
1,74,31,32
1,76,31,56
1,71,31,2
1,69,31,42
1,67,31,40
1,69,31,48
1,74,31,48
1,71,31,2
1,69,31,42
1,67,31,44
1,76,31,52
1,71,31,2
1,69,31,44
1,74,31,34
1,71,31,2
1,69,31,52
1,67,31,50
1,76,31,44
1,71,31,2
1,69,31,42
1,74,31,42
1,71,31,2
1,69,31,42
1,67,31,46
1,70,31,44
1,75,31,0
1,70,31,74
1,75,31,0
1,67,31,50
1,69,31,6
1,70,31,78
1,75,31,0
1,69,31,46
1,67,31,18
1,76,31,70
1,72,31,0
1,71,31,42
1,74,31,0
1,69,31,48
1,72,31,0
1,78,31,40
1,81,31,0
1,69,31,48
1,76,31,44
1,72,31,0
1,74,31,40
1,71,31,0
1,69,31,46
1,72,31,0
1,81,31,44
1,84,31,0
1,69,31,44
1,72,31,42
1,76,31,0
1,71,31,48
1,74,31,0
1,69,31,40
1,72,31,0
1,83,81,48
1,88,81,0
1,81,81,136
1,79,81,104
1,83,81,96
1,86,81,0
1,79,81,44
1,74,81,46
1,71,81,46
1,67,81,42
1,62,81,42
1,64,81,48
1,76,81,40
1,67,81,0
1,71,81,0
1,64,81,48
1,66,81,44
1,76,81,0
1,70,81,0
1,74,81,42
1,83,31,44
1,88,31,0
1,81,31,10
1,79,31,132
1,83,31,76
1,78,31,0
1,76,31,76
1,74,31,12
1,76,31,76
1,71,31,2
1,69,31,14
1,67,31,70
1,69,31,44
1,71,31,60
1,74,31,0
1,69,31,30
1,67,31,54
1,76,31,34
1,71,31,2
1,69,31,58
1,74,31,36
1,71,31,6
1,69,31,46
1,67,31,44
1,76,31,54
1,71,31,2
1,69,31,40
1,74,31,36
1,71,31,2
1,69,31,50
1,67,31,36
1,74,31,54
1,78,31,0
1,73,31,34
1,74,31,60
1,73,31,28
1,71,31,58
1,78,31,30
1,83,31,0
1,71,81,60
1,85,81,44
1,86,81,96
1,82,81,236
1,83,81,44
1,81,81,170
1,78,81,48
1,74,81,18
1,71,81,68
1,82,81,48
1,83,81,94
1,69,81,40
1,80,81,50
1,81,81,28
1,69,81,140
1,73,81,40
1,78,81,0
1,72,81,46
1,76,81,0
1,71,81,46
1,69,81,42
1,76,81,42
1,81,81,0
1,74,81,48
1,72,81,42
1,72,81,40
1,76,81,0
1,71,81,48
1,69,81,46
1,81,81,44
1,76,81,0
1,74,81,42
1,72,81,40
1,78,81,48
1,82,81,0
1,76,81,136
1,74,81,106
1,88,81,98
1,82,81,0
1,88,31,44
1,83,31,0
1,81,31,144
1,79,31,142
1,78,31,96
1,83,31,0
1,76,31,40
1,74,31,44
1,71,31,44
1,76,31,0
1,69,31,46
1,67,31,46
1,69,31,42
1,71,31,74
1,74,31,0
1,69,31,16
1,67,31,42
1,71,31,40
1,76,31,0
1,69,31,50
1,74,31,44
1,71,31,28
1,69,31,42
1,67,31,58
1,76,31,32
1,71,31,2
1,69,31,54
1,71,31,44
1,74,31,0
1,69,31,46
1,67,31,38
1,75,31,50
1,70,31,2
1,75,31,44
1,70,31,2
1,67,31,40
1,69,31,56
1,75,31,34
1,70,31,2
1,69,31,50
1,67,31,36
1,76,31,52
1,72,31,2
1,74,31,48
1,71,31,2
1,72,31,28
1,69,31,2
1,78,31,58
1,81,31,0
1,69,31,44
1,76,31,44
1,72,31,2
1,74,31,38
1,71,31,4
1,72,31,44
1,69,31,2
1,84,31,78
1,81,31,0
1,69,31,42
1,72,31,44
1,76,31,0
1,74,31,10
1,71,31,2
1,69,31,76
1,72,31,0
1,88,81,46
1,83,81,0
1,81,81,94
1,79,81,88
1,83,81,136
1,86,81,0
1,79,81,48
1,74,81,46
1,71,81,44
1,67,81,42
1,62,81,40
1,64,81,48
1,76,81,44
1,67,81,0
1,71,81,0
1,64,81,46
1,76,81,40
1,66,81,0
1,70,81,0
1,74,81,48
1,86,63,40
1,91,63,0
1,84,63,138
1,83,63,108
1,86,63,100
1,81,63,0
1,79,63,46
1,77,63,42
1,81,63,42
1,77,63,0
1,76,63,48
1,74,63,42
1,76,63,40
1,77,63,48
1,81,63,0
1,76,63,46
1,74,63,44
1,77,63,42
1,83,63,0
1,76,63,44
1,77,63,46
1,81,63,0
1,76,63,40
1,74,63,74
1,77,63,14
1,83,63,0
1,76,63,48
1,81,63,70
1,77,63,4
1,76,63,40
1,74,63,46
1,76,63,44
1,83,63,2
1,79,63,0
1,71,63,2
1,76,63,52
1,71,63,2
1,83,63,0
1,79,63,0
1,73,63,40
1,81,63,2
1,76,63,0
1,67,63,2
1,95,81,46
1,93,81,144
1,91,81,96
1,95,81,92
1,91,81,44
1,86,81,40
1,83,81,48
1,79,81,44
1,74,81,44
1,88,81,42
1,83,81,2
1,81,81,142
1,79,81,76
1,86,81,94
1,83,81,2
1,79,81,58
1,74,81,28
1,71,81,58
1,67,81,44
1,62,81,44
1,64,81,46
1,67,81,76
1,76,81,0
1,71,81,0
1,64,81,46
1,66,81,44
1,76,81,0
1,70,81,0
1,74,81,42
1,67,81,44
1,79,81,0
1,71,81,0
1,74,81,0
1,85,81,48
1,86,81,94
1,85,81,232
1,86,81,46
1,85,81,238
1,86,81,38
1,87,63,48
1,76,63,98
1,88,63,0
1,87,63,1388
1,88,63,84
1,84,63,108
1,81,63,98
1,78,63,46
1,76,63,40
1,72,63,46
1,69,63,42
1,66,63,46
1,62,63,46
1,72,63,380
1,76,63,0
1,71,63,88
1,69,63,140
1,72,63,94
1,78,63,0
1,71,63,44
1,69,63,44
1,72,63,42
1,76,63,0
1,71,63,48
1,69,63,72
1,72,63,10
1,78,63,0
1,71,63,50
1,69,63,44
1,76,63,70
1,72,63,2
1,71,63,42
1,69,63,16
1,67,63,72
1,90,63,56
1,91,63,86
1,90,63,238
1,91,63,44
1,90,63,238
1,91,63,44
1,92,63,60
1,93,63,52
1,92,63,668
1,93,63,88
1,91,63,92
1,89,63,92
1,86,63,140
1,83,63,94
1,79,63,92
1,86,63,44
1,83,63,2
1,81,63,42
1,79,63,0
1,86,63,50
1,89,63,0
1,84,63,48
1,83,63,46
1,86,63,42
1,83,63,2
1,81,63,42
1,79,63,80
1,86,63,44
1,89,63,0
1,84,63,10
1,83,63,78
1,86,63,10
1,83,63,2
1,81,63,78
1,79,63,8
1,76,63,272
1,88,63,0
1,84,63,0
1,79,63,0
1,88,63,44
1,76,63,0
1,79,63,0
1,84,63,0
1,88,63,42
1,76,63,0
1,84,63,0
1,79,63,0
1,88,63,44
1,76,63,0
1,84,63,0
1,79,63,0
1,85,63,42
1,87,63,0
1,91,63,128
1,85,63,58
1,87,63,0
1,79,63,108
1,75,63,46
1,73,63,46
1,67,63,40
1,79,63,0
1,73,63,44
1,75,63,44
1,67,63,46
1,74,63,0
1,71,63,0
1,86,63,42
1,74,63,42
1,79,63,0
1,83,63,0
1,80,63,50
1,84,63,0
1,88,63,142
1,84,63,140
1,80,63,0
1,74,63,92
1,71,63,40
1,62,63,48
1,76,63,0
1,68,63,0
1,71,63,42
1,76,63,0
1,69,63,74
1,67,63,18
1,73,63,44
1,79,63,28
1,71,63,2
1,73,63,42
1,83,63,2
1,71,63,2
1,79,63,52
1,73,63,44
1,83,63,4
1,71,63,2
1,88,63,26
1,79,63,0
1,76,63,4
1,83,63,40
1,79,63,60
1,76,63,2
1,88,63,0
1,86,63,234
1,85,63,0
1,74,63,2
1,85,63,40
1,86,63,2
1,74,63,2
1,87,63,232
1,88,63,2
1,76,63,2
1,87,63,38
1,88,63,4
1,76,63,2
1,85,63,232
1,74,63,4
1,86,63,0
1,86,63,42
1,85,63,0
1,74,63,2
1,92,63,234
1,81,63,2
1,93,63,0
1,92,63,58
1,93,63,0
1,81,63,2
1,85,63,232
1,86,63,2
1,74,63,2
1,86,63,36
1,85,63,0
1,74,63,8
1,85,63,40
1,86,63,2
1,74,63,2
1,87,63,42
1,88,63,96
1,76,63,2
1,87,63,1424
1,88,63,76
1,84,63,88
1,81,63,138
1,78,63,44
1,76,63,46
1,72,63,46
1,69,63,42
1,66,63,42
1,62,63,48
1,72,63,378
1,76,63,0
1,71,63,70
1,69,63,104
1,72,63,114
1,78,63,0
1,71,63,40
1,69,63,46
1,72,63,44
1,76,63,0
1,71,63,44
1,69,63,44
1,72,63,42
1,78,63,0
1,71,63,48
1,69,63,40
1,72,63,42
1,76,63,0
1,71,63,50
1,69,63,44
1,67,63,40
1,90,63,46
1,91,63,92
1,90,63,236
1,91,63,50
1,90,63,238
1,91,63,42
1,92,63,40
1,93,63,0
1,92,63,700
1,93,63,56
1,91,63,108
1,89,63,110
1,86,63,110
1,83,63,112
1,79,63,108
1,86,63,44
1,83,63,2
1,81,63,56
1,79,63,48
1,89,63,26
1,86,63,2
1,84,63,42
1,83,63,44
1,86,63,44
1,83,63,2
1,81,63,52
1,79,63,48
1,89,63,44
1,86,63,4
1,84,63,36
1,83,63,48
1,83,63,46
1,86,63,0
1,81,63,44
1,79,63,42
1,79,63,252
1,84,63,2
1,88,63,2
1,76,63,2
1,79,63,36
1,88,63,4
1,84,63,0
1,76,63,2
1,84,63,42
1,79,63,0
1,88,63,2
1,76,63,2
1,79,63,40
1,88,63,2
1,84,63,0
1,76,63,2
1,87,63,40
1,85,63,2
1,91,63,124
1,87,63,106
1,85,63,2
1,79,63,110
1,75,63,76
1,73,63,8
1,67,63,82
1,79,63,0
1,73,63,6
1,75,63,82
1,67,63,46
1,71,63,0
1,74,63,0
1,86,63,42
1,74,63,42
1,79,63,0
1,83,63,0
1,80,63,44
1,84,63,0
1,88,63,128
1,80,63,58
1,84,63,0
1,74,63,112
1,71,63,40
1,62,63,44
1,76,63,0
1,68,63,0
1,71,63,46
1,76,63,0
1,69,63,42
1,67,63,48
1,71,63,40
1,79,63,0
1,73,63,0
1,83,63,46
1,71,63,0
1,73,63,0
1,79,63,44
1,83,63,44
1,71,63,0
1,73,63,0
1,72,63,44
1,86,63,0
1,78,63,0
1,82,63,46
1,83,63,40
1,72,63,0
1,78,63,0
1,71,63,48
1,79,63,0
1,79,63,70
1,71,63,2
1,74,63,44
1,71,63,44
1,76,63,0
1,79,63,44
1,76,63,44
1,71,63,2
1,74,63,38
1,76,63,48
1,70,63,2
1,76,63,42
1,70,63,2
1,74,63,42
1,79,63,44
1,71,63,2
1,88,31,440
1,83,31,2
1,81,31,0
1,79,31,96
1,78,31,90
1,83,31,0
1,76,31,44
1,74,31,44
1,76,31,44
1,71,31,2
1,69,31,42
1,67,31,44
1,69,31,44
1,74,31,60
1,71,31,2
1,69,31,36
1,67,31,48
1,76,31,46
1,71,31,2
1,69,31,40
1,71,31,46
1,74,31,0
1,69,31,38
1,67,31,86
1,76,31,6
1,71,31,4
1,69,31,42
1,71,31,78
1,74,31,0
1,69,31,46
1,67,31,40
1,70,31,44
1,75,31,0
1,70,31,46
1,75,31,0
1,67,31,44
1,69,31,44
1,70,31,42
1,75,31,0
1,69,31,48
1,67,31,42
1,72,31,40
1,76,31,0
1,74,31,50
1,71,31,0
1,69,31,44
1,72,31,0
1,78,31,40
1,81,31,0
1,69,31,46
1,72,31,44
1,76,31,0
1,71,31,44
1,74,31,0
1,69,31,42
1,72,31,0
1,81,31,48
1,84,31,0
1,69,31,38
1,72,31,50
1,76,31,0
1,71,31,44
1,74,31,0
1,69,31,40
1,72,31,0
1,83,31,46
1,88,31,0
1,81,31,142
1,79,31,0
1,86,31,94
1,83,31,0
1,79,31,42
1,74,31,48
1,71,31,42
1,67,31,40
1,62,31,48
1,64,31,46
1,71,31,72
1,67,31,2
1,76,31,0
1,64,31,42
1,70,31,42
1,76,31,2
1,66,31,2
1,74,31,42
1,88,31,42
1,83,31,2
1,81,31,10
1,79,31,100
1,83,31,78
1,78,31,2
1,76,31,52
1,74,31,32
1,76,31,58
1,71,31,2
1,69,31,44
1,67,31,38
1,69,31,52
1,71,31,44
1,74,31,0
1,69,31,44
1,67,31,44
1,76,31,44
1,71,31,2
1,69,31,42
1,74,31,42
1,71,31,2
1,69,31,44
1,67,31,56
1,76,31,32
1,71,31,2
1,69,31,42
1,74,31,60
1,71,31,2
1,69,31,26
1,67,31,56
1,78,31,48
1,74,31,2
1,73,31,40
1,74,31,80
1,73,31,8
1,71,31,80
1,78,31,46
1,83,31,0
1,71,81,42
1,85,81,44
1,86,81,98
1,82,81,234
1,83,81,40
1,81,81,142
1,78,81,42
1,74,81,46
1,71,81,46
1,82,81,44
1,83,81,92
1,69,81,46
1,80,81,44
1,81,81,30
1,69,81,62
1,73,81,44
1,78,81,0
1,72,81,46
1,76,81,0
1,71,81,42
1,69,81,40
1,81,81,48
1,76,81,0
1,74,81,46
1,72,81,44
1,72,81,42
1,76,81,0
1,71,81,40
1,69,81,48
1,81,81,46
1,76,81,0
1,74,81,40
1,72,81,46
1,78,81,42
1,82,81,0
1,76,81,144
1,74,81,142
1,82,81,96
1,88,81,0
1,83,31,40
1,88,31,0
1,81,31,12
1,79,31,128
1,78,31,78
1,83,31,0
1,76,31,46
1,74,31,42
1,76,31,72
1,71,31,2
1,69,31,16
1,67,31,42
1,69,31,72
1,74,31,56
1,71,31,4
1,69,31,30
1,67,31,54
1,71,31,34
1,76,31,0
1,69,31,54
1,74,31,42
1,71,31,6
1,69,31,44
1,67,31,46
1,76,31,44
1,71,31,2
1,69,31,42
1,74,31,44
1,71,31,2
1,69,31,42
1,67,31,40
1,70,31,48
1,75,31,0
1,75,31,60
1,70,31,2
1,67,31,40
1,69,31,30
1,70,31,60
1,75,31,0
1,69,31,28
1,67,31,58
1,76,31,46
1,72,31,2
1,74,31,42
1,71,31,2
1,69,31,42
1,72,31,0
1,81,31,44
1,78,31,2
1,69,31,42
1,72,31,76
1,76,31,0
1,74,31,12
1,71,31,2
1,69,31,76
1,72,31,0
1,81,31,44
1,84,31,0
1,69,31,42
1,72,31,48
1,76,31,0
1,74,31,40
1,71,31,0
1,72,31,42
1,69,31,0
1,83,81,50
1,88,81,0
1,81,81,124
1,79,81,100
1,83,81,110
1,86,81,0
1,79,81,40
1,74,81,48
1,71,81,46
1,67,81,40
1,62,81,46
1,64,81,42
1,67,81,42
1,76,81,0
1,71,81,0
1,64,81,50
1,66,81,40
1,70,81,0
1,76,81,0
1,74,81,46
1,91,63,44
1,86,63,0
1,84,63,142
1,83,63,138
1,81,63,96
1,86,63,0
1,79,63,42
1,77,63,40
1,81,63,48
1,77,63,0
1,76,63,46
1,74,63,44
1,76,63,42
1,77,63,74
1,81,63,0
1,76,63,14
1,74,63,74
1,77,63,12
1,83,63,0
1,76,63,74
1,77,63,46
1,81,63,0
1,76,63,16
1,74,63,82
1,77,63,34
1,83,63,0
1,76,63,58
1,81,63,42
1,77,63,2
1,76,63,42
1,74,63,40
1,79,63,52
1,76,63,0
1,83,63,2
1,71,63,2
1,79,63,40
1,76,63,0
1,83,63,2
1,71,63,4
1,73,63,36
1,81,63,2
1,76,63,0
1,67,63,4
1,95,81,40
1,93,81,146
1,91,81,96
1,95,81,90
1,91,81,60
1,86,81,28
1,83,81,58
1,79,81,44
1,74,81,42
1,88,81,46
1,83,81,2
1,81,81,130
1,79,81,108
1,86,81,104
1,83,81,4
1,79,81,76
