track,note,velocity,time
1,56,63,1456
1,56,63,384
1,55,63,76
1,55,63,300
1,53,63,76
1,58,63,300
1,56,63,380
1,58,63,188
1,56,63,188
1,55,63,76
1,56,63,108
1,55,63,188
1,53,63,76
1,58,63,300
1,72,81,380
1,84,81,0
1,79,63,28
1,82,63,60
1,77,63,30
1,80,63,56
1,75,63,36
1,84,63,62
1,84,63,332
1,79,63,22
1,82,63,24
1,77,63,100
1,80,63,6
1,75,63,26
1,79,63,98
1,77,63,12
1,84,63,62
1,72,63,330
1,84,63,0
1,79,63,24
1,82,63,96
1,77,63,24
1,80,63,80
1,75,63,112
1,79,63,30
1,72,63,16
1,77,63,178
1,75,63,108
1,68,63,76
1,69,63,98
1,70,63,76
1,72,63,94
1,71,63,0
1,77,63,76
1,72,63,1438
1,75,81,76
1,77,81,300
1,75,81,76
1,77,81,300
1,75,81,76
1,87,81,300
1,84,81,380
1,73,63,76
1,82,63,0
1,80,63,0
1,75,63,300
1,65,63,76
1,75,63,0
1,73,63,0
1,68,63,0
1,67,63,300
1,75,63,0
1,70,63,0
1,73,63,0
1,82,63,764
1,72,63,0
1,79,63,0
1,60,81,380
1,65,81,0
1,68,81,0
1,79,81,380
1,68,81,76
1,77,81,0
1,68,81,300
1,70,81,0
1,77,81,460
1,75,81,54
1,73,81,0
1,67,81,2
1,63,96,480
1,75,112,76
1,75,127,108
1,87,39,188
1,72,10,268
1,84,10,0
1,79,63,62
1,82,63,32
1,77,63,64
1,80,63,30
1,75,63,58
1,84,63,26
1,84,63,334
1,79,63,56
1,82,63,80
1,77,63,28
1,80,63,126
1,75,63,80
1,79,63,32
1,77,63,116
1,84,63,28
1,84,63,320
1,72,63,0
1,79,63,58
1,82,63,80
1,77,63,26
1,80,63,110
1,75,63,80
1,79,63,30
1,72,63,54
1,77,63,76
1,75,63,108
1,68,63,188
1,70,63,76
1,69,63,0
1,71,63,92
1,72,63,76
1,77,63,94
1,72,63,1420
1,75,63,108
1,77,63,268
1,75,81,108
1,77,81,268
1,75,81,108
1,87,81,268
1,84,81,380
1,73,63,108
1,82,63,0
1,80,63,0
1,75,63,268
1,65,63,108
1,75,63,0
1,73,63,0
1,68,63,0
1,67,63,268
1,75,63,0
1,70,63,0
1,73,63,0
1,82,63,764
1,72,63,0
1,79,63,0
1,68,81,380
1,60,81,0
1,65,81,0
1,63,81,0
1,82,81,380
1,70,81,108
1,76,81,0
1,80,81,0
1,58,81,268
1,68,81,0
1,64,81,0
1,82,81,380
1,80,81,108
1,72,81,0
1,77,81,0
1,75,81,0
1,69,105,1532
1,77,105,0
1,72,105,0
1,67,105,380
1,70,105,0
1,75,105,0
1,72,105,268
1,68,105,0
1,65,105,0
1,72,105,252
1,77,105,0
1,69,105,0
1,69,105,188
1,77,105,0
1,72,105,0
1,75,105,188
1,67,105,0
1,70,105,0
1,67,105,108
1,75,105,0
1,70,105,0
1,65,105,346
1,72,105,0
1,68,105,0
1,77,105,652
1,72,105,0
1,69,105,50
1,69,105,46
1,77,105,0
1,72,105,0
1,69,105,376
1,72,105,0
1,77,105,0
1,67,105,188
1,75,105,0
1,70,105,0
1,77,105,188
1,69,105,0
1,72,105,0
1,67,105,108
1,75,105,0
1,70,105,0
1,60,105,348
1,70,105,0
1,72,105,0
1,66,105,0
1,72,55,1340
1,84,55,0
1,70,55,76
1,82,55,0
1,68,55,492
1,80,55,0
1,77,54,460
1,65,54,48
1,72,54,510
1,84,54,0
1,70,54,108
1,82,54,0
1,70,54,188
1,82,54,0
1,80,54,188
1,68,54,0
1,65,53,380
1,77,53,0
1,72,53,652
1,84,53,0
1,70,53,108
1,82,53,0
1,80,53,188
1,68,53,0
1,65,53,188
1,77,53,0
1,63,53,188
1,75,53,0
1,65,53,188
1,77,53,0
1,71,53,0
1,77,53,380
1,65,53,0
1,72,52,460
1,60,52,0
1,67,52,0
1,65,52,46
1,65,52,44
1,64,52,44
1,64,52,46
1,63,52,40
1,77,105,40
1,69,105,0
1,72,105,0
1,67,105,300
1,75,105,0
1,70,105,0
1,65,105,364
1,72,105,0
1,68,105,0
1,77,105,460
1,72,105,0
1,69,105,48
1,69,105,60
1,77,105,0
1,72,105,0
1,70,105,188
1,75,105,0
1,67,105,0
1,67,105,188
1,75,105,0
1,70,105,0
1,72,105,380
1,65,105,0
1,68,105,0
1,69,105,684
1,77,105,0
1,72,105,0
1,69,105,188
1,77,105,0
1,72,105,0
1,77,105,268
1,72,105,0
1,69,105,0
1,67,105,48
1,75,105,0
1,70,105,0
1,69,105,188
1,77,105,0
1,72,105,0
1,67,105,188
1,75,105,0
1,70,105,0
1,60,105,380
1,70,105,0
1,72,105,0
1,66,105,0
1,72,40,1260
1,84,40,0
1,82,40,76
1,70,40,0
1,68,40,572
1,80,40,0
1,65,40,492
1,77,40,0
1,72,39,844
1,84,39,0
1,70,39,188
1,82,39,0
1,70,39,188
1,82,39,0
1,68,39,188
1,80,39,0
1,65,39,380
1,77,39,0
1,72,39,684
1,84,39,0
1,70,39,76
1,82,39,0
1,68,39,188
1,80,39,0
1,77,38,188
1,65,38,0
1,63,38,188
1,75,38,0
1,77,38,188
1,65,38,0
1,71,38,0
1,65,38,380
1,77,38,0
1,68,38,380
1,80,38,0
1,77,38,0
1,75,38,0
1,72,38,0
1,56,37,1452
1,56,63,380
1,55,63,76
1,55,63,300
1,53,63,76
1,58,63,300
1,56,63,380
1,58,63,188
1,56,63,188
1,55,63,76
1,56,63,108
1,55,63,188
1,53,63,76
1,58,63,300
1,72,63,380
1,84,63,0
1,79,63,26
1,82,63,62
1,77,63,28
1,80,63,60
1,75,63,28
1,84,63,60
1,84,63,330
1,79,63,24
1,82,63,104
1,77,63,28
1,80,63,2
1,75,63,110
1,79,63,28
1,77,63,4
1,84,63,60
1,72,63,318
1,84,63,0
1,72,63,76
1,79,63,0
1,82,63,108
1,77,63,18
1,80,63,10
1,75,63,98
1,79,63,26
1,72,63,46
1,77,63,188
1,75,63,108
1,68,63,76
1,69,63,108
1,70,63,76
1,71,63,90
1,77,63,76
1,72,63,0
1,72,63,1436
1,75,81,76
1,77,81,300
1,75,81,76
1,77,81,300
1,75,81,76
1,87,81,300
1,84,81,380
1,82,63,76
1,80,63,0
1,73,63,48
1,75,63,128
1,68,63,54
1,73,63,2
1,75,63,50
1,65,63,0
1,75,63,80
1,67,63,0
1,73,63,0
1,70,63,0
1,82,63,764
1,72,63,0
1,79,63,0
1,60,81,380
1,65,81,0
1,68,81,0
1,79,81,380
1,68,81,108
1,77,81,0
1,68,81,268
1,70,81,0
1,77,81,380
1,75,81,108
1,67,81,0
1,73,81,0
1,63,96,764
1,75,112,76
1,75,127,102
1,87,39,188
1,72,29,268
1,84,10,0
1,79,63,60
1,82,63,28
1,77,63,62
1,80,63,30
1,75,63,60
1,84,63,34
1,84,63,334
1,72,63,56
1,79,63,0
1,82,63,76
1,77,63,98
1,80,63,42
1,75,63,80
1,79,63,104
1,77,63,44
1,84,63,28
1,72,63,318
1,84,63,0
1,79,63,58
1,82,63,80
1,77,63,116
1,80,63,36
1,75,63,80
1,79,63,112
1,72,63,48
1,77,63,76
1,75,63,186
1,68,63,108
1,69,63,76
1,70,63,40
1,71,63,14
1,72,63,50
1,77,63,92
1,72,63,1420
1,75,63,108
1,77,63,268
1,75,81,108
1,77,81,268
1,75,81,108
1,87,81,268
1,84,81,380
1,73,63,108
1,80,63,0
1,82,63,0
1,75,63,268
1,65,63,108
1,75,63,0
1,73,63,0
1,68,63,0
1,75,63,268
1,67,63,0
1,70,63,0
1,73,63,0
1,72,63,764
1,79,63,0
1,82,63,0
1,60,81,380
1,68,81,0
1,65,81,0
1,63,81,0
1,82,81,380
1,80,81,108
1,70,81,0
1,76,81,0
1,68,81,268
1,58,81,0
1,64,81,0
1,82,81,380
1,80,81,108
1,72,81,0
1,77,81,0
1,75,81,0
1,56,26,1420
1,56,26,380
1,55,23,108
1,55,23,268
1,53,29,108
1,58,26,268
1,56,26,380
1,58,29,300
1,56,31,76
1,55,31,108
1,56,37,188
1,55,37,76
1,53,37,108
1,58,34,268
1,60,38,380
1,60,43,380
1,59,46,108
1,59,47,268
1,57,51,108
1,62,52,268
1,63,56,380
1,65,59,300
1,63,61,76
1,62,62,188
1,63,64,108
1,62,65,76
1,60,69,188
1,65,70,246
1,66,74,434
1,66,79,380
1,65,82,76
1,65,83,300
1,63,87,76
1,68,88,248
1,69,92,432
1,69,97,380
1,68,100,76
1,68,101,300
1,66,105,76
1,71,106,300
1,72,110,380
1,72,115,380
1,71,118,76
1,71,120,300
1,69,123,76
1,74,124,300
1,74,124,380
1,72,105,76
1,72,81,764
1,80,81,0
1,84,81,0
1,76,81,0
1,60,63,764
1,62,79,108
1,64,95,188
1,65,111,76
1,67,127,108
1,69,127,76
1,74,127,188
1,69,63,684
1,70,63,76
1,72,79,108
1,73,95,188
1,74,111,76
1,75,127,108
1,76,127,188
1,88,127,76
1,76,63,504
1,77,63,76
1,78,79,108
1,79,95,188
1,80,111,76
1,81,127,108
1,82,127,188
1,91,81,76
1,89,81,684
1,93,67,76
1,89,54,108
1,86,40,188
1,81,30,76
1,77,20,108
1,74,17,76
1,69,17,108
1,70,29,76
1,79,17,0
1,73,17,0
1,60,76,1148
1,72,94,0
1,69,94,0
1,65,94,0
1,71,37,764
1,62,37,0
1,68,10,0
1,65,10,0
1,71,94,764
1,62,94,0
1,68,94,0
1,65,94,0
1,70,34,764
1,60,34,0
1,67,10,0
1,64,10,0
1,69,94,764
1,60,94,0
1,65,94,0
1,62,94,0
1,59,50,764
1,65,50,0
1,69,50,0
1,62,50,0
1,58,39,764
1,65,39,0
1,67,39,0
1,62,39,0
1,68,63,764
1,62,63,0
1,64,63,0
1,58,63,48
1,60,63,42
1,62,79,184
1,64,95,108
1,65,111,76
1,67,127,188
1,69,127,108
1,74,127,76
1,69,63,684
1,70,63,76
1,72,79,188
1,73,95,108
1,74,111,76
1,75,127,188
1,76,127,108
1,88,127,134
1,76,63,580
1,77,63,108
1,78,79,76
1,79,95,108
1,80,111,134
1,81,127,130
1,82,127,108
1,91,81,136
1,89,81,704
1,93,67,108
1,89,54,76
1,86,40,108
1,81,30,188
1,77,20,76
1,74,17,108
1,69,17,76
1,70,29,108
1,73,20,0
1,79,20,0
1,60,94,1148
1,69,94,0
1,72,94,0
1,65,94,0
1,62,34,764
1,71,10,0
1,68,10,0
1,65,10,0
1,71,94,764
1,62,94,0
1,68,94,0
1,65,94,0
1,70,26,764
1,60,26,0
1,67,10,0
1,64,10,0
1,69,74,764
1,59,74,0
1,65,61,0
1,62,61,0
1,67,20,764
1,58,20,0
1,64,10,0
1,60,10,0
1,57,37,380
1,65,31,0
1,62,31,0
1,60,31,0
1,60,63,1532
1,62,79,76
1,64,95,176
1,65,111,108
1,67,127,76
1,69,127,178
1,74,127,108
1,69,63,652
1,70,63,108
1,72,79,76
1,73,95,188
1,74,111,108
1,75,127,76
1,76,127,186
1,88,127,108
1,76,63,498
1,77,63,108
1,78,79,76
1,79,95,188
1,80,111,108
1,81,127,134
1,82,127,130
1,91,81,108
1,89,81,652
1,93,67,108
1,89,54,188
1,86,40,76
1,81,30,108
1,77,20,76
1,74,14,108
1,69,14,76
1,70,26,108
1,79,20,0
1,73,20,0
1,72,96,1148
1,60,96,0
1,69,96,0
1,65,96,0
1,71,31,764
1,62,31,0
1,68,10,0
1,65,10,0
1,71,96,764
1,62,96,0
1,65,96,0
1,68,96,0
1,70,26,764
1,60,26,0
1,64,10,0
1,67,10,0
1,60,96,764
1,65,96,0
1,69,96,0
1,62,96,0
1,59,67,764
1,69,67,0
1,65,67,0
1,62,67,0
1,58,39,764
1,67,39,0
1,62,39,0
1,65,39,0
1,64,63,844
1,68,63,0
1,58,63,0
1,62,63,0
1,60,63,380
1,62,79,108
1,64,95,76
1,65,111,188
1,67,127,108
1,69,127,76
1,74,127,188
1,69,63,632
1,70,63,128
1,72,79,108
1,73,95,76
1,74,111,178
1,75,127,108
1,76,127,76
1,88,127,184
1,76,63,620
1,77,63,76
1,78,79,108
1,79,95,76
1,80,111,188
1,81,127,108
1,82,127,76
1,91,81,188
1,89,81,684
1,93,67,76
1,89,54,108
1,86,40,134
1,81,30,130
1,77,20,108
1,74,14,76
1,69,14,108
1,79,26,76
1,70,26,0
1,73,17,0
1,60,99,1148
1,72,99,0
1,69,99,0
1,65,99,0
1,71,29,764
1,62,29,0
1,68,10,0
1,65,10,0
1,71,99,764
1,62,99,0
1,68,99,0
1,65,99,0
1,60,23,764
1,70,10,0
1,64,10,0
1,67,10,0
1,59,20,764
1,69,10,0
1,62,10,0
1,65,10,0
1,64,26,764
1,67,26,0
1,58,26,0
1,60,10,0
1,57,47,380
1,62,47,0
1,65,47,0
1,60,47,0
1,53,37,1452
1,53,37,380
1,52,37,76
1,52,37,300
1,50,37,76
1,55,36,300
1,53,36,380
1,55,36,268
1,53,36,108
1,52,35,76
1,53,35,188
1,52,35,108
1,50,35,76
1,55,35,300
1,56,34,380
1,56,63,380
1,55,63,76
1,55,63,300
1,53,63,76
1,58,63,300
1,56,63,380
1,58,63,268
1,56,63,108
1,55,63,76
1,56,63,188
1,55,63,108
1,53,63,76
1,58,63,300
1,72,63,380
1,84,63,0
1,72,63,76
1,79,63,0
1,82,63,64
1,77,63,34
1,80,63,68
1,75,63,34
1,84,63,66
1,84,63,326
1,79,63,22
1,82,63,100
1,77,63,24
1,80,63,12
1,75,63,96
1,79,63,24
1,77,63,14
1,84,63,34
1,72,63,380
1,84,63,0
1,79,63,52
1,72,63,2
1,82,63,46
1,77,63,32
1,80,63,114
1,75,63,80
1,79,63,26
1,72,63,92
1,77,63,76
1,75,63,108
1,69,63,188
1,68,63,0
1,70,63,76
1,71,63,90
1,72,63,76
1,77,63,92
1,72,63,1420
1,75,81,108
1,77,81,268
1,75,81,108
1,77,81,268
1,75,81,108
1,87,81,268
1,84,81,380
1,73,63,108
1,80,63,0
1,82,63,0
1,75,63,268
1,75,63,108
1,65,63,0
1,68,63,0
1,73,63,0
1,67,63,268
1,73,63,0
1,75,63,0
1,70,63,0
1,72,63,764
1,82,63,0
1,79,63,0
1,60,81,380
1,68,81,0
1,65,81,0
1,79,81,380
1,68,81,108
1,77,81,0
1,68,81,268
1,70,81,0
1,77,81,380
1,67,81,108
1,75,81,0
1,73,81,0
1,63,96,764
1,75,112,76
1,75,127,188
1,87,39,108
1,72,26,268
1,84,10,0
1,79,63,60
1,82,63,24
1,77,63,60
1,80,63,30
1,75,63,62
1,84,63,18
1,84,63,332
1,79,63,56
1,82,63,80
1,77,63,112
1,80,63,30
1,75,63,2
1,79,63,108
1,77,63,30
1,84,63,32
1,72,63,316
1,84,63,0
1,79,63,58
1,82,63,80
1,77,63,98
1,80,63,42
1,75,63,80
1,79,63,98
1,72,63,56
1,77,63,136
1,75,63,128
1,68,63,108
1,69,63,76
1,70,63,90
1,72,63,76
1,71,63,0
1,77,63,106
1,72,63,1420
1,75,63,108
1,77,63,268
1,75,81,108
1,77,81,268
1,75,81,108
1,87,81,268
1,84,81,380
1,73,63,108
1,80,63,0
1,82,63,0
1,75,63,268
1,65,63,108
1,73,63,0
1,75,63,0
1,68,63,0
1,73,63,268
1,75,63,0
1,67,63,0
1,70,63,0
1,82,63,764
1,79,63,0
1,72,63,48
1,80,81,60
1,77,81,0
1,60,81,0
1,65,81,0
1,68,81,0
1,60,81,108
1,68,81,0
1,65,81,0
1,58,81,188
1,64,81,0
1,68,81,0
1,58,57,380
1,68,57,0
1,64,57,0
1,82,10,460
1,79,26,0
1,72,10,48
1,72,81,56
1,80,81,0
1,77,81,0
1,68,81,268
1,60,81,0
1,65,81,0
1,60,81,108
1,68,81,0
1,65,81,0
1,68,81,188
1,58,81,0
1,64,81,0
1,58,57,380
1,68,57,0
1,64,57,0
1,79,10,518
1,82,10,2
1,72,23,0
1,80,81,76
1,72,81,0
1,77,81,0
1,65,81,248
