track,note,velocity,time
0,42,102,983
0,46,91,2
0,49,82,8
0,54,92,1
0,58,102,6
0,66,105,9
0,58,102,111
0,66,105,9
0,42,0,81
0,42,77,6
0,46,0,5
0,49,0,2
0,54,0,2
0,46,81,0
0,49,59,8
0,54,68,1
0,58,0,2
0,58,77,4
0,66,0,4
0,66,71,5
0,66,0,83
0,66,95,1
0,58,0,6
0,49,0,2
0,58,92,1
0,54,0,1
0,54,79,6
0,49,55,1
0,46,0,4
0,58,0,2
0,46,87,3
0,58,77,1
0,42,0,2
0,66,0,2
0,42,88,3
0,66,71,2
0,66,0,83
0,66,95,1
0,58,0,6
0,58,92,3
0,42,0,106
0,46,0,2
0,42,74,6
0,49,0,6
0,54,0,1
0,46,78,2
0,58,0,8
0,49,56,0
0,54,65,1
0,66,0,6
0,58,74,0
0,66,68,9
0,66,0,83
0,66,90,1
0,58,0,6
0,49,0,2
0,58,85,1
0,54,0,1
0,54,73,6
0,49,50,1
0,58,0,3
0,46,0,1
0,46,82,5
0,66,0,1
0,58,74,0
0,42,0,2
0,42,83,5
0,66,68,2
0,66,0,83
0,42,0,0
0,66,90,1
0,42,77,3
0,58,0,3
0,46,0,0
0,49,0,2
0,58,85,1
0,54,0,0
0,46,83,3
0,58,0,7
0,49,59,1
0,54,68,1
0,66,0,5
0,58,77,1
0,66,71,9
0,42,0,74
0,42,97,13
0,46,0,3
0,46,86,6
0,49,0,1
0,54,0,2
0,58,0,4
0,49,77,1
0,54,87,1
0,66,0,5
0,58,0,0
0,58,77,1
0,58,97,0
0,66,0,1
0,66,71,8
0,66,100,0
0,58,0,110
0,58,97,1
0,66,0,1
0,66,100,8
0,42,0,81
0,42,81,6
0,46,0,5
0,49,0,2
0,54,0,2
0,46,84,0
0,49,60,8
0,54,70,1
0,58,0,2
0,58,79,4
0,66,0,4
0,66,73,5
0,58,0,107
0,58,79,4
0,66,0,4
0,66,73,5
0,42,0,554
0,46,0,7
0,66,0,6
0,49,0,0
0,42,102,0
0,54,0,2
0,58,0,1
0,46,91,6
0,49,82,8
0,54,92,1
0,58,102,6
0,66,105,9
0,66,0,87
0,58,0,3
0,58,102,21
0,66,105,9
0,42,0,81
0,42,77,6
0,46,0,5
0,49,0,2
0,54,0,2
0,46,81,0
0,49,59,8
0,54,68,1
0,58,0,2
0,58,77,4
0,66,0,4
0,66,71,5
0,66,0,83
0,66,95,1
0,58,0,6
0,49,0,2
0,58,92,1
0,54,0,1
0,54,79,6
0,49,55,1
0,46,0,4
0,58,0,2
0,46,87,3
0,58,77,1
0,42,0,2
0,66,0,2
0,42,88,3
0,66,71,2
0,66,0,83
0,66,95,1
0,58,0,6
0,58,92,3
0,42,0,106
0,46,0,2
0,42,74,6
0,49,0,6
0,54,0,1
0,46,78,2
0,58,0,8
0,49,56,0
0,54,65,1
0,66,0,6
0,58,74,0
0,66,68,9
0,66,0,83
0,66,90,1
0,58,0,6
0,49,0,2
0,58,85,1
0,54,0,1
0,54,73,6
0,49,50,1
0,58,0,3
0,46,0,1
0,46,82,5
0,66,0,1
0,58,74,0
0,42,0,2
0,42,83,5
0,66,68,2
0,66,0,83
0,42,0,0
0,66,90,1
0,42,77,3
0,58,0,3
0,46,0,0
0,49,0,2
0,58,85,1
0,54,0,0
0,46,83,3
0,58,0,7
0,49,59,1
0,54,68,1
0,66,0,5
0,58,77,1
0,66,71,9
0,42,0,74
0,42,97,13
0,46,0,3
0,46,86,6
0,49,0,1
0,54,0,2
0,58,0,4
0,49,77,1
0,54,87,1
0,66,0,5
0,58,0,0
0,58,77,1
0,58,97,0
0,66,0,1
0,66,71,8
0,66,100,0
0,58,0,110
0,58,97,1
0,66,0,1
0,66,100,8
0,42,0,81
0,42,81,6
0,46,0,5
0,49,0,2
0,54,0,2
0,46,84,0
0,49,60,8
0,54,70,1
0,58,0,2
0,58,79,4
0,66,0,4
0,66,73,5
0,58,0,107
0,58,79,4
0,66,0,4
0,66,73,5
0,42,0,554
0,46,0,7
0,66,0,6
0,49,0,0
0,42,102,0
0,54,0,2
0,58,0,1
0,70,112,0
0,46,91,2
0,49,82,8
0,54,92,1
0,58,102,6
0,66,95,9
0,66,0,87
0,58,0,3
0,58,102,21
0,66,95,9
0,42,0,81
0,42,77,6
0,46,0,5
0,49,0,2
0,54,0,2
0,46,81,0
0,49,59,8
0,54,68,1
0,58,0,2
0,58,77,4
0,66,0,4
0,66,61,5
0,66,0,83
0,66,85,1
0,58,0,6
0,49,0,2
0,58,92,1
0,54,0,1
0,54,79,6
0,49,55,1
0,46,0,4
0,58,0,2
0,46,87,3
0,58,77,1
0,42,0,2
0,66,0,2
0,42,88,3
0,66,61,2
0,70,0,54
0,61,106,0
0,66,0,18
0,66,85,1
0,58,0,6
0,58,92,3
0,42,0,106
0,46,0,2
0,42,74,6
0,49,0,6
0,54,0,1
0,46,78,2
0,58,0,8
0,49,56,0
0,54,65,1
0,66,0,6
0,58,74,0
0,66,58,9
0,61,0,61
0,70,104,0
0,66,0,10
0,66,80,1
0,58,0,6
0,49,0,2
0,58,85,1
0,54,0,1
0,54,73,6
0,49,50,1
0,58,0,3
0,46,0,1
0,46,82,5
0,66,0,1
0,58,74,0
0,42,0,2
0,42,83,5
0,66,58,2
0,66,0,83
0,42,0,0
0,66,80,1
0,42,77,3
0,58,0,3
0,46,0,0
0,49,0,2
0,58,85,1
0,54,0,0
0,46,83,3
0,58,0,7
0,49,59,1
0,54,68,1
0,66,0,5
0,58,77,1
0,66,61,9
0,42,0,74
0,42,97,13
0,46,0,3
0,46,86,6
0,49,0,1
0,54,0,2
0,58,0,4
0,49,77,1
0,54,87,1
0,66,0,5
0,58,0,0
0,58,77,1
0,58,97,0
0,66,0,1
0,66,61,8
0,66,90,0
0,58,0,110
0,58,97,1
0,66,0,1
0,66,90,8
0,42,0,81
0,42,81,6
0,46,0,5
0,49,0,2
0,54,0,2
0,46,84,0
0,49,60,8
0,54,70,1
0,58,0,2
0,58,79,4
0,66,0,4
0,66,63,5
0,58,0,107
0,58,79,4
0,66,0,4
0,66,63,5
0,70,0,474
0,42,0,80
0,46,0,7
0,66,0,6
0,49,0,0
0,42,102,0
0,54,0,2
0,58,0,1
0,46,91,6
0,49,82,8
0,54,92,1
0,58,102,6
0,66,95,9
0,66,0,87
0,58,0,3
0,58,102,21
0,66,95,9
0,42,0,81
0,42,77,6
0,46,0,5
0,49,0,2
0,54,0,2
0,46,81,0
0,68,104,0
0,49,59,0
0,54,68,1
0,58,0,2
0,58,77,4
0,66,0,4
0,66,61,5
0,66,0,83
0,66,85,1
0,68,0,5
0,58,0,1
0,49,0,2
0,58,92,1
0,54,0,1
0,54,79,6
0,49,55,1
0,70,87,0
0,46,0,0
0,58,0,2
0,46,87,3
0,58,77,1
0,42,0,2
0,66,0,2
0,42,88,3
0,66,61,2
0,66,0,83
0,66,85,1
0,70,0,4
0,58,0,2
0,58,92,3
0,71,106,0
0,42,0,94
0,46,0,2
0,42,74,6
0,49,0,6
0,54,0,1
0,46,78,2
0,58,0,8
0,49,56,0
0,54,65,1
0,66,0,6
0,58,74,0
0,66,58,9
0,71,0,79
0,66,0,4
0,66,80,1
0,58,0,6
0,49,0,2
0,58,85,1
0,54,0,1
0,73,112,0
0,54,73,4
0,49,50,1
0,58,0,3
0,46,0,1
0,46,82,5
0,66,0,1
0,58,74,0
0,42,0,2
0,42,83,5
0,66,58,2
0,66,0,83
0,42,0,0
0,66,80,1
0,42,77,3
0,58,0,3
0,46,0,0
0,49,0,2
0,58,85,1
0,54,0,0
0,46,83,3
0,58,0,7
0,49,59,1
0,54,68,1
0,66,0,5
0,58,77,1
0,66,61,9
0,73,0,54
0,42,0,20
0,71,87,0
0,42,97,0
0,46,0,3
0,46,86,6
0,49,0,1
0,54,0,2
0,58,0,4
0,49,77,1
0,54,87,1
0,66,0,5
0,58,0,0
0,58,77,1
0,58,97,0
0,66,0,1
0,66,61,8
0,66,90,0
0,70,102,0
0,71,0,10
0,58,0,1
0,58,97,1
0,66,0,1
0,66,90,8
0,42,0,81
0,42,81,6
0,46,0,5
0,49,0,2
0,54,0,2
0,46,84,0
0,49,60,8
0,54,70,1
0,58,0,2
0,58,79,4
0,66,0,4
0,66,63,5
0,70,0,32
0,58,0,75
0,58,79,4
0,66,0,4
0,66,63,5
0,71,94,0
0,70,91,0
0,71,0,20
0,70,0,102
0,68,97,0
0,68,0,228
0,42,0,1
0,46,0,7
0,66,0,6
0,49,0,0
0,42,102,0
0,54,0,2
0,58,0,1
0,46,91,6
0,68,97,0
0,51,97,2
0,54,92,1
0,58,102,6
0,66,95,9
0,66,0,87
0,58,0,3
0,58,102,21
0,66,95,9
0,42,0,81
0,42,77,6
0,46,0,5
0,51,0,2
0,54,0,2
0,46,81,0
0,51,74,8
0,54,68,1
0,58,0,2
0,58,77,4
0,66,0,4
0,66,61,5
0,66,0,83
0,66,85,1
0,58,0,6
0,51,0,2
0,58,92,1
0,54,0,1
0,54,79,6
0,51,70,1
0,46,0,4
0,58,0,2
0,46,87,3
0,58,77,1
0,42,0,2
0,66,0,2
0,42,88,3
0,66,61,2
0,68,0,75
0,66,0,8
0,66,85,1
0,70,100,0
0,58,0,0
0,58,92,3
0,42,0,106
0,46,0,2
0,42,74,6
0,51,0,6
0,54,0,1
0,46,78,2
0,58,0,8
0,51,71,0
0,54,65,1
0,66,0,6
0,58,74,0
0,66,58,9
0,70,0,40
0,66,104,0
0,66,0,1
0,66,80,1
0,58,0,6
0,51,0,2
0,58,85,1
0,54,0,1
0,54,73,6
0,51,65,1
0,58,0,3
0,46,0,1
0,46,82,5
0,66,0,1
0,58,74,0
0,42,0,2
0,42,83,5
0,66,58,2
0,66,0,83
0,42,0,0
0,66,80,1
0,42,77,3
0,58,0,3
0,46,0,0
0,51,0,2
0,58,85,1
0,54,0,0
0,46,83,3
0,58,0,7
0,51,74,1
0,54,68,1
0,66,0,5
0,58,77,1
0,66,61,9
0,42,0,74
0,42,97,13
0,46,0,3
0,46,86,6
0,51,0,1
0,54,0,2
0,58,0,4
0,51,92,1
0,54,87,1
0,66,0,5
0,58,0,0
0,58,77,1
0,58,97,0
0,66,0,1
0,66,61,8
0,66,90,0
0,58,0,110
0,58,97,1
0,66,0,1
0,66,90,8
0,42,0,81
0,42,81,6
0,46,0,5
0,51,0,2
0,54,0,2
0,46,84,0
0,51,75,8
0,54,70,1
0,58,0,2
0,58,79,4
0,66,0,4
0,66,63,5
0,58,0,107
0,58,79,4
0,66,0,4
0,66,63,5
0,42,0,554
0,46,0,7
0,51,0,6
0,66,0,0
0,42,102,0
0,54,0,2
0,58,0,1
0,46,91,6
0,51,97,8
0,54,92,1
0,58,102,6
0,66,95,9
0,66,0,87
0,58,0,3
0,66,0,4
0,58,102,17
0,66,95,9
0,42,0,81
0,42,77,6
0,46,0,5
0,51,0,2
0,54,0,2
0,46,81,0
0,51,74,8
0,54,68,1
0,58,0,2
0,58,77,4
0,66,0,4
0,66,61,5
0,66,0,83
0,66,85,1
0,58,0,6
0,51,0,2
0,58,92,1
0,54,0,1
0,54,79,6
0,51,70,1
0,46,0,4
0,58,0,2
0,46,87,3
0,58,77,1
0,42,0,2
0,66,0,2
0,42,88,3
0,66,61,2
0,66,0,83
0,66,85,1
0,58,0,6
0,58,92,3
0,42,0,106
0,46,0,2
0,42,74,6
0,51,0,6
0,54,0,1
0,46,78,2
0,58,0,8
0,51,71,0
0,54,65,1
0,66,0,6
0,58,74,0
0,66,58,9
0,66,0,83
0,66,80,1
0,58,0,6
0,51,0,2
0,58,85,1
0,54,0,1
0,54,73,6
0,51,65,1
0,58,0,3
0,46,0,1
0,70,108,0
0,46,82,2
0,66,0,1
0,58,74,0
0,42,0,2
0,42,83,5
0,66,58,2
0,66,0,83
0,42,0,0
0,66,80,1
0,70,0,2
0,42,77,1
0,58,0,3
0,46,0,0
0,51,0,2
0,58,85,1
0,54,0,0
0,46,83,3
0,58,0,7
0,51,74,1
0,54,68,1
0,70,98,0
0,66,0,2
0,58,77,1
0,66,61,9
0,42,0,74
0,70,0,9
0,42,97,4
0,46,0,3
0,46,86,6
0,51,0,1
0,54,0,2
0,70,102,0
0,58,0,0
0,51,92,1
0,54,87,1
0,66,0,5
0,58,0,0
0,58,77,1
0,58,97,0
0,66,0,1
0,66,61,8
0,66,90,0
0,58,0,110
0,58,97,1
0,66,0,1
0,66,90,8
0,70,0,64
0,42,0,17
0,42,81,6
0,46,0,5
0,51,0,2
0,54,0,2
0,46,84,0
0,70,84,0
0,51,75,6
0,54,70,1
0,58,0,2
0,58,79,4
0,66,0,4
0,66,63,5
0,70,0,97
0,58,0,10
0,58,79,4
0,66,0,4
0,66,63,5
0,70,100,0
0,70,0,145
0,70,85,0
0,70,0,91
0,70,98,0
0,42,0,113
0,46,0,7
0,51,0,6
0,66,0,0
0,54,0,2
0,58,0,1
0,44,91,6
0,49,97,8
0,53,92,1
0,56,102,6
0,65,95,9
0,66,0,87
0,58,0,3
0,56,102,21
0,65,95,9
0,70,0,32
0,68,86,0
0,44,0,4
0,49,0,2
0,53,0,2
0,44,81,0
0,49,74,8
0,53,68,1
0,56,0,2
0,56,77,4
0,65,0,4
0,65,61,5
0,68,0,75
0,65,0,8
0,65,85,1
0,56,0,6
0,49,0,2
0,56,92,1
0,53,0,1
0,53,79,6
0,49,70,1
0,44,0,4
0,56,0,2
0,44,87,3
0,56,77,1
0,65,0,4
0,65,61,5
0,65,0,83
0,65,85,1
0,56,0,6
0,56,92,3
0,68,100,0
0,44,0,103
0,49,0,12
0,53,0,1
0,44,78,2
0,56,0,8
0,49,71,0
0,53,65,1
0,65,0,6
0,56,74,0
0,65,58,9
0,65,0,83
0,65,80,1
0,56,0,6
0,49,0,2
0,56,85,1
0,53,0,1
0,53,73,6
0,49,65,1
0,56,0,3
0,44,0,1
0,44,82,5
0,65,0,1
0,56,74,0
0,65,58,9
0,65,0,83
0,65,80,1
0,56,0,6
0,44,0,0
0,49,0,2
0,56,85,1
0,53,0,0
0,44,83,3
0,56,0,7
0,49,74,1
0,53,68,1
0,65,0,5
0,56,77,1
0,65,61,9
0,44,0,90
0,44,86,6
0,49,0,1
0,53,0,2
0,56,0,4
0,49,92,1
0,53,87,1
0,65,0,5
0,56,0,0
0,56,77,1
0,56,97,0
0,65,0,1
0,65,61,8
0,65,90,0
0,56,0,110
0,56,97,1
0,65,0,1
0,65,90,8
0,44,0,92
0,49,0,2
0,53,0,2
0,44,84,0
0,49,75,8
0,53,70,1
0,56,0,2
0,56,79,4
0,65,0,4
0,65,63,5
0,56,0,107
0,56,79,4
0,65,0,4
0,65,63,5
0,44,0,561
0,65,0,6
0,49,0,0
0,53,0,2
0,56,0,1
0,44,91,6
0,49,97,8
0,53,92,1
0,56,102,6
0,65,95,9
0,65,0,87
0,56,0,3
0,56,102,21
0,65,95,9
0,68,0,38
0,44,0,54
0,49,0,2
0,53,0,2
0,44,81,0
0,49,74,8
0,53,68,1
0,56,0,2
0,56,77,4
0,65,0,4
0,65,61,5
0,65,0,83
0,65,85,1
0,56,0,6
0,49,0,2
0,56,92,1
0,53,0,1
0,53,79,6
0,49,70,1
0,44,0,4
0,56,0,2
0,44,87,3
0,56,77,1
0,65,0,4
0,65,61,5
0,65,0,83
0,65,85,1
0,56,0,6
0,56,92,3
0,44,0,108
0,49,0,12
0,53,0,1
0,44,78,2
0,56,0,8
0,49,71,0
0,53,65,1
0,65,0,6
0,56,74,0
0,65,58,9
0,65,0,83
0,65,80,1
0,56,0,6
0,49,0,2
0,56,85,1
0,53,0,1
0,53,73,6
0,49,65,1
0,56,0,3
0,44,0,1
0,44,82,5
0,65,0,1
0,56,74,0
0,65,58,9
0,65,0,83
0,65,80,1
0,56,0,6
0,44,0,0
0,49,0,2
0,56,85,1
0,53,0,0
0,44,83,3
0,56,0,7
0,49,74,1
0,53,68,1
0,65,0,5
0,56,77,1
