track,note,velocity,time
1,45,114,360
1,52,114,8
1,38,114,48
1,47,114,176
1,50,114,16
1,45,114,0
1,49,114,8
1,43,114,0
1,47,114,8
1,43,114,8
1,38,114,0
1,45,114,0
1,37,114,8
1,45,114,0
1,35,114,184
1,45,114,8
1,41,114,0
1,48,114,8
1,41,114,8
1,43,114,8
1,46,114,8
1,41,114,0
1,45,114,8
1,41,114,0
1,43,114,8
1,43,114,8
1,39,114,8
1,45,114,8
1,52,114,8
1,38,114,48
1,47,114,176
1,50,114,16
1,45,114,0
1,49,114,8
1,43,114,0
1,47,114,8
1,43,114,8
1,38,114,0
1,45,114,0
1,37,114,8
1,45,114,0
1,35,114,184
1,45,114,8
1,41,114,0
1,48,114,8
1,41,114,8
1,43,114,8
1,46,114,8
1,41,114,0
1,45,114,8
1,41,114,0
1,43,114,8
1,43,114,8
1,39,114,8
1,45,114,8
1,52,114,8
1,38,114,48
1,47,114,176
1,50,114,16
1,45,114,0
1,49,114,8
1,43,114,0
1,47,114,8
1,43,114,8
1,38,114,0
1,45,114,0
1,37,114,8
1,45,114,0
1,35,114,184
1,45,114,8
1,41,114,0
1,48,114,8
1,41,114,8
1,43,114,8
1,46,114,8
1,41,114,0
1,45,114,8
1,41,114,0
1,43,114,8
1,43,114,8
1,39,114,8
1,45,114,8
1,52,114,8
1,38,114,48
1,47,114,176
1,50,114,16
1,45,114,0
1,49,114,8
1,43,114,0
1,47,114,8
1,43,114,8
1,38,114,0
1,45,114,0
1,37,114,8
1,45,114,0
1,35,114,184
1,45,114,8
1,41,114,0
1,48,114,8
1,41,114,8
1,43,114,8
1,46,114,8
1,41,114,0
1,45,114,8
1,41,114,0
1,43,114,8
1,43,114,8
1,39,114,8
1,33,114,8
1,33,114,8
1,33,114,8
1,33,114,8
1,33,114,8
1,33,114,8
1,33,114,64
1,33,114,8
1,33,114,8
1,33,114,8
1,33,114,8
1,33,114,8
1,33,114,8
1,38,114,8
1,37,114,8
1,35,114,8
1,35,114,8
1,35,114,8
1,35,114,8
1,36,114,8
1,36,114,144
1,36,114,8
1,36,114,8
1,36,114,200
1,36,114,8
1,36,114,200
1,36,114,8
1,36,114,200
1,36,114,8
1,36,114,8
1,36,114,8
1,33,114,8
1,33,114,144
1,33,114,8
1,33,114,8
1,33,114,200
1,33,114,8
1,33,114,200
1,33,114,8
1,33,114,200
1,33,114,8
1,33,114,8
1,33,114,8
1,33,114,8
1,38,114,8
1,37,114,8
1,35,114,8
1,35,114,8
1,33,114,8
1,35,114,8
1,36,114,8
1,26,114,8
1,60,114,8
1,45,114,0
1,26,114,8
1,21,114,8
1,24,114,8
1,26,114,8
1,24,114,8
1,26,114,8
1,57,114,0
1,59,114,8
1,60,114,8
1,52,114,8
1,50,114,8
1,52,114,8
1,53,114,8
1,59,114,8
1,33,114,960
1,57,114,384
1,59,114,16
1,60,114,8
1,52,114,8
1,21,114,5768
1,26,114,8
1,21,114,8
1,24,114,8
1,26,114,8
1,21,114,8
1,26,114,8
1,21,114,8
1,24,114,8
1,26,114,8
1,21,114,8
1,26,114,8
1,21,114,8
1,24,114,8
1,26,114,8
1,26,114,8
1,26,114,8
1,26,114,8
1,26,114,8
1,26,114,8
1,26,114,8
1,24,114,8
1,26,114,8
1,26,114,8
1,21,114,8
1,24,114,8
1,26,114,8
1,26,114,8
1,26,114,8
1,26,114,8
1,26,114,8
1,26,114,8
1,26,114,8
1,24,114,8
1,26,114,8
1,26,114,8
1,26,114,8
1,26,114,8
1,26,114,8
1,26,114,0
1,57,114,0
1,59,114,8
1,60,114,8
1,52,114,8
1,50,114,0
1,50,114,0
1,52,114,8
1,53,114,8
1,59,114,8
1,33,114,960
1,33,114,8
1,57,114,0
1,59,114,16
1,60,114,8
1,52,114,8
1,53,114,0
1,45,114,0
1,48,114,0
1,41,114,0
1,40,114,8
1,38,114,8
1,36,114,8
1,45,114,2600
1,52,114,8
1,38,114,48
1,47,114,176
1,50,114,16
1,45,114,0
1,49,114,8
1,43,114,0
1,47,114,8
1,43,114,8
1,38,114,0
1,45,114,0
1,37,114,8
1,45,114,0
1,35,114,184
1,45,114,8
1,41,114,0
1,48,114,8
1,41,114,8
1,43,114,8
1,46,114,8
1,41,114,0
1,45,114,8
1,41,114,0
1,43,114,8
1,43,114,8
1,39,114,8
1,45,114,8
1,52,114,8
1,38,114,48
1,47,114,176
1,50,114,16
1,45,114,0
1,49,114,8
1,43,114,0
1,47,114,8
1,43,114,8
1,38,114,0
1,45,114,0
1,37,114,8
1,45,114,0
1,35,114,184
1,45,114,8
1,41,114,0
1,48,114,8
1,41,114,8
1,43,114,8
1,46,114,8
1,41,114,0
1,45,114,8
1,41,114,0
1,43,114,8
1,43,114,8
1,39,114,8
1,45,114,8
1,52,114,8
1,38,114,48
1,47,114,176
1,50,114,16
1,45,114,0
1,49,114,8
1,43,114,0
1,47,114,8
1,43,114,8
1,38,114,0
1,45,114,0
1,37,114,8
1,45,114,0
1,35,114,184
1,45,114,8
1,41,114,0
1,48,114,8
1,41,114,8
1,43,114,8
1,46,114,8
1,41,114,0
1,45,114,8
1,41,114,0
1,43,114,8
1,43,114,8
1,39,114,8
1,45,114,8
1,52,114,8
1,38,114,48
1,47,114,176
1,50,114,16
1,45,114,0
1,49,114,8
1,43,114,0
1,47,114,8
1,43,114,8
1,38,114,0
1,45,114,0
1,37,114,8
1,45,114,0
1,35,114,184
1,45,114,8
1,41,114,0
1,48,114,8
1,41,114,8
1,43,114,8
1,46,114,8
1,41,114,0
1,45,114,8
1,41,114,0
1,43,114,8
1,43,114,8
1,39,114,8
1,33,114,8
1,33,114,8
1,33,114,8
1,33,114,8
1,33,114,8
1,33,114,8
1,33,114,64
1,33,114,8
1,33,114,8
1,33,114,8
1,33,114,8
1,33,114,8
1,33,114,8
1,38,114,8
1,37,114,8
1,35,114,8
1,35,114,8
1,33,114,8
1,35,114,8
1,25,114,8
1,25,114,144
1,25,114,8
1,25,114,8
1,25,114,200
1,25,114,8
1,25,114,200
1,25,114,8
1,25,114,200
1,25,114,8
1,25,114,8
1,25,114,8
1,28,114,8
1,28,114,144
1,28,114,8
1,28,114,8
1,28,114,200
1,28,114,8
1,28,114,200
1,28,114,8
1,28,114,200
1,28,114,8
1,28,114,8
1,28,114,8
1,28,114,8
1,26,114,8
1,25,114,8
1,23,114,8
1,24,114,392
1,29,114,8
1,28,114,8
1,26,114,8
1,27,114,392
1,32,114,8
1,31,114,8
1,29,114,8
1,41,114,192
1,40,114,8
1,38,114,8
1,36,114,8
1,35,114,8
1,34,114,8
1,33,114,8
1,37,114,8
1,40,114,8
1,39,114,8
1,43,114,8
1,46,114,8
1,45,114,8
1,49,114,8
1,52,114,8
1,51,114,8
1,51,114,8
1,51,114,8
1,57,114,8
1,57,114,8
1,57,114,8
1,31,114,0
1,26,114,0
1,24,114,8
1,26,114,8
1,21,114,8
1,24,114,8
1,26,114,8
2,52,100,8808
2,57,100,8
2,50,100,240
2,55,100,8
2,52,100,224
2,57,100,192
2,50,100,192
2,55,100,8
2,50,100,8
2,54,100,0
2,62,100,0
2,52,100,240
2,57,100,0
2,50,100,184
2,52,100,208
2,50,100,224
2,48,100,8
2,53,100,8
2,46,100,200
2,51,100,8
2,48,100,224
2,53,100,192
2,46,100,200
2,51,100,8
2,46,100,8
2,45,100,8
2,52,100,0
2,57,100,0
2,61,100,0
2,45,100,8
2,52,100,0
2,57,100,0
2,61,100,0
2,43,100,288
2,50,100,0
2,55,100,0
2,59,100,0
2,43,100,8
2,50,100,0
2,55,100,0
2,59,100,0
2,45,100,200
2,52,100,0
2,57,100,0
2,61,100,0
2,45,100,200
2,52,100,0
2,57,100,0
2,61,100,0
2,64,100,0
2,45,100,200
2,52,100,0
2,57,100,0
2,59,100,0
2,43,100,8
2,50,100,0
2,55,100,0
2,59,100,0
2,62,100,0
2,43,100,8
2,50,100,0
2,55,100,0
2,59,100,0
2,50,100,200
2,54,100,0
2,57,100,0
2,62,100,0
2,50,100,8
2,54,100,0
2,57,100,0
2,62,100,0
2,52,100,200
2,57,100,0
2,61,100,0
2,52,100,8
2,57,100,0
2,61,100,0
2,47,100,200
2,50,100,0
2,55,100,0
2,59,100,0
2,49,100,200
2,52,100,0
2,57,100,0
2,61,100,0
2,47,100,200
2,50,100,0
2,55,100,0
2,59,100,0
2,48,100,8
2,53,100,0
2,57,100,0
2,48,100,8
2,53,100,0
2,57,100,0
2,46,100,224
2,51,100,0
2,55,100,0
2,46,100,8
2,51,100,0
2,55,100,0
2,58,100,0
2,48,100,200
2,53,100,0
2,57,100,0
2,48,100,200
2,53,100,0
2,57,100,0
2,45,100,200
2,48,100,0
2,53,100,0
2,46,100,8
2,51,100,0
2,55,100,0
2,46,100,8
2,51,100,0
2,55,100,0
2,58,100,0
2,45,100,200
2,52,100,0
2,57,100,0
2,61,100,0
2,45,100,8
2,52,100,0
2,57,100,0
2,61,100,0
2,43,100,288
2,50,100,0
2,55,100,0
2,59,100,0
2,43,100,8
2,50,100,0
2,55,100,0
2,59,100,0
2,45,100,200
2,52,100,0
2,57,100,0
2,61,100,0
2,45,100,200
2,52,100,0
2,57,100,0
2,61,100,0
2,64,100,0
2,45,100,200
2,52,100,0
2,57,100,0
2,59,100,0
2,43,100,8
2,50,100,0
2,55,100,0
2,59,100,0
2,62,100,0
2,43,100,8
2,50,100,0
2,55,100,0
2,59,100,0
2,50,100,200
2,54,100,0
2,57,100,0
2,62,100,0
2,50,100,8
2,54,100,0
2,57,100,0
2,62,100,0
2,52,100,200
2,57,100,0
2,61,100,0
2,52,100,8
2,57,100,0
2,61,100,0
2,47,100,200
2,50,100,0
2,55,100,0
2,59,100,0
2,49,100,200
2,52,100,0
2,57,100,0
2,61,100,0
2,47,100,200
2,50,100,0
2,55,100,0
2,59,100,0
2,48,100,8
2,53,100,0
2,57,100,0
2,48,100,8
2,53,100,0
2,57,100,0
2,46,100,224
2,51,100,0
2,55,100,0
2,46,100,8
2,51,100,0
2,55,100,0
2,58,100,0
2,48,100,200
2,53,100,0
2,57,100,0
2,48,100,200
2,53,100,0
2,57,100,0
2,45,100,200
2,48,100,0
2,53,100,0
2,46,100,8
2,51,100,0
2,55,100,0
2,46,100,8
2,51,100,0
2,55,100,0
2,58,100,0
2,45,100,200
2,52,100,0
2,57,100,0
2,61,100,0
2,45,100,8
2,52,100,0
2,57,100,0
2,61,100,0
2,43,100,288
2,50,100,0
2,55,100,0
2,59,100,0
2,43,100,8
2,50,100,0
2,55,100,0
2,59,100,0
2,45,100,200
2,52,100,0
2,57,100,0
2,61,100,0
2,45,100,200
2,52,100,0
2,57,100,0
2,61,100,0
2,64,100,0
2,45,100,200
2,52,100,0
2,57,100,0
2,59,100,0
2,43,100,8
2,50,100,0
2,55,100,0
2,59,100,0
2,62,100,0
2,43,100,8
2,50,100,0
2,55,100,0
2,59,100,0
2,50,100,392
2,54,100,0
2,57,100,0
2,62,100,0
2,52,100,8
2,57,100,0
2,61,100,0
2,47,100,8
2,50,100,0
2,55,100,0
2,59,100,0
2,50,100,200
2,55,100,0
2,59,100,0
2,50,100,32
2,55,100,0
2,57,100,0
2,50,100,32
2,55,100,0
2,59,100,0
2,48,100,32
2,53,100,0
2,57,100,0
2,60,100,0
2,48,100,200
2,53,100,0
2,57,100,0
2,60,100,0
2,46,100,200
2,51,100,0
2,55,100,0
2,58,100,0
2,46,100,8
2,51,100,0
2,55,100,0
2,58,100,0
2,48,100,200
2,53,100,0
2,57,100,0
2,60,100,0
2,48,100,200
2,53,100,0
2,57,100,0
2,60,100,0
2,48,100,200
2,53,100,0
2,57,100,0
2,60,100,0
2,46,100,8
2,51,100,0
2,55,100,0
2,58,100,0
2,46,100,8
2,51,100,0
2,55,100,0
2,58,100,0
2,46,100,8
2,51,100,0
2,55,100,0
2,58,100,0
2,45,100,200
2,52,100,0
2,57,100,0
2,52,100,200
2,57,100,0
2,52,100,8
2,57,100,0
2,52,100,8
2,57,100,0
2,52,100,200
2,57,100,0
2,52,100,8
2,57,100,0
2,52,100,200
2,57,100,0
2,52,100,8
2,57,100,0
2,52,100,200
2,57,100,0
2,52,100,8
2,57,100,0
2,52,100,8
2,57,100,0
2,52,100,8
2,57,100,0
2,54,100,200
2,57,100,0
2,62,100,0
2,62,100,0
2,52,100,8
2,57,100,0
2,61,100,0
2,61,100,8
2,50,100,8
2,55,100,0
2,59,100,0
2,59,100,200
2,57,100,8
2,59,100,8
2,48,100,8
2,53,100,0
2,57,100,0
2,60,100,0
2,65,100,768
2,65,100,16
2,65,100,16
2,65,100,16
2,62,100,16
2,60,100,8
2,62,100,0
2,79,110,8
2,50,60,1480
2,50,60,32
2,50,60,32
2,50,60,216
2,50,60,24
2,50,60,16
2,50,60,32
2,50,60,32
2,50,60,32
2,50,60,216
2,50,60,24
2,50,60,16
2,50,60,32
2,50,60,32
2,50,60,32
2,50,60,216
2,50,60,24
2,50,60,16
2,50,60,32
2,50,60,32
2,50,60,32
2,50,60,216
2,50,60,24
2,50,60,16
2,57,80,8
2,62,80,0
2,50,80,8
2,57,80,0
2,65,80,0
2,52,80,0
2,59,80,0
2,67,80,0
2,53,80,0
2,60,80,0
2,69,80,0
2,52,80,0
2,59,80,0
2,67,80,0
2,50,80,0
2,57,80,0
2,65,80,0
2,52,80,0
2,59,80,0
2,67,80,0
2,53,80,0
2,60,80,0
2,69,80,0
2,52,80,0
2,59,80,0
2,67,80,0
2,50,80,0
2,57,80,0
2,65,80,0
2,52,80,0
2,59,80,0
2,67,80,0
2,53,80,0
2,60,80,0
2,69,80,0
2,52,80,0
2,59,80,0
2,67,80,0
2,81,100,8
2,86,100,0
2,81,99,8
2,86,99,0
2,81,97,8
2,86,97,0
2,81,95,8
2,86,95,0
2,81,93,8
2,86,93,0
2,81,91,8
2,86,91,0
2,81,90,8
2,86,90,0
2,81,88,8
2,86,88,0
2,81,86,8
2,86,86,0
2,81,84,8
2,86,84,0
2,81,82,8
2,86,82,0
2,81,80,8
2,86,80,0
2,81,78,8
2,86,78,0
2,81,76,8
2,86,76,0
2,81,74,8
2,86,74,0
2,81,73,8
2,86,73,0
2,81,71,8
2,86,71,0
2,81,69,8
2,86,69,0
2,81,67,8
2,86,67,0
2,81,65,8
2,86,65,0
2,81,66,8
2,86,66,0
2,81,67,8
2,86,67,0
2,81,68,8
2,86,68,0
2,81,69,8
2,86,69,0
2,81,71,8
2,86,71,0
2,81,72,8
2,86,72,0
2,81,73,8
2,86,73,0
2,81,74,8
2,86,74,0
2,81,75,8
2,86,75,0
2,81,77,8
2,86,77,0
2,81,78,8
2,86,78,0
2,81,79,8
2,86,79,0
2,60,80,8
2,65,80,0
2,69,80,0
2,74,80,8
2,69,80,8
2,74,100,384
2,74,100,112
2,74,100,304
2,74,100,112
2,74,100,112
2,81,100,776
2,81,100,112
2,81,100,112
2,81,100,112
2,81,100,8
2,81,100,112
2,81,100,112
2,81,100,112
2,50,80,8
2,57,80,0
2,65,80,0
2,52,80,0
2,59,80,0
2,67,80,0
2,53,80,0
2,60,80,0
2,69,80,0
2,52,80,0
2,59,80,0
2,67,80,0
2,50,80,0
2,57,80,0
2,65,80,0
2,52,80,0
2,59,80,0
2,67,80,0
2,53,80,0
2,60,80,0
2,69,80,0
2,52,80,0
2,59,80,0
2,67,80,0
2,50,80,0
2,57,80,0
2,65,80,0
2,52,80,0
2,59,80,0
2,67,80,0
2,53,80,0
2,60,80,0
2,69,80,0
2,52,80,0
2,59,80,0
2,67,80,0
2,50,80,384
2,57,80,0
2,65,80,0
2,48,80,8
2,55,80,0
2,64,80,0
2,45,80,8
2,53,80,0
2,62,80,0
2,53,80,8
2,62,80,0
2,69,80,0
2,52,80,8
2,60,80,0
2,67,80,0
2,48,80,8
2,57,80,0
2,65,80,0
2,52,80,0
2,55,80,0
2,60,80,0
2,69,80,0
2,45,100,80
2,45,100,40
2,47,100,40
2,49,100,64
