track,note,velocity,time
1,80,112,82200
1,77,112,0
1,73,112,0
1,80,112,0
1,77,112,0
1,73,112,0
1,82,112,0
1,78,112,0
1,73,112,0
1,82,112,0
1,78,112,0
1,73,112,0
1,82,112,0
1,78,112,0
1,73,112,0
1,82,112,240
1,78,112,0
1,73,112,0
1,82,112,240
1,78,112,0
1,73,112,0
1,83,112,0
1,78,112,0
1,73,112,0
1,78,112,0
1,73,112,0
1,80,112,0
1,78,112,0
1,73,112,0
1,80,112,0
1,78,112,0
1,73,112,0
1,80,112,0
1,75,112,0
1,78,112,0
1,82,112,0
1,78,112,0
1,75,112,0
1,71,112,0
1,78,112,1440
1,70,112,0
1,73,112,0
1,75,112,0
1,71,112,0
1,80,112,0
1,78,112,0
1,82,112,0
1,73,112,0
1,78,112,0
1,73,112,0
1,82,112,0
1,78,112,0
1,73,112,0
1,82,112,0
1,82,112,0
1,73,112,0
1,78,112,0
1,73,112,0
1,78,112,0
1,82,112,0
1,78,112,0
1,82,112,0
1,73,112,0
1,83,112,0
1,80,112,0
1,75,112,0
1,80,112,0
1,75,112,0
1,71,112,0
1,68,112,0
1,80,112,0
1,73,112,0
1,76,112,0
1,73,112,0
1,69,112,0
1,76,112,0
1,74,112,0
1,69,112,0
1,71,112,0
1,68,112,0
1,76,112,0
1,80,112,0
1,71,112,0
1,68,112,0
1,80,112,0
1,76,112,0
1,71,112,0
1,76,112,0
1,73,112,0
1,69,112,0
1,69,112,0
1,74,112,0
1,78,112,0
1,80,112,0
1,76,112,0
1,71,112,0
1,78,112,0
1,76,112,0
1,71,112,0
1,71,112,0
1,76,112,0
1,80,112,0
1,76,112,0
1,71,112,0
1,68,112,0
1,78,112,0
1,73,112,0
1,70,112,0
1,73,112,0
1,78,112,0
1,70,112,0
1,77,112,0
1,73,112,0
1,68,112,0
1,78,112,240
1,73,112,0
1,68,112,0
1,68,112,240
1,80,112,0
1,73,112,0
1,78,112,0
1,73,112,0
1,68,112,0
1,83,112,0
1,80,112,0
1,76,112,0
1,82,112,0
1,78,112,0
1,74,112,0
1,80,112,0
1,76,112,0
1,73,112,0
1,80,112,0
1,76,112,0
1,71,112,0
1,81,112,0
1,76,112,0
1,73,112,0
1,78,112,0
1,75,112,0
1,69,112,0
1,80,112,3840
1,76,112,0
1,71,112,0
1,78,112,0
1,76,112,0
1,71,112,0
1,80,112,0
1,76,112,0
1,71,112,0
1,80,112,0
1,76,112,0
1,71,112,0
1,76,112,0
1,71,112,0
1,80,112,0
1,71,112,0
1,76,112,0
1,80,112,0
1,75,112,0
1,80,112,0
1,83,112,0
1,80,112,0
1,75,112,0
1,83,112,0
1,80,112,0
1,83,112,0
1,75,112,0
1,83,112,0
1,80,112,0
1,75,112,0
1,78,112,0
1,75,112,0
1,81,112,0
1,76,112,0
1,83,112,0
1,80,112,0
1,81,112,0
1,73,112,0
1,76,112,0
1,69,112,0
1,76,112,0
1,73,112,0
1,68,112,1920
1,76,112,0
1,83,112,0
1,69,112,0
1,78,112,0
1,83,112,0
1,71,112,0
1,80,112,0
1,83,112,0
1,83,112,0
1,71,112,0
1,80,112,0
1,73,112,0
1,78,112,0
1,81,112,0
1,80,112,0
1,76,112,0
1,71,112,0
1,83,112,240
1,80,112,0
1,73,112,0
1,76,112,0
1,71,112,0
1,80,112,0
1,73,112,0
1,78,112,0
1,81,112,0
1,71,112,0
1,76,112,0
1,80,112,0
1,81,112,240
1,74,112,0
1,71,112,0
1,74,112,720
1,72,112,0
1,81,112,0
1,81,112,0
1,74,112,0
1,76,112,0
1,81,112,0
1,75,112,0
1,83,112,0
1,75,112,0
1,81,112,0
1,83,112,240
1,79,112,0
1,71,112,0
1,79,112,0
1,83,112,0
1,71,112,0
1,79,112,0
1,83,112,0
1,71,112,0
1,79,112,0
1,84,112,0
1,72,112,0
1,78,112,0
1,81,112,0
1,72,112,0
1,78,112,0
1,81,112,0
1,72,112,0
1,78,112,0
1,81,112,0
1,74,112,0
1,81,112,0
1,78,112,0
1,74,112,0
1,76,112,720
1,80,112,0
1,83,112,0
1,76,112,0
1,80,112,0
1,83,112,0
1,83,112,0
1,80,112,0
1,76,112,0
1,83,112,0
1,80,112,0
1,76,112,0
1,76,112,0
1,80,112,0
1,71,112,0
1,76,112,0
1,71,112,0
1,80,112,0
1,73,112,0
1,81,112,0
1,78,112,0
1,75,112,0
1,78,112,0
1,81,112,0
1,81,112,0
1,78,112,0
1,75,112,0
1,81,112,0
1,78,112,0
1,75,112,0
1,81,112,0
1,78,112,0
1,75,112,0
1,74,112,0
1,79,112,0
1,83,112,0
1,81,112,0
1,78,112,0
1,74,112,0
1,79,112,0
1,74,112,0
1,71,112,0
1,69,112,0
1,74,112,0
1,78,112,0
1,69,112,0
1,74,112,0
1,79,112,0
1,67,112,0
1,72,112,0
1,76,112,0
1,76,112,1920
1,73,112,0
1,67,112,0
1,78,112,0
1,74,112,0
1,67,112,0
1,74,112,0
1,71,112,0
1,64,112,0
1,70,96,32400
1,72,96,0
1,74,96,0
1,74,96,0
1,74,96,0
1,74,96,0
1,74,96,0
1,74,96,0
1,74,96,0
1,74,96,120
1,74,96,0
1,72,96,0
1,67,96,0
1,67,96,0
1,70,96,840
1,72,96,0
1,74,96,0
1,74,96,120
1,74,96,0
1,74,96,0
1,74,96,0
1,74,96,0
1,74,96,0
1,74,96,0
1,72,96,0
1,70,96,0
1,68,96,0
1,70,96,360
1,72,96,0
1,74,96,0
1,74,96,0
1,74,96,0
1,74,96,40
1,74,96,120
1,75,96,0
1,72,96,0
1,70,96,0
1,65,96,0
1,70,96,120
1,72,96,0
1,72,96,0
1,72,96,120
1,77,96,240
1,77,96,0
1,77,96,0
1,77,96,0
1,75,96,0
1,75,96,0
1,75,96,0
1,75,96,0
1,72,96,0
1,77,96,240
1,77,96,0
1,77,96,0
1,77,96,0
1,77,96,120
1,77,96,0
1,77,96,0
1,77,96,0
1,77,96,120
1,77,96,0
1,77,96,40
1,77,96,80
1,79,96,0
1,81,112,61920
1,69,112,0
1,84,112,120
1,72,112,0
1,81,112,0
1,69,112,0
1,67,112,0
1,79,112,0
1,78,112,0
1,66,112,0
1,81,112,480
1,69,112,0
1,84,112,120
1,72,112,0
1,81,112,0
1,69,112,0
1,79,112,0
1,67,112,0
1,78,112,0
1,66,112,0
1,81,112,480
1,69,112,0
1,84,112,120
1,72,112,0
1,81,112,0
1,69,112,0
1,79,112,0
1,67,112,0
1,78,112,0
1,66,112,0
1,81,112,480
1,69,112,0
1,84,112,120
1,72,112,0
1,81,112,360
1,69,112,0
1,67,112,93120
1,79,112,0
1,69,112,0
1,81,112,0
1,67,112,0
1,79,112,0
1,72,112,0
1,84,112,0
1,71,112,0
1,83,112,0
1,67,112,240
1,79,112,0
1,69,112,0
1,81,112,0
1,67,112,0
1,79,112,0
1,72,112,0
1,84,112,0
1,71,112,0
1,83,112,0
1,67,112,240
1,79,112,0
1,69,112,0
1,81,112,0
1,67,112,0
1,79,112,0
1,72,112,0
1,84,112,0
1,71,112,0
1,83,112,0
1,67,112,240
1,79,112,0
1,69,112,0
1,81,112,0
1,67,112,0
1,79,112,0
1,72,112,0
1,84,112,0
1,71,112,0
1,83,112,0
2,81,112,408630
2,69,112,0
2,84,112,120
2,72,112,0
2,81,112,0
2,69,112,0
2,79,112,0
2,67,112,0
2,78,112,0
2,66,112,0
2,81,112,480
2,69,112,0
2,84,112,120
2,72,112,0
2,81,112,0
2,69,112,0
2,79,112,0
2,67,112,0
2,78,112,0
2,66,112,0
2,81,112,480
2,69,112,0
2,84,112,120
2,72,112,0
2,81,112,0
2,69,112,0
2,79,112,0
2,67,112,0
2,78,112,0
2,66,112,0
2,81,112,480
2,69,112,0
2,84,112,120
2,72,112,0
2,81,112,360
2,69,112,0
2,67,112,93090
2,79,112,0
2,69,112,0
2,81,112,0
2,67,112,0
2,79,112,0
2,72,112,0
2,84,112,0
2,71,112,0
2,83,112,0
2,67,112,240
2,79,112,0
2,69,112,0
2,81,112,0
2,67,112,0
2,79,112,0
2,72,112,0
2,84,112,0
2,71,112,0
2,83,112,0
2,67,112,240
2,79,112,0
2,69,112,0
2,81,112,0
2,67,112,0
2,79,112,0
2,72,112,0
2,84,112,0
2,71,112,0
2,83,112,0
2,67,112,240
2,79,112,0
2,69,112,0
2,81,112,0
2,67,112,0
2,79,112,0
2,72,112,0
2,84,112,0
2,71,112,0
2,83,112,0
3,57,112,71160
3,50,108,0
3,50,106,0
3,60,100,0
3,50,110,0
3,57,108,0
3,57,106,0
3,50,98,0
3,50,99,0
3,50,102,0
3,50,104,0
3,67,103,0
3,67,110,0
3,50,114,0
3,66,112,0
3,50,106,0
3,50,102,0
3,50,108,0
3,62,93,0
3,50,104,0
3,50,104,0
3,65,102,0
3,50,100,0
3,62,99,0
3,62,96,0
3,50,110,0
3,50,112,0
3,50,100,0
3,50,91,0
3,71,89,0
3,71,92,0
3,59,105,0
3,69,104,0
3,50,100,0
3,50,99,0
3,50,89,0
3,69,100,0
3,69,102,0
3,50,110,0
3,71,108,0
3,71,104,0
3,50,102,0
3,69,111,0
3,69,109,0
3,50,104,0
3,50,105,0
3,69,96,0
3,69,89,0
3,76,99,0
3,76,104,0
3,59,100,0
3,74,104,0
3,50,110,0
3,50,107,0
3,50,103,0
3,74,100,0
3,74,94,0
3,50,99,0
3,76,89,0
3,76,87,0
3,50,105,0
3,74,102,0
3,74,100,0
3,50,95,0
3,50,99,0
3,50,102,0
3,50,107,0
3,71,102,0
3,71,111,0
3,71,107,0
3,71,108,0
3,69,112,0
3,45,124,0
3,47,120,0
3,48,118,0
3,49,125,0
3,48,120,0
3,47,118,0
3,45,112,0
3,45,116,0
3,45,120,0
3,48,123,0
3,55,125,0
3,66,95,480
3,64,97,0
3,68,92,0
3,66,90,240
3,66,96,0
3,71,94,0
3,70,103,0
3,66,88,0
3,71,99,0
3,70,103,0
3,66,103,0
3,71,96,0
3,66,89,0
3,61,94,0
3,66,100,0
3,61,96,0
3,59,102,0
3,59,91,0
3,56,97,0
3,61,102,0
3,59,101,240
3,59,100,0
3,59,93,120
3,66,95,0
3,61,96,0
3,59,101,0
3,64,101,0
3,63,88,0
3,59,101,0
3,59,95,120
3,56,89,0
3,66,91,0
3,58,91,0
3,66,95,0
3,63,96,0
3,68,100,0
3,66,100,120
3,70,92,0
3,70,93,0
3,66,102,0
3,66,88,120
3,70,97,0
3,70,92,120
3,73,96,0
3,70,98,0
3,71,100,120
3,68,88,0
3,70,100,0
3,61,99,0
3,61,97,0
3,76,101,0
3,73,93,0
3,69,100,0
3,64,89,0
3,57,96,0
3,78,92,0
3,74,99,0
3,69,100,0
3,62,97,0
3,64,95,0
3,80,94,0
3,71,96,0
3,76,90,0
3,52,95,240
3,56,103,0
3,59,92,0
3,54,89,0
3,56,98,0
3,59,89,0
3,54,93,0
3,76,91,0
3,73,90,0
3,69,93,0
3,64,100,0
3,57,91,0
3,78,95,0
3,74,103,0
3,69,96,0
3,62,88,0
3,80,103,0
3,76,94,0
3,71,88,0
3,64,95,0
3,73,96,0
3,70,101,0
3,66,99,0
3,61,91,0
3,54,100,0
3,66,97,0
3,61,92,0
3,54,99,0
3,77,93,0
3,73,97,0
3,68,93,0
3,61,94,0
3,65,95,0
3,68,96,0
3,65,100,0
3,65,96,0
3,68,101,0
3,65,97,0
3,77,96,0
3,73,95,0
3,70,92,0
3,65,99,0
3,58,94,0
3,52,98,0
3,57,99,0
3,59,99,0
3,62,93,0
3,59,97,0
3,59,102,0
3,52,100,0
3,52,95,0
3,52,103,0
3,54,98,0
3,57,89,0
3,59,99,0
3,62,98,0
3,64,98,0
3,66,94,0
3,64,89,0
3,52,88,0
3,57,102,0
3,59,97,0
3,62,95,0
3,59,103,0
3,59,94,0
3,52,96,0
3,80,97,0
3,80,91,0
3,76,99,0
3,76,99,0
3,73,103,0
3,71,90,0
3,68,94,0
3,59,97,0
3,52,95,0
3,62,92,0
3,59,99,240
3,59,97,0
3,80,89,240
3,83,88,0
3,90,96,0
3,90,101,0
3,90,103,0
3,90,99,0
3,88,102,0
3,92,93,0
3,92,92,0
3,52,90,0
3,59,102,0
3,62,88,0
3,59,93,240
3,59,96,0
3,52,88,0
3,52,98,0
3,59,96,0
3,62,91,0
3,64,92,0
3,64,93,0
3,64,101,0
3,66,100,0
3,64,93,0
3,64,101,0
3,64,93,0
3,64,94,0
3,64,101,0
3,64,92,0
3,66,102,0
3,68,101,0
3,71,102,0
3,68,95,0
3,69,94,0
3,73,97,0
3,69,99,0
3,68,90,0
3,59,101,0
3,59,101,0
3,63,92,0
3,64,92,0
3,64,101,0
3,67,96,0
3,57,95,0
3,57,99,0
3,71,97,0
3,69,90,120
3,69,88,0
3,66,98,0
3,67,103,0
3,57,88,0
3,59,95,0
3,59,93,0
3,61,96,0
3,64,90,0
3,63,94,0
3,61,91,0
3,63,100,0
3,61,95,0
3,61,95,0
3,57,90,0
3,56,100,0
3,63,100,0
3,64,97,0
3,64,92,0
3,66,95,0
3,64,93,0
3,64,94,0
3,64,101,0
3,64,100,0
3,62,102,0
3,62,99,0
3,62,100,0
3,68,94,0
3,71,98,0
3,68,103,0
3,66,95,0
3,69,90,0
3,66,102,0
3,64,96,0
3,59,95,0
3,74,95,0
3,71,101,0
3,67,96,0
3,62,98,0
3,55,92,0
3,72,99,0
3,60,101,0
3,76,103,0
3,67,91,0
3,62,93,0
3,74,92,0
3,69,100,0
3,78,100,0
3,67,98,0
3,62,100,120
3,62,98,0
3,62,102,0
3,62,89,0
3,66,90,0
3,69,88,0
3,71,92,0
3,71,94,0
3,69,91,0
3,66,88,0
3,62,98,0
3,74,103,0
3,71,93,0
3,67,100,0
3,62,98,0
3,55,97,0
3,76,91,0
3,72,93,0
3,67,90,0
3,60,98,0
3,78,88,0
3,74,102,0
3,69,88,0
3,62,94,0
3,62,96,0
3,69,93,0
3,74,91,0
3,78,89,0
3,62,89,0
3,69,94,0
3,74,91,0
3,78,93,0
3,62,96,0
3,69,103,0
3,74,97,0
3,78,90,0
3,62,92,0
3,69,97,0
3,74,89,0
3,78,88,0
3,78,91,0
3,74,88,0
3,69,90,0
3,62,91,0
3,78,88,0
3,74,90,0
3,69,88,0
3,62,100,0
3,78,103,0
3,74,97,0
3,69,88,0
3,62,88,0
3,76,96,0
3,71,99,0
3,68,93,0
3,64,93,0
3,59,100,0
3,52,89,0
3,71,91,0
3,66,98,0
3,59,89,0
3,66,89,0
3,71,89,0
3,76,97,0
3,71,101,0
3,75,93,0
3,71,89,0
3,71,97,0
3,74,97,0
3,74,101,0
3,71,96,0
3,69,100,0
3,69,90,0
3,62,94,0
3,72,96,0
3,72,96,0
3,62,95,0
3,69,100,0
3,69,90,0
3,62,96,0
3,62,97,0
3,62,89,0
3,62,90,0
3,79,101,0
3,79,95,0
3,62,91,0
3,79,95,0
3,62,89,0
3,62,98,0
3,62,99,0
3,62,102,0
3,62,88,0
3,74,90,0
3,74,94,0
3,62,99,0
3,77,92,0
3,62,98,0
3,74,89,0
3,74,97,0
3,62,90,0
3,62,98,0
3,62,99,0
3,62,98,0
3,83,103,0
3,83,99,0
3,62,88,0
3,81,99,0
3,62,100,0
3,62,103,0
3,62,103,0
3,81,98,0
3,81,91,0
3,74,89,0
3,83,93,0
3,83,98,0
3,74,97,0
3,81,97,0
3,81,93,0
3,62,89,0
3,95,98,0
3,95,98,0
3,95,96,0
3,95,99,0
3,95,88,0
3,95,98,0
3,93,103,0
3,57,96,0
3,57,93,0
3,58,88,0
3,59,103,0
3,60,100,0
3,59,93,0
3,58,103,0
3,57,96,0
3,57,94,0
3,60,90,0
3,62,103,0
3,67,98,0
3,62,88,120
3,64,102,0
3,66,90,0
3,66,100,0
3,67,92,0
3,57,103,0
3,57,95,0
3,58,93,0
3,59,100,0
3,60,102,0
3,59,99,0
3,58,97,0
3,57,102,0
3,57,101,0
3,60,94,0
3,62,100,0
3,67,97,0
